0, 0, Header, 1, 3, 960
1, 0, Start_track
1, 0, Title_t, "Deep Purple"
1, 0, Text_t, "dougmck@tpg.com.au Improvised solo jazz piano\012"
1, 0, Time_signature, 4, 2, 24, 8
1, 0, Key_signature, -1, "major"
1, 0, Tempo, 681818
1, 19200, Marker_t, "Perfect 4ths voicings follow melody"
1, 57648, Marker_t, "'Ladybird' turnaround - Fmaj7/AbMaj7/DbMaj7/GbMaj7"
1, 73029, Marker_t, "10ths in triplets -Left hand plays octave & Right plays 10th"
1, 81384, Marker_t, "More pfct 4ths follow melody - LH plays bottom note"
1, 88327, Marker_t, "Trill on melody note and upper neighbour"
1, 89767, Marker_t, "LeftH plays little counter melody"
1, 119040, Marker_t, "Another 'Ladybird' turnaround"
1, 131305, Marker_t, "Dim chord inversions - LH plays bottom note"
1, 139181, Marker_t, "Half/whole dim scale on C7"
1, 142080, Marker_t, "Play melody notes twice as 16th notes instead of once as 8th notes"
1, 149760, Marker_t, "Same idea as trill above - this time a tremolo in RH with LH counter melody"
1, 158400, Marker_t, "Series of 11th voicings follow melody down chromatically"
1, 165848, Marker_t, "Little RH figure involving a triad"
1, 169320, Marker_t, "Similar figure repeated over each new chord"
1, 186345, Marker_t, "Dim scale again on C7"
1, 188160, Marker_t, "Simple figure on notes of F6"
1, 199718, Marker_t, "Tatum-like run - RH descends, then LH ascends"
1, 218891, Marker_t, "Very light staccato touch"
1, 230457, Marker_t, "More RH tremolo - this time LH plays walking bass line but in treble register"
1, 235936, Marker_t, "LH and RH in unison an octave apart"
1, 241920, Marker_t, "Strong 12/8 feel briefly"
1, 249600, Marker_t, "Melody notes with 4th voicing - each approached with similar voicing above"
1, 255246, Marker_t, "Easy to finger descending run on Gb dim chord - start  on 2nd finger"
1, 261120, Marker_t, "As above RH descends then LH ascends"
1, 270655, Marker_t, "On Eb7 2 notes (Eb&Db) alternate with  A7 (A&G) in triplet rhythm"
1, 272640, Marker_t, "Similar figure on D7 (D&C) and its tritone Ab7 (Ab&Gb)"
1, 288000, Marker_t, "Dramatic 'concerto' style with big full chords in both hands"
1, 295680, Marker_t, "On Gm7, block chords with LH chromatic approaches up inversions of GM9 chord"
1, 304424, Marker_t, "Ladybird again !"
1, 340336, Marker_t, "RH plays very lightly in extreme treble area of piano - LH plays simple"
1, 360979, Marker_t, "Another half/whole dim run on C7"
1, 376320, Marker_t, "On F#dim, chord is inverted - LH links each with chromatic passing tones"
1, 385869, Marker_t, "A pedal tone (C) on 'ands' in Left hand"
1, 407065, Marker_t, "More RH tremolos - this time LH plays melody"
1, 438464, Marker_t, "RH plays chords - LH plays melodic phrase below"
1, 438464, End_track
2, 0, Start_track
2, 0, Title_t, "Track 1"
2, 0, End_track
3, 0, Start_track
3, 0, Title_t, "Track 2"
3, 2519, Note_on_c, 0, 60, 64
3, 2763, Note_on_c, 0, 60, 0
3, 2893, Note_on_c, 0, 62, 74
3, 2916, Control_c, 0, 64, 127
3, 3263, Note_on_c, 0, 62, 0
3, 3767, Control_c, 0, 64, 0
3, 3819, Note_on_c, 0, 41, 26
3, 3821, Note_on_c, 0, 48, 34
3, 3857, Note_on_c, 0, 72, 51
3, 3859, Note_on_c, 0, 62, 36
3, 3873, Note_on_c, 0, 57, 35
3, 3878, Note_on_c, 0, 67, 33
3, 3990, Control_c, 0, 64, 127
3, 4117, Note_on_c, 0, 41, 0
3, 4185, Note_on_c, 0, 48, 0
3, 4249, Note_on_c, 0, 57, 0
3, 4270, Note_on_c, 0, 62, 0
3, 4802, Note_on_c, 0, 62, 47
3, 4818, Note_on_c, 0, 60, 35
3, 4861, Note_on_c, 0, 53, 16
3, 4891, Note_on_c, 0, 62, 0
3, 4929, Note_on_c, 0, 60, 0
3, 4994, Note_on_c, 0, 53, 0
3, 5126, Note_on_c, 0, 67, 0
3, 5194, Note_on_c, 0, 72, 0
3, 5791, Control_c, 0, 64, 0
3, 5810, Note_on_c, 0, 36, 48
3, 5866, Control_c, 0, 64, 127
3, 5868, Note_on_c, 0, 36, 0
3, 6453, Note_on_c, 0, 72, 108
3, 6778, Note_on_c, 0, 62, 47
3, 6782, Note_on_c, 0, 60, 40
3, 6795, Note_on_c, 0, 53, 24
3, 6820, Note_on_c, 0, 62, 0
3, 6837, Note_on_c, 0, 60, 0
3, 6854, Control_c, 0, 64, 0
3, 6868, Note_on_c, 0, 53, 0
3, 6953, Control_c, 0, 64, 127
3, 7074, Note_on_c, 0, 72, 0
3, 7145, Note_on_c, 0, 72, 56
3, 7382, Note_on_c, 0, 72, 0
3, 7446, Note_on_c, 0, 74, 68
3, 7634, Note_on_c, 0, 74, 0
3, 7732, Control_c, 0, 64, 0
3, 7759, Note_on_c, 0, 42, 36
3, 7762, Note_on_c, 0, 75, 55
3, 7825, Note_on_c, 0, 54, 23
3, 7916, Control_c, 0, 64, 127
3, 7980, Note_on_c, 0, 42, 0
3, 8068, Note_on_c, 0, 54, 0
3, 8272, Note_on_c, 0, 75, 0
3, 8458, Note_on_c, 0, 60, 47
3, 8757, Control_c, 0, 64, 0
3, 8764, Note_on_c, 0, 63, 44
3, 8768, Note_on_c, 0, 60, 44
3, 8777, Note_on_c, 0, 60, 0
3, 8787, Note_on_c, 0, 66, 50
3, 8802, Note_on_c, 0, 69, 44
3, 9040, Control_c, 0, 64, 127
3, 9635, Note_on_c, 0, 60, 0
3, 9645, Control_c, 0, 64, 0
3, 9678, Note_on_c, 0, 57, 33
3, 9768, Control_c, 0, 64, 127
3, 10026, Note_on_c, 0, 63, 0
3, 10087, Note_on_c, 0, 57, 0
3, 10212, Note_on_c, 0, 66, 0
3, 10332, Note_on_c, 0, 69, 0
3, 10571, Control_c, 0, 64, 0
3, 10595, Note_on_c, 0, 54, 35
3, 10596, Note_on_c, 0, 60, 40
3, 10597, Note_on_c, 0, 72, 44
3, 10606, Note_on_c, 0, 65, 36
3, 10624, Note_on_c, 0, 44, 26
3, 10650, Note_on_c, 0, 69, 16
3, 10821, Control_c, 0, 64, 127
3, 10857, Note_on_c, 0, 72, 0
3, 10867, Note_on_c, 0, 65, 0
3, 10897, Note_on_c, 0, 69, 0
3, 10906, Note_on_c, 0, 60, 0
3, 10952, Note_on_c, 0, 54, 0
3, 11014, Note_on_c, 0, 44, 0
3, 11185, Note_on_c, 0, 50, 38
3, 11192, Note_on_c, 0, 73, 45
3, 11197, Note_on_c, 0, 61, 55
3, 11227, Note_on_c, 0, 68, 42
3, 11382, Note_on_c, 0, 68, 0
3, 11402, Control_c, 0, 64, 0
3, 11409, Note_on_c, 0, 61, 0
3, 11435, Note_on_c, 0, 50, 0
3, 11484, Note_on_c, 0, 73, 0
3, 11515, Note_on_c, 0, 74, 49
3, 11519, Note_on_c, 0, 43, 24
3, 11521, Note_on_c, 0, 62, 41
3, 11524, Note_on_c, 0, 53, 25
3, 11561, Note_on_c, 0, 70, 30
3, 11574, Control_c, 0, 64, 127
3, 11622, Note_on_c, 0, 62, 0
3, 11633, Note_on_c, 0, 43, 0
3, 11673, Note_on_c, 0, 70, 0
3, 11702, Note_on_c, 0, 74, 0
3, 11711, Note_on_c, 0, 53, 0
3, 12162, Note_on_c, 0, 79, 66
3, 12177, Note_on_c, 0, 67, 62
3, 12188, Note_on_c, 0, 74, 64
3, 12353, Control_c, 0, 64, 0
3, 12437, Note_on_c, 0, 55, 31
3, 12446, Note_on_c, 0, 58, 45
3, 12509, Note_on_c, 0, 58, 0
3, 12528, Note_on_c, 0, 55, 0
3, 12636, Control_c, 0, 64, 127
3, 13060, Note_on_c, 0, 79, 0
3, 13064, Note_on_c, 0, 67, 0
3, 13092, Note_on_c, 0, 50, 35
3, 13197, Note_on_c, 0, 74, 0
3, 13401, Control_c, 0, 64, 0
3, 13420, Note_on_c, 0, 82, 58
3, 13423, Note_on_c, 0, 53, 37
3, 13431, Note_on_c, 0, 70, 48
3, 13434, Note_on_c, 0, 50, 0
3, 13434, Note_on_c, 0, 74, 57
3, 13458, Note_on_c, 0, 77, 39
3, 13571, Note_on_c, 0, 53, 0
3, 13600, Control_c, 0, 64, 127
3, 13734, Note_on_c, 0, 74, 0
3, 13777, Note_on_c, 0, 77, 0
3, 13788, Note_on_c, 0, 70, 0
3, 13900, Note_on_c, 0, 82, 0
3, 14030, Note_on_c, 0, 43, 38
3, 14250, Note_on_c, 0, 43, 0
3, 14378, Note_on_c, 0, 51, 51
3, 14390, Control_c, 0, 64, 0
3, 14399, Note_on_c, 0, 86, 66
3, 14405, Note_on_c, 0, 74, 60
3, 14410, Note_on_c, 0, 82, 49
3, 14431, Note_on_c, 0, 79, 50
3, 14464, Note_on_c, 0, 51, 0
3, 14575, Control_c, 0, 64, 127
3, 14896, Note_on_c, 0, 86, 0
3, 14915, Note_on_c, 0, 74, 0
3, 14954, Note_on_c, 0, 79, 0
3, 14984, Note_on_c, 0, 82, 0
3, 15045, Note_on_c, 0, 72, 51
3, 15059, Note_on_c, 0, 84, 37
3, 15071, Note_on_c, 0, 79, 43
3, 15095, Note_on_c, 0, 72, 0
3, 15116, Note_on_c, 0, 79, 0
3, 15175, Note_on_c, 0, 84, 0
3, 15303, Control_c, 0, 64, 0
3, 15364, Note_on_c, 0, 36, 27
3, 15403, Note_on_c, 0, 52, 26
3, 15477, Control_c, 0, 64, 127
3, 15513, Note_on_c, 0, 36, 0
3, 15690, Note_on_c, 0, 52, 0
3, 16325, Note_on_c, 0, 64, 53
3, 16328, Control_c, 0, 64, 0
3, 16349, Note_on_c, 0, 58, 44
3, 16360, Note_on_c, 0, 60, 39
3, 16489, Control_c, 0, 64, 127
3, 16659, Note_on_c, 0, 60, 0
3, 16761, Note_on_c, 0, 64, 0
3, 16762, Note_on_c, 0, 58, 0
3, 17336, Note_on_c, 0, 80, 74
3, 17346, Note_on_c, 0, 70, 82
3, 17353, Note_on_c, 0, 68, 55
3, 17358, Note_on_c, 0, 73, 55
3, 17361, Note_on_c, 0, 76, 67
3, 17366, Control_c, 0, 64, 0
3, 17808, Note_on_c, 0, 67, 64
3, 17844, Note_on_c, 0, 68, 0
3, 17898, Control_c, 0, 64, 127
3, 18126, Note_on_c, 0, 70, 0
3, 18157, Note_on_c, 0, 80, 0
3, 18174, Note_on_c, 0, 73, 0
3, 18216, Note_on_c, 0, 76, 0
3, 18229, Note_on_c, 0, 67, 0
3, 18289, Note_on_c, 0, 81, 64
3, 18292, Control_c, 0, 64, 0
3, 18293, Note_on_c, 0, 64, 48
3, 18296, Note_on_c, 0, 73, 49
3, 18303, Note_on_c, 0, 70, 52
3, 18307, Note_on_c, 0, 76, 51
3, 18588, Control_c, 0, 64, 127
3, 18731, Note_on_c, 0, 64, 0
3, 18742, Note_on_c, 0, 70, 0
3, 18764, Note_on_c, 0, 81, 0
3, 18774, Note_on_c, 0, 60, 49
3, 18787, Note_on_c, 0, 76, 0
3, 18789, Note_on_c, 0, 73, 0
3, 18898, Note_on_c, 0, 60, 0
3, 19219, Control_c, 0, 64, 0
3, 19261, Note_on_c, 0, 69, 77
3, 19262, Note_on_c, 0, 79, 69
3, 19264, Note_on_c, 0, 74, 75
3, 19290, Note_on_c, 0, 64, 47
3, 19527, Control_c, 0, 64, 127
3, 19546, Note_on_c, 0, 64, 0
3, 19668, Note_on_c, 0, 79, 0
3, 19692, Note_on_c, 0, 74, 0
3, 19725, Note_on_c, 0, 69, 0
3, 20084, Control_c, 0, 64, 0
3, 20154, Note_on_c, 0, 77, 57
3, 20162, Note_on_c, 0, 67, 47
3, 20164, Note_on_c, 0, 62, 41
3, 20171, Note_on_c, 0, 72, 57
3, 20267, Control_c, 0, 64, 127
3, 20501, Note_on_c, 0, 77, 0
3, 20528, Note_on_c, 0, 62, 0
3, 20569, Note_on_c, 0, 72, 0
3, 20633, Note_on_c, 0, 67, 0
3, 21058, Control_c, 0, 64, 0
3, 21088, Note_on_c, 0, 62, 45
3, 21089, Note_on_c, 0, 72, 46
3, 21096, Note_on_c, 0, 67, 47
3, 21110, Note_on_c, 0, 57, 45
3, 21232, Control_c, 0, 64, 127
3, 21471, Note_on_c, 0, 72, 0
3, 21520, Note_on_c, 0, 67, 0
3, 21621, Note_on_c, 0, 62, 0
3, 21622, Note_on_c, 0, 57, 0
3, 22034, Control_c, 0, 64, 0
3, 22062, Note_on_c, 0, 69, 41
3, 22072, Note_on_c, 0, 60, 32
3, 22074, Note_on_c, 0, 64, 49
3, 22107, Note_on_c, 0, 53, 25
3, 22169, Control_c, 0, 64, 127
3, 22327, Note_on_c, 0, 53, 0
3, 22385, Note_on_c, 0, 69, 0
3, 22445, Note_on_c, 0, 64, 0
3, 22493, Note_on_c, 0, 60, 0
3, 23049, Note_on_c, 0, 61, 36
3, 23055, Control_c, 0, 64, 0
3, 23056, Note_on_c, 0, 67, 38
3, 23090, Note_on_c, 0, 55, 22
3, 23107, Note_on_c, 0, 46, 25
3, 23119, Note_on_c, 0, 39, 25
3, 23302, Control_c, 0, 64, 127
3, 23574, Note_on_c, 0, 55, 0
3, 23703, Note_on_c, 0, 61, 0
3, 23991, Note_on_c, 0, 61, 26
3, 24030, Note_on_c, 0, 55, 24
3, 24206, Note_on_c, 0, 55, 0
3, 24264, Note_on_c, 0, 67, 0
3, 24296, Note_on_c, 0, 61, 0
3, 24446, Note_on_c, 0, 39, 0
3, 24489, Note_on_c, 0, 46, 0
3, 25471, Note_on_c, 0, 65, 53
3, 25476, Note_on_c, 0, 61, 33
3, 25487, Control_c, 0, 64, 0
3, 25491, Note_on_c, 0, 60, 34
3, 25528, Note_on_c, 0, 55, 27
3, 25598, Control_c, 0, 64, 127
3, 25858, Control_c, 0, 64, 0
3, 25924, Note_on_c, 0, 68, 69
3, 25957, Control_c, 0, 64, 127
3, 26204, Note_on_c, 0, 68, 0
3, 26209, Note_on_c, 0, 69, 60
3, 26232, Note_on_c, 0, 65, 0
3, 26309, Note_on_c, 0, 69, 0
3, 26316, Note_on_c, 0, 60, 0
3, 26340, Note_on_c, 0, 61, 0
3, 26377, Note_on_c, 0, 55, 0
3, 26522, Note_on_c, 0, 74, 90
3, 26797, Control_c, 0, 64, 0
3, 26835, Note_on_c, 0, 62, 57
3, 27097, Note_on_c, 0, 62, 0
3, 27166, Note_on_c, 0, 50, 34
3, 27176, Note_on_c, 0, 74, 0
3, 27326, Note_on_c, 0, 50, 0
3, 27488, Control_c, 0, 64, 127
3, 27509, Note_on_c, 0, 62, 36
3, 27686, Note_on_c, 0, 62, 0
3, 27821, Control_c, 0, 64, 0
3, 27854, Note_on_c, 0, 68, 64
3, 27880, Note_on_c, 0, 60, 33
3, 28087, Note_on_c, 0, 68, 0
3, 28152, Note_on_c, 0, 69, 38
3, 28239, Note_on_c, 0, 68, 36
3, 28273, Note_on_c, 0, 69, 0
3, 28418, Note_on_c, 0, 64, 53
3, 28476, Control_c, 0, 64, 127
3, 28542, Note_on_c, 0, 68, 0
3, 28545, Note_on_c, 0, 60, 0
3, 28546, Note_on_c, 0, 64, 0
3, 28662, Control_c, 0, 64, 0
3, 28767, Note_on_c, 0, 60, 36
3, 28783, Note_on_c, 0, 67, 55
3, 28822, Note_on_c, 0, 50, 20
3, 28905, Note_on_c, 0, 60, 0
3, 29008, Note_on_c, 0, 67, 0
3, 29009, Note_on_c, 0, 50, 0
3, 29044, Control_c, 0, 64, 127
3, 29085, Note_on_c, 0, 69, 32
3, 29093, Control_c, 0, 64, 0
3, 29142, Control_c, 0, 64, 127
3, 29182, Note_on_c, 0, 67, 37
3, 29215, Note_on_c, 0, 69, 0
3, 29347, Note_on_c, 0, 67, 0
3, 29384, Note_on_c, 0, 64, 34
3, 29673, Control_c, 0, 64, 0
3, 29678, Note_on_c, 0, 64, 0
3, 29723, Note_on_c, 0, 65, 53
3, 29740, Note_on_c, 0, 39, 32
3, 29957, Control_c, 0, 64, 127
3, 30214, Note_on_c, 0, 39, 0
3, 30312, Note_on_c, 0, 65, 0
3, 30367, Note_on_c, 0, 66, 48
3, 30698, Control_c, 0, 64, 0
3, 30743, Note_on_c, 0, 38, 46
3, 30883, Control_c, 0, 64, 127
3, 31385, Note_on_c, 0, 50, 44
3, 31679, Note_on_c, 0, 50, 0
3, 31694, Note_on_c, 0, 38, 0
3, 31722, Control_c, 0, 64, 0
3, 31753, Note_on_c, 0, 55, 37
3, 31754, Note_on_c, 0, 40, 40
3, 32267, Control_c, 0, 64, 127
3, 32537, Note_on_c, 0, 55, 0
3, 32643, Note_on_c, 0, 55, 44
3, 32662, Control_c, 0, 64, 0
3, 32741, Note_on_c, 0, 66, 0
3, 33234, Note_on_c, 0, 41, 37
3, 33240, Note_on_c, 0, 56, 57
3, 33245, Note_on_c, 0, 40, 0
3, 33272, Note_on_c, 0, 55, 0
3, 33542, Note_on_c, 0, 56, 0
3, 33604, Note_on_c, 0, 57, 47
3, 33605, Note_on_c, 0, 41, 0
3, 33616, Note_on_c, 0, 42, 39
3, 34082, Control_c, 0, 64, 127
3, 34095, Note_on_c, 0, 42, 0
3, 34205, Note_on_c, 0, 42, 25
3, 34256, Note_on_c, 0, 57, 0
3, 34440, Control_c, 0, 64, 0
3, 34536, Note_on_c, 0, 42, 0
3, 34562, Note_on_c, 0, 58, 50
3, 34568, Note_on_c, 0, 53, 33
3, 34571, Note_on_c, 0, 43, 29
3, 34638, Control_c, 0, 64, 127
3, 34684, Note_on_c, 0, 53, 0
3, 34747, Note_on_c, 0, 43, 0
3, 34759, Note_on_c, 0, 58, 0
3, 35596, Note_on_c, 0, 61, 52
3, 35640, Note_on_c, 0, 55, 33
3, 35698, Note_on_c, 0, 61, 0
3, 35748, Note_on_c, 0, 55, 0
3, 36178, Note_on_c, 0, 81, 79
3, 36191, Note_on_c, 0, 50, 74
3, 36193, Note_on_c, 0, 72, 68
3, 36283, Note_on_c, 0, 72, 0
3, 36324, Note_on_c, 0, 81, 0
3, 36457, Control_c, 0, 64, 0
3, 36491, Note_on_c, 0, 50, 0
3, 36539, Note_on_c, 0, 43, 47
3, 36544, Note_on_c, 0, 53, 45
3, 36547, Note_on_c, 0, 84, 88
3, 36554, Note_on_c, 0, 72, 90
3, 36557, Note_on_c, 0, 77, 88
3, 36645, Note_on_c, 0, 43, 0
3, 36692, Control_c, 0, 64, 127
3, 36729, Note_on_c, 0, 53, 0
3, 36941, Note_on_c, 0, 77, 0
3, 36956, Note_on_c, 0, 84, 0
3, 36963, Note_on_c, 0, 72, 0
3, 37128, Note_on_c, 0, 83, 70
3, 37147, Note_on_c, 0, 77, 66
3, 37150, Note_on_c, 0, 71, 66
3, 37300, Note_on_c, 0, 83, 0
3, 37302, Note_on_c, 0, 71, 0
3, 37385, Note_on_c, 0, 77, 0
3, 37420, Control_c, 0, 64, 0
3, 37426, Note_on_c, 0, 61, 36
3, 37457, Note_on_c, 0, 58, 53
3, 37484, Note_on_c, 0, 53, 19
3, 37492, Note_on_c, 0, 82, 62
3, 37513, Note_on_c, 0, 77, 42
3, 37514, Note_on_c, 0, 70, 46
3, 37644, Note_on_c, 0, 61, 0
3, 37723, Note_on_c, 0, 53, 0
3, 37729, Control_c, 0, 64, 127
3, 37743, Note_on_c, 0, 77, 0
3, 37766, Note_on_c, 0, 58, 0
3, 37769, Note_on_c, 0, 70, 0
3, 37816, Control_c, 0, 64, 0
3, 37823, Note_on_c, 0, 82, 0
3, 38001, Control_c, 0, 64, 127
3, 38095, Note_on_c, 0, 81, 66
3, 38113, Note_on_c, 0, 69, 63
3, 38125, Note_on_c, 0, 73, 37
3, 38129, Note_on_c, 0, 77, 41
3, 38200, Note_on_c, 0, 73, 0
3, 38211, Control_c, 0, 64, 0
3, 38212, Note_on_c, 0, 69, 0
3, 38252, Note_on_c, 0, 77, 0
3, 38263, Note_on_c, 0, 81, 0
3, 38380, Note_on_c, 0, 56, 43
3, 38390, Note_on_c, 0, 46, 36
3, 38582, Control_c, 0, 64, 127
3, 38588, Note_on_c, 0, 46, 0
3, 38642, Note_on_c, 0, 80, 42
3, 38651, Note_on_c, 0, 56, 0
3, 38682, Note_on_c, 0, 68, 25
3, 38683, Note_on_c, 0, 77, 35
3, 38706, Note_on_c, 0, 73, 20
3, 38934, Note_on_c, 0, 77, 0
3, 38963, Note_on_c, 0, 68, 0
3, 39069, Note_on_c, 0, 80, 0
3, 39070, Note_on_c, 0, 73, 0
3, 39272, Control_c, 0, 64, 0
3, 39299, Note_on_c, 0, 61, 36
3, 39306, Note_on_c, 0, 65, 32
3, 39309, Note_on_c, 0, 73, 34
3, 39318, Note_on_c, 0, 79, 35
3, 39329, Note_on_c, 0, 67, 31
3, 39352, Note_on_c, 0, 60, 29
3, 39459, Control_c, 0, 64, 127
3, 39579, Note_on_c, 0, 65, 0
3, 39582, Note_on_c, 0, 79, 0
3, 39639, Note_on_c, 0, 60, 0
3, 39656, Note_on_c, 0, 61, 0
3, 39665, Note_on_c, 0, 73, 0
3, 39692, Note_on_c, 0, 67, 0
3, 40116, Note_on_c, 0, 54, 34
3, 40173, Note_on_c, 0, 56, 34
3, 40255, Note_on_c, 0, 56, 0
3, 40274, Control_c, 0, 64, 0
3, 40275, Note_on_c, 0, 61, 56
3, 40286, Note_on_c, 0, 54, 0
3, 40288, Note_on_c, 0, 57, 58
3, 40295, Note_on_c, 0, 65, 50
3, 40298, Note_on_c, 0, 72, 37
3, 40301, Note_on_c, 0, 68, 37
3, 40551, Note_on_c, 0, 56, 33
3, 40552, Note_on_c, 0, 57, 0
3, 40648, Note_on_c, 0, 61, 0
3, 40651, Note_on_c, 0, 65, 0
3, 40668, Note_on_c, 0, 56, 0
3, 40696, Note_on_c, 0, 55, 38
3, 40705, Note_on_c, 0, 68, 0
3, 40710, Note_on_c, 0, 72, 0
3, 40859, Note_on_c, 0, 55, 0
3, 40860, Note_on_c, 0, 54, 51
3, 40908, Note_on_c, 0, 54, 0
3, 41024, Note_on_c, 0, 53, 32
3, 41262, Note_on_c, 0, 53, 0
3, 41280, Note_on_c, 0, 61, 53
3, 41304, Note_on_c, 0, 72, 42
3, 41312, Note_on_c, 0, 57, 52
3, 41321, Note_on_c, 0, 65, 46
3, 41570, Note_on_c, 0, 65, 0
3, 41582, Note_on_c, 0, 61, 0
3, 41594, Note_on_c, 0, 57, 0
3, 41604, Note_on_c, 0, 56, 56
3, 41645, Note_on_c, 0, 72, 0
3, 41715, Note_on_c, 0, 56, 0
3, 41805, Control_c, 0, 64, 127
3, 42064, Control_c, 0, 64, 0
3, 42179, Note_on_c, 0, 60, 43
3, 42186, Note_on_c, 0, 64, 48
3, 42194, Note_on_c, 0, 55, 37
3, 42199, Control_c, 0, 64, 127
3, 42202, Note_on_c, 0, 67, 34
3, 42230, Note_on_c, 0, 45, 45
3, 42452, Note_on_c, 0, 45, 0
3, 42563, Note_on_c, 0, 55, 0
3, 42571, Note_on_c, 0, 60, 0
3, 42717, Note_on_c, 0, 64, 0
3, 42768, Note_on_c, 0, 67, 0
3, 43164, Note_on_c, 0, 64, 46
3, 43175, Note_on_c, 0, 57, 47
3, 43198, Note_on_c, 0, 60, 45
3, 43460, Note_on_c, 0, 64, 0
3, 43512, Note_on_c, 0, 60, 0
3, 43621, Note_on_c, 0, 57, 0
3, 43828, Note_on_c, 0, 76, 105
3, 43837, Note_on_c, 0, 79, 84
3, 44137, Note_on_c, 0, 45, 51
3, 44151, Control_c, 0, 64, 0
3, 44152, Note_on_c, 0, 55, 31
3, 44249, Control_c, 0, 64, 127
3, 44258, Note_on_c, 0, 45, 0
3, 44334, Note_on_c, 0, 55, 0
3, 44369, Note_on_c, 0, 76, 0
3, 44386, Control_c, 0, 64, 0
3, 44438, Note_on_c, 0, 79, 0
3, 44446, Control_c, 0, 64, 127
3, 44505, Note_on_c, 0, 78, 57
3, 44508, Note_on_c, 0, 75, 62
3, 44728, Note_on_c, 0, 78, 0
3, 44748, Note_on_c, 0, 75, 0
3, 44805, Note_on_c, 0, 74, 62
3, 44816, Note_on_c, 0, 77, 54
3, 44996, Note_on_c, 0, 77, 0
3, 45032, Note_on_c, 0, 74, 0
3, 45089, Control_c, 0, 64, 0
3, 45098, Note_on_c, 0, 64, 44
3, 45110, Note_on_c, 0, 55, 24
3, 45126, Note_on_c, 0, 60, 43
3, 45130, Note_on_c, 0, 79, 59
3, 45131, Note_on_c, 0, 57, 42
3, 45134, Note_on_c, 0, 76, 64
3, 45210, Note_on_c, 0, 64, 0
3, 45234, Note_on_c, 0, 55, 0
3, 45259, Note_on_c, 0, 60, 0
3, 45264, Note_on_c, 0, 76, 0
3, 45298, Note_on_c, 0, 79, 0
3, 45324, Control_c, 0, 64, 127
3, 45379, Note_on_c, 0, 57, 0
3, 45437, Note_on_c, 0, 75, 51
3, 45447, Note_on_c, 0, 78, 36
3, 45624, Note_on_c, 0, 75, 0
3, 45636, Note_on_c, 0, 78, 0
3, 45729, Note_on_c, 0, 74, 59
3, 45737, Note_on_c, 0, 77, 53
3, 45895, Note_on_c, 0, 77, 0
3, 45928, Note_on_c, 0, 74, 0
3, 46053, Control_c, 0, 64, 0
3, 46060, Note_on_c, 0, 44, 50
3, 46087, Note_on_c, 0, 53, 27
3, 46312, Control_c, 0, 64, 127
3, 46493, Note_on_c, 0, 44, 0
3, 46530, Note_on_c, 0, 53, 0
3, 47013, Note_on_c, 0, 62, 49
3, 47027, Note_on_c, 0, 56, 38
3, 47041, Control_c, 0, 64, 0
3, 47046, Note_on_c, 0, 59, 38
3, 47088, Note_on_c, 0, 53, 17
3, 47146, Note_on_c, 0, 62, 0
3, 47192, Note_on_c, 0, 59, 0
3, 47237, Note_on_c, 0, 53, 0
3, 47254, Note_on_c, 0, 56, 0
3, 47263, Control_c, 0, 64, 127
3, 47662, Note_on_c, 0, 50, 49
3, 47916, Note_on_c, 0, 50, 0
3, 47980, Control_c, 0, 64, 0
3, 48015, Note_on_c, 0, 72, 105
3, 48017, Note_on_c, 0, 53, 38
3, 48028, Note_on_c, 0, 76, 85
3, 48221, Note_on_c, 0, 53, 0
3, 48237, Note_on_c, 0, 72, 0
3, 48247, Note_on_c, 0, 76, 0
3, 48341, Note_on_c, 0, 75, 64
3, 48349, Note_on_c, 0, 71, 68
3, 48362, Control_c, 0, 64, 127
3, 48543, Note_on_c, 0, 75, 0
3, 48546, Note_on_c, 0, 71, 0
3, 48640, Note_on_c, 0, 74, 63
3, 48644, Note_on_c, 0, 71, 53
3, 48663, Note_on_c, 0, 67, 48
3, 48797, Note_on_c, 0, 67, 0
3, 48824, Note_on_c, 0, 71, 0
3, 48845, Note_on_c, 0, 74, 0
3, 48954, Control_c, 0, 64, 0
3, 48962, Note_on_c, 0, 56, 36
3, 48963, Note_on_c, 0, 76, 70
3, 48981, Note_on_c, 0, 62, 38
3, 48992, Note_on_c, 0, 72, 52
3, 48994, Note_on_c, 0, 59, 38
3, 49020, Note_on_c, 0, 53, 20
3, 49069, Note_on_c, 0, 62, 0
3, 49107, Note_on_c, 0, 72, 0
3, 49140, Note_on_c, 0, 59, 0
3, 49155, Note_on_c, 0, 76, 0
3, 49188, Control_c, 0, 64, 127
3, 49207, Note_on_c, 0, 56, 0
3, 49213, Note_on_c, 0, 53, 0
3, 49278, Note_on_c, 0, 75, 50
3, 49282, Note_on_c, 0, 71, 60
3, 49448, Note_on_c, 0, 75, 0
3, 49506, Note_on_c, 0, 71, 0
3, 49587, Note_on_c, 0, 71, 34
3, 49590, Note_on_c, 0, 74, 53
3, 49601, Note_on_c, 0, 44, 34
3, 49719, Note_on_c, 0, 71, 0
3, 49749, Note_on_c, 0, 74, 0
3, 49762, Note_on_c, 0, 44, 0
3, 49918, Control_c, 0, 64, 0
3, 49926, Note_on_c, 0, 43, 31
3, 49935, Note_on_c, 0, 74, 40
3, 49951, Note_on_c, 0, 65, 39
3, 49956, Note_on_c, 0, 70, 39
3, 50038, Note_on_c, 0, 43, 0
3, 50057, Note_on_c, 0, 65, 0
3, 50098, Note_on_c, 0, 74, 0
3, 50128, Note_on_c, 0, 70, 0
3, 50131, Note_on_c, 0, 65, 28
3, 50216, Note_on_c, 0, 74, 31
3, 50244, Note_on_c, 0, 65, 0
3, 50264, Note_on_c, 0, 70, 40
3, 50346, Note_on_c, 0, 74, 0
3, 50367, Note_on_c, 0, 65, 29
3, 50378, Note_on_c, 0, 70, 0
3, 50456, Note_on_c, 0, 65, 0
3, 50488, Note_on_c, 0, 74, 44
3, 50494, Note_on_c, 0, 70, 38
3, 50537, Note_on_c, 0, 70, 0
3, 50569, Note_on_c, 0, 74, 0
3, 50824, Note_on_c, 0, 58, 48
3, 50922, Note_on_c, 0, 58, 0
3, 51256, Note_on_c, 0, 50, 66
3, 51535, Note_on_c, 0, 50, 0
3, 51559, Note_on_c, 0, 53, 60
3, 51585, Control_c, 0, 64, 127
3, 51726, Note_on_c, 0, 53, 0
3, 51863, Note_on_c, 0, 57, 74
3, 51869, Control_c, 0, 64, 0
3, 51873, Note_on_c, 0, 58, 57
3, 51883, Note_on_c, 0, 62, 53
3, 51897, Note_on_c, 0, 65, 51
3, 52157, Note_on_c, 0, 56, 60
3, 52164, Note_on_c, 0, 57, 0
3, 52426, Note_on_c, 0, 56, 0
3, 52506, Note_on_c, 0, 55, 47
3, 52760, Note_on_c, 0, 62, 0
3, 52761, Note_on_c, 0, 58, 0
3, 52841, Note_on_c, 0, 65, 0
3, 52865, Note_on_c, 0, 50, 50
3, 52941, Note_on_c, 0, 55, 0
3, 53005, Control_c, 0, 64, 127
3, 53159, Note_on_c, 0, 61, 46
3, 53162, Note_on_c, 0, 58, 25
3, 53222, Note_on_c, 0, 50, 0
3, 53371, Note_on_c, 0, 61, 0
3, 53375, Note_on_c, 0, 58, 0
3, 53399, Note_on_c, 0, 49, 42
3, 53463, Note_on_c, 0, 62, 44
3, 53488, Note_on_c, 0, 49, 0
3, 53654, Note_on_c, 0, 62, 0
3, 53709, Control_c, 0, 64, 0
3, 53778, Note_on_c, 0, 58, 31
3, 53790, Note_on_c, 0, 67, 46
3, 53819, Note_on_c, 0, 36, 44
3, 53882, Control_c, 0, 64, 127
3, 53945, Note_on_c, 0, 36, 0
3, 53988, Note_on_c, 0, 58, 0
3, 54024, Note_on_c, 0, 67, 0
3, 54741, Note_on_c, 0, 79, 55
3, 54743, Note_on_c, 0, 64, 57
3, 54745, Note_on_c, 0, 67, 55
3, 54748, Note_on_c, 0, 76, 46
3, 54752, Note_on_c, 0, 73, 36
3, 54782, Note_on_c, 0, 58, 33
3, 54789, Note_on_c, 0, 60, 33
3, 54875, Note_on_c, 0, 64, 0
3, 54900, Note_on_c, 0, 60, 0
3, 54943, Note_on_c, 0, 58, 0
3, 55101, Note_on_c, 0, 79, 0
3, 55135, Note_on_c, 0, 76, 0
3, 55177, Note_on_c, 0, 67, 0
3, 55197, Note_on_c, 0, 73, 0
3, 55723, Note_on_c, 0, 48, 62
3, 55820, Control_c, 0, 64, 0
3, 55888, Note_on_c, 0, 48, 0
3, 55894, Control_c, 0, 64, 127
3, 56258, Note_on_c, 0, 72, 66
3, 56265, Control_c, 0, 64, 0
3, 56266, Note_on_c, 0, 64, 60
3, 56271, Note_on_c, 0, 63, 65
3, 56277, Note_on_c, 0, 68, 61
3, 56290, Note_on_c, 0, 58, 57
3, 56352, Control_c, 0, 64, 127
3, 56482, Note_on_c, 0, 72, 0
3, 56510, Note_on_c, 0, 63, 0
3, 56662, Note_on_c, 0, 64, 0
3, 56692, Note_on_c, 0, 68, 0
3, 56898, Note_on_c, 0, 58, 0
3, 57105, Control_c, 0, 64, 0
3, 57117, Note_on_c, 0, 74, 64
3, 57126, Note_on_c, 0, 64, 63
3, 57129, Note_on_c, 0, 68, 67
3, 57174, Note_on_c, 0, 58, 57
3, 57278, Control_c, 0, 64, 127
3, 57499, Note_on_c, 0, 74, 0
3, 57567, Note_on_c, 0, 64, 0
3, 57635, Note_on_c, 0, 68, 0
3, 57668, Note_on_c, 0, 58, 0
3, 57684, Control_c, 0, 64, 0
3, 57695, Note_on_c, 0, 72, 48
3, 57713, Note_on_c, 0, 62, 44
3, 57714, Note_on_c, 0, 67, 54
3, 57719, Note_on_c, 0, 57, 35
3, 57883, Control_c, 0, 64, 127
3, 57943, Note_on_c, 0, 57, 0
3, 58221, Note_on_c, 0, 41, 33
3, 58252, Control_c, 0, 64, 0
3, 58384, Note_on_c, 0, 41, 0
3, 58649, Control_c, 0, 64, 127
3, 58651, Note_on_c, 0, 41, 57
3, 59038, Note_on_c, 0, 41, 0
3, 59399, Note_on_c, 0, 62, 0
3, 59462, Note_on_c, 0, 67, 0
3, 59488, Control_c, 0, 64, 0
3, 59530, Note_on_c, 0, 44, 47
3, 59581, Note_on_c, 0, 51, 38
3, 59601, Note_on_c, 0, 72, 0
3, 59674, Control_c, 0, 64, 127
3, 59747, Note_on_c, 0, 44, 0
3, 59784, Note_on_c, 0, 51, 0
3, 60083, Note_on_c, 0, 63, 61
3, 60095, Note_on_c, 0, 58, 59
3, 60099, Note_on_c, 0, 53, 35
3, 60554, Note_on_c, 0, 70, 69
3, 60555, Note_on_c, 0, 63, 0
3, 60680, Note_on_c, 0, 58, 0
3, 60687, Note_on_c, 0, 53, 0
3, 60758, Note_on_c, 0, 70, 0
3, 60827, Note_on_c, 0, 75, 59
3, 60981, Note_on_c, 0, 75, 0
3, 61076, Note_on_c, 0, 72, 22
3, 61213, Note_on_c, 0, 72, 0
3, 61294, Note_on_c, 0, 77, 68
3, 61432, Note_on_c, 0, 77, 0
3, 61508, Note_on_c, 0, 84, 74
3, 61526, Control_c, 0, 64, 0
3, 61528, Note_on_c, 0, 37, 38
3, 61538, Note_on_c, 0, 44, 38
3, 61758, Note_on_c, 0, 37, 0
3, 61767, Note_on_c, 0, 84, 0
3, 61781, Note_on_c, 0, 77, 36
3, 61808, Note_on_c, 0, 44, 0
3, 61872, Control_c, 0, 64, 127
3, 61940, Note_on_c, 0, 77, 0
3, 61986, Note_on_c, 0, 82, 72
3, 62186, Note_on_c, 0, 82, 0
3, 62252, Note_on_c, 0, 80, 59
3, 62287, Note_on_c, 0, 82, 25
3, 62377, Note_on_c, 0, 80, 0
3, 62409, Note_on_c, 0, 82, 0
3, 62430, Note_on_c, 0, 63, 34
3, 62440, Control_c, 0, 64, 0
3, 62461, Note_on_c, 0, 53, 24
3, 62466, Note_on_c, 0, 58, 48
3, 62491, Note_on_c, 0, 72, 50
3, 62637, Control_c, 0, 64, 127
3, 62698, Note_on_c, 0, 72, 0
3, 62796, Note_on_c, 0, 72, 36
3, 62916, Note_on_c, 0, 53, 0
3, 62971, Note_on_c, 0, 72, 0
3, 62981, Note_on_c, 0, 58, 0
3, 62995, Note_on_c, 0, 63, 0
3, 63073, Note_on_c, 0, 73, 46
3, 63364, Note_on_c, 0, 65, 48
3, 63366, Control_c, 0, 64, 0
3, 63390, Note_on_c, 0, 54, 27
3, 63402, Note_on_c, 0, 60, 34
3, 63403, Note_on_c, 0, 58, 35
3, 63540, Control_c, 0, 64, 127
3, 63588, Note_on_c, 0, 65, 0
3, 63650, Note_on_c, 0, 60, 0
3, 63705, Note_on_c, 0, 58, 0
3, 63736, Note_on_c, 0, 75, 59
3, 63737, Note_on_c, 0, 54, 0
3, 63831, Note_on_c, 0, 73, 0
3, 63981, Note_on_c, 0, 75, 0
3, 64019, Note_on_c, 0, 67, 36
3, 64342, Control_c, 0, 64, 0
3, 64348, Note_on_c, 0, 42, 34
3, 64381, Note_on_c, 0, 50, 17
3, 64470, Note_on_c, 0, 50, 0
3, 64496, Note_on_c, 0, 42, 0
3, 64502, Control_c, 0, 64, 127
3, 64702, Note_on_c, 0, 68, 45
3, 64841, Note_on_c, 0, 67, 0
3, 64921, Note_on_c, 0, 68, 0
3, 65010, Note_on_c, 0, 70, 51
3, 65292, Control_c, 0, 64, 0
3, 65293, Note_on_c, 0, 70, 0
3, 65362, Note_on_c, 0, 41, 22
3, 65373, Note_on_c, 0, 48, 33
3, 65378, Note_on_c, 0, 72, 40
3, 65380, Note_on_c, 0, 57, 24
3, 65452, Control_c, 0, 64, 127
3, 65612, Note_on_c, 0, 41, 0
3, 65644, Note_on_c, 0, 48, 0
3, 65739, Note_on_c, 0, 57, 0
3, 65824, Note_on_c, 0, 72, 0
3, 66329, Control_c, 0, 64, 0
3, 66338, Note_on_c, 0, 62, 35
3, 66343, Note_on_c, 0, 60, 37
3, 66362, Note_on_c, 0, 57, 48
3, 66378, Note_on_c, 0, 62, 0
3, 66391, Note_on_c, 0, 53, 15
3, 66394, Note_on_c, 0, 60, 0
3, 66415, Note_on_c, 0, 57, 0
3, 66462, Note_on_c, 0, 53, 0
3, 66909, Control_c, 0, 64, 127
3, 67231, Control_c, 0, 64, 0
3, 67288, Note_on_c, 0, 36, 36
3, 67321, Note_on_c, 0, 48, 27
3, 67354, Note_on_c, 0, 84, 27
3, 67357, Note_on_c, 0, 72, 31
3, 67366, Note_on_c, 0, 76, 26
3, 67390, Note_on_c, 0, 48, 0
3, 67410, Note_on_c, 0, 81, 20
3, 67411, Note_on_c, 0, 36, 0
3, 67429, Control_c, 0, 64, 127
3, 67450, Note_on_c, 0, 84, 0
3, 67569, Note_on_c, 0, 76, 0
3, 67592, Note_on_c, 0, 72, 0
3, 67755, Note_on_c, 0, 81, 0
3, 68231, Control_c, 0, 64, 0
3, 68258, Note_on_c, 0, 62, 46
3, 68273, Note_on_c, 0, 60, 40
3, 68278, Note_on_c, 0, 53, 31
3, 68305, Note_on_c, 0, 57, 41
3, 68330, Note_on_c, 0, 62, 0
3, 68373, Note_on_c, 0, 60, 0
3, 68391, Control_c, 0, 64, 127
3, 68395, Note_on_c, 0, 57, 0
3, 68441, Note_on_c, 0, 53, 0
3, 68861, Note_on_c, 0, 86, 53
3, 68868, Note_on_c, 0, 74, 54
3, 68941, Note_on_c, 0, 74, 0
3, 68966, Note_on_c, 0, 48, 32
3, 68978, Note_on_c, 0, 86, 0
3, 69010, Note_on_c, 0, 48, 0
3, 69295, Note_on_c, 0, 75, 42
3, 69304, Control_c, 0, 64, 0
3, 69306, Note_on_c, 0, 63, 27
3, 69319, Note_on_c, 0, 66, 21
3, 69334, Note_on_c, 0, 69, 40
3, 69335, Note_on_c, 0, 54, 29
3, 69352, Note_on_c, 0, 60, 24
3, 69514, Control_c, 0, 64, 127
3, 69647, Note_on_c, 0, 60, 0
3, 69860, Note_on_c, 0, 63, 0
3, 70051, Note_on_c, 0, 69, 0
3, 70063, Note_on_c, 0, 66, 0
3, 70242, Note_on_c, 0, 75, 0
3, 70522, Note_on_c, 0, 54, 0
3, 70608, Note_on_c, 0, 63, 46
3, 70896, Note_on_c, 0, 63, 0
3, 71070, Control_c, 0, 64, 0
3, 71098, Note_on_c, 0, 66, 37
3, 71099, Note_on_c, 0, 60, 34
3, 71104, Note_on_c, 0, 63, 21
3, 71268, Control_c, 0, 64, 127
3, 71405, Note_on_c, 0, 63, 0
3, 71457, Note_on_c, 0, 66, 0
3, 71460, Note_on_c, 0, 60, 0
3, 72073, Note_on_c, 0, 63, 34
3, 72087, Note_on_c, 0, 60, 27
3, 72100, Note_on_c, 0, 54, 37
3, 72120, Control_c, 0, 64, 0
3, 72206, Control_c, 0, 64, 127
3, 72238, Note_on_c, 0, 54, 0
3, 72447, Note_on_c, 0, 63, 0
3, 72477, Note_on_c, 0, 60, 0
3, 73021, Note_on_c, 0, 31, 46
3, 73032, Control_c, 0, 64, 0
3, 73365, Note_on_c, 0, 43, 22
3, 73445, Note_on_c, 0, 31, 0
3, 73589, Note_on_c, 0, 43, 0
3, 73713, Note_on_c, 0, 58, 36
3, 74003, Note_on_c, 0, 33, 32
3, 74029, Note_on_c, 0, 58, 0
3, 74290, Note_on_c, 0, 45, 32
3, 74499, Note_on_c, 0, 33, 0
3, 74614, Note_on_c, 0, 60, 37
3, 74681, Note_on_c, 0, 45, 0
3, 74802, Note_on_c, 0, 60, 0
3, 74981, Note_on_c, 0, 34, 30
3, 75287, Note_on_c, 0, 46, 46
3, 75418, Note_on_c, 0, 46, 0
3, 75599, Note_on_c, 0, 62, 37
3, 75854, Note_on_c, 0, 34, 0
3, 75894, Note_on_c, 0, 62, 0
3, 75919, Note_on_c, 0, 35, 48
3, 76236, Note_on_c, 0, 53, 46
3, 76292, Note_on_c, 0, 35, 0
3, 76531, Note_on_c, 0, 62, 36
3, 76550, Note_on_c, 0, 47, 36
3, 76616, Note_on_c, 0, 47, 0
3, 76616, Note_on_c, 0, 62, 0
3, 76616, Note_on_c, 0, 53, 0
3, 76641, Control_c, 0, 64, 0
3, 76715, Note_on_c, 0, 36, 24
3, 76754, Note_on_c, 0, 52, 20
3, 76789, Control_c, 0, 64, 127
3, 76800, Note_on_c, 0, 64, 48
3, 76839, Note_on_c, 0, 36, 0
3, 76961, Note_on_c, 0, 52, 0
3, 77412, Note_on_c, 0, 87, 64
3, 77474, Note_on_c, 0, 64, 0
3, 77673, Note_on_c, 0, 87, 0
3, 77726, Note_on_c, 0, 64, 50
3, 77763, Control_c, 0, 64, 0
3, 77769, Note_on_c, 0, 58, 29
3, 77787, Note_on_c, 0, 86, 55
3, 77788, Note_on_c, 0, 64, 0
3, 77879, Note_on_c, 0, 58, 0
3, 77926, Note_on_c, 0, 86, 0
3, 78079, Note_on_c, 0, 85, 31
3, 78286, Note_on_c, 0, 85, 0
3, 78357, Control_c, 0, 64, 127
3, 78413, Note_on_c, 0, 84, 68
3, 78567, Control_c, 0, 64, 0
3, 78721, Note_on_c, 0, 58, 36
3, 78751, Control_c, 0, 64, 127
3, 78754, Note_on_c, 0, 48, 27
3, 78868, Note_on_c, 0, 48, 0
3, 78973, Note_on_c, 0, 58, 0
3, 79443, Note_on_c, 0, 84, 0
3, 79482, Note_on_c, 0, 80, 70
3, 79722, Note_on_c, 0, 61, 45
3, 79732, Note_on_c, 0, 64, 45
3, 79747, Note_on_c, 0, 58, 39
3, 79781, Note_on_c, 0, 64, 0
3, 79826, Note_on_c, 0, 61, 0
3, 79849, Note_on_c, 0, 58, 0
3, 79978, Note_on_c, 0, 80, 0
3, 80087, Note_on_c, 0, 81, 54
3, 80270, Note_on_c, 0, 81, 0
3, 80405, Note_on_c, 0, 84, 72
3, 80418, Note_on_c, 0, 41, 57
3, 80479, Note_on_c, 0, 41, 0
3, 80495, Note_on_c, 0, 84, 0
3, 81469, Note_on_c, 0, 79, 80
3, 81477, Note_on_c, 0, 69, 82
3, 81479, Note_on_c, 0, 74, 81
3, 81486, Note_on_c, 0, 64, 77
3, 81518, Control_c, 0, 64, 0
3, 81660, Note_on_c, 0, 64, 0
3, 81674, Note_on_c, 0, 74, 0
3, 81696, Note_on_c, 0, 79, 0
3, 81714, Note_on_c, 0, 69, 0
3, 82054, Note_on_c, 0, 62, 58
3, 82061, Note_on_c, 0, 77, 68
3, 82079, Note_on_c, 0, 67, 61
3, 82086, Note_on_c, 0, 72, 60
3, 82260, Control_c, 0, 64, 127
3, 82382, Note_on_c, 0, 77, 0
3, 82434, Note_on_c, 0, 72, 0
3, 82489, Note_on_c, 0, 67, 0
3, 82606, Note_on_c, 0, 62, 0
3, 82642, Control_c, 0, 64, 0
3, 82715, Note_on_c, 0, 74, 56
3, 82733, Note_on_c, 0, 64, 47
3, 82734, Note_on_c, 0, 68, 53
3, 82734, Note_on_c, 0, 58, 52
3, 82927, Control_c, 0, 64, 127
3, 83084, Note_on_c, 0, 74, 0
3, 83166, Note_on_c, 0, 64, 0
3, 83230, Note_on_c, 0, 68, 0
3, 83259, Control_c, 0, 64, 0
3, 83299, Note_on_c, 0, 58, 0
3, 83315, Note_on_c, 0, 72, 47
3, 83332, Note_on_c, 0, 62, 37
3, 83334, Note_on_c, 0, 57, 48
3, 83336, Note_on_c, 0, 67, 49
3, 83593, Control_c, 0, 64, 127
3, 83608, Note_on_c, 0, 67, 0
3, 83608, Note_on_c, 0, 72, 0
3, 83741, Note_on_c, 0, 62, 0
3, 83987, Note_on_c, 0, 69, 46
3, 83990, Note_on_c, 0, 60, 38
3, 83992, Note_on_c, 0, 64, 52
3, 84001, Note_on_c, 0, 57, 0
3, 84014, Note_on_c, 0, 53, 26
3, 84112, Control_c, 0, 64, 0
3, 84114, Note_on_c, 0, 60, 0
3, 84116, Note_on_c, 0, 64, 0
3, 84124, Note_on_c, 0, 69, 0
3, 84235, Control_c, 0, 64, 127
3, 84240, Note_on_c, 0, 53, 0
3, 84305, Note_on_c, 0, 50, 35
3, 84359, Note_on_c, 0, 50, 0
3, 84557, Control_c, 0, 64, 0
3, 84612, Note_on_c, 0, 67, 37
3, 84616, Note_on_c, 0, 61, 50
3, 84619, Note_on_c, 0, 39, 47
3, 84621, Note_on_c, 0, 55, 44
3, 84660, Note_on_c, 0, 39, 0
3, 84766, Control_c, 0, 64, 127
3, 85056, Note_on_c, 0, 55, 0
3, 85168, Note_on_c, 0, 61, 0
3, 85567, Note_on_c, 0, 65, 38
3, 85596, Note_on_c, 0, 61, 21
3, 85614, Note_on_c, 0, 60, 34
3, 85637, Note_on_c, 0, 55, 17
3, 85667, Control_c, 0, 64, 0
3, 85742, Control_c, 0, 64, 127
3, 85960, Note_on_c, 0, 55, 0
3, 86002, Note_on_c, 0, 60, 0
3, 86045, Note_on_c, 0, 65, 0
3, 86062, Note_on_c, 0, 67, 0
3, 86066, Note_on_c, 0, 61, 0
3, 86498, Note_on_c, 0, 66, 32
3, 86507, Control_c, 0, 64, 0
3, 86529, Note_on_c, 0, 56, 40
3, 86530, Note_on_c, 0, 68, 46
3, 86816, Control_c, 0, 64, 127
3, 86942, Note_on_c, 0, 66, 0
3, 87050, Note_on_c, 0, 68, 0
3, 87131, Note_on_c, 0, 69, 48
3, 87146, Note_on_c, 0, 56, 0
3, 87347, Control_c, 0, 64, 0
3, 87395, Note_on_c, 0, 65, 48
3, 87399, Note_on_c, 0, 61, 25
3, 87414, Note_on_c, 0, 55, 27
3, 87481, Note_on_c, 0, 65, 0
3, 87512, Note_on_c, 0, 55, 0
3, 87520, Control_c, 0, 64, 127
3, 87582, Note_on_c, 0, 61, 0
3, 87761, Note_on_c, 0, 74, 54
3, 87799, Note_on_c, 0, 69, 0
3, 88022, Note_on_c, 0, 74, 0
3, 88034, Note_on_c, 0, 50, 50
3, 88160, Note_on_c, 0, 50, 0
3, 88360, Control_c, 0, 64, 0
3, 88381, Note_on_c, 0, 62, 47
3, 88519, Note_on_c, 0, 62, 0
3, 88692, Note_on_c, 0, 62, 33
3, 88761, Note_on_c, 0, 62, 0
3, 88821, Note_on_c, 0, 64, 34
3, 88888, Note_on_c, 0, 64, 0
3, 88897, Note_on_c, 0, 62, 36
3, 88991, Note_on_c, 0, 62, 0
3, 89031, Note_on_c, 0, 64, 36
3, 89089, Note_on_c, 0, 64, 0
3, 89104, Note_on_c, 0, 62, 43
3, 89196, Note_on_c, 0, 62, 0
3, 89228, Note_on_c, 0, 64, 39
3, 89284, Note_on_c, 0, 64, 0
3, 89316, Note_on_c, 0, 62, 32
3, 89400, Note_on_c, 0, 62, 0
3, 89427, Note_on_c, 0, 64, 36
3, 89492, Note_on_c, 0, 64, 0
3, 89531, Note_on_c, 0, 62, 32
3, 89610, Note_on_c, 0, 62, 0
3, 89640, Note_on_c, 0, 64, 38
3, 89706, Note_on_c, 0, 64, 0
3, 89746, Note_on_c, 0, 62, 34
3, 89818, Note_on_c, 0, 62, 0
3, 89849, Note_on_c, 0, 64, 41
3, 89875, Note_on_c, 0, 57, 58
3, 89922, Note_on_c, 0, 64, 0
3, 89949, Note_on_c, 0, 62, 34
3, 90036, Note_on_c, 0, 62, 0
3, 90065, Note_on_c, 0, 64, 37
3, 90145, Note_on_c, 0, 64, 0
3, 90170, Note_on_c, 0, 62, 31
3, 90262, Note_on_c, 0, 62, 0
3, 90279, Note_on_c, 0, 57, 0
3, 90280, Note_on_c, 0, 64, 44
3, 90326, Note_on_c, 0, 58, 63
3, 90388, Note_on_c, 0, 64, 0
3, 90390, Note_on_c, 0, 62, 34
3, 90486, Note_on_c, 0, 62, 0
3, 90515, Note_on_c, 0, 64, 46
3, 90616, Note_on_c, 0, 64, 0
3, 90628, Note_on_c, 0, 62, 30
3, 90714, Note_on_c, 0, 62, 0
3, 90745, Note_on_c, 0, 64, 43
3, 90827, Note_on_c, 0, 64, 0
3, 90830, Note_on_c, 0, 58, 0
3, 90859, Note_on_c, 0, 62, 34
3, 90952, Note_on_c, 0, 62, 0
3, 90962, Note_on_c, 0, 64, 44
3, 90969, Note_on_c, 0, 60, 57
3, 91028, Note_on_c, 0, 64, 0
3, 91089, Note_on_c, 0, 62, 29
3, 91164, Note_on_c, 0, 62, 0
3, 91191, Note_on_c, 0, 64, 40
3, 91256, Note_on_c, 0, 64, 0
3, 91310, Note_on_c, 0, 62, 31
3, 91402, Note_on_c, 0, 62, 0
3, 91406, Note_on_c, 0, 64, 34
3, 91516, Note_on_c, 0, 64, 0
3, 91541, Note_on_c, 0, 62, 33
3, 91645, Note_on_c, 0, 64, 39
3, 91655, Note_on_c, 0, 62, 0
3, 91706, Note_on_c, 0, 60, 0
3, 91761, Note_on_c, 0, 64, 0
3, 91797, Note_on_c, 0, 62, 33
3, 91872, Note_on_c, 0, 64, 46
3, 91882, Note_on_c, 0, 62, 0
3, 91994, Note_on_c, 0, 64, 0
3, 92016, Note_on_c, 0, 62, 36
3, 92101, Note_on_c, 0, 64, 43
3, 92107, Note_on_c, 0, 62, 0
3, 92195, Note_on_c, 0, 51, 29
3, 92215, Note_on_c, 0, 64, 0
3, 92236, Note_on_c, 0, 62, 35
3, 92326, Note_on_c, 0, 62, 0
3, 92338, Note_on_c, 0, 64, 45
3, 92384, Note_on_c, 0, 51, 0
3, 92434, Note_on_c, 0, 64, 0
3, 92466, Note_on_c, 0, 62, 33
3, 92480, Note_on_c, 0, 50, 49
3, 92553, Note_on_c, 0, 64, 44
3, 92557, Note_on_c, 0, 62, 0
3, 92682, Note_on_c, 0, 64, 0
3, 92699, Note_on_c, 0, 62, 36
3, 92794, Note_on_c, 0, 64, 36
3, 92916, Note_on_c, 0, 64, 0
3, 93039, Note_on_c, 0, 64, 29
3, 93057, Note_on_c, 0, 62, 0
3, 93147, Note_on_c, 0, 64, 0
3, 93185, Note_on_c, 0, 62, 38
3, 93268, Note_on_c, 0, 64, 43
3, 93280, Note_on_c, 0, 62, 0
3, 93378, Note_on_c, 0, 64, 0
3, 93404, Note_on_c, 0, 62, 30
3, 93435, Note_on_c, 0, 50, 0
3, 93498, Note_on_c, 0, 62, 0
3, 93507, Note_on_c, 0, 64, 41
3, 93580, Note_on_c, 0, 64, 0
3, 93644, Note_on_c, 0, 62, 31
3, 93687, Note_on_c, 0, 64, 34
3, 93694, Note_on_c, 0, 38, 67
3, 93756, Control_c, 0, 64, 127
3, 93900, Note_on_c, 0, 64, 0
3, 94208, Note_on_c, 0, 50, 69
3, 94251, Note_on_c, 0, 62, 0
3, 94405, Note_on_c, 0, 38, 0
3, 94798, Note_on_c, 0, 50, 0
3, 94806, Control_c, 0, 64, 0
3, 94843, Note_on_c, 0, 61, 62
3, 94850, Note_on_c, 0, 53, 62
3, 94854, Note_on_c, 0, 49, 62
3, 94859, Note_on_c, 0, 56, 68
3, 94892, Control_c, 0, 64, 127
3, 94918, Note_on_c, 0, 58, 31
3, 95102, Control_c, 0, 64, 0
3, 95110, Note_on_c, 0, 53, 0
3, 95167, Note_on_c, 0, 58, 0
3, 95187, Note_on_c, 0, 61, 0
3, 95227, Note_on_c, 0, 62, 57
3, 95238, Note_on_c, 0, 49, 0
3, 95250, Note_on_c, 0, 50, 57
3, 95252, Note_on_c, 0, 53, 27
3, 95346, Note_on_c, 0, 53, 0
3, 95393, Note_on_c, 0, 56, 0
3, 95472, Note_on_c, 0, 50, 0
3, 95504, Note_on_c, 0, 62, 0
3, 95546, Control_c, 0, 64, 127
3, 95818, Note_on_c, 0, 44, 46
3, 95953, Note_on_c, 0, 44, 0
3, 96017, Control_c, 0, 64, 0
3, 96144, Note_on_c, 0, 62, 58
3, 96146, Note_on_c, 0, 55, 50
3, 96148, Note_on_c, 0, 43, 35
3, 96151, Control_c, 0, 64, 127
3, 96274, Note_on_c, 0, 43, 0
3, 96322, Note_on_c, 0, 62, 0
3, 96370, Note_on_c, 0, 55, 0
3, 96762, Note_on_c, 0, 84, 81
3, 96763, Note_on_c, 0, 77, 81
3, 97052, Note_on_c, 0, 58, 39
3, 97056, Note_on_c, 0, 55, 24
3, 97065, Control_c, 0, 64, 0
3, 97166, Note_on_c, 0, 58, 0
3, 97172, Note_on_c, 0, 55, 0
3, 97214, Control_c, 0, 64, 127
3, 97607, Note_on_c, 0, 50, 40
3, 97842, Note_on_c, 0, 50, 0
3, 97882, Control_c, 0, 64, 0
3, 97936, Note_on_c, 0, 43, 40
3, 97956, Note_on_c, 0, 53, 32
3, 98004, Control_c, 0, 64, 127
3, 98062, Note_on_c, 0, 43, 0
3, 98134, Note_on_c, 0, 84, 0
3, 98150, Note_on_c, 0, 53, 0
3, 98293, Note_on_c, 0, 77, 0
3, 98535, Note_on_c, 0, 83, 59
3, 98541, Note_on_c, 0, 71, 57
3, 98553, Note_on_c, 0, 78, 51
3, 98683, Note_on_c, 0, 83, 0
3, 98715, Note_on_c, 0, 71, 0
3, 98805, Note_on_c, 0, 78, 0
3, 98844, Control_c, 0, 64, 0
3, 98879, Note_on_c, 0, 62, 20
3, 98880, Note_on_c, 0, 58, 43
3, 98893, Note_on_c, 0, 82, 60
3, 98896, Note_on_c, 0, 55, 15
3, 98923, Note_on_c, 0, 70, 35
3, 98980, Control_c, 0, 64, 127
3, 99130, Note_on_c, 0, 55, 0
3, 99156, Note_on_c, 0, 62, 0
3, 99166, Note_on_c, 0, 58, 0
3, 99198, Note_on_c, 0, 70, 0
3, 99318, Note_on_c, 0, 82, 0
3, 99745, Control_c, 0, 64, 0
3, 99783, Note_on_c, 0, 70, 56
3, 99785, Note_on_c, 0, 81, 54
3, 99791, Note_on_c, 0, 69, 54
3, 99794, Note_on_c, 0, 73, 37
3, 99822, Note_on_c, 0, 76, 35
3, 99894, Note_on_c, 0, 70, 0
3, 99896, Note_on_c, 0, 76, 0
3, 99906, Note_on_c, 0, 81, 0
3, 99913, Note_on_c, 0, 73, 0
3, 100008, Note_on_c, 0, 69, 0
3, 100197, Note_on_c, 0, 80, 48
3, 100218, Note_on_c, 0, 70, 37
3, 100220, Note_on_c, 0, 73, 34
3, 100224, Note_on_c, 0, 68, 42
3, 100345, Note_on_c, 0, 70, 0
3, 100372, Note_on_c, 0, 73, 0
3, 100373, Note_on_c, 0, 80, 0
3, 100380, Note_on_c, 0, 68, 0
3, 100697, Note_on_c, 0, 73, 34
3, 100702, Note_on_c, 0, 70, 43
3, 100708, Control_c, 0, 64, 127
3, 100713, Note_on_c, 0, 67, 44
3, 100719, Note_on_c, 0, 79, 41
3, 100741, Note_on_c, 0, 76, 34
3, 100988, Note_on_c, 0, 67, 0
3, 101057, Note_on_c, 0, 79, 0
3, 101085, Note_on_c, 0, 76, 0
3, 101126, Note_on_c, 0, 70, 0
3, 101164, Note_on_c, 0, 73, 0
3, 101647, Control_c, 0, 64, 0
3, 101658, Note_on_c, 0, 61, 45
3, 101659, Note_on_c, 0, 64, 54
3, 101676, Note_on_c, 0, 55, 32
3, 101742, Note_on_c, 0, 61, 0
3, 101766, Note_on_c, 0, 64, 0
3, 101789, Note_on_c, 0, 55, 0
3, 102115, Note_on_c, 0, 69, 44
3, 102116, Note_on_c, 0, 64, 48
3, 102117, Note_on_c, 0, 54, 44
3, 102129, Note_on_c, 0, 61, 35
3, 102252, Note_on_c, 0, 61, 0
3, 102271, Note_on_c, 0, 69, 0
3, 102275, Note_on_c, 0, 64, 0
3, 102320, Note_on_c, 0, 54, 0
3, 102539, Control_c, 0, 64, 127
3, 102581, Note_on_c, 0, 61, 51
3, 102583, Note_on_c, 0, 64, 57
3, 102589, Note_on_c, 0, 67, 50
3, 102682, Note_on_c, 0, 61, 0
3, 102706, Note_on_c, 0, 64, 0
3, 102740, Note_on_c, 0, 67, 0
3, 103008, Control_c, 0, 64, 0
3, 103081, Note_on_c, 0, 44, 55
3, 103083, Note_on_c, 0, 54, 52
3, 103088, Note_on_c, 0, 59, 50
3, 103094, Note_on_c, 0, 32, 49
3, 103219, Control_c, 0, 64, 127
3, 103320, Note_on_c, 0, 59, 0
3, 103325, Note_on_c, 0, 54, 0
3, 103379, Note_on_c, 0, 32, 0
3, 103446, Note_on_c, 0, 44, 0
3, 103528, Control_c, 0, 64, 0
3, 103572, Note_on_c, 0, 64, 55
3, 103585, Note_on_c, 0, 55, 34
3, 103590, Note_on_c, 0, 45, 54
3, 103596, Note_on_c, 0, 60, 50
3, 103600, Note_on_c, 0, 33, 49
3, 103699, Control_c, 0, 64, 127
3, 103873, Note_on_c, 0, 33, 0
3, 103879, Note_on_c, 0, 55, 0
3, 103952, Note_on_c, 0, 45, 0
3, 104032, Note_on_c, 0, 64, 0
3, 104044, Note_on_c, 0, 60, 0
3, 104627, Note_on_c, 0, 79, 80
3, 104628, Note_on_c, 0, 64, 70
3, 104632, Note_on_c, 0, 72, 80
3, 104637, Note_on_c, 0, 67, 82
3, 104639, Note_on_c, 0, 76, 74
3, 104647, Note_on_c, 0, 60, 54
3, 104652, Note_on_c, 0, 55, 37
3, 104660, Note_on_c, 0, 57, 48
3, 104669, Note_on_c, 0, 77, 50
3, 104717, Note_on_c, 0, 77, 0
3, 104763, Note_on_c, 0, 64, 0
3, 104800, Note_on_c, 0, 55, 0
3, 104804, Note_on_c, 0, 60, 0
3, 104843, Note_on_c, 0, 76, 0
3, 104865, Note_on_c, 0, 72, 0
3, 104867, Note_on_c, 0, 57, 0
3, 104891, Note_on_c, 0, 67, 0
3, 104929, Note_on_c, 0, 79, 0
3, 104949, Note_on_c, 0, 76, 46
3, 105114, Note_on_c, 0, 76, 0
3, 105234, Note_on_c, 0, 79, 77
3, 105239, Note_on_c, 0, 76, 74
3, 105244, Note_on_c, 0, 72, 80
3, 105246, Note_on_c, 0, 67, 81
3, 105391, Control_c, 0, 64, 0
3, 105565, Control_c, 0, 64, 127
3, 105567, Note_on_c, 0, 45, 53
3, 105582, Note_on_c, 0, 55, 30
3, 105721, Note_on_c, 0, 45, 0
3, 105737, Note_on_c, 0, 77, 11
3, 105788, Note_on_c, 0, 55, 0
3, 105848, Note_on_c, 0, 76, 0
3, 105868, Note_on_c, 0, 67, 0
3, 105869, Note_on_c, 0, 79, 0
3, 105975, Note_on_c, 0, 72, 0
3, 105995, Note_on_c, 0, 77, 0
3, 106239, Note_on_c, 0, 78, 53
3, 106243, Note_on_c, 0, 66, 65
3, 106263, Note_on_c, 0, 72, 54
3, 106279, Note_on_c, 0, 75, 34
3, 106443, Note_on_c, 0, 72, 0
3, 106469, Note_on_c, 0, 66, 0
3, 106522, Note_on_c, 0, 75, 0
3, 106526, Note_on_c, 0, 78, 0
3, 106553, Control_c, 0, 64, 0
3, 106576, Note_on_c, 0, 55, 31
3, 106600, Note_on_c, 0, 77, 50
3, 106604, Note_on_c, 0, 72, 40
3, 106618, Note_on_c, 0, 65, 52
3, 106623, Note_on_c, 0, 62, 22
3, 106634, Note_on_c, 0, 60, 19
3, 106660, Note_on_c, 0, 57, 25
3, 106713, Control_c, 0, 64, 127
3, 106888, Note_on_c, 0, 60, 0
3, 106969, Note_on_c, 0, 77, 0
3, 107002, Note_on_c, 0, 62, 0
3, 107018, Note_on_c, 0, 72, 0
3, 107038, Note_on_c, 0, 57, 0
3, 107050, Note_on_c, 0, 55, 0
3, 107241, Note_on_c, 0, 65, 0
3, 107453, Control_c, 0, 64, 0
3, 107516, Note_on_c, 0, 76, 77
3, 107520, Note_on_c, 0, 64, 73
3, 107521, Note_on_c, 0, 65, 91
3, 107522, Note_on_c, 0, 68, 71
3, 107532, Note_on_c, 0, 71, 57
3, 107627, Control_c, 0, 64, 127
3, 108106, Note_on_c, 0, 64, 0
3, 108178, Note_on_c, 0, 76, 0
3, 108258, Note_on_c, 0, 65, 0
3, 108292, Note_on_c, 0, 68, 0
3, 108302, Note_on_c, 0, 71, 0
3, 108406, Control_c, 0, 64, 0
3, 108466, Note_on_c, 0, 75, 67
3, 108478, Note_on_c, 0, 63, 60
3, 108483, Note_on_c, 0, 71, 57
3, 108484, Note_on_c, 0, 68, 55
3, 108493, Note_on_c, 0, 65, 60
3, 108565, Control_c, 0, 64, 127
3, 108776, Note_on_c, 0, 63, 0
3, 108953, Note_on_c, 0, 75, 0
3, 109013, Note_on_c, 0, 73, 1
3, 109092, Note_on_c, 0, 71, 0
3, 109132, Note_on_c, 0, 65, 0
3, 109135, Note_on_c, 0, 68, 0
3, 109214, Note_on_c, 0, 73, 0
3, 109428, Note_on_c, 0, 74, 51
3, 109434, Note_on_c, 0, 68, 46
3, 109445, Note_on_c, 0, 65, 52
3, 109465, Note_on_c, 0, 62, 41
3, 109766, Note_on_c, 0, 62, 0
3, 109771, Note_on_c, 0, 65, 0
3, 109890, Note_on_c, 0, 74, 0
3, 109920, Note_on_c, 0, 68, 0
3, 110319, Control_c, 0, 64, 0
3, 110390, Note_on_c, 0, 62, 39
3, 110395, Note_on_c, 0, 66, 39
3, 110398, Note_on_c, 0, 44, 40
3, 110399, Note_on_c, 0, 71, 45
3, 110416, Note_on_c, 0, 54, 29
3, 110470, Note_on_c, 0, 66, 0
3, 110510, Note_on_c, 0, 67, 36
3, 110640, Control_c, 0, 64, 127
3, 110889, Note_on_c, 0, 54, 0
3, 110894, Note_on_c, 0, 67, 0
3, 110916, Note_on_c, 0, 71, 0
3, 110941, Note_on_c, 0, 62, 0
3, 110961, Note_on_c, 0, 44, 0
3, 111332, Control_c, 0, 64, 0
3, 111376, Note_on_c, 0, 70, 42
3, 111387, Note_on_c, 0, 62, 32
3, 111410, Note_on_c, 0, 43, 29
3, 111413, Note_on_c, 0, 65, 33
3, 111454, Note_on_c, 0, 53, 15
3, 111504, Control_c, 0, 64, 127
3, 111532, Note_on_c, 0, 62, 0
3, 111556, Note_on_c, 0, 65, 0
3, 111596, Note_on_c, 0, 43, 0
3, 111629, Note_on_c, 0, 70, 0
3, 111706, Note_on_c, 0, 53, 0
3, 112025, Note_on_c, 0, 73, 57
3, 112026, Note_on_c, 0, 85, 71
3, 112180, Note_on_c, 0, 73, 0
3, 112195, Note_on_c, 0, 86, 36
3, 112203, Note_on_c, 0, 85, 0
3, 112205, Note_on_c, 0, 79, 2
3, 112208, Note_on_c, 0, 74, 48
3, 112229, Note_on_c, 0, 84, 17
3, 112272, Note_on_c, 0, 86, 0
3, 112302, Note_on_c, 0, 74, 0
3, 112350, Note_on_c, 0, 79, 0
3, 112357, Control_c, 0, 64, 0
3, 112406, Note_on_c, 0, 58, 44
3, 112411, Note_on_c, 0, 62, 27
3, 112416, Note_on_c, 0, 55, 24
3, 112438, Note_on_c, 0, 84, 0
3, 112456, Note_on_c, 0, 62, 0
3, 112537, Note_on_c, 0, 73, 50
3, 112550, Note_on_c, 0, 58, 0
3, 112573, Note_on_c, 0, 85, 29
3, 112585, Note_on_c, 0, 55, 0
3, 112599, Note_on_c, 0, 82, 31
3, 112604, Note_on_c, 0, 79, 33
3, 112670, Note_on_c, 0, 86, 41
3, 112672, Note_on_c, 0, 73, 0
3, 112673, Note_on_c, 0, 74, 61
3, 112720, Note_on_c, 0, 85, 0
3, 112745, Note_on_c, 0, 86, 0
3, 112785, Note_on_c, 0, 74, 0
3, 112859, Note_on_c, 0, 79, 0
3, 112874, Control_c, 0, 64, 127
3, 112888, Note_on_c, 0, 82, 0
3, 112964, Note_on_c, 0, 73, 42
3, 112980, Note_on_c, 0, 85, 35
3, 112990, Note_on_c, 0, 82, 31
3, 113024, Note_on_c, 0, 79, 26
3, 113097, Note_on_c, 0, 74, 62
3, 113098, Note_on_c, 0, 73, 0
3, 113100, Note_on_c, 0, 86, 43
3, 113122, Note_on_c, 0, 85, 0
3, 113188, Note_on_c, 0, 86, 0
3, 113196, Control_c, 0, 64, 0
3, 113215, Note_on_c, 0, 74, 0
3, 113281, Note_on_c, 0, 50, 34
3, 113298, Note_on_c, 0, 79, 0
3, 113330, Note_on_c, 0, 82, 0
3, 113406, Control_c, 0, 64, 127
3, 113419, Note_on_c, 0, 73, 34
3, 113453, Note_on_c, 0, 85, 25
3, 113457, Note_on_c, 0, 82, 34
3, 113501, Note_on_c, 0, 79, 28
3, 113537, Note_on_c, 0, 86, 44
3, 113547, Note_on_c, 0, 73, 0
3, 113550, Note_on_c, 0, 74, 60
3, 113557, Note_on_c, 0, 85, 0
3, 113638, Note_on_c, 0, 50, 0
3, 113655, Note_on_c, 0, 86, 0
3, 113679, Note_on_c, 0, 74, 0
3, 113769, Note_on_c, 0, 79, 0
3, 113819, Note_on_c, 0, 82, 0
3, 113861, Note_on_c, 0, 85, 35
3, 113865, Note_on_c, 0, 73, 34
3, 113894, Note_on_c, 0, 82, 17
3, 113909, Note_on_c, 0, 79, 34
3, 114062, Note_on_c, 0, 73, 0
3, 114132, Note_on_c, 0, 79, 0
3, 114159, Control_c, 0, 64, 0
3, 114187, Note_on_c, 0, 85, 0
3, 114229, Note_on_c, 0, 37, 33
3, 114233, Note_on_c, 0, 49, 23
3, 114240, Note_on_c, 0, 84, 40
3, 114248, Note_on_c, 0, 72, 35
3, 114266, Note_on_c, 0, 79, 33
3, 114356, Control_c, 0, 64, 127
3, 114458, Note_on_c, 0, 37, 0
3, 114477, Note_on_c, 0, 49, 0
3, 114946, Note_on_c, 0, 72, 0
3, 114981, Note_on_c, 0, 79, 0
3, 115036, Control_c, 0, 64, 0
3, 115073, Note_on_c, 0, 82, 0
3, 115146, Note_on_c, 0, 36, 48
3, 115159, Control_c, 0, 64, 127
3, 115161, Note_on_c, 0, 52, 29
3, 115169, Note_on_c, 0, 84, 0
3, 115256, Note_on_c, 0, 36, 0
3, 115401, Note_on_c, 0, 52, 0
3, 115891, Note_on_c, 0, 91, 89
3, 115900, Note_on_c, 0, 79, 89
3, 115901, Note_on_c, 0, 86, 87
3, 116049, Control_c, 0, 64, 0
3, 116123, Control_c, 0, 64, 127
3, 116146, Note_on_c, 0, 64, 62
3, 116162, Note_on_c, 0, 58, 51
3, 116173, Note_on_c, 0, 60, 41
3, 116176, Note_on_c, 0, 55, 32
3, 116260, Note_on_c, 0, 64, 0
3, 116282, Note_on_c, 0, 60, 0
3, 116310, Note_on_c, 0, 91, 0
3, 116322, Note_on_c, 0, 55, 0
3, 116343, Note_on_c, 0, 58, 0
3, 116366, Note_on_c, 0, 86, 0
3, 116426, Note_on_c, 0, 79, 0
3, 116760, Note_on_c, 0, 48, 50
3, 116978, Note_on_c, 0, 48, 0
3, 117025, Control_c, 0, 64, 0
3, 117095, Note_on_c, 0, 68, 72
3, 117096, Note_on_c, 0, 64, 78
3, 117097, Note_on_c, 0, 56, 55
3, 117101, Note_on_c, 0, 48, 33
3, 117104, Note_on_c, 0, 60, 74
3, 117222, Control_c, 0, 64, 127
3, 117529, Note_on_c, 0, 56, 0
3, 117754, Note_on_c, 0, 60, 0
3, 117782, Note_on_c, 0, 68, 0
3, 117814, Note_on_c, 0, 64, 0
3, 118104, Note_on_c, 0, 57, 48
3, 118104, Note_on_c, 0, 64, 65
3, 118113, Note_on_c, 0, 60, 60
3, 118114, Note_on_c, 0, 69, 57
3, 118646, Note_on_c, 0, 69, 0
3, 118651, Note_on_c, 0, 64, 0
3, 118692, Note_on_c, 0, 60, 0
3, 118921, Note_on_c, 0, 57, 0
3, 119096, Note_on_c, 0, 48, 0
3, 119124, Control_c, 0, 64, 0
3, 119157, Note_on_c, 0, 60, 35
3, 119247, Note_on_c, 0, 60, 0
3, 119604, Note_on_c, 0, 57, 54
3, 119607, Note_on_c, 0, 55, 40
3, 119611, Note_on_c, 0, 60, 40
3, 119633, Note_on_c, 0, 48, 32
3, 119701, Note_on_c, 0, 48, 0
3, 119702, Note_on_c, 0, 55, 0
3, 119712, Note_on_c, 0, 57, 0
3, 119739, Note_on_c, 0, 60, 0
3, 120069, Note_on_c, 0, 60, 40
3, 120073, Note_on_c, 0, 55, 40
3, 120074, Note_on_c, 0, 57, 49
3, 120085, Note_on_c, 0, 48, 36
3, 120334, Note_on_c, 0, 48, 0
3, 120377, Note_on_c, 0, 55, 0
3, 120421, Note_on_c, 0, 57, 0
3, 120432, Note_on_c, 0, 60, 0
3, 120540, Note_on_c, 0, 48, 37
3, 120556, Note_on_c, 0, 57, 47
3, 120558, Note_on_c, 0, 55, 29
3, 120562, Note_on_c, 0, 60, 35
3, 120791, Control_c, 0, 64, 127
3, 120803, Control_c, 0, 64, 0
3, 121000, Control_c, 0, 64, 127
3, 121141, Note_on_c, 0, 57, 0
3, 121239, Note_on_c, 0, 55, 0
3, 121323, Note_on_c, 0, 60, 0
3, 121433, Control_c, 0, 64, 0
3, 121494, Note_on_c, 0, 63, 47
3, 121504, Note_on_c, 0, 48, 0
3, 121525, Note_on_c, 0, 44, 40
3, 121526, Note_on_c, 0, 56, 55
3, 121528, Note_on_c, 0, 60, 47
3, 121546, Note_on_c, 0, 55, 24
3, 121594, Note_on_c, 0, 55, 0
3, 121619, Note_on_c, 0, 56, 0
3, 121636, Note_on_c, 0, 63, 0
3, 121650, Note_on_c, 0, 44, 0
3, 121659, Note_on_c, 0, 60, 0
3, 121995, Note_on_c, 0, 63, 47
3, 122004, Note_on_c, 0, 60, 36
3, 122008, Note_on_c, 0, 44, 36
3, 122009, Note_on_c, 0, 56, 48
3, 122030, Note_on_c, 0, 55, 27
3, 122150, Control_c, 0, 64, 127
3, 122300, Note_on_c, 0, 63, 0
3, 122304, Note_on_c, 0, 55, 0
3, 122326, Note_on_c, 0, 56, 0
3, 122331, Note_on_c, 0, 44, 0
3, 122351, Note_on_c, 0, 60, 0
3, 122396, Control_c, 0, 64, 0
3, 122454, Note_on_c, 0, 63, 47
3, 122466, Note_on_c, 0, 44, 34
3, 122470, Control_c, 0, 64, 127
3, 122471, Note_on_c, 0, 56, 38
3, 122482, Note_on_c, 0, 60, 43
3, 122486, Note_on_c, 0, 55, 22
3, 122608, Note_on_c, 0, 55, 0
3, 122615, Note_on_c, 0, 44, 0
3, 122617, Note_on_c, 0, 56, 0
3, 122680, Note_on_c, 0, 60, 0
3, 122737, Note_on_c, 0, 63, 0
3, 122878, Control_c, 0, 64, 0
3, 122936, Note_on_c, 0, 60, 44
3, 122946, Note_on_c, 0, 37, 34
3, 122948, Note_on_c, 0, 56, 40
3, 122952, Note_on_c, 0, 53, 32
3, 123087, Control_c, 0, 64, 127
3, 123166, Note_on_c, 0, 53, 0
3, 123297, Note_on_c, 0, 56, 0
3, 123360, Note_on_c, 0, 60, 0
3, 123376, Note_on_c, 0, 37, 0
3, 123405, Note_on_c, 0, 44, 51
3, 123548, Note_on_c, 0, 46, 19
3, 123767, Note_on_c, 0, 46, 0
3, 123892, Note_on_c, 0, 60, 42
3, 123898, Note_on_c, 0, 53, 29
3, 123899, Note_on_c, 0, 63, 37
3, 123913, Note_on_c, 0, 65, 39
3, 124078, Note_on_c, 0, 44, 0
3, 124204, Note_on_c, 0, 53, 0
3, 124244, Note_on_c, 0, 60, 0
3, 124313, Note_on_c, 0, 65, 0
3, 124365, Note_on_c, 0, 70, 64
3, 124420, Note_on_c, 0, 63, 0
3, 124572, Note_on_c, 0, 70, 0
3, 124848, Note_on_c, 0, 58, 51
3, 124854, Control_c, 0, 64, 0
3, 124864, Note_on_c, 0, 66, 55
3, 124865, Note_on_c, 0, 64, 60
3, 124884, Note_on_c, 0, 72, 44
3, 124891, Note_on_c, 0, 48, 32
3, 125002, Control_c, 0, 64, 127
3, 125009, Note_on_c, 0, 58, 0
3, 125043, Note_on_c, 0, 48, 0
3, 125173, Note_on_c, 0, 72, 0
3, 125231, Note_on_c, 0, 64, 0
3, 125293, Note_on_c, 0, 66, 0
3, 125793, Note_on_c, 0, 42, 48
3, 125804, Control_c, 0, 64, 0
3, 125809, Note_on_c, 0, 69, 67
3, 125926, Note_on_c, 0, 42, 0
3, 125964, Control_c, 0, 64, 127
3, 126032, Note_on_c, 0, 69, 0
3, 126065, Note_on_c, 0, 70, 56
3, 126172, Note_on_c, 0, 70, 0
3, 126214, Note_on_c, 0, 71, 62
3, 126331, Note_on_c, 0, 71, 0
3, 126395, Note_on_c, 0, 72, 14
3, 126478, Note_on_c, 0, 73, 35
3, 126486, Note_on_c, 0, 72, 0
3, 126594, Note_on_c, 0, 74, 40
3, 126636, Note_on_c, 0, 73, 0
3, 126679, Note_on_c, 0, 75, 42
3, 126700, Note_on_c, 0, 74, 0
3, 126733, Note_on_c, 0, 76, 70
3, 126739, Note_on_c, 0, 75, 0
3, 126792, Control_c, 0, 64, 0
3, 126808, Note_on_c, 0, 41, 29
3, 126840, Note_on_c, 0, 48, 32
3, 126844, Note_on_c, 0, 57, 28
3, 126879, Note_on_c, 0, 76, 0
3, 126884, Note_on_c, 0, 72, 58
3, 127003, Control_c, 0, 64, 127
3, 127093, Note_on_c, 0, 41, 0
3, 127142, Note_on_c, 0, 48, 0
3, 127247, Note_on_c, 0, 57, 0
3, 127737, Note_on_c, 0, 64, 60
3, 127780, Note_on_c, 0, 60, 34
3, 127803, Note_on_c, 0, 57, 39
3, 127828, Note_on_c, 0, 53, 14
3, 127892, Note_on_c, 0, 64, 0
3, 127935, Note_on_c, 0, 60, 0
3, 127949, Note_on_c, 0, 57, 0
3, 127965, Note_on_c, 0, 72, 0
3, 127978, Note_on_c, 0, 53, 0
3, 128670, Control_c, 0, 64, 0
3, 128713, Note_on_c, 0, 36, 45
3, 128764, Note_on_c, 0, 36, 0
3, 128793, Control_c, 0, 64, 127
3, 129632, Note_on_c, 0, 60, 37
3, 129635, Note_on_c, 0, 62, 29
3, 129645, Control_c, 0, 64, 0
3, 129661, Note_on_c, 0, 57, 38
3, 129677, Note_on_c, 0, 62, 0
3, 129682, Note_on_c, 0, 60, 0
3, 129717, Note_on_c, 0, 57, 0
3, 129941, Note_on_c, 0, 84, 45
3, 129951, Note_on_c, 0, 72, 39
3, 130021, Note_on_c, 0, 72, 0
3, 130040, Note_on_c, 0, 84, 0
3, 130138, Control_c, 0, 64, 127
3, 130239, Note_on_c, 0, 86, 63
3, 130254, Note_on_c, 0, 74, 49
3, 130325, Note_on_c, 0, 74, 0
3, 130348, Note_on_c, 0, 86, 0
3, 130509, Control_c, 0, 64, 0
3, 130558, Note_on_c, 0, 42, 44
3, 130571, Note_on_c, 0, 54, 44
3, 130593, Note_on_c, 0, 87, 60
3, 130596, Note_on_c, 0, 75, 57
3, 130688, Note_on_c, 0, 75, 0
3, 130692, Note_on_c, 0, 42, 0
3, 130696, Note_on_c, 0, 87, 0
3, 130706, Control_c, 0, 64, 127
3, 130729, Note_on_c, 0, 54, 0
3, 131530, Note_on_c, 0, 78, 64
3, 131533, Note_on_c, 0, 87, 67
3, 131535, Control_c, 0, 64, 0
3, 131545, Note_on_c, 0, 72, 56
3, 131549, Note_on_c, 0, 81, 57
3, 131604, Note_on_c, 0, 81, 0
3, 131631, Note_on_c, 0, 78, 0
3, 131662, Note_on_c, 0, 87, 0
3, 131679, Note_on_c, 0, 72, 0
3, 131923, Note_on_c, 0, 84, 65
3, 131931, Note_on_c, 0, 75, 63
3, 131939, Note_on_c, 0, 78, 60
3, 131942, Note_on_c, 0, 69, 67
3, 132026, Note_on_c, 0, 75, 0
3, 132032, Note_on_c, 0, 84, 0
3, 132039, Note_on_c, 0, 78, 0
3, 132059, Note_on_c, 0, 69, 0
3, 132436, Control_c, 0, 64, 127
3, 132479, Note_on_c, 0, 66, 53
3, 132481, Note_on_c, 0, 81, 39
3, 132483, Note_on_c, 0, 75, 56
3, 132489, Note_on_c, 0, 72, 56
3, 132565, Note_on_c, 0, 81, 0
3, 132584, Control_c, 0, 64, 0
3, 132633, Note_on_c, 0, 75, 0
3, 132648, Note_on_c, 0, 72, 0
3, 132743, Note_on_c, 0, 66, 0
3, 132788, Note_on_c, 0, 78, 62
3, 132798, Note_on_c, 0, 63, 48
3, 132835, Note_on_c, 0, 69, 29
3, 132874, Note_on_c, 0, 78, 0
3, 132884, Note_on_c, 0, 69, 0
3, 132921, Note_on_c, 0, 63, 0
3, 133004, Control_c, 0, 64, 127
3, 133065, Control_c, 0, 64, 0
3, 133213, Control_c, 0, 64, 127
3, 133403, Note_on_c, 0, 75, 43
3, 133407, Note_on_c, 0, 66, 53
3, 133409, Note_on_c, 0, 60, 39
3, 133460, Note_on_c, 0, 75, 0
3, 133542, Note_on_c, 0, 66, 0
3, 133621, Control_c, 0, 64, 0
3, 133705, Note_on_c, 0, 66, 30
3, 133711, Note_on_c, 0, 60, 0
3, 133715, Note_on_c, 0, 57, 51
3, 133720, Note_on_c, 0, 63, 21
3, 133768, Note_on_c, 0, 72, 17
3, 133818, Control_c, 0, 64, 127
3, 133825, Note_on_c, 0, 57, 0
3, 133976, Note_on_c, 0, 63, 0
3, 134064, Note_on_c, 0, 66, 0
3, 134228, Note_on_c, 0, 72, 0
3, 134287, Control_c, 0, 64, 0
3, 134364, Note_on_c, 0, 70, 52
3, 134384, Note_on_c, 0, 50, 37
3, 134388, Note_on_c, 0, 62, 35
3, 134396, Note_on_c, 0, 43, 26
3, 134424, Control_c, 0, 64, 127
3, 134513, Note_on_c, 0, 43, 0
3, 134599, Note_on_c, 0, 50, 0
3, 134896, Note_on_c, 0, 62, 0
3, 135284, Note_on_c, 0, 70, 0
3, 135369, Note_on_c, 0, 58, 46
3, 135373, Note_on_c, 0, 55, 29
3, 135444, Note_on_c, 0, 58, 0
3, 135454, Note_on_c, 0, 55, 0
3, 135814, Note_on_c, 0, 45, 56
3, 135824, Note_on_c, 0, 57, 72
3, 135880, Control_c, 0, 64, 0
3, 136009, Note_on_c, 0, 44, 28
3, 136027, Note_on_c, 0, 56, 50
3, 136031, Note_on_c, 0, 57, 0
3, 136059, Note_on_c, 0, 45, 0
3, 136070, Note_on_c, 0, 56, 0
3, 136128, Note_on_c, 0, 44, 0
3, 136138, Note_on_c, 0, 55, 24
3, 136165, Note_on_c, 0, 43, 24
3, 136204, Note_on_c, 0, 55, 0
3, 136253, Note_on_c, 0, 54, 43
3, 136293, Note_on_c, 0, 43, 0
3, 136335, Note_on_c, 0, 42, 35
3, 136336, Note_on_c, 0, 54, 0
3, 136418, Note_on_c, 0, 57, 55
3, 136485, Note_on_c, 0, 42, 0
3, 136666, Note_on_c, 0, 57, 0
3, 136698, Note_on_c, 0, 54, 49
3, 136729, Note_on_c, 0, 42, 35
3, 136813, Note_on_c, 0, 54, 0
3, 136867, Note_on_c, 0, 42, 0
3, 136896, Note_on_c, 0, 55, 47
3, 136992, Note_on_c, 0, 43, 12
3, 137005, Note_on_c, 0, 55, 0
3, 137143, Note_on_c, 0, 43, 0
3, 137151, Note_on_c, 0, 57, 70
3, 137287, Note_on_c, 0, 57, 0
3, 137361, Note_on_c, 0, 58, 60
3, 137465, Note_on_c, 0, 58, 0
3, 137593, Note_on_c, 0, 62, 64
3, 137749, Note_on_c, 0, 62, 0
3, 137820, Note_on_c, 0, 66, 58
3, 138003, Note_on_c, 0, 66, 0
3, 138086, Note_on_c, 0, 69, 53
3, 138237, Note_on_c, 0, 69, 0
3, 138295, Note_on_c, 0, 48, 31
3, 138301, Note_on_c, 0, 64, 56
3, 138310, Note_on_c, 0, 58, 34
3, 138454, Note_on_c, 0, 64, 0
3, 138459, Note_on_c, 0, 48, 0
3, 138538, Note_on_c, 0, 66, 53
3, 138586, Note_on_c, 0, 58, 0
3, 138671, Note_on_c, 0, 66, 0
3, 138734, Control_c, 0, 64, 127
3, 138736, Note_on_c, 0, 67, 48
3, 138872, Note_on_c, 0, 67, 0
3, 138973, Note_on_c, 0, 69, 53
3, 139031, Control_c, 0, 64, 0
3, 139119, Note_on_c, 0, 69, 0
3, 139144, Note_on_c, 0, 63, 34
3, 139180, Note_on_c, 0, 58, 39
3, 139208, Note_on_c, 0, 70, 53
3, 139270, Note_on_c, 0, 63, 0
3, 139353, Note_on_c, 0, 70, 0
3, 139362, Note_on_c, 0, 58, 0
3, 139454, Note_on_c, 0, 72, 32
3, 139569, Note_on_c, 0, 72, 0
3, 139585, Note_on_c, 0, 73, 45
3, 139712, Note_on_c, 0, 73, 0
3, 139732, Note_on_c, 0, 75, 38
3, 139746, Control_c, 0, 64, 127
3, 139775, Note_on_c, 0, 75, 0
3, 139831, Note_on_c, 0, 76, 53
3, 139898, Note_on_c, 0, 76, 0
3, 139956, Control_c, 0, 64, 0
3, 139969, Note_on_c, 0, 78, 46
3, 140010, Note_on_c, 0, 78, 0
3, 140032, Note_on_c, 0, 58, 42
3, 140078, Note_on_c, 0, 48, 24
3, 140096, Note_on_c, 0, 79, 37
3, 140155, Note_on_c, 0, 58, 0
3, 140170, Note_on_c, 0, 48, 0
3, 140212, Note_on_c, 0, 79, 0
3, 140217, Note_on_c, 0, 81, 48
3, 140322, Note_on_c, 0, 81, 0
3, 140333, Note_on_c, 0, 82, 51
3, 140378, Note_on_c, 0, 82, 0
3, 140461, Note_on_c, 0, 84, 43
3, 140487, Control_c, 0, 64, 127
3, 140565, Note_on_c, 0, 84, 0
3, 140566, Note_on_c, 0, 85, 52
3, 140621, Note_on_c, 0, 86, 52
3, 140747, Note_on_c, 0, 85, 0
3, 140754, Note_on_c, 0, 87, 52
3, 140831, Note_on_c, 0, 88, 47
3, 140861, Note_on_c, 0, 86, 0
3, 140950, Note_on_c, 0, 88, 0
3, 140993, Control_c, 0, 64, 0
3, 140994, Note_on_c, 0, 87, 0
3, 141006, Note_on_c, 0, 91, 77
3, 141035, Note_on_c, 0, 42, 45
3, 141060, Note_on_c, 0, 52, 26
3, 141173, Note_on_c, 0, 91, 0
3, 141203, Note_on_c, 0, 52, 0
3, 141232, Note_on_c, 0, 42, 0
3, 141254, Note_on_c, 0, 89, 64
3, 141434, Note_on_c, 0, 89, 0
3, 141535, Note_on_c, 0, 85, 34
3, 141697, Control_c, 0, 64, 127
3, 141703, Note_on_c, 0, 88, 66
3, 141709, Note_on_c, 0, 85, 0
3, 141922, Note_on_c, 0, 88, 0
3, 141942, Note_on_c, 0, 85, 23
3, 141980, Control_c, 0, 64, 0
3, 142113, Note_on_c, 0, 41, 36
3, 142125, Note_on_c, 0, 85, 0
3, 142134, Note_on_c, 0, 86, 66
3, 142149, Note_on_c, 0, 57, 40
3, 142157, Note_on_c, 0, 48, 35
3, 142178, Control_c, 0, 64, 127
3, 142288, Note_on_c, 0, 41, 0
3, 142314, Note_on_c, 0, 86, 0
3, 142337, Note_on_c, 0, 48, 0
3, 142374, Note_on_c, 0, 81, 50
3, 142462, Note_on_c, 0, 57, 0
3, 142486, Note_on_c, 0, 81, 0
3, 142605, Note_on_c, 0, 81, 42
3, 142773, Note_on_c, 0, 81, 0
3, 142865, Note_on_c, 0, 79, 56
3, 142978, Note_on_c, 0, 79, 0
3, 143068, Control_c, 0, 64, 0
3, 143099, Note_on_c, 0, 62, 29
3, 143116, Note_on_c, 0, 79, 51
3, 143127, Note_on_c, 0, 60, 30
3, 143136, Note_on_c, 0, 57, 36
3, 143144, Note_on_c, 0, 53, 24
3, 143254, Control_c, 0, 64, 127
3, 143268, Note_on_c, 0, 60, 0
3, 143313, Note_on_c, 0, 79, 0
3, 143336, Note_on_c, 0, 53, 0
3, 143350, Note_on_c, 0, 62, 0
3, 143356, Note_on_c, 0, 77, 50
3, 143360, Note_on_c, 0, 57, 0
3, 143450, Note_on_c, 0, 77, 0
3, 143601, Note_on_c, 0, 77, 58
3, 143731, Note_on_c, 0, 77, 0
3, 143851, Note_on_c, 0, 76, 66
3, 143985, Note_on_c, 0, 76, 0
3, 144019, Control_c, 0, 64, 0
3, 144068, Note_on_c, 0, 57, 40
3, 144077, Note_on_c, 0, 62, 34
3, 144086, Note_on_c, 0, 76, 61
3, 144097, Note_on_c, 0, 67, 15
3, 144204, Control_c, 0, 64, 127
3, 144225, Note_on_c, 0, 67, 0
3, 144279, Note_on_c, 0, 62, 0
3, 144280, Note_on_c, 0, 76, 0
3, 144341, Note_on_c, 0, 77, 58
3, 144355, Note_on_c, 0, 57, 0
3, 144453, Note_on_c, 0, 77, 0
3, 144581, Note_on_c, 0, 72, 54
3, 144911, Note_on_c, 0, 72, 0
3, 144933, Control_c, 0, 64, 0
3, 145011, Note_on_c, 0, 64, 32
3, 145026, Note_on_c, 0, 57, 44
3, 145040, Note_on_c, 0, 72, 38
3, 145048, Note_on_c, 0, 60, 24
3, 145069, Control_c, 0, 64, 127
3, 145076, Note_on_c, 0, 53, 20
3, 145289, Note_on_c, 0, 72, 0
3, 145347, Note_on_c, 0, 64, 0
3, 145358, Note_on_c, 0, 53, 0
3, 145375, Note_on_c, 0, 60, 0
3, 145400, Note_on_c, 0, 57, 0
3, 145932, Control_c, 0, 64, 0
3, 145977, Note_on_c, 0, 73, 42
3, 145980, Note_on_c, 0, 61, 39
3, 145985, Note_on_c, 0, 65, 47
3, 145988, Note_on_c, 0, 67, 53
3, 145989, Note_on_c, 0, 79, 48
3, 145999, Note_on_c, 0, 55, 33
3, 146041, Note_on_c, 0, 65, 0
3, 146094, Control_c, 0, 64, 127
3, 146134, Note_on_c, 0, 61, 0
3, 146166, Note_on_c, 0, 55, 0
3, 146446, Note_on_c, 0, 79, 0
3, 146490, Note_on_c, 0, 73, 0
3, 146505, Note_on_c, 0, 27, 53
3, 146515, Note_on_c, 0, 67, 0
3, 146551, Note_on_c, 0, 27, 0
3, 146943, Note_on_c, 0, 70, 62
3, 146944, Note_on_c, 0, 61, 61
3, 146950, Note_on_c, 0, 60, 55
3, 146951, Note_on_c, 0, 65, 65
3, 146994, Control_c, 0, 64, 0
3, 147081, Control_c, 0, 64, 127
3, 147370, Note_on_c, 0, 60, 0
3, 147419, Note_on_c, 0, 58, 81
3, 147451, Control_c, 0, 64, 0
3, 147600, Control_c, 0, 64, 127
3, 147720, Note_on_c, 0, 65, 0
3, 147738, Note_on_c, 0, 61, 0
3, 147815, Note_on_c, 0, 70, 0
3, 147884, Control_c, 0, 64, 0
3, 147892, Note_on_c, 0, 61, 72
3, 147894, Note_on_c, 0, 72, 68
3, 147896, Note_on_c, 0, 65, 75
3, 148044, Control_c, 0, 64, 127
3, 148219, Note_on_c, 0, 58, 0
3, 148374, Note_on_c, 0, 58, 74
3, 148677, Note_on_c, 0, 65, 0
3, 148680, Note_on_c, 0, 61, 0
3, 148762, Note_on_c, 0, 72, 0
3, 148773, Control_c, 0, 64, 0
3, 148857, Note_on_c, 0, 61, 64
3, 148860, Note_on_c, 0, 70, 63
3, 148872, Note_on_c, 0, 65, 67
3, 148914, Note_on_c, 0, 58, 0
3, 148958, Control_c, 0, 64, 127
3, 149333, Note_on_c, 0, 46, 42
3, 149447, Note_on_c, 0, 61, 0
3, 149472, Note_on_c, 0, 65, 0
3, 149543, Note_on_c, 0, 70, 0
3, 149641, Note_on_c, 0, 46, 0
3, 149785, Control_c, 0, 64, 0
3, 149788, Note_on_c, 0, 45, 44
3, 149811, Note_on_c, 0, 60, 36
3, 149823, Note_on_c, 0, 64, 41
3, 149828, Note_on_c, 0, 55, 24
3, 149844, Note_on_c, 0, 67, 29
3, 149857, Note_on_c, 0, 69, 26
3, 149925, Note_on_c, 0, 60, 0
3, 149934, Note_on_c, 0, 45, 0
3, 149945, Note_on_c, 0, 55, 0
3, 149982, Control_c, 0, 64, 127
3, 149995, Note_on_c, 0, 67, 0
3, 150013, Note_on_c, 0, 64, 0
3, 150021, Note_on_c, 0, 60, 29
3, 150047, Note_on_c, 0, 69, 0
3, 150157, Note_on_c, 0, 60, 0
3, 150266, Note_on_c, 0, 60, 36
3, 150384, Note_on_c, 0, 64, 35
3, 150392, Note_on_c, 0, 60, 0
3, 150414, Note_on_c, 0, 67, 25
3, 150486, Note_on_c, 0, 67, 0
3, 150497, Note_on_c, 0, 60, 38
3, 150504, Note_on_c, 0, 64, 0
3, 150625, Control_c, 0, 64, 0
3, 150626, Note_on_c, 0, 64, 35
3, 150642, Note_on_c, 0, 60, 0
3, 150661, Note_on_c, 0, 67, 27
3, 150667, Note_on_c, 0, 69, 18
3, 150727, Note_on_c, 0, 67, 0
3, 150737, Note_on_c, 0, 64, 0
3, 150745, Note_on_c, 0, 60, 50
3, 150746, Note_on_c, 0, 56, 76
3, 150765, Note_on_c, 0, 69, 0
3, 150875, Note_on_c, 0, 64, 45
3, 150879, Note_on_c, 0, 60, 0
3, 150911, Note_on_c, 0, 69, 17
3, 150963, Note_on_c, 0, 64, 0
3, 150981, Note_on_c, 0, 60, 48
3, 150995, Note_on_c, 0, 69, 0
3, 151110, Note_on_c, 0, 64, 36
3, 151114, Note_on_c, 0, 60, 0
3, 151138, Note_on_c, 0, 69, 24
3, 151182, Note_on_c, 0, 54, 31
3, 151231, Note_on_c, 0, 60, 49
3, 151235, Note_on_c, 0, 64, 0
3, 151247, Note_on_c, 0, 69, 0
3, 151285, Note_on_c, 0, 56, 0
3, 151301, Note_on_c, 0, 57, 83
3, 151303, Note_on_c, 0, 54, 0
3, 151368, Note_on_c, 0, 60, 0
3, 151375, Note_on_c, 0, 64, 32
3, 151396, Note_on_c, 0, 69, 20
3, 151418, Note_on_c, 0, 67, 20
3, 151462, Note_on_c, 0, 64, 0
3, 151470, Note_on_c, 0, 67, 0
3, 151473, Note_on_c, 0, 60, 48
3, 151497, Note_on_c, 0, 69, 0
3, 151613, Note_on_c, 0, 64, 44
3, 151614, Note_on_c, 0, 60, 0
3, 151659, Note_on_c, 0, 69, 24
3, 151670, Note_on_c, 0, 67, 25
3, 151730, Note_on_c, 0, 67, 0
3, 151745, Note_on_c, 0, 69, 0
3, 151750, Note_on_c, 0, 60, 47
3, 151768, Note_on_c, 0, 64, 0
3, 151792, Note_on_c, 0, 59, 64
3, 151804, Note_on_c, 0, 57, 0
3, 151880, Note_on_c, 0, 60, 0
3, 151894, Note_on_c, 0, 69, 24
3, 151896, Note_on_c, 0, 64, 42
3, 151977, Note_on_c, 0, 64, 0
3, 151997, Note_on_c, 0, 60, 38
3, 152002, Note_on_c, 0, 69, 0
3, 152117, Note_on_c, 0, 60, 0
3, 152148, Note_on_c, 0, 64, 34
3, 152207, Note_on_c, 0, 64, 0
3, 152238, Note_on_c, 0, 60, 35
3, 152356, Note_on_c, 0, 60, 0
3, 152376, Note_on_c, 0, 64, 35
3, 152442, Note_on_c, 0, 64, 0
3, 152479, Note_on_c, 0, 60, 36
3, 152609, Note_on_c, 0, 60, 0
3, 152617, Note_on_c, 0, 64, 39
3, 152690, Note_on_c, 0, 64, 0
3, 152722, Note_on_c, 0, 60, 48
3, 152732, Note_on_c, 0, 59, 0
3, 152749, Note_on_c, 0, 57, 46
3, 152859, Note_on_c, 0, 60, 0
3, 152870, Note_on_c, 0, 64, 31
3, 152929, Note_on_c, 0, 64, 0
3, 152965, Note_on_c, 0, 60, 33
3, 153088, Note_on_c, 0, 64, 19
3, 153094, Note_on_c, 0, 60, 0
3, 153112, Note_on_c, 0, 69, 20
3, 153132, Control_c, 0, 64, 127
3, 153197, Note_on_c, 0, 69, 0
3, 153211, Note_on_c, 0, 60, 33
3, 153212, Note_on_c, 0, 64, 0
3, 153370, Note_on_c, 0, 69, 18
3, 153380, Note_on_c, 0, 60, 0
3, 153385, Note_on_c, 0, 64, 15
3, 153448, Note_on_c, 0, 64, 0
3, 153509, Note_on_c, 0, 60, 16
3, 153555, Note_on_c, 0, 69, 0
3, 153583, Note_on_c, 0, 60, 0
3, 153675, Control_c, 0, 64, 0
3, 153691, Note_on_c, 0, 60, 36
3, 153693, Note_on_c, 0, 56, 40
3, 153703, Note_on_c, 0, 63, 30
3, 153704, Note_on_c, 0, 69, 24
3, 153719, Note_on_c, 0, 57, 0
3, 153728, Note_on_c, 0, 66, 30
3, 153813, Note_on_c, 0, 56, 0
3, 153874, Control_c, 0, 64, 127
3, 154131, Note_on_c, 0, 38, 42
3, 154185, Note_on_c, 0, 60, 0
3, 154242, Note_on_c, 0, 63, 0
3, 154268, Note_on_c, 0, 66, 0
3, 154269, Note_on_c, 0, 38, 0
3, 154275, Note_on_c, 0, 69, 0
3, 154630, Note_on_c, 0, 54, 46
3, 154638, Note_on_c, 0, 65, 56
3, 154641, Note_on_c, 0, 70, 58
3, 154643, Note_on_c, 0, 74, 63
3, 154644, Note_on_c, 0, 60, 40
3, 154903, Note_on_c, 0, 65, 0
3, 154958, Note_on_c, 0, 74, 0
3, 155021, Control_c, 0, 64, 0
3, 155043, Note_on_c, 0, 70, 0
3, 155117, Note_on_c, 0, 63, 46
3, 155130, Note_on_c, 0, 72, 48
3, 155134, Note_on_c, 0, 68, 44
3, 155140, Note_on_c, 0, 50, 38
3, 155170, Note_on_c, 0, 54, 0
3, 155177, Note_on_c, 0, 60, 0
3, 155307, Control_c, 0, 64, 127
3, 155526, Note_on_c, 0, 72, 0
3, 155552, Note_on_c, 0, 68, 0
3, 155571, Note_on_c, 0, 63, 0
3, 155695, Note_on_c, 0, 50, 0
3, 156063, Note_on_c, 0, 63, 55
3, 156068, Note_on_c, 0, 54, 38
3, 156069, Note_on_c, 0, 68, 50
3, 156070, Note_on_c, 0, 60, 45
3, 156121, Control_c, 0, 64, 0
3, 156170, Control_c, 0, 64, 127
3, 156359, Note_on_c, 0, 60, 0
3, 156519, Note_on_c, 0, 50, 20
3, 156737, Note_on_c, 0, 68, 0
3, 156784, Note_on_c, 0, 63, 0
3, 156820, Note_on_c, 0, 54, 0
3, 156988, Note_on_c, 0, 44, 46
3, 157360, Note_on_c, 0, 44, 0
3, 157376, Note_on_c, 0, 50, 0
3, 157480, Control_c, 0, 64, 0
3, 157490, Note_on_c, 0, 58, 44
3, 157493, Note_on_c, 0, 43, 37
3, 157501, Note_on_c, 0, 60, 41
3, 157504, Note_on_c, 0, 53, 30
3, 157546, Note_on_c, 0, 50, 26
3, 157702, Control_c, 0, 64, 127
3, 157753, Note_on_c, 0, 53, 0
3, 157821, Note_on_c, 0, 43, 0
3, 157852, Note_on_c, 0, 60, 0
3, 157865, Note_on_c, 0, 50, 0
3, 157867, Note_on_c, 0, 58, 0
3, 158485, Note_on_c, 0, 65, 73
3, 158489, Note_on_c, 0, 72, 70
3, 158490, Note_on_c, 0, 69, 73
3, 158494, Control_c, 0, 64, 0
3, 158501, Note_on_c, 0, 60, 65
3, 158510, Note_on_c, 0, 62, 54
3, 158512, Note_on_c, 0, 58, 52
3, 158690, Control_c, 0, 64, 127
3, 158887, Note_on_c, 0, 62, 0
3, 158890, Note_on_c, 0, 65, 0
3, 158911, Note_on_c, 0, 60, 0
3, 158916, Note_on_c, 0, 72, 0
3, 158918, Note_on_c, 0, 69, 0
3, 158921, Note_on_c, 0, 58, 0
3, 158998, Note_on_c, 0, 69, 77
3, 159000, Note_on_c, 0, 72, 68
3, 159003, Note_on_c, 0, 65, 72
3, 159005, Note_on_c, 0, 58, 70
3, 159008, Note_on_c, 0, 62, 57
3, 159009, Note_on_c, 0, 60, 69
3, 159249, Note_on_c, 0, 60, 0
3, 159258, Note_on_c, 0, 62, 0
3, 159301, Note_on_c, 0, 65, 0
3, 159328, Note_on_c, 0, 72, 0
3, 159346, Note_on_c, 0, 69, 0
3, 159367, Note_on_c, 0, 58, 0
3, 159442, Control_c, 0, 64, 0
3, 159461, Note_on_c, 0, 68, 78
3, 159463, Note_on_c, 0, 71, 73
3, 159471, Note_on_c, 0, 59, 74
3, 159476, Note_on_c, 0, 64, 82
3, 159477, Note_on_c, 0, 61, 70
3, 159487, Note_on_c, 0, 57, 73
3, 159652, Control_c, 0, 64, 127
3, 159837, Note_on_c, 0, 64, 0
3, 159842, Note_on_c, 0, 61, 0
3, 159874, Note_on_c, 0, 57, 0
3, 159881, Note_on_c, 0, 71, 0
3, 159885, Note_on_c, 0, 68, 0
3, 159927, Note_on_c, 0, 59, 0
3, 159960, Note_on_c, 0, 68, 64
3, 159962, Note_on_c, 0, 61, 64
3, 159966, Note_on_c, 0, 59, 27
3, 159968, Note_on_c, 0, 71, 72
3, 159980, Note_on_c, 0, 64, 66
3, 159988, Note_on_c, 0, 57, 55
3, 160152, Note_on_c, 0, 64, 0
3, 160166, Note_on_c, 0, 71, 0
3, 160196, Note_on_c, 0, 59, 0
3, 160204, Note_on_c, 0, 57, 0
3, 160244, Note_on_c, 0, 61, 0
3, 160285, Note_on_c, 0, 68, 0
3, 160344, Control_c, 0, 64, 0
3, 160406, Note_on_c, 0, 70, 60
3, 160407, Note_on_c, 0, 56, 46
3, 160410, Note_on_c, 0, 67, 63
3, 160411, Note_on_c, 0, 60, 45
3, 160419, Note_on_c, 0, 58, 53
3, 160422, Note_on_c, 0, 63, 56
3, 160504, Control_c, 0, 64, 127
3, 160716, Note_on_c, 0, 63, 0
3, 160729, Note_on_c, 0, 60, 0
3, 160732, Note_on_c, 0, 67, 0
3, 160735, Note_on_c, 0, 56, 0
3, 160748, Note_on_c, 0, 58, 0
3, 160756, Note_on_c, 0, 70, 0
3, 160886, Note_on_c, 0, 70, 42
3, 160891, Note_on_c, 0, 63, 50
3, 160892, Note_on_c, 0, 58, 43
3, 160904, Note_on_c, 0, 67, 47
3, 160910, Note_on_c, 0, 56, 48
3, 160915, Note_on_c, 0, 60, 28
3, 161061, Note_on_c, 0, 60, 0
3, 161072, Note_on_c, 0, 67, 0
3, 161109, Note_on_c, 0, 63, 0
3, 161160, Note_on_c, 0, 70, 0
3, 161178, Note_on_c, 0, 56, 0
3, 161196, Control_c, 0, 64, 0
3, 161229, Note_on_c, 0, 58, 0
3, 161308, Note_on_c, 0, 59, 45
3, 161311, Note_on_c, 0, 66, 55
3, 161318, Note_on_c, 0, 57, 57
3, 161329, Note_on_c, 0, 62, 40
3, 161340, Note_on_c, 0, 55, 40
3, 161345, Note_on_c, 0, 69, 43
3, 161369, Control_c, 0, 64, 127
3, 161664, Note_on_c, 0, 57, 0
3, 161676, Note_on_c, 0, 55, 0
3, 161693, Note_on_c, 0, 59, 0
3, 161798, Note_on_c, 0, 62, 0
3, 161845, Note_on_c, 0, 69, 0
3, 161996, Note_on_c, 0, 66, 0
3, 162184, Control_c, 0, 64, 0
3, 162197, Note_on_c, 0, 58, 39
3, 162219, Note_on_c, 0, 61, 48
3, 162234, Note_on_c, 0, 68, 34
3, 162243, Note_on_c, 0, 56, 45
3, 162245, Note_on_c, 0, 65, 45
3, 162250, Note_on_c, 0, 54, 31
3, 162345, Control_c, 0, 64, 127
3, 162646, Note_on_c, 0, 58, 0
3, 162676, Note_on_c, 0, 61, 0
3, 162707, Note_on_c, 0, 56, 0
3, 162742, Note_on_c, 0, 65, 0
3, 162755, Note_on_c, 0, 54, 0
3, 162844, Note_on_c, 0, 68, 0
3, 163173, Control_c, 0, 64, 0
3, 163196, Note_on_c, 0, 64, 43
3, 163198, Note_on_c, 0, 57, 38
3, 163202, Note_on_c, 0, 60, 35
3, 163207, Note_on_c, 0, 67, 34
3, 163235, Note_on_c, 0, 55, 28
3, 163257, Note_on_c, 0, 53, 20
3, 163295, Control_c, 0, 64, 127
3, 163494, Note_on_c, 0, 55, 0
3, 163540, Note_on_c, 0, 57, 0
3, 163578, Note_on_c, 0, 53, 0
3, 163603, Note_on_c, 0, 64, 0
3, 163652, Note_on_c, 0, 60, 0
3, 164150, Note_on_c, 0, 61, 43
3, 164152, Note_on_c, 0, 46, 35
3, 164161, Note_on_c, 0, 56, 25
3, 164168, Note_on_c, 0, 58, 39
3, 164184, Control_c, 0, 64, 0
3, 164223, Note_on_c, 0, 53, 17
3, 164315, Note_on_c, 0, 67, 0
3, 164332, Control_c, 0, 64, 127
3, 164352, Note_on_c, 0, 53, 0
3, 164475, Note_on_c, 0, 56, 0
3, 164612, Note_on_c, 0, 58, 0
3, 164640, Note_on_c, 0, 46, 0
3, 164749, Note_on_c, 0, 66, 15
3, 164883, Note_on_c, 0, 61, 0
3, 164998, Note_on_c, 0, 66, 0
3, 165074, Control_c, 0, 64, 0
3, 165159, Note_on_c, 0, 60, 41
3, 165182, Note_on_c, 0, 55, 24
3, 165185, Note_on_c, 0, 52, 24
3, 165190, Note_on_c, 0, 45, 30
3, 165233, Control_c, 0, 64, 127
3, 165340, Note_on_c, 0, 55, 0
3, 165378, Note_on_c, 0, 45, 0
3, 165410, Note_on_c, 0, 60, 0
3, 165442, Note_on_c, 0, 52, 0
3, 166084, Note_on_c, 0, 64, 40
3, 166099, Note_on_c, 0, 72, 55
3, 166103, Note_on_c, 0, 79, 65
3, 166110, Control_c, 0, 64, 0
3, 166131, Note_on_c, 0, 57, 29
3, 166138, Note_on_c, 0, 64, 0
3, 166226, Note_on_c, 0, 57, 0
3, 166233, Note_on_c, 0, 79, 0
3, 166265, Note_on_c, 0, 72, 0
3, 166335, Note_on_c, 0, 67, 37
3, 166338, Note_on_c, 0, 76, 36
3, 166481, Note_on_c, 0, 67, 0
3, 166505, Note_on_c, 0, 76, 0
3, 166579, Note_on_c, 0, 79, 54
3, 166608, Note_on_c, 0, 72, 27
3, 166706, Note_on_c, 0, 79, 0
3, 166743, Note_on_c, 0, 72, 0
3, 166790, Note_on_c, 0, 67, 31
3, 166809, Note_on_c, 0, 76, 24
3, 166922, Note_on_c, 0, 67, 0
3, 166955, Note_on_c, 0, 76, 0
3, 166956, Note_on_c, 0, 45, 34
3, 166976, Control_c, 0, 64, 127
3, 166987, Note_on_c, 0, 55, 15
3, 167027, Note_on_c, 0, 79, 44
3, 167059, Note_on_c, 0, 45, 0
3, 167067, Note_on_c, 0, 72, 20
3, 167075, Control_c, 0, 64, 0
3, 167138, Note_on_c, 0, 55, 0
3, 167173, Note_on_c, 0, 79, 0
3, 167213, Note_on_c, 0, 72, 0
3, 167248, Note_on_c, 0, 67, 32
3, 167264, Note_on_c, 0, 76, 27
3, 167384, Note_on_c, 0, 67, 0
3, 167421, Note_on_c, 0, 76, 0
3, 167500, Note_on_c, 0, 79, 36
3, 167561, Note_on_c, 0, 79, 0
3, 167958, Note_on_c, 0, 55, 33
3, 167963, Control_c, 0, 64, 127
3, 167990, Note_on_c, 0, 64, 33
3, 168007, Note_on_c, 0, 60, 28
3, 168117, Note_on_c, 0, 64, 0
3, 168130, Note_on_c, 0, 60, 0
3, 168190, Note_on_c, 0, 55, 0
3, 168569, Note_on_c, 0, 50, 50
3, 168809, Note_on_c, 0, 50, 0
3, 168865, Control_c, 0, 64, 0
3, 168961, Note_on_c, 0, 53, 30
3, 169087, Control_c, 0, 64, 127
3, 169199, Note_on_c, 0, 53, 0
3, 169381, Note_on_c, 0, 77, 63
3, 169386, Note_on_c, 0, 71, 57
3, 169514, Note_on_c, 0, 77, 0
3, 169549, Note_on_c, 0, 71, 0
3, 169593, Note_on_c, 0, 74, 44
3, 169597, Note_on_c, 0, 65, 45
3, 169726, Note_on_c, 0, 65, 0
3, 169774, Note_on_c, 0, 74, 0
3, 169845, Note_on_c, 0, 77, 60
3, 169853, Note_on_c, 0, 71, 54
3, 169865, Control_c, 0, 64, 0
3, 169871, Note_on_c, 0, 62, 35
3, 169881, Note_on_c, 0, 56, 35
3, 169901, Note_on_c, 0, 59, 31
3, 169928, Note_on_c, 0, 62, 0
3, 169972, Note_on_c, 0, 59, 0
3, 169995, Note_on_c, 0, 77, 0
3, 170017, Note_on_c, 0, 71, 0
3, 170039, Note_on_c, 0, 56, 0
3, 170088, Note_on_c, 0, 65, 30
3, 170100, Note_on_c, 0, 74, 35
3, 170209, Note_on_c, 0, 65, 0
3, 170240, Note_on_c, 0, 74, 0
3, 170307, Note_on_c, 0, 77, 50
3, 170314, Note_on_c, 0, 71, 43
3, 170458, Note_on_c, 0, 77, 0
3, 170459, Note_on_c, 0, 71, 0
3, 170529, Note_on_c, 0, 65, 40
3, 170550, Note_on_c, 0, 74, 40
3, 170556, Control_c, 0, 64, 127
3, 170654, Note_on_c, 0, 65, 0
3, 170719, Note_on_c, 0, 74, 0
3, 170741, Control_c, 0, 64, 0
3, 170788, Note_on_c, 0, 56, 60
3, 170809, Note_on_c, 0, 77, 57
3, 170820, Note_on_c, 0, 71, 51
3, 170827, Note_on_c, 0, 65, 49
3, 170926, Note_on_c, 0, 47, 50
3, 171000, Note_on_c, 0, 65, 0
3, 171026, Note_on_c, 0, 71, 0
3, 171032, Note_on_c, 0, 77, 0
3, 171060, Note_on_c, 0, 47, 0
3, 171080, Note_on_c, 0, 74, 40
3, 171085, Note_on_c, 0, 56, 0
3, 171255, Note_on_c, 0, 74, 0
3, 171272, Control_c, 0, 64, 127
3, 171315, Note_on_c, 0, 77, 47
3, 171331, Note_on_c, 0, 71, 34
3, 171340, Note_on_c, 0, 65, 24
3, 171521, Note_on_c, 0, 65, 0
3, 171532, Note_on_c, 0, 71, 0
3, 171552, Note_on_c, 0, 77, 0
3, 171754, Control_c, 0, 64, 0
3, 171841, Note_on_c, 0, 56, 42
3, 171854, Note_on_c, 0, 62, 22
3, 171859, Note_on_c, 0, 59, 30
3, 171934, Note_on_c, 0, 62, 0
3, 171955, Note_on_c, 0, 59, 0
3, 172016, Note_on_c, 0, 56, 0
3, 172149, Control_c, 0, 64, 127
3, 172212, Control_c, 0, 64, 0
3, 172385, Control_c, 0, 64, 127
3, 172459, Note_on_c, 0, 50, 36
3, 172755, Control_c, 0, 64, 0
3, 172759, Note_on_c, 0, 50, 0
3, 172854, Note_on_c, 0, 65, 30
3, 172863, Note_on_c, 0, 43, 26
3, 172865, Note_on_c, 0, 53, 29
3, 172895, Note_on_c, 0, 70, 23
3, 172938, Note_on_c, 0, 43, 0
3, 172989, Control_c, 0, 64, 127
3, 173034, Note_on_c, 0, 53, 0
3, 173204, Note_on_c, 0, 65, 0
3, 173277, Note_on_c, 0, 70, 0
3, 173792, Control_c, 0, 64, 0
3, 173794, Note_on_c, 0, 58, 53
3, 173795, Note_on_c, 0, 70, 77
3, 173796, Note_on_c, 0, 77, 71
3, 173800, Note_on_c, 0, 62, 35
3, 173842, Note_on_c, 0, 62, 0
3, 173917, Note_on_c, 0, 77, 0
3, 173918, Note_on_c, 0, 58, 0
3, 173921, Note_on_c, 0, 70, 0
3, 174033, Note_on_c, 0, 65, 46
3, 174039, Note_on_c, 0, 74, 41
3, 174169, Note_on_c, 0, 65, 0
3, 174203, Note_on_c, 0, 74, 0
3, 174246, Note_on_c, 0, 70, 57
3, 174250, Note_on_c, 0, 77, 62
3, 174415, Note_on_c, 0, 77, 0
3, 174419, Note_on_c, 0, 70, 0
3, 174468, Note_on_c, 0, 65, 35
3, 174473, Note_on_c, 0, 74, 40
3, 174521, Control_c, 0, 64, 127
3, 174602, Note_on_c, 0, 65, 0
3, 174619, Control_c, 0, 64, 0
3, 174638, Note_on_c, 0, 74, 0
3, 174711, Note_on_c, 0, 70, 46
3, 174719, Note_on_c, 0, 77, 53
3, 174723, Note_on_c, 0, 50, 39
3, 174871, Note_on_c, 0, 70, 0
3, 174872, Note_on_c, 0, 77, 0
3, 174967, Note_on_c, 0, 65, 24
3, 174975, Note_on_c, 0, 74, 30
3, 174989, Note_on_c, 0, 50, 0
3, 175088, Note_on_c, 0, 65, 0
3, 175138, Note_on_c, 0, 74, 0
3, 175175, Control_c, 0, 64, 127
3, 175201, Note_on_c, 0, 70, 54
3, 175205, Note_on_c, 0, 77, 49
3, 175238, Note_on_c, 0, 65, 33
3, 175296, Note_on_c, 0, 65, 0
3, 175308, Note_on_c, 0, 70, 0
3, 175322, Note_on_c, 0, 77, 0
3, 175546, Control_c, 0, 64, 0
3, 175648, Note_on_c, 0, 49, 33
3, 175652, Note_on_c, 0, 37, 36
3, 175816, Note_on_c, 0, 49, 0
3, 175830, Note_on_c, 0, 37, 0
3, 175866, Control_c, 0, 64, 127
3, 176596, Control_c, 0, 64, 0
3, 176665, Note_on_c, 0, 79, 40
3, 176669, Note_on_c, 0, 36, 28
3, 176671, Note_on_c, 0, 52, 39
3, 176673, Note_on_c, 0, 67, 38
3, 176766, Note_on_c, 0, 36, 0
3, 176847, Note_on_c, 0, 79, 0
3, 176892, Note_on_c, 0, 67, 0
3, 176905, Note_on_c, 0, 52, 0
3, 176915, Note_on_c, 0, 76, 32
3, 176953, Control_c, 0, 64, 127
3, 177077, Note_on_c, 0, 76, 0
3, 177136, Note_on_c, 0, 79, 51
3, 177186, Note_on_c, 0, 67, 22
3, 177293, Note_on_c, 0, 67, 0
3, 177314, Note_on_c, 0, 79, 0
3, 177398, Note_on_c, 0, 76, 40
3, 177553, Note_on_c, 0, 76, 0
3, 177584, Control_c, 0, 64, 0
3, 177611, Note_on_c, 0, 61, 38
3, 177613, Note_on_c, 0, 79, 51
3, 177618, Note_on_c, 0, 64, 39
3, 177623, Note_on_c, 0, 73, 25
3, 177638, Note_on_c, 0, 58, 44
3, 177643, Note_on_c, 0, 67, 29
3, 177744, Note_on_c, 0, 64, 0
3, 177762, Note_on_c, 0, 67, 0
3, 177792, Note_on_c, 0, 73, 0
3, 177808, Note_on_c, 0, 61, 0
3, 177826, Note_on_c, 0, 58, 0
3, 177850, Note_on_c, 0, 79, 0
3, 177866, Control_c, 0, 64, 127
3, 177878, Note_on_c, 0, 76, 41
3, 178088, Note_on_c, 0, 73, 40
3, 178152, Note_on_c, 0, 76, 0
3, 178266, Note_on_c, 0, 73, 0
3, 178559, Control_c, 0, 64, 0
3, 178566, Note_on_c, 0, 80, 61
3, 178573, Note_on_c, 0, 58, 39
3, 178584, Note_on_c, 0, 68, 40
3, 178596, Note_on_c, 0, 48, 34
3, 178718, Note_on_c, 0, 48, 0
3, 178749, Note_on_c, 0, 68, 0
3, 178807, Note_on_c, 0, 80, 0
3, 178813, Note_on_c, 0, 58, 0
3, 178872, Note_on_c, 0, 77, 49
3, 178994, Note_on_c, 0, 77, 0
3, 179069, Note_on_c, 0, 80, 60
3, 179090, Control_c, 0, 64, 127
3, 179092, Note_on_c, 0, 68, 38
3, 179220, Note_on_c, 0, 68, 0
3, 179264, Note_on_c, 0, 80, 0
3, 179352, Note_on_c, 0, 77, 46
3, 179488, Note_on_c, 0, 77, 0
3, 179509, Control_c, 0, 64, 0
3, 179554, Note_on_c, 0, 80, 53
3, 179561, Note_on_c, 0, 64, 58
3, 179573, Note_on_c, 0, 68, 37
3, 179576, Note_on_c, 0, 58, 57
3, 179591, Note_on_c, 0, 73, 33
3, 179666, Note_on_c, 0, 64, 0
3, 179708, Control_c, 0, 64, 127
3, 179720, Note_on_c, 0, 58, 0
3, 179742, Note_on_c, 0, 73, 0
3, 179758, Note_on_c, 0, 68, 0
3, 179794, Note_on_c, 0, 80, 0
3, 179828, Note_on_c, 0, 77, 46
3, 180041, Note_on_c, 0, 77, 0
3, 180050, Note_on_c, 0, 73, 40
3, 180274, Note_on_c, 0, 73, 0
3, 180497, Control_c, 0, 64, 0
3, 180513, Note_on_c, 0, 41, 34
3, 180545, Note_on_c, 0, 48, 41
3, 180548, Note_on_c, 0, 57, 44
3, 180549, Note_on_c, 0, 69, 57
3, 180574, Note_on_c, 0, 81, 38
3, 180590, Note_on_c, 0, 76, 28
3, 180661, Note_on_c, 0, 41, 0
3, 180662, Note_on_c, 0, 76, 0
3, 180706, Note_on_c, 0, 69, 0
3, 180719, Control_c, 0, 64, 127
3, 180752, Note_on_c, 0, 48, 0
3, 180754, Note_on_c, 0, 81, 0
3, 180800, Note_on_c, 0, 76, 43
3, 180814, Note_on_c, 0, 57, 0
3, 180929, Note_on_c, 0, 76, 0
3, 181004, Note_on_c, 0, 81, 47
3, 181017, Note_on_c, 0, 69, 44
3, 181139, Note_on_c, 0, 69, 0
3, 181211, Note_on_c, 0, 81, 0
3, 181294, Note_on_c, 0, 76, 38
3, 181351, Note_on_c, 0, 76, 0
3, 181473, Control_c, 0, 64, 0
3, 181477, Note_on_c, 0, 64, 55
3, 181504, Note_on_c, 0, 60, 36
3, 181508, Note_on_c, 0, 84, 74
3, 181525, Note_on_c, 0, 57, 43
3, 181527, Note_on_c, 0, 72, 36
3, 181650, Note_on_c, 0, 64, 0
3, 181654, Note_on_c, 0, 72, 0
3, 181669, Note_on_c, 0, 84, 0
3, 181695, Control_c, 0, 64, 127
3, 181775, Note_on_c, 0, 84, 41
3, 181788, Note_on_c, 0, 72, 28
3, 181791, Note_on_c, 0, 60, 0
3, 181855, Note_on_c, 0, 57, 0
3, 181872, Note_on_c, 0, 72, 0
3, 181893, Note_on_c, 0, 84, 0
3, 182003, Note_on_c, 0, 74, 72
3, 182005, Note_on_c, 0, 86, 72
3, 182026, Note_on_c, 0, 81, 41
3, 182130, Note_on_c, 0, 74, 0
3, 182168, Note_on_c, 0, 86, 0
3, 182178, Note_on_c, 0, 81, 0
3, 182259, Note_on_c, 0, 86, 66
3, 182301, Note_on_c, 0, 74, 32
3, 182315, Note_on_c, 0, 81, 22
3, 182387, Note_on_c, 0, 74, 0
3, 182392, Note_on_c, 0, 86, 0
3, 182434, Note_on_c, 0, 81, 0
3, 182486, Control_c, 0, 64, 0
3, 182498, Note_on_c, 0, 84, 43
3, 182505, Note_on_c, 0, 72, 44
3, 182509, Note_on_c, 0, 60, 55
3, 182510, Note_on_c, 0, 81, 32
3, 182521, Note_on_c, 0, 63, 40
3, 182526, Note_on_c, 0, 54, 46
3, 182708, Control_c, 0, 64, 127
3, 182898, Note_on_c, 0, 60, 0
3, 182999, Note_on_c, 0, 81, 0
3, 183006, Note_on_c, 0, 84, 0
3, 183038, Note_on_c, 0, 63, 0
3, 183071, Note_on_c, 0, 72, 0
3, 183186, Note_on_c, 0, 54, 0
3, 183400, Control_c, 0, 64, 0
3, 183417, Note_on_c, 0, 65, 58
3, 183420, Note_on_c, 0, 63, 51
3, 183428, Note_on_c, 0, 68, 51
3, 183429, Note_on_c, 0, 72, 53
3, 183439, Note_on_c, 0, 58, 56
3, 183458, Note_on_c, 0, 53, 31
3, 183585, Control_c, 0, 64, 127
3, 183644, Note_on_c, 0, 63, 0
3, 183668, Note_on_c, 0, 53, 0
3, 183696, Note_on_c, 0, 58, 0
3, 183725, Note_on_c, 0, 65, 0
3, 183740, Note_on_c, 0, 72, 0
3, 183758, Note_on_c, 0, 68, 0
3, 184020, Note_on_c, 0, 44, 50
3, 184022, Note_on_c, 0, 54, 42
3, 184251, Control_c, 0, 64, 0
3, 184265, Note_on_c, 0, 44, 0
3, 184284, Note_on_c, 0, 54, 0
3, 184385, Note_on_c, 0, 43, 49
3, 184404, Note_on_c, 0, 53, 40
3, 184450, Control_c, 0, 64, 127
3, 184626, Note_on_c, 0, 43, 0
3, 184710, Note_on_c, 0, 53, 0
3, 185350, Control_c, 0, 64, 0
3, 185355, Note_on_c, 0, 62, 33
3, 185358, Note_on_c, 0, 58, 44
3, 185372, Note_on_c, 0, 57, 36
3, 185380, Note_on_c, 0, 53, 18
3, 185675, Note_on_c, 0, 70, 57
3, 185760, Note_on_c, 0, 69, 24
3, 185796, Note_on_c, 0, 70, 0
3, 185828, Note_on_c, 0, 62, 0
3, 185869, Note_on_c, 0, 69, 0
3, 185906, Note_on_c, 0, 67, 30
3, 185907, Note_on_c, 0, 57, 0
3, 185917, Note_on_c, 0, 58, 0
3, 185942, Note_on_c, 0, 53, 0
3, 185975, Note_on_c, 0, 67, 0
3, 186035, Note_on_c, 0, 69, 33
3, 186098, Note_on_c, 0, 69, 0
3, 186102, Note_on_c, 0, 70, 58
3, 186157, Note_on_c, 0, 70, 0
3, 186237, Note_on_c, 0, 72, 36
3, 186272, Note_on_c, 0, 62, 30
3, 186274, Note_on_c, 0, 58, 34
3, 186307, Note_on_c, 0, 52, 22
3, 186325, Note_on_c, 0, 72, 0
3, 186332, Note_on_c, 0, 73, 48
3, 186384, Note_on_c, 0, 62, 0
3, 186434, Note_on_c, 0, 73, 0
3, 186440, Note_on_c, 0, 52, 0
3, 186447, Note_on_c, 0, 75, 45
3, 186477, Note_on_c, 0, 58, 0
3, 186493, Note_on_c, 0, 75, 0
3, 186554, Note_on_c, 0, 76, 54
3, 186628, Note_on_c, 0, 76, 0
3, 186697, Note_on_c, 0, 78, 27
3, 186740, Note_on_c, 0, 78, 0
3, 186808, Note_on_c, 0, 79, 35
3, 186842, Note_on_c, 0, 80, 36
3, 186884, Note_on_c, 0, 80, 0
3, 186900, Note_on_c, 0, 79, 0
3, 186930, Note_on_c, 0, 81, 36
3, 187006, Note_on_c, 0, 82, 57
3, 187008, Note_on_c, 0, 81, 0
3, 187068, Note_on_c, 0, 82, 0
3, 187146, Note_on_c, 0, 84, 55
3, 187171, Note_on_c, 0, 58, 42
3, 187198, Note_on_c, 0, 48, 32
3, 187255, Note_on_c, 0, 84, 0
3, 187270, Note_on_c, 0, 85, 43
3, 187284, Note_on_c, 0, 58, 0
3, 187308, Note_on_c, 0, 48, 0
3, 187449, Note_on_c, 0, 85, 0
3, 187547, Note_on_c, 0, 88, 48
3, 187631, Note_on_c, 0, 88, 0
3, 187677, Note_on_c, 0, 91, 80
3, 187847, Note_on_c, 0, 91, 0
3, 187921, Note_on_c, 0, 88, 72
3, 188049, Note_on_c, 0, 88, 0
3, 188174, Note_on_c, 0, 89, 78
3, 188191, Note_on_c, 0, 41, 33
3, 188208, Note_on_c, 0, 57, 31
3, 188338, Note_on_c, 0, 89, 0
3, 188357, Note_on_c, 0, 41, 0
3, 188360, Note_on_c, 0, 57, 0
3, 188441, Note_on_c, 0, 84, 61
3, 188561, Note_on_c, 0, 84, 0
3, 188705, Note_on_c, 0, 86, 67
3, 188851, Note_on_c, 0, 86, 0
3, 188950, Note_on_c, 0, 81, 50
3, 189065, Note_on_c, 0, 81, 0
3, 189183, Note_on_c, 0, 84, 63
3, 189190, Note_on_c, 0, 57, 34
3, 189216, Note_on_c, 0, 53, 15
3, 189330, Note_on_c, 0, 53, 0
3, 189342, Note_on_c, 0, 84, 0
3, 189364, Note_on_c, 0, 57, 0
3, 189460, Note_on_c, 0, 77, 43
3, 189520, Note_on_c, 0, 77, 0
3, 189698, Note_on_c, 0, 81, 56
3, 189832, Note_on_c, 0, 81, 0
3, 189948, Note_on_c, 0, 77, 48
3, 190058, Note_on_c, 0, 77, 0
3, 190164, Note_on_c, 0, 67, 37
3, 190185, Note_on_c, 0, 79, 55
3, 190194, Note_on_c, 0, 57, 27
3, 190198, Note_on_c, 0, 62, 30
3, 190257, Note_on_c, 0, 62, 0
3, 190277, Note_on_c, 0, 67, 0
3, 190332, Note_on_c, 0, 57, 0
3, 190355, Note_on_c, 0, 79, 0
3, 190437, Note_on_c, 0, 72, 39
3, 190559, Note_on_c, 0, 72, 0
3, 190634, Note_on_c, 0, 74, 51
3, 190771, Control_c, 0, 64, 127
3, 190833, Note_on_c, 0, 74, 0
3, 190846, Control_c, 0, 64, 0
3, 190894, Note_on_c, 0, 69, 55
3, 191010, Note_on_c, 0, 69, 0
3, 191127, Note_on_c, 0, 62, 27
3, 191131, Note_on_c, 0, 72, 50
3, 191147, Note_on_c, 0, 60, 25
3, 191154, Control_c, 0, 64, 127
3, 191155, Note_on_c, 0, 57, 32
3, 191169, Note_on_c, 0, 53, 17
3, 191616, Note_on_c, 0, 53, 0
3, 191633, Note_on_c, 0, 62, 0
3, 191664, Note_on_c, 0, 57, 0
3, 191664, Note_on_c, 0, 60, 0
3, 191970, Control_c, 0, 64, 0
3, 192035, Note_on_c, 0, 72, 0
3, 192050, Note_on_c, 0, 63, 45
3, 192057, Note_on_c, 0, 69, 32
3, 192060, Note_on_c, 0, 54, 38
3, 192098, Note_on_c, 0, 60, 26
3, 192154, Control_c, 0, 64, 127
3, 192221, Note_on_c, 0, 63, 0
3, 192226, Note_on_c, 0, 60, 0
3, 192320, Note_on_c, 0, 54, 0
3, 192454, Note_on_c, 0, 69, 0
3, 192934, Note_on_c, 0, 42, 45
3, 193019, Control_c, 0, 64, 0
3, 193214, Note_on_c, 0, 53, 39
3, 193319, Note_on_c, 0, 53, 0
3, 193324, Note_on_c, 0, 54, 43
3, 193448, Note_on_c, 0, 56, 40
3, 193459, Note_on_c, 0, 54, 0
3, 193494, Note_on_c, 0, 56, 0
3, 193537, Note_on_c, 0, 57, 62
3, 193623, Note_on_c, 0, 58, 52
3, 193651, Note_on_c, 0, 57, 0
3, 193739, Note_on_c, 0, 59, 39
3, 193743, Note_on_c, 0, 58, 0
3, 193789, Note_on_c, 0, 60, 50
3, 193804, Note_on_c, 0, 59, 0
3, 193901, Note_on_c, 0, 60, 0
3, 193953, Note_on_c, 0, 62, 43
3, 194080, Note_on_c, 0, 62, 0
3, 194278, Note_on_c, 0, 59, 64
3, 194394, Note_on_c, 0, 59, 0
3, 194448, Note_on_c, 0, 60, 49
3, 194531, Note_on_c, 0, 62, 40
3, 194583, Note_on_c, 0, 60, 0
3, 194628, Note_on_c, 0, 62, 0
3, 194633, Note_on_c, 0, 63, 60
3, 194712, Note_on_c, 0, 63, 0
3, 194786, Note_on_c, 0, 65, 60
3, 194828, Note_on_c, 0, 54, 25
3, 194890, Note_on_c, 0, 65, 0
3, 194909, Note_on_c, 0, 66, 47
3, 195025, Note_on_c, 0, 66, 0
3, 195046, Note_on_c, 0, 68, 45
3, 195089, Note_on_c, 0, 68, 0
3, 195190, Note_on_c, 0, 69, 26
3, 195299, Note_on_c, 0, 69, 0
3, 195311, Note_on_c, 0, 70, 45
3, 195434, Note_on_c, 0, 42, 0
3, 195467, Note_on_c, 0, 70, 0
3, 195469, Note_on_c, 0, 54, 0
3, 195501, Note_on_c, 0, 71, 36
3, 195589, Note_on_c, 0, 71, 0
3, 195629, Note_on_c, 0, 72, 60
3, 195804, Note_on_c, 0, 69, 68
3, 195843, Note_on_c, 0, 43, 37
3, 195859, Note_on_c, 0, 72, 0
3, 195959, Control_c, 0, 64, 127
3, 196022, Note_on_c, 0, 43, 0
3, 196108, Note_on_c, 0, 69, 0
3, 196161, Note_on_c, 0, 62, 53
3, 196277, Note_on_c, 0, 62, 0
3, 196423, Note_on_c, 0, 65, 53
3, 196574, Note_on_c, 0, 65, 0
3, 196654, Note_on_c, 0, 69, 51
3, 196809, Control_c, 0, 64, 0
3, 196810, Note_on_c, 0, 69, 0
3, 196876, Note_on_c, 0, 70, 48
3, 196879, Note_on_c, 0, 62, 33
3, 196900, Note_on_c, 0, 58, 38
3, 197069, Control_c, 0, 64, 127
3, 197101, Note_on_c, 0, 70, 0
3, 197134, Note_on_c, 0, 69, 56
3, 197160, Note_on_c, 0, 62, 0
3, 197275, Note_on_c, 0, 69, 0
3, 197357, Note_on_c, 0, 70, 60
3, 197402, Note_on_c, 0, 58, 0
3, 197482, Note_on_c, 0, 70, 0
3, 197609, Note_on_c, 0, 74, 57
3, 197753, Note_on_c, 0, 74, 0
3, 197772, Control_c, 0, 64, 0
3, 197841, Note_on_c, 0, 77, 54
3, 197844, Note_on_c, 0, 62, 24
3, 197871, Note_on_c, 0, 58, 35
3, 197913, Note_on_c, 0, 62, 0
3, 197971, Control_c, 0, 64, 127
3, 197990, Note_on_c, 0, 58, 0
3, 198037, Note_on_c, 0, 77, 0
3, 198096, Note_on_c, 0, 81, 51
3, 198253, Note_on_c, 0, 81, 0
3, 198340, Note_on_c, 0, 84, 37
3, 198556, Note_on_c, 0, 84, 0
3, 198737, Control_c, 0, 64, 0
3, 198762, Note_on_c, 0, 50, 46
3, 198897, Control_c, 0, 64, 127
3, 199002, Note_on_c, 0, 50, 0
3, 199444, Note_on_c, 0, 55, 32
3, 199676, Control_c, 0, 64, 0
3, 199680, Note_on_c, 0, 55, 0
3, 199762, Note_on_c, 0, 48, 39
3, 199768, Note_on_c, 0, 58, 36
3, 199891, Note_on_c, 0, 48, 0
3, 199984, Control_c, 0, 64, 127
3, 199985, Note_on_c, 0, 58, 0
3, 200052, Note_on_c, 0, 84, 65
3, 200151, Note_on_c, 0, 84, 0
3, 200190, Note_on_c, 0, 81, 45
3, 200250, Note_on_c, 0, 81, 0
3, 200325, Note_on_c, 0, 82, 56
3, 200462, Note_on_c, 0, 79, 47
3, 200509, Note_on_c, 0, 82, 0
3, 200553, Note_on_c, 0, 79, 0
3, 200600, Note_on_c, 0, 76, 48
3, 200613, Control_c, 0, 64, 0
3, 200642, Note_on_c, 0, 64, 32
3, 200677, Note_on_c, 0, 58, 30
3, 200697, Note_on_c, 0, 76, 0
3, 200722, Note_on_c, 0, 64, 0
3, 200817, Note_on_c, 0, 58, 0
3, 200827, Note_on_c, 0, 75, 48
3, 200934, Note_on_c, 0, 75, 0
3, 200969, Note_on_c, 0, 74, 46
3, 201094, Note_on_c, 0, 74, 0
3, 201119, Note_on_c, 0, 73, 40
3, 201144, Control_c, 0, 64, 127
3, 201277, Note_on_c, 0, 73, 0
3, 201445, Note_on_c, 0, 70, 52
3, 201600, Control_c, 0, 64, 0
3, 201600, Note_on_c, 0, 67, 58
3, 201691, Note_on_c, 0, 70, 0
3, 201920, Note_on_c, 0, 48, 68
3, 202080, Note_on_c, 0, 49, 50
3, 202104, Note_on_c, 0, 48, 0
3, 202200, Note_on_c, 0, 49, 0
3, 202240, Note_on_c, 0, 50, 55
3, 202377, Note_on_c, 0, 50, 0
3, 202400, Note_on_c, 0, 51, 49
3, 202560, Note_on_c, 0, 52, 52
3, 202625, Note_on_c, 0, 52, 52
3, 202627, Note_on_c, 0, 51, 0
3, 202678, Note_on_c, 0, 52, 0
3, 202739, Note_on_c, 0, 67, 0
3, 202745, Note_on_c, 0, 52, 0
3, 202772, Note_on_c, 0, 53, 52
3, 202880, Note_on_c, 0, 54, 55
3, 202892, Note_on_c, 0, 53, 0
3, 202922, Note_on_c, 0, 54, 0
3, 203040, Note_on_c, 0, 55, 27
3, 203191, Note_on_c, 0, 55, 0
3, 203200, Note_on_c, 0, 56, 31
3, 203305, Note_on_c, 0, 58, 52
3, 203369, Note_on_c, 0, 56, 0
3, 203520, Note_on_c, 0, 41, 51
3, 203520, Note_on_c, 0, 57, 64
3, 203575, Note_on_c, 0, 58, 0
3, 203836, Control_c, 0, 64, 127
3, 204089, Note_on_c, 0, 41, 0
3, 204125, Note_on_c, 0, 57, 0
3, 204171, Note_on_c, 0, 48, 53
3, 204531, Note_on_c, 0, 48, 0
3, 204583, Note_on_c, 0, 69, 38
3, 204590, Note_on_c, 0, 57, 50
3, 204594, Note_on_c, 0, 65, 41
3, 204616, Note_on_c, 0, 60, 26
3, 204675, Note_on_c, 0, 60, 0
3, 204716, Note_on_c, 0, 69, 0
3, 204725, Note_on_c, 0, 65, 0
3, 204753, Note_on_c, 0, 57, 0
3, 205034, Control_c, 0, 64, 0
3, 205131, Note_on_c, 0, 58, 71
3, 205142, Note_on_c, 0, 74, 74
3, 205145, Note_on_c, 0, 68, 83
3, 205152, Note_on_c, 0, 64, 83
3, 205220, Control_c, 0, 64, 127
3, 205406, Note_on_c, 0, 74, 0
3, 205467, Control_c, 0, 64, 0
3, 205476, Note_on_c, 0, 64, 0
3, 205498, Note_on_c, 0, 58, 0
3, 205513, Note_on_c, 0, 68, 0
3, 205567, Note_on_c, 0, 72, 60
3, 205581, Note_on_c, 0, 67, 68
3, 205582, Note_on_c, 0, 57, 67
3, 205585, Note_on_c, 0, 62, 62
3, 205652, Control_c, 0, 64, 127
3, 205734, Note_on_c, 0, 72, 0
3, 205748, Note_on_c, 0, 67, 0
3, 205825, Note_on_c, 0, 62, 0
3, 206123, Note_on_c, 0, 57, 0
3, 206135, Note_on_c, 0, 67, 57
3, 206155, Note_on_c, 0, 53, 42
3, 206161, Note_on_c, 0, 60, 47
3, 206314, Note_on_c, 0, 60, 0
3, 206334, Note_on_c, 0, 67, 0
3, 206430, Control_c, 0, 64, 0
3, 206504, Note_on_c, 0, 64, 62
3, 206542, Note_on_c, 0, 60, 46
3, 206544, Note_on_c, 0, 50, 35
3, 206548, Note_on_c, 0, 57, 49
3, 206576, Note_on_c, 0, 53, 0
3, 206664, Control_c, 0, 64, 127
3, 206773, Note_on_c, 0, 50, 0
3, 206931, Note_on_c, 0, 64, 0
3, 206954, Note_on_c, 0, 57, 0
3, 206980, Note_on_c, 0, 60, 0
3, 207105, Note_on_c, 0, 46, 33
3, 207303, Note_on_c, 0, 46, 0
3, 207331, Control_c, 0, 64, 0
3, 207400, Note_on_c, 0, 61, 42
3, 207419, Note_on_c, 0, 55, 36
3, 207424, Note_on_c, 0, 65, 49
3, 207430, Note_on_c, 0, 39, 40
3, 207444, Note_on_c, 0, 46, 31
3, 207541, Control_c, 0, 64, 127
3, 207896, Note_on_c, 0, 55, 0
3, 207912, Note_on_c, 0, 46, 0
3, 208063, Note_on_c, 0, 46, 57
3, 208109, Note_on_c, 0, 61, 0
3, 208147, Note_on_c, 0, 39, 0
3, 208223, Note_on_c, 0, 65, 0
3, 208369, Note_on_c, 0, 46, 0
3, 208381, Control_c, 0, 64, 0
3, 208390, Note_on_c, 0, 61, 39
3, 208402, Note_on_c, 0, 58, 57
3, 208406, Note_on_c, 0, 55, 39
3, 208480, Control_c, 0, 64, 127
3, 208508, Note_on_c, 0, 55, 0
3, 208552, Note_on_c, 0, 58, 0
3, 208570, Note_on_c, 0, 61, 0
3, 208949, Control_c, 0, 64, 0
3, 209007, Note_on_c, 0, 60, 73
3, 209018, Note_on_c, 0, 72, 69
3, 209019, Note_on_c, 0, 61, 79
3, 209021, Note_on_c, 0, 65, 76
3, 209037, Note_on_c, 0, 69, 50
3, 209255, Note_on_c, 0, 61, 0
3, 209261, Note_on_c, 0, 72, 0
3, 209309, Note_on_c, 0, 69, 0
3, 209357, Control_c, 0, 64, 127
3, 209378, Note_on_c, 0, 61, 54
3, 209394, Note_on_c, 0, 58, 50
3, 209420, Note_on_c, 0, 70, 37
3, 209430, Note_on_c, 0, 60, 0
3, 209454, Note_on_c, 0, 65, 0
3, 209481, Note_on_c, 0, 61, 0
3, 209552, Note_on_c, 0, 70, 0
3, 210007, Note_on_c, 0, 75, 71
3, 210011, Control_c, 0, 64, 0
3, 210014, Note_on_c, 0, 67, 72
3, 210016, Note_on_c, 0, 63, 71
3, 210021, Note_on_c, 0, 70, 59
3, 210023, Note_on_c, 0, 64, 66
3, 210352, Note_on_c, 0, 58, 0
3, 210360, Control_c, 0, 64, 127
3, 210466, Note_on_c, 0, 63, 0
3, 210494, Note_on_c, 0, 64, 0
3, 210519, Note_on_c, 0, 67, 0
3, 210573, Note_on_c, 0, 75, 0
3, 210582, Note_on_c, 0, 70, 0
3, 210652, Note_on_c, 0, 61, 43
3, 210663, Note_on_c, 0, 73, 44
3, 210683, Note_on_c, 0, 70, 50
3, 210705, Note_on_c, 0, 67, 47
3, 210950, Note_on_c, 0, 67, 0
3, 210978, Note_on_c, 0, 73, 0
3, 211010, Note_on_c, 0, 70, 0
3, 211071, Note_on_c, 0, 61, 0
3, 211249, Control_c, 0, 64, 0
3, 211279, Note_on_c, 0, 64, 54
3, 211295, Note_on_c, 0, 50, 29
3, 211297, Note_on_c, 0, 74, 38
3, 211305, Note_on_c, 0, 67, 38
3, 211313, Note_on_c, 0, 69, 35
3, 211316, Note_on_c, 0, 60, 24
3, 211387, Note_on_c, 0, 64, 0
3, 211444, Note_on_c, 0, 50, 0
3, 211450, Note_on_c, 0, 69, 0
3, 211464, Note_on_c, 0, 67, 0
3, 211472, Note_on_c, 0, 64, 34
3, 211526, Note_on_c, 0, 60, 0
3, 211597, Note_on_c, 0, 64, 0
3, 211608, Note_on_c, 0, 67, 24
3, 211643, Control_c, 0, 64, 127
3, 211687, Note_on_c, 0, 67, 0
3, 211698, Note_on_c, 0, 64, 37
3, 211826, Note_on_c, 0, 67, 26
3, 211832, Note_on_c, 0, 64, 0
3, 211868, Note_on_c, 0, 69, 19
3, 211923, Note_on_c, 0, 64, 35
3, 211926, Note_on_c, 0, 69, 0
3, 211956, Note_on_c, 0, 67, 0
3, 212059, Note_on_c, 0, 64, 0
3, 212073, Note_on_c, 0, 67, 22
3, 212157, Note_on_c, 0, 67, 0
3, 212161, Note_on_c, 0, 64, 53
3, 212163, Control_c, 0, 64, 0
3, 212258, Note_on_c, 0, 62, 55
3, 212284, Note_on_c, 0, 64, 0
3, 212287, Note_on_c, 0, 67, 20
3, 212377, Note_on_c, 0, 67, 0
3, 212391, Note_on_c, 0, 64, 51
3, 212501, Note_on_c, 0, 64, 0
3, 212534, Note_on_c, 0, 67, 24
3, 212549, Note_on_c, 0, 69, 20
3, 212607, Note_on_c, 0, 67, 0
3, 212612, Note_on_c, 0, 64, 40
3, 212616, Note_on_c, 0, 69, 0
3, 212734, Note_on_c, 0, 64, 0
3, 212848, Note_on_c, 0, 64, 47
3, 212970, Note_on_c, 0, 62, 0
3, 212985, Note_on_c, 0, 64, 0
3, 212991, Note_on_c, 0, 67, 25
3, 213000, Note_on_c, 0, 69, 24
3, 213106, Note_on_c, 0, 67, 0
3, 213114, Note_on_c, 0, 64, 36
3, 213208, Note_on_c, 0, 60, 51
3, 213230, Note_on_c, 0, 67, 16
3, 213275, Control_c, 0, 64, 127
3, 213418, Note_on_c, 0, 60, 0
3, 213722, Note_on_c, 0, 67, 0
3, 213727, Note_on_c, 0, 69, 0
3, 213728, Note_on_c, 0, 74, 0
3, 213772, Note_on_c, 0, 64, 0
3, 213829, Note_on_c, 0, 50, 37
3, 214101, Control_c, 0, 64, 0
3, 214169, Note_on_c, 0, 60, 33
3, 214170, Note_on_c, 0, 56, 44
3, 214183, Note_on_c, 0, 63, 30
3, 214188, Note_on_c, 0, 66, 35
3, 214192, Note_on_c, 0, 68, 30
3, 214386, Control_c, 0, 64, 127
3, 214634, Note_on_c, 0, 63, 0
3, 214647, Note_on_c, 0, 60, 0
3, 214651, Note_on_c, 0, 68, 0
3, 214672, Note_on_c, 0, 66, 0
3, 214783, Note_on_c, 0, 56, 0
3, 214822, Note_on_c, 0, 60, 43
3, 214825, Note_on_c, 0, 63, 35
3, 214827, Note_on_c, 0, 66, 32
3, 214836, Note_on_c, 0, 69, 32
3, 214844, Note_on_c, 0, 57, 50
3, 214855, Control_c, 0, 64, 0
3, 215088, Control_c, 0, 64, 127
3, 215139, Note_on_c, 0, 57, 0
3, 215246, Note_on_c, 0, 50, 0
3, 215285, Note_on_c, 0, 69, 0
3, 215322, Note_on_c, 0, 66, 0
3, 215353, Note_on_c, 0, 63, 0
3, 215372, Note_on_c, 0, 60, 0
3, 215782, Note_on_c, 0, 55, 52
3, 216065, Control_c, 0, 64, 0
3, 216097, Note_on_c, 0, 55, 0
3, 216142, Note_on_c, 0, 54, 55
3, 216238, Control_c, 0, 64, 127
3, 216501, Note_on_c, 0, 54, 0
3, 216685, Note_on_c, 0, 26, 43
3, 216775, Note_on_c, 0, 26, 0
3, 217027, Control_c, 0, 64, 0
3, 217078, Note_on_c, 0, 63, 53
3, 217079, Note_on_c, 0, 69, 62
3, 217089, Control_c, 0, 64, 127
3, 217091, Note_on_c, 0, 66, 43
3, 217093, Note_on_c, 0, 60, 51
3, 217285, Note_on_c, 0, 60, 0
3, 217322, Note_on_c, 0, 63, 0
3, 217375, Note_on_c, 0, 66, 0
3, 217401, Note_on_c, 0, 69, 0
3, 217678, Note_on_c, 0, 54, 44
3, 217685, Note_on_c, 0, 60, 45
3, 217738, Note_on_c, 0, 60, 0
3, 217796, Note_on_c, 0, 54, 0
3, 217930, Control_c, 0, 64, 0
3, 218018, Note_on_c, 0, 73, 40
3, 218020, Note_on_c, 0, 85, 53
3, 218040, Note_on_c, 0, 80, 43
3, 218173, Note_on_c, 0, 73, 0
3, 218201, Note_on_c, 0, 80, 0
3, 218263, Control_c, 0, 64, 127
3, 218269, Note_on_c, 0, 85, 0
3, 218315, Note_on_c, 0, 86, 30
3, 218400, Control_c, 0, 64, 0
3, 218405, Note_on_c, 0, 86, 0
3, 218548, Control_c, 0, 64, 127
3, 218638, Note_on_c, 0, 91, 25
3, 218639, Note_on_c, 0, 89, 26
3, 218652, Note_on_c, 0, 44, 49
3, 218679, Note_on_c, 0, 91, 0
3, 218689, Note_on_c, 0, 89, 0
3, 218826, Note_on_c, 0, 44, 0
3, 218905, Control_c, 0, 64, 0
3, 218958, Note_on_c, 0, 43, 47
3, 218995, Note_on_c, 0, 96, 57
3, 219006, Note_on_c, 0, 84, 54
3, 219010, Note_on_c, 0, 90, 18
3, 219045, Note_on_c, 0, 93, 46
3, 219065, Note_on_c, 0, 43, 0
3, 219076, Note_on_c, 0, 89, 24
3, 219114, Note_on_c, 0, 84, 0
3, 219127, Note_on_c, 0, 89, 0
3, 219139, Note_on_c, 0, 90, 0
3, 219167, Note_on_c, 0, 96, 0
3, 219175, Note_on_c, 0, 93, 0
3, 219268, Note_on_c, 0, 96, 36
3, 219270, Note_on_c, 0, 84, 37
3, 219297, Note_on_c, 0, 93, 40
3, 219298, Note_on_c, 0, 89, 49
3, 219398, Note_on_c, 0, 84, 0
3, 219405, Note_on_c, 0, 96, 0
3, 219412, Note_on_c, 0, 89, 0
3, 219456, Note_on_c, 0, 93, 0
3, 219497, Control_c, 0, 64, 127
3, 219831, Control_c, 0, 64, 0
3, 219862, Note_on_c, 0, 95, 66
3, 219868, Note_on_c, 0, 62, 45
3, 219870, Note_on_c, 0, 58, 51
3, 219871, Note_on_c, 0, 83, 54
3, 219892, Note_on_c, 0, 89, 40
3, 219894, Note_on_c, 0, 92, 35
3, 219930, Note_on_c, 0, 62, 0
3, 219956, Note_on_c, 0, 92, 0
3, 219984, Note_on_c, 0, 83, 0
3, 219985, Note_on_c, 0, 89, 0
3, 220026, Note_on_c, 0, 58, 0
3, 220042, Note_on_c, 0, 95, 0
3, 220136, Note_on_c, 0, 95, 58
3, 220163, Note_on_c, 0, 83, 34
3, 220178, Note_on_c, 0, 92, 30
3, 220182, Note_on_c, 0, 89, 41
3, 220260, Note_on_c, 0, 95, 0
3, 220274, Note_on_c, 0, 83, 0
3, 220325, Note_on_c, 0, 89, 0
3, 220399, Control_c, 0, 64, 127
3, 220417, Note_on_c, 0, 92, 0
3, 220466, Note_on_c, 0, 94, 56
3, 220479, Note_on_c, 0, 82, 46
3, 220489, Note_on_c, 0, 89, 46
3, 220539, Note_on_c, 0, 82, 0
3, 220550, Note_on_c, 0, 89, 0
3, 220580, Note_on_c, 0, 94, 0
3, 220596, Control_c, 0, 64, 0
3, 220774, Note_on_c, 0, 43, 20
3, 220795, Control_c, 0, 64, 127
3, 220971, Note_on_c, 0, 43, 0
3, 221720, Control_c, 0, 64, 0
3, 221791, Note_on_c, 0, 62, 47
3, 221796, Note_on_c, 0, 58, 55
3, 221826, Note_on_c, 0, 53, 26
3, 221891, Note_on_c, 0, 62, 0
3, 221894, Control_c, 0, 64, 127
3, 221939, Note_on_c, 0, 53, 0
3, 221947, Note_on_c, 0, 58, 0
3, 222338, Control_c, 0, 64, 0
3, 222411, Note_on_c, 0, 47, 51
3, 222427, Note_on_c, 0, 57, 68
3, 222474, Control_c, 0, 64, 127
3, 222683, Note_on_c, 0, 47, 0
3, 222686, Note_on_c, 0, 57, 0
3, 222771, Control_c, 0, 64, 0
3, 222797, Note_on_c, 0, 61, 46
3, 222819, Note_on_c, 0, 65, 57
3, 222840, Note_on_c, 0, 56, 57
3, 222842, Note_on_c, 0, 46, 53
3, 222980, Control_c, 0, 64, 127
3, 223238, Note_on_c, 0, 46, 0
3, 223272, Note_on_c, 0, 56, 0
3, 223450, Note_on_c, 0, 61, 0
3, 223532, Note_on_c, 0, 65, 0
3, 223787, Note_on_c, 0, 65, 55
3, 223789, Note_on_c, 0, 60, 36
3, 223790, Note_on_c, 0, 61, 48
3, 223853, Note_on_c, 0, 58, 29
3, 223925, Note_on_c, 0, 58, 0
3, 223935, Note_on_c, 0, 60, 0
3, 224310, Note_on_c, 0, 65, 0
3, 224340, Note_on_c, 0, 61, 0
3, 224387, Note_on_c, 0, 46, 50
3, 224475, Note_on_c, 0, 46, 0
3, 224722, Note_on_c, 0, 57, 68
3, 224737, Note_on_c, 0, 69, 69
3, 224746, Control_c, 0, 64, 0
3, 224750, Note_on_c, 0, 58, 79
3, 224751, Note_on_c, 0, 61, 64
3, 224759, Note_on_c, 0, 64, 62
3, 224980, Control_c, 0, 64, 127
3, 225064, Note_on_c, 0, 69, 0
3, 225163, Note_on_c, 0, 58, 0
3, 225170, Note_on_c, 0, 57, 0
3, 225241, Note_on_c, 0, 61, 0
3, 225263, Note_on_c, 0, 64, 0
3, 225347, Note_on_c, 0, 68, 58
3, 225364, Note_on_c, 0, 56, 72
3, 225367, Note_on_c, 0, 61, 60
3, 225373, Note_on_c, 0, 58, 62
3, 225385, Note_on_c, 0, 64, 58
3, 225608, Note_on_c, 0, 58, 0
3, 225650, Note_on_c, 0, 56, 0
3, 225734, Control_c, 0, 64, 0
3, 225770, Note_on_c, 0, 46, 71
3, 225792, Note_on_c, 0, 68, 0
3, 226067, Control_c, 0, 64, 127
3, 226074, Note_on_c, 0, 66, 14
3, 226103, Note_on_c, 0, 61, 0
3, 226223, Note_on_c, 0, 66, 0
3, 226225, Note_on_c, 0, 46, 0
3, 226303, Control_c, 0, 64, 0
3, 226334, Note_on_c, 0, 60, 66
3, 226340, Note_on_c, 0, 45, 71
3, 226342, Note_on_c, 0, 55, 55
3, 226463, Control_c, 0, 64, 127
3, 226505, Note_on_c, 0, 55, 0
3, 226569, Note_on_c, 0, 60, 0
3, 226644, Note_on_c, 0, 45, 0
3, 226678, Note_on_c, 0, 64, 0
3, 227270, Note_on_c, 0, 78, 75
3, 227273, Note_on_c, 0, 66, 87
3, 227290, Note_on_c, 0, 72, 64
3, 227521, Note_on_c, 0, 66, 0
3, 227526, Note_on_c, 0, 78, 0
3, 227546, Note_on_c, 0, 72, 0
3, 227561, Control_c, 0, 64, 0
3, 227578, Note_on_c, 0, 64, 53
3, 227593, Note_on_c, 0, 55, 27
3, 227623, Note_on_c, 0, 60, 24
3, 227627, Note_on_c, 0, 57, 34
3, 227631, Note_on_c, 0, 72, 18
3, 227634, Note_on_c, 0, 67, 47
3, 227635, Note_on_c, 0, 64, 0
3, 227642, Note_on_c, 0, 76, 1
3, 227643, Note_on_c, 0, 79, 42
3, 227678, Note_on_c, 0, 77, 25
3, 227679, Note_on_c, 0, 60, 0
3, 227727, Note_on_c, 0, 55, 0
3, 227748, Note_on_c, 0, 57, 0
3, 227772, Note_on_c, 0, 79, 0
3, 227802, Note_on_c, 0, 77, 0
3, 227812, Note_on_c, 0, 67, 0
3, 227833, Note_on_c, 0, 72, 0
3, 227853, Note_on_c, 0, 76, 0
3, 227916, Note_on_c, 0, 67, 45
3, 227917, Note_on_c, 0, 79, 55
3, 227937, Note_on_c, 0, 72, 37
3, 227955, Note_on_c, 0, 76, 24
3, 227963, Note_on_c, 0, 77, 28
3, 228018, Note_on_c, 0, 79, 0
3, 228023, Note_on_c, 0, 67, 0
3, 228093, Note_on_c, 0, 77, 0
3, 228160, Note_on_c, 0, 76, 0
3, 228214, Note_on_c, 0, 78, 50
3, 228214, Note_on_c, 0, 66, 54
3, 228243, Note_on_c, 0, 76, 15
3, 228296, Note_on_c, 0, 77, 17
3, 228434, Note_on_c, 0, 45, 46
3, 228460, Note_on_c, 0, 72, 0
3, 228464, Note_on_c, 0, 55, 22
3, 228473, Note_on_c, 0, 78, 0
3, 228482, Note_on_c, 0, 66, 0
3, 228518, Note_on_c, 0, 72, 19
3, 228526, Note_on_c, 0, 79, 46
3, 228528, Note_on_c, 0, 67, 47
3, 228565, Note_on_c, 0, 45, 0
3, 228628, Note_on_c, 0, 55, 0
3, 228661, Note_on_c, 0, 79, 0
3, 228680, Note_on_c, 0, 67, 0
3, 228723, Note_on_c, 0, 77, 0
3, 228740, Note_on_c, 0, 72, 0
3, 228789, Note_on_c, 0, 79, 53
3, 228795, Note_on_c, 0, 67, 48
3, 228806, Note_on_c, 0, 72, 18
3, 228830, Note_on_c, 0, 77, 24
3, 228932, Note_on_c, 0, 79, 0
3, 228935, Note_on_c, 0, 67, 0
3, 228970, Note_on_c, 0, 77, 0
3, 229013, Note_on_c, 0, 76, 0
3, 229044, Note_on_c, 0, 72, 0
3, 229097, Note_on_c, 0, 78, 56
3, 229098, Note_on_c, 0, 72, 19
3, 229100, Note_on_c, 0, 66, 59
3, 229326, Note_on_c, 0, 78, 0
3, 229341, Note_on_c, 0, 66, 0
3, 229362, Note_on_c, 0, 64, 39
3, 229392, Note_on_c, 0, 60, 29
3, 229405, Note_on_c, 0, 76, 1
3, 229406, Note_on_c, 0, 79, 44
3, 229408, Note_on_c, 0, 67, 40
3, 229422, Note_on_c, 0, 77, 1
3, 229434, Note_on_c, 0, 57, 24
3, 229464, Note_on_c, 0, 64, 0
3, 229552, Note_on_c, 0, 67, 0
3, 229556, Note_on_c, 0, 60, 0
3, 229564, Note_on_c, 0, 79, 0
3, 229588, Note_on_c, 0, 77, 0
3, 229610, Note_on_c, 0, 72, 0
3, 229650, Note_on_c, 0, 57, 0
3, 229660, Note_on_c, 0, 79, 31
3, 229674, Note_on_c, 0, 67, 47
3, 229684, Note_on_c, 0, 72, 31
3, 229713, Note_on_c, 0, 77, 28
3, 229732, Note_on_c, 0, 76, 0
3, 229759, Note_on_c, 0, 67, 0
3, 229781, Note_on_c, 0, 79, 0
3, 229860, Note_on_c, 0, 77, 0
3, 229899, Note_on_c, 0, 72, 0
3, 229933, Control_c, 0, 64, 127
3, 229967, Note_on_c, 0, 78, 63
3, 229977, Note_on_c, 0, 72, 27
3, 229988, Note_on_c, 0, 66, 43
3, 230184, Note_on_c, 0, 72, 0
3, 230211, Note_on_c, 0, 78, 0
3, 230221, Note_on_c, 0, 66, 0
3, 230328, Control_c, 0, 64, 0
3, 230335, Note_on_c, 0, 44, 43
3, 230337, Note_on_c, 0, 71, 45
3, 230349, Note_on_c, 0, 77, 36
3, 230353, Note_on_c, 0, 65, 29
3, 230365, Note_on_c, 0, 74, 45
3, 230370, Note_on_c, 0, 53, 25
3, 230430, Note_on_c, 0, 65, 0
3, 230472, Note_on_c, 0, 44, 0
3, 230483, Note_on_c, 0, 53, 0
3, 230489, Note_on_c, 0, 77, 0
3, 230500, Note_on_c, 0, 71, 0
3, 230512, Note_on_c, 0, 74, 0
3, 230524, Note_on_c, 0, 65, 40
3, 230626, Note_on_c, 0, 65, 0
3, 230635, Note_on_c, 0, 71, 38
3, 230652, Note_on_c, 0, 74, 30
3, 230747, Note_on_c, 0, 74, 0
3, 230754, Note_on_c, 0, 65, 36
3, 230757, Note_on_c, 0, 71, 0
3, 230863, Note_on_c, 0, 65, 0
3, 230882, Note_on_c, 0, 71, 42
3, 230908, Note_on_c, 0, 74, 31
3, 230986, Note_on_c, 0, 65, 37
3, 230991, Note_on_c, 0, 74, 0
3, 230995, Note_on_c, 0, 71, 0
3, 231121, Note_on_c, 0, 71, 51
3, 231123, Note_on_c, 0, 65, 0
3, 231125, Note_on_c, 0, 77, 8
3, 231139, Note_on_c, 0, 74, 46
3, 231232, Note_on_c, 0, 65, 40
3, 231245, Note_on_c, 0, 77, 0
3, 231246, Note_on_c, 0, 71, 0
3, 231272, Note_on_c, 0, 74, 0
3, 231301, Note_on_c, 0, 64, 73
3, 231367, Note_on_c, 0, 65, 0
3, 231373, Note_on_c, 0, 71, 46
3, 231396, Note_on_c, 0, 74, 42
3, 231459, Note_on_c, 0, 74, 0
3, 231485, Note_on_c, 0, 65, 50
3, 231495, Note_on_c, 0, 71, 0
3, 231611, Note_on_c, 0, 65, 0
3, 231622, Note_on_c, 0, 71, 44
3, 231635, Note_on_c, 0, 74, 38
3, 231703, Note_on_c, 0, 74, 0
3, 231704, Note_on_c, 0, 71, 0
3, 231724, Note_on_c, 0, 65, 53
3, 231870, Note_on_c, 0, 71, 39
3, 231872, Note_on_c, 0, 65, 0
3, 231886, Note_on_c, 0, 74, 41
3, 231963, Note_on_c, 0, 74, 0
3, 231964, Note_on_c, 0, 71, 0
3, 231976, Note_on_c, 0, 65, 55
3, 232111, Note_on_c, 0, 71, 44
3, 232122, Note_on_c, 0, 65, 0
3, 232124, Note_on_c, 0, 74, 40
3, 232134, Note_on_c, 0, 64, 0
3, 232138, Note_on_c, 0, 77, 5
3, 232166, Note_on_c, 0, 58, 33
3, 232170, Note_on_c, 0, 57, 24
3, 232243, Note_on_c, 0, 65, 46
3, 232252, Note_on_c, 0, 57, 0
3, 232257, Note_on_c, 0, 71, 0
3, 232267, Note_on_c, 0, 61, 32
3, 232277, Note_on_c, 0, 74, 0
3, 232298, Note_on_c, 0, 62, 57
3, 232308, Note_on_c, 0, 61, 0
3, 232328, Note_on_c, 0, 58, 0
3, 232377, Note_on_c, 0, 71, 47
3, 232385, Note_on_c, 0, 65, 0
3, 232404, Note_on_c, 0, 74, 36
3, 232506, Note_on_c, 0, 71, 0
3, 232507, Note_on_c, 0, 65, 36
3, 232510, Note_on_c, 0, 74, 0
3, 232642, Note_on_c, 0, 71, 46
3, 232643, Note_on_c, 0, 65, 0
3, 232665, Note_on_c, 0, 74, 36
3, 232734, Note_on_c, 0, 74, 0
3, 232745, Note_on_c, 0, 71, 0
3, 232753, Note_on_c, 0, 77, 0
3, 232761, Note_on_c, 0, 65, 40
3, 232883, Note_on_c, 0, 71, 36
3, 232884, Note_on_c, 0, 65, 0
3, 232884, Note_on_c, 0, 77, 9
3, 232902, Note_on_c, 0, 74, 30
3, 233005, Note_on_c, 0, 65, 39
3, 233008, Note_on_c, 0, 71, 0
3, 233011, Note_on_c, 0, 74, 0
3, 233141, Note_on_c, 0, 71, 44
3, 233146, Note_on_c, 0, 65, 0
3, 233160, Note_on_c, 0, 74, 36
3, 233248, Note_on_c, 0, 74, 0
3, 233258, Note_on_c, 0, 65, 44
3, 233261, Note_on_c, 0, 59, 47
3, 233263, Note_on_c, 0, 62, 0
3, 233264, Note_on_c, 0, 71, 0
3, 233390, Note_on_c, 0, 71, 36
3, 233404, Note_on_c, 0, 74, 32
3, 233406, Note_on_c, 0, 65, 0
3, 233500, Note_on_c, 0, 71, 0
3, 233503, Note_on_c, 0, 65, 34
3, 233516, Note_on_c, 0, 74, 0
3, 233563, Control_c, 0, 64, 127
3, 233610, Note_on_c, 0, 77, 0
3, 233662, Note_on_c, 0, 71, 35
3, 233673, Note_on_c, 0, 65, 0
3, 233674, Note_on_c, 0, 74, 32
3, 233694, Note_on_c, 0, 77, 10
3, 233843, Note_on_c, 0, 74, 0
3, 233849, Note_on_c, 0, 77, 0
3, 233852, Note_on_c, 0, 65, 35
3, 233863, Note_on_c, 0, 59, 0
3, 233912, Note_on_c, 0, 71, 0
3, 234036, Note_on_c, 0, 56, 18
3, 234095, Note_on_c, 0, 58, 53
3, 234104, Note_on_c, 0, 65, 0
3, 234135, Note_on_c, 0, 56, 0
3, 234200, Note_on_c, 0, 62, 43
3, 234224, Note_on_c, 0, 65, 42
3, 234230, Control_c, 0, 64, 0
3, 234231, Note_on_c, 0, 74, 51
3, 234240, Note_on_c, 0, 70, 35
3, 234258, Note_on_c, 0, 67, 46
3, 234261, Note_on_c, 0, 58, 0
3, 234327, Note_on_c, 0, 62, 0
3, 234490, Control_c, 0, 64, 127
3, 234836, Note_on_c, 0, 67, 0
3, 234843, Note_on_c, 0, 74, 0
3, 234854, Note_on_c, 0, 43, 40
3, 234858, Note_on_c, 0, 70, 0
3, 234889, Note_on_c, 0, 65, 0
3, 235235, Note_on_c, 0, 50, 48
3, 235244, Control_c, 0, 64, 0
3, 235464, Control_c, 0, 64, 127
3, 235882, Note_on_c, 0, 53, 32
3, 235989, Note_on_c, 0, 53, 0
3, 236216, Note_on_c, 0, 53, 39
3, 236231, Control_c, 0, 64, 0
3, 236232, Note_on_c, 0, 62, 50
3, 236245, Note_on_c, 0, 50, 0
3, 236248, Note_on_c, 0, 58, 49
3, 236356, Note_on_c, 0, 53, 0
3, 236465, Note_on_c, 0, 43, 0
3, 236532, Note_on_c, 0, 45, 44
3, 236534, Note_on_c, 0, 57, 64
3, 236566, Note_on_c, 0, 58, 0
3, 236699, Note_on_c, 0, 62, 0
3, 236749, Note_on_c, 0, 57, 0
3, 236803, Note_on_c, 0, 46, 52
3, 236826, Note_on_c, 0, 58, 55
3, 236872, Note_on_c, 0, 45, 0
3, 237015, Note_on_c, 0, 58, 0
3, 237087, Note_on_c, 0, 50, 32
3, 237169, Note_on_c, 0, 62, 25
3, 237323, Note_on_c, 0, 50, 0
3, 237325, Note_on_c, 0, 62, 0
3, 237405, Note_on_c, 0, 46, 0
3, 237454, Note_on_c, 0, 53, 32
3, 237460, Note_on_c, 0, 65, 53
3, 237640, Note_on_c, 0, 53, 0
3, 237728, Note_on_c, 0, 65, 0
3, 237753, Note_on_c, 0, 57, 46
3, 237761, Note_on_c, 0, 69, 69
3, 238011, Note_on_c, 0, 57, 0
3, 238024, Note_on_c, 0, 69, 0
3, 238074, Note_on_c, 0, 66, 36
3, 238092, Note_on_c, 0, 55, 26
3, 238306, Note_on_c, 0, 66, 0
3, 238351, Note_on_c, 0, 55, 0
3, 238363, Note_on_c, 0, 67, 50
3, 238389, Note_on_c, 0, 57, 54
3, 238547, Note_on_c, 0, 57, 0
3, 238597, Note_on_c, 0, 67, 0
3, 238667, Note_on_c, 0, 69, 54
3, 238695, Note_on_c, 0, 48, 58
3, 238697, Note_on_c, 0, 58, 53
3, 238882, Note_on_c, 0, 48, 0
3, 238936, Control_c, 0, 64, 127
3, 238948, Note_on_c, 0, 69, 0
3, 238963, Note_on_c, 0, 58, 0
3, 239006, Note_on_c, 0, 70, 53
3, 239243, Note_on_c, 0, 70, 0
3, 239329, Note_on_c, 0, 72, 58
3, 239350, Note_on_c, 0, 64, 71
3, 239361, Note_on_c, 0, 58, 57
3, 239460, Note_on_c, 0, 64, 0
3, 239466, Control_c, 0, 64, 0
3, 239535, Note_on_c, 0, 58, 0
3, 239648, Note_on_c, 0, 73, 47
3, 239704, Note_on_c, 0, 72, 0
3, 239907, Note_on_c, 0, 73, 0
3, 239946, Note_on_c, 0, 58, 60
3, 239951, Note_on_c, 0, 48, 66
3, 239972, Note_on_c, 0, 75, 64
3, 240034, Control_c, 0, 64, 127
3, 240199, Note_on_c, 0, 58, 0
3, 240241, Note_on_c, 0, 75, 0
3, 240284, Note_on_c, 0, 48, 0
3, 240301, Note_on_c, 0, 76, 51
3, 240529, Control_c, 0, 64, 0
3, 240543, Note_on_c, 0, 76, 0
3, 240576, Note_on_c, 0, 56, 69
3, 240579, Note_on_c, 0, 46, 70
3, 240608, Note_on_c, 0, 78, 70
3, 240858, Note_on_c, 0, 78, 0
3, 240874, Control_c, 0, 64, 127
3, 240922, Note_on_c, 0, 79, 44
3, 241097, Note_on_c, 0, 79, 0
3, 241145, Note_on_c, 0, 46, 0
3, 241220, Note_on_c, 0, 46, 46
3, 241241, Note_on_c, 0, 81, 74
3, 241402, Note_on_c, 0, 81, 0
3, 241455, Note_on_c, 0, 56, 0
3, 241553, Note_on_c, 0, 82, 61
3, 241606, Note_on_c, 0, 46, 0
3, 241775, Control_c, 0, 64, 0
3, 241778, Note_on_c, 0, 82, 0
3, 241855, Note_on_c, 0, 45, 50
3, 241862, Note_on_c, 0, 55, 37
3, 241872, Note_on_c, 0, 72, 47
3, 241874, Note_on_c, 0, 84, 37
3, 241924, Note_on_c, 0, 79, 32
3, 241935, Note_on_c, 0, 81, 22
3, 241977, Note_on_c, 0, 45, 0
3, 242016, Note_on_c, 0, 81, 0
3, 242049, Note_on_c, 0, 72, 0
3, 242059, Note_on_c, 0, 84, 0
3, 242063, Note_on_c, 0, 55, 0
3, 242066, Note_on_c, 0, 79, 0
3, 242158, Control_c, 0, 64, 127
3, 242172, Note_on_c, 0, 72, 17
3, 242206, Note_on_c, 0, 79, 28
3, 242344, Note_on_c, 0, 79, 0
3, 242346, Note_on_c, 0, 72, 0
3, 242542, Note_on_c, 0, 72, 36
3, 242549, Note_on_c, 0, 84, 26
3, 242551, Note_on_c, 0, 79, 45
3, 242727, Note_on_c, 0, 84, 0
3, 242740, Note_on_c, 0, 79, 0
3, 242754, Note_on_c, 0, 72, 0
3, 242849, Control_c, 0, 64, 0
3, 242894, Note_on_c, 0, 64, 51
3, 242924, Note_on_c, 0, 72, 41
3, 242925, Note_on_c, 0, 57, 31
3, 242926, Note_on_c, 0, 84, 38
3, 242936, Note_on_c, 0, 60, 31
3, 242938, Note_on_c, 0, 79, 47
3, 242946, Note_on_c, 0, 55, 24
3, 242973, Control_c, 0, 64, 127
3, 243062, Note_on_c, 0, 64, 0
3, 243064, Note_on_c, 0, 72, 0
3, 243082, Note_on_c, 0, 84, 0
3, 243089, Note_on_c, 0, 60, 0
3, 243125, Note_on_c, 0, 79, 0
3, 243130, Note_on_c, 0, 55, 0
3, 243159, Note_on_c, 0, 57, 0
3, 243207, Control_c, 0, 64, 0
3, 243246, Control_c, 0, 64, 127
3, 243287, Note_on_c, 0, 86, 73
3, 243300, Note_on_c, 0, 72, 47
3, 243306, Note_on_c, 0, 79, 51
3, 243339, Note_on_c, 0, 82, 27
3, 243395, Note_on_c, 0, 82, 0
3, 243507, Note_on_c, 0, 86, 0
3, 243510, Note_on_c, 0, 79, 0
3, 243542, Note_on_c, 0, 72, 0
3, 243597, Note_on_c, 0, 86, 68
3, 243603, Note_on_c, 0, 72, 24
3, 243613, Note_on_c, 0, 79, 61
3, 243775, Control_c, 0, 64, 0
3, 243805, Note_on_c, 0, 86, 0
3, 243817, Note_on_c, 0, 79, 0
3, 243850, Note_on_c, 0, 72, 0
3, 243886, Note_on_c, 0, 44, 42
3, 243897, Note_on_c, 0, 51, 40
3, 243926, Note_on_c, 0, 86, 64
3, 243929, Note_on_c, 0, 72, 35
3, 243934, Note_on_c, 0, 79, 54
3, 243986, Control_c, 0, 64, 127
3, 244085, Note_on_c, 0, 86, 0
3, 244136, Note_on_c, 0, 79, 0
3, 244145, Note_on_c, 0, 72, 0
3, 244208, Note_on_c, 0, 44, 0
3, 244221, Note_on_c, 0, 86, 51
3, 244235, Note_on_c, 0, 51, 0
3, 244255, Note_on_c, 0, 79, 46
3, 244257, Note_on_c, 0, 72, 24
3, 244411, Note_on_c, 0, 86, 0
3, 244423, Note_on_c, 0, 79, 0
3, 244437, Note_on_c, 0, 72, 0
3, 244535, Note_on_c, 0, 86, 66
3, 244548, Note_on_c, 0, 72, 34
3, 244559, Note_on_c, 0, 79, 52
3, 244750, Note_on_c, 0, 86, 0
3, 244755, Note_on_c, 0, 79, 0
3, 244762, Note_on_c, 0, 72, 0
3, 244850, Control_c, 0, 64, 0
3, 244869, Note_on_c, 0, 86, 54
3, 244882, Note_on_c, 0, 63, 52
3, 244899, Note_on_c, 0, 72, 35
3, 244900, Note_on_c, 0, 79, 48
3, 244912, Note_on_c, 0, 58, 53
3, 244948, Note_on_c, 0, 53, 26
3, 244999, Control_c, 0, 64, 127
3, 245297, Note_on_c, 0, 53, 0
3, 245314, Note_on_c, 0, 63, 0
3, 245337, Note_on_c, 0, 86, 0
3, 245347, Note_on_c, 0, 58, 0
3, 245446, Note_on_c, 0, 72, 0
3, 245507, Note_on_c, 0, 84, 55
3, 245648, Note_on_c, 0, 79, 0
3, 245814, Control_c, 0, 64, 0
3, 245815, Note_on_c, 0, 84, 0
3, 245831, Note_on_c, 0, 79, 51
3, 245834, Note_on_c, 0, 60, 35
3, 245854, Note_on_c, 0, 55, 52
3, 245859, Note_on_c, 0, 72, 38
3, 245862, Note_on_c, 0, 49, 28
3, 246011, Control_c, 0, 64, 127
3, 246120, Note_on_c, 0, 79, 0
3, 246229, Note_on_c, 0, 72, 0
3, 246365, Note_on_c, 0, 60, 0
3, 246789, Control_c, 0, 64, 0
3, 246796, Note_on_c, 0, 49, 46
3, 246801, Note_on_c, 0, 60, 43
3, 246806, Note_on_c, 0, 55, 36
3, 246824, Note_on_c, 0, 65, 43
3, 246925, Control_c, 0, 64, 127
3, 247115, Note_on_c, 0, 55, 0
3, 247156, Note_on_c, 0, 55, 0
3, 247201, Note_on_c, 0, 60, 0
3, 247280, Note_on_c, 0, 49, 0
3, 247298, Note_on_c, 0, 65, 0
3, 247415, Note_on_c, 0, 49, 0
3, 247666, Control_c, 0, 64, 0
3, 247729, Note_on_c, 0, 61, 35
3, 247737, Note_on_c, 0, 58, 33
3, 247740, Note_on_c, 0, 55, 33
3, 247744, Note_on_c, 0, 64, 41
3, 247757, Note_on_c, 0, 48, 34
3, 247814, Control_c, 0, 64, 127
3, 247997, Note_on_c, 0, 55, 0
3, 248021, Note_on_c, 0, 64, 0
3, 248084, Note_on_c, 0, 48, 0
3, 248107, Note_on_c, 0, 58, 0
3, 248127, Note_on_c, 0, 61, 0
3, 248642, Control_c, 0, 64, 0
3, 248654, Note_on_c, 0, 61, 42
3, 248688, Note_on_c, 0, 52, 25
3, 248695, Note_on_c, 0, 56, 46
3, 248696, Note_on_c, 0, 42, 35
3, 248713, Note_on_c, 0, 58, 38
3, 248714, Note_on_c, 0, 49, 25
3, 248850, Control_c, 0, 64, 127
3, 248889, Note_on_c, 0, 42, 0
3, 248946, Note_on_c, 0, 52, 0
3, 248994, Note_on_c, 0, 49, 0
3, 249162, Note_on_c, 0, 56, 0
3, 249167, Note_on_c, 0, 61, 0
3, 249279, Note_on_c, 0, 58, 0
3, 249605, Control_c, 0, 64, 0
3, 249659, Note_on_c, 0, 57, 50
3, 249669, Note_on_c, 0, 60, 46
3, 249674, Note_on_c, 0, 48, 40
3, 249685, Note_on_c, 0, 41, 20
3, 249789, Control_c, 0, 64, 127
3, 249871, Note_on_c, 0, 41, 0
3, 249912, Note_on_c, 0, 57, 0
3, 249928, Note_on_c, 0, 60, 0
3, 249946, Note_on_c, 0, 48, 0
3, 250196, Control_c, 0, 64, 0
3, 250297, Note_on_c, 0, 74, 68
3, 250300, Note_on_c, 0, 58, 67
3, 250301, Note_on_c, 0, 68, 67
3, 250313, Note_on_c, 0, 64, 64
3, 250321, Control_c, 0, 64, 127
3, 250520, Note_on_c, 0, 74, 0
3, 250530, Control_c, 0, 64, 0
3, 250557, Note_on_c, 0, 58, 0
3, 250566, Note_on_c, 0, 64, 0
3, 250604, Note_on_c, 0, 68, 0
3, 250688, Note_on_c, 0, 72, 40
3, 250694, Note_on_c, 0, 57, 59
3, 250702, Note_on_c, 0, 67, 48
3, 250710, Note_on_c, 0, 62, 29
3, 250752, Control_c, 0, 64, 127
3, 250826, Note_on_c, 0, 62, 0
3, 250868, Note_on_c, 0, 57, 0
3, 250906, Note_on_c, 0, 67, 0
3, 250936, Note_on_c, 0, 72, 0
3, 251198, Control_c, 0, 64, 0
3, 251274, Note_on_c, 0, 63, 68
3, 251303, Note_on_c, 0, 79, 68
3, 251306, Note_on_c, 0, 73, 59
3, 251314, Note_on_c, 0, 69, 50
3, 251371, Control_c, 0, 64, 127
3, 251517, Note_on_c, 0, 79, 0
3, 251544, Note_on_c, 0, 69, 0
3, 251558, Note_on_c, 0, 63, 0
3, 251580, Control_c, 0, 64, 0
3, 251600, Note_on_c, 0, 73, 0
3, 251663, Note_on_c, 0, 77, 68
3, 251692, Note_on_c, 0, 62, 45
3, 251693, Note_on_c, 0, 72, 54
3, 251696, Note_on_c, 0, 67, 34
3, 251748, Note_on_c, 0, 62, 0
3, 251780, Note_on_c, 0, 77, 0
3, 251793, Note_on_c, 0, 72, 0
3, 251797, Note_on_c, 0, 67, 0
3, 252210, Note_on_c, 0, 74, 58
3, 252223, Note_on_c, 0, 68, 57
3, 252229, Note_on_c, 0, 58, 53
3, 252233, Note_on_c, 0, 64, 53
3, 252373, Note_on_c, 0, 74, 0
3, 252435, Note_on_c, 0, 64, 0
3, 252450, Note_on_c, 0, 68, 0
3, 252519, Control_c, 0, 64, 127
3, 252534, Note_on_c, 0, 58, 0
3, 252571, Note_on_c, 0, 72, 51
3, 252585, Note_on_c, 0, 67, 43
3, 252594, Note_on_c, 0, 57, 48
3, 252595, Note_on_c, 0, 62, 34
3, 252854, Note_on_c, 0, 57, 0
3, 252997, Note_on_c, 0, 62, 0
3, 253069, Note_on_c, 0, 67, 0
3, 253116, Note_on_c, 0, 72, 0
3, 253495, Control_c, 0, 64, 0
3, 253515, Note_on_c, 0, 54, 38
3, 253517, Note_on_c, 0, 66, 58
3, 253519, Note_on_c, 0, 63, 53
3, 253730, Control_c, 0, 64, 127
3, 254071, Note_on_c, 0, 63, 0
3, 254076, Note_on_c, 0, 42, 49
3, 254078, Note_on_c, 0, 66, 0
3, 254202, Note_on_c, 0, 42, 0
3, 254236, Note_on_c, 0, 54, 0
3, 254407, Control_c, 0, 64, 0
3, 254441, Note_on_c, 0, 63, 55
3, 254452, Note_on_c, 0, 66, 50
3, 254454, Note_on_c, 0, 60, 46
3, 254457, Note_on_c, 0, 57, 51
3, 254544, Control_c, 0, 64, 127
3, 254622, Note_on_c, 0, 57, 0
3, 254752, Note_on_c, 0, 60, 0
3, 254825, Note_on_c, 0, 63, 0
3, 254874, Note_on_c, 0, 66, 0
3, 255349, Note_on_c, 0, 63, 44
3, 255355, Note_on_c, 0, 54, 45
3, 255372, Control_c, 0, 64, 0
3, 255397, Note_on_c, 0, 77, 54
3, 255404, Note_on_c, 0, 60, 20
3, 255460, Note_on_c, 0, 77, 0
3, 255480, Note_on_c, 0, 63, 0
3, 255508, Note_on_c, 0, 78, 56
3, 255600, Note_on_c, 0, 77, 46
3, 255636, Note_on_c, 0, 78, 0
3, 255694, Note_on_c, 0, 77, 0
3, 255715, Note_on_c, 0, 76, 49
3, 255772, Note_on_c, 0, 76, 0
3, 255838, Note_on_c, 0, 75, 47
3, 255944, Note_on_c, 0, 60, 0
3, 255968, Note_on_c, 0, 75, 0
3, 255987, Note_on_c, 0, 72, 34
3, 256057, Note_on_c, 0, 72, 0
3, 256115, Note_on_c, 0, 69, 30
3, 256207, Note_on_c, 0, 69, 0
3, 256287, Note_on_c, 0, 66, 52
3, 256387, Note_on_c, 0, 66, 0
3, 256412, Note_on_c, 0, 54, 0
3, 256509, Note_on_c, 0, 65, 70
3, 256610, Note_on_c, 0, 65, 0
3, 256699, Note_on_c, 0, 64, 64
3, 256806, Note_on_c, 0, 64, 0
3, 256853, Note_on_c, 0, 63, 52
3, 256906, Note_on_c, 0, 44, 28
3, 256934, Note_on_c, 0, 54, 15
3, 256954, Note_on_c, 0, 63, 0
3, 257056, Note_on_c, 0, 62, 54
3, 257123, Note_on_c, 0, 54, 0
3, 257144, Note_on_c, 0, 62, 0
3, 257211, Control_c, 0, 64, 127
3, 257216, Note_on_c, 0, 61, 26
3, 257245, Note_on_c, 0, 44, 0
3, 257258, Note_on_c, 0, 61, 0
3, 257331, Note_on_c, 0, 60, 41
3, 257373, Control_c, 0, 64, 0
3, 257476, Note_on_c, 0, 58, 70
3, 257490, Note_on_c, 0, 60, 0
3, 257496, Note_on_c, 0, 43, 28
3, 257506, Note_on_c, 0, 53, 24
3, 257619, Control_c, 0, 64, 127
3, 257643, Note_on_c, 0, 59, 38
3, 257931, Note_on_c, 0, 58, 0
3, 257975, Note_on_c, 0, 59, 0
3, 258115, Note_on_c, 0, 53, 0
3, 258222, Note_on_c, 0, 60, 62
3, 258318, Note_on_c, 0, 58, 48
3, 258335, Control_c, 0, 64, 0
3, 258341, Note_on_c, 0, 60, 0
3, 258419, Note_on_c, 0, 53, 17
3, 258443, Note_on_c, 0, 57, 47
3, 258455, Note_on_c, 0, 58, 0
3, 258532, Note_on_c, 0, 43, 0
3, 258567, Note_on_c, 0, 57, 0
3, 258607, Note_on_c, 0, 58, 51
3, 258622, Note_on_c, 0, 53, 0
3, 258650, Note_on_c, 0, 58, 0
3, 258770, Note_on_c, 0, 62, 41
3, 258823, Note_on_c, 0, 62, 0
3, 258902, Note_on_c, 0, 66, 35
3, 258962, Note_on_c, 0, 66, 0
3, 259068, Note_on_c, 0, 69, 50
3, 259207, Note_on_c, 0, 69, 0
3, 259212, Note_on_c, 0, 66, 57
3, 259313, Note_on_c, 0, 66, 0
3, 259326, Note_on_c, 0, 58, 40
3, 259350, Note_on_c, 0, 67, 55
3, 259494, Note_on_c, 0, 67, 0
3, 259578, Note_on_c, 0, 69, 57
3, 259677, Note_on_c, 0, 69, 0
3, 259784, Note_on_c, 0, 70, 61
3, 259825, Note_on_c, 0, 70, 0
3, 259969, Note_on_c, 0, 74, 36
3, 260008, Note_on_c, 0, 76, 26
3, 260059, Note_on_c, 0, 76, 0
3, 260065, Note_on_c, 0, 74, 0
3, 260156, Note_on_c, 0, 78, 61
3, 260250, Note_on_c, 0, 62, 24
3, 260257, Note_on_c, 0, 78, 0
3, 260305, Note_on_c, 0, 55, 17
3, 260368, Note_on_c, 0, 84, 76
3, 260459, Control_c, 0, 64, 127
3, 260494, Note_on_c, 0, 84, 0
3, 260506, Note_on_c, 0, 62, 0
3, 260540, Note_on_c, 0, 58, 0
3, 260591, Note_on_c, 0, 55, 0
3, 260634, Note_on_c, 0, 81, 40
3, 260692, Note_on_c, 0, 81, 0
3, 260843, Note_on_c, 0, 81, 56
3, 260951, Note_on_c, 0, 81, 0
3, 261049, Note_on_c, 0, 79, 53
3, 261202, Note_on_c, 0, 78, 70
3, 261203, Note_on_c, 0, 79, 0
3, 261236, Control_c, 0, 64, 0
3, 261362, Note_on_c, 0, 78, 0
3, 261379, Note_on_c, 0, 76, 52
3, 261496, Note_on_c, 0, 76, 0
3, 261575, Note_on_c, 0, 75, 48
3, 261729, Note_on_c, 0, 75, 0
3, 261772, Note_on_c, 0, 74, 28
3, 261859, Note_on_c, 0, 74, 0
3, 261915, Note_on_c, 0, 73, 18
3, 261957, Note_on_c, 0, 73, 0
3, 262016, Note_on_c, 0, 72, 28
3, 262169, Note_on_c, 0, 72, 0
3, 262221, Note_on_c, 0, 73, 59
3, 262532, Note_on_c, 0, 50, 34
3, 262537, Note_on_c, 0, 48, 37
3, 262664, Note_on_c, 0, 50, 0
3, 262726, Note_on_c, 0, 48, 0
3, 262808, Note_on_c, 0, 49, 38
3, 263072, Note_on_c, 0, 49, 0
3, 263114, Note_on_c, 0, 50, 47
3, 263297, Note_on_c, 0, 73, 0
3, 263426, Note_on_c, 0, 50, 0
3, 263458, Note_on_c, 0, 51, 52
3, 263576, Note_on_c, 0, 51, 0
3, 263609, Note_on_c, 0, 52, 53
3, 263720, Note_on_c, 0, 52, 0
3, 263732, Note_on_c, 0, 53, 44
3, 263851, Note_on_c, 0, 53, 0
3, 263874, Note_on_c, 0, 54, 51
3, 263967, Note_on_c, 0, 54, 0
3, 263990, Note_on_c, 0, 55, 42
3, 264049, Note_on_c, 0, 55, 0
3, 264125, Note_on_c, 0, 56, 40
3, 264173, Note_on_c, 0, 56, 0
3, 264249, Note_on_c, 0, 57, 61
3, 264303, Note_on_c, 0, 57, 0
3, 264393, Note_on_c, 0, 58, 39
3, 264441, Note_on_c, 0, 58, 0
3, 264518, Note_on_c, 0, 59, 43
3, 264586, Note_on_c, 0, 59, 0
3, 264643, Note_on_c, 0, 60, 34
3, 264709, Note_on_c, 0, 61, 36
3, 264712, Note_on_c, 0, 60, 0
3, 264750, Note_on_c, 0, 61, 0
3, 264887, Note_on_c, 0, 62, 64
3, 265069, Note_on_c, 0, 62, 0
3, 265073, Note_on_c, 0, 41, 37
3, 265094, Note_on_c, 0, 60, 35
3, 265114, Note_on_c, 0, 59, 24
3, 265157, Note_on_c, 0, 59, 0
3, 265176, Control_c, 0, 64, 127
3, 265279, Note_on_c, 0, 60, 0
3, 265435, Note_on_c, 0, 48, 51
3, 265527, Note_on_c, 0, 41, 0
3, 265656, Note_on_c, 0, 48, 0
3, 265702, Note_on_c, 0, 57, 50
3, 265758, Note_on_c, 0, 57, 0
3, 265980, Control_c, 0, 64, 0
3, 265998, Note_on_c, 0, 69, 77
3, 265999, Note_on_c, 0, 79, 74
3, 266001, Note_on_c, 0, 74, 80
3, 266031, Note_on_c, 0, 64, 42
3, 266082, Note_on_c, 0, 64, 0
3, 266189, Control_c, 0, 64, 127
3, 266354, Note_on_c, 0, 74, 0
3, 266354, Note_on_c, 0, 79, 0
3, 266416, Note_on_c, 0, 69, 0
3, 266560, Control_c, 0, 64, 0
3, 266582, Note_on_c, 0, 77, 60
3, 266604, Note_on_c, 0, 62, 40
3, 266610, Note_on_c, 0, 72, 64
3, 266618, Note_on_c, 0, 67, 54
3, 266683, Control_c, 0, 64, 127
3, 266727, Note_on_c, 0, 77, 0
3, 266772, Note_on_c, 0, 72, 0
3, 266816, Note_on_c, 0, 67, 0
3, 266942, Control_c, 0, 64, 0
3, 266943, Note_on_c, 0, 62, 0
3, 266980, Note_on_c, 0, 74, 49
3, 266982, Note_on_c, 0, 64, 56
3, 267010, Note_on_c, 0, 69, 51
3, 267026, Note_on_c, 0, 58, 42
3, 267116, Control_c, 0, 64, 127
3, 267400, Note_on_c, 0, 69, 0
3, 267427, Note_on_c, 0, 74, 0
3, 267488, Note_on_c, 0, 64, 0
3, 267782, Control_c, 0, 64, 0
3, 267803, Note_on_c, 0, 58, 0
3, 267833, Note_on_c, 0, 72, 47
3, 267846, Note_on_c, 0, 67, 47
3, 267850, Note_on_c, 0, 57, 36
3, 267851, Note_on_c, 0, 62, 34
3, 267943, Control_c, 0, 64, 127
3, 268107, Note_on_c, 0, 72, 0
3, 268149, Note_on_c, 0, 57, 0
3, 268159, Note_on_c, 0, 67, 0
3, 268216, Note_on_c, 0, 62, 0
3, 268708, Control_c, 0, 64, 0
3, 268743, Note_on_c, 0, 55, 36
3, 268747, Note_on_c, 0, 61, 35
3, 268786, Note_on_c, 0, 39, 36
3, 268792, Note_on_c, 0, 46, 35
3, 268881, Control_c, 0, 64, 127
3, 269031, Note_on_c, 0, 55, 0
3, 269067, Note_on_c, 0, 39, 0
3, 269145, Note_on_c, 0, 46, 0
3, 269177, Note_on_c, 0, 61, 0
3, 269721, Control_c, 0, 64, 0
3, 269741, Note_on_c, 0, 65, 51
3, 269742, Note_on_c, 0, 61, 33
3, 269758, Note_on_c, 0, 60, 39
3, 269786, Note_on_c, 0, 55, 17
3, 269955, Control_c, 0, 64, 127
3, 270585, Note_on_c, 0, 65, 0
3, 270670, Note_on_c, 0, 73, 76
3, 270671, Note_on_c, 0, 75, 81
3, 270683, Control_c, 0, 64, 0
3, 270686, Note_on_c, 0, 65, 36
3, 270880, Note_on_c, 0, 75, 0
3, 270888, Note_on_c, 0, 73, 0
3, 270932, Note_on_c, 0, 65, 0
3, 270980, Note_on_c, 0, 75, 53
3, 270991, Note_on_c, 0, 73, 48
3, 271102, Note_on_c, 0, 73, 0
3, 271163, Note_on_c, 0, 75, 0
3, 271214, Note_on_c, 0, 61, 0
3, 271292, Note_on_c, 0, 69, 50
3, 271293, Note_on_c, 0, 67, 42
3, 271307, Note_on_c, 0, 60, 0
3, 271436, Note_on_c, 0, 67, 0
3, 271445, Note_on_c, 0, 69, 0
3, 271580, Note_on_c, 0, 67, 40
3, 271593, Note_on_c, 0, 69, 53
3, 271664, Note_on_c, 0, 67, 0
3, 271674, Note_on_c, 0, 61, 21
3, 271708, Note_on_c, 0, 69, 0
3, 271894, Control_c, 0, 64, 127
3, 271918, Note_on_c, 0, 75, 58
3, 271928, Note_on_c, 0, 73, 47
3, 271970, Note_on_c, 0, 61, 0
3, 272016, Note_on_c, 0, 55, 0
3, 272052, Note_on_c, 0, 75, 0
3, 272064, Note_on_c, 0, 73, 0
3, 272223, Note_on_c, 0, 75, 44
3, 272242, Note_on_c, 0, 73, 35
3, 272359, Note_on_c, 0, 75, 0
3, 272392, Note_on_c, 0, 73, 0
3, 272524, Control_c, 0, 64, 0
3, 272542, Note_on_c, 0, 60, 43
3, 272562, Note_on_c, 0, 74, 47
3, 272568, Note_on_c, 0, 50, 26
3, 272570, Note_on_c, 0, 72, 55
3, 272715, Note_on_c, 0, 72, 0
3, 272720, Note_on_c, 0, 74, 0
3, 272862, Note_on_c, 0, 74, 44
3, 272870, Note_on_c, 0, 60, 0
3, 272879, Note_on_c, 0, 72, 45
3, 272932, Note_on_c, 0, 72, 0
3, 272966, Note_on_c, 0, 74, 0
3, 273171, Note_on_c, 0, 66, 39
3, 273172, Note_on_c, 0, 68, 49
3, 273276, Note_on_c, 0, 68, 0
3, 273288, Note_on_c, 0, 66, 0
3, 273519, Note_on_c, 0, 68, 51
3, 273528, Note_on_c, 0, 66, 37
3, 273612, Note_on_c, 0, 66, 0
3, 273625, Note_on_c, 0, 60, 28
3, 273677, Note_on_c, 0, 68, 0
3, 273857, Note_on_c, 0, 60, 0
3, 273863, Note_on_c, 0, 72, 49
3, 273888, Note_on_c, 0, 71, 33
3, 273890, Note_on_c, 0, 50, 0
3, 273909, Note_on_c, 0, 74, 22
3, 273932, Note_on_c, 0, 71, 0
3, 273968, Note_on_c, 0, 74, 0
3, 274049, Note_on_c, 0, 72, 0
3, 274138, Note_on_c, 0, 74, 64
3, 274159, Note_on_c, 0, 72, 42
3, 274265, Note_on_c, 0, 74, 0
3, 274361, Note_on_c, 0, 72, 0
3, 274468, Note_on_c, 0, 66, 59
3, 274475, Note_on_c, 0, 68, 47
3, 274501, Note_on_c, 0, 64, 55
3, 274506, Note_on_c, 0, 60, 36
3, 274623, Note_on_c, 0, 64, 0
3, 274652, Note_on_c, 0, 66, 0
3, 274664, Note_on_c, 0, 68, 0
3, 274734, Note_on_c, 0, 60, 0
3, 274797, Note_on_c, 0, 66, 37
3, 274802, Note_on_c, 0, 68, 42
3, 274880, Note_on_c, 0, 66, 0
3, 274947, Note_on_c, 0, 68, 0
3, 275089, Note_on_c, 0, 74, 66
3, 275243, Note_on_c, 0, 74, 0
3, 275386, Note_on_c, 0, 74, 62
3, 275396, Note_on_c, 0, 72, 54
3, 275552, Note_on_c, 0, 74, 0
3, 275598, Note_on_c, 0, 72, 0
3, 275615, Note_on_c, 0, 60, 32
3, 275619, Note_on_c, 0, 54, 37
3, 275624, Note_on_c, 0, 50, 31
3, 275677, Note_on_c, 0, 60, 0
3, 275704, Note_on_c, 0, 50, 0
3, 275800, Note_on_c, 0, 54, 0
3, 276008, Note_on_c, 0, 66, 39
3, 276009, Note_on_c, 0, 68, 50
3, 276121, Note_on_c, 0, 66, 0
3, 276162, Note_on_c, 0, 68, 0
3, 276359, Note_on_c, 0, 74, 62
3, 276389, Note_on_c, 0, 62, 31
3, 276395, Note_on_c, 0, 54, 30
3, 276470, Note_on_c, 0, 62, 0
3, 276495, Note_on_c, 0, 74, 0
3, 276583, Note_on_c, 0, 54, 0
3, 276649, Note_on_c, 0, 74, 48
3, 276662, Note_on_c, 0, 72, 57
3, 276755, Note_on_c, 0, 74, 0
3, 276850, Note_on_c, 0, 72, 0
3, 276932, Note_on_c, 0, 68, 38
3, 276949, Note_on_c, 0, 66, 25
3, 277076, Note_on_c, 0, 68, 0
3, 277077, Note_on_c, 0, 66, 0
3, 277227, Note_on_c, 0, 66, 44
3, 277231, Note_on_c, 0, 68, 45
3, 277385, Note_on_c, 0, 66, 0
3, 277432, Note_on_c, 0, 68, 0
3, 277517, Note_on_c, 0, 54, 36
3, 277530, Note_on_c, 0, 50, 26
3, 277536, Note_on_c, 0, 74, 51
3, 277567, Note_on_c, 0, 72, 32
3, 277643, Note_on_c, 0, 74, 0
3, 277676, Note_on_c, 0, 50, 0
3, 277717, Note_on_c, 0, 54, 0
3, 277760, Note_on_c, 0, 72, 0
3, 277823, Note_on_c, 0, 74, 62
3, 277838, Note_on_c, 0, 72, 32
3, 277931, Note_on_c, 0, 74, 0
3, 278061, Note_on_c, 0, 72, 0
3, 278115, Note_on_c, 0, 68, 53
3, 278120, Note_on_c, 0, 66, 47
3, 278317, Note_on_c, 0, 66, 0
3, 278328, Note_on_c, 0, 68, 0
3, 278426, Note_on_c, 0, 66, 59
3, 278435, Note_on_c, 0, 62, 32
3, 278436, Note_on_c, 0, 54, 40
3, 278447, Note_on_c, 0, 68, 42
3, 278505, Note_on_c, 0, 62, 0
3, 278583, Note_on_c, 0, 54, 0
3, 278585, Note_on_c, 0, 66, 0
3, 278651, Note_on_c, 0, 68, 0
3, 278725, Note_on_c, 0, 74, 62
3, 278885, Note_on_c, 0, 74, 0
3, 279019, Note_on_c, 0, 68, 57
3, 279030, Note_on_c, 0, 66, 45
3, 279210, Note_on_c, 0, 68, 0
3, 279211, Note_on_c, 0, 66, 0
3, 279344, Note_on_c, 0, 66, 49
3, 279346, Note_on_c, 0, 68, 51
3, 279369, Note_on_c, 0, 54, 33
3, 279491, Note_on_c, 0, 66, 0
3, 279540, Note_on_c, 0, 54, 0
3, 279628, Note_on_c, 0, 74, 57
3, 279661, Control_c, 0, 64, 127
3, 279756, Note_on_c, 0, 68, 0
3, 279804, Note_on_c, 0, 74, 0
3, 279952, Note_on_c, 0, 68, 57
3, 279963, Note_on_c, 0, 66, 49
3, 280013, Note_on_c, 0, 44, 29
3, 280086, Note_on_c, 0, 66, 0
3, 280134, Note_on_c, 0, 44, 0
3, 280160, Note_on_c, 0, 68, 0
3, 280218, Control_c, 0, 64, 0
3, 280305, Note_on_c, 0, 43, 32
3, 280307, Note_on_c, 0, 70, 58
3, 280314, Note_on_c, 0, 72, 41
3, 280457, Note_on_c, 0, 43, 0
3, 280495, Note_on_c, 0, 70, 0
3, 280497, Note_on_c, 0, 72, 0
3, 280587, Note_on_c, 0, 72, 24
3, 280606, Note_on_c, 0, 70, 43
3, 280724, Control_c, 0, 64, 127
3, 280778, Note_on_c, 0, 72, 0
3, 280810, Note_on_c, 0, 70, 0
3, 280910, Note_on_c, 0, 67, 59
3, 280915, Note_on_c, 0, 65, 54
3, 281264, Note_on_c, 0, 58, 53
3, 281291, Note_on_c, 0, 62, 22
3, 281322, Note_on_c, 0, 67, 0
3, 281341, Note_on_c, 0, 62, 0
3, 281398, Note_on_c, 0, 65, 0
3, 281417, Note_on_c, 0, 58, 0
3, 281886, Note_on_c, 0, 50, 54
3, 282108, Control_c, 0, 64, 0
3, 282191, Note_on_c, 0, 50, 0
3, 282230, Note_on_c, 0, 43, 36
3, 282237, Note_on_c, 0, 62, 55
3, 282246, Note_on_c, 0, 58, 57
3, 282256, Note_on_c, 0, 55, 43
3, 282259, Note_on_c, 0, 53, 48
3, 282268, Control_c, 0, 64, 127
3, 282354, Note_on_c, 0, 43, 0
3, 282355, Note_on_c, 0, 55, 0
3, 282411, Note_on_c, 0, 58, 0
3, 282416, Note_on_c, 0, 62, 0
3, 282426, Note_on_c, 0, 53, 0
3, 282698, Note_on_c, 0, 54, 28
3, 282794, Note_on_c, 0, 56, 60
3, 282810, Control_c, 0, 64, 0
3, 282857, Note_on_c, 0, 57, 81
3, 282859, Note_on_c, 0, 65, 85
3, 282860, Note_on_c, 0, 72, 68
3, 282872, Note_on_c, 0, 62, 82
3, 282873, Note_on_c, 0, 69, 56
3, 282890, Note_on_c, 0, 71, 60
3, 282925, Note_on_c, 0, 54, 0
3, 282944, Note_on_c, 0, 56, 0
3, 282971, Control_c, 0, 64, 127
3, 283077, Note_on_c, 0, 72, 0
3, 283088, Note_on_c, 0, 71, 0
3, 283091, Note_on_c, 0, 62, 0
3, 283092, Note_on_c, 0, 69, 0
3, 283095, Control_c, 0, 64, 0
3, 283155, Note_on_c, 0, 65, 0
3, 283241, Note_on_c, 0, 71, 53
3, 283242, Note_on_c, 0, 57, 0
3, 283256, Note_on_c, 0, 56, 74
3, 283261, Note_on_c, 0, 65, 75
3, 283276, Note_on_c, 0, 62, 70
3, 283452, Note_on_c, 0, 62, 0
3, 283478, Control_c, 0, 64, 127
3, 283506, Note_on_c, 0, 71, 0
3, 283569, Note_on_c, 0, 65, 0
3, 283589, Control_c, 0, 64, 0
3, 283661, Note_on_c, 0, 56, 0
3, 283759, Note_on_c, 0, 65, 71
3, 283760, Note_on_c, 0, 70, 59
3, 283768, Note_on_c, 0, 55, 59
3, 283778, Note_on_c, 0, 62, 62
3, 283910, Control_c, 0, 64, 127
3, 283932, Note_on_c, 0, 62, 0
3, 283958, Note_on_c, 0, 70, 0
3, 283972, Note_on_c, 0, 65, 0
3, 284020, Note_on_c, 0, 55, 0
3, 284132, Control_c, 0, 64, 0
3, 284201, Note_on_c, 0, 69, 71
3, 284217, Note_on_c, 0, 58, 63
3, 284224, Note_on_c, 0, 57, 64
3, 284237, Note_on_c, 0, 65, 49
3, 284282, Note_on_c, 0, 46, 23
3, 284557, Note_on_c, 0, 57, 0
3, 284580, Note_on_c, 0, 69, 0
3, 284653, Note_on_c, 0, 58, 0
3, 284696, Note_on_c, 0, 58, 45
3, 284697, Note_on_c, 0, 56, 70
3, 284704, Note_on_c, 0, 68, 56
3, 284750, Note_on_c, 0, 61, 27
3, 284761, Control_c, 0, 64, 127
3, 285013, Note_on_c, 0, 56, 0
3, 285020, Note_on_c, 0, 58, 0
3, 285039, Note_on_c, 0, 68, 0
3, 285040, Note_on_c, 0, 61, 0
3, 285044, Note_on_c, 0, 65, 0
3, 285132, Control_c, 0, 64, 0
3, 285184, Note_on_c, 0, 55, 59
3, 285191, Note_on_c, 0, 58, 65
3, 285200, Note_on_c, 0, 61, 56
3, 285201, Note_on_c, 0, 67, 48
3, 285206, Note_on_c, 0, 65, 43
3, 285454, Control_c, 0, 64, 127
3, 285471, Note_on_c, 0, 67, 0
3, 285533, Note_on_c, 0, 58, 0
3, 285563, Control_c, 0, 64, 0
3, 285573, Note_on_c, 0, 65, 0
3, 285575, Note_on_c, 0, 61, 0
3, 285600, Note_on_c, 0, 55, 0
3, 285662, Note_on_c, 0, 58, 53
3, 285666, Note_on_c, 0, 61, 57
3, 285669, Note_on_c, 0, 66, 58
3, 285671, Note_on_c, 0, 54, 57
3, 285762, Control_c, 0, 64, 127
3, 285934, Note_on_c, 0, 58, 0
3, 285976, Note_on_c, 0, 61, 0
3, 286059, Control_c, 0, 64, 0
3, 286060, Note_on_c, 0, 66, 0
3, 286082, Note_on_c, 0, 54, 0
3, 286144, Note_on_c, 0, 53, 46
3, 286146, Note_on_c, 0, 61, 59
3, 286156, Note_on_c, 0, 65, 60
3, 286160, Note_on_c, 0, 58, 47
3, 286280, Control_c, 0, 64, 127
3, 286377, Note_on_c, 0, 46, 0
3, 286443, Note_on_c, 0, 53, 0
3, 286467, Note_on_c, 0, 58, 0
3, 286475, Note_on_c, 0, 65, 0
3, 286539, Note_on_c, 0, 61, 0
3, 286552, Control_c, 0, 64, 0
3, 286618, Note_on_c, 0, 52, 49
3, 286621, Note_on_c, 0, 58, 61
3, 286623, Note_on_c, 0, 61, 52
3, 286634, Note_on_c, 0, 64, 60
3, 286725, Control_c, 0, 64, 127
3, 286847, Note_on_c, 0, 52, 0
3, 286914, Note_on_c, 0, 64, 0
3, 286919, Note_on_c, 0, 58, 0
3, 286972, Note_on_c, 0, 61, 0
3, 286985, Control_c, 0, 64, 0
3, 287112, Note_on_c, 0, 58, 63
3, 287117, Note_on_c, 0, 61, 57
3, 287124, Note_on_c, 0, 63, 54
3, 287148, Note_on_c, 0, 47, 50
3, 287170, Control_c, 0, 64, 127
3, 287280, Note_on_c, 0, 47, 0
3, 287393, Control_c, 0, 64, 0
3, 287463, Note_on_c, 0, 61, 0
3, 287549, Note_on_c, 0, 46, 75
3, 287552, Note_on_c, 0, 34, 74
3, 287554, Control_c, 0, 64, 127
3, 287559, Note_on_c, 0, 58, 0
3, 287567, Note_on_c, 0, 61, 27
3, 287797, Note_on_c, 0, 61, 0
3, 287886, Control_c, 0, 64, 0
3, 287888, Note_on_c, 0, 46, 0
3, 287912, Note_on_c, 0, 34, 0
3, 287962, Note_on_c, 0, 63, 0
3, 288008, Note_on_c, 0, 45, 79
3, 288016, Note_on_c, 0, 60, 69
3, 288016, Note_on_c, 0, 33, 74
3, 288023, Note_on_c, 0, 55, 60
3, 288059, Control_c, 0, 64, 127
3, 288217, Note_on_c, 0, 33, 0
3, 288221, Note_on_c, 0, 55, 0
3, 288315, Note_on_c, 0, 45, 0
3, 288384, Note_on_c, 0, 60, 0
3, 288960, Control_c, 0, 64, 0
3, 288976, Note_on_c, 0, 55, 58
3, 288977, Note_on_c, 0, 57, 68
3, 288980, Note_on_c, 0, 91, 90
3, 288982, Note_on_c, 0, 84, 89
3, 288983, Note_on_c, 0, 64, 83
3, 288986, Note_on_c, 0, 60, 66
3, 288987, Note_on_c, 0, 79, 88
3, 288990, Note_on_c, 0, 88, 77
3, 289025, Note_on_c, 0, 89, 36
3, 289030, Note_on_c, 0, 58, 31
3, 289071, Note_on_c, 0, 58, 0
3, 289163, Control_c, 0, 64, 127
3, 289379, Note_on_c, 0, 79, 0
3, 289380, Note_on_c, 0, 89, 0
3, 289389, Note_on_c, 0, 55, 0
3, 289390, Note_on_c, 0, 84, 0
3, 289396, Note_on_c, 0, 64, 0
3, 289397, Note_on_c, 0, 91, 0
3, 289412, Note_on_c, 0, 57, 0
3, 289417, Note_on_c, 0, 60, 0
3, 289421, Note_on_c, 0, 88, 0
3, 289503, Note_on_c, 0, 55, 53
3, 289505, Note_on_c, 0, 60, 80
3, 289506, Note_on_c, 0, 57, 73
3, 289508, Note_on_c, 0, 64, 80
3, 289510, Note_on_c, 0, 91, 77
3, 289511, Note_on_c, 0, 88, 65
3, 289519, Note_on_c, 0, 84, 74
3, 289521, Note_on_c, 0, 79, 80
3, 289824, Note_on_c, 0, 55, 0
3, 289829, Note_on_c, 0, 64, 0
3, 289830, Note_on_c, 0, 91, 0
3, 289831, Note_on_c, 0, 79, 0
3, 289843, Note_on_c, 0, 84, 0
3, 289857, Note_on_c, 0, 57, 0
3, 289867, Note_on_c, 0, 60, 0
3, 289880, Note_on_c, 0, 88, 0
3, 289932, Control_c, 0, 64, 0
3, 289974, Note_on_c, 0, 60, 73
3, 289975, Note_on_c, 0, 55, 62
3, 289978, Note_on_c, 0, 64, 82
3, 289979, Note_on_c, 0, 57, 74
3, 289983, Note_on_c, 0, 91, 81
3, 289993, Note_on_c, 0, 88, 63
3, 289995, Note_on_c, 0, 79, 80
3, 289996, Note_on_c, 0, 84, 80
3, 290167, Control_c, 0, 64, 127
3, 290292, Note_on_c, 0, 79, 0
3, 290293, Note_on_c, 0, 91, 0
3, 290303, Control_c, 0, 64, 0
3, 290330, Note_on_c, 0, 88, 0
3, 290334, Note_on_c, 0, 55, 0
3, 290344, Note_on_c, 0, 84, 0
3, 290351, Note_on_c, 0, 64, 0
3, 290352, Note_on_c, 0, 57, 0
3, 290374, Note_on_c, 0, 60, 0
3, 290438, Note_on_c, 0, 64, 72
3, 290445, Note_on_c, 0, 55, 42
3, 290448, Note_on_c, 0, 57, 57
3, 290450, Note_on_c, 0, 60, 74
3, 290459, Note_on_c, 0, 84, 64
3, 290461, Note_on_c, 0, 78, 71
3, 290466, Note_on_c, 0, 90, 55
3, 290542, Note_on_c, 0, 78, 0
3, 290564, Note_on_c, 0, 64, 0
3, 290572, Note_on_c, 0, 84, 0
3, 290584, Note_on_c, 0, 90, 0
3, 290591, Note_on_c, 0, 60, 0
3, 290600, Note_on_c, 0, 55, 0
3, 290606, Note_on_c, 0, 57, 0
3, 290912, Note_on_c, 0, 55, 60
3, 290913, Note_on_c, 0, 57, 72
3, 290915, Note_on_c, 0, 64, 82
3, 290921, Note_on_c, 0, 60, 68
3, 290924, Note_on_c, 0, 78, 87
3, 290925, Note_on_c, 0, 90, 83
3, 290934, Control_c, 0, 64, 127
3, 290935, Note_on_c, 0, 84, 79
3, 291250, Note_on_c, 0, 55, 0
3, 291269, Note_on_c, 0, 64, 0
3, 291275, Note_on_c, 0, 84, 0
3, 291281, Note_on_c, 0, 78, 0
3, 291295, Note_on_c, 0, 90, 0
3, 291306, Note_on_c, 0, 57, 0
3, 291323, Note_on_c, 0, 60, 0
3, 291392, Note_on_c, 0, 64, 69
3, 291393, Note_on_c, 0, 55, 55
3, 291404, Note_on_c, 0, 89, 66
3, 291404, Note_on_c, 0, 83, 73
3, 291408, Note_on_c, 0, 77, 71
3, 291409, Note_on_c, 0, 60, 68
3, 291417, Note_on_c, 0, 86, 66
3, 291419, Note_on_c, 0, 57, 58
3, 291480, Note_on_c, 0, 64, 0
3, 291523, Note_on_c, 0, 60, 0
3, 291558, Note_on_c, 0, 57, 0
3, 291568, Note_on_c, 0, 55, 0
3, 291859, Control_c, 0, 64, 0
3, 291860, Note_on_c, 0, 77, 0
3, 291875, Note_on_c, 0, 89, 0
3, 291876, Note_on_c, 0, 83, 0
3, 291887, Note_on_c, 0, 44, 88
3, 291897, Note_on_c, 0, 32, 87
3, 291898, Note_on_c, 0, 86, 0
3, 292056, Control_c, 0, 64, 127
3, 292124, Note_on_c, 0, 32, 0
3, 292171, Note_on_c, 0, 44, 0
3, 292773, Control_c, 0, 64, 0
3, 292842, Note_on_c, 0, 80, 90
3, 292842, Note_on_c, 0, 88, 83
3, 292845, Note_on_c, 0, 76, 94
3, 292846, Note_on_c, 0, 83, 85
3, 292853, Note_on_c, 0, 53, 85
3, 292856, Note_on_c, 0, 62, 96
3, 292857, Note_on_c, 0, 56, 77
3, 292859, Note_on_c, 0, 59, 87
3, 292867, Note_on_c, 0, 86, 62
3, 292899, Control_c, 0, 64, 127
3, 293141, Note_on_c, 0, 80, 0
3, 293143, Note_on_c, 0, 76, 0
3, 293149, Note_on_c, 0, 88, 0
3, 293154, Note_on_c, 0, 53, 0
3, 293154, Note_on_c, 0, 62, 0
3, 293167, Note_on_c, 0, 83, 0
3, 293175, Note_on_c, 0, 86, 0
3, 293191, Note_on_c, 0, 56, 0
3, 293197, Note_on_c, 0, 59, 0
3, 293325, Note_on_c, 0, 80, 86
3, 293326, Note_on_c, 0, 88, 71
3, 293330, Note_on_c, 0, 83, 81
3, 293331, Note_on_c, 0, 76, 88
3, 293334, Note_on_c, 0, 53, 85
3, 293335, Note_on_c, 0, 59, 84
3, 293337, Note_on_c, 0, 56, 81
3, 293339, Note_on_c, 0, 62, 95
3, 293340, Note_on_c, 0, 86, 74
3, 293567, Note_on_c, 0, 88, 0
3, 293571, Note_on_c, 0, 62, 0
3, 293575, Note_on_c, 0, 76, 0
3, 293589, Note_on_c, 0, 53, 0
3, 293590, Note_on_c, 0, 80, 0
3, 293612, Note_on_c, 0, 83, 0
3, 293618, Note_on_c, 0, 56, 0
3, 293620, Note_on_c, 0, 86, 0
3, 293633, Note_on_c, 0, 59, 0
3, 293751, Note_on_c, 0, 88, 68
3, 293754, Note_on_c, 0, 80, 77
3, 293762, Note_on_c, 0, 83, 77
3, 293766, Note_on_c, 0, 62, 88
3, 293769, Note_on_c, 0, 53, 74
3, 293770, Note_on_c, 0, 59, 64
3, 293771, Note_on_c, 0, 76, 78
3, 293772, Note_on_c, 0, 56, 72
3, 293782, Note_on_c, 0, 86, 54
3, 293958, Note_on_c, 0, 88, 0
3, 294001, Note_on_c, 0, 76, 0
3, 294031, Note_on_c, 0, 86, 0
3, 294035, Note_on_c, 0, 62, 0
3, 294052, Note_on_c, 0, 53, 0
3, 294067, Note_on_c, 0, 80, 0
3, 294068, Note_on_c, 0, 83, 0
3, 294069, Note_on_c, 0, 59, 0
3, 294070, Note_on_c, 0, 56, 0
3, 294237, Note_on_c, 0, 87, 70
3, 294245, Note_on_c, 0, 62, 87
3, 294247, Note_on_c, 0, 56, 77
3, 294248, Note_on_c, 0, 75, 83
3, 294249, Note_on_c, 0, 59, 75
3, 294252, Note_on_c, 0, 53, 69
3, 294254, Note_on_c, 0, 80, 72
3, 294265, Note_on_c, 0, 83, 66
3, 294476, Note_on_c, 0, 53, 0
3, 294479, Note_on_c, 0, 87, 0
3, 294482, Note_on_c, 0, 62, 0
3, 294483, Note_on_c, 0, 80, 0
3, 294484, Note_on_c, 0, 75, 0
3, 294502, Note_on_c, 0, 83, 0
3, 294519, Note_on_c, 0, 56, 0
3, 294527, Note_on_c, 0, 59, 0
3, 294690, Note_on_c, 0, 56, 62
3, 294693, Note_on_c, 0, 87, 59
3, 294694, Note_on_c, 0, 62, 71
3, 294700, Note_on_c, 0, 59, 62
3, 294702, Note_on_c, 0, 75, 73
3, 294704, Note_on_c, 0, 53, 52
3, 294706, Note_on_c, 0, 80, 63
3, 294722, Note_on_c, 0, 83, 60
3, 294895, Note_on_c, 0, 83, 0
3, 294946, Note_on_c, 0, 59, 0
3, 294983, Note_on_c, 0, 75, 0
3, 294988, Note_on_c, 0, 87, 0
3, 295004, Note_on_c, 0, 80, 0
3, 295010, Note_on_c, 0, 53, 0
3, 295012, Note_on_c, 0, 62, 0
3, 295035, Note_on_c, 0, 56, 0
3, 295178, Note_on_c, 0, 55, 62
3, 295180, Note_on_c, 0, 86, 68
3, 295183, Note_on_c, 0, 62, 74
3, 295184, Note_on_c, 0, 82, 70
3, 295189, Note_on_c, 0, 58, 71
3, 295195, Note_on_c, 0, 74, 69
3, 295199, Note_on_c, 0, 53, 48
3, 295200, Note_on_c, 0, 79, 70
3, 295210, Note_on_c, 0, 56, 56
3, 295227, Note_on_c, 0, 86, 0
3, 295241, Note_on_c, 0, 79, 0
3, 295251, Note_on_c, 0, 56, 0
3, 295252, Note_on_c, 0, 53, 0
3, 295265, Note_on_c, 0, 62, 0
3, 295270, Note_on_c, 0, 74, 0
3, 295277, Note_on_c, 0, 82, 0
3, 295291, Note_on_c, 0, 55, 0
3, 295297, Note_on_c, 0, 58, 0
3, 295622, Note_on_c, 0, 46, 19
3, 295634, Control_c, 0, 64, 0
3, 295681, Note_on_c, 0, 46, 0
3, 296120, Note_on_c, 0, 50, 89
3, 296130, Note_on_c, 0, 49, 67
3, 296132, Note_on_c, 0, 58, 75
3, 296133, Note_on_c, 0, 62, 76
3, 296134, Note_on_c, 0, 55, 78
3, 296136, Note_on_c, 0, 53, 83
3, 296187, Note_on_c, 0, 49, 0
3, 296339, Note_on_c, 0, 55, 0
3, 296340, Note_on_c, 0, 62, 0
3, 296387, Note_on_c, 0, 58, 0
3, 296463, Note_on_c, 0, 53, 0
3, 296499, Note_on_c, 0, 50, 0
3, 296509, Note_on_c, 0, 51, 42
3, 296538, Note_on_c, 0, 49, 27
3, 296602, Note_on_c, 0, 58, 77
3, 296603, Note_on_c, 0, 65, 70
3, 296608, Note_on_c, 0, 62, 47
3, 296611, Note_on_c, 0, 55, 68
3, 296637, Note_on_c, 0, 53, 81
3, 296674, Note_on_c, 0, 49, 0
3, 296718, Note_on_c, 0, 51, 0
3, 296776, Note_on_c, 0, 55, 0
3, 296785, Note_on_c, 0, 58, 0
3, 296789, Note_on_c, 0, 65, 0
3, 296797, Note_on_c, 0, 62, 0
3, 296964, Note_on_c, 0, 54, 37
3, 297030, Note_on_c, 0, 55, 56
3, 297062, Note_on_c, 0, 54, 0
3, 297073, Note_on_c, 0, 58, 71
3, 297078, Note_on_c, 0, 69, 50
3, 297079, Note_on_c, 0, 62, 64
3, 297088, Note_on_c, 0, 57, 90
3, 297090, Note_on_c, 0, 65, 61
3, 297145, Note_on_c, 0, 55, 0
3, 297148, Note_on_c, 0, 53, 0
3, 297189, Note_on_c, 0, 58, 0
3, 297227, Note_on_c, 0, 62, 0
3, 297243, Note_on_c, 0, 69, 0
3, 297245, Note_on_c, 0, 65, 0
3, 297375, Note_on_c, 0, 55, 48
3, 297385, Note_on_c, 0, 58, 39
3, 297389, Note_on_c, 0, 57, 0
3, 297433, Note_on_c, 0, 57, 41
3, 297487, Note_on_c, 0, 55, 0
3, 297492, Note_on_c, 0, 59, 71
3, 297513, Note_on_c, 0, 58, 0
3, 297542, Note_on_c, 0, 65, 64
3, 297545, Note_on_c, 0, 72, 58
3, 297550, Note_on_c, 0, 62, 55
3, 297553, Note_on_c, 0, 69, 55
3, 297556, Note_on_c, 0, 60, 66
3, 297568, Note_on_c, 0, 57, 0
3, 297630, Note_on_c, 0, 59, 0
3, 297659, Note_on_c, 0, 62, 0
3, 297699, Note_on_c, 0, 65, 0
3, 297729, Note_on_c, 0, 69, 0
3, 297745, Note_on_c, 0, 72, 0
3, 297817, Note_on_c, 0, 58, 48
3, 297833, Note_on_c, 0, 60, 0
3, 297845, Note_on_c, 0, 57, 27
3, 297914, Note_on_c, 0, 61, 55
3, 297915, Note_on_c, 0, 57, 0
3, 297944, Note_on_c, 0, 58, 0
3, 297980, Note_on_c, 0, 61, 0
3, 297980, Note_on_c, 0, 74, 65
3, 297981, Note_on_c, 0, 70, 61
3, 297994, Note_on_c, 0, 67, 66
3, 297998, Note_on_c, 0, 65, 66
3, 298001, Note_on_c, 0, 62, 44
3, 298014, Note_on_c, 0, 64, 78
3, 298163, Note_on_c, 0, 74, 0
3, 298166, Note_on_c, 0, 70, 0
3, 298174, Note_on_c, 0, 65, 0
3, 298196, Note_on_c, 0, 64, 0
3, 298241, Note_on_c, 0, 63, 36
3, 298247, Note_on_c, 0, 67, 0
3, 298254, Note_on_c, 0, 61, 19
3, 298294, Note_on_c, 0, 60, 36
3, 298343, Note_on_c, 0, 60, 0
3, 298359, Note_on_c, 0, 64, 51
3, 298380, Note_on_c, 0, 61, 0
3, 298416, Note_on_c, 0, 62, 0
3, 298421, Note_on_c, 0, 77, 57
3, 298423, Note_on_c, 0, 70, 57
3, 298435, Note_on_c, 0, 74, 53
3, 298438, Note_on_c, 0, 67, 35
3, 298472, Note_on_c, 0, 65, 80
3, 298497, Note_on_c, 0, 64, 0
3, 298519, Note_on_c, 0, 63, 0
3, 298544, Note_on_c, 0, 70, 0
3, 298559, Note_on_c, 0, 74, 0
3, 298565, Control_c, 0, 64, 127
3, 298578, Note_on_c, 0, 77, 0
3, 298584, Note_on_c, 0, 67, 0
3, 298700, Control_c, 0, 64, 0
3, 298708, Note_on_c, 0, 66, 39
3, 298735, Note_on_c, 0, 65, 0
3, 298833, Note_on_c, 0, 67, 60
3, 298852, Note_on_c, 0, 66, 0
3, 298876, Note_on_c, 0, 81, 48
3, 298878, Note_on_c, 0, 70, 56
3, 298888, Note_on_c, 0, 74, 63
3, 298904, Note_on_c, 0, 69, 78
3, 298911, Note_on_c, 0, 77, 49
3, 298941, Note_on_c, 0, 67, 0
3, 298981, Note_on_c, 0, 70, 0
3, 299008, Control_c, 0, 64, 127
3, 299010, Note_on_c, 0, 74, 0
3, 299027, Note_on_c, 0, 77, 0
3, 299058, Note_on_c, 0, 81, 0
3, 299177, Note_on_c, 0, 69, 0
3, 299182, Note_on_c, 0, 67, 48
3, 299192, Note_on_c, 0, 80, 44
3, 299203, Note_on_c, 0, 70, 33
3, 299250, Note_on_c, 0, 69, 61
3, 299266, Note_on_c, 0, 67, 0
3, 299293, Control_c, 0, 64, 0
3, 299298, Note_on_c, 0, 71, 67
3, 299304, Note_on_c, 0, 69, 0
3, 299321, Note_on_c, 0, 80, 0
3, 299334, Note_on_c, 0, 70, 0
3, 299375, Note_on_c, 0, 76, 56
3, 299383, Note_on_c, 0, 72, 79
3, 299384, Note_on_c, 0, 84, 53
3, 299387, Note_on_c, 0, 73, 48
3, 299412, Note_on_c, 0, 79, 32
3, 299425, Note_on_c, 0, 69, 24
3, 299447, Note_on_c, 0, 71, 0
3, 299468, Note_on_c, 0, 69, 0
3, 299664, Control_c, 0, 64, 127
3, 300021, Note_on_c, 0, 72, 0
3, 300022, Note_on_c, 0, 84, 0
3, 300023, Note_on_c, 0, 79, 0
3, 300041, Note_on_c, 0, 76, 0
3, 300136, Note_on_c, 0, 73, 0
3, 300331, Control_c, 0, 64, 0
3, 300388, Note_on_c, 0, 81, 63
3, 300404, Note_on_c, 0, 73, 46
3, 300410, Note_on_c, 0, 70, 53
3, 300423, Note_on_c, 0, 69, 49
3, 300425, Note_on_c, 0, 76, 50
3, 300515, Control_c, 0, 64, 127
3, 300812, Note_on_c, 0, 81, 0
3, 300848, Note_on_c, 0, 69, 0
3, 300951, Note_on_c, 0, 70, 0
3, 301003, Note_on_c, 0, 76, 0
3, 301119, Note_on_c, 0, 73, 0
3, 301306, Control_c, 0, 64, 0
3, 301411, Note_on_c, 0, 70, 53
3, 301422, Note_on_c, 0, 67, 45
3, 301425, Note_on_c, 0, 79, 36
3, 301427, Note_on_c, 0, 73, 36
3, 301441, Control_c, 0, 64, 127
3, 301456, Note_on_c, 0, 76, 30
3, 301539, Note_on_c, 0, 67, 0
3, 301667, Note_on_c, 0, 79, 0
3, 301683, Note_on_c, 0, 76, 0
3, 301704, Note_on_c, 0, 70, 0
3, 301770, Note_on_c, 0, 73, 0
3, 302293, Control_c, 0, 64, 0
3, 302361, Note_on_c, 0, 73, 37
3, 302369, Note_on_c, 0, 64, 51
3, 302379, Note_on_c, 0, 68, 47
3, 302394, Note_on_c, 0, 42, 32
3, 302411, Note_on_c, 0, 49, 29
3, 302492, Control_c, 0, 64, 127
3, 302555, Note_on_c, 0, 42, 0
3, 302639, Note_on_c, 0, 49, 0
3, 302916, Note_on_c, 0, 73, 0
3, 302938, Note_on_c, 0, 64, 0
3, 303086, Note_on_c, 0, 68, 0
3, 303330, Control_c, 0, 64, 0
3, 303394, Note_on_c, 0, 48, 33
3, 303397, Note_on_c, 0, 41, 25
3, 303408, Note_on_c, 0, 72, 36
3, 303414, Note_on_c, 0, 67, 32
3, 303416, Note_on_c, 0, 62, 31
3, 303416, Note_on_c, 0, 57, 34
3, 303520, Control_c, 0, 64, 127
3, 303648, Note_on_c, 0, 41, 0
3, 303713, Note_on_c, 0, 48, 0
3, 303814, Note_on_c, 0, 57, 0
3, 303875, Note_on_c, 0, 62, 0
3, 304173, Note_on_c, 0, 67, 0
3, 304308, Note_on_c, 0, 72, 0
3, 304375, Note_on_c, 0, 62, 29
3, 304383, Control_c, 0, 64, 0
3, 304406, Note_on_c, 0, 57, 41
3, 304412, Note_on_c, 0, 53, 18
3, 304413, Note_on_c, 0, 60, 24
3, 304420, Control_c, 0, 64, 127
3, 304832, Note_on_c, 0, 72, 53
3, 304858, Note_on_c, 0, 60, 0
3, 304889, Note_on_c, 0, 62, 0
3, 304902, Note_on_c, 0, 57, 0
3, 304913, Note_on_c, 0, 53, 0
3, 304976, Note_on_c, 0, 72, 0
3, 305054, Note_on_c, 0, 84, 57
3, 305227, Note_on_c, 0, 84, 0
3, 305298, Control_c, 0, 64, 0
3, 305306, Note_on_c, 0, 65, 34
3, 305320, Note_on_c, 0, 60, 27
3, 305321, Note_on_c, 0, 79, 44
3, 305330, Note_on_c, 0, 54, 23
3, 305522, Note_on_c, 0, 79, 0
3, 305687, Note_on_c, 0, 79, 56
3, 305917, Note_on_c, 0, 79, 0
3, 305984, Note_on_c, 0, 75, 51
3, 306271, Note_on_c, 0, 75, 0
3, 306292, Note_on_c, 0, 72, 44
3, 306298, Control_c, 0, 64, 127
3, 306536, Note_on_c, 0, 72, 0
3, 306822, Note_on_c, 0, 68, 51
3, 306866, Note_on_c, 0, 65, 0
3, 306940, Note_on_c, 0, 60, 0
3, 307075, Note_on_c, 0, 54, 0
3, 307174, Control_c, 0, 64, 0
3, 307264, Note_on_c, 0, 63, 36
3, 307286, Note_on_c, 0, 58, 53
3, 307287, Note_on_c, 0, 68, 0
3, 307292, Note_on_c, 0, 53, 24
3, 307293, Note_on_c, 0, 65, 39
3, 307420, Control_c, 0, 64, 127
3, 307757, Note_on_c, 0, 63, 0
3, 307847, Note_on_c, 0, 53, 0
3, 307861, Note_on_c, 0, 58, 0
3, 308188, Control_c, 0, 64, 0
3, 308269, Note_on_c, 0, 56, 44
3, 308272, Note_on_c, 0, 49, 30
3, 308373, Control_c, 0, 64, 127
3, 308570, Note_on_c, 0, 56, 0
3, 308591, Note_on_c, 0, 65, 0
3, 308634, Note_on_c, 0, 49, 0
3, 309076, Control_c, 0, 64, 0
3, 309180, Note_on_c, 0, 42, 31
3, 309191, Note_on_c, 0, 65, 41
3, 309192, Note_on_c, 0, 60, 33
3, 309250, Control_c, 0, 64, 127
3, 309454, Note_on_c, 0, 65, 0
3, 309567, Note_on_c, 0, 60, 0
3, 309791, Note_on_c, 0, 42, 0
3, 310064, Control_c, 0, 64, 0
3, 310105, Note_on_c, 0, 61, 34
3, 310118, Note_on_c, 0, 51, 29
3, 310120, Note_on_c, 0, 56, 37
3, 310131, Note_on_c, 0, 42, 29
3, 310155, Note_on_c, 0, 66, 25
3, 310261, Control_c, 0, 64, 127
3, 310361, Note_on_c, 0, 51, 0
3, 310402, Note_on_c, 0, 42, 0
3, 310566, Note_on_c, 0, 56, 0
3, 310592, Note_on_c, 0, 66, 0
3, 310734, Note_on_c, 0, 61, 0
3, 310966, Control_c, 0, 64, 0
3, 311052, Note_on_c, 0, 60, 33
3, 311070, Note_on_c, 0, 55, 30
3, 311071, Note_on_c, 0, 57, 32
3, 311072, Note_on_c, 0, 41, 26
3, 311076, Note_on_c, 0, 65, 34
3, 311095, Note_on_c, 0, 50, 22
3, 311108, Note_on_c, 0, 48, 33
3, 311163, Control_c, 0, 64, 127
3, 311562, Note_on_c, 0, 50, 0
3, 311711, Note_on_c, 0, 55, 0
3, 311713, Note_on_c, 0, 57, 0
3, 311737, Note_on_c, 0, 60, 0
3, 311821, Note_on_c, 0, 65, 0
3, 312044, Note_on_c, 0, 60, 42
3, 312063, Note_on_c, 0, 57, 35
3, 312064, Note_on_c, 0, 55, 35
3, 312069, Note_on_c, 0, 52, 32
3, 312172, Note_on_c, 0, 41, 0
3, 312176, Note_on_c, 0, 48, 0
3, 312263, Note_on_c, 0, 55, 0
3, 312268, Note_on_c, 0, 52, 0
3, 312293, Note_on_c, 0, 57, 0
3, 312372, Note_on_c, 0, 60, 0
3, 312978, Control_c, 0, 64, 0
3, 313022, Note_on_c, 0, 62, 62
3, 313028, Note_on_c, 0, 67, 49
3, 313030, Note_on_c, 0, 57, 50
3, 313033, Note_on_c, 0, 72, 50
3, 313266, Note_on_c, 0, 62, 0
3, 313282, Note_on_c, 0, 72, 0
3, 313309, Note_on_c, 0, 67, 0
3, 313341, Note_on_c, 0, 71, 38
3, 313354, Note_on_c, 0, 57, 0
3, 313371, Note_on_c, 0, 56, 44
3, 313502, Note_on_c, 0, 71, 0
3, 313596, Note_on_c, 0, 67, 48
3, 313599, Note_on_c, 0, 62, 41
3, 313600, Note_on_c, 0, 72, 53
3, 313601, Note_on_c, 0, 56, 0
3, 313622, Note_on_c, 0, 57, 47
3, 313757, Control_c, 0, 64, 127
3, 313907, Note_on_c, 0, 72, 0
3, 313939, Note_on_c, 0, 62, 0
3, 313966, Note_on_c, 0, 67, 0
3, 314460, Control_c, 0, 64, 0
3, 314564, Note_on_c, 0, 74, 64
3, 314575, Note_on_c, 0, 67, 57
3, 314578, Note_on_c, 0, 62, 53
3, 314584, Note_on_c, 0, 57, 0
3, 314598, Note_on_c, 0, 59, 50
3, 314732, Control_c, 0, 64, 127
3, 314734, Note_on_c, 0, 62, 0
3, 314738, Note_on_c, 0, 67, 0
3, 314746, Note_on_c, 0, 74, 0
3, 314936, Note_on_c, 0, 58, 57
3, 314943, Control_c, 0, 64, 0
3, 315028, Note_on_c, 0, 58, 0
3, 315046, Note_on_c, 0, 75, 51
3, 315048, Note_on_c, 0, 66, 57
3, 315061, Note_on_c, 0, 60, 65
3, 315067, Note_on_c, 0, 69, 52
3, 315069, Note_on_c, 0, 72, 48
3, 315088, Note_on_c, 0, 59, 0
3, 315212, Note_on_c, 0, 72, 0
3, 315219, Note_on_c, 0, 75, 0
3, 315223, Note_on_c, 0, 69, 0
3, 315306, Note_on_c, 0, 66, 0
3, 315316, Note_on_c, 0, 60, 0
3, 315325, Note_on_c, 0, 59, 39
3, 315402, Note_on_c, 0, 58, 58
3, 315436, Note_on_c, 0, 59, 0
3, 315517, Note_on_c, 0, 58, 0
3, 315536, Note_on_c, 0, 72, 41
3, 315536, Note_on_c, 0, 66, 46
3, 315542, Note_on_c, 0, 63, 39
3, 315554, Note_on_c, 0, 69, 36
3, 315556, Note_on_c, 0, 57, 42
3, 315740, Note_on_c, 0, 63, 0
3, 315791, Note_on_c, 0, 69, 0
3, 315793, Control_c, 0, 64, 127
3, 315815, Note_on_c, 0, 66, 0
3, 315836, Note_on_c, 0, 72, 0
3, 315845, Note_on_c, 0, 57, 0
3, 316301, Control_c, 0, 64, 0
3, 316344, Note_on_c, 0, 78, 55
3, 316352, Note_on_c, 0, 75, 48
3, 316357, Note_on_c, 0, 63, 37
3, 316362, Note_on_c, 0, 72, 51
3, 316375, Note_on_c, 0, 69, 34
3, 316473, Control_c, 0, 64, 127
3, 316569, Note_on_c, 0, 72, 0
3, 316575, Note_on_c, 0, 69, 0
3, 316605, Note_on_c, 0, 78, 0
3, 316625, Note_on_c, 0, 75, 0
3, 316856, Control_c, 0, 64, 0
3, 316925, Note_on_c, 0, 63, 0
3, 316938, Note_on_c, 0, 75, 57
3, 316954, Note_on_c, 0, 72, 38
3, 316967, Note_on_c, 0, 81, 33
3, 316976, Note_on_c, 0, 69, 19
3, 317015, Note_on_c, 0, 72, 0
3, 317036, Note_on_c, 0, 81, 0
3, 317041, Control_c, 0, 64, 127
3, 317053, Note_on_c, 0, 75, 0
3, 317088, Note_on_c, 0, 69, 0
3, 317386, Control_c, 0, 64, 0
3, 317398, Note_on_c, 0, 78, 61
3, 317407, Note_on_c, 0, 75, 57
3, 317412, Note_on_c, 0, 74, 60
3, 317414, Note_on_c, 0, 86, 73
3, 317437, Note_on_c, 0, 81, 42
3, 317672, Control_c, 0, 64, 127
3, 317762, Note_on_c, 0, 86, 0
3, 317768, Note_on_c, 0, 81, 0
3, 317783, Control_c, 0, 64, 0
3, 317788, Note_on_c, 0, 78, 0
3, 317790, Note_on_c, 0, 75, 0
3, 317879, Note_on_c, 0, 75, 63
3, 317892, Note_on_c, 0, 78, 46
3, 317895, Note_on_c, 0, 74, 0
3, 317895, Note_on_c, 0, 84, 57
3, 317905, Note_on_c, 0, 81, 44
3, 317907, Note_on_c, 0, 72, 46
3, 317931, Control_c, 0, 64, 127
3, 317959, Note_on_c, 0, 72, 0
3, 318045, Note_on_c, 0, 81, 0
3, 318054, Note_on_c, 0, 84, 0
3, 318077, Note_on_c, 0, 75, 0
3, 318089, Note_on_c, 0, 78, 0
3, 318312, Note_on_c, 0, 44, 51
3, 318316, Note_on_c, 0, 54, 45
3, 318507, Note_on_c, 0, 54, 0
3, 318650, Note_on_c, 0, 44, 0
3, 318697, Control_c, 0, 64, 0
3, 318789, Note_on_c, 0, 43, 38
3, 318819, Note_on_c, 0, 58, 55
3, 318820, Note_on_c, 0, 62, 46
3, 318821, Note_on_c, 0, 53, 44
3, 318835, Note_on_c, 0, 55, 30
3, 318894, Control_c, 0, 64, 127
3, 319310, Note_on_c, 0, 55, 0
3, 319338, Note_on_c, 0, 62, 0
3, 319354, Note_on_c, 0, 53, 0
3, 319357, Note_on_c, 0, 58, 0
3, 319641, Note_on_c, 0, 46, 18
3, 320104, Control_c, 0, 64, 0
3, 320195, Note_on_c, 0, 67, 70
3, 320196, Note_on_c, 0, 50, 24
3, 320205, Note_on_c, 0, 58, 77
3, 320206, Note_on_c, 0, 62, 71
3, 320231, Note_on_c, 0, 55, 58
3, 320241, Note_on_c, 0, 65, 39
3, 320302, Control_c, 0, 64, 127
3, 320333, Note_on_c, 0, 50, 0
3, 320369, Note_on_c, 0, 65, 0
3, 320372, Note_on_c, 0, 67, 0
3, 320381, Note_on_c, 0, 62, 0
3, 320395, Note_on_c, 0, 58, 0
3, 320555, Note_on_c, 0, 43, 0
3, 320598, Control_c, 0, 64, 0
3, 320722, Note_on_c, 0, 50, 58
3, 320724, Note_on_c, 0, 62, 64
3, 320725, Note_on_c, 0, 70, 64
3, 320733, Note_on_c, 0, 65, 60
3, 320747, Control_c, 0, 64, 127
3, 320749, Note_on_c, 0, 67, 49
3, 320754, Note_on_c, 0, 55, 0
3, 320818, Note_on_c, 0, 46, 0
3, 320843, Note_on_c, 0, 50, 0
3, 321080, Note_on_c, 0, 67, 0
3, 321093, Note_on_c, 0, 65, 0
3, 321098, Note_on_c, 0, 62, 0
3, 321152, Note_on_c, 0, 70, 0
3, 321229, Note_on_c, 0, 58, 43
3, 321660, Control_c, 0, 64, 0
3, 321684, Note_on_c, 0, 74, 65
3, 321687, Note_on_c, 0, 64, 61
3, 321694, Note_on_c, 0, 58, 0
3, 321696, Note_on_c, 0, 67, 58
3, 321697, Note_on_c, 0, 70, 53
3, 321705, Note_on_c, 0, 62, 54
3, 321811, Control_c, 0, 64, 127
3, 322069, Note_on_c, 0, 62, 0
3, 322171, Note_on_c, 0, 74, 0
3, 322196, Note_on_c, 0, 67, 0
3, 322235, Note_on_c, 0, 64, 0
3, 322432, Note_on_c, 0, 70, 0
3, 322557, Note_on_c, 0, 59, 24
3, 322564, Control_c, 0, 64, 0
3, 322613, Note_on_c, 0, 60, 53
3, 322620, Note_on_c, 0, 67, 59
3, 322628, Note_on_c, 0, 72, 55
3, 322631, Note_on_c, 0, 70, 37
3, 322632, Note_on_c, 0, 59, 0
3, 322634, Note_on_c, 0, 64, 58
3, 322724, Control_c, 0, 64, 127
3, 322836, Note_on_c, 0, 60, 0
3, 322881, Note_on_c, 0, 72, 0
3, 322903, Note_on_c, 0, 67, 0
3, 322944, Note_on_c, 0, 70, 0
3, 322984, Note_on_c, 0, 64, 0
3, 323573, Note_on_c, 0, 61, 42
3, 323577, Note_on_c, 0, 58, 47
3, 323587, Note_on_c, 0, 67, 44
3, 323588, Note_on_c, 0, 64, 50
3, 323905, Note_on_c, 0, 40, 54
3, 323922, Control_c, 0, 64, 0
3, 324135, Note_on_c, 0, 40, 0
3, 324161, Note_on_c, 0, 41, 57
3, 324289, Note_on_c, 0, 41, 0
3, 324348, Note_on_c, 0, 42, 37
3, 324447, Note_on_c, 0, 42, 0
3, 324487, Note_on_c, 0, 43, 33
3, 324656, Note_on_c, 0, 44, 39
3, 324661, Note_on_c, 0, 43, 0
3, 324849, Note_on_c, 0, 44, 0
3, 324862, Note_on_c, 0, 45, 55
3, 324959, Note_on_c, 0, 45, 0
3, 325015, Note_on_c, 0, 46, 67
3, 325416, Control_c, 0, 64, 127
3, 325436, Note_on_c, 0, 58, 0
3, 325539, Note_on_c, 0, 58, 44
3, 325576, Note_on_c, 0, 61, 0
3, 325761, Note_on_c, 0, 64, 0
3, 325778, Note_on_c, 0, 46, 0
3, 325781, Note_on_c, 0, 61, 57
3, 325788, Note_on_c, 0, 58, 0
3, 325798, Note_on_c, 0, 67, 0
3, 326001, Note_on_c, 0, 64, 57
3, 326003, Note_on_c, 0, 61, 0
3, 326191, Note_on_c, 0, 64, 0
3, 326272, Note_on_c, 0, 69, 29
3, 326349, Note_on_c, 0, 69, 0
3, 326405, Control_c, 0, 64, 0
3, 326451, Note_on_c, 0, 41, 36
3, 326455, Note_on_c, 0, 48, 32
3, 326463, Note_on_c, 0, 57, 42
3, 326470, Note_on_c, 0, 67, 18
3, 326479, Note_on_c, 0, 64, 48
3, 326566, Control_c, 0, 64, 127
3, 326701, Note_on_c, 0, 41, 0
3, 326727, Note_on_c, 0, 64, 0
3, 326755, Note_on_c, 0, 48, 0
3, 326782, Note_on_c, 0, 67, 0
3, 326835, Note_on_c, 0, 57, 0
3, 327445, Note_on_c, 0, 79, 71
3, 327450, Note_on_c, 0, 69, 78
3, 327453, Note_on_c, 0, 63, 74
3, 327454, Note_on_c, 0, 74, 79
3, 327777, Note_on_c, 0, 74, 0
3, 327795, Note_on_c, 0, 79, 0
3, 327816, Note_on_c, 0, 63, 0
3, 327824, Note_on_c, 0, 69, 0
3, 327878, Control_c, 0, 64, 0
3, 327943, Note_on_c, 0, 77, 67
3, 327949, Note_on_c, 0, 62, 55
3, 327964, Note_on_c, 0, 67, 65
3, 327970, Note_on_c, 0, 72, 61
3, 328026, Control_c, 0, 64, 127
3, 328135, Note_on_c, 0, 77, 0
3, 328181, Note_on_c, 0, 72, 0
3, 328225, Note_on_c, 0, 67, 0
3, 328346, Note_on_c, 0, 62, 0
3, 328379, Note_on_c, 0, 74, 59
3, 328384, Note_on_c, 0, 68, 57
3, 328396, Note_on_c, 0, 64, 49
3, 328409, Note_on_c, 0, 58, 58
3, 328458, Control_c, 0, 64, 0
3, 328630, Control_c, 0, 64, 127
3, 328675, Note_on_c, 0, 74, 0
3, 328732, Note_on_c, 0, 64, 0
3, 328755, Control_c, 0, 64, 0
3, 328756, Note_on_c, 0, 68, 0
3, 328797, Note_on_c, 0, 58, 0
3, 328830, Note_on_c, 0, 72, 50
3, 328851, Note_on_c, 0, 57, 49
3, 328855, Note_on_c, 0, 67, 57
3, 328857, Note_on_c, 0, 62, 49
3, 328952, Control_c, 0, 64, 127
3, 328980, Note_on_c, 0, 67, 0
3, 328993, Note_on_c, 0, 72, 0
3, 329053, Note_on_c, 0, 62, 0
3, 329198, Control_c, 0, 64, 0
3, 329238, Note_on_c, 0, 57, 0
3, 329265, Note_on_c, 0, 69, 56
3, 329274, Note_on_c, 0, 64, 60
3, 329279, Note_on_c, 0, 60, 47
3, 329293, Note_on_c, 0, 53, 33
3, 329335, Control_c, 0, 64, 127
3, 329361, Note_on_c, 0, 53, 0
3, 329412, Note_on_c, 0, 64, 0
3, 329471, Note_on_c, 0, 60, 0
3, 329510, Note_on_c, 0, 69, 0
3, 329763, Note_on_c, 0, 48, 41
3, 329766, Note_on_c, 0, 64, 37
3, 329817, Note_on_c, 0, 57, 19
3, 329883, Note_on_c, 0, 48, 0
3, 329896, Note_on_c, 0, 57, 0
3, 330069, Note_on_c, 0, 64, 0
3, 330186, Control_c, 0, 64, 0
3, 330228, Note_on_c, 0, 61, 49
3, 330243, Note_on_c, 0, 55, 36
3, 330273, Note_on_c, 0, 46, 30
3, 330278, Note_on_c, 0, 39, 37
3, 330347, Control_c, 0, 64, 127
3, 330480, Note_on_c, 0, 55, 0
3, 330509, Note_on_c, 0, 39, 0
3, 330576, Note_on_c, 0, 46, 0
3, 330640, Note_on_c, 0, 61, 0
3, 331165, Note_on_c, 0, 77, 73
3, 331171, Note_on_c, 0, 55, 49
3, 331172, Note_on_c, 0, 65, 60
3, 331176, Control_c, 0, 64, 0
3, 331184, Note_on_c, 0, 61, 43
3, 331207, Note_on_c, 0, 72, 58
3, 331372, Control_c, 0, 64, 127
3, 331435, Note_on_c, 0, 65, 0
3, 331468, Note_on_c, 0, 72, 0
3, 331520, Note_on_c, 0, 77, 0
3, 331586, Note_on_c, 0, 55, 0
3, 331635, Note_on_c, 0, 75, 60
3, 331638, Note_on_c, 0, 56, 65
3, 331648, Note_on_c, 0, 63, 42
3, 331654, Note_on_c, 0, 70, 51
3, 331664, Note_on_c, 0, 67, 45
3, 331698, Note_on_c, 0, 56, 0
3, 331719, Note_on_c, 0, 63, 0
3, 331743, Note_on_c, 0, 70, 0
3, 331775, Note_on_c, 0, 75, 0
3, 331791, Note_on_c, 0, 67, 0
3, 331925, Note_on_c, 0, 61, 0
3, 332089, Control_c, 0, 64, 0
3, 332094, Note_on_c, 0, 72, 50
3, 332100, Note_on_c, 0, 61, 68
3, 332101, Note_on_c, 0, 60, 46
3, 332102, Note_on_c, 0, 65, 66
3, 332128, Note_on_c, 0, 69, 40
3, 332376, Control_c, 0, 64, 127
3, 332426, Note_on_c, 0, 72, 0
3, 332462, Control_c, 0, 64, 0
3, 332464, Note_on_c, 0, 61, 0
3, 332487, Note_on_c, 0, 65, 0
3, 332496, Note_on_c, 0, 69, 0
3, 332561, Control_c, 0, 64, 127
3, 332570, Note_on_c, 0, 60, 0
3, 332586, Note_on_c, 0, 61, 55
3, 332599, Note_on_c, 0, 70, 49
3, 332607, Note_on_c, 0, 58, 54
3, 332610, Note_on_c, 0, 65, 38
3, 332740, Note_on_c, 0, 65, 0
3, 332749, Note_on_c, 0, 70, 0
3, 332797, Note_on_c, 0, 58, 0
3, 332834, Note_on_c, 0, 61, 0
3, 333005, Control_c, 0, 64, 0
3, 333053, Note_on_c, 0, 61, 51
3, 333068, Note_on_c, 0, 64, 53
3, 333072, Note_on_c, 0, 69, 47
3, 333078, Note_on_c, 0, 57, 43
3, 333104, Control_c, 0, 64, 127
3, 333210, Note_on_c, 0, 57, 0
3, 333239, Note_on_c, 0, 69, 0
3, 333262, Note_on_c, 0, 64, 0
3, 333380, Note_on_c, 0, 61, 0
3, 333522, Note_on_c, 0, 61, 47
3, 333530, Note_on_c, 0, 51, 37
3, 333549, Note_on_c, 0, 39, 34
3, 333550, Note_on_c, 0, 68, 38
3, 333751, Note_on_c, 0, 61, 0
3, 333757, Note_on_c, 0, 68, 0
3, 333781, Note_on_c, 0, 51, 0
3, 333801, Note_on_c, 0, 39, 0
3, 333956, Control_c, 0, 64, 0
3, 334011, Note_on_c, 0, 66, 51
3, 334012, Note_on_c, 0, 62, 39
3, 334020, Note_on_c, 0, 38, 43
3, 334039, Note_on_c, 0, 50, 20
3, 334166, Control_c, 0, 64, 127
3, 334215, Note_on_c, 0, 38, 0
3, 334322, Note_on_c, 0, 50, 0
3, 334572, Note_on_c, 0, 62, 0
3, 334630, Note_on_c, 0, 66, 0
3, 335018, Control_c, 0, 64, 0
3, 335031, Note_on_c, 0, 64, 55
3, 335038, Note_on_c, 0, 57, 39
3, 335041, Note_on_c, 0, 62, 44
3, 335070, Note_on_c, 0, 50, 27
3, 335228, Control_c, 0, 64, 127
3, 335633, Note_on_c, 0, 64, 0
3, 335650, Note_on_c, 0, 62, 0
3, 335694, Note_on_c, 0, 57, 0
3, 335994, Control_c, 0, 64, 0
3, 336061, Note_on_c, 0, 60, 44
3, 336067, Note_on_c, 0, 62, 48
3, 336191, Control_c, 0, 64, 127
3, 336355, Note_on_c, 0, 60, 0
3, 336455, Note_on_c, 0, 62, 0
3, 336512, Note_on_c, 0, 57, 38
3, 336784, Note_on_c, 0, 57, 0
3, 336841, Note_on_c, 0, 60, 51
3, 337415, Note_on_c, 0, 64, 54
3, 337608, Note_on_c, 0, 64, 0
3, 337682, Note_on_c, 0, 66, 59
3, 337684, Note_on_c, 0, 50, 0
3, 337779, Note_on_c, 0, 60, 0
3, 337917, Note_on_c, 0, 66, 0
3, 337981, Note_on_c, 0, 68, 56
3, 337994, Control_c, 0, 64, 0
3, 338005, Note_on_c, 0, 54, 32
3, 338011, Note_on_c, 0, 65, 33
3, 338031, Note_on_c, 0, 60, 25
3, 338234, Note_on_c, 0, 68, 0
3, 338241, Control_c, 0, 64, 127
3, 338320, Note_on_c, 0, 65, 0
3, 338381, Note_on_c, 0, 60, 0
3, 338461, Note_on_c, 0, 54, 0
3, 338634, Note_on_c, 0, 74, 36
3, 338866, Note_on_c, 0, 74, 0
3, 338899, Note_on_c, 0, 44, 50
3, 338908, Control_c, 0, 64, 0
3, 339082, Control_c, 0, 64, 127
3, 339309, Note_on_c, 0, 44, 0
3, 339823, Note_on_c, 0, 65, 48
3, 339829, Note_on_c, 0, 54, 37
3, 339834, Control_c, 0, 64, 0
3, 339849, Note_on_c, 0, 60, 39
3, 340031, Control_c, 0, 64, 127
3, 340187, Note_on_c, 0, 81, 51
3, 340363, Note_on_c, 0, 81, 0
3, 340470, Note_on_c, 0, 65, 0
3, 340475, Note_on_c, 0, 60, 0
3, 340482, Note_on_c, 0, 84, 57
3, 340577, Note_on_c, 0, 84, 0
3, 340747, Control_c, 0, 64, 0
3, 340795, Note_on_c, 0, 65, 44
3, 340814, Note_on_c, 0, 60, 34
3, 340826, Note_on_c, 0, 98, 79
3, 340909, Control_c, 0, 64, 127
3, 340939, Note_on_c, 0, 65, 0
3, 341038, Note_on_c, 0, 60, 0
3, 341101, Note_on_c, 0, 54, 0
3, 341134, Note_on_c, 0, 97, 64
3, 341170, Note_on_c, 0, 98, 0
3, 341355, Note_on_c, 0, 97, 0
3, 341449, Note_on_c, 0, 96, 68
3, 341700, Control_c, 0, 64, 0
3, 341702, Note_on_c, 0, 96, 0
3, 341753, Note_on_c, 0, 95, 62
3, 341769, Note_on_c, 0, 50, 35
3, 341772, Note_on_c, 0, 43, 31
3, 342012, Note_on_c, 0, 95, 0
3, 342031, Control_c, 0, 64, 127
3, 342058, Note_on_c, 0, 43, 0
3, 342099, Note_on_c, 0, 94, 62
3, 342121, Note_on_c, 0, 50, 0
3, 342357, Note_on_c, 0, 94, 0
3, 342442, Note_on_c, 0, 96, 67
3, 342696, Note_on_c, 0, 96, 0
3, 342711, Control_c, 0, 64, 0
3, 342743, Note_on_c, 0, 58, 43
3, 342747, Note_on_c, 0, 62, 27
3, 342760, Note_on_c, 0, 93, 70
3, 342781, Note_on_c, 0, 55, 13
3, 342838, Note_on_c, 0, 62, 0
3, 342950, Note_on_c, 0, 58, 0
3, 342957, Control_c, 0, 64, 127
3, 342973, Note_on_c, 0, 93, 0
3, 343008, Note_on_c, 0, 55, 0
3, 343036, Note_on_c, 0, 94, 60
3, 343199, Note_on_c, 0, 94, 0
3, 343289, Note_on_c, 0, 90, 60
3, 343474, Note_on_c, 0, 90, 0
3, 343512, Note_on_c, 0, 93, 71
3, 343588, Control_c, 0, 64, 0
3, 343674, Note_on_c, 0, 43, 30
3, 343709, Note_on_c, 0, 93, 0
3, 343726, Note_on_c, 0, 91, 55
3, 343737, Note_on_c, 0, 53, 14
3, 343822, Note_on_c, 0, 43, 0
3, 343847, Control_c, 0, 64, 127
3, 343894, Note_on_c, 0, 91, 0
3, 343910, Note_on_c, 0, 53, 0
3, 343928, Note_on_c, 0, 86, 56
3, 344054, Note_on_c, 0, 86, 0
3, 344148, Note_on_c, 0, 86, 53
3, 344263, Note_on_c, 0, 86, 0
3, 344385, Note_on_c, 0, 86, 55
3, 344500, Note_on_c, 0, 86, 0
3, 344600, Control_c, 0, 64, 0
3, 344637, Note_on_c, 0, 62, 24
3, 344650, Note_on_c, 0, 58, 32
3, 344672, Note_on_c, 0, 55, 14
3, 344687, Note_on_c, 0, 86, 62
3, 344787, Control_c, 0, 64, 127
3, 344873, Note_on_c, 0, 62, 0
3, 344942, Note_on_c, 0, 86, 0
3, 344982, Note_on_c, 0, 58, 0
3, 344991, Note_on_c, 0, 55, 0
3, 345001, Note_on_c, 0, 87, 38
3, 345084, Note_on_c, 0, 86, 57
3, 345160, Note_on_c, 0, 87, 0
3, 345243, Note_on_c, 0, 86, 0
3, 345283, Note_on_c, 0, 84, 24
3, 345396, Note_on_c, 0, 84, 0
3, 345458, Note_on_c, 0, 86, 57
3, 345552, Control_c, 0, 64, 0
3, 345562, Note_on_c, 0, 86, 0
3, 345628, Note_on_c, 0, 46, 46
3, 345641, Note_on_c, 0, 56, 34
3, 345720, Note_on_c, 0, 96, 58
3, 345786, Control_c, 0, 64, 127
3, 345908, Note_on_c, 0, 96, 0
3, 345912, Note_on_c, 0, 46, 0
3, 345976, Note_on_c, 0, 56, 0
3, 346037, Note_on_c, 0, 96, 64
3, 346178, Note_on_c, 0, 96, 0
3, 346275, Note_on_c, 0, 94, 69
3, 346390, Note_on_c, 0, 94, 0
3, 346512, Note_on_c, 0, 94, 56
3, 346536, Note_on_c, 0, 61, 37
3, 346551, Control_c, 0, 64, 0
3, 346559, Note_on_c, 0, 65, 36
3, 346721, Note_on_c, 0, 85, 43
3, 346731, Note_on_c, 0, 94, 0
3, 346749, Control_c, 0, 64, 127
3, 346890, Note_on_c, 0, 65, 0
3, 347150, Note_on_c, 0, 85, 0
3, 347168, Note_on_c, 0, 84, 45
3, 347258, Note_on_c, 0, 84, 0
3, 347412, Note_on_c, 0, 84, 50
3, 347478, Control_c, 0, 64, 0
3, 347544, Note_on_c, 0, 84, 0
3, 347593, Note_on_c, 0, 65, 30
3, 347618, Note_on_c, 0, 89, 58
3, 347621, Note_on_c, 0, 57, 32
3, 347724, Control_c, 0, 64, 127
3, 347754, Note_on_c, 0, 89, 0
3, 347848, Note_on_c, 0, 89, 59
3, 347983, Note_on_c, 0, 65, 0
3, 347988, Note_on_c, 0, 89, 0
3, 348063, Note_on_c, 0, 87, 45
3, 348128, Note_on_c, 0, 57, 0
3, 348154, Note_on_c, 0, 87, 0
3, 348278, Note_on_c, 0, 87, 61
3, 348334, Note_on_c, 0, 61, 0
3, 348416, Control_c, 0, 64, 0
3, 348461, Note_on_c, 0, 87, 0
3, 348487, Note_on_c, 0, 85, 35
3, 348488, Note_on_c, 0, 56, 42
3, 348492, Note_on_c, 0, 61, 35
3, 348498, Note_on_c, 0, 65, 28
3, 348652, Note_on_c, 0, 65, 0
3, 348668, Note_on_c, 0, 85, 0
3, 348689, Control_c, 0, 64, 127
3, 348715, Note_on_c, 0, 61, 0
3, 348717, Note_on_c, 0, 85, 21
3, 348744, Note_on_c, 0, 56, 0
3, 348928, Note_on_c, 0, 84, 57
3, 349008, Note_on_c, 0, 85, 0
3, 349047, Note_on_c, 0, 84, 0
3, 349220, Note_on_c, 0, 83, 32
3, 349279, Note_on_c, 0, 83, 0
3, 349355, Control_c, 0, 64, 0
3, 349397, Note_on_c, 0, 45, 46
3, 349407, Note_on_c, 0, 55, 39
3, 349450, Note_on_c, 0, 81, 53
3, 349626, Control_c, 0, 64, 127
3, 349726, Note_on_c, 0, 45, 0
3, 349816, Note_on_c, 0, 55, 0
3, 349932, Note_on_c, 0, 81, 0
3, 350052, Note_on_c, 0, 84, 76
3, 350248, Note_on_c, 0, 84, 0
3, 350356, Control_c, 0, 64, 0
3, 350359, Note_on_c, 0, 64, 34
3, 350363, Note_on_c, 0, 57, 33
3, 350390, Note_on_c, 0, 60, 33
3, 350396, Note_on_c, 0, 80, 31
3, 350486, Note_on_c, 0, 81, 50
3, 350516, Note_on_c, 0, 80, 0
3, 350582, Note_on_c, 0, 81, 0
3, 350725, Note_on_c, 0, 60, 0
3, 350728, Note_on_c, 0, 78, 56
3, 350750, Note_on_c, 0, 64, 0
3, 350842, Note_on_c, 0, 79, 37
3, 350852, Note_on_c, 0, 78, 0
3, 350895, Note_on_c, 0, 79, 0
3, 351043, Note_on_c, 0, 75, 56
3, 351145, Note_on_c, 0, 76, 62
3, 351185, Note_on_c, 0, 75, 0
3, 351259, Note_on_c, 0, 64, 38
3, 351270, Note_on_c, 0, 76, 0
3, 351335, Note_on_c, 0, 64, 0
3, 351418, Note_on_c, 0, 72, 56
3, 351575, Note_on_c, 0, 57, 0
3, 351586, Note_on_c, 0, 72, 0
3, 351647, Note_on_c, 0, 69, 51
3, 351761, Note_on_c, 0, 69, 0
3, 351902, Note_on_c, 0, 64, 62
3, 351936, Control_c, 0, 64, 127
3, 352084, Control_c, 0, 64, 0
3, 352087, Note_on_c, 0, 64, 0
3, 352227, Note_on_c, 0, 55, 33
3, 352231, Note_on_c, 0, 45, 36
3, 352237, Note_on_c, 0, 60, 32
3, 352253, Note_on_c, 0, 52, 27
3, 352270, Control_c, 0, 64, 127
3, 352650, Note_on_c, 0, 52, 0
3, 352682, Note_on_c, 0, 60, 0
3, 352727, Note_on_c, 0, 45, 0
3, 352744, Note_on_c, 0, 55, 0
3, 353134, Control_c, 0, 64, 0
3, 353261, Note_on_c, 0, 44, 38
3, 353295, Note_on_c, 0, 53, 19
3, 353368, Control_c, 0, 64, 127
3, 353542, Note_on_c, 0, 44, 0
3, 353577, Note_on_c, 0, 53, 0
3, 353819, Note_on_c, 0, 85, 64
3, 353842, Note_on_c, 0, 86, 73
3, 353861, Note_on_c, 0, 88, 45
3, 353863, Note_on_c, 0, 85, 0
3, 353909, Note_on_c, 0, 88, 0
3, 353979, Note_on_c, 0, 86, 0
3, 354222, Control_c, 0, 64, 0
3, 354227, Note_on_c, 0, 82, 74
3, 354273, Note_on_c, 0, 62, 37
3, 354302, Note_on_c, 0, 56, 35
3, 354314, Note_on_c, 0, 59, 32
3, 354342, Note_on_c, 0, 83, 51
3, 354345, Note_on_c, 0, 82, 0
3, 354377, Note_on_c, 0, 62, 0
3, 354431, Note_on_c, 0, 59, 0
3, 354432, Note_on_c, 0, 83, 0
3, 354475, Note_on_c, 0, 56, 0
3, 354612, Note_on_c, 0, 79, 66
3, 354698, Note_on_c, 0, 80, 30
3, 354718, Note_on_c, 0, 79, 0
3, 354850, Note_on_c, 0, 80, 0
3, 354995, Note_on_c, 0, 77, 68
3, 355142, Note_on_c, 0, 77, 0
3, 355253, Note_on_c, 0, 44, 39
3, 355276, Note_on_c, 0, 53, 27
3, 355373, Note_on_c, 0, 53, 0
3, 355406, Note_on_c, 0, 44, 0
3, 355454, Note_on_c, 0, 72, 66
3, 355545, Note_on_c, 0, 72, 0
3, 356010, Note_on_c, 0, 67, 42
3, 356089, Note_on_c, 0, 67, 0
3, 356237, Note_on_c, 0, 65, 47
3, 356251, Note_on_c, 0, 62, 32
3, 356293, Note_on_c, 0, 56, 31
3, 356296, Note_on_c, 0, 59, 24
3, 356309, Note_on_c, 0, 53, 17
3, 356314, Note_on_c, 0, 62, 0
3, 356369, Control_c, 0, 64, 127
3, 356370, Note_on_c, 0, 59, 0
3, 356415, Note_on_c, 0, 56, 0
3, 356416, Note_on_c, 0, 53, 0
3, 356658, Note_on_c, 0, 65, 0
3, 356800, Note_on_c, 0, 50, 34
3, 357069, Note_on_c, 0, 50, 0
3, 357134, Control_c, 0, 64, 0
3, 357138, Note_on_c, 0, 43, 38
3, 357278, Note_on_c, 0, 58, 55
3, 357320, Note_on_c, 0, 58, 0
3, 357417, Note_on_c, 0, 60, 29
3, 357474, Note_on_c, 0, 60, 0
3, 357479, Note_on_c, 0, 58, 52
3, 357624, Note_on_c, 0, 58, 0
3, 357664, Note_on_c, 0, 57, 34
3, 357826, Note_on_c, 0, 57, 0
3, 357860, Note_on_c, 0, 58, 54
3, 357909, Note_on_c, 0, 58, 0
3, 358057, Note_on_c, 0, 53, 26
3, 358102, Note_on_c, 0, 69, 68
3, 358150, Note_on_c, 0, 43, 0
3, 358219, Note_on_c, 0, 53, 0
3, 358259, Note_on_c, 0, 69, 0
3, 358403, Note_on_c, 0, 66, 57
3, 358506, Note_on_c, 0, 66, 0
3, 358647, Note_on_c, 0, 67, 64
3, 358853, Note_on_c, 0, 67, 0
3, 358962, Note_on_c, 0, 62, 45
3, 358973, Note_on_c, 0, 58, 49
3, 358993, Note_on_c, 0, 57, 31
3, 359060, Note_on_c, 0, 57, 0
3, 359069, Note_on_c, 0, 58, 0
3, 359172, Control_c, 0, 64, 127
3, 359406, Note_on_c, 0, 62, 0
3, 359568, Note_on_c, 0, 62, 56
3, 359716, Note_on_c, 0, 62, 0
3, 359926, Control_c, 0, 64, 0
3, 359961, Note_on_c, 0, 50, 41
3, 360160, Control_c, 0, 64, 127
3, 360274, Note_on_c, 0, 50, 0
3, 360630, Note_on_c, 0, 51, 48
3, 360803, Note_on_c, 0, 51, 0
3, 360988, Control_c, 0, 64, 0
3, 361038, Note_on_c, 0, 36, 48
3, 361458, Note_on_c, 0, 48, 62
3, 361713, Note_on_c, 0, 48, 0
3, 361771, Note_on_c, 0, 49, 60
3, 361957, Note_on_c, 0, 50, 66
3, 361963, Note_on_c, 0, 49, 0
3, 362071, Note_on_c, 0, 50, 0
3, 362120, Note_on_c, 0, 36, 0
3, 362132, Note_on_c, 0, 51, 50
3, 362244, Note_on_c, 0, 51, 0
3, 362280, Note_on_c, 0, 52, 58
3, 362398, Note_on_c, 0, 52, 0
3, 362474, Note_on_c, 0, 54, 57
3, 362615, Note_on_c, 0, 54, 0
3, 362674, Note_on_c, 0, 55, 50
3, 362789, Note_on_c, 0, 55, 0
3, 362860, Note_on_c, 0, 57, 62
3, 362996, Note_on_c, 0, 57, 0
3, 363012, Note_on_c, 0, 58, 59
3, 363099, Note_on_c, 0, 58, 0
3, 363141, Note_on_c, 0, 60, 62
3, 363257, Note_on_c, 0, 60, 0
3, 363306, Note_on_c, 0, 61, 51
3, 363405, Note_on_c, 0, 61, 0
3, 363454, Note_on_c, 0, 62, 62
3, 363521, Note_on_c, 0, 58, 36
3, 363553, Note_on_c, 0, 62, 0
3, 363616, Note_on_c, 0, 48, 14
3, 363627, Note_on_c, 0, 63, 59
3, 363754, Note_on_c, 0, 64, 62
3, 363761, Note_on_c, 0, 63, 0
3, 363901, Note_on_c, 0, 64, 0
3, 363924, Note_on_c, 0, 66, 48
3, 364041, Note_on_c, 0, 66, 0
3, 364079, Note_on_c, 0, 58, 0
3, 364083, Note_on_c, 0, 67, 32
3, 364144, Note_on_c, 0, 48, 0
3, 364206, Note_on_c, 0, 68, 48
3, 364224, Note_on_c, 0, 67, 0
3, 364264, Note_on_c, 0, 68, 0
3, 364315, Note_on_c, 0, 69, 17
3, 364432, Note_on_c, 0, 70, 56
3, 364439, Note_on_c, 0, 69, 0
3, 364514, Note_on_c, 0, 70, 0
3, 364524, Note_on_c, 0, 71, 48
3, 364634, Note_on_c, 0, 71, 0
3, 364700, Note_on_c, 0, 74, 64
3, 364856, Note_on_c, 0, 72, 43
3, 364862, Note_on_c, 0, 41, 27
3, 364875, Note_on_c, 0, 48, 41
3, 364876, Note_on_c, 0, 57, 30
3, 364983, Control_c, 0, 64, 127
3, 364984, Note_on_c, 0, 74, 0
3, 365205, Note_on_c, 0, 57, 0
3, 365232, Note_on_c, 0, 41, 0
3, 365308, Note_on_c, 0, 48, 0
3, 365380, Note_on_c, 0, 72, 0
3, 365445, Note_on_c, 0, 60, 36
3, 365852, Note_on_c, 0, 65, 44
3, 365854, Control_c, 0, 64, 0
3, 365870, Note_on_c, 0, 53, 17
3, 365894, Note_on_c, 0, 57, 32
3, 365986, Note_on_c, 0, 60, 0
3, 366001, Control_c, 0, 64, 127
3, 366083, Note_on_c, 0, 57, 0
3, 366279, Note_on_c, 0, 53, 0
3, 366363, Note_on_c, 0, 60, 46
3, 366454, Note_on_c, 0, 65, 0
3, 366628, Note_on_c, 0, 60, 0
3, 366779, Control_c, 0, 64, 0
3, 366810, Note_on_c, 0, 63, 42
3, 366813, Note_on_c, 0, 66, 46
3, 366824, Note_on_c, 0, 60, 35
3, 367266, Note_on_c, 0, 58, 55
3, 367697, Note_on_c, 0, 58, 0
3, 367726, Note_on_c, 0, 57, 50
3, 368205, Note_on_c, 0, 56, 56
3, 368211, Note_on_c, 0, 57, 0
3, 368284, Note_on_c, 0, 60, 0
3, 368561, Note_on_c, 0, 63, 0
3, 368582, Note_on_c, 0, 66, 0
3, 368620, Note_on_c, 0, 56, 0
3, 368670, Note_on_c, 0, 55, 38
3, 368693, Note_on_c, 0, 58, 38
3, 368717, Note_on_c, 0, 62, 29
3, 368737, Note_on_c, 0, 65, 30
3, 368842, Control_c, 0, 64, 127
3, 368994, Note_on_c, 0, 58, 0
3, 369093, Note_on_c, 0, 62, 0
3, 369136, Note_on_c, 0, 65, 0
3, 369150, Note_on_c, 0, 43, 36
3, 369171, Note_on_c, 0, 55, 0
3, 369242, Note_on_c, 0, 43, 0
3, 369665, Note_on_c, 0, 77, 43
3, 369670, Note_on_c, 0, 62, 35
3, 369676, Note_on_c, 0, 70, 38
3, 369681, Note_on_c, 0, 74, 46
3, 369692, Note_on_c, 0, 67, 34
3, 369808, Note_on_c, 0, 67, 0
3, 369817, Note_on_c, 0, 70, 0
3, 369838, Note_on_c, 0, 74, 0
3, 369846, Note_on_c, 0, 77, 0
3, 369854, Note_on_c, 0, 62, 0
3, 370164, Note_on_c, 0, 81, 72
3, 370383, Note_on_c, 0, 81, 0
3, 370608, Control_c, 0, 64, 0
3, 370640, Note_on_c, 0, 81, 58
3, 370649, Note_on_c, 0, 73, 38
3, 370652, Note_on_c, 0, 70, 42
3, 370664, Note_on_c, 0, 69, 37
3, 370668, Note_on_c, 0, 76, 48
3, 371078, Note_on_c, 0, 70, 0
3, 371078, Control_c, 0, 64, 127
3, 371093, Note_on_c, 0, 69, 0
3, 371123, Note_on_c, 0, 67, 42
3, 371128, Note_on_c, 0, 73, 0
3, 371130, Note_on_c, 0, 76, 0
3, 371174, Note_on_c, 0, 81, 0
3, 371546, Control_c, 0, 64, 0
3, 371562, Note_on_c, 0, 67, 0
3, 371600, Note_on_c, 0, 76, 58
3, 371603, Note_on_c, 0, 70, 53
3, 371606, Note_on_c, 0, 85, 69
3, 371619, Note_on_c, 0, 80, 57
3, 371985, Note_on_c, 0, 70, 0
3, 372015, Control_c, 0, 64, 127
3, 372067, Note_on_c, 0, 68, 38
3, 372379, Note_on_c, 0, 76, 0
3, 372382, Note_on_c, 0, 80, 0
3, 372435, Control_c, 0, 64, 0
3, 372448, Note_on_c, 0, 85, 0
3, 372492, Note_on_c, 0, 68, 0
3, 372525, Note_on_c, 0, 84, 42
3, 372534, Note_on_c, 0, 69, 47
3, 372544, Note_on_c, 0, 74, 46
3, 372551, Note_on_c, 0, 79, 44
3, 372608, Control_c, 0, 64, 127
3, 372654, Note_on_c, 0, 84, 0
3, 372674, Note_on_c, 0, 79, 0
3, 372826, Note_on_c, 0, 74, 0
3, 372980, Note_on_c, 0, 69, 0
3, 373019, Note_on_c, 0, 81, 42
3, 373021, Note_on_c, 0, 65, 47
3, 373024, Note_on_c, 0, 76, 55
3, 373088, Note_on_c, 0, 81, 0
3, 373103, Note_on_c, 0, 76, 0
3, 373127, Note_on_c, 0, 65, 0
3, 373473, Control_c, 0, 64, 0
3, 373518, Note_on_c, 0, 72, 41
3, 373523, Note_on_c, 0, 67, 53
3, 373557, Note_on_c, 0, 62, 19
3, 373658, Control_c, 0, 64, 127
3, 373793, Note_on_c, 0, 62, 0
3, 373833, Note_on_c, 0, 72, 0
3, 373841, Note_on_c, 0, 67, 0
3, 373879, Control_c, 0, 64, 0
3, 373951, Note_on_c, 0, 57, 46
3, 373955, Note_on_c, 0, 72, 33
3, 373964, Note_on_c, 0, 67, 37
3, 373971, Note_on_c, 0, 62, 41
3, 374161, Note_on_c, 0, 57, 0
3, 374171, Note_on_c, 0, 62, 0
3, 374174, Note_on_c, 0, 72, 0
3, 374194, Note_on_c, 0, 67, 0
3, 374423, Note_on_c, 0, 72, 37
3, 374426, Note_on_c, 0, 57, 40
3, 374430, Note_on_c, 0, 62, 44
3, 374435, Control_c, 0, 64, 127
3, 374437, Note_on_c, 0, 67, 45
3, 374659, Note_on_c, 0, 62, 0
3, 374664, Note_on_c, 0, 72, 0
3, 374668, Note_on_c, 0, 57, 0
3, 374843, Control_c, 0, 64, 0
3, 374844, Note_on_c, 0, 67, 0
3, 374892, Control_c, 0, 64, 127
3, 374898, Note_on_c, 0, 64, 58
3, 374903, Note_on_c, 0, 59, 44
3, 374909, Note_on_c, 0, 74, 44
3, 374919, Note_on_c, 0, 67, 19
3, 374954, Control_c, 0, 64, 0
3, 375072, Note_on_c, 0, 74, 0
3, 375201, Note_on_c, 0, 64, 0
3, 375254, Note_on_c, 0, 67, 0
3, 375315, Note_on_c, 0, 59, 0
3, 375328, Note_on_c, 0, 72, 49
3, 375344, Note_on_c, 0, 62, 49
3, 375349, Control_c, 0, 64, 127
3, 375354, Note_on_c, 0, 67, 36
3, 375359, Note_on_c, 0, 57, 55
3, 375538, Note_on_c, 0, 72, 0
3, 375556, Note_on_c, 0, 62, 0
3, 375688, Note_on_c, 0, 67, 0
3, 375757, Control_c, 0, 64, 0
3, 375817, Note_on_c, 0, 74, 68
3, 375828, Note_on_c, 0, 64, 60
3, 375837, Note_on_c, 0, 67, 58
3, 375848, Note_on_c, 0, 59, 53
3, 375853, Note_on_c, 0, 57, 0
3, 375960, Note_on_c, 0, 64, 0
3, 375973, Note_on_c, 0, 67, 0
3, 375992, Note_on_c, 0, 74, 0
3, 376118, Note_on_c, 0, 59, 0
3, 376285, Note_on_c, 0, 59, 43
3, 376305, Note_on_c, 0, 75, 62
3, 376316, Note_on_c, 0, 60, 67
3, 376321, Note_on_c, 0, 66, 49
3, 376331, Note_on_c, 0, 69, 50
3, 376354, Note_on_c, 0, 72, 44
3, 376356, Note_on_c, 0, 59, 0
3, 376573, Note_on_c, 0, 75, 0
3, 376576, Note_on_c, 0, 69, 0
3, 376585, Note_on_c, 0, 66, 0
3, 376592, Note_on_c, 0, 60, 0
3, 376637, Note_on_c, 0, 72, 0
3, 376756, Note_on_c, 0, 75, 60
3, 376772, Note_on_c, 0, 66, 57
3, 376778, Note_on_c, 0, 60, 54
3, 376783, Note_on_c, 0, 72, 34
3, 376786, Note_on_c, 0, 69, 54
3, 376908, Note_on_c, 0, 75, 0
3, 376909, Note_on_c, 0, 69, 0
3, 376922, Note_on_c, 0, 72, 0
3, 376974, Note_on_c, 0, 66, 0
3, 377010, Note_on_c, 0, 60, 0
3, 377036, Note_on_c, 0, 59, 44
3, 377108, Note_on_c, 0, 58, 47
3, 377116, Note_on_c, 0, 59, 0
3, 377207, Note_on_c, 0, 58, 0
3, 377223, Note_on_c, 0, 66, 50
3, 377227, Note_on_c, 0, 63, 44
3, 377243, Note_on_c, 0, 72, 20
3, 377244, Note_on_c, 0, 69, 35
3, 377246, Note_on_c, 0, 57, 38
3, 377414, Note_on_c, 0, 72, 0
3, 377428, Note_on_c, 0, 66, 0
3, 377430, Note_on_c, 0, 57, 0
3, 377436, Note_on_c, 0, 69, 0
3, 377439, Note_on_c, 0, 63, 0
3, 377660, Note_on_c, 0, 57, 57
3, 377679, Note_on_c, 0, 72, 46
3, 377692, Note_on_c, 0, 63, 50
3, 377695, Note_on_c, 0, 66, 50
3, 377803, Note_on_c, 0, 72, 0
3, 377853, Note_on_c, 0, 63, 0
3, 377855, Note_on_c, 0, 66, 0
3, 377909, Note_on_c, 0, 57, 0
3, 377913, Note_on_c, 0, 56, 35
3, 377955, Note_on_c, 0, 56, 0
3, 377959, Note_on_c, 0, 55, 54
3, 378087, Note_on_c, 0, 63, 42
3, 378090, Note_on_c, 0, 60, 50
3, 378099, Note_on_c, 0, 69, 36
3, 378104, Note_on_c, 0, 66, 31
3, 378135, Note_on_c, 0, 54, 48
3, 378167, Note_on_c, 0, 55, 0
3, 378175, Note_on_c, 0, 54, 0
3, 378193, Note_on_c, 0, 60, 0
3, 378200, Note_on_c, 0, 69, 0
3, 378215, Note_on_c, 0, 63, 0
3, 378223, Note_on_c, 0, 66, 0
3, 378353, Note_on_c, 0, 54, 56
3, 378360, Note_on_c, 0, 63, 46
3, 378368, Note_on_c, 0, 69, 45
3, 378371, Note_on_c, 0, 66, 37
3, 378393, Note_on_c, 0, 60, 39
3, 378462, Note_on_c, 0, 69, 0
3, 378482, Note_on_c, 0, 66, 0
3, 378490, Note_on_c, 0, 63, 0
3, 378518, Note_on_c, 0, 60, 0
3, 378550, Note_on_c, 0, 54, 0
3, 378753, Note_on_c, 0, 52, 49
3, 378778, Note_on_c, 0, 66, 48
3, 378790, Note_on_c, 0, 57, 46
3, 378798, Note_on_c, 0, 63, 38
3, 378805, Note_on_c, 0, 52, 0
3, 378809, Note_on_c, 0, 60, 53
3, 378891, Note_on_c, 0, 57, 0
3, 378907, Note_on_c, 0, 60, 0
3, 378934, Note_on_c, 0, 66, 0
3, 378954, Note_on_c, 0, 63, 0
3, 379046, Note_on_c, 0, 66, 53
3, 379055, Note_on_c, 0, 63, 46
3, 379064, Note_on_c, 0, 51, 59
3, 379066, Note_on_c, 0, 57, 54
3, 379082, Note_on_c, 0, 60, 43
3, 379301, Control_c, 0, 64, 127
3, 379375, Control_c, 0, 64, 0
3, 379417, Note_on_c, 0, 51, 0
3, 379437, Control_c, 0, 64, 127
3, 379657, Note_on_c, 0, 50, 44
3, 379868, Note_on_c, 0, 50, 0
3, 379880, Note_on_c, 0, 60, 0
3, 379896, Note_on_c, 0, 57, 0
3, 379943, Note_on_c, 0, 44, 42
3, 379997, Note_on_c, 0, 66, 0
3, 380006, Note_on_c, 0, 44, 0
3, 380015, Note_on_c, 0, 63, 0
3, 380030, Control_c, 0, 64, 0
3, 380170, Note_on_c, 0, 62, 50
3, 380171, Note_on_c, 0, 58, 50
3, 380185, Note_on_c, 0, 43, 45
3, 380203, Control_c, 0, 64, 127
3, 380211, Note_on_c, 0, 55, 27
3, 380436, Note_on_c, 0, 55, 0
3, 380483, Note_on_c, 0, 43, 0
3, 380554, Note_on_c, 0, 58, 0
3, 380558, Note_on_c, 0, 62, 0
3, 381170, Note_on_c, 0, 62, 37
3, 381194, Note_on_c, 0, 58, 38
3, 381278, Note_on_c, 0, 53, 14
3, 381348, Note_on_c, 0, 62, 0
3, 381436, Note_on_c, 0, 58, 0
3, 381524, Note_on_c, 0, 53, 0
3, 381779, Note_on_c, 0, 62, 58
3, 381922, Note_on_c, 0, 62, 0
3, 382129, Control_c, 0, 64, 0
3, 382158, Note_on_c, 0, 55, 27
3, 382160, Note_on_c, 0, 62, 31
3, 382161, Note_on_c, 0, 67, 60
3, 382165, Note_on_c, 0, 58, 36
3, 382204, Note_on_c, 0, 62, 0
3, 382283, Note_on_c, 0, 58, 0
3, 382289, Note_on_c, 0, 55, 0
3, 382381, Note_on_c, 0, 67, 0
3, 382464, Note_on_c, 0, 70, 39
3, 382598, Control_c, 0, 64, 127
3, 382707, Note_on_c, 0, 70, 0
3, 382769, Note_on_c, 0, 74, 57
3, 382909, Note_on_c, 0, 74, 0
3, 383053, Note_on_c, 0, 37, 46
3, 383105, Control_c, 0, 64, 0
3, 383133, Note_on_c, 0, 73, 57
3, 383146, Note_on_c, 0, 85, 53
3, 383170, Note_on_c, 0, 37, 0
3, 383351, Control_c, 0, 64, 127
3, 383627, Note_on_c, 0, 73, 0
3, 383670, Note_on_c, 0, 85, 0
3, 383739, Note_on_c, 0, 84, 51
3, 383758, Note_on_c, 0, 72, 39
3, 383945, Control_c, 0, 64, 0
3, 384036, Note_on_c, 0, 36, 26
3, 384056, Note_on_c, 0, 52, 33
3, 384093, Control_c, 0, 64, 127
3, 384179, Note_on_c, 0, 36, 0
3, 384292, Note_on_c, 0, 52, 0
3, 384981, Note_on_c, 0, 64, 44
3, 385006, Note_on_c, 0, 58, 38
3, 385017, Note_on_c, 0, 55, 24
3, 385018, Note_on_c, 0, 60, 35
3, 385178, Note_on_c, 0, 84, 0
3, 385317, Note_on_c, 0, 72, 0
3, 385359, Note_on_c, 0, 60, 0
3, 385364, Note_on_c, 0, 64, 0
3, 385413, Note_on_c, 0, 58, 0
3, 385464, Note_on_c, 0, 55, 0
3, 385938, Note_on_c, 0, 80, 61
3, 385971, Control_c, 0, 64, 0
3, 385991, Note_on_c, 0, 76, 68
3, 385995, Note_on_c, 0, 64, 56
3, 385997, Note_on_c, 0, 58, 51
3, 386012, Note_on_c, 0, 73, 59
3, 386031, Note_on_c, 0, 78, 25
3, 386111, Note_on_c, 0, 69, 11
3, 386186, Note_on_c, 0, 64, 0
3, 386236, Note_on_c, 0, 58, 0
3, 386284, Control_c, 0, 64, 127
3, 386495, Note_on_c, 0, 48, 59
3, 386594, Note_on_c, 0, 69, 0
3, 386608, Note_on_c, 0, 48, 0
3, 386613, Note_on_c, 0, 73, 0
3, 386637, Note_on_c, 0, 76, 0
3, 386677, Note_on_c, 0, 80, 0
3, 386833, Note_on_c, 0, 78, 0
3, 386943, Note_on_c, 0, 81, 52
3, 386984, Note_on_c, 0, 76, 70
3, 386988, Control_c, 0, 64, 0
3, 386992, Note_on_c, 0, 64, 55
3, 387010, Note_on_c, 0, 58, 50
3, 387022, Note_on_c, 0, 73, 34
3, 387030, Note_on_c, 0, 69, 36
3, 387094, Note_on_c, 0, 64, 0
3, 387142, Note_on_c, 0, 58, 0
3, 387160, Control_c, 0, 64, 127
3, 387333, Note_on_c, 0, 56, 34
3, 387373, Note_on_c, 0, 56, 0
3, 387403, Note_on_c, 0, 81, 0
3, 387433, Note_on_c, 0, 76, 0
3, 387450, Note_on_c, 0, 48, 57
3, 387488, Note_on_c, 0, 73, 0
3, 387489, Note_on_c, 0, 69, 0
3, 387914, Control_c, 0, 64, 0
3, 387927, Note_on_c, 0, 79, 74
3, 387946, Note_on_c, 0, 76, 68
3, 387956, Note_on_c, 0, 57, 62
3, 387961, Note_on_c, 0, 72, 66
3, 387971, Note_on_c, 0, 67, 67
3, 388148, Control_c, 0, 64, 127
3, 388173, Note_on_c, 0, 48, 0
3, 388403, Note_on_c, 0, 48, 66
3, 388532, Note_on_c, 0, 57, 0
3, 388535, Note_on_c, 0, 76, 0
3, 388550, Note_on_c, 0, 79, 0
3, 388570, Note_on_c, 0, 72, 0
3, 388598, Note_on_c, 0, 67, 0
3, 388865, Control_c, 0, 64, 0
3, 388867, Note_on_c, 0, 77, 71
3, 388873, Note_on_c, 0, 57, 63
3, 388885, Note_on_c, 0, 72, 70
3, 388890, Note_on_c, 0, 65, 71
3, 388895, Note_on_c, 0, 60, 61
3, 388952, Control_c, 0, 64, 127
3, 389175, Note_on_c, 0, 60, 0
3, 389215, Note_on_c, 0, 48, 0
3, 389324, Note_on_c, 0, 77, 0
3, 389375, Note_on_c, 0, 72, 0
3, 389377, Note_on_c, 0, 48, 73
3, 389430, Note_on_c, 0, 57, 0
3, 389448, Note_on_c, 0, 65, 0
3, 389815, Control_c, 0, 64, 0
3, 389844, Note_on_c, 0, 58, 72
3, 389850, Note_on_c, 0, 72, 58
3, 389855, Note_on_c, 0, 67, 76
3, 389857, Note_on_c, 0, 62, 69
3, 390026, Control_c, 0, 64, 127
3, 390080, Note_on_c, 0, 48, 0
3, 390329, Note_on_c, 0, 58, 0
3, 390336, Note_on_c, 0, 48, 56
3, 390380, Note_on_c, 0, 67, 0
3, 390382, Note_on_c, 0, 72, 0
3, 390527, Note_on_c, 0, 62, 0
3, 390780, Control_c, 0, 64, 0
3, 390800, Note_on_c, 0, 69, 57
3, 390803, Note_on_c, 0, 64, 63
3, 390805, Note_on_c, 0, 60, 53
3, 390808, Note_on_c, 0, 57, 50
3, 390911, Note_on_c, 0, 48, 0
3, 390915, Control_c, 0, 64, 127
3, 391173, Note_on_c, 0, 64, 0
3, 391182, Note_on_c, 0, 60, 0
3, 391223, Note_on_c, 0, 57, 0
3, 391259, Note_on_c, 0, 48, 40
3, 391270, Note_on_c, 0, 69, 0
3, 391363, Note_on_c, 0, 48, 0
3, 391745, Note_on_c, 0, 61, 52
3, 391751, Note_on_c, 0, 69, 38
3, 391756, Control_c, 0, 64, 0
3, 391768, Note_on_c, 0, 65, 55
3, 391770, Note_on_c, 0, 39, 37
3, 391778, Note_on_c, 0, 55, 36
3, 391789, Note_on_c, 0, 57, 34
3, 391793, Note_on_c, 0, 66, 27
3, 391802, Note_on_c, 0, 46, 25
3, 392051, Control_c, 0, 64, 127
3, 392346, Note_on_c, 0, 39, 0
3, 392370, Note_on_c, 0, 55, 0
3, 392382, Note_on_c, 0, 57, 0
3, 392437, Note_on_c, 0, 65, 0
3, 392524, Note_on_c, 0, 61, 0
3, 392597, Note_on_c, 0, 66, 0
3, 392747, Note_on_c, 0, 61, 43
3, 392751, Note_on_c, 0, 55, 33
3, 392770, Note_on_c, 0, 65, 45
3, 392829, Control_c, 0, 64, 0
3, 392853, Control_c, 0, 64, 127
3, 393049, Note_on_c, 0, 61, 0
3, 393068, Note_on_c, 0, 46, 0
3, 393110, Note_on_c, 0, 55, 0
3, 393143, Note_on_c, 0, 65, 0
3, 393180, Note_on_c, 0, 69, 0
3, 393679, Note_on_c, 0, 61, 39
3, 393694, Note_on_c, 0, 81, 71
3, 393703, Note_on_c, 0, 65, 48
3, 393707, Note_on_c, 0, 55, 32
3, 393708, Note_on_c, 0, 72, 68
3, 393717, Control_c, 0, 64, 0
3, 393719, Note_on_c, 0, 77, 58
3, 393818, Note_on_c, 0, 77, 0
3, 393841, Control_c, 0, 64, 127
3, 393962, Note_on_c, 0, 72, 0
3, 393982, Note_on_c, 0, 77, 57
3, 393994, Note_on_c, 0, 81, 0
3, 394029, Note_on_c, 0, 77, 0
3, 394076, Note_on_c, 0, 65, 0
3, 394125, Note_on_c, 0, 61, 0
3, 394231, Note_on_c, 0, 84, 79
3, 394236, Note_on_c, 0, 77, 76
3, 394625, Note_on_c, 0, 77, 0
3, 394636, Note_on_c, 0, 84, 0
3, 394698, Note_on_c, 0, 81, 50
3, 394703, Note_on_c, 0, 61, 42
3, 394709, Note_on_c, 0, 65, 40
3, 394711, Note_on_c, 0, 72, 35
3, 394853, Control_c, 0, 64, 0
3, 394876, Note_on_c, 0, 72, 0
3, 394954, Note_on_c, 0, 77, 56
3, 394960, Note_on_c, 0, 55, 0
3, 394965, Control_c, 0, 64, 127
3, 395136, Note_on_c, 0, 81, 0
3, 395177, Note_on_c, 0, 77, 0
3, 395183, Note_on_c, 0, 72, 36
3, 395208, Note_on_c, 0, 55, 30
3, 395357, Note_on_c, 0, 65, 0
3, 395405, Note_on_c, 0, 55, 0
3, 395420, Note_on_c, 0, 61, 0
3, 395432, Note_on_c, 0, 72, 0
3, 395608, Control_c, 0, 64, 0
3, 395651, Note_on_c, 0, 50, 51
3, 395779, Control_c, 0, 64, 127
3, 395889, Note_on_c, 0, 50, 0
3, 396461, Note_on_c, 0, 55, 36
3, 396472, Note_on_c, 0, 64, 45
3, 396509, Control_c, 0, 64, 0
3, 396511, Note_on_c, 0, 60, 33
3, 396607, Control_c, 0, 64, 127
3, 396882, Note_on_c, 0, 64, 0
3, 396929, Note_on_c, 0, 60, 0
3, 396940, Note_on_c, 0, 55, 0
3, 397374, Control_c, 0, 64, 0
3, 397430, Note_on_c, 0, 64, 52
3, 397446, Note_on_c, 0, 54, 33
3, 397460, Note_on_c, 0, 60, 33
3, 397583, Control_c, 0, 64, 127
3, 397756, Note_on_c, 0, 64, 0
3, 397870, Note_on_c, 0, 60, 0
3, 398001, Note_on_c, 0, 74, 88
3, 398002, Note_on_c, 0, 54, 0
3, 398362, Control_c, 0, 64, 0
3, 398383, Note_on_c, 0, 64, 51
3, 398389, Note_on_c, 0, 67, 47
3, 398404, Note_on_c, 0, 69, 38
3, 398405, Note_on_c, 0, 62, 35
3, 398485, Note_on_c, 0, 64, 0
3, 398505, Note_on_c, 0, 67, 0
3, 398527, Note_on_c, 0, 62, 0
3, 398528, Note_on_c, 0, 69, 0
3, 398776, Note_on_c, 0, 67, 36
3, 398778, Note_on_c, 0, 64, 34
3, 398804, Note_on_c, 0, 69, 22
3, 398809, Note_on_c, 0, 62, 30
3, 398850, Note_on_c, 0, 64, 0
3, 398862, Note_on_c, 0, 67, 0
3, 398891, Note_on_c, 0, 69, 0
3, 398895, Note_on_c, 0, 62, 0
3, 399090, Note_on_c, 0, 50, 40
3, 399410, Note_on_c, 0, 62, 34
3, 399410, Note_on_c, 0, 66, 33
3, 399414, Note_on_c, 0, 64, 28
3, 399417, Note_on_c, 0, 68, 35
3, 399472, Note_on_c, 0, 62, 0
3, 399526, Note_on_c, 0, 64, 0
3, 399531, Note_on_c, 0, 66, 0
3, 399570, Note_on_c, 0, 68, 0
3, 399760, Note_on_c, 0, 64, 43
3, 399766, Note_on_c, 0, 66, 50
3, 399776, Note_on_c, 0, 68, 38
3, 399801, Note_on_c, 0, 62, 32
3, 399891, Note_on_c, 0, 64, 0
3, 399912, Note_on_c, 0, 66, 0
3, 399934, Note_on_c, 0, 68, 0
3, 399936, Note_on_c, 0, 50, 0
3, 400032, Note_on_c, 0, 62, 0
3, 400075, Note_on_c, 0, 50, 31
3, 400370, Note_on_c, 0, 64, 47
3, 400378, Note_on_c, 0, 67, 40
3, 400394, Note_on_c, 0, 69, 36
3, 400396, Note_on_c, 0, 62, 38
3, 400498, Note_on_c, 0, 62, 0
3, 400539, Note_on_c, 0, 67, 0
3, 400542, Note_on_c, 0, 69, 0
3, 400544, Note_on_c, 0, 64, 0
3, 400690, Note_on_c, 0, 64, 38
3, 400691, Note_on_c, 0, 67, 44
3, 400699, Note_on_c, 0, 69, 44
3, 400715, Note_on_c, 0, 62, 45
3, 400802, Note_on_c, 0, 64, 0
3, 400821, Note_on_c, 0, 67, 0
3, 400832, Note_on_c, 0, 69, 0
3, 400837, Note_on_c, 0, 50, 0
3, 400965, Note_on_c, 0, 62, 0
3, 401057, Note_on_c, 0, 50, 30
3, 401342, Note_on_c, 0, 68, 44
3, 401343, Note_on_c, 0, 70, 48
3, 401348, Note_on_c, 0, 65, 33
3, 401363, Note_on_c, 0, 62, 41
3, 401426, Note_on_c, 0, 65, 0
3, 401464, Note_on_c, 0, 68, 0
3, 401471, Note_on_c, 0, 62, 0
3, 401491, Note_on_c, 0, 70, 0
3, 401658, Note_on_c, 0, 70, 37
3, 401661, Note_on_c, 0, 68, 31
3, 401681, Note_on_c, 0, 62, 35
3, 401768, Note_on_c, 0, 50, 0
3, 401799, Note_on_c, 0, 68, 0
3, 401814, Note_on_c, 0, 70, 0
3, 401881, Note_on_c, 0, 62, 0
3, 401932, Note_on_c, 0, 74, 0
3, 401980, Note_on_c, 0, 50, 35
3, 402226, Note_on_c, 0, 71, 52
3, 402251, Control_c, 0, 64, 127
3, 402255, Note_on_c, 0, 62, 43
3, 402279, Note_on_c, 0, 65, 25
3, 402284, Note_on_c, 0, 69, 24
3, 402399, Note_on_c, 0, 50, 0
3, 402404, Note_on_c, 0, 69, 0
3, 402422, Note_on_c, 0, 71, 0
3, 402425, Note_on_c, 0, 65, 0
3, 402568, Note_on_c, 0, 65, 43
3, 402586, Note_on_c, 0, 69, 35
3, 402587, Note_on_c, 0, 71, 34
3, 402640, Note_on_c, 0, 65, 0
3, 402653, Note_on_c, 0, 69, 0
3, 402666, Note_on_c, 0, 71, 0
3, 402793, Note_on_c, 0, 62, 0
3, 402862, Note_on_c, 0, 50, 43
3, 402918, Note_on_c, 0, 50, 0
3, 403163, Note_on_c, 0, 62, 44
3, 403176, Control_c, 0, 64, 0
3, 403179, Note_on_c, 0, 65, 45
3, 403196, Note_on_c, 0, 72, 44
3, 403197, Note_on_c, 0, 70, 49
3, 403208, Note_on_c, 0, 60, 38
3, 403226, Note_on_c, 0, 58, 33
3, 403319, Note_on_c, 0, 65, 0
3, 403348, Note_on_c, 0, 70, 0
3, 403357, Note_on_c, 0, 72, 0
3, 403398, Note_on_c, 0, 62, 0
3, 403439, Note_on_c, 0, 60, 0
3, 403462, Control_c, 0, 64, 127
3, 403470, Note_on_c, 0, 58, 0
3, 403502, Note_on_c, 0, 65, 45
3, 403516, Note_on_c, 0, 72, 29
3, 403520, Note_on_c, 0, 70, 37
3, 403598, Note_on_c, 0, 65, 0
3, 403606, Note_on_c, 0, 70, 0
3, 403611, Note_on_c, 0, 72, 0
3, 403622, Control_c, 0, 64, 0
3, 403781, Control_c, 0, 64, 127
3, 403797, Note_on_c, 0, 43, 32
3, 404033, Note_on_c, 0, 43, 0
3, 404090, Control_c, 0, 64, 0
3, 404132, Note_on_c, 0, 57, 58
3, 404143, Note_on_c, 0, 58, 56
3, 404153, Note_on_c, 0, 62, 49
3, 404171, Note_on_c, 0, 65, 49
3, 404252, Control_c, 0, 64, 127
3, 404603, Note_on_c, 0, 57, 0
3, 404757, Note_on_c, 0, 56, 71
3, 404977, Note_on_c, 0, 58, 0
3, 404998, Note_on_c, 0, 62, 0
3, 405027, Note_on_c, 0, 65, 0
3, 405070, Note_on_c, 0, 56, 0
3, 405079, Control_c, 0, 64, 0
3, 405150, Note_on_c, 0, 62, 48
3, 405151, Note_on_c, 0, 58, 52
3, 405155, Note_on_c, 0, 55, 54
3, 405165, Note_on_c, 0, 65, 41
3, 405265, Control_c, 0, 64, 127
3, 405407, Note_on_c, 0, 58, 0
3, 405437, Note_on_c, 0, 62, 0
3, 405472, Note_on_c, 0, 65, 0
3, 405617, Note_on_c, 0, 55, 0
3, 405724, Note_on_c, 0, 43, 37
3, 406068, Control_c, 0, 64, 0
3, 406084, Note_on_c, 0, 71, 61
3, 406095, Note_on_c, 0, 67, 54
3, 406099, Note_on_c, 0, 55, 43
3, 406100, Note_on_c, 0, 62, 62
3, 406228, Note_on_c, 0, 71, 0
3, 406240, Control_c, 0, 64, 127
3, 406262, Note_on_c, 0, 43, 0
3, 406264, Note_on_c, 0, 62, 0
3, 406288, Note_on_c, 0, 67, 0
3, 406384, Note_on_c, 0, 55, 0
3, 406670, Note_on_c, 0, 70, 49
3, 406696, Note_on_c, 0, 43, 27
3, 406796, Note_on_c, 0, 70, 0
3, 406802, Note_on_c, 0, 43, 0
3, 407000, Note_on_c, 0, 58, 60
3, 407013, Note_on_c, 0, 61, 43
3, 407015, Note_on_c, 0, 69, 44
3, 407019, Control_c, 0, 64, 0
3, 407029, Note_on_c, 0, 65, 50
3, 407051, Note_on_c, 0, 58, 0
3, 407207, Note_on_c, 0, 58, 44
3, 407212, Note_on_c, 0, 65, 0
3, 407219, Note_on_c, 0, 61, 0
3, 407312, Note_on_c, 0, 58, 0
3, 407340, Note_on_c, 0, 61, 19
3, 407360, Note_on_c, 0, 65, 32
3, 407414, Note_on_c, 0, 69, 0
3, 407444, Note_on_c, 0, 58, 48
3, 407482, Note_on_c, 0, 61, 0
3, 407491, Note_on_c, 0, 65, 0
3, 407572, Note_on_c, 0, 61, 23
3, 407582, Note_on_c, 0, 58, 0
3, 407629, Note_on_c, 0, 65, 29
3, 407640, Note_on_c, 0, 57, 79
3, 407733, Note_on_c, 0, 58, 49
3, 407738, Note_on_c, 0, 61, 0
3, 407774, Note_on_c, 0, 65, 0
3, 407855, Note_on_c, 0, 58, 0
3, 407869, Note_on_c, 0, 61, 27
3, 407907, Note_on_c, 0, 65, 28
3, 407992, Note_on_c, 0, 58, 50
3, 408011, Note_on_c, 0, 61, 0
3, 408025, Note_on_c, 0, 65, 0
3, 408122, Note_on_c, 0, 58, 0
3, 408129, Note_on_c, 0, 61, 25
3, 408176, Note_on_c, 0, 65, 30
3, 408264, Note_on_c, 0, 58, 49
3, 408308, Note_on_c, 0, 57, 0
3, 408321, Note_on_c, 0, 61, 0
3, 408325, Note_on_c, 0, 65, 0
3, 408394, Note_on_c, 0, 61, 18
3, 408399, Note_on_c, 0, 56, 55
3, 408410, Note_on_c, 0, 58, 0
3, 408436, Note_on_c, 0, 65, 27
3, 408538, Note_on_c, 0, 58, 45
3, 408590, Note_on_c, 0, 61, 0
3, 408598, Note_on_c, 0, 65, 0
3, 408681, Note_on_c, 0, 58, 0
3, 408682, Note_on_c, 0, 61, 21
3, 408719, Note_on_c, 0, 65, 24
3, 408804, Note_on_c, 0, 58, 42
3, 408846, Note_on_c, 0, 54, 38
3, 408847, Note_on_c, 0, 61, 0
3, 408863, Note_on_c, 0, 65, 0
3, 408879, Note_on_c, 0, 56, 0
3, 408936, Note_on_c, 0, 61, 31
3, 408952, Note_on_c, 0, 58, 0
3, 408954, Note_on_c, 0, 55, 48
3, 408962, Note_on_c, 0, 54, 0
3, 408991, Note_on_c, 0, 65, 24
3, 409065, Note_on_c, 0, 58, 43
3, 409110, Note_on_c, 0, 61, 0
3, 409122, Note_on_c, 0, 65, 0
3, 409214, Note_on_c, 0, 61, 35
3, 409222, Note_on_c, 0, 58, 0
3, 409285, Note_on_c, 0, 65, 24
3, 409287, Note_on_c, 0, 61, 0
3, 409345, Note_on_c, 0, 58, 44
3, 409365, Note_on_c, 0, 65, 0
3, 409479, Note_on_c, 0, 61, 19
3, 409480, Note_on_c, 0, 58, 0
3, 409530, Note_on_c, 0, 65, 24
3, 409586, Note_on_c, 0, 58, 44
3, 409618, Note_on_c, 0, 65, 0
3, 409636, Note_on_c, 0, 61, 0
3, 409721, Note_on_c, 0, 61, 14
3, 409733, Note_on_c, 0, 58, 0
3, 409764, Note_on_c, 0, 65, 30
3, 409841, Note_on_c, 0, 58, 46
3, 409888, Note_on_c, 0, 61, 0
3, 409898, Note_on_c, 0, 55, 0
3, 409899, Note_on_c, 0, 65, 0
3, 409923, Note_on_c, 0, 49, 55
3, 409981, Note_on_c, 0, 61, 44
3, 410003, Note_on_c, 0, 58, 0
3, 410098, Note_on_c, 0, 58, 49
3, 410117, Control_c, 0, 64, 127
3, 410167, Note_on_c, 0, 61, 0
3, 410253, Note_on_c, 0, 61, 20
3, 410254, Note_on_c, 0, 58, 0
3, 410279, Note_on_c, 0, 65, 36
3, 410384, Note_on_c, 0, 58, 35
3, 410444, Note_on_c, 0, 65, 0
3, 410450, Note_on_c, 0, 52, 39
3, 410457, Note_on_c, 0, 49, 0
3, 410663, Note_on_c, 0, 46, 53
3, 410704, Note_on_c, 0, 61, 0
3, 410730, Note_on_c, 0, 58, 0
3, 410855, Note_on_c, 0, 52, 0
3, 410870, Control_c, 0, 64, 0
3, 410881, Note_on_c, 0, 46, 0
3, 410901, Note_on_c, 0, 60, 44
3, 410922, Note_on_c, 0, 45, 59
3, 410924, Note_on_c, 0, 64, 57
3, 410926, Note_on_c, 0, 67, 38
3, 410928, Note_on_c, 0, 55, 44
3, 411103, Note_on_c, 0, 60, 0
3, 411130, Control_c, 0, 64, 127
3, 411166, Note_on_c, 0, 60, 27
3, 411200, Note_on_c, 0, 67, 0
3, 411234, Note_on_c, 0, 64, 0
3, 411284, Note_on_c, 0, 45, 0
3, 411303, Note_on_c, 0, 60, 0
3, 411328, Note_on_c, 0, 64, 24
3, 411330, Note_on_c, 0, 55, 0
3, 411358, Note_on_c, 0, 67, 24
3, 411431, Note_on_c, 0, 64, 0
3, 411436, Note_on_c, 0, 67, 0
3, 411437, Note_on_c, 0, 60, 33
3, 411542, Note_on_c, 0, 60, 0
3, 411556, Note_on_c, 0, 64, 45
3, 411564, Note_on_c, 0, 67, 41
3, 411667, Note_on_c, 0, 60, 35
3, 411682, Note_on_c, 0, 64, 0
3, 411699, Note_on_c, 0, 67, 0
3, 411789, Note_on_c, 0, 55, 77
3, 411804, Note_on_c, 0, 60, 0
3, 411806, Note_on_c, 0, 64, 55
3, 411819, Note_on_c, 0, 67, 53
3, 411821, Control_c, 0, 64, 0
3, 411835, Note_on_c, 0, 54, 61
3, 411877, Note_on_c, 0, 54, 0
3, 411909, Note_on_c, 0, 64, 0
3, 411924, Note_on_c, 0, 60, 36
3, 411933, Note_on_c, 0, 67, 0
3, 412050, Note_on_c, 0, 60, 0
3, 412055, Note_on_c, 0, 67, 53
3, 412063, Note_on_c, 0, 64, 46
3, 412161, Note_on_c, 0, 64, 0
3, 412167, Note_on_c, 0, 67, 0
3, 412174, Note_on_c, 0, 60, 39
3, 412299, Note_on_c, 0, 60, 0
3, 412305, Note_on_c, 0, 67, 39
3, 412309, Note_on_c, 0, 64, 36
3, 412424, Note_on_c, 0, 64, 0
3, 412426, Note_on_c, 0, 67, 0
3, 412430, Note_on_c, 0, 60, 38
3, 412547, Note_on_c, 0, 60, 0
3, 412552, Note_on_c, 0, 67, 44
3, 412572, Note_on_c, 0, 64, 44
3, 412575, Control_c, 0, 64, 127
3, 412679, Note_on_c, 0, 50, 31
3, 412687, Note_on_c, 0, 51, 46
3, 412691, Note_on_c, 0, 64, 0
3, 412692, Note_on_c, 0, 67, 0
3, 412698, Note_on_c, 0, 60, 39
3, 412702, Note_on_c, 0, 55, 0
3, 412748, Control_c, 0, 64, 0
3, 412756, Note_on_c, 0, 50, 0
3, 412812, Note_on_c, 0, 60, 0
3, 412813, Note_on_c, 0, 67, 40
3, 412814, Note_on_c, 0, 64, 49
3, 412815, Note_on_c, 0, 54, 73
3, 412888, Note_on_c, 0, 51, 0
3, 412914, Note_on_c, 0, 64, 0
3, 412937, Note_on_c, 0, 67, 0
3, 412939, Note_on_c, 0, 60, 37
3, 413050, Note_on_c, 0, 60, 0
3, 413085, Note_on_c, 0, 67, 32
3, 413106, Note_on_c, 0, 64, 22
3, 413160, Note_on_c, 0, 67, 0
3, 413162, Note_on_c, 0, 60, 43
3, 413163, Note_on_c, 0, 64, 0
3, 413306, Note_on_c, 0, 60, 0
3, 413322, Note_on_c, 0, 64, 32
3, 413327, Note_on_c, 0, 67, 22
3, 413395, Note_on_c, 0, 64, 0
3, 413409, Note_on_c, 0, 67, 0
3, 413424, Note_on_c, 0, 60, 37
3, 413551, Control_c, 0, 64, 127
3, 413552, Note_on_c, 0, 60, 0
3, 413553, Note_on_c, 0, 64, 36
3, 413590, Note_on_c, 0, 54, 0
3, 413613, Note_on_c, 0, 50, 38
3, 413652, Note_on_c, 0, 51, 46
3, 413693, Note_on_c, 0, 64, 0
3, 413694, Note_on_c, 0, 60, 40
3, 413711, Control_c, 0, 64, 0
3, 413737, Note_on_c, 0, 50, 0
3, 413753, Note_on_c, 0, 52, 36
3, 413767, Note_on_c, 0, 51, 0
3, 413802, Note_on_c, 0, 53, 52
3, 413807, Note_on_c, 0, 60, 0
3, 413813, Note_on_c, 0, 64, 57
3, 413815, Note_on_c, 0, 52, 0
3, 413823, Note_on_c, 0, 67, 37
3, 413943, Note_on_c, 0, 67, 0
3, 413949, Note_on_c, 0, 60, 37
3, 413950, Note_on_c, 0, 64, 0
3, 414057, Note_on_c, 0, 60, 0
3, 414081, Note_on_c, 0, 64, 46
3, 414113, Note_on_c, 0, 67, 22
3, 414215, Note_on_c, 0, 60, 36
3, 414222, Note_on_c, 0, 64, 0
3, 414246, Note_on_c, 0, 67, 0
3, 414301, Note_on_c, 0, 50, 35
3, 414325, Note_on_c, 0, 60, 0
3, 414328, Control_c, 0, 64, 127
3, 414342, Note_on_c, 0, 64, 47
3, 414436, Note_on_c, 0, 64, 0
3, 414465, Note_on_c, 0, 60, 40
3, 414502, Note_on_c, 0, 50, 0
3, 414539, Note_on_c, 0, 53, 0
3, 414546, Note_on_c, 0, 43, 38
3, 414565, Note_on_c, 0, 60, 0
3, 414748, Control_c, 0, 64, 0
3, 414778, Note_on_c, 0, 53, 48
3, 414781, Note_on_c, 0, 64, 44
3, 414783, Note_on_c, 0, 65, 48
3, 414784, Note_on_c, 0, 52, 62
3, 414790, Note_on_c, 0, 56, 36
3, 414795, Note_on_c, 0, 59, 41
3, 414798, Note_on_c, 0, 60, 37
3, 414947, Note_on_c, 0, 60, 0
3, 414964, Note_on_c, 0, 65, 0
3, 415314, Note_on_c, 0, 64, 0
3, 415340, Note_on_c, 0, 52, 0
3, 415362, Note_on_c, 0, 56, 0
3, 415381, Note_on_c, 0, 53, 0
3, 415437, Note_on_c, 0, 59, 0
3, 415452, Control_c, 0, 64, 127
3, 415474, Note_on_c, 0, 63, 63
3, 415488, Note_on_c, 0, 53, 37
3, 415496, Note_on_c, 0, 59, 25
3, 415507, Note_on_c, 0, 51, 57
3, 415510, Note_on_c, 0, 56, 48
3, 415551, Control_c, 0, 64, 0
3, 415934, Control_c, 0, 64, 127
3, 416222, Note_on_c, 0, 43, 0
3, 416284, Note_on_c, 0, 51, 0
3, 416329, Note_on_c, 0, 43, 29
3, 416355, Note_on_c, 0, 49, 48
3, 416418, Note_on_c, 0, 43, 0
3, 416463, Note_on_c, 0, 53, 0
3, 416478, Note_on_c, 0, 59, 0
3, 416484, Note_on_c, 0, 56, 0
3, 416539, Control_c, 0, 64, 0
3, 416547, Note_on_c, 0, 63, 0
3, 416658, Note_on_c, 0, 53, 38
3, 416661, Note_on_c, 0, 56, 38
3, 416672, Note_on_c, 0, 50, 48
3, 416674, Note_on_c, 0, 62, 38
3, 416675, Note_on_c, 0, 49, 0
3, 416683, Note_on_c, 0, 59, 33
3, 416789, Control_c, 0, 64, 127
3, 417007, Note_on_c, 0, 50, 0
3, 417050, Note_on_c, 0, 53, 0
3, 417089, Note_on_c, 0, 59, 0
3, 417097, Note_on_c, 0, 62, 0
3, 417099, Note_on_c, 0, 56, 0
3, 417617, Control_c, 0, 64, 0
3, 417645, Note_on_c, 0, 65, 40
3, 417651, Note_on_c, 0, 53, 32
3, 417652, Note_on_c, 0, 58, 42
3, 417655, Note_on_c, 0, 55, 32
3, 417665, Note_on_c, 0, 62, 32
3, 417778, Control_c, 0, 64, 127
3, 417808, Note_on_c, 0, 55, 0
3, 417865, Note_on_c, 0, 58, 0
3, 417875, Note_on_c, 0, 62, 0
3, 417946, Note_on_c, 0, 65, 0
3, 418268, Note_on_c, 0, 53, 0
3, 418361, Note_on_c, 0, 50, 40
3, 418486, Note_on_c, 0, 50, 0
3, 418517, Control_c, 0, 64, 0
3, 418670, Note_on_c, 0, 73, 38
3, 418671, Note_on_c, 0, 85, 49
3, 418704, Note_on_c, 0, 82, 37
3, 418735, Note_on_c, 0, 79, 30
3, 419081, Note_on_c, 0, 79, 0
3, 419111, Control_c, 0, 64, 127
3, 419145, Note_on_c, 0, 73, 0
3, 419194, Note_on_c, 0, 85, 0
3, 419261, Note_on_c, 0, 86, 61
3, 419265, Note_on_c, 0, 74, 41
3, 419287, Note_on_c, 0, 79, 33
3, 419493, Control_c, 0, 64, 0
3, 419589, Note_on_c, 0, 58, 39
3, 419686, Note_on_c, 0, 58, 0
3, 419728, Control_c, 0, 64, 127
3, 420244, Note_on_c, 0, 43, 33
3, 420337, Note_on_c, 0, 86, 0
3, 420401, Note_on_c, 0, 74, 0
3, 420480, Note_on_c, 0, 79, 0
3, 420548, Note_on_c, 0, 82, 0
3, 420593, Control_c, 0, 64, 0
3, 420605, Note_on_c, 0, 51, 34
3, 420626, Note_on_c, 0, 85, 52
3, 420636, Note_on_c, 0, 82, 29
3, 420640, Note_on_c, 0, 73, 31
3, 420676, Note_on_c, 0, 79, 32
3, 420743, Note_on_c, 0, 51, 0
3, 420803, Control_c, 0, 64, 127
3, 420918, Note_on_c, 0, 43, 0
3, 421443, Note_on_c, 0, 79, 0
3, 421480, Note_on_c, 0, 73, 0
3, 421507, Note_on_c, 0, 82, 0
3, 421542, Note_on_c, 0, 85, 0
3, 421581, Control_c, 0, 64, 0
3, 421591, Note_on_c, 0, 79, 46
3, 421592, Note_on_c, 0, 72, 50
3, 421595, Note_on_c, 0, 84, 33
3, 421715, Control_c, 0, 64, 127
3, 421889, Note_on_c, 0, 72, 0
3, 421948, Note_on_c, 0, 79, 0
3, 421990, Note_on_c, 0, 84, 0
3, 422175, Note_on_c, 0, 43, 22
3, 422437, Note_on_c, 0, 43, 0
3, 422469, Control_c, 0, 64, 0
3, 422500, Note_on_c, 0, 36, 40
3, 422521, Note_on_c, 0, 88, 47
3, 422527, Note_on_c, 0, 91, 52
3, 422537, Note_on_c, 0, 79, 32
3, 422593, Note_on_c, 0, 36, 0
3, 422654, Control_c, 0, 64, 127
3, 422962, Note_on_c, 0, 91, 0
3, 423040, Note_on_c, 0, 88, 0
3, 423142, Note_on_c, 0, 79, 0
3, 423382, Note_on_c, 0, 64, 37
3, 423396, Note_on_c, 0, 58, 46
3, 423408, Note_on_c, 0, 60, 35
3, 423470, Control_c, 0, 64, 0
3, 423478, Note_on_c, 0, 60, 0
3, 423490, Note_on_c, 0, 64, 0
3, 423541, Note_on_c, 0, 58, 0
3, 423618, Control_c, 0, 64, 127
3, 424260, Control_c, 0, 64, 0
3, 424370, Note_on_c, 0, 58, 27
3, 424373, Note_on_c, 0, 48, 31
3, 424433, Control_c, 0, 64, 127
3, 424521, Note_on_c, 0, 48, 0
3, 424607, Note_on_c, 0, 58, 0
3, 425026, Note_on_c, 0, 68, 71
3, 425030, Note_on_c, 0, 80, 69
3, 425058, Note_on_c, 0, 76, 53
3, 425323, Control_c, 0, 64, 0
3, 425342, Note_on_c, 0, 61, 37
3, 425354, Note_on_c, 0, 64, 36
3, 425363, Note_on_c, 0, 58, 45
3, 425384, Note_on_c, 0, 68, 0
3, 425393, Note_on_c, 0, 80, 0
3, 425408, Note_on_c, 0, 64, 0
3, 425445, Note_on_c, 0, 61, 0
3, 425464, Note_on_c, 0, 58, 0
3, 425472, Note_on_c, 0, 69, 47
3, 425474, Note_on_c, 0, 81, 44
3, 425483, Control_c, 0, 64, 127
3, 425593, Note_on_c, 0, 69, 0
3, 425613, Note_on_c, 0, 76, 0
3, 425668, Note_on_c, 0, 81, 0
3, 426050, Note_on_c, 0, 86, 78
3, 426069, Note_on_c, 0, 74, 76
3, 426311, Control_c, 0, 64, 0
3, 426321, Note_on_c, 0, 41, 35
3, 426339, Note_on_c, 0, 48, 49
3, 426353, Note_on_c, 0, 86, 0
3, 426355, Note_on_c, 0, 57, 46
3, 426412, Note_on_c, 0, 74, 0
3, 426519, Control_c, 0, 64, 127
3, 426542, Note_on_c, 0, 41, 0
3, 426570, Note_on_c, 0, 84, 53
3, 426594, Note_on_c, 0, 72, 54
3, 426661, Note_on_c, 0, 48, 0
3, 426722, Note_on_c, 0, 84, 0
3, 426724, Note_on_c, 0, 57, 0
3, 426786, Note_on_c, 0, 72, 0
3, 427277, Note_on_c, 0, 64, 50
3, 427317, Note_on_c, 0, 60, 25
3, 427320, Note_on_c, 0, 81, 37
3, 427324, Control_c, 0, 64, 0
3, 427326, Note_on_c, 0, 69, 38
3, 427327, Note_on_c, 0, 76, 46
3, 427356, Note_on_c, 0, 57, 24
3, 427438, Note_on_c, 0, 76, 0
3, 427438, Note_on_c, 0, 81, 0
3, 427442, Note_on_c, 0, 69, 0
3, 427463, Note_on_c, 0, 64, 0
3, 427470, Note_on_c, 0, 57, 0
3, 427478, Note_on_c, 0, 60, 0
3, 427655, Control_c, 0, 64, 127
3, 428113, Control_c, 0, 64, 0
3, 428192, Note_on_c, 0, 60, 36
3, 428215, Note_on_c, 0, 72, 46
3, 428219, Note_on_c, 0, 62, 41
3, 428224, Note_on_c, 0, 74, 44
3, 428227, Note_on_c, 0, 69, 51
3, 428234, Note_on_c, 0, 65, 46
3, 428260, Note_on_c, 0, 60, 0
3, 428425, Note_on_c, 0, 69, 0
3, 428427, Note_on_c, 0, 65, 0
3, 428435, Note_on_c, 0, 72, 0
3, 428459, Note_on_c, 0, 62, 0
3, 428475, Note_on_c, 0, 74, 0
3, 428542, Note_on_c, 0, 60, 27
3, 428708, Note_on_c, 0, 60, 0
3, 428726, Note_on_c, 0, 74, 62
3, 428750, Note_on_c, 0, 65, 44
3, 428754, Note_on_c, 0, 69, 49
3, 428760, Note_on_c, 0, 72, 40
3, 428828, Control_c, 0, 64, 127
3, 428881, Note_on_c, 0, 72, 0
3, 428892, Note_on_c, 0, 69, 0
3, 428898, Note_on_c, 0, 74, 0
3, 428981, Note_on_c, 0, 65, 0
3, 429064, Control_c, 0, 64, 0
3, 429195, Note_on_c, 0, 57, 56
3, 429202, Note_on_c, 0, 69, 51
3, 429206, Note_on_c, 0, 72, 41
3, 429233, Note_on_c, 0, 62, 27
3, 429303, Note_on_c, 0, 62, 0
3, 429326, Note_on_c, 0, 69, 0
3, 429335, Note_on_c, 0, 72, 0
3, 429366, Note_on_c, 0, 57, 0
3, 429606, Control_c, 0, 64, 127
3, 429611, Note_on_c, 0, 66, 35
3, 429614, Note_on_c, 0, 63, 40
3, 429619, Note_on_c, 0, 60, 39
3, 429624, Note_on_c, 0, 69, 41
3, 429626, Note_on_c, 0, 54, 49
3, 429789, Note_on_c, 0, 54, 0
3, 429847, Note_on_c, 0, 60, 0
3, 429854, Note_on_c, 0, 69, 0
3, 429880, Note_on_c, 0, 66, 0
3, 429922, Note_on_c, 0, 63, 0
3, 430039, Control_c, 0, 64, 0
3, 430118, Note_on_c, 0, 58, 55
3, 430139, Note_on_c, 0, 43, 26
3, 430140, Note_on_c, 0, 62, 36
3, 430141, Note_on_c, 0, 65, 44
3, 430168, Note_on_c, 0, 53, 20
3, 430274, Control_c, 0, 64, 127
3, 430545, Note_on_c, 0, 62, 0
3, 430558, Note_on_c, 0, 65, 0
3, 430578, Note_on_c, 0, 53, 0
3, 430585, Note_on_c, 0, 58, 0
3, 431039, Control_c, 0, 64, 0
3, 431082, Note_on_c, 0, 62, 35
3, 431092, Note_on_c, 0, 58, 37
3, 431095, Note_on_c, 0, 57, 41
3, 431103, Note_on_c, 0, 53, 17
3, 431199, Control_c, 0, 64, 127
3, 431364, Note_on_c, 0, 57, 0
3, 431399, Note_on_c, 0, 43, 0
3, 431406, Note_on_c, 0, 62, 0
3, 431411, Note_on_c, 0, 58, 0
3, 431480, Note_on_c, 0, 53, 0
3, 431591, Note_on_c, 0, 43, 53
3, 431691, Note_on_c, 0, 43, 0
3, 432004, Control_c, 0, 64, 0
3, 432025, Note_on_c, 0, 58, 72
3, 432027, Note_on_c, 0, 68, 78
3, 432029, Note_on_c, 0, 72, 72
3, 432030, Note_on_c, 0, 64, 92
3, 432164, Control_c, 0, 64, 127
3, 432476, Note_on_c, 0, 58, 0
3, 432493, Note_on_c, 0, 64, 0
3, 432520, Note_on_c, 0, 68, 0
3, 432543, Note_on_c, 0, 72, 0
3, 433009, Note_on_c, 0, 74, 74
3, 433012, Note_on_c, 0, 68, 78
3, 433015, Note_on_c, 0, 58, 71
3, 433019, Note_on_c, 0, 64, 80
3, 433052, Control_c, 0, 64, 0
3, 433225, Control_c, 0, 64, 127
3, 433501, Note_on_c, 0, 64, 0
3, 433566, Note_on_c, 0, 74, 0
3, 433890, Note_on_c, 0, 68, 0
3, 433915, Note_on_c, 0, 58, 0
3, 433966, Control_c, 0, 64, 0
3, 433995, Note_on_c, 0, 72, 53
3, 434002, Note_on_c, 0, 67, 60
3, 434003, Note_on_c, 0, 62, 54
3, 434008, Note_on_c, 0, 57, 57
3, 434129, Control_c, 0, 64, 127
3, 434279, Note_on_c, 0, 57, 0
3, 434417, Note_on_c, 0, 67, 0
3, 434419, Note_on_c, 0, 72, 0
3, 434504, Note_on_c, 0, 62, 0
3, 434884, Control_c, 0, 64, 0
3, 434911, Note_on_c, 0, 41, 88
3, 435056, Control_c, 0, 64, 127
3, 435652, Note_on_c, 0, 41, 0
3, 435902, Note_on_c, 0, 60, 52
3, 435908, Control_c, 0, 64, 0
3, 435914, Note_on_c, 0, 52, 56
3, 435918, Note_on_c, 0, 41, 57
3, 435919, Note_on_c, 0, 55, 45
3, 435928, Note_on_c, 0, 48, 53
3, 435930, Note_on_c, 0, 57, 56
3, 436093, Control_c, 0, 64, 127
3, 436492, Note_on_c, 0, 60, 0
3, 436564, Note_on_c, 0, 52, 0
3, 436567, Note_on_c, 0, 55, 0
3, 436588, Note_on_c, 0, 57, 0
3, 436745, Note_on_c, 0, 48, 0
3, 436801, Note_on_c, 0, 41, 0
3, 437370, Note_on_c, 0, 62, 50
3, 437372, Note_on_c, 0, 41, 35
3, 437396, Note_on_c, 0, 57, 55
3, 437405, Note_on_c, 0, 53, 36
3, 437473, Note_on_c, 0, 41, 0
3, 437506, Note_on_c, 0, 62, 0
3, 437527, Note_on_c, 0, 53, 0
3, 437674, Note_on_c, 0, 57, 0
3, 437798, Control_c, 0, 64, 0
3, 437862, Note_on_c, 0, 63, 54
3, 437869, Note_on_c, 0, 38, 37
3, 437873, Note_on_c, 0, 54, 44
3, 437883, Note_on_c, 0, 57, 49
3, 437885, Note_on_c, 0, 48, 31
3, 437914, Note_on_c, 0, 60, 31
3, 437995, Control_c, 0, 64, 127
3, 438142, Note_on_c, 0, 54, 0
3, 438156, Note_on_c, 0, 57, 0
3, 438195, Note_on_c, 0, 38, 0
3, 438221, Note_on_c, 0, 60, 0
3, 438245, Note_on_c, 0, 48, 0
3, 438274, Note_on_c, 0, 63, 0
3, 438823, Note_on_c, 0, 63, 42
3, 438829, Note_on_c, 0, 57, 37
3, 438834, Note_on_c, 0, 66, 39
3, 438845, Note_on_c, 0, 69, 38
3, 438966, Note_on_c, 0, 57, 0
3, 439311, Note_on_c, 0, 62, 64
3, 439506, Note_on_c, 0, 63, 0
3, 439561, Note_on_c, 0, 69, 0
3, 439579, Note_on_c, 0, 66, 0
3, 439785, Control_c, 0, 64, 0
3, 439795, Note_on_c, 0, 63, 50
3, 439809, Note_on_c, 0, 66, 40
3, 439822, Control_c, 0, 64, 127
3, 439826, Note_on_c, 0, 69, 34
3, 440284, Note_on_c, 0, 60, 82
3, 440319, Note_on_c, 0, 62, 0
3, 440465, Control_c, 0, 64, 0
3, 440474, Note_on_c, 0, 63, 0
3, 440505, Note_on_c, 0, 69, 0
3, 440511, Note_on_c, 0, 66, 0
3, 440662, Control_c, 0, 64, 127
3, 440750, Note_on_c, 0, 63, 42
3, 440760, Note_on_c, 0, 66, 46
3, 440783, Note_on_c, 0, 69, 32
3, 441233, Note_on_c, 0, 60, 0
3, 441241, Note_on_c, 0, 57, 63
3, 441336, Note_on_c, 0, 63, 0
3, 441371, Note_on_c, 0, 69, 0
3, 441421, Note_on_c, 0, 66, 0
3, 441687, Note_on_c, 0, 57, 0
3, 441712, Control_c, 0, 64, 0
3, 441729, Note_on_c, 0, 65, 53
3, 441731, Note_on_c, 0, 70, 51
3, 441742, Note_on_c, 0, 67, 44
3, 441743, Note_on_c, 0, 58, 49
3, 441921, Control_c, 0, 64, 127
3, 441965, Note_on_c, 0, 58, 0
3, 442236, Note_on_c, 0, 67, 0
3, 442239, Note_on_c, 0, 50, 58
3, 442264, Note_on_c, 0, 65, 0
3, 442274, Note_on_c, 0, 70, 0
3, 442688, Control_c, 0, 64, 0
3, 442709, Note_on_c, 0, 58, 50
3, 442736, Note_on_c, 0, 62, 42
3, 442759, Note_on_c, 0, 65, 37
3, 442860, Control_c, 0, 64, 127
3, 443067, Note_on_c, 0, 58, 0
3, 443080, Note_on_c, 0, 50, 0
3, 443139, Note_on_c, 0, 62, 0
3, 443144, Note_on_c, 0, 55, 62
3, 443172, Note_on_c, 0, 65, 0
3, 443607, Note_on_c, 0, 67, 65
3, 443612, Note_on_c, 0, 62, 56
3, 444013, Note_on_c, 0, 55, 0
3, 444017, Note_on_c, 0, 62, 0
3, 444065, Note_on_c, 0, 58, 83
3, 444195, Note_on_c, 0, 67, 0
3, 444404, Note_on_c, 0, 58, 0
3, 444466, Control_c, 0, 64, 0
3, 444520, Note_on_c, 0, 62, 83
3, 444537, Note_on_c, 0, 70, 76
3, 444543, Note_on_c, 0, 74, 75
3, 444544, Note_on_c, 0, 67, 80
3, 444972, Control_c, 0, 64, 127
3, 444998, Note_on_c, 0, 61, 62
3, 445011, Note_on_c, 0, 62, 0
3, 445068, Note_on_c, 0, 67, 0
3, 445109, Note_on_c, 0, 74, 0
3, 445135, Note_on_c, 0, 70, 0
3, 445354, Control_c, 0, 64, 0
3, 445403, Note_on_c, 0, 61, 0
3, 445447, Note_on_c, 0, 60, 57
3, 445466, Note_on_c, 0, 68, 53
3, 445482, Note_on_c, 0, 72, 41
3, 445493, Note_on_c, 0, 64, 36
3, 445550, Note_on_c, 0, 60, 0
3, 445601, Control_c, 0, 64, 127
3, 445943, Note_on_c, 0, 64, 0
3, 445991, Note_on_c, 0, 36, 74
3, 446066, Note_on_c, 0, 68, 0
3, 446086, Note_on_c, 0, 72, 0
3, 446216, Note_on_c, 0, 36, 0
3, 446459, Note_on_c, 0, 36, 75
3, 446545, Note_on_c, 0, 36, 0
3, 446959, Control_c, 0, 64, 0
3, 446974, Note_on_c, 0, 80, 71
3, 446987, Note_on_c, 0, 68, 77
3, 446990, Note_on_c, 0, 58, 75
3, 446992, Note_on_c, 0, 64, 76
3, 446996, Note_on_c, 0, 73, 56
3, 447017, Note_on_c, 0, 76, 45
3, 447146, Control_c, 0, 64, 127
3, 447297, Note_on_c, 0, 68, 0
3, 447309, Note_on_c, 0, 80, 0
3, 447324, Note_on_c, 0, 73, 0
3, 447335, Note_on_c, 0, 64, 0
3, 447352, Note_on_c, 0, 58, 0
3, 447379, Control_c, 0, 64, 0
3, 447385, Note_on_c, 0, 76, 0
3, 447448, Note_on_c, 0, 64, 54
3, 447454, Note_on_c, 0, 58, 56
3, 447463, Note_on_c, 0, 73, 49
3, 447465, Note_on_c, 0, 80, 60
3, 447473, Note_on_c, 0, 68, 56
3, 447474, Note_on_c, 0, 76, 38
3, 447509, Note_on_c, 0, 64, 0
3, 447515, Control_c, 0, 64, 127
3, 447570, Note_on_c, 0, 58, 0
3, 447886, Control_c, 0, 64, 0
3, 447897, Note_on_c, 0, 68, 0
3, 447919, Note_on_c, 0, 36, 69
3, 447923, Note_on_c, 0, 73, 0
3, 447931, Note_on_c, 0, 76, 0
3, 447984, Note_on_c, 0, 80, 0
3, 447994, Note_on_c, 0, 36, 0
3, 448022, Control_c, 0, 64, 127
3, 448392, Control_c, 0, 64, 0
3, 448417, Note_on_c, 0, 81, 60
3, 448424, Note_on_c, 0, 73, 46
3, 448431, Note_on_c, 0, 76, 56
3, 448433, Note_on_c, 0, 58, 60
3, 448436, Note_on_c, 0, 69, 57
3, 448438, Note_on_c, 0, 64, 60
3, 448516, Control_c, 0, 64, 127
3, 449044, Note_on_c, 0, 64, 0
3, 449216, Note_on_c, 0, 58, 0
3, 449290, Note_on_c, 0, 69, 0
3, 449295, Note_on_c, 0, 76, 0
3, 449296, Note_on_c, 0, 81, 0
3, 449333, Note_on_c, 0, 73, 0
3, 450677, Control_c, 0, 64, 0
3, 450751, Note_on_c, 0, 64, 54
3, 450761, Note_on_c, 0, 79, 71
3, 450771, Note_on_c, 0, 69, 67
3, 450772, Note_on_c, 0, 74, 71
3, 450862, Control_c, 0, 64, 127
3, 451052, Note_on_c, 0, 79, 0
3, 451063, Note_on_c, 0, 74, 0
3, 451067, Note_on_c, 0, 64, 0
3, 451084, Note_on_c, 0, 69, 0
3, 451158, Control_c, 0, 64, 0
3, 451208, Note_on_c, 0, 62, 43
3, 451212, Note_on_c, 0, 77, 62
3, 451239, Note_on_c, 0, 72, 50
3, 451260, Note_on_c, 0, 62, 0
3, 451287, Note_on_c, 0, 72, 0
3, 451299, Note_on_c, 0, 77, 0
3, 451695, Note_on_c, 0, 74, 50
3, 451707, Note_on_c, 0, 68, 50
3, 451718, Note_on_c, 0, 58, 51
3, 451721, Note_on_c, 0, 64, 51
3, 451727, Control_c, 0, 64, 127
3, 451949, Note_on_c, 0, 74, 0
3, 452009, Note_on_c, 0, 64, 0
3, 452035, Control_c, 0, 64, 0
3, 452078, Note_on_c, 0, 68, 0
3, 452110, Note_on_c, 0, 58, 0
3, 452136, Note_on_c, 0, 72, 53
3, 452148, Note_on_c, 0, 62, 45
3, 452154, Note_on_c, 0, 57, 47
3, 452167, Note_on_c, 0, 67, 41
3, 452195, Note_on_c, 0, 72, 0
3, 452217, Note_on_c, 0, 67, 0
3, 452238, Note_on_c, 0, 62, 0
3, 452280, Note_on_c, 0, 57, 0
3, 452628, Note_on_c, 0, 69, 49
3, 452629, Note_on_c, 0, 64, 56
3, 452641, Control_c, 0, 64, 127
3, 452650, Note_on_c, 0, 60, 38
3, 452657, Note_on_c, 0, 53, 32
3, 452716, Note_on_c, 0, 64, 0
3, 452724, Note_on_c, 0, 53, 0
3, 452743, Note_on_c, 0, 60, 0
3, 452745, Note_on_c, 0, 69, 0
3, 453023, Control_c, 0, 64, 0
3, 453098, Note_on_c, 0, 67, 49
3, 453103, Note_on_c, 0, 61, 53
3, 453125, Note_on_c, 0, 55, 33
3, 453143, Note_on_c, 0, 40, 28
3, 453234, Note_on_c, 0, 40, 0
3, 453324, Note_on_c, 0, 55, 0
3, 453357, Note_on_c, 0, 61, 0
3, 453366, Note_on_c, 0, 67, 0
3, 453653, Note_on_c, 0, 55, 40
3, 453659, Note_on_c, 0, 60, 46
3, 453670, Note_on_c, 0, 67, 26
3, 453683, Note_on_c, 0, 39, 40
3, 453688, Note_on_c, 0, 46, 33
3, 453855, Note_on_c, 0, 60, 0
3, 453878, Note_on_c, 0, 39, 0
3, 453883, Note_on_c, 0, 55, 0
3, 453884, Note_on_c, 0, 46, 0
3, 453895, Note_on_c, 0, 67, 0
3, 454136, Note_on_c, 0, 61, 34
3, 454147, Control_c, 0, 64, 127
3, 454154, Note_on_c, 0, 67, 43
3, 454164, Note_on_c, 0, 55, 36
3, 454169, Note_on_c, 0, 60, 44
3, 454170, Note_on_c, 0, 46, 37
3, 454196, Note_on_c, 0, 39, 36
3, 454513, Note_on_c, 0, 39, 0
3, 454598, Note_on_c, 0, 55, 0
3, 454670, Note_on_c, 0, 60, 0
3, 454735, Note_on_c, 0, 61, 0
3, 454748, Note_on_c, 0, 67, 0
3, 455110, Control_c, 0, 64, 0
3, 455125, Note_on_c, 0, 61, 53
3, 455131, Note_on_c, 0, 69, 50
3, 455140, Note_on_c, 0, 55, 38
3, 455146, Note_on_c, 0, 65, 53
3, 455338, Note_on_c, 0, 55, 0
3, 455359, Note_on_c, 0, 69, 0
3, 455379, Note_on_c, 0, 65, 0
3, 455407, Note_on_c, 0, 61, 0
3, 455615, Note_on_c, 0, 69, 53
3, 455616, Note_on_c, 0, 61, 52
3, 455618, Note_on_c, 0, 55, 41
3, 455635, Note_on_c, 0, 65, 54
3, 455669, Control_c, 0, 64, 127
3, 455908, Note_on_c, 0, 55, 0
3, 455948, Note_on_c, 0, 61, 0
3, 455949, Note_on_c, 0, 69, 0
3, 455991, Note_on_c, 0, 65, 0
3, 456094, Note_on_c, 0, 55, 35
3, 456102, Note_on_c, 0, 69, 53
3, 456104, Note_on_c, 0, 61, 55
3, 456120, Note_on_c, 0, 65, 49
3, 456301, Note_on_c, 0, 46, 0
3, 456377, Note_on_c, 0, 61, 0
3, 456425, Note_on_c, 0, 69, 0
3, 456464, Note_on_c, 0, 65, 0
3, 456535, Note_on_c, 0, 46, 51
3, 456632, Note_on_c, 0, 55, 0
3, 456636, Note_on_c, 0, 46, 0
3, 456965, Control_c, 0, 64, 0
3, 457029, Note_on_c, 0, 62, 41
3, 457032, Note_on_c, 0, 69, 49
3, 457033, Note_on_c, 0, 64, 49
3, 457064, Note_on_c, 0, 50, 29
3, 457069, Note_on_c, 0, 60, 33
3, 457326, Note_on_c, 0, 69, 0
3, 457507, Note_on_c, 0, 69, 60
3, 457546, Control_c, 0, 64, 127
3, 457548, Note_on_c, 0, 60, 0
3, 457590, Note_on_c, 0, 57, 28
3, 457692, Note_on_c, 0, 57, 0
3, 457719, Note_on_c, 0, 64, 0
3, 457735, Note_on_c, 0, 62, 0
3, 457786, Note_on_c, 0, 69, 0
3, 457941, Control_c, 0, 64, 0
3, 457981, Note_on_c, 0, 69, 56
3, 457986, Note_on_c, 0, 60, 36
3, 457989, Note_on_c, 0, 64, 55
3, 457992, Note_on_c, 0, 62, 43
3, 458052, Control_c, 0, 64, 127
3, 458258, Note_on_c, 0, 50, 0
3, 458281, Note_on_c, 0, 69, 0
3, 458412, Note_on_c, 0, 62, 0
3, 458450, Note_on_c, 0, 69, 64
3, 458457, Note_on_c, 0, 50, 49
3, 458514, Note_on_c, 0, 64, 0
3, 458611, Note_on_c, 0, 60, 0
3, 458674, Note_on_c, 0, 69, 0
3, 458868, Control_c, 0, 64, 0
3, 458916, Note_on_c, 0, 69, 73
3, 458926, Note_on_c, 0, 64, 74
3, 458928, Note_on_c, 0, 62, 68
3, 458940, Note_on_c, 0, 60, 37
3, 459102, Control_c, 0, 64, 127
3, 459418, Note_on_c, 0, 67, 68
3, 459482, Note_on_c, 0, 69, 0
3, 459660, Note_on_c, 0, 60, 0
3, 459716, Note_on_c, 0, 62, 0
3, 459746, Note_on_c, 0, 64, 0
3, 459798, Note_on_c, 0, 67, 0
3, 459880, Control_c, 0, 64, 0
3, 459910, Note_on_c, 0, 67, 53
3, 459912, Note_on_c, 0, 64, 62
3, 459914, Note_on_c, 0, 60, 35
3, 459925, Note_on_c, 0, 62, 60
3, 459991, Control_c, 0, 64, 127
3, 460106, Note_on_c, 0, 50, 0
3, 460281, Note_on_c, 0, 64, 0
3, 460283, Note_on_c, 0, 62, 0
3, 460377, Note_on_c, 0, 50, 37
3, 460400, Note_on_c, 0, 64, 55
3, 460413, Note_on_c, 0, 60, 0
3, 460567, Note_on_c, 0, 64, 0
3, 460659, Note_on_c, 0, 50, 0
3, 460819, Control_c, 0, 64, 0
3, 460883, Note_on_c, 0, 62, 43
3, 460888, Note_on_c, 0, 64, 46
3, 460895, Note_on_c, 0, 50, 31
3, 461029, Control_c, 0, 64, 127
3, 461042, Note_on_c, 0, 64, 0
3, 461118, Note_on_c, 0, 62, 0
3, 461197, Note_on_c, 0, 67, 0
3, 461231, Note_on_c, 0, 50, 0
3, 461313, Control_c, 0, 64, 0
3, 461338, Note_on_c, 0, 50, 45
3, 461345, Note_on_c, 0, 66, 37
3, 461349, Note_on_c, 0, 63, 39
3, 461351, Note_on_c, 0, 60, 31
3, 461584, Control_c, 0, 64, 127
3, 461645, Note_on_c, 0, 60, 0
3, 461646, Note_on_c, 0, 50, 0
3, 461649, Note_on_c, 0, 63, 0
3, 461682, Note_on_c, 0, 66, 0
3, 461834, Note_on_c, 0, 63, 44
3, 461844, Note_on_c, 0, 66, 46
3, 461859, Note_on_c, 0, 50, 37
3, 461925, Note_on_c, 0, 63, 0
3, 461945, Note_on_c, 0, 66, 0
3, 462214, Control_c, 0, 64, 0
3, 462291, Note_on_c, 0, 74, 59
3, 462300, Note_on_c, 0, 65, 65
3, 462306, Note_on_c, 0, 60, 34
3, 462307, Note_on_c, 0, 70, 58
3, 462400, Control_c, 0, 64, 127
3, 462495, Note_on_c, 0, 74, 0
3, 462504, Note_on_c, 0, 65, 0
3, 462636, Note_on_c, 0, 70, 0
3, 462683, Control_c, 0, 64, 0
3, 462777, Note_on_c, 0, 63, 50
3, 462780, Note_on_c, 0, 72, 53
3, 462782, Note_on_c, 0, 68, 51
3, 462794, Note_on_c, 0, 60, 0
3, 462806, Note_on_c, 0, 54, 32
3, 462858, Control_c, 0, 64, 127
3, 462973, Note_on_c, 0, 72, 0
3, 463018, Note_on_c, 0, 68, 0
3, 463032, Note_on_c, 0, 63, 0
3, 463263, Note_on_c, 0, 68, 55
3, 463265, Note_on_c, 0, 63, 53
3, 463273, Note_on_c, 0, 60, 45
3, 463399, Note_on_c, 0, 54, 0
3, 463406, Note_on_c, 0, 50, 0
3, 463573, Note_on_c, 0, 60, 0
3, 463688, Note_on_c, 0, 68, 0
3, 463698, Control_c, 0, 64, 0
3, 463706, Note_on_c, 0, 63, 0
3, 463736, Note_on_c, 0, 54, 59
3, 463884, Control_c, 0, 64, 127
3, 464094, Control_c, 0, 64, 0
3, 464223, Note_on_c, 0, 61, 53
3, 464227, Note_on_c, 0, 44, 38
3, 464385, Note_on_c, 0, 61, 0
3, 464415, Control_c, 0, 64, 127
3, 464462, Note_on_c, 0, 62, 57
3, 464523, Note_on_c, 0, 54, 0
3, 464601, Control_c, 0, 64, 0
3, 464630, Note_on_c, 0, 62, 0
3, 464658, Note_on_c, 0, 44, 0
3, 464732, Note_on_c, 0, 72, 59
3, 464741, Note_on_c, 0, 43, 36
3, 464786, Control_c, 0, 64, 127
3, 464837, Note_on_c, 0, 43, 0
3, 464843, Note_on_c, 0, 72, 0
3, 465070, Note_on_c, 0, 84, 68
3, 465236, Note_on_c, 0, 84, 0
3, 465379, Note_on_c, 0, 72, 48
3, 465599, Note_on_c, 0, 72, 0
3, 465650, Control_c, 0, 64, 0
3, 465666, Note_on_c, 0, 62, 31
3, 465668, Note_on_c, 0, 84, 49
3, 465687, Note_on_c, 0, 58, 37
3, 465736, Note_on_c, 0, 53, 14
3, 465772, Note_on_c, 0, 62, 0
3, 465822, Note_on_c, 0, 84, 0
3, 465836, Note_on_c, 0, 58, 0
3, 465848, Note_on_c, 0, 53, 0
3, 465995, Note_on_c, 0, 84, 33
3, 466021, Control_c, 0, 64, 127
3, 466193, Note_on_c, 0, 84, 0
3, 466273, Note_on_c, 0, 83, 55
3, 466295, Note_on_c, 0, 50, 20
3, 466462, Note_on_c, 0, 83, 0
3, 466490, Control_c, 0, 64, 0
3, 466506, Note_on_c, 0, 50, 0
3, 466603, Note_on_c, 0, 43, 30
3, 466617, Note_on_c, 0, 84, 38
3, 466627, Note_on_c, 0, 72, 28
3, 466637, Note_on_c, 0, 53, 19
3, 466650, Control_c, 0, 64, 127
3, 466713, Note_on_c, 0, 43, 0
3, 466808, Note_on_c, 0, 53, 0
3, 467173, Note_on_c, 0, 84, 0
3, 467180, Note_on_c, 0, 72, 0
3, 467503, Control_c, 0, 64, 0
3, 467553, Note_on_c, 0, 62, 39
3, 467556, Note_on_c, 0, 58, 49
3, 467569, Note_on_c, 0, 53, 34
3, 467598, Note_on_c, 0, 62, 0
3, 467676, Note_on_c, 0, 53, 0
3, 467683, Note_on_c, 0, 58, 0
3, 467712, Control_c, 0, 64, 127
3, 467960, Control_c, 0, 64, 0
3, 468104, Note_on_c, 0, 45, 75
3, 468114, Note_on_c, 0, 55, 75
3, 468151, Note_on_c, 0, 52, 31
3, 468169, Control_c, 0, 64, 127
3, 468200, Note_on_c, 0, 52, 0
3, 468337, Note_on_c, 0, 45, 0
3, 468461, Note_on_c, 0, 55, 0
3, 468552, Control_c, 0, 64, 0
3, 468598, Note_on_c, 0, 46, 67
3, 468602, Note_on_c, 0, 56, 77
3, 468762, Control_c, 0, 64, 127
3, 468900, Note_on_c, 0, 46, 0
3, 468950, Note_on_c, 0, 56, 0
3, 469539, Note_on_c, 0, 61, 43
3, 469540, Note_on_c, 0, 65, 45
3, 469552, Control_c, 0, 64, 0
3, 469571, Note_on_c, 0, 60, 35
3, 469614, Note_on_c, 0, 65, 0
3, 469628, Note_on_c, 0, 60, 0
3, 469682, Note_on_c, 0, 61, 0
3, 469883, Note_on_c, 0, 81, 60
3, 469894, Note_on_c, 0, 69, 57
3, 469911, Note_on_c, 0, 76, 43
3, 469991, Note_on_c, 0, 81, 0
3, 469998, Note_on_c, 0, 69, 0
3, 469998, Control_c, 0, 64, 127
3, 470145, Note_on_c, 0, 80, 49
3, 470152, Note_on_c, 0, 68, 49
3, 470193, Note_on_c, 0, 73, 25
3, 470329, Note_on_c, 0, 80, 0
3, 470330, Note_on_c, 0, 68, 0
3, 470331, Note_on_c, 0, 73, 0
3, 470342, Control_c, 0, 64, 0
3, 470423, Note_on_c, 0, 46, 39
3, 470446, Note_on_c, 0, 56, 30
3, 470478, Note_on_c, 0, 67, 33
3, 470498, Note_on_c, 0, 79, 38
3, 470553, Control_c, 0, 64, 127
3, 470779, Note_on_c, 0, 46, 0
3, 470825, Note_on_c, 0, 56, 0
3, 471380, Control_c, 0, 64, 0
3, 471404, Note_on_c, 0, 61, 44
3, 471419, Note_on_c, 0, 65, 33
3, 471627, Control_c, 0, 64, 127
3, 471741, Note_on_c, 0, 65, 0
3, 471794, Note_on_c, 0, 61, 0
3, 471827, Note_on_c, 0, 79, 0
3, 471829, Note_on_c, 0, 76, 0
3, 471854, Note_on_c, 0, 67, 0
3, 471954, Note_on_c, 0, 47, 60
3, 472104, Note_on_c, 0, 47, 0
3, 472306, Control_c, 0, 64, 0
3, 472364, Note_on_c, 0, 64, 56
3, 472375, Note_on_c, 0, 60, 49
3, 472390, Note_on_c, 0, 55, 38
3, 472400, Note_on_c, 0, 45, 41
3, 472540, Control_c, 0, 64, 127
3, 472821, Note_on_c, 0, 64, 0
3, 472841, Note_on_c, 0, 55, 0
3, 472910, Note_on_c, 0, 60, 0
3, 473187, Note_on_c, 0, 49, 25
3, 473243, Note_on_c, 0, 50, 53
3, 473260, Note_on_c, 0, 49, 0
3, 473282, Control_c, 0, 64, 0
3, 473310, Note_on_c, 0, 57, 53
3, 473313, Note_on_c, 0, 64, 36
3, 473315, Note_on_c, 0, 60, 41
3, 473324, Note_on_c, 0, 67, 34
3, 473329, Note_on_c, 0, 52, 38
3, 473366, Note_on_c, 0, 50, 0
3, 473565, Note_on_c, 0, 60, 0
3, 473575, Note_on_c, 0, 57, 0
3, 473589, Note_on_c, 0, 64, 0
3, 473590, Note_on_c, 0, 67, 0
3, 473600, Note_on_c, 0, 52, 0
3, 473668, Note_on_c, 0, 49, 29
3, 473744, Note_on_c, 0, 50, 42
3, 473796, Note_on_c, 0, 49, 0
3, 473808, Note_on_c, 0, 57, 48
3, 473813, Note_on_c, 0, 67, 36
3, 473815, Note_on_c, 0, 52, 42
3, 473818, Note_on_c, 0, 64, 45
3, 473822, Note_on_c, 0, 60, 39
3, 473855, Note_on_c, 0, 50, 0
3, 474052, Note_on_c, 0, 67, 0
3, 474057, Note_on_c, 0, 52, 0
3, 474077, Note_on_c, 0, 60, 0
3, 474082, Note_on_c, 0, 57, 0
3, 474116, Note_on_c, 0, 64, 0
3, 474191, Note_on_c, 0, 50, 44
3, 474265, Note_on_c, 0, 50, 0
3, 474290, Note_on_c, 0, 52, 46
3, 474296, Note_on_c, 0, 57, 55
3, 474301, Note_on_c, 0, 67, 37
3, 474306, Note_on_c, 0, 60, 41
3, 474332, Note_on_c, 0, 64, 28
3, 474541, Note_on_c, 0, 67, 0
3, 474667, Note_on_c, 0, 57, 0
3, 474698, Note_on_c, 0, 64, 0
3, 474720, Note_on_c, 0, 52, 0
3, 474767, Note_on_c, 0, 51, 52
3, 474786, Note_on_c, 0, 66, 52
3, 474807, Note_on_c, 0, 57, 20
3, 475234, Note_on_c, 0, 57, 0
3, 475243, Note_on_c, 0, 51, 0
3, 475254, Note_on_c, 0, 66, 0
3, 475258, Control_c, 0, 64, 127
3, 475269, Note_on_c, 0, 65, 44
3, 475294, Control_c, 0, 64, 0
3, 475455, Control_c, 0, 64, 127
3, 475611, Note_on_c, 0, 60, 0
3, 475634, Note_on_c, 0, 45, 0
3, 475666, Note_on_c, 0, 65, 0
3, 475719, Note_on_c, 0, 50, 45
3, 475779, Note_on_c, 0, 50, 0
3, 476148, Control_c, 0, 64, 0
3, 476178, Note_on_c, 0, 76, 79
3, 476187, Note_on_c, 0, 71, 74
3, 476191, Note_on_c, 0, 65, 89
3, 476193, Note_on_c, 0, 68, 74
3, 476201, Note_on_c, 0, 64, 87
3, 476660, Note_on_c, 0, 63, 94
3, 476718, Note_on_c, 0, 64, 0
3, 476914, Note_on_c, 0, 65, 0
3, 476941, Note_on_c, 0, 68, 0
3, 476978, Note_on_c, 0, 71, 0
3, 477016, Note_on_c, 0, 76, 0
3, 477128, Note_on_c, 0, 74, 58
3, 477131, Note_on_c, 0, 71, 58
3, 477132, Note_on_c, 0, 68, 53
3, 477133, Note_on_c, 0, 65, 65
3, 477624, Note_on_c, 0, 62, 91
3, 477625, Note_on_c, 0, 63, 0
3, 477790, Control_c, 0, 64, 127
3, 477875, Note_on_c, 0, 65, 0
3, 477933, Note_on_c, 0, 68, 0
3, 477944, Note_on_c, 0, 71, 0
3, 477999, Note_on_c, 0, 74, 0
3, 478108, Note_on_c, 0, 71, 59
3, 478109, Note_on_c, 0, 68, 53
3, 478116, Note_on_c, 0, 74, 52
3, 478121, Note_on_c, 0, 65, 50
3, 478376, Note_on_c, 0, 74, 0
3, 478491, Note_on_c, 0, 71, 0
3, 478535, Note_on_c, 0, 68, 0
3, 478560, Note_on_c, 0, 62, 0
3, 478570, Note_on_c, 0, 65, 0
3, 478596, Note_on_c, 0, 59, 76
3, 478912, Note_on_c, 0, 59, 0
3, 479055, Note_on_c, 0, 68, 56
3, 479056, Note_on_c, 0, 65, 71
3, 479060, Note_on_c, 0, 62, 64
3, 479229, Note_on_c, 0, 68, 0
3, 479270, Note_on_c, 0, 65, 0
3, 479316, Note_on_c, 0, 62, 0
3, 479549, Note_on_c, 0, 44, 58
3, 479553, Note_on_c, 0, 54, 67
3, 479563, Note_on_c, 0, 59, 99
3, 479889, Note_on_c, 0, 54, 0
3, 479913, Note_on_c, 0, 44, 0
3, 479937, Control_c, 0, 64, 0
3, 479967, Note_on_c, 0, 59, 0
3, 480008, Note_on_c, 0, 43, 56
3, 480020, Note_on_c, 0, 53, 53
3, 480026, Note_on_c, 0, 58, 80
3, 480136, Control_c, 0, 64, 127
3, 480249, Note_on_c, 0, 43, 0
3, 480307, Note_on_c, 0, 58, 0
3, 480320, Note_on_c, 0, 53, 0
3, 480945, Note_on_c, 0, 58, 71
3, 480949, Note_on_c, 0, 62, 64
3, 480961, Note_on_c, 0, 53, 47
3, 480966, Note_on_c, 0, 57, 53
3, 480977, Note_on_c, 0, 73, 78
3, 480978, Note_on_c, 0, 85, 71
3, 480987, Control_c, 0, 64, 0
3, 480991, Note_on_c, 0, 62, 0
3, 480994, Note_on_c, 0, 79, 59
3, 481000, Note_on_c, 0, 82, 47
3, 481015, Note_on_c, 0, 57, 0
3, 481046, Note_on_c, 0, 58, 0
3, 481082, Note_on_c, 0, 53, 0
3, 481140, Note_on_c, 0, 73, 0
3, 481147, Note_on_c, 0, 74, 49
3, 481188, Note_on_c, 0, 79, 0
3, 481204, Note_on_c, 0, 85, 0
3, 481207, Note_on_c, 0, 82, 0
3, 481302, Note_on_c, 0, 74, 0
3, 481336, Note_on_c, 0, 82, 35
3, 481338, Note_on_c, 0, 86, 36
3, 481410, Note_on_c, 0, 86, 0
3, 481427, Note_on_c, 0, 74, 46
3, 481458, Note_on_c, 0, 82, 0
3, 481538, Note_on_c, 0, 74, 0
3, 481567, Note_on_c, 0, 82, 31
3, 481573, Note_on_c, 0, 86, 18
3, 481644, Note_on_c, 0, 74, 47
3, 481709, Note_on_c, 0, 82, 0
3, 481785, Note_on_c, 0, 74, 0
3, 481798, Note_on_c, 0, 82, 27
3, 481832, Note_on_c, 0, 79, 22
3, 481878, Note_on_c, 0, 74, 42
3, 481879, Note_on_c, 0, 79, 0
3, 481881, Note_on_c, 0, 50, 47
3, 481910, Note_on_c, 0, 82, 0
3, 482008, Note_on_c, 0, 74, 0
3, 482023, Note_on_c, 0, 82, 34
3, 482070, Note_on_c, 0, 79, 24
3, 482111, Note_on_c, 0, 74, 44
3, 482125, Note_on_c, 0, 79, 0
3, 482178, Note_on_c, 0, 82, 0
3, 482246, Note_on_c, 0, 74, 0
3, 482273, Note_on_c, 0, 82, 21
3, 482391, Note_on_c, 0, 74, 36
3, 482475, Note_on_c, 0, 50, 0
3, 482484, Note_on_c, 0, 86, 0
3, 482537, Note_on_c, 0, 74, 0
3, 482619, Note_on_c, 0, 82, 0
3, 482857, Note_on_c, 0, 37, 39
3, 482865, Note_on_c, 0, 49, 30
3, 483001, Note_on_c, 0, 49, 0
3, 483010, Note_on_c, 0, 37, 0
3, 483367, Note_on_c, 0, 85, 52
3, 483368, Note_on_c, 0, 73, 46
3, 483383, Control_c, 0, 64, 127
3, 483529, Note_on_c, 0, 73, 0
3, 483590, Note_on_c, 0, 85, 0
3, 483596, Note_on_c, 0, 84, 56
3, 483615, Note_on_c, 0, 72, 39
3, 483692, Control_c, 0, 64, 0
3, 483750, Note_on_c, 0, 72, 0
3, 483853, Note_on_c, 0, 36, 35
3, 483858, Note_on_c, 0, 84, 0
3, 483876, Note_on_c, 0, 79, 44
3, 483880, Note_on_c, 0, 52, 24
3, 483963, Control_c, 0, 64, 127
3, 483971, Note_on_c, 0, 36, 0
3, 484100, Note_on_c, 0, 52, 0
3, 484828, Control_c, 0, 64, 0
3, 484864, Note_on_c, 0, 58, 44
3, 484874, Note_on_c, 0, 64, 24
3, 484875, Note_on_c, 0, 60, 35
3, 484879, Note_on_c, 0, 55, 29
3, 484968, Note_on_c, 0, 64, 0
3, 484990, Note_on_c, 0, 60, 0
3, 485006, Note_on_c, 0, 55, 0
3, 485013, Note_on_c, 0, 79, 0
3, 485019, Note_on_c, 0, 58, 0
3, 485358, Control_c, 0, 64, 127
3, 485766, Control_c, 0, 64, 0
3, 485827, Note_on_c, 0, 80, 44
3, 485835, Note_on_c, 0, 58, 35
3, 485847, Note_on_c, 0, 70, 32
3, 485856, Note_on_c, 0, 73, 31
3, 485872, Note_on_c, 0, 48, 24
3, 485883, Note_on_c, 0, 76, 34
3, 486007, Note_on_c, 0, 48, 0
3, 486014, Note_on_c, 0, 58, 0
3, 486026, Note_on_c, 0, 70, 0
3, 486053, Note_on_c, 0, 73, 0
3, 486066, Note_on_c, 0, 76, 0
3, 486117, Note_on_c, 0, 80, 0
3, 486310, Control_c, 0, 64, 127
3, 486322, Control_c, 0, 64, 0
3, 486335, Control_c, 0, 64, 127
3, 486643, Control_c, 0, 64, 0
3, 486840, Control_c, 0, 64, 127
3, 487112, Control_c, 0, 64, 0
3, 487271, Note_on_c, 0, 42, 33
3, 487275, Note_on_c, 0, 69, 48
3, 487278, Note_on_c, 0, 81, 37
3, 487290, Note_on_c, 0, 73, 29
3, 487292, Note_on_c, 0, 76, 41
3, 487298, Note_on_c, 0, 49, 29
3, 487354, Note_on_c, 0, 73, 0
3, 487360, Note_on_c, 0, 69, 0
3, 487369, Note_on_c, 0, 76, 0
3, 487391, Note_on_c, 0, 81, 0
3, 487477, Note_on_c, 0, 42, 0
3, 487536, Note_on_c, 0, 49, 0
3, 487909, Note_on_c, 0, 77, 38
3, 487911, Note_on_c, 0, 69, 45
3, 487914, Note_on_c, 0, 62, 34
3, 487921, Note_on_c, 0, 72, 34
3, 487923, Note_on_c, 0, 67, 39
3, 487962, Note_on_c, 0, 41, 44
3, 492204, Note_on_c, 0, 67, 0
3, 492269, Note_on_c, 0, 69, 0
3, 492314, Note_on_c, 0, 72, 0
3, 492318, Note_on_c, 0, 77, 0
3, 492918, Note_on_c, 0, 62, 0
3, 495774, Note_on_c, 0, 41, 0
3, 495774, End_track
0, 0, End_of_file
