0, 0, Header, 1, 4, 120
1, 0, Start_track
1, 0, Title_t, "Desafinado"
1, 0, Text_t, "Doug McKenzie dougmck@pipeline.com.au\012"
1, 0, Time_signature, 4, 2, 24, 8
1, 0, Key_signature, -2, "major"
1, 0, Tempo, 333333
1, 0, End_track
2, 0, Start_track
2, 8, Note_on_c, 0, 77, 46
2, 77, Note_on_c, 0, 65, 28
2, 78, Note_on_c, 0, 60, 36
2, 78, Note_on_c, 0, 62, 33
2, 89, Note_on_c, 0, 55, 24
2, 98, Note_on_c, 0, 62, 0
2, 98, Note_on_c, 0, 65, 0
2, 99, Note_on_c, 0, 55, 0
2, 102, Note_on_c, 0, 60, 0
2, 240, Note_on_c, 0, 62, 32
2, 242, Note_on_c, 0, 60, 27
2, 243, Note_on_c, 0, 65, 18
2, 244, Note_on_c, 0, 55, 35
2, 253, Note_on_c, 0, 77, 0
2, 430, Note_on_c, 0, 79, 96
2, 472, Note_on_c, 0, 79, 0
2, 548, Note_on_c, 0, 81, 103
2, 562, Note_on_c, 0, 65, 0
2, 587, Note_on_c, 0, 60, 0
2, 594, Note_on_c, 0, 62, 0
2, 600, Note_on_c, 0, 55, 0
2, 619, Note_on_c, 0, 81, 0
2, 669, Note_on_c, 0, 82, 81
2, 709, Note_on_c, 0, 82, 0
2, 729, Note_on_c, 0, 81, 51
2, 770, Note_on_c, 0, 81, 0
2, 794, Note_on_c, 0, 79, 67
2, 809, Note_on_c, 0, 65, 32
2, 820, Note_on_c, 0, 60, 30
2, 829, Note_on_c, 0, 79, 0
2, 834, Note_on_c, 0, 65, 0
2, 855, Note_on_c, 0, 60, 0
2, 861, Note_on_c, 0, 78, 15
2, 901, Note_on_c, 0, 78, 0
2, 915, Note_on_c, 0, 79, 53
2, 940, Note_on_c, 0, 79, 0
2, 972, Note_on_c, 0, 82, 64
2, 1055, Note_on_c, 0, 82, 0
2, 1086, Note_on_c, 0, 52, 40
2, 1088, Note_on_c, 0, 58, 33
2, 1088, Note_on_c, 0, 62, 28
2, 1108, Note_on_c, 0, 62, 0
2, 1112, Note_on_c, 0, 52, 0
2, 1114, Note_on_c, 0, 58, 0
2, 1206, Note_on_c, 0, 78, 35
2, 1255, Note_on_c, 0, 78, 0
2, 1277, Note_on_c, 0, 69, 29
2, 1288, Note_on_c, 0, 64, 26
2, 1297, Note_on_c, 0, 69, 0
2, 1303, Note_on_c, 0, 64, 0
2, 1401, Note_on_c, 0, 64, 39
2, 1404, Note_on_c, 0, 58, 21
2, 1426, Note_on_c, 0, 64, 0
2, 1428, Note_on_c, 0, 58, 0
2, 1518, Note_on_c, 0, 69, 44
2, 1525, Note_on_c, 0, 64, 36
2, 1532, Note_on_c, 0, 58, 25
2, 1695, Note_on_c, 0, 78, 68
2, 1745, Note_on_c, 0, 78, 0
2, 1753, Note_on_c, 0, 79, 74
2, 1793, Note_on_c, 0, 79, 0
2, 1802, Note_on_c, 0, 69, 0
2, 1815, Note_on_c, 0, 64, 0
2, 1820, Note_on_c, 0, 78, 45
2, 1846, Note_on_c, 0, 78, 0
2, 1849, Note_on_c, 0, 58, 0
2, 1881, Note_on_c, 0, 79, 64
2, 1915, Note_on_c, 0, 79, 0
2, 1929, Note_on_c, 0, 67, 42
2, 1934, Note_on_c, 0, 79, 62
2, 1936, Note_on_c, 0, 63, 27
2, 1938, Note_on_c, 0, 62, 33
2, 1939, Note_on_c, 0, 58, 26
2, 2027, Note_on_c, 0, 79, 0
2, 2055, Note_on_c, 0, 78, 25
2, 2072, Note_on_c, 0, 67, 0
2, 2083, Note_on_c, 0, 63, 0
2, 2099, Note_on_c, 0, 78, 0
2, 2112, Note_on_c, 0, 79, 74
2, 2117, Note_on_c, 0, 63, 38
2, 2117, Note_on_c, 0, 67, 45
2, 2153, Note_on_c, 0, 79, 0
2, 2175, Note_on_c, 0, 81, 89
2, 2191, Note_on_c, 0, 67, 0
2, 2193, Note_on_c, 0, 62, 0
2, 2196, Note_on_c, 0, 63, 0
2, 2222, Note_on_c, 0, 81, 0
2, 2239, Note_on_c, 0, 81, 83
2, 2249, Note_on_c, 0, 63, 42
2, 2250, Note_on_c, 0, 67, 34
2, 2252, Note_on_c, 0, 62, 38
2, 2266, Note_on_c, 0, 81, 0
2, 2279, Note_on_c, 0, 67, 0
2, 2288, Note_on_c, 0, 82, 74
2, 2292, Note_on_c, 0, 63, 0
2, 2307, Note_on_c, 0, 62, 0
2, 2322, Note_on_c, 0, 82, 0
2, 2348, Note_on_c, 0, 82, 67
2, 2375, Note_on_c, 0, 58, 0
2, 2390, Note_on_c, 0, 82, 0
2, 2402, Note_on_c, 0, 57, 37
2, 2404, Note_on_c, 0, 63, 36
2, 2410, Note_on_c, 0, 67, 31
2, 2411, Note_on_c, 0, 72, 57
2, 2412, Note_on_c, 0, 84, 67
2, 2462, Note_on_c, 0, 84, 0
2, 2469, Note_on_c, 0, 67, 0
2, 2476, Note_on_c, 0, 72, 0
2, 2518, Note_on_c, 0, 57, 0
2, 2518, Note_on_c, 0, 82, 51
2, 2521, Note_on_c, 0, 70, 49
2, 2522, Note_on_c, 0, 63, 0
2, 2585, Note_on_c, 0, 63, 40
2, 2586, Note_on_c, 0, 67, 36
2, 2602, Note_on_c, 0, 67, 0
2, 2624, Note_on_c, 0, 63, 0
2, 2669, Note_on_c, 0, 82, 0
2, 2676, Note_on_c, 0, 70, 0
2, 2705, Note_on_c, 0, 81, 66
2, 2708, Note_on_c, 0, 69, 63
2, 2735, Note_on_c, 0, 69, 0
2, 2735, Note_on_c, 0, 81, 0
2, 2770, Note_on_c, 0, 80, 35
2, 2773, Note_on_c, 0, 68, 44
2, 2810, Note_on_c, 0, 80, 0
2, 2812, Note_on_c, 0, 68, 0
2, 2830, Note_on_c, 0, 69, 67
2, 2834, Note_on_c, 0, 81, 51
2, 2843, Note_on_c, 0, 69, 0
2, 2864, Note_on_c, 0, 81, 0
2, 2962, Note_on_c, 0, 77, 82
2, 2962, Note_on_c, 0, 89, 90
2, 2966, Note_on_c, 0, 50, 54
2, 2967, Note_on_c, 0, 57, 60
2, 2968, Note_on_c, 0, 60, 67
2, 3059, Control_c, 0, 64, 127
2, 3116, Note_on_c, 0, 89, 0
2, 3128, Note_on_c, 0, 50, 0
2, 3130, Note_on_c, 0, 57, 0
2, 3139, Note_on_c, 0, 60, 0
2, 3139, Note_on_c, 0, 77, 0
2, 3243, Note_on_c, 0, 80, 67
2, 3245, Note_on_c, 0, 68, 55
2, 3249, Note_on_c, 0, 54, 33
2, 3250, Note_on_c, 0, 65, 49
2, 3254, Note_on_c, 0, 60, 48
2, 3271, Control_c, 0, 64, 0
2, 3347, Control_c, 0, 64, 127
2, 3356, Note_on_c, 0, 60, 0
2, 3359, Note_on_c, 0, 65, 0
2, 3385, Note_on_c, 0, 68, 0
2, 3390, Note_on_c, 0, 80, 0
2, 3395, Note_on_c, 0, 54, 0
2, 3438, Note_on_c, 0, 64, 35
2, 3440, Note_on_c, 0, 80, 53
2, 3445, Note_on_c, 0, 68, 36
2, 3446, Note_on_c, 0, 53, 31
2, 3447, Note_on_c, 0, 59, 38
2, 3458, Control_c, 0, 64, 0
2, 3586, Control_c, 0, 64, 127
2, 3606, Note_on_c, 0, 53, 0
2, 3606, Note_on_c, 0, 64, 0
2, 3624, Note_on_c, 0, 59, 0
2, 3671, Note_on_c, 0, 63, 51
2, 3671, Note_on_c, 0, 59, 50
2, 3679, Note_on_c, 0, 53, 24
2, 3690, Control_c, 0, 64, 0
2, 3694, Note_on_c, 0, 53, 0
2, 3700, Note_on_c, 0, 68, 0
2, 3705, Note_on_c, 0, 59, 0
2, 3707, Control_c, 0, 64, 127
2, 3717, Note_on_c, 0, 63, 0
2, 3769, Note_on_c, 0, 80, 0
2, 3841, Note_on_c, 0, 63, 38
2, 3842, Note_on_c, 0, 67, 47
2, 3844, Note_on_c, 0, 58, 35
2, 3844, Note_on_c, 0, 62, 47
2, 3851, Control_c, 0, 64, 0
2, 4013, Note_on_c, 0, 75, 51
2, 4017, Note_on_c, 0, 76, 77
2, 4027, Note_on_c, 0, 75, 0
2, 4037, Note_on_c, 0, 77, 66
2, 4051, Note_on_c, 0, 76, 0
2, 4080, Note_on_c, 0, 77, 0
2, 4103, Note_on_c, 0, 77, 79
2, 4162, Note_on_c, 0, 77, 0
2, 4184, Note_on_c, 0, 75, 60
2, 4195, Note_on_c, 0, 62, 0
2, 4199, Note_on_c, 0, 67, 0
2, 4206, Note_on_c, 0, 63, 0
2, 4243, Note_on_c, 0, 75, 0
2, 4259, Note_on_c, 0, 58, 0
2, 4266, Note_on_c, 0, 74, 55
2, 4320, Note_on_c, 0, 74, 0
2, 4342, Note_on_c, 0, 77, 66
2, 4410, Note_on_c, 0, 77, 0
2, 4436, Note_on_c, 0, 75, 42
2, 4503, Note_on_c, 0, 75, 0
2, 4516, Note_on_c, 0, 60, 35
2, 4519, Note_on_c, 0, 74, 48
2, 4520, Note_on_c, 0, 63, 25
2, 4521, Note_on_c, 0, 54, 25
2, 4579, Note_on_c, 0, 74, 0
2, 4600, Note_on_c, 0, 60, 0
2, 4600, Note_on_c, 0, 69, 40
2, 4660, Note_on_c, 0, 63, 0
2, 4669, Note_on_c, 0, 69, 0
2, 4685, Note_on_c, 0, 66, 35
2, 4722, Note_on_c, 0, 54, 0
2, 4761, Note_on_c, 0, 66, 0
2, 4767, Note_on_c, 0, 65, 50
2, 4798, Note_on_c, 0, 65, 0
2, 4835, Note_on_c, 0, 67, 46
2, 4892, Note_on_c, 0, 62, 30
2, 4894, Note_on_c, 0, 58, 33
2, 4900, Note_on_c, 0, 57, 29
2, 4907, Note_on_c, 0, 62, 0
2, 4914, Note_on_c, 0, 57, 0
2, 4915, Note_on_c, 0, 58, 0
2, 4974, Note_on_c, 0, 67, 0
2, 4988, Note_on_c, 0, 70, 71
2, 4999, Note_on_c, 0, 71, 71
2, 5005, Note_on_c, 0, 53, 35
2, 5005, Note_on_c, 0, 59, 44
2, 5006, Note_on_c, 0, 70, 0
2, 5017, Note_on_c, 0, 64, 24
2, 5032, Note_on_c, 0, 64, 0
2, 5086, Note_on_c, 0, 71, 0
2, 5110, Note_on_c, 0, 74, 78
2, 5163, Note_on_c, 0, 69, 27
2, 5178, Note_on_c, 0, 59, 0
2, 5180, Note_on_c, 0, 70, 39
2, 5183, Note_on_c, 0, 53, 0
2, 5186, Note_on_c, 0, 69, 0
2, 5200, Note_on_c, 0, 71, 55
2, 5206, Note_on_c, 0, 70, 0
2, 5214, Note_on_c, 0, 74, 0
2, 5236, Note_on_c, 0, 71, 0
2, 5249, Note_on_c, 0, 59, 44
2, 5269, Note_on_c, 0, 59, 0
2, 5288, Note_on_c, 0, 67, 51
2, 5340, Note_on_c, 0, 67, 0
2, 5368, Note_on_c, 0, 68, 37
2, 5377, Note_on_c, 0, 74, 30
2, 5534, Note_on_c, 0, 63, 42
2, 5534, Note_on_c, 0, 59, 49
2, 5542, Note_on_c, 0, 53, 27
2, 5547, Note_on_c, 0, 59, 0
2, 5553, Note_on_c, 0, 63, 0
2, 5555, Note_on_c, 0, 53, 0
2, 5647, Note_on_c, 0, 63, 45
2, 5650, Note_on_c, 0, 59, 41
2, 5653, Note_on_c, 0, 53, 33
2, 5665, Note_on_c, 0, 59, 0
2, 5683, Note_on_c, 0, 63, 0
2, 5691, Note_on_c, 0, 53, 0
2, 5761, Note_on_c, 0, 68, 0
2, 5763, Note_on_c, 0, 62, 33
2, 5763, Note_on_c, 0, 52, 30
2, 5766, Note_on_c, 0, 58, 37
2, 5769, Note_on_c, 0, 74, 0
2, 5910, Note_on_c, 0, 58, 0
2, 5949, Note_on_c, 0, 58, 26
2, 6007, Note_on_c, 0, 62, 0
2, 6009, Note_on_c, 0, 73, 64
2, 6013, Note_on_c, 0, 58, 0
2, 6042, Note_on_c, 0, 52, 0
2, 6064, Note_on_c, 0, 73, 0
2, 6072, Note_on_c, 0, 72, 53
2, 6108, Note_on_c, 0, 72, 0
2, 6129, Note_on_c, 0, 70, 34
2, 6185, Note_on_c, 0, 70, 0
2, 6194, Note_on_c, 0, 67, 32
2, 6209, Note_on_c, 0, 67, 0
2, 6278, Note_on_c, 0, 72, 33
2, 6297, Note_on_c, 0, 70, 38
2, 6298, Note_on_c, 0, 72, 0
2, 6326, Note_on_c, 0, 70, 0
2, 6440, Note_on_c, 0, 58, 35
2, 6443, Note_on_c, 0, 62, 42
2, 6447, Note_on_c, 0, 52, 32
2, 6458, Note_on_c, 0, 62, 0
2, 6462, Note_on_c, 0, 52, 0
2, 6470, Note_on_c, 0, 58, 0
2, 6556, Note_on_c, 0, 62, 48
2, 6558, Note_on_c, 0, 58, 38
2, 6558, Note_on_c, 0, 52, 36
2, 6569, Note_on_c, 0, 62, 0
2, 6572, Note_on_c, 0, 52, 0
2, 6592, Note_on_c, 0, 58, 0
2, 6618, Note_on_c, 0, 67, 36
2, 6637, Note_on_c, 0, 67, 0
2, 6672, Note_on_c, 0, 70, 58
2, 6706, Note_on_c, 0, 70, 0
2, 6730, Note_on_c, 0, 72, 73
2, 6735, Note_on_c, 0, 71, 42
2, 6747, Note_on_c, 0, 71, 0
2, 6803, Note_on_c, 0, 72, 0
2, 6827, Note_on_c, 0, 54, 30
2, 6834, Note_on_c, 0, 47, 31
2, 6836, Note_on_c, 0, 70, 49
2, 6856, Note_on_c, 0, 47, 0
2, 6862, Note_on_c, 0, 54, 0
2, 6898, Note_on_c, 0, 70, 0
2, 6909, Note_on_c, 0, 66, 40
2, 7002, Note_on_c, 0, 54, 18
2, 7028, Note_on_c, 0, 66, 0
2, 7040, Note_on_c, 0, 54, 0
2, 7065, Note_on_c, 0, 58, 29
2, 7156, Note_on_c, 0, 54, 26
2, 7156, Note_on_c, 0, 63, 36
2, 7174, Note_on_c, 0, 58, 0
2, 7185, Note_on_c, 0, 54, 0
2, 7205, Note_on_c, 0, 63, 0
2, 7279, Note_on_c, 0, 66, 54
2, 7287, Note_on_c, 0, 54, 25
2, 7328, Note_on_c, 0, 66, 0
2, 7338, Note_on_c, 0, 70, 76
2, 7364, Note_on_c, 0, 70, 0
2, 7371, Note_on_c, 0, 69, 44
2, 7381, Note_on_c, 0, 54, 0
2, 7386, Note_on_c, 0, 69, 0
2, 7408, Note_on_c, 0, 54, 26
2, 7456, Note_on_c, 0, 54, 0
2, 7516, Note_on_c, 0, 68, 53
2, 7517, Note_on_c, 0, 54, 38
2, 7543, Note_on_c, 0, 54, 0
2, 7547, Note_on_c, 0, 68, 0
2, 7571, Note_on_c, 0, 70, 47
2, 7618, Note_on_c, 0, 70, 0
2, 7628, Note_on_c, 0, 72, 62
2, 7656, Note_on_c, 0, 72, 0
2, 7684, Note_on_c, 0, 74, 50
2, 7726, Note_on_c, 0, 74, 0
2, 7740, Note_on_c, 0, 75, 65
2, 7756, Note_on_c, 0, 65, 34
2, 7762, Note_on_c, 0, 62, 30
2, 7769, Note_on_c, 0, 65, 0
2, 7783, Note_on_c, 0, 75, 0
2, 7792, Note_on_c, 0, 62, 0
2, 7797, Note_on_c, 0, 76, 72
2, 7845, Note_on_c, 0, 76, 0
2, 7861, Note_on_c, 0, 77, 74
2, 7866, Note_on_c, 0, 65, 38
2, 7869, Note_on_c, 0, 62, 44
2, 7878, Note_on_c, 0, 60, 31
2, 7892, Note_on_c, 0, 77, 0
2, 7920, Note_on_c, 0, 79, 68
2, 7942, Note_on_c, 0, 60, 0
2, 7946, Note_on_c, 0, 62, 0
2, 7951, Note_on_c, 0, 65, 0
2, 7975, Note_on_c, 0, 79, 0
2, 8027, Note_on_c, 0, 81, 71
2, 8059, Note_on_c, 0, 81, 0
2, 8104, Note_on_c, 0, 70, 47
2, 8107, Note_on_c, 0, 82, 59
2, 8109, Note_on_c, 0, 65, 44
2, 8114, Note_on_c, 0, 62, 40
2, 8123, Note_on_c, 0, 60, 29
2, 8144, Note_on_c, 0, 65, 0
2, 8154, Note_on_c, 0, 60, 0
2, 8157, Note_on_c, 0, 62, 0
2, 8158, Note_on_c, 0, 82, 0
2, 8160, Note_on_c, 0, 70, 0
2, 8188, Note_on_c, 0, 81, 56
2, 8190, Note_on_c, 0, 69, 54
2, 8191, Note_on_c, 0, 65, 24
2, 8198, Note_on_c, 0, 62, 17
2, 8228, Note_on_c, 0, 65, 0
2, 8234, Note_on_c, 0, 81, 0
2, 8243, Note_on_c, 0, 69, 0
2, 8259, Note_on_c, 0, 62, 0
2, 8276, Note_on_c, 0, 79, 44
2, 8279, Note_on_c, 0, 67, 41
2, 8320, Note_on_c, 0, 79, 0
2, 8326, Note_on_c, 0, 67, 0
2, 8359, Note_on_c, 0, 62, 30
2, 8363, Note_on_c, 0, 78, 48
2, 8367, Note_on_c, 0, 66, 49
2, 8371, Note_on_c, 0, 60, 27
2, 8391, Note_on_c, 0, 60, 0
2, 8397, Note_on_c, 0, 62, 0
2, 8408, Note_on_c, 0, 78, 0
2, 8421, Note_on_c, 0, 66, 0
2, 8479, Note_on_c, 0, 79, 54
2, 8481, Note_on_c, 0, 67, 52
2, 8497, Note_on_c, 0, 67, 0
2, 8515, Note_on_c, 0, 79, 0
2, 8593, Note_on_c, 0, 82, 68
2, 8595, Note_on_c, 0, 57, 35
2, 8597, Note_on_c, 0, 62, 48
2, 8604, Note_on_c, 0, 58, 33
2, 8694, Note_on_c, 0, 81, 55
2, 8720, Note_on_c, 0, 80, 40
2, 8723, Note_on_c, 0, 81, 0
2, 8729, Note_on_c, 0, 62, 0
2, 8736, Note_on_c, 0, 82, 0
2, 8743, Note_on_c, 0, 57, 0
2, 8745, Note_on_c, 0, 79, 58
2, 8749, Note_on_c, 0, 80, 0
2, 8749, Note_on_c, 0, 58, 0
2, 8771, Note_on_c, 0, 79, 0
2, 8784, Note_on_c, 0, 78, 46
2, 8846, Note_on_c, 0, 78, 0
2, 8960, Note_on_c, 0, 63, 45
2, 8965, Note_on_c, 0, 58, 38
2, 8967, Note_on_c, 0, 52, 32
2, 8982, Note_on_c, 0, 52, 0
2, 8986, Note_on_c, 0, 63, 0
2, 8991, Note_on_c, 0, 58, 0
2, 9125, Note_on_c, 0, 63, 31
2, 9132, Note_on_c, 0, 58, 34
2, 9132, Note_on_c, 0, 52, 32
2, 9181, Note_on_c, 0, 58, 0
2, 9182, Note_on_c, 0, 52, 0
2, 9194, Note_on_c, 0, 63, 0
2, 9251, Note_on_c, 0, 87, 86
2, 9291, Note_on_c, 0, 87, 0
2, 9309, Note_on_c, 0, 88, 77
2, 9349, Note_on_c, 0, 88, 0
2, 9362, Note_on_c, 0, 85, 46
2, 9417, Note_on_c, 0, 85, 0
2, 9424, Note_on_c, 0, 84, 60
2, 9432, Note_on_c, 0, 63, 30
2, 9436, Note_on_c, 0, 58, 27
2, 9449, Note_on_c, 0, 84, 0
2, 9451, Note_on_c, 0, 63, 0
2, 9461, Note_on_c, 0, 58, 0
2, 9482, Note_on_c, 0, 82, 32
2, 9541, Note_on_c, 0, 82, 0
2, 9549, Note_on_c, 0, 79, 31
2, 9564, Note_on_c, 0, 79, 0
2, 9594, Note_on_c, 0, 67, 32
2, 9595, Note_on_c, 0, 82, 34
2, 9597, Note_on_c, 0, 78, 28
2, 9598, Note_on_c, 0, 63, 25
2, 9599, Note_on_c, 0, 58, 25
2, 9601, Note_on_c, 0, 62, 35
2, 9643, Note_on_c, 0, 82, 0
2, 9656, Note_on_c, 0, 78, 0
2, 9664, Note_on_c, 0, 79, 50
2, 9665, Note_on_c, 0, 82, 39
2, 9684, Note_on_c, 0, 67, 0
2, 9692, Note_on_c, 0, 79, 0
2, 9694, Note_on_c, 0, 82, 0
2, 9706, Note_on_c, 0, 58, 0
2, 9712, Note_on_c, 0, 62, 0
2, 9714, Note_on_c, 0, 63, 0
2, 9719, Note_on_c, 0, 79, 45
2, 9719, Note_on_c, 0, 82, 35
2, 9750, Note_on_c, 0, 79, 0
2, 9757, Note_on_c, 0, 82, 0
2, 9781, Note_on_c, 0, 82, 43
2, 9785, Note_on_c, 0, 79, 42
2, 9825, Note_on_c, 0, 79, 0
2, 9839, Note_on_c, 0, 75, 37
2, 9843, Note_on_c, 0, 82, 0
2, 9885, Note_on_c, 0, 75, 0
2, 9946, Note_on_c, 0, 58, 35
2, 9947, Note_on_c, 0, 67, 33
2, 9956, Note_on_c, 0, 62, 31
2, 9958, Note_on_c, 0, 63, 21
2, 9989, Note_on_c, 0, 62, 0
2, 9993, Note_on_c, 0, 67, 0
2, 9997, Note_on_c, 0, 63, 0
2, 10026, Note_on_c, 0, 82, 64
2, 10027, Note_on_c, 0, 70, 60
2, 10032, Note_on_c, 0, 58, 0
2, 10098, Note_on_c, 0, 82, 0
2, 10109, Note_on_c, 0, 70, 0
2, 10150, Note_on_c, 0, 81, 68
2, 10151, Note_on_c, 0, 69, 63
2, 10152, Note_on_c, 0, 57, 47
2, 10152, Note_on_c, 0, 63, 38
2, 10153, Note_on_c, 0, 65, 45
2, 10308, Control_c, 0, 64, 127
2, 10322, Note_on_c, 0, 81, 0
2, 10334, Note_on_c, 0, 65, 0
2, 10340, Note_on_c, 0, 69, 0
2, 10348, Note_on_c, 0, 57, 0
2, 10362, Note_on_c, 0, 63, 0
2, 10389, Control_c, 0, 64, 0
2, 10390, Note_on_c, 0, 80, 50
2, 10391, Note_on_c, 0, 68, 59
2, 10395, Note_on_c, 0, 63, 46
2, 10399, Note_on_c, 0, 65, 46
2, 10401, Note_on_c, 0, 57, 45
2, 10410, Note_on_c, 0, 65, 0
2, 10419, Note_on_c, 0, 57, 0
2, 10426, Note_on_c, 0, 63, 0
2, 10430, Control_c, 0, 64, 127
2, 10436, Note_on_c, 0, 80, 0
2, 10439, Note_on_c, 0, 68, 0
2, 10480, Note_on_c, 0, 69, 72
2, 10482, Note_on_c, 0, 81, 65
2, 10485, Note_on_c, 0, 61, 56
2, 10485, Note_on_c, 0, 51, 48
2, 10498, Note_on_c, 0, 69, 0
2, 10512, Note_on_c, 0, 81, 0
2, 10512, Note_on_c, 0, 61, 0
2, 10518, Note_on_c, 0, 51, 0
2, 10576, Control_c, 0, 64, 0
2, 10578, Note_on_c, 0, 77, 81
2, 10579, Note_on_c, 0, 50, 64
2, 10580, Note_on_c, 0, 89, 89
2, 10580, Note_on_c, 0, 60, 68
2, 10580, Note_on_c, 0, 56, 55
2, 10677, Control_c, 0, 64, 127
2, 10726, Note_on_c, 0, 60, 0
2, 10748, Note_on_c, 0, 77, 0
2, 10749, Note_on_c, 0, 56, 0
2, 10762, Control_c, 0, 64, 0
2, 10762, Note_on_c, 0, 84, 75
2, 10764, Note_on_c, 0, 56, 27
2, 10765, Note_on_c, 0, 60, 54
2, 10804, Note_on_c, 0, 60, 0
2, 10811, Note_on_c, 0, 89, 0
2, 10819, Note_on_c, 0, 84, 0
2, 10828, Control_c, 0, 64, 127
2, 10843, Note_on_c, 0, 89, 59
2, 10850, Note_on_c, 0, 80, 60
2, 10859, Note_on_c, 0, 60, 37
2, 10872, Control_c, 0, 64, 0
2, 10888, Note_on_c, 0, 80, 0
2, 10903, Note_on_c, 0, 89, 0
2, 10917, Note_on_c, 0, 50, 0
2, 10925, Note_on_c, 0, 56, 0
2, 10928, Note_on_c, 0, 78, 48
2, 10937, Note_on_c, 0, 60, 0
2, 10978, Note_on_c, 0, 78, 0
2, 11006, Note_on_c, 0, 89, 40
2, 11010, Note_on_c, 0, 64, 44
2, 11010, Note_on_c, 0, 79, 52
2, 11015, Note_on_c, 0, 53, 30
2, 11016, Note_on_c, 0, 59, 43
2, 11120, Note_on_c, 0, 89, 0
2, 11131, Note_on_c, 0, 79, 0
2, 11182, Note_on_c, 0, 64, 0
2, 11191, Note_on_c, 0, 53, 0
2, 11205, Note_on_c, 0, 59, 0
2, 11226, Note_on_c, 0, 92, 83
2, 11231, Note_on_c, 0, 59, 54
2, 11231, Note_on_c, 0, 53, 52
2, 11234, Note_on_c, 0, 64, 48
2, 11240, Note_on_c, 0, 91, 38
2, 11241, Note_on_c, 0, 90, 35
2, 11265, Note_on_c, 0, 90, 0
2, 11272, Note_on_c, 0, 91, 0
2, 11273, Note_on_c, 0, 92, 0
2, 11295, Note_on_c, 0, 91, 48
2, 11355, Note_on_c, 0, 89, 65
2, 11360, Note_on_c, 0, 59, 0
2, 11361, Note_on_c, 0, 53, 0
2, 11377, Note_on_c, 0, 91, 0
2, 11389, Note_on_c, 0, 64, 0
2, 11393, Note_on_c, 0, 89, 0
2, 11412, Note_on_c, 0, 87, 45
2, 11470, Note_on_c, 0, 83, 42
2, 11479, Note_on_c, 0, 87, 0
2, 11497, Note_on_c, 0, 83, 0
2, 11521, Note_on_c, 0, 67, 34
2, 11522, Note_on_c, 0, 89, 66
2, 11524, Note_on_c, 0, 86, 80
2, 11526, Note_on_c, 0, 63, 30
2, 11526, Note_on_c, 0, 58, 29
2, 11530, Note_on_c, 0, 62, 39
2, 11585, Note_on_c, 0, 86, 0
2, 11595, Note_on_c, 0, 89, 0
2, 11613, Note_on_c, 0, 67, 0
2, 11644, Note_on_c, 0, 86, 74
2, 11648, Note_on_c, 0, 89, 57
2, 11661, Note_on_c, 0, 63, 0
2, 11665, Note_on_c, 0, 62, 0
2, 11714, Note_on_c, 0, 87, 57
2, 11719, Note_on_c, 0, 86, 0
2, 11723, Note_on_c, 0, 84, 48
2, 11730, Note_on_c, 0, 62, 17
2, 11740, Note_on_c, 0, 89, 0
2, 11752, Note_on_c, 0, 58, 0
2, 11757, Note_on_c, 0, 84, 0
2, 11758, Note_on_c, 0, 87, 0
2, 11758, Note_on_c, 0, 62, 0
2, 11779, Note_on_c, 0, 86, 63
2, 11823, Note_on_c, 0, 67, 36
2, 11829, Note_on_c, 0, 58, 29
2, 11836, Note_on_c, 0, 67, 0
2, 11848, Note_on_c, 0, 86, 0
2, 11856, Note_on_c, 0, 58, 0
2, 11868, Note_on_c, 0, 85, 47
2, 11930, Note_on_c, 0, 85, 0
2, 11943, Note_on_c, 0, 89, 81
2, 11949, Note_on_c, 0, 54, 40
2, 11950, Note_on_c, 0, 65, 54
2, 11952, Note_on_c, 0, 58, 45
2, 11954, Note_on_c, 0, 61, 35
2, 12045, Note_on_c, 0, 89, 0
2, 12060, Note_on_c, 0, 87, 62
2, 12069, Note_on_c, 0, 89, 39
2, 12089, Note_on_c, 0, 89, 0
2, 12091, Note_on_c, 0, 87, 0
2, 12110, Note_on_c, 0, 65, 0
2, 12124, Note_on_c, 0, 85, 57
2, 12125, Note_on_c, 0, 61, 0
2, 12131, Note_on_c, 0, 89, 44
2, 12134, Note_on_c, 0, 58, 0
2, 12142, Note_on_c, 0, 54, 0
2, 12176, Note_on_c, 0, 85, 0
2, 12181, Note_on_c, 0, 89, 0
2, 12190, Note_on_c, 0, 84, 59
2, 12194, Note_on_c, 0, 54, 26
2, 12195, Note_on_c, 0, 65, 37
2, 12198, Note_on_c, 0, 61, 30
2, 12206, Note_on_c, 0, 58, 25
2, 12214, Note_on_c, 0, 65, 0
2, 12218, Note_on_c, 0, 84, 0
2, 12222, Note_on_c, 0, 54, 0
2, 12232, Note_on_c, 0, 61, 0
2, 12237, Note_on_c, 0, 58, 0
2, 12251, Note_on_c, 0, 82, 38
2, 12300, Note_on_c, 0, 82, 0
2, 12312, Note_on_c, 0, 54, 35
2, 12315, Note_on_c, 0, 65, 31
2, 12317, Note_on_c, 0, 61, 33
2, 12325, Note_on_c, 0, 58, 23
2, 12338, Note_on_c, 0, 65, 0
2, 12409, Note_on_c, 0, 54, 0
2, 12416, Note_on_c, 0, 58, 0
2, 12433, Note_on_c, 0, 61, 0
2, 12481, Note_on_c, 0, 65, 36
2, 12483, Note_on_c, 0, 60, 46
2, 12483, Note_on_c, 0, 62, 36
2, 12490, Note_on_c, 0, 55, 33
2, 12612, Note_on_c, 0, 80, 79
2, 12614, Note_on_c, 0, 72, 83
2, 12616, Note_on_c, 0, 84, 80
2, 12616, Note_on_c, 0, 78, 57
2, 12621, Note_on_c, 0, 83, 60
2, 12626, Note_on_c, 0, 78, 0
2, 12630, Note_on_c, 0, 83, 0
2, 12655, Note_on_c, 0, 62, 0
2, 12668, Note_on_c, 0, 80, 0
2, 12674, Note_on_c, 0, 81, 53
2, 12675, Note_on_c, 0, 62, 17
2, 12689, Note_on_c, 0, 65, 0
2, 12709, Note_on_c, 0, 84, 0
2, 12715, Note_on_c, 0, 72, 0
2, 12716, Note_on_c, 0, 81, 0
2, 12728, Note_on_c, 0, 62, 0
2, 12728, Note_on_c, 0, 60, 0
2, 12737, Note_on_c, 0, 84, 44
2, 12739, Note_on_c, 0, 72, 32
2, 12740, Note_on_c, 0, 81, 54
2, 12772, Note_on_c, 0, 84, 0
2, 12776, Note_on_c, 0, 72, 0
2, 12777, Note_on_c, 0, 81, 0
2, 12798, Note_on_c, 0, 84, 58
2, 12801, Note_on_c, 0, 72, 38
2, 12802, Note_on_c, 0, 81, 58
2, 12833, Note_on_c, 0, 72, 0
2, 12834, Note_on_c, 0, 84, 0
2, 12835, Note_on_c, 0, 81, 0
2, 12862, Note_on_c, 0, 84, 54
2, 12864, Note_on_c, 0, 72, 30
2, 12864, Note_on_c, 0, 81, 45
2, 12873, Note_on_c, 0, 55, 0
2, 12892, Note_on_c, 0, 72, 0
2, 12894, Note_on_c, 0, 84, 0
2, 12896, Note_on_c, 0, 81, 0
2, 12923, Note_on_c, 0, 84, 49
2, 12924, Note_on_c, 0, 81, 54
2, 12924, Note_on_c, 0, 72, 35
2, 12949, Note_on_c, 0, 72, 0
2, 12950, Note_on_c, 0, 84, 0
2, 12960, Note_on_c, 0, 81, 0
2, 12985, Note_on_c, 0, 52, 36
2, 12985, Note_on_c, 0, 62, 36
2, 12985, Note_on_c, 0, 84, 55
2, 12986, Note_on_c, 0, 58, 25
2, 12988, Note_on_c, 0, 81, 45
2, 12989, Note_on_c, 0, 72, 35
2, 13052, Note_on_c, 0, 81, 0
2, 13063, Note_on_c, 0, 84, 0
2, 13076, Note_on_c, 0, 52, 0
2, 13079, Note_on_c, 0, 72, 0
2, 13084, Note_on_c, 0, 82, 34
2, 13087, Note_on_c, 0, 58, 0
2, 13097, Note_on_c, 0, 62, 0
2, 13123, Note_on_c, 0, 82, 0
2, 13163, Note_on_c, 0, 72, 39
2, 13163, Note_on_c, 0, 84, 50
2, 13165, Note_on_c, 0, 81, 34
2, 13180, Note_on_c, 0, 81, 0
2, 13183, Note_on_c, 0, 72, 0
2, 13185, Note_on_c, 0, 84, 0
2, 13266, Note_on_c, 0, 61, 38
2, 13267, Note_on_c, 0, 55, 42
2, 13269, Note_on_c, 0, 65, 36
2, 13302, Note_on_c, 0, 65, 0
2, 13303, Note_on_c, 0, 55, 0
2, 13355, Note_on_c, 0, 61, 0
2, 13388, Note_on_c, 0, 82, 69
2, 13433, Note_on_c, 0, 82, 0
2, 13443, Note_on_c, 0, 61, 23
2, 13449, Note_on_c, 0, 64, 28
2, 13450, Note_on_c, 0, 54, 20
2, 13453, Note_on_c, 0, 59, 36
2, 13453, Note_on_c, 0, 81, 54
2, 13572, Note_on_c, 0, 59, 0
2, 13582, Note_on_c, 0, 64, 0
2, 13593, Note_on_c, 0, 61, 0
2, 13633, Note_on_c, 0, 61, 34
2, 13638, Note_on_c, 0, 81, 0
2, 13678, Note_on_c, 0, 61, 0
2, 13761, Note_on_c, 0, 83, 90
2, 13766, Note_on_c, 0, 64, 34
2, 13767, Note_on_c, 0, 61, 31
2, 13781, Note_on_c, 0, 64, 0
2, 13799, Note_on_c, 0, 61, 0
2, 13809, Note_on_c, 0, 83, 0
2, 13836, Note_on_c, 0, 81, 33
2, 13837, Note_on_c, 0, 54, 0
2, 13873, Note_on_c, 0, 81, 0
2, 13886, Note_on_c, 0, 83, 62
2, 13925, Note_on_c, 0, 83, 0
2, 13951, Note_on_c, 0, 81, 57
2, 14022, Note_on_c, 0, 54, 40
2, 14022, Note_on_c, 0, 60, 51
2, 14038, Note_on_c, 0, 60, 0
2, 14056, Note_on_c, 0, 54, 0
2, 14110, Note_on_c, 0, 81, 0
2, 14234, Note_on_c, 0, 83, 89
2, 14238, Note_on_c, 0, 63, 53
2, 14239, Note_on_c, 0, 54, 42
2, 14248, Note_on_c, 0, 60, 26
2, 14258, Note_on_c, 0, 60, 0
2, 14259, Note_on_c, 0, 63, 0
2, 14277, Note_on_c, 0, 83, 0
2, 14282, Note_on_c, 0, 54, 0
2, 14305, Note_on_c, 0, 81, 37
2, 14340, Note_on_c, 0, 81, 0
2, 14359, Note_on_c, 0, 83, 72
2, 14396, Note_on_c, 0, 83, 0
2, 14412, Note_on_c, 0, 52, 38
2, 14413, Note_on_c, 0, 62, 51
2, 14417, Note_on_c, 0, 59, 44
2, 14421, Note_on_c, 0, 81, 64
2, 14460, Note_on_c, 0, 81, 0
2, 14462, Note_on_c, 0, 62, 0
2, 14466, Note_on_c, 0, 83, 36
2, 14491, Note_on_c, 0, 81, 48
2, 14499, Note_on_c, 0, 83, 0
2, 14520, Note_on_c, 0, 59, 0
2, 14520, Note_on_c, 0, 80, 45
2, 14521, Note_on_c, 0, 81, 0
2, 14536, Note_on_c, 0, 80, 0
2, 14558, Note_on_c, 0, 81, 69
2, 14611, Note_on_c, 0, 81, 0
2, 14679, Note_on_c, 0, 52, 0
2, 14714, Note_on_c, 0, 59, 67
2, 14714, Note_on_c, 0, 62, 68
2, 14729, Note_on_c, 0, 62, 0
2, 14734, Note_on_c, 0, 59, 0
2, 14834, Note_on_c, 0, 66, 61
2, 14835, Note_on_c, 0, 55, 61
2, 14835, Note_on_c, 0, 61, 51
2, 14835, Note_on_c, 0, 81, 110
2, 14896, Note_on_c, 0, 81, 0
2, 14903, Note_on_c, 0, 83, 43
2, 14934, Note_on_c, 0, 83, 0
2, 14938, Note_on_c, 0, 81, 51
2, 14942, Note_on_c, 0, 66, 0
2, 14961, Note_on_c, 0, 80, 55
2, 14967, Note_on_c, 0, 81, 0
2, 14983, Note_on_c, 0, 80, 0
2, 15000, Note_on_c, 0, 81, 74
2, 15008, Note_on_c, 0, 55, 0
2, 15062, Note_on_c, 0, 61, 0
2, 15064, Note_on_c, 0, 81, 0
2, 15084, Note_on_c, 0, 81, 26
2, 15169, Note_on_c, 0, 81, 0
2, 15181, Note_on_c, 0, 82, 61
2, 15181, Note_on_c, 0, 61, 58
2, 15184, Note_on_c, 0, 66, 56
2, 15191, Note_on_c, 0, 55, 37
2, 15210, Note_on_c, 0, 55, 0
2, 15215, Note_on_c, 0, 66, 0
2, 15215, Note_on_c, 0, 82, 0
2, 15240, Note_on_c, 0, 83, 41
2, 15290, Note_on_c, 0, 83, 0
2, 15300, Note_on_c, 0, 86, 80
2, 15317, Note_on_c, 0, 61, 0
2, 15334, Note_on_c, 0, 86, 0
2, 15353, Note_on_c, 0, 61, 32
2, 15354, Note_on_c, 0, 64, 41
2, 15360, Note_on_c, 0, 54, 23
2, 15361, Note_on_c, 0, 59, 42
2, 15362, Note_on_c, 0, 85, 62
2, 15468, Note_on_c, 0, 85, 0
2, 15482, Note_on_c, 0, 81, 44
2, 15541, Note_on_c, 0, 81, 0
2, 15557, Note_on_c, 0, 83, 74
2, 15599, Note_on_c, 0, 59, 0
2, 15602, Note_on_c, 0, 64, 0
2, 15629, Note_on_c, 0, 61, 0
2, 15669, Note_on_c, 0, 83, 0
2, 15671, Note_on_c, 0, 61, 36
2, 15679, Note_on_c, 0, 81, 38
2, 15702, Note_on_c, 0, 54, 0
2, 15707, Note_on_c, 0, 61, 0
2, 15775, Note_on_c, 0, 81, 0
2, 15793, Note_on_c, 0, 71, 58
2, 15794, Note_on_c, 0, 83, 59
2, 15874, Note_on_c, 0, 83, 0
2, 15887, Note_on_c, 0, 71, 0
2, 15909, Note_on_c, 0, 81, 54
2, 15915, Note_on_c, 0, 69, 35
2, 15992, Note_on_c, 0, 69, 0
2, 15992, Note_on_c, 0, 81, 0
2, 16030, Note_on_c, 0, 54, 42
2, 16034, Note_on_c, 0, 60, 44
2, 16035, Note_on_c, 0, 63, 25
2, 16066, Note_on_c, 0, 60, 0
2, 16069, Note_on_c, 0, 63, 0
2, 16083, Note_on_c, 0, 54, 0
2, 16151, Note_on_c, 0, 79, 61
2, 16153, Note_on_c, 0, 67, 67
2, 16177, Note_on_c, 0, 79, 0
2, 16181, Note_on_c, 0, 67, 0
2, 16220, Note_on_c, 0, 80, 50
2, 16222, Note_on_c, 0, 68, 42
2, 16267, Note_on_c, 0, 80, 0
2, 16273, Note_on_c, 0, 68, 0
2, 16282, Note_on_c, 0, 69, 64
2, 16283, Note_on_c, 0, 81, 58
2, 16318, Note_on_c, 0, 69, 0
2, 16320, Note_on_c, 0, 81, 0
2, 16341, Note_on_c, 0, 52, 22
2, 16349, Note_on_c, 0, 59, 17
2, 16349, Note_on_c, 0, 81, 64
2, 16353, Note_on_c, 0, 69, 53
2, 16399, Note_on_c, 0, 52, 0
2, 16402, Note_on_c, 0, 81, 0
2, 16405, Note_on_c, 0, 69, 0
2, 16427, Note_on_c, 0, 59, 0
2, 16457, Note_on_c, 0, 64, 47
2, 16463, Note_on_c, 0, 76, 27
2, 16474, Note_on_c, 0, 64, 0
2, 16489, Note_on_c, 0, 76, 0
2, 16529, Note_on_c, 0, 59, 41
2, 16530, Note_on_c, 0, 52, 36
2, 16545, Note_on_c, 0, 52, 0
2, 16545, Note_on_c, 0, 59, 0
2, 16637, Note_on_c, 0, 81, 72
2, 16640, Note_on_c, 0, 69, 71
2, 16666, Note_on_c, 0, 69, 0
2, 16679, Note_on_c, 0, 81, 0
2, 16725, Note_on_c, 0, 76, 34
2, 16762, Note_on_c, 0, 76, 0
2, 16812, Note_on_c, 0, 61, 39
2, 16812, Note_on_c, 0, 55, 51
2, 16813, Note_on_c, 0, 66, 37
2, 16815, Note_on_c, 0, 81, 64
2, 16816, Note_on_c, 0, 69, 61
2, 16886, Note_on_c, 0, 69, 0
2, 16891, Note_on_c, 0, 81, 0
2, 16904, Control_c, 0, 64, 127
2, 16911, Note_on_c, 0, 66, 0
2, 16924, Note_on_c, 0, 55, 0
2, 16924, Note_on_c, 0, 77, 41
2, 16934, Note_on_c, 0, 61, 0
2, 16940, Note_on_c, 0, 77, 0
2, 16995, Note_on_c, 0, 77, 74
2, 16996, Note_on_c, 0, 84, 82
2, 16996, Control_c, 0, 64, 0
2, 16997, Note_on_c, 0, 66, 71
2, 16998, Note_on_c, 0, 61, 57
2, 16999, Note_on_c, 0, 55, 73
2, 17000, Note_on_c, 0, 72, 48
2, 17049, Note_on_c, 0, 84, 0
2, 17059, Note_on_c, 0, 72, 0
2, 17061, Note_on_c, 0, 77, 0
2, 17063, Control_c, 0, 64, 127
2, 17080, Note_on_c, 0, 84, 63
2, 17083, Note_on_c, 0, 72, 36
2, 17092, Note_on_c, 0, 77, 27
2, 17110, Note_on_c, 0, 77, 0
2, 17131, Note_on_c, 0, 55, 0
2, 17134, Control_c, 0, 64, 0
2, 17138, Note_on_c, 0, 72, 0
2, 17142, Note_on_c, 0, 66, 0
2, 17146, Note_on_c, 0, 84, 0
2, 17165, Control_c, 0, 64, 127
2, 17166, Note_on_c, 0, 81, 50
2, 17210, Note_on_c, 0, 81, 0
2, 17220, Note_on_c, 0, 61, 0
2, 17232, Control_c, 0, 64, 0
2, 17235, Note_on_c, 0, 61, 21
2, 17243, Note_on_c, 0, 54, 31
2, 17243, Note_on_c, 0, 81, 43
2, 17245, Note_on_c, 0, 64, 36
2, 17253, Note_on_c, 0, 59, 30
2, 17419, Note_on_c, 0, 64, 0
2, 17422, Note_on_c, 0, 59, 0
2, 17437, Note_on_c, 0, 61, 0
2, 17478, Note_on_c, 0, 81, 0
2, 17478, Note_on_c, 0, 64, 43
2, 17479, Note_on_c, 0, 61, 44
2, 17485, Note_on_c, 0, 59, 40
2, 17501, Note_on_c, 0, 64, 0
2, 17503, Note_on_c, 0, 59, 0
2, 17512, Note_on_c, 0, 61, 0
2, 17520, Note_on_c, 0, 54, 0
2, 17592, Note_on_c, 0, 83, 80
2, 17628, Note_on_c, 0, 83, 0
2, 17656, Note_on_c, 0, 85, 52
2, 17690, Note_on_c, 0, 85, 0
2, 17715, Note_on_c, 0, 86, 75
2, 17745, Note_on_c, 0, 86, 0
2, 17771, Note_on_c, 0, 87, 64
2, 17772, Note_on_c, 0, 75, 64
2, 17778, Note_on_c, 0, 85, 29
2, 17784, Note_on_c, 0, 62, 30
2, 17800, Note_on_c, 0, 62, 0
2, 17827, Note_on_c, 0, 87, 0
2, 17837, Note_on_c, 0, 75, 0
2, 17840, Note_on_c, 0, 76, 55
2, 17848, Note_on_c, 0, 85, 0
2, 17872, Note_on_c, 0, 76, 0
2, 17963, Note_on_c, 0, 66, 49
2, 17966, Note_on_c, 0, 62, 46
2, 17972, Note_on_c, 0, 57, 27
2, 17980, Note_on_c, 0, 62, 0
2, 17983, Note_on_c, 0, 57, 0
2, 17984, Note_on_c, 0, 66, 0
2, 18081, Note_on_c, 0, 86, 76
2, 18082, Note_on_c, 0, 74, 75
2, 18102, Note_on_c, 0, 86, 0
2, 18124, Note_on_c, 0, 74, 0
2, 18151, Note_on_c, 0, 78, 32
2, 18185, Note_on_c, 0, 78, 0
2, 18204, Note_on_c, 0, 79, 49
2, 18230, Note_on_c, 0, 79, 0
2, 18260, Note_on_c, 0, 81, 56
2, 18296, Note_on_c, 0, 81, 0
2, 18366, Note_on_c, 0, 81, 75
2, 18436, Note_on_c, 0, 80, 37
2, 18437, Note_on_c, 0, 81, 0
2, 18452, Note_on_c, 0, 80, 0
2, 18489, Note_on_c, 0, 81, 29
2, 18538, Note_on_c, 0, 81, 0
2, 18548, Note_on_c, 0, 66, 46
2, 18549, Note_on_c, 0, 62, 37
2, 18550, Note_on_c, 0, 83, 68
2, 18551, Note_on_c, 0, 59, 51
2, 18551, Note_on_c, 0, 55, 33
2, 18648, Note_on_c, 0, 62, 0
2, 18664, Note_on_c, 0, 55, 0
2, 18668, Note_on_c, 0, 59, 0
2, 18680, Note_on_c, 0, 66, 0
2, 18683, Note_on_c, 0, 83, 0
2, 18843, Note_on_c, 0, 66, 51
2, 18846, Note_on_c, 0, 61, 42
2, 18847, Note_on_c, 0, 84, 85
2, 18849, Note_on_c, 0, 55, 52
2, 18911, Note_on_c, 0, 84, 0
2, 18916, Note_on_c, 0, 83, 48
2, 18932, Note_on_c, 0, 66, 0
2, 18941, Note_on_c, 0, 83, 0
2, 18958, Note_on_c, 0, 55, 0
2, 18966, Note_on_c, 0, 84, 50
2, 18982, Note_on_c, 0, 61, 0
2, 19024, Note_on_c, 0, 61, 45
2, 19025, Note_on_c, 0, 85, 65
2, 19027, Note_on_c, 0, 66, 49
2, 19032, Note_on_c, 0, 55, 47
2, 19035, Note_on_c, 0, 84, 0
2, 19060, Note_on_c, 0, 85, 0
2, 19061, Note_on_c, 0, 66, 0
2, 19062, Note_on_c, 0, 55, 0
2, 19083, Note_on_c, 0, 86, 62
2, 19090, Note_on_c, 0, 61, 0
2, 19125, Note_on_c, 0, 86, 0
2, 19141, Note_on_c, 0, 87, 69
2, 19186, Note_on_c, 0, 87, 0
2, 19193, Note_on_c, 0, 64, 43
2, 19195, Note_on_c, 0, 53, 28
2, 19197, Note_on_c, 0, 60, 50
2, 19198, Note_on_c, 0, 57, 48
2, 19199, Note_on_c, 0, 88, 57
2, 19247, Note_on_c, 0, 88, 0
2, 19267, Note_on_c, 0, 91, 64
2, 19299, Note_on_c, 0, 91, 0
2, 19329, Note_on_c, 0, 84, 43
2, 19341, Note_on_c, 0, 60, 0
2, 19346, Note_on_c, 0, 57, 0
2, 19384, Note_on_c, 0, 64, 0
2, 19388, Note_on_c, 0, 84, 0
2, 19442, Note_on_c, 0, 84, 58
2, 19443, Note_on_c, 0, 64, 43
2, 19452, Note_on_c, 0, 60, 36
2, 19453, Note_on_c, 0, 57, 31
2, 19480, Note_on_c, 0, 64, 0
2, 19494, Note_on_c, 0, 84, 0
2, 19499, Note_on_c, 0, 60, 0
2, 19511, Note_on_c, 0, 86, 64
2, 19512, Note_on_c, 0, 57, 0
2, 19538, Note_on_c, 0, 53, 0
2, 19548, Note_on_c, 0, 86, 0
2, 19573, Note_on_c, 0, 83, 33
2, 19591, Note_on_c, 0, 83, 0
2, 19685, Note_on_c, 0, 50, 25
2, 19687, Note_on_c, 0, 60, 37
2, 19693, Note_on_c, 0, 57, 31
2, 19694, Note_on_c, 0, 53, 34
2, 19716, Note_on_c, 0, 57, 0
2, 19720, Note_on_c, 0, 60, 0
2, 19721, Note_on_c, 0, 53, 0
2, 19727, Note_on_c, 0, 50, 0
2, 19872, Note_on_c, 0, 75, 73
2, 19873, Note_on_c, 0, 63, 59
2, 19873, Note_on_c, 0, 83, 74
2, 19874, Note_on_c, 0, 54, 55
2, 19874, Note_on_c, 0, 78, 56
2, 19875, Note_on_c, 0, 71, 82
2, 19880, Note_on_c, 0, 60, 55
2, 19897, Note_on_c, 0, 60, 0
2, 19909, Note_on_c, 0, 63, 0
2, 19920, Note_on_c, 0, 83, 0
2, 19925, Note_on_c, 0, 75, 0
2, 19927, Note_on_c, 0, 54, 0
2, 19928, Note_on_c, 0, 78, 0
2, 19931, Note_on_c, 0, 71, 0
2, 19995, Note_on_c, 0, 75, 58
2, 19995, Note_on_c, 0, 69, 73
2, 19996, Note_on_c, 0, 54, 50
2, 19996, Note_on_c, 0, 81, 56
2, 19998, Note_on_c, 0, 63, 47
2, 20003, Note_on_c, 0, 78, 30
2, 20009, Note_on_c, 0, 60, 30
2, 20021, Note_on_c, 0, 60, 0
2, 20021, Note_on_c, 0, 69, 0
2, 20024, Note_on_c, 0, 63, 0
2, 20027, Note_on_c, 0, 78, 0
2, 20028, Note_on_c, 0, 75, 0
2, 20030, Note_on_c, 0, 81, 0
2, 20072, Note_on_c, 0, 54, 0
2, 20115, Note_on_c, 0, 71, 78
2, 20116, Note_on_c, 0, 83, 74
2, 20135, Note_on_c, 0, 71, 0
2, 20139, Note_on_c, 0, 83, 0
2, 20173, Note_on_c, 0, 62, 48
2, 20176, Note_on_c, 0, 58, 47
2, 20176, Note_on_c, 0, 53, 25
2, 20177, Note_on_c, 0, 84, 78
2, 20179, Note_on_c, 0, 57, 39
2, 20179, Note_on_c, 0, 72, 61
2, 20321, Note_on_c, 0, 84, 0
2, 20322, Note_on_c, 0, 58, 0
2, 20323, Note_on_c, 0, 72, 0
2, 20328, Note_on_c, 0, 62, 0
2, 20343, Note_on_c, 0, 57, 0
2, 20360, Note_on_c, 0, 84, 70
2, 20362, Note_on_c, 0, 62, 47
2, 20363, Note_on_c, 0, 57, 17
2, 20364, Note_on_c, 0, 72, 51
2, 20365, Note_on_c, 0, 58, 43
2, 20375, Control_c, 0, 64, 127
2, 20440, Note_on_c, 0, 58, 0
2, 20468, Note_on_c, 0, 72, 0
2, 20490, Note_on_c, 0, 62, 0
2, 20493, Note_on_c, 0, 84, 0
2, 20506, Note_on_c, 0, 57, 0
2, 20523, Note_on_c, 0, 79, 38
2, 20527, Note_on_c, 0, 53, 0
2, 20578, Control_c, 0, 64, 0
2, 20581, Note_on_c, 0, 79, 0
2, 20597, Note_on_c, 0, 84, 62
2, 20597, Note_on_c, 0, 72, 50
2, 20601, Note_on_c, 0, 58, 35
2, 20601, Note_on_c, 0, 62, 29
2, 20616, Note_on_c, 0, 72, 0
2, 20622, Note_on_c, 0, 84, 0
2, 20622, Note_on_c, 0, 62, 0
2, 20626, Note_on_c, 0, 58, 0
2, 20827, Note_on_c, 0, 52, 37
2, 20828, Note_on_c, 0, 58, 30
2, 20841, Note_on_c, 0, 52, 0
2, 20848, Note_on_c, 0, 58, 0
2, 20892, Control_c, 0, 64, 127
2, 20946, Note_on_c, 0, 52, 49
2, 20946, Note_on_c, 0, 72, 60
2, 20946, Note_on_c, 0, 84, 66
2, 20949, Note_on_c, 0, 58, 37
2, 20957, Note_on_c, 0, 52, 0
2, 20962, Control_c, 0, 64, 0
2, 20965, Note_on_c, 0, 72, 0
2, 20966, Note_on_c, 0, 84, 0
2, 20975, Note_on_c, 0, 58, 0
2, 21004, Note_on_c, 0, 86, 76
2, 21004, Note_on_c, 0, 74, 62
2, 21023, Control_c, 0, 64, 127
2, 21024, Note_on_c, 0, 74, 0
2, 21025, Note_on_c, 0, 86, 0
2, 21113, Control_c, 0, 64, 0
2, 21124, Note_on_c, 0, 87, 80
2, 21124, Note_on_c, 0, 75, 72
2, 21125, Note_on_c, 0, 67, 62
2, 21125, Note_on_c, 0, 62, 54
2, 21125, Note_on_c, 0, 58, 37
2, 21126, Note_on_c, 0, 63, 46
2, 21218, Note_on_c, 0, 87, 0
2, 21222, Note_on_c, 0, 75, 0
2, 21222, Control_c, 0, 64, 127
2, 21231, Note_on_c, 0, 67, 0
2, 21239, Note_on_c, 0, 86, 60
2, 21241, Note_on_c, 0, 74, 53
2, 21242, Note_on_c, 0, 58, 0
2, 21262, Note_on_c, 0, 62, 0
2, 21263, Note_on_c, 0, 74, 0
2, 21263, Note_on_c, 0, 63, 0
2, 21264, Note_on_c, 0, 86, 0
2, 21286, Control_c, 0, 64, 0
2, 21305, Note_on_c, 0, 75, 68
2, 21306, Note_on_c, 0, 87, 78
2, 21307, Note_on_c, 0, 67, 64
2, 21309, Note_on_c, 0, 58, 48
2, 21309, Note_on_c, 0, 63, 49
2, 21311, Note_on_c, 0, 62, 56
2, 21335, Note_on_c, 0, 67, 0
2, 21341, Note_on_c, 0, 87, 0
2, 21342, Note_on_c, 0, 75, 0
2, 21344, Note_on_c, 0, 62, 0
2, 21350, Note_on_c, 0, 63, 0
2, 21366, Note_on_c, 0, 63, 21
2, 21367, Note_on_c, 0, 67, 50
2, 21368, Note_on_c, 0, 62, 24
2, 21374, Note_on_c, 0, 87, 72
2, 21375, Note_on_c, 0, 75, 62
2, 21407, Note_on_c, 0, 67, 0
2, 21422, Note_on_c, 0, 87, 0
2, 21422, Note_on_c, 0, 63, 0
2, 21428, Note_on_c, 0, 75, 0
2, 21428, Note_on_c, 0, 62, 0
2, 21449, Note_on_c, 0, 74, 60
2, 21449, Note_on_c, 0, 86, 60
2, 21452, Note_on_c, 0, 63, 18
2, 21467, Note_on_c, 0, 74, 0
2, 21468, Note_on_c, 0, 63, 0
2, 21475, Note_on_c, 0, 58, 0
2, 21477, Note_on_c, 0, 86, 0
2, 21483, Control_c, 0, 64, 127
2, 21565, Control_c, 0, 64, 0
2, 21602, Control_c, 0, 64, 127
2, 21813, Note_on_c, 0, 56, 65
2, 21815, Note_on_c, 0, 63, 61
2, 21819, Note_on_c, 0, 89, 85
2, 21821, Note_on_c, 0, 59, 54
2, 21823, Control_c, 0, 64, 0
2, 21893, Note_on_c, 0, 89, 0
2, 21899, Note_on_c, 0, 59, 0
2, 21899, Control_c, 0, 64, 127
2, 21928, Control_c, 0, 64, 0
2, 21930, Note_on_c, 0, 59, 20
2, 21932, Note_on_c, 0, 87, 82
2, 21959, Note_on_c, 0, 59, 0
2, 21968, Note_on_c, 0, 63, 0
2, 21978, Control_c, 0, 64, 127
2, 21989, Note_on_c, 0, 56, 0
2, 21997, Note_on_c, 0, 87, 0
2, 22047, Note_on_c, 0, 85, 64
2, 22049, Note_on_c, 0, 86, 69
2, 22060, Note_on_c, 0, 86, 0
2, 22084, Note_on_c, 0, 85, 0
2, 22091, Control_c, 0, 64, 0
2, 22106, Note_on_c, 0, 57, 35
2, 22108, Note_on_c, 0, 62, 47
2, 22113, Note_on_c, 0, 58, 42
2, 22117, Note_on_c, 0, 52, 38
2, 22147, Note_on_c, 0, 84, 72
2, 22177, Note_on_c, 0, 84, 0
2, 22228, Note_on_c, 0, 82, 57
2, 22263, Note_on_c, 0, 82, 0
2, 22307, Note_on_c, 0, 79, 63
2, 22342, Note_on_c, 0, 79, 0
2, 22351, Note_on_c, 0, 62, 0
2, 22352, Note_on_c, 0, 58, 0
2, 22385, Note_on_c, 0, 76, 46
2, 22415, Note_on_c, 0, 62, 31
2, 22434, Note_on_c, 0, 76, 0
2, 22465, Note_on_c, 0, 73, 36
2, 22467, Note_on_c, 0, 57, 0
2, 22470, Note_on_c, 0, 52, 0
2, 22477, Note_on_c, 0, 62, 0
2, 22533, Note_on_c, 0, 72, 45
2, 22544, Note_on_c, 0, 73, 0
2, 22582, Note_on_c, 0, 72, 0
2, 22605, Note_on_c, 0, 75, 53
2, 22616, Note_on_c, 0, 63, 17
2, 22618, Note_on_c, 0, 58, 20
2, 22663, Note_on_c, 0, 75, 0
2, 22664, Note_on_c, 0, 63, 0
2, 22673, Note_on_c, 0, 58, 0
2, 22690, Note_on_c, 0, 70, 48
2, 22738, Note_on_c, 0, 70, 0
2, 22764, Note_on_c, 0, 69, 38
2, 22802, Note_on_c, 0, 69, 0
2, 22834, Note_on_c, 0, 66, 45
2, 22874, Note_on_c, 0, 60, 34
2, 22877, Note_on_c, 0, 53, 26
2, 22878, Note_on_c, 0, 66, 0
2, 22895, Note_on_c, 0, 60, 0
2, 22900, Note_on_c, 0, 53, 0
2, 22921, Note_on_c, 0, 63, 20
2, 22993, Note_on_c, 0, 63, 0
2, 23037, Note_on_c, 0, 65, 49
2, 23094, Note_on_c, 0, 65, 0
2, 23096, Note_on_c, 0, 46, 40
2, 23108, Note_on_c, 0, 53, 26
2, 23128, Note_on_c, 0, 53, 0
2, 23131, Note_on_c, 0, 46, 0
2, 23230, Note_on_c, 0, 67, 82
2, 23267, Note_on_c, 0, 67, 0
2, 23303, Note_on_c, 0, 69, 81
2, 23353, Note_on_c, 0, 69, 0
2, 23359, Note_on_c, 0, 70, 67
2, 23400, Note_on_c, 0, 70, 0
2, 23418, Note_on_c, 0, 69, 57
2, 23419, Note_on_c, 0, 65, 19
2, 23420, Note_on_c, 0, 62, 31
2, 23420, Note_on_c, 0, 55, 33
2, 23424, Note_on_c, 0, 60, 31
2, 23490, Note_on_c, 0, 65, 0
2, 23492, Note_on_c, 0, 60, 0
2, 23493, Note_on_c, 0, 62, 0
2, 23494, Note_on_c, 0, 69, 0
2, 23494, Note_on_c, 0, 55, 0
2, 23613, Note_on_c, 0, 55, 24
2, 23614, Note_on_c, 0, 65, 18
2, 23622, Note_on_c, 0, 62, 16
2, 23641, Note_on_c, 0, 65, 0
2, 23647, Note_on_c, 0, 62, 0
2, 23656, Note_on_c, 0, 55, 0
2, 23833, Note_on_c, 0, 62, 46
2, 23834, Note_on_c, 0, 67, 96
2, 23838, Note_on_c, 0, 60, 46
2, 23851, Note_on_c, 0, 60, 0
2, 23851, Note_on_c, 0, 62, 0
2, 23883, Note_on_c, 0, 67, 0
2, 23904, Note_on_c, 0, 66, 26
2, 23940, Note_on_c, 0, 66, 0
2, 23957, Note_on_c, 0, 67, 54
2, 23989, Note_on_c, 0, 67, 0
2, 24028, Note_on_c, 0, 69, 53
2, 24046, Note_on_c, 0, 70, 73
2, 24052, Note_on_c, 0, 69, 0
2, 24192, Note_on_c, 0, 62, 38
2, 24199, Note_on_c, 0, 58, 26
2, 24199, Note_on_c, 0, 57, 36
2, 24206, Note_on_c, 0, 62, 0
2, 24211, Note_on_c, 0, 58, 0
2, 24212, Note_on_c, 0, 57, 0
2, 24271, Note_on_c, 0, 69, 46
2, 24291, Note_on_c, 0, 70, 0
2, 24292, Note_on_c, 0, 68, 49
2, 24295, Note_on_c, 0, 69, 0
2, 24320, Note_on_c, 0, 67, 62
2, 24330, Note_on_c, 0, 68, 0
2, 24353, Note_on_c, 0, 67, 0
2, 24372, Note_on_c, 0, 66, 33
2, 24415, Note_on_c, 0, 66, 0
2, 24445, Note_on_c, 0, 57, 38
2, 24447, Note_on_c, 0, 62, 30
2, 24448, Note_on_c, 0, 58, 34
2, 24464, Note_on_c, 0, 57, 0
2, 24465, Note_on_c, 0, 62, 0
2, 24478, Note_on_c, 0, 58, 0
2, 24567, Note_on_c, 0, 62, 50
2, 24568, Note_on_c, 0, 58, 39
2, 24569, Note_on_c, 0, 57, 50
2, 24582, Note_on_c, 0, 57, 0
2, 24582, Note_on_c, 0, 62, 0
2, 24595, Note_on_c, 0, 58, 0
2, 24672, Note_on_c, 0, 70, 67
2, 24686, Note_on_c, 0, 58, 27
2, 24705, Note_on_c, 0, 58, 0
2, 24706, Note_on_c, 0, 70, 0
2, 24736, Note_on_c, 0, 73, 20
2, 24770, Note_on_c, 0, 73, 0
2, 24788, Note_on_c, 0, 76, 69
2, 24791, Note_on_c, 0, 62, 55
2, 24793, Note_on_c, 0, 58, 33
2, 24812, Note_on_c, 0, 62, 0
2, 24815, Note_on_c, 0, 58, 0
2, 24820, Note_on_c, 0, 76, 0
2, 24861, Note_on_c, 0, 79, 48
2, 24873, Note_on_c, 0, 79, 0
2, 25207, Note_on_c, 0, 67, 54
2, 25234, Note_on_c, 0, 67, 0
2, 25271, Note_on_c, 0, 69, 85
2, 25297, Note_on_c, 0, 69, 0
2, 25326, Note_on_c, 0, 70, 91
2, 25359, Note_on_c, 0, 70, 0
2, 25389, Note_on_c, 0, 72, 88
2, 25430, Note_on_c, 0, 72, 0
2, 25442, Note_on_c, 0, 57, 48
2, 25454, Note_on_c, 0, 67, 39
2, 25454, Note_on_c, 0, 70, 60
2, 25459, Note_on_c, 0, 63, 25
2, 25475, Note_on_c, 0, 67, 0
2, 25478, Note_on_c, 0, 57, 0
2, 25493, Note_on_c, 0, 63, 0
2, 25505, Note_on_c, 0, 70, 0
2, 25570, Note_on_c, 0, 69, 48
2, 25631, Note_on_c, 0, 67, 46
2, 25633, Note_on_c, 0, 63, 36
2, 25642, Note_on_c, 0, 67, 0
2, 25644, Note_on_c, 0, 69, 0
2, 25661, Note_on_c, 0, 63, 0
2, 25685, Note_on_c, 0, 68, 34
2, 25740, Note_on_c, 0, 68, 0
2, 25762, Note_on_c, 0, 69, 56
2, 25784, Note_on_c, 0, 69, 0
2, 25882, Note_on_c, 0, 50, 43
2, 25883, Note_on_c, 0, 60, 54
2, 25890, Note_on_c, 0, 56, 25
2, 25894, Note_on_c, 0, 60, 0
2, 25901, Note_on_c, 0, 56, 0
2, 25906, Note_on_c, 0, 50, 0
2, 25935, Note_on_c, 0, 77, 83
2, 25935, Note_on_c, 0, 89, 88
2, 26005, Note_on_c, 0, 77, 0
2, 26006, Note_on_c, 0, 89, 0
2, 26048, Note_on_c, 0, 89, 81
2, 26050, Note_on_c, 0, 77, 77
2, 26122, Note_on_c, 0, 60, 62
2, 26123, Note_on_c, 0, 50, 54
2, 26133, Note_on_c, 0, 60, 0
2, 26144, Note_on_c, 0, 50, 0
2, 26199, Note_on_c, 0, 89, 0
2, 26211, Note_on_c, 0, 77, 0
2, 26235, Note_on_c, 0, 88, 75
2, 26235, Note_on_c, 0, 76, 71
2, 26273, Note_on_c, 0, 87, 39
2, 26276, Note_on_c, 0, 88, 0
2, 26289, Note_on_c, 0, 76, 0
2, 26291, Note_on_c, 0, 87, 0
2, 26326, Note_on_c, 0, 87, 76
2, 26327, Note_on_c, 0, 75, 63
2, 26365, Note_on_c, 0, 87, 0
2, 26369, Note_on_c, 0, 75, 0
2, 26405, Note_on_c, 0, 85, 48
2, 26412, Note_on_c, 0, 73, 40
2, 26419, Note_on_c, 0, 64, 26
2, 26422, Note_on_c, 0, 59, 31
2, 26422, Note_on_c, 0, 53, 24
2, 26444, Note_on_c, 0, 64, 0
2, 26447, Note_on_c, 0, 85, 0
2, 26450, Note_on_c, 0, 59, 0
2, 26453, Note_on_c, 0, 73, 0
2, 26454, Note_on_c, 0, 53, 0
2, 26456, Note_on_c, 0, 74, 54
2, 26491, Note_on_c, 0, 74, 0
2, 26498, Note_on_c, 0, 86, 42
2, 26525, Note_on_c, 0, 74, 20
2, 26529, Note_on_c, 0, 86, 0
2, 26561, Note_on_c, 0, 74, 0
2, 26621, Note_on_c, 0, 64, 39
2, 26624, Note_on_c, 0, 53, 31
2, 26625, Note_on_c, 0, 59, 44
2, 26639, Note_on_c, 0, 64, 0
2, 26640, Note_on_c, 0, 59, 0
2, 26648, Note_on_c, 0, 53, 0
2, 26768, Note_on_c, 0, 86, 94
2, 26816, Note_on_c, 0, 86, 0
2, 26839, Note_on_c, 0, 89, 89
2, 26843, Note_on_c, 0, 62, 59
2, 26845, Note_on_c, 0, 63, 42
2, 26848, Note_on_c, 0, 58, 37
2, 26849, Note_on_c, 0, 67, 46
2, 26879, Note_on_c, 0, 89, 0
2, 26913, Note_on_c, 0, 87, 68
2, 26947, Note_on_c, 0, 63, 0
2, 26964, Note_on_c, 0, 63, 15
2, 26972, Note_on_c, 0, 87, 0
2, 26975, Note_on_c, 0, 67, 0
2, 26991, Note_on_c, 0, 58, 0
2, 27002, Note_on_c, 0, 63, 0
2, 27009, Note_on_c, 0, 62, 0
2, 27016, Note_on_c, 0, 83, 35
2, 27064, Note_on_c, 0, 83, 0
2, 27076, Note_on_c, 0, 86, 80
2, 27083, Note_on_c, 0, 67, 33
2, 27085, Note_on_c, 0, 63, 30
2, 27086, Note_on_c, 0, 62, 36
2, 27088, Note_on_c, 0, 58, 25
2, 27114, Note_on_c, 0, 86, 0
2, 27140, Note_on_c, 0, 62, 0
2, 27142, Note_on_c, 0, 67, 0
2, 27143, Note_on_c, 0, 84, 54
2, 27190, Note_on_c, 0, 63, 0
2, 27209, Note_on_c, 0, 58, 0
2, 27239, Note_on_c, 0, 84, 0
2, 27253, Note_on_c, 0, 77, 33
2, 27322, Note_on_c, 0, 54, 36
2, 27324, Note_on_c, 0, 65, 38
2, 27326, Note_on_c, 0, 61, 44
2, 27331, Note_on_c, 0, 58, 35
2, 27339, Note_on_c, 0, 65, 0
2, 27350, Note_on_c, 0, 54, 0
2, 27351, Note_on_c, 0, 61, 0
2, 27358, Note_on_c, 0, 58, 0
2, 27434, Note_on_c, 0, 77, 0
2, 27553, Note_on_c, 0, 78, 81
2, 27554, Note_on_c, 0, 86, 89
2, 27555, Note_on_c, 0, 74, 87
2, 27555, Note_on_c, 0, 82, 67
2, 27556, Note_on_c, 0, 54, 62
2, 27558, Note_on_c, 0, 65, 64
2, 27558, Note_on_c, 0, 61, 47
2, 27560, Note_on_c, 0, 58, 43
2, 27562, Note_on_c, 0, 84, 45
2, 27572, Note_on_c, 0, 84, 0
2, 27582, Note_on_c, 0, 65, 0
2, 27603, Note_on_c, 0, 74, 0
2, 27605, Note_on_c, 0, 78, 0
2, 27607, Note_on_c, 0, 86, 0
2, 27609, Note_on_c, 0, 82, 0
2, 27621, Note_on_c, 0, 58, 0
2, 27622, Note_on_c, 0, 61, 0
2, 27624, Note_on_c, 0, 54, 0
2, 27633, Note_on_c, 0, 86, 66
2, 27634, Note_on_c, 0, 74, 51
2, 27637, Note_on_c, 0, 78, 42
2, 27642, Note_on_c, 0, 82, 40
2, 27643, Note_on_c, 0, 85, 43
2, 27653, Note_on_c, 0, 85, 0
2, 27676, Note_on_c, 0, 86, 0
2, 27686, Note_on_c, 0, 74, 0
2, 27692, Note_on_c, 0, 54, 51
2, 27697, Note_on_c, 0, 65, 36
2, 27699, Note_on_c, 0, 61, 33
2, 27701, Note_on_c, 0, 78, 0
2, 27704, Note_on_c, 0, 82, 0
2, 27709, Note_on_c, 0, 65, 0
2, 27724, Note_on_c, 0, 54, 0
2, 27727, Note_on_c, 0, 78, 30
2, 27728, Note_on_c, 0, 84, 39
2, 27729, Note_on_c, 0, 72, 36
2, 27733, Note_on_c, 0, 82, 27
2, 27736, Note_on_c, 0, 61, 0
2, 27755, Note_on_c, 0, 72, 0
2, 27760, Note_on_c, 0, 84, 0
2, 27772, Note_on_c, 0, 78, 0
2, 27776, Note_on_c, 0, 82, 0
2, 27803, Note_on_c, 0, 62, 41
2, 27803, Note_on_c, 0, 65, 42
2, 27804, Note_on_c, 0, 86, 80
2, 27804, Note_on_c, 0, 60, 50
2, 27805, Note_on_c, 0, 74, 67
2, 27811, Note_on_c, 0, 55, 35
2, 27859, Note_on_c, 0, 86, 0
2, 27890, Note_on_c, 0, 62, 0
2, 27901, Note_on_c, 0, 74, 0
2, 27923, Note_on_c, 0, 84, 75
2, 27932, Note_on_c, 0, 62, 15
2, 27946, Note_on_c, 0, 65, 0
2, 27959, Note_on_c, 0, 84, 0
2, 27959, Note_on_c, 0, 62, 0
2, 27977, Note_on_c, 0, 60, 0
2, 27983, Note_on_c, 0, 81, 47
2, 27989, Note_on_c, 0, 55, 0
2, 28044, Note_on_c, 0, 81, 0
2, 28087, Note_on_c, 0, 65, 30
2, 28089, Note_on_c, 0, 81, 56
2, 28090, Note_on_c, 0, 55, 32
2, 28092, Note_on_c, 0, 60, 36
2, 28093, Note_on_c, 0, 62, 32
2, 28185, Note_on_c, 0, 65, 0
2, 28187, Note_on_c, 0, 62, 0
2, 28194, Note_on_c, 0, 60, 0
2, 28216, Note_on_c, 0, 55, 0
2, 28263, Note_on_c, 0, 81, 0
2, 28270, Note_on_c, 0, 77, 63
2, 28276, Note_on_c, 0, 53, 51
2, 28282, Note_on_c, 0, 62, 42
2, 28285, Note_on_c, 0, 57, 37
2, 28287, Note_on_c, 0, 58, 29
2, 28298, Note_on_c, 0, 77, 0
2, 28301, Note_on_c, 0, 57, 0
2, 28304, Note_on_c, 0, 62, 0
2, 28318, Note_on_c, 0, 58, 0
2, 28348, Note_on_c, 0, 53, 0
2, 28348, Note_on_c, 0, 82, 36
2, 28350, Note_on_c, 0, 70, 35
2, 28357, Note_on_c, 0, 82, 0
2, 28365, Note_on_c, 0, 70, 0
2, 28368, Note_on_c, 0, 81, 33
2, 28369, Note_on_c, 0, 69, 51
2, 28414, Note_on_c, 0, 69, 0
2, 28417, Note_on_c, 0, 81, 0
2, 28449, Note_on_c, 0, 81, 62
2, 28452, Note_on_c, 0, 69, 63
2, 28494, Note_on_c, 0, 81, 0
2, 28502, Note_on_c, 0, 69, 0
2, 28525, Note_on_c, 0, 81, 64
2, 28529, Note_on_c, 0, 69, 48
2, 28530, Note_on_c, 0, 62, 41
2, 28531, Note_on_c, 0, 53, 33
2, 28532, Note_on_c, 0, 58, 36
2, 28537, Note_on_c, 0, 57, 35
2, 28550, Note_on_c, 0, 62, 0
2, 28552, Note_on_c, 0, 57, 0
2, 28562, Note_on_c, 0, 81, 0
2, 28563, Note_on_c, 0, 53, 0
2, 28564, Note_on_c, 0, 58, 0
2, 28570, Note_on_c, 0, 69, 0
2, 28602, Note_on_c, 0, 81, 58
2, 28617, Note_on_c, 0, 69, 28
2, 28655, Note_on_c, 0, 69, 0
2, 28671, Note_on_c, 0, 81, 0
2, 28681, Note_on_c, 0, 77, 48
2, 28735, Note_on_c, 0, 77, 0
2, 28760, Note_on_c, 0, 82, 62
2, 28762, Note_on_c, 0, 62, 44
2, 28763, Note_on_c, 0, 70, 48
2, 28764, Note_on_c, 0, 58, 30
2, 28765, Note_on_c, 0, 52, 32
2, 28775, Note_on_c, 0, 62, 0
2, 28780, Note_on_c, 0, 58, 0
2, 28780, Note_on_c, 0, 52, 0
2, 28806, Note_on_c, 0, 82, 0
2, 28812, Note_on_c, 0, 70, 0
2, 28838, Note_on_c, 0, 82, 37
2, 28846, Note_on_c, 0, 70, 25
2, 28889, Note_on_c, 0, 70, 0
2, 28903, Note_on_c, 0, 82, 0
2, 29230, Note_on_c, 0, 69, 62
2, 29232, Note_on_c, 0, 58, 39
2, 29238, Note_on_c, 0, 64, 50
2, 29253, Note_on_c, 0, 64, 0
2, 29263, Note_on_c, 0, 69, 0
2, 29266, Note_on_c, 0, 58, 0
2, 29351, Note_on_c, 0, 70, 69
2, 29356, Note_on_c, 0, 59, 45
2, 29360, Note_on_c, 0, 65, 45
2, 29369, Note_on_c, 0, 59, 0
2, 29372, Note_on_c, 0, 65, 0
2, 29388, Note_on_c, 0, 70, 0
2, 29426, Note_on_c, 0, 63, 44
2, 29437, Note_on_c, 0, 69, 47
2, 29442, Note_on_c, 0, 58, 26
2, 29449, Note_on_c, 0, 63, 0
2, 29454, Note_on_c, 0, 64, 42
2, 29499, Note_on_c, 0, 64, 0
2, 29501, Note_on_c, 0, 58, 0
2, 29502, Note_on_c, 0, 69, 0
2, 29547, Note_on_c, 0, 69, 46
2, 29549, Note_on_c, 0, 58, 36
2, 29552, Note_on_c, 0, 64, 45
2, 29617, Note_on_c, 0, 69, 0
2, 29621, Note_on_c, 0, 64, 0
2, 29638, Note_on_c, 0, 58, 0
2, 29716, Note_on_c, 0, 54, 32
2, 29717, Note_on_c, 0, 65, 58
2, 29719, Note_on_c, 0, 58, 54
2, 29720, Note_on_c, 0, 61, 48
2, 29867, Control_c, 0, 64, 127
2, 29928, Note_on_c, 0, 65, 0
2, 29936, Note_on_c, 0, 61, 0
2, 29946, Note_on_c, 0, 77, 64
2, 29951, Note_on_c, 0, 61, 27
2, 29954, Note_on_c, 0, 65, 41
2, 29984, Note_on_c, 0, 65, 0
2, 29996, Note_on_c, 0, 61, 0
2, 30015, Note_on_c, 0, 78, 50
2, 30016, Note_on_c, 0, 58, 0
2, 30033, Note_on_c, 0, 77, 0
2, 30036, Note_on_c, 0, 54, 0
2, 30062, Note_on_c, 0, 78, 0
2, 30077, Note_on_c, 0, 54, 52
2, 30078, Note_on_c, 0, 78, 37
2, 30079, Note_on_c, 0, 61, 53
2, 30080, Note_on_c, 0, 65, 56
2, 30082, Note_on_c, 0, 58, 45
2, 30085, Note_on_c, 0, 82, 20
2, 30086, Note_on_c, 0, 81, 55
2, 30088, Note_on_c, 0, 78, 0
2, 30101, Note_on_c, 0, 65, 0
2, 30103, Note_on_c, 0, 81, 0
2, 30110, Note_on_c, 0, 82, 0
2, 30112, Note_on_c, 0, 61, 0
2, 30124, Note_on_c, 0, 58, 0
2, 30139, Note_on_c, 0, 84, 60
2, 30157, Note_on_c, 0, 54, 0
2, 30163, Note_on_c, 0, 84, 0
2, 30195, Note_on_c, 0, 86, 80
2, 30197, Note_on_c, 0, 54, 32
2, 30197, Note_on_c, 0, 61, 48
2, 30198, Note_on_c, 0, 65, 40
2, 30203, Note_on_c, 0, 58, 33
2, 30204, Control_c, 0, 64, 0
2, 30210, Note_on_c, 0, 65, 0
2, 30212, Note_on_c, 0, 54, 0
2, 30213, Note_on_c, 0, 86, 0
2, 30219, Note_on_c, 0, 61, 0
2, 30221, Note_on_c, 0, 58, 0
2, 30245, Note_on_c, 0, 54, 50
2, 30248, Note_on_c, 0, 65, 61
2, 30248, Note_on_c, 0, 61, 37
2, 30249, Note_on_c, 0, 89, 67
2, 30251, Control_c, 0, 64, 127
2, 30251, Note_on_c, 0, 58, 52
2, 30289, Note_on_c, 0, 65, 0
2, 30295, Note_on_c, 0, 61, 0
2, 30296, Note_on_c, 0, 58, 0
2, 30296, Note_on_c, 0, 54, 0
2, 30297, Note_on_c, 0, 89, 0
2, 30312, Note_on_c, 0, 91, 68
2, 30316, Note_on_c, 0, 54, 44
2, 30317, Note_on_c, 0, 65, 47
2, 30321, Note_on_c, 0, 61, 60
2, 30321, Note_on_c, 0, 58, 52
2, 30340, Note_on_c, 0, 65, 0
2, 30344, Note_on_c, 0, 54, 0
2, 30348, Note_on_c, 0, 61, 0
2, 30351, Note_on_c, 0, 91, 0
2, 30352, Note_on_c, 0, 58, 0
2, 30363, Note_on_c, 0, 54, 47
2, 30364, Note_on_c, 0, 65, 59
2, 30366, Note_on_c, 0, 94, 77
2, 30367, Note_on_c, 0, 58, 38
2, 30367, Note_on_c, 0, 61, 59
2, 30400, Note_on_c, 0, 65, 0
2, 30403, Note_on_c, 0, 54, 0
2, 30412, Note_on_c, 0, 61, 0
2, 30414, Note_on_c, 0, 58, 0
2, 30424, Note_on_c, 0, 94, 0
2, 30429, Note_on_c, 0, 96, 72
2, 30430, Note_on_c, 0, 61, 71
2, 30430, Note_on_c, 0, 54, 62
2, 30432, Note_on_c, 0, 58, 59
2, 30433, Note_on_c, 0, 65, 62
2, 30455, Note_on_c, 0, 65, 0
2, 30466, Note_on_c, 0, 54, 0
2, 30468, Note_on_c, 0, 96, 0
2, 30471, Note_on_c, 0, 61, 0
2, 30474, Note_on_c, 0, 58, 0
2, 30483, Note_on_c, 0, 85, 64
2, 30487, Note_on_c, 0, 97, 52
2, 30489, Note_on_c, 0, 54, 59
2, 30491, Note_on_c, 0, 58, 49
2, 30492, Note_on_c, 0, 65, 55
2, 30492, Note_on_c, 0, 61, 62
2, 30518, Note_on_c, 0, 65, 0
2, 30528, Note_on_c, 0, 97, 0
2, 30529, Note_on_c, 0, 85, 0
2, 30531, Note_on_c, 0, 54, 0
2, 30537, Note_on_c, 0, 58, 0
2, 30542, Note_on_c, 0, 61, 0
2, 30550, Note_on_c, 0, 98, 57
2, 30551, Note_on_c, 0, 86, 68
2, 30551, Note_on_c, 0, 54, 38
2, 30553, Note_on_c, 0, 61, 23
2, 30556, Note_on_c, 0, 58, 30
2, 30556, Note_on_c, 0, 65, 56
2, 30562, Note_on_c, 0, 96, 24
2, 30569, Note_on_c, 0, 65, 0
2, 30569, Note_on_c, 0, 86, 0
2, 30571, Note_on_c, 0, 98, 0
2, 30577, Note_on_c, 0, 96, 0
2, 30583, Note_on_c, 0, 54, 0
2, 30587, Note_on_c, 0, 61, 0
2, 30588, Note_on_c, 0, 58, 0
2, 30610, Note_on_c, 0, 54, 50
2, 30611, Note_on_c, 0, 87, 60
2, 30612, Note_on_c, 0, 99, 60
2, 30613, Note_on_c, 0, 61, 35
2, 30614, Note_on_c, 0, 65, 34
2, 30616, Note_on_c, 0, 58, 37
2, 30626, Note_on_c, 0, 65, 0
2, 30636, Note_on_c, 0, 61, 0
2, 30648, Note_on_c, 0, 58, 0
2, 30649, Note_on_c, 0, 99, 0
2, 30650, Note_on_c, 0, 87, 0
2, 30655, Note_on_c, 0, 54, 0
2, 30674, Note_on_c, 0, 100, 66
2, 30682, Note_on_c, 0, 99, 40
2, 30696, Note_on_c, 0, 99, 0
2, 30696, Note_on_c, 0, 100, 0
2, 30732, Note_on_c, 0, 58, 44
2, 30734, Note_on_c, 0, 52, 45
2, 30738, Note_on_c, 0, 62, 32
2, 30743, Control_c, 0, 64, 0
2, 30746, Note_on_c, 0, 52, 0
2, 30749, Note_on_c, 0, 62, 0
2, 30750, Note_on_c, 0, 58, 0
2, 30850, Note_on_c, 0, 94, 79
2, 30851, Note_on_c, 0, 62, 70
2, 30852, Note_on_c, 0, 52, 69
2, 30852, Note_on_c, 0, 82, 69
2, 30853, Note_on_c, 0, 58, 53
2, 30941, Control_c, 0, 64, 127
2, 30965, Note_on_c, 0, 94, 0
2, 30986, Note_on_c, 0, 52, 0
2, 30987, Note_on_c, 0, 62, 0
2, 30987, Note_on_c, 0, 82, 0
2, 31001, Note_on_c, 0, 58, 0
2, 31038, Note_on_c, 0, 91, 60
2, 31042, Note_on_c, 0, 52, 56
2, 31042, Note_on_c, 0, 62, 60
2, 31044, Note_on_c, 0, 58, 48
2, 31054, Control_c, 0, 64, 0
2, 31068, Note_on_c, 0, 52, 0
2, 31074, Control_c, 0, 64, 127
2, 31087, Note_on_c, 0, 62, 0
2, 31088, Note_on_c, 0, 58, 0
2, 31089, Note_on_c, 0, 91, 0
2, 31160, Note_on_c, 0, 94, 85
2, 31161, Note_on_c, 0, 82, 76
2, 31165, Control_c, 0, 64, 0
2, 31165, Note_on_c, 0, 58, 74
2, 31167, Note_on_c, 0, 67, 80
2, 31168, Note_on_c, 0, 63, 71
2, 31210, Note_on_c, 0, 94, 0
2, 31215, Note_on_c, 0, 67, 0
2, 31215, Note_on_c, 0, 82, 0
2, 31220, Note_on_c, 0, 63, 0
2, 31220, Control_c, 0, 64, 127
2, 31230, Note_on_c, 0, 94, 58
2, 31233, Note_on_c, 0, 82, 51
2, 31236, Note_on_c, 0, 63, 49
2, 31236, Note_on_c, 0, 67, 70
2, 31279, Note_on_c, 0, 94, 0
2, 31290, Note_on_c, 0, 67, 0
2, 31291, Note_on_c, 0, 82, 0
2, 31304, Note_on_c, 0, 63, 0
2, 31307, Control_c, 0, 64, 0
2, 31313, Note_on_c, 0, 58, 0
2, 31329, Note_on_c, 0, 58, 30
2, 31333, Note_on_c, 0, 91, 52
2, 31337, Note_on_c, 0, 63, 37
2, 31339, Note_on_c, 0, 67, 40
2, 31342, Note_on_c, 0, 90, 35
2, 31353, Note_on_c, 0, 67, 0
2, 31362, Note_on_c, 0, 91, 0
2, 31375, Note_on_c, 0, 90, 0
2, 31379, Note_on_c, 0, 58, 0
2, 31380, Note_on_c, 0, 63, 0
2, 31446, Note_on_c, 0, 66, 50
2, 31450, Note_on_c, 0, 93, 66
2, 31452, Note_on_c, 0, 61, 48
2, 31452, Note_on_c, 0, 63, 42
2, 31455, Note_on_c, 0, 87, 40
2, 31455, Note_on_c, 0, 57, 35
2, 31456, Note_on_c, 0, 81, 40
2, 31479, Control_c, 0, 64, 127
2, 31543, Note_on_c, 0, 93, 0
2, 31554, Note_on_c, 0, 81, 0
2, 31556, Note_on_c, 0, 87, 0
2, 31569, Note_on_c, 0, 57, 0
2, 31582, Note_on_c, 0, 61, 0
2, 31589, Note_on_c, 0, 66, 0
2, 31592, Note_on_c, 0, 63, 0
2, 31628, Note_on_c, 0, 89, 58
2, 31628, Note_on_c, 0, 77, 52
2, 31631, Note_on_c, 0, 66, 43
2, 31636, Note_on_c, 0, 63, 34
2, 31639, Note_on_c, 0, 61, 33
2, 31643, Note_on_c, 0, 77, 0
2, 31648, Note_on_c, 0, 66, 0
2, 31651, Note_on_c, 0, 89, 0
2, 31662, Note_on_c, 0, 61, 0
2, 31662, Note_on_c, 0, 63, 0
2, 31687, Note_on_c, 0, 65, 64
2, 31690, Note_on_c, 0, 62, 62
2, 31692, Note_on_c, 0, 92, 75
2, 31693, Note_on_c, 0, 96, 80
2, 31693, Note_on_c, 0, 90, 64
2, 31694, Note_on_c, 0, 60, 62
2, 31694, Note_on_c, 0, 84, 80
2, 31694, Control_c, 0, 64, 0
2, 31698, Note_on_c, 0, 55, 67
2, 31727, Note_on_c, 0, 90, 0
2, 31750, Note_on_c, 0, 93, 53
2, 31761, Note_on_c, 0, 92, 0
2, 31782, Note_on_c, 0, 93, 0
2, 31786, Note_on_c, 0, 96, 0
2, 31802, Note_on_c, 0, 84, 0
2, 31827, Note_on_c, 0, 55, 0
2, 31830, Note_on_c, 0, 65, 0
2, 31837, Note_on_c, 0, 60, 0
2, 31842, Control_c, 0, 64, 127
2, 31845, Note_on_c, 0, 62, 0
2, 31845, Control_c, 0, 64, 0
2, 31869, Note_on_c, 0, 93, 71
2, 31871, Note_on_c, 0, 81, 57
2, 31872, Note_on_c, 0, 89, 57
2, 31873, Note_on_c, 0, 65, 60
2, 31875, Note_on_c, 0, 62, 58
2, 31876, Note_on_c, 0, 55, 58
2, 31877, Note_on_c, 0, 60, 56
2, 31924, Control_c, 0, 64, 127
2, 31981, Note_on_c, 0, 81, 0
2, 31983, Note_on_c, 0, 89, 0
2, 31984, Note_on_c, 0, 60, 0
2, 31986, Note_on_c, 0, 65, 0
2, 31986, Note_on_c, 0, 93, 0
2, 31986, Note_on_c, 0, 55, 0
2, 31989, Note_on_c, 0, 62, 0
2, 32040, Control_c, 0, 64, 0
2, 32056, Note_on_c, 0, 65, 65
2, 32057, Note_on_c, 0, 93, 74
2, 32057, Note_on_c, 0, 89, 68
2, 32058, Note_on_c, 0, 62, 58
2, 32058, Note_on_c, 0, 60, 61
2, 32059, Note_on_c, 0, 55, 64
2, 32060, Note_on_c, 0, 81, 63
2, 32139, Control_c, 0, 64, 127
2, 32159, Note_on_c, 0, 62, 0
2, 32162, Note_on_c, 0, 55, 0
2, 32169, Note_on_c, 0, 60, 0
2, 32170, Note_on_c, 0, 89, 0
2, 32171, Note_on_c, 0, 81, 0
2, 32175, Note_on_c, 0, 65, 0
2, 32175, Note_on_c, 0, 93, 0
2, 32264, Control_c, 0, 64, 0
2, 32293, Note_on_c, 0, 85, 74
2, 32293, Note_on_c, 0, 89, 69
2, 32293, Note_on_c, 0, 81, 74
2, 32294, Note_on_c, 0, 93, 77
2, 32297, Note_on_c, 0, 63, 69
2, 32298, Note_on_c, 0, 67, 78
2, 32298, Note_on_c, 0, 57, 79
2, 32381, Control_c, 0, 64, 127
2, 32416, Note_on_c, 0, 93, 0
2, 32418, Note_on_c, 0, 85, 0
2, 32420, Note_on_c, 0, 57, 0
2, 32421, Note_on_c, 0, 81, 0
2, 32423, Note_on_c, 0, 67, 0
2, 32428, Note_on_c, 0, 89, 0
2, 32433, Note_on_c, 0, 63, 0
2, 32476, Note_on_c, 0, 93, 72
2, 32477, Note_on_c, 0, 89, 60
2, 32478, Note_on_c, 0, 85, 58
2, 32478, Note_on_c, 0, 81, 58
2, 32479, Note_on_c, 0, 63, 59
2, 32479, Note_on_c, 0, 67, 66
2, 32479, Note_on_c, 0, 57, 66
2, 32480, Control_c, 0, 64, 0
2, 32544, Note_on_c, 0, 85, 0
2, 32546, Note_on_c, 0, 81, 0
2, 32548, Note_on_c, 0, 89, 0
2, 32550, Note_on_c, 0, 93, 0
2, 32570, Note_on_c, 0, 67, 0
2, 32575, Note_on_c, 0, 57, 0
2, 32576, Note_on_c, 0, 63, 0
2, 32642, Note_on_c, 0, 65, 47
2, 32646, Note_on_c, 0, 62, 40
2, 32647, Note_on_c, 0, 81, 94
2, 32648, Note_on_c, 0, 60, 30
2, 32651, Note_on_c, 0, 65, 0
2, 32656, Note_on_c, 0, 62, 0
2, 32658, Note_on_c, 0, 60, 0
2, 32890, Note_on_c, 0, 82, 59
2, 32895, Note_on_c, 0, 81, 0
2, 32953, Note_on_c, 0, 82, 0
2, 32969, Note_on_c, 0, 86, 80
2, 33010, Note_on_c, 0, 86, 0
2, 33020, Note_on_c, 0, 90, 33
2, 33092, Note_on_c, 0, 62, 50
2, 33093, Note_on_c, 0, 90, 0
2, 33093, Note_on_c, 0, 60, 55
2, 33093, Note_on_c, 0, 93, 80
2, 33095, Note_on_c, 0, 65, 55
2, 33104, Note_on_c, 0, 55, 36
2, 33140, Note_on_c, 0, 93, 0
2, 33162, Note_on_c, 0, 91, 47
2, 33227, Note_on_c, 0, 91, 0
2, 33246, Note_on_c, 0, 65, 0
2, 33254, Note_on_c, 0, 86, 37
2, 33262, Note_on_c, 0, 55, 0
2, 33270, Note_on_c, 0, 60, 0
2, 33273, Note_on_c, 0, 62, 0
2, 33314, Note_on_c, 0, 86, 0
2, 33329, Note_on_c, 0, 89, 63
2, 33334, Note_on_c, 0, 65, 56
2, 33336, Note_on_c, 0, 62, 46
2, 33339, Note_on_c, 0, 60, 46
2, 33343, Note_on_c, 0, 65, 0
2, 33351, Note_on_c, 0, 60, 0
2, 33357, Note_on_c, 0, 89, 0
2, 33362, Note_on_c, 0, 62, 0
2, 33392, Note_on_c, 0, 82, 28
2, 33480, Note_on_c, 0, 82, 0
2, 33488, Note_on_c, 0, 86, 74
2, 33541, Note_on_c, 0, 86, 0
2, 33576, Note_on_c, 0, 62, 54
2, 33576, Note_on_c, 0, 81, 36
2, 33587, Note_on_c, 0, 62, 0
2, 33615, Note_on_c, 0, 81, 0
2, 33646, Note_on_c, 0, 82, 69
2, 33706, Note_on_c, 0, 82, 0
2, 33728, Note_on_c, 0, 78, 53
2, 33783, Note_on_c, 0, 78, 0
2, 33805, Note_on_c, 0, 78, 36
2, 33815, Note_on_c, 0, 62, 38
2, 33821, Note_on_c, 0, 78, 0
2, 33826, Note_on_c, 0, 62, 0
2, 33962, Note_on_c, 0, 69, 34
2, 33974, Note_on_c, 0, 58, 21
2, 33978, Note_on_c, 0, 64, 18
2, 34014, Note_on_c, 0, 64, 0
2, 34014, Note_on_c, 0, 69, 0
2, 34016, Note_on_c, 0, 58, 0
2, 34042, Note_on_c, 0, 69, 54
2, 34046, Note_on_c, 0, 58, 34
2, 34047, Note_on_c, 0, 64, 40
2, 34055, Note_on_c, 0, 69, 0
2, 34058, Note_on_c, 0, 64, 0
2, 34076, Note_on_c, 0, 58, 0
2, 34200, Note_on_c, 0, 63, 37
2, 34203, Note_on_c, 0, 58, 34
2, 34204, Note_on_c, 0, 52, 48
2, 34251, Note_on_c, 0, 52, 0
2, 34260, Note_on_c, 0, 63, 0
2, 34265, Note_on_c, 0, 58, 0
2, 34286, Note_on_c, 0, 63, 42
2, 34290, Note_on_c, 0, 58, 42
2, 34290, Note_on_c, 0, 52, 51
2, 34308, Note_on_c, 0, 63, 0
2, 34316, Note_on_c, 0, 58, 0
2, 34318, Note_on_c, 0, 52, 0
2, 34361, Note_on_c, 0, 63, 62
2, 34362, Note_on_c, 0, 52, 59
2, 34368, Note_on_c, 0, 58, 47
2, 34388, Note_on_c, 0, 63, 0
2, 34400, Note_on_c, 0, 58, 0
2, 34401, Note_on_c, 0, 52, 0
2, 34451, Note_on_c, 0, 63, 59
2, 34458, Note_on_c, 0, 52, 34
2, 34459, Note_on_c, 0, 58, 37
2, 34472, Note_on_c, 0, 52, 0
2, 34483, Note_on_c, 0, 63, 0
2, 34494, Note_on_c, 0, 58, 0
2, 34527, Note_on_c, 0, 51, 42
2, 34528, Note_on_c, 0, 62, 47
2, 34529, Note_on_c, 0, 58, 37
2, 34544, Note_on_c, 0, 62, 0
2, 34550, Note_on_c, 0, 51, 0
2, 34560, Note_on_c, 0, 58, 0
2, 34645, Note_on_c, 0, 67, 56
2, 34647, Note_on_c, 0, 63, 46
2, 34652, Note_on_c, 0, 62, 44
2, 34654, Note_on_c, 0, 67, 0
2, 34662, Note_on_c, 0, 62, 0
2, 34667, Note_on_c, 0, 63, 0
2, 34758, Note_on_c, 0, 74, 115
2, 34794, Note_on_c, 0, 74, 0
2, 34810, Note_on_c, 0, 77, 83
2, 34852, Note_on_c, 0, 77, 0
2, 34883, Note_on_c, 0, 75, 77
2, 34890, Note_on_c, 0, 67, 65
2, 34896, Note_on_c, 0, 62, 40
2, 34898, Note_on_c, 0, 63, 25
2, 34899, Note_on_c, 0, 67, 0
2, 34910, Note_on_c, 0, 62, 0
2, 34911, Note_on_c, 0, 63, 0
2, 34913, Note_on_c, 0, 75, 0
2, 34940, Note_on_c, 0, 71, 41
2, 34988, Note_on_c, 0, 71, 0
2, 35004, Note_on_c, 0, 74, 68
2, 35011, Note_on_c, 0, 67, 44
2, 35017, Note_on_c, 0, 63, 21
2, 35022, Note_on_c, 0, 67, 0
2, 35032, Note_on_c, 0, 63, 0
2, 35044, Note_on_c, 0, 74, 0
2, 35057, Note_on_c, 0, 72, 39
2, 35067, Note_on_c, 0, 74, 49
2, 35081, Note_on_c, 0, 74, 0
2, 35108, Note_on_c, 0, 72, 0
2, 35245, Note_on_c, 0, 68, 77
2, 35248, Note_on_c, 0, 69, 83
2, 35252, Note_on_c, 0, 63, 46
2, 35255, Note_on_c, 0, 67, 38
2, 35258, Note_on_c, 0, 68, 0
2, 35265, Note_on_c, 0, 67, 0
2, 35284, Note_on_c, 0, 63, 0
2, 35292, Note_on_c, 0, 69, 0
2, 35311, Note_on_c, 0, 66, 58
2, 35351, Note_on_c, 0, 57, 29
2, 35362, Note_on_c, 0, 66, 0
2, 35364, Note_on_c, 0, 57, 0
2, 35375, Note_on_c, 0, 65, 65
2, 35401, Note_on_c, 0, 65, 0
2, 35428, Note_on_c, 0, 63, 25
2, 35487, Note_on_c, 0, 63, 0
2, 35517, Note_on_c, 0, 56, 30
2, 35517, Note_on_c, 0, 50, 32
2, 35522, Note_on_c, 0, 62, 66
2, 35564, Note_on_c, 0, 62, 0
2, 35576, Note_on_c, 0, 63, 36
2, 35592, Note_on_c, 0, 62, 59
2, 35616, Note_on_c, 0, 63, 0
2, 35620, Note_on_c, 0, 62, 0
2, 35621, Note_on_c, 0, 60, 62
2, 35631, Note_on_c, 0, 56, 0
2, 35643, Note_on_c, 0, 60, 0
2, 35659, Note_on_c, 0, 59, 26
2, 35683, Note_on_c, 0, 50, 0
2, 35717, Note_on_c, 0, 59, 0
2, 35728, Note_on_c, 0, 62, 67
2, 35772, Note_on_c, 0, 60, 62
2, 35790, Note_on_c, 0, 62, 0
2, 35831, Note_on_c, 0, 60, 0
2, 35842, Note_on_c, 0, 56, 57
2, 35877, Note_on_c, 0, 56, 0
2, 35884, Note_on_c, 0, 53, 41
2, 35950, Note_on_c, 0, 53, 0
2, 35962, Note_on_c, 0, 55, 74
2, 36001, Note_on_c, 0, 55, 0
2, 36022, Note_on_c, 0, 56, 57
2, 36083, Note_on_c, 0, 58, 68
2, 36090, Note_on_c, 0, 56, 0
2, 36119, Note_on_c, 0, 58, 0
2, 36137, Note_on_c, 0, 56, 42
2, 36210, Note_on_c, 0, 53, 22
2, 36221, Note_on_c, 0, 56, 0
2, 36223, Note_on_c, 0, 53, 0
2, 36238, Note_on_c, 0, 55, 50
2, 36388, Note_on_c, 0, 55, 0
2, 36481, Note_on_c, 0, 63, 43
2, 36482, Note_on_c, 0, 62, 55
2, 36483, Note_on_c, 0, 58, 39
2, 36484, Note_on_c, 0, 67, 49
2, 36531, Note_on_c, 0, 62, 0
2, 36533, Note_on_c, 0, 63, 0
2, 36541, Note_on_c, 0, 67, 0
2, 36546, Note_on_c, 0, 58, 0
2, 36598, Note_on_c, 0, 67, 45
2, 36603, Note_on_c, 0, 63, 33
2, 36604, Note_on_c, 0, 58, 28
2, 36605, Note_on_c, 0, 62, 50
2, 36648, Note_on_c, 0, 63, 0
2, 36654, Note_on_c, 0, 62, 0
2, 36676, Note_on_c, 0, 58, 0
2, 36677, Note_on_c, 0, 67, 0
2, 36723, Note_on_c, 0, 74, 103
2, 36784, Note_on_c, 0, 74, 0
2, 36802, Note_on_c, 0, 77, 78
2, 36806, Note_on_c, 0, 67, 61
2, 36811, Note_on_c, 0, 62, 52
2, 36811, Note_on_c, 0, 63, 34
2, 36815, Note_on_c, 0, 58, 20
2, 36827, Note_on_c, 0, 67, 0
2, 36839, Note_on_c, 0, 58, 0
2, 36841, Note_on_c, 0, 63, 0
2, 36841, Note_on_c, 0, 62, 0
2, 36842, Note_on_c, 0, 77, 0
2, 36854, Note_on_c, 0, 75, 53
2, 36928, Note_on_c, 0, 74, 78
2, 36937, Note_on_c, 0, 73, 27
2, 36944, Note_on_c, 0, 75, 0
2, 36950, Note_on_c, 0, 73, 0
2, 36974, Note_on_c, 0, 74, 0
2, 37004, Note_on_c, 0, 72, 61
2, 37040, Note_on_c, 0, 54, 44
2, 37043, Note_on_c, 0, 63, 25
2, 37045, Note_on_c, 0, 60, 50
2, 37060, Note_on_c, 0, 60, 0
2, 37062, Note_on_c, 0, 72, 0
2, 37069, Note_on_c, 0, 63, 0
2, 37077, Note_on_c, 0, 54, 0
2, 37085, Note_on_c, 0, 69, 55
2, 37133, Note_on_c, 0, 69, 0
2, 37162, Note_on_c, 0, 66, 64
2, 37206, Note_on_c, 0, 66, 0
2, 37221, Note_on_c, 0, 63, 56
2, 37290, Note_on_c, 0, 54, 35
2, 37317, Note_on_c, 0, 54, 0
2, 37402, Note_on_c, 0, 63, 0
2, 37402, Note_on_c, 0, 62, 67
2, 37419, Note_on_c, 0, 43, 33
2, 37420, Note_on_c, 0, 53, 24
2, 37436, Note_on_c, 0, 62, 0
2, 37457, Note_on_c, 0, 59, 37
2, 37553, Note_on_c, 0, 43, 0
2, 37570, Note_on_c, 0, 53, 0
2, 37638, Note_on_c, 0, 53, 57
2, 37642, Note_on_c, 0, 43, 38
2, 37648, Note_on_c, 0, 53, 0
2, 37656, Note_on_c, 0, 43, 0
2, 37671, Note_on_c, 0, 59, 0
2, 37721, Note_on_c, 0, 55, 60
2, 37741, Note_on_c, 0, 55, 0
2, 37756, Note_on_c, 0, 56, 55
2, 37786, Note_on_c, 0, 56, 0
2, 37800, Note_on_c, 0, 58, 51
2, 37825, Note_on_c, 0, 58, 0
2, 37838, Note_on_c, 0, 59, 35
2, 37857, Note_on_c, 0, 59, 0
2, 37881, Note_on_c, 0, 61, 67
2, 37881, Note_on_c, 0, 53, 41
2, 37883, Note_on_c, 0, 43, 29
2, 37896, Note_on_c, 0, 43, 0
2, 37909, Note_on_c, 0, 53, 0
2, 37911, Note_on_c, 0, 61, 0
2, 37969, Note_on_c, 0, 62, 62
2, 37996, Note_on_c, 0, 62, 0
2, 38009, Note_on_c, 0, 64, 66
2, 38030, Note_on_c, 0, 64, 0
2, 38050, Note_on_c, 0, 65, 66
2, 38074, Note_on_c, 0, 65, 0
2, 38090, Note_on_c, 0, 67, 68
2, 38108, Note_on_c, 0, 67, 0
2, 38130, Note_on_c, 0, 68, 57
2, 38139, Note_on_c, 0, 62, 42
2, 38147, Note_on_c, 0, 68, 0
2, 38150, Note_on_c, 0, 62, 0
2, 38219, Note_on_c, 0, 71, 42
2, 38231, Note_on_c, 0, 71, 0
2, 38247, Note_on_c, 0, 71, 68
2, 38268, Note_on_c, 0, 71, 0
2, 38287, Note_on_c, 0, 72, 53
2, 38306, Note_on_c, 0, 72, 0
2, 38333, Note_on_c, 0, 73, 37
2, 38349, Note_on_c, 0, 73, 0
2, 38366, Note_on_c, 0, 75, 69
2, 38374, Note_on_c, 0, 58, 40
2, 38391, Note_on_c, 0, 58, 0
2, 38400, Note_on_c, 0, 75, 0
2, 38452, Note_on_c, 0, 73, 31
2, 38483, Note_on_c, 0, 73, 0
2, 38493, Note_on_c, 0, 75, 57
2, 38517, Note_on_c, 0, 75, 0
2, 38535, Note_on_c, 0, 76, 36
2, 38554, Note_on_c, 0, 76, 0
2, 38569, Note_on_c, 0, 78, 46
2, 38590, Note_on_c, 0, 78, 0
2, 38653, Note_on_c, 0, 81, 42
2, 38671, Note_on_c, 0, 81, 0
2, 38689, Note_on_c, 0, 82, 59
2, 38711, Note_on_c, 0, 82, 0
2, 38726, Note_on_c, 0, 84, 61
2, 38750, Note_on_c, 0, 84, 0
2, 38765, Note_on_c, 0, 73, 42
2, 38770, Note_on_c, 0, 85, 53
2, 38774, Note_on_c, 0, 57, 25
2, 38779, Note_on_c, 0, 62, 34
2, 38779, Note_on_c, 0, 58, 33
2, 38779, Note_on_c, 0, 52, 41
2, 38817, Note_on_c, 0, 62, 0
2, 38818, Note_on_c, 0, 73, 0
2, 38819, Note_on_c, 0, 58, 0
2, 38821, Note_on_c, 0, 85, 0
2, 38821, Note_on_c, 0, 52, 0
2, 38826, Note_on_c, 0, 57, 0
2, 38847, Note_on_c, 0, 75, 56
2, 38848, Note_on_c, 0, 87, 72
2, 38849, Note_on_c, 0, 57, 31
2, 38851, Note_on_c, 0, 58, 37
2, 38851, Note_on_c, 0, 62, 37
2, 38854, Note_on_c, 0, 52, 27
2, 38873, Note_on_c, 0, 62, 0
2, 38875, Note_on_c, 0, 75, 0
2, 38879, Note_on_c, 0, 87, 0
2, 38880, Note_on_c, 0, 58, 0
2, 38880, Note_on_c, 0, 52, 0
2, 38882, Note_on_c, 0, 57, 0
2, 38901, Note_on_c, 0, 85, 31
2, 38905, Note_on_c, 0, 57, 24
2, 38906, Note_on_c, 0, 73, 20
2, 38906, Note_on_c, 0, 62, 28
2, 38908, Note_on_c, 0, 52, 20
2, 38908, Note_on_c, 0, 58, 25
2, 38955, Note_on_c, 0, 58, 0
2, 38956, Note_on_c, 0, 52, 0
2, 38957, Note_on_c, 0, 62, 0
2, 38965, Note_on_c, 0, 57, 0
2, 38966, Note_on_c, 0, 85, 0
2, 38971, Note_on_c, 0, 73, 0
2, 38999, Note_on_c, 0, 85, 59
2, 39000, Note_on_c, 0, 57, 31
2, 39002, Note_on_c, 0, 62, 35
2, 39002, Note_on_c, 0, 73, 32
2, 39004, Note_on_c, 0, 52, 36
2, 39004, Note_on_c, 0, 58, 34
2, 39052, Note_on_c, 0, 62, 0
2, 39055, Note_on_c, 0, 58, 0
2, 39056, Note_on_c, 0, 85, 0
2, 39057, Note_on_c, 0, 52, 0
2, 39066, Note_on_c, 0, 57, 0
2, 39073, Note_on_c, 0, 73, 0
2, 39089, Note_on_c, 0, 72, 28
2, 39089, Note_on_c, 0, 84, 45
2, 39094, Note_on_c, 0, 57, 27
2, 39095, Note_on_c, 0, 62, 24
2, 39098, Note_on_c, 0, 58, 28
2, 39100, Note_on_c, 0, 52, 22
2, 39120, Note_on_c, 0, 62, 0
2, 39124, Note_on_c, 0, 58, 0
2, 39124, Note_on_c, 0, 52, 0
2, 39126, Note_on_c, 0, 57, 0
2, 39210, Note_on_c, 0, 62, 55
2, 39210, Note_on_c, 0, 58, 37
2, 39220, Note_on_c, 0, 62, 0
2, 39229, Note_on_c, 0, 58, 0
2, 39360, Note_on_c, 0, 66, 43
2, 39364, Note_on_c, 0, 61, 35
2, 39366, Note_on_c, 0, 72, 0
2, 39367, Note_on_c, 0, 63, 35
2, 39367, Note_on_c, 0, 56, 32
2, 39392, Note_on_c, 0, 84, 0
2, 39571, Note_on_c, 0, 94, 82
2, 39599, Note_on_c, 0, 94, 0
2, 39618, Note_on_c, 0, 61, 0
2, 39622, Note_on_c, 0, 63, 0
2, 39628, Note_on_c, 0, 87, 49
2, 39639, Note_on_c, 0, 66, 0
2, 39644, Note_on_c, 0, 56, 0
2, 39657, Note_on_c, 0, 87, 0
2, 39690, Note_on_c, 0, 87, 71
2, 39691, Note_on_c, 0, 66, 50
2, 39695, Note_on_c, 0, 61, 48
2, 39697, Note_on_c, 0, 63, 43
2, 39714, Note_on_c, 0, 66, 0
2, 39716, Note_on_c, 0, 87, 0
2, 39724, Note_on_c, 0, 61, 0
2, 39730, Note_on_c, 0, 63, 0
2, 39740, Note_on_c, 0, 92, 56
2, 39766, Note_on_c, 0, 92, 0
2, 39806, Note_on_c, 0, 92, 77
2, 39836, Note_on_c, 0, 92, 0
2, 39855, Note_on_c, 0, 85, 49
2, 39894, Note_on_c, 0, 85, 0
2, 39922, Note_on_c, 0, 85, 63
2, 39926, Note_on_c, 0, 66, 46
2, 39929, Note_on_c, 0, 63, 37
2, 39929, Note_on_c, 0, 61, 37
2, 39947, Note_on_c, 0, 66, 0
2, 39947, Note_on_c, 0, 85, 0
2, 39957, Note_on_c, 0, 61, 0
2, 39964, Note_on_c, 0, 63, 0
2, 39968, Note_on_c, 0, 90, 71
2, 39999, Note_on_c, 0, 90, 0
2, 40037, Note_on_c, 0, 66, 56
2, 40038, Note_on_c, 0, 90, 71
2, 40041, Note_on_c, 0, 63, 37
2, 40044, Note_on_c, 0, 61, 33
2, 40053, Note_on_c, 0, 66, 0
2, 40068, Note_on_c, 0, 90, 0
2, 40068, Note_on_c, 0, 63, 0
2, 40078, Note_on_c, 0, 61, 0
2, 40090, Note_on_c, 0, 82, 25
2, 40115, Note_on_c, 0, 82, 0
2, 40157, Note_on_c, 0, 82, 51
2, 40158, Note_on_c, 0, 66, 59
2, 40162, Note_on_c, 0, 63, 36
2, 40163, Note_on_c, 0, 61, 34
2, 40180, Note_on_c, 0, 66, 0
2, 40180, Note_on_c, 0, 82, 0
2, 40194, Note_on_c, 0, 63, 0
2, 40200, Note_on_c, 0, 61, 0
2, 40203, Note_on_c, 0, 89, 56
2, 40226, Note_on_c, 0, 89, 0
2, 40279, Note_on_c, 0, 89, 74
2, 40283, Note_on_c, 0, 65, 54
2, 40285, Note_on_c, 0, 62, 41
2, 40294, Note_on_c, 0, 65, 0
2, 40306, Note_on_c, 0, 89, 0
2, 40313, Note_on_c, 0, 62, 0
2, 40342, Note_on_c, 0, 84, 28
2, 40376, Note_on_c, 0, 84, 0
2, 40400, Note_on_c, 0, 84, 57
2, 40422, Note_on_c, 0, 84, 0
2, 40442, Note_on_c, 0, 86, 77
2, 40477, Note_on_c, 0, 86, 0
2, 40513, Note_on_c, 0, 86, 76
2, 40535, Note_on_c, 0, 62, 28
2, 40542, Note_on_c, 0, 60, 22
2, 40544, Note_on_c, 0, 86, 0
2, 40568, Note_on_c, 0, 77, 31
2, 40627, Note_on_c, 0, 77, 0
2, 40676, Note_on_c, 0, 53, 37
2, 40683, Note_on_c, 0, 77, 38
2, 40772, Note_on_c, 0, 60, 0
2, 40788, Note_on_c, 0, 62, 0
2, 40852, Note_on_c, 0, 77, 0
2, 40883, Note_on_c, 0, 82, 77
2, 40886, Note_on_c, 0, 65, 38
2, 40887, Note_on_c, 0, 62, 37
2, 40896, Note_on_c, 0, 65, 0
2, 40918, Note_on_c, 0, 82, 0
2, 40920, Note_on_c, 0, 62, 0
2, 40926, Note_on_c, 0, 81, 55
2, 40932, Note_on_c, 0, 53, 0
2, 40957, Note_on_c, 0, 81, 0
2, 40968, Note_on_c, 0, 77, 44
2, 41002, Note_on_c, 0, 74, 48
2, 41005, Note_on_c, 0, 77, 0
2, 41035, Note_on_c, 0, 74, 0
2, 41087, Note_on_c, 0, 77, 51
2, 41118, Note_on_c, 0, 77, 0
2, 41127, Note_on_c, 0, 74, 54
2, 41160, Note_on_c, 0, 74, 0
2, 41362, Note_on_c, 0, 62, 62
2, 41363, Note_on_c, 0, 58, 50
2, 41372, Note_on_c, 0, 62, 0
2, 41377, Note_on_c, 0, 58, 0
2, 41488, Note_on_c, 0, 84, 99
2, 41515, Note_on_c, 0, 84, 0
2, 41544, Note_on_c, 0, 82, 65
2, 41599, Note_on_c, 0, 82, 0
2, 41612, Note_on_c, 0, 78, 62
2, 41615, Note_on_c, 0, 62, 28
2, 41621, Note_on_c, 0, 58, 25
2, 41622, Note_on_c, 0, 57, 22
2, 41629, Note_on_c, 0, 62, 0
2, 41634, Note_on_c, 0, 57, 0
2, 41638, Note_on_c, 0, 58, 0
2, 41648, Note_on_c, 0, 78, 0
2, 41726, Note_on_c, 0, 62, 31
2, 41737, Note_on_c, 0, 62, 0
2, 41779, Note_on_c, 0, 76, 56
2, 41814, Note_on_c, 0, 76, 0
2, 41841, Note_on_c, 0, 73, 52
2, 41844, Note_on_c, 0, 62, 52
2, 41846, Note_on_c, 0, 58, 46
2, 41852, Note_on_c, 0, 52, 32
2, 41858, Note_on_c, 0, 62, 0
2, 41864, Note_on_c, 0, 52, 0
2, 41874, Note_on_c, 0, 58, 0
2, 41880, Note_on_c, 0, 73, 0
2, 41901, Note_on_c, 0, 72, 32
2, 41961, Note_on_c, 0, 70, 58
2, 41962, Note_on_c, 0, 72, 0
2, 41991, Note_on_c, 0, 70, 0
2, 42016, Note_on_c, 0, 67, 30
2, 42079, Note_on_c, 0, 68, 43
2, 42093, Note_on_c, 0, 67, 0
2, 42109, Note_on_c, 0, 68, 0
2, 42128, Note_on_c, 0, 69, 57
2, 42179, Note_on_c, 0, 69, 0
2, 42197, Note_on_c, 0, 70, 74
2, 42202, Note_on_c, 0, 67, 64
2, 42206, Note_on_c, 0, 63, 46
2, 42209, Note_on_c, 0, 62, 51
2, 42222, Note_on_c, 0, 62, 0
2, 42223, Note_on_c, 0, 67, 0
2, 42235, Note_on_c, 0, 70, 0
2, 42238, Note_on_c, 0, 63, 0
2, 42256, Note_on_c, 0, 67, 38
2, 42310, Note_on_c, 0, 67, 0
2, 42322, Note_on_c, 0, 63, 51
2, 42361, Note_on_c, 0, 63, 0
2, 42364, Note_on_c, 0, 62, 44
2, 42423, Note_on_c, 0, 62, 0
2, 42441, Note_on_c, 0, 65, 68
2, 42486, Note_on_c, 0, 65, 0
2, 42499, Note_on_c, 0, 63, 42
2, 42561, Note_on_c, 0, 58, 20
2, 42577, Note_on_c, 0, 63, 0
2, 42582, Note_on_c, 0, 58, 0
2, 42593, Note_on_c, 0, 62, 68
2, 42654, Note_on_c, 0, 62, 0
2, 42680, Note_on_c, 0, 61, 58
2, 42730, Note_on_c, 0, 61, 0
2, 42748, Note_on_c, 0, 60, 49
2, 42842, Note_on_c, 0, 60, 0
2, 42850, Note_on_c, 0, 51, 56
2, 42855, Note_on_c, 0, 41, 57
2, 42955, Note_on_c, 0, 41, 0
2, 42971, Note_on_c, 0, 51, 0
2, 43058, Note_on_c, 0, 66, 67
2, 43058, Note_on_c, 0, 63, 63
2, 43058, Note_on_c, 0, 58, 75
2, 43067, Note_on_c, 0, 63, 0
2, 43155, Note_on_c, 0, 58, 0
2, 43161, Note_on_c, 0, 66, 0
2, 43209, Note_on_c, 0, 52, 46
2, 43214, Note_on_c, 0, 62, 22
2, 43226, Note_on_c, 0, 58, 11
2, 43286, Note_on_c, 0, 62, 0
2, 43286, Note_on_c, 0, 52, 0
2, 43291, Note_on_c, 0, 58, 0
2, 43399, Note_on_c, 0, 60, 44
2, 43399, Note_on_c, 0, 56, 35
2, 43400, Note_on_c, 0, 50, 37
2, 43410, Note_on_c, 0, 60, 0
2, 43414, Note_on_c, 0, 50, 0
2, 43423, Note_on_c, 0, 56, 0
2, 43439, Note_on_c, 0, 72, 42
2, 43489, Note_on_c, 0, 72, 0
2, 43511, Note_on_c, 0, 75, 63
2, 43517, Note_on_c, 0, 56, 36
2, 43519, Note_on_c, 0, 60, 31
2, 43529, Note_on_c, 0, 60, 0
2, 43532, Note_on_c, 0, 56, 0
2, 43543, Note_on_c, 0, 75, 0
2, 43558, Note_on_c, 0, 79, 80
2, 43642, Note_on_c, 0, 78, 69
2, 43647, Note_on_c, 0, 59, 33
2, 43669, Note_on_c, 0, 59, 0
2, 43672, Note_on_c, 0, 78, 0
2, 43694, Note_on_c, 0, 76, 42
2, 43744, Note_on_c, 0, 76, 0
2, 43760, Note_on_c, 0, 77, 56
2, 43765, Note_on_c, 0, 63, 32
2, 43765, Note_on_c, 0, 59, 37
2, 43774, Note_on_c, 0, 63, 0
2, 43777, Note_on_c, 0, 59, 0
2, 43795, Note_on_c, 0, 77, 0
2, 43859, Note_on_c, 0, 79, 0
2, 43871, Note_on_c, 0, 43, 66
2, 43883, Note_on_c, 0, 80, 71
2, 43889, Note_on_c, 0, 43, 0
2, 43911, Note_on_c, 0, 80, 0
2, 43946, Note_on_c, 0, 82, 60
2, 43982, Note_on_c, 0, 82, 0
2, 44002, Note_on_c, 0, 59, 60
2, 44003, Note_on_c, 0, 63, 55
2, 44004, Note_on_c, 0, 83, 69
2, 44004, Note_on_c, 0, 53, 45
2, 44010, Note_on_c, 0, 56, 28
2, 44013, Note_on_c, 0, 59, 0
2, 44014, Note_on_c, 0, 53, 0
2, 44020, Note_on_c, 0, 63, 0
2, 44021, Note_on_c, 0, 56, 0
2, 44034, Note_on_c, 0, 83, 0
2, 44074, Note_on_c, 0, 86, 52
2, 44086, Note_on_c, 0, 86, 0
2, 44134, Note_on_c, 0, 62, 70
2, 44136, Note_on_c, 0, 87, 81
2, 44136, Note_on_c, 0, 67, 64
2, 44136, Note_on_c, 0, 58, 60
2, 44138, Note_on_c, 0, 63, 42
2, 44165, Note_on_c, 0, 87, 0
2, 44201, Note_on_c, 0, 77, 80
2, 44201, Note_on_c, 0, 89, 77
2, 44207, Note_on_c, 0, 88, 50
2, 44216, Note_on_c, 0, 88, 0
2, 44239, Note_on_c, 0, 63, 0
2, 44260, Note_on_c, 0, 89, 0
2, 44261, Note_on_c, 0, 77, 0
2, 44274, Note_on_c, 0, 63, 36
2, 44285, Note_on_c, 0, 89, 71
2, 44287, Note_on_c, 0, 77, 76
2, 44301, Note_on_c, 0, 67, 0
2, 44311, Note_on_c, 0, 63, 0
2, 44327, Note_on_c, 0, 89, 0
2, 44338, Note_on_c, 0, 77, 0
2, 44364, Note_on_c, 0, 87, 60
2, 44366, Note_on_c, 0, 75, 64
2, 44367, Note_on_c, 0, 67, 52
2, 44371, Note_on_c, 0, 63, 37
2, 44400, Note_on_c, 0, 75, 0
2, 44404, Note_on_c, 0, 67, 0
2, 44408, Note_on_c, 0, 63, 0
2, 44415, Note_on_c, 0, 87, 0
2, 44438, Note_on_c, 0, 89, 71
2, 44441, Note_on_c, 0, 62, 0
2, 44442, Note_on_c, 0, 77, 58
2, 44479, Note_on_c, 0, 63, 39
2, 44480, Note_on_c, 0, 67, 28
2, 44481, Note_on_c, 0, 89, 0
2, 44490, Note_on_c, 0, 77, 0
2, 44491, Note_on_c, 0, 67, 0
2, 44509, Note_on_c, 0, 63, 0
2, 44516, Note_on_c, 0, 58, 0
2, 44520, Note_on_c, 0, 87, 47
2, 44523, Note_on_c, 0, 75, 45
2, 44569, Note_on_c, 0, 75, 0
2, 44578, Note_on_c, 0, 87, 0
2, 44601, Note_on_c, 0, 65, 50
2, 44603, Note_on_c, 0, 61, 40
2, 44603, Note_on_c, 0, 89, 63
2, 44604, Note_on_c, 0, 54, 33
2, 44605, Note_on_c, 0, 58, 40
2, 44606, Note_on_c, 0, 77, 56
2, 44668, Note_on_c, 0, 77, 0
2, 44670, Note_on_c, 0, 89, 0
2, 44686, Note_on_c, 0, 87, 70
2, 44724, Note_on_c, 0, 87, 0
2, 44727, Note_on_c, 0, 85, 62
2, 44740, Note_on_c, 0, 65, 0
2, 44755, Note_on_c, 0, 85, 0
2, 44774, Note_on_c, 0, 84, 59
2, 44781, Note_on_c, 0, 58, 0
2, 44782, Note_on_c, 0, 54, 0
2, 44785, Note_on_c, 0, 61, 0
2, 44816, Note_on_c, 0, 84, 0
2, 44845, Note_on_c, 0, 65, 51
2, 44845, Note_on_c, 0, 61, 48
2, 44856, Note_on_c, 0, 65, 0
2, 44857, Note_on_c, 0, 58, 21
2, 44880, Note_on_c, 0, 58, 0
2, 44881, Note_on_c, 0, 61, 0
2, 44966, Note_on_c, 0, 61, 50
2, 44967, Note_on_c, 0, 65, 46
2, 44969, Note_on_c, 0, 58, 35
2, 44970, Note_on_c, 0, 54, 33
2, 44979, Note_on_c, 0, 65, 0
2, 44982, Note_on_c, 0, 54, 0
2, 45001, Note_on_c, 0, 58, 0
2, 45004, Note_on_c, 0, 61, 0
2, 45010, Note_on_c, 0, 84, 91
2, 45037, Note_on_c, 0, 84, 0
2, 45050, Note_on_c, 0, 82, 64
2, 45082, Note_on_c, 0, 82, 0
2, 45093, Note_on_c, 0, 81, 64
2, 45098, Note_on_c, 0, 65, 44
2, 45099, Note_on_c, 0, 62, 44
2, 45101, Note_on_c, 0, 60, 49
2, 45101, Note_on_c, 0, 55, 50
2, 45124, Note_on_c, 0, 81, 0
2, 45129, Note_on_c, 0, 65, 0
2, 45135, Note_on_c, 0, 55, 0
2, 45138, Note_on_c, 0, 62, 0
2, 45154, Note_on_c, 0, 60, 0
2, 45185, Note_on_c, 0, 81, 73
2, 45222, Note_on_c, 0, 62, 18
2, 45228, Note_on_c, 0, 60, 20
2, 45232, Note_on_c, 0, 81, 0
2, 45243, Note_on_c, 0, 62, 0
2, 45244, Note_on_c, 0, 60, 0
2, 45263, Note_on_c, 0, 77, 50
2, 45315, Note_on_c, 0, 77, 0
2, 45325, Note_on_c, 0, 62, 49
2, 45352, Note_on_c, 0, 62, 0
2, 45360, Note_on_c, 0, 77, 70
2, 45395, Note_on_c, 0, 77, 0
2, 45399, Note_on_c, 0, 75, 56
2, 45428, Note_on_c, 0, 75, 0
2, 45441, Note_on_c, 0, 74, 71
2, 45444, Note_on_c, 0, 62, 56
2, 45449, Note_on_c, 0, 60, 40
2, 45457, Note_on_c, 0, 62, 0
2, 45461, Note_on_c, 0, 60, 0
2, 45488, Note_on_c, 0, 74, 0
2, 45528, Note_on_c, 0, 74, 62
2, 45568, Note_on_c, 0, 72, 61
2, 45573, Note_on_c, 0, 74, 0
2, 45600, Note_on_c, 0, 72, 0
2, 45608, Note_on_c, 0, 62, 42
2, 45611, Note_on_c, 0, 58, 42
2, 45613, Note_on_c, 0, 52, 34
2, 45616, Note_on_c, 0, 70, 62
2, 45649, Note_on_c, 0, 58, 0
2, 45660, Note_on_c, 0, 70, 0
2, 45678, Note_on_c, 0, 58, 32
2, 45692, Note_on_c, 0, 52, 0
2, 45694, Note_on_c, 0, 62, 0
2, 45703, Note_on_c, 0, 58, 0
2, 45720, Note_on_c, 0, 69, 85
2, 45746, Note_on_c, 0, 69, 0
2, 45759, Note_on_c, 0, 70, 39
2, 45784, Note_on_c, 0, 69, 56
2, 45796, Note_on_c, 0, 70, 0
2, 45813, Note_on_c, 0, 61, 33
2, 45815, Note_on_c, 0, 69, 0
2, 45815, Note_on_c, 0, 67, 67
2, 45830, Note_on_c, 0, 55, 20
2, 45836, Note_on_c, 0, 67, 0
2, 45851, Note_on_c, 0, 61, 0
2, 45859, Note_on_c, 0, 55, 0
2, 45860, Note_on_c, 0, 65, 41
2, 45919, Note_on_c, 0, 65, 0
2, 45925, Note_on_c, 0, 64, 55
2, 45929, Note_on_c, 0, 61, 35
2, 45948, Note_on_c, 0, 64, 0
2, 45949, Note_on_c, 0, 61, 0
2, 45969, Note_on_c, 0, 62, 26
2, 46042, Note_on_c, 0, 62, 0
2, 46047, Note_on_c, 0, 61, 32
2, 46069, Note_on_c, 0, 61, 0
2, 46086, Note_on_c, 0, 64, 62
2, 46161, Note_on_c, 0, 61, 51
2, 46181, Note_on_c, 0, 64, 0
2, 46191, Note_on_c, 0, 61, 0
2, 46207, Note_on_c, 0, 57, 34
2, 46295, Note_on_c, 0, 57, 0
2, 46322, Note_on_c, 0, 57, 49
2, 46524, Note_on_c, 0, 57, 0
2, 46531, Note_on_c, 0, 54, 26
2, 46545, Note_on_c, 0, 54, 0
2, 46559, Note_on_c, 0, 66, 83
2, 46638, Note_on_c, 0, 66, 0
2, 46648, Note_on_c, 0, 63, 35
2, 46672, Note_on_c, 0, 63, 0
2, 46701, Note_on_c, 0, 60, 37
2, 46748, Note_on_c, 0, 60, 0
2, 46763, Note_on_c, 0, 72, 74
2, 46772, Note_on_c, 0, 54, 35
2, 46776, Note_on_c, 0, 60, 40
2, 46787, Note_on_c, 0, 60, 0
2, 46799, Note_on_c, 0, 72, 0
2, 46808, Note_on_c, 0, 54, 0
2, 46840, Note_on_c, 0, 69, 39
2, 46890, Note_on_c, 0, 69, 0
2, 46898, Note_on_c, 0, 66, 46
2, 46925, Note_on_c, 0, 66, 0
2, 46943, Note_on_c, 0, 74, 87
2, 46990, Note_on_c, 0, 74, 0
2, 47005, Note_on_c, 0, 62, 53
2, 47008, Note_on_c, 0, 71, 75
2, 47014, Note_on_c, 0, 55, 44
2, 47016, Note_on_c, 0, 62, 0
2, 47034, Note_on_c, 0, 55, 0
2, 47043, Note_on_c, 0, 71, 0
2, 47065, Note_on_c, 0, 67, 32
2, 47098, Note_on_c, 0, 67, 0
2, 47173, Note_on_c, 0, 74, 48
2, 47234, Note_on_c, 0, 74, 0
2, 47244, Note_on_c, 0, 71, 46
2, 47252, Note_on_c, 0, 62, 34
2, 47256, Note_on_c, 0, 71, 0
2, 47263, Note_on_c, 0, 62, 0
2, 47286, Note_on_c, 0, 83, 88
2, 47344, Note_on_c, 0, 83, 0
2, 47376, Note_on_c, 0, 55, 24
2, 47387, Note_on_c, 0, 55, 0
2, 47485, Note_on_c, 0, 66, 68
2, 47488, Note_on_c, 0, 61, 52
2, 47490, Note_on_c, 0, 55, 58
2, 47491, Note_on_c, 0, 81, 96
2, 47547, Note_on_c, 0, 81, 0
2, 47552, Note_on_c, 0, 82, 46
2, 47576, Note_on_c, 0, 81, 62
2, 47589, Note_on_c, 0, 82, 0
2, 47596, Note_on_c, 0, 66, 0
2, 47606, Note_on_c, 0, 81, 0
2, 47613, Note_on_c, 0, 79, 51
2, 47654, Note_on_c, 0, 55, 0
2, 47655, Note_on_c, 0, 81, 80
2, 47696, Note_on_c, 0, 81, 0
2, 47698, Note_on_c, 0, 61, 0
2, 47701, Note_on_c, 0, 82, 34
2, 47722, Note_on_c, 0, 81, 57
2, 47735, Note_on_c, 0, 82, 0
2, 47750, Note_on_c, 0, 61, 19
2, 47760, Note_on_c, 0, 81, 0
2, 47780, Note_on_c, 0, 61, 0
2, 47813, Note_on_c, 0, 79, 0
2, 47848, Note_on_c, 0, 81, 88
2, 47850, Note_on_c, 0, 61, 58
2, 47850, Note_on_c, 0, 66, 73
2, 47861, Note_on_c, 0, 55, 35
2, 47883, Note_on_c, 0, 55, 0
2, 47884, Note_on_c, 0, 66, 0
2, 47905, Note_on_c, 0, 81, 0
2, 47907, Note_on_c, 0, 82, 47
2, 47936, Note_on_c, 0, 82, 0
2, 47948, Note_on_c, 0, 83, 62
2, 47973, Note_on_c, 0, 83, 0
2, 47975, Note_on_c, 0, 61, 0
2, 47986, Note_on_c, 0, 86, 73
2, 47987, Note_on_c, 0, 88, 70
2, 48006, Note_on_c, 0, 88, 0
2, 48015, Note_on_c, 0, 64, 28
2, 48017, Note_on_c, 0, 54, 23
2, 48018, Note_on_c, 0, 61, 17
2, 48019, Note_on_c, 0, 59, 40
2, 48022, Note_on_c, 0, 86, 0
2, 48025, Note_on_c, 0, 83, 64
2, 48048, Note_on_c, 0, 83, 0
2, 48066, Note_on_c, 0, 85, 67
2, 48097, Note_on_c, 0, 85, 0
2, 48108, Note_on_c, 0, 59, 0
2, 48136, Note_on_c, 0, 81, 66
2, 48138, Note_on_c, 0, 64, 0
2, 48141, Note_on_c, 0, 54, 0
2, 48165, Note_on_c, 0, 61, 0
2, 48205, Note_on_c, 0, 81, 0
2, 48214, Note_on_c, 0, 78, 52
2, 48215, Note_on_c, 0, 61, 33
2, 48219, Note_on_c, 0, 64, 46
2, 48223, Note_on_c, 0, 54, 23
2, 48226, Note_on_c, 0, 59, 34
2, 48353, Note_on_c, 0, 59, 0
2, 48369, Note_on_c, 0, 64, 0
2, 48395, Note_on_c, 0, 54, 0
2, 48402, Note_on_c, 0, 78, 0
2, 48403, Note_on_c, 0, 61, 0
2, 48442, Note_on_c, 0, 87, 85
2, 48448, Note_on_c, 0, 63, 60
2, 48451, Note_on_c, 0, 54, 44
2, 48454, Note_on_c, 0, 60, 50
2, 48456, Note_on_c, 0, 88, 44
2, 48467, Note_on_c, 0, 88, 0
2, 48469, Note_on_c, 0, 60, 0
2, 48476, Note_on_c, 0, 63, 0
2, 48488, Note_on_c, 0, 60, 9
2, 48515, Note_on_c, 0, 54, 0
2, 48520, Note_on_c, 0, 60, 0
2, 48538, Note_on_c, 0, 87, 0
2, 48557, Note_on_c, 0, 87, 50
2, 48576, Note_on_c, 0, 86, 53
2, 48592, Note_on_c, 0, 87, 0
2, 48596, Note_on_c, 0, 85, 67
2, 48598, Note_on_c, 0, 86, 0
2, 48632, Note_on_c, 0, 84, 66
2, 48634, Note_on_c, 0, 85, 0
2, 48644, Note_on_c, 0, 87, 25
2, 48653, Note_on_c, 0, 87, 0
2, 48674, Note_on_c, 0, 84, 0
2, 48698, Note_on_c, 0, 84, 77
2, 48698, Note_on_c, 0, 86, 71
2, 48699, Note_on_c, 0, 63, 46
2, 48703, Note_on_c, 0, 60, 40
2, 48707, Note_on_c, 0, 86, 0
2, 48708, Note_on_c, 0, 54, 27
2, 48720, Note_on_c, 0, 63, 0
2, 48738, Note_on_c, 0, 60, 0
2, 48739, Note_on_c, 0, 54, 0
2, 48762, Note_on_c, 0, 83, 44
2, 48772, Note_on_c, 0, 84, 0
2, 48777, Note_on_c, 0, 83, 0
2, 48777, Note_on_c, 0, 82, 48
2, 48811, Note_on_c, 0, 81, 45
2, 48812, Note_on_c, 0, 82, 0
2, 48827, Note_on_c, 0, 81, 0
2, 48833, Note_on_c, 0, 54, 34
2, 48833, Note_on_c, 0, 63, 26
2, 48836, Note_on_c, 0, 60, 32
2, 48848, Note_on_c, 0, 63, 0
2, 48849, Note_on_c, 0, 60, 0
2, 48860, Note_on_c, 0, 54, 0
2, 49167, Note_on_c, 0, 62, 30
2, 49168, Note_on_c, 0, 59, 32
2, 49176, Note_on_c, 0, 62, 0
2, 49176, Note_on_c, 0, 55, 30
2, 49180, Note_on_c, 0, 59, 0
2, 49189, Note_on_c, 0, 55, 0
2, 49200, Note_on_c, 0, 79, 84
2, 49201, Note_on_c, 0, 67, 89
2, 49266, Note_on_c, 0, 67, 0
2, 49292, Note_on_c, 0, 74, 39
2, 49311, Note_on_c, 0, 74, 0
2, 49334, Note_on_c, 0, 67, 78
2, 49397, Note_on_c, 0, 67, 0
2, 49406, Note_on_c, 0, 79, 0
2, 49416, Note_on_c, 0, 74, 38
2, 49438, Note_on_c, 0, 74, 0
2, 49453, Note_on_c, 0, 61, 47
2, 49453, Note_on_c, 0, 66, 50
2, 49455, Note_on_c, 0, 55, 54
2, 49456, Note_on_c, 0, 67, 68
2, 49457, Note_on_c, 0, 74, 68
2, 49728, Note_on_c, 0, 55, 0
2, 49742, Note_on_c, 0, 61, 0
2, 49747, Note_on_c, 0, 66, 0
2, 49764, Note_on_c, 0, 74, 0
2, 49766, Note_on_c, 0, 67, 0
2, 49774, Note_on_c, 0, 61, 30
2, 49774, Note_on_c, 0, 65, 40
2, 49778, Note_on_c, 0, 55, 35
2, 49789, Note_on_c, 0, 65, 0
2, 49804, Note_on_c, 0, 55, 0
2, 49808, Note_on_c, 0, 73, 37
2, 49811, Note_on_c, 0, 67, 45
2, 49847, Note_on_c, 0, 61, 0
2, 49856, Note_on_c, 0, 67, 0
2, 49879, Note_on_c, 0, 73, 0
2, 49907, Note_on_c, 0, 50, 40
2, 49917, Note_on_c, 0, 50, 0
2, 49950, Note_on_c, 0, 78, 48
2, 50000, Note_on_c, 0, 78, 0
2, 50040, Note_on_c, 0, 73, 43
2, 50115, Note_on_c, 0, 73, 0
2, 50131, Note_on_c, 0, 69, 39
2, 50135, Note_on_c, 0, 61, 27
2, 50136, Note_on_c, 0, 64, 30
2, 50137, Note_on_c, 0, 54, 19
2, 50159, Note_on_c, 0, 59, 8
2, 50266, Note_on_c, 0, 59, 0
2, 50274, Note_on_c, 0, 54, 0
2, 50290, Note_on_c, 0, 61, 0
2, 50297, Note_on_c, 0, 64, 0
2, 50304, Note_on_c, 0, 69, 0
2, 50407, Note_on_c, 0, 66, 37
2, 50411, Note_on_c, 0, 61, 37
2, 50417, Note_on_c, 0, 62, 48
2, 50418, Note_on_c, 0, 57, 29
2, 50477, Note_on_c, 0, 62, 0
2, 50513, Note_on_c, 0, 66, 0
2, 50517, Note_on_c, 0, 62, 30
2, 50536, Note_on_c, 0, 88, 84
2, 50556, Note_on_c, 0, 88, 0
2, 50567, Note_on_c, 0, 62, 0
2, 50569, Note_on_c, 0, 90, 77
2, 50571, Note_on_c, 0, 57, 0
2, 50587, Note_on_c, 0, 61, 0
2, 50613, Note_on_c, 0, 66, 46
2, 50617, Note_on_c, 0, 90, 0
2, 50628, Note_on_c, 0, 61, 20
2, 50628, Note_on_c, 0, 62, 28
2, 50631, Note_on_c, 0, 66, 0
2, 50652, Note_on_c, 0, 85, 74
2, 50667, Note_on_c, 0, 62, 0
2, 50676, Note_on_c, 0, 85, 0
2, 50680, Note_on_c, 0, 61, 0
2, 50691, Note_on_c, 0, 86, 76
2, 50723, Note_on_c, 0, 86, 0
2, 50732, Note_on_c, 0, 66, 48
2, 50738, Note_on_c, 0, 61, 31
2, 50749, Note_on_c, 0, 62, 22
2, 50753, Note_on_c, 0, 66, 0
2, 50760, Note_on_c, 0, 62, 0
2, 50774, Note_on_c, 0, 82, 52
2, 50775, Note_on_c, 0, 61, 0
2, 50801, Note_on_c, 0, 82, 0
2, 50813, Note_on_c, 0, 83, 51
2, 50846, Note_on_c, 0, 83, 0
2, 50851, Note_on_c, 0, 62, 37
2, 50860, Note_on_c, 0, 55, 36
2, 50860, Note_on_c, 0, 59, 28
2, 50867, Note_on_c, 0, 62, 0
2, 50885, Note_on_c, 0, 59, 0
2, 50888, Note_on_c, 0, 78, 49
2, 50889, Note_on_c, 0, 55, 0
2, 50918, Note_on_c, 0, 78, 0
2, 51006, Note_on_c, 0, 76, 47
2, 51053, Note_on_c, 0, 76, 0
2, 51082, Note_on_c, 0, 69, 49
2, 51139, Note_on_c, 0, 69, 0
2, 51204, Note_on_c, 0, 62, 51
2, 51205, Note_on_c, 0, 55, 46
2, 51206, Note_on_c, 0, 59, 36
2, 51215, Note_on_c, 0, 62, 0
2, 51218, Note_on_c, 0, 55, 0
2, 51219, Note_on_c, 0, 59, 0
2, 51323, Note_on_c, 0, 66, 70
2, 51324, Note_on_c, 0, 61, 59
2, 51326, Note_on_c, 0, 55, 71
2, 51369, Note_on_c, 0, 96, 84
2, 51370, Note_on_c, 0, 95, 84
2, 51387, Note_on_c, 0, 95, 0
2, 51390, Note_on_c, 0, 96, 0
2, 51404, Note_on_c, 0, 97, 74
2, 51415, Note_on_c, 0, 61, 0
2, 51440, Note_on_c, 0, 61, 48
2, 51444, Note_on_c, 0, 66, 0
2, 51451, Note_on_c, 0, 97, 0
2, 51480, Note_on_c, 0, 92, 77
2, 51485, Note_on_c, 0, 55, 0
2, 51512, Note_on_c, 0, 92, 0
2, 51514, Note_on_c, 0, 61, 0
2, 51520, Note_on_c, 0, 93, 72
2, 51549, Note_on_c, 0, 93, 0
2, 51560, Note_on_c, 0, 66, 56
2, 51561, Note_on_c, 0, 61, 43
2, 51584, Note_on_c, 0, 66, 0
2, 51605, Note_on_c, 0, 88, 55
2, 51637, Note_on_c, 0, 88, 0
2, 51648, Note_on_c, 0, 89, 46
2, 51658, Note_on_c, 0, 61, 0
2, 51681, Note_on_c, 0, 89, 0
2, 51687, Note_on_c, 0, 61, 37
2, 51688, Note_on_c, 0, 66, 45
2, 51702, Note_on_c, 0, 55, 25
2, 51717, Note_on_c, 0, 55, 0
2, 51722, Note_on_c, 0, 66, 0
2, 51726, Note_on_c, 0, 90, 76
2, 51737, Note_on_c, 0, 90, 0
2, 51739, Note_on_c, 0, 89, 44
2, 51755, Note_on_c, 0, 61, 0
2, 51783, Note_on_c, 0, 89, 0
2, 51802, Note_on_c, 0, 64, 54
2, 51803, Note_on_c, 0, 91, 77
2, 51804, Note_on_c, 0, 57, 57
2, 51806, Note_on_c, 0, 60, 50
2, 51806, Note_on_c, 0, 53, 41
2, 51825, Note_on_c, 0, 64, 0
2, 51832, Note_on_c, 0, 91, 0
2, 51861, Note_on_c, 0, 60, 0
2, 51865, Note_on_c, 0, 80, 51
2, 51865, Note_on_c, 0, 92, 53
2, 51870, Note_on_c, 0, 90, 29
2, 51872, Note_on_c, 0, 57, 0
2, 51885, Note_on_c, 0, 90, 0
2, 51895, Note_on_c, 0, 92, 0
2, 51896, Note_on_c, 0, 93, 68
2, 51899, Note_on_c, 0, 80, 0
2, 51899, Note_on_c, 0, 91, 29
2, 51906, Note_on_c, 0, 86, 28
2, 51909, Note_on_c, 0, 81, 33
2, 51920, Note_on_c, 0, 57, 31
2, 51921, Note_on_c, 0, 93, 0
2, 51929, Note_on_c, 0, 81, 0
2, 51931, Note_on_c, 0, 86, 0
2, 51933, Note_on_c, 0, 53, 0
2, 51938, Note_on_c, 0, 91, 0
2, 51953, Note_on_c, 0, 57, 0
2, 51959, Note_on_c, 0, 93, 71
2, 51962, Note_on_c, 0, 81, 44
2, 51964, Note_on_c, 0, 86, 44
2, 51969, Note_on_c, 0, 89, 40
2, 52001, Note_on_c, 0, 86, 0
2, 52002, Note_on_c, 0, 89, 0
2, 52008, Note_on_c, 0, 93, 0
2, 52012, Note_on_c, 0, 81, 0
2, 52038, Note_on_c, 0, 93, 70
2, 52041, Note_on_c, 0, 64, 39
2, 52042, Note_on_c, 0, 81, 42
2, 52043, Note_on_c, 0, 86, 63
2, 52048, Note_on_c, 0, 60, 39
2, 52049, Note_on_c, 0, 57, 35
2, 52053, Note_on_c, 0, 64, 0
2, 52057, Note_on_c, 0, 81, 0
2, 52058, Note_on_c, 0, 93, 0
2, 52061, Note_on_c, 0, 86, 0
2, 52082, Note_on_c, 0, 60, 0
2, 52093, Note_on_c, 0, 76, 46
2, 52094, Note_on_c, 0, 57, 0
2, 52159, Note_on_c, 0, 76, 0
2, 52166, Note_on_c, 0, 57, 29
2, 52181, Note_on_c, 0, 57, 0
2, 52199, Note_on_c, 0, 76, 54
2, 52199, Note_on_c, 0, 88, 44
2, 52207, Note_on_c, 0, 86, 29
2, 52236, Note_on_c, 0, 86, 0
2, 52243, Note_on_c, 0, 88, 0
2, 52250, Note_on_c, 0, 76, 0
2, 52287, Note_on_c, 0, 88, 35
2, 52288, Note_on_c, 0, 76, 32
2, 52298, Note_on_c, 0, 76, 0
2, 52300, Note_on_c, 0, 88, 0
2, 52320, Note_on_c, 0, 63, 39
2, 52321, Note_on_c, 0, 54, 33
2, 52330, Note_on_c, 0, 60, 30
2, 52332, Note_on_c, 0, 63, 0
2, 52335, Note_on_c, 0, 93, 78
2, 52339, Note_on_c, 0, 81, 40
2, 52351, Note_on_c, 0, 54, 0
2, 52365, Note_on_c, 0, 60, 0
2, 52406, Note_on_c, 0, 93, 0
2, 52421, Note_on_c, 0, 81, 0
2, 52441, Note_on_c, 0, 93, 82
2, 52442, Note_on_c, 0, 81, 65
2, 52494, Note_on_c, 0, 93, 0
2, 52505, Note_on_c, 0, 81, 0
2, 52519, Note_on_c, 0, 93, 66
2, 52523, Note_on_c, 0, 81, 40
2, 52526, Note_on_c, 0, 63, 40
2, 52528, Note_on_c, 0, 54, 36
2, 52533, Note_on_c, 0, 60, 44
2, 52537, Note_on_c, 0, 93, 0
2, 52540, Note_on_c, 0, 81, 0
2, 52542, Note_on_c, 0, 63, 0
2, 52561, Note_on_c, 0, 54, 0
2, 52566, Note_on_c, 0, 75, 57
2, 52569, Note_on_c, 0, 87, 53
2, 52582, Note_on_c, 0, 60, 0
2, 52637, Note_on_c, 0, 60, 47
2, 52651, Note_on_c, 0, 87, 0
2, 52655, Note_on_c, 0, 75, 0
2, 52656, Note_on_c, 0, 60, 0
2, 52683, Note_on_c, 0, 87, 62
2, 52684, Note_on_c, 0, 75, 42
2, 52730, Note_on_c, 0, 87, 0
2, 52744, Note_on_c, 0, 75, 0
2, 52766, Note_on_c, 0, 75, 42
2, 52768, Note_on_c, 0, 87, 59
2, 52770, Note_on_c, 0, 62, 53
2, 52771, Note_on_c, 0, 58, 43
2, 52774, Note_on_c, 0, 57, 37
2, 52782, Note_on_c, 0, 62, 0
2, 52784, Note_on_c, 0, 57, 0
2, 52792, Note_on_c, 0, 75, 0
2, 52794, Note_on_c, 0, 58, 0
2, 52806, Note_on_c, 0, 87, 0
2, 52872, Note_on_c, 0, 96, 81
2, 52872, Note_on_c, 0, 84, 80
2, 52913, Note_on_c, 0, 84, 0
2, 52917, Note_on_c, 0, 96, 0
2, 52952, Note_on_c, 0, 96, 79
2, 52955, Note_on_c, 0, 84, 74
2, 52997, Note_on_c, 0, 96, 0
2, 52999, Note_on_c, 0, 84, 0
2, 53005, Note_on_c, 0, 58, 40
2, 53021, Note_on_c, 0, 96, 51
2, 53023, Note_on_c, 0, 84, 60
2, 53029, Note_on_c, 0, 58, 0
2, 53058, Note_on_c, 0, 96, 0
2, 53063, Note_on_c, 0, 84, 0
2, 53096, Note_on_c, 0, 96, 66
2, 53101, Note_on_c, 0, 84, 56
2, 53124, Note_on_c, 0, 62, 39
2, 53129, Note_on_c, 0, 58, 30
2, 53130, Note_on_c, 0, 57, 34
2, 53136, Note_on_c, 0, 62, 0
2, 53140, Note_on_c, 0, 58, 0
2, 53147, Note_on_c, 0, 84, 0
2, 53154, Note_on_c, 0, 96, 0
2, 53157, Note_on_c, 0, 57, 0
2, 53176, Note_on_c, 0, 93, 49
2, 53229, Note_on_c, 0, 93, 0
2, 53257, Note_on_c, 0, 96, 80
2, 53258, Note_on_c, 0, 58, 44
2, 53261, Note_on_c, 0, 62, 40
2, 53273, Note_on_c, 0, 62, 0
2, 53281, Note_on_c, 0, 58, 0
2, 53349, Note_on_c, 0, 96, 0
2, 53369, Note_on_c, 0, 94, 73
2, 53420, Note_on_c, 0, 94, 0
2, 53431, Note_on_c, 0, 90, 35
2, 53482, Note_on_c, 0, 90, 0
2, 53492, Note_on_c, 0, 93, 79
2, 53497, Note_on_c, 0, 64, 41
2, 53511, Note_on_c, 0, 64, 0
2, 53529, Note_on_c, 0, 93, 0
2, 53548, Note_on_c, 0, 91, 42
2, 53602, Note_on_c, 0, 91, 0
2, 53612, Note_on_c, 0, 88, 58
2, 53639, Note_on_c, 0, 88, 0
2, 53737, Note_on_c, 0, 85, 23
2, 53746, Note_on_c, 0, 85, 0
2, 53769, Note_on_c, 0, 86, 77
2, 53770, Note_on_c, 0, 89, 63
2, 53772, Note_on_c, 0, 67, 50
2, 53780, Note_on_c, 0, 63, 28
2, 53784, Note_on_c, 0, 62, 22
2, 53785, Note_on_c, 0, 58, 14
2, 53825, Note_on_c, 0, 63, 0
2, 53834, Note_on_c, 0, 62, 0
2, 53837, Note_on_c, 0, 86, 0
2, 53841, Note_on_c, 0, 89, 0
2, 53849, Note_on_c, 0, 67, 0
2, 53855, Note_on_c, 0, 87, 32
2, 53861, Note_on_c, 0, 84, 30
2, 53874, Note_on_c, 0, 87, 0
2, 53875, Note_on_c, 0, 84, 0
2, 53890, Note_on_c, 0, 86, 70
2, 53892, Note_on_c, 0, 89, 50
2, 53954, Note_on_c, 0, 86, 0
2, 53957, Note_on_c, 0, 89, 0
2, 53980, Note_on_c, 0, 84, 20
2, 53992, Note_on_c, 0, 84, 0
2, 54010, Note_on_c, 0, 86, 60
2, 54012, Note_on_c, 0, 63, 29
2, 54012, Note_on_c, 0, 62, 15
2, 54013, Note_on_c, 0, 89, 49
2, 54013, Note_on_c, 0, 67, 36
2, 54070, Note_on_c, 0, 67, 0
2, 54074, Note_on_c, 0, 62, 0
2, 54084, Note_on_c, 0, 86, 0
2, 54084, Note_on_c, 0, 89, 0
2, 54088, Note_on_c, 0, 63, 0
2, 54095, Note_on_c, 0, 87, 53
2, 54099, Note_on_c, 0, 84, 60
2, 54100, Note_on_c, 0, 58, 0
2, 54103, Note_on_c, 0, 89, 24
2, 54122, Note_on_c, 0, 89, 0
2, 54139, Note_on_c, 0, 87, 0
2, 54164, Note_on_c, 0, 84, 0
2, 54208, Note_on_c, 0, 63, 61
2, 54209, Note_on_c, 0, 90, 81
2, 54209, Note_on_c, 0, 94, 73
2, 54211, Note_on_c, 0, 58, 40
2, 54213, Note_on_c, 0, 59, 58
2, 54213, Note_on_c, 0, 54, 37
2, 54290, Note_on_c, 0, 59, 0
2, 54302, Note_on_c, 0, 63, 0
2, 54308, Note_on_c, 0, 90, 0
2, 54314, Note_on_c, 0, 94, 0
2, 54324, Note_on_c, 0, 89, 68
2, 54325, Note_on_c, 0, 92, 68
2, 54329, Note_on_c, 0, 63, 33
2, 54337, Note_on_c, 0, 59, 49
2, 54386, Note_on_c, 0, 59, 0
2, 54394, Note_on_c, 0, 89, 0
2, 54395, Note_on_c, 0, 63, 0
2, 54414, Note_on_c, 0, 92, 0
2, 54445, Note_on_c, 0, 90, 64
2, 54446, Note_on_c, 0, 63, 43
2, 54448, Note_on_c, 0, 86, 47
2, 54451, Note_on_c, 0, 88, 49
2, 54457, Note_on_c, 0, 59, 34
2, 54460, Note_on_c, 0, 88, 0
2, 54477, Note_on_c, 0, 63, 0
2, 54485, Note_on_c, 0, 86, 0
2, 54485, Note_on_c, 0, 59, 0
2, 54535, Note_on_c, 0, 90, 0
2, 54562, Note_on_c, 0, 85, 59
2, 54563, Note_on_c, 0, 89, 65
2, 54566, Note_on_c, 0, 63, 53
2, 54571, Note_on_c, 0, 59, 49
2, 54592, Note_on_c, 0, 85, 0
2, 54605, Note_on_c, 0, 89, 0
2, 54607, Control_c, 0, 64, 127
2, 54610, Note_on_c, 0, 54, 0
2, 54618, Note_on_c, 0, 87, 42
2, 54649, Note_on_c, 0, 87, 0
2, 54655, Note_on_c, 0, 59, 0
2, 54664, Note_on_c, 0, 63, 0
2, 54671, Note_on_c, 0, 58, 0
2, 54687, Note_on_c, 0, 54, 45
2, 54717, Note_on_c, 0, 54, 0
2, 54722, Control_c, 0, 64, 0
2, 54730, Note_on_c, 0, 85, 69
2, 54731, Note_on_c, 0, 62, 47
2, 54733, Note_on_c, 0, 77, 61
2, 54733, Note_on_c, 0, 89, 62
2, 54734, Note_on_c, 0, 58, 30
2, 54735, Note_on_c, 0, 57, 53
2, 54739, Note_on_c, 0, 53, 39
2, 54773, Note_on_c, 0, 86, 53
2, 54790, Note_on_c, 0, 85, 0
2, 54790, Control_c, 0, 64, 127
2, 54793, Note_on_c, 0, 86, 0
2, 54797, Note_on_c, 0, 89, 0
2, 54806, Note_on_c, 0, 77, 0
2, 54819, Note_on_c, 0, 58, 0
2, 54820, Note_on_c, 0, 62, 0
2, 54824, Note_on_c, 0, 53, 0
2, 54824, Control_c, 0, 64, 0
2, 54829, Note_on_c, 0, 57, 0
2, 54846, Note_on_c, 0, 86, 71
2, 54848, Note_on_c, 0, 74, 58
2, 54849, Note_on_c, 0, 82, 47
2, 54850, Note_on_c, 0, 62, 48
2, 54853, Note_on_c, 0, 57, 51
2, 54854, Note_on_c, 0, 58, 42
2, 54856, Note_on_c, 0, 53, 34
2, 54924, Note_on_c, 0, 82, 0
2, 54944, Note_on_c, 0, 62, 0
2, 54946, Note_on_c, 0, 74, 0
2, 54950, Note_on_c, 0, 86, 0
2, 54954, Note_on_c, 0, 58, 0
2, 54965, Note_on_c, 0, 82, 49
2, 54968, Note_on_c, 0, 62, 44
2, 54968, Note_on_c, 0, 74, 36
2, 54970, Control_c, 0, 64, 127
2, 54972, Note_on_c, 0, 58, 25
2, 54996, Note_on_c, 0, 62, 0
2, 55000, Note_on_c, 0, 53, 0
2, 55003, Note_on_c, 0, 57, 0
2, 55005, Note_on_c, 0, 74, 0
2, 55006, Note_on_c, 0, 58, 0
2, 55038, Note_on_c, 0, 82, 0
2, 55049, Note_on_c, 0, 62, 37
2, 55049, Note_on_c, 0, 58, 36
2, 55061, Control_c, 0, 64, 0
2, 55065, Note_on_c, 0, 62, 0
2, 55084, Control_c, 0, 64, 127
2, 55086, Note_on_c, 0, 58, 0
2, 55087, Note_on_c, 0, 74, 34
2, 55127, Note_on_c, 0, 74, 0
2, 55165, Note_on_c, 0, 78, 56
2, 55168, Note_on_c, 0, 72, 56
2, 55169, Note_on_c, 0, 51, 50
2, 55170, Note_on_c, 0, 62, 53
2, 55170, Note_on_c, 0, 81, 57
2, 55170, Note_on_c, 0, 57, 58
2, 55172, Note_on_c, 0, 84, 51
2, 55173, Control_c, 0, 64, 0
2, 55185, Note_on_c, 0, 62, 0
2, 55193, Note_on_c, 0, 72, 0
2, 55193, Note_on_c, 0, 57, 0
2, 55198, Note_on_c, 0, 84, 0
2, 55200, Note_on_c, 0, 81, 0
2, 55202, Note_on_c, 0, 78, 0
2, 55203, Note_on_c, 0, 51, 0
2, 55285, Note_on_c, 0, 41, 75
2, 55306, Note_on_c, 0, 41, 0
2, 55332, Note_on_c, 0, 62, 37
2, 55372, Note_on_c, 0, 62, 0
2, 55411, Note_on_c, 0, 66, 70
2, 55412, Note_on_c, 0, 72, 53
2, 55413, Note_on_c, 0, 51, 64
2, 55413, Note_on_c, 0, 69, 67
2, 55414, Note_on_c, 0, 62, 68
2, 55416, Note_on_c, 0, 57, 63
2, 55551, Note_on_c, 0, 62, 0
2, 55554, Note_on_c, 0, 57, 0
2, 55566, Note_on_c, 0, 69, 0
2, 55601, Note_on_c, 0, 72, 0
2, 55605, Note_on_c, 0, 66, 0
2, 55633, Note_on_c, 0, 51, 0
2, 55641, Note_on_c, 0, 48, 39
2, 55653, Note_on_c, 0, 51, 54
2, 55654, Note_on_c, 0, 48, 0
2, 55665, Note_on_c, 0, 50, 17
2, 55675, Note_on_c, 0, 50, 0
2, 55689, Note_on_c, 0, 51, 0
2, 55694, Note_on_c, 0, 65, 51
2, 55694, Note_on_c, 0, 57, 44
2, 55695, Note_on_c, 0, 53, 42
2, 55695, Note_on_c, 0, 62, 48
2, 55696, Note_on_c, 0, 60, 56
2, 55751, Note_on_c, 0, 57, 0
2, 55752, Note_on_c, 0, 60, 0
2, 55755, Note_on_c, 0, 65, 0
2, 55760, Note_on_c, 0, 62, 0
2, 55763, Note_on_c, 0, 53, 0
2, 55898, Note_on_c, 0, 65, 50
2, 55903, Note_on_c, 0, 62, 33
2, 55904, Note_on_c, 0, 60, 38
2, 55907, Note_on_c, 0, 65, 0
2, 55914, Note_on_c, 0, 62, 0
2, 55915, Note_on_c, 0, 60, 0
2, 55927, Note_on_c, 0, 79, 66
2, 55928, Note_on_c, 0, 67, 69
2, 55983, Note_on_c, 0, 67, 0
2, 56040, Note_on_c, 0, 81, 71
2, 56042, Note_on_c, 0, 69, 65
2, 56075, Note_on_c, 0, 81, 0
2, 56086, Note_on_c, 0, 69, 0
2, 56126, Note_on_c, 0, 65, 42
2, 56127, Note_on_c, 0, 82, 72
2, 56128, Note_on_c, 0, 62, 45
2, 56129, Note_on_c, 0, 70, 73
2, 56130, Note_on_c, 0, 60, 42
2, 56136, Note_on_c, 0, 65, 0
2, 56143, Note_on_c, 0, 62, 0
2, 56143, Note_on_c, 0, 60, 0
2, 56158, Note_on_c, 0, 70, 0
2, 56161, Note_on_c, 0, 82, 0
2, 56193, Note_on_c, 0, 80, 35
2, 56194, Note_on_c, 0, 68, 38
2, 56221, Note_on_c, 0, 80, 0
2, 56223, Note_on_c, 0, 68, 0
2, 56231, Note_on_c, 0, 69, 45
2, 56255, Note_on_c, 0, 69, 0
2, 56263, Note_on_c, 0, 81, 59
2, 56288, Note_on_c, 0, 81, 0
2, 56313, Note_on_c, 0, 79, 54
2, 56320, Note_on_c, 0, 67, 58
2, 56324, Note_on_c, 0, 78, 26
2, 56337, Note_on_c, 0, 78, 0
2, 56364, Note_on_c, 0, 79, 0
2, 56366, Note_on_c, 0, 67, 0
2, 56409, Note_on_c, 0, 78, 46
2, 56415, Note_on_c, 0, 66, 52
2, 56470, Note_on_c, 0, 78, 0
2, 56475, Note_on_c, 0, 66, 0
2, 56492, Note_on_c, 0, 65, 52
2, 56493, Note_on_c, 0, 67, 63
2, 56493, Note_on_c, 0, 79, 51
2, 56499, Note_on_c, 0, 62, 37
2, 56501, Note_on_c, 0, 60, 36
2, 56502, Note_on_c, 0, 65, 0
2, 56512, Note_on_c, 0, 62, 0
2, 56514, Note_on_c, 0, 60, 0
2, 56767, Note_on_c, 0, 63, 57
2, 56769, Note_on_c, 0, 67, 0
2, 56769, Note_on_c, 0, 52, 53
2, 56773, Note_on_c, 0, 58, 49
2, 56811, Note_on_c, 0, 79, 0
2, 56972, Note_on_c, 0, 63, 0
2, 56972, Note_on_c, 0, 85, 58
2, 56975, Note_on_c, 0, 70, 43
2, 56999, Note_on_c, 0, 85, 0
2, 57000, Note_on_c, 0, 52, 0
2, 57007, Note_on_c, 0, 70, 0
2, 57029, Note_on_c, 0, 58, 0
2, 57059, Note_on_c, 0, 85, 67
2, 57061, Note_on_c, 0, 70, 48
2, 57094, Note_on_c, 0, 70, 0
2, 57096, Note_on_c, 0, 85, 0
2, 57142, Note_on_c, 0, 85, 62
2, 57145, Note_on_c, 0, 70, 48
2, 57185, Note_on_c, 0, 85, 0
2, 57195, Note_on_c, 0, 70, 0
2, 57216, Note_on_c, 0, 61, 43
2, 57220, Note_on_c, 0, 82, 55
2, 57225, Note_on_c, 0, 58, 32
2, 57241, Note_on_c, 0, 61, 0
2, 57251, Note_on_c, 0, 82, 0
2, 57255, Note_on_c, 0, 58, 0
2, 57371, Note_on_c, 0, 61, 34
2, 57377, Note_on_c, 0, 52, 32
2, 57378, Note_on_c, 0, 58, 37
2, 57430, Note_on_c, 0, 58, 0
2, 57468, Note_on_c, 0, 58, 19
2, 57472, Note_on_c, 0, 61, 0
2, 57475, Note_on_c, 0, 52, 0
2, 57488, Note_on_c, 0, 78, 74
2, 57495, Note_on_c, 0, 58, 0
2, 57564, Note_on_c, 0, 78, 0
2, 57573, Note_on_c, 0, 75, 36
2, 57600, Note_on_c, 0, 75, 0
2, 57611, Note_on_c, 0, 67, 34
2, 57613, Note_on_c, 0, 78, 64
2, 57614, Note_on_c, 0, 63, 29
2, 57614, Note_on_c, 0, 62, 34
2, 57616, Note_on_c, 0, 58, 25
2, 57667, Note_on_c, 0, 78, 0
2, 57679, Note_on_c, 0, 63, 0
2, 57690, Note_on_c, 0, 79, 0
2, 57701, Note_on_c, 0, 63, 13
2, 57706, Note_on_c, 0, 67, 0
2, 57716, Note_on_c, 0, 58, 0
2, 57722, Note_on_c, 0, 75, 55
2, 57735, Note_on_c, 0, 63, 0
2, 57740, Note_on_c, 0, 62, 0
2, 57783, Note_on_c, 0, 75, 0
2, 57813, Note_on_c, 0, 67, 39
2, 57816, Note_on_c, 0, 63, 31
2, 57820, Note_on_c, 0, 62, 36
2, 57820, Note_on_c, 0, 58, 25
2, 57823, Note_on_c, 0, 74, 55
2, 57942, Note_on_c, 0, 67, 0
2, 57953, Note_on_c, 0, 62, 0
2, 57965, Note_on_c, 0, 63, 0
2, 57970, Note_on_c, 0, 58, 0
2, 58022, Note_on_c, 0, 74, 0
2, 58050, Note_on_c, 0, 72, 56
2, 58051, Note_on_c, 0, 63, 51
2, 58053, Note_on_c, 0, 67, 37
2, 58055, Note_on_c, 0, 57, 46
2, 58073, Note_on_c, 0, 67, 0
2, 58084, Note_on_c, 0, 72, 0
2, 58111, Note_on_c, 0, 57, 0
2, 58115, Note_on_c, 0, 63, 0
2, 58118, Note_on_c, 0, 73, 29
2, 58138, Note_on_c, 0, 73, 0
2, 58170, Note_on_c, 0, 63, 27
2, 58180, Note_on_c, 0, 63, 0
2, 58209, Note_on_c, 0, 73, 44
2, 58210, Note_on_c, 0, 68, 65
2, 58256, Note_on_c, 0, 73, 0
2, 58265, Note_on_c, 0, 68, 0
2, 58286, Note_on_c, 0, 73, 47
2, 58287, Note_on_c, 0, 69, 71
2, 58296, Note_on_c, 0, 63, 27
2, 58322, Note_on_c, 0, 69, 0
2, 58325, Note_on_c, 0, 63, 0
2, 58334, Note_on_c, 0, 73, 0
2, 58347, Note_on_c, 0, 65, 35
2, 58393, Note_on_c, 0, 65, 0
2, 58406, Note_on_c, 0, 63, 42
2, 58457, Note_on_c, 0, 60, 34
2, 58460, Note_on_c, 0, 63, 0
2, 58514, Note_on_c, 0, 60, 0
2, 58538, Note_on_c, 0, 62, 64
2, 58568, Note_on_c, 0, 62, 0
2, 58659, Note_on_c, 0, 56, 33
2, 58662, Note_on_c, 0, 60, 24
2, 58663, Note_on_c, 0, 50, 27
2, 58671, Note_on_c, 0, 60, 0
2, 58675, Note_on_c, 0, 50, 0
2, 58685, Note_on_c, 0, 56, 0
2, 58698, Note_on_c, 0, 60, 32
2, 58718, Note_on_c, 0, 60, 0
2, 58730, Note_on_c, 0, 63, 47
2, 58755, Note_on_c, 0, 63, 0
2, 58771, Note_on_c, 0, 67, 62
2, 58793, Note_on_c, 0, 56, 25
2, 58803, Note_on_c, 0, 67, 0
2, 58815, Note_on_c, 0, 56, 0
2, 58816, Note_on_c, 0, 66, 45
2, 58846, Note_on_c, 0, 66, 0
2, 58862, Note_on_c, 0, 64, 24
2, 58885, Note_on_c, 0, 64, 0
2, 58896, Note_on_c, 0, 65, 56
2, 58917, Note_on_c, 0, 65, 0
2, 59149, Note_on_c, 0, 65, 70
2, 59166, Note_on_c, 0, 65, 0
2, 59190, Note_on_c, 0, 67, 51
2, 59213, Note_on_c, 0, 67, 0
2, 59226, Note_on_c, 0, 68, 56
2, 59251, Note_on_c, 0, 68, 0
2, 59278, Note_on_c, 0, 59, 32
2, 59278, Note_on_c, 0, 71, 71
2, 59285, Note_on_c, 0, 59, 0
2, 59291, Note_on_c, 0, 71, 0
2, 59321, Note_on_c, 0, 73, 53
2, 59350, Note_on_c, 0, 73, 0
2, 59375, Note_on_c, 0, 74, 71
2, 59388, Note_on_c, 0, 59, 35
2, 59399, Note_on_c, 0, 59, 0
2, 59403, Note_on_c, 0, 74, 0
2, 59427, Note_on_c, 0, 77, 49
2, 59459, Note_on_c, 0, 77, 0
2, 59501, Note_on_c, 0, 80, 59
2, 59517, Note_on_c, 0, 80, 0
2, 59575, Note_on_c, 0, 82, 59
2, 59602, Note_on_c, 0, 82, 0
2, 59621, Note_on_c, 0, 67, 37
2, 59628, Note_on_c, 0, 74, 66
2, 59629, Note_on_c, 0, 63, 23
2, 59630, Note_on_c, 0, 86, 76
2, 59632, Note_on_c, 0, 67, 0
2, 59633, Note_on_c, 0, 85, 34
2, 59639, Note_on_c, 0, 62, 19
2, 59648, Note_on_c, 0, 63, 0
2, 59649, Note_on_c, 0, 74, 0
2, 59650, Note_on_c, 0, 86, 0
2, 59652, Note_on_c, 0, 85, 0
2, 59652, Note_on_c, 0, 62, 0
2, 59680, Note_on_c, 0, 89, 77
2, 59683, Note_on_c, 0, 77, 66
2, 59718, Note_on_c, 0, 89, 0
2, 59724, Note_on_c, 0, 77, 0
2, 59747, Note_on_c, 0, 87, 74
2, 59758, Note_on_c, 0, 63, 23
2, 59790, Note_on_c, 0, 63, 0
2, 59793, Note_on_c, 0, 87, 0
2, 59809, Note_on_c, 0, 86, 64
2, 59853, Note_on_c, 0, 86, 0
2, 59887, Note_on_c, 0, 84, 57
2, 59952, Note_on_c, 0, 84, 0
2, 59974, Note_on_c, 0, 61, 48
2, 59976, Note_on_c, 0, 89, 84
2, 59976, Note_on_c, 0, 51, 36
2, 59979, Note_on_c, 0, 54, 47
2, 59986, Note_on_c, 0, 58, 34
2, 60072, Note_on_c, 0, 89, 0
2, 60082, Note_on_c, 0, 61, 0
2, 60089, Note_on_c, 0, 89, 71
2, 60090, Note_on_c, 0, 87, 65
2, 60109, Note_on_c, 0, 51, 0
2, 60124, Note_on_c, 0, 89, 0
2, 60135, Note_on_c, 0, 87, 0
2, 60143, Note_on_c, 0, 54, 0
2, 60152, Note_on_c, 0, 85, 70
2, 60153, Note_on_c, 0, 89, 50
2, 60163, Note_on_c, 0, 58, 0
2, 60187, Note_on_c, 0, 89, 0
2, 60199, Note_on_c, 0, 85, 0
2, 60210, Note_on_c, 0, 61, 25
2, 60213, Note_on_c, 0, 54, 26
2, 60215, Note_on_c, 0, 89, 38
2, 60216, Note_on_c, 0, 58, 29
2, 60219, Note_on_c, 0, 61, 0
2, 60219, Note_on_c, 0, 84, 64
2, 60246, Note_on_c, 0, 58, 0
2, 60248, Note_on_c, 0, 89, 0
2, 60252, Note_on_c, 0, 54, 0
2, 60255, Note_on_c, 0, 84, 0
2, 60279, Note_on_c, 0, 82, 45
2, 60285, Note_on_c, 0, 89, 32
2, 60312, Note_on_c, 0, 89, 0
2, 60323, Note_on_c, 0, 61, 43
2, 60324, Note_on_c, 0, 82, 0
2, 60326, Note_on_c, 0, 54, 31
2, 60332, Note_on_c, 0, 51, 21
2, 60336, Note_on_c, 0, 61, 0
2, 60352, Note_on_c, 0, 51, 0
2, 60371, Note_on_c, 0, 54, 0
2, 60371, Note_on_c, 0, 77, 27
2, 60439, Note_on_c, 0, 77, 0
2, 60600, Note_on_c, 0, 85, 68
2, 60601, Note_on_c, 0, 73, 63
2, 60617, Note_on_c, 0, 86, 74
2, 60620, Note_on_c, 0, 73, 0
2, 60620, Note_on_c, 0, 74, 70
2, 60621, Note_on_c, 0, 85, 0
2, 60627, Note_on_c, 0, 84, 42
2, 60670, Note_on_c, 0, 86, 0
2, 60671, Note_on_c, 0, 74, 0
2, 60674, Note_on_c, 0, 84, 0
2, 60686, Note_on_c, 0, 62, 24
2, 60691, Note_on_c, 0, 86, 66
2, 60694, Note_on_c, 0, 74, 60
2, 60714, Note_on_c, 0, 62, 0
2, 60737, Note_on_c, 0, 86, 0
2, 60746, Note_on_c, 0, 74, 0
2, 60776, Note_on_c, 0, 86, 75
2, 60777, Note_on_c, 0, 74, 62
2, 60797, Note_on_c, 0, 65, 45
2, 60801, Note_on_c, 0, 62, 42
2, 60805, Note_on_c, 0, 60, 38
2, 60809, Note_on_c, 0, 65, 0
2, 60812, Note_on_c, 0, 74, 0
2, 60814, Note_on_c, 0, 86, 0
2, 60835, Note_on_c, 0, 62, 0
2, 60842, Note_on_c, 0, 60, 0
2, 60848, Note_on_c, 0, 85, 61
2, 60851, Note_on_c, 0, 73, 42
2, 60877, Note_on_c, 0, 85, 0
2, 60879, Note_on_c, 0, 86, 53
2, 60880, Note_on_c, 0, 73, 0
2, 60883, Note_on_c, 0, 74, 62
2, 60884, Note_on_c, 0, 84, 33
2, 60904, Note_on_c, 0, 86, 0
2, 60913, Note_on_c, 0, 84, 0
2, 60914, Note_on_c, 0, 74, 0
2, 60932, Note_on_c, 0, 86, 74
2, 60932, Note_on_c, 0, 74, 68
2, 60937, Note_on_c, 0, 62, 36
2, 60940, Note_on_c, 0, 58, 35
2, 60942, Note_on_c, 0, 57, 34
2, 60950, Note_on_c, 0, 62, 0
2, 60958, Note_on_c, 0, 58, 0
2, 60974, Note_on_c, 0, 86, 0
2, 60976, Note_on_c, 0, 57, 0
2, 60978, Note_on_c, 0, 74, 0
2, 61003, Note_on_c, 0, 86, 69
2, 61008, Note_on_c, 0, 74, 47
2, 61045, Note_on_c, 0, 86, 0
2, 61053, Note_on_c, 0, 74, 0
2, 61066, Note_on_c, 0, 57, 22
2, 61078, Note_on_c, 0, 84, 49
2, 61082, Note_on_c, 0, 57, 0
2, 61087, Note_on_c, 0, 72, 48
2, 61115, Note_on_c, 0, 84, 0
2, 61138, Note_on_c, 0, 72, 0
2, 61163, Note_on_c, 0, 81, 53
2, 61163, Note_on_c, 0, 53, 28
2, 61165, Note_on_c, 0, 57, 38
2, 61165, Note_on_c, 0, 58, 32
2, 61166, Note_on_c, 0, 62, 32
2, 61171, Note_on_c, 0, 69, 58
2, 61325, Note_on_c, 0, 57, 0
2, 61328, Note_on_c, 0, 62, 0
2, 61332, Note_on_c, 0, 58, 0
2, 61342, Note_on_c, 0, 53, 0
2, 61384, Note_on_c, 0, 69, 0
2, 61389, Note_on_c, 0, 81, 0
2, 61405, Note_on_c, 0, 69, 36
2, 61407, Note_on_c, 0, 57, 51
2, 61408, Note_on_c, 0, 81, 19
2, 61409, Note_on_c, 0, 62, 45
2, 61410, Note_on_c, 0, 58, 29
2, 61420, Note_on_c, 0, 62, 0
2, 61423, Note_on_c, 0, 69, 0
2, 61425, Note_on_c, 0, 58, 0
2, 61427, Note_on_c, 0, 81, 0
2, 61430, Note_on_c, 0, 57, 0
2, 61454, Note_on_c, 0, 82, 67
2, 61455, Note_on_c, 0, 70, 56
2, 61500, Note_on_c, 0, 70, 0
2, 61500, Note_on_c, 0, 82, 0
2, 61529, Note_on_c, 0, 82, 59
2, 61531, Note_on_c, 0, 70, 54
2, 61552, Note_on_c, 0, 70, 0
2, 61589, Note_on_c, 0, 70, 13
2, 61628, Note_on_c, 0, 70, 0
2, 61628, Note_on_c, 0, 82, 0
2, 61658, Note_on_c, 0, 58, 20
2, 61658, Note_on_c, 0, 82, 39
2, 61662, Note_on_c, 0, 70, 37
2, 61676, Note_on_c, 0, 58, 0
2, 61680, Note_on_c, 0, 70, 0
2, 61680, Note_on_c, 0, 82, 0
2, 61698, Note_on_c, 0, 82, 37
2, 61706, Note_on_c, 0, 70, 33
2, 61775, Note_on_c, 0, 70, 0
2, 61792, Note_on_c, 0, 82, 0
2, 61811, Note_on_c, 0, 79, 39
2, 61924, Note_on_c, 0, 82, 51
2, 61926, Note_on_c, 0, 62, 36
2, 61930, Note_on_c, 0, 70, 42
2, 61933, Note_on_c, 0, 58, 25
2, 61936, Note_on_c, 0, 52, 18
2, 61940, Note_on_c, 0, 62, 0
2, 61953, Note_on_c, 0, 52, 0
2, 61956, Note_on_c, 0, 58, 0
2, 62020, Note_on_c, 0, 70, 0
2, 62034, Note_on_c, 0, 82, 0
2, 62043, Note_on_c, 0, 79, 41
2, 62116, Note_on_c, 0, 79, 0
2, 62149, Note_on_c, 0, 58, 28
2, 62158, Note_on_c, 0, 58, 0
2, 62162, Note_on_c, 0, 82, 67
2, 62165, Note_on_c, 0, 70, 54
2, 62255, Note_on_c, 0, 70, 0
2, 62270, Note_on_c, 0, 82, 0
2, 62370, Note_on_c, 0, 79, 0
2, 62411, Note_on_c, 0, 82, 67
2, 62414, Note_on_c, 0, 70, 60
2, 62502, Note_on_c, 0, 70, 0
2, 62514, Note_on_c, 0, 82, 0
2, 62525, Note_on_c, 0, 65, 36
2, 62525, Note_on_c, 0, 78, 37
2, 62526, Note_on_c, 0, 61, 35
2, 62528, Note_on_c, 0, 58, 37
2, 62531, Note_on_c, 0, 54, 23
2, 62532, Note_on_c, 0, 70, 18
2, 62553, Note_on_c, 0, 70, 0
2, 62612, Note_on_c, 0, 78, 0
2, 62619, Note_on_c, 0, 65, 0
2, 62620, Note_on_c, 0, 75, 26
2, 62625, Note_on_c, 0, 61, 0
2, 62627, Note_on_c, 0, 54, 0
2, 62632, Note_on_c, 0, 58, 0
2, 62639, Note_on_c, 0, 75, 0
2, 62657, Note_on_c, 0, 82, 65
2, 62660, Note_on_c, 0, 70, 50
2, 62718, Note_on_c, 0, 70, 0
2, 62729, Note_on_c, 0, 82, 0
2, 62744, Note_on_c, 0, 70, 29
2, 62745, Note_on_c, 0, 65, 35
2, 62745, Note_on_c, 0, 78, 35
2, 62747, Note_on_c, 0, 61, 39
2, 62752, Note_on_c, 0, 58, 32
2, 62755, Note_on_c, 0, 70, 0
2, 62758, Note_on_c, 0, 65, 0
2, 62768, Note_on_c, 0, 78, 0
2, 62770, Note_on_c, 0, 61, 0
2, 62782, Note_on_c, 0, 58, 0
2, 62854, Note_on_c, 0, 61, 55
2, 62856, Note_on_c, 0, 58, 50
2, 62857, Note_on_c, 0, 54, 40
2, 62857, Note_on_c, 0, 65, 52
2, 62858, Note_on_c, 0, 89, 73
2, 62860, Note_on_c, 0, 77, 60
2, 62989, Note_on_c, 0, 89, 0
2, 63013, Note_on_c, 0, 77, 0
2, 63015, Note_on_c, 0, 87, 67
2, 63019, Note_on_c, 0, 65, 0
2, 63019, Control_c, 0, 64, 127
2, 63043, Note_on_c, 0, 61, 0
2, 63051, Note_on_c, 0, 58, 0
2, 63061, Note_on_c, 0, 54, 0
2, 63088, Note_on_c, 0, 87, 0
2, 63089, Control_c, 0, 64, 0
2, 63094, Note_on_c, 0, 82, 25
2, 63098, Note_on_c, 0, 61, 25
2, 63107, Note_on_c, 0, 61, 0
2, 63109, Note_on_c, 0, 82, 0
2, 63130, Note_on_c, 0, 61, 37
2, 63131, Control_c, 0, 64, 127
2, 63131, Note_on_c, 0, 65, 57
2, 63132, Note_on_c, 0, 89, 74
2, 63132, Note_on_c, 0, 54, 44
2, 63132, Note_on_c, 0, 77, 68
2, 63136, Note_on_c, 0, 58, 40
2, 63174, Note_on_c, 0, 65, 0
2, 63186, Note_on_c, 0, 54, 0
2, 63188, Note_on_c, 0, 61, 0
2, 63191, Note_on_c, 0, 89, 0
2, 63191, Note_on_c, 0, 58, 0
2, 63202, Note_on_c, 0, 77, 0
2, 63214, Note_on_c, 0, 54, 33
2, 63215, Note_on_c, 0, 61, 32
2, 63216, Note_on_c, 0, 65, 27
2, 63217, Note_on_c, 0, 87, 64
2, 63221, Note_on_c, 0, 58, 35
2, 63225, Control_c, 0, 64, 0
2, 63226, Note_on_c, 0, 65, 0
2, 63235, Note_on_c, 0, 61, 0
2, 63238, Note_on_c, 0, 54, 0
2, 63243, Note_on_c, 0, 58, 0
2, 63247, Note_on_c, 0, 87, 0
2, 63326, Note_on_c, 0, 94, 84
2, 63329, Note_on_c, 0, 82, 74
2, 63330, Note_on_c, 0, 58, 75
2, 63330, Note_on_c, 0, 57, 75
2, 63330, Note_on_c, 0, 62, 85
2, 63334, Note_on_c, 0, 53, 68
2, 63374, Control_c, 0, 64, 127
2, 63410, Note_on_c, 0, 94, 0
2, 63427, Note_on_c, 0, 58, 0
2, 63439, Note_on_c, 0, 57, 0
2, 63451, Note_on_c, 0, 57, 22
2, 63452, Note_on_c, 0, 82, 0
2, 63457, Note_on_c, 0, 58, 48
2, 63462, Note_on_c, 0, 62, 0
2, 63462, Note_on_c, 0, 53, 0
2, 63468, Control_c, 0, 64, 0
2, 63473, Note_on_c, 0, 57, 0
2, 63483, Note_on_c, 0, 78, 51
2, 63483, Note_on_c, 0, 90, 45
2, 63486, Note_on_c, 0, 57, 25
2, 63489, Note_on_c, 0, 62, 65
2, 63490, Note_on_c, 0, 91, 66
2, 63521, Note_on_c, 0, 90, 0
2, 63533, Note_on_c, 0, 78, 0
2, 63548, Note_on_c, 0, 91, 0
2, 63555, Note_on_c, 0, 62, 0
2, 63555, Note_on_c, 0, 58, 0
2, 63560, Note_on_c, 0, 57, 0
2, 63604, Note_on_c, 0, 75, 53
2, 63605, Note_on_c, 0, 87, 50
2, 63610, Note_on_c, 0, 52, 39
2, 63613, Note_on_c, 0, 58, 25
2, 63619, Note_on_c, 0, 57, 17
2, 63626, Note_on_c, 0, 62, 17
2, 63632, Note_on_c, 0, 85, 18
2, 63666, Note_on_c, 0, 87, 0
2, 63668, Note_on_c, 0, 75, 0
2, 63670, Note_on_c, 0, 76, 30
2, 63672, Note_on_c, 0, 58, 0
2, 63678, Note_on_c, 0, 85, 0
2, 63679, Note_on_c, 0, 76, 0
2, 63680, Note_on_c, 0, 57, 0
2, 63682, Note_on_c, 0, 62, 0
2, 63698, Note_on_c, 0, 52, 0
2, 63724, Note_on_c, 0, 84, 28
2, 63726, Note_on_c, 0, 57, 37
2, 63726, Note_on_c, 0, 62, 38
2, 63727, Note_on_c, 0, 72, 30
2, 63733, Note_on_c, 0, 58, 29
2, 63755, Note_on_c, 0, 57, 0
2, 63756, Note_on_c, 0, 62, 0
2, 63759, Note_on_c, 0, 58, 0
2, 63776, Note_on_c, 0, 72, 0
2, 63776, Note_on_c, 0, 84, 0
2, 63843, Note_on_c, 0, 67, 56
2, 63844, Note_on_c, 0, 58, 35
2, 63845, Note_on_c, 0, 74, 55
2, 63845, Note_on_c, 0, 86, 62
2, 63845, Note_on_c, 0, 62, 55
2, 63847, Note_on_c, 0, 63, 39
2, 63851, Note_on_c, 0, 82, 28
2, 63930, Note_on_c, 0, 86, 0
2, 63932, Note_on_c, 0, 74, 0
2, 63936, Note_on_c, 0, 67, 0
2, 63939, Note_on_c, 0, 63, 0
2, 63944, Note_on_c, 0, 62, 0
2, 63945, Control_c, 0, 64, 127
2, 63947, Note_on_c, 0, 82, 0
2, 63963, Note_on_c, 0, 67, 42
2, 63964, Note_on_c, 0, 84, 45
2, 63965, Note_on_c, 0, 63, 27
2, 63968, Note_on_c, 0, 62, 17
2, 63982, Note_on_c, 0, 67, 0
2, 63988, Note_on_c, 0, 62, 0
2, 63990, Note_on_c, 0, 84, 0
2, 63993, Note_on_c, 0, 63, 0
2, 64012, Note_on_c, 0, 58, 0
2, 64046, Note_on_c, 0, 86, 74
2, 64047, Note_on_c, 0, 74, 63
2, 64047, Note_on_c, 0, 63, 60
2, 64049, Note_on_c, 0, 67, 62
2, 64049, Note_on_c, 0, 82, 40
2, 64050, Note_on_c, 0, 57, 58
2, 64056, Control_c, 0, 64, 0
2, 64065, Note_on_c, 0, 67, 0
2, 64065, Note_on_c, 0, 74, 0
2, 64068, Note_on_c, 0, 57, 0
2, 64073, Note_on_c, 0, 82, 0
2, 64076, Note_on_c, 0, 86, 0
2, 64079, Note_on_c, 0, 63, 0
2, 64113, Note_on_c, 0, 89, 70
2, 64116, Note_on_c, 0, 63, 49
2, 64116, Note_on_c, 0, 57, 57
2, 64119, Note_on_c, 0, 67, 46
2, 64120, Note_on_c, 0, 77, 35
2, 64124, Control_c, 0, 64, 127
2, 64141, Note_on_c, 0, 67, 0
2, 64141, Note_on_c, 0, 89, 0
2, 64148, Note_on_c, 0, 77, 0
2, 64151, Note_on_c, 0, 57, 0
2, 64160, Note_on_c, 0, 63, 0
2, 64173, Control_c, 0, 64, 0
2, 64200, Note_on_c, 0, 86, 68
2, 64202, Note_on_c, 0, 74, 55
2, 64204, Note_on_c, 0, 63, 53
2, 64204, Note_on_c, 0, 82, 43
2, 64209, Note_on_c, 0, 67, 44
2, 64209, Note_on_c, 0, 57, 50
2, 64217, Control_c, 0, 64, 127
2, 64221, Note_on_c, 0, 67, 0
2, 64235, Note_on_c, 0, 57, 0
2, 64239, Note_on_c, 0, 83, 36
2, 64248, Note_on_c, 0, 74, 0
2, 64250, Note_on_c, 0, 86, 0
2, 64252, Note_on_c, 0, 63, 0
2, 64253, Note_on_c, 0, 82, 0
2, 64253, Note_on_c, 0, 83, 0
2, 64290, Control_c, 0, 64, 0
2, 64293, Note_on_c, 0, 80, 62
2, 64293, Note_on_c, 0, 72, 62
2, 64294, Note_on_c, 0, 60, 58
2, 64294, Note_on_c, 0, 62, 50
2, 64296, Note_on_c, 0, 84, 66
2, 64298, Note_on_c, 0, 55, 60
2, 64298, Note_on_c, 0, 65, 51
2, 64317, Note_on_c, 0, 81, 33
2, 64340, Control_c, 0, 64, 127
2, 64342, Note_on_c, 0, 80, 0
2, 64386, Note_on_c, 0, 84, 0
2, 64405, Note_on_c, 0, 81, 0
2, 64407, Note_on_c, 0, 55, 0
2, 64409, Note_on_c, 0, 72, 0
2, 64409, Note_on_c, 0, 65, 0
2, 64417, Note_on_c, 0, 60, 0
2, 64421, Note_on_c, 0, 62, 0
2, 64448, Control_c, 0, 64, 0
2, 64450, Note_on_c, 0, 82, 43
2, 64453, Note_on_c, 0, 65, 31
2, 64454, Note_on_c, 0, 62, 33
2, 64455, Note_on_c, 0, 60, 38
2, 64456, Note_on_c, 0, 55, 32
2, 64459, Note_on_c, 0, 70, 48
2, 64519, Note_on_c, 0, 55, 0
2, 64519, Note_on_c, 0, 60, 0
2, 64519, Note_on_c, 0, 65, 0
2, 64525, Note_on_c, 0, 62, 0
2, 64526, Note_on_c, 0, 70, 0
2, 64530, Note_on_c, 0, 82, 0
2, 64572, Note_on_c, 0, 82, 52
2, 64573, Note_on_c, 0, 65, 32
2, 64576, Note_on_c, 0, 70, 47
2, 64577, Note_on_c, 0, 62, 30
2, 64580, Note_on_c, 0, 55, 24
2, 64583, Note_on_c, 0, 65, 0
2, 64584, Control_c, 0, 64, 127
2, 64588, Note_on_c, 0, 62, 0
2, 64599, Note_on_c, 0, 55, 0
2, 64659, Note_on_c, 0, 82, 0
2, 64660, Note_on_c, 0, 70, 0
2, 64792, Note_on_c, 0, 34, 77
2, 64793, Note_on_c, 0, 46, 74
2, 64824, Control_c, 0, 64, 0
2, 65184, Note_on_c, 0, 46, 0
2, 65192, Note_on_c, 0, 34, 0
2, 65192, End_track
3, 0, Start_track
3, 0, Program_c, 1, 35
3, 0, Control_c, 1, 7, 93
3, 0, Control_c, 1, 10, 64
3, 0, Control_c, 1, 11, 127
3, 3, Note_on_c, 1, 34, 103
3, 67, Pitch_bend_c, 1, 8192
3, 79, Pitch_bend_c, 1, 8256
3, 85, Pitch_bend_c, 1, 8320
3, 89, Pitch_bend_c, 1, 8416
3, 93, Pitch_bend_c, 1, 8512
3, 97, Pitch_bend_c, 1, 8640
3, 99, Pitch_bend_c, 1, 8736
3, 101, Pitch_bend_c, 1, 8896
3, 103, Pitch_bend_c, 1, 9056
3, 105, Pitch_bend_c, 1, 9184
3, 107, Pitch_bend_c, 1, 9312
3, 109, Pitch_bend_c, 1, 9408
3, 111, Pitch_bend_c, 1, 9472
3, 113, Pitch_bend_c, 1, 9536
3, 121, Pitch_bend_c, 1, 9408
3, 123, Pitch_bend_c, 1, 9152
3, 125, Pitch_bend_c, 1, 8896
3, 127, Pitch_bend_c, 1, 8768
3, 129, Pitch_bend_c, 1, 8640
3, 131, Pitch_bend_c, 1, 8544
3, 133, Pitch_bend_c, 1, 8480
3, 135, Pitch_bend_c, 1, 8416
3, 139, Pitch_bend_c, 1, 8352
3, 141, Pitch_bend_c, 1, 8288
3, 147, Pitch_bend_c, 1, 8192
3, 168, Control_c, 1, 1, 2
3, 183, Control_c, 1, 1, 7
3, 198, Control_c, 1, 1, 17
3, 213, Control_c, 1, 1, 25
3, 243, Control_c, 1, 1, 14
3, 318, Control_c, 1, 1, 33
3, 333, Control_c, 1, 1, 47
3, 378, Control_c, 1, 1, 19
3, 393, Control_c, 1, 1, 2
3, 408, Control_c, 1, 1, 0
3, 435, Note_on_c, 1, 34, 0
3, 435, Note_on_c, 1, 41, 103
3, 529, Pitch_bend_c, 1, 8256
3, 535, Pitch_bend_c, 1, 8320
3, 541, Pitch_bend_c, 1, 8384
3, 545, Pitch_bend_c, 1, 8448
3, 547, Pitch_bend_c, 1, 8512
3, 549, Pitch_bend_c, 1, 8576
3, 551, Pitch_bend_c, 1, 8672
3, 553, Pitch_bend_c, 1, 8736
3, 555, Pitch_bend_c, 1, 8832
3, 559, Pitch_bend_c, 1, 8928
3, 563, Pitch_bend_c, 1, 8992
3, 575, Pitch_bend_c, 1, 8832
3, 577, Pitch_bend_c, 1, 8672
3, 579, Pitch_bend_c, 1, 8576
3, 583, Pitch_bend_c, 1, 8480
3, 585, Pitch_bend_c, 1, 8416
3, 587, Pitch_bend_c, 1, 8352
3, 593, Pitch_bend_c, 1, 8288
3, 597, Pitch_bend_c, 1, 8192
3, 645, Control_c, 1, 1, 7
3, 660, Control_c, 1, 1, 15
3, 675, Control_c, 1, 1, 23
3, 720, Control_c, 1, 1, 14
3, 795, Control_c, 1, 1, 27
3, 810, Control_c, 1, 1, 37
3, 825, Control_c, 1, 1, 49
3, 870, Control_c, 1, 1, 44
3, 885, Control_c, 1, 1, 8
3, 900, Control_c, 1, 1, 1
3, 915, Control_c, 1, 1, 0
3, 942, Note_on_c, 1, 41, 0
3, 942, Note_on_c, 1, 37, 110
3, 971, Note_on_c, 1, 37, 0
3, 971, Note_on_c, 1, 48, 103
3, 1033, Pitch_bend_c, 1, 8256
3, 1035, Pitch_bend_c, 1, 8320
3, 1037, Pitch_bend_c, 1, 8384
3, 1039, Pitch_bend_c, 1, 8448
3, 1041, Pitch_bend_c, 1, 8608
3, 1043, Pitch_bend_c, 1, 8768
3, 1045, Pitch_bend_c, 1, 8992
3, 1047, Pitch_bend_c, 1, 9152
3, 1049, Pitch_bend_c, 1, 9312
3, 1051, Pitch_bend_c, 1, 9376
3, 1055, Pitch_bend_c, 1, 9312
3, 1057, Pitch_bend_c, 1, 9184
3, 1059, Pitch_bend_c, 1, 9120
3, 1061, Pitch_bend_c, 1, 8928
3, 1063, Pitch_bend_c, 1, 8832
3, 1065, Pitch_bend_c, 1, 8672
3, 1067, Pitch_bend_c, 1, 8544
3, 1069, Pitch_bend_c, 1, 8448
3, 1071, Pitch_bend_c, 1, 8320
3, 1073, Pitch_bend_c, 1, 8192
3, 1091, Control_c, 1, 1, 9
3, 1106, Control_c, 1, 1, 36
3, 1136, Control_c, 1, 1, 6
3, 1151, Control_c, 1, 1, 0
3, 1154, Note_on_c, 1, 48, 0
3, 1154, Note_on_c, 1, 42, 103
3, 1208, Note_on_c, 1, 42, 0
3, 1208, Note_on_c, 1, 43, 103
3, 1283, Note_on_c, 1, 43, 0
3, 1283, Note_on_c, 1, 35, 103
3, 1336, Note_on_c, 1, 35, 0
3, 1336, Note_on_c, 1, 36, 103
3, 1438, Pitch_bend_c, 1, 8256
3, 1442, Pitch_bend_c, 1, 8320
3, 1448, Pitch_bend_c, 1, 8416
3, 1450, Pitch_bend_c, 1, 8480
3, 1452, Pitch_bend_c, 1, 8544
3, 1454, Pitch_bend_c, 1, 8640
3, 1456, Pitch_bend_c, 1, 8704
3, 1458, Pitch_bend_c, 1, 8800
3, 1462, Pitch_bend_c, 1, 8896
3, 1464, Pitch_bend_c, 1, 8960
3, 1474, Pitch_bend_c, 1, 8864
3, 1478, Pitch_bend_c, 1, 8800
3, 1480, Pitch_bend_c, 1, 8736
3, 1482, Pitch_bend_c, 1, 8672
3, 1484, Pitch_bend_c, 1, 8608
3, 1488, Pitch_bend_c, 1, 8512
3, 1490, Pitch_bend_c, 1, 8448
3, 1494, Pitch_bend_c, 1, 8352
3, 1498, Pitch_bend_c, 1, 8256
3, 1500, Pitch_bend_c, 1, 8192
3, 1531, Control_c, 1, 1, 11
3, 1546, Control_c, 1, 1, 30
3, 1561, Control_c, 1, 1, 38
3, 1591, Control_c, 1, 1, 12
3, 1606, Control_c, 1, 1, 4
3, 1621, Control_c, 1, 1, 0
3, 1632, Note_on_c, 1, 36, 0
3, 1632, Note_on_c, 1, 34, 103
3, 1680, Note_on_c, 1, 34, 0
3, 1680, Note_on_c, 1, 48, 116
3, 1736, Note_on_c, 1, 48, 0
3, 1745, Note_on_c, 1, 34, 107
3, 1758, Note_on_c, 1, 34, 0
3, 1801, Note_on_c, 1, 46, 96
3, 1856, Note_on_c, 1, 46, 0
3, 1864, Note_on_c, 1, 47, 103
3, 1922, Note_on_c, 1, 47, 0
3, 1922, Note_on_c, 1, 48, 103
3, 1984, Note_on_c, 1, 48, 0
3, 1984, Note_on_c, 1, 48, 103
3, 2044, Note_on_c, 1, 48, 0
3, 2044, Note_on_c, 1, 43, 103
3, 2106, Pitch_bend_c, 1, 8288
3, 2110, Pitch_bend_c, 1, 8416
3, 2112, Pitch_bend_c, 1, 8480
3, 2114, Pitch_bend_c, 1, 8640
3, 2116, Pitch_bend_c, 1, 8832
3, 2118, Pitch_bend_c, 1, 9088
3, 2120, Pitch_bend_c, 1, 9248
3, 2122, Pitch_bend_c, 1, 9408
3, 2130, Pitch_bend_c, 1, 9248
3, 2132, Pitch_bend_c, 1, 9152
3, 2134, Pitch_bend_c, 1, 8960
3, 2136, Pitch_bend_c, 1, 8832
3, 2138, Pitch_bend_c, 1, 8672
3, 2140, Pitch_bend_c, 1, 8544
3, 2142, Pitch_bend_c, 1, 8416
3, 2144, Pitch_bend_c, 1, 8320
3, 2146, Pitch_bend_c, 1, 8192
3, 2164, Control_c, 1, 1, 17
3, 2179, Control_c, 1, 1, 58
3, 2209, Control_c, 1, 1, 7
3, 2224, Control_c, 1, 1, 0
3, 2226, Note_on_c, 1, 43, 0
3, 2226, Note_on_c, 1, 39, 103
3, 2284, Pitch_bend_c, 1, 8256
3, 2286, Pitch_bend_c, 1, 8320
3, 2290, Pitch_bend_c, 1, 8448
3, 2292, Pitch_bend_c, 1, 8576
3, 2294, Pitch_bend_c, 1, 8736
3, 2296, Pitch_bend_c, 1, 8864
3, 2298, Pitch_bend_c, 1, 8960
3, 2304, Pitch_bend_c, 1, 8896
3, 2306, Pitch_bend_c, 1, 8832
3, 2308, Pitch_bend_c, 1, 8736
3, 2310, Pitch_bend_c, 1, 8640
3, 2312, Pitch_bend_c, 1, 8544
3, 2314, Pitch_bend_c, 1, 8416
3, 2316, Pitch_bend_c, 1, 8352
3, 2318, Pitch_bend_c, 1, 8256
3, 2320, Pitch_bend_c, 1, 8192
3, 2331, Control_c, 1, 1, 10
3, 2346, Control_c, 1, 1, 62
3, 2361, Control_c, 1, 1, 73
3, 2376, Control_c, 1, 1, 13
3, 2391, Control_c, 1, 1, 0
3, 2394, Note_on_c, 1, 39, 0
3, 2394, Note_on_c, 1, 42, 111
3, 2454, Note_on_c, 1, 42, 0
3, 2463, Note_on_c, 1, 39, 99
3, 2516, Note_on_c, 1, 39, 0
3, 2524, Note_on_c, 1, 41, 99
3, 2575, Note_on_c, 1, 41, 0
3, 2583, Note_on_c, 1, 29, 103
3, 2647, Note_on_c, 1, 29, 0
3, 2647, Note_on_c, 1, 29, 103
3, 2685, Pitch_bend_c, 1, 8256
3, 2687, Pitch_bend_c, 1, 8352
3, 2689, Pitch_bend_c, 1, 8416
3, 2691, Pitch_bend_c, 1, 8576
3, 2693, Pitch_bend_c, 1, 8960
3, 2695, Pitch_bend_c, 1, 9120
3, 2701, Pitch_bend_c, 1, 8896
3, 2703, Pitch_bend_c, 1, 8736
3, 2705, Pitch_bend_c, 1, 8544
3, 2707, Pitch_bend_c, 1, 8352
3, 2709, Pitch_bend_c, 1, 8256
3, 2711, Pitch_bend_c, 1, 8192
3, 2722, Control_c, 1, 1, 27
3, 2737, Control_c, 1, 1, 56
3, 2752, Control_c, 1, 1, 2
3, 2758, Note_on_c, 1, 29, 0
3, 2758, Control_c, 1, 1, 0
3, 2758, Note_on_c, 1, 29, 103
3, 2828, Pitch_bend_c, 1, 8256
3, 2830, Pitch_bend_c, 1, 8320
3, 2834, Pitch_bend_c, 1, 8416
3, 2836, Pitch_bend_c, 1, 8512
3, 2838, Pitch_bend_c, 1, 8640
3, 2840, Pitch_bend_c, 1, 8768
3, 2842, Pitch_bend_c, 1, 8864
3, 2844, Pitch_bend_c, 1, 8960
3, 2852, Pitch_bend_c, 1, 8832
3, 2856, Pitch_bend_c, 1, 8704
3, 2858, Pitch_bend_c, 1, 8608
3, 2860, Pitch_bend_c, 1, 8544
3, 2862, Pitch_bend_c, 1, 8448
3, 2864, Pitch_bend_c, 1, 8384
3, 2866, Pitch_bend_c, 1, 8320
3, 2868, Pitch_bend_c, 1, 8256
3, 2870, Pitch_bend_c, 1, 8192
3, 2878, Control_c, 1, 1, 5
3, 2893, Control_c, 1, 1, 35
3, 2908, Control_c, 1, 1, 72
3, 2938, Control_c, 1, 1, 11
3, 2953, Control_c, 1, 1, 0
3, 2958, Note_on_c, 1, 29, 0
3, 2958, Note_on_c, 1, 38, 103
3, 3052, Pitch_bend_c, 1, 8256
3, 3058, Pitch_bend_c, 1, 8320
3, 3060, Pitch_bend_c, 1, 8384
3, 3062, Pitch_bend_c, 1, 8448
3, 3066, Pitch_bend_c, 1, 8576
3, 3068, Pitch_bend_c, 1, 8672
3, 3070, Pitch_bend_c, 1, 8800
3, 3072, Pitch_bend_c, 1, 8960
3, 3074, Pitch_bend_c, 1, 9088
3, 3076, Pitch_bend_c, 1, 9184
3, 3078, Pitch_bend_c, 1, 9280
3, 3080, Pitch_bend_c, 1, 9376
3, 3088, Pitch_bend_c, 1, 9312
3, 3090, Pitch_bend_c, 1, 9216
3, 3092, Pitch_bend_c, 1, 9152
3, 3096, Pitch_bend_c, 1, 9024
3, 3098, Pitch_bend_c, 1, 8896
3, 3100, Pitch_bend_c, 1, 8832
3, 3102, Pitch_bend_c, 1, 8768
3, 3104, Pitch_bend_c, 1, 8640
3, 3106, Pitch_bend_c, 1, 8576
3, 3108, Pitch_bend_c, 1, 8480
3, 3110, Pitch_bend_c, 1, 8416
3, 3112, Pitch_bend_c, 1, 8352
3, 3114, Pitch_bend_c, 1, 8288
3, 3116, Pitch_bend_c, 1, 8192
3, 3138, Control_c, 1, 1, 7
3, 3153, Control_c, 1, 1, 33
3, 3168, Control_c, 1, 1, 43
3, 3198, Control_c, 1, 1, 22
3, 3213, Control_c, 1, 1, 7
3, 3228, Control_c, 1, 1, 1
3, 3241, Note_on_c, 1, 38, 0
3, 3241, Control_c, 1, 1, 0
3, 3241, Note_on_c, 1, 44, 103
3, 3305, Pitch_bend_c, 1, 8256
3, 3309, Pitch_bend_c, 1, 8352
3, 3311, Pitch_bend_c, 1, 8416
3, 3313, Pitch_bend_c, 1, 8512
3, 3315, Pitch_bend_c, 1, 8640
3, 3317, Pitch_bend_c, 1, 8832
3, 3319, Pitch_bend_c, 1, 8992
3, 3321, Pitch_bend_c, 1, 9120
3, 3323, Pitch_bend_c, 1, 9248
3, 3329, Pitch_bend_c, 1, 9184
3, 3331, Pitch_bend_c, 1, 9056
3, 3333, Pitch_bend_c, 1, 8992
3, 3335, Pitch_bend_c, 1, 8832
3, 3337, Pitch_bend_c, 1, 8736
3, 3339, Pitch_bend_c, 1, 8608
3, 3341, Pitch_bend_c, 1, 8480
3, 3343, Pitch_bend_c, 1, 8384
3, 3345, Pitch_bend_c, 1, 8288
3, 3347, Pitch_bend_c, 1, 8192
3, 3361, Control_c, 1, 1, 5
3, 3376, Control_c, 1, 1, 32
3, 3391, Control_c, 1, 1, 40
3, 3406, Control_c, 1, 1, 12
3, 3421, Control_c, 1, 1, 2
3, 3431, Note_on_c, 1, 44, 0
3, 3431, Control_c, 1, 1, 0
3, 3431, Note_on_c, 1, 43, 103
3, 3469, Pitch_bend_c, 1, 8288
3, 3473, Pitch_bend_c, 1, 8448
3, 3475, Pitch_bend_c, 1, 8640
3, 3477, Pitch_bend_c, 1, 9088
3, 3479, Pitch_bend_c, 1, 9312
3, 3481, Pitch_bend_c, 1, 9440
3, 3485, Pitch_bend_c, 1, 9184
3, 3487, Pitch_bend_c, 1, 8960
3, 3489, Pitch_bend_c, 1, 8800
3, 3491, Pitch_bend_c, 1, 8576
3, 3493, Pitch_bend_c, 1, 8320
3, 3495, Pitch_bend_c, 1, 8192
3, 3506, Control_c, 1, 1, 20
3, 3521, Control_c, 1, 1, 70
3, 3536, Control_c, 1, 1, 6
3, 3544, Note_on_c, 1, 43, 0
3, 3544, Control_c, 1, 1, 0
3, 3544, Note_on_c, 1, 38, 103
3, 3606, Note_on_c, 1, 38, 0
3, 3606, Note_on_c, 1, 34, 103
3, 3648, Pitch_bend_c, 1, 8352
3, 3650, Pitch_bend_c, 1, 8448
3, 3652, Pitch_bend_c, 1, 8608
3, 3654, Pitch_bend_c, 1, 8768
3, 3656, Pitch_bend_c, 1, 8928
3, 3660, Pitch_bend_c, 1, 8800
3, 3662, Pitch_bend_c, 1, 8736
3, 3664, Pitch_bend_c, 1, 8544
3, 3666, Pitch_bend_c, 1, 8416
3, 3668, Pitch_bend_c, 1, 8320
3, 3670, Pitch_bend_c, 1, 8192
3, 3681, Control_c, 1, 1, 14
3, 3696, Control_c, 1, 1, 50
3, 3711, Control_c, 1, 1, 5
3, 3720, Note_on_c, 1, 34, 0
3, 3720, Control_c, 1, 1, 0
3, 3720, Note_on_c, 1, 35, 103
3, 3764, Pitch_bend_c, 1, 8256
3, 3766, Pitch_bend_c, 1, 8320
3, 3768, Pitch_bend_c, 1, 8384
3, 3770, Pitch_bend_c, 1, 8544
3, 3772, Pitch_bend_c, 1, 8768
3, 3774, Pitch_bend_c, 1, 8960
3, 3776, Pitch_bend_c, 1, 9088
3, 3780, Pitch_bend_c, 1, 8992
3, 3782, Pitch_bend_c, 1, 8896
3, 3784, Pitch_bend_c, 1, 8736
3, 3786, Pitch_bend_c, 1, 8576
3, 3788, Pitch_bend_c, 1, 8448
3, 3790, Pitch_bend_c, 1, 8320
3, 3792, Pitch_bend_c, 1, 8192
3, 3810, Control_c, 1, 1, 49
3, 3825, Control_c, 1, 1, 62
3, 3840, Control_c, 1, 1, 4
3, 3849, Note_on_c, 1, 35, 0
3, 3849, Control_c, 1, 1, 0
3, 3849, Note_on_c, 1, 36, 103
3, 3929, Pitch_bend_c, 1, 8256
3, 3933, Pitch_bend_c, 1, 8352
3, 3935, Pitch_bend_c, 1, 8416
3, 3939, Pitch_bend_c, 1, 8576
3, 3941, Pitch_bend_c, 1, 8672
3, 3943, Pitch_bend_c, 1, 8832
3, 3945, Pitch_bend_c, 1, 8992
3, 3947, Pitch_bend_c, 1, 9088
3, 3949, Pitch_bend_c, 1, 9184
3, 3951, Pitch_bend_c, 1, 9248
3, 3959, Pitch_bend_c, 1, 9120
3, 3961, Pitch_bend_c, 1, 9056
3, 3963, Pitch_bend_c, 1, 8992
3, 3965, Pitch_bend_c, 1, 8864
3, 3967, Pitch_bend_c, 1, 8768
3, 3969, Pitch_bend_c, 1, 8672
3, 3971, Pitch_bend_c, 1, 8576
3, 3973, Pitch_bend_c, 1, 8480
3, 3975, Pitch_bend_c, 1, 8416
3, 3977, Pitch_bend_c, 1, 8320
3, 3979, Pitch_bend_c, 1, 8256
3, 3981, Pitch_bend_c, 1, 8192
3, 3999, Control_c, 1, 1, 10
3, 4014, Control_c, 1, 1, 49
3, 4029, Control_c, 1, 1, 64
3, 4044, Control_c, 1, 1, 57
3, 4059, Control_c, 1, 1, 11
3, 4074, Control_c, 1, 1, 2
3, 4084, Note_on_c, 1, 36, 0
3, 4084, Control_c, 1, 1, 0
3, 4084, Note_on_c, 1, 43, 103
3, 4126, Pitch_bend_c, 1, 8256
3, 4128, Pitch_bend_c, 1, 8352
3, 4130, Pitch_bend_c, 1, 8448
3, 4132, Pitch_bend_c, 1, 8608
3, 4134, Pitch_bend_c, 1, 8896
3, 4136, Pitch_bend_c, 1, 9184
3, 4142, Pitch_bend_c, 1, 8992
3, 4144, Pitch_bend_c, 1, 8832
3, 4146, Pitch_bend_c, 1, 8672
3, 4148, Pitch_bend_c, 1, 8512
3, 4150, Pitch_bend_c, 1, 8352
3, 4152, Pitch_bend_c, 1, 8256
3, 4154, Pitch_bend_c, 1, 8192
3, 4159, Control_c, 1, 1, 5
3, 4174, Control_c, 1, 1, 50
3, 4189, Control_c, 1, 1, 15
3, 4204, Control_c, 1, 1, 0
3, 4205, Note_on_c, 1, 43, 0
3, 4205, Note_on_c, 1, 51, 103
3, 4245, Pitch_bend_c, 1, 8256
3, 4247, Pitch_bend_c, 1, 8352
3, 4249, Pitch_bend_c, 1, 8448
3, 4251, Pitch_bend_c, 1, 8640
3, 4253, Pitch_bend_c, 1, 8928
3, 4255, Pitch_bend_c, 1, 9248
3, 4259, Pitch_bend_c, 1, 9184
3, 4261, Pitch_bend_c, 1, 9056
3, 4263, Pitch_bend_c, 1, 8800
3, 4265, Pitch_bend_c, 1, 8608
3, 4267, Pitch_bend_c, 1, 8448
3, 4269, Pitch_bend_c, 1, 8288
3, 4271, Pitch_bend_c, 1, 8192
3, 4280, Control_c, 1, 1, 12
3, 4295, Control_c, 1, 1, 60
3, 4310, Control_c, 1, 1, 9
3, 4321, Note_on_c, 1, 51, 0
3, 4321, Control_c, 1, 1, 0
3, 4321, Note_on_c, 1, 50, 103
3, 4385, Pitch_bend_c, 1, 8256
3, 4389, Pitch_bend_c, 1, 8320
3, 4391, Pitch_bend_c, 1, 8416
3, 4393, Pitch_bend_c, 1, 8480
3, 4395, Pitch_bend_c, 1, 8640
3, 4397, Pitch_bend_c, 1, 8800
3, 4399, Pitch_bend_c, 1, 9024
3, 4401, Pitch_bend_c, 1, 9248
3, 4403, Pitch_bend_c, 1, 9376
3, 4405, Pitch_bend_c, 1, 9504
3, 4411, Pitch_bend_c, 1, 9408
3, 4413, Pitch_bend_c, 1, 9280
3, 4415, Pitch_bend_c, 1, 9184
3, 4417, Pitch_bend_c, 1, 8992
3, 4419, Pitch_bend_c, 1, 8864
3, 4421, Pitch_bend_c, 1, 8704
3, 4423, Pitch_bend_c, 1, 8576
3, 4425, Pitch_bend_c, 1, 8448
3, 4427, Pitch_bend_c, 1, 8352
3, 4429, Pitch_bend_c, 1, 8256
3, 4431, Pitch_bend_c, 1, 8192
3, 4441, Control_c, 1, 1, 6
3, 4456, Control_c, 1, 1, 43
3, 4471, Control_c, 1, 1, 56
3, 4486, Control_c, 1, 1, 28
3, 4501, Control_c, 1, 1, 5
3, 4515, Note_on_c, 1, 50, 0
3, 4515, Control_c, 1, 1, 0
3, 4515, Note_on_c, 1, 38, 103
3, 4587, Pitch_bend_c, 1, 8256
3, 4591, Pitch_bend_c, 1, 8320
3, 4595, Pitch_bend_c, 1, 8416
3, 4597, Pitch_bend_c, 1, 8480
3, 4601, Pitch_bend_c, 1, 8576
3, 4603, Pitch_bend_c, 1, 8640
3, 4605, Pitch_bend_c, 1, 8768
3, 4607, Pitch_bend_c, 1, 8928
3, 4609, Pitch_bend_c, 1, 9120
3, 4611, Pitch_bend_c, 1, 9280
3, 4613, Pitch_bend_c, 1, 9408
3, 4615, Pitch_bend_c, 1, 9504
3, 4617, Pitch_bend_c, 1, 9568
3, 4619, Pitch_bend_c, 1, 9632
3, 4625, Pitch_bend_c, 1, 9568
3, 4627, Pitch_bend_c, 1, 9344
3, 4629, Pitch_bend_c, 1, 8992
3, 4631, Pitch_bend_c, 1, 8864
3, 4633, Pitch_bend_c, 1, 8704
3, 4635, Pitch_bend_c, 1, 8576
3, 4637, Pitch_bend_c, 1, 8480
3, 4639, Pitch_bend_c, 1, 8416
3, 4643, Pitch_bend_c, 1, 8352
3, 4645, Pitch_bend_c, 1, 8256
3, 4651, Pitch_bend_c, 1, 8192
3, 4680, Control_c, 1, 1, 9
3, 4695, Control_c, 1, 1, 22
3, 4710, Control_c, 1, 1, 35
3, 4740, Control_c, 1, 1, 24
3, 4755, Control_c, 1, 1, 15
3, 4800, Control_c, 1, 1, 33
3, 4815, Control_c, 1, 1, 54
3, 4830, Control_c, 1, 1, 72
3, 4875, Control_c, 1, 1, 12
3, 4890, Control_c, 1, 1, 2
3, 4905, Control_c, 1, 1, 0
3, 4921, Note_on_c, 1, 38, 0
3, 4921, Note_on_c, 1, 43, 103
3, 4985, Note_on_c, 1, 43, 0
3, 4985, Note_on_c, 1, 44, 103
3, 5043, Note_on_c, 1, 44, 0
3, 5043, Note_on_c, 1, 43, 103
3, 5127, Pitch_bend_c, 1, 8256
3, 5131, Pitch_bend_c, 1, 8320
3, 5135, Pitch_bend_c, 1, 8416
3, 5137, Pitch_bend_c, 1, 8480
3, 5139, Pitch_bend_c, 1, 8576
3, 5141, Pitch_bend_c, 1, 8704
3, 5143, Pitch_bend_c, 1, 8800
3, 5145, Pitch_bend_c, 1, 8896
3, 5147, Pitch_bend_c, 1, 8960
3, 5149, Pitch_bend_c, 1, 9024
3, 5157, Pitch_bend_c, 1, 8928
3, 5161, Pitch_bend_c, 1, 8832
3, 5163, Pitch_bend_c, 1, 8736
3, 5165, Pitch_bend_c, 1, 8672
3, 5167, Pitch_bend_c, 1, 8608
3, 5169, Pitch_bend_c, 1, 8544
3, 5171, Pitch_bend_c, 1, 8448
3, 5175, Pitch_bend_c, 1, 8320
3, 5179, Pitch_bend_c, 1, 8256
3, 5181, Pitch_bend_c, 1, 8192
3, 5208, Control_c, 1, 1, 18
3, 5223, Control_c, 1, 1, 36
3, 5253, Control_c, 1, 1, 15
3, 5268, Control_c, 1, 1, 3
3, 5283, Control_c, 1, 1, 0
3, 5288, Note_on_c, 1, 43, 0
3, 5288, Note_on_c, 1, 31, 103
3, 5352, Note_on_c, 1, 31, 0
3, 5352, Note_on_c, 1, 30, 103
3, 5405, Note_on_c, 1, 30, 0
3, 5405, Note_on_c, 1, 31, 103
3, 5505, Pitch_bend_c, 1, 8256
3, 5511, Pitch_bend_c, 1, 8352
3, 5513, Pitch_bend_c, 1, 8416
3, 5517, Pitch_bend_c, 1, 8512
3, 5519, Pitch_bend_c, 1, 8608
3, 5521, Pitch_bend_c, 1, 8704
3, 5523, Pitch_bend_c, 1, 8800
3, 5525, Pitch_bend_c, 1, 8960
3, 5527, Pitch_bend_c, 1, 9120
3, 5529, Pitch_bend_c, 1, 9216
3, 5531, Pitch_bend_c, 1, 9312
3, 5533, Pitch_bend_c, 1, 9408
3, 5535, Pitch_bend_c, 1, 9472
3, 5545, Pitch_bend_c, 1, 9312
3, 5547, Pitch_bend_c, 1, 9248
3, 5551, Pitch_bend_c, 1, 9120
3, 5553, Pitch_bend_c, 1, 8992
3, 5555, Pitch_bend_c, 1, 8928
3, 5557, Pitch_bend_c, 1, 8832
3, 5559, Pitch_bend_c, 1, 8736
3, 5561, Pitch_bend_c, 1, 8640
3, 5563, Pitch_bend_c, 1, 8544
3, 5565, Pitch_bend_c, 1, 8480
3, 5567, Pitch_bend_c, 1, 8384
3, 5569, Pitch_bend_c, 1, 8320
3, 5573, Pitch_bend_c, 1, 8192
3, 5600, Control_c, 1, 1, 12
3, 5615, Control_c, 1, 1, 38
3, 5630, Control_c, 1, 1, 49
3, 5660, Control_c, 1, 1, 25
3, 5675, Control_c, 1, 1, 8
3, 5690, Control_c, 1, 1, 2
3, 5705, Note_on_c, 1, 31, 0
3, 5705, Control_c, 1, 1, 0
3, 5705, Note_on_c, 1, 43, 103
3, 5767, Note_on_c, 1, 43, 0
3, 5767, Note_on_c, 1, 48, 103
3, 5842, Note_on_c, 1, 48, 0
3, 5842, Note_on_c, 1, 48, 103
3, 5918, Pitch_bend_c, 1, 8256
3, 5922, Pitch_bend_c, 1, 8320
3, 5924, Pitch_bend_c, 1, 8384
3, 5926, Pitch_bend_c, 1, 8448
3, 5928, Pitch_bend_c, 1, 8512
3, 5930, Pitch_bend_c, 1, 8640
3, 5932, Pitch_bend_c, 1, 8768
3, 5934, Pitch_bend_c, 1, 8960
3, 5936, Pitch_bend_c, 1, 9152
3, 5938, Pitch_bend_c, 1, 9280
3, 5940, Pitch_bend_c, 1, 9408
3, 5942, Pitch_bend_c, 1, 9472
3, 5948, Pitch_bend_c, 1, 9408
3, 5950, Pitch_bend_c, 1, 9280
3, 5952, Pitch_bend_c, 1, 9216
3, 5954, Pitch_bend_c, 1, 9088
3, 5956, Pitch_bend_c, 1, 8960
3, 5958, Pitch_bend_c, 1, 8864
3, 5960, Pitch_bend_c, 1, 8736
3, 5962, Pitch_bend_c, 1, 8608
3, 5964, Pitch_bend_c, 1, 8512
3, 5966, Pitch_bend_c, 1, 8416
3, 5968, Pitch_bend_c, 1, 8320
3, 5970, Pitch_bend_c, 1, 8256
3, 5972, Pitch_bend_c, 1, 8192
3, 5992, Control_c, 1, 1, 10
3, 6007, Control_c, 1, 1, 37
3, 6022, Control_c, 1, 1, 44
3, 6037, Control_c, 1, 1, 22
3, 6052, Control_c, 1, 1, 5
3, 6067, Control_c, 1, 1, 0
3, 6072, Note_on_c, 1, 48, 0
3, 6072, Note_on_c, 1, 37, 103
3, 6128, Note_on_c, 1, 37, 0
3, 6128, Note_on_c, 1, 36, 103
3, 6170, Pitch_bend_c, 1, 8256
3, 6172, Pitch_bend_c, 1, 8320
3, 6174, Pitch_bend_c, 1, 8384
3, 6176, Pitch_bend_c, 1, 8544
3, 6178, Pitch_bend_c, 1, 8768
3, 6180, Pitch_bend_c, 1, 9024
3, 6184, Pitch_bend_c, 1, 8960
3, 6186, Pitch_bend_c, 1, 8864
3, 6188, Pitch_bend_c, 1, 8704
3, 6190, Pitch_bend_c, 1, 8608
3, 6192, Pitch_bend_c, 1, 8448
3, 6194, Pitch_bend_c, 1, 8320
3, 6196, Pitch_bend_c, 1, 8256
3, 6198, Pitch_bend_c, 1, 8192
3, 6203, Control_c, 1, 1, 6
3, 6218, Control_c, 1, 1, 56
3, 6233, Control_c, 1, 1, 17
3, 6248, Control_c, 1, 1, 0
3, 6249, Note_on_c, 1, 36, 0
3, 6249, Note_on_c, 1, 51, 103
3, 6313, Pitch_bend_c, 1, 8288
3, 6317, Pitch_bend_c, 1, 8416
3, 6319, Pitch_bend_c, 1, 8480
3, 6321, Pitch_bend_c, 1, 8608
3, 6323, Pitch_bend_c, 1, 8736
3, 6325, Pitch_bend_c, 1, 8992
3, 6327, Pitch_bend_c, 1, 9184
3, 6329, Pitch_bend_c, 1, 9312
3, 6331, Pitch_bend_c, 1, 9440
3, 6337, Pitch_bend_c, 1, 9312
3, 6339, Pitch_bend_c, 1, 9216
3, 6341, Pitch_bend_c, 1, 9088
3, 6343, Pitch_bend_c, 1, 8928
3, 6345, Pitch_bend_c, 1, 8800
3, 6347, Pitch_bend_c, 1, 8640
3, 6349, Pitch_bend_c, 1, 8512
3, 6351, Pitch_bend_c, 1, 8384
3, 6353, Pitch_bend_c, 1, 8320
3, 6355, Pitch_bend_c, 1, 8192
3, 6369, Control_c, 1, 1, 11
3, 6384, Control_c, 1, 1, 61
3, 6399, Control_c, 1, 1, 71
3, 6414, Control_c, 1, 1, 21
3, 6429, Control_c, 1, 1, 3
3, 6438, Note_on_c, 1, 51, 0
3, 6438, Control_c, 1, 1, 0
3, 6438, Note_on_c, 1, 52, 103
3, 6480, Pitch_bend_c, 1, 8288
3, 6484, Pitch_bend_c, 1, 8448
3, 6486, Pitch_bend_c, 1, 8640
3, 6488, Pitch_bend_c, 1, 9088
3, 6490, Pitch_bend_c, 1, 9344
3, 6492, Pitch_bend_c, 1, 9472
3, 6496, Pitch_bend_c, 1, 9280
3, 6498, Pitch_bend_c, 1, 9152
3, 6500, Pitch_bend_c, 1, 8928
3, 6502, Pitch_bend_c, 1, 8704
3, 6504, Pitch_bend_c, 1, 8512
3, 6506, Pitch_bend_c, 1, 8320
3, 6508, Pitch_bend_c, 1, 8192
3, 6528, Control_c, 1, 1, 44
3, 6543, Control_c, 1, 1, 20
3, 6558, Control_c, 1, 1, 0
3, 6561, Note_on_c, 1, 52, 0
3, 6561, Note_on_c, 1, 36, 108
3, 6582, Note_on_c, 1, 36, 0
3, 6605, Note_on_c, 1, 48, 103
3, 6647, Pitch_bend_c, 1, 8256
3, 6649, Pitch_bend_c, 1, 8320
3, 6651, Pitch_bend_c, 1, 8416
3, 6653, Pitch_bend_c, 1, 8544
3, 6655, Pitch_bend_c, 1, 8800
3, 6657, Pitch_bend_c, 1, 9056
3, 6661, Pitch_bend_c, 1, 8992
3, 6663, Pitch_bend_c, 1, 8896
3, 6665, Pitch_bend_c, 1, 8736
3, 6667, Pitch_bend_c, 1, 8608
3, 6669, Pitch_bend_c, 1, 8448
3, 6671, Pitch_bend_c, 1, 8320
3, 6673, Pitch_bend_c, 1, 8256
3, 6675, Pitch_bend_c, 1, 8192
3, 6680, Control_c, 1, 1, 8
3, 6695, Control_c, 1, 1, 71
3, 6710, Control_c, 1, 1, 21
3, 6725, Control_c, 1, 1, 0
3, 6726, Note_on_c, 1, 48, 0
3, 6726, Note_on_c, 1, 51, 103
3, 6799, Note_on_c, 1, 35, 103
3, 7309, Note_on_c, 1, 35, 0
3, 7367, Note_on_c, 1, 51, 0
3, 7392, Note_on_c, 1, 51, 108
3, 7396, Note_on_c, 1, 51, 0
3, 7396, Note_on_c, 1, 35, 103
3, 7432, Pitch_bend_c, 1, 8256
3, 7436, Pitch_bend_c, 1, 8384
3, 7438, Pitch_bend_c, 1, 8544
3, 7440, Pitch_bend_c, 1, 8864
3, 7442, Pitch_bend_c, 1, 9024
3, 7446, Pitch_bend_c, 1, 8896
3, 7448, Pitch_bend_c, 1, 8800
3, 7450, Pitch_bend_c, 1, 8608
3, 7452, Pitch_bend_c, 1, 8448
3, 7454, Pitch_bend_c, 1, 8288
3, 7456, Pitch_bend_c, 1, 8192
3, 7471, Control_c, 1, 1, 37
3, 7486, Control_c, 1, 1, 23
3, 7501, Control_c, 1, 1, 0
3, 7502, Note_on_c, 1, 35, 0
3, 7502, Note_on_c, 1, 52, 103
3, 7560, Note_on_c, 1, 52, 0
3, 7560, Note_on_c, 1, 51, 110
3, 7567, Note_on_c, 1, 51, 0
3, 7567, Note_on_c, 1, 35, 103
3, 7609, Pitch_bend_c, 1, 8320
3, 7611, Pitch_bend_c, 1, 8384
3, 7613, Pitch_bend_c, 1, 8608
3, 7615, Pitch_bend_c, 1, 8800
3, 7617, Pitch_bend_c, 1, 8960
3, 7621, Pitch_bend_c, 1, 8832
3, 7623, Pitch_bend_c, 1, 8768
3, 7625, Pitch_bend_c, 1, 8608
3, 7627, Pitch_bend_c, 1, 8480
3, 7629, Pitch_bend_c, 1, 8320
3, 7631, Pitch_bend_c, 1, 8192
3, 7642, Control_c, 1, 1, 8
3, 7657, Control_c, 1, 1, 36
3, 7672, Control_c, 1, 1, 4
3, 7682, Note_on_c, 1, 35, 0
3, 7682, Control_c, 1, 1, 0
3, 7682, Note_on_c, 1, 34, 103
3, 7782, Pitch_bend_c, 1, 8256
3, 7790, Pitch_bend_c, 1, 8320
3, 7794, Pitch_bend_c, 1, 8384
3, 7800, Pitch_bend_c, 1, 8480
3, 7804, Pitch_bend_c, 1, 8576
3, 7806, Pitch_bend_c, 1, 8672
3, 7808, Pitch_bend_c, 1, 8736
3, 7810, Pitch_bend_c, 1, 8832
3, 7812, Pitch_bend_c, 1, 8896
3, 7816, Pitch_bend_c, 1, 8960
3, 7820, Pitch_bend_c, 1, 9024
3, 7822, Pitch_bend_c, 1, 9088
3, 7830, Pitch_bend_c, 1, 8992
3, 7832, Pitch_bend_c, 1, 8896
3, 7834, Pitch_bend_c, 1, 8736
3, 7836, Pitch_bend_c, 1, 8640
3, 7838, Pitch_bend_c, 1, 8576
3, 7840, Pitch_bend_c, 1, 8512
3, 7842, Pitch_bend_c, 1, 8448
3, 7844, Pitch_bend_c, 1, 8384
3, 7848, Pitch_bend_c, 1, 8320
3, 7854, Pitch_bend_c, 1, 8256
3, 7856, Pitch_bend_c, 1, 8192
3, 7892, Control_c, 1, 1, 5
3, 7907, Control_c, 1, 1, 10
3, 7922, Control_c, 1, 1, 26
3, 7937, Control_c, 1, 1, 40
3, 7952, Control_c, 1, 1, 46
3, 7982, Control_c, 1, 1, 28
3, 7997, Control_c, 1, 1, 20
3, 8057, Control_c, 1, 1, 31
3, 8072, Control_c, 1, 1, 51
3, 8087, Control_c, 1, 1, 73
3, 8102, Control_c, 1, 1, 84
3, 8132, Control_c, 1, 1, 89
3, 8147, Control_c, 1, 1, 75
3, 8162, Control_c, 1, 1, 25
3, 8177, Control_c, 1, 1, 4
3, 8192, Control_c, 1, 1, 0
3, 8226, Note_on_c, 1, 34, 0
3, 8226, Note_on_c, 1, 41, 103
3, 8304, Pitch_bend_c, 1, 8256
3, 8308, Pitch_bend_c, 1, 8320
3, 8310, Pitch_bend_c, 1, 8384
3, 8314, Pitch_bend_c, 1, 8480
3, 8316, Pitch_bend_c, 1, 8608
3, 8318, Pitch_bend_c, 1, 8736
3, 8320, Pitch_bend_c, 1, 8896
3, 8322, Pitch_bend_c, 1, 9024
3, 8324, Pitch_bend_c, 1, 9120
3, 8326, Pitch_bend_c, 1, 9248
3, 8334, Pitch_bend_c, 1, 9184
3, 8336, Pitch_bend_c, 1, 9088
3, 8338, Pitch_bend_c, 1, 9024
3, 8340, Pitch_bend_c, 1, 8896
3, 8342, Pitch_bend_c, 1, 8800
3, 8344, Pitch_bend_c, 1, 8736
3, 8346, Pitch_bend_c, 1, 8608
3, 8348, Pitch_bend_c, 1, 8512
3, 8350, Pitch_bend_c, 1, 8448
3, 8352, Pitch_bend_c, 1, 8352
3, 8354, Pitch_bend_c, 1, 8288
3, 8356, Pitch_bend_c, 1, 8192
3, 8376, Control_c, 1, 1, 7
3, 8391, Control_c, 1, 1, 29
3, 8406, Control_c, 1, 1, 36
3, 8421, Control_c, 1, 1, 20
3, 8436, Control_c, 1, 1, 5
3, 8451, Control_c, 1, 1, 0
3, 8459, Note_on_c, 1, 41, 0
3, 8474, Note_on_c, 1, 53, 103
3, 8518, Pitch_bend_c, 1, 8256
3, 8522, Pitch_bend_c, 1, 8384
3, 8524, Pitch_bend_c, 1, 8512
3, 8526, Pitch_bend_c, 1, 8704
3, 8528, Pitch_bend_c, 1, 8928
3, 8530, Pitch_bend_c, 1, 9088
3, 8536, Pitch_bend_c, 1, 8960
3, 8538, Pitch_bend_c, 1, 8832
3, 8540, Pitch_bend_c, 1, 8672
3, 8542, Pitch_bend_c, 1, 8512
3, 8544, Pitch_bend_c, 1, 8384
3, 8546, Pitch_bend_c, 1, 8288
3, 8548, Pitch_bend_c, 1, 8192
3, 8564, Control_c, 1, 1, 34
3, 8579, Control_c, 1, 1, 55
3, 8594, Control_c, 1, 1, 5
3, 8605, Note_on_c, 1, 53, 0
3, 8605, Control_c, 1, 1, 0
3, 8605, Note_on_c, 1, 41, 110
3, 8626, Note_on_c, 1, 41, 0
3, 8652, Note_on_c, 1, 52, 103
3, 8722, Note_on_c, 1, 52, 0
3, 8722, Note_on_c, 1, 49, 103
3, 8779, Note_on_c, 1, 49, 0
3, 8779, Note_on_c, 1, 48, 103
3, 8839, Pitch_bend_c, 1, 8256
3, 8841, Pitch_bend_c, 1, 8320
3, 8845, Pitch_bend_c, 1, 8448
3, 8847, Pitch_bend_c, 1, 8544
3, 8849, Pitch_bend_c, 1, 8704
3, 8851, Pitch_bend_c, 1, 8832
3, 8853, Pitch_bend_c, 1, 8928
3, 8861, Pitch_bend_c, 1, 8832
3, 8863, Pitch_bend_c, 1, 8768
3, 8865, Pitch_bend_c, 1, 8640
3, 8867, Pitch_bend_c, 1, 8544
3, 8869, Pitch_bend_c, 1, 8448
3, 8871, Pitch_bend_c, 1, 8384
3, 8873, Pitch_bend_c, 1, 8288
3, 8875, Pitch_bend_c, 1, 8192
3, 8884, Control_c, 1, 1, 6
3, 8899, Control_c, 1, 1, 54
3, 8914, Control_c, 1, 1, 73
3, 8929, Control_c, 1, 1, 24
3, 8944, Control_c, 1, 1, 2
3, 8952, Note_on_c, 1, 48, 0
3, 8952, Control_c, 1, 1, 0
3, 8952, Note_on_c, 1, 37, 103
3, 9012, Note_on_c, 1, 37, 0
3, 9012, Note_on_c, 1, 36, 103
3, 9128, Pitch_bend_c, 1, 8256
3, 9136, Pitch_bend_c, 1, 8320
3, 9140, Pitch_bend_c, 1, 8384
3, 9144, Pitch_bend_c, 1, 8480
3, 9146, Pitch_bend_c, 1, 8544
3, 9148, Pitch_bend_c, 1, 8608
3, 9150, Pitch_bend_c, 1, 8704
3, 9152, Pitch_bend_c, 1, 8768
3, 9154, Pitch_bend_c, 1, 8832
3, 9156, Pitch_bend_c, 1, 8896
3, 9158, Pitch_bend_c, 1, 8960
3, 9160, Pitch_bend_c, 1, 9024
3, 9172, Pitch_bend_c, 1, 8928
3, 9176, Pitch_bend_c, 1, 8864
3, 9180, Pitch_bend_c, 1, 8768
3, 9182, Pitch_bend_c, 1, 8704
3, 9186, Pitch_bend_c, 1, 8608
3, 9188, Pitch_bend_c, 1, 8544
3, 9190, Pitch_bend_c, 1, 8480
3, 9194, Pitch_bend_c, 1, 8416
3, 9196, Pitch_bend_c, 1, 8352
3, 9200, Pitch_bend_c, 1, 8288
3, 9204, Pitch_bend_c, 1, 8192
3, 9222, Control_c, 1, 1, 6
3, 9237, Control_c, 1, 1, 14
3, 9252, Control_c, 1, 1, 47
3, 9267, Control_c, 1, 1, 60
3, 9297, Control_c, 1, 1, 55
3, 9312, Control_c, 1, 1, 18
3, 9327, Control_c, 1, 1, 6
3, 9356, Note_on_c, 1, 36, 0
3, 9356, Control_c, 1, 1, 0
3, 9358, Note_on_c, 1, 48, 117
3, 9415, Note_on_c, 1, 48, 0
3, 9427, Note_on_c, 1, 36, 100
3, 9442, Note_on_c, 1, 36, 0
3, 9480, Note_on_c, 1, 46, 95
3, 9531, Note_on_c, 1, 46, 0
3, 9542, Note_on_c, 1, 47, 103
3, 9599, Note_on_c, 1, 47, 0
3, 9599, Note_on_c, 1, 48, 103
3, 9639, Pitch_bend_c, 1, 8256
3, 9641, Pitch_bend_c, 1, 8384
3, 9643, Pitch_bend_c, 1, 8480
3, 9645, Pitch_bend_c, 1, 8832
3, 9647, Pitch_bend_c, 1, 9088
3, 9649, Pitch_bend_c, 1, 9312
3, 9653, Pitch_bend_c, 1, 9152
3, 9655, Pitch_bend_c, 1, 9024
3, 9657, Pitch_bend_c, 1, 8832
3, 9659, Pitch_bend_c, 1, 8640
3, 9661, Pitch_bend_c, 1, 8384
3, 9663, Pitch_bend_c, 1, 8256
3, 9665, Pitch_bend_c, 1, 8192
3, 9674, Control_c, 1, 1, 12
3, 9689, Control_c, 1, 1, 51
3, 9704, Control_c, 1, 1, 6
3, 9714, Note_on_c, 1, 48, 0
3, 9714, Control_c, 1, 1, 0
3, 9714, Note_on_c, 1, 48, 103
3, 9754, Pitch_bend_c, 1, 8256
3, 9756, Pitch_bend_c, 1, 8320
3, 9758, Pitch_bend_c, 1, 8448
3, 9760, Pitch_bend_c, 1, 8608
3, 9762, Pitch_bend_c, 1, 8864
3, 9764, Pitch_bend_c, 1, 9120
3, 9766, Pitch_bend_c, 1, 9344
3, 9770, Pitch_bend_c, 1, 9184
3, 9772, Pitch_bend_c, 1, 9056
3, 9774, Pitch_bend_c, 1, 8864
3, 9776, Pitch_bend_c, 1, 8640
3, 9778, Pitch_bend_c, 1, 8480
3, 9780, Pitch_bend_c, 1, 8320
3, 9782, Pitch_bend_c, 1, 8192
3, 9789, Control_c, 1, 1, 9
3, 9804, Control_c, 1, 1, 68
3, 9819, Control_c, 1, 1, 17
3, 9833, Note_on_c, 1, 48, 0
3, 9833, Control_c, 1, 1, 0
3, 9833, Note_on_c, 1, 43, 103
3, 9883, Pitch_bend_c, 1, 8320
3, 9885, Pitch_bend_c, 1, 8416
3, 9887, Pitch_bend_c, 1, 8608
3, 9889, Pitch_bend_c, 1, 8736
3, 9891, Pitch_bend_c, 1, 8864
3, 9893, Pitch_bend_c, 1, 9056
3, 9895, Pitch_bend_c, 1, 9184
3, 9903, Pitch_bend_c, 1, 9024
3, 9905, Pitch_bend_c, 1, 8832
3, 9907, Pitch_bend_c, 1, 8608
3, 9909, Pitch_bend_c, 1, 8448
3, 9911, Pitch_bend_c, 1, 8256
3, 9913, Pitch_bend_c, 1, 8192
3, 9915, Pitch_bend_c, 1, 8064
3, 9919, Pitch_bend_c, 1, 8000
3, 9923, Pitch_bend_c, 1, 7936
3, 9933, Pitch_bend_c, 1, 8032
3, 9939, Pitch_bend_c, 1, 8192
3, 9943, Pitch_bend_c, 1, 8352
3, 9945, Pitch_bend_c, 1, 8416
3, 9947, Pitch_bend_c, 1, 8544
3, 9949, Pitch_bend_c, 1, 8704
3, 9951, Pitch_bend_c, 1, 8832
3, 9953, Pitch_bend_c, 1, 8960
3, 9955, Pitch_bend_c, 1, 9152
3, 9957, Pitch_bend_c, 1, 9248
3, 9965, Pitch_bend_c, 1, 9152
3, 9967, Pitch_bend_c, 1, 9056
3, 9969, Pitch_bend_c, 1, 8864
3, 9971, Pitch_bend_c, 1, 8672
3, 9973, Pitch_bend_c, 1, 8448
3, 9975, Pitch_bend_c, 1, 8352
3, 9977, Pitch_bend_c, 1, 8192
3, 9979, Pitch_bend_c, 1, 8128
3, 9981, Pitch_bend_c, 1, 8064
3, 10005, Pitch_bend_c, 1, 8128
3, 10007, Pitch_bend_c, 1, 8192
3, 10040, Note_on_c, 1, 43, 0
3, 10040, Note_on_c, 1, 41, 103
3, 10138, Pitch_bend_c, 1, 8288
3, 10144, Pitch_bend_c, 1, 8384
3, 10148, Pitch_bend_c, 1, 8480
3, 10150, Pitch_bend_c, 1, 8544
3, 10152, Pitch_bend_c, 1, 8640
3, 10154, Pitch_bend_c, 1, 8736
3, 10156, Pitch_bend_c, 1, 8896
3, 10158, Pitch_bend_c, 1, 9024
3, 10160, Pitch_bend_c, 1, 9152
3, 10162, Pitch_bend_c, 1, 9248
3, 10164, Pitch_bend_c, 1, 9344
3, 10166, Pitch_bend_c, 1, 9408
3, 10174, Pitch_bend_c, 1, 9344
3, 10176, Pitch_bend_c, 1, 9248
3, 10178, Pitch_bend_c, 1, 9184
3, 10180, Pitch_bend_c, 1, 9120
3, 10182, Pitch_bend_c, 1, 9024
3, 10184, Pitch_bend_c, 1, 8928
3, 10186, Pitch_bend_c, 1, 8864
3, 10188, Pitch_bend_c, 1, 8768
3, 10190, Pitch_bend_c, 1, 8672
3, 10192, Pitch_bend_c, 1, 8576
3, 10194, Pitch_bend_c, 1, 8512
3, 10196, Pitch_bend_c, 1, 8416
3, 10198, Pitch_bend_c, 1, 8352
3, 10200, Pitch_bend_c, 1, 8288
3, 10204, Pitch_bend_c, 1, 8192
3, 10235, Control_c, 1, 1, 16
3, 10250, Control_c, 1, 1, 38
3, 10265, Control_c, 1, 1, 44
3, 10295, Control_c, 1, 1, 11
3, 10310, Control_c, 1, 1, 3
3, 10325, Control_c, 1, 1, 0
3, 10331, Note_on_c, 1, 41, 0
3, 10331, Note_on_c, 1, 53, 112
3, 10382, Note_on_c, 1, 53, 0
3, 10395, Note_on_c, 1, 41, 103
3, 10433, Note_on_c, 1, 41, 0
3, 10443, Note_on_c, 1, 51, 95
3, 10540, Note_on_c, 1, 51, 0
3, 10565, Note_on_c, 1, 50, 103
3, 10627, Pitch_bend_c, 1, 8256
3, 10631, Pitch_bend_c, 1, 8352
3, 10633, Pitch_bend_c, 1, 8416
3, 10635, Pitch_bend_c, 1, 8544
3, 10637, Pitch_bend_c, 1, 8672
3, 10639, Pitch_bend_c, 1, 8864
3, 10641, Pitch_bend_c, 1, 8992
3, 10643, Pitch_bend_c, 1, 9120
3, 10651, Pitch_bend_c, 1, 8992
3, 10653, Pitch_bend_c, 1, 8896
3, 10655, Pitch_bend_c, 1, 8768
3, 10657, Pitch_bend_c, 1, 8672
3, 10659, Pitch_bend_c, 1, 8544
3, 10661, Pitch_bend_c, 1, 8448
3, 10663, Pitch_bend_c, 1, 8352
3, 10665, Pitch_bend_c, 1, 8288
3, 10667, Pitch_bend_c, 1, 8192
3, 10685, Control_c, 1, 1, 12
3, 10700, Control_c, 1, 1, 40
3, 10730, Control_c, 1, 1, 5
3, 10745, Control_c, 1, 1, 0
3, 10747, Note_on_c, 1, 50, 0
3, 10747, Note_on_c, 1, 44, 103
3, 10809, Note_on_c, 1, 44, 0
3, 10809, Note_on_c, 1, 41, 103
3, 10849, Pitch_bend_c, 1, 8288
3, 10851, Pitch_bend_c, 1, 8416
3, 10853, Pitch_bend_c, 1, 8512
3, 10855, Pitch_bend_c, 1, 8768
3, 10857, Pitch_bend_c, 1, 9120
3, 10859, Pitch_bend_c, 1, 9504
3, 10863, Pitch_bend_c, 1, 9440
3, 10865, Pitch_bend_c, 1, 9248
3, 10867, Pitch_bend_c, 1, 8928
3, 10869, Pitch_bend_c, 1, 8704
3, 10871, Pitch_bend_c, 1, 8512
3, 10873, Pitch_bend_c, 1, 8320
3, 10875, Pitch_bend_c, 1, 8192
3, 10884, Control_c, 1, 1, 10
3, 10899, Control_c, 1, 1, 52
3, 10914, Control_c, 1, 1, 8
3, 10925, Note_on_c, 1, 41, 0
3, 10925, Control_c, 1, 1, 0
3, 10925, Note_on_c, 1, 43, 103
3, 10987, Pitch_bend_c, 1, 8256
3, 10991, Pitch_bend_c, 1, 8384
3, 10993, Pitch_bend_c, 1, 8448
3, 10995, Pitch_bend_c, 1, 8576
3, 10997, Pitch_bend_c, 1, 8704
3, 10999, Pitch_bend_c, 1, 8928
3, 11001, Pitch_bend_c, 1, 9088
3, 11003, Pitch_bend_c, 1, 9216
3, 11005, Pitch_bend_c, 1, 9280
3, 11011, Pitch_bend_c, 1, 9120
3, 11013, Pitch_bend_c, 1, 9056
3, 11015, Pitch_bend_c, 1, 8896
3, 11017, Pitch_bend_c, 1, 8800
3, 11019, Pitch_bend_c, 1, 8640
3, 11021, Pitch_bend_c, 1, 8512
3, 11023, Pitch_bend_c, 1, 8416
3, 11025, Pitch_bend_c, 1, 8320
3, 11027, Pitch_bend_c, 1, 8192
3, 11045, Control_c, 1, 1, 9
3, 11060, Control_c, 1, 1, 39
3, 11090, Control_c, 1, 1, 6
3, 11105, Control_c, 1, 1, 0
3, 11108, Note_on_c, 1, 43, 0
3, 11108, Note_on_c, 1, 38, 103
3, 11169, Note_on_c, 1, 38, 0
3, 11169, Note_on_c, 1, 35, 103
3, 11229, Pitch_bend_c, 1, 8256
3, 11233, Pitch_bend_c, 1, 8320
3, 11235, Pitch_bend_c, 1, 8384
3, 11237, Pitch_bend_c, 1, 8480
3, 11239, Pitch_bend_c, 1, 8576
3, 11241, Pitch_bend_c, 1, 8768
3, 11243, Pitch_bend_c, 1, 8928
3, 11245, Pitch_bend_c, 1, 9024
3, 11247, Pitch_bend_c, 1, 9088
3, 11253, Pitch_bend_c, 1, 8960
3, 11255, Pitch_bend_c, 1, 8896
3, 11257, Pitch_bend_c, 1, 8768
3, 11259, Pitch_bend_c, 1, 8672
3, 11261, Pitch_bend_c, 1, 8576
3, 11263, Pitch_bend_c, 1, 8448
3, 11265, Pitch_bend_c, 1, 8352
3, 11267, Pitch_bend_c, 1, 8288
3, 11269, Pitch_bend_c, 1, 8192
3, 11274, Control_c, 1, 1, 5
3, 11289, Control_c, 1, 1, 23
3, 11304, Control_c, 1, 1, 62
3, 11319, Control_c, 1, 1, 36
3, 11334, Control_c, 1, 1, 6
3, 11348, Note_on_c, 1, 35, 0
3, 11348, Control_c, 1, 1, 0
3, 11348, Note_on_c, 1, 38, 103
3, 11402, Note_on_c, 1, 38, 0
3, 11402, Note_on_c, 1, 35, 103
3, 11438, Pitch_bend_c, 1, 8288
3, 11440, Pitch_bend_c, 1, 8416
3, 11442, Pitch_bend_c, 1, 8544
3, 11444, Pitch_bend_c, 1, 8672
3, 11446, Pitch_bend_c, 1, 8896
3, 11448, Pitch_bend_c, 1, 9088
3, 11450, Pitch_bend_c, 1, 9344
3, 11452, Pitch_bend_c, 1, 9408
3, 11454, Pitch_bend_c, 1, 9536
3, 11456, Pitch_bend_c, 1, 9600
3, 11462, Pitch_bend_c, 1, 9536
3, 11464, Pitch_bend_c, 1, 9408
3, 11466, Pitch_bend_c, 1, 9216
3, 11468, Pitch_bend_c, 1, 9056
3, 11470, Pitch_bend_c, 1, 8768
3, 11472, Pitch_bend_c, 1, 8672
3, 11474, Pitch_bend_c, 1, 8544
3, 11476, Pitch_bend_c, 1, 8480
3, 11478, Pitch_bend_c, 1, 8416
3, 11480, Pitch_bend_c, 1, 8352
3, 11482, Pitch_bend_c, 1, 8288
3, 11484, Pitch_bend_c, 1, 8192
3, 11521, Note_on_c, 1, 35, 0
3, 11521, Note_on_c, 1, 36, 103
3, 11579, Pitch_bend_c, 1, 8256
3, 11581, Pitch_bend_c, 1, 8320
3, 11583, Pitch_bend_c, 1, 8384
3, 11585, Pitch_bend_c, 1, 8480
3, 11587, Pitch_bend_c, 1, 8608
3, 11589, Pitch_bend_c, 1, 8832
3, 11591, Pitch_bend_c, 1, 8960
3, 11593, Pitch_bend_c, 1, 9088
3, 11599, Pitch_bend_c, 1, 9024
3, 11601, Pitch_bend_c, 1, 8928
3, 11603, Pitch_bend_c, 1, 8832
3, 11605, Pitch_bend_c, 1, 8704
3, 11607, Pitch_bend_c, 1, 8576
3, 11609, Pitch_bend_c, 1, 8480
3, 11611, Pitch_bend_c, 1, 8384
3, 11613, Pitch_bend_c, 1, 8288
3, 11615, Pitch_bend_c, 1, 8192
3, 11626, Control_c, 1, 1, 8
3, 11641, Control_c, 1, 1, 49
3, 11656, Control_c, 1, 1, 58
3, 11671, Control_c, 1, 1, 10
3, 11686, Control_c, 1, 1, 0
3, 11689, Note_on_c, 1, 36, 0
3, 11689, Note_on_c, 1, 43, 103
3, 11756, Note_on_c, 1, 43, 0
3, 11756, Note_on_c, 1, 50, 103
3, 11820, Pitch_bend_c, 1, 8256
3, 11824, Pitch_bend_c, 1, 8352
3, 11826, Pitch_bend_c, 1, 8416
3, 11828, Pitch_bend_c, 1, 8480
3, 11830, Pitch_bend_c, 1, 8640
3, 11832, Pitch_bend_c, 1, 8832
3, 11834, Pitch_bend_c, 1, 9056
3, 11836, Pitch_bend_c, 1, 9216
3, 11838, Pitch_bend_c, 1, 9344
3, 11840, Pitch_bend_c, 1, 9408
3, 11844, Pitch_bend_c, 1, 9344
3, 11846, Pitch_bend_c, 1, 9216
3, 11848, Pitch_bend_c, 1, 9152
3, 11850, Pitch_bend_c, 1, 8992
3, 11852, Pitch_bend_c, 1, 8896
3, 11854, Pitch_bend_c, 1, 8736
3, 11856, Pitch_bend_c, 1, 8608
3, 11858, Pitch_bend_c, 1, 8480
3, 11860, Pitch_bend_c, 1, 8384
3, 11862, Pitch_bend_c, 1, 8288
3, 11864, Pitch_bend_c, 1, 8192
3, 11876, Control_c, 1, 1, 6
3, 11891, Control_c, 1, 1, 39
3, 11906, Control_c, 1, 1, 49
3, 11921, Control_c, 1, 1, 16
3, 11936, Control_c, 1, 1, 2
3, 11948, Note_on_c, 1, 50, 0
3, 11948, Control_c, 1, 1, 0
3, 11948, Note_on_c, 1, 48, 103
3, 11994, Pitch_bend_c, 1, 8256
3, 11996, Pitch_bend_c, 1, 8320
3, 11998, Pitch_bend_c, 1, 8416
3, 12000, Pitch_bend_c, 1, 8544
3, 12002, Pitch_bend_c, 1, 8768
3, 12004, Pitch_bend_c, 1, 9056
3, 12006, Pitch_bend_c, 1, 9248
3, 12008, Pitch_bend_c, 1, 9344
3, 12012, Pitch_bend_c, 1, 9184
3, 12014, Pitch_bend_c, 1, 9088
3, 12016, Pitch_bend_c, 1, 8864
3, 12018, Pitch_bend_c, 1, 8704
3, 12020, Pitch_bend_c, 1, 8512
3, 12022, Pitch_bend_c, 1, 8384
3, 12024, Pitch_bend_c, 1, 8256
3, 12026, Pitch_bend_c, 1, 8192
3, 12038, Control_c, 1, 1, 13
3, 12053, Control_c, 1, 1, 45
3, 12068, Control_c, 1, 1, 11
3, 12083, Control_c, 1, 1, 0
3, 12085, Note_on_c, 1, 48, 0
3, 12085, Note_on_c, 1, 39, 103
3, 12185, Pitch_bend_c, 1, 8256
3, 12189, Pitch_bend_c, 1, 8320
3, 12193, Pitch_bend_c, 1, 8384
3, 12195, Pitch_bend_c, 1, 8448
3, 12197, Pitch_bend_c, 1, 8512
3, 12199, Pitch_bend_c, 1, 8576
3, 12201, Pitch_bend_c, 1, 8672
3, 12203, Pitch_bend_c, 1, 8768
3, 12205, Pitch_bend_c, 1, 8832
3, 12207, Pitch_bend_c, 1, 8896
3, 12209, Pitch_bend_c, 1, 8960
3, 12219, Pitch_bend_c, 1, 8896
3, 12221, Pitch_bend_c, 1, 8832
3, 12225, Pitch_bend_c, 1, 8768
3, 12227, Pitch_bend_c, 1, 8672
3, 12231, Pitch_bend_c, 1, 8576
3, 12233, Pitch_bend_c, 1, 8512
3, 12235, Pitch_bend_c, 1, 8448
3, 12239, Pitch_bend_c, 1, 8352
3, 12243, Pitch_bend_c, 1, 8256
3, 12247, Pitch_bend_c, 1, 8192
3, 12265, Control_c, 1, 1, 6
3, 12280, Control_c, 1, 1, 28
3, 12295, Control_c, 1, 1, 53
3, 12310, Control_c, 1, 1, 58
3, 12325, Control_c, 1, 1, 52
3, 12340, Control_c, 1, 1, 15
3, 12355, Control_c, 1, 1, 4
3, 12370, Control_c, 1, 1, 0
3, 12374, Note_on_c, 1, 39, 0
3, 12374, Note_on_c, 1, 49, 103
3, 12436, Note_on_c, 1, 49, 0
3, 12436, Note_on_c, 1, 49, 111
3, 12450, Note_on_c, 1, 49, 0
3, 12450, Note_on_c, 1, 39, 103
3, 12490, Note_on_c, 1, 39, 0
3, 12490, Note_on_c, 1, 50, 103
3, 12552, Pitch_bend_c, 1, 8288
3, 12556, Pitch_bend_c, 1, 8416
3, 12558, Pitch_bend_c, 1, 8480
3, 12560, Pitch_bend_c, 1, 8608
3, 12562, Pitch_bend_c, 1, 8768
3, 12564, Pitch_bend_c, 1, 9024
3, 12566, Pitch_bend_c, 1, 9248
3, 12568, Pitch_bend_c, 1, 9408
3, 12570, Pitch_bend_c, 1, 9504
3, 12576, Pitch_bend_c, 1, 9344
3, 12578, Pitch_bend_c, 1, 9248
3, 12580, Pitch_bend_c, 1, 9088
3, 12582, Pitch_bend_c, 1, 8960
3, 12584, Pitch_bend_c, 1, 8800
3, 12586, Pitch_bend_c, 1, 8640
3, 12588, Pitch_bend_c, 1, 8512
3, 12590, Pitch_bend_c, 1, 8384
3, 12592, Pitch_bend_c, 1, 8288
3, 12594, Pitch_bend_c, 1, 8192
3, 12610, Control_c, 1, 1, 15
3, 12625, Control_c, 1, 1, 60
3, 12655, Control_c, 1, 1, 11
3, 12670, Control_c, 1, 1, 0
3, 12674, Note_on_c, 1, 50, 0
3, 12674, Note_on_c, 1, 41, 103
3, 12728, Pitch_bend_c, 1, 8288
3, 12732, Pitch_bend_c, 1, 8416
3, 12734, Pitch_bend_c, 1, 8480
3, 12736, Pitch_bend_c, 1, 8672
3, 12738, Pitch_bend_c, 1, 8896
3, 12740, Pitch_bend_c, 1, 9152
3, 12742, Pitch_bend_c, 1, 9344
3, 12744, Pitch_bend_c, 1, 9472
3, 12748, Pitch_bend_c, 1, 9408
3, 12750, Pitch_bend_c, 1, 9248
3, 12752, Pitch_bend_c, 1, 9152
3, 12754, Pitch_bend_c, 1, 8960
3, 12756, Pitch_bend_c, 1, 8800
3, 12758, Pitch_bend_c, 1, 8608
3, 12760, Pitch_bend_c, 1, 8480
3, 12762, Pitch_bend_c, 1, 8320
3, 12764, Pitch_bend_c, 1, 8192
3, 12779, Control_c, 1, 1, 18
3, 12794, Control_c, 1, 1, 73
3, 12809, Control_c, 1, 1, 43
3, 12824, Control_c, 1, 1, 5
3, 12835, Note_on_c, 1, 41, 0
3, 12835, Control_c, 1, 1, 0
3, 12835, Note_on_c, 1, 46, 103
3, 12905, Note_on_c, 1, 46, 0
3, 12905, Note_on_c, 1, 39, 103
3, 12959, Note_on_c, 1, 39, 0
3, 12959, Note_on_c, 1, 40, 103
3, 13021, Pitch_bend_c, 1, 8256
3, 13025, Pitch_bend_c, 1, 8320
3, 13027, Pitch_bend_c, 1, 8384
3, 13029, Pitch_bend_c, 1, 8480
3, 13031, Pitch_bend_c, 1, 8608
3, 13033, Pitch_bend_c, 1, 8768
3, 13035, Pitch_bend_c, 1, 8864
3, 13037, Pitch_bend_c, 1, 8960
3, 13045, Pitch_bend_c, 1, 8864
3, 13047, Pitch_bend_c, 1, 8800
3, 13049, Pitch_bend_c, 1, 8672
3, 13051, Pitch_bend_c, 1, 8608
3, 13053, Pitch_bend_c, 1, 8480
3, 13055, Pitch_bend_c, 1, 8416
3, 13057, Pitch_bend_c, 1, 8320
3, 13059, Pitch_bend_c, 1, 8256
3, 13061, Pitch_bend_c, 1, 8192
3, 13079, Control_c, 1, 1, 21
3, 13094, Control_c, 1, 1, 70
3, 13124, Control_c, 1, 1, 9
3, 13139, Control_c, 1, 1, 0
3, 13141, Note_on_c, 1, 40, 0
3, 13154, Note_on_c, 1, 34, 103
3, 13205, Note_on_c, 1, 34, 0
3, 13205, Note_on_c, 1, 33, 103
3, 13267, Pitch_bend_c, 1, 8256
3, 13271, Pitch_bend_c, 1, 8384
3, 13273, Pitch_bend_c, 1, 8448
3, 13275, Pitch_bend_c, 1, 8576
3, 13277, Pitch_bend_c, 1, 8704
3, 13279, Pitch_bend_c, 1, 8928
3, 13281, Pitch_bend_c, 1, 9120
3, 13283, Pitch_bend_c, 1, 9280
3, 13285, Pitch_bend_c, 1, 9376
3, 13291, Pitch_bend_c, 1, 9216
3, 13293, Pitch_bend_c, 1, 9120
3, 13295, Pitch_bend_c, 1, 8992
3, 13297, Pitch_bend_c, 1, 8864
3, 13299, Pitch_bend_c, 1, 8736
3, 13301, Pitch_bend_c, 1, 8576
3, 13303, Pitch_bend_c, 1, 8480
3, 13305, Pitch_bend_c, 1, 8352
3, 13307, Pitch_bend_c, 1, 8288
3, 13309, Pitch_bend_c, 1, 8192
3, 13325, Control_c, 1, 1, 13
3, 13340, Control_c, 1, 1, 51
3, 13370, Control_c, 1, 1, 9
3, 13385, Control_c, 1, 1, 0
3, 13389, Note_on_c, 1, 33, 0
3, 13399, Note_on_c, 1, 40, 103
3, 13454, Note_on_c, 1, 40, 0
3, 13454, Note_on_c, 1, 38, 98
3, 13496, Pitch_bend_c, 1, 8288
3, 13498, Pitch_bend_c, 1, 8384
3, 13500, Pitch_bend_c, 1, 8480
3, 13502, Pitch_bend_c, 1, 8704
3, 13504, Pitch_bend_c, 1, 9056
3, 13506, Pitch_bend_c, 1, 9408
3, 13510, Pitch_bend_c, 1, 9344
3, 13512, Pitch_bend_c, 1, 9184
3, 13514, Pitch_bend_c, 1, 8960
3, 13516, Pitch_bend_c, 1, 8800
3, 13518, Pitch_bend_c, 1, 8576
3, 13520, Pitch_bend_c, 1, 8384
3, 13522, Pitch_bend_c, 1, 8288
3, 13524, Pitch_bend_c, 1, 8192
3, 13544, Control_c, 1, 1, 34
3, 13559, Control_c, 1, 1, 10
3, 13572, Pitch_bend_c, 1, 8128
3, 13574, Pitch_bend_c, 1, 6048
3, 13574, Control_c, 1, 1, 0
3, 13575, Note_on_c, 1, 38, 0
3, 13575, Pitch_bend_c, 1, 4960
3, 13575, Note_on_c, 1, 38, 109
3, 13577, Pitch_bend_c, 1, 5056
3, 13579, Pitch_bend_c, 1, 5120
3, 13581, Pitch_bend_c, 1, 5248
3, 13583, Pitch_bend_c, 1, 5344
3, 13585, Pitch_bend_c, 1, 5440
3, 13587, Pitch_bend_c, 1, 5504
3, 13589, Pitch_bend_c, 1, 5632
3, 13591, Pitch_bend_c, 1, 5760
3, 13593, Pitch_bend_c, 1, 5888
3, 13595, Pitch_bend_c, 1, 6016
3, 13597, Pitch_bend_c, 1, 6176
3, 13599, Pitch_bend_c, 1, 6400
3, 13601, Pitch_bend_c, 1, 6592
3, 13603, Pitch_bend_c, 1, 6752
3, 13605, Pitch_bend_c, 1, 6912
3, 13607, Pitch_bend_c, 1, 7040
3, 13609, Pitch_bend_c, 1, 7200
3, 13611, Pitch_bend_c, 1, 7264
3, 13613, Pitch_bend_c, 1, 7328
3, 13615, Pitch_bend_c, 1, 7392
3, 13617, Pitch_bend_c, 1, 7456
3, 13619, Pitch_bend_c, 1, 7520
3, 13621, Pitch_bend_c, 1, 7584
3, 13623, Pitch_bend_c, 1, 7648
3, 13627, Pitch_bend_c, 1, 7744
3, 13629, Pitch_bend_c, 1, 7840
3, 13631, Pitch_bend_c, 1, 7904
3, 13635, Pitch_bend_c, 1, 8000
3, 13637, Pitch_bend_c, 1, 8064
3, 13639, Pitch_bend_c, 1, 8192
3, 13641, Pitch_bend_c, 1, 8288
3, 13643, Pitch_bend_c, 1, 8448
3, 13645, Pitch_bend_c, 1, 8608
3, 13647, Pitch_bend_c, 1, 8864
3, 13649, Pitch_bend_c, 1, 9088
3, 13651, Pitch_bend_c, 1, 9248
3, 13653, Pitch_bend_c, 1, 9312
3, 13659, Pitch_bend_c, 1, 9216
3, 13661, Pitch_bend_c, 1, 9120
3, 13663, Pitch_bend_c, 1, 8992
3, 13665, Pitch_bend_c, 1, 8864
3, 13667, Pitch_bend_c, 1, 8672
3, 13669, Pitch_bend_c, 1, 8544
3, 13671, Pitch_bend_c, 1, 8416
3, 13673, Pitch_bend_c, 1, 8320
3, 13675, Pitch_bend_c, 1, 8192
3, 13695, Control_c, 1, 1, 13
3, 13710, Control_c, 1, 1, 35
3, 13725, Control_c, 1, 1, 20
3, 13740, Control_c, 1, 1, 3
3, 13754, Note_on_c, 1, 38, 0
3, 13754, Control_c, 1, 1, 0
3, 13754, Note_on_c, 1, 54, 109
3, 13794, Pitch_bend_c, 1, 8256
3, 13798, Pitch_bend_c, 1, 8448
3, 13800, Pitch_bend_c, 1, 8608
3, 13802, Pitch_bend_c, 1, 8896
3, 13804, Pitch_bend_c, 1, 9088
3, 13806, Pitch_bend_c, 1, 9184
3, 13810, Pitch_bend_c, 1, 8992
3, 13812, Pitch_bend_c, 1, 8832
3, 13814, Pitch_bend_c, 1, 8672
3, 13816, Pitch_bend_c, 1, 8512
3, 13818, Pitch_bend_c, 1, 8288
3, 13820, Pitch_bend_c, 1, 8192
3, 13829, Control_c, 1, 1, 12
3, 13844, Control_c, 1, 1, 60
3, 13859, Control_c, 1, 1, 10
3, 13871, Note_on_c, 1, 54, 0
3, 13871, Control_c, 1, 1, 0
3, 13871, Note_on_c, 1, 38, 109
3, 13891, Note_on_c, 1, 38, 0
3, 13927, Note_on_c, 1, 39, 103
3, 14045, Pitch_bend_c, 1, 8256
3, 14053, Pitch_bend_c, 1, 8352
3, 14055, Pitch_bend_c, 1, 8416
3, 14059, Pitch_bend_c, 1, 8480
3, 14063, Pitch_bend_c, 1, 8608
3, 14065, Pitch_bend_c, 1, 8704
3, 14067, Pitch_bend_c, 1, 8800
3, 14069, Pitch_bend_c, 1, 8928
3, 14071, Pitch_bend_c, 1, 9056
3, 14073, Pitch_bend_c, 1, 9184
3, 14075, Pitch_bend_c, 1, 9280
3, 14077, Pitch_bend_c, 1, 9344
3, 14079, Pitch_bend_c, 1, 9440
3, 14081, Pitch_bend_c, 1, 9536
3, 14093, Pitch_bend_c, 1, 9440
3, 14095, Pitch_bend_c, 1, 9344
3, 14099, Pitch_bend_c, 1, 9248
3, 14101, Pitch_bend_c, 1, 9184
3, 14103, Pitch_bend_c, 1, 9056
3, 14105, Pitch_bend_c, 1, 8992
3, 14107, Pitch_bend_c, 1, 8928
3, 14109, Pitch_bend_c, 1, 8832
3, 14111, Pitch_bend_c, 1, 8736
3, 14113, Pitch_bend_c, 1, 8672
3, 14115, Pitch_bend_c, 1, 8608
3, 14117, Pitch_bend_c, 1, 8544
3, 14119, Pitch_bend_c, 1, 8448
3, 14121, Pitch_bend_c, 1, 8384
3, 14123, Pitch_bend_c, 1, 8320
3, 14127, Pitch_bend_c, 1, 8192
3, 14152, Control_c, 1, 1, 8
3, 14167, Control_c, 1, 1, 21
3, 14182, Control_c, 1, 1, 49
3, 14197, Control_c, 1, 1, 57
3, 14227, Control_c, 1, 1, 33
3, 14242, Control_c, 1, 1, 15
3, 14257, Control_c, 1, 1, 5
3, 14285, Note_on_c, 1, 39, 0
3, 14285, Control_c, 1, 1, 0
3, 14285, Note_on_c, 1, 42, 103
3, 14349, Note_on_c, 1, 42, 0
3, 14349, Note_on_c, 1, 39, 103
3, 14405, Note_on_c, 1, 39, 0
3, 14405, Note_on_c, 1, 40, 103
3, 14471, Pitch_bend_c, 1, 8256
3, 14475, Pitch_bend_c, 1, 8352
3, 14477, Pitch_bend_c, 1, 8416
3, 14479, Pitch_bend_c, 1, 8512
3, 14481, Pitch_bend_c, 1, 8640
3, 14483, Pitch_bend_c, 1, 8800
3, 14485, Pitch_bend_c, 1, 8928
3, 14487, Pitch_bend_c, 1, 9056
3, 14489, Pitch_bend_c, 1, 9120
3, 14495, Pitch_bend_c, 1, 8992
3, 14497, Pitch_bend_c, 1, 8928
3, 14499, Pitch_bend_c, 1, 8832
3, 14501, Pitch_bend_c, 1, 8736
3, 14503, Pitch_bend_c, 1, 8640
3, 14505, Pitch_bend_c, 1, 8512
3, 14507, Pitch_bend_c, 1, 8448
3, 14509, Pitch_bend_c, 1, 8352
3, 14511, Pitch_bend_c, 1, 8288
3, 14513, Pitch_bend_c, 1, 8192
3, 14525, Control_c, 1, 1, 7
3, 14540, Control_c, 1, 1, 49
3, 14555, Control_c, 1, 1, 64
3, 14570, Control_c, 1, 1, 26
3, 14585, Control_c, 1, 1, 4
3, 14598, Note_on_c, 1, 40, 0
3, 14598, Control_c, 1, 1, 0
3, 14598, Note_on_c, 1, 47, 103
3, 14642, Pitch_bend_c, 1, 8256
3, 14644, Pitch_bend_c, 1, 8352
3, 14646, Pitch_bend_c, 1, 8448
3, 14648, Pitch_bend_c, 1, 8608
3, 14650, Pitch_bend_c, 1, 8800
3, 14652, Pitch_bend_c, 1, 8928
3, 14658, Pitch_bend_c, 1, 8800
3, 14660, Pitch_bend_c, 1, 8672
3, 14662, Pitch_bend_c, 1, 8544
3, 14664, Pitch_bend_c, 1, 8416
3, 14666, Pitch_bend_c, 1, 8320
3, 14668, Pitch_bend_c, 1, 8192
3, 14688, Control_c, 1, 1, 54
3, 14703, Control_c, 1, 1, 35
3, 14718, Control_c, 1, 1, 2
3, 14723, Note_on_c, 1, 47, 0
3, 14723, Control_c, 1, 1, 0
3, 14723, Note_on_c, 1, 40, 109
3, 14736, Note_on_c, 1, 40, 0
3, 14770, Note_on_c, 1, 46, 103
3, 14810, Pitch_bend_c, 1, 8288
3, 14812, Pitch_bend_c, 1, 8416
3, 14814, Pitch_bend_c, 1, 8544
3, 14816, Pitch_bend_c, 1, 8960
3, 14818, Pitch_bend_c, 1, 9280
3, 14820, Pitch_bend_c, 1, 9536
3, 14824, Pitch_bend_c, 1, 9344
3, 14826, Pitch_bend_c, 1, 9216
3, 14828, Pitch_bend_c, 1, 8960
3, 14830, Pitch_bend_c, 1, 8736
3, 14832, Pitch_bend_c, 1, 8416
3, 14834, Pitch_bend_c, 1, 8288
3, 14836, Pitch_bend_c, 1, 8192
3, 14845, Control_c, 1, 1, 17
3, 14860, Control_c, 1, 1, 74
3, 14875, Control_c, 1, 1, 9
3, 14885, Note_on_c, 1, 46, 0
3, 14885, Control_c, 1, 1, 0
3, 14885, Note_on_c, 1, 45, 103
3, 14949, Pitch_bend_c, 1, 8256
3, 14951, Pitch_bend_c, 1, 8320
3, 14955, Pitch_bend_c, 1, 8416
3, 14957, Pitch_bend_c, 1, 8544
3, 14959, Pitch_bend_c, 1, 8672
3, 14961, Pitch_bend_c, 1, 8832
3, 14963, Pitch_bend_c, 1, 8928
3, 14965, Pitch_bend_c, 1, 9024
3, 14971, Pitch_bend_c, 1, 8928
3, 14973, Pitch_bend_c, 1, 8864
3, 14975, Pitch_bend_c, 1, 8768
3, 14977, Pitch_bend_c, 1, 8672
3, 14979, Pitch_bend_c, 1, 8576
3, 14981, Pitch_bend_c, 1, 8480
3, 14983, Pitch_bend_c, 1, 8416
3, 14985, Pitch_bend_c, 1, 8320
3, 14987, Pitch_bend_c, 1, 8256
3, 14989, Pitch_bend_c, 1, 8192
3, 15005, Control_c, 1, 1, 12
3, 15020, Control_c, 1, 1, 46
3, 15050, Control_c, 1, 1, 9
3, 15065, Control_c, 1, 1, 0
3, 15070, Note_on_c, 1, 45, 0
3, 15070, Note_on_c, 1, 43, 103
3, 15129, Note_on_c, 1, 43, 0
3, 15129, Note_on_c, 1, 40, 103
3, 15165, Pitch_bend_c, 1, 8256
3, 15167, Pitch_bend_c, 1, 8352
3, 15171, Pitch_bend_c, 1, 8480
3, 15173, Pitch_bend_c, 1, 8608
3, 15175, Pitch_bend_c, 1, 8832
3, 15177, Pitch_bend_c, 1, 8992
3, 15179, Pitch_bend_c, 1, 9056
3, 15181, Pitch_bend_c, 1, 9152
3, 15191, Pitch_bend_c, 1, 9056
3, 15193, Pitch_bend_c, 1, 8896
3, 15195, Pitch_bend_c, 1, 8800
3, 15197, Pitch_bend_c, 1, 8672
3, 15199, Pitch_bend_c, 1, 8576
3, 15201, Pitch_bend_c, 1, 8480
3, 15203, Pitch_bend_c, 1, 8416
3, 15205, Pitch_bend_c, 1, 8352
3, 15207, Pitch_bend_c, 1, 8288
3, 15211, Pitch_bend_c, 1, 8192
3, 15249, Note_on_c, 1, 40, 0
3, 15249, Note_on_c, 1, 37, 103
3, 15289, Pitch_bend_c, 1, 8288
3, 15291, Pitch_bend_c, 1, 8384
3, 15293, Pitch_bend_c, 1, 8480
3, 15295, Pitch_bend_c, 1, 8704
3, 15297, Pitch_bend_c, 1, 9056
3, 15299, Pitch_bend_c, 1, 9376
3, 15305, Pitch_bend_c, 1, 9152
3, 15307, Pitch_bend_c, 1, 8864
3, 15309, Pitch_bend_c, 1, 8672
3, 15311, Pitch_bend_c, 1, 8480
3, 15313, Pitch_bend_c, 1, 8320
3, 15315, Pitch_bend_c, 1, 8192
3, 15324, Control_c, 1, 1, 14
3, 15339, Control_c, 1, 1, 74
3, 15354, Control_c, 1, 1, 11
3, 15365, Note_on_c, 1, 37, 0
3, 15365, Control_c, 1, 1, 0
3, 15365, Note_on_c, 1, 38, 103
3, 15434, Note_on_c, 1, 38, 0
3, 15434, Note_on_c, 1, 38, 103
3, 15491, Note_on_c, 1, 38, 0
3, 15491, Note_on_c, 1, 40, 103
3, 15531, Pitch_bend_c, 1, 8256
3, 15533, Pitch_bend_c, 1, 8352
3, 15535, Pitch_bend_c, 1, 8416
3, 15537, Pitch_bend_c, 1, 8576
3, 15539, Pitch_bend_c, 1, 8832
3, 15541, Pitch_bend_c, 1, 9088
3, 15545, Pitch_bend_c, 1, 9024
3, 15547, Pitch_bend_c, 1, 8896
3, 15549, Pitch_bend_c, 1, 8704
3, 15551, Pitch_bend_c, 1, 8544
3, 15553, Pitch_bend_c, 1, 8416
3, 15555, Pitch_bend_c, 1, 8288
3, 15557, Pitch_bend_c, 1, 8192
3, 15566, Control_c, 1, 1, 8
3, 15581, Control_c, 1, 1, 41
3, 15596, Control_c, 1, 1, 6
3, 15607, Note_on_c, 1, 40, 0
3, 15607, Control_c, 1, 1, 0
3, 15607, Note_on_c, 1, 42, 103
3, 15725, Pitch_bend_c, 1, 8288
3, 15731, Pitch_bend_c, 1, 8352
3, 15735, Pitch_bend_c, 1, 8448
3, 15739, Pitch_bend_c, 1, 8512
3, 15741, Pitch_bend_c, 1, 8608
3, 15743, Pitch_bend_c, 1, 8704
3, 15745, Pitch_bend_c, 1, 8800
3, 15747, Pitch_bend_c, 1, 8928
3, 15749, Pitch_bend_c, 1, 9056
3, 15751, Pitch_bend_c, 1, 9184
3, 15753, Pitch_bend_c, 1, 9248
3, 15755, Pitch_bend_c, 1, 9344
3, 15757, Pitch_bend_c, 1, 9440
3, 15759, Pitch_bend_c, 1, 9504
3, 15769, Pitch_bend_c, 1, 9440
3, 15771, Pitch_bend_c, 1, 9344
3, 15773, Pitch_bend_c, 1, 9280
3, 15777, Pitch_bend_c, 1, 9184
3, 15779, Pitch_bend_c, 1, 9088
3, 15781, Pitch_bend_c, 1, 8992
3, 15783, Pitch_bend_c, 1, 8928
3, 15785, Pitch_bend_c, 1, 8864
3, 15787, Pitch_bend_c, 1, 8768
3, 15789, Pitch_bend_c, 1, 8672
3, 15791, Pitch_bend_c, 1, 8608
3, 15793, Pitch_bend_c, 1, 8544
3, 15795, Pitch_bend_c, 1, 8480
3, 15797, Pitch_bend_c, 1, 8416
3, 15799, Pitch_bend_c, 1, 8352
3, 15803, Pitch_bend_c, 1, 8256
3, 15805, Pitch_bend_c, 1, 8192
3, 15832, Control_c, 1, 1, 9
3, 15847, Control_c, 1, 1, 37
3, 15862, Control_c, 1, 1, 52
3, 15877, Control_c, 1, 1, 60
3, 15907, Control_c, 1, 1, 25
3, 15922, Control_c, 1, 1, 10
3, 15937, Control_c, 1, 1, 3
3, 15952, Control_c, 1, 1, 0
3, 15959, Note_on_c, 1, 42, 0
3, 15962, Note_on_c, 1, 39, 103
3, 16024, Pitch_bend_c, 1, 8256
3, 16028, Pitch_bend_c, 1, 8352
3, 16030, Pitch_bend_c, 1, 8416
3, 16032, Pitch_bend_c, 1, 8544
3, 16034, Pitch_bend_c, 1, 8672
3, 16036, Pitch_bend_c, 1, 8864
3, 16038, Pitch_bend_c, 1, 9056
3, 16040, Pitch_bend_c, 1, 9184
3, 16042, Pitch_bend_c, 1, 9248
3, 16048, Pitch_bend_c, 1, 9120
3, 16050, Pitch_bend_c, 1, 9056
3, 16052, Pitch_bend_c, 1, 8928
3, 16054, Pitch_bend_c, 1, 8800
3, 16056, Pitch_bend_c, 1, 8672
3, 16058, Pitch_bend_c, 1, 8544
3, 16060, Pitch_bend_c, 1, 8448
3, 16062, Pitch_bend_c, 1, 8320
3, 16064, Pitch_bend_c, 1, 8256
3, 16066, Pitch_bend_c, 1, 8192
3, 16082, Control_c, 1, 1, 10
3, 16097, Control_c, 1, 1, 39
3, 16127, Control_c, 1, 1, 7
3, 16142, Control_c, 1, 1, 0
3, 16146, Note_on_c, 1, 39, 0
3, 16146, Note_on_c, 1, 51, 103
3, 16190, Pitch_bend_c, 1, 8256
3, 16192, Pitch_bend_c, 1, 8352
3, 16194, Pitch_bend_c, 1, 8448
3, 16196, Pitch_bend_c, 1, 8608
3, 16198, Pitch_bend_c, 1, 8800
3, 16200, Pitch_bend_c, 1, 8960
3, 16206, Pitch_bend_c, 1, 8800
3, 16208, Pitch_bend_c, 1, 8608
3, 16210, Pitch_bend_c, 1, 8480
3, 16212, Pitch_bend_c, 1, 8384
3, 16214, Pitch_bend_c, 1, 8256
3, 16216, Pitch_bend_c, 1, 8192
3, 16236, Control_c, 1, 1, 46
3, 16251, Control_c, 1, 1, 27
3, 16266, Control_c, 1, 1, 1
3, 16270, Note_on_c, 1, 51, 0
3, 16270, Control_c, 1, 1, 0
3, 16270, Note_on_c, 1, 39, 103
3, 16328, Note_on_c, 1, 39, 0
3, 16328, Note_on_c, 1, 52, 113
3, 16410, Note_on_c, 1, 52, 0
3, 16427, Note_on_c, 1, 39, 107
3, 16437, Note_on_c, 1, 39, 0
3, 16513, Note_on_c, 1, 47, 94
3, 16607, Note_on_c, 1, 47, 0
3, 16627, Note_on_c, 1, 40, 103
3, 16690, Note_on_c, 1, 40, 0
3, 16690, Note_on_c, 1, 33, 103
3, 16810, Pitch_bend_c, 1, 8256
3, 16816, Pitch_bend_c, 1, 8320
3, 16822, Pitch_bend_c, 1, 8384
3, 16824, Pitch_bend_c, 1, 8448
3, 16826, Pitch_bend_c, 1, 8512
3, 16830, Pitch_bend_c, 1, 8640
3, 16832, Pitch_bend_c, 1, 8736
3, 16834, Pitch_bend_c, 1, 8800
3, 16836, Pitch_bend_c, 1, 8864
3, 16840, Pitch_bend_c, 1, 8960
3, 16854, Pitch_bend_c, 1, 8896
3, 16858, Pitch_bend_c, 1, 8832
3, 16862, Pitch_bend_c, 1, 8736
3, 16864, Pitch_bend_c, 1, 8672
3, 16868, Pitch_bend_c, 1, 8608
3, 16870, Pitch_bend_c, 1, 8544
3, 16872, Pitch_bend_c, 1, 8480
3, 16876, Pitch_bend_c, 1, 8416
3, 16878, Pitch_bend_c, 1, 8352
3, 16882, Pitch_bend_c, 1, 8288
3, 16886, Pitch_bend_c, 1, 8192
3, 16915, Control_c, 1, 1, 9
3, 16930, Control_c, 1, 1, 35
3, 16945, Control_c, 1, 1, 51
3, 16960, Control_c, 1, 1, 58
3, 16990, Control_c, 1, 1, 24
3, 17005, Control_c, 1, 1, 10
3, 17020, Control_c, 1, 1, 3
3, 17035, Control_c, 1, 1, 0
3, 17042, Note_on_c, 1, 33, 0
3, 17042, Note_on_c, 1, 40, 103
3, 17103, Note_on_c, 1, 40, 0
3, 17103, Note_on_c, 1, 40, 103
3, 17157, Note_on_c, 1, 40, 0
3, 17157, Note_on_c, 1, 39, 103
3, 17223, Note_on_c, 1, 39, 0
3, 17223, Note_on_c, 1, 39, 103
3, 17285, Note_on_c, 1, 39, 0
3, 17285, Note_on_c, 1, 38, 103
3, 17347, Pitch_bend_c, 1, 8256
3, 17351, Pitch_bend_c, 1, 8352
3, 17353, Pitch_bend_c, 1, 8448
3, 17355, Pitch_bend_c, 1, 8512
3, 17357, Pitch_bend_c, 1, 8672
3, 17359, Pitch_bend_c, 1, 8864
3, 17361, Pitch_bend_c, 1, 9120
3, 17363, Pitch_bend_c, 1, 9280
3, 17365, Pitch_bend_c, 1, 9472
3, 17373, Pitch_bend_c, 1, 9280
3, 17375, Pitch_bend_c, 1, 9216
3, 17377, Pitch_bend_c, 1, 9024
3, 17379, Pitch_bend_c, 1, 8896
3, 17381, Pitch_bend_c, 1, 8736
3, 17383, Pitch_bend_c, 1, 8576
3, 17385, Pitch_bend_c, 1, 8480
3, 17387, Pitch_bend_c, 1, 8352
3, 17389, Pitch_bend_c, 1, 8256
3, 17391, Pitch_bend_c, 1, 8192
3, 17405, Control_c, 1, 1, 9
3, 17420, Control_c, 1, 1, 42
3, 17435, Control_c, 1, 1, 48
3, 17450, Control_c, 1, 1, 12
3, 17465, Control_c, 1, 1, 0
3, 17472, Note_on_c, 1, 38, 0
3, 17491, Note_on_c, 1, 38, 103
3, 17575, Pitch_bend_c, 1, 8256
3, 17579, Pitch_bend_c, 1, 8320
3, 17581, Pitch_bend_c, 1, 8384
3, 17585, Pitch_bend_c, 1, 8480
3, 17587, Pitch_bend_c, 1, 8576
3, 17589, Pitch_bend_c, 1, 8704
3, 17591, Pitch_bend_c, 1, 8864
3, 17593, Pitch_bend_c, 1, 8992
3, 17595, Pitch_bend_c, 1, 9088
3, 17597, Pitch_bend_c, 1, 9184
3, 17599, Pitch_bend_c, 1, 9248
3, 17607, Pitch_bend_c, 1, 9120
3, 17609, Pitch_bend_c, 1, 9056
3, 17611, Pitch_bend_c, 1, 8992
3, 17613, Pitch_bend_c, 1, 8896
3, 17615, Pitch_bend_c, 1, 8800
3, 17617, Pitch_bend_c, 1, 8736
3, 17619, Pitch_bend_c, 1, 8608
3, 17621, Pitch_bend_c, 1, 8544
3, 17623, Pitch_bend_c, 1, 8448
3, 17625, Pitch_bend_c, 1, 8384
3, 17627, Pitch_bend_c, 1, 8320
3, 17629, Pitch_bend_c, 1, 8256
3, 17631, Pitch_bend_c, 1, 8192
3, 17656, Control_c, 1, 1, 14
3, 17671, Control_c, 1, 1, 44
3, 17686, Control_c, 1, 1, 51
3, 17701, Control_c, 1, 1, 29
3, 17716, Control_c, 1, 1, 8
3, 17731, Control_c, 1, 1, 1
3, 17740, Note_on_c, 1, 38, 0
3, 17740, Control_c, 1, 1, 0
3, 17769, Note_on_c, 1, 35, 103
3, 17833, Pitch_bend_c, 1, 8256
3, 17837, Pitch_bend_c, 1, 8320
3, 17839, Pitch_bend_c, 1, 8384
3, 17841, Pitch_bend_c, 1, 8448
3, 17843, Pitch_bend_c, 1, 8576
3, 17845, Pitch_bend_c, 1, 8736
3, 17847, Pitch_bend_c, 1, 8928
3, 17849, Pitch_bend_c, 1, 9056
3, 17851, Pitch_bend_c, 1, 9152
3, 17853, Pitch_bend_c, 1, 9216
3, 17859, Pitch_bend_c, 1, 9056
3, 17861, Pitch_bend_c, 1, 8992
3, 17863, Pitch_bend_c, 1, 8864
3, 17865, Pitch_bend_c, 1, 8768
3, 17867, Pitch_bend_c, 1, 8640
3, 17869, Pitch_bend_c, 1, 8544
3, 17871, Pitch_bend_c, 1, 8448
3, 17873, Pitch_bend_c, 1, 8352
3, 17875, Pitch_bend_c, 1, 8256
3, 17877, Pitch_bend_c, 1, 8192
3, 17889, Control_c, 1, 1, 7
3, 17904, Control_c, 1, 1, 46
3, 17919, Control_c, 1, 1, 57
3, 17934, Control_c, 1, 1, 19
3, 17949, Control_c, 1, 1, 3
3, 17961, Note_on_c, 1, 35, 0
3, 17961, Control_c, 1, 1, 0
3, 17961, Note_on_c, 1, 35, 103
3, 18033, Pitch_bend_c, 1, 8256
3, 18037, Pitch_bend_c, 1, 8320
3, 18039, Pitch_bend_c, 1, 8384
3, 18041, Pitch_bend_c, 1, 8448
3, 18043, Pitch_bend_c, 1, 8512
3, 18045, Pitch_bend_c, 1, 8640
3, 18047, Pitch_bend_c, 1, 8832
3, 18049, Pitch_bend_c, 1, 9024
3, 18051, Pitch_bend_c, 1, 9152
3, 18053, Pitch_bend_c, 1, 9280
3, 18055, Pitch_bend_c, 1, 9376
3, 18061, Pitch_bend_c, 1, 9312
3, 18063, Pitch_bend_c, 1, 9184
3, 18065, Pitch_bend_c, 1, 9120
3, 18067, Pitch_bend_c, 1, 8992
3, 18069, Pitch_bend_c, 1, 8896
3, 18071, Pitch_bend_c, 1, 8768
3, 18073, Pitch_bend_c, 1, 8640
3, 18075, Pitch_bend_c, 1, 8544
3, 18077, Pitch_bend_c, 1, 8448
3, 18079, Pitch_bend_c, 1, 8352
3, 18081, Pitch_bend_c, 1, 8288
3, 18083, Pitch_bend_c, 1, 8192
3, 18096, Control_c, 1, 1, 7
3, 18111, Control_c, 1, 1, 50
3, 18126, Control_c, 1, 1, 68
3, 18141, Control_c, 1, 1, 61
3, 18156, Control_c, 1, 1, 10
3, 18171, Control_c, 1, 1, 1
3, 18178, Note_on_c, 1, 35, 0
3, 18178, Control_c, 1, 1, 0
3, 18201, Note_on_c, 1, 39, 103
3, 18253, Note_on_c, 1, 39, 0
3, 18253, Note_on_c, 1, 40, 103
3, 18353, Pitch_bend_c, 1, 8256
3, 18357, Pitch_bend_c, 1, 8320
3, 18361, Pitch_bend_c, 1, 8416
3, 18365, Pitch_bend_c, 1, 8512
3, 18367, Pitch_bend_c, 1, 8608
3, 18369, Pitch_bend_c, 1, 8704
3, 18371, Pitch_bend_c, 1, 8832
3, 18373, Pitch_bend_c, 1, 8960
3, 18375, Pitch_bend_c, 1, 9056
3, 18377, Pitch_bend_c, 1, 9152
3, 18379, Pitch_bend_c, 1, 9248
3, 18381, Pitch_bend_c, 1, 9312
3, 18389, Pitch_bend_c, 1, 9248
3, 18391, Pitch_bend_c, 1, 9184
3, 18393, Pitch_bend_c, 1, 9120
3, 18395, Pitch_bend_c, 1, 9056
3, 18397, Pitch_bend_c, 1, 8992
3, 18399, Pitch_bend_c, 1, 8896
3, 18401, Pitch_bend_c, 1, 8832
3, 18403, Pitch_bend_c, 1, 8736
3, 18405, Pitch_bend_c, 1, 8640
3, 18407, Pitch_bend_c, 1, 8576
3, 18409, Pitch_bend_c, 1, 8512
3, 18411, Pitch_bend_c, 1, 8448
3, 18413, Pitch_bend_c, 1, 8352
3, 18417, Pitch_bend_c, 1, 8256
3, 18419, Pitch_bend_c, 1, 8192
3, 18433, Control_c, 1, 1, 5
3, 18448, Control_c, 1, 1, 18
3, 18463, Control_c, 1, 1, 52
3, 18478, Control_c, 1, 1, 65
3, 18508, Control_c, 1, 1, 22
3, 18523, Control_c, 1, 1, 8
3, 18538, Control_c, 1, 1, 1
3, 18549, Note_on_c, 1, 40, 0
3, 18549, Control_c, 1, 1, 0
3, 18549, Note_on_c, 1, 47, 103
3, 18622, Note_on_c, 1, 47, 0
3, 18622, Note_on_c, 1, 45, 103
3, 18658, Pitch_bend_c, 1, 8256
3, 18660, Pitch_bend_c, 1, 8320
3, 18662, Pitch_bend_c, 1, 8416
3, 18664, Pitch_bend_c, 1, 8640
3, 18666, Pitch_bend_c, 1, 8960
3, 18668, Pitch_bend_c, 1, 9280
3, 18672, Pitch_bend_c, 1, 9216
3, 18674, Pitch_bend_c, 1, 8992
3, 18676, Pitch_bend_c, 1, 8800
3, 18678, Pitch_bend_c, 1, 8608
3, 18680, Pitch_bend_c, 1, 8384
3, 18682, Pitch_bend_c, 1, 8256
3, 18684, Pitch_bend_c, 1, 8192
3, 18697, Control_c, 1, 1, 50
3, 18712, Control_c, 1, 1, 38
3, 18727, Control_c, 1, 1, 0
3, 18729, Note_on_c, 1, 45, 0
3, 18729, Note_on_c, 1, 45, 103
3, 18787, Pitch_bend_c, 1, 8256
3, 18791, Pitch_bend_c, 1, 8352
3, 18793, Pitch_bend_c, 1, 8416
3, 18795, Pitch_bend_c, 1, 8544
3, 18797, Pitch_bend_c, 1, 8672
3, 18799, Pitch_bend_c, 1, 8928
3, 18801, Pitch_bend_c, 1, 9088
3, 18803, Pitch_bend_c, 1, 9248
3, 18805, Pitch_bend_c, 1, 9312
3, 18811, Pitch_bend_c, 1, 9152
3, 18813, Pitch_bend_c, 1, 9056
3, 18815, Pitch_bend_c, 1, 8896
3, 18817, Pitch_bend_c, 1, 8768
3, 18819, Pitch_bend_c, 1, 8608
3, 18821, Pitch_bend_c, 1, 8480
3, 18823, Pitch_bend_c, 1, 8384
3, 18825, Pitch_bend_c, 1, 8288
3, 18827, Pitch_bend_c, 1, 8192
3, 18849, Control_c, 1, 1, 33
3, 18864, Control_c, 1, 1, 45
3, 18879, Control_c, 1, 1, 15
3, 18894, Control_c, 1, 1, 2
3, 18903, Note_on_c, 1, 45, 0
3, 18903, Control_c, 1, 1, 0
3, 18903, Note_on_c, 1, 33, 103
3, 18966, Note_on_c, 1, 33, 0
3, 18966, Note_on_c, 1, 33, 103
3, 19006, Pitch_bend_c, 1, 8288
3, 19008, Pitch_bend_c, 1, 8416
3, 19010, Pitch_bend_c, 1, 8512
3, 19012, Pitch_bend_c, 1, 8768
3, 19014, Pitch_bend_c, 1, 9120
3, 19016, Pitch_bend_c, 1, 9504
3, 19020, Pitch_bend_c, 1, 9440
3, 19022, Pitch_bend_c, 1, 9280
3, 19024, Pitch_bend_c, 1, 8960
3, 19026, Pitch_bend_c, 1, 8704
3, 19028, Pitch_bend_c, 1, 8512
3, 19030, Pitch_bend_c, 1, 8320
3, 19032, Pitch_bend_c, 1, 8192
3, 19041, Control_c, 1, 1, 10
3, 19056, Control_c, 1, 1, 54
3, 19071, Control_c, 1, 1, 8
3, 19082, Note_on_c, 1, 33, 0
3, 19082, Control_c, 1, 1, 0
3, 19082, Pitch_bend_c, 1, 160
3, 19082, Note_on_c, 1, 40, 103
3, 19112, Pitch_bend_c, 1, 3136
3, 19114, Pitch_bend_c, 1, 4032
3, 19116, Pitch_bend_c, 1, 4224
3, 19140, Pitch_bend_c, 1, 3968
3, 19142, Pitch_bend_c, 1, 7584
3, 19144, Pitch_bend_c, 1, 8192
3, 19172, Pitch_bend_c, 1, 8352
3, 19174, Pitch_bend_c, 1, 8416
3, 19176, Pitch_bend_c, 1, 8480
3, 19178, Pitch_bend_c, 1, 8544
3, 19180, Pitch_bend_c, 1, 8608
3, 19182, Pitch_bend_c, 1, 8672
3, 19184, Pitch_bend_c, 1, 8736
3, 19190, Pitch_bend_c, 1, 8672
3, 19192, Pitch_bend_c, 1, 8480
3, 19194, Pitch_bend_c, 1, 8352
3, 19196, Pitch_bend_c, 1, 8288
3, 19198, Pitch_bend_c, 1, 8192
3, 19202, Note_on_c, 1, 40, 0
3, 19202, Note_on_c, 1, 41, 103
3, 19262, Pitch_bend_c, 1, 8256
3, 19266, Pitch_bend_c, 1, 8320
3, 19268, Pitch_bend_c, 1, 8384
3, 19270, Pitch_bend_c, 1, 8480
3, 19272, Pitch_bend_c, 1, 8608
3, 19274, Pitch_bend_c, 1, 8768
3, 19276, Pitch_bend_c, 1, 8960
3, 19278, Pitch_bend_c, 1, 9088
3, 19280, Pitch_bend_c, 1, 9184
3, 19286, Pitch_bend_c, 1, 9056
3, 19288, Pitch_bend_c, 1, 8992
3, 19290, Pitch_bend_c, 1, 8864
3, 19292, Pitch_bend_c, 1, 8736
3, 19294, Pitch_bend_c, 1, 8640
3, 19296, Pitch_bend_c, 1, 8512
3, 19298, Pitch_bend_c, 1, 8416
3, 19300, Pitch_bend_c, 1, 8320
3, 19302, Pitch_bend_c, 1, 8256
3, 19304, Pitch_bend_c, 1, 8192
3, 19322, Control_c, 1, 1, 24
3, 19337, Control_c, 1, 1, 65
3, 19352, Control_c, 1, 1, 59
3, 19367, Control_c, 1, 1, 6
3, 19382, Note_on_c, 1, 41, 0
3, 19382, Control_c, 1, 1, 0
3, 19382, Note_on_c, 1, 36, 103
3, 19448, Note_on_c, 1, 36, 0
3, 19448, Note_on_c, 1, 36, 103
3, 19512, Pitch_bend_c, 1, 8256
3, 19514, Pitch_bend_c, 1, 8320
3, 19516, Pitch_bend_c, 1, 8416
3, 19520, Pitch_bend_c, 1, 8608
3, 19522, Pitch_bend_c, 1, 8768
3, 19524, Pitch_bend_c, 1, 8960
3, 19526, Pitch_bend_c, 1, 9152
3, 19528, Pitch_bend_c, 1, 9280
3, 19530, Pitch_bend_c, 1, 9344
3, 19536, Pitch_bend_c, 1, 9184
3, 19538, Pitch_bend_c, 1, 9120
3, 19540, Pitch_bend_c, 1, 8960
3, 19542, Pitch_bend_c, 1, 8864
3, 19544, Pitch_bend_c, 1, 8704
3, 19546, Pitch_bend_c, 1, 8576
3, 19548, Pitch_bend_c, 1, 8480
3, 19550, Pitch_bend_c, 1, 8352
3, 19552, Pitch_bend_c, 1, 8288
3, 19554, Pitch_bend_c, 1, 8192
3, 19568, Control_c, 1, 1, 7
3, 19583, Control_c, 1, 1, 38
3, 19598, Control_c, 1, 1, 45
3, 19613, Control_c, 1, 1, 11
3, 19628, Control_c, 1, 1, 1
3, 19636, Note_on_c, 1, 36, 0
3, 19636, Control_c, 1, 1, 0
3, 19636, Note_on_c, 1, 42, 103
3, 19716, Pitch_bend_c, 1, 8256
3, 19720, Pitch_bend_c, 1, 8320
3, 19722, Pitch_bend_c, 1, 8384
3, 19726, Pitch_bend_c, 1, 8512
3, 19728, Pitch_bend_c, 1, 8608
3, 19730, Pitch_bend_c, 1, 8736
3, 19732, Pitch_bend_c, 1, 8864
3, 19734, Pitch_bend_c, 1, 8928
3, 19736, Pitch_bend_c, 1, 9024
3, 19746, Pitch_bend_c, 1, 8928
3, 19750, Pitch_bend_c, 1, 8800
3, 19752, Pitch_bend_c, 1, 8704
3, 19754, Pitch_bend_c, 1, 8640
3, 19756, Pitch_bend_c, 1, 8544
3, 19758, Pitch_bend_c, 1, 8480
3, 19760, Pitch_bend_c, 1, 8416
3, 19762, Pitch_bend_c, 1, 8352
3, 19764, Pitch_bend_c, 1, 8288
3, 19766, Pitch_bend_c, 1, 8192
3, 19786, Control_c, 1, 1, 12
3, 19801, Control_c, 1, 1, 49
3, 19816, Control_c, 1, 1, 61
3, 19831, Control_c, 1, 1, 54
3, 19846, Control_c, 1, 1, 10
3, 19861, Control_c, 1, 1, 1
3, 19870, Note_on_c, 1, 42, 0
3, 19870, Control_c, 1, 1, 0
3, 19870, Note_on_c, 1, 36, 103
3, 19929, Note_on_c, 1, 36, 0
3, 19929, Note_on_c, 1, 36, 103
3, 19969, Pitch_bend_c, 1, 8288
3, 19971, Pitch_bend_c, 1, 8416
3, 19973, Pitch_bend_c, 1, 8544
3, 19975, Pitch_bend_c, 1, 8768
3, 19977, Pitch_bend_c, 1, 9152
3, 19979, Pitch_bend_c, 1, 9568
3, 19983, Pitch_bend_c, 1, 9504
3, 19985, Pitch_bend_c, 1, 9312
3, 19987, Pitch_bend_c, 1, 8960
3, 19989, Pitch_bend_c, 1, 8736
3, 19991, Pitch_bend_c, 1, 8544
3, 19993, Pitch_bend_c, 1, 8352
3, 19995, Pitch_bend_c, 1, 8192
3, 20004, Control_c, 1, 1, 8
3, 20019, Control_c, 1, 1, 40
3, 20034, Control_c, 1, 1, 6
3, 20045, Note_on_c, 1, 36, 0
3, 20045, Control_c, 1, 1, 0
3, 20045, Note_on_c, 1, 42, 103
3, 20111, Note_on_c, 1, 42, 0
3, 20111, Note_on_c, 1, 42, 103
3, 20169, Note_on_c, 1, 42, 0
3, 20169, Note_on_c, 1, 43, 103
3, 20233, Pitch_bend_c, 1, 8256
3, 20235, Pitch_bend_c, 1, 8320
3, 20239, Pitch_bend_c, 1, 8448
3, 20241, Pitch_bend_c, 1, 8544
3, 20243, Pitch_bend_c, 1, 8704
3, 20245, Pitch_bend_c, 1, 8800
3, 20247, Pitch_bend_c, 1, 8896
3, 20249, Pitch_bend_c, 1, 8960
3, 20255, Pitch_bend_c, 1, 8832
3, 20257, Pitch_bend_c, 1, 8768
3, 20259, Pitch_bend_c, 1, 8672
3, 20261, Pitch_bend_c, 1, 8608
3, 20263, Pitch_bend_c, 1, 8512
3, 20265, Pitch_bend_c, 1, 8416
3, 20267, Pitch_bend_c, 1, 8352
3, 20269, Pitch_bend_c, 1, 8256
3, 20271, Pitch_bend_c, 1, 8192
3, 20289, Control_c, 1, 1, 16
3, 20304, Control_c, 1, 1, 66
3, 20334, Control_c, 1, 1, 11
3, 20349, Control_c, 1, 1, 0
3, 20352, Note_on_c, 1, 43, 0
3, 20352, Note_on_c, 1, 38, 103
3, 20412, Note_on_c, 1, 38, 0
3, 20412, Note_on_c, 1, 38, 103
3, 20450, Pitch_bend_c, 1, 8256
3, 20452, Pitch_bend_c, 1, 8352
3, 20454, Pitch_bend_c, 1, 8448
3, 20456, Pitch_bend_c, 1, 8640
3, 20458, Pitch_bend_c, 1, 9024
3, 20460, Pitch_bend_c, 1, 9216
3, 20464, Pitch_bend_c, 1, 9152
3, 20466, Pitch_bend_c, 1, 8960
3, 20468, Pitch_bend_c, 1, 8768
3, 20470, Pitch_bend_c, 1, 8576
3, 20472, Pitch_bend_c, 1, 8352
3, 20474, Pitch_bend_c, 1, 8256
3, 20476, Pitch_bend_c, 1, 8192
3, 20487, Control_c, 1, 1, 27
3, 20502, Control_c, 1, 1, 57
3, 20517, Control_c, 1, 1, 2
3, 20523, Note_on_c, 1, 38, 0
3, 20523, Control_c, 1, 1, 0
3, 20523, Note_on_c, 1, 36, 103
3, 20579, Pitch_bend_c, 1, 8256
3, 20581, Pitch_bend_c, 1, 8320
3, 20583, Pitch_bend_c, 1, 8384
3, 20585, Pitch_bend_c, 1, 8480
3, 20587, Pitch_bend_c, 1, 8576
3, 20589, Pitch_bend_c, 1, 8672
3, 20591, Pitch_bend_c, 1, 8768
3, 20593, Pitch_bend_c, 1, 8864
3, 20603, Pitch_bend_c, 1, 8768
3, 20605, Pitch_bend_c, 1, 8640
3, 20607, Pitch_bend_c, 1, 8480
3, 20609, Pitch_bend_c, 1, 8384
3, 20611, Pitch_bend_c, 1, 8288
3, 20613, Pitch_bend_c, 1, 8192
3, 20617, Pitch_bend_c, 1, 8096
3, 20623, Pitch_bend_c, 1, 8032
3, 20639, Pitch_bend_c, 1, 8096
3, 20645, Pitch_bend_c, 1, 8192
3, 20649, Pitch_bend_c, 1, 8320
3, 20653, Pitch_bend_c, 1, 8448
3, 20655, Pitch_bend_c, 1, 8544
3, 20657, Pitch_bend_c, 1, 8608
3, 20659, Pitch_bend_c, 1, 8704
3, 20661, Pitch_bend_c, 1, 8800
3, 20663, Pitch_bend_c, 1, 8896
3, 20665, Pitch_bend_c, 1, 8960
3, 20673, Pitch_bend_c, 1, 8864
3, 20675, Pitch_bend_c, 1, 8800
3, 20677, Pitch_bend_c, 1, 8736
3, 20679, Pitch_bend_c, 1, 8608
3, 20681, Pitch_bend_c, 1, 8480
3, 20683, Pitch_bend_c, 1, 8352
3, 20685, Pitch_bend_c, 1, 8288
3, 20687, Pitch_bend_c, 1, 8192
3, 20691, Pitch_bend_c, 1, 8128
3, 20721, Pitch_bend_c, 1, 8192
3, 20759, Note_on_c, 1, 36, 0
3, 20759, Note_on_c, 1, 48, 103
3, 20833, Note_on_c, 1, 48, 0
3, 20833, Note_on_c, 1, 47, 103
3, 20882, Note_on_c, 1, 47, 0
3, 20882, Note_on_c, 1, 48, 103
3, 20922, Pitch_bend_c, 1, 8256
3, 20924, Pitch_bend_c, 1, 8320
3, 20926, Pitch_bend_c, 1, 8448
3, 20928, Pitch_bend_c, 1, 8608
3, 20930, Pitch_bend_c, 1, 9024
3, 20932, Pitch_bend_c, 1, 9216
3, 20934, Pitch_bend_c, 1, 9344
3, 20938, Pitch_bend_c, 1, 9184
3, 20940, Pitch_bend_c, 1, 9056
3, 20942, Pitch_bend_c, 1, 8768
3, 20944, Pitch_bend_c, 1, 8544
3, 20946, Pitch_bend_c, 1, 8384
3, 20948, Pitch_bend_c, 1, 8256
3, 20950, Pitch_bend_c, 1, 8192
3, 20957, Control_c, 1, 1, 5
3, 20972, Control_c, 1, 1, 35
3, 20987, Control_c, 1, 1, 8
3, 21000, Note_on_c, 1, 48, 0
3, 21000, Control_c, 1, 1, 0
3, 21000, Note_on_c, 1, 48, 103
3, 21072, Note_on_c, 1, 48, 0
3, 21072, Note_on_c, 1, 47, 103
3, 21124, Note_on_c, 1, 47, 0
3, 21124, Note_on_c, 1, 48, 103
3, 21230, Pitch_bend_c, 1, 8256
3, 21236, Pitch_bend_c, 1, 8320
3, 21240, Pitch_bend_c, 1, 8384
3, 21244, Pitch_bend_c, 1, 8480
3, 21246, Pitch_bend_c, 1, 8544
3, 21248, Pitch_bend_c, 1, 8640
3, 21250, Pitch_bend_c, 1, 8736
3, 21252, Pitch_bend_c, 1, 8832
3, 21254, Pitch_bend_c, 1, 8928
3, 21256, Pitch_bend_c, 1, 8992
3, 21258, Pitch_bend_c, 1, 9056
3, 21260, Pitch_bend_c, 1, 9120
3, 21270, Pitch_bend_c, 1, 9024
3, 21272, Pitch_bend_c, 1, 8960
3, 21276, Pitch_bend_c, 1, 8896
3, 21278, Pitch_bend_c, 1, 8832
3, 21280, Pitch_bend_c, 1, 8736
3, 21284, Pitch_bend_c, 1, 8640
3, 21286, Pitch_bend_c, 1, 8576
3, 21288, Pitch_bend_c, 1, 8512
3, 21290, Pitch_bend_c, 1, 8448
3, 21292, Pitch_bend_c, 1, 8384
3, 21296, Pitch_bend_c, 1, 8288
3, 21300, Pitch_bend_c, 1, 8192
3, 21319, Control_c, 1, 1, 6
3, 21334, Control_c, 1, 1, 20
3, 21349, Control_c, 1, 1, 48
3, 21364, Control_c, 1, 1, 56
3, 21394, Control_c, 1, 1, 23
3, 21409, Control_c, 1, 1, 8
3, 21424, Control_c, 1, 1, 2
3, 21439, Note_on_c, 1, 48, 0
3, 21439, Control_c, 1, 1, 0
3, 21439, Note_on_c, 1, 36, 111
3, 21452, Note_on_c, 1, 36, 0
3, 21489, Note_on_c, 1, 47, 111
3, 21544, Note_on_c, 1, 47, 0
3, 21558, Note_on_c, 1, 36, 117
3, 21571, Note_on_c, 1, 36, 0
3, 21615, Note_on_c, 1, 44, 103
3, 21707, Pitch_bend_c, 1, 8288
3, 21711, Pitch_bend_c, 1, 8352
3, 21713, Pitch_bend_c, 1, 8416
3, 21717, Pitch_bend_c, 1, 8512
3, 21719, Pitch_bend_c, 1, 8608
3, 21721, Pitch_bend_c, 1, 8736
3, 21723, Pitch_bend_c, 1, 8864
3, 21725, Pitch_bend_c, 1, 9056
3, 21727, Pitch_bend_c, 1, 9216
3, 21729, Pitch_bend_c, 1, 9312
3, 21731, Pitch_bend_c, 1, 9408
3, 21733, Pitch_bend_c, 1, 9504
3, 21741, Pitch_bend_c, 1, 9440
3, 21743, Pitch_bend_c, 1, 9312
3, 21747, Pitch_bend_c, 1, 9184
3, 21749, Pitch_bend_c, 1, 9056
3, 21751, Pitch_bend_c, 1, 8960
3, 21753, Pitch_bend_c, 1, 8864
3, 21755, Pitch_bend_c, 1, 8768
3, 21757, Pitch_bend_c, 1, 8640
3, 21759, Pitch_bend_c, 1, 8544
3, 21761, Pitch_bend_c, 1, 8480
3, 21763, Pitch_bend_c, 1, 8384
3, 21765, Pitch_bend_c, 1, 8320
3, 21767, Pitch_bend_c, 1, 8256
3, 21769, Pitch_bend_c, 1, 8192
3, 21795, Control_c, 1, 1, 13
3, 21810, Control_c, 1, 1, 39
3, 21825, Control_c, 1, 1, 46
3, 21855, Control_c, 1, 1, 11
3, 21870, Control_c, 1, 1, 3
3, 21885, Control_c, 1, 1, 0
3, 21888, Note_on_c, 1, 44, 0
3, 22031, Note_on_c, 1, 44, 103
3, 22089, Note_on_c, 1, 44, 0
3, 22089, Note_on_c, 1, 48, 103
3, 22153, Note_on_c, 1, 48, 0
3, 22153, Note_on_c, 1, 48, 103
3, 22209, Note_on_c, 1, 48, 0
3, 22209, Note_on_c, 1, 43, 103
3, 22269, Pitch_bend_c, 1, 8256
3, 22273, Pitch_bend_c, 1, 8352
3, 22275, Pitch_bend_c, 1, 8448
3, 22277, Pitch_bend_c, 1, 8512
3, 22279, Pitch_bend_c, 1, 8672
3, 22281, Pitch_bend_c, 1, 8896
3, 22283, Pitch_bend_c, 1, 9120
3, 22285, Pitch_bend_c, 1, 9280
3, 22287, Pitch_bend_c, 1, 9440
3, 22293, Pitch_bend_c, 1, 9344
3, 22295, Pitch_bend_c, 1, 9216
3, 22297, Pitch_bend_c, 1, 9088
3, 22299, Pitch_bend_c, 1, 8928
3, 22301, Pitch_bend_c, 1, 8800
3, 22303, Pitch_bend_c, 1, 8640
3, 22305, Pitch_bend_c, 1, 8512
3, 22307, Pitch_bend_c, 1, 8384
3, 22309, Pitch_bend_c, 1, 8288
3, 22311, Pitch_bend_c, 1, 8192
3, 22329, Control_c, 1, 1, 21
3, 22344, Control_c, 1, 1, 71
3, 22359, Control_c, 1, 1, 65
3, 22374, Control_c, 1, 1, 9
3, 22389, Control_c, 1, 1, 0
3, 22390, Note_on_c, 1, 43, 0
3, 22390, Note_on_c, 1, 40, 103
3, 22452, Note_on_c, 1, 40, 0
3, 22452, Note_on_c, 1, 36, 103
3, 22490, Pitch_bend_c, 1, 8256
3, 22492, Pitch_bend_c, 1, 8384
3, 22494, Pitch_bend_c, 1, 8576
3, 22496, Pitch_bend_c, 1, 8832
3, 22498, Pitch_bend_c, 1, 9184
3, 22500, Pitch_bend_c, 1, 9280
3, 22504, Pitch_bend_c, 1, 9088
3, 22506, Pitch_bend_c, 1, 8896
3, 22508, Pitch_bend_c, 1, 8736
3, 22510, Pitch_bend_c, 1, 8448
3, 22512, Pitch_bend_c, 1, 8320
3, 22514, Pitch_bend_c, 1, 8192
3, 22527, Control_c, 1, 1, 42
3, 22542, Control_c, 1, 1, 55
3, 22557, Control_c, 1, 1, 1
3, 22561, Note_on_c, 1, 36, 0
3, 22561, Control_c, 1, 1, 0
3, 22561, Note_on_c, 1, 41, 103
3, 22625, Pitch_bend_c, 1, 8288
3, 22629, Pitch_bend_c, 1, 8416
3, 22631, Pitch_bend_c, 1, 8480
3, 22633, Pitch_bend_c, 1, 8608
3, 22635, Pitch_bend_c, 1, 8768
3, 22637, Pitch_bend_c, 1, 9024
3, 22639, Pitch_bend_c, 1, 9216
3, 22641, Pitch_bend_c, 1, 9376
3, 22643, Pitch_bend_c, 1, 9472
3, 22649, Pitch_bend_c, 1, 9344
3, 22651, Pitch_bend_c, 1, 9248
3, 22653, Pitch_bend_c, 1, 9120
3, 22655, Pitch_bend_c, 1, 8960
3, 22657, Pitch_bend_c, 1, 8832
3, 22659, Pitch_bend_c, 1, 8672
3, 22661, Pitch_bend_c, 1, 8544
3, 22663, Pitch_bend_c, 1, 8416
3, 22665, Pitch_bend_c, 1, 8320
3, 22667, Pitch_bend_c, 1, 8192
3, 22681, Control_c, 1, 1, 11
3, 22696, Control_c, 1, 1, 63
3, 22711, Control_c, 1, 1, 74
3, 22726, Control_c, 1, 1, 22
3, 22741, Control_c, 1, 1, 3
3, 22750, Note_on_c, 1, 41, 0
3, 22750, Control_c, 1, 1, 0
3, 22753, Note_on_c, 1, 29, 103
3, 22849, Pitch_bend_c, 1, 8256
3, 22855, Pitch_bend_c, 1, 8320
3, 22857, Pitch_bend_c, 1, 8384
3, 22861, Pitch_bend_c, 1, 8480
3, 22863, Pitch_bend_c, 1, 8544
3, 22865, Pitch_bend_c, 1, 8640
3, 22867, Pitch_bend_c, 1, 8736
3, 22869, Pitch_bend_c, 1, 8896
3, 22871, Pitch_bend_c, 1, 9024
3, 22873, Pitch_bend_c, 1, 9120
3, 22875, Pitch_bend_c, 1, 9216
3, 22877, Pitch_bend_c, 1, 9312
3, 22889, Pitch_bend_c, 1, 9184
3, 22893, Pitch_bend_c, 1, 9088
3, 22895, Pitch_bend_c, 1, 8960
3, 22897, Pitch_bend_c, 1, 8896
3, 22899, Pitch_bend_c, 1, 8800
3, 22901, Pitch_bend_c, 1, 8736
3, 22903, Pitch_bend_c, 1, 8608
3, 22905, Pitch_bend_c, 1, 8544
3, 22907, Pitch_bend_c, 1, 8480
3, 22909, Pitch_bend_c, 1, 8384
3, 22911, Pitch_bend_c, 1, 8320
3, 22915, Pitch_bend_c, 1, 8192
3, 22933, Control_c, 1, 1, 8
3, 22948, Control_c, 1, 1, 35
3, 22963, Control_c, 1, 1, 64
3, 22978, Control_c, 1, 1, 73
3, 23008, Control_c, 1, 1, 18
3, 23023, Control_c, 1, 1, 5
3, 23038, Control_c, 1, 1, 0
3, 23043, Note_on_c, 1, 29, 0
3, 23045, Note_on_c, 1, 34, 103
3, 23143, Pitch_bend_c, 1, 8256
3, 23151, Pitch_bend_c, 1, 8320
3, 23155, Pitch_bend_c, 1, 8384
3, 23159, Pitch_bend_c, 1, 8448
3, 23163, Pitch_bend_c, 1, 8512
3, 23165, Pitch_bend_c, 1, 8576
3, 23167, Pitch_bend_c, 1, 8672
3, 23169, Pitch_bend_c, 1, 8768
3, 23171, Pitch_bend_c, 1, 8864
3, 23173, Pitch_bend_c, 1, 8960
3, 23175, Pitch_bend_c, 1, 9024
3, 23177, Pitch_bend_c, 1, 9088
3, 23179, Pitch_bend_c, 1, 9152
3, 23183, Pitch_bend_c, 1, 9216
3, 23193, Pitch_bend_c, 1, 9152
3, 23195, Pitch_bend_c, 1, 9024
3, 23197, Pitch_bend_c, 1, 8832
3, 23199, Pitch_bend_c, 1, 8704
3, 23201, Pitch_bend_c, 1, 8640
3, 23203, Pitch_bend_c, 1, 8576
3, 23205, Pitch_bend_c, 1, 8512
3, 23207, Pitch_bend_c, 1, 8448
3, 23209, Pitch_bend_c, 1, 8384
3, 23215, Pitch_bend_c, 1, 8320
3, 23219, Pitch_bend_c, 1, 8256
3, 23225, Pitch_bend_c, 1, 8192
3, 23270, Control_c, 1, 1, 8
3, 23285, Control_c, 1, 1, 21
3, 23300, Control_c, 1, 1, 32
3, 23345, Control_c, 1, 1, 22
3, 23360, Control_c, 1, 1, 16
3, 23420, Control_c, 1, 1, 25
3, 23435, Control_c, 1, 1, 40
3, 23450, Control_c, 1, 1, 58
3, 23465, Control_c, 1, 1, 67
3, 23510, Control_c, 1, 1, 60
3, 23525, Control_c, 1, 1, 20
3, 23540, Control_c, 1, 1, 3
3, 23555, Control_c, 1, 1, 0
3, 23589, Note_on_c, 1, 34, 0
3, 23589, Note_on_c, 1, 41, 109
3, 23602, Note_on_c, 1, 41, 0
3, 23700, Note_on_c, 1, 41, 103
3, 23760, Note_on_c, 1, 41, 0
3, 23760, Note_on_c, 1, 50, 103
3, 23824, Note_on_c, 1, 50, 0
3, 23824, Note_on_c, 1, 34, 103
3, 23884, Note_on_c, 1, 34, 0
3, 23884, Note_on_c, 1, 35, 109
3, 23896, Note_on_c, 1, 35, 0
3, 23945, Note_on_c, 1, 35, 103
3, 24004, Note_on_c, 1, 35, 0
3, 24004, Note_on_c, 1, 36, 103
3, 24068, Pitch_bend_c, 1, 8256
3, 24070, Pitch_bend_c, 1, 8320
3, 24072, Pitch_bend_c, 1, 8384
3, 24074, Pitch_bend_c, 1, 8448
3, 24076, Pitch_bend_c, 1, 8576
3, 24078, Pitch_bend_c, 1, 8704
3, 24080, Pitch_bend_c, 1, 8896
3, 24082, Pitch_bend_c, 1, 9024
3, 24084, Pitch_bend_c, 1, 9152
3, 24092, Pitch_bend_c, 1, 9024
3, 24094, Pitch_bend_c, 1, 8960
3, 24096, Pitch_bend_c, 1, 8832
3, 24098, Pitch_bend_c, 1, 8736
3, 24100, Pitch_bend_c, 1, 8608
3, 24102, Pitch_bend_c, 1, 8480
3, 24104, Pitch_bend_c, 1, 8416
3, 24106, Pitch_bend_c, 1, 8320
3, 24108, Pitch_bend_c, 1, 8256
3, 24110, Pitch_bend_c, 1, 8192
3, 24124, Control_c, 1, 1, 9
3, 24139, Control_c, 1, 1, 43
3, 24154, Control_c, 1, 1, 49
3, 24169, Control_c, 1, 1, 12
3, 24184, Control_c, 1, 1, 0
3, 24191, Note_on_c, 1, 36, 0
3, 24191, Note_on_c, 1, 49, 103
3, 24246, Note_on_c, 1, 49, 0
3, 24246, Note_on_c, 1, 52, 103
3, 24310, Note_on_c, 1, 52, 0
3, 24310, Note_on_c, 1, 49, 103
3, 24366, Note_on_c, 1, 49, 0
3, 24366, Note_on_c, 1, 48, 103
3, 24432, Pitch_bend_c, 1, 8256
3, 24434, Pitch_bend_c, 1, 8320
3, 24438, Pitch_bend_c, 1, 8448
3, 24440, Pitch_bend_c, 1, 8544
3, 24442, Pitch_bend_c, 1, 8704
3, 24444, Pitch_bend_c, 1, 8800
3, 24446, Pitch_bend_c, 1, 8896
3, 24454, Pitch_bend_c, 1, 8832
3, 24456, Pitch_bend_c, 1, 8768
3, 24458, Pitch_bend_c, 1, 8704
3, 24460, Pitch_bend_c, 1, 8608
3, 24462, Pitch_bend_c, 1, 8512
3, 24464, Pitch_bend_c, 1, 8448
3, 24466, Pitch_bend_c, 1, 8352
3, 24468, Pitch_bend_c, 1, 8288
3, 24472, Pitch_bend_c, 1, 8192
3, 24486, Control_c, 1, 1, 11
3, 24501, Control_c, 1, 1, 60
3, 24516, Control_c, 1, 1, 70
3, 24531, Control_c, 1, 1, 18
3, 24546, Control_c, 1, 1, 2
3, 24554, Note_on_c, 1, 48, 0
3, 24554, Control_c, 1, 1, 0
3, 24554, Note_on_c, 1, 36, 103
3, 24632, Pitch_bend_c, 1, 8256
3, 24638, Pitch_bend_c, 1, 8352
3, 24640, Pitch_bend_c, 1, 8416
3, 24642, Pitch_bend_c, 1, 8480
3, 24644, Pitch_bend_c, 1, 8576
3, 24646, Pitch_bend_c, 1, 8672
3, 24648, Pitch_bend_c, 1, 8864
3, 24650, Pitch_bend_c, 1, 9024
3, 24652, Pitch_bend_c, 1, 9120
3, 24654, Pitch_bend_c, 1, 9248
3, 24656, Pitch_bend_c, 1, 9312
3, 24662, Pitch_bend_c, 1, 9248
3, 24664, Pitch_bend_c, 1, 9152
3, 24666, Pitch_bend_c, 1, 9088
3, 24668, Pitch_bend_c, 1, 9024
3, 24670, Pitch_bend_c, 1, 8896
3, 24672, Pitch_bend_c, 1, 8800
3, 24674, Pitch_bend_c, 1, 8704
3, 24676, Pitch_bend_c, 1, 8576
3, 24678, Pitch_bend_c, 1, 8512
3, 24680, Pitch_bend_c, 1, 8416
3, 24682, Pitch_bend_c, 1, 8320
3, 24686, Pitch_bend_c, 1, 8192
3, 24704, Control_c, 1, 1, 11
3, 24719, Control_c, 1, 1, 54
3, 24734, Control_c, 1, 1, 71
3, 24749, Control_c, 1, 1, 63
3, 24764, Control_c, 1, 1, 12
3, 24779, Control_c, 1, 1, 2
3, 24789, Note_on_c, 1, 36, 0
3, 24789, Control_c, 1, 1, 0
3, 24789, Note_on_c, 1, 34, 103
3, 24842, Note_on_c, 1, 34, 0
3, 24842, Note_on_c, 1, 46, 103
3, 24901, Note_on_c, 1, 46, 0
3, 24901, Note_on_c, 1, 47, 103
3, 24957, Note_on_c, 1, 47, 0
3, 24957, Note_on_c, 1, 48, 103
3, 25021, Pitch_bend_c, 1, 8288
3, 25025, Pitch_bend_c, 1, 8384
3, 25027, Pitch_bend_c, 1, 8480
3, 25029, Pitch_bend_c, 1, 8576
3, 25031, Pitch_bend_c, 1, 8736
3, 25033, Pitch_bend_c, 1, 8960
3, 25035, Pitch_bend_c, 1, 9184
3, 25037, Pitch_bend_c, 1, 9344
3, 25039, Pitch_bend_c, 1, 9504
3, 25045, Pitch_bend_c, 1, 9408
3, 25047, Pitch_bend_c, 1, 9280
3, 25049, Pitch_bend_c, 1, 9184
3, 25051, Pitch_bend_c, 1, 8992
3, 25053, Pitch_bend_c, 1, 8864
3, 25055, Pitch_bend_c, 1, 8704
3, 25057, Pitch_bend_c, 1, 8576
3, 25059, Pitch_bend_c, 1, 8448
3, 25061, Pitch_bend_c, 1, 8320
3, 25063, Pitch_bend_c, 1, 8192
3, 25077, Control_c, 1, 1, 9
3, 25092, Control_c, 1, 1, 52
3, 25107, Control_c, 1, 1, 65
3, 25122, Control_c, 1, 1, 19
3, 25137, Control_c, 1, 1, 3
3, 25147, Note_on_c, 1, 48, 0
3, 25147, Control_c, 1, 1, 0
3, 25147, Note_on_c, 1, 43, 108
3, 25164, Note_on_c, 1, 43, 0
3, 25214, Note_on_c, 1, 39, 103
3, 25276, Pitch_bend_c, 1, 8256
3, 25278, Pitch_bend_c, 1, 8320
3, 25280, Pitch_bend_c, 1, 8416
3, 25282, Pitch_bend_c, 1, 8480
3, 25284, Pitch_bend_c, 1, 8608
3, 25286, Pitch_bend_c, 1, 8800
3, 25288, Pitch_bend_c, 1, 8992
3, 25290, Pitch_bend_c, 1, 9120
3, 25292, Pitch_bend_c, 1, 9280
3, 25298, Pitch_bend_c, 1, 9184
3, 25300, Pitch_bend_c, 1, 9088
3, 25302, Pitch_bend_c, 1, 8960
3, 25304, Pitch_bend_c, 1, 8832
3, 25306, Pitch_bend_c, 1, 8704
3, 25308, Pitch_bend_c, 1, 8576
3, 25310, Pitch_bend_c, 1, 8480
3, 25312, Pitch_bend_c, 1, 8352
3, 25314, Pitch_bend_c, 1, 8288
3, 25316, Pitch_bend_c, 1, 8192
3, 25334, Control_c, 1, 1, 13
3, 25349, Control_c, 1, 1, 47
3, 25379, Control_c, 1, 1, 6
3, 25394, Control_c, 1, 1, 0
3, 25395, Note_on_c, 1, 39, 0
3, 25395, Note_on_c, 1, 41, 103
3, 25463, Pitch_bend_c, 1, 8256
3, 25469, Pitch_bend_c, 1, 8320
3, 25473, Pitch_bend_c, 1, 8384
3, 25475, Pitch_bend_c, 1, 8448
3, 25477, Pitch_bend_c, 1, 8512
3, 25479, Pitch_bend_c, 1, 8608
3, 25481, Pitch_bend_c, 1, 8736
3, 25483, Pitch_bend_c, 1, 8832
3, 25485, Pitch_bend_c, 1, 8896
3, 25487, Pitch_bend_c, 1, 8960
3, 25491, Pitch_bend_c, 1, 9024
3, 25497, Pitch_bend_c, 1, 8864
3, 25499, Pitch_bend_c, 1, 8640
3, 25501, Pitch_bend_c, 1, 8544
3, 25503, Pitch_bend_c, 1, 8480
3, 25505, Pitch_bend_c, 1, 8384
3, 25509, Pitch_bend_c, 1, 8320
3, 25513, Pitch_bend_c, 1, 8256
3, 25515, Pitch_bend_c, 1, 8192
3, 25545, Control_c, 1, 1, 8
3, 25560, Control_c, 1, 1, 30
3, 25575, Control_c, 1, 1, 44
3, 25605, Control_c, 1, 1, 23
3, 25620, Control_c, 1, 1, 18
3, 25650, Control_c, 1, 1, 31
3, 25665, Control_c, 1, 1, 57
3, 25680, Control_c, 1, 1, 84
3, 25695, Control_c, 1, 1, 89
3, 25710, Control_c, 1, 1, 82
3, 25725, Control_c, 1, 1, 5
3, 25755, Control_c, 1, 1, 0
3, 25765, Note_on_c, 1, 41, 0
3, 25765, Note_on_c, 1, 39, 103
3, 25837, Pitch_bend_c, 1, 8256
3, 25841, Pitch_bend_c, 1, 8320
3, 25843, Pitch_bend_c, 1, 8384
3, 25845, Pitch_bend_c, 1, 8448
3, 25847, Pitch_bend_c, 1, 8544
3, 25849, Pitch_bend_c, 1, 8672
3, 25851, Pitch_bend_c, 1, 8832
3, 25853, Pitch_bend_c, 1, 8928
3, 25855, Pitch_bend_c, 1, 9024
3, 25857, Pitch_bend_c, 1, 9088
3, 25863, Pitch_bend_c, 1, 9024
3, 25865, Pitch_bend_c, 1, 8960
3, 25867, Pitch_bend_c, 1, 8896
3, 25869, Pitch_bend_c, 1, 8768
3, 25871, Pitch_bend_c, 1, 8704
3, 25873, Pitch_bend_c, 1, 8608
3, 25875, Pitch_bend_c, 1, 8512
3, 25877, Pitch_bend_c, 1, 8448
3, 25879, Pitch_bend_c, 1, 8352
3, 25881, Pitch_bend_c, 1, 8288
3, 25883, Pitch_bend_c, 1, 8192
3, 25900, Control_c, 1, 1, 9
3, 25915, Control_c, 1, 1, 50
3, 25930, Control_c, 1, 1, 62
3, 25945, Control_c, 1, 1, 31
3, 25960, Control_c, 1, 1, 6
3, 25975, Control_c, 1, 1, 0
3, 25977, Note_on_c, 1, 39, 0
3, 25989, Note_on_c, 1, 38, 103
3, 26029, Pitch_bend_c, 1, 8288
3, 26031, Pitch_bend_c, 1, 8352
3, 26033, Pitch_bend_c, 1, 8480
3, 26035, Pitch_bend_c, 1, 8672
3, 26037, Pitch_bend_c, 1, 9152
3, 26039, Pitch_bend_c, 1, 9408
3, 26041, Pitch_bend_c, 1, 9568
3, 26045, Pitch_bend_c, 1, 9344
3, 26047, Pitch_bend_c, 1, 9216
3, 26049, Pitch_bend_c, 1, 8864
3, 26051, Pitch_bend_c, 1, 8608
3, 26053, Pitch_bend_c, 1, 8416
3, 26055, Pitch_bend_c, 1, 8288
3, 26057, Pitch_bend_c, 1, 8192
3, 26064, Control_c, 1, 1, 8
3, 26079, Control_c, 1, 1, 52
3, 26094, Control_c, 1, 1, 11
3, 26107, Note_on_c, 1, 38, 0
3, 26107, Control_c, 1, 1, 0
3, 26107, Note_on_c, 1, 37, 103
3, 26160, Note_on_c, 1, 37, 0
3, 26160, Note_on_c, 1, 44, 103
3, 26226, Pitch_bend_c, 1, 8256
3, 26230, Pitch_bend_c, 1, 8320
3, 26232, Pitch_bend_c, 1, 8384
3, 26234, Pitch_bend_c, 1, 8480
3, 26236, Pitch_bend_c, 1, 8608
3, 26238, Pitch_bend_c, 1, 8736
3, 26240, Pitch_bend_c, 1, 8800
3, 26242, Pitch_bend_c, 1, 8896
3, 26250, Pitch_bend_c, 1, 8800
3, 26252, Pitch_bend_c, 1, 8736
3, 26254, Pitch_bend_c, 1, 8640
3, 26256, Pitch_bend_c, 1, 8576
3, 26258, Pitch_bend_c, 1, 8480
3, 26260, Pitch_bend_c, 1, 8416
3, 26262, Pitch_bend_c, 1, 8352
3, 26264, Pitch_bend_c, 1, 8288
3, 26266, Pitch_bend_c, 1, 8192
3, 26280, Control_c, 1, 1, 8
3, 26295, Control_c, 1, 1, 50
3, 26310, Control_c, 1, 1, 62
3, 26325, Control_c, 1, 1, 21
3, 26340, Control_c, 1, 1, 3
3, 26351, Note_on_c, 1, 44, 0
3, 26351, Control_c, 1, 1, 0
3, 26351, Note_on_c, 1, 43, 103
3, 26391, Pitch_bend_c, 1, 8256
3, 26393, Pitch_bend_c, 1, 8320
3, 26395, Pitch_bend_c, 1, 8448
3, 26397, Pitch_bend_c, 1, 8608
3, 26399, Pitch_bend_c, 1, 8864
3, 26401, Pitch_bend_c, 1, 9152
3, 26403, Pitch_bend_c, 1, 9376
3, 26407, Pitch_bend_c, 1, 9184
3, 26409, Pitch_bend_c, 1, 9088
3, 26411, Pitch_bend_c, 1, 8864
3, 26413, Pitch_bend_c, 1, 8640
3, 26415, Pitch_bend_c, 1, 8480
3, 26417, Pitch_bend_c, 1, 8320
3, 26419, Pitch_bend_c, 1, 8192
3, 26426, Control_c, 1, 1, 6
3, 26441, Control_c, 1, 1, 44
3, 26456, Control_c, 1, 1, 11
3, 26470, Note_on_c, 1, 43, 0
3, 26470, Control_c, 1, 1, 0
3, 26470, Note_on_c, 1, 38, 103
3, 26534, Note_on_c, 1, 38, 0
3, 26534, Note_on_c, 1, 35, 103
3, 26587, Note_on_c, 1, 35, 0
3, 26587, Note_on_c, 1, 35, 103
3, 26653, Note_on_c, 1, 35, 0
3, 26653, Note_on_c, 1, 31, 110
3, 26655, Note_on_c, 1, 31, 0
3, 26655, Note_on_c, 1, 29, 110
3, 26670, Note_on_c, 1, 29, 0
3, 26763, Note_on_c, 1, 35, 103
3, 26807, Pitch_bend_c, 1, 8256
3, 26809, Pitch_bend_c, 1, 8352
3, 26811, Pitch_bend_c, 1, 8448
3, 26813, Pitch_bend_c, 1, 8608
3, 26815, Pitch_bend_c, 1, 8800
3, 26817, Pitch_bend_c, 1, 8928
3, 26823, Pitch_bend_c, 1, 8800
3, 26825, Pitch_bend_c, 1, 8608
3, 26827, Pitch_bend_c, 1, 8480
3, 26829, Pitch_bend_c, 1, 8384
3, 26831, Pitch_bend_c, 1, 8256
3, 26833, Pitch_bend_c, 1, 8192
3, 26838, Control_c, 1, 1, 5
3, 26853, Control_c, 1, 1, 57
3, 26868, Control_c, 1, 1, 33
3, 26883, Control_c, 1, 1, 1
3, 26887, Note_on_c, 1, 35, 0
3, 26887, Control_c, 1, 1, 0
3, 26887, Note_on_c, 1, 36, 103
3, 26951, Pitch_bend_c, 1, 8256
3, 26955, Pitch_bend_c, 1, 8320
3, 26957, Pitch_bend_c, 1, 8416
3, 26961, Pitch_bend_c, 1, 8608
3, 26963, Pitch_bend_c, 1, 8768
3, 26965, Pitch_bend_c, 1, 8960
3, 26967, Pitch_bend_c, 1, 9120
3, 26969, Pitch_bend_c, 1, 9248
3, 26977, Pitch_bend_c, 1, 9120
3, 26979, Pitch_bend_c, 1, 9056
3, 26981, Pitch_bend_c, 1, 8928
3, 26983, Pitch_bend_c, 1, 8832
3, 26985, Pitch_bend_c, 1, 8704
3, 26987, Pitch_bend_c, 1, 8544
3, 26989, Pitch_bend_c, 1, 8448
3, 26991, Pitch_bend_c, 1, 8352
3, 26993, Pitch_bend_c, 1, 8288
3, 26995, Pitch_bend_c, 1, 8192
3, 27007, Control_c, 1, 1, 6
3, 27022, Control_c, 1, 1, 37
3, 27037, Control_c, 1, 1, 46
3, 27052, Control_c, 1, 1, 15
3, 27067, Control_c, 1, 1, 2
3, 27079, Note_on_c, 1, 36, 0
3, 27079, Control_c, 1, 1, 0
3, 27079, Note_on_c, 1, 34, 103
3, 27130, Note_on_c, 1, 34, 0
3, 27130, Note_on_c, 1, 48, 103
3, 27198, Pitch_bend_c, 1, 8256
3, 27200, Pitch_bend_c, 1, 8320
3, 27204, Pitch_bend_c, 1, 8448
3, 27206, Pitch_bend_c, 1, 8544
3, 27208, Pitch_bend_c, 1, 8672
3, 27210, Pitch_bend_c, 1, 8768
3, 27212, Pitch_bend_c, 1, 8864
3, 27214, Pitch_bend_c, 1, 8928
3, 27220, Pitch_bend_c, 1, 8832
3, 27222, Pitch_bend_c, 1, 8768
3, 27224, Pitch_bend_c, 1, 8704
3, 27226, Pitch_bend_c, 1, 8608
3, 27228, Pitch_bend_c, 1, 8544
3, 27230, Pitch_bend_c, 1, 8448
3, 27232, Pitch_bend_c, 1, 8384
3, 27234, Pitch_bend_c, 1, 8320
3, 27236, Pitch_bend_c, 1, 8256
3, 27238, Pitch_bend_c, 1, 8192
3, 27250, Control_c, 1, 1, 6
3, 27265, Control_c, 1, 1, 43
3, 27280, Control_c, 1, 1, 56
3, 27295, Control_c, 1, 1, 23
3, 27310, Control_c, 1, 1, 3
3, 27323, Note_on_c, 1, 48, 0
3, 27323, Control_c, 1, 1, 0
3, 27323, Note_on_c, 1, 39, 103
3, 27441, Pitch_bend_c, 1, 8256
3, 27447, Pitch_bend_c, 1, 8320
3, 27451, Pitch_bend_c, 1, 8416
3, 27455, Pitch_bend_c, 1, 8480
3, 27457, Pitch_bend_c, 1, 8544
3, 27459, Pitch_bend_c, 1, 8640
3, 27461, Pitch_bend_c, 1, 8704
3, 27463, Pitch_bend_c, 1, 8800
3, 27465, Pitch_bend_c, 1, 8960
3, 27467, Pitch_bend_c, 1, 9088
3, 27469, Pitch_bend_c, 1, 9184
3, 27471, Pitch_bend_c, 1, 9280
3, 27473, Pitch_bend_c, 1, 9344
3, 27475, Pitch_bend_c, 1, 9440
3, 27477, Pitch_bend_c, 1, 9504
3, 27487, Pitch_bend_c, 1, 9440
3, 27489, Pitch_bend_c, 1, 9344
3, 27491, Pitch_bend_c, 1, 9280
3, 27495, Pitch_bend_c, 1, 9184
3, 27497, Pitch_bend_c, 1, 9088
3, 27499, Pitch_bend_c, 1, 8992
3, 27501, Pitch_bend_c, 1, 8928
3, 27503, Pitch_bend_c, 1, 8864
3, 27505, Pitch_bend_c, 1, 8768
3, 27507, Pitch_bend_c, 1, 8672
3, 27509, Pitch_bend_c, 1, 8608
3, 27511, Pitch_bend_c, 1, 8544
3, 27513, Pitch_bend_c, 1, 8480
3, 27515, Pitch_bend_c, 1, 8416
3, 27517, Pitch_bend_c, 1, 8352
3, 27521, Pitch_bend_c, 1, 8256
3, 27523, Pitch_bend_c, 1, 8192
3, 27533, Control_c, 1, 1, 5
3, 27563, Control_c, 1, 1, 32
3, 27578, Control_c, 1, 1, 56
3, 27593, Control_c, 1, 1, 66
3, 27623, Control_c, 1, 1, 38
3, 27638, Control_c, 1, 1, 15
3, 27653, Control_c, 1, 1, 5
3, 27668, Control_c, 1, 1, 0
3, 27679, Note_on_c, 1, 39, 0
3, 27679, Note_on_c, 1, 51, 103
3, 27719, Pitch_bend_c, 1, 8256
3, 27721, Pitch_bend_c, 1, 8384
3, 27723, Pitch_bend_c, 1, 8480
3, 27725, Pitch_bend_c, 1, 8672
3, 27727, Pitch_bend_c, 1, 8992
3, 27729, Pitch_bend_c, 1, 9312
3, 27735, Pitch_bend_c, 1, 9120
3, 27737, Pitch_bend_c, 1, 8832
3, 27739, Pitch_bend_c, 1, 8640
3, 27741, Pitch_bend_c, 1, 8480
3, 27743, Pitch_bend_c, 1, 8320
3, 27745, Pitch_bend_c, 1, 8192
3, 27754, Control_c, 1, 1, 14
3, 27769, Control_c, 1, 1, 72
3, 27784, Control_c, 1, 1, 11
3, 27795, Note_on_c, 1, 51, 0
3, 27795, Control_c, 1, 1, 0
3, 27795, Note_on_c, 1, 39, 103
3, 27854, Note_on_c, 1, 39, 0
3, 27854, Note_on_c, 1, 53, 108
3, 27859, Note_on_c, 1, 53, 0
3, 27859, Note_on_c, 1, 51, 103
3, 27919, Pitch_bend_c, 1, 8288
3, 27923, Pitch_bend_c, 1, 8416
3, 27925, Pitch_bend_c, 1, 8480
3, 27927, Pitch_bend_c, 1, 8608
3, 27929, Pitch_bend_c, 1, 8800
3, 27931, Pitch_bend_c, 1, 9056
3, 27933, Pitch_bend_c, 1, 9280
3, 27935, Pitch_bend_c, 1, 9472
3, 27937, Pitch_bend_c, 1, 9568
3, 27941, Pitch_bend_c, 1, 9504
3, 27943, Pitch_bend_c, 1, 9344
3, 27945, Pitch_bend_c, 1, 9248
3, 27947, Pitch_bend_c, 1, 9056
3, 27949, Pitch_bend_c, 1, 8928
3, 27951, Pitch_bend_c, 1, 8768
3, 27953, Pitch_bend_c, 1, 8608
3, 27955, Pitch_bend_c, 1, 8448
3, 27957, Pitch_bend_c, 1, 8352
3, 27959, Pitch_bend_c, 1, 8192
3, 27979, Control_c, 1, 1, 21
3, 27994, Control_c, 1, 1, 56
3, 28009, Control_c, 1, 1, 33
3, 28024, Control_c, 1, 1, 5
3, 28038, Note_on_c, 1, 51, 0
3, 28038, Control_c, 1, 1, 0
3, 28038, Note_on_c, 1, 50, 103
3, 28101, Note_on_c, 1, 50, 0
3, 28101, Note_on_c, 1, 46, 103
3, 28157, Pitch_bend_c, 1, 8256
3, 28161, Pitch_bend_c, 1, 8352
3, 28163, Pitch_bend_c, 1, 8448
3, 28165, Pitch_bend_c, 1, 8544
3, 28167, Pitch_bend_c, 1, 8736
3, 28169, Pitch_bend_c, 1, 8992
3, 28171, Pitch_bend_c, 1, 9216
3, 28173, Pitch_bend_c, 1, 9376
3, 28175, Pitch_bend_c, 1, 9440
3, 28179, Pitch_bend_c, 1, 9376
3, 28181, Pitch_bend_c, 1, 9216
3, 28183, Pitch_bend_c, 1, 9120
3, 28185, Pitch_bend_c, 1, 8928
3, 28187, Pitch_bend_c, 1, 8768
3, 28189, Pitch_bend_c, 1, 8608
3, 28191, Pitch_bend_c, 1, 8480
3, 28193, Pitch_bend_c, 1, 8352
3, 28195, Pitch_bend_c, 1, 8256
3, 28197, Pitch_bend_c, 1, 8192
3, 28221, Control_c, 1, 1, 29
3, 28236, Control_c, 1, 1, 36
3, 28251, Control_c, 1, 1, 8
3, 28266, Control_c, 1, 1, 0
3, 28270, Note_on_c, 1, 46, 0
3, 28270, Note_on_c, 1, 42, 103
3, 28327, Note_on_c, 1, 42, 0
3, 28327, Note_on_c, 1, 43, 103
3, 28387, Pitch_bend_c, 1, 8256
3, 28391, Pitch_bend_c, 1, 8352
3, 28393, Pitch_bend_c, 1, 8416
3, 28395, Pitch_bend_c, 1, 8512
3, 28397, Pitch_bend_c, 1, 8640
3, 28399, Pitch_bend_c, 1, 8832
3, 28401, Pitch_bend_c, 1, 8992
3, 28403, Pitch_bend_c, 1, 9120
3, 28405, Pitch_bend_c, 1, 9216
3, 28411, Pitch_bend_c, 1, 9056
3, 28413, Pitch_bend_c, 1, 8992
3, 28415, Pitch_bend_c, 1, 8832
3, 28417, Pitch_bend_c, 1, 8736
3, 28419, Pitch_bend_c, 1, 8608
3, 28421, Pitch_bend_c, 1, 8480
3, 28423, Pitch_bend_c, 1, 8384
3, 28425, Pitch_bend_c, 1, 8288
3, 28427, Pitch_bend_c, 1, 8192
3, 28447, Control_c, 1, 1, 14
3, 28462, Control_c, 1, 1, 38
3, 28477, Control_c, 1, 1, 22
3, 28492, Control_c, 1, 1, 3
3, 28506, Note_on_c, 1, 43, 0
3, 28506, Control_c, 1, 1, 0
3, 28506, Note_on_c, 1, 38, 103
3, 28564, Note_on_c, 1, 38, 0
3, 28564, Note_on_c, 1, 34, 103
3, 28600, Pitch_bend_c, 1, 8288
3, 28602, Pitch_bend_c, 1, 8352
3, 28604, Pitch_bend_c, 1, 8416
3, 28606, Pitch_bend_c, 1, 8512
3, 28608, Pitch_bend_c, 1, 8768
3, 28610, Pitch_bend_c, 1, 8896
3, 28612, Pitch_bend_c, 1, 9024
3, 28614, Pitch_bend_c, 1, 9088
3, 28618, Pitch_bend_c, 1, 9152
3, 28624, Pitch_bend_c, 1, 9024
3, 28626, Pitch_bend_c, 1, 8960
3, 28628, Pitch_bend_c, 1, 8768
3, 28630, Pitch_bend_c, 1, 8640
3, 28632, Pitch_bend_c, 1, 8544
3, 28634, Pitch_bend_c, 1, 8480
3, 28636, Pitch_bend_c, 1, 8416
3, 28638, Pitch_bend_c, 1, 8352
3, 28640, Pitch_bend_c, 1, 8288
3, 28644, Pitch_bend_c, 1, 8192
3, 28681, Note_on_c, 1, 34, 0
3, 28681, Note_on_c, 1, 35, 103
3, 28723, Pitch_bend_c, 1, 8256
3, 28725, Pitch_bend_c, 1, 8352
3, 28727, Pitch_bend_c, 1, 8448
3, 28729, Pitch_bend_c, 1, 8608
3, 28731, Pitch_bend_c, 1, 8896
3, 28733, Pitch_bend_c, 1, 9184
3, 28739, Pitch_bend_c, 1, 8992
3, 28741, Pitch_bend_c, 1, 8832
3, 28743, Pitch_bend_c, 1, 8672
3, 28745, Pitch_bend_c, 1, 8512
3, 28747, Pitch_bend_c, 1, 8352
3, 28749, Pitch_bend_c, 1, 8256
3, 28751, Pitch_bend_c, 1, 8192
3, 28771, Control_c, 1, 1, 38
3, 28786, Control_c, 1, 1, 11
3, 28801, Control_c, 1, 1, 0
3, 28802, Note_on_c, 1, 35, 0
3, 28802, Note_on_c, 1, 36, 103
3, 28866, Pitch_bend_c, 1, 8256
3, 28870, Pitch_bend_c, 1, 8352
3, 28872, Pitch_bend_c, 1, 8416
3, 28874, Pitch_bend_c, 1, 8480
3, 28876, Pitch_bend_c, 1, 8640
3, 28878, Pitch_bend_c, 1, 8800
3, 28880, Pitch_bend_c, 1, 8992
3, 28882, Pitch_bend_c, 1, 9120
3, 28884, Pitch_bend_c, 1, 9280
3, 28892, Pitch_bend_c, 1, 9120
3, 28894, Pitch_bend_c, 1, 9024
3, 28896, Pitch_bend_c, 1, 8896
3, 28898, Pitch_bend_c, 1, 8800
3, 28900, Pitch_bend_c, 1, 8640
3, 28902, Pitch_bend_c, 1, 8544
3, 28904, Pitch_bend_c, 1, 8416
3, 28906, Pitch_bend_c, 1, 8320
3, 28908, Pitch_bend_c, 1, 8256
3, 28910, Pitch_bend_c, 1, 8192
3, 28922, Control_c, 1, 1, 9
3, 28937, Control_c, 1, 1, 52
3, 28952, Control_c, 1, 1, 65
3, 28967, Control_c, 1, 1, 22
3, 28982, Control_c, 1, 1, 3
3, 28993, Note_on_c, 1, 36, 0
3, 28993, Control_c, 1, 1, 0
3, 28993, Note_on_c, 1, 48, 103
3, 29050, Note_on_c, 1, 48, 0
3, 29050, Note_on_c, 1, 48, 103
3, 29110, Pitch_bend_c, 1, 8256
3, 29112, Pitch_bend_c, 1, 8320
3, 29114, Pitch_bend_c, 1, 8384
3, 29116, Pitch_bend_c, 1, 8448
3, 29118, Pitch_bend_c, 1, 8576
3, 29120, Pitch_bend_c, 1, 8736
3, 29122, Pitch_bend_c, 1, 8864
3, 29124, Pitch_bend_c, 1, 8992
3, 29132, Pitch_bend_c, 1, 8864
3, 29134, Pitch_bend_c, 1, 8800
3, 29136, Pitch_bend_c, 1, 8672
3, 29138, Pitch_bend_c, 1, 8576
3, 29140, Pitch_bend_c, 1, 8480
3, 29142, Pitch_bend_c, 1, 8384
3, 29144, Pitch_bend_c, 1, 8288
3, 29148, Pitch_bend_c, 1, 8192
3, 29170, Control_c, 1, 1, 28
3, 29185, Control_c, 1, 1, 38
3, 29200, Control_c, 1, 1, 12
3, 29215, Control_c, 1, 1, 1
3, 29223, Note_on_c, 1, 48, 0
3, 29223, Control_c, 1, 1, 0
3, 29223, Note_on_c, 1, 48, 103
3, 29327, Pitch_bend_c, 1, 8256
3, 29333, Pitch_bend_c, 1, 8352
3, 29337, Pitch_bend_c, 1, 8416
3, 29339, Pitch_bend_c, 1, 8480
3, 29341, Pitch_bend_c, 1, 8544
3, 29343, Pitch_bend_c, 1, 8640
3, 29345, Pitch_bend_c, 1, 8736
3, 29347, Pitch_bend_c, 1, 8864
3, 29349, Pitch_bend_c, 1, 8960
3, 29351, Pitch_bend_c, 1, 9056
3, 29353, Pitch_bend_c, 1, 9120
3, 29355, Pitch_bend_c, 1, 9216
3, 29367, Pitch_bend_c, 1, 9088
3, 29371, Pitch_bend_c, 1, 9024
3, 29373, Pitch_bend_c, 1, 8928
3, 29375, Pitch_bend_c, 1, 8832
3, 29379, Pitch_bend_c, 1, 8704
3, 29381, Pitch_bend_c, 1, 8640
3, 29383, Pitch_bend_c, 1, 8544
3, 29385, Pitch_bend_c, 1, 8480
3, 29389, Pitch_bend_c, 1, 8352
3, 29393, Pitch_bend_c, 1, 8288
3, 29395, Pitch_bend_c, 1, 8192
3, 29418, Control_c, 1, 1, 10
3, 29433, Control_c, 1, 1, 41
3, 29448, Control_c, 1, 1, 62
3, 29463, Control_c, 1, 1, 67
3, 29493, Control_c, 1, 1, 17
3, 29508, Control_c, 1, 1, 6
3, 29523, Control_c, 1, 1, 0
3, 29531, Note_on_c, 1, 48, 0
3, 29537, Note_on_c, 1, 42, 109
3, 29549, Note_on_c, 1, 42, 0
3, 29585, Note_on_c, 1, 42, 103
3, 29638, Note_on_c, 1, 42, 0
3, 29638, Note_on_c, 1, 43, 103
3, 29682, Pitch_bend_c, 1, 8256
3, 29684, Pitch_bend_c, 1, 8352
3, 29686, Pitch_bend_c, 1, 8448
3, 29688, Pitch_bend_c, 1, 8608
3, 29690, Pitch_bend_c, 1, 8896
3, 29692, Pitch_bend_c, 1, 9056
3, 29694, Pitch_bend_c, 1, 9184
3, 29698, Pitch_bend_c, 1, 9024
3, 29700, Pitch_bend_c, 1, 8928
3, 29702, Pitch_bend_c, 1, 8672
3, 29704, Pitch_bend_c, 1, 8480
3, 29706, Pitch_bend_c, 1, 8352
3, 29708, Pitch_bend_c, 1, 8256
3, 29710, Pitch_bend_c, 1, 8192
3, 29728, Control_c, 1, 1, 51
3, 29758, Control_c, 1, 1, 3
3, 29764, Note_on_c, 1, 43, 0
3, 29764, Control_c, 1, 1, 0
3, 29764, Note_on_c, 1, 44, 103
3, 29824, Pitch_bend_c, 1, 8256
3, 29828, Pitch_bend_c, 1, 8384
3, 29830, Pitch_bend_c, 1, 8448
3, 29832, Pitch_bend_c, 1, 8544
3, 29834, Pitch_bend_c, 1, 8704
3, 29836, Pitch_bend_c, 1, 8928
3, 29838, Pitch_bend_c, 1, 9152
3, 29840, Pitch_bend_c, 1, 9280
3, 29842, Pitch_bend_c, 1, 9376
3, 29848, Pitch_bend_c, 1, 9184
3, 29850, Pitch_bend_c, 1, 9120
3, 29852, Pitch_bend_c, 1, 8960
3, 29854, Pitch_bend_c, 1, 8832
3, 29856, Pitch_bend_c, 1, 8672
3, 29858, Pitch_bend_c, 1, 8544
3, 29860, Pitch_bend_c, 1, 8416
3, 29862, Pitch_bend_c, 1, 8320
3, 29864, Pitch_bend_c, 1, 8192
3, 29869, Control_c, 1, 1, 5
3, 29884, Control_c, 1, 1, 27
3, 29899, Control_c, 1, 1, 72
3, 29914, Control_c, 1, 1, 42
3, 29929, Control_c, 1, 1, 7
3, 29943, Note_on_c, 1, 44, 0
3, 29943, Control_c, 1, 1, 0
3, 29943, Note_on_c, 1, 39, 103
3, 30005, Pitch_bend_c, 1, 8256
3, 30009, Pitch_bend_c, 1, 8352
3, 30013, Pitch_bend_c, 1, 8480
3, 30015, Pitch_bend_c, 1, 8608
3, 30017, Pitch_bend_c, 1, 8768
3, 30019, Pitch_bend_c, 1, 8896
3, 30021, Pitch_bend_c, 1, 8992
3, 30023, Pitch_bend_c, 1, 9056
3, 30029, Pitch_bend_c, 1, 8928
3, 30031, Pitch_bend_c, 1, 8864
3, 30033, Pitch_bend_c, 1, 8736
3, 30035, Pitch_bend_c, 1, 8640
3, 30037, Pitch_bend_c, 1, 8544
3, 30039, Pitch_bend_c, 1, 8448
3, 30041, Pitch_bend_c, 1, 8352
3, 30043, Pitch_bend_c, 1, 8288
3, 30045, Pitch_bend_c, 1, 8192
3, 30063, Control_c, 1, 1, 17
3, 30078, Control_c, 1, 1, 70
3, 30108, Control_c, 1, 1, 11
3, 30123, Control_c, 1, 1, 0
3, 30126, Note_on_c, 1, 39, 0
3, 30126, Note_on_c, 1, 32, 103
3, 30246, Pitch_bend_c, 1, 8256
3, 30250, Pitch_bend_c, 1, 8320
3, 30256, Pitch_bend_c, 1, 8384
3, 30258, Pitch_bend_c, 1, 8448
3, 30260, Pitch_bend_c, 1, 8512
3, 30262, Pitch_bend_c, 1, 8576
3, 30264, Pitch_bend_c, 1, 8640
3, 30266, Pitch_bend_c, 1, 8736
3, 30270, Pitch_bend_c, 1, 8832
3, 30272, Pitch_bend_c, 1, 8896
3, 30276, Pitch_bend_c, 1, 8960
3, 30286, Pitch_bend_c, 1, 8896
3, 30288, Pitch_bend_c, 1, 8832
3, 30292, Pitch_bend_c, 1, 8768
3, 30296, Pitch_bend_c, 1, 8672
3, 30300, Pitch_bend_c, 1, 8576
3, 30304, Pitch_bend_c, 1, 8480
3, 30308, Pitch_bend_c, 1, 8384
3, 30312, Pitch_bend_c, 1, 8320
3, 30316, Pitch_bend_c, 1, 8256
3, 30318, Pitch_bend_c, 1, 8192
3, 30351, Control_c, 1, 1, 10
3, 30366, Control_c, 1, 1, 34
3, 30381, Control_c, 1, 1, 43
3, 30426, Control_c, 1, 1, 13
3, 30441, Control_c, 1, 1, 5
3, 30471, Note_on_c, 1, 32, 0
3, 30471, Control_c, 1, 1, 0
3, 30471, Note_on_c, 1, 44, 103
3, 30531, Note_on_c, 1, 44, 0
3, 30531, Note_on_c, 1, 44, 103
3, 30579, Note_on_c, 1, 44, 0
3, 30579, Note_on_c, 1, 46, 103
3, 30650, Note_on_c, 1, 46, 0
3, 30650, Note_on_c, 1, 47, 103
3, 30718, Note_on_c, 1, 47, 0
3, 30718, Note_on_c, 1, 48, 103
3, 30782, Pitch_bend_c, 1, 8256
3, 30786, Pitch_bend_c, 1, 8384
3, 30788, Pitch_bend_c, 1, 8448
3, 30790, Pitch_bend_c, 1, 8544
3, 30792, Pitch_bend_c, 1, 8672
3, 30794, Pitch_bend_c, 1, 8864
3, 30796, Pitch_bend_c, 1, 9056
3, 30798, Pitch_bend_c, 1, 9216
3, 30800, Pitch_bend_c, 1, 9344
3, 30806, Pitch_bend_c, 1, 9248
3, 30808, Pitch_bend_c, 1, 9152
3, 30810, Pitch_bend_c, 1, 9056
3, 30812, Pitch_bend_c, 1, 8896
3, 30814, Pitch_bend_c, 1, 8768
3, 30816, Pitch_bend_c, 1, 8640
3, 30818, Pitch_bend_c, 1, 8512
3, 30820, Pitch_bend_c, 1, 8416
3, 30822, Pitch_bend_c, 1, 8320
3, 30824, Pitch_bend_c, 1, 8192
3, 30838, Control_c, 1, 1, 7
3, 30853, Control_c, 1, 1, 44
3, 30868, Control_c, 1, 1, 55
3, 30883, Control_c, 1, 1, 16
3, 30898, Control_c, 1, 1, 2
3, 30908, Note_on_c, 1, 48, 0
3, 30908, Control_c, 1, 1, 0
3, 30914, Note_on_c, 1, 43, 103
3, 31008, Pitch_bend_c, 1, 8256
3, 31014, Pitch_bend_c, 1, 8352
3, 31016, Pitch_bend_c, 1, 8416
3, 31020, Pitch_bend_c, 1, 8512
3, 31022, Pitch_bend_c, 1, 8608
3, 31024, Pitch_bend_c, 1, 8704
3, 31026, Pitch_bend_c, 1, 8832
3, 31028, Pitch_bend_c, 1, 8992
3, 31030, Pitch_bend_c, 1, 9088
3, 31032, Pitch_bend_c, 1, 9184
3, 31034, Pitch_bend_c, 1, 9280
3, 31036, Pitch_bend_c, 1, 9344
3, 31044, Pitch_bend_c, 1, 9248
3, 31046, Pitch_bend_c, 1, 9152
3, 31050, Pitch_bend_c, 1, 9056
3, 31052, Pitch_bend_c, 1, 8928
3, 31054, Pitch_bend_c, 1, 8864
3, 31056, Pitch_bend_c, 1, 8768
3, 31058, Pitch_bend_c, 1, 8672
3, 31060, Pitch_bend_c, 1, 8576
3, 31062, Pitch_bend_c, 1, 8512
3, 31064, Pitch_bend_c, 1, 8448
3, 31066, Pitch_bend_c, 1, 8352
3, 31070, Pitch_bend_c, 1, 8256
3, 31072, Pitch_bend_c, 1, 8192
3, 31094, Control_c, 1, 1, 6
3, 31109, Control_c, 1, 1, 28
3, 31124, Control_c, 1, 1, 37
3, 31154, Control_c, 1, 1, 15
3, 31169, Control_c, 1, 1, 4
3, 31195, Note_on_c, 1, 43, 0
3, 31195, Control_c, 1, 1, 0
3, 31211, Note_on_c, 1, 41, 103
3, 31273, Pitch_bend_c, 1, 8256
3, 31277, Pitch_bend_c, 1, 8352
3, 31279, Pitch_bend_c, 1, 8416
3, 31281, Pitch_bend_c, 1, 8512
3, 31283, Pitch_bend_c, 1, 8640
3, 31285, Pitch_bend_c, 1, 8864
3, 31287, Pitch_bend_c, 1, 9056
3, 31289, Pitch_bend_c, 1, 9216
3, 31291, Pitch_bend_c, 1, 9376
3, 31297, Pitch_bend_c, 1, 9280
3, 31299, Pitch_bend_c, 1, 9152
3, 31301, Pitch_bend_c, 1, 9088
3, 31303, Pitch_bend_c, 1, 8896
3, 31305, Pitch_bend_c, 1, 8800
3, 31307, Pitch_bend_c, 1, 8640
3, 31309, Pitch_bend_c, 1, 8512
3, 31311, Pitch_bend_c, 1, 8416
3, 31313, Pitch_bend_c, 1, 8320
3, 31315, Pitch_bend_c, 1, 8192
3, 31331, Control_c, 1, 1, 12
3, 31346, Control_c, 1, 1, 56
3, 31361, Control_c, 1, 1, 64
3, 31376, Control_c, 1, 1, 14
3, 31391, Control_c, 1, 1, 1
3, 31397, Note_on_c, 1, 41, 0
3, 31397, Control_c, 1, 1, 0
3, 31397, Note_on_c, 1, 29, 103
3, 31481, Pitch_bend_c, 1, 8256
3, 31487, Pitch_bend_c, 1, 8320
3, 31491, Pitch_bend_c, 1, 8384
3, 31493, Pitch_bend_c, 1, 8448
3, 31497, Pitch_bend_c, 1, 8512
3, 31499, Pitch_bend_c, 1, 8576
3, 31501, Pitch_bend_c, 1, 8640
3, 31503, Pitch_bend_c, 1, 8736
3, 31505, Pitch_bend_c, 1, 8864
3, 31507, Pitch_bend_c, 1, 8992
3, 31509, Pitch_bend_c, 1, 9152
3, 31511, Pitch_bend_c, 1, 9248
3, 31513, Pitch_bend_c, 1, 9344
3, 31515, Pitch_bend_c, 1, 9408
3, 31517, Pitch_bend_c, 1, 9472
3, 31519, Pitch_bend_c, 1, 9536
3, 31527, Pitch_bend_c, 1, 9440
3, 31529, Pitch_bend_c, 1, 9248
3, 31531, Pitch_bend_c, 1, 8960
3, 31533, Pitch_bend_c, 1, 8832
3, 31535, Pitch_bend_c, 1, 8736
3, 31537, Pitch_bend_c, 1, 8640
3, 31539, Pitch_bend_c, 1, 8512
3, 31541, Pitch_bend_c, 1, 8448
3, 31545, Pitch_bend_c, 1, 8384
3, 31549, Pitch_bend_c, 1, 8288
3, 31557, Pitch_bend_c, 1, 8192
3, 31592, Control_c, 1, 1, 7
3, 31607, Control_c, 1, 1, 17
3, 31622, Control_c, 1, 1, 26
3, 31637, Control_c, 1, 1, 31
3, 31667, Control_c, 1, 1, 15
3, 31727, Control_c, 1, 1, 21
3, 31742, Control_c, 1, 1, 35
3, 31757, Control_c, 1, 1, 52
3, 31772, Control_c, 1, 1, 58
3, 31817, Control_c, 1, 1, 16
3, 31832, Control_c, 1, 1, 2
3, 31847, Control_c, 1, 1, 0
3, 31875, Note_on_c, 1, 29, 0
3, 31875, Note_on_c, 1, 41, 103
3, 31934, Note_on_c, 1, 41, 0
3, 31934, Note_on_c, 1, 41, 103
3, 32034, Pitch_bend_c, 1, 8288
3, 32040, Pitch_bend_c, 1, 8384
3, 32044, Pitch_bend_c, 1, 8480
3, 32046, Pitch_bend_c, 1, 8544
3, 32048, Pitch_bend_c, 1, 8640
3, 32050, Pitch_bend_c, 1, 8736
3, 32052, Pitch_bend_c, 1, 8864
3, 32054, Pitch_bend_c, 1, 9024
3, 32056, Pitch_bend_c, 1, 9152
3, 32058, Pitch_bend_c, 1, 9248
3, 32060, Pitch_bend_c, 1, 9344
3, 32062, Pitch_bend_c, 1, 9440
3, 32072, Pitch_bend_c, 1, 9312
3, 32074, Pitch_bend_c, 1, 9248
3, 32076, Pitch_bend_c, 1, 9184
3, 32078, Pitch_bend_c, 1, 9120
3, 32080, Pitch_bend_c, 1, 8992
3, 32082, Pitch_bend_c, 1, 8928
3, 32084, Pitch_bend_c, 1, 8832
3, 32086, Pitch_bend_c, 1, 8736
3, 32088, Pitch_bend_c, 1, 8640
3, 32090, Pitch_bend_c, 1, 8544
3, 32092, Pitch_bend_c, 1, 8480
3, 32094, Pitch_bend_c, 1, 8416
3, 32096, Pitch_bend_c, 1, 8352
3, 32098, Pitch_bend_c, 1, 8288
3, 32100, Pitch_bend_c, 1, 8192
3, 32114, Control_c, 1, 1, 5
3, 32129, Control_c, 1, 1, 18
3, 32144, Control_c, 1, 1, 51
3, 32159, Control_c, 1, 1, 62
3, 32189, Control_c, 1, 1, 26
3, 32204, Control_c, 1, 1, 8
3, 32219, Control_c, 1, 1, 2
3, 32231, Note_on_c, 1, 41, 0
3, 32231, Control_c, 1, 1, 0
3, 32231, Note_on_c, 1, 29, 103
3, 32290, Note_on_c, 1, 29, 0
3, 32290, Note_on_c, 1, 29, 103
3, 32330, Pitch_bend_c, 1, 8256
3, 32334, Pitch_bend_c, 1, 8384
3, 32336, Pitch_bend_c, 1, 8544
3, 32338, Pitch_bend_c, 1, 8768
3, 32340, Pitch_bend_c, 1, 8928
3, 32342, Pitch_bend_c, 1, 9024
3, 32344, Pitch_bend_c, 1, 8960
3, 32346, Pitch_bend_c, 1, 8864
3, 32348, Pitch_bend_c, 1, 8704
3, 32350, Pitch_bend_c, 1, 8608
3, 32352, Pitch_bend_c, 1, 8448
3, 32354, Pitch_bend_c, 1, 8288
3, 32356, Pitch_bend_c, 1, 8192
3, 32365, Control_c, 1, 1, 14
3, 32380, Control_c, 1, 1, 74
3, 32395, Control_c, 1, 1, 13
3, 32407, Note_on_c, 1, 29, 0
3, 32407, Control_c, 1, 1, 0
3, 32407, Note_on_c, 1, 29, 103
3, 32447, Pitch_bend_c, 1, 8256
3, 32451, Pitch_bend_c, 1, 8384
3, 32453, Pitch_bend_c, 1, 8544
3, 32455, Pitch_bend_c, 1, 8800
3, 32457, Pitch_bend_c, 1, 8928
3, 32459, Pitch_bend_c, 1, 9024
3, 32463, Pitch_bend_c, 1, 8864
3, 32465, Pitch_bend_c, 1, 8704
3, 32467, Pitch_bend_c, 1, 8608
3, 32469, Pitch_bend_c, 1, 8448
3, 32471, Pitch_bend_c, 1, 8288
3, 32473, Pitch_bend_c, 1, 8192
3, 32482, Control_c, 1, 1, 9
3, 32497, Control_c, 1, 1, 49
3, 32512, Control_c, 1, 1, 8
3, 32524, Note_on_c, 1, 29, 0
3, 32524, Control_c, 1, 1, 0
3, 32524, Note_on_c, 1, 29, 103
3, 32598, Note_on_c, 1, 45, 40
3, 32610, Note_on_c, 1, 45, 0
3, 32610, Note_on_c, 1, 29, 0
3, 32638, Note_on_c, 1, 46, 42
3, 32748, Note_on_c, 1, 46, 0
3, 32762, Note_on_c, 1, 41, 47
3, 32885, Note_on_c, 1, 41, 0
3, 32885, Note_on_c, 1, 38, 43
3, 33002, Note_on_c, 1, 38, 0
3, 33004, Note_on_c, 1, 33, 64
3, 33125, Note_on_c, 1, 33, 0
3, 33125, Note_on_c, 1, 34, 59
3, 33244, Note_on_c, 1, 34, 0
3, 33244, Note_on_c, 1, 36, 60
3, 33357, Note_on_c, 1, 36, 0
3, 33363, Note_on_c, 1, 38, 58
3, 33485, Note_on_c, 1, 38, 0
3, 33485, Note_on_c, 1, 37, 71
3, 33560, Note_on_c, 1, 37, 0
3, 33567, Note_on_c, 1, 34, 48
3, 33601, Note_on_c, 1, 34, 0
3, 33606, Note_on_c, 1, 36, 49
3, 33697, Note_on_c, 1, 34, 35
3, 33721, Note_on_c, 1, 36, 0
3, 33725, Note_on_c, 1, 50, 71
3, 33742, Note_on_c, 1, 34, 0
3, 33829, Note_on_c, 1, 50, 0
3, 33844, Note_on_c, 1, 48, 44
3, 33935, Note_on_c, 1, 44, 25
3, 33951, Note_on_c, 1, 44, 0
3, 33957, Note_on_c, 1, 48, 0
3, 33960, Note_on_c, 1, 49, 55
3, 34073, Note_on_c, 1, 49, 0
3, 34078, Note_on_c, 1, 52, 36
3, 34166, Note_on_c, 1, 43, 42
3, 34186, Note_on_c, 1, 52, 0
3, 34193, Note_on_c, 1, 43, 0
3, 34202, Note_on_c, 1, 51, 50
3, 34315, Note_on_c, 1, 51, 0
3, 34320, Note_on_c, 1, 50, 44
3, 34407, Note_on_c, 1, 43, 36
3, 34418, Note_on_c, 1, 50, 0
3, 34420, Note_on_c, 1, 43, 0
3, 34438, Note_on_c, 1, 49, 49
3, 34557, Note_on_c, 1, 49, 0
3, 34560, Note_on_c, 1, 48, 49
3, 34677, Note_on_c, 1, 39, 69
3, 34680, Note_on_c, 1, 48, 0
3, 34798, Note_on_c, 1, 39, 0
3, 34804, Note_on_c, 1, 43, 62
3, 34911, Note_on_c, 1, 43, 0
3, 34924, Note_on_c, 1, 42, 62
3, 35034, Note_on_c, 1, 42, 0
3, 35043, Note_on_c, 1, 41, 58
3, 35157, Note_on_c, 1, 41, 0
3, 35160, Note_on_c, 1, 29, 81
3, 35286, Note_on_c, 1, 29, 0
3, 35286, Note_on_c, 1, 36, 63
3, 35396, Note_on_c, 1, 36, 0
3, 35403, Note_on_c, 1, 37, 77
3, 35524, Note_on_c, 1, 37, 0
3, 35527, Note_on_c, 1, 38, 64
3, 35642, Note_on_c, 1, 44, 81
3, 35653, Note_on_c, 1, 38, 0
3, 35759, Note_on_c, 1, 44, 0
3, 35767, Note_on_c, 1, 48, 64
3, 35886, Note_on_c, 1, 42, 77
3, 35898, Note_on_c, 1, 48, 0
3, 36008, Note_on_c, 1, 43, 50
3, 36011, Note_on_c, 1, 42, 0
3, 36107, Note_on_c, 1, 42, 21
3, 36124, Note_on_c, 1, 42, 0
3, 36126, Note_on_c, 1, 53, 103
3, 36128, Note_on_c, 1, 43, 0
3, 36247, Note_on_c, 1, 47, 51
3, 36265, Note_on_c, 1, 53, 0
3, 36331, Note_on_c, 1, 43, 44
3, 36343, Note_on_c, 1, 43, 0
3, 36343, Note_on_c, 1, 47, 0
3, 36363, Note_on_c, 1, 50, 74
3, 36475, Note_on_c, 1, 50, 0
3, 36483, Note_on_c, 1, 48, 52
3, 36601, Note_on_c, 1, 48, 0
3, 36606, Note_on_c, 1, 36, 66
3, 36695, Note_on_c, 1, 43, 33
3, 36710, Note_on_c, 1, 43, 0
3, 36720, Note_on_c, 1, 36, 0
3, 36725, Note_on_c, 1, 51, 77
3, 36838, Note_on_c, 1, 51, 0
3, 36848, Note_on_c, 1, 49, 76
3, 36958, Note_on_c, 1, 49, 0
3, 36966, Note_on_c, 1, 50, 65
3, 37082, Note_on_c, 1, 38, 62
3, 37094, Note_on_c, 1, 50, 0
3, 37201, Note_on_c, 1, 38, 0
3, 37203, Note_on_c, 1, 42, 62
3, 37330, Note_on_c, 1, 47, 60
3, 37336, Note_on_c, 1, 42, 0
3, 37389, Note_on_c, 1, 47, 0
3, 37408, Note_on_c, 1, 42, 47
3, 37420, Note_on_c, 1, 42, 0
3, 37442, Note_on_c, 1, 47, 57
3, 37556, Note_on_c, 1, 47, 0
3, 37564, Note_on_c, 1, 43, 55
3, 37689, Note_on_c, 1, 38, 52
3, 37694, Note_on_c, 1, 43, 0
3, 37795, Note_on_c, 1, 38, 0
3, 37804, Note_on_c, 1, 35, 68
3, 37925, Note_on_c, 1, 32, 71
3, 37926, Note_on_c, 1, 35, 0
3, 38044, Note_on_c, 1, 32, 0
3, 38046, Note_on_c, 1, 31, 68
3, 38168, Note_on_c, 1, 38, 64
3, 38202, Note_on_c, 1, 31, 0
3, 38229, Note_on_c, 1, 38, 0
3, 38247, Note_on_c, 1, 34, 61
3, 38271, Note_on_c, 1, 34, 0
3, 38292, Note_on_c, 1, 35, 65
3, 38390, Note_on_c, 1, 35, 0
3, 38395, Note_on_c, 1, 36, 55
3, 38482, Note_on_c, 1, 34, 35
3, 38499, Note_on_c, 1, 36, 0
3, 38522, Note_on_c, 1, 34, 0
3, 38523, Note_on_c, 1, 37, 55
3, 38624, Note_on_c, 1, 37, 0
3, 38634, Note_on_c, 1, 40, 53
3, 38728, Note_on_c, 1, 36, 31
3, 38738, Note_on_c, 1, 40, 0
3, 38740, Note_on_c, 1, 36, 0
3, 38757, Note_on_c, 1, 43, 50
3, 38870, Note_on_c, 1, 43, 0
3, 38880, Note_on_c, 1, 48, 54
3, 38984, Note_on_c, 1, 48, 0
3, 39003, Note_on_c, 1, 49, 53
3, 39083, Note_on_c, 1, 43, 33
3, 39104, Note_on_c, 1, 43, 0
3, 39118, Note_on_c, 1, 49, 0
3, 39125, Note_on_c, 1, 48, 48
3, 39210, Note_on_c, 1, 42, 25
3, 39225, Note_on_c, 1, 48, 0
3, 39230, Note_on_c, 1, 42, 0
3, 39242, Note_on_c, 1, 48, 70
3, 39316, Note_on_c, 1, 42, 30
3, 39327, Note_on_c, 1, 42, 0
3, 39348, Note_on_c, 1, 48, 0
3, 39364, Note_on_c, 1, 47, 46
3, 39489, Note_on_c, 1, 42, 51
3, 39501, Note_on_c, 1, 47, 0
3, 39592, Note_on_c, 1, 42, 0
3, 39607, Note_on_c, 1, 42, 77
3, 39720, Note_on_c, 1, 42, 0
3, 39725, Note_on_c, 1, 39, 49
3, 39808, Note_on_c, 1, 42, 50
3, 39822, Note_on_c, 1, 39, 0
3, 39829, Note_on_c, 1, 42, 0
3, 39843, Note_on_c, 1, 46, 51
3, 39960, Note_on_c, 1, 44, 61
3, 39977, Note_on_c, 1, 46, 0
3, 40055, Note_on_c, 1, 42, 34
3, 40067, Note_on_c, 1, 42, 0
3, 40071, Note_on_c, 1, 44, 0
3, 40088, Note_on_c, 1, 45, 51
3, 40189, Note_on_c, 1, 45, 0
3, 40200, Note_on_c, 1, 47, 58
3, 40279, Note_on_c, 1, 47, 0
3, 40283, Note_on_c, 1, 45, 52
3, 40307, Note_on_c, 1, 45, 0
3, 40325, Note_on_c, 1, 46, 47
3, 40404, Note_on_c, 1, 46, 0
3, 40404, Note_on_c, 1, 41, 62
3, 40428, Note_on_c, 1, 41, 0
3, 40446, Note_on_c, 1, 38, 48
3, 40548, Note_on_c, 1, 38, 0
3, 40559, Note_on_c, 1, 41, 66
3, 40668, Note_on_c, 1, 41, 0
3, 40676, Note_on_c, 1, 34, 63
3, 40785, Note_on_c, 1, 34, 0
3, 40792, Note_on_c, 1, 33, 38
3, 40916, Note_on_c, 1, 33, 0
3, 40925, Note_on_c, 1, 34, 53
3, 41034, Note_on_c, 1, 34, 0
3, 41044, Note_on_c, 1, 35, 63
3, 41126, Note_on_c, 1, 35, 0
3, 41161, Note_on_c, 1, 35, 69
3, 41251, Note_on_c, 1, 34, 35
3, 41275, Note_on_c, 1, 35, 0
3, 41277, Note_on_c, 1, 34, 0
3, 41281, Note_on_c, 1, 36, 49
3, 41375, Note_on_c, 1, 34, 42
3, 41398, Note_on_c, 1, 36, 0
3, 41406, Note_on_c, 1, 50, 60
3, 41417, Note_on_c, 1, 34, 0
3, 41511, Note_on_c, 1, 50, 0
3, 41523, Note_on_c, 1, 48, 50
3, 41638, Note_on_c, 1, 48, 0
3, 41641, Note_on_c, 1, 42, 52
3, 41743, Note_on_c, 1, 39, 17
3, 41756, Note_on_c, 1, 39, 0
3, 41758, Note_on_c, 1, 42, 0
3, 41761, Note_on_c, 1, 43, 47
3, 41848, Note_on_c, 1, 42, 28
3, 41873, Note_on_c, 1, 43, 0
3, 41880, Note_on_c, 1, 42, 0
3, 41884, Note_on_c, 1, 49, 58
3, 41994, Note_on_c, 1, 49, 0
3, 42003, Note_on_c, 1, 48, 49
3, 42111, Note_on_c, 1, 48, 0
3, 42135, Note_on_c, 1, 43, 48
3, 42151, Note_on_c, 1, 43, 0
3, 42217, Note_on_c, 1, 43, 34
3, 42230, Note_on_c, 1, 43, 0
3, 42256, Note_on_c, 1, 47, 9
3, 42281, Note_on_c, 1, 48, 62
3, 42308, Note_on_c, 1, 48, 0
3, 42328, Note_on_c, 1, 47, 0
3, 42367, Note_on_c, 1, 48, 66
3, 42466, Note_on_c, 1, 48, 0
3, 42482, Note_on_c, 1, 43, 48
3, 42571, Note_on_c, 1, 39, 33
3, 42576, Note_on_c, 1, 43, 0
3, 42602, Note_on_c, 1, 42, 52
3, 42603, Note_on_c, 1, 39, 0
3, 42689, Note_on_c, 1, 39, 30
3, 42707, Note_on_c, 1, 42, 0
3, 42710, Note_on_c, 1, 39, 0
3, 42725, Note_on_c, 1, 41, 55
3, 42775, Note_on_c, 1, 41, 0
3, 42813, Note_on_c, 1, 41, 16
3, 42846, Note_on_c, 1, 29, 66
3, 42853, Note_on_c, 1, 41, 0
3, 42955, Note_on_c, 1, 29, 0
3, 42959, Note_on_c, 1, 31, 53
3, 43065, Note_on_c, 1, 31, 0
3, 43083, Note_on_c, 1, 36, 58
3, 43118, Note_on_c, 1, 36, 0
3, 43171, Note_on_c, 1, 34, 45
3, 43204, Note_on_c, 1, 38, 35
3, 43206, Note_on_c, 1, 34, 0
3, 43296, Note_on_c, 1, 37, 36
3, 43313, Note_on_c, 1, 38, 0
3, 43320, Note_on_c, 1, 37, 0
3, 43328, Note_on_c, 1, 44, 52
3, 43432, Note_on_c, 1, 44, 0
3, 43444, Note_on_c, 1, 48, 62
3, 43527, Note_on_c, 1, 32, 74
3, 43538, Note_on_c, 1, 48, 0
3, 43684, Note_on_c, 1, 32, 0
3, 43690, Note_on_c, 1, 31, 62
3, 43773, Note_on_c, 1, 38, 53
3, 43793, Note_on_c, 1, 38, 0
3, 43809, Note_on_c, 1, 47, 54
3, 43817, Note_on_c, 1, 31, 0
3, 43883, Note_on_c, 1, 38, 36
3, 43904, Note_on_c, 1, 38, 0
3, 43917, Note_on_c, 1, 47, 0
3, 43923, Note_on_c, 1, 50, 62
3, 44003, Note_on_c, 1, 34, 74
3, 44015, Note_on_c, 1, 50, 0
3, 44045, Note_on_c, 1, 34, 0
3, 44047, Note_on_c, 1, 35, 82
3, 44149, Note_on_c, 1, 35, 0
3, 44156, Note_on_c, 1, 36, 57
3, 44257, Note_on_c, 1, 34, 33
3, 44280, Note_on_c, 1, 36, 0
3, 44284, Note_on_c, 1, 51, 79
3, 44299, Note_on_c, 1, 34, 0
3, 44385, Note_on_c, 1, 51, 0
3, 44405, Note_on_c, 1, 53, 65
3, 44498, Note_on_c, 1, 38, 24
3, 44515, Note_on_c, 1, 38, 0
3, 44520, Note_on_c, 1, 53, 0
3, 44526, Note_on_c, 1, 50, 51
3, 44612, Note_on_c, 1, 38, 40
3, 44632, Note_on_c, 1, 38, 0
3, 44633, Note_on_c, 1, 50, 0
3, 44648, Note_on_c, 1, 51, 63
3, 44764, Note_on_c, 1, 51, 0
3, 44771, Note_on_c, 1, 49, 51
3, 44796, Note_on_c, 1, 51, 19
3, 44843, Note_on_c, 1, 42, 26
3, 44853, Note_on_c, 1, 42, 0
3, 44878, Note_on_c, 1, 51, 0
3, 44879, Note_on_c, 1, 49, 0
3, 44888, Note_on_c, 1, 46, 46
3, 44983, Note_on_c, 1, 46, 0
3, 45005, Note_on_c, 1, 47, 53
3, 45093, Note_on_c, 1, 43, 34
3, 45099, Note_on_c, 1, 47, 0
3, 45108, Note_on_c, 1, 43, 0
3, 45129, Note_on_c, 1, 46, 69
3, 45227, Note_on_c, 1, 46, 0
3, 45242, Note_on_c, 1, 41, 48
3, 45342, Note_on_c, 1, 41, 0
3, 45361, Note_on_c, 1, 43, 48
3, 45472, Note_on_c, 1, 43, 0
3, 45482, Note_on_c, 1, 39, 62
3, 45572, Note_on_c, 1, 37, 31
3, 45591, Note_on_c, 1, 39, 0
3, 45595, Note_on_c, 1, 37, 0
3, 45601, Note_on_c, 1, 40, 49
3, 45713, Note_on_c, 1, 40, 0
3, 45724, Note_on_c, 1, 34, 83
3, 45832, Note_on_c, 1, 34, 0
3, 45842, Note_on_c, 1, 33, 58
3, 45958, Note_on_c, 1, 33, 0
3, 45963, Note_on_c, 1, 37, 64
3, 46046, Note_on_c, 1, 34, 36
3, 46074, Note_on_c, 1, 37, 0
3, 46081, Note_on_c, 1, 34, 0
3, 46084, Note_on_c, 1, 38, 50
3, 46151, Note_on_c, 1, 38, 0
3, 46171, Note_on_c, 1, 38, 62
3, 46201, Note_on_c, 1, 38, 0
3, 46202, Note_on_c, 1, 40, 57
3, 46307, Note_on_c, 1, 40, 0
3, 46319, Note_on_c, 1, 42, 52
3, 46433, Note_on_c, 1, 38, 50
3, 46446, Note_on_c, 1, 42, 0
3, 46524, Note_on_c, 1, 37, 46
3, 46532, Note_on_c, 1, 38, 0
3, 46559, Note_on_c, 1, 39, 58
3, 46563, Note_on_c, 1, 37, 0
3, 46629, Note_on_c, 1, 37, 43
3, 46650, Note_on_c, 1, 39, 0
3, 46668, Note_on_c, 1, 37, 0
3, 46673, Note_on_c, 1, 42, 75
3, 46766, Note_on_c, 1, 42, 0
3, 46794, Note_on_c, 1, 45, 74
3, 46868, Note_on_c, 1, 45, 0
3, 46880, Note_on_c, 1, 38, 58
3, 46904, Note_on_c, 1, 38, 0
3, 46920, Note_on_c, 1, 39, 61
3, 47003, Note_on_c, 1, 37, 32
3, 47030, Note_on_c, 1, 39, 0
3, 47034, Note_on_c, 1, 37, 0
3, 47038, Note_on_c, 1, 40, 45
3, 47125, Note_on_c, 1, 39, 39
3, 47139, Note_on_c, 1, 40, 0
3, 47143, Note_on_c, 1, 46, 38
3, 47157, Note_on_c, 1, 39, 0
3, 47165, Note_on_c, 1, 47, 41
3, 47166, Note_on_c, 1, 46, 0
3, 47269, Note_on_c, 1, 47, 0
3, 47277, Note_on_c, 1, 52, 61
3, 47389, Note_on_c, 1, 52, 0
3, 47398, Note_on_c, 1, 46, 46
3, 47490, Note_on_c, 1, 44, 21
3, 47502, Note_on_c, 1, 46, 0
3, 47508, Note_on_c, 1, 44, 0
3, 47518, Note_on_c, 1, 45, 57
3, 47623, Note_on_c, 1, 45, 0
3, 47639, Note_on_c, 1, 45, 71
3, 47754, Note_on_c, 1, 45, 0
3, 47761, Note_on_c, 1, 43, 48
3, 47870, Note_on_c, 1, 43, 0
3, 47881, Note_on_c, 1, 37, 59
3, 47900, Note_on_c, 1, 37, 0
3, 47900, Note_on_c, 1, 38, 58
3, 47973, Note_on_c, 1, 38, 0
3, 47996, Note_on_c, 1, 38, 68
3, 48106, Note_on_c, 1, 38, 0
3, 48128, Note_on_c, 1, 38, 58
3, 48225, Note_on_c, 1, 44, 13
3, 48246, Note_on_c, 1, 45, 39
3, 48248, Note_on_c, 1, 44, 0
3, 48254, Note_on_c, 1, 38, 0
3, 48361, Note_on_c, 1, 45, 0
3, 48364, Note_on_c, 1, 38, 60
3, 48483, Note_on_c, 1, 38, 0
3, 48491, Note_on_c, 1, 39, 52
3, 48593, Note_on_c, 1, 39, 0
3, 48609, Note_on_c, 1, 39, 75
3, 48722, Note_on_c, 1, 39, 0
3, 48724, Note_on_c, 1, 45, 73
3, 48798, Note_on_c, 1, 45, 0
3, 48837, Note_on_c, 1, 45, 50
3, 48952, Note_on_c, 1, 40, 72
3, 48957, Note_on_c, 1, 45, 0
3, 49065, Note_on_c, 1, 40, 0
3, 49079, Note_on_c, 1, 40, 57
3, 49194, Note_on_c, 1, 40, 0
3, 49210, Note_on_c, 1, 34, 50
3, 49324, Note_on_c, 1, 32, 67
3, 49330, Note_on_c, 1, 34, 0
3, 49429, Note_on_c, 1, 32, 0
3, 49445, Note_on_c, 1, 33, 61
3, 49563, Note_on_c, 1, 33, 0
3, 49570, Note_on_c, 1, 35, 67
3, 49676, Note_on_c, 1, 35, 0
3, 49687, Note_on_c, 1, 36, 59
3, 49767, Note_on_c, 1, 34, 31
3, 49775, Note_on_c, 1, 36, 0
3, 49802, Note_on_c, 1, 34, 0
3, 49803, Note_on_c, 1, 37, 49
3, 49894, Note_on_c, 1, 34, 35
3, 49900, Note_on_c, 1, 37, 0
3, 49923, Note_on_c, 1, 38, 45
3, 49932, Note_on_c, 1, 34, 0
3, 50019, Note_on_c, 1, 34, 25
3, 50022, Note_on_c, 1, 37, 32
3, 50043, Note_on_c, 1, 45, 55
3, 50045, Note_on_c, 1, 38, 0
3, 50052, Note_on_c, 1, 34, 0
3, 50056, Note_on_c, 1, 37, 0
3, 50115, Note_on_c, 1, 37, 19
3, 50133, Note_on_c, 1, 37, 0
3, 50167, Note_on_c, 1, 54, 58
3, 50187, Note_on_c, 1, 45, 0
3, 50261, Note_on_c, 1, 37, 26
3, 50280, Note_on_c, 1, 37, 0
3, 50284, Note_on_c, 1, 54, 0
3, 50291, Note_on_c, 1, 49, 52
3, 50401, Note_on_c, 1, 49, 0
3, 50411, Note_on_c, 1, 50, 50
3, 50500, Note_on_c, 1, 39, 26
3, 50515, Note_on_c, 1, 39, 0
3, 50532, Note_on_c, 1, 47, 56
3, 50647, Note_on_c, 1, 47, 0
3, 50649, Note_on_c, 1, 50, 0
3, 50652, Note_on_c, 1, 42, 50
3, 50755, Note_on_c, 1, 42, 0
3, 50768, Note_on_c, 1, 39, 68
3, 50873, Note_on_c, 1, 39, 0
3, 50887, Note_on_c, 1, 40, 50
3, 51009, Note_on_c, 1, 34, 74
3, 51017, Note_on_c, 1, 40, 0
3, 51125, Note_on_c, 1, 32, 71
3, 51136, Note_on_c, 1, 34, 0
3, 51235, Note_on_c, 1, 32, 0
3, 51249, Note_on_c, 1, 32, 79
3, 51364, Note_on_c, 1, 32, 0
3, 51364, Note_on_c, 1, 33, 74
3, 51487, Note_on_c, 1, 35, 85
3, 51499, Note_on_c, 1, 33, 0
3, 51609, Note_on_c, 1, 36, 62
3, 51612, Note_on_c, 1, 35, 0
3, 51694, Note_on_c, 1, 34, 53
3, 51714, Note_on_c, 1, 36, 0
3, 51725, Note_on_c, 1, 43, 88
3, 51737, Note_on_c, 1, 34, 0
3, 51796, Note_on_c, 1, 36, 36
3, 51813, Note_on_c, 1, 36, 0
3, 51838, Note_on_c, 1, 43, 0
3, 51841, Note_on_c, 1, 41, 65
3, 51934, Note_on_c, 1, 36, 58
3, 51935, Note_on_c, 1, 41, 0
3, 51956, Note_on_c, 1, 36, 0
3, 51971, Note_on_c, 1, 33, 64
3, 52088, Note_on_c, 1, 41, 64
3, 52090, Note_on_c, 1, 33, 0
3, 52172, Note_on_c, 1, 36, 62
3, 52187, Note_on_c, 1, 41, 0
3, 52207, Note_on_c, 1, 36, 0
3, 52217, Note_on_c, 1, 29, 74
3, 52308, Note_on_c, 1, 29, 0
3, 52329, Note_on_c, 1, 30, 70
3, 52434, Note_on_c, 1, 30, 0
3, 52450, Note_on_c, 1, 30, 72
3, 52565, Note_on_c, 1, 30, 0
3, 52572, Note_on_c, 1, 33, 75
3, 52683, Note_on_c, 1, 33, 0
3, 52687, Note_on_c, 1, 32, 78
3, 52800, Note_on_c, 1, 30, 27
3, 52810, Note_on_c, 1, 30, 0
3, 52812, Note_on_c, 1, 31, 67
3, 52813, Note_on_c, 1, 32, 0
3, 52905, Note_on_c, 1, 30, 59
3, 52924, Note_on_c, 1, 31, 0
3, 52934, Note_on_c, 1, 45, 101
3, 52955, Note_on_c, 1, 30, 0
3, 53010, Note_on_c, 1, 34, 23
3, 53021, Note_on_c, 1, 34, 0
3, 53050, Note_on_c, 1, 45, 0
3, 53053, Note_on_c, 1, 43, 69
3, 53168, Note_on_c, 1, 35, 90
3, 53197, Note_on_c, 1, 43, 0
3, 53264, Note_on_c, 1, 34, 29
3, 53283, Note_on_c, 1, 34, 0
3, 53289, Note_on_c, 1, 36, 75
3, 53291, Note_on_c, 1, 35, 0
3, 53393, Note_on_c, 1, 36, 0
3, 53410, Note_on_c, 1, 36, 73
3, 53529, Note_on_c, 1, 36, 0
3, 53529, Note_on_c, 1, 31, 76
3, 53635, Note_on_c, 1, 31, 0
3, 53651, Note_on_c, 1, 31, 88
3, 53762, Note_on_c, 1, 31, 0
3, 53773, Note_on_c, 1, 36, 77
3, 53888, Note_on_c, 1, 31, 73
3, 53889, Note_on_c, 1, 36, 0
3, 53981, Note_on_c, 1, 36, 45
3, 53995, Note_on_c, 1, 31, 0
3, 54008, Note_on_c, 1, 39, 68
3, 54046, Note_on_c, 1, 36, 0
3, 54127, Note_on_c, 1, 33, 71
3, 54148, Note_on_c, 1, 39, 0
3, 54241, Note_on_c, 1, 33, 0
3, 54251, Note_on_c, 1, 32, 62
3, 54361, Note_on_c, 1, 32, 0
3, 54370, Note_on_c, 1, 35, 90
3, 54455, Note_on_c, 1, 32, 48
3, 54487, Note_on_c, 1, 32, 0
3, 54487, Note_on_c, 1, 35, 0
3, 54488, Note_on_c, 1, 39, 85
3, 54609, Note_on_c, 1, 39, 0
3, 54609, Note_on_c, 1, 35, 75
3, 54693, Note_on_c, 1, 34, 40
3, 54722, Note_on_c, 1, 35, 0
3, 54726, Note_on_c, 1, 34, 0
3, 54730, Note_on_c, 1, 36, 66
3, 54821, Note_on_c, 1, 34, 42
3, 54835, Note_on_c, 1, 36, 0
3, 54847, Note_on_c, 1, 40, 66
3, 54856, Note_on_c, 1, 34, 0
3, 54958, Note_on_c, 1, 40, 0
3, 54969, Note_on_c, 1, 46, 59
3, 55058, Note_on_c, 1, 36, 33
3, 55074, Note_on_c, 1, 36, 0
3, 55090, Note_on_c, 1, 42, 64
3, 55092, Note_on_c, 1, 46, 0
3, 55210, Note_on_c, 1, 41, 67
3, 55212, Note_on_c, 1, 42, 0
3, 55330, Note_on_c, 1, 39, 60
3, 55343, Note_on_c, 1, 41, 0
3, 55441, Note_on_c, 1, 39, 0
3, 55451, Note_on_c, 1, 38, 51
3, 55565, Note_on_c, 1, 35, 81
3, 55566, Note_on_c, 1, 38, 0
3, 55679, Note_on_c, 1, 35, 0
3, 55689, Note_on_c, 1, 34, 60
3, 55809, Note_on_c, 1, 41, 55
3, 55817, Note_on_c, 1, 34, 0
3, 55919, Note_on_c, 1, 41, 0
3, 55932, Note_on_c, 1, 50, 62
3, 56038, Note_on_c, 1, 50, 0
3, 56049, Note_on_c, 1, 48, 48
3, 56136, Note_on_c, 1, 34, 34
3, 56148, Note_on_c, 1, 48, 0
3, 56174, Note_on_c, 1, 53, 59
3, 56177, Note_on_c, 1, 34, 0
3, 56279, Note_on_c, 1, 53, 0
3, 56290, Note_on_c, 1, 50, 58
3, 56396, Note_on_c, 1, 50, 0
3, 56408, Note_on_c, 1, 46, 47
3, 56519, Note_on_c, 1, 46, 0
3, 56528, Note_on_c, 1, 47, 48
3, 56638, Note_on_c, 1, 47, 0
3, 56652, Note_on_c, 1, 48, 49
3, 56775, Note_on_c, 1, 40, 54
3, 56871, Note_on_c, 1, 40, 0
3, 56896, Note_on_c, 1, 40, 71
3, 57008, Note_on_c, 1, 40, 0
3, 57016, Note_on_c, 1, 34, 60
3, 57126, Note_on_c, 1, 34, 0
3, 57137, Note_on_c, 1, 36, 51
3, 57245, Note_on_c, 1, 48, 0
3, 57252, Note_on_c, 1, 36, 0
3, 57254, Note_on_c, 1, 31, 61
3, 57344, Note_on_c, 1, 31, 0
3, 57363, Note_on_c, 1, 34, 61
3, 57479, Note_on_c, 1, 34, 0
3, 57487, Note_on_c, 1, 35, 80
3, 57570, Note_on_c, 1, 34, 39
3, 57593, Note_on_c, 1, 35, 0
3, 57599, Note_on_c, 1, 34, 0
3, 57605, Note_on_c, 1, 36, 50
3, 57698, Note_on_c, 1, 34, 36
3, 57714, Note_on_c, 1, 36, 0
3, 57728, Note_on_c, 1, 43, 50
3, 57729, Note_on_c, 1, 34, 0
3, 57845, Note_on_c, 1, 43, 0
3, 57849, Note_on_c, 1, 51, 57
3, 57959, Note_on_c, 1, 51, 0
3, 57967, Note_on_c, 1, 42, 69
3, 58074, Note_on_c, 1, 42, 0
3, 58086, Note_on_c, 1, 41, 58
3, 58204, Note_on_c, 1, 41, 0
3, 58208, Note_on_c, 1, 29, 67
3, 58320, Note_on_c, 1, 29, 0
3, 58328, Note_on_c, 1, 36, 78
3, 58438, Note_on_c, 1, 36, 0
3, 58452, Note_on_c, 1, 38, 91
3, 58465, Note_on_c, 1, 33, 35
3, 58476, Note_on_c, 1, 33, 0
3, 58558, Note_on_c, 1, 38, 0
3, 58572, Note_on_c, 1, 38, 90
3, 58695, Note_on_c, 1, 44, 77
3, 58720, Note_on_c, 1, 38, 0
3, 58816, Note_on_c, 1, 41, 51
3, 58820, Note_on_c, 1, 44, 0
3, 58898, Note_on_c, 1, 38, 47
3, 58928, Note_on_c, 1, 38, 0
3, 58933, Note_on_c, 1, 42, 60
3, 58937, Note_on_c, 1, 41, 0
3, 59047, Note_on_c, 1, 42, 0
3, 59050, Note_on_c, 1, 43, 50
3, 59168, Note_on_c, 1, 35, 96
3, 59170, Note_on_c, 1, 43, 0
3, 59280, Note_on_c, 1, 35, 0
3, 59290, Note_on_c, 1, 38, 74
3, 59398, Note_on_c, 1, 38, 0
3, 59409, Note_on_c, 1, 36, 87
3, 59524, Note_on_c, 1, 36, 0
3, 59537, Note_on_c, 1, 36, 96
3, 59652, Note_on_c, 1, 48, 105
3, 59666, Note_on_c, 1, 36, 0
3, 59772, Note_on_c, 1, 43, 55
3, 59796, Note_on_c, 1, 48, 0
3, 59890, Note_on_c, 1, 38, 71
3, 59908, Note_on_c, 1, 43, 0
3, 60010, Note_on_c, 1, 39, 61
3, 60026, Note_on_c, 1, 38, 0
3, 60119, Note_on_c, 1, 39, 0
3, 60133, Note_on_c, 1, 39, 72
3, 60245, Note_on_c, 1, 42, 61
3, 60250, Note_on_c, 1, 39, 0
3, 60332, Note_on_c, 1, 33, 92
3, 60369, Note_on_c, 1, 42, 0
3, 60489, Note_on_c, 1, 33, 0
3, 60491, Note_on_c, 1, 34, 74
3, 60609, Note_on_c, 1, 34, 0
3, 60613, Note_on_c, 1, 36, 66
3, 60687, Note_on_c, 1, 34, 37
3, 60707, Note_on_c, 1, 36, 0
3, 60712, Note_on_c, 1, 34, 0
3, 60723, Note_on_c, 1, 38, 57
3, 60806, Note_on_c, 1, 32, 85
3, 60823, Note_on_c, 1, 38, 0
3, 60953, Note_on_c, 1, 32, 0
3, 60961, Note_on_c, 1, 31, 67
3, 61052, Note_on_c, 1, 34, 32
3, 61070, Note_on_c, 1, 34, 0
3, 61080, Note_on_c, 1, 43, 64
3, 61091, Note_on_c, 1, 31, 0
3, 61144, Note_on_c, 1, 34, 33
3, 61160, Note_on_c, 1, 34, 0
3, 61208, Note_on_c, 1, 50, 58
3, 61233, Note_on_c, 1, 43, 0
3, 61288, Note_on_c, 1, 34, 48
3, 61289, Note_on_c, 1, 50, 0
3, 61312, Note_on_c, 1, 34, 0
3, 61324, Note_on_c, 1, 35, 74
3, 61407, Note_on_c, 1, 34, 37
3, 61432, Note_on_c, 1, 35, 0
3, 61434, Note_on_c, 1, 34, 0
3, 61444, Note_on_c, 1, 36, 54
3, 61531, Note_on_c, 1, 34, 36
3, 61562, Note_on_c, 1, 38, 68
3, 61568, Note_on_c, 1, 34, 0
3, 61636, Note_on_c, 1, 36, 0
3, 61644, Note_on_c, 1, 34, 40
3, 61671, Note_on_c, 1, 38, 0
3, 61678, Note_on_c, 1, 34, 0
3, 61684, Note_on_c, 1, 40, 52
3, 61773, Note_on_c, 1, 36, 34
3, 61778, Note_on_c, 1, 40, 0
3, 61799, Note_on_c, 1, 43, 53
3, 61800, Note_on_c, 1, 36, 0
3, 61821, Note_on_c, 1, 40, 32
3, 61862, Note_on_c, 1, 43, 0
3, 61889, Note_on_c, 1, 36, 49
3, 61922, Note_on_c, 1, 36, 0
3, 61930, Note_on_c, 1, 49, 61
3, 62001, Note_on_c, 1, 40, 0
3, 62031, Note_on_c, 1, 49, 0
3, 62044, Note_on_c, 1, 48, 57
3, 62120, Note_on_c, 1, 39, 35
3, 62133, Note_on_c, 1, 39, 0
3, 62155, Note_on_c, 1, 48, 0
3, 62167, Note_on_c, 1, 43, 45
3, 62285, Note_on_c, 1, 31, 44
3, 62286, Note_on_c, 1, 33, 40
3, 62308, Note_on_c, 1, 31, 0
3, 62397, Note_on_c, 1, 33, 0
3, 62407, Note_on_c, 1, 32, 67
3, 62424, Note_on_c, 1, 43, 0
3, 62509, Note_on_c, 1, 32, 0
3, 62526, Note_on_c, 1, 32, 65
3, 62642, Note_on_c, 1, 32, 0
3, 62649, Note_on_c, 1, 39, 52
3, 62737, Note_on_c, 1, 34, 25
3, 62770, Note_on_c, 1, 47, 54
3, 62780, Note_on_c, 1, 34, 0
3, 62796, Note_on_c, 1, 39, 0
3, 62835, Note_on_c, 1, 39, 34
3, 62849, Note_on_c, 1, 39, 0
3, 62881, Note_on_c, 1, 47, 0
3, 62892, Note_on_c, 1, 48, 58
3, 63001, Note_on_c, 1, 48, 0
3, 63010, Note_on_c, 1, 39, 61
3, 63112, Note_on_c, 1, 39, 0
3, 63123, Note_on_c, 1, 39, 33
3, 63247, Note_on_c, 1, 39, 0
3, 63252, Note_on_c, 1, 37, 59
3, 63330, Note_on_c, 1, 34, 34
3, 63351, Note_on_c, 1, 37, 0
3, 63367, Note_on_c, 1, 36, 43
3, 63371, Note_on_c, 1, 34, 0
3, 63451, Note_on_c, 1, 34, 38
3, 63469, Note_on_c, 1, 36, 0
3, 63484, Note_on_c, 1, 40, 53
3, 63492, Note_on_c, 1, 34, 0
3, 63591, Note_on_c, 1, 40, 0
3, 63611, Note_on_c, 1, 43, 41
3, 63695, Note_on_c, 1, 40, 57
3, 63707, Note_on_c, 1, 43, 0
3, 63708, Note_on_c, 1, 40, 0
3, 63729, Note_on_c, 1, 40, 73
3, 63836, Note_on_c, 1, 40, 0
3, 63847, Note_on_c, 1, 41, 57
3, 63930, Note_on_c, 1, 41, 0
3, 63930, Note_on_c, 1, 36, 55
3, 63951, Note_on_c, 1, 36, 0
3, 63969, Note_on_c, 1, 33, 59
3, 64081, Note_on_c, 1, 33, 0
3, 64089, Note_on_c, 1, 36, 65
3, 64175, Note_on_c, 1, 33, 28
3, 64176, Note_on_c, 1, 36, 0
3, 64323, Note_on_c, 1, 33, 0
3, 64331, Note_on_c, 1, 34, 48
3, 64453, Note_on_c, 1, 34, 0
3, 64453, Note_on_c, 1, 36, 54
3, 64538, Note_on_c, 1, 34, 30
3, 64558, Note_on_c, 1, 36, 0
3, 64571, Note_on_c, 1, 38, 48
3, 64575, Note_on_c, 1, 34, 0
3, 64685, Note_on_c, 1, 38, 0
3, 64773, Note_on_c, 1, 34, 77
3, 65571, Note_on_c, 1, 34, 0
3, 65571, End_track
4, 0, Start_track
4, 0, Title_t, "Drums"
4, 0, Program_c, 9, 32
4, 0, Control_c, 9, 11, 127
4, 0, Note_on_c, 9, 59, 81
4, 36, Note_on_c, 9, 59, 0
4, 129, Note_on_c, 9, 59, 82
4, 176, Note_on_c, 9, 59, 0
4, 251, Note_on_c, 9, 59, 51
4, 266, Note_on_c, 9, 59, 0
4, 315, Note_on_c, 9, 59, 74
4, 344, Note_on_c, 9, 59, 0
4, 434, Note_on_c, 9, 59, 79
4, 468, Note_on_c, 9, 59, 0
4, 552, Note_on_c, 9, 53, 87
4, 622, Note_on_c, 9, 59, 64
4, 636, Note_on_c, 9, 53, 0
4, 657, Note_on_c, 9, 59, 0
4, 738, Note_on_c, 9, 59, 83
4, 795, Note_on_c, 9, 59, 0
4, 853, Note_on_c, 9, 59, 57
4, 868, Note_on_c, 9, 59, 0
4, 905, Note_on_c, 9, 38, 30
4, 910, Note_on_c, 9, 53, 82
4, 916, Note_on_c, 9, 38, 0
4, 967, Note_on_c, 9, 38, 28
4, 968, Note_on_c, 9, 53, 0
4, 1011, Note_on_c, 9, 38, 0
4, 1082, Note_on_c, 9, 38, 35
4, 1103, Note_on_c, 9, 38, 0
4, 1161, Note_on_c, 9, 59, 44
4, 1175, Note_on_c, 9, 59, 0
4, 1219, Note_on_c, 9, 59, 64
4, 1246, Note_on_c, 9, 59, 0
4, 1277, Note_on_c, 9, 59, 70
4, 1305, Note_on_c, 9, 59, 0
4, 1333, Note_on_c, 9, 59, 81
4, 1393, Note_on_c, 9, 59, 0
4, 1448, Note_on_c, 9, 59, 82
4, 1454, Note_on_c, 9, 51, 78
4, 1456, Note_on_c, 9, 53, 74
4, 1480, Note_on_c, 9, 59, 0
4, 1515, Note_on_c, 9, 38, 24
4, 1534, Note_on_c, 9, 38, 0
4, 1544, Note_on_c, 9, 53, 0
4, 1560, Note_on_c, 9, 59, 60
4, 1563, Note_on_c, 9, 51, 0
4, 1589, Note_on_c, 9, 59, 0
4, 1635, Note_on_c, 9, 51, 81
4, 1636, Note_on_c, 9, 59, 89
4, 1636, Note_on_c, 9, 38, 30
4, 1638, Note_on_c, 9, 53, 74
4, 1661, Note_on_c, 9, 38, 0
4, 1683, Note_on_c, 9, 53, 0
4, 1695, Note_on_c, 9, 59, 0
4, 1704, Note_on_c, 9, 51, 0
4, 1747, Note_on_c, 9, 59, 64
4, 1756, Note_on_c, 9, 38, 29
4, 1772, Note_on_c, 9, 59, 0
4, 1779, Note_on_c, 9, 38, 0
4, 1804, Note_on_c, 9, 53, 73
4, 1806, Note_on_c, 9, 51, 62
4, 1807, Note_on_c, 9, 59, 71
4, 1867, Note_on_c, 9, 36, 28
4, 1872, Note_on_c, 9, 59, 0
4, 1878, Note_on_c, 9, 36, 0
4, 1882, Note_on_c, 9, 53, 0
4, 1895, Note_on_c, 9, 51, 0
4, 1922, Note_on_c, 9, 38, 32
4, 1924, Note_on_c, 9, 59, 68
4, 1925, Note_on_c, 9, 57, 65
4, 1926, Note_on_c, 9, 36, 33
4, 1955, Note_on_c, 9, 36, 0
4, 1956, Note_on_c, 9, 57, 0
4, 1957, Note_on_c, 9, 38, 0
4, 1971, Note_on_c, 9, 59, 0
4, 2042, Note_on_c, 9, 38, 30
4, 2045, Note_on_c, 9, 36, 37
4, 2078, Note_on_c, 9, 36, 0
4, 2088, Note_on_c, 9, 38, 0
4, 2214, Note_on_c, 9, 59, 68
4, 2232, Note_on_c, 9, 59, 0
4, 2276, Note_on_c, 9, 59, 68
4, 2311, Note_on_c, 9, 59, 0
4, 2469, Note_on_c, 9, 59, 71
4, 2494, Note_on_c, 9, 59, 0
4, 2580, Note_on_c, 9, 59, 73
4, 2608, Note_on_c, 9, 59, 0
4, 2640, Note_on_c, 9, 38, 26
4, 2650, Note_on_c, 9, 38, 0
4, 2650, Note_on_c, 9, 59, 55
4, 2664, Note_on_c, 9, 59, 0
4, 2664, Note_on_c, 9, 38, 31
4, 2683, Note_on_c, 9, 38, 0
4, 2710, Note_on_c, 9, 59, 71
4, 2723, Note_on_c, 9, 59, 0
4, 2759, Note_on_c, 9, 53, 83
4, 2826, Note_on_c, 9, 38, 28
4, 2836, Note_on_c, 9, 38, 0
4, 2857, Note_on_c, 9, 53, 0
4, 2891, Note_on_c, 9, 53, 75
4, 2963, Note_on_c, 9, 53, 0
4, 3006, Note_on_c, 9, 59, 79
4, 3009, Note_on_c, 9, 53, 74
4, 3068, Note_on_c, 9, 59, 0
4, 3071, Note_on_c, 9, 37, 17
4, 3079, Note_on_c, 9, 37, 0
4, 3080, Note_on_c, 9, 53, 0
4, 3117, Note_on_c, 9, 38, 27
4, 3128, Note_on_c, 9, 38, 0
4, 3148, Note_on_c, 9, 38, 33
4, 3157, Note_on_c, 9, 38, 0
4, 3304, Note_on_c, 9, 38, 33
4, 3314, Note_on_c, 9, 38, 0
4, 3315, Note_on_c, 9, 59, 64
4, 3330, Note_on_c, 9, 59, 0
4, 3366, Note_on_c, 9, 38, 32
4, 3391, Note_on_c, 9, 38, 0
4, 3416, Note_on_c, 9, 59, 77
4, 3439, Note_on_c, 9, 59, 0
4, 3538, Note_on_c, 9, 59, 63
4, 3552, Note_on_c, 9, 59, 0
4, 3553, Note_on_c, 9, 38, 16
4, 3567, Note_on_c, 9, 38, 0
4, 3597, Note_on_c, 9, 59, 74
4, 3659, Note_on_c, 9, 59, 0
4, 3669, Note_on_c, 9, 38, 28
4, 3681, Note_on_c, 9, 38, 0
4, 3735, Note_on_c, 9, 53, 78
4, 3790, Note_on_c, 9, 38, 21
4, 3802, Note_on_c, 9, 38, 0
4, 3806, Note_on_c, 9, 53, 0
4, 3845, Note_on_c, 9, 38, 34
4, 3850, Note_on_c, 9, 36, 33
4, 3862, Note_on_c, 9, 59, 40
4, 3868, Note_on_c, 9, 36, 0
4, 3871, Note_on_c, 9, 38, 0
4, 3889, Note_on_c, 9, 59, 0
4, 3919, Note_on_c, 9, 59, 74
4, 3945, Note_on_c, 9, 59, 0
4, 3964, Note_on_c, 9, 38, 32
4, 3967, Note_on_c, 9, 36, 43
4, 3997, Note_on_c, 9, 36, 0
4, 4011, Note_on_c, 9, 38, 0
4, 4028, Note_on_c, 9, 59, 73
4, 4053, Note_on_c, 9, 59, 0
4, 4081, Note_on_c, 9, 59, 66
4, 4131, Note_on_c, 9, 59, 0
4, 4138, Note_on_c, 9, 38, 34
4, 4156, Note_on_c, 9, 38, 0
4, 4196, Note_on_c, 9, 53, 53
4, 4200, Note_on_c, 9, 38, 23
4, 4210, Note_on_c, 9, 38, 0
4, 4212, Note_on_c, 9, 53, 0
4, 4259, Note_on_c, 9, 36, 42
4, 4261, Note_on_c, 9, 59, 64
4, 4275, Note_on_c, 9, 59, 0
4, 4280, Note_on_c, 9, 36, 0
4, 4315, Note_on_c, 9, 59, 71
4, 4323, Note_on_c, 9, 36, 13
4, 4341, Note_on_c, 9, 59, 0
4, 4344, Note_on_c, 9, 36, 0
4, 4513, Note_on_c, 9, 59, 66
4, 4528, Note_on_c, 9, 59, 0
4, 4637, Note_on_c, 9, 59, 74
4, 4654, Note_on_c, 9, 59, 0
4, 4704, Note_on_c, 9, 59, 89
4, 4773, Note_on_c, 9, 59, 0
4, 4805, Note_on_c, 9, 38, 26
4, 4815, Note_on_c, 9, 38, 0
4, 4836, Note_on_c, 9, 38, 21
4, 4849, Note_on_c, 9, 38, 0
4, 4993, Note_on_c, 9, 36, 38
4, 4999, Note_on_c, 9, 59, 77
4, 5026, Note_on_c, 9, 36, 0
4, 5027, Note_on_c, 9, 59, 0
4, 5048, Note_on_c, 9, 36, 44
4, 5056, Note_on_c, 9, 59, 64
4, 5085, Note_on_c, 9, 36, 0
4, 5086, Note_on_c, 9, 59, 0
4, 5118, Note_on_c, 9, 51, 56
4, 5120, Note_on_c, 9, 53, 61
4, 5149, Note_on_c, 9, 53, 0
4, 5157, Note_on_c, 9, 51, 0
4, 5161, Note_on_c, 9, 59, 48
4, 5176, Note_on_c, 9, 59, 0
4, 5226, Note_on_c, 9, 38, 43
4, 5244, Note_on_c, 9, 59, 38
4, 5246, Note_on_c, 9, 38, 0
4, 5264, Note_on_c, 9, 59, 0
4, 5278, Note_on_c, 9, 36, 25
4, 5290, Note_on_c, 9, 36, 0
4, 5299, Note_on_c, 9, 59, 55
4, 5313, Note_on_c, 9, 51, 59
4, 5314, Note_on_c, 9, 59, 0
4, 5314, Note_on_c, 9, 53, 66
4, 5342, Note_on_c, 9, 51, 0
4, 5344, Note_on_c, 9, 53, 0
4, 5346, Note_on_c, 9, 38, 32
4, 5354, Note_on_c, 9, 38, 0
4, 5412, Note_on_c, 9, 59, 49
4, 5426, Note_on_c, 9, 59, 0
4, 5480, Note_on_c, 9, 51, 70
4, 5483, Note_on_c, 9, 53, 69
4, 5517, Note_on_c, 9, 53, 0
4, 5527, Note_on_c, 9, 51, 0
4, 5588, Note_on_c, 9, 59, 58
4, 5601, Note_on_c, 9, 59, 0
4, 5608, Note_on_c, 9, 38, 11
4, 5618, Note_on_c, 9, 38, 0
4, 5647, Note_on_c, 9, 59, 66
4, 5662, Note_on_c, 9, 38, 25
4, 5665, Note_on_c, 9, 59, 0
4, 5672, Note_on_c, 9, 38, 0
4, 5707, Note_on_c, 9, 51, 69
4, 5708, Note_on_c, 9, 53, 69
4, 5713, Note_on_c, 9, 38, 56
4, 5734, Note_on_c, 9, 53, 0
4, 5734, Note_on_c, 9, 51, 0
4, 5740, Note_on_c, 9, 38, 0
4, 5767, Note_on_c, 9, 38, 46
4, 5770, Note_on_c, 9, 59, 58
4, 5789, Note_on_c, 9, 38, 0
4, 5802, Note_on_c, 9, 59, 0
4, 5836, Note_on_c, 9, 36, 16
4, 5846, Note_on_c, 9, 59, 44
4, 5847, Note_on_c, 9, 36, 0
4, 5861, Note_on_c, 9, 59, 0
4, 5888, Note_on_c, 9, 36, 16
4, 5899, Note_on_c, 9, 59, 62
4, 5921, Note_on_c, 9, 59, 0
4, 5921, Note_on_c, 9, 36, 0
4, 5951, Note_on_c, 9, 36, 30
4, 5977, Note_on_c, 9, 36, 0
4, 6011, Note_on_c, 9, 36, 34
4, 6020, Note_on_c, 9, 59, 79
4, 6042, Note_on_c, 9, 36, 0
4, 6059, Note_on_c, 9, 59, 0
4, 6189, Note_on_c, 9, 59, 64
4, 6204, Note_on_c, 9, 59, 0
4, 6248, Note_on_c, 9, 59, 74
4, 6275, Note_on_c, 9, 59, 0
4, 6311, Note_on_c, 9, 59, 70
4, 6328, Note_on_c, 9, 59, 0
4, 6372, Note_on_c, 9, 59, 73
4, 6389, Note_on_c, 9, 59, 0
4, 6553, Note_on_c, 9, 51, 63
4, 6561, Note_on_c, 9, 53, 46
4, 6574, Note_on_c, 9, 51, 0
4, 6577, Note_on_c, 9, 53, 0
4, 6613, Note_on_c, 9, 53, 58
4, 6616, Note_on_c, 9, 51, 40
4, 6629, Note_on_c, 9, 51, 0
4, 6632, Note_on_c, 9, 53, 0
4, 6674, Note_on_c, 9, 53, 60
4, 6679, Note_on_c, 9, 51, 39
4, 6692, Note_on_c, 9, 51, 0
4, 6696, Note_on_c, 9, 53, 0
4, 6723, Note_on_c, 9, 38, 43
4, 6734, Note_on_c, 9, 53, 57
4, 6736, Note_on_c, 9, 51, 52
4, 6743, Note_on_c, 9, 38, 0
4, 6775, Note_on_c, 9, 51, 0
4, 6788, Note_on_c, 9, 38, 21
4, 6789, Note_on_c, 9, 53, 0
4, 6800, Note_on_c, 9, 38, 0
4, 6907, Note_on_c, 9, 46, 51
4, 6936, Note_on_c, 9, 46, 0
4, 6973, Note_on_c, 9, 46, 53
4, 6994, Note_on_c, 9, 37, 35
4, 7007, Note_on_c, 9, 37, 0
4, 7016, Note_on_c, 9, 46, 0
4, 7082, Note_on_c, 9, 37, 35
4, 7105, Note_on_c, 9, 37, 0
4, 7161, Note_on_c, 9, 37, 32
4, 7183, Note_on_c, 9, 37, 0
4, 7236, Note_on_c, 9, 37, 30
4, 7253, Note_on_c, 9, 59, 55
4, 7264, Note_on_c, 9, 37, 0
4, 7291, Note_on_c, 9, 59, 0
4, 7316, Note_on_c, 9, 59, 62
4, 7323, Note_on_c, 9, 37, 34
4, 7338, Note_on_c, 9, 59, 0
4, 7346, Note_on_c, 9, 37, 0
4, 7380, Note_on_c, 9, 44, 37
4, 7396, Note_on_c, 9, 36, 23
4, 7407, Note_on_c, 9, 36, 0
4, 7424, Note_on_c, 9, 44, 0
4, 7441, Note_on_c, 9, 59, 64
4, 7446, Note_on_c, 9, 37, 25
4, 7459, Note_on_c, 9, 37, 0
4, 7473, Note_on_c, 9, 59, 0
4, 7500, Note_on_c, 9, 44, 32
4, 7512, Note_on_c, 9, 38, 18
4, 7522, Note_on_c, 9, 38, 0
4, 7538, Note_on_c, 9, 44, 0
4, 7566, Note_on_c, 9, 59, 64
4, 7611, Note_on_c, 9, 59, 0
4, 7620, Note_on_c, 9, 44, 41
4, 7620, Note_on_c, 9, 38, 39
4, 7634, Note_on_c, 9, 38, 0
4, 7654, Note_on_c, 9, 44, 0
4, 7678, Note_on_c, 9, 57, 52
4, 7680, Note_on_c, 9, 38, 34
4, 7684, Note_on_c, 9, 36, 25
4, 7690, Note_on_c, 9, 38, 0
4, 7691, Note_on_c, 9, 57, 0
4, 7694, Note_on_c, 9, 36, 0
4, 7695, Note_on_c, 9, 59, 57
4, 7727, Note_on_c, 9, 59, 0
4, 7817, Note_on_c, 9, 59, 64
4, 7854, Note_on_c, 9, 59, 0
4, 7984, Note_on_c, 9, 38, 31
4, 7992, Note_on_c, 9, 38, 0
4, 7998, Note_on_c, 9, 59, 66
4, 8017, Note_on_c, 9, 59, 0
4, 8046, Note_on_c, 9, 57, 58
4, 8048, Note_on_c, 9, 38, 51
4, 8051, Note_on_c, 9, 36, 45
4, 8057, Note_on_c, 9, 59, 60
4, 8063, Note_on_c, 9, 57, 0
4, 8065, Note_on_c, 9, 36, 0
4, 8070, Note_on_c, 9, 38, 0
4, 8080, Note_on_c, 9, 59, 0
4, 8122, Note_on_c, 9, 59, 77
4, 8151, Note_on_c, 9, 59, 0
4, 8235, Note_on_c, 9, 51, 55
4, 8241, Note_on_c, 9, 53, 45
4, 8261, Note_on_c, 9, 53, 0
4, 8274, Note_on_c, 9, 51, 0
4, 8353, Note_on_c, 9, 53, 64
4, 8355, Note_on_c, 9, 51, 48
4, 8371, Note_on_c, 9, 53, 0
4, 8378, Note_on_c, 9, 51, 0
4, 8415, Note_on_c, 9, 59, 65
4, 8463, Note_on_c, 9, 59, 0
4, 8528, Note_on_c, 9, 59, 34
4, 8544, Note_on_c, 9, 59, 0
4, 8591, Note_on_c, 9, 51, 59
4, 8592, Note_on_c, 9, 53, 65
4, 8625, Note_on_c, 9, 53, 0
4, 8632, Note_on_c, 9, 51, 0
4, 8706, Note_on_c, 9, 38, 27
4, 8716, Note_on_c, 9, 53, 68
4, 8721, Note_on_c, 9, 51, 52
4, 8722, Note_on_c, 9, 38, 0
4, 8749, Note_on_c, 9, 53, 0
4, 8753, Note_on_c, 9, 51, 0
4, 8762, Note_on_c, 9, 38, 30
4, 8771, Note_on_c, 9, 59, 43
4, 8814, Note_on_c, 9, 38, 0
4, 8815, Note_on_c, 9, 59, 0
4, 8835, Note_on_c, 9, 36, 16
4, 8844, Note_on_c, 9, 36, 0
4, 8886, Note_on_c, 9, 38, 31
4, 8931, Note_on_c, 9, 38, 0
4, 8948, Note_on_c, 9, 38, 56
4, 8957, Note_on_c, 9, 59, 48
4, 8971, Note_on_c, 9, 59, 0
4, 8985, Note_on_c, 9, 38, 0
4, 9000, Note_on_c, 9, 38, 60
4, 9049, Note_on_c, 9, 38, 0
4, 9070, Note_on_c, 9, 36, 23
4, 9072, Note_on_c, 9, 59, 58
4, 9081, Note_on_c, 9, 36, 0
4, 9086, Note_on_c, 9, 59, 0
4, 9139, Note_on_c, 9, 59, 68
4, 9162, Note_on_c, 9, 59, 0
4, 9200, Note_on_c, 9, 53, 59
4, 9200, Note_on_c, 9, 51, 50
4, 9215, Note_on_c, 9, 53, 0
4, 9225, Note_on_c, 9, 51, 0
4, 9257, Note_on_c, 9, 59, 51
4, 9271, Note_on_c, 9, 59, 0
4, 9321, Note_on_c, 9, 53, 67
4, 9322, Note_on_c, 9, 51, 52
4, 9338, Note_on_c, 9, 53, 0
4, 9346, Note_on_c, 9, 51, 0
4, 9367, Note_on_c, 9, 38, 17
4, 9380, Note_on_c, 9, 59, 70
4, 9408, Note_on_c, 9, 38, 0
4, 9409, Note_on_c, 9, 59, 0
4, 9437, Note_on_c, 9, 53, 66
4, 9437, Note_on_c, 9, 51, 51
4, 9460, Note_on_c, 9, 53, 0
4, 9467, Note_on_c, 9, 51, 0
4, 9478, Note_on_c, 9, 38, 23
4, 9489, Note_on_c, 9, 38, 0
4, 9503, Note_on_c, 9, 59, 39
4, 9507, Note_on_c, 9, 38, 17
4, 9518, Note_on_c, 9, 59, 0
4, 9520, Note_on_c, 9, 38, 0
4, 9559, Note_on_c, 9, 53, 72
4, 9562, Note_on_c, 9, 51, 53
4, 9584, Note_on_c, 9, 53, 0
4, 9588, Note_on_c, 9, 51, 0
4, 9610, Note_on_c, 9, 59, 70
4, 9626, Note_on_c, 9, 59, 0
4, 9661, Note_on_c, 9, 38, 30
4, 9664, Note_on_c, 9, 59, 68
4, 9670, Note_on_c, 9, 38, 0
4, 9686, Note_on_c, 9, 59, 0
4, 9721, Note_on_c, 9, 38, 34
4, 9734, Note_on_c, 9, 38, 0
4, 9756, Note_on_c, 9, 59, 79
4, 9783, Note_on_c, 9, 59, 0
4, 9834, Note_on_c, 9, 38, 35
4, 9842, Note_on_c, 9, 38, 0
4, 9861, Note_on_c, 9, 59, 80
4, 9886, Note_on_c, 9, 59, 0
4, 9893, Note_on_c, 9, 38, 32
4, 9903, Note_on_c, 9, 38, 0
4, 9952, Note_on_c, 9, 38, 28
4, 9961, Note_on_c, 9, 38, 0
4, 9976, Note_on_c, 9, 38, 39
4, 9984, Note_on_c, 9, 38, 0
4, 10017, Note_on_c, 9, 36, 30
4, 10027, Note_on_c, 9, 36, 0
4, 10149, Note_on_c, 9, 59, 56
4, 10163, Note_on_c, 9, 59, 0
4, 10216, Note_on_c, 9, 59, 40
4, 10231, Note_on_c, 9, 59, 0
4, 10276, Note_on_c, 9, 59, 74
4, 10301, Note_on_c, 9, 59, 0
4, 10398, Note_on_c, 9, 38, 16
4, 10399, Note_on_c, 9, 59, 64
4, 10407, Note_on_c, 9, 38, 0
4, 10413, Note_on_c, 9, 59, 0
4, 10456, Note_on_c, 9, 59, 71
4, 10489, Note_on_c, 9, 59, 0
4, 10756, Note_on_c, 9, 59, 58
4, 10769, Note_on_c, 9, 59, 0
4, 10812, Note_on_c, 9, 59, 64
4, 10842, Note_on_c, 9, 59, 0
4, 10873, Note_on_c, 9, 51, 56
4, 10877, Note_on_c, 9, 53, 47
4, 10895, Note_on_c, 9, 53, 0
4, 10916, Note_on_c, 9, 51, 0
4, 10990, Note_on_c, 9, 38, 32
4, 11000, Note_on_c, 9, 38, 0
4, 11110, Note_on_c, 9, 38, 28
4, 11110, Note_on_c, 9, 51, 52
4, 11112, Note_on_c, 9, 53, 60
4, 11130, Note_on_c, 9, 53, 0
4, 11136, Note_on_c, 9, 38, 0
4, 11143, Note_on_c, 9, 51, 0
4, 11223, Note_on_c, 9, 51, 58
4, 11225, Note_on_c, 9, 53, 64
4, 11226, Note_on_c, 9, 36, 24
4, 11239, Note_on_c, 9, 36, 0
4, 11241, Note_on_c, 9, 53, 0
4, 11256, Note_on_c, 9, 51, 0
4, 11285, Note_on_c, 9, 59, 66
4, 11330, Note_on_c, 9, 59, 0
4, 11350, Note_on_c, 9, 37, 34
4, 11375, Note_on_c, 9, 37, 0
4, 11400, Note_on_c, 9, 44, 32
4, 11435, Note_on_c, 9, 44, 0
4, 11474, Note_on_c, 9, 37, 35
4, 11487, Note_on_c, 9, 37, 0
4, 11580, Note_on_c, 9, 44, 44
4, 11590, Note_on_c, 9, 37, 35
4, 11609, Note_on_c, 9, 37, 0
4, 11627, Note_on_c, 9, 44, 0
4, 11709, Note_on_c, 9, 37, 32
4, 11721, Note_on_c, 9, 37, 0
4, 11771, Note_on_c, 9, 51, 56
4, 11774, Note_on_c, 9, 53, 54
4, 11792, Note_on_c, 9, 53, 0
4, 11799, Note_on_c, 9, 51, 0
4, 11818, Note_on_c, 9, 37, 35
4, 11834, Note_on_c, 9, 37, 0
4, 11867, Note_on_c, 9, 59, 74
4, 11899, Note_on_c, 9, 59, 0
4, 11940, Note_on_c, 9, 38, 45
4, 11975, Note_on_c, 9, 38, 0
4, 12005, Note_on_c, 9, 36, 27
4, 12019, Note_on_c, 9, 36, 0
4, 12070, Note_on_c, 9, 53, 60
4, 12071, Note_on_c, 9, 51, 43
4, 12086, Note_on_c, 9, 53, 0
4, 12090, Note_on_c, 9, 51, 0
4, 12128, Note_on_c, 9, 59, 60
4, 12150, Note_on_c, 9, 59, 0
4, 12180, Note_on_c, 9, 44, 46
4, 12224, Note_on_c, 9, 44, 0
4, 12300, Note_on_c, 9, 44, 35
4, 12305, Note_on_c, 9, 38, 31
4, 12315, Note_on_c, 9, 38, 0
4, 12332, Note_on_c, 9, 44, 0
4, 12361, Note_on_c, 9, 38, 20
4, 12372, Note_on_c, 9, 38, 0
4, 12420, Note_on_c, 9, 44, 37
4, 12422, Note_on_c, 9, 38, 56
4, 12443, Note_on_c, 9, 44, 0
4, 12445, Note_on_c, 9, 38, 0
4, 12479, Note_on_c, 9, 59, 55
4, 12485, Note_on_c, 9, 36, 23
4, 12499, Note_on_c, 9, 36, 0
4, 12542, Note_on_c, 9, 38, 31
4, 12543, Note_on_c, 9, 59, 0
4, 12551, Note_on_c, 9, 38, 0
4, 12609, Note_on_c, 9, 59, 73
4, 12641, Note_on_c, 9, 59, 0
4, 12727, Note_on_c, 9, 59, 63
4, 12765, Note_on_c, 9, 59, 0
4, 12786, Note_on_c, 9, 38, 34
4, 12787, Note_on_c, 9, 59, 53
4, 12796, Note_on_c, 9, 38, 0
4, 12801, Note_on_c, 9, 59, 0
4, 12846, Note_on_c, 9, 38, 48
4, 12848, Note_on_c, 9, 36, 49
4, 12890, Note_on_c, 9, 36, 0
4, 12899, Note_on_c, 9, 51, 47
4, 12902, Note_on_c, 9, 38, 0
4, 12905, Note_on_c, 9, 53, 36
4, 12922, Note_on_c, 9, 53, 0
4, 12933, Note_on_c, 9, 51, 0
4, 12969, Note_on_c, 9, 38, 16
4, 12978, Note_on_c, 9, 38, 0
4, 13018, Note_on_c, 9, 59, 59
4, 13034, Note_on_c, 9, 59, 0
4, 13034, Note_on_c, 9, 38, 35
4, 13035, Note_on_c, 9, 36, 38
4, 13062, Note_on_c, 9, 38, 0
4, 13063, Note_on_c, 9, 36, 0
4, 13080, Note_on_c, 9, 59, 54
4, 13098, Note_on_c, 9, 59, 0
4, 13144, Note_on_c, 9, 59, 61
4, 13163, Note_on_c, 9, 59, 0
4, 13207, Note_on_c, 9, 59, 68
4, 13237, Note_on_c, 9, 59, 0
4, 13330, Note_on_c, 9, 59, 66
4, 13348, Note_on_c, 9, 59, 0
4, 13395, Note_on_c, 9, 59, 68
4, 13408, Note_on_c, 9, 59, 0
4, 13453, Note_on_c, 9, 51, 60
4, 13517, Note_on_c, 9, 51, 0
4, 13574, Note_on_c, 9, 59, 54
4, 13590, Note_on_c, 9, 59, 0
4, 13639, Note_on_c, 9, 59, 62
4, 13654, Note_on_c, 9, 59, 0
4, 13743, Note_on_c, 9, 51, 68
4, 13780, Note_on_c, 9, 51, 0
4, 13810, Note_on_c, 9, 59, 42
4, 13864, Note_on_c, 9, 59, 0
4, 13931, Note_on_c, 9, 59, 44
4, 13948, Note_on_c, 9, 59, 0
4, 14003, Note_on_c, 9, 51, 83
4, 14053, Note_on_c, 9, 51, 0
4, 14105, Note_on_c, 9, 38, 32
4, 14116, Note_on_c, 9, 59, 42
4, 14119, Note_on_c, 9, 38, 0
4, 14132, Note_on_c, 9, 59, 0
4, 14163, Note_on_c, 9, 38, 33
4, 14186, Note_on_c, 9, 51, 83
4, 14207, Note_on_c, 9, 38, 0
4, 14262, Note_on_c, 9, 51, 0
4, 14291, Note_on_c, 9, 36, 15
4, 14327, Note_on_c, 9, 36, 0
4, 14350, Note_on_c, 9, 36, 42
4, 14356, Note_on_c, 9, 51, 77
4, 14394, Note_on_c, 9, 36, 0
4, 14410, Note_on_c, 9, 36, 51
4, 14411, Note_on_c, 9, 51, 0
4, 14454, Note_on_c, 9, 36, 0
4, 14478, Note_on_c, 9, 59, 38
4, 14494, Note_on_c, 9, 59, 0
4, 14531, Note_on_c, 9, 59, 64
4, 14541, Note_on_c, 9, 38, 15
4, 14545, Note_on_c, 9, 51, 83
4, 14550, Note_on_c, 9, 38, 0
4, 14565, Note_on_c, 9, 59, 0
4, 14590, Note_on_c, 9, 38, 47
4, 14603, Note_on_c, 9, 51, 0
4, 14618, Note_on_c, 9, 38, 0
4, 14647, Note_on_c, 9, 59, 62
4, 14647, Note_on_c, 9, 38, 33
4, 14661, Note_on_c, 9, 59, 0
4, 14693, Note_on_c, 9, 38, 0
4, 14704, Note_on_c, 9, 59, 74
4, 14708, Note_on_c, 9, 36, 28
4, 14724, Note_on_c, 9, 36, 0
4, 14734, Note_on_c, 9, 59, 0
4, 14757, Note_on_c, 9, 36, 30
4, 14802, Note_on_c, 9, 36, 0
4, 14820, Note_on_c, 9, 51, 80
4, 14827, Note_on_c, 9, 36, 63
4, 14859, Note_on_c, 9, 51, 0
4, 14882, Note_on_c, 9, 59, 77
4, 14888, Note_on_c, 9, 36, 0
4, 14932, Note_on_c, 9, 59, 0
4, 14997, Note_on_c, 9, 59, 57
4, 15010, Note_on_c, 9, 59, 0
4, 15062, Note_on_c, 9, 51, 76
4, 15102, Note_on_c, 9, 51, 0
4, 15183, Note_on_c, 9, 51, 68
4, 15218, Note_on_c, 9, 51, 0
4, 15246, Note_on_c, 9, 59, 34
4, 15264, Note_on_c, 9, 59, 0
4, 15308, Note_on_c, 9, 51, 76
4, 15338, Note_on_c, 9, 51, 0
4, 15364, Note_on_c, 9, 38, 38
4, 15369, Note_on_c, 9, 57, 28
4, 15370, Note_on_c, 9, 59, 66
4, 15371, Note_on_c, 9, 57, 64
4, 15376, Note_on_c, 9, 38, 0
4, 15379, Note_on_c, 9, 57, 0
4, 15403, Note_on_c, 9, 57, 0
4, 15408, Note_on_c, 9, 59, 0
4, 15667, Note_on_c, 9, 51, 71
4, 15698, Note_on_c, 9, 51, 0
4, 15730, Note_on_c, 9, 59, 39
4, 15746, Note_on_c, 9, 59, 0
4, 15784, Note_on_c, 9, 38, 31
4, 15794, Note_on_c, 9, 38, 0
4, 15799, Note_on_c, 9, 59, 78
4, 15820, Note_on_c, 9, 59, 0
4, 15907, Note_on_c, 9, 38, 35
4, 15910, Note_on_c, 9, 59, 75
4, 15929, Note_on_c, 9, 59, 0
4, 15936, Note_on_c, 9, 38, 0
4, 16026, Note_on_c, 9, 38, 42
4, 16030, Note_on_c, 9, 59, 68
4, 16042, Note_on_c, 9, 59, 0
4, 16044, Note_on_c, 9, 38, 0
4, 16084, Note_on_c, 9, 38, 42
4, 16092, Note_on_c, 9, 59, 60
4, 16094, Note_on_c, 9, 36, 33
4, 16106, Note_on_c, 9, 59, 0
4, 16124, Note_on_c, 9, 36, 0
4, 16126, Note_on_c, 9, 38, 0
4, 16210, Note_on_c, 9, 51, 69
4, 16213, Note_on_c, 9, 38, 19
4, 16214, Note_on_c, 9, 53, 66
4, 16223, Note_on_c, 9, 38, 0
4, 16251, Note_on_c, 9, 53, 0
4, 16266, Note_on_c, 9, 51, 0
4, 16507, Note_on_c, 9, 51, 59
4, 16512, Note_on_c, 9, 53, 55
4, 16526, Note_on_c, 9, 53, 0
4, 16533, Note_on_c, 9, 51, 0
4, 16566, Note_on_c, 9, 38, 18
4, 16570, Note_on_c, 9, 53, 68
4, 16576, Note_on_c, 9, 51, 37
4, 16577, Note_on_c, 9, 38, 0
4, 16600, Note_on_c, 9, 51, 0
4, 16601, Note_on_c, 9, 53, 0
4, 16626, Note_on_c, 9, 38, 16
4, 16642, Note_on_c, 9, 38, 0
4, 16685, Note_on_c, 9, 38, 27
4, 16702, Note_on_c, 9, 38, 0
4, 16718, Note_on_c, 9, 38, 26
4, 16728, Note_on_c, 9, 38, 0
4, 16759, Note_on_c, 9, 53, 42
4, 16775, Note_on_c, 9, 53, 0
4, 16819, Note_on_c, 9, 36, 15
4, 16827, Note_on_c, 9, 36, 0
4, 16869, Note_on_c, 9, 36, 34
4, 16871, Note_on_c, 9, 59, 61
4, 16884, Note_on_c, 9, 59, 0
4, 16896, Note_on_c, 9, 36, 0
4, 16930, Note_on_c, 9, 59, 63
4, 16932, Note_on_c, 9, 36, 34
4, 16946, Note_on_c, 9, 59, 0
4, 16961, Note_on_c, 9, 36, 0
4, 16994, Note_on_c, 9, 53, 65
4, 17022, Note_on_c, 9, 53, 0
4, 17058, Note_on_c, 9, 53, 62
4, 17099, Note_on_c, 9, 53, 0
4, 17101, Note_on_c, 9, 40, 30
4, 17120, Note_on_c, 9, 40, 0
4, 17165, Note_on_c, 9, 40, 46
4, 17181, Note_on_c, 9, 59, 50
4, 17196, Note_on_c, 9, 59, 0
4, 17210, Note_on_c, 9, 40, 0
4, 17225, Note_on_c, 9, 36, 33
4, 17244, Note_on_c, 9, 36, 0
4, 17248, Note_on_c, 9, 53, 64
4, 17278, Note_on_c, 9, 53, 0
4, 17283, Note_on_c, 9, 38, 18
4, 17311, Note_on_c, 9, 53, 62
4, 17321, Note_on_c, 9, 38, 0
4, 17349, Note_on_c, 9, 38, 27
4, 17362, Note_on_c, 9, 53, 0
4, 17389, Note_on_c, 9, 38, 0
4, 17408, Note_on_c, 9, 38, 43
4, 17419, Note_on_c, 9, 59, 60
4, 17434, Note_on_c, 9, 59, 0
4, 17464, Note_on_c, 9, 38, 0
4, 17488, Note_on_c, 9, 53, 57
4, 17515, Note_on_c, 9, 53, 0
4, 17544, Note_on_c, 9, 53, 56
4, 17592, Note_on_c, 9, 53, 0
4, 17657, Note_on_c, 9, 59, 54
4, 17673, Note_on_c, 9, 59, 0
4, 17737, Note_on_c, 9, 53, 70
4, 17768, Note_on_c, 9, 53, 0
4, 17796, Note_on_c, 9, 53, 73
4, 17832, Note_on_c, 9, 53, 0
4, 17900, Note_on_c, 9, 59, 57
4, 17915, Note_on_c, 9, 59, 0
4, 17965, Note_on_c, 9, 53, 74
4, 17997, Note_on_c, 9, 53, 0
4, 18009, Note_on_c, 9, 38, 17
4, 18049, Note_on_c, 9, 38, 0
4, 18065, Note_on_c, 9, 38, 52
4, 18077, Note_on_c, 9, 59, 66
4, 18096, Note_on_c, 9, 59, 0
4, 18113, Note_on_c, 9, 38, 0
4, 18126, Note_on_c, 9, 38, 51
4, 18168, Note_on_c, 9, 38, 0
4, 18184, Note_on_c, 9, 53, 68
4, 18189, Note_on_c, 9, 36, 28
4, 18204, Note_on_c, 9, 36, 0
4, 18205, Note_on_c, 9, 53, 0
4, 18245, Note_on_c, 9, 53, 54
4, 18293, Note_on_c, 9, 53, 0
4, 18367, Note_on_c, 9, 59, 60
4, 18386, Note_on_c, 9, 59, 0
4, 18428, Note_on_c, 9, 59, 63
4, 18445, Note_on_c, 9, 59, 0
4, 18545, Note_on_c, 9, 53, 61
4, 18550, Note_on_c, 9, 45, 60
4, 18574, Note_on_c, 9, 53, 0
4, 18589, Note_on_c, 9, 45, 0
4, 18610, Note_on_c, 9, 53, 68
4, 18643, Note_on_c, 9, 53, 0
4, 18668, Note_on_c, 9, 38, 30
4, 18679, Note_on_c, 9, 38, 0
4, 18892, Note_on_c, 9, 53, 60
4, 18905, Note_on_c, 9, 53, 0
4, 18919, Note_on_c, 9, 38, 23
4, 18929, Note_on_c, 9, 38, 0
4, 18955, Note_on_c, 9, 59, 57
4, 18972, Note_on_c, 9, 59, 0
4, 18974, Note_on_c, 9, 45, 56
4, 19000, Note_on_c, 9, 45, 0
4, 19012, Note_on_c, 9, 51, 63
4, 19013, Note_on_c, 9, 53, 71
4, 19028, Note_on_c, 9, 45, 61
4, 19038, Note_on_c, 9, 53, 0
4, 19042, Note_on_c, 9, 51, 0
4, 19066, Note_on_c, 9, 45, 0
4, 19086, Note_on_c, 9, 45, 56
4, 19086, Note_on_c, 9, 59, 55
4, 19101, Note_on_c, 9, 59, 0
4, 19113, Note_on_c, 9, 45, 0
4, 19146, Note_on_c, 9, 38, 42
4, 19154, Note_on_c, 9, 51, 65
4, 19155, Note_on_c, 9, 53, 75
4, 19164, Note_on_c, 9, 38, 0
4, 19180, Note_on_c, 9, 53, 0
4, 19184, Note_on_c, 9, 51, 0
4, 19205, Note_on_c, 9, 57, 62
4, 19209, Note_on_c, 9, 36, 46
4, 19210, Note_on_c, 9, 38, 46
4, 19214, Note_on_c, 9, 59, 70
4, 19219, Note_on_c, 9, 38, 0
4, 19219, Note_on_c, 9, 57, 0
4, 19223, Note_on_c, 9, 36, 0
4, 19251, Note_on_c, 9, 59, 0
4, 19326, Note_on_c, 9, 59, 72
4, 19358, Note_on_c, 9, 59, 0
4, 19447, Note_on_c, 9, 59, 78
4, 19474, Note_on_c, 9, 59, 0
4, 19506, Note_on_c, 9, 45, 73
4, 19545, Note_on_c, 9, 45, 0
4, 19568, Note_on_c, 9, 43, 36
4, 19577, Note_on_c, 9, 43, 0
4, 19621, Note_on_c, 9, 53, 66
4, 19626, Note_on_c, 9, 38, 51
4, 19635, Note_on_c, 9, 53, 0
4, 19643, Note_on_c, 9, 38, 0
4, 19681, Note_on_c, 9, 53, 71
4, 19685, Note_on_c, 9, 57, 59
4, 19686, Note_on_c, 9, 38, 50
4, 19687, Note_on_c, 9, 36, 45
4, 19704, Note_on_c, 9, 57, 0
4, 19718, Note_on_c, 9, 53, 0
4, 19728, Note_on_c, 9, 36, 0
4, 19729, Note_on_c, 9, 38, 0
4, 19859, Note_on_c, 9, 53, 64
4, 19881, Note_on_c, 9, 53, 0
4, 19918, Note_on_c, 9, 59, 59
4, 19943, Note_on_c, 9, 59, 0
4, 19985, Note_on_c, 9, 59, 60
4, 20004, Note_on_c, 9, 59, 0
4, 20049, Note_on_c, 9, 59, 66
4, 20065, Note_on_c, 9, 59, 0
4, 20167, Note_on_c, 9, 53, 70
4, 20193, Note_on_c, 9, 53, 0
4, 20343, Note_on_c, 9, 59, 57
4, 20359, Note_on_c, 9, 59, 0
4, 20396, Note_on_c, 9, 59, 64
4, 20408, Note_on_c, 9, 45, 28
4, 20421, Note_on_c, 9, 45, 0
4, 20429, Note_on_c, 9, 59, 0
4, 20466, Note_on_c, 9, 59, 65
4, 20487, Note_on_c, 9, 59, 0
4, 20532, Note_on_c, 9, 45, 30
4, 20533, Note_on_c, 9, 38, 18
4, 20548, Note_on_c, 9, 45, 0
4, 20557, Note_on_c, 9, 38, 0
4, 20584, Note_on_c, 9, 53, 54
4, 20599, Note_on_c, 9, 53, 0
4, 20704, Note_on_c, 9, 53, 66
4, 20720, Note_on_c, 9, 53, 0
4, 20762, Note_on_c, 9, 59, 67
4, 20787, Note_on_c, 9, 59, 0
4, 20830, Note_on_c, 9, 53, 68
4, 20848, Note_on_c, 9, 53, 0
4, 20885, Note_on_c, 9, 59, 64
4, 20909, Note_on_c, 9, 59, 0
4, 20947, Note_on_c, 9, 45, 28
4, 20949, Note_on_c, 9, 59, 65
4, 20951, Note_on_c, 9, 38, 21
4, 20957, Note_on_c, 9, 45, 0
4, 20969, Note_on_c, 9, 38, 0
4, 20971, Note_on_c, 9, 59, 0
4, 21003, Note_on_c, 9, 45, 23
4, 21012, Note_on_c, 9, 59, 65
4, 21024, Note_on_c, 9, 45, 0
4, 21033, Note_on_c, 9, 59, 0
4, 21068, Note_on_c, 9, 45, 23
4, 21070, Note_on_c, 9, 38, 18
4, 21071, Note_on_c, 9, 59, 72
4, 21079, Note_on_c, 9, 45, 0
4, 21083, Note_on_c, 9, 38, 0
4, 21097, Note_on_c, 9, 59, 0
4, 21127, Note_on_c, 9, 59, 79
4, 21162, Note_on_c, 9, 59, 0
4, 21199, Note_on_c, 9, 45, 18
4, 21214, Note_on_c, 9, 45, 0
4, 21250, Note_on_c, 9, 45, 28
4, 21250, Note_on_c, 9, 59, 48
4, 21265, Note_on_c, 9, 45, 0
4, 21267, Note_on_c, 9, 59, 0
4, 21309, Note_on_c, 9, 59, 70
4, 21315, Note_on_c, 9, 45, 35
4, 21317, Note_on_c, 9, 38, 26
4, 21324, Note_on_c, 9, 45, 0
4, 21330, Note_on_c, 9, 59, 0
4, 21333, Note_on_c, 9, 38, 0
4, 21436, Note_on_c, 9, 51, 62
4, 21437, Note_on_c, 9, 53, 61
4, 21471, Note_on_c, 9, 53, 0
4, 21484, Note_on_c, 9, 51, 0
4, 21542, Note_on_c, 9, 38, 29
4, 21574, Note_on_c, 9, 38, 0
4, 21600, Note_on_c, 9, 38, 28
4, 21621, Note_on_c, 9, 38, 0
4, 21662, Note_on_c, 9, 36, 32
4, 21672, Note_on_c, 9, 36, 0
4, 21674, Note_on_c, 9, 51, 59
4, 21676, Note_on_c, 9, 53, 59
4, 21693, Note_on_c, 9, 53, 0
4, 21710, Note_on_c, 9, 51, 0
4, 21716, Note_on_c, 9, 38, 19
4, 21734, Note_on_c, 9, 38, 0
4, 21849, Note_on_c, 9, 51, 63
4, 21850, Note_on_c, 9, 53, 67
4, 21875, Note_on_c, 9, 53, 0
4, 21879, Note_on_c, 9, 51, 0
4, 22017, Note_on_c, 9, 59, 53
4, 22033, Note_on_c, 9, 59, 0
4, 22073, Note_on_c, 9, 59, 66
4, 22110, Note_on_c, 9, 59, 0
4, 22144, Note_on_c, 9, 59, 60
4, 22161, Note_on_c, 9, 59, 0
4, 22264, Note_on_c, 9, 51, 50
4, 22267, Note_on_c, 9, 53, 49
4, 22268, Note_on_c, 9, 38, 33
4, 22283, Note_on_c, 9, 38, 0
4, 22284, Note_on_c, 9, 53, 0
4, 22295, Note_on_c, 9, 51, 0
4, 22325, Note_on_c, 9, 38, 28
4, 22328, Note_on_c, 9, 51, 46
4, 22330, Note_on_c, 9, 53, 57
4, 22362, Note_on_c, 9, 53, 0
4, 22376, Note_on_c, 9, 51, 0
4, 22377, Note_on_c, 9, 38, 0
4, 22390, Note_on_c, 9, 36, 18
4, 22401, Note_on_c, 9, 36, 0
4, 22509, Note_on_c, 9, 38, 25
4, 22539, Note_on_c, 9, 38, 0
4, 22565, Note_on_c, 9, 38, 25
4, 22598, Note_on_c, 9, 38, 0
4, 22630, Note_on_c, 9, 59, 59
4, 22645, Note_on_c, 9, 59, 0
4, 22739, Note_on_c, 9, 59, 64
4, 22754, Note_on_c, 9, 59, 0
4, 22754, Note_on_c, 9, 38, 32
4, 22764, Note_on_c, 9, 38, 0
4, 22810, Note_on_c, 9, 59, 68
4, 22847, Note_on_c, 9, 59, 0
4, 22878, Note_on_c, 9, 38, 61
4, 22902, Note_on_c, 9, 38, 0
4, 22912, Note_on_c, 9, 53, 55
4, 22930, Note_on_c, 9, 53, 0
4, 22939, Note_on_c, 9, 38, 32
4, 22961, Note_on_c, 9, 38, 0
4, 22983, Note_on_c, 9, 59, 69
4, 22998, Note_on_c, 9, 36, 35
4, 23010, Note_on_c, 9, 36, 0
4, 23013, Note_on_c, 9, 59, 0
4, 23055, Note_on_c, 9, 36, 27
4, 23055, Note_on_c, 9, 38, 25
4, 23055, Note_on_c, 9, 45, 37
4, 23064, Note_on_c, 9, 45, 0
4, 23068, Note_on_c, 9, 36, 0
4, 23075, Note_on_c, 9, 38, 0
4, 23092, Note_on_c, 9, 59, 56
4, 23109, Note_on_c, 9, 59, 0
4, 23179, Note_on_c, 9, 51, 43
4, 23180, Note_on_c, 9, 53, 47
4, 23198, Note_on_c, 9, 53, 0
4, 23210, Note_on_c, 9, 51, 0
4, 23284, Note_on_c, 9, 59, 52
4, 23300, Note_on_c, 9, 59, 0
4, 23350, Note_on_c, 9, 59, 62
4, 23367, Note_on_c, 9, 59, 0
4, 23469, Note_on_c, 9, 53, 68
4, 23473, Note_on_c, 9, 51, 50
4, 23484, Note_on_c, 9, 53, 0
4, 23499, Note_on_c, 9, 51, 0
4, 23530, Note_on_c, 9, 59, 61
4, 23561, Note_on_c, 9, 59, 0
4, 23598, Note_on_c, 9, 38, 24
4, 23609, Note_on_c, 9, 38, 0
4, 23648, Note_on_c, 9, 59, 36
4, 23665, Note_on_c, 9, 59, 0
4, 23712, Note_on_c, 9, 59, 61
4, 23731, Note_on_c, 9, 59, 0
4, 23830, Note_on_c, 9, 38, 24
4, 23835, Note_on_c, 9, 53, 54
4, 23835, Note_on_c, 9, 51, 50
4, 23849, Note_on_c, 9, 53, 0
4, 23853, Note_on_c, 9, 51, 0
4, 23855, Note_on_c, 9, 38, 0
4, 23893, Note_on_c, 9, 59, 49
4, 23919, Note_on_c, 9, 59, 0
4, 23957, Note_on_c, 9, 38, 26
4, 23970, Note_on_c, 9, 38, 0
4, 24060, Note_on_c, 9, 44, 30
4, 24085, Note_on_c, 9, 44, 0
4, 24180, Note_on_c, 9, 44, 31
4, 24211, Note_on_c, 9, 44, 0
4, 24300, Note_on_c, 9, 44, 35
4, 24329, Note_on_c, 9, 44, 0
4, 24434, Note_on_c, 9, 53, 43
4, 24435, Note_on_c, 9, 51, 42
4, 24452, Note_on_c, 9, 53, 0
4, 24463, Note_on_c, 9, 51, 0
4, 24496, Note_on_c, 9, 59, 48
4, 24528, Note_on_c, 9, 59, 0
4, 24555, Note_on_c, 9, 38, 23
4, 24563, Note_on_c, 9, 51, 39
4, 24579, Note_on_c, 9, 51, 0
4, 24586, Note_on_c, 9, 38, 0
4, 24613, Note_on_c, 9, 59, 60
4, 24627, Note_on_c, 9, 59, 0
4, 24682, Note_on_c, 9, 38, 30
4, 24712, Note_on_c, 9, 38, 0
4, 24780, Note_on_c, 9, 44, 23
4, 24793, Note_on_c, 9, 53, 51
4, 24797, Note_on_c, 9, 44, 0
4, 24798, Note_on_c, 9, 51, 33
4, 24802, Note_on_c, 9, 38, 35
4, 24812, Note_on_c, 9, 53, 0
4, 24818, Note_on_c, 9, 51, 0
4, 24826, Note_on_c, 9, 38, 0
4, 24852, Note_on_c, 9, 59, 51
4, 24866, Note_on_c, 9, 59, 0
4, 24900, Note_on_c, 9, 44, 38
4, 24906, Note_on_c, 9, 38, 35
4, 24917, Note_on_c, 9, 51, 38
4, 24917, Note_on_c, 9, 53, 54
4, 24929, Note_on_c, 9, 38, 0
4, 24929, Note_on_c, 9, 44, 0
4, 24934, Note_on_c, 9, 51, 0
4, 24934, Note_on_c, 9, 53, 0
4, 24973, Note_on_c, 9, 59, 60
4, 24987, Note_on_c, 9, 59, 0
4, 25080, Note_on_c, 9, 59, 69
4, 25104, Note_on_c, 9, 59, 0
4, 25203, Note_on_c, 9, 59, 62
4, 25222, Note_on_c, 9, 59, 0
4, 25260, Note_on_c, 9, 44, 30
4, 25266, Note_on_c, 9, 53, 51
4, 25281, Note_on_c, 9, 53, 0
4, 25286, Note_on_c, 9, 44, 0
4, 25326, Note_on_c, 9, 38, 24
4, 25337, Note_on_c, 9, 38, 0
4, 25380, Note_on_c, 9, 38, 29
4, 25396, Note_on_c, 9, 38, 0
4, 25441, Note_on_c, 9, 38, 26
4, 25451, Note_on_c, 9, 38, 0
4, 25471, Note_on_c, 9, 38, 30
4, 25481, Note_on_c, 9, 38, 0
4, 25500, Note_on_c, 9, 51, 52
4, 25500, Note_on_c, 9, 44, 26
4, 25517, Note_on_c, 9, 44, 0
4, 25520, Note_on_c, 9, 51, 0
4, 25576, Note_on_c, 9, 59, 44
4, 25591, Note_on_c, 9, 59, 0
4, 25622, Note_on_c, 9, 38, 28
4, 25631, Note_on_c, 9, 38, 0
4, 25635, Note_on_c, 9, 59, 66
4, 25658, Note_on_c, 9, 59, 0
4, 25695, Note_on_c, 9, 59, 67
4, 25724, Note_on_c, 9, 59, 0
4, 25726, Note_on_c, 9, 38, 40
4, 25734, Note_on_c, 9, 38, 0
4, 25747, Note_on_c, 9, 51, 62
4, 25752, Note_on_c, 9, 38, 46
4, 25768, Note_on_c, 9, 38, 0
4, 25781, Note_on_c, 9, 51, 0
4, 25804, Note_on_c, 9, 59, 43
4, 25818, Note_on_c, 9, 38, 25
4, 25819, Note_on_c, 9, 59, 0
4, 25828, Note_on_c, 9, 38, 0
4, 25863, Note_on_c, 9, 59, 64
4, 25878, Note_on_c, 9, 38, 22
4, 25888, Note_on_c, 9, 38, 0
4, 25889, Note_on_c, 9, 59, 0
4, 25932, Note_on_c, 9, 59, 57
4, 25948, Note_on_c, 9, 59, 0
4, 25990, Note_on_c, 9, 51, 55
4, 26021, Note_on_c, 9, 51, 0
4, 26103, Note_on_c, 9, 38, 21
4, 26104, Note_on_c, 9, 59, 64
4, 26116, Note_on_c, 9, 59, 0
4, 26127, Note_on_c, 9, 38, 0
4, 26170, Note_on_c, 9, 36, 14
4, 26178, Note_on_c, 9, 36, 0
4, 26221, Note_on_c, 9, 59, 65
4, 26228, Note_on_c, 9, 36, 15
4, 26238, Note_on_c, 9, 36, 0
4, 26252, Note_on_c, 9, 59, 0
4, 26347, Note_on_c, 9, 53, 62
4, 26351, Note_on_c, 9, 38, 15
4, 26359, Note_on_c, 9, 38, 0
4, 26371, Note_on_c, 9, 53, 0
4, 26396, Note_on_c, 9, 59, 65
4, 26437, Note_on_c, 9, 59, 0
4, 26468, Note_on_c, 9, 38, 23
4, 26471, Note_on_c, 9, 57, 21
4, 26479, Note_on_c, 9, 57, 0
4, 26479, Note_on_c, 9, 38, 0
4, 26584, Note_on_c, 9, 38, 30
4, 26597, Note_on_c, 9, 53, 74
4, 26604, Note_on_c, 9, 38, 0
4, 26626, Note_on_c, 9, 53, 0
4, 26653, Note_on_c, 9, 59, 64
4, 26689, Note_on_c, 9, 59, 0
4, 26712, Note_on_c, 9, 38, 37
4, 26739, Note_on_c, 9, 38, 0
4, 26766, Note_on_c, 9, 59, 68
4, 26789, Note_on_c, 9, 59, 0
4, 26837, Note_on_c, 9, 38, 32
4, 26847, Note_on_c, 9, 38, 0
4, 26890, Note_on_c, 9, 59, 81
4, 26894, Note_on_c, 9, 57, 40
4, 26897, Note_on_c, 9, 38, 28
4, 26898, Note_on_c, 9, 36, 33
4, 26907, Note_on_c, 9, 57, 0
4, 26909, Note_on_c, 9, 36, 0
4, 26912, Note_on_c, 9, 38, 0
4, 26918, Note_on_c, 9, 59, 0
4, 27084, Note_on_c, 9, 59, 70
4, 27113, Note_on_c, 9, 59, 0
4, 27138, Note_on_c, 9, 59, 71
4, 27167, Note_on_c, 9, 59, 0
4, 27323, Note_on_c, 9, 59, 64
4, 27335, Note_on_c, 9, 59, 0
4, 27388, Note_on_c, 9, 59, 45
4, 27407, Note_on_c, 9, 59, 0
4, 27427, Note_on_c, 9, 38, 33
4, 27442, Note_on_c, 9, 59, 41
4, 27457, Note_on_c, 9, 38, 0
4, 27459, Note_on_c, 9, 59, 0
4, 27483, Note_on_c, 9, 38, 30
4, 27499, Note_on_c, 9, 59, 68
4, 27516, Note_on_c, 9, 38, 0
4, 27524, Note_on_c, 9, 59, 0
4, 27550, Note_on_c, 9, 36, 16
4, 27562, Note_on_c, 9, 36, 0
4, 27603, Note_on_c, 9, 51, 61
4, 27608, Note_on_c, 9, 59, 70
4, 27608, Note_on_c, 9, 53, 60
4, 27613, Note_on_c, 9, 38, 28
4, 27621, Note_on_c, 9, 59, 0
4, 27623, Note_on_c, 9, 38, 0
4, 27625, Note_on_c, 9, 53, 0
4, 27642, Note_on_c, 9, 51, 0
4, 27669, Note_on_c, 9, 38, 51
4, 27708, Note_on_c, 9, 38, 0
4, 27727, Note_on_c, 9, 38, 53
4, 27730, Note_on_c, 9, 59, 45
4, 27745, Note_on_c, 9, 59, 0
4, 27775, Note_on_c, 9, 38, 0
4, 27791, Note_on_c, 9, 59, 72
4, 27796, Note_on_c, 9, 36, 17
4, 27799, Note_on_c, 9, 51, 50
4, 27802, Note_on_c, 9, 53, 50
4, 27806, Note_on_c, 9, 36, 0
4, 27817, Note_on_c, 9, 53, 0
4, 27821, Note_on_c, 9, 59, 0
4, 27831, Note_on_c, 9, 51, 0
4, 27858, Note_on_c, 9, 38, 21
4, 27869, Note_on_c, 9, 38, 0
4, 27905, Note_on_c, 9, 59, 54
4, 27913, Note_on_c, 9, 38, 47
4, 27919, Note_on_c, 9, 59, 0
4, 27950, Note_on_c, 9, 38, 0
4, 27966, Note_on_c, 9, 51, 61
4, 27967, Note_on_c, 9, 59, 64
4, 27969, Note_on_c, 9, 38, 56
4, 27971, Note_on_c, 9, 53, 57
4, 27987, Note_on_c, 9, 53, 0
4, 27996, Note_on_c, 9, 51, 0
4, 28003, Note_on_c, 9, 59, 0
4, 28022, Note_on_c, 9, 38, 0
4, 28073, Note_on_c, 9, 59, 57
4, 28087, Note_on_c, 9, 59, 0
4, 28145, Note_on_c, 9, 59, 61
4, 28160, Note_on_c, 9, 59, 0
4, 28259, Note_on_c, 9, 59, 68
4, 28273, Note_on_c, 9, 59, 0
4, 28386, Note_on_c, 9, 59, 62
4, 28391, Note_on_c, 9, 51, 50
4, 28392, Note_on_c, 9, 53, 60
4, 28399, Note_on_c, 9, 59, 0
4, 28405, Note_on_c, 9, 53, 0
4, 28410, Note_on_c, 9, 51, 0
4, 28445, Note_on_c, 9, 59, 67
4, 28481, Note_on_c, 9, 59, 0
4, 28566, Note_on_c, 9, 59, 61
4, 28582, Note_on_c, 9, 59, 0
4, 28626, Note_on_c, 9, 59, 58
4, 28640, Note_on_c, 9, 59, 0
4, 28742, Note_on_c, 9, 38, 25
4, 28749, Note_on_c, 9, 53, 57
4, 28754, Note_on_c, 9, 38, 0
4, 28761, Note_on_c, 9, 59, 34
4, 28778, Note_on_c, 9, 59, 0
4, 28780, Note_on_c, 9, 53, 0
4, 28801, Note_on_c, 9, 38, 21
4, 28805, Note_on_c, 9, 36, 30
4, 28812, Note_on_c, 9, 59, 53
4, 28837, Note_on_c, 9, 36, 0
4, 28845, Note_on_c, 9, 38, 0
4, 28863, Note_on_c, 9, 59, 0
4, 28924, Note_on_c, 9, 38, 28
4, 28927, Note_on_c, 9, 36, 28
4, 28944, Note_on_c, 9, 59, 74
4, 28958, Note_on_c, 9, 36, 0
4, 28972, Note_on_c, 9, 59, 0
4, 28981, Note_on_c, 9, 38, 0
4, 29047, Note_on_c, 9, 59, 71
4, 29050, Note_on_c, 9, 53, 57
4, 29066, Note_on_c, 9, 53, 0
4, 29073, Note_on_c, 9, 59, 0
4, 29106, Note_on_c, 9, 38, 24
4, 29123, Note_on_c, 9, 38, 0
4, 29231, Note_on_c, 9, 59, 68
4, 29238, Note_on_c, 9, 38, 26
4, 29249, Note_on_c, 9, 59, 0
4, 29251, Note_on_c, 9, 38, 0
4, 29290, Note_on_c, 9, 59, 69
4, 29292, Note_on_c, 9, 53, 62
4, 29296, Note_on_c, 9, 51, 39
4, 29321, Note_on_c, 9, 53, 0
4, 29321, Note_on_c, 9, 59, 0
4, 29326, Note_on_c, 9, 51, 0
4, 29355, Note_on_c, 9, 38, 35
4, 29373, Note_on_c, 9, 38, 0
4, 29472, Note_on_c, 9, 38, 26
4, 29476, Note_on_c, 9, 59, 55
4, 29489, Note_on_c, 9, 59, 0
4, 29491, Note_on_c, 9, 38, 0
4, 29533, Note_on_c, 9, 59, 71
4, 29540, Note_on_c, 9, 53, 46
4, 29543, Note_on_c, 9, 51, 33
4, 29557, Note_on_c, 9, 59, 0
4, 29561, Note_on_c, 9, 53, 0
4, 29574, Note_on_c, 9, 51, 0
4, 29593, Note_on_c, 9, 38, 32
4, 29624, Note_on_c, 9, 38, 0
4, 29708, Note_on_c, 9, 59, 66
4, 29713, Note_on_c, 9, 36, 30
4, 29720, Note_on_c, 9, 59, 0
4, 29737, Note_on_c, 9, 36, 0
4, 29764, Note_on_c, 9, 57, 70
4, 29765, Note_on_c, 9, 51, 49
4, 29768, Note_on_c, 9, 53, 52
4, 29771, Note_on_c, 9, 36, 49
4, 29772, Note_on_c, 9, 38, 44
4, 29778, Note_on_c, 9, 59, 36
4, 29792, Note_on_c, 9, 59, 0
4, 29796, Note_on_c, 9, 53, 0
4, 29797, Note_on_c, 9, 57, 0
4, 29808, Note_on_c, 9, 51, 0
4, 29808, Note_on_c, 9, 36, 0
4, 29820, Note_on_c, 9, 38, 0
4, 29890, Note_on_c, 9, 38, 49
4, 29891, Note_on_c, 9, 36, 46
4, 29932, Note_on_c, 9, 36, 0
4, 29946, Note_on_c, 9, 38, 0
4, 30063, Note_on_c, 9, 59, 72
4, 30075, Note_on_c, 9, 59, 0
4, 30122, Note_on_c, 9, 59, 73
4, 30151, Note_on_c, 9, 59, 0
4, 30190, Note_on_c, 9, 38, 18
4, 30201, Note_on_c, 9, 38, 0
4, 30298, Note_on_c, 9, 57, 46
4, 30300, Note_on_c, 9, 59, 46
4, 30307, Note_on_c, 9, 51, 26
4, 30312, Note_on_c, 9, 57, 0
4, 30312, Note_on_c, 9, 53, 26
4, 30313, Note_on_c, 9, 59, 0
4, 30323, Note_on_c, 9, 51, 0
4, 30323, Note_on_c, 9, 38, 16
4, 30327, Note_on_c, 9, 53, 0
4, 30334, Note_on_c, 9, 38, 0
4, 30433, Note_on_c, 9, 38, 35
4, 30452, Note_on_c, 9, 59, 60
4, 30453, Note_on_c, 9, 38, 0
4, 30465, Note_on_c, 9, 59, 0
4, 30490, Note_on_c, 9, 38, 22
4, 30499, Note_on_c, 9, 59, 80
4, 30503, Note_on_c, 9, 38, 0
4, 30543, Note_on_c, 9, 59, 0
4, 30547, Note_on_c, 9, 38, 54
4, 30575, Note_on_c, 9, 38, 0
4, 30608, Note_on_c, 9, 38, 34
4, 30611, Note_on_c, 9, 59, 66
4, 30630, Note_on_c, 9, 38, 0
4, 30635, Note_on_c, 9, 59, 0
4, 30670, Note_on_c, 9, 36, 41
4, 30682, Note_on_c, 9, 36, 0
4, 30684, Note_on_c, 9, 59, 66
4, 30709, Note_on_c, 9, 59, 0
4, 30729, Note_on_c, 9, 38, 42
4, 30730, Note_on_c, 9, 44, 42
4, 30732, Note_on_c, 9, 36, 37
4, 30740, Note_on_c, 9, 59, 63
4, 30742, Note_on_c, 9, 44, 0
4, 30742, Note_on_c, 9, 57, 62
4, 30743, Note_on_c, 9, 36, 0
4, 30744, Note_on_c, 9, 53, 40
4, 30744, Note_on_c, 9, 51, 33
4, 30752, Note_on_c, 9, 38, 0
4, 30755, Note_on_c, 9, 59, 0
4, 30759, Note_on_c, 9, 57, 0
4, 30761, Note_on_c, 9, 51, 0
4, 30762, Note_on_c, 9, 53, 0
4, 31037, Note_on_c, 9, 38, 22
4, 31049, Note_on_c, 9, 38, 0
4, 31155, Note_on_c, 9, 38, 45
4, 31176, Note_on_c, 9, 38, 0
4, 31280, Note_on_c, 9, 38, 49
4, 31308, Note_on_c, 9, 38, 0
4, 31334, Note_on_c, 9, 44, 30
4, 31339, Note_on_c, 9, 36, 27
4, 31349, Note_on_c, 9, 36, 0
4, 31375, Note_on_c, 9, 44, 0
4, 31451, Note_on_c, 9, 38, 46
4, 31454, Note_on_c, 9, 36, 38
4, 31487, Note_on_c, 9, 36, 0
4, 31501, Note_on_c, 9, 38, 0
4, 31561, Note_on_c, 9, 44, 30
4, 31602, Note_on_c, 9, 44, 0
4, 31629, Note_on_c, 9, 38, 21
4, 31641, Note_on_c, 9, 38, 0
4, 31682, Note_on_c, 9, 38, 35
4, 31710, Note_on_c, 9, 38, 0
4, 31992, Note_on_c, 9, 38, 46
4, 32011, Note_on_c, 9, 38, 0
4, 32048, Note_on_c, 9, 38, 46
4, 32068, Note_on_c, 9, 38, 0
4, 32112, Note_on_c, 9, 36, 29
4, 32122, Note_on_c, 9, 36, 0
4, 32240, Note_on_c, 9, 38, 58
4, 32268, Note_on_c, 9, 38, 0
4, 32486, Note_on_c, 9, 38, 61
4, 32526, Note_on_c, 9, 38, 0
4, 32603, Note_on_c, 9, 59, 53
4, 32604, Note_on_c, 9, 38, 51
4, 32605, Note_on_c, 9, 36, 47
4, 32613, Note_on_c, 9, 59, 0
4, 32615, Note_on_c, 9, 36, 0
4, 32624, Note_on_c, 9, 38, 0
4, 32644, Note_on_c, 9, 38, 56
4, 32645, Note_on_c, 9, 36, 54
4, 32647, Note_on_c, 9, 59, 57
4, 32648, Note_on_c, 9, 38, 35
4, 32658, Note_on_c, 9, 59, 0
4, 32676, Note_on_c, 9, 38, 0
4, 32688, Note_on_c, 9, 36, 0
4, 32694, Note_on_c, 9, 38, 0
4, 32849, Note_on_c, 9, 59, 42
4, 32861, Note_on_c, 9, 59, 0
4, 32882, Note_on_c, 9, 59, 51
4, 32942, Note_on_c, 9, 59, 0
4, 33091, Note_on_c, 9, 59, 46
4, 33101, Note_on_c, 9, 59, 0
4, 33124, Note_on_c, 9, 59, 56
4, 33201, Note_on_c, 9, 59, 0
4, 33204, Note_on_c, 9, 38, 36
4, 33232, Note_on_c, 9, 38, 0
4, 33251, Note_on_c, 9, 59, 53
4, 33256, Note_on_c, 9, 36, 25
4, 33295, Note_on_c, 9, 59, 0
4, 33304, Note_on_c, 9, 36, 0
4, 33324, Note_on_c, 9, 36, 49
4, 33353, Note_on_c, 9, 36, 0
4, 33368, Note_on_c, 9, 59, 75
4, 33436, Note_on_c, 9, 59, 0
4, 33568, Note_on_c, 9, 59, 49
4, 33582, Note_on_c, 9, 59, 0
4, 33604, Note_on_c, 9, 59, 56
4, 33663, Note_on_c, 9, 59, 0
4, 33725, Note_on_c, 9, 59, 54
4, 33792, Note_on_c, 9, 59, 0
4, 33835, Note_on_c, 9, 38, 33
4, 33841, Note_on_c, 9, 59, 47
4, 33852, Note_on_c, 9, 38, 0
4, 33916, Note_on_c, 9, 38, 38
4, 33918, Note_on_c, 9, 59, 0
4, 33941, Note_on_c, 9, 38, 0
4, 33961, Note_on_c, 9, 38, 27
4, 33963, Note_on_c, 9, 59, 57
4, 34004, Note_on_c, 9, 38, 0
4, 34028, Note_on_c, 9, 59, 0
4, 34041, Note_on_c, 9, 36, 17
4, 34051, Note_on_c, 9, 36, 0
4, 34166, Note_on_c, 9, 59, 42
4, 34178, Note_on_c, 9, 59, 0
4, 34209, Note_on_c, 9, 59, 33
4, 34238, Note_on_c, 9, 59, 0
4, 34284, Note_on_c, 9, 53, 80
4, 34286, Note_on_c, 9, 38, 26
4, 34298, Note_on_c, 9, 38, 0
4, 34306, Note_on_c, 9, 53, 0
4, 34346, Note_on_c, 9, 59, 30
4, 34368, Note_on_c, 9, 59, 0
4, 34396, Note_on_c, 9, 38, 38
4, 34406, Note_on_c, 9, 53, 65
4, 34409, Note_on_c, 9, 38, 0
4, 34429, Note_on_c, 9, 53, 0
4, 34450, Note_on_c, 9, 59, 47
4, 34507, Note_on_c, 9, 59, 0
4, 34518, Note_on_c, 9, 36, 30
4, 34529, Note_on_c, 9, 36, 0
4, 34557, Note_on_c, 9, 36, 29
4, 34558, Note_on_c, 9, 59, 74
4, 34572, Note_on_c, 9, 36, 0
4, 34626, Note_on_c, 9, 59, 0
4, 34676, Note_on_c, 9, 59, 95
4, 34729, Note_on_c, 9, 59, 0
4, 34768, Note_on_c, 9, 59, 40
4, 34779, Note_on_c, 9, 59, 0
4, 34888, Note_on_c, 9, 59, 58
4, 34899, Note_on_c, 9, 59, 0
4, 34917, Note_on_c, 9, 37, 42
4, 34929, Note_on_c, 9, 59, 35
4, 34964, Note_on_c, 9, 37, 0
4, 34969, Note_on_c, 9, 59, 0
4, 35043, Note_on_c, 9, 59, 90
4, 35094, Note_on_c, 9, 59, 0
4, 35240, Note_on_c, 9, 38, 29
4, 35245, Note_on_c, 9, 59, 103
4, 35252, Note_on_c, 9, 38, 0
4, 35268, Note_on_c, 9, 59, 0
4, 35363, Note_on_c, 9, 53, 66
4, 35373, Note_on_c, 9, 53, 0
4, 35407, Note_on_c, 9, 59, 71
4, 35463, Note_on_c, 9, 59, 0
4, 35484, Note_on_c, 9, 59, 56
4, 35497, Note_on_c, 9, 59, 0
4, 35609, Note_on_c, 9, 53, 49
4, 35619, Note_on_c, 9, 53, 0
4, 35728, Note_on_c, 9, 59, 58
4, 35738, Note_on_c, 9, 59, 0
4, 35780, Note_on_c, 9, 59, 22
4, 35792, Note_on_c, 9, 59, 0
4, 35841, Note_on_c, 9, 38, 16
4, 35844, Note_on_c, 9, 53, 74
4, 35844, Note_on_c, 9, 51, 59
4, 35852, Note_on_c, 9, 38, 0
4, 35853, Note_on_c, 9, 53, 0
4, 35863, Note_on_c, 9, 51, 0
4, 35885, Note_on_c, 9, 44, 42
4, 35886, Note_on_c, 9, 59, 42
4, 35922, Note_on_c, 9, 44, 0
4, 35931, Note_on_c, 9, 59, 0
4, 35997, Note_on_c, 9, 59, 56
4, 36054, Note_on_c, 9, 59, 0
4, 36086, Note_on_c, 9, 38, 28
4, 36099, Note_on_c, 9, 38, 0
4, 36120, Note_on_c, 9, 59, 71
4, 36179, Note_on_c, 9, 59, 0
4, 36205, Note_on_c, 9, 37, 35
4, 36217, Note_on_c, 9, 37, 0
4, 36243, Note_on_c, 9, 59, 48
4, 36283, Note_on_c, 9, 59, 0
4, 36325, Note_on_c, 9, 38, 30
4, 36333, Note_on_c, 9, 59, 38
4, 36336, Note_on_c, 9, 38, 0
4, 36346, Note_on_c, 9, 59, 0
4, 36366, Note_on_c, 9, 44, 53
4, 36372, Note_on_c, 9, 59, 47
4, 36419, Note_on_c, 9, 59, 0
4, 36420, Note_on_c, 9, 44, 0
4, 36444, Note_on_c, 9, 57, 66
4, 36445, Note_on_c, 9, 51, 50
4, 36445, Note_on_c, 9, 53, 66
4, 36445, Note_on_c, 9, 59, 60
4, 36456, Note_on_c, 9, 53, 0
4, 36461, Note_on_c, 9, 51, 0
4, 36465, Note_on_c, 9, 57, 0
4, 36477, Note_on_c, 9, 59, 0
4, 36610, Note_on_c, 9, 59, 46
4, 36644, Note_on_c, 9, 59, 0
4, 36689, Note_on_c, 9, 38, 17
4, 36690, Note_on_c, 9, 59, 40
4, 36700, Note_on_c, 9, 59, 0
4, 36706, Note_on_c, 9, 38, 0
4, 36726, Note_on_c, 9, 59, 38
4, 36743, Note_on_c, 9, 38, 23
4, 36764, Note_on_c, 9, 38, 0
4, 36782, Note_on_c, 9, 59, 0
4, 36803, Note_on_c, 9, 59, 66
4, 36805, Note_on_c, 9, 57, 58
4, 36805, Note_on_c, 9, 51, 55
4, 36806, Note_on_c, 9, 53, 45
4, 36808, Note_on_c, 9, 36, 30
4, 36817, Note_on_c, 9, 53, 0
4, 36819, Note_on_c, 9, 36, 0
4, 36825, Note_on_c, 9, 51, 0
4, 36857, Note_on_c, 9, 57, 0
4, 36858, Note_on_c, 9, 59, 0
4, 37080, Note_on_c, 9, 59, 91
4, 37140, Note_on_c, 9, 59, 0
4, 37209, Note_on_c, 9, 59, 40
4, 37244, Note_on_c, 9, 59, 0
4, 37286, Note_on_c, 9, 59, 55
4, 37305, Note_on_c, 9, 59, 0
4, 37326, Note_on_c, 9, 59, 62
4, 37327, Note_on_c, 9, 44, 51
4, 37372, Note_on_c, 9, 44, 0
4, 37383, Note_on_c, 9, 59, 0
4, 37435, Note_on_c, 9, 59, 76
4, 37503, Note_on_c, 9, 59, 0
4, 37557, Note_on_c, 9, 59, 70
4, 37619, Note_on_c, 9, 59, 0
4, 37653, Note_on_c, 9, 59, 18
4, 37663, Note_on_c, 9, 59, 0
4, 37676, Note_on_c, 9, 59, 44
4, 37740, Note_on_c, 9, 59, 0
4, 37792, Note_on_c, 9, 59, 87
4, 37801, Note_on_c, 9, 44, 49
4, 37844, Note_on_c, 9, 44, 0
4, 37877, Note_on_c, 9, 59, 0
4, 37919, Note_on_c, 9, 44, 41
4, 37921, Note_on_c, 9, 59, 41
4, 37944, Note_on_c, 9, 59, 0
4, 37979, Note_on_c, 9, 44, 0
4, 37999, Note_on_c, 9, 59, 87
4, 38041, Note_on_c, 9, 44, 41
4, 38095, Note_on_c, 9, 59, 0
4, 38106, Note_on_c, 9, 44, 0
4, 38123, Note_on_c, 9, 59, 27
4, 38139, Note_on_c, 9, 59, 0
4, 38164, Note_on_c, 9, 59, 82
4, 38165, Note_on_c, 9, 44, 42
4, 38200, Note_on_c, 9, 44, 0
4, 38245, Note_on_c, 9, 59, 0
4, 38245, Note_on_c, 9, 38, 46
4, 38273, Note_on_c, 9, 38, 0
4, 38288, Note_on_c, 9, 59, 41
4, 38305, Note_on_c, 9, 59, 0
4, 38311, Note_on_c, 9, 38, 20
4, 38329, Note_on_c, 9, 38, 0
4, 38365, Note_on_c, 9, 59, 78
4, 38367, Note_on_c, 9, 51, 58
4, 38405, Note_on_c, 9, 51, 0
4, 38418, Note_on_c, 9, 59, 0
4, 38494, Note_on_c, 9, 38, 15
4, 38503, Note_on_c, 9, 38, 0
4, 38535, Note_on_c, 9, 59, 69
4, 38540, Note_on_c, 9, 51, 44
4, 38543, Note_on_c, 9, 53, 48
4, 38588, Note_on_c, 9, 53, 0
4, 38611, Note_on_c, 9, 59, 0
4, 38618, Note_on_c, 9, 51, 0
4, 38651, Note_on_c, 9, 59, 37
4, 38665, Note_on_c, 9, 59, 0
4, 38722, Note_on_c, 9, 59, 77
4, 38727, Note_on_c, 9, 51, 49
4, 38729, Note_on_c, 9, 53, 56
4, 38730, Note_on_c, 9, 38, 40
4, 38766, Note_on_c, 9, 38, 0
4, 38773, Note_on_c, 9, 53, 0
4, 38782, Note_on_c, 9, 59, 0
4, 38787, Note_on_c, 9, 51, 0
4, 38788, Note_on_c, 9, 38, 38
4, 38837, Note_on_c, 9, 38, 0
4, 38851, Note_on_c, 9, 36, 42
4, 38879, Note_on_c, 9, 36, 0
4, 38967, Note_on_c, 9, 59, 34
4, 38978, Note_on_c, 9, 59, 0
4, 39001, Note_on_c, 9, 59, 33
4, 39025, Note_on_c, 9, 59, 0
4, 39084, Note_on_c, 9, 44, 47
4, 39086, Note_on_c, 9, 53, 64
4, 39086, Note_on_c, 9, 59, 75
4, 39090, Note_on_c, 9, 51, 38
4, 39093, Note_on_c, 9, 46, 30
4, 39103, Note_on_c, 9, 44, 0
4, 39114, Note_on_c, 9, 46, 0
4, 39115, Note_on_c, 9, 53, 0
4, 39117, Note_on_c, 9, 38, 30
4, 39122, Note_on_c, 9, 51, 0
4, 39127, Note_on_c, 9, 59, 0
4, 39130, Note_on_c, 9, 38, 0
4, 39203, Note_on_c, 9, 38, 37
4, 39204, Note_on_c, 9, 59, 44
4, 39214, Note_on_c, 9, 59, 0
4, 39223, Note_on_c, 9, 38, 0
4, 39248, Note_on_c, 9, 59, 66
4, 39252, Note_on_c, 9, 53, 63
4, 39255, Note_on_c, 9, 51, 43
4, 39255, Note_on_c, 9, 46, 42
4, 39297, Note_on_c, 9, 53, 0
4, 39301, Note_on_c, 9, 51, 0
4, 39302, Note_on_c, 9, 46, 0
4, 39306, Note_on_c, 9, 59, 0
4, 39371, Note_on_c, 9, 59, 34
4, 39384, Note_on_c, 9, 59, 0
4, 39444, Note_on_c, 9, 59, 76
4, 39505, Note_on_c, 9, 59, 0
4, 39606, Note_on_c, 9, 59, 82
4, 39664, Note_on_c, 9, 59, 0
4, 39685, Note_on_c, 9, 59, 53
4, 39703, Note_on_c, 9, 38, 15
4, 39711, Note_on_c, 9, 59, 0
4, 39713, Note_on_c, 9, 38, 0
4, 39774, Note_on_c, 9, 38, 37
4, 39784, Note_on_c, 9, 38, 0
4, 39808, Note_on_c, 9, 38, 44
4, 39809, Note_on_c, 9, 59, 105
4, 39819, Note_on_c, 9, 38, 0
4, 39875, Note_on_c, 9, 59, 0
4, 39922, Note_on_c, 9, 53, 61
4, 39933, Note_on_c, 9, 53, 0
4, 40053, Note_on_c, 9, 53, 50
4, 40065, Note_on_c, 9, 53, 0
4, 40076, Note_on_c, 9, 38, 30
4, 40088, Note_on_c, 9, 38, 0
4, 40112, Note_on_c, 9, 38, 39
4, 40134, Note_on_c, 9, 38, 0
4, 40158, Note_on_c, 9, 36, 35
4, 40163, Note_on_c, 9, 53, 92
4, 40176, Note_on_c, 9, 36, 0
4, 40179, Note_on_c, 9, 53, 0
4, 40260, Note_on_c, 9, 38, 36
4, 40270, Note_on_c, 9, 38, 0
4, 40280, Note_on_c, 9, 53, 88
4, 40293, Note_on_c, 9, 53, 0
4, 40299, Note_on_c, 9, 38, 28
4, 40310, Note_on_c, 9, 38, 0
4, 40323, Note_on_c, 9, 59, 75
4, 40323, Note_on_c, 9, 36, 29
4, 40329, Note_on_c, 9, 57, 40
4, 40341, Note_on_c, 9, 57, 0
4, 40364, Note_on_c, 9, 36, 0
4, 40403, Note_on_c, 9, 59, 0
4, 40527, Note_on_c, 9, 59, 59
4, 40536, Note_on_c, 9, 59, 0
4, 40575, Note_on_c, 9, 59, 50
4, 40585, Note_on_c, 9, 59, 0
4, 40631, Note_on_c, 9, 38, 51
4, 40640, Note_on_c, 9, 59, 72
4, 40649, Note_on_c, 9, 38, 0
4, 40653, Note_on_c, 9, 59, 0
4, 40682, Note_on_c, 9, 51, 55
4, 40682, Note_on_c, 9, 59, 75
4, 40684, Note_on_c, 9, 53, 64
4, 40710, Note_on_c, 9, 51, 0
4, 40713, Note_on_c, 9, 53, 0
4, 40739, Note_on_c, 9, 59, 0
4, 40761, Note_on_c, 9, 38, 35
4, 40782, Note_on_c, 9, 38, 0
4, 40806, Note_on_c, 9, 59, 42
4, 40846, Note_on_c, 9, 59, 0
4, 40922, Note_on_c, 9, 59, 65
4, 40979, Note_on_c, 9, 59, 0
4, 41010, Note_on_c, 9, 59, 36
4, 41022, Note_on_c, 9, 59, 0
4, 41045, Note_on_c, 9, 59, 49
4, 41122, Note_on_c, 9, 59, 0
4, 41248, Note_on_c, 9, 59, 59
4, 41258, Note_on_c, 9, 59, 0
4, 41269, Note_on_c, 9, 38, 30
4, 41281, Note_on_c, 9, 38, 0
4, 41283, Note_on_c, 9, 59, 44
4, 41310, Note_on_c, 9, 38, 17
4, 41325, Note_on_c, 9, 38, 0
4, 41352, Note_on_c, 9, 59, 0
4, 41506, Note_on_c, 9, 38, 28
4, 41520, Note_on_c, 9, 38, 0
4, 41534, Note_on_c, 9, 59, 26
4, 41548, Note_on_c, 9, 38, 28
4, 41572, Note_on_c, 9, 38, 0
4, 41595, Note_on_c, 9, 59, 0
4, 41647, Note_on_c, 9, 59, 71
4, 41656, Note_on_c, 9, 38, 35
4, 41665, Note_on_c, 9, 38, 0
4, 41707, Note_on_c, 9, 59, 0
4, 41734, Note_on_c, 9, 59, 28
4, 41745, Note_on_c, 9, 59, 0
4, 41776, Note_on_c, 9, 59, 20
4, 41829, Note_on_c, 9, 59, 0
4, 41887, Note_on_c, 9, 59, 79
4, 41891, Note_on_c, 9, 38, 25
4, 41902, Note_on_c, 9, 38, 0
4, 41924, Note_on_c, 9, 38, 35
4, 41935, Note_on_c, 9, 38, 0
4, 41937, Note_on_c, 9, 59, 0
4, 41970, Note_on_c, 9, 59, 36
4, 41991, Note_on_c, 9, 59, 0
4, 42012, Note_on_c, 9, 59, 31
4, 42018, Note_on_c, 9, 38, 22
4, 42030, Note_on_c, 9, 59, 0
4, 42031, Note_on_c, 9, 38, 0
4, 42043, Note_on_c, 9, 38, 20
4, 42057, Note_on_c, 9, 38, 0
4, 42082, Note_on_c, 9, 59, 82
4, 42108, Note_on_c, 9, 59, 0
4, 42128, Note_on_c, 9, 59, 57
4, 42135, Note_on_c, 9, 38, 26
4, 42147, Note_on_c, 9, 38, 0
4, 42156, Note_on_c, 9, 59, 0
4, 42164, Note_on_c, 9, 38, 15
4, 42171, Note_on_c, 9, 59, 19
4, 42175, Note_on_c, 9, 38, 0
4, 42203, Note_on_c, 9, 59, 0
4, 42203, Note_on_c, 9, 36, 40
4, 42225, Note_on_c, 9, 36, 0
4, 42242, Note_on_c, 9, 59, 42
4, 42289, Note_on_c, 9, 59, 0
4, 42321, Note_on_c, 9, 59, 80
4, 42354, Note_on_c, 9, 59, 0
4, 42444, Note_on_c, 9, 36, 28
4, 42455, Note_on_c, 9, 36, 0
4, 42487, Note_on_c, 9, 38, 23
4, 42489, Note_on_c, 9, 59, 68
4, 42527, Note_on_c, 9, 38, 0
4, 42536, Note_on_c, 9, 59, 0
4, 42552, Note_on_c, 9, 38, 38
4, 42577, Note_on_c, 9, 38, 0
4, 42596, Note_on_c, 9, 36, 23
4, 42611, Note_on_c, 9, 36, 0
4, 42673, Note_on_c, 9, 59, 89
4, 42710, Note_on_c, 9, 59, 0
4, 42725, Note_on_c, 9, 36, 21
4, 42733, Note_on_c, 9, 59, 47
4, 42742, Note_on_c, 9, 36, 0
4, 42774, Note_on_c, 9, 59, 0
4, 42845, Note_on_c, 9, 59, 72
4, 42903, Note_on_c, 9, 59, 0
4, 42924, Note_on_c, 9, 59, 51
4, 42958, Note_on_c, 9, 59, 0
4, 43052, Note_on_c, 9, 59, 68
4, 43077, Note_on_c, 9, 59, 0
4, 43097, Note_on_c, 9, 59, 61
4, 43148, Note_on_c, 9, 59, 0
4, 43172, Note_on_c, 9, 51, 60
4, 43173, Note_on_c, 9, 53, 51
4, 43183, Note_on_c, 9, 53, 0
4, 43189, Note_on_c, 9, 51, 0
4, 43214, Note_on_c, 9, 59, 48
4, 43277, Note_on_c, 9, 59, 0
4, 43331, Note_on_c, 9, 59, 53
4, 43398, Note_on_c, 9, 59, 0
4, 43448, Note_on_c, 9, 59, 53
4, 43497, Note_on_c, 9, 59, 0
4, 43523, Note_on_c, 9, 59, 43
4, 43546, Note_on_c, 9, 59, 0
4, 43566, Note_on_c, 9, 37, 42
4, 43568, Note_on_c, 9, 59, 46
4, 43623, Note_on_c, 9, 59, 0
4, 43644, Note_on_c, 9, 37, 0
4, 43679, Note_on_c, 9, 59, 51
4, 43726, Note_on_c, 9, 59, 0
4, 43765, Note_on_c, 9, 53, 55
4, 43765, Note_on_c, 9, 59, 45
4, 43767, Note_on_c, 9, 38, 14
4, 43776, Note_on_c, 9, 38, 0
4, 43853, Note_on_c, 9, 53, 0
4, 43855, Note_on_c, 9, 59, 0
4, 43884, Note_on_c, 9, 59, 29
4, 43894, Note_on_c, 9, 59, 0
4, 43929, Note_on_c, 9, 53, 59
4, 43935, Note_on_c, 9, 59, 43
4, 43936, Note_on_c, 9, 60, 46
4, 43967, Note_on_c, 9, 60, 0
4, 44011, Note_on_c, 9, 53, 0
4, 44011, Note_on_c, 9, 38, 17
4, 44023, Note_on_c, 9, 38, 0
4, 44026, Note_on_c, 9, 59, 0
4, 44050, Note_on_c, 9, 37, 56
4, 44052, Note_on_c, 9, 53, 34
4, 44071, Note_on_c, 9, 53, 0
4, 44120, Note_on_c, 9, 37, 0
4, 44129, Note_on_c, 9, 53, 66
4, 44129, Note_on_c, 9, 59, 72
4, 44201, Note_on_c, 9, 53, 0
4, 44231, Note_on_c, 9, 59, 0
4, 44252, Note_on_c, 9, 38, 23
4, 44254, Note_on_c, 9, 53, 36
4, 44266, Note_on_c, 9, 38, 0
4, 44268, Note_on_c, 9, 53, 0
4, 44285, Note_on_c, 9, 37, 51
4, 44294, Note_on_c, 9, 59, 62
4, 44361, Note_on_c, 9, 37, 0
4, 44378, Note_on_c, 9, 59, 0
4, 44409, Note_on_c, 9, 59, 52
4, 44472, Note_on_c, 9, 59, 0
4, 44493, Note_on_c, 9, 59, 41
4, 44495, Note_on_c, 9, 38, 19
4, 44505, Note_on_c, 9, 59, 0
4, 44507, Note_on_c, 9, 38, 0
4, 44527, Note_on_c, 9, 37, 43
4, 44530, Note_on_c, 9, 59, 58
4, 44559, Note_on_c, 9, 37, 0
4, 44606, Note_on_c, 9, 38, 45
4, 44609, Note_on_c, 9, 59, 0
4, 44631, Note_on_c, 9, 38, 0
4, 44659, Note_on_c, 9, 38, 32
4, 44694, Note_on_c, 9, 38, 0
4, 44731, Note_on_c, 9, 59, 42
4, 44734, Note_on_c, 9, 38, 43
4, 44743, Note_on_c, 9, 59, 0
4, 44767, Note_on_c, 9, 59, 54
4, 44768, Note_on_c, 9, 38, 0
4, 44784, Note_on_c, 9, 36, 18
4, 44832, Note_on_c, 9, 36, 0
4, 44849, Note_on_c, 9, 59, 0
4, 44882, Note_on_c, 9, 59, 67
4, 44894, Note_on_c, 9, 36, 35
4, 44939, Note_on_c, 9, 36, 0
4, 44948, Note_on_c, 9, 59, 0
4, 44965, Note_on_c, 9, 59, 54
4, 44978, Note_on_c, 9, 59, 0
4, 45091, Note_on_c, 9, 59, 49
4, 45102, Note_on_c, 9, 59, 0
4, 45123, Note_on_c, 9, 59, 70
4, 45210, Note_on_c, 9, 59, 0
4, 45243, Note_on_c, 9, 59, 69
4, 45312, Note_on_c, 9, 59, 0
4, 45450, Note_on_c, 9, 59, 44
4, 45454, Note_on_c, 9, 38, 16
4, 45462, Note_on_c, 9, 59, 0
4, 45474, Note_on_c, 9, 38, 0
4, 45482, Note_on_c, 9, 44, 49
4, 45483, Note_on_c, 9, 59, 66
4, 45542, Note_on_c, 9, 59, 0
4, 45557, Note_on_c, 9, 44, 0
4, 45563, Note_on_c, 9, 59, 76
4, 45669, Note_on_c, 9, 59, 0
4, 45686, Note_on_c, 9, 51, 55
4, 45690, Note_on_c, 9, 53, 37
4, 45694, Note_on_c, 9, 38, 16
4, 45701, Note_on_c, 9, 53, 0
4, 45704, Note_on_c, 9, 51, 0
4, 45708, Note_on_c, 9, 38, 0
4, 45726, Note_on_c, 9, 44, 51
4, 45733, Note_on_c, 9, 59, 33
4, 45782, Note_on_c, 9, 44, 0
4, 45784, Note_on_c, 9, 59, 0
4, 45845, Note_on_c, 9, 59, 62
4, 45915, Note_on_c, 9, 59, 0
4, 45925, Note_on_c, 9, 53, 82
4, 45929, Note_on_c, 9, 38, 46
4, 45946, Note_on_c, 9, 38, 0
4, 45953, Note_on_c, 9, 53, 0
4, 45974, Note_on_c, 9, 59, 29
4, 46040, Note_on_c, 9, 59, 0
4, 46049, Note_on_c, 9, 38, 61
4, 46078, Note_on_c, 9, 38, 0
4, 46083, Note_on_c, 9, 59, 64
4, 46157, Note_on_c, 9, 59, 0
4, 46174, Note_on_c, 9, 38, 58
4, 46205, Note_on_c, 9, 38, 0
4, 46205, Note_on_c, 9, 59, 71
4, 46274, Note_on_c, 9, 59, 0
4, 46282, Note_on_c, 9, 38, 42
4, 46293, Note_on_c, 9, 38, 0
4, 46316, Note_on_c, 9, 38, 35
4, 46325, Note_on_c, 9, 59, 62
4, 46350, Note_on_c, 9, 38, 0
4, 46379, Note_on_c, 9, 59, 0
4, 46398, Note_on_c, 9, 38, 56
4, 46405, Note_on_c, 9, 53, 63
4, 46435, Note_on_c, 9, 53, 0
4, 46445, Note_on_c, 9, 36, 40
4, 46449, Note_on_c, 9, 38, 0
4, 46454, Note_on_c, 9, 36, 0
4, 46524, Note_on_c, 9, 59, 72
4, 46622, Note_on_c, 9, 59, 0
4, 46646, Note_on_c, 9, 59, 44
4, 46672, Note_on_c, 9, 59, 0
4, 46690, Note_on_c, 9, 59, 65
4, 46763, Note_on_c, 9, 59, 0
4, 46803, Note_on_c, 9, 59, 58
4, 46872, Note_on_c, 9, 59, 0
4, 46883, Note_on_c, 9, 53, 72
4, 46886, Note_on_c, 9, 38, 51
4, 46906, Note_on_c, 9, 53, 0
4, 46908, Note_on_c, 9, 38, 0
4, 46937, Note_on_c, 9, 57, 42
4, 46938, Note_on_c, 9, 36, 39
4, 46939, Note_on_c, 9, 59, 24
4, 46998, Note_on_c, 9, 59, 0
4, 47039, Note_on_c, 9, 59, 67
4, 47108, Note_on_c, 9, 59, 0
4, 47129, Note_on_c, 9, 59, 62
4, 47143, Note_on_c, 9, 59, 0
4, 47165, Note_on_c, 9, 59, 64
4, 47171, Note_on_c, 9, 57, 0
4, 47234, Note_on_c, 9, 59, 0
4, 47244, Note_on_c, 9, 53, 71
4, 47248, Note_on_c, 9, 36, 0
4, 47263, Note_on_c, 9, 53, 0
4, 47289, Note_on_c, 9, 59, 47
4, 47364, Note_on_c, 9, 59, 0
4, 47403, Note_on_c, 9, 44, 42
4, 47403, Note_on_c, 9, 59, 59
4, 47473, Note_on_c, 9, 59, 0
4, 47484, Note_on_c, 9, 44, 0
4, 47519, Note_on_c, 9, 59, 57
4, 47597, Note_on_c, 9, 59, 0
4, 47608, Note_on_c, 9, 53, 66
4, 47627, Note_on_c, 9, 53, 0
4, 47644, Note_on_c, 9, 44, 48
4, 47648, Note_on_c, 9, 59, 40
4, 47701, Note_on_c, 9, 44, 0
4, 47730, Note_on_c, 9, 59, 0
4, 47764, Note_on_c, 9, 59, 54
4, 47825, Note_on_c, 9, 59, 0
4, 47841, Note_on_c, 9, 53, 88
4, 47964, Note_on_c, 9, 38, 42
4, 47985, Note_on_c, 9, 38, 0
4, 47997, Note_on_c, 9, 53, 0
4, 48004, Note_on_c, 9, 51, 78
4, 48010, Note_on_c, 9, 36, 32
4, 48023, Note_on_c, 9, 36, 0
4, 48102, Note_on_c, 9, 51, 0
4, 48127, Note_on_c, 9, 51, 75
4, 48216, Note_on_c, 9, 51, 0
4, 48249, Note_on_c, 9, 51, 77
4, 48337, Note_on_c, 9, 51, 0
4, 48369, Note_on_c, 9, 51, 74
4, 48434, Note_on_c, 9, 51, 0
4, 48453, Note_on_c, 9, 51, 55
4, 48466, Note_on_c, 9, 51, 0
4, 48483, Note_on_c, 9, 38, 35
4, 48485, Note_on_c, 9, 51, 67
4, 48495, Note_on_c, 9, 38, 0
4, 48522, Note_on_c, 9, 38, 23
4, 48536, Note_on_c, 9, 38, 0
4, 48575, Note_on_c, 9, 51, 0
4, 48604, Note_on_c, 9, 51, 71
4, 48612, Note_on_c, 9, 38, 37
4, 48624, Note_on_c, 9, 38, 0
4, 48695, Note_on_c, 9, 51, 0
4, 48729, Note_on_c, 9, 51, 71
4, 48797, Note_on_c, 9, 51, 0
4, 48809, Note_on_c, 9, 53, 78
4, 48812, Note_on_c, 9, 36, 18
4, 48821, Note_on_c, 9, 36, 0
4, 48845, Note_on_c, 9, 38, 32
4, 48852, Note_on_c, 9, 53, 0
4, 48856, Note_on_c, 9, 38, 0
4, 48857, Note_on_c, 9, 51, 42
4, 48936, Note_on_c, 9, 51, 0
4, 48964, Note_on_c, 9, 51, 59
4, 49052, Note_on_c, 9, 51, 0
4, 49084, Note_on_c, 9, 51, 67
4, 49167, Note_on_c, 9, 51, 0
4, 49208, Note_on_c, 9, 51, 64
4, 49277, Note_on_c, 9, 51, 0
4, 49295, Note_on_c, 9, 51, 64
4, 49315, Note_on_c, 9, 51, 0
4, 49328, Note_on_c, 9, 51, 64
4, 49386, Note_on_c, 9, 51, 0
4, 49410, Note_on_c, 9, 51, 73
4, 49413, Note_on_c, 9, 38, 22
4, 49425, Note_on_c, 9, 38, 0
4, 49506, Note_on_c, 9, 51, 0
4, 49521, Note_on_c, 9, 38, 35
4, 49532, Note_on_c, 9, 38, 0
4, 49537, Note_on_c, 9, 51, 43
4, 49554, Note_on_c, 9, 51, 0
4, 49571, Note_on_c, 9, 51, 64
4, 49645, Note_on_c, 9, 38, 39
4, 49652, Note_on_c, 9, 51, 0
4, 49654, Note_on_c, 9, 38, 0
4, 49687, Note_on_c, 9, 51, 64
4, 49768, Note_on_c, 9, 51, 0
4, 49769, Note_on_c, 9, 38, 48
4, 49783, Note_on_c, 9, 38, 0
4, 49804, Note_on_c, 9, 51, 67
4, 49870, Note_on_c, 9, 51, 0
4, 49885, Note_on_c, 9, 38, 47
4, 49893, Note_on_c, 9, 51, 39
4, 49899, Note_on_c, 9, 38, 0
4, 49908, Note_on_c, 9, 51, 0
4, 49923, Note_on_c, 9, 51, 62
4, 49926, Note_on_c, 9, 36, 33
4, 49946, Note_on_c, 9, 36, 0
4, 50010, Note_on_c, 9, 51, 0
4, 50043, Note_on_c, 9, 51, 69
4, 50120, Note_on_c, 9, 51, 0
4, 50244, Note_on_c, 9, 51, 75
4, 50266, Note_on_c, 9, 51, 0
4, 50291, Note_on_c, 9, 51, 38
4, 50367, Note_on_c, 9, 51, 0
4, 50402, Note_on_c, 9, 51, 73
4, 50478, Note_on_c, 9, 51, 0
4, 50518, Note_on_c, 9, 51, 69
4, 50583, Note_on_c, 9, 51, 0
4, 50604, Note_on_c, 9, 51, 44
4, 50620, Note_on_c, 9, 51, 0
4, 50637, Note_on_c, 9, 51, 63
4, 50727, Note_on_c, 9, 51, 0
4, 50729, Note_on_c, 9, 38, 21
4, 50743, Note_on_c, 9, 38, 0
4, 50764, Note_on_c, 9, 51, 59
4, 50771, Note_on_c, 9, 44, 53
4, 50776, Note_on_c, 9, 51, 0
4, 50829, Note_on_c, 9, 44, 0
4, 50844, Note_on_c, 9, 51, 88
4, 50923, Note_on_c, 9, 51, 0
4, 50941, Note_on_c, 9, 51, 51
4, 50951, Note_on_c, 9, 51, 0
4, 50971, Note_on_c, 9, 38, 22
4, 50977, Note_on_c, 9, 51, 51
4, 50986, Note_on_c, 9, 38, 0
4, 50993, Note_on_c, 9, 51, 0
4, 51003, Note_on_c, 9, 44, 56
4, 51010, Note_on_c, 9, 51, 81
4, 51074, Note_on_c, 9, 44, 0
4, 51091, Note_on_c, 9, 51, 0
4, 51128, Note_on_c, 9, 51, 44
4, 51164, Note_on_c, 9, 51, 0
4, 51202, Note_on_c, 9, 38, 37
4, 51211, Note_on_c, 9, 51, 83
4, 51214, Note_on_c, 9, 38, 0
4, 51248, Note_on_c, 9, 38, 24
4, 51283, Note_on_c, 9, 38, 0
4, 51300, Note_on_c, 9, 51, 0
4, 51321, Note_on_c, 9, 38, 42
4, 51332, Note_on_c, 9, 51, 36
4, 51344, Note_on_c, 9, 51, 0
4, 51361, Note_on_c, 9, 38, 0
4, 51371, Note_on_c, 9, 51, 67
4, 51371, Note_on_c, 9, 53, 75
4, 51434, Note_on_c, 9, 51, 0
4, 51445, Note_on_c, 9, 36, 46
4, 51458, Note_on_c, 9, 53, 0
4, 51469, Note_on_c, 9, 36, 0
4, 51490, Note_on_c, 9, 51, 45
4, 51519, Note_on_c, 9, 51, 0
4, 51564, Note_on_c, 9, 53, 77
4, 51565, Note_on_c, 9, 51, 76
4, 51567, Note_on_c, 9, 38, 37
4, 51578, Note_on_c, 9, 38, 0
4, 51615, Note_on_c, 9, 51, 0
4, 51661, Note_on_c, 9, 53, 0
4, 51681, Note_on_c, 9, 44, 42
4, 51681, Note_on_c, 9, 51, 64
4, 51695, Note_on_c, 9, 51, 0
4, 51700, Note_on_c, 9, 44, 0
4, 51726, Note_on_c, 9, 51, 37
4, 51745, Note_on_c, 9, 51, 0
4, 51804, Note_on_c, 9, 57, 94
4, 51806, Note_on_c, 9, 44, 49
4, 51808, Note_on_c, 9, 51, 68
4, 51810, Note_on_c, 9, 53, 69
4, 51825, Note_on_c, 9, 44, 0
4, 51831, Note_on_c, 9, 53, 0
4, 51832, Note_on_c, 9, 57, 0
4, 51841, Note_on_c, 9, 51, 0
4, 51927, Note_on_c, 9, 44, 46
4, 51946, Note_on_c, 9, 44, 0
4, 51968, Note_on_c, 9, 51, 53
4, 51980, Note_on_c, 9, 51, 0
4, 52044, Note_on_c, 9, 51, 59
4, 52046, Note_on_c, 9, 44, 43
4, 52059, Note_on_c, 9, 44, 0
4, 52061, Note_on_c, 9, 51, 0
4, 52158, Note_on_c, 9, 57, 85
4, 52162, Note_on_c, 9, 51, 67
4, 52164, Note_on_c, 9, 53, 61
4, 52165, Note_on_c, 9, 44, 48
4, 52183, Note_on_c, 9, 44, 0
4, 52207, Note_on_c, 9, 53, 0
4, 52214, Note_on_c, 9, 51, 0
4, 52228, Note_on_c, 9, 57, 0
4, 52284, Note_on_c, 9, 44, 51
4, 52302, Note_on_c, 9, 44, 0
4, 52327, Note_on_c, 9, 51, 44
4, 52366, Note_on_c, 9, 51, 0
4, 52401, Note_on_c, 9, 44, 53
4, 52407, Note_on_c, 9, 51, 45
4, 52416, Note_on_c, 9, 51, 0
4, 52419, Note_on_c, 9, 44, 0
4, 52441, Note_on_c, 9, 51, 59
4, 52527, Note_on_c, 9, 44, 49
4, 52528, Note_on_c, 9, 51, 0
4, 52546, Note_on_c, 9, 44, 0
4, 52564, Note_on_c, 9, 51, 69
4, 52620, Note_on_c, 9, 51, 0
4, 52642, Note_on_c, 9, 44, 49
4, 52646, Note_on_c, 9, 51, 36
4, 52659, Note_on_c, 9, 51, 0
4, 52660, Note_on_c, 9, 44, 0
4, 52682, Note_on_c, 9, 53, 75
4, 52757, Note_on_c, 9, 53, 0
4, 52761, Note_on_c, 9, 38, 57
4, 52766, Note_on_c, 9, 51, 74
4, 52789, Note_on_c, 9, 38, 0
4, 52816, Note_on_c, 9, 36, 28
4, 52849, Note_on_c, 9, 36, 0
4, 52885, Note_on_c, 9, 44, 23
4, 52886, Note_on_c, 9, 51, 0
4, 52896, Note_on_c, 9, 44, 0
4, 52927, Note_on_c, 9, 51, 69
4, 53015, Note_on_c, 9, 51, 0
4, 53052, Note_on_c, 9, 51, 63
4, 53127, Note_on_c, 9, 51, 0
4, 53162, Note_on_c, 9, 51, 71
4, 53235, Note_on_c, 9, 51, 0
4, 53252, Note_on_c, 9, 51, 60
4, 53269, Note_on_c, 9, 51, 0
4, 53285, Note_on_c, 9, 38, 25
4, 53285, Note_on_c, 9, 51, 67
4, 53297, Note_on_c, 9, 38, 0
4, 53324, Note_on_c, 9, 38, 26
4, 53336, Note_on_c, 9, 38, 0
4, 53377, Note_on_c, 9, 51, 0
4, 53406, Note_on_c, 9, 51, 67
4, 53489, Note_on_c, 9, 51, 0
4, 53605, Note_on_c, 9, 38, 42
4, 53611, Note_on_c, 9, 51, 74
4, 53616, Note_on_c, 9, 38, 0
4, 53629, Note_on_c, 9, 51, 0
4, 53646, Note_on_c, 9, 51, 60
4, 53646, Note_on_c, 9, 38, 25
4, 53661, Note_on_c, 9, 38, 0
4, 53733, Note_on_c, 9, 51, 0
4, 53768, Note_on_c, 9, 51, 71
4, 53828, Note_on_c, 9, 51, 0
4, 53852, Note_on_c, 9, 51, 37
4, 53867, Note_on_c, 9, 51, 0
4, 53885, Note_on_c, 9, 51, 68
4, 53970, Note_on_c, 9, 51, 0
4, 54004, Note_on_c, 9, 38, 30
4, 54004, Note_on_c, 9, 51, 76
4, 54064, Note_on_c, 9, 51, 0
4, 54069, Note_on_c, 9, 38, 0
4, 54088, Note_on_c, 9, 51, 68
4, 54093, Note_on_c, 9, 38, 37
4, 54100, Note_on_c, 9, 51, 0
4, 54103, Note_on_c, 9, 38, 0
4, 54132, Note_on_c, 9, 38, 43
4, 54196, Note_on_c, 9, 38, 0
4, 54209, Note_on_c, 9, 38, 46
4, 54214, Note_on_c, 9, 51, 71
4, 54220, Note_on_c, 9, 38, 0
4, 54241, Note_on_c, 9, 51, 0
4, 54253, Note_on_c, 9, 36, 32
4, 54257, Note_on_c, 9, 51, 64
4, 54292, Note_on_c, 9, 36, 0
4, 54295, Note_on_c, 9, 51, 0
4, 54363, Note_on_c, 9, 51, 57
4, 54390, Note_on_c, 9, 51, 0
4, 54445, Note_on_c, 9, 38, 49
4, 54466, Note_on_c, 9, 38, 0
4, 54474, Note_on_c, 9, 51, 56
4, 54487, Note_on_c, 9, 38, 40
4, 54496, Note_on_c, 9, 51, 0
4, 54548, Note_on_c, 9, 38, 0
4, 54555, Note_on_c, 9, 53, 73
4, 54558, Note_on_c, 9, 51, 67
4, 54567, Note_on_c, 9, 36, 35
4, 54579, Note_on_c, 9, 36, 0
4, 54647, Note_on_c, 9, 51, 0
4, 54660, Note_on_c, 9, 53, 0
4, 54678, Note_on_c, 9, 51, 39
4, 54695, Note_on_c, 9, 51, 0
4, 54720, Note_on_c, 9, 51, 68
4, 54806, Note_on_c, 9, 51, 0
4, 54810, Note_on_c, 9, 38, 38
4, 54820, Note_on_c, 9, 38, 0
4, 54844, Note_on_c, 9, 51, 73
4, 54904, Note_on_c, 9, 51, 0
4, 54926, Note_on_c, 9, 38, 49
4, 54933, Note_on_c, 9, 51, 49
4, 54949, Note_on_c, 9, 38, 0
4, 54953, Note_on_c, 9, 51, 0
4, 54968, Note_on_c, 9, 51, 65
4, 55031, Note_on_c, 9, 51, 0
4, 55048, Note_on_c, 9, 38, 51
4, 55069, Note_on_c, 9, 38, 0
4, 55082, Note_on_c, 9, 51, 71
4, 55144, Note_on_c, 9, 51, 0
4, 55162, Note_on_c, 9, 36, 44
4, 55176, Note_on_c, 9, 51, 28
4, 55185, Note_on_c, 9, 51, 0
4, 55200, Note_on_c, 9, 51, 70
4, 55284, Note_on_c, 9, 51, 0
4, 55317, Note_on_c, 9, 51, 73
4, 55410, Note_on_c, 9, 51, 0
4, 55437, Note_on_c, 9, 51, 64
4, 55507, Note_on_c, 9, 51, 0
4, 55527, Note_on_c, 9, 51, 47
4, 55544, Note_on_c, 9, 51, 0
4, 55560, Note_on_c, 9, 51, 72
4, 55650, Note_on_c, 9, 51, 0
4, 55680, Note_on_c, 9, 51, 71
4, 55769, Note_on_c, 9, 51, 0
4, 55802, Note_on_c, 9, 51, 71
4, 55870, Note_on_c, 9, 51, 0
4, 55893, Note_on_c, 9, 51, 61
4, 55983, Note_on_c, 9, 51, 0
4, 56011, Note_on_c, 9, 51, 37
4, 56020, Note_on_c, 9, 51, 0
4, 56042, Note_on_c, 9, 51, 62
4, 56098, Note_on_c, 9, 36, 0
4, 56127, Note_on_c, 9, 51, 0
4, 56242, Note_on_c, 9, 51, 81
4, 56270, Note_on_c, 9, 51, 0
4, 56287, Note_on_c, 9, 51, 53
4, 56363, Note_on_c, 9, 51, 0
4, 56400, Note_on_c, 9, 51, 64
4, 56471, Note_on_c, 9, 51, 0
4, 56490, Note_on_c, 9, 38, 57
4, 56509, Note_on_c, 9, 38, 0
4, 56521, Note_on_c, 9, 53, 64
4, 56522, Note_on_c, 9, 51, 51
4, 56538, Note_on_c, 9, 38, 42
4, 56571, Note_on_c, 9, 51, 0
4, 56574, Note_on_c, 9, 38, 0
4, 56588, Note_on_c, 9, 53, 0
4, 56609, Note_on_c, 9, 38, 62
4, 56611, Note_on_c, 9, 51, 56
4, 56623, Note_on_c, 9, 51, 0
4, 56640, Note_on_c, 9, 51, 58
4, 56643, Note_on_c, 9, 38, 0
4, 56728, Note_on_c, 9, 51, 0
4, 56733, Note_on_c, 9, 36, 28
4, 56749, Note_on_c, 9, 36, 0
4, 56761, Note_on_c, 9, 51, 73
4, 56839, Note_on_c, 9, 51, 0
4, 56972, Note_on_c, 9, 51, 49
4, 56987, Note_on_c, 9, 51, 0
4, 57003, Note_on_c, 9, 51, 69
4, 57074, Note_on_c, 9, 51, 0
4, 57212, Note_on_c, 9, 51, 83
4, 57339, Note_on_c, 9, 51, 0
4, 57370, Note_on_c, 9, 53, 70
4, 57372, Note_on_c, 9, 51, 62
4, 57432, Note_on_c, 9, 51, 0
4, 57452, Note_on_c, 9, 38, 61
4, 57453, Note_on_c, 9, 53, 0
4, 57455, Note_on_c, 9, 51, 55
4, 57473, Note_on_c, 9, 38, 0
4, 57477, Note_on_c, 9, 51, 0
4, 57570, Note_on_c, 9, 36, 60
4, 57573, Note_on_c, 9, 51, 76
4, 57573, Note_on_c, 9, 53, 77
4, 57583, Note_on_c, 9, 36, 0
4, 57614, Note_on_c, 9, 57, 66
4, 57616, Note_on_c, 9, 38, 60
4, 57630, Note_on_c, 9, 57, 0
4, 57640, Note_on_c, 9, 38, 0
4, 57656, Note_on_c, 9, 51, 0
4, 57677, Note_on_c, 9, 53, 0
4, 57682, Note_on_c, 9, 51, 47
4, 57700, Note_on_c, 9, 51, 0
4, 57717, Note_on_c, 9, 51, 68
4, 57812, Note_on_c, 9, 51, 0
4, 57835, Note_on_c, 9, 51, 67
4, 57915, Note_on_c, 9, 51, 0
4, 57924, Note_on_c, 9, 38, 49
4, 57934, Note_on_c, 9, 38, 0
4, 57949, Note_on_c, 9, 36, 32
4, 57953, Note_on_c, 9, 51, 71
4, 57967, Note_on_c, 9, 36, 0
4, 57990, Note_on_c, 9, 36, 14
4, 58033, Note_on_c, 9, 51, 0
4, 58038, Note_on_c, 9, 36, 0
4, 58054, Note_on_c, 9, 51, 31
4, 58064, Note_on_c, 9, 51, 0
4, 58080, Note_on_c, 9, 51, 71
4, 58158, Note_on_c, 9, 51, 0
4, 58195, Note_on_c, 9, 51, 79
4, 58270, Note_on_c, 9, 51, 0
4, 58321, Note_on_c, 9, 51, 94
4, 58370, Note_on_c, 9, 51, 0
4, 58408, Note_on_c, 9, 51, 63
4, 58426, Note_on_c, 9, 51, 0
4, 58439, Note_on_c, 9, 51, 88
4, 58446, Note_on_c, 9, 37, 59
4, 58505, Note_on_c, 9, 37, 0
4, 58529, Note_on_c, 9, 51, 0
4, 58555, Note_on_c, 9, 51, 69
4, 58629, Note_on_c, 9, 51, 0
4, 58651, Note_on_c, 9, 51, 49
4, 58660, Note_on_c, 9, 51, 0
4, 58770, Note_on_c, 9, 51, 83
4, 58846, Note_on_c, 9, 51, 0
4, 58893, Note_on_c, 9, 51, 43
4, 58903, Note_on_c, 9, 51, 0
4, 58927, Note_on_c, 9, 44, 65
4, 58931, Note_on_c, 9, 51, 76
4, 58981, Note_on_c, 9, 44, 0
4, 59017, Note_on_c, 9, 51, 0
4, 59051, Note_on_c, 9, 51, 40
4, 59084, Note_on_c, 9, 51, 0
4, 59126, Note_on_c, 9, 51, 72
4, 59126, Note_on_c, 9, 53, 79
4, 59133, Note_on_c, 9, 38, 37
4, 59145, Note_on_c, 9, 38, 0
4, 59205, Note_on_c, 9, 51, 0
4, 59229, Note_on_c, 9, 53, 0
4, 59242, Note_on_c, 9, 51, 49
4, 59266, Note_on_c, 9, 51, 0
4, 59285, Note_on_c, 9, 53, 79
4, 59359, Note_on_c, 9, 44, 28
4, 59381, Note_on_c, 9, 44, 0
4, 59383, Note_on_c, 9, 53, 0
4, 59401, Note_on_c, 9, 51, 52
4, 59448, Note_on_c, 9, 51, 0
4, 59480, Note_on_c, 9, 51, 85
4, 59484, Note_on_c, 9, 44, 47
4, 59494, Note_on_c, 9, 44, 0
4, 59587, Note_on_c, 9, 51, 0
4, 59608, Note_on_c, 9, 44, 50
4, 59620, Note_on_c, 9, 44, 0
4, 59649, Note_on_c, 9, 51, 70
4, 59730, Note_on_c, 9, 44, 55
4, 59733, Note_on_c, 9, 51, 0
4, 59740, Note_on_c, 9, 44, 0
4, 59767, Note_on_c, 9, 51, 70
4, 59847, Note_on_c, 9, 51, 0
4, 59856, Note_on_c, 9, 38, 37
4, 59867, Note_on_c, 9, 38, 0
4, 59883, Note_on_c, 9, 51, 64
4, 59942, Note_on_c, 9, 51, 0
4, 59968, Note_on_c, 9, 51, 45
4, 59974, Note_on_c, 9, 38, 51
4, 59982, Note_on_c, 9, 51, 0
4, 59983, Note_on_c, 9, 38, 0
4, 59999, Note_on_c, 9, 51, 64
4, 60093, Note_on_c, 9, 51, 0
4, 60120, Note_on_c, 9, 51, 62
4, 60150, Note_on_c, 9, 38, 32
4, 60168, Note_on_c, 9, 38, 0
4, 60188, Note_on_c, 9, 51, 0
4, 60208, Note_on_c, 9, 51, 44
4, 60213, Note_on_c, 9, 38, 62
4, 60225, Note_on_c, 9, 51, 0
4, 60237, Note_on_c, 9, 38, 0
4, 60240, Note_on_c, 9, 51, 71
4, 60259, Note_on_c, 9, 38, 57
4, 60311, Note_on_c, 9, 51, 0
4, 60317, Note_on_c, 9, 38, 0
4, 60338, Note_on_c, 9, 36, 53
4, 60349, Note_on_c, 9, 36, 0
4, 60408, Note_on_c, 9, 38, 29
4, 60421, Note_on_c, 9, 38, 0
4, 60451, Note_on_c, 9, 51, 51
4, 60464, Note_on_c, 9, 51, 0
4, 60485, Note_on_c, 9, 51, 54
4, 60567, Note_on_c, 9, 51, 0
4, 60600, Note_on_c, 9, 51, 72
4, 60672, Note_on_c, 9, 51, 0
4, 60687, Note_on_c, 9, 40, 56
4, 60699, Note_on_c, 9, 40, 0
4, 60723, Note_on_c, 9, 51, 38
4, 60767, Note_on_c, 9, 51, 0
4, 60802, Note_on_c, 9, 51, 67
4, 60803, Note_on_c, 9, 53, 66
4, 60846, Note_on_c, 9, 38, 25
4, 60880, Note_on_c, 9, 51, 0
4, 60899, Note_on_c, 9, 53, 0
4, 60900, Note_on_c, 9, 38, 0
4, 60917, Note_on_c, 9, 51, 39
4, 60924, Note_on_c, 9, 38, 52
4, 60927, Note_on_c, 9, 51, 0
4, 60947, Note_on_c, 9, 38, 0
4, 60961, Note_on_c, 9, 51, 73
4, 60963, Note_on_c, 9, 53, 72
4, 61032, Note_on_c, 9, 51, 0
4, 61057, Note_on_c, 9, 53, 0
4, 61083, Note_on_c, 9, 51, 33
4, 61103, Note_on_c, 9, 51, 0
4, 61158, Note_on_c, 9, 51, 83
4, 61249, Note_on_c, 9, 51, 0
4, 61280, Note_on_c, 9, 45, 90
4, 61281, Note_on_c, 9, 51, 43
4, 61296, Note_on_c, 9, 51, 0
4, 61303, Note_on_c, 9, 45, 0
4, 61322, Note_on_c, 9, 51, 67
4, 61323, Note_on_c, 9, 45, 68
4, 61373, Note_on_c, 9, 45, 0
4, 61398, Note_on_c, 9, 38, 60
4, 61399, Note_on_c, 9, 51, 0
4, 61414, Note_on_c, 9, 38, 0
4, 61440, Note_on_c, 9, 51, 62
4, 61446, Note_on_c, 9, 36, 41
4, 61461, Note_on_c, 9, 36, 0
4, 61516, Note_on_c, 9, 51, 0
4, 61524, Note_on_c, 9, 38, 43
4, 61535, Note_on_c, 9, 38, 0
4, 61562, Note_on_c, 9, 51, 60
4, 61626, Note_on_c, 9, 51, 0
4, 61643, Note_on_c, 9, 38, 35
4, 61655, Note_on_c, 9, 38, 0
4, 61679, Note_on_c, 9, 51, 55
4, 61681, Note_on_c, 9, 59, 50
4, 61744, Note_on_c, 9, 59, 0
4, 61746, Note_on_c, 9, 51, 0
4, 61755, Note_on_c, 9, 45, 48
4, 61778, Note_on_c, 9, 45, 0
4, 61802, Note_on_c, 9, 51, 63
4, 61803, Note_on_c, 9, 59, 63
4, 61804, Note_on_c, 9, 45, 35
4, 61824, Note_on_c, 9, 45, 0
4, 61870, Note_on_c, 9, 59, 0
4, 61874, Note_on_c, 9, 51, 0
4, 61877, Note_on_c, 9, 36, 50
4, 61895, Note_on_c, 9, 36, 0
4, 61924, Note_on_c, 9, 51, 30
4, 61933, Note_on_c, 9, 38, 44
4, 61965, Note_on_c, 9, 38, 0
4, 61993, Note_on_c, 9, 51, 0
4, 61998, Note_on_c, 9, 38, 59
4, 62008, Note_on_c, 9, 38, 0
4, 62042, Note_on_c, 9, 51, 64
4, 62044, Note_on_c, 9, 59, 53
4, 62113, Note_on_c, 9, 38, 51
4, 62117, Note_on_c, 9, 59, 0
4, 62119, Note_on_c, 9, 51, 0
4, 62123, Note_on_c, 9, 38, 0
4, 62166, Note_on_c, 9, 59, 60
4, 62166, Note_on_c, 9, 51, 64
4, 62214, Note_on_c, 9, 59, 0
4, 62234, Note_on_c, 9, 51, 0
4, 62238, Note_on_c, 9, 38, 44
4, 62249, Note_on_c, 9, 38, 0
4, 62278, Note_on_c, 9, 51, 37
4, 62290, Note_on_c, 9, 45, 36
4, 62304, Note_on_c, 9, 45, 0
4, 62352, Note_on_c, 9, 51, 0
4, 62356, Note_on_c, 9, 45, 95
4, 62381, Note_on_c, 9, 45, 0
4, 62399, Note_on_c, 9, 51, 60
4, 62400, Note_on_c, 9, 45, 72
4, 62402, Note_on_c, 9, 53, 58
4, 62444, Note_on_c, 9, 45, 0
4, 62468, Note_on_c, 9, 51, 0
4, 62471, Note_on_c, 9, 38, 42
4, 62475, Note_on_c, 9, 53, 0
4, 62495, Note_on_c, 9, 38, 0
4, 62517, Note_on_c, 9, 51, 59
4, 62520, Note_on_c, 9, 53, 51
4, 62601, Note_on_c, 9, 36, 56
4, 62604, Note_on_c, 9, 38, 26
4, 62606, Note_on_c, 9, 51, 0
4, 62616, Note_on_c, 9, 38, 0
4, 62620, Note_on_c, 9, 36, 0
4, 62621, Note_on_c, 9, 53, 0
4, 62645, Note_on_c, 9, 51, 53
4, 62655, Note_on_c, 9, 36, 31
4, 62656, Note_on_c, 9, 38, 32
4, 62680, Note_on_c, 9, 36, 0
4, 62690, Note_on_c, 9, 38, 0
4, 62719, Note_on_c, 9, 51, 0
4, 62764, Note_on_c, 9, 51, 74
4, 62766, Note_on_c, 9, 53, 70
4, 62838, Note_on_c, 9, 51, 0
4, 62843, Note_on_c, 9, 53, 0
4, 62881, Note_on_c, 9, 53, 68
4, 62882, Note_on_c, 9, 51, 70
4, 62919, Note_on_c, 9, 45, 48
4, 62929, Note_on_c, 9, 45, 0
4, 62971, Note_on_c, 9, 51, 0
4, 62979, Note_on_c, 9, 53, 0
4, 63006, Note_on_c, 9, 45, 68
4, 63007, Note_on_c, 9, 51, 50
4, 63018, Note_on_c, 9, 45, 0
4, 63074, Note_on_c, 9, 51, 0
4, 63088, Note_on_c, 9, 36, 32
4, 63101, Note_on_c, 9, 36, 0
4, 63120, Note_on_c, 9, 51, 69
4, 63124, Note_on_c, 9, 53, 63
4, 63207, Note_on_c, 9, 51, 0
4, 63211, Note_on_c, 9, 53, 0
4, 63216, Note_on_c, 9, 36, 29
4, 63227, Note_on_c, 9, 36, 0
4, 63241, Note_on_c, 9, 53, 61
4, 63243, Note_on_c, 9, 51, 57
4, 63323, Note_on_c, 9, 45, 60
4, 63325, Note_on_c, 9, 43, 63
4, 63326, Note_on_c, 9, 51, 0
4, 63327, Note_on_c, 9, 53, 0
4, 63334, Note_on_c, 9, 45, 0
4, 63334, Note_on_c, 9, 43, 0
4, 63364, Note_on_c, 9, 51, 38
4, 63420, Note_on_c, 9, 51, 0
4, 63447, Note_on_c, 9, 51, 33
4, 63450, Note_on_c, 9, 36, 26
4, 63460, Note_on_c, 9, 36, 0
4, 63469, Note_on_c, 9, 51, 0
4, 63480, Note_on_c, 9, 51, 53
4, 63481, Note_on_c, 9, 38, 53
4, 63486, Note_on_c, 9, 53, 62
4, 63543, Note_on_c, 9, 38, 0
4, 63566, Note_on_c, 9, 38, 61
4, 63568, Note_on_c, 9, 51, 0
4, 63578, Note_on_c, 9, 53, 0
4, 63586, Note_on_c, 9, 38, 0
4, 63602, Note_on_c, 9, 51, 49
4, 63603, Note_on_c, 9, 53, 62
4, 63606, Note_on_c, 9, 38, 52
4, 63624, Note_on_c, 9, 38, 0
4, 63683, Note_on_c, 9, 36, 51
4, 63689, Note_on_c, 9, 51, 0
4, 63693, Note_on_c, 9, 36, 0
4, 63703, Note_on_c, 9, 53, 0
4, 63722, Note_on_c, 9, 51, 61
4, 63769, Note_on_c, 9, 51, 0
4, 63802, Note_on_c, 9, 38, 73
4, 63806, Note_on_c, 9, 51, 50
4, 63817, Note_on_c, 9, 38, 0
4, 63821, Note_on_c, 9, 51, 0
4, 63838, Note_on_c, 9, 51, 74
4, 63843, Note_on_c, 9, 38, 57
4, 63845, Note_on_c, 9, 53, 60
4, 63892, Note_on_c, 9, 38, 0
4, 63913, Note_on_c, 9, 51, 0
4, 63922, Note_on_c, 9, 36, 49
4, 63930, Note_on_c, 9, 53, 0
4, 63934, Note_on_c, 9, 36, 0
4, 63959, Note_on_c, 9, 51, 60
4, 63959, Note_on_c, 9, 53, 60
4, 64037, Note_on_c, 9, 51, 0
4, 64042, Note_on_c, 9, 53, 0
4, 64044, Note_on_c, 9, 38, 65
4, 64064, Note_on_c, 9, 38, 0
4, 64079, Note_on_c, 9, 51, 30
4, 64089, Note_on_c, 9, 51, 0
4, 64160, Note_on_c, 9, 38, 39
4, 64160, Note_on_c, 9, 51, 57
4, 64171, Note_on_c, 9, 38, 0
4, 64189, Note_on_c, 9, 51, 0
4, 64203, Note_on_c, 9, 51, 55
4, 64244, Note_on_c, 9, 51, 0
4, 64281, Note_on_c, 9, 38, 68
4, 64281, Note_on_c, 9, 57, 87
4, 64286, Note_on_c, 9, 51, 69
4, 64289, Note_on_c, 9, 53, 66
4, 64301, Note_on_c, 9, 38, 0
4, 64302, Note_on_c, 9, 57, 0
4, 64312, Note_on_c, 9, 53, 0
4, 64320, Note_on_c, 9, 51, 0
4, 64410, Note_on_c, 9, 38, 74
4, 64431, Note_on_c, 9, 38, 0
4, 64522, Note_on_c, 9, 53, 62
4, 64526, Note_on_c, 9, 38, 80
4, 64526, Note_on_c, 9, 51, 49
4, 64534, Note_on_c, 9, 53, 0
4, 64543, Note_on_c, 9, 51, 0
4, 64572, Note_on_c, 9, 38, 0
4, 64640, Note_on_c, 9, 53, 60
4, 64646, Note_on_c, 9, 51, 39
4, 64647, Note_on_c, 9, 38, 83
4, 64652, Note_on_c, 9, 53, 0
4, 64658, Note_on_c, 9, 51, 0
4, 64678, Note_on_c, 9, 38, 0
4, 64700, Note_on_c, 9, 36, 30
4, 64739, Note_on_c, 9, 36, 0
4, 64763, Note_on_c, 9, 53, 76
4, 64764, Note_on_c, 9, 51, 61
4, 64775, Note_on_c, 9, 50, 43
4, 64776, Note_on_c, 9, 36, 59
4, 64805, Note_on_c, 9, 36, 0
4, 64811, Note_on_c, 9, 50, 0
4, 64817, Note_on_c, 9, 51, 0
4, 64867, Note_on_c, 9, 53, 0
4, 64877, Note_on_c, 9, 51, 55
4, 64881, Note_on_c, 9, 38, 82
4, 64896, Note_on_c, 9, 51, 0
4, 64911, Note_on_c, 9, 38, 0
4, 64918, Note_on_c, 9, 51, 61
4, 64924, Note_on_c, 9, 53, 63
4, 64928, Note_on_c, 9, 38, 72
4, 64982, Note_on_c, 9, 38, 0
4, 64993, Note_on_c, 9, 53, 0
4, 65000, Note_on_c, 9, 51, 0
4, 65010, Note_on_c, 9, 36, 64
4, 65031, Note_on_c, 9, 36, 0
4, 65043, Note_on_c, 9, 53, 70
4, 65045, Note_on_c, 9, 51, 55
4, 65074, Note_on_c, 9, 51, 0
4, 65083, Note_on_c, 9, 53, 0
4, 65083, End_track
0, 0, End_of_file
