0, 0, Header, 1, 11, 384
1, 0, Start_track
1, 0, Title_t, "Desire"
1, 0, Copyright_t, "Sequenced by Doug McKenzie    -  dougmck@deakin.edu.au"
1, 0, Text_t, "by Tom Scott Medium Funk  120 qn bpm\012"
1, 0, Text_t, "This was originally sequenced using a simple YAMAHA non GM sequencer. The original has been converted to General MIDI format, using a conversion program that unfortunately mucked up the time values slightly. As the song  progresses it slips slowly away f\012"
1, 0, Text_t, "   \012"
1, 0, SMPTE_offset, 96, 0, 3, 0, 0
1, 0, MIDI_port, 0
1, 0, System_exclusive, 8, 67, 115, 1, 17, 15, 89, 0, 247
1, 0, MIDI_port, 0
1, 0, Time_signature, 4, 2, 24, 8
1, 0, Key_signature, 0, "major"
1, 0, Tempo, 500000
1, 0, Marker_t, "Desire by Tom Scott sequence by dougmck@deakin.edu.au"
1, 0, End_track
2, 0, Start_track
2, 0, MIDI_port, 0
2, 0, Program_c, 0, 0
2, 0, Control_c, 0, 7, 120
2, 1533, Note_on_c, 0, 67, 72
2, 1554, Note_on_c, 0, 64, 67
2, 1568, Note_on_c, 0, 59, 46
2, 1572, Note_on_c, 0, 57, 31
2, 1577, Note_on_c, 0, 53, 32
2, 1578, Note_on_c, 0, 50, 33
2, 1586, Note_on_c, 0, 60, 43
2, 1902, Control_c, 0, 64, 127
2, 2135, Note_off_c, 0, 60, 0
2, 2172, Note_off_c, 0, 64, 0
2, 2203, Note_off_c, 0, 67, 0
2, 2871, Note_on_c, 0, 72, 89
2, 2872, Note_on_c, 0, 79, 87
2, 3021, Note_on_c, 0, 79, 0
2, 3022, Note_on_c, 0, 72, 0
2, 3060, Note_on_c, 0, 76, 38
2, 3066, Note_on_c, 0, 69, 60
2, 3729, Note_on_c, 0, 59, 0
2, 3761, Note_on_c, 0, 69, 0
2, 3762, Note_on_c, 0, 57, 0
2, 3765, Note_on_c, 0, 50, 0
2, 3767, Note_on_c, 0, 53, 0
2, 3768, Note_on_c, 0, 76, 0
2, 4609, Note_on_c, 0, 81, 73
2, 4611, Note_on_c, 0, 74, 66
2, 4621, Note_on_c, 0, 60, 41
2, 4624, Note_on_c, 0, 62, 29
2, 4625, Note_on_c, 0, 58, 37
2, 4647, Control_c, 0, 64, 0
2, 4981, Note_off_c, 0, 74, 0
2, 4981, Note_off_c, 0, 81, 0
2, 4996, Note_on_c, 0, 77, 48
2, 4999, Note_on_c, 0, 69, 60
2, 5166, Control_c, 0, 64, 127
2, 5489, Note_off_c, 0, 69, 0
2, 5545, Note_off_c, 0, 77, 0
2, 5683, Note_off_c, 0, 60, 0
2, 5714, Note_off_c, 0, 62, 0
2, 5721, Note_off_c, 0, 58, 0
2, 6458, Note_on_c, 0, 89, 89
2, 6460, Note_on_c, 0, 96, 84
2, 6494, Note_on_c, 0, 89, 0
2, 6499, Note_on_c, 0, 96, 0
2, 6539, Control_c, 0, 64, 0
2, 6547, Note_on_c, 0, 89, 83
2, 6548, Note_on_c, 0, 96, 79
2, 6564, Note_on_c, 0, 65, 58
2, 6565, Note_on_c, 0, 60, 57
2, 6565, Note_on_c, 0, 55, 59
2, 6685, Note_on_c, 0, 96, 0
2, 6699, Note_on_c, 0, 89, 0
2, 6726, Note_on_c, 0, 93, 62
2, 6731, Note_on_c, 0, 84, 50
2, 6762, Note_on_c, 0, 84, 0
2, 6772, Note_on_c, 0, 55, 0
2, 6773, Note_on_c, 0, 60, 0
2, 6774, Note_on_c, 0, 93, 0
2, 6775, Note_on_c, 0, 65, 0
2, 7221, Note_on_c, 0, 89, 89
2, 7230, Note_on_c, 0, 96, 66
2, 7251, Note_on_c, 0, 96, 0
2, 7258, Note_on_c, 0, 89, 0
2, 7293, Note_on_c, 0, 89, 90
2, 7298, Note_on_c, 0, 96, 74
2, 7304, Note_on_c, 0, 55, 78
2, 7305, Note_on_c, 0, 65, 70
2, 7305, Note_on_c, 0, 60, 68
2, 7436, Note_on_c, 0, 96, 0
2, 7447, Note_on_c, 0, 65, 0
2, 7454, Note_on_c, 0, 89, 0
2, 7455, Note_on_c, 0, 60, 0
2, 7474, Note_on_c, 0, 55, 0
2, 7491, Note_on_c, 0, 93, 65
2, 7501, Note_on_c, 0, 89, 36
2, 7502, Note_on_c, 0, 84, 49
2, 7529, Note_on_c, 0, 89, 0
2, 7538, Note_on_c, 0, 93, 0
2, 7555, Note_on_c, 0, 84, 0
2, 7666, Note_on_c, 0, 91, 57
2, 7666, Note_on_c, 0, 84, 57
2, 7668, Note_on_c, 0, 60, 38
2, 7669, Note_on_c, 0, 57, 38
2, 7670, Note_on_c, 0, 88, 54
2, 7673, Note_on_c, 0, 53, 46
2, 7683, Note_on_c, 0, 50, 39
2, 7698, Note_on_c, 0, 88, 0
2, 7706, Note_on_c, 0, 84, 0
2, 7713, Note_on_c, 0, 50, 0
2, 7714, Note_on_c, 0, 91, 0
2, 7723, Note_on_c, 0, 57, 0
2, 7725, Note_on_c, 0, 60, 0
2, 7729, Note_on_c, 0, 53, 0
2, 7952, Note_on_c, 0, 60, 33
2, 7957, Note_on_c, 0, 57, 39
2, 7958, Note_on_c, 0, 91, 55
2, 7960, Note_on_c, 0, 84, 52
2, 7962, Note_on_c, 0, 53, 49
2, 7966, Note_on_c, 0, 88, 52
2, 7968, Note_on_c, 0, 50, 34
2, 7991, Note_on_c, 0, 88, 0
2, 8002, Note_on_c, 0, 84, 0
2, 8009, Note_on_c, 0, 91, 0
2, 8012, Note_on_c, 0, 53, 0
2, 8014, Note_on_c, 0, 57, 0
2, 8016, Note_on_c, 0, 60, 0
2, 8023, Note_on_c, 0, 50, 0
2, 8238, Note_on_c, 0, 60, 34
2, 8240, Note_on_c, 0, 91, 57
2, 8241, Note_on_c, 0, 84, 62
2, 8241, Note_on_c, 0, 57, 35
2, 8246, Note_on_c, 0, 88, 59
2, 8247, Note_on_c, 0, 53, 48
2, 8248, Note_on_c, 0, 50, 32
2, 8954, Note_on_c, 0, 91, 0
2, 8998, Note_on_c, 0, 88, 0
2, 8998, Note_on_c, 0, 84, 0
2, 10059, Note_on_c, 0, 53, 0
2, 10069, Note_on_c, 0, 50, 0
2, 10089, Note_on_c, 0, 57, 0
2, 10290, Note_on_c, 0, 60, 0
2, 10752, Note_on_c, 0, 65, 74
2, 10756, Note_on_c, 0, 72, 71
2, 10757, Note_on_c, 0, 69, 67
2, 10757, Note_on_c, 0, 62, 74
2, 10763, Note_on_c, 0, 60, 63
2, 10845, Note_on_c, 0, 62, 0
2, 10854, Note_on_c, 0, 65, 0
2, 10862, Note_on_c, 0, 69, 0
2, 10864, Note_on_c, 0, 72, 0
2, 10867, Note_on_c, 0, 58, 39
2, 10871, Note_on_c, 0, 60, 0
2, 10941, Note_on_c, 0, 58, 0
2, 10948, Note_on_c, 0, 72, 75
2, 10949, Note_on_c, 0, 62, 68
2, 10950, Note_on_c, 0, 60, 64
2, 10951, Note_on_c, 0, 65, 68
2, 10953, Note_on_c, 0, 69, 65
2, 11061, Note_on_c, 0, 69, 0
2, 11072, Note_on_c, 0, 65, 0
2, 11073, Note_on_c, 0, 62, 0
2, 11082, Note_on_c, 0, 72, 0
2, 11136, Note_on_c, 0, 60, 0
2, 11138, Note_on_c, 0, 70, 57
2, 11139, Note_on_c, 0, 62, 51
2, 11141, Note_on_c, 0, 58, 52
2, 11141, Note_on_c, 0, 65, 49
2, 11211, Note_on_c, 0, 65, 0
2, 11217, Note_on_c, 0, 62, 0
2, 11231, Note_on_c, 0, 70, 0
2, 11236, Note_on_c, 0, 58, 0
2, 11512, Note_on_c, 0, 58, 61
2, 11513, Note_on_c, 0, 62, 66
2, 11517, Note_on_c, 0, 57, 61
2, 11518, Note_on_c, 0, 69, 66
2, 11526, Note_on_c, 0, 68, 33
2, 11529, Note_on_c, 0, 65, 48
2, 11567, Note_on_c, 0, 68, 0
2, 11609, Note_on_c, 0, 58, 0
2, 11610, Note_on_c, 0, 65, 0
2, 11613, Note_on_c, 0, 62, 0
2, 11625, Note_on_c, 0, 69, 0
2, 11631, Note_on_c, 0, 57, 0
2, 11644, Note_on_c, 0, 55, 57
2, 11707, Note_on_c, 0, 55, 0
2, 11719, Note_on_c, 0, 69, 63
2, 11721, Note_on_c, 0, 57, 55
2, 11721, Note_on_c, 0, 62, 55
2, 11721, Note_on_c, 0, 58, 51
2, 11735, Note_on_c, 0, 65, 49
2, 11825, Note_on_c, 0, 65, 0
2, 11827, Note_on_c, 0, 62, 0
2, 11832, Note_on_c, 0, 58, 0
2, 11836, Note_on_c, 0, 69, 0
2, 11900, Note_on_c, 0, 57, 0
2, 11905, Note_on_c, 0, 58, 46
2, 11907, Note_on_c, 0, 62, 49
2, 11909, Note_on_c, 0, 67, 52
2, 11916, Note_on_c, 0, 55, 54
2, 11997, Note_on_c, 0, 55, 0
2, 11998, Note_on_c, 0, 62, 0
2, 11999, Note_on_c, 0, 67, 0
2, 12029, Note_on_c, 0, 58, 0
2, 12446, Note_on_c, 0, 52, 61
2, 12457, Note_on_c, 0, 58, 63
2, 12462, Note_on_c, 0, 62, 56
2, 12464, Note_on_c, 0, 65, 66
2, 12465, Note_on_c, 0, 55, 73
2, 12470, Note_on_c, 0, 53, 60
2, 12487, Note_on_c, 0, 52, 0
2, 12777, Note_on_c, 0, 55, 0
2, 12821, Note_on_c, 0, 65, 0
2, 12841, Note_on_c, 0, 55, 43
2, 12851, Note_on_c, 0, 50, 48
2, 12879, Note_on_c, 0, 55, 0
2, 12882, Note_on_c, 0, 53, 0
2, 12883, Note_on_c, 0, 58, 0
2, 12910, Note_on_c, 0, 62, 0
2, 13022, Note_on_c, 0, 50, 0
2, 13046, Note_on_c, 0, 58, 55
2, 13051, Note_on_c, 0, 62, 59
2, 13051, Note_on_c, 0, 65, 62
2, 13051, Note_on_c, 0, 55, 66
2, 13055, Note_on_c, 0, 53, 55
2, 13305, Note_on_c, 0, 55, 0
2, 13329, Note_on_c, 0, 65, 0
2, 13332, Note_on_c, 0, 58, 0
2, 13338, Note_on_c, 0, 62, 0
2, 13355, Note_on_c, 0, 53, 0
2, 13364, Note_on_c, 0, 50, 53
2, 13420, Note_on_c, 0, 58, 55
2, 13423, Note_on_c, 0, 65, 60
2, 13424, Note_on_c, 0, 50, 0
2, 13424, Note_on_c, 0, 55, 66
2, 13425, Note_on_c, 0, 62, 53
2, 13427, Note_on_c, 0, 53, 59
2, 13548, Note_on_c, 0, 62, 0
2, 13550, Note_on_c, 0, 55, 0
2, 13589, Note_on_c, 0, 58, 0
2, 13597, Note_on_c, 0, 65, 0
2, 13621, Note_on_c, 0, 53, 0
2, 13626, Note_on_c, 0, 50, 42
2, 13758, Note_on_c, 0, 50, 0
2, 13812, Note_on_c, 0, 60, 54
2, 13813, Note_on_c, 0, 64, 61
2, 13816, Note_on_c, 0, 57, 60
2, 13817, Note_on_c, 0, 52, 62
2, 13823, Note_on_c, 0, 53, 50
2, 13982, Note_on_c, 0, 60, 0
2, 13986, Note_on_c, 0, 53, 0
2, 14008, Note_on_c, 0, 57, 0
2, 14011, Note_on_c, 0, 52, 0
2, 14033, Note_on_c, 0, 48, 37
2, 14039, Note_on_c, 0, 64, 0
2, 14110, Note_on_c, 0, 48, 0
2, 14125, Note_on_c, 0, 62, 38
2, 14131, Note_on_c, 0, 50, 45
2, 14132, Note_on_c, 0, 57, 60
2, 14133, Note_on_c, 0, 53, 26
2, 14220, Note_on_c, 0, 57, 0
2, 14221, Note_on_c, 0, 53, 0
2, 14249, Note_on_c, 0, 62, 0
2, 14260, Note_on_c, 0, 50, 0
2, 14771, Note_on_c, 0, 76, 77
2, 14773, Note_on_c, 0, 64, 64
2, 14774, Note_on_c, 0, 69, 82
2, 14779, Note_on_c, 0, 72, 69
2, 14780, Note_on_c, 0, 65, 77
2, 14864, Note_on_c, 0, 65, 0
2, 14865, Note_on_c, 0, 69, 0
2, 14875, Note_on_c, 0, 72, 0
2, 14876, Note_on_c, 0, 64, 0
2, 14877, Note_on_c, 0, 76, 0
2, 14905, Note_on_c, 0, 60, 45
2, 14932, Note_on_c, 0, 60, 0
2, 14967, Note_on_c, 0, 62, 57
2, 14982, Note_on_c, 0, 74, 76
2, 14986, Note_on_c, 0, 69, 74
2, 14987, Note_on_c, 0, 65, 64
2, 15072, Note_on_c, 0, 69, 0
2, 15075, Note_on_c, 0, 65, 0
2, 15089, Note_on_c, 0, 74, 0
2, 15093, Note_on_c, 0, 62, 0
2, 15753, Note_on_c, 0, 67, 57
2, 15753, Note_on_c, 0, 60, 55
2, 15756, Note_on_c, 0, 64, 56
2, 15759, Note_on_c, 0, 53, 39
2, 15760, Note_on_c, 0, 57, 40
2, 15771, Note_on_c, 0, 50, 33
2, 15796, Note_on_c, 0, 60, 0
2, 15807, Note_on_c, 0, 67, 0
2, 15808, Note_on_c, 0, 57, 0
2, 15808, Note_on_c, 0, 64, 0
2, 15818, Note_on_c, 0, 53, 0
2, 15857, Note_on_c, 0, 67, 37
2, 15857, Note_on_c, 0, 60, 32
2, 15859, Note_on_c, 0, 64, 58
2, 15880, Note_on_c, 0, 53, 28
2, 15902, Note_on_c, 0, 60, 0
2, 15911, Note_on_c, 0, 67, 0
2, 15915, Note_on_c, 0, 64, 0
2, 15919, Note_on_c, 0, 53, 0
2, 15925, Note_on_c, 0, 50, 0
2, 16124, Note_on_c, 0, 67, 66
2, 16128, Note_on_c, 0, 60, 58
2, 16128, Note_on_c, 0, 64, 55
2, 16134, Note_on_c, 0, 53, 53
2, 16134, Note_on_c, 0, 57, 57
2, 16137, Note_on_c, 0, 50, 51
2, 16178, Note_on_c, 0, 60, 0
2, 16183, Note_on_c, 0, 64, 0
2, 16186, Note_on_c, 0, 57, 0
2, 16192, Note_on_c, 0, 67, 0
2, 16196, Note_on_c, 0, 53, 0
2, 16218, Note_on_c, 0, 50, 0
2, 16230, Note_on_c, 0, 67, 25
2, 16232, Note_on_c, 0, 60, 36
2, 16236, Note_on_c, 0, 64, 50
2, 16253, Note_on_c, 0, 57, 25
2, 16256, Note_on_c, 0, 53, 29
2, 16263, Note_on_c, 0, 50, 12
2, 16283, Note_on_c, 0, 60, 0
2, 16292, Note_on_c, 0, 67, 0
2, 16294, Note_on_c, 0, 64, 0
2, 16306, Note_on_c, 0, 50, 0
2, 16311, Note_on_c, 0, 57, 0
2, 16315, Note_on_c, 0, 53, 0
2, 16486, Note_on_c, 0, 67, 71
2, 16493, Note_on_c, 0, 60, 66
2, 16493, Note_on_c, 0, 64, 65
2, 16502, Note_on_c, 0, 57, 55
2, 16504, Note_on_c, 0, 53, 51
2, 16510, Note_on_c, 0, 50, 45
2, 16543, Note_on_c, 0, 60, 0
2, 16551, Note_on_c, 0, 67, 0
2, 16551, Note_on_c, 0, 64, 0
2, 16554, Note_on_c, 0, 57, 0
2, 16557, Note_on_c, 0, 50, 0
2, 16561, Note_on_c, 0, 53, 0
2, 16601, Note_on_c, 0, 60, 36
2, 16602, Note_on_c, 0, 67, 39
2, 16608, Note_on_c, 0, 64, 50
2, 16623, Note_on_c, 0, 57, 30
2, 16628, Note_on_c, 0, 50, 17
2, 16650, Note_on_c, 0, 60, 0
2, 16668, Note_on_c, 0, 64, 0
2, 16671, Note_on_c, 0, 50, 0
2, 16673, Note_on_c, 0, 67, 0
2, 16677, Note_on_c, 0, 57, 0
2, 17581, Note_on_c, 0, 55, 53
2, 17601, Note_on_c, 0, 55, 0
2, 17662, Note_on_c, 0, 72, 68
2, 17664, Note_on_c, 0, 65, 66
2, 17668, Note_on_c, 0, 69, 68
2, 17676, Note_on_c, 0, 62, 66
2, 17677, Note_on_c, 0, 58, 48
2, 17683, Note_on_c, 0, 60, 60
2, 17715, Note_on_c, 0, 65, 0
2, 17718, Note_on_c, 0, 72, 0
2, 17721, Note_on_c, 0, 69, 0
2, 17722, Note_on_c, 0, 62, 0
2, 17733, Note_on_c, 0, 60, 0
2, 17776, Note_on_c, 0, 65, 57
2, 17777, Note_on_c, 0, 72, 55
2, 17779, Note_on_c, 0, 69, 58
2, 17783, Note_on_c, 0, 62, 46
2, 17797, Note_on_c, 0, 60, 49
2, 17812, Note_on_c, 0, 72, 0
2, 17817, Note_on_c, 0, 60, 0
2, 17818, Note_on_c, 0, 65, 0
2, 17831, Note_on_c, 0, 69, 0
2, 17834, Note_on_c, 0, 62, 0
2, 17856, Note_on_c, 0, 58, 0
2, 17964, Note_on_c, 0, 55, 64
2, 17985, Note_on_c, 0, 55, 0
2, 18049, Note_on_c, 0, 72, 68
2, 18050, Note_on_c, 0, 65, 64
2, 18050, Note_on_c, 0, 69, 68
2, 18055, Note_on_c, 0, 62, 55
2, 18060, Note_on_c, 0, 58, 39
2, 18069, Note_on_c, 0, 60, 52
2, 18089, Note_on_c, 0, 60, 0
2, 18109, Note_on_c, 0, 72, 0
2, 18116, Note_on_c, 0, 65, 0
2, 18120, Note_on_c, 0, 62, 0
2, 18127, Note_on_c, 0, 69, 0
2, 18140, Note_on_c, 0, 58, 0
2, 18165, Note_on_c, 0, 62, 44
2, 18168, Note_on_c, 0, 72, 49
2, 18169, Note_on_c, 0, 65, 34
2, 18174, Note_on_c, 0, 69, 64
2, 18185, Note_on_c, 0, 58, 29
2, 18206, Note_on_c, 0, 69, 0
2, 18209, Note_on_c, 0, 65, 0
2, 18210, Note_on_c, 0, 72, 0
2, 18229, Note_on_c, 0, 62, 0
2, 18242, Note_on_c, 0, 58, 0
2, 18809, Note_on_c, 0, 74, 74
2, 18814, Note_on_c, 0, 70, 59
2, 18814, Note_on_c, 0, 67, 71
2, 18820, Note_on_c, 0, 58, 51
2, 18831, Note_on_c, 0, 62, 62
2, 18840, Note_on_c, 0, 60, 43
2, 18866, Note_on_c, 0, 60, 0
2, 18881, Note_on_c, 0, 74, 0
2, 18887, Note_on_c, 0, 67, 0
2, 18888, Note_on_c, 0, 62, 0
2, 18895, Note_on_c, 0, 70, 0
2, 18925, Note_on_c, 0, 67, 47
2, 18926, Note_on_c, 0, 74, 62
2, 18929, Note_on_c, 0, 70, 72
2, 18939, Note_on_c, 0, 62, 53
2, 18958, Note_on_c, 0, 60, 36
2, 18982, Note_on_c, 0, 60, 0
2, 18985, Note_on_c, 0, 67, 0
2, 18990, Note_on_c, 0, 70, 0
2, 18990, Note_on_c, 0, 74, 0
2, 18994, Note_on_c, 0, 62, 0
2, 19010, Note_on_c, 0, 58, 0
2, 19116, Note_on_c, 0, 55, 38
2, 19146, Note_on_c, 0, 55, 0
2, 19190, Note_on_c, 0, 72, 73
2, 19191, Note_on_c, 0, 65, 74
2, 19191, Note_on_c, 0, 69, 78
2, 19195, Note_on_c, 0, 58, 49
2, 19200, Note_on_c, 0, 62, 60
2, 19205, Note_on_c, 0, 60, 48
2, 19258, Note_on_c, 0, 69, 0
2, 19263, Note_on_c, 0, 65, 0
2, 19264, Note_on_c, 0, 62, 0
2, 19270, Note_on_c, 0, 60, 0
2, 19277, Note_on_c, 0, 72, 0
2, 19295, Note_on_c, 0, 58, 0
2, 19308, Note_on_c, 0, 69, 64
2, 19310, Note_on_c, 0, 65, 42
2, 19311, Note_on_c, 0, 72, 60
2, 19320, Note_on_c, 0, 62, 52
2, 19338, Note_on_c, 0, 58, 34
2, 19358, Note_on_c, 0, 69, 0
2, 19365, Note_on_c, 0, 65, 0
2, 19372, Note_on_c, 0, 72, 0
2, 19378, Note_on_c, 0, 62, 0
2, 19399, Note_on_c, 0, 58, 0
2, 19492, Note_on_c, 0, 70, 75
2, 19496, Note_on_c, 0, 67, 71
2, 19501, Note_on_c, 0, 62, 56
2, 19502, Note_on_c, 0, 58, 51
2, 19503, Note_on_c, 0, 60, 58
2, 19540, Note_on_c, 0, 62, 0
2, 19560, Note_on_c, 0, 60, 0
2, 19566, Note_on_c, 0, 67, 0
2, 19576, Note_on_c, 0, 70, 0
2, 19579, Note_on_c, 0, 58, 0
2, 19683, Note_on_c, 0, 70, 72
2, 19684, Note_on_c, 0, 67, 76
2, 19700, Note_on_c, 0, 58, 53
2, 19701, Note_on_c, 0, 60, 58
2, 19751, Note_on_c, 0, 60, 0
2, 19763, Note_on_c, 0, 67, 0
2, 19767, Note_on_c, 0, 58, 0
2, 19767, Note_on_c, 0, 62, 60
2, 19801, Note_on_c, 0, 70, 0
2, 19869, Note_on_c, 0, 62, 0
2, 19962, Note_on_c, 0, 57, 39
2, 19963, Note_on_c, 0, 69, 62
2, 19967, Note_on_c, 0, 53, 36
2, 19968, Note_on_c, 0, 60, 49
2, 19972, Note_on_c, 0, 65, 57
2, 19973, Note_on_c, 0, 50, 35
2, 20033, Note_on_c, 0, 57, 0
2, 20034, Note_on_c, 0, 65, 0
2, 20034, Note_on_c, 0, 53, 0
2, 20047, Note_on_c, 0, 69, 0
2, 20050, Note_on_c, 0, 60, 0
2, 20056, Note_on_c, 0, 50, 0
2, 21073, Control_c, 0, 64, 127
2, 21447, Note_on_c, 0, 50, 51
2, 21474, Note_on_c, 0, 65, 51
2, 21491, Note_on_c, 0, 72, 64
2, 21493, Note_on_c, 0, 57, 42
2, 21503, Control_c, 0, 64, 0
2, 21511, Note_on_c, 0, 64, 62
2, 21521, Note_on_c, 0, 79, 66
2, 21580, Control_c, 0, 64, 127
2, 21811, Note_off_c, 0, 65, 0
2, 21828, Note_off_c, 0, 79, 0
2, 21842, Note_off_c, 0, 72, 0
2, 21892, Note_on_c, 0, 77, 80
2, 22069, Note_on_c, 0, 77, 0
2, 22140, Note_on_c, 0, 57, 0
2, 22141, Note_on_c, 0, 64, 0
2, 22254, Note_on_c, 0, 76, 80
2, 22276, Note_on_c, 0, 69, 84
2, 22284, Control_c, 0, 64, 0
2, 22285, Note_on_c, 0, 57, 54
2, 22287, Note_on_c, 0, 64, 64
2, 22398, Control_c, 0, 64, 127
2, 22522, Note_off_c, 0, 57, 0
2, 22528, Note_off_c, 0, 64, 0
2, 22566, Note_off_c, 0, 69, 0
2, 22618, Note_off_c, 0, 76, 0
2, 22651, Note_on_c, 0, 72, 64
2, 22658, Note_on_c, 0, 57, 58
2, 22670, Note_on_c, 0, 65, 62
2, 22672, Note_on_c, 0, 69, 46
2, 22673, Note_on_c, 0, 64, 29
2, 22697, Note_on_c, 0, 64, 0
2, 22717, Note_on_c, 0, 50, 0
2, 22717, Note_on_c, 0, 57, 0
2, 22753, Note_on_c, 0, 72, 0
2, 22759, Note_on_c, 0, 69, 0
2, 22776, Note_on_c, 0, 65, 0
2, 22966, Note_on_c, 0, 43, 46
2, 23009, Note_on_c, 0, 50, 36
2, 23023, Note_on_c, 0, 69, 68
2, 23042, Note_on_c, 0, 57, 64
2, 23046, Note_on_c, 0, 62, 69
2, 23059, Note_on_c, 0, 58, 57
2, 23061, Control_c, 0, 64, 0
2, 23316, Control_c, 0, 64, 127
2, 23395, Control_c, 0, 64, 0
2, 23403, Note_off_c, 0, 69, 0
2, 23430, Control_c, 0, 64, 127
2, 23436, Note_on_c, 0, 65, 64
2, 23515, Note_on_c, 0, 58, 0
2, 23550, Note_on_c, 0, 43, 0
2, 23554, Note_on_c, 0, 62, 0
2, 23568, Note_on_c, 0, 50, 0
2, 23590, Note_on_c, 0, 65, 0
2, 23596, Note_on_c, 0, 57, 0
2, 23801, Note_on_c, 0, 72, 79
2, 23811, Note_on_c, 0, 65, 87
2, 23823, Note_on_c, 0, 58, 39
2, 23826, Note_on_c, 0, 62, 57
2, 23829, Control_c, 0, 64, 0
2, 23839, Note_on_c, 0, 60, 39
2, 24159, Note_on_c, 0, 62, 0
2, 24162, Note_on_c, 0, 65, 0
2, 24181, Note_on_c, 0, 72, 0
2, 24193, Note_on_c, 0, 69, 48
2, 24203, Note_on_c, 0, 65, 42
2, 24206, Note_on_c, 0, 62, 48
2, 24247, Control_c, 0, 64, 127
2, 24427, Note_off_c, 0, 62, 0
2, 24481, Note_off_c, 0, 65, 0
2, 24500, Note_off_c, 0, 60, 0
2, 24507, Note_off_c, 0, 69, 0
2, 24514, Note_off_c, 0, 58, 0
2, 24759, Note_on_c, 0, 84, 96
2, 24762, Note_on_c, 0, 77, 96
2, 24767, Note_on_c, 0, 62, 75
2, 24770, Note_on_c, 0, 60, 64
2, 24771, Note_on_c, 0, 58, 60
2, 24778, Control_c, 0, 64, 0
2, 24958, Control_c, 0, 64, 127
2, 25160, Note_off_c, 0, 84, 0
2, 25166, Note_off_c, 0, 77, 0
2, 25205, Note_off_c, 0, 60, 0
2, 25215, Note_off_c, 0, 58, 0
2, 25220, Note_off_c, 0, 62, 0
2, 25345, Note_on_c, 0, 74, 46
2, 25347, Note_on_c, 0, 81, 54
2, 25349, Note_on_c, 0, 77, 50
2, 25352, Control_c, 0, 64, 0
2, 25352, Note_on_c, 0, 58, 35
2, 25352, Note_on_c, 0, 62, 44
2, 25354, Note_on_c, 0, 60, 44
2, 25364, Note_on_c, 0, 69, 38
2, 25453, Control_c, 0, 64, 127
2, 25575, Note_off_c, 0, 74, 0
2, 25597, Note_off_c, 0, 62, 0
2, 25602, Note_off_c, 0, 69, 0
2, 25611, Note_off_c, 0, 60, 0
2, 25643, Note_off_c, 0, 58, 0
2, 25647, Note_off_c, 0, 81, 0
2, 25692, Note_off_c, 0, 77, 0
2, 25724, Note_on_c, 0, 74, 65
2, 25730, Note_on_c, 0, 69, 48
2, 25733, Note_on_c, 0, 58, 33
2, 25735, Note_on_c, 0, 62, 35
2, 25746, Note_on_c, 0, 74, 0
2, 25754, Note_on_c, 0, 69, 0
2, 25759, Note_on_c, 0, 62, 0
2, 25770, Note_on_c, 0, 58, 0
2, 26105, Control_c, 0, 64, 0
2, 26109, Note_on_c, 0, 64, 65
2, 26111, Note_on_c, 0, 69, 60
2, 26120, Note_on_c, 0, 53, 39
2, 26122, Note_on_c, 0, 65, 37
2, 26123, Note_on_c, 0, 57, 33
2, 26130, Note_on_c, 0, 64, 0
2, 26136, Note_on_c, 0, 69, 0
2, 26146, Note_on_c, 0, 65, 0
2, 26149, Note_on_c, 0, 53, 0
2, 26150, Note_on_c, 0, 57, 0
2, 26680, Note_on_c, 0, 64, 70
2, 26685, Note_on_c, 0, 65, 45
2, 26686, Note_on_c, 0, 69, 57
2, 26700, Note_on_c, 0, 64, 0
2, 26706, Note_on_c, 0, 65, 0
2, 26707, Note_on_c, 0, 69, 0
2, 26876, Note_on_c, 0, 64, 77
2, 26880, Note_on_c, 0, 65, 55
2, 26883, Note_on_c, 0, 69, 59
2, 26902, Note_on_c, 0, 65, 0
2, 26909, Note_on_c, 0, 69, 0
2, 26910, Note_on_c, 0, 64, 0
2, 28028, Note_on_c, 0, 76, 89
2, 28028, Note_on_c, 0, 49, 54
2, 28029, Note_on_c, 0, 57, 58
2, 28029, Note_on_c, 0, 69, 92
2, 28092, Note_on_c, 0, 57, 0
2, 28094, Note_on_c, 0, 69, 0
2, 28099, Note_on_c, 0, 76, 0
2, 28105, Note_on_c, 0, 49, 0
2, 28296, Note_on_c, 0, 73, 63
2, 28303, Note_on_c, 0, 69, 63
2, 28306, Note_on_c, 0, 57, 45
2, 28309, Note_on_c, 0, 64, 57
2, 28310, Note_on_c, 0, 49, 37
2, 28329, Note_on_c, 0, 69, 0
2, 28349, Note_on_c, 0, 73, 0
2, 28357, Note_on_c, 0, 57, 0
2, 28371, Note_on_c, 0, 64, 0
2, 28371, Note_on_c, 0, 49, 0
2, 28580, Note_on_c, 0, 69, 64
2, 28582, Note_on_c, 0, 61, 51
2, 28586, Note_on_c, 0, 57, 54
2, 28591, Note_on_c, 0, 49, 43
2, 28597, Note_on_c, 0, 64, 53
2, 28882, Note_on_c, 0, 57, 0
2, 28903, Note_on_c, 0, 61, 0
2, 28905, Note_on_c, 0, 49, 0
2, 28934, Note_on_c, 0, 69, 0
2, 28967, Note_on_c, 0, 49, 34
2, 28968, Note_on_c, 0, 61, 53
2, 29028, Note_on_c, 0, 64, 0
2, 29067, Note_on_c, 0, 61, 0
2, 29104, Note_on_c, 0, 49, 0
2, 29178, Note_on_c, 0, 57, 30
2, 29179, Note_on_c, 0, 65, 42
2, 29185, Note_on_c, 0, 48, 40
2, 29190, Note_on_c, 0, 60, 24
2, 29622, Note_on_c, 0, 60, 0
2, 29644, Note_on_c, 0, 65, 0
2, 29710, Note_on_c, 0, 48, 0
2, 29737, Note_on_c, 0, 57, 0
2, 30235, Note_on_c, 0, 79, 79
2, 30238, Note_on_c, 0, 69, 78
2, 30239, Note_on_c, 0, 72, 72
2, 30240, Note_on_c, 0, 76, 66
2, 30248, Note_on_c, 0, 64, 72
2, 30269, Note_on_c, 0, 64, 0
2, 30276, Note_on_c, 0, 79, 0
2, 30279, Note_on_c, 0, 69, 0
2, 30282, Note_on_c, 0, 72, 0
2, 30287, Note_on_c, 0, 76, 0
2, 30331, Note_on_c, 0, 79, 74
2, 30335, Note_on_c, 0, 72, 74
2, 30337, Note_on_c, 0, 64, 73
2, 30337, Note_on_c, 0, 76, 71
2, 30338, Note_on_c, 0, 69, 78
2, 30464, Note_on_c, 0, 69, 0
2, 30473, Note_on_c, 0, 72, 0
2, 30474, Note_on_c, 0, 76, 0
2, 30479, Note_on_c, 0, 79, 0
2, 30515, Note_on_c, 0, 69, 25
2, 30520, Note_on_c, 0, 77, 55
2, 30524, Note_on_c, 0, 62, 42
2, 30530, Note_on_c, 0, 64, 0
2, 30541, Note_on_c, 0, 69, 0
2, 30568, Note_on_c, 0, 77, 0
2, 30594, Note_on_c, 0, 62, 0
2, 30624, Note_on_c, 0, 79, 81
2, 30630, Note_on_c, 0, 69, 80
2, 30633, Note_on_c, 0, 72, 74
2, 30635, Note_on_c, 0, 76, 71
2, 30647, Note_on_c, 0, 64, 71
2, 30670, Note_on_c, 0, 64, 0
2, 30675, Note_on_c, 0, 69, 0
2, 30679, Note_on_c, 0, 72, 0
2, 30683, Note_on_c, 0, 79, 0
2, 30692, Note_on_c, 0, 76, 0
2, 30720, Note_on_c, 0, 79, 82
2, 30723, Note_on_c, 0, 64, 71
2, 30725, Note_on_c, 0, 69, 76
2, 30726, Note_on_c, 0, 72, 75
2, 30730, Note_on_c, 0, 76, 87
2, 30844, Note_on_c, 0, 69, 0
2, 30851, Note_on_c, 0, 76, 0
2, 30857, Note_on_c, 0, 72, 0
2, 30876, Note_on_c, 0, 79, 0
2, 30891, Note_on_c, 0, 69, 47
2, 30896, Note_on_c, 0, 72, 40
2, 30901, Note_on_c, 0, 77, 59
2, 30902, Note_on_c, 0, 62, 53
2, 30916, Note_on_c, 0, 64, 0
2, 30935, Note_on_c, 0, 72, 0
2, 30947, Note_on_c, 0, 69, 0
2, 30958, Note_on_c, 0, 77, 0
2, 30959, Note_on_c, 0, 62, 0
2, 31375, Note_on_c, 0, 76, 75
2, 31377, Note_on_c, 0, 69, 78
2, 31378, Note_on_c, 0, 65, 70
2, 31383, Note_on_c, 0, 72, 64
2, 31387, Note_on_c, 0, 64, 77
2, 31422, Note_on_c, 0, 65, 0
2, 31430, Note_on_c, 0, 64, 0
2, 31438, Note_on_c, 0, 69, 0
2, 31441, Note_on_c, 0, 76, 0
2, 31443, Note_on_c, 0, 72, 0
2, 31472, Note_on_c, 0, 76, 68
2, 31474, Note_on_c, 0, 64, 72
2, 31477, Note_on_c, 0, 69, 81
2, 31481, Note_on_c, 0, 65, 66
2, 31486, Note_on_c, 0, 72, 71
2, 31607, Note_on_c, 0, 65, 0
2, 31618, Note_on_c, 0, 72, 0
2, 31624, Note_on_c, 0, 69, 0
2, 31633, Note_on_c, 0, 76, 0
2, 31663, Note_on_c, 0, 74, 52
2, 31668, Note_on_c, 0, 65, 39
2, 31668, Note_on_c, 0, 69, 48
2, 31670, Note_on_c, 0, 64, 0
2, 31671, Note_on_c, 0, 62, 55
2, 31694, Note_on_c, 0, 69, 0
2, 31704, Note_on_c, 0, 74, 0
2, 31708, Note_on_c, 0, 65, 0
2, 31711, Note_on_c, 0, 62, 0
2, 31862, Note_on_c, 0, 65, 56
2, 31862, Note_on_c, 0, 72, 46
2, 31864, Note_on_c, 0, 60, 51
2, 31864, Note_on_c, 0, 69, 57
2, 31868, Note_on_c, 0, 62, 39
2, 31945, Note_on_c, 0, 62, 0
2, 31949, Note_on_c, 0, 69, 0
2, 31951, Note_on_c, 0, 65, 0
2, 31985, Note_on_c, 0, 72, 0
2, 31988, Note_on_c, 0, 60, 0
2, 32051, Note_on_c, 0, 57, 35
2, 32052, Note_on_c, 0, 62, 33
2, 32055, Note_on_c, 0, 69, 58
2, 32066, Note_on_c, 0, 65, 29
2, 32076, Note_on_c, 0, 57, 0
2, 32089, Note_on_c, 0, 65, 0
2, 32093, Note_on_c, 0, 62, 0
2, 32137, Note_on_c, 0, 69, 0
2, 32235, Note_on_c, 0, 57, 31
2, 32246, Note_on_c, 0, 65, 49
2, 32251, Note_on_c, 0, 69, 57
2, 32256, Note_on_c, 0, 62, 35
2, 32257, Note_on_c, 0, 58, 43
2, 32576, Control_c, 0, 64, 127
2, 32656, Note_off_c, 0, 65, 0
2, 32703, Note_off_c, 0, 69, 0
2, 32738, Note_off_c, 0, 62, 0
2, 32742, Note_off_c, 0, 57, 0
2, 32772, Note_off_c, 0, 58, 0
2, 33023, Note_on_c, 0, 81, 99
2, 33024, Note_on_c, 0, 74, 110
2, 33031, Note_on_c, 0, 58, 64
2, 33031, Note_on_c, 0, 62, 76
2, 33032, Note_on_c, 0, 57, 71
2, 33053, Control_c, 0, 64, 0
2, 33161, Control_c, 0, 64, 127
2, 33249, Note_off_c, 0, 62, 0
2, 33261, Note_off_c, 0, 58, 0
2, 33264, Note_off_c, 0, 81, 0
2, 33265, Note_off_c, 0, 57, 0
2, 33266, Note_off_c, 0, 74, 0
2, 33303, Note_on_c, 0, 77, 69
2, 33305, Note_on_c, 0, 69, 65
2, 33316, Control_c, 0, 64, 0
2, 33319, Note_on_c, 0, 62, 46
2, 33324, Note_on_c, 0, 58, 48
2, 33329, Note_on_c, 0, 57, 52
2, 33477, Control_c, 0, 64, 127
2, 33529, Note_off_c, 0, 69, 0
2, 33580, Note_on_c, 0, 69, 25
2, 33595, Note_on_c, 0, 57, 0
2, 33603, Note_on_c, 0, 77, 0
2, 33617, Note_on_c, 0, 62, 0
2, 33621, Note_on_c, 0, 69, 0
2, 33625, Note_on_c, 0, 58, 0
2, 33698, Control_c, 0, 64, 0
2, 34149, Note_on_c, 0, 57, 66
2, 34157, Note_on_c, 0, 62, 74
2, 34158, Note_on_c, 0, 58, 64
2, 34163, Note_on_c, 0, 69, 78
2, 34233, Note_on_c, 0, 58, 0
2, 34237, Note_on_c, 0, 62, 0
2, 34239, Note_on_c, 0, 69, 0
2, 34255, Note_on_c, 0, 57, 0
2, 34268, Note_on_c, 0, 55, 60
2, 34330, Note_on_c, 0, 55, 0
2, 34344, Note_on_c, 0, 69, 79
2, 34348, Note_on_c, 0, 62, 71
2, 34349, Note_on_c, 0, 58, 67
2, 34356, Note_on_c, 0, 57, 74
2, 34661, Note_on_c, 0, 69, 0
2, 34675, Note_on_c, 0, 58, 0
2, 34680, Note_on_c, 0, 62, 0
2, 34733, Note_on_c, 0, 58, 50
2, 34742, Note_on_c, 0, 62, 51
2, 34753, Note_on_c, 0, 67, 47
2, 34755, Note_on_c, 0, 57, 0
2, 34755, Note_on_c, 0, 55, 64
2, 34812, Note_on_c, 0, 62, 0
2, 34814, Note_on_c, 0, 58, 0
2, 34821, Note_on_c, 0, 67, 0
2, 34870, Note_on_c, 0, 55, 0
2, 34889, Note_on_c, 0, 57, 65
2, 34922, Note_on_c, 0, 58, 56
2, 34923, Note_on_c, 0, 62, 61
2, 34927, Note_on_c, 0, 67, 60
2, 35124, Note_on_c, 0, 67, 0
2, 35137, Note_on_c, 0, 62, 0
2, 35208, Note_on_c, 0, 58, 0
2, 35211, Note_on_c, 0, 57, 0
2, 35271, Note_on_c, 0, 54, 44
2, 35311, Note_on_c, 0, 64, 44
2, 35311, Note_on_c, 0, 57, 63
2, 35315, Note_on_c, 0, 60, 59
2, 35318, Note_on_c, 0, 55, 51
2, 35320, Note_on_c, 0, 54, 0
2, 35324, Note_on_c, 0, 67, 58
2, 35407, Note_on_c, 0, 67, 0
2, 35409, Note_on_c, 0, 60, 0
2, 35413, Note_on_c, 0, 57, 0
2, 35421, Note_on_c, 0, 64, 0
2, 35436, Note_on_c, 0, 55, 0
2, 35490, Note_on_c, 0, 54, 27
2, 35512, Note_on_c, 0, 57, 70
2, 35513, Note_on_c, 0, 64, 66
2, 35515, Note_on_c, 0, 60, 66
2, 35515, Note_on_c, 0, 67, 65
2, 35516, Note_on_c, 0, 55, 71
2, 35521, Note_on_c, 0, 54, 0
2, 35817, Note_on_c, 0, 57, 0
2, 35820, Note_on_c, 0, 64, 0
2, 35830, Note_on_c, 0, 60, 0
2, 35874, Note_on_c, 0, 67, 0
2, 35882, Note_on_c, 0, 57, 56
2, 35886, Note_on_c, 0, 64, 48
2, 35887, Note_on_c, 0, 60, 39
2, 35894, Note_on_c, 0, 55, 0
2, 35902, Note_on_c, 0, 52, 41
2, 35919, Note_on_c, 0, 60, 0
2, 35943, Note_on_c, 0, 57, 0
2, 35957, Note_on_c, 0, 64, 0
2, 35964, Note_on_c, 0, 52, 0
2, 36081, Note_on_c, 0, 64, 60
2, 36090, Note_on_c, 0, 57, 44
2, 36090, Note_on_c, 0, 60, 50
2, 36098, Note_on_c, 0, 52, 44
2, 36132, Note_on_c, 0, 57, 0
2, 36140, Note_on_c, 0, 60, 0
2, 36171, Note_on_c, 0, 52, 0
2, 36174, Note_on_c, 0, 64, 0
2, 37046, Note_on_c, 0, 69, 84
2, 37046, Note_on_c, 0, 62, 76
2, 37048, Note_on_c, 0, 58, 74
2, 37053, Note_on_c, 0, 64, 70
2, 37061, Note_on_c, 0, 57, 76
2, 37176, Control_c, 0, 64, 127
2, 37185, Note_off_c, 0, 62, 0
2, 37192, Note_off_c, 0, 64, 0
2, 37194, Note_off_c, 0, 58, 0
2, 37204, Note_off_c, 0, 69, 0
2, 37266, Note_off_c, 0, 57, 0
2, 37338, Control_c, 0, 64, 0
2, 37340, Note_on_c, 0, 72, 85
2, 37345, Note_on_c, 0, 65, 90
2, 37347, Note_on_c, 0, 61, 87
2, 37352, Note_on_c, 0, 60, 85
2, 37425, Note_on_c, 0, 61, 0
2, 37439, Note_on_c, 0, 65, 0
2, 37464, Note_on_c, 0, 72, 0
2, 37469, Control_c, 0, 64, 127
2, 37533, Note_on_c, 0, 68, 34
2, 37561, Note_on_c, 0, 68, 0
2, 37570, Control_c, 0, 64, 0
2, 37571, Note_off_c, 0, 60, 0
2, 37590, Note_on_c, 0, 63, 73
2, 37593, Note_on_c, 0, 67, 88
2, 37594, Note_on_c, 0, 75, 86
2, 37596, Note_on_c, 0, 70, 76
2, 37601, Note_on_c, 0, 64, 87
2, 37621, Note_on_c, 0, 73, 36
2, 37688, Note_on_c, 0, 64, 0
2, 37694, Note_on_c, 0, 67, 0
2, 37714, Note_on_c, 0, 73, 0
2, 37716, Note_on_c, 0, 70, 0
2, 37719, Control_c, 0, 64, 127
2, 37725, Note_off_c, 0, 75, 0
2, 37857, Control_c, 0, 64, 0
2, 37864, Note_on_c, 0, 78, 82
2, 37865, Note_on_c, 0, 63, 0
2, 37866, Note_on_c, 0, 70, 83
2, 37869, Note_on_c, 0, 66, 77
2, 37870, Note_on_c, 0, 73, 77
2, 37873, Note_on_c, 0, 67, 70
2, 37888, Note_on_c, 0, 69, 52
2, 37909, Note_on_c, 0, 69, 0
2, 37930, Note_on_c, 0, 67, 0
2, 37934, Control_c, 0, 64, 127
2, 37940, Note_off_c, 0, 70, 0
2, 37946, Note_off_c, 0, 73, 0
2, 37960, Note_off_c, 0, 78, 0
2, 38113, Control_c, 0, 64, 0
2, 38126, Note_on_c, 0, 81, 80
2, 38129, Note_on_c, 0, 73, 77
2, 38132, Note_on_c, 0, 70, 77
2, 38133, Note_on_c, 0, 76, 76
2, 38138, Note_on_c, 0, 69, 78
2, 38180, Note_on_c, 0, 66, 0
2, 38245, Note_on_c, 0, 76, 0
2, 38248, Note_on_c, 0, 81, 0
2, 38255, Note_on_c, 0, 70, 0
2, 38288, Note_on_c, 0, 73, 0
2, 38314, Note_on_c, 0, 69, 0
2, 38365, Note_on_c, 0, 76, 64
2, 38366, Note_on_c, 0, 62, 52
2, 38368, Note_on_c, 0, 72, 73
2, 38371, Note_on_c, 0, 69, 67
2, 38376, Note_on_c, 0, 81, 66
2, 38377, Note_on_c, 0, 79, 65
2, 38453, Note_on_c, 0, 81, 0
2, 38580, Note_on_c, 0, 79, 0
2, 38584, Note_on_c, 0, 76, 0
2, 38586, Note_on_c, 0, 69, 0
2, 38606, Note_on_c, 0, 62, 0
2, 38607, Note_on_c, 0, 72, 0
2, 38646, Note_on_c, 0, 77, 66
2, 38648, Note_on_c, 0, 72, 68
2, 38650, Note_on_c, 0, 69, 49
2, 38656, Note_on_c, 0, 62, 60
2, 38703, Note_on_c, 0, 69, 0
2, 38711, Note_on_c, 0, 72, 0
2, 38718, Note_on_c, 0, 77, 0
2, 38720, Note_on_c, 0, 62, 0
2, 38916, Note_on_c, 0, 76, 65
2, 38922, Note_on_c, 0, 72, 57
2, 38922, Note_on_c, 0, 69, 66
2, 38925, Note_on_c, 0, 62, 55
2, 38928, Note_on_c, 0, 65, 58
2, 39664, Control_c, 0, 64, 127
2, 39672, Note_off_c, 0, 65, 0
2, 39708, Note_on_c, 0, 65, 16
2, 39735, Note_on_c, 0, 72, 0
2, 39758, Note_on_c, 0, 69, 0
2, 39770, Note_on_c, 0, 62, 0
2, 39776, Note_on_c, 0, 65, 0
2, 39778, Note_on_c, 0, 76, 0
2, 39897, Control_c, 0, 64, 0
2, 39905, Note_on_c, 0, 64, 45
2, 39908, Note_on_c, 0, 69, 45
2, 39914, Note_on_c, 0, 73, 37
2, 39917, Note_on_c, 0, 57, 32
2, 39922, Note_on_c, 0, 50, 33
2, 40273, Control_c, 0, 64, 127
2, 40342, Note_off_c, 0, 64, 0
2, 40390, Note_off_c, 0, 69, 0
2, 40429, Note_off_c, 0, 73, 0
2, 40823, Note_on_c, 0, 73, 95
2, 40824, Note_on_c, 0, 81, 95
2, 40852, Control_c, 0, 64, 0
2, 40894, Control_c, 0, 64, 127
2, 41022, Note_off_c, 0, 73, 0
2, 41023, Note_off_c, 0, 81, 0
2, 41063, Note_on_c, 0, 76, 77
2, 41072, Control_c, 0, 64, 0
2, 41072, Note_on_c, 0, 73, 51
2, 41076, Note_on_c, 0, 69, 71
2, 41113, Note_on_c, 0, 73, 0
2, 41156, Control_c, 0, 64, 127
2, 41233, Note_off_c, 0, 76, 0
2, 41274, Note_off_c, 0, 69, 0
2, 41298, Note_off_c, 0, 50, 0
2, 41330, Note_off_c, 0, 57, 0
2, 41420, Note_on_c, 0, 65, 43
2, 41423, Note_on_c, 0, 69, 62
2, 41424, Note_on_c, 0, 57, 46
2, 41425, Note_on_c, 0, 60, 45
2, 41430, Control_c, 0, 64, 0
2, 41440, Note_on_c, 0, 50, 37
2, 42308, Control_c, 0, 64, 127
2, 42646, Note_off_c, 0, 65, 0
2, 42655, Note_off_c, 0, 69, 0
2, 42800, Note_off_c, 0, 60, 0
2, 42823, Note_off_c, 0, 57, 0
2, 42849, Note_off_c, 0, 50, 0
2, 43003, Note_on_c, 0, 59, 31
2, 43005, Control_c, 0, 64, 0
2, 43029, Note_off_c, 0, 59, 0
2, 43187, Note_on_c, 0, 71, 58
2, 43191, Note_on_c, 0, 62, 42
2, 43197, Note_on_c, 0, 65, 43
2, 43197, Note_on_c, 0, 59, 37
2, 43211, Note_on_c, 0, 50, 25
2, 43216, Note_on_c, 0, 62, 0
2, 43221, Note_on_c, 0, 65, 0
2, 43223, Note_on_c, 0, 59, 0
2, 43231, Note_on_c, 0, 71, 0
2, 43240, Note_on_c, 0, 50, 0
2, 43483, Note_on_c, 0, 62, 39
2, 43485, Note_on_c, 0, 71, 48
2, 43492, Note_on_c, 0, 65, 44
2, 43493, Note_on_c, 0, 59, 37
2, 43506, Note_on_c, 0, 50, 27
2, 43507, Note_on_c, 0, 57, 33
2, 43516, Note_on_c, 0, 65, 0
2, 43521, Note_on_c, 0, 62, 0
2, 43521, Note_on_c, 0, 71, 0
2, 43529, Note_on_c, 0, 59, 0
2, 43534, Note_on_c, 0, 57, 0
2, 43540, Note_on_c, 0, 50, 0
2, 43739, Note_on_c, 0, 71, 53
2, 43744, Note_on_c, 0, 65, 49
2, 43746, Note_on_c, 0, 62, 38
2, 43747, Note_on_c, 0, 59, 50
2, 43753, Note_on_c, 0, 50, 47
2, 43754, Note_on_c, 0, 57, 47
2, 43772, Note_on_c, 0, 62, 0
2, 43773, Note_on_c, 0, 65, 0
2, 43784, Note_on_c, 0, 71, 0
2, 43785, Note_on_c, 0, 57, 0
2, 43794, Note_on_c, 0, 59, 0
2, 43796, Note_on_c, 0, 50, 0
2, 44270, Control_c, 0, 64, 127
2, 44848, Note_on_c, 0, 93, 84
2, 44850, Note_on_c, 0, 81, 76
2, 44855, Note_on_c, 0, 86, 66
2, 44857, Note_on_c, 0, 58, 60
2, 44859, Note_on_c, 0, 62, 61
2, 44860, Note_on_c, 0, 57, 63
2, 44867, Note_on_c, 0, 89, 42
2, 44880, Note_on_c, 0, 86, 0
2, 44883, Note_on_c, 0, 62, 0
2, 44884, Note_on_c, 0, 57, 0
2, 44891, Note_on_c, 0, 81, 0
2, 44891, Control_c, 0, 64, 0
2, 44892, Note_off_c, 0, 93, 0
2, 44893, Note_off_c, 0, 89, 0
2, 44899, Note_off_c, 0, 58, 0
2, 44935, Note_on_c, 0, 93, 78
2, 44936, Note_on_c, 0, 62, 60
2, 44936, Note_on_c, 0, 58, 56
2, 44941, Note_on_c, 0, 81, 64
2, 44942, Note_on_c, 0, 57, 65
2, 44944, Note_on_c, 0, 86, 70
2, 44948, Note_on_c, 0, 89, 54
2, 45081, Control_c, 0, 64, 127
2, 45129, Note_off_c, 0, 93, 0
2, 45131, Note_off_c, 0, 89, 0
2, 45138, Note_off_c, 0, 86, 0
2, 45147, Note_off_c, 0, 81, 0
2, 45160, Note_off_c, 0, 62, 0
2, 45161, Note_off_c, 0, 58, 0
2, 45162, Note_off_c, 0, 57, 0
2, 45206, Note_on_c, 0, 89, 66
2, 45216, Note_on_c, 0, 58, 56
2, 45217, Note_on_c, 0, 84, 68
2, 45218, Note_on_c, 0, 77, 54
2, 45219, Note_on_c, 0, 62, 50
2, 45219, Note_on_c, 0, 57, 50
2, 45239, Note_on_c, 0, 84, 0
2, 45242, Note_on_c, 0, 57, 0
2, 45246, Note_on_c, 0, 77, 0
2, 45246, Note_on_c, 0, 62, 0
2, 45250, Note_on_c, 0, 89, 0
2, 45254, Control_c, 0, 64, 0
2, 45259, Note_off_c, 0, 58, 0
2, 45294, Note_on_c, 0, 89, 78
2, 45298, Note_on_c, 0, 62, 66
2, 45299, Note_on_c, 0, 58, 62
2, 45299, Note_on_c, 0, 77, 69
2, 45300, Note_on_c, 0, 84, 81
2, 45305, Note_on_c, 0, 57, 65
2, 45392, Control_c, 0, 64, 127
2, 45411, Note_off_c, 0, 89, 0
2, 45425, Note_off_c, 0, 84, 0
2, 45442, Note_off_c, 0, 77, 0
2, 45487, Note_off_c, 0, 58, 0
2, 45492, Note_off_c, 0, 62, 0
2, 45492, Note_off_c, 0, 57, 0
2, 45578, Note_on_c, 0, 58, 57
2, 45582, Note_on_c, 0, 74, 71
2, 45582, Note_on_c, 0, 57, 56
2, 45584, Note_on_c, 0, 86, 64
2, 45588, Note_on_c, 0, 62, 48
2, 45592, Note_on_c, 0, 81, 55
2, 45603, Note_on_c, 0, 57, 0
2, 45606, Note_on_c, 0, 86, 0
2, 45607, Note_on_c, 0, 62, 0
2, 45611, Note_on_c, 0, 74, 0
2, 45612, Note_on_c, 0, 81, 0
2, 45627, Note_on_c, 0, 58, 0
2, 45643, Control_c, 0, 64, 0
2, 45668, Note_on_c, 0, 74, 71
2, 45668, Note_on_c, 0, 86, 64
2, 45670, Note_on_c, 0, 62, 55
2, 45670, Note_on_c, 0, 58, 57
2, 45674, Note_on_c, 0, 81, 57
2, 45675, Note_on_c, 0, 57, 63
2, 45778, Note_on_c, 0, 86, 0
2, 45785, Note_on_c, 0, 81, 0
2, 45799, Note_on_c, 0, 74, 0
2, 45831, Note_on_c, 0, 62, 0
2, 45831, Note_on_c, 0, 57, 0
2, 45841, Note_on_c, 0, 58, 0
2, 46173, Control_c, 0, 64, 127
2, 46448, Note_on_c, 0, 69, 89
2, 46453, Note_on_c, 0, 58, 88
2, 46453, Note_on_c, 0, 57, 81
2, 46454, Note_on_c, 0, 61, 79
2, 46457, Note_on_c, 0, 64, 73
2, 46472, Control_c, 0, 64, 0
2, 46476, Note_on_c, 0, 67, 28
2, 46510, Note_on_c, 0, 67, 0
2, 46602, Control_c, 0, 64, 127
2, 46704, Note_off_c, 0, 64, 0
2, 46728, Note_off_c, 0, 61, 0
2, 46731, Note_off_c, 0, 69, 0
2, 46731, Note_off_c, 0, 58, 0
2, 46754, Note_off_c, 0, 57, 0
2, 46766, Note_on_c, 0, 54, 44
2, 46795, Note_on_c, 0, 54, 0
2, 46811, Note_on_c, 0, 58, 77
2, 46816, Note_on_c, 0, 67, 66
2, 46817, Note_on_c, 0, 61, 69
2, 46820, Note_on_c, 0, 55, 70
2, 46821, Note_on_c, 0, 64, 72
2, 46824, Control_c, 0, 64, 0
2, 46955, Control_c, 0, 64, 127
2, 46961, Note_off_c, 0, 67, 0
2, 46986, Note_off_c, 0, 64, 0
2, 47023, Note_off_c, 0, 61, 0
2, 47024, Note_off_c, 0, 58, 0
2, 47068, Note_off_c, 0, 55, 0
2, 47141, Note_on_c, 0, 49, 43
2, 47197, Note_on_c, 0, 64, 70
2, 47198, Note_on_c, 0, 52, 62
2, 47198, Note_on_c, 0, 61, 62
2, 47199, Note_on_c, 0, 55, 74
2, 47199, Note_on_c, 0, 58, 67
2, 47218, Control_c, 0, 64, 0
2, 47221, Note_off_c, 0, 49, 0
2, 47392, Control_c, 0, 64, 127
2, 47400, Note_off_c, 0, 52, 0
2, 47401, Note_off_c, 0, 55, 0
2, 47418, Note_off_c, 0, 64, 0
2, 47425, Note_off_c, 0, 61, 0
2, 47430, Note_off_c, 0, 58, 0
2, 47586, Note_on_c, 0, 69, 60
2, 47588, Note_on_c, 0, 64, 69
2, 47590, Note_on_c, 0, 60, 68
2, 47599, Note_on_c, 0, 57, 64
2, 47600, Control_c, 0, 64, 0
2, 47606, Note_on_c, 0, 48, 55
2, 47857, Control_c, 0, 64, 127
2, 47893, Note_off_c, 0, 57, 0
2, 47912, Note_off_c, 0, 64, 0
2, 47922, Note_off_c, 0, 60, 0
2, 47982, Control_c, 0, 64, 0
2, 47986, Note_on_c, 0, 64, 62
2, 47989, Note_on_c, 0, 60, 44
2, 47998, Note_on_c, 0, 57, 49
2, 48000, Note_on_c, 0, 69, 0
2, 48131, Control_c, 0, 64, 127
2, 48238, Note_off_c, 0, 60, 0
2, 48275, Note_off_c, 0, 64, 0
2, 48306, Note_off_c, 0, 57, 0
2, 48525, Control_c, 0, 64, 0
2, 48547, Note_on_c, 0, 72, 88
2, 48547, Note_on_c, 0, 67, 95
2, 48549, Note_on_c, 0, 62, 90
2, 48554, Note_on_c, 0, 57, 76
2, 48687, Control_c, 0, 64, 127
2, 48731, Note_off_c, 0, 62, 0
2, 48744, Note_off_c, 0, 67, 0
2, 48757, Note_off_c, 0, 57, 0
2, 48764, Note_off_c, 0, 72, 0
2, 48811, Note_off_c, 0, 48, 0
2, 48860, Control_c, 0, 64, 0
2, 48860, Note_on_c, 0, 74, 91
2, 48861, Note_on_c, 0, 69, 91
2, 48864, Note_on_c, 0, 64, 84
2, 48866, Note_on_c, 0, 58, 69
2, 48953, Note_on_c, 0, 58, 0
2, 48957, Note_on_c, 0, 69, 0
2, 48965, Note_on_c, 0, 64, 0
2, 48979, Control_c, 0, 64, 127
2, 49001, Note_off_c, 0, 74, 0
2, 49105, Control_c, 0, 64, 0
2, 49112, Note_on_c, 0, 70, 80
2, 49113, Note_on_c, 0, 63, 81
2, 49116, Note_on_c, 0, 62, 75
2, 49116, Note_on_c, 0, 67, 85
2, 49314, Control_c, 0, 64, 127
2, 49448, Note_off_c, 0, 63, 0
2, 49505, Note_off_c, 0, 67, 0
2, 49535, Note_on_c, 0, 63, 73
2, 49543, Note_on_c, 0, 62, 0
2, 49554, Note_on_c, 0, 60, 48
2, 49585, Note_on_c, 0, 63, 0
2, 49588, Note_on_c, 0, 70, 0
2, 49594, Note_on_c, 0, 60, 0
2, 49898, Note_on_c, 0, 78, 74
2, 49899, Note_on_c, 0, 81, 91
2, 49900, Note_on_c, 0, 74, 99
2, 49904, Note_on_c, 0, 63, 79
2, 49904, Note_on_c, 0, 69, 90
2, 49906, Control_c, 0, 64, 0
2, 49911, Note_on_c, 0, 57, 75
2, 50092, Control_c, 0, 64, 127
2, 50168, Note_off_c, 0, 63, 0
2, 50178, Note_off_c, 0, 78, 0
2, 50187, Note_off_c, 0, 74, 0
2, 50192, Note_off_c, 0, 69, 0
2, 50239, Note_off_c, 0, 81, 0
2, 50286, Note_on_c, 0, 78, 69
2, 50292, Note_on_c, 0, 74, 71
2, 50293, Note_on_c, 0, 63, 67
2, 50295, Note_on_c, 0, 69, 63
2, 50387, Note_on_c, 0, 57, 0
2, 50418, Note_on_c, 0, 74, 0
2, 50426, Note_on_c, 0, 78, 0
2, 50434, Note_on_c, 0, 63, 0
2, 50468, Note_on_c, 0, 69, 0
2, 50670, Control_c, 0, 64, 0
2, 50675, Note_on_c, 0, 60, 47
2, 50676, Note_on_c, 0, 61, 48
2, 50676, Note_on_c, 0, 65, 44
2, 50677, Note_on_c, 0, 72, 59
2, 50695, Note_on_c, 0, 56, 37
2, 50875, Control_c, 0, 64, 127
2, 50930, Note_off_c, 0, 72, 0
2, 51105, Note_off_c, 0, 60, 0
2, 51136, Note_off_c, 0, 56, 0
2, 51175, Note_off_c, 0, 61, 0
2, 51183, Note_off_c, 0, 65, 0
2, 51288, Note_on_c, 0, 65, 24
2, 51330, Note_on_c, 0, 65, 0
2, 51437, Note_on_c, 0, 81, 94
2, 51449, Note_on_c, 0, 57, 79
2, 51465, Control_c, 0, 64, 0
2, 51550, Note_on_c, 0, 85, 69
2, 51555, Note_on_c, 0, 89, 74
2, 51561, Note_on_c, 0, 65, 58
2, 51561, Note_on_c, 0, 61, 44
2, 51575, Note_on_c, 0, 81, 0
2, 51597, Note_on_c, 0, 85, 0
2, 51610, Note_on_c, 0, 89, 0
2, 51636, Note_on_c, 0, 57, 0
2, 51739, Note_on_c, 0, 80, 86
2, 51745, Note_on_c, 0, 56, 77
2, 51761, Note_on_c, 0, 65, 0
2, 51787, Note_on_c, 0, 61, 0
2, 51884, Note_on_c, 0, 80, 0
2, 51909, Note_on_c, 0, 80, 39
2, 51911, Note_on_c, 0, 89, 78
2, 51925, Note_on_c, 0, 85, 62
2, 51928, Note_on_c, 0, 65, 62
2, 51930, Note_on_c, 0, 61, 55
2, 51975, Note_on_c, 0, 85, 0
2, 51982, Note_on_c, 0, 89, 0
2, 51995, Note_on_c, 0, 80, 0
2, 52027, Note_on_c, 0, 56, 0
2, 52094, Note_on_c, 0, 79, 79
2, 52140, Note_on_c, 0, 79, 0
2, 52189, Note_on_c, 0, 79, 76
2, 52192, Note_on_c, 0, 55, 88
2, 52298, Note_on_c, 0, 65, 0
2, 52316, Note_on_c, 0, 61, 0
2, 52378, Note_on_c, 0, 89, 75
2, 52382, Note_on_c, 0, 85, 68
2, 52382, Note_on_c, 0, 65, 62
2, 52390, Note_on_c, 0, 61, 55
2, 52439, Note_on_c, 0, 79, 0
2, 52444, Note_on_c, 0, 85, 0
2, 52449, Note_on_c, 0, 89, 0
2, 52462, Note_on_c, 0, 65, 0
2, 52465, Note_on_c, 0, 55, 0
2, 52480, Note_on_c, 0, 61, 0
2, 52826, Control_c, 0, 64, 127
2, 52955, Note_on_c, 0, 76, 71
2, 52959, Note_on_c, 0, 61, 56
2, 52962, Note_on_c, 0, 64, 63
2, 52963, Note_on_c, 0, 70, 53
2, 52963, Note_on_c, 0, 55, 68
2, 52964, Note_on_c, 0, 73, 42
2, 52964, Note_on_c, 0, 67, 58
2, 52972, Control_c, 0, 64, 0
2, 53012, Note_off_c, 0, 70, 0
2, 53019, Note_off_c, 0, 67, 0
2, 53022, Note_off_c, 0, 73, 0
2, 53067, Note_on_c, 0, 67, 40
2, 53071, Note_on_c, 0, 70, 39
2, 53074, Note_on_c, 0, 73, 42
2, 53096, Note_on_c, 0, 73, 0
2, 53109, Note_on_c, 0, 76, 0
2, 53114, Note_on_c, 0, 70, 0
2, 53120, Note_on_c, 0, 67, 0
2, 53131, Note_on_c, 0, 61, 0
2, 53133, Note_on_c, 0, 64, 0
2, 53139, Note_on_c, 0, 55, 0
2, 53263, Note_on_c, 0, 70, 72
2, 53272, Note_on_c, 0, 73, 44
2, 53274, Note_on_c, 0, 67, 62
2, 53275, Note_on_c, 0, 61, 57
2, 53281, Note_on_c, 0, 64, 53
2, 53291, Note_on_c, 0, 55, 40
2, 53294, Note_on_c, 0, 73, 0
2, 53302, Note_on_c, 0, 67, 0
2, 53307, Note_on_c, 0, 64, 0
2, 53310, Note_on_c, 0, 70, 0
2, 53324, Note_on_c, 0, 55, 0
2, 53341, Note_on_c, 0, 61, 0
2, 53371, Control_c, 0, 64, 127
2, 53449, Control_c, 0, 64, 0
2, 53455, Note_on_c, 0, 70, 78
2, 53469, Note_on_c, 0, 61, 65
2, 53475, Note_on_c, 0, 55, 66
2, 53517, Note_on_c, 0, 61, 0
2, 53539, Note_on_c, 0, 55, 0
2, 53539, Note_on_c, 0, 65, 24
2, 53545, Note_on_c, 0, 70, 0
2, 53578, Note_on_c, 0, 65, 0
2, 53611, Control_c, 0, 64, 127
2, 53743, Note_on_c, 0, 58, 71
2, 53745, Note_on_c, 0, 54, 71
2, 53746, Note_on_c, 0, 44, 70
2, 53748, Note_on_c, 0, 61, 61
2, 53753, Control_c, 0, 64, 0
2, 53755, Note_on_c, 0, 65, 41
2, 53801, Note_on_c, 0, 54, 0
2, 53805, Note_on_c, 0, 44, 0
2, 53806, Note_on_c, 0, 58, 0
2, 53808, Note_on_c, 0, 65, 0
2, 53819, Note_on_c, 0, 61, 0
2, 53923, Note_on_c, 0, 65, 74
2, 53923, Note_on_c, 0, 61, 64
2, 53926, Note_on_c, 0, 58, 71
2, 53927, Note_on_c, 0, 54, 76
2, 53937, Note_on_c, 0, 44, 69
2, 54220, Note_on_c, 0, 54, 0
2, 54245, Note_on_c, 0, 58, 0
2, 54250, Note_on_c, 0, 65, 0
2, 54297, Note_on_c, 0, 63, 59
2, 54300, Note_on_c, 0, 54, 68
2, 54303, Note_on_c, 0, 58, 49
2, 54322, Note_on_c, 0, 55, 36
2, 54331, Note_on_c, 0, 53, 26
2, 54338, Control_c, 0, 64, 127
2, 54351, Note_off_c, 0, 53, 0
2, 54360, Note_off_c, 0, 55, 0
2, 54369, Note_off_c, 0, 54, 0
2, 54392, Note_off_c, 0, 44, 0
2, 54399, Note_off_c, 0, 58, 0
2, 54412, Note_off_c, 0, 61, 0
2, 54427, Note_off_c, 0, 63, 0
2, 54702, Note_on_c, 0, 77, 96
2, 54704, Note_on_c, 0, 70, 90
2, 54706, Note_on_c, 0, 66, 94
2, 54708, Note_on_c, 0, 73, 77
2, 54726, Control_c, 0, 64, 0
2, 54727, Note_on_c, 0, 67, 68
2, 54732, Note_on_c, 0, 65, 66
2, 54752, Note_on_c, 0, 65, 0
2, 54809, Control_c, 0, 64, 127
2, 54873, Note_off_c, 0, 67, 0
2, 54918, Note_off_c, 0, 66, 0
2, 54920, Note_off_c, 0, 70, 0
2, 54930, Note_off_c, 0, 77, 0
2, 54939, Note_off_c, 0, 73, 0
2, 54976, Control_c, 0, 64, 0
2, 54977, Note_on_c, 0, 70, 75
2, 54978, Note_on_c, 0, 75, 80
2, 54979, Note_on_c, 0, 66, 75
2, 54981, Note_on_c, 0, 63, 69
2, 54982, Note_on_c, 0, 73, 59
2, 55031, Control_c, 0, 64, 127
2, 55033, Note_off_c, 0, 63, 0
2, 55076, Note_off_c, 0, 73, 0
2, 55110, Note_off_c, 0, 66, 0
2, 55137, Note_off_c, 0, 70, 0
2, 55166, Note_off_c, 0, 75, 0
2, 55257, Control_c, 0, 64, 0
2, 55259, Note_on_c, 0, 77, 81
2, 55262, Note_on_c, 0, 74, 77
2, 55267, Note_on_c, 0, 69, 92
2, 55267, Note_on_c, 0, 66, 90
2, 55273, Note_on_c, 0, 64, 78
2, 55275, Note_on_c, 0, 54, 73
2, 55289, Note_on_c, 0, 76, 27
2, 55321, Note_on_c, 0, 76, 0
2, 55646, Control_c, 0, 64, 127
2, 55737, Note_off_c, 0, 77, 0
2, 55750, Note_off_c, 0, 66, 0
2, 55751, Note_off_c, 0, 69, 0
2, 55759, Note_off_c, 0, 64, 0
2, 55777, Note_off_c, 0, 74, 0
2, 55798, Note_off_c, 0, 54, 0
2, 55844, Note_on_c, 0, 75, 77
2, 55846, Note_on_c, 0, 66, 69
2, 55848, Note_on_c, 0, 69, 78
2, 55853, Note_on_c, 0, 64, 61
2, 55854, Note_on_c, 0, 54, 43
2, 55860, Control_c, 0, 64, 0
2, 56028, Control_c, 0, 64, 127
2, 56101, Note_off_c, 0, 64, 0
2, 56116, Note_off_c, 0, 54, 0
2, 56129, Control_c, 0, 64, 0
2, 56150, Note_on_c, 0, 54, 37
2, 56155, Note_on_c, 0, 64, 62
2, 56214, Note_on_c, 0, 64, 0
2, 56224, Note_on_c, 0, 54, 0
2, 56417, Note_on_c, 0, 54, 70
2, 56422, Note_on_c, 0, 64, 66
2, 56526, Note_on_c, 0, 66, 0
2, 56583, Note_on_c, 0, 64, 0
2, 56602, Note_on_c, 0, 66, 46
2, 56607, Note_on_c, 0, 69, 0
2, 56672, Control_c, 0, 64, 127
2, 56673, Note_off_c, 0, 54, 0
2, 56685, Note_on_c, 0, 60, 29
2, 56734, Note_on_c, 0, 60, 0
2, 56738, Note_on_c, 0, 75, 0
2, 56744, Note_on_c, 0, 66, 0
2, 56786, Control_c, 0, 64, 0
2, 56809, Note_on_c, 0, 60, 34
2, 56811, Note_on_c, 0, 63, 47
2, 56816, Note_on_c, 0, 65, 49
2, 56819, Note_on_c, 0, 68, 51
2, 56823, Note_on_c, 0, 56, 42
2, 56838, Note_on_c, 0, 53, 29
2, 56965, Control_c, 0, 64, 127
2, 57057, Note_off_c, 0, 65, 0
2, 57108, Note_off_c, 0, 68, 0
2, 57116, Note_off_c, 0, 53, 0
2, 57142, Note_off_c, 0, 60, 0
2, 57146, Note_off_c, 0, 63, 0
2, 57152, Note_off_c, 0, 56, 0
2, 57394, Note_on_c, 0, 87, 85
2, 57412, Note_on_c, 0, 84, 75
2, 57415, Note_on_c, 0, 80, 71
2, 57416, Note_on_c, 0, 63, 64
2, 57418, Note_on_c, 0, 56, 50
2, 57421, Note_on_c, 0, 60, 57
2, 57424, Control_c, 0, 64, 0
2, 57429, Note_on_c, 0, 75, 54
2, 57430, Note_on_c, 0, 53, 46
2, 57652, Control_c, 0, 64, 127
2, 57992, Note_off_c, 0, 84, 0
2, 58009, Note_off_c, 0, 87, 0
2, 58014, Note_off_c, 0, 53, 0
2, 58025, Note_off_c, 0, 80, 0
2, 58031, Note_off_c, 0, 60, 0
2, 58034, Note_off_c, 0, 75, 0
2, 58049, Note_off_c, 0, 63, 0
2, 58075, Note_off_c, 0, 56, 0
2, 58583, Control_c, 0, 64, 0
2, 58727, Note_on_c, 0, 76, 88
2, 58732, Note_on_c, 0, 69, 92
2, 58733, Note_on_c, 0, 65, 92
2, 58733, Note_on_c, 0, 71, 80
2, 58736, Note_on_c, 0, 64, 82
2, 58754, Note_on_c, 0, 74, 29
2, 58783, Note_on_c, 0, 74, 0
2, 58885, Note_on_c, 0, 71, 0
2, 58890, Note_on_c, 0, 76, 0
2, 58891, Note_on_c, 0, 65, 0
2, 58914, Note_on_c, 0, 69, 0
2, 58916, Note_on_c, 0, 74, 57
2, 58922, Note_on_c, 0, 62, 43
2, 58939, Note_on_c, 0, 64, 0
2, 58955, Note_on_c, 0, 62, 0
2, 58984, Note_on_c, 0, 74, 0
2, 59104, Note_on_c, 0, 73, 80
2, 59108, Note_on_c, 0, 76, 84
2, 59108, Note_on_c, 0, 69, 91
2, 59115, Note_on_c, 0, 64, 80
2, 59263, Control_c, 0, 64, 127
2, 59378, Note_off_c, 0, 64, 0
2, 59407, Note_off_c, 0, 69, 0
2, 59411, Note_off_c, 0, 73, 0
2, 59464, Note_off_c, 0, 76, 0
2, 59489, Note_on_c, 0, 73, 60
2, 59497, Note_on_c, 0, 59, 58
2, 59498, Note_on_c, 0, 64, 62
2, 59498, Note_on_c, 0, 69, 68
2, 59506, Note_on_c, 0, 53, 47
2, 59526, Control_c, 0, 64, 0
2, 59648, Note_off_c, 0, 59, 0
2, 59657, Control_c, 0, 64, 127
2, 59659, Note_off_c, 0, 53, 0
2, 59695, Note_off_c, 0, 69, 0
2, 59705, Note_off_c, 0, 73, 0
2, 59735, Note_off_c, 0, 64, 0
2, 59890, Control_c, 0, 64, 0
2, 60073, Note_on_c, 0, 57, 74
2, 60076, Note_on_c, 0, 69, 76
2, 60078, Note_on_c, 0, 62, 72
2, 60079, Note_on_c, 0, 58, 73
2, 60087, Note_on_c, 0, 65, 60
2, 60311, Note_on_c, 0, 58, 0
2, 60322, Note_on_c, 0, 62, 0
2, 60323, Note_on_c, 0, 69, 0
2, 60329, Note_on_c, 0, 65, 0
2, 60372, Note_on_c, 0, 58, 56
2, 60373, Note_on_c, 0, 62, 53
2, 60376, Note_on_c, 0, 67, 62
2, 60385, Note_on_c, 0, 65, 35
2, 60390, Note_on_c, 0, 55, 65
2, 60396, Note_on_c, 0, 57, 0
2, 60415, Note_on_c, 0, 65, 0
2, 60526, Note_on_c, 0, 62, 0
2, 60544, Note_on_c, 0, 58, 0
2, 60553, Control_c, 0, 64, 127
2, 60590, Note_off_c, 0, 67, 0
2, 60623, Control_c, 0, 64, 0
2, 60627, Note_off_c, 0, 55, 0
2, 60645, Note_on_c, 0, 58, 51
2, 60647, Note_on_c, 0, 62, 54
2, 60652, Note_on_c, 0, 48, 45
2, 60653, Note_on_c, 0, 57, 47
2, 60743, Note_on_c, 0, 48, 0
2, 60797, Control_c, 0, 64, 127
2, 60859, Note_off_c, 0, 58, 0
2, 60896, Note_off_c, 0, 62, 0
2, 60904, Control_c, 0, 64, 0
2, 60932, Note_on_c, 0, 58, 68
2, 60947, Note_on_c, 0, 48, 62
2, 60953, Note_on_c, 0, 62, 41
2, 60966, Note_on_c, 0, 57, 0
2, 61011, Control_c, 0, 64, 127
2, 61049, Note_off_c, 0, 48, 0
2, 61184, Note_off_c, 0, 58, 0
2, 61218, Note_off_c, 0, 62, 0
2, 61364, Control_c, 0, 64, 0
2, 61403, Note_on_c, 0, 45, 70
2, 61435, Control_c, 0, 64, 127
2, 61454, Note_off_c, 0, 45, 0
2, 61717, Note_on_c, 0, 77, 95
2, 61718, Note_on_c, 0, 84, 92
2, 61719, Note_on_c, 0, 61, 80
2, 61721, Note_on_c, 0, 81, 88
2, 61721, Note_on_c, 0, 66, 87
2, 61724, Note_on_c, 0, 72, 94
2, 61726, Note_on_c, 0, 55, 84
2, 61733, Control_c, 0, 64, 0
2, 61901, Control_c, 0, 64, 127
2, 61978, Note_off_c, 0, 72, 0
2, 61997, Note_off_c, 0, 77, 0
2, 62009, Note_off_c, 0, 81, 0
2, 62014, Note_off_c, 0, 84, 0
2, 62023, Note_off_c, 0, 55, 0
2, 62040, Note_off_c, 0, 66, 0
2, 62051, Note_off_c, 0, 61, 0
2, 62184, Note_on_c, 0, 84, 88
2, 62185, Note_on_c, 0, 89, 84
2, 62187, Control_c, 0, 64, 0
2, 62190, Note_on_c, 0, 61, 72
2, 62191, Note_on_c, 0, 77, 79
2, 62195, Note_on_c, 0, 65, 74
2, 62197, Note_on_c, 0, 55, 75
2, 62289, Control_c, 0, 64, 127
2, 62290, Note_off_c, 0, 77, 0
2, 62307, Note_off_c, 0, 84, 0
2, 62310, Note_off_c, 0, 89, 0
2, 62383, Note_off_c, 0, 55, 0
2, 62398, Note_off_c, 0, 65, 0
2, 62403, Note_off_c, 0, 61, 0
2, 62550, Control_c, 0, 64, 0
2, 62553, Note_on_c, 0, 93, 82
2, 62553, Note_on_c, 0, 81, 79
2, 62553, Note_on_c, 0, 88, 80
2, 62555, Note_on_c, 0, 65, 73
2, 62559, Note_on_c, 0, 61, 67
2, 62559, Note_on_c, 0, 55, 76
2, 62609, Note_on_c, 0, 65, 0
2, 62616, Control_c, 0, 64, 127
2, 62623, Note_off_c, 0, 93, 0
2, 62638, Note_off_c, 0, 88, 0
2, 62648, Note_off_c, 0, 55, 0
2, 62654, Note_off_c, 0, 61, 0
2, 62654, Note_off_c, 0, 81, 0
2, 62962, Control_c, 0, 64, 0
2, 62966, Note_on_c, 0, 65, 54
2, 62968, Note_on_c, 0, 57, 41
2, 62968, Note_on_c, 0, 62, 42
2, 62973, Note_on_c, 0, 64, 40
2, 62976, Note_on_c, 0, 53, 44
2, 62979, Note_on_c, 0, 50, 45
2, 63042, Note_on_c, 0, 62, 0
2, 63249, Note_on_c, 0, 65, 0
2, 63274, Note_on_c, 0, 64, 0
2, 63349, Note_on_c, 0, 64, 54
2, 63353, Note_on_c, 0, 65, 64
2, 63397, Note_on_c, 0, 64, 0
2, 63409, Note_on_c, 0, 65, 0
2, 63447, Note_on_c, 0, 64, 49
2, 63449, Note_on_c, 0, 65, 45
2, 63485, Note_on_c, 0, 64, 0
2, 63486, Note_on_c, 0, 65, 0
2, 63681, Note_on_c, 0, 65, 54
2, 63684, Note_on_c, 0, 64, 46
2, 63713, Note_on_c, 0, 64, 0
2, 63713, Note_on_c, 0, 65, 0
2, 63925, Note_on_c, 0, 64, 72
2, 63931, Note_on_c, 0, 65, 62
2, 64280, Note_on_c, 0, 64, 0
2, 64286, Note_on_c, 0, 62, 47
2, 64392, Note_on_c, 0, 57, 0
2, 64396, Note_on_c, 0, 50, 0
2, 64402, Note_on_c, 0, 62, 0
2, 64405, Note_on_c, 0, 53, 0
2, 64454, Control_c, 0, 64, 127
2, 64483, Note_on_c, 0, 62, 53
2, 64485, Note_on_c, 0, 65, 0
2, 64499, Note_on_c, 0, 57, 42
2, 64502, Control_c, 0, 64, 0
2, 64505, Note_on_c, 0, 50, 37
2, 64509, Note_on_c, 0, 53, 46
2, 64949, Control_c, 0, 64, 127
2, 65069, Note_off_c, 0, 62, 0
2, 65309, Note_off_c, 0, 50, 0
2, 65312, Note_off_c, 0, 53, 0
2, 65323, Note_off_c, 0, 57, 0
2, 65641, Note_on_c, 0, 79, 96
2, 65643, Note_on_c, 0, 72, 108
2, 65648, Note_on_c, 0, 64, 69
2, 65725, Note_on_c, 0, 64, 0
2, 65767, Note_on_c, 0, 79, 0
2, 65776, Note_on_c, 0, 72, 0
2, 66005, Control_c, 0, 64, 0
2, 66012, Note_on_c, 0, 62, 43
2, 66014, Note_on_c, 0, 72, 58
2, 66019, Note_on_c, 0, 69, 52
2, 66024, Note_on_c, 0, 60, 38
2, 66024, Note_on_c, 0, 65, 45
2, 66026, Note_on_c, 0, 58, 34
2, 66112, Control_c, 0, 64, 127
2, 66135, Note_off_c, 0, 65, 0
2, 66157, Note_off_c, 0, 69, 0
2, 66178, Note_off_c, 0, 72, 0
2, 66238, Note_off_c, 0, 60, 0
2, 66250, Note_off_c, 0, 62, 0
2, 66265, Note_off_c, 0, 58, 0
2, 66593, Note_on_c, 0, 96, 90
2, 66595, Note_on_c, 0, 62, 61
2, 66598, Note_on_c, 0, 58, 51
2, 66599, Note_on_c, 0, 84, 90
2, 66606, Note_on_c, 0, 60, 44
2, 66637, Control_c, 0, 64, 0
2, 66647, Note_off_c, 0, 84, 0
2, 66667, Note_off_c, 0, 96, 0
2, 66697, Note_on_c, 0, 93, 63
2, 66742, Note_on_c, 0, 93, 0
2, 66776, Note_on_c, 0, 94, 62
2, 66820, Note_on_c, 0, 60, 0
2, 66826, Note_on_c, 0, 62, 0
2, 66835, Note_on_c, 0, 58, 0
2, 66836, Note_on_c, 0, 94, 0
2, 66881, Note_on_c, 0, 96, 87
2, 66883, Note_on_c, 0, 62, 48
2, 66884, Note_on_c, 0, 84, 79
2, 66889, Note_on_c, 0, 58, 44
2, 66894, Note_on_c, 0, 60, 38
2, 66950, Note_on_c, 0, 84, 0
2, 66961, Note_on_c, 0, 96, 0
2, 66979, Note_on_c, 0, 93, 66
2, 66989, Control_c, 0, 64, 127
2, 67045, Note_off_c, 0, 60, 0
2, 67062, Note_off_c, 0, 93, 0
2, 67072, Note_off_c, 0, 62, 0
2, 67086, Note_off_c, 0, 58, 0
2, 67132, Control_c, 0, 64, 0
2, 67168, Note_on_c, 0, 89, 76
2, 67170, Note_on_c, 0, 62, 49
2, 67173, Note_on_c, 0, 58, 42
2, 67181, Note_on_c, 0, 60, 38
2, 67431, Note_on_c, 0, 62, 0
2, 67438, Note_on_c, 0, 60, 0
2, 67444, Note_on_c, 0, 58, 0
2, 67495, Note_on_c, 0, 89, 0
2, 67549, Note_on_c, 0, 86, 68
2, 67556, Note_on_c, 0, 58, 45
2, 67556, Note_on_c, 0, 62, 50
2, 67561, Note_on_c, 0, 60, 44
2, 67608, Note_on_c, 0, 86, 0
2, 67637, Note_on_c, 0, 60, 0
2, 67651, Note_on_c, 0, 86, 61
2, 67667, Note_on_c, 0, 60, 17
2, 67707, Note_on_c, 0, 86, 0
2, 67723, Note_on_c, 0, 60, 0
2, 67741, Note_on_c, 0, 62, 0
2, 67769, Note_on_c, 0, 58, 0
2, 67928, Note_on_c, 0, 62, 60
2, 67932, Note_on_c, 0, 58, 49
2, 67938, Note_on_c, 0, 60, 48
2, 68015, Note_on_c, 0, 60, 0
2, 68024, Note_on_c, 0, 62, 0
2, 68042, Note_on_c, 0, 58, 0
2, 68129, Note_on_c, 0, 84, 84
2, 68132, Note_on_c, 0, 58, 57
2, 68134, Note_on_c, 0, 83, 51
2, 68136, Note_on_c, 0, 62, 61
2, 68138, Note_on_c, 0, 60, 61
2, 68156, Note_on_c, 0, 83, 0
2, 68336, Note_on_c, 0, 62, 0
2, 68337, Note_on_c, 0, 60, 0
2, 68353, Note_on_c, 0, 58, 0
2, 68362, Control_c, 0, 64, 127
2, 68363, Note_off_c, 0, 84, 0
2, 68409, Control_c, 0, 64, 0
2, 68409, Note_on_c, 0, 81, 68
2, 68427, Note_on_c, 0, 62, 55
2, 68428, Note_on_c, 0, 58, 44
2, 68432, Note_on_c, 0, 60, 55
2, 68483, Note_on_c, 0, 81, 0
2, 68500, Note_on_c, 0, 77, 32
2, 68576, Note_on_c, 0, 60, 0
2, 68587, Note_on_c, 0, 77, 0
2, 68595, Note_on_c, 0, 58, 0
2, 68607, Note_on_c, 0, 62, 0
2, 68706, Note_on_c, 0, 62, 66
2, 68709, Note_on_c, 0, 81, 89
2, 68711, Note_on_c, 0, 58, 51
2, 68714, Note_on_c, 0, 60, 59
2, 68818, Note_on_c, 0, 77, 74
2, 68835, Note_on_c, 0, 60, 0
2, 68838, Note_on_c, 0, 81, 0
2, 68849, Note_on_c, 0, 58, 0
2, 68889, Note_on_c, 0, 62, 0
2, 68895, Note_on_c, 0, 77, 0
2, 68928, Note_on_c, 0, 74, 34
2, 68988, Control_c, 0, 64, 127
2, 69000, Note_off_c, 0, 74, 0
2, 69071, Control_c, 0, 64, 0
2, 69087, Note_on_c, 0, 60, 42
2, 69089, Note_on_c, 0, 79, 79
2, 69094, Note_on_c, 0, 57, 51
2, 69095, Note_on_c, 0, 53, 50
2, 69098, Note_on_c, 0, 50, 50
2, 69353, Note_on_c, 0, 79, 0
2, 69399, Note_on_c, 0, 76, 57
2, 69460, Note_on_c, 0, 76, 0
2, 69486, Note_on_c, 0, 72, 46
2, 69538, Note_on_c, 0, 72, 0
2, 69677, Note_on_c, 0, 72, 66
2, 69762, Note_on_c, 0, 72, 0
2, 69855, Note_on_c, 0, 72, 68
2, 69965, Note_on_c, 0, 72, 0
2, 70044, Note_on_c, 0, 69, 53
2, 70081, Note_on_c, 0, 69, 0
2, 70244, Note_on_c, 0, 69, 63
2, 70486, Control_c, 0, 64, 127
2, 70849, Note_off_c, 0, 69, 0
2, 70858, Note_off_c, 0, 60, 0
2, 70873, Note_off_c, 0, 57, 0
2, 70874, Note_off_c, 0, 50, 0
2, 70875, Note_off_c, 0, 53, 0
2, 72188, Note_on_c, 0, 59, 92
2, 72246, Control_c, 0, 64, 0
2, 72261, Note_off_c, 0, 59, 0
2, 72292, Note_on_c, 0, 55, 53
2, 72363, Note_on_c, 0, 55, 0
2, 72377, Note_on_c, 0, 57, 54
2, 72450, Note_on_c, 0, 57, 0
2, 72476, Note_on_c, 0, 59, 66
2, 72530, Note_on_c, 0, 59, 0
2, 72557, Note_on_c, 0, 62, 80
2, 72841, Note_on_c, 0, 62, 0
2, 72853, Note_on_c, 0, 59, 49
2, 72896, Note_on_c, 0, 59, 0
2, 72933, Note_on_c, 0, 60, 64
2, 73005, Note_on_c, 0, 60, 0
2, 73045, Control_c, 0, 64, 127
2, 73048, Note_on_c, 0, 64, 46
2, 73121, Note_on_c, 0, 64, 0
2, 73247, Note_on_c, 0, 64, 50
2, 73255, Control_c, 0, 64, 0
2, 73257, Note_on_c, 0, 60, 43
2, 73259, Note_on_c, 0, 59, 34
2, 73389, Note_on_c, 0, 64, 0
2, 73390, Note_on_c, 0, 59, 0
2, 73394, Note_on_c, 0, 60, 0
2, 73508, Note_on_c, 0, 64, 52
2, 73513, Note_on_c, 0, 60, 47
2, 73519, Note_on_c, 0, 59, 47
2, 73703, Note_on_c, 0, 74, 96
2, 73807, Note_on_c, 0, 74, 0
2, 73807, Note_on_c, 0, 71, 74
2, 73845, Control_c, 0, 64, 127
2, 73853, Note_off_c, 0, 64, 0
2, 73866, Note_off_c, 0, 60, 0
2, 73870, Note_off_c, 0, 59, 0
2, 73885, Note_off_c, 0, 71, 0
2, 73901, Note_on_c, 0, 67, 30
2, 73944, Note_on_c, 0, 67, 0
2, 73994, Control_c, 0, 64, 0
2, 73995, Note_on_c, 0, 79, 83
2, 73996, Note_on_c, 0, 60, 47
2, 74000, Note_on_c, 0, 64, 41
2, 74001, Note_on_c, 0, 59, 43
2, 74051, Note_on_c, 0, 64, 0
2, 74065, Note_on_c, 0, 60, 0
2, 74078, Note_on_c, 0, 59, 0
2, 74091, Note_on_c, 0, 74, 67
2, 74112, Note_on_c, 0, 79, 0
2, 74169, Note_on_c, 0, 74, 0
2, 74196, Note_on_c, 0, 71, 51
2, 74228, Note_on_c, 0, 71, 0
2, 74281, Note_on_c, 0, 83, 57
2, 74283, Note_on_c, 0, 64, 42
2, 74285, Note_on_c, 0, 59, 42
2, 74285, Note_on_c, 0, 60, 43
2, 74326, Note_on_c, 0, 83, 0
2, 74335, Note_on_c, 0, 64, 0
2, 74354, Note_on_c, 0, 60, 0
2, 74369, Note_on_c, 0, 59, 0
2, 74552, Note_on_c, 0, 64, 55
2, 74553, Note_on_c, 0, 60, 54
2, 74557, Note_on_c, 0, 59, 45
2, 74582, Note_on_c, 0, 59, 0
2, 74582, Note_on_c, 0, 64, 0
2, 74588, Note_on_c, 0, 60, 0
2, 74846, Note_on_c, 0, 86, 96
2, 74851, Note_on_c, 0, 60, 59
2, 74851, Note_on_c, 0, 59, 62
2, 74853, Note_on_c, 0, 64, 62
2, 74939, Note_on_c, 0, 86, 0
2, 74957, Note_on_c, 0, 64, 0
2, 74959, Note_on_c, 0, 83, 74
2, 74964, Note_on_c, 0, 60, 0
2, 74972, Note_on_c, 0, 59, 0
2, 75009, Note_on_c, 0, 83, 0
2, 75052, Note_on_c, 0, 84, 90
2, 75137, Note_on_c, 0, 84, 0
2, 75153, Note_on_c, 0, 81, 79
2, 75222, Note_on_c, 0, 57, 35
2, 75223, Note_on_c, 0, 53, 38
2, 75224, Note_on_c, 0, 60, 29
2, 75230, Note_on_c, 0, 81, 0
2, 75241, Note_on_c, 0, 50, 36
2, 75245, Note_on_c, 0, 77, 66
2, 75377, Note_on_c, 0, 77, 0
2, 75425, Note_on_c, 0, 77, 68
2, 75508, Note_on_c, 0, 77, 0
2, 75620, Note_on_c, 0, 77, 70
2, 75712, Note_on_c, 0, 77, 0
2, 75729, Note_on_c, 0, 76, 56
2, 75800, Note_on_c, 0, 76, 0
2, 75817, Note_on_c, 0, 74, 57
2, 75893, Note_on_c, 0, 74, 0
2, 76002, Note_on_c, 0, 74, 70
2, 76285, Control_c, 0, 64, 127
2, 76394, Note_on_c, 0, 69, 55
2, 76619, Control_c, 0, 64, 0
2, 76690, Control_c, 0, 64, 127
2, 76775, Control_c, 0, 64, 0
2, 76977, Control_c, 0, 64, 127
2, 77244, Note_off_c, 0, 69, 0
2, 77303, Note_off_c, 0, 74, 0
2, 77336, Note_off_c, 0, 53, 0
2, 77339, Note_off_c, 0, 60, 0
2, 77353, Note_off_c, 0, 57, 0
2, 77369, Note_off_c, 0, 50, 0
2, 78213, Note_on_c, 0, 96, 80
2, 78220, Note_on_c, 0, 84, 79
2, 78250, Note_on_c, 0, 96, 0
2, 78254, Note_on_c, 0, 84, 0
2, 78296, Control_c, 0, 64, 0
2, 78308, Note_on_c, 0, 96, 79
2, 78312, Note_on_c, 0, 84, 80
2, 78315, Note_on_c, 0, 60, 72
2, 78358, Note_on_c, 0, 84, 0
2, 78384, Note_on_c, 0, 96, 0
2, 78416, Note_on_c, 0, 94, 53
2, 78418, Note_on_c, 0, 58, 58
2, 78442, Note_on_c, 0, 60, 0
2, 78488, Note_on_c, 0, 94, 0
2, 78505, Note_on_c, 0, 91, 54
2, 78533, Note_on_c, 0, 91, 0
2, 78533, Note_on_c, 0, 58, 0
2, 78544, Note_on_c, 0, 55, 34
2, 78573, Note_on_c, 0, 55, 0
2, 78640, Note_on_c, 0, 96, 83
2, 78641, Note_on_c, 0, 84, 79
2, 78653, Note_on_c, 0, 60, 60
2, 78673, Note_on_c, 0, 60, 0
2, 78677, Note_on_c, 0, 96, 0
2, 78680, Note_on_c, 0, 84, 0
2, 78725, Note_on_c, 0, 96, 73
2, 78728, Note_on_c, 0, 60, 58
2, 78728, Note_on_c, 0, 84, 73
2, 78810, Note_on_c, 0, 96, 0
2, 78817, Note_on_c, 0, 58, 47
2, 78826, Note_on_c, 0, 94, 46
2, 78830, Note_on_c, 0, 60, 0
2, 78832, Note_on_c, 0, 84, 0
2, 78888, Note_on_c, 0, 94, 0
2, 78919, Note_on_c, 0, 58, 0
2, 78933, Note_on_c, 0, 55, 42
2, 78987, Note_on_c, 0, 55, 0
2, 79746, Note_on_c, 0, 72, 81
2, 79785, Note_on_c, 0, 72, 0
2, 79841, Note_on_c, 0, 65, 61
2, 79843, Note_on_c, 0, 72, 82
2, 79846, Note_on_c, 0, 58, 33
2, 79847, Note_on_c, 0, 60, 55
2, 79851, Note_on_c, 0, 55, 60
2, 79877, Note_on_c, 0, 58, 0
2, 79936, Note_on_c, 0, 72, 0
2, 79941, Note_on_c, 0, 70, 53
2, 79945, Note_on_c, 0, 60, 0
2, 79948, Note_on_c, 0, 65, 0
2, 79980, Note_on_c, 0, 55, 0
2, 80004, Note_on_c, 0, 70, 0
2, 80215, Note_on_c, 0, 65, 53
2, 80231, Note_on_c, 0, 60, 34
2, 80231, Note_on_c, 0, 55, 35
2, 80260, Note_on_c, 0, 60, 0
2, 80265, Note_on_c, 0, 55, 0
2, 80277, Note_on_c, 0, 65, 0
2, 80504, Note_on_c, 0, 72, 88
2, 80553, Note_on_c, 0, 72, 0
2, 80594, Note_on_c, 0, 72, 85
2, 80598, Note_on_c, 0, 65, 63
2, 80608, Note_on_c, 0, 60, 51
2, 80610, Note_on_c, 0, 55, 54
2, 80659, Note_on_c, 0, 65, 0
2, 80685, Note_on_c, 0, 70, 50
2, 80687, Note_on_c, 0, 72, 0
2, 80756, Note_on_c, 0, 55, 0
2, 80780, Note_on_c, 0, 70, 0
2, 80784, Note_on_c, 0, 60, 0
2, 80786, Note_on_c, 0, 67, 26
2, 80811, Note_on_c, 0, 67, 0
2, 80871, Note_on_c, 0, 72, 89
2, 80892, Note_on_c, 0, 65, 60
2, 80903, Note_on_c, 0, 60, 47
2, 80912, Note_on_c, 0, 55, 40
2, 80962, Note_on_c, 0, 70, 82
2, 80969, Note_on_c, 0, 65, 0
2, 80997, Note_on_c, 0, 72, 0
2, 81024, Note_on_c, 0, 60, 0
2, 81035, Note_on_c, 0, 55, 0
2, 81035, Note_on_c, 0, 70, 0
2, 81070, Note_on_c, 0, 67, 74
2, 81129, Note_on_c, 0, 67, 0
2, 81273, Note_on_c, 0, 64, 39
2, 81325, Note_on_c, 0, 64, 0
2, 81353, Note_on_c, 0, 59, 41
2, 81365, Note_on_c, 0, 57, 39
2, 81366, Note_on_c, 0, 67, 69
2, 81373, Note_on_c, 0, 53, 46
2, 81380, Note_on_c, 0, 50, 36
2, 81455, Note_on_c, 0, 67, 0
2, 81478, Note_on_c, 0, 64, 55
2, 81515, Note_on_c, 0, 64, 0
2, 81560, Note_on_c, 0, 65, 68
2, 81622, Note_on_c, 0, 59, 0
2, 81652, Note_on_c, 0, 65, 0
2, 81666, Note_on_c, 0, 62, 37
2, 81672, Note_on_c, 0, 57, 0
2, 81730, Note_on_c, 0, 62, 0
2, 81754, Note_on_c, 0, 53, 0
2, 81765, Note_on_c, 0, 57, 53
2, 81846, Note_on_c, 0, 57, 0
2, 81948, Note_on_c, 0, 57, 58
2, 82067, Note_on_c, 0, 57, 0
2, 82097, Note_on_c, 0, 50, 0
2, 82137, Note_on_c, 0, 57, 54
2, 82247, Note_on_c, 0, 57, 0
2, 82317, Note_on_c, 0, 57, 55
2, 82452, Note_on_c, 0, 57, 0
2, 82528, Note_on_c, 0, 57, 58
2, 83278, Note_on_c, 0, 57, 0
2, 84274, Control_c, 0, 64, 127
2, 84464, Control_c, 0, 64, 0
2, 84472, Note_on_c, 0, 64, 31
2, 84479, Note_on_c, 0, 62, 31
2, 84486, Note_on_c, 0, 60, 29
2, 84751, Note_on_c, 0, 74, 89
2, 84794, Note_on_c, 0, 74, 0
2, 84834, Note_on_c, 0, 74, 78
2, 84925, Note_on_c, 0, 74, 0
2, 84936, Note_on_c, 0, 72, 65
2, 85013, Note_on_c, 0, 72, 0
2, 85017, Note_on_c, 0, 69, 55
2, 85079, Control_c, 0, 64, 127
2, 85085, Note_off_c, 0, 69, 0
2, 85116, Note_off_c, 0, 64, 0
2, 85117, Note_off_c, 0, 62, 0
2, 85124, Note_off_c, 0, 60, 0
2, 85162, Control_c, 0, 64, 0
2, 85195, Note_on_c, 0, 74, 72
2, 85209, Note_on_c, 0, 64, 44
2, 85211, Note_on_c, 0, 62, 33
2, 85217, Note_on_c, 0, 60, 33
2, 85377, Note_on_c, 0, 74, 0
2, 85403, Note_on_c, 0, 72, 62
2, 85437, Note_on_c, 0, 62, 0
2, 85449, Note_on_c, 0, 60, 0
2, 85453, Note_on_c, 0, 72, 0
2, 85455, Note_on_c, 0, 64, 0
2, 85577, Note_on_c, 0, 64, 38
2, 85581, Note_on_c, 0, 69, 60
2, 85585, Note_on_c, 0, 62, 37
2, 85588, Note_on_c, 0, 60, 34
2, 85795, Control_c, 0, 64, 127
2, 85857, Note_off_c, 0, 62, 0
2, 85868, Note_off_c, 0, 64, 0
2, 85873, Note_off_c, 0, 60, 0
2, 85880, Note_off_c, 0, 69, 0
2, 85956, Control_c, 0, 64, 0
2, 85978, Note_on_c, 0, 64, 36
2, 85986, Note_on_c, 0, 69, 50
2, 85990, Note_on_c, 0, 60, 34
2, 85990, Note_on_c, 0, 62, 35
2, 86187, Note_on_c, 0, 64, 0
2, 86192, Note_on_c, 0, 69, 0
2, 86193, Note_on_c, 0, 62, 0
2, 86206, Note_on_c, 0, 60, 0
2, 86267, Note_on_c, 0, 69, 60
2, 86281, Note_on_c, 0, 64, 35
2, 86287, Note_on_c, 0, 62, 30
2, 86291, Note_on_c, 0, 60, 34
2, 86329, Note_on_c, 0, 69, 0
2, 86333, Note_on_c, 0, 64, 0
2, 86338, Note_on_c, 0, 62, 0
2, 86363, Note_on_c, 0, 60, 0
2, 86556, Note_on_c, 0, 69, 57
2, 86558, Note_on_c, 0, 64, 37
2, 86566, Note_on_c, 0, 62, 38
2, 86570, Note_on_c, 0, 60, 35
2, 86900, Note_on_c, 0, 64, 0
2, 86907, Note_on_c, 0, 62, 0
2, 86915, Note_on_c, 0, 60, 0
2, 87143, Note_on_c, 0, 69, 0
2, 87521, Note_on_c, 0, 60, 32
2, 87523, Note_on_c, 0, 57, 32
2, 87525, Control_c, 0, 64, 0
2, 87532, Note_on_c, 0, 53, 29
2, 87547, Note_on_c, 0, 60, 0
2, 87551, Note_on_c, 0, 57, 0
2, 87557, Note_on_c, 0, 53, 0
2, 87807, Note_on_c, 0, 60, 42
2, 87812, Note_on_c, 0, 57, 36
2, 87814, Note_on_c, 0, 53, 35
2, 87834, Note_on_c, 0, 60, 0
2, 87837, Note_on_c, 0, 57, 0
2, 87844, Note_on_c, 0, 53, 0
2, 88069, Note_on_c, 0, 60, 52
2, 88072, Note_on_c, 0, 57, 48
2, 88079, Note_on_c, 0, 53, 39
2, 88098, Note_on_c, 0, 57, 0
2, 88102, Note_on_c, 0, 60, 0
2, 88103, Note_on_c, 0, 53, 0
2, 88664, Note_on_c, 0, 67, 56
2, 88677, Note_on_c, 0, 62, 41
2, 88689, Note_on_c, 0, 67, 0
2, 88699, Note_on_c, 0, 62, 0
2, 89145, Note_on_c, 0, 61, 53
2, 89148, Note_on_c, 0, 57, 54
2, 89167, Note_on_c, 0, 53, 32
2, 89181, Note_on_c, 0, 61, 0
2, 89184, Note_on_c, 0, 57, 0
2, 89192, Note_on_c, 0, 53, 0
2, 89431, Note_on_c, 0, 76, 115
2, 89526, Note_on_c, 0, 76, 0
2, 89533, Note_on_c, 0, 77, 80
2, 89622, Note_on_c, 0, 76, 63
2, 89652, Note_on_c, 0, 77, 0
2, 89687, Note_on_c, 0, 76, 0
2, 89716, Note_on_c, 0, 73, 75
2, 89732, Note_on_c, 0, 61, 52
2, 89746, Note_on_c, 0, 57, 37
2, 89763, Note_on_c, 0, 53, 28
2, 89776, Note_on_c, 0, 57, 0
2, 89776, Note_on_c, 0, 61, 0
2, 89778, Note_on_c, 0, 73, 0
2, 89792, Note_on_c, 0, 53, 0
2, 89796, Control_c, 0, 64, 127
2, 89810, Note_on_c, 0, 69, 54
2, 89876, Note_on_c, 0, 69, 0
2, 89907, Control_c, 0, 64, 0
2, 89919, Note_on_c, 0, 64, 71
2, 89966, Note_on_c, 0, 64, 0
2, 90013, Note_on_c, 0, 62, 24
2, 90053, Control_c, 0, 64, 127
2, 90062, Note_off_c, 0, 62, 0
2, 90110, Note_on_c, 0, 59, 58
2, 90131, Note_on_c, 0, 57, 31
2, 90150, Note_on_c, 0, 59, 0
2, 90161, Note_on_c, 0, 57, 0
2, 90192, Control_c, 0, 64, 0
2, 90196, Note_on_c, 0, 64, 72
2, 90292, Note_on_c, 0, 64, 0
2, 90317, Note_on_c, 0, 57, 44
2, 90384, Note_on_c, 0, 57, 0
2, 90393, Note_on_c, 0, 61, 29
2, 90464, Note_on_c, 0, 61, 0
2, 90496, Control_c, 0, 64, 127
2, 90497, Note_on_c, 0, 64, 72
2, 90549, Control_c, 0, 64, 0
2, 90576, Note_off_c, 0, 64, 0
2, 90593, Note_on_c, 0, 60, 49
2, 90684, Note_on_c, 0, 60, 0
2, 90764, Note_on_c, 0, 60, 55
2, 90849, Note_on_c, 0, 60, 0
2, 90963, Note_on_c, 0, 60, 60
2, 91049, Note_on_c, 0, 60, 0
2, 91101, Note_on_c, 0, 59, 40
2, 91208, Note_on_c, 0, 59, 0
2, 91275, Note_on_c, 0, 57, 45
2, 91518, Control_c, 0, 64, 127
2, 91819, Note_off_c, 0, 57, 0
2, 92105, Note_on_c, 0, 59, 38
2, 92109, Note_on_c, 0, 57, 40
2, 92113, Note_on_c, 0, 50, 37
2, 92113, Note_on_c, 0, 53, 41
2, 92131, Control_c, 0, 64, 0
2, 92295, Control_c, 0, 64, 127
2, 92420, Note_on_c, 0, 71, 92
2, 92468, Note_on_c, 0, 71, 0
2, 92513, Note_on_c, 0, 71, 82
2, 92592, Control_c, 0, 64, 0
2, 92609, Note_on_c, 0, 69, 70
2, 92619, Note_on_c, 0, 71, 0
2, 92679, Note_on_c, 0, 69, 0
2, 92697, Note_on_c, 0, 65, 59
2, 92724, Note_on_c, 0, 65, 0
2, 92796, Note_on_c, 0, 71, 85
2, 92852, Note_on_c, 0, 71, 0
2, 92891, Note_on_c, 0, 71, 82
2, 92978, Note_on_c, 0, 69, 62
2, 92983, Note_on_c, 0, 71, 0
2, 93055, Note_on_c, 0, 69, 0
2, 93066, Note_on_c, 0, 59, 0
2, 93067, Note_on_c, 0, 65, 56
2, 93118, Note_on_c, 0, 65, 0
2, 93142, Note_on_c, 0, 57, 0
2, 93175, Note_on_c, 0, 71, 87
2, 93193, Note_on_c, 0, 59, 49
2, 93216, Note_on_c, 0, 57, 38
2, 93218, Note_on_c, 0, 59, 0
2, 93235, Note_on_c, 0, 71, 0
2, 93259, Note_on_c, 0, 57, 0
2, 93277, Note_on_c, 0, 71, 79
2, 93314, Note_on_c, 0, 53, 0
2, 93339, Note_on_c, 0, 50, 0
2, 93355, Note_on_c, 0, 69, 55
2, 93371, Note_on_c, 0, 71, 0
2, 93448, Note_on_c, 0, 69, 0
2, 93463, Note_on_c, 0, 65, 48
2, 93479, Control_c, 0, 64, 127
2, 93529, Note_off_c, 0, 65, 0
2, 93568, Note_on_c, 0, 70, 84
2, 93606, Note_on_c, 0, 62, 46
2, 93609, Note_on_c, 0, 53, 28
2, 93612, Note_on_c, 0, 58, 42
2, 93618, Note_on_c, 0, 57, 26
2, 93625, Control_c, 0, 64, 0
2, 93626, Note_off_c, 0, 70, 0
2, 93666, Note_on_c, 0, 70, 63
2, 93746, Note_on_c, 0, 70, 0
2, 93760, Note_on_c, 0, 69, 51
2, 93800, Note_on_c, 0, 62, 0
2, 93822, Note_on_c, 0, 69, 0
2, 93837, Note_on_c, 0, 65, 49
2, 93845, Note_on_c, 0, 58, 0
2, 93883, Note_on_c, 0, 57, 0
2, 93900, Control_c, 0, 64, 127
2, 93909, Note_off_c, 0, 65, 0
2, 93942, Note_on_c, 0, 62, 53
2, 93970, Control_c, 0, 64, 0
2, 93978, Note_off_c, 0, 62, 0
2, 94030, Note_on_c, 0, 62, 50
2, 94109, Control_c, 0, 64, 127
2, 94141, Note_off_c, 0, 53, 0
2, 94145, Note_off_c, 0, 62, 0
2, 94175, Control_c, 0, 64, 0
2, 94210, Control_c, 0, 64, 127
2, 94221, Note_on_c, 0, 62, 51
2, 94332, Control_c, 0, 64, 0
2, 94338, Note_off_c, 0, 62, 0
2, 94402, Note_on_c, 0, 62, 44
2, 94419, Control_c, 0, 64, 127
2, 94587, Note_off_c, 0, 62, 0
2, 94888, Note_on_c, 0, 53, 83
2, 94937, Note_on_c, 0, 53, 0
2, 94956, Control_c, 0, 64, 0
2, 94990, Note_on_c, 0, 55, 66
2, 95041, Note_on_c, 0, 55, 0
2, 95071, Note_on_c, 0, 57, 80
2, 95130, Note_on_c, 0, 57, 0
2, 95166, Note_on_c, 0, 60, 80
2, 95185, Control_c, 0, 64, 127
2, 95226, Control_c, 0, 64, 0
2, 95259, Note_off_c, 0, 60, 0
2, 95266, Note_on_c, 0, 48, 33
2, 95270, Note_on_c, 0, 57, 70
2, 95300, Note_on_c, 0, 48, 0
2, 95313, Control_c, 0, 64, 127
2, 95354, Note_off_c, 0, 57, 0
2, 95379, Note_on_c, 0, 58, 43
2, 95434, Note_on_c, 0, 58, 0
2, 95470, Note_on_c, 0, 62, 67
2, 95547, Note_on_c, 0, 62, 0
2, 95573, Note_on_c, 0, 65, 63
2, 95629, Control_c, 0, 64, 0
2, 95663, Note_on_c, 0, 69, 66
2, 95666, Note_on_c, 0, 65, 0
2, 95668, Control_c, 0, 64, 127
2, 95732, Note_off_c, 0, 69, 0
2, 95739, Control_c, 0, 64, 0
2, 95758, Note_on_c, 0, 70, 71
2, 95794, Note_on_c, 0, 70, 0
2, 95848, Note_on_c, 0, 74, 79
2, 95928, Note_on_c, 0, 74, 0
2, 95942, Note_on_c, 0, 77, 65
2, 95949, Control_c, 0, 64, 127
2, 96007, Note_off_c, 0, 77, 0
2, 96049, Note_on_c, 0, 81, 76
2, 96104, Note_on_c, 0, 81, 0
2, 96113, Control_c, 0, 64, 0
2, 96134, Note_on_c, 0, 58, 57
2, 96136, Note_on_c, 0, 82, 83
2, 96136, Note_on_c, 0, 62, 58
2, 96137, Note_on_c, 0, 57, 54
2, 96226, Note_on_c, 0, 82, 0
2, 96244, Note_on_c, 0, 84, 83
2, 96310, Note_on_c, 0, 84, 0
2, 96338, Note_on_c, 0, 82, 69
2, 96345, Note_on_c, 0, 58, 0
2, 96361, Note_on_c, 0, 57, 0
2, 96362, Note_on_c, 0, 62, 0
2, 96369, Control_c, 0, 64, 127
2, 96393, Note_off_c, 0, 82, 0
2, 96410, Control_c, 0, 64, 0
2, 96430, Note_on_c, 0, 81, 74
2, 96444, Note_on_c, 0, 62, 36
2, 96445, Note_on_c, 0, 58, 48
2, 96446, Note_on_c, 0, 57, 42
2, 96496, Note_on_c, 0, 81, 0
2, 96516, Note_on_c, 0, 77, 51
2, 96526, Control_c, 0, 64, 127
2, 96532, Note_off_c, 0, 57, 0
2, 96555, Note_off_c, 0, 58, 0
2, 96592, Note_off_c, 0, 62, 0
2, 96606, Note_off_c, 0, 77, 0
2, 96633, Note_on_c, 0, 74, 50
2, 96663, Note_on_c, 0, 74, 0
2, 96697, Note_on_c, 0, 64, 44
2, 96701, Note_on_c, 0, 57, 34
2, 96702, Note_on_c, 0, 60, 34
2, 96711, Note_on_c, 0, 53, 41
2, 96714, Note_on_c, 0, 79, 76
2, 96737, Control_c, 0, 64, 0
2, 96789, Note_off_c, 0, 79, 0
2, 96827, Note_off_c, 0, 64, 0
2, 96828, Note_off_c, 0, 60, 0
2, 96831, Note_off_c, 0, 57, 0
2, 96843, Note_off_c, 0, 53, 0
2, 96906, Note_on_c, 0, 53, 48
2, 96909, Note_on_c, 0, 79, 95
2, 96912, Note_on_c, 0, 57, 50
2, 96913, Note_on_c, 0, 60, 48
2, 96914, Note_on_c, 0, 64, 54
2, 97009, Note_on_c, 0, 78, 51
2, 97032, Note_on_c, 0, 79, 0
2, 97047, Note_on_c, 0, 78, 0
2, 97053, Note_on_c, 0, 77, 64
2, 97075, Note_on_c, 0, 64, 0
2, 97094, Note_on_c, 0, 60, 0
2, 97094, Note_on_c, 0, 57, 0
2, 97131, Note_on_c, 0, 53, 0
2, 97137, Note_on_c, 0, 77, 0
2, 97140, Note_on_c, 0, 76, 63
2, 97181, Note_on_c, 0, 76, 0
2, 97272, Note_on_c, 0, 72, 68
2, 97274, Note_on_c, 0, 64, 42
2, 97285, Note_on_c, 0, 60, 31
2, 97289, Note_on_c, 0, 57, 39
2, 97297, Note_on_c, 0, 72, 0
2, 97312, Note_on_c, 0, 60, 0
2, 97319, Note_on_c, 0, 64, 0
2, 97319, Note_on_c, 0, 57, 0
2, 97429, Note_on_c, 0, 64, 44
2, 97432, Note_on_c, 0, 72, 41
2, 97440, Note_on_c, 0, 57, 36
2, 97441, Note_on_c, 0, 60, 30
2, 97449, Note_on_c, 0, 53, 24
2, 97469, Note_on_c, 0, 60, 0
2, 97472, Note_on_c, 0, 72, 0
2, 97475, Note_on_c, 0, 64, 0
2, 97477, Note_on_c, 0, 57, 0
2, 97482, Note_on_c, 0, 53, 0
2, 97528, Note_on_c, 0, 72, 65
2, 97545, Note_on_c, 0, 64, 37
2, 97550, Note_on_c, 0, 60, 37
2, 97550, Note_on_c, 0, 57, 36
2, 97560, Note_on_c, 0, 53, 28
2, 97636, Note_on_c, 0, 72, 0
2, 97647, Note_on_c, 0, 64, 0
2, 97663, Note_on_c, 0, 69, 57
2, 97672, Control_c, 0, 64, 127
2, 97683, Control_c, 0, 64, 0
2, 97684, Note_off_c, 0, 60, 0
2, 97709, Note_off_c, 0, 57, 0
2, 97718, Note_off_c, 0, 69, 0
2, 97739, Note_off_c, 0, 53, 0
2, 97793, Note_on_c, 0, 69, 54
2, 97823, Note_on_c, 0, 57, 26
2, 97824, Note_on_c, 0, 60, 24
2, 97843, Note_on_c, 0, 69, 0
2, 97849, Note_on_c, 0, 60, 0
2, 97856, Note_on_c, 0, 57, 0
2, 97889, Note_on_c, 0, 69, 64
2, 97913, Note_on_c, 0, 60, 30
2, 97917, Note_on_c, 0, 57, 41
2, 97918, Note_on_c, 0, 64, 19
2, 97926, Note_on_c, 0, 53, 14
2, 97944, Note_on_c, 0, 64, 0
2, 97955, Note_on_c, 0, 60, 0
2, 97963, Note_on_c, 0, 69, 0
2, 97984, Note_on_c, 0, 57, 0
2, 98023, Note_on_c, 0, 64, 65
2, 98033, Control_c, 0, 64, 127
2, 98036, Note_off_c, 0, 53, 0
2, 98070, Note_off_c, 0, 64, 0
2, 98203, Control_c, 0, 64, 0
2, 98244, Note_on_c, 0, 58, 39
2, 98244, Note_on_c, 0, 52, 51
2, 98246, Note_on_c, 0, 62, 40
2, 98284, Note_on_c, 0, 62, 0
2, 98293, Note_on_c, 0, 52, 0
2, 98297, Note_on_c, 0, 58, 0
2, 98535, Note_on_c, 0, 62, 58
2, 98536, Note_on_c, 0, 58, 49
2, 98542, Note_on_c, 0, 52, 54
2, 98774, Note_on_c, 0, 62, 0
2, 98778, Note_on_c, 0, 52, 0
2, 98791, Note_on_c, 0, 58, 0
2, 98827, Note_on_c, 0, 82, 45
2, 98832, Note_on_c, 0, 83, 80
2, 98911, Note_on_c, 0, 83, 0
2, 98933, Note_on_c, 0, 81, 59
2, 98953, Note_on_c, 0, 82, 0
2, 98973, Note_on_c, 0, 80, 57
2, 98985, Note_on_c, 0, 81, 0
2, 99036, Note_on_c, 0, 79, 56
2, 99059, Note_on_c, 0, 80, 0
2, 99089, Note_on_c, 0, 79, 0
2, 99130, Note_on_c, 0, 66, 58
2, 99142, Note_on_c, 0, 61, 52
2, 99143, Note_on_c, 0, 55, 42
2, 99143, Note_on_c, 0, 77, 79
2, 99179, Note_on_c, 0, 55, 0
2, 99185, Note_on_c, 0, 66, 0
2, 99202, Note_on_c, 0, 77, 0
2, 99245, Note_on_c, 0, 61, 0
2, 99299, Note_on_c, 0, 73, 77
2, 99315, Note_on_c, 0, 61, 25
2, 99359, Note_on_c, 0, 73, 0
2, 99398, Note_on_c, 0, 61, 0
2, 99399, Note_on_c, 0, 72, 54
2, 99467, Note_on_c, 0, 72, 0
2, 99501, Note_on_c, 0, 70, 65
2, 99502, Note_on_c, 0, 61, 51
2, 99505, Note_on_c, 0, 66, 42
2, 99511, Note_on_c, 0, 55, 44
2, 99525, Note_on_c, 0, 66, 0
2, 99558, Note_on_c, 0, 55, 0
2, 99564, Note_on_c, 0, 70, 0
2, 99570, Note_on_c, 0, 61, 0
2, 99596, Note_on_c, 0, 69, 31
2, 99656, Note_on_c, 0, 69, 0
2, 99692, Note_on_c, 0, 68, 59
2, 99744, Note_on_c, 0, 68, 0
2, 99772, Note_on_c, 0, 57, 34
2, 99783, Note_on_c, 0, 50, 37
2, 99787, Note_on_c, 0, 53, 36
2, 99787, Note_on_c, 0, 69, 74
2, 99845, Note_on_c, 0, 69, 0
2, 99908, Note_on_c, 0, 66, 36
2, 99930, Note_on_c, 0, 66, 0
2, 99979, Note_on_c, 0, 67, 65
2, 100055, Note_on_c, 0, 67, 0
2, 100108, Note_on_c, 0, 64, 36
2, 100136, Note_on_c, 0, 64, 0
2, 100189, Note_on_c, 0, 65, 58
2, 100257, Note_on_c, 0, 65, 0
2, 100314, Note_on_c, 0, 61, 35
2, 100334, Note_on_c, 0, 61, 0
2, 100375, Note_on_c, 0, 64, 67
2, 100405, Note_on_c, 0, 57, 0
2, 100472, Note_on_c, 0, 53, 0
2, 100480, Note_on_c, 0, 64, 0
2, 100486, Note_on_c, 0, 61, 49
2, 100504, Note_on_c, 0, 50, 0
2, 100538, Note_on_c, 0, 61, 0
2, 100564, Note_on_c, 0, 62, 63
2, 100638, Note_on_c, 0, 62, 0
2, 100673, Note_on_c, 0, 57, 54
2, 100752, Note_on_c, 0, 57, 0
2, 100817, Note_on_c, 0, 57, 56
2, 100875, Note_on_c, 0, 57, 0
2, 100901, Control_c, 0, 64, 127
2, 100938, Note_on_c, 0, 57, 53
2, 100949, Note_on_c, 0, 53, 32
2, 100960, Note_on_c, 0, 50, 34
2, 101073, Note_on_c, 0, 50, 0
2, 101082, Note_on_c, 0, 53, 0
2, 101179, Note_on_c, 0, 57, 0
2, 101334, Note_on_c, 0, 61, 35
2, 101337, Note_on_c, 0, 57, 46
2, 101356, Control_c, 0, 64, 0
2, 101385, Note_on_c, 0, 50, 16
2, 101446, Note_on_c, 0, 64, 57
2, 101473, Note_on_c, 0, 64, 0
2, 101480, Note_on_c, 0, 61, 0
2, 101538, Note_on_c, 0, 69, 68
2, 101545, Note_on_c, 0, 50, 0
2, 101617, Note_on_c, 0, 69, 0
2, 101621, Note_on_c, 0, 73, 80
2, 101638, Control_c, 0, 64, 127
2, 101662, Note_off_c, 0, 57, 0
2, 101666, Note_off_c, 0, 73, 0
2, 101672, Control_c, 0, 64, 0
2, 101709, Note_on_c, 0, 76, 89
2, 101724, Control_c, 0, 64, 127
2, 101816, Note_on_c, 0, 81, 53
2, 101817, Note_on_c, 0, 80, 34
2, 101820, Note_on_c, 0, 79, 60
2, 101821, Note_on_c, 0, 76, 0
2, 101839, Note_on_c, 0, 79, 0
2, 101860, Note_on_c, 0, 81, 0
2, 101881, Note_on_c, 0, 80, 0
2, 101901, Note_on_c, 0, 85, 77
2, 101964, Note_on_c, 0, 85, 0
2, 101996, Note_on_c, 0, 76, 85
2, 101996, Note_on_c, 0, 88, 95
2, 101999, Control_c, 0, 64, 0
2, 102007, Note_on_c, 0, 61, 36
2, 102010, Note_on_c, 0, 57, 46
2, 102092, Note_on_c, 0, 85, 67
2, 102094, Note_on_c, 0, 88, 0
2, 102097, Note_on_c, 0, 61, 0
2, 102106, Note_on_c, 0, 57, 0
2, 102108, Note_on_c, 0, 76, 0
2, 102155, Note_on_c, 0, 85, 0
2, 102203, Note_on_c, 0, 81, 66
2, 102213, Note_on_c, 0, 57, 32
2, 102253, Note_on_c, 0, 81, 0
2, 102285, Note_on_c, 0, 76, 36
2, 102295, Note_on_c, 0, 57, 0
2, 102296, Control_c, 0, 64, 127
2, 102317, Note_off_c, 0, 76, 0
2, 102382, Note_on_c, 0, 57, 45
2, 102413, Control_c, 0, 64, 0
2, 102477, Note_on_c, 0, 85, 91
2, 102492, Note_on_c, 0, 57, 0
2, 102581, Note_on_c, 0, 61, 30
2, 102581, Note_on_c, 0, 81, 76
2, 102591, Note_on_c, 0, 57, 32
2, 102600, Note_on_c, 0, 85, 0
2, 102623, Control_c, 0, 64, 127
2, 102627, Note_off_c, 0, 61, 0
2, 102631, Note_off_c, 0, 81, 0
2, 102672, Note_on_c, 0, 76, 38
2, 102701, Note_on_c, 0, 57, 0
2, 102789, Note_on_c, 0, 74, 44
2, 102794, Note_on_c, 0, 76, 0
2, 102812, Note_on_c, 0, 74, 0
2, 102833, Note_on_c, 0, 57, 35
2, 102834, Note_on_c, 0, 60, 42
2, 102847, Note_on_c, 0, 53, 38
2, 102849, Note_on_c, 0, 79, 70
2, 102857, Note_on_c, 0, 50, 36
2, 102892, Control_c, 0, 64, 0
2, 102952, Note_off_c, 0, 79, 0
2, 102996, Note_off_c, 0, 60, 0
2, 103003, Note_off_c, 0, 57, 0
2, 103045, Note_on_c, 0, 79, 85
2, 103060, Note_on_c, 0, 60, 37
2, 103066, Note_on_c, 0, 57, 48
2, 103265, Control_c, 0, 64, 127
2, 103266, Note_off_c, 0, 57, 0
2, 103267, Note_off_c, 0, 60, 0
2, 103330, Control_c, 0, 64, 0
2, 103337, Note_on_c, 0, 77, 81
2, 103369, Note_on_c, 0, 79, 0
2, 103370, Note_on_c, 0, 57, 30
2, 103370, Note_on_c, 0, 60, 22
2, 103421, Note_on_c, 0, 77, 0
2, 103435, Control_c, 0, 64, 127
2, 103440, Note_on_c, 0, 76, 50
2, 103464, Note_on_c, 0, 60, 0
2, 103469, Note_on_c, 0, 57, 0
2, 103532, Note_on_c, 0, 53, 0
2, 103535, Note_on_c, 0, 76, 0
2, 103554, Note_on_c, 0, 50, 0
2, 103715, Control_c, 0, 64, 0
2, 103731, Note_on_c, 0, 77, 87
2, 103743, Note_on_c, 0, 60, 38
2, 103752, Note_on_c, 0, 57, 36
2, 103763, Note_on_c, 0, 53, 35
2, 103767, Note_on_c, 0, 50, 24
2, 103820, Note_on_c, 0, 76, 59
2, 103835, Note_on_c, 0, 60, 0
2, 103837, Note_on_c, 0, 57, 0
2, 103841, Note_on_c, 0, 77, 0
2, 103855, Note_on_c, 0, 53, 0
2, 103897, Note_on_c, 0, 76, 0
2, 103930, Note_on_c, 0, 57, 26
2, 103932, Note_on_c, 0, 72, 48
2, 103960, Note_on_c, 0, 72, 0
2, 103977, Note_on_c, 0, 57, 0
2, 104003, Note_on_c, 0, 76, 80
2, 104107, Note_on_c, 0, 74, 58
2, 104111, Note_on_c, 0, 76, 0
2, 104170, Note_on_c, 0, 74, 0
2, 104296, Note_on_c, 0, 74, 80
2, 104308, Note_on_c, 0, 60, 29
2, 104335, Note_on_c, 0, 60, 0
2, 104354, Note_on_c, 0, 50, 0
2, 104397, Note_on_c, 0, 74, 0
2, 104398, Note_on_c, 0, 72, 61
2, 104462, Control_c, 0, 64, 127
2, 104463, Note_off_c, 0, 72, 0
2, 104497, Control_c, 0, 64, 0
2, 104593, Note_on_c, 0, 72, 71
2, 104691, Note_on_c, 0, 72, 0
2, 104698, Note_on_c, 0, 69, 55
2, 104784, Note_on_c, 0, 69, 0
2, 104908, Note_on_c, 0, 71, 63
2, 104975, Note_on_c, 0, 71, 0
2, 105149, Note_on_c, 0, 60, 43
2, 105161, Note_on_c, 0, 57, 39
2, 105193, Note_on_c, 0, 57, 0
2, 105196, Note_on_c, 0, 60, 0
2, 105359, Note_on_c, 0, 71, 105
2, 105458, Note_on_c, 0, 69, 67
2, 105459, Note_on_c, 0, 60, 24
2, 105461, Note_on_c, 0, 57, 37
2, 105479, Note_on_c, 0, 60, 0
2, 105494, Note_on_c, 0, 71, 0
2, 105520, Note_on_c, 0, 57, 0
2, 105546, Note_on_c, 0, 69, 0
2, 105553, Note_on_c, 0, 65, 44
2, 105565, Control_c, 0, 64, 127
2, 105633, Note_off_c, 0, 65, 0
2, 105674, Note_on_c, 0, 69, 82
2, 105687, Note_on_c, 0, 71, 34
2, 105706, Note_on_c, 0, 71, 0
2, 105717, Control_c, 0, 64, 0
2, 105762, Note_on_c, 0, 65, 54
2, 105807, Note_on_c, 0, 69, 0
2, 105847, Note_on_c, 0, 65, 0
2, 105851, Note_on_c, 0, 62, 53
2, 105924, Note_on_c, 0, 58, 29
2, 105930, Note_on_c, 0, 53, 22
2, 105948, Note_on_c, 0, 62, 0
2, 105950, Note_on_c, 0, 53, 0
2, 106006, Note_on_c, 0, 58, 0
2, 106030, Note_on_c, 0, 57, 31
2, 106099, Note_on_c, 0, 57, 0
2, 106146, Note_on_c, 0, 55, 20
2, 106203, Note_on_c, 0, 55, 0
2, 106203, Control_c, 0, 64, 127
2, 106275, Note_on_c, 0, 46, 28
2, 106296, Note_on_c, 0, 46, 0
2, 106326, Note_on_c, 0, 57, 80
2, 106337, Control_c, 0, 64, 0
2, 106424, Note_off_c, 0, 57, 0
2, 106433, Note_on_c, 0, 53, 48
2, 106463, Note_on_c, 0, 53, 0
2, 106533, Note_on_c, 0, 55, 24
2, 106570, Note_on_c, 0, 55, 0
2, 106607, Note_on_c, 0, 57, 61
2, 106638, Note_on_c, 0, 54, 32
2, 106664, Note_on_c, 0, 54, 0
2, 106674, Note_on_c, 0, 57, 0
2, 106700, Note_on_c, 0, 60, 81
2, 106790, Note_on_c, 0, 60, 0
2, 106804, Note_on_c, 0, 57, 61
2, 106879, Note_on_c, 0, 57, 0
2, 106892, Note_on_c, 0, 58, 36
2, 106963, Note_on_c, 0, 58, 0
2, 107003, Note_on_c, 0, 60, 35
2, 107007, Note_on_c, 0, 46, 33
2, 107017, Note_on_c, 0, 62, 30
2, 107023, Note_on_c, 0, 53, 40
2, 107047, Note_on_c, 0, 46, 0
2, 107054, Note_on_c, 0, 53, 0
2, 107059, Note_on_c, 0, 60, 0
2, 107060, Control_c, 0, 64, 127
2, 107066, Note_off_c, 0, 62, 0
2, 107086, Note_on_c, 0, 64, 46
2, 107138, Note_on_c, 0, 64, 0
2, 107159, Control_c, 0, 64, 0
2, 107192, Note_on_c, 0, 67, 44
2, 107224, Control_c, 0, 64, 127
2, 107256, Note_off_c, 0, 67, 0
2, 107286, Note_on_c, 0, 69, 58
2, 107346, Note_on_c, 0, 69, 0
2, 107380, Note_on_c, 0, 70, 76
2, 107387, Control_c, 0, 64, 0
2, 107442, Note_off_c, 0, 70, 0
2, 107443, Note_on_c, 0, 61, 50
2, 107448, Note_on_c, 0, 66, 42
2, 107454, Note_on_c, 0, 55, 47
2, 107475, Note_on_c, 0, 72, 66
2, 107561, Note_on_c, 0, 72, 0
2, 107572, Note_on_c, 0, 73, 64
2, 107585, Control_c, 0, 64, 127
2, 107638, Note_off_c, 0, 73, 0
2, 107645, Note_on_c, 0, 75, 57
2, 107669, Note_on_c, 0, 75, 0
2, 107690, Note_on_c, 0, 76, 63
2, 107710, Note_on_c, 0, 66, 0
2, 107736, Note_on_c, 0, 55, 0
2, 107739, Note_on_c, 0, 76, 0
2, 107760, Note_on_c, 0, 78, 57
2, 107773, Control_c, 0, 64, 0
2, 107780, Note_off_c, 0, 78, 0
2, 107814, Note_on_c, 0, 79, 70
2, 107891, Note_on_c, 0, 81, 65
2, 107892, Note_on_c, 0, 79, 0
2, 107916, Note_on_c, 0, 61, 0
2, 107967, Note_on_c, 0, 81, 0
2, 107993, Note_on_c, 0, 82, 75
2, 108038, Note_on_c, 0, 82, 0
2, 108078, Note_on_c, 0, 84, 75
2, 108087, Note_on_c, 0, 66, 40
2, 108094, Note_on_c, 0, 61, 34
2, 108123, Note_on_c, 0, 66, 0
2, 108139, Note_on_c, 0, 84, 0
2, 108159, Note_on_c, 0, 85, 70
2, 108167, Note_on_c, 0, 61, 0
2, 108221, Note_on_c, 0, 85, 0
2, 108236, Note_on_c, 0, 87, 71
2, 108279, Note_on_c, 0, 87, 0
2, 108306, Note_on_c, 0, 88, 74
2, 108346, Note_on_c, 0, 66, 46
2, 108351, Note_on_c, 0, 61, 37
2, 108370, Note_on_c, 0, 88, 0
2, 108388, Note_on_c, 0, 55, 24
2, 108390, Note_on_c, 0, 90, 63
2, 108432, Note_on_c, 0, 90, 0
2, 108461, Note_on_c, 0, 91, 68
2, 108535, Note_on_c, 0, 66, 0
2, 108553, Note_on_c, 0, 91, 0
2, 108553, Note_on_c, 0, 93, 62
2, 108585, Note_on_c, 0, 61, 0
2, 108614, Note_on_c, 0, 93, 0
2, 108616, Note_on_c, 0, 66, 49
2, 108620, Note_on_c, 0, 94, 70
2, 108623, Note_on_c, 0, 61, 39
2, 108658, Note_on_c, 0, 94, 0
2, 108694, Note_on_c, 0, 66, 0
2, 108701, Note_on_c, 0, 96, 51
2, 108748, Note_on_c, 0, 96, 0
2, 108749, Note_on_c, 0, 97, 53
2, 108787, Note_on_c, 0, 55, 0
2, 108819, Note_on_c, 0, 99, 42
2, 108832, Note_on_c, 0, 97, 0
2, 108872, Note_on_c, 0, 99, 0
2, 108883, Note_on_c, 0, 61, 0
2, 108890, Note_on_c, 0, 100, 50
2, 108947, Note_on_c, 0, 100, 0
2, 108960, Note_on_c, 0, 103, 81
2, 109017, Note_on_c, 0, 48, 26
2, 109021, Note_on_c, 0, 57, 42
2, 109030, Note_on_c, 0, 101, 68
2, 109061, Note_on_c, 0, 103, 0
2, 109335, Note_on_c, 0, 57, 0
2, 109366, Note_on_c, 0, 101, 0
2, 109388, Note_on_c, 0, 100, 88
2, 109393, Note_on_c, 0, 57, 51
2, 109498, Note_on_c, 0, 96, 57
2, 109520, Note_on_c, 0, 100, 0
2, 109558, Note_on_c, 0, 57, 0
2, 109570, Note_on_c, 0, 96, 0
2, 109664, Note_on_c, 0, 93, 45
2, 109673, Note_on_c, 0, 57, 50
2, 109704, Note_on_c, 0, 93, 0
2, 109794, Note_on_c, 0, 57, 0
2, 109848, Note_on_c, 0, 48, 0
2, 109952, Note_on_c, 0, 57, 40
2, 109955, Note_on_c, 0, 48, 37
2, 110008, Note_on_c, 0, 57, 0
2, 110024, Note_on_c, 0, 48, 0
2, 110250, Note_on_c, 0, 48, 57
2, 110256, Note_on_c, 0, 57, 55
2, 110270, Note_on_c, 0, 48, 0
2, 110298, Note_on_c, 0, 57, 0
2, 110382, Control_c, 0, 64, 127
2, 110516, Control_c, 0, 64, 0
2, 110533, Note_on_c, 0, 74, 96
2, 110535, Note_on_c, 0, 67, 85
2, 110535, Note_on_c, 0, 63, 86
2, 110536, Note_on_c, 0, 62, 81
2, 110538, Note_on_c, 0, 70, 73
2, 110705, Control_c, 0, 64, 127
2, 110790, Note_off_c, 0, 74, 0
2, 110791, Note_off_c, 0, 70, 0
2, 110803, Control_c, 0, 64, 0
2, 110827, Note_on_c, 0, 72, 74
2, 110835, Note_on_c, 0, 70, 54
2, 110854, Note_on_c, 0, 60, 60
2, 110863, Note_on_c, 0, 62, 0
2, 110898, Control_c, 0, 64, 127
2, 110919, Note_off_c, 0, 67, 0
2, 110921, Note_off_c, 0, 60, 0
2, 110929, Note_off_c, 0, 63, 0
2, 110956, Note_off_c, 0, 70, 0
2, 110957, Note_off_c, 0, 72, 0
2, 111269, Note_on_c, 0, 63, 57
2, 111277, Note_on_c, 0, 67, 61
2, 111290, Note_on_c, 0, 57, 44
2, 111300, Control_c, 0, 64, 0
2, 111463, Note_off_c, 0, 67, 0
2, 111468, Control_c, 0, 64, 127
2, 111482, Note_on_c, 0, 78, 83
2, 111528, Control_c, 0, 64, 0
2, 111551, Control_c, 0, 64, 127
2, 111579, Note_off_c, 0, 78, 0
2, 111580, Note_on_c, 0, 69, 60
2, 111592, Note_on_c, 0, 63, 0
2, 111618, Note_on_c, 0, 69, 0
2, 111681, Note_on_c, 0, 74, 74
2, 111696, Note_on_c, 0, 57, 0
2, 111755, Note_on_c, 0, 74, 0
2, 111760, Note_on_c, 0, 63, 50
2, 111764, Note_on_c, 0, 57, 24
2, 111766, Note_on_c, 0, 67, 47
2, 111774, Note_on_c, 0, 78, 65
2, 111791, Note_on_c, 0, 67, 0
2, 111809, Note_on_c, 0, 78, 0
2, 111828, Note_on_c, 0, 63, 0
2, 111846, Note_on_c, 0, 57, 0
2, 111862, Note_on_c, 0, 81, 74
2, 111917, Note_on_c, 0, 81, 0
2, 111985, Note_on_c, 0, 88, 54
2, 111986, Note_on_c, 0, 86, 56
2, 112018, Control_c, 0, 64, 0
2, 112031, Note_off_c, 0, 88, 0
2, 112035, Note_off_c, 0, 86, 0
2, 112037, Note_on_c, 0, 65, 41
2, 112038, Note_on_c, 0, 61, 47
2, 112049, Note_on_c, 0, 56, 39
2, 112057, Note_on_c, 0, 60, 19
2, 112070, Note_on_c, 0, 90, 83
2, 112179, Note_on_c, 0, 90, 0
2, 112239, Note_on_c, 0, 60, 0
2, 112241, Note_on_c, 0, 65, 0
2, 112278, Note_on_c, 0, 89, 90
2, 112285, Note_on_c, 0, 65, 62
2, 112297, Note_on_c, 0, 60, 38
2, 112475, Note_on_c, 0, 65, 0
2, 112491, Note_on_c, 0, 60, 0
2, 112498, Note_on_c, 0, 61, 0
2, 112501, Note_on_c, 0, 89, 0
2, 112516, Note_on_c, 0, 56, 0
2, 112538, Note_on_c, 0, 87, 91
2, 112545, Note_on_c, 0, 61, 62
2, 112545, Note_on_c, 0, 65, 54
2, 112550, Note_on_c, 0, 56, 31
2, 112558, Note_on_c, 0, 60, 44
2, 112762, Note_on_c, 0, 65, 0
2, 112771, Note_on_c, 0, 56, 0
2, 112771, Note_on_c, 0, 87, 0
2, 112778, Note_on_c, 0, 60, 0
2, 112782, Note_on_c, 0, 61, 0
2, 112827, Note_on_c, 0, 61, 50
2, 112831, Note_on_c, 0, 65, 39
2, 112832, Note_on_c, 0, 85, 85
2, 112848, Note_on_c, 0, 56, 29
2, 112884, Note_on_c, 0, 85, 0
2, 112920, Note_on_c, 0, 87, 67
2, 112940, Note_on_c, 0, 65, 0
2, 112971, Note_on_c, 0, 85, 49
2, 113011, Note_on_c, 0, 56, 0
2, 113019, Note_on_c, 0, 87, 0
2, 113036, Note_on_c, 0, 85, 0
2, 113040, Note_on_c, 0, 84, 62
2, 113095, Note_on_c, 0, 84, 0
2, 113116, Note_on_c, 0, 61, 0
2, 113145, Note_on_c, 0, 82, 73
2, 113149, Note_on_c, 0, 61, 35
2, 113166, Note_on_c, 0, 65, 47
2, 113175, Note_on_c, 0, 56, 26
2, 113203, Note_on_c, 0, 65, 0
2, 113208, Note_on_c, 0, 82, 0
2, 113245, Note_on_c, 0, 80, 74
2, 113310, Note_on_c, 0, 80, 0
2, 113392, Note_on_c, 0, 79, 57
2, 113451, Note_on_c, 0, 79, 0
2, 113458, Note_on_c, 0, 56, 0
2, 113474, Note_on_c, 0, 61, 0
2, 113519, Note_on_c, 0, 81, 80
2, 113529, Note_on_c, 0, 61, 50
2, 113530, Note_on_c, 0, 66, 54
2, 113540, Note_on_c, 0, 55, 47
2, 113625, Note_on_c, 0, 81, 0
2, 113633, Note_on_c, 0, 66, 0
2, 113673, Note_on_c, 0, 82, 43
2, 113700, Note_on_c, 0, 81, 66
2, 113739, Note_on_c, 0, 82, 0
2, 113768, Note_on_c, 0, 79, 54
2, 113787, Note_on_c, 0, 81, 0
2, 113813, Note_on_c, 0, 55, 0
2, 113827, Note_on_c, 0, 79, 0
2, 113861, Note_on_c, 0, 61, 0
2, 113881, Note_on_c, 0, 78, 85
2, 113900, Note_on_c, 0, 61, 36
2, 113972, Note_on_c, 0, 79, 30
2, 113975, Note_on_c, 0, 78, 0
2, 114037, Note_on_c, 0, 78, 49
2, 114042, Note_on_c, 0, 61, 0
2, 114054, Note_on_c, 0, 79, 0
2, 114103, Note_on_c, 0, 78, 0
2, 114119, Note_on_c, 0, 76, 35
2, 114135, Note_on_c, 0, 61, 46
2, 114148, Note_on_c, 0, 76, 0
2, 114178, Note_on_c, 0, 75, 79
2, 114214, Note_on_c, 0, 61, 0
2, 114385, Note_on_c, 0, 75, 0
2, 114485, Note_on_c, 0, 73, 94
2, 114489, Note_on_c, 0, 61, 55
2, 114491, Note_on_c, 0, 66, 55
2, 114510, Note_on_c, 0, 55, 45
2, 114517, Note_on_c, 0, 66, 0
2, 114537, Note_on_c, 0, 55, 0
2, 114553, Note_on_c, 0, 73, 0
2, 114587, Note_on_c, 0, 72, 53
2, 114597, Note_on_c, 0, 61, 0
2, 114636, Note_on_c, 0, 72, 0
2, 114672, Note_on_c, 0, 70, 78
2, 114681, Note_on_c, 0, 61, 60
2, 114701, Note_on_c, 0, 55, 53
2, 114757, Note_on_c, 0, 55, 0
2, 114769, Note_on_c, 0, 70, 0
2, 114785, Note_on_c, 0, 69, 48
2, 114851, Note_on_c, 0, 69, 0
2, 114865, Note_on_c, 0, 68, 73
2, 114886, Note_on_c, 0, 55, 24
2, 114892, Note_on_c, 0, 61, 0
2, 114908, Note_on_c, 0, 55, 0
2, 114912, Note_on_c, 0, 68, 0
2, 114953, Note_on_c, 0, 67, 26
2, 115013, Note_on_c, 0, 67, 0
2, 115071, Note_on_c, 0, 62, 19
2, 115093, Note_on_c, 0, 62, 0
2, 115309, Note_on_c, 0, 44, 47
2, 115451, Control_c, 0, 64, 127
2, 115516, Note_on_c, 0, 53, 59
2, 115578, Note_on_c, 0, 44, 0
2, 115579, Note_on_c, 0, 53, 0
2, 115626, Note_on_c, 0, 54, 62
2, 115672, Note_on_c, 0, 54, 0
2, 115790, Note_on_c, 0, 58, 74
2, 115811, Note_on_c, 0, 44, 33
2, 115842, Note_on_c, 0, 44, 0
2, 115895, Note_on_c, 0, 58, 0
2, 115927, Note_on_c, 0, 61, 68
2, 116025, Note_on_c, 0, 61, 0
2, 116079, Note_on_c, 0, 65, 51
2, 116095, Note_on_c, 0, 67, 28
2, 116131, Note_on_c, 0, 67, 0
2, 116144, Note_on_c, 0, 65, 0
2, 116196, Note_on_c, 0, 66, 68
2, 116286, Note_on_c, 0, 66, 0
2, 116318, Note_on_c, 0, 65, 49
2, 116322, Note_on_c, 0, 61, 44
2, 116331, Note_on_c, 0, 58, 37
2, 116332, Note_on_c, 0, 70, 71
2, 116334, Note_on_c, 0, 54, 25
2, 116342, Note_on_c, 0, 66, 26
2, 116362, Note_on_c, 0, 66, 0
2, 116400, Note_on_c, 0, 70, 0
2, 116498, Note_on_c, 0, 65, 0
2, 116562, Note_on_c, 0, 61, 0
2, 116566, Note_on_c, 0, 54, 0
2, 116612, Note_on_c, 0, 73, 57
2, 116632, Note_on_c, 0, 58, 0
2, 116682, Note_on_c, 0, 73, 0
2, 116722, Note_on_c, 0, 64, 56
2, 116723, Note_on_c, 0, 69, 57
2, 116726, Note_on_c, 0, 54, 44
2, 116729, Note_on_c, 0, 60, 50
2, 116735, Control_c, 0, 64, 0
2, 116850, Note_on_c, 0, 74, 78
2, 116858, Control_c, 0, 64, 127
2, 116873, Note_off_c, 0, 69, 0
2, 116922, Note_off_c, 0, 64, 0
2, 116928, Note_off_c, 0, 60, 0
2, 116933, Note_off_c, 0, 54, 0
2, 116976, Note_off_c, 0, 74, 0
2, 116980, Note_on_c, 0, 64, 45
2, 116980, Note_on_c, 0, 54, 35
2, 116983, Note_on_c, 0, 78, 71
2, 116984, Note_on_c, 0, 60, 48
2, 117020, Note_on_c, 0, 60, 0
2, 117023, Note_on_c, 0, 64, 0
2, 117040, Note_on_c, 0, 78, 0
2, 117042, Note_on_c, 0, 54, 0
2, 117117, Note_on_c, 0, 64, 51
2, 117126, Note_on_c, 0, 60, 43
2, 117134, Note_on_c, 0, 83, 36
2, 117148, Note_on_c, 0, 64, 0
2, 117150, Note_on_c, 0, 60, 0
2, 117160, Note_on_c, 0, 83, 0
2, 117254, Control_c, 0, 64, 0
2, 117256, Note_on_c, 0, 88, 65
2, 117275, Note_on_c, 0, 60, 31
2, 117276, Note_on_c, 0, 88, 0
2, 117300, Note_on_c, 0, 60, 0
2, 117477, Control_c, 0, 64, 127
2, 117599, Control_c, 0, 64, 0
2, 117618, Note_on_c, 0, 89, 80
2, 117619, Note_on_c, 0, 81, 74
2, 117621, Note_on_c, 0, 65, 70
2, 117622, Note_on_c, 0, 77, 74
2, 117622, Note_on_c, 0, 60, 66
2, 117623, Note_on_c, 0, 84, 69
2, 117626, Note_on_c, 0, 54, 60
2, 117656, Note_on_c, 0, 58, 23
2, 117683, Control_c, 0, 64, 127
2, 117825, Note_off_c, 0, 84, 0
2, 117839, Note_off_c, 0, 81, 0
2, 117839, Note_off_c, 0, 77, 0
2, 117841, Note_off_c, 0, 65, 0
2, 117845, Note_off_c, 0, 58, 0
2, 117861, Note_off_c, 0, 60, 0
2, 117862, Note_off_c, 0, 54, 0
2, 117870, Note_off_c, 0, 89, 0
2, 117930, Note_on_c, 0, 77, 62
2, 117931, Note_on_c, 0, 54, 52
2, 117933, Control_c, 0, 64, 0
2, 117935, Note_on_c, 0, 65, 50
2, 117935, Note_on_c, 0, 84, 70
2, 117937, Note_on_c, 0, 60, 40
2, 117983, Note_on_c, 0, 65, 0
2, 117986, Control_c, 0, 64, 127
2, 117992, Note_off_c, 0, 77, 0
2, 118044, Note_off_c, 0, 84, 0
2, 118072, Note_off_c, 0, 54, 0
2, 118136, Note_off_c, 0, 60, 0
2, 118201, Control_c, 0, 64, 0
2, 118208, Note_on_c, 0, 60, 44
2, 118211, Note_on_c, 0, 63, 54
2, 118220, Note_on_c, 0, 87, 70
2, 118220, Note_on_c, 0, 56, 42
2, 118226, Note_on_c, 0, 75, 53
2, 118228, Note_on_c, 0, 53, 40
2, 118231, Note_on_c, 0, 80, 46
2, 118236, Note_on_c, 0, 84, 46
2, 118348, Note_on_c, 0, 75, 0
2, 118349, Note_on_c, 0, 84, 0
2, 118354, Control_c, 0, 64, 127
2, 118364, Note_off_c, 0, 80, 0
2, 118396, Note_off_c, 0, 87, 0
2, 118428, Note_off_c, 0, 60, 0
2, 118506, Note_off_c, 0, 63, 0
2, 118532, Note_off_c, 0, 56, 0
2, 118583, Note_on_c, 0, 63, 47
2, 118587, Control_c, 0, 64, 0
2, 118591, Note_on_c, 0, 60, 37
2, 118592, Note_on_c, 0, 87, 82
2, 118594, Note_on_c, 0, 56, 18
2, 118687, Note_on_c, 0, 87, 0
2, 118713, Note_on_c, 0, 84, 53
2, 118739, Note_on_c, 0, 84, 0
2, 118785, Note_on_c, 0, 85, 49
2, 118793, Note_on_c, 0, 63, 0
2, 118862, Note_on_c, 0, 85, 0
2, 118890, Note_on_c, 0, 87, 76
2, 118936, Note_on_c, 0, 87, 0
2, 118992, Note_on_c, 0, 83, 47
2, 119017, Note_on_c, 0, 83, 0
2, 119021, Note_on_c, 0, 60, 0
2, 119096, Note_on_c, 0, 60, 37
2, 119097, Note_on_c, 0, 77, 48
2, 119126, Note_on_c, 0, 77, 0
2, 119207, Note_on_c, 0, 60, 0
2, 119252, Note_on_c, 0, 56, 0
2, 119289, Note_on_c, 0, 82, 74
2, 119304, Note_on_c, 0, 56, 19
2, 119309, Note_on_c, 0, 63, 40
2, 119315, Note_on_c, 0, 60, 43
2, 119325, Note_on_c, 0, 53, 0
2, 119329, Note_on_c, 0, 63, 0
2, 119349, Note_on_c, 0, 82, 0
2, 119366, Note_on_c, 0, 80, 69
2, 119369, Note_on_c, 0, 60, 0
2, 119411, Note_on_c, 0, 56, 0
2, 119439, Note_on_c, 0, 80, 0
2, 119548, Note_on_c, 0, 63, 45
2, 119555, Note_on_c, 0, 77, 74
2, 119557, Note_on_c, 0, 60, 40
2, 119564, Note_on_c, 0, 56, 28
2, 119584, Note_on_c, 0, 60, 0
2, 119587, Note_on_c, 0, 63, 0
2, 119646, Note_on_c, 0, 56, 0
2, 119657, Note_on_c, 0, 77, 0
2, 119747, Note_on_c, 0, 75, 58
2, 119752, Note_on_c, 0, 53, 34
2, 119753, Note_on_c, 0, 64, 44
2, 119759, Note_on_c, 0, 76, 70
2, 119759, Note_on_c, 0, 59, 43
2, 119802, Note_on_c, 0, 75, 0
2, 119971, Note_on_c, 0, 64, 0
2, 120047, Note_on_c, 0, 67, 68
2, 120053, Note_on_c, 0, 64, 44
2, 120095, Note_on_c, 0, 64, 0
2, 120169, Note_on_c, 0, 59, 0
2, 120210, Control_c, 0, 64, 127
2, 120220, Note_off_c, 0, 53, 0
2, 120258, Note_off_c, 0, 67, 0
2, 120317, Note_on_c, 0, 67, 55
2, 120320, Note_on_c, 0, 76, 0
2, 120322, Note_on_c, 0, 59, 52
2, 120325, Note_on_c, 0, 64, 43
2, 120336, Note_on_c, 0, 53, 33
2, 120421, Note_on_c, 0, 67, 0
2, 120453, Note_on_c, 0, 64, 0
2, 120519, Note_on_c, 0, 73, 90
2, 120549, Note_on_c, 0, 59, 0
2, 120559, Note_on_c, 0, 53, 0
2, 120587, Note_on_c, 0, 73, 0
2, 120631, Control_c, 0, 64, 0
2, 120631, Note_on_c, 0, 69, 74
2, 120638, Note_on_c, 0, 59, 36
2, 120647, Note_on_c, 0, 53, 26
2, 120678, Note_on_c, 0, 69, 0
2, 120706, Note_on_c, 0, 64, 45
2, 120708, Note_on_c, 0, 59, 0
2, 120745, Note_on_c, 0, 53, 0
2, 120806, Note_on_c, 0, 64, 0
2, 120906, Note_on_c, 0, 53, 34
2, 120907, Note_on_c, 0, 64, 64
2, 120908, Note_on_c, 0, 59, 36
2, 120916, Control_c, 0, 64, 127
2, 120986, Control_c, 0, 64, 0
2, 121033, Note_off_c, 0, 59, 0
2, 121060, Note_off_c, 0, 53, 0
2, 121074, Note_off_c, 0, 64, 0
2, 121091, Control_c, 0, 64, 127
2, 121095, Note_on_c, 0, 73, 60
2, 121183, Note_on_c, 0, 73, 0
2, 121191, Note_on_c, 0, 69, 58
2, 121242, Note_on_c, 0, 69, 0
2, 121284, Control_c, 0, 64, 0
2, 121289, Note_on_c, 0, 62, 39
2, 121293, Note_on_c, 0, 57, 44
2, 121293, Note_on_c, 0, 58, 40
2, 121297, Note_on_c, 0, 70, 77
2, 121314, Note_on_c, 0, 52, 34
2, 121350, Note_on_c, 0, 70, 0
2, 121365, Note_on_c, 0, 52, 0
2, 121380, Note_on_c, 0, 62, 0
2, 121388, Note_on_c, 0, 57, 0
2, 121394, Note_on_c, 0, 58, 0
2, 121474, Note_on_c, 0, 70, 74
2, 121481, Note_on_c, 0, 62, 51
2, 121484, Note_on_c, 0, 58, 42
2, 121485, Note_on_c, 0, 57, 41
2, 121492, Note_on_c, 0, 52, 39
2, 121664, Control_c, 0, 64, 127
2, 121666, Note_off_c, 0, 70, 0
2, 121678, Note_on_c, 0, 69, 63
2, 121697, Note_on_c, 0, 62, 0
2, 121705, Note_on_c, 0, 52, 0
2, 121714, Note_on_c, 0, 57, 0
2, 121733, Note_on_c, 0, 58, 0
2, 121756, Note_on_c, 0, 69, 0
2, 121775, Note_on_c, 0, 65, 58
2, 121792, Control_c, 0, 64, 0
2, 121806, Note_on_c, 0, 58, 21
2, 121826, Note_on_c, 0, 52, 24
2, 121830, Note_on_c, 0, 65, 0
2, 121865, Note_on_c, 0, 62, 36
2, 121940, Note_on_c, 0, 52, 0
2, 121960, Note_on_c, 0, 58, 0
2, 121980, Note_on_c, 0, 62, 0
2, 122065, Note_on_c, 0, 62, 38
2, 122065, Note_on_c, 0, 58, 25
2, 122065, Note_on_c, 0, 52, 38
2, 122071, Note_on_c, 0, 57, 35
2, 122195, Control_c, 0, 64, 127
2, 122216, Note_off_c, 0, 52, 0
2, 122223, Note_off_c, 0, 62, 0
2, 122228, Note_off_c, 0, 57, 0
2, 122237, Note_off_c, 0, 58, 0
2, 122323, Control_c, 0, 64, 0
2, 122355, Note_on_c, 0, 58, 48
2, 122359, Note_on_c, 0, 62, 61
2, 122360, Note_on_c, 0, 57, 47
2, 122363, Note_on_c, 0, 52, 51
2, 122393, Control_c, 0, 64, 127
2, 122510, Note_off_c, 0, 52, 0
2, 122520, Note_off_c, 0, 57, 0
2, 122558, Note_off_c, 0, 62, 0
2, 122568, Note_off_c, 0, 58, 0
2, 122803, Note_on_c, 0, 61, 56
2, 122808, Control_c, 0, 64, 0
2, 122809, Note_on_c, 0, 55, 53
2, 122814, Note_on_c, 0, 58, 44
2, 122869, Note_on_c, 0, 61, 0
2, 122913, Note_on_c, 0, 60, 52
2, 122961, Note_on_c, 0, 60, 0
2, 123020, Note_on_c, 0, 61, 34
2, 123113, Note_on_c, 0, 63, 77
2, 123200, Note_on_c, 0, 63, 0
2, 123213, Note_on_c, 0, 64, 77
2, 123214, Note_on_c, 0, 61, 0
2, 123278, Note_on_c, 0, 64, 0
2, 123314, Note_on_c, 0, 66, 78
2, 123347, Note_on_c, 0, 61, 20
2, 123362, Note_on_c, 0, 55, 0
2, 123375, Note_on_c, 0, 61, 0
2, 123378, Note_on_c, 0, 66, 0
2, 123383, Note_on_c, 0, 58, 0
2, 123397, Note_on_c, 0, 67, 90
2, 123480, Note_on_c, 0, 68, 70
2, 123500, Note_on_c, 0, 68, 0
2, 123501, Note_on_c, 0, 69, 77
2, 123505, Note_on_c, 0, 67, 0
2, 123593, Note_on_c, 0, 70, 80
2, 123612, Note_on_c, 0, 69, 0
2, 123669, Note_on_c, 0, 70, 0
2, 123688, Note_on_c, 0, 72, 85
2, 123777, Note_on_c, 0, 73, 83
2, 123799, Note_on_c, 0, 61, 57
2, 123801, Note_on_c, 0, 72, 0
2, 123804, Note_on_c, 0, 66, 59
2, 123810, Note_on_c, 0, 58, 45
2, 123812, Note_on_c, 0, 55, 58
2, 123878, Note_on_c, 0, 75, 73
2, 123902, Note_on_c, 0, 73, 0
2, 123948, Note_on_c, 0, 75, 0
2, 123962, Note_on_c, 0, 76, 73
2, 123969, Control_c, 0, 64, 127
2, 123983, Note_off_c, 0, 66, 0
2, 123995, Note_off_c, 0, 55, 0
2, 124028, Note_off_c, 0, 58, 0
2, 124036, Note_off_c, 0, 76, 0
2, 124064, Note_on_c, 0, 66, 49
2, 124064, Note_on_c, 0, 77, 71
2, 124099, Control_c, 0, 64, 0
2, 124100, Note_off_c, 0, 66, 0
2, 124113, Note_on_c, 0, 55, 20
2, 124134, Note_on_c, 0, 55, 0
2, 124134, Control_c, 0, 64, 127
2, 124136, Note_off_c, 0, 61, 0
2, 124148, Note_off_c, 0, 77, 0
2, 124153, Note_on_c, 0, 79, 55
2, 124227, Note_on_c, 0, 79, 0
2, 124265, Note_on_c, 0, 80, 63
2, 124329, Note_on_c, 0, 60, 24
2, 124333, Note_on_c, 0, 57, 33
2, 124335, Note_on_c, 0, 53, 34
2, 124344, Note_on_c, 0, 50, 33
2, 124348, Note_on_c, 0, 80, 0
2, 124355, Control_c, 0, 64, 0
2, 124362, Note_on_c, 0, 81, 50
2, 124451, Note_on_c, 0, 81, 0
2, 124469, Note_on_c, 0, 84, 75
2, 124495, Control_c, 0, 64, 127
2, 124541, Note_off_c, 0, 84, 0
2, 124560, Note_off_c, 0, 60, 0
2, 124628, Note_on_c, 0, 88, 70
2, 124642, Note_on_c, 0, 76, 54
2, 124683, Note_on_c, 0, 76, 0
2, 124691, Note_on_c, 0, 88, 0
2, 124701, Note_on_c, 0, 57, 0
2, 124746, Note_on_c, 0, 76, 58
2, 124746, Note_on_c, 0, 88, 61
2, 124766, Note_on_c, 0, 60, 27
2, 124768, Note_on_c, 0, 57, 34
2, 124768, Note_on_c, 0, 81, 36
2, 124794, Note_on_c, 0, 81, 0
2, 124796, Note_on_c, 0, 76, 0
2, 124821, Note_on_c, 0, 88, 0
2, 124822, Note_on_c, 0, 60, 0
2, 124844, Note_on_c, 0, 57, 0
2, 124866, Note_on_c, 0, 50, 0
2, 124871, Note_on_c, 0, 53, 0
2, 124908, Note_on_c, 0, 91, 70
2, 124914, Note_on_c, 0, 79, 61
2, 124960, Note_on_c, 0, 91, 0
2, 124965, Note_on_c, 0, 79, 0
2, 124997, Control_c, 0, 64, 0
2, 125036, Note_on_c, 0, 91, 57
2, 125039, Note_on_c, 0, 79, 54
2, 125040, Note_on_c, 0, 60, 29
2, 125046, Note_on_c, 0, 57, 33
2, 125050, Note_on_c, 0, 53, 37
2, 125057, Note_on_c, 0, 50, 22
2, 125075, Note_on_c, 0, 91, 0
2, 125085, Note_on_c, 0, 57, 0
2, 125086, Note_on_c, 0, 53, 0
2, 125087, Note_on_c, 0, 60, 0
2, 125090, Note_on_c, 0, 79, 0
2, 125103, Note_on_c, 0, 50, 0
2, 125205, Note_on_c, 0, 88, 68
2, 125211, Note_on_c, 0, 76, 60
2, 125219, Note_on_c, 0, 60, 29
2, 125225, Note_on_c, 0, 57, 31
2, 125232, Note_on_c, 0, 53, 31
2, 125253, Note_on_c, 0, 60, 0
2, 125253, Note_on_c, 0, 76, 0
2, 125254, Note_on_c, 0, 88, 0
2, 125255, Note_on_c, 0, 57, 0
2, 125261, Note_on_c, 0, 53, 0
2, 125300, Control_c, 0, 64, 127
2, 125319, Note_on_c, 0, 76, 55
2, 125321, Note_on_c, 0, 88, 47
2, 125322, Note_on_c, 0, 60, 22
2, 125330, Note_on_c, 0, 57, 34
2, 125335, Note_on_c, 0, 53, 32
2, 125339, Note_on_c, 0, 50, 19
2, 125354, Note_on_c, 0, 88, 0
2, 125369, Note_on_c, 0, 60, 0
2, 125373, Note_on_c, 0, 57, 0
2, 125381, Note_on_c, 0, 76, 0
2, 125385, Note_on_c, 0, 53, 0
2, 125389, Note_on_c, 0, 50, 0
2, 125494, Note_on_c, 0, 84, 54
2, 125504, Control_c, 0, 64, 0
2, 125508, Note_on_c, 0, 72, 48
2, 125510, Note_on_c, 0, 60, 33
2, 125510, Note_on_c, 0, 57, 40
2, 125511, Note_on_c, 0, 53, 40
2, 125515, Note_on_c, 0, 50, 28
2, 125639, Control_c, 0, 64, 127
2, 125734, Note_off_c, 0, 60, 0
2, 125742, Note_off_c, 0, 57, 0
2, 125754, Note_off_c, 0, 53, 0
2, 125769, Note_off_c, 0, 50, 0
2, 125861, Note_off_c, 0, 84, 0
2, 125891, Note_off_c, 0, 72, 0
2, 125891, Note_on_c, 0, 57, 42
2, 125892, Note_on_c, 0, 50, 25
2, 125893, Note_on_c, 0, 60, 32
2, 125895, Note_on_c, 0, 53, 43
2, 125973, Control_c, 0, 64, 0
2, 126048, Control_c, 0, 64, 127
2, 126062, Note_off_c, 0, 60, 0
2, 126080, Note_off_c, 0, 53, 0
2, 126082, Note_off_c, 0, 57, 0
2, 126084, Note_off_c, 0, 50, 0
2, 126182, Control_c, 0, 64, 0
2, 126190, Note_on_c, 0, 62, 51
2, 126192, Note_on_c, 0, 57, 50
2, 126202, Note_on_c, 0, 53, 53
2, 126206, Note_on_c, 0, 50, 18
2, 126391, Note_on_c, 0, 76, 90
2, 126432, Note_on_c, 0, 76, 0
2, 126480, Note_on_c, 0, 62, 0
2, 126486, Note_on_c, 0, 77, 115
2, 126545, Note_on_c, 0, 77, 0
2, 126591, Note_on_c, 0, 77, 91
2, 126684, Note_on_c, 0, 61, 34
2, 126696, Note_on_c, 0, 73, 71
2, 126704, Note_on_c, 0, 77, 0
2, 126751, Note_on_c, 0, 73, 0
2, 126780, Note_on_c, 0, 73, 50
2, 126827, Note_on_c, 0, 61, 0
2, 126857, Note_on_c, 0, 73, 0
2, 126874, Note_on_c, 0, 76, 81
2, 126958, Note_on_c, 0, 76, 0
2, 126980, Note_on_c, 0, 74, 85
2, 126981, Note_on_c, 0, 76, 36
2, 127006, Note_on_c, 0, 76, 0
2, 127042, Note_on_c, 0, 74, 0
2, 127132, Note_on_c, 0, 69, 75
2, 127179, Note_on_c, 0, 69, 0
2, 127218, Note_on_c, 0, 53, 0
2, 127229, Note_on_c, 0, 60, 2
2, 127235, Note_on_c, 0, 57, 0
2, 127245, Note_on_c, 0, 50, 0
2, 127276, Note_on_c, 0, 67, 51
2, 127289, Note_on_c, 0, 60, 0
2, 127297, Control_c, 0, 64, 127
2, 127338, Note_off_c, 0, 67, 0
2, 127465, Note_on_c, 0, 60, 33
2, 127467, Control_c, 0, 64, 0
2, 127468, Note_on_c, 0, 58, 23
2, 127474, Note_on_c, 0, 72, 80
2, 127476, Note_on_c, 0, 62, 22
2, 127712, Control_c, 0, 64, 127
2, 127727, Note_on_c, 0, 71, 59
2, 127740, Note_on_c, 0, 72, 0
2, 127769, Note_on_c, 0, 70, 45
2, 127770, Note_on_c, 0, 60, 0
2, 127776, Control_c, 0, 64, 0
2, 127784, Note_off_c, 0, 71, 0
2, 127816, Note_on_c, 0, 60, 17
2, 127820, Note_on_c, 0, 70, 0
2, 127835, Note_on_c, 0, 69, 50
2, 127952, Note_on_c, 0, 62, 0
2, 127954, Note_on_c, 0, 69, 0
2, 127979, Note_on_c, 0, 65, 35
2, 127993, Note_on_c, 0, 60, 0
2, 128038, Note_on_c, 0, 58, 0
2, 128072, Note_on_c, 0, 65, 0
2, 128121, Note_on_c, 0, 62, 51
2, 128220, Note_on_c, 0, 62, 0
2, 128242, Note_on_c, 0, 58, 62
2, 128394, Note_on_c, 0, 57, 60
2, 128403, Note_on_c, 0, 58, 0
2, 128453, Note_on_c, 0, 57, 0
2, 128498, Note_on_c, 0, 60, 79
2, 128656, Note_on_c, 0, 57, 47
2, 128667, Note_on_c, 0, 60, 0
2, 128703, Note_on_c, 0, 57, 0
2, 128748, Note_on_c, 0, 58, 77
2, 128967, Control_c, 0, 64, 127
2, 129210, Note_off_c, 0, 58, 0
2, 129343, Note_on_c, 0, 57, 92
2, 129370, Control_c, 0, 64, 0
2, 129422, Note_off_c, 0, 57, 0
2, 129445, Note_on_c, 0, 54, 67
2, 129536, Note_on_c, 0, 54, 0
2, 129631, Note_on_c, 0, 55, 80
2, 129720, Control_c, 0, 64, 127
2, 129737, Note_off_c, 0, 55, 0
2, 129784, Control_c, 0, 64, 0
2, 129815, Note_on_c, 0, 57, 82
2, 129883, Control_c, 0, 64, 127
2, 129896, Note_off_c, 0, 57, 0
2, 129914, Note_on_c, 0, 58, 57
2, 129962, Note_on_c, 0, 58, 0
2, 130015, Note_on_c, 0, 62, 70
2, 130024, Control_c, 0, 64, 0
2, 130064, Control_c, 0, 64, 127
2, 130076, Note_off_c, 0, 62, 0
2, 130100, Note_on_c, 0, 66, 32
2, 130119, Note_on_c, 0, 66, 0
2, 130123, Note_on_c, 0, 65, 47
2, 130152, Note_on_c, 0, 65, 0
2, 130219, Note_on_c, 0, 69, 67
2, 130263, Control_c, 0, 64, 0
2, 130285, Note_off_c, 0, 69, 0
2, 130306, Note_on_c, 0, 72, 73
2, 130352, Note_on_c, 0, 72, 0
2, 130406, Note_on_c, 0, 76, 68
2, 130451, Note_on_c, 0, 76, 0
2, 130498, Note_on_c, 0, 79, 87
2, 130500, Note_on_c, 0, 67, 83
2, 130570, Note_on_c, 0, 67, 0
2, 130584, Note_on_c, 0, 79, 0
2, 130626, Note_on_c, 0, 76, 49
2, 130658, Note_on_c, 0, 76, 0
2, 130706, Note_on_c, 0, 79, 85
2, 130710, Note_on_c, 0, 67, 83
2, 130798, Note_on_c, 0, 67, 0
2, 130803, Note_on_c, 0, 79, 0
2, 130803, Note_on_c, 0, 76, 60
2, 130858, Control_c, 0, 64, 127
2, 130886, Note_off_c, 0, 76, 0
2, 130911, Note_on_c, 0, 72, 35
2, 130974, Note_on_c, 0, 72, 0
2, 131005, Note_on_c, 0, 67, 47
2, 131040, Note_on_c, 0, 67, 0
2, 131082, Note_on_c, 0, 76, 75
2, 131084, Note_on_c, 0, 69, 81
2, 131103, Note_on_c, 0, 74, 30
2, 131104, Control_c, 0, 64, 0
2, 131122, Note_off_c, 0, 74, 0
2, 131232, Control_c, 0, 64, 127
2, 131305, Note_off_c, 0, 69, 0
2, 131333, Note_off_c, 0, 76, 0
2, 131337, Control_c, 0, 64, 0
2, 131369, Note_on_c, 0, 72, 62
2, 131381, Note_on_c, 0, 64, 53
2, 131431, Control_c, 0, 64, 127
2, 131537, Note_off_c, 0, 72, 0
2, 131554, Note_off_c, 0, 64, 0
2, 131645, Note_on_c, 0, 67, 50
2, 131646, Note_on_c, 0, 64, 43
2, 131658, Control_c, 0, 64, 0
2, 131786, Control_c, 0, 64, 127
2, 131906, Note_off_c, 0, 64, 0
2, 131965, Note_off_c, 0, 67, 0
2, 132704, Note_on_c, 0, 79, 85
2, 132709, Note_on_c, 0, 72, 92
2, 132738, Control_c, 0, 64, 0
2, 132749, Note_off_c, 0, 72, 0
2, 132758, Note_off_c, 0, 79, 0
2, 132805, Note_on_c, 0, 79, 65
2, 132812, Note_on_c, 0, 72, 71
2, 132854, Control_c, 0, 64, 127
2, 132895, Note_off_c, 0, 72, 0
2, 132908, Note_off_c, 0, 79, 0
2, 132919, Note_on_c, 0, 76, 38
2, 132937, Control_c, 0, 64, 0
2, 132939, Note_on_c, 0, 69, 31
2, 132986, Note_on_c, 0, 69, 0
2, 133012, Note_on_c, 0, 76, 0
2, 133096, Note_on_c, 0, 79, 80
2, 133104, Note_on_c, 0, 72, 80
2, 133145, Note_on_c, 0, 72, 0
2, 133157, Note_on_c, 0, 79, 0
2, 133193, Control_c, 0, 64, 127
2, 133201, Note_on_c, 0, 79, 63
2, 133207, Note_on_c, 0, 72, 71
2, 133220, Note_on_c, 0, 60, 25
2, 133226, Note_on_c, 0, 57, 31
2, 133268, Note_on_c, 0, 57, 0
2, 133292, Control_c, 0, 64, 0
2, 133303, Note_off_c, 0, 60, 0
2, 133309, Note_off_c, 0, 79, 0
2, 133313, Note_off_c, 0, 72, 0
2, 133327, Control_c, 0, 64, 127
2, 133329, Note_on_c, 0, 76, 36
2, 133339, Note_on_c, 0, 69, 58
2, 133389, Note_on_c, 0, 69, 0
2, 133389, Note_on_c, 0, 76, 0
2, 133485, Note_on_c, 0, 77, 64
2, 133486, Note_on_c, 0, 58, 34
2, 133488, Note_on_c, 0, 74, 65
2, 133488, Note_on_c, 0, 62, 29
2, 133491, Control_c, 0, 64, 0
2, 133494, Note_on_c, 0, 57, 32
2, 133518, Note_on_c, 0, 53, 30
2, 133528, Note_on_c, 0, 74, 0
2, 133530, Note_on_c, 0, 77, 0
2, 133533, Note_on_c, 0, 57, 0
2, 133539, Note_on_c, 0, 62, 0
2, 133547, Note_on_c, 0, 53, 0
2, 133562, Note_on_c, 0, 58, 0
2, 133608, Note_on_c, 0, 77, 74
2, 133611, Note_on_c, 0, 74, 81
2, 133707, Note_on_c, 0, 74, 0
2, 133745, Note_on_c, 0, 77, 0
2, 133763, Note_on_c, 0, 74, 58
2, 133777, Note_on_c, 0, 59, 34
2, 133782, Note_on_c, 0, 60, 44
2, 133784, Note_on_c, 0, 64, 40
2, 133932, Note_on_c, 0, 74, 0
2, 133952, Note_on_c, 0, 71, 61
2, 134087, Control_c, 0, 64, 127
2, 134170, Note_off_c, 0, 59, 0
2, 134170, Note_off_c, 0, 64, 0
2, 134176, Note_off_c, 0, 60, 0
2, 134206, Note_off_c, 0, 71, 0
2, 134245, Note_on_c, 0, 74, 77
2, 134316, Note_on_c, 0, 74, 0
2, 134327, Control_c, 0, 64, 0
2, 134339, Note_on_c, 0, 60, 40
2, 134342, Note_on_c, 0, 64, 46
2, 134345, Note_on_c, 0, 59, 36
2, 134355, Note_on_c, 0, 72, 62
2, 134487, Note_on_c, 0, 67, 47
2, 134501, Control_c, 0, 64, 127
2, 134538, Note_off_c, 0, 64, 0
2, 134540, Note_off_c, 0, 60, 0
2, 134544, Note_off_c, 0, 59, 0
2, 134554, Control_c, 0, 64, 0
2, 134583, Note_off_c, 0, 67, 0
2, 134585, Note_off_c, 0, 72, 0
2, 134616, Note_on_c, 0, 69, 66
2, 134629, Note_on_c, 0, 60, 36
2, 134630, Note_on_c, 0, 64, 38
2, 134632, Note_on_c, 0, 59, 30
2, 134789, Note_on_c, 0, 59, 0
2, 134791, Note_on_c, 0, 60, 0
2, 134802, Note_on_c, 0, 64, 0
2, 134893, Note_on_c, 0, 64, 37
2, 134894, Note_on_c, 0, 60, 45
2, 134896, Note_on_c, 0, 59, 42
2, 134920, Note_on_c, 0, 64, 0
2, 134923, Note_on_c, 0, 60, 0
2, 134926, Note_on_c, 0, 59, 0
2, 135108, Note_on_c, 0, 60, 50
2, 135111, Note_on_c, 0, 59, 50
2, 135111, Note_on_c, 0, 64, 54
2, 135261, Control_c, 0, 64, 127
2, 135341, Note_off_c, 0, 64, 0
2, 135346, Note_off_c, 0, 59, 0
2, 135367, Note_off_c, 0, 60, 0
2, 135488, Control_c, 0, 64, 0
2, 135490, Note_on_c, 0, 64, 39
2, 135494, Note_on_c, 0, 60, 41
2, 135497, Note_on_c, 0, 69, 0
2, 135502, Note_on_c, 0, 57, 33
2, 135598, Control_c, 0, 64, 127
2, 135680, Note_off_c, 0, 57, 0
2, 135681, Note_off_c, 0, 64, 0
2, 135683, Note_off_c, 0, 60, 0
2, 135782, Note_on_c, 0, 60, 49
2, 135784, Note_on_c, 0, 64, 43
2, 135786, Note_on_c, 0, 57, 40
2, 135891, Note_on_c, 0, 57, 0
2, 135896, Note_on_c, 0, 64, 0
2, 135900, Note_on_c, 0, 60, 0
2, 136158, Note_on_c, 0, 91, 80
2, 136159, Control_c, 0, 64, 0
2, 136160, Note_on_c, 0, 79, 75
2, 136163, Note_on_c, 0, 84, 78
2, 136164, Note_on_c, 0, 88, 68
2, 136168, Note_on_c, 0, 64, 66
2, 136171, Note_on_c, 0, 60, 56
2, 136173, Note_on_c, 0, 57, 59
2, 136203, Note_on_c, 0, 57, 0
2, 136203, Note_on_c, 0, 79, 0
2, 136209, Note_on_c, 0, 84, 0
2, 136212, Note_on_c, 0, 60, 0
2, 136215, Note_on_c, 0, 64, 0
2, 136215, Note_on_c, 0, 91, 0
2, 136219, Note_on_c, 0, 88, 0
2, 136252, Control_c, 0, 64, 127
2, 136272, Note_on_c, 0, 91, 73
2, 136277, Note_on_c, 0, 64, 64
2, 136278, Note_on_c, 0, 79, 78
2, 136279, Note_on_c, 0, 57, 62
2, 136279, Note_on_c, 0, 60, 59
2, 136280, Note_on_c, 0, 84, 78
2, 136285, Note_on_c, 0, 88, 60
2, 136356, Note_on_c, 0, 88, 0
2, 136363, Note_on_c, 0, 91, 0
2, 136363, Note_on_c, 0, 84, 0
2, 136377, Note_on_c, 0, 79, 0
2, 136384, Note_on_c, 0, 64, 0
2, 136390, Note_on_c, 0, 57, 0
2, 136396, Note_on_c, 0, 60, 0
2, 136452, Note_on_c, 0, 64, 53
2, 136453, Note_on_c, 0, 60, 51
2, 136455, Note_on_c, 0, 88, 81
2, 136458, Note_on_c, 0, 76, 74
2, 136462, Note_on_c, 0, 81, 66
2, 136463, Control_c, 0, 64, 0
2, 136465, Note_on_c, 0, 84, 56
2, 136465, Note_on_c, 0, 57, 38
2, 136471, Note_on_c, 0, 85, 43
2, 136476, Note_on_c, 0, 64, 0
2, 136480, Control_c, 0, 64, 127
2, 136487, Note_off_c, 0, 60, 0
2, 136490, Note_off_c, 0, 57, 0
2, 136491, Note_off_c, 0, 85, 0
2, 136499, Note_off_c, 0, 81, 0
2, 136515, Note_off_c, 0, 76, 0
2, 136521, Note_off_c, 0, 84, 0
2, 136537, Note_off_c, 0, 88, 0
2, 136626, Control_c, 0, 64, 0
2, 136640, Note_on_c, 0, 88, 80
2, 136641, Note_on_c, 0, 57, 60
2, 136644, Note_on_c, 0, 76, 78
2, 136644, Note_on_c, 0, 84, 76
2, 136647, Note_on_c, 0, 53, 54
2, 136647, Note_on_c, 0, 81, 72
2, 136648, Note_on_c, 0, 60, 65
2, 136653, Note_on_c, 0, 50, 51
2, 136739, Control_c, 0, 64, 127
2, 136752, Note_off_c, 0, 88, 0
2, 136763, Note_off_c, 0, 81, 0
2, 136764, Note_off_c, 0, 84, 0
2, 136788, Note_off_c, 0, 76, 0
2, 136814, Note_off_c, 0, 60, 0
2, 136823, Note_off_c, 0, 50, 0
2, 136827, Note_off_c, 0, 53, 0
2, 136834, Note_off_c, 0, 57, 0
2, 136929, Note_on_c, 0, 84, 55
2, 136931, Control_c, 0, 64, 0
2, 136932, Note_on_c, 0, 81, 56
2, 136934, Note_on_c, 0, 72, 52
2, 136936, Note_on_c, 0, 57, 38
2, 136937, Note_on_c, 0, 60, 40
2, 136939, Note_on_c, 0, 53, 41
2, 136945, Note_on_c, 0, 50, 33
2, 137007, Control_c, 0, 64, 127
2, 137015, Note_off_c, 0, 84, 0
2, 137022, Note_off_c, 0, 81, 0
2, 137044, Note_off_c, 0, 72, 0
2, 137070, Note_off_c, 0, 60, 0
2, 137073, Note_off_c, 0, 50, 0
2, 137073, Note_off_c, 0, 53, 0
2, 137077, Note_off_c, 0, 57, 0
2, 137240, Note_on_c, 0, 81, 44
2, 137242, Note_on_c, 0, 67, 42
2, 137243, Note_on_c, 0, 60, 45
2, 137243, Note_on_c, 0, 57, 42
2, 137245, Note_on_c, 0, 69, 48
2, 137248, Note_on_c, 0, 79, 39
2, 137249, Note_on_c, 0, 50, 33
2, 137249, Note_on_c, 0, 53, 50
2, 137258, Control_c, 0, 64, 0
2, 137269, Note_off_c, 0, 69, 0
2, 137286, Note_off_c, 0, 81, 0
2, 137381, Control_c, 0, 64, 127
2, 137432, Note_off_c, 0, 79, 0
2, 137456, Note_off_c, 0, 60, 0
2, 137465, Note_off_c, 0, 67, 0
2, 137467, Note_off_c, 0, 57, 0
2, 137467, Note_off_c, 0, 50, 0
2, 137475, Note_off_c, 0, 53, 0
2, 137567, Control_c, 0, 64, 0
2, 137579, Note_on_c, 0, 76, 57
2, 137590, Note_on_c, 0, 64, 39
2, 137593, Note_on_c, 0, 60, 35
2, 137597, Note_on_c, 0, 57, 35
2, 137601, Note_on_c, 0, 53, 37
2, 137611, Note_on_c, 0, 76, 0
2, 137621, Note_on_c, 0, 60, 0
2, 137623, Note_on_c, 0, 64, 0
2, 137628, Note_on_c, 0, 57, 0
2, 137630, Note_on_c, 0, 53, 0
2, 137780, Note_on_c, 0, 72, 49
2, 137791, Note_on_c, 0, 60, 38
2, 137792, Note_on_c, 0, 57, 33
2, 137794, Note_on_c, 0, 53, 37
2, 137799, Note_on_c, 0, 50, 35
2, 137900, Control_c, 0, 64, 127
2, 138032, Note_off_c, 0, 60, 0
2, 138087, Note_off_c, 0, 57, 0
2, 138090, Note_off_c, 0, 53, 0
2, 138158, Note_off_c, 0, 72, 0
2, 138167, Note_on_c, 0, 57, 37
2, 138169, Note_on_c, 0, 60, 34
2, 138173, Note_on_c, 0, 53, 54
2, 138542, Note_on_c, 0, 60, 0
2, 138593, Note_on_c, 0, 57, 0
2, 138603, Note_on_c, 0, 53, 0
2, 138685, Note_on_c, 0, 50, 0
2, 138686, Note_on_c, 0, 61, 53
2, 138706, Note_on_c, 0, 61, 0
2, 138768, Note_on_c, 0, 50, 30
2, 138770, Note_on_c, 0, 64, 92
2, 138777, Note_on_c, 0, 57, 41
2, 138780, Note_on_c, 0, 60, 33
2, 138788, Control_c, 0, 64, 0
2, 138788, Note_on_c, 0, 53, 47
2, 138869, Note_on_c, 0, 64, 0
2, 138873, Note_on_c, 0, 61, 77
2, 138895, Note_on_c, 0, 60, 0
2, 138945, Note_on_c, 0, 61, 0
2, 138957, Note_on_c, 0, 57, 0
2, 138966, Note_on_c, 0, 62, 56
2, 139038, Note_on_c, 0, 62, 0
2, 139066, Note_on_c, 0, 63, 69
2, 139071, Note_on_c, 0, 57, 40
2, 139075, Note_on_c, 0, 60, 37
2, 139112, Note_on_c, 0, 60, 0
2, 139134, Note_on_c, 0, 63, 0
2, 139158, Note_on_c, 0, 64, 70
2, 139216, Note_on_c, 0, 64, 0
2, 139237, Note_on_c, 0, 66, 60
2, 139256, Note_on_c, 0, 66, 0
2, 139287, Note_on_c, 0, 57, 0
2, 139353, Note_on_c, 0, 69, 56
2, 139402, Note_on_c, 0, 69, 0
2, 139440, Note_on_c, 0, 70, 69
2, 139471, Note_on_c, 0, 60, 24
2, 139483, Note_on_c, 0, 70, 0
2, 139500, Control_c, 0, 64, 127
2, 139523, Note_on_c, 0, 74, 69
2, 139540, Note_on_c, 0, 53, 0
2, 139560, Note_on_c, 0, 50, 0
2, 139586, Note_on_c, 0, 74, 0
2, 139588, Note_on_c, 0, 60, 0
2, 139620, Note_on_c, 0, 77, 59
2, 139676, Note_on_c, 0, 77, 0
2, 139715, Note_on_c, 0, 81, 58
2, 139763, Control_c, 0, 64, 0
2, 139795, Note_off_c, 0, 81, 0
2, 139828, Note_on_c, 0, 84, 92
2, 139890, Note_on_c, 0, 84, 0
2, 139955, Note_on_c, 0, 84, 84
2, 140011, Note_on_c, 0, 84, 0
2, 140085, Note_on_c, 0, 84, 94
2, 140119, Note_on_c, 0, 62, 27
2, 140147, Note_on_c, 0, 62, 0
2, 140177, Control_c, 0, 64, 127
2, 140191, Note_off_c, 0, 84, 0
2, 140228, Note_on_c, 0, 81, 60
2, 140276, Note_on_c, 0, 81, 0
2, 140353, Note_on_c, 0, 81, 79
2, 140358, Control_c, 0, 64, 0
2, 140379, Note_on_c, 0, 62, 42
2, 140384, Note_on_c, 0, 58, 34
2, 140389, Note_on_c, 0, 60, 35
2, 140415, Note_on_c, 0, 81, 0
2, 140420, Note_on_c, 0, 60, 0
2, 140470, Note_on_c, 0, 81, 71
2, 140477, Note_on_c, 0, 60, 8
2, 140515, Control_c, 0, 64, 127
2, 140546, Control_c, 0, 64, 0
2, 140554, Note_off_c, 0, 60, 0
2, 140557, Note_off_c, 0, 62, 0
2, 140566, Note_off_c, 0, 58, 0
2, 140573, Note_off_c, 0, 81, 0
2, 140607, Note_on_c, 0, 77, 61
2, 140656, Note_on_c, 0, 77, 0
2, 140740, Note_on_c, 0, 77, 74
2, 140760, Note_on_c, 0, 62, 41
2, 140763, Note_on_c, 0, 58, 35
2, 140769, Note_on_c, 0, 60, 35
2, 140788, Note_on_c, 0, 77, 0
2, 140797, Note_on_c, 0, 60, 0
2, 140861, Note_on_c, 0, 77, 68
2, 140872, Control_c, 0, 64, 127
2, 140910, Note_off_c, 0, 62, 0
2, 140953, Control_c, 0, 64, 0
2, 140970, Note_off_c, 0, 77, 0
2, 140995, Note_on_c, 0, 74, 73
2, 141037, Note_on_c, 0, 58, 0
2, 141225, Note_on_c, 0, 65, 44
2, 141227, Note_on_c, 0, 60, 36
2, 141235, Note_on_c, 0, 55, 41
2, 141391, Control_c, 0, 64, 127
2, 141461, Control_c, 0, 64, 0
2, 141547, Note_off_c, 0, 65, 0
2, 141552, Note_off_c, 0, 55, 0
2, 141555, Note_off_c, 0, 60, 0
2, 141579, Control_c, 0, 64, 127
2, 141607, Note_off_c, 0, 74, 0
2, 141614, Note_on_c, 0, 55, 42
2, 141615, Note_on_c, 0, 65, 49
2, 141618, Note_on_c, 0, 60, 38
2, 141684, Control_c, 0, 64, 0
2, 141771, Control_c, 0, 64, 127
2, 141810, Note_on_c, 0, 91, 105
2, 141823, Control_c, 0, 64, 0
2, 141897, Note_off_c, 0, 65, 0
2, 141913, Note_on_c, 0, 90, 77
2, 141941, Note_on_c, 0, 91, 0
2, 141946, Control_c, 0, 64, 127
2, 141997, Note_off_c, 0, 60, 0
2, 142008, Note_on_c, 0, 85, 59
2, 142020, Note_on_c, 0, 90, 0
2, 142028, Note_on_c, 0, 55, 0
2, 142104, Note_on_c, 0, 84, 78
2, 142115, Note_on_c, 0, 85, 0
2, 142141, Note_on_c, 0, 60, 18
2, 142153, Note_on_c, 0, 84, 0
2, 142170, Note_on_c, 0, 60, 0
2, 142181, Note_on_c, 0, 89, 88
2, 142281, Note_on_c, 0, 88, 76
2, 142296, Control_c, 0, 64, 0
2, 142308, Note_on_c, 0, 65, 33
2, 142311, Note_on_c, 0, 60, 47
2, 142318, Note_on_c, 0, 89, 0
2, 142323, Note_on_c, 0, 55, 41
2, 142333, Note_on_c, 0, 65, 0
2, 142346, Note_on_c, 0, 60, 0
2, 142373, Note_on_c, 0, 55, 0
2, 142384, Control_c, 0, 64, 127
2, 142388, Note_on_c, 0, 83, 61
2, 142409, Note_on_c, 0, 88, 0
2, 142467, Note_on_c, 0, 83, 0
2, 142499, Note_on_c, 0, 82, 68
2, 142580, Note_on_c, 0, 82, 0
2, 142586, Note_on_c, 0, 81, 60
2, 142662, Note_on_c, 0, 81, 0
2, 142676, Control_c, 0, 64, 0
2, 142690, Note_on_c, 0, 88, 88
2, 142786, Note_on_c, 0, 86, 68
2, 142816, Note_on_c, 0, 88, 0
2, 142839, Control_c, 0, 64, 127
2, 142856, Control_c, 0, 64, 0
2, 142893, Note_on_c, 0, 81, 69
2, 142925, Note_on_c, 0, 86, 0
2, 142958, Note_on_c, 0, 81, 0
2, 142996, Note_on_c, 0, 77, 31
2, 143009, Control_c, 0, 64, 127
2, 143015, Control_c, 0, 64, 0
2, 143020, Control_c, 0, 64, 127
2, 143056, Note_off_c, 0, 77, 0
2, 143081, Note_on_c, 0, 76, 64
2, 143120, Control_c, 0, 64, 0
2, 143152, Note_off_c, 0, 76, 0
2, 143183, Note_on_c, 0, 74, 47
2, 143207, Control_c, 0, 64, 127
2, 143235, Note_off_c, 0, 74, 0
2, 143276, Note_on_c, 0, 79, 82
2, 143294, Control_c, 0, 64, 0
2, 143372, Note_off_c, 0, 79, 0
2, 143454, Note_on_c, 0, 77, 76
2, 143545, Note_on_c, 0, 76, 61
2, 143633, Note_on_c, 0, 76, 0
2, 143633, Note_on_c, 0, 77, 0
2, 143647, Note_on_c, 0, 72, 68
2, 143656, Note_on_c, 0, 60, 22
2, 143679, Note_on_c, 0, 60, 0
2, 143712, Note_on_c, 0, 72, 0
2, 143736, Note_on_c, 0, 69, 29
2, 143798, Note_on_c, 0, 69, 0
2, 143802, Control_c, 0, 64, 127
2, 143825, Control_c, 0, 64, 0
2, 143827, Note_on_c, 0, 67, 62
2, 143895, Note_on_c, 0, 67, 0
2, 143919, Note_on_c, 0, 65, 35
2, 143990, Control_c, 0, 64, 127
2, 144019, Note_off_c, 0, 65, 0
2, 144039, Note_on_c, 0, 65, 32
2, 144041, Note_on_c, 0, 64, 20
2, 144082, Note_on_c, 0, 65, 0
2, 144090, Note_on_c, 0, 64, 0
2, 144117, Note_on_c, 0, 67, 64
2, 144130, Note_on_c, 0, 59, 31
2, 144171, Control_c, 0, 64, 0
2, 144177, Note_off_c, 0, 59, 0
2, 144229, Note_off_c, 0, 67, 0
2, 144233, Note_on_c, 0, 64, 48
2, 144281, Note_on_c, 0, 64, 0
2, 144318, Note_on_c, 0, 65, 43
2, 144409, Note_on_c, 0, 62, 42
2, 144463, Note_on_c, 0, 65, 0
2, 144468, Note_on_c, 0, 62, 0
2, 144508, Note_on_c, 0, 62, 35
2, 144564, Note_on_c, 0, 62, 0
2, 144611, Note_on_c, 0, 62, 62
2, 144680, Note_on_c, 0, 62, 0
2, 144712, Note_on_c, 0, 62, 80
2, 144766, Control_c, 0, 64, 127
2, 144776, Note_off_c, 0, 62, 0
2, 144800, Control_c, 0, 64, 0
2, 144803, Note_on_c, 0, 62, 50
2, 144867, Note_on_c, 0, 62, 0
2, 144905, Note_on_c, 0, 62, 57
2, 144959, Note_on_c, 0, 62, 0
2, 145004, Note_on_c, 0, 62, 62
2, 145057, Note_on_c, 0, 62, 0
2, 145094, Note_on_c, 0, 62, 74
2, 145250, Note_on_c, 0, 62, 0
2, 145292, Note_on_c, 0, 62, 80
2, 145417, Note_on_c, 0, 62, 0
2, 145477, Note_on_c, 0, 62, 55
2, 145496, Control_c, 0, 64, 127
2, 145548, Note_off_c, 0, 62, 0
2, 145566, Control_c, 0, 64, 0
2, 145578, Note_on_c, 0, 64, 60
2, 145627, Note_on_c, 0, 64, 0
2, 145641, Control_c, 0, 64, 127
2, 145663, Note_on_c, 0, 65, 36
2, 145743, Note_on_c, 0, 65, 0
2, 145770, Note_on_c, 0, 67, 36
2, 145815, Note_on_c, 0, 67, 0
2, 145845, Control_c, 0, 64, 0
2, 145865, Note_on_c, 0, 71, 55
2, 146023, Note_on_c, 0, 71, 0
2, 146049, Note_on_c, 0, 74, 66
2, 146137, Note_on_c, 0, 74, 0
2, 146164, Note_on_c, 0, 72, 61
2, 146177, Note_on_c, 0, 59, 25
2, 146178, Note_on_c, 0, 57, 43
2, 146180, Note_on_c, 0, 60, 38
2, 146182, Note_on_c, 0, 64, 16
2, 146246, Note_on_c, 0, 59, 0
2, 146407, Note_on_c, 0, 69, 59
2, 146488, Note_on_c, 0, 64, 0
2, 146499, Note_on_c, 0, 57, 0
2, 146503, Note_on_c, 0, 60, 0
2, 146510, Note_on_c, 0, 69, 0
2, 146605, Note_on_c, 0, 72, 0
2, 146610, Note_on_c, 0, 69, 56
2, 146619, Note_on_c, 0, 60, 37
2, 146622, Note_on_c, 0, 64, 22
2, 146632, Note_on_c, 0, 57, 30
2, 146739, Control_c, 0, 64, 127
2, 146776, Note_off_c, 0, 60, 0
2, 146780, Note_off_c, 0, 57, 0
2, 146785, Note_off_c, 0, 64, 0
2, 146896, Control_c, 0, 64, 0
2, 146924, Note_on_c, 0, 64, 49
2, 146931, Note_on_c, 0, 60, 41
2, 146948, Note_on_c, 0, 57, 30
2, 146963, Note_on_c, 0, 60, 0
2, 146972, Note_on_c, 0, 64, 0
2, 146975, Note_on_c, 0, 57, 0
2, 147187, Note_on_c, 0, 64, 46
2, 147197, Note_on_c, 0, 57, 39
2, 147199, Note_on_c, 0, 60, 36
2, 147606, Note_on_c, 0, 72, 1
2, 147624, Note_on_c, 0, 64, 0
2, 147625, Note_on_c, 0, 60, 0
2, 147626, Note_on_c, 0, 57, 0
2, 147781, Note_on_c, 0, 64, 39
2, 147788, Note_on_c, 0, 60, 38
2, 147812, Note_on_c, 0, 64, 0
2, 147814, Note_on_c, 0, 60, 0
2, 148047, Note_on_c, 0, 69, 0
2, 148070, Note_on_c, 0, 72, 0
2, 148074, Note_on_c, 0, 64, 24
2, 148082, Note_on_c, 0, 60, 35
2, 148083, Note_on_c, 0, 57, 33
2, 148345, Control_c, 0, 64, 127
2, 148576, Note_off_c, 0, 64, 0
2, 148649, Note_off_c, 0, 60, 0
2, 148677, Note_off_c, 0, 57, 0
2, 148923, Control_c, 0, 64, 0
2, 148944, Note_on_c, 0, 53, 30
2, 148972, Note_on_c, 0, 53, 0
2, 150444, Note_on_c, 0, 76, 15
2, 150446, Note_on_c, 0, 73, 15
2, 150451, Note_on_c, 0, 61, 15
2, 150454, Note_on_c, 0, 69, 15
2, 151488, Control_c, 0, 64, 127
2, 151782, Note_off_c, 0, 61, 0
2, 151878, Note_off_c, 0, 73, 0
2, 151904, Note_off_c, 0, 76, 0
2, 151913, Note_off_c, 0, 69, 0
2, 152013, Control_c, 0, 64, 0
2, 152085, Control_c, 0, 64, 127
2, 152142, Control_c, 0, 64, 0
2, 152564, Note_on_c, 0, 65, 17
2, 152565, Note_on_c, 0, 64, 17
2, 152568, Note_on_c, 0, 67, 17
2, 152593, Note_on_c, 0, 67, 0
2, 152595, Note_on_c, 0, 64, 0
2, 152605, Note_on_c, 0, 65, 0
2, 152675, Note_on_c, 0, 67, 17
2, 152677, Note_on_c, 0, 64, 17
2, 152677, Note_on_c, 0, 65, 17
2, 152711, Note_on_c, 0, 64, 0
2, 152720, Note_on_c, 0, 65, 0
2, 152721, Note_on_c, 0, 67, 0
2, 152866, Note_on_c, 0, 65, 17
2, 152867, Note_on_c, 0, 64, 17
2, 152867, Note_on_c, 0, 67, 17
2, 152899, Note_on_c, 0, 67, 0
2, 152903, Note_on_c, 0, 64, 0
2, 152907, Note_on_c, 0, 65, 0
2, 153046, Note_on_c, 0, 62, 17
2, 153076, Note_on_c, 0, 62, 0
2, 153132, Note_on_c, 0, 64, 18
2, 153135, Note_on_c, 0, 67, 18
2, 153138, Note_on_c, 0, 65, 18
2, 153282, Note_on_c, 0, 67, 0
2, 153298, Note_on_c, 0, 64, 0
2, 153299, Note_on_c, 0, 65, 0
2, 153325, Note_on_c, 0, 62, 18
2, 153387, Note_on_c, 0, 62, 0
2, 154674, Note_on_c, 0, 81, 19
2, 154675, Note_on_c, 0, 74, 19
2, 154792, Control_c, 0, 64, 127
2, 154828, Note_off_c, 0, 74, 0
2, 154831, Note_off_c, 0, 81, 0
2, 154859, Note_on_c, 0, 77, 19
2, 154870, Note_on_c, 0, 69, 19
2, 154930, Note_on_c, 0, 77, 0
2, 154955, Note_on_c, 0, 69, 0
2, 155065, Note_on_c, 0, 69, 20
2, 155090, Note_on_c, 0, 65, 20
2, 155310, Note_on_c, 0, 69, 0
2, 155325, Note_on_c, 0, 65, 0
2, 155812, Note_on_c, 0, 62, 21
2, 155814, Note_on_c, 0, 58, 21
2, 155819, Note_on_c, 0, 57, 21
2, 155840, Note_on_c, 0, 53, 21
2, 155854, Control_c, 0, 64, 0
2, 156154, Control_c, 0, 64, 127
2, 156306, Note_off_c, 0, 53, 0
2, 156315, Note_off_c, 0, 57, 0
2, 156340, Note_off_c, 0, 58, 0
2, 156347, Note_off_c, 0, 62, 0
2, 156592, Note_on_c, 0, 69, 21
2, 156606, Control_c, 0, 64, 0
2, 156608, Note_on_c, 0, 65, 21
2, 156609, Note_on_c, 0, 62, 21
2, 156624, Note_on_c, 0, 57, 21
2, 156633, Note_on_c, 0, 58, 21
2, 156633, Note_on_c, 0, 67, 21
2, 156658, Note_on_c, 0, 67, 0
2, 156992, Control_c, 0, 64, 127
2, 157281, Note_off_c, 0, 58, 0
2, 157315, Note_off_c, 0, 62, 0
2, 157319, Note_off_c, 0, 69, 0
2, 157325, Note_off_c, 0, 65, 0
2, 157456, Note_off_c, 0, 57, 0
2, 157867, Note_on_c, 0, 91, 23
2, 157878, Note_on_c, 0, 84, 23
2, 157897, Note_on_c, 0, 84, 0
2, 157920, Note_on_c, 0, 91, 0
2, 158130, Control_c, 0, 64, 0
2, 158133, Note_on_c, 0, 88, 23
2, 158137, Note_on_c, 0, 81, 23
2, 158144, Note_on_c, 0, 64, 23
2, 158149, Note_on_c, 0, 60, 23
2, 158154, Note_on_c, 0, 57, 23
2, 158157, Note_on_c, 0, 53, 23
2, 158253, Control_c, 0, 64, 127
2, 158321, Note_off_c, 0, 64, 0
2, 158338, Note_off_c, 0, 60, 0
2, 158346, Note_off_c, 0, 81, 0
2, 158369, Note_off_c, 0, 88, 0
2, 158425, Note_on_c, 0, 84, 23
2, 158438, Note_on_c, 0, 64, 24
2, 158445, Note_on_c, 0, 76, 24
2, 158458, Note_on_c, 0, 60, 24
2, 158476, Note_on_c, 0, 84, 0
2, 158507, Note_on_c, 0, 60, 0
2, 158516, Note_on_c, 0, 76, 0
2, 158525, Note_on_c, 0, 64, 0
2, 158723, Note_on_c, 0, 64, 24
2, 158731, Note_on_c, 0, 79, 24
2, 158733, Note_on_c, 0, 71, 24
2, 158739, Control_c, 0, 64, 0
2, 158740, Note_on_c, 0, 60, 24
2, 158750, Note_on_c, 0, 74, 24
2, 158778, Note_on_c, 0, 74, 0
2, 158835, Note_on_c, 0, 71, 0
2, 159028, Note_on_c, 0, 79, 0
2, 159046, Note_on_c, 0, 60, 0
2, 159053, Note_on_c, 0, 64, 0
2, 159073, Note_on_c, 0, 57, 0
2, 159083, Note_on_c, 0, 53, 0
2, 159655, Note_on_c, 0, 58, 25
2, 159658, Note_on_c, 0, 57, 25
2, 159659, Note_on_c, 0, 62, 25
2, 159659, Note_on_c, 0, 69, 25
2, 159739, Note_on_c, 0, 62, 0
2, 159746, Note_on_c, 0, 69, 0
2, 159752, Note_on_c, 0, 58, 0
2, 159768, Note_on_c, 0, 55, 25
2, 159772, Note_on_c, 0, 57, 0
2, 159841, Note_on_c, 0, 55, 0
2, 159858, Note_on_c, 0, 57, 25
2, 159864, Note_on_c, 0, 58, 25
2, 159865, Note_on_c, 0, 69, 25
2, 159866, Note_on_c, 0, 62, 25
2, 159887, Note_on_c, 0, 64, 25
2, 159917, Note_on_c, 0, 64, 0
2, 159984, Note_on_c, 0, 62, 0
2, 159987, Note_on_c, 0, 69, 0
2, 159992, Note_on_c, 0, 58, 0
2, 159996, Note_on_c, 0, 57, 0
2, 160159, Note_on_c, 0, 58, 25
2, 160168, Note_on_c, 0, 62, 25
2, 160169, Note_on_c, 0, 67, 25
2, 160172, Note_on_c, 0, 55, 25
2, 160176, Note_on_c, 0, 64, 25
2, 160236, Note_on_c, 0, 55, 0
2, 160256, Note_on_c, 0, 67, 0
2, 160256, Note_on_c, 0, 62, 0
2, 160262, Note_on_c, 0, 58, 0
2, 160274, Note_on_c, 0, 64, 0
2, 160625, Note_on_c, 0, 72, 26
2, 160628, Note_on_c, 0, 65, 26
2, 160628, Note_on_c, 0, 60, 26
2, 160630, Note_on_c, 0, 61, 26
2, 160633, Note_on_c, 0, 69, 26
2, 160759, Note_on_c, 0, 69, 0
2, 160767, Note_on_c, 0, 65, 0
2, 160767, Note_on_c, 0, 61, 0
2, 160769, Note_on_c, 0, 72, 0
2, 160782, Note_on_c, 0, 60, 0
2, 160908, Note_on_c, 0, 70, 26
2, 160912, Note_on_c, 0, 58, 26
2, 160912, Note_on_c, 0, 61, 26
2, 160915, Note_on_c, 0, 65, 26
2, 161046, Note_on_c, 0, 65, 0
2, 161055, Note_on_c, 0, 70, 0
2, 161059, Note_on_c, 0, 58, 0
2, 161075, Note_on_c, 0, 61, 0
2, 161184, Note_on_c, 0, 57, 27
2, 161186, Note_on_c, 0, 55, 27
2, 161189, Note_on_c, 0, 53, 27
2, 161191, Note_on_c, 0, 64, 27
2, 161193, Note_on_c, 0, 67, 27
2, 161194, Note_on_c, 0, 60, 27
2, 161245, Note_on_c, 0, 60, 0
2, 161261, Note_on_c, 0, 64, 0
2, 161264, Note_on_c, 0, 55, 0
2, 161266, Note_on_c, 0, 57, 0
2, 161274, Note_on_c, 0, 67, 0
2, 161282, Note_on_c, 0, 53, 0
2, 161386, Note_on_c, 0, 67, 27
2, 161388, Note_on_c, 0, 64, 27
2, 161389, Note_on_c, 0, 60, 27
2, 161391, Note_on_c, 0, 57, 27
2, 161391, Note_on_c, 0, 53, 27
2, 161393, Note_on_c, 0, 55, 27
2, 161493, Note_on_c, 0, 60, 0
2, 161496, Note_on_c, 0, 64, 0
2, 161497, Note_on_c, 0, 55, 0
2, 161503, Note_on_c, 0, 53, 0
2, 161503, Note_on_c, 0, 67, 0
2, 161507, Note_on_c, 0, 57, 0
2, 163220, Control_c, 0, 64, 127
2, 163226, Control_c, 0, 64, 0
2, 163399, Note_on_c, 0, 76, 29
2, 163404, Note_on_c, 0, 64, 29
2, 163404, Note_on_c, 0, 73, 29
2, 163404, Note_on_c, 0, 69, 29
2, 163408, Note_on_c, 0, 61, 29
2, 163448, Note_on_c, 0, 76, 0
2, 163451, Note_on_c, 0, 64, 0
2, 163453, Note_on_c, 0, 69, 0
2, 163464, Note_on_c, 0, 73, 0
2, 163468, Note_on_c, 0, 61, 0
2, 163504, Note_on_c, 0, 61, 29
2, 163505, Note_on_c, 0, 76, 29
2, 163509, Note_on_c, 0, 64, 29
2, 163510, Note_on_c, 0, 73, 29
2, 163512, Note_on_c, 0, 69, 29
2, 163630, Note_on_c, 0, 73, 0
2, 163639, Note_on_c, 0, 69, 0
2, 163643, Note_on_c, 0, 64, 0
2, 163662, Note_on_c, 0, 76, 0
2, 163683, Note_on_c, 0, 73, 29
2, 163699, Note_on_c, 0, 57, 29
2, 163700, Note_on_c, 0, 61, 0
2, 163729, Note_on_c, 0, 57, 0
2, 163738, Note_on_c, 0, 73, 0
2, 163799, Note_on_c, 0, 76, 30
2, 163800, Note_on_c, 0, 64, 30
2, 163803, Note_on_c, 0, 73, 30
2, 163806, Note_on_c, 0, 69, 30
2, 163810, Note_on_c, 0, 61, 30
2, 163850, Note_on_c, 0, 64, 0
2, 163853, Note_on_c, 0, 69, 0
2, 163854, Note_on_c, 0, 76, 0
2, 163859, Note_on_c, 0, 73, 0
2, 163864, Note_on_c, 0, 61, 0
2, 163896, Note_on_c, 0, 76, 30
2, 163896, Note_on_c, 0, 61, 30
2, 163899, Note_on_c, 0, 69, 30
2, 163902, Note_on_c, 0, 64, 30
2, 163904, Note_on_c, 0, 73, 30
2, 164001, Note_on_c, 0, 73, 0
2, 164026, Note_on_c, 0, 69, 0
2, 164033, Note_on_c, 0, 64, 0
2, 164053, Note_on_c, 0, 76, 0
2, 164065, Note_on_c, 0, 64, 30
2, 164069, Note_on_c, 0, 73, 30
2, 164081, Note_on_c, 0, 57, 30
2, 164101, Note_on_c, 0, 61, 0
2, 164115, Note_on_c, 0, 64, 0
2, 164137, Note_on_c, 0, 57, 0
2, 164143, Note_on_c, 0, 73, 0
2, 164188, Note_on_c, 0, 76, 30
2, 164193, Note_on_c, 0, 65, 30
2, 164194, Note_on_c, 0, 72, 30
2, 164196, Note_on_c, 0, 69, 30
2, 164201, Note_on_c, 0, 60, 30
2, 164247, Note_on_c, 0, 69, 0
2, 164256, Note_on_c, 0, 72, 0
2, 164259, Note_on_c, 0, 65, 0
2, 164260, Note_on_c, 0, 60, 0
2, 164264, Note_on_c, 0, 76, 0
2, 164291, Note_on_c, 0, 76, 30
2, 164295, Note_on_c, 0, 65, 30
2, 164298, Note_on_c, 0, 60, 30
2, 164299, Note_on_c, 0, 69, 30
2, 164304, Note_on_c, 0, 72, 30
2, 164398, Note_on_c, 0, 72, 0
2, 164411, Note_on_c, 0, 69, 0
2, 164419, Note_on_c, 0, 65, 0
2, 164436, Note_on_c, 0, 76, 0
2, 164465, Note_on_c, 0, 72, 30
2, 164468, Note_on_c, 0, 57, 30
2, 164472, Note_on_c, 0, 65, 30
2, 164474, Note_on_c, 0, 60, 0
2, 164525, Note_on_c, 0, 65, 0
2, 164526, Note_on_c, 0, 72, 0
2, 164583, Note_on_c, 0, 76, 30
2, 164588, Note_on_c, 0, 72, 30
2, 164590, Note_on_c, 0, 65, 30
2, 164594, Note_on_c, 0, 69, 30
2, 164598, Note_on_c, 0, 60, 30
2, 164601, Note_on_c, 0, 71, 30
2, 164622, Note_on_c, 0, 71, 0
2, 164625, Note_on_c, 0, 57, 0
2, 164643, Note_on_c, 0, 69, 0
2, 164645, Note_on_c, 0, 65, 0
2, 164648, Note_on_c, 0, 60, 0
2, 164653, Note_on_c, 0, 72, 0
2, 164685, Note_on_c, 0, 60, 31
2, 164690, Note_on_c, 0, 65, 31
2, 164694, Note_on_c, 0, 69, 31
2, 164698, Note_on_c, 0, 72, 31
2, 164791, Note_on_c, 0, 72, 0
2, 164804, Note_on_c, 0, 69, 0
2, 164814, Note_on_c, 0, 65, 0
2, 164822, Note_on_c, 0, 76, 0
2, 164844, Note_on_c, 0, 60, 0
2, 164849, Note_on_c, 0, 65, 31
2, 164853, Note_on_c, 0, 72, 31
2, 164855, Note_on_c, 0, 69, 31
2, 164857, Note_on_c, 0, 57, 31
2, 164905, Note_on_c, 0, 69, 0
2, 164909, Note_on_c, 0, 65, 0
2, 164914, Note_on_c, 0, 72, 0
2, 164917, Note_on_c, 0, 57, 0
2, 167788, Control_c, 0, 64, 127
2, 167872, Control_c, 0, 64, 0
2, 167895, Note_on_c, 0, 58, 34
2, 167897, Note_on_c, 0, 69, 34
2, 167899, Note_on_c, 0, 62, 34
2, 167904, Note_on_c, 0, 57, 34
2, 167908, Note_on_c, 0, 65, 34
2, 168160, Note_on_c, 0, 58, 0
2, 168167, Note_on_c, 0, 62, 0
2, 168171, Note_on_c, 0, 65, 0
2, 168172, Note_on_c, 0, 69, 0
2, 168202, Note_on_c, 0, 58, 35
2, 168205, Note_on_c, 0, 67, 35
2, 168215, Note_on_c, 0, 62, 35
2, 168219, Note_on_c, 0, 55, 35
2, 168228, Note_on_c, 0, 57, 0
2, 168393, Note_on_c, 0, 62, 0
2, 168394, Note_on_c, 0, 58, 0
2, 168428, Note_on_c, 0, 67, 0
2, 168468, Note_on_c, 0, 53, 35
2, 168472, Note_on_c, 0, 58, 35
2, 168478, Note_on_c, 0, 65, 35
2, 168479, Note_on_c, 0, 55, 0
2, 168488, Note_on_c, 0, 62, 35
2, 168568, Note_on_c, 0, 62, 0
2, 168613, Note_on_c, 0, 58, 0
2, 168618, Note_on_c, 0, 53, 0
2, 168663, Note_on_c, 0, 58, 35
2, 168664, Note_on_c, 0, 62, 35
2, 168667, Note_on_c, 0, 50, 35
2, 168712, Note_on_c, 0, 65, 0
2, 168749, Note_on_c, 0, 62, 0
2, 168765, Control_c, 0, 64, 127
2, 168782, Note_off_c, 0, 58, 0
2, 168787, Note_off_c, 0, 50, 0
2, 168848, Control_c, 0, 64, 0
2, 168868, Note_on_c, 0, 64, 35
2, 168868, Note_on_c, 0, 61, 35
2, 168870, Note_on_c, 0, 57, 35
2, 168882, Note_on_c, 0, 49, 35
2, 169473, Control_c, 0, 64, 127
2, 169594, Note_off_c, 0, 57, 0
2, 169667, Note_off_c, 0, 61, 0
2, 169676, Note_off_c, 0, 64, 0
2, 169711, Note_off_c, 0, 49, 0
2, 170188, Control_c, 0, 64, 0
2, 170188, Note_on_c, 0, 73, 37
2, 170189, Note_on_c, 0, 79, 37
2, 170190, Note_on_c, 0, 76, 37
2, 170192, Note_on_c, 0, 61, 37
2, 170193, Note_on_c, 0, 69, 37
2, 170273, Note_on_c, 0, 76, 0
2, 170280, Note_on_c, 0, 79, 0
2, 170298, Note_on_c, 0, 69, 0
2, 170305, Note_on_c, 0, 73, 0
2, 170305, Control_c, 0, 64, 127
2, 170355, Control_c, 0, 64, 0
2, 170374, Note_on_c, 0, 76, 37
2, 170380, Note_on_c, 0, 69, 37
2, 170383, Note_on_c, 0, 72, 37
2, 170391, Note_on_c, 0, 61, 0
2, 170395, Note_on_c, 0, 60, 37
2, 170735, Control_c, 0, 64, 127
2, 171025, Note_off_c, 0, 60, 0
2, 171026, Note_off_c, 0, 72, 0
2, 171042, Note_off_c, 0, 69, 0
2, 171102, Note_off_c, 0, 76, 0
2, 171183, Note_on_c, 0, 69, 38
2, 171184, Note_on_c, 0, 64, 38
2, 171184, Note_on_c, 0, 72, 38
2, 171190, Note_on_c, 0, 60, 38
2, 171192, Control_c, 0, 64, 0
2, 171320, Control_c, 0, 64, 127
2, 171447, Note_off_c, 0, 64, 0
2, 171452, Note_off_c, 0, 69, 0
2, 171453, Note_off_c, 0, 72, 0
2, 171466, Note_off_c, 0, 60, 0
2, 171726, Note_on_c, 0, 74, 38
2, 171727, Note_on_c, 0, 62, 38
2, 171728, Note_on_c, 0, 67, 38
2, 171730, Note_on_c, 0, 70, 38
2, 171731, Note_on_c, 0, 63, 38
2, 171739, Control_c, 0, 64, 0
2, 171951, Control_c, 0, 64, 127
2, 172001, Note_off_c, 0, 63, 0
2, 172004, Note_off_c, 0, 74, 0
2, 172008, Note_off_c, 0, 67, 0
2, 172019, Note_off_c, 0, 70, 0
2, 172034, Control_c, 0, 64, 0
2, 172043, Note_on_c, 0, 63, 39
2, 172049, Note_on_c, 0, 70, 39
2, 172050, Note_on_c, 0, 67, 39
2, 172051, Note_on_c, 0, 72, 39
2, 172061, Note_on_c, 0, 60, 39
2, 172079, Note_on_c, 0, 62, 0
2, 172191, Control_c, 0, 64, 127
2, 172248, Note_off_c, 0, 67, 0
2, 172252, Note_off_c, 0, 70, 0
2, 172264, Note_off_c, 0, 63, 0
2, 172293, Note_off_c, 0, 72, 0
2, 172314, Control_c, 0, 64, 0
2, 172315, Note_on_c, 0, 63, 39
2, 172315, Note_on_c, 0, 67, 39
2, 172319, Note_on_c, 0, 60, 0
2, 172321, Note_on_c, 0, 59, 39
2, 172323, Note_on_c, 0, 71, 39
2, 172432, Note_on_c, 0, 63, 0
2, 172460, Note_on_c, 0, 67, 0
2, 172465, Note_on_c, 0, 71, 0
2, 172505, Note_on_c, 0, 59, 0
2, 172508, Note_on_c, 0, 72, 39
2, 172510, Note_on_c, 0, 63, 39
2, 172513, Note_on_c, 0, 67, 39
2, 172522, Note_on_c, 0, 60, 39
2, 172558, Note_on_c, 0, 67, 0
2, 172607, Note_on_c, 0, 63, 0
2, 172611, Note_on_c, 0, 60, 0
2, 172616, Note_on_c, 0, 72, 0
2, 172627, Control_c, 0, 64, 127
2, 172671, Control_c, 0, 64, 0
2, 172708, Note_on_c, 0, 66, 40
2, 172709, Note_on_c, 0, 74, 40
2, 172710, Note_on_c, 0, 63, 40
2, 172717, Note_on_c, 0, 69, 40
2, 172721, Note_on_c, 0, 62, 40
2, 172899, Control_c, 0, 64, 127
2, 172959, Note_off_c, 0, 74, 0
2, 172971, Note_off_c, 0, 63, 0
2, 172974, Note_off_c, 0, 69, 0
2, 172985, Note_off_c, 0, 66, 0
2, 173021, Note_off_c, 0, 62, 0
2, 173204, Note_on_c, 0, 78, 40
2, 173207, Note_on_c, 0, 74, 40
2, 173211, Note_on_c, 0, 69, 40
2, 173212, Control_c, 0, 64, 0
2, 173216, Note_on_c, 0, 62, 40
2, 173286, Note_on_c, 0, 62, 0
2, 173290, Control_c, 0, 64, 127
2, 173312, Note_off_c, 0, 74, 0
2, 173349, Note_off_c, 0, 78, 0
2, 173353, Note_off_c, 0, 69, 0
2, 173453, Control_c, 0, 64, 0
2, 173456, Note_on_c, 0, 77, 40
2, 173458, Note_on_c, 0, 65, 40
2, 173460, Note_on_c, 0, 61, 40
2, 173463, Note_on_c, 0, 72, 40
2, 173472, Note_on_c, 0, 60, 40
2, 173809, Control_c, 0, 64, 127
2, 173934, Note_off_c, 0, 72, 0
2, 173943, Note_off_c, 0, 77, 0
2, 174021, Note_off_c, 0, 65, 0
2, 174021, Note_off_c, 0, 60, 0
2, 174042, Note_off_c, 0, 61, 0
2, 174480, Control_c, 0, 64, 0
2, 174747, Note_on_c, 0, 96, 42
2, 174755, Note_on_c, 0, 89, 42
2, 174757, Note_on_c, 0, 61, 42
2, 174759, Note_on_c, 0, 60, 42
2, 174760, Note_on_c, 0, 84, 42
2, 174765, Note_on_c, 0, 65, 42
2, 174795, Note_on_c, 0, 65, 0
2, 174800, Note_on_c, 0, 89, 0
2, 174803, Note_on_c, 0, 96, 0
2, 174804, Note_on_c, 0, 84, 0
2, 174814, Note_on_c, 0, 60, 0
2, 174827, Note_on_c, 0, 61, 0
2, 174902, Note_on_c, 0, 94, 42
2, 174915, Note_on_c, 0, 61, 42
2, 174962, Note_on_c, 0, 94, 0
2, 174971, Note_on_c, 0, 61, 0
2, 175010, Note_on_c, 0, 61, 42
2, 175014, Note_on_c, 0, 65, 42
2, 175018, Note_on_c, 0, 84, 42
2, 175019, Note_on_c, 0, 96, 42
2, 175020, Note_on_c, 0, 89, 42
2, 175026, Note_on_c, 0, 55, 42
2, 175111, Note_on_c, 0, 96, 0
2, 175112, Note_on_c, 0, 84, 0
2, 175117, Note_on_c, 0, 55, 0
2, 175120, Note_on_c, 0, 89, 0
2, 175158, Note_on_c, 0, 65, 0
2, 175165, Note_on_c, 0, 61, 0
2, 175290, Note_on_c, 0, 96, 43
2, 175296, Note_on_c, 0, 89, 43
2, 175299, Note_on_c, 0, 61, 43
2, 175299, Note_on_c, 0, 84, 43
2, 175304, Note_on_c, 0, 65, 43
2, 175308, Note_on_c, 0, 92, 43
2, 175312, Note_on_c, 0, 55, 43
2, 175328, Note_on_c, 0, 92, 0
2, 175361, Note_on_c, 0, 89, 0
2, 175366, Note_on_c, 0, 55, 0
2, 175373, Note_on_c, 0, 84, 0
2, 175387, Note_on_c, 0, 96, 0
2, 175387, Note_on_c, 0, 65, 0
2, 175400, Note_on_c, 0, 61, 0
2, 175508, Note_on_c, 0, 94, 43
2, 175553, Note_on_c, 0, 94, 0
2, 175600, Note_on_c, 0, 84, 43
2, 175601, Note_on_c, 0, 96, 43
2, 175603, Note_on_c, 0, 89, 43
2, 175603, Note_on_c, 0, 55, 43
2, 175607, Note_on_c, 0, 65, 43
2, 175608, Note_on_c, 0, 61, 43
2, 175708, Note_on_c, 0, 84, 0
2, 175717, Note_on_c, 0, 89, 0
2, 175722, Note_on_c, 0, 96, 0
2, 175726, Note_on_c, 0, 55, 0
2, 175731, Note_on_c, 0, 65, 0
2, 175764, Note_on_c, 0, 61, 0
2, 175889, Note_on_c, 0, 96, 43
2, 175893, Note_on_c, 0, 89, 43
2, 175897, Note_on_c, 0, 85, 43
2, 175898, Note_on_c, 0, 61, 43
2, 175901, Note_on_c, 0, 64, 43
2, 175902, Note_on_c, 0, 55, 43
2, 175910, Note_on_c, 0, 93, 43
2, 175968, Note_on_c, 0, 93, 0
2, 175983, Note_on_c, 0, 85, 0
2, 175994, Note_on_c, 0, 89, 0
2, 176001, Note_on_c, 0, 96, 0
2, 176005, Note_on_c, 0, 55, 0
2, 176012, Note_on_c, 0, 64, 0
2, 176013, Note_on_c, 0, 61, 0
2, 176112, Note_on_c, 0, 93, 43
2, 176148, Note_on_c, 0, 93, 0
2, 176189, Note_on_c, 0, 96, 44
2, 176192, Note_on_c, 0, 61, 44
2, 176192, Note_on_c, 0, 85, 44
2, 176195, Note_on_c, 0, 89, 44
2, 176195, Note_on_c, 0, 55, 44
2, 176198, Note_on_c, 0, 93, 44
2, 176199, Note_on_c, 0, 64, 44
2, 176334, Control_c, 0, 64, 127
2, 176335, Note_off_c, 0, 55, 0
2, 176341, Note_off_c, 0, 89, 0
2, 176349, Note_off_c, 0, 93, 0
2, 176359, Note_off_c, 0, 85, 0
2, 176364, Note_off_c, 0, 64, 0
2, 176364, Note_off_c, 0, 96, 0
2, 176396, Note_off_c, 0, 61, 0
2, 176462, Control_c, 0, 64, 0
2, 176495, Note_on_c, 0, 61, 44
2, 176499, Note_on_c, 0, 65, 44
2, 176502, Note_on_c, 0, 58, 44
2, 176511, Note_on_c, 0, 54, 44
2, 177411, Control_c, 0, 64, 127
2, 177489, Control_c, 0, 64, 0
2, 177540, Control_c, 0, 64, 127
2, 177879, Note_off_c, 0, 65, 0
2, 177949, Note_off_c, 0, 54, 0
2, 177951, Note_off_c, 0, 61, 0
2, 178023, Note_off_c, 0, 58, 0
2, 178076, Note_on_c, 0, 65, 46
2, 178078, Note_on_c, 0, 72, 46
2, 178079, Note_on_c, 0, 69, 46
2, 178083, Control_c, 0, 64, 0
2, 178086, Note_on_c, 0, 64, 46
2, 178089, Note_on_c, 0, 54, 46
2, 178091, Note_on_c, 0, 60, 46
2, 178410, Control_c, 0, 64, 127
2, 178439, Note_off_c, 0, 65, 0
2, 178467, Note_off_c, 0, 69, 0
2, 178489, Note_off_c, 0, 72, 0
2, 178592, Note_off_c, 0, 60, 0
2, 178606, Note_off_c, 0, 64, 0
2, 178631, Note_off_c, 0, 54, 0
2, 179046, Note_on_c, 0, 84, 47
2, 179048, Note_on_c, 0, 60, 47
2, 179049, Note_on_c, 0, 77, 47
2, 179052, Control_c, 0, 64, 0
2, 179053, Note_on_c, 0, 65, 47
2, 179053, Note_on_c, 0, 54, 47
2, 179159, Control_c, 0, 64, 127
2, 179230, Note_off_c, 0, 65, 0
2, 179243, Note_off_c, 0, 60, 0
2, 179247, Note_off_c, 0, 54, 0
2, 179249, Note_off_c, 0, 77, 0
2, 179270, Note_off_c, 0, 84, 0
2, 179333, Note_on_c, 0, 81, 47
2, 179335, Note_on_c, 0, 77, 47
2, 179343, Note_on_c, 0, 60, 47
2, 179343, Note_on_c, 0, 72, 47
2, 179344, Note_on_c, 0, 65, 47
2, 179345, Note_on_c, 0, 54, 47
2, 179348, Control_c, 0, 64, 0
2, 179420, Control_c, 0, 64, 127
2, 179434, Note_off_c, 0, 65, 0
2, 179474, Note_off_c, 0, 77, 0
2, 179501, Note_off_c, 0, 54, 0
2, 179502, Note_off_c, 0, 72, 0
2, 179514, Note_off_c, 0, 81, 0
2, 179568, Note_off_c, 0, 60, 0
2, 179601, Note_on_c, 0, 60, 47
2, 179608, Note_on_c, 0, 63, 47
2, 179620, Control_c, 0, 64, 0
2, 179621, Note_on_c, 0, 56, 47
2, 179623, Note_on_c, 0, 77, 47
2, 179626, Note_on_c, 0, 53, 47
2, 179627, Note_on_c, 0, 72, 47
2, 179956, Control_c, 0, 64, 127
2, 180029, Note_off_c, 0, 77, 0
2, 180066, Note_off_c, 0, 72, 0
2, 180068, Note_off_c, 0, 63, 0
2, 180080, Note_off_c, 0, 60, 0
2, 180104, Note_off_c, 0, 53, 0
2, 180117, Note_off_c, 0, 56, 0
2, 180574, Note_on_c, 0, 63, 48
2, 180582, Note_on_c, 0, 55, 48
2, 180582, Note_on_c, 0, 51, 48
2, 180584, Note_on_c, 0, 58, 48
2, 180587, Control_c, 0, 64, 0
2, 180588, Note_on_c, 0, 60, 48
2, 180641, Note_on_c, 0, 58, 0
2, 180647, Note_on_c, 0, 55, 0
2, 180656, Note_on_c, 0, 60, 0
2, 180662, Note_on_c, 0, 63, 0
2, 180669, Note_on_c, 0, 51, 0
2, 180691, Note_on_c, 0, 63, 49
2, 180702, Note_on_c, 0, 51, 49
2, 180703, Note_on_c, 0, 55, 49
2, 180708, Note_on_c, 0, 58, 49
2, 180713, Note_on_c, 0, 60, 49
2, 180750, Note_on_c, 0, 55, 0
2, 180752, Note_on_c, 0, 60, 0
2, 180753, Note_on_c, 0, 58, 0
2, 180764, Note_on_c, 0, 51, 0
2, 180770, Note_on_c, 0, 63, 0
2, 180872, Note_on_c, 0, 63, 49
2, 180880, Note_on_c, 0, 58, 49
2, 180882, Note_on_c, 0, 60, 49
2, 180883, Note_on_c, 0, 51, 49
2, 180893, Note_on_c, 0, 55, 49
2, 180914, Note_on_c, 0, 55, 0
2, 180932, Note_on_c, 0, 58, 0
2, 180936, Note_on_c, 0, 60, 0
2, 180941, Note_on_c, 0, 51, 0
2, 180945, Note_on_c, 0, 63, 0
2, 180958, Note_on_c, 0, 49, 49
2, 181157, Note_on_c, 0, 49, 0
2, 181158, Note_on_c, 0, 64, 49
2, 181161, Note_on_c, 0, 53, 49
2, 181164, Note_on_c, 0, 59, 49
2, 181167, Note_on_c, 0, 57, 49
2, 181172, Note_on_c, 0, 52, 49
2, 181241, Note_on_c, 0, 53, 0
2, 181249, Note_on_c, 0, 57, 0
2, 181267, Note_on_c, 0, 59, 0
2, 181278, Note_on_c, 0, 64, 0
2, 181289, Note_on_c, 0, 52, 0
2, 181552, Control_c, 0, 64, 127
2, 181630, Control_c, 0, 64, 0
2, 181649, Note_on_c, 0, 76, 50
2, 181654, Note_on_c, 0, 69, 50
2, 181655, Note_on_c, 0, 65, 50
2, 181659, Note_on_c, 0, 71, 50
2, 181661, Note_on_c, 0, 64, 50
2, 181674, Note_on_c, 0, 65, 0
2, 181683, Note_on_c, 0, 71, 0
2, 181686, Note_on_c, 0, 69, 0
2, 181689, Note_on_c, 0, 64, 0
2, 181703, Note_on_c, 0, 76, 0
2, 181904, Note_on_c, 0, 73, 50
2, 181906, Note_on_c, 0, 64, 50
2, 181907, Note_on_c, 0, 59, 50
2, 181908, Note_on_c, 0, 76, 50
2, 181910, Note_on_c, 0, 53, 50
2, 181910, Note_on_c, 0, 69, 50
2, 182060, Control_c, 0, 64, 127
2, 182325, Note_off_c, 0, 59, 0
2, 182346, Note_off_c, 0, 64, 0
2, 182396, Note_off_c, 0, 69, 0
2, 182401, Note_off_c, 0, 53, 0
2, 182432, Note_off_c, 0, 76, 0
2, 182437, Note_off_c, 0, 73, 0
2, 182688, Note_on_c, 0, 77, 51
2, 182692, Note_on_c, 0, 74, 51
2, 182699, Note_on_c, 0, 70, 51
2, 182700, Note_on_c, 0, 57, 51
2, 182703, Control_c, 0, 64, 0
2, 182705, Note_on_c, 0, 58, 51
2, 182707, Note_on_c, 0, 69, 51
2, 182707, Note_on_c, 0, 62, 51
2, 183070, Control_c, 0, 64, 127
2, 183677, Note_off_c, 0, 57, 0
2, 183707, Note_off_c, 0, 69, 0
2, 183708, Note_off_c, 0, 62, 0
2, 183721, Note_off_c, 0, 58, 0
2, 183736, Note_off_c, 0, 70, 0
2, 183749, Note_off_c, 0, 74, 0
2, 183763, Note_off_c, 0, 77, 0
2, 184225, Note_on_c, 0, 79, 53
2, 184230, Note_on_c, 0, 70, 53
2, 184231, Note_on_c, 0, 73, 53
2, 184231, Note_on_c, 0, 76, 53
2, 184236, Note_on_c, 0, 66, 53
2, 184237, Note_on_c, 0, 61, 53
2, 184243, Note_on_c, 0, 55, 53
2, 184260, Control_c, 0, 64, 0
2, 184495, Control_c, 0, 64, 127
2, 184744, Note_off_c, 0, 76, 0
2, 184766, Note_off_c, 0, 66, 0
2, 184790, Note_off_c, 0, 79, 0
2, 184808, Note_off_c, 0, 70, 0
2, 184820, Note_off_c, 0, 73, 0
2, 184860, Note_off_c, 0, 55, 0
2, 184887, Note_off_c, 0, 61, 0
2, 185372, Control_c, 0, 64, 0
2, 185373, Note_on_c, 0, 61, 54
2, 185374, Note_on_c, 0, 70, 54
2, 185375, Note_on_c, 0, 73, 54
2, 185377, Note_on_c, 0, 76, 54
2, 185378, Note_on_c, 0, 64, 54
2, 185381, Note_on_c, 0, 67, 54
2, 185384, Note_on_c, 0, 55, 54
2, 185500, Control_c, 0, 64, 127
2, 185508, Note_off_c, 0, 64, 0
2, 185521, Note_off_c, 0, 61, 0
2, 185522, Note_off_c, 0, 55, 0
2, 185536, Note_off_c, 0, 76, 0
2, 185548, Note_off_c, 0, 73, 0
2, 185551, Note_off_c, 0, 70, 0
2, 185556, Note_off_c, 0, 67, 0
2, 185768, Note_on_c, 0, 64, 54
2, 185779, Control_c, 0, 64, 0
2, 185779, Note_on_c, 0, 59, 54
2, 185782, Note_on_c, 0, 57, 54
2, 185790, Note_on_c, 0, 53, 54
2, 185802, Note_on_c, 0, 50, 54
2, 186649, Control_c, 0, 64, 127
2, 186760, Note_off_c, 0, 64, 0
2, 186848, Note_off_c, 0, 59, 0
2, 186863, Note_off_c, 0, 57, 0
2, 186873, Note_off_c, 0, 53, 0
2, 186900, Note_off_c, 0, 50, 0
2, 187298, Note_on_c, 0, 86, 56
2, 187301, Note_on_c, 0, 74, 56
2, 187308, Control_c, 0, 64, 0
2, 187310, Note_on_c, 0, 50, 56
2, 187431, Control_c, 0, 64, 127
2, 187566, Note_off_c, 0, 74, 0
2, 187584, Note_off_c, 0, 86, 0
2, 187686, Note_off_c, 0, 50, 0
2, 187696, Note_on_c, 0, 88, 56
2, 187698, Note_on_c, 0, 76, 56
2, 187699, Note_on_c, 0, 52, 56
2, 187716, Control_c, 0, 64, 0
2, 187838, Control_c, 0, 64, 127
2, 187861, Note_off_c, 0, 76, 0
2, 187867, Note_off_c, 0, 88, 0
2, 188067, Control_c, 0, 64, 0
2, 188068, Note_on_c, 0, 89, 57
2, 188069, Note_on_c, 0, 77, 57
2, 188070, Note_on_c, 0, 52, 0
2, 188070, Note_on_c, 0, 53, 57
2, 188105, Note_on_c, 0, 89, 0
2, 188142, Note_on_c, 0, 77, 0
2, 188145, Control_c, 0, 64, 127
2, 188346, Note_on_c, 0, 69, 57
2, 188352, Control_c, 0, 64, 0
2, 188355, Note_on_c, 0, 57, 57
2, 188373, Note_on_c, 0, 53, 0
2, 188407, Control_c, 0, 64, 127
2, 188410, Note_off_c, 0, 57, 0
2, 188493, Note_off_c, 0, 69, 0
2, 188625, Note_on_c, 0, 62, 58
2, 188630, Note_on_c, 0, 58, 58
2, 188633, Note_on_c, 0, 72, 58
2, 188636, Note_on_c, 0, 60, 58
2, 188642, Control_c, 0, 64, 0
2, 188887, Control_c, 0, 64, 127
2, 189040, Note_off_c, 0, 72, 0
2, 189218, Note_on_c, 0, 84, 58
2, 189220, Note_on_c, 0, 77, 58
2, 189431, Note_on_c, 0, 62, 0
2, 189432, Note_on_c, 0, 60, 0
2, 189432, Note_on_c, 0, 77, 0
2, 189438, Note_on_c, 0, 58, 0
2, 189450, Note_on_c, 0, 84, 0
2, 189508, Note_on_c, 0, 72, 59
2, 189510, Note_on_c, 0, 81, 59
2, 189523, Note_on_c, 0, 58, 59
2, 189524, Control_c, 0, 64, 0
2, 189525, Note_on_c, 0, 62, 59
2, 189528, Note_on_c, 0, 60, 59
2, 189736, Control_c, 0, 64, 127
2, 189820, Note_off_c, 0, 81, 0
2, 189854, Note_off_c, 0, 72, 0
2, 189910, Note_off_c, 0, 60, 0
2, 189911, Note_off_c, 0, 62, 0
2, 189919, Note_off_c, 0, 58, 0
2, 190160, Control_c, 0, 64, 0
2, 190166, Note_on_c, 0, 65, 59
2, 190170, Note_on_c, 0, 62, 59
2, 190170, Note_on_c, 0, 58, 59
2, 190171, Note_on_c, 0, 72, 59
2, 190174, Note_on_c, 0, 60, 59
2, 190174, Note_on_c, 0, 69, 59
2, 190187, Note_on_c, 0, 65, 0
2, 190188, Note_on_c, 0, 72, 0
2, 190190, Note_on_c, 0, 62, 0
2, 190193, Note_on_c, 0, 60, 0
2, 190194, Note_on_c, 0, 69, 0
2, 190201, Note_on_c, 0, 58, 0
2, 190360, Note_on_c, 0, 58, 59
2, 190361, Note_on_c, 0, 65, 59
2, 190363, Note_on_c, 0, 62, 59
2, 190364, Note_on_c, 0, 72, 59
2, 190365, Note_on_c, 0, 60, 59
2, 190365, Note_on_c, 0, 69, 59
2, 190384, Note_on_c, 0, 69, 0
2, 190385, Note_on_c, 0, 65, 0
2, 190385, Note_on_c, 0, 62, 0
2, 190385, Note_on_c, 0, 60, 0
2, 190386, Note_on_c, 0, 72, 0
2, 190402, Note_on_c, 0, 58, 0
2, 190650, Note_on_c, 0, 65, 60
2, 190651, Note_on_c, 0, 69, 60
2, 190654, Note_on_c, 0, 72, 60
2, 190664, Note_on_c, 0, 58, 60
2, 190664, Note_on_c, 0, 62, 60
2, 190673, Note_on_c, 0, 60, 60
2, 190674, Note_on_c, 0, 69, 0
2, 190677, Note_on_c, 0, 65, 0
2, 190679, Note_on_c, 0, 72, 0
2, 190688, Note_on_c, 0, 62, 0
2, 190694, Note_on_c, 0, 60, 0
2, 190708, Note_on_c, 0, 58, 0
2, 190923, Note_on_c, 0, 65, 60
2, 190923, Note_on_c, 0, 72, 60
2, 190925, Note_on_c, 0, 69, 60
2, 190925, Note_on_c, 0, 58, 60
2, 190925, Note_on_c, 0, 62, 60
2, 190930, Note_on_c, 0, 60, 60
2, 190942, Note_on_c, 0, 72, 0
2, 190943, Note_on_c, 0, 65, 0
2, 190944, Note_on_c, 0, 69, 0
2, 190949, Note_on_c, 0, 60, 0
2, 190949, Note_on_c, 0, 62, 0
2, 190971, Note_on_c, 0, 58, 0
2, 191528, Note_on_c, 0, 69, 61
2, 191529, Note_on_c, 0, 65, 61
2, 191530, Note_on_c, 0, 72, 61
2, 191532, Note_on_c, 0, 58, 61
2, 191538, Note_on_c, 0, 62, 61
2, 191538, Note_on_c, 0, 60, 61
2, 191547, Note_on_c, 0, 69, 0
2, 191548, Note_on_c, 0, 65, 0
2, 191550, Note_on_c, 0, 72, 0
2, 191558, Note_on_c, 0, 60, 0
2, 191559, Note_on_c, 0, 62, 0
2, 191559, Note_on_c, 0, 58, 0
2, 191722, Note_on_c, 0, 58, 61
2, 191724, Note_on_c, 0, 69, 61
2, 191726, Note_on_c, 0, 62, 61
2, 191726, Note_on_c, 0, 65, 61
2, 191729, Note_on_c, 0, 72, 61
2, 191733, Note_on_c, 0, 60, 61
2, 191743, Note_on_c, 0, 69, 0
2, 191745, Note_on_c, 0, 62, 0
2, 191749, Note_on_c, 0, 72, 0
2, 191750, Note_on_c, 0, 65, 0
2, 191754, Note_on_c, 0, 60, 0
2, 191765, Note_on_c, 0, 58, 0
2, 191922, Note_on_c, 0, 60, 61
2, 191923, Note_on_c, 0, 62, 61
2, 191924, Note_on_c, 0, 55, 61
2, 191926, Note_on_c, 0, 65, 61
2, 191926, Note_on_c, 0, 57, 61
2, 191926, Note_on_c, 0, 67, 61
2, 191931, Note_on_c, 0, 64, 61
2, 191932, Note_on_c, 0, 53, 61
2, 191950, Note_on_c, 0, 62, 0
2, 191979, Note_on_c, 0, 65, 0
2, 193170, Control_c, 0, 64, 127
2, 193239, Note_off_c, 0, 55, 0
2, 193243, Note_off_c, 0, 53, 0
2, 193254, Note_off_c, 0, 57, 0
2, 193274, Note_off_c, 0, 60, 0
2, 193303, Note_off_c, 0, 64, 0
2, 193332, Note_off_c, 0, 67, 0
2, 193443, Note_on_c, 0, 62, 63
2, 193445, Note_on_c, 0, 57, 63
2, 193449, Note_on_c, 0, 64, 63
2, 193451, Note_on_c, 0, 53, 63
2, 193460, Control_c, 0, 64, 0
2, 193584, Control_c, 0, 64, 127
2, 193716, Note_off_c, 0, 62, 0
2, 193728, Note_off_c, 0, 64, 0
2, 193795, Note_off_c, 0, 57, 0
2, 193831, Note_on_c, 0, 65, 63
2, 193836, Note_on_c, 0, 61, 63
2, 193845, Control_c, 0, 64, 0
2, 193846, Note_on_c, 0, 57, 63
2, 193968, Control_c, 0, 64, 127
2, 193993, Note_off_c, 0, 53, 0
2, 193996, Note_off_c, 0, 57, 0
2, 194014, Note_off_c, 0, 61, 0
2, 194091, Note_off_c, 0, 65, 0
2, 194212, Note_on_c, 0, 53, 64
2, 194212, Note_on_c, 0, 69, 64
2, 194216, Note_on_c, 0, 64, 64
2, 194222, Note_on_c, 0, 59, 64
2, 194225, Control_c, 0, 64, 0
2, 194336, Control_c, 0, 64, 127
2, 194339, Note_off_c, 0, 53, 0
2, 194344, Note_off_c, 0, 59, 0
2, 194346, Note_off_c, 0, 64, 0
2, 194386, Note_off_c, 0, 69, 0
2, 194589, Note_on_c, 0, 72, 64
2, 194595, Note_on_c, 0, 69, 64
2, 194599, Note_on_c, 0, 62, 64
2, 194600, Note_on_c, 0, 58, 64
2, 194610, Control_c, 0, 64, 0
2, 194716, Control_c, 0, 64, 127
2, 194724, Note_off_c, 0, 62, 0
2, 194731, Note_off_c, 0, 69, 0
2, 194781, Note_off_c, 0, 58, 0
2, 194808, Note_off_c, 0, 72, 0
2, 194876, Note_on_c, 0, 67, 65
2, 194879, Note_on_c, 0, 74, 65
2, 194880, Note_on_c, 0, 71, 65
2, 194884, Note_on_c, 0, 64, 65
2, 194889, Note_on_c, 0, 62, 65
2, 194893, Note_on_c, 0, 60, 65
2, 194894, Control_c, 0, 64, 0
2, 195357, Control_c, 0, 64, 127
2, 195492, Note_off_c, 0, 67, 0
2, 195543, Note_off_c, 0, 71, 0
2, 195567, Note_off_c, 0, 74, 0
2, 195594, Note_off_c, 0, 64, 0
2, 195598, Note_off_c, 0, 60, 0
2, 195600, Note_off_c, 0, 62, 0
2, 196033, Note_on_c, 0, 98, 66
2, 196038, Note_on_c, 0, 86, 66
2, 196040, Note_on_c, 0, 91, 66
2, 196041, Note_on_c, 0, 64, 66
2, 196042, Note_on_c, 0, 62, 66
2, 196042, Note_on_c, 0, 95, 66
2, 196043, Note_on_c, 0, 60, 66
2, 196063, Note_on_c, 0, 64, 0
2, 196069, Note_on_c, 0, 91, 0
2, 196070, Note_on_c, 0, 60, 0
2, 196074, Note_on_c, 0, 62, 0
2, 196074, Note_on_c, 0, 95, 0
2, 196074, Note_on_c, 0, 86, 0
2, 196074, Control_c, 0, 64, 0
2, 196089, Note_off_c, 0, 98, 0
2, 196130, Note_on_c, 0, 98, 66
2, 196132, Note_on_c, 0, 62, 66
2, 196136, Note_on_c, 0, 64, 66
2, 196137, Note_on_c, 0, 60, 66
2, 196138, Note_on_c, 0, 95, 66
2, 196139, Note_on_c, 0, 91, 66
2, 196140, Note_on_c, 0, 86, 66
2, 196213, Control_c, 0, 64, 127
2, 196281, Note_off_c, 0, 95, 0
2, 196283, Note_off_c, 0, 62, 0
2, 196285, Note_off_c, 0, 98, 0
2, 196286, Note_off_c, 0, 91, 0
2, 196287, Note_off_c, 0, 64, 0
2, 196288, Note_off_c, 0, 60, 0
2, 196297, Note_off_c, 0, 86, 0
2, 196409, Control_c, 0, 64, 0
2, 196426, Note_on_c, 0, 95, 66
2, 196431, Note_on_c, 0, 88, 66
2, 196432, Note_on_c, 0, 91, 66
2, 196437, Note_on_c, 0, 83, 66
2, 196440, Note_on_c, 0, 64, 66
2, 196441, Note_on_c, 0, 62, 66
2, 196445, Note_on_c, 0, 60, 66
2, 196471, Note_on_c, 0, 60, 0
2, 196485, Note_on_c, 0, 88, 0
2, 196485, Note_on_c, 0, 64, 0
2, 196489, Note_on_c, 0, 83, 0
2, 196493, Note_on_c, 0, 95, 0
2, 196493, Note_on_c, 0, 62, 0
2, 196494, Note_on_c, 0, 91, 0
2, 196529, Note_on_c, 0, 95, 66
2, 196532, Note_on_c, 0, 83, 66
2, 196535, Note_on_c, 0, 64, 66
2, 196537, Note_on_c, 0, 88, 66
2, 196538, Note_on_c, 0, 62, 66
2, 196538, Note_on_c, 0, 60, 66
2, 196539, Note_on_c, 0, 91, 66
2, 196671, Control_c, 0, 64, 127
2, 196726, Note_off_c, 0, 95, 0
2, 196733, Note_off_c, 0, 91, 0
2, 196736, Note_off_c, 0, 88, 0
2, 196746, Note_off_c, 0, 62, 0
2, 196746, Note_off_c, 0, 60, 0
2, 196748, Note_off_c, 0, 64, 0
2, 196761, Note_off_c, 0, 83, 0
2, 197064, Note_on_c, 0, 91, 67
2, 197067, Note_on_c, 0, 79, 67
2, 197071, Note_on_c, 0, 64, 67
2, 197072, Control_c, 0, 64, 0
2, 197076, Note_on_c, 0, 62, 67
2, 197081, Note_on_c, 0, 60, 67
2, 197189, Control_c, 0, 64, 127
2, 197233, Note_off_c, 0, 91, 0
2, 197291, Note_off_c, 0, 79, 0
2, 197444, Note_off_c, 0, 60, 0
2, 197462, Note_off_c, 0, 64, 0
2, 197472, Note_off_c, 0, 62, 0
2, 197777, Note_on_c, 0, 76, 68
2, 197796, Note_on_c, 0, 75, 68
2, 197815, Note_on_c, 0, 75, 0
2, 197876, Note_on_c, 0, 69, 68
2, 198040, Note_on_c, 0, 69, 0
2, 198051, Note_on_c, 0, 65, 68
2, 198062, Note_on_c, 0, 60, 68
2, 198068, Note_on_c, 0, 55, 68
2, 198078, Control_c, 0, 64, 0
2, 198078, Note_on_c, 0, 50, 68
2, 198249, Note_on_c, 0, 69, 68
2, 198624, Note_on_c, 0, 55, 0
2, 198720, Note_on_c, 0, 60, 0
2, 199088, Note_on_c, 0, 76, 0
2, 199108, Note_on_c, 0, 69, 0
2, 199165, Note_on_c, 0, 65, 0
2, 199188, Control_c, 0, 64, 127
2, 199366, Control_c, 0, 64, 0
2, 199560, Note_on_c, 0, 57, 70
2, 199561, Note_on_c, 0, 65, 70
2, 199562, Note_on_c, 0, 62, 70
2, 199577, Note_on_c, 0, 53, 70
2, 199582, Note_on_c, 0, 62, 0
2, 199582, Note_on_c, 0, 65, 0
2, 199587, Note_on_c, 0, 57, 0
2, 199599, Note_on_c, 0, 50, 0
2, 199599, Note_on_c, 0, 53, 0
2, 199870, Note_on_c, 0, 65, 70
2, 199871, Note_on_c, 0, 62, 70
2, 199873, Note_on_c, 0, 57, 70
2, 199885, Note_on_c, 0, 53, 70
2, 199885, Note_on_c, 0, 50, 70
2, 199893, Note_on_c, 0, 62, 0
2, 199893, Note_on_c, 0, 65, 0
2, 199911, Note_on_c, 0, 53, 0
2, 199912, Note_on_c, 0, 57, 0
2, 199919, Note_on_c, 0, 50, 0
2, 200145, Note_on_c, 0, 65, 71
2, 200147, Note_on_c, 0, 62, 71
2, 200156, Note_on_c, 0, 57, 71
2, 200175, Note_on_c, 0, 62, 0
2, 200175, Note_on_c, 0, 53, 71
2, 200177, Note_on_c, 0, 50, 71
2, 200189, Note_on_c, 0, 65, 0
2, 200206, Note_on_c, 0, 53, 0
2, 200207, Note_on_c, 0, 50, 0
2, 200211, Note_on_c, 0, 57, 0
2, 200791, Control_c, 0, 64, 127
2, 200862, Control_c, 0, 64, 0
2, 200919, Control_c, 0, 64, 127
2, 200921, Note_on_c, 0, 72, 71
2, 200963, Control_c, 0, 64, 0
2, 200980, Control_c, 0, 64, 127
2, 201094, Note_off_c, 0, 72, 0
2, 201114, Note_on_c, 0, 69, 72
2, 201119, Note_on_c, 0, 65, 72
2, 201122, Note_on_c, 0, 62, 72
2, 201126, Note_on_c, 0, 58, 72
2, 201133, Note_on_c, 0, 60, 72
2, 201147, Control_c, 0, 64, 0
2, 201259, Control_c, 0, 64, 127
2, 201324, Note_off_c, 0, 65, 0
2, 201341, Note_off_c, 0, 60, 0
2, 201345, Note_off_c, 0, 62, 0
2, 201348, Note_off_c, 0, 69, 0
2, 201365, Note_off_c, 0, 58, 0
2, 201612, Note_on_c, 0, 84, 72
2, 201618, Note_on_c, 0, 77, 72
2, 201773, Note_on_c, 0, 77, 0
2, 201782, Note_on_c, 0, 84, 0
2, 201872, Note_on_c, 0, 81, 72
2, 201873, Control_c, 0, 64, 0
2, 201880, Note_on_c, 0, 72, 72
2, 201881, Note_on_c, 0, 62, 72
2, 201883, Note_on_c, 0, 58, 72
2, 201887, Note_on_c, 0, 60, 72
2, 201990, Control_c, 0, 64, 127
2, 202078, Note_off_c, 0, 81, 0
2, 202125, Note_off_c, 0, 60, 0
2, 202133, Note_off_c, 0, 62, 0
2, 202134, Note_off_c, 0, 72, 0
2, 202147, Note_off_c, 0, 58, 0
2, 202654, Note_on_c, 0, 72, 73
2, 202654, Note_on_c, 0, 62, 73
2, 202658, Note_on_c, 0, 69, 73
2, 202659, Note_on_c, 0, 65, 73
2, 202660, Note_on_c, 0, 60, 73
2, 202661, Note_on_c, 0, 58, 73
2, 202677, Control_c, 0, 64, 0
2, 202806, Control_c, 0, 64, 127
2, 202985, Note_off_c, 0, 60, 0
2, 202991, Note_off_c, 0, 69, 0
2, 202993, Note_off_c, 0, 65, 0
2, 203000, Note_off_c, 0, 62, 0
2, 203061, Note_off_c, 0, 58, 0
2, 203086, Note_off_c, 0, 72, 0
2, 203213, Note_on_c, 0, 69, 74
2, 203214, Control_c, 0, 64, 0
2, 203214, Note_on_c, 0, 65, 74
2, 203217, Note_on_c, 0, 62, 74
2, 203219, Note_on_c, 0, 58, 74
2, 203225, Note_on_c, 0, 60, 74
2, 203236, Note_on_c, 0, 65, 0
2, 203243, Note_on_c, 0, 60, 0
2, 203244, Note_on_c, 0, 69, 0
2, 203246, Note_on_c, 0, 62, 0
2, 203260, Note_on_c, 0, 58, 0
2, 203414, Note_on_c, 0, 65, 74
2, 203415, Note_on_c, 0, 69, 74
2, 203418, Note_on_c, 0, 62, 74
2, 203420, Note_on_c, 0, 58, 74
2, 203422, Note_on_c, 0, 60, 74
2, 203593, Control_c, 0, 64, 127
2, 203617, Note_off_c, 0, 65, 0
2, 203618, Note_off_c, 0, 60, 0
2, 203620, Note_off_c, 0, 62, 0
2, 203626, Note_off_c, 0, 69, 0
2, 203629, Note_off_c, 0, 58, 0
2, 203660, Control_c, 0, 64, 0
2, 203707, Note_on_c, 0, 69, 75
2, 203708, Note_on_c, 0, 65, 75
2, 203711, Note_on_c, 0, 58, 75
2, 203714, Note_on_c, 0, 60, 75
2, 203715, Note_on_c, 0, 62, 75
2, 203750, Control_c, 0, 64, 127
2, 203775, Note_off_c, 0, 62, 0
2, 203792, Note_off_c, 0, 60, 0
2, 203815, Note_off_c, 0, 58, 0
2, 203817, Note_off_c, 0, 69, 0
2, 203832, Note_off_c, 0, 65, 0
2, 203903, Note_on_c, 0, 58, 75
2, 203922, Note_on_c, 0, 60, 75
2, 203941, Note_on_c, 0, 60, 0
2, 203950, Control_c, 0, 64, 0
2, 203958, Note_off_c, 0, 58, 0
2, 203978, Note_on_c, 0, 64, 75
2, 203981, Note_on_c, 0, 67, 75
2, 204088, Note_on_c, 0, 64, 0
2, 204121, Note_on_c, 0, 67, 0
2, 204177, Note_on_c, 0, 62, 75
2, 204180, Note_on_c, 0, 65, 75
2, 204192, Note_on_c, 0, 57, 75
2, 204200, Note_on_c, 0, 50, 75
2, 204648, Control_c, 0, 64, 127
2, 204990, Note_off_c, 0, 62, 0
2, 205029, Note_off_c, 0, 65, 0
2, 205136, Note_off_c, 0, 50, 0
2, 205155, Note_off_c, 0, 57, 0
2, 205546, Note_on_c, 0, 79, 77
2, 205548, Note_on_c, 0, 72, 77
2, 205548, Note_on_c, 0, 64, 77
2, 205548, Note_on_c, 0, 69, 77
2, 205569, Control_c, 0, 64, 0
2, 205669, Control_c, 0, 64, 127
2, 205978, Note_off_c, 0, 79, 0
2, 205990, Note_off_c, 0, 69, 0
2, 205995, Note_off_c, 0, 72, 0
2, 206000, Note_off_c, 0, 64, 0
2, 206108, Note_on_c, 0, 77, 77
2, 206112, Note_on_c, 0, 69, 77
2, 206114, Note_on_c, 0, 72, 77
2, 206117, Note_on_c, 0, 62, 77
2, 206133, Control_c, 0, 64, 0
2, 206255, Control_c, 0, 64, 127
2, 206294, Note_off_c, 0, 72, 0
2, 206295, Note_off_c, 0, 77, 0
2, 206323, Note_off_c, 0, 69, 0
2, 206342, Note_off_c, 0, 62, 0
2, 206507, Note_on_c, 0, 74, 78
2, 206510, Note_on_c, 0, 65, 78
2, 206512, Note_on_c, 0, 69, 78
2, 206516, Note_on_c, 0, 71, 78
2, 206517, Note_on_c, 0, 57, 78
2, 206529, Control_c, 0, 64, 0
2, 206629, Control_c, 0, 64, 127
2, 206655, Note_off_c, 0, 57, 0
2, 206667, Note_off_c, 0, 74, 0
2, 206675, Note_off_c, 0, 71, 0
2, 206679, Note_off_c, 0, 69, 0
2, 206697, Note_off_c, 0, 65, 0
2, 206868, Note_on_c, 0, 65, 78
2, 206869, Control_c, 0, 64, 0
2, 206870, Note_on_c, 0, 57, 78
2, 206871, Note_on_c, 0, 69, 78
2, 206878, Note_on_c, 0, 72, 78
2, 206936, Note_on_c, 0, 57, 0
2, 206959, Control_c, 0, 64, 127
2, 206973, Note_off_c, 0, 72, 0
2, 206976, Note_off_c, 0, 69, 0
2, 207009, Note_off_c, 0, 65, 0
2, 207262, Note_on_c, 0, 60, 79
2, 207266, Note_on_c, 0, 67, 79
2, 207269, Note_on_c, 0, 64, 79
2, 207269, Note_on_c, 0, 57, 79
2, 207271, Control_c, 0, 64, 0
2, 207272, Note_on_c, 0, 55, 79
2, 207278, Note_on_c, 0, 59, 79
2, 207303, Note_on_c, 0, 59, 0
2, 207441, Note_on_c, 0, 57, 0
2, 207448, Note_on_c, 0, 55, 0
2, 207481, Note_on_c, 0, 60, 0
2, 207488, Note_on_c, 0, 64, 0
2, 207497, Note_on_c, 0, 67, 0
2, 207556, Note_on_c, 0, 67, 79
2, 207559, Note_on_c, 0, 60, 79
2, 207560, Note_on_c, 0, 64, 79
2, 207573, Note_on_c, 0, 59, 79
2, 207575, Note_on_c, 0, 57, 79
2, 207577, Note_on_c, 0, 55, 79
2, 207580, Note_on_c, 0, 60, 0
2, 207583, Note_on_c, 0, 64, 0
2, 207596, Note_on_c, 0, 67, 0
2, 207598, Note_on_c, 0, 59, 0
2, 207600, Note_on_c, 0, 57, 0
2, 207601, Note_on_c, 0, 55, 0
2, 207817, Note_on_c, 0, 67, 79
2, 207823, Note_on_c, 0, 64, 79
2, 207825, Note_on_c, 0, 59, 79
2, 207826, Note_on_c, 0, 60, 79
2, 207832, Note_on_c, 0, 57, 79
2, 207833, Note_on_c, 0, 55, 79
2, 207902, Control_c, 0, 64, 127
2, 207969, Note_off_c, 0, 60, 0
2, 208010, Note_off_c, 0, 64, 0
2, 208016, Note_off_c, 0, 57, 0
2, 208018, Note_off_c, 0, 59, 0
2, 208019, Note_off_c, 0, 55, 0
2, 208039, Note_off_c, 0, 67, 0
2, 209715, Control_c, 0, 64, 0
2, 209883, Control_c, 0, 64, 127
2, 210698, Note_on_c, 0, 65, 58
2, 210703, Note_on_c, 0, 62, 50
2, 210709, Note_on_c, 0, 60, 49
2, 210719, Note_on_c, 0, 55, 42
2, 210760, Note_on_c, 0, 65, 0
2, 210762, Note_on_c, 0, 62, 0
2, 210764, Note_on_c, 0, 60, 0
2, 210767, Note_on_c, 0, 55, 0
2, 210992, Note_on_c, 0, 65, 64
2, 210997, Note_on_c, 0, 62, 58
2, 210998, Note_on_c, 0, 60, 62
2, 211002, Note_on_c, 0, 55, 50
2, 211038, Note_on_c, 0, 55, 0
2, 211039, Note_on_c, 0, 65, 0
2, 211049, Note_on_c, 0, 60, 0
2, 211054, Note_on_c, 0, 62, 0
2, 211284, Note_on_c, 0, 55, 66
2, 211287, Note_on_c, 0, 62, 60
2, 211289, Note_on_c, 0, 60, 55
2, 211292, Note_on_c, 0, 65, 58
2, 211668, Note_on_c, 0, 62, 0
2, 211708, Control_c, 0, 64, 127
2, 211769, Note_off_c, 0, 55, 0
2, 211779, Note_off_c, 0, 65, 0
2, 211780, Note_off_c, 0, 60, 0
2, 211942, Control_c, 0, 64, 0
2, 212218, Note_on_c, 0, 61, 56
2, 212223, Note_on_c, 0, 84, 90
2, 212224, Note_on_c, 0, 65, 81
2, 212227, Note_on_c, 0, 77, 87
2, 212230, Note_on_c, 0, 60, 66
2, 212233, Note_on_c, 0, 55, 71
2, 212235, Note_on_c, 0, 73, 83
2, 212240, Note_on_c, 0, 81, 59
2, 212249, Control_c, 0, 64, 127
2, 212532, Note_off_c, 0, 55, 0
2, 212532, Note_off_c, 0, 65, 0
2, 212538, Note_off_c, 0, 60, 0
2, 212543, Note_off_c, 0, 84, 0
2, 212555, Note_off_c, 0, 73, 0
2, 212560, Note_off_c, 0, 61, 0
2, 212568, Note_off_c, 0, 81, 0
2, 212598, Note_off_c, 0, 77, 0
2, 212619, Note_on_c, 0, 61, 49
2, 212625, Note_on_c, 0, 73, 51
2, 212625, Note_on_c, 0, 77, 38
2, 212627, Note_on_c, 0, 82, 69
2, 212628, Note_on_c, 0, 65, 55
2, 212633, Note_on_c, 0, 55, 53
2, 212636, Note_on_c, 0, 60, 53
2, 212637, Control_c, 0, 64, 0
2, 212804, Control_c, 0, 64, 127
2, 212881, Note_off_c, 0, 77, 0
2, 212900, Note_off_c, 0, 55, 0
2, 212915, Note_off_c, 0, 65, 0
2, 212915, Note_off_c, 0, 60, 0
2, 212946, Note_off_c, 0, 73, 0
2, 212957, Note_off_c, 0, 61, 0
2, 213004, Control_c, 0, 64, 0
2, 213010, Note_on_c, 0, 77, 60
2, 213012, Note_on_c, 0, 65, 45
2, 213016, Note_on_c, 0, 73, 48
2, 213017, Note_on_c, 0, 61, 23
2, 213023, Note_on_c, 0, 60, 33
2, 213026, Note_on_c, 0, 55, 34
2, 213034, Control_c, 0, 64, 127
2, 213078, Note_off_c, 0, 60, 0
2, 213080, Note_off_c, 0, 65, 0
2, 213089, Note_off_c, 0, 77, 0
2, 213095, Note_off_c, 0, 61, 0
2, 213101, Note_off_c, 0, 82, 0
2, 213113, Note_off_c, 0, 55, 0
2, 213117, Note_off_c, 0, 73, 0
2, 213402, Note_on_c, 0, 55, 60
2, 213407, Note_on_c, 0, 45, 54
2, 213408, Note_on_c, 0, 62, 55
2, 213408, Note_on_c, 0, 59, 61
2, 213451, Control_c, 0, 64, 0
2, 213461, Note_off_c, 0, 55, 0
2, 213481, Note_off_c, 0, 59, 0
2, 213509, Note_off_c, 0, 62, 0
2, 213510, Note_off_c, 0, 45, 0
2, 213675, Note_on_c, 0, 55, 62
2, 213678, Note_on_c, 0, 62, 55
2, 213681, Note_on_c, 0, 59, 62
2, 213681, Note_on_c, 0, 45, 55
2, 213705, Control_c, 0, 64, 127
2, 213714, Note_off_c, 0, 55, 0
2, 213725, Note_off_c, 0, 45, 0
2, 213728, Note_off_c, 0, 59, 0
2, 213741, Note_off_c, 0, 62, 0
2, 213897, Control_c, 0, 64, 0
2, 213972, Note_on_c, 0, 45, 65
2, 213973, Note_on_c, 0, 55, 57
2, 213995, Note_on_c, 0, 55, 0
2, 214020, Note_on_c, 0, 45, 0
2, 214730, Control_c, 0, 64, 127
2, 215147, Note_on_c, 0, 64, 72
2, 215147, Note_on_c, 0, 67, 78
2, 215148, Note_on_c, 0, 60, 76
2, 215149, Note_on_c, 0, 50, 83
2, 215149, Note_on_c, 0, 57, 81
2, 215156, Note_on_c, 0, 65, 62
2, 215158, Control_c, 0, 64, 0
2, 215178, Note_off_c, 0, 65, 0
2, 215439, Note_off_c, 0, 64, 0
2, 215461, Note_off_c, 0, 60, 0
2, 215465, Note_off_c, 0, 57, 0
2, 215487, Note_off_c, 0, 67, 0
2, 215497, Note_on_c, 0, 64, 45
2, 215509, Note_on_c, 0, 57, 30
2, 215542, Note_on_c, 0, 57, 0
2, 215550, Note_on_c, 0, 50, 0
2, 215566, Note_on_c, 0, 64, 0
2, 215685, Note_on_c, 0, 66, 55
2, 215692, Note_on_c, 0, 57, 49
2, 215692, Note_on_c, 0, 62, 53
2, 215699, Note_on_c, 0, 50, 57
2, 215889, Note_on_c, 0, 62, 0
2, 215890, Note_on_c, 0, 57, 0
2, 215894, Note_on_c, 0, 50, 0
2, 215902, Note_on_c, 0, 66, 0
2, 215974, Note_on_c, 0, 66, 45
2, 215975, Note_on_c, 0, 62, 52
2, 215977, Note_on_c, 0, 57, 53
2, 215982, Note_on_c, 0, 50, 50
2, 216002, Control_c, 0, 64, 127
2, 216103, Note_off_c, 0, 50, 0
2, 216164, Note_off_c, 0, 57, 0
2, 216166, Note_off_c, 0, 62, 0
2, 216229, Note_off_c, 0, 66, 0
2, 216425, Control_c, 0, 64, 0
2, 216461, Note_on_c, 0, 60, 45
2, 216462, Note_on_c, 0, 67, 48
2, 216463, Note_on_c, 0, 43, 38
2, 216468, Note_on_c, 0, 57, 44
2, 216470, Note_on_c, 0, 55, 42
2, 216470, Note_on_c, 0, 65, 46
2, 216575, Control_c, 0, 64, 127
2, 216631, Note_off_c, 0, 57, 0
2, 216655, Note_off_c, 0, 60, 0
2, 216679, Note_off_c, 0, 65, 0
2, 216698, Note_off_c, 0, 67, 0
2, 216730, Note_off_c, 0, 43, 0
2, 216740, Note_off_c, 0, 55, 0
2, 217233, Note_on_c, 0, 81, 80
2, 217235, Note_on_c, 0, 76, 83
2, 217237, Note_on_c, 0, 73, 87
2, 217238, Note_on_c, 0, 59, 73
2, 217239, Note_on_c, 0, 53, 83
2, 217240, Note_on_c, 0, 64, 83
2, 217241, Note_on_c, 0, 69, 90
2, 217245, Control_c, 0, 64, 0
2, 217248, Note_on_c, 0, 79, 61
2, 217522, Control_c, 0, 64, 127
2, 217692, Note_off_c, 0, 79, 0
2, 217692, Note_off_c, 0, 64, 0
2, 217694, Note_off_c, 0, 81, 0
2, 217700, Note_off_c, 0, 76, 0
2, 217701, Note_off_c, 0, 59, 0
2, 217723, Note_off_c, 0, 73, 0
2, 217724, Note_off_c, 0, 69, 0
2, 217731, Note_off_c, 0, 53, 0
2, 217998, Note_on_c, 0, 57, 78
2, 217999, Note_on_c, 0, 62, 72
2, 218004, Note_on_c, 0, 58, 53
2, 218004, Note_on_c, 0, 48, 60
2, 218006, Note_on_c, 0, 69, 57
2, 218010, Control_c, 0, 64, 0
2, 218011, Note_on_c, 0, 65, 58
2, 218020, Note_on_c, 0, 62, 0
2, 218023, Note_on_c, 0, 58, 0
2, 218024, Note_on_c, 0, 48, 0
2, 218024, Note_on_c, 0, 57, 0
2, 218026, Note_on_c, 0, 69, 0
2, 218031, Note_on_c, 0, 65, 0
2, 218387, Note_on_c, 0, 72, 85
2, 218389, Note_on_c, 0, 65, 83
2, 218390, Note_on_c, 0, 61, 91
2, 218392, Note_on_c, 0, 45, 69
2, 218393, Note_on_c, 0, 55, 78
2, 218393, Note_on_c, 0, 69, 72
2, 218837, Control_c, 0, 64, 127
2, 219073, Note_off_c, 0, 45, 0
2, 219121, Note_off_c, 0, 65, 0
2, 219126, Note_off_c, 0, 55, 0
2, 219153, Note_off_c, 0, 61, 0
2, 219158, Note_off_c, 0, 69, 0
2, 219169, Note_off_c, 0, 72, 0
2, 219506, Control_c, 0, 64, 0
2, 219528, Note_on_c, 0, 76, 49
2, 219531, Note_on_c, 0, 69, 49
2, 219539, Note_on_c, 0, 60, 31
2, 219540, Note_on_c, 0, 65, 30
2, 219544, Note_on_c, 0, 57, 35
2, 219558, Note_on_c, 0, 50, 29
2, 220881, Note_on_c, 0, 76, 0
2, 220904, Note_on_c, 0, 69, 0
2, 220907, Note_on_c, 0, 65, 0
2, 221053, Note_on_c, 0, 60, 0
2, 221065, Note_on_c, 0, 57, 0
2, 221102, Note_on_c, 0, 50, 0
2, 221641, Note_on_c, 0, 64, 64
2, 221641, Note_on_c, 0, 65, 58
2, 221644, Note_on_c, 0, 67, 51
2, 221667, Note_on_c, 0, 67, 0
2, 221674, Note_on_c, 0, 65, 0
2, 221675, Note_on_c, 0, 64, 0
2, 221733, Note_on_c, 0, 64, 60
2, 221739, Note_on_c, 0, 65, 56
2, 221739, Note_on_c, 0, 67, 53
2, 221765, Note_on_c, 0, 67, 0
2, 221774, Note_on_c, 0, 64, 0
2, 221777, Note_on_c, 0, 65, 0
2, 221939, Note_on_c, 0, 64, 61
2, 221942, Note_on_c, 0, 67, 51
2, 221942, Note_on_c, 0, 65, 54
2, 221964, Note_on_c, 0, 65, 0
2, 221968, Note_on_c, 0, 67, 0
2, 221977, Note_on_c, 0, 64, 0
2, 222133, Note_on_c, 0, 64, 60
2, 222136, Note_on_c, 0, 65, 52
2, 222140, Note_on_c, 0, 67, 47
2, 222164, Note_on_c, 0, 67, 0
2, 222165, Note_on_c, 0, 65, 0
2, 222172, Note_on_c, 0, 64, 0
2, 222337, Note_on_c, 0, 67, 56
2, 222338, Note_on_c, 0, 64, 54
2, 222339, Note_on_c, 0, 65, 58
2, 222403, Note_on_c, 0, 65, 0
2, 222406, Note_on_c, 0, 67, 0
2, 222416, Note_on_c, 0, 64, 0
2, 222427, Note_on_c, 0, 62, 55
2, 222534, Note_on_c, 0, 62, 0
2, 222600, Note_on_c, 0, 62, 23
2, 222601, Note_on_c, 0, 65, 39
2, 222609, Note_on_c, 0, 58, 41
2, 222609, Note_on_c, 0, 60, 39
2, 222973, Control_c, 0, 64, 127
2, 223073, Note_off_c, 0, 65, 0
2, 223099, Note_off_c, 0, 60, 0
2, 223123, Note_off_c, 0, 62, 0
2, 223152, Note_off_c, 0, 58, 0
2, 223556, Note_on_c, 0, 81, 89
2, 223558, Note_on_c, 0, 74, 97
2, 223559, Note_on_c, 0, 55, 72
2, 223564, Note_on_c, 0, 60, 63
2, 223564, Note_on_c, 0, 65, 71
2, 223588, Control_c, 0, 64, 0
2, 223709, Control_c, 0, 64, 127
2, 223917, Note_off_c, 0, 74, 0
2, 223940, Note_off_c, 0, 81, 0
2, 223955, Note_off_c, 0, 60, 0
2, 223960, Note_off_c, 0, 55, 0
2, 223966, Note_off_c, 0, 65, 0
2, 224704, Control_c, 0, 64, 0
2, 224711, Note_on_c, 0, 82, 80
2, 224714, Note_on_c, 0, 89, 81
2, 224717, Note_on_c, 0, 62, 68
2, 224717, Note_on_c, 0, 86, 67
2, 224718, Note_on_c, 0, 67, 73
2, 224718, Note_on_c, 0, 77, 78
2, 224723, Note_on_c, 0, 57, 70
2, 224969, Control_c, 0, 64, 127
2, 225036, Note_off_c, 0, 62, 0
2, 225047, Note_off_c, 0, 67, 0
2, 225048, Note_off_c, 0, 57, 0
2, 225055, Note_off_c, 0, 89, 0
2, 225065, Note_off_c, 0, 86, 0
2, 225108, Note_off_c, 0, 82, 0
2, 225110, Note_off_c, 0, 77, 0
2, 225309, Note_on_c, 0, 86, 71
2, 225314, Control_c, 0, 64, 0
2, 225314, Note_on_c, 0, 82, 60
2, 225316, Note_on_c, 0, 65, 61
2, 225320, Note_on_c, 0, 55, 58
2, 225322, Note_on_c, 0, 60, 48
2, 225322, Note_on_c, 0, 74, 35
2, 225328, Note_on_c, 0, 76, 50
2, 225350, Note_on_c, 0, 76, 0
2, 225440, Note_on_c, 0, 65, 0
2, 225442, Note_on_c, 0, 60, 0
2, 225446, Control_c, 0, 64, 127
2, 225465, Note_off_c, 0, 55, 0
2, 225469, Note_off_c, 0, 86, 0
2, 225504, Note_off_c, 0, 82, 0
2, 225506, Note_off_c, 0, 74, 0
2, 225678, Note_on_c, 0, 84, 66
2, 225679, Note_on_c, 0, 76, 50
2, 225686, Note_on_c, 0, 72, 51
2, 225689, Note_on_c, 0, 60, 32
2, 225691, Note_on_c, 0, 57, 39
2, 225694, Control_c, 0, 64, 0
2, 225694, Note_on_c, 0, 50, 33
2, 225695, Note_on_c, 0, 53, 46
2, 226798, Note_on_c, 0, 84, 0
2, 226849, Note_on_c, 0, 72, 0
2, 226907, Note_on_c, 0, 76, 0
2, 227146, Control_c, 0, 64, 127
2, 227164, Control_c, 0, 64, 0
2, 227580, Note_off_c, 0, 60, 0
2, 227583, Note_on_c, 0, 65, 72
2, 227584, Note_on_c, 0, 74, 78
2, 227586, Note_on_c, 0, 67, 72
2, 227600, Note_on_c, 0, 53, 0
2, 227606, Note_on_c, 0, 57, 0
2, 227606, Note_on_c, 0, 50, 0
2, 227638, Note_on_c, 0, 67, 0
2, 227640, Note_on_c, 0, 65, 0
2, 227646, Note_on_c, 0, 74, 0
2, 227787, Note_on_c, 0, 65, 72
2, 227787, Note_on_c, 0, 74, 76
2, 227790, Note_on_c, 0, 67, 76
2, 227886, Note_on_c, 0, 67, 0
2, 227887, Note_on_c, 0, 65, 0
2, 227892, Note_on_c, 0, 74, 0
2, 228166, Note_on_c, 0, 74, 80
2, 228167, Note_on_c, 0, 65, 74
2, 228169, Note_on_c, 0, 67, 75
2, 228213, Note_on_c, 0, 65, 0
2, 228217, Note_on_c, 0, 67, 0
2, 228230, Note_on_c, 0, 74, 0
2, 228367, Note_on_c, 0, 74, 77
2, 228367, Note_on_c, 0, 65, 73
2, 228369, Note_on_c, 0, 67, 76
2, 228483, Note_on_c, 0, 65, 0
2, 228484, Note_on_c, 0, 67, 0
2, 228488, Note_on_c, 0, 74, 0
2, 229313, Note_on_c, 0, 84, 85
2, 229313, Note_on_c, 0, 74, 89
2, 229314, Note_on_c, 0, 70, 72
2, 229315, Note_on_c, 0, 79, 80
2, 229316, Note_on_c, 0, 65, 62
2, 229320, Note_on_c, 0, 60, 58
2, 229454, Note_on_c, 0, 74, 0
2, 229457, Note_on_c, 0, 79, 0
2, 229471, Note_on_c, 0, 84, 0
2, 229472, Note_on_c, 0, 70, 0
2, 229474, Note_on_c, 0, 65, 0
2, 229475, Note_on_c, 0, 60, 0
2, 230659, Note_on_c, 0, 62, 54
2, 230664, Note_on_c, 0, 70, 36
2, 230664, Note_on_c, 0, 60, 51
2, 230665, Note_on_c, 0, 65, 35
2, 230670, Note_on_c, 0, 72, 27
2, 230681, Note_on_c, 0, 64, 23
2, 230685, Note_on_c, 0, 60, 0
2, 230699, Note_on_c, 0, 65, 0
2, 230700, Note_on_c, 0, 64, 0
2, 230708, Note_on_c, 0, 72, 0
2, 230715, Note_on_c, 0, 70, 0
2, 230726, Note_on_c, 0, 62, 0
2, 230761, Note_on_c, 0, 62, 22
2, 230768, Note_on_c, 0, 60, 23
2, 230769, Note_on_c, 0, 65, 43
2, 230770, Note_on_c, 0, 70, 46
2, 230775, Note_on_c, 0, 72, 26
2, 230807, Note_on_c, 0, 60, 0
2, 230813, Note_on_c, 0, 72, 0
2, 230815, Note_on_c, 0, 62, 0
2, 230815, Note_on_c, 0, 65, 0
2, 230824, Note_on_c, 0, 70, 0
2, 230964, Note_on_c, 0, 56, 23
2, 230984, Note_on_c, 0, 56, 0
2, 231039, Note_on_c, 0, 65, 59
2, 231042, Note_on_c, 0, 72, 62
2, 231044, Note_on_c, 0, 62, 55
2, 231044, Note_on_c, 0, 60, 57
2, 231052, Note_on_c, 0, 70, 42
2, 231097, Note_on_c, 0, 60, 0
2, 231103, Note_on_c, 0, 62, 0
2, 231113, Note_on_c, 0, 70, 0
2, 231113, Note_on_c, 0, 72, 0
2, 231115, Note_on_c, 0, 65, 0
2, 231165, Note_on_c, 0, 72, 60
2, 231166, Note_on_c, 0, 65, 55
2, 231172, Note_on_c, 0, 70, 38
2, 231174, Note_on_c, 0, 62, 31
2, 231175, Note_on_c, 0, 60, 37
2, 231197, Note_on_c, 0, 60, 0
2, 231201, Note_on_c, 0, 62, 0
2, 231213, Note_on_c, 0, 65, 0
2, 231214, Note_on_c, 0, 72, 0
2, 231220, Note_on_c, 0, 70, 0
2, 231356, Note_on_c, 0, 58, 49
2, 231382, Note_on_c, 0, 58, 0
2, 231440, Note_on_c, 0, 72, 62
2, 231443, Note_on_c, 0, 70, 45
2, 231445, Note_on_c, 0, 60, 52
2, 231445, Note_on_c, 0, 65, 51
2, 231451, Note_on_c, 0, 68, 35
2, 231474, Note_on_c, 0, 68, 0
2, 231490, Note_on_c, 0, 65, 0
2, 231492, Note_on_c, 0, 72, 0
2, 231493, Note_on_c, 0, 60, 0
2, 231501, Note_on_c, 0, 70, 0
2, 231558, Note_on_c, 0, 70, 41
2, 231559, Note_on_c, 0, 72, 47
2, 231560, Note_on_c, 0, 60, 41
2, 231562, Note_on_c, 0, 65, 50
2, 231585, Note_on_c, 0, 72, 0
2, 231610, Note_on_c, 0, 65, 0
2, 231610, Note_on_c, 0, 60, 0
2, 231620, Note_on_c, 0, 70, 0
2, 231768, Note_on_c, 0, 50, 38
2, 231792, Note_on_c, 0, 50, 0
2, 231830, Note_on_c, 0, 67, 34
2, 231833, Note_on_c, 0, 64, 54
2, 231833, Note_on_c, 0, 60, 44
2, 231913, Note_on_c, 0, 64, 0
2, 231941, Note_on_c, 0, 64, 38
2, 231984, Note_on_c, 0, 60, 0
2, 231989, Note_on_c, 0, 64, 0
2, 232006, Note_on_c, 0, 67, 0
2, 233350, Note_on_c, 0, 79, 78
2, 233352, Note_on_c, 0, 69, 78
2, 233352, Note_on_c, 0, 72, 72
2, 233353, Note_on_c, 0, 76, 66
2, 233361, Note_on_c, 0, 64, 71
2, 233411, Note_on_c, 0, 72, 0
2, 233414, Note_on_c, 0, 69, 0
2, 233429, Note_on_c, 0, 76, 0
2, 233430, Note_on_c, 0, 79, 0
2, 233457, Note_on_c, 0, 62, 49
2, 233458, Note_on_c, 0, 64, 0
2, 233524, Note_on_c, 0, 62, 0
2, 233546, Note_on_c, 0, 79, 75
2, 233547, Note_on_c, 0, 69, 78
2, 233548, Note_on_c, 0, 76, 69
2, 233550, Note_on_c, 0, 72, 71
2, 233554, Note_on_c, 0, 64, 63
2, 233664, Note_on_c, 0, 69, 0
2, 233666, Note_on_c, 0, 79, 0
2, 233668, Note_on_c, 0, 72, 0
2, 233677, Note_on_c, 0, 76, 0
2, 233684, Note_on_c, 0, 64, 0
2, 233926, Note_on_c, 0, 79, 77
2, 233930, Note_on_c, 0, 69, 77
2, 233931, Note_on_c, 0, 72, 72
2, 233932, Note_on_c, 0, 76, 66
2, 233937, Note_on_c, 0, 64, 72
2, 233995, Note_on_c, 0, 72, 0
2, 233995, Note_on_c, 0, 69, 0
2, 234003, Note_on_c, 0, 76, 0
2, 234013, Note_on_c, 0, 79, 0
2, 234038, Note_on_c, 0, 64, 0
2, 234045, Note_on_c, 0, 62, 50
2, 234109, Note_on_c, 0, 62, 0
2, 234121, Note_on_c, 0, 79, 75
2, 234125, Note_on_c, 0, 69, 77
2, 234127, Note_on_c, 0, 72, 71
2, 234127, Note_on_c, 0, 76, 68
2, 234134, Note_on_c, 0, 64, 62
2, 234211, Note_on_c, 0, 69, 0
2, 234214, Note_on_c, 0, 72, 0
2, 234221, Note_on_c, 0, 79, 0
2, 234223, Note_on_c, 0, 64, 0
2, 234232, Note_on_c, 0, 76, 0
2, 234471, Note_on_c, 0, 62, 50
2, 234501, Note_on_c, 0, 79, 78
2, 234503, Note_on_c, 0, 69, 83
2, 234505, Note_on_c, 0, 72, 73
2, 234505, Note_on_c, 0, 76, 67
2, 234507, Note_on_c, 0, 64, 66
2, 234510, Note_on_c, 0, 62, 0
2, 234585, Note_on_c, 0, 69, 0
2, 234590, Note_on_c, 0, 72, 0
2, 234596, Note_on_c, 0, 79, 0
2, 234596, Note_on_c, 0, 76, 0
2, 234613, Note_on_c, 0, 62, 66
2, 234617, Note_on_c, 0, 64, 0
2, 234673, Note_on_c, 0, 62, 0
2, 234688, Note_on_c, 0, 79, 73
2, 234693, Note_on_c, 0, 69, 76
2, 234694, Note_on_c, 0, 76, 70
2, 234694, Note_on_c, 0, 64, 61
2, 234695, Note_on_c, 0, 72, 74
2, 234721, Note_on_c, 0, 77, 31
2, 234772, Note_on_c, 0, 64, 0
2, 234794, Note_on_c, 0, 77, 0
2, 234800, Note_on_c, 0, 76, 0
2, 234802, Note_on_c, 0, 72, 0
2, 234808, Note_on_c, 0, 69, 0
2, 234812, Note_on_c, 0, 79, 0
2, 235066, Note_on_c, 0, 70, 67
2, 235069, Note_on_c, 0, 77, 68
2, 235071, Note_on_c, 0, 65, 63
2, 235073, Note_on_c, 0, 74, 61
2, 235075, Note_on_c, 0, 62, 62
2, 235163, Note_on_c, 0, 70, 0
2, 235164, Note_on_c, 0, 65, 0
2, 235171, Note_on_c, 0, 74, 0
2, 235176, Note_on_c, 0, 77, 0
2, 235180, Note_on_c, 0, 60, 59
2, 235182, Note_on_c, 0, 62, 0
2, 235253, Note_on_c, 0, 60, 0
2, 235273, Note_on_c, 0, 77, 67
2, 235274, Note_on_c, 0, 62, 63
2, 235275, Note_on_c, 0, 70, 69
2, 235276, Note_on_c, 0, 65, 71
2, 235278, Note_on_c, 0, 74, 63
2, 235307, Note_on_c, 0, 76, 22
2, 235352, Note_on_c, 0, 76, 0
2, 235383, Note_on_c, 0, 62, 0
2, 235390, Note_on_c, 0, 77, 0
2, 235395, Note_on_c, 0, 65, 0
2, 235401, Note_on_c, 0, 74, 0
2, 235405, Note_on_c, 0, 70, 0
2, 235848, Note_on_c, 0, 72, 65
2, 235849, Note_on_c, 0, 65, 64
2, 235851, Note_on_c, 0, 62, 54
2, 235854, Note_on_c, 0, 69, 66
2, 235855, Note_on_c, 0, 58, 44
2, 235861, Note_on_c, 0, 60, 45
2, 235916, Note_on_c, 0, 60, 0
2, 235916, Note_on_c, 0, 62, 0
2, 235917, Note_on_c, 0, 69, 0
2, 235922, Note_on_c, 0, 65, 0
2, 235935, Note_on_c, 0, 72, 0
2, 235984, Note_on_c, 0, 60, 33
2, 236050, Note_on_c, 0, 62, 60
2, 236052, Note_on_c, 0, 72, 71
2, 236056, Note_on_c, 0, 69, 76
2, 236056, Note_on_c, 0, 65, 68
2, 236142, Note_on_c, 0, 69, 0
2, 236146, Note_on_c, 0, 65, 0
2, 236158, Note_on_c, 0, 60, 0
2, 236160, Note_on_c, 0, 72, 0
2, 236160, Note_on_c, 0, 62, 0
2, 236193, Note_on_c, 0, 58, 0
2, 236784, Note_on_c, 0, 55, 45
2, 236808, Note_on_c, 0, 55, 0
2, 236820, Note_on_c, 0, 58, 72
2, 236820, Note_on_c, 0, 62, 71
2, 236821, Note_on_c, 0, 69, 75
2, 236826, Note_on_c, 0, 57, 70
2, 236831, Note_on_c, 0, 65, 54
2, 236905, Note_on_c, 0, 58, 0
2, 236911, Note_on_c, 0, 65, 0
2, 236912, Note_on_c, 0, 62, 0
2, 236915, Note_on_c, 0, 69, 0
2, 236920, Note_on_c, 0, 57, 0
2, 236931, Note_on_c, 0, 55, 51
2, 237007, Note_on_c, 0, 55, 0
2, 237020, Note_on_c, 0, 58, 75
2, 237022, Note_on_c, 0, 69, 73
2, 237024, Note_on_c, 0, 62, 67
2, 237032, Note_on_c, 0, 57, 75
2, 237032, Note_on_c, 0, 65, 61
2, 237265, Note_on_c, 0, 58, 0
2, 237270, Note_on_c, 0, 69, 0
2, 237278, Note_on_c, 0, 62, 0
2, 237285, Note_on_c, 0, 65, 0
2, 237311, Note_on_c, 0, 58, 53
2, 237316, Note_on_c, 0, 62, 66
2, 237320, Note_on_c, 0, 67, 63
2, 237330, Note_on_c, 0, 55, 69
2, 237331, Note_on_c, 0, 65, 45
2, 237338, Note_on_c, 0, 57, 0
2, 237450, Note_on_c, 0, 65, 0
2, 237515, Note_on_c, 0, 58, 0
2, 237522, Note_on_c, 0, 62, 0
2, 237547, Note_on_c, 0, 67, 0
2, 237559, Note_on_c, 0, 55, 0
2, 237564, Note_on_c, 0, 58, 49
2, 237574, Note_on_c, 0, 65, 53
2, 237578, Note_on_c, 0, 53, 47
2, 237579, Note_on_c, 0, 62, 51
2, 237644, Note_on_c, 0, 62, 0
2, 237652, Note_on_c, 0, 65, 0
2, 237661, Note_on_c, 0, 58, 0
2, 237730, Note_on_c, 0, 53, 0
2, 237770, Note_on_c, 0, 58, 39
2, 237783, Note_on_c, 0, 49, 33
2, 237785, Note_on_c, 0, 61, 37
2, 237850, Note_on_c, 0, 58, 0
2, 237851, Note_on_c, 0, 61, 0
2, 237927, Note_on_c, 0, 49, 0
2, 237953, Note_on_c, 0, 57, 49
2, 237963, Note_on_c, 0, 60, 37
2, 237965, Note_on_c, 0, 64, 35
2, 237965, Note_on_c, 0, 50, 34
2, 238012, Note_on_c, 0, 60, 0
2, 238012, Note_on_c, 0, 57, 0
2, 238041, Note_on_c, 0, 64, 0
2, 238075, Note_on_c, 0, 50, 0
2, 239670, Note_on_c, 0, 79, 74
2, 239674, Note_on_c, 0, 64, 68
2, 239674, Note_on_c, 0, 72, 67
2, 239675, Note_on_c, 0, 69, 65
2, 239679, Note_on_c, 0, 76, 57
2, 239744, Note_on_c, 0, 69, 0
2, 239752, Note_on_c, 0, 72, 0
2, 239753, Note_on_c, 0, 76, 0
2, 239762, Note_on_c, 0, 64, 0
2, 239771, Note_on_c, 0, 79, 0
2, 239976, Note_on_c, 0, 79, 68
2, 239978, Note_on_c, 0, 69, 69
2, 239979, Note_on_c, 0, 72, 65
2, 239983, Note_on_c, 0, 76, 53
2, 239988, Note_on_c, 0, 64, 67
2, 240056, Note_on_c, 0, 79, 0
2, 240061, Note_on_c, 0, 76, 0
2, 240068, Note_on_c, 0, 72, 0
2, 240074, Note_on_c, 0, 69, 0
2, 240099, Note_on_c, 0, 64, 0
2, 240258, Note_on_c, 0, 69, 51
2, 240260, Note_on_c, 0, 67, 43
2, 240260, Note_on_c, 0, 76, 44
2, 240260, Note_on_c, 0, 72, 47
2, 240272, Note_on_c, 0, 60, 44
2, 240296, Note_on_c, 0, 60, 0
2, 240301, Note_on_c, 0, 67, 0
2, 240312, Note_on_c, 0, 69, 0
2, 240325, Note_on_c, 0, 76, 0
2, 240326, Note_on_c, 0, 72, 0
2, 240563, Note_on_c, 0, 79, 61
2, 240570, Note_on_c, 0, 72, 60
2, 240573, Note_on_c, 0, 69, 55
2, 240574, Note_on_c, 0, 64, 69
2, 240583, Note_on_c, 0, 76, 32
2, 240611, Note_on_c, 0, 76, 0
2, 240622, Note_on_c, 0, 72, 0
2, 240626, Note_on_c, 0, 79, 0
2, 240639, Note_on_c, 0, 69, 0
2, 240644, Note_on_c, 0, 64, 0
2, 240827, Note_on_c, 0, 76, 53
2, 240829, Note_on_c, 0, 67, 54
2, 240831, Note_on_c, 0, 69, 58
2, 240834, Note_on_c, 0, 60, 55
2, 240837, Note_on_c, 0, 72, 47
2, 240876, Note_on_c, 0, 67, 0
2, 240881, Note_on_c, 0, 76, 0
2, 240884, Note_on_c, 0, 69, 0
2, 240890, Note_on_c, 0, 72, 0
2, 240895, Note_on_c, 0, 60, 0
2, 241025, Note_on_c, 0, 72, 53
2, 241029, Note_on_c, 0, 69, 54
2, 241037, Note_on_c, 0, 65, 36
2, 241042, Note_on_c, 0, 58, 33
2, 241043, Note_on_c, 0, 60, 38
2, 241043, Note_on_c, 0, 62, 41
2, 241094, Note_on_c, 0, 65, 0
2, 241100, Note_on_c, 0, 69, 0
2, 241103, Note_on_c, 0, 62, 0
2, 241110, Note_on_c, 0, 60, 0
2, 241114, Note_on_c, 0, 72, 0
2, 241133, Note_on_c, 0, 58, 0
2, 241314, Note_on_c, 0, 72, 46
2, 241319, Note_on_c, 0, 65, 32
2, 241320, Note_on_c, 0, 62, 35
2, 241321, Note_on_c, 0, 69, 44
2, 241326, Note_on_c, 0, 58, 31
2, 241326, Note_on_c, 0, 60, 35
2, 241354, Note_on_c, 0, 69, 0
2, 241358, Note_on_c, 0, 65, 0
2, 241358, Note_on_c, 0, 60, 0
2, 241372, Note_on_c, 0, 72, 0
2, 241381, Note_on_c, 0, 62, 0
2, 241401, Note_on_c, 0, 58, 0
2, 241580, Note_on_c, 0, 72, 43
2, 241580, Note_on_c, 0, 69, 52
2, 241584, Note_on_c, 0, 65, 39
2, 241587, Note_on_c, 0, 62, 38
2, 241593, Note_on_c, 0, 58, 34
2, 241595, Note_on_c, 0, 60, 39
2, 241808, Note_on_c, 0, 65, 0
2, 241818, Control_c, 0, 64, 127
2, 241834, Note_off_c, 0, 69, 0
2, 241872, Control_c, 0, 64, 0
2, 241874, Note_off_c, 0, 72, 0
2, 242000, Control_c, 0, 64, 127
2, 242025, Note_off_c, 0, 60, 0
2, 242060, Note_off_c, 0, 62, 0
2, 242088, Note_off_c, 0, 58, 0
2, 242556, Control_c, 0, 64, 0
2, 242743, Note_on_c, 0, 84, 77
2, 242744, Note_on_c, 0, 65, 51
2, 242745, Note_on_c, 0, 72, 69
2, 242752, Note_on_c, 0, 60, 40
2, 242756, Note_on_c, 0, 58, 26
2, 242776, Note_on_c, 0, 60, 0
2, 242781, Note_on_c, 0, 84, 0
2, 242785, Note_on_c, 0, 72, 0
2, 242787, Note_on_c, 0, 65, 0
2, 242789, Note_on_c, 0, 58, 0
2, 242839, Note_on_c, 0, 65, 54
2, 242842, Note_on_c, 0, 84, 72
2, 242844, Note_on_c, 0, 58, 41
2, 242847, Note_on_c, 0, 72, 55
2, 242851, Note_on_c, 0, 60, 49
2, 242855, Note_on_c, 0, 55, 52
2, 242898, Note_on_c, 0, 72, 0
2, 242904, Note_on_c, 0, 84, 0
2, 242912, Note_on_c, 0, 60, 0
2, 242914, Note_on_c, 0, 65, 0
2, 242915, Note_on_c, 0, 55, 0
2, 242930, Note_on_c, 0, 58, 0
2, 243320, Note_on_c, 0, 58, 44
2, 243326, Note_on_c, 0, 65, 59
2, 243326, Note_on_c, 0, 82, 60
2, 243327, Note_on_c, 0, 84, 71
2, 243327, Note_on_c, 0, 60, 51
2, 243327, Note_on_c, 0, 72, 70
2, 243363, Note_on_c, 0, 72, 0
2, 243366, Note_on_c, 0, 84, 0
2, 243374, Note_on_c, 0, 65, 0
2, 243378, Note_on_c, 0, 82, 0
2, 243388, Note_on_c, 0, 60, 0
2, 243409, Note_on_c, 0, 58, 0
2, 243420, Note_on_c, 0, 72, 52
2, 243421, Note_on_c, 0, 82, 48
2, 243422, Note_on_c, 0, 84, 54
2, 243464, Note_on_c, 0, 72, 0
2, 243470, Note_on_c, 0, 84, 0
2, 243487, Note_on_c, 0, 82, 0
2, 243640, Note_on_c, 0, 82, 60
2, 243642, Note_on_c, 0, 84, 70
2, 243643, Note_on_c, 0, 72, 67
2, 243650, Note_on_c, 0, 58, 40
2, 243651, Note_on_c, 0, 65, 46
2, 243653, Note_on_c, 0, 60, 49
2, 243684, Note_on_c, 0, 65, 0
2, 243685, Note_on_c, 0, 72, 0
2, 243690, Note_on_c, 0, 84, 0
2, 243697, Note_on_c, 0, 60, 0
2, 243708, Note_on_c, 0, 82, 0
2, 243719, Note_on_c, 0, 58, 0
2, 243838, Note_on_c, 0, 82, 56
2, 243839, Note_on_c, 0, 84, 67
2, 243839, Note_on_c, 0, 72, 63
2, 243847, Note_on_c, 0, 58, 48
2, 243848, Note_on_c, 0, 65, 50
2, 243850, Note_on_c, 0, 60, 50
2, 243879, Note_on_c, 0, 65, 0
2, 243880, Note_on_c, 0, 84, 0
2, 243884, Note_on_c, 0, 72, 0
2, 243886, Note_on_c, 0, 60, 0
2, 243900, Note_on_c, 0, 82, 0
2, 243916, Note_on_c, 0, 58, 0
2, 243936, Note_on_c, 0, 82, 29
2, 243937, Note_on_c, 0, 84, 46
2, 243942, Note_on_c, 0, 72, 31
2, 243980, Note_on_c, 0, 84, 0
2, 243981, Note_on_c, 0, 72, 0
2, 244014, Note_on_c, 0, 82, 0
2, 244089, Note_on_c, 0, 84, 61
2, 244090, Note_on_c, 0, 72, 56
2, 244092, Note_on_c, 0, 81, 55
2, 244094, Note_on_c, 0, 60, 41
2, 244104, Note_on_c, 0, 53, 53
2, 244106, Note_on_c, 0, 57, 44
2, 244114, Note_on_c, 0, 50, 30
2, 244132, Note_on_c, 0, 84, 0
2, 244133, Note_on_c, 0, 72, 0
2, 244134, Note_on_c, 0, 57, 0
2, 244144, Note_on_c, 0, 50, 0
2, 244144, Note_on_c, 0, 81, 0
2, 244146, Note_on_c, 0, 60, 0
2, 244163, Note_on_c, 0, 53, 0
2, 245236, Note_on_c, 0, 64, 64
2, 245240, Note_on_c, 0, 67, 58
2, 245289, Note_on_c, 0, 64, 0
2, 245294, Note_on_c, 0, 67, 0
2, 245342, Note_on_c, 0, 64, 50
2, 245346, Note_on_c, 0, 67, 54
2, 245423, Note_on_c, 0, 62, 58
2, 245433, Note_on_c, 0, 65, 58
2, 245440, Note_on_c, 0, 64, 0
2, 245454, Note_on_c, 0, 67, 0
2, 245473, Note_on_c, 0, 62, 0
2, 245485, Note_on_c, 0, 65, 0
2, 245626, Note_on_c, 0, 64, 64
2, 245627, Note_on_c, 0, 67, 59
2, 245711, Note_on_c, 0, 67, 0
2, 245715, Note_on_c, 0, 64, 0
2, 245816, Note_on_c, 0, 62, 26
2, 245825, Note_on_c, 0, 65, 38
2, 245881, Note_on_c, 0, 62, 0
2, 245888, Note_on_c, 0, 65, 0
2, 245929, Note_on_c, 0, 64, 60
2, 245930, Note_on_c, 0, 67, 46
2, 245944, Note_on_c, 0, 60, 33
2, 245953, Note_on_c, 0, 57, 32
2, 245967, Note_on_c, 0, 53, 20
2, 245988, Note_on_c, 0, 64, 0
2, 245989, Note_on_c, 0, 57, 0
2, 245995, Note_on_c, 0, 60, 0
2, 245996, Note_on_c, 0, 67, 0
2, 246003, Note_on_c, 0, 53, 0
2, 247157, Note_on_c, 0, 50, 31
2, 247159, Note_on_c, 0, 58, 28
2, 247160, Note_on_c, 0, 60, 39
2, 247163, Note_on_c, 0, 57, 40
2, 247163, Note_on_c, 0, 43, 36
2, 247734, Control_c, 0, 64, 127
2, 247892, Note_off_c, 0, 57, 0
2, 247909, Note_off_c, 0, 58, 0
2, 247916, Note_off_c, 0, 43, 0
2, 247917, Note_off_c, 0, 60, 0
2, 247928, Note_off_c, 0, 50, 0
2, 248504, Note_on_c, 0, 81, 81
2, 248510, Note_on_c, 0, 77, 75
2, 248512, Control_c, 0, 64, 0
2, 248512, Note_on_c, 0, 65, 63
2, 248515, Note_on_c, 0, 60, 54
2, 248518, Note_on_c, 0, 55, 57
2, 248522, Note_on_c, 0, 72, 71
2, 248615, Control_c, 0, 64, 127
2, 248835, Note_off_c, 0, 72, 0
2, 248861, Note_off_c, 0, 60, 0
2, 248861, Note_off_c, 0, 55, 0
2, 248883, Note_off_c, 0, 81, 0
2, 248889, Note_off_c, 0, 77, 0
2, 248894, Note_off_c, 0, 65, 0
2, 249274, Note_on_c, 0, 86, 81
2, 249277, Note_on_c, 0, 81, 89
2, 249280, Note_on_c, 0, 65, 67
2, 249284, Control_c, 0, 64, 0
2, 249285, Note_on_c, 0, 60, 59
2, 249287, Note_on_c, 0, 55, 63
2, 249416, Control_c, 0, 64, 127
2, 249509, Note_off_c, 0, 81, 0
2, 249518, Note_off_c, 0, 86, 0
2, 249546, Note_off_c, 0, 55, 0
2, 249558, Note_off_c, 0, 60, 0
2, 249560, Note_off_c, 0, 65, 0
2, 249695, Note_on_c, 0, 84, 79
2, 249698, Note_on_c, 0, 77, 75
2, 249705, Note_on_c, 0, 65, 60
2, 249706, Note_on_c, 0, 60, 54
2, 249706, Note_on_c, 0, 55, 63
2, 249708, Control_c, 0, 64, 0
2, 249791, Control_c, 0, 64, 127
2, 249806, Note_off_c, 0, 84, 0
2, 249820, Note_off_c, 0, 77, 0
2, 249861, Note_off_c, 0, 55, 0
2, 249864, Note_off_c, 0, 65, 0
2, 249876, Note_off_c, 0, 60, 0
2, 249973, Control_c, 0, 64, 0
2, 249979, Note_on_c, 0, 81, 60
2, 249979, Note_on_c, 0, 74, 68
2, 249986, Note_on_c, 0, 65, 54
2, 249991, Note_on_c, 0, 60, 46
2, 249994, Note_on_c, 0, 55, 55
2, 250017, Note_on_c, 0, 65, 0
2, 250035, Note_on_c, 0, 60, 0
2, 250042, Control_c, 0, 64, 127
2, 250054, Note_off_c, 0, 55, 0
2, 250065, Note_off_c, 0, 74, 0
2, 250066, Note_off_c, 0, 81, 0
2, 250222, Note_on_c, 0, 79, 43
2, 250223, Note_on_c, 0, 60, 33
2, 250224, Note_on_c, 0, 69, 47
2, 250226, Control_c, 0, 64, 0
2, 250228, Note_on_c, 0, 76, 48
2, 250229, Note_on_c, 0, 57, 42
2, 250233, Note_on_c, 0, 72, 51
2, 250233, Note_on_c, 0, 53, 46
2, 250235, Note_on_c, 0, 50, 26
2, 251057, Note_on_c, 0, 79, 0
2, 251074, Note_on_c, 0, 76, 0
2, 251094, Note_on_c, 0, 69, 0
2, 251116, Note_on_c, 0, 72, 0
2, 251310, Note_on_c, 0, 50, 0
2, 251323, Note_on_c, 0, 53, 0
2, 251328, Note_on_c, 0, 57, 0
2, 251394, Note_on_c, 0, 60, 0
2, 251575, Note_on_c, 0, 64, 48
2, 251578, Note_on_c, 0, 76, 45
2, 251581, Note_on_c, 0, 69, 51
2, 251583, Note_on_c, 0, 65, 42
2, 251592, Note_on_c, 0, 72, 39
2, 251673, Note_on_c, 0, 69, 0
2, 251674, Note_on_c, 0, 72, 0
2, 251677, Note_on_c, 0, 65, 0
2, 251683, Note_on_c, 0, 76, 0
2, 251694, Note_on_c, 0, 64, 0
2, 251696, Note_on_c, 0, 62, 44
2, 251794, Note_on_c, 0, 65, 32
2, 251797, Note_on_c, 0, 64, 41
2, 251799, Note_on_c, 0, 62, 0
2, 251799, Note_on_c, 0, 69, 48
2, 251800, Note_on_c, 0, 76, 31
2, 251804, Note_on_c, 0, 72, 39
2, 251860, Note_on_c, 0, 65, 0
2, 251864, Note_on_c, 0, 69, 0
2, 251867, Note_on_c, 0, 72, 0
2, 251879, Note_on_c, 0, 76, 0
2, 251885, Note_on_c, 0, 64, 0
2, 253304, Note_on_c, 0, 58, 36
2, 253304, Note_on_c, 0, 57, 44
2, 253305, Note_on_c, 0, 62, 41
2, 253310, Note_on_c, 0, 50, 35
2, 253338, Note_on_c, 0, 50, 0
2, 253354, Note_on_c, 0, 57, 0
2, 253359, Note_on_c, 0, 58, 0
2, 253371, Note_on_c, 0, 62, 0
2, 253483, Note_on_c, 0, 58, 46
2, 253484, Note_on_c, 0, 57, 50
2, 253484, Note_on_c, 0, 62, 44
2, 253497, Note_on_c, 0, 50, 47
2, 253547, Note_on_c, 0, 50, 0
2, 253568, Note_on_c, 0, 57, 0
2, 253572, Note_on_c, 0, 58, 0
2, 253579, Note_on_c, 0, 62, 0
2, 254633, Note_on_c, 0, 74, 65
2, 254635, Note_on_c, 0, 81, 65
2, 254702, Note_on_c, 0, 81, 0
2, 254716, Note_on_c, 0, 74, 0
2, 254758, Note_on_c, 0, 69, 28
2, 254799, Note_on_c, 0, 69, 0
2, 255220, Note_on_c, 0, 74, 73
2, 255224, Note_on_c, 0, 81, 62
2, 255331, Note_on_c, 0, 81, 0
2, 255336, Note_on_c, 0, 69, 31
2, 255370, Note_on_c, 0, 74, 0
2, 255387, Note_on_c, 0, 69, 0
2, 255717, Note_on_c, 0, 62, 34
2, 255740, Note_on_c, 0, 62, 0
2, 255773, Note_on_c, 0, 74, 83
2, 255777, Note_on_c, 0, 81, 70
2, 255879, Note_on_c, 0, 74, 0
2, 255890, Note_on_c, 0, 81, 0
2, 255901, Note_on_c, 0, 69, 27
2, 255963, Note_on_c, 0, 69, 0
2, 256105, Note_on_c, 0, 74, 78
2, 256107, Note_on_c, 0, 62, 39
2, 256107, Note_on_c, 0, 81, 65
2, 256130, Note_on_c, 0, 62, 0
2, 256165, Note_on_c, 0, 81, 0
2, 256196, Note_on_c, 0, 74, 0
2, 256203, Note_on_c, 0, 69, 35
2, 256289, Note_on_c, 0, 69, 0
2, 256383, Note_on_c, 0, 79, 62
2, 256384, Note_on_c, 0, 72, 65
2, 256451, Note_on_c, 0, 72, 0
2, 256470, Note_on_c, 0, 79, 0
2, 257139, Note_on_c, 0, 64, 50
2, 257142, Note_on_c, 0, 67, 49
2, 257164, Note_on_c, 0, 59, 26
2, 257186, Note_on_c, 0, 59, 0
2, 257197, Note_on_c, 0, 64, 0
2, 257212, Note_on_c, 0, 67, 0
2, 257239, Note_on_c, 0, 64, 34
2, 257242, Note_on_c, 0, 67, 22
2, 257279, Note_on_c, 0, 67, 0
2, 257284, Note_on_c, 0, 64, 0
2, 257659, Note_on_c, 0, 57, 30
2, 257685, Note_on_c, 0, 57, 0
2, 257706, Note_on_c, 0, 62, 38
2, 257716, Note_on_c, 0, 63, 42
2, 257796, Note_on_c, 0, 63, 0
2, 257800, Note_on_c, 0, 62, 0
2, 258282, Note_on_c, 0, 67, 51
2, 258286, Note_on_c, 0, 60, 46
2, 258299, Note_on_c, 0, 64, 40
2, 258348, Note_on_c, 0, 60, 0
2, 258352, Note_on_c, 0, 64, 0
2, 258357, Note_on_c, 0, 67, 0
2, 258382, Note_on_c, 0, 67, 19
2, 258383, Note_on_c, 0, 60, 25
2, 258398, Note_on_c, 0, 64, 51
2, 258430, Note_on_c, 0, 60, 0
2, 258431, Note_on_c, 0, 67, 0
2, 258433, Note_on_c, 0, 64, 0
2, 258604, Note_on_c, 0, 57, 32
2, 258629, Note_on_c, 0, 57, 0
2, 258668, Note_on_c, 0, 67, 49
2, 258671, Note_on_c, 0, 60, 48
2, 258680, Note_on_c, 0, 64, 50
2, 258741, Note_on_c, 0, 67, 0
2, 258742, Note_on_c, 0, 60, 0
2, 258746, Note_on_c, 0, 64, 0
2, 258779, Note_on_c, 0, 67, 30
2, 258782, Note_on_c, 0, 60, 23
2, 258788, Note_on_c, 0, 64, 50
2, 258831, Note_on_c, 0, 60, 0
2, 258836, Note_on_c, 0, 67, 0
2, 258848, Note_on_c, 0, 64, 0
2, 258991, Note_on_c, 0, 57, 46
2, 259013, Note_on_c, 0, 57, 0
2, 259049, Note_on_c, 0, 67, 46
2, 259054, Note_on_c, 0, 60, 48
2, 259057, Note_on_c, 0, 64, 43
2, 259105, Note_on_c, 0, 67, 0
2, 259119, Note_on_c, 0, 64, 0
2, 259119, Note_on_c, 0, 60, 0
2, 259153, Note_on_c, 0, 67, 33
2, 259158, Note_on_c, 0, 60, 19
2, 259164, Note_on_c, 0, 64, 52
2, 259201, Note_on_c, 0, 60, 0
2, 259221, Note_on_c, 0, 64, 0
2, 259221, Note_on_c, 0, 67, 0
2, 259363, Note_on_c, 0, 62, 22
2, 259364, Note_on_c, 0, 60, 27
2, 259374, Note_on_c, 0, 58, 27
2, 259385, Note_on_c, 0, 62, 0
2, 259392, Note_on_c, 0, 60, 0
2, 259407, Note_on_c, 0, 58, 0
2, 259430, Note_on_c, 0, 65, 51
2, 259447, Note_on_c, 0, 72, 31
2, 259448, Note_on_c, 0, 69, 41
2, 259489, Note_on_c, 0, 65, 0
2, 259500, Note_on_c, 0, 72, 0
2, 259501, Note_on_c, 0, 69, 0
2, 259547, Note_on_c, 0, 72, 19
2, 259547, Note_on_c, 0, 65, 33
2, 259552, Note_on_c, 0, 69, 56
2, 259582, Note_on_c, 0, 69, 0
2, 259586, Note_on_c, 0, 65, 0
2, 259586, Note_on_c, 0, 72, 0
2, 259752, Note_on_c, 0, 62, 49
2, 259756, Note_on_c, 0, 60, 39
2, 259758, Note_on_c, 0, 58, 33
2, 259772, Note_on_c, 0, 62, 0
2, 259777, Note_on_c, 0, 60, 0
2, 259781, Note_on_c, 0, 58, 0
2, 259813, Note_on_c, 0, 72, 47
2, 259818, Note_on_c, 0, 65, 40
2, 259825, Note_on_c, 0, 69, 46
2, 259869, Note_on_c, 0, 72, 0
2, 259880, Note_on_c, 0, 65, 0
2, 259883, Note_on_c, 0, 69, 0
2, 259938, Note_on_c, 0, 65, 31
2, 259938, Note_on_c, 0, 69, 43
2, 259965, Note_on_c, 0, 69, 0
2, 259971, Note_on_c, 0, 65, 0
2, 260128, Note_on_c, 0, 62, 46
2, 260141, Note_on_c, 0, 58, 26
2, 260147, Note_on_c, 0, 60, 31
2, 260151, Note_on_c, 0, 62, 0
2, 260165, Note_on_c, 0, 58, 0
2, 260169, Note_on_c, 0, 60, 0
2, 260197, Note_on_c, 0, 72, 52
2, 260199, Note_on_c, 0, 65, 47
2, 260211, Note_on_c, 0, 69, 43
2, 260250, Note_on_c, 0, 72, 0
2, 260251, Note_on_c, 0, 65, 0
2, 260263, Note_on_c, 0, 69, 0
2, 260316, Note_on_c, 0, 65, 28
2, 260317, Note_on_c, 0, 69, 46
2, 260317, Note_on_c, 0, 72, 37
2, 260343, Note_on_c, 0, 65, 0
2, 260348, Note_on_c, 0, 69, 0
2, 260359, Note_on_c, 0, 72, 0
2, 260519, Note_on_c, 0, 62, 41
2, 260529, Note_on_c, 0, 58, 28
2, 260530, Note_on_c, 0, 60, 35
2, 260542, Note_on_c, 0, 62, 0
2, 260551, Note_on_c, 0, 60, 0
2, 260565, Note_on_c, 0, 58, 0
2, 261167, Note_on_c, 0, 84, 67
2, 261182, Note_on_c, 0, 81, 63
2, 261191, Note_on_c, 0, 77, 61
2, 261193, Note_on_c, 0, 62, 44
2, 261200, Note_on_c, 0, 58, 28
2, 261207, Note_on_c, 0, 60, 32
2, 261234, Note_on_c, 0, 60, 0
2, 261253, Note_on_c, 0, 72, 32
2, 261265, Note_on_c, 0, 60, 16
2, 261298, Control_c, 0, 64, 127
2, 261494, Note_off_c, 0, 84, 0
2, 261502, Note_off_c, 0, 81, 0
2, 261522, Note_off_c, 0, 77, 0
2, 261532, Note_off_c, 0, 72, 0
2, 261540, Note_off_c, 0, 62, 0
2, 261548, Note_off_c, 0, 60, 0
2, 261596, Note_off_c, 0, 58, 0
2, 261758, Note_on_c, 0, 81, 72
2, 261777, Note_on_c, 0, 77, 56
2, 261780, Note_on_c, 0, 74, 60
2, 261785, Note_on_c, 0, 58, 29
2, 261788, Note_on_c, 0, 60, 36
2, 261790, Note_on_c, 0, 62, 43
2, 261792, Control_c, 0, 64, 0
2, 261799, Note_on_c, 0, 69, 45
2, 261889, Control_c, 0, 64, 127
2, 261896, Note_off_c, 0, 81, 0
2, 261939, Note_off_c, 0, 77, 0
2, 261950, Note_off_c, 0, 74, 0
2, 261998, Note_off_c, 0, 62, 0
2, 261999, Note_off_c, 0, 60, 0
2, 262010, Note_off_c, 0, 58, 0
2, 262015, Note_off_c, 0, 69, 0
2, 262158, Note_on_c, 0, 77, 69
2, 262172, Note_on_c, 0, 72, 65
2, 262183, Note_on_c, 0, 58, 31
2, 262187, Note_on_c, 0, 62, 40
2, 262191, Note_on_c, 0, 69, 58
2, 262198, Note_on_c, 0, 60, 33
2, 262209, Control_c, 0, 64, 0
2, 262224, Note_off_c, 0, 60, 0
2, 262260, Note_off_c, 0, 62, 0
2, 262264, Control_c, 0, 64, 127
2, 262286, Note_off_c, 0, 58, 0
2, 262307, Note_off_c, 0, 77, 0
2, 262312, Note_off_c, 0, 72, 0
2, 262356, Note_off_c, 0, 69, 0
2, 262518, Note_on_c, 0, 76, 56
2, 262529, Control_c, 0, 64, 0
2, 262535, Note_on_c, 0, 69, 53
2, 262540, Note_on_c, 0, 57, 38
2, 262542, Note_on_c, 0, 65, 55
2, 262543, Note_on_c, 0, 60, 31
2, 262563, Note_on_c, 0, 50, 29
2, 262898, Control_c, 0, 64, 127
2, 262970, Note_off_c, 0, 65, 0
2, 263008, Note_off_c, 0, 69, 0
2, 263056, Note_off_c, 0, 76, 0
2, 263057, Note_off_c, 0, 57, 0
2, 263059, Note_off_c, 0, 60, 0
2, 263070, Note_off_c, 0, 50, 0
2, 263305, Note_on_c, 0, 91, 68
2, 263305, Note_on_c, 0, 84, 74
2, 263417, Note_on_c, 0, 91, 0
2, 263418, Note_on_c, 0, 84, 0
2, 263585, Note_on_c, 0, 81, 65
2, 263586, Note_on_c, 0, 88, 61
2, 263828, Note_on_c, 0, 88, 0
2, 263856, Note_on_c, 0, 81, 0
2, 264597, Control_c, 0, 64, 0
2, 264623, Note_on_c, 0, 74, 53
2, 264632, Note_on_c, 0, 75, 46
2, 264670, Note_on_c, 0, 75, 0
2, 264715, Note_on_c, 0, 74, 0
2, 264815, Note_on_c, 0, 74, 45
2, 264817, Note_on_c, 0, 75, 50
2, 264910, Note_on_c, 0, 75, 0
2, 264910, Note_on_c, 0, 76, 16
2, 264941, Note_on_c, 0, 74, 0
2, 264945, Note_on_c, 0, 76, 0
2, 265973, Note_on_c, 0, 65, 40
2, 265976, Note_on_c, 0, 69, 48
2, 265986, Note_on_c, 0, 58, 31
2, 265990, Note_on_c, 0, 62, 26
2, 265991, Note_on_c, 0, 60, 33
2, 266104, Control_c, 0, 64, 127
2, 266209, Note_off_c, 0, 60, 0
2, 266218, Note_off_c, 0, 62, 0
2, 266220, Note_off_c, 0, 58, 0
2, 266222, Note_off_c, 0, 69, 0
2, 266229, Note_off_c, 0, 65, 0
2, 266272, Note_on_c, 0, 70, 61
2, 266278, Note_on_c, 0, 67, 62
2, 266279, Control_c, 0, 64, 0
2, 266280, Note_on_c, 0, 62, 39
2, 266287, Note_on_c, 0, 58, 35
2, 266290, Note_on_c, 0, 60, 41
2, 266425, Control_c, 0, 64, 127
2, 266476, Note_off_c, 0, 60, 0
2, 266485, Note_off_c, 0, 62, 0
2, 266491, Note_off_c, 0, 67, 0
2, 266492, Note_off_c, 0, 58, 0
2, 266494, Note_off_c, 0, 70, 0
2, 266552, Note_on_c, 0, 72, 62
2, 266557, Note_on_c, 0, 69, 61
2, 266560, Note_on_c, 0, 65, 51
2, 266563, Control_c, 0, 64, 0
2, 266569, Note_on_c, 0, 62, 42
2, 266573, Note_on_c, 0, 58, 36
2, 266579, Note_on_c, 0, 60, 46
2, 266743, Control_c, 0, 64, 127
2, 266897, Note_off_c, 0, 65, 0
2, 266909, Note_off_c, 0, 69, 0
2, 266914, Note_off_c, 0, 72, 0
2, 266945, Note_off_c, 0, 62, 0
2, 266952, Note_off_c, 0, 58, 0
2, 266953, Note_off_c, 0, 60, 0
2, 267088, Control_c, 0, 64, 0
2, 267109, Note_on_c, 0, 74, 66
2, 267115, Note_on_c, 0, 70, 56
2, 267118, Note_on_c, 0, 65, 57
2, 267121, Note_on_c, 0, 62, 52
2, 267121, Note_on_c, 0, 58, 45
2, 267124, Note_on_c, 0, 60, 47
2, 267232, Control_c, 0, 64, 127
2, 267233, Note_off_c, 0, 65, 0
2, 267244, Note_off_c, 0, 70, 0
2, 267245, Note_off_c, 0, 74, 0
2, 267304, Note_off_c, 0, 60, 0
2, 267306, Note_off_c, 0, 58, 0
2, 267310, Note_off_c, 0, 62, 0
2, 267422, Note_on_c, 0, 77, 56
2, 267423, Note_on_c, 0, 70, 62
2, 267425, Control_c, 0, 64, 0
2, 267427, Note_on_c, 0, 74, 50
2, 267430, Note_on_c, 0, 62, 55
2, 267432, Note_on_c, 0, 58, 48
2, 267435, Note_on_c, 0, 65, 56
2, 267436, Note_on_c, 0, 60, 48
2, 267521, Control_c, 0, 64, 127
2, 267529, Note_off_c, 0, 65, 0
2, 267544, Note_off_c, 0, 74, 0
2, 267544, Note_off_c, 0, 70, 0
2, 267560, Note_off_c, 0, 77, 0
2, 267586, Note_off_c, 0, 60, 0
2, 267596, Note_off_c, 0, 62, 0
2, 267596, Note_off_c, 0, 58, 0
2, 267697, Note_on_c, 0, 81, 63
2, 267702, Control_c, 0, 64, 0
2, 267703, Note_on_c, 0, 74, 60
2, 267705, Note_on_c, 0, 77, 52
2, 267706, Note_on_c, 0, 69, 55
2, 267707, Note_on_c, 0, 62, 57
2, 267708, Note_on_c, 0, 58, 54
2, 267712, Note_on_c, 0, 60, 55
2, 267811, Control_c, 0, 64, 127
2, 267837, Note_off_c, 0, 69, 0
2, 267849, Note_off_c, 0, 74, 0
2, 267866, Note_off_c, 0, 77, 0
2, 267881, Note_off_c, 0, 81, 0
2, 267902, Note_off_c, 0, 60, 0
2, 267905, Note_off_c, 0, 58, 0
2, 267906, Note_off_c, 0, 62, 0
2, 267973, Control_c, 0, 64, 0
2, 267995, Note_on_c, 0, 84, 61
2, 268001, Note_on_c, 0, 77, 45
2, 268001, Note_on_c, 0, 72, 53
2, 268002, Note_on_c, 0, 81, 47
2, 268003, Note_on_c, 0, 62, 62
2, 268007, Note_on_c, 0, 58, 57
2, 268008, Note_on_c, 0, 60, 56
2, 268017, Note_on_c, 0, 83, 23
2, 268042, Note_on_c, 0, 83, 0
2, 268052, Control_c, 0, 64, 127
2, 268117, Note_off_c, 0, 72, 0
2, 268128, Note_off_c, 0, 77, 0
2, 268149, Note_off_c, 0, 81, 0
2, 268162, Note_off_c, 0, 84, 0
2, 268163, Note_off_c, 0, 60, 0
2, 268172, Note_off_c, 0, 58, 0
2, 268174, Note_off_c, 0, 62, 0
2, 268298, Note_on_c, 0, 81, 59
2, 268299, Note_on_c, 0, 76, 61
2, 268299, Note_on_c, 0, 88, 62
2, 268301, Note_on_c, 0, 84, 60
2, 268301, Note_on_c, 0, 58, 60
2, 268308, Note_on_c, 0, 60, 55
2, 268311, Note_on_c, 0, 62, 54
2, 268325, Control_c, 0, 64, 0
2, 268375, Note_off_c, 0, 62, 0
2, 268380, Note_off_c, 0, 60, 0
2, 268389, Note_off_c, 0, 76, 0
2, 268407, Note_off_c, 0, 81, 0
2, 268410, Note_off_c, 0, 58, 0
2, 268410, Control_c, 0, 64, 127
2, 268416, Note_off_c, 0, 84, 0
2, 268431, Note_off_c, 0, 88, 0
2, 268579, Note_on_c, 0, 60, 46
2, 268583, Note_on_c, 0, 93, 65
2, 268585, Note_on_c, 0, 86, 57
2, 268586, Note_on_c, 0, 55, 59
2, 268588, Note_on_c, 0, 89, 57
2, 268589, Note_on_c, 0, 81, 52
2, 268591, Control_c, 0, 64, 0
2, 268593, Note_on_c, 0, 50, 52
2, 268595, Note_on_c, 0, 53, 39
2, 268620, Note_on_c, 0, 53, 0
2, 268675, Control_c, 0, 64, 127
2, 268708, Note_off_c, 0, 81, 0
2, 268719, Note_off_c, 0, 86, 0
2, 268731, Note_off_c, 0, 55, 0
2, 268741, Note_off_c, 0, 50, 0
2, 268747, Note_off_c, 0, 89, 0
2, 268752, Note_off_c, 0, 93, 0
2, 268755, Note_off_c, 0, 60, 0
2, 268866, Note_on_c, 0, 50, 25
2, 268869, Note_on_c, 0, 57, 43
2, 268869, Note_on_c, 0, 53, 38
2, 268872, Note_on_c, 0, 96, 59
2, 268873, Note_on_c, 0, 84, 54
2, 268873, Note_on_c, 0, 60, 44
2, 268874, Note_on_c, 0, 89, 50
2, 268875, Note_on_c, 0, 93, 49
2, 268877, Control_c, 0, 64, 0
2, 268984, Note_off_c, 0, 84, 0
2, 268996, Note_off_c, 0, 57, 0
2, 268997, Note_off_c, 0, 53, 0
2, 268997, Note_off_c, 0, 89, 0
2, 269004, Note_off_c, 0, 50, 0
2, 269007, Note_off_c, 0, 60, 0
2, 269013, Note_off_c, 0, 93, 0
2, 269028, Note_off_c, 0, 96, 0
2, 269619, Note_on_c, 0, 100, 47
2, 269621, Note_on_c, 0, 88, 38
2, 269622, Note_on_c, 0, 60, 39
2, 269628, Note_on_c, 0, 93, 40
2, 269631, Note_on_c, 0, 96, 37
2, 269631, Note_on_c, 0, 57, 25
2, 269636, Note_on_c, 0, 53, 29
2, 269666, Note_on_c, 0, 93, 0
2, 269667, Note_on_c, 0, 88, 0
2, 269672, Note_on_c, 0, 96, 0
2, 269672, Note_on_c, 0, 53, 0
2, 269677, Note_on_c, 0, 60, 0
2, 269678, Note_on_c, 0, 57, 0
2, 269694, Note_on_c, 0, 100, 0
2, 269821, Note_on_c, 0, 103, 54
2, 269825, Note_on_c, 0, 60, 34
2, 269827, Note_on_c, 0, 91, 38
2, 269829, Note_on_c, 0, 57, 31
2, 269830, Note_on_c, 0, 53, 33
2, 269833, Note_on_c, 0, 96, 43
2, 269834, Note_on_c, 0, 100, 40
2, 269840, Note_on_c, 0, 50, 33
2, 269872, Note_on_c, 0, 96, 0
2, 269875, Note_on_c, 0, 100, 0
2, 269890, Note_on_c, 0, 103, 0
2, 269894, Note_on_c, 0, 60, 0
2, 269898, Note_on_c, 0, 53, 0
2, 269898, Note_on_c, 0, 57, 0
2, 269905, Note_on_c, 0, 50, 0
2, 269905, Note_on_c, 0, 91, 0
2, 270624, Note_on_c, 0, 78, 16
2, 270643, Note_on_c, 0, 78, 0
2, 270782, Note_on_c, 0, 79, 62
2, 270786, Note_on_c, 0, 69, 61
2, 270787, Note_on_c, 0, 64, 62
2, 270787, Note_on_c, 0, 76, 51
2, 270788, Note_on_c, 0, 72, 55
2, 270838, Note_on_c, 0, 76, 0
2, 270846, Note_on_c, 0, 69, 0
2, 270847, Note_on_c, 0, 79, 0
2, 270847, Note_on_c, 0, 72, 0
2, 270904, Note_on_c, 0, 64, 0
2, 270975, Note_on_c, 0, 76, 36
2, 270978, Note_on_c, 0, 67, 27
2, 270986, Note_on_c, 0, 72, 30
2, 270988, Note_on_c, 0, 69, 27
2, 270991, Note_on_c, 0, 60, 32
2, 271030, Note_on_c, 0, 67, 0
2, 271034, Note_on_c, 0, 60, 0
2, 271038, Note_on_c, 0, 69, 0
2, 271040, Note_on_c, 0, 72, 0
2, 271045, Note_on_c, 0, 76, 0
2, 271270, Note_on_c, 0, 72, 36
2, 271279, Note_on_c, 0, 65, 36
2, 271284, Note_on_c, 0, 69, 21
2, 271286, Note_on_c, 0, 57, 43
2, 271286, Note_on_c, 0, 62, 15
2, 271317, Note_on_c, 0, 62, 0
2, 271318, Note_on_c, 0, 65, 0
2, 271325, Note_on_c, 0, 57, 0
2, 271328, Note_on_c, 0, 69, 0
2, 271332, Note_on_c, 0, 72, 0
2, 271922, Note_on_c, 0, 62, 40
2, 271923, Note_on_c, 0, 58, 32
2, 271927, Note_on_c, 0, 57, 36
2, 271959, Note_on_c, 0, 57, 0
2, 271971, Note_on_c, 0, 58, 0
2, 271991, Note_on_c, 0, 62, 0
2, 272112, Note_on_c, 0, 57, 36
2, 272114, Note_on_c, 0, 58, 27
2, 272117, Note_on_c, 0, 62, 36
2, 272165, Note_on_c, 0, 57, 0
2, 272190, Note_on_c, 0, 58, 0
2, 272191, Note_on_c, 0, 62, 0
2, 272858, Note_on_c, 0, 84, 69
2, 272858, Note_on_c, 0, 77, 68
2, 272930, Note_on_c, 0, 84, 0
2, 272931, Note_on_c, 0, 77, 0
2, 273217, Note_on_c, 0, 77, 68
2, 273217, Note_on_c, 0, 84, 69
2, 273287, Note_on_c, 0, 77, 0
2, 273294, Note_on_c, 0, 84, 0
2, 273342, Note_on_c, 0, 72, 15
2, 273386, Note_on_c, 0, 72, 0
2, 273854, Note_on_c, 0, 77, 70
2, 273854, Note_on_c, 0, 84, 67
2, 273921, Note_on_c, 0, 84, 0
2, 273926, Note_on_c, 0, 77, 0
2, 273960, Note_on_c, 0, 72, 44
2, 273995, Note_on_c, 0, 72, 0
2, 274130, Note_on_c, 0, 77, 66
2, 274133, Note_on_c, 0, 84, 63
2, 274150, Note_on_c, 0, 65, 29
2, 274178, Note_on_c, 0, 65, 0
2, 274197, Note_on_c, 0, 77, 0
2, 274201, Note_on_c, 0, 84, 0
2, 274231, Note_on_c, 0, 72, 29
2, 274262, Note_on_c, 0, 72, 0
2, 274333, Note_on_c, 0, 72, 48
2, 274368, Note_on_c, 0, 72, 0
2, 274422, Note_on_c, 0, 65, 30
2, 274432, Note_on_c, 0, 77, 66
2, 274434, Note_on_c, 0, 84, 66
2, 274441, Note_on_c, 0, 60, 23
2, 274451, Note_on_c, 0, 65, 0
2, 274468, Note_on_c, 0, 60, 0
2, 274503, Note_on_c, 0, 77, 0
2, 274509, Note_on_c, 0, 84, 0
2, 274531, Note_on_c, 0, 72, 51
2, 274559, Note_on_c, 0, 72, 0
2, 274640, Note_on_c, 0, 72, 36
2, 274682, Note_on_c, 0, 72, 0
2, 274736, Note_on_c, 0, 76, 68
2, 274738, Note_on_c, 0, 79, 60
2, 274754, Note_on_c, 0, 60, 26
2, 274770, Note_on_c, 0, 57, 18
2, 274780, Note_on_c, 0, 60, 0
2, 274791, Note_on_c, 0, 57, 0
2, 274805, Note_on_c, 0, 79, 0
2, 274811, Note_on_c, 0, 76, 0
2, 274839, Note_on_c, 0, 72, 46
2, 274882, Note_on_c, 0, 72, 0
2, 276130, Note_on_c, 0, 62, 36
2, 276136, Note_on_c, 0, 76, 56
2, 276140, Note_on_c, 0, 72, 51
2, 276146, Note_on_c, 0, 69, 53
2, 276151, Note_on_c, 0, 62, 0
2, 276151, Note_on_c, 0, 67, 54
2, 276151, Note_on_c, 0, 64, 54
2, 276461, Control_c, 0, 64, 127
2, 276609, Note_off_c, 0, 67, 0
2, 276614, Note_off_c, 0, 69, 0
2, 276623, Note_off_c, 0, 72, 0
2, 276669, Note_off_c, 0, 76, 0
2, 276708, Control_c, 0, 64, 0
2, 276718, Note_on_c, 0, 74, 42
2, 276720, Note_on_c, 0, 67, 38
2, 276723, Note_on_c, 0, 69, 39
2, 276724, Note_on_c, 0, 62, 31
2, 276730, Note_on_c, 0, 72, 41
2, 276741, Note_on_c, 0, 64, 0
2, 276888, Note_on_c, 0, 69, 0
2, 276900, Note_on_c, 0, 72, 0
2, 276908, Control_c, 0, 64, 127
2, 276910, Note_off_c, 0, 74, 0
2, 276913, Note_off_c, 0, 67, 0
2, 277089, Control_c, 0, 64, 0
2, 277103, Note_on_c, 0, 79, 66
2, 277105, Note_on_c, 0, 62, 0
2, 277109, Note_on_c, 0, 64, 55
2, 277109, Note_on_c, 0, 76, 63
2, 277112, Note_on_c, 0, 69, 67
2, 277112, Note_on_c, 0, 72, 62
2, 277263, Control_c, 0, 64, 127
2, 277267, Note_off_c, 0, 79, 0
2, 277275, Note_off_c, 0, 76, 0
2, 277280, Note_off_c, 0, 72, 0
2, 277315, Note_off_c, 0, 69, 0
2, 277469, Control_c, 0, 64, 0
2, 277478, Note_on_c, 0, 76, 54
2, 277481, Note_on_c, 0, 67, 45
2, 277482, Note_on_c, 0, 72, 49
2, 277487, Note_on_c, 0, 69, 52
2, 277494, Note_on_c, 0, 60, 40
2, 277532, Note_on_c, 0, 64, 0
2, 277595, Control_c, 0, 64, 127
2, 277739, Note_off_c, 0, 67, 0
2, 277748, Note_off_c, 0, 69, 0
2, 277762, Note_off_c, 0, 76, 0
2, 277774, Note_off_c, 0, 72, 0
2, 277779, Note_off_c, 0, 60, 0
2, 277873, Control_c, 0, 64, 0
2, 277879, Note_on_c, 0, 60, 29
2, 277882, Note_on_c, 0, 58, 29
2, 277883, Note_on_c, 0, 65, 31
2, 277884, Note_on_c, 0, 62, 31
2, 277884, Note_on_c, 0, 69, 45
2, 278078, Control_c, 0, 64, 127
2, 278164, Note_off_c, 0, 65, 0
2, 278210, Note_off_c, 0, 69, 0
2, 278220, Note_off_c, 0, 60, 0
2, 278228, Note_off_c, 0, 62, 0
2, 278247, Note_off_c, 0, 58, 0
2, 278637, Note_on_c, 0, 81, 65
2, 278656, Note_on_c, 0, 77, 60
2, 278665, Note_on_c, 0, 58, 38
2, 278666, Note_on_c, 0, 57, 40
2, 278670, Control_c, 0, 64, 0
2, 278671, Note_on_c, 0, 74, 59
2, 278678, Note_on_c, 0, 62, 47
2, 278700, Note_on_c, 0, 69, 31
2, 278801, Control_c, 0, 64, 127
2, 278848, Note_off_c, 0, 69, 0
2, 278883, Note_off_c, 0, 74, 0
2, 278891, Note_off_c, 0, 57, 0
2, 278908, Note_off_c, 0, 62, 0
2, 278914, Note_off_c, 0, 77, 0
2, 278914, Note_off_c, 0, 58, 0
2, 278917, Note_off_c, 0, 81, 0
2, 279205, Note_on_c, 0, 86, 68
2, 279223, Note_on_c, 0, 57, 50
2, 279228, Note_on_c, 0, 58, 42
2, 279233, Note_on_c, 0, 81, 55
2, 279234, Note_on_c, 0, 62, 51
2, 279235, Note_on_c, 0, 83, 44
2, 279236, Control_c, 0, 64, 0
2, 279237, Note_on_c, 0, 79, 47
2, 279241, Note_on_c, 0, 84, 34
2, 279248, Note_on_c, 0, 77, 48
2, 279253, Note_on_c, 0, 74, 51
2, 279344, Note_on_c, 0, 83, 0
2, 279360, Note_on_c, 0, 79, 0
2, 279441, Control_c, 0, 64, 127
2, 279545, Note_off_c, 0, 74, 0
2, 279550, Note_off_c, 0, 77, 0
2, 279567, Note_off_c, 0, 62, 0
2, 279568, Note_off_c, 0, 57, 0
2, 279579, Note_off_c, 0, 84, 0
2, 279582, Note_off_c, 0, 58, 0
2, 279589, Note_off_c, 0, 81, 0
2, 279598, Note_off_c, 0, 86, 0
2, 279795, Note_on_c, 0, 93, 71
2, 279810, Note_on_c, 0, 89, 62
2, 279810, Note_on_c, 0, 57, 56
2, 279815, Note_on_c, 0, 58, 49
2, 279816, Note_on_c, 0, 86, 62
2, 279820, Note_on_c, 0, 62, 55
2, 279821, Control_c, 0, 64, 0
2, 279825, Note_on_c, 0, 81, 57
2, 280007, Control_c, 0, 64, 127
2, 280105, Note_off_c, 0, 81, 0
2, 280122, Note_off_c, 0, 57, 0
2, 280139, Note_off_c, 0, 62, 0
2, 280140, Note_off_c, 0, 58, 0
2, 280160, Note_off_c, 0, 86, 0
2, 280173, Note_off_c, 0, 89, 0
2, 280176, Note_off_c, 0, 93, 0
2, 280385, Note_on_c, 0, 96, 66
2, 280390, Note_on_c, 0, 58, 48
2, 280391, Note_on_c, 0, 57, 53
2, 280393, Note_on_c, 0, 62, 50
2, 280395, Note_on_c, 0, 93, 61
2, 280401, Note_on_c, 0, 89, 59
2, 280402, Note_on_c, 0, 84, 60
2, 280405, Control_c, 0, 64, 0
2, 280494, Note_off_c, 0, 84, 0
2, 280514, Control_c, 0, 64, 127
2, 280518, Note_off_c, 0, 89, 0
2, 280527, Note_off_c, 0, 93, 0
2, 280544, Note_off_c, 0, 96, 0
2, 280572, Note_off_c, 0, 57, 0
2, 280577, Note_off_c, 0, 62, 0
2, 280585, Note_off_c, 0, 58, 0
2, 280694, Note_on_c, 0, 103, 59
2, 280696, Note_on_c, 0, 58, 46
2, 280699, Note_on_c, 0, 91, 48
2, 280700, Note_on_c, 0, 98, 52
2, 280702, Control_c, 0, 64, 0
2, 280702, Note_on_c, 0, 62, 42
2, 280707, Note_on_c, 0, 57, 41
2, 280731, Note_on_c, 0, 57, 0
2, 280739, Note_on_c, 0, 62, 0
2, 280761, Control_c, 0, 64, 127
2, 280771, Note_off_c, 0, 58, 0
2, 280786, Note_off_c, 0, 98, 0
2, 280808, Note_off_c, 0, 103, 0
2, 280830, Note_off_c, 0, 91, 0
2, 280953, Note_on_c, 0, 89, 42
2, 280954, Control_c, 0, 64, 0
2, 280959, Note_on_c, 0, 101, 33
2, 280963, Note_on_c, 0, 60, 19
2, 280964, Note_on_c, 0, 53, 33
2, 280966, Note_on_c, 0, 96, 46
2, 280966, Note_on_c, 0, 57, 35
2, 280974, Note_on_c, 0, 50, 34
2, 281049, Note_on_c, 0, 53, 0
2, 281055, Note_on_c, 0, 96, 0
2, 281058, Note_on_c, 0, 89, 0
2, 281059, Note_on_c, 0, 57, 0
2, 281060, Note_on_c, 0, 60, 0
2, 281069, Note_on_c, 0, 50, 0
2, 281077, Note_on_c, 0, 101, 0
2, 281248, Note_on_c, 0, 101, 38
2, 281252, Note_on_c, 0, 89, 36
2, 281256, Note_on_c, 0, 60, 29
2, 281258, Note_on_c, 0, 57, 32
2, 281264, Note_on_c, 0, 53, 34
2, 281266, Note_on_c, 0, 96, 34
2, 281272, Note_on_c, 0, 50, 28
2, 281296, Note_on_c, 0, 96, 0
2, 281307, Note_on_c, 0, 50, 0
2, 281308, Note_on_c, 0, 53, 0
2, 281314, Note_on_c, 0, 60, 0
2, 281316, Note_on_c, 0, 57, 0
2, 281316, Note_on_c, 0, 89, 0
2, 281324, Note_on_c, 0, 101, 0
2, 281515, Note_on_c, 0, 101, 40
2, 281517, Note_on_c, 0, 89, 39
2, 281520, Note_on_c, 0, 60, 25
2, 281526, Note_on_c, 0, 57, 29
2, 281531, Note_on_c, 0, 96, 40
2, 281531, Note_on_c, 0, 53, 37
2, 281536, Note_on_c, 0, 50, 35
2, 281972, Note_on_c, 0, 101, 0
2, 281980, Note_on_c, 0, 96, 0
2, 282025, Note_on_c, 0, 89, 0
2, 282070, Control_c, 0, 64, 127
2, 282318, Note_off_c, 0, 60, 0
2, 282322, Note_off_c, 0, 57, 0
2, 282325, Note_off_c, 0, 53, 0
2, 282327, Note_off_c, 0, 50, 0
2, 282480, Control_c, 0, 64, 0
2, 282485, Note_on_c, 0, 79, 40
2, 282488, Note_on_c, 0, 69, 43
2, 282493, Note_on_c, 0, 60, 35
2, 282494, Note_on_c, 0, 77, 40
2, 282496, Note_on_c, 0, 72, 42
2, 282497, Note_on_c, 0, 57, 35
2, 282502, Note_on_c, 0, 53, 31
2, 282516, Note_on_c, 0, 72, 0
2, 282518, Note_on_c, 0, 50, 19
2, 282520, Note_on_c, 0, 69, 0
2, 282522, Note_on_c, 0, 77, 0
2, 282528, Note_on_c, 0, 57, 0
2, 282531, Note_on_c, 0, 53, 0
2, 282537, Note_on_c, 0, 60, 0
2, 282540, Note_on_c, 0, 79, 0
2, 282540, Note_on_c, 0, 50, 0
2, 282773, Note_on_c, 0, 79, 46
2, 282773, Note_on_c, 0, 69, 39
2, 282773, Note_on_c, 0, 60, 32
2, 282775, Note_on_c, 0, 77, 39
2, 282775, Note_on_c, 0, 72, 40
2, 282775, Note_on_c, 0, 57, 33
2, 282775, Note_on_c, 0, 53, 32
2, 282782, Note_on_c, 0, 50, 17
2, 282783, Note_on_c, 0, 72, 0
2, 282793, Note_on_c, 0, 77, 0
2, 282793, Note_on_c, 0, 69, 0
2, 282807, Note_on_c, 0, 79, 0
2, 282811, Note_on_c, 0, 60, 0
2, 282811, Note_on_c, 0, 57, 0
2, 282813, Note_on_c, 0, 53, 0
2, 282816, Note_on_c, 0, 50, 0
2, 283043, Note_on_c, 0, 79, 38
2, 283046, Note_on_c, 0, 69, 39
2, 283049, Note_on_c, 0, 72, 44
2, 283050, Note_on_c, 0, 60, 35
2, 283051, Note_on_c, 0, 57, 32
2, 283053, Note_on_c, 0, 77, 39
2, 283059, Note_on_c, 0, 53, 40
2, 283063, Note_on_c, 0, 50, 30
2, 283782, Note_on_c, 0, 53, 0
2, 283789, Note_on_c, 0, 50, 0
2, 283793, Note_on_c, 0, 57, 0
2, 283800, Note_on_c, 0, 72, 0
2, 283800, Note_on_c, 0, 79, 0
2, 283804, Note_on_c, 0, 77, 0
2, 283816, Note_on_c, 0, 69, 0
2, 283822, Note_on_c, 0, 60, 0
2, 284019, Note_on_c, 0, 74, 40
2, 284020, Note_on_c, 0, 58, 27
2, 284021, Note_on_c, 0, 62, 27
2, 284021, Note_on_c, 0, 70, 32
2, 284022, Note_on_c, 0, 65, 28
2, 284027, Note_on_c, 0, 60, 28
2, 284042, Note_on_c, 0, 70, 0
2, 284047, Note_on_c, 0, 65, 0
2, 284051, Note_on_c, 0, 60, 0
2, 284055, Note_on_c, 0, 74, 0
2, 284060, Note_on_c, 0, 62, 0
2, 284075, Note_on_c, 0, 58, 0
2, 284295, Note_on_c, 0, 74, 41
2, 284303, Note_on_c, 0, 65, 32
2, 284304, Note_on_c, 0, 70, 38
2, 284304, Note_on_c, 0, 62, 35
2, 284316, Note_on_c, 0, 58, 25
2, 284317, Note_on_c, 0, 60, 32
2, 284331, Note_on_c, 0, 65, 0
2, 284333, Note_on_c, 0, 70, 0
2, 284339, Note_on_c, 0, 60, 0
2, 284348, Note_on_c, 0, 74, 0
2, 284352, Note_on_c, 0, 62, 0
2, 284361, Note_on_c, 0, 58, 0
2, 284577, Note_on_c, 0, 62, 30
2, 284577, Note_on_c, 0, 74, 41
2, 284580, Note_on_c, 0, 70, 40
2, 284581, Note_on_c, 0, 65, 28
2, 284588, Note_on_c, 0, 58, 26
2, 284592, Note_on_c, 0, 60, 32
2, 285271, Control_c, 0, 64, 127
2, 285272, Note_off_c, 0, 65, 0
2, 285312, Note_off_c, 0, 60, 0
2, 285332, Note_off_c, 0, 70, 0
2, 285342, Note_off_c, 0, 62, 0
2, 285342, Note_off_c, 0, 74, 0
2, 285392, Note_off_c, 0, 58, 0
2, 285555, Control_c, 0, 64, 0
2, 286116, Note_on_c, 0, 79, 52
2, 286119, Note_on_c, 0, 72, 44
2, 286125, Note_on_c, 0, 65, 41
2, 286132, Note_on_c, 0, 60, 28
2, 286137, Note_on_c, 0, 55, 26
2, 286140, Note_on_c, 0, 72, 0
2, 286147, Note_on_c, 0, 65, 0
2, 286154, Note_on_c, 0, 60, 0
2, 286162, Note_on_c, 0, 55, 0
2, 286163, Note_on_c, 0, 79, 0
2, 286429, Note_on_c, 0, 84, 65
2, 286431, Note_on_c, 0, 77, 63
2, 286440, Note_on_c, 0, 65, 51
2, 286445, Note_on_c, 0, 55, 52
2, 286446, Note_on_c, 0, 60, 41
2, 286626, Note_on_c, 0, 55, 0
2, 286637, Note_on_c, 0, 84, 0
2, 286642, Note_on_c, 0, 65, 0
2, 286647, Note_on_c, 0, 60, 0
2, 286649, Note_on_c, 0, 77, 0
2, 286691, Note_on_c, 0, 74, 41
2, 286698, Note_on_c, 0, 82, 45
2, 286707, Note_on_c, 0, 65, 35
2, 286712, Note_on_c, 0, 60, 30
2, 286725, Note_on_c, 0, 74, 0
2, 286732, Note_on_c, 0, 65, 0
2, 286737, Note_on_c, 0, 60, 0
2, 286751, Note_on_c, 0, 82, 0
2, 286987, Note_on_c, 0, 84, 50
2, 286990, Note_on_c, 0, 77, 53
2, 287002, Note_on_c, 0, 50, 30
2, 287006, Note_on_c, 0, 55, 30
2, 287009, Note_on_c, 0, 60, 17
2, 287031, Note_on_c, 0, 55, 0
2, 287033, Note_on_c, 0, 84, 0
2, 287034, Note_on_c, 0, 77, 0
2, 287040, Note_on_c, 0, 60, 0
2, 287046, Note_on_c, 0, 50, 0
2, 287254, Note_on_c, 0, 79, 41
2, 287262, Note_on_c, 0, 72, 38
2, 287269, Note_on_c, 0, 53, 29
2, 287269, Note_on_c, 0, 60, 18
2, 287271, Note_on_c, 0, 57, 26
2, 287277, Note_on_c, 0, 50, 26
2, 287552, Control_c, 0, 64, 127
2, 287902, Control_c, 0, 64, 0
2, 287935, Note_off_c, 0, 79, 0
2, 287976, Note_off_c, 0, 72, 0
2, 289234, Note_off_c, 0, 60, 0
2, 289285, Note_off_c, 0, 57, 0
2, 289425, Note_off_c, 0, 53, 0
2, 289793, Note_off_c, 0, 50, 0
2, 290149, Note_on_c, 0, 62, 19
2, 290164, Note_on_c, 0, 60, 22
2, 290166, Note_on_c, 0, 58, 16
2, 290194, Note_on_c, 0, 60, 0
2, 290207, Note_on_c, 0, 62, 0
2, 290226, Note_on_c, 0, 58, 0
2, 290823, Note_on_c, 0, 70, 43
2, 290828, Note_on_c, 0, 69, 47
2, 290842, Note_on_c, 0, 74, 26
2, 290851, Note_on_c, 0, 69, 0
2, 290863, Note_on_c, 0, 70, 0
2, 290865, Note_on_c, 0, 74, 0
2, 290922, Note_on_c, 0, 74, 40
2, 290924, Note_on_c, 0, 69, 42
2, 290928, Note_on_c, 0, 70, 30
2, 290991, Note_on_c, 0, 74, 0
2, 291008, Note_on_c, 0, 69, 0
2, 291012, Note_on_c, 0, 70, 0
2, 291025, Note_on_c, 0, 67, 41
2, 291082, Note_on_c, 0, 67, 0
2, 291129, Note_on_c, 0, 67, 46
2, 291187, Note_on_c, 0, 67, 0
2, 291242, Note_on_c, 0, 69, 46
2, 291246, Note_on_c, 0, 70, 35
2, 291250, Note_on_c, 0, 74, 43
2, 291274, Note_on_c, 0, 70, 0
2, 291277, Note_on_c, 0, 74, 0
2, 291280, Note_on_c, 0, 69, 0
2, 291325, Note_on_c, 0, 70, 39
2, 291327, Note_on_c, 0, 74, 35
2, 291331, Note_on_c, 0, 69, 39
2, 291361, Note_on_c, 0, 69, 0
2, 291366, Note_on_c, 0, 70, 0
2, 291367, Note_on_c, 0, 74, 0
2, 291413, Note_on_c, 0, 74, 17
2, 291413, Note_on_c, 0, 69, 32
2, 291415, Note_on_c, 0, 70, 31
2, 291457, Note_on_c, 0, 69, 0
2, 291462, Note_on_c, 0, 70, 0
2, 291462, Note_on_c, 0, 67, 36
2, 291464, Note_on_c, 0, 74, 0
2, 291508, Note_on_c, 0, 67, 0
2, 293075, Control_c, 0, 64, 127
2, 293207, Note_on_c, 0, 67, 36
2, 293208, Control_c, 0, 64, 0
2, 293209, Note_on_c, 0, 64, 32
2, 293220, Note_on_c, 0, 60, 22
2, 293224, Note_on_c, 0, 57, 27
2, 293232, Note_on_c, 0, 53, 26
2, 293239, Note_on_c, 0, 50, 22
2, 293388, Control_c, 0, 64, 127
2, 293599, Note_off_c, 0, 64, 0
2, 293653, Note_off_c, 0, 67, 0
2, 293706, Note_off_c, 0, 60, 0
2, 293741, Note_off_c, 0, 57, 0
2, 293753, Note_off_c, 0, 53, 0
2, 293766, Note_off_c, 0, 50, 0
2, 294004, Control_c, 0, 64, 0
2, 294010, Note_on_c, 0, 64, 36
2, 294013, Note_on_c, 0, 79, 60
2, 294022, Note_on_c, 0, 72, 45
2, 294027, Note_on_c, 0, 69, 38
2, 294058, Note_on_c, 0, 69, 0
2, 294073, Note_on_c, 0, 72, 0
2, 294092, Note_on_c, 0, 79, 0
2, 294113, Note_on_c, 0, 64, 0
2, 294120, Note_on_c, 0, 62, 25
2, 294123, Note_on_c, 0, 77, 36
2, 294190, Note_on_c, 0, 77, 0
2, 294194, Note_on_c, 0, 76, 34
2, 294212, Note_on_c, 0, 62, 0
2, 294221, Note_on_c, 0, 76, 0
2, 294244, Note_on_c, 0, 60, 23
2, 294305, Note_on_c, 0, 60, 0
2, 294398, Note_on_c, 0, 64, 43
2, 294399, Note_on_c, 0, 79, 46
2, 294405, Note_on_c, 0, 69, 42
2, 294405, Note_on_c, 0, 72, 41
2, 294471, Note_on_c, 0, 69, 0
2, 294472, Note_on_c, 0, 72, 0
2, 294473, Note_on_c, 0, 79, 0
2, 294494, Note_on_c, 0, 64, 0
2, 294516, Note_on_c, 0, 77, 35
2, 294519, Note_on_c, 0, 62, 23
2, 294579, Note_on_c, 0, 77, 0
2, 294603, Note_on_c, 0, 62, 0
2, 294630, Note_on_c, 0, 60, 18
2, 294684, Note_on_c, 0, 60, 0
2, 295338, Note_on_c, 0, 79, 58
2, 295345, Note_on_c, 0, 64, 47
2, 295345, Note_on_c, 0, 69, 52
2, 295348, Note_on_c, 0, 76, 40
2, 295351, Note_on_c, 0, 72, 47
2, 295376, Note_on_c, 0, 72, 0
2, 295387, Note_on_c, 0, 76, 0
2, 295391, Note_on_c, 0, 69, 0
2, 295426, Note_on_c, 0, 79, 0
2, 295455, Note_on_c, 0, 62, 36
2, 295456, Note_on_c, 0, 64, 0
2, 295493, Note_on_c, 0, 77, 26
2, 295564, Note_on_c, 0, 62, 0
2, 295587, Note_on_c, 0, 77, 0
2, 295587, Note_on_c, 0, 60, 21
2, 295649, Note_on_c, 0, 60, 0
2, 295715, Note_on_c, 0, 79, 56
2, 295718, Note_on_c, 0, 69, 52
2, 295720, Note_on_c, 0, 64, 44
2, 295722, Note_on_c, 0, 72, 46
2, 295730, Note_on_c, 0, 76, 35
2, 295755, Note_on_c, 0, 76, 0
2, 295779, Note_on_c, 0, 72, 0
2, 295786, Note_on_c, 0, 69, 0
2, 295808, Note_on_c, 0, 79, 0
2, 295824, Note_on_c, 0, 64, 0
2, 295844, Note_on_c, 0, 62, 22
2, 295844, Note_on_c, 0, 77, 33
2, 295919, Note_on_c, 0, 77, 0
2, 295921, Note_on_c, 0, 62, 0
2, 295963, Note_on_c, 0, 60, 19
2, 296015, Note_on_c, 0, 60, 0
2, 296121, Note_on_c, 0, 77, 53
2, 296129, Note_on_c, 0, 67, 40
2, 296130, Note_on_c, 0, 70, 35
2, 296140, Note_on_c, 0, 62, 25
2, 296180, Note_on_c, 0, 67, 0
2, 296195, Note_on_c, 0, 74, 4
2, 296200, Note_on_c, 0, 70, 0
2, 296238, Note_on_c, 0, 77, 0
2, 296241, Note_on_c, 0, 70, 13
2, 296254, Note_on_c, 0, 62, 0
2, 296293, Note_on_c, 0, 74, 0
2, 296314, Note_on_c, 0, 70, 0
2, 296875, Note_on_c, 0, 70, 38
2, 296881, Note_on_c, 0, 67, 45
2, 296882, Note_on_c, 0, 74, 37
2, 296884, Note_on_c, 0, 77, 40
2, 296884, Note_on_c, 0, 62, 38
2, 296955, Note_on_c, 0, 67, 0
2, 296970, Note_on_c, 0, 62, 0
2, 296977, Note_on_c, 0, 70, 0
2, 296980, Note_on_c, 0, 74, 0
2, 296998, Note_on_c, 0, 77, 0
2, 297164, Note_on_c, 0, 69, 44
2, 297167, Note_on_c, 0, 74, 57
2, 297169, Note_on_c, 0, 70, 53
2, 297169, Note_on_c, 0, 81, 57
2, 297183, Note_on_c, 0, 77, 36
2, 297325, Note_on_c, 0, 77, 0
2, 297331, Note_on_c, 0, 70, 0
2, 297337, Note_on_c, 0, 69, 0
2, 297340, Note_on_c, 0, 74, 0
2, 297342, Note_on_c, 0, 81, 0
2, 297432, Note_on_c, 0, 70, 44
2, 297436, Note_on_c, 0, 67, 34
2, 297436, Note_on_c, 0, 79, 44
2, 297436, Note_on_c, 0, 74, 57
2, 297559, Note_on_c, 0, 79, 0
2, 297563, Note_on_c, 0, 74, 0
2, 297563, Control_c, 0, 64, 127
2, 297596, Note_off_c, 0, 67, 0
2, 297598, Note_off_c, 0, 70, 0
2, 297720, Control_c, 0, 64, 0
2, 297728, Note_on_c, 0, 70, 47
2, 297733, Note_on_c, 0, 77, 41
2, 297735, Note_on_c, 0, 74, 43
2, 297743, Note_on_c, 0, 67, 43
2, 297744, Note_on_c, 0, 65, 37
2, 297815, Note_on_c, 0, 67, 0
2, 297826, Note_on_c, 0, 74, 0
2, 297834, Note_on_c, 0, 70, 0
2, 297841, Note_on_c, 0, 77, 0
2, 297847, Control_c, 0, 64, 127
2, 297898, Note_off_c, 0, 65, 0
2, 298004, Control_c, 0, 64, 0
2, 298024, Note_on_c, 0, 70, 60
2, 298025, Note_on_c, 0, 81, 61
2, 298025, Note_on_c, 0, 74, 60
2, 298029, Note_on_c, 0, 80, 17
2, 298036, Note_on_c, 0, 69, 60
2, 298037, Note_on_c, 0, 77, 41
2, 298124, Control_c, 0, 64, 127
2, 298126, Note_off_c, 0, 77, 0
2, 298131, Note_off_c, 0, 74, 0
2, 298132, Note_off_c, 0, 70, 0
2, 298148, Note_off_c, 0, 81, 0
2, 298149, Note_off_c, 0, 80, 0
2, 298201, Note_off_c, 0, 69, 0
2, 298306, Control_c, 0, 64, 0
2, 298309, Note_on_c, 0, 84, 67
2, 298312, Note_on_c, 0, 77, 58
2, 298312, Note_on_c, 0, 74, 62
2, 298314, Note_on_c, 0, 81, 54
2, 298319, Note_on_c, 0, 72, 53
2, 298382, Note_on_c, 0, 72, 0
2, 298390, Note_on_c, 0, 81, 0
2, 298396, Control_c, 0, 64, 127
2, 298401, Note_off_c, 0, 84, 0
2, 298409, Note_off_c, 0, 77, 0
2, 298442, Note_off_c, 0, 74, 0
2, 298576, Control_c, 0, 64, 0
2, 298586, Note_on_c, 0, 74, 59
2, 298588, Note_on_c, 0, 70, 52
2, 298589, Note_on_c, 0, 69, 47
2, 298589, Note_on_c, 0, 81, 53
2, 298597, Note_on_c, 0, 80, 15
2, 298597, Note_on_c, 0, 77, 45
2, 298663, Note_on_c, 0, 81, 0
2, 298673, Control_c, 0, 64, 127
2, 298674, Note_off_c, 0, 80, 0
2, 298681, Note_off_c, 0, 74, 0
2, 298682, Note_off_c, 0, 77, 0
2, 298694, Note_off_c, 0, 69, 0
2, 298729, Note_off_c, 0, 70, 0
2, 298848, Control_c, 0, 64, 0
2, 298863, Note_on_c, 0, 70, 44
2, 298865, Note_on_c, 0, 74, 44
2, 298866, Note_on_c, 0, 77, 46
2, 298871, Note_on_c, 0, 65, 38
2, 298872, Note_on_c, 0, 67, 45
2, 298938, Control_c, 0, 64, 127
2, 298970, Note_off_c, 0, 74, 0
2, 299009, Note_off_c, 0, 67, 0
2, 299024, Note_off_c, 0, 70, 0
2, 299041, Note_off_c, 0, 77, 0
2, 299077, Note_off_c, 0, 65, 0
2, 299135, Note_on_c, 0, 62, 28
2, 299143, Note_on_c, 0, 74, 36
2, 299150, Note_on_c, 0, 70, 34
2, 299153, Note_on_c, 0, 67, 34
2, 299162, Note_on_c, 0, 62, 0
2, 299196, Note_on_c, 0, 74, 0
2, 299231, Note_on_c, 0, 67, 0
2, 299235, Note_on_c, 0, 70, 0
2, 299330, Control_c, 0, 64, 0
2, 299356, Note_on_c, 0, 76, 45
2, 299362, Note_on_c, 0, 65, 34
2, 299363, Note_on_c, 0, 69, 41
2, 299375, Note_on_c, 0, 57, 18
2, 299394, Note_on_c, 0, 50, 18
2, 299565, Control_c, 0, 64, 127
2, 299871, Note_off_c, 0, 65, 0
2, 299874, Note_off_c, 0, 69, 0
2, 299951, Note_off_c, 0, 76, 0
2, 299957, Note_on_c, 0, 65, 31
2, 299963, Note_on_c, 0, 72, 39
2, 299965, Note_on_c, 0, 62, 24
2, 299970, Control_c, 0, 64, 0
2, 299970, Note_on_c, 0, 69, 38
2, 300108, Control_c, 0, 64, 127
2, 300250, Note_off_c, 0, 72, 0
2, 300267, Note_off_c, 0, 65, 0
2, 300278, Note_off_c, 0, 62, 0
2, 300311, Note_off_c, 0, 69, 0
2, 300326, Note_off_c, 0, 57, 0
2, 300441, Note_off_c, 0, 50, 0
2, 300909, Control_c, 0, 64, 0
2, 300911, Note_on_c, 0, 76, 40
2, 300913, Note_on_c, 0, 69, 39
2, 300914, Note_on_c, 0, 73, 31
2, 300919, Note_on_c, 0, 64, 31
2, 300920, Note_on_c, 0, 61, 25
2, 300923, Note_on_c, 0, 57, 30
2, 300931, Note_on_c, 0, 50, 24
2, 301248, Control_c, 0, 64, 127
2, 301726, Note_off_c, 0, 64, 0
2, 301766, Note_off_c, 0, 69, 0
2, 301785, Note_off_c, 0, 57, 0
2, 301812, Note_off_c, 0, 50, 0
2, 301844, Note_off_c, 0, 73, 0
2, 301871, Note_off_c, 0, 61, 0
2, 301876, Note_off_c, 0, 76, 0
2, 302446, Note_on_c, 0, 78, 57
2, 302447, Note_on_c, 0, 81, 69
2, 302447, Note_on_c, 0, 74, 74
2, 302449, Control_c, 0, 64, 0
2, 302457, Note_on_c, 0, 57, 54
2, 302460, Note_on_c, 0, 58, 42
2, 302463, Note_on_c, 0, 62, 49
2, 302581, Control_c, 0, 64, 127
2, 302711, Note_off_c, 0, 74, 0
2, 302731, Note_off_c, 0, 81, 0
2, 302750, Note_on_c, 0, 69, 48
2, 302767, Control_c, 0, 64, 0
2, 302797, Control_c, 0, 64, 127
2, 302891, Note_off_c, 0, 78, 0
2, 302937, Note_off_c, 0, 69, 0
2, 302938, Note_off_c, 0, 58, 0
2, 302944, Note_off_c, 0, 62, 0
2, 302984, Note_off_c, 0, 57, 0
2, 303031, Note_on_c, 0, 70, 42
2, 303037, Note_on_c, 0, 67, 42
2, 303045, Control_c, 0, 64, 0
2, 303048, Note_on_c, 0, 62, 32
2, 303050, Note_on_c, 0, 58, 27
2, 303054, Note_on_c, 0, 57, 18
2, 303600, Control_c, 0, 64, 127
2, 303822, Note_off_c, 0, 67, 0
2, 303836, Note_off_c, 0, 62, 0
2, 303851, Note_off_c, 0, 58, 0
2, 303857, Note_off_c, 0, 70, 0
2, 303858, Note_off_c, 0, 57, 0
2, 304028, Control_c, 0, 64, 0
2, 304556, Note_on_c, 0, 86, 62
2, 304559, Note_on_c, 0, 93, 65
2, 304561, Note_on_c, 0, 62, 40
2, 304563, Note_on_c, 0, 58, 31
2, 304563, Note_on_c, 0, 57, 42
2, 304742, Note_on_c, 0, 93, 0
2, 304745, Note_on_c, 0, 58, 0
2, 304746, Note_on_c, 0, 62, 0
2, 304750, Note_on_c, 0, 57, 0
2, 304752, Note_on_c, 0, 86, 0
2, 304851, Note_on_c, 0, 90, 50
2, 304856, Note_on_c, 0, 81, 44
2, 304859, Note_on_c, 0, 62, 32
2, 304866, Note_on_c, 0, 57, 37
2, 304867, Note_on_c, 0, 58, 27
2, 304909, Note_on_c, 0, 81, 0
2, 304913, Note_on_c, 0, 62, 0
2, 304914, Note_on_c, 0, 57, 0
2, 304925, Note_on_c, 0, 90, 0
2, 304928, Note_on_c, 0, 58, 0
2, 305140, Note_on_c, 0, 86, 60
2, 305142, Note_on_c, 0, 57, 44
2, 305143, Note_on_c, 0, 93, 60
2, 305144, Note_on_c, 0, 62, 35
2, 305148, Note_on_c, 0, 58, 31
2, 305319, Note_on_c, 0, 62, 0
2, 305325, Note_on_c, 0, 58, 0
2, 305336, Control_c, 0, 64, 127
2, 305342, Note_off_c, 0, 93, 0
2, 305343, Note_off_c, 0, 57, 0
2, 305349, Note_off_c, 0, 86, 0
2, 305360, Control_c, 0, 64, 0
2, 305425, Note_on_c, 0, 90, 33
2, 305429, Note_on_c, 0, 62, 31
2, 305429, Note_on_c, 0, 58, 35
2, 305430, Note_on_c, 0, 57, 28
2, 305437, Note_on_c, 0, 81, 26
2, 305455, Note_on_c, 0, 62, 0
2, 305459, Note_on_c, 0, 57, 0
2, 305479, Note_on_c, 0, 81, 0
2, 305480, Note_on_c, 0, 58, 0
2, 305489, Note_on_c, 0, 90, 0
2, 305703, Note_on_c, 0, 91, 34
2, 305705, Note_on_c, 0, 84, 36
2, 305706, Note_on_c, 0, 60, 29
2, 305708, Note_on_c, 0, 57, 28
2, 305712, Note_on_c, 0, 53, 31
2, 305729, Note_on_c, 0, 50, 19
2, 305737, Note_on_c, 0, 84, 0
2, 305738, Note_on_c, 0, 91, 0
2, 305755, Note_on_c, 0, 57, 0
2, 305756, Note_on_c, 0, 60, 0
2, 305763, Note_on_c, 0, 53, 0
2, 305769, Note_on_c, 0, 50, 0
2, 306006, Note_on_c, 0, 60, 23
2, 306016, Note_on_c, 0, 57, 24
2, 306019, Note_on_c, 0, 53, 24
2, 306051, Note_on_c, 0, 57, 0
2, 306053, Note_on_c, 0, 60, 0
2, 306054, Note_on_c, 0, 53, 0
2, 306283, Note_on_c, 0, 91, 45
2, 306288, Note_on_c, 0, 79, 36
2, 306299, Note_on_c, 0, 60, 22
2, 306304, Note_on_c, 0, 57, 17
2, 306307, Note_on_c, 0, 91, 0
2, 306317, Note_on_c, 0, 79, 0
2, 306323, Note_on_c, 0, 60, 0
2, 306331, Note_on_c, 0, 57, 0
2, 306581, Note_on_c, 0, 91, 27
2, 306584, Note_on_c, 0, 60, 25
2, 306587, Note_on_c, 0, 57, 25
2, 306587, Note_on_c, 0, 79, 22
2, 306593, Note_on_c, 0, 53, 24
2, 306613, Note_on_c, 0, 91, 0
2, 306621, Note_on_c, 0, 60, 0
2, 306622, Note_on_c, 0, 79, 0
2, 306623, Note_on_c, 0, 53, 0
2, 306624, Note_on_c, 0, 57, 0
2, 306852, Note_on_c, 0, 60, 36
2, 306858, Note_on_c, 0, 57, 31
2, 306859, Note_on_c, 0, 91, 35
2, 306859, Note_on_c, 0, 53, 28
2, 306860, Note_on_c, 0, 79, 28
2, 306876, Note_on_c, 0, 60, 0
2, 306888, Note_on_c, 0, 57, 0
2, 306888, Note_on_c, 0, 79, 0
2, 306893, Note_on_c, 0, 91, 0
2, 306895, Note_on_c, 0, 53, 0
2, 307434, Note_on_c, 0, 60, 24
2, 307436, Note_on_c, 0, 57, 24
2, 307438, Note_on_c, 0, 53, 22
2, 307439, Note_on_c, 0, 79, 27
2, 307457, Note_on_c, 0, 60, 0
2, 307463, Note_on_c, 0, 79, 0
2, 307478, Note_on_c, 0, 57, 0
2, 307483, Note_on_c, 0, 53, 0
2, 307721, Note_on_c, 0, 60, 31
2, 307730, Note_on_c, 0, 91, 29
2, 307731, Note_on_c, 0, 57, 24
2, 307731, Note_on_c, 0, 79, 24
2, 307740, Note_on_c, 0, 53, 21
2, 307750, Note_on_c, 0, 60, 0
2, 307758, Note_on_c, 0, 79, 0
2, 307761, Note_on_c, 0, 91, 0
2, 307762, Note_on_c, 0, 57, 0
2, 307769, Note_on_c, 0, 53, 0
2, 308001, Note_on_c, 0, 60, 28
2, 308004, Note_on_c, 0, 91, 37
2, 308013, Note_on_c, 0, 57, 25
2, 308017, Note_on_c, 0, 79, 25
2, 308022, Note_on_c, 0, 53, 25
2, 308025, Note_on_c, 0, 60, 0
2, 308031, Note_on_c, 0, 91, 0
2, 308043, Note_on_c, 0, 79, 0
2, 308052, Note_on_c, 0, 57, 0
2, 308053, Note_on_c, 0, 53, 0
2, 308318, Note_on_c, 0, 91, 32
2, 308318, Note_on_c, 0, 79, 32
2, 308322, Note_on_c, 0, 57, 27
2, 308325, Note_on_c, 0, 60, 20
2, 308327, Note_on_c, 0, 53, 26
2, 308352, Note_on_c, 0, 60, 0
2, 308355, Note_on_c, 0, 53, 0
2, 308360, Note_on_c, 0, 79, 0
2, 308374, Note_on_c, 0, 57, 0
2, 308390, Note_on_c, 0, 91, 0
2, 308590, Note_on_c, 0, 53, 24
2, 308593, Note_on_c, 0, 58, 24
2, 308595, Note_on_c, 0, 57, 20
2, 308596, Note_on_c, 0, 96, 33
2, 308599, Note_on_c, 0, 84, 35
2, 308604, Note_on_c, 0, 62, 12
2, 308626, Note_on_c, 0, 96, 0
2, 308627, Note_on_c, 0, 84, 0
2, 308645, Note_on_c, 0, 62, 0
2, 308651, Note_on_c, 0, 57, 0
2, 308658, Note_on_c, 0, 58, 0
2, 308672, Note_on_c, 0, 53, 0
2, 308887, Note_on_c, 0, 58, 26
2, 308890, Note_on_c, 0, 84, 35
2, 308891, Note_on_c, 0, 62, 24
2, 308894, Note_on_c, 0, 96, 27
2, 308903, Note_on_c, 0, 57, 20
2, 308925, Note_on_c, 0, 96, 0
2, 308928, Note_on_c, 0, 57, 0
2, 308929, Note_on_c, 0, 62, 0
2, 308934, Note_on_c, 0, 84, 0
2, 308955, Note_on_c, 0, 58, 0
2, 309169, Note_on_c, 0, 58, 26
2, 309171, Note_on_c, 0, 96, 38
2, 309173, Note_on_c, 0, 84, 33
2, 309173, Note_on_c, 0, 62, 26
2, 309187, Note_on_c, 0, 57, 27
2, 309322, Control_c, 0, 64, 127
2, 309430, Note_off_c, 0, 96, 0
2, 309492, Note_off_c, 0, 84, 0
2, 309585, Note_off_c, 0, 57, 0
2, 309606, Note_off_c, 0, 62, 0
2, 309633, Note_off_c, 0, 58, 0
2, 310059, Note_on_c, 0, 84, 66
2, 310064, Note_on_c, 0, 77, 59
2, 310113, Note_on_c, 0, 77, 0
2, 310122, Note_on_c, 0, 81, 46
2, 310128, Note_on_c, 0, 84, 0
2, 310149, Control_c, 0, 64, 0
2, 310152, Note_on_c, 0, 62, 29
2, 310153, Note_on_c, 0, 58, 21
2, 310158, Note_on_c, 0, 60, 29
2, 310160, Note_on_c, 0, 72, 43
2, 310305, Control_c, 0, 64, 127
2, 310375, Note_off_c, 0, 81, 0
2, 310407, Note_off_c, 0, 60, 0
2, 310412, Note_off_c, 0, 72, 0
2, 310415, Note_off_c, 0, 62, 0
2, 310431, Note_off_c, 0, 58, 0
2, 310870, Note_on_c, 0, 69, 46
2, 310875, Note_on_c, 0, 72, 43
2, 310878, Note_on_c, 0, 62, 25
2, 310883, Note_on_c, 0, 58, 25
2, 310884, Note_on_c, 0, 60, 29
2, 310890, Control_c, 0, 64, 0
2, 310998, Control_c, 0, 64, 127
2, 311106, Note_off_c, 0, 69, 0
2, 311138, Note_off_c, 0, 62, 0
2, 311147, Note_off_c, 0, 60, 0
2, 311192, Note_off_c, 0, 72, 0
2, 311226, Note_off_c, 0, 58, 0
2, 311262, Note_on_c, 0, 65, 33
2, 311267, Note_on_c, 0, 69, 41
2, 311335, Note_on_c, 0, 65, 0
2, 311353, Note_on_c, 0, 69, 0
2, 311620, Control_c, 0, 64, 0
2, 311623, Note_on_c, 0, 60, 23
2, 311626, Note_on_c, 0, 62, 32
2, 311634, Note_on_c, 0, 57, 19
2, 311648, Note_on_c, 0, 53, 27
2, 311654, Note_on_c, 0, 50, 19
2, 312380, Control_c, 0, 64, 127
2, 312524, Note_off_c, 0, 60, 0
2, 312554, Note_off_c, 0, 62, 0
2, 312838, Control_c, 0, 64, 0
2, 313183, Note_on_c, 0, 64, 31
2, 313183, Note_on_c, 0, 62, 30
2, 313186, Note_on_c, 0, 53, 0
2, 313186, Note_on_c, 0, 57, 0
2, 313186, Note_on_c, 0, 69, 28
2, 313209, Note_on_c, 0, 50, 0
2, 313235, Note_on_c, 0, 69, 0
2, 313258, Note_on_c, 0, 64, 0
2, 313260, Note_on_c, 0, 62, 0
2, 313306, Note_on_c, 0, 60, 21
2, 313340, Note_on_c, 0, 60, 0
2, 313490, Note_on_c, 0, 62, 22
2, 313495, Note_on_c, 0, 64, 24
2, 313522, Note_on_c, 0, 62, 0
2, 313527, Note_on_c, 0, 64, 0
2, 313678, Note_on_c, 0, 62, 33
2, 313686, Note_on_c, 0, 64, 35
2, 313691, Note_on_c, 0, 69, 24
2, 313719, Note_on_c, 0, 69, 0
2, 313730, Note_on_c, 0, 62, 0
2, 313741, Note_on_c, 0, 64, 0
2, 313861, Note_on_c, 0, 60, 34
2, 313891, Note_on_c, 0, 60, 0
2, 313963, Note_on_c, 0, 62, 29
2, 313971, Note_on_c, 0, 64, 29
2, 313983, Note_on_c, 0, 69, 17
2, 314008, Note_on_c, 0, 69, 0
2, 314012, Note_on_c, 0, 62, 0
2, 314016, Note_on_c, 0, 64, 0
2, 314870, Control_c, 0, 64, 127
2, 315261, Note_on_c, 0, 72, 42
2, 315283, Control_c, 0, 64, 0
2, 315286, Note_on_c, 0, 69, 55
2, 315298, Note_on_c, 0, 58, 24
2, 315308, Note_on_c, 0, 60, 29
2, 315308, Note_on_c, 0, 62, 38
2, 315320, Note_on_c, 0, 65, 26
2, 315407, Control_c, 0, 64, 127
2, 315482, Note_off_c, 0, 65, 0
2, 315491, Note_off_c, 0, 69, 0
2, 315517, Note_off_c, 0, 72, 0
2, 315610, Note_on_c, 0, 77, 56
2, 315613, Note_on_c, 0, 84, 58
2, 315758, Note_on_c, 0, 62, 0
2, 315760, Note_on_c, 0, 60, 0
2, 315767, Note_on_c, 0, 77, 0
2, 315781, Note_on_c, 0, 84, 0
2, 315798, Note_on_c, 0, 58, 0
2, 315841, Control_c, 0, 64, 0
2, 315864, Note_on_c, 0, 81, 45
2, 315865, Note_on_c, 0, 72, 36
2, 315872, Note_on_c, 0, 58, 19
2, 315875, Note_on_c, 0, 62, 23
2, 315877, Note_on_c, 0, 60, 26
2, 316005, Note_on_c, 0, 81, 0
2, 316010, Note_on_c, 0, 60, 0
2, 316022, Note_on_c, 0, 62, 0
2, 316024, Note_on_c, 0, 72, 0
2, 316030, Note_on_c, 0, 58, 0
2, 316234, Control_c, 0, 64, 127
2, 316429, Note_on_c, 0, 72, 37
2, 316431, Note_on_c, 0, 62, 23
2, 316435, Note_on_c, 0, 58, 21
2, 316438, Note_on_c, 0, 65, 21
2, 316441, Note_on_c, 0, 69, 30
2, 316442, Note_on_c, 0, 60, 25
2, 316603, Note_on_c, 0, 65, 0
2, 316618, Note_on_c, 0, 60, 0
2, 316621, Note_on_c, 0, 69, 0
2, 316633, Note_on_c, 0, 62, 0
2, 316639, Note_on_c, 0, 58, 0
2, 316652, Note_on_c, 0, 72, 0
2, 317030, Note_on_c, 0, 84, 46
2, 317036, Note_on_c, 0, 77, 35
2, 317037, Control_c, 0, 64, 0
2, 317038, Note_on_c, 0, 62, 28
2, 317043, Note_on_c, 0, 60, 31
2, 317046, Note_on_c, 0, 58, 23
2, 317052, Note_on_c, 0, 82, 26
2, 317071, Note_on_c, 0, 82, 0
2, 317133, Control_c, 0, 64, 127
2, 317220, Note_off_c, 0, 60, 0
2, 317230, Note_off_c, 0, 62, 0
2, 317236, Note_off_c, 0, 58, 0
2, 317251, Note_off_c, 0, 77, 0
2, 317271, Note_off_c, 0, 84, 0
2, 317290, Control_c, 0, 64, 0
2, 317340, Note_on_c, 0, 81, 39
2, 317351, Note_on_c, 0, 62, 25
2, 317351, Note_on_c, 0, 72, 23
2, 317356, Control_c, 0, 64, 127
2, 317361, Note_on_c, 0, 58, 22
2, 317370, Note_on_c, 0, 60, 21
2, 317412, Note_on_c, 0, 60, 0
2, 317430, Note_on_c, 0, 62, 0
2, 317454, Note_on_c, 0, 58, 0
2, 317457, Note_on_c, 0, 81, 0
2, 317509, Note_on_c, 0, 72, 0
2, 317790, Control_c, 0, 64, 0
2, 317795, Note_on_c, 0, 50, 30
2, 318392, Note_on_c, 0, 67, 26
2, 318393, Note_on_c, 0, 64, 30
2, 318397, Note_on_c, 0, 60, 23
2, 318399, Note_on_c, 0, 57, 23
2, 318653, Control_c, 0, 64, 127
2, 318673, Note_off_c, 0, 60, 0
2, 318720, Note_off_c, 0, 64, 0
2, 318753, Note_off_c, 0, 67, 0
2, 319120, Note_off_c, 0, 57, 0
2, 319310, Note_on_c, 0, 79, 51
2, 319323, Note_on_c, 0, 76, 51
2, 319333, Note_on_c, 0, 72, 51
2, 319341, Control_c, 0, 64, 0
2, 319345, Note_on_c, 0, 57, 26
2, 319347, Note_on_c, 0, 64, 30
2, 319498, Control_c, 0, 64, 127
2, 319582, Note_off_c, 0, 79, 0
2, 319583, Note_off_c, 0, 76, 0
2, 319604, Note_off_c, 0, 64, 0
2, 319610, Note_off_c, 0, 72, 0
2, 319758, Note_off_c, 0, 57, 0
2, 319938, Control_c, 0, 64, 0
2, 320258, Note_on_c, 0, 57, 25
2, 320260, Note_on_c, 0, 76, 18
2, 320262, Note_on_c, 0, 64, 26
2, 320264, Note_on_c, 0, 69, 30
2, 320268, Note_on_c, 0, 72, 23
2, 320304, Note_on_c, 0, 64, 0
2, 320329, Note_on_c, 0, 69, 0
2, 320330, Note_on_c, 0, 72, 0
2, 320334, Note_on_c, 0, 57, 0
2, 320371, Note_on_c, 0, 76, 0
2, 320568, Note_on_c, 0, 79, 39
2, 320581, Note_on_c, 0, 72, 39
2, 320582, Note_on_c, 0, 76, 32
2, 320586, Note_on_c, 0, 57, 25
2, 320587, Note_on_c, 0, 64, 19
2, 320607, Note_on_c, 0, 72, 0
2, 320608, Note_on_c, 0, 76, 0
2, 320625, Note_on_c, 0, 64, 0
2, 320634, Note_on_c, 0, 57, 0
2, 320638, Note_on_c, 0, 79, 0
2, 320670, Note_on_c, 0, 50, 0
2, 320842, Note_on_c, 0, 62, 22
2, 320843, Note_on_c, 0, 74, 34
2, 320856, Note_on_c, 0, 70, 26
2, 320865, Note_on_c, 0, 60, 28
2, 320871, Note_on_c, 0, 58, 19
2, 320909, Note_on_c, 0, 65, 4
2, 321004, Note_on_c, 0, 65, 0
2, 321013, Note_on_c, 0, 74, 0
2, 321053, Note_on_c, 0, 70, 0
2, 321073, Note_on_c, 0, 60, 0
2, 321081, Note_on_c, 0, 62, 0
2, 321095, Note_on_c, 0, 58, 0
2, 321156, Note_on_c, 0, 77, 40
2, 321156, Note_on_c, 0, 62, 27
2, 321169, Note_on_c, 0, 69, 22
2, 321171, Note_on_c, 0, 60, 26
2, 321172, Note_on_c, 0, 70, 23
2, 321173, Note_on_c, 0, 74, 22
2, 321193, Note_on_c, 0, 60, 0
2, 321194, Note_on_c, 0, 69, 0
2, 321200, Note_on_c, 0, 74, 0
2, 321205, Note_on_c, 0, 70, 0
2, 321208, Note_on_c, 0, 62, 0
2, 321217, Note_on_c, 0, 77, 0
2, 321436, Note_on_c, 0, 65, 15
2, 321439, Note_on_c, 0, 69, 28
2, 321441, Note_on_c, 0, 62, 21
2, 321452, Note_on_c, 0, 58, 20
2, 321454, Note_on_c, 0, 60, 24
2, 322199, Control_c, 0, 64, 127
2, 322290, Note_off_c, 0, 65, 0
2, 322323, Note_off_c, 0, 69, 0
2, 322573, Note_off_c, 0, 62, 0
2, 322575, Note_off_c, 0, 60, 0
2, 322614, Note_off_c, 0, 58, 0
2, 323104, Note_on_c, 0, 103, 43
2, 323134, Note_on_c, 0, 103, 0
2, 323164, Control_c, 0, 64, 0
2, 323206, Note_on_c, 0, 103, 40
2, 323223, Note_on_c, 0, 55, 28
2, 323353, Note_on_c, 0, 103, 0
2, 323382, Note_on_c, 0, 91, 33
2, 323389, Note_on_c, 0, 55, 0
2, 323415, Note_on_c, 0, 91, 0
2, 323502, Note_on_c, 0, 103, 48
2, 323549, Note_on_c, 0, 103, 0
2, 323594, Note_on_c, 0, 55, 18
2, 323598, Note_on_c, 0, 103, 37
2, 323655, Note_on_c, 0, 55, 0
2, 323743, Note_on_c, 0, 103, 0
2, 323743, Control_c, 0, 64, 127
2, 323763, Note_on_c, 0, 91, 27
2, 323800, Note_on_c, 0, 91, 0
2, 323872, Note_on_c, 0, 101, 46
2, 323899, Control_c, 0, 64, 0
2, 323915, Note_on_c, 0, 57, 20
2, 323919, Note_on_c, 0, 101, 0
2, 323950, Note_on_c, 0, 50, 22
2, 323971, Note_on_c, 0, 101, 42
2, 324127, Note_on_c, 0, 101, 0
2, 324130, Note_on_c, 0, 89, 33
2, 324172, Note_on_c, 0, 89, 0
2, 324189, Note_on_c, 0, 57, 0
2, 324197, Note_on_c, 0, 50, 0
2, 324197, End_track
3, 0, Start_track
3, 0, MIDI_port, 0
3, 0, Program_c, 1, 34
3, 0, Control_c, 1, 7, 119
3, 0, Control_c, 1, 11, 127
3, 0, Control_c, 1, 64, 0
3, 0, Control_c, 1, 67, 0
3, 0, Pitch_bend_c, 1, 8192
3, 1536, Control_c, 1, 7, 119
3, 2112, Note_on_c, 1, 33, 39
3, 2208, Note_on_c, 1, 33, 0
3, 2304, Note_on_c, 1, 40, 90
3, 2592, Note_on_c, 1, 40, 0
3, 2592, Note_on_c, 1, 38, 104
3, 2784, Note_on_c, 1, 38, 0
3, 3072, Note_on_c, 1, 36, 29
3, 3264, Note_on_c, 1, 36, 0
3, 3264, Note_on_c, 1, 37, 53
3, 3456, Note_on_c, 1, 37, 0
3, 3456, Note_on_c, 1, 38, 112
3, 3552, Note_on_c, 1, 38, 0
3, 4608, Program_c, 1, 35
3, 5280, Note_on_c, 1, 38, 32
3, 5281, Note_on_c, 1, 38, 0
3, 5376, Note_on_c, 1, 45, 86
3, 5664, Note_on_c, 1, 45, 0
3, 5664, Note_on_c, 1, 43, 72
3, 5856, Note_on_c, 1, 43, 0
3, 6616, Note_on_c, 1, 31, 90
3, 6912, Note_on_c, 1, 31, 0
3, 6912, Note_on_c, 1, 33, 76
3, 6912, Note_on_c, 1, 31, 52
3, 7000, Note_on_c, 1, 31, 0
3, 7096, Note_on_c, 1, 34, 98
3, 7192, Note_on_c, 1, 33, 0
3, 7288, Note_on_c, 1, 34, 0
3, 7288, Note_on_c, 1, 38, 108
3, 7480, Note_on_c, 1, 38, 0
3, 8248, Note_on_c, 1, 33, 39
3, 8344, Note_on_c, 1, 33, 0
3, 8440, Note_on_c, 1, 40, 90
3, 8728, Note_on_c, 1, 40, 0
3, 8728, Note_on_c, 1, 38, 104
3, 8920, Note_on_c, 1, 38, 0
3, 9208, Note_on_c, 1, 36, 29
3, 9400, Note_on_c, 1, 36, 0
3, 9400, Note_on_c, 1, 37, 53
3, 9592, Note_on_c, 1, 37, 0
3, 9592, Note_on_c, 1, 38, 112
3, 9688, Note_on_c, 1, 38, 0
3, 10752, Program_c, 1, 35
3, 11416, Note_on_c, 1, 38, 32
3, 11417, Note_on_c, 1, 38, 0
3, 11512, Note_on_c, 1, 45, 86
3, 11800, Note_on_c, 1, 45, 0
3, 11800, Note_on_c, 1, 43, 72
3, 11992, Note_on_c, 1, 43, 0
3, 12760, Note_on_c, 1, 31, 90
3, 13048, Note_on_c, 1, 31, 0
3, 13048, Note_on_c, 1, 33, 76
3, 13048, Note_on_c, 1, 31, 52
3, 13144, Note_on_c, 1, 31, 0
3, 13240, Note_on_c, 1, 34, 98
3, 13336, Note_on_c, 1, 33, 0
3, 13432, Note_on_c, 1, 34, 0
3, 13432, Note_on_c, 1, 38, 108
3, 13624, Note_on_c, 1, 38, 0
3, 14392, Note_on_c, 1, 33, 39
3, 14488, Note_on_c, 1, 33, 0
3, 14584, Note_on_c, 1, 40, 90
3, 14872, Note_on_c, 1, 40, 0
3, 14872, Note_on_c, 1, 38, 104
3, 15064, Note_on_c, 1, 38, 0
3, 15352, Note_on_c, 1, 36, 29
3, 15544, Note_on_c, 1, 36, 0
3, 15544, Note_on_c, 1, 37, 53
3, 15736, Note_on_c, 1, 37, 0
3, 15736, Note_on_c, 1, 38, 112
3, 15832, Note_on_c, 1, 38, 0
3, 16896, Program_c, 1, 35
3, 17560, Note_on_c, 1, 38, 32
3, 17561, Note_on_c, 1, 38, 0
3, 17656, Note_on_c, 1, 45, 86
3, 17944, Note_on_c, 1, 45, 0
3, 17944, Note_on_c, 1, 43, 72
3, 18136, Note_on_c, 1, 43, 0
3, 18904, Note_on_c, 1, 31, 90
3, 19192, Note_on_c, 1, 31, 0
3, 19192, Note_on_c, 1, 33, 76
3, 19192, Note_on_c, 1, 31, 52
3, 19288, Note_on_c, 1, 31, 0
3, 19384, Note_on_c, 1, 34, 98
3, 19480, Note_on_c, 1, 33, 0
3, 19576, Note_on_c, 1, 34, 0
3, 19576, Note_on_c, 1, 38, 108
3, 19768, Note_on_c, 1, 38, 0
3, 20536, Note_on_c, 1, 33, 39
3, 20632, Note_on_c, 1, 33, 0
3, 20728, Note_on_c, 1, 40, 90
3, 21016, Note_on_c, 1, 40, 0
3, 21016, Note_on_c, 1, 38, 104
3, 21208, Note_on_c, 1, 38, 0
3, 21496, Note_on_c, 1, 36, 29
3, 21688, Note_on_c, 1, 36, 0
3, 21688, Note_on_c, 1, 37, 53
3, 21872, Note_on_c, 1, 37, 0
3, 21872, Note_on_c, 1, 38, 112
3, 21976, Note_on_c, 1, 38, 0
3, 23040, Program_c, 1, 35
3, 23696, Note_on_c, 1, 38, 32
3, 23697, Note_on_c, 1, 38, 0
3, 23792, Note_on_c, 1, 45, 86
3, 24080, Note_on_c, 1, 45, 0
3, 24080, Note_on_c, 1, 43, 72
3, 24272, Note_on_c, 1, 43, 0
3, 25040, Note_on_c, 1, 31, 90
3, 25328, Note_on_c, 1, 31, 0
3, 25328, Note_on_c, 1, 33, 76
3, 25328, Note_on_c, 1, 31, 52
3, 25424, Note_on_c, 1, 31, 0
3, 25520, Note_on_c, 1, 34, 98
3, 25616, Note_on_c, 1, 33, 0
3, 25712, Note_on_c, 1, 34, 0
3, 25712, Note_on_c, 1, 38, 108
3, 25904, Note_on_c, 1, 38, 0
3, 26768, Note_on_c, 1, 38, 61
3, 26769, Note_on_c, 1, 38, 0
3, 26864, Note_on_c, 1, 38, 38
3, 26865, Note_on_c, 1, 38, 0
3, 27056, Note_on_c, 1, 38, 88
3, 27536, Note_on_c, 1, 38, 0
3, 27536, Note_on_c, 1, 33, 31
3, 27632, Note_on_c, 1, 33, 0
3, 27632, Note_on_c, 1, 38, 47
3, 28208, Note_on_c, 1, 49, 18
3, 28304, Note_on_c, 1, 49, 0
3, 28400, Note_on_c, 1, 38, 0
3, 28400, Note_on_c, 1, 50, 98
3, 28784, Note_on_c, 1, 50, 0
3, 28784, Note_on_c, 1, 45, 63
3, 29072, Note_on_c, 1, 45, 0
3, 29744, Note_on_c, 1, 38, 50
3, 29840, Note_on_c, 1, 38, 0
3, 29840, Note_on_c, 1, 33, 38
3, 29936, Note_on_c, 1, 33, 0
3, 29936, Note_on_c, 1, 38, 69
3, 30032, Note_on_c, 1, 38, 0
3, 30224, Note_on_c, 1, 38, 102
3, 30512, Note_on_c, 1, 38, 0
3, 30512, Note_on_c, 1, 33, 42
3, 30608, Note_on_c, 1, 33, 0
3, 30704, Note_on_c, 1, 38, 96
3, 31376, Note_on_c, 1, 38, 0
3, 31472, Note_on_c, 1, 50, 74
3, 31568, Note_on_c, 1, 50, 0
3, 31664, Note_on_c, 1, 50, 82
3, 31664, Note_on_c, 1, 49, 16
3, 31760, Note_on_c, 1, 49, 0
3, 31856, Note_on_c, 1, 50, 0
3, 31856, Note_on_c, 1, 45, 47
3, 32048, Note_on_c, 1, 45, 0
3, 32048, Note_on_c, 1, 50, 63
3, 32144, Note_on_c, 1, 50, 0
3, 32816, Note_on_c, 1, 38, 49
3, 32912, Note_on_c, 1, 38, 0
3, 32912, Note_on_c, 1, 33, 27
3, 33008, Note_on_c, 1, 33, 0
3, 33008, Note_on_c, 1, 38, 66
3, 33104, Note_on_c, 1, 38, 0
3, 33296, Note_on_c, 1, 38, 104
3, 33584, Note_on_c, 1, 38, 0
3, 33584, Note_on_c, 1, 37, 48
3, 33680, Note_on_c, 1, 37, 0
3, 33776, Note_on_c, 1, 36, 74
3, 34352, Note_on_c, 1, 43, 30
3, 34448, Note_on_c, 1, 43, 0
3, 34448, Note_on_c, 1, 45, 36
3, 34449, Note_on_c, 1, 45, 0
3, 34544, Note_on_c, 1, 36, 0
3, 34544, Note_on_c, 1, 48, 100
3, 34928, Note_on_c, 1, 48, 0
3, 35120, Note_on_c, 1, 48, 48
3, 35216, Note_on_c, 1, 48, 0
3, 35216, Note_on_c, 1, 43, 38
3, 35217, Note_on_c, 1, 43, 0
3, 35312, Note_on_c, 1, 41, 104
3, 36848, Note_on_c, 1, 41, 0
3, 36848, Note_on_c, 1, 40, 108
3, 37416, Note_on_c, 1, 40, 0
3, 37416, Note_on_c, 1, 35, 54
3, 37608, Note_on_c, 1, 35, 0
3, 37608, Note_on_c, 1, 33, 63
3, 37896, Note_on_c, 1, 45, 94
3, 37992, Note_on_c, 1, 33, 0
3, 38280, Note_on_c, 1, 45, 0
3, 38952, Note_on_c, 1, 38, 61
3, 38953, Note_on_c, 1, 38, 0
3, 39144, Note_on_c, 1, 38, 68
3, 39240, Note_on_c, 1, 38, 0
3, 39432, Note_on_c, 1, 38, 110
3, 39720, Note_on_c, 1, 38, 0
3, 39720, Note_on_c, 1, 33, 33
3, 39816, Note_on_c, 1, 33, 0
3, 39912, Note_on_c, 1, 38, 106
3, 40296, Note_on_c, 1, 38, 0
3, 40296, Note_on_c, 1, 50, 118
3, 40584, Note_on_c, 1, 50, 0
3, 40584, Note_on_c, 1, 45, 90
3, 41160, Note_on_c, 1, 45, 0
3, 42024, Note_on_c, 1, 38, 52
3, 42120, Note_on_c, 1, 38, 0
3, 42120, Note_on_c, 1, 33, 23
3, 42216, Note_on_c, 1, 33, 0
3, 42216, Note_on_c, 1, 38, 76
3, 42312, Note_on_c, 1, 38, 0
3, 42504, Note_on_c, 1, 38, 108
3, 42792, Note_on_c, 1, 38, 0
3, 42792, Note_on_c, 1, 33, 43
3, 42888, Note_on_c, 1, 33, 0
3, 42984, Note_on_c, 1, 38, 98
3, 43560, Note_on_c, 1, 50, 61
3, 43656, Note_on_c, 1, 50, 0
3, 43656, Note_on_c, 1, 38, 0
3, 43752, Note_on_c, 1, 50, 100
3, 44040, Note_on_c, 1, 50, 0
3, 44040, Note_on_c, 1, 45, 78
3, 44328, Note_on_c, 1, 45, 0
3, 44328, Note_on_c, 1, 50, 65
3, 44424, Note_on_c, 1, 50, 0
3, 45192, Note_on_c, 1, 38, 65
3, 45193, Note_on_c, 1, 38, 0
3, 45288, Note_on_c, 1, 38, 69
3, 45289, Note_on_c, 1, 38, 0
3, 45576, Note_on_c, 1, 38, 100
3, 45768, Note_on_c, 1, 38, 0
3, 45864, Note_on_c, 1, 38, 84
3, 45960, Note_on_c, 1, 38, 0
3, 46056, Note_on_c, 1, 37, 92
3, 47592, Note_on_c, 1, 37, 0
3, 47592, Note_on_c, 1, 36, 78
3, 48552, Note_on_c, 1, 36, 0
3, 48552, Note_on_c, 1, 48, 119
3, 48936, Note_on_c, 1, 48, 0
3, 48936, Note_on_c, 1, 43, 65
3, 49032, Note_on_c, 1, 43, 0
3, 49128, Note_on_c, 1, 41, 88
3, 49800, Note_on_c, 1, 41, 0
3, 49800, Note_on_c, 1, 36, 42
3, 49896, Note_on_c, 1, 28, 51
3, 49896, Note_on_c, 1, 29, 50
3, 49897, Note_on_c, 1, 28, 0
3, 50184, Note_on_c, 1, 36, 0
3, 50464, Note_on_c, 1, 29, 0
3, 50464, Note_on_c, 1, 33, 49
3, 50465, Note_on_c, 1, 33, 0
3, 50664, Note_on_c, 1, 34, 63
3, 51136, Note_on_c, 1, 34, 0
3, 51136, Note_on_c, 1, 34, 49
3, 51232, Note_on_c, 1, 34, 0
3, 51232, Note_on_c, 1, 41, 76
3, 51424, Note_on_c, 1, 48, 106
3, 51424, Note_on_c, 1, 39, 18
3, 51425, Note_on_c, 1, 39, 0
3, 51520, Note_on_c, 1, 41, 0
3, 51712, Note_on_c, 1, 48, 0
3, 51712, Note_on_c, 1, 46, 62
3, 52000, Note_on_c, 1, 46, 0
3, 52000, Note_on_c, 1, 41, 78
3, 52192, Note_on_c, 1, 41, 0
3, 52192, Note_on_c, 1, 39, 56
3, 52768, Note_on_c, 1, 39, 0
3, 52768, Note_on_c, 1, 34, 40
3, 52960, Note_on_c, 1, 34, 0
3, 52960, Note_on_c, 1, 39, 72
3, 53056, Note_on_c, 1, 39, 0
3, 53248, Note_on_c, 1, 39, 69
3, 53344, Note_on_c, 1, 39, 0
3, 53344, Note_on_c, 1, 34, 30
3, 53536, Note_on_c, 1, 34, 0
3, 53536, Note_on_c, 1, 39, 63
3, 53632, Note_on_c, 1, 39, 0
3, 54208, Note_on_c, 1, 32, 60
3, 54304, Note_on_c, 1, 32, 0
3, 54304, Note_on_c, 1, 39, 72
3, 54496, Note_on_c, 1, 39, 0
3, 54496, Note_on_c, 1, 46, 74
3, 54784, Note_on_c, 1, 46, 0
3, 54784, Note_on_c, 1, 44, 69
3, 55072, Note_on_c, 1, 44, 0
3, 55072, Note_on_c, 1, 39, 50
3, 55264, Note_on_c, 1, 39, 0
3, 55264, Note_on_c, 1, 44, 63
3, 55840, Note_on_c, 1, 39, 27
3, 55841, Note_on_c, 1, 39, 0
3, 55936, Note_on_c, 1, 39, 24
3, 56032, Note_on_c, 1, 39, 0
3, 56032, Note_on_c, 1, 32, 55
3, 56416, Note_on_c, 1, 32, 0
3, 56416, Note_on_c, 1, 44, 0
3, 56416, Note_on_c, 1, 34, 61
3, 56800, Note_on_c, 1, 34, 0
3, 56800, Note_on_c, 1, 37, 63
3, 57280, Note_on_c, 1, 37, 0
3, 57280, Note_on_c, 1, 44, 70
3, 57568, Note_on_c, 1, 44, 0
3, 57568, Note_on_c, 1, 51, 94
3, 57856, Note_on_c, 1, 51, 0
3, 57856, Note_on_c, 1, 49, 78
3, 58144, Note_on_c, 1, 49, 0
3, 58144, Note_on_c, 1, 44, 28
3, 58336, Note_on_c, 1, 44, 0
3, 58336, Note_on_c, 1, 43, 76
3, 59104, Note_on_c, 1, 31, 92
3, 59200, Note_on_c, 1, 43, 0
3, 59872, Note_on_c, 1, 31, 0
3, 59872, Note_on_c, 1, 36, 68
3, 60448, Note_on_c, 1, 36, 0
3, 60448, Note_on_c, 1, 43, 72
3, 60544, Note_on_c, 1, 43, 0
3, 60640, Note_on_c, 1, 48, 112
3, 60928, Note_on_c, 1, 48, 0
3, 60928, Note_on_c, 1, 43, 102
3, 61216, Note_on_c, 1, 43, 0
3, 61216, Note_on_c, 1, 42, 20
3, 61216, Note_on_c, 1, 44, 72
3, 61217, Note_on_c, 1, 42, 0
3, 61312, Note_on_c, 1, 44, 0
3, 61408, Note_on_c, 1, 45, 102
3, 61984, Note_on_c, 1, 33, 42
3, 61985, Note_on_c, 1, 33, 0
3, 62080, Note_on_c, 1, 33, 62
3, 62176, Note_on_c, 1, 33, 0
3, 62176, Note_on_c, 1, 33, 59
3, 62560, Note_on_c, 1, 33, 0
3, 62560, Note_on_c, 1, 45, 0
3, 62560, Note_on_c, 1, 36, 55
3, 62656, Note_on_c, 1, 36, 0
3, 62752, Note_on_c, 1, 38, 65
3, 62848, Note_on_c, 1, 38, 0
3, 63520, Note_on_c, 1, 33, 51
3, 63616, Note_on_c, 1, 33, 0
3, 63712, Note_on_c, 1, 40, 100
3, 63808, Note_on_c, 1, 40, 0
3, 64000, Note_on_c, 1, 38, 112
3, 64192, Note_on_c, 1, 38, 0
3, 64480, Note_on_c, 1, 36, 33
3, 64576, Note_on_c, 1, 36, 0
3, 64672, Note_on_c, 1, 37, 30
3, 64856, Note_on_c, 1, 37, 0
3, 64856, Note_on_c, 1, 38, 82
3, 65056, Note_on_c, 1, 38, 0
3, 66584, Note_on_c, 1, 38, 51
3, 66680, Note_on_c, 1, 38, 0
3, 66776, Note_on_c, 1, 45, 94
3, 66872, Note_on_c, 1, 45, 0
3, 67064, Note_on_c, 1, 43, 96
3, 67256, Note_on_c, 1, 43, 0
3, 68120, Note_on_c, 1, 31, 70
3, 68216, Note_on_c, 1, 31, 0
3, 68504, Note_on_c, 1, 33, 62
3, 68696, Note_on_c, 1, 33, 0
3, 68696, Note_on_c, 1, 34, 47
3, 68888, Note_on_c, 1, 34, 0
3, 68888, Note_on_c, 1, 38, 96
3, 68984, Note_on_c, 1, 38, 0
3, 69656, Note_on_c, 1, 33, 45
3, 69752, Note_on_c, 1, 33, 0
3, 69848, Note_on_c, 1, 40, 94
3, 69944, Note_on_c, 1, 40, 0
3, 70136, Note_on_c, 1, 38, 112
3, 70424, Note_on_c, 1, 38, 0
3, 70616, Note_on_c, 1, 36, 38
3, 70712, Note_on_c, 1, 36, 0
3, 70808, Note_on_c, 1, 37, 54
3, 71000, Note_on_c, 1, 37, 0
3, 71000, Note_on_c, 1, 38, 90
3, 71096, Note_on_c, 1, 38, 0
3, 72192, Program_c, 1, 35
3, 72728, Note_on_c, 1, 40, 57
3, 72729, Note_on_c, 1, 40, 0
3, 72920, Note_on_c, 1, 47, 74
3, 73016, Note_on_c, 1, 47, 0
3, 73208, Note_on_c, 1, 45, 88
3, 73400, Note_on_c, 1, 45, 0
3, 74264, Note_on_c, 1, 31, 74
3, 74360, Note_on_c, 1, 31, 0
3, 74648, Note_on_c, 1, 32, 64
3, 74840, Note_on_c, 1, 32, 0
3, 74840, Note_on_c, 1, 33, 65
3, 75032, Note_on_c, 1, 33, 0
3, 75032, Note_on_c, 1, 36, 78
3, 75128, Note_on_c, 1, 36, 0
3, 75800, Note_on_c, 1, 33, 51
3, 75896, Note_on_c, 1, 33, 0
3, 75992, Note_on_c, 1, 40, 100
3, 76088, Note_on_c, 1, 40, 0
3, 76280, Note_on_c, 1, 38, 112
3, 76472, Note_on_c, 1, 38, 0
3, 76760, Note_on_c, 1, 36, 33
3, 76856, Note_on_c, 1, 36, 0
3, 76952, Note_on_c, 1, 37, 30
3, 77144, Note_on_c, 1, 37, 0
3, 77144, Note_on_c, 1, 38, 82
3, 77336, Note_on_c, 1, 38, 0
3, 78336, Program_c, 1, 35
3, 78872, Note_on_c, 1, 38, 51
3, 78968, Note_on_c, 1, 38, 0
3, 79064, Note_on_c, 1, 45, 94
3, 79160, Note_on_c, 1, 45, 0
3, 79352, Note_on_c, 1, 43, 96
3, 79536, Note_on_c, 1, 43, 0
3, 80400, Note_on_c, 1, 31, 70
3, 80496, Note_on_c, 1, 31, 0
3, 80784, Note_on_c, 1, 33, 62
3, 80976, Note_on_c, 1, 33, 0
3, 80976, Note_on_c, 1, 34, 47
3, 81168, Note_on_c, 1, 34, 0
3, 81168, Note_on_c, 1, 38, 96
3, 81264, Note_on_c, 1, 38, 0
3, 81936, Note_on_c, 1, 33, 45
3, 82032, Note_on_c, 1, 33, 0
3, 82128, Note_on_c, 1, 40, 94
3, 82224, Note_on_c, 1, 40, 0
3, 82416, Note_on_c, 1, 38, 112
3, 82704, Note_on_c, 1, 38, 0
3, 82896, Note_on_c, 1, 36, 38
3, 82992, Note_on_c, 1, 36, 0
3, 83088, Note_on_c, 1, 37, 54
3, 83280, Note_on_c, 1, 37, 0
3, 83280, Note_on_c, 1, 38, 90
3, 83376, Note_on_c, 1, 38, 0
3, 84480, Program_c, 1, 35
3, 85008, Note_on_c, 1, 40, 57
3, 85009, Note_on_c, 1, 40, 0
3, 85200, Note_on_c, 1, 47, 74
3, 85296, Note_on_c, 1, 47, 0
3, 85488, Note_on_c, 1, 45, 88
3, 85680, Note_on_c, 1, 45, 0
3, 86544, Note_on_c, 1, 31, 74
3, 86640, Note_on_c, 1, 31, 0
3, 86928, Note_on_c, 1, 32, 64
3, 87120, Note_on_c, 1, 32, 0
3, 87120, Note_on_c, 1, 33, 65
3, 87312, Note_on_c, 1, 33, 0
3, 87312, Note_on_c, 1, 36, 78
3, 87408, Note_on_c, 1, 36, 0
3, 88176, Note_on_c, 1, 38, 61
3, 88177, Note_on_c, 1, 38, 0
3, 88272, Note_on_c, 1, 38, 38
3, 88273, Note_on_c, 1, 38, 0
3, 88464, Note_on_c, 1, 38, 88
3, 88944, Note_on_c, 1, 38, 0
3, 88944, Note_on_c, 1, 33, 31
3, 89040, Note_on_c, 1, 33, 0
3, 89040, Note_on_c, 1, 38, 47
3, 89616, Note_on_c, 1, 49, 18
3, 89712, Note_on_c, 1, 49, 0
3, 89808, Note_on_c, 1, 38, 0
3, 89808, Note_on_c, 1, 50, 98
3, 90192, Note_on_c, 1, 50, 0
3, 90192, Note_on_c, 1, 45, 63
3, 90480, Note_on_c, 1, 45, 0
3, 91152, Note_on_c, 1, 38, 50
3, 91248, Note_on_c, 1, 38, 0
3, 91248, Note_on_c, 1, 33, 38
3, 91344, Note_on_c, 1, 33, 0
3, 91344, Note_on_c, 1, 38, 69
3, 91440, Note_on_c, 1, 38, 0
3, 91632, Note_on_c, 1, 38, 102
3, 91920, Note_on_c, 1, 38, 0
3, 91920, Note_on_c, 1, 33, 42
3, 92016, Note_on_c, 1, 33, 0
3, 92112, Note_on_c, 1, 38, 96
3, 92784, Note_on_c, 1, 38, 0
3, 92880, Note_on_c, 1, 50, 74
3, 92976, Note_on_c, 1, 50, 0
3, 93072, Note_on_c, 1, 50, 82
3, 93072, Note_on_c, 1, 49, 16
3, 93168, Note_on_c, 1, 49, 0
3, 93264, Note_on_c, 1, 50, 0
3, 93264, Note_on_c, 1, 45, 47
3, 93456, Note_on_c, 1, 45, 0
3, 93456, Note_on_c, 1, 50, 63
3, 93544, Note_on_c, 1, 50, 0
3, 94216, Note_on_c, 1, 38, 49
3, 94312, Note_on_c, 1, 38, 0
3, 94312, Note_on_c, 1, 33, 27
3, 94416, Note_on_c, 1, 33, 0
3, 94416, Note_on_c, 1, 38, 66
3, 94504, Note_on_c, 1, 38, 0
3, 94696, Note_on_c, 1, 38, 104
3, 94984, Note_on_c, 1, 38, 0
3, 94984, Note_on_c, 1, 37, 48
3, 95080, Note_on_c, 1, 37, 0
3, 95176, Note_on_c, 1, 36, 74
3, 95752, Note_on_c, 1, 43, 30
3, 95848, Note_on_c, 1, 43, 0
3, 95848, Note_on_c, 1, 45, 36
3, 95849, Note_on_c, 1, 45, 0
3, 95944, Note_on_c, 1, 36, 0
3, 95944, Note_on_c, 1, 48, 100
3, 96328, Note_on_c, 1, 48, 0
3, 96520, Note_on_c, 1, 48, 48
3, 96616, Note_on_c, 1, 48, 0
3, 96616, Note_on_c, 1, 43, 38
3, 96617, Note_on_c, 1, 43, 0
3, 96712, Note_on_c, 1, 41, 104
3, 98248, Note_on_c, 1, 41, 0
3, 98248, Note_on_c, 1, 40, 108
3, 98824, Note_on_c, 1, 40, 0
3, 98824, Note_on_c, 1, 35, 54
3, 99016, Note_on_c, 1, 35, 0
3, 99016, Note_on_c, 1, 33, 63
3, 99304, Note_on_c, 1, 45, 94
3, 99400, Note_on_c, 1, 33, 0
3, 99688, Note_on_c, 1, 45, 0
3, 100360, Note_on_c, 1, 38, 61
3, 100361, Note_on_c, 1, 38, 0
3, 100552, Note_on_c, 1, 38, 68
3, 100648, Note_on_c, 1, 38, 0
3, 100840, Note_on_c, 1, 38, 110
3, 101128, Note_on_c, 1, 38, 0
3, 101128, Note_on_c, 1, 33, 33
3, 101224, Note_on_c, 1, 33, 0
3, 101320, Note_on_c, 1, 38, 106
3, 101704, Note_on_c, 1, 38, 0
3, 101704, Note_on_c, 1, 50, 118
3, 101992, Note_on_c, 1, 50, 0
3, 101992, Note_on_c, 1, 45, 90
3, 102568, Note_on_c, 1, 45, 0
3, 103432, Note_on_c, 1, 38, 52
3, 103528, Note_on_c, 1, 38, 0
3, 103528, Note_on_c, 1, 33, 23
3, 103624, Note_on_c, 1, 33, 0
3, 103624, Note_on_c, 1, 38, 76
3, 103720, Note_on_c, 1, 38, 0
3, 103912, Note_on_c, 1, 38, 108
3, 104200, Note_on_c, 1, 38, 0
3, 104200, Note_on_c, 1, 33, 43
3, 104296, Note_on_c, 1, 33, 0
3, 104392, Note_on_c, 1, 38, 98
3, 104968, Note_on_c, 1, 50, 61
3, 105064, Note_on_c, 1, 50, 0
3, 105064, Note_on_c, 1, 38, 0
3, 105160, Note_on_c, 1, 50, 100
3, 105448, Note_on_c, 1, 50, 0
3, 105448, Note_on_c, 1, 45, 78
3, 105736, Note_on_c, 1, 45, 0
3, 105736, Note_on_c, 1, 50, 65
3, 105832, Note_on_c, 1, 50, 0
3, 106600, Note_on_c, 1, 38, 65
3, 106601, Note_on_c, 1, 38, 0
3, 106696, Note_on_c, 1, 38, 69
3, 106697, Note_on_c, 1, 38, 0
3, 106984, Note_on_c, 1, 38, 100
3, 107176, Note_on_c, 1, 38, 0
3, 107272, Note_on_c, 1, 38, 84
3, 107368, Note_on_c, 1, 38, 0
3, 107464, Note_on_c, 1, 37, 92
3, 108992, Note_on_c, 1, 37, 0
3, 108992, Note_on_c, 1, 36, 78
3, 109952, Note_on_c, 1, 36, 0
3, 109952, Note_on_c, 1, 48, 119
3, 110336, Note_on_c, 1, 48, 0
3, 110336, Note_on_c, 1, 43, 65
3, 110432, Note_on_c, 1, 43, 0
3, 110528, Note_on_c, 1, 41, 88
3, 111200, Note_on_c, 1, 41, 0
3, 111200, Note_on_c, 1, 36, 42
3, 111296, Note_on_c, 1, 28, 51
3, 111296, Note_on_c, 1, 29, 50
3, 111297, Note_on_c, 1, 28, 0
3, 111584, Note_on_c, 1, 36, 0
3, 111872, Note_on_c, 1, 29, 0
3, 111872, Note_on_c, 1, 33, 49
3, 111873, Note_on_c, 1, 33, 0
3, 112064, Note_on_c, 1, 34, 63
3, 112544, Note_on_c, 1, 34, 0
3, 112544, Note_on_c, 1, 34, 49
3, 112640, Note_on_c, 1, 34, 0
3, 112640, Note_on_c, 1, 41, 76
3, 112832, Note_on_c, 1, 48, 106
3, 112832, Note_on_c, 1, 39, 18
3, 112833, Note_on_c, 1, 39, 0
3, 112928, Note_on_c, 1, 41, 0
3, 113120, Note_on_c, 1, 48, 0
3, 113120, Note_on_c, 1, 46, 62
3, 113408, Note_on_c, 1, 46, 0
3, 113408, Note_on_c, 1, 41, 78
3, 113600, Note_on_c, 1, 41, 0
3, 113600, Note_on_c, 1, 39, 56
3, 114176, Note_on_c, 1, 39, 0
3, 114176, Note_on_c, 1, 34, 40
3, 114368, Note_on_c, 1, 34, 0
3, 114368, Note_on_c, 1, 39, 72
3, 114464, Note_on_c, 1, 39, 0
3, 114656, Note_on_c, 1, 39, 69
3, 114752, Note_on_c, 1, 39, 0
3, 114752, Note_on_c, 1, 34, 30
3, 114944, Note_on_c, 1, 34, 0
3, 114944, Note_on_c, 1, 39, 63
3, 115040, Note_on_c, 1, 39, 0
3, 115616, Note_on_c, 1, 32, 60
3, 115712, Note_on_c, 1, 32, 0
3, 115712, Note_on_c, 1, 39, 72
3, 115904, Note_on_c, 1, 39, 0
3, 115904, Note_on_c, 1, 46, 74
3, 116192, Note_on_c, 1, 46, 0
3, 116192, Note_on_c, 1, 44, 69
3, 116480, Note_on_c, 1, 44, 0
3, 116480, Note_on_c, 1, 39, 50
3, 116672, Note_on_c, 1, 39, 0
3, 116672, Note_on_c, 1, 44, 63
3, 117248, Note_on_c, 1, 39, 27
3, 117249, Note_on_c, 1, 39, 0
3, 117344, Note_on_c, 1, 39, 24
3, 117440, Note_on_c, 1, 39, 0
3, 117440, Note_on_c, 1, 32, 55
3, 117824, Note_on_c, 1, 32, 0
3, 117824, Note_on_c, 1, 44, 0
3, 117824, Note_on_c, 1, 34, 61
3, 118208, Note_on_c, 1, 34, 0
3, 118208, Note_on_c, 1, 37, 63
3, 118688, Note_on_c, 1, 37, 0
3, 118688, Note_on_c, 1, 44, 70
3, 118976, Note_on_c, 1, 44, 0
3, 118976, Note_on_c, 1, 51, 94
3, 119264, Note_on_c, 1, 51, 0
3, 119264, Note_on_c, 1, 49, 78
3, 119552, Note_on_c, 1, 49, 0
3, 119552, Note_on_c, 1, 44, 28
3, 119744, Note_on_c, 1, 44, 0
3, 119744, Note_on_c, 1, 43, 76
3, 120512, Note_on_c, 1, 31, 92
3, 120608, Note_on_c, 1, 43, 0
3, 121280, Note_on_c, 1, 31, 0
3, 121280, Note_on_c, 1, 36, 68
3, 121856, Note_on_c, 1, 36, 0
3, 121856, Note_on_c, 1, 43, 72
3, 121952, Note_on_c, 1, 43, 0
3, 122048, Note_on_c, 1, 48, 112
3, 122336, Note_on_c, 1, 48, 0
3, 122336, Note_on_c, 1, 43, 102
3, 122624, Note_on_c, 1, 43, 0
3, 122624, Note_on_c, 1, 42, 20
3, 122624, Note_on_c, 1, 44, 72
3, 122625, Note_on_c, 1, 42, 0
3, 122712, Note_on_c, 1, 44, 0
3, 122816, Note_on_c, 1, 45, 102
3, 123384, Note_on_c, 1, 33, 42
3, 123385, Note_on_c, 1, 33, 0
3, 123488, Note_on_c, 1, 33, 62
3, 123576, Note_on_c, 1, 33, 0
3, 123576, Note_on_c, 1, 33, 59
3, 123968, Note_on_c, 1, 33, 0
3, 123968, Note_on_c, 1, 45, 0
3, 123968, Note_on_c, 1, 36, 55
3, 124056, Note_on_c, 1, 36, 0
3, 124152, Note_on_c, 1, 38, 65
3, 124248, Note_on_c, 1, 38, 0
3, 124920, Note_on_c, 1, 33, 51
3, 125016, Note_on_c, 1, 33, 0
3, 125112, Note_on_c, 1, 40, 100
3, 125208, Note_on_c, 1, 40, 0
3, 125400, Note_on_c, 1, 38, 112
3, 125592, Note_on_c, 1, 38, 0
3, 125880, Note_on_c, 1, 36, 33
3, 125976, Note_on_c, 1, 36, 0
3, 126072, Note_on_c, 1, 37, 30
3, 126264, Note_on_c, 1, 37, 0
3, 126264, Note_on_c, 1, 38, 82
3, 126456, Note_on_c, 1, 38, 0
3, 127488, Program_c, 1, 35
3, 127992, Note_on_c, 1, 38, 51
3, 128088, Note_on_c, 1, 38, 0
3, 128184, Note_on_c, 1, 45, 94
3, 128280, Note_on_c, 1, 45, 0
3, 128472, Note_on_c, 1, 43, 96
3, 128664, Note_on_c, 1, 43, 0
3, 129528, Note_on_c, 1, 31, 70
3, 129624, Note_on_c, 1, 31, 0
3, 129912, Note_on_c, 1, 33, 62
3, 130104, Note_on_c, 1, 33, 0
3, 130104, Note_on_c, 1, 34, 47
3, 130296, Note_on_c, 1, 34, 0
3, 130296, Note_on_c, 1, 38, 96
3, 130392, Note_on_c, 1, 38, 0
3, 131064, Note_on_c, 1, 33, 45
3, 131160, Note_on_c, 1, 33, 0
3, 131256, Note_on_c, 1, 40, 94
3, 131352, Note_on_c, 1, 40, 0
3, 131544, Note_on_c, 1, 38, 112
3, 131832, Note_on_c, 1, 38, 0
3, 132024, Note_on_c, 1, 36, 38
3, 132120, Note_on_c, 1, 36, 0
3, 132216, Note_on_c, 1, 37, 54
3, 132408, Note_on_c, 1, 37, 0
3, 132408, Note_on_c, 1, 38, 90
3, 132504, Note_on_c, 1, 38, 0
3, 133632, Program_c, 1, 35
3, 134136, Note_on_c, 1, 40, 57
3, 134137, Note_on_c, 1, 40, 0
3, 134328, Note_on_c, 1, 47, 74
3, 134424, Note_on_c, 1, 47, 0
3, 134616, Note_on_c, 1, 45, 88
3, 134808, Note_on_c, 1, 45, 0
3, 135672, Note_on_c, 1, 31, 74
3, 135768, Note_on_c, 1, 31, 0
3, 136056, Note_on_c, 1, 32, 64
3, 136248, Note_on_c, 1, 32, 0
3, 136248, Note_on_c, 1, 33, 65
3, 136440, Note_on_c, 1, 33, 0
3, 136440, Note_on_c, 1, 36, 78
3, 136536, Note_on_c, 1, 36, 0
3, 137208, Note_on_c, 1, 33, 51
3, 137304, Note_on_c, 1, 33, 0
3, 137392, Note_on_c, 1, 40, 100
3, 137496, Note_on_c, 1, 40, 0
3, 137680, Note_on_c, 1, 38, 112
3, 137872, Note_on_c, 1, 38, 0
3, 138168, Note_on_c, 1, 36, 33
3, 138256, Note_on_c, 1, 36, 0
3, 138360, Note_on_c, 1, 37, 30
3, 138544, Note_on_c, 1, 37, 0
3, 138544, Note_on_c, 1, 38, 82
3, 138736, Note_on_c, 1, 38, 0
3, 139776, Program_c, 1, 35
3, 140272, Note_on_c, 1, 38, 51
3, 140368, Note_on_c, 1, 38, 0
3, 140464, Note_on_c, 1, 45, 94
3, 140560, Note_on_c, 1, 45, 0
3, 140752, Note_on_c, 1, 43, 96
3, 140944, Note_on_c, 1, 43, 0
3, 141808, Note_on_c, 1, 31, 70
3, 141904, Note_on_c, 1, 31, 0
3, 142192, Note_on_c, 1, 33, 62
3, 142384, Note_on_c, 1, 33, 0
3, 142384, Note_on_c, 1, 34, 47
3, 142576, Note_on_c, 1, 34, 0
3, 142576, Note_on_c, 1, 38, 96
3, 142672, Note_on_c, 1, 38, 0
3, 143344, Note_on_c, 1, 33, 45
3, 143440, Note_on_c, 1, 33, 0
3, 143536, Note_on_c, 1, 40, 94
3, 143632, Note_on_c, 1, 40, 0
3, 143824, Note_on_c, 1, 38, 112
3, 144112, Note_on_c, 1, 38, 0
3, 144304, Note_on_c, 1, 36, 38
3, 144400, Note_on_c, 1, 36, 0
3, 144496, Note_on_c, 1, 37, 54
3, 144688, Note_on_c, 1, 37, 0
3, 144688, Note_on_c, 1, 38, 90
3, 144784, Note_on_c, 1, 38, 0
3, 145920, Program_c, 1, 35
3, 146416, Note_on_c, 1, 40, 57
3, 146417, Note_on_c, 1, 40, 0
3, 146608, Note_on_c, 1, 47, 74
3, 146704, Note_on_c, 1, 47, 0
3, 146896, Note_on_c, 1, 45, 88
3, 147088, Note_on_c, 1, 45, 0
3, 147952, Note_on_c, 1, 31, 74
3, 148048, Note_on_c, 1, 31, 0
3, 148336, Note_on_c, 1, 32, 64
3, 148528, Note_on_c, 1, 32, 0
3, 148528, Note_on_c, 1, 33, 65
3, 148720, Note_on_c, 1, 33, 0
3, 148720, Note_on_c, 1, 36, 78
3, 148816, Note_on_c, 1, 36, 0
3, 149584, Note_on_c, 1, 38, 61
3, 149585, Note_on_c, 1, 38, 0
3, 149680, Note_on_c, 1, 38, 38
3, 149681, Note_on_c, 1, 38, 0
3, 149872, Note_on_c, 1, 38, 88
3, 150352, Note_on_c, 1, 38, 0
3, 150352, Note_on_c, 1, 33, 31
3, 150448, Note_on_c, 1, 33, 0
3, 150448, Note_on_c, 1, 38, 47
3, 151024, Note_on_c, 1, 49, 18
3, 151120, Note_on_c, 1, 49, 0
3, 151216, Note_on_c, 1, 38, 0
3, 151216, Note_on_c, 1, 50, 98
3, 151592, Note_on_c, 1, 50, 0
3, 151592, Note_on_c, 1, 45, 63
3, 151880, Note_on_c, 1, 45, 0
3, 152552, Note_on_c, 1, 38, 50
3, 152656, Note_on_c, 1, 38, 0
3, 152656, Note_on_c, 1, 33, 38
3, 152744, Note_on_c, 1, 33, 0
3, 152744, Note_on_c, 1, 38, 69
3, 152840, Note_on_c, 1, 38, 0
3, 153040, Note_on_c, 1, 38, 102
3, 153320, Note_on_c, 1, 38, 0
3, 153320, Note_on_c, 1, 33, 42
3, 153416, Note_on_c, 1, 33, 0
3, 153512, Note_on_c, 1, 38, 96
3, 154184, Note_on_c, 1, 38, 0
3, 154280, Note_on_c, 1, 50, 74
3, 154376, Note_on_c, 1, 50, 0
3, 154472, Note_on_c, 1, 50, 82
3, 154472, Note_on_c, 1, 49, 16
3, 154568, Note_on_c, 1, 49, 0
3, 154664, Note_on_c, 1, 50, 0
3, 154664, Note_on_c, 1, 45, 47
3, 154856, Note_on_c, 1, 45, 0
3, 154856, Note_on_c, 1, 50, 63
3, 154952, Note_on_c, 1, 50, 0
3, 155624, Note_on_c, 1, 38, 49
3, 155720, Note_on_c, 1, 38, 0
3, 155720, Note_on_c, 1, 33, 27
3, 155816, Note_on_c, 1, 33, 0
3, 155816, Note_on_c, 1, 38, 66
3, 155912, Note_on_c, 1, 38, 0
3, 156104, Note_on_c, 1, 38, 104
3, 156392, Note_on_c, 1, 38, 0
3, 156392, Note_on_c, 1, 37, 48
3, 156488, Note_on_c, 1, 37, 0
3, 156584, Note_on_c, 1, 36, 74
3, 157160, Note_on_c, 1, 43, 30
3, 157256, Note_on_c, 1, 43, 0
3, 157256, Note_on_c, 1, 45, 36
3, 157257, Note_on_c, 1, 45, 0
3, 157352, Note_on_c, 1, 36, 0
3, 157352, Note_on_c, 1, 48, 100
3, 157736, Note_on_c, 1, 48, 0
3, 157928, Note_on_c, 1, 48, 48
3, 158024, Note_on_c, 1, 48, 0
3, 158024, Note_on_c, 1, 43, 38
3, 158025, Note_on_c, 1, 43, 0
3, 158120, Note_on_c, 1, 41, 104
3, 159656, Note_on_c, 1, 41, 0
3, 159656, Note_on_c, 1, 40, 108
3, 160232, Note_on_c, 1, 40, 0
3, 160232, Note_on_c, 1, 35, 54
3, 160424, Note_on_c, 1, 35, 0
3, 160424, Note_on_c, 1, 33, 63
3, 160712, Note_on_c, 1, 45, 94
3, 160808, Note_on_c, 1, 33, 0
3, 161096, Note_on_c, 1, 45, 0
3, 161768, Note_on_c, 1, 38, 61
3, 161769, Note_on_c, 1, 38, 0
3, 161960, Note_on_c, 1, 38, 68
3, 162056, Note_on_c, 1, 38, 0
3, 162248, Note_on_c, 1, 38, 110
3, 162536, Note_on_c, 1, 38, 0
3, 162536, Note_on_c, 1, 33, 33
3, 162632, Note_on_c, 1, 33, 0
3, 162728, Note_on_c, 1, 38, 106
3, 163112, Note_on_c, 1, 38, 0
3, 163112, Note_on_c, 1, 50, 118
3, 163400, Note_on_c, 1, 50, 0
3, 163400, Note_on_c, 1, 45, 90
3, 163976, Note_on_c, 1, 45, 0
3, 164840, Note_on_c, 1, 38, 52
3, 164936, Note_on_c, 1, 38, 0
3, 164936, Note_on_c, 1, 33, 23
3, 165032, Note_on_c, 1, 33, 0
3, 165032, Note_on_c, 1, 38, 76
3, 165128, Note_on_c, 1, 38, 0
3, 165320, Note_on_c, 1, 38, 108
3, 165608, Note_on_c, 1, 38, 0
3, 165608, Note_on_c, 1, 33, 43
3, 165704, Note_on_c, 1, 33, 0
3, 165800, Note_on_c, 1, 38, 98
3, 166376, Note_on_c, 1, 50, 61
3, 166464, Note_on_c, 1, 50, 0
3, 166464, Note_on_c, 1, 38, 0
3, 166568, Note_on_c, 1, 50, 100
3, 166848, Note_on_c, 1, 50, 0
3, 166848, Note_on_c, 1, 45, 78
3, 167144, Note_on_c, 1, 45, 0
3, 167144, Note_on_c, 1, 50, 65
3, 167240, Note_on_c, 1, 50, 0
3, 168000, Note_on_c, 1, 38, 65
3, 168001, Note_on_c, 1, 38, 0
3, 168096, Note_on_c, 1, 38, 69
3, 168097, Note_on_c, 1, 38, 0
3, 168384, Note_on_c, 1, 38, 100
3, 168576, Note_on_c, 1, 38, 0
3, 168672, Note_on_c, 1, 38, 84
3, 168768, Note_on_c, 1, 38, 0
3, 168864, Note_on_c, 1, 37, 92
3, 170400, Note_on_c, 1, 37, 0
3, 170400, Note_on_c, 1, 36, 78
3, 171360, Note_on_c, 1, 36, 0
3, 171360, Note_on_c, 1, 48, 119
3, 171744, Note_on_c, 1, 48, 0
3, 171744, Note_on_c, 1, 43, 65
3, 171840, Note_on_c, 1, 43, 0
3, 171936, Note_on_c, 1, 41, 88
3, 172608, Note_on_c, 1, 41, 0
3, 172608, Note_on_c, 1, 36, 42
3, 172704, Note_on_c, 1, 28, 51
3, 172704, Note_on_c, 1, 29, 50
3, 172705, Note_on_c, 1, 28, 0
3, 172992, Note_on_c, 1, 36, 0
3, 173280, Note_on_c, 1, 29, 0
3, 173280, Note_on_c, 1, 33, 49
3, 173281, Note_on_c, 1, 33, 0
3, 173472, Note_on_c, 1, 34, 63
3, 173952, Note_on_c, 1, 34, 0
3, 173952, Note_on_c, 1, 34, 49
3, 174048, Note_on_c, 1, 34, 0
3, 174048, Note_on_c, 1, 41, 76
3, 174240, Note_on_c, 1, 48, 106
3, 174240, Note_on_c, 1, 39, 18
3, 174241, Note_on_c, 1, 39, 0
3, 174336, Note_on_c, 1, 41, 0
3, 174528, Note_on_c, 1, 48, 0
3, 174528, Note_on_c, 1, 46, 62
3, 174816, Note_on_c, 1, 46, 0
3, 174816, Note_on_c, 1, 41, 78
3, 175008, Note_on_c, 1, 41, 0
3, 175008, Note_on_c, 1, 39, 56
3, 175584, Note_on_c, 1, 39, 0
3, 175584, Note_on_c, 1, 34, 40
3, 175776, Note_on_c, 1, 34, 0
3, 175776, Note_on_c, 1, 39, 72
3, 175872, Note_on_c, 1, 39, 0
3, 176064, Note_on_c, 1, 39, 69
3, 176160, Note_on_c, 1, 39, 0
3, 176160, Note_on_c, 1, 34, 30
3, 176352, Note_on_c, 1, 34, 0
3, 176352, Note_on_c, 1, 39, 63
3, 176448, Note_on_c, 1, 39, 0
3, 177024, Note_on_c, 1, 32, 60
3, 177120, Note_on_c, 1, 32, 0
3, 177120, Note_on_c, 1, 39, 72
3, 177312, Note_on_c, 1, 39, 0
3, 177312, Note_on_c, 1, 46, 74
3, 177600, Note_on_c, 1, 46, 0
3, 177600, Note_on_c, 1, 44, 69
3, 177888, Note_on_c, 1, 44, 0
3, 177888, Note_on_c, 1, 39, 50
3, 178080, Note_on_c, 1, 39, 0
3, 178080, Note_on_c, 1, 44, 63
3, 178656, Note_on_c, 1, 39, 27
3, 178657, Note_on_c, 1, 39, 0
3, 178752, Note_on_c, 1, 39, 24
3, 178848, Note_on_c, 1, 39, 0
3, 178848, Note_on_c, 1, 32, 55
3, 179232, Note_on_c, 1, 32, 0
3, 179232, Note_on_c, 1, 44, 0
3, 179232, Note_on_c, 1, 34, 61
3, 179616, Note_on_c, 1, 34, 0
3, 179616, Note_on_c, 1, 37, 63
3, 180096, Note_on_c, 1, 37, 0
3, 180096, Note_on_c, 1, 44, 70
3, 180384, Note_on_c, 1, 44, 0
3, 180384, Note_on_c, 1, 51, 94
3, 180664, Note_on_c, 1, 51, 0
3, 180664, Note_on_c, 1, 49, 78
3, 180952, Note_on_c, 1, 49, 0
3, 180952, Note_on_c, 1, 44, 28
3, 181144, Note_on_c, 1, 44, 0
3, 181144, Note_on_c, 1, 43, 76
3, 181912, Note_on_c, 1, 31, 92
3, 182008, Note_on_c, 1, 43, 0
3, 182680, Note_on_c, 1, 31, 0
3, 182680, Note_on_c, 1, 36, 68
3, 183256, Note_on_c, 1, 36, 0
3, 183256, Note_on_c, 1, 43, 72
3, 183352, Note_on_c, 1, 43, 0
3, 183448, Note_on_c, 1, 48, 112
3, 183736, Note_on_c, 1, 48, 0
3, 183736, Note_on_c, 1, 43, 102
3, 184024, Note_on_c, 1, 43, 0
3, 184024, Note_on_c, 1, 42, 20
3, 184024, Note_on_c, 1, 44, 72
3, 184025, Note_on_c, 1, 42, 0
3, 184120, Note_on_c, 1, 44, 0
3, 184216, Note_on_c, 1, 45, 102
3, 184792, Note_on_c, 1, 33, 42
3, 184793, Note_on_c, 1, 33, 0
3, 184888, Note_on_c, 1, 33, 62
3, 184984, Note_on_c, 1, 33, 0
3, 184984, Note_on_c, 1, 33, 59
3, 185368, Note_on_c, 1, 33, 0
3, 185368, Note_on_c, 1, 45, 0
3, 185368, Note_on_c, 1, 36, 55
3, 185464, Note_on_c, 1, 36, 0
3, 185560, Note_on_c, 1, 38, 65
3, 185656, Note_on_c, 1, 38, 0
3, 186328, Note_on_c, 1, 33, 51
3, 186424, Note_on_c, 1, 33, 0
3, 186520, Note_on_c, 1, 40, 100
3, 186616, Note_on_c, 1, 40, 0
3, 186808, Note_on_c, 1, 38, 112
3, 187000, Note_on_c, 1, 38, 0
3, 187288, Note_on_c, 1, 36, 33
3, 187384, Note_on_c, 1, 36, 0
3, 187480, Note_on_c, 1, 37, 30
3, 187672, Note_on_c, 1, 37, 0
3, 187672, Note_on_c, 1, 38, 82
3, 187864, Note_on_c, 1, 38, 0
3, 188928, Program_c, 1, 35
3, 189400, Note_on_c, 1, 38, 51
3, 189496, Note_on_c, 1, 38, 0
3, 189592, Note_on_c, 1, 45, 94
3, 189688, Note_on_c, 1, 45, 0
3, 189880, Note_on_c, 1, 43, 96
3, 190072, Note_on_c, 1, 43, 0
3, 190936, Note_on_c, 1, 31, 70
3, 191032, Note_on_c, 1, 31, 0
3, 191320, Note_on_c, 1, 33, 62
3, 191512, Note_on_c, 1, 33, 0
3, 191512, Note_on_c, 1, 34, 47
3, 191704, Note_on_c, 1, 34, 0
3, 191704, Note_on_c, 1, 38, 96
3, 191800, Note_on_c, 1, 38, 0
3, 192472, Note_on_c, 1, 33, 45
3, 192568, Note_on_c, 1, 33, 0
3, 192664, Note_on_c, 1, 40, 94
3, 192760, Note_on_c, 1, 40, 0
3, 192952, Note_on_c, 1, 38, 112
3, 193240, Note_on_c, 1, 38, 0
3, 193432, Note_on_c, 1, 36, 38
3, 193528, Note_on_c, 1, 36, 0
3, 193624, Note_on_c, 1, 37, 54
3, 193816, Note_on_c, 1, 37, 0
3, 193816, Note_on_c, 1, 38, 90
3, 193912, Note_on_c, 1, 38, 0
3, 195072, Program_c, 1, 35
3, 195544, Note_on_c, 1, 40, 57
3, 195545, Note_on_c, 1, 40, 0
3, 195728, Note_on_c, 1, 47, 74
3, 195824, Note_on_c, 1, 47, 0
3, 196024, Note_on_c, 1, 45, 88
3, 196208, Note_on_c, 1, 45, 0
3, 197072, Note_on_c, 1, 31, 74
3, 197168, Note_on_c, 1, 31, 0
3, 197456, Note_on_c, 1, 32, 64
3, 197648, Note_on_c, 1, 32, 0
3, 197648, Note_on_c, 1, 33, 65
3, 197840, Note_on_c, 1, 33, 0
3, 197840, Note_on_c, 1, 36, 78
3, 197936, Note_on_c, 1, 36, 0
3, 198608, Note_on_c, 1, 33, 51
3, 198704, Note_on_c, 1, 33, 0
3, 198800, Note_on_c, 1, 40, 100
3, 198896, Note_on_c, 1, 40, 0
3, 199088, Note_on_c, 1, 38, 112
3, 199280, Note_on_c, 1, 38, 0
3, 199568, Note_on_c, 1, 36, 33
3, 199664, Note_on_c, 1, 36, 0
3, 199760, Note_on_c, 1, 37, 30
3, 199952, Note_on_c, 1, 37, 0
3, 199952, Note_on_c, 1, 38, 82
3, 200144, Note_on_c, 1, 38, 0
3, 201216, Program_c, 1, 35
3, 201680, Note_on_c, 1, 38, 51
3, 201776, Note_on_c, 1, 38, 0
3, 201872, Note_on_c, 1, 45, 94
3, 201968, Note_on_c, 1, 45, 0
3, 202160, Note_on_c, 1, 43, 96
3, 202352, Note_on_c, 1, 43, 0
3, 203216, Note_on_c, 1, 31, 70
3, 203312, Note_on_c, 1, 31, 0
3, 203600, Note_on_c, 1, 33, 62
3, 203792, Note_on_c, 1, 33, 0
3, 203792, Note_on_c, 1, 34, 47
3, 203984, Note_on_c, 1, 34, 0
3, 203984, Note_on_c, 1, 38, 96
3, 204080, Note_on_c, 1, 38, 0
3, 204752, Note_on_c, 1, 33, 45
3, 204848, Note_on_c, 1, 33, 0
3, 204944, Note_on_c, 1, 40, 94
3, 205040, Note_on_c, 1, 40, 0
3, 205232, Note_on_c, 1, 38, 112
3, 205520, Note_on_c, 1, 38, 0
3, 205712, Note_on_c, 1, 36, 38
3, 205808, Note_on_c, 1, 36, 0
3, 205904, Note_on_c, 1, 37, 54
3, 206096, Note_on_c, 1, 37, 0
3, 206096, Note_on_c, 1, 38, 90
3, 206192, Note_on_c, 1, 38, 0
3, 207360, Program_c, 1, 35
3, 207824, Note_on_c, 1, 40, 57
3, 207825, Note_on_c, 1, 40, 0
3, 208016, Note_on_c, 1, 47, 74
3, 208112, Note_on_c, 1, 47, 0
3, 208304, Note_on_c, 1, 45, 88
3, 208496, Note_on_c, 1, 45, 0
3, 209360, Note_on_c, 1, 31, 74
3, 209456, Note_on_c, 1, 31, 0
3, 209744, Note_on_c, 1, 32, 64
3, 209928, Note_on_c, 1, 32, 0
3, 209928, Note_on_c, 1, 33, 65
3, 210128, Note_on_c, 1, 33, 0
3, 210128, Note_on_c, 1, 36, 78
3, 210224, Note_on_c, 1, 36, 0
3, 210320, Note_on_c, 1, 34, 64
3, 210888, Note_on_c, 1, 34, 0
3, 210888, Note_on_c, 1, 41, 70
3, 211080, Note_on_c, 1, 41, 0
3, 211080, Note_on_c, 1, 46, 66
3, 211656, Note_on_c, 1, 41, 72
3, 211752, Note_on_c, 1, 46, 0
3, 211848, Note_on_c, 1, 41, 0
3, 211848, Note_on_c, 1, 39, 55
3, 212424, Note_on_c, 1, 39, 0
3, 212424, Note_on_c, 1, 34, 30
3, 212808, Note_on_c, 1, 34, 0
3, 212808, Note_on_c, 1, 39, 84
3, 213192, Note_on_c, 1, 39, 0
3, 213192, Note_on_c, 1, 34, 47
3, 213384, Note_on_c, 1, 34, 0
3, 213384, Note_on_c, 1, 33, 68
3, 213960, Note_on_c, 1, 45, 64
3, 213961, Note_on_c, 1, 45, 0
3, 214056, Note_on_c, 1, 33, 0
3, 214056, Note_on_c, 1, 46, 25
3, 214152, Note_on_c, 1, 46, 0
3, 214152, Note_on_c, 1, 45, 69
3, 214536, Note_on_c, 1, 45, 0
3, 214632, Note_on_c, 1, 45, 59
3, 214633, Note_on_c, 1, 45, 0
3, 214728, Note_on_c, 1, 39, 64
3, 214824, Note_on_c, 1, 39, 0
3, 214824, Note_on_c, 1, 45, 59
3, 214825, Note_on_c, 1, 45, 0
3, 214920, Note_on_c, 1, 38, 82
3, 215496, Note_on_c, 1, 38, 0
3, 215496, Note_on_c, 1, 50, 74
3, 215497, Note_on_c, 1, 50, 0
3, 215688, Note_on_c, 1, 50, 104
3, 216264, Note_on_c, 1, 50, 0
3, 216264, Note_on_c, 1, 45, 51
3, 216456, Note_on_c, 1, 45, 0
3, 216456, Note_on_c, 1, 43, 92
3, 217224, Note_on_c, 1, 43, 0
3, 217224, Note_on_c, 1, 38, 102
3, 217800, Note_on_c, 1, 38, 0
3, 217992, Note_on_c, 1, 36, 102
3, 218088, Note_on_c, 1, 36, 0
3, 218376, Note_on_c, 1, 33, 116
3, 219336, Note_on_c, 1, 33, 0
3, 220104, Note_on_c, 1, 33, 39
3, 220200, Note_on_c, 1, 33, 0
3, 220296, Note_on_c, 1, 40, 90
3, 220584, Note_on_c, 1, 40, 0
3, 220584, Note_on_c, 1, 38, 104
3, 220776, Note_on_c, 1, 38, 0
3, 221064, Note_on_c, 1, 36, 29
3, 221256, Note_on_c, 1, 36, 0
3, 221256, Note_on_c, 1, 37, 53
3, 221448, Note_on_c, 1, 37, 0
3, 221448, Note_on_c, 1, 38, 112
3, 221544, Note_on_c, 1, 38, 0
3, 222720, Program_c, 1, 35
3, 223272, Note_on_c, 1, 38, 32
3, 223273, Note_on_c, 1, 38, 0
3, 223368, Note_on_c, 1, 45, 86
3, 223656, Note_on_c, 1, 45, 0
3, 223656, Note_on_c, 1, 43, 72
3, 223848, Note_on_c, 1, 43, 0
3, 224616, Note_on_c, 1, 31, 90
3, 224896, Note_on_c, 1, 31, 0
3, 224896, Note_on_c, 1, 33, 76
3, 224896, Note_on_c, 1, 31, 52
3, 224992, Note_on_c, 1, 31, 0
3, 225096, Note_on_c, 1, 34, 98
3, 225192, Note_on_c, 1, 33, 0
3, 225280, Note_on_c, 1, 34, 0
3, 225280, Note_on_c, 1, 38, 108
3, 225472, Note_on_c, 1, 38, 0
3, 226240, Note_on_c, 1, 33, 39
3, 226336, Note_on_c, 1, 33, 0
3, 226432, Note_on_c, 1, 40, 90
3, 226720, Note_on_c, 1, 40, 0
3, 226720, Note_on_c, 1, 38, 104
3, 226912, Note_on_c, 1, 38, 0
3, 227200, Note_on_c, 1, 36, 29
3, 227392, Note_on_c, 1, 36, 0
3, 227392, Note_on_c, 1, 37, 53
3, 227584, Note_on_c, 1, 37, 0
3, 227584, Note_on_c, 1, 38, 112
3, 227680, Note_on_c, 1, 38, 0
3, 228864, Program_c, 1, 35
3, 229408, Note_on_c, 1, 38, 32
3, 229409, Note_on_c, 1, 38, 0
3, 229504, Note_on_c, 1, 45, 86
3, 229792, Note_on_c, 1, 45, 0
3, 229792, Note_on_c, 1, 43, 72
3, 229984, Note_on_c, 1, 43, 0
3, 230752, Note_on_c, 1, 31, 90
3, 231040, Note_on_c, 1, 31, 0
3, 231040, Note_on_c, 1, 33, 76
3, 231040, Note_on_c, 1, 31, 52
3, 231136, Note_on_c, 1, 31, 0
3, 231232, Note_on_c, 1, 34, 98
3, 231328, Note_on_c, 1, 33, 0
3, 231424, Note_on_c, 1, 34, 0
3, 231424, Note_on_c, 1, 38, 108
3, 231616, Note_on_c, 1, 38, 0
3, 232384, Note_on_c, 1, 33, 39
3, 232480, Note_on_c, 1, 33, 0
3, 232576, Note_on_c, 1, 40, 90
3, 232864, Note_on_c, 1, 40, 0
3, 232864, Note_on_c, 1, 38, 104
3, 233056, Note_on_c, 1, 38, 0
3, 233344, Note_on_c, 1, 36, 29
3, 233536, Note_on_c, 1, 36, 0
3, 233536, Note_on_c, 1, 37, 53
3, 233728, Note_on_c, 1, 37, 0
3, 233728, Note_on_c, 1, 38, 112
3, 233824, Note_on_c, 1, 38, 0
3, 235008, Program_c, 1, 35
3, 235552, Note_on_c, 1, 38, 32
3, 235553, Note_on_c, 1, 38, 0
3, 235648, Note_on_c, 1, 45, 86
3, 235936, Note_on_c, 1, 45, 0
3, 235936, Note_on_c, 1, 43, 72
3, 236128, Note_on_c, 1, 43, 0
3, 236896, Note_on_c, 1, 31, 90
3, 237184, Note_on_c, 1, 31, 0
3, 237184, Note_on_c, 1, 33, 76
3, 237184, Note_on_c, 1, 31, 52
3, 237280, Note_on_c, 1, 31, 0
3, 237376, Note_on_c, 1, 34, 98
3, 237472, Note_on_c, 1, 33, 0
3, 237568, Note_on_c, 1, 34, 0
3, 237568, Note_on_c, 1, 38, 108
3, 237760, Note_on_c, 1, 38, 0
3, 238528, Note_on_c, 1, 33, 39
3, 238624, Note_on_c, 1, 33, 0
3, 238720, Note_on_c, 1, 40, 90
3, 239000, Note_on_c, 1, 40, 0
3, 239000, Note_on_c, 1, 38, 104
3, 239192, Note_on_c, 1, 38, 0
3, 239480, Note_on_c, 1, 36, 29
3, 239680, Note_on_c, 1, 36, 0
3, 239680, Note_on_c, 1, 37, 53
3, 239872, Note_on_c, 1, 37, 0
3, 239872, Note_on_c, 1, 38, 112
3, 239960, Note_on_c, 1, 38, 0
3, 241152, Program_c, 1, 35
3, 241688, Note_on_c, 1, 38, 32
3, 241689, Note_on_c, 1, 38, 0
3, 241784, Note_on_c, 1, 45, 86
3, 242072, Note_on_c, 1, 45, 0
3, 242072, Note_on_c, 1, 43, 72
3, 242264, Note_on_c, 1, 43, 0
3, 243032, Note_on_c, 1, 31, 90
3, 243320, Note_on_c, 1, 31, 0
3, 243320, Note_on_c, 1, 33, 76
3, 243320, Note_on_c, 1, 31, 52
3, 243416, Note_on_c, 1, 31, 0
3, 243512, Note_on_c, 1, 34, 98
3, 243608, Note_on_c, 1, 33, 0
3, 243704, Note_on_c, 1, 34, 0
3, 243704, Note_on_c, 1, 38, 108
3, 243896, Note_on_c, 1, 38, 0
3, 244664, Note_on_c, 1, 33, 39
3, 244760, Note_on_c, 1, 33, 0
3, 244856, Note_on_c, 1, 40, 90
3, 245144, Note_on_c, 1, 40, 0
3, 245144, Note_on_c, 1, 38, 104
3, 245336, Note_on_c, 1, 38, 0
3, 245624, Note_on_c, 1, 36, 29
3, 245816, Note_on_c, 1, 36, 0
3, 245816, Note_on_c, 1, 37, 53
3, 246008, Note_on_c, 1, 37, 0
3, 246008, Note_on_c, 1, 38, 112
3, 246104, Note_on_c, 1, 38, 0
3, 247296, Program_c, 1, 35
3, 247832, Note_on_c, 1, 38, 32
3, 247833, Note_on_c, 1, 38, 0
3, 247928, Note_on_c, 1, 45, 86
3, 248216, Note_on_c, 1, 45, 0
3, 248216, Note_on_c, 1, 43, 72
3, 248408, Note_on_c, 1, 43, 0
3, 249176, Note_on_c, 1, 31, 90
3, 249464, Note_on_c, 1, 31, 0
3, 249464, Note_on_c, 1, 33, 76
3, 249464, Note_on_c, 1, 31, 52
3, 249560, Note_on_c, 1, 31, 0
3, 249656, Note_on_c, 1, 34, 98
3, 249752, Note_on_c, 1, 33, 0
3, 249848, Note_on_c, 1, 34, 0
3, 249848, Note_on_c, 1, 38, 108
3, 250040, Note_on_c, 1, 38, 0
3, 250808, Note_on_c, 1, 33, 39
3, 250904, Note_on_c, 1, 33, 0
3, 251000, Note_on_c, 1, 40, 90
3, 251288, Note_on_c, 1, 40, 0
3, 251288, Note_on_c, 1, 38, 104
3, 251480, Note_on_c, 1, 38, 0
3, 251768, Note_on_c, 1, 36, 29
3, 251960, Note_on_c, 1, 36, 0
3, 251960, Note_on_c, 1, 37, 53
3, 252152, Note_on_c, 1, 37, 0
3, 252152, Note_on_c, 1, 38, 112
3, 252248, Note_on_c, 1, 38, 0
3, 253440, Program_c, 1, 35
3, 253976, Note_on_c, 1, 38, 32
3, 253977, Note_on_c, 1, 38, 0
3, 254064, Note_on_c, 1, 45, 86
3, 254352, Note_on_c, 1, 45, 0
3, 254352, Note_on_c, 1, 43, 72
3, 254544, Note_on_c, 1, 43, 0
3, 255312, Note_on_c, 1, 31, 90
3, 255600, Note_on_c, 1, 31, 0
3, 255600, Note_on_c, 1, 33, 76
3, 255600, Note_on_c, 1, 31, 52
3, 255696, Note_on_c, 1, 31, 0
3, 255792, Note_on_c, 1, 34, 98
3, 255888, Note_on_c, 1, 33, 0
3, 255984, Note_on_c, 1, 34, 0
3, 255984, Note_on_c, 1, 38, 108
3, 256176, Note_on_c, 1, 38, 0
3, 256944, Note_on_c, 1, 33, 39
3, 257040, Note_on_c, 1, 33, 0
3, 257136, Note_on_c, 1, 40, 90
3, 257424, Note_on_c, 1, 40, 0
3, 257424, Note_on_c, 1, 38, 104
3, 257616, Note_on_c, 1, 38, 0
3, 257904, Note_on_c, 1, 36, 29
3, 258096, Note_on_c, 1, 36, 0
3, 258096, Note_on_c, 1, 37, 53
3, 258288, Note_on_c, 1, 37, 0
3, 258288, Note_on_c, 1, 38, 112
3, 258384, Note_on_c, 1, 38, 0
3, 259584, Program_c, 1, 35
3, 260112, Note_on_c, 1, 38, 32
3, 260113, Note_on_c, 1, 38, 0
3, 260208, Note_on_c, 1, 45, 86
3, 260496, Note_on_c, 1, 45, 0
3, 260496, Note_on_c, 1, 43, 72
3, 260688, Note_on_c, 1, 43, 0
3, 261456, Note_on_c, 1, 31, 90
3, 261744, Note_on_c, 1, 31, 0
3, 261744, Note_on_c, 1, 33, 76
3, 261744, Note_on_c, 1, 31, 52
3, 261840, Note_on_c, 1, 31, 0
3, 261936, Note_on_c, 1, 34, 98
3, 262032, Note_on_c, 1, 33, 0
3, 262128, Note_on_c, 1, 34, 0
3, 262128, Note_on_c, 1, 38, 108
3, 262320, Note_on_c, 1, 38, 0
3, 263088, Note_on_c, 1, 33, 39
3, 263184, Note_on_c, 1, 33, 0
3, 263280, Note_on_c, 1, 40, 90
3, 263568, Note_on_c, 1, 40, 0
3, 263568, Note_on_c, 1, 38, 104
3, 263760, Note_on_c, 1, 38, 0
3, 264048, Note_on_c, 1, 36, 29
3, 264240, Note_on_c, 1, 36, 0
3, 264240, Note_on_c, 1, 37, 53
3, 264432, Note_on_c, 1, 37, 0
3, 264432, Note_on_c, 1, 38, 112
3, 264528, Note_on_c, 1, 38, 0
3, 265728, Program_c, 1, 35
3, 266256, Note_on_c, 1, 38, 32
3, 266257, Note_on_c, 1, 38, 0
3, 266352, Note_on_c, 1, 45, 86
3, 266640, Note_on_c, 1, 45, 0
3, 266640, Note_on_c, 1, 43, 72
3, 266832, Note_on_c, 1, 43, 0
3, 267600, Note_on_c, 1, 31, 90
3, 267880, Note_on_c, 1, 31, 0
3, 267880, Note_on_c, 1, 33, 76
3, 267880, Note_on_c, 1, 31, 52
3, 267976, Note_on_c, 1, 31, 0
3, 268080, Note_on_c, 1, 34, 98
3, 268176, Note_on_c, 1, 33, 0
3, 268264, Note_on_c, 1, 34, 0
3, 268264, Note_on_c, 1, 38, 108
3, 268456, Note_on_c, 1, 38, 0
3, 269224, Note_on_c, 1, 33, 39
3, 269320, Note_on_c, 1, 33, 0
3, 269416, Note_on_c, 1, 40, 90
3, 269704, Note_on_c, 1, 40, 0
3, 269704, Note_on_c, 1, 38, 104
3, 269896, Note_on_c, 1, 38, 0
3, 270184, Note_on_c, 1, 36, 29
3, 270376, Note_on_c, 1, 36, 0
3, 270376, Note_on_c, 1, 37, 53
3, 270568, Note_on_c, 1, 37, 0
3, 270568, Note_on_c, 1, 38, 112
3, 270664, Note_on_c, 1, 38, 0
3, 271872, Program_c, 1, 35
3, 272392, Note_on_c, 1, 38, 32
3, 272393, Note_on_c, 1, 38, 0
3, 272488, Note_on_c, 1, 45, 86
3, 272776, Note_on_c, 1, 45, 0
3, 272776, Note_on_c, 1, 43, 72
3, 272968, Note_on_c, 1, 43, 0
3, 273736, Note_on_c, 1, 31, 90
3, 274024, Note_on_c, 1, 31, 0
3, 274024, Note_on_c, 1, 33, 76
3, 274024, Note_on_c, 1, 31, 52
3, 274120, Note_on_c, 1, 31, 0
3, 274216, Note_on_c, 1, 34, 98
3, 274312, Note_on_c, 1, 33, 0
3, 274408, Note_on_c, 1, 34, 0
3, 274408, Note_on_c, 1, 38, 108
3, 274600, Note_on_c, 1, 38, 0
3, 275368, Note_on_c, 1, 33, 39
3, 275464, Note_on_c, 1, 33, 0
3, 275560, Note_on_c, 1, 40, 90
3, 275848, Note_on_c, 1, 40, 0
3, 275848, Note_on_c, 1, 38, 104
3, 276040, Note_on_c, 1, 38, 0
3, 276328, Note_on_c, 1, 36, 29
3, 276520, Note_on_c, 1, 36, 0
3, 276520, Note_on_c, 1, 37, 53
3, 276712, Note_on_c, 1, 37, 0
3, 276712, Note_on_c, 1, 38, 112
3, 276808, Note_on_c, 1, 38, 0
3, 278016, Program_c, 1, 35
3, 278536, Note_on_c, 1, 38, 32
3, 278537, Note_on_c, 1, 38, 0
3, 278632, Note_on_c, 1, 45, 86
3, 278920, Note_on_c, 1, 45, 0
3, 278920, Note_on_c, 1, 43, 72
3, 279112, Note_on_c, 1, 43, 0
3, 279880, Note_on_c, 1, 31, 90
3, 280168, Note_on_c, 1, 31, 0
3, 280168, Note_on_c, 1, 33, 76
3, 280168, Note_on_c, 1, 31, 52
3, 280264, Note_on_c, 1, 31, 0
3, 280360, Note_on_c, 1, 34, 98
3, 280456, Note_on_c, 1, 33, 0
3, 280552, Note_on_c, 1, 34, 0
3, 280552, Note_on_c, 1, 38, 108
3, 280744, Note_on_c, 1, 38, 0
3, 281512, Note_on_c, 1, 33, 39
3, 281608, Note_on_c, 1, 33, 0
3, 281704, Note_on_c, 1, 40, 90
3, 281992, Note_on_c, 1, 40, 0
3, 281992, Note_on_c, 1, 38, 104
3, 282184, Note_on_c, 1, 38, 0
3, 282472, Note_on_c, 1, 36, 29
3, 282664, Note_on_c, 1, 36, 0
3, 282664, Note_on_c, 1, 37, 53
3, 282856, Note_on_c, 1, 37, 0
3, 282856, Note_on_c, 1, 38, 112
3, 282952, Note_on_c, 1, 38, 0
3, 284160, Program_c, 1, 35
3, 284672, Note_on_c, 1, 38, 32
3, 284673, Note_on_c, 1, 38, 0
3, 284768, Note_on_c, 1, 45, 86
3, 285056, Note_on_c, 1, 45, 0
3, 285056, Note_on_c, 1, 43, 72
3, 285248, Note_on_c, 1, 43, 0
3, 286016, Note_on_c, 1, 31, 90
3, 286304, Note_on_c, 1, 31, 0
3, 286304, Note_on_c, 1, 33, 76
3, 286304, Note_on_c, 1, 31, 52
3, 286400, Note_on_c, 1, 31, 0
3, 286496, Note_on_c, 1, 34, 98
3, 286592, Note_on_c, 1, 33, 0
3, 286688, Note_on_c, 1, 34, 0
3, 286688, Note_on_c, 1, 38, 108
3, 286880, Note_on_c, 1, 38, 0
3, 287648, Note_on_c, 1, 33, 39
3, 287744, Note_on_c, 1, 33, 0
3, 287840, Note_on_c, 1, 40, 90
3, 288128, Note_on_c, 1, 40, 0
3, 288128, Note_on_c, 1, 38, 104
3, 288320, Note_on_c, 1, 38, 0
3, 288608, Note_on_c, 1, 36, 29
3, 288800, Note_on_c, 1, 36, 0
3, 288800, Note_on_c, 1, 37, 53
3, 288992, Note_on_c, 1, 37, 0
3, 288992, Note_on_c, 1, 38, 112
3, 289088, Note_on_c, 1, 38, 0
3, 290304, Program_c, 1, 35
3, 290816, Note_on_c, 1, 38, 32
3, 290817, Note_on_c, 1, 38, 0
3, 290912, Note_on_c, 1, 45, 86
3, 291200, Note_on_c, 1, 45, 0
3, 291200, Note_on_c, 1, 43, 72
3, 291392, Note_on_c, 1, 43, 0
3, 292160, Note_on_c, 1, 31, 90
3, 292448, Note_on_c, 1, 31, 0
3, 292448, Note_on_c, 1, 33, 76
3, 292448, Note_on_c, 1, 31, 52
3, 292544, Note_on_c, 1, 31, 0
3, 292640, Note_on_c, 1, 34, 98
3, 292736, Note_on_c, 1, 33, 0
3, 292832, Note_on_c, 1, 34, 0
3, 292832, Note_on_c, 1, 38, 108
3, 293024, Note_on_c, 1, 38, 0
3, 293792, Note_on_c, 1, 33, 39
3, 293888, Note_on_c, 1, 33, 0
3, 293984, Note_on_c, 1, 40, 90
3, 294272, Note_on_c, 1, 40, 0
3, 294272, Note_on_c, 1, 38, 104
3, 294464, Note_on_c, 1, 38, 0
3, 294752, Note_on_c, 1, 36, 29
3, 294944, Note_on_c, 1, 36, 0
3, 294944, Note_on_c, 1, 37, 53
3, 295136, Note_on_c, 1, 37, 0
3, 295136, Note_on_c, 1, 38, 112
3, 295232, Note_on_c, 1, 38, 0
3, 296448, Program_c, 1, 35
3, 296952, Note_on_c, 1, 38, 32
3, 296953, Note_on_c, 1, 38, 0
3, 297048, Note_on_c, 1, 45, 86
3, 297336, Note_on_c, 1, 45, 0
3, 297336, Note_on_c, 1, 43, 72
3, 297536, Note_on_c, 1, 43, 0
3, 298296, Note_on_c, 1, 31, 90
3, 298584, Note_on_c, 1, 31, 0
3, 298584, Note_on_c, 1, 33, 76
3, 298584, Note_on_c, 1, 31, 52
3, 298680, Note_on_c, 1, 31, 0
3, 298776, Note_on_c, 1, 34, 98
3, 298872, Note_on_c, 1, 33, 0
3, 298968, Note_on_c, 1, 34, 0
3, 298968, Note_on_c, 1, 38, 108
3, 299160, Note_on_c, 1, 38, 0
3, 299928, Note_on_c, 1, 33, 39
3, 300024, Note_on_c, 1, 33, 0
3, 300120, Note_on_c, 1, 40, 90
3, 300408, Note_on_c, 1, 40, 0
3, 300408, Note_on_c, 1, 38, 104
3, 300600, Note_on_c, 1, 38, 0
3, 300888, Note_on_c, 1, 36, 29
3, 301080, Note_on_c, 1, 36, 0
3, 301080, Note_on_c, 1, 37, 53
3, 301272, Note_on_c, 1, 37, 0
3, 301272, Note_on_c, 1, 38, 112
3, 301368, Note_on_c, 1, 38, 0
3, 302592, Program_c, 1, 35
3, 303096, Note_on_c, 1, 38, 32
3, 303097, Note_on_c, 1, 38, 0
3, 303192, Note_on_c, 1, 45, 86
3, 303480, Note_on_c, 1, 45, 0
3, 303480, Note_on_c, 1, 43, 72
3, 303672, Note_on_c, 1, 43, 0
3, 304440, Note_on_c, 1, 31, 90
3, 304728, Note_on_c, 1, 31, 0
3, 304728, Note_on_c, 1, 33, 76
3, 304728, Note_on_c, 1, 31, 52
3, 304824, Note_on_c, 1, 31, 0
3, 304920, Note_on_c, 1, 34, 98
3, 305016, Note_on_c, 1, 33, 0
3, 305112, Note_on_c, 1, 34, 0
3, 305112, Note_on_c, 1, 38, 108
3, 305304, Note_on_c, 1, 38, 0
3, 306072, Note_on_c, 1, 33, 39
3, 306168, Note_on_c, 1, 33, 0
3, 306264, Note_on_c, 1, 40, 90
3, 306552, Note_on_c, 1, 40, 0
3, 306552, Note_on_c, 1, 38, 104
3, 306744, Note_on_c, 1, 38, 0
3, 307032, Note_on_c, 1, 36, 29
3, 307224, Note_on_c, 1, 36, 0
3, 307224, Note_on_c, 1, 37, 53
3, 307416, Note_on_c, 1, 37, 0
3, 307416, Note_on_c, 1, 38, 112
3, 307512, Note_on_c, 1, 38, 0
3, 308736, Program_c, 1, 35
3, 309240, Note_on_c, 1, 38, 32
3, 309241, Note_on_c, 1, 38, 0
3, 309336, Note_on_c, 1, 45, 86
3, 309624, Note_on_c, 1, 45, 0
3, 309624, Note_on_c, 1, 43, 72
3, 309816, Note_on_c, 1, 43, 0
3, 310584, Note_on_c, 1, 31, 90
3, 310872, Note_on_c, 1, 31, 0
3, 310872, Note_on_c, 1, 33, 76
3, 310872, Note_on_c, 1, 31, 52
3, 310968, Note_on_c, 1, 31, 0
3, 311064, Note_on_c, 1, 34, 98
3, 311152, Note_on_c, 1, 33, 0
3, 311248, Note_on_c, 1, 34, 0
3, 311248, Note_on_c, 1, 38, 108
3, 311440, Note_on_c, 1, 38, 0
3, 312208, Note_on_c, 1, 33, 39
3, 312304, Note_on_c, 1, 33, 0
3, 312408, Note_on_c, 1, 40, 90
3, 312688, Note_on_c, 1, 40, 0
3, 312688, Note_on_c, 1, 38, 104
3, 312880, Note_on_c, 1, 38, 0
3, 313168, Note_on_c, 1, 36, 29
3, 313360, Note_on_c, 1, 36, 0
3, 313360, Note_on_c, 1, 37, 53
3, 313552, Note_on_c, 1, 37, 0
3, 313552, Note_on_c, 1, 38, 112
3, 313648, Note_on_c, 1, 38, 0
3, 314880, Program_c, 1, 35
3, 315376, Note_on_c, 1, 38, 32
3, 315377, Note_on_c, 1, 38, 0
3, 315472, Note_on_c, 1, 45, 86
3, 315760, Note_on_c, 1, 45, 0
3, 315760, Note_on_c, 1, 43, 72
3, 315952, Note_on_c, 1, 43, 0
3, 316720, Note_on_c, 1, 31, 90
3, 317008, Note_on_c, 1, 31, 0
3, 317008, Note_on_c, 1, 33, 76
3, 317008, Note_on_c, 1, 31, 52
3, 317104, Note_on_c, 1, 31, 0
3, 317200, Note_on_c, 1, 34, 98
3, 317296, Note_on_c, 1, 33, 0
3, 317392, Note_on_c, 1, 34, 0
3, 317392, Note_on_c, 1, 38, 108
3, 317584, Note_on_c, 1, 38, 0
3, 318352, Note_on_c, 1, 33, 39
3, 318448, Note_on_c, 1, 33, 0
3, 318544, Note_on_c, 1, 40, 90
3, 318832, Note_on_c, 1, 40, 0
3, 318832, Note_on_c, 1, 38, 104
3, 319024, Note_on_c, 1, 38, 0
3, 319312, Note_on_c, 1, 36, 29
3, 319504, Note_on_c, 1, 36, 0
3, 319504, Note_on_c, 1, 37, 53
3, 319696, Note_on_c, 1, 37, 0
3, 319696, Note_on_c, 1, 38, 112
3, 319792, Note_on_c, 1, 38, 0
3, 321024, Program_c, 1, 35
3, 321520, Note_on_c, 1, 38, 32
3, 321521, Note_on_c, 1, 38, 0
3, 321616, Note_on_c, 1, 45, 86
3, 321904, Note_on_c, 1, 45, 0
3, 321904, Note_on_c, 1, 43, 72
3, 322096, Note_on_c, 1, 43, 0
3, 322864, Note_on_c, 1, 31, 90
3, 323152, Note_on_c, 1, 31, 0
3, 323152, Note_on_c, 1, 33, 76
3, 323152, Note_on_c, 1, 31, 52
3, 323248, Note_on_c, 1, 31, 0
3, 323344, Note_on_c, 1, 34, 98
3, 323440, Note_on_c, 1, 33, 0
3, 323536, Note_on_c, 1, 34, 0
3, 323536, Note_on_c, 1, 38, 108
3, 323728, Note_on_c, 1, 38, 0
3, 323928, Control_c, 1, 126, 0
3, 323928, Control_c, 1, 127, 0
3, 323928, Control_c, 1, 123, 0
3, 323928, End_track
4, 0, Start_track
4, 0, MIDI_port, 0
4, 0, Program_c, 2, 11
4, 0, Control_c, 2, 7, 127
4, 0, Control_c, 2, 11, 127
4, 0, Control_c, 2, 64, 0
4, 0, Control_c, 2, 67, 0
4, 0, Pitch_bend_c, 2, 8192
4, 150269, Note_on_c, 2, 64, 62
4, 150350, Note_on_c, 2, 64, 0
4, 150353, Note_on_c, 2, 61, 49
4, 150437, Note_on_c, 2, 61, 0
4, 150464, Note_on_c, 2, 62, 44
4, 150857, Note_on_c, 2, 62, 0
4, 151035, Note_on_c, 2, 73, 83
4, 151128, Note_on_c, 2, 69, 75
4, 151144, Note_on_c, 2, 73, 0
4, 151175, Note_on_c, 2, 69, 0
4, 151238, Note_on_c, 2, 64, 48
4, 151300, Note_on_c, 2, 64, 0
4, 151328, Note_on_c, 2, 61, 70
4, 151384, Note_on_c, 2, 61, 0
4, 151533, Note_on_c, 2, 57, 33
4, 151558, Note_on_c, 2, 57, 0
4, 151603, Note_on_c, 2, 61, 74
4, 151713, Note_on_c, 2, 57, 64
4, 151722, Note_on_c, 2, 61, 0
4, 151769, Note_on_c, 2, 57, 0
4, 151814, Note_on_c, 2, 58, 34
4, 151907, Note_on_c, 2, 59, 66
4, 151913, Note_on_c, 2, 58, 0
4, 151959, Note_on_c, 2, 59, 0
4, 151986, Note_on_c, 2, 60, 79
4, 152159, Note_on_c, 2, 60, 0
4, 152171, Note_on_c, 2, 57, 56
4, 152344, Note_on_c, 2, 57, 0
4, 152392, Note_on_c, 2, 53, 13
4, 152590, Note_on_c, 2, 53, 0
4, 153413, Note_on_c, 2, 70, 85
4, 153467, Note_on_c, 2, 70, 0
4, 153511, Note_on_c, 2, 71, 80
4, 153574, Note_on_c, 2, 71, 0
4, 153610, Note_on_c, 2, 71, 75
4, 153677, Note_on_c, 2, 71, 0
4, 153702, Note_on_c, 2, 69, 57
4, 153743, Note_on_c, 2, 69, 0
4, 153795, Note_on_c, 2, 69, 51
4, 153867, Note_on_c, 2, 69, 0
4, 153884, Note_on_c, 2, 65, 47
4, 153944, Note_on_c, 2, 65, 0
4, 153993, Note_on_c, 2, 65, 47
4, 154038, Note_on_c, 2, 65, 0
4, 154084, Note_on_c, 2, 71, 95
4, 154159, Note_on_c, 2, 71, 0
4, 154187, Note_on_c, 2, 71, 80
4, 154275, Note_on_c, 2, 71, 0
4, 154276, Note_on_c, 2, 69, 53
4, 154318, Note_on_c, 2, 69, 0
4, 154377, Note_on_c, 2, 69, 59
4, 154450, Note_on_c, 2, 69, 0
4, 154469, Note_on_c, 2, 65, 37
4, 154521, Note_on_c, 2, 65, 0
4, 154575, Note_on_c, 2, 65, 47
4, 154624, Note_on_c, 2, 65, 0
4, 154671, Note_on_c, 2, 71, 94
4, 154731, Note_on_c, 2, 71, 0
4, 154769, Note_on_c, 2, 71, 73
4, 154850, Note_on_c, 2, 71, 0
4, 154862, Note_on_c, 2, 69, 54
4, 154907, Note_on_c, 2, 69, 0
4, 154958, Note_on_c, 2, 69, 52
4, 155023, Note_on_c, 2, 69, 0
4, 155055, Note_on_c, 2, 65, 42
4, 155089, Note_on_c, 2, 65, 0
4, 155165, Note_on_c, 2, 65, 40
4, 155210, Note_on_c, 2, 65, 0
4, 155236, Note_on_c, 2, 70, 86
4, 155303, Note_on_c, 2, 70, 0
4, 155334, Note_on_c, 2, 70, 78
4, 155412, Note_on_c, 2, 70, 0
4, 155427, Note_on_c, 2, 69, 68
4, 155487, Note_on_c, 2, 69, 0
4, 155527, Note_on_c, 2, 69, 70
4, 155598, Note_on_c, 2, 69, 0
4, 155623, Note_on_c, 2, 65, 37
4, 155669, Note_on_c, 2, 65, 0
4, 155721, Note_on_c, 2, 65, 58
4, 155788, Note_on_c, 2, 65, 0
4, 155822, Note_on_c, 2, 62, 29
4, 155868, Note_on_c, 2, 62, 0
4, 155929, Note_on_c, 2, 62, 35
4, 155977, Note_on_c, 2, 62, 0
4, 156016, Note_on_c, 2, 58, 52
4, 156196, Note_on_c, 2, 58, 0
4, 156215, Note_on_c, 2, 57, 46
4, 156315, Note_on_c, 2, 57, 0
4, 156328, Note_on_c, 2, 58, 45
4, 156376, Note_on_c, 2, 58, 0
4, 156970, Note_on_c, 2, 60, 71
4, 157056, Note_on_c, 2, 60, 0
4, 157095, Note_on_c, 2, 57, 36
4, 157166, Note_on_c, 2, 57, 0
4, 157193, Note_on_c, 2, 58, 34
4, 157251, Note_on_c, 2, 58, 0
4, 157293, Note_on_c, 2, 62, 60
4, 157349, Note_on_c, 2, 62, 0
4, 157394, Note_on_c, 2, 65, 53
4, 157453, Note_on_c, 2, 65, 0
4, 157480, Note_on_c, 2, 69, 80
4, 157537, Note_on_c, 2, 69, 0
4, 157568, Note_on_c, 2, 70, 83
4, 157666, Note_on_c, 2, 69, 80
4, 157667, Note_on_c, 2, 70, 0
4, 157740, Note_on_c, 2, 69, 0
4, 157765, Note_on_c, 2, 67, 64
4, 157823, Note_on_c, 2, 67, 0
4, 158041, Note_on_c, 2, 60, 36
4, 158073, Note_on_c, 2, 60, 0
4, 158124, Note_on_c, 2, 67, 85
4, 158215, Note_on_c, 2, 67, 0
4, 158240, Note_on_c, 2, 64, 48
4, 158292, Note_on_c, 2, 64, 0
4, 158363, Note_on_c, 2, 65, 26
4, 158391, Note_on_c, 2, 65, 0
4, 158434, Note_on_c, 2, 67, 83
4, 158516, Note_on_c, 2, 67, 0
4, 158528, Note_on_c, 2, 64, 51
4, 158607, Note_on_c, 2, 64, 0
4, 158628, Note_on_c, 2, 60, 53
4, 158654, Note_on_c, 2, 60, 0
4, 158714, Note_on_c, 2, 62, 46
4, 158766, Note_on_c, 2, 62, 0
4, 158798, Note_on_c, 2, 64, 76
4, 158872, Note_on_c, 2, 64, 0
4, 158886, Note_on_c, 2, 60, 60
4, 158978, Note_on_c, 2, 60, 0
4, 158998, Note_on_c, 2, 57, 52
4, 159257, Note_on_c, 2, 57, 0
4, 159654, Note_on_c, 2, 70, 93
4, 159739, Note_on_c, 2, 70, 0
4, 159772, Note_on_c, 2, 67, 31
4, 159795, Note_on_c, 2, 67, 0
4, 159875, Note_on_c, 2, 69, 31
4, 159934, Note_on_c, 2, 69, 0
4, 159944, Note_on_c, 2, 70, 74
4, 160004, Note_on_c, 2, 70, 0
4, 160040, Note_on_c, 2, 72, 69
4, 160134, Note_on_c, 2, 73, 83
4, 160144, Note_on_c, 2, 72, 0
4, 160196, Note_on_c, 2, 73, 0
4, 160222, Note_on_c, 2, 75, 79
4, 160300, Note_on_c, 2, 75, 0
4, 160332, Note_on_c, 2, 76, 60
4, 160397, Note_on_c, 2, 76, 0
4, 160429, Note_on_c, 2, 78, 43
4, 160479, Note_on_c, 2, 78, 0
4, 160531, Note_on_c, 2, 79, 68
4, 160577, Note_on_c, 2, 79, 0
4, 160617, Note_on_c, 2, 81, 90
4, 160693, Note_on_c, 2, 81, 0
4, 160726, Note_on_c, 2, 81, 82
4, 160818, Note_on_c, 2, 79, 68
4, 160828, Note_on_c, 2, 81, 0
4, 160868, Note_on_c, 2, 79, 0
4, 160918, Note_on_c, 2, 79, 74
4, 160979, Note_on_c, 2, 79, 0
4, 161016, Note_on_c, 2, 77, 42
4, 161064, Note_on_c, 2, 77, 0
4, 161109, Note_on_c, 2, 77, 68
4, 161179, Note_on_c, 2, 77, 0
4, 161206, Note_on_c, 2, 76, 58
4, 161253, Note_on_c, 2, 76, 0
4, 161304, Note_on_c, 2, 76, 51
4, 161351, Note_on_c, 2, 76, 0
4, 161394, Note_on_c, 2, 79, 99
4, 161462, Note_on_c, 2, 79, 0
4, 161497, Note_on_c, 2, 79, 78
4, 161576, Note_on_c, 2, 79, 0
4, 161581, Note_on_c, 2, 76, 57
4, 161625, Note_on_c, 2, 76, 0
4, 161683, Note_on_c, 2, 76, 55
4, 161737, Note_on_c, 2, 76, 0
4, 161770, Note_on_c, 2, 77, 89
4, 161842, Note_on_c, 2, 77, 0
4, 161877, Note_on_c, 2, 77, 72
4, 161932, Note_on_c, 2, 77, 0
4, 161964, Note_on_c, 2, 73, 46
4, 162026, Note_on_c, 2, 73, 0
4, 162066, Note_on_c, 2, 73, 46
4, 162123, Note_on_c, 2, 73, 0
4, 162150, Note_on_c, 2, 76, 85
4, 162219, Note_on_c, 2, 76, 0
4, 162249, Note_on_c, 2, 76, 87
4, 162339, Note_on_c, 2, 74, 66
4, 162352, Note_on_c, 2, 76, 0
4, 162390, Note_on_c, 2, 74, 0
4, 162430, Note_on_c, 2, 74, 68
4, 162506, Note_on_c, 2, 74, 0
4, 162528, Note_on_c, 2, 73, 64
4, 162585, Note_on_c, 2, 73, 0
4, 162635, Note_on_c, 2, 73, 56
4, 162696, Note_on_c, 2, 73, 0
4, 162723, Note_on_c, 2, 76, 77
4, 162790, Note_on_c, 2, 76, 0
4, 162823, Note_on_c, 2, 76, 75
4, 162897, Note_on_c, 2, 76, 0
4, 163015, Note_on_c, 2, 69, 57
4, 163077, Note_on_c, 2, 69, 0
4, 163107, Note_on_c, 2, 73, 83
4, 163213, Note_on_c, 2, 73, 0
4, 163222, Note_on_c, 2, 64, 67
4, 163304, Note_on_c, 2, 64, 0
4, 164076, Note_on_c, 2, 64, 110
4, 164160, Note_on_c, 2, 64, 0
4, 164171, Note_on_c, 2, 61, 64
4, 164262, Note_on_c, 2, 61, 0
4, 164283, Note_on_c, 2, 62, 33
4, 164330, Note_on_c, 2, 62, 0
4, 164634, Note_on_c, 2, 64, 103
4, 164721, Note_on_c, 2, 64, 0
4, 164744, Note_on_c, 2, 61, 46
4, 164792, Note_on_c, 2, 61, 0
4, 164819, Note_on_c, 2, 62, 24
4, 164863, Note_on_c, 2, 62, 0
4, 165218, Note_on_c, 2, 64, 87
4, 165299, Note_on_c, 2, 64, 0
4, 165332, Note_on_c, 2, 61, 30
4, 165399, Note_on_c, 2, 61, 0
4, 165416, Note_on_c, 2, 62, 37
4, 165502, Note_on_c, 2, 62, 0
4, 165519, Note_on_c, 2, 63, 48
4, 165603, Note_on_c, 2, 63, 0
4, 165614, Note_on_c, 2, 64, 60
4, 165677, Note_on_c, 2, 64, 0
4, 165713, Note_on_c, 2, 65, 62
4, 165781, Note_on_c, 2, 65, 0
4, 165803, Note_on_c, 2, 69, 66
4, 165876, Note_on_c, 2, 69, 0
4, 165908, Note_on_c, 2, 71, 57
4, 165970, Note_on_c, 2, 71, 0
4, 166581, Note_on_c, 2, 71, 92
4, 166665, Note_on_c, 2, 71, 0
4, 166769, Note_on_c, 2, 71, 94
4, 166860, Note_on_c, 2, 69, 61
4, 166875, Note_on_c, 2, 71, 0
4, 166921, Note_on_c, 2, 69, 0
4, 166937, Note_on_c, 2, 65, 57
4, 167013, Note_on_c, 2, 65, 0
4, 167055, Note_on_c, 2, 57, 22
4, 167093, Note_on_c, 2, 57, 0
4, 167136, Note_on_c, 2, 70, 83
4, 167221, Note_on_c, 2, 70, 0
4, 167341, Note_on_c, 2, 70, 82
4, 167425, Note_on_c, 2, 70, 0
4, 167433, Note_on_c, 2, 69, 68
4, 167493, Note_on_c, 2, 69, 0
4, 167535, Note_on_c, 2, 65, 30
4, 167590, Note_on_c, 2, 65, 0
4, 167625, Note_on_c, 2, 62, 49
4, 167692, Note_on_c, 2, 62, 0
4, 167713, Note_on_c, 2, 58, 50
4, 167794, Note_on_c, 2, 58, 0
4, 167836, Note_on_c, 2, 55, 32
4, 167862, Note_on_c, 2, 55, 0
4, 167915, Note_on_c, 2, 57, 79
4, 168763, Note_on_c, 2, 57, 0
4, 168881, Note_on_c, 2, 58, 71
4, 168955, Note_on_c, 2, 58, 0
4, 168977, Note_on_c, 2, 55, 44
4, 168999, Note_on_c, 2, 55, 0
4, 169172, Note_on_c, 2, 58, 45
4, 169190, Note_on_c, 2, 58, 0
4, 169642, Note_on_c, 2, 60, 76
4, 169643, Note_on_c, 2, 57, 69
4, 169695, Note_on_c, 2, 57, 0
4, 169706, Note_on_c, 2, 60, 0
4, 169718, Note_on_c, 2, 58, 62
4, 169731, Note_on_c, 2, 61, 69
4, 169797, Note_on_c, 2, 61, 0
4, 169801, Note_on_c, 2, 58, 0
4, 169818, Note_on_c, 2, 63, 64
4, 169822, Note_on_c, 2, 60, 56
4, 169879, Note_on_c, 2, 63, 0
4, 169906, Note_on_c, 2, 64, 69
4, 169921, Note_on_c, 2, 61, 68
4, 169939, Note_on_c, 2, 60, 0
4, 169967, Note_on_c, 2, 64, 0
4, 169992, Note_on_c, 2, 61, 0
4, 169998, Note_on_c, 2, 66, 67
4, 170003, Note_on_c, 2, 63, 67
4, 170063, Note_on_c, 2, 66, 0
4, 170090, Note_on_c, 2, 63, 0
4, 170092, Note_on_c, 2, 67, 72
4, 170103, Note_on_c, 2, 64, 66
4, 170147, Note_on_c, 2, 67, 0
4, 170182, Note_on_c, 2, 64, 0
4, 170187, Note_on_c, 2, 69, 71
4, 170189, Note_on_c, 2, 66, 43
4, 170234, Note_on_c, 2, 69, 0
4, 170273, Note_on_c, 2, 66, 0
4, 170287, Note_on_c, 2, 70, 71
4, 170291, Note_on_c, 2, 67, 63
4, 170348, Note_on_c, 2, 67, 0
4, 170352, Note_on_c, 2, 70, 0
4, 170396, Note_on_c, 2, 69, 49
4, 170439, Note_on_c, 2, 69, 0
4, 171943, Note_on_c, 2, 74, 118
4, 172038, Note_on_c, 2, 74, 0
4, 172041, Note_on_c, 2, 71, 67
4, 172083, Note_on_c, 2, 71, 0
4, 172131, Note_on_c, 2, 72, 30
4, 172191, Note_on_c, 2, 72, 0
4, 172229, Note_on_c, 2, 74, 74
4, 172286, Note_on_c, 2, 74, 0
4, 172318, Note_on_c, 2, 75, 56
4, 172384, Note_on_c, 2, 75, 0
4, 172423, Note_on_c, 2, 77, 81
4, 172495, Note_on_c, 2, 77, 0
4, 172610, Note_on_c, 2, 78, 77
4, 172786, Note_on_c, 2, 78, 0
4, 172817, Note_on_c, 2, 74, 74
4, 172867, Note_on_c, 2, 74, 0
4, 172909, Note_on_c, 2, 69, 39
4, 173141, Note_on_c, 2, 69, 0
4, 173178, Note_on_c, 2, 66, 50
4, 173251, Note_on_c, 2, 66, 0
4, 173256, Note_on_c, 2, 63, 44
4, 173383, Note_on_c, 2, 63, 0
4, 173473, Note_on_c, 2, 65, 80
4, 174024, Note_on_c, 2, 65, 0
4, 174046, Note_on_c, 2, 60, 66
4, 174108, Note_on_c, 2, 60, 0
4, 174158, Note_on_c, 2, 57, 33
4, 174198, Note_on_c, 2, 57, 0
4, 174240, Note_on_c, 2, 58, 34
4, 174373, Note_on_c, 2, 60, 62
4, 174383, Note_on_c, 2, 58, 0
4, 174531, Note_on_c, 2, 60, 0
4, 174548, Note_on_c, 2, 61, 83
4, 174652, Note_on_c, 2, 61, 0
4, 174676, Note_on_c, 2, 63, 78
4, 174794, Note_on_c, 2, 63, 0
4, 174812, Note_on_c, 2, 65, 74
4, 174934, Note_on_c, 2, 65, 0
4, 174951, Note_on_c, 2, 66, 74
4, 175062, Note_on_c, 2, 66, 0
4, 175082, Note_on_c, 2, 67, 78
4, 175178, Note_on_c, 2, 67, 0
4, 175224, Note_on_c, 2, 69, 81
4, 175319, Note_on_c, 2, 69, 0
4, 175355, Note_on_c, 2, 70, 80
4, 175456, Note_on_c, 2, 70, 0
4, 175471, Note_on_c, 2, 72, 80
4, 175567, Note_on_c, 2, 72, 0
4, 175587, Note_on_c, 2, 73, 71
4, 175648, Note_on_c, 2, 73, 0
4, 175676, Note_on_c, 2, 75, 70
4, 175732, Note_on_c, 2, 75, 0
4, 175757, Note_on_c, 2, 76, 74
4, 175810, Note_on_c, 2, 76, 0
4, 175838, Note_on_c, 2, 78, 62
4, 175888, Note_on_c, 2, 78, 0
4, 175917, Note_on_c, 2, 79, 71
4, 175988, Note_on_c, 2, 79, 0
4, 176065, Note_on_c, 2, 79, 50
4, 176086, Note_on_c, 2, 79, 0
4, 176111, Note_on_c, 2, 80, 59
4, 176164, Note_on_c, 2, 81, 59
4, 176209, Note_on_c, 2, 82, 64
4, 176210, Note_on_c, 2, 81, 0
4, 176213, Note_on_c, 2, 80, 0
4, 176334, Note_on_c, 2, 81, 54
4, 176348, Note_on_c, 2, 82, 0
4, 176384, Note_on_c, 2, 80, 55
4, 176388, Note_on_c, 2, 81, 0
4, 176448, Note_on_c, 2, 80, 0
4, 176459, Note_on_c, 2, 79, 46
4, 176590, Note_on_c, 2, 79, 0
4, 176922, Note_on_c, 2, 65, 60
4, 176930, Note_on_c, 2, 61, 34
4, 176950, Note_on_c, 2, 65, 0
4, 176959, Note_on_c, 2, 61, 0
4, 178276, Note_on_c, 2, 75, 83
4, 178376, Note_on_c, 2, 75, 0
4, 178376, Note_on_c, 2, 72, 57
4, 178430, Note_on_c, 2, 72, 0
4, 178482, Note_on_c, 2, 69, 40
4, 178536, Note_on_c, 2, 69, 0
4, 178578, Note_on_c, 2, 77, 83
4, 178658, Note_on_c, 2, 72, 50
4, 178672, Note_on_c, 2, 77, 0
4, 178747, Note_on_c, 2, 72, 0
4, 178772, Note_on_c, 2, 69, 60
4, 178803, Note_on_c, 2, 69, 0
4, 178855, Note_on_c, 2, 81, 84
4, 178953, Note_on_c, 2, 77, 54
4, 178969, Note_on_c, 2, 81, 0
4, 179036, Note_on_c, 2, 77, 0
4, 179165, Note_on_c, 2, 84, 92
4, 179260, Note_on_c, 2, 84, 0
4, 179277, Note_on_c, 2, 81, 36
4, 179334, Note_on_c, 2, 81, 0
4, 179459, Note_on_c, 2, 87, 87
4, 179539, Note_on_c, 2, 87, 0
4, 179563, Note_on_c, 2, 84, 58
4, 179637, Note_on_c, 2, 84, 0
4, 179638, Note_on_c, 2, 80, 34
4, 179736, Note_on_c, 2, 80, 0
4, 179746, Note_on_c, 2, 77, 44
4, 179791, Note_on_c, 2, 77, 0
4, 179989, Note_on_c, 2, 63, 35
4, 180008, Note_on_c, 2, 56, 23
4, 180030, Note_on_c, 2, 63, 0
4, 180039, Note_on_c, 2, 56, 0
4, 180767, Note_on_c, 2, 75, 81
4, 180873, Note_on_c, 2, 75, 0
4, 180875, Note_on_c, 2, 72, 54
4, 180918, Note_on_c, 2, 72, 0
4, 180971, Note_on_c, 2, 73, 37
4, 181019, Note_on_c, 2, 73, 0
4, 181059, Note_on_c, 2, 75, 72
4, 181109, Note_on_c, 2, 56, 15
4, 181117, Note_on_c, 2, 75, 0
4, 181141, Note_on_c, 2, 73, 61
4, 181154, Note_on_c, 2, 56, 0
4, 181159, Note_on_c, 2, 73, 0
4, 181170, Note_on_c, 2, 72, 44
4, 181233, Note_on_c, 2, 72, 0
4, 181361, Note_on_c, 2, 68, 58
4, 181406, Note_on_c, 2, 68, 0
4, 181652, Note_on_c, 2, 59, 39
4, 181677, Note_on_c, 2, 59, 0
4, 181845, Note_on_c, 2, 65, 44
4, 181868, Note_on_c, 2, 65, 0
4, 181932, Note_on_c, 2, 68, 73
4, 182004, Note_on_c, 2, 68, 0
4, 182030, Note_on_c, 2, 65, 39
4, 182056, Note_on_c, 2, 65, 0
4, 182114, Note_on_c, 2, 67, 74
4, 182337, Note_on_c, 2, 67, 0
4, 182393, Note_on_c, 2, 64, 50
4, 182460, Note_on_c, 2, 64, 0
4, 182485, Note_on_c, 2, 69, 42
4, 182541, Note_on_c, 2, 69, 0
4, 182578, Note_on_c, 2, 73, 78
4, 182641, Note_on_c, 2, 73, 0
4, 182695, Note_on_c, 2, 69, 62
4, 182766, Note_on_c, 2, 69, 0
4, 182869, Note_on_c, 2, 69, 73
4, 182956, Note_on_c, 2, 69, 0
4, 183073, Note_on_c, 2, 69, 67
4, 183140, Note_on_c, 2, 69, 0
4, 183260, Note_on_c, 2, 69, 43
4, 183333, Note_on_c, 2, 69, 0
4, 183354, Note_on_c, 2, 70, 62
4, 183397, Note_on_c, 2, 70, 0
4, 183446, Note_on_c, 2, 74, 66
4, 183499, Note_on_c, 2, 74, 0
4, 183562, Note_on_c, 2, 77, 32
4, 183589, Note_on_c, 2, 77, 0
4, 183644, Note_on_c, 2, 81, 62
4, 183700, Note_on_c, 2, 81, 0
4, 183760, Note_on_c, 2, 84, 92
4, 183818, Note_on_c, 2, 84, 0
4, 183851, Note_on_c, 2, 84, 83
4, 183913, Note_on_c, 2, 84, 0
4, 183956, Note_on_c, 2, 84, 77
4, 184011, Note_on_c, 2, 84, 0
4, 184048, Note_on_c, 2, 84, 74
4, 184105, Note_on_c, 2, 84, 0
4, 184144, Note_on_c, 2, 84, 75
4, 184204, Note_on_c, 2, 84, 0
4, 184245, Note_on_c, 2, 84, 70
4, 184351, Note_on_c, 2, 83, 56
4, 184378, Note_on_c, 2, 84, 0
4, 184392, Note_on_c, 2, 82, 56
4, 184408, Note_on_c, 2, 83, 0
4, 184443, Note_on_c, 2, 82, 0
4, 184458, Note_on_c, 2, 81, 53
4, 184528, Note_on_c, 2, 81, 0
4, 184567, Note_on_c, 2, 81, 78
4, 184769, Note_on_c, 2, 81, 0
4, 185105, Note_on_c, 2, 81, 88
4, 185213, Note_on_c, 2, 80, 46
4, 185234, Note_on_c, 2, 81, 0
4, 185254, Note_on_c, 2, 80, 0
4, 185264, Note_on_c, 2, 79, 50
4, 185327, Note_on_c, 2, 78, 60
4, 185328, Note_on_c, 2, 79, 0
4, 185375, Note_on_c, 2, 78, 0
4, 185432, Note_on_c, 2, 78, 60
4, 185496, Note_on_c, 2, 78, 0
4, 185564, Note_on_c, 2, 76, 73
4, 185609, Note_on_c, 2, 76, 0
4, 185749, Note_on_c, 2, 73, 79
4, 185823, Note_on_c, 2, 73, 0
4, 185892, Note_on_c, 2, 74, 51
4, 185895, Note_on_c, 2, 76, 24
4, 185923, Note_on_c, 2, 76, 0
4, 185962, Note_on_c, 2, 74, 0
4, 186040, Note_on_c, 2, 73, 62
4, 186103, Note_on_c, 2, 73, 0
4, 186134, Note_on_c, 2, 76, 67
4, 186334, Note_on_c, 2, 76, 0
4, 186336, Note_on_c, 2, 73, 35
4, 186404, Note_on_c, 2, 73, 0
4, 186438, Note_on_c, 2, 74, 70
4, 186603, Note_on_c, 2, 74, 0
4, 186630, Note_on_c, 2, 69, 41
4, 186658, Note_on_c, 2, 69, 0
4, 186723, Note_on_c, 2, 67, 43
4, 186892, Note_on_c, 2, 67, 0
4, 186923, Note_on_c, 2, 65, 47
4, 188426, Note_on_c, 2, 65, 0
4, 189233, Note_on_c, 2, 72, 95
4, 189323, Note_on_c, 2, 72, 0
4, 189334, Note_on_c, 2, 69, 70
4, 189368, Note_on_c, 2, 69, 0
4, 189420, Note_on_c, 2, 70, 59
4, 189486, Note_on_c, 2, 70, 0
4, 189508, Note_on_c, 2, 72, 76
4, 189579, Note_on_c, 2, 72, 0
4, 189586, Note_on_c, 2, 69, 55
4, 189676, Note_on_c, 2, 69, 0
4, 189688, Note_on_c, 2, 65, 39
4, 189726, Note_on_c, 2, 65, 0
4, 189777, Note_on_c, 2, 67, 56
4, 189843, Note_on_c, 2, 67, 0
4, 189882, Note_on_c, 2, 69, 70
4, 189952, Note_on_c, 2, 69, 0
4, 189975, Note_on_c, 2, 70, 61
4, 190032, Note_on_c, 2, 70, 0
4, 190078, Note_on_c, 2, 74, 79
4, 190135, Note_on_c, 2, 74, 0
4, 190164, Note_on_c, 2, 77, 65
4, 190210, Note_on_c, 2, 77, 0
4, 190269, Note_on_c, 2, 81, 77
4, 190316, Note_on_c, 2, 81, 0
4, 190362, Note_on_c, 2, 84, 99
4, 190416, Note_on_c, 2, 84, 0
4, 190460, Note_on_c, 2, 84, 87
4, 190540, Note_on_c, 2, 77, 76
4, 190543, Note_on_c, 2, 84, 0
4, 190581, Note_on_c, 2, 77, 0
4, 190650, Note_on_c, 2, 77, 73
4, 190700, Note_on_c, 2, 77, 0
4, 190736, Note_on_c, 2, 81, 91
4, 190805, Note_on_c, 2, 81, 0
4, 190843, Note_on_c, 2, 81, 71
4, 190930, Note_on_c, 2, 81, 0
4, 190938, Note_on_c, 2, 74, 65
4, 190988, Note_on_c, 2, 74, 0
4, 191041, Note_on_c, 2, 74, 64
4, 191090, Note_on_c, 2, 74, 0
4, 191129, Note_on_c, 2, 73, 79
4, 191168, Note_on_c, 2, 73, 0
4, 191196, Note_on_c, 2, 74, 84
4, 191254, Note_on_c, 2, 74, 0
4, 191331, Note_on_c, 2, 74, 95
4, 191483, Note_on_c, 2, 74, 0
4, 191516, Note_on_c, 2, 73, 77
4, 191556, Note_on_c, 2, 73, 0
4, 191579, Note_on_c, 2, 74, 90
4, 191647, Note_on_c, 2, 74, 0
4, 191715, Note_on_c, 2, 74, 91
4, 191853, Note_on_c, 2, 74, 0
4, 191866, Note_on_c, 2, 69, 35
4, 191889, Note_on_c, 2, 69, 0
4, 191922, Note_on_c, 2, 72, 90
4, 191995, Note_on_c, 2, 72, 0
4, 192026, Note_on_c, 2, 72, 87
4, 192099, Note_on_c, 2, 72, 0
4, 192123, Note_on_c, 2, 69, 73
4, 192185, Note_on_c, 2, 69, 0
4, 192224, Note_on_c, 2, 69, 67
4, 192287, Note_on_c, 2, 69, 0
4, 192315, Note_on_c, 2, 64, 50
4, 192371, Note_on_c, 2, 64, 0
4, 192419, Note_on_c, 2, 64, 57
4, 192472, Note_on_c, 2, 64, 0
4, 192500, Note_on_c, 2, 66, 58
4, 192536, Note_on_c, 2, 67, 75
4, 192546, Note_on_c, 2, 66, 0
4, 192987, Note_on_c, 2, 67, 0
4, 192994, Note_on_c, 2, 64, 64
4, 193018, Note_on_c, 2, 64, 0
4, 193094, Note_on_c, 2, 66, 73
4, 193144, Note_on_c, 2, 67, 78
4, 193172, Note_on_c, 2, 66, 0
4, 193236, Note_on_c, 2, 67, 0
4, 193273, Note_on_c, 2, 65, 73
4, 193389, Note_on_c, 2, 65, 0
4, 193394, Note_on_c, 2, 64, 55
4, 193451, Note_on_c, 2, 64, 0
4, 193547, Note_on_c, 2, 63, 49
4, 193600, Note_on_c, 2, 63, 0
4, 193601, Note_on_c, 2, 64, 58
4, 193688, Note_on_c, 2, 64, 0
4, 193712, Note_on_c, 2, 61, 57
4, 193808, Note_on_c, 2, 61, 0
4, 193848, Note_on_c, 2, 62, 63
4, 194029, Note_on_c, 2, 57, 63
4, 194041, Note_on_c, 2, 62, 0
4, 194115, Note_on_c, 2, 57, 0
4, 195370, Note_on_c, 2, 72, 99
4, 195462, Note_on_c, 2, 72, 0
4, 195474, Note_on_c, 2, 69, 73
4, 195559, Note_on_c, 2, 69, 0
4, 195651, Note_on_c, 2, 69, 83
4, 195724, Note_on_c, 2, 69, 0
4, 195773, Note_on_c, 2, 67, 74
4, 195941, Note_on_c, 2, 67, 0
4, 195943, Note_on_c, 2, 64, 54
4, 196007, Note_on_c, 2, 64, 0
4, 196041, Note_on_c, 2, 64, 45
4, 196178, Note_on_c, 2, 64, 0
4, 196411, Note_on_c, 2, 71, 59
4, 196431, Note_on_c, 2, 71, 0
4, 196508, Note_on_c, 2, 74, 99
4, 196607, Note_on_c, 2, 71, 68
4, 196610, Note_on_c, 2, 74, 0
4, 196680, Note_on_c, 2, 71, 0
4, 196698, Note_on_c, 2, 67, 58
4, 196768, Note_on_c, 2, 67, 0
4, 196798, Note_on_c, 2, 64, 53
4, 196854, Note_on_c, 2, 64, 0
4, 197065, Note_on_c, 2, 61, 56
4, 197078, Note_on_c, 2, 62, 79
4, 197083, Note_on_c, 2, 61, 0
4, 197343, Note_on_c, 2, 62, 0
4, 197359, Note_on_c, 2, 55, 54
4, 197413, Note_on_c, 2, 55, 0
4, 197460, Note_on_c, 2, 57, 49
4, 197536, Note_on_c, 2, 57, 0
4, 197558, Note_on_c, 2, 58, 51
4, 197619, Note_on_c, 2, 58, 0
4, 197650, Note_on_c, 2, 59, 50
4, 197706, Note_on_c, 2, 59, 0
4, 197753, Note_on_c, 2, 60, 48
4, 197820, Note_on_c, 2, 60, 0
4, 197845, Note_on_c, 2, 62, 52
4, 197922, Note_on_c, 2, 62, 0
4, 198048, Note_on_c, 2, 64, 71
4, 198141, Note_on_c, 2, 64, 0
4, 198152, Note_on_c, 2, 61, 59
4, 198204, Note_on_c, 2, 61, 0
4, 198237, Note_on_c, 2, 62, 38
4, 198310, Note_on_c, 2, 62, 0
4, 198340, Note_on_c, 2, 64, 44
4, 198357, Note_on_c, 2, 62, 29
4, 198396, Note_on_c, 2, 64, 0
4, 198420, Note_on_c, 2, 62, 0
4, 198436, Note_on_c, 2, 63, 59
4, 198512, Note_on_c, 2, 63, 0
4, 198546, Note_on_c, 2, 65, 32
4, 198608, Note_on_c, 2, 65, 0
4, 198675, Note_on_c, 2, 69, 60
4, 198739, Note_on_c, 2, 69, 0
4, 198781, Note_on_c, 2, 72, 66
4, 198869, Note_on_c, 2, 72, 0
4, 198906, Note_on_c, 2, 76, 77
4, 198998, Note_on_c, 2, 76, 0
4, 199023, Note_on_c, 2, 79, 81
4, 199118, Note_on_c, 2, 79, 0
4, 199150, Note_on_c, 2, 77, 79
4, 199244, Note_on_c, 2, 77, 0
4, 199267, Note_on_c, 2, 73, 56
4, 199353, Note_on_c, 2, 73, 0
4, 199379, Note_on_c, 2, 76, 77
4, 199467, Note_on_c, 2, 76, 0
4, 199489, Note_on_c, 2, 74, 67
4, 199569, Note_on_c, 2, 74, 0
4, 199597, Note_on_c, 2, 69, 60
4, 199762, Note_on_c, 2, 67, 61
4, 199766, Note_on_c, 2, 69, 0
4, 199885, Note_on_c, 2, 67, 0
4, 199895, Note_on_c, 2, 65, 51
4, 200789, Note_on_c, 2, 65, 0
4, 201019, Note_on_c, 2, 71, 74
4, 201021, Note_on_c, 2, 70, 37
4, 201038, Note_on_c, 2, 70, 0
4, 201060, Note_on_c, 2, 72, 74
4, 201080, Note_on_c, 2, 71, 0
4, 201111, Note_on_c, 2, 72, 0
4, 201153, Note_on_c, 2, 72, 84
4, 201305, Note_on_c, 2, 72, 0
4, 201307, Note_on_c, 2, 69, 62
4, 201359, Note_on_c, 2, 69, 0
4, 201431, Note_on_c, 2, 69, 74
4, 201545, Note_on_c, 2, 69, 0
4, 201802, Note_on_c, 2, 65, 29
4, 201825, Note_on_c, 2, 65, 0
4, 201881, Note_on_c, 2, 70, 71
4, 201920, Note_on_c, 2, 71, 78
4, 201938, Note_on_c, 2, 70, 0
4, 201963, Note_on_c, 2, 72, 81
4, 201985, Note_on_c, 2, 71, 0
4, 202032, Note_on_c, 2, 72, 0
4, 202093, Note_on_c, 2, 72, 79
4, 202158, Note_on_c, 2, 72, 0
4, 202202, Note_on_c, 2, 72, 76
4, 202279, Note_on_c, 2, 72, 0
4, 202329, Note_on_c, 2, 72, 74
4, 202420, Note_on_c, 2, 72, 0
4, 202449, Note_on_c, 2, 69, 77
4, 202509, Note_on_c, 2, 69, 0
4, 202569, Note_on_c, 2, 69, 75
4, 202623, Note_on_c, 2, 69, 0
4, 202683, Note_on_c, 2, 69, 74
4, 202773, Note_on_c, 2, 69, 0
4, 202810, Note_on_c, 2, 64, 47
4, 202869, Note_on_c, 2, 64, 0
4, 202954, Note_on_c, 2, 67, 31
4, 202955, Note_on_c, 2, 69, 31
4, 202976, Note_on_c, 2, 67, 0
4, 202977, Note_on_c, 2, 69, 0
4, 203418, Note_on_c, 2, 65, 80
4, 203531, Note_on_c, 2, 64, 60
4, 203533, Note_on_c, 2, 65, 0
4, 203571, Note_on_c, 2, 63, 49
4, 203572, Note_on_c, 2, 64, 0
4, 203639, Note_on_c, 2, 62, 44
4, 203649, Note_on_c, 2, 63, 0
4, 203705, Note_on_c, 2, 62, 0
4, 203751, Note_on_c, 2, 61, 53
4, 203809, Note_on_c, 2, 61, 0
4, 203836, Note_on_c, 2, 64, 71
4, 203923, Note_on_c, 2, 64, 0
4, 203935, Note_on_c, 2, 62, 58
4, 204004, Note_on_c, 2, 62, 0
4, 204031, Note_on_c, 2, 57, 52
4, 204091, Note_on_c, 2, 57, 0
4, 204140, Note_on_c, 2, 56, 50
4, 204174, Note_on_c, 2, 56, 0
4, 204287, Note_on_c, 2, 58, 75
4, 204388, Note_on_c, 2, 58, 0
4, 204420, Note_on_c, 2, 56, 34
4, 204481, Note_on_c, 2, 56, 0
4, 204513, Note_on_c, 2, 57, 45
4, 205052, Note_on_c, 2, 57, 0
4, 205057, Note_on_c, 2, 64, 60
4, 205107, Note_on_c, 2, 64, 0
4, 205155, Note_on_c, 2, 67, 78
4, 205203, Note_on_c, 2, 67, 0
4, 205250, Note_on_c, 2, 67, 71
4, 205335, Note_on_c, 2, 67, 0
4, 205343, Note_on_c, 2, 64, 53
4, 205388, Note_on_c, 2, 64, 0
4, 205441, Note_on_c, 2, 64, 55
4, 205491, Note_on_c, 2, 64, 0
4, 205538, Note_on_c, 2, 65, 80
4, 205599, Note_on_c, 2, 65, 0
4, 205640, Note_on_c, 2, 65, 64
4, 205714, Note_on_c, 2, 65, 0
4, 205724, Note_on_c, 2, 60, 39
4, 205793, Note_on_c, 2, 60, 0
4, 205836, Note_on_c, 2, 60, 57
4, 205896, Note_on_c, 2, 60, 0
4, 205924, Note_on_c, 2, 57, 48
4, 206010, Note_on_c, 2, 57, 0
4, 206115, Note_on_c, 2, 57, 58
4, 206198, Note_on_c, 2, 57, 0
4, 206871, Note_on_c, 2, 64, 49
4, 206903, Note_on_c, 2, 64, 0
4, 206972, Note_on_c, 2, 65, 28
4, 206994, Note_on_c, 2, 65, 0
4, 207064, Note_on_c, 2, 69, 50
4, 207093, Note_on_c, 2, 69, 0
4, 207151, Note_on_c, 2, 72, 53
4, 207193, Note_on_c, 2, 72, 0
4, 207255, Note_on_c, 2, 76, 62
4, 207339, Note_on_c, 2, 76, 0
4, 207373, Note_on_c, 2, 79, 68
4, 207446, Note_on_c, 2, 79, 0
4, 207543, Note_on_c, 2, 77, 61
4, 207588, Note_on_c, 2, 77, 0
4, 207665, Note_on_c, 2, 76, 67
4, 207776, Note_on_c, 2, 76, 0
4, 207829, Note_on_c, 2, 72, 40
4, 207879, Note_on_c, 2, 72, 0
4, 208006, Note_on_c, 2, 70, 60
4, 208094, Note_on_c, 2, 70, 0
4, 208203, Note_on_c, 2, 69, 49
4, 208250, Note_on_c, 2, 69, 0
4, 208789, Note_on_c, 2, 72, 92
4, 208852, Note_on_c, 2, 72, 0
4, 208898, Note_on_c, 2, 72, 70
4, 208989, Note_on_c, 2, 72, 0
4, 209080, Note_on_c, 2, 69, 85
4, 209129, Note_on_c, 2, 69, 0
4, 209185, Note_on_c, 2, 69, 64
4, 209335, Note_on_c, 2, 69, 0
4, 209378, Note_on_c, 2, 64, 62
4, 209455, Note_on_c, 2, 64, 0
4, 209573, Note_on_c, 2, 64, 57
4, 209896, Note_on_c, 2, 64, 0
4, 209950, Note_on_c, 2, 60, 53
4, 210078, Note_on_c, 2, 60, 0
4, 269435, Note_on_c, 2, 62, 83
4, 269468, Note_on_c, 2, 62, 0
4, 269623, Note_on_c, 2, 64, 95
4, 269661, Note_on_c, 2, 64, 0
4, 269817, Note_on_c, 2, 65, 96
4, 270165, Note_on_c, 2, 65, 0
4, 270204, Note_on_c, 2, 62, 45
4, 270247, Note_on_c, 2, 62, 0
4, 270310, Note_on_c, 2, 64, 63
4, 270337, Note_on_c, 2, 64, 0
4, 270398, Note_on_c, 2, 65, 71
4, 270514, Note_on_c, 2, 65, 0
4, 270579, Note_on_c, 2, 62, 62
4, 270708, Note_on_c, 2, 62, 0
4, 270775, Note_on_c, 2, 57, 38
4, 270868, Note_on_c, 2, 57, 0
4, 270973, Note_on_c, 2, 57, 35
4, 271582, Note_on_c, 2, 57, 0
4, 271733, Note_on_c, 2, 57, 32
4, 271773, Note_on_c, 2, 57, 0
4, 271830, Note_on_c, 2, 58, 45
4, 271876, Note_on_c, 2, 58, 0
4, 271933, Note_on_c, 2, 62, 53
4, 271999, Note_on_c, 2, 62, 0
4, 272033, Note_on_c, 2, 65, 65
4, 272103, Note_on_c, 2, 65, 0
4, 272131, Note_on_c, 2, 69, 68
4, 272205, Note_on_c, 2, 69, 0
4, 272225, Note_on_c, 2, 70, 73
4, 272261, Note_on_c, 2, 70, 0
4, 272330, Note_on_c, 2, 74, 62
4, 272395, Note_on_c, 2, 74, 0
4, 272428, Note_on_c, 2, 77, 63
4, 272497, Note_on_c, 2, 77, 0
4, 272524, Note_on_c, 2, 81, 69
4, 272597, Note_on_c, 2, 81, 0
4, 272614, Note_on_c, 2, 82, 80
4, 272694, Note_on_c, 2, 82, 0
4, 272705, Note_on_c, 2, 84, 96
4, 272814, Note_on_c, 2, 82, 78
4, 272818, Note_on_c, 2, 84, 0
4, 272893, Note_on_c, 2, 82, 0
4, 272910, Note_on_c, 2, 81, 62
4, 272992, Note_on_c, 2, 81, 0
4, 272999, Note_on_c, 2, 79, 65
4, 273082, Note_on_c, 2, 79, 0
4, 273103, Note_on_c, 2, 77, 41
4, 273169, Note_on_c, 2, 77, 0
4, 273293, Note_on_c, 2, 81, 74
4, 273455, Note_on_c, 2, 81, 0
4, 273458, Note_on_c, 2, 79, 56
4, 273539, Note_on_c, 2, 79, 0
4, 273562, Note_on_c, 2, 77, 58
4, 273634, Note_on_c, 2, 77, 0
4, 273663, Note_on_c, 2, 74, 35
4, 273807, Note_on_c, 2, 74, 0
4, 273846, Note_on_c, 2, 79, 65
4, 274015, Note_on_c, 2, 77, 47
4, 274028, Note_on_c, 2, 79, 0
4, 274096, Note_on_c, 2, 77, 0
4, 274120, Note_on_c, 2, 74, 39
4, 274206, Note_on_c, 2, 74, 0
4, 274220, Note_on_c, 2, 72, 43
4, 274372, Note_on_c, 2, 72, 0
4, 274431, Note_on_c, 2, 77, 83
4, 274596, Note_on_c, 2, 77, 0
4, 274620, Note_on_c, 2, 74, 58
4, 274710, Note_on_c, 2, 74, 0
4, 274720, Note_on_c, 2, 72, 40
4, 274792, Note_on_c, 2, 72, 0
4, 274800, Note_on_c, 2, 69, 49
4, 274965, Note_on_c, 2, 69, 0
4, 275010, Note_on_c, 2, 74, 79
4, 275192, Note_on_c, 2, 72, 51
4, 275220, Note_on_c, 2, 74, 0
4, 275268, Note_on_c, 2, 72, 0
4, 275297, Note_on_c, 2, 69, 51
4, 275385, Note_on_c, 2, 69, 0
4, 275396, Note_on_c, 2, 67, 40
4, 275568, Note_on_c, 2, 67, 0
4, 275584, Note_on_c, 2, 65, 48
4, 276008, Note_on_c, 2, 65, 0
4, 276150, Note_on_c, 2, 62, 43
4, 276214, Note_on_c, 2, 62, 0
4, 276248, Note_on_c, 2, 67, 60
4, 276315, Note_on_c, 2, 67, 0
4, 276352, Note_on_c, 2, 72, 54
4, 276425, Note_on_c, 2, 72, 0
4, 276450, Note_on_c, 2, 74, 73
4, 276522, Note_on_c, 2, 74, 0
4, 276548, Note_on_c, 2, 67, 68
4, 276592, Note_on_c, 2, 67, 0
4, 276632, Note_on_c, 2, 72, 65
4, 276729, Note_on_c, 2, 72, 0
4, 276736, Note_on_c, 2, 77, 62
4, 276822, Note_on_c, 2, 77, 0
4, 276830, Note_on_c, 2, 79, 71
4, 276892, Note_on_c, 2, 79, 0
4, 276939, Note_on_c, 2, 74, 40
4, 277019, Note_on_c, 2, 74, 0
4, 277022, Note_on_c, 2, 79, 64
4, 277110, Note_on_c, 2, 79, 0
4, 277114, Note_on_c, 2, 84, 56
4, 277195, Note_on_c, 2, 84, 0
4, 277206, Note_on_c, 2, 86, 68
4, 277282, Note_on_c, 2, 86, 0
4, 277313, Note_on_c, 2, 79, 53
4, 277390, Note_on_c, 2, 79, 0
4, 277394, Note_on_c, 2, 84, 61
4, 277452, Note_on_c, 2, 84, 0
4, 277497, Note_on_c, 2, 89, 57
4, 277582, Note_on_c, 2, 89, 0
4, 277621, Note_on_c, 2, 95, 82
4, 277658, Note_on_c, 2, 95, 0
4, 278060, Note_on_c, 2, 67, 60
4, 278107, Note_on_c, 2, 67, 0
4, 278148, Note_on_c, 2, 72, 68
4, 278198, Note_on_c, 2, 72, 0
4, 278249, Note_on_c, 2, 77, 70
4, 278325, Note_on_c, 2, 77, 0
4, 278361, Note_on_c, 2, 79, 83
4, 278424, Note_on_c, 2, 79, 0
4, 278471, Note_on_c, 2, 72, 68
4, 278550, Note_on_c, 2, 72, 0
4, 279032, Note_on_c, 2, 72, 32
4, 279064, Note_on_c, 2, 72, 0
4, 279125, Note_on_c, 2, 77, 55
4, 279198, Note_on_c, 2, 77, 0
4, 279222, Note_on_c, 2, 82, 56
4, 279269, Note_on_c, 2, 82, 0
4, 279322, Note_on_c, 2, 84, 77
4, 279375, Note_on_c, 2, 84, 0
4, 279415, Note_on_c, 2, 89, 66
4, 279504, Note_on_c, 2, 89, 0
4, 279507, Note_on_c, 2, 94, 75
4, 279576, Note_on_c, 2, 94, 0
4, 279608, Note_on_c, 2, 96, 87
4, 279703, Note_on_c, 2, 94, 71
4, 279714, Note_on_c, 2, 96, 0
4, 279780, Note_on_c, 2, 94, 0
4, 279803, Note_on_c, 2, 90, 38
4, 279867, Note_on_c, 2, 90, 0
4, 279899, Note_on_c, 2, 93, 84
4, 279991, Note_on_c, 2, 91, 55
4, 280003, Note_on_c, 2, 93, 0
4, 280085, Note_on_c, 2, 91, 0
4, 280090, Note_on_c, 2, 86, 60
4, 280161, Note_on_c, 2, 86, 0
4, 280881, Note_on_c, 2, 82, 46
4, 280896, Note_on_c, 2, 83, 68
4, 280902, Note_on_c, 2, 82, 0
4, 280935, Note_on_c, 2, 84, 79
4, 280956, Note_on_c, 2, 83, 0
4, 281015, Note_on_c, 2, 84, 0
4, 281075, Note_on_c, 2, 84, 77
4, 281140, Note_on_c, 2, 84, 0
4, 281208, Note_on_c, 2, 84, 77
4, 281290, Note_on_c, 2, 84, 0
4, 281351, Note_on_c, 2, 81, 66
4, 281489, Note_on_c, 2, 81, 0
4, 281509, Note_on_c, 2, 77, 47
4, 281992, Note_on_c, 2, 77, 0
4, 282212, Note_on_c, 2, 82, 52
4, 282220, Note_on_c, 2, 83, 73
4, 282245, Note_on_c, 2, 82, 0
4, 282255, Note_on_c, 2, 84, 77
4, 282278, Note_on_c, 2, 83, 0
4, 282327, Note_on_c, 2, 84, 0
4, 282378, Note_on_c, 2, 84, 76
4, 282448, Note_on_c, 2, 84, 0
4, 282515, Note_on_c, 2, 81, 77
4, 282637, Note_on_c, 2, 81, 0
4, 282655, Note_on_c, 2, 77, 38
4, 282759, Note_on_c, 2, 77, 0
4, 282796, Note_on_c, 2, 76, 62
4, 282856, Note_on_c, 2, 76, 0
4, 282966, Note_on_c, 2, 79, 66
4, 283022, Note_on_c, 2, 79, 0
4, 283152, Note_on_c, 2, 77, 76
4, 283234, Note_on_c, 2, 77, 0
4, 283261, Note_on_c, 2, 74, 50
4, 283384, Note_on_c, 2, 74, 0
4, 283385, Note_on_c, 2, 73, 62
4, 283434, Note_on_c, 2, 73, 0
4, 283549, Note_on_c, 2, 76, 74
4, 283614, Note_on_c, 2, 76, 0
4, 283663, Note_on_c, 2, 74, 61
4, 283739, Note_on_c, 2, 74, 0
4, 283768, Note_on_c, 2, 69, 60
4, 283801, Note_on_c, 2, 69, 0
4, 284035, Note_on_c, 2, 70, 77
4, 284153, Note_on_c, 2, 70, 0
4, 284176, Note_on_c, 2, 66, 36
4, 284201, Note_on_c, 2, 66, 0
4, 284302, Note_on_c, 2, 69, 71
4, 284381, Note_on_c, 2, 69, 0
4, 284420, Note_on_c, 2, 67, 62
4, 284495, Note_on_c, 2, 67, 0
4, 284586, Note_on_c, 2, 62, 30
4, 284682, Note_on_c, 2, 62, 0
4, 286037, Note_on_c, 2, 54, 44
4, 286079, Note_on_c, 2, 54, 0
4, 286131, Note_on_c, 2, 57, 54
4, 286190, Note_on_c, 2, 57, 0
4, 286224, Note_on_c, 2, 62, 61
4, 286308, Note_on_c, 2, 62, 0
4, 286310, Note_on_c, 2, 66, 59
4, 286356, Note_on_c, 2, 66, 0
4, 286404, Note_on_c, 2, 69, 75
4, 286484, Note_on_c, 2, 74, 76
4, 286492, Note_on_c, 2, 69, 0
4, 286567, Note_on_c, 2, 74, 0
4, 286594, Note_on_c, 2, 79, 58
4, 286640, Note_on_c, 2, 79, 0
4, 286691, Note_on_c, 2, 81, 83
4, 286772, Note_on_c, 2, 81, 0
4, 286789, Note_on_c, 2, 78, 53
4, 286853, Note_on_c, 2, 78, 0
4, 286887, Note_on_c, 2, 79, 71
4, 286983, Note_on_c, 2, 77, 62
4, 286998, Note_on_c, 2, 79, 0
4, 287046, Note_on_c, 2, 77, 0
4, 287075, Note_on_c, 2, 76, 44
4, 287168, Note_on_c, 2, 76, 0
4, 287578, Note_on_c, 2, 73, 75
4, 287631, Note_on_c, 2, 73, 0
4, 287665, Note_on_c, 2, 76, 84
4, 287773, Note_on_c, 2, 76, 0
4, 287787, Note_on_c, 2, 73, 47
4, 287827, Note_on_c, 2, 73, 0
4, 287936, Note_on_c, 2, 74, 79
4, 288041, Note_on_c, 2, 74, 0
4, 288059, Note_on_c, 2, 69, 52
4, 288125, Note_on_c, 2, 69, 0
4, 288192, Note_on_c, 2, 69, 43
4, 288302, Note_on_c, 2, 69, 0
4, 288342, Note_on_c, 2, 67, 54
4, 288405, Note_on_c, 2, 67, 0
4, 288491, Note_on_c, 2, 67, 73
4, 288567, Note_on_c, 2, 67, 0
4, 288629, Note_on_c, 2, 67, 70
4, 288753, Note_on_c, 2, 67, 0
4, 288773, Note_on_c, 2, 65, 49
4, 288840, Note_on_c, 2, 65, 0
4, 288906, Note_on_c, 2, 65, 49
4, 288968, Note_on_c, 2, 65, 0
4, 289024, Note_on_c, 2, 65, 60
4, 289126, Note_on_c, 2, 65, 0
4, 289157, Note_on_c, 2, 64, 57
4, 289226, Note_on_c, 2, 64, 0
4, 289282, Note_on_c, 2, 64, 59
4, 289349, Note_on_c, 2, 64, 0
4, 289405, Note_on_c, 2, 64, 64
4, 289500, Note_on_c, 2, 64, 0
4, 289527, Note_on_c, 2, 62, 44
4, 289579, Note_on_c, 2, 62, 0
4, 289657, Note_on_c, 2, 62, 46
4, 289729, Note_on_c, 2, 62, 0
4, 289786, Note_on_c, 2, 57, 74
4, 289841, Note_on_c, 2, 57, 0
4, 289916, Note_on_c, 2, 57, 57
4, 289986, Note_on_c, 2, 57, 0
4, 290045, Note_on_c, 2, 57, 47
4, 290125, Note_on_c, 2, 57, 0
4, 290181, Note_on_c, 2, 58, 62
4, 290640, Note_on_c, 2, 57, 59
4, 290713, Note_on_c, 2, 57, 0
4, 290730, Note_on_c, 2, 58, 0
4, 290755, Note_on_c, 2, 55, 38
4, 291115, Note_on_c, 2, 60, 69
4, 291134, Note_on_c, 2, 55, 0
4, 291199, Note_on_c, 2, 60, 0
4, 291225, Note_on_c, 2, 58, 53
4, 291327, Note_on_c, 2, 58, 0
4, 291331, Note_on_c, 2, 57, 54
4, 291647, Note_on_c, 2, 57, 0
4, 291682, Note_on_c, 2, 62, 66
4, 291780, Note_on_c, 2, 62, 0
4, 291790, Note_on_c, 2, 60, 54
4, 291871, Note_on_c, 2, 60, 0
4, 291890, Note_on_c, 2, 58, 37
4, 292027, Note_on_c, 2, 58, 0
4, 292087, Note_on_c, 2, 64, 61
4, 292162, Note_on_c, 2, 64, 0
4, 292186, Note_on_c, 2, 62, 47
4, 292262, Note_on_c, 2, 62, 0
4, 292289, Note_on_c, 2, 60, 44
4, 292411, Note_on_c, 2, 60, 0
4, 292467, Note_on_c, 2, 65, 62
4, 292549, Note_on_c, 2, 65, 0
4, 292566, Note_on_c, 2, 64, 48
4, 292649, Note_on_c, 2, 64, 0
4, 292668, Note_on_c, 2, 62, 40
4, 292780, Note_on_c, 2, 62, 0
4, 292843, Note_on_c, 2, 67, 65
4, 292933, Note_on_c, 2, 67, 0
4, 292947, Note_on_c, 2, 65, 50
4, 293024, Note_on_c, 2, 65, 0
4, 293046, Note_on_c, 2, 64, 35
4, 293171, Note_on_c, 2, 64, 0
4, 293243, Note_on_c, 2, 69, 75
4, 293330, Note_on_c, 2, 69, 0
4, 293342, Note_on_c, 2, 67, 49
4, 293421, Note_on_c, 2, 67, 0
4, 293442, Note_on_c, 2, 65, 43
4, 293529, Note_on_c, 2, 65, 0
4, 293624, Note_on_c, 2, 72, 71
4, 293742, Note_on_c, 2, 72, 0
4, 293753, Note_on_c, 2, 69, 38
4, 293831, Note_on_c, 2, 69, 0
4, 293851, Note_on_c, 2, 67, 35
4, 293952, Note_on_c, 2, 67, 0
4, 294379, Note_on_c, 2, 72, 80
4, 294465, Note_on_c, 2, 72, 0
4, 294473, Note_on_c, 2, 69, 58
4, 294553, Note_on_c, 2, 69, 0
4, 294576, Note_on_c, 2, 67, 31
4, 294620, Note_on_c, 2, 67, 0
4, 294667, Note_on_c, 2, 76, 71
4, 294758, Note_on_c, 2, 74, 61
4, 294759, Note_on_c, 2, 76, 0
4, 294839, Note_on_c, 2, 74, 0
4, 294856, Note_on_c, 2, 72, 55
4, 294890, Note_on_c, 2, 72, 0
4, 294968, Note_on_c, 2, 72, 74
4, 295065, Note_on_c, 2, 69, 64
4, 295082, Note_on_c, 2, 72, 0
4, 295162, Note_on_c, 2, 69, 0
4, 295167, Note_on_c, 2, 67, 55
4, 295204, Note_on_c, 2, 67, 0
4, 295258, Note_on_c, 2, 76, 80
4, 295358, Note_on_c, 2, 76, 0
4, 295362, Note_on_c, 2, 74, 46
4, 295391, Note_on_c, 2, 74, 0
4, 295422, Note_on_c, 2, 72, 30
4, 295473, Note_on_c, 2, 72, 0
4, 295905, Note_on_c, 2, 72, 88
4, 296004, Note_on_c, 2, 69, 70
4, 296014, Note_on_c, 2, 72, 0
4, 296084, Note_on_c, 2, 69, 0
4, 296099, Note_on_c, 2, 67, 45
4, 296154, Note_on_c, 2, 67, 0
4, 296191, Note_on_c, 2, 76, 76
4, 296282, Note_on_c, 2, 74, 60
4, 296289, Note_on_c, 2, 76, 0
4, 296361, Note_on_c, 2, 74, 0
4, 296377, Note_on_c, 2, 72, 49
4, 296441, Note_on_c, 2, 72, 0
4, 297073, Note_on_c, 2, 69, 89
4, 297168, Note_on_c, 2, 67, 69
4, 297169, Note_on_c, 2, 69, 0
4, 297250, Note_on_c, 2, 67, 0
4, 297262, Note_on_c, 2, 65, 39
4, 297306, Note_on_c, 2, 65, 0
4, 297354, Note_on_c, 2, 74, 88
4, 297438, Note_on_c, 2, 74, 0
4, 297439, Note_on_c, 2, 72, 62
4, 297529, Note_on_c, 2, 72, 0
4, 297546, Note_on_c, 2, 69, 72
4, 297610, Note_on_c, 2, 69, 0
4, 297638, Note_on_c, 2, 67, 50
4, 297668, Note_on_c, 2, 67, 0
4, 297832, Note_on_c, 2, 69, 91
4, 297925, Note_on_c, 2, 69, 0
4, 297929, Note_on_c, 2, 67, 66
4, 298000, Note_on_c, 2, 67, 0
4, 298012, Note_on_c, 2, 65, 38
4, 298063, Note_on_c, 2, 65, 0
4, 298113, Note_on_c, 2, 74, 88
4, 298197, Note_on_c, 2, 72, 58
4, 298201, Note_on_c, 2, 74, 0
4, 298260, Note_on_c, 2, 72, 0
4, 298293, Note_on_c, 2, 69, 69
4, 298353, Note_on_c, 2, 69, 0
4, 298405, Note_on_c, 2, 67, 20
4, 298444, Note_on_c, 2, 67, 0
4, 298596, Note_on_c, 2, 69, 88
4, 298680, Note_on_c, 2, 69, 0
4, 298704, Note_on_c, 2, 67, 66
4, 298761, Note_on_c, 2, 67, 0
4, 298785, Note_on_c, 2, 65, 38
4, 298847, Note_on_c, 2, 65, 0
4, 298905, Note_on_c, 2, 62, 35
4, 298932, Note_on_c, 2, 62, 0
4, 298990, Note_on_c, 2, 69, 74
4, 299081, Note_on_c, 2, 67, 54
4, 299100, Note_on_c, 2, 69, 0
4, 299152, Note_on_c, 2, 67, 0
4, 299171, Note_on_c, 2, 65, 44
4, 299246, Note_on_c, 2, 65, 0
4, 299294, Note_on_c, 2, 62, 20
4, 299328, Note_on_c, 2, 62, 0
4, 299377, Note_on_c, 2, 67, 61
4, 299382, Note_on_c, 2, 65, 61
4, 299403, Note_on_c, 2, 65, 0
4, 299472, Note_on_c, 2, 67, 0
4, 299474, Note_on_c, 2, 65, 63
4, 299555, Note_on_c, 2, 65, 0
4, 299565, Note_on_c, 2, 64, 44
4, 299644, Note_on_c, 2, 64, 0
4, 299681, Note_on_c, 2, 61, 68
4, 299728, Note_on_c, 2, 61, 0
4, 299765, Note_on_c, 2, 64, 78
4, 299859, Note_on_c, 2, 64, 0
4, 299864, Note_on_c, 2, 61, 48
4, 299910, Note_on_c, 2, 61, 0
4, 299951, Note_on_c, 2, 62, 66
4, 300028, Note_on_c, 2, 62, 0
4, 300063, Note_on_c, 2, 57, 62
4, 300118, Note_on_c, 2, 57, 0
4, 300161, Note_on_c, 2, 55, 58
4, 300233, Note_on_c, 2, 55, 0
4, 300272, Note_on_c, 2, 53, 49
4, 300313, Note_on_c, 2, 53, 0
4, 300366, Note_on_c, 2, 55, 66
4, 300442, Note_on_c, 2, 55, 0
4, 300466, Note_on_c, 2, 52, 53
4, 300492, Note_on_c, 2, 52, 0
4, 300544, Note_on_c, 2, 53, 64
4, 300619, Note_on_c, 2, 53, 0
4, 300664, Note_on_c, 2, 50, 43
4, 300687, Note_on_c, 2, 50, 0
4, 300726, Note_on_c, 2, 52, 55
4, 300816, Note_on_c, 2, 52, 0
4, 301470, Note_on_c, 2, 67, 53
4, 301482, Note_on_c, 2, 68, 61
4, 301510, Note_on_c, 2, 67, 0
4, 301516, Note_on_c, 2, 68, 0
4, 301529, Note_on_c, 2, 69, 54
4, 301559, Note_on_c, 2, 69, 0
4, 301604, Note_on_c, 2, 72, 78
4, 301661, Note_on_c, 2, 72, 0
4, 301719, Note_on_c, 2, 72, 80
4, 301788, Note_on_c, 2, 72, 0
4, 301852, Note_on_c, 2, 72, 71
4, 301928, Note_on_c, 2, 72, 0
4, 301980, Note_on_c, 2, 67, 60
4, 302000, Note_on_c, 2, 68, 60
4, 302007, Note_on_c, 2, 67, 0
4, 302029, Note_on_c, 2, 68, 0
4, 302040, Note_on_c, 2, 69, 66
4, 302095, Note_on_c, 2, 69, 0
4, 302139, Note_on_c, 2, 72, 75
4, 302213, Note_on_c, 2, 72, 0
4, 302271, Note_on_c, 2, 72, 75
4, 302359, Note_on_c, 2, 72, 0
4, 302401, Note_on_c, 2, 72, 73
4, 302490, Note_on_c, 2, 72, 0
4, 302524, Note_on_c, 2, 74, 81
4, 302626, Note_on_c, 2, 74, 0
4, 302652, Note_on_c, 2, 70, 67
4, 302724, Note_on_c, 2, 70, 0
4, 302784, Note_on_c, 2, 69, 65
4, 302891, Note_on_c, 2, 69, 0
4, 302921, Note_on_c, 2, 67, 53
4, 303014, Note_on_c, 2, 67, 0
4, 303051, Note_on_c, 2, 65, 61
4, 303780, Note_on_c, 2, 65, 0
4, 304356, Note_on_c, 2, 73, 56
4, 304426, Note_on_c, 2, 73, 0
4, 304459, Note_on_c, 2, 74, 57
4, 304528, Note_on_c, 2, 74, 0
4, 304563, Note_on_c, 2, 78, 43
4, 304606, Note_on_c, 2, 78, 0
4, 304667, Note_on_c, 2, 81, 61
4, 304722, Note_on_c, 2, 81, 0
4, 304753, Note_on_c, 2, 86, 55
4, 304822, Note_on_c, 2, 86, 0
4, 304846, Note_on_c, 2, 90, 74
4, 304908, Note_on_c, 2, 90, 0
4, 304944, Note_on_c, 2, 93, 96
4, 305001, Note_on_c, 2, 93, 0
4, 305048, Note_on_c, 2, 93, 85
4, 305106, Note_on_c, 2, 93, 0
4, 305141, Note_on_c, 2, 93, 81
4, 305213, Note_on_c, 2, 93, 0
4, 305239, Note_on_c, 2, 90, 79
4, 305284, Note_on_c, 2, 90, 0
4, 305334, Note_on_c, 2, 90, 64
4, 305380, Note_on_c, 2, 90, 0
4, 305447, Note_on_c, 2, 91, 82
4, 305501, Note_on_c, 2, 91, 0
4, 305546, Note_on_c, 2, 91, 76
4, 305621, Note_on_c, 2, 91, 0
4, 305655, Note_on_c, 2, 86, 68
4, 305709, Note_on_c, 2, 86, 0
4, 305797, Note_on_c, 2, 86, 74
4, 305864, Note_on_c, 2, 86, 0
4, 305912, Note_on_c, 2, 89, 84
4, 305997, Note_on_c, 2, 89, 0
4, 306039, Note_on_c, 2, 89, 68
4, 306131, Note_on_c, 2, 89, 0
4, 306161, Note_on_c, 2, 85, 67
4, 306224, Note_on_c, 2, 85, 0
4, 306273, Note_on_c, 2, 85, 65
4, 306363, Note_on_c, 2, 85, 0
4, 306395, Note_on_c, 2, 88, 77
4, 306465, Note_on_c, 2, 88, 0
4, 306525, Note_on_c, 2, 88, 74
4, 306627, Note_on_c, 2, 88, 0
4, 306651, Note_on_c, 2, 81, 62
4, 306734, Note_on_c, 2, 81, 0
4, 306787, Note_on_c, 2, 81, 60
4, 306895, Note_on_c, 2, 81, 0
4, 306915, Note_on_c, 2, 86, 71
4, 306999, Note_on_c, 2, 86, 0
4, 307043, Note_on_c, 2, 86, 64
4, 307166, Note_on_c, 2, 79, 52
4, 307198, Note_on_c, 2, 86, 0
4, 307247, Note_on_c, 2, 79, 0
4, 307300, Note_on_c, 2, 79, 51
4, 307413, Note_on_c, 2, 79, 0
4, 307434, Note_on_c, 2, 84, 58
4, 307498, Note_on_c, 2, 84, 0
4, 307556, Note_on_c, 2, 84, 58
4, 307686, Note_on_c, 2, 77, 46
4, 307766, Note_on_c, 2, 77, 0
4, 307772, Note_on_c, 2, 84, 0
4, 307821, Note_on_c, 2, 77, 53
4, 307921, Note_on_c, 2, 77, 0
4, 307939, Note_on_c, 2, 81, 57
4, 307976, Note_on_c, 2, 81, 0
4, 308066, Note_on_c, 2, 81, 54
4, 308147, Note_on_c, 2, 81, 0
4, 308187, Note_on_c, 2, 76, 44
4, 308261, Note_on_c, 2, 76, 0
4, 308323, Note_on_c, 2, 76, 51
4, 308428, Note_on_c, 2, 76, 0
4, 308449, Note_on_c, 2, 79, 60
4, 308513, Note_on_c, 2, 79, 0
4, 308576, Note_on_c, 2, 79, 43
4, 308684, Note_on_c, 2, 79, 0
4, 308712, Note_on_c, 2, 74, 40
4, 308780, Note_on_c, 2, 74, 0
4, 308841, Note_on_c, 2, 74, 55
4, 308963, Note_on_c, 2, 74, 0
4, 308985, Note_on_c, 2, 77, 47
4, 309057, Note_on_c, 2, 77, 0
4, 309094, Note_on_c, 2, 77, 32
4, 309225, Note_on_c, 2, 72, 44
4, 309509, Note_on_c, 2, 77, 0
4, 310053, Note_on_c, 2, 72, 0
4, 310118, Note_on_c, 2, 72, 50
4, 310183, Note_on_c, 2, 72, 0
4, 310207, Note_on_c, 2, 77, 63
4, 310286, Note_on_c, 2, 77, 0
4, 310309, Note_on_c, 2, 82, 62
4, 310351, Note_on_c, 2, 82, 0
4, 310401, Note_on_c, 2, 84, 89
4, 310485, Note_on_c, 2, 84, 0
4, 310485, Note_on_c, 2, 89, 71
4, 310581, Note_on_c, 2, 94, 77
4, 310606, Note_on_c, 2, 89, 0
4, 310675, Note_on_c, 2, 94, 0
4, 310690, Note_on_c, 2, 96, 70
4, 310721, Note_on_c, 2, 96, 0
4, 313084, Note_on_c, 2, 86, 88
4, 313126, Note_on_c, 2, 86, 0
4, 313175, Note_on_c, 2, 86, 77
4, 313267, Note_on_c, 2, 84, 74
4, 313287, Note_on_c, 2, 86, 0
4, 313365, Note_on_c, 2, 79, 49
4, 313374, Note_on_c, 2, 84, 0
4, 313443, Note_on_c, 2, 79, 0
4, 313455, Note_on_c, 2, 74, 53
4, 313482, Note_on_c, 2, 74, 0
4, 313553, Note_on_c, 2, 86, 88
4, 313652, Note_on_c, 2, 86, 0
4, 313656, Note_on_c, 2, 84, 71
4, 313735, Note_on_c, 2, 84, 0
4, 313744, Note_on_c, 2, 79, 39
4, 313831, Note_on_c, 2, 79, 0
4, 313852, Note_on_c, 2, 74, 55
4, 313890, Note_on_c, 2, 74, 0
4, 314317, Note_on_c, 2, 86, 95
4, 314412, Note_on_c, 2, 84, 80
4, 314436, Note_on_c, 2, 86, 0
4, 314502, Note_on_c, 2, 79, 42
4, 314526, Note_on_c, 2, 84, 0
4, 314598, Note_on_c, 2, 79, 0
4, 314603, Note_on_c, 2, 74, 35
4, 314666, Note_on_c, 2, 74, 0
4, 314715, Note_on_c, 2, 84, 99
4, 314809, Note_on_c, 2, 82, 72
4, 314840, Note_on_c, 2, 84, 0
4, 314899, Note_on_c, 2, 77, 45
4, 314936, Note_on_c, 2, 82, 0
4, 314994, Note_on_c, 2, 77, 0
4, 314996, Note_on_c, 2, 72, 45
4, 315056, Note_on_c, 2, 72, 0
4, 315098, Note_on_c, 2, 84, 89
4, 315199, Note_on_c, 2, 82, 67
4, 315226, Note_on_c, 2, 84, 0
4, 315292, Note_on_c, 2, 77, 55
4, 315301, Note_on_c, 2, 82, 0
4, 315367, Note_on_c, 2, 77, 0
4, 315392, Note_on_c, 2, 72, 49
4, 315484, Note_on_c, 2, 72, 0
4, 315485, Note_on_c, 2, 70, 62
4, 315603, Note_on_c, 2, 70, 0
4, 316031, Note_on_c, 2, 70, 74
4, 316115, Note_on_c, 2, 70, 0
4, 316129, Note_on_c, 2, 65, 55
4, 316185, Note_on_c, 2, 65, 0
4, 316234, Note_on_c, 2, 60, 32
4, 316300, Note_on_c, 2, 60, 0
4, 316330, Note_on_c, 2, 58, 43
4, 316355, Note_on_c, 2, 58, 0
4, 316555, Note_on_c, 2, 53, 55
4, 316586, Note_on_c, 2, 53, 0
4, 316641, Note_on_c, 2, 58, 63
4, 316723, Note_on_c, 2, 58, 0
4, 316844, Note_on_c, 2, 57, 72
4, 316935, Note_on_c, 2, 57, 0
4, 316959, Note_on_c, 2, 54, 46
4, 316996, Note_on_c, 2, 54, 0
4, 317046, Note_on_c, 2, 55, 39
4, 317126, Note_on_c, 2, 55, 0
4, 317150, Note_on_c, 2, 57, 24
4, 317207, Note_on_c, 2, 57, 0
4, 317235, Note_on_c, 2, 58, 34
4, 317273, Note_on_c, 2, 58, 0
4, 317415, Note_on_c, 2, 61, 39
4, 317475, Note_on_c, 2, 61, 0
4, 317500, Note_on_c, 2, 62, 57
4, 317555, Note_on_c, 2, 62, 0
4, 317586, Note_on_c, 2, 63, 42
4, 317652, Note_on_c, 2, 63, 0
4, 317695, Note_on_c, 2, 64, 35
4, 317733, Note_on_c, 2, 64, 0
4, 317778, Note_on_c, 2, 65, 37
4, 317833, Note_on_c, 2, 65, 0
4, 317885, Note_on_c, 2, 69, 64
4, 317955, Note_on_c, 2, 69, 0
4, 317976, Note_on_c, 2, 66, 63
4, 318022, Note_on_c, 2, 66, 0
4, 318067, Note_on_c, 2, 66, 29
4, 318088, Note_on_c, 2, 66, 0
4, 318096, Note_on_c, 2, 67, 66
4, 318186, Note_on_c, 2, 67, 0
4, 318201, Note_on_c, 2, 65, 65
4, 318883, Note_on_c, 2, 65, 0
4, 318922, Note_on_c, 2, 66, 56
4, 318953, Note_on_c, 2, 67, 64
4, 318985, Note_on_c, 2, 66, 0
4, 319043, Note_on_c, 2, 67, 0
4, 319105, Note_on_c, 2, 66, 62
4, 319146, Note_on_c, 2, 67, 65
4, 319182, Note_on_c, 2, 66, 0
4, 319248, Note_on_c, 2, 67, 0
4, 319304, Note_on_c, 2, 66, 57
4, 319347, Note_on_c, 2, 67, 68
4, 319377, Note_on_c, 2, 66, 0
4, 319500, Note_on_c, 2, 67, 0
4, 319527, Note_on_c, 2, 65, 48
4, 319596, Note_on_c, 2, 65, 0
4, 319620, Note_on_c, 2, 62, 36
4, 319667, Note_on_c, 2, 62, 0
4, 319702, Note_on_c, 2, 66, 63
4, 319765, Note_on_c, 2, 67, 60
4, 319795, Note_on_c, 2, 66, 0
4, 319867, Note_on_c, 2, 67, 0
4, 319892, Note_on_c, 2, 65, 62
4, 319969, Note_on_c, 2, 65, 0
4, 320005, Note_on_c, 2, 62, 31
4, 320052, Note_on_c, 2, 62, 0
4, 320079, Note_on_c, 2, 66, 58
4, 320139, Note_on_c, 2, 67, 54
4, 320154, Note_on_c, 2, 66, 0
4, 320244, Note_on_c, 2, 67, 0
4, 320258, Note_on_c, 2, 65, 53
4, 320332, Note_on_c, 2, 65, 0
4, 320375, Note_on_c, 2, 62, 34
4, 320408, Note_on_c, 2, 62, 0
4, 320456, Note_on_c, 2, 66, 48
4, 320518, Note_on_c, 2, 67, 49
4, 320535, Note_on_c, 2, 66, 0
4, 320629, Note_on_c, 2, 67, 0
4, 320665, Note_on_c, 2, 65, 52
4, 320741, Note_on_c, 2, 65, 0
4, 320766, Note_on_c, 2, 62, 40
4, 320818, Note_on_c, 2, 62, 0
4, 320880, Note_on_c, 2, 68, 70
4, 320925, Note_on_c, 2, 69, 57
4, 320943, Note_on_c, 2, 68, 0
4, 321022, Note_on_c, 2, 69, 0
4, 321042, Note_on_c, 2, 67, 33
4, 321116, Note_on_c, 2, 67, 0
4, 321178, Note_on_c, 2, 62, 44
4, 321216, Note_on_c, 2, 62, 0
4, 321255, Note_on_c, 2, 68, 56
4, 321332, Note_on_c, 2, 69, 73
4, 321336, Note_on_c, 2, 68, 0
4, 321415, Note_on_c, 2, 69, 0
4, 321475, Note_on_c, 2, 62, 41
4, 321508, Note_on_c, 2, 62, 0
4, 321978, Note_on_c, 2, 68, 38
4, 322023, Note_on_c, 2, 69, 66
4, 322032, Note_on_c, 2, 68, 0
4, 322163, Note_on_c, 2, 69, 0
4, 322214, Note_on_c, 2, 67, 41
4, 322276, Note_on_c, 2, 67, 0
4, 322315, Note_on_c, 2, 62, 33
4, 322352, Note_on_c, 2, 62, 0
4, 322427, Note_on_c, 2, 69, 38
4, 322450, Note_on_c, 2, 68, 53
4, 322453, Note_on_c, 2, 69, 0
4, 322521, Note_on_c, 2, 68, 0
4, 322560, Control_c, 2, 7, 127
4, 322570, Note_on_c, 2, 69, 27
4, 322606, Note_on_c, 2, 69, 0
4, 322842, Note_on_c, 2, 68, 45
4, 322899, Note_on_c, 2, 68, 0
4, 322899, Note_on_c, 2, 69, 15
4, 323032, Note_on_c, 2, 69, 0
4, 323050, Note_on_c, 2, 67, 27
4, 323079, Note_on_c, 2, 67, 0
4, 323230, Note_on_c, 2, 69, 32
4, 323686, Note_on_c, 2, 69, 0
4, 323734, Note_on_c, 2, 67, 25
4, 323867, Note_on_c, 2, 67, 0
4, 323922, Note_on_c, 2, 62, 24
4, 323928, Control_c, 2, 126, 0
4, 323928, Control_c, 2, 127, 0
4, 323928, Control_c, 2, 123, 0
4, 324442, Note_off_c, 2, 62, 0
4, 324616, MIDI_port, 0
4, 324616, System_exclusive, 8, 67, 115, 1, 17, 1, 87, 127, 247
4, 324616, MIDI_port, 0
4, 324616, MIDI_port, 0
4, 324616, System_exclusive, 8, 67, 115, 1, 17, 3, 87, 127, 247
4, 324616, MIDI_port, 0
4, 324616, MIDI_port, 0
4, 324616, System_exclusive, 8, 67, 115, 1, 17, 5, 87, 127, 247
4, 324616, MIDI_port, 0
4, 324616, MIDI_port, 0
4, 324616, System_exclusive, 8, 67, 115, 1, 17, 6, 87, 127, 247
4, 324616, MIDI_port, 0
4, 324616, MIDI_port, 0
4, 324616, System_exclusive, 8, 67, 115, 1, 17, 7, 87, 127, 247
4, 324616, MIDI_port, 0
4, 324616, MIDI_port, 0
4, 324616, System_exclusive, 8, 67, 115, 1, 17, 14, 87, 127, 247
4, 324616, MIDI_port, 0
4, 324616, End_track
5, 0, Start_track
5, 0, MIDI_port, 0
5, 0, Program_c, 3, 28
5, 0, Control_c, 3, 7, 53
5, 0, Control_c, 3, 11, 127
5, 0, Control_c, 3, 64, 0
5, 0, Control_c, 3, 67, 0
5, 0, Pitch_bend_c, 3, 8192
5, 24576, Control_c, 3, 7, 68
5, 26104, Note_on_c, 3, 64, 49
5, 26104, Note_on_c, 3, 65, 45
5, 26104, Note_on_c, 3, 69, 37
5, 26105, Note_on_c, 3, 69, 0
5, 26105, Note_on_c, 3, 65, 0
5, 26105, Note_on_c, 3, 64, 0
5, 26192, Note_on_c, 3, 64, 37
5, 26192, Note_on_c, 3, 65, 39
5, 26192, Note_on_c, 3, 69, 27
5, 26288, Note_on_c, 3, 69, 0
5, 26288, Note_on_c, 3, 65, 0
5, 26288, Note_on_c, 3, 64, 0
5, 26288, Note_on_c, 3, 62, 34
5, 26384, Note_on_c, 3, 62, 0
5, 26384, Note_on_c, 3, 62, 33
5, 26385, Note_on_c, 3, 62, 0
5, 26480, Note_on_c, 3, 64, 38
5, 26480, Note_on_c, 3, 65, 31
5, 26480, Note_on_c, 3, 69, 20
5, 26481, Note_on_c, 3, 69, 0
5, 26481, Note_on_c, 3, 65, 0
5, 26481, Note_on_c, 3, 64, 0
5, 26576, Note_on_c, 3, 69, 34
5, 26576, Note_on_c, 3, 64, 30
5, 26576, Note_on_c, 3, 65, 27
5, 26577, Note_on_c, 3, 65, 0
5, 26672, Note_on_c, 3, 64, 0
5, 26672, Note_on_c, 3, 69, 0
5, 26672, Note_on_c, 3, 62, 60
5, 26768, Note_on_c, 3, 62, 0
5, 26864, Note_on_c, 3, 64, 53
5, 26864, Note_on_c, 3, 65, 28
5, 26865, Note_on_c, 3, 65, 0
5, 26865, Note_on_c, 3, 64, 0
5, 26960, Note_on_c, 3, 69, 35
5, 26960, Note_on_c, 3, 64, 35
5, 26960, Note_on_c, 3, 65, 23
5, 26961, Note_on_c, 3, 65, 0
5, 27056, Note_on_c, 3, 64, 0
5, 27056, Note_on_c, 3, 69, 0
5, 27056, Note_on_c, 3, 62, 40
5, 27057, Note_on_c, 3, 62, 0
5, 27152, Note_on_c, 3, 64, 74
5, 27152, Note_on_c, 3, 65, 65
5, 27152, Note_on_c, 3, 69, 59
5, 27248, Note_on_c, 3, 69, 0
5, 27248, Note_on_c, 3, 65, 0
5, 27248, Note_on_c, 3, 64, 0
5, 27344, Note_on_c, 3, 64, 68
5, 27344, Note_on_c, 3, 65, 62
5, 27344, Note_on_c, 3, 69, 61
5, 27440, Note_on_c, 3, 69, 0
5, 27440, Note_on_c, 3, 65, 0
5, 27440, Note_on_c, 3, 64, 0
5, 27440, Note_on_c, 3, 62, 27
5, 27441, Note_on_c, 3, 62, 0
5, 27536, Note_on_c, 3, 65, 66
5, 27536, Note_on_c, 3, 69, 61
5, 27536, Note_on_c, 3, 64, 34
5, 27632, Note_on_c, 3, 64, 0
5, 27632, Note_on_c, 3, 69, 0
5, 27632, Note_on_c, 3, 65, 0
5, 27632, Note_on_c, 3, 64, 53
5, 27632, Note_on_c, 3, 69, 59
5, 27632, Note_on_c, 3, 65, 51
5, 27633, Note_on_c, 3, 65, 0
5, 27633, Note_on_c, 3, 64, 0
5, 27728, Note_on_c, 3, 69, 0
5, 27728, Note_on_c, 3, 65, 56
5, 27728, Note_on_c, 3, 69, 39
5, 27728, Note_on_c, 3, 64, 33
5, 27729, Note_on_c, 3, 64, 0
5, 27824, Note_on_c, 3, 65, 0
5, 27824, Note_on_c, 3, 61, 59
5, 27920, Note_on_c, 3, 61, 0
5, 27920, Note_on_c, 3, 69, 0
5, 28016, Note_on_c, 3, 69, 65
5, 28016, Note_on_c, 3, 65, 64
5, 28112, Note_on_c, 3, 65, 0
5, 28112, Note_on_c, 3, 69, 0
5, 28112, Note_on_c, 3, 61, 61
5, 28208, Note_on_c, 3, 61, 0
5, 28304, Note_on_c, 3, 69, 80
5, 28304, Note_on_c, 3, 65, 90
5, 28400, Note_on_c, 3, 65, 0
5, 28400, Note_on_c, 3, 69, 0
5, 28496, Note_on_c, 3, 69, 78
5, 28496, Note_on_c, 3, 65, 70
5, 28592, Note_on_c, 3, 65, 0
5, 28592, Note_on_c, 3, 69, 0
5, 28592, Note_on_c, 3, 61, 55
5, 28593, Note_on_c, 3, 61, 0
5, 28688, Note_on_c, 3, 61, 53
5, 28689, Note_on_c, 3, 61, 0
5, 28784, Note_on_c, 3, 65, 50
5, 28784, Note_on_c, 3, 69, 52
5, 28785, Note_on_c, 3, 69, 0
5, 28785, Note_on_c, 3, 65, 0
5, 28880, Note_on_c, 3, 65, 60
5, 28880, Note_on_c, 3, 69, 31
5, 28881, Note_on_c, 3, 69, 0
5, 28976, Note_on_c, 3, 65, 0
5, 28976, Note_on_c, 3, 61, 29
5, 28977, Note_on_c, 3, 61, 0
5, 29072, Note_on_c, 3, 65, 86
5, 29072, Note_on_c, 3, 69, 74
5, 29073, Note_on_c, 3, 69, 0
5, 29073, Note_on_c, 3, 65, 0
5, 29168, Note_on_c, 3, 69, 62
5, 29168, Note_on_c, 3, 65, 69
5, 29264, Note_on_c, 3, 65, 0
5, 29264, Note_on_c, 3, 69, 0
5, 29264, Note_on_c, 3, 69, 41
5, 29264, Note_on_c, 3, 65, 41
5, 29360, Note_on_c, 3, 65, 0
5, 29360, Note_on_c, 3, 69, 0
5, 29360, Note_on_c, 3, 60, 48
5, 29456, Note_on_c, 3, 60, 0
5, 29456, Note_on_c, 3, 60, 30
5, 29457, Note_on_c, 3, 60, 0
5, 29552, Note_on_c, 3, 65, 65
5, 29552, Note_on_c, 3, 69, 59
5, 29648, Note_on_c, 3, 69, 0
5, 29648, Note_on_c, 3, 65, 0
5, 29648, Note_on_c, 3, 69, 30
5, 29648, Note_on_c, 3, 65, 25
5, 29744, Note_on_c, 3, 65, 0
5, 29744, Note_on_c, 3, 69, 0
5, 29744, Note_on_c, 3, 60, 31
5, 29840, Note_on_c, 3, 60, 0
5, 29840, Note_on_c, 3, 65, 72
5, 29840, Note_on_c, 3, 69, 64
5, 29936, Note_on_c, 3, 69, 0
5, 29936, Note_on_c, 3, 65, 0
5, 30032, Note_on_c, 3, 69, 65
5, 30032, Note_on_c, 3, 65, 74
5, 30128, Note_on_c, 3, 65, 0
5, 30128, Note_on_c, 3, 69, 0
5, 30224, Note_on_c, 3, 60, 31
5, 30225, Note_on_c, 3, 60, 0
5, 30320, Note_on_c, 3, 65, 51
5, 30320, Note_on_c, 3, 69, 46
5, 30321, Note_on_c, 3, 69, 0
5, 30321, Note_on_c, 3, 65, 0
5, 30416, Note_on_c, 3, 69, 66
5, 30416, Note_on_c, 3, 65, 82
5, 30512, Note_on_c, 3, 65, 0
5, 30512, Note_on_c, 3, 69, 0
5, 30512, Note_on_c, 3, 60, 37
5, 30513, Note_on_c, 3, 60, 0
5, 30608, Note_on_c, 3, 60, 50
5, 30609, Note_on_c, 3, 60, 0
5, 30704, Note_on_c, 3, 65, 55
5, 30704, Note_on_c, 3, 69, 35
5, 30705, Note_on_c, 3, 69, 0
5, 30705, Note_on_c, 3, 65, 0
5, 30800, Note_on_c, 3, 65, 30
5, 30800, Note_on_c, 3, 69, 23
5, 30896, Note_on_c, 3, 69, 0
5, 30896, Note_on_c, 3, 65, 0
5, 30896, Note_on_c, 3, 59, 57
5, 30897, Note_on_c, 3, 59, 0
5, 30992, Note_on_c, 3, 59, 63
5, 30993, Note_on_c, 3, 59, 0
5, 31088, Note_on_c, 3, 59, 41
5, 31089, Note_on_c, 3, 59, 0
5, 31184, Note_on_c, 3, 65, 92
5, 31184, Note_on_c, 3, 69, 76
5, 31184, Note_on_c, 3, 67, 22
5, 31185, Note_on_c, 3, 67, 0
5, 31280, Note_on_c, 3, 69, 0
5, 31280, Note_on_c, 3, 65, 0
5, 31280, Note_on_c, 3, 59, 31
5, 31281, Note_on_c, 3, 59, 0
5, 31376, Note_on_c, 3, 59, 51
5, 31377, Note_on_c, 3, 59, 0
5, 31472, Note_on_c, 3, 69, 66
5, 31472, Note_on_c, 3, 65, 80
5, 31568, Note_on_c, 3, 65, 0
5, 31568, Note_on_c, 3, 69, 0
5, 31568, Note_on_c, 3, 59, 30
5, 31569, Note_on_c, 3, 59, 0
5, 31664, Note_on_c, 3, 59, 31
5, 31665, Note_on_c, 3, 59, 0
5, 31760, Note_on_c, 3, 65, 64
5, 31760, Note_on_c, 3, 69, 56
5, 31856, Note_on_c, 3, 69, 0
5, 31856, Note_on_c, 3, 65, 0
5, 31856, Note_on_c, 3, 59, 19
5, 31857, Note_on_c, 3, 59, 0
5, 31952, Note_on_c, 3, 59, 58
5, 31953, Note_on_c, 3, 59, 0
5, 32048, Note_on_c, 3, 59, 54
5, 32049, Note_on_c, 3, 59, 0
5, 32144, Note_on_c, 3, 57, 60
5, 32145, Note_on_c, 3, 57, 0
5, 32240, Note_on_c, 3, 58, 63
5, 32240, Note_on_c, 3, 62, 57
5, 32240, Note_on_c, 3, 65, 60
5, 32336, Note_on_c, 3, 65, 0
5, 32336, Note_on_c, 3, 62, 0
5, 32336, Note_on_c, 3, 58, 0
5, 32432, Note_on_c, 3, 58, 62
5, 32432, Note_on_c, 3, 62, 63
5, 32432, Note_on_c, 3, 65, 57
5, 32528, Note_on_c, 3, 65, 0
5, 32528, Note_on_c, 3, 62, 0
5, 32528, Note_on_c, 3, 58, 0
5, 32624, Note_on_c, 3, 57, 40
5, 32720, Note_on_c, 3, 57, 0
5, 32720, Note_on_c, 3, 58, 58
5, 32720, Note_on_c, 3, 65, 42
5, 32720, Note_on_c, 3, 62, 48
5, 32721, Note_on_c, 3, 62, 0
5, 32816, Note_on_c, 3, 65, 0
5, 32816, Note_on_c, 3, 58, 0
5, 32816, Note_on_c, 3, 57, 32
5, 32912, Note_on_c, 3, 57, 0
5, 33104, Note_on_c, 3, 62, 65
5, 33104, Note_on_c, 3, 65, 63
5, 33104, Note_on_c, 3, 58, 52
5, 33200, Note_on_c, 3, 58, 0
5, 33200, Note_on_c, 3, 65, 0
5, 33200, Note_on_c, 3, 62, 0
5, 33200, Note_on_c, 3, 57, 51
5, 33296, Note_on_c, 3, 57, 0
5, 33296, Note_on_c, 3, 57, 48
5, 33392, Note_on_c, 3, 57, 0
5, 33392, Note_on_c, 3, 58, 60
5, 33392, Note_on_c, 3, 62, 50
5, 33392, Note_on_c, 3, 65, 52
5, 33488, Note_on_c, 3, 65, 0
5, 33488, Note_on_c, 3, 62, 0
5, 33488, Note_on_c, 3, 58, 0
5, 33488, Note_on_c, 3, 65, 37
5, 33488, Note_on_c, 3, 62, 44
5, 33488, Note_on_c, 3, 58, 28
5, 33584, Note_on_c, 3, 58, 0
5, 33584, Note_on_c, 3, 62, 0
5, 33584, Note_on_c, 3, 65, 0
5, 33680, Note_on_c, 3, 69, 90
5, 33680, Note_on_c, 3, 58, 74
5, 33680, Note_on_c, 3, 62, 80
5, 33680, Note_on_c, 3, 65, 59
5, 33872, Note_on_c, 3, 69, 0
5, 33968, Note_on_c, 3, 58, 0
5, 33968, Note_on_c, 3, 62, 0
5, 33968, Note_on_c, 3, 65, 0
5, 33968, Note_on_c, 3, 58, 47
5, 33968, Note_on_c, 3, 67, 53
5, 33968, Note_on_c, 3, 62, 42
5, 33969, Note_on_c, 3, 62, 0
5, 34064, Note_on_c, 3, 67, 0
5, 34064, Note_on_c, 3, 58, 0
5, 34160, Note_on_c, 3, 58, 32
5, 34160, Note_on_c, 3, 65, 53
5, 34160, Note_on_c, 3, 62, 38
5, 34161, Note_on_c, 3, 62, 0
5, 34256, Note_on_c, 3, 65, 0
5, 34256, Note_on_c, 3, 58, 0
5, 34352, Note_on_c, 3, 58, 29
5, 34352, Note_on_c, 3, 62, 63
5, 34448, Note_on_c, 3, 62, 0
5, 34448, Note_on_c, 3, 58, 0
5, 34544, Note_on_c, 3, 58, 43
5, 34544, Note_on_c, 3, 62, 69
5, 34544, Note_on_c, 3, 65, 63
5, 34640, Note_on_c, 3, 65, 0
5, 34640, Note_on_c, 3, 62, 0
5, 34640, Note_on_c, 3, 58, 0
5, 34832, Note_on_c, 3, 62, 76
5, 34832, Note_on_c, 3, 67, 65
5, 34832, Note_on_c, 3, 58, 49
5, 35024, Note_on_c, 3, 58, 0
5, 35024, Note_on_c, 3, 67, 0
5, 35024, Note_on_c, 3, 62, 0
5, 35024, Note_on_c, 3, 65, 56
5, 35024, Note_on_c, 3, 62, 27
5, 35120, Note_on_c, 3, 62, 0
5, 35120, Note_on_c, 3, 65, 0
5, 35120, Note_on_c, 3, 58, 18
5, 35216, Note_on_c, 3, 58, 0
5, 35312, Note_on_c, 3, 64, 34
5, 35312, Note_on_c, 3, 57, 22
5, 35408, Note_on_c, 3, 57, 0
5, 35408, Note_on_c, 3, 64, 0
5, 35504, Note_on_c, 3, 60, 61
5, 35504, Note_on_c, 3, 57, 38
5, 35600, Note_on_c, 3, 57, 0
5, 35600, Note_on_c, 3, 60, 0
5, 35688, Note_on_c, 3, 72, 96
5, 35688, Note_on_c, 3, 69, 94
5, 35688, Note_on_c, 3, 64, 102
5, 35784, Note_on_c, 3, 64, 0
5, 35784, Note_on_c, 3, 69, 0
5, 35784, Note_on_c, 3, 72, 0
5, 35784, Note_on_c, 3, 64, 82
5, 35784, Note_on_c, 3, 69, 69
5, 35784, Note_on_c, 3, 72, 84
5, 35888, Note_on_c, 3, 72, 0
5, 35888, Note_on_c, 3, 69, 0
5, 35888, Note_on_c, 3, 64, 0
5, 35976, Note_on_c, 3, 69, 78
5, 35976, Note_on_c, 3, 60, 90
5, 35976, Note_on_c, 3, 64, 82
5, 36072, Note_on_c, 3, 64, 0
5, 36072, Note_on_c, 3, 60, 0
5, 36072, Note_on_c, 3, 69, 0
5, 36264, Note_on_c, 3, 57, 68
5, 36264, Note_on_c, 3, 60, 76
5, 36264, Note_on_c, 3, 64, 63
5, 36456, Note_on_c, 3, 60, 0
5, 36456, Note_on_c, 3, 57, 0
5, 36552, Note_on_c, 3, 64, 0
5, 36552, Note_on_c, 3, 60, 94
5, 36656, Note_on_c, 3, 60, 0
5, 36656, Note_on_c, 3, 57, 30
5, 36752, Note_on_c, 3, 57, 0
5, 36848, Note_on_c, 3, 62, 49
5, 36848, Note_on_c, 3, 55, 76
5, 36848, Note_on_c, 3, 58, 46
5, 36849, Note_on_c, 3, 58, 0
5, 36849, Note_on_c, 3, 55, 0
5, 36849, Note_on_c, 3, 62, 0
5, 37032, Note_on_c, 3, 58, 70
5, 37032, Note_on_c, 3, 69, 82
5, 37032, Note_on_c, 3, 62, 80
5, 37032, Note_on_c, 3, 64, 60
5, 37033, Note_on_c, 3, 64, 0
5, 37128, Note_on_c, 3, 58, 0
5, 37128, Note_on_c, 3, 69, 0
5, 37128, Note_on_c, 3, 62, 0
5, 37224, Note_on_c, 3, 58, 66
5, 37224, Note_on_c, 3, 67, 80
5, 37224, Note_on_c, 3, 62, 70
5, 37224, Note_on_c, 3, 62, 20
5, 37225, Note_on_c, 3, 62, 0
5, 37320, Note_on_c, 3, 58, 0
5, 37320, Note_on_c, 3, 67, 0
5, 37320, Note_on_c, 3, 62, 0
5, 37320, Note_on_c, 3, 64, 46
5, 37321, Note_on_c, 3, 64, 0
5, 37512, Note_on_c, 3, 70, 70
5, 37512, Note_on_c, 3, 61, 84
5, 37512, Note_on_c, 3, 66, 74
5, 37608, Note_on_c, 3, 66, 0
5, 37608, Note_on_c, 3, 61, 0
5, 37608, Note_on_c, 3, 70, 0
5, 37704, Note_on_c, 3, 58, 67
5, 37704, Note_on_c, 3, 61, 66
5, 37704, Note_on_c, 3, 69, 86
5, 37704, Note_on_c, 3, 64, 64
5, 37896, Note_on_c, 3, 69, 0
5, 37896, Note_on_c, 3, 61, 0
5, 37992, Note_on_c, 3, 58, 0
5, 37992, Note_on_c, 3, 64, 0
5, 37992, Note_on_c, 3, 58, 50
5, 37992, Note_on_c, 3, 67, 34
5, 37992, Note_on_c, 3, 61, 42
5, 37992, Note_on_c, 3, 64, 24
5, 37993, Note_on_c, 3, 64, 0
5, 37993, Note_on_c, 3, 67, 0
5, 38088, Note_on_c, 3, 61, 0
5, 38088, Note_on_c, 3, 58, 0
5, 38184, Note_on_c, 3, 58, 50
5, 38184, Note_on_c, 3, 66, 50
5, 38184, Note_on_c, 3, 61, 49
5, 38185, Note_on_c, 3, 61, 0
5, 38280, Note_on_c, 3, 66, 0
5, 38280, Note_on_c, 3, 58, 0
5, 38376, Note_on_c, 3, 65, 31
5, 38472, Note_on_c, 3, 65, 0
5, 38568, Note_on_c, 3, 65, 45
5, 38568, Note_on_c, 3, 57, 41
5, 38568, Note_on_c, 3, 64, 36
5, 38664, Note_on_c, 3, 64, 0
5, 38664, Note_on_c, 3, 57, 0
5, 38664, Note_on_c, 3, 65, 0
5, 38760, Note_on_c, 3, 64, 59
5, 38760, Note_on_c, 3, 57, 53
5, 38760, Note_on_c, 3, 65, 52
5, 38856, Note_on_c, 3, 65, 0
5, 38856, Note_on_c, 3, 57, 0
5, 38856, Note_on_c, 3, 64, 0
5, 39048, Note_on_c, 3, 64, 64
5, 39048, Note_on_c, 3, 57, 67
5, 39048, Note_on_c, 3, 65, 63
5, 39049, Note_on_c, 3, 57, 0
5, 39144, Note_on_c, 3, 65, 0
5, 39144, Note_on_c, 3, 64, 0
5, 39240, Note_on_c, 3, 65, 62
5, 39240, Note_on_c, 3, 64, 56
5, 39240, Note_on_c, 3, 57, 54
5, 39336, Note_on_c, 3, 57, 0
5, 39336, Note_on_c, 3, 64, 0
5, 39336, Note_on_c, 3, 65, 0
5, 39432, Note_on_c, 3, 64, 54
5, 39432, Note_on_c, 3, 57, 34
5, 39432, Note_on_c, 3, 65, 37
5, 39433, Note_on_c, 3, 65, 0
5, 39433, Note_on_c, 3, 57, 0
5, 39528, Note_on_c, 3, 64, 0
5, 39528, Note_on_c, 3, 64, 57
5, 39528, Note_on_c, 3, 57, 48
5, 39528, Note_on_c, 3, 65, 57
5, 39529, Note_on_c, 3, 57, 0
5, 39624, Note_on_c, 3, 65, 0
5, 39624, Note_on_c, 3, 64, 0
5, 39720, Note_on_c, 3, 65, 72
5, 39720, Note_on_c, 3, 64, 72
5, 39720, Note_on_c, 3, 57, 72
5, 39816, Note_on_c, 3, 57, 0
5, 39816, Note_on_c, 3, 64, 0
5, 39816, Note_on_c, 3, 65, 0
5, 40008, Note_on_c, 3, 61, 60
5, 40008, Note_on_c, 3, 65, 62
5, 40008, Note_on_c, 3, 57, 63
5, 40009, Note_on_c, 3, 57, 0
5, 40009, Note_on_c, 3, 61, 0
5, 40104, Note_on_c, 3, 65, 0
5, 40104, Note_on_c, 3, 65, 43
5, 40104, Note_on_c, 3, 61, 37
5, 40104, Note_on_c, 3, 57, 23
5, 40200, Note_on_c, 3, 57, 0
5, 40200, Note_on_c, 3, 61, 0
5, 40200, Note_on_c, 3, 65, 0
5, 40296, Note_on_c, 3, 65, 65
5, 40296, Note_on_c, 3, 57, 61
5, 40296, Note_on_c, 3, 61, 55
5, 40392, Note_on_c, 3, 61, 0
5, 40392, Note_on_c, 3, 57, 0
5, 40392, Note_on_c, 3, 65, 0
5, 40584, Note_on_c, 3, 61, 53
5, 40584, Note_on_c, 3, 65, 53
5, 40584, Note_on_c, 3, 57, 50
5, 40680, Note_on_c, 3, 57, 0
5, 40680, Note_on_c, 3, 65, 0
5, 40680, Note_on_c, 3, 61, 0
5, 40872, Note_on_c, 3, 65, 88
5, 40872, Note_on_c, 3, 61, 76
5, 40872, Note_on_c, 3, 57, 88
5, 40968, Note_on_c, 3, 57, 0
5, 40968, Note_on_c, 3, 61, 0
5, 40968, Note_on_c, 3, 65, 0
5, 41160, Note_on_c, 3, 61, 78
5, 41160, Note_on_c, 3, 57, 88
5, 41160, Note_on_c, 3, 65, 76
5, 41256, Note_on_c, 3, 57, 0
5, 41256, Note_on_c, 3, 61, 0
5, 41256, Note_on_c, 3, 61, 24
5, 41352, Note_on_c, 3, 61, 0
5, 41352, Note_on_c, 3, 65, 0
5, 41352, Note_on_c, 3, 61, 25
5, 41352, Note_on_c, 3, 57, 19
5, 41352, Note_on_c, 3, 65, 14
5, 41448, Note_on_c, 3, 65, 0
5, 41448, Note_on_c, 3, 57, 0
5, 41448, Note_on_c, 3, 61, 0
5, 41448, Note_on_c, 3, 57, 66
5, 41448, Note_on_c, 3, 65, 60
5, 41448, Note_on_c, 3, 60, 88
5, 41544, Note_on_c, 3, 60, 0
5, 41544, Note_on_c, 3, 65, 0
5, 41544, Note_on_c, 3, 57, 0
5, 41736, Note_on_c, 3, 57, 68
5, 41736, Note_on_c, 3, 65, 68
5, 41736, Note_on_c, 3, 60, 84
5, 41832, Note_on_c, 3, 60, 0
5, 41832, Note_on_c, 3, 65, 0
5, 41832, Note_on_c, 3, 57, 0
5, 42024, Note_on_c, 3, 60, 28
5, 42024, Note_on_c, 3, 57, 74
5, 42024, Note_on_c, 3, 60, 80
5, 42025, Note_on_c, 3, 60, 0
5, 42120, Note_on_c, 3, 60, 0
5, 42120, Note_on_c, 3, 57, 0
5, 42312, Note_on_c, 3, 65, 70
5, 42312, Note_on_c, 3, 57, 69
5, 42312, Note_on_c, 3, 60, 65
5, 42313, Note_on_c, 3, 60, 0
5, 42408, Note_on_c, 3, 57, 0
5, 42408, Note_on_c, 3, 65, 0
5, 42600, Note_on_c, 3, 57, 78
5, 42600, Note_on_c, 3, 65, 72
5, 42600, Note_on_c, 3, 60, 88
5, 42696, Note_on_c, 3, 60, 0
5, 42696, Note_on_c, 3, 65, 0
5, 42696, Note_on_c, 3, 57, 0
5, 42888, Note_on_c, 3, 65, 76
5, 42888, Note_on_c, 3, 57, 69
5, 42888, Note_on_c, 3, 59, 80
5, 42984, Note_on_c, 3, 59, 0
5, 42984, Note_on_c, 3, 57, 0
5, 42984, Note_on_c, 3, 65, 0
5, 43080, Note_on_c, 3, 57, 29
5, 43081, Note_on_c, 3, 57, 0
5, 43176, Note_on_c, 3, 57, 82
5, 43176, Note_on_c, 3, 65, 84
5, 43176, Note_on_c, 3, 59, 90
5, 43272, Note_on_c, 3, 59, 0
5, 43272, Note_on_c, 3, 65, 0
5, 43272, Note_on_c, 3, 57, 0
5, 43464, Note_on_c, 3, 64, 69
5, 43464, Note_on_c, 3, 59, 82
5, 43464, Note_on_c, 3, 57, 60
5, 43560, Note_on_c, 3, 57, 0
5, 43560, Note_on_c, 3, 59, 0
5, 43560, Note_on_c, 3, 64, 0
5, 43752, Note_on_c, 3, 62, 60
5, 43752, Note_on_c, 3, 57, 46
5, 43752, Note_on_c, 3, 59, 67
5, 43753, Note_on_c, 3, 59, 0
5, 43753, Note_on_c, 3, 57, 0
5, 43848, Note_on_c, 3, 62, 0
5, 43944, Note_on_c, 3, 57, 40
5, 44040, Note_on_c, 3, 57, 0
5, 44136, Note_on_c, 3, 62, 69
5, 44136, Note_on_c, 3, 59, 78
5, 44136, Note_on_c, 3, 57, 65
5, 44232, Note_on_c, 3, 57, 0
5, 44232, Note_on_c, 3, 59, 0
5, 44232, Note_on_c, 3, 62, 0
5, 44328, Note_on_c, 3, 57, 50
5, 44424, Note_on_c, 3, 57, 0
5, 44520, Note_on_c, 3, 57, 90
5, 44520, Note_on_c, 3, 65, 74
5, 44520, Note_on_c, 3, 58, 57
5, 44520, Note_on_c, 3, 62, 45
5, 44616, Note_on_c, 3, 62, 0
5, 44616, Note_on_c, 3, 57, 0
5, 44616, Note_on_c, 3, 65, 0
5, 44616, Note_on_c, 3, 58, 0
5, 45000, Note_on_c, 3, 69, 64
5, 45000, Note_on_c, 3, 62, 78
5, 45000, Note_on_c, 3, 58, 60
5, 45000, Note_on_c, 3, 65, 56
5, 45096, Note_on_c, 3, 65, 0
5, 45096, Note_on_c, 3, 69, 0
5, 45096, Note_on_c, 3, 62, 0
5, 45096, Note_on_c, 3, 58, 0
5, 45288, Note_on_c, 3, 58, 72
5, 45288, Note_on_c, 3, 62, 66
5, 45288, Note_on_c, 3, 65, 76
5, 45288, Note_on_c, 3, 57, 86
5, 45288, Note_on_c, 3, 64, 23
5, 45384, Note_on_c, 3, 64, 0
5, 45384, Note_on_c, 3, 65, 0
5, 45384, Note_on_c, 3, 58, 0
5, 45384, Note_on_c, 3, 62, 0
5, 45384, Note_on_c, 3, 57, 0
5, 45576, Note_on_c, 3, 58, 61
5, 45576, Note_on_c, 3, 57, 65
5, 45576, Note_on_c, 3, 62, 72
5, 45672, Note_on_c, 3, 62, 0
5, 45672, Note_on_c, 3, 57, 0
5, 45672, Note_on_c, 3, 58, 0
5, 46056, Note_on_c, 3, 61, 63
5, 46056, Note_on_c, 3, 58, 65
5, 46056, Note_on_c, 3, 55, 94
5, 46057, Note_on_c, 3, 55, 0
5, 46152, Note_on_c, 3, 58, 0
5, 46152, Note_on_c, 3, 61, 0
5, 46344, Note_on_c, 3, 61, 76
5, 46344, Note_on_c, 3, 70, 59
5, 46344, Note_on_c, 3, 66, 58
5, 46345, Note_on_c, 3, 70, 0
5, 46345, Note_on_c, 3, 61, 0
5, 46440, Note_on_c, 3, 66, 0
5, 46440, Note_on_c, 3, 70, 41
5, 46440, Note_on_c, 3, 61, 59
5, 46440, Note_on_c, 3, 66, 42
5, 46536, Note_on_c, 3, 66, 0
5, 46536, Note_on_c, 3, 61, 0
5, 46536, Note_on_c, 3, 70, 0
5, 46728, Note_on_c, 3, 69, 76
5, 46728, Note_on_c, 3, 61, 65
5, 46728, Note_on_c, 3, 64, 74
5, 46824, Note_on_c, 3, 64, 0
5, 46824, Note_on_c, 3, 61, 0
5, 46824, Note_on_c, 3, 69, 0
5, 47016, Note_on_c, 3, 61, 63
5, 47016, Note_on_c, 3, 67, 69
5, 47016, Note_on_c, 3, 58, 56
5, 47208, Note_on_c, 3, 58, 0
5, 47208, Note_on_c, 3, 67, 0
5, 47208, Note_on_c, 3, 61, 0
5, 47304, Note_on_c, 3, 58, 45
5, 47304, Note_on_c, 3, 61, 55
5, 47304, Note_on_c, 3, 64, 58
5, 47400, Note_on_c, 3, 64, 0
5, 47400, Note_on_c, 3, 58, 0
5, 47496, Note_on_c, 3, 61, 0
5, 47592, Note_on_c, 3, 57, 34
5, 47592, Note_on_c, 3, 64, 34
5, 47592, Note_on_c, 3, 60, 50
5, 47592, Note_on_c, 3, 65, 32
5, 47592, Note_on_c, 3, 67, 22
5, 47593, Note_on_c, 3, 67, 0
5, 47593, Note_on_c, 3, 60, 0
5, 47593, Note_on_c, 3, 65, 0
5, 47688, Note_on_c, 3, 64, 0
5, 47688, Note_on_c, 3, 57, 0
5, 47784, Note_on_c, 3, 65, 63
5, 47784, Note_on_c, 3, 64, 55
5, 47784, Note_on_c, 3, 57, 56
5, 47784, Note_on_c, 3, 60, 65
5, 47880, Note_on_c, 3, 60, 0
5, 47880, Note_on_c, 3, 65, 0
5, 47880, Note_on_c, 3, 64, 0
5, 47880, Note_on_c, 3, 57, 0
5, 47976, Note_on_c, 3, 57, 69
5, 47976, Note_on_c, 3, 64, 61
5, 47976, Note_on_c, 3, 65, 64
5, 47976, Note_on_c, 3, 60, 69
5, 48072, Note_on_c, 3, 60, 0
5, 48072, Note_on_c, 3, 57, 0
5, 48072, Note_on_c, 3, 64, 0
5, 48072, Note_on_c, 3, 65, 0
5, 48072, Note_on_c, 3, 57, 16
5, 48072, Note_on_c, 3, 60, 45
5, 48072, Note_on_c, 3, 64, 27
5, 48072, Note_on_c, 3, 65, 28
5, 48168, Note_on_c, 3, 65, 0
5, 48168, Note_on_c, 3, 57, 0
5, 48168, Note_on_c, 3, 60, 0
5, 48168, Note_on_c, 3, 64, 0
5, 48264, Note_on_c, 3, 60, 80
5, 48264, Note_on_c, 3, 65, 63
5, 48264, Note_on_c, 3, 64, 55
5, 48264, Note_on_c, 3, 57, 66
5, 48360, Note_on_c, 3, 57, 0
5, 48360, Note_on_c, 3, 60, 0
5, 48360, Note_on_c, 3, 65, 0
5, 48360, Note_on_c, 3, 64, 0
5, 48456, Note_on_c, 3, 65, 54
5, 48456, Note_on_c, 3, 57, 54
5, 48456, Note_on_c, 3, 60, 55
5, 48456, Note_on_c, 3, 64, 33
5, 48552, Note_on_c, 3, 64, 0
5, 48552, Note_on_c, 3, 65, 0
5, 48552, Note_on_c, 3, 57, 0
5, 48552, Note_on_c, 3, 60, 0
5, 48552, Note_on_c, 3, 57, 68
5, 48552, Note_on_c, 3, 65, 80
5, 48552, Note_on_c, 3, 64, 40
5, 48552, Note_on_c, 3, 60, 74
5, 48648, Note_on_c, 3, 60, 0
5, 48648, Note_on_c, 3, 57, 0
5, 48648, Note_on_c, 3, 65, 0
5, 48648, Note_on_c, 3, 64, 0
5, 48744, Note_on_c, 3, 65, 76
5, 48744, Note_on_c, 3, 60, 86
5, 48744, Note_on_c, 3, 64, 63
5, 48744, Note_on_c, 3, 57, 67
5, 48745, Note_on_c, 3, 57, 0
5, 48840, Note_on_c, 3, 65, 0
5, 48840, Note_on_c, 3, 60, 0
5, 48840, Note_on_c, 3, 64, 0
5, 49128, Note_on_c, 3, 74, 84
5, 49128, Note_on_c, 3, 70, 52
5, 49128, Note_on_c, 3, 67, 70
5, 49128, Note_on_c, 3, 63, 74
5, 49224, Note_on_c, 3, 63, 0
5, 49224, Note_on_c, 3, 74, 0
5, 49224, Note_on_c, 3, 70, 0
5, 49224, Note_on_c, 3, 67, 0
5, 49320, Note_on_c, 3, 63, 76
5, 49320, Note_on_c, 3, 72, 67
5, 49320, Note_on_c, 3, 67, 70
5, 49320, Note_on_c, 3, 70, 29
5, 49321, Note_on_c, 3, 70, 0
5, 49416, Note_on_c, 3, 63, 0
5, 49416, Note_on_c, 3, 72, 0
5, 49416, Note_on_c, 3, 67, 0
5, 49512, Note_on_c, 3, 71, 74
5, 49512, Note_on_c, 3, 63, 49
5, 49512, Note_on_c, 3, 67, 50
5, 49513, Note_on_c, 3, 67, 0
5, 49608, Note_on_c, 3, 63, 0
5, 49608, Note_on_c, 3, 71, 0
5, 49608, Note_on_c, 3, 63, 34
5, 49608, Note_on_c, 3, 72, 63
5, 49608, Note_on_c, 3, 71, 28
5, 49704, Note_on_c, 3, 71, 0
5, 49704, Note_on_c, 3, 72, 0
5, 49704, Note_on_c, 3, 63, 0
5, 49800, Note_on_c, 3, 66, 80
5, 49800, Note_on_c, 3, 74, 76
5, 49800, Note_on_c, 3, 62, 90
5, 49800, Note_on_c, 3, 69, 62
5, 49800, Note_on_c, 3, 72, 39
5, 49800, Note_on_c, 3, 70, 30
5, 49801, Note_on_c, 3, 70, 0
5, 49992, Note_on_c, 3, 74, 0
5, 49992, Note_on_c, 3, 62, 0
5, 49992, Note_on_c, 3, 66, 0
5, 49992, Note_on_c, 3, 72, 0
5, 49992, Note_on_c, 3, 69, 0
5, 50088, Note_on_c, 3, 72, 69
5, 50088, Note_on_c, 3, 66, 64
5, 50088, Note_on_c, 3, 62, 80
5, 50088, Note_on_c, 3, 69, 61
5, 50280, Note_on_c, 3, 69, 0
5, 50376, Note_on_c, 3, 72, 0
5, 50376, Note_on_c, 3, 66, 0
5, 50376, Note_on_c, 3, 62, 0
5, 50464, Note_on_c, 3, 66, 55
5, 50464, Note_on_c, 3, 62, 55
5, 50560, Note_on_c, 3, 62, 0
5, 50560, Note_on_c, 3, 66, 0
5, 50664, Note_on_c, 3, 61, 64
5, 50664, Note_on_c, 3, 60, 86
5, 50664, Note_on_c, 3, 65, 66
5, 50665, Note_on_c, 3, 60, 0
5, 50752, Note_on_c, 3, 65, 0
5, 50752, Note_on_c, 3, 61, 0
5, 50848, Note_on_c, 3, 61, 62
5, 50848, Note_on_c, 3, 65, 70
5, 50848, Note_on_c, 3, 60, 90
5, 50952, Note_on_c, 3, 60, 0
5, 50952, Note_on_c, 3, 65, 0
5, 50952, Note_on_c, 3, 61, 0
5, 51048, Note_on_c, 3, 61, 59
5, 51048, Note_on_c, 3, 65, 60
5, 51048, Note_on_c, 3, 58, 50
5, 51232, Note_on_c, 3, 58, 0
5, 51232, Note_on_c, 3, 65, 0
5, 51232, Note_on_c, 3, 61, 0
5, 51328, Note_on_c, 3, 61, 67
5, 51328, Note_on_c, 3, 65, 60
5, 51328, Note_on_c, 3, 57, 70
5, 51424, Note_on_c, 3, 57, 0
5, 51424, Note_on_c, 3, 65, 0
5, 51424, Note_on_c, 3, 61, 0
5, 51520, Note_on_c, 3, 65, 64
5, 51520, Note_on_c, 3, 61, 60
5, 51520, Note_on_c, 3, 57, 67
5, 51616, Note_on_c, 3, 57, 0
5, 51616, Note_on_c, 3, 61, 0
5, 51616, Note_on_c, 3, 65, 0
5, 51712, Note_on_c, 3, 65, 27
5, 51712, Note_on_c, 3, 61, 36
5, 51713, Note_on_c, 3, 61, 0
5, 51713, Note_on_c, 3, 65, 0
5, 51808, Note_on_c, 3, 61, 44
5, 51808, Note_on_c, 3, 56, 47
5, 51808, Note_on_c, 3, 65, 57
5, 51904, Note_on_c, 3, 65, 0
5, 51904, Note_on_c, 3, 56, 0
5, 51904, Note_on_c, 3, 61, 0
5, 52000, Note_on_c, 3, 56, 54
5, 52000, Note_on_c, 3, 65, 58
5, 52000, Note_on_c, 3, 61, 45
5, 52001, Note_on_c, 3, 61, 0
5, 52096, Note_on_c, 3, 65, 0
5, 52096, Note_on_c, 3, 56, 0
5, 52192, Note_on_c, 3, 61, 61
5, 52192, Note_on_c, 3, 65, 57
5, 52192, Note_on_c, 3, 55, 80
5, 52480, Note_on_c, 3, 55, 0
5, 52480, Note_on_c, 3, 65, 0
5, 52480, Note_on_c, 3, 61, 0
5, 52480, Note_on_c, 3, 65, 48
5, 52480, Note_on_c, 3, 55, 69
5, 52480, Note_on_c, 3, 61, 82
5, 52576, Note_on_c, 3, 61, 0
5, 52576, Note_on_c, 3, 55, 0
5, 52576, Note_on_c, 3, 65, 0
5, 52768, Note_on_c, 3, 61, 64
5, 52768, Note_on_c, 3, 65, 56
5, 52768, Note_on_c, 3, 55, 58
5, 52769, Note_on_c, 3, 55, 0
5, 52864, Note_on_c, 3, 65, 0
5, 52864, Note_on_c, 3, 61, 0
5, 52960, Note_on_c, 3, 66, 80
5, 52960, Note_on_c, 3, 61, 90
5, 52960, Note_on_c, 3, 55, 102
5, 53344, Note_on_c, 3, 55, 0
5, 53344, Note_on_c, 3, 61, 0
5, 53440, Note_on_c, 3, 66, 0
5, 53440, Note_on_c, 3, 61, 84
5, 53440, Note_on_c, 3, 55, 98
5, 53632, Note_on_c, 3, 55, 0
5, 53632, Note_on_c, 3, 61, 0
5, 53728, Note_on_c, 3, 65, 52
5, 53728, Note_on_c, 3, 54, 23
5, 53729, Note_on_c, 3, 54, 0
5, 53824, Note_on_c, 3, 65, 0
5, 53920, Note_on_c, 3, 54, 59
5, 53920, Note_on_c, 3, 65, 67
5, 53920, Note_on_c, 3, 58, 57
5, 53920, Note_on_c, 3, 60, 68
5, 53920, Note_on_c, 3, 63, 19
5, 54016, Note_on_c, 3, 63, 0
5, 54112, Note_on_c, 3, 60, 0
5, 54208, Note_on_c, 3, 54, 0
5, 54208, Note_on_c, 3, 65, 0
5, 54208, Note_on_c, 3, 58, 0
5, 54208, Note_on_c, 3, 58, 36
5, 54208, Note_on_c, 3, 63, 55
5, 54208, Note_on_c, 3, 54, 32
5, 54208, Note_on_c, 3, 60, 48
5, 54304, Note_on_c, 3, 60, 0
5, 54400, Note_on_c, 3, 58, 0
5, 54400, Note_on_c, 3, 63, 0
5, 54400, Note_on_c, 3, 54, 0
5, 54496, Note_on_c, 3, 65, 72
5, 54496, Note_on_c, 3, 54, 58
5, 54496, Note_on_c, 3, 58, 60
5, 54496, Note_on_c, 3, 60, 72
5, 54688, Note_on_c, 3, 60, 0
5, 54688, Note_on_c, 3, 65, 0
5, 54688, Note_on_c, 3, 54, 0
5, 54688, Note_on_c, 3, 58, 0
5, 54784, Note_on_c, 3, 54, 54
5, 54784, Note_on_c, 3, 63, 60
5, 54784, Note_on_c, 3, 58, 55
5, 54784, Note_on_c, 3, 60, 65
5, 54784, Note_on_c, 3, 60, 20
5, 54785, Note_on_c, 3, 60, 0
5, 54976, Note_on_c, 3, 58, 0
5, 54976, Note_on_c, 3, 60, 0
5, 54976, Note_on_c, 3, 54, 0
5, 55072, Note_on_c, 3, 63, 0
5, 55072, Note_on_c, 3, 58, 16
5, 55072, Note_on_c, 3, 54, 27
5, 55072, Note_on_c, 3, 60, 52
5, 55073, Note_on_c, 3, 60, 0
5, 55168, Note_on_c, 3, 54, 0
5, 55168, Note_on_c, 3, 58, 0
5, 55456, Note_on_c, 3, 54, 52
5, 55456, Note_on_c, 3, 65, 64
5, 55456, Note_on_c, 3, 58, 56
5, 55456, Note_on_c, 3, 60, 65
5, 55648, Note_on_c, 3, 60, 0
5, 55648, Note_on_c, 3, 54, 0
5, 55648, Note_on_c, 3, 65, 0
5, 55648, Note_on_c, 3, 58, 0
5, 55744, Note_on_c, 3, 58, 52
5, 55744, Note_on_c, 3, 54, 31
5, 55744, Note_on_c, 3, 63, 31
5, 55840, Note_on_c, 3, 63, 0
5, 55840, Note_on_c, 3, 54, 0
5, 55840, Note_on_c, 3, 58, 0
5, 56224, Note_on_c, 3, 54, 76
5, 56224, Note_on_c, 3, 65, 88
5, 56224, Note_on_c, 3, 69, 76
5, 56224, Note_on_c, 3, 60, 94
5, 56320, Note_on_c, 3, 60, 0
5, 56320, Note_on_c, 3, 54, 0
5, 56320, Note_on_c, 3, 65, 0
5, 56320, Note_on_c, 3, 69, 0
5, 56512, Note_on_c, 3, 54, 78
5, 56512, Note_on_c, 3, 69, 72
5, 56512, Note_on_c, 3, 65, 84
5, 56512, Note_on_c, 3, 60, 76
5, 56704, Note_on_c, 3, 60, 0
5, 56704, Note_on_c, 3, 54, 0
5, 56704, Note_on_c, 3, 69, 0
5, 56704, Note_on_c, 3, 65, 0
5, 56800, Note_on_c, 3, 68, 55
5, 56800, Note_on_c, 3, 65, 58
5, 56800, Note_on_c, 3, 60, 64
5, 56800, Note_on_c, 3, 53, 62
5, 56801, Note_on_c, 3, 60, 0
5, 56896, Note_on_c, 3, 68, 0
5, 56896, Note_on_c, 3, 65, 0
5, 56896, Note_on_c, 3, 53, 0
5, 56992, Note_on_c, 3, 68, 66
5, 56992, Note_on_c, 3, 65, 69
5, 56992, Note_on_c, 3, 60, 76
5, 56992, Note_on_c, 3, 53, 74
5, 57184, Note_on_c, 3, 53, 0
5, 57184, Note_on_c, 3, 68, 0
5, 57184, Note_on_c, 3, 65, 0
5, 57184, Note_on_c, 3, 60, 0
5, 57280, Note_on_c, 3, 68, 61
5, 57280, Note_on_c, 3, 65, 65
5, 57280, Note_on_c, 3, 60, 70
5, 57280, Note_on_c, 3, 53, 70
5, 57280, Note_on_c, 3, 66, 18
5, 57376, Note_on_c, 3, 66, 0
5, 57376, Note_on_c, 3, 60, 0
5, 57376, Note_on_c, 3, 68, 0
5, 57376, Note_on_c, 3, 65, 0
5, 57376, Note_on_c, 3, 53, 0
5, 57568, Note_on_c, 3, 68, 54
5, 57568, Note_on_c, 3, 65, 65
5, 57568, Note_on_c, 3, 53, 82
5, 57568, Note_on_c, 3, 60, 80
5, 57760, Note_on_c, 3, 60, 0
5, 57760, Note_on_c, 3, 68, 0
5, 57760, Note_on_c, 3, 65, 0
5, 57760, Note_on_c, 3, 53, 0
5, 57856, Note_on_c, 3, 68, 62
5, 57856, Note_on_c, 3, 65, 76
5, 57856, Note_on_c, 3, 53, 88
5, 57856, Note_on_c, 3, 60, 98
5, 57952, Note_on_c, 3, 53, 0
5, 58048, Note_on_c, 3, 60, 0
5, 58144, Note_on_c, 3, 65, 0
5, 58144, Note_on_c, 3, 68, 0
5, 58144, Note_on_c, 3, 60, 54
5, 58145, Note_on_c, 3, 60, 0
5, 58336, Note_on_c, 3, 64, 68
5, 58336, Note_on_c, 3, 53, 84
5, 58336, Note_on_c, 3, 59, 64
5, 58337, Note_on_c, 3, 53, 0
5, 58432, Note_on_c, 3, 59, 0
5, 58432, Note_on_c, 3, 64, 0
5, 58528, Note_on_c, 3, 64, 80
5, 58528, Note_on_c, 3, 59, 98
5, 58528, Note_on_c, 3, 53, 82
5, 58624, Note_on_c, 3, 53, 0
5, 58624, Note_on_c, 3, 59, 0
5, 58624, Note_on_c, 3, 64, 0
5, 58816, Note_on_c, 3, 64, 72
5, 58816, Note_on_c, 3, 53, 66
5, 58816, Note_on_c, 3, 59, 74
5, 58817, Note_on_c, 3, 53, 0
5, 58912, Note_on_c, 3, 59, 0
5, 58912, Note_on_c, 3, 64, 0
5, 59104, Note_on_c, 3, 64, 69
5, 59104, Note_on_c, 3, 53, 92
5, 59104, Note_on_c, 3, 61, 51
5, 59104, Note_on_c, 3, 57, 65
5, 59104, Note_on_c, 3, 62, 48
5, 59105, Note_on_c, 3, 62, 0
5, 59105, Note_on_c, 3, 53, 0
5, 59200, Note_on_c, 3, 64, 0
5, 59200, Note_on_c, 3, 61, 0
5, 59200, Note_on_c, 3, 57, 0
5, 59392, Note_on_c, 3, 64, 74
5, 59392, Note_on_c, 3, 56, 56
5, 59392, Note_on_c, 3, 59, 84
5, 59392, Note_on_c, 3, 53, 76
5, 59392, Note_on_c, 3, 62, 26
5, 59393, Note_on_c, 3, 62, 0
5, 59584, Note_on_c, 3, 59, 0
5, 59584, Note_on_c, 3, 53, 0
5, 59584, Note_on_c, 3, 64, 0
5, 59680, Note_on_c, 3, 56, 0
5, 59680, Note_on_c, 3, 53, 33
5, 59680, Note_on_c, 3, 62, 30
5, 59681, Note_on_c, 3, 62, 0
5, 59681, Note_on_c, 3, 53, 0
5, 59872, Note_on_c, 3, 58, 82
5, 59872, Note_on_c, 3, 69, 80
5, 59872, Note_on_c, 3, 62, 84
5, 59872, Note_on_c, 3, 65, 68
5, 60064, Note_on_c, 3, 65, 0
5, 60064, Note_on_c, 3, 58, 0
5, 60064, Note_on_c, 3, 69, 0
5, 60064, Note_on_c, 3, 62, 0
5, 60160, Note_on_c, 3, 58, 63
5, 60160, Note_on_c, 3, 62, 69
5, 60160, Note_on_c, 3, 67, 67
5, 60256, Note_on_c, 3, 62, 0
5, 60352, Note_on_c, 3, 67, 0
5, 60352, Note_on_c, 3, 58, 0
5, 60448, Note_on_c, 3, 66, 64
5, 60448, Note_on_c, 3, 58, 61
5, 60448, Note_on_c, 3, 62, 80
5, 60640, Note_on_c, 3, 62, 0
5, 60736, Note_on_c, 3, 58, 0
5, 60736, Note_on_c, 3, 66, 0
5, 60736, Note_on_c, 3, 62, 67
5, 60736, Note_on_c, 3, 58, 61
5, 60736, Note_on_c, 3, 67, 78
5, 60928, Note_on_c, 3, 58, 0
5, 61024, Note_on_c, 3, 67, 0
5, 61024, Note_on_c, 3, 62, 0
5, 61024, Note_on_c, 3, 66, 42
5, 61024, Note_on_c, 3, 62, 19
5, 61024, Note_on_c, 3, 58, 23
5, 61120, Note_on_c, 3, 58, 0
5, 61120, Note_on_c, 3, 62, 0
5, 61120, Note_on_c, 3, 66, 0
5, 61216, Note_on_c, 3, 58, 32
5, 61216, Note_on_c, 3, 67, 55
5, 61312, Note_on_c, 3, 67, 0
5, 61312, Note_on_c, 3, 58, 0
5, 61408, Note_on_c, 3, 58, 54
5, 61408, Note_on_c, 3, 64, 72
5, 61408, Note_on_c, 3, 55, 98
5, 61408, Note_on_c, 3, 61, 55
5, 61408, Note_on_c, 3, 45, 57
5, 61409, Note_on_c, 3, 55, 0
5, 61504, Note_on_c, 3, 61, 0
5, 61504, Note_on_c, 3, 58, 0
5, 61504, Note_on_c, 3, 64, 0
5, 61504, Note_on_c, 3, 45, 0
5, 61696, Note_on_c, 3, 63, 67
5, 61696, Note_on_c, 3, 58, 67
5, 61696, Note_on_c, 3, 55, 88
5, 61696, Note_on_c, 3, 45, 69
5, 61696, Note_on_c, 3, 60, 29
5, 61697, Note_on_c, 3, 60, 0
5, 61697, Note_on_c, 3, 55, 0
5, 61792, Note_on_c, 3, 63, 0
5, 61792, Note_on_c, 3, 58, 0
5, 61792, Note_on_c, 3, 45, 0
5, 61984, Note_on_c, 3, 63, 69
5, 61984, Note_on_c, 3, 58, 68
5, 61984, Note_on_c, 3, 55, 100
5, 61984, Note_on_c, 3, 61, 60
5, 61984, Note_on_c, 3, 45, 76
5, 62464, Note_on_c, 3, 45, 0
5, 62464, Note_on_c, 3, 55, 0
5, 62464, Note_on_c, 3, 63, 0
5, 62464, Note_on_c, 3, 58, 0
5, 62464, Note_on_c, 3, 61, 0
5, 62560, Note_on_c, 3, 61, 45
5, 62560, Note_on_c, 3, 58, 56
5, 62560, Note_on_c, 3, 65, 68
5, 62560, Note_on_c, 3, 55, 80
5, 62560, Note_on_c, 3, 45, 54
5, 62752, Note_on_c, 3, 45, 0
5, 62752, Note_on_c, 3, 65, 0
5, 62752, Note_on_c, 3, 61, 0
5, 62752, Note_on_c, 3, 58, 0
5, 62752, Note_on_c, 3, 55, 0
5, 62944, Note_on_c, 3, 69, 66
5, 62944, Note_on_c, 3, 64, 65
5, 62944, Note_on_c, 3, 65, 62
5, 62945, Note_on_c, 3, 65, 0
5, 62945, Note_on_c, 3, 64, 0
5, 62945, Note_on_c, 3, 69, 0
5, 63040, Note_on_c, 3, 64, 35
5, 63040, Note_on_c, 3, 65, 41
5, 63040, Note_on_c, 3, 69, 40
5, 63041, Note_on_c, 3, 69, 0
5, 63041, Note_on_c, 3, 65, 0
5, 63041, Note_on_c, 3, 64, 0
5, 63136, Note_on_c, 3, 62, 15
5, 63137, Note_on_c, 3, 62, 0
5, 63328, Note_on_c, 3, 69, 68
5, 63328, Note_on_c, 3, 64, 64
5, 63328, Note_on_c, 3, 65, 65
5, 63520, Note_on_c, 3, 65, 0
5, 63520, Note_on_c, 3, 64, 0
5, 63520, Note_on_c, 3, 69, 0
5, 63520, Note_on_c, 3, 62, 51
5, 63616, Note_on_c, 3, 62, 0
5, 63712, Note_on_c, 3, 69, 63
5, 63712, Note_on_c, 3, 64, 65
5, 63712, Note_on_c, 3, 65, 55
5, 63713, Note_on_c, 3, 65, 0
5, 63808, Note_on_c, 3, 64, 0
5, 63808, Note_on_c, 3, 69, 0
5, 63904, Note_on_c, 3, 64, 67
5, 63904, Note_on_c, 3, 69, 55
5, 63904, Note_on_c, 3, 65, 59
5, 63905, Note_on_c, 3, 69, 0
5, 64000, Note_on_c, 3, 65, 0
5, 64000, Note_on_c, 3, 64, 0
5, 64096, Note_on_c, 3, 69, 68
5, 64096, Note_on_c, 3, 64, 66
5, 64096, Note_on_c, 3, 65, 64
5, 64192, Note_on_c, 3, 65, 0
5, 64192, Note_on_c, 3, 64, 0
5, 64192, Note_on_c, 3, 69, 0
5, 64192, Note_on_c, 3, 64, 52
5, 64288, Note_on_c, 3, 64, 0
5, 64288, Note_on_c, 3, 60, 27
5, 64288, Note_on_c, 3, 62, 25
5, 64384, Note_on_c, 3, 62, 0
5, 64384, Note_on_c, 3, 60, 0
5, 64480, Note_on_c, 3, 62, 76
5, 64480, Note_on_c, 3, 69, 78
5, 64480, Note_on_c, 3, 74, 48
5, 64480, Note_on_c, 3, 72, 46
5, 64481, Note_on_c, 3, 72, 0
5, 64576, Note_on_c, 3, 62, 0
5, 64576, Note_on_c, 3, 69, 0
5, 64576, Note_on_c, 3, 74, 0
5, 64856, Note_on_c, 3, 73, 69
5, 64856, Note_on_c, 3, 61, 84
5, 64856, Note_on_c, 3, 76, 96
5, 64856, Note_on_c, 3, 65, 98
5, 64856, Note_on_c, 3, 69, 69
5, 64856, Note_on_c, 3, 74, 23
5, 64960, Note_on_c, 3, 74, 0
5, 65056, Note_on_c, 3, 65, 0
5, 65056, Note_on_c, 3, 73, 0
5, 65056, Note_on_c, 3, 69, 0
5, 65144, Note_on_c, 3, 76, 0
5, 65240, Note_on_c, 3, 61, 0
5, 65240, Note_on_c, 3, 60, 96
5, 65240, Note_on_c, 3, 74, 84
5, 65240, Note_on_c, 3, 69, 92
5, 65240, Note_on_c, 3, 65, 94
5, 65432, Note_on_c, 3, 65, 0
5, 65432, Note_on_c, 3, 69, 0
5, 65432, Note_on_c, 3, 74, 0
5, 65528, Note_on_c, 3, 60, 0
5, 65528, Note_on_c, 3, 74, 67
5, 65528, Note_on_c, 3, 67, 100
5, 65528, Note_on_c, 3, 59, 100
5, 65528, Note_on_c, 3, 71, 63
5, 65528, Note_on_c, 3, 72, 21
5, 65529, Note_on_c, 3, 72, 0
5, 65816, Note_on_c, 3, 59, 0
5, 65816, Note_on_c, 3, 74, 0
5, 65816, Note_on_c, 3, 67, 0
5, 65816, Note_on_c, 3, 71, 0
5, 66008, Note_on_c, 3, 72, 68
5, 66008, Note_on_c, 3, 70, 53
5, 66008, Note_on_c, 3, 65, 60
5, 66008, Note_on_c, 3, 62, 74
5, 66008, Note_on_c, 3, 68, 45
5, 66008, Note_on_c, 3, 55, 94
5, 66009, Note_on_c, 3, 55, 0
5, 66009, Note_on_c, 3, 62, 0
5, 66009, Note_on_c, 3, 65, 0
5, 66009, Note_on_c, 3, 68, 0
5, 66104, Note_on_c, 3, 72, 0
5, 66104, Note_on_c, 3, 70, 0
5, 66200, Note_on_c, 3, 70, 56
5, 66200, Note_on_c, 3, 72, 70
5, 66200, Note_on_c, 3, 65, 57
5, 66200, Note_on_c, 3, 62, 90
5, 66200, Note_on_c, 3, 64, 70
5, 66200, Note_on_c, 3, 68, 42
5, 66200, Note_on_c, 3, 55, 94
5, 66201, Note_on_c, 3, 68, 0
5, 66201, Note_on_c, 3, 64, 0
5, 66296, Note_on_c, 3, 72, 0
5, 66296, Note_on_c, 3, 65, 0
5, 66296, Note_on_c, 3, 62, 0
5, 66296, Note_on_c, 3, 55, 0
5, 66392, Note_on_c, 3, 70, 0
5, 66488, Note_on_c, 3, 55, 110
5, 66488, Note_on_c, 3, 62, 92
5, 66488, Note_on_c, 3, 72, 70
5, 66488, Note_on_c, 3, 70, 55
5, 66488, Note_on_c, 3, 65, 72
5, 66488, Note_on_c, 3, 68, 32
5, 66489, Note_on_c, 3, 68, 0
5, 66584, Note_on_c, 3, 62, 0
5, 66584, Note_on_c, 3, 72, 0
5, 66584, Note_on_c, 3, 55, 0
5, 66584, Note_on_c, 3, 65, 0
5, 66584, Note_on_c, 3, 70, 0
5, 66968, Note_on_c, 3, 66, 19
5, 67064, Note_on_c, 3, 66, 0
5, 67160, Note_on_c, 3, 55, 80
5, 67160, Note_on_c, 3, 70, 49
5, 67160, Note_on_c, 3, 72, 65
5, 67160, Note_on_c, 3, 62, 78
5, 67160, Note_on_c, 3, 65, 54
5, 67160, Note_on_c, 3, 68, 26
5, 67161, Note_on_c, 3, 68, 0
5, 67256, Note_on_c, 3, 70, 0
5, 67256, Note_on_c, 3, 72, 0
5, 67256, Note_on_c, 3, 55, 0
5, 67256, Note_on_c, 3, 65, 0
5, 67256, Note_on_c, 3, 62, 0
5, 67256, Note_on_c, 3, 72, 62
5, 67256, Note_on_c, 3, 62, 60
5, 67256, Note_on_c, 3, 55, 65
5, 67256, Note_on_c, 3, 65, 50
5, 67256, Note_on_c, 3, 70, 21
5, 67256, Note_on_c, 3, 68, 18
5, 67257, Note_on_c, 3, 68, 0
5, 67257, Note_on_c, 3, 62, 0
5, 67257, Note_on_c, 3, 70, 0
5, 67352, Note_on_c, 3, 72, 0
5, 67352, Note_on_c, 3, 65, 0
5, 67352, Note_on_c, 3, 55, 0
5, 67352, Note_on_c, 3, 54, 41
5, 67448, Note_on_c, 3, 54, 0
5, 67544, Note_on_c, 3, 55, 94
5, 67544, Note_on_c, 3, 72, 64
5, 67544, Note_on_c, 3, 70, 47
5, 67544, Note_on_c, 3, 65, 66
5, 67544, Note_on_c, 3, 62, 76
5, 67544, Note_on_c, 3, 68, 23
5, 67545, Note_on_c, 3, 68, 0
5, 67640, Note_on_c, 3, 72, 0
5, 67640, Note_on_c, 3, 70, 0
5, 67640, Note_on_c, 3, 55, 0
5, 67640, Note_on_c, 3, 62, 0
5, 67640, Note_on_c, 3, 65, 0
5, 67832, Note_on_c, 3, 62, 78
5, 67832, Note_on_c, 3, 72, 67
5, 67832, Note_on_c, 3, 70, 42
5, 67832, Note_on_c, 3, 55, 94
5, 67832, Note_on_c, 3, 65, 59
5, 67832, Note_on_c, 3, 68, 31
5, 67833, Note_on_c, 3, 68, 0
5, 67928, Note_on_c, 3, 72, 0
5, 67928, Note_on_c, 3, 70, 0
5, 67928, Note_on_c, 3, 62, 0
5, 67928, Note_on_c, 3, 65, 0
5, 67928, Note_on_c, 3, 55, 0
5, 68120, Note_on_c, 3, 55, 100
5, 68120, Note_on_c, 3, 72, 74
5, 68120, Note_on_c, 3, 62, 90
5, 68120, Note_on_c, 3, 70, 35
5, 68120, Note_on_c, 3, 65, 67
5, 68120, Note_on_c, 3, 68, 28
5, 68121, Note_on_c, 3, 68, 0
5, 68216, Note_on_c, 3, 72, 0
5, 68216, Note_on_c, 3, 62, 0
5, 68216, Note_on_c, 3, 55, 0
5, 68216, Note_on_c, 3, 65, 0
5, 68216, Note_on_c, 3, 70, 0
5, 68408, Note_on_c, 3, 54, 32
5, 68504, Note_on_c, 3, 54, 0
5, 68504, Note_on_c, 3, 62, 66
5, 68504, Note_on_c, 3, 72, 51
5, 68504, Note_on_c, 3, 65, 51
5, 68504, Note_on_c, 3, 70, 30
5, 68504, Note_on_c, 3, 55, 94
5, 68504, Note_on_c, 3, 68, 16
5, 68505, Note_on_c, 3, 68, 0
5, 68600, Note_on_c, 3, 72, 0
5, 68600, Note_on_c, 3, 65, 0
5, 68600, Note_on_c, 3, 62, 0
5, 68600, Note_on_c, 3, 55, 0
5, 68600, Note_on_c, 3, 70, 0
5, 68696, Note_on_c, 3, 72, 70
5, 68696, Note_on_c, 3, 65, 69
5, 68696, Note_on_c, 3, 70, 36
5, 68696, Note_on_c, 3, 55, 104
5, 68696, Note_on_c, 3, 62, 80
5, 68696, Note_on_c, 3, 68, 33
5, 68697, Note_on_c, 3, 68, 0
5, 68792, Note_on_c, 3, 65, 0
5, 68792, Note_on_c, 3, 70, 0
5, 68792, Note_on_c, 3, 72, 0
5, 68792, Note_on_c, 3, 62, 0
5, 68792, Note_on_c, 3, 55, 0
5, 69080, Note_on_c, 3, 65, 84
5, 69080, Note_on_c, 3, 64, 88
5, 69080, Note_on_c, 3, 69, 68
5, 69080, Note_on_c, 3, 50, 61
5, 69080, Note_on_c, 3, 57, 43
5, 69176, Note_on_c, 3, 57, 0
5, 69176, Note_on_c, 3, 69, 0
5, 69176, Note_on_c, 3, 65, 0
5, 69176, Note_on_c, 3, 64, 0
5, 69176, Note_on_c, 3, 50, 0
5, 69176, Note_on_c, 3, 65, 49
5, 69176, Note_on_c, 3, 64, 31
5, 69272, Note_on_c, 3, 64, 0
5, 69272, Note_on_c, 3, 65, 0
5, 69272, Note_on_c, 3, 50, 15
5, 69272, Note_on_c, 3, 62, 17
5, 69368, Note_on_c, 3, 62, 0
5, 69368, Note_on_c, 3, 50, 0
5, 69464, Note_on_c, 3, 64, 72
5, 69464, Note_on_c, 3, 65, 72
5, 69464, Note_on_c, 3, 69, 68
5, 69464, Note_on_c, 3, 57, 51
5, 69464, Note_on_c, 3, 50, 50
5, 69560, Note_on_c, 3, 50, 0
5, 69560, Note_on_c, 3, 69, 0
5, 69560, Note_on_c, 3, 64, 0
5, 69560, Note_on_c, 3, 65, 0
5, 69560, Note_on_c, 3, 57, 0
5, 70616, Note_on_c, 3, 50, 92
5, 70616, Note_on_c, 3, 65, 88
5, 70616, Note_on_c, 3, 62, 86
5, 70616, Note_on_c, 3, 57, 88
5, 70808, Note_on_c, 3, 57, 0
5, 70808, Note_on_c, 3, 62, 0
5, 70808, Note_on_c, 3, 65, 0
5, 70904, Note_on_c, 3, 50, 0
5, 71000, Note_on_c, 3, 69, 74
5, 71000, Note_on_c, 3, 65, 67
5, 71000, Note_on_c, 3, 62, 80
5, 71000, Note_on_c, 3, 57, 69
5, 71000, Note_on_c, 3, 50, 74
5, 71192, Note_on_c, 3, 57, 0
5, 71192, Note_on_c, 3, 62, 0
5, 71192, Note_on_c, 3, 69, 0
5, 71192, Note_on_c, 3, 65, 0
5, 71288, Note_on_c, 3, 50, 0
5, 71384, Note_on_c, 3, 71, 74
5, 71384, Note_on_c, 3, 65, 90
5, 71384, Note_on_c, 3, 62, 92
5, 71480, Note_on_c, 3, 65, 0
5, 71480, Note_on_c, 3, 71, 0
5, 71576, Note_on_c, 3, 62, 0
5, 71672, Note_on_c, 3, 57, 76
5, 71672, Note_on_c, 3, 74, 74
5, 71672, Note_on_c, 3, 69, 74
5, 71672, Note_on_c, 3, 62, 76
5, 71768, Note_on_c, 3, 62, 0
5, 71768, Note_on_c, 3, 69, 0
5, 71768, Note_on_c, 3, 74, 0
5, 71864, Note_on_c, 3, 57, 0
5, 72152, Note_on_c, 3, 74, 90
5, 72152, Note_on_c, 3, 57, 74
5, 72152, Note_on_c, 3, 64, 90
5, 72152, Note_on_c, 3, 67, 78
5, 72152, Note_on_c, 3, 69, 63
5, 72248, Note_on_c, 3, 69, 0
5, 72248, Note_on_c, 3, 64, 0
5, 72248, Note_on_c, 3, 74, 0
5, 72248, Note_on_c, 3, 57, 0
5, 72248, Note_on_c, 3, 67, 0
5, 72344, Note_on_c, 3, 74, 86
5, 72344, Note_on_c, 3, 57, 82
5, 72344, Note_on_c, 3, 64, 92
5, 72344, Note_on_c, 3, 67, 88
5, 72344, Note_on_c, 3, 69, 68
5, 72440, Note_on_c, 3, 69, 0
5, 72440, Note_on_c, 3, 64, 0
5, 72440, Note_on_c, 3, 74, 0
5, 72440, Note_on_c, 3, 57, 0
5, 72440, Note_on_c, 3, 67, 0
5, 73112, Note_on_c, 3, 74, 70
5, 73112, Note_on_c, 3, 57, 66
5, 73112, Note_on_c, 3, 64, 80
5, 73112, Note_on_c, 3, 72, 65
5, 73112, Note_on_c, 3, 67, 78
5, 73208, Note_on_c, 3, 67, 0
5, 73208, Note_on_c, 3, 64, 0
5, 73208, Note_on_c, 3, 74, 0
5, 73208, Note_on_c, 3, 57, 0
5, 73208, Note_on_c, 3, 72, 0
5, 73208, Note_on_c, 3, 57, 45
5, 73208, Note_on_c, 3, 64, 61
5, 73208, Note_on_c, 3, 74, 65
5, 73208, Note_on_c, 3, 67, 64
5, 73208, Note_on_c, 3, 72, 70
5, 73304, Note_on_c, 3, 72, 0
5, 73304, Note_on_c, 3, 74, 0
5, 73304, Note_on_c, 3, 57, 0
5, 73304, Note_on_c, 3, 64, 0
5, 73304, Note_on_c, 3, 67, 0
5, 73688, Note_on_c, 3, 74, 64
5, 73688, Note_on_c, 3, 57, 69
5, 73688, Note_on_c, 3, 72, 59
5, 73688, Note_on_c, 3, 67, 67
5, 73688, Note_on_c, 3, 64, 69
5, 73784, Note_on_c, 3, 64, 0
5, 73784, Note_on_c, 3, 72, 0
5, 73784, Note_on_c, 3, 74, 0
5, 73784, Note_on_c, 3, 57, 0
5, 73784, Note_on_c, 3, 67, 0
5, 73784, Note_on_c, 3, 57, 55
5, 73784, Note_on_c, 3, 74, 44
5, 73784, Note_on_c, 3, 64, 57
5, 73784, Note_on_c, 3, 67, 68
5, 73784, Note_on_c, 3, 72, 52
5, 73785, Note_on_c, 3, 72, 0
5, 73880, Note_on_c, 3, 64, 0
5, 73880, Note_on_c, 3, 67, 0
5, 73880, Note_on_c, 3, 57, 0
5, 73880, Note_on_c, 3, 57, 49
5, 73880, Note_on_c, 3, 64, 55
5, 73880, Note_on_c, 3, 67, 69
5, 73880, Note_on_c, 3, 72, 44
5, 73976, Note_on_c, 3, 72, 0
5, 73976, Note_on_c, 3, 64, 0
5, 73976, Note_on_c, 3, 74, 0
5, 73976, Note_on_c, 3, 57, 0
5, 73976, Note_on_c, 3, 67, 0
5, 74072, Note_on_c, 3, 57, 86
5, 74072, Note_on_c, 3, 74, 80
5, 74072, Note_on_c, 3, 67, 84
5, 74072, Note_on_c, 3, 72, 62
5, 74072, Note_on_c, 3, 64, 72
5, 74168, Note_on_c, 3, 64, 0
5, 74168, Note_on_c, 3, 67, 0
5, 74168, Note_on_c, 3, 57, 0
5, 74168, Note_on_c, 3, 74, 0
5, 74168, Note_on_c, 3, 72, 0
5, 74360, Note_on_c, 3, 74, 63
5, 74360, Note_on_c, 3, 67, 68
5, 74360, Note_on_c, 3, 64, 69
5, 74360, Note_on_c, 3, 72, 60
5, 74360, Note_on_c, 3, 57, 84
5, 74456, Note_on_c, 3, 57, 0
5, 74456, Note_on_c, 3, 64, 0
5, 74456, Note_on_c, 3, 74, 0
5, 74456, Note_on_c, 3, 67, 0
5, 74456, Note_on_c, 3, 72, 0
5, 74648, Note_on_c, 3, 57, 78
5, 74648, Note_on_c, 3, 74, 55
5, 74648, Note_on_c, 3, 67, 67
5, 74648, Note_on_c, 3, 64, 80
5, 74648, Note_on_c, 3, 72, 42
5, 74648, Note_on_c, 3, 70, 23
5, 74649, Note_on_c, 3, 70, 0
5, 74840, Note_on_c, 3, 74, 0
5, 74840, Note_on_c, 3, 67, 0
5, 74840, Note_on_c, 3, 57, 0
5, 74840, Note_on_c, 3, 72, 0
5, 74840, Note_on_c, 3, 64, 0
5, 75032, Note_on_c, 3, 74, 60
5, 75032, Note_on_c, 3, 67, 61
5, 75032, Note_on_c, 3, 64, 70
5, 75032, Note_on_c, 3, 72, 49
5, 75032, Note_on_c, 3, 57, 62
5, 75128, Note_on_c, 3, 57, 0
5, 75128, Note_on_c, 3, 64, 0
5, 75128, Note_on_c, 3, 74, 0
5, 75128, Note_on_c, 3, 67, 0
5, 75128, Note_on_c, 3, 72, 0
5, 75224, Note_on_c, 3, 69, 82
5, 75224, Note_on_c, 3, 76, 88
5, 75224, Note_on_c, 3, 65, 80
5, 75224, Note_on_c, 3, 50, 67
5, 75224, Note_on_c, 3, 72, 52
5, 75320, Note_on_c, 3, 72, 0
5, 75320, Note_on_c, 3, 65, 0
5, 75320, Note_on_c, 3, 69, 0
5, 75320, Note_on_c, 3, 76, 0
5, 75320, Note_on_c, 3, 50, 0
5, 75416, Note_on_c, 3, 76, 76
5, 75416, Note_on_c, 3, 69, 69
5, 75416, Note_on_c, 3, 72, 63
5, 75416, Note_on_c, 3, 65, 78
5, 75416, Note_on_c, 3, 50, 68
5, 75512, Note_on_c, 3, 50, 0
5, 75512, Note_on_c, 3, 72, 0
5, 75512, Note_on_c, 3, 76, 0
5, 75512, Note_on_c, 3, 69, 0
5, 75512, Note_on_c, 3, 65, 0
5, 75608, Note_on_c, 3, 69, 58
5, 75608, Note_on_c, 3, 74, 53
5, 75608, Note_on_c, 3, 65, 62
5, 75608, Note_on_c, 3, 62, 65
5, 75704, Note_on_c, 3, 62, 0
5, 75704, Note_on_c, 3, 69, 0
5, 75704, Note_on_c, 3, 74, 0
5, 75704, Note_on_c, 3, 65, 0
5, 75704, Note_on_c, 3, 50, 57
5, 75800, Note_on_c, 3, 50, 0
5, 76184, Note_on_c, 3, 72, 70
5, 76184, Note_on_c, 3, 69, 70
5, 76184, Note_on_c, 3, 65, 88
5, 76184, Note_on_c, 3, 62, 80
5, 76280, Note_on_c, 3, 62, 0
5, 76280, Note_on_c, 3, 72, 0
5, 76280, Note_on_c, 3, 69, 0
5, 76280, Note_on_c, 3, 65, 0
5, 76472, Note_on_c, 3, 65, 74
5, 76472, Note_on_c, 3, 69, 62
5, 76472, Note_on_c, 3, 62, 78
5, 76472, Note_on_c, 3, 57, 63
5, 76568, Note_on_c, 3, 57, 0
5, 76568, Note_on_c, 3, 65, 0
5, 76568, Note_on_c, 3, 69, 0
5, 76568, Note_on_c, 3, 62, 0
5, 76664, Note_on_c, 3, 66, 22
5, 76665, Note_on_c, 3, 66, 0
5, 76760, Note_on_c, 3, 65, 69
5, 76760, Note_on_c, 3, 50, 70
5, 76760, Note_on_c, 3, 62, 70
5, 76760, Note_on_c, 3, 57, 50
5, 76760, Note_on_c, 3, 59, 41
5, 76761, Note_on_c, 3, 59, 0
5, 76856, Note_on_c, 3, 62, 0
5, 76856, Note_on_c, 3, 65, 0
5, 76856, Note_on_c, 3, 50, 0
5, 76856, Note_on_c, 3, 57, 0
5, 77144, Note_on_c, 3, 65, 70
5, 77144, Note_on_c, 3, 49, 65
5, 77144, Note_on_c, 3, 61, 76
5, 77144, Note_on_c, 3, 57, 76
5, 77240, Note_on_c, 3, 57, 0
5, 77240, Note_on_c, 3, 49, 0
5, 77336, Note_on_c, 3, 61, 0
5, 77336, Note_on_c, 3, 65, 0
5, 77528, Note_on_c, 3, 65, 88
5, 77528, Note_on_c, 3, 48, 88
5, 77528, Note_on_c, 3, 60, 96
5, 77528, Note_on_c, 3, 57, 80
5, 77624, Note_on_c, 3, 57, 0
5, 77624, Note_on_c, 3, 65, 0
5, 77624, Note_on_c, 3, 48, 0
5, 77624, Note_on_c, 3, 60, 0
5, 77816, Note_on_c, 3, 65, 82
5, 77816, Note_on_c, 3, 57, 76
5, 77816, Note_on_c, 3, 62, 72
5, 77816, Note_on_c, 3, 59, 80
5, 77816, Note_on_c, 3, 47, 61
5, 77912, Note_on_c, 3, 47, 0
5, 77912, Note_on_c, 3, 62, 0
5, 77912, Note_on_c, 3, 65, 0
5, 77912, Note_on_c, 3, 57, 0
5, 77912, Note_on_c, 3, 59, 0
5, 78104, Note_on_c, 3, 69, 59
5, 78104, Note_on_c, 3, 62, 70
5, 78104, Note_on_c, 3, 47, 61
5, 78105, Note_on_c, 3, 47, 0
5, 78105, Note_on_c, 3, 62, 0
5, 78105, Note_on_c, 3, 69, 0
5, 78296, Note_on_c, 3, 72, 68
5, 78296, Note_on_c, 3, 57, 82
5, 78296, Note_on_c, 3, 62, 80
5, 78296, Note_on_c, 3, 65, 62
5, 78296, Note_on_c, 3, 70, 38
5, 78296, Note_on_c, 3, 68, 27
5, 78297, Note_on_c, 3, 68, 0
5, 78297, Note_on_c, 3, 57, 0
5, 78392, Note_on_c, 3, 65, 0
5, 78392, Note_on_c, 3, 72, 0
5, 78392, Note_on_c, 3, 62, 0
5, 78392, Note_on_c, 3, 70, 0
5, 78584, Note_on_c, 3, 72, 74
5, 78584, Note_on_c, 3, 65, 76
5, 78584, Note_on_c, 3, 62, 86
5, 78584, Note_on_c, 3, 70, 46
5, 78584, Note_on_c, 3, 57, 78
5, 78584, Note_on_c, 3, 68, 29
5, 78585, Note_on_c, 3, 68, 0
5, 78680, Note_on_c, 3, 65, 0
5, 78680, Note_on_c, 3, 62, 0
5, 78680, Note_on_c, 3, 72, 0
5, 78680, Note_on_c, 3, 57, 0
5, 78680, Note_on_c, 3, 70, 0
5, 78872, Note_on_c, 3, 72, 90
5, 78872, Note_on_c, 3, 65, 86
5, 78872, Note_on_c, 3, 62, 100
5, 78872, Note_on_c, 3, 57, 80
5, 78872, Note_on_c, 3, 70, 41
5, 79160, Note_on_c, 3, 70, 0
5, 79160, Note_on_c, 3, 72, 0
5, 79160, Note_on_c, 3, 62, 0
5, 79160, Note_on_c, 3, 65, 0
5, 79248, Note_on_c, 3, 57, 0
5, 79248, Note_on_c, 3, 62, 88
5, 79248, Note_on_c, 3, 72, 78
5, 79248, Note_on_c, 3, 70, 39
5, 79248, Note_on_c, 3, 65, 64
5, 79248, Note_on_c, 3, 55, 98
5, 79352, Note_on_c, 3, 55, 0
5, 79352, Note_on_c, 3, 70, 0
5, 79352, Note_on_c, 3, 62, 0
5, 79352, Note_on_c, 3, 72, 0
5, 79352, Note_on_c, 3, 65, 0
5, 79448, Note_on_c, 3, 62, 80
5, 79448, Note_on_c, 3, 72, 72
5, 79448, Note_on_c, 3, 70, 34
5, 79448, Note_on_c, 3, 55, 110
5, 79448, Note_on_c, 3, 65, 66
5, 79448, Note_on_c, 3, 68, 22
5, 79449, Note_on_c, 3, 68, 0
5, 79536, Note_on_c, 3, 72, 0
5, 79536, Note_on_c, 3, 70, 0
5, 79536, Note_on_c, 3, 62, 0
5, 79536, Note_on_c, 3, 65, 0
5, 79536, Note_on_c, 3, 55, 0
5, 80208, Note_on_c, 3, 57, 69
5, 80208, Note_on_c, 3, 72, 76
5, 80208, Note_on_c, 3, 62, 88
5, 80208, Note_on_c, 3, 70, 43
5, 80208, Note_on_c, 3, 65, 65
5, 80208, Note_on_c, 3, 68, 23
5, 80209, Note_on_c, 3, 68, 0
5, 80209, Note_on_c, 3, 62, 0
5, 80304, Note_on_c, 3, 70, 0
5, 80304, Note_on_c, 3, 57, 0
5, 80304, Note_on_c, 3, 72, 0
5, 80304, Note_on_c, 3, 65, 0
5, 80304, Note_on_c, 3, 72, 62
5, 80304, Note_on_c, 3, 62, 48
5, 80304, Note_on_c, 3, 65, 58
5, 80304, Note_on_c, 3, 57, 52
5, 80305, Note_on_c, 3, 65, 0
5, 80305, Note_on_c, 3, 62, 0
5, 80400, Note_on_c, 3, 72, 0
5, 80400, Note_on_c, 3, 57, 0
5, 80400, Note_on_c, 3, 55, 64
5, 80401, Note_on_c, 3, 55, 0
5, 80496, Note_on_c, 3, 72, 69
5, 80496, Note_on_c, 3, 65, 68
5, 80496, Note_on_c, 3, 62, 64
5, 80496, Note_on_c, 3, 57, 70
5, 80496, Note_on_c, 3, 70, 33
5, 80496, Note_on_c, 3, 68, 17
5, 80497, Note_on_c, 3, 68, 0
5, 80592, Note_on_c, 3, 65, 0
5, 80592, Note_on_c, 3, 62, 0
5, 80592, Note_on_c, 3, 72, 0
5, 80592, Note_on_c, 3, 70, 0
5, 80592, Note_on_c, 3, 57, 0
5, 80784, Note_on_c, 3, 72, 84
5, 80784, Note_on_c, 3, 57, 62
5, 80784, Note_on_c, 3, 65, 78
5, 80784, Note_on_c, 3, 62, 80
5, 80880, Note_on_c, 3, 62, 0
5, 80880, Note_on_c, 3, 72, 0
5, 80880, Note_on_c, 3, 57, 0
5, 80880, Note_on_c, 3, 65, 0
5, 80976, Note_on_c, 3, 70, 60
5, 80976, Note_on_c, 3, 65, 66
5, 80976, Note_on_c, 3, 62, 65
5, 80976, Note_on_c, 3, 55, 90
5, 81072, Note_on_c, 3, 62, 0
5, 81072, Note_on_c, 3, 65, 0
5, 81168, Note_on_c, 3, 70, 0
5, 81168, Note_on_c, 3, 55, 0
5, 81168, Note_on_c, 3, 57, 35
5, 81168, Note_on_c, 3, 62, 29
5, 81264, Note_on_c, 3, 62, 0
5, 81264, Note_on_c, 3, 57, 0
5, 81360, Note_on_c, 3, 69, 58
5, 81360, Note_on_c, 3, 64, 66
5, 81360, Note_on_c, 3, 65, 65
5, 81360, Note_on_c, 3, 57, 31
5, 81360, Note_on_c, 3, 50, 44
5, 81456, Note_on_c, 3, 50, 0
5, 81456, Note_on_c, 3, 65, 0
5, 81456, Note_on_c, 3, 69, 0
5, 81456, Note_on_c, 3, 64, 0
5, 81456, Note_on_c, 3, 57, 0
5, 81552, Note_on_c, 3, 64, 72
5, 81552, Note_on_c, 3, 65, 76
5, 81552, Note_on_c, 3, 69, 61
5, 81552, Note_on_c, 3, 57, 60
5, 81552, Note_on_c, 3, 50, 58
5, 81648, Note_on_c, 3, 50, 0
5, 81648, Note_on_c, 3, 69, 0
5, 81648, Note_on_c, 3, 64, 0
5, 81648, Note_on_c, 3, 65, 0
5, 81648, Note_on_c, 3, 57, 0
5, 81744, Note_on_c, 3, 62, 32
5, 81840, Note_on_c, 3, 69, 63
5, 81840, Note_on_c, 3, 65, 66
5, 81840, Note_on_c, 3, 57, 40
5, 81840, Note_on_c, 3, 50, 40
5, 81936, Note_on_c, 3, 50, 0
5, 81936, Note_on_c, 3, 65, 0
5, 81936, Note_on_c, 3, 62, 0
5, 81936, Note_on_c, 3, 69, 0
5, 81936, Note_on_c, 3, 57, 0
5, 82608, Note_on_c, 3, 57, 64
5, 82608, Note_on_c, 3, 69, 72
5, 82608, Note_on_c, 3, 65, 78
5, 82608, Note_on_c, 3, 64, 82
5, 82704, Note_on_c, 3, 64, 0
5, 82704, Note_on_c, 3, 57, 0
5, 82704, Note_on_c, 3, 69, 0
5, 82704, Note_on_c, 3, 65, 0
5, 82704, Note_on_c, 3, 62, 44
5, 82704, Note_on_c, 3, 50, 29
5, 82705, Note_on_c, 3, 50, 0
5, 82800, Note_on_c, 3, 62, 0
5, 82896, Note_on_c, 3, 65, 68
5, 82896, Note_on_c, 3, 62, 72
5, 82896, Note_on_c, 3, 50, 66
5, 82896, Note_on_c, 3, 57, 63
5, 83184, Note_on_c, 3, 57, 0
5, 83184, Note_on_c, 3, 65, 0
5, 83184, Note_on_c, 3, 62, 0
5, 83184, Note_on_c, 3, 50, 0
5, 83280, Note_on_c, 3, 61, 94
5, 83280, Note_on_c, 3, 65, 92
5, 83280, Note_on_c, 3, 49, 72
5, 83280, Note_on_c, 3, 57, 90
5, 83472, Note_on_c, 3, 57, 0
5, 83568, Note_on_c, 3, 61, 0
5, 83568, Note_on_c, 3, 65, 0
5, 83568, Note_on_c, 3, 49, 0
5, 83664, Note_on_c, 3, 65, 92
5, 83664, Note_on_c, 3, 62, 94
5, 83664, Note_on_c, 3, 59, 102
5, 83664, Note_on_c, 3, 48, 41
5, 83664, Note_on_c, 3, 50, 37
5, 83665, Note_on_c, 3, 50, 0
5, 83760, Note_on_c, 3, 59, 0
5, 83760, Note_on_c, 3, 48, 0
5, 83760, Note_on_c, 3, 65, 0
5, 83856, Note_on_c, 3, 62, 0
5, 83952, Note_on_c, 3, 69, 78
5, 83952, Note_on_c, 3, 62, 88
5, 83952, Note_on_c, 3, 58, 78
5, 83952, Note_on_c, 3, 65, 66
5, 83952, Note_on_c, 3, 48, 64
5, 83952, Note_on_c, 3, 67, 23
5, 84048, Note_on_c, 3, 48, 0
5, 84144, Note_on_c, 3, 62, 0
5, 84144, Note_on_c, 3, 58, 0
5, 84144, Note_on_c, 3, 69, 0
5, 84144, Note_on_c, 3, 67, 0
5, 84144, Note_on_c, 3, 65, 0
5, 84144, Note_on_c, 3, 51, 39
5, 84240, Note_on_c, 3, 51, 0
5, 84240, Note_on_c, 3, 52, 20
5, 84336, Note_on_c, 3, 52, 0
5, 84432, Note_on_c, 3, 74, 78
5, 84432, Note_on_c, 3, 64, 78
5, 84432, Note_on_c, 3, 67, 80
5, 84432, Note_on_c, 3, 69, 63
5, 84432, Note_on_c, 3, 45, 68
5, 84816, Note_on_c, 3, 45, 0
5, 84816, Note_on_c, 3, 74, 0
5, 84816, Note_on_c, 3, 64, 0
5, 84912, Note_on_c, 3, 67, 0
5, 84912, Note_on_c, 3, 69, 0
5, 85008, Note_on_c, 3, 74, 86
5, 85008, Note_on_c, 3, 64, 96
5, 85008, Note_on_c, 3, 67, 84
5, 85008, Note_on_c, 3, 69, 66
5, 85008, Note_on_c, 3, 57, 82
5, 85104, Note_on_c, 3, 57, 0
5, 85104, Note_on_c, 3, 67, 0
5, 85104, Note_on_c, 3, 74, 0
5, 85104, Note_on_c, 3, 64, 0
5, 85104, Note_on_c, 3, 69, 0
5, 85296, Note_on_c, 3, 74, 63
5, 85296, Note_on_c, 3, 57, 64
5, 85296, Note_on_c, 3, 67, 60
5, 85296, Note_on_c, 3, 69, 50
5, 85296, Note_on_c, 3, 64, 58
5, 85392, Note_on_c, 3, 64, 0
5, 85392, Note_on_c, 3, 67, 0
5, 85392, Note_on_c, 3, 74, 0
5, 85392, Note_on_c, 3, 57, 0
5, 85392, Note_on_c, 3, 69, 0
5, 85584, Note_on_c, 3, 72, 58
5, 85584, Note_on_c, 3, 57, 59
5, 85584, Note_on_c, 3, 67, 68
5, 85584, Note_on_c, 3, 69, 50
5, 85584, Note_on_c, 3, 62, 72
5, 85680, Note_on_c, 3, 62, 0
5, 85872, Note_on_c, 3, 67, 0
5, 85872, Note_on_c, 3, 72, 0
5, 85872, Note_on_c, 3, 57, 0
5, 85872, Note_on_c, 3, 69, 0
5, 85968, Note_on_c, 3, 57, 61
5, 85968, Note_on_c, 3, 69, 78
5, 85968, Note_on_c, 3, 60, 72
5, 85968, Note_on_c, 3, 64, 66
5, 85969, Note_on_c, 3, 64, 0
5, 85969, Note_on_c, 3, 60, 0
5, 86064, Note_on_c, 3, 69, 0
5, 86064, Note_on_c, 3, 57, 0
5, 86160, Note_on_c, 3, 69, 67
5, 86160, Note_on_c, 3, 57, 70
5, 86160, Note_on_c, 3, 67, 68
5, 86160, Note_on_c, 3, 64, 78
5, 86160, Note_on_c, 3, 60, 82
5, 86256, Note_on_c, 3, 60, 0
5, 86256, Note_on_c, 3, 67, 0
5, 86256, Note_on_c, 3, 69, 0
5, 86256, Note_on_c, 3, 57, 0
5, 86256, Note_on_c, 3, 64, 0
5, 86448, Note_on_c, 3, 67, 72
5, 86448, Note_on_c, 3, 64, 74
5, 86448, Note_on_c, 3, 60, 70
5, 86448, Note_on_c, 3, 57, 69
5, 86544, Note_on_c, 3, 57, 0
5, 86544, Note_on_c, 3, 67, 0
5, 86544, Note_on_c, 3, 64, 0
5, 86544, Note_on_c, 3, 60, 0
5, 86736, Note_on_c, 3, 57, 69
5, 86736, Note_on_c, 3, 64, 78
5, 86736, Note_on_c, 3, 60, 72
5, 86832, Note_on_c, 3, 60, 0
5, 86832, Note_on_c, 3, 64, 0
5, 86832, Note_on_c, 3, 57, 0
5, 87120, Note_on_c, 3, 64, 51
5, 87120, Note_on_c, 3, 57, 54
5, 87120, Note_on_c, 3, 55, 69
5, 87120, Note_on_c, 3, 60, 56
5, 87312, Note_on_c, 3, 60, 0
5, 87312, Note_on_c, 3, 64, 0
5, 87312, Note_on_c, 3, 57, 0
5, 87312, Note_on_c, 3, 55, 0
5, 87504, Note_on_c, 3, 64, 49
5, 87504, Note_on_c, 3, 65, 45
5, 87504, Note_on_c, 3, 69, 37
5, 87505, Note_on_c, 3, 69, 0
5, 87505, Note_on_c, 3, 65, 0
5, 87505, Note_on_c, 3, 64, 0
5, 87600, Note_on_c, 3, 64, 37
5, 87600, Note_on_c, 3, 65, 39
5, 87600, Note_on_c, 3, 69, 27
5, 87696, Note_on_c, 3, 69, 0
5, 87696, Note_on_c, 3, 65, 0
5, 87696, Note_on_c, 3, 64, 0
5, 87696, Note_on_c, 3, 62, 34
5, 87792, Note_on_c, 3, 62, 0
5, 87792, Note_on_c, 3, 62, 33
5, 87793, Note_on_c, 3, 62, 0
5, 87888, Note_on_c, 3, 64, 38
5, 87888, Note_on_c, 3, 65, 31
5, 87888, Note_on_c, 3, 69, 20
5, 87889, Note_on_c, 3, 69, 0
5, 87889, Note_on_c, 3, 65, 0
5, 87889, Note_on_c, 3, 64, 0
5, 87984, Note_on_c, 3, 69, 34
5, 87984, Note_on_c, 3, 64, 30
5, 87984, Note_on_c, 3, 65, 27
5, 87985, Note_on_c, 3, 65, 0
5, 88080, Note_on_c, 3, 64, 0
5, 88080, Note_on_c, 3, 69, 0
5, 88080, Note_on_c, 3, 62, 60
5, 88176, Note_on_c, 3, 62, 0
5, 88272, Note_on_c, 3, 64, 53
5, 88272, Note_on_c, 3, 65, 28
5, 88273, Note_on_c, 3, 65, 0
5, 88273, Note_on_c, 3, 64, 0
5, 88368, Note_on_c, 3, 69, 35
5, 88368, Note_on_c, 3, 64, 35
5, 88368, Note_on_c, 3, 65, 23
5, 88369, Note_on_c, 3, 65, 0
5, 88464, Note_on_c, 3, 64, 0
5, 88464, Note_on_c, 3, 69, 0
5, 88464, Note_on_c, 3, 62, 40
5, 88465, Note_on_c, 3, 62, 0
5, 88560, Note_on_c, 3, 64, 74
5, 88560, Note_on_c, 3, 65, 65
5, 88560, Note_on_c, 3, 69, 59
5, 88656, Note_on_c, 3, 69, 0
5, 88656, Note_on_c, 3, 65, 0
5, 88656, Note_on_c, 3, 64, 0
5, 88752, Note_on_c, 3, 64, 68
5, 88752, Note_on_c, 3, 65, 62
5, 88752, Note_on_c, 3, 69, 61
5, 88848, Note_on_c, 3, 69, 0
5, 88848, Note_on_c, 3, 65, 0
5, 88848, Note_on_c, 3, 64, 0
5, 88848, Note_on_c, 3, 62, 27
5, 88849, Note_on_c, 3, 62, 0
5, 88944, Note_on_c, 3, 65, 66
5, 88944, Note_on_c, 3, 69, 61
5, 88944, Note_on_c, 3, 64, 34
5, 89040, Note_on_c, 3, 64, 0
5, 89040, Note_on_c, 3, 69, 0
5, 89040, Note_on_c, 3, 65, 0
5, 89040, Note_on_c, 3, 64, 53
5, 89040, Note_on_c, 3, 69, 59
5, 89040, Note_on_c, 3, 65, 51
5, 89041, Note_on_c, 3, 65, 0
5, 89041, Note_on_c, 3, 64, 0
5, 89136, Note_on_c, 3, 69, 0
5, 89136, Note_on_c, 3, 65, 56
5, 89136, Note_on_c, 3, 69, 39
5, 89136, Note_on_c, 3, 64, 33
5, 89137, Note_on_c, 3, 64, 0
5, 89232, Note_on_c, 3, 65, 0
5, 89232, Note_on_c, 3, 61, 59
5, 89328, Note_on_c, 3, 61, 0
5, 89328, Note_on_c, 3, 69, 0
5, 89424, Note_on_c, 3, 69, 65
5, 89424, Note_on_c, 3, 65, 64
5, 89520, Note_on_c, 3, 65, 0
5, 89520, Note_on_c, 3, 69, 0
5, 89520, Note_on_c, 3, 61, 61
5, 89616, Note_on_c, 3, 61, 0
5, 89712, Note_on_c, 3, 69, 80
5, 89712, Note_on_c, 3, 65, 90
5, 89808, Note_on_c, 3, 65, 0
5, 89808, Note_on_c, 3, 69, 0
5, 89904, Note_on_c, 3, 69, 78
5, 89904, Note_on_c, 3, 65, 70
5, 90000, Note_on_c, 3, 65, 0
5, 90000, Note_on_c, 3, 69, 0
5, 90000, Note_on_c, 3, 61, 55
5, 90001, Note_on_c, 3, 61, 0
5, 90096, Note_on_c, 3, 61, 53
5, 90097, Note_on_c, 3, 61, 0
5, 90192, Note_on_c, 3, 65, 50
5, 90192, Note_on_c, 3, 69, 52
5, 90193, Note_on_c, 3, 69, 0
5, 90193, Note_on_c, 3, 65, 0
5, 90288, Note_on_c, 3, 65, 60
5, 90288, Note_on_c, 3, 69, 31
5, 90289, Note_on_c, 3, 69, 0
5, 90384, Note_on_c, 3, 65, 0
5, 90384, Note_on_c, 3, 61, 29
5, 90385, Note_on_c, 3, 61, 0
5, 90480, Note_on_c, 3, 65, 86
5, 90480, Note_on_c, 3, 69, 74
5, 90481, Note_on_c, 3, 69, 0
5, 90481, Note_on_c, 3, 65, 0
5, 90576, Note_on_c, 3, 69, 62
5, 90576, Note_on_c, 3, 65, 69
5, 90672, Note_on_c, 3, 65, 0
5, 90672, Note_on_c, 3, 69, 0
5, 90672, Note_on_c, 3, 69, 41
5, 90672, Note_on_c, 3, 65, 41
5, 90768, Note_on_c, 3, 65, 0
5, 90768, Note_on_c, 3, 69, 0
5, 90768, Note_on_c, 3, 60, 48
5, 90864, Note_on_c, 3, 60, 0
5, 90864, Note_on_c, 3, 60, 30
5, 90865, Note_on_c, 3, 60, 0
5, 90960, Note_on_c, 3, 65, 65
5, 90960, Note_on_c, 3, 69, 59
5, 91056, Note_on_c, 3, 69, 0
5, 91056, Note_on_c, 3, 65, 0
5, 91056, Note_on_c, 3, 69, 30
5, 91056, Note_on_c, 3, 65, 25
5, 91152, Note_on_c, 3, 65, 0
5, 91152, Note_on_c, 3, 69, 0
5, 91152, Note_on_c, 3, 60, 31
5, 91248, Note_on_c, 3, 60, 0
5, 91248, Note_on_c, 3, 65, 72
5, 91248, Note_on_c, 3, 69, 64
5, 91344, Note_on_c, 3, 69, 0
5, 91344, Note_on_c, 3, 65, 0
5, 91440, Note_on_c, 3, 69, 65
5, 91440, Note_on_c, 3, 65, 74
5, 91536, Note_on_c, 3, 65, 0
5, 91536, Note_on_c, 3, 69, 0
5, 91632, Note_on_c, 3, 60, 31
5, 91633, Note_on_c, 3, 60, 0
5, 91728, Note_on_c, 3, 65, 51
5, 91728, Note_on_c, 3, 69, 46
5, 91729, Note_on_c, 3, 69, 0
5, 91729, Note_on_c, 3, 65, 0
5, 91824, Note_on_c, 3, 69, 66
5, 91824, Note_on_c, 3, 65, 82
5, 91920, Note_on_c, 3, 65, 0
5, 91920, Note_on_c, 3, 69, 0
5, 91920, Note_on_c, 3, 60, 37
5, 91921, Note_on_c, 3, 60, 0
5, 92016, Note_on_c, 3, 60, 50
5, 92017, Note_on_c, 3, 60, 0
5, 92112, Note_on_c, 3, 65, 55
5, 92112, Note_on_c, 3, 69, 35
5, 92113, Note_on_c, 3, 69, 0
5, 92113, Note_on_c, 3, 65, 0
5, 92208, Note_on_c, 3, 65, 30
5, 92208, Note_on_c, 3, 69, 23
5, 92304, Note_on_c, 3, 69, 0
5, 92304, Note_on_c, 3, 65, 0
5, 92304, Note_on_c, 3, 59, 57
5, 92305, Note_on_c, 3, 59, 0
5, 92400, Note_on_c, 3, 59, 63
5, 92401, Note_on_c, 3, 59, 0
5, 92496, Note_on_c, 3, 59, 41
5, 92497, Note_on_c, 3, 59, 0
5, 92592, Note_on_c, 3, 65, 92
5, 92592, Note_on_c, 3, 69, 76
5, 92592, Note_on_c, 3, 67, 22
5, 92593, Note_on_c, 3, 67, 0
5, 92688, Note_on_c, 3, 69, 0
5, 92688, Note_on_c, 3, 65, 0
5, 92688, Note_on_c, 3, 59, 31
5, 92689, Note_on_c, 3, 59, 0
5, 92784, Note_on_c, 3, 59, 51
5, 92785, Note_on_c, 3, 59, 0
5, 92880, Note_on_c, 3, 69, 66
5, 92880, Note_on_c, 3, 65, 80
5, 92976, Note_on_c, 3, 65, 0
5, 92976, Note_on_c, 3, 69, 0
5, 92976, Note_on_c, 3, 59, 30
5, 92977, Note_on_c, 3, 59, 0
5, 93072, Note_on_c, 3, 59, 31
5, 93073, Note_on_c, 3, 59, 0
5, 93168, Note_on_c, 3, 65, 64
5, 93168, Note_on_c, 3, 69, 56
5, 93264, Note_on_c, 3, 69, 0
5, 93264, Note_on_c, 3, 65, 0
5, 93264, Note_on_c, 3, 59, 19
5, 93265, Note_on_c, 3, 59, 0
5, 93352, Note_on_c, 3, 59, 58
5, 93353, Note_on_c, 3, 59, 0
5, 93456, Note_on_c, 3, 59, 54
5, 93457, Note_on_c, 3, 59, 0
5, 93544, Note_on_c, 3, 57, 60
5, 93545, Note_on_c, 3, 57, 0
5, 93640, Note_on_c, 3, 58, 63
5, 93640, Note_on_c, 3, 62, 57
5, 93640, Note_on_c, 3, 65, 60
5, 93744, Note_on_c, 3, 65, 0
5, 93744, Note_on_c, 3, 62, 0
5, 93744, Note_on_c, 3, 58, 0
5, 93840, Note_on_c, 3, 58, 62
5, 93840, Note_on_c, 3, 62, 63
5, 93840, Note_on_c, 3, 65, 57
5, 93928, Note_on_c, 3, 65, 0
5, 93928, Note_on_c, 3, 62, 0
5, 93928, Note_on_c, 3, 58, 0
5, 94032, Note_on_c, 3, 57, 40
5, 94120, Note_on_c, 3, 57, 0
5, 94120, Note_on_c, 3, 58, 58
5, 94120, Note_on_c, 3, 65, 42
5, 94120, Note_on_c, 3, 62, 48
5, 94121, Note_on_c, 3, 62, 0
5, 94216, Note_on_c, 3, 65, 0
5, 94216, Note_on_c, 3, 58, 0
5, 94216, Note_on_c, 3, 57, 32
5, 94312, Note_on_c, 3, 57, 0
5, 94504, Note_on_c, 3, 62, 65
5, 94504, Note_on_c, 3, 65, 63
5, 94504, Note_on_c, 3, 58, 52
5, 94608, Note_on_c, 3, 58, 0
5, 94608, Note_on_c, 3, 65, 0
5, 94608, Note_on_c, 3, 62, 0
5, 94608, Note_on_c, 3, 57, 51
5, 94696, Note_on_c, 3, 57, 0
5, 94696, Note_on_c, 3, 57, 48
5, 94800, Note_on_c, 3, 57, 0
5, 94800, Note_on_c, 3, 58, 60
5, 94800, Note_on_c, 3, 62, 50
5, 94800, Note_on_c, 3, 65, 52
5, 94896, Note_on_c, 3, 65, 0
5, 94896, Note_on_c, 3, 62, 0
5, 94896, Note_on_c, 3, 58, 0
5, 94896, Note_on_c, 3, 65, 37
5, 94896, Note_on_c, 3, 62, 44
5, 94896, Note_on_c, 3, 58, 28
5, 94984, Note_on_c, 3, 58, 0
5, 94984, Note_on_c, 3, 62, 0
5, 94984, Note_on_c, 3, 65, 0
5, 95080, Note_on_c, 3, 69, 90
5, 95080, Note_on_c, 3, 58, 74
5, 95080, Note_on_c, 3, 62, 80
5, 95080, Note_on_c, 3, 65, 59
5, 95272, Note_on_c, 3, 69, 0
5, 95368, Note_on_c, 3, 58, 0
5, 95368, Note_on_c, 3, 62, 0
5, 95368, Note_on_c, 3, 65, 0
5, 95368, Note_on_c, 3, 58, 47
5, 95368, Note_on_c, 3, 67, 53
5, 95368, Note_on_c, 3, 62, 42
5, 95369, Note_on_c, 3, 62, 0
5, 95464, Note_on_c, 3, 67, 0
5, 95464, Note_on_c, 3, 58, 0
5, 95560, Note_on_c, 3, 58, 32
5, 95560, Note_on_c, 3, 65, 53
5, 95560, Note_on_c, 3, 62, 38
5, 95561, Note_on_c, 3, 62, 0
5, 95656, Note_on_c, 3, 65, 0
5, 95656, Note_on_c, 3, 58, 0
5, 95752, Note_on_c, 3, 58, 29
5, 95752, Note_on_c, 3, 62, 63
5, 95848, Note_on_c, 3, 62, 0
5, 95848, Note_on_c, 3, 58, 0
5, 95944, Note_on_c, 3, 58, 43
5, 95944, Note_on_c, 3, 62, 69
5, 95944, Note_on_c, 3, 65, 63
5, 96040, Note_on_c, 3, 65, 0
5, 96040, Note_on_c, 3, 62, 0
5, 96040, Note_on_c, 3, 58, 0
5, 96232, Note_on_c, 3, 62, 76
5, 96232, Note_on_c, 3, 67, 65
5, 96232, Note_on_c, 3, 58, 49
5, 96424, Note_on_c, 3, 58, 0
5, 96424, Note_on_c, 3, 67, 0
5, 96424, Note_on_c, 3, 62, 0
5, 96424, Note_on_c, 3, 65, 56
5, 96424, Note_on_c, 3, 62, 27
5, 96520, Note_on_c, 3, 62, 0
5, 96520, Note_on_c, 3, 65, 0
5, 96520, Note_on_c, 3, 58, 18
5, 96616, Note_on_c, 3, 58, 0
5, 96712, Note_on_c, 3, 64, 34
5, 96712, Note_on_c, 3, 57, 22
5, 96808, Note_on_c, 3, 57, 0
5, 96808, Note_on_c, 3, 64, 0
5, 96904, Note_on_c, 3, 60, 61
5, 96904, Note_on_c, 3, 57, 38
5, 97000, Note_on_c, 3, 57, 0
5, 97000, Note_on_c, 3, 60, 0
5, 97096, Note_on_c, 3, 72, 96
5, 97096, Note_on_c, 3, 69, 94
5, 97096, Note_on_c, 3, 64, 102
5, 97192, Note_on_c, 3, 64, 0
5, 97192, Note_on_c, 3, 69, 0
5, 97192, Note_on_c, 3, 72, 0
5, 97192, Note_on_c, 3, 64, 82
5, 97192, Note_on_c, 3, 69, 69
5, 97192, Note_on_c, 3, 72, 84
5, 97288, Note_on_c, 3, 72, 0
5, 97288, Note_on_c, 3, 69, 0
5, 97288, Note_on_c, 3, 64, 0
5, 97384, Note_on_c, 3, 69, 78
5, 97384, Note_on_c, 3, 60, 90
5, 97384, Note_on_c, 3, 64, 82
5, 97480, Note_on_c, 3, 64, 0
5, 97480, Note_on_c, 3, 60, 0
5, 97480, Note_on_c, 3, 69, 0
5, 97672, Note_on_c, 3, 57, 68
5, 97672, Note_on_c, 3, 60, 76
5, 97672, Note_on_c, 3, 64, 63
5, 97864, Note_on_c, 3, 60, 0
5, 97864, Note_on_c, 3, 57, 0
5, 97960, Note_on_c, 3, 64, 0
5, 97960, Note_on_c, 3, 60, 94
5, 98056, Note_on_c, 3, 60, 0
5, 98056, Note_on_c, 3, 57, 30
5, 98152, Note_on_c, 3, 57, 0
5, 98248, Note_on_c, 3, 62, 49
5, 98248, Note_on_c, 3, 55, 76
5, 98248, Note_on_c, 3, 58, 46
5, 98249, Note_on_c, 3, 58, 0
5, 98249, Note_on_c, 3, 55, 0
5, 98249, Note_on_c, 3, 62, 0
5, 98440, Note_on_c, 3, 58, 70
5, 98440, Note_on_c, 3, 69, 82
5, 98440, Note_on_c, 3, 62, 80
5, 98440, Note_on_c, 3, 64, 60
5, 98441, Note_on_c, 3, 64, 0
5, 98536, Note_on_c, 3, 58, 0
5, 98536, Note_on_c, 3, 69, 0
5, 98536, Note_on_c, 3, 62, 0
5, 98632, Note_on_c, 3, 58, 66
5, 98632, Note_on_c, 3, 67, 80
5, 98632, Note_on_c, 3, 62, 70
5, 98632, Note_on_c, 3, 62, 20
5, 98633, Note_on_c, 3, 62, 0
5, 98728, Note_on_c, 3, 58, 0
5, 98728, Note_on_c, 3, 67, 0
5, 98728, Note_on_c, 3, 62, 0
5, 98728, Note_on_c, 3, 64, 46
5, 98729, Note_on_c, 3, 64, 0
5, 98920, Note_on_c, 3, 70, 70
5, 98920, Note_on_c, 3, 61, 84
5, 98920, Note_on_c, 3, 66, 74
5, 99016, Note_on_c, 3, 66, 0
5, 99016, Note_on_c, 3, 61, 0
5, 99016, Note_on_c, 3, 70, 0
5, 99112, Note_on_c, 3, 58, 67
5, 99112, Note_on_c, 3, 61, 66
5, 99112, Note_on_c, 3, 69, 86
5, 99112, Note_on_c, 3, 64, 64
5, 99304, Note_on_c, 3, 69, 0
5, 99304, Note_on_c, 3, 61, 0
5, 99400, Note_on_c, 3, 58, 0
5, 99400, Note_on_c, 3, 64, 0
5, 99400, Note_on_c, 3, 58, 50
5, 99400, Note_on_c, 3, 67, 34
5, 99400, Note_on_c, 3, 61, 42
5, 99400, Note_on_c, 3, 64, 24
5, 99401, Note_on_c, 3, 64, 0
5, 99401, Note_on_c, 3, 67, 0
5, 99496, Note_on_c, 3, 61, 0
5, 99496, Note_on_c, 3, 58, 0
5, 99592, Note_on_c, 3, 58, 50
5, 99592, Note_on_c, 3, 66, 50
5, 99592, Note_on_c, 3, 61, 49
5, 99593, Note_on_c, 3, 61, 0
5, 99688, Note_on_c, 3, 66, 0
5, 99688, Note_on_c, 3, 58, 0
5, 99784, Note_on_c, 3, 65, 31
5, 99880, Note_on_c, 3, 65, 0
5, 99976, Note_on_c, 3, 65, 45
5, 99976, Note_on_c, 3, 57, 41
5, 99976, Note_on_c, 3, 64, 36
5, 100072, Note_on_c, 3, 64, 0
5, 100072, Note_on_c, 3, 57, 0
5, 100072, Note_on_c, 3, 65, 0
5, 100168, Note_on_c, 3, 64, 59
5, 100168, Note_on_c, 3, 57, 53
5, 100168, Note_on_c, 3, 65, 52
5, 100264, Note_on_c, 3, 65, 0
5, 100264, Note_on_c, 3, 57, 0
5, 100264, Note_on_c, 3, 64, 0
5, 100456, Note_on_c, 3, 64, 64
5, 100456, Note_on_c, 3, 57, 67
5, 100456, Note_on_c, 3, 65, 63
5, 100457, Note_on_c, 3, 57, 0
5, 100552, Note_on_c, 3, 65, 0
5, 100552, Note_on_c, 3, 64, 0
5, 100648, Note_on_c, 3, 65, 62
5, 100648, Note_on_c, 3, 64, 56
5, 100648, Note_on_c, 3, 57, 54
5, 100744, Note_on_c, 3, 57, 0
5, 100744, Note_on_c, 3, 64, 0
5, 100744, Note_on_c, 3, 65, 0
5, 100840, Note_on_c, 3, 64, 54
5, 100840, Note_on_c, 3, 57, 34
5, 100840, Note_on_c, 3, 65, 37
5, 100841, Note_on_c, 3, 65, 0
5, 100841, Note_on_c, 3, 57, 0
5, 100936, Note_on_c, 3, 64, 0
5, 100936, Note_on_c, 3, 64, 57
5, 100936, Note_on_c, 3, 57, 48
5, 100936, Note_on_c, 3, 65, 57
5, 100937, Note_on_c, 3, 57, 0
5, 101032, Note_on_c, 3, 65, 0
5, 101032, Note_on_c, 3, 64, 0
5, 101128, Note_on_c, 3, 65, 72
5, 101128, Note_on_c, 3, 64, 72
5, 101128, Note_on_c, 3, 57, 72
5, 101224, Note_on_c, 3, 57, 0
5, 101224, Note_on_c, 3, 64, 0
5, 101224, Note_on_c, 3, 65, 0
5, 101416, Note_on_c, 3, 61, 60
5, 101416, Note_on_c, 3, 65, 62
5, 101416, Note_on_c, 3, 57, 63
5, 101417, Note_on_c, 3, 57, 0
5, 101417, Note_on_c, 3, 61, 0
5, 101512, Note_on_c, 3, 65, 0
5, 101512, Note_on_c, 3, 65, 43
5, 101512, Note_on_c, 3, 61, 37
5, 101512, Note_on_c, 3, 57, 23
5, 101608, Note_on_c, 3, 57, 0
5, 101608, Note_on_c, 3, 61, 0
5, 101608, Note_on_c, 3, 65, 0
5, 101704, Note_on_c, 3, 65, 65
5, 101704, Note_on_c, 3, 57, 61
5, 101704, Note_on_c, 3, 61, 55
5, 101800, Note_on_c, 3, 61, 0
5, 101800, Note_on_c, 3, 57, 0
5, 101800, Note_on_c, 3, 65, 0
5, 101992, Note_on_c, 3, 61, 53
5, 101992, Note_on_c, 3, 65, 53
5, 101992, Note_on_c, 3, 57, 50
5, 102088, Note_on_c, 3, 57, 0
5, 102088, Note_on_c, 3, 65, 0
5, 102088, Note_on_c, 3, 61, 0
5, 102280, Note_on_c, 3, 65, 88
5, 102280, Note_on_c, 3, 61, 76
5, 102280, Note_on_c, 3, 57, 88
5, 102376, Note_on_c, 3, 57, 0
5, 102376, Note_on_c, 3, 61, 0
5, 102376, Note_on_c, 3, 65, 0
5, 102568, Note_on_c, 3, 61, 78
5, 102568, Note_on_c, 3, 57, 88
5, 102568, Note_on_c, 3, 65, 76
5, 102664, Note_on_c, 3, 57, 0
5, 102664, Note_on_c, 3, 61, 0
5, 102664, Note_on_c, 3, 61, 24
5, 102760, Note_on_c, 3, 61, 0
5, 102760, Note_on_c, 3, 65, 0
5, 102760, Note_on_c, 3, 61, 25
5, 102760, Note_on_c, 3, 57, 19
5, 102760, Note_on_c, 3, 65, 14
5, 102856, Note_on_c, 3, 65, 0
5, 102856, Note_on_c, 3, 57, 0
5, 102856, Note_on_c, 3, 61, 0
5, 102856, Note_on_c, 3, 57, 66
5, 102856, Note_on_c, 3, 65, 60
5, 102856, Note_on_c, 3, 60, 88
5, 102952, Note_on_c, 3, 60, 0
5, 102952, Note_on_c, 3, 65, 0
5, 102952, Note_on_c, 3, 57, 0
5, 103144, Note_on_c, 3, 57, 68
5, 103144, Note_on_c, 3, 65, 68
5, 103144, Note_on_c, 3, 60, 84
5, 103240, Note_on_c, 3, 60, 0
5, 103240, Note_on_c, 3, 65, 0
5, 103240, Note_on_c, 3, 57, 0
5, 103432, Note_on_c, 3, 60, 28
5, 103432, Note_on_c, 3, 57, 74
5, 103432, Note_on_c, 3, 60, 80
5, 103433, Note_on_c, 3, 60, 0
5, 103528, Note_on_c, 3, 60, 0
5, 103528, Note_on_c, 3, 57, 0
5, 103720, Note_on_c, 3, 65, 70
5, 103720, Note_on_c, 3, 57, 69
5, 103720, Note_on_c, 3, 60, 65
5, 103721, Note_on_c, 3, 60, 0
5, 103816, Note_on_c, 3, 57, 0
5, 103816, Note_on_c, 3, 65, 0
5, 104008, Note_on_c, 3, 57, 78
5, 104008, Note_on_c, 3, 65, 72
5, 104008, Note_on_c, 3, 60, 88
5, 104104, Note_on_c, 3, 60, 0
5, 104104, Note_on_c, 3, 65, 0
5, 104104, Note_on_c, 3, 57, 0
5, 104296, Note_on_c, 3, 65, 76
5, 104296, Note_on_c, 3, 57, 69
5, 104296, Note_on_c, 3, 59, 80
5, 104392, Note_on_c, 3, 59, 0
5, 104392, Note_on_c, 3, 57, 0
5, 104392, Note_on_c, 3, 65, 0
5, 104488, Note_on_c, 3, 57, 29
5, 104489, Note_on_c, 3, 57, 0
5, 104584, Note_on_c, 3, 57, 82
5, 104584, Note_on_c, 3, 65, 84
5, 104584, Note_on_c, 3, 59, 90
5, 104680, Note_on_c, 3, 59, 0
5, 104680, Note_on_c, 3, 65, 0
5, 104680, Note_on_c, 3, 57, 0
5, 104872, Note_on_c, 3, 64, 69
5, 104872, Note_on_c, 3, 59, 82
5, 104872, Note_on_c, 3, 57, 60
5, 104968, Note_on_c, 3, 57, 0
5, 104968, Note_on_c, 3, 59, 0
5, 104968, Note_on_c, 3, 64, 0
5, 105160, Note_on_c, 3, 62, 60
5, 105160, Note_on_c, 3, 57, 46
5, 105160, Note_on_c, 3, 59, 67
5, 105161, Note_on_c, 3, 59, 0
5, 105161, Note_on_c, 3, 57, 0
5, 105256, Note_on_c, 3, 62, 0
5, 105352, Note_on_c, 3, 57, 40
5, 105448, Note_on_c, 3, 57, 0
5, 105544, Note_on_c, 3, 62, 69
5, 105544, Note_on_c, 3, 59, 78
5, 105544, Note_on_c, 3, 57, 65
5, 105640, Note_on_c, 3, 57, 0
5, 105640, Note_on_c, 3, 59, 0
5, 105640, Note_on_c, 3, 62, 0
5, 105736, Note_on_c, 3, 57, 50
5, 105832, Note_on_c, 3, 57, 0
5, 105928, Note_on_c, 3, 57, 90
5, 105928, Note_on_c, 3, 65, 74
5, 105928, Note_on_c, 3, 58, 57
5, 105928, Note_on_c, 3, 62, 45
5, 106024, Note_on_c, 3, 62, 0
5, 106024, Note_on_c, 3, 57, 0
5, 106024, Note_on_c, 3, 65, 0
5, 106024, Note_on_c, 3, 58, 0
5, 106408, Note_on_c, 3, 69, 64
5, 106408, Note_on_c, 3, 62, 78
5, 106408, Note_on_c, 3, 58, 60
5, 106408, Note_on_c, 3, 65, 56
5, 106504, Note_on_c, 3, 65, 0
5, 106504, Note_on_c, 3, 69, 0
5, 106504, Note_on_c, 3, 62, 0
5, 106504, Note_on_c, 3, 58, 0
5, 106696, Note_on_c, 3, 58, 72
5, 106696, Note_on_c, 3, 62, 66
5, 106696, Note_on_c, 3, 65, 76
5, 106696, Note_on_c, 3, 57, 86
5, 106696, Note_on_c, 3, 64, 23
5, 106792, Note_on_c, 3, 64, 0
5, 106792, Note_on_c, 3, 65, 0
5, 106792, Note_on_c, 3, 58, 0
5, 106792, Note_on_c, 3, 62, 0
5, 106792, Note_on_c, 3, 57, 0
5, 106984, Note_on_c, 3, 58, 61
5, 106984, Note_on_c, 3, 57, 65
5, 106984, Note_on_c, 3, 62, 72
5, 107080, Note_on_c, 3, 62, 0
5, 107080, Note_on_c, 3, 57, 0
5, 107080, Note_on_c, 3, 58, 0
5, 107464, Note_on_c, 3, 61, 63
5, 107464, Note_on_c, 3, 58, 65
5, 107464, Note_on_c, 3, 55, 94
5, 107465, Note_on_c, 3, 55, 0
5, 107560, Note_on_c, 3, 58, 0
5, 107560, Note_on_c, 3, 61, 0
5, 107752, Note_on_c, 3, 61, 76
5, 107752, Note_on_c, 3, 70, 59
5, 107752, Note_on_c, 3, 66, 58
5, 107753, Note_on_c, 3, 70, 0
5, 107753, Note_on_c, 3, 61, 0
5, 107848, Note_on_c, 3, 66, 0
5, 107848, Note_on_c, 3, 70, 41
5, 107848, Note_on_c, 3, 61, 59
5, 107848, Note_on_c, 3, 66, 42
5, 107944, Note_on_c, 3, 66, 0
5, 107944, Note_on_c, 3, 61, 0
5, 107944, Note_on_c, 3, 70, 0
5, 108136, Note_on_c, 3, 69, 76
5, 108136, Note_on_c, 3, 61, 65
5, 108136, Note_on_c, 3, 64, 74
5, 108232, Note_on_c, 3, 64, 0
5, 108232, Note_on_c, 3, 61, 0
5, 108232, Note_on_c, 3, 69, 0
5, 108416, Note_on_c, 3, 61, 63
5, 108416, Note_on_c, 3, 67, 69
5, 108416, Note_on_c, 3, 58, 56
5, 108608, Note_on_c, 3, 58, 0
5, 108608, Note_on_c, 3, 67, 0
5, 108608, Note_on_c, 3, 61, 0
5, 108704, Note_on_c, 3, 58, 45
5, 108704, Note_on_c, 3, 61, 55
5, 108704, Note_on_c, 3, 64, 58
5, 108808, Note_on_c, 3, 64, 0
5, 108808, Note_on_c, 3, 58, 0
5, 108904, Note_on_c, 3, 61, 0
5, 108992, Note_on_c, 3, 57, 34
5, 108992, Note_on_c, 3, 64, 34
5, 108992, Note_on_c, 3, 60, 50
5, 108992, Note_on_c, 3, 65, 32
5, 108992, Note_on_c, 3, 67, 22
5, 108993, Note_on_c, 3, 67, 0
5, 108993, Note_on_c, 3, 60, 0
5, 108993, Note_on_c, 3, 65, 0
5, 109096, Note_on_c, 3, 64, 0
5, 109096, Note_on_c, 3, 57, 0
5, 109184, Note_on_c, 3, 65, 63
5, 109184, Note_on_c, 3, 64, 55
5, 109184, Note_on_c, 3, 57, 56
5, 109184, Note_on_c, 3, 60, 65
5, 109288, Note_on_c, 3, 60, 0
5, 109288, Note_on_c, 3, 65, 0
5, 109288, Note_on_c, 3, 64, 0
5, 109288, Note_on_c, 3, 57, 0
5, 109384, Note_on_c, 3, 57, 69
5, 109384, Note_on_c, 3, 64, 61
5, 109384, Note_on_c, 3, 65, 64
5, 109384, Note_on_c, 3, 60, 69
5, 109472, Note_on_c, 3, 60, 0
5, 109472, Note_on_c, 3, 57, 0
5, 109472, Note_on_c, 3, 64, 0
5, 109472, Note_on_c, 3, 65, 0
5, 109472, Note_on_c, 3, 57, 16
5, 109472, Note_on_c, 3, 60, 45
5, 109472, Note_on_c, 3, 64, 27
5, 109472, Note_on_c, 3, 65, 28
5, 109576, Note_on_c, 3, 65, 0
5, 109576, Note_on_c, 3, 57, 0
5, 109576, Note_on_c, 3, 60, 0
5, 109576, Note_on_c, 3, 64, 0
5, 109664, Note_on_c, 3, 60, 80
5, 109664, Note_on_c, 3, 65, 63
5, 109664, Note_on_c, 3, 64, 55
5, 109664, Note_on_c, 3, 57, 66
5, 109760, Note_on_c, 3, 57, 0
5, 109760, Note_on_c, 3, 60, 0
5, 109760, Note_on_c, 3, 65, 0
5, 109760, Note_on_c, 3, 64, 0
5, 109856, Note_on_c, 3, 65, 54
5, 109856, Note_on_c, 3, 57, 54
5, 109856, Note_on_c, 3, 60, 55
5, 109856, Note_on_c, 3, 64, 33
5, 109952, Note_on_c, 3, 64, 0
5, 109952, Note_on_c, 3, 65, 0
5, 109952, Note_on_c, 3, 57, 0
5, 109952, Note_on_c, 3, 60, 0
5, 109952, Note_on_c, 3, 57, 68
5, 109952, Note_on_c, 3, 65, 80
5, 109952, Note_on_c, 3, 64, 40
5, 109952, Note_on_c, 3, 60, 74
5, 110048, Note_on_c, 3, 60, 0
5, 110048, Note_on_c, 3, 57, 0
5, 110048, Note_on_c, 3, 65, 0
5, 110048, Note_on_c, 3, 64, 0
5, 110144, Note_on_c, 3, 65, 76
5, 110144, Note_on_c, 3, 60, 86
5, 110144, Note_on_c, 3, 64, 63
5, 110144, Note_on_c, 3, 57, 67
5, 110145, Note_on_c, 3, 57, 0
5, 110240, Note_on_c, 3, 65, 0
5, 110240, Note_on_c, 3, 60, 0
5, 110240, Note_on_c, 3, 64, 0
5, 110528, Note_on_c, 3, 74, 84
5, 110528, Note_on_c, 3, 70, 52
5, 110528, Note_on_c, 3, 67, 70
5, 110528, Note_on_c, 3, 63, 74
5, 110624, Note_on_c, 3, 63, 0
5, 110624, Note_on_c, 3, 74, 0
5, 110624, Note_on_c, 3, 70, 0
5, 110624, Note_on_c, 3, 67, 0
5, 110720, Note_on_c, 3, 63, 76
5, 110720, Note_on_c, 3, 72, 67
5, 110720, Note_on_c, 3, 67, 70
5, 110720, Note_on_c, 3, 70, 29
5, 110721, Note_on_c, 3, 70, 0
5, 110816, Note_on_c, 3, 63, 0
5, 110816, Note_on_c, 3, 72, 0
5, 110816, Note_on_c, 3, 67, 0
5, 110912, Note_on_c, 3, 71, 74
5, 110912, Note_on_c, 3, 63, 49
5, 110912, Note_on_c, 3, 67, 50
5, 110913, Note_on_c, 3, 67, 0
5, 111008, Note_on_c, 3, 63, 0
5, 111008, Note_on_c, 3, 71, 0
5, 111008, Note_on_c, 3, 63, 34
5, 111008, Note_on_c, 3, 72, 63
5, 111008, Note_on_c, 3, 71, 28
5, 111104, Note_on_c, 3, 71, 0
5, 111104, Note_on_c, 3, 72, 0
5, 111104, Note_on_c, 3, 63, 0
5, 111200, Note_on_c, 3, 66, 80
5, 111200, Note_on_c, 3, 74, 76
5, 111200, Note_on_c, 3, 62, 90
5, 111200, Note_on_c, 3, 69, 62
5, 111200, Note_on_c, 3, 72, 39
5, 111200, Note_on_c, 3, 70, 30
5, 111201, Note_on_c, 3, 70, 0
5, 111392, Note_on_c, 3, 74, 0
5, 111392, Note_on_c, 3, 62, 0
5, 111392, Note_on_c, 3, 66, 0
5, 111392, Note_on_c, 3, 72, 0
5, 111392, Note_on_c, 3, 69, 0
5, 111488, Note_on_c, 3, 72, 69
5, 111488, Note_on_c, 3, 66, 64
5, 111488, Note_on_c, 3, 62, 80
5, 111488, Note_on_c, 3, 69, 61
5, 111680, Note_on_c, 3, 69, 0
5, 111776, Note_on_c, 3, 72, 0
5, 111776, Note_on_c, 3, 66, 0
5, 111776, Note_on_c, 3, 62, 0
5, 111872, Note_on_c, 3, 66, 55
5, 111872, Note_on_c, 3, 62, 55
5, 111968, Note_on_c, 3, 62, 0
5, 111968, Note_on_c, 3, 66, 0
5, 112064, Note_on_c, 3, 61, 64
5, 112064, Note_on_c, 3, 60, 86
5, 112064, Note_on_c, 3, 65, 66
5, 112065, Note_on_c, 3, 60, 0
5, 112160, Note_on_c, 3, 65, 0
5, 112160, Note_on_c, 3, 61, 0
5, 112256, Note_on_c, 3, 61, 62
5, 112256, Note_on_c, 3, 65, 70
5, 112256, Note_on_c, 3, 60, 90
5, 112352, Note_on_c, 3, 60, 0
5, 112352, Note_on_c, 3, 65, 0
5, 112352, Note_on_c, 3, 61, 0
5, 112448, Note_on_c, 3, 61, 59
5, 112448, Note_on_c, 3, 65, 60
5, 112448, Note_on_c, 3, 58, 50
5, 112640, Note_on_c, 3, 58, 0
5, 112640, Note_on_c, 3, 65, 0
5, 112640, Note_on_c, 3, 61, 0
5, 112736, Note_on_c, 3, 61, 67
5, 112736, Note_on_c, 3, 65, 60
5, 112736, Note_on_c, 3, 57, 70
5, 112832, Note_on_c, 3, 57, 0
5, 112832, Note_on_c, 3, 65, 0
5, 112832, Note_on_c, 3, 61, 0
5, 112928, Note_on_c, 3, 65, 64
5, 112928, Note_on_c, 3, 61, 60
5, 112928, Note_on_c, 3, 57, 67
5, 113024, Note_on_c, 3, 57, 0
5, 113024, Note_on_c, 3, 61, 0
5, 113024, Note_on_c, 3, 65, 0
5, 113120, Note_on_c, 3, 65, 27
5, 113120, Note_on_c, 3, 61, 36
5, 113121, Note_on_c, 3, 61, 0
5, 113121, Note_on_c, 3, 65, 0
5, 113216, Note_on_c, 3, 61, 44
5, 113216, Note_on_c, 3, 56, 47
5, 113216, Note_on_c, 3, 65, 57
5, 113312, Note_on_c, 3, 65, 0
5, 113312, Note_on_c, 3, 56, 0
5, 113312, Note_on_c, 3, 61, 0
5, 113408, Note_on_c, 3, 56, 54
5, 113408, Note_on_c, 3, 65, 58
5, 113408, Note_on_c, 3, 61, 45
5, 113409, Note_on_c, 3, 61, 0
5, 113504, Note_on_c, 3, 65, 0
5, 113504, Note_on_c, 3, 56, 0
5, 113600, Note_on_c, 3, 61, 61
5, 113600, Note_on_c, 3, 65, 57
5, 113600, Note_on_c, 3, 55, 80
5, 113888, Note_on_c, 3, 55, 0
5, 113888, Note_on_c, 3, 65, 0
5, 113888, Note_on_c, 3, 61, 0
5, 113888, Note_on_c, 3, 65, 48
5, 113888, Note_on_c, 3, 55, 69
5, 113888, Note_on_c, 3, 61, 82
5, 113984, Note_on_c, 3, 61, 0
5, 113984, Note_on_c, 3, 55, 0
5, 113984, Note_on_c, 3, 65, 0
5, 114176, Note_on_c, 3, 61, 64
5, 114176, Note_on_c, 3, 65, 56
5, 114176, Note_on_c, 3, 55, 58
5, 114177, Note_on_c, 3, 55, 0
5, 114272, Note_on_c, 3, 65, 0
5, 114272, Note_on_c, 3, 61, 0
5, 114368, Note_on_c, 3, 66, 80
5, 114368, Note_on_c, 3, 61, 90
5, 114368, Note_on_c, 3, 55, 102
5, 114752, Note_on_c, 3, 55, 0
5, 114752, Note_on_c, 3, 61, 0
5, 114848, Note_on_c, 3, 66, 0
5, 114848, Note_on_c, 3, 61, 84
5, 114848, Note_on_c, 3, 55, 98
5, 115040, Note_on_c, 3, 55, 0
5, 115040, Note_on_c, 3, 61, 0
5, 115136, Note_on_c, 3, 65, 52
5, 115136, Note_on_c, 3, 54, 23
5, 115137, Note_on_c, 3, 54, 0
5, 115232, Note_on_c, 3, 65, 0
5, 115328, Note_on_c, 3, 54, 59
5, 115328, Note_on_c, 3, 65, 67
5, 115328, Note_on_c, 3, 58, 57
5, 115328, Note_on_c, 3, 60, 68
5, 115328, Note_on_c, 3, 63, 19
5, 115424, Note_on_c, 3, 63, 0
5, 115520, Note_on_c, 3, 60, 0
5, 115616, Note_on_c, 3, 54, 0
5, 115616, Note_on_c, 3, 65, 0
5, 115616, Note_on_c, 3, 58, 0
5, 115616, Note_on_c, 3, 58, 36
5, 115616, Note_on_c, 3, 63, 55
5, 115616, Note_on_c, 3, 54, 32
5, 115616, Note_on_c, 3, 60, 48
5, 115712, Note_on_c, 3, 60, 0
5, 115808, Note_on_c, 3, 58, 0
5, 115808, Note_on_c, 3, 63, 0
5, 115808, Note_on_c, 3, 54, 0
5, 115904, Note_on_c, 3, 65, 72
5, 115904, Note_on_c, 3, 54, 58
5, 115904, Note_on_c, 3, 58, 60
5, 115904, Note_on_c, 3, 60, 72
5, 116096, Note_on_c, 3, 60, 0
5, 116096, Note_on_c, 3, 65, 0
5, 116096, Note_on_c, 3, 54, 0
5, 116096, Note_on_c, 3, 58, 0
5, 116192, Note_on_c, 3, 54, 54
5, 116192, Note_on_c, 3, 63, 60
5, 116192, Note_on_c, 3, 58, 55
5, 116192, Note_on_c, 3, 60, 65
5, 116192, Note_on_c, 3, 60, 20
5, 116193, Note_on_c, 3, 60, 0
5, 116384, Note_on_c, 3, 58, 0
5, 116384, Note_on_c, 3, 60, 0
5, 116384, Note_on_c, 3, 54, 0
5, 116480, Note_on_c, 3, 63, 0
5, 116480, Note_on_c, 3, 58, 16
5, 116480, Note_on_c, 3, 54, 27
5, 116480, Note_on_c, 3, 60, 52
5, 116481, Note_on_c, 3, 60, 0
5, 116576, Note_on_c, 3, 54, 0
5, 116576, Note_on_c, 3, 58, 0
5, 116864, Note_on_c, 3, 54, 52
5, 116864, Note_on_c, 3, 65, 64
5, 116864, Note_on_c, 3, 58, 56
5, 116864, Note_on_c, 3, 60, 65
5, 117056, Note_on_c, 3, 60, 0
5, 117056, Note_on_c, 3, 54, 0
5, 117056, Note_on_c, 3, 65, 0
5, 117056, Note_on_c, 3, 58, 0
5, 117152, Note_on_c, 3, 58, 52
5, 117152, Note_on_c, 3, 54, 31
5, 117152, Note_on_c, 3, 63, 31
5, 117248, Note_on_c, 3, 63, 0
5, 117248, Note_on_c, 3, 54, 0
5, 117248, Note_on_c, 3, 58, 0
5, 117632, Note_on_c, 3, 54, 76
5, 117632, Note_on_c, 3, 65, 88
5, 117632, Note_on_c, 3, 69, 76
5, 117632, Note_on_c, 3, 60, 94
5, 117728, Note_on_c, 3, 60, 0
5, 117728, Note_on_c, 3, 54, 0
5, 117728, Note_on_c, 3, 65, 0
5, 117728, Note_on_c, 3, 69, 0
5, 117920, Note_on_c, 3, 54, 78
5, 117920, Note_on_c, 3, 69, 72
5, 117920, Note_on_c, 3, 65, 84
5, 117920, Note_on_c, 3, 60, 76
5, 118112, Note_on_c, 3, 60, 0
5, 118112, Note_on_c, 3, 54, 0
5, 118112, Note_on_c, 3, 69, 0
5, 118112, Note_on_c, 3, 65, 0
5, 118208, Note_on_c, 3, 68, 55
5, 118208, Note_on_c, 3, 65, 58
5, 118208, Note_on_c, 3, 60, 64
5, 118208, Note_on_c, 3, 53, 62
5, 118209, Note_on_c, 3, 60, 0
5, 118304, Note_on_c, 3, 68, 0
5, 118304, Note_on_c, 3, 65, 0
5, 118304, Note_on_c, 3, 53, 0
5, 118400, Note_on_c, 3, 68, 66
5, 118400, Note_on_c, 3, 65, 69
5, 118400, Note_on_c, 3, 60, 76
5, 118400, Note_on_c, 3, 53, 74
5, 118592, Note_on_c, 3, 53, 0
5, 118592, Note_on_c, 3, 68, 0
5, 118592, Note_on_c, 3, 65, 0
5, 118592, Note_on_c, 3, 60, 0
5, 118688, Note_on_c, 3, 68, 61
5, 118688, Note_on_c, 3, 65, 65
5, 118688, Note_on_c, 3, 60, 70
5, 118688, Note_on_c, 3, 53, 70
5, 118688, Note_on_c, 3, 66, 18
5, 118784, Note_on_c, 3, 66, 0
5, 118784, Note_on_c, 3, 60, 0
5, 118784, Note_on_c, 3, 68, 0
5, 118784, Note_on_c, 3, 65, 0
5, 118784, Note_on_c, 3, 53, 0
5, 118976, Note_on_c, 3, 68, 54
5, 118976, Note_on_c, 3, 65, 65
5, 118976, Note_on_c, 3, 53, 82
5, 118976, Note_on_c, 3, 60, 80
5, 119168, Note_on_c, 3, 60, 0
5, 119168, Note_on_c, 3, 68, 0
5, 119168, Note_on_c, 3, 65, 0
5, 119168, Note_on_c, 3, 53, 0
5, 119264, Note_on_c, 3, 68, 62
5, 119264, Note_on_c, 3, 65, 76
5, 119264, Note_on_c, 3, 53, 88
5, 119264, Note_on_c, 3, 60, 98
5, 119360, Note_on_c, 3, 53, 0
5, 119456, Note_on_c, 3, 60, 0
5, 119552, Note_on_c, 3, 65, 0
5, 119552, Note_on_c, 3, 68, 0
5, 119552, Note_on_c, 3, 60, 54
5, 119553, Note_on_c, 3, 60, 0
5, 119744, Note_on_c, 3, 64, 68
5, 119744, Note_on_c, 3, 53, 84
5, 119744, Note_on_c, 3, 59, 64
5, 119745, Note_on_c, 3, 53, 0
5, 119840, Note_on_c, 3, 59, 0
5, 119840, Note_on_c, 3, 64, 0
5, 119936, Note_on_c, 3, 64, 80
5, 119936, Note_on_c, 3, 59, 98
5, 119936, Note_on_c, 3, 53, 82
5, 120032, Note_on_c, 3, 53, 0
5, 120032, Note_on_c, 3, 59, 0
5, 120032, Note_on_c, 3, 64, 0
5, 120224, Note_on_c, 3, 64, 72
5, 120224, Note_on_c, 3, 53, 66
5, 120224, Note_on_c, 3, 59, 74
5, 120225, Note_on_c, 3, 53, 0
5, 120320, Note_on_c, 3, 59, 0
5, 120320, Note_on_c, 3, 64, 0
5, 120512, Note_on_c, 3, 64, 69
5, 120512, Note_on_c, 3, 53, 92
5, 120512, Note_on_c, 3, 61, 51
5, 120512, Note_on_c, 3, 57, 65
5, 120512, Note_on_c, 3, 62, 48
5, 120513, Note_on_c, 3, 62, 0
5, 120513, Note_on_c, 3, 53, 0
5, 120608, Note_on_c, 3, 64, 0
5, 120608, Note_on_c, 3, 61, 0
5, 120608, Note_on_c, 3, 57, 0
5, 120800, Note_on_c, 3, 64, 74
5, 120800, Note_on_c, 3, 56, 56
5, 120800, Note_on_c, 3, 59, 84
5, 120800, Note_on_c, 3, 53, 76
5, 120800, Note_on_c, 3, 62, 26
5, 120801, Note_on_c, 3, 62, 0
5, 120992, Note_on_c, 3, 59, 0
5, 120992, Note_on_c, 3, 53, 0
5, 120992, Note_on_c, 3, 64, 0
5, 121088, Note_on_c, 3, 56, 0
5, 121088, Note_on_c, 3, 53, 33
5, 121088, Note_on_c, 3, 62, 30
5, 121089, Note_on_c, 3, 62, 0
5, 121089, Note_on_c, 3, 53, 0
5, 121280, Note_on_c, 3, 58, 82
5, 121280, Note_on_c, 3, 69, 80
5, 121280, Note_on_c, 3, 62, 84
5, 121280, Note_on_c, 3, 65, 68
5, 121472, Note_on_c, 3, 65, 0
5, 121472, Note_on_c, 3, 58, 0
5, 121472, Note_on_c, 3, 69, 0
5, 121472, Note_on_c, 3, 62, 0
5, 121568, Note_on_c, 3, 58, 63
5, 121568, Note_on_c, 3, 62, 69
5, 121568, Note_on_c, 3, 67, 67
5, 121664, Note_on_c, 3, 62, 0
5, 121760, Note_on_c, 3, 67, 0
5, 121760, Note_on_c, 3, 58, 0
5, 121856, Note_on_c, 3, 66, 64
5, 121856, Note_on_c, 3, 58, 61
5, 121856, Note_on_c, 3, 62, 80
5, 122048, Note_on_c, 3, 62, 0
5, 122144, Note_on_c, 3, 58, 0
5, 122144, Note_on_c, 3, 66, 0
5, 122144, Note_on_c, 3, 62, 67
5, 122144, Note_on_c, 3, 58, 61
5, 122144, Note_on_c, 3, 67, 78
5, 122336, Note_on_c, 3, 58, 0
5, 122432, Note_on_c, 3, 67, 0
5, 122432, Note_on_c, 3, 62, 0
5, 122432, Note_on_c, 3, 66, 42
5, 122432, Note_on_c, 3, 62, 19
5, 122432, Note_on_c, 3, 58, 23
5, 122528, Note_on_c, 3, 58, 0
5, 122528, Note_on_c, 3, 62, 0
5, 122528, Note_on_c, 3, 66, 0
5, 122624, Note_on_c, 3, 58, 32
5, 122624, Note_on_c, 3, 67, 55
5, 122712, Note_on_c, 3, 67, 0
5, 122712, Note_on_c, 3, 58, 0
5, 122816, Note_on_c, 3, 58, 54
5, 122816, Note_on_c, 3, 64, 72
5, 122816, Note_on_c, 3, 55, 98
5, 122816, Note_on_c, 3, 61, 55
5, 122816, Note_on_c, 3, 45, 57
5, 122817, Note_on_c, 3, 55, 0
5, 122904, Note_on_c, 3, 61, 0
5, 122904, Note_on_c, 3, 58, 0
5, 122904, Note_on_c, 3, 64, 0
5, 122904, Note_on_c, 3, 45, 0
5, 123096, Note_on_c, 3, 63, 67
5, 123096, Note_on_c, 3, 58, 67
5, 123096, Note_on_c, 3, 55, 88
5, 123096, Note_on_c, 3, 45, 69
5, 123096, Note_on_c, 3, 60, 29
5, 123097, Note_on_c, 3, 60, 0
5, 123097, Note_on_c, 3, 55, 0
5, 123192, Note_on_c, 3, 63, 0
5, 123192, Note_on_c, 3, 58, 0
5, 123192, Note_on_c, 3, 45, 0
5, 123384, Note_on_c, 3, 63, 69
5, 123384, Note_on_c, 3, 58, 68
5, 123384, Note_on_c, 3, 55, 100
5, 123384, Note_on_c, 3, 61, 60
5, 123384, Note_on_c, 3, 45, 76
5, 123864, Note_on_c, 3, 45, 0
5, 123864, Note_on_c, 3, 55, 0
5, 123864, Note_on_c, 3, 63, 0
5, 123864, Note_on_c, 3, 58, 0
5, 123864, Note_on_c, 3, 61, 0
5, 123968, Note_on_c, 3, 61, 45
5, 123968, Note_on_c, 3, 58, 56
5, 123968, Note_on_c, 3, 65, 68
5, 123968, Note_on_c, 3, 55, 80
5, 123968, Note_on_c, 3, 45, 54
5, 124152, Note_on_c, 3, 45, 0
5, 124152, Note_on_c, 3, 65, 0
5, 124152, Note_on_c, 3, 61, 0
5, 124152, Note_on_c, 3, 58, 0
5, 124152, Note_on_c, 3, 55, 0
5, 124352, Note_on_c, 3, 69, 66
5, 124352, Note_on_c, 3, 64, 65
5, 124352, Note_on_c, 3, 65, 62
5, 124353, Note_on_c, 3, 65, 0
5, 124353, Note_on_c, 3, 64, 0
5, 124353, Note_on_c, 3, 69, 0
5, 124440, Note_on_c, 3, 64, 35
5, 124440, Note_on_c, 3, 65, 41
5, 124440, Note_on_c, 3, 69, 40
5, 124441, Note_on_c, 3, 69, 0
5, 124441, Note_on_c, 3, 65, 0
5, 124441, Note_on_c, 3, 64, 0
5, 124536, Note_on_c, 3, 62, 15
5, 124537, Note_on_c, 3, 62, 0
5, 124728, Note_on_c, 3, 69, 68
5, 124728, Note_on_c, 3, 64, 64
5, 124728, Note_on_c, 3, 65, 65
5, 124920, Note_on_c, 3, 65, 0
5, 124920, Note_on_c, 3, 64, 0
5, 124920, Note_on_c, 3, 69, 0
5, 124920, Note_on_c, 3, 62, 51
5, 125016, Note_on_c, 3, 62, 0
5, 125112, Note_on_c, 3, 69, 63
5, 125112, Note_on_c, 3, 64, 65
5, 125112, Note_on_c, 3, 65, 55
5, 125113, Note_on_c, 3, 65, 0
5, 125208, Note_on_c, 3, 64, 0
5, 125208, Note_on_c, 3, 69, 0
5, 125304, Note_on_c, 3, 64, 67
5, 125304, Note_on_c, 3, 69, 55
5, 125304, Note_on_c, 3, 65, 59
5, 125305, Note_on_c, 3, 69, 0
5, 125400, Note_on_c, 3, 65, 0
5, 125400, Note_on_c, 3, 64, 0
5, 125496, Note_on_c, 3, 69, 68
5, 125496, Note_on_c, 3, 64, 66
5, 125496, Note_on_c, 3, 65, 64
5, 125592, Note_on_c, 3, 65, 0
5, 125592, Note_on_c, 3, 64, 0
5, 125592, Note_on_c, 3, 69, 0
5, 125592, Note_on_c, 3, 64, 52
5, 125688, Note_on_c, 3, 64, 0
5, 125688, Note_on_c, 3, 60, 27
5, 125688, Note_on_c, 3, 62, 25
5, 125784, Note_on_c, 3, 62, 0
5, 125784, Note_on_c, 3, 60, 0
5, 125880, Note_on_c, 3, 62, 76
5, 125880, Note_on_c, 3, 69, 78
5, 125880, Note_on_c, 3, 74, 48
5, 125880, Note_on_c, 3, 72, 46
5, 125881, Note_on_c, 3, 72, 0
5, 125976, Note_on_c, 3, 62, 0
5, 125976, Note_on_c, 3, 69, 0
5, 125976, Note_on_c, 3, 74, 0
5, 126264, Note_on_c, 3, 73, 69
5, 126264, Note_on_c, 3, 61, 84
5, 126264, Note_on_c, 3, 76, 96
5, 126264, Note_on_c, 3, 65, 98
5, 126264, Note_on_c, 3, 69, 69
5, 126264, Note_on_c, 3, 74, 23
5, 126360, Note_on_c, 3, 74, 0
5, 126456, Note_on_c, 3, 65, 0
5, 126456, Note_on_c, 3, 73, 0
5, 126456, Note_on_c, 3, 69, 0
5, 126552, Note_on_c, 3, 76, 0
5, 126648, Note_on_c, 3, 61, 0
5, 126648, Note_on_c, 3, 60, 96
5, 126648, Note_on_c, 3, 74, 84
5, 126648, Note_on_c, 3, 69, 92
5, 126648, Note_on_c, 3, 65, 94
5, 126840, Note_on_c, 3, 65, 0
5, 126840, Note_on_c, 3, 69, 0
5, 126840, Note_on_c, 3, 74, 0
5, 126936, Note_on_c, 3, 60, 0
5, 126936, Note_on_c, 3, 74, 67
5, 126936, Note_on_c, 3, 67, 100
5, 126936, Note_on_c, 3, 59, 100
5, 126936, Note_on_c, 3, 71, 63
5, 126936, Note_on_c, 3, 72, 21
5, 126937, Note_on_c, 3, 72, 0
5, 127224, Note_on_c, 3, 59, 0
5, 127224, Note_on_c, 3, 74, 0
5, 127224, Note_on_c, 3, 67, 0
5, 127224, Note_on_c, 3, 71, 0
5, 127416, Note_on_c, 3, 72, 68
5, 127416, Note_on_c, 3, 70, 53
5, 127416, Note_on_c, 3, 65, 60
5, 127416, Note_on_c, 3, 62, 74
5, 127416, Note_on_c, 3, 68, 45
5, 127416, Note_on_c, 3, 55, 94
5, 127417, Note_on_c, 3, 55, 0
5, 127417, Note_on_c, 3, 62, 0
5, 127417, Note_on_c, 3, 65, 0
5, 127417, Note_on_c, 3, 68, 0
5, 127512, Note_on_c, 3, 72, 0
5, 127512, Note_on_c, 3, 70, 0
5, 127608, Note_on_c, 3, 70, 56
5, 127608, Note_on_c, 3, 72, 70
5, 127608, Note_on_c, 3, 65, 57
5, 127608, Note_on_c, 3, 62, 90
5, 127608, Note_on_c, 3, 64, 70
5, 127608, Note_on_c, 3, 68, 42
5, 127608, Note_on_c, 3, 55, 94
5, 127609, Note_on_c, 3, 68, 0
5, 127609, Note_on_c, 3, 64, 0
5, 127704, Note_on_c, 3, 72, 0
5, 127704, Note_on_c, 3, 65, 0
5, 127704, Note_on_c, 3, 62, 0
5, 127704, Note_on_c, 3, 55, 0
5, 127800, Note_on_c, 3, 70, 0
5, 127896, Note_on_c, 3, 55, 110
5, 127896, Note_on_c, 3, 62, 92
5, 127896, Note_on_c, 3, 72, 70
5, 127896, Note_on_c, 3, 70, 55
5, 127896, Note_on_c, 3, 65, 72
5, 127896, Note_on_c, 3, 68, 32
5, 127897, Note_on_c, 3, 68, 0
5, 127992, Note_on_c, 3, 62, 0
5, 127992, Note_on_c, 3, 72, 0
5, 127992, Note_on_c, 3, 55, 0
5, 127992, Note_on_c, 3, 65, 0
5, 127992, Note_on_c, 3, 70, 0
5, 128376, Note_on_c, 3, 66, 19
5, 128472, Note_on_c, 3, 66, 0
5, 128568, Note_on_c, 3, 55, 80
5, 128568, Note_on_c, 3, 70, 49
5, 128568, Note_on_c, 3, 72, 65
5, 128568, Note_on_c, 3, 62, 78
5, 128568, Note_on_c, 3, 65, 54
5, 128568, Note_on_c, 3, 68, 26
5, 128569, Note_on_c, 3, 68, 0
5, 128664, Note_on_c, 3, 70, 0
5, 128664, Note_on_c, 3, 72, 0
5, 128664, Note_on_c, 3, 55, 0
5, 128664, Note_on_c, 3, 65, 0
5, 128664, Note_on_c, 3, 62, 0
5, 128664, Note_on_c, 3, 72, 62
5, 128664, Note_on_c, 3, 62, 60
5, 128664, Note_on_c, 3, 55, 65
5, 128664, Note_on_c, 3, 65, 50
5, 128664, Note_on_c, 3, 70, 21
5, 128664, Note_on_c, 3, 68, 18
5, 128665, Note_on_c, 3, 68, 0
5, 128665, Note_on_c, 3, 62, 0
5, 128665, Note_on_c, 3, 70, 0
5, 128760, Note_on_c, 3, 72, 0
5, 128760, Note_on_c, 3, 65, 0
5, 128760, Note_on_c, 3, 55, 0
5, 128760, Note_on_c, 3, 54, 41
5, 128856, Note_on_c, 3, 54, 0
5, 128952, Note_on_c, 3, 55, 94
5, 128952, Note_on_c, 3, 72, 64
5, 128952, Note_on_c, 3, 70, 47
5, 128952, Note_on_c, 3, 65, 66
5, 128952, Note_on_c, 3, 62, 76
5, 128952, Note_on_c, 3, 68, 23
5, 128953, Note_on_c, 3, 68, 0
5, 129048, Note_on_c, 3, 72, 0
5, 129048, Note_on_c, 3, 70, 0
5, 129048, Note_on_c, 3, 55, 0
5, 129048, Note_on_c, 3, 62, 0
5, 129048, Note_on_c, 3, 65, 0
5, 129240, Note_on_c, 3, 62, 78
5, 129240, Note_on_c, 3, 72, 67
5, 129240, Note_on_c, 3, 70, 42
5, 129240, Note_on_c, 3, 55, 94
5, 129240, Note_on_c, 3, 65, 59
5, 129240, Note_on_c, 3, 68, 31
5, 129241, Note_on_c, 3, 68, 0
5, 129336, Note_on_c, 3, 72, 0
5, 129336, Note_on_c, 3, 70, 0
5, 129336, Note_on_c, 3, 62, 0
5, 129336, Note_on_c, 3, 65, 0
5, 129336, Note_on_c, 3, 55, 0
5, 129528, Note_on_c, 3, 55, 100
5, 129528, Note_on_c, 3, 72, 74
5, 129528, Note_on_c, 3, 62, 90
5, 129528, Note_on_c, 3, 70, 35
5, 129528, Note_on_c, 3, 65, 67
5, 129528, Note_on_c, 3, 68, 28
5, 129529, Note_on_c, 3, 68, 0
5, 129624, Note_on_c, 3, 72, 0
5, 129624, Note_on_c, 3, 62, 0
5, 129624, Note_on_c, 3, 55, 0
5, 129624, Note_on_c, 3, 65, 0
5, 129624, Note_on_c, 3, 70, 0
5, 129816, Note_on_c, 3, 54, 32
5, 129912, Note_on_c, 3, 54, 0
5, 129912, Note_on_c, 3, 62, 66
5, 129912, Note_on_c, 3, 72, 51
5, 129912, Note_on_c, 3, 65, 51
5, 129912, Note_on_c, 3, 70, 30
5, 129912, Note_on_c, 3, 55, 94
5, 129912, Note_on_c, 3, 68, 16
5, 129913, Note_on_c, 3, 68, 0
5, 130008, Note_on_c, 3, 72, 0
5, 130008, Note_on_c, 3, 65, 0
5, 130008, Note_on_c, 3, 62, 0
5, 130008, Note_on_c, 3, 55, 0
5, 130008, Note_on_c, 3, 70, 0
5, 130104, Note_on_c, 3, 72, 70
5, 130104, Note_on_c, 3, 65, 69
5, 130104, Note_on_c, 3, 70, 36
5, 130104, Note_on_c, 3, 55, 104
5, 130104, Note_on_c, 3, 62, 80
5, 130104, Note_on_c, 3, 68, 33
5, 130105, Note_on_c, 3, 68, 0
5, 130200, Note_on_c, 3, 65, 0
5, 130200, Note_on_c, 3, 70, 0
5, 130200, Note_on_c, 3, 72, 0
5, 130200, Note_on_c, 3, 62, 0
5, 130200, Note_on_c, 3, 55, 0
5, 130488, Note_on_c, 3, 65, 84
5, 130488, Note_on_c, 3, 64, 88
5, 130488, Note_on_c, 3, 69, 68
5, 130488, Note_on_c, 3, 50, 61
5, 130488, Note_on_c, 3, 57, 43
5, 130584, Note_on_c, 3, 57, 0
5, 130584, Note_on_c, 3, 69, 0
5, 130584, Note_on_c, 3, 65, 0
5, 130584, Note_on_c, 3, 64, 0
5, 130584, Note_on_c, 3, 50, 0
5, 130584, Note_on_c, 3, 65, 49
5, 130584, Note_on_c, 3, 64, 31
5, 130680, Note_on_c, 3, 64, 0
5, 130680, Note_on_c, 3, 65, 0
5, 130680, Note_on_c, 3, 50, 15
5, 130680, Note_on_c, 3, 62, 17
5, 130776, Note_on_c, 3, 62, 0
5, 130776, Note_on_c, 3, 50, 0
5, 130872, Note_on_c, 3, 64, 72
5, 130872, Note_on_c, 3, 65, 72
5, 130872, Note_on_c, 3, 69, 68
5, 130872, Note_on_c, 3, 57, 51
5, 130872, Note_on_c, 3, 50, 50
5, 130968, Note_on_c, 3, 50, 0
5, 130968, Note_on_c, 3, 69, 0
5, 130968, Note_on_c, 3, 64, 0
5, 130968, Note_on_c, 3, 65, 0
5, 130968, Note_on_c, 3, 57, 0
5, 132024, Note_on_c, 3, 50, 92
5, 132024, Note_on_c, 3, 65, 88
5, 132024, Note_on_c, 3, 62, 86
5, 132024, Note_on_c, 3, 57, 88
5, 132216, Note_on_c, 3, 57, 0
5, 132216, Note_on_c, 3, 62, 0
5, 132216, Note_on_c, 3, 65, 0
5, 132312, Note_on_c, 3, 50, 0
5, 132408, Note_on_c, 3, 69, 74
5, 132408, Note_on_c, 3, 65, 67
5, 132408, Note_on_c, 3, 62, 80
5, 132408, Note_on_c, 3, 57, 69
5, 132408, Note_on_c, 3, 50, 74
5, 132600, Note_on_c, 3, 57, 0
5, 132600, Note_on_c, 3, 62, 0
5, 132600, Note_on_c, 3, 69, 0
5, 132600, Note_on_c, 3, 65, 0
5, 132696, Note_on_c, 3, 50, 0
5, 132792, Note_on_c, 3, 71, 74
5, 132792, Note_on_c, 3, 65, 90
5, 132792, Note_on_c, 3, 62, 92
5, 132888, Note_on_c, 3, 65, 0
5, 132888, Note_on_c, 3, 71, 0
5, 132984, Note_on_c, 3, 62, 0
5, 133080, Note_on_c, 3, 57, 76
5, 133080, Note_on_c, 3, 74, 74
5, 133080, Note_on_c, 3, 69, 74
5, 133080, Note_on_c, 3, 62, 76
5, 133176, Note_on_c, 3, 62, 0
5, 133176, Note_on_c, 3, 69, 0
5, 133176, Note_on_c, 3, 74, 0
5, 133272, Note_on_c, 3, 57, 0
5, 133560, Note_on_c, 3, 74, 90
5, 133560, Note_on_c, 3, 57, 74
5, 133560, Note_on_c, 3, 64, 90
5, 133560, Note_on_c, 3, 67, 78
5, 133560, Note_on_c, 3, 69, 63
5, 133656, Note_on_c, 3, 69, 0
5, 133656, Note_on_c, 3, 64, 0
5, 133656, Note_on_c, 3, 74, 0
5, 133656, Note_on_c, 3, 57, 0
5, 133656, Note_on_c, 3, 67, 0
5, 133752, Note_on_c, 3, 74, 86
5, 133752, Note_on_c, 3, 57, 82
5, 133752, Note_on_c, 3, 64, 92
5, 133752, Note_on_c, 3, 67, 88
5, 133752, Note_on_c, 3, 69, 68
5, 133848, Note_on_c, 3, 69, 0
5, 133848, Note_on_c, 3, 64, 0
5, 133848, Note_on_c, 3, 74, 0
5, 133848, Note_on_c, 3, 57, 0
5, 133848, Note_on_c, 3, 67, 0
5, 134520, Note_on_c, 3, 74, 70
5, 134520, Note_on_c, 3, 57, 66
5, 134520, Note_on_c, 3, 64, 80
5, 134520, Note_on_c, 3, 72, 65
5, 134520, Note_on_c, 3, 67, 78
5, 134616, Note_on_c, 3, 67, 0
5, 134616, Note_on_c, 3, 64, 0
5, 134616, Note_on_c, 3, 74, 0
5, 134616, Note_on_c, 3, 57, 0
5, 134616, Note_on_c, 3, 72, 0
5, 134616, Note_on_c, 3, 57, 45
5, 134616, Note_on_c, 3, 64, 61
5, 134616, Note_on_c, 3, 74, 65
5, 134616, Note_on_c, 3, 67, 64
5, 134616, Note_on_c, 3, 72, 70
5, 134712, Note_on_c, 3, 72, 0
5, 134712, Note_on_c, 3, 74, 0
5, 134712, Note_on_c, 3, 57, 0
5, 134712, Note_on_c, 3, 64, 0
5, 134712, Note_on_c, 3, 67, 0
5, 135096, Note_on_c, 3, 74, 64
5, 135096, Note_on_c, 3, 57, 69
5, 135096, Note_on_c, 3, 72, 59
5, 135096, Note_on_c, 3, 67, 67
5, 135096, Note_on_c, 3, 64, 69
5, 135192, Note_on_c, 3, 64, 0
5, 135192, Note_on_c, 3, 72, 0
5, 135192, Note_on_c, 3, 74, 0
5, 135192, Note_on_c, 3, 57, 0
5, 135192, Note_on_c, 3, 67, 0
5, 135192, Note_on_c, 3, 57, 55
5, 135192, Note_on_c, 3, 74, 44
5, 135192, Note_on_c, 3, 64, 57
5, 135192, Note_on_c, 3, 67, 68
5, 135192, Note_on_c, 3, 72, 52
5, 135193, Note_on_c, 3, 72, 0
5, 135288, Note_on_c, 3, 64, 0
5, 135288, Note_on_c, 3, 67, 0
5, 135288, Note_on_c, 3, 57, 0
5, 135288, Note_on_c, 3, 57, 49
5, 135288, Note_on_c, 3, 64, 55
5, 135288, Note_on_c, 3, 67, 69
5, 135288, Note_on_c, 3, 72, 44
5, 135384, Note_on_c, 3, 72, 0
5, 135384, Note_on_c, 3, 64, 0
5, 135384, Note_on_c, 3, 74, 0
5, 135384, Note_on_c, 3, 57, 0
5, 135384, Note_on_c, 3, 67, 0
5, 135480, Note_on_c, 3, 57, 86
5, 135480, Note_on_c, 3, 74, 80
5, 135480, Note_on_c, 3, 67, 84
5, 135480, Note_on_c, 3, 72, 62
5, 135480, Note_on_c, 3, 64, 72
5, 135576, Note_on_c, 3, 64, 0
5, 135576, Note_on_c, 3, 67, 0
5, 135576, Note_on_c, 3, 57, 0
5, 135576, Note_on_c, 3, 74, 0
5, 135576, Note_on_c, 3, 72, 0
5, 135768, Note_on_c, 3, 74, 63
5, 135768, Note_on_c, 3, 67, 68
5, 135768, Note_on_c, 3, 64, 69
5, 135768, Note_on_c, 3, 72, 60
5, 135768, Note_on_c, 3, 57, 84
5, 135864, Note_on_c, 3, 57, 0
5, 135864, Note_on_c, 3, 64, 0
5, 135864, Note_on_c, 3, 74, 0
5, 135864, Note_on_c, 3, 67, 0
5, 135864, Note_on_c, 3, 72, 0
5, 136056, Note_on_c, 3, 57, 78
5, 136056, Note_on_c, 3, 74, 55
5, 136056, Note_on_c, 3, 67, 67
5, 136056, Note_on_c, 3, 64, 80
5, 136056, Note_on_c, 3, 72, 42
5, 136056, Note_on_c, 3, 70, 23
5, 136057, Note_on_c, 3, 70, 0
5, 136248, Note_on_c, 3, 74, 0
5, 136248, Note_on_c, 3, 67, 0
5, 136248, Note_on_c, 3, 57, 0
5, 136248, Note_on_c, 3, 72, 0
5, 136248, Note_on_c, 3, 64, 0
5, 136440, Note_on_c, 3, 74, 60
5, 136440, Note_on_c, 3, 67, 61
5, 136440, Note_on_c, 3, 64, 70
5, 136440, Note_on_c, 3, 72, 49
5, 136440, Note_on_c, 3, 57, 62
5, 136536, Note_on_c, 3, 57, 0
5, 136536, Note_on_c, 3, 64, 0
5, 136536, Note_on_c, 3, 74, 0
5, 136536, Note_on_c, 3, 67, 0
5, 136536, Note_on_c, 3, 72, 0
5, 136632, Note_on_c, 3, 69, 82
5, 136632, Note_on_c, 3, 76, 88
5, 136632, Note_on_c, 3, 65, 80
5, 136632, Note_on_c, 3, 50, 67
5, 136632, Note_on_c, 3, 72, 52
5, 136728, Note_on_c, 3, 72, 0
5, 136728, Note_on_c, 3, 65, 0
5, 136728, Note_on_c, 3, 69, 0
5, 136728, Note_on_c, 3, 76, 0
5, 136728, Note_on_c, 3, 50, 0
5, 136824, Note_on_c, 3, 76, 76
5, 136824, Note_on_c, 3, 69, 69
5, 136824, Note_on_c, 3, 72, 63
5, 136824, Note_on_c, 3, 65, 78
5, 136824, Note_on_c, 3, 50, 68
5, 136920, Note_on_c, 3, 50, 0
5, 136920, Note_on_c, 3, 72, 0
5, 136920, Note_on_c, 3, 76, 0
5, 136920, Note_on_c, 3, 69, 0
5, 136920, Note_on_c, 3, 65, 0
5, 137016, Note_on_c, 3, 69, 58
5, 137016, Note_on_c, 3, 74, 53
5, 137016, Note_on_c, 3, 65, 62
5, 137016, Note_on_c, 3, 62, 65
5, 137112, Note_on_c, 3, 62, 0
5, 137112, Note_on_c, 3, 69, 0
5, 137112, Note_on_c, 3, 74, 0
5, 137112, Note_on_c, 3, 65, 0
5, 137112, Note_on_c, 3, 50, 57
5, 137208, Note_on_c, 3, 50, 0
5, 137584, Note_on_c, 3, 72, 70
5, 137584, Note_on_c, 3, 69, 70
5, 137584, Note_on_c, 3, 65, 88
5, 137584, Note_on_c, 3, 62, 80
5, 137680, Note_on_c, 3, 62, 0
5, 137680, Note_on_c, 3, 72, 0
5, 137680, Note_on_c, 3, 69, 0
5, 137680, Note_on_c, 3, 65, 0
5, 137872, Note_on_c, 3, 65, 74
5, 137872, Note_on_c, 3, 69, 62
5, 137872, Note_on_c, 3, 62, 78
5, 137872, Note_on_c, 3, 57, 63
5, 137976, Note_on_c, 3, 57, 0
5, 137976, Note_on_c, 3, 65, 0
5, 137976, Note_on_c, 3, 69, 0
5, 137976, Note_on_c, 3, 62, 0
5, 138064, Note_on_c, 3, 66, 22
5, 138065, Note_on_c, 3, 66, 0
5, 138168, Note_on_c, 3, 65, 69
5, 138168, Note_on_c, 3, 50, 70
5, 138168, Note_on_c, 3, 62, 70
5, 138168, Note_on_c, 3, 57, 50
5, 138168, Note_on_c, 3, 59, 41
5, 138169, Note_on_c, 3, 59, 0
5, 138256, Note_on_c, 3, 62, 0
5, 138256, Note_on_c, 3, 65, 0
5, 138256, Note_on_c, 3, 50, 0
5, 138256, Note_on_c, 3, 57, 0
5, 138544, Note_on_c, 3, 65, 70
5, 138544, Note_on_c, 3, 49, 65
5, 138544, Note_on_c, 3, 61, 76
5, 138544, Note_on_c, 3, 57, 76
5, 138648, Note_on_c, 3, 57, 0
5, 138648, Note_on_c, 3, 49, 0
5, 138736, Note_on_c, 3, 61, 0
5, 138736, Note_on_c, 3, 65, 0
5, 138928, Note_on_c, 3, 65, 88
5, 138928, Note_on_c, 3, 48, 88
5, 138928, Note_on_c, 3, 60, 96
5, 138928, Note_on_c, 3, 57, 80
5, 139024, Note_on_c, 3, 57, 0
5, 139024, Note_on_c, 3, 65, 0
5, 139024, Note_on_c, 3, 48, 0
5, 139024, Note_on_c, 3, 60, 0
5, 139216, Note_on_c, 3, 65, 82
5, 139216, Note_on_c, 3, 57, 76
5, 139216, Note_on_c, 3, 62, 72
5, 139216, Note_on_c, 3, 59, 80
5, 139216, Note_on_c, 3, 47, 61
5, 139312, Note_on_c, 3, 47, 0
5, 139312, Note_on_c, 3, 62, 0
5, 139312, Note_on_c, 3, 65, 0
5, 139312, Note_on_c, 3, 57, 0
5, 139312, Note_on_c, 3, 59, 0
5, 139504, Note_on_c, 3, 69, 59
5, 139504, Note_on_c, 3, 62, 70
5, 139504, Note_on_c, 3, 47, 61
5, 139505, Note_on_c, 3, 47, 0
5, 139505, Note_on_c, 3, 62, 0
5, 139505, Note_on_c, 3, 69, 0
5, 139696, Note_on_c, 3, 72, 68
5, 139696, Note_on_c, 3, 57, 82
5, 139696, Note_on_c, 3, 62, 80
5, 139696, Note_on_c, 3, 65, 62
5, 139696, Note_on_c, 3, 70, 38
5, 139696, Note_on_c, 3, 68, 27
5, 139697, Note_on_c, 3, 68, 0
5, 139697, Note_on_c, 3, 57, 0
5, 139792, Note_on_c, 3, 65, 0
5, 139792, Note_on_c, 3, 72, 0
5, 139792, Note_on_c, 3, 62, 0
5, 139792, Note_on_c, 3, 70, 0
5, 139984, Note_on_c, 3, 72, 74
5, 139984, Note_on_c, 3, 65, 76
5, 139984, Note_on_c, 3, 62, 86
5, 139984, Note_on_c, 3, 70, 46
5, 139984, Note_on_c, 3, 57, 78
5, 139984, Note_on_c, 3, 68, 29
5, 139985, Note_on_c, 3, 68, 0
5, 140080, Note_on_c, 3, 65, 0
5, 140080, Note_on_c, 3, 62, 0
5, 140080, Note_on_c, 3, 72, 0
5, 140080, Note_on_c, 3, 57, 0
5, 140080, Note_on_c, 3, 70, 0
5, 140272, Note_on_c, 3, 72, 90
5, 140272, Note_on_c, 3, 65, 86
5, 140272, Note_on_c, 3, 62, 100
5, 140272, Note_on_c, 3, 57, 80
5, 140272, Note_on_c, 3, 70, 41
5, 140560, Note_on_c, 3, 70, 0
5, 140560, Note_on_c, 3, 72, 0
5, 140560, Note_on_c, 3, 62, 0
5, 140560, Note_on_c, 3, 65, 0
5, 140656, Note_on_c, 3, 57, 0
5, 140656, Note_on_c, 3, 62, 88
5, 140656, Note_on_c, 3, 72, 78
5, 140656, Note_on_c, 3, 70, 39
5, 140656, Note_on_c, 3, 65, 64
5, 140656, Note_on_c, 3, 55, 98
5, 140752, Note_on_c, 3, 55, 0
5, 140752, Note_on_c, 3, 70, 0
5, 140752, Note_on_c, 3, 62, 0
5, 140752, Note_on_c, 3, 72, 0
5, 140752, Note_on_c, 3, 65, 0
5, 140848, Note_on_c, 3, 62, 80
5, 140848, Note_on_c, 3, 72, 72
5, 140848, Note_on_c, 3, 70, 34
5, 140848, Note_on_c, 3, 55, 110
5, 140848, Note_on_c, 3, 65, 66
5, 140848, Note_on_c, 3, 68, 22
5, 140849, Note_on_c, 3, 68, 0
5, 140944, Note_on_c, 3, 72, 0
5, 140944, Note_on_c, 3, 70, 0
5, 140944, Note_on_c, 3, 62, 0
5, 140944, Note_on_c, 3, 65, 0
5, 140944, Note_on_c, 3, 55, 0
5, 141616, Note_on_c, 3, 57, 69
5, 141616, Note_on_c, 3, 72, 76
5, 141616, Note_on_c, 3, 62, 88
5, 141616, Note_on_c, 3, 70, 43
5, 141616, Note_on_c, 3, 65, 65
5, 141616, Note_on_c, 3, 68, 23
5, 141617, Note_on_c, 3, 68, 0
5, 141617, Note_on_c, 3, 62, 0
5, 141712, Note_on_c, 3, 70, 0
5, 141712, Note_on_c, 3, 57, 0
5, 141712, Note_on_c, 3, 72, 0
5, 141712, Note_on_c, 3, 65, 0
5, 141712, Note_on_c, 3, 72, 62
5, 141712, Note_on_c, 3, 62, 48
5, 141712, Note_on_c, 3, 65, 58
5, 141712, Note_on_c, 3, 57, 52
5, 141713, Note_on_c, 3, 65, 0
5, 141713, Note_on_c, 3, 62, 0
5, 141808, Note_on_c, 3, 72, 0
5, 141808, Note_on_c, 3, 57, 0
5, 141808, Note_on_c, 3, 55, 64
5, 141809, Note_on_c, 3, 55, 0
5, 141904, Note_on_c, 3, 72, 69
5, 141904, Note_on_c, 3, 65, 68
5, 141904, Note_on_c, 3, 62, 64
5, 141904, Note_on_c, 3, 57, 70
5, 141904, Note_on_c, 3, 70, 33
5, 141904, Note_on_c, 3, 68, 17
5, 141905, Note_on_c, 3, 68, 0
5, 142000, Note_on_c, 3, 65, 0
5, 142000, Note_on_c, 3, 62, 0
5, 142000, Note_on_c, 3, 72, 0
5, 142000, Note_on_c, 3, 70, 0
5, 142000, Note_on_c, 3, 57, 0
5, 142192, Note_on_c, 3, 72, 84
5, 142192, Note_on_c, 3, 57, 62
5, 142192, Note_on_c, 3, 65, 78
5, 142192, Note_on_c, 3, 62, 80
5, 142288, Note_on_c, 3, 62, 0
5, 142288, Note_on_c, 3, 72, 0
5, 142288, Note_on_c, 3, 57, 0
5, 142288, Note_on_c, 3, 65, 0
5, 142384, Note_on_c, 3, 70, 60
5, 142384, Note_on_c, 3, 65, 66
5, 142384, Note_on_c, 3, 62, 65
5, 142384, Note_on_c, 3, 55, 90
5, 142480, Note_on_c, 3, 62, 0
5, 142480, Note_on_c, 3, 65, 0
5, 142576, Note_on_c, 3, 70, 0
5, 142576, Note_on_c, 3, 55, 0
5, 142576, Note_on_c, 3, 57, 35
5, 142576, Note_on_c, 3, 62, 29
5, 142672, Note_on_c, 3, 62, 0
5, 142672, Note_on_c, 3, 57, 0
5, 142768, Note_on_c, 3, 69, 58
5, 142768, Note_on_c, 3, 64, 66
5, 142768, Note_on_c, 3, 65, 65
5, 142768, Note_on_c, 3, 57, 31
5, 142768, Note_on_c, 3, 50, 44
5, 142864, Note_on_c, 3, 50, 0
5, 142864, Note_on_c, 3, 65, 0
5, 142864, Note_on_c, 3, 69, 0
5, 142864, Note_on_c, 3, 64, 0
5, 142864, Note_on_c, 3, 57, 0
5, 142960, Note_on_c, 3, 64, 72
5, 142960, Note_on_c, 3, 65, 76
5, 142960, Note_on_c, 3, 69, 61
5, 142960, Note_on_c, 3, 57, 60
5, 142960, Note_on_c, 3, 50, 58
5, 143056, Note_on_c, 3, 50, 0
5, 143056, Note_on_c, 3, 69, 0
5, 143056, Note_on_c, 3, 64, 0
5, 143056, Note_on_c, 3, 65, 0
5, 143056, Note_on_c, 3, 57, 0
5, 143152, Note_on_c, 3, 62, 32
5, 143248, Note_on_c, 3, 69, 63
5, 143248, Note_on_c, 3, 65, 66
5, 143248, Note_on_c, 3, 57, 40
5, 143248, Note_on_c, 3, 50, 40
5, 143344, Note_on_c, 3, 50, 0
5, 143344, Note_on_c, 3, 65, 0
5, 143344, Note_on_c, 3, 62, 0
5, 143344, Note_on_c, 3, 69, 0
5, 143344, Note_on_c, 3, 57, 0
5, 144016, Note_on_c, 3, 57, 64
5, 144016, Note_on_c, 3, 69, 72
5, 144016, Note_on_c, 3, 65, 78
5, 144016, Note_on_c, 3, 64, 82
5, 144112, Note_on_c, 3, 64, 0
5, 144112, Note_on_c, 3, 57, 0
5, 144112, Note_on_c, 3, 69, 0
5, 144112, Note_on_c, 3, 65, 0
5, 144112, Note_on_c, 3, 62, 44
5, 144112, Note_on_c, 3, 50, 29
5, 144113, Note_on_c, 3, 50, 0
5, 144208, Note_on_c, 3, 62, 0
5, 144304, Note_on_c, 3, 65, 68
5, 144304, Note_on_c, 3, 62, 72
5, 144304, Note_on_c, 3, 50, 66
5, 144304, Note_on_c, 3, 57, 63
5, 144592, Note_on_c, 3, 57, 0
5, 144592, Note_on_c, 3, 65, 0
5, 144592, Note_on_c, 3, 62, 0
5, 144592, Note_on_c, 3, 50, 0
5, 144688, Note_on_c, 3, 61, 94
5, 144688, Note_on_c, 3, 65, 92
5, 144688, Note_on_c, 3, 49, 72
5, 144688, Note_on_c, 3, 57, 90
5, 144880, Note_on_c, 3, 57, 0
5, 144976, Note_on_c, 3, 61, 0
5, 144976, Note_on_c, 3, 65, 0
5, 144976, Note_on_c, 3, 49, 0
5, 145072, Note_on_c, 3, 65, 92
5, 145072, Note_on_c, 3, 62, 94
5, 145072, Note_on_c, 3, 59, 102
5, 145072, Note_on_c, 3, 48, 41
5, 145072, Note_on_c, 3, 50, 37
5, 145073, Note_on_c, 3, 50, 0
5, 145168, Note_on_c, 3, 59, 0
5, 145168, Note_on_c, 3, 48, 0
5, 145168, Note_on_c, 3, 65, 0
5, 145264, Note_on_c, 3, 62, 0
5, 145360, Note_on_c, 3, 69, 78
5, 145360, Note_on_c, 3, 62, 88
5, 145360, Note_on_c, 3, 58, 78
5, 145360, Note_on_c, 3, 65, 66
5, 145360, Note_on_c, 3, 48, 64
5, 145360, Note_on_c, 3, 67, 23
5, 145456, Note_on_c, 3, 48, 0
5, 145552, Note_on_c, 3, 62, 0
5, 145552, Note_on_c, 3, 58, 0
5, 145552, Note_on_c, 3, 69, 0
5, 145552, Note_on_c, 3, 67, 0
5, 145552, Note_on_c, 3, 65, 0
5, 145552, Note_on_c, 3, 51, 39
5, 145648, Note_on_c, 3, 51, 0
5, 145648, Note_on_c, 3, 52, 20
5, 145744, Note_on_c, 3, 52, 0
5, 145840, Note_on_c, 3, 74, 78
5, 145840, Note_on_c, 3, 64, 78
5, 145840, Note_on_c, 3, 67, 80
5, 145840, Note_on_c, 3, 69, 63
5, 145840, Note_on_c, 3, 45, 68
5, 146224, Note_on_c, 3, 45, 0
5, 146224, Note_on_c, 3, 74, 0
5, 146224, Note_on_c, 3, 64, 0
5, 146320, Note_on_c, 3, 67, 0
5, 146320, Note_on_c, 3, 69, 0
5, 146416, Note_on_c, 3, 74, 86
5, 146416, Note_on_c, 3, 64, 96
5, 146416, Note_on_c, 3, 67, 84
5, 146416, Note_on_c, 3, 69, 66
5, 146416, Note_on_c, 3, 57, 82
5, 146512, Note_on_c, 3, 57, 0
5, 146512, Note_on_c, 3, 67, 0
5, 146512, Note_on_c, 3, 74, 0
5, 146512, Note_on_c, 3, 64, 0
5, 146512, Note_on_c, 3, 69, 0
5, 146704, Note_on_c, 3, 74, 63
5, 146704, Note_on_c, 3, 57, 64
5, 146704, Note_on_c, 3, 67, 60
5, 146704, Note_on_c, 3, 69, 50
5, 146704, Note_on_c, 3, 64, 58
5, 146800, Note_on_c, 3, 64, 0
5, 146800, Note_on_c, 3, 67, 0
5, 146800, Note_on_c, 3, 74, 0
5, 146800, Note_on_c, 3, 57, 0
5, 146800, Note_on_c, 3, 69, 0
5, 146992, Note_on_c, 3, 72, 58
5, 146992, Note_on_c, 3, 57, 59
5, 146992, Note_on_c, 3, 67, 68
5, 146992, Note_on_c, 3, 69, 50
5, 146992, Note_on_c, 3, 62, 72
5, 147088, Note_on_c, 3, 62, 0
5, 147280, Note_on_c, 3, 67, 0
5, 147280, Note_on_c, 3, 72, 0
5, 147280, Note_on_c, 3, 57, 0
5, 147280, Note_on_c, 3, 69, 0
5, 147376, Note_on_c, 3, 57, 61
5, 147376, Note_on_c, 3, 69, 78
5, 147376, Note_on_c, 3, 60, 72
5, 147376, Note_on_c, 3, 64, 66
5, 147377, Note_on_c, 3, 64, 0
5, 147377, Note_on_c, 3, 60, 0
5, 147472, Note_on_c, 3, 69, 0
5, 147472, Note_on_c, 3, 57, 0
5, 147568, Note_on_c, 3, 69, 67
5, 147568, Note_on_c, 3, 57, 70
5, 147568, Note_on_c, 3, 67, 68
5, 147568, Note_on_c, 3, 64, 78
5, 147568, Note_on_c, 3, 60, 82
5, 147664, Note_on_c, 3, 60, 0
5, 147664, Note_on_c, 3, 67, 0
5, 147664, Note_on_c, 3, 69, 0
5, 147664, Note_on_c, 3, 57, 0
5, 147664, Note_on_c, 3, 64, 0
5, 147856, Note_on_c, 3, 67, 72
5, 147856, Note_on_c, 3, 64, 74
5, 147856, Note_on_c, 3, 60, 70
5, 147856, Note_on_c, 3, 57, 69
5, 147952, Note_on_c, 3, 57, 0
5, 147952, Note_on_c, 3, 67, 0
5, 147952, Note_on_c, 3, 64, 0
5, 147952, Note_on_c, 3, 60, 0
5, 148144, Note_on_c, 3, 57, 69
5, 148144, Note_on_c, 3, 64, 78
5, 148144, Note_on_c, 3, 60, 72
5, 148240, Note_on_c, 3, 60, 0
5, 148240, Note_on_c, 3, 64, 0
5, 148240, Note_on_c, 3, 57, 0
5, 148528, Note_on_c, 3, 64, 51
5, 148528, Note_on_c, 3, 57, 54
5, 148528, Note_on_c, 3, 55, 69
5, 148528, Note_on_c, 3, 60, 56
5, 148720, Note_on_c, 3, 60, 0
5, 148720, Note_on_c, 3, 64, 0
5, 148720, Note_on_c, 3, 57, 0
5, 148720, Note_on_c, 3, 55, 0
5, 148912, Note_on_c, 3, 64, 49
5, 148912, Note_on_c, 3, 65, 45
5, 148912, Note_on_c, 3, 69, 37
5, 148913, Note_on_c, 3, 69, 0
5, 148913, Note_on_c, 3, 65, 0
5, 148913, Note_on_c, 3, 64, 0
5, 149008, Note_on_c, 3, 64, 37
5, 149008, Note_on_c, 3, 65, 39
5, 149008, Note_on_c, 3, 69, 27
5, 149104, Note_on_c, 3, 69, 0
5, 149104, Note_on_c, 3, 65, 0
5, 149104, Note_on_c, 3, 64, 0
5, 149104, Note_on_c, 3, 62, 34
5, 149200, Note_on_c, 3, 62, 0
5, 149200, Note_on_c, 3, 62, 33
5, 149201, Note_on_c, 3, 62, 0
5, 149296, Note_on_c, 3, 64, 38
5, 149296, Note_on_c, 3, 65, 31
5, 149296, Note_on_c, 3, 69, 20
5, 149297, Note_on_c, 3, 69, 0
5, 149297, Note_on_c, 3, 65, 0
5, 149297, Note_on_c, 3, 64, 0
5, 149392, Note_on_c, 3, 69, 34
5, 149392, Note_on_c, 3, 64, 30
5, 149392, Note_on_c, 3, 65, 27
5, 149393, Note_on_c, 3, 65, 0
5, 149488, Note_on_c, 3, 64, 0
5, 149488, Note_on_c, 3, 69, 0
5, 149488, Note_on_c, 3, 62, 60
5, 149584, Note_on_c, 3, 62, 0
5, 149680, Note_on_c, 3, 64, 53
5, 149680, Note_on_c, 3, 65, 28
5, 149681, Note_on_c, 3, 65, 0
5, 149681, Note_on_c, 3, 64, 0
5, 149776, Note_on_c, 3, 69, 35
5, 149776, Note_on_c, 3, 64, 35
5, 149776, Note_on_c, 3, 65, 23
5, 149777, Note_on_c, 3, 65, 0
5, 149872, Note_on_c, 3, 64, 0
5, 149872, Note_on_c, 3, 69, 0
5, 149872, Note_on_c, 3, 62, 40
5, 149873, Note_on_c, 3, 62, 0
5, 149968, Note_on_c, 3, 64, 74
5, 149968, Note_on_c, 3, 65, 65
5, 149968, Note_on_c, 3, 69, 59
5, 150064, Note_on_c, 3, 69, 0
5, 150064, Note_on_c, 3, 65, 0
5, 150064, Note_on_c, 3, 64, 0
5, 150160, Note_on_c, 3, 64, 68
5, 150160, Note_on_c, 3, 65, 62
5, 150160, Note_on_c, 3, 69, 61
5, 150256, Note_on_c, 3, 69, 0
5, 150256, Note_on_c, 3, 65, 0
5, 150256, Note_on_c, 3, 64, 0
5, 150256, Note_on_c, 3, 62, 27
5, 150257, Note_on_c, 3, 62, 0
5, 150352, Note_on_c, 3, 65, 66
5, 150352, Note_on_c, 3, 69, 61
5, 150352, Note_on_c, 3, 64, 34
5, 150448, Note_on_c, 3, 64, 0
5, 150448, Note_on_c, 3, 69, 0
5, 150448, Note_on_c, 3, 65, 0
5, 150448, Note_on_c, 3, 64, 53
5, 150448, Note_on_c, 3, 69, 59
5, 150448, Note_on_c, 3, 65, 51
5, 150449, Note_on_c, 3, 65, 0
5, 150449, Note_on_c, 3, 64, 0
5, 150544, Note_on_c, 3, 69, 0
5, 150544, Note_on_c, 3, 65, 56
5, 150544, Note_on_c, 3, 69, 39
5, 150544, Note_on_c, 3, 64, 33
5, 150545, Note_on_c, 3, 64, 0
5, 150640, Note_on_c, 3, 65, 0
5, 150640, Note_on_c, 3, 61, 59
5, 150736, Note_on_c, 3, 61, 0
5, 150736, Note_on_c, 3, 69, 0
5, 150832, Note_on_c, 3, 69, 65
5, 150832, Note_on_c, 3, 65, 64
5, 150928, Note_on_c, 3, 65, 0
5, 150928, Note_on_c, 3, 69, 0
5, 150928, Note_on_c, 3, 61, 61
5, 151024, Note_on_c, 3, 61, 0
5, 151120, Note_on_c, 3, 69, 80
5, 151120, Note_on_c, 3, 65, 90
5, 151216, Note_on_c, 3, 65, 0
5, 151216, Note_on_c, 3, 69, 0
5, 151312, Note_on_c, 3, 69, 78
5, 151312, Note_on_c, 3, 65, 70
5, 151408, Note_on_c, 3, 65, 0
5, 151408, Note_on_c, 3, 69, 0
5, 151408, Note_on_c, 3, 61, 55
5, 151409, Note_on_c, 3, 61, 0
5, 151504, Note_on_c, 3, 61, 53
5, 151505, Note_on_c, 3, 61, 0
5, 151592, Note_on_c, 3, 65, 50
5, 151592, Note_on_c, 3, 69, 52
5, 151593, Note_on_c, 3, 69, 0
5, 151593, Note_on_c, 3, 65, 0
5, 151688, Note_on_c, 3, 65, 60
5, 151688, Note_on_c, 3, 69, 31
5, 151689, Note_on_c, 3, 69, 0
5, 151784, Note_on_c, 3, 65, 0
5, 151784, Note_on_c, 3, 61, 29
5, 151785, Note_on_c, 3, 61, 0
5, 151880, Note_on_c, 3, 65, 86
5, 151880, Note_on_c, 3, 69, 74
5, 151881, Note_on_c, 3, 69, 0
5, 151881, Note_on_c, 3, 65, 0
5, 151976, Note_on_c, 3, 69, 62
5, 151976, Note_on_c, 3, 65, 69
5, 152072, Note_on_c, 3, 65, 0
5, 152072, Note_on_c, 3, 69, 0
5, 152072, Note_on_c, 3, 69, 41
5, 152072, Note_on_c, 3, 65, 41
5, 152168, Note_on_c, 3, 65, 0
5, 152168, Note_on_c, 3, 69, 0
5, 152168, Note_on_c, 3, 60, 48
5, 152264, Note_on_c, 3, 60, 0
5, 152264, Note_on_c, 3, 60, 30
5, 152265, Note_on_c, 3, 60, 0
5, 152368, Note_on_c, 3, 65, 65
5, 152368, Note_on_c, 3, 69, 59
5, 152464, Note_on_c, 3, 69, 0
5, 152464, Note_on_c, 3, 65, 0
5, 152464, Note_on_c, 3, 69, 30
5, 152464, Note_on_c, 3, 65, 25
5, 152552, Note_on_c, 3, 65, 0
5, 152552, Note_on_c, 3, 69, 0
5, 152552, Note_on_c, 3, 60, 31
5, 152656, Note_on_c, 3, 60, 0
5, 152656, Note_on_c, 3, 65, 72
5, 152656, Note_on_c, 3, 69, 64
5, 152744, Note_on_c, 3, 69, 0
5, 152744, Note_on_c, 3, 65, 0
5, 152840, Note_on_c, 3, 69, 65
5, 152840, Note_on_c, 3, 65, 74
5, 152936, Note_on_c, 3, 65, 0
5, 152936, Note_on_c, 3, 69, 0
5, 153040, Note_on_c, 3, 60, 31
5, 153041, Note_on_c, 3, 60, 0
5, 153128, Note_on_c, 3, 65, 51
5, 153128, Note_on_c, 3, 69, 46
5, 153129, Note_on_c, 3, 69, 0
5, 153129, Note_on_c, 3, 65, 0
5, 153224, Note_on_c, 3, 69, 66
5, 153224, Note_on_c, 3, 65, 82
5, 153320, Note_on_c, 3, 65, 0
5, 153320, Note_on_c, 3, 69, 0
5, 153320, Note_on_c, 3, 60, 37
5, 153321, Note_on_c, 3, 60, 0
5, 153416, Note_on_c, 3, 60, 50
5, 153417, Note_on_c, 3, 60, 0
5, 153512, Note_on_c, 3, 65, 55
5, 153512, Note_on_c, 3, 69, 35
5, 153513, Note_on_c, 3, 69, 0
5, 153513, Note_on_c, 3, 65, 0
5, 153608, Note_on_c, 3, 65, 30
5, 153608, Note_on_c, 3, 69, 23
5, 153704, Note_on_c, 3, 69, 0
5, 153704, Note_on_c, 3, 65, 0
5, 153704, Note_on_c, 3, 59, 57
5, 153705, Note_on_c, 3, 59, 0
5, 153800, Note_on_c, 3, 59, 63
5, 153801, Note_on_c, 3, 59, 0
5, 153896, Note_on_c, 3, 59, 41
5, 153897, Note_on_c, 3, 59, 0
5, 153992, Note_on_c, 3, 65, 92
5, 153992, Note_on_c, 3, 69, 76
5, 153992, Note_on_c, 3, 67, 22
5, 153993, Note_on_c, 3, 67, 0
5, 154088, Note_on_c, 3, 69, 0
5, 154088, Note_on_c, 3, 65, 0
5, 154088, Note_on_c, 3, 59, 31
5, 154089, Note_on_c, 3, 59, 0
5, 154184, Note_on_c, 3, 59, 51
5, 154185, Note_on_c, 3, 59, 0
5, 154280, Note_on_c, 3, 69, 66
5, 154280, Note_on_c, 3, 65, 80
5, 154376, Note_on_c, 3, 65, 0
5, 154376, Note_on_c, 3, 69, 0
5, 154376, Note_on_c, 3, 59, 30
5, 154377, Note_on_c, 3, 59, 0
5, 154472, Note_on_c, 3, 59, 31
5, 154473, Note_on_c, 3, 59, 0
5, 154568, Note_on_c, 3, 65, 64
5, 154568, Note_on_c, 3, 69, 56
5, 154664, Note_on_c, 3, 69, 0
5, 154664, Note_on_c, 3, 65, 0
5, 154664, Note_on_c, 3, 59, 19
5, 154665, Note_on_c, 3, 59, 0
5, 154760, Note_on_c, 3, 59, 58
5, 154761, Note_on_c, 3, 59, 0
5, 154856, Note_on_c, 3, 59, 54
5, 154857, Note_on_c, 3, 59, 0
5, 154952, Note_on_c, 3, 57, 60
5, 154953, Note_on_c, 3, 57, 0
5, 155048, Note_on_c, 3, 58, 63
5, 155048, Note_on_c, 3, 62, 57
5, 155048, Note_on_c, 3, 65, 60
5, 155144, Note_on_c, 3, 65, 0
5, 155144, Note_on_c, 3, 62, 0
5, 155144, Note_on_c, 3, 58, 0
5, 155240, Note_on_c, 3, 58, 62
5, 155240, Note_on_c, 3, 62, 63
5, 155240, Note_on_c, 3, 65, 57
5, 155336, Note_on_c, 3, 65, 0
5, 155336, Note_on_c, 3, 62, 0
5, 155336, Note_on_c, 3, 58, 0
5, 155432, Note_on_c, 3, 57, 40
5, 155528, Note_on_c, 3, 57, 0
5, 155528, Note_on_c, 3, 58, 58
5, 155528, Note_on_c, 3, 65, 42
5, 155528, Note_on_c, 3, 62, 48
5, 155529, Note_on_c, 3, 62, 0
5, 155624, Note_on_c, 3, 65, 0
5, 155624, Note_on_c, 3, 58, 0
5, 155624, Note_on_c, 3, 57, 32
5, 155720, Note_on_c, 3, 57, 0
5, 155912, Note_on_c, 3, 62, 65
5, 155912, Note_on_c, 3, 65, 63
5, 155912, Note_on_c, 3, 58, 52
5, 156008, Note_on_c, 3, 58, 0
5, 156008, Note_on_c, 3, 65, 0
5, 156008, Note_on_c, 3, 62, 0
5, 156008, Note_on_c, 3, 57, 51
5, 156104, Note_on_c, 3, 57, 0
5, 156104, Note_on_c, 3, 57, 48
5, 156200, Note_on_c, 3, 57, 0
5, 156200, Note_on_c, 3, 58, 60
5, 156200, Note_on_c, 3, 62, 50
5, 156200, Note_on_c, 3, 65, 52
5, 156296, Note_on_c, 3, 65, 0
5, 156296, Note_on_c, 3, 62, 0
5, 156296, Note_on_c, 3, 58, 0
5, 156296, Note_on_c, 3, 65, 37
5, 156296, Note_on_c, 3, 62, 44
5, 156296, Note_on_c, 3, 58, 28
5, 156392, Note_on_c, 3, 58, 0
5, 156392, Note_on_c, 3, 62, 0
5, 156392, Note_on_c, 3, 65, 0
5, 156488, Note_on_c, 3, 69, 90
5, 156488, Note_on_c, 3, 58, 74
5, 156488, Note_on_c, 3, 62, 80
5, 156488, Note_on_c, 3, 65, 59
5, 156680, Note_on_c, 3, 69, 0
5, 156776, Note_on_c, 3, 58, 0
5, 156776, Note_on_c, 3, 62, 0
5, 156776, Note_on_c, 3, 65, 0
5, 156776, Note_on_c, 3, 58, 47
5, 156776, Note_on_c, 3, 67, 53
5, 156776, Note_on_c, 3, 62, 42
5, 156777, Note_on_c, 3, 62, 0
5, 156872, Note_on_c, 3, 67, 0
5, 156872, Note_on_c, 3, 58, 0
5, 156968, Note_on_c, 3, 58, 32
5, 156968, Note_on_c, 3, 65, 53
5, 156968, Note_on_c, 3, 62, 38
5, 156969, Note_on_c, 3, 62, 0
5, 157064, Note_on_c, 3, 65, 0
5, 157064, Note_on_c, 3, 58, 0
5, 157160, Note_on_c, 3, 58, 29
5, 157160, Note_on_c, 3, 62, 63
5, 157256, Note_on_c, 3, 62, 0
5, 157256, Note_on_c, 3, 58, 0
5, 157352, Note_on_c, 3, 58, 43
5, 157352, Note_on_c, 3, 62, 69
5, 157352, Note_on_c, 3, 65, 63
5, 157448, Note_on_c, 3, 65, 0
5, 157448, Note_on_c, 3, 62, 0
5, 157448, Note_on_c, 3, 58, 0
5, 157640, Note_on_c, 3, 62, 76
5, 157640, Note_on_c, 3, 67, 65
5, 157640, Note_on_c, 3, 58, 49
5, 157832, Note_on_c, 3, 58, 0
5, 157832, Note_on_c, 3, 67, 0
5, 157832, Note_on_c, 3, 62, 0
5, 157832, Note_on_c, 3, 65, 56
5, 157832, Note_on_c, 3, 62, 27
5, 157928, Note_on_c, 3, 62, 0
5, 157928, Note_on_c, 3, 65, 0
5, 157928, Note_on_c, 3, 58, 18
5, 158024, Note_on_c, 3, 58, 0
5, 158120, Note_on_c, 3, 64, 34
5, 158120, Note_on_c, 3, 57, 22
5, 158216, Note_on_c, 3, 57, 0
5, 158216, Note_on_c, 3, 64, 0
5, 158312, Note_on_c, 3, 60, 61
5, 158312, Note_on_c, 3, 57, 38
5, 158408, Note_on_c, 3, 57, 0
5, 158408, Note_on_c, 3, 60, 0
5, 158504, Note_on_c, 3, 72, 96
5, 158504, Note_on_c, 3, 69, 94
5, 158504, Note_on_c, 3, 64, 102
5, 158600, Note_on_c, 3, 64, 0
5, 158600, Note_on_c, 3, 69, 0
5, 158600, Note_on_c, 3, 72, 0
5, 158600, Note_on_c, 3, 64, 82
5, 158600, Note_on_c, 3, 69, 69
5, 158600, Note_on_c, 3, 72, 84
5, 158696, Note_on_c, 3, 72, 0
5, 158696, Note_on_c, 3, 69, 0
5, 158696, Note_on_c, 3, 64, 0
5, 158792, Note_on_c, 3, 69, 78
5, 158792, Note_on_c, 3, 60, 90
5, 158792, Note_on_c, 3, 64, 82
5, 158888, Note_on_c, 3, 64, 0
5, 158888, Note_on_c, 3, 60, 0
5, 158888, Note_on_c, 3, 69, 0
5, 159080, Note_on_c, 3, 57, 68
5, 159080, Note_on_c, 3, 60, 76
5, 159080, Note_on_c, 3, 64, 63
5, 159272, Note_on_c, 3, 60, 0
5, 159272, Note_on_c, 3, 57, 0
5, 159368, Note_on_c, 3, 64, 0
5, 159368, Note_on_c, 3, 60, 94
5, 159464, Note_on_c, 3, 60, 0
5, 159464, Note_on_c, 3, 57, 30
5, 159560, Note_on_c, 3, 57, 0
5, 159656, Note_on_c, 3, 62, 49
5, 159656, Note_on_c, 3, 55, 76
5, 159656, Note_on_c, 3, 58, 46
5, 159657, Note_on_c, 3, 58, 0
5, 159657, Note_on_c, 3, 55, 0
5, 159657, Note_on_c, 3, 62, 0
5, 159848, Note_on_c, 3, 58, 70
5, 159848, Note_on_c, 3, 69, 82
5, 159848, Note_on_c, 3, 62, 80
5, 159848, Note_on_c, 3, 64, 60
5, 159849, Note_on_c, 3, 64, 0
5, 159944, Note_on_c, 3, 58, 0
5, 159944, Note_on_c, 3, 69, 0
5, 159944, Note_on_c, 3, 62, 0
5, 160040, Note_on_c, 3, 58, 66
5, 160040, Note_on_c, 3, 67, 80
5, 160040, Note_on_c, 3, 62, 70
5, 160040, Note_on_c, 3, 62, 20
5, 160041, Note_on_c, 3, 62, 0
5, 160136, Note_on_c, 3, 58, 0
5, 160136, Note_on_c, 3, 67, 0
5, 160136, Note_on_c, 3, 62, 0
5, 160136, Note_on_c, 3, 64, 46
5, 160137, Note_on_c, 3, 64, 0
5, 160328, Note_on_c, 3, 70, 70
5, 160328, Note_on_c, 3, 61, 84
5, 160328, Note_on_c, 3, 66, 74
5, 160424, Note_on_c, 3, 66, 0
5, 160424, Note_on_c, 3, 61, 0
5, 160424, Note_on_c, 3, 70, 0
5, 160520, Note_on_c, 3, 58, 67
5, 160520, Note_on_c, 3, 61, 66
5, 160520, Note_on_c, 3, 69, 86
5, 160520, Note_on_c, 3, 64, 64
5, 160712, Note_on_c, 3, 69, 0
5, 160712, Note_on_c, 3, 61, 0
5, 160808, Note_on_c, 3, 58, 0
5, 160808, Note_on_c, 3, 64, 0
5, 160808, Note_on_c, 3, 58, 50
5, 160808, Note_on_c, 3, 67, 34
5, 160808, Note_on_c, 3, 61, 42
5, 160808, Note_on_c, 3, 64, 24
5, 160809, Note_on_c, 3, 64, 0
5, 160809, Note_on_c, 3, 67, 0
5, 160904, Note_on_c, 3, 61, 0
5, 160904, Note_on_c, 3, 58, 0
5, 161000, Note_on_c, 3, 58, 50
5, 161000, Note_on_c, 3, 66, 50
5, 161000, Note_on_c, 3, 61, 49
5, 161001, Note_on_c, 3, 61, 0
5, 161096, Note_on_c, 3, 66, 0
5, 161096, Note_on_c, 3, 58, 0
5, 161192, Note_on_c, 3, 65, 31
5, 161288, Note_on_c, 3, 65, 0
5, 161384, Note_on_c, 3, 65, 45
5, 161384, Note_on_c, 3, 57, 41
5, 161384, Note_on_c, 3, 64, 36
5, 161480, Note_on_c, 3, 64, 0
5, 161480, Note_on_c, 3, 57, 0
5, 161480, Note_on_c, 3, 65, 0
5, 161576, Note_on_c, 3, 64, 59
5, 161576, Note_on_c, 3, 57, 53
5, 161576, Note_on_c, 3, 65, 52
5, 161672, Note_on_c, 3, 65, 0
5, 161672, Note_on_c, 3, 57, 0
5, 161672, Note_on_c, 3, 64, 0
5, 161864, Note_on_c, 3, 64, 64
5, 161864, Note_on_c, 3, 57, 67
5, 161864, Note_on_c, 3, 65, 63
5, 161865, Note_on_c, 3, 57, 0
5, 161960, Note_on_c, 3, 65, 0
5, 161960, Note_on_c, 3, 64, 0
5, 162056, Note_on_c, 3, 65, 62
5, 162056, Note_on_c, 3, 64, 56
5, 162056, Note_on_c, 3, 57, 54
5, 162152, Note_on_c, 3, 57, 0
5, 162152, Note_on_c, 3, 64, 0
5, 162152, Note_on_c, 3, 65, 0
5, 162248, Note_on_c, 3, 64, 54
5, 162248, Note_on_c, 3, 57, 34
5, 162248, Note_on_c, 3, 65, 37
5, 162249, Note_on_c, 3, 65, 0
5, 162249, Note_on_c, 3, 57, 0
5, 162344, Note_on_c, 3, 64, 0
5, 162344, Note_on_c, 3, 64, 57
5, 162344, Note_on_c, 3, 57, 48
5, 162344, Note_on_c, 3, 65, 57
5, 162345, Note_on_c, 3, 57, 0
5, 162440, Note_on_c, 3, 65, 0
5, 162440, Note_on_c, 3, 64, 0
5, 162536, Note_on_c, 3, 65, 72
5, 162536, Note_on_c, 3, 64, 72
5, 162536, Note_on_c, 3, 57, 72
5, 162632, Note_on_c, 3, 57, 0
5, 162632, Note_on_c, 3, 64, 0
5, 162632, Note_on_c, 3, 65, 0
5, 162824, Note_on_c, 3, 61, 60
5, 162824, Note_on_c, 3, 65, 62
5, 162824, Note_on_c, 3, 57, 63
5, 162825, Note_on_c, 3, 57, 0
5, 162825, Note_on_c, 3, 61, 0
5, 162920, Note_on_c, 3, 65, 0
5, 162920, Note_on_c, 3, 65, 43
5, 162920, Note_on_c, 3, 61, 37
5, 162920, Note_on_c, 3, 57, 23
5, 163016, Note_on_c, 3, 57, 0
5, 163016, Note_on_c, 3, 61, 0
5, 163016, Note_on_c, 3, 65, 0
5, 163112, Note_on_c, 3, 65, 65
5, 163112, Note_on_c, 3, 57, 61
5, 163112, Note_on_c, 3, 61, 55
5, 163208, Note_on_c, 3, 61, 0
5, 163208, Note_on_c, 3, 57, 0
5, 163208, Note_on_c, 3, 65, 0
5, 163400, Note_on_c, 3, 61, 53
5, 163400, Note_on_c, 3, 65, 53
5, 163400, Note_on_c, 3, 57, 50
5, 163496, Note_on_c, 3, 57, 0
5, 163496, Note_on_c, 3, 65, 0
5, 163496, Note_on_c, 3, 61, 0
5, 163688, Note_on_c, 3, 65, 88
5, 163688, Note_on_c, 3, 61, 76
5, 163688, Note_on_c, 3, 57, 88
5, 163784, Note_on_c, 3, 57, 0
5, 163784, Note_on_c, 3, 61, 0
5, 163784, Note_on_c, 3, 65, 0
5, 163976, Note_on_c, 3, 61, 78
5, 163976, Note_on_c, 3, 57, 88
5, 163976, Note_on_c, 3, 65, 76
5, 164072, Note_on_c, 3, 57, 0
5, 164072, Note_on_c, 3, 61, 0
5, 164072, Note_on_c, 3, 61, 24
5, 164168, Note_on_c, 3, 61, 0
5, 164168, Note_on_c, 3, 65, 0
5, 164168, Note_on_c, 3, 61, 25
5, 164168, Note_on_c, 3, 57, 19
5, 164168, Note_on_c, 3, 65, 14
5, 164264, Note_on_c, 3, 65, 0
5, 164264, Note_on_c, 3, 57, 0
5, 164264, Note_on_c, 3, 61, 0
5, 164264, Note_on_c, 3, 57, 66
5, 164264, Note_on_c, 3, 65, 60
5, 164264, Note_on_c, 3, 60, 88
5, 164360, Note_on_c, 3, 60, 0
5, 164360, Note_on_c, 3, 65, 0
5, 164360, Note_on_c, 3, 57, 0
5, 164552, Note_on_c, 3, 57, 68
5, 164552, Note_on_c, 3, 65, 68
5, 164552, Note_on_c, 3, 60, 84
5, 164648, Note_on_c, 3, 60, 0
5, 164648, Note_on_c, 3, 65, 0
5, 164648, Note_on_c, 3, 57, 0
5, 164840, Note_on_c, 3, 60, 28
5, 164840, Note_on_c, 3, 57, 74
5, 164840, Note_on_c, 3, 60, 80
5, 164841, Note_on_c, 3, 60, 0
5, 164936, Note_on_c, 3, 60, 0
5, 164936, Note_on_c, 3, 57, 0
5, 165128, Note_on_c, 3, 65, 70
5, 165128, Note_on_c, 3, 57, 69
5, 165128, Note_on_c, 3, 60, 65
5, 165129, Note_on_c, 3, 60, 0
5, 165224, Note_on_c, 3, 57, 0
5, 165224, Note_on_c, 3, 65, 0
5, 165416, Note_on_c, 3, 57, 78
5, 165416, Note_on_c, 3, 65, 72
5, 165416, Note_on_c, 3, 60, 88
5, 165512, Note_on_c, 3, 60, 0
5, 165512, Note_on_c, 3, 65, 0
5, 165512, Note_on_c, 3, 57, 0
5, 165704, Note_on_c, 3, 65, 76
5, 165704, Note_on_c, 3, 57, 69
5, 165704, Note_on_c, 3, 59, 80
5, 165800, Note_on_c, 3, 59, 0
5, 165800, Note_on_c, 3, 57, 0
5, 165800, Note_on_c, 3, 65, 0
5, 165896, Note_on_c, 3, 57, 29
5, 165897, Note_on_c, 3, 57, 0
5, 165992, Note_on_c, 3, 57, 82
5, 165992, Note_on_c, 3, 65, 84
5, 165992, Note_on_c, 3, 59, 90
5, 166088, Note_on_c, 3, 59, 0
5, 166088, Note_on_c, 3, 65, 0
5, 166088, Note_on_c, 3, 57, 0
5, 166280, Note_on_c, 3, 64, 69
5, 166280, Note_on_c, 3, 59, 82
5, 166280, Note_on_c, 3, 57, 60
5, 166376, Note_on_c, 3, 57, 0
5, 166376, Note_on_c, 3, 59, 0
5, 166376, Note_on_c, 3, 64, 0
5, 166568, Note_on_c, 3, 62, 60
5, 166568, Note_on_c, 3, 57, 46
5, 166568, Note_on_c, 3, 59, 67
5, 166569, Note_on_c, 3, 59, 0
5, 166569, Note_on_c, 3, 57, 0
5, 166656, Note_on_c, 3, 62, 0
5, 166752, Note_on_c, 3, 57, 40
5, 166848, Note_on_c, 3, 57, 0
5, 166944, Note_on_c, 3, 62, 69
5, 166944, Note_on_c, 3, 59, 78
5, 166944, Note_on_c, 3, 57, 65
5, 167040, Note_on_c, 3, 57, 0
5, 167040, Note_on_c, 3, 59, 0
5, 167040, Note_on_c, 3, 62, 0
5, 167144, Note_on_c, 3, 57, 50
5, 167240, Note_on_c, 3, 57, 0
5, 167328, Note_on_c, 3, 57, 90
5, 167328, Note_on_c, 3, 65, 74
5, 167328, Note_on_c, 3, 58, 57
5, 167328, Note_on_c, 3, 62, 45
5, 167424, Note_on_c, 3, 62, 0
5, 167424, Note_on_c, 3, 57, 0
5, 167424, Note_on_c, 3, 65, 0
5, 167424, Note_on_c, 3, 58, 0
5, 167808, Note_on_c, 3, 69, 64
5, 167808, Note_on_c, 3, 62, 78
5, 167808, Note_on_c, 3, 58, 60
5, 167808, Note_on_c, 3, 65, 56
5, 167904, Note_on_c, 3, 65, 0
5, 167904, Note_on_c, 3, 69, 0
5, 167904, Note_on_c, 3, 62, 0
5, 167904, Note_on_c, 3, 58, 0
5, 168096, Note_on_c, 3, 58, 72
5, 168096, Note_on_c, 3, 62, 66
5, 168096, Note_on_c, 3, 65, 76
5, 168096, Note_on_c, 3, 57, 86
5, 168096, Note_on_c, 3, 64, 23
5, 168192, Note_on_c, 3, 64, 0
5, 168192, Note_on_c, 3, 65, 0
5, 168192, Note_on_c, 3, 58, 0
5, 168192, Note_on_c, 3, 62, 0
5, 168192, Note_on_c, 3, 57, 0
5, 168384, Note_on_c, 3, 58, 61
5, 168384, Note_on_c, 3, 57, 65
5, 168384, Note_on_c, 3, 62, 72
5, 168480, Note_on_c, 3, 62, 0
5, 168480, Note_on_c, 3, 57, 0
5, 168480, Note_on_c, 3, 58, 0
5, 168864, Note_on_c, 3, 61, 63
5, 168864, Note_on_c, 3, 58, 65
5, 168864, Note_on_c, 3, 55, 94
5, 168865, Note_on_c, 3, 55, 0
5, 168960, Note_on_c, 3, 58, 0
5, 168960, Note_on_c, 3, 61, 0
5, 169152, Note_on_c, 3, 61, 76
5, 169152, Note_on_c, 3, 70, 59
5, 169152, Note_on_c, 3, 66, 58
5, 169153, Note_on_c, 3, 70, 0
5, 169153, Note_on_c, 3, 61, 0
5, 169248, Note_on_c, 3, 66, 0
5, 169248, Note_on_c, 3, 70, 41
5, 169248, Note_on_c, 3, 61, 59
5, 169248, Note_on_c, 3, 66, 42
5, 169344, Note_on_c, 3, 66, 0
5, 169344, Note_on_c, 3, 61, 0
5, 169344, Note_on_c, 3, 70, 0
5, 169536, Note_on_c, 3, 69, 76
5, 169536, Note_on_c, 3, 61, 65
5, 169536, Note_on_c, 3, 64, 74
5, 169632, Note_on_c, 3, 64, 0
5, 169632, Note_on_c, 3, 61, 0
5, 169632, Note_on_c, 3, 69, 0
5, 169824, Note_on_c, 3, 61, 63
5, 169824, Note_on_c, 3, 67, 69
5, 169824, Note_on_c, 3, 58, 56
5, 170016, Note_on_c, 3, 58, 0
5, 170016, Note_on_c, 3, 67, 0
5, 170016, Note_on_c, 3, 61, 0
5, 170112, Note_on_c, 3, 58, 45
5, 170112, Note_on_c, 3, 61, 55
5, 170112, Note_on_c, 3, 64, 58
5, 170208, Note_on_c, 3, 64, 0
5, 170208, Note_on_c, 3, 58, 0
5, 170304, Note_on_c, 3, 61, 0
5, 170400, Note_on_c, 3, 57, 34
5, 170400, Note_on_c, 3, 64, 34
5, 170400, Note_on_c, 3, 60, 50
5, 170400, Note_on_c, 3, 65, 32
5, 170400, Note_on_c, 3, 67, 22
5, 170401, Note_on_c, 3, 67, 0
5, 170401, Note_on_c, 3, 60, 0
5, 170401, Note_on_c, 3, 65, 0
5, 170496, Note_on_c, 3, 64, 0
5, 170496, Note_on_c, 3, 57, 0
5, 170592, Note_on_c, 3, 65, 63
5, 170592, Note_on_c, 3, 64, 55
5, 170592, Note_on_c, 3, 57, 56
5, 170592, Note_on_c, 3, 60, 65
5, 170688, Note_on_c, 3, 60, 0
5, 170688, Note_on_c, 3, 65, 0
5, 170688, Note_on_c, 3, 64, 0
5, 170688, Note_on_c, 3, 57, 0
5, 170784, Note_on_c, 3, 57, 69
5, 170784, Note_on_c, 3, 64, 61
5, 170784, Note_on_c, 3, 65, 64
5, 170784, Note_on_c, 3, 60, 69
5, 170880, Note_on_c, 3, 60, 0
5, 170880, Note_on_c, 3, 57, 0
5, 170880, Note_on_c, 3, 64, 0
5, 170880, Note_on_c, 3, 65, 0
5, 170880, Note_on_c, 3, 57, 16
5, 170880, Note_on_c, 3, 60, 45
5, 170880, Note_on_c, 3, 64, 27
5, 170880, Note_on_c, 3, 65, 28
5, 170976, Note_on_c, 3, 65, 0
5, 170976, Note_on_c, 3, 57, 0
5, 170976, Note_on_c, 3, 60, 0
5, 170976, Note_on_c, 3, 64, 0
5, 171072, Note_on_c, 3, 60, 80
5, 171072, Note_on_c, 3, 65, 63
5, 171072, Note_on_c, 3, 64, 55
5, 171072, Note_on_c, 3, 57, 66
5, 171168, Note_on_c, 3, 57, 0
5, 171168, Note_on_c, 3, 60, 0
5, 171168, Note_on_c, 3, 65, 0
5, 171168, Note_on_c, 3, 64, 0
5, 171264, Note_on_c, 3, 65, 54
5, 171264, Note_on_c, 3, 57, 54
5, 171264, Note_on_c, 3, 60, 55
5, 171264, Note_on_c, 3, 64, 33
5, 171360, Note_on_c, 3, 64, 0
5, 171360, Note_on_c, 3, 65, 0
5, 171360, Note_on_c, 3, 57, 0
5, 171360, Note_on_c, 3, 60, 0
5, 171360, Note_on_c, 3, 57, 68
5, 171360, Note_on_c, 3, 65, 80
5, 171360, Note_on_c, 3, 64, 40
5, 171360, Note_on_c, 3, 60, 74
5, 171456, Note_on_c, 3, 60, 0
5, 171456, Note_on_c, 3, 57, 0
5, 171456, Note_on_c, 3, 65, 0
5, 171456, Note_on_c, 3, 64, 0
5, 171552, Note_on_c, 3, 65, 76
5, 171552, Note_on_c, 3, 60, 86
5, 171552, Note_on_c, 3, 64, 63
5, 171552, Note_on_c, 3, 57, 67
5, 171553, Note_on_c, 3, 57, 0
5, 171648, Note_on_c, 3, 65, 0
5, 171648, Note_on_c, 3, 60, 0
5, 171648, Note_on_c, 3, 64, 0
5, 171936, Note_on_c, 3, 74, 84
5, 171936, Note_on_c, 3, 70, 52
5, 171936, Note_on_c, 3, 67, 70
5, 171936, Note_on_c, 3, 63, 74
5, 172032, Note_on_c, 3, 63, 0
5, 172032, Note_on_c, 3, 74, 0
5, 172032, Note_on_c, 3, 70, 0
5, 172032, Note_on_c, 3, 67, 0
5, 172128, Note_on_c, 3, 63, 76
5, 172128, Note_on_c, 3, 72, 67
5, 172128, Note_on_c, 3, 67, 70
5, 172128, Note_on_c, 3, 70, 29
5, 172129, Note_on_c, 3, 70, 0
5, 172224, Note_on_c, 3, 63, 0
5, 172224, Note_on_c, 3, 72, 0
5, 172224, Note_on_c, 3, 67, 0
5, 172320, Note_on_c, 3, 71, 74
5, 172320, Note_on_c, 3, 63, 49
5, 172320, Note_on_c, 3, 67, 50
5, 172321, Note_on_c, 3, 67, 0
5, 172416, Note_on_c, 3, 63, 0
5, 172416, Note_on_c, 3, 71, 0
5, 172416, Note_on_c, 3, 63, 34
5, 172416, Note_on_c, 3, 72, 63
5, 172416, Note_on_c, 3, 71, 28
5, 172512, Note_on_c, 3, 71, 0
5, 172512, Note_on_c, 3, 72, 0
5, 172512, Note_on_c, 3, 63, 0
5, 172608, Note_on_c, 3, 66, 80
5, 172608, Note_on_c, 3, 74, 76
5, 172608, Note_on_c, 3, 62, 90
5, 172608, Note_on_c, 3, 69, 62
5, 172608, Note_on_c, 3, 72, 39
5, 172608, Note_on_c, 3, 70, 30
5, 172609, Note_on_c, 3, 70, 0
5, 172800, Note_on_c, 3, 74, 0
5, 172800, Note_on_c, 3, 62, 0
5, 172800, Note_on_c, 3, 66, 0
5, 172800, Note_on_c, 3, 72, 0
5, 172800, Note_on_c, 3, 69, 0
5, 172896, Note_on_c, 3, 72, 69
5, 172896, Note_on_c, 3, 66, 64
5, 172896, Note_on_c, 3, 62, 80
5, 172896, Note_on_c, 3, 69, 61
5, 173088, Note_on_c, 3, 69, 0
5, 173184, Note_on_c, 3, 72, 0
5, 173184, Note_on_c, 3, 66, 0
5, 173184, Note_on_c, 3, 62, 0
5, 173280, Note_on_c, 3, 66, 55
5, 173280, Note_on_c, 3, 62, 55
5, 173376, Note_on_c, 3, 62, 0
5, 173376, Note_on_c, 3, 66, 0
5, 173472, Note_on_c, 3, 61, 64
5, 173472, Note_on_c, 3, 60, 86
5, 173472, Note_on_c, 3, 65, 66
5, 173473, Note_on_c, 3, 60, 0
5, 173568, Note_on_c, 3, 65, 0
5, 173568, Note_on_c, 3, 61, 0
5, 173664, Note_on_c, 3, 61, 62
5, 173664, Note_on_c, 3, 65, 70
5, 173664, Note_on_c, 3, 60, 90
5, 173760, Note_on_c, 3, 60, 0
5, 173760, Note_on_c, 3, 65, 0
5, 173760, Note_on_c, 3, 61, 0
5, 173856, Note_on_c, 3, 61, 59
5, 173856, Note_on_c, 3, 65, 60
5, 173856, Note_on_c, 3, 58, 50
5, 174048, Note_on_c, 3, 58, 0
5, 174048, Note_on_c, 3, 65, 0
5, 174048, Note_on_c, 3, 61, 0
5, 174144, Note_on_c, 3, 61, 67
5, 174144, Note_on_c, 3, 65, 60
5, 174144, Note_on_c, 3, 57, 70
5, 174240, Note_on_c, 3, 57, 0
5, 174240, Note_on_c, 3, 65, 0
5, 174240, Note_on_c, 3, 61, 0
5, 174336, Note_on_c, 3, 65, 64
5, 174336, Note_on_c, 3, 61, 60
5, 174336, Note_on_c, 3, 57, 67
5, 174432, Note_on_c, 3, 57, 0
5, 174432, Note_on_c, 3, 61, 0
5, 174432, Note_on_c, 3, 65, 0
5, 174528, Note_on_c, 3, 65, 27
5, 174528, Note_on_c, 3, 61, 36
5, 174529, Note_on_c, 3, 61, 0
5, 174529, Note_on_c, 3, 65, 0
5, 174624, Note_on_c, 3, 61, 44
5, 174624, Note_on_c, 3, 56, 47
5, 174624, Note_on_c, 3, 65, 57
5, 174720, Note_on_c, 3, 65, 0
5, 174720, Note_on_c, 3, 56, 0
5, 174720, Note_on_c, 3, 61, 0
5, 174816, Note_on_c, 3, 56, 54
5, 174816, Note_on_c, 3, 65, 58
5, 174816, Note_on_c, 3, 61, 45
5, 174817, Note_on_c, 3, 61, 0
5, 174912, Note_on_c, 3, 65, 0
5, 174912, Note_on_c, 3, 56, 0
5, 175008, Note_on_c, 3, 61, 61
5, 175008, Note_on_c, 3, 65, 57
5, 175008, Note_on_c, 3, 55, 80
5, 175296, Note_on_c, 3, 55, 0
5, 175296, Note_on_c, 3, 65, 0
5, 175296, Note_on_c, 3, 61, 0
5, 175296, Note_on_c, 3, 65, 48
5, 175296, Note_on_c, 3, 55, 69
5, 175296, Note_on_c, 3, 61, 82
5, 175392, Note_on_c, 3, 61, 0
5, 175392, Note_on_c, 3, 55, 0
5, 175392, Note_on_c, 3, 65, 0
5, 175584, Note_on_c, 3, 61, 64
5, 175584, Note_on_c, 3, 65, 56
5, 175584, Note_on_c, 3, 55, 58
5, 175585, Note_on_c, 3, 55, 0
5, 175680, Note_on_c, 3, 65, 0
5, 175680, Note_on_c, 3, 61, 0
5, 175776, Note_on_c, 3, 66, 80
5, 175776, Note_on_c, 3, 61, 90
5, 175776, Note_on_c, 3, 55, 102
5, 176160, Note_on_c, 3, 55, 0
5, 176160, Note_on_c, 3, 61, 0
5, 176256, Note_on_c, 3, 66, 0
5, 176256, Note_on_c, 3, 61, 84
5, 176256, Note_on_c, 3, 55, 98
5, 176448, Note_on_c, 3, 55, 0
5, 176448, Note_on_c, 3, 61, 0
5, 176544, Note_on_c, 3, 65, 52
5, 176544, Note_on_c, 3, 54, 23
5, 176545, Note_on_c, 3, 54, 0
5, 176640, Note_on_c, 3, 65, 0
5, 176736, Note_on_c, 3, 54, 59
5, 176736, Note_on_c, 3, 65, 67
5, 176736, Note_on_c, 3, 58, 57
5, 176736, Note_on_c, 3, 60, 68
5, 176736, Note_on_c, 3, 63, 19
5, 176832, Note_on_c, 3, 63, 0
5, 176928, Note_on_c, 3, 60, 0
5, 177024, Note_on_c, 3, 54, 0
5, 177024, Note_on_c, 3, 65, 0
5, 177024, Note_on_c, 3, 58, 0
5, 177024, Note_on_c, 3, 58, 36
5, 177024, Note_on_c, 3, 63, 55
5, 177024, Note_on_c, 3, 54, 32
5, 177024, Note_on_c, 3, 60, 48
5, 177120, Note_on_c, 3, 60, 0
5, 177216, Note_on_c, 3, 58, 0
5, 177216, Note_on_c, 3, 63, 0
5, 177216, Note_on_c, 3, 54, 0
5, 177312, Note_on_c, 3, 65, 72
5, 177312, Note_on_c, 3, 54, 58
5, 177312, Note_on_c, 3, 58, 60
5, 177312, Note_on_c, 3, 60, 72
5, 177504, Note_on_c, 3, 60, 0
5, 177504, Note_on_c, 3, 65, 0
5, 177504, Note_on_c, 3, 54, 0
5, 177504, Note_on_c, 3, 58, 0
5, 177600, Note_on_c, 3, 54, 54
5, 177600, Note_on_c, 3, 63, 60
5, 177600, Note_on_c, 3, 58, 55
5, 177600, Note_on_c, 3, 60, 65
5, 177600, Note_on_c, 3, 60, 20
5, 177601, Note_on_c, 3, 60, 0
5, 177792, Note_on_c, 3, 58, 0
5, 177792, Note_on_c, 3, 60, 0
5, 177792, Note_on_c, 3, 54, 0
5, 177888, Note_on_c, 3, 63, 0
5, 177888, Note_on_c, 3, 58, 16
5, 177888, Note_on_c, 3, 54, 27
5, 177888, Note_on_c, 3, 60, 52
5, 177889, Note_on_c, 3, 60, 0
5, 177984, Note_on_c, 3, 54, 0
5, 177984, Note_on_c, 3, 58, 0
5, 178272, Note_on_c, 3, 54, 52
5, 178272, Note_on_c, 3, 65, 64
5, 178272, Note_on_c, 3, 58, 56
5, 178272, Note_on_c, 3, 60, 65
5, 178464, Note_on_c, 3, 60, 0
5, 178464, Note_on_c, 3, 54, 0
5, 178464, Note_on_c, 3, 65, 0
5, 178464, Note_on_c, 3, 58, 0
5, 178560, Note_on_c, 3, 58, 52
5, 178560, Note_on_c, 3, 54, 31
5, 178560, Note_on_c, 3, 63, 31
5, 178656, Note_on_c, 3, 63, 0
5, 178656, Note_on_c, 3, 54, 0
5, 178656, Note_on_c, 3, 58, 0
5, 179040, Note_on_c, 3, 54, 76
5, 179040, Note_on_c, 3, 65, 88
5, 179040, Note_on_c, 3, 69, 76
5, 179040, Note_on_c, 3, 60, 94
5, 179136, Note_on_c, 3, 60, 0
5, 179136, Note_on_c, 3, 54, 0
5, 179136, Note_on_c, 3, 65, 0
5, 179136, Note_on_c, 3, 69, 0
5, 179328, Note_on_c, 3, 54, 78
5, 179328, Note_on_c, 3, 69, 72
5, 179328, Note_on_c, 3, 65, 84
5, 179328, Note_on_c, 3, 60, 76
5, 179520, Note_on_c, 3, 60, 0
5, 179520, Note_on_c, 3, 54, 0
5, 179520, Note_on_c, 3, 69, 0
5, 179520, Note_on_c, 3, 65, 0
5, 179616, Note_on_c, 3, 68, 55
5, 179616, Note_on_c, 3, 65, 58
5, 179616, Note_on_c, 3, 60, 64
5, 179616, Note_on_c, 3, 53, 62
5, 179617, Note_on_c, 3, 60, 0
5, 179712, Note_on_c, 3, 68, 0
5, 179712, Note_on_c, 3, 65, 0
5, 179712, Note_on_c, 3, 53, 0
5, 179808, Note_on_c, 3, 68, 66
5, 179808, Note_on_c, 3, 65, 69
5, 179808, Note_on_c, 3, 60, 76
5, 179808, Note_on_c, 3, 53, 74
5, 180000, Note_on_c, 3, 53, 0
5, 180000, Note_on_c, 3, 68, 0
5, 180000, Note_on_c, 3, 65, 0
5, 180000, Note_on_c, 3, 60, 0
5, 180096, Note_on_c, 3, 68, 61
5, 180096, Note_on_c, 3, 65, 65
5, 180096, Note_on_c, 3, 60, 70
5, 180096, Note_on_c, 3, 53, 70
5, 180096, Note_on_c, 3, 66, 18
5, 180192, Note_on_c, 3, 66, 0
5, 180192, Note_on_c, 3, 60, 0
5, 180192, Note_on_c, 3, 68, 0
5, 180192, Note_on_c, 3, 65, 0
5, 180192, Note_on_c, 3, 53, 0
5, 180384, Note_on_c, 3, 68, 54
5, 180384, Note_on_c, 3, 65, 65
5, 180384, Note_on_c, 3, 53, 82
5, 180384, Note_on_c, 3, 60, 80
5, 180576, Note_on_c, 3, 60, 0
5, 180576, Note_on_c, 3, 68, 0
5, 180576, Note_on_c, 3, 65, 0
5, 180576, Note_on_c, 3, 53, 0
5, 180664, Note_on_c, 3, 68, 62
5, 180664, Note_on_c, 3, 65, 76
5, 180664, Note_on_c, 3, 53, 88
5, 180664, Note_on_c, 3, 60, 98
5, 180768, Note_on_c, 3, 53, 0
5, 180864, Note_on_c, 3, 60, 0
5, 180952, Note_on_c, 3, 65, 0
5, 180952, Note_on_c, 3, 68, 0
5, 180952, Note_on_c, 3, 60, 54
5, 180953, Note_on_c, 3, 60, 0
5, 181144, Note_on_c, 3, 64, 68
5, 181144, Note_on_c, 3, 53, 84
5, 181144, Note_on_c, 3, 59, 64
5, 181145, Note_on_c, 3, 53, 0
5, 181240, Note_on_c, 3, 59, 0
5, 181240, Note_on_c, 3, 64, 0
5, 181344, Note_on_c, 3, 64, 80
5, 181344, Note_on_c, 3, 59, 98
5, 181344, Note_on_c, 3, 53, 82
5, 181440, Note_on_c, 3, 53, 0
5, 181440, Note_on_c, 3, 59, 0
5, 181440, Note_on_c, 3, 64, 0
5, 181624, Note_on_c, 3, 64, 72
5, 181624, Note_on_c, 3, 53, 66
5, 181624, Note_on_c, 3, 59, 74
5, 181625, Note_on_c, 3, 53, 0
5, 181720, Note_on_c, 3, 59, 0
5, 181720, Note_on_c, 3, 64, 0
5, 181912, Note_on_c, 3, 64, 69
5, 181912, Note_on_c, 3, 53, 92
5, 181912, Note_on_c, 3, 61, 51
5, 181912, Note_on_c, 3, 57, 65
5, 181912, Note_on_c, 3, 62, 48
5, 181913, Note_on_c, 3, 62, 0
5, 181913, Note_on_c, 3, 53, 0
5, 182008, Note_on_c, 3, 64, 0
5, 182008, Note_on_c, 3, 61, 0
5, 182008, Note_on_c, 3, 57, 0
5, 182200, Note_on_c, 3, 64, 74
5, 182200, Note_on_c, 3, 56, 56
5, 182200, Note_on_c, 3, 59, 84
5, 182200, Note_on_c, 3, 53, 76
5, 182200, Note_on_c, 3, 62, 26
5, 182201, Note_on_c, 3, 62, 0
5, 182392, Note_on_c, 3, 59, 0
5, 182392, Note_on_c, 3, 53, 0
5, 182392, Note_on_c, 3, 64, 0
5, 182488, Note_on_c, 3, 56, 0
5, 182488, Note_on_c, 3, 53, 33
5, 182488, Note_on_c, 3, 62, 30
5, 182489, Note_on_c, 3, 62, 0
5, 182489, Note_on_c, 3, 53, 0
5, 182680, Note_on_c, 3, 58, 82
5, 182680, Note_on_c, 3, 69, 80
5, 182680, Note_on_c, 3, 62, 84
5, 182680, Note_on_c, 3, 65, 68
5, 182872, Note_on_c, 3, 65, 0
5, 182872, Note_on_c, 3, 58, 0
5, 182872, Note_on_c, 3, 69, 0
5, 182872, Note_on_c, 3, 62, 0
5, 182968, Note_on_c, 3, 58, 63
5, 182968, Note_on_c, 3, 62, 69
5, 182968, Note_on_c, 3, 67, 67
5, 183064, Note_on_c, 3, 62, 0
5, 183160, Note_on_c, 3, 67, 0
5, 183160, Note_on_c, 3, 58, 0
5, 183256, Note_on_c, 3, 66, 64
5, 183256, Note_on_c, 3, 58, 61
5, 183256, Note_on_c, 3, 62, 80
5, 183448, Note_on_c, 3, 62, 0
5, 183544, Note_on_c, 3, 58, 0
5, 183544, Note_on_c, 3, 66, 0
5, 183544, Note_on_c, 3, 62, 67
5, 183544, Note_on_c, 3, 58, 61
5, 183544, Note_on_c, 3, 67, 78
5, 183736, Note_on_c, 3, 58, 0
5, 183832, Note_on_c, 3, 67, 0
5, 183832, Note_on_c, 3, 62, 0
5, 183832, Note_on_c, 3, 66, 42
5, 183832, Note_on_c, 3, 62, 19
5, 183832, Note_on_c, 3, 58, 23
5, 183928, Note_on_c, 3, 58, 0
5, 183928, Note_on_c, 3, 62, 0
5, 183928, Note_on_c, 3, 66, 0
5, 184024, Note_on_c, 3, 58, 32
5, 184024, Note_on_c, 3, 67, 55
5, 184120, Note_on_c, 3, 67, 0
5, 184120, Note_on_c, 3, 58, 0
5, 184216, Note_on_c, 3, 58, 54
5, 184216, Note_on_c, 3, 64, 72
5, 184216, Note_on_c, 3, 55, 98
5, 184216, Note_on_c, 3, 61, 55
5, 184216, Note_on_c, 3, 45, 57
5, 184217, Note_on_c, 3, 55, 0
5, 184312, Note_on_c, 3, 61, 0
5, 184312, Note_on_c, 3, 58, 0
5, 184312, Note_on_c, 3, 64, 0
5, 184312, Note_on_c, 3, 45, 0
5, 184504, Note_on_c, 3, 63, 67
5, 184504, Note_on_c, 3, 58, 67
5, 184504, Note_on_c, 3, 55, 88
5, 184504, Note_on_c, 3, 45, 69
5, 184504, Note_on_c, 3, 60, 29
5, 184505, Note_on_c, 3, 60, 0
5, 184505, Note_on_c, 3, 55, 0
5, 184600, Note_on_c, 3, 63, 0
5, 184600, Note_on_c, 3, 58, 0
5, 184600, Note_on_c, 3, 45, 0
5, 184792, Note_on_c, 3, 63, 69
5, 184792, Note_on_c, 3, 58, 68
5, 184792, Note_on_c, 3, 55, 100
5, 184792, Note_on_c, 3, 61, 60
5, 184792, Note_on_c, 3, 45, 76
5, 185272, Note_on_c, 3, 45, 0
5, 185272, Note_on_c, 3, 55, 0
5, 185272, Note_on_c, 3, 63, 0
5, 185272, Note_on_c, 3, 58, 0
5, 185272, Note_on_c, 3, 61, 0
5, 185368, Note_on_c, 3, 61, 45
5, 185368, Note_on_c, 3, 58, 56
5, 185368, Note_on_c, 3, 65, 68
5, 185368, Note_on_c, 3, 55, 80
5, 185368, Note_on_c, 3, 45, 54
5, 185560, Note_on_c, 3, 45, 0
5, 185560, Note_on_c, 3, 65, 0
5, 185560, Note_on_c, 3, 61, 0
5, 185560, Note_on_c, 3, 58, 0
5, 185560, Note_on_c, 3, 55, 0
5, 185760, Note_on_c, 3, 69, 66
5, 185760, Note_on_c, 3, 64, 65
5, 185760, Note_on_c, 3, 65, 62
5, 185761, Note_on_c, 3, 65, 0
5, 185761, Note_on_c, 3, 64, 0
5, 185761, Note_on_c, 3, 69, 0
5, 185848, Note_on_c, 3, 64, 35
5, 185848, Note_on_c, 3, 65, 41
5, 185848, Note_on_c, 3, 69, 40
5, 185849, Note_on_c, 3, 69, 0
5, 185849, Note_on_c, 3, 65, 0
5, 185849, Note_on_c, 3, 64, 0
5, 185944, Note_on_c, 3, 62, 15
5, 185945, Note_on_c, 3, 62, 0
5, 186136, Note_on_c, 3, 69, 68
5, 186136, Note_on_c, 3, 64, 64
5, 186136, Note_on_c, 3, 65, 65
5, 186328, Note_on_c, 3, 65, 0
5, 186328, Note_on_c, 3, 64, 0
5, 186328, Note_on_c, 3, 69, 0
5, 186328, Note_on_c, 3, 62, 51
5, 186424, Note_on_c, 3, 62, 0
5, 186520, Note_on_c, 3, 69, 63
5, 186520, Note_on_c, 3, 64, 65
5, 186520, Note_on_c, 3, 65, 55
5, 186521, Note_on_c, 3, 65, 0
5, 186616, Note_on_c, 3, 64, 0
5, 186616, Note_on_c, 3, 69, 0
5, 186712, Note_on_c, 3, 64, 67
5, 186712, Note_on_c, 3, 69, 55
5, 186712, Note_on_c, 3, 65, 59
5, 186713, Note_on_c, 3, 69, 0
5, 186808, Note_on_c, 3, 65, 0
5, 186808, Note_on_c, 3, 64, 0
5, 186904, Note_on_c, 3, 69, 68
5, 186904, Note_on_c, 3, 64, 66
5, 186904, Note_on_c, 3, 65, 64
5, 187000, Note_on_c, 3, 65, 0
5, 187000, Note_on_c, 3, 64, 0
5, 187000, Note_on_c, 3, 69, 0
5, 187000, Note_on_c, 3, 64, 52
5, 187096, Note_on_c, 3, 64, 0
5, 187096, Note_on_c, 3, 60, 27
5, 187096, Note_on_c, 3, 62, 25
5, 187192, Note_on_c, 3, 62, 0
5, 187192, Note_on_c, 3, 60, 0
5, 187288, Note_on_c, 3, 62, 76
5, 187288, Note_on_c, 3, 69, 78
5, 187288, Note_on_c, 3, 74, 48
5, 187288, Note_on_c, 3, 72, 46
5, 187289, Note_on_c, 3, 72, 0
5, 187384, Note_on_c, 3, 62, 0
5, 187384, Note_on_c, 3, 69, 0
5, 187384, Note_on_c, 3, 74, 0
5, 187672, Note_on_c, 3, 73, 69
5, 187672, Note_on_c, 3, 61, 84
5, 187672, Note_on_c, 3, 76, 96
5, 187672, Note_on_c, 3, 65, 98
5, 187672, Note_on_c, 3, 69, 69
5, 187672, Note_on_c, 3, 74, 23
5, 187768, Note_on_c, 3, 74, 0
5, 187864, Note_on_c, 3, 65, 0
5, 187864, Note_on_c, 3, 73, 0
5, 187864, Note_on_c, 3, 69, 0
5, 187960, Note_on_c, 3, 76, 0
5, 188056, Note_on_c, 3, 61, 0
5, 188056, Note_on_c, 3, 60, 96
5, 188056, Note_on_c, 3, 74, 84
5, 188056, Note_on_c, 3, 69, 92
5, 188056, Note_on_c, 3, 65, 94
5, 188248, Note_on_c, 3, 65, 0
5, 188248, Note_on_c, 3, 69, 0
5, 188248, Note_on_c, 3, 74, 0
5, 188344, Note_on_c, 3, 60, 0
5, 188344, Note_on_c, 3, 74, 67
5, 188344, Note_on_c, 3, 67, 100
5, 188344, Note_on_c, 3, 59, 100
5, 188344, Note_on_c, 3, 71, 63
5, 188344, Note_on_c, 3, 72, 21
5, 188345, Note_on_c, 3, 72, 0
5, 188632, Note_on_c, 3, 59, 0
5, 188632, Note_on_c, 3, 74, 0
5, 188632, Note_on_c, 3, 67, 0
5, 188632, Note_on_c, 3, 71, 0
5, 188824, Note_on_c, 3, 72, 68
5, 188824, Note_on_c, 3, 70, 53
5, 188824, Note_on_c, 3, 65, 60
5, 188824, Note_on_c, 3, 62, 74
5, 188824, Note_on_c, 3, 68, 45
5, 188824, Note_on_c, 3, 55, 94
5, 188825, Note_on_c, 3, 55, 0
5, 188825, Note_on_c, 3, 62, 0
5, 188825, Note_on_c, 3, 65, 0
5, 188825, Note_on_c, 3, 68, 0
5, 188920, Note_on_c, 3, 72, 0
5, 188920, Note_on_c, 3, 70, 0
5, 189016, Note_on_c, 3, 70, 56
5, 189016, Note_on_c, 3, 72, 70
5, 189016, Note_on_c, 3, 65, 57
5, 189016, Note_on_c, 3, 62, 90
5, 189016, Note_on_c, 3, 64, 70
5, 189016, Note_on_c, 3, 68, 42
5, 189016, Note_on_c, 3, 55, 94
5, 189017, Note_on_c, 3, 68, 0
5, 189017, Note_on_c, 3, 64, 0
5, 189112, Note_on_c, 3, 72, 0
5, 189112, Note_on_c, 3, 65, 0
5, 189112, Note_on_c, 3, 62, 0
5, 189112, Note_on_c, 3, 55, 0
5, 189208, Note_on_c, 3, 70, 0
5, 189304, Note_on_c, 3, 55, 110
5, 189304, Note_on_c, 3, 62, 92
5, 189304, Note_on_c, 3, 72, 70
5, 189304, Note_on_c, 3, 70, 55
5, 189304, Note_on_c, 3, 65, 72
5, 189304, Note_on_c, 3, 68, 32
5, 189305, Note_on_c, 3, 68, 0
5, 189400, Note_on_c, 3, 62, 0
5, 189400, Note_on_c, 3, 72, 0
5, 189400, Note_on_c, 3, 55, 0
5, 189400, Note_on_c, 3, 65, 0
5, 189400, Note_on_c, 3, 70, 0
5, 189784, Note_on_c, 3, 66, 19
5, 189880, Note_on_c, 3, 66, 0
5, 189976, Note_on_c, 3, 55, 80
5, 189976, Note_on_c, 3, 70, 49
5, 189976, Note_on_c, 3, 72, 65
5, 189976, Note_on_c, 3, 62, 78
5, 189976, Note_on_c, 3, 65, 54
5, 189976, Note_on_c, 3, 68, 26
5, 189977, Note_on_c, 3, 68, 0
5, 190072, Note_on_c, 3, 70, 0
5, 190072, Note_on_c, 3, 72, 0
5, 190072, Note_on_c, 3, 55, 0
5, 190072, Note_on_c, 3, 65, 0
5, 190072, Note_on_c, 3, 62, 0
5, 190072, Note_on_c, 3, 72, 62
5, 190072, Note_on_c, 3, 62, 60
5, 190072, Note_on_c, 3, 55, 65
5, 190072, Note_on_c, 3, 65, 50
5, 190072, Note_on_c, 3, 70, 21
5, 190072, Note_on_c, 3, 68, 18
5, 190073, Note_on_c, 3, 68, 0
5, 190073, Note_on_c, 3, 62, 0
5, 190073, Note_on_c, 3, 70, 0
5, 190168, Note_on_c, 3, 72, 0
5, 190168, Note_on_c, 3, 65, 0
5, 190168, Note_on_c, 3, 55, 0
5, 190168, Note_on_c, 3, 54, 41
5, 190264, Note_on_c, 3, 54, 0
5, 190360, Note_on_c, 3, 55, 94
5, 190360, Note_on_c, 3, 72, 64
5, 190360, Note_on_c, 3, 70, 47
5, 190360, Note_on_c, 3, 65, 66
5, 190360, Note_on_c, 3, 62, 76
5, 190360, Note_on_c, 3, 68, 23
5, 190361, Note_on_c, 3, 68, 0
5, 190456, Note_on_c, 3, 72, 0
5, 190456, Note_on_c, 3, 70, 0
5, 190456, Note_on_c, 3, 55, 0
5, 190456, Note_on_c, 3, 62, 0
5, 190456, Note_on_c, 3, 65, 0
5, 190648, Note_on_c, 3, 62, 78
5, 190648, Note_on_c, 3, 72, 67
5, 190648, Note_on_c, 3, 70, 42
5, 190648, Note_on_c, 3, 55, 94
5, 190648, Note_on_c, 3, 65, 59
5, 190648, Note_on_c, 3, 68, 31
5, 190649, Note_on_c, 3, 68, 0
5, 190744, Note_on_c, 3, 72, 0
5, 190744, Note_on_c, 3, 70, 0
5, 190744, Note_on_c, 3, 62, 0
5, 190744, Note_on_c, 3, 65, 0
5, 190744, Note_on_c, 3, 55, 0
5, 190936, Note_on_c, 3, 55, 100
5, 190936, Note_on_c, 3, 72, 74
5, 190936, Note_on_c, 3, 62, 90
5, 190936, Note_on_c, 3, 70, 35
5, 190936, Note_on_c, 3, 65, 67
5, 190936, Note_on_c, 3, 68, 28
5, 190937, Note_on_c, 3, 68, 0
5, 191032, Note_on_c, 3, 72, 0
5, 191032, Note_on_c, 3, 62, 0
5, 191032, Note_on_c, 3, 55, 0
5, 191032, Note_on_c, 3, 65, 0
5, 191032, Note_on_c, 3, 70, 0
5, 191224, Note_on_c, 3, 54, 32
5, 191320, Note_on_c, 3, 54, 0
5, 191320, Note_on_c, 3, 62, 66
5, 191320, Note_on_c, 3, 72, 51
5, 191320, Note_on_c, 3, 65, 51
5, 191320, Note_on_c, 3, 70, 30
5, 191320, Note_on_c, 3, 55, 94
5, 191320, Note_on_c, 3, 68, 16
5, 191321, Note_on_c, 3, 68, 0
5, 191416, Note_on_c, 3, 72, 0
5, 191416, Note_on_c, 3, 65, 0
5, 191416, Note_on_c, 3, 62, 0
5, 191416, Note_on_c, 3, 55, 0
5, 191416, Note_on_c, 3, 70, 0
5, 191512, Note_on_c, 3, 72, 70
5, 191512, Note_on_c, 3, 65, 69
5, 191512, Note_on_c, 3, 70, 36
5, 191512, Note_on_c, 3, 55, 104
5, 191512, Note_on_c, 3, 62, 80
5, 191512, Note_on_c, 3, 68, 33
5, 191513, Note_on_c, 3, 68, 0
5, 191608, Note_on_c, 3, 65, 0
5, 191608, Note_on_c, 3, 70, 0
5, 191608, Note_on_c, 3, 72, 0
5, 191608, Note_on_c, 3, 62, 0
5, 191608, Note_on_c, 3, 55, 0
5, 191896, Note_on_c, 3, 65, 84
5, 191896, Note_on_c, 3, 64, 88
5, 191896, Note_on_c, 3, 69, 68
5, 191896, Note_on_c, 3, 50, 61
5, 191896, Note_on_c, 3, 57, 43
5, 191992, Note_on_c, 3, 57, 0
5, 191992, Note_on_c, 3, 69, 0
5, 191992, Note_on_c, 3, 65, 0
5, 191992, Note_on_c, 3, 64, 0
5, 191992, Note_on_c, 3, 50, 0
5, 191992, Note_on_c, 3, 65, 49
5, 191992, Note_on_c, 3, 64, 31
5, 192088, Note_on_c, 3, 64, 0
5, 192088, Note_on_c, 3, 65, 0
5, 192088, Note_on_c, 3, 50, 15
5, 192088, Note_on_c, 3, 62, 17
5, 192184, Note_on_c, 3, 62, 0
5, 192184, Note_on_c, 3, 50, 0
5, 192280, Note_on_c, 3, 64, 72
5, 192280, Note_on_c, 3, 65, 72
5, 192280, Note_on_c, 3, 69, 68
5, 192280, Note_on_c, 3, 57, 51
5, 192280, Note_on_c, 3, 50, 50
5, 192376, Note_on_c, 3, 50, 0
5, 192376, Note_on_c, 3, 69, 0
5, 192376, Note_on_c, 3, 64, 0
5, 192376, Note_on_c, 3, 65, 0
5, 192376, Note_on_c, 3, 57, 0
5, 193432, Note_on_c, 3, 50, 92
5, 193432, Note_on_c, 3, 65, 88
5, 193432, Note_on_c, 3, 62, 86
5, 193432, Note_on_c, 3, 57, 88
5, 193624, Note_on_c, 3, 57, 0
5, 193624, Note_on_c, 3, 62, 0
5, 193624, Note_on_c, 3, 65, 0
5, 193720, Note_on_c, 3, 50, 0
5, 193816, Note_on_c, 3, 69, 74
5, 193816, Note_on_c, 3, 65, 67
5, 193816, Note_on_c, 3, 62, 80
5, 193816, Note_on_c, 3, 57, 69
5, 193816, Note_on_c, 3, 50, 74
5, 194008, Note_on_c, 3, 57, 0
5, 194008, Note_on_c, 3, 62, 0
5, 194008, Note_on_c, 3, 69, 0
5, 194008, Note_on_c, 3, 65, 0
5, 194104, Note_on_c, 3, 50, 0
5, 194200, Note_on_c, 3, 71, 74
5, 194200, Note_on_c, 3, 65, 90
5, 194200, Note_on_c, 3, 62, 92
5, 194296, Note_on_c, 3, 65, 0
5, 194296, Note_on_c, 3, 71, 0
5, 194392, Note_on_c, 3, 62, 0
5, 194488, Note_on_c, 3, 57, 76
5, 194488, Note_on_c, 3, 74, 74
5, 194488, Note_on_c, 3, 69, 74
5, 194488, Note_on_c, 3, 62, 76
5, 194584, Note_on_c, 3, 62, 0
5, 194584, Note_on_c, 3, 69, 0
5, 194584, Note_on_c, 3, 74, 0
5, 194680, Note_on_c, 3, 57, 0
5, 194968, Note_on_c, 3, 74, 90
5, 194968, Note_on_c, 3, 57, 74
5, 194968, Note_on_c, 3, 64, 90
5, 194968, Note_on_c, 3, 67, 78
5, 194968, Note_on_c, 3, 69, 63
5, 195064, Note_on_c, 3, 69, 0
5, 195064, Note_on_c, 3, 64, 0
5, 195064, Note_on_c, 3, 74, 0
5, 195064, Note_on_c, 3, 57, 0
5, 195064, Note_on_c, 3, 67, 0
5, 195152, Note_on_c, 3, 74, 86
5, 195152, Note_on_c, 3, 57, 82
5, 195152, Note_on_c, 3, 64, 92
5, 195152, Note_on_c, 3, 67, 88
5, 195152, Note_on_c, 3, 69, 68
5, 195256, Note_on_c, 3, 69, 0
5, 195256, Note_on_c, 3, 64, 0
5, 195256, Note_on_c, 3, 74, 0
5, 195256, Note_on_c, 3, 57, 0
5, 195256, Note_on_c, 3, 67, 0
5, 195928, Note_on_c, 3, 74, 70
5, 195928, Note_on_c, 3, 57, 66
5, 195928, Note_on_c, 3, 64, 80
5, 195928, Note_on_c, 3, 72, 65
5, 195928, Note_on_c, 3, 67, 78
5, 196024, Note_on_c, 3, 67, 0
5, 196024, Note_on_c, 3, 64, 0
5, 196024, Note_on_c, 3, 74, 0
5, 196024, Note_on_c, 3, 57, 0
5, 196024, Note_on_c, 3, 72, 0
5, 196024, Note_on_c, 3, 57, 45
5, 196024, Note_on_c, 3, 64, 61
5, 196024, Note_on_c, 3, 74, 65
5, 196024, Note_on_c, 3, 67, 64
5, 196024, Note_on_c, 3, 72, 70
5, 196120, Note_on_c, 3, 72, 0
5, 196120, Note_on_c, 3, 74, 0
5, 196120, Note_on_c, 3, 57, 0
5, 196120, Note_on_c, 3, 64, 0
5, 196120, Note_on_c, 3, 67, 0
5, 196496, Note_on_c, 3, 74, 64
5, 196496, Note_on_c, 3, 57, 69
5, 196496, Note_on_c, 3, 72, 59
5, 196496, Note_on_c, 3, 67, 67
5, 196496, Note_on_c, 3, 64, 69
5, 196600, Note_on_c, 3, 64, 0
5, 196600, Note_on_c, 3, 72, 0
5, 196600, Note_on_c, 3, 74, 0
5, 196600, Note_on_c, 3, 57, 0
5, 196600, Note_on_c, 3, 67, 0
5, 196600, Note_on_c, 3, 57, 55
5, 196600, Note_on_c, 3, 74, 44
5, 196600, Note_on_c, 3, 64, 57
5, 196600, Note_on_c, 3, 67, 68
5, 196600, Note_on_c, 3, 72, 52
5, 196601, Note_on_c, 3, 72, 0
5, 196688, Note_on_c, 3, 64, 0
5, 196688, Note_on_c, 3, 67, 0
5, 196688, Note_on_c, 3, 57, 0
5, 196688, Note_on_c, 3, 57, 49
5, 196688, Note_on_c, 3, 64, 55
5, 196688, Note_on_c, 3, 67, 69
5, 196688, Note_on_c, 3, 72, 44
5, 196784, Note_on_c, 3, 72, 0
5, 196784, Note_on_c, 3, 64, 0
5, 196784, Note_on_c, 3, 74, 0
5, 196784, Note_on_c, 3, 57, 0
5, 196784, Note_on_c, 3, 67, 0
5, 196880, Note_on_c, 3, 57, 86
5, 196880, Note_on_c, 3, 74, 80
5, 196880, Note_on_c, 3, 67, 84
5, 196880, Note_on_c, 3, 72, 62
5, 196880, Note_on_c, 3, 64, 72
5, 196976, Note_on_c, 3, 64, 0
5, 196976, Note_on_c, 3, 67, 0
5, 196976, Note_on_c, 3, 57, 0
5, 196976, Note_on_c, 3, 74, 0
5, 196976, Note_on_c, 3, 72, 0
5, 197168, Note_on_c, 3, 74, 63
5, 197168, Note_on_c, 3, 67, 68
5, 197168, Note_on_c, 3, 64, 69
5, 197168, Note_on_c, 3, 72, 60
5, 197168, Note_on_c, 3, 57, 84
5, 197264, Note_on_c, 3, 57, 0
5, 197264, Note_on_c, 3, 64, 0
5, 197264, Note_on_c, 3, 74, 0
5, 197264, Note_on_c, 3, 67, 0
5, 197264, Note_on_c, 3, 72, 0
5, 197456, Note_on_c, 3, 57, 78
5, 197456, Note_on_c, 3, 74, 55
5, 197456, Note_on_c, 3, 67, 67
5, 197456, Note_on_c, 3, 64, 80
5, 197456, Note_on_c, 3, 72, 42
5, 197456, Note_on_c, 3, 70, 23
5, 197457, Note_on_c, 3, 70, 0
5, 197648, Note_on_c, 3, 74, 0
5, 197648, Note_on_c, 3, 67, 0
5, 197648, Note_on_c, 3, 57, 0
5, 197648, Note_on_c, 3, 72, 0
5, 197648, Note_on_c, 3, 64, 0
5, 197840, Note_on_c, 3, 74, 60
5, 197840, Note_on_c, 3, 67, 61
5, 197840, Note_on_c, 3, 64, 70
5, 197840, Note_on_c, 3, 72, 49
5, 197840, Note_on_c, 3, 57, 62
5, 197936, Note_on_c, 3, 57, 0
5, 197936, Note_on_c, 3, 64, 0
5, 197936, Note_on_c, 3, 74, 0
5, 197936, Note_on_c, 3, 67, 0
5, 197936, Note_on_c, 3, 72, 0
5, 198032, Note_on_c, 3, 69, 82
5, 198032, Note_on_c, 3, 76, 88
5, 198032, Note_on_c, 3, 65, 80
5, 198032, Note_on_c, 3, 50, 67
5, 198032, Note_on_c, 3, 72, 52
5, 198128, Note_on_c, 3, 72, 0
5, 198128, Note_on_c, 3, 65, 0
5, 198128, Note_on_c, 3, 69, 0
5, 198128, Note_on_c, 3, 76, 0
5, 198128, Note_on_c, 3, 50, 0
5, 198224, Note_on_c, 3, 76, 76
5, 198224, Note_on_c, 3, 69, 69
5, 198224, Note_on_c, 3, 72, 63
5, 198224, Note_on_c, 3, 65, 78
5, 198224, Note_on_c, 3, 50, 68
5, 198320, Note_on_c, 3, 50, 0
5, 198320, Note_on_c, 3, 72, 0
5, 198320, Note_on_c, 3, 76, 0
5, 198320, Note_on_c, 3, 69, 0
5, 198320, Note_on_c, 3, 65, 0
5, 198416, Note_on_c, 3, 69, 58
5, 198416, Note_on_c, 3, 74, 53
5, 198416, Note_on_c, 3, 65, 62
5, 198416, Note_on_c, 3, 62, 65
5, 198512, Note_on_c, 3, 62, 0
5, 198512, Note_on_c, 3, 69, 0
5, 198512, Note_on_c, 3, 74, 0
5, 198512, Note_on_c, 3, 65, 0
5, 198512, Note_on_c, 3, 50, 57
5, 198608, Note_on_c, 3, 50, 0
5, 198992, Note_on_c, 3, 72, 70
5, 198992, Note_on_c, 3, 69, 70
5, 198992, Note_on_c, 3, 65, 88
5, 198992, Note_on_c, 3, 62, 80
5, 199088, Note_on_c, 3, 62, 0
5, 199088, Note_on_c, 3, 72, 0
5, 199088, Note_on_c, 3, 69, 0
5, 199088, Note_on_c, 3, 65, 0
5, 199280, Note_on_c, 3, 65, 74
5, 199280, Note_on_c, 3, 69, 62
5, 199280, Note_on_c, 3, 62, 78
5, 199280, Note_on_c, 3, 57, 63
5, 199376, Note_on_c, 3, 57, 0
5, 199376, Note_on_c, 3, 65, 0
5, 199376, Note_on_c, 3, 69, 0
5, 199376, Note_on_c, 3, 62, 0
5, 199472, Note_on_c, 3, 66, 22
5, 199473, Note_on_c, 3, 66, 0
5, 199568, Note_on_c, 3, 65, 69
5, 199568, Note_on_c, 3, 50, 70
5, 199568, Note_on_c, 3, 62, 70
5, 199568, Note_on_c, 3, 57, 50
5, 199568, Note_on_c, 3, 59, 41
5, 199569, Note_on_c, 3, 59, 0
5, 199664, Note_on_c, 3, 62, 0
5, 199664, Note_on_c, 3, 65, 0
5, 199664, Note_on_c, 3, 50, 0
5, 199664, Note_on_c, 3, 57, 0
5, 199952, Note_on_c, 3, 65, 70
5, 199952, Note_on_c, 3, 49, 65
5, 199952, Note_on_c, 3, 61, 76
5, 199952, Note_on_c, 3, 57, 76
5, 200048, Note_on_c, 3, 57, 0
5, 200048, Note_on_c, 3, 49, 0
5, 200144, Note_on_c, 3, 61, 0
5, 200144, Note_on_c, 3, 65, 0
5, 200336, Note_on_c, 3, 65, 88
5, 200336, Note_on_c, 3, 48, 88
5, 200336, Note_on_c, 3, 60, 96
5, 200336, Note_on_c, 3, 57, 80
5, 200432, Note_on_c, 3, 57, 0
5, 200432, Note_on_c, 3, 65, 0
5, 200432, Note_on_c, 3, 48, 0
5, 200432, Note_on_c, 3, 60, 0
5, 200624, Note_on_c, 3, 65, 82
5, 200624, Note_on_c, 3, 57, 76
5, 200624, Note_on_c, 3, 62, 72
5, 200624, Note_on_c, 3, 59, 80
5, 200624, Note_on_c, 3, 47, 61
5, 200720, Note_on_c, 3, 47, 0
5, 200720, Note_on_c, 3, 62, 0
5, 200720, Note_on_c, 3, 65, 0
5, 200720, Note_on_c, 3, 57, 0
5, 200720, Note_on_c, 3, 59, 0
5, 200912, Note_on_c, 3, 69, 59
5, 200912, Note_on_c, 3, 62, 70
5, 200912, Note_on_c, 3, 47, 61
5, 200913, Note_on_c, 3, 47, 0
5, 200913, Note_on_c, 3, 62, 0
5, 200913, Note_on_c, 3, 69, 0
5, 201104, Note_on_c, 3, 72, 68
5, 201104, Note_on_c, 3, 57, 82
5, 201104, Note_on_c, 3, 62, 80
5, 201104, Note_on_c, 3, 65, 62
5, 201104, Note_on_c, 3, 70, 38
5, 201104, Note_on_c, 3, 68, 27
5, 201105, Note_on_c, 3, 68, 0
5, 201105, Note_on_c, 3, 57, 0
5, 201200, Note_on_c, 3, 65, 0
5, 201200, Note_on_c, 3, 72, 0
5, 201200, Note_on_c, 3, 62, 0
5, 201200, Note_on_c, 3, 70, 0
5, 201392, Note_on_c, 3, 72, 74
5, 201392, Note_on_c, 3, 65, 76
5, 201392, Note_on_c, 3, 62, 86
5, 201392, Note_on_c, 3, 70, 46
5, 201392, Note_on_c, 3, 57, 78
5, 201392, Note_on_c, 3, 68, 29
5, 201393, Note_on_c, 3, 68, 0
5, 201488, Note_on_c, 3, 65, 0
5, 201488, Note_on_c, 3, 62, 0
5, 201488, Note_on_c, 3, 72, 0
5, 201488, Note_on_c, 3, 57, 0
5, 201488, Note_on_c, 3, 70, 0
5, 201680, Note_on_c, 3, 72, 90
5, 201680, Note_on_c, 3, 65, 86
5, 201680, Note_on_c, 3, 62, 100
5, 201680, Note_on_c, 3, 57, 80
5, 201680, Note_on_c, 3, 70, 41
5, 201968, Note_on_c, 3, 70, 0
5, 201968, Note_on_c, 3, 72, 0
5, 201968, Note_on_c, 3, 62, 0
5, 201968, Note_on_c, 3, 65, 0
5, 202064, Note_on_c, 3, 57, 0
5, 202064, Note_on_c, 3, 62, 88
5, 202064, Note_on_c, 3, 72, 78
5, 202064, Note_on_c, 3, 70, 39
5, 202064, Note_on_c, 3, 65, 64
5, 202064, Note_on_c, 3, 55, 98
5, 202160, Note_on_c, 3, 55, 0
5, 202160, Note_on_c, 3, 70, 0
5, 202160, Note_on_c, 3, 62, 0
5, 202160, Note_on_c, 3, 72, 0
5, 202160, Note_on_c, 3, 65, 0
5, 202256, Note_on_c, 3, 62, 80
5, 202256, Note_on_c, 3, 72, 72
5, 202256, Note_on_c, 3, 70, 34
5, 202256, Note_on_c, 3, 55, 110
5, 202256, Note_on_c, 3, 65, 66
5, 202256, Note_on_c, 3, 68, 22
5, 202257, Note_on_c, 3, 68, 0
5, 202352, Note_on_c, 3, 72, 0
5, 202352, Note_on_c, 3, 70, 0
5, 202352, Note_on_c, 3, 62, 0
5, 202352, Note_on_c, 3, 65, 0
5, 202352, Note_on_c, 3, 55, 0
5, 203024, Note_on_c, 3, 57, 69
5, 203024, Note_on_c, 3, 72, 76
5, 203024, Note_on_c, 3, 62, 88
5, 203024, Note_on_c, 3, 70, 43
5, 203024, Note_on_c, 3, 65, 65
5, 203024, Note_on_c, 3, 68, 23
5, 203025, Note_on_c, 3, 68, 0
5, 203025, Note_on_c, 3, 62, 0
5, 203120, Note_on_c, 3, 70, 0
5, 203120, Note_on_c, 3, 57, 0
5, 203120, Note_on_c, 3, 72, 0
5, 203120, Note_on_c, 3, 65, 0
5, 203120, Note_on_c, 3, 72, 62
5, 203120, Note_on_c, 3, 62, 48
5, 203120, Note_on_c, 3, 65, 58
5, 203120, Note_on_c, 3, 57, 52
5, 203121, Note_on_c, 3, 65, 0
5, 203121, Note_on_c, 3, 62, 0
5, 203216, Note_on_c, 3, 72, 0
5, 203216, Note_on_c, 3, 57, 0
5, 203216, Note_on_c, 3, 55, 64
5, 203217, Note_on_c, 3, 55, 0
5, 203312, Note_on_c, 3, 72, 69
5, 203312, Note_on_c, 3, 65, 68
5, 203312, Note_on_c, 3, 62, 64
5, 203312, Note_on_c, 3, 57, 70
5, 203312, Note_on_c, 3, 70, 33
5, 203312, Note_on_c, 3, 68, 17
5, 203313, Note_on_c, 3, 68, 0
5, 203408, Note_on_c, 3, 65, 0
5, 203408, Note_on_c, 3, 62, 0
5, 203408, Note_on_c, 3, 72, 0
5, 203408, Note_on_c, 3, 70, 0
5, 203408, Note_on_c, 3, 57, 0
5, 203600, Note_on_c, 3, 72, 84
5, 203600, Note_on_c, 3, 57, 62
5, 203600, Note_on_c, 3, 65, 78
5, 203600, Note_on_c, 3, 62, 80
5, 203696, Note_on_c, 3, 62, 0
5, 203696, Note_on_c, 3, 72, 0
5, 203696, Note_on_c, 3, 57, 0
5, 203696, Note_on_c, 3, 65, 0
5, 203792, Note_on_c, 3, 70, 60
5, 203792, Note_on_c, 3, 65, 66
5, 203792, Note_on_c, 3, 62, 65
5, 203792, Note_on_c, 3, 55, 90
5, 203888, Note_on_c, 3, 62, 0
5, 203888, Note_on_c, 3, 65, 0
5, 203984, Note_on_c, 3, 70, 0
5, 203984, Note_on_c, 3, 55, 0
5, 203984, Note_on_c, 3, 57, 35
5, 203984, Note_on_c, 3, 62, 29
5, 204080, Note_on_c, 3, 62, 0
5, 204080, Note_on_c, 3, 57, 0
5, 204176, Note_on_c, 3, 69, 58
5, 204176, Note_on_c, 3, 64, 66
5, 204176, Note_on_c, 3, 65, 65
5, 204176, Note_on_c, 3, 57, 31
5, 204176, Note_on_c, 3, 50, 44
5, 204272, Note_on_c, 3, 50, 0
5, 204272, Note_on_c, 3, 65, 0
5, 204272, Note_on_c, 3, 69, 0
5, 204272, Note_on_c, 3, 64, 0
5, 204272, Note_on_c, 3, 57, 0
5, 204368, Note_on_c, 3, 64, 72
5, 204368, Note_on_c, 3, 65, 76
5, 204368, Note_on_c, 3, 69, 61
5, 204368, Note_on_c, 3, 57, 60
5, 204368, Note_on_c, 3, 50, 58
5, 204464, Note_on_c, 3, 50, 0
5, 204464, Note_on_c, 3, 69, 0
5, 204464, Note_on_c, 3, 64, 0
5, 204464, Note_on_c, 3, 65, 0
5, 204464, Note_on_c, 3, 57, 0
5, 204560, Note_on_c, 3, 62, 32
5, 204656, Note_on_c, 3, 69, 63
5, 204656, Note_on_c, 3, 65, 66
5, 204656, Note_on_c, 3, 57, 40
5, 204656, Note_on_c, 3, 50, 40
5, 204752, Note_on_c, 3, 50, 0
5, 204752, Note_on_c, 3, 65, 0
5, 204752, Note_on_c, 3, 62, 0
5, 204752, Note_on_c, 3, 69, 0
5, 204752, Note_on_c, 3, 57, 0
5, 205424, Note_on_c, 3, 57, 64
5, 205424, Note_on_c, 3, 69, 72
5, 205424, Note_on_c, 3, 65, 78
5, 205424, Note_on_c, 3, 64, 82
5, 205520, Note_on_c, 3, 64, 0
5, 205520, Note_on_c, 3, 57, 0
5, 205520, Note_on_c, 3, 69, 0
5, 205520, Note_on_c, 3, 65, 0
5, 205520, Note_on_c, 3, 62, 44
5, 205520, Note_on_c, 3, 50, 29
5, 205521, Note_on_c, 3, 50, 0
5, 205616, Note_on_c, 3, 62, 0
5, 205712, Note_on_c, 3, 65, 68
5, 205712, Note_on_c, 3, 62, 72
5, 205712, Note_on_c, 3, 50, 66
5, 205712, Note_on_c, 3, 57, 63
5, 206000, Note_on_c, 3, 57, 0
5, 206000, Note_on_c, 3, 65, 0
5, 206000, Note_on_c, 3, 62, 0
5, 206000, Note_on_c, 3, 50, 0
5, 206096, Note_on_c, 3, 61, 94
5, 206096, Note_on_c, 3, 65, 92
5, 206096, Note_on_c, 3, 49, 72
5, 206096, Note_on_c, 3, 57, 90
5, 206288, Note_on_c, 3, 57, 0
5, 206384, Note_on_c, 3, 61, 0
5, 206384, Note_on_c, 3, 65, 0
5, 206384, Note_on_c, 3, 49, 0
5, 206480, Note_on_c, 3, 65, 92
5, 206480, Note_on_c, 3, 62, 94
5, 206480, Note_on_c, 3, 59, 102
5, 206480, Note_on_c, 3, 48, 41
5, 206480, Note_on_c, 3, 50, 37
5, 206481, Note_on_c, 3, 50, 0
5, 206576, Note_on_c, 3, 59, 0
5, 206576, Note_on_c, 3, 48, 0
5, 206576, Note_on_c, 3, 65, 0
5, 206672, Note_on_c, 3, 62, 0
5, 206768, Note_on_c, 3, 69, 78
5, 206768, Note_on_c, 3, 62, 88
5, 206768, Note_on_c, 3, 58, 78
5, 206768, Note_on_c, 3, 65, 66
5, 206768, Note_on_c, 3, 48, 64
5, 206768, Note_on_c, 3, 67, 23
5, 206864, Note_on_c, 3, 48, 0
5, 206960, Note_on_c, 3, 62, 0
5, 206960, Note_on_c, 3, 58, 0
5, 206960, Note_on_c, 3, 69, 0
5, 206960, Note_on_c, 3, 67, 0
5, 206960, Note_on_c, 3, 65, 0
5, 206960, Note_on_c, 3, 51, 39
5, 207056, Note_on_c, 3, 51, 0
5, 207056, Note_on_c, 3, 52, 20
5, 207152, Note_on_c, 3, 52, 0
5, 207248, Note_on_c, 3, 74, 78
5, 207248, Note_on_c, 3, 64, 78
5, 207248, Note_on_c, 3, 67, 80
5, 207248, Note_on_c, 3, 69, 63
5, 207248, Note_on_c, 3, 45, 68
5, 207632, Note_on_c, 3, 45, 0
5, 207632, Note_on_c, 3, 74, 0
5, 207632, Note_on_c, 3, 64, 0
5, 207728, Note_on_c, 3, 67, 0
5, 207728, Note_on_c, 3, 69, 0
5, 207824, Note_on_c, 3, 74, 86
5, 207824, Note_on_c, 3, 64, 96
5, 207824, Note_on_c, 3, 67, 84
5, 207824, Note_on_c, 3, 69, 66
5, 207824, Note_on_c, 3, 57, 82
5, 207920, Note_on_c, 3, 57, 0
5, 207920, Note_on_c, 3, 67, 0
5, 207920, Note_on_c, 3, 74, 0
5, 207920, Note_on_c, 3, 64, 0
5, 207920, Note_on_c, 3, 69, 0
5, 208112, Note_on_c, 3, 74, 63
5, 208112, Note_on_c, 3, 57, 64
5, 208112, Note_on_c, 3, 67, 60
5, 208112, Note_on_c, 3, 69, 50
5, 208112, Note_on_c, 3, 64, 58
5, 208208, Note_on_c, 3, 64, 0
5, 208208, Note_on_c, 3, 67, 0
5, 208208, Note_on_c, 3, 74, 0
5, 208208, Note_on_c, 3, 57, 0
5, 208208, Note_on_c, 3, 69, 0
5, 208400, Note_on_c, 3, 72, 58
5, 208400, Note_on_c, 3, 57, 59
5, 208400, Note_on_c, 3, 67, 68
5, 208400, Note_on_c, 3, 69, 50
5, 208400, Note_on_c, 3, 62, 72
5, 208496, Note_on_c, 3, 62, 0
5, 208688, Note_on_c, 3, 67, 0
5, 208688, Note_on_c, 3, 72, 0
5, 208688, Note_on_c, 3, 57, 0
5, 208688, Note_on_c, 3, 69, 0
5, 208784, Note_on_c, 3, 57, 61
5, 208784, Note_on_c, 3, 69, 78
5, 208784, Note_on_c, 3, 60, 72
5, 208784, Note_on_c, 3, 64, 66
5, 208785, Note_on_c, 3, 64, 0
5, 208785, Note_on_c, 3, 60, 0
5, 208880, Note_on_c, 3, 69, 0
5, 208880, Note_on_c, 3, 57, 0
5, 208976, Note_on_c, 3, 69, 67
5, 208976, Note_on_c, 3, 57, 70
5, 208976, Note_on_c, 3, 67, 68
5, 208976, Note_on_c, 3, 64, 78
5, 208976, Note_on_c, 3, 60, 82
5, 209072, Note_on_c, 3, 60, 0
5, 209072, Note_on_c, 3, 67, 0
5, 209072, Note_on_c, 3, 69, 0
5, 209072, Note_on_c, 3, 57, 0
5, 209072, Note_on_c, 3, 64, 0
5, 209264, Note_on_c, 3, 67, 72
5, 209264, Note_on_c, 3, 64, 74
5, 209264, Note_on_c, 3, 60, 70
5, 209264, Note_on_c, 3, 57, 69
5, 209360, Note_on_c, 3, 57, 0
5, 209360, Note_on_c, 3, 67, 0
5, 209360, Note_on_c, 3, 64, 0
5, 209360, Note_on_c, 3, 60, 0
5, 209544, Note_on_c, 3, 57, 69
5, 209544, Note_on_c, 3, 64, 78
5, 209544, Note_on_c, 3, 60, 72
5, 209648, Note_on_c, 3, 60, 0
5, 209648, Note_on_c, 3, 64, 0
5, 209648, Note_on_c, 3, 57, 0
5, 209928, Note_on_c, 3, 64, 51
5, 209928, Note_on_c, 3, 57, 54
5, 209928, Note_on_c, 3, 55, 69
5, 209928, Note_on_c, 3, 60, 56
5, 210128, Note_on_c, 3, 60, 0
5, 210128, Note_on_c, 3, 64, 0
5, 210128, Note_on_c, 3, 57, 0
5, 210128, Note_on_c, 3, 55, 0
5, 210320, Note_on_c, 3, 67, 60
5, 210320, Note_on_c, 3, 72, 55
5, 210320, Note_on_c, 3, 69, 49
5, 210321, Note_on_c, 3, 69, 0
5, 210321, Note_on_c, 3, 72, 0
5, 210321, Note_on_c, 3, 67, 0
5, 210504, Note_on_c, 3, 67, 61
5, 210504, Note_on_c, 3, 72, 52
5, 210504, Note_on_c, 3, 69, 54
5, 210600, Note_on_c, 3, 69, 0
5, 210600, Note_on_c, 3, 72, 0
5, 210600, Note_on_c, 3, 67, 0
5, 210704, Note_on_c, 3, 72, 51
5, 210704, Note_on_c, 3, 65, 59
5, 210888, Note_on_c, 3, 65, 0
5, 210888, Note_on_c, 3, 72, 0
5, 210888, Note_on_c, 3, 72, 27
5, 210888, Note_on_c, 3, 67, 29
5, 210984, Note_on_c, 3, 67, 0
5, 210984, Note_on_c, 3, 72, 0
5, 210984, Note_on_c, 3, 69, 28
5, 210984, Note_on_c, 3, 67, 63
5, 210984, Note_on_c, 3, 69, 64
5, 210984, Note_on_c, 3, 72, 68
5, 210985, Note_on_c, 3, 69, 0
5, 211272, Note_on_c, 3, 67, 0
5, 211272, Note_on_c, 3, 69, 0
5, 211272, Note_on_c, 3, 72, 0
5, 211272, Note_on_c, 3, 65, 54
5, 211368, Note_on_c, 3, 65, 0
5, 211464, Note_on_c, 3, 67, 88
5, 211464, Note_on_c, 3, 72, 65
5, 211464, Note_on_c, 3, 69, 60
5, 211560, Note_on_c, 3, 69, 0
5, 211560, Note_on_c, 3, 72, 0
5, 211560, Note_on_c, 3, 67, 0
5, 211656, Note_on_c, 3, 72, 57
5, 211656, Note_on_c, 3, 65, 70
5, 211752, Note_on_c, 3, 65, 0
5, 211752, Note_on_c, 3, 72, 0
5, 211848, Note_on_c, 3, 70, 43
5, 211848, Note_on_c, 3, 63, 61
5, 211848, Note_on_c, 3, 67, 18
5, 211944, Note_on_c, 3, 67, 0
5, 211944, Note_on_c, 3, 63, 0
5, 211944, Note_on_c, 3, 70, 0
5, 212040, Note_on_c, 3, 70, 39
5, 212040, Note_on_c, 3, 63, 56
5, 212040, Note_on_c, 3, 65, 55
5, 212136, Note_on_c, 3, 65, 0
5, 212136, Note_on_c, 3, 63, 0
5, 212136, Note_on_c, 3, 70, 0
5, 212232, Note_on_c, 3, 63, 65
5, 212232, Note_on_c, 3, 70, 49
5, 212232, Note_on_c, 3, 65, 66
5, 212328, Note_on_c, 3, 65, 0
5, 212328, Note_on_c, 3, 70, 0
5, 212328, Note_on_c, 3, 63, 0
5, 212424, Note_on_c, 3, 61, 20
5, 212425, Note_on_c, 3, 61, 0
5, 212520, Note_on_c, 3, 70, 59
5, 212520, Note_on_c, 3, 61, 65
5, 212520, Note_on_c, 3, 65, 72
5, 212712, Note_on_c, 3, 65, 0
5, 212712, Note_on_c, 3, 61, 0
5, 212712, Note_on_c, 3, 70, 0
5, 212808, Note_on_c, 3, 70, 42
5, 212808, Note_on_c, 3, 61, 51
5, 212808, Note_on_c, 3, 65, 65
5, 213096, Note_on_c, 3, 61, 0
5, 213192, Note_on_c, 3, 65, 0
5, 213192, Note_on_c, 3, 70, 0
5, 213192, Note_on_c, 3, 61, 44
5, 213192, Note_on_c, 3, 65, 14
5, 213192, Note_on_c, 3, 68, 43
5, 213193, Note_on_c, 3, 65, 0
5, 213193, Note_on_c, 3, 61, 0
5, 213288, Note_on_c, 3, 68, 0
5, 213384, Note_on_c, 3, 61, 78
5, 213384, Note_on_c, 3, 70, 62
5, 213384, Note_on_c, 3, 66, 57
5, 213384, Note_on_c, 3, 57, 62
5, 213385, Note_on_c, 3, 66, 0
5, 213385, Note_on_c, 3, 61, 0
5, 213480, Note_on_c, 3, 70, 0
5, 213480, Note_on_c, 3, 57, 0
5, 213576, Note_on_c, 3, 61, 72
5, 213576, Note_on_c, 3, 66, 63
5, 213576, Note_on_c, 3, 70, 61
5, 213576, Note_on_c, 3, 57, 59
5, 213768, Note_on_c, 3, 57, 0
5, 213768, Note_on_c, 3, 61, 0
5, 213768, Note_on_c, 3, 66, 0
5, 213768, Note_on_c, 3, 70, 0
5, 213864, Note_on_c, 3, 57, 51
5, 213864, Note_on_c, 3, 70, 59
5, 213864, Note_on_c, 3, 61, 72
5, 213864, Note_on_c, 3, 66, 59
5, 213865, Note_on_c, 3, 61, 0
5, 213960, Note_on_c, 3, 57, 0
5, 213960, Note_on_c, 3, 70, 0
5, 213960, Note_on_c, 3, 66, 0
5, 213960, Note_on_c, 3, 70, 23
5, 213960, Note_on_c, 3, 61, 34
5, 213960, Note_on_c, 3, 66, 28
5, 213960, Note_on_c, 3, 57, 23
5, 213961, Note_on_c, 3, 57, 0
5, 213961, Note_on_c, 3, 66, 0
5, 213961, Note_on_c, 3, 61, 0
5, 214056, Note_on_c, 3, 70, 0
5, 214152, Note_on_c, 3, 60, 88
5, 214152, Note_on_c, 3, 65, 76
5, 214152, Note_on_c, 3, 69, 51
5, 214152, Note_on_c, 3, 55, 72
5, 214153, Note_on_c, 3, 55, 0
5, 214153, Note_on_c, 3, 60, 0
5, 214153, Note_on_c, 3, 65, 0
5, 214248, Note_on_c, 3, 69, 0
5, 214344, Note_on_c, 3, 69, 76
5, 214344, Note_on_c, 3, 65, 84
5, 214344, Note_on_c, 3, 60, 92
5, 214344, Note_on_c, 3, 55, 96
5, 214536, Note_on_c, 3, 55, 0
5, 214536, Note_on_c, 3, 69, 0
5, 214536, Note_on_c, 3, 65, 0
5, 214536, Note_on_c, 3, 60, 0
5, 214632, Note_on_c, 3, 55, 100
5, 214632, Note_on_c, 3, 60, 84
5, 214632, Note_on_c, 3, 65, 66
5, 214632, Note_on_c, 3, 69, 50
5, 214633, Note_on_c, 3, 60, 0
5, 214728, Note_on_c, 3, 55, 0
5, 214728, Note_on_c, 3, 65, 0
5, 214728, Note_on_c, 3, 55, 19
5, 214728, Note_on_c, 3, 60, 42
5, 214728, Note_on_c, 3, 65, 32
5, 214729, Note_on_c, 3, 55, 0
5, 214824, Note_on_c, 3, 69, 0
5, 214824, Note_on_c, 3, 60, 0
5, 214824, Note_on_c, 3, 65, 0
5, 214920, Note_on_c, 3, 67, 59
5, 214920, Note_on_c, 3, 64, 64
5, 214920, Note_on_c, 3, 60, 80
5, 214920, Note_on_c, 3, 50, 26
5, 215016, Note_on_c, 3, 50, 0
5, 215016, Note_on_c, 3, 67, 0
5, 215016, Note_on_c, 3, 64, 0
5, 215016, Note_on_c, 3, 60, 0
5, 215112, Note_on_c, 3, 50, 56
5, 215112, Note_on_c, 3, 64, 80
5, 215112, Note_on_c, 3, 67, 65
5, 215112, Note_on_c, 3, 60, 74
5, 215208, Note_on_c, 3, 60, 0
5, 215208, Note_on_c, 3, 50, 0
5, 215208, Note_on_c, 3, 64, 0
5, 215208, Note_on_c, 3, 67, 0
5, 215400, Note_on_c, 3, 67, 69
5, 215400, Note_on_c, 3, 60, 80
5, 215400, Note_on_c, 3, 64, 67
5, 215592, Note_on_c, 3, 64, 0
5, 215592, Note_on_c, 3, 60, 0
5, 215688, Note_on_c, 3, 67, 0
5, 215688, Note_on_c, 3, 60, 50
5, 215688, Note_on_c, 3, 66, 38
5, 215688, Note_on_c, 3, 62, 59
5, 215689, Note_on_c, 3, 62, 0
5, 215689, Note_on_c, 3, 60, 0
5, 215784, Note_on_c, 3, 66, 0
5, 215880, Note_on_c, 3, 66, 63
5, 215880, Note_on_c, 3, 60, 76
5, 215880, Note_on_c, 3, 62, 70
5, 216072, Note_on_c, 3, 62, 0
5, 216072, Note_on_c, 3, 60, 0
5, 216072, Note_on_c, 3, 66, 0
5, 216168, Note_on_c, 3, 66, 63
5, 216168, Note_on_c, 3, 60, 58
5, 216168, Note_on_c, 3, 62, 32
5, 216169, Note_on_c, 3, 62, 0
5, 216169, Note_on_c, 3, 60, 0
5, 216169, Note_on_c, 3, 66, 0
5, 216264, Note_on_c, 3, 66, 42
5, 216264, Note_on_c, 3, 60, 41
5, 216264, Note_on_c, 3, 62, 22
5, 216265, Note_on_c, 3, 62, 0
5, 216265, Note_on_c, 3, 60, 0
5, 216265, Note_on_c, 3, 66, 0
5, 216456, Note_on_c, 3, 67, 63
5, 216456, Note_on_c, 3, 57, 53
5, 216456, Note_on_c, 3, 65, 47
5, 216456, Note_on_c, 3, 60, 45
5, 216457, Note_on_c, 3, 60, 0
5, 216457, Note_on_c, 3, 57, 0
5, 216552, Note_on_c, 3, 65, 0
5, 216552, Note_on_c, 3, 67, 0
5, 216648, Note_on_c, 3, 65, 64
5, 216648, Note_on_c, 3, 60, 84
5, 216648, Note_on_c, 3, 67, 68
5, 216648, Note_on_c, 3, 63, 37
5, 216649, Note_on_c, 3, 63, 0
5, 216840, Note_on_c, 3, 65, 0
5, 216840, Note_on_c, 3, 60, 0
5, 216840, Note_on_c, 3, 67, 0
5, 216936, Note_on_c, 3, 67, 57
5, 216936, Note_on_c, 3, 65, 66
5, 216936, Note_on_c, 3, 60, 82
5, 216936, Note_on_c, 3, 57, 65
5, 217032, Note_on_c, 3, 57, 0
5, 217032, Note_on_c, 3, 67, 0
5, 217032, Note_on_c, 3, 65, 0
5, 217032, Note_on_c, 3, 60, 0
5, 217224, Note_on_c, 3, 69, 92
5, 217224, Note_on_c, 3, 61, 90
5, 217224, Note_on_c, 3, 64, 86
5, 217320, Note_on_c, 3, 64, 0
5, 217320, Note_on_c, 3, 61, 0
5, 217320, Note_on_c, 3, 69, 0
5, 217416, Note_on_c, 3, 61, 86
5, 217416, Note_on_c, 3, 69, 96
5, 217416, Note_on_c, 3, 64, 84
5, 217416, Note_on_c, 3, 53, 67
5, 217416, Note_on_c, 3, 59, 65
5, 217704, Note_on_c, 3, 53, 0
5, 217704, Note_on_c, 3, 64, 0
5, 217704, Note_on_c, 3, 61, 0
5, 217800, Note_on_c, 3, 69, 0
5, 217800, Note_on_c, 3, 59, 0
5, 217800, Note_on_c, 3, 61, 38
5, 217800, Note_on_c, 3, 53, 42
5, 217800, Note_on_c, 3, 64, 20
5, 217801, Note_on_c, 3, 64, 0
5, 217801, Note_on_c, 3, 53, 0
5, 217801, Note_on_c, 3, 61, 0
5, 217992, Note_on_c, 3, 58, 86
5, 217992, Note_on_c, 3, 48, 70
5, 217992, Note_on_c, 3, 65, 66
5, 217992, Note_on_c, 3, 62, 80
5, 217992, Note_on_c, 3, 55, 29
5, 217992, Note_on_c, 3, 62, 16
5, 217993, Note_on_c, 3, 55, 0
5, 217993, Note_on_c, 3, 62, 0
5, 217993, Note_on_c, 3, 58, 0
5, 218088, Note_on_c, 3, 48, 0
5, 218088, Note_on_c, 3, 62, 0
5, 218088, Note_on_c, 3, 65, 0
5, 218376, Note_on_c, 3, 70, 70
5, 218376, Note_on_c, 3, 61, 76
5, 218376, Note_on_c, 3, 65, 84
5, 218376, Note_on_c, 3, 55, 114
5, 218376, Note_on_c, 3, 45, 86
5, 219144, Note_on_c, 3, 45, 0
5, 219144, Note_on_c, 3, 55, 0
5, 219144, Note_on_c, 3, 49, 86
5, 219336, Note_on_c, 3, 49, 0
5, 219336, Note_on_c, 3, 65, 0
5, 219336, Note_on_c, 3, 61, 0
5, 219336, Note_on_c, 3, 70, 0
5, 219528, Note_on_c, 3, 69, 60
5, 219528, Note_on_c, 3, 64, 64
5, 219528, Note_on_c, 3, 65, 59
5, 219529, Note_on_c, 3, 65, 0
5, 219529, Note_on_c, 3, 64, 0
5, 219529, Note_on_c, 3, 69, 0
5, 219720, Note_on_c, 3, 69, 55
5, 219720, Note_on_c, 3, 64, 59
5, 219720, Note_on_c, 3, 65, 57
5, 219721, Note_on_c, 3, 65, 0
5, 219721, Note_on_c, 3, 64, 0
5, 219721, Note_on_c, 3, 69, 0
5, 219912, Note_on_c, 3, 62, 62
5, 220008, Note_on_c, 3, 62, 0
5, 220104, Note_on_c, 3, 64, 42
5, 220104, Note_on_c, 3, 65, 29
5, 220105, Note_on_c, 3, 65, 0
5, 220105, Note_on_c, 3, 64, 0
5, 220200, Note_on_c, 3, 69, 64
5, 220200, Note_on_c, 3, 64, 63
5, 220200, Note_on_c, 3, 65, 57
5, 220488, Note_on_c, 3, 65, 0
5, 220488, Note_on_c, 3, 64, 0
5, 220488, Note_on_c, 3, 69, 0
5, 220488, Note_on_c, 3, 62, 60
5, 220489, Note_on_c, 3, 62, 0
5, 220680, Note_on_c, 3, 64, 110
5, 220680, Note_on_c, 3, 65, 92
5, 220680, Note_on_c, 3, 69, 84
5, 220681, Note_on_c, 3, 64, 0
5, 220776, Note_on_c, 3, 69, 0
5, 220776, Note_on_c, 3, 65, 0
5, 220872, Note_on_c, 3, 62, 55
5, 220873, Note_on_c, 3, 62, 0
5, 221064, Note_on_c, 3, 64, 108
5, 221064, Note_on_c, 3, 65, 78
5, 221064, Note_on_c, 3, 69, 69
5, 221065, Note_on_c, 3, 69, 0
5, 221065, Note_on_c, 3, 65, 0
5, 221065, Note_on_c, 3, 64, 0
5, 221544, Note_on_c, 3, 76, 108
5, 221544, Note_on_c, 3, 67, 116
5, 221544, Note_on_c, 3, 72, 98
5, 221544, Note_on_c, 3, 74, 30
5, 221640, Note_on_c, 3, 74, 0
5, 221736, Note_on_c, 3, 76, 0
5, 221736, Note_on_c, 3, 67, 0
5, 221736, Note_on_c, 3, 72, 0
5, 221832, Note_on_c, 3, 72, 72
5, 221832, Note_on_c, 3, 64, 59
5, 221832, Note_on_c, 3, 67, 76
5, 221833, Note_on_c, 3, 67, 0
5, 221833, Note_on_c, 3, 64, 0
5, 221833, Note_on_c, 3, 72, 0
5, 222024, Note_on_c, 3, 67, 61
5, 222024, Note_on_c, 3, 60, 65
5, 222024, Note_on_c, 3, 64, 45
5, 222025, Note_on_c, 3, 64, 0
5, 222025, Note_on_c, 3, 60, 0
5, 222025, Note_on_c, 3, 67, 0
5, 222216, Note_on_c, 3, 64, 57
5, 222216, Note_on_c, 3, 55, 60
5, 222216, Note_on_c, 3, 60, 29
5, 222217, Note_on_c, 3, 60, 0
5, 222217, Note_on_c, 3, 55, 0
5, 222312, Note_on_c, 3, 64, 0
5, 222312, Note_on_c, 3, 64, 27
5, 222312, Note_on_c, 3, 60, 60
5, 222408, Note_on_c, 3, 60, 0
5, 222408, Note_on_c, 3, 57, 19
5, 222408, Note_on_c, 3, 55, 17
5, 222504, Note_on_c, 3, 55, 0
5, 222504, Note_on_c, 3, 57, 0
5, 222504, Note_on_c, 3, 64, 0
5, 222600, Note_on_c, 3, 57, 27
5, 222600, Note_on_c, 3, 62, 48
5, 222600, Note_on_c, 3, 58, 27
5, 222601, Note_on_c, 3, 62, 0
5, 222601, Note_on_c, 3, 57, 0
5, 222696, Note_on_c, 3, 58, 0
5, 222792, Note_on_c, 3, 58, 52
5, 222792, Note_on_c, 3, 62, 59
5, 222792, Note_on_c, 3, 57, 40
5, 222984, Note_on_c, 3, 62, 0
5, 222984, Note_on_c, 3, 58, 0
5, 223080, Note_on_c, 3, 57, 0
5, 223176, Note_on_c, 3, 69, 96
5, 223176, Note_on_c, 3, 62, 88
5, 223176, Note_on_c, 3, 58, 82
5, 223176, Note_on_c, 3, 65, 59
5, 223464, Note_on_c, 3, 65, 0
5, 223464, Note_on_c, 3, 69, 0
5, 223464, Note_on_c, 3, 62, 0
5, 223464, Note_on_c, 3, 58, 0
5, 223464, Note_on_c, 3, 58, 57
5, 223464, Note_on_c, 3, 62, 65
5, 223464, Note_on_c, 3, 67, 64
5, 223560, Note_on_c, 3, 67, 0
5, 223560, Note_on_c, 3, 62, 0
5, 223656, Note_on_c, 3, 58, 0
5, 223752, Note_on_c, 3, 57, 43
5, 223752, Note_on_c, 3, 65, 34
5, 223752, Note_on_c, 3, 58, 25
5, 223752, Note_on_c, 3, 62, 46
5, 223753, Note_on_c, 3, 62, 0
5, 223753, Note_on_c, 3, 65, 0
5, 223848, Note_on_c, 3, 58, 0
5, 223848, Note_on_c, 3, 57, 0
5, 223944, Note_on_c, 3, 58, 23
5, 223944, Note_on_c, 3, 62, 59
5, 223944, Note_on_c, 3, 57, 31
5, 224040, Note_on_c, 3, 57, 0
5, 224040, Note_on_c, 3, 62, 0
5, 224040, Note_on_c, 3, 58, 0
5, 224128, Note_on_c, 3, 58, 43
5, 224128, Note_on_c, 3, 57, 27
5, 224416, Note_on_c, 3, 57, 0
5, 224416, Note_on_c, 3, 58, 0
5, 224512, Note_on_c, 3, 58, 54
5, 224512, Note_on_c, 3, 62, 60
5, 224512, Note_on_c, 3, 57, 55
5, 224616, Note_on_c, 3, 57, 0
5, 224616, Note_on_c, 3, 62, 0
5, 224616, Note_on_c, 3, 58, 0
5, 224616, Note_on_c, 3, 57, 23
5, 224616, Note_on_c, 3, 58, 32
5, 224616, Note_on_c, 3, 62, 74
5, 224617, Note_on_c, 3, 57, 0
5, 224704, Note_on_c, 3, 62, 0
5, 224704, Note_on_c, 3, 58, 0
5, 224896, Note_on_c, 3, 57, 66
5, 224896, Note_on_c, 3, 58, 55
5, 224896, Note_on_c, 3, 62, 67
5, 224897, Note_on_c, 3, 57, 0
5, 224992, Note_on_c, 3, 62, 0
5, 224992, Note_on_c, 3, 58, 0
5, 224992, Note_on_c, 3, 62, 53
5, 224992, Note_on_c, 3, 58, 47
5, 225096, Note_on_c, 3, 58, 0
5, 225096, Note_on_c, 3, 62, 0
5, 225096, Note_on_c, 3, 57, 24
5, 225097, Note_on_c, 3, 57, 0
5, 225280, Note_on_c, 3, 58, 72
5, 225280, Note_on_c, 3, 62, 84
5, 225280, Note_on_c, 3, 57, 51
5, 225281, Note_on_c, 3, 57, 0
5, 225376, Note_on_c, 3, 62, 0
5, 225376, Note_on_c, 3, 58, 0
5, 225472, Note_on_c, 3, 57, 66
5, 225568, Note_on_c, 3, 57, 0
5, 225664, Note_on_c, 3, 64, 100
5, 225664, Note_on_c, 3, 69, 82
5, 225664, Note_on_c, 3, 65, 86
5, 225760, Note_on_c, 3, 65, 0
5, 225760, Note_on_c, 3, 64, 0
5, 225760, Note_on_c, 3, 65, 46
5, 225760, Note_on_c, 3, 64, 32
5, 225856, Note_on_c, 3, 64, 0
5, 225856, Note_on_c, 3, 62, 30
5, 225952, Note_on_c, 3, 62, 0
5, 225952, Note_on_c, 3, 65, 0
5, 225952, Note_on_c, 3, 69, 0
5, 226048, Note_on_c, 3, 64, 53
5, 226048, Note_on_c, 3, 60, 60
5, 226048, Note_on_c, 3, 67, 46
5, 226528, Note_on_c, 3, 67, 0
5, 226528, Note_on_c, 3, 60, 0
5, 226528, Note_on_c, 3, 64, 0
5, 226624, Note_on_c, 3, 65, 51
5, 226624, Note_on_c, 3, 62, 47
5, 226624, Note_on_c, 3, 57, 21
5, 226625, Note_on_c, 3, 62, 0
5, 226720, Note_on_c, 3, 57, 0
5, 226720, Note_on_c, 3, 65, 0
5, 226816, Note_on_c, 3, 62, 68
5, 226816, Note_on_c, 3, 65, 57
5, 226816, Note_on_c, 3, 57, 34
5, 226816, Note_on_c, 3, 55, 54
5, 226817, Note_on_c, 3, 55, 0
5, 226912, Note_on_c, 3, 62, 0
5, 226912, Note_on_c, 3, 65, 0
5, 226912, Note_on_c, 3, 57, 0
5, 227008, Note_on_c, 3, 55, 74
5, 227008, Note_on_c, 3, 64, 49
5, 227008, Note_on_c, 3, 60, 50
5, 227009, Note_on_c, 3, 60, 0
5, 227009, Note_on_c, 3, 55, 0
5, 227104, Note_on_c, 3, 64, 0
5, 227200, Note_on_c, 3, 60, 70
5, 227200, Note_on_c, 3, 55, 80
5, 227200, Note_on_c, 3, 63, 34
5, 227200, Note_on_c, 3, 64, 60
5, 227296, Note_on_c, 3, 63, 0
5, 227296, Note_on_c, 3, 55, 0
5, 227392, Note_on_c, 3, 60, 0
5, 227392, Note_on_c, 3, 64, 0
5, 227392, Note_on_c, 3, 65, 47
5, 227392, Note_on_c, 3, 57, 42
5, 227392, Note_on_c, 3, 62, 53
5, 227488, Note_on_c, 3, 62, 0
5, 227488, Note_on_c, 3, 57, 0
5, 227488, Note_on_c, 3, 65, 0
5, 227680, Note_on_c, 3, 57, 49
5, 227680, Note_on_c, 3, 53, 51
5, 227680, Note_on_c, 3, 62, 61
5, 227776, Note_on_c, 3, 62, 0
5, 227776, Note_on_c, 3, 53, 0
5, 227776, Note_on_c, 3, 57, 0
5, 227968, Note_on_c, 3, 65, 80
5, 227968, Note_on_c, 3, 57, 74
5, 227968, Note_on_c, 3, 62, 74
5, 227969, Note_on_c, 3, 57, 0
5, 228064, Note_on_c, 3, 62, 0
5, 228064, Note_on_c, 3, 65, 0
5, 228160, Note_on_c, 3, 69, 100
5, 228160, Note_on_c, 3, 65, 106
5, 228160, Note_on_c, 3, 60, 116
5, 228160, Note_on_c, 3, 67, 21
5, 228161, Note_on_c, 3, 67, 0
5, 228256, Note_on_c, 3, 60, 0
5, 228352, Note_on_c, 3, 65, 0
5, 228352, Note_on_c, 3, 69, 0
5, 228352, Note_on_c, 3, 60, 35
5, 228352, Note_on_c, 3, 64, 43
5, 228352, Note_on_c, 3, 67, 61
5, 228448, Note_on_c, 3, 67, 0
5, 228448, Note_on_c, 3, 64, 0
5, 228448, Note_on_c, 3, 60, 0
5, 228544, Note_on_c, 3, 65, 64
5, 228544, Note_on_c, 3, 60, 58
5, 228545, Note_on_c, 3, 60, 0
5, 228545, Note_on_c, 3, 65, 0
5, 228736, Note_on_c, 3, 62, 41
5, 228736, Note_on_c, 3, 58, 30
5, 228736, Note_on_c, 3, 57, 25
5, 228928, Note_on_c, 3, 58, 0
5, 228928, Note_on_c, 3, 62, 0
5, 229024, Note_on_c, 3, 57, 0
5, 229120, Note_on_c, 3, 69, 90
5, 229120, Note_on_c, 3, 58, 67
5, 229120, Note_on_c, 3, 62, 63
5, 229120, Note_on_c, 3, 65, 47
5, 229216, Note_on_c, 3, 65, 0
5, 229216, Note_on_c, 3, 62, 0
5, 229216, Note_on_c, 3, 69, 0
5, 229216, Note_on_c, 3, 67, 35
5, 229312, Note_on_c, 3, 67, 0
5, 229312, Note_on_c, 3, 58, 0
5, 229408, Note_on_c, 3, 58, 51
5, 229408, Note_on_c, 3, 62, 62
5, 229408, Note_on_c, 3, 69, 64
5, 229408, Note_on_c, 3, 65, 33
5, 229504, Note_on_c, 3, 65, 0
5, 229504, Note_on_c, 3, 58, 0
5, 229504, Note_on_c, 3, 62, 0
5, 229504, Note_on_c, 3, 69, 0
5, 229696, Note_on_c, 3, 65, 96
5, 229696, Note_on_c, 3, 72, 84
5, 229696, Note_on_c, 3, 62, 86
5, 229697, Note_on_c, 3, 62, 0
5, 229792, Note_on_c, 3, 72, 0
5, 229792, Note_on_c, 3, 65, 0
5, 229984, Note_on_c, 3, 69, 76
5, 229984, Note_on_c, 3, 58, 66
5, 229984, Note_on_c, 3, 62, 67
5, 229984, Note_on_c, 3, 65, 32
5, 230176, Note_on_c, 3, 65, 0
5, 230176, Note_on_c, 3, 69, 0
5, 230176, Note_on_c, 3, 58, 0
5, 230176, Note_on_c, 3, 62, 0
5, 230272, Note_on_c, 3, 58, 52
5, 230272, Note_on_c, 3, 62, 66
5, 230272, Note_on_c, 3, 67, 59
5, 230560, Note_on_c, 3, 67, 0
5, 230560, Note_on_c, 3, 62, 0
5, 230560, Note_on_c, 3, 58, 0
5, 230560, Note_on_c, 3, 58, 61
5, 230560, Note_on_c, 3, 62, 53
5, 230560, Note_on_c, 3, 65, 57
5, 230656, Note_on_c, 3, 65, 0
5, 230656, Note_on_c, 3, 62, 0
5, 230752, Note_on_c, 3, 58, 0
5, 230848, Note_on_c, 3, 62, 67
5, 230848, Note_on_c, 3, 57, 58
5, 230848, Note_on_c, 3, 58, 51
5, 230944, Note_on_c, 3, 58, 0
5, 230944, Note_on_c, 3, 57, 0
5, 230944, Note_on_c, 3, 62, 0
5, 230944, Note_on_c, 3, 57, 58
5, 230944, Note_on_c, 3, 58, 41
5, 230944, Note_on_c, 3, 62, 66
5, 231136, Note_on_c, 3, 62, 0
5, 231136, Note_on_c, 3, 58, 0
5, 231136, Note_on_c, 3, 57, 0
5, 231232, Note_on_c, 3, 58, 52
5, 231232, Note_on_c, 3, 57, 45
5, 231232, Note_on_c, 3, 62, 68
5, 231424, Note_on_c, 3, 62, 0
5, 231520, Note_on_c, 3, 57, 0
5, 231520, Note_on_c, 3, 58, 0
5, 231520, Note_on_c, 3, 58, 64
5, 231520, Note_on_c, 3, 57, 47
5, 231520, Note_on_c, 3, 62, 78
5, 231521, Note_on_c, 3, 57, 0
5, 231616, Note_on_c, 3, 62, 0
5, 231616, Note_on_c, 3, 58, 0
5, 231616, Note_on_c, 3, 57, 41
5, 231712, Note_on_c, 3, 57, 0
5, 231808, Note_on_c, 3, 69, 49
5, 231808, Note_on_c, 3, 64, 65
5, 231808, Note_on_c, 3, 65, 65
5, 231904, Note_on_c, 3, 65, 0
5, 231904, Note_on_c, 3, 64, 0
5, 231904, Note_on_c, 3, 69, 0
5, 232000, Note_on_c, 3, 69, 59
5, 232000, Note_on_c, 3, 64, 60
5, 232000, Note_on_c, 3, 65, 64
5, 232096, Note_on_c, 3, 64, 0
5, 232192, Note_on_c, 3, 65, 0
5, 232192, Note_on_c, 3, 69, 0
5, 232288, Note_on_c, 3, 69, 65
5, 232288, Note_on_c, 3, 65, 65
5, 232288, Note_on_c, 3, 64, 61
5, 232384, Note_on_c, 3, 64, 0
5, 232384, Note_on_c, 3, 65, 0
5, 232384, Note_on_c, 3, 62, 47
5, 232480, Note_on_c, 3, 69, 0
5, 232576, Note_on_c, 3, 62, 0
5, 232672, Note_on_c, 3, 69, 76
5, 232672, Note_on_c, 3, 65, 90
5, 232672, Note_on_c, 3, 72, 70
5, 232768, Note_on_c, 3, 65, 0
5, 232768, Note_on_c, 3, 69, 0
5, 232768, Note_on_c, 3, 64, 80
5, 232864, Note_on_c, 3, 64, 0
5, 232864, Note_on_c, 3, 72, 0
5, 233056, Note_on_c, 3, 65, 80
5, 233056, Note_on_c, 3, 69, 67
5, 233152, Note_on_c, 3, 65, 0
5, 233152, Note_on_c, 3, 62, 43
5, 233248, Note_on_c, 3, 62, 0
5, 233248, Note_on_c, 3, 69, 0
5, 233344, Note_on_c, 3, 67, 63
5, 233344, Note_on_c, 3, 64, 62
5, 233344, Note_on_c, 3, 60, 69
5, 233440, Note_on_c, 3, 60, 0
5, 233440, Note_on_c, 3, 64, 0
5, 233440, Note_on_c, 3, 67, 0
5, 233536, Note_on_c, 3, 65, 69
5, 233536, Note_on_c, 3, 62, 74
5, 233536, Note_on_c, 3, 57, 65
5, 233728, Note_on_c, 3, 62, 0
5, 233824, Note_on_c, 3, 57, 0
5, 233824, Note_on_c, 3, 65, 0
5, 233920, Note_on_c, 3, 55, 86
5, 233920, Note_on_c, 3, 64, 64
5, 233920, Note_on_c, 3, 60, 72
5, 234112, Note_on_c, 3, 60, 0
5, 234112, Note_on_c, 3, 64, 0
5, 234112, Note_on_c, 3, 55, 0
5, 234208, Note_on_c, 3, 57, 55
5, 234208, Note_on_c, 3, 62, 58
5, 234208, Note_on_c, 3, 53, 51
5, 234400, Note_on_c, 3, 57, 0
5, 234496, Note_on_c, 3, 53, 0
5, 234496, Note_on_c, 3, 57, 53
5, 234496, Note_on_c, 3, 53, 26
5, 234497, Note_on_c, 3, 53, 0
5, 234688, Note_on_c, 3, 62, 0
5, 234688, Note_on_c, 3, 53, 61
5, 234784, Note_on_c, 3, 53, 0
5, 234784, Note_on_c, 3, 57, 0
5, 234880, Note_on_c, 3, 58, 53
5, 234880, Note_on_c, 3, 62, 58
5, 234880, Note_on_c, 3, 57, 35
5, 235072, Note_on_c, 3, 57, 0
5, 235072, Note_on_c, 3, 62, 0
5, 235072, Note_on_c, 3, 58, 0
5, 235264, Note_on_c, 3, 58, 57
5, 235264, Note_on_c, 3, 62, 55
5, 235264, Note_on_c, 3, 65, 47
5, 235264, Note_on_c, 3, 57, 44
5, 235360, Note_on_c, 3, 57, 0
5, 235360, Note_on_c, 3, 58, 0
5, 235360, Note_on_c, 3, 62, 0
5, 235360, Note_on_c, 3, 65, 0
5, 235552, Note_on_c, 3, 72, 92
5, 235552, Note_on_c, 3, 65, 98
5, 235552, Note_on_c, 3, 62, 102
5, 235744, Note_on_c, 3, 62, 0
5, 235744, Note_on_c, 3, 72, 0
5, 235840, Note_on_c, 3, 65, 0
5, 235840, Note_on_c, 3, 65, 57
5, 235840, Note_on_c, 3, 70, 50
5, 235840, Note_on_c, 3, 62, 37
5, 235840, Note_on_c, 3, 68, 22
5, 235841, Note_on_c, 3, 68, 0
5, 235936, Note_on_c, 3, 65, 0
5, 236032, Note_on_c, 3, 62, 0
5, 236032, Note_on_c, 3, 70, 0
5, 236224, Note_on_c, 3, 69, 78
5, 236224, Note_on_c, 3, 58, 61
5, 236224, Note_on_c, 3, 62, 69
5, 236224, Note_on_c, 3, 65, 43
5, 236416, Note_on_c, 3, 62, 0
5, 236416, Note_on_c, 3, 69, 0
5, 236416, Note_on_c, 3, 58, 0
5, 236512, Note_on_c, 3, 65, 0
5, 236512, Note_on_c, 3, 58, 32
5, 236512, Note_on_c, 3, 62, 56
5, 236512, Note_on_c, 3, 67, 57
5, 236608, Note_on_c, 3, 67, 0
5, 236608, Note_on_c, 3, 62, 0
5, 236608, Note_on_c, 3, 58, 0
5, 236608, Note_on_c, 3, 58, 16
5, 236800, Note_on_c, 3, 58, 0
5, 236800, Note_on_c, 3, 62, 58
5, 236800, Note_on_c, 3, 57, 34
5, 236800, Note_on_c, 3, 58, 25
5, 236801, Note_on_c, 3, 57, 0
5, 236896, Note_on_c, 3, 58, 0
5, 236896, Note_on_c, 3, 62, 0
5, 236992, Note_on_c, 3, 58, 55
5, 236992, Note_on_c, 3, 62, 62
5, 236992, Note_on_c, 3, 57, 39
5, 237088, Note_on_c, 3, 57, 0
5, 237088, Note_on_c, 3, 62, 0
5, 237088, Note_on_c, 3, 58, 0
5, 237184, Note_on_c, 3, 62, 61
5, 237184, Note_on_c, 3, 58, 48
5, 237184, Note_on_c, 3, 57, 34
5, 237280, Note_on_c, 3, 57, 0
5, 237280, Note_on_c, 3, 58, 0
5, 237280, Note_on_c, 3, 62, 0
5, 237376, Note_on_c, 3, 58, 57
5, 237376, Note_on_c, 3, 65, 67
5, 237376, Note_on_c, 3, 57, 62
5, 237376, Note_on_c, 3, 62, 62
5, 237472, Note_on_c, 3, 62, 0
5, 237472, Note_on_c, 3, 58, 0
5, 237472, Note_on_c, 3, 65, 0
5, 237472, Note_on_c, 3, 57, 0
5, 237568, Note_on_c, 3, 57, 27
5, 237568, Note_on_c, 3, 58, 24
5, 237568, Note_on_c, 3, 62, 62
5, 237664, Note_on_c, 3, 57, 0
5, 237760, Note_on_c, 3, 57, 25
5, 237856, Note_on_c, 3, 57, 0
5, 237856, Note_on_c, 3, 58, 0
5, 237952, Note_on_c, 3, 62, 0
5, 237952, Note_on_c, 3, 55, 66
5, 237952, Note_on_c, 3, 60, 65
5, 237952, Note_on_c, 3, 64, 53
5, 238048, Note_on_c, 3, 64, 0
5, 238048, Note_on_c, 3, 60, 0
5, 238048, Note_on_c, 3, 55, 0
5, 238144, Note_on_c, 3, 64, 33
5, 238144, Note_on_c, 3, 55, 65
5, 238144, Note_on_c, 3, 60, 65
5, 238240, Note_on_c, 3, 55, 0
5, 238336, Note_on_c, 3, 60, 0
5, 238336, Note_on_c, 3, 64, 0
5, 238336, Note_on_c, 3, 57, 57
5, 238336, Note_on_c, 3, 62, 68
5, 238336, Note_on_c, 3, 65, 65
5, 238432, Note_on_c, 3, 62, 0
5, 238432, Note_on_c, 3, 57, 0
5, 238528, Note_on_c, 3, 65, 0
5, 238912, Note_on_c, 3, 69, 98
5, 238912, Note_on_c, 3, 65, 106
5, 238912, Note_on_c, 3, 60, 114
5, 239104, Note_on_c, 3, 60, 0
5, 239192, Note_on_c, 3, 65, 0
5, 239192, Note_on_c, 3, 69, 0
5, 239192, Note_on_c, 3, 67, 74
5, 239192, Note_on_c, 3, 64, 76
5, 239192, Note_on_c, 3, 60, 70
5, 239392, Note_on_c, 3, 60, 0
5, 239392, Note_on_c, 3, 64, 0
5, 239392, Note_on_c, 3, 67, 0
5, 239480, Note_on_c, 3, 62, 66
5, 239480, Note_on_c, 3, 65, 55
5, 239480, Note_on_c, 3, 57, 61
5, 239584, Note_on_c, 3, 62, 0
5, 239680, Note_on_c, 3, 57, 0
5, 239680, Note_on_c, 3, 65, 0
5, 239768, Note_on_c, 3, 64, 53
5, 239768, Note_on_c, 3, 60, 68
5, 239768, Note_on_c, 3, 55, 70
5, 239872, Note_on_c, 3, 60, 0
5, 239872, Note_on_c, 3, 64, 0
5, 239960, Note_on_c, 3, 55, 0
5, 240056, Note_on_c, 3, 53, 65
5, 240056, Note_on_c, 3, 62, 63
5, 240056, Note_on_c, 3, 57, 52
5, 240344, Note_on_c, 3, 62, 0
5, 240344, Note_on_c, 3, 53, 0
5, 240344, Note_on_c, 3, 60, 82
5, 240344, Note_on_c, 3, 53, 54
5, 240440, Note_on_c, 3, 60, 0
5, 240440, Note_on_c, 3, 57, 0
5, 240440, Note_on_c, 3, 57, 18
5, 240536, Note_on_c, 3, 57, 0
5, 240536, Note_on_c, 3, 53, 0
5, 240632, Note_on_c, 3, 60, 59
5, 240632, Note_on_c, 3, 53, 37
5, 240632, Note_on_c, 3, 57, 24
5, 240633, Note_on_c, 3, 53, 0
5, 240728, Note_on_c, 3, 57, 0
5, 240728, Note_on_c, 3, 60, 0
5, 240824, Note_on_c, 3, 53, 48
5, 240824, Note_on_c, 3, 62, 60
5, 240824, Note_on_c, 3, 57, 22
5, 240825, Note_on_c, 3, 57, 0
5, 240825, Note_on_c, 3, 62, 0
5, 240825, Note_on_c, 3, 53, 0
5, 241016, Note_on_c, 3, 58, 47
5, 241016, Note_on_c, 3, 62, 68
5, 241016, Note_on_c, 3, 57, 36
5, 241016, Note_on_c, 3, 65, 23
5, 241112, Note_on_c, 3, 65, 0
5, 241208, Note_on_c, 3, 57, 0
5, 241304, Note_on_c, 3, 62, 0
5, 241304, Note_on_c, 3, 58, 0
5, 241304, Note_on_c, 3, 58, 64
5, 241304, Note_on_c, 3, 62, 54
5, 241304, Note_on_c, 3, 65, 63
5, 241304, Note_on_c, 3, 57, 53
5, 241400, Note_on_c, 3, 57, 0
5, 241400, Note_on_c, 3, 58, 0
5, 241400, Note_on_c, 3, 62, 0
5, 241400, Note_on_c, 3, 65, 0
5, 241592, Note_on_c, 3, 69, 90
5, 241592, Note_on_c, 3, 62, 80
5, 241592, Note_on_c, 3, 58, 66
5, 241592, Note_on_c, 3, 65, 54
5, 242168, Note_on_c, 3, 65, 0
5, 242168, Note_on_c, 3, 69, 0
5, 242168, Note_on_c, 3, 62, 0
5, 242168, Note_on_c, 3, 58, 0
5, 242168, Note_on_c, 3, 58, 28
5, 242168, Note_on_c, 3, 62, 62
5, 242168, Note_on_c, 3, 67, 58
5, 242360, Note_on_c, 3, 67, 0
5, 242360, Note_on_c, 3, 62, 0
5, 242360, Note_on_c, 3, 58, 0
5, 242360, Note_on_c, 3, 59, 25
5, 242361, Note_on_c, 3, 59, 0
5, 242552, Note_on_c, 3, 58, 48
5, 242552, Note_on_c, 3, 57, 54
5, 242552, Note_on_c, 3, 65, 56
5, 242552, Note_on_c, 3, 62, 47
5, 242553, Note_on_c, 3, 62, 0
5, 242553, Note_on_c, 3, 58, 0
5, 242553, Note_on_c, 3, 57, 0
5, 242553, Note_on_c, 3, 65, 0
5, 242744, Note_on_c, 3, 58, 67
5, 242744, Note_on_c, 3, 62, 65
5, 242744, Note_on_c, 3, 65, 65
5, 242744, Note_on_c, 3, 57, 67
5, 243032, Note_on_c, 3, 57, 0
5, 243032, Note_on_c, 3, 62, 0
5, 243128, Note_on_c, 3, 65, 0
5, 243128, Note_on_c, 3, 58, 0
5, 243128, Note_on_c, 3, 62, 54
5, 243129, Note_on_c, 3, 62, 0
5, 243320, Note_on_c, 3, 58, 70
5, 243320, Note_on_c, 3, 62, 65
5, 243320, Note_on_c, 3, 65, 62
5, 243320, Note_on_c, 3, 57, 69
5, 243321, Note_on_c, 3, 57, 0
5, 243321, Note_on_c, 3, 58, 0
5, 243321, Note_on_c, 3, 62, 0
5, 243321, Note_on_c, 3, 65, 0
5, 243704, Note_on_c, 3, 58, 76
5, 243704, Note_on_c, 3, 65, 78
5, 243704, Note_on_c, 3, 62, 72
5, 243704, Note_on_c, 3, 57, 74
5, 243800, Note_on_c, 3, 57, 0
5, 243800, Note_on_c, 3, 58, 0
5, 243800, Note_on_c, 3, 65, 0
5, 243800, Note_on_c, 3, 62, 0
5, 297984, Program_c, 3, 28
5, 299360, Note_on_c, 3, 69, 60
5, 299360, Note_on_c, 3, 64, 64
5, 299360, Note_on_c, 3, 65, 59
5, 299361, Note_on_c, 3, 65, 0
5, 299361, Note_on_c, 3, 64, 0
5, 299361, Note_on_c, 3, 69, 0
5, 299544, Note_on_c, 3, 69, 55
5, 299544, Note_on_c, 3, 64, 59
5, 299544, Note_on_c, 3, 65, 57
5, 299545, Note_on_c, 3, 65, 0
5, 299545, Note_on_c, 3, 64, 0
5, 299545, Note_on_c, 3, 69, 0
5, 299736, Note_on_c, 3, 62, 62
5, 299832, Note_on_c, 3, 62, 0
5, 299928, Note_on_c, 3, 64, 42
5, 299928, Note_on_c, 3, 65, 29
5, 299929, Note_on_c, 3, 65, 0
5, 299929, Note_on_c, 3, 64, 0
5, 300024, Note_on_c, 3, 69, 64
5, 300024, Note_on_c, 3, 64, 63
5, 300024, Note_on_c, 3, 65, 57
5, 300312, Note_on_c, 3, 65, 0
5, 300312, Note_on_c, 3, 64, 0
5, 300312, Note_on_c, 3, 69, 0
5, 300312, Note_on_c, 3, 62, 60
5, 300313, Note_on_c, 3, 62, 0
5, 300504, Note_on_c, 3, 64, 110
5, 300504, Note_on_c, 3, 65, 92
5, 300504, Note_on_c, 3, 69, 84
5, 300505, Note_on_c, 3, 64, 0
5, 300600, Note_on_c, 3, 69, 0
5, 300600, Note_on_c, 3, 65, 0
5, 300696, Note_on_c, 3, 62, 55
5, 300697, Note_on_c, 3, 62, 0
5, 300888, Note_on_c, 3, 64, 108
5, 300888, Note_on_c, 3, 65, 78
5, 300888, Note_on_c, 3, 69, 69
5, 300889, Note_on_c, 3, 69, 0
5, 300889, Note_on_c, 3, 65, 0
5, 300889, Note_on_c, 3, 64, 0
5, 301368, Note_on_c, 3, 76, 108
5, 301368, Note_on_c, 3, 67, 116
5, 301368, Note_on_c, 3, 72, 98
5, 301368, Note_on_c, 3, 74, 30
5, 301464, Note_on_c, 3, 74, 0
5, 301560, Note_on_c, 3, 76, 0
5, 301560, Note_on_c, 3, 67, 0
5, 301560, Note_on_c, 3, 72, 0
5, 301656, Note_on_c, 3, 72, 72
5, 301656, Note_on_c, 3, 64, 59
5, 301656, Note_on_c, 3, 67, 76
5, 301657, Note_on_c, 3, 67, 0
5, 301657, Note_on_c, 3, 64, 0
5, 301657, Note_on_c, 3, 72, 0
5, 301848, Note_on_c, 3, 67, 61
5, 301848, Note_on_c, 3, 60, 65
5, 301848, Note_on_c, 3, 64, 45
5, 301849, Note_on_c, 3, 64, 0
5, 301849, Note_on_c, 3, 60, 0
5, 301849, Note_on_c, 3, 67, 0
5, 302040, Note_on_c, 3, 64, 57
5, 302040, Note_on_c, 3, 55, 60
5, 302040, Note_on_c, 3, 60, 29
5, 302041, Note_on_c, 3, 60, 0
5, 302041, Note_on_c, 3, 55, 0
5, 302136, Note_on_c, 3, 64, 0
5, 302136, Note_on_c, 3, 64, 27
5, 302136, Note_on_c, 3, 60, 60
5, 302232, Note_on_c, 3, 60, 0
5, 302232, Note_on_c, 3, 57, 19
5, 302232, Note_on_c, 3, 55, 17
5, 302328, Note_on_c, 3, 55, 0
5, 302328, Note_on_c, 3, 57, 0
5, 302328, Note_on_c, 3, 64, 0
5, 302424, Note_on_c, 3, 57, 27
5, 302424, Note_on_c, 3, 62, 48
5, 302424, Note_on_c, 3, 58, 27
5, 302425, Note_on_c, 3, 62, 0
5, 302425, Note_on_c, 3, 57, 0
5, 302520, Note_on_c, 3, 58, 0
5, 302616, Note_on_c, 3, 58, 52
5, 302616, Note_on_c, 3, 62, 59
5, 302616, Note_on_c, 3, 57, 40
5, 302808, Note_on_c, 3, 62, 0
5, 302808, Note_on_c, 3, 58, 0
5, 302904, Note_on_c, 3, 57, 0
5, 303000, Note_on_c, 3, 69, 96
5, 303000, Note_on_c, 3, 62, 88
5, 303000, Note_on_c, 3, 58, 82
5, 303000, Note_on_c, 3, 65, 59
5, 303288, Note_on_c, 3, 65, 0
5, 303288, Note_on_c, 3, 69, 0
5, 303288, Note_on_c, 3, 62, 0
5, 303288, Note_on_c, 3, 58, 0
5, 303288, Note_on_c, 3, 58, 57
5, 303288, Note_on_c, 3, 62, 65
5, 303288, Note_on_c, 3, 67, 64
5, 303384, Note_on_c, 3, 67, 0
5, 303384, Note_on_c, 3, 62, 0
5, 303480, Note_on_c, 3, 58, 0
5, 303576, Note_on_c, 3, 57, 43
5, 303576, Note_on_c, 3, 65, 34
5, 303576, Note_on_c, 3, 58, 25
5, 303576, Note_on_c, 3, 62, 46
5, 303577, Note_on_c, 3, 62, 0
5, 303577, Note_on_c, 3, 65, 0
5, 303672, Note_on_c, 3, 58, 0
5, 303672, Note_on_c, 3, 57, 0
5, 303768, Note_on_c, 3, 58, 23
5, 303768, Note_on_c, 3, 62, 59
5, 303768, Note_on_c, 3, 57, 31
5, 303864, Note_on_c, 3, 57, 0
5, 303864, Note_on_c, 3, 62, 0
5, 303864, Note_on_c, 3, 58, 0
5, 303960, Note_on_c, 3, 58, 43
5, 303960, Note_on_c, 3, 57, 27
5, 304248, Note_on_c, 3, 57, 0
5, 304248, Note_on_c, 3, 58, 0
5, 304344, Note_on_c, 3, 58, 54
5, 304344, Note_on_c, 3, 62, 60
5, 304344, Note_on_c, 3, 57, 55
5, 304440, Note_on_c, 3, 57, 0
5, 304440, Note_on_c, 3, 62, 0
5, 304440, Note_on_c, 3, 58, 0
5, 304440, Note_on_c, 3, 57, 23
5, 304440, Note_on_c, 3, 58, 32
5, 304440, Note_on_c, 3, 62, 74
5, 304441, Note_on_c, 3, 57, 0
5, 304536, Note_on_c, 3, 62, 0
5, 304536, Note_on_c, 3, 58, 0
5, 304728, Note_on_c, 3, 57, 66
5, 304728, Note_on_c, 3, 58, 55
5, 304728, Note_on_c, 3, 62, 67
5, 304729, Note_on_c, 3, 57, 0
5, 304824, Note_on_c, 3, 62, 0
5, 304824, Note_on_c, 3, 58, 0
5, 304824, Note_on_c, 3, 62, 53
5, 304824, Note_on_c, 3, 58, 47
5, 304920, Note_on_c, 3, 58, 0
5, 304920, Note_on_c, 3, 62, 0
5, 304920, Note_on_c, 3, 57, 24
5, 304921, Note_on_c, 3, 57, 0
5, 305112, Note_on_c, 3, 58, 72
5, 305112, Note_on_c, 3, 62, 84
5, 305112, Note_on_c, 3, 57, 51
5, 305113, Note_on_c, 3, 57, 0
5, 305208, Note_on_c, 3, 62, 0
5, 305208, Note_on_c, 3, 58, 0
5, 305304, Note_on_c, 3, 57, 66
5, 305400, Note_on_c, 3, 57, 0
5, 305496, Note_on_c, 3, 64, 100
5, 305496, Note_on_c, 3, 69, 82
5, 305496, Note_on_c, 3, 65, 86
5, 305592, Note_on_c, 3, 65, 0
5, 305592, Note_on_c, 3, 64, 0
5, 305592, Note_on_c, 3, 65, 46
5, 305592, Note_on_c, 3, 64, 32
5, 305688, Note_on_c, 3, 64, 0
5, 305688, Note_on_c, 3, 62, 30
5, 305784, Note_on_c, 3, 62, 0
5, 305784, Note_on_c, 3, 65, 0
5, 305784, Note_on_c, 3, 69, 0
5, 305880, Note_on_c, 3, 64, 53
5, 305880, Note_on_c, 3, 60, 60
5, 305880, Note_on_c, 3, 67, 46
5, 306360, Note_on_c, 3, 67, 0
5, 306360, Note_on_c, 3, 60, 0
5, 306360, Note_on_c, 3, 64, 0
5, 306456, Note_on_c, 3, 65, 51
5, 306456, Note_on_c, 3, 62, 47
5, 306456, Note_on_c, 3, 57, 21
5, 306457, Note_on_c, 3, 62, 0
5, 306552, Note_on_c, 3, 57, 0
5, 306552, Note_on_c, 3, 65, 0
5, 306648, Note_on_c, 3, 62, 68
5, 306648, Note_on_c, 3, 65, 57
5, 306648, Note_on_c, 3, 57, 34
5, 306648, Note_on_c, 3, 55, 54
5, 306649, Note_on_c, 3, 55, 0
5, 306744, Note_on_c, 3, 62, 0
5, 306744, Note_on_c, 3, 65, 0
5, 306744, Note_on_c, 3, 57, 0
5, 306840, Note_on_c, 3, 55, 74
5, 306840, Note_on_c, 3, 64, 49
5, 306840, Note_on_c, 3, 60, 50
5, 306841, Note_on_c, 3, 60, 0
5, 306841, Note_on_c, 3, 55, 0
5, 306936, Note_on_c, 3, 64, 0
5, 307032, Note_on_c, 3, 60, 70
5, 307032, Note_on_c, 3, 55, 80
5, 307032, Note_on_c, 3, 63, 34
5, 307032, Note_on_c, 3, 64, 60
5, 307128, Note_on_c, 3, 63, 0
5, 307128, Note_on_c, 3, 55, 0
5, 307224, Note_on_c, 3, 60, 0
5, 307224, Note_on_c, 3, 64, 0
5, 307224, Note_on_c, 3, 65, 47
5, 307224, Note_on_c, 3, 57, 42
5, 307224, Note_on_c, 3, 62, 53
5, 307320, Note_on_c, 3, 62, 0
5, 307320, Note_on_c, 3, 57, 0
5, 307320, Note_on_c, 3, 65, 0
5, 307512, Note_on_c, 3, 57, 49
5, 307512, Note_on_c, 3, 53, 51
5, 307512, Note_on_c, 3, 62, 61
5, 307608, Note_on_c, 3, 62, 0
5, 307608, Note_on_c, 3, 53, 0
5, 307608, Note_on_c, 3, 57, 0
5, 307800, Note_on_c, 3, 65, 80
5, 307800, Note_on_c, 3, 57, 74
5, 307800, Note_on_c, 3, 62, 74
5, 307801, Note_on_c, 3, 57, 0
5, 307896, Note_on_c, 3, 62, 0
5, 307896, Note_on_c, 3, 65, 0
5, 307992, Note_on_c, 3, 69, 100
5, 307992, Note_on_c, 3, 65, 106
5, 307992, Note_on_c, 3, 60, 116
5, 307992, Note_on_c, 3, 67, 21
5, 307993, Note_on_c, 3, 67, 0
5, 308088, Note_on_c, 3, 60, 0
5, 308184, Note_on_c, 3, 65, 0
5, 308184, Note_on_c, 3, 69, 0
5, 308184, Note_on_c, 3, 60, 35
5, 308184, Note_on_c, 3, 64, 43
5, 308184, Note_on_c, 3, 67, 61
5, 308280, Note_on_c, 3, 67, 0
5, 308280, Note_on_c, 3, 64, 0
5, 308280, Note_on_c, 3, 60, 0
5, 308376, Note_on_c, 3, 65, 64
5, 308376, Note_on_c, 3, 60, 58
5, 308377, Note_on_c, 3, 60, 0
5, 308377, Note_on_c, 3, 65, 0
5, 308568, Note_on_c, 3, 62, 41
5, 308568, Note_on_c, 3, 58, 30
5, 308568, Note_on_c, 3, 57, 25
5, 308760, Note_on_c, 3, 58, 0
5, 308760, Note_on_c, 3, 62, 0
5, 308856, Note_on_c, 3, 57, 0
5, 308952, Note_on_c, 3, 69, 90
5, 308952, Note_on_c, 3, 58, 67
5, 308952, Note_on_c, 3, 62, 63
5, 308952, Note_on_c, 3, 65, 47
5, 309048, Note_on_c, 3, 65, 0
5, 309048, Note_on_c, 3, 62, 0
5, 309048, Note_on_c, 3, 69, 0
5, 309048, Note_on_c, 3, 67, 35
5, 309144, Note_on_c, 3, 67, 0
5, 309144, Note_on_c, 3, 58, 0
5, 309240, Note_on_c, 3, 58, 51
5, 309240, Note_on_c, 3, 62, 62
5, 309240, Note_on_c, 3, 69, 64
5, 309240, Note_on_c, 3, 65, 33
5, 309336, Note_on_c, 3, 65, 0
5, 309336, Note_on_c, 3, 58, 0
5, 309336, Note_on_c, 3, 62, 0
5, 309336, Note_on_c, 3, 69, 0
5, 309528, Note_on_c, 3, 65, 96
5, 309528, Note_on_c, 3, 72, 84
5, 309528, Note_on_c, 3, 62, 86
5, 309529, Note_on_c, 3, 62, 0
5, 309624, Note_on_c, 3, 72, 0
5, 309624, Note_on_c, 3, 65, 0
5, 309816, Note_on_c, 3, 69, 76
5, 309816, Note_on_c, 3, 58, 66
5, 309816, Note_on_c, 3, 62, 67
5, 309816, Note_on_c, 3, 65, 32
5, 310008, Note_on_c, 3, 65, 0
5, 310008, Note_on_c, 3, 69, 0
5, 310008, Note_on_c, 3, 58, 0
5, 310008, Note_on_c, 3, 62, 0
5, 310104, Note_on_c, 3, 58, 52
5, 310104, Note_on_c, 3, 62, 66
5, 310104, Note_on_c, 3, 67, 59
5, 310392, Note_on_c, 3, 67, 0
5, 310392, Note_on_c, 3, 62, 0
5, 310392, Note_on_c, 3, 58, 0
5, 310392, Note_on_c, 3, 58, 61
5, 310392, Note_on_c, 3, 62, 53
5, 310392, Note_on_c, 3, 65, 57
5, 310488, Note_on_c, 3, 65, 0
5, 310488, Note_on_c, 3, 62, 0
5, 310584, Note_on_c, 3, 58, 0
5, 310680, Note_on_c, 3, 62, 67
5, 310680, Note_on_c, 3, 57, 58
5, 310680, Note_on_c, 3, 58, 51
5, 310776, Note_on_c, 3, 58, 0
5, 310776, Note_on_c, 3, 57, 0
5, 310776, Note_on_c, 3, 62, 0
5, 310776, Note_on_c, 3, 57, 58
5, 310776, Note_on_c, 3, 58, 41
5, 310776, Note_on_c, 3, 62, 66
5, 310968, Note_on_c, 3, 62, 0
5, 310968, Note_on_c, 3, 58, 0
5, 310968, Note_on_c, 3, 57, 0
5, 311064, Note_on_c, 3, 58, 52
5, 311064, Note_on_c, 3, 57, 45
5, 311064, Note_on_c, 3, 62, 68
5, 311248, Note_on_c, 3, 62, 0
5, 311352, Note_on_c, 3, 57, 0
5, 311352, Note_on_c, 3, 58, 0
5, 311352, Note_on_c, 3, 58, 64
5, 311352, Note_on_c, 3, 57, 47
5, 311352, Note_on_c, 3, 62, 78
5, 311353, Note_on_c, 3, 57, 0
5, 311440, Note_on_c, 3, 62, 0
5, 311440, Note_on_c, 3, 58, 0
5, 311440, Note_on_c, 3, 57, 41
5, 311536, Note_on_c, 3, 57, 0
5, 311640, Note_on_c, 3, 69, 49
5, 311640, Note_on_c, 3, 64, 65
5, 311640, Note_on_c, 3, 65, 65
5, 311736, Note_on_c, 3, 65, 0
5, 311736, Note_on_c, 3, 64, 0
5, 311736, Note_on_c, 3, 69, 0
5, 311824, Note_on_c, 3, 69, 59
5, 311824, Note_on_c, 3, 64, 60
5, 311824, Note_on_c, 3, 65, 64
5, 311928, Note_on_c, 3, 64, 0
5, 312016, Note_on_c, 3, 65, 0
5, 312016, Note_on_c, 3, 69, 0
5, 312112, Note_on_c, 3, 69, 65
5, 312112, Note_on_c, 3, 65, 65
5, 312112, Note_on_c, 3, 64, 61
5, 312208, Note_on_c, 3, 64, 0
5, 312208, Note_on_c, 3, 65, 0
5, 312208, Note_on_c, 3, 62, 47
5, 312304, Note_on_c, 3, 69, 0
5, 312408, Note_on_c, 3, 62, 0
5, 312496, Note_on_c, 3, 69, 76
5, 312496, Note_on_c, 3, 65, 90
5, 312496, Note_on_c, 3, 72, 70
5, 312592, Note_on_c, 3, 65, 0
5, 312592, Note_on_c, 3, 69, 0
5, 312592, Note_on_c, 3, 64, 80
5, 312688, Note_on_c, 3, 64, 0
5, 312688, Note_on_c, 3, 72, 0
5, 312880, Note_on_c, 3, 65, 80
5, 312880, Note_on_c, 3, 69, 67
5, 312976, Note_on_c, 3, 65, 0
5, 312976, Note_on_c, 3, 62, 43
5, 313072, Note_on_c, 3, 62, 0
5, 313072, Note_on_c, 3, 69, 0
5, 313168, Note_on_c, 3, 67, 63
5, 313168, Note_on_c, 3, 64, 62
5, 313168, Note_on_c, 3, 60, 69
5, 313264, Note_on_c, 3, 60, 0
5, 313264, Note_on_c, 3, 64, 0
5, 313264, Note_on_c, 3, 67, 0
5, 313360, Note_on_c, 3, 65, 69
5, 313360, Note_on_c, 3, 62, 74
5, 313360, Note_on_c, 3, 57, 65
5, 313552, Note_on_c, 3, 62, 0
5, 313648, Note_on_c, 3, 57, 0
5, 313648, Note_on_c, 3, 65, 0
5, 313744, Note_on_c, 3, 55, 86
5, 313744, Note_on_c, 3, 64, 64
5, 313744, Note_on_c, 3, 60, 72
5, 313936, Note_on_c, 3, 60, 0
5, 313936, Note_on_c, 3, 64, 0
5, 313936, Note_on_c, 3, 55, 0
5, 314032, Note_on_c, 3, 57, 55
5, 314032, Note_on_c, 3, 62, 58
5, 314032, Note_on_c, 3, 53, 51
5, 314224, Note_on_c, 3, 57, 0
5, 314320, Note_on_c, 3, 53, 0
5, 314320, Note_on_c, 3, 57, 53
5, 314320, Note_on_c, 3, 53, 26
5, 314321, Note_on_c, 3, 53, 0
5, 314512, Note_on_c, 3, 62, 0
5, 314512, Note_on_c, 3, 53, 61
5, 314608, Note_on_c, 3, 53, 0
5, 314608, Note_on_c, 3, 57, 0
5, 314704, Note_on_c, 3, 58, 53
5, 314704, Note_on_c, 3, 62, 58
5, 314704, Note_on_c, 3, 57, 35
5, 314896, Note_on_c, 3, 57, 0
5, 314896, Note_on_c, 3, 62, 0
5, 314896, Note_on_c, 3, 58, 0
5, 315088, Note_on_c, 3, 58, 57
5, 315088, Note_on_c, 3, 62, 55
5, 315088, Note_on_c, 3, 65, 47
5, 315088, Note_on_c, 3, 57, 44
5, 315184, Note_on_c, 3, 57, 0
5, 315184, Note_on_c, 3, 58, 0
5, 315184, Note_on_c, 3, 62, 0
5, 315184, Note_on_c, 3, 65, 0
5, 315376, Note_on_c, 3, 72, 92
5, 315376, Note_on_c, 3, 65, 98
5, 315376, Note_on_c, 3, 62, 102
5, 315568, Note_on_c, 3, 62, 0
5, 315568, Note_on_c, 3, 72, 0
5, 315664, Note_on_c, 3, 65, 0
5, 315664, Note_on_c, 3, 65, 57
5, 315664, Note_on_c, 3, 70, 50
5, 315664, Note_on_c, 3, 62, 37
5, 315664, Note_on_c, 3, 68, 22
5, 315665, Note_on_c, 3, 68, 0
5, 315760, Note_on_c, 3, 65, 0
5, 315856, Note_on_c, 3, 62, 0
5, 315856, Note_on_c, 3, 70, 0
5, 316048, Note_on_c, 3, 69, 78
5, 316048, Note_on_c, 3, 58, 61
5, 316048, Note_on_c, 3, 62, 69
5, 316048, Note_on_c, 3, 65, 43
5, 316240, Note_on_c, 3, 62, 0
5, 316240, Note_on_c, 3, 69, 0
5, 316240, Note_on_c, 3, 58, 0
5, 316336, Note_on_c, 3, 65, 0
5, 316336, Note_on_c, 3, 58, 32
5, 316336, Note_on_c, 3, 62, 56
5, 316336, Note_on_c, 3, 67, 57
5, 316432, Note_on_c, 3, 67, 0
5, 316432, Note_on_c, 3, 62, 0
5, 316432, Note_on_c, 3, 58, 0
5, 316432, Note_on_c, 3, 58, 16
5, 316624, Note_on_c, 3, 58, 0
5, 316624, Note_on_c, 3, 62, 58
5, 316624, Note_on_c, 3, 57, 34
5, 316624, Note_on_c, 3, 58, 25
5, 316625, Note_on_c, 3, 57, 0
5, 316720, Note_on_c, 3, 58, 0
5, 316720, Note_on_c, 3, 62, 0
5, 316816, Note_on_c, 3, 58, 55
5, 316816, Note_on_c, 3, 62, 62
5, 316816, Note_on_c, 3, 57, 39
5, 316912, Note_on_c, 3, 57, 0
5, 316912, Note_on_c, 3, 62, 0
5, 316912, Note_on_c, 3, 58, 0
5, 317008, Note_on_c, 3, 62, 61
5, 317008, Note_on_c, 3, 58, 48
5, 317008, Note_on_c, 3, 57, 34
5, 317104, Note_on_c, 3, 57, 0
5, 317104, Note_on_c, 3, 58, 0
5, 317104, Note_on_c, 3, 62, 0
5, 317200, Note_on_c, 3, 58, 57
5, 317200, Note_on_c, 3, 65, 67
5, 317200, Note_on_c, 3, 57, 62
5, 317200, Note_on_c, 3, 62, 62
5, 317296, Note_on_c, 3, 62, 0
5, 317296, Note_on_c, 3, 58, 0
5, 317296, Note_on_c, 3, 65, 0
5, 317296, Note_on_c, 3, 57, 0
5, 317392, Note_on_c, 3, 57, 27
5, 317392, Note_on_c, 3, 58, 24
5, 317392, Note_on_c, 3, 62, 62
5, 317488, Note_on_c, 3, 57, 0
5, 317584, Note_on_c, 3, 57, 25
5, 317680, Note_on_c, 3, 57, 0
5, 317680, Note_on_c, 3, 58, 0
5, 317776, Note_on_c, 3, 62, 0
5, 317776, Note_on_c, 3, 55, 66
5, 317776, Note_on_c, 3, 60, 65
5, 317776, Note_on_c, 3, 64, 53
5, 317872, Note_on_c, 3, 64, 0
5, 317872, Note_on_c, 3, 60, 0
5, 317872, Note_on_c, 3, 55, 0
5, 317968, Note_on_c, 3, 64, 33
5, 317968, Note_on_c, 3, 55, 65
5, 317968, Note_on_c, 3, 60, 65
5, 318064, Note_on_c, 3, 55, 0
5, 318160, Note_on_c, 3, 60, 0
5, 318160, Note_on_c, 3, 64, 0
5, 318160, Note_on_c, 3, 57, 57
5, 318160, Note_on_c, 3, 62, 68
5, 318160, Note_on_c, 3, 65, 65
5, 318256, Note_on_c, 3, 62, 0
5, 318256, Note_on_c, 3, 57, 0
5, 318352, Note_on_c, 3, 65, 0
5, 318736, Note_on_c, 3, 69, 98
5, 318736, Note_on_c, 3, 65, 106
5, 318736, Note_on_c, 3, 60, 114
5, 318928, Note_on_c, 3, 60, 0
5, 319024, Note_on_c, 3, 65, 0
5, 319024, Note_on_c, 3, 69, 0
5, 319024, Note_on_c, 3, 67, 74
5, 319024, Note_on_c, 3, 64, 76
5, 319024, Note_on_c, 3, 60, 70
5, 319216, Note_on_c, 3, 60, 0
5, 319216, Note_on_c, 3, 64, 0
5, 319216, Note_on_c, 3, 67, 0
5, 319312, Note_on_c, 3, 62, 66
5, 319312, Note_on_c, 3, 65, 55
5, 319312, Note_on_c, 3, 57, 61
5, 319408, Note_on_c, 3, 62, 0
5, 319504, Note_on_c, 3, 57, 0
5, 319504, Note_on_c, 3, 65, 0
5, 319600, Note_on_c, 3, 64, 53
5, 319600, Note_on_c, 3, 60, 68
5, 319600, Note_on_c, 3, 55, 70
5, 319696, Note_on_c, 3, 60, 0
5, 319696, Note_on_c, 3, 64, 0
5, 319792, Note_on_c, 3, 55, 0
5, 319888, Note_on_c, 3, 53, 65
5, 319888, Note_on_c, 3, 62, 63
5, 319888, Note_on_c, 3, 57, 52
5, 320176, Note_on_c, 3, 62, 0
5, 320176, Note_on_c, 3, 53, 0
5, 320176, Note_on_c, 3, 60, 82
5, 320176, Note_on_c, 3, 53, 54
5, 320272, Note_on_c, 3, 60, 0
5, 320272, Note_on_c, 3, 57, 0
5, 320272, Note_on_c, 3, 57, 18
5, 320368, Note_on_c, 3, 57, 0
5, 320368, Note_on_c, 3, 53, 0
5, 320464, Note_on_c, 3, 60, 59
5, 320464, Note_on_c, 3, 53, 37
5, 320464, Note_on_c, 3, 57, 24
5, 320465, Note_on_c, 3, 53, 0
5, 320560, Note_on_c, 3, 57, 0
5, 320560, Note_on_c, 3, 60, 0
5, 320656, Note_on_c, 3, 53, 48
5, 320656, Note_on_c, 3, 62, 60
5, 320656, Note_on_c, 3, 57, 22
5, 320657, Note_on_c, 3, 57, 0
5, 320657, Note_on_c, 3, 62, 0
5, 320657, Note_on_c, 3, 53, 0
5, 320848, Note_on_c, 3, 58, 47
5, 320848, Note_on_c, 3, 62, 68
5, 320848, Note_on_c, 3, 57, 36
5, 320848, Note_on_c, 3, 65, 23
5, 320944, Note_on_c, 3, 65, 0
5, 321040, Note_on_c, 3, 57, 0
5, 321136, Note_on_c, 3, 62, 0
5, 321136, Note_on_c, 3, 58, 0
5, 321136, Note_on_c, 3, 58, 64
5, 321136, Note_on_c, 3, 62, 54
5, 321136, Note_on_c, 3, 65, 63
5, 321136, Note_on_c, 3, 57, 53
5, 321232, Note_on_c, 3, 57, 0
5, 321232, Note_on_c, 3, 58, 0
5, 321232, Note_on_c, 3, 62, 0
5, 321232, Note_on_c, 3, 65, 0
5, 321424, Note_on_c, 3, 69, 90
5, 321424, Note_on_c, 3, 62, 80
5, 321424, Note_on_c, 3, 58, 66
5, 321424, Note_on_c, 3, 65, 54
5, 322000, Note_on_c, 3, 65, 0
5, 322000, Note_on_c, 3, 69, 0
5, 322000, Note_on_c, 3, 62, 0
5, 322000, Note_on_c, 3, 58, 0
5, 322000, Note_on_c, 3, 58, 28
5, 322000, Note_on_c, 3, 62, 62
5, 322000, Note_on_c, 3, 67, 58
5, 322192, Note_on_c, 3, 67, 0
5, 322192, Note_on_c, 3, 62, 0
5, 322192, Note_on_c, 3, 58, 0
5, 322192, Note_on_c, 3, 59, 25
5, 322193, Note_on_c, 3, 59, 0
5, 322384, Note_on_c, 3, 58, 48
5, 322384, Note_on_c, 3, 57, 54
5, 322384, Note_on_c, 3, 65, 56
5, 322384, Note_on_c, 3, 62, 47
5, 322385, Note_on_c, 3, 62, 0
5, 322385, Note_on_c, 3, 58, 0
5, 322385, Note_on_c, 3, 57, 0
5, 322385, Note_on_c, 3, 65, 0
5, 322576, Note_on_c, 3, 58, 67
5, 322576, Note_on_c, 3, 62, 65
5, 322576, Note_on_c, 3, 65, 65
5, 322576, Note_on_c, 3, 57, 67
5, 322864, Note_on_c, 3, 57, 0
5, 322864, Note_on_c, 3, 62, 0
5, 322960, Note_on_c, 3, 65, 0
5, 322960, Note_on_c, 3, 58, 0
5, 322960, Note_on_c, 3, 62, 54
5, 322961, Note_on_c, 3, 62, 0
5, 323152, Note_on_c, 3, 58, 70
5, 323152, Note_on_c, 3, 62, 65
5, 323152, Note_on_c, 3, 65, 62
5, 323152, Note_on_c, 3, 57, 69
5, 323153, Note_on_c, 3, 57, 0
5, 323153, Note_on_c, 3, 58, 0
5, 323153, Note_on_c, 3, 62, 0
5, 323153, Note_on_c, 3, 65, 0
5, 323536, Note_on_c, 3, 58, 76
5, 323536, Note_on_c, 3, 65, 78
5, 323536, Note_on_c, 3, 62, 72
5, 323536, Note_on_c, 3, 57, 74
5, 323632, Note_on_c, 3, 57, 0
5, 323632, Note_on_c, 3, 58, 0
5, 323632, Note_on_c, 3, 65, 0
5, 323632, Note_on_c, 3, 62, 0
5, 323928, Control_c, 3, 123, 0
5, 323928, End_track
6, 0, Start_track
6, 0, MIDI_port, 0
6, 0, Program_c, 4, 0
6, 0, Control_c, 4, 7, 127
6, 0, Control_c, 4, 11, 127
6, 0, Control_c, 4, 64, 0
6, 0, Control_c, 4, 67, 0
6, 0, Pitch_bend_c, 4, 8192
6, 322560, Control_c, 4, 7, 127
6, 323928, Control_c, 4, 123, 0
6, 323928, End_track
7, 0, Start_track
7, 0, MIDI_port, 0
7, 0, Program_c, 5, 48
7, 0, Control_c, 5, 7, 63
7, 0, Control_c, 5, 11, 127
7, 0, Control_c, 5, 64, 0
7, 0, Control_c, 5, 67, 0
7, 0, Pitch_bend_c, 5, 8192
7, 61440, Control_c, 5, 7, 63
7, 62944, Note_on_c, 5, 84, 15
7, 62944, Note_on_c, 5, 88, 20
7, 62944, Note_on_c, 5, 93, 16
7, 65816, Note_on_c, 5, 93, 0
7, 65816, Note_on_c, 5, 88, 0
7, 65816, Note_on_c, 5, 84, 0
7, 66008, Note_on_c, 5, 96, 56
7, 66008, Note_on_c, 5, 86, 26
7, 66008, Note_on_c, 5, 89, 53
7, 69080, Note_on_c, 5, 89, 0
7, 69080, Note_on_c, 5, 86, 0
7, 69080, Note_on_c, 5, 88, 27
7, 69080, Note_on_c, 5, 91, 42
7, 71960, Note_on_c, 5, 91, 0
7, 71960, Note_on_c, 5, 88, 0
7, 71960, Note_on_c, 5, 96, 0
7, 72152, Note_on_c, 5, 86, 23
7, 72152, Note_on_c, 5, 93, 40
7, 72152, Note_on_c, 5, 91, 40
7, 75032, Note_on_c, 5, 91, 0
7, 75032, Note_on_c, 5, 93, 0
7, 75032, Note_on_c, 5, 86, 0
7, 75224, Note_on_c, 5, 84, 15
7, 75224, Note_on_c, 5, 88, 20
7, 75224, Note_on_c, 5, 93, 16
7, 78104, Note_on_c, 5, 93, 0
7, 78104, Note_on_c, 5, 88, 0
7, 78104, Note_on_c, 5, 84, 0
7, 78296, Note_on_c, 5, 96, 56
7, 78296, Note_on_c, 5, 86, 26
7, 78296, Note_on_c, 5, 89, 53
7, 81360, Note_on_c, 5, 89, 0
7, 81360, Note_on_c, 5, 86, 0
7, 81360, Note_on_c, 5, 88, 27
7, 81360, Note_on_c, 5, 91, 42
7, 84240, Note_on_c, 5, 91, 0
7, 84240, Note_on_c, 5, 88, 0
7, 84240, Note_on_c, 5, 96, 0
7, 84432, Note_on_c, 5, 86, 23
7, 84432, Note_on_c, 5, 93, 40
7, 84432, Note_on_c, 5, 91, 40
7, 87312, Note_on_c, 5, 91, 0
7, 87312, Note_on_c, 5, 93, 0
7, 87312, Note_on_c, 5, 86, 0
7, 122880, Program_c, 5, 48
7, 124352, Note_on_c, 5, 84, 15
7, 124352, Note_on_c, 5, 88, 20
7, 124352, Note_on_c, 5, 93, 16
7, 127224, Note_on_c, 5, 93, 0
7, 127224, Note_on_c, 5, 88, 0
7, 127224, Note_on_c, 5, 84, 0
7, 127416, Note_on_c, 5, 96, 56
7, 127416, Note_on_c, 5, 86, 26
7, 127416, Note_on_c, 5, 89, 53
7, 130488, Note_on_c, 5, 89, 0
7, 130488, Note_on_c, 5, 86, 0
7, 130488, Note_on_c, 5, 88, 27
7, 130488, Note_on_c, 5, 91, 42
7, 133368, Note_on_c, 5, 91, 0
7, 133368, Note_on_c, 5, 88, 0
7, 133368, Note_on_c, 5, 96, 0
7, 133560, Note_on_c, 5, 86, 23
7, 133560, Note_on_c, 5, 93, 40
7, 133560, Note_on_c, 5, 91, 40
7, 136440, Note_on_c, 5, 91, 0
7, 136440, Note_on_c, 5, 93, 0
7, 136440, Note_on_c, 5, 86, 0
7, 136632, Note_on_c, 5, 84, 15
7, 136632, Note_on_c, 5, 88, 20
7, 136632, Note_on_c, 5, 93, 16
7, 139504, Note_on_c, 5, 93, 0
7, 139504, Note_on_c, 5, 88, 0
7, 139504, Note_on_c, 5, 84, 0
7, 139696, Note_on_c, 5, 96, 56
7, 139696, Note_on_c, 5, 86, 26
7, 139696, Note_on_c, 5, 89, 53
7, 142768, Note_on_c, 5, 89, 0
7, 142768, Note_on_c, 5, 86, 0
7, 142768, Note_on_c, 5, 88, 27
7, 142768, Note_on_c, 5, 91, 42
7, 145648, Note_on_c, 5, 91, 0
7, 145648, Note_on_c, 5, 88, 0
7, 145648, Note_on_c, 5, 96, 0
7, 145840, Note_on_c, 5, 86, 23
7, 145840, Note_on_c, 5, 93, 40
7, 145840, Note_on_c, 5, 91, 40
7, 148720, Note_on_c, 5, 91, 0
7, 148720, Note_on_c, 5, 93, 0
7, 148720, Note_on_c, 5, 86, 0
7, 184320, Program_c, 5, 48
7, 185760, Note_on_c, 5, 84, 15
7, 185760, Note_on_c, 5, 88, 20
7, 185760, Note_on_c, 5, 93, 16
7, 188632, Note_on_c, 5, 93, 0
7, 188632, Note_on_c, 5, 88, 0
7, 188632, Note_on_c, 5, 84, 0
7, 188824, Note_on_c, 5, 96, 56
7, 188824, Note_on_c, 5, 86, 26
7, 188824, Note_on_c, 5, 89, 53
7, 191896, Note_on_c, 5, 89, 0
7, 191896, Note_on_c, 5, 86, 0
7, 191896, Note_on_c, 5, 88, 27
7, 191896, Note_on_c, 5, 91, 42
7, 194776, Note_on_c, 5, 91, 0
7, 194776, Note_on_c, 5, 88, 0
7, 194776, Note_on_c, 5, 96, 0
7, 194968, Note_on_c, 5, 86, 23
7, 194968, Note_on_c, 5, 93, 40
7, 194968, Note_on_c, 5, 91, 40
7, 197840, Note_on_c, 5, 91, 0
7, 197840, Note_on_c, 5, 93, 0
7, 197840, Note_on_c, 5, 86, 0
7, 198032, Note_on_c, 5, 84, 15
7, 198032, Note_on_c, 5, 88, 20
7, 198032, Note_on_c, 5, 93, 16
7, 200912, Note_on_c, 5, 93, 0
7, 200912, Note_on_c, 5, 88, 0
7, 200912, Note_on_c, 5, 84, 0
7, 201104, Note_on_c, 5, 96, 56
7, 201104, Note_on_c, 5, 86, 26
7, 201104, Note_on_c, 5, 89, 53
7, 204176, Note_on_c, 5, 89, 0
7, 204176, Note_on_c, 5, 86, 0
7, 204176, Note_on_c, 5, 88, 27
7, 204176, Note_on_c, 5, 91, 42
7, 207056, Note_on_c, 5, 91, 0
7, 207056, Note_on_c, 5, 88, 0
7, 207056, Note_on_c, 5, 96, 0
7, 207248, Note_on_c, 5, 86, 23
7, 207248, Note_on_c, 5, 93, 40
7, 207248, Note_on_c, 5, 91, 40
7, 210128, Note_on_c, 5, 91, 0
7, 210128, Note_on_c, 5, 93, 0
7, 210128, Note_on_c, 5, 86, 0
7, 267264, Program_c, 5, 48
7, 268656, Note_on_c, 5, 88, 30
7, 268656, Note_on_c, 5, 91, 39
7, 268656, Note_on_c, 5, 62, 25
7, 271720, Note_on_c, 5, 62, 0
7, 271720, Note_on_c, 5, 91, 0
7, 271720, Note_on_c, 5, 88, 0
7, 271720, Note_on_c, 5, 84, 32
7, 271720, Note_on_c, 5, 89, 28
7, 271720, Note_on_c, 5, 55, 47
7, 274792, Note_on_c, 5, 89, 0
7, 274792, Note_on_c, 5, 91, 40
7, 274792, Note_on_c, 5, 62, 50
7, 274792, Note_on_c, 5, 86, 46
7, 274888, Note_on_c, 5, 55, 0
7, 275080, Note_on_c, 5, 84, 0
7, 277864, Note_on_c, 5, 84, 17
7, 277960, Note_on_c, 5, 62, 0
7, 277960, Note_on_c, 5, 86, 0
7, 277960, Note_on_c, 5, 91, 0
7, 277960, Note_on_c, 5, 89, 24
7, 277960, Note_on_c, 5, 55, 41
7, 280168, Note_on_c, 5, 89, 0
7, 280168, Note_on_c, 5, 84, 0
7, 280936, Note_on_c, 5, 55, 0
7, 280936, Note_on_c, 5, 98, 27
7, 280936, Note_on_c, 5, 62, 32
7, 280936, Note_on_c, 5, 93, 24
7, 284000, Note_on_c, 5, 93, 0
7, 284000, Note_on_c, 5, 62, 0
7, 284000, Note_on_c, 5, 89, 16
7, 284000, Note_on_c, 5, 94, 18
7, 284864, Note_on_c, 5, 55, 30
7, 286976, Note_on_c, 5, 94, 0
7, 286976, Note_on_c, 5, 98, 0
7, 287072, Note_on_c, 5, 55, 0
7, 287072, Note_on_c, 5, 62, 18
7, 290144, Note_on_c, 5, 62, 0
7, 290144, Note_on_c, 5, 55, 33
7, 290144, Note_on_c, 5, 94, 27
7, 290240, Note_on_c, 5, 89, 0
7, 293120, Note_on_c, 5, 94, 0
7, 293120, Note_on_c, 5, 55, 0
7, 322560, Program_c, 5, 48
7, 323928, Control_c, 5, 123, 0
7, 323928, End_track
8, 0, Start_track
8, 0, MIDI_port, 0
8, 0, Program_c, 6, 60
8, 0, Control_c, 6, 7, 63
8, 0, Control_c, 6, 11, 127
8, 0, Control_c, 6, 64, 0
8, 0, Control_c, 6, 67, 0
8, 0, Pitch_bend_c, 6, 8192
8, 62976, Control_c, 6, 7, 63
8, 64480, Note_on_c, 6, 65, 90
8, 64480, Note_on_c, 6, 50, 58
8, 64856, Note_on_c, 6, 50, 0
8, 64856, Note_on_c, 6, 65, 0
8, 64856, Note_on_c, 6, 64, 82
8, 64856, Note_on_c, 6, 49, 60
8, 65240, Note_on_c, 6, 49, 0
8, 65240, Note_on_c, 6, 64, 0
8, 65240, Note_on_c, 6, 65, 84
8, 65240, Note_on_c, 6, 48, 88
8, 65528, Note_on_c, 6, 48, 0
8, 65528, Note_on_c, 6, 65, 0
8, 65528, Note_on_c, 6, 69, 66
8, 65528, Note_on_c, 6, 47, 44
8, 65816, Note_on_c, 6, 47, 0
8, 65816, Note_on_c, 6, 69, 0
8, 65816, Note_on_c, 6, 43, 53
8, 65816, Note_on_c, 6, 65, 67
8, 65816, Note_on_c, 6, 72, 67
8, 68696, Note_on_c, 6, 72, 0
8, 68696, Note_on_c, 6, 65, 0
8, 68696, Note_on_c, 6, 43, 0
8, 69120, Program_c, 6, 60
8, 70616, Note_on_c, 6, 64, 65
8, 70616, Note_on_c, 6, 60, 58
8, 70616, Note_on_c, 6, 50, 34
8, 70616, Note_on_c, 6, 55, 24
8, 71000, Note_on_c, 6, 55, 0
8, 71000, Note_on_c, 6, 64, 0
8, 71000, Note_on_c, 6, 60, 0
8, 71000, Note_on_c, 6, 50, 0
8, 71000, Note_on_c, 6, 61, 64
8, 71000, Note_on_c, 6, 49, 57
8, 71000, Note_on_c, 6, 65, 68
8, 71288, Note_on_c, 6, 65, 0
8, 71288, Note_on_c, 6, 61, 0
8, 71384, Note_on_c, 6, 49, 0
8, 71384, Note_on_c, 6, 69, 76
8, 71384, Note_on_c, 6, 62, 74
8, 71384, Note_on_c, 6, 59, 80
8, 71384, Note_on_c, 6, 48, 57
8, 71480, Note_on_c, 6, 48, 0
8, 71576, Note_on_c, 6, 69, 0
8, 71576, Note_on_c, 6, 62, 0
8, 71576, Note_on_c, 6, 59, 0
8, 71672, Note_on_c, 6, 68, 22
8, 71672, Note_on_c, 6, 72, 65
8, 71673, Note_on_c, 6, 68, 0
8, 71768, Note_on_c, 6, 65, 61
8, 71768, Note_on_c, 6, 46, 55
8, 71768, Note_on_c, 6, 62, 78
8, 71864, Note_on_c, 6, 62, 0
8, 71864, Note_on_c, 6, 72, 0
8, 71864, Note_on_c, 6, 65, 0
8, 71960, Note_on_c, 6, 46, 0
8, 71960, Note_on_c, 6, 74, 72
8, 71960, Note_on_c, 6, 67, 66
8, 71960, Note_on_c, 6, 45, 65
8, 71960, Note_on_c, 6, 69, 66
8, 73016, Note_on_c, 6, 72, 21
8, 74936, Note_on_c, 6, 72, 0
8, 74936, Note_on_c, 6, 45, 0
8, 74936, Note_on_c, 6, 74, 0
8, 74936, Note_on_c, 6, 67, 0
8, 74936, Note_on_c, 6, 69, 0
8, 75264, Program_c, 6, 60
8, 76760, Note_on_c, 6, 65, 90
8, 76760, Note_on_c, 6, 50, 58
8, 77144, Note_on_c, 6, 50, 0
8, 77144, Note_on_c, 6, 65, 0
8, 77144, Note_on_c, 6, 64, 82
8, 77144, Note_on_c, 6, 49, 60
8, 77528, Note_on_c, 6, 49, 0
8, 77528, Note_on_c, 6, 64, 0
8, 77528, Note_on_c, 6, 65, 84
8, 77528, Note_on_c, 6, 48, 88
8, 77816, Note_on_c, 6, 48, 0
8, 77816, Note_on_c, 6, 65, 0
8, 77816, Note_on_c, 6, 69, 66
8, 77816, Note_on_c, 6, 47, 44
8, 78104, Note_on_c, 6, 47, 0
8, 78104, Note_on_c, 6, 69, 0
8, 78104, Note_on_c, 6, 43, 53
8, 78104, Note_on_c, 6, 65, 67
8, 78104, Note_on_c, 6, 72, 67
8, 80976, Note_on_c, 6, 72, 0
8, 80976, Note_on_c, 6, 65, 0
8, 80976, Note_on_c, 6, 43, 0
8, 81408, Program_c, 6, 60
8, 82896, Note_on_c, 6, 64, 65
8, 82896, Note_on_c, 6, 60, 58
8, 82896, Note_on_c, 6, 50, 34
8, 82896, Note_on_c, 6, 55, 24
8, 83280, Note_on_c, 6, 55, 0
8, 83280, Note_on_c, 6, 64, 0
8, 83280, Note_on_c, 6, 60, 0
8, 83280, Note_on_c, 6, 50, 0
8, 83280, Note_on_c, 6, 61, 64
8, 83280, Note_on_c, 6, 49, 57
8, 83280, Note_on_c, 6, 65, 68
8, 83568, Note_on_c, 6, 65, 0
8, 83568, Note_on_c, 6, 61, 0
8, 83664, Note_on_c, 6, 49, 0
8, 83664, Note_on_c, 6, 69, 76
8, 83664, Note_on_c, 6, 62, 74
8, 83664, Note_on_c, 6, 59, 80
8, 83664, Note_on_c, 6, 48, 57
8, 83760, Note_on_c, 6, 48, 0
8, 83856, Note_on_c, 6, 69, 0
8, 83856, Note_on_c, 6, 62, 0
8, 83856, Note_on_c, 6, 59, 0
8, 83952, Note_on_c, 6, 68, 22
8, 83952, Note_on_c, 6, 72, 65
8, 83953, Note_on_c, 6, 68, 0
8, 84048, Note_on_c, 6, 65, 61
8, 84048, Note_on_c, 6, 46, 55
8, 84048, Note_on_c, 6, 62, 78
8, 84144, Note_on_c, 6, 62, 0
8, 84144, Note_on_c, 6, 72, 0
8, 84144, Note_on_c, 6, 65, 0
8, 84240, Note_on_c, 6, 46, 0
8, 84240, Note_on_c, 6, 74, 72
8, 84240, Note_on_c, 6, 67, 66
8, 84240, Note_on_c, 6, 45, 65
8, 84240, Note_on_c, 6, 69, 66
8, 85296, Note_on_c, 6, 72, 21
8, 87216, Note_on_c, 6, 72, 0
8, 87216, Note_on_c, 6, 45, 0
8, 87216, Note_on_c, 6, 74, 0
8, 87216, Note_on_c, 6, 67, 0
8, 87216, Note_on_c, 6, 69, 0
8, 124416, Program_c, 6, 60
8, 125880, Note_on_c, 6, 65, 90
8, 125880, Note_on_c, 6, 50, 58
8, 126264, Note_on_c, 6, 50, 0
8, 126264, Note_on_c, 6, 65, 0
8, 126264, Note_on_c, 6, 64, 82
8, 126264, Note_on_c, 6, 49, 60
8, 126648, Note_on_c, 6, 49, 0
8, 126648, Note_on_c, 6, 64, 0
8, 126648, Note_on_c, 6, 65, 84
8, 126648, Note_on_c, 6, 48, 88
8, 126936, Note_on_c, 6, 48, 0
8, 126936, Note_on_c, 6, 65, 0
8, 126936, Note_on_c, 6, 69, 66
8, 126936, Note_on_c, 6, 47, 44
8, 127224, Note_on_c, 6, 47, 0
8, 127224, Note_on_c, 6, 69, 0
8, 127224, Note_on_c, 6, 43, 53
8, 127224, Note_on_c, 6, 65, 67
8, 127224, Note_on_c, 6, 72, 67
8, 130104, Note_on_c, 6, 72, 0
8, 130104, Note_on_c, 6, 65, 0
8, 130104, Note_on_c, 6, 43, 0
8, 130560, Program_c, 6, 60
8, 132024, Note_on_c, 6, 64, 65
8, 132024, Note_on_c, 6, 60, 58
8, 132024, Note_on_c, 6, 50, 34
8, 132024, Note_on_c, 6, 55, 24
8, 132408, Note_on_c, 6, 55, 0
8, 132408, Note_on_c, 6, 64, 0
8, 132408, Note_on_c, 6, 60, 0
8, 132408, Note_on_c, 6, 50, 0
8, 132408, Note_on_c, 6, 61, 64
8, 132408, Note_on_c, 6, 49, 57
8, 132408, Note_on_c, 6, 65, 68
8, 132696, Note_on_c, 6, 65, 0
8, 132696, Note_on_c, 6, 61, 0
8, 132792, Note_on_c, 6, 49, 0
8, 132792, Note_on_c, 6, 69, 76
8, 132792, Note_on_c, 6, 62, 74
8, 132792, Note_on_c, 6, 59, 80
8, 132792, Note_on_c, 6, 48, 57
8, 132888, Note_on_c, 6, 48, 0
8, 132984, Note_on_c, 6, 69, 0
8, 132984, Note_on_c, 6, 62, 0
8, 132984, Note_on_c, 6, 59, 0
8, 133080, Note_on_c, 6, 68, 22
8, 133080, Note_on_c, 6, 72, 65
8, 133081, Note_on_c, 6, 68, 0
8, 133176, Note_on_c, 6, 65, 61
8, 133176, Note_on_c, 6, 46, 55
8, 133176, Note_on_c, 6, 62, 78
8, 133272, Note_on_c, 6, 62, 0
8, 133272, Note_on_c, 6, 72, 0
8, 133272, Note_on_c, 6, 65, 0
8, 133368, Note_on_c, 6, 46, 0
8, 133368, Note_on_c, 6, 74, 72
8, 133368, Note_on_c, 6, 67, 66
8, 133368, Note_on_c, 6, 45, 65
8, 133368, Note_on_c, 6, 69, 66
8, 134424, Note_on_c, 6, 72, 21
8, 136344, Note_on_c, 6, 72, 0
8, 136344, Note_on_c, 6, 45, 0
8, 136344, Note_on_c, 6, 74, 0
8, 136344, Note_on_c, 6, 67, 0
8, 136344, Note_on_c, 6, 69, 0
8, 136704, Program_c, 6, 60
8, 138168, Note_on_c, 6, 65, 90
8, 138168, Note_on_c, 6, 50, 58
8, 138544, Note_on_c, 6, 50, 0
8, 138544, Note_on_c, 6, 65, 0
8, 138544, Note_on_c, 6, 64, 82
8, 138544, Note_on_c, 6, 49, 60
8, 138928, Note_on_c, 6, 49, 0
8, 138928, Note_on_c, 6, 64, 0
8, 138928, Note_on_c, 6, 65, 84
8, 138928, Note_on_c, 6, 48, 88
8, 139216, Note_on_c, 6, 48, 0
8, 139216, Note_on_c, 6, 65, 0
8, 139216, Note_on_c, 6, 69, 66
8, 139216, Note_on_c, 6, 47, 44
8, 139504, Note_on_c, 6, 47, 0
8, 139504, Note_on_c, 6, 69, 0
8, 139504, Note_on_c, 6, 43, 53
8, 139504, Note_on_c, 6, 65, 67
8, 139504, Note_on_c, 6, 72, 67
8, 142384, Note_on_c, 6, 72, 0
8, 142384, Note_on_c, 6, 65, 0
8, 142384, Note_on_c, 6, 43, 0
8, 142848, Program_c, 6, 60
8, 144304, Note_on_c, 6, 64, 65
8, 144304, Note_on_c, 6, 60, 58
8, 144304, Note_on_c, 6, 50, 34
8, 144304, Note_on_c, 6, 55, 24
8, 144688, Note_on_c, 6, 55, 0
8, 144688, Note_on_c, 6, 64, 0
8, 144688, Note_on_c, 6, 60, 0
8, 144688, Note_on_c, 6, 50, 0
8, 144688, Note_on_c, 6, 61, 64
8, 144688, Note_on_c, 6, 49, 57
8, 144688, Note_on_c, 6, 65, 68
8, 144976, Note_on_c, 6, 65, 0
8, 144976, Note_on_c, 6, 61, 0
8, 145072, Note_on_c, 6, 49, 0
8, 145072, Note_on_c, 6, 69, 76
8, 145072, Note_on_c, 6, 62, 74
8, 145072, Note_on_c, 6, 59, 80
8, 145072, Note_on_c, 6, 48, 57
8, 145168, Note_on_c, 6, 48, 0
8, 145264, Note_on_c, 6, 69, 0
8, 145264, Note_on_c, 6, 62, 0
8, 145264, Note_on_c, 6, 59, 0
8, 145360, Note_on_c, 6, 68, 22
8, 145360, Note_on_c, 6, 72, 65
8, 145361, Note_on_c, 6, 68, 0
8, 145456, Note_on_c, 6, 65, 61
8, 145456, Note_on_c, 6, 46, 55
8, 145456, Note_on_c, 6, 62, 78
8, 145552, Note_on_c, 6, 62, 0
8, 145552, Note_on_c, 6, 72, 0
8, 145552, Note_on_c, 6, 65, 0
8, 145648, Note_on_c, 6, 46, 0
8, 145648, Note_on_c, 6, 74, 72
8, 145648, Note_on_c, 6, 67, 66
8, 145648, Note_on_c, 6, 45, 65
8, 145648, Note_on_c, 6, 69, 66
8, 146704, Note_on_c, 6, 72, 21
8, 148624, Note_on_c, 6, 72, 0
8, 148624, Note_on_c, 6, 45, 0
8, 148624, Note_on_c, 6, 74, 0
8, 148624, Note_on_c, 6, 67, 0
8, 148624, Note_on_c, 6, 69, 0
8, 185856, Program_c, 6, 60
8, 187288, Note_on_c, 6, 65, 90
8, 187288, Note_on_c, 6, 50, 58
8, 187672, Note_on_c, 6, 50, 0
8, 187672, Note_on_c, 6, 65, 0
8, 187672, Note_on_c, 6, 64, 82
8, 187672, Note_on_c, 6, 49, 60
8, 188056, Note_on_c, 6, 49, 0
8, 188056, Note_on_c, 6, 64, 0
8, 188056, Note_on_c, 6, 65, 84
8, 188056, Note_on_c, 6, 48, 88
8, 188344, Note_on_c, 6, 48, 0
8, 188344, Note_on_c, 6, 65, 0
8, 188344, Note_on_c, 6, 69, 66
8, 188344, Note_on_c, 6, 47, 44
8, 188632, Note_on_c, 6, 47, 0
8, 188632, Note_on_c, 6, 69, 0
8, 188632, Note_on_c, 6, 43, 53
8, 188632, Note_on_c, 6, 65, 67
8, 188632, Note_on_c, 6, 72, 67
8, 191512, Note_on_c, 6, 72, 0
8, 191512, Note_on_c, 6, 65, 0
8, 191512, Note_on_c, 6, 43, 0
8, 192000, Program_c, 6, 60
8, 193432, Note_on_c, 6, 64, 65
8, 193432, Note_on_c, 6, 60, 58
8, 193432, Note_on_c, 6, 50, 34
8, 193432, Note_on_c, 6, 55, 24
8, 193816, Note_on_c, 6, 55, 0
8, 193816, Note_on_c, 6, 64, 0
8, 193816, Note_on_c, 6, 60, 0
8, 193816, Note_on_c, 6, 50, 0
8, 193816, Note_on_c, 6, 61, 64
8, 193816, Note_on_c, 6, 49, 57
8, 193816, Note_on_c, 6, 65, 68
8, 194104, Note_on_c, 6, 65, 0
8, 194104, Note_on_c, 6, 61, 0
8, 194200, Note_on_c, 6, 49, 0
8, 194200, Note_on_c, 6, 69, 76
8, 194200, Note_on_c, 6, 62, 74
8, 194200, Note_on_c, 6, 59, 80
8, 194200, Note_on_c, 6, 48, 57
8, 194296, Note_on_c, 6, 48, 0
8, 194392, Note_on_c, 6, 69, 0
8, 194392, Note_on_c, 6, 62, 0
8, 194392, Note_on_c, 6, 59, 0
8, 194488, Note_on_c, 6, 68, 22
8, 194488, Note_on_c, 6, 72, 65
8, 194489, Note_on_c, 6, 68, 0
8, 194584, Note_on_c, 6, 65, 61
8, 194584, Note_on_c, 6, 46, 55
8, 194584, Note_on_c, 6, 62, 78
8, 194680, Note_on_c, 6, 62, 0
8, 194680, Note_on_c, 6, 72, 0
8, 194680, Note_on_c, 6, 65, 0
8, 194776, Note_on_c, 6, 46, 0
8, 194776, Note_on_c, 6, 74, 72
8, 194776, Note_on_c, 6, 67, 66
8, 194776, Note_on_c, 6, 45, 65
8, 194776, Note_on_c, 6, 69, 66
8, 195824, Note_on_c, 6, 72, 21
8, 197744, Note_on_c, 6, 72, 0
8, 197744, Note_on_c, 6, 45, 0
8, 197744, Note_on_c, 6, 74, 0
8, 197744, Note_on_c, 6, 67, 0
8, 197744, Note_on_c, 6, 69, 0
8, 198144, Program_c, 6, 60
8, 199568, Note_on_c, 6, 65, 90
8, 199568, Note_on_c, 6, 50, 58
8, 199952, Note_on_c, 6, 50, 0
8, 199952, Note_on_c, 6, 65, 0
8, 199952, Note_on_c, 6, 64, 82
8, 199952, Note_on_c, 6, 49, 60
8, 200336, Note_on_c, 6, 49, 0
8, 200336, Note_on_c, 6, 64, 0
8, 200336, Note_on_c, 6, 65, 84
8, 200336, Note_on_c, 6, 48, 88
8, 200624, Note_on_c, 6, 48, 0
8, 200624, Note_on_c, 6, 65, 0
8, 200624, Note_on_c, 6, 69, 66
8, 200624, Note_on_c, 6, 47, 44
8, 200912, Note_on_c, 6, 47, 0
8, 200912, Note_on_c, 6, 69, 0
8, 200912, Note_on_c, 6, 43, 53
8, 200912, Note_on_c, 6, 65, 67
8, 200912, Note_on_c, 6, 72, 67
8, 203792, Note_on_c, 6, 72, 0
8, 203792, Note_on_c, 6, 65, 0
8, 203792, Note_on_c, 6, 43, 0
8, 204288, Program_c, 6, 60
8, 205712, Note_on_c, 6, 64, 65
8, 205712, Note_on_c, 6, 60, 58
8, 205712, Note_on_c, 6, 50, 34
8, 205712, Note_on_c, 6, 55, 24
8, 206096, Note_on_c, 6, 55, 0
8, 206096, Note_on_c, 6, 64, 0
8, 206096, Note_on_c, 6, 60, 0
8, 206096, Note_on_c, 6, 50, 0
8, 206096, Note_on_c, 6, 61, 64
8, 206096, Note_on_c, 6, 49, 57
8, 206096, Note_on_c, 6, 65, 68
8, 206384, Note_on_c, 6, 65, 0
8, 206384, Note_on_c, 6, 61, 0
8, 206480, Note_on_c, 6, 49, 0
8, 206480, Note_on_c, 6, 69, 76
8, 206480, Note_on_c, 6, 62, 74
8, 206480, Note_on_c, 6, 59, 80
8, 206480, Note_on_c, 6, 48, 57
8, 206576, Note_on_c, 6, 48, 0
8, 206672, Note_on_c, 6, 69, 0
8, 206672, Note_on_c, 6, 62, 0
8, 206672, Note_on_c, 6, 59, 0
8, 206768, Note_on_c, 6, 68, 22
8, 206768, Note_on_c, 6, 72, 65
8, 206769, Note_on_c, 6, 68, 0
8, 206864, Note_on_c, 6, 65, 61
8, 206864, Note_on_c, 6, 46, 55
8, 206864, Note_on_c, 6, 62, 78
8, 206960, Note_on_c, 6, 62, 0
8, 206960, Note_on_c, 6, 72, 0
8, 206960, Note_on_c, 6, 65, 0
8, 207056, Note_on_c, 6, 46, 0
8, 207056, Note_on_c, 6, 74, 72
8, 207056, Note_on_c, 6, 67, 66
8, 207056, Note_on_c, 6, 45, 65
8, 207056, Note_on_c, 6, 69, 66
8, 208112, Note_on_c, 6, 72, 21
8, 210024, Note_on_c, 6, 72, 0
8, 210024, Note_on_c, 6, 45, 0
8, 210024, Note_on_c, 6, 74, 0
8, 210024, Note_on_c, 6, 67, 0
8, 210024, Note_on_c, 6, 69, 0
8, 322560, Program_c, 6, 60
8, 323928, Control_c, 6, 123, 0
8, 323928, End_track
9, 0, Start_track
9, 0, MIDI_port, 0
9, 0, Program_c, 7, 98
9, 0, Control_c, 7, 7, 66
9, 0, Control_c, 7, 11, 127
9, 0, Control_c, 7, 64, 0
9, 0, Control_c, 7, 67, 0
9, 0, Pitch_bend_c, 7, 8192
9, 62976, Control_c, 7, 7, 66
9, 64480, Note_on_c, 7, 77, 42
9, 64480, Note_on_c, 7, 62, 31
9, 64856, Note_on_c, 7, 62, 0
9, 64856, Note_on_c, 7, 64, 37
9, 64856, Note_on_c, 7, 79, 59
9, 64960, Note_on_c, 7, 77, 0
9, 65240, Note_on_c, 7, 79, 0
9, 65240, Note_on_c, 7, 64, 0
9, 65240, Note_on_c, 7, 65, 49
9, 65240, Note_on_c, 7, 81, 56
9, 65528, Note_on_c, 7, 81, 0
9, 65528, Note_on_c, 7, 65, 0
9, 65528, Note_on_c, 7, 84, 54
9, 65528, Note_on_c, 7, 69, 45
9, 65816, Note_on_c, 7, 69, 0
9, 65816, Note_on_c, 7, 84, 0
9, 65816, Note_on_c, 7, 84, 67
9, 65816, Note_on_c, 7, 67, 72
9, 68984, Note_on_c, 7, 67, 0
9, 68984, Note_on_c, 7, 84, 0
9, 69120, Program_c, 7, 98
9, 70616, Note_on_c, 7, 76, 61
9, 70616, Note_on_c, 7, 64, 61
9, 71000, Note_on_c, 7, 64, 0
9, 71000, Note_on_c, 7, 76, 0
9, 71000, Note_on_c, 7, 77, 57
9, 71000, Note_on_c, 7, 65, 59
9, 71384, Note_on_c, 7, 65, 0
9, 71384, Note_on_c, 7, 77, 0
9, 71384, Note_on_c, 7, 81, 48
9, 71384, Note_on_c, 7, 69, 50
9, 71672, Note_on_c, 7, 69, 0
9, 71672, Note_on_c, 7, 81, 0
9, 71672, Note_on_c, 7, 84, 67
9, 71672, Note_on_c, 7, 70, 47
9, 71960, Note_on_c, 7, 70, 0
9, 71960, Note_on_c, 7, 84, 0
9, 71960, Note_on_c, 7, 86, 55
9, 71960, Note_on_c, 7, 69, 70
9, 72152, Note_on_c, 7, 79, 9
9, 72728, Note_on_c, 7, 84, 61
9, 74840, Note_on_c, 7, 84, 0
9, 74840, Note_on_c, 7, 86, 0
9, 74840, Note_on_c, 7, 69, 0
9, 74840, Note_on_c, 7, 79, 0
9, 75264, Program_c, 7, 98
9, 76760, Note_on_c, 7, 77, 42
9, 76760, Note_on_c, 7, 62, 31
9, 77144, Note_on_c, 7, 62, 0
9, 77144, Note_on_c, 7, 64, 37
9, 77144, Note_on_c, 7, 79, 59
9, 77240, Note_on_c, 7, 77, 0
9, 77528, Note_on_c, 7, 79, 0
9, 77528, Note_on_c, 7, 64, 0
9, 77528, Note_on_c, 7, 65, 49
9, 77528, Note_on_c, 7, 81, 56
9, 77816, Note_on_c, 7, 81, 0
9, 77816, Note_on_c, 7, 65, 0
9, 77816, Note_on_c, 7, 84, 54
9, 77816, Note_on_c, 7, 69, 45
9, 78104, Note_on_c, 7, 69, 0
9, 78104, Note_on_c, 7, 84, 0
9, 78104, Note_on_c, 7, 84, 67
9, 78104, Note_on_c, 7, 67, 72
9, 81264, Note_on_c, 7, 67, 0
9, 81264, Note_on_c, 7, 84, 0
9, 81408, Program_c, 7, 98
9, 82896, Note_on_c, 7, 76, 61
9, 82896, Note_on_c, 7, 64, 61
9, 83280, Note_on_c, 7, 64, 0
9, 83280, Note_on_c, 7, 76, 0
9, 83280, Note_on_c, 7, 77, 57
9, 83280, Note_on_c, 7, 65, 59
9, 83664, Note_on_c, 7, 65, 0
9, 83664, Note_on_c, 7, 77, 0
9, 83664, Note_on_c, 7, 81, 48
9, 83664, Note_on_c, 7, 69, 50
9, 83952, Note_on_c, 7, 69, 0
9, 83952, Note_on_c, 7, 81, 0
9, 83952, Note_on_c, 7, 84, 67
9, 83952, Note_on_c, 7, 70, 47
9, 84240, Note_on_c, 7, 70, 0
9, 84240, Note_on_c, 7, 84, 0
9, 84240, Note_on_c, 7, 86, 55
9, 84240, Note_on_c, 7, 69, 70
9, 84432, Note_on_c, 7, 79, 9
9, 85008, Note_on_c, 7, 84, 61
9, 87120, Note_on_c, 7, 84, 0
9, 87120, Note_on_c, 7, 86, 0
9, 87120, Note_on_c, 7, 69, 0
9, 87120, Note_on_c, 7, 79, 0
9, 124416, Program_c, 7, 98
9, 125880, Note_on_c, 7, 77, 42
9, 125880, Note_on_c, 7, 62, 31
9, 126264, Note_on_c, 7, 62, 0
9, 126264, Note_on_c, 7, 64, 37
9, 126264, Note_on_c, 7, 79, 59
9, 126360, Note_on_c, 7, 77, 0
9, 126648, Note_on_c, 7, 79, 0
9, 126648, Note_on_c, 7, 64, 0
9, 126648, Note_on_c, 7, 65, 49
9, 126648, Note_on_c, 7, 81, 56
9, 126936, Note_on_c, 7, 81, 0
9, 126936, Note_on_c, 7, 65, 0
9, 126936, Note_on_c, 7, 84, 54
9, 126936, Note_on_c, 7, 69, 45
9, 127224, Note_on_c, 7, 69, 0
9, 127224, Note_on_c, 7, 84, 0
9, 127224, Note_on_c, 7, 84, 67
9, 127224, Note_on_c, 7, 67, 72
9, 130392, Note_on_c, 7, 67, 0
9, 130392, Note_on_c, 7, 84, 0
9, 130560, Program_c, 7, 98
9, 132024, Note_on_c, 7, 76, 61
9, 132024, Note_on_c, 7, 64, 61
9, 132408, Note_on_c, 7, 64, 0
9, 132408, Note_on_c, 7, 76, 0
9, 132408, Note_on_c, 7, 77, 57
9, 132408, Note_on_c, 7, 65, 59
9, 132792, Note_on_c, 7, 65, 0
9, 132792, Note_on_c, 7, 77, 0
9, 132792, Note_on_c, 7, 81, 48
9, 132792, Note_on_c, 7, 69, 50
9, 133080, Note_on_c, 7, 69, 0
9, 133080, Note_on_c, 7, 81, 0
9, 133080, Note_on_c, 7, 84, 67
9, 133080, Note_on_c, 7, 70, 47
9, 133368, Note_on_c, 7, 70, 0
9, 133368, Note_on_c, 7, 84, 0
9, 133368, Note_on_c, 7, 86, 55
9, 133368, Note_on_c, 7, 69, 70
9, 133560, Note_on_c, 7, 79, 9
9, 134136, Note_on_c, 7, 84, 61
9, 136248, Note_on_c, 7, 84, 0
9, 136248, Note_on_c, 7, 86, 0
9, 136248, Note_on_c, 7, 69, 0
9, 136248, Note_on_c, 7, 79, 0
9, 136704, Program_c, 7, 98
9, 138168, Note_on_c, 7, 77, 42
9, 138168, Note_on_c, 7, 62, 31
9, 138544, Note_on_c, 7, 62, 0
9, 138544, Note_on_c, 7, 64, 37
9, 138544, Note_on_c, 7, 79, 59
9, 138648, Note_on_c, 7, 77, 0
9, 138928, Note_on_c, 7, 79, 0
9, 138928, Note_on_c, 7, 64, 0
9, 138928, Note_on_c, 7, 65, 49
9, 138928, Note_on_c, 7, 81, 56
9, 139216, Note_on_c, 7, 81, 0
9, 139216, Note_on_c, 7, 65, 0
9, 139216, Note_on_c, 7, 84, 54
9, 139216, Note_on_c, 7, 69, 45
9, 139504, Note_on_c, 7, 69, 0
9, 139504, Note_on_c, 7, 84, 0
9, 139504, Note_on_c, 7, 84, 67
9, 139504, Note_on_c, 7, 67, 72
9, 142672, Note_on_c, 7, 67, 0
9, 142672, Note_on_c, 7, 84, 0
9, 142848, Program_c, 7, 98
9, 144304, Note_on_c, 7, 76, 61
9, 144304, Note_on_c, 7, 64, 61
9, 144688, Note_on_c, 7, 64, 0
9, 144688, Note_on_c, 7, 76, 0
9, 144688, Note_on_c, 7, 77, 57
9, 144688, Note_on_c, 7, 65, 59
9, 145072, Note_on_c, 7, 65, 0
9, 145072, Note_on_c, 7, 77, 0
9, 145072, Note_on_c, 7, 81, 48
9, 145072, Note_on_c, 7, 69, 50
9, 145360, Note_on_c, 7, 69, 0
9, 145360, Note_on_c, 7, 81, 0
9, 145360, Note_on_c, 7, 84, 67
9, 145360, Note_on_c, 7, 70, 47
9, 145648, Note_on_c, 7, 70, 0
9, 145648, Note_on_c, 7, 84, 0
9, 145648, Note_on_c, 7, 86, 55
9, 145648, Note_on_c, 7, 69, 70
9, 145840, Note_on_c, 7, 79, 9
9, 146416, Note_on_c, 7, 84, 61
9, 148528, Note_on_c, 7, 84, 0
9, 148528, Note_on_c, 7, 86, 0
9, 148528, Note_on_c, 7, 69, 0
9, 148528, Note_on_c, 7, 79, 0
9, 185856, Program_c, 7, 98
9, 187288, Note_on_c, 7, 77, 42
9, 187288, Note_on_c, 7, 62, 31
9, 187672, Note_on_c, 7, 62, 0
9, 187672, Note_on_c, 7, 64, 37
9, 187672, Note_on_c, 7, 79, 59
9, 187768, Note_on_c, 7, 77, 0
9, 188056, Note_on_c, 7, 79, 0
9, 188056, Note_on_c, 7, 64, 0
9, 188056, Note_on_c, 7, 65, 49
9, 188056, Note_on_c, 7, 81, 56
9, 188344, Note_on_c, 7, 81, 0
9, 188344, Note_on_c, 7, 65, 0
9, 188344, Note_on_c, 7, 84, 54
9, 188344, Note_on_c, 7, 69, 45
9, 188632, Note_on_c, 7, 69, 0
9, 188632, Note_on_c, 7, 84, 0
9, 188632, Note_on_c, 7, 84, 67
9, 188632, Note_on_c, 7, 67, 72
9, 191800, Note_on_c, 7, 67, 0
9, 191800, Note_on_c, 7, 84, 0
9, 192000, Program_c, 7, 98
9, 193432, Note_on_c, 7, 76, 61
9, 193432, Note_on_c, 7, 64, 61
9, 193816, Note_on_c, 7, 64, 0
9, 193816, Note_on_c, 7, 76, 0
9, 193816, Note_on_c, 7, 77, 57
9, 193816, Note_on_c, 7, 65, 59
9, 194200, Note_on_c, 7, 65, 0
9, 194200, Note_on_c, 7, 77, 0
9, 194200, Note_on_c, 7, 81, 48
9, 194200, Note_on_c, 7, 69, 50
9, 194488, Note_on_c, 7, 69, 0
9, 194488, Note_on_c, 7, 81, 0
9, 194488, Note_on_c, 7, 84, 67
9, 194488, Note_on_c, 7, 70, 47
9, 194776, Note_on_c, 7, 70, 0
9, 194776, Note_on_c, 7, 84, 0
9, 194776, Note_on_c, 7, 86, 55
9, 194776, Note_on_c, 7, 69, 70
9, 194968, Note_on_c, 7, 79, 9
9, 195544, Note_on_c, 7, 84, 61
9, 197648, Note_on_c, 7, 84, 0
9, 197648, Note_on_c, 7, 86, 0
9, 197648, Note_on_c, 7, 69, 0
9, 197648, Note_on_c, 7, 79, 0
9, 198144, Program_c, 7, 98
9, 199568, Note_on_c, 7, 77, 42
9, 199568, Note_on_c, 7, 62, 31
9, 199952, Note_on_c, 7, 62, 0
9, 199952, Note_on_c, 7, 64, 37
9, 199952, Note_on_c, 7, 79, 59
9, 200048, Note_on_c, 7, 77, 0
9, 200336, Note_on_c, 7, 79, 0
9, 200336, Note_on_c, 7, 64, 0
9, 200336, Note_on_c, 7, 65, 49
9, 200336, Note_on_c, 7, 81, 56
9, 200624, Note_on_c, 7, 81, 0
9, 200624, Note_on_c, 7, 65, 0
9, 200624, Note_on_c, 7, 84, 54
9, 200624, Note_on_c, 7, 69, 45
9, 200912, Note_on_c, 7, 69, 0
9, 200912, Note_on_c, 7, 84, 0
9, 200912, Note_on_c, 7, 84, 67
9, 200912, Note_on_c, 7, 67, 72
9, 204080, Note_on_c, 7, 67, 0
9, 204080, Note_on_c, 7, 84, 0
9, 204288, Program_c, 7, 98
9, 205712, Note_on_c, 7, 76, 61
9, 205712, Note_on_c, 7, 64, 61
9, 206096, Note_on_c, 7, 64, 0
9, 206096, Note_on_c, 7, 76, 0
9, 206096, Note_on_c, 7, 77, 57
9, 206096, Note_on_c, 7, 65, 59
9, 206480, Note_on_c, 7, 65, 0
9, 206480, Note_on_c, 7, 77, 0
9, 206480, Note_on_c, 7, 81, 48
9, 206480, Note_on_c, 7, 69, 50
9, 206768, Note_on_c, 7, 69, 0
9, 206768, Note_on_c, 7, 81, 0
9, 206768, Note_on_c, 7, 84, 67
9, 206768, Note_on_c, 7, 70, 47
9, 207056, Note_on_c, 7, 70, 0
9, 207056, Note_on_c, 7, 84, 0
9, 207056, Note_on_c, 7, 86, 55
9, 207056, Note_on_c, 7, 69, 70
9, 207248, Note_on_c, 7, 79, 9
9, 207824, Note_on_c, 7, 84, 61
9, 209928, Note_on_c, 7, 84, 0
9, 209928, Note_on_c, 7, 86, 0
9, 209928, Note_on_c, 7, 69, 0
9, 209928, Note_on_c, 7, 79, 0
9, 322560, Program_c, 7, 98
9, 323928, Control_c, 7, 123, 0
9, 323928, End_track
10, 0, Start_track
10, 0, MIDI_port, 0
10, 0, Program_c, 8, 73
10, 26048, Note_on_c, 8, 65, 74
10, 26203, Note_on_c, 8, 64, 50
10, 26233, Note_on_c, 8, 64, 0
10, 26272, Note_on_c, 8, 64, 24
10, 26304, Note_on_c, 8, 64, 0
10, 27595, Note_on_c, 8, 65, 0
10, 28324, Note_on_c, 8, 65, 82
10, 28439, Note_on_c, 8, 65, 0
10, 28595, Note_on_c, 8, 64, 54
10, 28595, Note_on_c, 8, 65, 71
10, 28609, Note_on_c, 8, 67, 87
10, 28618, Note_on_c, 8, 64, 0
10, 28704, Note_on_c, 8, 65, 0
10, 28940, Note_on_c, 8, 64, 74
10, 28946, Note_on_c, 8, 67, 0
10, 29115, Note_on_c, 8, 64, 0
10, 29170, Note_on_c, 8, 64, 24
10, 29269, Note_on_c, 8, 65, 58
10, 29295, Note_on_c, 8, 64, 0
10, 31271, Note_on_c, 8, 65, 0
10, 31293, Note_on_c, 8, 68, 71
10, 31311, Note_on_c, 8, 69, 91
10, 31350, Note_on_c, 8, 68, 0
10, 31690, Note_on_c, 8, 69, 0
10, 31691, Note_on_c, 8, 62, 67
10, 32002, Note_on_c, 8, 62, 0
10, 32002, Note_on_c, 8, 64, 66
10, 32279, Note_on_c, 8, 64, 0
10, 32290, Note_on_c, 8, 65, 49
10, 33262, Note_on_c, 8, 65, 0
10, 33311, Note_on_c, 8, 66, 83
10, 33357, Note_on_c, 8, 67, 83
10, 33359, Note_on_c, 8, 66, 0
10, 33581, Note_on_c, 8, 68, 84
10, 33593, Note_on_c, 8, 67, 0
10, 33596, Note_on_c, 8, 69, 94
10, 33607, Note_on_c, 8, 68, 0
10, 33791, Note_on_c, 8, 69, 0
10, 33815, Note_on_c, 8, 68, 69
10, 33876, Note_on_c, 8, 69, 57
10, 33916, Note_on_c, 8, 68, 0
10, 35233, Note_on_c, 8, 69, 0
10, 36016, Note_on_c, 8, 67, 58
10, 36024, Note_on_c, 8, 66, 59
10, 36047, Note_on_c, 8, 67, 0
10, 36079, Note_on_c, 8, 65, 59
10, 36109, Note_on_c, 8, 66, 0
10, 36133, Note_on_c, 8, 64, 64
10, 36157, Note_on_c, 8, 65, 0
10, 36368, Note_on_c, 8, 65, 84
10, 36391, Note_on_c, 8, 64, 0
10, 36622, Note_on_c, 8, 65, 0
10, 36640, Note_on_c, 8, 66, 49
10, 36658, Note_on_c, 8, 67, 88
10, 36692, Note_on_c, 8, 66, 0
10, 36850, Note_on_c, 8, 67, 0
10, 36897, Note_on_c, 8, 66, 47
10, 36928, Note_on_c, 8, 67, 72
10, 36980, Note_on_c, 8, 66, 0
10, 37428, Note_on_c, 8, 67, 0
10, 37433, Note_on_c, 8, 68, 49
10, 37459, Note_on_c, 8, 68, 0
10, 37492, Note_on_c, 8, 67, 61
10, 37576, Note_on_c, 8, 67, 0
10, 37591, Note_on_c, 8, 65, 68
10, 38023, Note_on_c, 8, 65, 0
10, 38044, Note_on_c, 8, 64, 54
10, 38461, Note_on_c, 8, 64, 0
10, 38472, Note_on_c, 8, 65, 48
10, 39782, Note_on_c, 8, 65, 0
10, 40738, Note_on_c, 8, 64, 83
10, 40744, Note_on_c, 8, 65, 95
10, 40795, Note_on_c, 8, 64, 0
10, 40989, Note_on_c, 8, 65, 0
10, 41025, Note_on_c, 8, 67, 90
10, 41313, Note_on_c, 8, 64, 74
10, 41314, Note_on_c, 8, 67, 0
10, 41524, Note_on_c, 8, 64, 0
10, 41569, Note_on_c, 8, 65, 65
10, 42745, Note_on_c, 8, 65, 0
10, 43569, Note_on_c, 8, 68, 74
10, 43571, Note_on_c, 8, 69, 90
10, 43614, Note_on_c, 8, 68, 0
10, 43674, Note_on_c, 8, 69, 0
10, 43806, Note_on_c, 8, 68, 73
10, 43809, Note_on_c, 8, 69, 92
10, 43833, Note_on_c, 8, 68, 0
10, 44084, Note_on_c, 8, 62, 71
10, 44117, Note_on_c, 8, 69, 0
10, 44306, Note_on_c, 8, 62, 0
10, 44331, Note_on_c, 8, 64, 63
10, 44536, Note_on_c, 8, 64, 0
10, 44547, Note_on_c, 8, 65, 62
10, 45382, Note_on_c, 8, 65, 0
10, 45653, Note_on_c, 8, 67, 87
10, 45774, Note_on_c, 8, 67, 0
10, 45864, Note_on_c, 8, 68, 83
10, 45890, Note_on_c, 8, 69, 80
10, 45942, Note_on_c, 8, 68, 0
10, 46036, Note_on_c, 8, 69, 0
10, 46124, Note_on_c, 8, 68, 77
10, 46167, Note_on_c, 8, 69, 73
10, 46223, Note_on_c, 8, 68, 0
10, 47552, Note_on_c, 8, 69, 0
10, 48425, Note_on_c, 8, 60, 73
10, 48531, Note_on_c, 8, 60, 0
10, 48665, Note_on_c, 8, 69, 96
10, 48834, Note_on_c, 8, 69, 0
10, 48928, Note_on_c, 8, 70, 93
10, 49071, Note_on_c, 8, 70, 0
10, 49144, Note_on_c, 8, 71, 74
10, 49189, Note_on_c, 8, 72, 77
10, 49227, Note_on_c, 8, 71, 0
10, 50323, Note_on_c, 8, 65, 82
10, 50376, Note_on_c, 8, 72, 0
10, 50678, Note_on_c, 8, 70, 49
10, 50693, Note_on_c, 8, 71, 78
10, 50711, Note_on_c, 8, 65, 0
10, 50743, Note_on_c, 8, 72, 76
10, 50765, Note_on_c, 8, 70, 0
10, 50800, Note_on_c, 8, 71, 0
10, 52782, Note_on_c, 8, 72, 0
10, 52976, Note_on_c, 8, 72, 101
10, 53220, Note_on_c, 8, 72, 0
10, 53247, Note_on_c, 8, 73, 86
10, 53513, Note_on_c, 8, 73, 0
10, 53527, Note_on_c, 8, 75, 79
10, 53544, Note_on_c, 8, 73, 23
10, 53574, Note_on_c, 8, 73, 0
10, 53738, Note_on_c, 8, 75, 0
10, 53788, Note_on_c, 8, 75, 77
10, 55340, Note_on_c, 8, 75, 0
10, 55881, Note_on_c, 8, 68, 77
10, 56091, Note_on_c, 8, 68, 0
10, 56101, Note_on_c, 8, 72, 81
10, 56340, Note_on_c, 8, 72, 0
10, 56365, Note_on_c, 8, 73, 86
10, 56594, Note_on_c, 8, 73, 0
10, 56626, Note_on_c, 8, 75, 83
10, 56833, Note_on_c, 8, 75, 0
10, 56876, Note_on_c, 8, 75, 82
10, 57824, Note_on_c, 8, 75, 0
10, 57833, Note_on_c, 8, 67, 78
10, 58097, Note_on_c, 8, 68, 80
10, 58131, Note_on_c, 8, 67, 0
10, 58377, Note_on_c, 8, 76, 88
10, 58390, Note_on_c, 8, 68, 0
10, 59623, Note_on_c, 8, 76, 0
10, 59681, Note_on_c, 8, 76, 77
10, 59728, Note_on_c, 8, 76, 0
10, 59882, Note_on_c, 8, 77, 89
10, 60873, Note_on_c, 8, 77, 0
10, 60887, Note_on_c, 8, 69, 74
10, 61076, Note_on_c, 8, 69, 0
10, 61130, Note_on_c, 8, 70, 62
10, 61357, Note_on_c, 8, 70, 0
10, 61379, Note_on_c, 8, 79, 71
10, 62968, Note_on_c, 8, 79, 0
10, 64513, Note_on_c, 8, 62, 29
10, 64902, Note_on_c, 8, 62, 0
10, 64905, Note_on_c, 8, 64, 44
10, 65246, Note_on_c, 8, 64, 0
10, 65266, Note_on_c, 8, 65, 39
10, 65640, Note_on_c, 8, 65, 0
10, 65646, Note_on_c, 8, 69, 65
10, 65940, Note_on_c, 8, 69, 0
10, 65950, Note_on_c, 8, 72, 53
10, 69029, Note_on_c, 8, 72, 0
10, 70656, Note_on_c, 8, 64, 46
10, 71062, Note_on_c, 8, 65, 46
10, 71073, Note_on_c, 8, 64, 0
10, 71428, Note_on_c, 8, 65, 0
10, 71445, Note_on_c, 8, 69, 40
10, 71824, Note_on_c, 8, 72, 70
10, 71846, Note_on_c, 8, 69, 0
10, 72182, Note_on_c, 8, 74, 70
10, 72198, Note_on_c, 8, 72, 0
10, 75281, Note_on_c, 8, 74, 0
10, 76789, Note_on_c, 8, 62, 36
10, 77213, Note_on_c, 8, 64, 46
10, 77216, Note_on_c, 8, 62, 0
10, 77557, Note_on_c, 8, 64, 0
10, 77583, Note_on_c, 8, 65, 27
10, 77951, Note_on_c, 8, 65, 0
10, 77962, Note_on_c, 8, 69, 56
10, 78320, Note_on_c, 8, 69, 0
10, 78340, Note_on_c, 8, 72, 39
10, 80944, Note_on_c, 8, 72, 0
10, 82924, Note_on_c, 8, 64, 43
10, 83335, Note_on_c, 8, 65, 47
10, 83346, Note_on_c, 8, 64, 0
10, 83691, Note_on_c, 8, 69, 60
10, 83704, Note_on_c, 8, 65, 0
10, 84057, Note_on_c, 8, 69, 0
10, 84072, Note_on_c, 8, 72, 58
10, 84443, Note_on_c, 8, 72, 0
10, 84449, Note_on_c, 8, 74, 67
10, 87314, Note_on_c, 8, 74, 0
10, 210726, Note_on_c, 8, 72, 42
10, 211466, Note_on_c, 8, 70, 45
10, 211500, Note_on_c, 8, 72, 0
10, 211632, Note_on_c, 8, 70, 0
10, 211667, Note_on_c, 8, 69, 49
10, 211809, Note_on_c, 8, 69, 0
10, 211857, Note_on_c, 8, 70, 46
10, 212994, Note_on_c, 8, 76, 38
10, 213006, Note_on_c, 8, 70, 0
10, 213015, Note_on_c, 8, 77, 80
10, 213042, Note_on_c, 8, 76, 0
10, 213379, Note_on_c, 8, 77, 0
10, 213400, Note_on_c, 8, 70, 43
10, 213762, Note_on_c, 8, 70, 0
10, 213780, Note_on_c, 8, 72, 62
10, 214381, Note_on_c, 8, 69, 78
10, 214388, Note_on_c, 8, 72, 0
10, 214626, Note_on_c, 8, 69, 0
10, 214635, Note_on_c, 8, 67, 57
10, 214916, Note_on_c, 8, 68, 61
10, 214920, Note_on_c, 8, 67, 0
10, 214946, Note_on_c, 8, 69, 62
10, 214972, Note_on_c, 8, 68, 0
10, 216054, Note_on_c, 8, 73, 73
10, 216072, Note_on_c, 8, 69, 0
10, 216087, Note_on_c, 8, 74, 80
10, 216114, Note_on_c, 8, 73, 0
10, 216473, Note_on_c, 8, 74, 0
10, 216482, Note_on_c, 8, 67, 68
10, 216838, Note_on_c, 8, 68, 74
10, 216854, Note_on_c, 8, 67, 0
10, 216861, Note_on_c, 8, 69, 71
10, 216886, Note_on_c, 8, 68, 0
10, 217410, Note_on_c, 8, 69, 0
10, 217430, Note_on_c, 8, 65, 67
10, 217667, Note_on_c, 8, 65, 0
10, 217680, Note_on_c, 8, 64, 65
10, 217951, Note_on_c, 8, 64, 0
10, 217977, Note_on_c, 8, 65, 69
10, 218017, Note_on_c, 8, 65, 0
10, 218359, Note_on_c, 8, 65, 69
10, 219322, Note_on_c, 8, 65, 0
10, 219454, Note_on_c, 8, 60, 1
10, 219524, Note_on_c, 8, 60, 0
10, 219541, Note_on_c, 8, 69, 48
10, 220969, Note_on_c, 8, 69, 0
10, 221652, Note_on_c, 8, 84, 103
10, 221710, Note_on_c, 8, 84, 0
10, 221748, Note_on_c, 8, 81, 73
10, 221792, Note_on_c, 8, 81, 0
10, 221848, Note_on_c, 8, 77, 58
10, 221914, Note_on_c, 8, 77, 0
10, 221950, Note_on_c, 8, 74, 50
10, 222000, Note_on_c, 8, 74, 0
10, 222049, Note_on_c, 8, 73, 35
10, 222075, Note_on_c, 8, 73, 0
10, 222148, Note_on_c, 8, 76, 85
10, 222227, Note_on_c, 8, 76, 0
10, 222229, Note_on_c, 8, 74, 47
10, 222297, Note_on_c, 8, 74, 0
10, 222327, Note_on_c, 8, 69, 63
10, 222355, Note_on_c, 8, 69, 0
10, 222439, Note_on_c, 8, 67, 17
10, 222484, Note_on_c, 8, 67, 0
10, 222518, Note_on_c, 8, 64, 53
10, 222563, Note_on_c, 8, 64, 0
10, 222601, Note_on_c, 8, 72, 60
10, 222671, Note_on_c, 8, 72, 0
10, 222711, Note_on_c, 8, 69, 49
10, 222733, Note_on_c, 8, 69, 0
10, 222785, Note_on_c, 8, 70, 69
10, 222845, Note_on_c, 8, 70, 0
10, 222904, Note_on_c, 8, 66, 38
10, 222934, Note_on_c, 8, 66, 0
10, 222975, Note_on_c, 8, 69, 70
10, 223053, Note_on_c, 8, 69, 0
10, 223082, Note_on_c, 8, 66, 59
10, 223121, Note_on_c, 8, 66, 0
10, 223167, Note_on_c, 8, 67, 71
10, 223253, Note_on_c, 8, 67, 0
10, 223280, Note_on_c, 8, 62, 53
10, 223319, Note_on_c, 8, 62, 0
10, 223389, Note_on_c, 8, 60, 18
10, 223437, Note_on_c, 8, 60, 0
10, 224146, Note_on_c, 8, 60, 76
10, 224155, Note_on_c, 8, 62, 50
10, 224175, Note_on_c, 8, 62, 0
10, 224193, Note_on_c, 8, 60, 0
10, 224244, Note_on_c, 8, 60, 70
10, 224295, Note_on_c, 8, 60, 0
10, 224322, Note_on_c, 8, 58, 37
10, 224357, Note_on_c, 8, 58, 0
10, 224425, Note_on_c, 8, 58, 69
10, 224481, Note_on_c, 8, 58, 0
10, 224523, Note_on_c, 8, 57, 56
10, 224549, Note_on_c, 8, 57, 0
10, 224636, Note_on_c, 8, 57, 51
10, 224669, Note_on_c, 8, 57, 0
10, 224711, Note_on_c, 8, 58, 59
10, 224737, Note_on_c, 8, 58, 0
10, 224816, Note_on_c, 8, 58, 55
10, 224858, Note_on_c, 8, 58, 0
10, 224916, Note_on_c, 8, 62, 46
10, 224951, Note_on_c, 8, 62, 0
10, 225027, Note_on_c, 8, 65, 71
10, 225072, Note_on_c, 8, 65, 0
10, 225122, Note_on_c, 8, 69, 57
10, 225169, Note_on_c, 8, 69, 0
10, 225220, Note_on_c, 8, 70, 69
10, 225258, Note_on_c, 8, 70, 0
10, 225306, Note_on_c, 8, 74, 64
10, 225346, Note_on_c, 8, 74, 0
10, 225412, Note_on_c, 8, 77, 67
10, 225436, Note_on_c, 8, 77, 0
10, 225497, Note_on_c, 8, 81, 59
10, 225546, Note_on_c, 8, 81, 0
10, 225603, Note_on_c, 8, 84, 80
10, 225629, Note_on_c, 8, 84, 0
10, 225697, Note_on_c, 8, 88, 68
10, 225757, Note_on_c, 8, 88, 0
10, 225799, Note_on_c, 8, 91, 95
10, 225883, Note_on_c, 8, 91, 0
10, 225888, Note_on_c, 8, 89, 73
10, 225970, Note_on_c, 8, 89, 0
10, 225999, Note_on_c, 8, 85, 45
10, 226020, Note_on_c, 8, 85, 0
10, 226077, Note_on_c, 8, 88, 79
10, 226150, Note_on_c, 8, 88, 0
10, 226177, Note_on_c, 8, 86, 71
10, 226240, Note_on_c, 8, 86, 0
10, 226267, Note_on_c, 8, 81, 55
10, 226339, Note_on_c, 8, 81, 0
10, 226384, Note_on_c, 8, 79, 48
10, 226438, Note_on_c, 8, 79, 0
10, 226488, Note_on_c, 8, 77, 50
10, 226511, Note_on_c, 8, 77, 0
10, 227582, Note_on_c, 8, 91, 87
10, 227632, Note_on_c, 8, 91, 0
10, 227656, Note_on_c, 8, 88, 58
10, 227675, Note_on_c, 8, 88, 0
10, 227725, Note_on_c, 8, 91, 92
10, 227778, Note_on_c, 8, 88, 61
10, 227797, Note_on_c, 8, 91, 0
10, 227830, Note_on_c, 8, 88, 0
10, 227850, Note_on_c, 8, 84, 65
10, 227882, Note_on_c, 8, 84, 0
10, 227927, Note_on_c, 8, 79, 44
10, 227949, Note_on_c, 8, 79, 0
10, 227971, Note_on_c, 8, 88, 92
10, 228037, Note_on_c, 8, 88, 0
10, 228052, Note_on_c, 8, 84, 55
10, 228072, Note_on_c, 8, 84, 0
10, 228108, Note_on_c, 8, 88, 89
10, 228159, Note_on_c, 8, 84, 71
10, 228182, Note_on_c, 8, 88, 0
10, 228216, Note_on_c, 8, 84, 0
10, 228244, Note_on_c, 8, 81, 45
10, 228269, Note_on_c, 8, 81, 0
10, 228306, Note_on_c, 8, 77, 46
10, 228329, Note_on_c, 8, 77, 0
10, 228359, Note_on_c, 8, 84, 89
10, 228430, Note_on_c, 8, 84, 0
10, 228439, Note_on_c, 8, 81, 54
10, 228460, Note_on_c, 8, 81, 0
10, 228485, Note_on_c, 8, 84, 77
10, 228536, Note_on_c, 8, 81, 63
10, 228556, Note_on_c, 8, 84, 0
10, 228590, Note_on_c, 8, 81, 0
10, 228593, Note_on_c, 8, 77, 56
10, 228621, Note_on_c, 8, 77, 0
10, 228672, Note_on_c, 8, 74, 36
10, 228697, Note_on_c, 8, 74, 0
10, 228736, Note_on_c, 8, 81, 64
10, 228744, Note_on_c, 8, 79, 48
10, 228767, Note_on_c, 8, 79, 0
10, 228907, Note_on_c, 8, 77, 64
10, 228920, Note_on_c, 8, 81, 0
10, 229005, Note_on_c, 8, 77, 0
10, 229125, Note_on_c, 8, 74, 77
10, 229177, Note_on_c, 8, 74, 0
10, 229318, Note_on_c, 8, 70, 60
10, 229390, Note_on_c, 8, 70, 0
10, 229512, Note_on_c, 8, 69, 57
10, 229554, Note_on_c, 8, 69, 0
10, 229616, Note_on_c, 8, 70, 58
10, 229655, Note_on_c, 8, 70, 0
10, 229704, Note_on_c, 8, 72, 62
10, 229755, Note_on_c, 8, 72, 0
10, 229811, Note_on_c, 8, 69, 71
10, 229860, Note_on_c, 8, 69, 0
10, 229903, Note_on_c, 8, 65, 36
10, 229967, Note_on_c, 8, 65, 0
10, 230010, Note_on_c, 8, 65, 60
10, 230053, Note_on_c, 8, 65, 0
10, 230667, Note_on_c, 8, 69, 91
10, 230726, Note_on_c, 8, 69, 0
10, 230782, Note_on_c, 8, 65, 31
10, 230831, Note_on_c, 8, 65, 0
10, 230864, Note_on_c, 8, 67, 36
10, 230920, Note_on_c, 8, 67, 0
10, 230962, Note_on_c, 8, 69, 63
10, 231023, Note_on_c, 8, 69, 0
10, 231060, Note_on_c, 8, 70, 52
10, 231109, Note_on_c, 8, 70, 0
10, 231162, Note_on_c, 8, 72, 60
10, 231220, Note_on_c, 8, 72, 0
10, 231257, Note_on_c, 8, 79, 84
10, 231351, Note_on_c, 8, 79, 0
10, 231356, Note_on_c, 8, 78, 60
10, 231441, Note_on_c, 8, 73, 56
10, 231444, Note_on_c, 8, 78, 0
10, 231532, Note_on_c, 8, 72, 58
10, 231533, Note_on_c, 8, 73, 0
10, 231586, Note_on_c, 8, 72, 0
10, 231626, Note_on_c, 8, 77, 80
10, 231716, Note_on_c, 8, 77, 0
10, 231780, Note_on_c, 8, 73, 33
10, 231879, Note_on_c, 8, 73, 0
10, 231933, Note_on_c, 8, 76, 79
10, 232009, Note_on_c, 8, 76, 0
10, 232139, Note_on_c, 8, 74, 84
10, 232198, Note_on_c, 8, 74, 0
10, 232229, Note_on_c, 8, 72, 48
10, 232298, Note_on_c, 8, 72, 0
10, 232324, Note_on_c, 8, 69, 60
10, 232362, Note_on_c, 8, 69, 0
10, 232404, Note_on_c, 8, 67, 50
10, 232485, Note_on_c, 8, 67, 0
10, 232511, Note_on_c, 8, 65, 53
10, 232550, Note_on_c, 8, 65, 0
10, 232609, Note_on_c, 8, 69, 49
10, 232615, Note_on_c, 8, 67, 61
10, 232649, Note_on_c, 8, 69, 0
10, 232652, Note_on_c, 8, 67, 0
10, 232721, Note_on_c, 8, 69, 54
10, 232781, Note_on_c, 8, 69, 0
10, 232986, Note_on_c, 8, 65, 11
10, 233031, Note_on_c, 8, 66, 73
10, 233036, Note_on_c, 8, 65, 0
10, 233053, Note_on_c, 8, 67, 64
10, 233075, Note_on_c, 8, 66, 0
10, 233120, Note_on_c, 8, 67, 0
10, 233170, Note_on_c, 8, 67, 65
10, 233238, Note_on_c, 8, 67, 0
10, 233275, Note_on_c, 8, 65, 57
10, 233306, Note_on_c, 8, 65, 0
10, 233390, Note_on_c, 8, 66, 64
10, 233421, Note_on_c, 8, 67, 64
10, 233446, Note_on_c, 8, 66, 0
10, 233487, Note_on_c, 8, 67, 0
10, 233555, Note_on_c, 8, 66, 51
10, 233575, Note_on_c, 8, 67, 76
10, 233589, Note_on_c, 8, 66, 0
10, 233653, Note_on_c, 8, 67, 0
10, 234049, Note_on_c, 8, 65, 56
10, 234070, Note_on_c, 8, 65, 0
10, 234152, Note_on_c, 8, 66, 83
10, 234176, Note_on_c, 8, 67, 69
10, 234198, Note_on_c, 8, 66, 0
10, 234249, Note_on_c, 8, 67, 0
10, 234302, Note_on_c, 8, 66, 74
10, 234341, Note_on_c, 8, 67, 68
10, 234368, Note_on_c, 8, 66, 0
10, 234423, Note_on_c, 8, 67, 0
10, 234450, Note_on_c, 8, 65, 68
10, 234488, Note_on_c, 8, 65, 0
10, 234546, Note_on_c, 8, 67, 72
10, 234613, Note_on_c, 8, 67, 0
10, 234701, Note_on_c, 8, 65, 68
10, 234773, Note_on_c, 8, 65, 0
10, 234825, Note_on_c, 8, 64, 66
10, 234883, Note_on_c, 8, 64, 0
10, 234937, Note_on_c, 8, 61, 62
10, 235001, Note_on_c, 8, 61, 0
10, 235045, Note_on_c, 8, 64, 68
10, 235123, Note_on_c, 8, 64, 0
10, 235145, Note_on_c, 8, 61, 67
10, 235191, Note_on_c, 8, 61, 0
10, 235245, Note_on_c, 8, 62, 62
10, 235295, Note_on_c, 8, 62, 0
10, 235331, Note_on_c, 8, 57, 58
10, 235389, Note_on_c, 8, 57, 0
10, 235437, Note_on_c, 8, 57, 55
10, 235489, Note_on_c, 8, 57, 0
10, 236422, Note_on_c, 8, 58, 68
10, 236442, Note_on_c, 8, 57, 82
10, 236462, Note_on_c, 8, 58, 0
10, 236780, Note_on_c, 8, 57, 0
10, 236802, Note_on_c, 8, 55, 51
10, 236872, Note_on_c, 8, 55, 0
10, 236910, Note_on_c, 8, 57, 56
10, 236937, Note_on_c, 8, 57, 0
10, 237018, Note_on_c, 8, 58, 37
10, 237079, Note_on_c, 8, 58, 0
10, 237391, Note_on_c, 8, 58, 72
10, 237453, Note_on_c, 8, 58, 0
10, 237481, Note_on_c, 8, 57, 60
10, 237518, Note_on_c, 8, 57, 0
10, 237595, Note_on_c, 8, 58, 51
10, 237651, Note_on_c, 8, 58, 0
10, 237683, Note_on_c, 8, 60, 57
10, 237718, Note_on_c, 8, 60, 0
10, 237770, Note_on_c, 8, 62, 48
10, 237795, Note_on_c, 8, 62, 0
10, 238349, Note_on_c, 8, 60, 80
10, 238410, Note_on_c, 8, 60, 0
10, 238450, Note_on_c, 8, 57, 58
10, 238501, Note_on_c, 8, 57, 0
10, 238536, Note_on_c, 8, 58, 44
10, 238584, Note_on_c, 8, 58, 0
10, 238633, Note_on_c, 8, 62, 56
10, 238688, Note_on_c, 8, 62, 0
10, 238725, Note_on_c, 8, 65, 51
10, 238761, Note_on_c, 8, 65, 0
10, 238835, Note_on_c, 8, 69, 69
10, 238880, Note_on_c, 8, 69, 0
10, 238939, Note_on_c, 8, 72, 92
10, 238993, Control_c, 8, 1, 4
10, 238996, Control_c, 8, 1, 7
10, 238998, Control_c, 8, 1, 10
10, 239000, Control_c, 8, 1, 13
10, 239002, Control_c, 8, 1, 17
10, 239005, Control_c, 8, 1, 20
10, 239007, Control_c, 8, 1, 23
10, 239009, Control_c, 8, 1, 26
10, 239010, Control_c, 8, 1, 29
10, 239012, Control_c, 8, 1, 32
10, 239016, Control_c, 8, 1, 34
10, 239018, Control_c, 8, 1, 37
10, 239019, Control_c, 8, 1, 40
10, 239021, Control_c, 8, 1, 42
10, 239024, Control_c, 8, 1, 45
10, 239026, Control_c, 8, 1, 48
10, 239028, Control_c, 8, 1, 51
10, 239030, Control_c, 8, 1, 54
10, 239033, Control_c, 8, 1, 56
10, 239034, Control_c, 8, 1, 60
10, 239036, Control_c, 8, 1, 62
10, 239039, Control_c, 8, 1, 65
10, 239041, Control_c, 8, 1, 68
10, 239043, Control_c, 8, 1, 70
10, 239046, Control_c, 8, 1, 73
10, 239048, Control_c, 8, 1, 76
10, 239049, Control_c, 8, 1, 78
10, 239052, Control_c, 8, 1, 80
10, 239053, Control_c, 8, 1, 83
10, 239056, Control_c, 8, 1, 85
10, 239058, Control_c, 8, 1, 88
10, 239060, Control_c, 8, 1, 90
10, 239063, Control_c, 8, 1, 93
10, 239064, Control_c, 8, 1, 95
10, 239066, Control_c, 8, 1, 97
10, 239069, Control_c, 8, 1, 100
10, 239071, Control_c, 8, 1, 102
10, 239073, Control_c, 8, 1, 103
10, 239075, Control_c, 8, 1, 106
10, 239077, Control_c, 8, 1, 108
10, 239079, Control_c, 8, 1, 110
10, 239081, Control_c, 8, 1, 112
10, 239084, Control_c, 8, 1, 113
10, 239086, Control_c, 8, 1, 115
10, 239088, Control_c, 8, 1, 116
10, 239090, Control_c, 8, 1, 118
10, 239092, Control_c, 8, 1, 120
10, 239094, Control_c, 8, 1, 121
10, 239096, Control_c, 8, 1, 122
10, 239098, Control_c, 8, 1, 123
10, 239100, Control_c, 8, 1, 125
10, 239102, Control_c, 8, 1, 126
10, 239108, Control_c, 8, 1, 127
10, 239199, Control_c, 8, 1, 122
10, 239201, Control_c, 8, 1, 119
10, 239204, Control_c, 8, 1, 115
10, 239206, Control_c, 8, 1, 111
10, 239208, Control_c, 8, 1, 107
10, 239211, Control_c, 8, 1, 103
10, 239213, Control_c, 8, 1, 98
10, 239215, Control_c, 8, 1, 93
10, 239216, Control_c, 8, 1, 88
10, 239219, Control_c, 8, 1, 83
10, 239221, Control_c, 8, 1, 77
10, 239223, Control_c, 8, 1, 71
10, 239226, Control_c, 8, 1, 65
10, 239228, Control_c, 8, 1, 59
10, 239230, Control_c, 8, 1, 53
10, 239232, Control_c, 8, 1, 46
10, 239235, Note_off_c, 8, 72, 0
10, 239236, Control_c, 8, 1, 38
10, 239237, Control_c, 8, 1, 31
10, 239240, Control_c, 8, 1, 21
10, 239242, Control_c, 8, 1, 13
10, 239244, Control_c, 8, 1, 5
10, 239246, Control_c, 8, 1, 1
10, 239271, Note_on_c, 8, 69, 68
10, 239321, Note_on_c, 8, 69, 0
10, 239404, Note_on_c, 8, 65, 35
10, 239428, Note_on_c, 8, 65, 0
10, 239870, Note_on_c, 8, 77, 95
10, 239975, Pitch_bend_c, 8, 8192
10, 239977, Pitch_bend_c, 8, 8192
10, 239980, Pitch_bend_c, 8, 8192
10, 239983, Pitch_bend_c, 8, 8712
10, 239987, Pitch_bend_c, 8, 8972
10, 239992, Pitch_bend_c, 8, 9232
10, 239996, Pitch_bend_c, 8, 9622
10, 240000, Pitch_bend_c, 8, 10012
10, 240004, Pitch_bend_c, 8, 10272
10, 240008, Pitch_bend_c, 8, 10662
10, 240012, Pitch_bend_c, 8, 10792
10, 240016, Pitch_bend_c, 8, 11052
10, 240021, Pitch_bend_c, 8, 11442
10, 240024, Pitch_bend_c, 8, 11572
10, 240028, Pitch_bend_c, 8, 11702
10, 240054, Pitch_bend_c, 8, 11442
10, 240058, Pitch_bend_c, 8, 11312
10, 240062, Pitch_bend_c, 8, 11052
10, 240066, Pitch_bend_c, 8, 10792
10, 240071, Pitch_bend_c, 8, 10662
10, 240074, Pitch_bend_c, 8, 10272
10, 240079, Pitch_bend_c, 8, 10012
10, 240083, Pitch_bend_c, 8, 9752
10, 240087, Pitch_bend_c, 8, 9362
10, 240090, Pitch_bend_c, 8, 8972
10, 240095, Pitch_bend_c, 8, 8712
10, 240099, Pitch_bend_c, 8, 8192
10, 240101, Pitch_bend_c, 8, 8192
10, 240412, Note_off_c, 8, 77, 0
10, 240437, Note_on_c, 8, 74, 57
10, 240489, Note_on_c, 8, 74, 0
10, 240539, Note_on_c, 8, 70, 44
10, 240589, Note_on_c, 8, 70, 0
10, 240632, Note_on_c, 8, 74, 70
10, 240705, Note_on_c, 8, 74, 0
10, 240743, Note_on_c, 8, 72, 42
10, 240775, Note_on_c, 8, 72, 0
10, 240827, Note_on_c, 8, 69, 46
10, 240875, Note_on_c, 8, 69, 0
10, 241511, Note_on_c, 8, 72, 80
10, 241566, Note_on_c, 8, 72, 0
10, 241592, Note_on_c, 8, 70, 42
10, 241668, Note_on_c, 8, 70, 0
10, 241695, Note_on_c, 8, 66, 55
10, 241736, Note_on_c, 8, 66, 0
10, 241790, Note_on_c, 8, 69, 72
10, 241866, Note_on_c, 8, 69, 0
10, 241893, Note_on_c, 8, 66, 53
10, 241938, Note_on_c, 8, 66, 0
10, 241987, Note_on_c, 8, 67, 68
10, 242055, Note_on_c, 8, 67, 0
10, 242088, Note_on_c, 8, 62, 48
10, 242159, Note_on_c, 8, 62, 0
10, 243053, Note_on_c, 8, 70, 87
10, 243094, Note_on_c, 8, 70, 0
10, 243133, Note_on_c, 8, 70, 71
10, 243217, Note_on_c, 8, 70, 0
10, 243238, Note_on_c, 8, 69, 66
10, 243302, Note_on_c, 8, 69, 0
10, 243332, Note_on_c, 8, 67, 39
10, 243363, Note_on_c, 8, 67, 0
10, 243437, Note_on_c, 8, 70, 79
10, 243475, Note_on_c, 8, 70, 0
10, 243524, Note_on_c, 8, 70, 68
10, 243594, Note_on_c, 8, 70, 0
10, 243629, Note_on_c, 8, 69, 60
10, 243695, Note_on_c, 8, 69, 0
10, 243724, Note_on_c, 8, 67, 28
10, 243764, Note_on_c, 8, 67, 0
10, 243819, Note_on_c, 8, 70, 77
10, 243884, Note_on_c, 8, 70, 0
10, 243905, Note_on_c, 8, 69, 59
10, 243981, Note_on_c, 8, 69, 0
10, 244016, Note_on_c, 8, 67, 48
10, 244041, Note_on_c, 8, 67, 0
10, 244102, Note_on_c, 8, 74, 78
10, 244162, Note_on_c, 8, 74, 0
10, 244289, Note_on_c, 8, 72, 83
10, 244401, Note_on_c, 8, 72, 0
10, 244476, Note_on_c, 8, 69, 71
10, 244552, Note_on_c, 8, 69, 0
10, 244575, Note_on_c, 8, 67, 62
10, 244641, Note_on_c, 8, 67, 0
10, 244658, Note_on_c, 8, 65, 41
10, 244756, Note_on_c, 8, 65, 0
10, 244841, Note_on_c, 8, 64, 48
10, 245423, Note_on_c, 8, 64, 0
10, 245430, Note_on_c, 8, 62, 42
10, 245512, Note_on_c, 8, 62, 0
10, 245545, Note_on_c, 8, 61, 51
10, 245597, Note_on_c, 8, 61, 0
10, 245631, Note_on_c, 8, 64, 66
10, 245720, Note_on_c, 8, 64, 0
10, 245731, Note_on_c, 8, 61, 51
10, 245791, Note_on_c, 8, 61, 0
10, 245826, Note_on_c, 8, 62, 54
10, 245894, Note_on_c, 8, 62, 0
10, 245931, Note_on_c, 8, 57, 51
10, 245975, Note_on_c, 8, 57, 0
10, 246022, Note_on_c, 8, 57, 46
10, 246080, Note_on_c, 8, 57, 0
10, 246190, Note_on_c, 8, 57, 56
10, 246260, Note_on_c, 8, 57, 0
10, 246392, Note_on_c, 8, 57, 71
10, 246442, Note_on_c, 8, 57, 0
10, 246581, Note_on_c, 8, 57, 69
10, 246638, Note_on_c, 8, 57, 0
10, 246776, Note_on_c, 8, 57, 69
10, 246851, Note_on_c, 8, 57, 0
10, 246876, Note_on_c, 8, 55, 62
10, 246946, Note_on_c, 8, 55, 0
10, 246975, Note_on_c, 8, 53, 49
10, 247120, Note_on_c, 8, 53, 0
10, 247364, Note_on_c, 8, 58, 68
10, 247410, Note_on_c, 8, 58, 0
10, 247545, Note_on_c, 8, 58, 69
10, 247615, Note_on_c, 8, 58, 0
10, 247643, Note_on_c, 8, 57, 57
10, 247716, Note_on_c, 8, 57, 0
10, 247730, Note_on_c, 8, 55, 53
10, 247833, Note_on_c, 8, 55, 0
10, 247939, Note_on_c, 8, 60, 68
10, 247985, Note_on_c, 8, 60, 0
10, 248110, Note_on_c, 8, 60, 65
10, 248184, Note_on_c, 8, 60, 0
10, 248207, Note_on_c, 8, 58, 50
10, 248274, Note_on_c, 8, 58, 0
10, 248305, Note_on_c, 8, 57, 50
10, 248403, Note_on_c, 8, 57, 0
10, 248507, Note_on_c, 8, 62, 57
10, 248582, Note_on_c, 8, 62, 0
10, 249093, Note_on_c, 8, 64, 65
10, 249094, Note_on_c, 8, 63, 37
10, 249094, Note_on_c, 8, 62, 56
10, 249126, Note_on_c, 8, 63, 0
10, 249133, Note_on_c, 8, 64, 0
10, 249152, Note_on_c, 8, 62, 0
10, 249179, Note_on_c, 8, 60, 67
10, 249243, Note_on_c, 8, 60, 0
10, 249263, Note_on_c, 8, 58, 57
10, 249324, Note_on_c, 8, 58, 0
10, 249371, Note_on_c, 8, 67, 80
10, 249431, Note_on_c, 8, 67, 0
10, 249452, Note_on_c, 8, 65, 55
10, 249513, Note_on_c, 8, 65, 0
10, 249557, Note_on_c, 8, 62, 53
10, 249591, Note_on_c, 8, 62, 0
10, 249676, Note_on_c, 8, 74, 90
10, 249741, Note_on_c, 8, 74, 0
10, 249946, Note_on_c, 8, 72, 80
10, 250005, Note_on_c, 8, 72, 0
10, 250140, Note_on_c, 8, 68, 78
10, 250173, Note_on_c, 8, 68, 0
10, 250254, Note_on_c, 8, 68, 69
10, 250288, Note_on_c, 8, 69, 58
10, 250318, Note_on_c, 8, 68, 0
10, 250376, Note_on_c, 8, 69, 0
10, 250423, Note_on_c, 8, 67, 61
10, 250475, Note_on_c, 8, 67, 0
10, 250567, Note_on_c, 8, 65, 54
10, 250620, Note_on_c, 8, 65, 0
10, 250746, Note_on_c, 8, 64, 58
10, 250790, Note_on_c, 8, 64, 0
10, 250928, Note_on_c, 8, 62, 64
10, 250970, Note_on_c, 8, 62, 0
10, 251666, Note_on_c, 8, 68, 84
10, 251702, Note_on_c, 8, 68, 0
10, 251780, Note_on_c, 8, 68, 82
10, 251820, Note_on_c, 8, 69, 68
10, 251855, Note_on_c, 8, 68, 0
10, 251896, Note_on_c, 8, 69, 0
10, 251970, Note_on_c, 8, 67, 74
10, 252017, Note_on_c, 8, 67, 0
10, 252095, Note_on_c, 8, 65, 75
10, 252142, Note_on_c, 8, 65, 0
10, 252257, Note_on_c, 8, 64, 74
10, 252298, Note_on_c, 8, 64, 0
10, 252404, Note_on_c, 8, 61, 68
10, 252428, Note_on_c, 8, 61, 0
10, 252578, Note_on_c, 8, 64, 85
10, 252637, Note_on_c, 8, 64, 0
10, 252742, Note_on_c, 8, 61, 42
10, 252762, Note_on_c, 8, 61, 0
10, 252821, Note_on_c, 8, 62, 71
10, 252877, Note_on_c, 8, 62, 0
10, 252883, Note_on_c, 8, 59, 64
10, 252918, Note_on_c, 8, 59, 0
10, 253603, Note_on_c, 8, 57, 67
10, 253641, Note_on_c, 8, 57, 0
10, 253684, Note_on_c, 8, 58, 51
10, 253738, Note_on_c, 8, 58, 0
10, 253780, Note_on_c, 8, 62, 66
10, 253831, Note_on_c, 8, 62, 0
10, 253865, Note_on_c, 8, 65, 60
10, 253928, Note_on_c, 8, 65, 0
10, 253981, Note_on_c, 8, 69, 63
10, 253987, Note_on_c, 8, 71, 50
10, 254019, Note_on_c, 8, 71, 0
10, 254043, Note_on_c, 8, 69, 0
10, 254060, Note_on_c, 8, 70, 67
10, 254120, Note_on_c, 8, 70, 0
10, 254169, Note_on_c, 8, 74, 78
10, 254235, Note_on_c, 8, 74, 0
10, 254262, Note_on_c, 8, 77, 66
10, 254319, Note_on_c, 8, 77, 0
10, 254366, Note_on_c, 8, 81, 72
10, 254423, Note_on_c, 8, 81, 0
10, 254460, Note_on_c, 8, 82, 60
10, 254511, Note_on_c, 8, 82, 0
10, 254564, Note_on_c, 8, 89, 89
10, 254996, Note_on_c, 8, 89, 0
10, 255030, Note_on_c, 8, 86, 71
10, 255096, Note_on_c, 8, 86, 0
10, 255225, Note_on_c, 8, 82, 67
10, 255263, Control_c, 8, 1, 4
10, 255265, Control_c, 8, 1, 6
10, 255268, Control_c, 8, 1, 8
10, 255270, Control_c, 8, 1, 10
10, 255271, Control_c, 8, 1, 11
10, 255274, Control_c, 8, 1, 13
10, 255276, Control_c, 8, 1, 16
10, 255278, Control_c, 8, 1, 18
10, 255280, Control_c, 8, 1, 20
10, 255283, Control_c, 8, 1, 22
10, 255285, Control_c, 8, 1, 25
10, 255286, Control_c, 8, 1, 28
10, 255288, Control_c, 8, 1, 31
10, 255291, Control_c, 8, 1, 34
10, 255293, Control_c, 8, 1, 36
10, 255295, Control_c, 8, 1, 39
10, 255297, Control_c, 8, 1, 42
10, 255299, Control_c, 8, 1, 45
10, 255302, Control_c, 8, 1, 48
10, 255304, Control_c, 8, 1, 51
10, 255305, Control_c, 8, 1, 54
10, 255309, Control_c, 8, 1, 57
10, 255310, Control_c, 8, 1, 61
10, 255312, Control_c, 8, 1, 64
10, 255314, Control_c, 8, 1, 67
10, 255317, Control_c, 8, 1, 71
10, 255319, Control_c, 8, 1, 74
10, 255321, Control_c, 8, 1, 77
10, 255323, Control_c, 8, 1, 80
10, 255326, Control_c, 8, 1, 84
10, 255327, Control_c, 8, 1, 87
10, 255329, Control_c, 8, 1, 90
10, 255332, Control_c, 8, 1, 94
10, 255334, Control_c, 8, 1, 96
10, 255336, Control_c, 8, 1, 99
10, 255338, Control_c, 8, 1, 102
10, 255340, Control_c, 8, 1, 105
10, 255343, Control_c, 8, 1, 109
10, 255344, Control_c, 8, 1, 112
10, 255346, Control_c, 8, 1, 115
10, 255349, Control_c, 8, 1, 117
10, 255351, Control_c, 8, 1, 120
10, 255353, Control_c, 8, 1, 123
10, 255355, Control_c, 8, 1, 126
10, 255358, Control_c, 8, 1, 127
10, 255427, Control_c, 8, 1, 123
10, 255428, Control_c, 8, 1, 120
10, 255431, Control_c, 8, 1, 117
10, 255433, Control_c, 8, 1, 114
10, 255435, Control_c, 8, 1, 110
10, 255437, Control_c, 8, 1, 105
10, 255440, Control_c, 8, 1, 101
10, 255442, Control_c, 8, 1, 96
10, 255444, Control_c, 8, 1, 91
10, 255446, Control_c, 8, 1, 85
10, 255449, Control_c, 8, 1, 80
10, 255451, Control_c, 8, 1, 74
10, 255452, Control_c, 8, 1, 67
10, 255455, Control_c, 8, 1, 60
10, 255457, Control_c, 8, 1, 53
10, 255459, Note_off_c, 8, 82, 0
10, 255459, Control_c, 8, 1, 45
10, 255463, Control_c, 8, 1, 37
10, 255466, Control_c, 8, 1, 28
10, 255467, Control_c, 8, 1, 19
10, 255469, Control_c, 8, 1, 10
10, 255472, Control_c, 8, 1, 2
10, 255474, Control_c, 8, 1, 0
10, 255537, Note_on_c, 8, 81, 66
10, 255569, Note_on_c, 8, 81, 0
10, 255778, Note_on_c, 8, 84, 92
10, 255803, Pitch_bend_c, 8, 8192
10, 255807, Pitch_bend_c, 8, 8712
10, 255811, Pitch_bend_c, 8, 9102
10, 255816, Pitch_bend_c, 8, 9622
10, 255819, Pitch_bend_c, 8, 10012
10, 255824, Pitch_bend_c, 8, 10532
10, 255827, Pitch_bend_c, 8, 11052
10, 255832, Pitch_bend_c, 8, 11572
10, 255835, Pitch_bend_c, 8, 12092
10, 255840, Pitch_bend_c, 8, 12482
10, 255844, Pitch_bend_c, 8, 12872
10, 255848, Pitch_bend_c, 8, 13262
10, 255852, Pitch_bend_c, 8, 13652
10, 255856, Pitch_bend_c, 8, 14042
10, 255860, Pitch_bend_c, 8, 14302
10, 255864, Pitch_bend_c, 8, 14562
10, 255868, Pitch_bend_c, 8, 14822
10, 255872, Pitch_bend_c, 8, 15082
10, 255876, Pitch_bend_c, 8, 15212
10, 255881, Pitch_bend_c, 8, 15342
10, 255884, Pitch_bend_c, 8, 15472
10, 255891, Pitch_bend_c, 8, 15602
10, 255897, Pitch_bend_c, 8, 15732
10, 255900, Pitch_bend_c, 8, 15862
10, 255932, Pitch_bend_c, 8, 15732
10, 255936, Pitch_bend_c, 8, 15602
10, 255941, Pitch_bend_c, 8, 15342
10, 255945, Pitch_bend_c, 8, 15082
10, 255949, Pitch_bend_c, 8, 14432
10, 255953, Pitch_bend_c, 8, 13912
10, 255957, Pitch_bend_c, 8, 12742
10, 255961, Pitch_bend_c, 8, 10922
10, 255965, Pitch_bend_c, 8, 8972
10, 255969, Pitch_bend_c, 8, 8192
10, 256214, Note_on_c, 8, 82, 71
10, 256221, Note_on_c, 8, 84, 0
10, 256291, Note_on_c, 8, 82, 0
10, 256331, Note_on_c, 8, 78, 49
10, 256358, Note_on_c, 8, 78, 0
10, 256419, Note_on_c, 8, 81, 72
10, 256531, Note_on_c, 8, 81, 0
10, 256581, Note_on_c, 8, 79, 57
10, 256655, Note_on_c, 8, 79, 0
10, 256699, Note_on_c, 8, 74, 48
10, 256764, Note_on_c, 8, 74, 0
10, 257088, Note_on_c, 8, 73, 46
10, 257113, Note_on_c, 8, 73, 0
10, 257166, Note_on_c, 8, 76, 73
10, 257249, Note_on_c, 8, 76, 0
10, 257266, Note_on_c, 8, 73, 56
10, 257309, Note_on_c, 8, 73, 0
10, 257359, Note_on_c, 8, 74, 68
10, 257433, Note_on_c, 8, 74, 0
10, 257465, Note_on_c, 8, 69, 52
10, 257527, Note_on_c, 8, 69, 0
10, 257549, Note_on_c, 8, 67, 60
10, 257622, Note_on_c, 8, 67, 0
10, 258294, Note_on_c, 8, 67, 71
10, 258318, Note_on_c, 8, 67, 0
10, 258367, Note_on_c, 8, 67, 52
10, 258405, Note_on_c, 8, 67, 0
10, 258524, Note_on_c, 8, 67, 74
10, 258556, Note_on_c, 8, 67, 0
10, 258881, Note_on_c, 8, 66, 60
10, 258881, Note_on_c, 8, 67, 76
10, 258901, Note_on_c, 8, 66, 0
10, 258925, Note_on_c, 8, 67, 0
10, 259165, Note_on_c, 8, 66, 80
10, 259175, Note_on_c, 8, 67, 73
10, 259213, Note_on_c, 8, 66, 0
10, 259247, Note_on_c, 8, 67, 0
10, 259356, Note_on_c, 8, 66, 77
10, 259372, Note_on_c, 8, 67, 60
10, 259403, Note_on_c, 8, 66, 0
10, 259427, Note_on_c, 8, 67, 0
10, 259477, Note_on_c, 8, 66, 69
10, 259501, Note_on_c, 8, 67, 65
10, 259527, Note_on_c, 8, 66, 0
10, 259582, Note_on_c, 8, 67, 0
10, 259654, Note_on_c, 8, 65, 54
10, 259691, Note_on_c, 8, 65, 0
10, 259775, Note_on_c, 8, 62, 38
10, 259822, Note_on_c, 8, 62, 0
10, 260996, Note_on_c, 8, 55, 35
10, 261020, Note_on_c, 8, 55, 0
10, 261096, Note_on_c, 8, 60, 51
10, 261143, Note_on_c, 8, 60, 0
10, 261181, Note_on_c, 8, 65, 66
10, 261242, Note_on_c, 8, 65, 0
10, 261296, Note_on_c, 8, 60, 49
10, 261341, Note_on_c, 8, 60, 0
10, 261386, Note_on_c, 8, 65, 46
10, 261452, Note_on_c, 8, 65, 0
10, 261483, Note_on_c, 8, 70, 72
10, 261550, Note_on_c, 8, 70, 0
10, 261573, Note_on_c, 8, 65, 42
10, 261653, Note_on_c, 8, 65, 0
10, 261682, Note_on_c, 8, 70, 62
10, 261756, Note_on_c, 8, 70, 0
10, 261759, Note_on_c, 8, 75, 49
10, 261840, Note_on_c, 8, 75, 0
10, 261868, Note_on_c, 8, 72, 57
10, 261926, Note_on_c, 8, 72, 0
10, 261969, Note_on_c, 8, 77, 54
10, 262056, Note_on_c, 8, 82, 72
10, 262058, Note_on_c, 8, 77, 0
10, 262117, Note_on_c, 8, 82, 0
10, 262144, Note_on_c, 8, 84, 88
10, 262219, Note_on_c, 8, 84, 0
10, 262258, Note_on_c, 8, 80, 49
10, 262302, Note_on_c, 8, 80, 0
10, 262335, Note_on_c, 8, 81, 64
10, 262422, Note_on_c, 8, 81, 0
10, 262432, Note_on_c, 8, 77, 72
10, 262505, Note_on_c, 8, 77, 0
10, 262529, Note_on_c, 8, 76, 34
10, 262634, Note_on_c, 8, 76, 0
10, 262640, Note_on_c, 8, 74, 68
10, 262659, Note_on_c, 8, 74, 0
10, 262712, Note_on_c, 8, 79, 76
10, 262791, Note_on_c, 8, 79, 0
10, 262844, Note_on_c, 8, 73, 37
10, 262865, Note_on_c, 8, 73, 0
10, 262916, Note_on_c, 8, 77, 62
10, 263005, Note_on_c, 8, 77, 0
10, 263026, Note_on_c, 8, 73, 56
10, 263068, Note_on_c, 8, 73, 0
10, 263115, Note_on_c, 8, 76, 71
10, 263195, Note_on_c, 8, 76, 0
10, 263206, Note_on_c, 8, 73, 50
10, 263251, Note_on_c, 8, 73, 0
10, 263314, Note_on_c, 8, 74, 54
10, 263373, Note_on_c, 8, 74, 0
10, 263406, Note_on_c, 8, 69, 47
10, 263436, Note_on_c, 8, 69, 0
10, 263486, Note_on_c, 8, 69, 41
10, 263532, Note_on_c, 8, 69, 0
10, 263583, Note_on_c, 8, 69, 55
10, 263633, Note_on_c, 8, 69, 0
10, 263686, Note_on_c, 8, 69, 60
10, 263734, Note_on_c, 8, 69, 0
10, 263783, Note_on_c, 8, 69, 57
10, 263824, Note_on_c, 8, 69, 0
10, 263871, Note_on_c, 8, 69, 64
10, 263929, Note_on_c, 8, 69, 0
10, 264536, Note_on_c, 8, 68, 78
10, 264565, Note_on_c, 8, 69, 66
10, 264592, Note_on_c, 8, 68, 0
10, 264634, Note_on_c, 8, 69, 0
10, 264678, Note_on_c, 8, 69, 77
10, 264751, Note_on_c, 8, 69, 0
10, 264815, Note_on_c, 8, 68, 71
10, 264851, Note_on_c, 8, 69, 71
10, 264884, Note_on_c, 8, 68, 0
10, 264929, Note_on_c, 8, 69, 0
10, 264983, Note_on_c, 8, 69, 62
10, 265057, Note_on_c, 8, 69, 0
10, 265127, Note_on_c, 8, 69, 77
10, 265185, Note_on_c, 8, 69, 0
10, 265255, Note_on_c, 8, 76, 90
10, 265344, Note_on_c, 8, 76, 0
10, 265409, Note_on_c, 8, 68, 68
10, 265428, Note_on_c, 8, 68, 0
10, 265466, Note_on_c, 8, 69, 14
10, 265534, Note_on_c, 8, 69, 0
10, 265983, Note_on_c, 8, 69, 87
10, 266002, Note_on_c, 8, 70, 68
10, 266024, Note_on_c, 8, 69, 0
10, 266067, Note_on_c, 8, 70, 0
10, 266133, Note_on_c, 8, 70, 74
10, 266200, Note_on_c, 8, 70, 0
10, 266294, Note_on_c, 8, 69, 66
10, 266298, Note_on_c, 8, 70, 69
10, 266314, Note_on_c, 8, 69, 0
10, 266333, Note_on_c, 8, 70, 0
10, 266421, Note_on_c, 8, 69, 82
10, 266433, Note_on_c, 8, 70, 79
10, 266463, Note_on_c, 8, 69, 0
10, 266504, Note_on_c, 8, 70, 0
10, 266563, Note_on_c, 8, 70, 74
10, 266614, Note_on_c, 8, 70, 0
10, 266678, Note_on_c, 8, 70, 74
10, 266717, Note_on_c, 8, 70, 0
10, 266776, Note_on_c, 8, 77, 82
10, 266873, Note_on_c, 8, 77, 0
10, 267475, Note_on_c, 8, 69, 71
10, 267501, Note_on_c, 8, 70, 80
10, 267516, Note_on_c, 8, 69, 0
10, 267556, Note_on_c, 8, 70, 0
10, 267636, Note_on_c, 8, 70, 81
10, 267690, Note_on_c, 8, 70, 0
10, 267763, Note_on_c, 8, 70, 81
10, 267810, Note_on_c, 8, 70, 0
10, 267900, Note_on_c, 8, 77, 85
10, 267994, Note_on_c, 8, 77, 0
10, 268071, Note_on_c, 8, 69, 25
10, 268100, Note_on_c, 8, 69, 0
10, 268182, Note_on_c, 8, 69, 71
10, 268232, Note_on_c, 8, 69, 0
10, 268293, Note_on_c, 8, 70, 79
10, 268342, Note_on_c, 8, 77, 78
10, 268366, Note_on_c, 8, 70, 0
10, 268436, Note_on_c, 8, 77, 0
10, 268485, Note_on_c, 8, 69, 50
10, 268507, Note_on_c, 8, 69, 0
10, 268598, Note_on_c, 8, 69, 69
10, 268624, Note_on_c, 8, 69, 0
10, 268683, Note_on_c, 8, 76, 81
10, 268813, Note_on_c, 8, 76, 0
10, 268836, Note_on_c, 8, 74, 62
10, 268916, Note_on_c, 8, 74, 0
10, 268916, End_track
11, 0, Start_track
11, 0, MIDI_port, 0
11, 0, Program_c, 9, 0
11, 0, Control_c, 9, 7, 105
11, 0, Control_c, 9, 11, 127
11, 0, Control_c, 9, 64, 0
11, 0, Control_c, 9, 67, 0
11, 0, Pitch_bend_c, 9, 8192
11, 0, Note_on_c, 9, 32, 30
11, 1, Note_on_c, 9, 32, 0
11, 384, Note_on_c, 9, 32, 28
11, 385, Note_on_c, 9, 32, 0
11, 768, Note_on_c, 9, 32, 32
11, 769, Note_on_c, 9, 32, 0
11, 1152, Note_on_c, 9, 32, 46
11, 1153, Note_on_c, 9, 32, 0
11, 1536, Note_on_c, 9, 80, 36
11, 1632, Note_on_c, 9, 80, 0
11, 1632, Note_on_c, 9, 80, 27
11, 1728, Note_on_c, 9, 80, 0
11, 1920, Note_on_c, 9, 64, 18
11, 1921, Note_on_c, 9, 64, 0
11, 2016, Note_on_c, 9, 80, 27
11, 2016, Note_on_c, 9, 64, 30
11, 2112, Note_on_c, 9, 64, 0
11, 2112, Note_on_c, 9, 80, 0
11, 2112, Note_on_c, 9, 35, 53
11, 2112, Note_on_c, 9, 63, 72
11, 2112, Note_on_c, 9, 64, 34
11, 2112, Note_on_c, 9, 81, 80
11, 2113, Note_on_c, 9, 64, 0
11, 2113, Note_on_c, 9, 35, 0
11, 2208, Note_on_c, 9, 63, 0
11, 2304, Note_on_c, 9, 81, 0
11, 2304, Note_on_c, 9, 35, 108
11, 2400, Note_on_c, 9, 80, 34
11, 2496, Note_on_c, 9, 80, 0
11, 2496, Note_on_c, 9, 35, 0
11, 2496, Note_on_c, 9, 81, 90
11, 2592, Note_on_c, 9, 64, 26
11, 2592, Note_on_c, 9, 35, 112
11, 2593, Note_on_c, 9, 64, 0
11, 2688, Note_on_c, 9, 35, 0
11, 2688, Note_on_c, 9, 81, 0
11, 2688, Note_on_c, 9, 63, 37
11, 2688, Note_on_c, 9, 37, 88
11, 2689, Note_on_c, 9, 63, 0
11, 2784, Note_on_c, 9, 63, 48
11, 2784, Note_on_c, 9, 80, 56
11, 2880, Note_on_c, 9, 80, 0
11, 2880, Note_on_c, 9, 63, 0
11, 2880, Note_on_c, 9, 37, 0
11, 2880, Note_on_c, 9, 64, 50
11, 2880, Note_on_c, 9, 81, 90
11, 2881, Note_on_c, 9, 64, 0
11, 2976, Note_on_c, 9, 81, 0
11, 2976, Note_on_c, 9, 64, 34
11, 3072, Note_on_c, 9, 64, 0
11, 3072, Note_on_c, 9, 35, 104
11, 3072, Note_on_c, 9, 63, 60
11, 3168, Note_on_c, 9, 63, 0
11, 3168, Note_on_c, 9, 35, 0
11, 3168, Note_on_c, 9, 80, 46
11, 3168, Note_on_c, 9, 63, 41
11, 3264, Note_on_c, 9, 63, 0
11, 3264, Note_on_c, 9, 80, 0
11, 3264, Note_on_c, 9, 64, 54
11, 3264, Note_on_c, 9, 35, 108
11, 3264, Note_on_c, 9, 81, 86
11, 3360, Note_on_c, 9, 81, 0
11, 3360, Note_on_c, 9, 35, 0
11, 3360, Note_on_c, 9, 64, 0
11, 3456, Note_on_c, 9, 80, 38
11, 3456, Note_on_c, 9, 35, 120
11, 3552, Note_on_c, 9, 80, 0
11, 3552, Note_on_c, 9, 80, 45
11, 3648, Note_on_c, 9, 80, 0
11, 3648, Note_on_c, 9, 35, 0
11, 3648, Note_on_c, 9, 81, 92
11, 3840, Note_on_c, 9, 81, 0
11, 3840, Note_on_c, 9, 80, 37
11, 3936, Note_on_c, 9, 80, 0
11, 3936, Note_on_c, 9, 80, 43
11, 4032, Note_on_c, 9, 80, 0
11, 4032, Note_on_c, 9, 81, 78
11, 4128, Note_on_c, 9, 64, 31
11, 4224, Note_on_c, 9, 64, 0
11, 4224, Note_on_c, 9, 81, 0
11, 4224, Note_on_c, 9, 63, 64
11, 4224, Note_on_c, 9, 80, 25
11, 4224, Note_on_c, 9, 37, 118
11, 4225, Note_on_c, 9, 80, 0
11, 4320, Note_on_c, 9, 63, 0
11, 4320, Note_on_c, 9, 80, 45
11, 4320, Note_on_c, 9, 63, 63
11, 4416, Note_on_c, 9, 63, 0
11, 4416, Note_on_c, 9, 80, 0
11, 4416, Note_on_c, 9, 37, 0
11, 4416, Note_on_c, 9, 64, 48
11, 4416, Note_on_c, 9, 81, 86
11, 4417, Note_on_c, 9, 64, 0
11, 4512, Note_on_c, 9, 81, 0
11, 4512, Note_on_c, 9, 63, 86
11, 4608, Note_on_c, 9, 63, 0
11, 4608, Note_on_c, 9, 80, 36
11, 4608, Note_on_c, 9, 63, 74
11, 4704, Note_on_c, 9, 63, 0
11, 4704, Note_on_c, 9, 80, 0
11, 4704, Note_on_c, 9, 80, 27
11, 4704, Note_on_c, 9, 63, 34
11, 4800, Note_on_c, 9, 63, 0
11, 4800, Note_on_c, 9, 80, 0
11, 4800, Note_on_c, 9, 64, 80
11, 4800, Note_on_c, 9, 81, 78
11, 4896, Note_on_c, 9, 81, 0
11, 4992, Note_on_c, 9, 64, 0
11, 5088, Note_on_c, 9, 80, 27
11, 5184, Note_on_c, 9, 80, 0
11, 5184, Note_on_c, 9, 81, 80
11, 5184, Note_on_c, 9, 63, 34
11, 5184, Note_on_c, 9, 35, 53
11, 5185, Note_on_c, 9, 35, 0
11, 5280, Note_on_c, 9, 63, 0
11, 5280, Note_on_c, 9, 63, 69
11, 5376, Note_on_c, 9, 63, 0
11, 5376, Note_on_c, 9, 81, 0
11, 5376, Note_on_c, 9, 35, 108
11, 5472, Note_on_c, 9, 80, 34
11, 5568, Note_on_c, 9, 80, 0
11, 5568, Note_on_c, 9, 35, 0
11, 5568, Note_on_c, 9, 81, 90
11, 5664, Note_on_c, 9, 35, 112
11, 5760, Note_on_c, 9, 35, 0
11, 5760, Note_on_c, 9, 81, 0
11, 5760, Note_on_c, 9, 37, 114
11, 5856, Note_on_c, 9, 80, 56
11, 5952, Note_on_c, 9, 80, 0
11, 5952, Note_on_c, 9, 37, 0
11, 5952, Note_on_c, 9, 81, 90
11, 5952, Note_on_c, 9, 64, 23
11, 6048, Note_on_c, 9, 64, 0
11, 6048, Note_on_c, 9, 81, 0
11, 6048, Note_on_c, 9, 64, 76
11, 6144, Note_on_c, 9, 35, 104
11, 6240, Note_on_c, 9, 35, 0
11, 6240, Note_on_c, 9, 80, 46
11, 6328, Note_on_c, 9, 80, 0
11, 6328, Note_on_c, 9, 64, 0
11, 6328, Note_on_c, 9, 63, 61
11, 6328, Note_on_c, 9, 35, 108
11, 6336, Note_on_c, 9, 81, 86
11, 6432, Note_on_c, 9, 81, 0
11, 6432, Note_on_c, 9, 35, 0
11, 6432, Note_on_c, 9, 63, 0
11, 6528, Note_on_c, 9, 35, 120
11, 6528, Note_on_c, 9, 80, 38
11, 6616, Note_on_c, 9, 80, 0
11, 6616, Note_on_c, 9, 80, 45
11, 6712, Note_on_c, 9, 80, 0
11, 6712, Note_on_c, 9, 35, 0
11, 6712, Note_on_c, 9, 64, 27
11, 6712, Note_on_c, 9, 81, 92
11, 6713, Note_on_c, 9, 64, 0
11, 6816, Note_on_c, 9, 64, 90
11, 6912, Note_on_c, 9, 81, 0
11, 6912, Note_on_c, 9, 80, 37
11, 7000, Note_on_c, 9, 80, 0
11, 7000, Note_on_c, 9, 64, 0
11, 7000, Note_on_c, 9, 80, 43
11, 7096, Note_on_c, 9, 80, 0
11, 7096, Note_on_c, 9, 63, 69
11, 7096, Note_on_c, 9, 81, 78
11, 7192, Note_on_c, 9, 63, 0
11, 7288, Note_on_c, 9, 37, 114
11, 7288, Note_on_c, 9, 80, 25
11, 7289, Note_on_c, 9, 80, 0
11, 7296, Note_on_c, 9, 81, 0
11, 7384, Note_on_c, 9, 64, 30
11, 7384, Note_on_c, 9, 80, 45
11, 7385, Note_on_c, 9, 64, 0
11, 7480, Note_on_c, 9, 80, 0
11, 7480, Note_on_c, 9, 37, 0
11, 7480, Note_on_c, 9, 63, 94
11, 7480, Note_on_c, 9, 81, 86
11, 7576, Note_on_c, 9, 81, 0
11, 7576, Note_on_c, 9, 63, 0
11, 7672, Note_on_c, 9, 80, 36
11, 7768, Note_on_c, 9, 80, 0
11, 7768, Note_on_c, 9, 80, 27
11, 7864, Note_on_c, 9, 80, 0
11, 7864, Note_on_c, 9, 81, 78
11, 7960, Note_on_c, 9, 81, 0
11, 8056, Note_on_c, 9, 64, 18
11, 8057, Note_on_c, 9, 64, 0
11, 8160, Note_on_c, 9, 80, 27
11, 8160, Note_on_c, 9, 64, 30
11, 8248, Note_on_c, 9, 64, 0
11, 8248, Note_on_c, 9, 80, 0
11, 8248, Note_on_c, 9, 63, 72
11, 8248, Note_on_c, 9, 64, 34
11, 8248, Note_on_c, 9, 81, 80
11, 8248, Note_on_c, 9, 35, 53
11, 8249, Note_on_c, 9, 35, 0
11, 8249, Note_on_c, 9, 64, 0
11, 8344, Note_on_c, 9, 63, 0
11, 8440, Note_on_c, 9, 81, 0
11, 8440, Note_on_c, 9, 35, 108
11, 8536, Note_on_c, 9, 80, 34
11, 8632, Note_on_c, 9, 80, 0
11, 8632, Note_on_c, 9, 35, 0
11, 8632, Note_on_c, 9, 81, 90
11, 8728, Note_on_c, 9, 35, 112
11, 8728, Note_on_c, 9, 64, 26
11, 8729, Note_on_c, 9, 64, 0
11, 8824, Note_on_c, 9, 35, 0
11, 8824, Note_on_c, 9, 81, 0
11, 8824, Note_on_c, 9, 37, 112
11, 8824, Note_on_c, 9, 63, 37
11, 8825, Note_on_c, 9, 63, 0
11, 8920, Note_on_c, 9, 80, 56
11, 8920, Note_on_c, 9, 63, 48
11, 9016, Note_on_c, 9, 63, 0
11, 9016, Note_on_c, 9, 80, 0
11, 9016, Note_on_c, 9, 37, 0
11, 9016, Note_on_c, 9, 81, 90
11, 9016, Note_on_c, 9, 64, 50
11, 9017, Note_on_c, 9, 64, 0
11, 9112, Note_on_c, 9, 81, 0
11, 9112, Note_on_c, 9, 64, 34
11, 9208, Note_on_c, 9, 64, 0
11, 9208, Note_on_c, 9, 63, 60
11, 9208, Note_on_c, 9, 35, 104
11, 9304, Note_on_c, 9, 35, 0
11, 9304, Note_on_c, 9, 63, 0
11, 9304, Note_on_c, 9, 80, 46
11, 9304, Note_on_c, 9, 63, 41
11, 9400, Note_on_c, 9, 63, 0
11, 9400, Note_on_c, 9, 80, 0
11, 9400, Note_on_c, 9, 81, 86
11, 9400, Note_on_c, 9, 64, 54
11, 9400, Note_on_c, 9, 35, 108
11, 9496, Note_on_c, 9, 35, 0
11, 9496, Note_on_c, 9, 64, 0
11, 9496, Note_on_c, 9, 81, 0
11, 9592, Note_on_c, 9, 80, 38
11, 9592, Note_on_c, 9, 35, 120
11, 9688, Note_on_c, 9, 80, 0
11, 9688, Note_on_c, 9, 80, 45
11, 9784, Note_on_c, 9, 80, 0
11, 9784, Note_on_c, 9, 35, 0
11, 9784, Note_on_c, 9, 81, 92
11, 9976, Note_on_c, 9, 81, 0
11, 9976, Note_on_c, 9, 80, 37
11, 10072, Note_on_c, 9, 80, 0
11, 10072, Note_on_c, 9, 80, 43
11, 10168, Note_on_c, 9, 80, 0
11, 10168, Note_on_c, 9, 81, 78
11, 10264, Note_on_c, 9, 64, 31
11, 10360, Note_on_c, 9, 64, 0
11, 10360, Note_on_c, 9, 81, 0
11, 10360, Note_on_c, 9, 80, 25
11, 10360, Note_on_c, 9, 37, 112
11, 10360, Note_on_c, 9, 63, 64
11, 10361, Note_on_c, 9, 80, 0
11, 10456, Note_on_c, 9, 63, 0
11, 10456, Note_on_c, 9, 63, 63
11, 10456, Note_on_c, 9, 80, 45
11, 10552, Note_on_c, 9, 80, 0
11, 10552, Note_on_c, 9, 63, 0
11, 10552, Note_on_c, 9, 37, 0
11, 10552, Note_on_c, 9, 64, 48
11, 10552, Note_on_c, 9, 81, 86
11, 10553, Note_on_c, 9, 64, 0
11, 10648, Note_on_c, 9, 81, 0
11, 10648, Note_on_c, 9, 63, 86
11, 10744, Note_on_c, 9, 63, 0
11, 10744, Note_on_c, 9, 63, 74
11, 10744, Note_on_c, 9, 80, 36
11, 10840, Note_on_c, 9, 80, 0
11, 10840, Note_on_c, 9, 63, 0
11, 10840, Note_on_c, 9, 80, 27
11, 10840, Note_on_c, 9, 63, 34
11, 10936, Note_on_c, 9, 63, 0
11, 10936, Note_on_c, 9, 80, 0
11, 10936, Note_on_c, 9, 81, 78
11, 10936, Note_on_c, 9, 64, 80
11, 11032, Note_on_c, 9, 81, 0
11, 11128, Note_on_c, 9, 64, 0
11, 11224, Note_on_c, 9, 80, 27
11, 11320, Note_on_c, 9, 80, 0
11, 11320, Note_on_c, 9, 81, 80
11, 11320, Note_on_c, 9, 63, 34
11, 11320, Note_on_c, 9, 35, 53
11, 11321, Note_on_c, 9, 35, 0
11, 11416, Note_on_c, 9, 63, 0
11, 11416, Note_on_c, 9, 63, 69
11, 11512, Note_on_c, 9, 63, 0
11, 11512, Note_on_c, 9, 81, 0
11, 11512, Note_on_c, 9, 35, 108
11, 11608, Note_on_c, 9, 80, 34
11, 11704, Note_on_c, 9, 80, 0
11, 11704, Note_on_c, 9, 35, 0
11, 11704, Note_on_c, 9, 81, 90
11, 11800, Note_on_c, 9, 35, 112
11, 11896, Note_on_c, 9, 35, 0
11, 11896, Note_on_c, 9, 81, 0
11, 11896, Note_on_c, 9, 37, 112
11, 11992, Note_on_c, 9, 80, 56
11, 12088, Note_on_c, 9, 80, 0
11, 12088, Note_on_c, 9, 37, 0
11, 12088, Note_on_c, 9, 64, 23
11, 12088, Note_on_c, 9, 81, 90
11, 12184, Note_on_c, 9, 81, 0
11, 12184, Note_on_c, 9, 64, 0
11, 12184, Note_on_c, 9, 64, 76
11, 12280, Note_on_c, 9, 35, 104
11, 12376, Note_on_c, 9, 35, 0
11, 12376, Note_on_c, 9, 80, 46
11, 12472, Note_on_c, 9, 80, 0
11, 12472, Note_on_c, 9, 64, 0
11, 12472, Note_on_c, 9, 35, 108
11, 12472, Note_on_c, 9, 81, 86
11, 12472, Note_on_c, 9, 63, 61
11, 12568, Note_on_c, 9, 63, 0
11, 12568, Note_on_c, 9, 81, 0
11, 12568, Note_on_c, 9, 35, 0
11, 12664, Note_on_c, 9, 35, 120
11, 12664, Note_on_c, 9, 80, 38
11, 12760, Note_on_c, 9, 80, 0
11, 12760, Note_on_c, 9, 80, 45
11, 12856, Note_on_c, 9, 80, 0
11, 12856, Note_on_c, 9, 35, 0
11, 12856, Note_on_c, 9, 81, 92
11, 12856, Note_on_c, 9, 64, 27
11, 12857, Note_on_c, 9, 64, 0
11, 12952, Note_on_c, 9, 64, 90
11, 13048, Note_on_c, 9, 81, 0
11, 13048, Note_on_c, 9, 80, 37
11, 13048, Note_on_c, 9, 37, 104
11, 13144, Note_on_c, 9, 37, 0
11, 13144, Note_on_c, 9, 80, 0
11, 13144, Note_on_c, 9, 64, 0
11, 13144, Note_on_c, 9, 80, 43
11, 13240, Note_on_c, 9, 80, 0
11, 13240, Note_on_c, 9, 81, 78
11, 13240, Note_on_c, 9, 63, 69
11, 13336, Note_on_c, 9, 63, 0
11, 13336, Note_on_c, 9, 37, 98
11, 13432, Note_on_c, 9, 37, 0
11, 13432, Note_on_c, 9, 81, 0
11, 13432, Note_on_c, 9, 80, 25
11, 13433, Note_on_c, 9, 80, 0
11, 13528, Note_on_c, 9, 80, 45
11, 13528, Note_on_c, 9, 64, 30
11, 13529, Note_on_c, 9, 64, 0
11, 13624, Note_on_c, 9, 80, 0
11, 13624, Note_on_c, 9, 81, 86
11, 13624, Note_on_c, 9, 37, 112
11, 13624, Note_on_c, 9, 63, 94
11, 13720, Note_on_c, 9, 63, 0
11, 13720, Note_on_c, 9, 37, 0
11, 13720, Note_on_c, 9, 81, 0
11, 13816, Note_on_c, 9, 80, 36
11, 13912, Note_on_c, 9, 80, 0
11, 13912, Note_on_c, 9, 80, 27
11, 14008, Note_on_c, 9, 80, 0
11, 14008, Note_on_c, 9, 81, 78
11, 14104, Note_on_c, 9, 81, 0
11, 14200, Note_on_c, 9, 64, 18
11, 14201, Note_on_c, 9, 64, 0
11, 14296, Note_on_c, 9, 80, 27
11, 14296, Note_on_c, 9, 64, 30
11, 14392, Note_on_c, 9, 64, 0
11, 14392, Note_on_c, 9, 80, 0
11, 14392, Note_on_c, 9, 35, 53
11, 14392, Note_on_c, 9, 63, 72
11, 14392, Note_on_c, 9, 64, 34
11, 14392, Note_on_c, 9, 81, 80
11, 14393, Note_on_c, 9, 64, 0
11, 14393, Note_on_c, 9, 35, 0
11, 14488, Note_on_c, 9, 63, 0
11, 14584, Note_on_c, 9, 81, 0
11, 14584, Note_on_c, 9, 35, 108
11, 14680, Note_on_c, 9, 80, 34
11, 14776, Note_on_c, 9, 80, 0
11, 14776, Note_on_c, 9, 35, 0
11, 14776, Note_on_c, 9, 81, 90
11, 14872, Note_on_c, 9, 35, 112
11, 14872, Note_on_c, 9, 64, 26
11, 14873, Note_on_c, 9, 64, 0
11, 14968, Note_on_c, 9, 35, 0
11, 14968, Note_on_c, 9, 81, 0
11, 14968, Note_on_c, 9, 40, 118
11, 14968, Note_on_c, 9, 63, 37
11, 14969, Note_on_c, 9, 63, 0
11, 15064, Note_on_c, 9, 40, 0
11, 15064, Note_on_c, 9, 80, 56
11, 15064, Note_on_c, 9, 63, 48
11, 15160, Note_on_c, 9, 63, 0
11, 15160, Note_on_c, 9, 80, 0
11, 15160, Note_on_c, 9, 81, 90
11, 15160, Note_on_c, 9, 64, 50
11, 15161, Note_on_c, 9, 64, 0
11, 15256, Note_on_c, 9, 81, 0
11, 15256, Note_on_c, 9, 64, 34
11, 15352, Note_on_c, 9, 64, 0
11, 15352, Note_on_c, 9, 63, 60
11, 15352, Note_on_c, 9, 35, 104
11, 15448, Note_on_c, 9, 35, 0
11, 15448, Note_on_c, 9, 63, 0
11, 15448, Note_on_c, 9, 80, 46
11, 15448, Note_on_c, 9, 63, 41
11, 15544, Note_on_c, 9, 63, 0
11, 15544, Note_on_c, 9, 80, 0
11, 15544, Note_on_c, 9, 35, 108
11, 15544, Note_on_c, 9, 64, 54
11, 15544, Note_on_c, 9, 81, 86
11, 15640, Note_on_c, 9, 81, 0
11, 15640, Note_on_c, 9, 64, 0
11, 15640, Note_on_c, 9, 35, 0
11, 15736, Note_on_c, 9, 80, 38
11, 15736, Note_on_c, 9, 35, 120
11, 15832, Note_on_c, 9, 80, 0
11, 15832, Note_on_c, 9, 80, 45
11, 15928, Note_on_c, 9, 80, 0
11, 15928, Note_on_c, 9, 35, 0
11, 15928, Note_on_c, 9, 34, 23
11, 15928, Note_on_c, 9, 81, 92
11, 15929, Note_on_c, 9, 34, 0
11, 16024, Note_on_c, 9, 34, 28
11, 16120, Note_on_c, 9, 34, 0
11, 16120, Note_on_c, 9, 81, 0
11, 16120, Note_on_c, 9, 34, 59
11, 16120, Note_on_c, 9, 80, 37
11, 16121, Note_on_c, 9, 34, 0
11, 16216, Note_on_c, 9, 80, 0
11, 16216, Note_on_c, 9, 80, 43
11, 16216, Note_on_c, 9, 34, 48
11, 16312, Note_on_c, 9, 34, 0
11, 16312, Note_on_c, 9, 80, 0
11, 16312, Note_on_c, 9, 34, 108
11, 16312, Note_on_c, 9, 81, 78
11, 16313, Note_on_c, 9, 34, 0
11, 16408, Note_on_c, 9, 64, 31
11, 16504, Note_on_c, 9, 64, 0
11, 16504, Note_on_c, 9, 81, 0
11, 16504, Note_on_c, 9, 80, 25
11, 16504, Note_on_c, 9, 63, 64
11, 16505, Note_on_c, 9, 80, 0
11, 16600, Note_on_c, 9, 63, 0
11, 16600, Note_on_c, 9, 34, 84
11, 16600, Note_on_c, 9, 80, 45
11, 16600, Note_on_c, 9, 63, 63
11, 16601, Note_on_c, 9, 34, 0
11, 16696, Note_on_c, 9, 63, 0
11, 16696, Note_on_c, 9, 80, 0
11, 16696, Note_on_c, 9, 38, 112
11, 16696, Note_on_c, 9, 64, 48
11, 16696, Note_on_c, 9, 81, 86
11, 16697, Note_on_c, 9, 64, 0
11, 16792, Note_on_c, 9, 81, 0
11, 16792, Note_on_c, 9, 38, 0
11, 16792, Note_on_c, 9, 63, 86
11, 16888, Note_on_c, 9, 63, 0
11, 16888, Note_on_c, 9, 80, 36
11, 16888, Note_on_c, 9, 63, 74
11, 16984, Note_on_c, 9, 63, 0
11, 16984, Note_on_c, 9, 80, 0
11, 16984, Note_on_c, 9, 80, 27
11, 16984, Note_on_c, 9, 63, 34
11, 17080, Note_on_c, 9, 63, 0
11, 17080, Note_on_c, 9, 80, 0
11, 17080, Note_on_c, 9, 64, 80
11, 17080, Note_on_c, 9, 81, 78
11, 17176, Note_on_c, 9, 81, 0
11, 17272, Note_on_c, 9, 64, 0
11, 17272, Note_on_c, 9, 37, 90
11, 17368, Note_on_c, 9, 37, 0
11, 17368, Note_on_c, 9, 80, 27
11, 17464, Note_on_c, 9, 80, 0
11, 17464, Note_on_c, 9, 63, 34
11, 17464, Note_on_c, 9, 81, 80
11, 17464, Note_on_c, 9, 35, 53
11, 17465, Note_on_c, 9, 35, 0
11, 17560, Note_on_c, 9, 63, 0
11, 17560, Note_on_c, 9, 63, 69
11, 17656, Note_on_c, 9, 63, 0
11, 17656, Note_on_c, 9, 81, 0
11, 17656, Note_on_c, 9, 35, 108
11, 17752, Note_on_c, 9, 80, 34
11, 17848, Note_on_c, 9, 80, 0
11, 17848, Note_on_c, 9, 35, 0
11, 17848, Note_on_c, 9, 81, 90
11, 17944, Note_on_c, 9, 35, 112
11, 18040, Note_on_c, 9, 35, 0
11, 18040, Note_on_c, 9, 81, 0
11, 18136, Note_on_c, 9, 38, 46
11, 18136, Note_on_c, 9, 80, 56
11, 18137, Note_on_c, 9, 38, 0
11, 18232, Note_on_c, 9, 80, 0
11, 18232, Note_on_c, 9, 38, 60
11, 18232, Note_on_c, 9, 81, 90
11, 18232, Note_on_c, 9, 64, 23
11, 18328, Note_on_c, 9, 64, 0
11, 18328, Note_on_c, 9, 81, 0
11, 18328, Note_on_c, 9, 38, 0
11, 18328, Note_on_c, 9, 64, 76
11, 18424, Note_on_c, 9, 35, 104
11, 18520, Note_on_c, 9, 35, 0
11, 18520, Note_on_c, 9, 80, 46
11, 18616, Note_on_c, 9, 80, 0
11, 18616, Note_on_c, 9, 64, 0
11, 18616, Note_on_c, 9, 81, 86
11, 18616, Note_on_c, 9, 35, 108
11, 18616, Note_on_c, 9, 63, 61
11, 18712, Note_on_c, 9, 63, 0
11, 18712, Note_on_c, 9, 35, 0
11, 18712, Note_on_c, 9, 81, 0
11, 18808, Note_on_c, 9, 35, 120
11, 18808, Note_on_c, 9, 80, 38
11, 18904, Note_on_c, 9, 80, 0
11, 18904, Note_on_c, 9, 80, 45
11, 19000, Note_on_c, 9, 80, 0
11, 19000, Note_on_c, 9, 35, 0
11, 19000, Note_on_c, 9, 81, 92
11, 19000, Note_on_c, 9, 64, 27
11, 19001, Note_on_c, 9, 64, 0
11, 19096, Note_on_c, 9, 64, 90
11, 19192, Note_on_c, 9, 81, 0
11, 19192, Note_on_c, 9, 80, 37
11, 19288, Note_on_c, 9, 80, 0
11, 19288, Note_on_c, 9, 64, 0
11, 19288, Note_on_c, 9, 80, 43
11, 19288, Note_on_c, 9, 34, 61
11, 19289, Note_on_c, 9, 34, 0
11, 19384, Note_on_c, 9, 80, 0
11, 19384, Note_on_c, 9, 34, 23
11, 19384, Note_on_c, 9, 81, 78
11, 19384, Note_on_c, 9, 63, 69
11, 19385, Note_on_c, 9, 34, 0
11, 19480, Note_on_c, 9, 63, 0
11, 19480, Note_on_c, 9, 34, 42
11, 19576, Note_on_c, 9, 34, 0
11, 19576, Note_on_c, 9, 81, 0
11, 19576, Note_on_c, 9, 37, 98
11, 19576, Note_on_c, 9, 80, 25
11, 19576, Note_on_c, 9, 27, 28
11, 19577, Note_on_c, 9, 80, 0
11, 19672, Note_on_c, 9, 27, 0
11, 19672, Note_on_c, 9, 37, 0
11, 19672, Note_on_c, 9, 37, 61
11, 19672, Note_on_c, 9, 80, 45
11, 19672, Note_on_c, 9, 64, 30
11, 19673, Note_on_c, 9, 64, 0
11, 19768, Note_on_c, 9, 80, 0
11, 19768, Note_on_c, 9, 37, 0
11, 19768, Note_on_c, 9, 63, 94
11, 19768, Note_on_c, 9, 81, 86
11, 19864, Note_on_c, 9, 81, 0
11, 19864, Note_on_c, 9, 63, 0
11, 19960, Note_on_c, 9, 80, 36
11, 20056, Note_on_c, 9, 80, 0
11, 20056, Note_on_c, 9, 80, 27
11, 20152, Note_on_c, 9, 80, 0
11, 20152, Note_on_c, 9, 81, 78
11, 20248, Note_on_c, 9, 81, 0
11, 20344, Note_on_c, 9, 64, 18
11, 20345, Note_on_c, 9, 64, 0
11, 20440, Note_on_c, 9, 64, 30
11, 20440, Note_on_c, 9, 80, 27
11, 20536, Note_on_c, 9, 80, 0
11, 20536, Note_on_c, 9, 64, 0
11, 20536, Note_on_c, 9, 64, 34
11, 20536, Note_on_c, 9, 35, 53
11, 20536, Note_on_c, 9, 81, 80
11, 20536, Note_on_c, 9, 63, 72
11, 20536, Note_on_c, 9, 38, 96
11, 20537, Note_on_c, 9, 35, 0
11, 20537, Note_on_c, 9, 64, 0
11, 20632, Note_on_c, 9, 63, 0
11, 20632, Note_on_c, 9, 38, 0
11, 20728, Note_on_c, 9, 81, 0
11, 20728, Note_on_c, 9, 35, 108
11, 20824, Note_on_c, 9, 80, 34
11, 20920, Note_on_c, 9, 80, 0
11, 20920, Note_on_c, 9, 35, 0
11, 20920, Note_on_c, 9, 81, 90
11, 21016, Note_on_c, 9, 35, 112
11, 21016, Note_on_c, 9, 64, 26
11, 21017, Note_on_c, 9, 64, 0
11, 21112, Note_on_c, 9, 35, 0
11, 21112, Note_on_c, 9, 81, 0
11, 21112, Note_on_c, 9, 63, 37
11, 21113, Note_on_c, 9, 63, 0
11, 21208, Note_on_c, 9, 63, 48
11, 21208, Note_on_c, 9, 80, 56
11, 21296, Note_on_c, 9, 80, 0
11, 21296, Note_on_c, 9, 63, 0
11, 21296, Note_on_c, 9, 64, 50
11, 21297, Note_on_c, 9, 64, 0
11, 21304, Note_on_c, 9, 81, 90
11, 21400, Note_on_c, 9, 81, 0
11, 21400, Note_on_c, 9, 64, 34
11, 21496, Note_on_c, 9, 64, 0
11, 21496, Note_on_c, 9, 35, 104
11, 21496, Note_on_c, 9, 63, 60
11, 21584, Note_on_c, 9, 63, 0
11, 21584, Note_on_c, 9, 35, 0
11, 21584, Note_on_c, 9, 63, 41
11, 21584, Note_on_c, 9, 80, 46
11, 21680, Note_on_c, 9, 81, 86
11, 21688, Note_on_c, 9, 80, 0
11, 21688, Note_on_c, 9, 63, 0
11, 21688, Note_on_c, 9, 64, 54
11, 21688, Note_on_c, 9, 35, 108
11, 21784, Note_on_c, 9, 35, 0
11, 21784, Note_on_c, 9, 64, 0
11, 21784, Note_on_c, 9, 81, 0
11, 21872, Note_on_c, 9, 80, 38
11, 21872, Note_on_c, 9, 35, 120
11, 21872, Note_on_c, 9, 37, 114
11, 21976, Note_on_c, 9, 37, 0
11, 21976, Note_on_c, 9, 80, 0
11, 21976, Note_on_c, 9, 80, 45
11, 22064, Note_on_c, 9, 80, 0
11, 22064, Note_on_c, 9, 35, 0
11, 22072, Note_on_c, 9, 81, 92
11, 22256, Note_on_c, 9, 81, 0
11, 22256, Note_on_c, 9, 80, 37
11, 22352, Note_on_c, 9, 80, 0
11, 22352, Note_on_c, 9, 80, 43
11, 22448, Note_on_c, 9, 80, 0
11, 22448, Note_on_c, 9, 81, 78
11, 22544, Note_on_c, 9, 64, 31
11, 22544, Note_on_c, 9, 34, 42
11, 22640, Note_on_c, 9, 34, 0
11, 22640, Note_on_c, 9, 64, 0
11, 22640, Note_on_c, 9, 81, 0
11, 22640, Note_on_c, 9, 63, 64
11, 22640, Note_on_c, 9, 34, 35
11, 22640, Note_on_c, 9, 80, 25
11, 22641, Note_on_c, 9, 80, 0
11, 22736, Note_on_c, 9, 34, 0
11, 22736, Note_on_c, 9, 63, 0
11, 22736, Note_on_c, 9, 80, 45
11, 22736, Note_on_c, 9, 63, 63
11, 22832, Note_on_c, 9, 63, 0
11, 22832, Note_on_c, 9, 80, 0
11, 22832, Note_on_c, 9, 81, 86
11, 22832, Note_on_c, 9, 64, 48
11, 22833, Note_on_c, 9, 64, 0
11, 22928, Note_on_c, 9, 81, 0
11, 22928, Note_on_c, 9, 63, 86
11, 23024, Note_on_c, 9, 63, 0
11, 23024, Note_on_c, 9, 80, 36
11, 23024, Note_on_c, 9, 63, 74
11, 23120, Note_on_c, 9, 63, 0
11, 23120, Note_on_c, 9, 80, 0
11, 23120, Note_on_c, 9, 80, 27
11, 23120, Note_on_c, 9, 63, 34
11, 23216, Note_on_c, 9, 63, 0
11, 23216, Note_on_c, 9, 80, 0
11, 23216, Note_on_c, 9, 81, 78
11, 23216, Note_on_c, 9, 64, 80
11, 23312, Note_on_c, 9, 81, 0
11, 23408, Note_on_c, 9, 64, 0
11, 23504, Note_on_c, 9, 34, 60
11, 23504, Note_on_c, 9, 80, 27
11, 23505, Note_on_c, 9, 34, 0
11, 23600, Note_on_c, 9, 80, 0
11, 23600, Note_on_c, 9, 81, 80
11, 23600, Note_on_c, 9, 63, 34
11, 23600, Note_on_c, 9, 34, 49
11, 23600, Note_on_c, 9, 35, 53
11, 23601, Note_on_c, 9, 35, 0
11, 23601, Note_on_c, 9, 34, 0
11, 23696, Note_on_c, 9, 63, 0
11, 23696, Note_on_c, 9, 34, 96
11, 23696, Note_on_c, 9, 63, 69
11, 23792, Note_on_c, 9, 63, 0
11, 23792, Note_on_c, 9, 34, 0
11, 23792, Note_on_c, 9, 81, 0
11, 23792, Note_on_c, 9, 35, 108
11, 23888, Note_on_c, 9, 80, 34
11, 23984, Note_on_c, 9, 80, 0
11, 23984, Note_on_c, 9, 35, 0
11, 23984, Note_on_c, 9, 81, 90
11, 24080, Note_on_c, 9, 35, 112
11, 24176, Note_on_c, 9, 35, 0
11, 24176, Note_on_c, 9, 81, 0
11, 24272, Note_on_c, 9, 34, 60
11, 24272, Note_on_c, 9, 80, 56
11, 24273, Note_on_c, 9, 34, 0
11, 24368, Note_on_c, 9, 80, 0
11, 24368, Note_on_c, 9, 81, 90
11, 24368, Note_on_c, 9, 64, 23
11, 24368, Note_on_c, 9, 37, 51
11, 24369, Note_on_c, 9, 37, 0
11, 24464, Note_on_c, 9, 64, 0
11, 24464, Note_on_c, 9, 81, 0
11, 24464, Note_on_c, 9, 38, 74
11, 24464, Note_on_c, 9, 64, 76
11, 24560, Note_on_c, 9, 38, 0
11, 24560, Note_on_c, 9, 35, 104
11, 24656, Note_on_c, 9, 35, 0
11, 24656, Note_on_c, 9, 80, 46
11, 24752, Note_on_c, 9, 80, 0
11, 24752, Note_on_c, 9, 64, 0
11, 24752, Note_on_c, 9, 81, 86
11, 24752, Note_on_c, 9, 35, 108
11, 24752, Note_on_c, 9, 63, 61
11, 24848, Note_on_c, 9, 63, 0
11, 24848, Note_on_c, 9, 35, 0
11, 24848, Note_on_c, 9, 81, 0
11, 24944, Note_on_c, 9, 35, 120
11, 24944, Note_on_c, 9, 80, 38
11, 25040, Note_on_c, 9, 80, 0
11, 25040, Note_on_c, 9, 80, 45
11, 25136, Note_on_c, 9, 80, 0
11, 25136, Note_on_c, 9, 35, 0
11, 25136, Note_on_c, 9, 64, 27
11, 25136, Note_on_c, 9, 81, 92
11, 25137, Note_on_c, 9, 64, 0
11, 25232, Note_on_c, 9, 64, 90
11, 25328, Note_on_c, 9, 81, 0
11, 25328, Note_on_c, 9, 80, 37
11, 25424, Note_on_c, 9, 80, 0
11, 25424, Note_on_c, 9, 64, 0
11, 25424, Note_on_c, 9, 80, 43
11, 25424, Note_on_c, 9, 50, 48
11, 25425, Note_on_c, 9, 50, 0
11, 25520, Note_on_c, 9, 80, 0
11, 25520, Note_on_c, 9, 50, 44
11, 25520, Note_on_c, 9, 81, 78
11, 25520, Note_on_c, 9, 63, 69
11, 25521, Note_on_c, 9, 50, 0
11, 25616, Note_on_c, 9, 63, 0
11, 25616, Note_on_c, 9, 50, 38
11, 25617, Note_on_c, 9, 50, 0
11, 25712, Note_on_c, 9, 81, 0
11, 25712, Note_on_c, 9, 80, 25
11, 25712, Note_on_c, 9, 47, 42
11, 25713, Note_on_c, 9, 47, 0
11, 25713, Note_on_c, 9, 80, 0
11, 25808, Note_on_c, 9, 64, 30
11, 25808, Note_on_c, 9, 47, 34
11, 25808, Note_on_c, 9, 80, 45
11, 25809, Note_on_c, 9, 47, 0
11, 25809, Note_on_c, 9, 64, 0
11, 25904, Note_on_c, 9, 80, 0
11, 25904, Note_on_c, 9, 81, 86
11, 25904, Note_on_c, 9, 47, 26
11, 25904, Note_on_c, 9, 63, 94
11, 26000, Note_on_c, 9, 63, 0
11, 26000, Note_on_c, 9, 47, 0
11, 26000, Note_on_c, 9, 81, 0
11, 26000, Note_on_c, 9, 53, 102
11, 26000, Note_on_c, 9, 64, 20
11, 26001, Note_on_c, 9, 64, 0
11, 26001, Note_on_c, 9, 53, 0
11, 26104, Note_on_c, 9, 42, 87
11, 26192, Note_on_c, 9, 42, 0
11, 26192, Note_on_c, 9, 42, 87
11, 26288, Note_on_c, 9, 42, 0
11, 26288, Note_on_c, 9, 46, 87
11, 26288, Note_on_c, 9, 81, 78
11, 26384, Note_on_c, 9, 81, 0
11, 26480, Note_on_c, 9, 46, 0
11, 26480, Note_on_c, 9, 42, 87
11, 26576, Note_on_c, 9, 42, 0
11, 26576, Note_on_c, 9, 42, 87
11, 26672, Note_on_c, 9, 42, 0
11, 26672, Note_on_c, 9, 35, 53
11, 26672, Note_on_c, 9, 46, 87
11, 26673, Note_on_c, 9, 35, 0
11, 26768, Note_on_c, 9, 46, 0
11, 26864, Note_on_c, 9, 35, 108
11, 26864, Note_on_c, 9, 42, 87
11, 26864, Note_on_c, 9, 37, 88
11, 26960, Note_on_c, 9, 42, 0
11, 26960, Note_on_c, 9, 42, 87
11, 27056, Note_on_c, 9, 42, 0
11, 27056, Note_on_c, 9, 37, 0
11, 27056, Note_on_c, 9, 35, 0
11, 27056, Note_on_c, 9, 46, 87
11, 27152, Note_on_c, 9, 46, 0
11, 27152, Note_on_c, 9, 35, 112
11, 27152, Note_on_c, 9, 37, 106
11, 27248, Note_on_c, 9, 35, 0
11, 27248, Note_on_c, 9, 42, 87
11, 27249, Note_on_c, 9, 42, 0
11, 27344, Note_on_c, 9, 37, 0
11, 27344, Note_on_c, 9, 42, 87
11, 27440, Note_on_c, 9, 42, 0
11, 27440, Note_on_c, 9, 46, 87
11, 27536, Note_on_c, 9, 46, 0
11, 27632, Note_on_c, 9, 35, 104
11, 27632, Note_on_c, 9, 42, 87
11, 27633, Note_on_c, 9, 42, 0
11, 27728, Note_on_c, 9, 35, 0
11, 27728, Note_on_c, 9, 42, 87
11, 27729, Note_on_c, 9, 42, 0
11, 27824, Note_on_c, 9, 35, 108
11, 27824, Note_on_c, 9, 46, 87
11, 27920, Note_on_c, 9, 46, 0
11, 27920, Note_on_c, 9, 35, 0
11, 28016, Note_on_c, 9, 35, 120
11, 28016, Note_on_c, 9, 42, 87
11, 28017, Note_on_c, 9, 42, 0
11, 28112, Note_on_c, 9, 42, 87
11, 28113, Note_on_c, 9, 42, 0
11, 28208, Note_on_c, 9, 35, 0
11, 28208, Note_on_c, 9, 46, 87
11, 28304, Note_on_c, 9, 46, 0
11, 28400, Note_on_c, 9, 42, 87
11, 28400, Note_on_c, 9, 37, 123
11, 28401, Note_on_c, 9, 42, 0
11, 28496, Note_on_c, 9, 37, 0
11, 28496, Note_on_c, 9, 42, 87
11, 28592, Note_on_c, 9, 42, 0
11, 28592, Note_on_c, 9, 46, 87
11, 28688, Note_on_c, 9, 46, 0
11, 28784, Note_on_c, 9, 42, 87
11, 28880, Note_on_c, 9, 42, 0
11, 28880, Note_on_c, 9, 42, 87
11, 28880, Note_on_c, 9, 34, 18
11, 28976, Note_on_c, 9, 34, 0
11, 28976, Note_on_c, 9, 42, 0
11, 28976, Note_on_c, 9, 46, 87
11, 29072, Note_on_c, 9, 46, 0
11, 29072, Note_on_c, 9, 34, 110
11, 29168, Note_on_c, 9, 34, 0
11, 29168, Note_on_c, 9, 42, 87
11, 29264, Note_on_c, 9, 42, 0
11, 29264, Note_on_c, 9, 42, 87
11, 29360, Note_on_c, 9, 42, 0
11, 29360, Note_on_c, 9, 46, 87
11, 29552, Note_on_c, 9, 46, 0
11, 29552, Note_on_c, 9, 42, 87
11, 29648, Note_on_c, 9, 42, 0
11, 29648, Note_on_c, 9, 42, 87
11, 29744, Note_on_c, 9, 42, 0
11, 29744, Note_on_c, 9, 35, 53
11, 29744, Note_on_c, 9, 46, 87
11, 29745, Note_on_c, 9, 35, 0
11, 29840, Note_on_c, 9, 46, 0
11, 29936, Note_on_c, 9, 35, 108
11, 29936, Note_on_c, 9, 42, 87
11, 29936, Note_on_c, 9, 37, 88
11, 30032, Note_on_c, 9, 42, 0
11, 30032, Note_on_c, 9, 42, 87
11, 30128, Note_on_c, 9, 42, 0
11, 30128, Note_on_c, 9, 37, 0
11, 30128, Note_on_c, 9, 35, 0
11, 30128, Note_on_c, 9, 46, 87
11, 30224, Note_on_c, 9, 46, 0
11, 30224, Note_on_c, 9, 35, 112
11, 30224, Note_on_c, 9, 37, 106
11, 30320, Note_on_c, 9, 35, 0
11, 30320, Note_on_c, 9, 42, 87
11, 30321, Note_on_c, 9, 42, 0
11, 30416, Note_on_c, 9, 37, 0
11, 30416, Note_on_c, 9, 42, 87
11, 30512, Note_on_c, 9, 42, 0
11, 30512, Note_on_c, 9, 46, 87
11, 30608, Note_on_c, 9, 46, 0
11, 30704, Note_on_c, 9, 35, 104
11, 30704, Note_on_c, 9, 42, 87
11, 30705, Note_on_c, 9, 42, 0
11, 30800, Note_on_c, 9, 35, 0
11, 30800, Note_on_c, 9, 42, 87
11, 30801, Note_on_c, 9, 42, 0
11, 30896, Note_on_c, 9, 35, 108
11, 30896, Note_on_c, 9, 46, 87
11, 30992, Note_on_c, 9, 46, 0
11, 30992, Note_on_c, 9, 35, 0
11, 31088, Note_on_c, 9, 35, 120
11, 31088, Note_on_c, 9, 42, 87
11, 31089, Note_on_c, 9, 42, 0
11, 31184, Note_on_c, 9, 42, 87
11, 31185, Note_on_c, 9, 42, 0
11, 31280, Note_on_c, 9, 35, 0
11, 31280, Note_on_c, 9, 46, 87
11, 31376, Note_on_c, 9, 46, 0
11, 31472, Note_on_c, 9, 42, 87
11, 31472, Note_on_c, 9, 37, 123
11, 31473, Note_on_c, 9, 42, 0
11, 31568, Note_on_c, 9, 37, 0
11, 31568, Note_on_c, 9, 42, 87
11, 31664, Note_on_c, 9, 42, 0
11, 31664, Note_on_c, 9, 46, 87
11, 31760, Note_on_c, 9, 46, 0
11, 31856, Note_on_c, 9, 42, 87
11, 31952, Note_on_c, 9, 42, 0
11, 31952, Note_on_c, 9, 34, 116
11, 31952, Note_on_c, 9, 53, 18
11, 31952, Note_on_c, 9, 42, 87
11, 31953, Note_on_c, 9, 53, 0
11, 31953, Note_on_c, 9, 34, 0
11, 32048, Note_on_c, 9, 42, 0
11, 32048, Note_on_c, 9, 38, 45
11, 32048, Note_on_c, 9, 46, 87
11, 32049, Note_on_c, 9, 38, 0
11, 32144, Note_on_c, 9, 46, 0
11, 32240, Note_on_c, 9, 42, 87
11, 32336, Note_on_c, 9, 42, 0
11, 32336, Note_on_c, 9, 42, 87
11, 32432, Note_on_c, 9, 42, 0
11, 32432, Note_on_c, 9, 46, 87
11, 32624, Note_on_c, 9, 46, 0
11, 32624, Note_on_c, 9, 42, 87
11, 32720, Note_on_c, 9, 42, 0
11, 32720, Note_on_c, 9, 42, 87
11, 32816, Note_on_c, 9, 42, 0
11, 32816, Note_on_c, 9, 35, 53
11, 32816, Note_on_c, 9, 46, 87
11, 32817, Note_on_c, 9, 35, 0
11, 32912, Note_on_c, 9, 46, 0
11, 33008, Note_on_c, 9, 42, 87
11, 33008, Note_on_c, 9, 37, 88
11, 33008, Note_on_c, 9, 35, 108
11, 33104, Note_on_c, 9, 42, 0
11, 33104, Note_on_c, 9, 42, 87
11, 33200, Note_on_c, 9, 42, 0
11, 33200, Note_on_c, 9, 35, 0
11, 33200, Note_on_c, 9, 37, 0
11, 33200, Note_on_c, 9, 46, 87
11, 33296, Note_on_c, 9, 46, 0
11, 33296, Note_on_c, 9, 35, 112
11, 33296, Note_on_c, 9, 37, 106
11, 33392, Note_on_c, 9, 35, 0
11, 33392, Note_on_c, 9, 42, 87
11, 33393, Note_on_c, 9, 42, 0
11, 33488, Note_on_c, 9, 37, 0
11, 33488, Note_on_c, 9, 42, 87
11, 33584, Note_on_c, 9, 42, 0
11, 33584, Note_on_c, 9, 46, 87
11, 33680, Note_on_c, 9, 46, 0
11, 33776, Note_on_c, 9, 35, 104
11, 33776, Note_on_c, 9, 42, 87
11, 33777, Note_on_c, 9, 42, 0
11, 33872, Note_on_c, 9, 35, 0
11, 33872, Note_on_c, 9, 42, 87
11, 33873, Note_on_c, 9, 42, 0
11, 33968, Note_on_c, 9, 35, 108
11, 33968, Note_on_c, 9, 46, 87
11, 34064, Note_on_c, 9, 46, 0
11, 34064, Note_on_c, 9, 35, 0
11, 34160, Note_on_c, 9, 42, 87
11, 34160, Note_on_c, 9, 35, 120
11, 34161, Note_on_c, 9, 42, 0
11, 34256, Note_on_c, 9, 42, 87
11, 34257, Note_on_c, 9, 42, 0
11, 34352, Note_on_c, 9, 35, 0
11, 34352, Note_on_c, 9, 46, 87
11, 34448, Note_on_c, 9, 46, 0
11, 34544, Note_on_c, 9, 42, 87
11, 34544, Note_on_c, 9, 37, 123
11, 34545, Note_on_c, 9, 42, 0
11, 34640, Note_on_c, 9, 37, 0
11, 34640, Note_on_c, 9, 42, 87
11, 34736, Note_on_c, 9, 42, 0
11, 34736, Note_on_c, 9, 46, 87
11, 34832, Note_on_c, 9, 46, 0
11, 34928, Note_on_c, 9, 42, 87
11, 35024, Note_on_c, 9, 42, 0
11, 35024, Note_on_c, 9, 42, 87
11, 35120, Note_on_c, 9, 42, 0
11, 35120, Note_on_c, 9, 46, 87
11, 35216, Note_on_c, 9, 46, 0
11, 35312, Note_on_c, 9, 42, 87
11, 35408, Note_on_c, 9, 42, 0
11, 35408, Note_on_c, 9, 42, 87
11, 35504, Note_on_c, 9, 42, 0
11, 35504, Note_on_c, 9, 46, 87
11, 35688, Note_on_c, 9, 46, 0
11, 35688, Note_on_c, 9, 42, 87
11, 35784, Note_on_c, 9, 42, 0
11, 35784, Note_on_c, 9, 42, 87
11, 35888, Note_on_c, 9, 42, 0
11, 35888, Note_on_c, 9, 46, 87
11, 35888, Note_on_c, 9, 35, 53
11, 35889, Note_on_c, 9, 35, 0
11, 35976, Note_on_c, 9, 46, 0
11, 36072, Note_on_c, 9, 35, 108
11, 36072, Note_on_c, 9, 37, 88
11, 36072, Note_on_c, 9, 42, 87
11, 36176, Note_on_c, 9, 42, 0
11, 36176, Note_on_c, 9, 42, 87
11, 36264, Note_on_c, 9, 42, 0
11, 36264, Note_on_c, 9, 37, 0
11, 36264, Note_on_c, 9, 35, 0
11, 36264, Note_on_c, 9, 46, 87
11, 36360, Note_on_c, 9, 46, 0
11, 36360, Note_on_c, 9, 37, 106
11, 36360, Note_on_c, 9, 35, 112
11, 36456, Note_on_c, 9, 35, 0
11, 36456, Note_on_c, 9, 42, 87
11, 36457, Note_on_c, 9, 42, 0
11, 36552, Note_on_c, 9, 37, 0
11, 36552, Note_on_c, 9, 42, 87
11, 36656, Note_on_c, 9, 42, 0
11, 36656, Note_on_c, 9, 46, 87
11, 36752, Note_on_c, 9, 46, 0
11, 36848, Note_on_c, 9, 35, 104
11, 36848, Note_on_c, 9, 42, 87
11, 36849, Note_on_c, 9, 42, 0
11, 36944, Note_on_c, 9, 35, 0
11, 36944, Note_on_c, 9, 38, 30
11, 36944, Note_on_c, 9, 42, 87
11, 36945, Note_on_c, 9, 42, 0
11, 37032, Note_on_c, 9, 38, 0
11, 37032, Note_on_c, 9, 35, 108
11, 37032, Note_on_c, 9, 46, 87
11, 37128, Note_on_c, 9, 46, 0
11, 37128, Note_on_c, 9, 35, 0
11, 37128, Note_on_c, 9, 38, 46
11, 37224, Note_on_c, 9, 38, 0
11, 37224, Note_on_c, 9, 35, 120
11, 37224, Note_on_c, 9, 42, 87
11, 37224, Note_on_c, 9, 38, 22
11, 37225, Note_on_c, 9, 38, 0
11, 37225, Note_on_c, 9, 42, 0
11, 37320, Note_on_c, 9, 34, 114
11, 37320, Note_on_c, 9, 42, 87
11, 37320, Note_on_c, 9, 53, 23
11, 37321, Note_on_c, 9, 53, 0
11, 37321, Note_on_c, 9, 42, 0
11, 37416, Note_on_c, 9, 34, 0
11, 37416, Note_on_c, 9, 35, 0
11, 37416, Note_on_c, 9, 46, 87
11, 37512, Note_on_c, 9, 46, 0
11, 37608, Note_on_c, 9, 37, 123
11, 37608, Note_on_c, 9, 42, 87
11, 37609, Note_on_c, 9, 42, 0
11, 37704, Note_on_c, 9, 37, 0
11, 37704, Note_on_c, 9, 42, 87
11, 37704, Note_on_c, 9, 34, 36
11, 37705, Note_on_c, 9, 34, 0
11, 37800, Note_on_c, 9, 42, 0
11, 37800, Note_on_c, 9, 46, 87
11, 37896, Note_on_c, 9, 46, 0
11, 37896, Note_on_c, 9, 34, 23
11, 37897, Note_on_c, 9, 34, 0
11, 37992, Note_on_c, 9, 50, 58
11, 37992, Note_on_c, 9, 42, 87
11, 37993, Note_on_c, 9, 50, 0
11, 38088, Note_on_c, 9, 42, 0
11, 38088, Note_on_c, 9, 50, 94
11, 38088, Note_on_c, 9, 42, 87
11, 38184, Note_on_c, 9, 42, 0
11, 38184, Note_on_c, 9, 50, 0
11, 38184, Note_on_c, 9, 46, 87
11, 38184, Note_on_c, 9, 47, 65
11, 38185, Note_on_c, 9, 47, 0
11, 38280, Note_on_c, 9, 46, 0
11, 38280, Note_on_c, 9, 47, 116
11, 38376, Note_on_c, 9, 47, 0
11, 38376, Note_on_c, 9, 42, 87
11, 38472, Note_on_c, 9, 42, 0
11, 38472, Note_on_c, 9, 42, 87
11, 38568, Note_on_c, 9, 42, 0
11, 38568, Note_on_c, 9, 46, 87
11, 38760, Note_on_c, 9, 46, 0
11, 38760, Note_on_c, 9, 42, 87
11, 38856, Note_on_c, 9, 42, 0
11, 38856, Note_on_c, 9, 42, 87
11, 38952, Note_on_c, 9, 42, 0
11, 38952, Note_on_c, 9, 46, 87
11, 38952, Note_on_c, 9, 35, 53
11, 38953, Note_on_c, 9, 35, 0
11, 39048, Note_on_c, 9, 46, 0
11, 39144, Note_on_c, 9, 37, 88
11, 39144, Note_on_c, 9, 35, 108
11, 39144, Note_on_c, 9, 42, 87
11, 39240, Note_on_c, 9, 42, 0
11, 39240, Note_on_c, 9, 42, 87
11, 39336, Note_on_c, 9, 42, 0
11, 39336, Note_on_c, 9, 35, 0
11, 39336, Note_on_c, 9, 37, 0
11, 39336, Note_on_c, 9, 46, 87
11, 39432, Note_on_c, 9, 46, 0
11, 39432, Note_on_c, 9, 35, 112
11, 39432, Note_on_c, 9, 37, 106
11, 39528, Note_on_c, 9, 35, 0
11, 39528, Note_on_c, 9, 42, 87
11, 39529, Note_on_c, 9, 42, 0
11, 39624, Note_on_c, 9, 37, 0
11, 39624, Note_on_c, 9, 42, 87
11, 39624, Note_on_c, 9, 34, 23
11, 39625, Note_on_c, 9, 34, 0
11, 39720, Note_on_c, 9, 42, 0
11, 39720, Note_on_c, 9, 34, 41
11, 39720, Note_on_c, 9, 46, 87
11, 39721, Note_on_c, 9, 34, 0
11, 39816, Note_on_c, 9, 46, 0
11, 39816, Note_on_c, 9, 34, 120
11, 39816, Note_on_c, 9, 40, 28
11, 39817, Note_on_c, 9, 40, 0
11, 39912, Note_on_c, 9, 34, 0
11, 39912, Note_on_c, 9, 42, 87
11, 39912, Note_on_c, 9, 35, 104
11, 39913, Note_on_c, 9, 42, 0
11, 40008, Note_on_c, 9, 35, 0
11, 40008, Note_on_c, 9, 42, 87
11, 40008, Note_on_c, 9, 38, 84
11, 40009, Note_on_c, 9, 42, 0
11, 40104, Note_on_c, 9, 38, 0
11, 40104, Note_on_c, 9, 34, 56
11, 40104, Note_on_c, 9, 35, 108
11, 40104, Note_on_c, 9, 46, 87
11, 40105, Note_on_c, 9, 34, 0
11, 40200, Note_on_c, 9, 46, 0
11, 40200, Note_on_c, 9, 35, 0
11, 40296, Note_on_c, 9, 35, 120
11, 40296, Note_on_c, 9, 42, 87
11, 40297, Note_on_c, 9, 42, 0
11, 40392, Note_on_c, 9, 42, 87
11, 40393, Note_on_c, 9, 42, 0
11, 40488, Note_on_c, 9, 35, 0
11, 40488, Note_on_c, 9, 46, 87
11, 40584, Note_on_c, 9, 46, 0
11, 40680, Note_on_c, 9, 37, 123
11, 40680, Note_on_c, 9, 42, 87
11, 40681, Note_on_c, 9, 42, 0
11, 40776, Note_on_c, 9, 37, 0
11, 40776, Note_on_c, 9, 42, 87
11, 40872, Note_on_c, 9, 42, 0
11, 40872, Note_on_c, 9, 46, 87
11, 40968, Note_on_c, 9, 46, 0
11, 41064, Note_on_c, 9, 42, 87
11, 41160, Note_on_c, 9, 42, 0
11, 41160, Note_on_c, 9, 42, 87
11, 41256, Note_on_c, 9, 42, 0
11, 41256, Note_on_c, 9, 46, 87
11, 41352, Note_on_c, 9, 46, 0
11, 41448, Note_on_c, 9, 42, 87
11, 41544, Note_on_c, 9, 42, 0
11, 41544, Note_on_c, 9, 42, 87
11, 41640, Note_on_c, 9, 42, 0
11, 41640, Note_on_c, 9, 46, 87
11, 41832, Note_on_c, 9, 46, 0
11, 41832, Note_on_c, 9, 42, 87
11, 41928, Note_on_c, 9, 42, 0
11, 41928, Note_on_c, 9, 42, 87
11, 42024, Note_on_c, 9, 42, 0
11, 42024, Note_on_c, 9, 46, 87
11, 42024, Note_on_c, 9, 35, 53
11, 42025, Note_on_c, 9, 35, 0
11, 42120, Note_on_c, 9, 46, 0
11, 42216, Note_on_c, 9, 42, 87
11, 42216, Note_on_c, 9, 37, 88
11, 42216, Note_on_c, 9, 35, 108
11, 42312, Note_on_c, 9, 42, 0
11, 42312, Note_on_c, 9, 42, 87
11, 42408, Note_on_c, 9, 42, 0
11, 42408, Note_on_c, 9, 35, 0
11, 42408, Note_on_c, 9, 37, 0
11, 42408, Note_on_c, 9, 46, 87
11, 42504, Note_on_c, 9, 46, 0
11, 42504, Note_on_c, 9, 37, 106
11, 42504, Note_on_c, 9, 35, 112
11, 42600, Note_on_c, 9, 35, 0
11, 42600, Note_on_c, 9, 42, 87
11, 42601, Note_on_c, 9, 42, 0
11, 42696, Note_on_c, 9, 37, 0
11, 42696, Note_on_c, 9, 42, 87
11, 42792, Note_on_c, 9, 42, 0
11, 42792, Note_on_c, 9, 46, 87
11, 42888, Note_on_c, 9, 46, 0
11, 42984, Note_on_c, 9, 35, 104
11, 42984, Note_on_c, 9, 42, 87
11, 42985, Note_on_c, 9, 42, 0
11, 43080, Note_on_c, 9, 35, 0
11, 43080, Note_on_c, 9, 42, 87
11, 43081, Note_on_c, 9, 42, 0
11, 43176, Note_on_c, 9, 35, 108
11, 43176, Note_on_c, 9, 46, 87
11, 43272, Note_on_c, 9, 46, 0
11, 43272, Note_on_c, 9, 35, 0
11, 43368, Note_on_c, 9, 42, 87
11, 43368, Note_on_c, 9, 35, 120
11, 43369, Note_on_c, 9, 42, 0
11, 43464, Note_on_c, 9, 42, 87
11, 43465, Note_on_c, 9, 42, 0
11, 43560, Note_on_c, 9, 35, 0
11, 43560, Note_on_c, 9, 46, 87
11, 43656, Note_on_c, 9, 46, 0
11, 43752, Note_on_c, 9, 37, 123
11, 43752, Note_on_c, 9, 42, 87
11, 43753, Note_on_c, 9, 42, 0
11, 43848, Note_on_c, 9, 37, 0
11, 43848, Note_on_c, 9, 42, 87
11, 43944, Note_on_c, 9, 42, 0
11, 43944, Note_on_c, 9, 46, 87
11, 44040, Note_on_c, 9, 46, 0
11, 44136, Note_on_c, 9, 42, 87
11, 44232, Note_on_c, 9, 42, 0
11, 44232, Note_on_c, 9, 42, 87
11, 44232, Note_on_c, 9, 34, 58
11, 44233, Note_on_c, 9, 34, 0
11, 44328, Note_on_c, 9, 42, 0
11, 44328, Note_on_c, 9, 46, 87
11, 44424, Note_on_c, 9, 46, 0
11, 44424, Note_on_c, 9, 38, 112
11, 44520, Note_on_c, 9, 38, 0
11, 44520, Note_on_c, 9, 42, 87
11, 44616, Note_on_c, 9, 42, 0
11, 44616, Note_on_c, 9, 42, 87
11, 44712, Note_on_c, 9, 42, 0
11, 44712, Note_on_c, 9, 46, 87
11, 44904, Note_on_c, 9, 46, 0
11, 44904, Note_on_c, 9, 42, 87
11, 45000, Note_on_c, 9, 42, 0
11, 45000, Note_on_c, 9, 42, 87
11, 45096, Note_on_c, 9, 42, 0
11, 45096, Note_on_c, 9, 46, 87
11, 45096, Note_on_c, 9, 35, 53
11, 45097, Note_on_c, 9, 35, 0
11, 45192, Note_on_c, 9, 46, 0
11, 45288, Note_on_c, 9, 42, 87
11, 45288, Note_on_c, 9, 37, 88
11, 45288, Note_on_c, 9, 35, 108
11, 45384, Note_on_c, 9, 42, 0
11, 45384, Note_on_c, 9, 42, 87
11, 45480, Note_on_c, 9, 42, 0
11, 45480, Note_on_c, 9, 35, 0
11, 45480, Note_on_c, 9, 37, 0
11, 45480, Note_on_c, 9, 46, 87
11, 45576, Note_on_c, 9, 46, 0
11, 45576, Note_on_c, 9, 35, 112
11, 45576, Note_on_c, 9, 37, 106
11, 45672, Note_on_c, 9, 35, 0
11, 45672, Note_on_c, 9, 42, 87
11, 45673, Note_on_c, 9, 42, 0
11, 45768, Note_on_c, 9, 37, 0
11, 45768, Note_on_c, 9, 42, 87
11, 45864, Note_on_c, 9, 42, 0
11, 45864, Note_on_c, 9, 46, 87
11, 45960, Note_on_c, 9, 46, 0
11, 46056, Note_on_c, 9, 35, 104
11, 46056, Note_on_c, 9, 42, 87
11, 46057, Note_on_c, 9, 42, 0
11, 46152, Note_on_c, 9, 35, 0
11, 46152, Note_on_c, 9, 42, 87
11, 46153, Note_on_c, 9, 42, 0
11, 46248, Note_on_c, 9, 35, 108
11, 46248, Note_on_c, 9, 46, 87
11, 46344, Note_on_c, 9, 46, 0
11, 46344, Note_on_c, 9, 35, 0
11, 46440, Note_on_c, 9, 42, 87
11, 46440, Note_on_c, 9, 35, 120
11, 46441, Note_on_c, 9, 42, 0
11, 46536, Note_on_c, 9, 42, 87
11, 46537, Note_on_c, 9, 42, 0
11, 46632, Note_on_c, 9, 35, 0
11, 46632, Note_on_c, 9, 46, 87
11, 46728, Note_on_c, 9, 46, 0
11, 46824, Note_on_c, 9, 37, 123
11, 46824, Note_on_c, 9, 42, 87
11, 46825, Note_on_c, 9, 42, 0
11, 46920, Note_on_c, 9, 37, 0
11, 46920, Note_on_c, 9, 42, 87
11, 47016, Note_on_c, 9, 42, 0
11, 47016, Note_on_c, 9, 46, 87
11, 47112, Note_on_c, 9, 46, 0
11, 47208, Note_on_c, 9, 42, 87
11, 47304, Note_on_c, 9, 42, 0
11, 47304, Note_on_c, 9, 42, 87
11, 47400, Note_on_c, 9, 42, 0
11, 47400, Note_on_c, 9, 46, 87
11, 47496, Note_on_c, 9, 46, 0
11, 47592, Note_on_c, 9, 42, 87
11, 47688, Note_on_c, 9, 42, 0
11, 47688, Note_on_c, 9, 42, 87
11, 47784, Note_on_c, 9, 42, 0
11, 47784, Note_on_c, 9, 46, 87
11, 47976, Note_on_c, 9, 46, 0
11, 47976, Note_on_c, 9, 42, 87
11, 48072, Note_on_c, 9, 42, 0
11, 48072, Note_on_c, 9, 42, 87
11, 48168, Note_on_c, 9, 42, 0
11, 48168, Note_on_c, 9, 35, 53
11, 48168, Note_on_c, 9, 46, 87
11, 48169, Note_on_c, 9, 35, 0
11, 48264, Note_on_c, 9, 46, 0
11, 48360, Note_on_c, 9, 35, 108
11, 48360, Note_on_c, 9, 42, 87
11, 48360, Note_on_c, 9, 37, 88
11, 48456, Note_on_c, 9, 42, 0
11, 48456, Note_on_c, 9, 42, 87
11, 48552, Note_on_c, 9, 42, 0
11, 48552, Note_on_c, 9, 37, 0
11, 48552, Note_on_c, 9, 35, 0
11, 48552, Note_on_c, 9, 46, 87
11, 48648, Note_on_c, 9, 46, 0
11, 48648, Note_on_c, 9, 35, 112
11, 48648, Note_on_c, 9, 37, 106
11, 48744, Note_on_c, 9, 35, 0
11, 48744, Note_on_c, 9, 42, 87
11, 48745, Note_on_c, 9, 42, 0
11, 48840, Note_on_c, 9, 37, 0
11, 48840, Note_on_c, 9, 42, 87
11, 48840, Note_on_c, 9, 34, 21
11, 48841, Note_on_c, 9, 34, 0
11, 48936, Note_on_c, 9, 42, 0
11, 48936, Note_on_c, 9, 46, 87
11, 48936, Note_on_c, 9, 34, 19
11, 49032, Note_on_c, 9, 34, 0
11, 49032, Note_on_c, 9, 46, 0
11, 49032, Note_on_c, 9, 34, 39
11, 49033, Note_on_c, 9, 34, 0
11, 49128, Note_on_c, 9, 35, 104
11, 49128, Note_on_c, 9, 42, 87
11, 49129, Note_on_c, 9, 42, 0
11, 49224, Note_on_c, 9, 35, 0
11, 49224, Note_on_c, 9, 42, 87
11, 49224, Note_on_c, 9, 34, 44
11, 49225, Note_on_c, 9, 34, 0
11, 49225, Note_on_c, 9, 42, 0
11, 49320, Note_on_c, 9, 35, 108
11, 49320, Note_on_c, 9, 46, 87
11, 49320, Note_on_c, 9, 34, 18
11, 49416, Note_on_c, 9, 34, 0
11, 49416, Note_on_c, 9, 46, 0
11, 49416, Note_on_c, 9, 35, 0
11, 49416, Note_on_c, 9, 34, 74
11, 49512, Note_on_c, 9, 34, 0
11, 49512, Note_on_c, 9, 35, 120
11, 49512, Note_on_c, 9, 42, 87
11, 49512, Note_on_c, 9, 34, 98
11, 49513, Note_on_c, 9, 42, 0
11, 49608, Note_on_c, 9, 34, 0
11, 49608, Note_on_c, 9, 42, 87
11, 49608, Note_on_c, 9, 34, 88
11, 49609, Note_on_c, 9, 42, 0
11, 49704, Note_on_c, 9, 34, 0
11, 49704, Note_on_c, 9, 35, 0
11, 49704, Note_on_c, 9, 46, 87
11, 49800, Note_on_c, 9, 46, 0
11, 49896, Note_on_c, 9, 42, 87
11, 49896, Note_on_c, 9, 37, 123
11, 49897, Note_on_c, 9, 42, 0
11, 49992, Note_on_c, 9, 37, 0
11, 49992, Note_on_c, 9, 42, 87
11, 49992, Note_on_c, 9, 50, 64
11, 49993, Note_on_c, 9, 50, 0
11, 50088, Note_on_c, 9, 42, 0
11, 50088, Note_on_c, 9, 46, 87
11, 50088, Note_on_c, 9, 50, 46
11, 50089, Note_on_c, 9, 50, 0
11, 50184, Note_on_c, 9, 46, 0
11, 50184, Note_on_c, 9, 34, 88
11, 50185, Note_on_c, 9, 34, 0
11, 50280, Note_on_c, 9, 42, 87
11, 50376, Note_on_c, 9, 42, 0
11, 50376, Note_on_c, 9, 42, 87
11, 50376, Note_on_c, 9, 34, 84
11, 50377, Note_on_c, 9, 34, 0
11, 50464, Note_on_c, 9, 42, 0
11, 50464, Note_on_c, 9, 46, 87
11, 50464, Note_on_c, 9, 50, 88
11, 50465, Note_on_c, 9, 50, 0
11, 50560, Note_on_c, 9, 46, 0
11, 50560, Note_on_c, 9, 34, 74
11, 50561, Note_on_c, 9, 34, 0
11, 50664, Note_on_c, 9, 35, 98
11, 50664, Note_on_c, 9, 42, 87
11, 50664, Note_on_c, 9, 32, 30
11, 50664, Note_on_c, 9, 49, 47
11, 50665, Note_on_c, 9, 49, 0
11, 50665, Note_on_c, 9, 32, 0
11, 50752, Note_on_c, 9, 42, 0
11, 50752, Note_on_c, 9, 42, 87
11, 50848, Note_on_c, 9, 42, 0
11, 50848, Note_on_c, 9, 35, 0
11, 50848, Note_on_c, 9, 46, 87
11, 51048, Note_on_c, 9, 46, 0
11, 51048, Note_on_c, 9, 42, 87
11, 51048, Note_on_c, 9, 32, 28
11, 51049, Note_on_c, 9, 32, 0
11, 51136, Note_on_c, 9, 42, 0
11, 51136, Note_on_c, 9, 42, 87
11, 51232, Note_on_c, 9, 42, 0
11, 51232, Note_on_c, 9, 35, 120
11, 51232, Note_on_c, 9, 46, 87
11, 51328, Note_on_c, 9, 46, 0
11, 51328, Note_on_c, 9, 35, 0
11, 51424, Note_on_c, 9, 37, 96
11, 51424, Note_on_c, 9, 42, 87
11, 51424, Note_on_c, 9, 32, 32
11, 51425, Note_on_c, 9, 32, 0
11, 51520, Note_on_c, 9, 42, 0
11, 51520, Note_on_c, 9, 37, 0
11, 51520, Note_on_c, 9, 42, 87
11, 51616, Note_on_c, 9, 42, 0
11, 51616, Note_on_c, 9, 46, 87
11, 51712, Note_on_c, 9, 46, 0
11, 51712, Note_on_c, 9, 37, 110
11, 51808, Note_on_c, 9, 42, 87
11, 51808, Note_on_c, 9, 32, 46
11, 51809, Note_on_c, 9, 32, 0
11, 51809, Note_on_c, 9, 42, 0
11, 51904, Note_on_c, 9, 37, 0
11, 51904, Note_on_c, 9, 34, 22
11, 51904, Note_on_c, 9, 42, 87
11, 52000, Note_on_c, 9, 42, 0
11, 52000, Note_on_c, 9, 34, 0
11, 52000, Note_on_c, 9, 46, 87
11, 52000, Note_on_c, 9, 34, 44
11, 52000, Note_on_c, 9, 35, 112
11, 52001, Note_on_c, 9, 34, 0
11, 52096, Note_on_c, 9, 35, 0
11, 52096, Note_on_c, 9, 46, 0
11, 52096, Note_on_c, 9, 34, 127
11, 52192, Note_on_c, 9, 34, 0
11, 52192, Note_on_c, 9, 35, 114
11, 52192, Note_on_c, 9, 42, 87
11, 52192, Note_on_c, 9, 32, 30
11, 52193, Note_on_c, 9, 32, 0
11, 52193, Note_on_c, 9, 42, 0
11, 52288, Note_on_c, 9, 42, 87
11, 52289, Note_on_c, 9, 42, 0
11, 52384, Note_on_c, 9, 46, 87
11, 52480, Note_on_c, 9, 46, 0
11, 52480, Note_on_c, 9, 35, 0
11, 52576, Note_on_c, 9, 32, 28
11, 52576, Note_on_c, 9, 42, 87
11, 52577, Note_on_c, 9, 42, 0
11, 52577, Note_on_c, 9, 32, 0
11, 52672, Note_on_c, 9, 42, 87
11, 52673, Note_on_c, 9, 42, 0
11, 52768, Note_on_c, 9, 35, 121
11, 52768, Note_on_c, 9, 46, 87
11, 52864, Note_on_c, 9, 46, 0
11, 52960, Note_on_c, 9, 35, 0
11, 52960, Note_on_c, 9, 37, 118
11, 52960, Note_on_c, 9, 42, 87
11, 52960, Note_on_c, 9, 32, 32
11, 52961, Note_on_c, 9, 32, 0
11, 52961, Note_on_c, 9, 42, 0
11, 53056, Note_on_c, 9, 42, 87
11, 53152, Note_on_c, 9, 42, 0
11, 53152, Note_on_c, 9, 37, 0
11, 53152, Note_on_c, 9, 46, 87
11, 53248, Note_on_c, 9, 46, 0
11, 53248, Note_on_c, 9, 34, 26
11, 53249, Note_on_c, 9, 34, 0
11, 53344, Note_on_c, 9, 42, 87
11, 53344, Note_on_c, 9, 34, 16
11, 53344, Note_on_c, 9, 32, 46
11, 53345, Note_on_c, 9, 32, 0
11, 53345, Note_on_c, 9, 34, 0
11, 53440, Note_on_c, 9, 42, 0
11, 53440, Note_on_c, 9, 42, 87
11, 53440, Note_on_c, 9, 34, 30
11, 53441, Note_on_c, 9, 34, 0
11, 53536, Note_on_c, 9, 42, 0
11, 53536, Note_on_c, 9, 46, 87
11, 53536, Note_on_c, 9, 35, 118
11, 53632, Note_on_c, 9, 35, 0
11, 53632, Note_on_c, 9, 46, 0
11, 53632, Note_on_c, 9, 51, 84
11, 53632, Note_on_c, 9, 34, 108
11, 53728, Note_on_c, 9, 34, 0
11, 53728, Note_on_c, 9, 51, 0
11, 53728, Note_on_c, 9, 35, 98
11, 53728, Note_on_c, 9, 42, 87
11, 53728, Note_on_c, 9, 32, 30
11, 53729, Note_on_c, 9, 32, 0
11, 53824, Note_on_c, 9, 42, 0
11, 53824, Note_on_c, 9, 42, 87
11, 53920, Note_on_c, 9, 42, 0
11, 53920, Note_on_c, 9, 35, 0
11, 53920, Note_on_c, 9, 46, 87
11, 54112, Note_on_c, 9, 46, 0
11, 54112, Note_on_c, 9, 32, 28
11, 54112, Note_on_c, 9, 42, 87
11, 54113, Note_on_c, 9, 32, 0
11, 54208, Note_on_c, 9, 42, 0
11, 54208, Note_on_c, 9, 42, 87
11, 54304, Note_on_c, 9, 42, 0
11, 54304, Note_on_c, 9, 46, 87
11, 54304, Note_on_c, 9, 35, 120
11, 54400, Note_on_c, 9, 35, 0
11, 54400, Note_on_c, 9, 46, 0
11, 54496, Note_on_c, 9, 37, 96
11, 54496, Note_on_c, 9, 32, 32
11, 54496, Note_on_c, 9, 42, 87
11, 54497, Note_on_c, 9, 32, 0
11, 54592, Note_on_c, 9, 42, 0
11, 54592, Note_on_c, 9, 37, 0
11, 54592, Note_on_c, 9, 42, 87
11, 54688, Note_on_c, 9, 42, 0
11, 54688, Note_on_c, 9, 46, 87
11, 54784, Note_on_c, 9, 46, 0
11, 54784, Note_on_c, 9, 37, 110
11, 54880, Note_on_c, 9, 42, 87
11, 54880, Note_on_c, 9, 32, 46
11, 54881, Note_on_c, 9, 32, 0
11, 54881, Note_on_c, 9, 42, 0
11, 54976, Note_on_c, 9, 37, 0
11, 54976, Note_on_c, 9, 34, 47
11, 54976, Note_on_c, 9, 42, 87
11, 54977, Note_on_c, 9, 34, 0
11, 55072, Note_on_c, 9, 42, 0
11, 55072, Note_on_c, 9, 46, 87
11, 55072, Note_on_c, 9, 34, 69
11, 55072, Note_on_c, 9, 35, 112
11, 55072, Note_on_c, 9, 64, 29
11, 55073, Note_on_c, 9, 64, 0
11, 55168, Note_on_c, 9, 46, 0
11, 55168, Note_on_c, 9, 34, 0
11, 55168, Note_on_c, 9, 35, 0
11, 55168, Note_on_c, 9, 34, 94
11, 55264, Note_on_c, 9, 34, 0
11, 55264, Note_on_c, 9, 35, 114
11, 55264, Note_on_c, 9, 32, 30
11, 55264, Note_on_c, 9, 42, 87
11, 55265, Note_on_c, 9, 42, 0
11, 55265, Note_on_c, 9, 32, 0
11, 55360, Note_on_c, 9, 42, 87
11, 55361, Note_on_c, 9, 42, 0
11, 55456, Note_on_c, 9, 46, 87
11, 55552, Note_on_c, 9, 46, 0
11, 55552, Note_on_c, 9, 35, 0
11, 55648, Note_on_c, 9, 32, 28
11, 55648, Note_on_c, 9, 42, 87
11, 55649, Note_on_c, 9, 42, 0
11, 55649, Note_on_c, 9, 32, 0
11, 55744, Note_on_c, 9, 42, 87
11, 55745, Note_on_c, 9, 42, 0
11, 55840, Note_on_c, 9, 35, 121
11, 55840, Note_on_c, 9, 46, 87
11, 55936, Note_on_c, 9, 46, 0
11, 55936, Note_on_c, 9, 34, 82
11, 55936, Note_on_c, 9, 40, 25
11, 55937, Note_on_c, 9, 40, 0
11, 56032, Note_on_c, 9, 34, 0
11, 56032, Note_on_c, 9, 35, 0
11, 56032, Note_on_c, 9, 37, 118
11, 56032, Note_on_c, 9, 42, 87
11, 56032, Note_on_c, 9, 32, 32
11, 56033, Note_on_c, 9, 32, 0
11, 56033, Note_on_c, 9, 42, 0
11, 56128, Note_on_c, 9, 42, 87
11, 56224, Note_on_c, 9, 42, 0
11, 56224, Note_on_c, 9, 37, 0
11, 56224, Note_on_c, 9, 46, 87
11, 56320, Note_on_c, 9, 46, 0
11, 56416, Note_on_c, 9, 42, 87
11, 56416, Note_on_c, 9, 32, 46
11, 56417, Note_on_c, 9, 32, 0
11, 56512, Note_on_c, 9, 42, 0
11, 56512, Note_on_c, 9, 42, 87
11, 56608, Note_on_c, 9, 42, 0
11, 56608, Note_on_c, 9, 35, 118
11, 56608, Note_on_c, 9, 46, 87
11, 56704, Note_on_c, 9, 46, 0
11, 56704, Note_on_c, 9, 35, 0
11, 56800, Note_on_c, 9, 35, 98
11, 56800, Note_on_c, 9, 42, 87
11, 56800, Note_on_c, 9, 32, 30
11, 56801, Note_on_c, 9, 32, 0
11, 56896, Note_on_c, 9, 42, 0
11, 56896, Note_on_c, 9, 42, 87
11, 56992, Note_on_c, 9, 42, 0
11, 56992, Note_on_c, 9, 35, 0
11, 56992, Note_on_c, 9, 46, 87
11, 57184, Note_on_c, 9, 46, 0
11, 57184, Note_on_c, 9, 42, 87
11, 57184, Note_on_c, 9, 32, 28
11, 57184, Note_on_c, 9, 38, 18
11, 57185, Note_on_c, 9, 32, 0
11, 57280, Note_on_c, 9, 38, 0
11, 57280, Note_on_c, 9, 42, 0
11, 57280, Note_on_c, 9, 42, 87
11, 57280, Note_on_c, 9, 34, 18
11, 57281, Note_on_c, 9, 34, 0
11, 57376, Note_on_c, 9, 42, 0
11, 57376, Note_on_c, 9, 35, 120
11, 57376, Note_on_c, 9, 46, 87
11, 57376, Note_on_c, 9, 38, 59
11, 57472, Note_on_c, 9, 38, 0
11, 57472, Note_on_c, 9, 46, 0
11, 57472, Note_on_c, 9, 35, 0
11, 57472, Note_on_c, 9, 34, 59
11, 57473, Note_on_c, 9, 34, 0
11, 57568, Note_on_c, 9, 37, 96
11, 57568, Note_on_c, 9, 42, 87
11, 57568, Note_on_c, 9, 32, 32
11, 57569, Note_on_c, 9, 32, 0
11, 57664, Note_on_c, 9, 42, 0
11, 57664, Note_on_c, 9, 37, 0
11, 57664, Note_on_c, 9, 42, 87
11, 57760, Note_on_c, 9, 42, 0
11, 57760, Note_on_c, 9, 46, 87
11, 57856, Note_on_c, 9, 46, 0
11, 57856, Note_on_c, 9, 37, 110
11, 57952, Note_on_c, 9, 42, 87
11, 57952, Note_on_c, 9, 32, 46
11, 57953, Note_on_c, 9, 32, 0
11, 57953, Note_on_c, 9, 42, 0
11, 58048, Note_on_c, 9, 37, 0
11, 58048, Note_on_c, 9, 42, 87
11, 58144, Note_on_c, 9, 42, 0
11, 58144, Note_on_c, 9, 35, 112
11, 58144, Note_on_c, 9, 46, 87
11, 58144, Note_on_c, 9, 34, 18
11, 58145, Note_on_c, 9, 34, 0
11, 58240, Note_on_c, 9, 46, 0
11, 58240, Note_on_c, 9, 35, 0
11, 58240, Note_on_c, 9, 49, 58
11, 58240, Note_on_c, 9, 34, 84
11, 58241, Note_on_c, 9, 34, 0
11, 58336, Note_on_c, 9, 49, 0
11, 58336, Note_on_c, 9, 35, 114
11, 58336, Note_on_c, 9, 42, 87
11, 58336, Note_on_c, 9, 32, 30
11, 58337, Note_on_c, 9, 32, 0
11, 58337, Note_on_c, 9, 42, 0
11, 58432, Note_on_c, 9, 42, 87
11, 58433, Note_on_c, 9, 42, 0
11, 58528, Note_on_c, 9, 46, 87
11, 58624, Note_on_c, 9, 46, 0
11, 58624, Note_on_c, 9, 35, 0
11, 58720, Note_on_c, 9, 42, 87
11, 58720, Note_on_c, 9, 32, 28
11, 58721, Note_on_c, 9, 32, 0
11, 58721, Note_on_c, 9, 42, 0
11, 58816, Note_on_c, 9, 42, 87
11, 58816, Note_on_c, 9, 49, 68
11, 58816, Note_on_c, 9, 34, 104
11, 58817, Note_on_c, 9, 34, 0
11, 58817, Note_on_c, 9, 42, 0
11, 58912, Note_on_c, 9, 49, 0
11, 58912, Note_on_c, 9, 35, 121
11, 58912, Note_on_c, 9, 46, 87
11, 59008, Note_on_c, 9, 46, 0
11, 59104, Note_on_c, 9, 35, 0
11, 59104, Note_on_c, 9, 37, 118
11, 59104, Note_on_c, 9, 42, 87
11, 59104, Note_on_c, 9, 32, 32
11, 59105, Note_on_c, 9, 32, 0
11, 59105, Note_on_c, 9, 42, 0
11, 59200, Note_on_c, 9, 42, 87
11, 59296, Note_on_c, 9, 42, 0
11, 59296, Note_on_c, 9, 37, 0
11, 59296, Note_on_c, 9, 46, 87
11, 59392, Note_on_c, 9, 46, 0
11, 59488, Note_on_c, 9, 42, 87
11, 59488, Note_on_c, 9, 32, 46
11, 59489, Note_on_c, 9, 32, 0
11, 59584, Note_on_c, 9, 42, 0
11, 59584, Note_on_c, 9, 42, 87
11, 59680, Note_on_c, 9, 42, 0
11, 59680, Note_on_c, 9, 35, 118
11, 59680, Note_on_c, 9, 46, 87
11, 59776, Note_on_c, 9, 46, 0
11, 59776, Note_on_c, 9, 35, 0
11, 59872, Note_on_c, 9, 42, 87
11, 59872, Note_on_c, 9, 32, 30
11, 59872, Note_on_c, 9, 35, 98
11, 59873, Note_on_c, 9, 32, 0
11, 59968, Note_on_c, 9, 42, 0
11, 59968, Note_on_c, 9, 42, 87
11, 60064, Note_on_c, 9, 42, 0
11, 60064, Note_on_c, 9, 35, 0
11, 60064, Note_on_c, 9, 46, 87
11, 60256, Note_on_c, 9, 46, 0
11, 60256, Note_on_c, 9, 42, 87
11, 60256, Note_on_c, 9, 32, 28
11, 60257, Note_on_c, 9, 32, 0
11, 60352, Note_on_c, 9, 42, 0
11, 60352, Note_on_c, 9, 42, 87
11, 60448, Note_on_c, 9, 42, 0
11, 60448, Note_on_c, 9, 35, 120
11, 60448, Note_on_c, 9, 46, 87
11, 60544, Note_on_c, 9, 46, 0
11, 60544, Note_on_c, 9, 35, 0
11, 60640, Note_on_c, 9, 42, 87
11, 60640, Note_on_c, 9, 32, 32
11, 60640, Note_on_c, 9, 37, 96
11, 60641, Note_on_c, 9, 32, 0
11, 60736, Note_on_c, 9, 37, 0
11, 60736, Note_on_c, 9, 42, 0
11, 60736, Note_on_c, 9, 42, 87
11, 60736, Note_on_c, 9, 34, 31
11, 60737, Note_on_c, 9, 34, 0
11, 60832, Note_on_c, 9, 42, 0
11, 60832, Note_on_c, 9, 46, 87
11, 60928, Note_on_c, 9, 46, 0
11, 60928, Note_on_c, 9, 37, 110
11, 60928, Note_on_c, 9, 34, 33
11, 60929, Note_on_c, 9, 34, 0
11, 61024, Note_on_c, 9, 32, 46
11, 61024, Note_on_c, 9, 34, 94
11, 61024, Note_on_c, 9, 42, 87
11, 61025, Note_on_c, 9, 42, 0
11, 61025, Note_on_c, 9, 32, 0
11, 61120, Note_on_c, 9, 34, 0
11, 61120, Note_on_c, 9, 37, 0
11, 61120, Note_on_c, 9, 42, 87
11, 61216, Note_on_c, 9, 42, 0
11, 61216, Note_on_c, 9, 46, 87
11, 61216, Note_on_c, 9, 35, 112
11, 61312, Note_on_c, 9, 35, 0
11, 61312, Note_on_c, 9, 46, 0
11, 61408, Note_on_c, 9, 35, 114
11, 61408, Note_on_c, 9, 32, 30
11, 61408, Note_on_c, 9, 42, 87
11, 61409, Note_on_c, 9, 42, 0
11, 61409, Note_on_c, 9, 32, 0
11, 61504, Note_on_c, 9, 42, 87
11, 61504, Note_on_c, 9, 38, 50
11, 61505, Note_on_c, 9, 38, 0
11, 61505, Note_on_c, 9, 42, 0
11, 61600, Note_on_c, 9, 46, 87
11, 61696, Note_on_c, 9, 46, 0
11, 61696, Note_on_c, 9, 35, 0
11, 61696, Note_on_c, 9, 34, 39
11, 61697, Note_on_c, 9, 34, 0
11, 61792, Note_on_c, 9, 42, 87
11, 61792, Note_on_c, 9, 38, 86
11, 61792, Note_on_c, 9, 32, 28
11, 61793, Note_on_c, 9, 32, 0
11, 61793, Note_on_c, 9, 42, 0
11, 61888, Note_on_c, 9, 38, 0
11, 61888, Note_on_c, 9, 42, 87
11, 61889, Note_on_c, 9, 42, 0
11, 61984, Note_on_c, 9, 46, 87
11, 61984, Note_on_c, 9, 35, 121
11, 62080, Note_on_c, 9, 46, 0
11, 62080, Note_on_c, 9, 50, 74
11, 62081, Note_on_c, 9, 50, 0
11, 62176, Note_on_c, 9, 35, 0
11, 62176, Note_on_c, 9, 42, 87
11, 62176, Note_on_c, 9, 32, 32
11, 62176, Note_on_c, 9, 37, 118
11, 62177, Note_on_c, 9, 32, 0
11, 62177, Note_on_c, 9, 42, 0
11, 62272, Note_on_c, 9, 50, 67
11, 62272, Note_on_c, 9, 42, 87
11, 62273, Note_on_c, 9, 50, 0
11, 62368, Note_on_c, 9, 42, 0
11, 62368, Note_on_c, 9, 37, 0
11, 62368, Note_on_c, 9, 46, 87
11, 62368, Note_on_c, 9, 47, 86
11, 62464, Note_on_c, 9, 47, 0
11, 62464, Note_on_c, 9, 46, 0
11, 62560, Note_on_c, 9, 32, 46
11, 62560, Note_on_c, 9, 42, 87
11, 62561, Note_on_c, 9, 32, 0
11, 62656, Note_on_c, 9, 42, 0
11, 62656, Note_on_c, 9, 42, 87
11, 62656, Note_on_c, 9, 45, 21
11, 62657, Note_on_c, 9, 45, 0
11, 62752, Note_on_c, 9, 42, 0
11, 62752, Note_on_c, 9, 46, 87
11, 62752, Note_on_c, 9, 35, 118
11, 62848, Note_on_c, 9, 35, 0
11, 62848, Note_on_c, 9, 46, 0
11, 62848, Note_on_c, 9, 45, 80
11, 62848, Note_on_c, 9, 50, 65
11, 62848, Note_on_c, 9, 49, 72
11, 62849, Note_on_c, 9, 49, 0
11, 62849, Note_on_c, 9, 50, 0
11, 62849, Note_on_c, 9, 45, 0
11, 62944, Note_on_c, 9, 35, 100
11, 62944, Note_on_c, 9, 42, 87
11, 63040, Note_on_c, 9, 42, 0
11, 63040, Note_on_c, 9, 42, 87
11, 63136, Note_on_c, 9, 42, 0
11, 63136, Note_on_c, 9, 35, 0
11, 63136, Note_on_c, 9, 46, 87
11, 63328, Note_on_c, 9, 46, 0
11, 63328, Note_on_c, 9, 42, 87
11, 63424, Note_on_c, 9, 42, 0
11, 63424, Note_on_c, 9, 42, 87
11, 63520, Note_on_c, 9, 42, 0
11, 63520, Note_on_c, 9, 46, 87
11, 63520, Note_on_c, 9, 35, 102
11, 63521, Note_on_c, 9, 35, 0
11, 63616, Note_on_c, 9, 46, 0
11, 63712, Note_on_c, 9, 40, 123
11, 63712, Note_on_c, 9, 42, 87
11, 63808, Note_on_c, 9, 42, 0
11, 63808, Note_on_c, 9, 42, 87
11, 63904, Note_on_c, 9, 42, 0
11, 63904, Note_on_c, 9, 46, 87
11, 64000, Note_on_c, 9, 46, 0
11, 64000, Note_on_c, 9, 40, 0
11, 64096, Note_on_c, 9, 42, 87
11, 64097, Note_on_c, 9, 42, 0
11, 64192, Note_on_c, 9, 42, 87
11, 64288, Note_on_c, 9, 42, 0
11, 64288, Note_on_c, 9, 46, 87
11, 64384, Note_on_c, 9, 46, 0
11, 64480, Note_on_c, 9, 35, 100
11, 64480, Note_on_c, 9, 42, 87
11, 64481, Note_on_c, 9, 42, 0
11, 64576, Note_on_c, 9, 42, 87
11, 64577, Note_on_c, 9, 42, 0
11, 64672, Note_on_c, 9, 35, 0
11, 64672, Note_on_c, 9, 46, 87
11, 64760, Note_on_c, 9, 46, 0
11, 64856, Note_on_c, 9, 42, 87
11, 64857, Note_on_c, 9, 42, 0
11, 64960, Note_on_c, 9, 42, 87
11, 64961, Note_on_c, 9, 42, 0
11, 65056, Note_on_c, 9, 35, 102
11, 65056, Note_on_c, 9, 46, 87
11, 65057, Note_on_c, 9, 35, 0
11, 65144, Note_on_c, 9, 46, 0
11, 65240, Note_on_c, 9, 40, 123
11, 65240, Note_on_c, 9, 42, 87
11, 65241, Note_on_c, 9, 42, 0
11, 65336, Note_on_c, 9, 42, 87
11, 65432, Note_on_c, 9, 42, 0
11, 65432, Note_on_c, 9, 46, 87
11, 65528, Note_on_c, 9, 46, 0
11, 65528, Note_on_c, 9, 40, 0
11, 65624, Note_on_c, 9, 42, 87
11, 65720, Note_on_c, 9, 42, 0
11, 65720, Note_on_c, 9, 42, 87
11, 65816, Note_on_c, 9, 42, 0
11, 65816, Note_on_c, 9, 46, 87
11, 65912, Note_on_c, 9, 46, 0
11, 66008, Note_on_c, 9, 35, 100
11, 66008, Note_on_c, 9, 42, 87
11, 66104, Note_on_c, 9, 42, 0
11, 66104, Note_on_c, 9, 42, 87
11, 66200, Note_on_c, 9, 42, 0
11, 66200, Note_on_c, 9, 35, 0
11, 66200, Note_on_c, 9, 46, 87
11, 66392, Note_on_c, 9, 46, 0
11, 66392, Note_on_c, 9, 42, 87
11, 66488, Note_on_c, 9, 42, 0
11, 66488, Note_on_c, 9, 42, 87
11, 66584, Note_on_c, 9, 42, 0
11, 66584, Note_on_c, 9, 35, 102
11, 66584, Note_on_c, 9, 46, 87
11, 66585, Note_on_c, 9, 35, 0
11, 66680, Note_on_c, 9, 46, 0
11, 66776, Note_on_c, 9, 40, 123
11, 66776, Note_on_c, 9, 42, 87
11, 66872, Note_on_c, 9, 42, 0
11, 66872, Note_on_c, 9, 42, 87
11, 66968, Note_on_c, 9, 42, 0
11, 66968, Note_on_c, 9, 46, 87
11, 67064, Note_on_c, 9, 46, 0
11, 67064, Note_on_c, 9, 40, 0
11, 67160, Note_on_c, 9, 42, 87
11, 67161, Note_on_c, 9, 42, 0
11, 67256, Note_on_c, 9, 42, 87
11, 67352, Note_on_c, 9, 42, 0
11, 67352, Note_on_c, 9, 46, 87
11, 67448, Note_on_c, 9, 46, 0
11, 67544, Note_on_c, 9, 35, 100
11, 67544, Note_on_c, 9, 42, 87
11, 67545, Note_on_c, 9, 42, 0
11, 67640, Note_on_c, 9, 42, 87
11, 67641, Note_on_c, 9, 42, 0
11, 67736, Note_on_c, 9, 35, 0
11, 67736, Note_on_c, 9, 46, 87
11, 67832, Note_on_c, 9, 46, 0
11, 67928, Note_on_c, 9, 42, 87
11, 67929, Note_on_c, 9, 42, 0
11, 68024, Note_on_c, 9, 42, 87
11, 68025, Note_on_c, 9, 42, 0
11, 68120, Note_on_c, 9, 35, 102
11, 68120, Note_on_c, 9, 46, 87
11, 68121, Note_on_c, 9, 35, 0
11, 68216, Note_on_c, 9, 46, 0
11, 68312, Note_on_c, 9, 40, 123
11, 68312, Note_on_c, 9, 42, 87
11, 68313, Note_on_c, 9, 42, 0
11, 68408, Note_on_c, 9, 42, 87
11, 68504, Note_on_c, 9, 42, 0
11, 68504, Note_on_c, 9, 46, 87
11, 68600, Note_on_c, 9, 46, 0
11, 68600, Note_on_c, 9, 40, 0
11, 68696, Note_on_c, 9, 42, 87
11, 68792, Note_on_c, 9, 42, 0
11, 68792, Note_on_c, 9, 42, 87
11, 68888, Note_on_c, 9, 42, 0
11, 68888, Note_on_c, 9, 46, 87
11, 68984, Note_on_c, 9, 46, 0
11, 69080, Note_on_c, 9, 35, 100
11, 69080, Note_on_c, 9, 42, 87
11, 69176, Note_on_c, 9, 42, 0
11, 69176, Note_on_c, 9, 42, 87
11, 69272, Note_on_c, 9, 42, 0
11, 69272, Note_on_c, 9, 35, 0
11, 69272, Note_on_c, 9, 46, 87
11, 69464, Note_on_c, 9, 46, 0
11, 69464, Note_on_c, 9, 42, 87
11, 69560, Note_on_c, 9, 42, 0
11, 69560, Note_on_c, 9, 42, 87
11, 69656, Note_on_c, 9, 42, 0
11, 69656, Note_on_c, 9, 35, 102
11, 69656, Note_on_c, 9, 46, 87
11, 69657, Note_on_c, 9, 35, 0
11, 69752, Note_on_c, 9, 46, 0
11, 69848, Note_on_c, 9, 40, 123
11, 69848, Note_on_c, 9, 42, 87
11, 69944, Note_on_c, 9, 42, 0
11, 69944, Note_on_c, 9, 42, 87
11, 70040, Note_on_c, 9, 42, 0
11, 70040, Note_on_c, 9, 46, 87
11, 70136, Note_on_c, 9, 46, 0
11, 70136, Note_on_c, 9, 40, 0
11, 70232, Note_on_c, 9, 42, 87
11, 70233, Note_on_c, 9, 42, 0
11, 70328, Note_on_c, 9, 42, 87
11, 70424, Note_on_c, 9, 42, 0
11, 70424, Note_on_c, 9, 46, 87
11, 70520, Note_on_c, 9, 46, 0
11, 70616, Note_on_c, 9, 42, 87
11, 70616, Note_on_c, 9, 35, 100
11, 70617, Note_on_c, 9, 42, 0
11, 70712, Note_on_c, 9, 42, 87
11, 70713, Note_on_c, 9, 42, 0
11, 70808, Note_on_c, 9, 35, 0
11, 70808, Note_on_c, 9, 46, 87
11, 70904, Note_on_c, 9, 46, 0
11, 71000, Note_on_c, 9, 42, 87
11, 71001, Note_on_c, 9, 42, 0
11, 71096, Note_on_c, 9, 42, 87
11, 71097, Note_on_c, 9, 42, 0
11, 71192, Note_on_c, 9, 35, 102
11, 71192, Note_on_c, 9, 46, 87
11, 71193, Note_on_c, 9, 35, 0
11, 71288, Note_on_c, 9, 46, 0
11, 71384, Note_on_c, 9, 42, 87
11, 71384, Note_on_c, 9, 40, 123
11, 71385, Note_on_c, 9, 42, 0
11, 71480, Note_on_c, 9, 42, 87
11, 71576, Note_on_c, 9, 42, 0
11, 71576, Note_on_c, 9, 46, 87
11, 71672, Note_on_c, 9, 46, 0
11, 71672, Note_on_c, 9, 40, 0
11, 71768, Note_on_c, 9, 42, 87
11, 71864, Note_on_c, 9, 42, 0
11, 71864, Note_on_c, 9, 42, 87
11, 71960, Note_on_c, 9, 42, 0
11, 71960, Note_on_c, 9, 46, 87
11, 72056, Note_on_c, 9, 46, 0
11, 72152, Note_on_c, 9, 42, 87
11, 72152, Note_on_c, 9, 35, 100
11, 72248, Note_on_c, 9, 42, 0
11, 72248, Note_on_c, 9, 42, 87
11, 72344, Note_on_c, 9, 42, 0
11, 72344, Note_on_c, 9, 35, 0
11, 72344, Note_on_c, 9, 46, 87
11, 72536, Note_on_c, 9, 46, 0
11, 72536, Note_on_c, 9, 42, 87
11, 72632, Note_on_c, 9, 42, 0
11, 72632, Note_on_c, 9, 42, 87
11, 72728, Note_on_c, 9, 42, 0
11, 72728, Note_on_c, 9, 35, 102
11, 72728, Note_on_c, 9, 46, 87
11, 72729, Note_on_c, 9, 35, 0
11, 72824, Note_on_c, 9, 46, 0
11, 72920, Note_on_c, 9, 42, 87
11, 72920, Note_on_c, 9, 40, 123
11, 73016, Note_on_c, 9, 42, 0
11, 73016, Note_on_c, 9, 42, 87
11, 73112, Note_on_c, 9, 42, 0
11, 73112, Note_on_c, 9, 46, 87
11, 73208, Note_on_c, 9, 46, 0
11, 73208, Note_on_c, 9, 40, 0
11, 73304, Note_on_c, 9, 42, 87
11, 73305, Note_on_c, 9, 42, 0
11, 73400, Note_on_c, 9, 42, 87
11, 73496, Note_on_c, 9, 42, 0
11, 73496, Note_on_c, 9, 46, 87
11, 73592, Note_on_c, 9, 46, 0
11, 73688, Note_on_c, 9, 42, 87
11, 73688, Note_on_c, 9, 35, 100
11, 73689, Note_on_c, 9, 42, 0
11, 73784, Note_on_c, 9, 42, 87
11, 73785, Note_on_c, 9, 42, 0
11, 73880, Note_on_c, 9, 35, 0
11, 73880, Note_on_c, 9, 46, 87
11, 73976, Note_on_c, 9, 46, 0
11, 74072, Note_on_c, 9, 42, 87
11, 74073, Note_on_c, 9, 42, 0
11, 74168, Note_on_c, 9, 42, 87
11, 74169, Note_on_c, 9, 42, 0
11, 74264, Note_on_c, 9, 46, 87
11, 74264, Note_on_c, 9, 35, 102
11, 74265, Note_on_c, 9, 35, 0
11, 74360, Note_on_c, 9, 46, 0
11, 74456, Note_on_c, 9, 40, 123
11, 74456, Note_on_c, 9, 42, 87
11, 74457, Note_on_c, 9, 42, 0
11, 74552, Note_on_c, 9, 42, 87
11, 74648, Note_on_c, 9, 42, 0
11, 74648, Note_on_c, 9, 46, 87
11, 74744, Note_on_c, 9, 46, 0
11, 74744, Note_on_c, 9, 40, 0
11, 74840, Note_on_c, 9, 42, 87
11, 74936, Note_on_c, 9, 42, 0
11, 74936, Note_on_c, 9, 42, 87
11, 75032, Note_on_c, 9, 42, 0
11, 75032, Note_on_c, 9, 46, 87
11, 75128, Note_on_c, 9, 46, 0
11, 75224, Note_on_c, 9, 35, 100
11, 75224, Note_on_c, 9, 42, 87
11, 75320, Note_on_c, 9, 42, 0
11, 75320, Note_on_c, 9, 42, 87
11, 75416, Note_on_c, 9, 42, 0
11, 75416, Note_on_c, 9, 35, 0
11, 75416, Note_on_c, 9, 46, 87
11, 75608, Note_on_c, 9, 46, 0
11, 75608, Note_on_c, 9, 42, 87
11, 75704, Note_on_c, 9, 42, 0
11, 75704, Note_on_c, 9, 42, 87
11, 75800, Note_on_c, 9, 42, 0
11, 75800, Note_on_c, 9, 46, 87
11, 75800, Note_on_c, 9, 35, 102
11, 75801, Note_on_c, 9, 35, 0
11, 75896, Note_on_c, 9, 46, 0
11, 75992, Note_on_c, 9, 40, 123
11, 75992, Note_on_c, 9, 42, 87
11, 76088, Note_on_c, 9, 42, 0
11, 76088, Note_on_c, 9, 42, 87
11, 76184, Note_on_c, 9, 42, 0
11, 76184, Note_on_c, 9, 46, 87
11, 76280, Note_on_c, 9, 46, 0
11, 76280, Note_on_c, 9, 40, 0
11, 76376, Note_on_c, 9, 42, 87
11, 76377, Note_on_c, 9, 42, 0
11, 76472, Note_on_c, 9, 42, 87
11, 76568, Note_on_c, 9, 42, 0
11, 76568, Note_on_c, 9, 46, 87
11, 76664, Note_on_c, 9, 46, 0
11, 76760, Note_on_c, 9, 35, 100
11, 76760, Note_on_c, 9, 42, 87
11, 76761, Note_on_c, 9, 42, 0
11, 76856, Note_on_c, 9, 42, 87
11, 76857, Note_on_c, 9, 42, 0
11, 76952, Note_on_c, 9, 35, 0
11, 76952, Note_on_c, 9, 46, 87
11, 77048, Note_on_c, 9, 46, 0
11, 77144, Note_on_c, 9, 42, 87
11, 77145, Note_on_c, 9, 42, 0
11, 77240, Note_on_c, 9, 42, 87
11, 77241, Note_on_c, 9, 42, 0
11, 77336, Note_on_c, 9, 46, 87
11, 77336, Note_on_c, 9, 35, 102
11, 77337, Note_on_c, 9, 35, 0
11, 77432, Note_on_c, 9, 46, 0
11, 77528, Note_on_c, 9, 40, 123
11, 77528, Note_on_c, 9, 42, 87
11, 77529, Note_on_c, 9, 42, 0
11, 77624, Note_on_c, 9, 42, 87
11, 77720, Note_on_c, 9, 42, 0
11, 77720, Note_on_c, 9, 46, 87
11, 77816, Note_on_c, 9, 46, 0
11, 77816, Note_on_c, 9, 40, 0
11, 77912, Note_on_c, 9, 42, 87
11, 78008, Note_on_c, 9, 42, 0
11, 78008, Note_on_c, 9, 42, 87
11, 78104, Note_on_c, 9, 42, 0
11, 78104, Note_on_c, 9, 46, 87
11, 78200, Note_on_c, 9, 46, 0
11, 78296, Note_on_c, 9, 35, 100
11, 78296, Note_on_c, 9, 42, 87
11, 78392, Note_on_c, 9, 42, 0
11, 78392, Note_on_c, 9, 42, 87
11, 78488, Note_on_c, 9, 42, 0
11, 78488, Note_on_c, 9, 35, 0
11, 78488, Note_on_c, 9, 46, 87
11, 78680, Note_on_c, 9, 46, 0
11, 78680, Note_on_c, 9, 42, 87
11, 78776, Note_on_c, 9, 42, 0
11, 78776, Note_on_c, 9, 42, 87
11, 78872, Note_on_c, 9, 42, 0
11, 78872, Note_on_c, 9, 46, 87
11, 78872, Note_on_c, 9, 35, 102
11, 78873, Note_on_c, 9, 35, 0
11, 78968, Note_on_c, 9, 46, 0
11, 79064, Note_on_c, 9, 40, 123
11, 79064, Note_on_c, 9, 42, 87
11, 79160, Note_on_c, 9, 42, 0
11, 79160, Note_on_c, 9, 42, 87
11, 79248, Note_on_c, 9, 42, 0
11, 79248, Note_on_c, 9, 46, 87
11, 79352, Note_on_c, 9, 46, 0
11, 79352, Note_on_c, 9, 40, 0
11, 79448, Note_on_c, 9, 42, 87
11, 79449, Note_on_c, 9, 42, 0
11, 79536, Note_on_c, 9, 42, 87
11, 79632, Note_on_c, 9, 42, 0
11, 79632, Note_on_c, 9, 46, 87
11, 79736, Note_on_c, 9, 46, 0
11, 79824, Note_on_c, 9, 42, 87
11, 79824, Note_on_c, 9, 35, 100
11, 79825, Note_on_c, 9, 42, 0
11, 79920, Note_on_c, 9, 42, 87
11, 79921, Note_on_c, 9, 42, 0
11, 80024, Note_on_c, 9, 35, 0
11, 80024, Note_on_c, 9, 46, 87
11, 80112, Note_on_c, 9, 46, 0
11, 80208, Note_on_c, 9, 42, 87
11, 80209, Note_on_c, 9, 42, 0
11, 80304, Note_on_c, 9, 42, 87
11, 80305, Note_on_c, 9, 42, 0
11, 80400, Note_on_c, 9, 46, 87
11, 80400, Note_on_c, 9, 35, 102
11, 80401, Note_on_c, 9, 35, 0
11, 80496, Note_on_c, 9, 46, 0
11, 80592, Note_on_c, 9, 40, 123
11, 80592, Note_on_c, 9, 42, 88
11, 80593, Note_on_c, 9, 42, 0
11, 80688, Note_on_c, 9, 42, 88
11, 80784, Note_on_c, 9, 42, 0
11, 80784, Note_on_c, 9, 46, 87
11, 80880, Note_on_c, 9, 46, 0
11, 80880, Note_on_c, 9, 40, 0
11, 80976, Note_on_c, 9, 42, 88
11, 81072, Note_on_c, 9, 42, 0
11, 81072, Note_on_c, 9, 42, 88
11, 81168, Note_on_c, 9, 42, 0
11, 81168, Note_on_c, 9, 46, 87
11, 81264, Note_on_c, 9, 46, 0
11, 81360, Note_on_c, 9, 42, 88
11, 81360, Note_on_c, 9, 35, 100
11, 81456, Note_on_c, 9, 42, 0
11, 81456, Note_on_c, 9, 42, 88
11, 81552, Note_on_c, 9, 42, 0
11, 81552, Note_on_c, 9, 35, 0
11, 81552, Note_on_c, 9, 46, 87
11, 81744, Note_on_c, 9, 46, 0
11, 81744, Note_on_c, 9, 42, 88
11, 81840, Note_on_c, 9, 42, 0
11, 81840, Note_on_c, 9, 42, 88
11, 81936, Note_on_c, 9, 42, 0
11, 81936, Note_on_c, 9, 46, 87
11, 81936, Note_on_c, 9, 35, 102
11, 81937, Note_on_c, 9, 35, 0
11, 82032, Note_on_c, 9, 46, 0
11, 82128, Note_on_c, 9, 40, 123
11, 82128, Note_on_c, 9, 42, 88
11, 82224, Note_on_c, 9, 42, 0
11, 82224, Note_on_c, 9, 42, 88
11, 82320, Note_on_c, 9, 42, 0
11, 82320, Note_on_c, 9, 46, 87
11, 82416, Note_on_c, 9, 46, 0
11, 82416, Note_on_c, 9, 40, 0
11, 82512, Note_on_c, 9, 42, 88
11, 82513, Note_on_c, 9, 42, 0
11, 82608, Note_on_c, 9, 42, 88
11, 82704, Note_on_c, 9, 42, 0
11, 82704, Note_on_c, 9, 46, 87
11, 82800, Note_on_c, 9, 46, 0
11, 82896, Note_on_c, 9, 42, 88
11, 82896, Note_on_c, 9, 35, 100
11, 82897, Note_on_c, 9, 42, 0
11, 82992, Note_on_c, 9, 42, 88
11, 82993, Note_on_c, 9, 42, 0
11, 83088, Note_on_c, 9, 35, 0
11, 83088, Note_on_c, 9, 46, 87
11, 83184, Note_on_c, 9, 46, 0
11, 83280, Note_on_c, 9, 42, 88
11, 83281, Note_on_c, 9, 42, 0
11, 83376, Note_on_c, 9, 42, 88
11, 83377, Note_on_c, 9, 42, 0
11, 83472, Note_on_c, 9, 46, 87
11, 83472, Note_on_c, 9, 35, 102
11, 83473, Note_on_c, 9, 35, 0
11, 83568, Note_on_c, 9, 46, 0
11, 83664, Note_on_c, 9, 42, 88
11, 83664, Note_on_c, 9, 40, 123
11, 83665, Note_on_c, 9, 42, 0
11, 83760, Note_on_c, 9, 42, 88
11, 83856, Note_on_c, 9, 42, 0
11, 83856, Note_on_c, 9, 46, 87
11, 83952, Note_on_c, 9, 46, 0
11, 83952, Note_on_c, 9, 40, 0
11, 84048, Note_on_c, 9, 42, 88
11, 84144, Note_on_c, 9, 42, 0
11, 84144, Note_on_c, 9, 42, 88
11, 84240, Note_on_c, 9, 42, 0
11, 84240, Note_on_c, 9, 46, 87
11, 84336, Note_on_c, 9, 46, 0
11, 84432, Note_on_c, 9, 35, 100
11, 84432, Note_on_c, 9, 42, 88
11, 84528, Note_on_c, 9, 42, 0
11, 84528, Note_on_c, 9, 42, 88
11, 84624, Note_on_c, 9, 42, 0
11, 84624, Note_on_c, 9, 35, 0
11, 84624, Note_on_c, 9, 46, 87
11, 84816, Note_on_c, 9, 46, 0
11, 84816, Note_on_c, 9, 42, 88
11, 84912, Note_on_c, 9, 42, 0
11, 84912, Note_on_c, 9, 42, 88
11, 85008, Note_on_c, 9, 42, 0
11, 85008, Note_on_c, 9, 35, 102
11, 85008, Note_on_c, 9, 46, 87
11, 85009, Note_on_c, 9, 35, 0
11, 85104, Note_on_c, 9, 46, 0
11, 85200, Note_on_c, 9, 42, 88
11, 85200, Note_on_c, 9, 40, 123
11, 85296, Note_on_c, 9, 42, 0
11, 85296, Note_on_c, 9, 42, 88
11, 85392, Note_on_c, 9, 42, 0
11, 85392, Note_on_c, 9, 46, 87
11, 85488, Note_on_c, 9, 46, 0
11, 85488, Note_on_c, 9, 40, 0
11, 85584, Note_on_c, 9, 42, 88
11, 85585, Note_on_c, 9, 42, 0
11, 85680, Note_on_c, 9, 42, 88
11, 85776, Note_on_c, 9, 42, 0
11, 85776, Note_on_c, 9, 46, 87
11, 85872, Note_on_c, 9, 46, 0
11, 85968, Note_on_c, 9, 35, 100
11, 85968, Note_on_c, 9, 42, 88
11, 85969, Note_on_c, 9, 42, 0
11, 86064, Note_on_c, 9, 42, 88
11, 86065, Note_on_c, 9, 42, 0
11, 86160, Note_on_c, 9, 35, 0
11, 86160, Note_on_c, 9, 46, 87
11, 86256, Note_on_c, 9, 46, 0
11, 86352, Note_on_c, 9, 42, 88
11, 86353, Note_on_c, 9, 42, 0
11, 86448, Note_on_c, 9, 42, 88
11, 86449, Note_on_c, 9, 42, 0
11, 86544, Note_on_c, 9, 35, 102
11, 86544, Note_on_c, 9, 46, 87
11, 86545, Note_on_c, 9, 35, 0
11, 86640, Note_on_c, 9, 46, 0
11, 86736, Note_on_c, 9, 42, 88
11, 86736, Note_on_c, 9, 40, 123
11, 86737, Note_on_c, 9, 42, 0
11, 86832, Note_on_c, 9, 42, 88
11, 86928, Note_on_c, 9, 42, 0
11, 86928, Note_on_c, 9, 46, 87
11, 87024, Note_on_c, 9, 46, 0
11, 87024, Note_on_c, 9, 40, 0
11, 87120, Note_on_c, 9, 42, 88
11, 87216, Note_on_c, 9, 42, 0
11, 87216, Note_on_c, 9, 42, 88
11, 87312, Note_on_c, 9, 42, 0
11, 87312, Note_on_c, 9, 46, 87
11, 87408, Note_on_c, 9, 46, 0
11, 87504, Note_on_c, 9, 42, 88
11, 87600, Note_on_c, 9, 42, 0
11, 87600, Note_on_c, 9, 42, 88
11, 87696, Note_on_c, 9, 42, 0
11, 87696, Note_on_c, 9, 46, 87
11, 87888, Note_on_c, 9, 46, 0
11, 87888, Note_on_c, 9, 42, 88
11, 87984, Note_on_c, 9, 42, 0
11, 87984, Note_on_c, 9, 42, 88
11, 88080, Note_on_c, 9, 42, 0
11, 88080, Note_on_c, 9, 35, 53
11, 88080, Note_on_c, 9, 46, 87
11, 88081, Note_on_c, 9, 35, 0
11, 88176, Note_on_c, 9, 46, 0
11, 88272, Note_on_c, 9, 35, 108
11, 88272, Note_on_c, 9, 42, 88
11, 88272, Note_on_c, 9, 37, 88
11, 88368, Note_on_c, 9, 42, 0
11, 88368, Note_on_c, 9, 42, 88
11, 88464, Note_on_c, 9, 42, 0
11, 88464, Note_on_c, 9, 37, 0
11, 88464, Note_on_c, 9, 35, 0
11, 88464, Note_on_c, 9, 46, 87
11, 88560, Note_on_c, 9, 46, 0
11, 88560, Note_on_c, 9, 35, 112
11, 88560, Note_on_c, 9, 37, 106
11, 88656, Note_on_c, 9, 35, 0
11, 88656, Note_on_c, 9, 42, 88
11, 88657, Note_on_c, 9, 42, 0
11, 88752, Note_on_c, 9, 37, 0
11, 88752, Note_on_c, 9, 42, 88
11, 88848, Note_on_c, 9, 42, 0
11, 88848, Note_on_c, 9, 46, 87
11, 88944, Note_on_c, 9, 46, 0
11, 89040, Note_on_c, 9, 42, 88
11, 89040, Note_on_c, 9, 35, 104
11, 89041, Note_on_c, 9, 42, 0
11, 89136, Note_on_c, 9, 35, 0
11, 89136, Note_on_c, 9, 42, 88
11, 89137, Note_on_c, 9, 42, 0
11, 89232, Note_on_c, 9, 35, 108
11, 89232, Note_on_c, 9, 46, 87
11, 89328, Note_on_c, 9, 46, 0
11, 89328, Note_on_c, 9, 35, 0
11, 89424, Note_on_c, 9, 35, 120
11, 89424, Note_on_c, 9, 42, 88
11, 89425, Note_on_c, 9, 42, 0
11, 89520, Note_on_c, 9, 42, 88
11, 89521, Note_on_c, 9, 42, 0
11, 89616, Note_on_c, 9, 35, 0
11, 89616, Note_on_c, 9, 46, 87
11, 89712, Note_on_c, 9, 46, 0
11, 89808, Note_on_c, 9, 42, 88
11, 89808, Note_on_c, 9, 37, 123
11, 89809, Note_on_c, 9, 42, 0
11, 89904, Note_on_c, 9, 37, 0
11, 89904, Note_on_c, 9, 42, 88
11, 90000, Note_on_c, 9, 42, 0
11, 90000, Note_on_c, 9, 46, 87
11, 90096, Note_on_c, 9, 46, 0
11, 90192, Note_on_c, 9, 42, 88
11, 90288, Note_on_c, 9, 42, 0
11, 90288, Note_on_c, 9, 42, 88
11, 90288, Note_on_c, 9, 34, 18
11, 90384, Note_on_c, 9, 34, 0
11, 90384, Note_on_c, 9, 42, 0
11, 90384, Note_on_c, 9, 46, 87
11, 90480, Note_on_c, 9, 46, 0
11, 90480, Note_on_c, 9, 34, 110
11, 90576, Note_on_c, 9, 34, 0
11, 90576, Note_on_c, 9, 42, 88
11, 90672, Note_on_c, 9, 42, 0
11, 90672, Note_on_c, 9, 42, 88
11, 90768, Note_on_c, 9, 42, 0
11, 90768, Note_on_c, 9, 46, 87
11, 90960, Note_on_c, 9, 46, 0
11, 90960, Note_on_c, 9, 42, 88
11, 91056, Note_on_c, 9, 42, 0
11, 91056, Note_on_c, 9, 42, 88
11, 91152, Note_on_c, 9, 42, 0
11, 91152, Note_on_c, 9, 35, 53
11, 91152, Note_on_c, 9, 46, 87
11, 91153, Note_on_c, 9, 35, 0
11, 91248, Note_on_c, 9, 46, 0
11, 91344, Note_on_c, 9, 35, 108
11, 91344, Note_on_c, 9, 42, 88
11, 91344, Note_on_c, 9, 37, 88
11, 91440, Note_on_c, 9, 42, 0
11, 91440, Note_on_c, 9, 42, 88
11, 91536, Note_on_c, 9, 42, 0
11, 91536, Note_on_c, 9, 37, 0
11, 91536, Note_on_c, 9, 35, 0
11, 91536, Note_on_c, 9, 46, 87
11, 91632, Note_on_c, 9, 46, 0
11, 91632, Note_on_c, 9, 35, 112
11, 91632, Note_on_c, 9, 37, 106
11, 91728, Note_on_c, 9, 35, 0
11, 91728, Note_on_c, 9, 42, 88
11, 91729, Note_on_c, 9, 42, 0
11, 91824, Note_on_c, 9, 37, 0
11, 91824, Note_on_c, 9, 42, 88
11, 91920, Note_on_c, 9, 42, 0
11, 91920, Note_on_c, 9, 46, 87
11, 92016, Note_on_c, 9, 46, 0
11, 92112, Note_on_c, 9, 35, 104
11, 92112, Note_on_c, 9, 42, 88
11, 92113, Note_on_c, 9, 42, 0
11, 92208, Note_on_c, 9, 35, 0
11, 92208, Note_on_c, 9, 42, 88
11, 92209, Note_on_c, 9, 42, 0
11, 92304, Note_on_c, 9, 35, 108
11, 92304, Note_on_c, 9, 46, 87
11, 92400, Note_on_c, 9, 46, 0
11, 92400, Note_on_c, 9, 35, 0
11, 92496, Note_on_c, 9, 35, 120
11, 92496, Note_on_c, 9, 42, 88
11, 92497, Note_on_c, 9, 42, 0
11, 92592, Note_on_c, 9, 42, 88
11, 92593, Note_on_c, 9, 42, 0
11, 92688, Note_on_c, 9, 35, 0
11, 92688, Note_on_c, 9, 46, 87
11, 92784, Note_on_c, 9, 46, 0
11, 92880, Note_on_c, 9, 42, 88
11, 92880, Note_on_c, 9, 37, 123
11, 92881, Note_on_c, 9, 42, 0
11, 92976, Note_on_c, 9, 37, 0
11, 92976, Note_on_c, 9, 42, 88
11, 93072, Note_on_c, 9, 42, 0
11, 93072, Note_on_c, 9, 46, 87
11, 93168, Note_on_c, 9, 46, 0
11, 93264, Note_on_c, 9, 42, 88
11, 93352, Note_on_c, 9, 42, 0
11, 93352, Note_on_c, 9, 42, 88
11, 93352, Note_on_c, 9, 34, 116
11, 93352, Note_on_c, 9, 53, 18
11, 93353, Note_on_c, 9, 53, 0
11, 93353, Note_on_c, 9, 34, 0
11, 93456, Note_on_c, 9, 42, 0
11, 93456, Note_on_c, 9, 46, 87
11, 93456, Note_on_c, 9, 38, 45
11, 93457, Note_on_c, 9, 38, 0
11, 93544, Note_on_c, 9, 46, 0
11, 93640, Note_on_c, 9, 42, 88
11, 93744, Note_on_c, 9, 42, 0
11, 93744, Note_on_c, 9, 42, 88
11, 93840, Note_on_c, 9, 42, 0
11, 93840, Note_on_c, 9, 46, 87
11, 94032, Note_on_c, 9, 46, 0
11, 94032, Note_on_c, 9, 42, 88
11, 94120, Note_on_c, 9, 42, 0
11, 94120, Note_on_c, 9, 42, 88
11, 94216, Note_on_c, 9, 42, 0
11, 94216, Note_on_c, 9, 35, 53
11, 94216, Note_on_c, 9, 46, 87
11, 94217, Note_on_c, 9, 35, 0
11, 94312, Note_on_c, 9, 46, 0
11, 94416, Note_on_c, 9, 35, 108
11, 94416, Note_on_c, 9, 42, 88
11, 94416, Note_on_c, 9, 37, 88
11, 94504, Note_on_c, 9, 42, 0
11, 94504, Note_on_c, 9, 42, 88
11, 94608, Note_on_c, 9, 42, 0
11, 94608, Note_on_c, 9, 37, 0
11, 94608, Note_on_c, 9, 35, 0
11, 94608, Note_on_c, 9, 46, 87
11, 94696, Note_on_c, 9, 46, 0
11, 94696, Note_on_c, 9, 35, 112
11, 94696, Note_on_c, 9, 37, 106
11, 94800, Note_on_c, 9, 35, 0
11, 94800, Note_on_c, 9, 42, 88
11, 94801, Note_on_c, 9, 42, 0
11, 94896, Note_on_c, 9, 37, 0
11, 94896, Note_on_c, 9, 42, 88
11, 94984, Note_on_c, 9, 42, 0
11, 94984, Note_on_c, 9, 46, 87
11, 95080, Note_on_c, 9, 46, 0
11, 95176, Note_on_c, 9, 42, 88
11, 95176, Note_on_c, 9, 35, 104
11, 95177, Note_on_c, 9, 42, 0
11, 95272, Note_on_c, 9, 35, 0
11, 95272, Note_on_c, 9, 42, 88
11, 95273, Note_on_c, 9, 42, 0
11, 95368, Note_on_c, 9, 46, 87
11, 95368, Note_on_c, 9, 35, 108
11, 95464, Note_on_c, 9, 35, 0
11, 95464, Note_on_c, 9, 46, 0
11, 95560, Note_on_c, 9, 35, 120
11, 95560, Note_on_c, 9, 42, 88
11, 95561, Note_on_c, 9, 42, 0
11, 95656, Note_on_c, 9, 42, 88
11, 95657, Note_on_c, 9, 42, 0
11, 95752, Note_on_c, 9, 35, 0
11, 95752, Note_on_c, 9, 46, 87
11, 95848, Note_on_c, 9, 46, 0
11, 95944, Note_on_c, 9, 42, 88
11, 95944, Note_on_c, 9, 37, 123
11, 95945, Note_on_c, 9, 42, 0
11, 96040, Note_on_c, 9, 37, 0
11, 96040, Note_on_c, 9, 42, 88
11, 96136, Note_on_c, 9, 42, 0
11, 96136, Note_on_c, 9, 46, 87
11, 96232, Note_on_c, 9, 46, 0
11, 96328, Note_on_c, 9, 42, 88
11, 96424, Note_on_c, 9, 42, 0
11, 96424, Note_on_c, 9, 42, 88
11, 96520, Note_on_c, 9, 42, 0
11, 96520, Note_on_c, 9, 46, 87
11, 96616, Note_on_c, 9, 46, 0
11, 96712, Note_on_c, 9, 42, 88
11, 96808, Note_on_c, 9, 42, 0
11, 96808, Note_on_c, 9, 42, 88
11, 96904, Note_on_c, 9, 42, 0
11, 96904, Note_on_c, 9, 46, 87
11, 97096, Note_on_c, 9, 46, 0
11, 97096, Note_on_c, 9, 42, 88
11, 97192, Note_on_c, 9, 42, 0
11, 97192, Note_on_c, 9, 42, 88
11, 97288, Note_on_c, 9, 42, 0
11, 97288, Note_on_c, 9, 35, 53
11, 97288, Note_on_c, 9, 46, 87
11, 97289, Note_on_c, 9, 35, 0
11, 97384, Note_on_c, 9, 46, 0
11, 97480, Note_on_c, 9, 35, 108
11, 97480, Note_on_c, 9, 42, 88
11, 97480, Note_on_c, 9, 37, 88
11, 97576, Note_on_c, 9, 42, 0
11, 97576, Note_on_c, 9, 42, 88
11, 97672, Note_on_c, 9, 42, 0
11, 97672, Note_on_c, 9, 37, 0
11, 97672, Note_on_c, 9, 35, 0
11, 97672, Note_on_c, 9, 46, 87
11, 97768, Note_on_c, 9, 46, 0
11, 97768, Note_on_c, 9, 35, 112
11, 97768, Note_on_c, 9, 37, 106
11, 97864, Note_on_c, 9, 35, 0
11, 97864, Note_on_c, 9, 42, 88
11, 97865, Note_on_c, 9, 42, 0
11, 97960, Note_on_c, 9, 37, 0
11, 97960, Note_on_c, 9, 42, 88
11, 98056, Note_on_c, 9, 42, 0
11, 98056, Note_on_c, 9, 46, 87
11, 98152, Note_on_c, 9, 46, 0
11, 98248, Note_on_c, 9, 42, 88
11, 98248, Note_on_c, 9, 35, 104
11, 98249, Note_on_c, 9, 42, 0
11, 98344, Note_on_c, 9, 35, 0
11, 98344, Note_on_c, 9, 38, 30
11, 98344, Note_on_c, 9, 42, 88
11, 98345, Note_on_c, 9, 42, 0
11, 98440, Note_on_c, 9, 38, 0
11, 98440, Note_on_c, 9, 35, 108
11, 98440, Note_on_c, 9, 46, 87
11, 98536, Note_on_c, 9, 46, 0
11, 98536, Note_on_c, 9, 35, 0
11, 98536, Note_on_c, 9, 38, 46
11, 98632, Note_on_c, 9, 38, 0
11, 98632, Note_on_c, 9, 35, 120
11, 98632, Note_on_c, 9, 38, 22
11, 98632, Note_on_c, 9, 42, 88
11, 98633, Note_on_c, 9, 42, 0
11, 98633, Note_on_c, 9, 38, 0
11, 98728, Note_on_c, 9, 42, 88
11, 98728, Note_on_c, 9, 34, 114
11, 98728, Note_on_c, 9, 53, 23
11, 98729, Note_on_c, 9, 53, 0
11, 98729, Note_on_c, 9, 42, 0
11, 98824, Note_on_c, 9, 34, 0
11, 98824, Note_on_c, 9, 35, 0
11, 98824, Note_on_c, 9, 46, 87
11, 98920, Note_on_c, 9, 46, 0
11, 99016, Note_on_c, 9, 42, 88
11, 99016, Note_on_c, 9, 37, 123
11, 99017, Note_on_c, 9, 42, 0
11, 99112, Note_on_c, 9, 37, 0
11, 99112, Note_on_c, 9, 34, 36
11, 99112, Note_on_c, 9, 42, 88
11, 99113, Note_on_c, 9, 34, 0
11, 99208, Note_on_c, 9, 42, 0
11, 99208, Note_on_c, 9, 46, 87
11, 99304, Note_on_c, 9, 46, 0
11, 99304, Note_on_c, 9, 34, 23
11, 99305, Note_on_c, 9, 34, 0
11, 99400, Note_on_c, 9, 50, 58
11, 99400, Note_on_c, 9, 42, 88
11, 99401, Note_on_c, 9, 50, 0
11, 99496, Note_on_c, 9, 42, 0
11, 99496, Note_on_c, 9, 42, 88
11, 99496, Note_on_c, 9, 50, 94
11, 99592, Note_on_c, 9, 50, 0
11, 99592, Note_on_c, 9, 42, 0
11, 99592, Note_on_c, 9, 47, 65
11, 99592, Note_on_c, 9, 46, 87
11, 99593, Note_on_c, 9, 47, 0
11, 99688, Note_on_c, 9, 46, 0
11, 99688, Note_on_c, 9, 47, 116
11, 99784, Note_on_c, 9, 47, 0
11, 99784, Note_on_c, 9, 42, 88
11, 99880, Note_on_c, 9, 42, 0
11, 99880, Note_on_c, 9, 42, 88
11, 99976, Note_on_c, 9, 42, 0
11, 99976, Note_on_c, 9, 46, 87
11, 100168, Note_on_c, 9, 46, 0
11, 100168, Note_on_c, 9, 42, 88
11, 100264, Note_on_c, 9, 42, 0
11, 100264, Note_on_c, 9, 42, 88
11, 100360, Note_on_c, 9, 42, 0
11, 100360, Note_on_c, 9, 35, 53
11, 100360, Note_on_c, 9, 46, 87
11, 100361, Note_on_c, 9, 35, 0
11, 100456, Note_on_c, 9, 46, 0
11, 100552, Note_on_c, 9, 35, 108
11, 100552, Note_on_c, 9, 42, 88
11, 100552, Note_on_c, 9, 37, 88
11, 100648, Note_on_c, 9, 42, 0
11, 100648, Note_on_c, 9, 42, 88
11, 100744, Note_on_c, 9, 42, 0
11, 100744, Note_on_c, 9, 37, 0
11, 100744, Note_on_c, 9, 35, 0
11, 100744, Note_on_c, 9, 46, 88
11, 100840, Note_on_c, 9, 46, 0
11, 100840, Note_on_c, 9, 35, 112
11, 100840, Note_on_c, 9, 37, 106
11, 100936, Note_on_c, 9, 35, 0
11, 100936, Note_on_c, 9, 42, 88
11, 100937, Note_on_c, 9, 42, 0
11, 101032, Note_on_c, 9, 37, 0
11, 101032, Note_on_c, 9, 42, 88
11, 101032, Note_on_c, 9, 34, 23
11, 101033, Note_on_c, 9, 34, 0
11, 101128, Note_on_c, 9, 42, 0
11, 101128, Note_on_c, 9, 46, 88
11, 101128, Note_on_c, 9, 34, 41
11, 101129, Note_on_c, 9, 34, 0
11, 101224, Note_on_c, 9, 46, 0
11, 101224, Note_on_c, 9, 34, 120
11, 101224, Note_on_c, 9, 40, 28
11, 101225, Note_on_c, 9, 40, 0
11, 101320, Note_on_c, 9, 34, 0
11, 101320, Note_on_c, 9, 35, 104
11, 101320, Note_on_c, 9, 42, 88
11, 101321, Note_on_c, 9, 42, 0
11, 101416, Note_on_c, 9, 35, 0
11, 101416, Note_on_c, 9, 42, 88
11, 101416, Note_on_c, 9, 38, 84
11, 101417, Note_on_c, 9, 42, 0
11, 101512, Note_on_c, 9, 38, 0
11, 101512, Note_on_c, 9, 35, 108
11, 101512, Note_on_c, 9, 46, 88
11, 101512, Note_on_c, 9, 34, 56
11, 101513, Note_on_c, 9, 34, 0
11, 101608, Note_on_c, 9, 46, 0
11, 101608, Note_on_c, 9, 35, 0
11, 101704, Note_on_c, 9, 35, 120
11, 101704, Note_on_c, 9, 42, 88
11, 101705, Note_on_c, 9, 42, 0
11, 101800, Note_on_c, 9, 42, 88
11, 101801, Note_on_c, 9, 42, 0
11, 101896, Note_on_c, 9, 35, 0
11, 101896, Note_on_c, 9, 46, 88
11, 101992, Note_on_c, 9, 46, 0
11, 102088, Note_on_c, 9, 42, 88
11, 102088, Note_on_c, 9, 37, 123
11, 102089, Note_on_c, 9, 42, 0
11, 102184, Note_on_c, 9, 37, 0
11, 102184, Note_on_c, 9, 42, 88
11, 102280, Note_on_c, 9, 42, 0
11, 102280, Note_on_c, 9, 46, 88
11, 102376, Note_on_c, 9, 46, 0
11, 102472, Note_on_c, 9, 42, 88
11, 102568, Note_on_c, 9, 42, 0
11, 102568, Note_on_c, 9, 42, 88
11, 102664, Note_on_c, 9, 42, 0
11, 102664, Note_on_c, 9, 46, 88
11, 102760, Note_on_c, 9, 46, 0
11, 102856, Note_on_c, 9, 42, 88
11, 102952, Note_on_c, 9, 42, 0
11, 102952, Note_on_c, 9, 42, 88
11, 103048, Note_on_c, 9, 42, 0
11, 103048, Note_on_c, 9, 46, 88
11, 103240, Note_on_c, 9, 46, 0
11, 103240, Note_on_c, 9, 42, 88
11, 103336, Note_on_c, 9, 42, 0
11, 103336, Note_on_c, 9, 42, 88
11, 103432, Note_on_c, 9, 42, 0
11, 103432, Note_on_c, 9, 35, 53
11, 103432, Note_on_c, 9, 46, 88
11, 103433, Note_on_c, 9, 35, 0
11, 103528, Note_on_c, 9, 46, 0
11, 103624, Note_on_c, 9, 35, 108
11, 103624, Note_on_c, 9, 42, 88
11, 103624, Note_on_c, 9, 37, 88
11, 103720, Note_on_c, 9, 42, 0
11, 103720, Note_on_c, 9, 42, 88
11, 103816, Note_on_c, 9, 42, 0
11, 103816, Note_on_c, 9, 37, 0
11, 103816, Note_on_c, 9, 35, 0
11, 103816, Note_on_c, 9, 46, 88
11, 103912, Note_on_c, 9, 46, 0
11, 103912, Note_on_c, 9, 35, 112
11, 103912, Note_on_c, 9, 37, 106
11, 104008, Note_on_c, 9, 35, 0
11, 104008, Note_on_c, 9, 42, 88
11, 104009, Note_on_c, 9, 42, 0
11, 104104, Note_on_c, 9, 37, 0
11, 104104, Note_on_c, 9, 42, 88
11, 104200, Note_on_c, 9, 42, 0
11, 104200, Note_on_c, 9, 46, 88
11, 104296, Note_on_c, 9, 46, 0
11, 104392, Note_on_c, 9, 35, 104
11, 104392, Note_on_c, 9, 42, 88
11, 104393, Note_on_c, 9, 42, 0
11, 104488, Note_on_c, 9, 35, 0
11, 104488, Note_on_c, 9, 42, 88
11, 104489, Note_on_c, 9, 42, 0
11, 104584, Note_on_c, 9, 35, 108
11, 104584, Note_on_c, 9, 46, 88
11, 104680, Note_on_c, 9, 46, 0
11, 104680, Note_on_c, 9, 35, 0
11, 104776, Note_on_c, 9, 35, 120
11, 104776, Note_on_c, 9, 42, 88
11, 104777, Note_on_c, 9, 42, 0
11, 104872, Note_on_c, 9, 42, 88
11, 104873, Note_on_c, 9, 42, 0
11, 104968, Note_on_c, 9, 35, 0
11, 104968, Note_on_c, 9, 46, 88
11, 105064, Note_on_c, 9, 46, 0
11, 105160, Note_on_c, 9, 42, 88
11, 105160, Note_on_c, 9, 37, 123
11, 105161, Note_on_c, 9, 42, 0
11, 105256, Note_on_c, 9, 37, 0
11, 105256, Note_on_c, 9, 42, 88
11, 105352, Note_on_c, 9, 42, 0
11, 105352, Note_on_c, 9, 46, 88
11, 105448, Note_on_c, 9, 46, 0
11, 105544, Note_on_c, 9, 42, 88
11, 105640, Note_on_c, 9, 42, 0
11, 105640, Note_on_c, 9, 34, 58
11, 105640, Note_on_c, 9, 42, 88
11, 105641, Note_on_c, 9, 34, 0
11, 105736, Note_on_c, 9, 42, 0
11, 105736, Note_on_c, 9, 46, 88
11, 105832, Note_on_c, 9, 46, 0
11, 105832, Note_on_c, 9, 38, 112
11, 105928, Note_on_c, 9, 38, 0
11, 105928, Note_on_c, 9, 42, 88
11, 106024, Note_on_c, 9, 42, 0
11, 106024, Note_on_c, 9, 42, 88
11, 106120, Note_on_c, 9, 42, 0
11, 106120, Note_on_c, 9, 46, 88
11, 106312, Note_on_c, 9, 46, 0
11, 106312, Note_on_c, 9, 42, 88
11, 106408, Note_on_c, 9, 42, 0
11, 106408, Note_on_c, 9, 42, 88
11, 106504, Note_on_c, 9, 42, 0
11, 106504, Note_on_c, 9, 35, 53
11, 106504, Note_on_c, 9, 46, 88
11, 106505, Note_on_c, 9, 35, 0
11, 106600, Note_on_c, 9, 46, 0
11, 106696, Note_on_c, 9, 42, 88
11, 106696, Note_on_c, 9, 37, 88
11, 106696, Note_on_c, 9, 35, 108
11, 106792, Note_on_c, 9, 42, 0
11, 106792, Note_on_c, 9, 42, 88
11, 106888, Note_on_c, 9, 42, 0
11, 106888, Note_on_c, 9, 35, 0
11, 106888, Note_on_c, 9, 37, 0
11, 106888, Note_on_c, 9, 46, 88
11, 106984, Note_on_c, 9, 46, 0
11, 106984, Note_on_c, 9, 37, 106
11, 106984, Note_on_c, 9, 35, 112
11, 107080, Note_on_c, 9, 35, 0
11, 107080, Note_on_c, 9, 42, 88
11, 107081, Note_on_c, 9, 42, 0
11, 107176, Note_on_c, 9, 37, 0
11, 107176, Note_on_c, 9, 42, 88
11, 107272, Note_on_c, 9, 42, 0
11, 107272, Note_on_c, 9, 46, 88
11, 107368, Note_on_c, 9, 46, 0
11, 107464, Note_on_c, 9, 35, 104
11, 107464, Note_on_c, 9, 42, 88
11, 107465, Note_on_c, 9, 42, 0
11, 107560, Note_on_c, 9, 35, 0
11, 107560, Note_on_c, 9, 42, 88
11, 107561, Note_on_c, 9, 42, 0
11, 107656, Note_on_c, 9, 35, 108
11, 107656, Note_on_c, 9, 46, 88
11, 107752, Note_on_c, 9, 46, 0
11, 107752, Note_on_c, 9, 35, 0
11, 107848, Note_on_c, 9, 42, 88
11, 107848, Note_on_c, 9, 35, 120
11, 107849, Note_on_c, 9, 42, 0
11, 107944, Note_on_c, 9, 42, 88
11, 107945, Note_on_c, 9, 42, 0
11, 108040, Note_on_c, 9, 35, 0
11, 108040, Note_on_c, 9, 46, 88
11, 108136, Note_on_c, 9, 46, 0
11, 108232, Note_on_c, 9, 37, 123
11, 108232, Note_on_c, 9, 42, 88
11, 108233, Note_on_c, 9, 42, 0
11, 108320, Note_on_c, 9, 37, 0
11, 108320, Note_on_c, 9, 42, 88
11, 108416, Note_on_c, 9, 42, 0
11, 108416, Note_on_c, 9, 46, 88
11, 108520, Note_on_c, 9, 46, 0
11, 108608, Note_on_c, 9, 42, 88
11, 108704, Note_on_c, 9, 42, 0
11, 108704, Note_on_c, 9, 42, 88
11, 108808, Note_on_c, 9, 42, 0
11, 108808, Note_on_c, 9, 46, 88
11, 108904, Note_on_c, 9, 46, 0
11, 108992, Note_on_c, 9, 42, 88
11, 109096, Note_on_c, 9, 42, 0
11, 109096, Note_on_c, 9, 42, 88
11, 109184, Note_on_c, 9, 42, 0
11, 109184, Note_on_c, 9, 46, 88
11, 109384, Note_on_c, 9, 46, 0
11, 109384, Note_on_c, 9, 42, 88
11, 109472, Note_on_c, 9, 42, 0
11, 109472, Note_on_c, 9, 42, 88
11, 109576, Note_on_c, 9, 42, 0
11, 109576, Note_on_c, 9, 46, 88
11, 109576, Note_on_c, 9, 35, 53
11, 109577, Note_on_c, 9, 35, 0
11, 109664, Note_on_c, 9, 46, 0
11, 109760, Note_on_c, 9, 35, 108
11, 109760, Note_on_c, 9, 37, 88
11, 109760, Note_on_c, 9, 42, 88
11, 109856, Note_on_c, 9, 42, 0
11, 109856, Note_on_c, 9, 42, 88
11, 109952, Note_on_c, 9, 42, 0
11, 109952, Note_on_c, 9, 37, 0
11, 109952, Note_on_c, 9, 35, 0
11, 109952, Note_on_c, 9, 46, 88
11, 110048, Note_on_c, 9, 46, 0
11, 110048, Note_on_c, 9, 35, 112
11, 110048, Note_on_c, 9, 37, 106
11, 110144, Note_on_c, 9, 35, 0
11, 110144, Note_on_c, 9, 42, 88
11, 110145, Note_on_c, 9, 42, 0
11, 110240, Note_on_c, 9, 37, 0
11, 110240, Note_on_c, 9, 42, 88
11, 110240, Note_on_c, 9, 34, 21
11, 110241, Note_on_c, 9, 34, 0
11, 110336, Note_on_c, 9, 42, 0
11, 110336, Note_on_c, 9, 34, 19
11, 110336, Note_on_c, 9, 46, 88
11, 110432, Note_on_c, 9, 46, 0
11, 110432, Note_on_c, 9, 34, 0
11, 110432, Note_on_c, 9, 34, 39
11, 110433, Note_on_c, 9, 34, 0
11, 110528, Note_on_c, 9, 42, 88
11, 110528, Note_on_c, 9, 35, 104
11, 110529, Note_on_c, 9, 42, 0
11, 110624, Note_on_c, 9, 35, 0
11, 110624, Note_on_c, 9, 42, 88
11, 110624, Note_on_c, 9, 34, 44
11, 110625, Note_on_c, 9, 34, 0
11, 110625, Note_on_c, 9, 42, 0
11, 110720, Note_on_c, 9, 35, 108
11, 110720, Note_on_c, 9, 46, 88
11, 110720, Note_on_c, 9, 34, 18
11, 110816, Note_on_c, 9, 34, 0
11, 110816, Note_on_c, 9, 46, 0
11, 110816, Note_on_c, 9, 35, 0
11, 110816, Note_on_c, 9, 34, 74
11, 110912, Note_on_c, 9, 34, 0
11, 110912, Note_on_c, 9, 35, 120
11, 110912, Note_on_c, 9, 42, 88
11, 110912, Note_on_c, 9, 34, 98
11, 110913, Note_on_c, 9, 42, 0
11, 111008, Note_on_c, 9, 34, 0
11, 111008, Note_on_c, 9, 42, 88
11, 111008, Note_on_c, 9, 34, 88
11, 111009, Note_on_c, 9, 42, 0
11, 111104, Note_on_c, 9, 34, 0
11, 111104, Note_on_c, 9, 35, 0
11, 111104, Note_on_c, 9, 46, 88
11, 111200, Note_on_c, 9, 46, 0
11, 111296, Note_on_c, 9, 42, 88
11, 111296, Note_on_c, 9, 37, 123
11, 111297, Note_on_c, 9, 42, 0
11, 111392, Note_on_c, 9, 37, 0
11, 111392, Note_on_c, 9, 42, 88
11, 111392, Note_on_c, 9, 50, 64
11, 111393, Note_on_c, 9, 50, 0
11, 111488, Note_on_c, 9, 42, 0
11, 111488, Note_on_c, 9, 46, 88
11, 111488, Note_on_c, 9, 50, 46
11, 111489, Note_on_c, 9, 50, 0
11, 111584, Note_on_c, 9, 46, 0
11, 111584, Note_on_c, 9, 34, 88
11, 111585, Note_on_c, 9, 34, 0
11, 111680, Note_on_c, 9, 42, 88
11, 111776, Note_on_c, 9, 42, 0
11, 111776, Note_on_c, 9, 42, 88
11, 111776, Note_on_c, 9, 34, 84
11, 111777, Note_on_c, 9, 34, 0
11, 111872, Note_on_c, 9, 42, 0
11, 111872, Note_on_c, 9, 46, 88
11, 111872, Note_on_c, 9, 50, 88
11, 111873, Note_on_c, 9, 50, 0
11, 111968, Note_on_c, 9, 46, 0
11, 111968, Note_on_c, 9, 34, 74
11, 111969, Note_on_c, 9, 34, 0
11, 112064, Note_on_c, 9, 35, 98
11, 112064, Note_on_c, 9, 42, 88
11, 112064, Note_on_c, 9, 32, 30
11, 112064, Note_on_c, 9, 49, 47
11, 112065, Note_on_c, 9, 49, 0
11, 112065, Note_on_c, 9, 32, 0
11, 112160, Note_on_c, 9, 42, 0
11, 112160, Note_on_c, 9, 42, 88
11, 112256, Note_on_c, 9, 42, 0
11, 112256, Note_on_c, 9, 35, 0
11, 112256, Note_on_c, 9, 46, 88
11, 112448, Note_on_c, 9, 46, 0
11, 112448, Note_on_c, 9, 42, 88
11, 112448, Note_on_c, 9, 32, 28
11, 112449, Note_on_c, 9, 32, 0
11, 112544, Note_on_c, 9, 42, 0
11, 112544, Note_on_c, 9, 42, 88
11, 112640, Note_on_c, 9, 42, 0
11, 112640, Note_on_c, 9, 35, 120
11, 112640, Note_on_c, 9, 46, 88
11, 112736, Note_on_c, 9, 46, 0
11, 112736, Note_on_c, 9, 35, 0
11, 112832, Note_on_c, 9, 37, 96
11, 112832, Note_on_c, 9, 42, 88
11, 112832, Note_on_c, 9, 32, 32
11, 112833, Note_on_c, 9, 32, 0
11, 112928, Note_on_c, 9, 42, 0
11, 112928, Note_on_c, 9, 37, 0
11, 112928, Note_on_c, 9, 42, 88
11, 113024, Note_on_c, 9, 42, 0
11, 113024, Note_on_c, 9, 46, 88
11, 113120, Note_on_c, 9, 46, 0
11, 113120, Note_on_c, 9, 37, 110
11, 113216, Note_on_c, 9, 42, 88
11, 113216, Note_on_c, 9, 32, 46
11, 113217, Note_on_c, 9, 32, 0
11, 113217, Note_on_c, 9, 42, 0
11, 113312, Note_on_c, 9, 37, 0
11, 113312, Note_on_c, 9, 42, 88
11, 113312, Note_on_c, 9, 34, 22
11, 113408, Note_on_c, 9, 34, 0
11, 113408, Note_on_c, 9, 42, 0
11, 113408, Note_on_c, 9, 35, 112
11, 113408, Note_on_c, 9, 46, 88
11, 113408, Note_on_c, 9, 34, 44
11, 113409, Note_on_c, 9, 34, 0
11, 113504, Note_on_c, 9, 46, 0
11, 113504, Note_on_c, 9, 35, 0
11, 113504, Note_on_c, 9, 34, 127
11, 113600, Note_on_c, 9, 34, 0
11, 113600, Note_on_c, 9, 35, 114
11, 113600, Note_on_c, 9, 42, 88
11, 113600, Note_on_c, 9, 32, 30
11, 113601, Note_on_c, 9, 32, 0
11, 113601, Note_on_c, 9, 42, 0
11, 113696, Note_on_c, 9, 42, 88
11, 113697, Note_on_c, 9, 42, 0
11, 113792, Note_on_c, 9, 46, 88
11, 113888, Note_on_c, 9, 46, 0
11, 113888, Note_on_c, 9, 35, 0
11, 113984, Note_on_c, 9, 42, 88
11, 113984, Note_on_c, 9, 32, 28
11, 113985, Note_on_c, 9, 32, 0
11, 113985, Note_on_c, 9, 42, 0
11, 114080, Note_on_c, 9, 42, 88
11, 114081, Note_on_c, 9, 42, 0
11, 114176, Note_on_c, 9, 35, 121
11, 114176, Note_on_c, 9, 46, 88
11, 114272, Note_on_c, 9, 46, 0
11, 114368, Note_on_c, 9, 35, 0
11, 114368, Note_on_c, 9, 37, 118
11, 114368, Note_on_c, 9, 42, 88
11, 114368, Note_on_c, 9, 32, 32
11, 114369, Note_on_c, 9, 32, 0
11, 114369, Note_on_c, 9, 42, 0
11, 114464, Note_on_c, 9, 42, 88
11, 114560, Note_on_c, 9, 42, 0
11, 114560, Note_on_c, 9, 37, 0
11, 114560, Note_on_c, 9, 46, 88
11, 114656, Note_on_c, 9, 46, 0
11, 114656, Note_on_c, 9, 34, 26
11, 114657, Note_on_c, 9, 34, 0
11, 114752, Note_on_c, 9, 32, 46
11, 114752, Note_on_c, 9, 34, 16
11, 114752, Note_on_c, 9, 42, 88
11, 114753, Note_on_c, 9, 34, 0
11, 114753, Note_on_c, 9, 32, 0
11, 114848, Note_on_c, 9, 42, 0
11, 114848, Note_on_c, 9, 34, 30
11, 114848, Note_on_c, 9, 42, 88
11, 114849, Note_on_c, 9, 34, 0
11, 114944, Note_on_c, 9, 42, 0
11, 114944, Note_on_c, 9, 35, 118
11, 114944, Note_on_c, 9, 46, 88
11, 115040, Note_on_c, 9, 46, 0
11, 115040, Note_on_c, 9, 35, 0
11, 115040, Note_on_c, 9, 51, 84
11, 115040, Note_on_c, 9, 34, 108
11, 115136, Note_on_c, 9, 34, 0
11, 115136, Note_on_c, 9, 51, 0
11, 115136, Note_on_c, 9, 42, 88
11, 115136, Note_on_c, 9, 32, 30
11, 115136, Note_on_c, 9, 35, 98
11, 115137, Note_on_c, 9, 32, 0
11, 115232, Note_on_c, 9, 42, 0
11, 115232, Note_on_c, 9, 42, 88
11, 115328, Note_on_c, 9, 42, 0
11, 115328, Note_on_c, 9, 35, 0
11, 115328, Note_on_c, 9, 46, 88
11, 115520, Note_on_c, 9, 46, 0
11, 115520, Note_on_c, 9, 42, 88
11, 115520, Note_on_c, 9, 32, 28
11, 115521, Note_on_c, 9, 32, 0
11, 115616, Note_on_c, 9, 42, 0
11, 115616, Note_on_c, 9, 42, 88
11, 115712, Note_on_c, 9, 42, 0
11, 115712, Note_on_c, 9, 46, 88
11, 115712, Note_on_c, 9, 35, 120
11, 115808, Note_on_c, 9, 35, 0
11, 115808, Note_on_c, 9, 46, 0
11, 115904, Note_on_c, 9, 37, 96
11, 115904, Note_on_c, 9, 42, 88
11, 115904, Note_on_c, 9, 32, 32
11, 115905, Note_on_c, 9, 32, 0
11, 116000, Note_on_c, 9, 42, 0
11, 116000, Note_on_c, 9, 37, 0
11, 116000, Note_on_c, 9, 42, 88
11, 116096, Note_on_c, 9, 42, 0
11, 116096, Note_on_c, 9, 46, 88
11, 116192, Note_on_c, 9, 46, 0
11, 116192, Note_on_c, 9, 37, 110
11, 116288, Note_on_c, 9, 32, 46
11, 116288, Note_on_c, 9, 42, 88
11, 116289, Note_on_c, 9, 42, 0
11, 116289, Note_on_c, 9, 32, 0
11, 116384, Note_on_c, 9, 37, 0
11, 116384, Note_on_c, 9, 42, 88
11, 116384, Note_on_c, 9, 34, 47
11, 116385, Note_on_c, 9, 34, 0
11, 116480, Note_on_c, 9, 42, 0
11, 116480, Note_on_c, 9, 35, 112
11, 116480, Note_on_c, 9, 46, 88
11, 116480, Note_on_c, 9, 64, 29
11, 116480, Note_on_c, 9, 34, 69
11, 116481, Note_on_c, 9, 64, 0
11, 116576, Note_on_c, 9, 35, 0
11, 116576, Note_on_c, 9, 46, 0
11, 116576, Note_on_c, 9, 34, 0
11, 116576, Note_on_c, 9, 34, 94
11, 116672, Note_on_c, 9, 34, 0
11, 116672, Note_on_c, 9, 42, 88
11, 116672, Note_on_c, 9, 32, 30
11, 116672, Note_on_c, 9, 35, 114
11, 116673, Note_on_c, 9, 32, 0
11, 116673, Note_on_c, 9, 42, 0
11, 116768, Note_on_c, 9, 42, 88
11, 116769, Note_on_c, 9, 42, 0
11, 116864, Note_on_c, 9, 46, 88
11, 116960, Note_on_c, 9, 46, 0
11, 116960, Note_on_c, 9, 35, 0
11, 117056, Note_on_c, 9, 42, 88
11, 117056, Note_on_c, 9, 32, 28
11, 117057, Note_on_c, 9, 32, 0
11, 117057, Note_on_c, 9, 42, 0
11, 117152, Note_on_c, 9, 42, 88
11, 117153, Note_on_c, 9, 42, 0
11, 117248, Note_on_c, 9, 35, 121
11, 117248, Note_on_c, 9, 46, 88
11, 117344, Note_on_c, 9, 46, 0
11, 117344, Note_on_c, 9, 40, 25
11, 117344, Note_on_c, 9, 34, 82
11, 117345, Note_on_c, 9, 40, 0
11, 117440, Note_on_c, 9, 34, 0
11, 117440, Note_on_c, 9, 35, 0
11, 117440, Note_on_c, 9, 37, 118
11, 117440, Note_on_c, 9, 32, 32
11, 117440, Note_on_c, 9, 42, 88
11, 117441, Note_on_c, 9, 42, 0
11, 117441, Note_on_c, 9, 32, 0
11, 117536, Note_on_c, 9, 42, 88
11, 117632, Note_on_c, 9, 42, 0
11, 117632, Note_on_c, 9, 37, 0
11, 117632, Note_on_c, 9, 46, 88
11, 117728, Note_on_c, 9, 46, 0
11, 117824, Note_on_c, 9, 42, 88
11, 117824, Note_on_c, 9, 32, 46
11, 117825, Note_on_c, 9, 32, 0
11, 117920, Note_on_c, 9, 42, 0
11, 117920, Note_on_c, 9, 42, 88
11, 118016, Note_on_c, 9, 42, 0
11, 118016, Note_on_c, 9, 35, 118
11, 118016, Note_on_c, 9, 46, 88
11, 118112, Note_on_c, 9, 46, 0
11, 118112, Note_on_c, 9, 35, 0
11, 118208, Note_on_c, 9, 42, 88
11, 118208, Note_on_c, 9, 32, 30
11, 118208, Note_on_c, 9, 35, 98
11, 118209, Note_on_c, 9, 32, 0
11, 118304, Note_on_c, 9, 42, 0
11, 118304, Note_on_c, 9, 42, 88
11, 118400, Note_on_c, 9, 42, 0
11, 118400, Note_on_c, 9, 35, 0
11, 118400, Note_on_c, 9, 46, 88
11, 118592, Note_on_c, 9, 46, 0
11, 118592, Note_on_c, 9, 42, 88
11, 118592, Note_on_c, 9, 32, 28
11, 118592, Note_on_c, 9, 38, 18
11, 118593, Note_on_c, 9, 32, 0
11, 118688, Note_on_c, 9, 38, 0
11, 118688, Note_on_c, 9, 42, 0
11, 118688, Note_on_c, 9, 42, 88
11, 118688, Note_on_c, 9, 34, 18
11, 118689, Note_on_c, 9, 34, 0
11, 118784, Note_on_c, 9, 42, 0
11, 118784, Note_on_c, 9, 38, 59
11, 118784, Note_on_c, 9, 35, 120
11, 118784, Note_on_c, 9, 46, 88
11, 118880, Note_on_c, 9, 46, 0
11, 118880, Note_on_c, 9, 35, 0
11, 118880, Note_on_c, 9, 38, 0
11, 118880, Note_on_c, 9, 34, 59
11, 118881, Note_on_c, 9, 34, 0
11, 118976, Note_on_c, 9, 42, 88
11, 118976, Note_on_c, 9, 37, 96
11, 118976, Note_on_c, 9, 32, 32
11, 118977, Note_on_c, 9, 32, 0
11, 119072, Note_on_c, 9, 37, 0
11, 119072, Note_on_c, 9, 42, 0
11, 119072, Note_on_c, 9, 42, 88
11, 119168, Note_on_c, 9, 42, 0
11, 119168, Note_on_c, 9, 46, 88
11, 119264, Note_on_c, 9, 46, 0
11, 119264, Note_on_c, 9, 37, 110
11, 119360, Note_on_c, 9, 42, 88
11, 119360, Note_on_c, 9, 32, 46
11, 119361, Note_on_c, 9, 32, 0
11, 119361, Note_on_c, 9, 42, 0
11, 119456, Note_on_c, 9, 37, 0
11, 119456, Note_on_c, 9, 42, 88
11, 119552, Note_on_c, 9, 42, 0
11, 119552, Note_on_c, 9, 35, 112
11, 119552, Note_on_c, 9, 46, 88
11, 119552, Note_on_c, 9, 34, 18
11, 119553, Note_on_c, 9, 34, 0
11, 119648, Note_on_c, 9, 46, 0
11, 119648, Note_on_c, 9, 35, 0
11, 119648, Note_on_c, 9, 34, 84
11, 119648, Note_on_c, 9, 49, 58
11, 119649, Note_on_c, 9, 34, 0
11, 119744, Note_on_c, 9, 49, 0
11, 119744, Note_on_c, 9, 32, 30
11, 119744, Note_on_c, 9, 35, 114
11, 119744, Note_on_c, 9, 42, 88
11, 119745, Note_on_c, 9, 42, 0
11, 119745, Note_on_c, 9, 32, 0
11, 119840, Note_on_c, 9, 42, 88
11, 119841, Note_on_c, 9, 42, 0
11, 119936, Note_on_c, 9, 46, 88
11, 120032, Note_on_c, 9, 46, 0
11, 120032, Note_on_c, 9, 35, 0
11, 120128, Note_on_c, 9, 32, 28
11, 120128, Note_on_c, 9, 42, 88
11, 120129, Note_on_c, 9, 42, 0
11, 120129, Note_on_c, 9, 32, 0
11, 120224, Note_on_c, 9, 49, 68
11, 120224, Note_on_c, 9, 42, 88
11, 120224, Note_on_c, 9, 34, 104
11, 120225, Note_on_c, 9, 34, 0
11, 120225, Note_on_c, 9, 42, 0
11, 120320, Note_on_c, 9, 49, 0
11, 120320, Note_on_c, 9, 46, 88
11, 120320, Note_on_c, 9, 35, 121
11, 120416, Note_on_c, 9, 46, 0
11, 120512, Note_on_c, 9, 35, 0
11, 120512, Note_on_c, 9, 32, 32
11, 120512, Note_on_c, 9, 37, 118
11, 120512, Note_on_c, 9, 42, 88
11, 120513, Note_on_c, 9, 42, 0
11, 120513, Note_on_c, 9, 32, 0
11, 120608, Note_on_c, 9, 42, 88
11, 120704, Note_on_c, 9, 42, 0
11, 120704, Note_on_c, 9, 37, 0
11, 120704, Note_on_c, 9, 46, 88
11, 120800, Note_on_c, 9, 46, 0
11, 120896, Note_on_c, 9, 32, 46
11, 120896, Note_on_c, 9, 42, 88
11, 120897, Note_on_c, 9, 32, 0
11, 120992, Note_on_c, 9, 42, 0
11, 120992, Note_on_c, 9, 42, 88
11, 121088, Note_on_c, 9, 42, 0
11, 121088, Note_on_c, 9, 46, 88
11, 121088, Note_on_c, 9, 35, 118
11, 121184, Note_on_c, 9, 35, 0
11, 121184, Note_on_c, 9, 46, 0
11, 121280, Note_on_c, 9, 42, 88
11, 121280, Note_on_c, 9, 35, 98
11, 121280, Note_on_c, 9, 32, 30
11, 121281, Note_on_c, 9, 32, 0
11, 121376, Note_on_c, 9, 42, 0
11, 121376, Note_on_c, 9, 42, 88
11, 121472, Note_on_c, 9, 42, 0
11, 121472, Note_on_c, 9, 35, 0
11, 121472, Note_on_c, 9, 46, 88
11, 121664, Note_on_c, 9, 46, 0
11, 121664, Note_on_c, 9, 42, 88
11, 121664, Note_on_c, 9, 32, 28
11, 121665, Note_on_c, 9, 32, 0
11, 121760, Note_on_c, 9, 42, 0
11, 121760, Note_on_c, 9, 42, 88
11, 121856, Note_on_c, 9, 42, 0
11, 121856, Note_on_c, 9, 35, 120
11, 121856, Note_on_c, 9, 46, 88
11, 121952, Note_on_c, 9, 46, 0
11, 121952, Note_on_c, 9, 35, 0
11, 122048, Note_on_c, 9, 42, 88
11, 122048, Note_on_c, 9, 37, 96
11, 122048, Note_on_c, 9, 32, 32
11, 122049, Note_on_c, 9, 32, 0
11, 122144, Note_on_c, 9, 37, 0
11, 122144, Note_on_c, 9, 42, 0
11, 122144, Note_on_c, 9, 34, 31
11, 122144, Note_on_c, 9, 42, 88
11, 122145, Note_on_c, 9, 34, 0
11, 122240, Note_on_c, 9, 42, 0
11, 122240, Note_on_c, 9, 46, 88
11, 122336, Note_on_c, 9, 46, 0
11, 122336, Note_on_c, 9, 34, 33
11, 122336, Note_on_c, 9, 37, 110
11, 122337, Note_on_c, 9, 34, 0
11, 122432, Note_on_c, 9, 34, 94
11, 122432, Note_on_c, 9, 42, 88
11, 122432, Note_on_c, 9, 32, 46
11, 122433, Note_on_c, 9, 32, 0
11, 122433, Note_on_c, 9, 42, 0
11, 122528, Note_on_c, 9, 34, 0
11, 122528, Note_on_c, 9, 37, 0
11, 122528, Note_on_c, 9, 42, 88
11, 122624, Note_on_c, 9, 42, 0
11, 122624, Note_on_c, 9, 46, 88
11, 122624, Note_on_c, 9, 35, 112
11, 122712, Note_on_c, 9, 35, 0
11, 122712, Note_on_c, 9, 46, 0
11, 122816, Note_on_c, 9, 42, 88
11, 122816, Note_on_c, 9, 32, 30
11, 122816, Note_on_c, 9, 35, 114
11, 122817, Note_on_c, 9, 32, 0
11, 122817, Note_on_c, 9, 42, 0
11, 122904, Note_on_c, 9, 42, 88
11, 122904, Note_on_c, 9, 38, 50
11, 122905, Note_on_c, 9, 38, 0
11, 122905, Note_on_c, 9, 42, 0
11, 123008, Note_on_c, 9, 46, 88
11, 123096, Note_on_c, 9, 46, 0
11, 123096, Note_on_c, 9, 35, 0
11, 123096, Note_on_c, 9, 34, 39
11, 123097, Note_on_c, 9, 34, 0
11, 123192, Note_on_c, 9, 32, 28
11, 123192, Note_on_c, 9, 38, 86
11, 123192, Note_on_c, 9, 42, 88
11, 123193, Note_on_c, 9, 42, 0
11, 123193, Note_on_c, 9, 32, 0
11, 123288, Note_on_c, 9, 38, 0
11, 123288, Note_on_c, 9, 42, 88
11, 123289, Note_on_c, 9, 42, 0
11, 123384, Note_on_c, 9, 46, 88
11, 123384, Note_on_c, 9, 35, 121
11, 123488, Note_on_c, 9, 46, 0
11, 123488, Note_on_c, 9, 50, 74
11, 123489, Note_on_c, 9, 50, 0
11, 123576, Note_on_c, 9, 35, 0
11, 123576, Note_on_c, 9, 42, 88
11, 123576, Note_on_c, 9, 32, 32
11, 123576, Note_on_c, 9, 37, 118
11, 123577, Note_on_c, 9, 32, 0
11, 123577, Note_on_c, 9, 42, 0
11, 123672, Note_on_c, 9, 42, 88
11, 123672, Note_on_c, 9, 50, 67
11, 123673, Note_on_c, 9, 50, 0
11, 123768, Note_on_c, 9, 42, 0
11, 123768, Note_on_c, 9, 37, 0
11, 123768, Note_on_c, 9, 47, 86
11, 123768, Note_on_c, 9, 46, 88
11, 123864, Note_on_c, 9, 46, 0
11, 123864, Note_on_c, 9, 47, 0
11, 123968, Note_on_c, 9, 42, 88
11, 123968, Note_on_c, 9, 32, 46
11, 123969, Note_on_c, 9, 32, 0
11, 124056, Note_on_c, 9, 42, 0
11, 124056, Note_on_c, 9, 45, 21
11, 124056, Note_on_c, 9, 42, 88
11, 124057, Note_on_c, 9, 45, 0
11, 124152, Note_on_c, 9, 42, 0
11, 124152, Note_on_c, 9, 35, 118
11, 124152, Note_on_c, 9, 46, 88
11, 124248, Note_on_c, 9, 46, 0
11, 124248, Note_on_c, 9, 35, 0
11, 124248, Note_on_c, 9, 45, 80
11, 124248, Note_on_c, 9, 50, 65
11, 124248, Note_on_c, 9, 49, 72
11, 124249, Note_on_c, 9, 49, 0
11, 124249, Note_on_c, 9, 50, 0
11, 124249, Note_on_c, 9, 45, 0
11, 124352, Note_on_c, 9, 42, 88
11, 124352, Note_on_c, 9, 35, 100
11, 124440, Note_on_c, 9, 42, 0
11, 124440, Note_on_c, 9, 42, 88
11, 124536, Note_on_c, 9, 42, 0
11, 124536, Note_on_c, 9, 35, 0
11, 124536, Note_on_c, 9, 46, 88
11, 124728, Note_on_c, 9, 46, 0
11, 124728, Note_on_c, 9, 42, 88
11, 124824, Note_on_c, 9, 42, 0
11, 124824, Note_on_c, 9, 42, 88
11, 124920, Note_on_c, 9, 42, 0
11, 124920, Note_on_c, 9, 35, 102
11, 124920, Note_on_c, 9, 46, 88
11, 124921, Note_on_c, 9, 35, 0
11, 125016, Note_on_c, 9, 46, 0
11, 125112, Note_on_c, 9, 42, 88
11, 125112, Note_on_c, 9, 40, 123
11, 125208, Note_on_c, 9, 42, 0
11, 125208, Note_on_c, 9, 42, 88
11, 125304, Note_on_c, 9, 42, 0
11, 125304, Note_on_c, 9, 46, 88
11, 125400, Note_on_c, 9, 46, 0
11, 125400, Note_on_c, 9, 40, 0
11, 125496, Note_on_c, 9, 42, 88
11, 125497, Note_on_c, 9, 42, 0
11, 125592, Note_on_c, 9, 42, 88
11, 125688, Note_on_c, 9, 42, 0
11, 125688, Note_on_c, 9, 46, 88
11, 125784, Note_on_c, 9, 46, 0
11, 125880, Note_on_c, 9, 42, 88
11, 125880, Note_on_c, 9, 35, 100
11, 125881, Note_on_c, 9, 42, 0
11, 125976, Note_on_c, 9, 42, 88
11, 125977, Note_on_c, 9, 42, 0
11, 126072, Note_on_c, 9, 35, 0
11, 126072, Note_on_c, 9, 46, 88
11, 126168, Note_on_c, 9, 46, 0
11, 126264, Note_on_c, 9, 42, 88
11, 126265, Note_on_c, 9, 42, 0
11, 126360, Note_on_c, 9, 42, 88
11, 126361, Note_on_c, 9, 42, 0
11, 126456, Note_on_c, 9, 35, 102
11, 126456, Note_on_c, 9, 46, 88
11, 126457, Note_on_c, 9, 35, 0
11, 126552, Note_on_c, 9, 46, 0
11, 126648, Note_on_c, 9, 42, 88
11, 126648, Note_on_c, 9, 40, 123
11, 126649, Note_on_c, 9, 42, 0
11, 126744, Note_on_c, 9, 42, 88
11, 126840, Note_on_c, 9, 42, 0
11, 126840, Note_on_c, 9, 46, 88
11, 126936, Note_on_c, 9, 46, 0
11, 126936, Note_on_c, 9, 40, 0
11, 127032, Note_on_c, 9, 42, 88
11, 127128, Note_on_c, 9, 42, 0
11, 127128, Note_on_c, 9, 42, 88
11, 127224, Note_on_c, 9, 42, 0
11, 127224, Note_on_c, 9, 46, 88
11, 127320, Note_on_c, 9, 46, 0
11, 127416, Note_on_c, 9, 35, 100
11, 127416, Note_on_c, 9, 42, 88
11, 127512, Note_on_c, 9, 42, 0
11, 127512, Note_on_c, 9, 42, 88
11, 127608, Note_on_c, 9, 42, 0
11, 127608, Note_on_c, 9, 35, 0
11, 127608, Note_on_c, 9, 46, 88
11, 127800, Note_on_c, 9, 46, 0
11, 127800, Note_on_c, 9, 42, 88
11, 127896, Note_on_c, 9, 42, 0
11, 127896, Note_on_c, 9, 42, 88
11, 127992, Note_on_c, 9, 42, 0
11, 127992, Note_on_c, 9, 35, 102
11, 127992, Note_on_c, 9, 46, 88
11, 127993, Note_on_c, 9, 35, 0
11, 128088, Note_on_c, 9, 46, 0
11, 128184, Note_on_c, 9, 40, 123
11, 128184, Note_on_c, 9, 42, 88
11, 128280, Note_on_c, 9, 42, 0
11, 128280, Note_on_c, 9, 42, 88
11, 128376, Note_on_c, 9, 42, 0
11, 128376, Note_on_c, 9, 46, 88
11, 128472, Note_on_c, 9, 46, 0
11, 128472, Note_on_c, 9, 40, 0
11, 128568, Note_on_c, 9, 42, 88
11, 128569, Note_on_c, 9, 42, 0
11, 128664, Note_on_c, 9, 42, 88
11, 128760, Note_on_c, 9, 42, 0
11, 128760, Note_on_c, 9, 46, 88
11, 128856, Note_on_c, 9, 46, 0
11, 128952, Note_on_c, 9, 35, 100
11, 128952, Note_on_c, 9, 42, 88
11, 128953, Note_on_c, 9, 42, 0
11, 129048, Note_on_c, 9, 42, 88
11, 129049, Note_on_c, 9, 42, 0
11, 129144, Note_on_c, 9, 35, 0
11, 129144, Note_on_c, 9, 46, 88
11, 129240, Note_on_c, 9, 46, 0
11, 129336, Note_on_c, 9, 42, 88
11, 129337, Note_on_c, 9, 42, 0
11, 129432, Note_on_c, 9, 42, 88
11, 129433, Note_on_c, 9, 42, 0
11, 129528, Note_on_c, 9, 35, 102
11, 129528, Note_on_c, 9, 46, 88
11, 129529, Note_on_c, 9, 35, 0
11, 129624, Note_on_c, 9, 46, 0
11, 129720, Note_on_c, 9, 40, 123
11, 129720, Note_on_c, 9, 42, 88
11, 129721, Note_on_c, 9, 42, 0
11, 129816, Note_on_c, 9, 42, 88
11, 129912, Note_on_c, 9, 42, 0
11, 129912, Note_on_c, 9, 46, 88
11, 130008, Note_on_c, 9, 46, 0
11, 130008, Note_on_c, 9, 40, 0
11, 130104, Note_on_c, 9, 42, 88
11, 130200, Note_on_c, 9, 42, 0
11, 130200, Note_on_c, 9, 42, 88
11, 130296, Note_on_c, 9, 42, 0
11, 130296, Note_on_c, 9, 46, 88
11, 130392, Note_on_c, 9, 46, 0
11, 130488, Note_on_c, 9, 35, 100
11, 130488, Note_on_c, 9, 42, 88
11, 130584, Note_on_c, 9, 42, 0
11, 130584, Note_on_c, 9, 42, 88
11, 130680, Note_on_c, 9, 42, 0
11, 130680, Note_on_c, 9, 35, 0
11, 130680, Note_on_c, 9, 46, 88
11, 130872, Note_on_c, 9, 46, 0
11, 130872, Note_on_c, 9, 42, 88
11, 130968, Note_on_c, 9, 42, 0
11, 130968, Note_on_c, 9, 42, 88
11, 131064, Note_on_c, 9, 42, 0
11, 131064, Note_on_c, 9, 35, 102
11, 131064, Note_on_c, 9, 46, 88
11, 131065, Note_on_c, 9, 35, 0
11, 131160, Note_on_c, 9, 46, 0
11, 131256, Note_on_c, 9, 40, 123
11, 131256, Note_on_c, 9, 42, 88
11, 131352, Note_on_c, 9, 42, 0
11, 131352, Note_on_c, 9, 42, 88
11, 131448, Note_on_c, 9, 42, 0
11, 131448, Note_on_c, 9, 46, 88
11, 131544, Note_on_c, 9, 46, 0
11, 131544, Note_on_c, 9, 40, 0
11, 131640, Note_on_c, 9, 42, 88
11, 131641, Note_on_c, 9, 42, 0
11, 131736, Note_on_c, 9, 42, 88
11, 131832, Note_on_c, 9, 42, 0
11, 131832, Note_on_c, 9, 46, 88
11, 131928, Note_on_c, 9, 46, 0
11, 132024, Note_on_c, 9, 35, 100
11, 132024, Note_on_c, 9, 42, 88
11, 132025, Note_on_c, 9, 42, 0
11, 132120, Note_on_c, 9, 42, 88
11, 132121, Note_on_c, 9, 42, 0
11, 132216, Note_on_c, 9, 35, 0
11, 132216, Note_on_c, 9, 46, 88
11, 132312, Note_on_c, 9, 46, 0
11, 132408, Note_on_c, 9, 42, 88
11, 132409, Note_on_c, 9, 42, 0
11, 132504, Note_on_c, 9, 42, 88
11, 132505, Note_on_c, 9, 42, 0
11, 132600, Note_on_c, 9, 35, 102
11, 132600, Note_on_c, 9, 46, 88
11, 132601, Note_on_c, 9, 35, 0
11, 132696, Note_on_c, 9, 46, 0
11, 132792, Note_on_c, 9, 40, 123
11, 132792, Note_on_c, 9, 42, 88
11, 132793, Note_on_c, 9, 42, 0
11, 132888, Note_on_c, 9, 42, 88
11, 132984, Note_on_c, 9, 42, 0
11, 132984, Note_on_c, 9, 46, 88
11, 133080, Note_on_c, 9, 46, 0
11, 133080, Note_on_c, 9, 40, 0
11, 133176, Note_on_c, 9, 42, 88
11, 133272, Note_on_c, 9, 42, 0
11, 133272, Note_on_c, 9, 42, 88
11, 133368, Note_on_c, 9, 42, 0
11, 133368, Note_on_c, 9, 46, 88
11, 133464, Note_on_c, 9, 46, 0
11, 133560, Note_on_c, 9, 35, 100
11, 133560, Note_on_c, 9, 42, 88
11, 133656, Note_on_c, 9, 42, 0
11, 133656, Note_on_c, 9, 42, 88
11, 133752, Note_on_c, 9, 42, 0
11, 133752, Note_on_c, 9, 35, 0
11, 133752, Note_on_c, 9, 46, 88
11, 133944, Note_on_c, 9, 46, 0
11, 133944, Note_on_c, 9, 42, 88
11, 134040, Note_on_c, 9, 42, 0
11, 134040, Note_on_c, 9, 42, 88
11, 134136, Note_on_c, 9, 42, 0
11, 134136, Note_on_c, 9, 46, 88
11, 134136, Note_on_c, 9, 35, 102
11, 134137, Note_on_c, 9, 35, 0
11, 134232, Note_on_c, 9, 46, 0
11, 134328, Note_on_c, 9, 42, 88
11, 134328, Note_on_c, 9, 40, 123
11, 134424, Note_on_c, 9, 42, 0
11, 134424, Note_on_c, 9, 42, 88
11, 134520, Note_on_c, 9, 42, 0
11, 134520, Note_on_c, 9, 46, 88
11, 134616, Note_on_c, 9, 46, 0
11, 134616, Note_on_c, 9, 40, 0
11, 134712, Note_on_c, 9, 42, 88
11, 134713, Note_on_c, 9, 42, 0
11, 134808, Note_on_c, 9, 42, 88
11, 134904, Note_on_c, 9, 42, 0
11, 134904, Note_on_c, 9, 46, 88
11, 135000, Note_on_c, 9, 46, 0
11, 135096, Note_on_c, 9, 42, 89
11, 135096, Note_on_c, 9, 35, 100
11, 135097, Note_on_c, 9, 42, 0
11, 135192, Note_on_c, 9, 42, 89
11, 135193, Note_on_c, 9, 42, 0
11, 135288, Note_on_c, 9, 35, 0
11, 135288, Note_on_c, 9, 46, 88
11, 135384, Note_on_c, 9, 46, 0
11, 135480, Note_on_c, 9, 42, 89
11, 135481, Note_on_c, 9, 42, 0
11, 135576, Note_on_c, 9, 42, 89
11, 135577, Note_on_c, 9, 42, 0
11, 135672, Note_on_c, 9, 46, 88
11, 135672, Note_on_c, 9, 35, 102
11, 135673, Note_on_c, 9, 35, 0
11, 135768, Note_on_c, 9, 46, 0
11, 135864, Note_on_c, 9, 42, 89
11, 135864, Note_on_c, 9, 40, 123
11, 135865, Note_on_c, 9, 42, 0
11, 135960, Note_on_c, 9, 42, 89
11, 136056, Note_on_c, 9, 42, 0
11, 136056, Note_on_c, 9, 46, 88
11, 136152, Note_on_c, 9, 46, 0
11, 136152, Note_on_c, 9, 40, 0
11, 136248, Note_on_c, 9, 42, 89
11, 136344, Note_on_c, 9, 42, 0
11, 136344, Note_on_c, 9, 42, 89
11, 136440, Note_on_c, 9, 42, 0
11, 136440, Note_on_c, 9, 46, 88
11, 136536, Note_on_c, 9, 46, 0
11, 136632, Note_on_c, 9, 42, 89
11, 136632, Note_on_c, 9, 35, 100
11, 136728, Note_on_c, 9, 42, 0
11, 136728, Note_on_c, 9, 42, 89
11, 136824, Note_on_c, 9, 42, 0
11, 136824, Note_on_c, 9, 35, 0
11, 136824, Note_on_c, 9, 46, 88
11, 137016, Note_on_c, 9, 46, 0
11, 137016, Note_on_c, 9, 42, 89
11, 137112, Note_on_c, 9, 42, 0
11, 137112, Note_on_c, 9, 42, 89
11, 137208, Note_on_c, 9, 42, 0
11, 137208, Note_on_c, 9, 46, 88
11, 137208, Note_on_c, 9, 35, 102
11, 137209, Note_on_c, 9, 35, 0
11, 137304, Note_on_c, 9, 46, 0
11, 137392, Note_on_c, 9, 42, 89
11, 137392, Note_on_c, 9, 40, 123
11, 137496, Note_on_c, 9, 42, 0
11, 137496, Note_on_c, 9, 42, 89
11, 137584, Note_on_c, 9, 42, 0
11, 137584, Note_on_c, 9, 46, 88
11, 137680, Note_on_c, 9, 46, 0
11, 137680, Note_on_c, 9, 40, 0
11, 137784, Note_on_c, 9, 42, 89
11, 137785, Note_on_c, 9, 42, 0
11, 137872, Note_on_c, 9, 42, 89
11, 137976, Note_on_c, 9, 42, 0
11, 137976, Note_on_c, 9, 46, 88
11, 138064, Note_on_c, 9, 46, 0
11, 138168, Note_on_c, 9, 42, 89
11, 138168, Note_on_c, 9, 35, 100
11, 138169, Note_on_c, 9, 42, 0
11, 138256, Note_on_c, 9, 42, 89
11, 138257, Note_on_c, 9, 42, 0
11, 138360, Note_on_c, 9, 35, 0
11, 138360, Note_on_c, 9, 46, 88
11, 138448, Note_on_c, 9, 46, 0
11, 138544, Note_on_c, 9, 42, 89
11, 138545, Note_on_c, 9, 42, 0
11, 138648, Note_on_c, 9, 42, 89
11, 138649, Note_on_c, 9, 42, 0
11, 138736, Note_on_c, 9, 35, 102
11, 138736, Note_on_c, 9, 46, 88
11, 138737, Note_on_c, 9, 35, 0
11, 138832, Note_on_c, 9, 46, 0
11, 138928, Note_on_c, 9, 42, 89
11, 138928, Note_on_c, 9, 40, 123
11, 138929, Note_on_c, 9, 42, 0
11, 139024, Note_on_c, 9, 42, 89
11, 139120, Note_on_c, 9, 42, 0
11, 139120, Note_on_c, 9, 46, 88
11, 139216, Note_on_c, 9, 46, 0
11, 139216, Note_on_c, 9, 40, 0
11, 139312, Note_on_c, 9, 42, 89
11, 139408, Note_on_c, 9, 42, 0
11, 139408, Note_on_c, 9, 42, 89
11, 139504, Note_on_c, 9, 42, 0
11, 139504, Note_on_c, 9, 46, 88
11, 139600, Note_on_c, 9, 46, 0
11, 139696, Note_on_c, 9, 42, 89
11, 139696, Note_on_c, 9, 35, 100
11, 139792, Note_on_c, 9, 42, 0
11, 139792, Note_on_c, 9, 42, 89
11, 139888, Note_on_c, 9, 42, 0
11, 139888, Note_on_c, 9, 35, 0
11, 139888, Note_on_c, 9, 46, 88
11, 140080, Note_on_c, 9, 46, 0
11, 140080, Note_on_c, 9, 42, 89
11, 140176, Note_on_c, 9, 42, 0
11, 140176, Note_on_c, 9, 42, 89
11, 140272, Note_on_c, 9, 42, 0
11, 140272, Note_on_c, 9, 35, 102
11, 140272, Note_on_c, 9, 46, 88
11, 140273, Note_on_c, 9, 35, 0
11, 140368, Note_on_c, 9, 46, 0
11, 140464, Note_on_c, 9, 40, 123
11, 140464, Note_on_c, 9, 42, 89
11, 140560, Note_on_c, 9, 42, 0
11, 140560, Note_on_c, 9, 42, 89
11, 140656, Note_on_c, 9, 42, 0
11, 140656, Note_on_c, 9, 46, 88
11, 140752, Note_on_c, 9, 46, 0
11, 140752, Note_on_c, 9, 40, 0
11, 140848, Note_on_c, 9, 42, 89
11, 140849, Note_on_c, 9, 42, 0
11, 140944, Note_on_c, 9, 42, 89
11, 141040, Note_on_c, 9, 42, 0
11, 141040, Note_on_c, 9, 46, 88
11, 141136, Note_on_c, 9, 46, 0
11, 141232, Note_on_c, 9, 35, 100
11, 141232, Note_on_c, 9, 42, 89
11, 141233, Note_on_c, 9, 42, 0
11, 141328, Note_on_c, 9, 42, 89
11, 141329, Note_on_c, 9, 42, 0
11, 141424, Note_on_c, 9, 35, 0
11, 141424, Note_on_c, 9, 46, 88
11, 141520, Note_on_c, 9, 46, 0
11, 141616, Note_on_c, 9, 42, 89
11, 141617, Note_on_c, 9, 42, 0
11, 141712, Note_on_c, 9, 42, 89
11, 141713, Note_on_c, 9, 42, 0
11, 141808, Note_on_c, 9, 35, 102
11, 141808, Note_on_c, 9, 46, 88
11, 141809, Note_on_c, 9, 35, 0
11, 141904, Note_on_c, 9, 46, 0
11, 142000, Note_on_c, 9, 40, 123
11, 142000, Note_on_c, 9, 42, 89
11, 142001, Note_on_c, 9, 42, 0
11, 142096, Note_on_c, 9, 42, 89
11, 142192, Note_on_c, 9, 42, 0
11, 142192, Note_on_c, 9, 46, 88
11, 142288, Note_on_c, 9, 46, 0
11, 142288, Note_on_c, 9, 40, 0
11, 142384, Note_on_c, 9, 42, 89
11, 142480, Note_on_c, 9, 42, 0
11, 142480, Note_on_c, 9, 42, 89
11, 142576, Note_on_c, 9, 42, 0
11, 142576, Note_on_c, 9, 46, 88
11, 142672, Note_on_c, 9, 46, 0
11, 142768, Note_on_c, 9, 35, 100
11, 142768, Note_on_c, 9, 42, 89
11, 142864, Note_on_c, 9, 42, 0
11, 142864, Note_on_c, 9, 42, 89
11, 142960, Note_on_c, 9, 42, 0
11, 142960, Note_on_c, 9, 35, 0
11, 142960, Note_on_c, 9, 46, 88
11, 143152, Note_on_c, 9, 46, 0
11, 143152, Note_on_c, 9, 42, 89
11, 143248, Note_on_c, 9, 42, 0
11, 143248, Note_on_c, 9, 42, 89
11, 143344, Note_on_c, 9, 42, 0
11, 143344, Note_on_c, 9, 35, 102
11, 143344, Note_on_c, 9, 46, 88
11, 143345, Note_on_c, 9, 35, 0
11, 143440, Note_on_c, 9, 46, 0
11, 143536, Note_on_c, 9, 40, 123
11, 143536, Note_on_c, 9, 42, 89
11, 143632, Note_on_c, 9, 42, 0
11, 143632, Note_on_c, 9, 42, 89
11, 143728, Note_on_c, 9, 42, 0
11, 143728, Note_on_c, 9, 46, 88
11, 143824, Note_on_c, 9, 46, 0
11, 143824, Note_on_c, 9, 40, 0
11, 143920, Note_on_c, 9, 42, 89
11, 143921, Note_on_c, 9, 42, 0
11, 144016, Note_on_c, 9, 42, 89
11, 144112, Note_on_c, 9, 42, 0
11, 144112, Note_on_c, 9, 46, 88
11, 144208, Note_on_c, 9, 46, 0
11, 144304, Note_on_c, 9, 35, 100
11, 144304, Note_on_c, 9, 42, 89
11, 144305, Note_on_c, 9, 42, 0
11, 144400, Note_on_c, 9, 42, 89
11, 144401, Note_on_c, 9, 42, 0
11, 144496, Note_on_c, 9, 35, 0
11, 144496, Note_on_c, 9, 46, 88
11, 144592, Note_on_c, 9, 46, 0
11, 144688, Note_on_c, 9, 42, 89
11, 144689, Note_on_c, 9, 42, 0
11, 144784, Note_on_c, 9, 42, 89
11, 144785, Note_on_c, 9, 42, 0
11, 144880, Note_on_c, 9, 35, 102
11, 144880, Note_on_c, 9, 46, 88
11, 144881, Note_on_c, 9, 35, 0
11, 144976, Note_on_c, 9, 46, 0
11, 145072, Note_on_c, 9, 40, 123
11, 145072, Note_on_c, 9, 42, 89
11, 145073, Note_on_c, 9, 42, 0
11, 145168, Note_on_c, 9, 42, 89
11, 145264, Note_on_c, 9, 42, 0
11, 145264, Note_on_c, 9, 46, 88
11, 145360, Note_on_c, 9, 46, 0
11, 145360, Note_on_c, 9, 40, 0
11, 145456, Note_on_c, 9, 42, 89
11, 145552, Note_on_c, 9, 42, 0
11, 145552, Note_on_c, 9, 42, 89
11, 145648, Note_on_c, 9, 42, 0
11, 145648, Note_on_c, 9, 46, 88
11, 145744, Note_on_c, 9, 46, 0
11, 145840, Note_on_c, 9, 35, 100
11, 145840, Note_on_c, 9, 42, 89
11, 145936, Note_on_c, 9, 42, 0
11, 145936, Note_on_c, 9, 42, 89
11, 146032, Note_on_c, 9, 42, 0
11, 146032, Note_on_c, 9, 35, 0
11, 146032, Note_on_c, 9, 46, 88
11, 146224, Note_on_c, 9, 46, 0
11, 146224, Note_on_c, 9, 42, 89
11, 146320, Note_on_c, 9, 42, 0
11, 146320, Note_on_c, 9, 42, 89
11, 146416, Note_on_c, 9, 42, 0
11, 146416, Note_on_c, 9, 35, 102
11, 146416, Note_on_c, 9, 46, 88
11, 146417, Note_on_c, 9, 35, 0
11, 146512, Note_on_c, 9, 46, 0
11, 146608, Note_on_c, 9, 40, 123
11, 146608, Note_on_c, 9, 42, 89
11, 146704, Note_on_c, 9, 42, 0
11, 146704, Note_on_c, 9, 42, 89
11, 146800, Note_on_c, 9, 42, 0
11, 146800, Note_on_c, 9, 46, 88
11, 146896, Note_on_c, 9, 46, 0
11, 146896, Note_on_c, 9, 40, 0
11, 146992, Note_on_c, 9, 42, 89
11, 146993, Note_on_c, 9, 42, 0
11, 147088, Note_on_c, 9, 42, 89
11, 147184, Note_on_c, 9, 42, 0
11, 147184, Note_on_c, 9, 46, 88
11, 147280, Note_on_c, 9, 46, 0
11, 147376, Note_on_c, 9, 42, 89
11, 147376, Note_on_c, 9, 35, 100
11, 147377, Note_on_c, 9, 42, 0
11, 147472, Note_on_c, 9, 42, 89
11, 147473, Note_on_c, 9, 42, 0
11, 147568, Note_on_c, 9, 35, 0
11, 147568, Note_on_c, 9, 46, 88
11, 147664, Note_on_c, 9, 46, 0
11, 147760, Note_on_c, 9, 42, 89
11, 147761, Note_on_c, 9, 42, 0
11, 147856, Note_on_c, 9, 42, 89
11, 147857, Note_on_c, 9, 42, 0
11, 147952, Note_on_c, 9, 46, 88
11, 147952, Note_on_c, 9, 35, 102
11, 147953, Note_on_c, 9, 35, 0
11, 148048, Note_on_c, 9, 46, 0
11, 148144, Note_on_c, 9, 40, 123
11, 148144, Note_on_c, 9, 42, 89
11, 148145, Note_on_c, 9, 42, 0
11, 148240, Note_on_c, 9, 42, 89
11, 148336, Note_on_c, 9, 42, 0
11, 148336, Note_on_c, 9, 46, 88
11, 148432, Note_on_c, 9, 46, 0
11, 148432, Note_on_c, 9, 40, 0
11, 148528, Note_on_c, 9, 42, 89
11, 148624, Note_on_c, 9, 42, 0
11, 148624, Note_on_c, 9, 42, 89
11, 148720, Note_on_c, 9, 42, 0
11, 148720, Note_on_c, 9, 46, 88
11, 148816, Note_on_c, 9, 46, 0
11, 148912, Note_on_c, 9, 42, 89
11, 149008, Note_on_c, 9, 42, 0
11, 149008, Note_on_c, 9, 42, 89
11, 149104, Note_on_c, 9, 42, 0
11, 149104, Note_on_c, 9, 46, 88
11, 149296, Note_on_c, 9, 46, 0
11, 149296, Note_on_c, 9, 42, 89
11, 149392, Note_on_c, 9, 42, 0
11, 149392, Note_on_c, 9, 42, 89
11, 149488, Note_on_c, 9, 42, 0
11, 149488, Note_on_c, 9, 35, 53
11, 149488, Note_on_c, 9, 46, 88
11, 149489, Note_on_c, 9, 35, 0
11, 149584, Note_on_c, 9, 46, 0
11, 149680, Note_on_c, 9, 42, 89
11, 149680, Note_on_c, 9, 37, 88
11, 149680, Note_on_c, 9, 35, 108
11, 149776, Note_on_c, 9, 42, 0
11, 149776, Note_on_c, 9, 42, 89
11, 149872, Note_on_c, 9, 42, 0
11, 149872, Note_on_c, 9, 35, 0
11, 149872, Note_on_c, 9, 37, 0
11, 149872, Note_on_c, 9, 46, 88
11, 149968, Note_on_c, 9, 46, 0
11, 149968, Note_on_c, 9, 35, 112
11, 149968, Note_on_c, 9, 37, 106
11, 150064, Note_on_c, 9, 35, 0
11, 150064, Note_on_c, 9, 42, 89
11, 150065, Note_on_c, 9, 42, 0
11, 150160, Note_on_c, 9, 37, 0
11, 150160, Note_on_c, 9, 42, 89
11, 150256, Note_on_c, 9, 42, 0
11, 150256, Note_on_c, 9, 46, 88
11, 150352, Note_on_c, 9, 46, 0
11, 150448, Note_on_c, 9, 35, 104
11, 150448, Note_on_c, 9, 42, 89
11, 150449, Note_on_c, 9, 42, 0
11, 150544, Note_on_c, 9, 35, 0
11, 150544, Note_on_c, 9, 42, 89
11, 150545, Note_on_c, 9, 42, 0
11, 150640, Note_on_c, 9, 35, 108
11, 150640, Note_on_c, 9, 46, 88
11, 150736, Note_on_c, 9, 46, 0
11, 150736, Note_on_c, 9, 35, 0
11, 150832, Note_on_c, 9, 42, 89
11, 150832, Note_on_c, 9, 35, 120
11, 150833, Note_on_c, 9, 42, 0
11, 150928, Note_on_c, 9, 42, 89
11, 150929, Note_on_c, 9, 42, 0
11, 151024, Note_on_c, 9, 35, 0
11, 151024, Note_on_c, 9, 46, 88
11, 151120, Note_on_c, 9, 46, 0
11, 151216, Note_on_c, 9, 37, 123
11, 151216, Note_on_c, 9, 42, 89
11, 151217, Note_on_c, 9, 42, 0
11, 151312, Note_on_c, 9, 37, 0
11, 151312, Note_on_c, 9, 42, 89
11, 151408, Note_on_c, 9, 42, 0
11, 151408, Note_on_c, 9, 46, 88
11, 151504, Note_on_c, 9, 46, 0
11, 151592, Note_on_c, 9, 42, 89
11, 151688, Note_on_c, 9, 42, 0
11, 151688, Note_on_c, 9, 34, 18
11, 151688, Note_on_c, 9, 42, 89
11, 151784, Note_on_c, 9, 42, 0
11, 151784, Note_on_c, 9, 34, 0
11, 151784, Note_on_c, 9, 46, 88
11, 151880, Note_on_c, 9, 46, 0
11, 151880, Note_on_c, 9, 34, 110
11, 151976, Note_on_c, 9, 34, 0
11, 151976, Note_on_c, 9, 42, 89
11, 152072, Note_on_c, 9, 42, 0
11, 152072, Note_on_c, 9, 42, 89
11, 152168, Note_on_c, 9, 42, 0
11, 152168, Note_on_c, 9, 46, 88
11, 152368, Note_on_c, 9, 46, 0
11, 152368, Note_on_c, 9, 42, 89
11, 152464, Note_on_c, 9, 42, 0
11, 152464, Note_on_c, 9, 42, 89
11, 152552, Note_on_c, 9, 42, 0
11, 152552, Note_on_c, 9, 35, 53
11, 152552, Note_on_c, 9, 46, 88
11, 152553, Note_on_c, 9, 35, 0
11, 152656, Note_on_c, 9, 46, 0
11, 152744, Note_on_c, 9, 35, 108
11, 152744, Note_on_c, 9, 42, 89
11, 152744, Note_on_c, 9, 37, 88
11, 152840, Note_on_c, 9, 42, 0
11, 152840, Note_on_c, 9, 42, 89
11, 152936, Note_on_c, 9, 42, 0
11, 152936, Note_on_c, 9, 37, 0
11, 152936, Note_on_c, 9, 35, 0
11, 152936, Note_on_c, 9, 46, 88
11, 153040, Note_on_c, 9, 46, 0
11, 153040, Note_on_c, 9, 35, 112
11, 153040, Note_on_c, 9, 37, 106
11, 153128, Note_on_c, 9, 35, 0
11, 153128, Note_on_c, 9, 42, 89
11, 153129, Note_on_c, 9, 42, 0
11, 153224, Note_on_c, 9, 37, 0
11, 153224, Note_on_c, 9, 42, 89
11, 153320, Note_on_c, 9, 42, 0
11, 153320, Note_on_c, 9, 46, 88
11, 153416, Note_on_c, 9, 46, 0
11, 153512, Note_on_c, 9, 35, 104
11, 153512, Note_on_c, 9, 42, 89
11, 153513, Note_on_c, 9, 42, 0
11, 153608, Note_on_c, 9, 35, 0
11, 153608, Note_on_c, 9, 42, 89
11, 153609, Note_on_c, 9, 42, 0
11, 153704, Note_on_c, 9, 35, 108
11, 153704, Note_on_c, 9, 46, 88
11, 153800, Note_on_c, 9, 46, 0
11, 153800, Note_on_c, 9, 35, 0
11, 153896, Note_on_c, 9, 35, 120
11, 153896, Note_on_c, 9, 42, 89
11, 153897, Note_on_c, 9, 42, 0
11, 153992, Note_on_c, 9, 42, 89
11, 153993, Note_on_c, 9, 42, 0
11, 154088, Note_on_c, 9, 35, 0
11, 154088, Note_on_c, 9, 46, 88
11, 154184, Note_on_c, 9, 46, 0
11, 154280, Note_on_c, 9, 42, 89
11, 154280, Note_on_c, 9, 37, 123
11, 154281, Note_on_c, 9, 42, 0
11, 154376, Note_on_c, 9, 37, 0
11, 154376, Note_on_c, 9, 42, 89
11, 154472, Note_on_c, 9, 42, 0
11, 154472, Note_on_c, 9, 46, 88
11, 154568, Note_on_c, 9, 46, 0
11, 154664, Note_on_c, 9, 42, 89
11, 154760, Note_on_c, 9, 42, 0
11, 154760, Note_on_c, 9, 42, 89
11, 154760, Note_on_c, 9, 34, 116
11, 154760, Note_on_c, 9, 53, 18
11, 154761, Note_on_c, 9, 53, 0
11, 154761, Note_on_c, 9, 34, 0
11, 154856, Note_on_c, 9, 42, 0
11, 154856, Note_on_c, 9, 46, 88
11, 154856, Note_on_c, 9, 38, 45
11, 154857, Note_on_c, 9, 38, 0
11, 154952, Note_on_c, 9, 46, 0
11, 155048, Note_on_c, 9, 42, 89
11, 155144, Note_on_c, 9, 42, 0
11, 155144, Note_on_c, 9, 42, 89
11, 155240, Note_on_c, 9, 42, 0
11, 155240, Note_on_c, 9, 46, 88
11, 155432, Note_on_c, 9, 46, 0
11, 155432, Note_on_c, 9, 42, 89
11, 155528, Note_on_c, 9, 42, 0
11, 155528, Note_on_c, 9, 42, 89
11, 155624, Note_on_c, 9, 42, 0
11, 155624, Note_on_c, 9, 35, 53
11, 155624, Note_on_c, 9, 46, 88
11, 155625, Note_on_c, 9, 35, 0
11, 155720, Note_on_c, 9, 46, 0
11, 155816, Note_on_c, 9, 35, 108
11, 155816, Note_on_c, 9, 42, 89
11, 155816, Note_on_c, 9, 37, 88
11, 155912, Note_on_c, 9, 42, 0
11, 155912, Note_on_c, 9, 42, 89
11, 156008, Note_on_c, 9, 42, 0
11, 156008, Note_on_c, 9, 37, 0
11, 156008, Note_on_c, 9, 35, 0
11, 156008, Note_on_c, 9, 46, 88
11, 156104, Note_on_c, 9, 46, 0
11, 156104, Note_on_c, 9, 35, 112
11, 156104, Note_on_c, 9, 37, 106
11, 156200, Note_on_c, 9, 35, 0
11, 156200, Note_on_c, 9, 42, 89
11, 156201, Note_on_c, 9, 42, 0
11, 156296, Note_on_c, 9, 37, 0
11, 156296, Note_on_c, 9, 42, 89
11, 156392, Note_on_c, 9, 42, 0
11, 156392, Note_on_c, 9, 46, 88
11, 156488, Note_on_c, 9, 46, 0
11, 156584, Note_on_c, 9, 35, 104
11, 156584, Note_on_c, 9, 42, 89
11, 156585, Note_on_c, 9, 42, 0
11, 156680, Note_on_c, 9, 35, 0
11, 156680, Note_on_c, 9, 42, 89
11, 156681, Note_on_c, 9, 42, 0
11, 156776, Note_on_c, 9, 35, 108
11, 156776, Note_on_c, 9, 46, 88
11, 156872, Note_on_c, 9, 46, 0
11, 156872, Note_on_c, 9, 35, 0
11, 156968, Note_on_c, 9, 35, 120
11, 156968, Note_on_c, 9, 42, 89
11, 156969, Note_on_c, 9, 42, 0
11, 157064, Note_on_c, 9, 42, 89
11, 157065, Note_on_c, 9, 42, 0
11, 157160, Note_on_c, 9, 35, 0
11, 157160, Note_on_c, 9, 46, 88
11, 157256, Note_on_c, 9, 46, 0
11, 157352, Note_on_c, 9, 42, 89
11, 157352, Note_on_c, 9, 37, 123
11, 157353, Note_on_c, 9, 42, 0
11, 157448, Note_on_c, 9, 37, 0
11, 157448, Note_on_c, 9, 42, 89
11, 157544, Note_on_c, 9, 42, 0
11, 157544, Note_on_c, 9, 46, 88
11, 157640, Note_on_c, 9, 46, 0
11, 157736, Note_on_c, 9, 42, 89
11, 157832, Note_on_c, 9, 42, 0
11, 157832, Note_on_c, 9, 42, 89
11, 157928, Note_on_c, 9, 42, 0
11, 157928, Note_on_c, 9, 46, 88
11, 158024, Note_on_c, 9, 46, 0
11, 158120, Note_on_c, 9, 42, 89
11, 158216, Note_on_c, 9, 42, 0
11, 158216, Note_on_c, 9, 42, 89
11, 158312, Note_on_c, 9, 42, 0
11, 158312, Note_on_c, 9, 46, 88
11, 158504, Note_on_c, 9, 46, 0
11, 158504, Note_on_c, 9, 42, 89
11, 158600, Note_on_c, 9, 42, 0
11, 158600, Note_on_c, 9, 42, 89
11, 158696, Note_on_c, 9, 42, 0
11, 158696, Note_on_c, 9, 46, 88
11, 158696, Note_on_c, 9, 35, 53
11, 158697, Note_on_c, 9, 35, 0
11, 158792, Note_on_c, 9, 46, 0
11, 158888, Note_on_c, 9, 42, 89
11, 158888, Note_on_c, 9, 37, 88
11, 158888, Note_on_c, 9, 35, 108
11, 158984, Note_on_c, 9, 42, 0
11, 158984, Note_on_c, 9, 42, 89
11, 159080, Note_on_c, 9, 42, 0
11, 159080, Note_on_c, 9, 35, 0
11, 159080, Note_on_c, 9, 37, 0
11, 159080, Note_on_c, 9, 46, 88
11, 159176, Note_on_c, 9, 46, 0
11, 159176, Note_on_c, 9, 35, 112
11, 159176, Note_on_c, 9, 37, 106
11, 159272, Note_on_c, 9, 35, 0
11, 159272, Note_on_c, 9, 42, 89
11, 159273, Note_on_c, 9, 42, 0
11, 159368, Note_on_c, 9, 37, 0
11, 159368, Note_on_c, 9, 42, 89
11, 159464, Note_on_c, 9, 42, 0
11, 159464, Note_on_c, 9, 46, 88
11, 159560, Note_on_c, 9, 46, 0
11, 159656, Note_on_c, 9, 35, 104
11, 159656, Note_on_c, 9, 42, 89
11, 159657, Note_on_c, 9, 42, 0
11, 159752, Note_on_c, 9, 35, 0
11, 159752, Note_on_c, 9, 42, 89
11, 159752, Note_on_c, 9, 38, 30
11, 159753, Note_on_c, 9, 42, 0
11, 159848, Note_on_c, 9, 38, 0
11, 159848, Note_on_c, 9, 46, 88
11, 159848, Note_on_c, 9, 35, 108
11, 159944, Note_on_c, 9, 35, 0
11, 159944, Note_on_c, 9, 46, 0
11, 159944, Note_on_c, 9, 38, 46
11, 160040, Note_on_c, 9, 38, 0
11, 160040, Note_on_c, 9, 35, 120
11, 160040, Note_on_c, 9, 42, 89
11, 160040, Note_on_c, 9, 38, 22
11, 160041, Note_on_c, 9, 38, 0
11, 160041, Note_on_c, 9, 42, 0
11, 160136, Note_on_c, 9, 42, 89
11, 160136, Note_on_c, 9, 34, 114
11, 160136, Note_on_c, 9, 53, 23
11, 160137, Note_on_c, 9, 53, 0
11, 160137, Note_on_c, 9, 42, 0
11, 160232, Note_on_c, 9, 34, 0
11, 160232, Note_on_c, 9, 35, 0
11, 160232, Note_on_c, 9, 46, 88
11, 160328, Note_on_c, 9, 46, 0
11, 160424, Note_on_c, 9, 42, 89
11, 160424, Note_on_c, 9, 37, 123
11, 160425, Note_on_c, 9, 42, 0
11, 160520, Note_on_c, 9, 37, 0
11, 160520, Note_on_c, 9, 34, 36
11, 160520, Note_on_c, 9, 42, 89
11, 160521, Note_on_c, 9, 34, 0
11, 160616, Note_on_c, 9, 42, 0
11, 160616, Note_on_c, 9, 46, 88
11, 160712, Note_on_c, 9, 46, 0
11, 160712, Note_on_c, 9, 34, 23
11, 160713, Note_on_c, 9, 34, 0
11, 160808, Note_on_c, 9, 50, 58
11, 160808, Note_on_c, 9, 42, 89
11, 160809, Note_on_c, 9, 50, 0
11, 160904, Note_on_c, 9, 42, 0
11, 160904, Note_on_c, 9, 50, 94
11, 160904, Note_on_c, 9, 42, 89
11, 161000, Note_on_c, 9, 42, 0
11, 161000, Note_on_c, 9, 50, 0
11, 161000, Note_on_c, 9, 46, 88
11, 161000, Note_on_c, 9, 47, 65
11, 161001, Note_on_c, 9, 47, 0
11, 161096, Note_on_c, 9, 46, 0
11, 161096, Note_on_c, 9, 47, 116
11, 161192, Note_on_c, 9, 47, 0
11, 161192, Note_on_c, 9, 42, 89
11, 161288, Note_on_c, 9, 42, 0
11, 161288, Note_on_c, 9, 42, 89
11, 161384, Note_on_c, 9, 42, 0
11, 161384, Note_on_c, 9, 46, 88
11, 161576, Note_on_c, 9, 46, 0
11, 161576, Note_on_c, 9, 42, 89
11, 161672, Note_on_c, 9, 42, 0
11, 161672, Note_on_c, 9, 42, 89
11, 161768, Note_on_c, 9, 42, 0
11, 161768, Note_on_c, 9, 46, 88
11, 161768, Note_on_c, 9, 35, 53
11, 161769, Note_on_c, 9, 35, 0
11, 161864, Note_on_c, 9, 46, 0
11, 161960, Note_on_c, 9, 35, 108
11, 161960, Note_on_c, 9, 37, 88
11, 161960, Note_on_c, 9, 42, 89
11, 162056, Note_on_c, 9, 42, 0
11, 162056, Note_on_c, 9, 42, 89
11, 162152, Note_on_c, 9, 42, 0
11, 162152, Note_on_c, 9, 37, 0
11, 162152, Note_on_c, 9, 35, 0
11, 162152, Note_on_c, 9, 46, 88
11, 162248, Note_on_c, 9, 46, 0
11, 162248, Note_on_c, 9, 35, 112
11, 162248, Note_on_c, 9, 37, 106
11, 162344, Note_on_c, 9, 35, 0
11, 162344, Note_on_c, 9, 42, 89
11, 162345, Note_on_c, 9, 42, 0
11, 162440, Note_on_c, 9, 37, 0
11, 162440, Note_on_c, 9, 42, 89
11, 162440, Note_on_c, 9, 34, 23
11, 162441, Note_on_c, 9, 34, 0
11, 162536, Note_on_c, 9, 42, 0
11, 162536, Note_on_c, 9, 34, 41
11, 162536, Note_on_c, 9, 46, 88
11, 162537, Note_on_c, 9, 34, 0
11, 162632, Note_on_c, 9, 46, 0
11, 162632, Note_on_c, 9, 34, 120
11, 162632, Note_on_c, 9, 40, 28
11, 162633, Note_on_c, 9, 40, 0
11, 162728, Note_on_c, 9, 34, 0
11, 162728, Note_on_c, 9, 35, 104
11, 162728, Note_on_c, 9, 42, 89
11, 162729, Note_on_c, 9, 42, 0
11, 162824, Note_on_c, 9, 35, 0
11, 162824, Note_on_c, 9, 38, 84
11, 162824, Note_on_c, 9, 42, 89
11, 162825, Note_on_c, 9, 42, 0
11, 162920, Note_on_c, 9, 38, 0
11, 162920, Note_on_c, 9, 35, 108
11, 162920, Note_on_c, 9, 34, 56
11, 162920, Note_on_c, 9, 46, 88
11, 162921, Note_on_c, 9, 34, 0
11, 163016, Note_on_c, 9, 46, 0
11, 163016, Note_on_c, 9, 35, 0
11, 163112, Note_on_c, 9, 42, 89
11, 163112, Note_on_c, 9, 35, 120
11, 163113, Note_on_c, 9, 42, 0
11, 163208, Note_on_c, 9, 42, 89
11, 163209, Note_on_c, 9, 42, 0
11, 163304, Note_on_c, 9, 35, 0
11, 163304, Note_on_c, 9, 46, 88
11, 163400, Note_on_c, 9, 46, 0
11, 163496, Note_on_c, 9, 42, 89
11, 163496, Note_on_c, 9, 37, 123
11, 163497, Note_on_c, 9, 42, 0
11, 163592, Note_on_c, 9, 37, 0
11, 163592, Note_on_c, 9, 42, 89
11, 163688, Note_on_c, 9, 42, 0
11, 163688, Note_on_c, 9, 46, 88
11, 163784, Note_on_c, 9, 46, 0
11, 163880, Note_on_c, 9, 42, 89
11, 163976, Note_on_c, 9, 42, 0
11, 163976, Note_on_c, 9, 42, 89
11, 164072, Note_on_c, 9, 42, 0
11, 164072, Note_on_c, 9, 46, 88
11, 164168, Note_on_c, 9, 46, 0
11, 164264, Note_on_c, 9, 42, 89
11, 164360, Note_on_c, 9, 42, 0
11, 164360, Note_on_c, 9, 42, 89
11, 164456, Note_on_c, 9, 42, 0
11, 164456, Note_on_c, 9, 46, 88
11, 164648, Note_on_c, 9, 46, 0
11, 164648, Note_on_c, 9, 42, 89
11, 164744, Note_on_c, 9, 42, 0
11, 164744, Note_on_c, 9, 42, 89
11, 164840, Note_on_c, 9, 42, 0
11, 164840, Note_on_c, 9, 35, 53
11, 164840, Note_on_c, 9, 46, 88
11, 164841, Note_on_c, 9, 35, 0
11, 164936, Note_on_c, 9, 46, 0
11, 165032, Note_on_c, 9, 35, 108
11, 165032, Note_on_c, 9, 42, 89
11, 165032, Note_on_c, 9, 37, 88
11, 165128, Note_on_c, 9, 42, 0
11, 165128, Note_on_c, 9, 42, 89
11, 165224, Note_on_c, 9, 42, 0
11, 165224, Note_on_c, 9, 37, 0
11, 165224, Note_on_c, 9, 35, 0
11, 165224, Note_on_c, 9, 46, 88
11, 165320, Note_on_c, 9, 46, 0
11, 165320, Note_on_c, 9, 35, 112
11, 165320, Note_on_c, 9, 37, 106
11, 165416, Note_on_c, 9, 35, 0
11, 165416, Note_on_c, 9, 42, 89
11, 165417, Note_on_c, 9, 42, 0
11, 165512, Note_on_c, 9, 37, 0
11, 165512, Note_on_c, 9, 42, 89
11, 165608, Note_on_c, 9, 42, 0
11, 165608, Note_on_c, 9, 46, 88
11, 165704, Note_on_c, 9, 46, 0
11, 165800, Note_on_c, 9, 35, 104
11, 165800, Note_on_c, 9, 42, 89
11, 165801, Note_on_c, 9, 42, 0
11, 165896, Note_on_c, 9, 35, 0
11, 165896, Note_on_c, 9, 42, 89
11, 165897, Note_on_c, 9, 42, 0
11, 165992, Note_on_c, 9, 46, 88
11, 165992, Note_on_c, 9, 35, 108
11, 166088, Note_on_c, 9, 35, 0
11, 166088, Note_on_c, 9, 46, 0
11, 166184, Note_on_c, 9, 42, 89
11, 166184, Note_on_c, 9, 35, 120
11, 166185, Note_on_c, 9, 42, 0
11, 166280, Note_on_c, 9, 42, 89
11, 166281, Note_on_c, 9, 42, 0
11, 166376, Note_on_c, 9, 35, 0
11, 166376, Note_on_c, 9, 46, 88
11, 166464, Note_on_c, 9, 46, 0
11, 166568, Note_on_c, 9, 37, 123
11, 166568, Note_on_c, 9, 42, 89
11, 166569, Note_on_c, 9, 42, 0
11, 166656, Note_on_c, 9, 37, 0
11, 166656, Note_on_c, 9, 42, 89
11, 166752, Note_on_c, 9, 42, 0
11, 166752, Note_on_c, 9, 46, 88
11, 166848, Note_on_c, 9, 46, 0
11, 166944, Note_on_c, 9, 42, 89
11, 167040, Note_on_c, 9, 42, 0
11, 167040, Note_on_c, 9, 42, 89
11, 167040, Note_on_c, 9, 34, 58
11, 167041, Note_on_c, 9, 34, 0
11, 167144, Note_on_c, 9, 42, 0
11, 167144, Note_on_c, 9, 46, 88
11, 167240, Note_on_c, 9, 46, 0
11, 167240, Note_on_c, 9, 38, 112
11, 167328, Note_on_c, 9, 38, 0
11, 167328, Note_on_c, 9, 42, 89
11, 167424, Note_on_c, 9, 42, 0
11, 167424, Note_on_c, 9, 42, 89
11, 167520, Note_on_c, 9, 42, 0
11, 167520, Note_on_c, 9, 46, 88
11, 167712, Note_on_c, 9, 46, 0
11, 167712, Note_on_c, 9, 42, 89
11, 167808, Note_on_c, 9, 42, 0
11, 167808, Note_on_c, 9, 42, 89
11, 167904, Note_on_c, 9, 42, 0
11, 167904, Note_on_c, 9, 46, 88
11, 167904, Note_on_c, 9, 35, 53
11, 167905, Note_on_c, 9, 35, 0
11, 168000, Note_on_c, 9, 46, 0
11, 168096, Note_on_c, 9, 42, 89
11, 168096, Note_on_c, 9, 37, 88
11, 168096, Note_on_c, 9, 35, 108
11, 168192, Note_on_c, 9, 42, 0
11, 168192, Note_on_c, 9, 42, 89
11, 168288, Note_on_c, 9, 42, 0
11, 168288, Note_on_c, 9, 35, 0
11, 168288, Note_on_c, 9, 37, 0
11, 168288, Note_on_c, 9, 46, 88
11, 168384, Note_on_c, 9, 46, 0
11, 168384, Note_on_c, 9, 35, 112
11, 168384, Note_on_c, 9, 37, 106
11, 168480, Note_on_c, 9, 35, 0
11, 168480, Note_on_c, 9, 42, 89
11, 168481, Note_on_c, 9, 42, 0
11, 168576, Note_on_c, 9, 37, 0
11, 168576, Note_on_c, 9, 42, 89
11, 168672, Note_on_c, 9, 42, 0
11, 168672, Note_on_c, 9, 46, 88
11, 168768, Note_on_c, 9, 46, 0
11, 168864, Note_on_c, 9, 42, 89
11, 168864, Note_on_c, 9, 35, 104
11, 168865, Note_on_c, 9, 42, 0
11, 168960, Note_on_c, 9, 35, 0
11, 168960, Note_on_c, 9, 42, 89
11, 168961, Note_on_c, 9, 42, 0
11, 169056, Note_on_c, 9, 35, 108
11, 169056, Note_on_c, 9, 46, 88
11, 169152, Note_on_c, 9, 46, 0
11, 169152, Note_on_c, 9, 35, 0
11, 169248, Note_on_c, 9, 42, 89
11, 169248, Note_on_c, 9, 35, 120
11, 169249, Note_on_c, 9, 42, 0
11, 169344, Note_on_c, 9, 42, 89
11, 169345, Note_on_c, 9, 42, 0
11, 169440, Note_on_c, 9, 35, 0
11, 169440, Note_on_c, 9, 46, 88
11, 169536, Note_on_c, 9, 46, 0
11, 169632, Note_on_c, 9, 37, 123
11, 169632, Note_on_c, 9, 42, 89
11, 169633, Note_on_c, 9, 42, 0
11, 169728, Note_on_c, 9, 37, 0
11, 169728, Note_on_c, 9, 42, 89
11, 169824, Note_on_c, 9, 42, 0
11, 169824, Note_on_c, 9, 46, 88
11, 169920, Note_on_c, 9, 46, 0
11, 170016, Note_on_c, 9, 42, 89
11, 170112, Note_on_c, 9, 42, 0
11, 170112, Note_on_c, 9, 42, 89
11, 170208, Note_on_c, 9, 42, 0
11, 170208, Note_on_c, 9, 46, 88
11, 170304, Note_on_c, 9, 46, 0
11, 170400, Note_on_c, 9, 42, 89
11, 170496, Note_on_c, 9, 42, 0
11, 170496, Note_on_c, 9, 42, 89
11, 170592, Note_on_c, 9, 42, 0
11, 170592, Note_on_c, 9, 46, 88
11, 170784, Note_on_c, 9, 46, 0
11, 170784, Note_on_c, 9, 42, 89
11, 170880, Note_on_c, 9, 42, 0
11, 170880, Note_on_c, 9, 42, 89
11, 170976, Note_on_c, 9, 42, 0
11, 170976, Note_on_c, 9, 35, 53
11, 170976, Note_on_c, 9, 46, 88
11, 170977, Note_on_c, 9, 35, 0
11, 171072, Note_on_c, 9, 46, 0
11, 171168, Note_on_c, 9, 42, 89
11, 171168, Note_on_c, 9, 37, 88
11, 171168, Note_on_c, 9, 35, 108
11, 171264, Note_on_c, 9, 42, 0
11, 171264, Note_on_c, 9, 42, 89
11, 171360, Note_on_c, 9, 42, 0
11, 171360, Note_on_c, 9, 35, 0
11, 171360, Note_on_c, 9, 37, 0
11, 171360, Note_on_c, 9, 46, 88
11, 171456, Note_on_c, 9, 46, 0
11, 171456, Note_on_c, 9, 35, 112
11, 171456, Note_on_c, 9, 37, 106
11, 171552, Note_on_c, 9, 35, 0
11, 171552, Note_on_c, 9, 42, 89
11, 171553, Note_on_c, 9, 42, 0
11, 171648, Note_on_c, 9, 37, 0
11, 171648, Note_on_c, 9, 34, 21
11, 171648, Note_on_c, 9, 42, 89
11, 171649, Note_on_c, 9, 34, 0
11, 171744, Note_on_c, 9, 42, 0
11, 171744, Note_on_c, 9, 34, 19
11, 171744, Note_on_c, 9, 46, 88
11, 171840, Note_on_c, 9, 46, 0
11, 171840, Note_on_c, 9, 34, 0
11, 171840, Note_on_c, 9, 34, 39
11, 171841, Note_on_c, 9, 34, 0
11, 171936, Note_on_c, 9, 42, 89
11, 171936, Note_on_c, 9, 35, 104
11, 171937, Note_on_c, 9, 42, 0
11, 172032, Note_on_c, 9, 35, 0
11, 172032, Note_on_c, 9, 42, 89
11, 172032, Note_on_c, 9, 34, 44
11, 172033, Note_on_c, 9, 34, 0
11, 172033, Note_on_c, 9, 42, 0
11, 172128, Note_on_c, 9, 46, 88
11, 172128, Note_on_c, 9, 34, 18
11, 172128, Note_on_c, 9, 35, 108
11, 172224, Note_on_c, 9, 35, 0
11, 172224, Note_on_c, 9, 34, 0
11, 172224, Note_on_c, 9, 46, 0
11, 172224, Note_on_c, 9, 34, 74
11, 172320, Note_on_c, 9, 34, 0
11, 172320, Note_on_c, 9, 35, 120
11, 172320, Note_on_c, 9, 42, 89
11, 172320, Note_on_c, 9, 34, 98
11, 172321, Note_on_c, 9, 42, 0
11, 172416, Note_on_c, 9, 34, 0
11, 172416, Note_on_c, 9, 34, 88
11, 172416, Note_on_c, 9, 42, 89
11, 172417, Note_on_c, 9, 42, 0
11, 172512, Note_on_c, 9, 34, 0
11, 172512, Note_on_c, 9, 35, 0
11, 172512, Note_on_c, 9, 46, 88
11, 172608, Note_on_c, 9, 46, 0
11, 172704, Note_on_c, 9, 42, 89
11, 172704, Note_on_c, 9, 37, 123
11, 172705, Note_on_c, 9, 42, 0
11, 172800, Note_on_c, 9, 37, 0
11, 172800, Note_on_c, 9, 42, 89
11, 172800, Note_on_c, 9, 50, 64
11, 172801, Note_on_c, 9, 50, 0
11, 172896, Note_on_c, 9, 42, 0
11, 172896, Note_on_c, 9, 50, 46
11, 172896, Note_on_c, 9, 46, 88
11, 172897, Note_on_c, 9, 50, 0
11, 172992, Note_on_c, 9, 46, 0
11, 172992, Note_on_c, 9, 34, 88
11, 172993, Note_on_c, 9, 34, 0
11, 173088, Note_on_c, 9, 42, 89
11, 173184, Note_on_c, 9, 42, 0
11, 173184, Note_on_c, 9, 34, 84
11, 173184, Note_on_c, 9, 42, 89
11, 173185, Note_on_c, 9, 34, 0
11, 173280, Note_on_c, 9, 42, 0
11, 173280, Note_on_c, 9, 46, 88
11, 173280, Note_on_c, 9, 50, 88
11, 173281, Note_on_c, 9, 50, 0
11, 173376, Note_on_c, 9, 46, 0
11, 173376, Note_on_c, 9, 34, 74
11, 173377, Note_on_c, 9, 34, 0
11, 173472, Note_on_c, 9, 35, 98
11, 173472, Note_on_c, 9, 42, 89
11, 173472, Note_on_c, 9, 32, 30
11, 173472, Note_on_c, 9, 49, 47
11, 173473, Note_on_c, 9, 49, 0
11, 173473, Note_on_c, 9, 32, 0
11, 173568, Note_on_c, 9, 42, 0
11, 173568, Note_on_c, 9, 42, 89
11, 173664, Note_on_c, 9, 42, 0
11, 173664, Note_on_c, 9, 35, 0
11, 173664, Note_on_c, 9, 46, 88
11, 173856, Note_on_c, 9, 46, 0
11, 173856, Note_on_c, 9, 42, 89
11, 173856, Note_on_c, 9, 32, 28
11, 173857, Note_on_c, 9, 32, 0
11, 173952, Note_on_c, 9, 42, 0
11, 173952, Note_on_c, 9, 42, 89
11, 174048, Note_on_c, 9, 42, 0
11, 174048, Note_on_c, 9, 35, 120
11, 174048, Note_on_c, 9, 46, 88
11, 174144, Note_on_c, 9, 46, 0
11, 174144, Note_on_c, 9, 35, 0
11, 174240, Note_on_c, 9, 37, 96
11, 174240, Note_on_c, 9, 42, 89
11, 174240, Note_on_c, 9, 32, 32
11, 174241, Note_on_c, 9, 32, 0
11, 174336, Note_on_c, 9, 42, 0
11, 174336, Note_on_c, 9, 37, 0
11, 174336, Note_on_c, 9, 42, 89
11, 174432, Note_on_c, 9, 42, 0
11, 174432, Note_on_c, 9, 46, 88
11, 174528, Note_on_c, 9, 46, 0
11, 174528, Note_on_c, 9, 37, 110
11, 174624, Note_on_c, 9, 42, 89
11, 174624, Note_on_c, 9, 32, 46
11, 174625, Note_on_c, 9, 32, 0
11, 174625, Note_on_c, 9, 42, 0
11, 174720, Note_on_c, 9, 37, 0
11, 174720, Note_on_c, 9, 42, 89
11, 174720, Note_on_c, 9, 34, 22
11, 174816, Note_on_c, 9, 34, 0
11, 174816, Note_on_c, 9, 42, 0
11, 174816, Note_on_c, 9, 35, 112
11, 174816, Note_on_c, 9, 46, 88
11, 174816, Note_on_c, 9, 34, 44
11, 174817, Note_on_c, 9, 34, 0
11, 174912, Note_on_c, 9, 46, 0
11, 174912, Note_on_c, 9, 35, 0
11, 174912, Note_on_c, 9, 34, 127
11, 175008, Note_on_c, 9, 34, 0
11, 175008, Note_on_c, 9, 35, 114
11, 175008, Note_on_c, 9, 42, 89
11, 175008, Note_on_c, 9, 32, 30
11, 175009, Note_on_c, 9, 32, 0
11, 175009, Note_on_c, 9, 42, 0
11, 175104, Note_on_c, 9, 42, 89
11, 175105, Note_on_c, 9, 42, 0
11, 175200, Note_on_c, 9, 46, 89
11, 175296, Note_on_c, 9, 46, 0
11, 175296, Note_on_c, 9, 35, 0
11, 175392, Note_on_c, 9, 42, 89
11, 175392, Note_on_c, 9, 32, 28
11, 175393, Note_on_c, 9, 32, 0
11, 175393, Note_on_c, 9, 42, 0
11, 175488, Note_on_c, 9, 42, 89
11, 175489, Note_on_c, 9, 42, 0
11, 175584, Note_on_c, 9, 35, 121
11, 175584, Note_on_c, 9, 46, 89
11, 175680, Note_on_c, 9, 46, 0
11, 175776, Note_on_c, 9, 35, 0
11, 175776, Note_on_c, 9, 37, 118
11, 175776, Note_on_c, 9, 42, 89
11, 175776, Note_on_c, 9, 32, 32
11, 175777, Note_on_c, 9, 32, 0
11, 175777, Note_on_c, 9, 42, 0
11, 175872, Note_on_c, 9, 42, 89
11, 175968, Note_on_c, 9, 42, 0
11, 175968, Note_on_c, 9, 37, 0
11, 175968, Note_on_c, 9, 46, 89
11, 176064, Note_on_c, 9, 46, 0
11, 176064, Note_on_c, 9, 34, 26
11, 176065, Note_on_c, 9, 34, 0
11, 176160, Note_on_c, 9, 42, 89
11, 176160, Note_on_c, 9, 32, 46
11, 176160, Note_on_c, 9, 34, 16
11, 176161, Note_on_c, 9, 34, 0
11, 176161, Note_on_c, 9, 32, 0
11, 176256, Note_on_c, 9, 42, 0
11, 176256, Note_on_c, 9, 42, 89
11, 176256, Note_on_c, 9, 34, 30
11, 176257, Note_on_c, 9, 34, 0
11, 176352, Note_on_c, 9, 42, 0
11, 176352, Note_on_c, 9, 35, 118
11, 176352, Note_on_c, 9, 46, 89
11, 176448, Note_on_c, 9, 46, 0
11, 176448, Note_on_c, 9, 35, 0
11, 176448, Note_on_c, 9, 51, 84
11, 176448, Note_on_c, 9, 34, 108
11, 176544, Note_on_c, 9, 34, 0
11, 176544, Note_on_c, 9, 51, 0
11, 176544, Note_on_c, 9, 35, 98
11, 176544, Note_on_c, 9, 42, 89
11, 176544, Note_on_c, 9, 32, 30
11, 176545, Note_on_c, 9, 32, 0
11, 176640, Note_on_c, 9, 42, 0
11, 176640, Note_on_c, 9, 42, 89
11, 176736, Note_on_c, 9, 42, 0
11, 176736, Note_on_c, 9, 35, 0
11, 176736, Note_on_c, 9, 46, 89
11, 176928, Note_on_c, 9, 46, 0
11, 176928, Note_on_c, 9, 42, 89
11, 176928, Note_on_c, 9, 32, 28
11, 176929, Note_on_c, 9, 32, 0
11, 177024, Note_on_c, 9, 42, 0
11, 177024, Note_on_c, 9, 42, 89
11, 177120, Note_on_c, 9, 42, 0
11, 177120, Note_on_c, 9, 35, 120
11, 177120, Note_on_c, 9, 46, 89
11, 177216, Note_on_c, 9, 46, 0
11, 177216, Note_on_c, 9, 35, 0
11, 177312, Note_on_c, 9, 37, 96
11, 177312, Note_on_c, 9, 32, 32
11, 177312, Note_on_c, 9, 42, 89
11, 177313, Note_on_c, 9, 32, 0
11, 177408, Note_on_c, 9, 42, 0
11, 177408, Note_on_c, 9, 37, 0
11, 177408, Note_on_c, 9, 42, 89
11, 177504, Note_on_c, 9, 42, 0
11, 177504, Note_on_c, 9, 46, 89
11, 177600, Note_on_c, 9, 46, 0
11, 177600, Note_on_c, 9, 37, 110
11, 177696, Note_on_c, 9, 32, 46
11, 177696, Note_on_c, 9, 42, 89
11, 177697, Note_on_c, 9, 42, 0
11, 177697, Note_on_c, 9, 32, 0
11, 177792, Note_on_c, 9, 37, 0
11, 177792, Note_on_c, 9, 42, 89
11, 177792, Note_on_c, 9, 34, 47
11, 177793, Note_on_c, 9, 34, 0
11, 177888, Note_on_c, 9, 42, 0
11, 177888, Note_on_c, 9, 35, 112
11, 177888, Note_on_c, 9, 46, 89
11, 177888, Note_on_c, 9, 64, 29
11, 177888, Note_on_c, 9, 34, 69
11, 177889, Note_on_c, 9, 64, 0
11, 177984, Note_on_c, 9, 35, 0
11, 177984, Note_on_c, 9, 46, 0
11, 177984, Note_on_c, 9, 34, 0
11, 177984, Note_on_c, 9, 34, 94
11, 178080, Note_on_c, 9, 34, 0
11, 178080, Note_on_c, 9, 35, 114
11, 178080, Note_on_c, 9, 32, 30
11, 178080, Note_on_c, 9, 42, 89
11, 178081, Note_on_c, 9, 42, 0
11, 178081, Note_on_c, 9, 32, 0
11, 178176, Note_on_c, 9, 42, 89
11, 178177, Note_on_c, 9, 42, 0
11, 178272, Note_on_c, 9, 46, 89
11, 178368, Note_on_c, 9, 46, 0
11, 178368, Note_on_c, 9, 35, 0
11, 178464, Note_on_c, 9, 32, 28
11, 178464, Note_on_c, 9, 42, 89
11, 178465, Note_on_c, 9, 42, 0
11, 178465, Note_on_c, 9, 32, 0
11, 178560, Note_on_c, 9, 42, 89
11, 178561, Note_on_c, 9, 42, 0
11, 178656, Note_on_c, 9, 35, 121
11, 178656, Note_on_c, 9, 46, 89
11, 178752, Note_on_c, 9, 46, 0
11, 178752, Note_on_c, 9, 34, 82
11, 178752, Note_on_c, 9, 40, 25
11, 178753, Note_on_c, 9, 40, 0
11, 178848, Note_on_c, 9, 34, 0
11, 178848, Note_on_c, 9, 35, 0
11, 178848, Note_on_c, 9, 42, 89
11, 178848, Note_on_c, 9, 32, 32
11, 178848, Note_on_c, 9, 37, 118
11, 178849, Note_on_c, 9, 32, 0
11, 178849, Note_on_c, 9, 42, 0
11, 178944, Note_on_c, 9, 42, 89
11, 179040, Note_on_c, 9, 42, 0
11, 179040, Note_on_c, 9, 37, 0
11, 179040, Note_on_c, 9, 46, 89
11, 179136, Note_on_c, 9, 46, 0
11, 179232, Note_on_c, 9, 42, 89
11, 179232, Note_on_c, 9, 32, 46
11, 179233, Note_on_c, 9, 32, 0
11, 179328, Note_on_c, 9, 42, 0
11, 179328, Note_on_c, 9, 42, 89
11, 179424, Note_on_c, 9, 42, 0
11, 179424, Note_on_c, 9, 46, 89
11, 179424, Note_on_c, 9, 35, 118
11, 179520, Note_on_c, 9, 35, 0
11, 179520, Note_on_c, 9, 46, 0
11, 179616, Note_on_c, 9, 42, 89
11, 179616, Note_on_c, 9, 32, 30
11, 179616, Note_on_c, 9, 35, 98
11, 179617, Note_on_c, 9, 32, 0
11, 179712, Note_on_c, 9, 42, 0
11, 179712, Note_on_c, 9, 42, 89
11, 179808, Note_on_c, 9, 42, 0
11, 179808, Note_on_c, 9, 35, 0
11, 179808, Note_on_c, 9, 46, 89
11, 180000, Note_on_c, 9, 46, 0
11, 180000, Note_on_c, 9, 42, 89
11, 180000, Note_on_c, 9, 38, 18
11, 180000, Note_on_c, 9, 32, 28
11, 180001, Note_on_c, 9, 32, 0
11, 180096, Note_on_c, 9, 38, 0
11, 180096, Note_on_c, 9, 42, 0
11, 180096, Note_on_c, 9, 42, 89
11, 180096, Note_on_c, 9, 34, 18
11, 180097, Note_on_c, 9, 34, 0
11, 180192, Note_on_c, 9, 42, 0
11, 180192, Note_on_c, 9, 46, 89
11, 180192, Note_on_c, 9, 38, 59
11, 180192, Note_on_c, 9, 35, 120
11, 180288, Note_on_c, 9, 35, 0
11, 180288, Note_on_c, 9, 38, 0
11, 180288, Note_on_c, 9, 46, 0
11, 180288, Note_on_c, 9, 34, 59
11, 180289, Note_on_c, 9, 34, 0
11, 180384, Note_on_c, 9, 42, 89
11, 180384, Note_on_c, 9, 32, 32
11, 180384, Note_on_c, 9, 37, 96
11, 180385, Note_on_c, 9, 32, 0
11, 180472, Note_on_c, 9, 37, 0
11, 180472, Note_on_c, 9, 42, 0
11, 180472, Note_on_c, 9, 42, 89
11, 180576, Note_on_c, 9, 42, 0
11, 180576, Note_on_c, 9, 46, 89
11, 180664, Note_on_c, 9, 46, 0
11, 180664, Note_on_c, 9, 37, 110
11, 180768, Note_on_c, 9, 42, 89
11, 180768, Note_on_c, 9, 32, 46
11, 180769, Note_on_c, 9, 32, 0
11, 180769, Note_on_c, 9, 42, 0
11, 180864, Note_on_c, 9, 37, 0
11, 180864, Note_on_c, 9, 42, 89
11, 180952, Note_on_c, 9, 42, 0
11, 180952, Note_on_c, 9, 35, 112
11, 180952, Note_on_c, 9, 46, 89
11, 180952, Note_on_c, 9, 34, 18
11, 180953, Note_on_c, 9, 34, 0
11, 181048, Note_on_c, 9, 46, 0
11, 181048, Note_on_c, 9, 35, 0
11, 181048, Note_on_c, 9, 49, 58
11, 181048, Note_on_c, 9, 34, 84
11, 181049, Note_on_c, 9, 34, 0
11, 181144, Note_on_c, 9, 49, 0
11, 181144, Note_on_c, 9, 35, 114
11, 181144, Note_on_c, 9, 42, 89
11, 181144, Note_on_c, 9, 32, 30
11, 181145, Note_on_c, 9, 32, 0
11, 181145, Note_on_c, 9, 42, 0
11, 181240, Note_on_c, 9, 42, 89
11, 181241, Note_on_c, 9, 42, 0
11, 181344, Note_on_c, 9, 46, 89
11, 181440, Note_on_c, 9, 46, 0
11, 181440, Note_on_c, 9, 35, 0
11, 181528, Note_on_c, 9, 42, 89
11, 181528, Note_on_c, 9, 32, 28
11, 181529, Note_on_c, 9, 32, 0
11, 181529, Note_on_c, 9, 42, 0
11, 181624, Note_on_c, 9, 42, 89
11, 181624, Note_on_c, 9, 49, 68
11, 181624, Note_on_c, 9, 34, 104
11, 181625, Note_on_c, 9, 34, 0
11, 181625, Note_on_c, 9, 42, 0
11, 181720, Note_on_c, 9, 49, 0
11, 181720, Note_on_c, 9, 35, 121
11, 181720, Note_on_c, 9, 46, 89
11, 181816, Note_on_c, 9, 46, 0
11, 181912, Note_on_c, 9, 35, 0
11, 181912, Note_on_c, 9, 37, 118
11, 181912, Note_on_c, 9, 42, 89
11, 181912, Note_on_c, 9, 32, 32
11, 181913, Note_on_c, 9, 32, 0
11, 181913, Note_on_c, 9, 42, 0
11, 182008, Note_on_c, 9, 42, 89
11, 182104, Note_on_c, 9, 42, 0
11, 182104, Note_on_c, 9, 37, 0
11, 182104, Note_on_c, 9, 46, 89
11, 182200, Note_on_c, 9, 46, 0
11, 182296, Note_on_c, 9, 42, 89
11, 182296, Note_on_c, 9, 32, 46
11, 182297, Note_on_c, 9, 32, 0
11, 182392, Note_on_c, 9, 42, 0
11, 182392, Note_on_c, 9, 42, 89
11, 182488, Note_on_c, 9, 42, 0
11, 182488, Note_on_c, 9, 35, 118
11, 182488, Note_on_c, 9, 46, 89
11, 182584, Note_on_c, 9, 46, 0
11, 182584, Note_on_c, 9, 35, 0
11, 182680, Note_on_c, 9, 35, 98
11, 182680, Note_on_c, 9, 42, 89
11, 182680, Note_on_c, 9, 32, 30
11, 182681, Note_on_c, 9, 32, 0
11, 182776, Note_on_c, 9, 42, 0
11, 182776, Note_on_c, 9, 42, 89
11, 182872, Note_on_c, 9, 42, 0
11, 182872, Note_on_c, 9, 35, 0
11, 182872, Note_on_c, 9, 46, 89
11, 183064, Note_on_c, 9, 46, 0
11, 183064, Note_on_c, 9, 42, 89
11, 183064, Note_on_c, 9, 32, 28
11, 183065, Note_on_c, 9, 32, 0
11, 183160, Note_on_c, 9, 42, 0
11, 183160, Note_on_c, 9, 42, 89
11, 183256, Note_on_c, 9, 42, 0
11, 183256, Note_on_c, 9, 35, 120
11, 183256, Note_on_c, 9, 46, 89
11, 183352, Note_on_c, 9, 46, 0
11, 183352, Note_on_c, 9, 35, 0
11, 183448, Note_on_c, 9, 37, 96
11, 183448, Note_on_c, 9, 42, 89
11, 183448, Note_on_c, 9, 32, 32
11, 183449, Note_on_c, 9, 32, 0
11, 183544, Note_on_c, 9, 42, 0
11, 183544, Note_on_c, 9, 37, 0
11, 183544, Note_on_c, 9, 42, 89
11, 183544, Note_on_c, 9, 34, 31
11, 183545, Note_on_c, 9, 34, 0
11, 183640, Note_on_c, 9, 42, 0
11, 183640, Note_on_c, 9, 46, 89
11, 183736, Note_on_c, 9, 46, 0
11, 183736, Note_on_c, 9, 37, 110
11, 183736, Note_on_c, 9, 34, 33
11, 183737, Note_on_c, 9, 34, 0
11, 183832, Note_on_c, 9, 42, 89
11, 183832, Note_on_c, 9, 32, 46
11, 183832, Note_on_c, 9, 34, 94
11, 183833, Note_on_c, 9, 32, 0
11, 183833, Note_on_c, 9, 42, 0
11, 183928, Note_on_c, 9, 37, 0
11, 183928, Note_on_c, 9, 34, 0
11, 183928, Note_on_c, 9, 42, 89
11, 184024, Note_on_c, 9, 42, 0
11, 184024, Note_on_c, 9, 35, 112
11, 184024, Note_on_c, 9, 46, 89
11, 184120, Note_on_c, 9, 46, 0
11, 184120, Note_on_c, 9, 35, 0
11, 184216, Note_on_c, 9, 35, 114
11, 184216, Note_on_c, 9, 42, 89
11, 184216, Note_on_c, 9, 32, 30
11, 184217, Note_on_c, 9, 32, 0
11, 184217, Note_on_c, 9, 42, 0
11, 184312, Note_on_c, 9, 42, 89
11, 184312, Note_on_c, 9, 38, 50
11, 184313, Note_on_c, 9, 38, 0
11, 184313, Note_on_c, 9, 42, 0
11, 184408, Note_on_c, 9, 46, 89
11, 184504, Note_on_c, 9, 46, 0
11, 184504, Note_on_c, 9, 35, 0
11, 184504, Note_on_c, 9, 34, 39
11, 184505, Note_on_c, 9, 34, 0
11, 184600, Note_on_c, 9, 42, 89
11, 184600, Note_on_c, 9, 32, 28
11, 184600, Note_on_c, 9, 38, 86
11, 184601, Note_on_c, 9, 32, 0
11, 184601, Note_on_c, 9, 42, 0
11, 184696, Note_on_c, 9, 38, 0
11, 184696, Note_on_c, 9, 42, 89
11, 184697, Note_on_c, 9, 42, 0
11, 184792, Note_on_c, 9, 35, 121
11, 184792, Note_on_c, 9, 46, 89
11, 184888, Note_on_c, 9, 46, 0
11, 184888, Note_on_c, 9, 50, 74
11, 184889, Note_on_c, 9, 50, 0
11, 184984, Note_on_c, 9, 35, 0
11, 184984, Note_on_c, 9, 37, 118
11, 184984, Note_on_c, 9, 42, 89
11, 184984, Note_on_c, 9, 32, 32
11, 184985, Note_on_c, 9, 32, 0
11, 184985, Note_on_c, 9, 42, 0
11, 185080, Note_on_c, 9, 50, 67
11, 185080, Note_on_c, 9, 42, 89
11, 185081, Note_on_c, 9, 50, 0
11, 185176, Note_on_c, 9, 42, 0
11, 185176, Note_on_c, 9, 37, 0
11, 185176, Note_on_c, 9, 47, 86
11, 185176, Note_on_c, 9, 46, 89
11, 185272, Note_on_c, 9, 46, 0
11, 185272, Note_on_c, 9, 47, 0
11, 185368, Note_on_c, 9, 32, 46
11, 185368, Note_on_c, 9, 42, 89
11, 185369, Note_on_c, 9, 32, 0
11, 185464, Note_on_c, 9, 42, 0
11, 185464, Note_on_c, 9, 42, 89
11, 185464, Note_on_c, 9, 45, 21
11, 185465, Note_on_c, 9, 45, 0
11, 185560, Note_on_c, 9, 42, 0
11, 185560, Note_on_c, 9, 46, 89
11, 185560, Note_on_c, 9, 35, 118
11, 185656, Note_on_c, 9, 35, 0
11, 185656, Note_on_c, 9, 46, 0
11, 185656, Note_on_c, 9, 45, 80
11, 185656, Note_on_c, 9, 49, 72
11, 185656, Note_on_c, 9, 50, 65
11, 185657, Note_on_c, 9, 50, 0
11, 185657, Note_on_c, 9, 49, 0
11, 185657, Note_on_c, 9, 45, 0
11, 185760, Note_on_c, 9, 35, 100
11, 185760, Note_on_c, 9, 42, 89
11, 185848, Note_on_c, 9, 42, 0
11, 185848, Note_on_c, 9, 42, 89
11, 185944, Note_on_c, 9, 42, 0
11, 185944, Note_on_c, 9, 35, 0
11, 185944, Note_on_c, 9, 46, 89
11, 186136, Note_on_c, 9, 46, 0
11, 186136, Note_on_c, 9, 42, 89
11, 186232, Note_on_c, 9, 42, 0
11, 186232, Note_on_c, 9, 42, 89
11, 186328, Note_on_c, 9, 42, 0
11, 186328, Note_on_c, 9, 46, 89
11, 186328, Note_on_c, 9, 35, 102
11, 186329, Note_on_c, 9, 35, 0
11, 186424, Note_on_c, 9, 46, 0
11, 186520, Note_on_c, 9, 40, 123
11, 186520, Note_on_c, 9, 42, 89
11, 186616, Note_on_c, 9, 42, 0
11, 186616, Note_on_c, 9, 42, 89
11, 186712, Note_on_c, 9, 42, 0
11, 186712, Note_on_c, 9, 46, 89
11, 186808, Note_on_c, 9, 46, 0
11, 186808, Note_on_c, 9, 40, 0
11, 186904, Note_on_c, 9, 42, 89
11, 186905, Note_on_c, 9, 42, 0
11, 187000, Note_on_c, 9, 42, 89
11, 187096, Note_on_c, 9, 42, 0
11, 187096, Note_on_c, 9, 46, 89
11, 187192, Note_on_c, 9, 46, 0
11, 187288, Note_on_c, 9, 35, 100
11, 187288, Note_on_c, 9, 42, 89
11, 187289, Note_on_c, 9, 42, 0
11, 187384, Note_on_c, 9, 42, 89
11, 187385, Note_on_c, 9, 42, 0
11, 187480, Note_on_c, 9, 35, 0
11, 187480, Note_on_c, 9, 46, 89
11, 187576, Note_on_c, 9, 46, 0
11, 187672, Note_on_c, 9, 42, 89
11, 187673, Note_on_c, 9, 42, 0
11, 187768, Note_on_c, 9, 42, 89
11, 187769, Note_on_c, 9, 42, 0
11, 187864, Note_on_c, 9, 46, 89
11, 187864, Note_on_c, 9, 35, 102
11, 187865, Note_on_c, 9, 35, 0
11, 187960, Note_on_c, 9, 46, 0
11, 188056, Note_on_c, 9, 42, 89
11, 188056, Note_on_c, 9, 40, 123
11, 188057, Note_on_c, 9, 42, 0
11, 188152, Note_on_c, 9, 42, 89
11, 188248, Note_on_c, 9, 42, 0
11, 188248, Note_on_c, 9, 46, 89
11, 188344, Note_on_c, 9, 46, 0
11, 188344, Note_on_c, 9, 40, 0
11, 188440, Note_on_c, 9, 42, 89
11, 188536, Note_on_c, 9, 42, 0
11, 188536, Note_on_c, 9, 42, 89
11, 188632, Note_on_c, 9, 42, 0
11, 188632, Note_on_c, 9, 46, 89
11, 188728, Note_on_c, 9, 46, 0
11, 188824, Note_on_c, 9, 42, 89
11, 188824, Note_on_c, 9, 35, 100
11, 188920, Note_on_c, 9, 42, 0
11, 188920, Note_on_c, 9, 42, 89
11, 189016, Note_on_c, 9, 42, 0
11, 189016, Note_on_c, 9, 35, 0
11, 189016, Note_on_c, 9, 46, 89
11, 189208, Note_on_c, 9, 46, 0
11, 189208, Note_on_c, 9, 42, 89
11, 189304, Note_on_c, 9, 42, 0
11, 189304, Note_on_c, 9, 42, 89
11, 189400, Note_on_c, 9, 42, 0
11, 189400, Note_on_c, 9, 46, 89
11, 189400, Note_on_c, 9, 35, 102
11, 189401, Note_on_c, 9, 35, 0
11, 189496, Note_on_c, 9, 46, 0
11, 189592, Note_on_c, 9, 42, 90
11, 189592, Note_on_c, 9, 40, 123
11, 189688, Note_on_c, 9, 42, 0
11, 189688, Note_on_c, 9, 42, 90
11, 189784, Note_on_c, 9, 42, 0
11, 189784, Note_on_c, 9, 46, 89
11, 189880, Note_on_c, 9, 46, 0
11, 189880, Note_on_c, 9, 40, 0
11, 189976, Note_on_c, 9, 42, 90
11, 189977, Note_on_c, 9, 42, 0
11, 190072, Note_on_c, 9, 42, 90
11, 190168, Note_on_c, 9, 42, 0
11, 190168, Note_on_c, 9, 46, 89
11, 190264, Note_on_c, 9, 46, 0
11, 190360, Note_on_c, 9, 42, 90
11, 190360, Note_on_c, 9, 35, 100
11, 190361, Note_on_c, 9, 42, 0
11, 190456, Note_on_c, 9, 42, 90
11, 190457, Note_on_c, 9, 42, 0
11, 190552, Note_on_c, 9, 35, 0
11, 190552, Note_on_c, 9, 46, 89
11, 190648, Note_on_c, 9, 46, 0
11, 190744, Note_on_c, 9, 42, 90
11, 190745, Note_on_c, 9, 42, 0
11, 190840, Note_on_c, 9, 42, 90
11, 190841, Note_on_c, 9, 42, 0
11, 190936, Note_on_c, 9, 35, 102
11, 190936, Note_on_c, 9, 46, 89
11, 190937, Note_on_c, 9, 35, 0
11, 191032, Note_on_c, 9, 46, 0
11, 191128, Note_on_c, 9, 40, 123
11, 191128, Note_on_c, 9, 42, 90
11, 191129, Note_on_c, 9, 42, 0
11, 191224, Note_on_c, 9, 42, 90
11, 191320, Note_on_c, 9, 42, 0
11, 191320, Note_on_c, 9, 46, 89
11, 191416, Note_on_c, 9, 46, 0
11, 191416, Note_on_c, 9, 40, 0
11, 191512, Note_on_c, 9, 42, 90
11, 191608, Note_on_c, 9, 42, 0
11, 191608, Note_on_c, 9, 42, 90
11, 191704, Note_on_c, 9, 42, 0
11, 191704, Note_on_c, 9, 46, 89
11, 191800, Note_on_c, 9, 46, 0
11, 191896, Note_on_c, 9, 35, 100
11, 191896, Note_on_c, 9, 42, 90
11, 191992, Note_on_c, 9, 42, 0
11, 191992, Note_on_c, 9, 42, 90
11, 192088, Note_on_c, 9, 42, 0
11, 192088, Note_on_c, 9, 35, 0
11, 192088, Note_on_c, 9, 46, 89
11, 192280, Note_on_c, 9, 46, 0
11, 192280, Note_on_c, 9, 42, 90
11, 192376, Note_on_c, 9, 42, 0
11, 192376, Note_on_c, 9, 42, 90
11, 192472, Note_on_c, 9, 42, 0
11, 192472, Note_on_c, 9, 35, 102
11, 192472, Note_on_c, 9, 46, 89
11, 192473, Note_on_c, 9, 35, 0
11, 192568, Note_on_c, 9, 46, 0
11, 192664, Note_on_c, 9, 40, 123
11, 192664, Note_on_c, 9, 42, 90
11, 192760, Note_on_c, 9, 42, 0
11, 192760, Note_on_c, 9, 42, 90
11, 192856, Note_on_c, 9, 42, 0
11, 192856, Note_on_c, 9, 46, 89
11, 192952, Note_on_c, 9, 46, 0
11, 192952, Note_on_c, 9, 40, 0
11, 193048, Note_on_c, 9, 42, 90
11, 193049, Note_on_c, 9, 42, 0
11, 193144, Note_on_c, 9, 42, 90
11, 193240, Note_on_c, 9, 42, 0
11, 193240, Note_on_c, 9, 46, 89
11, 193336, Note_on_c, 9, 46, 0
11, 193432, Note_on_c, 9, 35, 100
11, 193432, Note_on_c, 9, 42, 90
11, 193433, Note_on_c, 9, 42, 0
11, 193528, Note_on_c, 9, 42, 90
11, 193529, Note_on_c, 9, 42, 0
11, 193624, Note_on_c, 9, 35, 0
11, 193624, Note_on_c, 9, 46, 89
11, 193720, Note_on_c, 9, 46, 0
11, 193816, Note_on_c, 9, 42, 90
11, 193817, Note_on_c, 9, 42, 0
11, 193912, Note_on_c, 9, 42, 90
11, 193913, Note_on_c, 9, 42, 0
11, 194008, Note_on_c, 9, 35, 102
11, 194008, Note_on_c, 9, 46, 89
11, 194009, Note_on_c, 9, 35, 0
11, 194104, Note_on_c, 9, 46, 0
11, 194200, Note_on_c, 9, 40, 123
11, 194200, Note_on_c, 9, 42, 90
11, 194201, Note_on_c, 9, 42, 0
11, 194296, Note_on_c, 9, 42, 90
11, 194392, Note_on_c, 9, 42, 0
11, 194392, Note_on_c, 9, 46, 89
11, 194488, Note_on_c, 9, 46, 0
11, 194488, Note_on_c, 9, 40, 0
11, 194584, Note_on_c, 9, 42, 90
11, 194680, Note_on_c, 9, 42, 0
11, 194680, Note_on_c, 9, 42, 90
11, 194776, Note_on_c, 9, 42, 0
11, 194776, Note_on_c, 9, 46, 89
11, 194872, Note_on_c, 9, 46, 0
11, 194968, Note_on_c, 9, 35, 100
11, 194968, Note_on_c, 9, 42, 90
11, 195064, Note_on_c, 9, 42, 0
11, 195064, Note_on_c, 9, 42, 90
11, 195152, Note_on_c, 9, 42, 0
11, 195152, Note_on_c, 9, 35, 0
11, 195152, Note_on_c, 9, 46, 89
11, 195352, Note_on_c, 9, 46, 0
11, 195352, Note_on_c, 9, 42, 90
11, 195448, Note_on_c, 9, 42, 0
11, 195448, Note_on_c, 9, 42, 90
11, 195544, Note_on_c, 9, 42, 0
11, 195544, Note_on_c, 9, 35, 102
11, 195544, Note_on_c, 9, 46, 89
11, 195545, Note_on_c, 9, 35, 0
11, 195640, Note_on_c, 9, 46, 0
11, 195728, Note_on_c, 9, 40, 123
11, 195728, Note_on_c, 9, 42, 90
11, 195824, Note_on_c, 9, 42, 0
11, 195824, Note_on_c, 9, 42, 90
11, 195928, Note_on_c, 9, 42, 0
11, 195928, Note_on_c, 9, 46, 89
11, 196024, Note_on_c, 9, 46, 0
11, 196024, Note_on_c, 9, 40, 0
11, 196120, Note_on_c, 9, 42, 90
11, 196121, Note_on_c, 9, 42, 0
11, 196208, Note_on_c, 9, 42, 90
11, 196304, Note_on_c, 9, 42, 0
11, 196304, Note_on_c, 9, 46, 89
11, 196400, Note_on_c, 9, 46, 0
11, 196496, Note_on_c, 9, 35, 100
11, 196496, Note_on_c, 9, 42, 90
11, 196497, Note_on_c, 9, 42, 0
11, 196600, Note_on_c, 9, 42, 90
11, 196601, Note_on_c, 9, 42, 0
11, 196688, Note_on_c, 9, 35, 0
11, 196688, Note_on_c, 9, 46, 89
11, 196784, Note_on_c, 9, 46, 0
11, 196880, Note_on_c, 9, 42, 90
11, 196881, Note_on_c, 9, 42, 0
11, 196976, Note_on_c, 9, 42, 90
11, 196977, Note_on_c, 9, 42, 0
11, 197072, Note_on_c, 9, 35, 102
11, 197072, Note_on_c, 9, 46, 89
11, 197073, Note_on_c, 9, 35, 0
11, 197168, Note_on_c, 9, 46, 0
11, 197264, Note_on_c, 9, 40, 123
11, 197264, Note_on_c, 9, 42, 90
11, 197265, Note_on_c, 9, 42, 0
11, 197360, Note_on_c, 9, 42, 90
11, 197456, Note_on_c, 9, 42, 0
11, 197456, Note_on_c, 9, 46, 89
11, 197552, Note_on_c, 9, 46, 0
11, 197552, Note_on_c, 9, 40, 0
11, 197648, Note_on_c, 9, 42, 90
11, 197744, Note_on_c, 9, 42, 0
11, 197744, Note_on_c, 9, 42, 90
11, 197840, Note_on_c, 9, 42, 0
11, 197840, Note_on_c, 9, 46, 89
11, 197936, Note_on_c, 9, 46, 0
11, 198032, Note_on_c, 9, 35, 100
11, 198032, Note_on_c, 9, 42, 90
11, 198128, Note_on_c, 9, 42, 0
11, 198128, Note_on_c, 9, 42, 90
11, 198224, Note_on_c, 9, 42, 0
11, 198224, Note_on_c, 9, 35, 0
11, 198224, Note_on_c, 9, 46, 89
11, 198416, Note_on_c, 9, 46, 0
11, 198416, Note_on_c, 9, 42, 90
11, 198512, Note_on_c, 9, 42, 0
11, 198512, Note_on_c, 9, 42, 90
11, 198608, Note_on_c, 9, 42, 0
11, 198608, Note_on_c, 9, 46, 89
11, 198608, Note_on_c, 9, 35, 102
11, 198609, Note_on_c, 9, 35, 0
11, 198704, Note_on_c, 9, 46, 0
11, 198800, Note_on_c, 9, 40, 123
11, 198800, Note_on_c, 9, 42, 90
11, 198896, Note_on_c, 9, 42, 0
11, 198896, Note_on_c, 9, 42, 90
11, 198992, Note_on_c, 9, 42, 0
11, 198992, Note_on_c, 9, 46, 89
11, 199088, Note_on_c, 9, 46, 0
11, 199088, Note_on_c, 9, 40, 0
11, 199184, Note_on_c, 9, 42, 90
11, 199185, Note_on_c, 9, 42, 0
11, 199280, Note_on_c, 9, 42, 90
11, 199376, Note_on_c, 9, 42, 0
11, 199376, Note_on_c, 9, 46, 89
11, 199472, Note_on_c, 9, 46, 0
11, 199568, Note_on_c, 9, 35, 100
11, 199568, Note_on_c, 9, 42, 90
11, 199569, Note_on_c, 9, 42, 0
11, 199664, Note_on_c, 9, 42, 90
11, 199665, Note_on_c, 9, 42, 0
11, 199760, Note_on_c, 9, 35, 0
11, 199760, Note_on_c, 9, 46, 89
11, 199856, Note_on_c, 9, 46, 0
11, 199952, Note_on_c, 9, 42, 90
11, 199953, Note_on_c, 9, 42, 0
11, 200048, Note_on_c, 9, 42, 90
11, 200049, Note_on_c, 9, 42, 0
11, 200144, Note_on_c, 9, 46, 89
11, 200144, Note_on_c, 9, 35, 102
11, 200145, Note_on_c, 9, 35, 0
11, 200240, Note_on_c, 9, 46, 0
11, 200336, Note_on_c, 9, 40, 123
11, 200336, Note_on_c, 9, 42, 90
11, 200337, Note_on_c, 9, 42, 0
11, 200432, Note_on_c, 9, 42, 90
11, 200528, Note_on_c, 9, 42, 0
11, 200528, Note_on_c, 9, 46, 89
11, 200624, Note_on_c, 9, 46, 0
11, 200624, Note_on_c, 9, 40, 0
11, 200720, Note_on_c, 9, 42, 90
11, 200816, Note_on_c, 9, 42, 0
11, 200816, Note_on_c, 9, 42, 90
11, 200912, Note_on_c, 9, 42, 0
11, 200912, Note_on_c, 9, 46, 89
11, 201008, Note_on_c, 9, 46, 0
11, 201104, Note_on_c, 9, 42, 90
11, 201104, Note_on_c, 9, 35, 100
11, 201200, Note_on_c, 9, 42, 0
11, 201200, Note_on_c, 9, 42, 90
11, 201296, Note_on_c, 9, 42, 0
11, 201296, Note_on_c, 9, 35, 0
11, 201296, Note_on_c, 9, 46, 89
11, 201488, Note_on_c, 9, 46, 0
11, 201488, Note_on_c, 9, 42, 90
11, 201584, Note_on_c, 9, 42, 0
11, 201584, Note_on_c, 9, 42, 90
11, 201680, Note_on_c, 9, 42, 0
11, 201680, Note_on_c, 9, 46, 89
11, 201680, Note_on_c, 9, 35, 102
11, 201681, Note_on_c, 9, 35, 0
11, 201776, Note_on_c, 9, 46, 0
11, 201872, Note_on_c, 9, 40, 123
11, 201872, Note_on_c, 9, 42, 90
11, 201968, Note_on_c, 9, 42, 0
11, 201968, Note_on_c, 9, 42, 90
11, 202064, Note_on_c, 9, 42, 0
11, 202064, Note_on_c, 9, 46, 89
11, 202160, Note_on_c, 9, 46, 0
11, 202160, Note_on_c, 9, 40, 0
11, 202256, Note_on_c, 9, 42, 90
11, 202257, Note_on_c, 9, 42, 0
11, 202352, Note_on_c, 9, 42, 90
11, 202448, Note_on_c, 9, 42, 0
11, 202448, Note_on_c, 9, 46, 89
11, 202544, Note_on_c, 9, 46, 0
11, 202640, Note_on_c, 9, 42, 90
11, 202640, Note_on_c, 9, 35, 100
11, 202641, Note_on_c, 9, 42, 0
11, 202736, Note_on_c, 9, 42, 90
11, 202737, Note_on_c, 9, 42, 0
11, 202832, Note_on_c, 9, 35, 0
11, 202832, Note_on_c, 9, 46, 89
11, 202928, Note_on_c, 9, 46, 0
11, 203024, Note_on_c, 9, 42, 90
11, 203025, Note_on_c, 9, 42, 0
11, 203120, Note_on_c, 9, 42, 90
11, 203121, Note_on_c, 9, 42, 0
11, 203216, Note_on_c, 9, 46, 89
11, 203216, Note_on_c, 9, 35, 102
11, 203217, Note_on_c, 9, 35, 0
11, 203312, Note_on_c, 9, 46, 0
11, 203408, Note_on_c, 9, 40, 123
11, 203408, Note_on_c, 9, 42, 90
11, 203409, Note_on_c, 9, 42, 0
11, 203504, Note_on_c, 9, 42, 90
11, 203600, Note_on_c, 9, 42, 0
11, 203600, Note_on_c, 9, 46, 89
11, 203696, Note_on_c, 9, 46, 0
11, 203696, Note_on_c, 9, 40, 0
11, 203792, Note_on_c, 9, 42, 90
11, 203888, Note_on_c, 9, 42, 0
11, 203888, Note_on_c, 9, 42, 90
11, 203984, Note_on_c, 9, 42, 0
11, 203984, Note_on_c, 9, 46, 89
11, 204080, Note_on_c, 9, 46, 0
11, 204176, Note_on_c, 9, 35, 100
11, 204176, Note_on_c, 9, 42, 90
11, 204272, Note_on_c, 9, 42, 0
11, 204272, Note_on_c, 9, 42, 90
11, 204368, Note_on_c, 9, 42, 0
11, 204368, Note_on_c, 9, 35, 0
11, 204368, Note_on_c, 9, 46, 89
11, 204560, Note_on_c, 9, 46, 0
11, 204560, Note_on_c, 9, 42, 90
11, 204656, Note_on_c, 9, 42, 0
11, 204656, Note_on_c, 9, 42, 90
11, 204752, Note_on_c, 9, 42, 0
11, 204752, Note_on_c, 9, 46, 89
11, 204752, Note_on_c, 9, 35, 102
11, 204753, Note_on_c, 9, 35, 0
11, 204848, Note_on_c, 9, 46, 0
11, 204944, Note_on_c, 9, 40, 123
11, 204944, Note_on_c, 9, 42, 90
11, 205040, Note_on_c, 9, 42, 0
11, 205040, Note_on_c, 9, 42, 90
11, 205136, Note_on_c, 9, 42, 0
11, 205136, Note_on_c, 9, 46, 89
11, 205232, Note_on_c, 9, 46, 0
11, 205232, Note_on_c, 9, 40, 0
11, 205328, Note_on_c, 9, 42, 90
11, 205329, Note_on_c, 9, 42, 0
11, 205424, Note_on_c, 9, 42, 90
11, 205520, Note_on_c, 9, 42, 0
11, 205520, Note_on_c, 9, 46, 89
11, 205616, Note_on_c, 9, 46, 0
11, 205712, Note_on_c, 9, 35, 100
11, 205712, Note_on_c, 9, 42, 90
11, 205713, Note_on_c, 9, 42, 0
11, 205808, Note_on_c, 9, 42, 90
11, 205809, Note_on_c, 9, 42, 0
11, 205904, Note_on_c, 9, 35, 0
11, 205904, Note_on_c, 9, 46, 89
11, 206000, Note_on_c, 9, 46, 0
11, 206096, Note_on_c, 9, 42, 90
11, 206097, Note_on_c, 9, 42, 0
11, 206192, Note_on_c, 9, 42, 90
11, 206193, Note_on_c, 9, 42, 0
11, 206288, Note_on_c, 9, 46, 89
11, 206288, Note_on_c, 9, 35, 102
11, 206289, Note_on_c, 9, 35, 0
11, 206384, Note_on_c, 9, 46, 0
11, 206480, Note_on_c, 9, 40, 123
11, 206480, Note_on_c, 9, 42, 90
11, 206481, Note_on_c, 9, 42, 0
11, 206576, Note_on_c, 9, 42, 90
11, 206672, Note_on_c, 9, 42, 0
11, 206672, Note_on_c, 9, 46, 89
11, 206768, Note_on_c, 9, 46, 0
11, 206768, Note_on_c, 9, 40, 0
11, 206864, Note_on_c, 9, 42, 90
11, 206960, Note_on_c, 9, 42, 0
11, 206960, Note_on_c, 9, 42, 90
11, 207056, Note_on_c, 9, 42, 0
11, 207056, Note_on_c, 9, 46, 89
11, 207152, Note_on_c, 9, 46, 0
11, 207248, Note_on_c, 9, 42, 90
11, 207248, Note_on_c, 9, 35, 100
11, 207344, Note_on_c, 9, 42, 0
11, 207344, Note_on_c, 9, 42, 90
11, 207440, Note_on_c, 9, 42, 0
11, 207440, Note_on_c, 9, 35, 0
11, 207440, Note_on_c, 9, 46, 89
11, 207632, Note_on_c, 9, 46, 0
11, 207632, Note_on_c, 9, 42, 90
11, 207728, Note_on_c, 9, 42, 0
11, 207728, Note_on_c, 9, 42, 90
11, 207824, Note_on_c, 9, 42, 0
11, 207824, Note_on_c, 9, 35, 102
11, 207824, Note_on_c, 9, 46, 89
11, 207825, Note_on_c, 9, 35, 0
11, 207920, Note_on_c, 9, 46, 0
11, 208016, Note_on_c, 9, 40, 123
11, 208016, Note_on_c, 9, 42, 90
11, 208112, Note_on_c, 9, 42, 0
11, 208112, Note_on_c, 9, 42, 90
11, 208208, Note_on_c, 9, 42, 0
11, 208208, Note_on_c, 9, 46, 89
11, 208304, Note_on_c, 9, 46, 0
11, 208304, Note_on_c, 9, 40, 0
11, 208400, Note_on_c, 9, 42, 90
11, 208401, Note_on_c, 9, 42, 0
11, 208496, Note_on_c, 9, 42, 90
11, 208592, Note_on_c, 9, 42, 0
11, 208592, Note_on_c, 9, 46, 89
11, 208688, Note_on_c, 9, 46, 0
11, 208784, Note_on_c, 9, 42, 90
11, 208784, Note_on_c, 9, 35, 100
11, 208785, Note_on_c, 9, 42, 0
11, 208880, Note_on_c, 9, 42, 90
11, 208881, Note_on_c, 9, 42, 0
11, 208976, Note_on_c, 9, 35, 0
11, 208976, Note_on_c, 9, 46, 89
11, 209072, Note_on_c, 9, 46, 0
11, 209168, Note_on_c, 9, 42, 90
11, 209169, Note_on_c, 9, 42, 0
11, 209264, Note_on_c, 9, 42, 90
11, 209265, Note_on_c, 9, 42, 0
11, 209360, Note_on_c, 9, 35, 102
11, 209360, Note_on_c, 9, 46, 89
11, 209361, Note_on_c, 9, 35, 0
11, 209456, Note_on_c, 9, 46, 0
11, 209544, Note_on_c, 9, 40, 123
11, 209544, Note_on_c, 9, 42, 90
11, 209545, Note_on_c, 9, 42, 0
11, 209648, Note_on_c, 9, 42, 90
11, 209744, Note_on_c, 9, 42, 0
11, 209744, Note_on_c, 9, 46, 89
11, 209840, Note_on_c, 9, 46, 0
11, 209840, Note_on_c, 9, 40, 0
11, 209928, Note_on_c, 9, 42, 90
11, 210024, Note_on_c, 9, 42, 0
11, 210024, Note_on_c, 9, 42, 90
11, 210128, Note_on_c, 9, 42, 0
11, 210128, Note_on_c, 9, 46, 89
11, 210224, Note_on_c, 9, 46, 0
11, 210320, Note_on_c, 9, 42, 90
11, 210320, Note_on_c, 9, 35, 98
11, 210416, Note_on_c, 9, 42, 0
11, 210416, Note_on_c, 9, 42, 90
11, 210504, Note_on_c, 9, 42, 0
11, 210504, Note_on_c, 9, 35, 0
11, 210504, Note_on_c, 9, 46, 89
11, 210704, Note_on_c, 9, 46, 0
11, 210704, Note_on_c, 9, 42, 90
11, 210792, Note_on_c, 9, 42, 0
11, 210792, Note_on_c, 9, 42, 90
11, 210888, Note_on_c, 9, 42, 0
11, 210888, Note_on_c, 9, 46, 89
11, 210888, Note_on_c, 9, 35, 120
11, 210984, Note_on_c, 9, 35, 0
11, 210984, Note_on_c, 9, 46, 0
11, 211080, Note_on_c, 9, 37, 96
11, 211080, Note_on_c, 9, 42, 90
11, 211176, Note_on_c, 9, 42, 0
11, 211176, Note_on_c, 9, 37, 0
11, 211176, Note_on_c, 9, 42, 90
11, 211272, Note_on_c, 9, 42, 0
11, 211272, Note_on_c, 9, 46, 89
11, 211368, Note_on_c, 9, 46, 0
11, 211368, Note_on_c, 9, 37, 110
11, 211464, Note_on_c, 9, 42, 90
11, 211465, Note_on_c, 9, 42, 0
11, 211560, Note_on_c, 9, 37, 0
11, 211560, Note_on_c, 9, 42, 90
11, 211656, Note_on_c, 9, 42, 0
11, 211656, Note_on_c, 9, 35, 112
11, 211656, Note_on_c, 9, 46, 89
11, 211752, Note_on_c, 9, 46, 0
11, 211752, Note_on_c, 9, 35, 0
11, 211848, Note_on_c, 9, 42, 90
11, 211848, Note_on_c, 9, 35, 114
11, 211849, Note_on_c, 9, 42, 0
11, 211944, Note_on_c, 9, 42, 90
11, 211945, Note_on_c, 9, 42, 0
11, 212040, Note_on_c, 9, 46, 89
11, 212136, Note_on_c, 9, 46, 0
11, 212136, Note_on_c, 9, 35, 0
11, 212232, Note_on_c, 9, 42, 90
11, 212233, Note_on_c, 9, 42, 0
11, 212328, Note_on_c, 9, 42, 90
11, 212329, Note_on_c, 9, 42, 0
11, 212424, Note_on_c, 9, 35, 121
11, 212424, Note_on_c, 9, 46, 89
11, 212520, Note_on_c, 9, 46, 0
11, 212616, Note_on_c, 9, 35, 0
11, 212616, Note_on_c, 9, 42, 90
11, 212616, Note_on_c, 9, 37, 118
11, 212617, Note_on_c, 9, 42, 0
11, 212712, Note_on_c, 9, 42, 90
11, 212808, Note_on_c, 9, 42, 0
11, 212808, Note_on_c, 9, 37, 0
11, 212808, Note_on_c, 9, 46, 89
11, 212904, Note_on_c, 9, 46, 0
11, 213000, Note_on_c, 9, 42, 90
11, 213096, Note_on_c, 9, 42, 0
11, 213096, Note_on_c, 9, 42, 90
11, 213192, Note_on_c, 9, 42, 0
11, 213192, Note_on_c, 9, 35, 118
11, 213192, Note_on_c, 9, 46, 89
11, 213288, Note_on_c, 9, 46, 0
11, 213288, Note_on_c, 9, 35, 0
11, 213384, Note_on_c, 9, 35, 98
11, 213384, Note_on_c, 9, 42, 90
11, 213480, Note_on_c, 9, 42, 0
11, 213480, Note_on_c, 9, 42, 90
11, 213576, Note_on_c, 9, 42, 0
11, 213576, Note_on_c, 9, 35, 0
11, 213576, Note_on_c, 9, 46, 89
11, 213768, Note_on_c, 9, 46, 0
11, 213768, Note_on_c, 9, 42, 90
11, 213864, Note_on_c, 9, 42, 0
11, 213864, Note_on_c, 9, 42, 90
11, 213960, Note_on_c, 9, 42, 0
11, 213960, Note_on_c, 9, 35, 120
11, 213960, Note_on_c, 9, 46, 89
11, 214056, Note_on_c, 9, 46, 0
11, 214056, Note_on_c, 9, 35, 0
11, 214152, Note_on_c, 9, 42, 90
11, 214152, Note_on_c, 9, 37, 96
11, 214248, Note_on_c, 9, 37, 0
11, 214248, Note_on_c, 9, 42, 0
11, 214248, Note_on_c, 9, 42, 90
11, 214344, Note_on_c, 9, 42, 0
11, 214344, Note_on_c, 9, 46, 89
11, 214440, Note_on_c, 9, 46, 0
11, 214440, Note_on_c, 9, 37, 110
11, 214536, Note_on_c, 9, 42, 90
11, 214537, Note_on_c, 9, 42, 0
11, 214632, Note_on_c, 9, 37, 0
11, 214632, Note_on_c, 9, 42, 90
11, 214728, Note_on_c, 9, 42, 0
11, 214728, Note_on_c, 9, 46, 89
11, 214728, Note_on_c, 9, 35, 112
11, 214824, Note_on_c, 9, 35, 0
11, 214824, Note_on_c, 9, 46, 0
11, 214920, Note_on_c, 9, 35, 114
11, 214920, Note_on_c, 9, 42, 90
11, 214921, Note_on_c, 9, 42, 0
11, 215016, Note_on_c, 9, 42, 90
11, 215017, Note_on_c, 9, 42, 0
11, 215112, Note_on_c, 9, 46, 89
11, 215208, Note_on_c, 9, 46, 0
11, 215208, Note_on_c, 9, 35, 0
11, 215304, Note_on_c, 9, 42, 90
11, 215305, Note_on_c, 9, 42, 0
11, 215400, Note_on_c, 9, 42, 90
11, 215401, Note_on_c, 9, 42, 0
11, 215496, Note_on_c, 9, 46, 89
11, 215496, Note_on_c, 9, 35, 121
11, 215592, Note_on_c, 9, 46, 0
11, 215688, Note_on_c, 9, 35, 0
11, 215688, Note_on_c, 9, 37, 118
11, 215688, Note_on_c, 9, 42, 90
11, 215689, Note_on_c, 9, 42, 0
11, 215784, Note_on_c, 9, 42, 90
11, 215880, Note_on_c, 9, 42, 0
11, 215880, Note_on_c, 9, 37, 0
11, 215880, Note_on_c, 9, 46, 89
11, 215976, Note_on_c, 9, 46, 0
11, 216072, Note_on_c, 9, 42, 90
11, 216168, Note_on_c, 9, 42, 0
11, 216168, Note_on_c, 9, 42, 90
11, 216264, Note_on_c, 9, 42, 0
11, 216264, Note_on_c, 9, 35, 118
11, 216264, Note_on_c, 9, 46, 89
11, 216360, Note_on_c, 9, 46, 0
11, 216360, Note_on_c, 9, 35, 0
11, 216456, Note_on_c, 9, 35, 98
11, 216456, Note_on_c, 9, 42, 90
11, 216552, Note_on_c, 9, 42, 0
11, 216552, Note_on_c, 9, 42, 90
11, 216648, Note_on_c, 9, 42, 0
11, 216648, Note_on_c, 9, 35, 0
11, 216648, Note_on_c, 9, 46, 89
11, 216840, Note_on_c, 9, 46, 0
11, 216840, Note_on_c, 9, 42, 90
11, 216936, Note_on_c, 9, 42, 0
11, 216936, Note_on_c, 9, 42, 90
11, 217032, Note_on_c, 9, 42, 0
11, 217032, Note_on_c, 9, 35, 120
11, 217032, Note_on_c, 9, 46, 89
11, 217128, Note_on_c, 9, 46, 0
11, 217128, Note_on_c, 9, 35, 0
11, 217224, Note_on_c, 9, 37, 96
11, 217224, Note_on_c, 9, 42, 90
11, 217320, Note_on_c, 9, 42, 0
11, 217320, Note_on_c, 9, 37, 0
11, 217320, Note_on_c, 9, 42, 90
11, 217416, Note_on_c, 9, 42, 0
11, 217416, Note_on_c, 9, 46, 89
11, 217512, Note_on_c, 9, 46, 0
11, 217512, Note_on_c, 9, 37, 110
11, 217608, Note_on_c, 9, 42, 90
11, 217609, Note_on_c, 9, 42, 0
11, 217704, Note_on_c, 9, 37, 0
11, 217704, Note_on_c, 9, 42, 90
11, 217800, Note_on_c, 9, 42, 0
11, 217800, Note_on_c, 9, 35, 112
11, 217800, Note_on_c, 9, 46, 89
11, 217896, Note_on_c, 9, 46, 0
11, 217896, Note_on_c, 9, 35, 0
11, 217992, Note_on_c, 9, 35, 114
11, 217992, Note_on_c, 9, 42, 90
11, 217993, Note_on_c, 9, 42, 0
11, 218088, Note_on_c, 9, 42, 90
11, 218089, Note_on_c, 9, 42, 0
11, 218184, Note_on_c, 9, 46, 89
11, 218280, Note_on_c, 9, 46, 0
11, 218280, Note_on_c, 9, 35, 0
11, 218376, Note_on_c, 9, 42, 90
11, 218377, Note_on_c, 9, 42, 0
11, 218472, Note_on_c, 9, 42, 90
11, 218473, Note_on_c, 9, 42, 0
11, 218568, Note_on_c, 9, 35, 121
11, 218568, Note_on_c, 9, 46, 89
11, 218664, Note_on_c, 9, 46, 0
11, 218760, Note_on_c, 9, 35, 0
11, 218760, Note_on_c, 9, 37, 118
11, 218760, Note_on_c, 9, 42, 90
11, 218761, Note_on_c, 9, 42, 0
11, 218856, Note_on_c, 9, 42, 90
11, 218952, Note_on_c, 9, 42, 0
11, 218952, Note_on_c, 9, 37, 0
11, 218952, Note_on_c, 9, 46, 89
11, 219048, Note_on_c, 9, 46, 0
11, 219144, Note_on_c, 9, 42, 90
11, 219240, Note_on_c, 9, 42, 0
11, 219240, Note_on_c, 9, 42, 90
11, 219336, Note_on_c, 9, 42, 0
11, 219336, Note_on_c, 9, 35, 118
11, 219336, Note_on_c, 9, 46, 89
11, 219432, Note_on_c, 9, 46, 0
11, 219432, Note_on_c, 9, 35, 0
11, 219528, Note_on_c, 9, 42, 90
11, 219624, Note_on_c, 9, 42, 0
11, 219624, Note_on_c, 9, 42, 90
11, 219720, Note_on_c, 9, 42, 0
11, 219720, Note_on_c, 9, 46, 89
11, 219912, Note_on_c, 9, 46, 0
11, 219912, Note_on_c, 9, 42, 90
11, 220008, Note_on_c, 9, 42, 0
11, 220008, Note_on_c, 9, 42, 90
11, 220104, Note_on_c, 9, 42, 0
11, 220104, Note_on_c, 9, 35, 53
11, 220104, Note_on_c, 9, 46, 89
11, 220105, Note_on_c, 9, 35, 0
11, 220200, Note_on_c, 9, 46, 0
11, 220296, Note_on_c, 9, 35, 108
11, 220296, Note_on_c, 9, 42, 90
11, 220392, Note_on_c, 9, 42, 0
11, 220392, Note_on_c, 9, 42, 90
11, 220488, Note_on_c, 9, 42, 0
11, 220488, Note_on_c, 9, 35, 0
11, 220488, Note_on_c, 9, 46, 89
11, 220584, Note_on_c, 9, 46, 0
11, 220584, Note_on_c, 9, 35, 112
11, 220680, Note_on_c, 9, 35, 0
11, 220680, Note_on_c, 9, 37, 88
11, 220680, Note_on_c, 9, 42, 90
11, 220681, Note_on_c, 9, 42, 0
11, 220776, Note_on_c, 9, 42, 90
11, 220872, Note_on_c, 9, 42, 0
11, 220872, Note_on_c, 9, 37, 0
11, 220872, Note_on_c, 9, 46, 89
11, 220968, Note_on_c, 9, 46, 0
11, 221064, Note_on_c, 9, 35, 104
11, 221064, Note_on_c, 9, 42, 90
11, 221065, Note_on_c, 9, 42, 0
11, 221160, Note_on_c, 9, 35, 0
11, 221160, Note_on_c, 9, 42, 90
11, 221161, Note_on_c, 9, 42, 0
11, 221256, Note_on_c, 9, 35, 108
11, 221256, Note_on_c, 9, 46, 89
11, 221352, Note_on_c, 9, 46, 0
11, 221352, Note_on_c, 9, 35, 0
11, 221448, Note_on_c, 9, 35, 120
11, 221448, Note_on_c, 9, 42, 90
11, 221449, Note_on_c, 9, 42, 0
11, 221544, Note_on_c, 9, 42, 90
11, 221545, Note_on_c, 9, 42, 0
11, 221640, Note_on_c, 9, 35, 0
11, 221640, Note_on_c, 9, 46, 89
11, 221736, Note_on_c, 9, 46, 0
11, 221832, Note_on_c, 9, 42, 90
11, 221833, Note_on_c, 9, 42, 0
11, 221928, Note_on_c, 9, 42, 90
11, 222024, Note_on_c, 9, 42, 0
11, 222024, Note_on_c, 9, 46, 89
11, 222120, Note_on_c, 9, 46, 0
11, 222216, Note_on_c, 9, 37, 118
11, 222216, Note_on_c, 9, 42, 90
11, 222312, Note_on_c, 9, 42, 0
11, 222312, Note_on_c, 9, 42, 90
11, 222408, Note_on_c, 9, 42, 0
11, 222408, Note_on_c, 9, 37, 0
11, 222408, Note_on_c, 9, 46, 89
11, 222504, Note_on_c, 9, 46, 0
11, 222600, Note_on_c, 9, 42, 90
11, 222696, Note_on_c, 9, 42, 0
11, 222696, Note_on_c, 9, 42, 90
11, 222792, Note_on_c, 9, 42, 0
11, 222792, Note_on_c, 9, 46, 89
11, 222984, Note_on_c, 9, 46, 0
11, 222984, Note_on_c, 9, 42, 90
11, 223080, Note_on_c, 9, 42, 0
11, 223080, Note_on_c, 9, 42, 90
11, 223176, Note_on_c, 9, 42, 0
11, 223176, Note_on_c, 9, 35, 53
11, 223176, Note_on_c, 9, 46, 89
11, 223177, Note_on_c, 9, 35, 0
11, 223272, Note_on_c, 9, 46, 0
11, 223368, Note_on_c, 9, 35, 108
11, 223368, Note_on_c, 9, 42, 90
11, 223464, Note_on_c, 9, 42, 0
11, 223464, Note_on_c, 9, 42, 90
11, 223560, Note_on_c, 9, 42, 0
11, 223560, Note_on_c, 9, 35, 0
11, 223560, Note_on_c, 9, 46, 89
11, 223656, Note_on_c, 9, 46, 0
11, 223656, Note_on_c, 9, 35, 112
11, 223752, Note_on_c, 9, 35, 0
11, 223752, Note_on_c, 9, 37, 114
11, 223752, Note_on_c, 9, 42, 90
11, 223753, Note_on_c, 9, 42, 0
11, 223848, Note_on_c, 9, 42, 90
11, 223944, Note_on_c, 9, 42, 0
11, 223944, Note_on_c, 9, 37, 0
11, 223944, Note_on_c, 9, 46, 89
11, 224040, Note_on_c, 9, 46, 0
11, 224128, Note_on_c, 9, 42, 90
11, 224128, Note_on_c, 9, 35, 104
11, 224129, Note_on_c, 9, 42, 0
11, 224224, Note_on_c, 9, 35, 0
11, 224224, Note_on_c, 9, 42, 90
11, 224225, Note_on_c, 9, 42, 0
11, 224328, Note_on_c, 9, 35, 108
11, 224328, Note_on_c, 9, 46, 89
11, 224416, Note_on_c, 9, 46, 0
11, 224416, Note_on_c, 9, 35, 0
11, 224512, Note_on_c, 9, 42, 90
11, 224512, Note_on_c, 9, 35, 120
11, 224513, Note_on_c, 9, 42, 0
11, 224616, Note_on_c, 9, 42, 90
11, 224617, Note_on_c, 9, 42, 0
11, 224704, Note_on_c, 9, 35, 0
11, 224704, Note_on_c, 9, 46, 89
11, 224800, Note_on_c, 9, 46, 0
11, 224896, Note_on_c, 9, 42, 90
11, 224897, Note_on_c, 9, 42, 0
11, 224992, Note_on_c, 9, 42, 90
11, 225096, Note_on_c, 9, 42, 0
11, 225096, Note_on_c, 9, 46, 89
11, 225192, Note_on_c, 9, 46, 0
11, 225280, Note_on_c, 9, 42, 90
11, 225280, Note_on_c, 9, 37, 114
11, 225376, Note_on_c, 9, 42, 0
11, 225376, Note_on_c, 9, 42, 90
11, 225472, Note_on_c, 9, 42, 0
11, 225472, Note_on_c, 9, 37, 0
11, 225472, Note_on_c, 9, 46, 89
11, 225568, Note_on_c, 9, 46, 0
11, 225664, Note_on_c, 9, 42, 90
11, 225760, Note_on_c, 9, 42, 0
11, 225760, Note_on_c, 9, 42, 90
11, 225856, Note_on_c, 9, 42, 0
11, 225856, Note_on_c, 9, 46, 89
11, 226048, Note_on_c, 9, 46, 0
11, 226048, Note_on_c, 9, 42, 90
11, 226144, Note_on_c, 9, 42, 0
11, 226144, Note_on_c, 9, 42, 90
11, 226240, Note_on_c, 9, 42, 0
11, 226240, Note_on_c, 9, 46, 89
11, 226240, Note_on_c, 9, 35, 53
11, 226241, Note_on_c, 9, 35, 0
11, 226336, Note_on_c, 9, 46, 0
11, 226432, Note_on_c, 9, 35, 108
11, 226432, Note_on_c, 9, 42, 90
11, 226528, Note_on_c, 9, 42, 0
11, 226528, Note_on_c, 9, 42, 90
11, 226624, Note_on_c, 9, 42, 0
11, 226624, Note_on_c, 9, 35, 0
11, 226624, Note_on_c, 9, 46, 89
11, 226720, Note_on_c, 9, 46, 0
11, 226720, Note_on_c, 9, 35, 112
11, 226816, Note_on_c, 9, 35, 0
11, 226816, Note_on_c, 9, 42, 90
11, 226816, Note_on_c, 9, 37, 112
11, 226817, Note_on_c, 9, 42, 0
11, 226912, Note_on_c, 9, 42, 90
11, 227008, Note_on_c, 9, 42, 0
11, 227008, Note_on_c, 9, 37, 0
11, 227008, Note_on_c, 9, 46, 89
11, 227104, Note_on_c, 9, 46, 0
11, 227200, Note_on_c, 9, 42, 90
11, 227200, Note_on_c, 9, 35, 104
11, 227201, Note_on_c, 9, 42, 0
11, 227296, Note_on_c, 9, 35, 0
11, 227296, Note_on_c, 9, 42, 90
11, 227297, Note_on_c, 9, 42, 0
11, 227392, Note_on_c, 9, 35, 108
11, 227392, Note_on_c, 9, 46, 89
11, 227488, Note_on_c, 9, 46, 0
11, 227488, Note_on_c, 9, 35, 0
11, 227584, Note_on_c, 9, 35, 120
11, 227584, Note_on_c, 9, 42, 90
11, 227585, Note_on_c, 9, 42, 0
11, 227680, Note_on_c, 9, 42, 90
11, 227681, Note_on_c, 9, 42, 0
11, 227776, Note_on_c, 9, 35, 0
11, 227776, Note_on_c, 9, 46, 89
11, 227872, Note_on_c, 9, 46, 0
11, 227968, Note_on_c, 9, 42, 90
11, 227969, Note_on_c, 9, 42, 0
11, 228064, Note_on_c, 9, 42, 90
11, 228160, Note_on_c, 9, 42, 0
11, 228160, Note_on_c, 9, 46, 89
11, 228256, Note_on_c, 9, 46, 0
11, 228352, Note_on_c, 9, 37, 112
11, 228352, Note_on_c, 9, 42, 90
11, 228448, Note_on_c, 9, 42, 0
11, 228448, Note_on_c, 9, 42, 90
11, 228544, Note_on_c, 9, 42, 0
11, 228544, Note_on_c, 9, 37, 0
11, 228544, Note_on_c, 9, 46, 89
11, 228640, Note_on_c, 9, 46, 0
11, 228736, Note_on_c, 9, 42, 90
11, 228832, Note_on_c, 9, 42, 0
11, 228832, Note_on_c, 9, 42, 90
11, 228928, Note_on_c, 9, 42, 0
11, 228928, Note_on_c, 9, 46, 89
11, 229120, Note_on_c, 9, 46, 0
11, 229120, Note_on_c, 9, 42, 90
11, 229216, Note_on_c, 9, 42, 0
11, 229216, Note_on_c, 9, 42, 90
11, 229312, Note_on_c, 9, 42, 0
11, 229312, Note_on_c, 9, 35, 53
11, 229312, Note_on_c, 9, 46, 89
11, 229313, Note_on_c, 9, 35, 0
11, 229408, Note_on_c, 9, 46, 0
11, 229504, Note_on_c, 9, 35, 108
11, 229504, Note_on_c, 9, 42, 90
11, 229600, Note_on_c, 9, 42, 0
11, 229600, Note_on_c, 9, 42, 90
11, 229696, Note_on_c, 9, 42, 0
11, 229696, Note_on_c, 9, 35, 0
11, 229696, Note_on_c, 9, 46, 89
11, 229792, Note_on_c, 9, 46, 0
11, 229792, Note_on_c, 9, 35, 112
11, 229888, Note_on_c, 9, 35, 0
11, 229888, Note_on_c, 9, 37, 112
11, 229888, Note_on_c, 9, 42, 90
11, 229889, Note_on_c, 9, 42, 0
11, 229984, Note_on_c, 9, 42, 90
11, 230080, Note_on_c, 9, 42, 0
11, 230080, Note_on_c, 9, 37, 0
11, 230080, Note_on_c, 9, 46, 89
11, 230176, Note_on_c, 9, 46, 0
11, 230272, Note_on_c, 9, 35, 104
11, 230272, Note_on_c, 9, 42, 90
11, 230273, Note_on_c, 9, 42, 0
11, 230368, Note_on_c, 9, 35, 0
11, 230368, Note_on_c, 9, 42, 90
11, 230369, Note_on_c, 9, 42, 0
11, 230464, Note_on_c, 9, 35, 108
11, 230464, Note_on_c, 9, 46, 89
11, 230560, Note_on_c, 9, 46, 0
11, 230560, Note_on_c, 9, 35, 0
11, 230656, Note_on_c, 9, 35, 120
11, 230656, Note_on_c, 9, 42, 90
11, 230657, Note_on_c, 9, 42, 0
11, 230752, Note_on_c, 9, 42, 90
11, 230753, Note_on_c, 9, 42, 0
11, 230848, Note_on_c, 9, 35, 0
11, 230848, Note_on_c, 9, 46, 89
11, 230944, Note_on_c, 9, 46, 0
11, 231040, Note_on_c, 9, 37, 104
11, 231040, Note_on_c, 9, 42, 90
11, 231041, Note_on_c, 9, 42, 0
11, 231136, Note_on_c, 9, 37, 0
11, 231136, Note_on_c, 9, 42, 90
11, 231232, Note_on_c, 9, 42, 0
11, 231232, Note_on_c, 9, 46, 89
11, 231328, Note_on_c, 9, 46, 0
11, 231328, Note_on_c, 9, 37, 98
11, 231424, Note_on_c, 9, 37, 0
11, 231424, Note_on_c, 9, 42, 90
11, 231520, Note_on_c, 9, 42, 0
11, 231520, Note_on_c, 9, 42, 90
11, 231616, Note_on_c, 9, 42, 0
11, 231616, Note_on_c, 9, 37, 112
11, 231616, Note_on_c, 9, 46, 89
11, 231712, Note_on_c, 9, 46, 0
11, 231712, Note_on_c, 9, 37, 0
11, 231808, Note_on_c, 9, 42, 90
11, 231904, Note_on_c, 9, 42, 0
11, 231904, Note_on_c, 9, 42, 90
11, 232000, Note_on_c, 9, 42, 0
11, 232000, Note_on_c, 9, 46, 89
11, 232192, Note_on_c, 9, 46, 0
11, 232192, Note_on_c, 9, 42, 90
11, 232288, Note_on_c, 9, 42, 0
11, 232288, Note_on_c, 9, 42, 90
11, 232384, Note_on_c, 9, 42, 0
11, 232384, Note_on_c, 9, 35, 53
11, 232384, Note_on_c, 9, 46, 89
11, 232385, Note_on_c, 9, 35, 0
11, 232480, Note_on_c, 9, 46, 0
11, 232576, Note_on_c, 9, 35, 108
11, 232576, Note_on_c, 9, 42, 90
11, 232672, Note_on_c, 9, 42, 0
11, 232672, Note_on_c, 9, 42, 90
11, 232768, Note_on_c, 9, 42, 0
11, 232768, Note_on_c, 9, 35, 0
11, 232768, Note_on_c, 9, 46, 89
11, 232864, Note_on_c, 9, 46, 0
11, 232864, Note_on_c, 9, 35, 112
11, 232960, Note_on_c, 9, 35, 0
11, 232960, Note_on_c, 9, 40, 118
11, 232960, Note_on_c, 9, 42, 90
11, 232961, Note_on_c, 9, 42, 0
11, 233056, Note_on_c, 9, 40, 0
11, 233056, Note_on_c, 9, 42, 90
11, 233152, Note_on_c, 9, 42, 0
11, 233152, Note_on_c, 9, 46, 89
11, 233248, Note_on_c, 9, 46, 0
11, 233344, Note_on_c, 9, 35, 104
11, 233344, Note_on_c, 9, 42, 90
11, 233345, Note_on_c, 9, 42, 0
11, 233440, Note_on_c, 9, 35, 0
11, 233440, Note_on_c, 9, 42, 90
11, 233441, Note_on_c, 9, 42, 0
11, 233536, Note_on_c, 9, 35, 108
11, 233536, Note_on_c, 9, 46, 89
11, 233632, Note_on_c, 9, 46, 0
11, 233632, Note_on_c, 9, 35, 0
11, 233728, Note_on_c, 9, 35, 120
11, 233728, Note_on_c, 9, 42, 90
11, 233729, Note_on_c, 9, 42, 0
11, 233824, Note_on_c, 9, 42, 90
11, 233825, Note_on_c, 9, 42, 0
11, 233920, Note_on_c, 9, 35, 0
11, 233920, Note_on_c, 9, 34, 23
11, 233920, Note_on_c, 9, 46, 89
11, 233921, Note_on_c, 9, 34, 0
11, 234016, Note_on_c, 9, 46, 0
11, 234016, Note_on_c, 9, 34, 28
11, 234112, Note_on_c, 9, 34, 0
11, 234112, Note_on_c, 9, 42, 90
11, 234112, Note_on_c, 9, 34, 59
11, 234113, Note_on_c, 9, 34, 0
11, 234113, Note_on_c, 9, 42, 0
11, 234208, Note_on_c, 9, 42, 90
11, 234208, Note_on_c, 9, 34, 48
11, 234304, Note_on_c, 9, 34, 0
11, 234304, Note_on_c, 9, 42, 0
11, 234304, Note_on_c, 9, 46, 89
11, 234304, Note_on_c, 9, 34, 108
11, 234305, Note_on_c, 9, 34, 0
11, 234400, Note_on_c, 9, 46, 0
11, 234496, Note_on_c, 9, 42, 90
11, 234592, Note_on_c, 9, 42, 0
11, 234592, Note_on_c, 9, 34, 84
11, 234592, Note_on_c, 9, 42, 90
11, 234593, Note_on_c, 9, 34, 0
11, 234688, Note_on_c, 9, 42, 0
11, 234688, Note_on_c, 9, 38, 112
11, 234688, Note_on_c, 9, 46, 89
11, 234784, Note_on_c, 9, 46, 0
11, 234784, Note_on_c, 9, 38, 0
11, 234880, Note_on_c, 9, 42, 90
11, 234976, Note_on_c, 9, 42, 0
11, 234976, Note_on_c, 9, 42, 90
11, 235072, Note_on_c, 9, 42, 0
11, 235072, Note_on_c, 9, 46, 89
11, 235264, Note_on_c, 9, 46, 0
11, 235264, Note_on_c, 9, 37, 90
11, 235264, Note_on_c, 9, 42, 90
11, 235360, Note_on_c, 9, 42, 0
11, 235360, Note_on_c, 9, 37, 0
11, 235360, Note_on_c, 9, 42, 90
11, 235456, Note_on_c, 9, 42, 0
11, 235456, Note_on_c, 9, 35, 53
11, 235456, Note_on_c, 9, 46, 89
11, 235457, Note_on_c, 9, 35, 0
11, 235552, Note_on_c, 9, 46, 0
11, 235648, Note_on_c, 9, 42, 90
11, 235648, Note_on_c, 9, 35, 108
11, 235744, Note_on_c, 9, 42, 0
11, 235744, Note_on_c, 9, 42, 90
11, 235840, Note_on_c, 9, 42, 0
11, 235840, Note_on_c, 9, 35, 0
11, 235840, Note_on_c, 9, 46, 89
11, 235936, Note_on_c, 9, 46, 0
11, 235936, Note_on_c, 9, 35, 112
11, 236032, Note_on_c, 9, 35, 0
11, 236032, Note_on_c, 9, 42, 90
11, 236033, Note_on_c, 9, 42, 0
11, 236128, Note_on_c, 9, 38, 46
11, 236128, Note_on_c, 9, 42, 90
11, 236129, Note_on_c, 9, 38, 0
11, 236224, Note_on_c, 9, 42, 0
11, 236224, Note_on_c, 9, 46, 89
11, 236224, Note_on_c, 9, 38, 60
11, 236320, Note_on_c, 9, 38, 0
11, 236320, Note_on_c, 9, 46, 0
11, 236416, Note_on_c, 9, 35, 104
11, 236416, Note_on_c, 9, 42, 90
11, 236417, Note_on_c, 9, 42, 0
11, 236512, Note_on_c, 9, 35, 0
11, 236512, Note_on_c, 9, 42, 90
11, 236513, Note_on_c, 9, 42, 0
11, 236608, Note_on_c, 9, 35, 108
11, 236608, Note_on_c, 9, 46, 89
11, 236704, Note_on_c, 9, 46, 0
11, 236704, Note_on_c, 9, 35, 0
11, 236800, Note_on_c, 9, 42, 90
11, 236800, Note_on_c, 9, 35, 120
11, 236801, Note_on_c, 9, 42, 0
11, 236896, Note_on_c, 9, 42, 90
11, 236897, Note_on_c, 9, 42, 0
11, 236992, Note_on_c, 9, 35, 0
11, 236992, Note_on_c, 9, 46, 89
11, 237088, Note_on_c, 9, 46, 0
11, 237184, Note_on_c, 9, 42, 90
11, 237185, Note_on_c, 9, 42, 0
11, 237280, Note_on_c, 9, 42, 90
11, 237280, Note_on_c, 9, 34, 61
11, 237281, Note_on_c, 9, 34, 0
11, 237376, Note_on_c, 9, 42, 0
11, 237376, Note_on_c, 9, 34, 23
11, 237376, Note_on_c, 9, 46, 89
11, 237377, Note_on_c, 9, 34, 0
11, 237472, Note_on_c, 9, 46, 0
11, 237472, Note_on_c, 9, 34, 42
11, 237568, Note_on_c, 9, 34, 0
11, 237568, Note_on_c, 9, 37, 98
11, 237568, Note_on_c, 9, 27, 28
11, 237568, Note_on_c, 9, 42, 90
11, 237664, Note_on_c, 9, 42, 0
11, 237664, Note_on_c, 9, 27, 0
11, 237664, Note_on_c, 9, 37, 0
11, 237664, Note_on_c, 9, 37, 61
11, 237664, Note_on_c, 9, 42, 90
11, 237760, Note_on_c, 9, 42, 0
11, 237760, Note_on_c, 9, 37, 0
11, 237760, Note_on_c, 9, 46, 89
11, 237856, Note_on_c, 9, 46, 0
11, 237952, Note_on_c, 9, 42, 90
11, 238048, Note_on_c, 9, 42, 0
11, 238048, Note_on_c, 9, 42, 90
11, 238144, Note_on_c, 9, 42, 0
11, 238144, Note_on_c, 9, 46, 89
11, 238336, Note_on_c, 9, 46, 0
11, 238336, Note_on_c, 9, 42, 90
11, 238432, Note_on_c, 9, 42, 0
11, 238432, Note_on_c, 9, 42, 90
11, 238528, Note_on_c, 9, 42, 0
11, 238528, Note_on_c, 9, 35, 53
11, 238528, Note_on_c, 9, 38, 96
11, 238528, Note_on_c, 9, 46, 89
11, 238529, Note_on_c, 9, 35, 0
11, 238624, Note_on_c, 9, 46, 0
11, 238624, Note_on_c, 9, 38, 0
11, 238720, Note_on_c, 9, 42, 90
11, 238720, Note_on_c, 9, 35, 108
11, 238816, Note_on_c, 9, 42, 0
11, 238816, Note_on_c, 9, 42, 90
11, 238912, Note_on_c, 9, 42, 0
11, 238912, Note_on_c, 9, 35, 0
11, 238912, Note_on_c, 9, 46, 89
11, 239000, Note_on_c, 9, 46, 0
11, 239000, Note_on_c, 9, 35, 112
11, 239104, Note_on_c, 9, 35, 0
11, 239104, Note_on_c, 9, 42, 90
11, 239105, Note_on_c, 9, 42, 0
11, 239192, Note_on_c, 9, 42, 90
11, 239288, Note_on_c, 9, 42, 0
11, 239288, Note_on_c, 9, 46, 89
11, 239392, Note_on_c, 9, 46, 0
11, 239480, Note_on_c, 9, 35, 104
11, 239480, Note_on_c, 9, 42, 90
11, 239481, Note_on_c, 9, 42, 0
11, 239584, Note_on_c, 9, 35, 0
11, 239584, Note_on_c, 9, 42, 90
11, 239585, Note_on_c, 9, 42, 0
11, 239680, Note_on_c, 9, 35, 108
11, 239680, Note_on_c, 9, 46, 89
11, 239768, Note_on_c, 9, 46, 0
11, 239768, Note_on_c, 9, 35, 0
11, 239872, Note_on_c, 9, 35, 120
11, 239872, Note_on_c, 9, 37, 114
11, 239872, Note_on_c, 9, 42, 90
11, 239873, Note_on_c, 9, 42, 0
11, 239960, Note_on_c, 9, 37, 0
11, 239960, Note_on_c, 9, 42, 90
11, 239961, Note_on_c, 9, 42, 0
11, 240056, Note_on_c, 9, 35, 0
11, 240056, Note_on_c, 9, 46, 89
11, 240152, Note_on_c, 9, 46, 0
11, 240248, Note_on_c, 9, 42, 90
11, 240249, Note_on_c, 9, 42, 0
11, 240344, Note_on_c, 9, 42, 90
11, 240440, Note_on_c, 9, 42, 0
11, 240440, Note_on_c, 9, 46, 89
11, 240536, Note_on_c, 9, 46, 0
11, 240536, Note_on_c, 9, 34, 42
11, 240632, Note_on_c, 9, 34, 0
11, 240632, Note_on_c, 9, 34, 35
11, 240632, Note_on_c, 9, 42, 90
11, 240728, Note_on_c, 9, 42, 0
11, 240728, Note_on_c, 9, 34, 0
11, 240728, Note_on_c, 9, 42, 90
11, 240824, Note_on_c, 9, 42, 0
11, 240824, Note_on_c, 9, 46, 89
11, 240920, Note_on_c, 9, 46, 0
11, 241016, Note_on_c, 9, 42, 90
11, 241112, Note_on_c, 9, 42, 0
11, 241112, Note_on_c, 9, 42, 90
11, 241208, Note_on_c, 9, 42, 0
11, 241208, Note_on_c, 9, 46, 89
11, 241400, Note_on_c, 9, 46, 0
11, 241400, Note_on_c, 9, 42, 90
11, 241496, Note_on_c, 9, 42, 0
11, 241496, Note_on_c, 9, 34, 60
11, 241496, Note_on_c, 9, 42, 90
11, 241497, Note_on_c, 9, 34, 0
11, 241592, Note_on_c, 9, 42, 0
11, 241592, Note_on_c, 9, 35, 53
11, 241592, Note_on_c, 9, 34, 49
11, 241592, Note_on_c, 9, 46, 89
11, 241593, Note_on_c, 9, 34, 0
11, 241593, Note_on_c, 9, 35, 0
11, 241688, Note_on_c, 9, 46, 0
11, 241688, Note_on_c, 9, 34, 96
11, 241784, Note_on_c, 9, 34, 0
11, 241784, Note_on_c, 9, 35, 108
11, 241784, Note_on_c, 9, 42, 90
11, 241880, Note_on_c, 9, 42, 0
11, 241880, Note_on_c, 9, 42, 90
11, 241976, Note_on_c, 9, 42, 0
11, 241976, Note_on_c, 9, 35, 0
11, 241976, Note_on_c, 9, 46, 89
11, 242072, Note_on_c, 9, 46, 0
11, 242072, Note_on_c, 9, 35, 112
11, 242168, Note_on_c, 9, 35, 0
11, 242168, Note_on_c, 9, 42, 90
11, 242169, Note_on_c, 9, 42, 0
11, 242264, Note_on_c, 9, 34, 60
11, 242264, Note_on_c, 9, 42, 90
11, 242265, Note_on_c, 9, 34, 0
11, 242360, Note_on_c, 9, 42, 0
11, 242360, Note_on_c, 9, 37, 51
11, 242360, Note_on_c, 9, 46, 89
11, 242361, Note_on_c, 9, 37, 0
11, 242456, Note_on_c, 9, 46, 0
11, 242456, Note_on_c, 9, 38, 74
11, 242552, Note_on_c, 9, 38, 0
11, 242552, Note_on_c, 9, 35, 104
11, 242552, Note_on_c, 9, 42, 90
11, 242553, Note_on_c, 9, 42, 0
11, 242648, Note_on_c, 9, 35, 0
11, 242648, Note_on_c, 9, 42, 90
11, 242649, Note_on_c, 9, 42, 0
11, 242744, Note_on_c, 9, 35, 108
11, 242744, Note_on_c, 9, 46, 89
11, 242840, Note_on_c, 9, 46, 0
11, 242840, Note_on_c, 9, 35, 0
11, 242936, Note_on_c, 9, 35, 120
11, 242936, Note_on_c, 9, 42, 90
11, 242937, Note_on_c, 9, 42, 0
11, 243032, Note_on_c, 9, 42, 90
11, 243033, Note_on_c, 9, 42, 0
11, 243128, Note_on_c, 9, 35, 0
11, 243128, Note_on_c, 9, 46, 89
11, 243224, Note_on_c, 9, 46, 0
11, 243320, Note_on_c, 9, 42, 90
11, 243321, Note_on_c, 9, 42, 0
11, 243416, Note_on_c, 9, 50, 48
11, 243416, Note_on_c, 9, 42, 90
11, 243417, Note_on_c, 9, 50, 0
11, 243512, Note_on_c, 9, 42, 0
11, 243512, Note_on_c, 9, 50, 44
11, 243512, Note_on_c, 9, 46, 89
11, 243513, Note_on_c, 9, 50, 0
11, 243608, Note_on_c, 9, 46, 0
11, 243608, Note_on_c, 9, 50, 38
11, 243609, Note_on_c, 9, 50, 0
11, 243704, Note_on_c, 9, 47, 42
11, 243704, Note_on_c, 9, 42, 90
11, 243705, Note_on_c, 9, 47, 0
11, 243800, Note_on_c, 9, 42, 0
11, 243800, Note_on_c, 9, 47, 34
11, 243800, Note_on_c, 9, 42, 91
11, 243801, Note_on_c, 9, 47, 0
11, 243896, Note_on_c, 9, 42, 0
11, 243896, Note_on_c, 9, 47, 26
11, 243896, Note_on_c, 9, 46, 89
11, 243992, Note_on_c, 9, 46, 0
11, 243992, Note_on_c, 9, 47, 0
11, 243992, Note_on_c, 9, 53, 102
11, 243992, Note_on_c, 9, 64, 20
11, 243993, Note_on_c, 9, 64, 0
11, 243993, Note_on_c, 9, 53, 0
11, 244088, Note_on_c, 9, 80, 36
11, 244184, Note_on_c, 9, 80, 0
11, 244184, Note_on_c, 9, 80, 27
11, 244280, Note_on_c, 9, 80, 0
11, 244280, Note_on_c, 9, 46, 89
11, 244472, Note_on_c, 9, 46, 0
11, 244472, Note_on_c, 9, 64, 18
11, 244473, Note_on_c, 9, 64, 0
11, 244568, Note_on_c, 9, 64, 30
11, 244568, Note_on_c, 9, 80, 27
11, 244664, Note_on_c, 9, 80, 0
11, 244664, Note_on_c, 9, 64, 0
11, 244664, Note_on_c, 9, 35, 53
11, 244664, Note_on_c, 9, 63, 72
11, 244664, Note_on_c, 9, 64, 34
11, 244664, Note_on_c, 9, 46, 89
11, 244665, Note_on_c, 9, 64, 0
11, 244665, Note_on_c, 9, 35, 0
11, 244760, Note_on_c, 9, 63, 0
11, 244856, Note_on_c, 9, 46, 0
11, 244856, Note_on_c, 9, 35, 108
11, 244952, Note_on_c, 9, 80, 34
11, 245048, Note_on_c, 9, 80, 0
11, 245048, Note_on_c, 9, 35, 0
11, 245048, Note_on_c, 9, 46, 89
11, 245144, Note_on_c, 9, 46, 0
11, 245144, Note_on_c, 9, 35, 112
11, 245144, Note_on_c, 9, 64, 26
11, 245145, Note_on_c, 9, 64, 0
11, 245240, Note_on_c, 9, 35, 0
11, 245240, Note_on_c, 9, 37, 88
11, 245240, Note_on_c, 9, 63, 37
11, 245241, Note_on_c, 9, 63, 0
11, 245336, Note_on_c, 9, 63, 48
11, 245336, Note_on_c, 9, 80, 56
11, 245432, Note_on_c, 9, 80, 0
11, 245432, Note_on_c, 9, 63, 0
11, 245432, Note_on_c, 9, 37, 0
11, 245432, Note_on_c, 9, 64, 50
11, 245432, Note_on_c, 9, 46, 89
11, 245433, Note_on_c, 9, 64, 0
11, 245528, Note_on_c, 9, 46, 0
11, 245528, Note_on_c, 9, 64, 34
11, 245624, Note_on_c, 9, 64, 0
11, 245624, Note_on_c, 9, 63, 60
11, 245624, Note_on_c, 9, 35, 104
11, 245720, Note_on_c, 9, 35, 0
11, 245720, Note_on_c, 9, 63, 0
11, 245720, Note_on_c, 9, 80, 46
11, 245720, Note_on_c, 9, 63, 41
11, 245816, Note_on_c, 9, 63, 0
11, 245816, Note_on_c, 9, 80, 0
11, 245816, Note_on_c, 9, 46, 89
11, 245816, Note_on_c, 9, 64, 54
11, 245816, Note_on_c, 9, 35, 108
11, 245912, Note_on_c, 9, 35, 0
11, 245912, Note_on_c, 9, 64, 0
11, 246008, Note_on_c, 9, 46, 0
11, 246008, Note_on_c, 9, 80, 38
11, 246008, Note_on_c, 9, 35, 120
11, 246104, Note_on_c, 9, 80, 0
11, 246104, Note_on_c, 9, 80, 45
11, 246200, Note_on_c, 9, 80, 0
11, 246200, Note_on_c, 9, 35, 0
11, 246200, Note_on_c, 9, 46, 89
11, 246392, Note_on_c, 9, 46, 0
11, 246392, Note_on_c, 9, 80, 37
11, 246488, Note_on_c, 9, 80, 0
11, 246488, Note_on_c, 9, 80, 43
11, 246584, Note_on_c, 9, 80, 0
11, 246584, Note_on_c, 9, 46, 89
11, 246680, Note_on_c, 9, 46, 0
11, 246680, Note_on_c, 9, 64, 31
11, 246776, Note_on_c, 9, 64, 0
11, 246776, Note_on_c, 9, 37, 118
11, 246776, Note_on_c, 9, 63, 64
11, 246776, Note_on_c, 9, 80, 25
11, 246777, Note_on_c, 9, 80, 0
11, 246872, Note_on_c, 9, 63, 0
11, 246872, Note_on_c, 9, 80, 45
11, 246872, Note_on_c, 9, 63, 63
11, 246968, Note_on_c, 9, 63, 0
11, 246968, Note_on_c, 9, 80, 0
11, 246968, Note_on_c, 9, 37, 0
11, 246968, Note_on_c, 9, 64, 48
11, 246968, Note_on_c, 9, 46, 89
11, 246969, Note_on_c, 9, 64, 0
11, 247064, Note_on_c, 9, 46, 0
11, 247064, Note_on_c, 9, 63, 86
11, 247160, Note_on_c, 9, 63, 0
11, 247160, Note_on_c, 9, 63, 74
11, 247160, Note_on_c, 9, 80, 36
11, 247256, Note_on_c, 9, 80, 0
11, 247256, Note_on_c, 9, 63, 0
11, 247256, Note_on_c, 9, 80, 27
11, 247256, Note_on_c, 9, 63, 34
11, 247352, Note_on_c, 9, 63, 0
11, 247352, Note_on_c, 9, 80, 0
11, 247352, Note_on_c, 9, 64, 80
11, 247352, Note_on_c, 9, 46, 89
11, 247544, Note_on_c, 9, 46, 0
11, 247544, Note_on_c, 9, 64, 0
11, 247640, Note_on_c, 9, 80, 27
11, 247736, Note_on_c, 9, 80, 0
11, 247736, Note_on_c, 9, 35, 53
11, 247736, Note_on_c, 9, 63, 34
11, 247736, Note_on_c, 9, 46, 89
11, 247737, Note_on_c, 9, 35, 0
11, 247832, Note_on_c, 9, 63, 0
11, 247832, Note_on_c, 9, 63, 69
11, 247928, Note_on_c, 9, 63, 0
11, 247928, Note_on_c, 9, 46, 0
11, 247928, Note_on_c, 9, 35, 108
11, 248024, Note_on_c, 9, 80, 34
11, 248120, Note_on_c, 9, 80, 0
11, 248120, Note_on_c, 9, 35, 0
11, 248120, Note_on_c, 9, 46, 89
11, 248216, Note_on_c, 9, 46, 0
11, 248216, Note_on_c, 9, 35, 112
11, 248312, Note_on_c, 9, 35, 0
11, 248312, Note_on_c, 9, 37, 114
11, 248408, Note_on_c, 9, 80, 56
11, 248504, Note_on_c, 9, 80, 0
11, 248504, Note_on_c, 9, 37, 0
11, 248504, Note_on_c, 9, 46, 89
11, 248504, Note_on_c, 9, 64, 23
11, 248600, Note_on_c, 9, 64, 0
11, 248600, Note_on_c, 9, 46, 0
11, 248600, Note_on_c, 9, 64, 76
11, 248696, Note_on_c, 9, 35, 104
11, 248792, Note_on_c, 9, 35, 0
11, 248792, Note_on_c, 9, 80, 46
11, 248888, Note_on_c, 9, 80, 0
11, 248888, Note_on_c, 9, 64, 0
11, 248888, Note_on_c, 9, 63, 61
11, 248888, Note_on_c, 9, 35, 108
11, 248888, Note_on_c, 9, 46, 89
11, 248984, Note_on_c, 9, 35, 0
11, 248984, Note_on_c, 9, 63, 0
11, 249080, Note_on_c, 9, 46, 0
11, 249080, Note_on_c, 9, 35, 120
11, 249080, Note_on_c, 9, 80, 38
11, 249176, Note_on_c, 9, 80, 0
11, 249176, Note_on_c, 9, 80, 45
11, 249272, Note_on_c, 9, 80, 0
11, 249272, Note_on_c, 9, 35, 0
11, 249272, Note_on_c, 9, 46, 89
11, 249272, Note_on_c, 9, 64, 27
11, 249273, Note_on_c, 9, 64, 0
11, 249368, Note_on_c, 9, 64, 90
11, 249464, Note_on_c, 9, 46, 0
11, 249464, Note_on_c, 9, 80, 37
11, 249560, Note_on_c, 9, 80, 0
11, 249560, Note_on_c, 9, 64, 0
11, 249560, Note_on_c, 9, 80, 43
11, 249656, Note_on_c, 9, 80, 0
11, 249656, Note_on_c, 9, 46, 90
11, 249656, Note_on_c, 9, 63, 69
11, 249752, Note_on_c, 9, 63, 0
11, 249752, Note_on_c, 9, 46, 0
11, 249848, Note_on_c, 9, 37, 114
11, 249848, Note_on_c, 9, 80, 25
11, 249849, Note_on_c, 9, 80, 0
11, 249944, Note_on_c, 9, 64, 30
11, 249944, Note_on_c, 9, 80, 45
11, 249945, Note_on_c, 9, 64, 0
11, 250040, Note_on_c, 9, 80, 0
11, 250040, Note_on_c, 9, 37, 0
11, 250040, Note_on_c, 9, 46, 90
11, 250040, Note_on_c, 9, 63, 94
11, 250136, Note_on_c, 9, 63, 0
11, 250136, Note_on_c, 9, 46, 0
11, 250232, Note_on_c, 9, 80, 36
11, 250328, Note_on_c, 9, 80, 0
11, 250328, Note_on_c, 9, 80, 27
11, 250424, Note_on_c, 9, 80, 0
11, 250424, Note_on_c, 9, 46, 90
11, 250616, Note_on_c, 9, 46, 0
11, 250616, Note_on_c, 9, 64, 18
11, 250617, Note_on_c, 9, 64, 0
11, 250712, Note_on_c, 9, 64, 30
11, 250712, Note_on_c, 9, 80, 27
11, 250808, Note_on_c, 9, 80, 0
11, 250808, Note_on_c, 9, 64, 0
11, 250808, Note_on_c, 9, 46, 90
11, 250808, Note_on_c, 9, 35, 53
11, 250808, Note_on_c, 9, 63, 72
11, 250808, Note_on_c, 9, 64, 34
11, 250809, Note_on_c, 9, 64, 0
11, 250809, Note_on_c, 9, 35, 0
11, 250904, Note_on_c, 9, 63, 0
11, 251000, Note_on_c, 9, 46, 0
11, 251000, Note_on_c, 9, 35, 108
11, 251096, Note_on_c, 9, 80, 34
11, 251192, Note_on_c, 9, 80, 0
11, 251192, Note_on_c, 9, 35, 0
11, 251192, Note_on_c, 9, 46, 90
11, 251288, Note_on_c, 9, 46, 0
11, 251288, Note_on_c, 9, 64, 26
11, 251288, Note_on_c, 9, 35, 112
11, 251289, Note_on_c, 9, 64, 0
11, 251384, Note_on_c, 9, 35, 0
11, 251384, Note_on_c, 9, 37, 112
11, 251384, Note_on_c, 9, 63, 37
11, 251385, Note_on_c, 9, 63, 0
11, 251480, Note_on_c, 9, 80, 56
11, 251480, Note_on_c, 9, 63, 48
11, 251576, Note_on_c, 9, 63, 0
11, 251576, Note_on_c, 9, 80, 0
11, 251576, Note_on_c, 9, 37, 0
11, 251576, Note_on_c, 9, 64, 50
11, 251576, Note_on_c, 9, 46, 90
11, 251577, Note_on_c, 9, 64, 0
11, 251672, Note_on_c, 9, 46, 0
11, 251672, Note_on_c, 9, 64, 34
11, 251768, Note_on_c, 9, 64, 0
11, 251768, Note_on_c, 9, 35, 104
11, 251768, Note_on_c, 9, 63, 60
11, 251864, Note_on_c, 9, 63, 0
11, 251864, Note_on_c, 9, 35, 0
11, 251864, Note_on_c, 9, 63, 41
11, 251864, Note_on_c, 9, 80, 46
11, 251960, Note_on_c, 9, 80, 0
11, 251960, Note_on_c, 9, 63, 0
11, 251960, Note_on_c, 9, 64, 54
11, 251960, Note_on_c, 9, 35, 108
11, 251960, Note_on_c, 9, 46, 90
11, 252056, Note_on_c, 9, 35, 0
11, 252056, Note_on_c, 9, 64, 0
11, 252152, Note_on_c, 9, 46, 0
11, 252152, Note_on_c, 9, 35, 120
11, 252152, Note_on_c, 9, 80, 38
11, 252248, Note_on_c, 9, 80, 0
11, 252248, Note_on_c, 9, 80, 45
11, 252344, Note_on_c, 9, 80, 0
11, 252344, Note_on_c, 9, 35, 0
11, 252344, Note_on_c, 9, 46, 90
11, 252536, Note_on_c, 9, 46, 0
11, 252536, Note_on_c, 9, 80, 37
11, 252632, Note_on_c, 9, 80, 0
11, 252632, Note_on_c, 9, 80, 43
11, 252728, Note_on_c, 9, 80, 0
11, 252728, Note_on_c, 9, 46, 90
11, 252824, Note_on_c, 9, 46, 0
11, 252824, Note_on_c, 9, 64, 31
11, 252920, Note_on_c, 9, 64, 0
11, 252920, Note_on_c, 9, 63, 64
11, 252920, Note_on_c, 9, 37, 112
11, 252920, Note_on_c, 9, 80, 25
11, 252921, Note_on_c, 9, 80, 0
11, 253016, Note_on_c, 9, 63, 0
11, 253016, Note_on_c, 9, 63, 63
11, 253016, Note_on_c, 9, 80, 45
11, 253104, Note_on_c, 9, 80, 0
11, 253104, Note_on_c, 9, 63, 0
11, 253104, Note_on_c, 9, 37, 0
11, 253104, Note_on_c, 9, 64, 48
11, 253104, Note_on_c, 9, 46, 90
11, 253105, Note_on_c, 9, 64, 0
11, 253208, Note_on_c, 9, 46, 0
11, 253208, Note_on_c, 9, 63, 86
11, 253296, Note_on_c, 9, 63, 0
11, 253296, Note_on_c, 9, 63, 74
11, 253296, Note_on_c, 9, 80, 36
11, 253392, Note_on_c, 9, 80, 0
11, 253392, Note_on_c, 9, 63, 0
11, 253392, Note_on_c, 9, 80, 27
11, 253392, Note_on_c, 9, 63, 34
11, 253488, Note_on_c, 9, 63, 0
11, 253488, Note_on_c, 9, 80, 0
11, 253488, Note_on_c, 9, 64, 80
11, 253488, Note_on_c, 9, 46, 90
11, 253680, Note_on_c, 9, 46, 0
11, 253680, Note_on_c, 9, 64, 0
11, 253784, Note_on_c, 9, 80, 27
11, 253872, Note_on_c, 9, 80, 0
11, 253872, Note_on_c, 9, 46, 90
11, 253872, Note_on_c, 9, 63, 34
11, 253872, Note_on_c, 9, 35, 53
11, 253873, Note_on_c, 9, 35, 0
11, 253976, Note_on_c, 9, 63, 0
11, 253976, Note_on_c, 9, 63, 69
11, 254064, Note_on_c, 9, 63, 0
11, 254064, Note_on_c, 9, 46, 0
11, 254064, Note_on_c, 9, 35, 108
11, 254168, Note_on_c, 9, 80, 34
11, 254256, Note_on_c, 9, 80, 0
11, 254256, Note_on_c, 9, 35, 0
11, 254256, Note_on_c, 9, 46, 90
11, 254352, Note_on_c, 9, 46, 0
11, 254352, Note_on_c, 9, 35, 112
11, 254448, Note_on_c, 9, 35, 0
11, 254448, Note_on_c, 9, 37, 112
11, 254544, Note_on_c, 9, 80, 56
11, 254640, Note_on_c, 9, 80, 0
11, 254640, Note_on_c, 9, 37, 0
11, 254640, Note_on_c, 9, 46, 90
11, 254640, Note_on_c, 9, 64, 23
11, 254736, Note_on_c, 9, 64, 0
11, 254736, Note_on_c, 9, 46, 0
11, 254736, Note_on_c, 9, 64, 76
11, 254832, Note_on_c, 9, 35, 104
11, 254928, Note_on_c, 9, 35, 0
11, 254928, Note_on_c, 9, 80, 46
11, 255024, Note_on_c, 9, 80, 0
11, 255024, Note_on_c, 9, 64, 0
11, 255024, Note_on_c, 9, 46, 90
11, 255024, Note_on_c, 9, 63, 61
11, 255024, Note_on_c, 9, 35, 108
11, 255120, Note_on_c, 9, 35, 0
11, 255120, Note_on_c, 9, 63, 0
11, 255216, Note_on_c, 9, 46, 0
11, 255216, Note_on_c, 9, 35, 120
11, 255216, Note_on_c, 9, 80, 38
11, 255312, Note_on_c, 9, 80, 0
11, 255312, Note_on_c, 9, 80, 45
11, 255408, Note_on_c, 9, 80, 0
11, 255408, Note_on_c, 9, 35, 0
11, 255408, Note_on_c, 9, 46, 90
11, 255408, Note_on_c, 9, 64, 27
11, 255409, Note_on_c, 9, 64, 0
11, 255504, Note_on_c, 9, 64, 90
11, 255600, Note_on_c, 9, 46, 0
11, 255600, Note_on_c, 9, 80, 37
11, 255600, Note_on_c, 9, 37, 104
11, 255696, Note_on_c, 9, 37, 0
11, 255696, Note_on_c, 9, 80, 0
11, 255696, Note_on_c, 9, 64, 0
11, 255696, Note_on_c, 9, 80, 43
11, 255792, Note_on_c, 9, 80, 0
11, 255792, Note_on_c, 9, 46, 90
11, 255792, Note_on_c, 9, 63, 69
11, 255888, Note_on_c, 9, 63, 0
11, 255888, Note_on_c, 9, 46, 0
11, 255888, Note_on_c, 9, 37, 98
11, 255984, Note_on_c, 9, 37, 0
11, 255984, Note_on_c, 9, 80, 25
11, 255985, Note_on_c, 9, 80, 0
11, 256080, Note_on_c, 9, 64, 30
11, 256080, Note_on_c, 9, 80, 45
11, 256081, Note_on_c, 9, 64, 0
11, 256176, Note_on_c, 9, 80, 0
11, 256176, Note_on_c, 9, 37, 112
11, 256176, Note_on_c, 9, 46, 90
11, 256176, Note_on_c, 9, 63, 94
11, 256272, Note_on_c, 9, 63, 0
11, 256272, Note_on_c, 9, 46, 0
11, 256272, Note_on_c, 9, 37, 0
11, 256368, Note_on_c, 9, 80, 36
11, 256464, Note_on_c, 9, 80, 0
11, 256464, Note_on_c, 9, 80, 27
11, 256560, Note_on_c, 9, 80, 0
11, 256560, Note_on_c, 9, 46, 90
11, 256752, Note_on_c, 9, 46, 0
11, 256752, Note_on_c, 9, 64, 18
11, 256753, Note_on_c, 9, 64, 0
11, 256848, Note_on_c, 9, 64, 30
11, 256848, Note_on_c, 9, 80, 27
11, 256944, Note_on_c, 9, 80, 0
11, 256944, Note_on_c, 9, 64, 0
11, 256944, Note_on_c, 9, 35, 53
11, 256944, Note_on_c, 9, 63, 72
11, 256944, Note_on_c, 9, 64, 34
11, 256944, Note_on_c, 9, 46, 90
11, 256945, Note_on_c, 9, 64, 0
11, 256945, Note_on_c, 9, 35, 0
11, 257040, Note_on_c, 9, 63, 0
11, 257136, Note_on_c, 9, 46, 0
11, 257136, Note_on_c, 9, 35, 108
11, 257232, Note_on_c, 9, 80, 34
11, 257328, Note_on_c, 9, 80, 0
11, 257328, Note_on_c, 9, 35, 0
11, 257328, Note_on_c, 9, 46, 90
11, 257424, Note_on_c, 9, 46, 0
11, 257424, Note_on_c, 9, 35, 112
11, 257424, Note_on_c, 9, 64, 26
11, 257425, Note_on_c, 9, 64, 0
11, 257520, Note_on_c, 9, 35, 0
11, 257520, Note_on_c, 9, 40, 118
11, 257520, Note_on_c, 9, 63, 37
11, 257521, Note_on_c, 9, 63, 0
11, 257616, Note_on_c, 9, 40, 0
11, 257616, Note_on_c, 9, 80, 56
11, 257616, Note_on_c, 9, 63, 48
11, 257712, Note_on_c, 9, 63, 0
11, 257712, Note_on_c, 9, 80, 0
11, 257712, Note_on_c, 9, 46, 90
11, 257712, Note_on_c, 9, 64, 50
11, 257713, Note_on_c, 9, 64, 0
11, 257808, Note_on_c, 9, 46, 0
11, 257808, Note_on_c, 9, 64, 34
11, 257904, Note_on_c, 9, 64, 0
11, 257904, Note_on_c, 9, 35, 104
11, 257904, Note_on_c, 9, 63, 60
11, 258000, Note_on_c, 9, 63, 0
11, 258000, Note_on_c, 9, 35, 0
11, 258000, Note_on_c, 9, 80, 46
11, 258000, Note_on_c, 9, 63, 41
11, 258096, Note_on_c, 9, 63, 0
11, 258096, Note_on_c, 9, 80, 0
11, 258096, Note_on_c, 9, 35, 108
11, 258096, Note_on_c, 9, 46, 90
11, 258096, Note_on_c, 9, 64, 54
11, 258192, Note_on_c, 9, 64, 0
11, 258192, Note_on_c, 9, 35, 0
11, 258288, Note_on_c, 9, 46, 0
11, 258288, Note_on_c, 9, 35, 120
11, 258288, Note_on_c, 9, 80, 38
11, 258384, Note_on_c, 9, 80, 0
11, 258384, Note_on_c, 9, 80, 45
11, 258480, Note_on_c, 9, 80, 0
11, 258480, Note_on_c, 9, 35, 0
11, 258480, Note_on_c, 9, 34, 23
11, 258480, Note_on_c, 9, 46, 90
11, 258481, Note_on_c, 9, 34, 0
11, 258576, Note_on_c, 9, 34, 28
11, 258672, Note_on_c, 9, 34, 0
11, 258672, Note_on_c, 9, 46, 0
11, 258672, Note_on_c, 9, 34, 59
11, 258672, Note_on_c, 9, 80, 37
11, 258673, Note_on_c, 9, 34, 0
11, 258768, Note_on_c, 9, 80, 0
11, 258768, Note_on_c, 9, 34, 48
11, 258768, Note_on_c, 9, 80, 43
11, 258864, Note_on_c, 9, 80, 0
11, 258864, Note_on_c, 9, 34, 0
11, 258864, Note_on_c, 9, 34, 108
11, 258864, Note_on_c, 9, 46, 90
11, 258865, Note_on_c, 9, 34, 0
11, 258960, Note_on_c, 9, 46, 0
11, 258960, Note_on_c, 9, 64, 31
11, 259056, Note_on_c, 9, 64, 0
11, 259056, Note_on_c, 9, 80, 25
11, 259056, Note_on_c, 9, 63, 64
11, 259057, Note_on_c, 9, 80, 0
11, 259152, Note_on_c, 9, 63, 0
11, 259152, Note_on_c, 9, 34, 84
11, 259152, Note_on_c, 9, 80, 45
11, 259152, Note_on_c, 9, 63, 63
11, 259153, Note_on_c, 9, 34, 0
11, 259248, Note_on_c, 9, 63, 0
11, 259248, Note_on_c, 9, 80, 0
11, 259248, Note_on_c, 9, 38, 112
11, 259248, Note_on_c, 9, 46, 90
11, 259248, Note_on_c, 9, 64, 48
11, 259249, Note_on_c, 9, 64, 0
11, 259344, Note_on_c, 9, 46, 0
11, 259344, Note_on_c, 9, 38, 0
11, 259344, Note_on_c, 9, 63, 86
11, 259440, Note_on_c, 9, 63, 0
11, 259440, Note_on_c, 9, 80, 36
11, 259440, Note_on_c, 9, 63, 74
11, 259536, Note_on_c, 9, 63, 0
11, 259536, Note_on_c, 9, 80, 0
11, 259536, Note_on_c, 9, 80, 27
11, 259536, Note_on_c, 9, 63, 34
11, 259632, Note_on_c, 9, 63, 0
11, 259632, Note_on_c, 9, 80, 0
11, 259632, Note_on_c, 9, 46, 90
11, 259632, Note_on_c, 9, 64, 80
11, 259824, Note_on_c, 9, 64, 0
11, 259824, Note_on_c, 9, 46, 0
11, 259824, Note_on_c, 9, 37, 90
11, 259920, Note_on_c, 9, 37, 0
11, 259920, Note_on_c, 9, 80, 27
11, 260016, Note_on_c, 9, 80, 0
11, 260016, Note_on_c, 9, 35, 53
11, 260016, Note_on_c, 9, 46, 90
11, 260016, Note_on_c, 9, 63, 34
11, 260017, Note_on_c, 9, 35, 0
11, 260112, Note_on_c, 9, 63, 0
11, 260112, Note_on_c, 9, 63, 69
11, 260208, Note_on_c, 9, 63, 0
11, 260208, Note_on_c, 9, 46, 0
11, 260208, Note_on_c, 9, 35, 108
11, 260304, Note_on_c, 9, 80, 34
11, 260400, Note_on_c, 9, 80, 0
11, 260400, Note_on_c, 9, 35, 0
11, 260400, Note_on_c, 9, 46, 90
11, 260496, Note_on_c, 9, 46, 0
11, 260496, Note_on_c, 9, 35, 112
11, 260592, Note_on_c, 9, 35, 0
11, 260688, Note_on_c, 9, 38, 46
11, 260688, Note_on_c, 9, 80, 56
11, 260689, Note_on_c, 9, 38, 0
11, 260784, Note_on_c, 9, 80, 0
11, 260784, Note_on_c, 9, 38, 60
11, 260784, Note_on_c, 9, 46, 90
11, 260784, Note_on_c, 9, 64, 23
11, 260880, Note_on_c, 9, 64, 0
11, 260880, Note_on_c, 9, 46, 0
11, 260880, Note_on_c, 9, 38, 0
11, 260880, Note_on_c, 9, 64, 76
11, 260976, Note_on_c, 9, 35, 104
11, 261072, Note_on_c, 9, 35, 0
11, 261072, Note_on_c, 9, 80, 46
11, 261168, Note_on_c, 9, 80, 0
11, 261168, Note_on_c, 9, 64, 0
11, 261168, Note_on_c, 9, 35, 108
11, 261168, Note_on_c, 9, 46, 90
11, 261168, Note_on_c, 9, 63, 61
11, 261264, Note_on_c, 9, 63, 0
11, 261264, Note_on_c, 9, 35, 0
11, 261360, Note_on_c, 9, 46, 0
11, 261360, Note_on_c, 9, 35, 120
11, 261360, Note_on_c, 9, 80, 38
11, 261456, Note_on_c, 9, 80, 0
11, 261456, Note_on_c, 9, 80, 45
11, 261552, Note_on_c, 9, 80, 0
11, 261552, Note_on_c, 9, 35, 0
11, 261552, Note_on_c, 9, 64, 27
11, 261552, Note_on_c, 9, 46, 90
11, 261553, Note_on_c, 9, 64, 0
11, 261648, Note_on_c, 9, 64, 90
11, 261744, Note_on_c, 9, 46, 0
11, 261744, Note_on_c, 9, 80, 37
11, 261840, Note_on_c, 9, 80, 0
11, 261840, Note_on_c, 9, 64, 0
11, 261840, Note_on_c, 9, 80, 43
11, 261840, Note_on_c, 9, 34, 61
11, 261841, Note_on_c, 9, 34, 0
11, 261936, Note_on_c, 9, 80, 0
11, 261936, Note_on_c, 9, 34, 23
11, 261936, Note_on_c, 9, 63, 69
11, 261936, Note_on_c, 9, 46, 90
11, 261937, Note_on_c, 9, 34, 0
11, 262032, Note_on_c, 9, 46, 0
11, 262032, Note_on_c, 9, 63, 0
11, 262032, Note_on_c, 9, 34, 42
11, 262128, Note_on_c, 9, 34, 0
11, 262128, Note_on_c, 9, 27, 28
11, 262128, Note_on_c, 9, 80, 25
11, 262128, Note_on_c, 9, 37, 98
11, 262129, Note_on_c, 9, 80, 0
11, 262224, Note_on_c, 9, 37, 0
11, 262224, Note_on_c, 9, 27, 0
11, 262224, Note_on_c, 9, 37, 61
11, 262224, Note_on_c, 9, 64, 30
11, 262224, Note_on_c, 9, 80, 45
11, 262225, Note_on_c, 9, 64, 0
11, 262320, Note_on_c, 9, 80, 0
11, 262320, Note_on_c, 9, 37, 0
11, 262320, Note_on_c, 9, 46, 90
11, 262320, Note_on_c, 9, 63, 94
11, 262416, Note_on_c, 9, 63, 0
11, 262416, Note_on_c, 9, 46, 0
11, 262512, Note_on_c, 9, 80, 36
11, 262608, Note_on_c, 9, 80, 0
11, 262608, Note_on_c, 9, 80, 27
11, 262704, Note_on_c, 9, 80, 0
11, 262704, Note_on_c, 9, 46, 90
11, 262896, Note_on_c, 9, 46, 0
11, 262896, Note_on_c, 9, 64, 18
11, 262897, Note_on_c, 9, 64, 0
11, 262992, Note_on_c, 9, 64, 30
11, 262992, Note_on_c, 9, 80, 27
11, 263088, Note_on_c, 9, 80, 0
11, 263088, Note_on_c, 9, 64, 0
11, 263088, Note_on_c, 9, 35, 53
11, 263088, Note_on_c, 9, 46, 90
11, 263088, Note_on_c, 9, 63, 72
11, 263088, Note_on_c, 9, 64, 34
11, 263088, Note_on_c, 9, 38, 96
11, 263089, Note_on_c, 9, 64, 0
11, 263089, Note_on_c, 9, 35, 0
11, 263184, Note_on_c, 9, 38, 0
11, 263184, Note_on_c, 9, 63, 0
11, 263280, Note_on_c, 9, 46, 0
11, 263280, Note_on_c, 9, 35, 108
11, 263376, Note_on_c, 9, 80, 34
11, 263472, Note_on_c, 9, 80, 0
11, 263472, Note_on_c, 9, 35, 0
11, 263472, Note_on_c, 9, 46, 90
11, 263568, Note_on_c, 9, 46, 0
11, 263568, Note_on_c, 9, 64, 26
11, 263568, Note_on_c, 9, 35, 112
11, 263569, Note_on_c, 9, 64, 0
11, 263664, Note_on_c, 9, 35, 0
11, 263664, Note_on_c, 9, 63, 37
11, 263665, Note_on_c, 9, 63, 0
11, 263760, Note_on_c, 9, 63, 48
11, 263760, Note_on_c, 9, 80, 56
11, 263856, Note_on_c, 9, 80, 0
11, 263856, Note_on_c, 9, 63, 0
11, 263856, Note_on_c, 9, 46, 90
11, 263856, Note_on_c, 9, 64, 50
11, 263857, Note_on_c, 9, 64, 0
11, 263952, Note_on_c, 9, 46, 0
11, 263952, Note_on_c, 9, 64, 34
11, 264048, Note_on_c, 9, 64, 0
11, 264048, Note_on_c, 9, 35, 104
11, 264048, Note_on_c, 9, 63, 60
11, 264144, Note_on_c, 9, 63, 0
11, 264144, Note_on_c, 9, 35, 0
11, 264144, Note_on_c, 9, 63, 41
11, 264144, Note_on_c, 9, 80, 46
11, 264240, Note_on_c, 9, 80, 0
11, 264240, Note_on_c, 9, 63, 0
11, 264240, Note_on_c, 9, 35, 108
11, 264240, Note_on_c, 9, 64, 54
11, 264240, Note_on_c, 9, 46, 90
11, 264336, Note_on_c, 9, 64, 0
11, 264336, Note_on_c, 9, 35, 0
11, 264432, Note_on_c, 9, 46, 0
11, 264432, Note_on_c, 9, 35, 120
11, 264432, Note_on_c, 9, 80, 38
11, 264432, Note_on_c, 9, 37, 114
11, 264528, Note_on_c, 9, 37, 0
11, 264528, Note_on_c, 9, 80, 0
11, 264528, Note_on_c, 9, 80, 45
11, 264624, Note_on_c, 9, 80, 0
11, 264624, Note_on_c, 9, 35, 0
11, 264624, Note_on_c, 9, 46, 90
11, 264816, Note_on_c, 9, 46, 0
11, 264816, Note_on_c, 9, 80, 37
11, 264912, Note_on_c, 9, 80, 0
11, 264912, Note_on_c, 9, 80, 43
11, 265008, Note_on_c, 9, 80, 0
11, 265008, Note_on_c, 9, 46, 90
11, 265104, Note_on_c, 9, 46, 0
11, 265104, Note_on_c, 9, 34, 42
11, 265104, Note_on_c, 9, 64, 31
11, 265200, Note_on_c, 9, 64, 0
11, 265200, Note_on_c, 9, 34, 0
11, 265200, Note_on_c, 9, 80, 25
11, 265200, Note_on_c, 9, 63, 64
11, 265200, Note_on_c, 9, 34, 35
11, 265201, Note_on_c, 9, 80, 0
11, 265296, Note_on_c, 9, 34, 0
11, 265296, Note_on_c, 9, 63, 0
11, 265296, Note_on_c, 9, 63, 63
11, 265296, Note_on_c, 9, 80, 45
11, 265392, Note_on_c, 9, 80, 0
11, 265392, Note_on_c, 9, 63, 0
11, 265392, Note_on_c, 9, 46, 90
11, 265392, Note_on_c, 9, 64, 48
11, 265393, Note_on_c, 9, 64, 0
11, 265488, Note_on_c, 9, 46, 0
11, 265488, Note_on_c, 9, 63, 86
11, 265584, Note_on_c, 9, 63, 0
11, 265584, Note_on_c, 9, 80, 36
11, 265584, Note_on_c, 9, 63, 74
11, 265680, Note_on_c, 9, 63, 0
11, 265680, Note_on_c, 9, 80, 0
11, 265680, Note_on_c, 9, 80, 27
11, 265680, Note_on_c, 9, 63, 34
11, 265776, Note_on_c, 9, 63, 0
11, 265776, Note_on_c, 9, 80, 0
11, 265776, Note_on_c, 9, 46, 90
11, 265776, Note_on_c, 9, 64, 80
11, 265968, Note_on_c, 9, 64, 0
11, 265968, Note_on_c, 9, 46, 0
11, 266064, Note_on_c, 9, 34, 60
11, 266064, Note_on_c, 9, 80, 27
11, 266065, Note_on_c, 9, 34, 0
11, 266160, Note_on_c, 9, 80, 0
11, 266160, Note_on_c, 9, 35, 53
11, 266160, Note_on_c, 9, 34, 49
11, 266160, Note_on_c, 9, 46, 90
11, 266160, Note_on_c, 9, 63, 34
11, 266161, Note_on_c, 9, 34, 0
11, 266161, Note_on_c, 9, 35, 0
11, 266256, Note_on_c, 9, 63, 0
11, 266256, Note_on_c, 9, 34, 96
11, 266256, Note_on_c, 9, 63, 69
11, 266352, Note_on_c, 9, 63, 0
11, 266352, Note_on_c, 9, 34, 0
11, 266352, Note_on_c, 9, 46, 0
11, 266352, Note_on_c, 9, 35, 108
11, 266448, Note_on_c, 9, 80, 34
11, 266544, Note_on_c, 9, 80, 0
11, 266544, Note_on_c, 9, 35, 0
11, 266544, Note_on_c, 9, 46, 90
11, 266640, Note_on_c, 9, 46, 0
11, 266640, Note_on_c, 9, 35, 112
11, 266736, Note_on_c, 9, 35, 0
11, 266832, Note_on_c, 9, 34, 60
11, 266832, Note_on_c, 9, 80, 56
11, 266833, Note_on_c, 9, 34, 0
11, 266928, Note_on_c, 9, 80, 0
11, 266928, Note_on_c, 9, 37, 51
11, 266928, Note_on_c, 9, 46, 90
11, 266928, Note_on_c, 9, 64, 23
11, 266929, Note_on_c, 9, 37, 0
11, 267024, Note_on_c, 9, 64, 0
11, 267024, Note_on_c, 9, 46, 0
11, 267024, Note_on_c, 9, 38, 74
11, 267024, Note_on_c, 9, 64, 76
11, 267120, Note_on_c, 9, 38, 0
11, 267120, Note_on_c, 9, 35, 104
11, 267216, Note_on_c, 9, 35, 0
11, 267216, Note_on_c, 9, 80, 46
11, 267304, Note_on_c, 9, 80, 0
11, 267304, Note_on_c, 9, 64, 0
11, 267304, Note_on_c, 9, 35, 108
11, 267304, Note_on_c, 9, 46, 90
11, 267304, Note_on_c, 9, 63, 61
11, 267408, Note_on_c, 9, 63, 0
11, 267408, Note_on_c, 9, 35, 0
11, 267504, Note_on_c, 9, 46, 0
11, 267504, Note_on_c, 9, 35, 120
11, 267504, Note_on_c, 9, 80, 38
11, 267600, Note_on_c, 9, 80, 0
11, 267600, Note_on_c, 9, 80, 45
11, 267696, Note_on_c, 9, 80, 0
11, 267696, Note_on_c, 9, 35, 0
11, 267696, Note_on_c, 9, 46, 90
11, 267696, Note_on_c, 9, 64, 27
11, 267697, Note_on_c, 9, 64, 0
11, 267792, Note_on_c, 9, 64, 90
11, 267880, Note_on_c, 9, 46, 0
11, 267880, Note_on_c, 9, 80, 37
11, 267976, Note_on_c, 9, 80, 0
11, 267976, Note_on_c, 9, 64, 0
11, 267976, Note_on_c, 9, 50, 48
11, 267976, Note_on_c, 9, 80, 43
11, 267977, Note_on_c, 9, 50, 0
11, 268080, Note_on_c, 9, 80, 0
11, 268080, Note_on_c, 9, 50, 44
11, 268080, Note_on_c, 9, 46, 90
11, 268080, Note_on_c, 9, 63, 69
11, 268081, Note_on_c, 9, 50, 0
11, 268176, Note_on_c, 9, 63, 0
11, 268176, Note_on_c, 9, 46, 0
11, 268176, Note_on_c, 9, 50, 38
11, 268177, Note_on_c, 9, 50, 0
11, 268264, Note_on_c, 9, 47, 42
11, 268264, Note_on_c, 9, 80, 25
11, 268265, Note_on_c, 9, 80, 0
11, 268265, Note_on_c, 9, 47, 0
11, 268368, Note_on_c, 9, 47, 34
11, 268368, Note_on_c, 9, 80, 45
11, 268368, Note_on_c, 9, 64, 30
11, 268369, Note_on_c, 9, 64, 0
11, 268369, Note_on_c, 9, 47, 0
11, 268456, Note_on_c, 9, 80, 0
11, 268456, Note_on_c, 9, 47, 26
11, 268456, Note_on_c, 9, 46, 90
11, 268456, Note_on_c, 9, 63, 94
11, 268552, Note_on_c, 9, 63, 0
11, 268552, Note_on_c, 9, 46, 0
11, 268552, Note_on_c, 9, 47, 0
11, 268552, Note_on_c, 9, 53, 102
11, 268552, Note_on_c, 9, 64, 20
11, 268553, Note_on_c, 9, 64, 0
11, 268553, Note_on_c, 9, 53, 0
11, 268656, Note_on_c, 9, 35, 100
11, 268656, Note_on_c, 9, 80, 36
11, 268744, Note_on_c, 9, 80, 0
11, 268744, Note_on_c, 9, 80, 27
11, 268840, Note_on_c, 9, 80, 0
11, 268840, Note_on_c, 9, 35, 0
11, 268840, Note_on_c, 9, 46, 90
11, 269032, Note_on_c, 9, 46, 0
11, 269032, Note_on_c, 9, 64, 18
11, 269033, Note_on_c, 9, 64, 0
11, 269128, Note_on_c, 9, 80, 27
11, 269128, Note_on_c, 9, 64, 30
11, 269224, Note_on_c, 9, 64, 0
11, 269224, Note_on_c, 9, 80, 0
11, 269224, Note_on_c, 9, 35, 102
11, 269224, Note_on_c, 9, 63, 72
11, 269224, Note_on_c, 9, 64, 34
11, 269224, Note_on_c, 9, 46, 90
11, 269225, Note_on_c, 9, 64, 0
11, 269225, Note_on_c, 9, 35, 0
11, 269320, Note_on_c, 9, 63, 0
11, 269416, Note_on_c, 9, 46, 0
11, 269416, Note_on_c, 9, 40, 123
11, 269512, Note_on_c, 9, 80, 34
11, 269608, Note_on_c, 9, 80, 0
11, 269608, Note_on_c, 9, 46, 90
11, 269704, Note_on_c, 9, 46, 0
11, 269704, Note_on_c, 9, 40, 0
11, 269704, Note_on_c, 9, 64, 26
11, 269705, Note_on_c, 9, 64, 0
11, 269800, Note_on_c, 9, 63, 37
11, 269801, Note_on_c, 9, 63, 0
11, 269896, Note_on_c, 9, 63, 48
11, 269896, Note_on_c, 9, 80, 56
11, 269992, Note_on_c, 9, 80, 0
11, 269992, Note_on_c, 9, 63, 0
11, 269992, Note_on_c, 9, 46, 90
11, 269992, Note_on_c, 9, 64, 50
11, 269993, Note_on_c, 9, 64, 0
11, 270088, Note_on_c, 9, 46, 0
11, 270088, Note_on_c, 9, 64, 34
11, 270184, Note_on_c, 9, 64, 0
11, 270184, Note_on_c, 9, 35, 100
11, 270184, Note_on_c, 9, 63, 60
11, 270280, Note_on_c, 9, 63, 0
11, 270280, Note_on_c, 9, 63, 41
11, 270280, Note_on_c, 9, 80, 46
11, 270376, Note_on_c, 9, 80, 0
11, 270376, Note_on_c, 9, 63, 0
11, 270376, Note_on_c, 9, 35, 0
11, 270376, Note_on_c, 9, 46, 90
11, 270376, Note_on_c, 9, 64, 54
11, 270472, Note_on_c, 9, 64, 0
11, 270568, Note_on_c, 9, 46, 0
11, 270568, Note_on_c, 9, 80, 38
11, 270664, Note_on_c, 9, 80, 0
11, 270664, Note_on_c, 9, 80, 45
11, 270760, Note_on_c, 9, 80, 0
11, 270760, Note_on_c, 9, 35, 102
11, 270760, Note_on_c, 9, 46, 90
11, 270761, Note_on_c, 9, 35, 0
11, 270952, Note_on_c, 9, 46, 0
11, 270952, Note_on_c, 9, 80, 37
11, 270952, Note_on_c, 9, 40, 123
11, 271048, Note_on_c, 9, 80, 0
11, 271048, Note_on_c, 9, 80, 43
11, 271144, Note_on_c, 9, 80, 0
11, 271144, Note_on_c, 9, 46, 90
11, 271240, Note_on_c, 9, 46, 0
11, 271240, Note_on_c, 9, 40, 0
11, 271240, Note_on_c, 9, 64, 31
11, 271336, Note_on_c, 9, 64, 0
11, 271336, Note_on_c, 9, 80, 25
11, 271336, Note_on_c, 9, 63, 64
11, 271337, Note_on_c, 9, 80, 0
11, 271432, Note_on_c, 9, 63, 0
11, 271432, Note_on_c, 9, 63, 63
11, 271432, Note_on_c, 9, 80, 45
11, 271528, Note_on_c, 9, 80, 0
11, 271528, Note_on_c, 9, 63, 0
11, 271528, Note_on_c, 9, 46, 90
11, 271528, Note_on_c, 9, 64, 48
11, 271529, Note_on_c, 9, 64, 0
11, 271624, Note_on_c, 9, 46, 0
11, 271624, Note_on_c, 9, 63, 86
11, 271720, Note_on_c, 9, 63, 0
11, 271720, Note_on_c, 9, 80, 36
11, 271720, Note_on_c, 9, 63, 74
11, 271720, Note_on_c, 9, 35, 100
11, 271816, Note_on_c, 9, 63, 0
11, 271816, Note_on_c, 9, 80, 0
11, 271816, Note_on_c, 9, 80, 27
11, 271816, Note_on_c, 9, 63, 34
11, 271912, Note_on_c, 9, 63, 0
11, 271912, Note_on_c, 9, 80, 0
11, 271912, Note_on_c, 9, 35, 0
11, 271912, Note_on_c, 9, 46, 90
11, 271912, Note_on_c, 9, 64, 80
11, 272104, Note_on_c, 9, 64, 0
11, 272104, Note_on_c, 9, 46, 0
11, 272200, Note_on_c, 9, 80, 27
11, 272296, Note_on_c, 9, 80, 0
11, 272296, Note_on_c, 9, 46, 90
11, 272296, Note_on_c, 9, 63, 34
11, 272296, Note_on_c, 9, 35, 102
11, 272297, Note_on_c, 9, 35, 0
11, 272392, Note_on_c, 9, 63, 0
11, 272392, Note_on_c, 9, 63, 69
11, 272488, Note_on_c, 9, 63, 0
11, 272488, Note_on_c, 9, 46, 0
11, 272488, Note_on_c, 9, 40, 123
11, 272584, Note_on_c, 9, 80, 34
11, 272680, Note_on_c, 9, 80, 0
11, 272680, Note_on_c, 9, 46, 90
11, 272776, Note_on_c, 9, 46, 0
11, 272776, Note_on_c, 9, 40, 0
11, 272968, Note_on_c, 9, 80, 56
11, 273064, Note_on_c, 9, 80, 0
11, 273064, Note_on_c, 9, 64, 23
11, 273064, Note_on_c, 9, 46, 90
11, 273160, Note_on_c, 9, 46, 0
11, 273160, Note_on_c, 9, 64, 0
11, 273160, Note_on_c, 9, 64, 76
11, 273256, Note_on_c, 9, 35, 100
11, 273352, Note_on_c, 9, 80, 46
11, 273448, Note_on_c, 9, 80, 0
11, 273448, Note_on_c, 9, 35, 0
11, 273448, Note_on_c, 9, 64, 0
11, 273448, Note_on_c, 9, 46, 90
11, 273448, Note_on_c, 9, 63, 61
11, 273544, Note_on_c, 9, 63, 0
11, 273640, Note_on_c, 9, 46, 0
11, 273640, Note_on_c, 9, 80, 38
11, 273736, Note_on_c, 9, 80, 0
11, 273736, Note_on_c, 9, 80, 45
11, 273832, Note_on_c, 9, 80, 0
11, 273832, Note_on_c, 9, 35, 102
11, 273832, Note_on_c, 9, 64, 27
11, 273832, Note_on_c, 9, 46, 90
11, 273833, Note_on_c, 9, 64, 0
11, 273833, Note_on_c, 9, 35, 0
11, 273928, Note_on_c, 9, 64, 90
11, 274024, Note_on_c, 9, 46, 0
11, 274024, Note_on_c, 9, 40, 123
11, 274024, Note_on_c, 9, 80, 37
11, 274120, Note_on_c, 9, 80, 0
11, 274120, Note_on_c, 9, 64, 0
11, 274120, Note_on_c, 9, 80, 43
11, 274216, Note_on_c, 9, 80, 0
11, 274216, Note_on_c, 9, 46, 90
11, 274216, Note_on_c, 9, 63, 69
11, 274312, Note_on_c, 9, 63, 0
11, 274312, Note_on_c, 9, 46, 0
11, 274312, Note_on_c, 9, 40, 0
11, 274408, Note_on_c, 9, 80, 25
11, 274409, Note_on_c, 9, 80, 0
11, 274504, Note_on_c, 9, 80, 45
11, 274504, Note_on_c, 9, 64, 30
11, 274505, Note_on_c, 9, 64, 0
11, 274600, Note_on_c, 9, 80, 0
11, 274600, Note_on_c, 9, 46, 90
11, 274600, Note_on_c, 9, 63, 94
11, 274696, Note_on_c, 9, 63, 0
11, 274696, Note_on_c, 9, 46, 0
11, 274792, Note_on_c, 9, 35, 100
11, 274792, Note_on_c, 9, 80, 36
11, 274888, Note_on_c, 9, 80, 0
11, 274888, Note_on_c, 9, 80, 27
11, 274984, Note_on_c, 9, 80, 0
11, 274984, Note_on_c, 9, 35, 0
11, 274984, Note_on_c, 9, 46, 90
11, 275176, Note_on_c, 9, 46, 0
11, 275176, Note_on_c, 9, 64, 18
11, 275177, Note_on_c, 9, 64, 0
11, 275272, Note_on_c, 9, 80, 27
11, 275272, Note_on_c, 9, 64, 30
11, 275368, Note_on_c, 9, 64, 0
11, 275368, Note_on_c, 9, 80, 0
11, 275368, Note_on_c, 9, 35, 102
11, 275368, Note_on_c, 9, 46, 90
11, 275368, Note_on_c, 9, 63, 72
11, 275368, Note_on_c, 9, 64, 34
11, 275369, Note_on_c, 9, 64, 0
11, 275369, Note_on_c, 9, 35, 0
11, 275464, Note_on_c, 9, 63, 0
11, 275560, Note_on_c, 9, 46, 0
11, 275560, Note_on_c, 9, 40, 123
11, 275656, Note_on_c, 9, 80, 34
11, 275752, Note_on_c, 9, 80, 0
11, 275752, Note_on_c, 9, 46, 90
11, 275848, Note_on_c, 9, 46, 0
11, 275848, Note_on_c, 9, 40, 0
11, 275848, Note_on_c, 9, 64, 26
11, 275849, Note_on_c, 9, 64, 0
11, 275944, Note_on_c, 9, 63, 37
11, 275945, Note_on_c, 9, 63, 0
11, 276040, Note_on_c, 9, 80, 56
11, 276040, Note_on_c, 9, 63, 48
11, 276136, Note_on_c, 9, 63, 0
11, 276136, Note_on_c, 9, 80, 0
11, 276136, Note_on_c, 9, 46, 90
11, 276136, Note_on_c, 9, 64, 50
11, 276137, Note_on_c, 9, 64, 0
11, 276232, Note_on_c, 9, 46, 0
11, 276232, Note_on_c, 9, 64, 34
11, 276328, Note_on_c, 9, 64, 0
11, 276328, Note_on_c, 9, 35, 100
11, 276328, Note_on_c, 9, 63, 60
11, 276424, Note_on_c, 9, 63, 0
11, 276424, Note_on_c, 9, 80, 46
11, 276424, Note_on_c, 9, 63, 41
11, 276520, Note_on_c, 9, 63, 0
11, 276520, Note_on_c, 9, 80, 0
11, 276520, Note_on_c, 9, 35, 0
11, 276520, Note_on_c, 9, 46, 90
11, 276520, Note_on_c, 9, 64, 54
11, 276616, Note_on_c, 9, 64, 0
11, 276712, Note_on_c, 9, 46, 0
11, 276712, Note_on_c, 9, 80, 38
11, 276808, Note_on_c, 9, 80, 0
11, 276808, Note_on_c, 9, 80, 45
11, 276904, Note_on_c, 9, 80, 0
11, 276904, Note_on_c, 9, 35, 102
11, 276904, Note_on_c, 9, 46, 90
11, 276905, Note_on_c, 9, 35, 0
11, 277096, Note_on_c, 9, 46, 0
11, 277096, Note_on_c, 9, 40, 123
11, 277096, Note_on_c, 9, 80, 37
11, 277192, Note_on_c, 9, 80, 0
11, 277192, Note_on_c, 9, 80, 43
11, 277288, Note_on_c, 9, 80, 0
11, 277288, Note_on_c, 9, 46, 90
11, 277384, Note_on_c, 9, 46, 0
11, 277384, Note_on_c, 9, 40, 0
11, 277384, Note_on_c, 9, 64, 31
11, 277480, Note_on_c, 9, 64, 0
11, 277480, Note_on_c, 9, 80, 25
11, 277480, Note_on_c, 9, 63, 64
11, 277481, Note_on_c, 9, 80, 0
11, 277576, Note_on_c, 9, 63, 0
11, 277576, Note_on_c, 9, 80, 45
11, 277576, Note_on_c, 9, 63, 63
11, 277672, Note_on_c, 9, 63, 0
11, 277672, Note_on_c, 9, 80, 0
11, 277672, Note_on_c, 9, 46, 90
11, 277672, Note_on_c, 9, 64, 48
11, 277673, Note_on_c, 9, 64, 0
11, 277768, Note_on_c, 9, 46, 0
11, 277768, Note_on_c, 9, 63, 86
11, 277864, Note_on_c, 9, 63, 0
11, 277864, Note_on_c, 9, 35, 100
11, 277864, Note_on_c, 9, 80, 36
11, 277864, Note_on_c, 9, 63, 74
11, 277960, Note_on_c, 9, 63, 0
11, 277960, Note_on_c, 9, 80, 0
11, 277960, Note_on_c, 9, 80, 27
11, 277960, Note_on_c, 9, 63, 34
11, 278056, Note_on_c, 9, 63, 0
11, 278056, Note_on_c, 9, 80, 0
11, 278056, Note_on_c, 9, 35, 0
11, 278056, Note_on_c, 9, 46, 90
11, 278056, Note_on_c, 9, 64, 80
11, 278248, Note_on_c, 9, 64, 0
11, 278248, Note_on_c, 9, 46, 0
11, 278344, Note_on_c, 9, 80, 27
11, 278440, Note_on_c, 9, 80, 0
11, 278440, Note_on_c, 9, 35, 102
11, 278440, Note_on_c, 9, 46, 90
11, 278440, Note_on_c, 9, 63, 34
11, 278441, Note_on_c, 9, 35, 0
11, 278536, Note_on_c, 9, 63, 0
11, 278536, Note_on_c, 9, 63, 69
11, 278632, Note_on_c, 9, 63, 0
11, 278632, Note_on_c, 9, 46, 0
11, 278632, Note_on_c, 9, 40, 123
11, 278728, Note_on_c, 9, 80, 34
11, 278824, Note_on_c, 9, 80, 0
11, 278824, Note_on_c, 9, 46, 90
11, 278920, Note_on_c, 9, 46, 0
11, 278920, Note_on_c, 9, 40, 0
11, 279112, Note_on_c, 9, 80, 56
11, 279208, Note_on_c, 9, 80, 0
11, 279208, Note_on_c, 9, 46, 90
11, 279208, Note_on_c, 9, 64, 23
11, 279304, Note_on_c, 9, 64, 0
11, 279304, Note_on_c, 9, 46, 0
11, 279304, Note_on_c, 9, 64, 76
11, 279400, Note_on_c, 9, 35, 100
11, 279496, Note_on_c, 9, 80, 46
11, 279592, Note_on_c, 9, 80, 0
11, 279592, Note_on_c, 9, 35, 0
11, 279592, Note_on_c, 9, 64, 0
11, 279592, Note_on_c, 9, 63, 61
11, 279592, Note_on_c, 9, 46, 90
11, 279688, Note_on_c, 9, 63, 0
11, 279784, Note_on_c, 9, 46, 0
11, 279784, Note_on_c, 9, 80, 38
11, 279880, Note_on_c, 9, 80, 0
11, 279880, Note_on_c, 9, 80, 45
11, 279976, Note_on_c, 9, 80, 0
11, 279976, Note_on_c, 9, 46, 90
11, 279976, Note_on_c, 9, 64, 27
11, 279976, Note_on_c, 9, 35, 102
11, 279977, Note_on_c, 9, 35, 0
11, 279977, Note_on_c, 9, 64, 0
11, 280072, Note_on_c, 9, 64, 90
11, 280168, Note_on_c, 9, 46, 0
11, 280168, Note_on_c, 9, 80, 37
11, 280168, Note_on_c, 9, 40, 123
11, 280264, Note_on_c, 9, 80, 0
11, 280264, Note_on_c, 9, 64, 0
11, 280264, Note_on_c, 9, 80, 43
11, 280360, Note_on_c, 9, 80, 0
11, 280360, Note_on_c, 9, 46, 90
11, 280360, Note_on_c, 9, 63, 69
11, 280456, Note_on_c, 9, 63, 0
11, 280456, Note_on_c, 9, 46, 0
11, 280456, Note_on_c, 9, 40, 0
11, 280552, Note_on_c, 9, 80, 25
11, 280553, Note_on_c, 9, 80, 0
11, 280648, Note_on_c, 9, 80, 45
11, 280648, Note_on_c, 9, 64, 30
11, 280649, Note_on_c, 9, 64, 0
11, 280744, Note_on_c, 9, 80, 0
11, 280744, Note_on_c, 9, 63, 94
11, 280744, Note_on_c, 9, 46, 90
11, 280840, Note_on_c, 9, 46, 0
11, 280840, Note_on_c, 9, 63, 0
11, 280936, Note_on_c, 9, 35, 100
11, 280936, Note_on_c, 9, 80, 36
11, 281032, Note_on_c, 9, 80, 0
11, 281032, Note_on_c, 9, 80, 27
11, 281128, Note_on_c, 9, 80, 0
11, 281128, Note_on_c, 9, 35, 0
11, 281128, Note_on_c, 9, 46, 90
11, 281320, Note_on_c, 9, 46, 0
11, 281320, Note_on_c, 9, 64, 18
11, 281321, Note_on_c, 9, 64, 0
11, 281416, Note_on_c, 9, 64, 30
11, 281416, Note_on_c, 9, 80, 27
11, 281512, Note_on_c, 9, 80, 0
11, 281512, Note_on_c, 9, 64, 0
11, 281512, Note_on_c, 9, 46, 90
11, 281512, Note_on_c, 9, 63, 72
11, 281512, Note_on_c, 9, 35, 102
11, 281512, Note_on_c, 9, 64, 34
11, 281513, Note_on_c, 9, 64, 0
11, 281513, Note_on_c, 9, 35, 0
11, 281608, Note_on_c, 9, 63, 0
11, 281704, Note_on_c, 9, 46, 0
11, 281704, Note_on_c, 9, 40, 123
11, 281800, Note_on_c, 9, 80, 34
11, 281896, Note_on_c, 9, 80, 0
11, 281896, Note_on_c, 9, 46, 90
11, 281992, Note_on_c, 9, 46, 0
11, 281992, Note_on_c, 9, 40, 0
11, 281992, Note_on_c, 9, 64, 26
11, 281993, Note_on_c, 9, 64, 0
11, 282080, Note_on_c, 9, 63, 37
11, 282081, Note_on_c, 9, 63, 0
11, 282184, Note_on_c, 9, 80, 56
11, 282184, Note_on_c, 9, 63, 48
11, 282272, Note_on_c, 9, 63, 0
11, 282272, Note_on_c, 9, 80, 0
11, 282272, Note_on_c, 9, 46, 90
11, 282272, Note_on_c, 9, 64, 50
11, 282273, Note_on_c, 9, 64, 0
11, 282368, Note_on_c, 9, 46, 0
11, 282368, Note_on_c, 9, 64, 34
11, 282472, Note_on_c, 9, 64, 0
11, 282472, Note_on_c, 9, 63, 60
11, 282472, Note_on_c, 9, 35, 100
11, 282560, Note_on_c, 9, 63, 0
11, 282560, Note_on_c, 9, 80, 46
11, 282560, Note_on_c, 9, 63, 41
11, 282664, Note_on_c, 9, 63, 0
11, 282664, Note_on_c, 9, 80, 0
11, 282664, Note_on_c, 9, 35, 0
11, 282664, Note_on_c, 9, 64, 54
11, 282664, Note_on_c, 9, 46, 90
11, 282752, Note_on_c, 9, 64, 0
11, 282856, Note_on_c, 9, 46, 0
11, 282856, Note_on_c, 9, 80, 38
11, 282952, Note_on_c, 9, 80, 0
11, 282952, Note_on_c, 9, 80, 45
11, 283048, Note_on_c, 9, 80, 0
11, 283048, Note_on_c, 9, 46, 90
11, 283048, Note_on_c, 9, 35, 102
11, 283049, Note_on_c, 9, 35, 0
11, 283232, Note_on_c, 9, 46, 0
11, 283232, Note_on_c, 9, 40, 123
11, 283232, Note_on_c, 9, 80, 37
11, 283328, Note_on_c, 9, 80, 0
11, 283328, Note_on_c, 9, 80, 43
11, 283424, Note_on_c, 9, 80, 0
11, 283424, Note_on_c, 9, 46, 90
11, 283520, Note_on_c, 9, 46, 0
11, 283520, Note_on_c, 9, 40, 0
11, 283520, Note_on_c, 9, 64, 31
11, 283616, Note_on_c, 9, 64, 0
11, 283616, Note_on_c, 9, 63, 64
11, 283616, Note_on_c, 9, 80, 25
11, 283617, Note_on_c, 9, 80, 0
11, 283712, Note_on_c, 9, 63, 0
11, 283712, Note_on_c, 9, 80, 45
11, 283712, Note_on_c, 9, 63, 63
11, 283808, Note_on_c, 9, 63, 0
11, 283808, Note_on_c, 9, 80, 0
11, 283808, Note_on_c, 9, 64, 48
11, 283808, Note_on_c, 9, 46, 90
11, 283809, Note_on_c, 9, 64, 0
11, 283904, Note_on_c, 9, 46, 0
11, 283904, Note_on_c, 9, 63, 86
11, 284000, Note_on_c, 9, 63, 0
11, 284000, Note_on_c, 9, 80, 36
11, 284000, Note_on_c, 9, 35, 100
11, 284000, Note_on_c, 9, 63, 74
11, 284096, Note_on_c, 9, 63, 0
11, 284096, Note_on_c, 9, 80, 0
11, 284096, Note_on_c, 9, 63, 34
11, 284096, Note_on_c, 9, 80, 27
11, 284192, Note_on_c, 9, 80, 0
11, 284192, Note_on_c, 9, 63, 0
11, 284192, Note_on_c, 9, 35, 0
11, 284192, Note_on_c, 9, 64, 80
11, 284192, Note_on_c, 9, 46, 90
11, 284384, Note_on_c, 9, 46, 0
11, 284384, Note_on_c, 9, 64, 0
11, 284480, Note_on_c, 9, 80, 27
11, 284576, Note_on_c, 9, 80, 0
11, 284576, Note_on_c, 9, 46, 90
11, 284576, Note_on_c, 9, 35, 102
11, 284576, Note_on_c, 9, 63, 34
11, 284577, Note_on_c, 9, 35, 0
11, 284672, Note_on_c, 9, 63, 0
11, 284672, Note_on_c, 9, 63, 69
11, 284768, Note_on_c, 9, 63, 0
11, 284768, Note_on_c, 9, 46, 0
11, 284768, Note_on_c, 9, 40, 123
11, 284864, Note_on_c, 9, 80, 34
11, 284960, Note_on_c, 9, 80, 0
11, 284960, Note_on_c, 9, 46, 90
11, 285056, Note_on_c, 9, 46, 0
11, 285056, Note_on_c, 9, 40, 0
11, 285248, Note_on_c, 9, 80, 56
11, 285344, Note_on_c, 9, 80, 0
11, 285344, Note_on_c, 9, 46, 90
11, 285344, Note_on_c, 9, 64, 23
11, 285440, Note_on_c, 9, 64, 0
11, 285440, Note_on_c, 9, 46, 0
11, 285440, Note_on_c, 9, 64, 76
11, 285536, Note_on_c, 9, 35, 100
11, 285632, Note_on_c, 9, 80, 46
11, 285728, Note_on_c, 9, 80, 0
11, 285728, Note_on_c, 9, 35, 0
11, 285728, Note_on_c, 9, 64, 0
11, 285728, Note_on_c, 9, 63, 61
11, 285728, Note_on_c, 9, 46, 90
11, 285824, Note_on_c, 9, 63, 0
11, 285920, Note_on_c, 9, 46, 0
11, 285920, Note_on_c, 9, 80, 38
11, 286016, Note_on_c, 9, 80, 0
11, 286016, Note_on_c, 9, 80, 45
11, 286112, Note_on_c, 9, 80, 0
11, 286112, Note_on_c, 9, 35, 102
11, 286112, Note_on_c, 9, 46, 90
11, 286112, Note_on_c, 9, 64, 27
11, 286113, Note_on_c, 9, 64, 0
11, 286113, Note_on_c, 9, 35, 0
11, 286208, Note_on_c, 9, 64, 90
11, 286304, Note_on_c, 9, 46, 0
11, 286304, Note_on_c, 9, 40, 123
11, 286304, Note_on_c, 9, 80, 37
11, 286400, Note_on_c, 9, 80, 0
11, 286400, Note_on_c, 9, 64, 0
11, 286400, Note_on_c, 9, 80, 43
11, 286496, Note_on_c, 9, 80, 0
11, 286496, Note_on_c, 9, 46, 90
11, 286496, Note_on_c, 9, 63, 69
11, 286592, Note_on_c, 9, 63, 0
11, 286592, Note_on_c, 9, 46, 0
11, 286592, Note_on_c, 9, 40, 0
11, 286688, Note_on_c, 9, 80, 25
11, 286689, Note_on_c, 9, 80, 0
11, 286784, Note_on_c, 9, 64, 30
11, 286784, Note_on_c, 9, 80, 45
11, 286785, Note_on_c, 9, 64, 0
11, 286880, Note_on_c, 9, 80, 0
11, 286880, Note_on_c, 9, 46, 90
11, 286880, Note_on_c, 9, 63, 94
11, 286976, Note_on_c, 9, 63, 0
11, 286976, Note_on_c, 9, 46, 0
11, 287072, Note_on_c, 9, 80, 36
11, 287072, Note_on_c, 9, 35, 100
11, 287168, Note_on_c, 9, 80, 0
11, 287168, Note_on_c, 9, 80, 27
11, 287264, Note_on_c, 9, 80, 0
11, 287264, Note_on_c, 9, 35, 0
11, 287264, Note_on_c, 9, 46, 90
11, 287456, Note_on_c, 9, 46, 0
11, 287456, Note_on_c, 9, 64, 18
11, 287457, Note_on_c, 9, 64, 0
11, 287552, Note_on_c, 9, 80, 27
11, 287552, Note_on_c, 9, 64, 30
11, 287648, Note_on_c, 9, 64, 0
11, 287648, Note_on_c, 9, 80, 0
11, 287648, Note_on_c, 9, 46, 90
11, 287648, Note_on_c, 9, 35, 102
11, 287648, Note_on_c, 9, 63, 72
11, 287648, Note_on_c, 9, 64, 34
11, 287649, Note_on_c, 9, 64, 0
11, 287649, Note_on_c, 9, 35, 0
11, 287744, Note_on_c, 9, 63, 0
11, 287840, Note_on_c, 9, 46, 0
11, 287840, Note_on_c, 9, 40, 123
11, 287936, Note_on_c, 9, 80, 34
11, 288032, Note_on_c, 9, 80, 0
11, 288032, Note_on_c, 9, 46, 90
11, 288128, Note_on_c, 9, 46, 0
11, 288128, Note_on_c, 9, 40, 0
11, 288128, Note_on_c, 9, 64, 26
11, 288129, Note_on_c, 9, 64, 0
11, 288224, Note_on_c, 9, 63, 37
11, 288225, Note_on_c, 9, 63, 0
11, 288320, Note_on_c, 9, 63, 48
11, 288320, Note_on_c, 9, 80, 56
11, 288416, Note_on_c, 9, 80, 0
11, 288416, Note_on_c, 9, 63, 0
11, 288416, Note_on_c, 9, 64, 50
11, 288416, Note_on_c, 9, 46, 90
11, 288417, Note_on_c, 9, 64, 0
11, 288512, Note_on_c, 9, 46, 0
11, 288512, Note_on_c, 9, 64, 34
11, 288608, Note_on_c, 9, 64, 0
11, 288608, Note_on_c, 9, 63, 60
11, 288608, Note_on_c, 9, 35, 100
11, 288704, Note_on_c, 9, 63, 0
11, 288704, Note_on_c, 9, 80, 46
11, 288704, Note_on_c, 9, 63, 41
11, 288800, Note_on_c, 9, 63, 0
11, 288800, Note_on_c, 9, 80, 0
11, 288800, Note_on_c, 9, 35, 0
11, 288800, Note_on_c, 9, 64, 54
11, 288800, Note_on_c, 9, 46, 90
11, 288896, Note_on_c, 9, 64, 0
11, 288992, Note_on_c, 9, 46, 0
11, 288992, Note_on_c, 9, 80, 38
11, 289088, Note_on_c, 9, 80, 0
11, 289088, Note_on_c, 9, 80, 45
11, 289184, Note_on_c, 9, 80, 0
11, 289184, Note_on_c, 9, 46, 90
11, 289184, Note_on_c, 9, 35, 102
11, 289185, Note_on_c, 9, 35, 0
11, 289376, Note_on_c, 9, 46, 0
11, 289376, Note_on_c, 9, 40, 123
11, 289376, Note_on_c, 9, 80, 37
11, 289472, Note_on_c, 9, 80, 0
11, 289472, Note_on_c, 9, 80, 43
11, 289568, Note_on_c, 9, 80, 0
11, 289568, Note_on_c, 9, 46, 90
11, 289664, Note_on_c, 9, 46, 0
11, 289664, Note_on_c, 9, 40, 0
11, 289664, Note_on_c, 9, 64, 31
11, 289760, Note_on_c, 9, 64, 0
11, 289760, Note_on_c, 9, 63, 64
11, 289760, Note_on_c, 9, 80, 25
11, 289761, Note_on_c, 9, 80, 0
11, 289856, Note_on_c, 9, 63, 0
11, 289856, Note_on_c, 9, 80, 45
11, 289856, Note_on_c, 9, 63, 63
11, 289952, Note_on_c, 9, 63, 0
11, 289952, Note_on_c, 9, 80, 0
11, 289952, Note_on_c, 9, 64, 48
11, 289952, Note_on_c, 9, 46, 90
11, 289953, Note_on_c, 9, 64, 0
11, 290048, Note_on_c, 9, 46, 0
11, 290048, Note_on_c, 9, 63, 86
11, 290144, Note_on_c, 9, 63, 0
11, 290144, Note_on_c, 9, 80, 36
11, 290144, Note_on_c, 9, 63, 74
11, 290144, Note_on_c, 9, 35, 100
11, 290240, Note_on_c, 9, 63, 0
11, 290240, Note_on_c, 9, 80, 0
11, 290240, Note_on_c, 9, 80, 27
11, 290240, Note_on_c, 9, 63, 34
11, 290336, Note_on_c, 9, 63, 0
11, 290336, Note_on_c, 9, 80, 0
11, 290336, Note_on_c, 9, 35, 0
11, 290336, Note_on_c, 9, 46, 90
11, 290336, Note_on_c, 9, 64, 80
11, 290528, Note_on_c, 9, 64, 0
11, 290528, Note_on_c, 9, 46, 0
11, 290624, Note_on_c, 9, 80, 27
11, 290720, Note_on_c, 9, 80, 0
11, 290720, Note_on_c, 9, 46, 90
11, 290720, Note_on_c, 9, 63, 34
11, 290720, Note_on_c, 9, 35, 102
11, 290721, Note_on_c, 9, 35, 0
11, 290816, Note_on_c, 9, 63, 0
11, 290816, Note_on_c, 9, 63, 69
11, 290912, Note_on_c, 9, 63, 0
11, 290912, Note_on_c, 9, 46, 0
11, 290912, Note_on_c, 9, 40, 123
11, 291008, Note_on_c, 9, 80, 34
11, 291104, Note_on_c, 9, 80, 0
11, 291104, Note_on_c, 9, 46, 90
11, 291200, Note_on_c, 9, 46, 0
11, 291200, Note_on_c, 9, 40, 0
11, 291392, Note_on_c, 9, 80, 56
11, 291488, Note_on_c, 9, 80, 0
11, 291488, Note_on_c, 9, 64, 23
11, 291488, Note_on_c, 9, 46, 90
11, 291584, Note_on_c, 9, 46, 0
11, 291584, Note_on_c, 9, 64, 0
11, 291584, Note_on_c, 9, 64, 76
11, 291680, Note_on_c, 9, 35, 100
11, 291776, Note_on_c, 9, 80, 46
11, 291872, Note_on_c, 9, 80, 0
11, 291872, Note_on_c, 9, 35, 0
11, 291872, Note_on_c, 9, 64, 0
11, 291872, Note_on_c, 9, 46, 90
11, 291872, Note_on_c, 9, 63, 61
11, 291968, Note_on_c, 9, 63, 0
11, 292064, Note_on_c, 9, 46, 0
11, 292064, Note_on_c, 9, 80, 38
11, 292160, Note_on_c, 9, 80, 0
11, 292160, Note_on_c, 9, 80, 45
11, 292256, Note_on_c, 9, 80, 0
11, 292256, Note_on_c, 9, 46, 90
11, 292256, Note_on_c, 9, 64, 27
11, 292256, Note_on_c, 9, 35, 102
11, 292257, Note_on_c, 9, 35, 0
11, 292257, Note_on_c, 9, 64, 0
11, 292352, Note_on_c, 9, 64, 90
11, 292448, Note_on_c, 9, 46, 0
11, 292448, Note_on_c, 9, 40, 123
11, 292448, Note_on_c, 9, 80, 37
11, 292544, Note_on_c, 9, 80, 0
11, 292544, Note_on_c, 9, 64, 0
11, 292544, Note_on_c, 9, 80, 43
11, 292640, Note_on_c, 9, 80, 0
11, 292640, Note_on_c, 9, 63, 69
11, 292640, Note_on_c, 9, 46, 90
11, 292736, Note_on_c, 9, 46, 0
11, 292736, Note_on_c, 9, 63, 0
11, 292736, Note_on_c, 9, 40, 0
11, 292832, Note_on_c, 9, 80, 25
11, 292833, Note_on_c, 9, 80, 0
11, 292928, Note_on_c, 9, 64, 30
11, 292928, Note_on_c, 9, 80, 45
11, 292929, Note_on_c, 9, 64, 0
11, 293024, Note_on_c, 9, 80, 0
11, 293024, Note_on_c, 9, 46, 90
11, 293024, Note_on_c, 9, 63, 94
11, 293120, Note_on_c, 9, 63, 0
11, 293120, Note_on_c, 9, 46, 0
11, 293216, Note_on_c, 9, 35, 100
11, 293216, Note_on_c, 9, 80, 36
11, 293312, Note_on_c, 9, 80, 0
11, 293312, Note_on_c, 9, 80, 27
11, 293408, Note_on_c, 9, 80, 0
11, 293408, Note_on_c, 9, 35, 0
11, 293408, Note_on_c, 9, 46, 90
11, 293600, Note_on_c, 9, 46, 0
11, 293600, Note_on_c, 9, 64, 18
11, 293601, Note_on_c, 9, 64, 0
11, 293696, Note_on_c, 9, 80, 27
11, 293696, Note_on_c, 9, 64, 30
11, 293792, Note_on_c, 9, 64, 0
11, 293792, Note_on_c, 9, 80, 0
11, 293792, Note_on_c, 9, 35, 102
11, 293792, Note_on_c, 9, 46, 90
11, 293792, Note_on_c, 9, 63, 72
11, 293792, Note_on_c, 9, 64, 34
11, 293793, Note_on_c, 9, 64, 0
11, 293793, Note_on_c, 9, 35, 0
11, 293888, Note_on_c, 9, 63, 0
11, 293984, Note_on_c, 9, 46, 0
11, 293984, Note_on_c, 9, 40, 123
11, 294080, Note_on_c, 9, 80, 34
11, 294176, Note_on_c, 9, 80, 0
11, 294176, Note_on_c, 9, 46, 90
11, 294272, Note_on_c, 9, 46, 0
11, 294272, Note_on_c, 9, 40, 0
11, 294272, Note_on_c, 9, 64, 26
11, 294273, Note_on_c, 9, 64, 0
11, 294368, Note_on_c, 9, 63, 37
11, 294369, Note_on_c, 9, 63, 0
11, 294464, Note_on_c, 9, 80, 56
11, 294464, Note_on_c, 9, 63, 48
11, 294560, Note_on_c, 9, 63, 0
11, 294560, Note_on_c, 9, 80, 0
11, 294560, Note_on_c, 9, 46, 90
11, 294560, Note_on_c, 9, 64, 50
11, 294561, Note_on_c, 9, 64, 0
11, 294656, Note_on_c, 9, 46, 0
11, 294656, Note_on_c, 9, 64, 34
11, 294752, Note_on_c, 9, 64, 0
11, 294752, Note_on_c, 9, 35, 100
11, 294752, Note_on_c, 9, 63, 60
11, 294848, Note_on_c, 9, 63, 0
11, 294848, Note_on_c, 9, 80, 46
11, 294848, Note_on_c, 9, 63, 41
11, 294944, Note_on_c, 9, 63, 0
11, 294944, Note_on_c, 9, 80, 0
11, 294944, Note_on_c, 9, 35, 0
11, 294944, Note_on_c, 9, 46, 90
11, 294944, Note_on_c, 9, 64, 54
11, 295040, Note_on_c, 9, 64, 0
11, 295136, Note_on_c, 9, 46, 0
11, 295136, Note_on_c, 9, 80, 38
11, 295232, Note_on_c, 9, 80, 0
11, 295232, Note_on_c, 9, 80, 45
11, 295328, Note_on_c, 9, 80, 0
11, 295328, Note_on_c, 9, 35, 102
11, 295328, Note_on_c, 9, 46, 90
11, 295329, Note_on_c, 9, 35, 0
11, 295520, Note_on_c, 9, 46, 0
11, 295520, Note_on_c, 9, 40, 123
11, 295520, Note_on_c, 9, 80, 37
11, 295616, Note_on_c, 9, 80, 0
11, 295616, Note_on_c, 9, 80, 43
11, 295712, Note_on_c, 9, 80, 0
11, 295712, Note_on_c, 9, 46, 90
11, 295808, Note_on_c, 9, 46, 0
11, 295808, Note_on_c, 9, 40, 0
11, 295808, Note_on_c, 9, 64, 31
11, 295904, Note_on_c, 9, 64, 0
11, 295904, Note_on_c, 9, 80, 25
11, 295904, Note_on_c, 9, 63, 64
11, 295905, Note_on_c, 9, 80, 0
11, 296000, Note_on_c, 9, 63, 0
11, 296000, Note_on_c, 9, 80, 45
11, 296000, Note_on_c, 9, 63, 63
11, 296096, Note_on_c, 9, 63, 0
11, 296096, Note_on_c, 9, 80, 0
11, 296096, Note_on_c, 9, 46, 90
11, 296096, Note_on_c, 9, 64, 48
11, 296097, Note_on_c, 9, 64, 0
11, 296192, Note_on_c, 9, 46, 0
11, 296192, Note_on_c, 9, 63, 86
11, 296288, Note_on_c, 9, 63, 0
11, 296288, Note_on_c, 9, 35, 100
11, 296288, Note_on_c, 9, 80, 36
11, 296288, Note_on_c, 9, 63, 74
11, 296384, Note_on_c, 9, 63, 0
11, 296384, Note_on_c, 9, 80, 0
11, 296384, Note_on_c, 9, 80, 27
11, 296384, Note_on_c, 9, 63, 34
11, 296480, Note_on_c, 9, 63, 0
11, 296480, Note_on_c, 9, 80, 0
11, 296480, Note_on_c, 9, 35, 0
11, 296480, Note_on_c, 9, 46, 90
11, 296480, Note_on_c, 9, 64, 80
11, 296664, Note_on_c, 9, 64, 0
11, 296664, Note_on_c, 9, 46, 0
11, 296768, Note_on_c, 9, 80, 27
11, 296864, Note_on_c, 9, 80, 0
11, 296864, Note_on_c, 9, 35, 102
11, 296864, Note_on_c, 9, 46, 90
11, 296864, Note_on_c, 9, 63, 34
11, 296865, Note_on_c, 9, 35, 0
11, 296952, Note_on_c, 9, 63, 0
11, 296952, Note_on_c, 9, 63, 69
11, 297048, Note_on_c, 9, 63, 0
11, 297048, Note_on_c, 9, 46, 0
11, 297048, Note_on_c, 9, 40, 123
11, 297144, Note_on_c, 9, 80, 34
11, 297240, Note_on_c, 9, 80, 0
11, 297240, Note_on_c, 9, 46, 90
11, 297336, Note_on_c, 9, 46, 0
11, 297336, Note_on_c, 9, 40, 0
11, 297536, Note_on_c, 9, 80, 56
11, 297624, Note_on_c, 9, 80, 0
11, 297624, Note_on_c, 9, 46, 90
11, 297624, Note_on_c, 9, 64, 23
11, 297720, Note_on_c, 9, 64, 0
11, 297720, Note_on_c, 9, 46, 0
11, 297720, Note_on_c, 9, 64, 76
11, 297816, Note_on_c, 9, 35, 100
11, 297912, Note_on_c, 9, 80, 46
11, 298008, Note_on_c, 9, 80, 0
11, 298008, Note_on_c, 9, 35, 0
11, 298008, Note_on_c, 9, 64, 0
11, 298008, Note_on_c, 9, 63, 61
11, 298008, Note_on_c, 9, 46, 90
11, 298104, Note_on_c, 9, 63, 0
11, 298200, Note_on_c, 9, 46, 0
11, 298200, Note_on_c, 9, 80, 38
11, 298296, Note_on_c, 9, 80, 0
11, 298296, Note_on_c, 9, 80, 45
11, 298392, Note_on_c, 9, 80, 0
11, 298392, Note_on_c, 9, 35, 102
11, 298392, Note_on_c, 9, 46, 90
11, 298392, Note_on_c, 9, 64, 27
11, 298393, Note_on_c, 9, 64, 0
11, 298393, Note_on_c, 9, 35, 0
11, 298488, Note_on_c, 9, 64, 90
11, 298584, Note_on_c, 9, 46, 0
11, 298584, Note_on_c, 9, 40, 123
11, 298584, Note_on_c, 9, 80, 37
11, 298680, Note_on_c, 9, 80, 0
11, 298680, Note_on_c, 9, 64, 0
11, 298680, Note_on_c, 9, 80, 43
11, 298776, Note_on_c, 9, 80, 0
11, 298776, Note_on_c, 9, 46, 90
11, 298776, Note_on_c, 9, 63, 69
11, 298872, Note_on_c, 9, 63, 0
11, 298872, Note_on_c, 9, 46, 0
11, 298872, Note_on_c, 9, 40, 0
11, 298968, Note_on_c, 9, 80, 25
11, 298969, Note_on_c, 9, 80, 0
11, 299064, Note_on_c, 9, 80, 45
11, 299064, Note_on_c, 9, 64, 30
11, 299065, Note_on_c, 9, 64, 0
11, 299160, Note_on_c, 9, 80, 0
11, 299160, Note_on_c, 9, 63, 94
11, 299160, Note_on_c, 9, 46, 90
11, 299256, Note_on_c, 9, 46, 0
11, 299256, Note_on_c, 9, 63, 0
11, 299360, Note_on_c, 9, 80, 36
11, 299448, Note_on_c, 9, 80, 0
11, 299448, Note_on_c, 9, 80, 27
11, 299544, Note_on_c, 9, 80, 0
11, 299544, Note_on_c, 9, 46, 90
11, 299544, Note_on_c, 9, 75, 47
11, 299544, Note_on_c, 9, 69, 41
11, 299640, Note_on_c, 9, 69, 0
11, 299640, Note_on_c, 9, 75, 0
11, 299736, Note_on_c, 9, 46, 0
11, 299832, Note_on_c, 9, 80, 27
11, 299928, Note_on_c, 9, 80, 0
11, 299928, Note_on_c, 9, 69, 54
11, 299928, Note_on_c, 9, 75, 43
11, 299928, Note_on_c, 9, 46, 90
11, 300024, Note_on_c, 9, 75, 0
11, 300024, Note_on_c, 9, 69, 0
11, 300120, Note_on_c, 9, 46, 0
11, 300216, Note_on_c, 9, 80, 34
11, 300312, Note_on_c, 9, 80, 0
11, 300312, Note_on_c, 9, 69, 44
11, 300312, Note_on_c, 9, 75, 48
11, 300312, Note_on_c, 9, 46, 90
11, 300408, Note_on_c, 9, 46, 0
11, 300408, Note_on_c, 9, 75, 0
11, 300408, Note_on_c, 9, 69, 0
11, 300408, Note_on_c, 9, 75, 53
11, 300504, Note_on_c, 9, 75, 0
11, 300600, Note_on_c, 9, 80, 56
11, 300696, Note_on_c, 9, 80, 0
11, 300696, Note_on_c, 9, 69, 47
11, 300696, Note_on_c, 9, 75, 49
11, 300696, Note_on_c, 9, 46, 90
11, 300792, Note_on_c, 9, 46, 0
11, 300792, Note_on_c, 9, 75, 0
11, 300792, Note_on_c, 9, 69, 0
11, 300984, Note_on_c, 9, 80, 46
11, 301080, Note_on_c, 9, 80, 0
11, 301080, Note_on_c, 9, 69, 49
11, 301080, Note_on_c, 9, 75, 46
11, 301080, Note_on_c, 9, 46, 90
11, 301176, Note_on_c, 9, 75, 0
11, 301176, Note_on_c, 9, 69, 0
11, 301272, Note_on_c, 9, 46, 0
11, 301272, Note_on_c, 9, 80, 38
11, 301368, Note_on_c, 9, 80, 0
11, 301368, Note_on_c, 9, 80, 45
11, 301464, Note_on_c, 9, 80, 0
11, 301464, Note_on_c, 9, 46, 90
11, 301464, Note_on_c, 9, 69, 45
11, 301464, Note_on_c, 9, 75, 43
11, 301560, Note_on_c, 9, 75, 0
11, 301560, Note_on_c, 9, 69, 0
11, 301656, Note_on_c, 9, 46, 0
11, 301656, Note_on_c, 9, 80, 37
11, 301752, Note_on_c, 9, 80, 0
11, 301752, Note_on_c, 9, 80, 43
11, 301848, Note_on_c, 9, 80, 0
11, 301848, Note_on_c, 9, 69, 41
11, 301848, Note_on_c, 9, 75, 57
11, 301848, Note_on_c, 9, 46, 90
11, 301944, Note_on_c, 9, 46, 0
11, 301944, Note_on_c, 9, 75, 0
11, 301944, Note_on_c, 9, 69, 0
11, 302040, Note_on_c, 9, 80, 25
11, 302041, Note_on_c, 9, 80, 0
11, 302136, Note_on_c, 9, 80, 45
11, 302232, Note_on_c, 9, 80, 0
11, 302232, Note_on_c, 9, 69, 54
11, 302232, Note_on_c, 9, 75, 67
11, 302232, Note_on_c, 9, 46, 90
11, 302328, Note_on_c, 9, 46, 0
11, 302328, Note_on_c, 9, 75, 0
11, 302328, Note_on_c, 9, 69, 0
11, 302424, Note_on_c, 9, 80, 36
11, 302520, Note_on_c, 9, 80, 0
11, 302520, Note_on_c, 9, 80, 27
11, 302616, Note_on_c, 9, 80, 0
11, 302616, Note_on_c, 9, 46, 90
11, 302616, Note_on_c, 9, 69, 44
11, 302616, Note_on_c, 9, 75, 47
11, 302712, Note_on_c, 9, 75, 0
11, 302712, Note_on_c, 9, 69, 0
11, 302808, Note_on_c, 9, 46, 0
11, 302904, Note_on_c, 9, 80, 27
11, 303000, Note_on_c, 9, 80, 0
11, 303000, Note_on_c, 9, 46, 90
11, 303000, Note_on_c, 9, 69, 47
11, 303000, Note_on_c, 9, 75, 43
11, 303096, Note_on_c, 9, 75, 0
11, 303096, Note_on_c, 9, 69, 0
11, 303192, Note_on_c, 9, 46, 0
11, 303288, Note_on_c, 9, 80, 34
11, 303384, Note_on_c, 9, 80, 0
11, 303384, Note_on_c, 9, 46, 90
11, 303384, Note_on_c, 9, 69, 49
11, 303384, Note_on_c, 9, 75, 48
11, 303480, Note_on_c, 9, 75, 0
11, 303480, Note_on_c, 9, 69, 0
11, 303480, Note_on_c, 9, 46, 0
11, 303480, Note_on_c, 9, 75, 53
11, 303576, Note_on_c, 9, 75, 0
11, 303672, Note_on_c, 9, 80, 56
11, 303768, Note_on_c, 9, 80, 0
11, 303768, Note_on_c, 9, 46, 90
11, 303768, Note_on_c, 9, 69, 45
11, 303768, Note_on_c, 9, 75, 49
11, 303864, Note_on_c, 9, 75, 0
11, 303864, Note_on_c, 9, 69, 0
11, 303864, Note_on_c, 9, 46, 0
11, 304056, Note_on_c, 9, 80, 46
11, 304152, Note_on_c, 9, 80, 0
11, 304152, Note_on_c, 9, 46, 90
11, 304152, Note_on_c, 9, 69, 41
11, 304152, Note_on_c, 9, 75, 46
11, 304248, Note_on_c, 9, 75, 0
11, 304248, Note_on_c, 9, 69, 0
11, 304344, Note_on_c, 9, 46, 0
11, 304344, Note_on_c, 9, 80, 38
11, 304440, Note_on_c, 9, 80, 0
11, 304440, Note_on_c, 9, 80, 45
11, 304536, Note_on_c, 9, 80, 0
11, 304536, Note_on_c, 9, 46, 90
11, 304536, Note_on_c, 9, 69, 54
11, 304536, Note_on_c, 9, 75, 43
11, 304632, Note_on_c, 9, 75, 0
11, 304632, Note_on_c, 9, 69, 0
11, 304728, Note_on_c, 9, 46, 0
11, 304728, Note_on_c, 9, 80, 37
11, 304824, Note_on_c, 9, 80, 0
11, 304824, Note_on_c, 9, 80, 43
11, 304920, Note_on_c, 9, 80, 0
11, 304920, Note_on_c, 9, 46, 90
11, 304920, Note_on_c, 9, 69, 44
11, 304920, Note_on_c, 9, 75, 57
11, 305016, Note_on_c, 9, 75, 0
11, 305016, Note_on_c, 9, 69, 0
11, 305016, Note_on_c, 9, 46, 0
11, 305112, Note_on_c, 9, 80, 25
11, 305113, Note_on_c, 9, 80, 0
11, 305208, Note_on_c, 9, 80, 45
11, 305304, Note_on_c, 9, 80, 0
11, 305304, Note_on_c, 9, 46, 90
11, 305304, Note_on_c, 9, 69, 47
11, 305304, Note_on_c, 9, 75, 67
11, 305400, Note_on_c, 9, 75, 0
11, 305400, Note_on_c, 9, 69, 0
11, 305400, Note_on_c, 9, 46, 0
11, 305496, Note_on_c, 9, 80, 36
11, 305592, Note_on_c, 9, 80, 0
11, 305592, Note_on_c, 9, 80, 27
11, 305688, Note_on_c, 9, 80, 0
11, 305688, Note_on_c, 9, 46, 90
11, 305688, Note_on_c, 9, 69, 49
11, 305688, Note_on_c, 9, 75, 47
11, 305784, Note_on_c, 9, 75, 0
11, 305784, Note_on_c, 9, 69, 0
11, 305880, Note_on_c, 9, 46, 0
11, 305976, Note_on_c, 9, 80, 27
11, 306072, Note_on_c, 9, 80, 0
11, 306072, Note_on_c, 9, 46, 90
11, 306072, Note_on_c, 9, 69, 45
11, 306072, Note_on_c, 9, 75, 43
11, 306168, Note_on_c, 9, 75, 0
11, 306168, Note_on_c, 9, 69, 0
11, 306264, Note_on_c, 9, 46, 0
11, 306360, Note_on_c, 9, 80, 34
11, 306456, Note_on_c, 9, 80, 0
11, 306456, Note_on_c, 9, 46, 90
11, 306456, Note_on_c, 9, 69, 41
11, 306456, Note_on_c, 9, 75, 48
11, 306552, Note_on_c, 9, 75, 0
11, 306552, Note_on_c, 9, 69, 0
11, 306552, Note_on_c, 9, 46, 0
11, 306552, Note_on_c, 9, 75, 53
11, 306648, Note_on_c, 9, 75, 0
11, 306744, Note_on_c, 9, 80, 56
11, 306840, Note_on_c, 9, 80, 0
11, 306840, Note_on_c, 9, 46, 90
11, 306840, Note_on_c, 9, 69, 54
11, 306840, Note_on_c, 9, 75, 49
11, 306936, Note_on_c, 9, 75, 0
11, 306936, Note_on_c, 9, 69, 0
11, 306936, Note_on_c, 9, 46, 0
11, 307128, Note_on_c, 9, 80, 46
11, 307224, Note_on_c, 9, 80, 0
11, 307224, Note_on_c, 9, 46, 90
11, 307224, Note_on_c, 9, 69, 44
11, 307224, Note_on_c, 9, 75, 46
11, 307320, Note_on_c, 9, 75, 0
11, 307320, Note_on_c, 9, 69, 0
11, 307416, Note_on_c, 9, 46, 0
11, 307416, Note_on_c, 9, 80, 38
11, 307512, Note_on_c, 9, 80, 0
11, 307512, Note_on_c, 9, 80, 45
11, 307608, Note_on_c, 9, 80, 0
11, 307608, Note_on_c, 9, 46, 90
11, 307608, Note_on_c, 9, 69, 47
11, 307608, Note_on_c, 9, 75, 43
11, 307704, Note_on_c, 9, 75, 0
11, 307704, Note_on_c, 9, 69, 0
11, 307800, Note_on_c, 9, 46, 0
11, 307800, Note_on_c, 9, 80, 37
11, 307896, Note_on_c, 9, 80, 0
11, 307896, Note_on_c, 9, 80, 43
11, 307992, Note_on_c, 9, 80, 0
11, 307992, Note_on_c, 9, 46, 90
11, 307992, Note_on_c, 9, 69, 49
11, 307992, Note_on_c, 9, 75, 57
11, 308088, Note_on_c, 9, 75, 0
11, 308088, Note_on_c, 9, 69, 0
11, 308088, Note_on_c, 9, 46, 0
11, 308184, Note_on_c, 9, 80, 25
11, 308185, Note_on_c, 9, 80, 0
11, 308280, Note_on_c, 9, 80, 45
11, 308376, Note_on_c, 9, 80, 0
11, 308376, Note_on_c, 9, 69, 45
11, 308376, Note_on_c, 9, 75, 67
11, 308376, Note_on_c, 9, 46, 90
11, 308472, Note_on_c, 9, 46, 0
11, 308472, Note_on_c, 9, 75, 0
11, 308472, Note_on_c, 9, 69, 0
11, 308568, Note_on_c, 9, 80, 36
11, 308664, Note_on_c, 9, 80, 0
11, 308664, Note_on_c, 9, 80, 27
11, 308760, Note_on_c, 9, 80, 0
11, 308760, Note_on_c, 9, 46, 90
11, 308760, Note_on_c, 9, 69, 41
11, 308760, Note_on_c, 9, 75, 47
11, 308856, Note_on_c, 9, 75, 0
11, 308856, Note_on_c, 9, 69, 0
11, 308952, Note_on_c, 9, 46, 0
11, 309048, Note_on_c, 9, 80, 27
11, 309144, Note_on_c, 9, 80, 0
11, 309144, Note_on_c, 9, 46, 90
11, 309144, Note_on_c, 9, 75, 43
11, 309144, Note_on_c, 9, 69, 54
11, 309240, Note_on_c, 9, 69, 0
11, 309240, Note_on_c, 9, 75, 0
11, 309336, Note_on_c, 9, 46, 0
11, 309432, Note_on_c, 9, 80, 34
11, 309528, Note_on_c, 9, 80, 0
11, 309528, Note_on_c, 9, 46, 90
11, 309528, Note_on_c, 9, 75, 48
11, 309528, Note_on_c, 9, 69, 44
11, 309624, Note_on_c, 9, 69, 0
11, 309624, Note_on_c, 9, 75, 0
11, 309624, Note_on_c, 9, 46, 0
11, 309624, Note_on_c, 9, 75, 53
11, 309720, Note_on_c, 9, 75, 0
11, 309816, Note_on_c, 9, 80, 56
11, 309912, Note_on_c, 9, 80, 0
11, 309912, Note_on_c, 9, 69, 47
11, 309912, Note_on_c, 9, 75, 49
11, 309912, Note_on_c, 9, 46, 90
11, 310008, Note_on_c, 9, 46, 0
11, 310008, Note_on_c, 9, 75, 0
11, 310008, Note_on_c, 9, 69, 0
11, 310200, Note_on_c, 9, 80, 46
11, 310296, Note_on_c, 9, 80, 0
11, 310296, Note_on_c, 9, 69, 49
11, 310296, Note_on_c, 9, 75, 46
11, 310296, Note_on_c, 9, 46, 90
11, 310392, Note_on_c, 9, 75, 0
11, 310392, Note_on_c, 9, 69, 0
11, 310488, Note_on_c, 9, 46, 0
11, 310488, Note_on_c, 9, 80, 38
11, 310584, Note_on_c, 9, 80, 0
11, 310584, Note_on_c, 9, 80, 45
11, 310680, Note_on_c, 9, 80, 0
11, 310680, Note_on_c, 9, 46, 90
11, 310680, Note_on_c, 9, 69, 45
11, 310680, Note_on_c, 9, 75, 43
11, 310776, Note_on_c, 9, 75, 0
11, 310776, Note_on_c, 9, 69, 0
11, 310872, Note_on_c, 9, 46, 0
11, 310872, Note_on_c, 9, 80, 37
11, 310968, Note_on_c, 9, 80, 0
11, 310968, Note_on_c, 9, 80, 43
11, 311064, Note_on_c, 9, 80, 0
11, 311064, Note_on_c, 9, 69, 41
11, 311064, Note_on_c, 9, 75, 57
11, 311064, Note_on_c, 9, 46, 90
11, 311152, Note_on_c, 9, 46, 0
11, 311152, Note_on_c, 9, 75, 0
11, 311152, Note_on_c, 9, 69, 0
11, 311248, Note_on_c, 9, 80, 25
11, 311249, Note_on_c, 9, 80, 0
11, 311352, Note_on_c, 9, 80, 45
11, 311440, Note_on_c, 9, 80, 0
11, 311440, Note_on_c, 9, 46, 90
11, 311440, Note_on_c, 9, 75, 67
11, 311440, Note_on_c, 9, 69, 54
11, 311536, Note_on_c, 9, 69, 0
11, 311536, Note_on_c, 9, 75, 0
11, 311536, Note_on_c, 9, 46, 0
11, 311640, Note_on_c, 9, 80, 36
11, 311736, Note_on_c, 9, 80, 0
11, 311736, Note_on_c, 9, 80, 27
11, 311824, Note_on_c, 9, 80, 0
11, 311824, Note_on_c, 9, 69, 44
11, 311824, Note_on_c, 9, 75, 47
11, 311824, Note_on_c, 9, 46, 90
11, 311928, Note_on_c, 9, 75, 0
11, 311928, Note_on_c, 9, 69, 0
11, 312016, Note_on_c, 9, 46, 0
11, 312112, Note_on_c, 9, 80, 27
11, 312208, Note_on_c, 9, 80, 0
11, 312208, Note_on_c, 9, 46, 90
11, 312208, Note_on_c, 9, 69, 47
11, 312208, Note_on_c, 9, 75, 43
11, 312304, Note_on_c, 9, 75, 0
11, 312304, Note_on_c, 9, 69, 0
11, 312408, Note_on_c, 9, 46, 0
11, 312496, Note_on_c, 9, 80, 34
11, 312592, Note_on_c, 9, 80, 0
11, 312592, Note_on_c, 9, 69, 49
11, 312592, Note_on_c, 9, 75, 48
11, 312592, Note_on_c, 9, 46, 90
11, 312688, Note_on_c, 9, 46, 0
11, 312688, Note_on_c, 9, 75, 0
11, 312688, Note_on_c, 9, 69, 0
11, 312688, Note_on_c, 9, 75, 53
11, 312784, Note_on_c, 9, 75, 0
11, 312880, Note_on_c, 9, 80, 56
11, 312976, Note_on_c, 9, 80, 0
11, 312976, Note_on_c, 9, 46, 90
11, 312976, Note_on_c, 9, 75, 49
11, 312976, Note_on_c, 9, 69, 45
11, 313072, Note_on_c, 9, 69, 0
11, 313072, Note_on_c, 9, 75, 0
11, 313072, Note_on_c, 9, 46, 0
11, 313264, Note_on_c, 9, 80, 46
11, 313360, Note_on_c, 9, 80, 0
11, 313360, Note_on_c, 9, 46, 90
11, 313360, Note_on_c, 9, 75, 46
11, 313360, Note_on_c, 9, 69, 41
11, 313456, Note_on_c, 9, 69, 0
11, 313456, Note_on_c, 9, 75, 0
11, 313552, Note_on_c, 9, 46, 0
11, 313552, Note_on_c, 9, 80, 38
11, 313648, Note_on_c, 9, 80, 0
11, 313648, Note_on_c, 9, 80, 45
11, 313744, Note_on_c, 9, 80, 0
11, 313744, Note_on_c, 9, 46, 90
11, 313744, Note_on_c, 9, 69, 54
11, 313744, Note_on_c, 9, 75, 43
11, 313840, Note_on_c, 9, 75, 0
11, 313840, Note_on_c, 9, 69, 0
11, 313936, Note_on_c, 9, 46, 0
11, 313936, Note_on_c, 9, 80, 37
11, 314032, Note_on_c, 9, 80, 0
11, 314032, Note_on_c, 9, 80, 43
11, 314128, Note_on_c, 9, 80, 0
11, 314128, Note_on_c, 9, 46, 90
11, 314128, Note_on_c, 9, 69, 44
11, 314128, Note_on_c, 9, 75, 57
11, 314224, Note_on_c, 9, 75, 0
11, 314224, Note_on_c, 9, 69, 0
11, 314224, Note_on_c, 9, 46, 0
11, 314320, Note_on_c, 9, 80, 25
11, 314321, Note_on_c, 9, 80, 0
11, 314416, Note_on_c, 9, 80, 45
11, 314512, Note_on_c, 9, 80, 0
11, 314512, Note_on_c, 9, 46, 90
11, 314512, Note_on_c, 9, 69, 47
11, 314512, Note_on_c, 9, 75, 67
11, 314608, Note_on_c, 9, 75, 0
11, 314608, Note_on_c, 9, 69, 0
11, 314608, Note_on_c, 9, 46, 0
11, 314704, Note_on_c, 9, 80, 36
11, 314800, Note_on_c, 9, 80, 0
11, 314800, Note_on_c, 9, 80, 27
11, 314896, Note_on_c, 9, 80, 0
11, 314896, Note_on_c, 9, 46, 90
11, 314896, Note_on_c, 9, 69, 49
11, 314896, Note_on_c, 9, 75, 47
11, 314992, Note_on_c, 9, 75, 0
11, 314992, Note_on_c, 9, 69, 0
11, 315088, Note_on_c, 9, 46, 0
11, 315184, Note_on_c, 9, 80, 27
11, 315280, Note_on_c, 9, 80, 0
11, 315280, Note_on_c, 9, 46, 90
11, 315280, Note_on_c, 9, 69, 45
11, 315280, Note_on_c, 9, 75, 43
11, 315376, Note_on_c, 9, 75, 0
11, 315376, Note_on_c, 9, 69, 0
11, 315472, Note_on_c, 9, 46, 0
11, 315568, Note_on_c, 9, 80, 34
11, 315664, Note_on_c, 9, 80, 0
11, 315664, Note_on_c, 9, 46, 90
11, 315664, Note_on_c, 9, 69, 41
11, 315664, Note_on_c, 9, 75, 48
11, 315760, Note_on_c, 9, 75, 0
11, 315760, Note_on_c, 9, 69, 0
11, 315760, Note_on_c, 9, 46, 0
11, 315760, Note_on_c, 9, 75, 53
11, 315856, Note_on_c, 9, 75, 0
11, 315952, Note_on_c, 9, 80, 56
11, 316048, Note_on_c, 9, 80, 0
11, 316048, Note_on_c, 9, 46, 90
11, 316048, Note_on_c, 9, 69, 54
11, 316048, Note_on_c, 9, 75, 49
11, 316144, Note_on_c, 9, 75, 0
11, 316144, Note_on_c, 9, 69, 0
11, 316144, Note_on_c, 9, 46, 0
11, 316336, Note_on_c, 9, 80, 46
11, 316432, Note_on_c, 9, 80, 0
11, 316432, Note_on_c, 9, 46, 90
11, 316432, Note_on_c, 9, 69, 44
11, 316432, Note_on_c, 9, 75, 46
11, 316528, Note_on_c, 9, 75, 0
11, 316528, Note_on_c, 9, 69, 0
11, 316624, Note_on_c, 9, 46, 0
11, 316624, Note_on_c, 9, 80, 38
11, 316720, Note_on_c, 9, 80, 0
11, 316720, Note_on_c, 9, 80, 45
11, 316816, Note_on_c, 9, 80, 0
11, 316816, Note_on_c, 9, 46, 90
11, 316816, Note_on_c, 9, 69, 47
11, 316816, Note_on_c, 9, 75, 43
11, 316912, Note_on_c, 9, 75, 0
11, 316912, Note_on_c, 9, 69, 0
11, 317008, Note_on_c, 9, 46, 0
11, 317008, Note_on_c, 9, 80, 37
11, 317104, Note_on_c, 9, 80, 0
11, 317104, Note_on_c, 9, 80, 43
11, 317200, Note_on_c, 9, 80, 0
11, 317200, Note_on_c, 9, 46, 90
11, 317200, Note_on_c, 9, 69, 49
11, 317200, Note_on_c, 9, 75, 57
11, 317296, Note_on_c, 9, 75, 0
11, 317296, Note_on_c, 9, 69, 0
11, 317296, Note_on_c, 9, 46, 0
11, 317392, Note_on_c, 9, 80, 25
11, 317393, Note_on_c, 9, 80, 0
11, 317488, Note_on_c, 9, 80, 45
11, 317584, Note_on_c, 9, 80, 0
11, 317584, Note_on_c, 9, 46, 90
11, 317584, Note_on_c, 9, 69, 45
11, 317584, Note_on_c, 9, 75, 67
11, 317680, Note_on_c, 9, 75, 0
11, 317680, Note_on_c, 9, 69, 0
11, 317680, Note_on_c, 9, 46, 0
11, 317776, Note_on_c, 9, 80, 36
11, 317872, Note_on_c, 9, 80, 0
11, 317872, Note_on_c, 9, 80, 27
11, 317968, Note_on_c, 9, 80, 0
11, 317968, Note_on_c, 9, 46, 90
11, 317968, Note_on_c, 9, 69, 41
11, 317968, Note_on_c, 9, 75, 47
11, 318064, Note_on_c, 9, 75, 0
11, 318064, Note_on_c, 9, 69, 0
11, 318160, Note_on_c, 9, 46, 0
11, 318256, Note_on_c, 9, 80, 27
11, 318352, Note_on_c, 9, 80, 0
11, 318352, Note_on_c, 9, 46, 90
11, 318352, Note_on_c, 9, 69, 54
11, 318352, Note_on_c, 9, 75, 43
11, 318448, Note_on_c, 9, 75, 0
11, 318448, Note_on_c, 9, 69, 0
11, 318544, Note_on_c, 9, 46, 0
11, 318640, Note_on_c, 9, 80, 34
11, 318736, Note_on_c, 9, 80, 0
11, 318736, Note_on_c, 9, 46, 90
11, 318736, Note_on_c, 9, 69, 44
11, 318736, Note_on_c, 9, 75, 48
11, 318832, Note_on_c, 9, 75, 0
11, 318832, Note_on_c, 9, 69, 0
11, 318832, Note_on_c, 9, 46, 0
11, 318832, Note_on_c, 9, 75, 53
11, 318928, Note_on_c, 9, 75, 0
11, 319024, Note_on_c, 9, 80, 56
11, 319120, Note_on_c, 9, 80, 0
11, 319120, Note_on_c, 9, 69, 47
11, 319120, Note_on_c, 9, 75, 49
11, 319120, Note_on_c, 9, 46, 90
11, 319216, Note_on_c, 9, 46, 0
11, 319216, Note_on_c, 9, 75, 0
11, 319216, Note_on_c, 9, 69, 0
11, 319408, Note_on_c, 9, 80, 46
11, 319504, Note_on_c, 9, 80, 0
11, 319504, Note_on_c, 9, 46, 90
11, 319504, Note_on_c, 9, 75, 46
11, 319504, Note_on_c, 9, 69, 49
11, 319600, Note_on_c, 9, 69, 0
11, 319600, Note_on_c, 9, 75, 0
11, 319696, Note_on_c, 9, 46, 0
11, 319696, Note_on_c, 9, 80, 38
11, 319792, Note_on_c, 9, 80, 0
11, 319792, Note_on_c, 9, 80, 45
11, 319888, Note_on_c, 9, 80, 0
11, 319888, Note_on_c, 9, 69, 45
11, 319888, Note_on_c, 9, 75, 43
11, 319888, Note_on_c, 9, 46, 90
11, 319984, Note_on_c, 9, 75, 0
11, 319984, Note_on_c, 9, 69, 0
11, 320080, Note_on_c, 9, 46, 0
11, 320080, Note_on_c, 9, 80, 37
11, 320176, Note_on_c, 9, 80, 0
11, 320176, Note_on_c, 9, 80, 43
11, 320272, Note_on_c, 9, 80, 0
11, 320272, Note_on_c, 9, 46, 90
11, 320272, Note_on_c, 9, 75, 57
11, 320272, Note_on_c, 9, 69, 41
11, 320368, Note_on_c, 9, 69, 0
11, 320368, Note_on_c, 9, 75, 0
11, 320368, Note_on_c, 9, 46, 0
11, 320464, Note_on_c, 9, 80, 25
11, 320465, Note_on_c, 9, 80, 0
11, 320560, Note_on_c, 9, 80, 45
11, 320656, Note_on_c, 9, 80, 0
11, 320656, Note_on_c, 9, 46, 90
11, 320656, Note_on_c, 9, 75, 67
11, 320656, Note_on_c, 9, 69, 54
11, 320752, Note_on_c, 9, 69, 0
11, 320752, Note_on_c, 9, 75, 0
11, 320752, Note_on_c, 9, 46, 0
11, 320848, Note_on_c, 9, 80, 36
11, 320944, Note_on_c, 9, 80, 0
11, 320944, Note_on_c, 9, 80, 27
11, 321040, Note_on_c, 9, 80, 0
11, 321040, Note_on_c, 9, 69, 44
11, 321040, Note_on_c, 9, 75, 47
11, 321040, Note_on_c, 9, 46, 90
11, 321136, Note_on_c, 9, 75, 0
11, 321136, Note_on_c, 9, 69, 0
11, 321232, Note_on_c, 9, 46, 0
11, 321328, Note_on_c, 9, 80, 27
11, 321424, Note_on_c, 9, 80, 0
11, 321424, Note_on_c, 9, 46, 90
11, 321424, Note_on_c, 9, 69, 47
11, 321424, Note_on_c, 9, 75, 43
11, 321520, Note_on_c, 9, 75, 0
11, 321520, Note_on_c, 9, 69, 0
11, 321616, Note_on_c, 9, 46, 0
11, 321712, Note_on_c, 9, 80, 34
11, 321808, Note_on_c, 9, 80, 0
11, 321808, Note_on_c, 9, 69, 49
11, 321808, Note_on_c, 9, 75, 48
11, 321808, Note_on_c, 9, 46, 90
11, 321904, Note_on_c, 9, 46, 0
11, 321904, Note_on_c, 9, 75, 0
11, 321904, Note_on_c, 9, 69, 0
11, 321904, Note_on_c, 9, 75, 53
11, 322000, Note_on_c, 9, 75, 0
11, 322096, Note_on_c, 9, 80, 56
11, 322192, Note_on_c, 9, 80, 0
11, 322192, Note_on_c, 9, 46, 90
11, 322192, Note_on_c, 9, 69, 45
11, 322192, Note_on_c, 9, 75, 49
11, 322288, Note_on_c, 9, 75, 0
11, 322288, Note_on_c, 9, 69, 0
11, 322288, Note_on_c, 9, 46, 0
11, 322480, Note_on_c, 9, 80, 46
11, 322576, Note_on_c, 9, 80, 0
11, 322576, Note_on_c, 9, 46, 90
11, 322576, Note_on_c, 9, 69, 41
11, 322576, Note_on_c, 9, 75, 46
11, 322672, Note_on_c, 9, 75, 0
11, 322672, Note_on_c, 9, 69, 0
11, 322768, Note_on_c, 9, 46, 0
11, 322768, Note_on_c, 9, 80, 38
11, 322864, Note_on_c, 9, 80, 0
11, 322864, Note_on_c, 9, 80, 45
11, 322960, Note_on_c, 9, 80, 0
11, 322960, Note_on_c, 9, 69, 54
11, 322960, Note_on_c, 9, 75, 43
11, 322960, Note_on_c, 9, 46, 90
11, 323056, Note_on_c, 9, 75, 0
11, 323056, Note_on_c, 9, 69, 0
11, 323152, Note_on_c, 9, 46, 0
11, 323152, Note_on_c, 9, 80, 37
11, 323248, Note_on_c, 9, 80, 0
11, 323248, Note_on_c, 9, 80, 43
11, 323344, Note_on_c, 9, 80, 0
11, 323344, Note_on_c, 9, 69, 44
11, 323344, Note_on_c, 9, 75, 57
11, 323344, Note_on_c, 9, 46, 90
11, 323440, Note_on_c, 9, 46, 0
11, 323440, Note_on_c, 9, 75, 0
11, 323440, Note_on_c, 9, 69, 0
11, 323536, Note_on_c, 9, 80, 25
11, 323537, Note_on_c, 9, 80, 0
11, 323632, Note_on_c, 9, 80, 45
11, 323728, Note_on_c, 9, 80, 0
11, 323728, Note_on_c, 9, 46, 91
11, 323728, Note_on_c, 9, 69, 47
11, 323728, Note_on_c, 9, 75, 67
11, 323824, Note_on_c, 9, 75, 0
11, 323824, Note_on_c, 9, 69, 0
11, 323824, Note_on_c, 9, 46, 0
11, 323928, Control_c, 9, 123, 0
11, 323928, End_track
0, 0, End_of_file
