0, 0, Header, 0, 1, 120
1, 0, Start_track
1, 0, Title_t, "Detour Ahead"
1, 0, Text_t, "Doug McKenzie dougmck@pipeline.com.au\012"
1, 0, Time_signature, 4, 2, 24, 8
1, 0, Key_signature, 0, "major"
1, 0, Tempo, 845070
1, 0, Control_c, 0, 64, 127
1, 0, Control_c, 0, 64, 0
1, 0, Control_c, 0, 64, 127
1, 10, Control_c, 0, 64, 0
1, 10, Note_on_c, 0, 74, 35
1, 11, Note_on_c, 0, 76, 45
1, 12, Note_on_c, 0, 67, 30
1, 13, Note_on_c, 0, 62, 33
1, 14, Note_on_c, 0, 64, 27
1, 19, Note_on_c, 0, 74, 0
1, 24, Control_c, 0, 64, 127
1, 42, Note_on_c, 0, 76, 0
1, 45, Note_on_c, 0, 79, 44
1, 61, Note_on_c, 0, 79, 0
1, 78, Note_on_c, 0, 64, 0
1, 84, Note_on_c, 0, 67, 0
1, 133, Note_on_c, 0, 64, 28
1, 133, Note_on_c, 0, 67, 27
1, 144, Note_on_c, 0, 67, 0
1, 149, Note_on_c, 0, 64, 0
1, 153, Note_on_c, 0, 62, 0
1, 173, Note_on_c, 0, 99, 70
1, 192, Note_on_c, 0, 99, 0
1, 198, Note_on_c, 0, 85, 62
1, 210, Note_on_c, 0, 85, 0
1, 251, Note_on_c, 0, 63, 20
1, 251, Note_on_c, 0, 52, 31
1, 252, Note_on_c, 0, 58, 33
1, 291, Note_on_c, 0, 52, 0
1, 295, Note_on_c, 0, 63, 0
1, 296, Note_on_c, 0, 58, 0
1, 372, Note_on_c, 0, 58, 25
1, 372, Note_on_c, 0, 48, 40
1, 384, Note_on_c, 0, 48, 0
1, 390, Note_on_c, 0, 58, 0
1, 495, Note_on_c, 0, 63, 37
1, 497, Note_on_c, 0, 83, 101
1, 497, Note_on_c, 0, 67, 55
1, 498, Note_on_c, 0, 69, 61
1, 499, Note_on_c, 0, 74, 66
1, 504, Control_c, 0, 64, 0
1, 525, Control_c, 0, 64, 127
1, 570, Note_on_c, 0, 74, 0
1, 572, Note_on_c, 0, 79, 36
1, 580, Note_on_c, 0, 69, 0
1, 613, Note_on_c, 0, 74, 26
1, 617, Note_on_c, 0, 69, 26
1, 631, Note_on_c, 0, 74, 0
1, 640, Note_on_c, 0, 69, 0
1, 645, Note_on_c, 0, 67, 0
1, 656, Note_on_c, 0, 63, 0
1, 733, Note_on_c, 0, 67, 27
1, 735, Note_on_c, 0, 63, 15
1, 737, Note_on_c, 0, 57, 22
1, 740, Control_c, 0, 64, 0
1, 750, Note_on_c, 0, 62, 1
1, 754, Control_c, 0, 64, 127
1, 786, Note_on_c, 0, 83, 0
1, 786, Note_on_c, 0, 79, 0
1, 801, Note_on_c, 0, 67, 0
1, 803, Note_on_c, 0, 63, 0
1, 803, Note_on_c, 0, 62, 0
1, 847, Note_on_c, 0, 63, 21
1, 848, Note_on_c, 0, 67, 25
1, 852, Note_on_c, 0, 62, 15
1, 859, Note_on_c, 0, 67, 0
1, 864, Note_on_c, 0, 62, 0
1, 864, Note_on_c, 0, 63, 0
1, 878, Note_on_c, 0, 57, 0
1, 949, Note_on_c, 0, 67, 62
1, 962, Note_on_c, 0, 67, 0
1, 970, Note_on_c, 0, 69, 75
1, 971, Note_on_c, 0, 64, 74
1, 973, Note_on_c, 0, 53, 57
1, 978, Control_c, 0, 64, 0
1, 993, Control_c, 0, 64, 127
1, 1000, Note_on_c, 0, 69, 0
1, 1001, Note_on_c, 0, 64, 0
1, 1011, Note_on_c, 0, 72, 80
1, 1051, Note_on_c, 0, 53, 0
1, 1057, Note_on_c, 0, 72, 0
1, 1085, Note_on_c, 0, 71, 66
1, 1089, Note_on_c, 0, 67, 66
1, 1090, Note_on_c, 0, 52, 48
1, 1093, Note_on_c, 0, 62, 51
1, 1094, Control_c, 0, 64, 0
1, 1116, Control_c, 0, 64, 127
1, 1143, Note_on_c, 0, 52, 0
1, 1155, Note_on_c, 0, 67, 0
1, 1175, Note_on_c, 0, 62, 0
1, 1182, Note_on_c, 0, 71, 0
1, 1182, Note_on_c, 0, 67, 47
1, 1201, Note_on_c, 0, 67, 0
1, 1210, Note_on_c, 0, 52, 30
1, 1211, Note_on_c, 0, 45, 24
1, 1212, Note_on_c, 0, 69, 51
1, 1212, Note_on_c, 0, 57, 27
1, 1213, Note_on_c, 0, 64, 34
1, 1213, Note_on_c, 0, 60, 22
1, 1213, Control_c, 0, 64, 0
1, 1230, Note_on_c, 0, 60, 0
1, 1233, Note_on_c, 0, 64, 0
1, 1237, Note_on_c, 0, 67, 33
1, 1244, Note_on_c, 0, 57, 0
1, 1246, Control_c, 0, 64, 127
1, 1250, Note_on_c, 0, 69, 0
1, 1253, Note_on_c, 0, 67, 0
1, 1260, Note_on_c, 0, 64, 40
1, 1262, Note_on_c, 0, 60, 35
1, 1297, Note_on_c, 0, 60, 0
1, 1313, Note_on_c, 0, 64, 0
1, 1337, Note_on_c, 0, 57, 25
1, 1356, Note_on_c, 0, 45, 0
1, 1358, Note_on_c, 0, 52, 0
1, 1364, Note_on_c, 0, 57, 0
1, 1424, Note_on_c, 0, 88, 88
1, 1443, Note_on_c, 0, 88, 0
1, 1459, Note_on_c, 0, 54, 39
1, 1461, Note_on_c, 0, 86, 66
1, 1461, Note_on_c, 0, 60, 20
1, 1464, Note_on_c, 0, 64, 40
1, 1464, Note_on_c, 0, 83, 54
1, 1467, Control_c, 0, 64, 0
1, 1468, Note_on_c, 0, 80, 42
1, 1472, Note_on_c, 0, 76, 33
1, 1488, Note_on_c, 0, 86, 0
1, 1488, Control_c, 0, 64, 127
1, 1501, Note_on_c, 0, 83, 0
1, 1505, Note_on_c, 0, 88, 55
1, 1524, Note_on_c, 0, 88, 0
1, 1526, Note_on_c, 0, 64, 0
1, 1528, Note_on_c, 0, 76, 0
1, 1531, Note_on_c, 0, 80, 0
1, 1536, Note_on_c, 0, 86, 35
1, 1550, Note_on_c, 0, 60, 0
1, 1553, Note_on_c, 0, 86, 0
1, 1568, Note_on_c, 0, 91, 55
1, 1572, Note_on_c, 0, 60, 27
1, 1574, Note_on_c, 0, 91, 0
1, 1574, Note_on_c, 0, 64, 20
1, 1630, Note_on_c, 0, 54, 0
1, 1636, Note_on_c, 0, 60, 0
1, 1640, Note_on_c, 0, 64, 0
1, 1689, Note_on_c, 0, 65, 46
1, 1689, Note_on_c, 0, 60, 38
1, 1691, Note_on_c, 0, 55, 29
1, 1692, Note_on_c, 0, 57, 37
1, 1693, Control_c, 0, 64, 0
1, 1703, Control_c, 0, 64, 127
1, 1710, Note_on_c, 0, 65, 0
1, 1713, Note_on_c, 0, 60, 0
1, 1717, Note_on_c, 0, 55, 0
1, 1717, Note_on_c, 0, 57, 0
1, 1749, Note_on_c, 0, 43, 58
1, 1809, Note_on_c, 0, 64, 52
1, 1809, Note_on_c, 0, 53, 69
1, 1810, Note_on_c, 0, 56, 60
1, 1810, Note_on_c, 0, 59, 64
1, 1812, Control_c, 0, 64, 0
1, 1823, Control_c, 0, 64, 127
1, 1852, Note_on_c, 0, 43, 0
1, 1871, Note_on_c, 0, 43, 54
1, 1883, Note_on_c, 0, 53, 0
1, 1888, Note_on_c, 0, 59, 0
1, 1894, Note_on_c, 0, 56, 0
1, 1897, Note_on_c, 0, 64, 0
1, 1929, Note_on_c, 0, 58, 52
1, 1931, Note_on_c, 0, 62, 60
1, 1932, Note_on_c, 0, 67, 62
1, 1932, Note_on_c, 0, 57, 48
1, 1934, Control_c, 0, 64, 0
1, 1934, Note_on_c, 0, 53, 40
1, 1952, Control_c, 0, 64, 127
1, 1956, Note_on_c, 0, 43, 0
1, 1967, Note_on_c, 0, 53, 0
1, 1968, Note_on_c, 0, 57, 0
1, 1978, Note_on_c, 0, 58, 0
1, 1979, Note_on_c, 0, 62, 0
1, 1997, Note_on_c, 0, 67, 0
1, 2052, Note_on_c, 0, 62, 32
1, 2054, Note_on_c, 0, 58, 25
1, 2054, Note_on_c, 0, 60, 27
1, 2079, Note_on_c, 0, 62, 0
1, 2080, Note_on_c, 0, 60, 0
1, 2092, Note_on_c, 0, 58, 0
1, 2094, Note_on_c, 0, 69, 60
1, 2117, Note_on_c, 0, 69, 0
1, 2129, Note_on_c, 0, 67, 58
1, 2142, Note_on_c, 0, 67, 0
1, 2166, Note_on_c, 0, 61, 77
1, 2166, Note_on_c, 0, 70, 69
1, 2166, Note_on_c, 0, 66, 68
1, 2168, Control_c, 0, 64, 0
1, 2168, Note_on_c, 0, 56, 55
1, 2186, Control_c, 0, 64, 127
1, 2215, Note_on_c, 0, 66, 0
1, 2217, Note_on_c, 0, 70, 0
1, 2220, Note_on_c, 0, 61, 0
1, 2235, Note_on_c, 0, 68, 51
1, 2236, Note_on_c, 0, 59, 47
1, 2236, Note_on_c, 0, 64, 53
1, 2239, Note_on_c, 0, 54, 35
1, 2241, Note_on_c, 0, 56, 0
1, 2243, Control_c, 0, 64, 0
1, 2259, Control_c, 0, 64, 127
1, 2264, Note_on_c, 0, 64, 0
1, 2270, Note_on_c, 0, 68, 0
1, 2271, Note_on_c, 0, 59, 0
1, 2296, Note_on_c, 0, 54, 0
1, 2331, Note_on_c, 0, 67, 58
1, 2331, Note_on_c, 0, 57, 54
1, 2332, Note_on_c, 0, 62, 54
1, 2333, Note_on_c, 0, 52, 35
1, 2342, Control_c, 0, 64, 0
1, 2344, Note_on_c, 0, 67, 0
1, 2346, Note_on_c, 0, 62, 0
1, 2349, Note_on_c, 0, 57, 0
1, 2357, Note_on_c, 0, 52, 0
1, 2360, Control_c, 0, 64, 127
1, 2402, Note_on_c, 0, 60, 44
1, 2403, Note_on_c, 0, 57, 49
1, 2403, Control_c, 0, 64, 0
1, 2403, Note_on_c, 0, 41, 44
1, 2403, Note_on_c, 0, 52, 42
1, 2417, Note_on_c, 0, 52, 0
1, 2422, Note_on_c, 0, 57, 0
1, 2423, Control_c, 0, 64, 127
1, 2426, Note_on_c, 0, 60, 0
1, 2439, Note_on_c, 0, 48, 54
1, 2445, Note_on_c, 0, 41, 0
1, 2469, Note_on_c, 0, 57, 57
1, 2498, Note_on_c, 0, 60, 64
1, 2511, Note_on_c, 0, 48, 0
1, 2521, Note_on_c, 0, 60, 0
1, 2525, Note_on_c, 0, 67, 74
1, 2526, Note_on_c, 0, 57, 0
1, 2536, Note_on_c, 0, 67, 0
1, 2555, Note_on_c, 0, 72, 85
1, 2571, Note_on_c, 0, 72, 0
1, 2582, Note_on_c, 0, 76, 89
1, 2601, Note_on_c, 0, 76, 0
1, 2610, Note_on_c, 0, 77, 82
1, 2629, Note_on_c, 0, 77, 0
1, 2642, Note_on_c, 0, 79, 74
1, 2644, Note_on_c, 0, 67, 57
1, 2645, Note_on_c, 0, 72, 43
1, 2646, Control_c, 0, 64, 0
1, 2646, Note_on_c, 0, 62, 27
1, 2646, Note_on_c, 0, 56, 39
1, 2646, Note_on_c, 0, 76, 48
1, 2668, Control_c, 0, 64, 127
1, 2728, Note_on_c, 0, 62, 0
1, 2731, Note_on_c, 0, 67, 0
1, 2770, Note_on_c, 0, 76, 0
1, 2771, Note_on_c, 0, 67, 33
1, 2772, Note_on_c, 0, 62, 34
1, 2774, Note_on_c, 0, 79, 0
1, 2776, Note_on_c, 0, 77, 50
1, 2802, Note_on_c, 0, 62, 0
1, 2808, Note_on_c, 0, 67, 0
1, 2809, Note_on_c, 0, 56, 0
1, 2830, Note_on_c, 0, 72, 0
1, 2858, Note_on_c, 0, 77, 54
1, 2878, Note_on_c, 0, 77, 0
1, 2891, Note_on_c, 0, 64, 26
1, 2891, Note_on_c, 0, 62, 30
1, 2892, Note_on_c, 0, 72, 39
1, 2894, Note_on_c, 0, 76, 59
1, 2894, Note_on_c, 0, 67, 17
1, 2896, Note_on_c, 0, 77, 0
1, 2897, Control_c, 0, 64, 0
1, 2920, Control_c, 0, 64, 127
1, 2922, Note_on_c, 0, 67, 0
1, 2946, Note_on_c, 0, 55, 46
1, 2967, Note_on_c, 0, 72, 0
1, 2988, Note_on_c, 0, 64, 0
1, 2994, Note_on_c, 0, 62, 0
1, 3006, Note_on_c, 0, 75, 94
1, 3006, Note_on_c, 0, 64, 48
1, 3007, Note_on_c, 0, 62, 28
1, 3008, Note_on_c, 0, 67, 53
1, 3014, Note_on_c, 0, 76, 0
1, 3024, Note_on_c, 0, 67, 0
1, 3035, Note_on_c, 0, 55, 0
1, 3038, Note_on_c, 0, 75, 0
1, 3049, Note_on_c, 0, 76, 94
1, 3052, Note_on_c, 0, 74, 61
1, 3056, Note_on_c, 0, 74, 0
1, 3071, Note_on_c, 0, 76, 0
1, 3078, Note_on_c, 0, 55, 66
1, 3084, Note_on_c, 0, 64, 0
1, 3084, Note_on_c, 0, 62, 0
1, 3084, Note_on_c, 0, 81, 81
1, 3096, Note_on_c, 0, 81, 0
1, 3126, Note_on_c, 0, 76, 70
1, 3126, Note_on_c, 0, 72, 71
1, 3126, Note_on_c, 0, 67, 70
1, 3129, Note_on_c, 0, 65, 29
1, 3129, Control_c, 0, 64, 0
1, 3136, Note_on_c, 0, 65, 0
1, 3151, Control_c, 0, 64, 127
1, 3212, Note_on_c, 0, 67, 0
1, 3239, Note_on_c, 0, 72, 0
1, 3240, Note_on_c, 0, 58, 59
1, 3244, Note_on_c, 0, 61, 57
1, 3244, Note_on_c, 0, 45, 66
1, 3244, Note_on_c, 0, 64, 69
1, 3251, Note_on_c, 0, 76, 0
1, 3295, Note_on_c, 0, 72, 83
1, 3310, Note_on_c, 0, 55, 0
1, 3328, Note_on_c, 0, 72, 0
1, 3329, Note_on_c, 0, 76, 80
1, 3331, Note_on_c, 0, 64, 0
1, 3332, Note_on_c, 0, 45, 0
1, 3349, Note_on_c, 0, 61, 0
1, 3350, Note_on_c, 0, 76, 0
1, 3360, Note_on_c, 0, 58, 0
1, 3366, Note_on_c, 0, 66, 53
1, 3368, Note_on_c, 0, 72, 55
1, 3368, Note_on_c, 0, 74, 42
1, 3368, Note_on_c, 0, 54, 37
1, 3368, Note_on_c, 0, 60, 40
1, 3369, Note_on_c, 0, 70, 46
1, 3369, Note_on_c, 0, 64, 34
1, 3372, Control_c, 0, 64, 0
1, 3402, Control_c, 0, 64, 127
1, 3434, Note_on_c, 0, 64, 0
1, 3439, Note_on_c, 0, 74, 0
1, 3442, Note_on_c, 0, 72, 0
1, 3442, Note_on_c, 0, 70, 0
1, 3443, Note_on_c, 0, 66, 0
1, 3447, Note_on_c, 0, 60, 0
1, 3496, Note_on_c, 0, 66, 44
1, 3496, Note_on_c, 0, 69, 38
1, 3500, Note_on_c, 0, 60, 15
1, 3502, Note_on_c, 0, 54, 0
1, 3532, Note_on_c, 0, 55, 47
1, 3559, Control_c, 0, 64, 0
1, 3569, Note_on_c, 0, 66, 0
1, 3570, Note_on_c, 0, 43, 53
1, 3573, Note_on_c, 0, 55, 0
1, 3573, Control_c, 0, 64, 127
1, 3574, Note_on_c, 0, 69, 0
1, 3586, Note_on_c, 0, 60, 0
1, 3612, Note_on_c, 0, 59, 49
1, 3612, Note_on_c, 0, 63, 44
1, 3614, Note_on_c, 0, 67, 35
1, 3616, Note_on_c, 0, 53, 30
1, 3620, Control_c, 0, 64, 0
1, 3630, Note_on_c, 0, 43, 0
1, 3630, Control_c, 0, 64, 127
1, 3647, Note_on_c, 0, 59, 0
1, 3648, Note_on_c, 0, 67, 0
1, 3649, Note_on_c, 0, 43, 45
1, 3651, Note_on_c, 0, 63, 0
1, 3653, Note_on_c, 0, 53, 0
1, 3659, Note_on_c, 0, 43, 0
1, 3691, Note_on_c, 0, 63, 62
1, 3692, Note_on_c, 0, 70, 57
1, 3693, Note_on_c, 0, 67, 48
1, 3694, Note_on_c, 0, 59, 56
1, 3695, Note_on_c, 0, 53, 53
1, 3699, Control_c, 0, 64, 0
1, 3716, Control_c, 0, 64, 127
1, 3721, Note_on_c, 0, 53, 0
1, 3736, Note_on_c, 0, 67, 0
1, 3742, Note_on_c, 0, 63, 0
1, 3744, Note_on_c, 0, 59, 0
1, 3754, Note_on_c, 0, 70, 0
1, 3764, Note_on_c, 0, 68, 61
1, 3766, Note_on_c, 0, 59, 51
1, 3766, Note_on_c, 0, 63, 54
1, 3768, Note_on_c, 0, 43, 24
1, 3773, Note_on_c, 0, 43, 0
1, 3807, Note_on_c, 0, 59, 0
1, 3815, Note_on_c, 0, 68, 0
1, 3816, Note_on_c, 0, 63, 0
1, 3843, Control_c, 0, 64, 0
1, 3843, Note_on_c, 0, 36, 35
1, 3844, Note_on_c, 0, 64, 46
1, 3846, Note_on_c, 0, 62, 38
1, 3847, Note_on_c, 0, 57, 27
1, 3856, Note_on_c, 0, 57, 0
1, 3865, Note_on_c, 0, 36, 0
1, 3865, Control_c, 0, 64, 127
1, 3874, Note_on_c, 0, 62, 0
1, 3874, Note_on_c, 0, 64, 0
1, 3879, Note_on_c, 0, 67, 53
1, 3894, Note_on_c, 0, 67, 0
1, 3968, Note_on_c, 0, 57, 25
1, 3970, Note_on_c, 0, 52, 22
1, 3977, Note_on_c, 0, 57, 0
1, 3978, Note_on_c, 0, 52, 0
1, 3984, Note_on_c, 0, 98, 49
1, 3985, Note_on_c, 0, 100, 39
1, 3992, Note_on_c, 0, 100, 0
1, 4003, Note_on_c, 0, 98, 0
1, 4004, Note_on_c, 0, 95, 71
1, 4035, Note_on_c, 0, 95, 0
1, 4035, Note_on_c, 0, 91, 63
1, 4057, Note_on_c, 0, 91, 0
1, 4062, Note_on_c, 0, 96, 79
1, 4081, Note_on_c, 0, 96, 0
1, 4086, Note_on_c, 0, 90, 68
1, 4086, Note_on_c, 0, 63, 35
1, 4087, Note_on_c, 0, 58, 35
1, 4089, Note_on_c, 0, 52, 36
1, 4093, Control_c, 0, 64, 0
1, 4110, Note_on_c, 0, 90, 0
1, 4113, Note_on_c, 0, 88, 52
1, 4131, Note_on_c, 0, 88, 0
1, 4135, Control_c, 0, 64, 127
1, 4141, Note_on_c, 0, 85, 44
1, 4155, Note_on_c, 0, 52, 0
1, 4159, Note_on_c, 0, 58, 0
1, 4165, Note_on_c, 0, 63, 0
1, 4212, Note_on_c, 0, 69, 37
1, 4214, Note_on_c, 0, 64, 43
1, 4215, Note_on_c, 0, 58, 23
1, 4244, Note_on_c, 0, 85, 0
1, 4267, Note_on_c, 0, 64, 0
1, 4268, Note_on_c, 0, 69, 0
1, 4281, Note_on_c, 0, 58, 0
1, 4332, Note_on_c, 0, 67, 35
1, 4332, Note_on_c, 0, 63, 23
1, 4334, Note_on_c, 0, 62, 27
1, 4335, Note_on_c, 0, 57, 38
1, 4336, Control_c, 0, 64, 0
1, 4359, Control_c, 0, 64, 127
1, 4375, Note_on_c, 0, 86, 68
1, 4379, Note_on_c, 0, 79, 74
1, 4399, Note_on_c, 0, 62, 0
1, 4401, Note_on_c, 0, 67, 0
1, 4405, Note_on_c, 0, 86, 0
1, 4407, Note_on_c, 0, 79, 0
1, 4412, Note_on_c, 0, 63, 0
1, 4422, Note_on_c, 0, 83, 72
1, 4428, Note_on_c, 0, 74, 63
1, 4451, Note_on_c, 0, 83, 0
1, 4453, Note_on_c, 0, 67, 44
1, 4453, Note_on_c, 0, 62, 22
1, 4454, Note_on_c, 0, 63, 33
1, 4458, Note_on_c, 0, 74, 0
1, 4478, Note_on_c, 0, 67, 0
1, 4479, Note_on_c, 0, 79, 56
1, 4486, Note_on_c, 0, 71, 49
1, 4501, Note_on_c, 0, 62, 0
1, 4506, Note_on_c, 0, 63, 0
1, 4507, Note_on_c, 0, 79, 0
1, 4512, Note_on_c, 0, 71, 0
1, 4562, Note_on_c, 0, 57, 0
1, 4641, Note_on_c, 0, 47, 43
1, 4690, Note_on_c, 0, 57, 34
1, 4691, Note_on_c, 0, 62, 48
1, 4692, Note_on_c, 0, 59, 44
1, 4693, Control_c, 0, 64, 0
1, 4704, Control_c, 0, 64, 127
1, 4717, Note_on_c, 0, 59, 0
1, 4718, Note_on_c, 0, 63, 67
1, 4719, Note_on_c, 0, 47, 0
1, 4720, Note_on_c, 0, 57, 0
1, 4727, Note_on_c, 0, 62, 0
1, 4740, Note_on_c, 0, 63, 0
1, 4745, Note_on_c, 0, 67, 72
1, 4756, Note_on_c, 0, 67, 0
1, 4774, Note_on_c, 0, 74, 54
1, 4779, Note_on_c, 0, 74, 0
1, 4805, Note_on_c, 0, 69, 58
1, 4805, Note_on_c, 0, 60, 55
1, 4806, Note_on_c, 0, 64, 61
1, 4806, Note_on_c, 0, 41, 57
1, 4812, Control_c, 0, 64, 0
1, 4830, Control_c, 0, 64, 127
1, 4843, Note_on_c, 0, 60, 0
1, 4845, Note_on_c, 0, 69, 0
1, 4845, Note_on_c, 0, 64, 0
1, 4860, Note_on_c, 0, 41, 0
1, 4876, Note_on_c, 0, 72, 85
1, 4894, Note_on_c, 0, 72, 0
1, 4926, Note_on_c, 0, 40, 47
1, 4927, Note_on_c, 0, 71, 63
1, 4928, Note_on_c, 0, 67, 58
1, 4928, Note_on_c, 0, 62, 56
1, 4931, Control_c, 0, 64, 0
1, 4932, Note_on_c, 0, 55, 31
1, 4952, Control_c, 0, 64, 127
1, 4961, Note_on_c, 0, 40, 0
1, 4971, Note_on_c, 0, 67, 0
1, 4975, Note_on_c, 0, 55, 0
1, 4997, Note_on_c, 0, 71, 0
1, 4998, Note_on_c, 0, 67, 64
1, 5003, Note_on_c, 0, 62, 0
1, 5016, Note_on_c, 0, 67, 0
1, 5040, Note_on_c, 0, 60, 50
1, 5046, Note_on_c, 0, 69, 84
1, 5046, Note_on_c, 0, 65, 82
1, 5047, Note_on_c, 0, 61, 75
1, 5050, Note_on_c, 0, 57, 69
1, 5053, Control_c, 0, 64, 0
1, 5071, Note_on_c, 0, 57, 0
1, 5088, Control_c, 0, 64, 127
1, 5113, Note_on_c, 0, 39, 77
1, 5113, Control_c, 0, 64, 0
1, 5115, Control_c, 0, 64, 127
1, 5143, Note_on_c, 0, 46, 64
1, 5145, Note_on_c, 0, 39, 0
1, 5160, Note_on_c, 0, 60, 0
1, 5167, Note_on_c, 0, 65, 0
1, 5172, Note_on_c, 0, 61, 0
1, 5177, Note_on_c, 0, 69, 0
1, 5182, Note_on_c, 0, 61, 47
1, 5182, Note_on_c, 0, 55, 53
1, 5182, Note_on_c, 0, 67, 62
1, 5184, Note_on_c, 0, 65, 53
1, 5216, Note_on_c, 0, 65, 0
1, 5238, Note_on_c, 0, 46, 0
1, 5243, Note_on_c, 0, 61, 0
1, 5244, Note_on_c, 0, 55, 0
1, 5255, Note_on_c, 0, 64, 60
1, 5265, Note_on_c, 0, 67, 0
1, 5271, Note_on_c, 0, 64, 0
1, 5295, Note_on_c, 0, 54, 50
1, 5298, Note_on_c, 0, 50, 38
1, 5301, Control_c, 0, 64, 0
1, 5320, Control_c, 0, 64, 127
1, 5345, Note_on_c, 0, 50, 0
1, 5352, Note_on_c, 0, 54, 0
1, 5373, Note_on_c, 0, 74, 60
1, 5377, Note_on_c, 0, 69, 43
1, 5395, Note_on_c, 0, 74, 0
1, 5402, Note_on_c, 0, 69, 0
1, 5408, Note_on_c, 0, 69, 29
1, 5409, Note_on_c, 0, 76, 68
1, 5412, Note_on_c, 0, 60, 24
1, 5412, Note_on_c, 0, 54, 33
1, 5413, Note_on_c, 0, 62, 31
1, 5434, Note_on_c, 0, 76, 0
1, 5442, Note_on_c, 0, 54, 0
1, 5443, Note_on_c, 0, 74, 39
1, 5451, Note_on_c, 0, 69, 0
1, 5451, Note_on_c, 0, 60, 0
1, 5460, Note_on_c, 0, 62, 0
1, 5496, Note_on_c, 0, 74, 0
1, 5518, Note_on_c, 0, 76, 58
1, 5525, Note_on_c, 0, 57, 29
1, 5527, Note_on_c, 0, 65, 26
1, 5528, Note_on_c, 0, 69, 34
1, 5529, Note_on_c, 0, 60, 20
1, 5534, Control_c, 0, 64, 0
1, 5553, Control_c, 0, 64, 127
1, 5560, Note_on_c, 0, 55, 34
1, 5583, Note_on_c, 0, 60, 0
1, 5588, Note_on_c, 0, 65, 0
1, 5594, Note_on_c, 0, 55, 0
1, 5596, Note_on_c, 0, 57, 0
1, 5598, Note_on_c, 0, 69, 0
1, 5617, Note_on_c, 0, 76, 0
1, 5636, Note_on_c, 0, 68, 35
1, 5637, Note_on_c, 0, 64, 33
1, 5638, Note_on_c, 0, 71, 29
1, 5638, Note_on_c, 0, 59, 32
1, 5641, Note_on_c, 0, 53, 26
1, 5645, Control_c, 0, 64, 0
1, 5667, Control_c, 0, 64, 127
1, 5684, Note_on_c, 0, 64, 0
1, 5686, Note_on_c, 0, 71, 0
1, 5689, Note_on_c, 0, 59, 0
1, 5690, Note_on_c, 0, 68, 0
1, 5701, Note_on_c, 0, 53, 0
1, 5714, Note_on_c, 0, 59, 64
1, 5743, Note_on_c, 0, 59, 0
1, 5758, Note_on_c, 0, 58, 48
1, 5759, Control_c, 0, 64, 0
1, 5760, Note_on_c, 0, 43, 32
1, 5761, Note_on_c, 0, 53, 27
1, 5779, Control_c, 0, 64, 127
1, 5803, Note_on_c, 0, 43, 0
1, 5813, Note_on_c, 0, 53, 0
1, 5813, Note_on_c, 0, 58, 0
1, 5886, Note_on_c, 0, 62, 31
1, 5886, Note_on_c, 0, 58, 25
1, 5887, Note_on_c, 0, 60, 29
1, 5926, Note_on_c, 0, 67, 62
1, 5929, Note_on_c, 0, 60, 0
1, 5933, Note_on_c, 0, 62, 0
1, 5935, Note_on_c, 0, 67, 0
1, 5951, Note_on_c, 0, 58, 0
1, 5964, Note_on_c, 0, 67, 70
1, 5972, Note_on_c, 0, 67, 0
1, 6043, Note_on_c, 0, 70, 59
1, 6045, Note_on_c, 0, 55, 37
1, 6047, Note_on_c, 0, 61, 38
1, 6047, Note_on_c, 0, 66, 47
1, 6050, Control_c, 0, 64, 0
1, 6061, Control_c, 0, 64, 127
1, 6074, Note_on_c, 0, 61, 0
1, 6077, Note_on_c, 0, 66, 0
1, 6078, Note_on_c, 0, 70, 0
1, 6093, Note_on_c, 0, 55, 0
1, 6126, Note_on_c, 0, 69, 65
1, 6127, Note_on_c, 0, 64, 56
1, 6128, Note_on_c, 0, 60, 38
1, 6128, Note_on_c, 0, 55, 53
1, 6133, Control_c, 0, 64, 0
1, 6142, Note_on_c, 0, 64, 0
1, 6142, Note_on_c, 0, 69, 0
1, 6150, Note_on_c, 0, 60, 0
1, 6150, Control_c, 0, 64, 127
1, 6156, Note_on_c, 0, 55, 0
1, 6169, Control_c, 0, 64, 0
1, 6169, Note_on_c, 0, 67, 50
1, 6170, Note_on_c, 0, 62, 49
1, 6173, Note_on_c, 0, 64, 50
1, 6173, Note_on_c, 0, 57, 22
1, 6182, Note_on_c, 0, 57, 0
1, 6183, Note_on_c, 0, 62, 0
1, 6184, Note_on_c, 0, 64, 0
1, 6187, Note_on_c, 0, 67, 0
1, 6202, Control_c, 0, 64, 127
1, 6203, Note_on_c, 0, 48, 32
1, 6208, Note_on_c, 0, 48, 0
1, 6234, Note_on_c, 0, 41, 57
1, 6245, Control_c, 0, 64, 0
1, 6264, Control_c, 0, 64, 127
1, 6269, Note_on_c, 0, 41, 0
1, 6269, Note_on_c, 0, 57, 35
1, 6274, Note_on_c, 0, 57, 0
1, 6298, Note_on_c, 0, 59, 41
1, 6299, Note_on_c, 0, 60, 34
1, 6308, Note_on_c, 0, 59, 0
1, 6324, Note_on_c, 0, 64, 59
1, 6325, Note_on_c, 0, 72, 69
1, 6327, Note_on_c, 0, 67, 45
1, 6330, Note_on_c, 0, 65, 32
1, 6334, Note_on_c, 0, 65, 0
1, 6334, Note_on_c, 0, 67, 0
1, 6341, Note_on_c, 0, 72, 0
1, 6355, Note_on_c, 0, 72, 73
1, 6356, Note_on_c, 0, 79, 80
1, 6369, Note_on_c, 0, 72, 0
1, 6371, Note_on_c, 0, 64, 0
1, 6373, Note_on_c, 0, 79, 0
1, 6388, Note_on_c, 0, 64, 51
1, 6388, Note_on_c, 0, 84, 80
1, 6389, Note_on_c, 0, 91, 64
1, 6415, Note_on_c, 0, 84, 0
1, 6417, Note_on_c, 0, 91, 0
1, 6422, Note_on_c, 0, 60, 0
1, 6422, Note_on_c, 0, 88, 70
1, 6423, Note_on_c, 0, 81, 39
1, 6425, Note_on_c, 0, 84, 25
1, 6427, Note_on_c, 0, 64, 0
1, 6431, Note_on_c, 0, 84, 0
1, 6437, Note_on_c, 0, 81, 0
1, 6446, Note_on_c, 0, 88, 0
1, 6461, Note_on_c, 0, 84, 64
1, 6462, Note_on_c, 0, 79, 44
1, 6462, Note_on_c, 0, 67, 39
1, 6463, Note_on_c, 0, 56, 28
1, 6464, Control_c, 0, 64, 0
1, 6464, Note_on_c, 0, 88, 40
1, 6465, Note_on_c, 0, 62, 40
1, 6480, Control_c, 0, 64, 127
1, 6519, Note_on_c, 0, 88, 0
1, 6522, Note_on_c, 0, 84, 0
1, 6527, Note_on_c, 0, 67, 0
1, 6533, Note_on_c, 0, 79, 0
1, 6559, Note_on_c, 0, 62, 0
1, 6600, Note_on_c, 0, 72, 36
1, 6602, Note_on_c, 0, 76, 33
1, 6602, Note_on_c, 0, 67, 29
1, 6603, Note_on_c, 0, 62, 34
1, 6645, Note_on_c, 0, 62, 0
1, 6651, Note_on_c, 0, 56, 0
1, 6670, Note_on_c, 0, 67, 0
1, 6675, Note_on_c, 0, 76, 0
1, 6703, Note_on_c, 0, 72, 0
1, 6725, Note_on_c, 0, 72, 51
1, 6725, Note_on_c, 0, 67, 36
1, 6729, Note_on_c, 0, 64, 47
1, 6732, Control_c, 0, 64, 0
1, 6733, Note_on_c, 0, 62, 26
1, 6741, Note_on_c, 0, 67, 0
1, 6743, Control_c, 0, 64, 127
1, 6772, Note_on_c, 0, 72, 0
1, 6786, Note_on_c, 0, 55, 47
1, 6791, Note_on_c, 0, 74, 67
1, 6813, Note_on_c, 0, 64, 0
1, 6814, Note_on_c, 0, 62, 0
1, 6843, Note_on_c, 0, 74, 0
1, 6850, Note_on_c, 0, 76, 66
1, 6867, Note_on_c, 0, 76, 0
1, 6874, Note_on_c, 0, 55, 0
1, 6905, Note_on_c, 0, 55, 51
1, 6906, Note_on_c, 0, 81, 77
1, 6918, Note_on_c, 0, 81, 0
1, 6963, Note_on_c, 0, 76, 70
1, 6965, Note_on_c, 0, 72, 71
1, 6966, Note_on_c, 0, 64, 48
1, 6968, Note_on_c, 0, 61, 31
1, 6970, Note_on_c, 0, 60, 22
1, 6974, Control_c, 0, 64, 0
1, 6996, Control_c, 0, 64, 127
1, 6997, Note_on_c, 0, 55, 0
1, 7021, Note_on_c, 0, 60, 0
1, 7025, Note_on_c, 0, 55, 43
1, 7047, Note_on_c, 0, 72, 0
1, 7050, Note_on_c, 0, 64, 0
1, 7053, Note_on_c, 0, 76, 0
1, 7060, Note_on_c, 0, 61, 0
1, 7087, Note_on_c, 0, 72, 75
1, 7088, Note_on_c, 0, 69, 80
1, 7089, Note_on_c, 0, 65, 73
1, 7091, Note_on_c, 0, 58, 50
1, 7092, Note_on_c, 0, 62, 51
1, 7094, Note_on_c, 0, 55, 0
1, 7140, Note_on_c, 0, 72, 0
1, 7145, Note_on_c, 0, 55, 45
1, 7147, Note_on_c, 0, 76, 78
1, 7148, Note_on_c, 0, 62, 0
1, 7153, Note_on_c, 0, 65, 0
1, 7162, Note_on_c, 0, 55, 0
1, 7163, Note_on_c, 0, 69, 0
1, 7187, Note_on_c, 0, 58, 0
1, 7199, Note_on_c, 0, 76, 0
1, 7208, Note_on_c, 0, 72, 62
1, 7209, Note_on_c, 0, 60, 35
1, 7210, Note_on_c, 0, 54, 39
1, 7211, Note_on_c, 0, 69, 38
1, 7211, Note_on_c, 0, 64, 36
1, 7212, Control_c, 0, 64, 0
1, 7230, Note_on_c, 0, 60, 0
1, 7231, Control_c, 0, 64, 127
1, 7237, Note_on_c, 0, 54, 0
1, 7259, Note_on_c, 0, 69, 0
1, 7260, Note_on_c, 0, 72, 0
1, 7262, Note_on_c, 0, 42, 54
1, 7266, Note_on_c, 0, 64, 0
1, 7319, Note_on_c, 0, 57, 69
1, 7321, Note_on_c, 0, 52, 39
1, 7338, Note_on_c, 0, 57, 0
1, 7338, Note_on_c, 0, 42, 0
1, 7347, Note_on_c, 0, 52, 0
1, 7348, Note_on_c, 0, 60, 64
1, 7374, Note_on_c, 0, 60, 0
1, 7377, Note_on_c, 0, 64, 49
1, 7386, Note_on_c, 0, 64, 0
1, 7405, Note_on_c, 0, 69, 51
1, 7406, Note_on_c, 0, 67, 56
1, 7411, Note_on_c, 0, 69, 0
1, 7415, Note_on_c, 0, 67, 0
1, 7437, Note_on_c, 0, 67, 52
1, 7438, Note_on_c, 0, 74, 61
1, 7440, Note_on_c, 0, 57, 33
1, 7440, Note_on_c, 0, 47, 37
1, 7440, Note_on_c, 0, 62, 34
1, 7443, Note_on_c, 0, 64, 29
1, 7444, Control_c, 0, 64, 0
1, 7448, Note_on_c, 0, 64, 0
1, 7467, Control_c, 0, 64, 127
1, 7476, Note_on_c, 0, 51, 39
1, 7477, Note_on_c, 0, 57, 0
1, 7478, Note_on_c, 0, 74, 0
1, 7479, Note_on_c, 0, 67, 0
1, 7487, Note_on_c, 0, 62, 0
1, 7535, Note_on_c, 0, 51, 0
1, 7572, Note_on_c, 0, 51, 34
1, 7573, Note_on_c, 0, 57, 30
1, 7610, Note_on_c, 0, 47, 0
1, 7611, Note_on_c, 0, 62, 56
1, 7618, Note_on_c, 0, 51, 0
1, 7621, Note_on_c, 0, 62, 0
1, 7626, Note_on_c, 0, 57, 0
1, 7650, Note_on_c, 0, 71, 89
1, 7675, Note_on_c, 0, 71, 0
1, 7687, Note_on_c, 0, 64, 55
1, 7688, Note_on_c, 0, 69, 60
1, 7690, Note_on_c, 0, 52, 42
1, 7694, Control_c, 0, 64, 0
1, 7719, Control_c, 0, 64, 127
1, 7727, Note_on_c, 0, 64, 0
1, 7729, Note_on_c, 0, 59, 30
1, 7740, Note_on_c, 0, 69, 0
1, 7759, Note_on_c, 0, 71, 54
1, 7759, Note_on_c, 0, 62, 38
1, 7775, Note_on_c, 0, 59, 0
1, 7789, Note_on_c, 0, 62, 0
1, 7803, Note_on_c, 0, 71, 0
1, 7808, Note_on_c, 0, 59, 32
1, 7847, Note_on_c, 0, 67, 75
1, 7865, Note_on_c, 0, 67, 0
1, 7886, Note_on_c, 0, 67, 88
1, 7902, Note_on_c, 0, 52, 0
1, 7903, Note_on_c, 0, 67, 0
1, 7911, Note_on_c, 0, 69, 85
1, 7928, Note_on_c, 0, 69, 0
1, 7935, Note_on_c, 0, 67, 67
1, 7936, Note_on_c, 0, 52, 43
1, 7936, Note_on_c, 0, 71, 67
1, 7938, Note_on_c, 0, 62, 30
1, 7940, Note_on_c, 0, 59, 0
1, 7940, Control_c, 0, 64, 0
1, 7960, Control_c, 0, 64, 127
1, 7965, Note_on_c, 0, 71, 0
1, 7971, Note_on_c, 0, 72, 58
1, 7991, Note_on_c, 0, 62, 0
1, 8000, Note_on_c, 0, 67, 0
1, 8047, Note_on_c, 0, 67, 55
1, 8048, Note_on_c, 0, 62, 43
1, 8053, Note_on_c, 0, 59, 19
1, 8056, Note_on_c, 0, 72, 0
1, 8082, Note_on_c, 0, 62, 0
1, 8082, Note_on_c, 0, 59, 0
1, 8089, Note_on_c, 0, 71, 65
1, 8096, Note_on_c, 0, 52, 0
1, 8128, Note_on_c, 0, 67, 0
1, 8131, Note_on_c, 0, 71, 0
1, 8160, Note_on_c, 0, 69, 63
1, 8161, Note_on_c, 0, 65, 57
1, 8162, Note_on_c, 0, 51, 36
1, 8163, Note_on_c, 0, 60, 45
1, 8164, Note_on_c, 0, 57, 34
1, 8164, Note_on_c, 0, 47, 40
1, 8168, Control_c, 0, 64, 0
1, 8190, Control_c, 0, 64, 127
1, 8218, Note_on_c, 0, 57, 0
1, 8220, Note_on_c, 0, 65, 0
1, 8222, Note_on_c, 0, 69, 0
1, 8223, Note_on_c, 0, 60, 0
1, 8230, Note_on_c, 0, 47, 0
1, 8240, Note_on_c, 0, 51, 0
1, 8280, Note_on_c, 0, 67, 88
1, 8284, Note_on_c, 0, 47, 44
1, 8284, Note_on_c, 0, 62, 74
1, 8285, Note_on_c, 0, 66, 30
1, 8287, Control_c, 0, 64, 0
1, 8289, Note_on_c, 0, 66, 0
1, 8289, Note_on_c, 0, 51, 18
1, 8293, Note_on_c, 0, 59, 36
1, 8305, Control_c, 0, 64, 127
1, 8315, Note_on_c, 0, 62, 0
1, 8316, Note_on_c, 0, 67, 0
1, 8324, Note_on_c, 0, 59, 0
1, 8325, Note_on_c, 0, 47, 0
1, 8331, Note_on_c, 0, 51, 0
1, 8335, Note_on_c, 0, 65, 73
1, 8338, Note_on_c, 0, 60, 69
1, 8339, Note_on_c, 0, 51, 21
1, 8340, Note_on_c, 0, 57, 64
1, 8341, Note_on_c, 0, 47, 33
1, 8356, Note_on_c, 0, 57, 0
1, 8360, Note_on_c, 0, 60, 0
1, 8361, Note_on_c, 0, 65, 0
1, 8375, Note_on_c, 0, 67, 74
1, 8376, Note_on_c, 0, 62, 71
1, 8394, Note_on_c, 0, 62, 0
1, 8395, Note_on_c, 0, 67, 0
1, 8415, Note_on_c, 0, 69, 67
1, 8416, Control_c, 0, 64, 0
1, 8416, Note_on_c, 0, 65, 62
1, 8419, Note_on_c, 0, 57, 30
1, 8419, Note_on_c, 0, 60, 44
1, 8434, Control_c, 0, 64, 127
1, 8437, Note_on_c, 0, 69, 0
1, 8438, Note_on_c, 0, 65, 0
1, 8441, Note_on_c, 0, 60, 0
1, 8443, Note_on_c, 0, 47, 0
1, 8454, Note_on_c, 0, 71, 54
1, 8455, Note_on_c, 0, 65, 38
1, 8455, Note_on_c, 0, 64, 38
1, 8467, Note_on_c, 0, 65, 0
1, 8469, Note_on_c, 0, 57, 0
1, 8473, Note_on_c, 0, 64, 0
1, 8522, Note_on_c, 0, 71, 0
1, 8524, Note_on_c, 0, 63, 49
1, 8525, Note_on_c, 0, 59, 39
1, 8526, Note_on_c, 0, 57, 32
1, 8551, Note_on_c, 0, 57, 0
1, 8553, Note_on_c, 0, 51, 0
1, 8595, Note_on_c, 0, 59, 0
1, 8600, Note_on_c, 0, 69, 47
1, 8606, Note_on_c, 0, 63, 0
1, 8610, Note_on_c, 0, 69, 0
1, 8647, Note_on_c, 0, 68, 58
1, 8649, Note_on_c, 0, 40, 48
1, 8658, Control_c, 0, 64, 0
1, 8680, Control_c, 0, 64, 127
1, 8688, Note_on_c, 0, 52, 36
1, 8692, Note_on_c, 0, 59, 33
1, 8694, Note_on_c, 0, 40, 0
1, 8699, Note_on_c, 0, 59, 0
1, 8700, Note_on_c, 0, 52, 0
1, 8731, Note_on_c, 0, 64, 51
1, 8734, Note_on_c, 0, 68, 0
1, 8774, Note_on_c, 0, 61, 31
1, 8774, Note_on_c, 0, 59, 29
1, 8819, Note_on_c, 0, 59, 0
1, 8820, Note_on_c, 0, 61, 0
1, 8824, Note_on_c, 0, 66, 60
1, 8830, Note_on_c, 0, 64, 0
1, 8845, Note_on_c, 0, 66, 0
1, 8853, Note_on_c, 0, 68, 67
1, 8873, Note_on_c, 0, 68, 0
1, 8885, Note_on_c, 0, 59, 55
1, 8889, Note_on_c, 0, 49, 32
1, 8889, Control_c, 0, 64, 0
1, 8905, Control_c, 0, 64, 127
1, 8911, Note_on_c, 0, 59, 0
1, 8913, Note_on_c, 0, 49, 0
1, 8915, Note_on_c, 0, 64, 62
1, 8932, Note_on_c, 0, 64, 0
1, 8942, Note_on_c, 0, 68, 69
1, 8950, Note_on_c, 0, 68, 0
1, 8971, Note_on_c, 0, 71, 73
1, 8985, Note_on_c, 0, 71, 0
1, 8999, Note_on_c, 0, 76, 67
1, 9000, Note_on_c, 0, 61, 36
1, 9022, Note_on_c, 0, 76, 0
1, 9028, Note_on_c, 0, 80, 56
1, 9035, Note_on_c, 0, 61, 0
1, 9036, Note_on_c, 0, 80, 0
1, 9059, Note_on_c, 0, 84, 33
1, 9072, Note_on_c, 0, 84, 0
1, 9085, Note_on_c, 0, 88, 62
1, 9106, Note_on_c, 0, 88, 0
1, 9118, Note_on_c, 0, 95, 74
1, 9119, Note_on_c, 0, 64, 24
1, 9119, Note_on_c, 0, 54, 33
1, 9120, Note_on_c, 0, 57, 40
1, 9125, Control_c, 0, 64, 0
1, 9147, Note_on_c, 0, 95, 0
1, 9147, Control_c, 0, 64, 127
1, 9154, Note_on_c, 0, 93, 62
1, 9187, Note_on_c, 0, 93, 0
1, 9188, Note_on_c, 0, 88, 62
1, 9191, Note_on_c, 0, 64, 0
1, 9237, Note_on_c, 0, 60, 39
1, 9239, Note_on_c, 0, 64, 28
1, 9268, Note_on_c, 0, 64, 0
1, 9271, Note_on_c, 0, 60, 0
1, 9272, Note_on_c, 0, 57, 0
1, 9282, Note_on_c, 0, 88, 0
1, 9284, Note_on_c, 0, 54, 0
1, 9285, Note_on_c, 0, 93, 83
1, 9316, Note_on_c, 0, 93, 0
1, 9333, Note_on_c, 0, 92, 67
1, 9338, Note_on_c, 0, 93, 32
1, 9342, Note_on_c, 0, 93, 0
1, 9371, Note_on_c, 0, 47, 36
1, 9371, Note_on_c, 0, 57, 40
1, 9376, Control_c, 0, 64, 0
1, 9392, Control_c, 0, 64, 127
1, 9406, Note_on_c, 0, 89, 64
1, 9417, Note_on_c, 0, 92, 0
1, 9421, Note_on_c, 0, 47, 0
1, 9429, Note_on_c, 0, 89, 0
1, 9435, Note_on_c, 0, 57, 0
1, 9451, Note_on_c, 0, 87, 60
1, 9496, Note_on_c, 0, 51, 33
1, 9496, Note_on_c, 0, 62, 33
1, 9498, Note_on_c, 0, 57, 38
1, 9528, Note_on_c, 0, 57, 0
1, 9528, Note_on_c, 0, 62, 0
1, 9535, Note_on_c, 0, 87, 0
1, 9536, Note_on_c, 0, 84, 62
1, 9538, Note_on_c, 0, 51, 0
1, 9556, Note_on_c, 0, 84, 0
1, 9574, Note_on_c, 0, 81, 62
1, 9605, Note_on_c, 0, 81, 0
1, 9612, Note_on_c, 0, 83, 67
1, 9616, Control_c, 0, 64, 0
1, 9616, Note_on_c, 0, 40, 22
1, 9635, Control_c, 0, 64, 127
1, 9646, Note_on_c, 0, 83, 0
1, 9648, Note_on_c, 0, 78, 42
1, 9648, Note_on_c, 0, 47, 48
1, 9656, Note_on_c, 0, 40, 0
1, 9660, Note_on_c, 0, 47, 0
1, 9678, Note_on_c, 0, 78, 0
1, 9681, Note_on_c, 0, 81, 64
1, 9717, Note_on_c, 0, 81, 0
1, 9726, Note_on_c, 0, 62, 38
1, 9727, Note_on_c, 0, 59, 36
1, 9729, Note_on_c, 0, 55, 44
1, 9730, Note_on_c, 0, 52, 36
1, 9776, Note_on_c, 0, 62, 0
1, 9804, Note_on_c, 0, 59, 0
1, 9806, Note_on_c, 0, 71, 91
1, 9825, Note_on_c, 0, 71, 0
1, 9849, Note_on_c, 0, 71, 99
1, 9851, Note_on_c, 0, 59, 38
1, 9852, Note_on_c, 0, 62, 50
1, 9858, Control_c, 0, 64, 0
1, 9878, Control_c, 0, 64, 127
1, 9879, Note_on_c, 0, 69, 73
1, 9885, Note_on_c, 0, 71, 0
1, 9888, Note_on_c, 0, 62, 0
1, 9892, Note_on_c, 0, 52, 0
1, 9900, Note_on_c, 0, 69, 0
1, 9906, Note_on_c, 0, 67, 50
1, 9919, Note_on_c, 0, 67, 0
1, 9935, Note_on_c, 0, 59, 0
1, 9935, Note_on_c, 0, 69, 84
1, 9954, Note_on_c, 0, 69, 0
1, 9966, Note_on_c, 0, 71, 91
1, 9966, Note_on_c, 0, 62, 45
1, 9966, Note_on_c, 0, 59, 48
1, 9978, Note_on_c, 0, 62, 0
1, 9991, Note_on_c, 0, 71, 0
1, 10000, Note_on_c, 0, 72, 81
1, 10003, Note_on_c, 0, 59, 0
1, 10017, Note_on_c, 0, 55, 0
1, 10020, Note_on_c, 0, 72, 0
1, 10029, Note_on_c, 0, 72, 64
1, 10049, Note_on_c, 0, 72, 0
1, 10055, Note_on_c, 0, 71, 64
1, 10076, Note_on_c, 0, 71, 0
1, 10086, Note_on_c, 0, 69, 62
1, 10087, Note_on_c, 0, 41, 44
1, 10087, Note_on_c, 0, 60, 39
1, 10089, Note_on_c, 0, 65, 34
1, 10092, Control_c, 0, 64, 0
1, 10114, Control_c, 0, 64, 127
1, 10117, Note_on_c, 0, 69, 0
1, 10117, Note_on_c, 0, 48, 53
1, 10120, Note_on_c, 0, 65, 0
1, 10124, Note_on_c, 0, 60, 0
1, 10126, Note_on_c, 0, 41, 0
1, 10147, Note_on_c, 0, 67, 69
1, 10148, Note_on_c, 0, 57, 53
1, 10148, Note_on_c, 0, 62, 74
1, 10194, Note_on_c, 0, 48, 0
1, 10197, Note_on_c, 0, 57, 0
1, 10226, Note_on_c, 0, 62, 0
1, 10232, Note_on_c, 0, 67, 0
1, 10245, Note_on_c, 0, 65, 67
1, 10265, Note_on_c, 0, 65, 0
1, 10275, Note_on_c, 0, 67, 69
1, 10288, Note_on_c, 0, 67, 0
1, 10315, Note_on_c, 0, 69, 77
1, 10316, Note_on_c, 0, 51, 35
1, 10318, Note_on_c, 0, 65, 67
1, 10318, Note_on_c, 0, 47, 43
1, 10320, Control_c, 0, 64, 0
1, 10322, Note_on_c, 0, 57, 36
1, 10322, Note_on_c, 0, 60, 58
1, 10342, Note_on_c, 0, 51, 0
1, 10343, Control_c, 0, 64, 127
1, 10371, Note_on_c, 0, 51, 42
1, 10380, Note_on_c, 0, 57, 0
1, 10384, Note_on_c, 0, 60, 0
1, 10385, Note_on_c, 0, 69, 0
1, 10386, Note_on_c, 0, 65, 0
1, 10444, Note_on_c, 0, 57, 42
1, 10473, Note_on_c, 0, 47, 0
1, 10483, Note_on_c, 0, 51, 0
1, 10483, Note_on_c, 0, 71, 65
1, 10489, Note_on_c, 0, 57, 0
1, 10512, Note_on_c, 0, 71, 0
1, 10522, Note_on_c, 0, 69, 59
1, 10535, Note_on_c, 0, 69, 0
1, 10565, Note_on_c, 0, 68, 49
1, 10567, Note_on_c, 0, 52, 50
1, 10573, Control_c, 0, 64, 0
1, 10601, Control_c, 0, 64, 127
1, 10609, Note_on_c, 0, 59, 39
1, 10631, Note_on_c, 0, 68, 0
1, 10633, Note_on_c, 0, 59, 0
1, 10646, Note_on_c, 0, 63, 45
1, 10655, Note_on_c, 0, 63, 0
1, 10690, Note_on_c, 0, 75, 55
1, 10692, Note_on_c, 0, 64, 25
1, 10721, Note_on_c, 0, 75, 0
1, 10727, Note_on_c, 0, 71, 41
1, 10745, Note_on_c, 0, 71, 0
1, 10755, Note_on_c, 0, 80, 47
1, 10776, Note_on_c, 0, 80, 0
1, 10782, Note_on_c, 0, 75, 33
1, 10790, Note_on_c, 0, 75, 0
1, 10810, Note_on_c, 0, 83, 48
1, 10813, Note_on_c, 0, 59, 35
1, 10824, Note_on_c, 0, 83, 0
1, 10840, Note_on_c, 0, 64, 0
1, 10843, Note_on_c, 0, 52, 0
1, 10845, Note_on_c, 0, 76, 33
1, 10851, Note_on_c, 0, 76, 0
1, 10936, Note_on_c, 0, 52, 27
1, 10952, Note_on_c, 0, 59, 0
1, 10969, Note_on_c, 0, 52, 0
1, 10979, Note_on_c, 0, 67, 61
1, 10991, Note_on_c, 0, 67, 0
1, 11020, Note_on_c, 0, 67, 61
1, 11031, Note_on_c, 0, 67, 0
1, 11057, Note_on_c, 0, 49, 34
1, 11060, Note_on_c, 0, 67, 64
1, 11062, Note_on_c, 0, 53, 42
1, 11063, Note_on_c, 0, 63, 59
1, 11067, Note_on_c, 0, 59, 43
1, 11067, Control_c, 0, 64, 0
1, 11069, Note_on_c, 0, 58, 33
1, 11088, Control_c, 0, 64, 127
1, 11100, Note_on_c, 0, 59, 0
1, 11106, Note_on_c, 0, 53, 0
1, 11115, Note_on_c, 0, 49, 0
1, 11142, Note_on_c, 0, 37, 35
1, 11162, Note_on_c, 0, 58, 0
1, 11178, Note_on_c, 0, 37, 0
1, 11182, Note_on_c, 0, 63, 0
1, 11182, Note_on_c, 0, 44, 38
1, 11213, Note_on_c, 0, 53, 52
1, 11242, Note_on_c, 0, 56, 35
1, 11283, Note_on_c, 0, 44, 0
1, 11287, Note_on_c, 0, 56, 0
1, 11290, Note_on_c, 0, 53, 0
1, 11351, Note_on_c, 0, 67, 0
1, 11364, Note_on_c, 0, 53, 35
1, 11373, Note_on_c, 0, 53, 0
1, 11420, Note_on_c, 0, 79, 68
1, 11422, Note_on_c, 0, 71, 60
1, 11423, Note_on_c, 0, 63, 39
1, 11424, Note_on_c, 0, 53, 25
1, 11428, Note_on_c, 0, 59, 24
1, 11430, Note_on_c, 0, 53, 0
1, 11436, Note_on_c, 0, 63, 0
1, 11437, Note_on_c, 0, 59, 0
1, 11486, Note_on_c, 0, 71, 0
1, 11494, Note_on_c, 0, 71, 16
1, 11495, Note_on_c, 0, 75, 45
1, 11498, Note_on_c, 0, 79, 0
1, 11511, Note_on_c, 0, 71, 0
1, 11519, Note_on_c, 0, 75, 0
1, 11536, Note_on_c, 0, 36, 29
1, 11538, Note_on_c, 0, 76, 42
1, 11540, Note_on_c, 0, 71, 24
1, 11540, Note_on_c, 0, 52, 44
1, 11541, Control_c, 0, 64, 0
1, 11562, Control_c, 0, 64, 127
1, 11564, Note_on_c, 0, 36, 0
1, 11577, Note_on_c, 0, 52, 0
1, 11583, Note_on_c, 0, 71, 0
1, 11586, Note_on_c, 0, 76, 0
1, 11586, Note_on_c, 0, 79, 65
1, 11633, Note_on_c, 0, 79, 0
1, 11660, Note_on_c, 0, 67, 24
1, 11660, Note_on_c, 0, 64, 31
1, 11662, Note_on_c, 0, 62, 25
1, 11694, Note_on_c, 0, 67, 0
1, 11698, Note_on_c, 0, 64, 0
1, 11706, Note_on_c, 0, 62, 0
1, 11711, Note_on_c, 0, 96, 70
1, 11725, Note_on_c, 0, 96, 0
1, 11729, Note_on_c, 0, 88, 62
1, 11734, Note_on_c, 0, 88, 0
1, 11754, Note_on_c, 0, 108, 74
1, 11757, Note_on_c, 0, 107, 43
1, 11759, Note_on_c, 0, 108, 0
1, 11761, Note_on_c, 0, 107, 0
1, 11780, Note_on_c, 0, 63, 43
1, 11780, Note_on_c, 0, 58, 50
1, 11781, Note_on_c, 0, 52, 37
1, 11791, Control_c, 0, 64, 0
1, 11798, Control_c, 0, 64, 127
1, 11827, Note_on_c, 0, 52, 0
1, 11830, Note_on_c, 0, 63, 0
1, 11835, Note_on_c, 0, 58, 0
1, 11901, Note_on_c, 0, 58, 31
1, 11904, Control_c, 0, 64, 0
1, 11904, Note_on_c, 0, 48, 35
1, 11913, Control_c, 0, 64, 127
1, 11939, Note_on_c, 0, 48, 0
1, 11948, Note_on_c, 0, 58, 0
1, 12006, Control_c, 0, 64, 0
1, 12006, Note_on_c, 0, 47, 46
1, 12017, Control_c, 0, 64, 127
1, 12035, Note_on_c, 0, 47, 0
1, 12056, Note_on_c, 0, 95, 76
1, 12067, Note_on_c, 0, 84, 34
1, 12069, Note_on_c, 0, 86, 19
1, 12083, Note_on_c, 0, 84, 0
1, 12122, Note_on_c, 0, 67, 44
1, 12123, Note_on_c, 0, 62, 34
1, 12125, Note_on_c, 0, 63, 25
1, 12129, Note_on_c, 0, 67, 0
1, 12131, Note_on_c, 0, 62, 0
1, 12132, Note_on_c, 0, 63, 0
1, 12200, Note_on_c, 0, 86, 0
1, 12211, Note_on_c, 0, 95, 0
1, 12240, Note_on_c, 0, 95, 99
1, 12243, Note_on_c, 0, 63, 43
1, 12245, Note_on_c, 0, 67, 44
1, 12246, Note_on_c, 0, 74, 49
1, 12246, Note_on_c, 0, 69, 45
1, 12247, Note_on_c, 0, 86, 72
1, 12269, Note_on_c, 0, 95, 0
1, 12274, Note_on_c, 0, 69, 0
1, 12275, Note_on_c, 0, 86, 0
1, 12303, Note_on_c, 0, 91, 57
1, 12309, Note_on_c, 0, 83, 60
1, 12321, Note_on_c, 0, 74, 0
1, 12322, Note_on_c, 0, 67, 0
1, 12325, Note_on_c, 0, 91, 0
1, 12329, Note_on_c, 0, 83, 0
1, 12367, Note_on_c, 0, 74, 37
1, 12368, Note_on_c, 0, 86, 59
1, 12368, Note_on_c, 0, 69, 43
1, 12369, Note_on_c, 0, 79, 74
1, 12391, Note_on_c, 0, 74, 0
1, 12397, Note_on_c, 0, 69, 0
1, 12401, Note_on_c, 0, 79, 0
1, 12410, Note_on_c, 0, 63, 0
1, 12418, Note_on_c, 0, 86, 0
1, 12425, Note_on_c, 0, 84, 52
1, 12431, Note_on_c, 0, 79, 57
1, 12436, Note_on_c, 0, 74, 47
1, 12444, Note_on_c, 0, 84, 0
1, 12445, Note_on_c, 0, 79, 0
1, 12452, Note_on_c, 0, 74, 0
1, 12483, Note_on_c, 0, 81, 56
1, 12486, Note_on_c, 0, 76, 60
1, 12490, Note_on_c, 0, 53, 42
1, 12491, Note_on_c, 0, 69, 31
1, 12491, Note_on_c, 0, 60, 16
1, 12493, Control_c, 0, 64, 0
1, 12505, Control_c, 0, 64, 127
1, 12516, Note_on_c, 0, 69, 0
1, 12520, Note_on_c, 0, 81, 0
1, 12521, Note_on_c, 0, 76, 0
1, 12551, Note_on_c, 0, 84, 80
1, 12556, Note_on_c, 0, 64, 28
1, 12557, Note_on_c, 0, 72, 66
1, 12564, Note_on_c, 0, 64, 0
1, 12568, Note_on_c, 0, 60, 0
1, 12571, Note_on_c, 0, 84, 0
1, 12574, Note_on_c, 0, 53, 0
1, 12577, Note_on_c, 0, 72, 0
1, 12605, Note_on_c, 0, 83, 72
1, 12606, Note_on_c, 0, 52, 35
1, 12607, Note_on_c, 0, 55, 38
1, 12607, Note_on_c, 0, 59, 35
1, 12607, Note_on_c, 0, 76, 70
1, 12609, Note_on_c, 0, 62, 60
1, 12611, Control_c, 0, 64, 0
1, 12611, Note_on_c, 0, 71, 50
1, 12625, Control_c, 0, 64, 127
1, 12633, Note_on_c, 0, 76, 0
1, 12633, Note_on_c, 0, 83, 0
1, 12654, Note_on_c, 0, 71, 0
1, 12668, Note_on_c, 0, 62, 0
1, 12673, Note_on_c, 0, 52, 0
1, 12677, Note_on_c, 0, 59, 0
1, 12680, Note_on_c, 0, 55, 0
1, 12699, Note_on_c, 0, 79, 71
1, 12721, Note_on_c, 0, 79, 0
1, 12735, Note_on_c, 0, 81, 76
1, 12735, Note_on_c, 0, 77, 78
1, 12737, Note_on_c, 0, 51, 52
1, 12738, Control_c, 0, 64, 0
1, 12753, Control_c, 0, 64, 127
1, 12769, Note_on_c, 0, 61, 52
1, 12772, Note_on_c, 0, 81, 0
1, 12773, Note_on_c, 0, 77, 0
1, 12776, Note_on_c, 0, 51, 0
1, 12802, Note_on_c, 0, 79, 56
1, 12803, Note_on_c, 0, 72, 71
1, 12841, Note_on_c, 0, 79, 0
1, 12842, Note_on_c, 0, 72, 0
1, 12843, Note_on_c, 0, 61, 0
1, 12901, Note_on_c, 0, 76, 70
1, 12902, Note_on_c, 0, 73, 61
1, 12902, Note_on_c, 0, 70, 73
1, 12902, Note_on_c, 0, 61, 61
1, 12904, Note_on_c, 0, 67, 65
1, 12911, Control_c, 0, 64, 0
1, 12917, Note_on_c, 0, 61, 0
1, 12923, Control_c, 0, 64, 127
1, 12933, Note_on_c, 0, 51, 60
1, 12938, Note_on_c, 0, 67, 0
1, 12945, Note_on_c, 0, 76, 0
1, 12947, Note_on_c, 0, 73, 0
1, 12947, Note_on_c, 0, 70, 0
1, 12954, Note_on_c, 0, 51, 0
1, 12971, Note_on_c, 0, 66, 56
1, 12971, Note_on_c, 0, 74, 40
1, 12972, Note_on_c, 0, 68, 57
1, 12973, Note_on_c, 0, 72, 56
1, 12974, Note_on_c, 0, 60, 38
1, 12974, Note_on_c, 0, 50, 39
1, 12977, Control_c, 0, 64, 0
1, 12995, Control_c, 0, 64, 127
1, 12997, Note_on_c, 0, 50, 0
1, 13004, Note_on_c, 0, 60, 0
1, 13006, Note_on_c, 0, 68, 0
1, 13008, Note_on_c, 0, 66, 0
1, 13011, Note_on_c, 0, 72, 0
1, 13016, Note_on_c, 0, 74, 0
1, 13018, Note_on_c, 0, 66, 40
1, 13018, Note_on_c, 0, 76, 62
1, 13018, Note_on_c, 0, 72, 28
1, 13018, Note_on_c, 0, 68, 34
1, 13020, Note_on_c, 0, 64, 52
1, 13062, Note_on_c, 0, 64, 0
1, 13066, Note_on_c, 0, 66, 0
1, 13066, Note_on_c, 0, 68, 0
1, 13068, Note_on_c, 0, 72, 0
1, 13074, Note_on_c, 0, 76, 0
1, 13080, Note_on_c, 0, 74, 30
1, 13081, Note_on_c, 0, 66, 42
1, 13082, Note_on_c, 0, 62, 36
1, 13083, Note_on_c, 0, 72, 38
1, 13084, Note_on_c, 0, 68, 42
1, 13098, Note_on_c, 0, 62, 0
1, 13101, Note_on_c, 0, 74, 0
1, 13102, Note_on_c, 0, 72, 0
1, 13108, Note_on_c, 0, 68, 0
1, 13108, Note_on_c, 0, 66, 0
1, 13161, Note_on_c, 0, 60, 61
1, 13167, Note_on_c, 0, 60, 0
1, 13182, Note_on_c, 0, 60, 54
1, 13193, Note_on_c, 0, 60, 0
1, 13204, Note_on_c, 0, 60, 47
1, 13205, Note_on_c, 0, 67, 63
1, 13206, Note_on_c, 0, 57, 60
1, 13206, Note_on_c, 0, 52, 53
1, 13210, Control_c, 0, 64, 0
1, 13218, Note_on_c, 0, 67, 0
1, 13219, Note_on_c, 0, 60, 0
1, 13223, Note_on_c, 0, 57, 0
1, 13231, Note_on_c, 0, 52, 0
1, 13238, Note_on_c, 0, 49, 47
1, 13249, Note_on_c, 0, 49, 0
1, 13253, Note_on_c, 0, 48, 55
1, 13255, Note_on_c, 0, 57, 54
1, 13255, Note_on_c, 0, 64, 49
1, 13255, Note_on_c, 0, 60, 52
1, 13257, Note_on_c, 0, 53, 45
1, 13283, Note_on_c, 0, 48, 0
1, 13284, Note_on_c, 0, 53, 0
1, 13284, Control_c, 0, 64, 127
1, 13288, Note_on_c, 0, 57, 0
1, 13290, Note_on_c, 0, 60, 0
1, 13293, Note_on_c, 0, 64, 0
1, 13293, Note_on_c, 0, 43, 39
1, 13321, Note_on_c, 0, 67, 50
1, 13323, Note_on_c, 0, 59, 46
1, 13323, Note_on_c, 0, 53, 53
1, 13323, Note_on_c, 0, 61, 52
1, 13331, Control_c, 0, 64, 0
1, 13339, Control_c, 0, 64, 127
1, 13348, Note_on_c, 0, 59, 0
1, 13349, Note_on_c, 0, 61, 0
1, 13351, Note_on_c, 0, 67, 0
1, 13356, Note_on_c, 0, 53, 0
1, 13365, Note_on_c, 0, 56, 44
1, 13366, Note_on_c, 0, 65, 43
1, 13366, Note_on_c, 0, 53, 44
1, 13368, Note_on_c, 0, 59, 48
1, 13373, Control_c, 0, 64, 0
1, 13392, Note_on_c, 0, 43, 0
1, 13392, Control_c, 0, 64, 127
1, 13403, Note_on_c, 0, 43, 45
1, 13407, Note_on_c, 0, 59, 0
1, 13409, Note_on_c, 0, 56, 0
1, 13414, Note_on_c, 0, 43, 0
1, 13416, Note_on_c, 0, 53, 0
1, 13431, Note_on_c, 0, 65, 0
1, 13431, Note_on_c, 0, 44, 46
1, 13432, Note_on_c, 0, 54, 35
1, 13436, Note_on_c, 0, 54, 0
1, 13442, Note_on_c, 0, 44, 0
1, 13451, Control_c, 0, 64, 0
1, 13452, Note_on_c, 0, 62, 52
1, 13453, Note_on_c, 0, 58, 39
1, 13453, Note_on_c, 0, 55, 38
1, 13454, Note_on_c, 0, 53, 34
1, 13458, Note_on_c, 0, 43, 32
1, 13472, Control_c, 0, 64, 127
1, 13493, Note_on_c, 0, 43, 0
1, 13496, Note_on_c, 0, 55, 0
1, 13497, Note_on_c, 0, 58, 0
1, 13499, Note_on_c, 0, 62, 0
1, 13500, Note_on_c, 0, 53, 0
1, 13556, Note_on_c, 0, 67, 79
1, 13557, Note_on_c, 0, 58, 80
1, 13557, Note_on_c, 0, 62, 83
1, 13558, Note_on_c, 0, 55, 69
1, 13573, Note_on_c, 0, 67, 0
1, 13589, Note_on_c, 0, 58, 0
1, 13598, Note_on_c, 0, 62, 0
1, 13603, Note_on_c, 0, 69, 74
1, 13604, Note_on_c, 0, 62, 44
1, 13608, Note_on_c, 0, 55, 0
1, 13627, Note_on_c, 0, 69, 0
1, 13630, Note_on_c, 0, 62, 0
1, 13639, Note_on_c, 0, 67, 66
1, 13652, Note_on_c, 0, 67, 0
1, 13667, Note_on_c, 0, 54, 50
1, 13674, Note_on_c, 0, 55, 62
1, 13676, Note_on_c, 0, 70, 83
1, 13678, Note_on_c, 0, 55, 0
1, 13678, Note_on_c, 0, 54, 0
1, 13678, Note_on_c, 0, 61, 88
1, 13678, Note_on_c, 0, 56, 74
1, 13678, Note_on_c, 0, 66, 77
1, 13682, Control_c, 0, 64, 0
1, 13700, Control_c, 0, 64, 127
1, 13728, Note_on_c, 0, 56, 0
1, 13730, Note_on_c, 0, 66, 0
1, 13732, Note_on_c, 0, 70, 0
1, 13733, Note_on_c, 0, 61, 0
1, 13738, Note_on_c, 0, 69, 70
1, 13740, Note_on_c, 0, 64, 68
1, 13740, Note_on_c, 0, 55, 64
1, 13740, Note_on_c, 0, 60, 58
1, 13746, Control_c, 0, 64, 0
1, 13759, Control_c, 0, 64, 127
1, 13769, Note_on_c, 0, 69, 0
1, 13771, Note_on_c, 0, 64, 0
1, 13782, Note_on_c, 0, 60, 0
1, 13784, Note_on_c, 0, 55, 0
1, 13840, Note_on_c, 0, 63, 57
1, 13841, Note_on_c, 0, 58, 47
1, 13841, Note_on_c, 0, 67, 55
1, 13843, Note_on_c, 0, 53, 44
1, 13846, Control_c, 0, 64, 0
1, 13864, Control_c, 0, 64, 127
1, 13870, Note_on_c, 0, 53, 0
1, 13870, Note_on_c, 0, 58, 0
1, 13875, Note_on_c, 0, 67, 0
1, 13875, Note_on_c, 0, 63, 0
1, 13877, Note_on_c, 0, 64, 50
1, 13920, Note_on_c, 0, 60, 47
1, 13922, Note_on_c, 0, 55, 35
1, 13923, Note_on_c, 0, 41, 44
1, 13923, Note_on_c, 0, 57, 45
1, 13924, Control_c, 0, 64, 0
1, 13939, Note_on_c, 0, 55, 0
1, 13946, Note_on_c, 0, 57, 0
1, 13946, Control_c, 0, 64, 127
1, 13950, Note_on_c, 0, 60, 0
1, 13956, Note_on_c, 0, 48, 55
1, 13959, Note_on_c, 0, 41, 0
1, 13981, Note_on_c, 0, 48, 0
1, 13985, Note_on_c, 0, 57, 57
1, 13995, Note_on_c, 0, 57, 0
1, 13997, Note_on_c, 0, 64, 0
1, 14016, Note_on_c, 0, 60, 52
1, 14044, Note_on_c, 0, 67, 64
1, 14047, Note_on_c, 0, 62, 51
1, 14063, Note_on_c, 0, 67, 0
1, 14075, Note_on_c, 0, 72, 73
1, 14091, Note_on_c, 0, 72, 0
1, 14098, Note_on_c, 0, 79, 74
1, 14108, Note_on_c, 0, 79, 0
1, 14111, Note_on_c, 0, 62, 0
1, 14114, Note_on_c, 0, 60, 0
1, 14126, Note_on_c, 0, 84, 85
1, 14135, Note_on_c, 0, 84, 0
1, 14155, Note_on_c, 0, 91, 70
1, 14156, Note_on_c, 0, 79, 57
1, 14157, Note_on_c, 0, 62, 55
1, 14157, Note_on_c, 0, 67, 55
1, 14157, Note_on_c, 0, 84, 60
1, 14157, Note_on_c, 0, 88, 61
1, 14157, Note_on_c, 0, 56, 47
1, 14159, Control_c, 0, 64, 0
1, 14175, Control_c, 0, 64, 127
1, 14181, Note_on_c, 0, 91, 0
1, 14183, Note_on_c, 0, 88, 0
1, 14192, Note_on_c, 0, 79, 0
1, 14197, Note_on_c, 0, 89, 66
1, 14200, Note_on_c, 0, 79, 26
1, 14220, Note_on_c, 0, 84, 0
1, 14227, Note_on_c, 0, 79, 0
1, 14231, Note_on_c, 0, 89, 0
1, 14232, Note_on_c, 0, 67, 0
1, 14236, Note_on_c, 0, 62, 0
1, 14239, Note_on_c, 0, 56, 0
1, 14281, Note_on_c, 0, 67, 40
1, 14283, Note_on_c, 0, 56, 26
1, 14285, Note_on_c, 0, 62, 32
1, 14285, Note_on_c, 0, 76, 53
1, 14292, Control_c, 0, 64, 0
1, 14295, Control_c, 0, 64, 127
1, 14321, Note_on_c, 0, 76, 0
1, 14322, Note_on_c, 0, 62, 0
1, 14326, Note_on_c, 0, 83, 60
1, 14328, Note_on_c, 0, 56, 0
1, 14331, Note_on_c, 0, 67, 0
1, 14347, Note_on_c, 0, 83, 0
1, 14357, Note_on_c, 0, 84, 72
1, 14376, Note_on_c, 0, 84, 0
1, 14384, Note_on_c, 0, 86, 58
1, 14400, Note_on_c, 0, 86, 0
1, 14407, Note_on_c, 0, 67, 47
1, 14411, Note_on_c, 0, 64, 42
1, 14412, Control_c, 0, 64, 0
1, 14412, Note_on_c, 0, 88, 52
1, 14414, Note_on_c, 0, 62, 36
1, 14424, Note_on_c, 0, 67, 0
1, 14426, Control_c, 0, 64, 127
1, 14442, Note_on_c, 0, 88, 0
1, 14448, Note_on_c, 0, 55, 62
1, 14486, Note_on_c, 0, 62, 0
1, 14487, Note_on_c, 0, 64, 0
1, 14529, Note_on_c, 0, 91, 82
1, 14532, Note_on_c, 0, 67, 57
1, 14532, Note_on_c, 0, 64, 53
1, 14534, Note_on_c, 0, 62, 38
1, 14537, Note_on_c, 0, 79, 71
1, 14548, Note_on_c, 0, 67, 0
1, 14554, Note_on_c, 0, 55, 0
1, 14567, Note_on_c, 0, 91, 0
1, 14577, Note_on_c, 0, 79, 0
1, 14578, Note_on_c, 0, 55, 72
1, 14615, Note_on_c, 0, 64, 0
1, 14616, Note_on_c, 0, 62, 0
1, 14617, Note_on_c, 0, 55, 0
1, 14652, Note_on_c, 0, 72, 74
1, 14656, Note_on_c, 0, 62, 53
1, 14656, Note_on_c, 0, 67, 77
1, 14657, Note_on_c, 0, 56, 51
1, 14659, Control_c, 0, 64, 0
1, 14659, Note_on_c, 0, 64, 66
1, 14676, Control_c, 0, 64, 127
1, 14704, Note_on_c, 0, 56, 0
1, 14722, Note_on_c, 0, 56, 21
1, 14725, Note_on_c, 0, 62, 0
1, 14726, Note_on_c, 0, 64, 0
1, 14739, Note_on_c, 0, 67, 0
1, 14747, Note_on_c, 0, 56, 0
1, 14774, Note_on_c, 0, 67, 49
1, 14774, Note_on_c, 0, 64, 46
1, 14779, Note_on_c, 0, 56, 29
1, 14779, Note_on_c, 0, 62, 31
1, 14794, Note_on_c, 0, 62, 0
1, 14808, Note_on_c, 0, 56, 0
1, 14825, Note_on_c, 0, 64, 0
1, 14833, Note_on_c, 0, 67, 0
1, 14836, Note_on_c, 0, 72, 0
1, 14886, Note_on_c, 0, 69, 53
1, 14888, Note_on_c, 0, 45, 48
1, 14890, Note_on_c, 0, 65, 38
1, 14893, Control_c, 0, 64, 0
1, 14904, Note_on_c, 0, 45, 0
1, 14909, Control_c, 0, 64, 127
1, 14924, Note_on_c, 0, 65, 0
1, 14925, Note_on_c, 0, 69, 0
1, 14953, Note_on_c, 0, 64, 62
1, 14953, Note_on_c, 0, 60, 52
1, 14954, Note_on_c, 0, 59, 47
1, 14955, Note_on_c, 0, 72, 36
1, 14965, Note_on_c, 0, 72, 0
1, 15012, Note_on_c, 0, 84, 90
1, 15012, Note_on_c, 0, 77, 82
1, 15017, Note_on_c, 0, 64, 0
1, 15021, Note_on_c, 0, 60, 0
1, 15022, Note_on_c, 0, 59, 0
1, 15070, Note_on_c, 0, 39, 77
1, 15076, Control_c, 0, 64, 0
1, 15078, Control_c, 0, 64, 127
1, 15085, Note_on_c, 0, 39, 0
1, 15107, Note_on_c, 0, 77, 0
1, 15124, Note_on_c, 0, 84, 0
1, 15134, Note_on_c, 0, 73, 70
1, 15136, Note_on_c, 0, 81, 70
1, 15136, Note_on_c, 0, 77, 73
1, 15137, Note_on_c, 0, 61, 50
1, 15138, Note_on_c, 0, 60, 47
1, 15138, Note_on_c, 0, 65, 56
1, 15197, Note_on_c, 0, 65, 0
1, 15205, Note_on_c, 0, 77, 0
1, 15207, Note_on_c, 0, 81, 0
1, 15208, Note_on_c, 0, 82, 20
1, 15220, Note_on_c, 0, 73, 0
1, 15247, Note_on_c, 0, 82, 0
1, 15247, Note_on_c, 0, 73, 46
1, 15250, Note_on_c, 0, 65, 40
1, 15256, Note_on_c, 0, 73, 0
1, 15287, Note_on_c, 0, 65, 0
1, 15294, Note_on_c, 0, 81, 65
1, 15299, Note_on_c, 0, 60, 0
1, 15309, Note_on_c, 0, 61, 0
1, 15311, Note_on_c, 0, 81, 0
1, 15329, Note_on_c, 0, 81, 60
1, 15342, Note_on_c, 0, 81, 0
1, 15362, Note_on_c, 0, 54, 36
1, 15363, Note_on_c, 0, 81, 53
1, 15364, Note_on_c, 0, 60, 33
1, 15366, Note_on_c, 0, 77, 37
1, 15367, Note_on_c, 0, 69, 31
1, 15367, Control_c, 0, 64, 0
1, 15370, Note_on_c, 0, 50, 34
1, 15384, Control_c, 0, 64, 127
1, 15412, Note_on_c, 0, 81, 0
1, 15417, Note_on_c, 0, 77, 0
1, 15417, Note_on_c, 0, 50, 0
1, 15427, Note_on_c, 0, 54, 0
1, 15427, Note_on_c, 0, 69, 0
1, 15428, Note_on_c, 0, 60, 0
1, 15486, Note_on_c, 0, 72, 53
1, 15488, Note_on_c, 0, 69, 48
1, 15489, Note_on_c, 0, 65, 34
1, 15507, Note_on_c, 0, 65, 0
1, 15527, Note_on_c, 0, 65, 54
1, 15566, Note_on_c, 0, 55, 44
1, 15568, Note_on_c, 0, 65, 0
1, 15573, Note_on_c, 0, 72, 0
1, 15574, Note_on_c, 0, 69, 0
1, 15578, Note_on_c, 0, 55, 0
1, 15606, Note_on_c, 0, 43, 53
1, 15612, Control_c, 0, 64, 0
1, 15621, Control_c, 0, 64, 127
1, 15649, Note_on_c, 0, 57, 45
1, 15651, Note_on_c, 0, 60, 52
1, 15653, Note_on_c, 0, 55, 47
1, 15671, Control_c, 0, 64, 0
1, 15677, Control_c, 0, 64, 127
1, 15700, Note_on_c, 0, 57, 0
1, 15704, Note_on_c, 0, 55, 0
1, 15707, Note_on_c, 0, 60, 0
1, 15727, Note_on_c, 0, 56, 50
1, 15728, Note_on_c, 0, 64, 51
1, 15730, Note_on_c, 0, 59, 53
1, 15731, Note_on_c, 0, 53, 31
1, 15739, Control_c, 0, 64, 0
1, 15755, Note_on_c, 0, 43, 0
1, 15770, Note_on_c, 0, 43, 49
1, 15784, Control_c, 0, 64, 127
1, 15810, Note_on_c, 0, 59, 0
1, 15810, Note_on_c, 0, 53, 0
1, 15814, Note_on_c, 0, 56, 0
1, 15830, Note_on_c, 0, 64, 0
1, 15847, Note_on_c, 0, 55, 42
1, 15847, Note_on_c, 0, 62, 49
1, 15847, Note_on_c, 0, 52, 31
1, 15848, Note_on_c, 0, 59, 35
1, 15851, Control_c, 0, 64, 0
1, 15866, Note_on_c, 0, 43, 0
1, 15879, Control_c, 0, 64, 127
1, 15888, Note_on_c, 0, 43, 51
1, 15918, Note_on_c, 0, 55, 0
1, 15922, Note_on_c, 0, 59, 0
1, 15924, Note_on_c, 0, 62, 0
1, 15960, Note_on_c, 0, 67, 52
1, 15960, Note_on_c, 0, 62, 57
1, 15961, Note_on_c, 0, 52, 0
1, 15961, Note_on_c, 0, 57, 45
1, 15967, Control_c, 0, 64, 0
1, 15986, Control_c, 0, 64, 127
1, 16005, Note_on_c, 0, 55, 85
1, 16043, Note_on_c, 0, 57, 0
1, 16049, Note_on_c, 0, 62, 0
1, 16077, Note_on_c, 0, 67, 0
1, 16083, Note_on_c, 0, 59, 49
1, 16085, Note_on_c, 0, 55, 0
1, 16085, Control_c, 0, 64, 0
1, 16085, Note_on_c, 0, 63, 43
1, 16101, Control_c, 0, 64, 127
1, 16126, Note_on_c, 0, 53, 57
1, 16133, Note_on_c, 0, 59, 0
1, 16140, Note_on_c, 0, 43, 0
1, 16145, Note_on_c, 0, 53, 0
1, 16149, Note_on_c, 0, 63, 0
1, 16208, Note_on_c, 0, 63, 55
1, 16211, Note_on_c, 0, 59, 50
1, 16211, Note_on_c, 0, 56, 37
1, 16212, Note_on_c, 0, 53, 42
1, 16212, Note_on_c, 0, 76, 91
1, 16213, Control_c, 0, 64, 0
1, 16227, Note_on_c, 0, 76, 0
1, 16237, Control_c, 0, 64, 127
1, 16253, Note_on_c, 0, 77, 83
1, 16261, Note_on_c, 0, 59, 0
1, 16266, Note_on_c, 0, 63, 0
1, 16266, Note_on_c, 0, 77, 0
1, 16274, Note_on_c, 0, 53, 0
1, 16276, Note_on_c, 0, 56, 0
1, 16276, Note_on_c, 0, 79, 82
1, 16298, Note_on_c, 0, 79, 0
1, 16314, Note_on_c, 0, 76, 70
1, 16330, Note_on_c, 0, 76, 0
1, 16330, Control_c, 0, 64, 0
1, 16338, Note_on_c, 0, 57, 34
1, 16340, Note_on_c, 0, 52, 38
1, 16340, Note_on_c, 0, 62, 22
1, 16340, Note_on_c, 0, 67, 43
1, 16349, Control_c, 0, 64, 127
1, 16367, Note_on_c, 0, 67, 0
1, 16376, Note_on_c, 0, 57, 0
1, 16377, Note_on_c, 0, 67, 34
1, 16379, Note_on_c, 0, 52, 0
1, 16388, Note_on_c, 0, 62, 0
1, 16392, Note_on_c, 0, 67, 0
1, 16404, Note_on_c, 0, 69, 37
1, 16433, Note_on_c, 0, 69, 0
1, 16440, Note_on_c, 0, 67, 33
1, 16447, Note_on_c, 0, 67, 0
1, 16458, Note_on_c, 0, 64, 29
1, 16460, Note_on_c, 0, 62, 31
1, 16460, Note_on_c, 0, 69, 50
1, 16461, Control_c, 0, 64, 0
1, 16468, Control_c, 0, 64, 127
1, 16493, Note_on_c, 0, 64, 0
1, 16499, Note_on_c, 0, 67, 41
1, 16500, Note_on_c, 0, 62, 0
1, 16503, Note_on_c, 0, 69, 0
1, 16541, Note_on_c, 0, 69, 51
1, 16544, Note_on_c, 0, 67, 0
1, 16558, Note_on_c, 0, 69, 0
1, 16562, Note_on_c, 0, 70, 65
1, 16573, Note_on_c, 0, 70, 0
1, 16573, Note_on_c, 0, 63, 39
1, 16575, Control_c, 0, 64, 0
1, 16576, Note_on_c, 0, 58, 36
1, 16576, Note_on_c, 0, 52, 43
1, 16583, Note_on_c, 0, 72, 47
1, 16600, Note_on_c, 0, 72, 0
1, 16600, Note_on_c, 0, 63, 0
1, 16602, Note_on_c, 0, 52, 0
1, 16603, Note_on_c, 0, 73, 56
1, 16608, Note_on_c, 0, 58, 0
1, 16618, Note_on_c, 0, 73, 0
1, 16623, Note_on_c, 0, 75, 53
1, 16632, Note_on_c, 0, 75, 0
1, 16639, Control_c, 0, 64, 127
1, 16640, Note_on_c, 0, 76, 58
1, 16650, Note_on_c, 0, 76, 0
1, 16657, Note_on_c, 0, 78, 60
1, 16662, Note_on_c, 0, 58, 39
1, 16662, Note_on_c, 0, 48, 59
1, 16669, Control_c, 0, 64, 0
1, 16670, Note_on_c, 0, 78, 0
1, 16672, Note_on_c, 0, 58, 0
1, 16676, Note_on_c, 0, 48, 0
1, 16677, Note_on_c, 0, 79, 56
1, 16689, Note_on_c, 0, 79, 0
1, 16698, Note_on_c, 0, 81, 64
1, 16709, Note_on_c, 0, 81, 0
1, 16716, Note_on_c, 0, 82, 70
1, 16729, Note_on_c, 0, 82, 0
1, 16735, Control_c, 0, 64, 127
1, 16736, Note_on_c, 0, 84, 80
1, 16736, Note_on_c, 0, 42, 51
1, 16740, Note_on_c, 0, 52, 44
1, 16747, Note_on_c, 0, 84, 0
1, 16750, Note_on_c, 0, 42, 0
1, 16752, Note_on_c, 0, 52, 0
1, 16756, Note_on_c, 0, 85, 71
1, 16772, Note_on_c, 0, 85, 0
1, 16774, Note_on_c, 0, 86, 56
1, 16790, Note_on_c, 0, 86, 0
1, 16795, Note_on_c, 0, 88, 34
1, 16802, Note_on_c, 0, 88, 0
1, 16803, Note_on_c, 0, 89, 64
1, 16807, Note_on_c, 0, 89, 0
1, 16810, Control_c, 0, 64, 0
1, 16814, Note_on_c, 0, 47, 53
1, 16815, Note_on_c, 0, 57, 45
1, 16818, Note_on_c, 0, 98, 79
1, 16830, Control_c, 0, 64, 127
1, 16842, Note_on_c, 0, 47, 0
1, 16848, Note_on_c, 0, 98, 0
1, 16850, Note_on_c, 0, 95, 59
1, 16851, Note_on_c, 0, 57, 0
1, 16861, Note_on_c, 0, 95, 0
1, 16922, Note_on_c, 0, 62, 29
1, 16923, Note_on_c, 0, 51, 31
1, 16924, Note_on_c, 0, 57, 36
1, 16971, Note_on_c, 0, 57, 0
1, 16973, Note_on_c, 0, 62, 0
1, 16977, Note_on_c, 0, 51, 0
1, 17045, Note_on_c, 0, 41, 56
1, 17046, Control_c, 0, 64, 0
1, 17055, Control_c, 0, 64, 127
1, 17056, Note_on_c, 0, 41, 0
1, 17166, Note_on_c, 0, 63, 30
1, 17166, Note_on_c, 0, 67, 44
1, 17166, Note_on_c, 0, 62, 36
1, 17168, Note_on_c, 0, 57, 42
1, 17214, Note_on_c, 0, 67, 0
1, 17217, Note_on_c, 0, 62, 0
1, 17221, Note_on_c, 0, 63, 0
1, 17221, Note_on_c, 0, 79, 72
1, 17227, Note_on_c, 0, 57, 0
1, 17232, Note_on_c, 0, 79, 0
1, 17255, Note_on_c, 0, 79, 81
1, 17270, Note_on_c, 0, 79, 0
1, 17291, Control_c, 0, 64, 0
1, 17291, Note_on_c, 0, 81, 83
1, 17292, Note_on_c, 0, 76, 79
1, 17292, Note_on_c, 0, 69, 83
1, 17292, Note_on_c, 0, 64, 49
1, 17292, Note_on_c, 0, 60, 32
1, 17293, Note_on_c, 0, 57, 44
1, 17293, Note_on_c, 0, 53, 46
1, 17308, Control_c, 0, 64, 127
1, 17313, Note_on_c, 0, 69, 0
1, 17318, Note_on_c, 0, 76, 0
1, 17319, Note_on_c, 0, 81, 0
1, 17352, Note_on_c, 0, 84, 85
1, 17355, Note_on_c, 0, 79, 72
1, 17355, Note_on_c, 0, 72, 73
1, 17363, Note_on_c, 0, 64, 0
1, 17364, Note_on_c, 0, 60, 0
1, 17364, Note_on_c, 0, 57, 0
1, 17367, Note_on_c, 0, 79, 0
1, 17369, Note_on_c, 0, 84, 0
1, 17371, Note_on_c, 0, 53, 0
1, 17375, Note_on_c, 0, 72, 0
1, 17406, Control_c, 0, 64, 0
1, 17408, Note_on_c, 0, 83, 74
1, 17410, Note_on_c, 0, 59, 33
1, 17410, Note_on_c, 0, 62, 39
1, 17410, Note_on_c, 0, 52, 40
1, 17410, Note_on_c, 0, 79, 60
1, 17412, Note_on_c, 0, 71, 56
1, 17412, Note_on_c, 0, 55, 38
1, 17413, Note_on_c, 0, 76, 52
1, 17426, Note_on_c, 0, 79, 0
1, 17426, Control_c, 0, 64, 127
1, 17428, Note_on_c, 0, 83, 0
1, 17429, Note_on_c, 0, 76, 0
1, 17433, Note_on_c, 0, 71, 0
1, 17452, Note_on_c, 0, 52, 0
1, 17453, Note_on_c, 0, 55, 0
1, 17458, Note_on_c, 0, 59, 0
1, 17462, Note_on_c, 0, 62, 0
1, 17468, Note_on_c, 0, 79, 56
1, 17469, Note_on_c, 0, 74, 66
1, 17471, Note_on_c, 0, 67, 48
1, 17484, Note_on_c, 0, 67, 0
1, 17490, Note_on_c, 0, 74, 0
1, 17493, Note_on_c, 0, 79, 0
1, 17526, Note_on_c, 0, 81, 78
1, 17529, Note_on_c, 0, 76, 76
1, 17531, Note_on_c, 0, 60, 39
1, 17531, Note_on_c, 0, 64, 43
1, 17532, Control_c, 0, 64, 0
1, 17533, Note_on_c, 0, 79, 36
1, 17534, Note_on_c, 0, 59, 38
1, 17534, Note_on_c, 0, 71, 54
1, 17550, Control_c, 0, 64, 127
1, 17558, Note_on_c, 0, 81, 0
1, 17564, Note_on_c, 0, 79, 0
1, 17566, Note_on_c, 0, 71, 0
1, 17571, Note_on_c, 0, 76, 0
1, 17586, Note_on_c, 0, 79, 65
1, 17587, Note_on_c, 0, 57, 47
1, 17590, Note_on_c, 0, 76, 48
1, 17591, Note_on_c, 0, 72, 54
1, 17596, Note_on_c, 0, 59, 0
1, 17604, Note_on_c, 0, 60, 0
1, 17606, Note_on_c, 0, 57, 0
1, 17606, Note_on_c, 0, 76, 0
1, 17608, Note_on_c, 0, 64, 0
1, 17608, Note_on_c, 0, 79, 0
1, 17611, Note_on_c, 0, 72, 0
1, 17649, Note_on_c, 0, 65, 54
1, 17650, Note_on_c, 0, 61, 32
1, 17651, Note_on_c, 0, 72, 51
1, 17651, Note_on_c, 0, 60, 30
1, 17653, Note_on_c, 0, 55, 41
1, 17654, Control_c, 0, 64, 0
1, 17675, Control_c, 0, 64, 127
1, 17720, Note_on_c, 0, 72, 0
1, 17721, Note_on_c, 0, 65, 0
1, 17729, Note_on_c, 0, 60, 0
1, 17732, Note_on_c, 0, 61, 0
1, 17734, Note_on_c, 0, 55, 0
1, 17736, Note_on_c, 0, 72, 53
1, 17746, Note_on_c, 0, 72, 0
1, 17766, Note_on_c, 0, 74, 58
1, 17768, Note_on_c, 0, 60, 32
1, 17769, Control_c, 0, 64, 0
1, 17769, Note_on_c, 0, 64, 26
1, 17771, Note_on_c, 0, 54, 39
1, 17772, Note_on_c, 0, 68, 20
1, 17789, Control_c, 0, 64, 127
1, 17791, Note_on_c, 0, 64, 0
1, 17801, Note_on_c, 0, 76, 58
1, 17801, Note_on_c, 0, 64, 53
1, 17802, Note_on_c, 0, 71, 17
1, 17806, Control_c, 0, 64, 0
1, 17808, Note_on_c, 0, 64, 0
1, 17809, Note_on_c, 0, 74, 0
1, 17810, Note_on_c, 0, 71, 0
1, 17811, Note_on_c, 0, 68, 0
1, 17812, Note_on_c, 0, 76, 0
1, 17814, Note_on_c, 0, 60, 0
1, 17815, Note_on_c, 0, 54, 0
1, 17843, Note_on_c, 0, 74, 55
1, 17844, Note_on_c, 0, 68, 36
1, 17845, Note_on_c, 0, 60, 40
1, 17845, Note_on_c, 0, 64, 36
1, 17846, Note_on_c, 0, 54, 40
1, 17847, Note_on_c, 0, 71, 40
1, 17859, Control_c, 0, 64, 127
1, 17863, Note_on_c, 0, 64, 0
1, 17868, Note_on_c, 0, 68, 0
1, 17870, Note_on_c, 0, 71, 0
1, 17872, Note_on_c, 0, 74, 0
1, 17874, Note_on_c, 0, 60, 0
1, 17883, Control_c, 0, 64, 0
1, 17883, Note_on_c, 0, 68, 46
1, 17883, Note_on_c, 0, 64, 45
1, 17883, Note_on_c, 0, 76, 50
1, 17885, Note_on_c, 0, 71, 40
1, 17885, Note_on_c, 0, 60, 20
1, 17888, Note_on_c, 0, 74, 29
1, 17894, Control_c, 0, 64, 127
1, 17898, Note_on_c, 0, 64, 0
1, 17909, Note_on_c, 0, 54, 0
1, 17917, Note_on_c, 0, 71, 0
1, 17920, Note_on_c, 0, 76, 0
1, 17927, Note_on_c, 0, 54, 48
1, 17948, Note_on_c, 0, 54, 0
1, 17956, Note_on_c, 0, 68, 0
1, 17956, Note_on_c, 0, 60, 0
1, 17974, Note_on_c, 0, 74, 0
1, 18000, Note_on_c, 0, 76, 41
1, 18001, Note_on_c, 0, 72, 30
1, 18002, Note_on_c, 0, 55, 34
1, 18002, Note_on_c, 0, 60, 32
1, 18002, Note_on_c, 0, 57, 35
1, 18002, Note_on_c, 0, 65, 36
1, 18004, Control_c, 0, 64, 0
1, 18007, Note_on_c, 0, 72, 0
1, 18012, Note_on_c, 0, 76, 0
1, 18041, Note_on_c, 0, 81, 58
1, 18048, Note_on_c, 0, 81, 0
1, 18056, Note_on_c, 0, 65, 0
1, 18059, Note_on_c, 0, 84, 50
1, 18064, Note_on_c, 0, 60, 0
1, 18066, Note_on_c, 0, 84, 0
1, 18067, Note_on_c, 0, 57, 0
1, 18070, Note_on_c, 0, 55, 0
1, 18078, Note_on_c, 0, 88, 64
1, 18087, Note_on_c, 0, 88, 0
1, 18097, Note_on_c, 0, 89, 82
1, 18105, Control_c, 0, 64, 127
1, 18110, Note_on_c, 0, 89, 0
1, 18117, Note_on_c, 0, 91, 84
1, 18118, Control_c, 0, 64, 0
1, 18120, Note_on_c, 0, 59, 40
1, 18121, Note_on_c, 0, 64, 34
1, 18123, Note_on_c, 0, 53, 34
1, 18136, Note_on_c, 0, 91, 0
1, 18143, Note_on_c, 0, 88, 68
1, 18146, Control_c, 0, 64, 127
1, 18149, Note_on_c, 0, 89, 26
1, 18154, Note_on_c, 0, 89, 0
1, 18155, Note_on_c, 0, 88, 0
1, 18168, Note_on_c, 0, 79, 42
1, 18182, Note_on_c, 0, 79, 0
1, 18191, Note_on_c, 0, 79, 58
1, 18201, Note_on_c, 0, 79, 0
1, 18209, Note_on_c, 0, 59, 0
1, 18210, Note_on_c, 0, 64, 0
1, 18220, Note_on_c, 0, 86, 47
1, 18220, Note_on_c, 0, 84, 72
1, 18224, Note_on_c, 0, 86, 0
1, 18230, Note_on_c, 0, 84, 0
1, 18232, Note_on_c, 0, 53, 0
1, 18238, Note_on_c, 0, 81, 75
1, 18242, Note_on_c, 0, 57, 27
1, 18243, Note_on_c, 0, 58, 36
1, 18246, Note_on_c, 0, 62, 27
1, 18249, Control_c, 0, 64, 0
1, 18253, Note_on_c, 0, 81, 0
1, 18259, Note_on_c, 0, 82, 54
1, 18273, Control_c, 0, 64, 127
1, 18306, Note_on_c, 0, 62, 0
1, 18306, Note_on_c, 0, 58, 0
1, 18318, Note_on_c, 0, 57, 0
1, 18323, Note_on_c, 0, 82, 0
1, 18366, Note_on_c, 0, 58, 32
1, 18366, Note_on_c, 0, 62, 33
1, 18367, Note_on_c, 0, 55, 38
1, 18402, Note_on_c, 0, 69, 94
1, 18415, Note_on_c, 0, 62, 0
1, 18419, Note_on_c, 0, 69, 0
1, 18422, Note_on_c, 0, 58, 0
1, 18435, Note_on_c, 0, 69, 88
1, 18450, Note_on_c, 0, 55, 0
1, 18452, Note_on_c, 0, 69, 0
1, 18464, Note_on_c, 0, 72, 78
1, 18480, Note_on_c, 0, 72, 0
1, 18492, Note_on_c, 0, 58, 31
1, 18493, Note_on_c, 0, 62, 32
1, 18494, Note_on_c, 0, 52, 40
1, 18495, Control_c, 0, 64, 0
1, 18496, Note_on_c, 0, 70, 63
1, 18513, Control_c, 0, 64, 127
1, 18517, Note_on_c, 0, 62, 0
1, 18522, Note_on_c, 0, 70, 0
1, 18525, Note_on_c, 0, 58, 0
1, 18528, Note_on_c, 0, 52, 0
1, 18532, Note_on_c, 0, 69, 67
1, 18549, Note_on_c, 0, 69, 0
1, 18605, Note_on_c, 0, 67, 56
1, 18606, Note_on_c, 0, 58, 31
1, 18609, Note_on_c, 0, 61, 28
1, 18611, Control_c, 0, 64, 0
1, 18612, Note_on_c, 0, 57, 18
1, 18630, Control_c, 0, 64, 127
1, 18631, Note_on_c, 0, 58, 0
1, 18638, Note_on_c, 0, 67, 0
1, 18646, Note_on_c, 0, 64, 49
1, 18647, Note_on_c, 0, 58, 33
1, 18650, Note_on_c, 0, 48, 32
1, 18651, Note_on_c, 0, 57, 0
1, 18658, Note_on_c, 0, 48, 0
1, 18679, Note_on_c, 0, 64, 0
1, 18684, Note_on_c, 0, 58, 0
1, 18687, Note_on_c, 0, 61, 0
1, 18693, Note_on_c, 0, 48, 24
1, 18722, Control_c, 0, 64, 0
1, 18724, Note_on_c, 0, 60, 52
1, 18725, Note_on_c, 0, 41, 41
1, 18725, Note_on_c, 0, 55, 45
1, 18727, Note_on_c, 0, 57, 37
1, 18737, Note_on_c, 0, 55, 0
1, 18739, Note_on_c, 0, 57, 0
1, 18739, Control_c, 0, 64, 127
1, 18744, Note_on_c, 0, 60, 0
1, 18773, Note_on_c, 0, 60, 56
1, 18780, Note_on_c, 0, 60, 0
1, 18781, Note_on_c, 0, 62, 60
1, 18786, Control_c, 0, 64, 0
1, 18791, Note_on_c, 0, 60, 44
1, 18795, Note_on_c, 0, 62, 0
1, 18802, Note_on_c, 0, 48, 0
1, 18805, Note_on_c, 0, 60, 0
1, 18807, Note_on_c, 0, 59, 41
1, 18809, Control_c, 0, 64, 127
1, 18817, Note_on_c, 0, 59, 0
1, 18837, Note_on_c, 0, 60, 66
1, 18842, Control_c, 0, 64, 0
1, 18845, Note_on_c, 0, 48, 34
1, 18848, Note_on_c, 0, 62, 64
1, 18888, Note_on_c, 0, 62, 0
1, 18888, Note_on_c, 0, 41, 0
1, 18889, Note_on_c, 0, 60, 0
1, 18894, Note_on_c, 0, 60, 30
1, 18897, Note_on_c, 0, 48, 0
1, 18900, Control_c, 0, 64, 127
1, 18938, Note_on_c, 0, 60, 30
1, 18950, Note_on_c, 0, 60, 0
1, 18950, Note_on_c, 0, 62, 50
1, 18956, Note_on_c, 0, 62, 0
1, 18968, Note_on_c, 0, 64, 60
1, 18969, Note_on_c, 0, 69, 42
1, 18969, Note_on_c, 0, 55, 39
1, 18970, Note_on_c, 0, 46, 34
1, 18970, Note_on_c, 0, 67, 45
1, 18972, Control_c, 0, 64, 0
1, 18986, Note_on_c, 0, 69, 0
1, 18986, Note_on_c, 0, 64, 0
1, 18989, Note_on_c, 0, 67, 0
1, 18994, Control_c, 0, 64, 127
1, 19001, Note_on_c, 0, 65, 42
1, 19002, Note_on_c, 0, 60, 30
1, 19003, Note_on_c, 0, 62, 26
1, 19009, Note_on_c, 0, 62, 0
1, 19013, Note_on_c, 0, 55, 0
1, 19014, Note_on_c, 0, 60, 0
1, 19022, Note_on_c, 0, 46, 0
1, 19033, Note_on_c, 0, 60, 0
1, 19041, Note_on_c, 0, 65, 0
1, 19092, Note_on_c, 0, 67, 37
1, 19094, Note_on_c, 0, 62, 37
1, 19095, Note_on_c, 0, 56, 34
1, 19134, Note_on_c, 0, 62, 0
1, 19136, Note_on_c, 0, 67, 0
1, 19141, Note_on_c, 0, 56, 0
1, 19180, Note_on_c, 0, 72, 49
1, 19185, Note_on_c, 0, 72, 0
1, 19188, Note_on_c, 0, 74, 58
1, 19200, Note_on_c, 0, 72, 39
1, 19201, Note_on_c, 0, 74, 0
1, 19212, Note_on_c, 0, 72, 0
1, 19212, Note_on_c, 0, 71, 37
1, 19219, Note_on_c, 0, 64, 28
1, 19221, Note_on_c, 0, 67, 24
1, 19222, Note_on_c, 0, 71, 0
1, 19222, Control_c, 0, 64, 0
1, 19226, Note_on_c, 0, 62, 16
1, 19230, Note_on_c, 0, 72, 62
1, 19247, Control_c, 0, 64, 127
1, 19249, Note_on_c, 0, 67, 0
1, 19264, Note_on_c, 0, 74, 62
1, 19269, Note_on_c, 0, 72, 0
1, 19292, Note_on_c, 0, 74, 0
1, 19293, Note_on_c, 0, 76, 69
1, 19293, Note_on_c, 0, 55, 58
1, 19327, Note_on_c, 0, 76, 0
1, 19332, Note_on_c, 0, 64, 0
1, 19355, Note_on_c, 0, 62, 0
1, 19369, Note_on_c, 0, 81, 74
1, 19370, Note_on_c, 0, 76, 74
1, 19376, Note_on_c, 0, 64, 34
1, 19376, Note_on_c, 0, 67, 24
1, 19377, Note_on_c, 0, 62, 14
1, 19390, Note_on_c, 0, 67, 0
1, 19394, Note_on_c, 0, 55, 0
1, 19399, Note_on_c, 0, 81, 0
1, 19404, Note_on_c, 0, 76, 0
1, 19408, Note_on_c, 0, 55, 58
1, 19417, Note_on_c, 0, 62, 0
1, 19418, Note_on_c, 0, 64, 0
1, 19452, Note_on_c, 0, 60, 55
1, 19453, Note_on_c, 0, 76, 76
1, 19454, Note_on_c, 0, 72, 75
1, 19454, Note_on_c, 0, 65, 58
1, 19457, Note_on_c, 0, 61, 46
1, 19458, Control_c, 0, 64, 0
1, 19483, Control_c, 0, 64, 127
1, 19486, Note_on_c, 0, 55, 0
1, 19499, Note_on_c, 0, 55, 53
1, 19530, Note_on_c, 0, 72, 0
1, 19542, Note_on_c, 0, 60, 0
1, 19546, Note_on_c, 0, 65, 0
1, 19556, Note_on_c, 0, 61, 0
1, 19575, Note_on_c, 0, 65, 45
1, 19576, Note_on_c, 0, 61, 32
1, 19577, Note_on_c, 0, 60, 34
1, 19591, Note_on_c, 0, 76, 0
1, 19616, Note_on_c, 0, 72, 59
1, 19623, Note_on_c, 0, 55, 0
1, 19636, Note_on_c, 0, 72, 0
1, 19653, Note_on_c, 0, 55, 45
1, 19655, Note_on_c, 0, 76, 57
1, 19656, Note_on_c, 0, 72, 34
1, 19667, Note_on_c, 0, 60, 0
1, 19667, Note_on_c, 0, 65, 0
1, 19668, Note_on_c, 0, 72, 0
1, 19676, Note_on_c, 0, 76, 0
1, 19676, Note_on_c, 0, 55, 0
1, 19680, Note_on_c, 0, 61, 0
1, 19693, Note_on_c, 0, 66, 46
1, 19693, Note_on_c, 0, 74, 54
1, 19694, Note_on_c, 0, 70, 50
1, 19695, Note_on_c, 0, 60, 31
1, 19696, Note_on_c, 0, 54, 34
1, 19698, Note_on_c, 0, 64, 30
1, 19699, Control_c, 0, 64, 0
1, 19722, Control_c, 0, 64, 127
1, 19726, Note_on_c, 0, 54, 0
1, 19733, Note_on_c, 0, 54, 31
1, 19763, Note_on_c, 0, 64, 0
1, 19778, Note_on_c, 0, 66, 0
1, 19794, Note_on_c, 0, 60, 0
1, 19800, Note_on_c, 0, 70, 0
1, 19811, Note_on_c, 0, 70, 40
1, 19813, Note_on_c, 0, 66, 51
1, 19815, Note_on_c, 0, 64, 30
1, 19816, Note_on_c, 0, 60, 31
1, 19822, Note_on_c, 0, 74, 0
1, 19832, Note_on_c, 0, 64, 0
1, 19834, Note_on_c, 0, 66, 0
1, 19838, Note_on_c, 0, 54, 0
1, 19838, Note_on_c, 0, 70, 0
1, 19849, Note_on_c, 0, 54, 47
1, 19854, Note_on_c, 0, 60, 0
1, 19868, Note_on_c, 0, 54, 0
1, 19888, Note_on_c, 0, 60, 65
1, 19899, Note_on_c, 0, 60, 0
1, 19923, Note_on_c, 0, 43, 70
1, 19961, Note_on_c, 0, 60, 70
1, 19962, Note_on_c, 0, 57, 75
1, 19971, Control_c, 0, 64, 0
1, 20002, Note_on_c, 0, 55, 101
1, 20019, Control_c, 0, 64, 127
1, 20025, Note_on_c, 0, 57, 0
1, 20031, Note_on_c, 0, 60, 0
1, 20046, Note_on_c, 0, 56, 77
1, 20047, Control_c, 0, 64, 0
1, 20047, Note_on_c, 0, 59, 72
1, 20047, Note_on_c, 0, 64, 65
1, 20053, Note_on_c, 0, 62, 27
1, 20066, Note_on_c, 0, 43, 0
1, 20070, Control_c, 0, 64, 127
1, 20086, Note_on_c, 0, 43, 76
1, 20101, Note_on_c, 0, 55, 0
1, 20117, Note_on_c, 0, 56, 0
1, 20123, Note_on_c, 0, 59, 0
1, 20124, Note_on_c, 0, 64, 0
1, 20126, Note_on_c, 0, 56, 47
1, 20128, Note_on_c, 0, 62, 0
1, 20138, Note_on_c, 0, 56, 0
1, 20165, Control_c, 0, 64, 0
1, 20167, Note_on_c, 0, 64, 54
1, 20170, Note_on_c, 0, 59, 58
1, 20170, Note_on_c, 0, 55, 53
1, 20170, Note_on_c, 0, 52, 44
1, 20183, Note_on_c, 0, 43, 0
1, 20184, Control_c, 0, 64, 127
1, 20187, Note_on_c, 0, 64, 0
1, 20188, Note_on_c, 0, 55, 0
1, 20193, Note_on_c, 0, 59, 0
1, 20207, Note_on_c, 0, 67, 67
1, 20209, Note_on_c, 0, 43, 44
1, 20209, Control_c, 0, 64, 0
1, 20214, Control_c, 0, 64, 127
1, 20221, Note_on_c, 0, 67, 0
1, 20224, Note_on_c, 0, 43, 0
1, 20228, Note_on_c, 0, 52, 0
1, 20292, Note_on_c, 0, 67, 49
1, 20293, Note_on_c, 0, 64, 42
1, 20300, Note_on_c, 0, 62, 16
1, 20312, Note_on_c, 0, 67, 0
1, 20319, Note_on_c, 0, 64, 0
1, 20320, Note_on_c, 0, 79, 35
1, 20325, Control_c, 0, 64, 0
1, 20326, Note_on_c, 0, 79, 0
1, 20326, Note_on_c, 0, 62, 0
1, 20330, Note_on_c, 0, 81, 59
1, 20338, Note_on_c, 0, 81, 0
1, 20344, Note_on_c, 0, 82, 31
1, 20348, Note_on_c, 0, 82, 0
1, 20351, Note_on_c, 0, 84, 52
1, 20360, Note_on_c, 0, 84, 0
1, 20362, Note_on_c, 0, 85, 49
1, 20371, Note_on_c, 0, 85, 0
1, 20382, Note_on_c, 0, 88, 51
1, 20388, Control_c, 0, 64, 127
1, 20389, Note_on_c, 0, 88, 0
1, 20394, Note_on_c, 0, 90, 57
1, 20403, Note_on_c, 0, 90, 0
1, 20404, Control_c, 0, 64, 0
1, 20407, Note_on_c, 0, 36, 36
1, 20407, Note_on_c, 0, 35, 31
1, 20410, Note_on_c, 0, 91, 57
1, 20412, Note_on_c, 0, 35, 0
1, 20412, Note_on_c, 0, 36, 0
1, 20422, Note_on_c, 0, 91, 0
1, 20424, Control_c, 0, 64, 127
1, 20431, Note_on_c, 0, 93, 71
1, 20441, Note_on_c, 0, 93, 0
1, 20450, Note_on_c, 0, 94, 67
1, 20460, Note_on_c, 0, 94, 0
1, 20462, Control_c, 0, 64, 0
1, 20466, Note_on_c, 0, 58, 47
1, 20466, Note_on_c, 0, 63, 50
1, 20467, Note_on_c, 0, 52, 47
1, 20469, Note_on_c, 0, 96, 70
1, 20474, Control_c, 0, 64, 127
1, 20479, Note_on_c, 0, 63, 0
1, 20483, Note_on_c, 0, 96, 0
1, 20488, Note_on_c, 0, 52, 0
1, 20490, Note_on_c, 0, 58, 0
1, 20492, Note_on_c, 0, 97, 64
1, 20501, Note_on_c, 0, 97, 0
1, 20511, Note_on_c, 0, 99, 64
1, 20520, Note_on_c, 0, 99, 0
1, 20528, Note_on_c, 0, 100, 65
1, 20532, Note_on_c, 0, 30, 53
1, 20543, Note_on_c, 0, 30, 0
1, 20547, Note_on_c, 0, 102, 54
1, 20549, Note_on_c, 0, 100, 0
1, 20562, Note_on_c, 0, 102, 0
1, 20564, Note_on_c, 0, 103, 62
1, 20581, Note_on_c, 0, 49, 31
1, 20583, Note_on_c, 0, 103, 0
1, 20583, Note_on_c, 0, 105, 42
1, 20586, Note_on_c, 0, 49, 0
1, 20598, Note_on_c, 0, 106, 69
1, 20599, Note_on_c, 0, 105, 0
1, 20609, Note_on_c, 0, 106, 0
1, 20611, Note_on_c, 0, 107, 51
1, 20625, Note_on_c, 0, 107, 0
1, 20629, Note_on_c, 0, 108, 69
1, 20643, Note_on_c, 0, 108, 0
1, 20649, Note_on_c, 0, 107, 64
1, 20653, Control_c, 0, 64, 0
1, 20659, Note_on_c, 0, 107, 0
1, 20663, Note_on_c, 0, 47, 40
1, 20663, Note_on_c, 0, 45, 42
1, 20668, Note_on_c, 0, 45, 0
1, 20669, Control_c, 0, 64, 127
1, 20685, Note_on_c, 0, 54, 58
1, 20711, Note_on_c, 0, 57, 68
1, 20725, Note_on_c, 0, 54, 0
1, 20735, Note_on_c, 0, 62, 68
1, 20749, Note_on_c, 0, 62, 0
1, 20758, Note_on_c, 0, 67, 68
1, 20771, Note_on_c, 0, 67, 0
1, 20782, Note_on_c, 0, 74, 84
1, 20783, Note_on_c, 0, 57, 0
1, 20804, Note_on_c, 0, 74, 0
1, 20811, Note_on_c, 0, 67, 52
1, 20813, Note_on_c, 0, 72, 29
1, 20814, Note_on_c, 0, 62, 40
1, 20831, Note_on_c, 0, 62, 0
1, 20839, Note_on_c, 0, 72, 0
1, 20840, Note_on_c, 0, 67, 0
1, 20848, Note_on_c, 0, 57, 22
1, 20856, Note_on_c, 0, 57, 0
1, 20883, Note_on_c, 0, 62, 53
1, 20885, Note_on_c, 0, 67, 48
1, 20886, Note_on_c, 0, 51, 37
1, 20889, Note_on_c, 0, 57, 32
1, 20896, Control_c, 0, 64, 0
1, 20916, Control_c, 0, 64, 127
1, 20947, Note_on_c, 0, 57, 0
1, 20950, Note_on_c, 0, 62, 0
1, 20959, Note_on_c, 0, 51, 0
1, 21008, Note_on_c, 0, 67, 0
1, 21009, Note_on_c, 0, 62, 49
1, 21011, Note_on_c, 0, 51, 36
1, 21011, Note_on_c, 0, 59, 37
1, 21013, Note_on_c, 0, 57, 24
1, 21028, Note_on_c, 0, 57, 0
1, 21035, Note_on_c, 0, 51, 0
1, 21037, Note_on_c, 0, 47, 0
1, 21039, Note_on_c, 0, 59, 0
1, 21047, Note_on_c, 0, 62, 0
1, 21049, Note_on_c, 0, 64, 61
1, 21073, Note_on_c, 0, 64, 0
1, 21080, Note_on_c, 0, 67, 44
1, 21093, Note_on_c, 0, 67, 0
1, 21104, Note_on_c, 0, 72, 74
1, 21114, Note_on_c, 0, 72, 0
1, 21134, Note_on_c, 0, 69, 61
1, 21135, Note_on_c, 0, 41, 41
1, 21135, Note_on_c, 0, 60, 45
1, 21135, Note_on_c, 0, 48, 55
1, 21136, Note_on_c, 0, 64, 52
1, 21139, Control_c, 0, 64, 0
1, 21160, Control_c, 0, 64, 127
1, 21165, Note_on_c, 0, 60, 0
1, 21169, Note_on_c, 0, 64, 0
1, 21171, Note_on_c, 0, 69, 0
1, 21171, Note_on_c, 0, 41, 0
1, 21175, Note_on_c, 0, 48, 0
1, 21199, Note_on_c, 0, 57, 72
1, 21201, Note_on_c, 0, 72, 81
1, 21201, Note_on_c, 0, 67, 88
1, 21202, Note_on_c, 0, 64, 82
1, 21206, Control_c, 0, 64, 0
1, 21220, Control_c, 0, 64, 127
1, 21235, Note_on_c, 0, 72, 0
1, 21237, Note_on_c, 0, 67, 0
1, 21242, Note_on_c, 0, 64, 0
1, 21257, Note_on_c, 0, 71, 62
1, 21258, Note_on_c, 0, 57, 0
1, 21258, Note_on_c, 0, 67, 61
1, 21259, Note_on_c, 0, 62, 43
1, 21259, Control_c, 0, 64, 0
1, 21262, Note_on_c, 0, 65, 41
1, 21262, Note_on_c, 0, 64, 36
1, 21262, Note_on_c, 0, 55, 55
1, 21267, Note_on_c, 0, 65, 0
1, 21277, Control_c, 0, 64, 127
1, 21278, Note_on_c, 0, 64, 0
1, 21281, Note_on_c, 0, 67, 0
1, 21284, Note_on_c, 0, 71, 0
1, 21288, Note_on_c, 0, 62, 0
1, 21312, Note_on_c, 0, 55, 0
1, 21316, Note_on_c, 0, 59, 24
1, 21317, Note_on_c, 0, 67, 36
1, 21318, Note_on_c, 0, 52, 38
1, 21318, Control_c, 0, 64, 0
1, 21318, Note_on_c, 0, 62, 34
1, 21335, Control_c, 0, 64, 127
1, 21341, Note_on_c, 0, 62, 0
1, 21341, Note_on_c, 0, 59, 0
1, 21343, Note_on_c, 0, 52, 0
1, 21349, Note_on_c, 0, 67, 0
1, 21374, Note_on_c, 0, 45, 47
1, 21375, Control_c, 0, 64, 0
1, 21375, Note_on_c, 0, 69, 50
1, 21375, Note_on_c, 0, 64, 48
1, 21376, Note_on_c, 0, 60, 32
1, 21389, Control_c, 0, 64, 127
1, 21391, Note_on_c, 0, 69, 0
1, 21394, Note_on_c, 0, 64, 0
1, 21398, Note_on_c, 0, 60, 0
1, 21428, Note_on_c, 0, 59, 37
1, 21429, Note_on_c, 0, 64, 49
1, 21429, Note_on_c, 0, 67, 42
1, 21430, Note_on_c, 0, 60, 48
1, 21436, Control_c, 0, 64, 0
1, 21441, Control_c, 0, 64, 127
1, 21447, Note_on_c, 0, 67, 0
1, 21449, Note_on_c, 0, 64, 0
1, 21451, Note_on_c, 0, 60, 0
1, 21453, Note_on_c, 0, 59, 0
1, 21467, Note_on_c, 0, 45, 0
1, 21488, Note_on_c, 0, 45, 36
1, 21489, Control_c, 0, 64, 0
1, 21489, Note_on_c, 0, 52, 39
1, 21498, Note_on_c, 0, 52, 0
1, 21498, Note_on_c, 0, 45, 0
1, 21502, Control_c, 0, 64, 127
1, 21544, Note_on_c, 0, 72, 68
1, 21544, Note_on_c, 0, 65, 71
1, 21545, Note_on_c, 0, 61, 55
1, 21548, Control_c, 0, 64, 0
1, 21551, Note_on_c, 0, 52, 20
1, 21557, Note_on_c, 0, 52, 0
1, 21557, Control_c, 0, 64, 127
1, 21561, Note_on_c, 0, 65, 0
1, 21567, Note_on_c, 0, 72, 0
1, 21574, Note_on_c, 0, 61, 0
1, 21600, Note_on_c, 0, 68, 52
1, 21601, Control_c, 0, 64, 0
1, 21602, Note_on_c, 0, 74, 56
1, 21602, Note_on_c, 0, 64, 57
1, 21602, Note_on_c, 0, 71, 53
1, 21602, Note_on_c, 0, 54, 50
1, 21604, Note_on_c, 0, 60, 32
1, 21619, Control_c, 0, 64, 127
1, 21638, Note_on_c, 0, 54, 0
1, 21642, Note_on_c, 0, 60, 0
1, 21645, Note_on_c, 0, 64, 0
1, 21651, Note_on_c, 0, 74, 0
1, 21661, Note_on_c, 0, 71, 0
1, 21663, Note_on_c, 0, 68, 0
1, 21717, Note_on_c, 0, 68, 62
1, 21717, Note_on_c, 0, 76, 66
1, 21718, Note_on_c, 0, 65, 57
1, 21718, Note_on_c, 0, 64, 57
1, 21719, Note_on_c, 0, 71, 58
1, 21744, Note_on_c, 0, 65, 0
1, 21750, Note_on_c, 0, 71, 0
1, 21751, Note_on_c, 0, 76, 0
1, 21756, Note_on_c, 0, 64, 0
1, 21757, Note_on_c, 0, 74, 55
1, 21758, Note_on_c, 0, 62, 35
1, 21760, Note_on_c, 0, 65, 30
1, 21784, Note_on_c, 0, 65, 0
1, 21789, Note_on_c, 0, 68, 0
1, 21790, Note_on_c, 0, 62, 0
1, 21791, Note_on_c, 0, 74, 0
1, 21794, Note_on_c, 0, 61, 25
1, 21816, Control_c, 0, 64, 0
1, 21822, Note_on_c, 0, 61, 0
1, 21824, Note_on_c, 0, 60, 45
1, 21824, Note_on_c, 0, 76, 52
1, 21824, Note_on_c, 0, 65, 48
1, 21825, Note_on_c, 0, 69, 57
1, 21826, Note_on_c, 0, 72, 46
1, 21831, Control_c, 0, 64, 127
1, 21839, Note_on_c, 0, 65, 0
1, 21840, Note_on_c, 0, 69, 0
1, 21845, Note_on_c, 0, 72, 0
1, 21845, Note_on_c, 0, 76, 0
1, 21853, Note_on_c, 0, 60, 0
1, 21860, Note_on_c, 0, 79, 71
1, 21860, Note_on_c, 0, 57, 46
1, 21867, Control_c, 0, 64, 0
1, 21873, Control_c, 0, 64, 127
1, 21874, Note_on_c, 0, 79, 0
1, 21891, Note_on_c, 0, 57, 0
1, 21895, Note_on_c, 0, 76, 52
1, 21897, Note_on_c, 0, 62, 32
1, 21898, Control_c, 0, 64, 0
1, 21900, Note_on_c, 0, 72, 33
1, 21900, Note_on_c, 0, 69, 31
1, 21902, Note_on_c, 0, 62, 0
1, 21902, Note_on_c, 0, 65, 18
1, 21909, Note_on_c, 0, 69, 0
1, 21910, Note_on_c, 0, 76, 0
1, 21911, Note_on_c, 0, 72, 0
1, 21911, Note_on_c, 0, 65, 0
1, 21918, Control_c, 0, 64, 127
1, 21933, Control_c, 0, 64, 0
1, 21937, Note_on_c, 0, 43, 53
1, 21950, Control_c, 0, 64, 127
1, 21971, Note_on_c, 0, 54, 51
1, 21975, Note_on_c, 0, 69, 60
1, 21975, Note_on_c, 0, 63, 55
1, 21980, Control_c, 0, 64, 0
1, 21982, Note_on_c, 0, 69, 0
1, 21990, Control_c, 0, 64, 127
1, 21998, Note_on_c, 0, 63, 0
1, 21999, Note_on_c, 0, 54, 0
1, 22014, Control_c, 0, 64, 0
1, 22014, Note_on_c, 0, 68, 62
1, 22014, Note_on_c, 0, 63, 57
1, 22015, Note_on_c, 0, 59, 43
1, 22016, Note_on_c, 0, 53, 48
1, 22031, Control_c, 0, 64, 127
1, 22037, Note_on_c, 0, 43, 0
1, 22041, Note_on_c, 0, 59, 0
1, 22041, Note_on_c, 0, 68, 0
1, 22044, Note_on_c, 0, 63, 0
1, 22045, Note_on_c, 0, 53, 0
1, 22052, Control_c, 0, 64, 0
1, 22054, Note_on_c, 0, 59, 43
1, 22055, Note_on_c, 0, 63, 42
1, 22056, Note_on_c, 0, 67, 47
1, 22061, Control_c, 0, 64, 127
1, 22062, Note_on_c, 0, 67, 0
1, 22063, Note_on_c, 0, 59, 0
1, 22065, Note_on_c, 0, 63, 0
1, 22068, Note_on_c, 0, 54, 27
1, 22071, Note_on_c, 0, 44, 33
1, 22077, Note_on_c, 0, 54, 0
1, 22078, Note_on_c, 0, 44, 0
1, 22089, Control_c, 0, 64, 0
1, 22093, Note_on_c, 0, 58, 47
1, 22093, Note_on_c, 0, 53, 30
1, 22094, Note_on_c, 0, 43, 28
1, 22095, Note_on_c, 0, 65, 59
1, 22096, Note_on_c, 0, 62, 49
1, 22106, Control_c, 0, 64, 127
1, 22117, Note_on_c, 0, 43, 0
1, 22119, Note_on_c, 0, 53, 0
1, 22127, Note_on_c, 0, 58, 0
1, 22135, Note_on_c, 0, 62, 0
1, 22145, Note_on_c, 0, 65, 0
1, 22212, Note_on_c, 0, 58, 33
1, 22213, Note_on_c, 0, 62, 33
1, 22214, Note_on_c, 0, 60, 34
1, 22247, Note_on_c, 0, 67, 77
1, 22264, Note_on_c, 0, 67, 0
1, 22266, Note_on_c, 0, 62, 0
1, 22267, Note_on_c, 0, 60, 0
1, 22278, Note_on_c, 0, 69, 82
1, 22281, Note_on_c, 0, 58, 0
1, 22294, Note_on_c, 0, 69, 0
1, 22298, Note_on_c, 0, 67, 64
1, 22307, Note_on_c, 0, 67, 0
1, 22373, Note_on_c, 0, 70, 67
1, 22374, Note_on_c, 0, 64, 65
1, 22375, Note_on_c, 0, 66, 51
1, 22376, Note_on_c, 0, 56, 60
1, 22377, Note_on_c, 0, 60, 30
1, 22379, Control_c, 0, 64, 0
1, 22390, Note_on_c, 0, 60, 0
1, 22392, Control_c, 0, 64, 127
1, 22393, Note_on_c, 0, 64, 0
1, 22395, Note_on_c, 0, 66, 0
1, 22400, Note_on_c, 0, 70, 0
1, 22411, Note_on_c, 0, 56, 0
1, 22433, Control_c, 0, 64, 0
1, 22434, Note_on_c, 0, 58, 60
1, 22434, Note_on_c, 0, 72, 70
1, 22434, Note_on_c, 0, 68, 56
1, 22435, Note_on_c, 0, 66, 51
1, 22435, Note_on_c, 0, 64, 67
1, 22447, Control_c, 0, 64, 127
1, 22448, Note_on_c, 0, 72, 0
1, 22449, Note_on_c, 0, 66, 0
1, 22449, Note_on_c, 0, 68, 0
1, 22464, Note_on_c, 0, 64, 0
1, 22481, Note_on_c, 0, 75, 67
1, 22483, Note_on_c, 0, 72, 66
1, 22483, Note_on_c, 0, 68, 59
1, 22483, Note_on_c, 0, 64, 63
1, 22484, Note_on_c, 0, 63, 40
1, 22485, Control_c, 0, 64, 0
1, 22487, Note_on_c, 0, 58, 0
1, 22495, Control_c, 0, 64, 127
1, 22501, Note_on_c, 0, 72, 0
1, 22503, Note_on_c, 0, 64, 0
1, 22504, Note_on_c, 0, 68, 0
1, 22506, Note_on_c, 0, 63, 0
1, 22509, Note_on_c, 0, 75, 0
1, 22520, Control_c, 0, 64, 0
1, 22522, Note_on_c, 0, 73, 59
1, 22522, Note_on_c, 0, 68, 60
1, 22523, Note_on_c, 0, 61, 49
1, 22524, Note_on_c, 0, 64, 56
1, 22526, Control_c, 0, 64, 127
1, 22538, Note_on_c, 0, 73, 0
1, 22539, Note_on_c, 0, 68, 0
1, 22541, Note_on_c, 0, 64, 0
1, 22552, Note_on_c, 0, 61, 0
1, 22556, Control_c, 0, 64, 0
1, 22560, Note_on_c, 0, 72, 54
1, 22562, Note_on_c, 0, 67, 49
1, 22562, Note_on_c, 0, 60, 32
1, 22566, Note_on_c, 0, 67, 0
1, 22569, Control_c, 0, 64, 127
1, 22570, Note_on_c, 0, 72, 0
1, 22573, Note_on_c, 0, 60, 0
1, 22602, Note_on_c, 0, 79, 63
1, 22604, Note_on_c, 0, 69, 64
1, 22604, Note_on_c, 0, 72, 64
1, 22604, Note_on_c, 0, 64, 54
1, 22604, Note_on_c, 0, 76, 63
1, 22607, Control_c, 0, 64, 0
1, 22619, Control_c, 0, 64, 127
1, 22631, Note_on_c, 0, 72, 0
1, 22633, Note_on_c, 0, 79, 0
1, 22634, Note_on_c, 0, 76, 0
1, 22634, Note_on_c, 0, 69, 0
1, 22647, Note_on_c, 0, 64, 0
1, 22647, Note_on_c, 0, 77, 52
1, 22647, Note_on_c, 0, 69, 48
1, 22649, Note_on_c, 0, 72, 65
1, 22649, Note_on_c, 0, 62, 50
1, 22661, Note_on_c, 0, 72, 0
1, 22664, Note_on_c, 0, 77, 0
1, 22665, Note_on_c, 0, 69, 0
1, 22674, Note_on_c, 0, 62, 0
1, 22691, Note_on_c, 0, 60, 46
1, 22691, Note_on_c, 0, 76, 36
1, 22692, Control_c, 0, 64, 0
1, 22692, Note_on_c, 0, 65, 40
1, 22694, Note_on_c, 0, 72, 33
1, 22695, Note_on_c, 0, 69, 32
1, 22696, Note_on_c, 0, 71, 28
1, 22697, Control_c, 0, 64, 127
1, 22700, Note_on_c, 0, 72, 0
1, 22701, Note_on_c, 0, 69, 0
1, 22701, Note_on_c, 0, 71, 0
1, 22702, Note_on_c, 0, 76, 0
1, 22705, Note_on_c, 0, 65, 0
1, 22721, Note_on_c, 0, 60, 0
1, 22730, Note_on_c, 0, 72, 47
1, 22732, Note_on_c, 0, 69, 44
1, 22733, Note_on_c, 0, 57, 38
1, 22734, Note_on_c, 0, 62, 36
1, 22734, Note_on_c, 0, 65, 36
1, 22746, Note_on_c, 0, 65, 0
1, 22746, Note_on_c, 0, 62, 0
1, 22748, Note_on_c, 0, 69, 0
1, 22757, Note_on_c, 0, 72, 0
1, 22771, Note_on_c, 0, 57, 0
1, 22771, Note_on_c, 0, 69, 39
1, 22772, Note_on_c, 0, 62, 36
1, 22773, Note_on_c, 0, 53, 38
1, 22776, Note_on_c, 0, 69, 0
1, 22779, Note_on_c, 0, 53, 0
1, 22779, Note_on_c, 0, 62, 0
1, 22814, Note_on_c, 0, 46, 46
1, 22815, Note_on_c, 0, 67, 49
1, 22815, Note_on_c, 0, 64, 47
1, 22815, Note_on_c, 0, 60, 35
1, 22816, Note_on_c, 0, 55, 47
1, 22818, Control_c, 0, 64, 0
1, 22829, Note_on_c, 0, 55, 0
1, 22839, Control_c, 0, 64, 127
1, 22845, Note_on_c, 0, 64, 0
1, 22849, Note_on_c, 0, 60, 0
1, 22856, Note_on_c, 0, 67, 0
1, 22858, Note_on_c, 0, 64, 50
1, 22861, Note_on_c, 0, 60, 48
1, 22863, Note_on_c, 0, 55, 34
1, 22884, Note_on_c, 0, 64, 0
1, 22890, Note_on_c, 0, 55, 0
1, 22897, Note_on_c, 0, 60, 0
1, 22932, Note_on_c, 0, 65, 47
1, 22933, Note_on_c, 0, 56, 35
1, 22933, Note_on_c, 0, 60, 55
1, 22934, Note_on_c, 0, 62, 46
1, 22935, Note_on_c, 0, 55, 33
1, 22941, Control_c, 0, 64, 0
1, 22956, Note_on_c, 0, 46, 0
1, 22962, Control_c, 0, 64, 127
1, 22974, Note_on_c, 0, 46, 49
1, 22983, Note_on_c, 0, 55, 0
1, 23006, Note_on_c, 0, 46, 0
1, 23014, Note_on_c, 0, 56, 0
1, 23015, Note_on_c, 0, 60, 0
1, 23019, Note_on_c, 0, 62, 0
1, 23029, Note_on_c, 0, 65, 0
1, 23050, Note_on_c, 0, 64, 51
1, 23052, Note_on_c, 0, 55, 36
1, 23054, Note_on_c, 0, 59, 35
1, 23054, Note_on_c, 0, 52, 33
1, 23055, Control_c, 0, 64, 0
1, 23056, Note_on_c, 0, 43, 32
1, 23069, Note_on_c, 0, 55, 0
1, 23073, Control_c, 0, 64, 127
1, 23079, Note_on_c, 0, 43, 0
1, 23082, Note_on_c, 0, 59, 0
1, 23088, Note_on_c, 0, 52, 0
1, 23095, Note_on_c, 0, 64, 0
1, 23168, Note_on_c, 0, 72, 94
1, 23169, Note_on_c, 0, 67, 54
1, 23171, Note_on_c, 0, 64, 48
1, 23172, Note_on_c, 0, 62, 47
1, 23192, Note_on_c, 0, 67, 0
1, 23195, Note_on_c, 0, 72, 0
1, 23207, Note_on_c, 0, 64, 0
1, 23208, Note_on_c, 0, 74, 83
1, 23214, Note_on_c, 0, 62, 0
1, 23224, Note_on_c, 0, 74, 0
1, 23231, Note_on_c, 0, 76, 68
1, 23252, Note_on_c, 0, 76, 0
1, 23266, Note_on_c, 0, 79, 79
1, 23288, Note_on_c, 0, 79, 0
1, 23289, Note_on_c, 0, 74, 71
1, 23291, Note_on_c, 0, 55, 32
1, 23291, Note_on_c, 0, 60, 31
1, 23292, Note_on_c, 0, 64, 30
1, 23294, Note_on_c, 0, 57, 30
1, 23297, Control_c, 0, 64, 0
1, 23297, Note_on_c, 0, 75, 37
1, 23305, Note_on_c, 0, 75, 0
1, 23305, Note_on_c, 0, 74, 0
1, 23307, Note_on_c, 0, 76, 51
1, 23326, Note_on_c, 0, 76, 0
1, 23329, Control_c, 0, 64, 127
1, 23331, Note_on_c, 0, 72, 49
1, 23365, Note_on_c, 0, 64, 0
1, 23367, Note_on_c, 0, 72, 0
1, 23368, Note_on_c, 0, 60, 0
1, 23370, Note_on_c, 0, 72, 66
1, 23376, Note_on_c, 0, 55, 0
1, 23376, Note_on_c, 0, 57, 0
1, 23410, Note_on_c, 0, 57, 35
1, 23411, Note_on_c, 0, 58, 33
1, 23413, Note_on_c, 0, 62, 32
1, 23417, Control_c, 0, 64, 0
1, 23428, Control_c, 0, 64, 127
1, 23463, Note_on_c, 0, 62, 0
1, 23470, Note_on_c, 0, 58, 0
1, 23472, Note_on_c, 0, 57, 0
1, 23490, Note_on_c, 0, 72, 0
1, 23492, Note_on_c, 0, 72, 55
1, 23501, Note_on_c, 0, 72, 0
1, 23530, Note_on_c, 0, 42, 44
1, 23531, Note_on_c, 0, 69, 54
1, 23532, Note_on_c, 0, 72, 51
1, 23533, Control_c, 0, 64, 0
1, 23535, Note_on_c, 0, 52, 33
1, 23552, Control_c, 0, 64, 127
1, 23559, Note_on_c, 0, 42, 0
1, 23562, Note_on_c, 0, 52, 0
1, 23569, Note_on_c, 0, 69, 0
1, 23571, Note_on_c, 0, 64, 59
1, 23584, Note_on_c, 0, 64, 0
1, 23596, Note_on_c, 0, 72, 0
1, 23647, Note_on_c, 0, 81, 90
1, 23647, Note_on_c, 0, 84, 89
1, 23650, Note_on_c, 0, 60, 47
1, 23650, Note_on_c, 0, 64, 42
1, 23672, Note_on_c, 0, 64, 0
1, 23680, Note_on_c, 0, 84, 0
1, 23681, Note_on_c, 0, 60, 0
1, 23687, Note_on_c, 0, 72, 51
1, 23712, Note_on_c, 0, 72, 0
1, 23715, Note_on_c, 0, 81, 0
1, 23722, Note_on_c, 0, 47, 58
1, 23731, Note_on_c, 0, 47, 0
1, 23766, Note_on_c, 0, 86, 85
1, 23767, Note_on_c, 0, 79, 77
1, 23768, Note_on_c, 0, 74, 77
1, 23769, Note_on_c, 0, 57, 64
1, 23770, Note_on_c, 0, 62, 55
1, 23772, Note_on_c, 0, 64, 35
1, 23772, Note_on_c, 0, 51, 44
1, 23772, Control_c, 0, 64, 0
1, 23777, Note_on_c, 0, 64, 0
1, 23788, Control_c, 0, 64, 127
1, 23790, Note_on_c, 0, 86, 0
1, 23791, Note_on_c, 0, 74, 0
1, 23793, Note_on_c, 0, 79, 0
1, 23811, Note_on_c, 0, 83, 59
1, 23811, Note_on_c, 0, 71, 44
1, 23811, Note_on_c, 0, 76, 55
1, 23821, Note_on_c, 0, 62, 0
1, 23856, Note_on_c, 0, 57, 0
1, 23889, Note_on_c, 0, 62, 38
1, 23890, Note_on_c, 0, 57, 45
1, 23891, Note_on_c, 0, 83, 0
1, 23891, Note_on_c, 0, 76, 0
1, 23895, Note_on_c, 0, 71, 0
1, 23911, Note_on_c, 0, 62, 0
1, 23925, Note_on_c, 0, 51, 0
1, 23939, Note_on_c, 0, 57, 0
1, 24006, Note_on_c, 0, 67, 55
1, 24007, Note_on_c, 0, 71, 55
1, 24008, Note_on_c, 0, 64, 56
1, 24008, Note_on_c, 0, 62, 52
1, 24013, Control_c, 0, 64, 0
1, 24067, Control_c, 0, 64, 127
1, 24130, Note_on_c, 0, 59, 53
1, 24163, Note_on_c, 0, 67, 0
1, 24166, Note_on_c, 0, 64, 0
1, 24167, Note_on_c, 0, 62, 0
1, 24169, Note_on_c, 0, 71, 0
1, 24173, Note_on_c, 0, 69, 62
1, 24201, Note_on_c, 0, 69, 0
1, 24215, Note_on_c, 0, 67, 48
1, 24223, Note_on_c, 0, 67, 0
1, 24234, Note_on_c, 0, 69, 58
1, 24246, Note_on_c, 0, 69, 0
1, 24254, Control_c, 0, 64, 0
1, 24256, Note_on_c, 0, 47, 44
1, 24256, Note_on_c, 0, 71, 60
1, 24265, Note_on_c, 0, 59, 0
1, 24275, Control_c, 0, 64, 127
1, 24300, Note_on_c, 0, 59, 59
1, 24310, Note_on_c, 0, 59, 0
1, 24316, Note_on_c, 0, 71, 0
1, 24375, Note_on_c, 0, 72, 71
1, 24376, Note_on_c, 0, 67, 66
1, 24376, Note_on_c, 0, 64, 68
1, 24376, Note_on_c, 0, 59, 48
1, 24377, Control_c, 0, 64, 0
1, 24390, Control_c, 0, 64, 127
1, 24401, Note_on_c, 0, 47, 0
1, 24416, Note_on_c, 0, 47, 51
1, 24421, Note_on_c, 0, 72, 0
1, 24436, Note_on_c, 0, 64, 0
1, 24438, Note_on_c, 0, 67, 0
1, 24445, Note_on_c, 0, 47, 0
1, 24464, Note_on_c, 0, 64, 41
1, 24464, Note_on_c, 0, 71, 50
1, 24464, Note_on_c, 0, 67, 44
1, 24471, Note_on_c, 0, 64, 0
1, 24477, Note_on_c, 0, 67, 0
1, 24484, Note_on_c, 0, 71, 0
1, 24484, Note_on_c, 0, 47, 56
1, 24486, Note_on_c, 0, 59, 0
1, 24506, Note_on_c, 0, 69, 65
1, 24506, Control_c, 0, 64, 0
1, 24506, Note_on_c, 0, 60, 51
1, 24506, Note_on_c, 0, 65, 55
1, 24507, Note_on_c, 0, 57, 48
1, 24507, Note_on_c, 0, 51, 43
1, 24529, Control_c, 0, 64, 127
1, 24598, Note_on_c, 0, 60, 0
1, 24600, Note_on_c, 0, 57, 0
1, 24602, Note_on_c, 0, 65, 0
1, 24606, Note_on_c, 0, 51, 0
1, 24617, Note_on_c, 0, 65, 52
1, 24619, Note_on_c, 0, 57, 35
1, 24620, Note_on_c, 0, 51, 32
1, 24620, Note_on_c, 0, 60, 31
1, 24642, Note_on_c, 0, 69, 0
1, 24648, Note_on_c, 0, 47, 0
1, 24652, Note_on_c, 0, 65, 0
1, 24654, Note_on_c, 0, 60, 0
1, 24660, Note_on_c, 0, 47, 36
1, 24664, Note_on_c, 0, 67, 51
1, 24672, Control_c, 0, 64, 0
1, 24674, Note_on_c, 0, 57, 0
1, 24676, Control_c, 0, 64, 127
1, 24681, Note_on_c, 0, 67, 0
1, 24686, Note_on_c, 0, 51, 0
1, 24703, Note_on_c, 0, 65, 58
1, 24706, Note_on_c, 0, 62, 39
1, 24708, Note_on_c, 0, 51, 32
1, 24711, Note_on_c, 0, 62, 0
1, 24715, Note_on_c, 0, 65, 0
1, 24723, Note_on_c, 0, 67, 66
1, 24733, Note_on_c, 0, 67, 0
1, 24737, Control_c, 0, 64, 0
1, 24744, Note_on_c, 0, 69, 66
1, 24744, Note_on_c, 0, 65, 71
1, 24744, Note_on_c, 0, 60, 61
1, 24746, Note_on_c, 0, 57, 50
1, 24763, Control_c, 0, 64, 127
1, 24770, Note_on_c, 0, 47, 0
1, 24785, Note_on_c, 0, 47, 54
1, 24812, Note_on_c, 0, 60, 0
1, 24815, Note_on_c, 0, 69, 0
1, 24816, Note_on_c, 0, 65, 0
1, 24825, Note_on_c, 0, 57, 0
1, 24834, Note_on_c, 0, 51, 0
1, 24856, Control_c, 0, 64, 0
1, 24856, Note_on_c, 0, 67, 55
1, 24856, Note_on_c, 0, 71, 55
1, 24857, Note_on_c, 0, 51, 40
1, 24857, Note_on_c, 0, 62, 53
1, 24859, Note_on_c, 0, 57, 35
1, 24874, Note_on_c, 0, 67, 0
1, 24874, Control_c, 0, 64, 127
1, 24877, Note_on_c, 0, 71, 0
1, 24881, Note_on_c, 0, 47, 0
1, 24882, Note_on_c, 0, 62, 0
1, 24901, Note_on_c, 0, 47, 49
1, 24901, Note_on_c, 0, 65, 61
1, 24902, Note_on_c, 0, 69, 57
1, 24902, Note_on_c, 0, 60, 53
1, 24906, Control_c, 0, 64, 0
1, 24923, Control_c, 0, 64, 127
1, 24931, Note_on_c, 0, 65, 0
1, 24932, Note_on_c, 0, 57, 0
1, 24937, Note_on_c, 0, 51, 0
1, 24937, Note_on_c, 0, 60, 0
1, 24941, Note_on_c, 0, 69, 0
1, 24943, Note_on_c, 0, 47, 0
1, 24976, Note_on_c, 0, 68, 43
1, 24976, Note_on_c, 0, 63, 51
1, 24979, Note_on_c, 0, 40, 26
1, 24982, Note_on_c, 0, 52, 17
1, 24982, Control_c, 0, 64, 0
1, 25006, Control_c, 0, 64, 127
1, 25032, Note_on_c, 0, 40, 0
1, 25042, Note_on_c, 0, 52, 0
1, 25061, Note_on_c, 0, 63, 0
1, 25089, Note_on_c, 0, 63, 40
1, 25090, Note_on_c, 0, 59, 44
1, 25091, Note_on_c, 0, 52, 38
1, 25122, Note_on_c, 0, 52, 0
1, 25155, Note_on_c, 0, 59, 0
1, 25168, Note_on_c, 0, 63, 0
1, 25190, Note_on_c, 0, 68, 0
1, 25208, Control_c, 0, 64, 0
1, 25208, Note_on_c, 0, 59, 32
1, 25209, Note_on_c, 0, 64, 35
1, 25210, Note_on_c, 0, 49, 30
1, 25212, Note_on_c, 0, 56, 26
1, 25224, Control_c, 0, 64, 127
1, 25238, Note_on_c, 0, 59, 0
1, 25241, Note_on_c, 0, 49, 0
1, 25245, Note_on_c, 0, 56, 0
1, 25250, Note_on_c, 0, 64, 0
1, 25272, Note_on_c, 0, 59, 22
1, 25279, Note_on_c, 0, 59, 0
1, 25301, Note_on_c, 0, 61, 81
1, 25325, Note_on_c, 0, 61, 0
1, 25332, Note_on_c, 0, 64, 82
1, 25336, Note_on_c, 0, 56, 35
1, 25336, Note_on_c, 0, 59, 46
1, 25339, Control_c, 0, 64, 0
1, 25354, Control_c, 0, 64, 127
1, 25358, Note_on_c, 0, 64, 0
1, 25364, Note_on_c, 0, 66, 58
1, 25384, Note_on_c, 0, 66, 0
1, 25392, Note_on_c, 0, 59, 0
1, 25392, Note_on_c, 0, 64, 34
1, 25398, Note_on_c, 0, 56, 0
1, 25408, Note_on_c, 0, 64, 0
1, 25422, Note_on_c, 0, 66, 57
1, 25445, Note_on_c, 0, 66, 0
1, 25455, Note_on_c, 0, 69, 74
1, 25457, Note_on_c, 0, 42, 44
1, 25457, Control_c, 0, 64, 0
1, 25464, Note_on_c, 0, 42, 0
1, 25480, Note_on_c, 0, 69, 0
1, 25483, Control_c, 0, 64, 127
1, 25487, Note_on_c, 0, 72, 42
1, 25515, Note_on_c, 0, 72, 0
1, 25518, Note_on_c, 0, 69, 51
1, 25553, Note_on_c, 0, 69, 0
1, 25564, Note_on_c, 0, 64, 36
1, 25566, Note_on_c, 0, 54, 27
1, 25567, Note_on_c, 0, 57, 33
1, 25567, Note_on_c, 0, 60, 27
1, 25595, Note_on_c, 0, 64, 0
1, 25599, Note_on_c, 0, 54, 0
1, 25602, Note_on_c, 0, 57, 0
1, 25603, Note_on_c, 0, 60, 0
1, 25606, Note_on_c, 0, 72, 40
1, 25622, Note_on_c, 0, 72, 0
1, 25646, Note_on_c, 0, 84, 89
1, 25678, Note_on_c, 0, 84, 0
1, 25685, Note_on_c, 0, 83, 72
1, 25685, Note_on_c, 0, 47, 51
1, 25691, Control_c, 0, 64, 0
1, 25708, Control_c, 0, 64, 127
1, 25721, Note_on_c, 0, 83, 0
1, 25724, Note_on_c, 0, 47, 0
1, 25724, Note_on_c, 0, 78, 48
1, 25743, Note_on_c, 0, 78, 0
1, 25765, Note_on_c, 0, 81, 90
1, 25801, Note_on_c, 0, 62, 41
1, 25802, Note_on_c, 0, 51, 33
1, 25805, Note_on_c, 0, 57, 38
1, 25838, Note_on_c, 0, 57, 0
1, 25838, Note_on_c, 0, 62, 0
1, 25847, Note_on_c, 0, 51, 0
1, 25849, Note_on_c, 0, 79, 63
1, 25860, Note_on_c, 0, 81, 0
1, 25880, Note_on_c, 0, 79, 0
1, 25885, Note_on_c, 0, 76, 48
1, 25896, Note_on_c, 0, 76, 0
1, 25923, Note_on_c, 0, 40, 45
1, 25924, Note_on_c, 0, 83, 76
1, 25926, Note_on_c, 0, 78, 61
1, 25928, Note_on_c, 0, 55, 52
1, 25930, Control_c, 0, 64, 0
1, 25944, Note_on_c, 0, 83, 0
1, 25948, Control_c, 0, 64, 127
1, 25956, Note_on_c, 0, 78, 0
1, 25958, Note_on_c, 0, 55, 0
1, 25966, Note_on_c, 0, 47, 41
1, 25966, Note_on_c, 0, 78, 42
1, 25967, Note_on_c, 0, 81, 61
1, 25968, Note_on_c, 0, 74, 64
1, 25971, Note_on_c, 0, 69, 49
1, 25980, Note_on_c, 0, 69, 0
1, 25991, Note_on_c, 0, 40, 0
1, 25996, Note_on_c, 0, 47, 0
1, 25996, Note_on_c, 0, 74, 0
1, 26000, Note_on_c, 0, 55, 57
1, 26001, Note_on_c, 0, 78, 0
1, 26005, Note_on_c, 0, 55, 0
1, 26008, Note_on_c, 0, 81, 0
1, 26030, Note_on_c, 0, 59, 58
1, 26063, Note_on_c, 0, 78, 63
1, 26064, Note_on_c, 0, 66, 67
1, 26064, Note_on_c, 0, 74, 72
1, 26065, Note_on_c, 0, 62, 61
1, 26100, Note_on_c, 0, 59, 0
1, 26112, Note_on_c, 0, 59, 45
1, 26125, Note_on_c, 0, 74, 0
1, 26129, Note_on_c, 0, 59, 0
1, 26131, Note_on_c, 0, 66, 0
1, 26132, Note_on_c, 0, 78, 0
1, 26143, Note_on_c, 0, 79, 65
1, 26144, Note_on_c, 0, 74, 63
1, 26145, Note_on_c, 0, 67, 62
1, 26150, Note_on_c, 0, 67, 0
1, 26153, Note_on_c, 0, 79, 0
1, 26156, Note_on_c, 0, 59, 30
1, 26157, Note_on_c, 0, 74, 0
1, 26166, Note_on_c, 0, 74, 71
1, 26166, Note_on_c, 0, 69, 67
1, 26167, Note_on_c, 0, 81, 60
1, 26174, Note_on_c, 0, 69, 0
1, 26174, Note_on_c, 0, 74, 0
1, 26176, Note_on_c, 0, 81, 0
1, 26187, Note_on_c, 0, 83, 62
1, 26187, Note_on_c, 0, 71, 60
1, 26188, Note_on_c, 0, 52, 58
1, 26189, Control_c, 0, 64, 0
1, 26191, Note_on_c, 0, 81, 35
1, 26192, Note_on_c, 0, 76, 25
1, 26199, Note_on_c, 0, 59, 0
1, 26204, Control_c, 0, 64, 127
1, 26221, Note_on_c, 0, 81, 0
1, 26223, Note_on_c, 0, 71, 0
1, 26225, Note_on_c, 0, 76, 0
1, 26226, Note_on_c, 0, 83, 0
1, 26236, Note_on_c, 0, 84, 73
1, 26241, Note_on_c, 0, 72, 29
1, 26241, Note_on_c, 0, 74, 26
1, 26243, Note_on_c, 0, 62, 0
1, 26257, Note_on_c, 0, 74, 0
1, 26271, Note_on_c, 0, 84, 0
1, 26276, Note_on_c, 0, 72, 0
1, 26292, Note_on_c, 0, 76, 24
1, 26292, Note_on_c, 0, 71, 36
1, 26293, Note_on_c, 0, 59, 34
1, 26295, Note_on_c, 0, 62, 24
1, 26332, Note_on_c, 0, 62, 0
1, 26334, Note_on_c, 0, 71, 0
1, 26334, Note_on_c, 0, 52, 0
1, 26335, Note_on_c, 0, 76, 0
1, 26342, Note_on_c, 0, 83, 53
1, 26346, Note_on_c, 0, 59, 0
1, 26346, Note_on_c, 0, 76, 51
1, 26360, Note_on_c, 0, 83, 0
1, 26361, Note_on_c, 0, 76, 0
1, 26377, Note_on_c, 0, 71, 41
1, 26388, Note_on_c, 0, 71, 0
1, 26406, Note_on_c, 0, 81, 44
1, 26408, Note_on_c, 0, 47, 45
1, 26408, Note_on_c, 0, 77, 44
1, 26409, Note_on_c, 0, 69, 36
1, 26411, Control_c, 0, 64, 0
1, 26428, Control_c, 0, 64, 127
1, 26440, Note_on_c, 0, 47, 0
1, 26516, Note_on_c, 0, 69, 0
1, 26524, Note_on_c, 0, 63, 35
1, 26525, Note_on_c, 0, 62, 45
1, 26526, Note_on_c, 0, 67, 45
1, 26528, Note_on_c, 0, 57, 42
1, 26544, Note_on_c, 0, 77, 0
1, 26558, Note_on_c, 0, 81, 0
1, 26573, Note_on_c, 0, 79, 75
1, 26574, Note_on_c, 0, 76, 73
1, 26615, Note_on_c, 0, 76, 0
1, 26615, Note_on_c, 0, 67, 0
1, 26616, Note_on_c, 0, 62, 0
1, 26618, Note_on_c, 0, 63, 0
1, 26623, Note_on_c, 0, 79, 0
1, 26640, Note_on_c, 0, 62, 44
1, 26641, Note_on_c, 0, 63, 37
1, 26642, Note_on_c, 0, 75, 77
1, 26642, Note_on_c, 0, 67, 43
1, 26642, Note_on_c, 0, 78, 62
1, 26654, Control_c, 0, 64, 0
1, 26659, Control_c, 0, 64, 127
1, 26680, Note_on_c, 0, 75, 0
1, 26685, Note_on_c, 0, 78, 0
1, 26697, Note_on_c, 0, 79, 73
1, 26698, Note_on_c, 0, 62, 0
1, 26698, Note_on_c, 0, 76, 79
1, 26699, Note_on_c, 0, 67, 0
1, 26703, Note_on_c, 0, 57, 0
1, 26710, Note_on_c, 0, 63, 0
1, 26724, Note_on_c, 0, 76, 0
1, 26731, Note_on_c, 0, 79, 0
1, 26752, Note_on_c, 0, 77, 71
1, 26752, Note_on_c, 0, 81, 68
1, 26754, Note_on_c, 0, 63, 55
1, 26754, Note_on_c, 0, 72, 68
1, 26756, Note_on_c, 0, 67, 48
1, 26767, Note_on_c, 0, 72, 0
1, 26771, Note_on_c, 0, 81, 0
1, 26771, Note_on_c, 0, 77, 0
1, 26815, Note_on_c, 0, 86, 78
1, 26816, Note_on_c, 0, 79, 75
1, 26816, Note_on_c, 0, 57, 38
1, 26821, Note_on_c, 0, 67, 0
1, 26832, Note_on_c, 0, 86, 0
1, 26834, Note_on_c, 0, 79, 0
1, 26837, Note_on_c, 0, 57, 0
1, 26838, Note_on_c, 0, 63, 0
1, 26871, Note_on_c, 0, 83, 57
1, 26871, Note_on_c, 0, 75, 40
1, 26873, Note_on_c, 0, 80, 52
1, 26873, Note_on_c, 0, 71, 46
1, 26878, Control_c, 0, 64, 0
1, 26896, Control_c, 0, 64, 127
1, 26912, Note_on_c, 0, 52, 52
1, 26921, Note_on_c, 0, 83, 0
1, 26926, Note_on_c, 0, 75, 0
1, 26929, Note_on_c, 0, 80, 0
1, 26930, Note_on_c, 0, 71, 0
1, 26947, Note_on_c, 0, 59, 31
1, 26975, Note_on_c, 0, 63, 53
1, 26988, Note_on_c, 0, 63, 0
1, 27005, Note_on_c, 0, 66, 60
1, 27008, Note_on_c, 0, 64, 53
1, 27033, Note_on_c, 0, 66, 0
1, 27035, Note_on_c, 0, 64, 0
1, 27038, Note_on_c, 0, 68, 72
1, 27055, Note_on_c, 0, 68, 0
1, 27069, Note_on_c, 0, 68, 76
1, 27089, Note_on_c, 0, 68, 0
1, 27099, Note_on_c, 0, 68, 36
1, 27099, Note_on_c, 0, 71, 65
1, 27104, Note_on_c, 0, 68, 0
1, 27114, Note_on_c, 0, 71, 0
1, 27126, Note_on_c, 0, 71, 55
1, 27127, Note_on_c, 0, 63, 43
1, 27148, Note_on_c, 0, 63, 0
1, 27148, Note_on_c, 0, 71, 0
1, 27154, Note_on_c, 0, 73, 60
1, 27170, Note_on_c, 0, 73, 0
1, 27172, Note_on_c, 0, 52, 0
1, 27184, Note_on_c, 0, 73, 59
1, 27196, Note_on_c, 0, 73, 0
1, 27214, Note_on_c, 0, 76, 59
1, 27227, Note_on_c, 0, 76, 0
1, 27245, Note_on_c, 0, 63, 44
1, 27245, Note_on_c, 0, 76, 64
1, 27251, Note_on_c, 0, 64, 29
1, 27261, Note_on_c, 0, 64, 0
1, 27263, Note_on_c, 0, 63, 0
1, 27271, Note_on_c, 0, 76, 0
1, 27279, Note_on_c, 0, 73, 45
1, 27291, Note_on_c, 0, 73, 0
1, 27310, Note_on_c, 0, 73, 62
1, 27320, Note_on_c, 0, 59, 0
1, 27332, Note_on_c, 0, 73, 0
1, 27369, Note_on_c, 0, 71, 60
1, 27371, Note_on_c, 0, 59, 48
1, 27372, Control_c, 0, 64, 0
1, 27374, Note_on_c, 0, 53, 39
1, 27392, Control_c, 0, 64, 127
1, 27395, Note_on_c, 0, 71, 0
1, 27404, Note_on_c, 0, 59, 0
1, 27407, Note_on_c, 0, 53, 0
1, 27427, Note_on_c, 0, 49, 64
1, 27428, Note_on_c, 0, 63, 57
1, 27428, Note_on_c, 0, 59, 69
1, 27429, Note_on_c, 0, 67, 70
1, 27443, Note_on_c, 0, 53, 22
1, 27444, Control_c, 0, 64, 0
1, 27452, Control_c, 0, 64, 127
1, 27460, Note_on_c, 0, 59, 0
1, 27468, Note_on_c, 0, 53, 0
1, 27469, Note_on_c, 0, 63, 0
1, 27477, Note_on_c, 0, 67, 0
1, 27486, Note_on_c, 0, 63, 6
1, 27488, Note_on_c, 0, 67, 53
1, 27489, Note_on_c, 0, 59, 67
1, 27495, Control_c, 0, 64, 0
1, 27504, Note_on_c, 0, 49, 0
1, 27513, Control_c, 0, 64, 127
1, 27543, Note_on_c, 0, 37, 56
1, 27558, Note_on_c, 0, 59, 0
1, 27559, Note_on_c, 0, 63, 0
1, 27573, Note_on_c, 0, 37, 0
1, 27598, Note_on_c, 0, 63, 33
1, 27600, Note_on_c, 0, 56, 34
1, 27601, Note_on_c, 0, 59, 51
1, 27606, Note_on_c, 0, 44, 31
1, 27611, Control_c, 0, 64, 0
1, 27627, Control_c, 0, 64, 127
1, 27657, Note_on_c, 0, 56, 0
1, 27657, Note_on_c, 0, 53, 32
1, 27658, Note_on_c, 0, 59, 0
1, 27700, Note_on_c, 0, 53, 0
1, 27703, Note_on_c, 0, 67, 0
1, 27711, Note_on_c, 0, 56, 50
1, 27712, Note_on_c, 0, 63, 0
1, 27714, Note_on_c, 0, 53, 29
1, 27721, Note_on_c, 0, 53, 0
1, 27725, Note_on_c, 0, 44, 0
1, 27727, Note_on_c, 0, 56, 0
1, 27739, Note_on_c, 0, 59, 53
1, 27753, Note_on_c, 0, 59, 0
1, 27766, Note_on_c, 0, 63, 57
1, 27783, Note_on_c, 0, 63, 0
1, 27795, Note_on_c, 0, 67, 37
1, 27807, Note_on_c, 0, 67, 0
1, 27831, Note_on_c, 0, 64, 49
1, 27831, Note_on_c, 0, 59, 43
1, 27831, Note_on_c, 0, 36, 41
1, 27832, Note_on_c, 0, 57, 29
1, 27833, Control_c, 0, 64, 0
1, 27834, Note_on_c, 0, 52, 55
1, 27834, Note_on_c, 0, 43, 28
1, 27855, Control_c, 0, 64, 127
1, 27869, Note_on_c, 0, 57, 0
1, 27871, Note_on_c, 0, 36, 0
1, 27877, Note_on_c, 0, 43, 0
1, 27882, Note_on_c, 0, 59, 0
1, 27887, Note_on_c, 0, 64, 0
1, 27891, Note_on_c, 0, 52, 0
1, 27968, Note_on_c, 0, 62, 30
1, 27969, Note_on_c, 0, 64, 32
1, 27981, Note_on_c, 0, 64, 0
1, 27988, Note_on_c, 0, 62, 0
1, 27989, Note_on_c, 0, 67, 46
1, 27997, Note_on_c, 0, 67, 0
1, 28002, Note_on_c, 0, 69, 36
1, 28006, Control_c, 0, 64, 0
1, 28008, Note_on_c, 0, 69, 0
1, 28013, Note_on_c, 0, 71, 63
1, 28017, Note_on_c, 0, 71, 0
1, 28028, Note_on_c, 0, 74, 66
1, 28035, Note_on_c, 0, 74, 0
1, 28038, Note_on_c, 0, 76, 63
1, 28042, Note_on_c, 0, 76, 0
1, 28053, Note_on_c, 0, 79, 59
1, 28061, Note_on_c, 0, 81, 32
1, 28064, Note_on_c, 0, 79, 0
1, 28068, Control_c, 0, 64, 127
1, 28069, Note_on_c, 0, 83, 48
1, 28070, Note_on_c, 0, 81, 0
1, 28076, Note_on_c, 0, 83, 0
1, 28086, Note_on_c, 0, 86, 59
1, 28092, Note_on_c, 0, 63, 34
1, 28092, Note_on_c, 0, 58, 37
1, 28095, Control_c, 0, 64, 0
1, 28097, Note_on_c, 0, 84, 71
1, 28099, Note_on_c, 0, 52, 35
1, 28102, Note_on_c, 0, 86, 0
1, 28111, Note_on_c, 0, 84, 0
1, 28123, Control_c, 0, 64, 127
1, 28134, Note_on_c, 0, 78, 55
1, 28141, Note_on_c, 0, 52, 0
1, 28145, Note_on_c, 0, 58, 0
1, 28149, Note_on_c, 0, 63, 0
1, 28159, Note_on_c, 0, 78, 0
1, 28161, Note_on_c, 0, 81, 76
1, 28185, Note_on_c, 0, 81, 0
1, 28191, Note_on_c, 0, 79, 79
1, 28206, Note_on_c, 0, 79, 0
1, 28219, Note_on_c, 0, 78, 44
1, 28219, Note_on_c, 0, 58, 23
1, 28220, Note_on_c, 0, 64, 35
1, 28225, Note_on_c, 0, 64, 0
1, 28226, Control_c, 0, 64, 0
1, 28228, Note_on_c, 0, 78, 0
1, 28228, Note_on_c, 0, 79, 65
1, 28232, Note_on_c, 0, 58, 0
1, 28237, Note_on_c, 0, 78, 44
1, 28240, Note_on_c, 0, 79, 0
1, 28249, Note_on_c, 0, 78, 0
1, 28251, Note_on_c, 0, 76, 37
1, 28263, Note_on_c, 0, 76, 0
1, 28278, Note_on_c, 0, 75, 57
1, 28281, Control_c, 0, 64, 127
1, 28295, Note_on_c, 0, 75, 0
1, 28307, Note_on_c, 0, 73, 56
1, 28331, Note_on_c, 0, 73, 0
1, 28337, Note_on_c, 0, 47, 34
1, 28337, Note_on_c, 0, 72, 46
1, 28344, Control_c, 0, 64, 0
1, 28365, Control_c, 0, 64, 127
1, 28370, Note_on_c, 0, 72, 0
1, 28374, Note_on_c, 0, 69, 32
1, 28393, Note_on_c, 0, 69, 0
1, 28406, Note_on_c, 0, 71, 42
1, 28454, Note_on_c, 0, 62, 24
1, 28454, Note_on_c, 0, 57, 28
1, 28475, Note_on_c, 0, 71, 0
1, 28484, Note_on_c, 0, 62, 0
1, 28498, Note_on_c, 0, 67, 58
1, 28501, Note_on_c, 0, 57, 0
1, 28567, Note_on_c, 0, 67, 0
1, 28568, Note_on_c, 0, 62, 54
1, 28570, Note_on_c, 0, 59, 40
1, 28570, Note_on_c, 0, 51, 34
1, 28576, Note_on_c, 0, 57, 19
1, 28580, Note_on_c, 0, 47, 0
1, 28582, Control_c, 0, 64, 0
1, 28599, Control_c, 0, 64, 127
1, 28653, Note_on_c, 0, 59, 0
1, 28679, Note_on_c, 0, 47, 48
1, 28692, Note_on_c, 0, 57, 0
1, 28694, Note_on_c, 0, 51, 0
1, 28699, Note_on_c, 0, 47, 0
1, 28714, Note_on_c, 0, 62, 0
1, 28762, Note_on_c, 0, 67, 69
1, 28762, Note_on_c, 0, 62, 76
1, 28772, Note_on_c, 0, 62, 0
1, 28775, Note_on_c, 0, 67, 0
1, 28781, Note_on_c, 0, 67, 46
1, 28782, Note_on_c, 0, 62, 60
1, 28791, Note_on_c, 0, 62, 0
1, 28792, Note_on_c, 0, 67, 0
1, 28803, Note_on_c, 0, 41, 40
1, 28804, Note_on_c, 0, 69, 82
1, 28804, Note_on_c, 0, 64, 84
1, 28806, Note_on_c, 0, 57, 58
1, 28807, Control_c, 0, 64, 0
1, 28822, Control_c, 0, 64, 127
1, 28824, Note_on_c, 0, 41, 0
1, 28827, Note_on_c, 0, 64, 0
1, 28829, Note_on_c, 0, 69, 0
1, 28835, Note_on_c, 0, 57, 0
1, 28868, Note_on_c, 0, 67, 88
1, 28868, Note_on_c, 0, 72, 84
1, 28868, Note_on_c, 0, 62, 84
1, 28872, Note_on_c, 0, 57, 45
1, 28872, Note_on_c, 0, 60, 47
1, 28898, Note_on_c, 0, 72, 0
1, 28904, Note_on_c, 0, 67, 0
1, 28904, Note_on_c, 0, 60, 0
1, 28905, Note_on_c, 0, 62, 0
1, 28907, Note_on_c, 0, 57, 0
1, 28926, Note_on_c, 0, 71, 78
1, 28927, Note_on_c, 0, 67, 78
1, 28928, Note_on_c, 0, 64, 76
1, 28928, Note_on_c, 0, 62, 79
1, 28930, Control_c, 0, 64, 0
1, 28938, Control_c, 0, 64, 127
1, 28949, Note_on_c, 0, 67, 0
1, 28950, Note_on_c, 0, 71, 0
1, 28954, Note_on_c, 0, 64, 0
1, 28956, Note_on_c, 0, 62, 0
1, 28983, Note_on_c, 0, 62, 62
1, 28984, Note_on_c, 0, 59, 60
1, 28984, Note_on_c, 0, 52, 47
1, 28984, Note_on_c, 0, 64, 60
1, 28984, Note_on_c, 0, 67, 60
1, 28998, Note_on_c, 0, 52, 0
1, 29002, Note_on_c, 0, 59, 0
1, 29004, Note_on_c, 0, 67, 0
1, 29006, Note_on_c, 0, 64, 0
1, 29007, Note_on_c, 0, 62, 0
1, 29041, Note_on_c, 0, 69, 78
1, 29041, Note_on_c, 0, 65, 74
1, 29042, Note_on_c, 0, 61, 67
1, 29044, Note_on_c, 0, 55, 48
1, 29044, Note_on_c, 0, 45, 46
1, 29045, Control_c, 0, 64, 0
1, 29064, Note_on_c, 0, 45, 0
1, 29064, Control_c, 0, 64, 127
1, 29071, Note_on_c, 0, 55, 0
1, 29085, Note_on_c, 0, 61, 0
1, 29086, Note_on_c, 0, 65, 0
1, 29089, Note_on_c, 0, 69, 0
1, 29103, Note_on_c, 0, 61, 57
1, 29103, Note_on_c, 0, 67, 68
1, 29103, Note_on_c, 0, 57, 47
1, 29104, Note_on_c, 0, 64, 70
1, 29124, Note_on_c, 0, 64, 0
1, 29124, Note_on_c, 0, 67, 0
1, 29125, Note_on_c, 0, 57, 0
1, 29130, Note_on_c, 0, 61, 0
1, 29166, Note_on_c, 0, 64, 76
1, 29167, Note_on_c, 0, 55, 50
1, 29169, Note_on_c, 0, 52, 49
1, 29172, Note_on_c, 0, 60, 33
1, 29176, Control_c, 0, 64, 0
1, 29195, Control_c, 0, 64, 127
1, 29200, Note_on_c, 0, 60, 0
1, 29211, Note_on_c, 0, 55, 0
1, 29223, Note_on_c, 0, 52, 0
1, 29229, Note_on_c, 0, 57, 44
1, 29229, Note_on_c, 0, 55, 46
1, 29230, Note_on_c, 0, 60, 44
1, 29250, Note_on_c, 0, 64, 0
1, 29253, Note_on_c, 0, 55, 0
1, 29256, Note_on_c, 0, 60, 0
1, 29264, Note_on_c, 0, 57, 0
1, 29291, Note_on_c, 0, 58, 39
1, 29291, Note_on_c, 0, 54, 37
1, 29291, Control_c, 0, 64, 0
1, 29292, Note_on_c, 0, 62, 44
1, 29292, Note_on_c, 0, 38, 40
1, 29292, Note_on_c, 0, 60, 46
1, 29311, Control_c, 0, 64, 127
1, 29313, Note_on_c, 0, 38, 0
1, 29321, Note_on_c, 0, 54, 0
1, 29328, Note_on_c, 0, 60, 0
1, 29329, Note_on_c, 0, 58, 0
1, 29332, Note_on_c, 0, 62, 0
1, 29356, Note_on_c, 0, 70, 21
1, 29360, Note_on_c, 0, 70, 0
1, 29406, Note_on_c, 0, 70, 65
1, 29407, Note_on_c, 0, 74, 70
1, 29407, Note_on_c, 0, 65, 60
1, 29408, Note_on_c, 0, 54, 48
1, 29410, Note_on_c, 0, 60, 37
1, 29414, Control_c, 0, 64, 0
1, 29418, Control_c, 0, 64, 127
1, 29429, Note_on_c, 0, 65, 0
1, 29432, Note_on_c, 0, 74, 0
1, 29438, Note_on_c, 0, 70, 0
1, 29453, Note_on_c, 0, 60, 0
1, 29453, Note_on_c, 0, 67, 54
1, 29453, Note_on_c, 0, 72, 57
1, 29454, Note_on_c, 0, 62, 47
1, 29454, Note_on_c, 0, 76, 48
1, 29456, Note_on_c, 0, 70, 47
1, 29472, Note_on_c, 0, 70, 0
1, 29473, Note_on_c, 0, 67, 0
1, 29477, Note_on_c, 0, 76, 0
1, 29478, Note_on_c, 0, 72, 0
1, 29483, Note_on_c, 0, 62, 0
1, 29488, Note_on_c, 0, 70, 56
1, 29490, Note_on_c, 0, 74, 55
1, 29491, Note_on_c, 0, 60, 35
1, 29493, Note_on_c, 0, 65, 48
1, 29499, Note_on_c, 0, 65, 0
1, 29509, Note_on_c, 0, 54, 0
1, 29514, Note_on_c, 0, 74, 0
1, 29516, Note_on_c, 0, 70, 0
1, 29520, Note_on_c, 0, 60, 0
1, 29526, Note_on_c, 0, 69, 60
1, 29526, Note_on_c, 0, 72, 56
1, 29526, Note_on_c, 0, 76, 56
1, 29526, Note_on_c, 0, 65, 38
1, 29527, Note_on_c, 0, 64, 47
1, 29528, Control_c, 0, 64, 0
1, 29546, Control_c, 0, 64, 127
1, 29559, Note_on_c, 0, 64, 0
1, 29560, Note_on_c, 0, 62, 55
1, 29574, Note_on_c, 0, 72, 0
1, 29581, Note_on_c, 0, 65, 0
1, 29581, Note_on_c, 0, 69, 0
1, 29589, Note_on_c, 0, 62, 0
1, 29592, Note_on_c, 0, 76, 0
1, 29593, Note_on_c, 0, 65, 43
1, 29594, Note_on_c, 0, 69, 42
1, 29594, Note_on_c, 0, 72, 53
1, 29595, Note_on_c, 0, 60, 42
1, 29597, Control_c, 0, 64, 0
1, 29605, Control_c, 0, 64, 127
1, 29610, Note_on_c, 0, 72, 0
1, 29611, Note_on_c, 0, 69, 0
1, 29614, Note_on_c, 0, 65, 0
1, 29614, Note_on_c, 0, 60, 0
1, 29654, Control_c, 0, 64, 0
1, 29655, Note_on_c, 0, 43, 62
1, 29682, Control_c, 0, 64, 127
1, 29686, Note_on_c, 0, 54, 37
1, 29701, Note_on_c, 0, 54, 0
1, 29710, Control_c, 0, 64, 0
1, 29715, Note_on_c, 0, 56, 48
1, 29717, Note_on_c, 0, 62, 49
1, 29718, Note_on_c, 0, 59, 51
1, 29721, Note_on_c, 0, 53, 34
1, 29726, Note_on_c, 0, 43, 0
1, 29730, Control_c, 0, 64, 127
1, 29735, Note_on_c, 0, 59, 0
1, 29737, Note_on_c, 0, 56, 0
1, 29738, Note_on_c, 0, 62, 0
1, 29746, Note_on_c, 0, 53, 0
1, 29747, Note_on_c, 0, 43, 34
1, 29768, Control_c, 0, 64, 0
1, 29772, Note_on_c, 0, 67, 54
1, 29772, Note_on_c, 0, 58, 51
1, 29772, Note_on_c, 0, 62, 64
1, 29776, Note_on_c, 0, 53, 38
1, 29781, Note_on_c, 0, 43, 0
1, 29783, Control_c, 0, 64, 127
1, 29791, Note_on_c, 0, 67, 0
1, 29793, Note_on_c, 0, 53, 0
1, 29801, Note_on_c, 0, 58, 0
1, 29801, Note_on_c, 0, 62, 0
1, 29815, Note_on_c, 0, 57, 54
1, 29816, Note_on_c, 0, 69, 75
1, 29816, Note_on_c, 0, 62, 57
1, 29816, Note_on_c, 0, 58, 54
1, 29817, Note_on_c, 0, 65, 61
1, 29821, Control_c, 0, 64, 0
1, 29845, Control_c, 0, 64, 127
1, 29874, Note_on_c, 0, 58, 0
1, 29874, Note_on_c, 0, 62, 0
1, 29878, Note_on_c, 0, 65, 0
1, 29879, Note_on_c, 0, 69, 0
1, 29883, Note_on_c, 0, 57, 0
1, 29885, Control_c, 0, 64, 0
1, 29887, Note_on_c, 0, 58, 39
1, 29891, Note_on_c, 0, 65, 36
1, 29891, Note_on_c, 0, 67, 43
1, 29891, Note_on_c, 0, 55, 33
1, 29894, Note_on_c, 0, 62, 20
1, 29900, Control_c, 0, 64, 127
1, 29903, Note_on_c, 0, 62, 0
1, 29909, Note_on_c, 0, 58, 0
1, 29910, Note_on_c, 0, 67, 0
1, 29911, Note_on_c, 0, 65, 0
1, 29921, Note_on_c, 0, 55, 0
1, 29923, Note_on_c, 0, 69, 51
1, 29923, Note_on_c, 0, 58, 38
1, 29923, Note_on_c, 0, 57, 50
1, 29924, Note_on_c, 0, 62, 38
1, 29926, Note_on_c, 0, 65, 29
1, 29927, Control_c, 0, 64, 0
1, 29933, Note_on_c, 0, 65, 0
1, 29935, Note_on_c, 0, 58, 0
1, 29936, Note_on_c, 0, 69, 0
1, 29936, Note_on_c, 0, 57, 0
1, 29937, Note_on_c, 0, 62, 0
1, 29942, Note_on_c, 0, 55, 37
1, 29948, Note_on_c, 0, 55, 0
1, 29951, Control_c, 0, 64, 127
1, 29983, Note_on_c, 0, 75, 67
1, 29983, Note_on_c, 0, 63, 70
1, 29983, Note_on_c, 0, 68, 63
1, 29983, Note_on_c, 0, 72, 64
1, 29983, Note_on_c, 0, 64, 72
1, 29991, Control_c, 0, 64, 0
1, 30009, Note_on_c, 0, 64, 0
1, 30010, Note_on_c, 0, 68, 0
1, 30010, Note_on_c, 0, 72, 0
1, 30015, Note_on_c, 0, 63, 0
1, 30017, Note_on_c, 0, 75, 0
1, 30037, Note_on_c, 0, 61, 57
1, 30038, Note_on_c, 0, 73, 52
1, 30038, Note_on_c, 0, 68, 60
1, 30038, Note_on_c, 0, 64, 66
1, 30053, Note_on_c, 0, 73, 0
1, 30054, Note_on_c, 0, 68, 0
1, 30058, Note_on_c, 0, 61, 0
1, 30061, Note_on_c, 0, 64, 0
1, 30062, Note_on_c, 0, 60, 32
1, 30067, Control_c, 0, 64, 127
1, 30072, Note_on_c, 0, 60, 0
1, 30099, Note_on_c, 0, 55, 60
1, 30108, Control_c, 0, 64, 0
1, 30114, Note_on_c, 0, 55, 0
1, 30120, Note_on_c, 0, 61, 46
1, 30121, Note_on_c, 0, 64, 48
1, 30124, Note_on_c, 0, 57, 35
1, 30126, Note_on_c, 0, 64, 0
1, 30132, Note_on_c, 0, 57, 0
1, 30133, Control_c, 0, 64, 127
1, 30136, Note_on_c, 0, 61, 0
1, 30158, Note_on_c, 0, 61, 54
1, 30159, Control_c, 0, 64, 0
1, 30159, Note_on_c, 0, 69, 51
1, 30159, Note_on_c, 0, 55, 55
1, 30159, Note_on_c, 0, 58, 51
1, 30161, Note_on_c, 0, 64, 47
1, 30168, Note_on_c, 0, 55, 0
1, 30172, Note_on_c, 0, 69, 0
1, 30173, Note_on_c, 0, 61, 0
1, 30184, Note_on_c, 0, 61, 45
1, 30196, Note_on_c, 0, 64, 0
1, 30196, Control_c, 0, 64, 127
1, 30200, Note_on_c, 0, 58, 0
1, 30206, Note_on_c, 0, 61, 0
1, 30221, Note_on_c, 0, 42, 35
1, 30232, Note_on_c, 0, 42, 0
1, 30236, Control_c, 0, 64, 0
1, 30243, Note_on_c, 0, 64, 32
1, 30244, Note_on_c, 0, 60, 36
1, 30244, Note_on_c, 0, 57, 36
1, 30246, Note_on_c, 0, 41, 43
1, 30248, Note_on_c, 0, 48, 33
1, 30248, Note_on_c, 0, 52, 32
1, 30254, Control_c, 0, 64, 127
1, 30258, Note_on_c, 0, 52, 0
1, 30269, Note_on_c, 0, 41, 0
1, 30269, Note_on_c, 0, 48, 0
1, 30271, Note_on_c, 0, 57, 0
1, 30291, Note_on_c, 0, 60, 0
1, 30298, Note_on_c, 0, 64, 0
1, 30344, Note_on_c, 0, 72, 75
1, 30345, Note_on_c, 0, 69, 70
1, 30352, Note_on_c, 0, 65, 56
1, 30354, Control_c, 0, 64, 0
1, 30361, Note_on_c, 0, 72, 0
1, 30367, Note_on_c, 0, 65, 0
1, 30369, Note_on_c, 0, 69, 0
1, 30369, Note_on_c, 0, 64, 57
1, 30378, Note_on_c, 0, 64, 0
1, 30403, Note_on_c, 0, 79, 81
1, 30403, Note_on_c, 0, 72, 83
1, 30407, Note_on_c, 0, 64, 35
1, 30410, Note_on_c, 0, 60, 26
1, 30411, Note_on_c, 0, 57, 27
1, 30423, Note_on_c, 0, 72, 0
1, 30424, Note_on_c, 0, 60, 0
1, 30424, Control_c, 0, 64, 127
1, 30425, Note_on_c, 0, 64, 0
1, 30426, Note_on_c, 0, 79, 0
1, 30427, Note_on_c, 0, 57, 0
1, 30432, Note_on_c, 0, 76, 70
1, 30463, Note_on_c, 0, 76, 0
1, 30465, Note_on_c, 0, 69, 71
1, 30476, Note_on_c, 0, 69, 0
1, 30495, Note_on_c, 0, 72, 53
1, 30495, Note_on_c, 0, 67, 48
1, 30495, Control_c, 0, 64, 0
1, 30495, Note_on_c, 0, 62, 32
1, 30497, Note_on_c, 0, 56, 29
1, 30513, Note_on_c, 0, 72, 0
1, 30513, Control_c, 0, 64, 127
1, 30519, Note_on_c, 0, 67, 0
1, 30528, Note_on_c, 0, 79, 55
1, 30528, Note_on_c, 0, 72, 47
1, 30566, Note_on_c, 0, 62, 0
1, 30570, Note_on_c, 0, 79, 0
1, 30575, Note_on_c, 0, 56, 0
1, 30584, Note_on_c, 0, 72, 0
1, 30611, Note_on_c, 0, 77, 44
1, 30612, Note_on_c, 0, 67, 31
1, 30614, Note_on_c, 0, 56, 29
1, 30614, Note_on_c, 0, 72, 31
1, 30616, Note_on_c, 0, 62, 24
1, 30650, Note_on_c, 0, 67, 0
1, 30653, Note_on_c, 0, 62, 0
1, 30661, Note_on_c, 0, 56, 0
1, 30685, Note_on_c, 0, 72, 0
1, 30712, Note_on_c, 0, 77, 0
1, 30731, Note_on_c, 0, 67, 36
1, 30732, Note_on_c, 0, 76, 47
1, 30732, Control_c, 0, 64, 0
1, 30733, Note_on_c, 0, 64, 40
1, 30734, Note_on_c, 0, 62, 36
1, 30734, Note_on_c, 0, 72, 36
1, 30753, Note_on_c, 0, 67, 0
1, 30754, Control_c, 0, 64, 127
1, 30768, Note_on_c, 0, 76, 0
1, 30773, Note_on_c, 0, 72, 0
1, 30776, Note_on_c, 0, 55, 44
1, 30776, Note_on_c, 0, 79, 43
1, 30800, Note_on_c, 0, 79, 0
1, 30814, Note_on_c, 0, 62, 0
1, 30814, Note_on_c, 0, 64, 0
1, 30852, Note_on_c, 0, 64, 37
1, 30852, Note_on_c, 0, 62, 33
1, 30853, Note_on_c, 0, 67, 16
1, 30865, Note_on_c, 0, 67, 0
1, 30875, Note_on_c, 0, 55, 0
1, 30890, Note_on_c, 0, 55, 57
1, 30905, Note_on_c, 0, 62, 0
1, 30905, Note_on_c, 0, 64, 0
1, 30920, Note_on_c, 0, 55, 0
1, 30967, Note_on_c, 0, 91, 84
1, 30969, Control_c, 0, 64, 0
1, 30970, Note_on_c, 0, 88, 79
1, 30970, Note_on_c, 0, 56, 59
1, 30971, Note_on_c, 0, 84, 82
1, 30971, Note_on_c, 0, 67, 63
1, 30971, Note_on_c, 0, 62, 54
1, 30975, Note_on_c, 0, 79, 49
1, 30985, Note_on_c, 0, 88, 0
1, 30985, Control_c, 0, 64, 127
1, 30987, Note_on_c, 0, 91, 0
1, 30988, Note_on_c, 0, 84, 0
1, 30991, Note_on_c, 0, 79, 0
1, 30994, Note_on_c, 0, 67, 0
1, 31002, Note_on_c, 0, 62, 0
1, 31005, Note_on_c, 0, 56, 0
1, 31012, Note_on_c, 0, 88, 51
1, 31014, Note_on_c, 0, 84, 68
1, 31015, Note_on_c, 0, 77, 63
1, 31016, Note_on_c, 0, 56, 44
1, 31016, Note_on_c, 0, 67, 50
1, 31017, Note_on_c, 0, 62, 50
1, 31047, Note_on_c, 0, 88, 0
1, 31048, Note_on_c, 0, 84, 0
1, 31054, Note_on_c, 0, 77, 0
1, 31057, Note_on_c, 0, 67, 0
1, 31070, Note_on_c, 0, 56, 0
1, 31072, Note_on_c, 0, 62, 0
1, 31091, Note_on_c, 0, 84, 66
1, 31092, Note_on_c, 0, 76, 44
1, 31093, Note_on_c, 0, 65, 45
1, 31094, Note_on_c, 0, 56, 35
1, 31094, Note_on_c, 0, 79, 48
1, 31094, Note_on_c, 0, 72, 50
1, 31094, Note_on_c, 0, 62, 36
1, 31113, Note_on_c, 0, 79, 0
1, 31115, Note_on_c, 0, 76, 0
1, 31117, Note_on_c, 0, 65, 0
1, 31119, Note_on_c, 0, 72, 0
1, 31120, Note_on_c, 0, 62, 0
1, 31125, Note_on_c, 0, 56, 0
1, 31127, Note_on_c, 0, 84, 0
1, 31134, Note_on_c, 0, 79, 40
1, 31135, Note_on_c, 0, 56, 45
1, 31137, Note_on_c, 0, 62, 34
1, 31138, Note_on_c, 0, 72, 34
1, 31139, Note_on_c, 0, 65, 24
1, 31141, Note_on_c, 0, 76, 29
1, 31153, Note_on_c, 0, 62, 0
1, 31157, Note_on_c, 0, 65, 0
1, 31165, Note_on_c, 0, 79, 0
1, 31168, Note_on_c, 0, 76, 0
1, 31168, Note_on_c, 0, 72, 0
1, 31169, Note_on_c, 0, 56, 0
1, 31210, Note_on_c, 0, 72, 57
1, 31210, Note_on_c, 0, 67, 45
1, 31211, Note_on_c, 0, 60, 40
1, 31212, Control_c, 0, 64, 0
1, 31216, Note_on_c, 0, 57, 44
1, 31216, Note_on_c, 0, 81, 50
1, 31218, Note_on_c, 0, 67, 0
1, 31221, Control_c, 0, 64, 127
1, 31223, Note_on_c, 0, 72, 0
1, 31257, Note_on_c, 0, 84, 83
1, 31258, Note_on_c, 0, 77, 78
1, 31258, Note_on_c, 0, 64, 56
1, 31260, Note_on_c, 0, 45, 44
1, 31260, Note_on_c, 0, 81, 60
1, 31265, Control_c, 0, 64, 0
1, 31272, Control_c, 0, 64, 127
1, 31280, Note_on_c, 0, 64, 0
1, 31284, Note_on_c, 0, 81, 0
1, 31284, Note_on_c, 0, 84, 0
1, 31290, Note_on_c, 0, 60, 0
1, 31292, Note_on_c, 0, 77, 0
1, 31301, Note_on_c, 0, 57, 0
1, 31336, Note_on_c, 0, 81, 0
1, 31340, Note_on_c, 0, 61, 79
1, 31340, Note_on_c, 0, 69, 75
1, 31341, Note_on_c, 0, 65, 79
1, 31345, Note_on_c, 0, 57, 74
1, 31350, Note_on_c, 0, 45, 0
1, 31353, Control_c, 0, 64, 0
1, 31368, Note_on_c, 0, 57, 0
1, 31369, Note_on_c, 0, 56, 59
1, 31381, Note_on_c, 0, 56, 0
1, 31387, Note_on_c, 0, 55, 64
1, 31402, Note_on_c, 0, 55, 0
1, 31403, Note_on_c, 0, 54, 36
1, 31409, Note_on_c, 0, 54, 0
1, 31415, Note_on_c, 0, 53, 24
1, 31422, Note_on_c, 0, 69, 0
1, 31425, Control_c, 0, 64, 127
1, 31429, Note_on_c, 0, 65, 0
1, 31433, Note_on_c, 0, 61, 0
1, 31434, Note_on_c, 0, 53, 0
1, 31452, Control_c, 0, 64, 0
1, 31453, Note_on_c, 0, 51, 30
1, 31456, Note_on_c, 0, 61, 38
1, 31457, Note_on_c, 0, 69, 57
1, 31458, Note_on_c, 0, 65, 57
1, 31460, Note_on_c, 0, 57, 54
1, 31473, Control_c, 0, 64, 127
1, 31491, Note_on_c, 0, 51, 0
1, 31496, Note_on_c, 0, 57, 0
1, 31496, Note_on_c, 0, 69, 0
1, 31497, Note_on_c, 0, 65, 0
1, 31498, Note_on_c, 0, 61, 0
1, 31566, Note_on_c, 0, 60, 32
1, 31566, Note_on_c, 0, 65, 33
1, 31566, Note_on_c, 0, 61, 25
1, 31569, Note_on_c, 0, 55, 40
1, 31602, Note_on_c, 0, 65, 0
1, 31605, Note_on_c, 0, 69, 71
1, 31621, Note_on_c, 0, 69, 0
1, 31632, Note_on_c, 0, 60, 0
1, 31639, Note_on_c, 0, 55, 0
1, 31642, Note_on_c, 0, 71, 68
1, 31643, Note_on_c, 0, 61, 0
1, 31668, Note_on_c, 0, 71, 0
1, 31680, Note_on_c, 0, 72, 76
1, 31680, Note_on_c, 0, 64, 44
1, 31682, Note_on_c, 0, 57, 28
1, 31682, Control_c, 0, 64, 0
1, 31683, Note_on_c, 0, 54, 31
1, 31684, Note_on_c, 0, 60, 33
1, 31704, Note_on_c, 0, 64, 0
1, 31709, Note_on_c, 0, 72, 0
1, 31717, Note_on_c, 0, 69, 60
1, 31722, Note_on_c, 0, 60, 0
1, 31733, Note_on_c, 0, 57, 0
1, 31737, Control_c, 0, 64, 127
1, 31740, Note_on_c, 0, 69, 0
1, 31751, Note_on_c, 0, 60, 41
1, 31780, Note_on_c, 0, 54, 0
1, 31799, Note_on_c, 0, 54, 48
1, 31807, Note_on_c, 0, 60, 0
1, 31816, Note_on_c, 0, 54, 0
1, 31886, Note_on_c, 0, 57, 46
1, 31904, Note_on_c, 0, 57, 0
1, 31926, Note_on_c, 0, 53, 37
1, 31928, Note_on_c, 0, 60, 39
1, 31928, Note_on_c, 0, 43, 33
1, 31929, Note_on_c, 0, 57, 31
1, 31929, Note_on_c, 0, 50, 29
1, 31933, Control_c, 0, 64, 0
1, 31949, Note_on_c, 0, 53, 0
1, 31956, Control_c, 0, 64, 127
1, 31975, Note_on_c, 0, 57, 0
1, 31984, Note_on_c, 0, 60, 0
1, 31999, Note_on_c, 0, 55, 46
1, 32009, Note_on_c, 0, 50, 0
1, 32020, Note_on_c, 0, 55, 0
1, 32046, Note_on_c, 0, 56, 33
1, 32047, Note_on_c, 0, 62, 48
1, 32047, Note_on_c, 0, 55, 34
1, 32049, Note_on_c, 0, 59, 45
1, 32051, Control_c, 0, 64, 0
1, 32072, Note_on_c, 0, 43, 0
1, 32081, Control_c, 0, 64, 127
1, 32115, Note_on_c, 0, 55, 0
1, 32121, Note_on_c, 0, 43, 44
1, 32126, Note_on_c, 0, 59, 0
1, 32127, Note_on_c, 0, 56, 0
1, 32131, Note_on_c, 0, 62, 0
1, 32164, Note_on_c, 0, 55, 38
1, 32165, Note_on_c, 0, 64, 37
1, 32166, Note_on_c, 0, 59, 37
1, 32166, Note_on_c, 0, 52, 42
1, 32167, Control_c, 0, 64, 0
1, 32201, Note_on_c, 0, 43, 0
1, 32207, Control_c, 0, 64, 127
1, 32230, Note_on_c, 0, 55, 0
1, 32237, Note_on_c, 0, 59, 0
1, 32241, Note_on_c, 0, 43, 35
1, 32242, Note_on_c, 0, 64, 0
1, 32281, Note_on_c, 0, 62, 74
1, 32282, Note_on_c, 0, 57, 73
1, 32282, Note_on_c, 0, 67, 70
1, 32283, Note_on_c, 0, 52, 0
1, 32290, Control_c, 0, 64, 0
1, 32323, Note_on_c, 0, 55, 95
1, 32326, Control_c, 0, 64, 127
1, 32368, Note_on_c, 0, 57, 0
1, 32378, Note_on_c, 0, 62, 0
1, 32385, Note_on_c, 0, 67, 0
1, 32401, Note_on_c, 0, 67, 43
1, 32402, Note_on_c, 0, 61, 50
1, 32402, Note_on_c, 0, 59, 49
1, 32410, Control_c, 0, 64, 0
1, 32427, Note_on_c, 0, 43, 0
1, 32442, Note_on_c, 0, 43, 62
1, 32458, Control_c, 0, 64, 127
1, 32473, Note_on_c, 0, 67, 0
1, 32482, Note_on_c, 0, 61, 0
1, 32496, Note_on_c, 0, 55, 0
1, 32499, Note_on_c, 0, 59, 0
1, 32522, Note_on_c, 0, 63, 38
1, 32524, Note_on_c, 0, 59, 36
1, 32525, Note_on_c, 0, 56, 30
1, 32526, Note_on_c, 0, 55, 41
1, 32529, Note_on_c, 0, 61, 31
1, 32531, Control_c, 0, 64, 0
1, 32555, Control_c, 0, 64, 127
1, 32564, Note_on_c, 0, 43, 0
1, 32591, Note_on_c, 0, 55, 0
1, 32602, Note_on_c, 0, 56, 0
1, 32604, Note_on_c, 0, 43, 43
1, 32607, Note_on_c, 0, 59, 0
1, 32614, Note_on_c, 0, 63, 0
1, 32615, Note_on_c, 0, 61, 0
1, 32638, Control_c, 0, 64, 0
1, 32644, Note_on_c, 0, 64, 42
1, 32644, Note_on_c, 0, 55, 37
1, 32645, Note_on_c, 0, 52, 38
1, 32646, Note_on_c, 0, 59, 31
1, 32658, Control_c, 0, 64, 127
1, 32659, Note_on_c, 0, 55, 0
1, 32666, Note_on_c, 0, 43, 0
1, 32673, Note_on_c, 0, 52, 0
1, 32681, Note_on_c, 0, 59, 0
1, 32686, Note_on_c, 0, 64, 0
1, 32733, Note_on_c, 0, 67, 64
1, 32734, Note_on_c, 0, 65, 73
1, 32741, Note_on_c, 0, 65, 0
1, 32743, Note_on_c, 0, 67, 0
1, 32770, Note_on_c, 0, 67, 74
1, 32770, Note_on_c, 0, 62, 42
1, 32771, Note_on_c, 0, 52, 43
1, 32773, Note_on_c, 0, 57, 39
1, 32776, Control_c, 0, 64, 0
1, 32804, Control_c, 0, 64, 127
1, 32806, Note_on_c, 0, 69, 74
1, 32808, Note_on_c, 0, 52, 0
1, 32810, Note_on_c, 0, 57, 0
1, 32811, Note_on_c, 0, 62, 0
1, 32814, Note_on_c, 0, 67, 0
1, 32831, Note_on_c, 0, 69, 0
1, 32839, Note_on_c, 0, 67, 58
1, 32859, Note_on_c, 0, 67, 0
1, 32865, Note_on_c, 0, 69, 64
1, 32883, Note_on_c, 0, 69, 0
1, 32891, Note_on_c, 0, 63, 35
1, 32891, Note_on_c, 0, 52, 47
1, 32892, Note_on_c, 0, 70, 64
1, 32893, Control_c, 0, 64, 0
1, 32893, Note_on_c, 0, 58, 37
1, 32916, Control_c, 0, 64, 127
1, 32930, Note_on_c, 0, 52, 0
1, 32930, Note_on_c, 0, 63, 0
1, 32936, Note_on_c, 0, 58, 0
1, 33014, Control_c, 0, 64, 0
1, 33015, Note_on_c, 0, 58, 26
1, 33015, Note_on_c, 0, 48, 39
1, 33033, Control_c, 0, 64, 127
1, 33035, Note_on_c, 0, 48, 0
1, 33035, Note_on_c, 0, 58, 0
1, 33133, Control_c, 0, 64, 0
1, 33134, Note_on_c, 0, 57, 36
1, 33134, Note_on_c, 0, 41, 24
1, 33154, Control_c, 0, 64, 127
1, 33158, Note_on_c, 0, 41, 0
1, 33171, Note_on_c, 0, 57, 0
1, 33226, Note_on_c, 0, 70, 0
1, 33252, Note_on_c, 0, 60, 39
1, 33254, Note_on_c, 0, 57, 42
1, 33301, Note_on_c, 0, 60, 0
1, 33309, Note_on_c, 0, 57, 0
1, 33326, Note_on_c, 0, 72, 94
1, 33351, Note_on_c, 0, 72, 0
1, 33367, Note_on_c, 0, 71, 62
1, 33368, Note_on_c, 0, 51, 36
1, 33368, Note_on_c, 0, 57, 51
1, 33370, Note_on_c, 0, 67, 60
1, 33370, Note_on_c, 0, 62, 54
1, 33370, Note_on_c, 0, 47, 42
1, 33373, Control_c, 0, 64, 0
1, 33397, Control_c, 0, 64, 127
1, 33411, Note_on_c, 0, 57, 0
1, 33414, Note_on_c, 0, 67, 0
1, 33415, Note_on_c, 0, 71, 0
1, 33420, Note_on_c, 0, 62, 0
1, 33445, Note_on_c, 0, 51, 0
1, 33484, Note_on_c, 0, 63, 47
1, 33485, Note_on_c, 0, 59, 48
1, 33486, Note_on_c, 0, 67, 32
1, 33487, Note_on_c, 0, 51, 35
1, 33490, Note_on_c, 0, 57, 25
1, 33497, Note_on_c, 0, 59, 0
1, 33508, Note_on_c, 0, 67, 0
1, 33509, Note_on_c, 0, 63, 0
1, 33510, Note_on_c, 0, 47, 0
1, 33519, Note_on_c, 0, 57, 0
1, 33523, Note_on_c, 0, 51, 0
1, 33596, Note_on_c, 0, 76, 78
1, 33596, Note_on_c, 0, 81, 76
1, 33596, Control_c, 0, 64, 0
1, 33597, Note_on_c, 0, 69, 75
1, 33597, Note_on_c, 0, 64, 67
1, 33598, Note_on_c, 0, 60, 44
1, 33598, Note_on_c, 0, 57, 55
1, 33599, Note_on_c, 0, 53, 47
1, 33605, Note_on_c, 0, 69, 0
1, 33606, Note_on_c, 0, 64, 0
1, 33608, Note_on_c, 0, 60, 0
1, 33608, Note_on_c, 0, 76, 0
1, 33610, Note_on_c, 0, 57, 0
1, 33612, Note_on_c, 0, 53, 0
1, 33612, Note_on_c, 0, 81, 0
1, 33655, Note_on_c, 0, 84, 65
1, 33656, Note_on_c, 0, 79, 61
1, 33657, Note_on_c, 0, 60, 40
1, 33658, Control_c, 0, 64, 127
1, 33658, Note_on_c, 0, 72, 51
1, 33658, Note_on_c, 0, 53, 50
1, 33658, Note_on_c, 0, 64, 51
1, 33659, Note_on_c, 0, 57, 47
1, 33674, Note_on_c, 0, 79, 0
1, 33676, Note_on_c, 0, 84, 0
1, 33677, Note_on_c, 0, 64, 0
1, 33678, Note_on_c, 0, 57, 0
1, 33678, Note_on_c, 0, 60, 0
1, 33683, Note_on_c, 0, 72, 0
1, 33683, Note_on_c, 0, 53, 0
1, 33706, Control_c, 0, 64, 0
1, 33715, Note_on_c, 0, 71, 40
1, 33715, Note_on_c, 0, 52, 44
1, 33715, Note_on_c, 0, 79, 38
1, 33716, Note_on_c, 0, 83, 44
1, 33716, Note_on_c, 0, 59, 33
1, 33716, Note_on_c, 0, 76, 48
1, 33716, Note_on_c, 0, 62, 28
1, 33717, Note_on_c, 0, 55, 35
1, 33722, Control_c, 0, 64, 127
1, 33728, Note_on_c, 0, 79, 0
1, 33729, Note_on_c, 0, 83, 0
1, 33731, Note_on_c, 0, 76, 0
1, 33736, Note_on_c, 0, 71, 0
1, 33741, Note_on_c, 0, 55, 0
1, 33744, Note_on_c, 0, 52, 0
1, 33744, Note_on_c, 0, 59, 0
1, 33749, Note_on_c, 0, 62, 0
1, 33775, Note_on_c, 0, 52, 43
1, 33775, Note_on_c, 0, 79, 42
1, 33776, Note_on_c, 0, 59, 41
1, 33776, Note_on_c, 0, 62, 37
1, 33776, Note_on_c, 0, 74, 54
1, 33777, Note_on_c, 0, 67, 42
1, 33780, Note_on_c, 0, 55, 24
1, 33786, Note_on_c, 0, 55, 0
1, 33787, Note_on_c, 0, 52, 0
1, 33791, Note_on_c, 0, 59, 0
1, 33793, Note_on_c, 0, 67, 0
1, 33796, Note_on_c, 0, 62, 0
1, 33799, Note_on_c, 0, 74, 0
1, 33801, Note_on_c, 0, 79, 0
1, 33838, Note_on_c, 0, 81, 80
1, 33839, Note_on_c, 0, 76, 82
1, 33840, Note_on_c, 0, 60, 57
1, 33840, Note_on_c, 0, 64, 58
1, 33840, Note_on_c, 0, 59, 53
1, 33842, Control_c, 0, 64, 0
1, 33857, Control_c, 0, 64, 127
1, 33868, Note_on_c, 0, 60, 0
1, 33868, Note_on_c, 0, 81, 0
1, 33872, Note_on_c, 0, 59, 0
1, 33872, Note_on_c, 0, 64, 0
1, 33876, Note_on_c, 0, 76, 0
1, 33902, Note_on_c, 0, 60, 51
1, 33902, Note_on_c, 0, 79, 65
1, 33902, Note_on_c, 0, 72, 73
1, 33902, Note_on_c, 0, 61, 57
1, 33902, Note_on_c, 0, 65, 63
1, 33904, Note_on_c, 0, 55, 57
1, 33909, Control_c, 0, 64, 0
1, 33928, Control_c, 0, 64, 127
1, 33942, Note_on_c, 0, 79, 0
1, 33950, Note_on_c, 0, 72, 0
1, 33967, Note_on_c, 0, 76, 73
1, 33978, Note_on_c, 0, 65, 0
1, 33982, Note_on_c, 0, 60, 0
1, 33990, Note_on_c, 0, 61, 0
1, 33990, Note_on_c, 0, 55, 0
1, 34026, Note_on_c, 0, 55, 48
1, 34028, Note_on_c, 0, 61, 31
1, 34039, Note_on_c, 0, 55, 0
1, 34041, Note_on_c, 0, 76, 0
1, 34043, Note_on_c, 0, 61, 0
1, 34090, Control_c, 0, 64, 0
1, 34091, Note_on_c, 0, 54, 38
1, 34092, Note_on_c, 0, 71, 37
1, 34092, Note_on_c, 0, 74, 44
1, 34092, Note_on_c, 0, 68, 38
1, 34093, Note_on_c, 0, 64, 37
1, 34094, Note_on_c, 0, 60, 25
1, 34112, Control_c, 0, 64, 127
1, 34147, Note_on_c, 0, 64, 0
1, 34163, Note_on_c, 0, 74, 0
1, 34165, Note_on_c, 0, 60, 0
1, 34169, Note_on_c, 0, 71, 0
1, 34174, Note_on_c, 0, 68, 0
1, 34204, Note_on_c, 0, 76, 47
1, 34205, Note_on_c, 0, 68, 45
1, 34206, Note_on_c, 0, 64, 40
1, 34207, Note_on_c, 0, 71, 46
1, 34233, Note_on_c, 0, 71, 0
1, 34233, Note_on_c, 0, 76, 0
1, 34238, Note_on_c, 0, 54, 0
1, 34239, Note_on_c, 0, 74, 45
1, 34272, Note_on_c, 0, 68, 0
1, 34273, Note_on_c, 0, 64, 0
1, 34293, Note_on_c, 0, 74, 0
1, 34316, Note_on_c, 0, 76, 48
1, 34318, Note_on_c, 0, 72, 42
1, 34319, Note_on_c, 0, 69, 38
1, 34319, Note_on_c, 0, 64, 44
1, 34321, Control_c, 0, 64, 0
1, 34325, Note_on_c, 0, 69, 0
1, 34330, Note_on_c, 0, 72, 0
1, 34332, Note_on_c, 0, 76, 0
1, 34344, Control_c, 0, 64, 127
1, 34352, Control_c, 0, 64, 0
1, 34354, Note_on_c, 0, 64, 0
1, 34357, Note_on_c, 0, 73, 46
1, 34358, Note_on_c, 0, 79, 54
1, 34359, Note_on_c, 0, 76, 53
1, 34360, Note_on_c, 0, 69, 33
1, 34361, Note_on_c, 0, 61, 33
1, 34375, Control_c, 0, 64, 127
1, 34377, Note_on_c, 0, 76, 0
1, 34386, Note_on_c, 0, 79, 0
1, 34388, Note_on_c, 0, 73, 0
1, 34388, Note_on_c, 0, 69, 0
1, 34401, Note_on_c, 0, 77, 53
1, 34403, Note_on_c, 0, 69, 41
1, 34404, Note_on_c, 0, 72, 57
1, 34405, Note_on_c, 0, 61, 0
1, 34407, Note_on_c, 0, 62, 44
1, 34416, Note_on_c, 0, 72, 0
1, 34417, Note_on_c, 0, 62, 0
1, 34418, Note_on_c, 0, 77, 0
1, 34422, Note_on_c, 0, 69, 0
1, 34453, Control_c, 0, 64, 0
1, 34471, Note_on_c, 0, 76, 52
1, 34472, Note_on_c, 0, 68, 43
1, 34472, Note_on_c, 0, 65, 44
1, 34472, Note_on_c, 0, 53, 45
1, 34473, Note_on_c, 0, 71, 49
1, 34479, Note_on_c, 0, 74, 17
1, 34480, Note_on_c, 0, 64, 16
1, 34483, Control_c, 0, 64, 127
1, 34488, Note_on_c, 0, 64, 0
1, 34488, Note_on_c, 0, 65, 0
1, 34492, Note_on_c, 0, 76, 0
1, 34495, Note_on_c, 0, 68, 0
1, 34497, Note_on_c, 0, 53, 0
1, 34499, Note_on_c, 0, 71, 0
1, 34500, Note_on_c, 0, 74, 0
1, 34517, Control_c, 0, 64, 0
1, 34520, Note_on_c, 0, 68, 45
1, 34521, Note_on_c, 0, 74, 54
1, 34521, Note_on_c, 0, 64, 46
1, 34522, Note_on_c, 0, 53, 35
1, 34522, Note_on_c, 0, 71, 49
1, 34525, Note_on_c, 0, 56, 26
1, 34525, Note_on_c, 0, 59, 22
1, 34531, Control_c, 0, 64, 127
1, 34535, Note_on_c, 0, 59, 0
1, 34540, Note_on_c, 0, 71, 0
1, 34543, Note_on_c, 0, 74, 0
1, 34544, Note_on_c, 0, 53, 0
1, 34545, Note_on_c, 0, 68, 0
1, 34545, Note_on_c, 0, 64, 0
1, 34546, Note_on_c, 0, 56, 0
1, 34577, Control_c, 0, 64, 0
1, 34599, Note_on_c, 0, 58, 55
1, 34599, Note_on_c, 0, 69, 74
1, 34600, Note_on_c, 0, 57, 57
1, 34601, Note_on_c, 0, 62, 60
1, 34603, Note_on_c, 0, 65, 38
1, 34617, Note_on_c, 0, 57, 0
1, 34626, Note_on_c, 0, 65, 0
1, 34627, Note_on_c, 0, 69, 0
1, 34628, Note_on_c, 0, 58, 0
1, 34635, Note_on_c, 0, 43, 37
1, 34636, Note_on_c, 0, 58, 40
1, 34637, Note_on_c, 0, 67, 57
1, 34644, Control_c, 0, 64, 127
1, 34649, Note_on_c, 0, 43, 0
1, 34661, Note_on_c, 0, 62, 0
1, 34664, Note_on_c, 0, 58, 0
1, 34673, Note_on_c, 0, 58, 51
1, 34673, Note_on_c, 0, 55, 50
1, 34673, Note_on_c, 0, 65, 74
1, 34674, Note_on_c, 0, 62, 54
1, 34688, Note_on_c, 0, 67, 0
1, 34692, Note_on_c, 0, 65, 0
1, 34692, Note_on_c, 0, 62, 0
1, 34703, Note_on_c, 0, 58, 0
1, 34704, Note_on_c, 0, 55, 0
1, 34713, Note_on_c, 0, 58, 26
1, 34716, Note_on_c, 0, 62, 54
1, 34716, Note_on_c, 0, 50, 33
1, 34717, Control_c, 0, 64, 0
1, 34725, Note_on_c, 0, 50, 0
1, 34727, Note_on_c, 0, 62, 0
1, 34731, Note_on_c, 0, 58, 0
1, 34733, Control_c, 0, 64, 127
1, 34748, Note_on_c, 0, 58, 54
1, 34750, Note_on_c, 0, 61, 62
1, 34750, Note_on_c, 0, 64, 60
1, 34751, Note_on_c, 0, 52, 49
1, 34752, Control_c, 0, 64, 0
1, 34762, Note_on_c, 0, 52, 0
1, 34773, Control_c, 0, 64, 127
1, 34789, Note_on_c, 0, 58, 0
1, 34794, Note_on_c, 0, 64, 0
1, 34794, Note_on_c, 0, 36, 50
1, 34795, Note_on_c, 0, 61, 0
1, 34802, Note_on_c, 0, 36, 0
1, 34837, Note_on_c, 0, 68, 83
1, 34837, Note_on_c, 0, 75, 77
1, 34837, Note_on_c, 0, 72, 80
1, 34838, Note_on_c, 0, 64, 85
1, 34846, Control_c, 0, 64, 0
1, 34866, Control_c, 0, 64, 127
1, 34867, Note_on_c, 0, 64, 0
1, 34869, Note_on_c, 0, 68, 0
1, 34870, Note_on_c, 0, 72, 0
1, 34874, Note_on_c, 0, 75, 0
1, 34874, Note_on_c, 0, 63, 54
1, 34875, Control_c, 0, 64, 0
1, 34876, Note_on_c, 0, 73, 57
1, 34876, Note_on_c, 0, 68, 67
1, 34877, Note_on_c, 0, 64, 65
1, 34891, Control_c, 0, 64, 127
1, 34894, Note_on_c, 0, 73, 0
1, 34899, Note_on_c, 0, 63, 0
1, 34902, Note_on_c, 0, 68, 0
1, 34903, Note_on_c, 0, 64, 0
1, 34916, Note_on_c, 0, 58, 44
1, 34918, Note_on_c, 0, 68, 46
1, 34919, Note_on_c, 0, 72, 36
1, 34919, Note_on_c, 0, 64, 46
1, 34920, Control_c, 0, 64, 0
1, 34925, Note_on_c, 0, 72, 0
1, 34929, Note_on_c, 0, 58, 0
1, 34930, Note_on_c, 0, 68, 0
1, 34931, Note_on_c, 0, 64, 0
1, 34932, Control_c, 0, 64, 127
1, 34959, Note_on_c, 0, 61, 50
1, 34959, Note_on_c, 0, 58, 35
1, 34960, Note_on_c, 0, 67, 44
1, 34964, Note_on_c, 0, 64, 43
1, 34973, Control_c, 0, 64, 0
1, 34981, Note_on_c, 0, 67, 0
1, 34988, Control_c, 0, 64, 127
1, 34994, Note_on_c, 0, 42, 36
1, 35001, Note_on_c, 0, 64, 0
1, 35001, Note_on_c, 0, 66, 1
1, 35003, Note_on_c, 0, 58, 0
1, 35017, Note_on_c, 0, 61, 0
1, 35021, Note_on_c, 0, 42, 0
1, 35025, Note_on_c, 0, 66, 0
1, 35038, Note_on_c, 0, 57, 44
1, 35038, Note_on_c, 0, 64, 33
1, 35039, Note_on_c, 0, 60, 44
1, 35040, Note_on_c, 0, 41, 33
1, 35042, Note_on_c, 0, 48, 22
1, 35043, Control_c, 0, 64, 0
1, 35047, Note_on_c, 0, 66, 20
1, 35053, Control_c, 0, 64, 127
1, 35054, Note_on_c, 0, 64, 0
1, 35061, Note_on_c, 0, 66, 0
1, 35071, Note_on_c, 0, 60, 0
1, 35082, Note_on_c, 0, 57, 0
1, 35116, Note_on_c, 0, 48, 0
1, 35172, Note_on_c, 0, 52, 47
1, 35173, Note_on_c, 0, 57, 32
1, 35173, Note_on_c, 0, 55, 47
1, 35175, Note_on_c, 0, 60, 35
1, 35184, Control_c, 0, 64, 0
1, 35195, Control_c, 0, 64, 127
1, 35201, Note_on_c, 0, 52, 0
1, 35201, Note_on_c, 0, 41, 0
1, 35212, Note_on_c, 0, 48, 83
1, 35224, Note_on_c, 0, 55, 0
1, 35228, Note_on_c, 0, 57, 0
1, 35233, Note_on_c, 0, 60, 0
1, 35248, Note_on_c, 0, 60, 54
1, 35251, Note_on_c, 0, 57, 43
1, 35256, Note_on_c, 0, 57, 0
1, 35258, Note_on_c, 0, 60, 0
1, 35291, Note_on_c, 0, 48, 0
1, 35291, Note_on_c, 0, 60, 70
1, 35291, Note_on_c, 0, 56, 65
1, 35291, Note_on_c, 0, 67, 73
1, 35291, Note_on_c, 0, 55, 77
1, 35292, Note_on_c, 0, 62, 64
1, 35296, Control_c, 0, 64, 0
1, 35326, Control_c, 0, 64, 127
1, 35346, Note_on_c, 0, 53, 82
1, 35353, Note_on_c, 0, 55, 0
1, 35354, Control_c, 0, 64, 0
1, 35371, Control_c, 0, 64, 127
1, 35372, Note_on_c, 0, 60, 0
1, 35382, Note_on_c, 0, 56, 0
1, 35384, Note_on_c, 0, 62, 0
1, 35397, Note_on_c, 0, 67, 0
1, 35409, Note_on_c, 0, 56, 39
1, 35411, Note_on_c, 0, 62, 46
1, 35411, Note_on_c, 0, 60, 48
1, 35412, Note_on_c, 0, 65, 41
1, 35467, Note_on_c, 0, 56, 0
1, 35484, Note_on_c, 0, 60, 0
1, 35489, Note_on_c, 0, 56, 39
1, 35490, Note_on_c, 0, 65, 0
1, 35502, Note_on_c, 0, 62, 0
1, 35504, Note_on_c, 0, 56, 0
1, 35533, Note_on_c, 0, 55, 45
1, 35534, Note_on_c, 0, 64, 48
1, 35537, Control_c, 0, 64, 0
1, 35537, Note_on_c, 0, 62, 27
1, 35543, Note_on_c, 0, 60, 25
1, 35562, Note_on_c, 0, 53, 0
1, 35585, Note_on_c, 0, 48, 80
1, 35603, Control_c, 0, 64, 127
1, 35618, Note_on_c, 0, 50, 84
1, 35624, Note_on_c, 0, 48, 0
1, 35626, Note_on_c, 0, 55, 0
1, 35626, Note_on_c, 0, 60, 0
1, 35631, Note_on_c, 0, 64, 0
1, 35637, Note_on_c, 0, 62, 0
1, 35654, Control_c, 0, 64, 0
1, 35656, Note_on_c, 0, 64, 69
1, 35656, Note_on_c, 0, 60, 65
1, 35656, Note_on_c, 0, 55, 67
1, 35656, Note_on_c, 0, 52, 77
1, 35658, Note_on_c, 0, 50, 0
1, 35671, Note_on_c, 0, 52, 0
1, 35672, Control_c, 0, 64, 127
1, 35673, Note_on_c, 0, 55, 0
1, 35694, Note_on_c, 0, 57, 82
1, 35703, Control_c, 0, 64, 0
1, 35722, Control_c, 0, 64, 127
1, 35731, Note_on_c, 0, 64, 0
1, 35737, Note_on_c, 0, 60, 0
1, 35741, Note_on_c, 0, 57, 0
1, 35763, Note_on_c, 0, 60, 42
1, 35763, Note_on_c, 0, 64, 43
1, 35764, Note_on_c, 0, 55, 34
1, 35773, Control_c, 0, 64, 0
1, 35803, Note_on_c, 0, 48, 59
1, 35827, Control_c, 0, 64, 127
1, 35843, Note_on_c, 0, 60, 0
1, 35844, Note_on_c, 0, 55, 0
1, 35877, Note_on_c, 0, 60, 43
1, 35878, Note_on_c, 0, 55, 37
1, 35878, Note_on_c, 0, 57, 40
1, 35916, Note_on_c, 0, 55, 0
1, 35932, Note_on_c, 0, 57, 0
1, 35940, Note_on_c, 0, 60, 0
1, 35958, Note_on_c, 0, 55, 48
1, 35962, Note_on_c, 0, 60, 15
1, 35965, Note_on_c, 0, 48, 0
1, 35971, Note_on_c, 0, 55, 0
1, 35983, Note_on_c, 0, 64, 0
1, 35993, Note_on_c, 0, 60, 0
1, 36000, Note_on_c, 0, 60, 46
1, 36001, Note_on_c, 0, 54, 52
1, 36001, Note_on_c, 0, 62, 29
1, 36003, Note_on_c, 0, 56, 51
1, 36005, Control_c, 0, 64, 0
1, 36045, Note_on_c, 0, 50, 53
1, 36055, Note_on_c, 0, 50, 0
1, 36082, Note_on_c, 0, 44, 51
1, 36084, Control_c, 0, 64, 127
1, 36090, Note_on_c, 0, 54, 0
1, 36102, Note_on_c, 0, 56, 0
1, 36120, Note_on_c, 0, 60, 0
1, 36120, Note_on_c, 0, 38, 68
1, 36135, Note_on_c, 0, 62, 0
1, 36162, Note_on_c, 0, 60, 64
1, 36180, Note_on_c, 0, 60, 0
1, 36195, Note_on_c, 0, 44, 0
1, 36199, Note_on_c, 0, 64, 91
1, 36204, Note_on_c, 0, 38, 0
1, 36228, Note_on_c, 0, 64, 0
1, 36237, Note_on_c, 0, 64, 62
1, 36239, Note_on_c, 0, 60, 66
1, 36240, Note_on_c, 0, 55, 55
1, 36245, Control_c, 0, 64, 0
1, 36277, Note_on_c, 0, 43, 66
1, 36279, Control_c, 0, 64, 127
1, 36281, Note_on_c, 0, 55, 0
1, 36294, Note_on_c, 0, 60, 0
1, 36309, Note_on_c, 0, 64, 0
1, 36318, Note_on_c, 0, 53, 66
1, 36320, Note_on_c, 0, 43, 0
1, 36330, Note_on_c, 0, 53, 0
1, 36359, Note_on_c, 0, 63, 69
1, 36359, Note_on_c, 0, 67, 71
1, 36360, Note_on_c, 0, 59, 62
1, 36363, Note_on_c, 0, 53, 56
1, 36365, Control_c, 0, 64, 0
1, 36372, Control_c, 0, 64, 127
1, 36376, Note_on_c, 0, 59, 0
1, 36376, Note_on_c, 0, 67, 0
1, 36379, Note_on_c, 0, 63, 0
1, 36402, Note_on_c, 0, 63, 77
1, 36402, Note_on_c, 0, 71, 73
1, 36403, Note_on_c, 0, 59, 60
1, 36405, Note_on_c, 0, 70, 56
1, 36410, Note_on_c, 0, 70, 0
1, 36414, Control_c, 0, 64, 0
1, 36434, Note_on_c, 0, 53, 0
1, 36434, Control_c, 0, 64, 127
1, 36442, Note_on_c, 0, 59, 0
1, 36444, Note_on_c, 0, 53, 14
1, 36448, Note_on_c, 0, 55, 39
1, 36453, Note_on_c, 0, 63, 0
1, 36460, Note_on_c, 0, 53, 0
1, 36473, Note_on_c, 0, 55, 0
1, 36477, Note_on_c, 0, 71, 0
1, 36487, Note_on_c, 0, 67, 45
1, 36488, Control_c, 0, 64, 0
1, 36489, Note_on_c, 0, 64, 49
1, 36489, Note_on_c, 0, 59, 43
1, 36490, Note_on_c, 0, 48, 38
1, 36491, Note_on_c, 0, 55, 29
1, 36501, Note_on_c, 0, 48, 0
1, 36501, Note_on_c, 0, 59, 0
1, 36502, Control_c, 0, 64, 127
1, 36506, Note_on_c, 0, 55, 0
1, 36514, Note_on_c, 0, 64, 0
1, 36519, Note_on_c, 0, 67, 0
1, 36531, Note_on_c, 0, 60, 42
1, 36532, Note_on_c, 0, 64, 56
1, 36535, Note_on_c, 0, 59, 26
1, 36568, Note_on_c, 0, 67, 70
1, 36579, Note_on_c, 0, 67, 0
1, 36602, Note_on_c, 0, 79, 84
1, 36611, Note_on_c, 0, 79, 0
1, 36636, Note_on_c, 0, 64, 0
1, 36637, Note_on_c, 0, 86, 88
1, 36649, Note_on_c, 0, 60, 0
1, 36654, Note_on_c, 0, 59, 0
1, 36659, Note_on_c, 0, 86, 0
1, 36666, Note_on_c, 0, 91, 75
1, 36677, Note_on_c, 0, 91, 0
1, 36698, Note_on_c, 0, 93, 71
1, 36703, Note_on_c, 0, 93, 0
1, 36720, Note_on_c, 0, 103, 77
1, 36734, Note_on_c, 0, 103, 0
1, 36738, Note_on_c, 0, 30, 50
1, 36743, Control_c, 0, 64, 0
1, 36744, Note_on_c, 0, 97, 60
1, 36747, Note_on_c, 0, 98, 58
1, 36748, Note_on_c, 0, 30, 0
1, 36751, Note_on_c, 0, 98, 0
1, 36756, Control_c, 0, 64, 127
1, 36788, Note_on_c, 0, 63, 65
1, 36788, Note_on_c, 0, 58, 63
1, 36790, Note_on_c, 0, 52, 69
1, 36797, Note_on_c, 0, 97, 0
1, 36848, Note_on_c, 0, 63, 0
1, 36853, Note_on_c, 0, 52, 0
1, 36857, Note_on_c, 0, 58, 0
1, 36858, Note_on_c, 0, 94, 77
1, 36886, Note_on_c, 0, 94, 0
1, 36937, Note_on_c, 0, 94, 55
1, 36942, Note_on_c, 0, 94, 0
1, 36947, Note_on_c, 0, 96, 61
1, 36953, Note_on_c, 0, 94, 48
1, 36962, Note_on_c, 0, 96, 0
1, 36968, Note_on_c, 0, 93, 44
1, 36971, Note_on_c, 0, 94, 0
1, 36976, Note_on_c, 0, 93, 0
1, 36978, Note_on_c, 0, 41, 30
1, 36978, Note_on_c, 0, 57, 44
1, 36979, Control_c, 0, 64, 0
1, 36981, Note_on_c, 0, 95, 65
1, 36996, Control_c, 0, 64, 127
1, 36998, Note_on_c, 0, 41, 0
1, 37015, Note_on_c, 0, 57, 0
1, 37016, Note_on_c, 0, 91, 55
1, 37031, Note_on_c, 0, 91, 0
1, 37031, Note_on_c, 0, 95, 0
1, 37093, Note_on_c, 0, 62, 39
1, 37094, Note_on_c, 0, 57, 46
1, 37095, Note_on_c, 0, 60, 29
1, 37129, Note_on_c, 0, 62, 0
1, 37130, Note_on_c, 0, 60, 0
1, 37143, Note_on_c, 0, 57, 0
1, 37211, Note_on_c, 0, 51, 59
1, 37212, Note_on_c, 0, 57, 50
1, 37223, Control_c, 0, 64, 0
1, 37245, Control_c, 0, 64, 127
1, 37281, Note_on_c, 0, 57, 0
1, 37289, Note_on_c, 0, 51, 0
1, 37320, Note_on_c, 0, 63, 54
1, 37321, Note_on_c, 0, 51, 54
1, 37322, Note_on_c, 0, 59, 39
1, 37330, Control_c, 0, 64, 0
1, 37348, Note_on_c, 0, 51, 0
1, 37350, Control_c, 0, 64, 127
1, 37374, Note_on_c, 0, 59, 0
1, 37380, Note_on_c, 0, 63, 0
1, 37382, Note_on_c, 0, 67, 68
1, 37404, Note_on_c, 0, 67, 0
1, 37416, Note_on_c, 0, 67, 31
1, 37427, Note_on_c, 0, 67, 0
1, 37442, Note_on_c, 0, 41, 40
1, 37443, Note_on_c, 0, 69, 70
1, 37444, Note_on_c, 0, 64, 65
1, 37446, Note_on_c, 0, 57, 43
1, 37447, Control_c, 0, 64, 0
1, 37464, Control_c, 0, 64, 127
1, 37466, Note_on_c, 0, 64, 0
1, 37467, Note_on_c, 0, 69, 0
1, 37472, Note_on_c, 0, 41, 0
1, 37483, Note_on_c, 0, 57, 0
1, 37506, Note_on_c, 0, 72, 80
1, 37506, Note_on_c, 0, 67, 80
1, 37507, Note_on_c, 0, 62, 71
1, 37528, Note_on_c, 0, 72, 0
1, 37531, Note_on_c, 0, 67, 0
1, 37536, Note_on_c, 0, 62, 0
1, 37563, Control_c, 0, 64, 0
1, 37564, Note_on_c, 0, 71, 65
1, 37565, Note_on_c, 0, 67, 64
1, 37565, Note_on_c, 0, 52, 32
1, 37565, Note_on_c, 0, 62, 64
1, 37566, Note_on_c, 0, 59, 32
1, 37567, Note_on_c, 0, 55, 47
1, 37585, Control_c, 0, 64, 127
1, 37592, Note_on_c, 0, 67, 0
1, 37606, Note_on_c, 0, 62, 0
1, 37608, Note_on_c, 0, 59, 0
1, 37613, Note_on_c, 0, 55, 0
1, 37620, Note_on_c, 0, 71, 0
1, 37620, Note_on_c, 0, 52, 0
1, 37625, Note_on_c, 0, 67, 55
1, 37626, Note_on_c, 0, 62, 38
1, 37637, Note_on_c, 0, 62, 0
1, 37655, Note_on_c, 0, 67, 0
1, 37682, Control_c, 0, 64, 0
1, 37685, Note_on_c, 0, 45, 32
1, 37685, Note_on_c, 0, 69, 48
1, 37686, Note_on_c, 0, 55, 29
1, 37686, Note_on_c, 0, 65, 38
1, 37687, Note_on_c, 0, 60, 28
1, 37688, Note_on_c, 0, 52, 32
1, 37701, Control_c, 0, 64, 127
1, 37705, Note_on_c, 0, 45, 0
1, 37707, Note_on_c, 0, 52, 0
1, 37711, Note_on_c, 0, 60, 0
1, 37714, Note_on_c, 0, 55, 0
1, 37719, Note_on_c, 0, 65, 0
1, 37736, Note_on_c, 0, 69, 0
1, 37745, Note_on_c, 0, 67, 57
1, 37747, Note_on_c, 0, 64, 46
1, 37753, Note_on_c, 0, 64, 0
1, 37781, Note_on_c, 0, 67, 0
1, 37803, Note_on_c, 0, 59, 40
1, 37804, Note_on_c, 0, 60, 34
1, 37805, Note_on_c, 0, 64, 42
1, 37807, Control_c, 0, 64, 0
1, 37815, Note_on_c, 0, 60, 0
1, 37815, Control_c, 0, 64, 127
1, 37832, Note_on_c, 0, 64, 0
1, 37884, Note_on_c, 0, 59, 0
1, 37922, Note_on_c, 0, 60, 31
1, 37922, Note_on_c, 0, 54, 30
1, 37923, Note_on_c, 0, 64, 22
1, 37926, Note_on_c, 0, 86, 55
1, 37927, Control_c, 0, 64, 0
1, 37929, Note_on_c, 0, 64, 0
1, 37931, Note_on_c, 0, 86, 0
1, 37933, Note_on_c, 0, 60, 0
1, 37936, Note_on_c, 0, 88, 57
1, 37945, Note_on_c, 0, 86, 40
1, 37946, Note_on_c, 0, 54, 0
1, 37948, Note_on_c, 0, 88, 0
1, 37962, Note_on_c, 0, 86, 0
1, 37964, Note_on_c, 0, 85, 50
1, 37975, Note_on_c, 0, 85, 0
1, 38006, Control_c, 0, 64, 127
1, 38037, Note_on_c, 0, 60, 26
1, 38037, Note_on_c, 0, 54, 28
1, 38040, Note_on_c, 0, 50, 33
1, 38069, Note_on_c, 0, 50, 0
1, 38079, Note_on_c, 0, 54, 0
1, 38084, Note_on_c, 0, 60, 0
1, 38163, Note_on_c, 0, 72, 45
1, 38164, Note_on_c, 0, 65, 36
1, 38166, Note_on_c, 0, 67, 31
1, 38167, Note_on_c, 0, 57, 36
1, 38168, Control_c, 0, 64, 0
1, 38168, Note_on_c, 0, 60, 29
1, 38188, Control_c, 0, 64, 127
1, 38200, Note_on_c, 0, 79, 68
1, 38220, Note_on_c, 0, 67, 0
1, 38223, Note_on_c, 0, 72, 0
1, 38226, Note_on_c, 0, 79, 0
1, 38227, Note_on_c, 0, 60, 0
1, 38227, Note_on_c, 0, 65, 0
1, 38233, Note_on_c, 0, 57, 0
1, 38278, Note_on_c, 0, 82, 60
1, 38284, Note_on_c, 0, 79, 43
1, 38285, Note_on_c, 0, 75, 55
1, 38287, Note_on_c, 0, 59, 31
1, 38288, Note_on_c, 0, 70, 45
1, 38289, Control_c, 0, 64, 0
1, 38290, Note_on_c, 0, 64, 19
1, 38290, Note_on_c, 0, 53, 30
1, 38314, Control_c, 0, 64, 127
1, 38337, Note_on_c, 0, 79, 0
1, 38344, Note_on_c, 0, 70, 0
1, 38345, Note_on_c, 0, 75, 0
1, 38353, Note_on_c, 0, 82, 0
1, 38353, Note_on_c, 0, 64, 0
1, 38354, Note_on_c, 0, 59, 0
1, 38378, Note_on_c, 0, 53, 0
1, 38390, Note_on_c, 0, 84, 82
1, 38405, Note_on_c, 0, 84, 0
1, 38412, Note_on_c, 0, 82, 53
1, 38416, Note_on_c, 0, 58, 28
1, 38417, Note_on_c, 0, 57, 24
1, 38418, Note_on_c, 0, 62, 24
1, 38420, Control_c, 0, 64, 0
1, 38439, Note_on_c, 0, 82, 0
1, 38443, Note_on_c, 0, 78, 34
1, 38456, Note_on_c, 0, 78, 0
1, 38463, Note_on_c, 0, 81, 67
1, 38486, Note_on_c, 0, 81, 0
1, 38497, Note_on_c, 0, 79, 55
1, 38503, Control_c, 0, 64, 127
1, 38504, Note_on_c, 0, 62, 0
1, 38509, Note_on_c, 0, 79, 0
1, 38513, Note_on_c, 0, 57, 0
1, 38514, Note_on_c, 0, 58, 0
1, 38537, Note_on_c, 0, 55, 44
1, 38537, Note_on_c, 0, 58, 34
1, 38538, Control_c, 0, 64, 0
1, 38538, Note_on_c, 0, 62, 27
1, 38543, Control_c, 0, 64, 127
1, 38556, Note_on_c, 0, 62, 0
1, 38560, Note_on_c, 0, 58, 0
1, 38565, Note_on_c, 0, 55, 0
1, 38653, Note_on_c, 0, 36, 32
1, 38654, Control_c, 0, 64, 0
1, 38654, Note_on_c, 0, 52, 40
1, 38672, Control_c, 0, 64, 127
1, 38675, Note_on_c, 0, 36, 0
1, 38688, Note_on_c, 0, 52, 0
1, 38768, Note_on_c, 0, 61, 50
1, 38769, Note_on_c, 0, 58, 37
1, 38806, Note_on_c, 0, 64, 69
1, 38815, Note_on_c, 0, 64, 0
1, 38841, Note_on_c, 0, 72, 83
1, 38854, Note_on_c, 0, 72, 0
1, 38881, Note_on_c, 0, 79, 74
1, 38882, Note_on_c, 0, 58, 0
1, 38882, Note_on_c, 0, 72, 80
1, 38883, Note_on_c, 0, 61, 0
1, 38883, Note_on_c, 0, 64, 62
1, 38883, Note_on_c, 0, 69, 80
1, 38886, Control_c, 0, 64, 0
1, 38905, Control_c, 0, 64, 127
1, 38924, Note_on_c, 0, 79, 0
1, 38925, Note_on_c, 0, 72, 0
1, 38925, Note_on_c, 0, 69, 0
1, 38938, Note_on_c, 0, 64, 0
1, 38939, Note_on_c, 0, 77, 72
1, 38940, Note_on_c, 0, 72, 64
1, 38940, Note_on_c, 0, 69, 61
1, 38942, Note_on_c, 0, 62, 57
1, 38959, Note_on_c, 0, 77, 0
1, 38960, Note_on_c, 0, 72, 0
1, 38961, Note_on_c, 0, 69, 0
1, 38990, Note_on_c, 0, 62, 0
1, 38999, Note_on_c, 0, 76, 57
1, 39001, Note_on_c, 0, 72, 48
1, 39001, Note_on_c, 0, 60, 40
1, 39001, Note_on_c, 0, 69, 51
1, 39002, Note_on_c, 0, 64, 30
1, 39006, Control_c, 0, 64, 0
1, 39008, Control_c, 0, 64, 127
1, 39014, Note_on_c, 0, 69, 0
1, 39014, Note_on_c, 0, 72, 0
1, 39016, Note_on_c, 0, 76, 0
1, 39024, Note_on_c, 0, 64, 0
1, 39046, Note_on_c, 0, 60, 0
1, 39057, Note_on_c, 0, 72, 46
1, 39057, Note_on_c, 0, 69, 46
1, 39058, Note_on_c, 0, 62, 45
1, 39059, Note_on_c, 0, 65, 47
1, 39059, Note_on_c, 0, 57, 38
1, 39065, Note_on_c, 0, 57, 0
1, 39067, Note_on_c, 0, 65, 0
1, 39068, Note_on_c, 0, 69, 0
1, 39071, Note_on_c, 0, 72, 0
1, 39077, Note_on_c, 0, 62, 0
1, 39117, Control_c, 0, 64, 0
1, 39117, Note_on_c, 0, 67, 49
1, 39118, Note_on_c, 0, 64, 43
1, 39119, Note_on_c, 0, 55, 37
1, 39119, Note_on_c, 0, 46, 30
1, 39127, Control_c, 0, 64, 127
1, 39132, Note_on_c, 0, 64, 0
1, 39133, Note_on_c, 0, 46, 0
1, 39135, Note_on_c, 0, 55, 0
1, 39135, Note_on_c, 0, 67, 0
1, 39155, Note_on_c, 0, 75, 20
1, 39166, Note_on_c, 0, 75, 0
1, 39178, Note_on_c, 0, 79, 80
1, 39178, Note_on_c, 0, 76, 73
1, 39178, Note_on_c, 0, 72, 78
1, 39179, Note_on_c, 0, 67, 72
1, 39180, Note_on_c, 0, 56, 56
1, 39181, Note_on_c, 0, 62, 51
1, 39223, Note_on_c, 0, 67, 0
1, 39226, Note_on_c, 0, 62, 0
1, 39227, Note_on_c, 0, 72, 0
1, 39227, Note_on_c, 0, 56, 0
1, 39228, Note_on_c, 0, 79, 0
1, 39231, Note_on_c, 0, 76, 0
1, 39244, Note_on_c, 0, 79, 71
1, 39246, Note_on_c, 0, 72, 61
1, 39246, Note_on_c, 0, 76, 53
1, 39246, Note_on_c, 0, 56, 44
1, 39246, Note_on_c, 0, 67, 65
1, 39246, Note_on_c, 0, 62, 50
1, 39271, Note_on_c, 0, 79, 0
1, 39278, Note_on_c, 0, 76, 0
1, 39281, Note_on_c, 0, 72, 0
1, 39284, Note_on_c, 0, 67, 0
1, 39299, Note_on_c, 0, 62, 0
1, 39304, Note_on_c, 0, 56, 0
1, 39333, Note_on_c, 0, 77, 60
1, 39354, Note_on_c, 0, 77, 0
1, 39362, Note_on_c, 0, 76, 59
1, 39365, Note_on_c, 0, 67, 44
1, 39369, Note_on_c, 0, 64, 31
1, 39372, Control_c, 0, 64, 0
1, 39372, Note_on_c, 0, 62, 26
1, 39388, Note_on_c, 0, 67, 0
1, 39405, Control_c, 0, 64, 127
1, 39408, Note_on_c, 0, 55, 50
1, 39443, Note_on_c, 0, 76, 0
1, 39446, Note_on_c, 0, 64, 0
1, 39448, Note_on_c, 0, 62, 0
1, 39486, Note_on_c, 0, 64, 41
1, 39486, Note_on_c, 0, 67, 39
1, 39486, Note_on_c, 0, 62, 30
1, 39504, Note_on_c, 0, 67, 0
1, 39516, Note_on_c, 0, 55, 0
1, 39522, Note_on_c, 0, 74, 87
1, 39541, Note_on_c, 0, 74, 0
1, 39550, Note_on_c, 0, 76, 71
1, 39551, Note_on_c, 0, 55, 49
1, 39568, Note_on_c, 0, 76, 0
1, 39572, Note_on_c, 0, 62, 0
1, 39572, Note_on_c, 0, 64, 0
1, 39582, Note_on_c, 0, 81, 87
1, 39599, Note_on_c, 0, 81, 0
1, 39607, Note_on_c, 0, 74, 45
1, 39608, Note_on_c, 0, 57, 34
1, 39608, Note_on_c, 0, 64, 34
1, 39609, Note_on_c, 0, 60, 35
1, 39611, Note_on_c, 0, 75, 52
1, 39611, Control_c, 0, 64, 0
1, 39615, Note_on_c, 0, 74, 0
1, 39616, Note_on_c, 0, 75, 0
1, 39622, Note_on_c, 0, 76, 37
1, 39633, Note_on_c, 0, 55, 0
1, 39641, Control_c, 0, 64, 127
1, 39646, Note_on_c, 0, 76, 0
1, 39647, Note_on_c, 0, 72, 50
1, 39647, Note_on_c, 0, 55, 41
1, 39685, Note_on_c, 0, 57, 0
1, 39688, Note_on_c, 0, 60, 0
1, 39691, Note_on_c, 0, 64, 0
1, 39718, Note_on_c, 0, 72, 0
1, 39723, Note_on_c, 0, 64, 36
1, 39724, Note_on_c, 0, 60, 37
1, 39727, Note_on_c, 0, 57, 25
1, 39753, Note_on_c, 0, 64, 0
1, 39769, Note_on_c, 0, 74, 87
1, 39788, Note_on_c, 0, 74, 0
1, 39805, Note_on_c, 0, 74, 77
1, 39810, Note_on_c, 0, 60, 0
1, 39818, Note_on_c, 0, 57, 0
1, 39818, Note_on_c, 0, 55, 0
1, 39827, Note_on_c, 0, 74, 0
1, 39838, Note_on_c, 0, 72, 54
1, 39838, Note_on_c, 0, 64, 39
1, 39839, Control_c, 0, 64, 0
1, 39840, Note_on_c, 0, 54, 42
1, 39840, Note_on_c, 0, 60, 15
1, 39840, Note_on_c, 0, 69, 43
1, 39858, Control_c, 0, 64, 127
1, 39869, Note_on_c, 0, 64, 0
1, 39872, Note_on_c, 0, 60, 0
1, 39882, Note_on_c, 0, 69, 0
1, 39883, Note_on_c, 0, 54, 0
1, 39883, Note_on_c, 0, 72, 0
1, 39957, Note_on_c, 0, 42, 35
1, 39959, Note_on_c, 0, 64, 45
1, 39961, Note_on_c, 0, 60, 31
1, 39961, Note_on_c, 0, 52, 29
1, 39970, Note_on_c, 0, 60, 0
1, 39971, Note_on_c, 0, 64, 0
1, 39973, Note_on_c, 0, 52, 0
1, 39981, Note_on_c, 0, 42, 0
1, 40007, Note_on_c, 0, 72, 80
1, 40021, Note_on_c, 0, 72, 0
1, 40044, Note_on_c, 0, 72, 80
1, 40059, Note_on_c, 0, 72, 0
1, 40082, Note_on_c, 0, 51, 43
1, 40084, Note_on_c, 0, 71, 54
1, 40086, Note_on_c, 0, 67, 48
1, 40086, Note_on_c, 0, 47, 43
1, 40086, Note_on_c, 0, 62, 39
1, 40088, Note_on_c, 0, 57, 31
1, 40090, Control_c, 0, 64, 0
1, 40114, Control_c, 0, 64, 127
1, 40137, Note_on_c, 0, 57, 0
1, 40140, Note_on_c, 0, 62, 0
1, 40141, Note_on_c, 0, 67, 0
1, 40164, Note_on_c, 0, 51, 0
1, 40192, Note_on_c, 0, 71, 0
1, 40207, Note_on_c, 0, 63, 33
1, 40207, Note_on_c, 0, 66, 35
1, 40208, Note_on_c, 0, 59, 35
1, 40210, Note_on_c, 0, 51, 30
1, 40220, Note_on_c, 0, 51, 0
1, 40221, Note_on_c, 0, 47, 0
1, 40226, Note_on_c, 0, 59, 0
1, 40231, Note_on_c, 0, 63, 0
1, 40233, Note_on_c, 0, 66, 0
1, 40304, Note_on_c, 0, 72, 45
1, 40316, Note_on_c, 0, 72, 0
1, 40327, Note_on_c, 0, 71, 49
1, 40327, Note_on_c, 0, 62, 42
1, 40327, Note_on_c, 0, 67, 46
1, 40329, Note_on_c, 0, 40, 44
1, 40330, Control_c, 0, 64, 0
1, 40332, Note_on_c, 0, 55, 26
1, 40338, Note_on_c, 0, 67, 0
1, 40338, Note_on_c, 0, 62, 0
1, 40342, Note_on_c, 0, 55, 0
1, 40343, Note_on_c, 0, 71, 0
1, 40371, Control_c, 0, 64, 127
1, 40425, Note_on_c, 0, 69, 61
1, 40425, Note_on_c, 0, 54, 35
1, 40426, Note_on_c, 0, 57, 45
1, 40427, Note_on_c, 0, 66, 42
1, 40428, Note_on_c, 0, 62, 50
1, 40436, Note_on_c, 0, 54, 0
1, 40441, Note_on_c, 0, 57, 0
1, 40443, Note_on_c, 0, 69, 0
1, 40443, Note_on_c, 0, 62, 0
1, 40444, Note_on_c, 0, 66, 0
1, 40453, Note_on_c, 0, 52, 48
1, 40454, Note_on_c, 0, 67, 35
1, 40455, Note_on_c, 0, 57, 33
1, 40455, Note_on_c, 0, 62, 33
1, 40457, Control_c, 0, 64, 0
1, 40481, Control_c, 0, 64, 127
1, 40540, Note_on_c, 0, 62, 0
1, 40543, Note_on_c, 0, 57, 0
1, 40544, Note_on_c, 0, 69, 44
1, 40544, Note_on_c, 0, 47, 49
1, 40545, Note_on_c, 0, 52, 0
1, 40551, Note_on_c, 0, 40, 0
1, 40554, Note_on_c, 0, 67, 0
1, 40559, Note_on_c, 0, 47, 0
1, 40567, Note_on_c, 0, 71, 76
1, 40568, Note_on_c, 0, 66, 61
1, 40568, Note_on_c, 0, 62, 74
1, 40568, Note_on_c, 0, 57, 72
1, 40569, Note_on_c, 0, 52, 67
1, 40570, Control_c, 0, 64, 0
1, 40597, Control_c, 0, 64, 127
1, 40634, Note_on_c, 0, 69, 0
1, 40649, Note_on_c, 0, 52, 0
1, 40652, Note_on_c, 0, 57, 0
1, 40653, Note_on_c, 0, 62, 0
1, 40658, Note_on_c, 0, 66, 0
1, 40667, Note_on_c, 0, 71, 0
1, 40686, Note_on_c, 0, 67, 53
1, 40686, Note_on_c, 0, 59, 42
1, 40687, Note_on_c, 0, 62, 36
1, 40689, Control_c, 0, 64, 0
1, 40689, Note_on_c, 0, 50, 34
1, 40689, Note_on_c, 0, 66, 31
1, 40717, Control_c, 0, 64, 127
1, 40728, Note_on_c, 0, 40, 57
1, 40744, Note_on_c, 0, 40, 0
1, 40751, Note_on_c, 0, 50, 0
1, 40762, Note_on_c, 0, 59, 0
1, 40775, Note_on_c, 0, 66, 0
1, 40778, Note_on_c, 0, 62, 0
1, 40783, Note_on_c, 0, 67, 0
1, 40801, Note_on_c, 0, 69, 85
1, 40802, Note_on_c, 0, 65, 84
1, 40802, Note_on_c, 0, 51, 60
1, 40803, Note_on_c, 0, 57, 68
1, 40803, Note_on_c, 0, 60, 80
1, 40804, Control_c, 0, 64, 0
1, 40805, Note_on_c, 0, 47, 56
1, 40825, Control_c, 0, 64, 127
1, 40836, Note_on_c, 0, 57, 0
1, 40842, Note_on_c, 0, 60, 0
1, 40844, Note_on_c, 0, 65, 0
1, 40847, Note_on_c, 0, 69, 0
1, 40848, Note_on_c, 0, 47, 0
1, 40850, Note_on_c, 0, 51, 0
1, 40861, Note_on_c, 0, 67, 69
1, 40862, Note_on_c, 0, 51, 43
1, 40862, Note_on_c, 0, 59, 68
1, 40862, Note_on_c, 0, 62, 63
1, 40865, Note_on_c, 0, 57, 53
1, 40865, Note_on_c, 0, 47, 44
1, 40868, Control_c, 0, 64, 0
1, 40873, Note_on_c, 0, 57, 0
1, 40878, Control_c, 0, 64, 127
1, 40888, Note_on_c, 0, 67, 0
1, 40891, Note_on_c, 0, 62, 0
1, 40896, Note_on_c, 0, 47, 0
1, 40898, Note_on_c, 0, 59, 0
1, 40903, Note_on_c, 0, 51, 0
1, 40920, Control_c, 0, 64, 0
1, 40920, Note_on_c, 0, 65, 54
1, 40920, Note_on_c, 0, 57, 48
1, 40920, Note_on_c, 0, 60, 56
1, 40921, Note_on_c, 0, 51, 44
1, 40924, Note_on_c, 0, 47, 40
1, 40935, Control_c, 0, 64, 127
1, 40941, Note_on_c, 0, 57, 0
1, 40945, Note_on_c, 0, 60, 0
1, 40947, Note_on_c, 0, 65, 0
1, 40962, Note_on_c, 0, 47, 0
1, 40962, Note_on_c, 0, 51, 0
1, 40977, Note_on_c, 0, 51, 30
1, 40979, Note_on_c, 0, 67, 50
1, 40980, Note_on_c, 0, 57, 36
1, 40981, Note_on_c, 0, 62, 52
1, 40985, Note_on_c, 0, 47, 18
1, 41001, Note_on_c, 0, 47, 0
1, 41002, Note_on_c, 0, 67, 0
1, 41003, Note_on_c, 0, 62, 0
1, 41005, Note_on_c, 0, 51, 0
1, 41006, Note_on_c, 0, 57, 0
1, 41039, Control_c, 0, 64, 0
1, 41040, Note_on_c, 0, 69, 54
1, 41040, Note_on_c, 0, 51, 31
1, 41041, Note_on_c, 0, 60, 34
1, 41041, Note_on_c, 0, 65, 47
1, 41043, Note_on_c, 0, 57, 30
1, 41046, Note_on_c, 0, 47, 24
1, 41054, Control_c, 0, 64, 127
1, 41057, Note_on_c, 0, 60, 0
1, 41059, Note_on_c, 0, 65, 0
1, 41060, Note_on_c, 0, 69, 0
1, 41060, Note_on_c, 0, 47, 0
1, 41063, Note_on_c, 0, 57, 0
1, 41096, Note_on_c, 0, 62, 67
1, 41097, Note_on_c, 0, 71, 61
1, 41097, Note_on_c, 0, 67, 60
1, 41098, Note_on_c, 0, 57, 45
1, 41109, Note_on_c, 0, 51, 0
1, 41112, Note_on_c, 0, 62, 0
1, 41115, Note_on_c, 0, 67, 0
1, 41116, Note_on_c, 0, 71, 0
1, 41122, Note_on_c, 0, 57, 0
1, 41157, Note_on_c, 0, 74, 80
1, 41158, Note_on_c, 0, 71, 69
1, 41158, Note_on_c, 0, 64, 78
1, 41158, Note_on_c, 0, 67, 69
1, 41160, Note_on_c, 0, 59, 49
1, 41161, Control_c, 0, 64, 0
1, 41174, Control_c, 0, 64, 127
1, 41185, Note_on_c, 0, 59, 0
1, 41187, Note_on_c, 0, 74, 0
1, 41188, Note_on_c, 0, 64, 0
1, 41192, Note_on_c, 0, 67, 0
1, 41196, Note_on_c, 0, 71, 0
1, 41223, Note_on_c, 0, 51, 48
1, 41223, Note_on_c, 0, 57, 58
1, 41224, Note_on_c, 0, 47, 54
1, 41242, Note_on_c, 0, 47, 0
1, 41246, Note_on_c, 0, 51, 0
1, 41249, Note_on_c, 0, 57, 0
1, 41255, Note_on_c, 0, 81, 70
1, 41270, Note_on_c, 0, 81, 0
1, 41283, Note_on_c, 0, 56, 37
1, 41283, Note_on_c, 0, 80, 63
1, 41283, Note_on_c, 0, 59, 51
1, 41286, Note_on_c, 0, 52, 43
1, 41288, Control_c, 0, 64, 0
1, 41306, Control_c, 0, 64, 127
1, 41328, Note_on_c, 0, 71, 49
1, 41380, Note_on_c, 0, 59, 0
1, 41405, Note_on_c, 0, 59, 38
1, 41406, Note_on_c, 0, 62, 42
1, 41412, Note_on_c, 0, 62, 0
1, 41418, Note_on_c, 0, 59, 0
1, 41428, Note_on_c, 0, 71, 0
1, 41428, Note_on_c, 0, 52, 0
1, 41430, Note_on_c, 0, 80, 0
1, 41430, Note_on_c, 0, 56, 0
1, 41433, Note_on_c, 0, 73, 58
1, 41445, Note_on_c, 0, 73, 0
1, 41457, Note_on_c, 0, 76, 57
1, 41472, Note_on_c, 0, 76, 0
1, 41484, Note_on_c, 0, 78, 47
1, 41496, Note_on_c, 0, 78, 0
1, 41505, Note_on_c, 0, 80, 64
1, 41522, Note_on_c, 0, 80, 0
1, 41528, Note_on_c, 0, 49, 38
1, 41529, Control_c, 0, 64, 0
1, 41530, Note_on_c, 0, 83, 58
1, 41530, Note_on_c, 0, 59, 38
1, 41548, Control_c, 0, 64, 127
1, 41559, Note_on_c, 0, 85, 58
1, 41563, Note_on_c, 0, 83, 0
1, 41577, Note_on_c, 0, 49, 0
1, 41585, Note_on_c, 0, 59, 0
1, 41601, Note_on_c, 0, 85, 0
1, 41603, Note_on_c, 0, 88, 74
1, 41646, Note_on_c, 0, 61, 40
1, 41666, Note_on_c, 0, 61, 0
1, 41714, Note_on_c, 0, 88, 0
1, 41723, Note_on_c, 0, 93, 67
1, 41727, Note_on_c, 0, 93, 0
1, 41751, Note_on_c, 0, 93, 87
1, 41767, Note_on_c, 0, 93, 0
1, 41778, Note_on_c, 0, 93, 79
1, 41779, Note_on_c, 0, 42, 56
1, 41779, Note_on_c, 0, 96, 81
1, 41782, Note_on_c, 0, 52, 48
1, 41783, Control_c, 0, 64, 0
1, 41799, Control_c, 0, 64, 127
1, 41806, Note_on_c, 0, 93, 0
1, 41807, Note_on_c, 0, 42, 0
1, 41809, Note_on_c, 0, 96, 0
1, 41811, Note_on_c, 0, 52, 0
1, 41814, Note_on_c, 0, 95, 71
1, 41815, Note_on_c, 0, 91, 66
1, 41832, Note_on_c, 0, 91, 0
1, 41834, Note_on_c, 0, 95, 0
1, 41845, Note_on_c, 0, 95, 66
1, 41846, Note_on_c, 0, 91, 65
1, 41862, Note_on_c, 0, 95, 0
1, 41868, Note_on_c, 0, 91, 0
1, 41877, Note_on_c, 0, 90, 54
1, 41877, Note_on_c, 0, 93, 65
1, 41892, Note_on_c, 0, 90, 0
1, 41897, Note_on_c, 0, 93, 0
1, 41905, Note_on_c, 0, 54, 33
1, 41905, Note_on_c, 0, 64, 30
1, 41906, Note_on_c, 0, 57, 36
1, 41907, Note_on_c, 0, 60, 29
1, 41907, Note_on_c, 0, 93, 51
1, 41907, Note_on_c, 0, 90, 49
1, 41917, Note_on_c, 0, 64, 0
1, 41920, Note_on_c, 0, 90, 0
1, 41923, Note_on_c, 0, 60, 0
1, 41923, Note_on_c, 0, 57, 0
1, 41926, Note_on_c, 0, 93, 0
1, 41931, Note_on_c, 0, 54, 0
1, 41935, Note_on_c, 0, 88, 51
1, 41936, Note_on_c, 0, 91, 54
1, 41944, Note_on_c, 0, 88, 0
1, 41948, Note_on_c, 0, 91, 0
1, 41959, Note_on_c, 0, 91, 47
1, 41962, Note_on_c, 0, 88, 63
1, 41968, Note_on_c, 0, 88, 0
1, 41968, Note_on_c, 0, 91, 0
1, 41987, Note_on_c, 0, 90, 56
1, 41987, Note_on_c, 0, 87, 54
1, 41998, Note_on_c, 0, 87, 0
1, 42004, Note_on_c, 0, 90, 0
1, 42016, Note_on_c, 0, 87, 51
1, 42017, Note_on_c, 0, 90, 46
1, 42017, Note_on_c, 0, 47, 39
1, 42018, Note_on_c, 0, 57, 30
1, 42023, Control_c, 0, 64, 0
1, 42035, Note_on_c, 0, 90, 0
1, 42036, Note_on_c, 0, 87, 0
1, 42036, Control_c, 0, 64, 127
1, 42046, Note_on_c, 0, 47, 0
1, 42046, Note_on_c, 0, 84, 51
1, 42049, Note_on_c, 0, 88, 45
1, 42057, Note_on_c, 0, 57, 0
1, 42058, Note_on_c, 0, 84, 0
1, 42062, Note_on_c, 0, 88, 0
1, 42073, Note_on_c, 0, 88, 45
1, 42073, Note_on_c, 0, 84, 47
1, 42084, Note_on_c, 0, 88, 0
1, 42085, Note_on_c, 0, 84, 0
1, 42100, Note_on_c, 0, 83, 46
1, 42101, Note_on_c, 0, 86, 60
1, 42114, Note_on_c, 0, 83, 0
1, 42115, Note_on_c, 0, 86, 0
1, 42123, Note_on_c, 0, 51, 42
1, 42124, Note_on_c, 0, 62, 46
1, 42126, Note_on_c, 0, 86, 48
1, 42127, Note_on_c, 0, 83, 56
1, 42129, Note_on_c, 0, 57, 34
1, 42141, Note_on_c, 0, 86, 0
1, 42142, Note_on_c, 0, 83, 0
1, 42156, Note_on_c, 0, 81, 50
1, 42157, Note_on_c, 0, 84, 57
1, 42171, Note_on_c, 0, 84, 0
1, 42173, Note_on_c, 0, 81, 0
1, 42178, Note_on_c, 0, 51, 0
1, 42181, Note_on_c, 0, 57, 0
1, 42184, Note_on_c, 0, 84, 55
1, 42185, Note_on_c, 0, 81, 48
1, 42198, Note_on_c, 0, 81, 0
1, 42198, Note_on_c, 0, 84, 0
1, 42204, Note_on_c, 0, 62, 0
1, 42214, Note_on_c, 0, 83, 55
1, 42214, Note_on_c, 0, 79, 33
1, 42229, Note_on_c, 0, 83, 0
1, 42231, Note_on_c, 0, 79, 0
1, 42243, Note_on_c, 0, 79, 55
1, 42244, Note_on_c, 0, 83, 53
1, 42245, Note_on_c, 0, 62, 32
1, 42246, Note_on_c, 0, 52, 41
1, 42246, Note_on_c, 0, 59, 28
1, 42247, Control_c, 0, 64, 0
1, 42247, Note_on_c, 0, 55, 33
1, 42258, Note_on_c, 0, 83, 0
1, 42258, Note_on_c, 0, 79, 0
1, 42264, Note_on_c, 0, 62, 0
1, 42267, Control_c, 0, 64, 127
1, 42273, Note_on_c, 0, 81, 46
1, 42273, Note_on_c, 0, 78, 46
1, 42286, Note_on_c, 0, 78, 0
1, 42289, Note_on_c, 0, 81, 0
1, 42305, Note_on_c, 0, 81, 71
1, 42305, Note_on_c, 0, 78, 64
1, 42325, Note_on_c, 0, 78, 0
1, 42325, Note_on_c, 0, 81, 0
1, 42333, Note_on_c, 0, 76, 69
1, 42334, Note_on_c, 0, 79, 72
1, 42349, Note_on_c, 0, 76, 0
1, 42353, Note_on_c, 0, 79, 0
1, 42363, Note_on_c, 0, 79, 67
1, 42363, Note_on_c, 0, 76, 60
1, 42366, Note_on_c, 0, 63, 52
1, 42368, Control_c, 0, 64, 0
1, 42380, Note_on_c, 0, 76, 0
1, 42384, Control_c, 0, 64, 127
1, 42387, Note_on_c, 0, 79, 0
1, 42395, Note_on_c, 0, 74, 54
1, 42396, Note_on_c, 0, 78, 49
1, 42407, Note_on_c, 0, 74, 0
1, 42409, Note_on_c, 0, 78, 0
1, 42424, Note_on_c, 0, 78, 49
1, 42425, Note_on_c, 0, 74, 54
1, 42436, Note_on_c, 0, 74, 0
1, 42438, Note_on_c, 0, 63, 0
1, 42438, Note_on_c, 0, 78, 0
1, 42454, Note_on_c, 0, 76, 42
1, 42456, Note_on_c, 0, 71, 26
1, 42466, Note_on_c, 0, 71, 0
1, 42466, Note_on_c, 0, 52, 0
1, 42470, Note_on_c, 0, 76, 0
1, 42484, Note_on_c, 0, 62, 48
1, 42484, Note_on_c, 0, 52, 17
1, 42486, Note_on_c, 0, 76, 44
1, 42486, Note_on_c, 0, 71, 50
1, 42489, Control_c, 0, 64, 0
1, 42497, Control_c, 0, 64, 127
1, 42499, Note_on_c, 0, 76, 0
1, 42501, Note_on_c, 0, 71, 0
1, 42517, Note_on_c, 0, 74, 57
1, 42521, Note_on_c, 0, 69, 36
1, 42533, Note_on_c, 0, 69, 0
1, 42537, Note_on_c, 0, 62, 0
1, 42539, Note_on_c, 0, 74, 0
1, 42549, Note_on_c, 0, 74, 62
1, 42554, Note_on_c, 0, 67, 42
1, 42559, Note_on_c, 0, 67, 0
1, 42569, Note_on_c, 0, 74, 0
1, 42577, Note_on_c, 0, 71, 51
1, 42578, Note_on_c, 0, 67, 54
1, 42581, Note_on_c, 0, 64, 31
1, 42582, Note_on_c, 0, 59, 0
1, 42593, Note_on_c, 0, 64, 0
1, 42594, Note_on_c, 0, 67, 0
1, 42599, Note_on_c, 0, 71, 0
1, 42608, Note_on_c, 0, 59, 50
1, 42609, Note_on_c, 0, 71, 50
1, 42610, Note_on_c, 0, 64, 49
1, 42610, Note_on_c, 0, 67, 51
1, 42622, Note_on_c, 0, 52, 0
1, 42624, Note_on_c, 0, 67, 0
1, 42627, Note_on_c, 0, 64, 0
1, 42633, Note_on_c, 0, 71, 0
1, 42640, Note_on_c, 0, 67, 35
1, 42641, Note_on_c, 0, 62, 39
1, 42654, Note_on_c, 0, 67, 0
1, 42656, Note_on_c, 0, 62, 0
1, 42666, Note_on_c, 0, 59, 0
1, 42669, Note_on_c, 0, 55, 0
1, 42670, Note_on_c, 0, 67, 45
1, 42672, Note_on_c, 0, 62, 27
1, 42682, Note_on_c, 0, 62, 0
1, 42685, Note_on_c, 0, 67, 0
1, 42703, Note_on_c, 0, 71, 41
1, 42703, Note_on_c, 0, 72, 45
1, 42712, Note_on_c, 0, 72, 0
1, 42718, Note_on_c, 0, 71, 0
1, 42732, Note_on_c, 0, 63, 42
1, 42734, Note_on_c, 0, 71, 47
1, 42734, Note_on_c, 0, 67, 48
1, 42735, Note_on_c, 0, 59, 41
1, 42737, Note_on_c, 0, 41, 53
1, 42741, Control_c, 0, 64, 0
1, 42755, Note_on_c, 0, 67, 0
1, 42761, Note_on_c, 0, 59, 0
1, 42762, Control_c, 0, 64, 127
1, 42763, Note_on_c, 0, 63, 0
1, 42766, Note_on_c, 0, 48, 57
1, 42772, Note_on_c, 0, 71, 0
1, 42780, Note_on_c, 0, 41, 0
1, 42797, Note_on_c, 0, 57, 55
1, 42798, Note_on_c, 0, 48, 0
1, 42800, Note_on_c, 0, 63, 71
1, 42801, Note_on_c, 0, 67, 76
1, 42814, Note_on_c, 0, 57, 0
1, 42832, Note_on_c, 0, 60, 37
1, 42840, Note_on_c, 0, 63, 0
1, 42842, Note_on_c, 0, 67, 0
1, 42862, Note_on_c, 0, 63, 74
1, 42862, Note_on_c, 0, 74, 79
1, 42862, Note_on_c, 0, 67, 74
1, 42863, Note_on_c, 0, 62, 65
1, 42867, Note_on_c, 0, 60, 0
1, 42895, Note_on_c, 0, 74, 0
1, 42902, Note_on_c, 0, 72, 68
1, 42905, Note_on_c, 0, 60, 44
1, 42910, Note_on_c, 0, 62, 0
1, 42922, Note_on_c, 0, 63, 0
1, 42923, Note_on_c, 0, 60, 0
1, 42925, Note_on_c, 0, 67, 0
1, 42931, Note_on_c, 0, 72, 0
1, 42936, Note_on_c, 0, 71, 64
1, 42951, Note_on_c, 0, 71, 0
1, 42955, Note_on_c, 0, 67, 35
1, 42958, Note_on_c, 0, 63, 33
1, 42959, Note_on_c, 0, 70, 61
1, 42960, Note_on_c, 0, 67, 0
1, 42962, Note_on_c, 0, 63, 0
1, 42972, Note_on_c, 0, 47, 36
1, 42973, Note_on_c, 0, 57, 47
1, 42977, Note_on_c, 0, 69, 62
1, 42977, Note_on_c, 0, 66, 25
1, 42982, Control_c, 0, 64, 0
1, 42986, Note_on_c, 0, 66, 0
1, 42999, Control_c, 0, 64, 127
1, 43035, Note_on_c, 0, 57, 0
1, 43049, Note_on_c, 0, 70, 0
1, 43067, Note_on_c, 0, 69, 0
1, 43085, Note_on_c, 0, 66, 38
1, 43086, Note_on_c, 0, 59, 38
1, 43087, Note_on_c, 0, 63, 35
1, 43089, Note_on_c, 0, 57, 24
1, 43090, Note_on_c, 0, 51, 32
1, 43108, Note_on_c, 0, 57, 0
1, 43126, Note_on_c, 0, 67, 66
1, 43134, Note_on_c, 0, 59, 0
1, 43136, Note_on_c, 0, 47, 0
1, 43137, Note_on_c, 0, 63, 0
1, 43145, Note_on_c, 0, 66, 0
1, 43145, Note_on_c, 0, 67, 0
1, 43148, Note_on_c, 0, 51, 0
1, 43154, Note_on_c, 0, 69, 70
1, 43157, Note_on_c, 0, 63, 23
1, 43169, Note_on_c, 0, 63, 0
1, 43171, Note_on_c, 0, 69, 0
1, 43194, Note_on_c, 0, 63, 46
1, 43195, Note_on_c, 0, 68, 50
1, 43195, Note_on_c, 0, 59, 48
1, 43197, Note_on_c, 0, 52, 47
1, 43206, Control_c, 0, 64, 0
1, 43230, Control_c, 0, 64, 127
1, 43250, Note_on_c, 0, 52, 0
1, 43264, Note_on_c, 0, 52, 66
1, 43296, Note_on_c, 0, 59, 0
1, 43297, Note_on_c, 0, 63, 0
1, 43315, Note_on_c, 0, 68, 0
1, 43324, Note_on_c, 0, 68, 57
1, 43326, Note_on_c, 0, 63, 56
1, 43327, Note_on_c, 0, 59, 46
1, 43357, Note_on_c, 0, 52, 0
1, 43386, Note_on_c, 0, 52, 68
1, 43411, Note_on_c, 0, 59, 0
1, 43418, Note_on_c, 0, 63, 0
1, 43423, Note_on_c, 0, 68, 0
1, 43442, Note_on_c, 0, 68, 70
1, 43442, Note_on_c, 0, 63, 70
1, 43443, Note_on_c, 0, 52, 0
1, 43443, Note_on_c, 0, 59, 68
1, 43503, Note_on_c, 0, 56, 90
1, 43506, Note_on_c, 0, 59, 0
1, 43526, Note_on_c, 0, 63, 0
1, 43529, Note_on_c, 0, 68, 0
1, 43566, Note_on_c, 0, 68, 73
1, 43566, Note_on_c, 0, 63, 78
1, 43567, Note_on_c, 0, 59, 70
1, 43620, Note_on_c, 0, 56, 0
1, 43625, Note_on_c, 0, 52, 64
1, 43639, Note_on_c, 0, 63, 0
1, 43641, Note_on_c, 0, 59, 0
1, 43648, Note_on_c, 0, 52, 0
1, 43659, Note_on_c, 0, 63, 59
1, 43662, Note_on_c, 0, 59, 33
1, 43666, Note_on_c, 0, 68, 0
1, 43667, Note_on_c, 0, 59, 0
1, 43676, Note_on_c, 0, 63, 0
1, 43689, Note_on_c, 0, 67, 74
1, 43690, Note_on_c, 0, 63, 68
1, 43690, Note_on_c, 0, 58, 70
1, 43691, Note_on_c, 0, 59, 50
1, 43691, Note_on_c, 0, 53, 53
1, 43692, Note_on_c, 0, 49, 46
1, 43696, Control_c, 0, 64, 0
1, 43718, Control_c, 0, 64, 127
1, 43739, Note_on_c, 0, 67, 0
1, 43745, Note_on_c, 0, 59, 0
1, 43753, Note_on_c, 0, 67, 52
1, 43761, Note_on_c, 0, 53, 0
1, 43769, Note_on_c, 0, 58, 0
1, 43788, Note_on_c, 0, 63, 0
1, 43791, Note_on_c, 0, 67, 0
1, 43814, Note_on_c, 0, 59, 38
1, 43814, Note_on_c, 0, 67, 53
1, 43815, Note_on_c, 0, 63, 49
1, 43816, Note_on_c, 0, 53, 35
1, 43817, Note_on_c, 0, 58, 36
1, 43836, Note_on_c, 0, 59, 0
1, 43842, Note_on_c, 0, 67, 0
1, 43846, Note_on_c, 0, 53, 0
1, 43852, Note_on_c, 0, 49, 0
1, 43872, Note_on_c, 0, 67, 54
1, 43879, Note_on_c, 0, 63, 0
1, 43880, Note_on_c, 0, 58, 0
1, 43884, Note_on_c, 0, 67, 0
1, 43926, Note_on_c, 0, 58, 34
1, 43926, Note_on_c, 0, 63, 42
1, 43926, Note_on_c, 0, 67, 49
1, 43929, Note_on_c, 0, 55, 41
1, 43931, Note_on_c, 0, 37, 44
1, 43933, Control_c, 0, 64, 0
1, 43961, Control_c, 0, 64, 127
1, 43989, Note_on_c, 0, 55, 0
1, 43991, Note_on_c, 0, 37, 0
1, 43992, Note_on_c, 0, 44, 49
1, 43996, Note_on_c, 0, 58, 0
1, 44010, Note_on_c, 0, 63, 0
1, 44030, Note_on_c, 0, 67, 0
1, 44050, Note_on_c, 0, 63, 46
1, 44051, Note_on_c, 0, 58, 38
1, 44051, Note_on_c, 0, 53, 33
1, 44053, Note_on_c, 0, 55, 38
1, 44061, Note_on_c, 0, 53, 0
1, 44061, Note_on_c, 0, 44, 0
1, 44097, Note_on_c, 0, 55, 0
1, 44109, Note_on_c, 0, 58, 0
1, 44111, Note_on_c, 0, 67, 55
1, 44122, Note_on_c, 0, 67, 0
1, 44123, Note_on_c, 0, 63, 0
1, 44139, Note_on_c, 0, 67, 47
1, 44153, Note_on_c, 0, 67, 0
1, 44168, Note_on_c, 0, 64, 45
1, 44172, Control_c, 0, 64, 0
1, 44172, Note_on_c, 0, 36, 32
1, 44173, Note_on_c, 0, 57, 26
1, 44174, Note_on_c, 0, 43, 22
1, 44174, Note_on_c, 0, 59, 40
1, 44175, Note_on_c, 0, 52, 37
1, 44197, Control_c, 0, 64, 127
1, 44202, Note_on_c, 0, 57, 0
1, 44204, Note_on_c, 0, 36, 0
1, 44211, Note_on_c, 0, 43, 0
1, 44219, Note_on_c, 0, 59, 0
1, 44223, Note_on_c, 0, 52, 0
1, 44243, Note_on_c, 0, 64, 0
1, 44294, Note_on_c, 0, 67, 36
1, 44295, Note_on_c, 0, 64, 35
1, 44295, Note_on_c, 0, 62, 30
1, 44318, Note_on_c, 0, 67, 0
1, 44326, Note_on_c, 0, 64, 0
1, 44331, Note_on_c, 0, 79, 82
1, 44333, Note_on_c, 0, 62, 0
1, 44356, Note_on_c, 0, 79, 0
1, 44370, Note_on_c, 0, 76, 68
1, 44377, Note_on_c, 0, 76, 0
1, 44403, Note_on_c, 0, 98, 84
1, 44418, Control_c, 0, 64, 0
1, 44423, Note_on_c, 0, 63, 38
1, 44424, Note_on_c, 0, 58, 38
1, 44424, Note_on_c, 0, 52, 46
1, 44438, Note_on_c, 0, 98, 0
1, 44447, Control_c, 0, 64, 127
1, 44448, Note_on_c, 0, 96, 63
1, 44453, Note_on_c, 0, 63, 0
1, 44460, Note_on_c, 0, 52, 0
1, 44460, Note_on_c, 0, 58, 0
1, 44481, Note_on_c, 0, 96, 0
1, 44491, Note_on_c, 0, 86, 45
1, 44502, Note_on_c, 0, 86, 0
1, 44547, Note_on_c, 0, 42, 39
1, 44563, Note_on_c, 0, 42, 0
1, 44609, Note_on_c, 0, 103, 52
1, 44621, Note_on_c, 0, 103, 0
1, 44655, Note_on_c, 0, 47, 51
1, 44657, Note_on_c, 0, 108, 64
1, 44660, Control_c, 0, 64, 0
1, 44675, Control_c, 0, 64, 127
1, 44684, Note_on_c, 0, 47, 0
1, 44689, Note_on_c, 0, 108, 0
1, 44696, Note_on_c, 0, 103, 55
1, 44705, Note_on_c, 0, 103, 0
1, 44835, Note_on_c, 0, 74, 60
1, 44838, Note_on_c, 0, 63, 36
1, 44838, Note_on_c, 0, 67, 38
1, 44838, Note_on_c, 0, 69, 50
1, 44870, Note_on_c, 0, 74, 0
1, 44872, Note_on_c, 0, 69, 0
1, 44874, Note_on_c, 0, 67, 0
1, 44879, Note_on_c, 0, 63, 0
1, 44954, Note_on_c, 0, 69, 64
1, 44988, Note_on_c, 0, 69, 0
1, 45005, Note_on_c, 0, 74, 80
1, 45009, Note_on_c, 0, 69, 64
1, 45009, Note_on_c, 0, 67, 68
1, 45011, Note_on_c, 0, 62, 51
1, 45011, Note_on_c, 0, 63, 53
1, 45046, Note_on_c, 0, 62, 0
1, 45055, Note_on_c, 0, 74, 0
1, 45077, Note_on_c, 0, 69, 0
1, 45083, Note_on_c, 0, 72, 66
1, 45089, Note_on_c, 0, 67, 0
1, 45094, Note_on_c, 0, 63, 0
1, 45104, Note_on_c, 0, 69, 66
1, 45107, Note_on_c, 0, 72, 0
1, 45116, Note_on_c, 0, 69, 0
1, 45128, Note_on_c, 0, 69, 53
1, 45130, Note_on_c, 0, 53, 34
1, 45130, Note_on_c, 0, 60, 29
1, 45132, Note_on_c, 0, 65, 49
1, 45132, Control_c, 0, 64, 0
1, 45146, Note_on_c, 0, 65, 0
1, 45153, Control_c, 0, 64, 127
1, 45159, Note_on_c, 0, 53, 0
1, 45161, Note_on_c, 0, 60, 0
1, 45164, Note_on_c, 0, 69, 0
1, 45245, Note_on_c, 0, 69, 57
1, 45248, Note_on_c, 0, 67, 32
1, 45278, Note_on_c, 0, 69, 0
1, 45282, Note_on_c, 0, 67, 0
1, 45289, Note_on_c, 0, 84, 92
1, 45310, Note_on_c, 0, 84, 0
1, 45359, Note_on_c, 0, 83, 84
1, 45362, Note_on_c, 0, 79, 80
1, 45364, Note_on_c, 0, 76, 68
1, 45367, Control_c, 0, 64, 0
1, 45369, Note_on_c, 0, 74, 40
1, 45383, Control_c, 0, 64, 127
1, 45393, Note_on_c, 0, 83, 0
1, 45394, Note_on_c, 0, 79, 0
1, 45395, Note_on_c, 0, 76, 0
1, 45398, Note_on_c, 0, 74, 0
1, 45419, Note_on_c, 0, 79, 50
1, 45421, Note_on_c, 0, 71, 43
1, 45422, Note_on_c, 0, 76, 58
1, 45423, Note_on_c, 0, 64, 28
1, 45424, Note_on_c, 0, 67, 31
1, 45424, Note_on_c, 0, 74, 49
1, 45435, Note_on_c, 0, 67, 0
1, 45439, Note_on_c, 0, 74, 0
1, 45440, Note_on_c, 0, 76, 0
1, 45443, Note_on_c, 0, 64, 0
1, 45444, Note_on_c, 0, 79, 0
1, 45448, Note_on_c, 0, 71, 0
1, 45479, Note_on_c, 0, 76, 49
1, 45479, Note_on_c, 0, 72, 48
1, 45481, Note_on_c, 0, 57, 32
1, 45482, Note_on_c, 0, 67, 28
1, 45484, Note_on_c, 0, 71, 36
1, 45518, Note_on_c, 0, 72, 0
1, 45524, Note_on_c, 0, 67, 0
1, 45524, Note_on_c, 0, 71, 0
1, 45538, Note_on_c, 0, 64, 26
1, 45542, Note_on_c, 0, 64, 0
1, 45543, Note_on_c, 0, 72, 46
1, 45543, Note_on_c, 0, 67, 24
1, 45549, Note_on_c, 0, 67, 0
1, 45551, Note_on_c, 0, 57, 0
1, 45561, Note_on_c, 0, 72, 0
1, 45567, Note_on_c, 0, 76, 0
1, 45601, Note_on_c, 0, 68, 33
1, 45601, Note_on_c, 0, 71, 41
1, 45601, Note_on_c, 0, 74, 36
1, 45602, Note_on_c, 0, 54, 32
1, 45603, Note_on_c, 0, 64, 33
1, 45604, Control_c, 0, 64, 0
1, 45605, Note_on_c, 0, 60, 19
1, 45628, Control_c, 0, 64, 127
1, 45651, Note_on_c, 0, 60, 0
1, 45656, Note_on_c, 0, 54, 0
1, 45663, Note_on_c, 0, 54, 32
1, 45666, Note_on_c, 0, 64, 0
1, 45672, Note_on_c, 0, 74, 0
1, 45677, Note_on_c, 0, 71, 0
1, 45681, Note_on_c, 0, 68, 0
1, 45719, Note_on_c, 0, 68, 37
1, 45719, Note_on_c, 0, 76, 47
1, 45721, Note_on_c, 0, 71, 44
1, 45723, Note_on_c, 0, 64, 30
1, 45754, Note_on_c, 0, 54, 0
1, 45772, Note_on_c, 0, 76, 0
1, 45774, Note_on_c, 0, 71, 0
1, 45781, Note_on_c, 0, 74, 40
1, 45782, Note_on_c, 0, 64, 0
1, 45785, Note_on_c, 0, 68, 0
1, 45793, Note_on_c, 0, 74, 0
1, 45838, Note_on_c, 0, 79, 47
1, 45839, Note_on_c, 0, 76, 43
1, 45840, Note_on_c, 0, 72, 41
1, 45840, Control_c, 0, 64, 0
1, 45840, Note_on_c, 0, 69, 34
1, 45842, Note_on_c, 0, 64, 32
1, 45848, Control_c, 0, 64, 127
1, 45877, Note_on_c, 0, 64, 0
1, 45877, Note_on_c, 0, 60, 47
1, 45890, Note_on_c, 0, 69, 0
1, 45891, Note_on_c, 0, 60, 0
1, 45893, Note_on_c, 0, 72, 0
1, 45898, Note_on_c, 0, 76, 0
1, 45900, Note_on_c, 0, 79, 0
1, 45961, Note_on_c, 0, 82, 56
1, 45963, Note_on_c, 0, 75, 60
1, 45963, Note_on_c, 0, 64, 48
1, 45964, Control_c, 0, 64, 0
1, 45964, Note_on_c, 0, 79, 41
1, 45966, Note_on_c, 0, 59, 34
1, 45968, Note_on_c, 0, 53, 29
1, 45980, Control_c, 0, 64, 127
1, 45982, Note_on_c, 0, 53, 0
1, 45982, Note_on_c, 0, 79, 0
1, 45984, Note_on_c, 0, 64, 0
1, 45990, Note_on_c, 0, 75, 0
1, 45999, Note_on_c, 0, 82, 0
1, 46006, Note_on_c, 0, 80, 46
1, 46006, Note_on_c, 0, 63, 38
1, 46006, Note_on_c, 0, 75, 39
1, 46009, Note_on_c, 0, 71, 29
1, 46009, Note_on_c, 0, 53, 31
1, 46013, Control_c, 0, 64, 0
1, 46024, Control_c, 0, 64, 127
1, 46037, Note_on_c, 0, 53, 0
1, 46037, Note_on_c, 0, 59, 0
1, 46037, Note_on_c, 0, 71, 0
1, 46041, Note_on_c, 0, 63, 0
1, 46048, Note_on_c, 0, 75, 0
1, 46055, Note_on_c, 0, 80, 0
1, 46082, Control_c, 0, 64, 0
1, 46085, Note_on_c, 0, 81, 51
1, 46086, Note_on_c, 0, 58, 29
1, 46086, Note_on_c, 0, 69, 40
1, 46086, Note_on_c, 0, 62, 40
1, 46087, Note_on_c, 0, 74, 41
1, 46087, Note_on_c, 0, 77, 41
1, 46088, Note_on_c, 0, 57, 24
1, 46090, Note_on_c, 0, 53, 30
1, 46097, Note_on_c, 0, 62, 0
1, 46099, Note_on_c, 0, 57, 0
1, 46101, Control_c, 0, 64, 127
1, 46102, Note_on_c, 0, 58, 0
1, 46105, Note_on_c, 0, 53, 0
1, 46108, Note_on_c, 0, 74, 0
1, 46108, Note_on_c, 0, 77, 0
1, 46108, Note_on_c, 0, 81, 0
1, 46114, Note_on_c, 0, 69, 0
1, 46129, Note_on_c, 0, 43, 54
1, 46143, Note_on_c, 0, 43, 0
1, 46181, Note_on_c, 0, 69, 75
1, 46181, Note_on_c, 0, 58, 77
1, 46182, Note_on_c, 0, 62, 75
1, 46183, Note_on_c, 0, 65, 67
1, 46183, Note_on_c, 0, 57, 72
1, 46197, Note_on_c, 0, 58, 0
1, 46198, Note_on_c, 0, 62, 0
1, 46200, Note_on_c, 0, 65, 0
1, 46203, Note_on_c, 0, 69, 0
1, 46210, Note_on_c, 0, 57, 0
1, 46220, Note_on_c, 0, 62, 81
1, 46220, Note_on_c, 0, 72, 82
1, 46220, Note_on_c, 0, 65, 76
1, 46221, Note_on_c, 0, 57, 55
1, 46221, Note_on_c, 0, 69, 66
1, 46224, Control_c, 0, 64, 0
1, 46233, Control_c, 0, 64, 127
1, 46243, Note_on_c, 0, 69, 0
1, 46251, Note_on_c, 0, 65, 0
1, 46252, Note_on_c, 0, 72, 0
1, 46258, Control_c, 0, 64, 0
1, 46260, Note_on_c, 0, 70, 56
1, 46261, Note_on_c, 0, 57, 0
1, 46265, Note_on_c, 0, 55, 47
1, 46271, Note_on_c, 0, 70, 0
1, 46272, Note_on_c, 0, 62, 0
1, 46274, Control_c, 0, 64, 127
1, 46297, Note_on_c, 0, 55, 0
1, 46306, Note_on_c, 0, 69, 58
1, 46307, Note_on_c, 0, 58, 46
1, 46308, Note_on_c, 0, 61, 55
1, 46309, Note_on_c, 0, 64, 57
1, 46309, Control_c, 0, 64, 0
1, 46311, Note_on_c, 0, 48, 39
1, 46318, Note_on_c, 0, 48, 0
1, 46319, Note_on_c, 0, 58, 0
1, 46323, Note_on_c, 0, 64, 0
1, 46325, Note_on_c, 0, 61, 0
1, 46325, Control_c, 0, 64, 127
1, 46326, Note_on_c, 0, 69, 0
1, 46362, Note_on_c, 0, 63, 71
1, 46363, Note_on_c, 0, 67, 70
1, 46363, Note_on_c, 0, 70, 69
1, 46363, Note_on_c, 0, 75, 74
1, 46365, Note_on_c, 0, 64, 66
1, 46369, Control_c, 0, 64, 0
1, 46379, Note_on_c, 0, 64, 0
1, 46381, Note_on_c, 0, 70, 0
1, 46381, Note_on_c, 0, 67, 0
1, 46384, Note_on_c, 0, 63, 0
1, 46384, Note_on_c, 0, 75, 0
1, 46387, Note_on_c, 0, 61, 45
1, 46396, Control_c, 0, 64, 127
1, 46397, Note_on_c, 0, 61, 0
1, 46423, Control_c, 0, 64, 0
1, 46425, Note_on_c, 0, 68, 32
1, 46426, Note_on_c, 0, 64, 58
1, 46427, Note_on_c, 0, 70, 35
1, 46429, Note_on_c, 0, 68, 0
1, 46433, Note_on_c, 0, 70, 0
1, 46435, Note_on_c, 0, 64, 0
1, 46449, Note_on_c, 0, 70, 75
1, 46451, Note_on_c, 0, 81, 68
1, 46451, Note_on_c, 0, 73, 63
1, 46452, Note_on_c, 0, 76, 60
1, 46452, Note_on_c, 0, 69, 63
1, 46464, Note_on_c, 0, 70, 0
1, 46465, Note_on_c, 0, 76, 0
1, 46465, Note_on_c, 0, 73, 0
1, 46467, Note_on_c, 0, 81, 0
1, 46473, Note_on_c, 0, 69, 0
1, 46474, Control_c, 0, 64, 127
1, 46491, Note_on_c, 0, 69, 74
1, 46491, Note_on_c, 0, 84, 82
1, 46491, Note_on_c, 0, 73, 73
1, 46493, Control_c, 0, 64, 0
1, 46495, Note_on_c, 0, 75, 31
1, 46495, Note_on_c, 0, 80, 39
1, 46499, Note_on_c, 0, 75, 0
1, 46500, Note_on_c, 0, 80, 0
1, 46513, Note_on_c, 0, 73, 0
1, 46515, Note_on_c, 0, 84, 0
1, 46515, Note_on_c, 0, 69, 0
1, 46531, Note_on_c, 0, 68, 55
1, 46531, Note_on_c, 0, 82, 55
1, 46531, Note_on_c, 0, 73, 67
1, 46538, Note_on_c, 0, 82, 0
1, 46539, Note_on_c, 0, 73, 0
1, 46542, Note_on_c, 0, 68, 0
1, 46546, Control_c, 0, 64, 127
1, 46552, Note_on_c, 0, 63, 33
1, 46559, Control_c, 0, 64, 0
1, 46564, Note_on_c, 0, 63, 0
1, 46570, Note_on_c, 0, 81, 69
1, 46570, Note_on_c, 0, 65, 66
1, 46572, Note_on_c, 0, 72, 65
1, 46573, Note_on_c, 0, 76, 64
1, 46577, Control_c, 0, 64, 127
1, 46579, Note_on_c, 0, 76, 0
1, 46582, Note_on_c, 0, 65, 0
1, 46583, Note_on_c, 0, 81, 0
1, 46585, Note_on_c, 0, 72, 0
1, 46606, Note_on_c, 0, 79, 54
1, 46608, Note_on_c, 0, 64, 36
1, 46614, Note_on_c, 0, 76, 54
1, 46615, Note_on_c, 0, 64, 0
1, 46620, Note_on_c, 0, 76, 0
1, 46620, Note_on_c, 0, 79, 0
1, 46623, Note_on_c, 0, 60, 45
1, 46625, Control_c, 0, 64, 0
1, 46635, Note_on_c, 0, 60, 0
1, 46642, Note_on_c, 0, 76, 60
1, 46645, Note_on_c, 0, 64, 63
1, 46647, Note_on_c, 0, 72, 41
1, 46648, Note_on_c, 0, 65, 39
1, 46648, Note_on_c, 0, 69, 34
1, 46651, Note_on_c, 0, 64, 0
1, 46656, Note_on_c, 0, 69, 0
1, 46657, Note_on_c, 0, 76, 0
1, 46657, Note_on_c, 0, 72, 0
1, 46658, Note_on_c, 0, 65, 0
1, 46674, Note_on_c, 0, 72, 62
1, 46674, Note_on_c, 0, 60, 46
1, 46676, Note_on_c, 0, 64, 35
1, 46677, Note_on_c, 0, 69, 28
1, 46680, Note_on_c, 0, 60, 0
1, 46682, Note_on_c, 0, 69, 0
1, 46687, Note_on_c, 0, 64, 0
1, 46687, Note_on_c, 0, 72, 0
1, 46715, Note_on_c, 0, 69, 61
1, 46716, Note_on_c, 0, 57, 63
1, 46716, Note_on_c, 0, 60, 48
1, 46721, Note_on_c, 0, 60, 0
1, 46721, Note_on_c, 0, 57, 0
1, 46727, Note_on_c, 0, 69, 0
1, 46750, Note_on_c, 0, 67, 63
1, 46751, Note_on_c, 0, 53, 53
1, 46753, Note_on_c, 0, 64, 44
1, 46755, Note_on_c, 0, 60, 24
1, 46759, Note_on_c, 0, 60, 0
1, 46763, Note_on_c, 0, 67, 0
1, 46764, Note_on_c, 0, 53, 0
1, 46767, Note_on_c, 0, 64, 0
1, 46778, Control_c, 0, 64, 127
1, 46797, Note_on_c, 0, 46, 33
1, 46801, Note_on_c, 0, 46, 0
1, 46809, Note_on_c, 0, 67, 77
1, 46810, Note_on_c, 0, 56, 69
1, 46811, Note_on_c, 0, 60, 71
1, 46812, Control_c, 0, 64, 0
1, 46815, Note_on_c, 0, 55, 56
1, 46842, Note_on_c, 0, 55, 0
1, 46844, Note_on_c, 0, 65, 70
1, 46850, Note_on_c, 0, 67, 0
1, 46854, Control_c, 0, 64, 127
1, 46885, Note_on_c, 0, 60, 0
1, 46889, Note_on_c, 0, 56, 0
1, 46910, Note_on_c, 0, 56, 45
1, 46911, Note_on_c, 0, 60, 54
1, 46915, Note_on_c, 0, 53, 37
1, 46957, Note_on_c, 0, 65, 0
1, 46968, Note_on_c, 0, 60, 0
1, 46982, Note_on_c, 0, 53, 0
1, 46991, Note_on_c, 0, 56, 0
1, 47010, Note_on_c, 0, 63, 46
1, 47011, Note_on_c, 0, 54, 39
1, 47011, Note_on_c, 0, 58, 48
1, 47029, Note_on_c, 0, 63, 0
1, 47032, Note_on_c, 0, 54, 0
1, 47033, Note_on_c, 0, 58, 0
1, 47040, Control_c, 0, 64, 0
1, 47043, Note_on_c, 0, 64, 45
1, 47045, Note_on_c, 0, 59, 43
1, 47046, Note_on_c, 0, 55, 40
1, 47046, Note_on_c, 0, 52, 30
1, 47047, Note_on_c, 0, 43, 28
1, 47059, Note_on_c, 0, 55, 0
1, 47059, Control_c, 0, 64, 127
1, 47061, Note_on_c, 0, 59, 0
1, 47063, Note_on_c, 0, 64, 0
1, 47082, Note_on_c, 0, 67, 62
1, 47083, Note_on_c, 0, 43, 0
1, 47084, Note_on_c, 0, 62, 53
1, 47086, Note_on_c, 0, 52, 0
1, 47109, Note_on_c, 0, 62, 0
1, 47113, Note_on_c, 0, 67, 0
1, 47164, Note_on_c, 0, 74, 60
1, 47165, Note_on_c, 0, 67, 38
1, 47165, Note_on_c, 0, 79, 40
1, 47168, Note_on_c, 0, 62, 46
1, 47168, Note_on_c, 0, 59, 40
1, 47178, Note_on_c, 0, 62, 0
1, 47182, Note_on_c, 0, 59, 0
1, 47225, Note_on_c, 0, 67, 0
1, 47228, Note_on_c, 0, 74, 0
1, 47230, Note_on_c, 0, 79, 0
1, 47232, Note_on_c, 0, 28, 68
1, 47237, Note_on_c, 0, 28, 0
1, 47294, Note_on_c, 0, 79, 84
1, 47294, Note_on_c, 0, 67, 99
1, 47294, Note_on_c, 0, 72, 87
1, 47295, Note_on_c, 0, 75, 57
1, 47295, Note_on_c, 0, 76, 80
1, 47295, Note_on_c, 0, 62, 80
1, 47295, Note_on_c, 0, 56, 78
1, 47298, Note_on_c, 0, 77, 32
1, 47302, Note_on_c, 0, 77, 0
1, 47347, Note_on_c, 0, 67, 0
1, 47352, Note_on_c, 0, 75, 0
1, 47352, Note_on_c, 0, 72, 0
1, 47357, Note_on_c, 0, 76, 0
1, 47359, Note_on_c, 0, 79, 0
1, 47361, Note_on_c, 0, 62, 0
1, 47361, Note_on_c, 0, 56, 0
1, 47413, Note_on_c, 0, 84, 80
1, 47413, Note_on_c, 0, 91, 77
1, 47413, Note_on_c, 0, 88, 71
1, 47413, Note_on_c, 0, 62, 75
1, 47413, Note_on_c, 0, 56, 76
1, 47413, Note_on_c, 0, 67, 83
1, 47417, Note_on_c, 0, 91, 0
1, 47421, Control_c, 0, 64, 0
1, 47431, Control_c, 0, 64, 127
1, 47458, Note_on_c, 0, 88, 0
1, 47461, Note_on_c, 0, 84, 0
1, 47465, Note_on_c, 0, 67, 0
1, 47467, Note_on_c, 0, 62, 0
1, 47477, Note_on_c, 0, 56, 0
1, 47523, Note_on_c, 0, 69, 74
1, 47525, Control_c, 0, 64, 0
1, 47525, Note_on_c, 0, 64, 74
1, 47526, Note_on_c, 0, 45, 49
1, 47526, Note_on_c, 0, 60, 66
1, 47526, Note_on_c, 0, 55, 64
1, 47541, Control_c, 0, 64, 127
1, 47550, Note_on_c, 0, 45, 0
1, 47556, Note_on_c, 0, 60, 0
1, 47556, Note_on_c, 0, 55, 0
1, 47569, Note_on_c, 0, 64, 0
1, 47572, Note_on_c, 0, 69, 0
1, 47644, Note_on_c, 0, 72, 75
1, 47644, Note_on_c, 0, 57, 94
1, 47645, Note_on_c, 0, 61, 84
1, 47645, Note_on_c, 0, 65, 84
1, 47645, Note_on_c, 0, 69, 73
1, 47651, Control_c, 0, 64, 0
1, 47682, Note_on_c, 0, 57, 0
1, 47683, Note_on_c, 0, 56, 81
1, 47697, Note_on_c, 0, 56, 0
1, 47706, Note_on_c, 0, 55, 66
1, 47721, Note_on_c, 0, 54, 65
1, 47723, Note_on_c, 0, 55, 0
1, 47735, Note_on_c, 0, 54, 0
1, 47737, Note_on_c, 0, 53, 41
1, 47742, Control_c, 0, 64, 127
1, 47748, Note_on_c, 0, 69, 0
1, 47750, Note_on_c, 0, 53, 0
1, 47750, Note_on_c, 0, 52, 77
1, 47752, Note_on_c, 0, 65, 0
1, 47755, Note_on_c, 0, 61, 0
1, 47758, Note_on_c, 0, 52, 0
1, 47760, Control_c, 0, 64, 0
1, 47764, Note_on_c, 0, 61, 32
1, 47764, Note_on_c, 0, 51, 74
1, 47769, Note_on_c, 0, 69, 38
1, 47771, Note_on_c, 0, 65, 20
1, 47788, Control_c, 0, 64, 127
1, 47791, Note_on_c, 0, 65, 0
1, 47794, Note_on_c, 0, 69, 0
1, 47797, Note_on_c, 0, 61, 0
1, 47802, Note_on_c, 0, 61, 36
1, 47803, Note_on_c, 0, 57, 71
1, 47809, Note_on_c, 0, 51, 0
1, 47809, Note_on_c, 0, 72, 0
1, 47815, Note_on_c, 0, 57, 0
1, 47816, Note_on_c, 0, 61, 0
1, 47835, Note_on_c, 0, 61, 68
1, 47860, Note_on_c, 0, 61, 71
1, 47890, Note_on_c, 0, 65, 66
1, 47891, Note_on_c, 0, 84, 70
1, 47892, Note_on_c, 0, 72, 55
1, 47898, Note_on_c, 0, 72, 0
1, 47900, Note_on_c, 0, 61, 0
1, 47904, Note_on_c, 0, 84, 0
1, 47907, Note_on_c, 0, 61, 0
1, 47917, Note_on_c, 0, 61, 28
1, 47921, Note_on_c, 0, 89, 52
1, 47922, Note_on_c, 0, 77, 32
1, 47922, Note_on_c, 0, 88, 45
1, 47926, Note_on_c, 0, 88, 0
1, 47926, Note_on_c, 0, 89, 0
1, 47926, Note_on_c, 0, 77, 0
1, 47930, Note_on_c, 0, 61, 0
1, 47945, Note_on_c, 0, 93, 60
1, 47949, Note_on_c, 0, 93, 0
1, 47963, Note_on_c, 0, 65, 0
1, 47969, Note_on_c, 0, 61, 33
1, 47978, Note_on_c, 0, 61, 0
1, 48003, Note_on_c, 0, 93, 74
1, 48003, Note_on_c, 0, 86, 68
1, 48004, Note_on_c, 0, 84, 51
1, 48006, Control_c, 0, 64, 0
1, 48006, Note_on_c, 0, 90, 39
1, 48008, Note_on_c, 0, 50, 45
1, 48010, Note_on_c, 0, 90, 0
1, 48025, Control_c, 0, 64, 127
1, 48029, Note_on_c, 0, 50, 0
1, 48052, Note_on_c, 0, 93, 0
1, 48055, Note_on_c, 0, 86, 0
1, 48059, Note_on_c, 0, 50, 65
1, 48061, Note_on_c, 0, 84, 0
1, 48123, Note_on_c, 0, 69, 66
1, 48124, Note_on_c, 0, 65, 71
1, 48124, Note_on_c, 0, 72, 51
1, 48124, Note_on_c, 0, 60, 67
1, 48125, Note_on_c, 0, 57, 47
1, 48134, Note_on_c, 0, 57, 0
1, 48143, Note_on_c, 0, 50, 0
1, 48155, Note_on_c, 0, 69, 0
1, 48156, Note_on_c, 0, 72, 0
1, 48158, Note_on_c, 0, 60, 0
1, 48161, Note_on_c, 0, 65, 0
1, 48187, Note_on_c, 0, 31, 73
1, 48210, Note_on_c, 0, 31, 0
1, 48255, Note_on_c, 0, 64, 76
1, 48255, Note_on_c, 0, 60, 74
1, 48256, Note_on_c, 0, 57, 82
1, 48257, Note_on_c, 0, 53, 72
1, 48257, Note_on_c, 0, 43, 64
1, 48263, Control_c, 0, 64, 0
1, 48281, Control_c, 0, 64, 127
1, 48324, Note_on_c, 0, 53, 0
1, 48325, Note_on_c, 0, 43, 0
1, 48350, Note_on_c, 0, 57, 0
1, 48350, Note_on_c, 0, 64, 0
1, 48355, Note_on_c, 0, 60, 0
1, 48435, Note_on_c, 0, 64, 66
1, 48436, Note_on_c, 0, 56, 64
1, 48436, Note_on_c, 0, 59, 68
1, 48439, Note_on_c, 0, 43, 51
1, 48440, Note_on_c, 0, 53, 56
1, 48440, Note_on_c, 0, 62, 41
1, 48442, Control_c, 0, 64, 0
1, 48478, Control_c, 0, 64, 127
1, 48533, Note_on_c, 0, 53, 0
1, 48548, Note_on_c, 0, 43, 0
1, 48562, Note_on_c, 0, 62, 0
1, 48605, Note_on_c, 0, 56, 0
1, 48611, Note_on_c, 0, 59, 0
1, 48671, Note_on_c, 0, 64, 0
1, 48747, Note_on_c, 0, 36, 46
1, 48759, Control_c, 0, 64, 0
1, 48759, Note_on_c, 0, 57, 44
1, 48763, Note_on_c, 0, 52, 43
1, 48769, Note_on_c, 0, 59, 51
1, 48778, Control_c, 0, 64, 127
1, 48779, Note_on_c, 0, 62, 54
1, 48783, Note_on_c, 0, 57, 0
1, 48792, Note_on_c, 0, 59, 0
1, 48793, Note_on_c, 0, 52, 0
1, 48793, Note_on_c, 0, 57, 22
1, 48797, Note_on_c, 0, 62, 0
1, 48797, Note_on_c, 0, 43, 33
1, 48811, Note_on_c, 0, 57, 0
1, 48811, Note_on_c, 0, 59, 48
1, 48818, Note_on_c, 0, 62, 20
1, 48819, Note_on_c, 0, 52, 20
1, 48823, Note_on_c, 0, 57, 31
1, 48825, Note_on_c, 0, 62, 0
1, 48825, Note_on_c, 0, 59, 0
1, 48831, Note_on_c, 0, 52, 0
1, 48840, Note_on_c, 0, 57, 0
1, 48841, Note_on_c, 0, 59, 42
1, 48846, Note_on_c, 0, 62, 36
1, 48858, Note_on_c, 0, 62, 0
1, 48858, Note_on_c, 0, 59, 0
1, 48858, Note_on_c, 0, 52, 34
1, 48859, Note_on_c, 0, 57, 51
1, 48869, Note_on_c, 0, 52, 0
1, 48875, Note_on_c, 0, 57, 0
1, 48876, Note_on_c, 0, 59, 43
1, 48880, Note_on_c, 0, 62, 38
1, 48891, Note_on_c, 0, 62, 0
1, 48892, Note_on_c, 0, 59, 0
1, 48892, Note_on_c, 0, 57, 37
1, 48901, Note_on_c, 0, 52, 28
1, 48908, Note_on_c, 0, 57, 0
1, 48910, Note_on_c, 0, 52, 0
1, 48910, Note_on_c, 0, 59, 37
1, 48913, Note_on_c, 0, 62, 36
1, 48920, Note_on_c, 0, 62, 0
1, 48924, Note_on_c, 0, 59, 0
1, 48924, Note_on_c, 0, 57, 44
1, 48929, Note_on_c, 0, 36, 0
1, 48939, Note_on_c, 0, 57, 0
1, 48941, Note_on_c, 0, 59, 42
1, 48941, Note_on_c, 0, 52, 33
1, 48944, Note_on_c, 0, 62, 36
1, 48951, Note_on_c, 0, 62, 0
1, 48954, Note_on_c, 0, 59, 0
1, 48954, Note_on_c, 0, 57, 34
1, 48955, Note_on_c, 0, 52, 0
1, 48971, Note_on_c, 0, 57, 0
1, 48973, Note_on_c, 0, 59, 32
1, 48974, Note_on_c, 0, 62, 37
1, 48983, Note_on_c, 0, 62, 0
1, 48984, Note_on_c, 0, 52, 29
1, 48986, Note_on_c, 0, 59, 0
1, 48987, Note_on_c, 0, 57, 37
1, 48998, Note_on_c, 0, 52, 0
1, 49001, Note_on_c, 0, 57, 0
1, 49004, Note_on_c, 0, 59, 34
1, 49006, Note_on_c, 0, 62, 40
1, 49016, Note_on_c, 0, 62, 0
1, 49016, Note_on_c, 0, 59, 0
1, 49018, Note_on_c, 0, 57, 37
1, 49033, Note_on_c, 0, 57, 0
1, 49033, Note_on_c, 0, 52, 18
1, 49035, Note_on_c, 0, 59, 35
1, 49037, Note_on_c, 0, 62, 34
1, 49041, Note_on_c, 0, 52, 0
1, 49046, Note_on_c, 0, 62, 0
1, 49046, Note_on_c, 0, 59, 0
1, 49048, Note_on_c, 0, 43, 0
1, 49050, Note_on_c, 0, 57, 32
1, 49063, Note_on_c, 0, 57, 0
1, 49066, Note_on_c, 0, 59, 32
1, 49066, Note_on_c, 0, 62, 33
1, 49075, Note_on_c, 0, 59, 0
1, 49077, Note_on_c, 0, 62, 0
1, 49079, Note_on_c, 0, 57, 30
1, 49093, Note_on_c, 0, 57, 0
1, 49098, Note_on_c, 0, 62, 29
1, 49099, Note_on_c, 0, 59, 24
1, 49107, Note_on_c, 0, 59, 0
1, 49108, Note_on_c, 0, 62, 0
1, 49110, Note_on_c, 0, 57, 32
1, 49125, Note_on_c, 0, 57, 0
1, 49128, Note_on_c, 0, 59, 32
1, 49130, Note_on_c, 0, 62, 30
1, 49139, Note_on_c, 0, 62, 0
1, 49139, Note_on_c, 0, 59, 0
1, 49142, Note_on_c, 0, 57, 32
1, 49158, Note_on_c, 0, 57, 0
1, 49161, Note_on_c, 0, 59, 33
1, 49164, Note_on_c, 0, 62, 30
1, 49172, Note_on_c, 0, 62, 0
1, 49174, Note_on_c, 0, 59, 0
1, 49177, Note_on_c, 0, 57, 33
1, 49194, Note_on_c, 0, 57, 0
1, 49197, Note_on_c, 0, 59, 33
1, 49200, Note_on_c, 0, 62, 25
1, 49208, Note_on_c, 0, 62, 0
1, 49211, Note_on_c, 0, 59, 0
1, 49213, Note_on_c, 0, 57, 34
1, 49232, Note_on_c, 0, 59, 33
1, 49235, Note_on_c, 0, 57, 0
1, 49238, Note_on_c, 0, 62, 24
1, 49250, Note_on_c, 0, 62, 0
1, 49251, Note_on_c, 0, 59, 0
1, 49255, Note_on_c, 0, 57, 41
1, 49271, Note_on_c, 0, 57, 0
1, 49273, Note_on_c, 0, 59, 31
1, 49276, Note_on_c, 0, 62, 31
1, 49288, Note_on_c, 0, 59, 0
1, 49289, Note_on_c, 0, 62, 0
1, 49291, Note_on_c, 0, 57, 35
1, 49309, Note_on_c, 0, 57, 0
1, 49312, Note_on_c, 0, 59, 31
1, 49315, Note_on_c, 0, 62, 25
1, 49326, Note_on_c, 0, 62, 0
1, 49329, Note_on_c, 0, 59, 0
1, 49330, Note_on_c, 0, 57, 37
1, 49350, Note_on_c, 0, 57, 0
1, 49354, Note_on_c, 0, 59, 31
1, 49355, Note_on_c, 0, 62, 26
1, 49369, Note_on_c, 0, 62, 0
1, 49372, Note_on_c, 0, 59, 0
1, 49373, Note_on_c, 0, 57, 36
1, 49405, Note_on_c, 0, 57, 0
1, 49408, Note_on_c, 0, 59, 26
1, 49410, Note_on_c, 0, 62, 22
1, 49425, Note_on_c, 0, 62, 0
1, 49428, Note_on_c, 0, 59, 0
1, 49430, Note_on_c, 0, 57, 35
1, 49462, Note_on_c, 0, 57, 0
1, 49464, Note_on_c, 0, 59, 40
1, 49465, Note_on_c, 0, 62, 35
1, 49470, Note_on_c, 0, 24, 31
1, 49491, Control_c, 0, 64, 0
1, 49517, Control_c, 0, 64, 127
1, 49539, Note_on_c, 0, 59, 0
1, 49545, Note_on_c, 0, 62, 0
1, 49613, Control_c, 0, 64, 0
1, 49694, Note_on_c, 0, 24, 0
1, 49694, End_track
0, 0, End_of_file
