0, 0, Header, 1, 3, 120
1, 0, Start_track
1, 0, Title_t, "Do I Love You (Because You're Beautiful) - From 'Cinderella. Rodgers and Hammerstein"
1, 0, Text_t, "Rodgers and Hammerstein. There is a beautiful solo piano veresion by Fred Hersch on his album  'Fred Hersch plays  Rodgers and Hammerstein'\012"
1, 0, Text_t, "Doug McKenzie dougmck@pipeline.com.au\012"
1, 0, Time_signature, 4, 2, 24, 8
1, 0, Key_signature, -2, "major"
1, 0, Tempo, 600000
1, 0, End_track
2, 0, Start_track
2, 0, Title_t, "Solo piano recorded in real time on Yamaha piano"
2, 79, Control_c, 0, 64, 127
2, 85, Note_on_c, 0, 79, 69
2, 89, Note_on_c, 0, 55, 45
2, 189, Note_on_c, 0, 62, 30
2, 303, Note_on_c, 0, 70, 31
2, 305, Note_on_c, 0, 74, 36
2, 307, Note_on_c, 0, 67, 25
2, 516, Note_on_c, 0, 67, 0
2, 556, Note_on_c, 0, 55, 0
2, 572, Note_on_c, 0, 70, 0
2, 572, Note_on_c, 0, 79, 0
2, 577, Note_on_c, 0, 74, 0
2, 620, Note_on_c, 0, 62, 0
2, 644, Note_on_c, 0, 54, 37
2, 646, Note_on_c, 0, 78, 67
2, 647, Note_on_c, 0, 74, 74
2, 649, Note_on_c, 0, 70, 58
2, 651, Note_on_c, 0, 62, 20
2, 690, Note_on_c, 0, 70, 0
2, 692, Note_on_c, 0, 74, 0
2, 714, Note_on_c, 0, 78, 0
2, 718, Note_on_c, 0, 62, 0
2, 747, Note_on_c, 0, 54, 0
2, 756, Note_on_c, 0, 79, 62
2, 757, Note_on_c, 0, 74, 66
2, 757, Note_on_c, 0, 67, 60
2, 759, Note_on_c, 0, 53, 26
2, 763, Control_c, 0, 64, 0
2, 764, Note_on_c, 0, 62, 45
2, 806, Control_c, 0, 64, 127
2, 847, Note_on_c, 0, 58, 50
2, 854, Note_on_c, 0, 79, 0
2, 857, Note_on_c, 0, 62, 0
2, 910, Note_on_c, 0, 67, 0
2, 933, Note_on_c, 0, 62, 51
2, 933, Note_on_c, 0, 81, 72
2, 985, Note_on_c, 0, 53, 0
2, 1014, Note_on_c, 0, 81, 0
2, 1022, Note_on_c, 0, 53, 38
2, 1025, Note_on_c, 0, 79, 60
2, 1042, Note_on_c, 0, 62, 0
2, 1048, Note_on_c, 0, 53, 0
2, 1049, Note_on_c, 0, 58, 0
2, 1051, Note_on_c, 0, 74, 0
2, 1055, Note_on_c, 0, 79, 0
2, 1136, Note_on_c, 0, 48, 49
2, 1158, Note_on_c, 0, 65, 45
2, 1167, Note_on_c, 0, 70, 57
2, 1173, Note_on_c, 0, 58, 28
2, 1179, Note_on_c, 0, 74, 46
2, 1193, Control_c, 0, 64, 0
2, 1195, Note_on_c, 0, 77, 63
2, 1247, Control_c, 0, 64, 127
2, 1322, Note_on_c, 0, 48, 0
2, 1352, Note_on_c, 0, 58, 0
2, 1385, Note_on_c, 0, 65, 0
2, 1397, Note_on_c, 0, 74, 0
2, 1399, Note_on_c, 0, 70, 0
2, 1419, Note_on_c, 0, 77, 0
2, 1464, Note_on_c, 0, 58, 35
2, 1486, Note_on_c, 0, 64, 48
2, 1513, Note_on_c, 0, 70, 25
2, 1530, Note_on_c, 0, 73, 34
2, 1554, Note_on_c, 0, 79, 48
2, 1740, Note_on_c, 0, 70, 0
2, 1750, Note_on_c, 0, 58, 0
2, 1751, Note_on_c, 0, 79, 0
2, 1754, Note_on_c, 0, 64, 0
2, 1771, Note_on_c, 0, 73, 0
2, 1849, Note_on_c, 0, 53, 36
2, 1880, Note_on_c, 0, 61, 47
2, 1889, Note_on_c, 0, 69, 48
2, 1902, Note_on_c, 0, 73, 40
2, 1915, Note_on_c, 0, 76, 62
2, 1921, Note_on_c, 0, 64, 24
2, 1933, Note_on_c, 0, 81, 76
2, 2017, Note_on_c, 0, 81, 0
2, 2029, Note_on_c, 0, 76, 0
2, 2040, Note_on_c, 0, 73, 0
2, 2073, Note_on_c, 0, 69, 0
2, 2083, Note_on_c, 0, 76, 69
2, 2153, Note_on_c, 0, 76, 0
2, 2179, Note_on_c, 0, 76, 87
2, 2281, Note_on_c, 0, 76, 0
2, 2306, Note_on_c, 0, 76, 80
2, 2361, Note_on_c, 0, 64, 0
2, 2405, Note_on_c, 0, 53, 0
2, 2411, Note_on_c, 0, 61, 0
2, 2471, Note_on_c, 0, 76, 0
2, 2501, Note_on_c, 0, 76, 42
2, 2507, Note_on_c, 0, 72, 32
2, 2507, Note_on_c, 0, 69, 37
2, 2509, Note_on_c, 0, 53, 33
2, 2510, Note_on_c, 0, 64, 30
2, 2512, Note_on_c, 0, 60, 40
2, 2514, Control_c, 0, 64, 0
2, 2566, Control_c, 0, 64, 127
2, 2656, Note_on_c, 0, 64, 0
2, 2670, Note_on_c, 0, 69, 0
2, 2682, Note_on_c, 0, 72, 0
2, 2683, Note_on_c, 0, 76, 0
2, 2792, Note_on_c, 0, 88, 72
2, 2793, Note_on_c, 0, 64, 49
2, 2795, Note_on_c, 0, 76, 60
2, 2934, Note_on_c, 0, 64, 0
2, 2961, Note_on_c, 0, 76, 0
2, 2968, Note_on_c, 0, 88, 0
2, 2996, Note_on_c, 0, 88, 41
2, 2999, Note_on_c, 0, 76, 55
2, 3001, Note_on_c, 0, 64, 33
2, 3089, Note_on_c, 0, 64, 0
2, 3137, Note_on_c, 0, 76, 0
2, 3142, Note_on_c, 0, 88, 0
2, 3196, Note_on_c, 0, 88, 40
2, 3196, Note_on_c, 0, 64, 28
2, 3202, Note_on_c, 0, 76, 37
2, 3222, Note_on_c, 0, 60, 0
2, 3232, Note_on_c, 0, 64, 0
2, 3250, Note_on_c, 0, 53, 0
2, 3250, Note_on_c, 0, 76, 0
2, 3260, Note_on_c, 0, 88, 0
2, 3372, Note_on_c, 0, 91, 55
2, 3376, Note_on_c, 0, 48, 40
2, 3384, Note_on_c, 0, 79, 20
2, 3387, Control_c, 0, 64, 0
2, 3397, Control_c, 0, 64, 127
2, 3426, Note_on_c, 0, 91, 0
2, 3448, Note_on_c, 0, 79, 0
2, 3473, Note_on_c, 0, 55, 36
2, 3510, Note_on_c, 0, 48, 0
2, 3577, Note_on_c, 0, 67, 41
2, 3578, Note_on_c, 0, 63, 30
2, 3585, Note_on_c, 0, 62, 32
2, 3669, Note_on_c, 0, 62, 0
2, 3714, Note_on_c, 0, 74, 66
2, 3721, Note_on_c, 0, 60, 34
2, 3796, Note_on_c, 0, 74, 0
2, 3797, Note_on_c, 0, 60, 0
2, 3816, Note_on_c, 0, 67, 0
2, 3819, Note_on_c, 0, 63, 0
2, 3929, Note_on_c, 0, 74, 62
2, 3934, Note_on_c, 0, 67, 62
2, 3937, Note_on_c, 0, 59, 34
2, 3939, Note_on_c, 0, 55, 0
2, 3939, Note_on_c, 0, 63, 49
2, 4036, Note_on_c, 0, 48, 34
2, 4076, Note_on_c, 0, 59, 0
2, 4106, Note_on_c, 0, 63, 0
2, 4109, Note_on_c, 0, 67, 0
2, 4142, Note_on_c, 0, 63, 39
2, 4142, Note_on_c, 0, 67, 46
2, 4155, Note_on_c, 0, 58, 13
2, 4205, Note_on_c, 0, 48, 0
2, 4255, Note_on_c, 0, 48, 50
2, 4281, Note_on_c, 0, 58, 0
2, 4309, Note_on_c, 0, 63, 0
2, 4310, Note_on_c, 0, 67, 0
2, 4383, Note_on_c, 0, 48, 0
2, 4386, Note_on_c, 0, 66, 43
2, 4387, Note_on_c, 0, 62, 45
2, 4389, Note_on_c, 0, 51, 25
2, 4394, Control_c, 0, 64, 0
2, 4394, Note_on_c, 0, 57, 38
2, 4428, Control_c, 0, 64, 127
2, 4444, Note_on_c, 0, 57, 0
2, 4452, Note_on_c, 0, 51, 0
2, 4540, Note_on_c, 0, 29, 48
2, 4643, Note_on_c, 0, 29, 0
2, 4652, Note_on_c, 0, 62, 0
2, 4706, Note_on_c, 0, 62, 48
2, 4710, Note_on_c, 0, 74, 0
2, 4766, Note_on_c, 0, 66, 0
2, 4782, Note_on_c, 0, 62, 0
2, 4811, Note_on_c, 0, 74, 91
2, 4883, Note_on_c, 0, 74, 0
2, 4913, Note_on_c, 0, 51, 46
2, 4933, Note_on_c, 0, 62, 53
2, 4938, Note_on_c, 0, 57, 44
2, 4939, Note_on_c, 0, 66, 57
2, 4950, Note_on_c, 0, 69, 54
2, 4954, Note_on_c, 0, 74, 80
2, 4975, Control_c, 0, 64, 0
2, 4989, Control_c, 0, 64, 127
2, 5044, Note_on_c, 0, 74, 0
2, 5068, Note_on_c, 0, 74, 69
2, 5129, Note_on_c, 0, 74, 0
2, 5165, Note_on_c, 0, 74, 70
2, 5260, Note_on_c, 0, 74, 0
2, 5542, Note_on_c, 0, 74, 33
2, 5649, Note_on_c, 0, 62, 0
2, 5653, Note_on_c, 0, 69, 0
2, 5660, Note_on_c, 0, 66, 0
2, 5663, Note_on_c, 0, 51, 0
2, 5667, Note_on_c, 0, 57, 0
2, 5673, Note_on_c, 0, 74, 0
2, 6133, Note_on_c, 0, 77, 53
2, 6135, Note_on_c, 0, 66, 29
2, 6136, Note_on_c, 0, 74, 58
2, 6136, Note_on_c, 0, 69, 53
2, 6138, Note_on_c, 0, 46, 37
2, 6147, Control_c, 0, 64, 0
2, 6187, Control_c, 0, 64, 127
2, 6252, Note_on_c, 0, 54, 40
2, 6337, Note_on_c, 0, 69, 0
2, 6348, Note_on_c, 0, 46, 0
2, 6349, Note_on_c, 0, 54, 0
2, 6353, Note_on_c, 0, 57, 44
2, 6436, Note_on_c, 0, 66, 0
2, 6450, Note_on_c, 0, 62, 49
2, 6452, Note_on_c, 0, 57, 0
2, 6509, Note_on_c, 0, 77, 0
2, 6520, Note_on_c, 0, 74, 0
2, 6521, Note_on_c, 0, 66, 47
2, 6584, Note_on_c, 0, 69, 69
2, 6591, Note_on_c, 0, 65, 25
2, 6604, Note_on_c, 0, 65, 0
2, 6633, Note_on_c, 0, 66, 0
2, 6644, Note_on_c, 0, 72, 66
2, 6682, Note_on_c, 0, 62, 0
2, 6683, Note_on_c, 0, 69, 0
2, 6711, Note_on_c, 0, 74, 74
2, 6724, Note_on_c, 0, 72, 0
2, 6769, Note_on_c, 0, 74, 0
2, 6776, Note_on_c, 0, 55, 49
2, 6779, Note_on_c, 0, 75, 57
2, 6780, Note_on_c, 0, 63, 31
2, 6794, Control_c, 0, 64, 0
2, 6853, Control_c, 0, 64, 127
2, 6857, Note_on_c, 0, 77, 56
2, 6861, Note_on_c, 0, 75, 0
2, 6863, Note_on_c, 0, 60, 37
2, 6948, Note_on_c, 0, 72, 42
2, 7016, Note_on_c, 0, 60, 0
2, 7032, Note_on_c, 0, 55, 0
2, 7036, Note_on_c, 0, 63, 0
2, 7046, Note_on_c, 0, 72, 0
2, 7110, Note_on_c, 0, 77, 0
2, 7153, Note_on_c, 0, 70, 67
2, 7253, Note_on_c, 0, 70, 0
2, 7340, Note_on_c, 0, 69, 33
2, 7357, Note_on_c, 0, 69, 0
2, 7361, Note_on_c, 0, 68, 30
2, 7383, Note_on_c, 0, 68, 0
2, 7383, Note_on_c, 0, 67, 51
2, 7409, Note_on_c, 0, 50, 45
2, 7412, Note_on_c, 0, 67, 0
2, 7414, Note_on_c, 0, 60, 30
2, 7415, Note_on_c, 0, 66, 46
2, 7426, Control_c, 0, 64, 0
2, 7484, Control_c, 0, 64, 127
2, 7512, Note_on_c, 0, 54, 32
2, 7591, Note_on_c, 0, 60, 0
2, 7599, Note_on_c, 0, 63, 50
2, 7624, Note_on_c, 0, 66, 0
2, 7698, Note_on_c, 0, 63, 0
2, 7708, Note_on_c, 0, 62, 50
2, 7747, Note_on_c, 0, 54, 0
2, 7759, Note_on_c, 0, 50, 0
2, 7790, Note_on_c, 0, 60, 58
2, 7799, Note_on_c, 0, 62, 0
2, 7881, Note_on_c, 0, 60, 0
2, 7889, Note_on_c, 0, 58, 60
2, 7891, Note_on_c, 0, 43, 42
2, 7900, Control_c, 0, 64, 0
2, 7932, Control_c, 0, 64, 127
2, 8011, Note_on_c, 0, 58, 0
2, 8011, Note_on_c, 0, 67, 78
2, 8014, Note_on_c, 0, 50, 25
2, 8146, Note_on_c, 0, 62, 48
2, 8150, Note_on_c, 0, 58, 17
2, 8160, Note_on_c, 0, 55, 16
2, 8226, Note_on_c, 0, 50, 0
2, 8303, Note_on_c, 0, 50, 30
2, 8403, Note_on_c, 0, 55, 0
2, 8473, Note_on_c, 0, 50, 0
2, 8475, Note_on_c, 0, 58, 0
2, 8506, Note_on_c, 0, 67, 0
2, 8509, Note_on_c, 0, 62, 0
2, 8539, Note_on_c, 0, 66, 64
2, 8539, Note_on_c, 0, 54, 55
2, 8542, Note_on_c, 0, 62, 62
2, 8544, Note_on_c, 0, 58, 48
2, 8603, Note_on_c, 0, 54, 0
2, 8609, Note_on_c, 0, 43, 0
2, 8615, Note_on_c, 0, 62, 0
2, 8617, Note_on_c, 0, 58, 0
2, 8634, Note_on_c, 0, 66, 0
2, 8653, Note_on_c, 0, 67, 74
2, 8655, Note_on_c, 0, 58, 54
2, 8656, Note_on_c, 0, 43, 44
2, 8656, Note_on_c, 0, 62, 66
2, 8658, Note_on_c, 0, 53, 53
2, 8659, Control_c, 0, 64, 0
2, 8688, Control_c, 0, 64, 127
2, 8736, Note_on_c, 0, 67, 0
2, 8766, Note_on_c, 0, 62, 0
2, 8772, Note_on_c, 0, 53, 0
2, 8773, Note_on_c, 0, 58, 0
2, 8818, Note_on_c, 0, 69, 68
2, 8820, Note_on_c, 0, 58, 55
2, 8821, Note_on_c, 0, 62, 66
2, 8822, Note_on_c, 0, 53, 47
2, 8884, Note_on_c, 0, 43, 0
2, 8904, Note_on_c, 0, 69, 0
2, 8930, Note_on_c, 0, 53, 0
2, 8939, Note_on_c, 0, 43, 36
2, 8939, Note_on_c, 0, 67, 64
2, 8963, Note_on_c, 0, 43, 0
2, 8970, Note_on_c, 0, 67, 0
2, 8978, Note_on_c, 0, 62, 0
2, 8983, Note_on_c, 0, 58, 0
2, 9083, Note_on_c, 0, 65, 49
2, 9085, Note_on_c, 0, 62, 49
2, 9085, Note_on_c, 0, 58, 37
2, 9086, Note_on_c, 0, 24, 33
2, 9089, Note_on_c, 0, 53, 31
2, 9093, Note_on_c, 0, 36, 32
2, 9095, Control_c, 0, 64, 0
2, 9135, Control_c, 0, 64, 127
2, 9162, Note_on_c, 0, 24, 0
2, 9164, Note_on_c, 0, 53, 0
2, 9175, Note_on_c, 0, 36, 0
2, 9183, Note_on_c, 0, 62, 0
2, 9186, Note_on_c, 0, 58, 0
2, 9197, Note_on_c, 0, 65, 0
2, 9305, Note_on_c, 0, 58, 44
2, 9331, Note_on_c, 0, 64, 31
2, 9334, Note_on_c, 0, 67, 54
2, 9343, Note_on_c, 0, 73, 39
2, 9355, Note_on_c, 0, 76, 44
2, 9367, Note_on_c, 0, 79, 66
2, 9494, Note_on_c, 0, 64, 0
2, 9499, Note_on_c, 0, 58, 0
2, 9503, Note_on_c, 0, 67, 0
2, 9513, Note_on_c, 0, 79, 0
2, 9526, Note_on_c, 0, 76, 0
2, 9532, Note_on_c, 0, 73, 0
2, 9562, Note_on_c, 0, 53, 44
2, 9577, Note_on_c, 0, 69, 59
2, 9584, Note_on_c, 0, 73, 43
2, 9590, Note_on_c, 0, 61, 35
2, 9593, Note_on_c, 0, 76, 49
2, 9598, Note_on_c, 0, 64, 62
2, 9600, Control_c, 0, 64, 0
2, 9603, Note_on_c, 0, 81, 79
2, 9634, Control_c, 0, 64, 127
2, 9721, Note_on_c, 0, 81, 0
2, 9731, Note_on_c, 0, 76, 0
2, 9734, Note_on_c, 0, 73, 0
2, 9743, Note_on_c, 0, 69, 0
2, 9754, Note_on_c, 0, 64, 0
2, 9773, Note_on_c, 0, 61, 0
2, 9878, Note_on_c, 0, 76, 50
2, 9880, Note_on_c, 0, 62, 44
2, 9881, Note_on_c, 0, 69, 51
2, 9897, Control_c, 0, 64, 0
2, 9937, Control_c, 0, 64, 127
2, 9966, Note_on_c, 0, 76, 0
2, 9979, Note_on_c, 0, 76, 69
2, 10042, Note_on_c, 0, 62, 0
2, 10055, Note_on_c, 0, 69, 0
2, 10072, Note_on_c, 0, 64, 39
2, 10137, Note_on_c, 0, 64, 0
2, 10160, Note_on_c, 0, 64, 40
2, 10221, Note_on_c, 0, 64, 0
2, 10242, Note_on_c, 0, 76, 0
2, 10260, Note_on_c, 0, 72, 60
2, 10325, Note_on_c, 0, 72, 0
2, 10367, Note_on_c, 0, 76, 63
2, 10371, Note_on_c, 0, 72, 56
2, 10371, Note_on_c, 0, 69, 53
2, 10374, Note_on_c, 0, 64, 40
2, 10375, Note_on_c, 0, 60, 34
2, 10444, Note_on_c, 0, 76, 0
2, 10452, Note_on_c, 0, 53, 0
2, 10476, Note_on_c, 0, 76, 66
2, 10480, Note_on_c, 0, 64, 0
2, 10481, Note_on_c, 0, 53, 42
2, 10489, Note_on_c, 0, 60, 0
2, 10495, Note_on_c, 0, 69, 0
2, 10497, Note_on_c, 0, 72, 0
2, 10509, Note_on_c, 0, 53, 0
2, 10510, Note_on_c, 0, 76, 0
2, 10583, Note_on_c, 0, 79, 59
2, 10586, Note_on_c, 0, 75, 62
2, 10587, Note_on_c, 0, 48, 50
2, 10590, Note_on_c, 0, 70, 52
2, 10591, Note_on_c, 0, 58, 33
2, 10593, Control_c, 0, 64, 0
2, 10620, Note_on_c, 0, 79, 0
2, 10621, Control_c, 0, 64, 127
2, 10629, Note_on_c, 0, 75, 0
2, 10639, Note_on_c, 0, 70, 0
2, 10672, Note_on_c, 0, 58, 0
2, 10686, Note_on_c, 0, 74, 73
2, 10687, Note_on_c, 0, 55, 41
2, 10748, Note_on_c, 0, 74, 0
2, 10788, Note_on_c, 0, 74, 63
2, 10793, Note_on_c, 0, 67, 63
2, 10796, Note_on_c, 0, 63, 38
2, 10810, Note_on_c, 0, 55, 0
2, 10822, Note_on_c, 0, 48, 0
2, 10921, Note_on_c, 0, 29, 53
2, 10948, Note_on_c, 0, 29, 0
2, 10991, Note_on_c, 0, 67, 0
2, 10993, Note_on_c, 0, 63, 0
2, 11071, Note_on_c, 0, 66, 47
2, 11072, Note_on_c, 0, 51, 39
2, 11074, Note_on_c, 0, 62, 34
2, 11078, Note_on_c, 0, 57, 40
2, 11082, Note_on_c, 0, 74, 0
2, 11090, Control_c, 0, 64, 0
2, 11100, Control_c, 0, 64, 127
2, 11123, Note_on_c, 0, 74, 1
2, 11170, Note_on_c, 0, 74, 0
2, 11195, Note_on_c, 0, 74, 77
2, 11216, Note_on_c, 0, 57, 0
2, 11261, Note_on_c, 0, 62, 0
2, 11272, Note_on_c, 0, 74, 0
2, 11278, Note_on_c, 0, 66, 0
2, 11310, Note_on_c, 0, 74, 58
2, 11317, Note_on_c, 0, 66, 62
2, 11319, Note_on_c, 0, 63, 55
2, 11321, Note_on_c, 0, 57, 40
2, 11403, Note_on_c, 0, 74, 0
2, 11419, Note_on_c, 0, 51, 0
2, 11452, Note_on_c, 0, 74, 67
2, 11457, Note_on_c, 0, 51, 27
2, 11463, Note_on_c, 0, 57, 0
2, 11490, Note_on_c, 0, 63, 0
2, 11495, Note_on_c, 0, 66, 0
2, 11496, Note_on_c, 0, 74, 0
2, 11509, Note_on_c, 0, 51, 0
2, 11630, Control_c, 0, 64, 0
2, 11631, Note_on_c, 0, 68, 51
2, 11631, Note_on_c, 0, 77, 58
2, 11633, Note_on_c, 0, 34, 47
2, 11637, Note_on_c, 0, 72, 40
2, 11637, Note_on_c, 0, 46, 23
2, 11639, Note_on_c, 0, 75, 31
2, 11648, Control_c, 0, 64, 127
2, 11665, Note_on_c, 0, 34, 0
2, 11678, Note_on_c, 0, 46, 0
2, 11839, Note_on_c, 0, 72, 0
2, 11845, Note_on_c, 0, 77, 0
2, 11845, Note_on_c, 0, 56, 46
2, 11846, Note_on_c, 0, 75, 0
2, 11847, Note_on_c, 0, 68, 0
2, 11938, Note_on_c, 0, 57, 62
2, 12004, Note_on_c, 0, 57, 0
2, 12008, Note_on_c, 0, 58, 74
2, 12052, Note_on_c, 0, 58, 0
2, 12061, Note_on_c, 0, 60, 74
2, 12108, Note_on_c, 0, 60, 0
2, 12108, Note_on_c, 0, 63, 70
2, 12139, Note_on_c, 0, 63, 0
2, 12150, Note_on_c, 0, 70, 74
2, 12160, Note_on_c, 0, 56, 0
2, 12192, Note_on_c, 0, 67, 71
2, 12195, Note_on_c, 0, 70, 0
2, 12232, Note_on_c, 0, 68, 75
2, 12235, Note_on_c, 0, 67, 0
2, 12272, Note_on_c, 0, 70, 72
2, 12279, Note_on_c, 0, 68, 0
2, 12296, Note_on_c, 0, 70, 0
2, 12306, Note_on_c, 0, 72, 63
2, 12341, Note_on_c, 0, 72, 0
2, 12345, Note_on_c, 0, 75, 67
2, 12372, Note_on_c, 0, 75, 0
2, 12383, Note_on_c, 0, 77, 56
2, 12421, Note_on_c, 0, 79, 62
2, 12427, Note_on_c, 0, 77, 0
2, 12441, Note_on_c, 0, 68, 15
2, 12442, Note_on_c, 0, 63, 32
2, 12445, Note_on_c, 0, 58, 29
2, 12448, Note_on_c, 0, 60, 46
2, 12458, Control_c, 0, 64, 0
2, 12466, Note_on_c, 0, 80, 57
2, 12471, Note_on_c, 0, 79, 0
2, 12500, Control_c, 0, 64, 127
2, 12512, Note_on_c, 0, 82, 53
2, 12524, Note_on_c, 0, 80, 0
2, 12543, Note_on_c, 0, 82, 0
2, 12560, Note_on_c, 0, 83, 53
2, 12605, Note_on_c, 0, 83, 0
2, 12611, Note_on_c, 0, 85, 51
2, 12625, Note_on_c, 0, 68, 0
2, 12641, Note_on_c, 0, 85, 0
2, 12663, Note_on_c, 0, 86, 63
2, 12672, Note_on_c, 0, 60, 0
2, 12680, Note_on_c, 0, 58, 0
2, 12704, Note_on_c, 0, 63, 0
2, 12722, Note_on_c, 0, 86, 0
2, 12727, Note_on_c, 0, 89, 41
2, 12733, Note_on_c, 0, 56, 26
2, 12734, Note_on_c, 0, 67, 29
2, 12736, Note_on_c, 0, 62, 34
2, 12801, Note_on_c, 0, 89, 0
2, 12806, Note_on_c, 0, 92, 48
2, 12880, Note_on_c, 0, 92, 0
2, 12896, Note_on_c, 0, 95, 33
2, 12965, Note_on_c, 0, 95, 0
2, 13022, Note_on_c, 0, 98, 43
2, 13082, Note_on_c, 0, 67, 0
2, 13094, Note_on_c, 0, 62, 0
2, 13102, Note_on_c, 0, 98, 0
2, 13127, Note_on_c, 0, 56, 0
2, 13306, Note_on_c, 0, 79, 58
2, 13311, Note_on_c, 0, 51, 31
2, 13331, Control_c, 0, 64, 0
2, 13387, Control_c, 0, 64, 127
2, 13411, Note_on_c, 0, 58, 23
2, 13493, Note_on_c, 0, 79, 0
2, 13513, Note_on_c, 0, 67, 42
2, 13513, Note_on_c, 0, 70, 25
2, 13514, Note_on_c, 0, 62, 31
2, 13590, Note_on_c, 0, 58, 0
2, 13677, Note_on_c, 0, 58, 21
2, 13716, Note_on_c, 0, 70, 0
2, 13763, Note_on_c, 0, 79, 67
2, 13799, Note_on_c, 0, 51, 0
2, 13812, Note_on_c, 0, 79, 0
2, 13862, Note_on_c, 0, 79, 53
2, 13886, Note_on_c, 0, 67, 0
2, 13903, Note_on_c, 0, 79, 0
2, 13923, Note_on_c, 0, 62, 0
2, 13978, Note_on_c, 0, 58, 0
2, 13991, Note_on_c, 0, 81, 67
2, 13993, Note_on_c, 0, 51, 35
2, 14007, Control_c, 0, 64, 0
2, 14035, Control_c, 0, 64, 127
2, 14085, Note_on_c, 0, 81, 0
2, 14102, Note_on_c, 0, 60, 36
2, 14102, Note_on_c, 0, 69, 37
2, 14102, Note_on_c, 0, 72, 33
2, 14156, Note_on_c, 0, 69, 0
2, 14167, Note_on_c, 0, 72, 0
2, 14210, Note_on_c, 0, 82, 65
2, 14264, Note_on_c, 0, 82, 0
2, 14285, Note_on_c, 0, 81, 67
2, 14331, Note_on_c, 0, 51, 0
2, 14341, Note_on_c, 0, 81, 0
2, 14478, Note_on_c, 0, 60, 0
2, 14511, Note_on_c, 0, 51, 43
2, 14512, Note_on_c, 0, 79, 59
2, 14516, Note_on_c, 0, 75, 48
2, 14519, Note_on_c, 0, 72, 30
2, 14520, Note_on_c, 0, 69, 33
2, 14522, Control_c, 0, 64, 0
2, 14522, Note_on_c, 0, 60, 34
2, 14552, Control_c, 0, 64, 127
2, 14598, Note_on_c, 0, 51, 0
2, 14614, Note_on_c, 0, 51, 44
2, 14620, Note_on_c, 0, 69, 0
2, 14625, Note_on_c, 0, 79, 0
2, 14630, Note_on_c, 0, 72, 0
2, 14630, Note_on_c, 0, 60, 0
2, 14634, Note_on_c, 0, 75, 0
2, 14694, Note_on_c, 0, 75, 45
2, 14695, Note_on_c, 0, 81, 60
2, 14696, Note_on_c, 0, 72, 49
2, 14698, Note_on_c, 0, 60, 41
2, 14700, Note_on_c, 0, 69, 40
2, 14739, Note_on_c, 0, 51, 0
2, 14760, Note_on_c, 0, 69, 0
2, 14765, Note_on_c, 0, 72, 0
2, 14767, Note_on_c, 0, 81, 0
2, 14767, Note_on_c, 0, 51, 47
2, 14773, Note_on_c, 0, 75, 0
2, 14836, Note_on_c, 0, 51, 0
2, 14838, Note_on_c, 0, 60, 0
2, 14845, Note_on_c, 0, 82, 61
2, 14849, Note_on_c, 0, 74, 54
2, 14850, Note_on_c, 0, 50, 50
2, 14851, Note_on_c, 0, 70, 35
2, 14851, Control_c, 0, 64, 0
2, 14855, Note_on_c, 0, 77, 38
2, 14889, Control_c, 0, 64, 127
2, 14904, Note_on_c, 0, 82, 0
2, 14911, Note_on_c, 0, 74, 0
2, 14917, Note_on_c, 0, 77, 0
2, 14926, Note_on_c, 0, 70, 0
2, 14932, Note_on_c, 0, 58, 37
2, 15007, Note_on_c, 0, 77, 49
2, 15009, Note_on_c, 0, 50, 0
2, 15011, Note_on_c, 0, 70, 49
2, 15011, Note_on_c, 0, 74, 55
2, 15011, Note_on_c, 0, 62, 43
2, 15014, Note_on_c, 0, 65, 44
2, 15031, Note_on_c, 0, 58, 0
2, 15098, Note_on_c, 0, 64, 68
2, 15110, Note_on_c, 0, 62, 0
2, 15131, Note_on_c, 0, 65, 0
2, 15155, Note_on_c, 0, 74, 0
2, 15159, Note_on_c, 0, 70, 0
2, 15170, Note_on_c, 0, 77, 0
2, 15194, Note_on_c, 0, 64, 0
2, 15195, Note_on_c, 0, 77, 58
2, 15196, Note_on_c, 0, 70, 47
2, 15198, Note_on_c, 0, 65, 56
2, 15199, Note_on_c, 0, 74, 58
2, 15208, Control_c, 0, 64, 0
2, 15242, Control_c, 0, 64, 127
2, 15294, Note_on_c, 0, 62, 43
2, 15296, Note_on_c, 0, 65, 0
2, 15319, Note_on_c, 0, 70, 0
2, 15365, Note_on_c, 0, 62, 0
2, 15382, Note_on_c, 0, 70, 35
2, 15385, Note_on_c, 0, 77, 0
2, 15386, Note_on_c, 0, 74, 0
2, 15389, Note_on_c, 0, 65, 35
2, 15427, Note_on_c, 0, 70, 0
2, 15440, Note_on_c, 0, 65, 0
2, 15483, Note_on_c, 0, 65, 64
2, 15545, Note_on_c, 0, 65, 0
2, 15594, Note_on_c, 0, 65, 48
2, 15600, Note_on_c, 0, 60, 53
2, 15601, Note_on_c, 0, 45, 36
2, 15602, Note_on_c, 0, 55, 35
2, 15607, Control_c, 0, 64, 0
2, 15639, Control_c, 0, 64, 127
2, 15645, Note_on_c, 0, 55, 0
2, 15669, Note_on_c, 0, 60, 0
2, 15676, Note_on_c, 0, 65, 0
2, 15679, Note_on_c, 0, 45, 0
2, 15680, Note_on_c, 0, 55, 39
2, 15698, Note_on_c, 0, 55, 0
2, 15742, Note_on_c, 0, 72, 57
2, 15745, Note_on_c, 0, 67, 38
2, 15747, Note_on_c, 0, 60, 57
2, 15801, Note_on_c, 0, 67, 0
2, 15805, Note_on_c, 0, 77, 71
2, 15818, Note_on_c, 0, 60, 0
2, 15848, Note_on_c, 0, 72, 0
2, 15851, Note_on_c, 0, 77, 0
2, 15875, Note_on_c, 0, 50, 34
2, 15880, Note_on_c, 0, 77, 53
2, 15883, Note_on_c, 0, 72, 56
2, 15886, Note_on_c, 0, 66, 33
2, 15888, Note_on_c, 0, 60, 35
2, 15892, Control_c, 0, 64, 0
2, 15948, Control_c, 0, 64, 127
2, 15971, Note_on_c, 0, 54, 34
2, 15981, Note_on_c, 0, 60, 0
2, 16044, Note_on_c, 0, 77, 0
2, 16085, Note_on_c, 0, 75, 64
2, 16117, Note_on_c, 0, 72, 0
2, 16142, Note_on_c, 0, 60, 1
2, 16159, Note_on_c, 0, 66, 0
2, 16159, Note_on_c, 0, 75, 0
2, 16177, Note_on_c, 0, 60, 0
2, 16179, Note_on_c, 0, 74, 60
2, 16204, Note_on_c, 0, 54, 0
2, 16205, Note_on_c, 0, 50, 0
2, 16255, Note_on_c, 0, 72, 42
2, 16268, Note_on_c, 0, 74, 0
2, 16321, Note_on_c, 0, 70, 53
2, 16323, Note_on_c, 0, 72, 0
2, 16404, Note_on_c, 0, 70, 0
2, 16420, Note_on_c, 0, 70, 48
2, 16426, Note_on_c, 0, 43, 48
2, 16439, Control_c, 0, 64, 0
2, 16492, Control_c, 0, 64, 127
2, 16505, Note_on_c, 0, 50, 35
2, 16507, Note_on_c, 0, 72, 37
2, 16508, Note_on_c, 0, 70, 0
2, 16597, Note_on_c, 0, 43, 0
2, 16600, Note_on_c, 0, 50, 0
2, 16606, Note_on_c, 0, 55, 45
2, 16693, Note_on_c, 0, 67, 50
2, 16695, Note_on_c, 0, 55, 0
2, 16697, Note_on_c, 0, 58, 29
2, 16748, Note_on_c, 0, 67, 0
2, 16797, Note_on_c, 0, 67, 58
2, 16804, Note_on_c, 0, 62, 30
2, 16816, Note_on_c, 0, 72, 0
2, 16882, Note_on_c, 0, 62, 0
2, 16886, Note_on_c, 0, 65, 30
2, 16920, Note_on_c, 0, 67, 0
2, 16948, Note_on_c, 0, 65, 0
2, 16971, Note_on_c, 0, 62, 40
2, 16983, Note_on_c, 0, 62, 0
2, 16996, Note_on_c, 0, 58, 0
2, 17053, Note_on_c, 0, 62, 50
2, 17056, Note_on_c, 0, 55, 34
2, 17111, Note_on_c, 0, 62, 0
2, 17138, Note_on_c, 0, 55, 0
2, 17156, Note_on_c, 0, 62, 43
2, 17157, Note_on_c, 0, 58, 27
2, 17158, Note_on_c, 0, 65, 46
2, 17158, Note_on_c, 0, 48, 35
2, 17168, Control_c, 0, 64, 0
2, 17210, Control_c, 0, 64, 127
2, 17244, Note_on_c, 0, 58, 0
2, 17250, Note_on_c, 0, 65, 0
2, 17253, Note_on_c, 0, 67, 68
2, 17254, Note_on_c, 0, 55, 36
2, 17256, Note_on_c, 0, 58, 55
2, 17328, Note_on_c, 0, 67, 0
2, 17336, Note_on_c, 0, 55, 0
2, 17345, Note_on_c, 0, 58, 0
2, 17355, Note_on_c, 0, 67, 58
2, 17356, Note_on_c, 0, 58, 29
2, 17358, Note_on_c, 0, 55, 39
2, 17404, Note_on_c, 0, 67, 0
2, 17413, Note_on_c, 0, 48, 0
2, 17451, Note_on_c, 0, 48, 44
2, 17452, Note_on_c, 0, 67, 58
2, 17486, Note_on_c, 0, 48, 0
2, 17487, Note_on_c, 0, 55, 0
2, 17496, Note_on_c, 0, 58, 0
2, 17498, Note_on_c, 0, 62, 0
2, 17516, Note_on_c, 0, 67, 0
2, 17573, Note_on_c, 0, 67, 51
2, 17574, Note_on_c, 0, 58, 45
2, 17575, Note_on_c, 0, 61, 47
2, 17576, Note_on_c, 0, 64, 55
2, 17577, Note_on_c, 0, 48, 32
2, 17583, Control_c, 0, 64, 0
2, 17637, Control_c, 0, 64, 127
2, 17682, Note_on_c, 0, 55, 32
2, 17746, Note_on_c, 0, 58, 0
2, 17760, Note_on_c, 0, 61, 0
2, 17790, Note_on_c, 0, 67, 0
2, 17792, Note_on_c, 0, 61, 35
2, 17793, Note_on_c, 0, 58, 28
2, 17875, Note_on_c, 0, 58, 0
2, 17895, Note_on_c, 0, 55, 0
2, 17899, Note_on_c, 0, 64, 0
2, 17907, Note_on_c, 0, 61, 0
2, 17914, Note_on_c, 0, 69, 66
2, 17921, Note_on_c, 0, 48, 0
2, 17959, Note_on_c, 0, 69, 0
2, 18065, Note_on_c, 0, 69, 64
2, 18067, Note_on_c, 0, 63, 53
2, 18069, Note_on_c, 0, 58, 43
2, 18069, Note_on_c, 0, 41, 37
2, 18076, Control_c, 0, 64, 0
2, 18128, Control_c, 0, 64, 127
2, 18176, Note_on_c, 0, 53, 46
2, 18232, Note_on_c, 0, 58, 0
2, 18246, Note_on_c, 0, 63, 0
2, 18283, Note_on_c, 0, 58, 46
2, 18361, Note_on_c, 0, 58, 0
2, 18376, Note_on_c, 0, 53, 0
2, 18383, Note_on_c, 0, 63, 51
2, 18383, Note_on_c, 0, 58, 51
2, 18446, Note_on_c, 0, 58, 0
2, 18460, Note_on_c, 0, 63, 0
2, 18472, Note_on_c, 0, 69, 0
2, 18506, Note_on_c, 0, 69, 46
2, 18506, Note_on_c, 0, 63, 49
2, 18509, Note_on_c, 0, 57, 37
2, 18513, Note_on_c, 0, 53, 41
2, 18521, Control_c, 0, 64, 0
2, 18566, Control_c, 0, 64, 127
2, 18609, Note_on_c, 0, 57, 0
2, 18647, Note_on_c, 0, 57, 33
2, 18666, Note_on_c, 0, 63, 0
2, 18727, Note_on_c, 0, 69, 0
2, 18737, Note_on_c, 0, 63, 53
2, 18739, Note_on_c, 0, 57, 0
2, 18765, Note_on_c, 0, 63, 0
2, 18830, Note_on_c, 0, 41, 0
2, 18838, Note_on_c, 0, 72, 64
2, 18850, Note_on_c, 0, 53, 0
2, 18921, Note_on_c, 0, 72, 0
2, 19057, Note_on_c, 0, 74, 51
2, 19058, Note_on_c, 0, 67, 42
2, 19060, Note_on_c, 0, 72, 42
2, 19065, Note_on_c, 0, 62, 30
2, 19075, Control_c, 0, 64, 0
2, 19107, Control_c, 0, 64, 127
2, 19163, Note_on_c, 0, 67, 0
2, 19170, Note_on_c, 0, 50, 26
2, 19178, Note_on_c, 0, 72, 0
2, 19180, Note_on_c, 0, 74, 0
2, 19231, Note_on_c, 0, 62, 0
2, 19279, Note_on_c, 0, 86, 92
2, 19281, Note_on_c, 0, 62, 36
2, 19345, Note_on_c, 0, 50, 0
2, 19410, Note_on_c, 0, 74, 42
2, 19414, Note_on_c, 0, 50, 27
2, 19487, Note_on_c, 0, 62, 0
2, 19567, Note_on_c, 0, 62, 39
2, 19579, Note_on_c, 0, 86, 0
2, 19626, Note_on_c, 0, 74, 0
2, 19656, Note_on_c, 0, 50, 0
2, 19694, Note_on_c, 0, 50, 27
2, 19738, Note_on_c, 0, 62, 0
2, 19833, Note_on_c, 0, 66, 33
2, 19835, Note_on_c, 0, 63, 21
2, 19843, Note_on_c, 0, 60, 22
2, 20164, Note_on_c, 0, 60, 0
2, 20241, Note_on_c, 0, 50, 0
2, 20307, Note_on_c, 0, 66, 0
2, 20385, Note_on_c, 0, 63, 0
2, 20391, Note_on_c, 0, 70, 55
2, 20397, Note_on_c, 0, 43, 35
2, 20419, Control_c, 0, 64, 0
2, 20467, Control_c, 0, 64, 127
2, 20614, Note_on_c, 0, 62, 34
2, 20614, Note_on_c, 0, 58, 21
2, 20618, Note_on_c, 0, 55, 30
2, 20748, Note_on_c, 0, 62, 0
2, 20758, Note_on_c, 0, 58, 0
2, 20801, Note_on_c, 0, 55, 0
2, 20866, Note_on_c, 0, 70, 0
2, 20981, Note_on_c, 0, 70, 57
2, 20989, Note_on_c, 0, 55, 40
2, 20989, Note_on_c, 0, 62, 52
2, 20993, Note_on_c, 0, 58, 26
2, 21036, Note_on_c, 0, 70, 0
2, 21042, Note_on_c, 0, 43, 0
2, 21062, Note_on_c, 0, 58, 0
2, 21064, Note_on_c, 0, 70, 69
2, 21077, Note_on_c, 0, 62, 0
2, 21106, Note_on_c, 0, 70, 0
2, 21152, Note_on_c, 0, 55, 0
2, 21152, Note_on_c, 0, 70, 60
2, 21153, Note_on_c, 0, 54, 51
2, 21156, Note_on_c, 0, 66, 53
2, 21156, Note_on_c, 0, 62, 55
2, 21159, Control_c, 0, 64, 0
2, 21160, Note_on_c, 0, 58, 28
2, 21203, Control_c, 0, 64, 127
2, 21247, Note_on_c, 0, 70, 0
2, 21307, Note_on_c, 0, 70, 54
2, 21384, Note_on_c, 0, 58, 0
2, 21385, Note_on_c, 0, 66, 0
2, 21387, Note_on_c, 0, 70, 0
2, 21405, Note_on_c, 0, 62, 0
2, 21424, Note_on_c, 0, 70, 49
2, 21462, Note_on_c, 0, 70, 0
2, 21548, Note_on_c, 0, 54, 0
2, 21548, Note_on_c, 0, 70, 53
2, 21550, Control_c, 0, 64, 0
2, 21550, Note_on_c, 0, 53, 38
2, 21553, Note_on_c, 0, 62, 44
2, 21554, Note_on_c, 0, 58, 25
2, 21565, Note_on_c, 0, 65, 29
2, 21592, Control_c, 0, 64, 127
2, 21607, Note_on_c, 0, 65, 0
2, 21616, Note_on_c, 0, 62, 0
2, 21622, Note_on_c, 0, 58, 0
2, 21633, Note_on_c, 0, 70, 0
2, 21650, Note_on_c, 0, 72, 58
2, 21728, Note_on_c, 0, 72, 0
2, 21736, Note_on_c, 0, 69, 67
2, 21797, Note_on_c, 0, 69, 0
2, 21809, Note_on_c, 0, 53, 0
2, 21814, Note_on_c, 0, 70, 68
2, 21881, Note_on_c, 0, 70, 0
2, 21902, Note_on_c, 0, 70, 48
2, 21905, Note_on_c, 0, 48, 36
2, 21907, Note_on_c, 0, 67, 48
2, 21910, Note_on_c, 0, 64, 37
2, 21914, Note_on_c, 0, 58, 21
2, 21915, Control_c, 0, 64, 0
2, 21951, Control_c, 0, 64, 127
2, 21983, Note_on_c, 0, 58, 0
2, 22021, Note_on_c, 0, 64, 0
2, 22062, Note_on_c, 0, 64, 35
2, 22117, Note_on_c, 0, 48, 0
2, 22127, Note_on_c, 0, 70, 0
2, 22144, Note_on_c, 0, 72, 34
2, 22158, Note_on_c, 0, 67, 0
2, 22178, Note_on_c, 0, 64, 0
2, 22181, Note_on_c, 0, 72, 0
2, 22277, Note_on_c, 0, 58, 46
2, 22292, Note_on_c, 0, 66, 27
2, 22306, Note_on_c, 0, 69, 58
2, 22306, Note_on_c, 0, 64, 25
2, 22316, Control_c, 0, 64, 0
2, 22324, Note_on_c, 0, 74, 61
2, 22326, Note_on_c, 0, 66, 0
2, 22336, Control_c, 0, 64, 127
2, 22369, Note_on_c, 0, 69, 0
2, 22380, Note_on_c, 0, 74, 0
2, 22440, Note_on_c, 0, 84, 43
2, 22441, Note_on_c, 0, 72, 33
2, 22457, Note_on_c, 0, 72, 0
2, 22465, Note_on_c, 0, 84, 0
2, 22562, Note_on_c, 0, 90, 35
2, 22564, Note_on_c, 0, 78, 31
2, 22583, Note_on_c, 0, 78, 0
2, 22589, Note_on_c, 0, 90, 0
2, 22668, Note_on_c, 0, 81, 33
2, 22668, Note_on_c, 0, 93, 31
2, 22685, Note_on_c, 0, 81, 0
2, 22689, Note_on_c, 0, 64, 0
2, 22690, Note_on_c, 0, 93, 0
2, 22791, Note_on_c, 0, 98, 36
2, 22794, Note_on_c, 0, 86, 34
2, 22797, Note_on_c, 0, 64, 20
2, 22809, Note_on_c, 0, 86, 0
2, 22821, Note_on_c, 0, 98, 0
2, 22935, Note_on_c, 0, 105, 40
2, 22941, Note_on_c, 0, 93, 19
2, 22986, Note_on_c, 0, 105, 0
2, 23018, Note_on_c, 0, 93, 0
2, 23082, Note_on_c, 0, 64, 0
2, 23123, Note_on_c, 0, 58, 0
2, 23223, Note_on_c, 0, 86, 96
2, 23227, Note_on_c, 0, 62, 60
2, 23332, Note_on_c, 0, 62, 0
2, 23335, Note_on_c, 0, 58, 39
2, 23337, Note_on_c, 0, 82, 50
2, 23360, Note_on_c, 0, 86, 0
2, 23476, Note_on_c, 0, 58, 0
2, 23533, Note_on_c, 0, 84, 58
2, 23603, Note_on_c, 0, 84, 0
2, 23607, Note_on_c, 0, 82, 0
2, 23613, Note_on_c, 0, 86, 67
2, 23616, Note_on_c, 0, 65, 22
2, 23618, Note_on_c, 0, 60, 33
2, 23619, Note_on_c, 0, 62, 36
2, 23620, Control_c, 0, 64, 0
2, 23644, Control_c, 0, 64, 127
2, 23671, Note_on_c, 0, 65, 0
2, 23704, Note_on_c, 0, 53, 36
2, 23713, Note_on_c, 0, 86, 0
2, 23741, Note_on_c, 0, 60, 0
2, 23745, Note_on_c, 0, 62, 0
2, 23785, Note_on_c, 0, 53, 0
2, 23852, Note_on_c, 0, 53, 36
2, 23937, Note_on_c, 0, 74, 68
2, 23937, Note_on_c, 0, 65, 35
2, 23941, Note_on_c, 0, 62, 38
2, 23942, Note_on_c, 0, 60, 31
2, 23979, Note_on_c, 0, 65, 0
2, 24004, Note_on_c, 0, 53, 0
2, 24027, Note_on_c, 0, 53, 35
2, 24115, Note_on_c, 0, 74, 0
2, 24116, Note_on_c, 0, 53, 0
2, 24173, Note_on_c, 0, 60, 0
2, 24174, Note_on_c, 0, 53, 24
2, 24175, Note_on_c, 0, 62, 0
2, 24202, Note_on_c, 0, 53, 0
2, 24257, Note_on_c, 0, 54, 47
2, 24265, Note_on_c, 0, 63, 30
2, 24274, Note_on_c, 0, 66, 40
2, 24285, Note_on_c, 0, 62, 35
2, 24285, Note_on_c, 0, 69, 53
2, 24287, Note_on_c, 0, 74, 68
2, 24288, Control_c, 0, 64, 0
2, 24328, Control_c, 0, 64, 127
2, 24364, Note_on_c, 0, 54, 0
2, 24384, Note_on_c, 0, 54, 45
2, 24405, Note_on_c, 0, 62, 0
2, 24448, Note_on_c, 0, 63, 0
2, 24462, Note_on_c, 0, 66, 0
2, 24467, Note_on_c, 0, 74, 0
2, 24470, Note_on_c, 0, 69, 0
2, 24481, Note_on_c, 0, 63, 47
2, 24482, Note_on_c, 0, 66, 39
2, 24484, Note_on_c, 0, 72, 47
2, 24485, Note_on_c, 0, 62, 36
2, 24486, Note_on_c, 0, 69, 18
2, 24566, Note_on_c, 0, 72, 0
2, 24605, Note_on_c, 0, 70, 69
2, 24618, Note_on_c, 0, 69, 0
2, 24639, Note_on_c, 0, 62, 0
2, 24664, Note_on_c, 0, 63, 0
2, 24665, Note_on_c, 0, 66, 0
2, 24681, Note_on_c, 0, 70, 0
2, 24703, Note_on_c, 0, 66, 49
2, 24704, Note_on_c, 0, 72, 60
2, 24706, Note_on_c, 0, 63, 49
2, 24707, Note_on_c, 0, 62, 35
2, 24759, Note_on_c, 0, 54, 0
2, 24778, Note_on_c, 0, 54, 55
2, 24818, Note_on_c, 0, 63, 0
2, 24861, Note_on_c, 0, 63, 67
2, 24887, Note_on_c, 0, 62, 0
2, 24914, Note_on_c, 0, 54, 0
2, 24919, Note_on_c, 0, 72, 0
2, 24929, Note_on_c, 0, 69, 76
2, 24965, Note_on_c, 0, 69, 0
2, 24980, Note_on_c, 0, 66, 0
2, 25000, Note_on_c, 0, 63, 0
2, 25009, Note_on_c, 0, 70, 74
2, 25010, Note_on_c, 0, 43, 58
2, 25034, Control_c, 0, 64, 0
2, 25082, Control_c, 0, 64, 127
2, 25089, Note_on_c, 0, 50, 60
2, 25127, Note_on_c, 0, 43, 0
2, 25178, Note_on_c, 0, 50, 0
2, 25186, Note_on_c, 0, 57, 84
2, 25287, Note_on_c, 0, 58, 40
2, 25287, Note_on_c, 0, 62, 51
2, 25362, Note_on_c, 0, 62, 0
2, 25362, Note_on_c, 0, 58, 0
2, 25385, Note_on_c, 0, 58, 55
2, 25385, Note_on_c, 0, 55, 70
2, 25387, Note_on_c, 0, 62, 62
2, 25392, Note_on_c, 0, 57, 0
2, 25399, Control_c, 0, 64, 0
2, 25435, Control_c, 0, 64, 127
2, 25456, Note_on_c, 0, 62, 0
2, 25456, Note_on_c, 0, 58, 0
2, 25486, Note_on_c, 0, 58, 33
2, 25487, Note_on_c, 0, 62, 53
2, 25525, Note_on_c, 0, 62, 0
2, 25533, Note_on_c, 0, 58, 0
2, 25591, Note_on_c, 0, 58, 26
2, 25593, Note_on_c, 0, 62, 46
2, 25598, Note_on_c, 0, 55, 0
2, 25646, Note_on_c, 0, 62, 0
2, 25652, Note_on_c, 0, 58, 0
2, 25691, Note_on_c, 0, 70, 0
2, 25709, Note_on_c, 0, 70, 56
2, 25748, Note_on_c, 0, 70, 0
2, 25776, Note_on_c, 0, 70, 59
2, 25816, Note_on_c, 0, 70, 0
2, 25867, Note_on_c, 0, 70, 52
2, 25870, Note_on_c, 0, 41, 28
2, 25873, Note_on_c, 0, 62, 46
2, 25875, Note_on_c, 0, 53, 24
2, 25877, Note_on_c, 0, 58, 19
2, 25880, Control_c, 0, 64, 0
2, 25922, Control_c, 0, 64, 127
2, 26010, Note_on_c, 0, 70, 0
2, 26032, Note_on_c, 0, 69, 68
2, 26084, Note_on_c, 0, 69, 0
2, 26101, Note_on_c, 0, 67, 61
2, 26111, Note_on_c, 0, 58, 0
2, 26115, Note_on_c, 0, 53, 0
2, 26126, Note_on_c, 0, 62, 0
2, 26151, Note_on_c, 0, 67, 0
2, 26179, Note_on_c, 0, 69, 61
2, 26180, Note_on_c, 0, 58, 39
2, 26181, Note_on_c, 0, 62, 62
2, 26182, Note_on_c, 0, 53, 45
2, 26244, Note_on_c, 0, 58, 0
2, 26287, Note_on_c, 0, 69, 0
2, 26313, Note_on_c, 0, 41, 0
2, 26338, Note_on_c, 0, 62, 0
2, 26351, Note_on_c, 0, 70, 73
2, 26355, Note_on_c, 0, 41, 36
2, 26369, Note_on_c, 0, 41, 0
2, 26393, Note_on_c, 0, 53, 0
2, 26500, Note_on_c, 0, 70, 0
2, 26545, Note_on_c, 0, 70, 53
2, 26551, Note_on_c, 0, 66, 30
2, 26552, Note_on_c, 0, 51, 36
2, 26552, Note_on_c, 0, 63, 35
2, 26554, Note_on_c, 0, 60, 38
2, 26560, Control_c, 0, 64, 0
2, 26614, Control_c, 0, 64, 127
2, 26664, Note_on_c, 0, 60, 0
2, 26674, Note_on_c, 0, 63, 0
2, 26681, Note_on_c, 0, 66, 0
2, 26736, Note_on_c, 0, 63, 25
2, 26738, Note_on_c, 0, 66, 26
2, 26739, Note_on_c, 0, 60, 32
2, 26753, Note_on_c, 0, 58, 12
2, 26819, Note_on_c, 0, 60, 0
2, 26871, Note_on_c, 0, 58, 0
2, 26878, Note_on_c, 0, 63, 0
2, 26890, Note_on_c, 0, 66, 0
2, 26906, Note_on_c, 0, 60, 38
2, 26907, Note_on_c, 0, 58, 18
2, 26996, Note_on_c, 0, 70, 0
2, 27001, Note_on_c, 0, 63, 28
2, 27037, Note_on_c, 0, 58, 0
2, 27056, Note_on_c, 0, 63, 0
2, 27063, Note_on_c, 0, 60, 0
2, 27095, Note_on_c, 0, 70, 73
2, 27100, Note_on_c, 0, 63, 69
2, 27103, Note_on_c, 0, 58, 23
2, 27142, Note_on_c, 0, 51, 0
2, 27156, Note_on_c, 0, 70, 0
2, 27179, Note_on_c, 0, 70, 72
2, 27180, Note_on_c, 0, 51, 39
2, 27213, Note_on_c, 0, 63, 0
2, 27214, Note_on_c, 0, 58, 0
2, 27228, Note_on_c, 0, 70, 0
2, 27233, Note_on_c, 0, 51, 0
2, 27265, Note_on_c, 0, 70, 64
2, 27268, Note_on_c, 0, 65, 62
2, 27269, Note_on_c, 0, 50, 45
2, 27269, Note_on_c, 0, 62, 48
2, 27271, Note_on_c, 0, 58, 25
2, 27276, Control_c, 0, 64, 0
2, 27312, Control_c, 0, 64, 127
2, 27385, Note_on_c, 0, 58, 0
2, 27407, Note_on_c, 0, 62, 0
2, 27409, Note_on_c, 0, 70, 0
2, 27419, Note_on_c, 0, 62, 53
2, 27422, Note_on_c, 0, 69, 68
2, 27424, Note_on_c, 0, 58, 34
2, 27492, Note_on_c, 0, 69, 0
2, 27494, Note_on_c, 0, 67, 67
2, 27513, Note_on_c, 0, 65, 0
2, 27522, Note_on_c, 0, 58, 0
2, 27529, Note_on_c, 0, 62, 0
2, 27559, Note_on_c, 0, 67, 0
2, 27573, Note_on_c, 0, 62, 60
2, 27573, Note_on_c, 0, 69, 63
2, 27574, Note_on_c, 0, 65, 64
2, 27576, Note_on_c, 0, 58, 40
2, 27581, Control_c, 0, 64, 0
2, 27609, Control_c, 0, 64, 127
2, 27627, Note_on_c, 0, 50, 0
2, 27676, Note_on_c, 0, 65, 0
2, 27678, Note_on_c, 0, 62, 0
2, 27683, Note_on_c, 0, 69, 0
2, 27710, Note_on_c, 0, 50, 50
2, 27711, Note_on_c, 0, 58, 0
2, 27712, Note_on_c, 0, 70, 68
2, 27715, Note_on_c, 0, 65, 68
2, 27716, Note_on_c, 0, 62, 59
2, 27746, Note_on_c, 0, 50, 0
2, 27775, Note_on_c, 0, 62, 0
2, 27782, Note_on_c, 0, 65, 0
2, 27803, Note_on_c, 0, 70, 0
2, 27867, Note_on_c, 0, 70, 51
2, 27868, Control_c, 0, 64, 0
2, 27868, Note_on_c, 0, 63, 52
2, 27868, Note_on_c, 0, 58, 49
2, 27869, Note_on_c, 0, 67, 60
2, 27870, Note_on_c, 0, 36, 53
2, 27875, Note_on_c, 0, 48, 28
2, 27900, Control_c, 0, 64, 127
2, 27928, Note_on_c, 0, 36, 0
2, 27944, Note_on_c, 0, 67, 0
2, 27951, Note_on_c, 0, 70, 0
2, 27951, Note_on_c, 0, 48, 0
2, 27960, Note_on_c, 0, 63, 0
2, 27970, Note_on_c, 0, 58, 0
2, 28042, Note_on_c, 0, 63, 56
2, 28044, Note_on_c, 0, 58, 49
2, 28045, Note_on_c, 0, 55, 53
2, 28048, Note_on_c, 0, 51, 31
2, 28094, Note_on_c, 0, 51, 0
2, 28130, Note_on_c, 0, 55, 0
2, 28160, Note_on_c, 0, 63, 0
2, 28163, Note_on_c, 0, 58, 0
2, 28215, Note_on_c, 0, 63, 71
2, 28216, Note_on_c, 0, 58, 67
2, 28217, Note_on_c, 0, 46, 59
2, 28219, Note_on_c, 0, 55, 63
2, 28223, Control_c, 0, 64, 0
2, 28249, Control_c, 0, 64, 127
2, 28296, Note_on_c, 0, 55, 0
2, 28320, Note_on_c, 0, 63, 0
2, 28320, Note_on_c, 0, 58, 0
2, 28323, Note_on_c, 0, 46, 0
2, 28328, Note_on_c, 0, 47, 24
2, 28352, Note_on_c, 0, 47, 0
2, 28425, Note_on_c, 0, 72, 54
2, 28428, Note_on_c, 0, 60, 56
2, 28428, Note_on_c, 0, 55, 39
2, 28513, Note_on_c, 0, 55, 0
2, 28524, Note_on_c, 0, 60, 0
2, 28537, Note_on_c, 0, 72, 0
2, 28624, Note_on_c, 0, 72, 48
2, 28628, Note_on_c, 0, 63, 34
2, 28628, Note_on_c, 0, 67, 54
2, 28629, Note_on_c, 0, 55, 34
2, 28630, Control_c, 0, 64, 0
2, 28633, Note_on_c, 0, 45, 30
2, 28666, Control_c, 0, 64, 127
2, 28701, Note_on_c, 0, 45, 0
2, 28702, Note_on_c, 0, 63, 0
2, 28707, Note_on_c, 0, 67, 0
2, 28714, Note_on_c, 0, 55, 0
2, 28718, Note_on_c, 0, 72, 0
2, 28874, Note_on_c, 0, 86, 62
2, 28876, Note_on_c, 0, 62, 36
2, 28877, Note_on_c, 0, 74, 44
2, 28878, Note_on_c, 0, 63, 29
2, 28878, Note_on_c, 0, 67, 32
2, 28992, Note_on_c, 0, 67, 0
2, 28998, Note_on_c, 0, 63, 0
2, 28999, Note_on_c, 0, 62, 0
2, 29008, Note_on_c, 0, 74, 0
2, 29011, Note_on_c, 0, 86, 0
2, 29109, Note_on_c, 0, 86, 53
2, 29110, Note_on_c, 0, 54, 29
2, 29113, Control_c, 0, 64, 0
2, 29113, Note_on_c, 0, 74, 33
2, 29115, Note_on_c, 0, 58, 27
2, 29116, Note_on_c, 0, 60, 36
2, 29120, Note_on_c, 0, 65, 15
2, 29127, Control_c, 0, 64, 127
2, 29169, Note_on_c, 0, 65, 0
2, 29170, Note_on_c, 0, 60, 0
2, 29177, Note_on_c, 0, 58, 0
2, 29192, Note_on_c, 0, 54, 0
2, 29370, Note_on_c, 0, 38, 30
2, 29373, Note_on_c, 0, 26, 28
2, 29463, Note_on_c, 0, 26, 0
2, 29473, Note_on_c, 0, 38, 0
2, 29483, Note_on_c, 0, 86, 0
2, 29547, Note_on_c, 0, 74, 0
2, 29752, Note_on_c, 0, 79, 52
2, 29755, Note_on_c, 0, 55, 35
2, 29777, Control_c, 0, 64, 0
2, 29789, Control_c, 0, 64, 127
2, 29853, Note_on_c, 0, 70, 31
2, 29853, Note_on_c, 0, 67, 26
2, 29855, Note_on_c, 0, 69, 24
2, 29855, Note_on_c, 0, 74, 28
2, 29855, Note_on_c, 0, 62, 28
2, 29991, Note_on_c, 0, 67, 0
2, 30009, Note_on_c, 0, 79, 0
2, 30016, Note_on_c, 0, 62, 0
2, 30040, Note_on_c, 0, 74, 0
2, 30041, Note_on_c, 0, 55, 0
2, 30055, Note_on_c, 0, 70, 0
2, 30060, Note_on_c, 0, 69, 0
2, 30159, Note_on_c, 0, 66, 46
2, 30162, Note_on_c, 0, 58, 46
2, 30164, Note_on_c, 0, 44, 34
2, 30164, Note_on_c, 0, 61, 43
2, 30165, Note_on_c, 0, 54, 23
2, 30167, Note_on_c, 0, 55, 43
2, 30181, Control_c, 0, 64, 0
2, 30205, Control_c, 0, 64, 127
2, 30264, Note_on_c, 0, 55, 0
2, 30266, Note_on_c, 0, 54, 0
2, 30276, Note_on_c, 0, 58, 0
2, 30276, Note_on_c, 0, 61, 0
2, 30277, Note_on_c, 0, 44, 0
2, 30290, Note_on_c, 0, 66, 0
2, 30375, Note_on_c, 0, 67, 54
2, 30379, Note_on_c, 0, 58, 31
2, 30380, Note_on_c, 0, 43, 34
2, 30382, Note_on_c, 0, 53, 29
2, 30383, Control_c, 0, 64, 0
2, 30384, Note_on_c, 0, 62, 35
2, 30405, Control_c, 0, 64, 127
2, 30428, Note_on_c, 0, 67, 0
2, 30429, Note_on_c, 0, 43, 0
2, 30443, Note_on_c, 0, 53, 0
2, 30454, Note_on_c, 0, 62, 0
2, 30455, Note_on_c, 0, 58, 0
2, 30485, Note_on_c, 0, 57, 49
2, 30486, Note_on_c, 0, 69, 64
2, 30487, Note_on_c, 0, 58, 42
2, 30488, Note_on_c, 0, 62, 57
2, 30494, Note_on_c, 0, 65, 35
2, 30518, Note_on_c, 0, 65, 0
2, 30524, Note_on_c, 0, 69, 0
2, 30525, Note_on_c, 0, 58, 0
2, 30529, Note_on_c, 0, 62, 0
2, 30531, Note_on_c, 0, 57, 0
2, 30542, Note_on_c, 0, 62, 25
2, 30542, Note_on_c, 0, 58, 33
2, 30544, Control_c, 0, 64, 0
2, 30544, Note_on_c, 0, 67, 52
2, 30548, Note_on_c, 0, 55, 38
2, 30574, Control_c, 0, 64, 127
2, 30604, Note_on_c, 0, 62, 0
2, 30605, Note_on_c, 0, 58, 0
2, 30615, Note_on_c, 0, 55, 0
2, 30622, Note_on_c, 0, 67, 0
2, 30645, Note_on_c, 0, 58, 30
2, 30645, Note_on_c, 0, 48, 33
2, 30647, Note_on_c, 0, 62, 47
2, 30648, Note_on_c, 0, 57, 32
2, 30649, Note_on_c, 0, 65, 45
2, 30650, Control_c, 0, 64, 0
2, 30688, Control_c, 0, 64, 127
2, 30762, Note_on_c, 0, 62, 0
2, 30767, Note_on_c, 0, 65, 0
2, 30775, Note_on_c, 0, 58, 0
2, 30776, Note_on_c, 0, 48, 0
2, 30799, Note_on_c, 0, 57, 0
2, 30808, Note_on_c, 0, 48, 57
2, 30877, Note_on_c, 0, 48, 0
2, 30927, Note_on_c, 0, 58, 46
2, 30929, Note_on_c, 0, 67, 46
2, 30929, Note_on_c, 0, 61, 38
2, 30935, Note_on_c, 0, 64, 35
2, 30961, Note_on_c, 0, 61, 0
2, 30962, Note_on_c, 0, 58, 0
2, 30962, Note_on_c, 0, 67, 0
2, 30964, Note_on_c, 0, 64, 0
2, 30983, Note_on_c, 0, 49, 37
2, 31012, Note_on_c, 0, 49, 0
2, 31033, Note_on_c, 0, 61, 37
2, 31034, Note_on_c, 0, 69, 54
2, 31035, Note_on_c, 0, 57, 39
2, 31035, Note_on_c, 0, 41, 40
2, 31037, Note_on_c, 0, 64, 48
2, 31039, Control_c, 0, 64, 0
2, 31083, Control_c, 0, 64, 127
2, 31133, Note_on_c, 0, 57, 0
2, 31135, Note_on_c, 0, 64, 0
2, 31137, Note_on_c, 0, 69, 0
2, 31138, Note_on_c, 0, 49, 25
2, 31151, Note_on_c, 0, 61, 0
2, 31173, Note_on_c, 0, 49, 0
2, 31252, Control_c, 0, 64, 0
2, 31263, Note_on_c, 0, 61, 55
2, 31265, Note_on_c, 0, 52, 34
2, 31266, Note_on_c, 0, 64, 40
2, 31276, Note_on_c, 0, 64, 0
2, 31286, Note_on_c, 0, 61, 0
2, 31292, Note_on_c, 0, 52, 0
2, 31306, Control_c, 0, 64, 127
2, 31318, Note_on_c, 0, 49, 21
2, 31350, Note_on_c, 0, 49, 0
2, 31358, Control_c, 0, 64, 0
2, 31363, Note_on_c, 0, 55, 59
2, 31366, Note_on_c, 0, 57, 33
2, 31366, Note_on_c, 0, 52, 39
2, 31368, Note_on_c, 0, 64, 31
2, 31368, Note_on_c, 0, 60, 46
2, 31428, Control_c, 0, 64, 127
2, 31452, Note_on_c, 0, 52, 0
2, 31511, Note_on_c, 0, 55, 0
2, 31524, Note_on_c, 0, 57, 0
2, 31529, Note_on_c, 0, 60, 0
2, 31592, Note_on_c, 0, 64, 0
2, 31614, Note_on_c, 0, 60, 45
2, 31614, Note_on_c, 0, 57, 38
2, 31615, Control_c, 0, 64, 0
2, 31616, Note_on_c, 0, 48, 37
2, 31617, Note_on_c, 0, 55, 27
2, 31634, Note_on_c, 0, 41, 0
2, 31641, Control_c, 0, 64, 127
2, 31652, Note_on_c, 0, 55, 0
2, 31653, Note_on_c, 0, 48, 0
2, 31667, Note_on_c, 0, 57, 0
2, 31675, Note_on_c, 0, 60, 0
2, 31792, Note_on_c, 0, 76, 80
2, 31793, Note_on_c, 0, 65, 80
2, 31794, Note_on_c, 0, 69, 72
2, 31795, Note_on_c, 0, 72, 57
2, 31796, Note_on_c, 0, 60, 69
2, 31807, Control_c, 0, 64, 0
2, 31817, Control_c, 0, 64, 127
2, 31924, Note_on_c, 0, 76, 0
2, 31931, Note_on_c, 0, 72, 0
2, 31935, Note_on_c, 0, 69, 0
2, 31938, Note_on_c, 0, 65, 0
2, 31942, Note_on_c, 0, 60, 0
2, 32013, Note_on_c, 0, 72, 36
2, 32015, Note_on_c, 0, 67, 54
2, 32017, Note_on_c, 0, 62, 30
2, 32017, Note_on_c, 0, 57, 47
2, 32056, Note_on_c, 0, 57, 0
2, 32060, Note_on_c, 0, 72, 0
2, 32069, Note_on_c, 0, 67, 0
2, 32079, Note_on_c, 0, 62, 0
2, 32171, Note_on_c, 0, 52, 27
2, 32174, Note_on_c, 0, 69, 57
2, 32175, Note_on_c, 0, 64, 47
2, 32176, Note_on_c, 0, 60, 42
2, 32193, Note_on_c, 0, 52, 0
2, 32244, Note_on_c, 0, 60, 0
2, 32246, Note_on_c, 0, 64, 0
2, 32250, Note_on_c, 0, 69, 0
2, 32329, Note_on_c, 0, 67, 51
2, 32332, Note_on_c, 0, 48, 30
2, 32334, Note_on_c, 0, 63, 35
2, 32335, Control_c, 0, 64, 0
2, 32336, Note_on_c, 0, 58, 25
2, 32339, Note_on_c, 0, 55, 27
2, 32355, Control_c, 0, 64, 127
2, 32378, Note_on_c, 0, 58, 0
2, 32381, Note_on_c, 0, 67, 0
2, 32384, Note_on_c, 0, 63, 0
2, 32427, Note_on_c, 0, 74, 74
2, 32470, Note_on_c, 0, 55, 0
2, 32476, Note_on_c, 0, 74, 0
2, 32486, Note_on_c, 0, 67, 47
2, 32488, Note_on_c, 0, 74, 16
2, 32490, Note_on_c, 0, 63, 26
2, 32547, Note_on_c, 0, 48, 0
2, 32557, Note_on_c, 0, 63, 0
2, 32566, Note_on_c, 0, 67, 0
2, 32641, Note_on_c, 0, 63, 55
2, 32641, Note_on_c, 0, 67, 60
2, 32642, Note_on_c, 0, 53, 51
2, 32644, Note_on_c, 0, 58, 55
2, 32658, Control_c, 0, 64, 0
2, 32682, Control_c, 0, 64, 127
2, 32745, Note_on_c, 0, 67, 0
2, 32822, Note_on_c, 0, 53, 0
2, 32826, Note_on_c, 0, 63, 0
2, 32866, Note_on_c, 0, 58, 0
2, 32897, Note_on_c, 0, 62, 34
2, 32897, Note_on_c, 0, 51, 27
2, 32899, Note_on_c, 0, 57, 45
2, 32902, Control_c, 0, 64, 0
2, 32926, Control_c, 0, 64, 127
2, 32941, Note_on_c, 0, 57, 0
2, 32943, Note_on_c, 0, 62, 0
2, 32959, Note_on_c, 0, 51, 0
2, 33049, Note_on_c, 0, 29, 43
2, 33067, Note_on_c, 0, 29, 0
2, 33273, Note_on_c, 0, 51, 35
2, 33273, Note_on_c, 0, 57, 45
2, 33289, Control_c, 0, 64, 0
2, 33315, Control_c, 0, 64, 127
2, 33331, Note_on_c, 0, 62, 55
2, 33332, Note_on_c, 0, 74, 0
2, 33352, Note_on_c, 0, 62, 0
2, 33374, Control_c, 0, 64, 0
2, 33375, Note_on_c, 0, 66, 84
2, 33401, Note_on_c, 0, 66, 0
2, 33424, Note_on_c, 0, 69, 94
2, 33430, Control_c, 0, 64, 127
2, 33453, Note_on_c, 0, 51, 0
2, 33458, Note_on_c, 0, 57, 0
2, 33467, Note_on_c, 0, 69, 0
2, 33470, Note_on_c, 0, 72, 73
2, 33490, Note_on_c, 0, 72, 0
2, 33520, Note_on_c, 0, 74, 90
2, 33526, Note_on_c, 0, 65, 62
2, 33530, Note_on_c, 0, 60, 61
2, 33530, Note_on_c, 0, 62, 61
2, 33567, Note_on_c, 0, 74, 0
2, 33568, Control_c, 0, 64, 0
2, 33583, Note_on_c, 0, 65, 0
2, 33588, Note_on_c, 0, 77, 80
2, 33611, Note_on_c, 0, 77, 0
2, 33646, Note_on_c, 0, 53, 33
2, 33647, Note_on_c, 0, 74, 80
2, 33665, Note_on_c, 0, 74, 0
2, 33698, Note_on_c, 0, 62, 0
2, 33707, Note_on_c, 0, 60, 0
2, 33754, Note_on_c, 0, 72, 70
2, 33758, Note_on_c, 0, 65, 47
2, 33760, Note_on_c, 0, 62, 34
2, 33764, Note_on_c, 0, 60, 36
2, 33790, Note_on_c, 0, 72, 0
2, 33801, Note_on_c, 0, 65, 0
2, 33803, Control_c, 0, 64, 127
2, 33803, Note_on_c, 0, 70, 51
2, 33833, Note_on_c, 0, 53, 0
2, 33838, Note_on_c, 0, 70, 0
2, 33854, Note_on_c, 0, 53, 44
2, 33856, Note_on_c, 0, 69, 55
2, 33890, Note_on_c, 0, 62, 0
2, 33902, Note_on_c, 0, 60, 0
2, 33909, Note_on_c, 0, 65, 48
2, 33911, Note_on_c, 0, 69, 0
2, 33927, Note_on_c, 0, 65, 0
2, 34082, Note_on_c, 0, 79, 58
2, 34091, Note_on_c, 0, 53, 0
2, 34101, Note_on_c, 0, 79, 0
2, 34133, Note_on_c, 0, 84, 113
2, 34166, Note_on_c, 0, 84, 0
2, 34186, Note_on_c, 0, 86, 113
2, 34187, Note_on_c, 0, 63, 55
2, 34188, Note_on_c, 0, 57, 48
2, 34188, Note_on_c, 0, 60, 55
2, 34191, Note_on_c, 0, 55, 60
2, 34196, Control_c, 0, 64, 0
2, 34228, Note_on_c, 0, 86, 0
2, 34238, Note_on_c, 0, 87, 84
2, 34281, Note_on_c, 0, 87, 0
2, 34293, Note_on_c, 0, 84, 78
2, 34320, Note_on_c, 0, 84, 0
2, 34324, Control_c, 0, 64, 127
2, 34344, Note_on_c, 0, 82, 48
2, 34369, Note_on_c, 0, 57, 0
2, 34372, Note_on_c, 0, 55, 0
2, 34377, Note_on_c, 0, 60, 0
2, 34380, Note_on_c, 0, 63, 0
2, 34382, Note_on_c, 0, 82, 0
2, 34396, Note_on_c, 0, 81, 83
2, 34439, Note_on_c, 0, 81, 0
2, 34439, Control_c, 0, 64, 0
2, 34448, Note_on_c, 0, 84, 84
2, 34491, Note_on_c, 0, 84, 0
2, 34500, Note_on_c, 0, 54, 43
2, 34503, Note_on_c, 0, 60, 44
2, 34505, Note_on_c, 0, 64, 26
2, 34547, Control_c, 0, 64, 127
2, 34549, Note_on_c, 0, 77, 47
2, 34598, Note_on_c, 0, 64, 0
2, 34598, Note_on_c, 0, 60, 0
2, 34600, Note_on_c, 0, 77, 0
2, 34602, Note_on_c, 0, 75, 50
2, 34613, Note_on_c, 0, 54, 0
2, 34634, Note_on_c, 0, 75, 0
2, 34658, Note_on_c, 0, 74, 36
2, 34667, Control_c, 0, 64, 0
2, 34693, Control_c, 0, 64, 127
2, 34702, Note_on_c, 0, 74, 0
2, 34709, Note_on_c, 0, 72, 36
2, 34758, Note_on_c, 0, 54, 27
2, 34769, Note_on_c, 0, 54, 0
2, 34819, Note_on_c, 0, 55, 42
2, 34836, Control_c, 0, 64, 0
2, 34858, Control_c, 0, 64, 127
2, 34898, Note_on_c, 0, 72, 0
2, 34912, Note_on_c, 0, 62, 38
2, 34913, Note_on_c, 0, 79, 50
2, 34958, Note_on_c, 0, 79, 0
2, 34971, Note_on_c, 0, 74, 39
2, 34975, Note_on_c, 0, 70, 29
2, 34975, Note_on_c, 0, 69, 30
2, 34979, Note_on_c, 0, 67, 33
2, 35014, Note_on_c, 0, 62, 0
2, 35032, Note_on_c, 0, 67, 0
2, 35061, Note_on_c, 0, 55, 0
2, 35062, Note_on_c, 0, 74, 0
2, 35072, Note_on_c, 0, 62, 37
2, 35073, Note_on_c, 0, 70, 0
2, 35089, Note_on_c, 0, 62, 0
2, 35090, Note_on_c, 0, 69, 0
2, 35210, Note_on_c, 0, 43, 42
2, 35223, Note_on_c, 0, 43, 0
2, 35276, Note_on_c, 0, 54, 50
2, 35277, Note_on_c, 0, 66, 56
2, 35277, Note_on_c, 0, 58, 55
2, 35280, Note_on_c, 0, 55, 56
2, 35280, Note_on_c, 0, 62, 56
2, 35291, Control_c, 0, 64, 0
2, 35313, Control_c, 0, 64, 127
2, 35327, Note_on_c, 0, 55, 0
2, 35335, Note_on_c, 0, 58, 0
2, 35336, Note_on_c, 0, 62, 0
2, 35348, Note_on_c, 0, 66, 0
2, 35353, Note_on_c, 0, 54, 0
2, 35386, Note_on_c, 0, 58, 57
2, 35387, Note_on_c, 0, 67, 58
2, 35390, Note_on_c, 0, 62, 64
2, 35393, Note_on_c, 0, 53, 43
2, 35393, Note_on_c, 0, 43, 37
2, 35396, Control_c, 0, 64, 0
2, 35442, Control_c, 0, 64, 127
2, 35475, Note_on_c, 0, 67, 0
2, 35486, Note_on_c, 0, 53, 0
2, 35498, Note_on_c, 0, 58, 0
2, 35498, Note_on_c, 0, 62, 0
2, 35523, Note_on_c, 0, 43, 0
2, 35565, Note_on_c, 0, 57, 68
2, 35565, Note_on_c, 0, 69, 72
2, 35565, Note_on_c, 0, 58, 64
2, 35566, Note_on_c, 0, 62, 70
2, 35570, Note_on_c, 0, 65, 54
2, 35605, Note_on_c, 0, 57, 0
2, 35609, Note_on_c, 0, 58, 0
2, 35610, Note_on_c, 0, 62, 0
2, 35611, Note_on_c, 0, 65, 0
2, 35611, Note_on_c, 0, 69, 0
2, 35626, Control_c, 0, 64, 0
2, 35631, Note_on_c, 0, 67, 59
2, 35633, Note_on_c, 0, 62, 58
2, 35634, Note_on_c, 0, 58, 49
2, 35634, Note_on_c, 0, 55, 47
2, 35645, Note_on_c, 0, 65, 24
2, 35653, Control_c, 0, 64, 127
2, 35660, Note_on_c, 0, 55, 0
2, 35664, Note_on_c, 0, 67, 0
2, 35666, Note_on_c, 0, 65, 0
2, 35669, Note_on_c, 0, 62, 0
2, 35678, Note_on_c, 0, 58, 0
2, 35735, Note_on_c, 0, 65, 49
2, 35736, Note_on_c, 0, 58, 39
2, 35739, Control_c, 0, 64, 0
2, 35739, Note_on_c, 0, 53, 37
2, 35739, Note_on_c, 0, 62, 48
2, 35740, Note_on_c, 0, 48, 41
2, 35779, Control_c, 0, 64, 127
2, 35818, Note_on_c, 0, 53, 0
2, 35823, Note_on_c, 0, 48, 0
2, 35825, Note_on_c, 0, 65, 0
2, 35828, Note_on_c, 0, 62, 0
2, 35832, Note_on_c, 0, 58, 0
2, 35949, Note_on_c, 0, 48, 64
2, 35967, Note_on_c, 0, 48, 0
2, 36054, Note_on_c, 0, 58, 59
2, 36057, Note_on_c, 0, 67, 64
2, 36060, Note_on_c, 0, 73, 60
2, 36064, Note_on_c, 0, 76, 71
2, 36068, Control_c, 0, 64, 0
2, 36070, Note_on_c, 0, 64, 55
2, 36072, Note_on_c, 0, 79, 58
2, 36096, Control_c, 0, 64, 127
2, 36130, Note_on_c, 0, 67, 0
2, 36135, Note_on_c, 0, 79, 0
2, 36137, Note_on_c, 0, 64, 0
2, 36138, Note_on_c, 0, 73, 0
2, 36144, Note_on_c, 0, 76, 0
2, 36168, Note_on_c, 0, 58, 0
2, 36183, Note_on_c, 0, 73, 59
2, 36183, Note_on_c, 0, 81, 76
2, 36184, Note_on_c, 0, 76, 74
2, 36185, Note_on_c, 0, 53, 58
2, 36185, Note_on_c, 0, 69, 69
2, 36188, Note_on_c, 0, 64, 45
2, 36188, Control_c, 0, 64, 0
2, 36190, Note_on_c, 0, 61, 30
2, 36193, Note_on_c, 0, 79, 28
2, 36214, Control_c, 0, 64, 127
2, 36215, Note_on_c, 0, 61, 0
2, 36333, Note_on_c, 0, 81, 0
2, 36337, Note_on_c, 0, 79, 0
2, 36345, Note_on_c, 0, 76, 0
2, 36354, Note_on_c, 0, 73, 0
2, 36356, Note_on_c, 0, 69, 0
2, 36368, Note_on_c, 0, 64, 0
2, 36471, Note_on_c, 0, 76, 62
2, 36472, Note_on_c, 0, 62, 62
2, 36536, Note_on_c, 0, 76, 0
2, 36570, Note_on_c, 0, 76, 45
2, 36573, Note_on_c, 0, 65, 33
2, 36575, Note_on_c, 0, 69, 43
2, 36581, Control_c, 0, 64, 0
2, 36615, Control_c, 0, 64, 127
2, 36664, Note_on_c, 0, 53, 0
2, 36689, Note_on_c, 0, 53, 40
2, 36769, Note_on_c, 0, 65, 0
2, 36770, Note_on_c, 0, 69, 0
2, 36830, Note_on_c, 0, 62, 0
2, 36851, Note_on_c, 0, 73, 30
2, 36851, Note_on_c, 0, 61, 34
2, 36852, Note_on_c, 0, 64, 46
2, 36853, Note_on_c, 0, 69, 47
2, 36876, Note_on_c, 0, 64, 0
2, 36892, Note_on_c, 0, 69, 0
2, 36902, Note_on_c, 0, 73, 0
2, 36915, Note_on_c, 0, 76, 0
2, 36921, Note_on_c, 0, 61, 0
2, 36929, Note_on_c, 0, 72, 32
2, 36930, Control_c, 0, 64, 0
2, 36930, Note_on_c, 0, 69, 35
2, 36931, Note_on_c, 0, 64, 35
2, 36933, Note_on_c, 0, 60, 36
2, 36972, Control_c, 0, 64, 127
2, 36990, Note_on_c, 0, 53, 0
2, 37037, Note_on_c, 0, 53, 41
2, 37064, Note_on_c, 0, 60, 0
2, 37066, Note_on_c, 0, 64, 0
2, 37095, Note_on_c, 0, 69, 0
2, 37100, Note_on_c, 0, 72, 0
2, 37105, Note_on_c, 0, 64, 30
2, 37122, Note_on_c, 0, 64, 0
2, 37209, Note_on_c, 0, 76, 45
2, 37210, Note_on_c, 0, 65, 47
2, 37212, Note_on_c, 0, 60, 51
2, 37213, Note_on_c, 0, 72, 33
2, 37215, Note_on_c, 0, 69, 37
2, 37217, Control_c, 0, 64, 0
2, 37223, Note_on_c, 0, 65, 0
2, 37227, Note_on_c, 0, 69, 0
2, 37235, Note_on_c, 0, 72, 0
2, 37236, Note_on_c, 0, 60, 0
2, 37242, Note_on_c, 0, 76, 0
2, 37276, Note_on_c, 0, 59, 39
2, 37282, Note_on_c, 0, 65, 45
2, 37283, Note_on_c, 0, 76, 34
2, 37284, Note_on_c, 0, 60, 47
2, 37285, Note_on_c, 0, 59, 0
2, 37286, Note_on_c, 0, 69, 46
2, 37286, Note_on_c, 0, 72, 31
2, 37313, Control_c, 0, 64, 127
2, 37358, Note_on_c, 0, 65, 0
2, 37368, Note_on_c, 0, 69, 0
2, 37374, Note_on_c, 0, 60, 0
2, 37375, Note_on_c, 0, 72, 0
2, 37376, Note_on_c, 0, 76, 0
2, 37387, Note_on_c, 0, 74, 45
2, 37388, Note_on_c, 0, 65, 28
2, 37391, Note_on_c, 0, 59, 33
2, 37402, Note_on_c, 0, 65, 0
2, 37421, Note_on_c, 0, 74, 0
2, 37425, Note_on_c, 0, 59, 0
2, 37434, Control_c, 0, 64, 0
2, 37443, Note_on_c, 0, 76, 47
2, 37444, Control_c, 0, 64, 127
2, 37445, Note_on_c, 0, 69, 44
2, 37446, Note_on_c, 0, 65, 43
2, 37446, Note_on_c, 0, 60, 45
2, 37453, Note_on_c, 0, 72, 17
2, 37468, Note_on_c, 0, 60, 0
2, 37474, Note_on_c, 0, 65, 0
2, 37475, Note_on_c, 0, 53, 0
2, 37483, Note_on_c, 0, 69, 0
2, 37486, Note_on_c, 0, 72, 0
2, 37493, Note_on_c, 0, 76, 0
2, 37608, Control_c, 0, 64, 0
2, 37613, Note_on_c, 0, 48, 35
2, 37613, Note_on_c, 0, 79, 51
2, 37614, Note_on_c, 0, 75, 40
2, 37616, Note_on_c, 0, 67, 39
2, 37617, Note_on_c, 0, 58, 20
2, 37624, Control_c, 0, 64, 127
2, 37638, Note_on_c, 0, 48, 0
2, 37660, Note_on_c, 0, 58, 0
2, 37698, Note_on_c, 0, 67, 0
2, 37776, Note_on_c, 0, 63, 30
2, 37776, Note_on_c, 0, 67, 24
2, 37778, Note_on_c, 0, 62, 18
2, 37783, Note_on_c, 0, 75, 0
2, 37791, Note_on_c, 0, 79, 0
2, 37822, Note_on_c, 0, 74, 40
2, 37839, Note_on_c, 0, 74, 0
2, 37839, Control_c, 0, 64, 0
2, 37845, Note_on_c, 0, 71, 60
2, 37857, Note_on_c, 0, 71, 0
2, 37876, Note_on_c, 0, 72, 58
2, 37886, Note_on_c, 0, 67, 0
2, 37895, Note_on_c, 0, 72, 0
2, 37898, Note_on_c, 0, 63, 0
2, 37908, Note_on_c, 0, 74, 34
2, 37916, Note_on_c, 0, 74, 0
2, 37924, Note_on_c, 0, 75, 62
2, 37925, Control_c, 0, 64, 127
2, 37934, Note_on_c, 0, 75, 0
2, 37939, Control_c, 0, 64, 0
2, 37947, Note_on_c, 0, 63, 37
2, 37954, Note_on_c, 0, 67, 17
2, 37974, Note_on_c, 0, 82, 34
2, 37998, Note_on_c, 0, 82, 0
2, 38003, Note_on_c, 0, 83, 38
2, 38011, Note_on_c, 0, 83, 0
2, 38023, Note_on_c, 0, 86, 81
2, 38035, Note_on_c, 0, 67, 0
2, 38036, Note_on_c, 0, 86, 0
2, 38054, Note_on_c, 0, 83, 62
2, 38065, Note_on_c, 0, 83, 0
2, 38071, Note_on_c, 0, 63, 0
2, 38085, Note_on_c, 0, 84, 82
2, 38103, Note_on_c, 0, 84, 0
2, 38118, Note_on_c, 0, 79, 64
2, 38126, Note_on_c, 0, 63, 30
2, 38129, Note_on_c, 0, 67, 17
2, 38136, Note_on_c, 0, 79, 0
2, 38150, Note_on_c, 0, 77, 60
2, 38167, Note_on_c, 0, 77, 0
2, 38182, Control_c, 0, 64, 127
2, 38182, Note_on_c, 0, 75, 58
2, 38197, Note_on_c, 0, 75, 0
2, 38216, Control_c, 0, 64, 0
2, 38218, Note_on_c, 0, 74, 55
2, 38228, Control_c, 0, 64, 127
2, 38232, Note_on_c, 0, 67, 0
2, 38236, Note_on_c, 0, 74, 0
2, 38238, Note_on_c, 0, 62, 0
2, 38247, Note_on_c, 0, 63, 0
2, 38249, Note_on_c, 0, 77, 52
2, 38276, Note_on_c, 0, 77, 0
2, 38281, Note_on_c, 0, 74, 62
2, 38300, Note_on_c, 0, 74, 0
2, 38306, Control_c, 0, 64, 0
2, 38311, Note_on_c, 0, 63, 25
2, 38313, Note_on_c, 0, 75, 56
2, 38314, Note_on_c, 0, 57, 24
2, 38315, Note_on_c, 0, 67, 17
2, 38341, Note_on_c, 0, 75, 0
2, 38352, Control_c, 0, 64, 127
2, 38360, Note_on_c, 0, 74, 57
2, 38376, Note_on_c, 0, 67, 0
2, 38415, Note_on_c, 0, 63, 0
2, 38523, Note_on_c, 0, 57, 0
2, 38555, Note_on_c, 0, 74, 0
2, 38559, Note_on_c, 0, 62, 36
2, 38612, Note_on_c, 0, 74, 54
2, 38635, Note_on_c, 0, 62, 0
2, 38639, Note_on_c, 0, 74, 0
2, 38673, Note_on_c, 0, 74, 49
2, 38675, Note_on_c, 0, 66, 34
2, 38679, Note_on_c, 0, 51, 32
2, 38679, Note_on_c, 0, 62, 28
2, 38681, Note_on_c, 0, 57, 34
2, 38681, Note_on_c, 0, 69, 36
2, 38683, Control_c, 0, 64, 0
2, 38735, Control_c, 0, 64, 127
2, 38777, Note_on_c, 0, 57, 0
2, 38797, Note_on_c, 0, 69, 0
2, 38801, Note_on_c, 0, 62, 0
2, 38812, Note_on_c, 0, 66, 0
2, 38831, Note_on_c, 0, 51, 0
2, 38854, Note_on_c, 0, 51, 32
2, 38857, Note_on_c, 0, 57, 26
2, 38863, Note_on_c, 0, 74, 0
2, 38883, Note_on_c, 0, 51, 0
2, 38886, Note_on_c, 0, 57, 0
2, 38966, Note_on_c, 0, 74, 50
2, 38984, Note_on_c, 0, 74, 0
2, 39028, Note_on_c, 0, 77, 48
2, 39032, Note_on_c, 0, 72, 32
2, 39035, Note_on_c, 0, 60, 32
2, 39038, Control_c, 0, 64, 0
2, 39040, Note_on_c, 0, 68, 14
2, 39042, Note_on_c, 0, 63, 25
2, 39074, Control_c, 0, 64, 127
2, 39076, Note_on_c, 0, 77, 0
2, 39086, Note_on_c, 0, 75, 48
2, 39090, Note_on_c, 0, 58, 36
2, 39093, Note_on_c, 0, 72, 0
2, 39104, Note_on_c, 0, 75, 0
2, 39116, Note_on_c, 0, 60, 0
2, 39134, Note_on_c, 0, 68, 0
2, 39147, Note_on_c, 0, 63, 0
2, 39149, Note_on_c, 0, 80, 67
2, 39149, Note_on_c, 0, 87, 67
2, 39186, Note_on_c, 0, 87, 0
2, 39189, Note_on_c, 0, 80, 0
2, 39203, Note_on_c, 0, 84, 58
2, 39206, Note_on_c, 0, 77, 34
2, 39210, Note_on_c, 0, 84, 0
2, 39229, Note_on_c, 0, 77, 0
2, 39260, Note_on_c, 0, 68, 25
2, 39267, Note_on_c, 0, 63, 27
2, 39268, Note_on_c, 0, 60, 38
2, 39285, Note_on_c, 0, 58, 0
2, 39319, Note_on_c, 0, 80, 63
2, 39320, Note_on_c, 0, 72, 54
2, 39359, Note_on_c, 0, 80, 0
2, 39360, Note_on_c, 0, 72, 0
2, 39381, Note_on_c, 0, 77, 71
2, 39420, Note_on_c, 0, 77, 0
2, 39433, Note_on_c, 0, 58, 46
2, 39441, Control_c, 0, 64, 0
2, 39446, Note_on_c, 0, 60, 0
2, 39455, Control_c, 0, 64, 127
2, 39461, Note_on_c, 0, 68, 0
2, 39473, Note_on_c, 0, 63, 0
2, 39546, Note_on_c, 0, 72, 60
2, 39546, Note_on_c, 0, 63, 39
2, 39549, Note_on_c, 0, 75, 43
2, 39575, Note_on_c, 0, 58, 0
2, 39590, Note_on_c, 0, 72, 0
2, 39600, Note_on_c, 0, 63, 0
2, 39604, Note_on_c, 0, 68, 39
2, 39628, Note_on_c, 0, 68, 0
2, 39631, Note_on_c, 0, 75, 0
2, 39724, Note_on_c, 0, 34, 60
2, 39730, Control_c, 0, 64, 0
2, 39745, Note_on_c, 0, 34, 0
2, 39750, Control_c, 0, 64, 127
2, 39806, Note_on_c, 0, 56, 43
2, 39826, Note_on_c, 0, 58, 44
2, 39827, Note_on_c, 0, 56, 0
2, 39838, Note_on_c, 0, 58, 0
2, 39840, Note_on_c, 0, 59, 51
2, 39854, Note_on_c, 0, 62, 44
2, 39860, Note_on_c, 0, 59, 0
2, 39870, Note_on_c, 0, 64, 51
2, 39883, Note_on_c, 0, 62, 0
2, 39886, Note_on_c, 0, 64, 0
2, 39890, Note_on_c, 0, 67, 38
2, 39898, Note_on_c, 0, 67, 0
2, 39899, Note_on_c, 0, 68, 60
2, 39911, Note_on_c, 0, 68, 0
2, 39912, Note_on_c, 0, 71, 76
2, 39931, Note_on_c, 0, 71, 0
2, 39934, Note_on_c, 0, 74, 41
2, 39942, Note_on_c, 0, 76, 53
2, 39944, Note_on_c, 0, 74, 0
2, 39949, Note_on_c, 0, 76, 0
2, 39950, Note_on_c, 0, 79, 44
2, 39957, Note_on_c, 0, 79, 0
2, 39964, Note_on_c, 0, 80, 53
2, 39971, Note_on_c, 0, 82, 32
2, 39971, Note_on_c, 0, 83, 64
2, 39972, Note_on_c, 0, 80, 0
2, 39977, Note_on_c, 0, 82, 0
2, 39985, Note_on_c, 0, 86, 71
2, 39989, Note_on_c, 0, 83, 0
2, 40000, Note_on_c, 0, 86, 0
2, 40003, Note_on_c, 0, 88, 24
2, 40006, Note_on_c, 0, 91, 35
2, 40010, Note_on_c, 0, 88, 0
2, 40014, Note_on_c, 0, 91, 0
2, 40022, Note_on_c, 0, 92, 46
2, 40023, Note_on_c, 0, 94, 47
2, 40027, Note_on_c, 0, 95, 55
2, 40030, Note_on_c, 0, 92, 0
2, 40041, Note_on_c, 0, 94, 0
2, 40042, Note_on_c, 0, 98, 48
2, 40052, Note_on_c, 0, 100, 58
2, 40067, Note_on_c, 0, 103, 82
2, 40095, Note_on_c, 0, 103, 0
2, 40123, Note_on_c, 0, 98, 0
2, 40129, Note_on_c, 0, 95, 0
2, 40130, Note_on_c, 0, 100, 0
2, 40257, Note_on_c, 0, 67, 53
2, 40259, Note_on_c, 0, 59, 46
2, 40260, Note_on_c, 0, 62, 53
2, 40260, Note_on_c, 0, 56, 31
2, 40261, Note_on_c, 0, 64, 38
2, 40267, Note_on_c, 0, 58, 20
2, 40339, Note_on_c, 0, 58, 0
2, 40349, Note_on_c, 0, 56, 0
2, 40358, Note_on_c, 0, 59, 0
2, 40372, Note_on_c, 0, 64, 0
2, 40387, Note_on_c, 0, 67, 0
2, 40393, Note_on_c, 0, 62, 0
2, 40443, Note_on_c, 0, 67, 52
2, 40446, Note_on_c, 0, 62, 33
2, 40448, Control_c, 0, 64, 0
2, 40449, Note_on_c, 0, 51, 39
2, 40474, Control_c, 0, 64, 127
2, 40495, Note_on_c, 0, 62, 0
2, 40498, Note_on_c, 0, 67, 0
2, 40558, Note_on_c, 0, 58, 32
2, 40620, Note_on_c, 0, 74, 47
2, 40620, Note_on_c, 0, 62, 34
2, 40621, Note_on_c, 0, 79, 38
2, 40622, Note_on_c, 0, 67, 42
2, 40695, Note_on_c, 0, 74, 0
2, 40705, Note_on_c, 0, 79, 0
2, 40708, Note_on_c, 0, 67, 0
2, 40724, Note_on_c, 0, 62, 0
2, 40747, Note_on_c, 0, 58, 0
2, 40801, Note_on_c, 0, 67, 38
2, 40803, Note_on_c, 0, 70, 34
2, 40808, Note_on_c, 0, 62, 24
2, 40809, Note_on_c, 0, 58, 23
2, 40866, Note_on_c, 0, 51, 0
2, 40900, Note_on_c, 0, 51, 49
2, 40930, Note_on_c, 0, 67, 0
2, 40980, Note_on_c, 0, 70, 0
2, 40991, Note_on_c, 0, 62, 0
2, 41014, Note_on_c, 0, 51, 0
2, 41084, Note_on_c, 0, 51, 52
2, 41089, Note_on_c, 0, 58, 0
2, 41133, Note_on_c, 0, 51, 0
2, 41156, Note_on_c, 0, 69, 80
2, 41156, Note_on_c, 0, 60, 81
2, 41157, Note_on_c, 0, 65, 75
2, 41160, Note_on_c, 0, 57, 62
2, 41161, Note_on_c, 0, 51, 43
2, 41166, Control_c, 0, 64, 0
2, 41200, Control_c, 0, 64, 127
2, 41220, Note_on_c, 0, 60, 0
2, 41223, Note_on_c, 0, 65, 0
2, 41225, Note_on_c, 0, 69, 0
2, 41247, Note_on_c, 0, 57, 0
2, 41270, Note_on_c, 0, 70, 67
2, 41272, Note_on_c, 0, 62, 58
2, 41273, Note_on_c, 0, 65, 63
2, 41278, Note_on_c, 0, 57, 36
2, 41302, Note_on_c, 0, 65, 0
2, 41304, Note_on_c, 0, 70, 0
2, 41306, Note_on_c, 0, 62, 0
2, 41317, Note_on_c, 0, 57, 0
2, 41324, Note_on_c, 0, 51, 0
2, 41340, Note_on_c, 0, 51, 25
2, 41343, Note_on_c, 0, 69, 58
2, 41344, Note_on_c, 0, 57, 39
2, 41344, Note_on_c, 0, 60, 54
2, 41345, Note_on_c, 0, 65, 44
2, 41347, Control_c, 0, 64, 0
2, 41377, Control_c, 0, 64, 127
2, 41393, Note_on_c, 0, 57, 0
2, 41407, Note_on_c, 0, 60, 0
2, 41415, Note_on_c, 0, 69, 0
2, 41423, Note_on_c, 0, 51, 0
2, 41434, Note_on_c, 0, 65, 0
2, 41700, Note_on_c, 0, 67, 57
2, 41704, Control_c, 0, 64, 0
2, 41704, Note_on_c, 0, 51, 25
2, 41704, Note_on_c, 0, 60, 48
2, 41704, Note_on_c, 0, 63, 44
2, 41705, Note_on_c, 0, 57, 26
2, 41728, Control_c, 0, 64, 127
2, 41749, Note_on_c, 0, 67, 0
2, 41764, Note_on_c, 0, 60, 0
2, 41769, Note_on_c, 0, 63, 0
2, 41776, Note_on_c, 0, 57, 0
2, 41808, Note_on_c, 0, 69, 54
2, 41827, Note_on_c, 0, 69, 0
2, 41866, Note_on_c, 0, 51, 0
2, 41875, Note_on_c, 0, 70, 40
2, 41876, Note_on_c, 0, 62, 36
2, 41877, Note_on_c, 0, 65, 46
2, 41878, Note_on_c, 0, 58, 25
2, 41880, Note_on_c, 0, 50, 34
2, 41882, Control_c, 0, 64, 0
2, 41910, Control_c, 0, 64, 127
2, 41948, Note_on_c, 0, 58, 0
2, 41952, Note_on_c, 0, 65, 0
2, 41956, Note_on_c, 0, 62, 0
2, 41981, Note_on_c, 0, 70, 0
2, 41987, Note_on_c, 0, 65, 43
2, 42019, Note_on_c, 0, 65, 0
2, 42049, Note_on_c, 0, 65, 48
2, 42051, Note_on_c, 0, 58, 28
2, 42060, Note_on_c, 0, 65, 0
2, 42065, Note_on_c, 0, 50, 0
2, 42088, Note_on_c, 0, 58, 0
2, 42133, Note_on_c, 0, 73, 44
2, 42155, Note_on_c, 0, 73, 0
2, 42176, Note_on_c, 0, 74, 62
2, 42201, Note_on_c, 0, 74, 0
2, 42224, Note_on_c, 0, 77, 69
2, 42229, Control_c, 0, 64, 0
2, 42263, Control_c, 0, 64, 127
2, 42268, Note_on_c, 0, 81, 78
2, 42283, Note_on_c, 0, 77, 0
2, 42304, Note_on_c, 0, 81, 0
2, 42319, Note_on_c, 0, 84, 87
2, 42444, Note_on_c, 0, 74, 45
2, 42464, Note_on_c, 0, 74, 0
2, 42465, Note_on_c, 0, 84, 0
2, 42494, Note_on_c, 0, 77, 51
2, 42506, Note_on_c, 0, 77, 0
2, 42548, Note_on_c, 0, 89, 45
2, 42549, Note_on_c, 0, 63, 28
2, 42549, Note_on_c, 0, 77, 32
2, 42554, Control_c, 0, 64, 0
2, 42556, Note_on_c, 0, 55, 24
2, 42558, Note_on_c, 0, 60, 28
2, 42559, Note_on_c, 0, 57, 35
2, 42574, Control_c, 0, 64, 127
2, 42599, Note_on_c, 0, 55, 0
2, 42601, Note_on_c, 0, 60, 0
2, 42601, Note_on_c, 0, 89, 0
2, 42606, Note_on_c, 0, 63, 0
2, 42607, Note_on_c, 0, 57, 0
2, 42618, Note_on_c, 0, 77, 0
2, 42723, Note_on_c, 0, 62, 39
2, 42725, Note_on_c, 0, 65, 37
2, 42727, Note_on_c, 0, 60, 38
2, 42741, Note_on_c, 0, 55, 7
2, 42811, Note_on_c, 0, 55, 0
2, 42832, Note_on_c, 0, 45, 35
2, 42845, Note_on_c, 0, 60, 0
2, 42873, Note_on_c, 0, 65, 0
2, 42886, Note_on_c, 0, 45, 0
2, 42887, Note_on_c, 0, 62, 0
2, 42899, Control_c, 0, 64, 0
2, 42899, Note_on_c, 0, 38, 35
2, 42900, Note_on_c, 0, 60, 49
2, 42901, Note_on_c, 0, 54, 20
2, 42901, Note_on_c, 0, 50, 24
2, 42915, Control_c, 0, 64, 127
2, 42928, Note_on_c, 0, 54, 0
2, 42938, Note_on_c, 0, 60, 0
2, 42942, Note_on_c, 0, 38, 0
2, 42954, Note_on_c, 0, 50, 0
2, 43073, Note_on_c, 0, 77, 89
2, 43073, Note_on_c, 0, 65, 57
2, 43075, Note_on_c, 0, 58, 42
2, 43075, Note_on_c, 0, 54, 33
2, 43076, Note_on_c, 0, 60, 49
2, 43118, Note_on_c, 0, 77, 0
2, 43129, Note_on_c, 0, 75, 74
2, 43155, Note_on_c, 0, 65, 0
2, 43163, Note_on_c, 0, 60, 0
2, 43164, Note_on_c, 0, 75, 0
2, 43177, Note_on_c, 0, 74, 74
2, 43195, Note_on_c, 0, 54, 0
2, 43199, Note_on_c, 0, 58, 0
2, 43209, Note_on_c, 0, 74, 0
2, 43239, Note_on_c, 0, 62, 33
2, 43242, Note_on_c, 0, 57, 31
2, 43243, Note_on_c, 0, 58, 21
2, 43245, Note_on_c, 0, 55, 45
2, 43248, Note_on_c, 0, 72, 30
2, 43258, Control_c, 0, 64, 0
2, 43267, Note_on_c, 0, 72, 0
2, 43310, Control_c, 0, 64, 127
2, 43314, Note_on_c, 0, 72, 60
2, 43350, Note_on_c, 0, 57, 0
2, 43355, Note_on_c, 0, 62, 0
2, 43369, Note_on_c, 0, 58, 0
2, 43411, Note_on_c, 0, 62, 40
2, 43416, Note_on_c, 0, 57, 26
2, 43417, Note_on_c, 0, 58, 20
2, 43486, Note_on_c, 0, 72, 0
2, 43503, Note_on_c, 0, 67, 61
2, 43519, Note_on_c, 0, 67, 0
2, 43522, Note_on_c, 0, 69, 55
2, 43530, Note_on_c, 0, 57, 0
2, 43536, Note_on_c, 0, 69, 0
2, 43552, Note_on_c, 0, 69, 55
2, 43553, Note_on_c, 0, 62, 0
2, 43576, Note_on_c, 0, 55, 0
2, 43577, Note_on_c, 0, 67, 60
2, 43578, Note_on_c, 0, 69, 0
2, 43588, Note_on_c, 0, 67, 0
2, 43589, Note_on_c, 0, 66, 38
2, 43599, Note_on_c, 0, 53, 29
2, 43601, Note_on_c, 0, 62, 35
2, 43605, Note_on_c, 0, 66, 0
2, 43609, Control_c, 0, 64, 0
2, 43616, Note_on_c, 0, 67, 57
2, 43647, Control_c, 0, 64, 127
2, 43697, Note_on_c, 0, 62, 0
2, 43714, Note_on_c, 0, 58, 0
2, 43740, Note_on_c, 0, 67, 0
2, 43780, Note_on_c, 0, 67, 47
2, 43782, Note_on_c, 0, 58, 33
2, 43786, Note_on_c, 0, 62, 20
2, 43822, Note_on_c, 0, 62, 0
2, 43839, Note_on_c, 0, 58, 0
2, 43839, Note_on_c, 0, 53, 0
2, 43869, Note_on_c, 0, 67, 0
2, 43954, Note_on_c, 0, 65, 47
2, 43954, Note_on_c, 0, 62, 35
2, 43957, Note_on_c, 0, 48, 31
2, 43960, Note_on_c, 0, 58, 20
2, 43966, Control_c, 0, 64, 0
2, 43990, Control_c, 0, 64, 127
2, 44031, Note_on_c, 0, 65, 0
2, 44046, Note_on_c, 0, 58, 0
2, 44054, Note_on_c, 0, 62, 0
2, 44133, Note_on_c, 0, 58, 43
2, 44134, Note_on_c, 0, 62, 54
2, 44134, Note_on_c, 0, 67, 53
2, 44136, Note_on_c, 0, 65, 48
2, 44162, Note_on_c, 0, 48, 0
2, 44226, Note_on_c, 0, 48, 58
2, 44259, Note_on_c, 0, 65, 0
2, 44261, Note_on_c, 0, 62, 0
2, 44265, Note_on_c, 0, 67, 0
2, 44272, Note_on_c, 0, 58, 0
2, 44319, Note_on_c, 0, 55, 46
2, 44320, Note_on_c, 0, 58, 67
2, 44320, Note_on_c, 0, 67, 61
2, 44322, Note_on_c, 0, 64, 64
2, 44323, Control_c, 0, 64, 0
2, 44326, Note_on_c, 0, 61, 39
2, 44361, Control_c, 0, 64, 127
2, 44437, Note_on_c, 0, 58, 0
2, 44467, Note_on_c, 0, 61, 0
2, 44504, Note_on_c, 0, 58, 26
2, 44508, Note_on_c, 0, 48, 0
2, 44515, Note_on_c, 0, 61, 18
2, 44558, Note_on_c, 0, 64, 0
2, 44563, Note_on_c, 0, 61, 0
2, 44596, Note_on_c, 0, 58, 0
2, 44597, Note_on_c, 0, 48, 38
2, 44611, Note_on_c, 0, 55, 0
2, 44620, Note_on_c, 0, 48, 0
2, 44637, Note_on_c, 0, 67, 0
2, 44690, Note_on_c, 0, 69, 62
2, 44692, Note_on_c, 0, 58, 39
2, 44694, Note_on_c, 0, 63, 39
2, 44694, Note_on_c, 0, 41, 30
2, 44699, Note_on_c, 0, 53, 26
2, 44704, Control_c, 0, 64, 0
2, 44748, Control_c, 0, 64, 127
2, 44785, Note_on_c, 0, 53, 0
2, 44803, Note_on_c, 0, 58, 0
2, 44816, Note_on_c, 0, 63, 0
2, 44870, Note_on_c, 0, 58, 33
2, 44872, Note_on_c, 0, 63, 31
2, 44872, Note_on_c, 0, 53, 36
2, 44924, Note_on_c, 0, 41, 0
2, 44946, Note_on_c, 0, 58, 0
2, 44974, Note_on_c, 0, 41, 39
2, 44988, Note_on_c, 0, 53, 0
2, 44996, Note_on_c, 0, 63, 0
2, 45050, Note_on_c, 0, 69, 0
2, 45059, Note_on_c, 0, 63, 31
2, 45064, Note_on_c, 0, 60, 34
2, 45064, Note_on_c, 0, 65, 30
2, 45065, Note_on_c, 0, 53, 36
2, 45069, Control_c, 0, 64, 0
2, 45093, Control_c, 0, 64, 127
2, 45163, Note_on_c, 0, 53, 0
2, 45168, Note_on_c, 0, 60, 0
2, 45176, Note_on_c, 0, 63, 0
2, 45189, Note_on_c, 0, 65, 0
2, 45244, Note_on_c, 0, 53, 35
2, 45273, Note_on_c, 0, 41, 0
2, 45291, Note_on_c, 0, 53, 0
2, 45323, Note_on_c, 0, 86, 80
2, 45372, Note_on_c, 0, 86, 0
2, 45381, Note_on_c, 0, 74, 51
2, 45434, Note_on_c, 0, 50, 37
2, 45446, Note_on_c, 0, 74, 0
2, 45507, Note_on_c, 0, 67, 58
2, 45553, Note_on_c, 0, 67, 0
2, 45564, Note_on_c, 0, 62, 60
2, 45617, Note_on_c, 0, 62, 0
2, 45625, Note_on_c, 0, 62, 32
2, 45686, Note_on_c, 0, 76, 78
2, 45745, Note_on_c, 0, 62, 0
2, 45750, Note_on_c, 0, 72, 47
2, 45816, Note_on_c, 0, 54, 30
2, 45818, Note_on_c, 0, 66, 34
2, 45824, Note_on_c, 0, 60, 32
2, 45835, Control_c, 0, 64, 0
2, 45857, Control_c, 0, 64, 127
2, 45914, Note_on_c, 0, 50, 0
2, 45992, Note_on_c, 0, 50, 44
2, 46033, Note_on_c, 0, 60, 0
2, 46052, Note_on_c, 0, 66, 0
2, 46063, Note_on_c, 0, 76, 0
2, 46066, Note_on_c, 0, 72, 0
2, 46072, Note_on_c, 0, 65, 59
2, 46098, Note_on_c, 0, 54, 0
2, 46098, Note_on_c, 0, 50, 0
2, 46282, Note_on_c, 0, 65, 0
2, 46282, Note_on_c, 0, 63, 53
2, 46317, Note_on_c, 0, 63, 0
2, 46317, Note_on_c, 0, 62, 46
2, 46362, Note_on_c, 0, 43, 40
2, 46362, Note_on_c, 0, 70, 63
2, 46363, Note_on_c, 0, 62, 0
2, 46375, Control_c, 0, 64, 0
2, 46407, Control_c, 0, 64, 127
2, 46461, Note_on_c, 0, 62, 52
2, 46502, Note_on_c, 0, 62, 0
2, 46518, Note_on_c, 0, 70, 0
2, 46543, Note_on_c, 0, 43, 0
2, 46545, Note_on_c, 0, 70, 55
2, 46547, Note_on_c, 0, 58, 37
2, 46551, Note_on_c, 0, 62, 46
2, 46552, Note_on_c, 0, 55, 37
2, 46676, Note_on_c, 0, 62, 0
2, 46681, Note_on_c, 0, 58, 0
2, 46768, Note_on_c, 0, 70, 0
2, 46834, Note_on_c, 0, 70, 56
2, 46838, Note_on_c, 0, 54, 34
2, 46844, Note_on_c, 0, 62, 30
2, 46853, Note_on_c, 0, 55, 0
2, 46858, Note_on_c, 0, 62, 0
2, 46866, Note_on_c, 0, 70, 0
2, 46924, Note_on_c, 0, 70, 61
2, 46926, Note_on_c, 0, 62, 67
2, 46929, Note_on_c, 0, 58, 52
2, 46948, Control_c, 0, 64, 0
2, 46966, Control_c, 0, 64, 127
2, 47001, Note_on_c, 0, 70, 0
2, 47014, Note_on_c, 0, 54, 0
2, 47025, Note_on_c, 0, 70, 67
2, 47078, Note_on_c, 0, 70, 0
2, 47088, Note_on_c, 0, 58, 0
2, 47102, Note_on_c, 0, 62, 0
2, 47206, Note_on_c, 0, 54, 32
2, 47208, Note_on_c, 0, 70, 36
2, 47227, Note_on_c, 0, 70, 0
2, 47282, Note_on_c, 0, 54, 0
2, 47292, Note_on_c, 0, 53, 37
2, 47295, Control_c, 0, 64, 0
2, 47296, Note_on_c, 0, 70, 44
2, 47297, Note_on_c, 0, 62, 50
2, 47298, Note_on_c, 0, 58, 29
2, 47303, Note_on_c, 0, 65, 36
2, 47311, Control_c, 0, 64, 127
2, 47326, Note_on_c, 0, 65, 0
2, 47330, Note_on_c, 0, 62, 0
2, 47335, Note_on_c, 0, 58, 0
2, 47357, Note_on_c, 0, 70, 0
2, 47390, Note_on_c, 0, 72, 51
2, 47392, Note_on_c, 0, 53, 0
2, 47466, Note_on_c, 0, 72, 0
2, 47540, Note_on_c, 0, 69, 54
2, 47570, Note_on_c, 0, 69, 0
2, 47590, Note_on_c, 0, 70, 49
2, 47619, Note_on_c, 0, 70, 0
2, 47655, Note_on_c, 0, 70, 39
2, 47656, Note_on_c, 0, 67, 41
2, 47657, Note_on_c, 0, 48, 33
2, 47659, Note_on_c, 0, 64, 27
2, 47660, Control_c, 0, 64, 0
2, 47663, Note_on_c, 0, 58, 20
2, 47693, Control_c, 0, 64, 127
2, 47744, Note_on_c, 0, 58, 0
2, 47748, Note_on_c, 0, 72, 40
2, 47753, Note_on_c, 0, 55, 38
2, 47761, Note_on_c, 0, 64, 0
2, 47768, Note_on_c, 0, 67, 0
2, 47772, Note_on_c, 0, 72, 0
2, 47800, Note_on_c, 0, 55, 0
2, 47805, Note_on_c, 0, 70, 0
2, 47834, Note_on_c, 0, 74, 62
2, 47839, Note_on_c, 0, 58, 31
2, 47861, Note_on_c, 0, 48, 0
2, 47889, Note_on_c, 0, 58, 0
2, 47931, Note_on_c, 0, 58, 34
2, 47935, Note_on_c, 0, 74, 0
2, 48014, Note_on_c, 0, 78, 33
2, 48016, Note_on_c, 0, 74, 37
2, 48017, Note_on_c, 0, 69, 34
2, 48020, Note_on_c, 0, 64, 26
2, 48044, Note_on_c, 0, 69, 0
2, 48054, Note_on_c, 0, 74, 0
2, 48062, Note_on_c, 0, 78, 0
2, 48089, Note_on_c, 0, 58, 0
2, 48109, Note_on_c, 0, 58, 28
2, 48119, Note_on_c, 0, 64, 0
2, 48197, Note_on_c, 0, 90, 34
2, 48197, Note_on_c, 0, 86, 55
2, 48198, Note_on_c, 0, 93, 53
2, 48200, Note_on_c, 0, 81, 33
2, 48205, Note_on_c, 0, 64, 22
2, 48223, Note_on_c, 0, 64, 0
2, 48232, Note_on_c, 0, 86, 0
2, 48233, Note_on_c, 0, 93, 0
2, 48236, Note_on_c, 0, 90, 0
2, 48237, Note_on_c, 0, 58, 0
2, 48253, Note_on_c, 0, 81, 0
2, 48371, Note_on_c, 0, 66, 46
2, 48375, Note_on_c, 0, 62, 37
2, 48379, Note_on_c, 0, 48, 29
2, 48379, Note_on_c, 0, 58, 25
2, 48437, Note_on_c, 0, 48, 0
2, 48437, Note_on_c, 0, 62, 0
2, 48448, Note_on_c, 0, 66, 0
2, 48454, Note_on_c, 0, 58, 0
2, 48652, Note_on_c, 0, 61, 55
2, 48656, Note_on_c, 0, 86, 82
2, 48660, Note_on_c, 0, 62, 71
2, 48673, Note_on_c, 0, 61, 0
2, 48679, Control_c, 0, 64, 0
2, 48707, Control_c, 0, 64, 127
2, 48717, Control_c, 0, 64, 0
2, 48729, Note_on_c, 0, 86, 0
2, 48731, Note_on_c, 0, 62, 0
2, 48734, Note_on_c, 0, 82, 47
2, 48737, Note_on_c, 0, 58, 38
2, 48753, Control_c, 0, 64, 127
2, 48805, Note_on_c, 0, 58, 0
2, 48818, Note_on_c, 0, 82, 0
2, 48846, Note_on_c, 0, 58, 43
2, 48847, Note_on_c, 0, 82, 44
2, 48898, Note_on_c, 0, 82, 0
2, 48912, Note_on_c, 0, 60, 46
2, 48916, Note_on_c, 0, 84, 38
2, 48955, Note_on_c, 0, 58, 0
2, 48959, Note_on_c, 0, 60, 0
2, 48979, Note_on_c, 0, 84, 0
2, 49026, Note_on_c, 0, 60, 31
2, 49028, Note_on_c, 0, 84, 54
2, 49035, Note_on_c, 0, 60, 0
2, 49071, Note_on_c, 0, 84, 0
2, 49093, Note_on_c, 0, 86, 47
2, 49094, Note_on_c, 0, 74, 36
2, 49096, Control_c, 0, 64, 0
2, 49100, Note_on_c, 0, 65, 18
2, 49100, Note_on_c, 0, 60, 33
2, 49102, Note_on_c, 0, 62, 33
2, 49109, Control_c, 0, 64, 127
2, 49142, Note_on_c, 0, 65, 0
2, 49200, Note_on_c, 0, 74, 0
2, 49206, Note_on_c, 0, 53, 37
2, 49214, Note_on_c, 0, 86, 0
2, 49239, Note_on_c, 0, 60, 0
2, 49240, Note_on_c, 0, 62, 0
2, 49275, Note_on_c, 0, 86, 82
2, 49277, Note_on_c, 0, 65, 57
2, 49278, Note_on_c, 0, 62, 36
2, 49278, Note_on_c, 0, 74, 68
2, 49281, Note_on_c, 0, 60, 38
2, 49321, Note_on_c, 0, 74, 0
2, 49321, Note_on_c, 0, 86, 0
2, 49339, Note_on_c, 0, 86, 60
2, 49342, Note_on_c, 0, 74, 41
2, 49358, Note_on_c, 0, 65, 0
2, 49359, Note_on_c, 0, 74, 0
2, 49361, Note_on_c, 0, 53, 0
2, 49363, Note_on_c, 0, 86, 0
2, 49393, Note_on_c, 0, 53, 27
2, 49410, Note_on_c, 0, 60, 0
2, 49420, Note_on_c, 0, 62, 0
2, 49458, Note_on_c, 0, 86, 68
2, 49461, Note_on_c, 0, 65, 29
2, 49462, Note_on_c, 0, 74, 36
2, 49464, Note_on_c, 0, 62, 24
2, 49464, Note_on_c, 0, 60, 27
2, 49516, Note_on_c, 0, 65, 0
2, 49540, Note_on_c, 0, 53, 0
2, 49546, Note_on_c, 0, 86, 0
2, 49571, Note_on_c, 0, 74, 0
2, 49572, Note_on_c, 0, 53, 39
2, 49682, Note_on_c, 0, 62, 0
2, 49688, Note_on_c, 0, 60, 0
2, 49696, Note_on_c, 0, 74, 88
2, 49716, Note_on_c, 0, 53, 0
2, 49730, Note_on_c, 0, 74, 0
2, 49749, Note_on_c, 0, 74, 62
2, 49778, Note_on_c, 0, 74, 0
2, 49812, Note_on_c, 0, 74, 65
2, 49813, Note_on_c, 0, 54, 33
2, 49815, Note_on_c, 0, 63, 36
2, 49816, Note_on_c, 0, 66, 34
2, 49819, Note_on_c, 0, 62, 37
2, 49821, Note_on_c, 0, 69, 36
2, 49824, Control_c, 0, 64, 0
2, 49859, Control_c, 0, 64, 127
2, 50062, Note_on_c, 0, 74, 0
2, 50066, Note_on_c, 0, 69, 0
2, 50076, Note_on_c, 0, 72, 54
2, 50079, Note_on_c, 0, 62, 0
2, 50084, Note_on_c, 0, 60, 35
2, 50150, Note_on_c, 0, 70, 48
2, 50153, Note_on_c, 0, 60, 0
2, 50158, Note_on_c, 0, 72, 0
2, 50161, Note_on_c, 0, 58, 27
2, 50172, Note_on_c, 0, 63, 0
2, 50182, Note_on_c, 0, 70, 0
2, 50183, Note_on_c, 0, 66, 0
2, 50217, Note_on_c, 0, 58, 0
2, 50225, Note_on_c, 0, 72, 57
2, 50228, Note_on_c, 0, 63, 46
2, 50228, Note_on_c, 0, 66, 53
2, 50231, Note_on_c, 0, 60, 36
2, 50308, Note_on_c, 0, 63, 0
2, 50323, Note_on_c, 0, 72, 0
2, 50325, Note_on_c, 0, 60, 0
2, 50329, Note_on_c, 0, 63, 36
2, 50332, Note_on_c, 0, 69, 46
2, 50333, Note_on_c, 0, 57, 41
2, 50334, Note_on_c, 0, 54, 0
2, 50345, Note_on_c, 0, 69, 0
2, 50350, Note_on_c, 0, 57, 0
2, 50354, Note_on_c, 0, 66, 0
2, 50361, Note_on_c, 0, 63, 0
2, 50438, Note_on_c, 0, 70, 53
2, 50441, Note_on_c, 0, 43, 42
2, 50441, Note_on_c, 0, 50, 43
2, 50442, Note_on_c, 0, 62, 50
2, 50444, Note_on_c, 0, 58, 25
2, 50450, Control_c, 0, 64, 0
2, 50492, Control_c, 0, 64, 127
2, 50537, Note_on_c, 0, 43, 0
2, 50550, Control_c, 0, 64, 0
2, 50554, Note_on_c, 0, 57, 62
2, 50575, Note_on_c, 0, 57, 0
2, 50608, Note_on_c, 0, 56, 39
2, 50615, Control_c, 0, 64, 127
2, 50644, Note_on_c, 0, 56, 0
2, 50668, Note_on_c, 0, 55, 51
2, 50669, Control_c, 0, 64, 0
2, 50703, Control_c, 0, 64, 127
2, 50721, Control_c, 0, 64, 0
2, 50747, Control_c, 0, 64, 127
2, 50768, Note_on_c, 0, 43, 39
2, 50783, Note_on_c, 0, 62, 0
2, 50787, Note_on_c, 0, 58, 0
2, 50792, Note_on_c, 0, 55, 0
2, 50801, Note_on_c, 0, 50, 0
2, 50838, Note_on_c, 0, 58, 37
2, 50840, Note_on_c, 0, 62, 55
2, 50843, Note_on_c, 0, 54, 48
2, 50847, Control_c, 0, 64, 0
2, 50877, Control_c, 0, 64, 127
2, 50979, Note_on_c, 0, 58, 0
2, 50983, Note_on_c, 0, 54, 0
2, 50984, Note_on_c, 0, 62, 0
2, 51116, Note_on_c, 0, 54, 29
2, 51124, Note_on_c, 0, 70, 0
2, 51165, Note_on_c, 0, 54, 0
2, 51184, Note_on_c, 0, 43, 0
2, 51186, Note_on_c, 0, 70, 56
2, 51190, Control_c, 0, 64, 0
2, 51191, Note_on_c, 0, 53, 41
2, 51192, Note_on_c, 0, 62, 46
2, 51198, Note_on_c, 0, 58, 17
2, 51199, Note_on_c, 0, 65, 26
2, 51229, Control_c, 0, 64, 127
2, 51284, Note_on_c, 0, 53, 0
2, 51301, Note_on_c, 0, 53, 44
2, 51327, Note_on_c, 0, 65, 0
2, 51333, Note_on_c, 0, 70, 0
2, 51340, Note_on_c, 0, 62, 0
2, 51345, Note_on_c, 0, 58, 0
2, 51373, Note_on_c, 0, 69, 68
2, 51373, Note_on_c, 0, 58, 51
2, 51375, Note_on_c, 0, 62, 65
2, 51442, Note_on_c, 0, 53, 0
2, 51457, Note_on_c, 0, 69, 0
2, 51471, Note_on_c, 0, 58, 0
2, 51487, Note_on_c, 0, 67, 63
2, 51501, Note_on_c, 0, 62, 0
2, 51541, Note_on_c, 0, 67, 0
2, 51561, Note_on_c, 0, 69, 71
2, 51562, Note_on_c, 0, 58, 56
2, 51563, Note_on_c, 0, 62, 56
2, 51566, Note_on_c, 0, 65, 53
2, 51571, Control_c, 0, 64, 0
2, 51585, Control_c, 0, 64, 127
2, 51673, Note_on_c, 0, 58, 0
2, 51673, Note_on_c, 0, 53, 60
2, 51768, Note_on_c, 0, 69, 0
2, 51797, Note_on_c, 0, 65, 0
2, 51798, Note_on_c, 0, 53, 0
2, 51819, Note_on_c, 0, 58, 45
2, 51832, Note_on_c, 0, 62, 0
2, 51852, Note_on_c, 0, 58, 0
2, 51871, Note_on_c, 0, 70, 59
2, 51904, Note_on_c, 0, 70, 0
2, 51933, Note_on_c, 0, 70, 55
2, 51934, Note_on_c, 0, 51, 48
2, 51940, Control_c, 0, 64, 0
2, 51985, Control_c, 0, 64, 127
2, 52204, Note_on_c, 0, 66, 37
2, 52205, Note_on_c, 0, 63, 35
2, 52210, Note_on_c, 0, 60, 33
2, 52227, Note_on_c, 0, 60, 0
2, 52244, Note_on_c, 0, 63, 0
2, 52257, Note_on_c, 0, 66, 0
2, 52291, Note_on_c, 0, 66, 35
2, 52293, Note_on_c, 0, 63, 33
2, 52295, Note_on_c, 0, 60, 29
2, 52300, Note_on_c, 0, 58, 18
2, 52370, Note_on_c, 0, 51, 0
2, 52371, Note_on_c, 0, 70, 0
2, 52393, Note_on_c, 0, 70, 68
2, 52395, Note_on_c, 0, 51, 37
2, 52454, Note_on_c, 0, 58, 0
2, 52469, Note_on_c, 0, 66, 0
2, 52476, Note_on_c, 0, 60, 0
2, 52479, Note_on_c, 0, 63, 0
2, 52525, Note_on_c, 0, 70, 0
2, 52549, Note_on_c, 0, 70, 63
2, 52578, Note_on_c, 0, 51, 0
2, 52607, Note_on_c, 0, 70, 0
2, 52636, Note_on_c, 0, 70, 48
2, 52642, Note_on_c, 0, 62, 53
2, 52642, Note_on_c, 0, 50, 44
2, 52644, Note_on_c, 0, 58, 29
2, 52650, Control_c, 0, 64, 0
2, 52699, Control_c, 0, 64, 127
2, 52851, Note_on_c, 0, 62, 0
2, 52858, Note_on_c, 0, 58, 0
2, 52861, Note_on_c, 0, 70, 0
2, 52891, Note_on_c, 0, 69, 54
2, 52927, Note_on_c, 0, 69, 0
2, 52932, Note_on_c, 0, 67, 52
2, 52980, Note_on_c, 0, 67, 0
2, 52993, Note_on_c, 0, 62, 60
2, 52993, Note_on_c, 0, 67, 37
2, 52993, Note_on_c, 0, 69, 63
2, 52996, Note_on_c, 0, 58, 29
2, 52998, Control_c, 0, 64, 0
2, 53024, Control_c, 0, 64, 127
2, 53048, Note_on_c, 0, 50, 0
2, 53091, Note_on_c, 0, 69, 0
2, 53103, Note_on_c, 0, 70, 74
2, 53103, Note_on_c, 0, 50, 54
2, 53188, Note_on_c, 0, 70, 0
2, 53206, Note_on_c, 0, 50, 0
2, 53216, Note_on_c, 0, 58, 0
2, 53216, Note_on_c, 0, 70, 74
2, 53227, Note_on_c, 0, 67, 0
2, 53260, Note_on_c, 0, 70, 0
2, 53263, Note_on_c, 0, 62, 0
2, 53273, Note_on_c, 0, 70, 67
2, 53311, Note_on_c, 0, 70, 0
2, 53336, Note_on_c, 0, 70, 69
2, 53340, Note_on_c, 0, 67, 73
2, 53341, Note_on_c, 0, 48, 51
2, 53341, Note_on_c, 0, 63, 58
2, 53346, Note_on_c, 0, 58, 36
2, 53347, Note_on_c, 0, 62, 58
2, 53347, Control_c, 0, 64, 0
2, 53393, Control_c, 0, 64, 127
2, 53442, Note_on_c, 0, 58, 0
2, 53448, Note_on_c, 0, 55, 60
2, 53479, Note_on_c, 0, 67, 0
2, 53485, Note_on_c, 0, 70, 0
2, 53486, Note_on_c, 0, 63, 0
2, 53498, Note_on_c, 0, 62, 0
2, 53513, Note_on_c, 0, 55, 0
2, 53562, Note_on_c, 0, 48, 0
2, 53570, Note_on_c, 0, 63, 72
2, 53601, Note_on_c, 0, 63, 0
2, 53622, Note_on_c, 0, 63, 74
2, 53661, Note_on_c, 0, 63, 0
2, 53685, Note_on_c, 0, 63, 63
2, 53687, Note_on_c, 0, 60, 66
2, 53690, Note_on_c, 0, 46, 44
2, 53691, Note_on_c, 0, 55, 56
2, 53694, Control_c, 0, 64, 0
2, 53718, Control_c, 0, 64, 127
2, 53763, Note_on_c, 0, 46, 0
2, 53788, Note_on_c, 0, 55, 0
2, 53799, Note_on_c, 0, 46, 40
2, 53808, Note_on_c, 0, 60, 0
2, 53817, Note_on_c, 0, 63, 0
2, 53868, Note_on_c, 0, 55, 36
2, 53932, Note_on_c, 0, 46, 0
2, 53980, Note_on_c, 0, 46, 37
2, 54001, Note_on_c, 0, 55, 0
2, 54022, Note_on_c, 0, 46, 0
2, 54046, Note_on_c, 0, 63, 34
2, 54048, Note_on_c, 0, 45, 42
2, 54048, Note_on_c, 0, 72, 35
2, 54049, Note_on_c, 0, 67, 48
2, 54051, Control_c, 0, 64, 0
2, 54051, Note_on_c, 0, 55, 29
2, 54069, Control_c, 0, 64, 127
2, 54084, Note_on_c, 0, 63, 0
2, 54088, Note_on_c, 0, 67, 0
2, 54094, Note_on_c, 0, 72, 0
2, 54152, Note_on_c, 0, 55, 0
2, 54162, Note_on_c, 0, 86, 77
2, 54163, Note_on_c, 0, 45, 0
2, 54206, Note_on_c, 0, 86, 0
2, 54221, Note_on_c, 0, 74, 56
2, 54315, Note_on_c, 0, 38, 46
2, 54323, Note_on_c, 0, 38, 0
2, 54369, Note_on_c, 0, 74, 0
2, 54387, Note_on_c, 0, 60, 48
2, 54388, Note_on_c, 0, 54, 47
2, 54388, Note_on_c, 0, 65, 57
2, 54393, Note_on_c, 0, 58, 48
2, 54494, Note_on_c, 0, 89, 95
2, 54552, Note_on_c, 0, 65, 0
2, 54556, Note_on_c, 0, 60, 0
2, 54572, Note_on_c, 0, 58, 0
2, 54574, Note_on_c, 0, 54, 0
2, 54604, Note_on_c, 0, 89, 0
2, 54617, Note_on_c, 0, 87, 59
2, 54651, Note_on_c, 0, 87, 0
2, 54667, Note_on_c, 0, 86, 71
2, 54712, Note_on_c, 0, 86, 0
2, 54721, Note_on_c, 0, 81, 37
2, 54722, Note_on_c, 0, 50, 35
2, 54723, Note_on_c, 0, 43, 41
2, 54727, Control_c, 0, 64, 0
2, 54755, Control_c, 0, 64, 127
2, 54770, Note_on_c, 0, 84, 68
2, 54771, Note_on_c, 0, 81, 0
2, 54772, Note_on_c, 0, 43, 0
2, 54783, Note_on_c, 0, 50, 0
2, 54812, Note_on_c, 0, 84, 0
2, 54820, Note_on_c, 0, 82, 50
2, 54859, Note_on_c, 0, 82, 0
2, 54888, Note_on_c, 0, 79, 45
2, 54891, Note_on_c, 0, 62, 33
2, 54892, Note_on_c, 0, 57, 35
2, 54895, Note_on_c, 0, 58, 31
2, 55008, Note_on_c, 0, 62, 0
2, 55012, Note_on_c, 0, 57, 0
2, 55018, Note_on_c, 0, 58, 0
2, 55066, Note_on_c, 0, 62, 37
2, 55068, Note_on_c, 0, 55, 46
2, 55069, Note_on_c, 0, 58, 33
2, 55146, Note_on_c, 0, 79, 0
2, 55147, Note_on_c, 0, 62, 0
2, 55161, Note_on_c, 0, 55, 0
2, 55175, Note_on_c, 0, 58, 0
2, 55227, Note_on_c, 0, 54, 46
2, 55230, Note_on_c, 0, 62, 36
2, 55231, Note_on_c, 0, 58, 44
2, 55240, Control_c, 0, 64, 0
2, 55260, Control_c, 0, 64, 127
2, 55276, Note_on_c, 0, 62, 0
2, 55284, Note_on_c, 0, 58, 0
2, 55289, Note_on_c, 0, 54, 0
2, 55343, Note_on_c, 0, 90, 59
2, 55344, Note_on_c, 0, 78, 52
2, 55349, Note_on_c, 0, 50, 38
2, 55378, Note_on_c, 0, 78, 0
2, 55379, Note_on_c, 0, 90, 0
2, 55389, Note_on_c, 0, 50, 0
2, 55399, Control_c, 0, 64, 0
2, 55404, Note_on_c, 0, 43, 47
2, 55405, Note_on_c, 0, 53, 46
2, 55405, Note_on_c, 0, 79, 50
2, 55405, Note_on_c, 0, 91, 58
2, 55417, Control_c, 0, 64, 127
2, 55426, Note_on_c, 0, 43, 0
2, 55442, Note_on_c, 0, 53, 0
2, 55470, Note_on_c, 0, 79, 0
2, 55473, Note_on_c, 0, 91, 0
2, 55516, Note_on_c, 0, 93, 83
2, 55518, Note_on_c, 0, 81, 64
2, 55519, Note_on_c, 0, 86, 68
2, 55526, Note_on_c, 0, 86, 0
2, 55556, Note_on_c, 0, 93, 0
2, 55557, Note_on_c, 0, 81, 0
2, 55574, Note_on_c, 0, 62, 36
2, 55575, Note_on_c, 0, 55, 37
2, 55576, Note_on_c, 0, 53, 35
2, 55580, Note_on_c, 0, 58, 40
2, 55582, Note_on_c, 0, 91, 59
2, 55584, Note_on_c, 0, 79, 40
2, 55587, Note_on_c, 0, 86, 48
2, 55628, Note_on_c, 0, 62, 0
2, 55631, Note_on_c, 0, 86, 0
2, 55635, Note_on_c, 0, 58, 0
2, 55636, Note_on_c, 0, 55, 0
2, 55636, Note_on_c, 0, 53, 0
2, 55640, Note_on_c, 0, 91, 0
2, 55648, Note_on_c, 0, 79, 0
2, 55746, Note_on_c, 0, 48, 42
2, 55746, Note_on_c, 0, 58, 37
2, 55748, Control_c, 0, 64, 0
2, 55748, Note_on_c, 0, 89, 45
2, 55749, Note_on_c, 0, 77, 43
2, 55749, Note_on_c, 0, 86, 52
2, 55750, Note_on_c, 0, 82, 38
2, 55772, Control_c, 0, 64, 127
2, 55789, Note_on_c, 0, 48, 0
2, 55813, Note_on_c, 0, 89, 0
2, 55814, Note_on_c, 0, 58, 0
2, 55815, Note_on_c, 0, 86, 0
2, 55824, Note_on_c, 0, 82, 0
2, 55829, Note_on_c, 0, 77, 0
2, 55920, Note_on_c, 0, 79, 63
2, 55921, Note_on_c, 0, 76, 63
2, 55921, Note_on_c, 0, 73, 39
2, 55921, Note_on_c, 0, 67, 64
2, 55923, Note_on_c, 0, 58, 54
2, 55926, Note_on_c, 0, 64, 44
2, 55932, Control_c, 0, 64, 0
2, 55960, Control_c, 0, 64, 127
2, 56014, Note_on_c, 0, 64, 0
2, 56020, Note_on_c, 0, 67, 0
2, 56021, Note_on_c, 0, 79, 0
2, 56025, Note_on_c, 0, 58, 0
2, 56029, Note_on_c, 0, 73, 0
2, 56031, Note_on_c, 0, 76, 0
2, 56095, Note_on_c, 0, 73, 36
2, 56096, Note_on_c, 0, 81, 62
2, 56097, Note_on_c, 0, 61, 39
2, 56098, Note_on_c, 0, 53, 50
2, 56098, Note_on_c, 0, 76, 54
2, 56099, Note_on_c, 0, 69, 47
2, 56103, Control_c, 0, 64, 0
2, 56103, Note_on_c, 0, 64, 28
2, 56137, Control_c, 0, 64, 127
2, 56179, Note_on_c, 0, 81, 0
2, 56186, Note_on_c, 0, 76, 0
2, 56191, Note_on_c, 0, 69, 0
2, 56193, Note_on_c, 0, 73, 0
2, 56195, Note_on_c, 0, 64, 0
2, 56215, Note_on_c, 0, 61, 0
2, 56262, Note_on_c, 0, 76, 54
2, 56265, Note_on_c, 0, 73, 28
2, 56267, Note_on_c, 0, 61, 34
2, 56269, Note_on_c, 0, 65, 27
2, 56273, Note_on_c, 0, 69, 27
2, 56275, Control_c, 0, 64, 0
2, 56305, Control_c, 0, 64, 127
2, 56330, Note_on_c, 0, 65, 0
2, 56366, Note_on_c, 0, 69, 0
2, 56369, Note_on_c, 0, 73, 0
2, 56385, Note_on_c, 0, 76, 0
2, 56428, Note_on_c, 0, 61, 0
2, 56433, Note_on_c, 0, 76, 36
2, 56433, Note_on_c, 0, 62, 47
2, 56436, Note_on_c, 0, 67, 26
2, 56438, Control_c, 0, 64, 0
2, 56438, Note_on_c, 0, 72, 30
2, 56438, Note_on_c, 0, 69, 36
2, 56480, Control_c, 0, 64, 127
2, 56509, Note_on_c, 0, 67, 0
2, 56513, Note_on_c, 0, 62, 0
2, 56514, Note_on_c, 0, 76, 0
2, 56515, Note_on_c, 0, 69, 0
2, 56517, Note_on_c, 0, 72, 0
2, 56547, Note_on_c, 0, 74, 59
2, 56550, Note_on_c, 0, 69, 57
2, 56550, Note_on_c, 0, 64, 44
2, 56553, Note_on_c, 0, 58, 32
2, 56560, Control_c, 0, 64, 0
2, 56578, Control_c, 0, 64, 127
2, 56585, Note_on_c, 0, 74, 0
2, 56592, Note_on_c, 0, 69, 0
2, 56608, Note_on_c, 0, 64, 0
2, 56622, Note_on_c, 0, 58, 0
2, 56625, Note_on_c, 0, 53, 0
2, 56625, Note_on_c, 0, 72, 36
2, 56628, Note_on_c, 0, 62, 42
2, 56628, Note_on_c, 0, 67, 46
2, 56629, Control_c, 0, 64, 0
2, 56630, Note_on_c, 0, 57, 40
2, 56659, Control_c, 0, 64, 127
2, 56677, Note_on_c, 0, 72, 0
2, 56679, Note_on_c, 0, 67, 0
2, 56691, Note_on_c, 0, 62, 0
2, 56711, Note_on_c, 0, 57, 0
2, 56728, Note_on_c, 0, 52, 45
2, 56731, Note_on_c, 0, 64, 34
2, 56742, Note_on_c, 0, 57, 11
2, 56769, Note_on_c, 0, 57, 0
2, 56788, Note_on_c, 0, 64, 0
2, 56794, Note_on_c, 0, 52, 0
2, 56798, Note_on_c, 0, 57, 51
2, 56798, Note_on_c, 0, 67, 48
2, 56798, Note_on_c, 0, 64, 31
2, 56799, Control_c, 0, 64, 0
2, 56802, Note_on_c, 0, 55, 39
2, 56803, Note_on_c, 0, 60, 45
2, 56837, Control_c, 0, 64, 127
2, 56870, Note_on_c, 0, 55, 0
2, 56870, Note_on_c, 0, 64, 0
2, 56872, Note_on_c, 0, 60, 0
2, 56872, Note_on_c, 0, 67, 0
2, 56878, Note_on_c, 0, 57, 0
2, 56905, Note_on_c, 0, 65, 46
2, 56905, Note_on_c, 0, 57, 40
2, 56908, Note_on_c, 0, 60, 60
2, 56926, Control_c, 0, 64, 0
2, 56956, Control_c, 0, 64, 127
2, 56961, Note_on_c, 0, 60, 0
2, 56961, Note_on_c, 0, 65, 0
2, 56971, Note_on_c, 0, 57, 0
2, 57022, Control_c, 0, 64, 0
2, 57025, Note_on_c, 0, 55, 44
2, 57026, Note_on_c, 0, 52, 35
2, 57026, Note_on_c, 0, 64, 41
2, 57027, Note_on_c, 0, 57, 45
2, 57027, Note_on_c, 0, 60, 51
2, 57067, Control_c, 0, 64, 127
2, 57098, Note_on_c, 0, 55, 0
2, 57100, Note_on_c, 0, 57, 0
2, 57100, Note_on_c, 0, 60, 0
2, 57121, Note_on_c, 0, 52, 0
2, 57124, Note_on_c, 0, 64, 0
2, 57140, Note_on_c, 0, 60, 53
2, 57142, Note_on_c, 0, 48, 34
2, 57143, Note_on_c, 0, 57, 39
2, 57144, Note_on_c, 0, 55, 25
2, 57147, Control_c, 0, 64, 0
2, 57171, Control_c, 0, 64, 127
2, 57215, Note_on_c, 0, 55, 0
2, 57239, Note_on_c, 0, 57, 0
2, 57239, Note_on_c, 0, 48, 0
2, 57246, Note_on_c, 0, 60, 0
2, 57255, Note_on_c, 0, 45, 32
2, 57294, Note_on_c, 0, 45, 0
2, 57317, Note_on_c, 0, 55, 48
2, 57318, Note_on_c, 0, 64, 46
2, 57319, Note_on_c, 0, 57, 50
2, 57319, Note_on_c, 0, 60, 51
2, 57323, Control_c, 0, 64, 0
2, 57363, Control_c, 0, 64, 127
2, 57377, Note_on_c, 0, 41, 34
2, 57404, Note_on_c, 0, 41, 0
2, 57416, Note_on_c, 0, 55, 0
2, 57418, Note_on_c, 0, 60, 0
2, 57419, Note_on_c, 0, 57, 0
2, 57421, Note_on_c, 0, 64, 0
2, 57433, Note_on_c, 0, 47, 37
2, 57488, Note_on_c, 0, 47, 0
2, 57493, Note_on_c, 0, 58, 29
2, 57494, Control_c, 0, 64, 0
2, 57494, Note_on_c, 0, 67, 35
2, 57494, Note_on_c, 0, 48, 41
2, 57496, Note_on_c, 0, 63, 31
2, 57532, Control_c, 0, 64, 127
2, 57553, Note_on_c, 0, 36, 40
2, 57563, Note_on_c, 0, 58, 0
2, 57571, Note_on_c, 0, 36, 0
2, 57580, Note_on_c, 0, 67, 0
2, 57582, Note_on_c, 0, 48, 0
2, 57582, Note_on_c, 0, 63, 0
2, 57674, Note_on_c, 0, 74, 76
2, 57730, Note_on_c, 0, 53, 48
2, 57733, Note_on_c, 0, 63, 33
2, 57735, Note_on_c, 0, 70, 36
2, 57737, Note_on_c, 0, 67, 49
2, 57742, Control_c, 0, 64, 0
2, 57758, Control_c, 0, 64, 127
2, 57768, Note_on_c, 0, 63, 0
2, 57771, Note_on_c, 0, 67, 0
2, 57781, Note_on_c, 0, 70, 0
2, 57782, Note_on_c, 0, 74, 0
2, 57843, Note_on_c, 0, 77, 62
2, 57849, Note_on_c, 0, 65, 35
2, 57871, Note_on_c, 0, 77, 0
2, 57879, Note_on_c, 0, 53, 0
2, 57888, Note_on_c, 0, 65, 0
2, 57903, Note_on_c, 0, 53, 47
2, 58002, Note_on_c, 0, 53, 0
2, 58010, Note_on_c, 0, 66, 49
2, 58010, Note_on_c, 0, 63, 38
2, 58022, Note_on_c, 0, 63, 0
2, 58045, Note_on_c, 0, 66, 0
2, 58066, Note_on_c, 0, 53, 40
2, 58169, Note_on_c, 0, 74, 83
2, 58170, Note_on_c, 0, 81, 74
2, 58175, Note_on_c, 0, 63, 36
2, 58200, Note_on_c, 0, 53, 0
2, 58222, Note_on_c, 0, 63, 0
2, 58229, Note_on_c, 0, 74, 0
2, 58231, Note_on_c, 0, 81, 0
2, 58236, Note_on_c, 0, 78, 39
2, 58240, Note_on_c, 0, 69, 52
2, 58241, Note_on_c, 0, 74, 24
2, 58245, Note_on_c, 0, 53, 41
2, 58264, Note_on_c, 0, 74, 0
2, 58269, Note_on_c, 0, 78, 0
2, 58278, Note_on_c, 0, 53, 0
2, 58298, Note_on_c, 0, 69, 0
2, 58350, Note_on_c, 0, 53, 53
2, 58352, Note_on_c, 0, 66, 27
2, 58352, Note_on_c, 0, 69, 46
2, 58376, Note_on_c, 0, 66, 0
2, 58397, Note_on_c, 0, 69, 0
2, 58409, Note_on_c, 0, 63, 38
2, 58470, Note_on_c, 0, 53, 0
2, 58474, Note_on_c, 0, 63, 0
2, 58493, Note_on_c, 0, 53, 50
2, 58588, Note_on_c, 0, 86, 80
2, 58589, Note_on_c, 0, 78, 53
2, 58594, Note_on_c, 0, 82, 31
2, 58595, Note_on_c, 0, 61, 28
2, 58597, Note_on_c, 0, 64, 28
2, 58601, Note_on_c, 0, 82, 0
2, 58628, Note_on_c, 0, 78, 0
2, 58639, Note_on_c, 0, 86, 0
2, 58647, Note_on_c, 0, 53, 0
2, 58648, Note_on_c, 0, 74, 49
2, 58649, Note_on_c, 0, 81, 50
2, 58672, Note_on_c, 0, 78, 1
2, 58703, Note_on_c, 0, 74, 0
2, 58708, Note_on_c, 0, 53, 48
2, 58713, Note_on_c, 0, 78, 0
2, 58717, Note_on_c, 0, 81, 0
2, 58717, Note_on_c, 0, 64, 0
2, 58729, Note_on_c, 0, 61, 0
2, 58800, Note_on_c, 0, 53, 0
2, 58811, Note_on_c, 0, 53, 25
2, 58817, Note_on_c, 0, 89, 79
2, 58872, Note_on_c, 0, 89, 0
2, 58920, Note_on_c, 0, 53, 0
2, 59052, Note_on_c, 0, 66, 42
2, 59055, Note_on_c, 0, 62, 43
2, 59055, Note_on_c, 0, 57, 41
2, 59057, Note_on_c, 0, 46, 31
2, 59061, Control_c, 0, 64, 0
2, 59091, Control_c, 0, 64, 127
2, 59093, Note_on_c, 0, 46, 0
2, 59113, Note_on_c, 0, 57, 0
2, 59117, Note_on_c, 0, 46, 38
2, 59125, Note_on_c, 0, 62, 0
2, 59134, Note_on_c, 0, 66, 0
2, 59217, Note_on_c, 0, 74, 80
2, 59218, Note_on_c, 0, 57, 57
2, 59220, Note_on_c, 0, 66, 77
2, 59231, Control_c, 0, 64, 0
2, 59247, Control_c, 0, 64, 127
2, 59255, Note_on_c, 0, 57, 0
2, 59255, Note_on_c, 0, 74, 0
2, 59262, Note_on_c, 0, 66, 0
2, 59269, Note_on_c, 0, 54, 28
2, 59320, Note_on_c, 0, 54, 0
2, 59327, Note_on_c, 0, 69, 63
2, 59327, Note_on_c, 0, 62, 60
2, 59329, Note_on_c, 0, 66, 51
2, 59330, Note_on_c, 0, 57, 46
2, 59333, Control_c, 0, 64, 0
2, 59373, Control_c, 0, 64, 127
2, 59399, Note_on_c, 0, 46, 0
2, 59436, Note_on_c, 0, 62, 0
2, 59444, Note_on_c, 0, 66, 0
2, 59452, Note_on_c, 0, 57, 0
2, 59461, Note_on_c, 0, 46, 21
2, 59474, Note_on_c, 0, 46, 0
2, 59496, Note_on_c, 0, 62, 57
2, 59497, Note_on_c, 0, 65, 65
2, 59507, Note_on_c, 0, 69, 0
2, 59617, Note_on_c, 0, 65, 0
2, 59621, Note_on_c, 0, 46, 46
2, 59627, Note_on_c, 0, 62, 0
2, 59638, Note_on_c, 0, 46, 0
2, 59670, Note_on_c, 0, 45, 64
2, 59702, Control_c, 0, 64, 0
2, 59728, Note_on_c, 0, 60, 75
2, 59730, Note_on_c, 0, 51, 53
2, 59750, Control_c, 0, 64, 127
2, 59782, Note_on_c, 0, 55, 74
2, 59784, Note_on_c, 0, 51, 0
2, 59790, Note_on_c, 0, 45, 0
2, 59792, Note_on_c, 0, 60, 0
2, 59893, Note_on_c, 0, 55, 0
2, 59897, Note_on_c, 0, 54, 60
2, 59901, Note_on_c, 0, 38, 51
2, 59907, Control_c, 0, 64, 0
2, 59955, Note_on_c, 0, 60, 73
2, 59958, Note_on_c, 0, 54, 0
2, 59996, Note_on_c, 0, 60, 0
2, 60004, Note_on_c, 0, 57, 47
2, 60009, Control_c, 0, 64, 127
2, 60033, Note_on_c, 0, 57, 0
2, 60042, Note_on_c, 0, 58, 67
2, 60047, Control_c, 0, 64, 0
2, 60058, Note_on_c, 0, 58, 0
2, 60080, Note_on_c, 0, 62, 70
2, 60083, Note_on_c, 0, 38, 0
2, 60115, Note_on_c, 0, 62, 0
2, 60115, Note_on_c, 0, 66, 77
2, 60140, Note_on_c, 0, 66, 0
2, 60150, Note_on_c, 0, 69, 85
2, 60158, Control_c, 0, 64, 127
2, 60182, Note_on_c, 0, 69, 0
2, 60190, Note_on_c, 0, 66, 64
2, 60210, Note_on_c, 0, 66, 0
2, 60220, Control_c, 0, 64, 0
2, 60224, Note_on_c, 0, 67, 66
2, 60226, Note_on_c, 0, 43, 46
2, 60227, Note_on_c, 0, 50, 31
2, 60251, Note_on_c, 0, 43, 0
2, 60254, Control_c, 0, 64, 127
2, 60262, Note_on_c, 0, 50, 0
2, 60262, Note_on_c, 0, 69, 71
2, 60269, Note_on_c, 0, 67, 0
2, 60289, Note_on_c, 0, 69, 0
2, 60300, Note_on_c, 0, 70, 62
2, 60314, Note_on_c, 0, 70, 0
2, 60337, Note_on_c, 0, 74, 57
2, 60363, Note_on_c, 0, 74, 0
2, 60381, Note_on_c, 0, 78, 42
2, 60384, Note_on_c, 0, 62, 35
2, 60387, Note_on_c, 0, 55, 34
2, 60389, Note_on_c, 0, 58, 28
2, 60390, Control_c, 0, 64, 0
2, 60418, Control_c, 0, 64, 127
2, 60422, Note_on_c, 0, 78, 0
2, 60435, Note_on_c, 0, 81, 49
2, 60458, Note_on_c, 0, 81, 0
2, 60473, Note_on_c, 0, 74, 47
2, 60473, Note_on_c, 0, 86, 55
2, 60474, Note_on_c, 0, 62, 0
2, 60492, Note_on_c, 0, 58, 0
2, 60498, Note_on_c, 0, 74, 0
2, 60507, Note_on_c, 0, 86, 0
2, 60541, Note_on_c, 0, 62, 34
2, 60546, Note_on_c, 0, 58, 23
2, 60604, Note_on_c, 0, 91, 61
2, 60605, Note_on_c, 0, 79, 56
2, 60624, Note_on_c, 0, 79, 0
2, 60630, Note_on_c, 0, 91, 0
2, 60684, Note_on_c, 0, 55, 0
2, 60689, Note_on_c, 0, 62, 0
2, 60713, Note_on_c, 0, 62, 53
2, 60714, Note_on_c, 0, 54, 39
2, 60717, Note_on_c, 0, 91, 65
2, 60720, Note_on_c, 0, 79, 51
2, 60725, Control_c, 0, 64, 0
2, 60745, Control_c, 0, 64, 127
2, 60776, Note_on_c, 0, 91, 0
2, 60787, Note_on_c, 0, 79, 0
2, 60808, Note_on_c, 0, 54, 0
2, 60823, Note_on_c, 0, 54, 39
2, 60825, Note_on_c, 0, 90, 67
2, 60827, Note_on_c, 0, 78, 56
2, 60853, Note_on_c, 0, 62, 0
2, 60862, Note_on_c, 0, 78, 0
2, 60865, Note_on_c, 0, 90, 0
2, 60869, Note_on_c, 0, 54, 0
2, 60887, Note_on_c, 0, 53, 55
2, 60888, Note_on_c, 0, 62, 49
2, 60890, Note_on_c, 0, 86, 67
2, 60890, Note_on_c, 0, 79, 50
2, 60891, Note_on_c, 0, 91, 55
2, 60894, Control_c, 0, 64, 0
2, 60926, Control_c, 0, 64, 127
2, 60966, Note_on_c, 0, 79, 0
2, 60967, Note_on_c, 0, 91, 0
2, 60972, Note_on_c, 0, 86, 0
2, 60977, Note_on_c, 0, 62, 0
2, 60985, Note_on_c, 0, 53, 0
2, 60988, Note_on_c, 0, 58, 0
2, 61001, Note_on_c, 0, 53, 48
2, 61002, Note_on_c, 0, 58, 38
2, 61002, Note_on_c, 0, 62, 62
2, 61003, Note_on_c, 0, 93, 85
2, 61004, Note_on_c, 0, 86, 84
2, 61005, Note_on_c, 0, 81, 67
2, 61042, Note_on_c, 0, 93, 0
2, 61044, Note_on_c, 0, 62, 0
2, 61044, Note_on_c, 0, 53, 0
2, 61046, Note_on_c, 0, 81, 0
2, 61048, Note_on_c, 0, 86, 0
2, 61052, Note_on_c, 0, 58, 0
2, 61064, Note_on_c, 0, 53, 60
2, 61066, Note_on_c, 0, 58, 38
2, 61067, Note_on_c, 0, 62, 52
2, 61068, Note_on_c, 0, 91, 68
2, 61069, Note_on_c, 0, 86, 71
2, 61071, Note_on_c, 0, 79, 49
2, 61121, Note_on_c, 0, 86, 0
2, 61122, Note_on_c, 0, 91, 0
2, 61130, Note_on_c, 0, 53, 0
2, 61135, Note_on_c, 0, 79, 0
2, 61136, Note_on_c, 0, 62, 0
2, 61147, Note_on_c, 0, 58, 0
2, 61229, Control_c, 0, 64, 0
2, 61240, Note_on_c, 0, 77, 57
2, 61240, Note_on_c, 0, 89, 59
2, 61240, Note_on_c, 0, 82, 48
2, 61241, Note_on_c, 0, 58, 50
2, 61241, Note_on_c, 0, 86, 61
2, 61242, Note_on_c, 0, 62, 58
2, 61242, Note_on_c, 0, 52, 60
2, 61260, Note_on_c, 0, 62, 0
2, 61265, Control_c, 0, 64, 127
2, 61270, Note_on_c, 0, 58, 0
2, 61274, Note_on_c, 0, 52, 0
2, 61285, Note_on_c, 0, 89, 0
2, 61286, Note_on_c, 0, 86, 0
2, 61293, Note_on_c, 0, 82, 0
2, 61296, Note_on_c, 0, 77, 0
2, 61317, Control_c, 0, 64, 0
2, 61352, Note_on_c, 0, 36, 68
2, 61363, Control_c, 0, 64, 127
2, 61368, Note_on_c, 0, 36, 0
2, 61423, Note_on_c, 0, 64, 58
2, 61424, Note_on_c, 0, 61, 52
2, 61425, Note_on_c, 0, 58, 63
2, 61425, Control_c, 0, 64, 0
2, 61426, Note_on_c, 0, 55, 66
2, 61429, Note_on_c, 0, 52, 55
2, 61459, Control_c, 0, 64, 127
2, 61548, Note_on_c, 0, 55, 0
2, 61551, Note_on_c, 0, 41, 51
2, 61552, Note_on_c, 0, 64, 0
2, 61558, Note_on_c, 0, 61, 0
2, 61560, Note_on_c, 0, 58, 0
2, 61596, Note_on_c, 0, 52, 0
2, 61600, Note_on_c, 0, 41, 0
2, 61711, Note_on_c, 0, 69, 74
2, 61712, Note_on_c, 0, 62, 75
2, 61712, Note_on_c, 0, 64, 72
2, 61713, Note_on_c, 0, 57, 78
2, 61714, Note_on_c, 0, 41, 57
2, 61715, Note_on_c, 0, 52, 59
2, 61718, Control_c, 0, 64, 0
2, 61720, Note_on_c, 0, 67, 36
2, 61754, Control_c, 0, 64, 127
2, 61758, Note_on_c, 0, 69, 0
2, 61759, Note_on_c, 0, 64, 0
2, 61761, Note_on_c, 0, 67, 0
2, 61762, Note_on_c, 0, 62, 0
2, 61770, Note_on_c, 0, 52, 0
2, 61774, Note_on_c, 0, 57, 0
2, 61827, Note_on_c, 0, 64, 57
2, 61827, Note_on_c, 0, 55, 60
2, 61830, Note_on_c, 0, 49, 52
2, 61830, Note_on_c, 0, 60, 62
2, 61830, Note_on_c, 0, 57, 54
2, 61834, Control_c, 0, 64, 0
2, 61874, Control_c, 0, 64, 127
2, 61877, Note_on_c, 0, 57, 0
2, 61877, Note_on_c, 0, 55, 0
2, 61882, Note_on_c, 0, 60, 0
2, 61906, Note_on_c, 0, 64, 0
2, 61918, Note_on_c, 0, 49, 0
2, 61921, Note_on_c, 0, 41, 0
2, 61959, Note_on_c, 0, 64, 46
2, 61959, Note_on_c, 0, 56, 39
2, 61959, Note_on_c, 0, 52, 47
2, 61960, Note_on_c, 0, 59, 57
2, 61961, Note_on_c, 0, 41, 35
2, 61965, Note_on_c, 0, 48, 29
2, 61969, Control_c, 0, 64, 0
2, 62041, Control_c, 0, 64, 127
2, 62069, Note_on_c, 0, 48, 0
2, 62081, Note_on_c, 0, 59, 0
2, 62082, Note_on_c, 0, 56, 0
2, 62087, Note_on_c, 0, 52, 0
2, 62138, Note_on_c, 0, 56, 35
2, 62138, Note_on_c, 0, 48, 25
2, 62139, Note_on_c, 0, 52, 47
2, 62141, Note_on_c, 0, 59, 41
2, 62170, Note_on_c, 0, 52, 0
2, 62174, Note_on_c, 0, 59, 0
2, 62204, Note_on_c, 0, 56, 0
2, 62247, Note_on_c, 0, 64, 0
2, 62254, Note_on_c, 0, 48, 0
2, 62258, Control_c, 0, 64, 0
2, 62259, Note_on_c, 0, 60, 45
2, 62260, Note_on_c, 0, 57, 43
2, 62261, Note_on_c, 0, 55, 40
2, 62263, Note_on_c, 0, 52, 30
2, 62288, Control_c, 0, 64, 127
2, 62301, Note_on_c, 0, 55, 0
2, 62308, Note_on_c, 0, 41, 0
2, 62309, Note_on_c, 0, 57, 0
2, 62313, Note_on_c, 0, 60, 0
2, 62320, Note_on_c, 0, 52, 0
2, 62379, Note_on_c, 0, 74, 66
2, 62380, Note_on_c, 0, 58, 35
2, 62381, Note_on_c, 0, 68, 55
2, 62381, Note_on_c, 0, 64, 55
2, 62384, Control_c, 0, 64, 0
2, 62394, Control_c, 0, 64, 127
2, 62415, Note_on_c, 0, 74, 0
2, 62418, Note_on_c, 0, 64, 0
2, 62420, Note_on_c, 0, 68, 0
2, 62422, Note_on_c, 0, 58, 0
2, 62436, Control_c, 0, 64, 0
2, 62437, Note_on_c, 0, 72, 49
2, 62438, Note_on_c, 0, 67, 56
2, 62443, Note_on_c, 0, 57, 53
2, 62443, Note_on_c, 0, 62, 22
2, 62456, Note_on_c, 0, 62, 0
2, 62460, Control_c, 0, 64, 127
2, 62461, Note_on_c, 0, 57, 0
2, 62464, Note_on_c, 0, 67, 0
2, 62467, Note_on_c, 0, 72, 0
2, 62504, Control_c, 0, 64, 0
2, 62506, Note_on_c, 0, 76, 61
2, 62511, Note_on_c, 0, 67, 37
2, 62513, Note_on_c, 0, 69, 43
2, 62516, Note_on_c, 0, 72, 30
2, 62516, Control_c, 0, 64, 127
2, 62519, Note_on_c, 0, 60, 30
2, 62527, Note_on_c, 0, 67, 0
2, 62528, Note_on_c, 0, 69, 0
2, 62535, Note_on_c, 0, 72, 0
2, 62539, Note_on_c, 0, 76, 0
2, 62554, Note_on_c, 0, 60, 0
2, 62558, Note_on_c, 0, 79, 69
2, 62559, Note_on_c, 0, 69, 67
2, 62560, Note_on_c, 0, 72, 57
2, 62560, Note_on_c, 0, 76, 48
2, 62564, Note_on_c, 0, 64, 65
2, 62566, Control_c, 0, 64, 0
2, 62601, Control_c, 0, 64, 127
2, 62635, Note_on_c, 0, 79, 0
2, 62645, Note_on_c, 0, 72, 0
2, 62649, Note_on_c, 0, 69, 0
2, 62651, Note_on_c, 0, 76, 0
2, 62661, Note_on_c, 0, 64, 0
2, 62670, Note_on_c, 0, 77, 54
2, 62671, Control_c, 0, 64, 0
2, 62672, Note_on_c, 0, 69, 40
2, 62676, Note_on_c, 0, 62, 44
2, 62676, Note_on_c, 0, 72, 40
2, 62685, Control_c, 0, 64, 127
2, 62705, Note_on_c, 0, 72, 0
2, 62708, Note_on_c, 0, 77, 0
2, 62712, Note_on_c, 0, 69, 0
2, 62762, Note_on_c, 0, 62, 0
2, 62767, Note_on_c, 0, 76, 57
2, 62771, Control_c, 0, 64, 0
2, 62771, Note_on_c, 0, 65, 41
2, 62774, Note_on_c, 0, 60, 45
2, 62775, Note_on_c, 0, 72, 33
2, 62779, Control_c, 0, 64, 127
2, 62780, Note_on_c, 0, 69, 25
2, 62800, Note_on_c, 0, 69, 0
2, 62802, Note_on_c, 0, 76, 0
2, 62802, Note_on_c, 0, 72, 0
2, 62806, Note_on_c, 0, 65, 0
2, 62832, Note_on_c, 0, 60, 0
2, 62836, Note_on_c, 0, 74, 49
2, 62840, Note_on_c, 0, 69, 46
2, 62841, Control_c, 0, 64, 0
2, 62844, Note_on_c, 0, 58, 33
2, 62846, Note_on_c, 0, 64, 22
2, 62855, Control_c, 0, 64, 127
2, 62862, Note_on_c, 0, 69, 0
2, 62865, Note_on_c, 0, 74, 0
2, 62869, Note_on_c, 0, 64, 0
2, 62886, Note_on_c, 0, 58, 0
2, 62935, Note_on_c, 0, 72, 48
2, 62940, Note_on_c, 0, 67, 46
2, 62940, Note_on_c, 0, 57, 28
2, 62945, Note_on_c, 0, 62, 25
2, 62954, Note_on_c, 0, 62, 0
2, 62960, Note_on_c, 0, 57, 0
2, 62980, Note_on_c, 0, 67, 0
2, 62991, Note_on_c, 0, 72, 0
2, 63015, Note_on_c, 0, 71, 46
2, 63017, Note_on_c, 0, 48, 32
2, 63019, Note_on_c, 0, 58, 30
2, 63019, Note_on_c, 0, 67, 40
2, 63020, Control_c, 0, 64, 0
2, 63050, Control_c, 0, 64, 127
2, 63072, Note_on_c, 0, 67, 0
2, 63078, Note_on_c, 0, 71, 0
2, 63108, Note_on_c, 0, 58, 0
2, 63130, Note_on_c, 0, 67, 54
2, 63130, Note_on_c, 0, 58, 29
2, 63131, Note_on_c, 0, 63, 33
2, 63131, Note_on_c, 0, 70, 27
2, 63169, Note_on_c, 0, 63, 0
2, 63175, Note_on_c, 0, 67, 0
2, 63175, Note_on_c, 0, 70, 0
2, 63180, Note_on_c, 0, 58, 0
2, 63200, Note_on_c, 0, 70, 50
2, 63201, Note_on_c, 0, 58, 31
2, 63203, Note_on_c, 0, 63, 37
2, 63204, Control_c, 0, 64, 0
2, 63206, Note_on_c, 0, 67, 50
2, 63220, Control_c, 0, 64, 127
2, 63233, Note_on_c, 0, 58, 0
2, 63254, Note_on_c, 0, 67, 0
2, 63282, Note_on_c, 0, 63, 0
2, 63301, Note_on_c, 0, 70, 0
2, 63305, Note_on_c, 0, 67, 51
2, 63306, Note_on_c, 0, 63, 33
2, 63307, Note_on_c, 0, 58, 42
2, 63308, Note_on_c, 0, 55, 35
2, 63330, Note_on_c, 0, 55, 0
2, 63344, Note_on_c, 0, 63, 0
2, 63347, Note_on_c, 0, 58, 0
2, 63347, Note_on_c, 0, 67, 0
2, 63377, Note_on_c, 0, 67, 50
2, 63379, Note_on_c, 0, 63, 42
2, 63384, Note_on_c, 0, 58, 25
2, 63384, Note_on_c, 0, 55, 36
2, 63389, Control_c, 0, 64, 0
2, 63393, Control_c, 0, 64, 127
2, 63402, Note_on_c, 0, 55, 0
2, 63411, Note_on_c, 0, 48, 0
2, 63494, Note_on_c, 0, 29, 65
2, 63502, Note_on_c, 0, 41, 39
2, 63511, Note_on_c, 0, 41, 0
2, 63513, Control_c, 0, 64, 0
2, 63549, Control_c, 0, 64, 127
2, 63578, Note_on_c, 0, 29, 0
2, 63634, Note_on_c, 0, 67, 0
2, 63643, Note_on_c, 0, 58, 0
2, 63697, Note_on_c, 0, 63, 0
2, 63847, Note_on_c, 0, 62, 48
2, 63852, Note_on_c, 0, 57, 29
2, 63853, Note_on_c, 0, 60, 39
2, 63854, Note_on_c, 0, 41, 35
2, 63855, Note_on_c, 0, 51, 25
2, 63860, Control_c, 0, 64, 0
2, 63896, Control_c, 0, 64, 127
2, 63954, Note_on_c, 0, 41, 0
2, 63998, Note_on_c, 0, 57, 0
2, 64004, Note_on_c, 0, 51, 0
2, 64004, Note_on_c, 0, 60, 0
2, 64014, Note_on_c, 0, 41, 43
2, 64015, Note_on_c, 0, 62, 0
2, 64081, Note_on_c, 0, 65, 62
2, 64082, Note_on_c, 0, 51, 49
2, 64082, Note_on_c, 0, 62, 68
2, 64084, Note_on_c, 0, 60, 60
2, 64085, Control_c, 0, 64, 0
2, 64086, Note_on_c, 0, 57, 51
2, 64117, Control_c, 0, 64, 127
2, 64159, Note_on_c, 0, 41, 0
2, 64183, Note_on_c, 0, 57, 0
2, 64185, Note_on_c, 0, 51, 0
2, 64193, Note_on_c, 0, 41, 40
2, 64197, Note_on_c, 0, 60, 0
2, 64199, Note_on_c, 0, 62, 0
2, 64227, Note_on_c, 0, 65, 0
2, 64289, Note_on_c, 0, 41, 0
2, 64344, Note_on_c, 0, 65, 49
2, 64344, Note_on_c, 0, 57, 62
2, 64346, Note_on_c, 0, 54, 42
2, 64347, Note_on_c, 0, 41, 41
2, 64348, Note_on_c, 0, 60, 54
2, 64349, Control_c, 0, 64, 0
2, 64365, Note_on_c, 0, 41, 0
2, 64365, Control_c, 0, 64, 127
2, 64375, Note_on_c, 0, 65, 0
2, 64376, Note_on_c, 0, 57, 0
2, 64379, Note_on_c, 0, 60, 0
2, 64381, Note_on_c, 0, 54, 0
2, 64396, Note_on_c, 0, 65, 45
2, 64419, Note_on_c, 0, 65, 0
2, 64452, Control_c, 0, 64, 0
2, 64453, Note_on_c, 0, 65, 61
2, 64454, Note_on_c, 0, 63, 45
2, 64455, Note_on_c, 0, 46, 35
2, 64456, Note_on_c, 0, 60, 44
2, 64459, Note_on_c, 0, 56, 28
2, 64490, Control_c, 0, 64, 127
2, 64523, Note_on_c, 0, 65, 0
2, 64526, Note_on_c, 0, 60, 0
2, 64529, Note_on_c, 0, 63, 0
2, 64535, Note_on_c, 0, 56, 0
2, 64549, Note_on_c, 0, 53, 47
2, 64565, Note_on_c, 0, 46, 0
2, 64570, Note_on_c, 0, 53, 0
2, 64615, Note_on_c, 0, 58, 45
2, 64615, Note_on_c, 0, 70, 62
2, 64616, Note_on_c, 0, 60, 65
2, 64617, Note_on_c, 0, 63, 47
2, 64618, Note_on_c, 0, 67, 57
2, 64626, Control_c, 0, 64, 0
2, 64640, Note_on_c, 0, 67, 0
2, 64644, Note_on_c, 0, 60, 0
2, 64656, Note_on_c, 0, 63, 0
2, 64656, Note_on_c, 0, 58, 0
2, 64656, Control_c, 0, 64, 127
2, 64660, Note_on_c, 0, 56, 37
2, 64661, Note_on_c, 0, 70, 0
2, 64691, Note_on_c, 0, 56, 0
2, 64696, Control_c, 0, 64, 0
2, 64709, Note_on_c, 0, 63, 46
2, 64711, Note_on_c, 0, 72, 50
2, 64711, Note_on_c, 0, 75, 55
2, 64712, Note_on_c, 0, 68, 46
2, 64713, Note_on_c, 0, 65, 52
2, 64735, Control_c, 0, 64, 127
2, 64758, Note_on_c, 0, 65, 0
2, 64761, Note_on_c, 0, 72, 0
2, 64761, Note_on_c, 0, 68, 0
2, 64764, Note_on_c, 0, 63, 0
2, 64766, Note_on_c, 0, 75, 0
2, 64813, Note_on_c, 0, 79, 67
2, 64814, Note_on_c, 0, 72, 60
2, 64815, Note_on_c, 0, 68, 46
2, 64816, Note_on_c, 0, 75, 55
2, 64816, Note_on_c, 0, 67, 53
2, 64821, Control_c, 0, 64, 0
2, 64847, Control_c, 0, 64, 127
2, 64869, Note_on_c, 0, 79, 0
2, 64887, Note_on_c, 0, 72, 0
2, 64893, Note_on_c, 0, 68, 0
2, 64904, Note_on_c, 0, 75, 0
2, 64908, Note_on_c, 0, 67, 0
2, 64922, Note_on_c, 0, 77, 64
2, 64923, Note_on_c, 0, 68, 51
2, 64924, Note_on_c, 0, 72, 54
2, 64925, Note_on_c, 0, 65, 36
2, 64934, Note_on_c, 0, 65, 0
2, 64945, Note_on_c, 0, 77, 0
2, 64949, Note_on_c, 0, 72, 0
2, 64956, Note_on_c, 0, 68, 0
2, 65017, Control_c, 0, 64, 0
2, 65018, Note_on_c, 0, 75, 49
2, 65021, Note_on_c, 0, 68, 50
2, 65023, Note_on_c, 0, 65, 45
2, 65025, Note_on_c, 0, 56, 36
2, 65025, Note_on_c, 0, 72, 35
2, 65031, Note_on_c, 0, 46, 25
2, 65037, Control_c, 0, 64, 127
2, 65051, Note_on_c, 0, 65, 0
2, 65052, Note_on_c, 0, 75, 0
2, 65063, Note_on_c, 0, 72, 0
2, 65087, Note_on_c, 0, 68, 0
2, 65092, Note_on_c, 0, 56, 0
2, 65118, Control_c, 0, 64, 0
2, 65121, Note_on_c, 0, 71, 49
2, 65122, Note_on_c, 0, 74, 61
2, 65123, Note_on_c, 0, 67, 46
2, 65124, Note_on_c, 0, 62, 41
2, 65125, Note_on_c, 0, 56, 33
2, 65142, Control_c, 0, 64, 127
2, 65189, Note_on_c, 0, 46, 0
2, 65199, Note_on_c, 0, 71, 0
2, 65252, Note_on_c, 0, 46, 29
2, 65278, Note_on_c, 0, 56, 0
2, 65294, Note_on_c, 0, 67, 0
2, 65316, Note_on_c, 0, 62, 0
2, 65317, Note_on_c, 0, 74, 0
2, 65360, Note_on_c, 0, 62, 42
2, 65360, Note_on_c, 0, 71, 46
2, 65364, Note_on_c, 0, 67, 48
2, 65365, Note_on_c, 0, 56, 30
2, 65372, Control_c, 0, 64, 0
2, 65394, Control_c, 0, 64, 127
2, 65467, Note_on_c, 0, 46, 0
2, 65508, Note_on_c, 0, 62, 0
2, 65524, Note_on_c, 0, 67, 0
2, 65532, Note_on_c, 0, 46, 30
2, 65533, Note_on_c, 0, 71, 0
2, 65595, Note_on_c, 0, 67, 54
2, 65611, Note_on_c, 0, 67, 0
2, 65634, Note_on_c, 0, 46, 0
2, 65644, Note_on_c, 0, 56, 0
2, 65658, Note_on_c, 0, 79, 43
2, 65674, Note_on_c, 0, 79, 0
2, 65707, Note_on_c, 0, 86, 96
2, 65770, Note_on_c, 0, 51, 37
2, 65773, Control_c, 0, 64, 0
2, 65791, Control_c, 0, 64, 127
2, 65819, Note_on_c, 0, 86, 0
2, 65823, Note_on_c, 0, 82, 55
2, 65840, Note_on_c, 0, 82, 0
2, 65943, Note_on_c, 0, 67, 46
2, 65955, Note_on_c, 0, 58, 13
2, 66053, Note_on_c, 0, 79, 61
2, 66056, Note_on_c, 0, 62, 36
2, 66103, Note_on_c, 0, 79, 0
2, 66124, Note_on_c, 0, 79, 44
2, 66179, Note_on_c, 0, 51, 0
2, 66224, Note_on_c, 0, 51, 42
2, 66226, Note_on_c, 0, 67, 0
2, 66334, Note_on_c, 0, 51, 0
2, 66340, Note_on_c, 0, 79, 0
2, 66401, Note_on_c, 0, 51, 40
2, 66402, Note_on_c, 0, 62, 0
2, 66450, Note_on_c, 0, 51, 0
2, 66459, Note_on_c, 0, 58, 0
2, 66474, Note_on_c, 0, 51, 49
2, 66594, Note_on_c, 0, 57, 52
2, 66595, Note_on_c, 0, 54, 29
2, 66630, Control_c, 0, 64, 0
2, 66638, Control_c, 0, 64, 127
2, 66713, Note_on_c, 0, 57, 0
2, 66732, Note_on_c, 0, 54, 0
2, 66778, Note_on_c, 0, 54, 27
2, 66779, Note_on_c, 0, 69, 66
2, 66779, Note_on_c, 0, 60, 66
2, 66780, Note_on_c, 0, 66, 61
2, 66780, Note_on_c, 0, 57, 60
2, 66780, Note_on_c, 0, 63, 49
2, 66827, Note_on_c, 0, 63, 0
2, 66827, Note_on_c, 0, 60, 0
2, 66827, Note_on_c, 0, 66, 0
2, 66832, Note_on_c, 0, 69, 0
2, 66839, Note_on_c, 0, 70, 75
2, 66842, Note_on_c, 0, 66, 36
2, 66843, Note_on_c, 0, 63, 50
2, 66844, Note_on_c, 0, 60, 64
2, 66846, Note_on_c, 0, 58, 53
2, 66848, Note_on_c, 0, 54, 0
2, 66850, Note_on_c, 0, 57, 0
2, 66860, Control_c, 0, 64, 0
2, 66884, Control_c, 0, 64, 127
2, 66929, Note_on_c, 0, 57, 68
2, 66930, Note_on_c, 0, 69, 71
2, 66936, Note_on_c, 0, 58, 0
2, 66942, Note_on_c, 0, 70, 0
2, 66953, Control_c, 0, 64, 0
2, 66981, Control_c, 0, 64, 127
2, 67017, Note_on_c, 0, 66, 0
2, 67027, Note_on_c, 0, 57, 0
2, 67032, Note_on_c, 0, 60, 0
2, 67060, Note_on_c, 0, 69, 0
2, 67070, Note_on_c, 0, 67, 44
2, 67074, Note_on_c, 0, 60, 22
2, 67088, Note_on_c, 0, 60, 0
2, 67106, Note_on_c, 0, 67, 0
2, 67120, Note_on_c, 0, 60, 40
2, 67121, Note_on_c, 0, 57, 40
2, 67121, Note_on_c, 0, 69, 51
2, 67136, Note_on_c, 0, 57, 0
2, 67136, Note_on_c, 0, 60, 0
2, 67141, Note_on_c, 0, 63, 0
2, 67152, Note_on_c, 0, 51, 0
2, 67163, Note_on_c, 0, 69, 0
2, 67176, Note_on_c, 0, 62, 44
2, 67177, Note_on_c, 0, 50, 34
2, 67177, Note_on_c, 0, 65, 44
2, 67178, Note_on_c, 0, 70, 46
2, 67181, Control_c, 0, 64, 0
2, 67188, Note_on_c, 0, 58, 13
2, 67209, Control_c, 0, 64, 127
2, 67221, Note_on_c, 0, 65, 0
2, 67223, Note_on_c, 0, 62, 0
2, 67227, Note_on_c, 0, 70, 0
2, 67230, Note_on_c, 0, 58, 0
2, 67278, Note_on_c, 0, 77, 57
2, 67287, Note_on_c, 0, 58, 21
2, 67317, Note_on_c, 0, 77, 0
2, 67346, Note_on_c, 0, 77, 50
2, 67347, Note_on_c, 0, 74, 48
2, 67350, Note_on_c, 0, 70, 25
2, 67350, Note_on_c, 0, 62, 34
2, 67352, Note_on_c, 0, 65, 20
2, 67400, Note_on_c, 0, 50, 0
2, 67409, Note_on_c, 0, 62, 0
2, 67421, Note_on_c, 0, 65, 0
2, 67485, Note_on_c, 0, 70, 0
2, 67489, Note_on_c, 0, 74, 0
2, 67535, Note_on_c, 0, 70, 34
2, 67536, Note_on_c, 0, 63, 44
2, 67537, Note_on_c, 0, 65, 43
2, 67538, Note_on_c, 0, 74, 46
2, 67556, Note_on_c, 0, 65, 0
2, 67606, Note_on_c, 0, 63, 0
2, 67631, Note_on_c, 0, 74, 0
2, 67647, Note_on_c, 0, 70, 0
2, 67711, Note_on_c, 0, 70, 36
2, 67711, Note_on_c, 0, 74, 44
2, 67713, Note_on_c, 0, 65, 40
2, 67714, Note_on_c, 0, 62, 37
2, 67744, Note_on_c, 0, 58, 0
2, 67753, Note_on_c, 0, 74, 0
2, 67755, Note_on_c, 0, 77, 0
2, 67767, Note_on_c, 0, 70, 0
2, 67775, Note_on_c, 0, 65, 0
2, 67777, Note_on_c, 0, 62, 0
2, 67968, Note_on_c, 0, 45, 53
2, 67971, Note_on_c, 0, 33, 41
2, 67986, Control_c, 0, 64, 0
2, 67994, Control_c, 0, 64, 127
2, 68003, Note_on_c, 0, 33, 0
2, 68019, Note_on_c, 0, 45, 0
2, 68063, Note_on_c, 0, 67, 71
2, 68085, Note_on_c, 0, 67, 0
2, 68110, Note_on_c, 0, 72, 85
2, 68140, Note_on_c, 0, 72, 0
2, 68165, Note_on_c, 0, 74, 95
2, 68194, Note_on_c, 0, 74, 0
2, 68204, Note_on_c, 0, 75, 79
2, 68235, Note_on_c, 0, 75, 0
2, 68245, Note_on_c, 0, 54, 28
2, 68246, Note_on_c, 0, 74, 63
2, 68247, Note_on_c, 0, 50, 27
2, 68248, Note_on_c, 0, 60, 36
2, 68252, Control_c, 0, 64, 0
2, 68301, Note_on_c, 0, 72, 62
2, 68310, Note_on_c, 0, 74, 0
2, 68335, Note_on_c, 0, 72, 0
2, 68347, Note_on_c, 0, 70, 63
2, 68387, Control_c, 0, 64, 127
2, 68390, Note_on_c, 0, 70, 0
2, 68392, Note_on_c, 0, 69, 60
2, 68417, Note_on_c, 0, 60, 0
2, 68427, Note_on_c, 0, 69, 0
2, 68429, Control_c, 0, 64, 0
2, 68436, Note_on_c, 0, 72, 66
2, 68439, Note_on_c, 0, 60, 45
2, 68497, Control_c, 0, 64, 127
2, 68500, Note_on_c, 0, 72, 0
2, 68501, Note_on_c, 0, 69, 64
2, 68543, Note_on_c, 0, 60, 0
2, 68546, Note_on_c, 0, 69, 0
2, 68562, Note_on_c, 0, 70, 74
2, 68564, Note_on_c, 0, 50, 0
2, 68564, Note_on_c, 0, 54, 0
2, 68599, Note_on_c, 0, 70, 0
2, 68600, Note_on_c, 0, 66, 60
2, 68639, Note_on_c, 0, 50, 37
2, 68641, Note_on_c, 0, 69, 68
2, 68642, Note_on_c, 0, 43, 41
2, 68651, Control_c, 0, 64, 0
2, 68652, Note_on_c, 0, 66, 0
2, 68688, Note_on_c, 0, 69, 0
2, 68689, Note_on_c, 0, 67, 61
2, 68702, Control_c, 0, 64, 127
2, 68732, Note_on_c, 0, 67, 0
2, 68740, Note_on_c, 0, 62, 50
2, 68776, Note_on_c, 0, 62, 0
2, 68790, Note_on_c, 0, 61, 37
2, 68834, Note_on_c, 0, 61, 0
2, 68844, Control_c, 0, 64, 0
2, 68848, Note_on_c, 0, 60, 46
2, 68854, Note_on_c, 0, 55, 20
2, 68866, Control_c, 0, 64, 127
2, 68913, Note_on_c, 0, 60, 0
2, 68914, Note_on_c, 0, 72, 49
2, 68938, Note_on_c, 0, 55, 0
2, 68945, Note_on_c, 0, 72, 0
2, 68974, Note_on_c, 0, 72, 58
2, 68989, Note_on_c, 0, 50, 0
2, 69004, Note_on_c, 0, 72, 0
2, 69037, Note_on_c, 0, 72, 38
2, 69037, Note_on_c, 0, 58, 48
2, 69037, Note_on_c, 0, 65, 57
2, 69042, Note_on_c, 0, 55, 37
2, 69047, Control_c, 0, 64, 0
2, 69077, Control_c, 0, 64, 127
2, 69098, Note_on_c, 0, 72, 0
2, 69141, Note_on_c, 0, 67, 64
2, 69160, Note_on_c, 0, 55, 0
2, 69168, Note_on_c, 0, 65, 0
2, 69177, Note_on_c, 0, 58, 0
2, 69182, Note_on_c, 0, 67, 0
2, 69210, Note_on_c, 0, 55, 35
2, 69211, Note_on_c, 0, 67, 51
2, 69213, Note_on_c, 0, 58, 35
2, 69215, Note_on_c, 0, 65, 45
2, 69229, Note_on_c, 0, 55, 0
2, 69242, Note_on_c, 0, 43, 0
2, 69294, Note_on_c, 0, 67, 0
2, 69299, Note_on_c, 0, 65, 0
2, 69326, Note_on_c, 0, 58, 0
2, 69330, Note_on_c, 0, 24, 60
2, 69399, Note_on_c, 0, 58, 77
2, 69401, Note_on_c, 0, 67, 68
2, 69401, Note_on_c, 0, 62, 74
2, 69402, Note_on_c, 0, 65, 68
2, 69404, Control_c, 0, 64, 0
2, 69407, Note_on_c, 0, 36, 54
2, 69444, Note_on_c, 0, 24, 0
2, 69444, Control_c, 0, 64, 127
2, 69459, Note_on_c, 0, 36, 0
2, 69535, Note_on_c, 0, 58, 0
2, 69543, Note_on_c, 0, 62, 0
2, 69549, Note_on_c, 0, 65, 0
2, 69573, Note_on_c, 0, 67, 0
2, 69603, Note_on_c, 0, 67, 43
2, 69604, Note_on_c, 0, 48, 29
2, 69605, Note_on_c, 0, 58, 37
2, 69605, Note_on_c, 0, 62, 52
2, 69607, Note_on_c, 0, 65, 46
2, 69609, Note_on_c, 0, 57, 32
2, 69699, Note_on_c, 0, 57, 0
2, 69705, Note_on_c, 0, 58, 0
2, 69710, Note_on_c, 0, 67, 0
2, 69711, Note_on_c, 0, 48, 0
2, 69718, Note_on_c, 0, 65, 0
2, 69719, Note_on_c, 0, 62, 0
2, 69796, Note_on_c, 0, 67, 54
2, 69798, Note_on_c, 0, 48, 34
2, 69800, Note_on_c, 0, 64, 46
2, 69801, Note_on_c, 0, 61, 32
2, 69804, Note_on_c, 0, 55, 40
2, 69804, Note_on_c, 0, 58, 18
2, 69805, Control_c, 0, 64, 0
2, 69861, Control_c, 0, 64, 127
2, 69889, Note_on_c, 0, 55, 0
2, 69905, Note_on_c, 0, 58, 0
2, 69910, Note_on_c, 0, 64, 0
2, 69915, Note_on_c, 0, 61, 0
2, 69932, Note_on_c, 0, 67, 0
2, 70043, Note_on_c, 0, 48, 0
2, 70052, Note_on_c, 0, 58, 33
2, 70053, Note_on_c, 0, 67, 44
2, 70057, Note_on_c, 0, 61, 28
2, 70080, Note_on_c, 0, 61, 0
2, 70105, Note_on_c, 0, 58, 0
2, 70124, Note_on_c, 0, 67, 0
2, 70176, Note_on_c, 0, 41, 40
2, 70179, Note_on_c, 0, 58, 35
2, 70179, Note_on_c, 0, 69, 44
2, 70180, Control_c, 0, 64, 0
2, 70181, Note_on_c, 0, 63, 37
2, 70183, Note_on_c, 0, 67, 37
2, 70184, Note_on_c, 0, 53, 24
2, 70209, Note_on_c, 0, 58, 0
2, 70211, Note_on_c, 0, 63, 0
2, 70214, Note_on_c, 0, 69, 0
2, 70214, Note_on_c, 0, 53, 0
2, 70217, Note_on_c, 0, 67, 0
2, 70223, Note_on_c, 0, 41, 0
2, 70273, Note_on_c, 0, 69, 40
2, 70277, Note_on_c, 0, 63, 34
2, 70278, Note_on_c, 0, 41, 27
2, 70279, Note_on_c, 0, 53, 24
2, 70280, Note_on_c, 0, 58, 21
2, 70286, Note_on_c, 0, 67, 24
2, 70309, Note_on_c, 0, 67, 0
2, 70309, Note_on_c, 0, 63, 0
2, 70312, Note_on_c, 0, 58, 0
2, 70313, Note_on_c, 0, 69, 0
2, 70314, Note_on_c, 0, 41, 0
2, 70314, Note_on_c, 0, 53, 0
2, 70370, Control_c, 0, 64, 127
2, 70371, Note_on_c, 0, 41, 33
2, 70371, Note_on_c, 0, 63, 33
2, 70372, Note_on_c, 0, 69, 38
2, 70373, Note_on_c, 0, 58, 29
2, 70378, Note_on_c, 0, 53, 29
2, 70384, Note_on_c, 0, 67, 20
2, 70481, Note_on_c, 0, 67, 0
2, 70489, Note_on_c, 0, 58, 0
2, 70493, Note_on_c, 0, 53, 0
2, 70529, Note_on_c, 0, 63, 0
2, 70584, Note_on_c, 0, 41, 0
2, 70585, Note_on_c, 0, 69, 0
2, 70643, Note_on_c, 0, 41, 33
2, 70763, Note_on_c, 0, 41, 0
2, 70821, Note_on_c, 0, 41, 35
2, 70832, Note_on_c, 0, 41, 0
2, 70916, Note_on_c, 0, 67, 36
2, 70917, Note_on_c, 0, 60, 42
2, 70917, Note_on_c, 0, 69, 46
2, 70918, Control_c, 0, 64, 0
2, 70920, Note_on_c, 0, 64, 47
2, 70920, Note_on_c, 0, 50, 34
2, 70944, Control_c, 0, 64, 127
2, 70950, Note_on_c, 0, 60, 0
2, 70960, Note_on_c, 0, 64, 0
2, 70963, Note_on_c, 0, 69, 0
2, 70966, Note_on_c, 0, 67, 0
2, 71014, Note_on_c, 0, 86, 80
2, 71015, Note_on_c, 0, 74, 62
2, 71019, Note_on_c, 0, 62, 44
2, 71088, Note_on_c, 0, 62, 0
2, 71092, Note_on_c, 0, 74, 0
2, 71093, Note_on_c, 0, 86, 0
2, 71114, Note_on_c, 0, 86, 60
2, 71116, Note_on_c, 0, 74, 44
2, 71119, Note_on_c, 0, 62, 36
2, 71154, Note_on_c, 0, 50, 0
2, 71209, Note_on_c, 0, 50, 39
2, 71211, Note_on_c, 0, 74, 0
2, 71220, Note_on_c, 0, 86, 0
2, 71233, Note_on_c, 0, 62, 0
2, 71308, Note_on_c, 0, 86, 50
2, 71311, Note_on_c, 0, 76, 41
2, 71313, Note_on_c, 0, 80, 39
2, 71314, Note_on_c, 0, 54, 31
2, 71316, Note_on_c, 0, 60, 25
2, 71321, Control_c, 0, 64, 0
2, 71353, Control_c, 0, 64, 127
2, 71502, Note_on_c, 0, 86, 0
2, 71511, Note_on_c, 0, 80, 0
2, 71518, Note_on_c, 0, 76, 0
2, 71575, Note_on_c, 0, 60, 0
2, 71593, Note_on_c, 0, 54, 0
2, 71597, Note_on_c, 0, 50, 0
2, 71614, Note_on_c, 0, 69, 62
2, 71681, Note_on_c, 0, 69, 0
2, 71704, Note_on_c, 0, 70, 56
2, 71707, Note_on_c, 0, 43, 34
2, 71716, Control_c, 0, 64, 0
2, 71746, Control_c, 0, 64, 127
2, 71795, Note_on_c, 0, 50, 54
2, 71796, Note_on_c, 0, 43, 0
2, 71812, Note_on_c, 0, 50, 0
2, 71890, Note_on_c, 0, 58, 74
2, 71891, Note_on_c, 0, 57, 68
2, 71892, Note_on_c, 0, 62, 71
2, 71962, Note_on_c, 0, 62, 0
2, 71966, Note_on_c, 0, 58, 0
2, 71969, Note_on_c, 0, 57, 0
2, 71993, Note_on_c, 0, 58, 60
2, 71994, Note_on_c, 0, 62, 56
2, 71994, Note_on_c, 0, 57, 55
2, 72049, Note_on_c, 0, 58, 0
2, 72055, Note_on_c, 0, 62, 0
2, 72060, Note_on_c, 0, 57, 0
2, 72097, Note_on_c, 0, 62, 35
2, 72099, Note_on_c, 0, 57, 32
2, 72100, Note_on_c, 0, 58, 37
2, 72149, Note_on_c, 0, 62, 0
2, 72151, Note_on_c, 0, 58, 0
2, 72160, Note_on_c, 0, 57, 0
2, 72196, Note_on_c, 0, 57, 32
2, 72197, Note_on_c, 0, 62, 34
2, 72198, Note_on_c, 0, 58, 36
2, 72352, Note_on_c, 0, 57, 0
2, 72353, Note_on_c, 0, 70, 0
2, 72374, Note_on_c, 0, 70, 68
2, 72406, Note_on_c, 0, 70, 0
2, 72428, Note_on_c, 0, 70, 64
2, 72438, Note_on_c, 0, 62, 0
2, 72464, Note_on_c, 0, 70, 0
2, 72480, Note_on_c, 0, 58, 0
2, 72508, Note_on_c, 0, 70, 71
2, 72509, Note_on_c, 0, 58, 44
2, 72510, Note_on_c, 0, 62, 58
2, 72512, Note_on_c, 0, 54, 52
2, 72532, Control_c, 0, 64, 0
2, 72570, Control_c, 0, 64, 127
2, 72666, Note_on_c, 0, 70, 0
2, 72674, Note_on_c, 0, 62, 0
2, 72675, Note_on_c, 0, 58, 0
2, 72695, Note_on_c, 0, 54, 0
2, 72716, Note_on_c, 0, 70, 68
2, 72718, Note_on_c, 0, 53, 38
2, 72719, Note_on_c, 0, 62, 47
2, 72720, Note_on_c, 0, 58, 45
2, 72727, Control_c, 0, 64, 0
2, 72769, Control_c, 0, 64, 127
2, 72820, Note_on_c, 0, 62, 0
2, 72843, Note_on_c, 0, 58, 0
2, 72875, Note_on_c, 0, 70, 0
2, 72914, Note_on_c, 0, 70, 53
2, 72917, Note_on_c, 0, 62, 51
2, 72918, Note_on_c, 0, 58, 36
2, 72918, Note_on_c, 0, 67, 50
2, 73005, Note_on_c, 0, 70, 0
2, 73014, Note_on_c, 0, 72, 69
2, 73016, Note_on_c, 0, 70, 27
2, 73030, Note_on_c, 0, 58, 0
2, 73036, Note_on_c, 0, 67, 0
2, 73048, Note_on_c, 0, 72, 0
2, 73053, Note_on_c, 0, 70, 0
2, 73067, Note_on_c, 0, 62, 0
2, 73114, Note_on_c, 0, 69, 54
2, 73115, Note_on_c, 0, 62, 38
2, 73118, Note_on_c, 0, 58, 25
2, 73190, Note_on_c, 0, 58, 0
2, 73196, Note_on_c, 0, 53, 0
2, 73213, Note_on_c, 0, 70, 59
2, 73220, Note_on_c, 0, 62, 0
2, 73243, Note_on_c, 0, 69, 0
2, 73253, Note_on_c, 0, 70, 0
2, 73315, Note_on_c, 0, 70, 50
2, 73317, Note_on_c, 0, 64, 55
2, 73319, Note_on_c, 0, 48, 35
2, 73321, Note_on_c, 0, 58, 25
2, 73325, Control_c, 0, 64, 0
2, 73359, Control_c, 0, 64, 127
2, 73418, Note_on_c, 0, 55, 44
2, 73420, Note_on_c, 0, 58, 0
2, 73428, Note_on_c, 0, 64, 0
2, 73519, Note_on_c, 0, 70, 0
2, 73519, Note_on_c, 0, 64, 30
2, 73522, Note_on_c, 0, 58, 21
2, 73524, Note_on_c, 0, 60, 32
2, 73540, Note_on_c, 0, 64, 0
2, 73576, Note_on_c, 0, 60, 0
2, 73579, Note_on_c, 0, 55, 0
2, 73592, Note_on_c, 0, 48, 0
2, 73612, Note_on_c, 0, 58, 0
2, 73625, Note_on_c, 0, 72, 51
2, 73654, Note_on_c, 0, 72, 0
2, 73712, Note_on_c, 0, 48, 45
2, 73746, Note_on_c, 0, 62, 33
2, 73758, Note_on_c, 0, 66, 48
2, 73762, Control_c, 0, 64, 0
2, 73763, Note_on_c, 0, 58, 15
2, 73779, Note_on_c, 0, 69, 24
2, 73783, Note_on_c, 0, 74, 57
2, 73796, Control_c, 0, 64, 127
2, 73819, Note_on_c, 0, 62, 0
2, 73822, Note_on_c, 0, 48, 0
2, 73825, Note_on_c, 0, 66, 0
2, 73827, Note_on_c, 0, 69, 0
2, 73836, Note_on_c, 0, 58, 0
2, 73837, Note_on_c, 0, 74, 0
2, 73913, Note_on_c, 0, 86, 38
2, 73915, Note_on_c, 0, 58, 25
2, 73922, Note_on_c, 0, 74, 13
2, 73942, Note_on_c, 0, 74, 0
2, 73957, Note_on_c, 0, 86, 0
2, 74038, Note_on_c, 0, 86, 32
2, 74045, Note_on_c, 0, 64, 20
2, 74045, Note_on_c, 0, 98, 31
2, 74064, Note_on_c, 0, 86, 0
2, 74077, Note_on_c, 0, 98, 0
2, 74125, Note_on_c, 0, 58, 0
2, 74168, Note_on_c, 0, 105, 29
2, 74169, Note_on_c, 0, 93, 17
2, 74172, Note_on_c, 0, 58, 15
2, 74175, Note_on_c, 0, 64, 0
2, 74262, Note_on_c, 0, 93, 0
2, 74275, Note_on_c, 0, 105, 0
2, 74309, Note_on_c, 0, 93, 30
2, 74312, Note_on_c, 0, 98, 34
2, 74314, Note_on_c, 0, 64, 24
2, 74383, Note_on_c, 0, 98, 0
2, 74405, Note_on_c, 0, 93, 0
2, 74476, Note_on_c, 0, 64, 0
2, 74551, Note_on_c, 0, 58, 0
2, 74621, Note_on_c, 0, 86, 101
2, 74624, Note_on_c, 0, 62, 75
2, 74642, Control_c, 0, 64, 0
2, 74668, Control_c, 0, 64, 127
2, 74745, Note_on_c, 0, 86, 0
2, 74749, Note_on_c, 0, 82, 59
2, 74751, Note_on_c, 0, 62, 0
2, 74753, Note_on_c, 0, 58, 39
2, 74767, Control_c, 0, 64, 0
2, 74781, Control_c, 0, 64, 127
2, 74861, Note_on_c, 0, 84, 66
2, 74867, Note_on_c, 0, 60, 33
2, 74885, Note_on_c, 0, 82, 0
2, 74898, Note_on_c, 0, 60, 0
2, 74911, Note_on_c, 0, 58, 0
2, 74991, Note_on_c, 0, 84, 0
2, 75020, Note_on_c, 0, 86, 62
2, 75027, Note_on_c, 0, 74, 55
2, 75029, Note_on_c, 0, 60, 34
2, 75031, Note_on_c, 0, 65, 17
2, 75031, Note_on_c, 0, 62, 33
2, 75039, Control_c, 0, 64, 0
2, 75065, Control_c, 0, 64, 127
2, 75078, Note_on_c, 0, 65, 0
2, 75137, Note_on_c, 0, 53, 33
2, 75143, Note_on_c, 0, 86, 0
2, 75160, Note_on_c, 0, 74, 0
2, 75215, Note_on_c, 0, 62, 0
2, 75226, Note_on_c, 0, 60, 0
2, 75245, Note_on_c, 0, 62, 54
2, 75324, Note_on_c, 0, 53, 0
2, 75337, Note_on_c, 0, 74, 75
2, 75364, Note_on_c, 0, 62, 0
2, 75392, Note_on_c, 0, 74, 0
2, 75431, Note_on_c, 0, 74, 60
2, 75434, Note_on_c, 0, 50, 27
2, 75436, Note_on_c, 0, 66, 34
2, 75437, Note_on_c, 0, 70, 50
2, 75440, Note_on_c, 0, 60, 44
2, 75440, Note_on_c, 0, 62, 32
2, 75447, Control_c, 0, 64, 0
2, 75507, Control_c, 0, 64, 127
2, 75548, Note_on_c, 0, 54, 42
2, 75558, Note_on_c, 0, 60, 0
2, 75596, Note_on_c, 0, 66, 0
2, 75597, Note_on_c, 0, 62, 0
2, 75604, Note_on_c, 0, 70, 0
2, 75653, Note_on_c, 0, 66, 45
2, 75661, Note_on_c, 0, 62, 30
2, 75662, Note_on_c, 0, 60, 18
2, 75697, Note_on_c, 0, 74, 0
2, 75743, Note_on_c, 0, 50, 0
2, 75753, Note_on_c, 0, 74, 75
2, 75765, Note_on_c, 0, 62, 0
2, 75780, Note_on_c, 0, 60, 0
2, 75797, Note_on_c, 0, 66, 0
2, 75811, Note_on_c, 0, 74, 0
2, 75816, Note_on_c, 0, 54, 0
2, 75866, Note_on_c, 0, 74, 71
2, 75871, Note_on_c, 0, 51, 37
2, 75872, Note_on_c, 0, 67, 61
2, 75872, Note_on_c, 0, 63, 52
2, 75876, Control_c, 0, 64, 0
2, 75877, Note_on_c, 0, 62, 48
2, 75918, Control_c, 0, 64, 127
2, 75963, Note_on_c, 0, 62, 0
2, 75969, Note_on_c, 0, 63, 0
2, 75995, Note_on_c, 0, 60, 41
2, 76080, Note_on_c, 0, 74, 0
2, 76086, Note_on_c, 0, 67, 0
2, 76100, Note_on_c, 0, 63, 36
2, 76102, Note_on_c, 0, 72, 48
2, 76103, Note_on_c, 0, 67, 19
2, 76160, Note_on_c, 0, 51, 0
2, 76184, Note_on_c, 0, 67, 0
2, 76186, Note_on_c, 0, 63, 0
2, 76198, Note_on_c, 0, 51, 30
2, 76203, Note_on_c, 0, 72, 0
2, 76206, Note_on_c, 0, 70, 56
2, 76238, Note_on_c, 0, 51, 0
2, 76240, Note_on_c, 0, 60, 0
2, 76269, Note_on_c, 0, 70, 0
2, 76388, Note_on_c, 0, 72, 51
2, 76390, Note_on_c, 0, 53, 37
2, 76391, Note_on_c, 0, 63, 34
2, 76405, Control_c, 0, 64, 0
2, 76468, Control_c, 0, 64, 127
2, 76508, Note_on_c, 0, 60, 35
2, 76517, Note_on_c, 0, 63, 0
2, 76639, Note_on_c, 0, 63, 27
2, 76641, Note_on_c, 0, 72, 0
2, 76641, Note_on_c, 0, 66, 36
2, 76763, Note_on_c, 0, 63, 0
2, 76819, Note_on_c, 0, 66, 0
2, 76823, Note_on_c, 0, 69, 42
2, 76872, Note_on_c, 0, 60, 0
2, 76880, Note_on_c, 0, 53, 0
2, 76900, Note_on_c, 0, 69, 0
2, 77189, Note_on_c, 0, 70, 44
2, 77195, Note_on_c, 0, 58, 27
2, 77201, Note_on_c, 0, 65, 29
2, 77208, Control_c, 0, 64, 0
2, 77226, Control_c, 0, 64, 127
2, 77298, Note_on_c, 0, 77, 62
2, 77360, Note_on_c, 0, 65, 0
2, 77385, Note_on_c, 0, 77, 0
2, 77409, Note_on_c, 0, 75, 63
2, 77418, Note_on_c, 0, 65, 24
2, 77528, Note_on_c, 0, 74, 66
2, 77549, Note_on_c, 0, 75, 0
2, 77595, Note_on_c, 0, 58, 0
2, 77597, Note_on_c, 0, 74, 0
2, 77611, Note_on_c, 0, 70, 0
2, 77612, Note_on_c, 0, 65, 0
2, 77678, Note_on_c, 0, 75, 48
2, 77680, Note_on_c, 0, 66, 26
2, 77681, Note_on_c, 0, 70, 46
2, 77686, Note_on_c, 0, 58, 18
2, 77699, Control_c, 0, 64, 0
2, 77739, Control_c, 0, 64, 127
2, 77842, Note_on_c, 0, 63, 25
2, 77903, Note_on_c, 0, 66, 0
2, 77960, Note_on_c, 0, 66, 23
2, 77977, Note_on_c, 0, 70, 0
2, 78073, Note_on_c, 0, 70, 47
2, 78128, Note_on_c, 0, 63, 0
2, 78131, Note_on_c, 0, 58, 0
2, 78133, Note_on_c, 0, 75, 0
2, 78145, Note_on_c, 0, 66, 0
2, 78148, Note_on_c, 0, 70, 0
2, 78187, Note_on_c, 0, 74, 61
2, 78191, Note_on_c, 0, 70, 45
2, 78191, Note_on_c, 0, 65, 39
2, 78193, Note_on_c, 0, 58, 40
2, 78196, Control_c, 0, 64, 0
2, 78226, Control_c, 0, 64, 127
2, 78286, Note_on_c, 0, 58, 0
2, 78300, Note_on_c, 0, 58, 34
2, 78319, Note_on_c, 0, 74, 0
2, 78337, Note_on_c, 0, 65, 0
2, 78370, Note_on_c, 0, 70, 0
2, 78400, Note_on_c, 0, 65, 48
2, 78402, Note_on_c, 0, 72, 39
2, 78465, Note_on_c, 0, 58, 0
2, 78505, Note_on_c, 0, 72, 0
2, 78518, Note_on_c, 0, 70, 52
2, 78519, Note_on_c, 0, 65, 0
2, 78589, Note_on_c, 0, 70, 0
2, 78700, Note_on_c, 0, 70, 39
2, 78702, Note_on_c, 0, 46, 32
2, 78704, Note_on_c, 0, 72, 39
2, 78705, Note_on_c, 0, 66, 37
2, 78707, Note_on_c, 0, 61, 28
2, 78709, Note_on_c, 0, 58, 25
2, 78716, Control_c, 0, 64, 0
2, 78776, Control_c, 0, 64, 127
2, 78827, Note_on_c, 0, 58, 0
2, 78862, Note_on_c, 0, 58, 25
2, 78921, Note_on_c, 0, 61, 0
2, 78927, Note_on_c, 0, 66, 0
2, 78940, Note_on_c, 0, 58, 0
2, 79007, Note_on_c, 0, 61, 35
2, 79009, Note_on_c, 0, 66, 36
2, 79016, Note_on_c, 0, 58, 18
2, 79135, Note_on_c, 0, 66, 0
2, 79193, Note_on_c, 0, 72, 0
2, 79195, Note_on_c, 0, 61, 0
2, 79195, Note_on_c, 0, 65, 45
2, 79197, Note_on_c, 0, 70, 0
2, 79249, Note_on_c, 0, 58, 0
2, 79276, Note_on_c, 0, 65, 0
2, 79297, Note_on_c, 0, 46, 0
2, 79535, Note_on_c, 0, 65, 39
2, 79539, Note_on_c, 0, 62, 48
2, 79539, Note_on_c, 0, 22, 37
2, 79540, Note_on_c, 0, 60, 55
2, 79540, Note_on_c, 0, 34, 32
2, 79541, Note_on_c, 0, 57, 32
2, 79558, Control_c, 0, 64, 0
2, 79630, Control_c, 0, 64, 127
2, 79729, Note_on_c, 0, 57, 0
2, 79736, Note_on_c, 0, 60, 0
2, 79747, Note_on_c, 0, 62, 0
2, 79752, Note_on_c, 0, 65, 0
2, 79784, Note_on_c, 0, 22, 0
2, 79784, Note_on_c, 0, 34, 0
2, 80559, Control_c, 0, 64, 0
2, 80559, End_track
3, 0, Start_track
3, 0, Title_t, "dougmck@pipeline.com.au"
3, 0, End_track
0, 0, End_of_file
