0, 0, Header, 1, 5, 120
1, 0, Start_track
1, 0, Title_t, "DolphinDance"
1, 0, Text_t, "Herbie Hancock\012"
1, 0, Text_t, "Doug McKenzie dougmck@pipeline.com.au\012"
1, 0, Time_signature, 4, 2, 24, 8
1, 0, Key_signature, 0, "major"
1, 0, Tempo, 468750
1, 0, End_track
2, 0, Start_track
2, 0, Title_t, "Piano"
2, 0, Program_c, 0, 4
2, 0, Control_c, 0, 7, 94
2, 1, Note_on_c, 0, 67, 40
2, 2, Note_on_c, 0, 62, 39
2, 4, Note_on_c, 0, 39, 32
2, 6, Note_on_c, 0, 46, 30
2, 8, Note_on_c, 0, 55, 36
2, 16, Control_c, 0, 64, 127
2, 111, Note_on_c, 0, 55, 0
2, 130, Note_on_c, 0, 62, 0
2, 139, Note_on_c, 0, 67, 0
2, 249, Note_on_c, 0, 67, 101
2, 318, Note_on_c, 0, 67, 0
2, 335, Note_on_c, 0, 68, 93
2, 339, Note_on_c, 0, 39, 0
2, 344, Note_on_c, 0, 46, 0
2, 390, Note_on_c, 0, 68, 0
2, 403, Note_on_c, 0, 70, 74
2, 415, Note_on_c, 0, 70, 0
2, 489, Note_on_c, 0, 56, 52
2, 489, Note_on_c, 0, 61, 57
2, 492, Note_on_c, 0, 65, 57
2, 512, Control_c, 0, 64, 0
2, 606, Control_c, 0, 64, 127
2, 678, Note_on_c, 0, 51, 39
2, 711, Note_on_c, 0, 56, 0
2, 716, Note_on_c, 0, 61, 0
2, 760, Note_on_c, 0, 56, 33
2, 813, Note_on_c, 0, 56, 0
2, 817, Note_on_c, 0, 51, 0
2, 847, Note_on_c, 0, 56, 28
2, 909, Note_on_c, 0, 56, 0
2, 914, Note_on_c, 0, 65, 0
2, 927, Note_on_c, 0, 55, 45
2, 928, Note_on_c, 0, 39, 27
2, 928, Note_on_c, 0, 46, 27
2, 935, Control_c, 0, 64, 0
2, 988, Control_c, 0, 64, 127
2, 1025, Note_on_c, 0, 55, 0
2, 1044, Note_on_c, 0, 39, 0
2, 1053, Note_on_c, 0, 46, 0
2, 1194, Note_on_c, 0, 79, 87
2, 1202, Note_on_c, 0, 74, 74
2, 1206, Note_on_c, 0, 55, 47
2, 1209, Control_c, 0, 64, 0
2, 1210, Note_on_c, 0, 65, 38
2, 1211, Note_on_c, 0, 60, 31
2, 1212, Note_on_c, 0, 62, 28
2, 1221, Note_on_c, 0, 67, 36
2, 1237, Control_c, 0, 64, 127
2, 1259, Note_on_c, 0, 79, 0
2, 1264, Note_on_c, 0, 67, 0
2, 1283, Note_on_c, 0, 74, 0
2, 1298, Note_on_c, 0, 80, 71
2, 1302, Note_on_c, 0, 68, 67
2, 1309, Note_on_c, 0, 65, 0
2, 1319, Note_on_c, 0, 62, 0
2, 1320, Note_on_c, 0, 68, 0
2, 1322, Note_on_c, 0, 60, 0
2, 1330, Note_on_c, 0, 80, 0
2, 1332, Note_on_c, 0, 55, 0
2, 1361, Note_on_c, 0, 82, 62
2, 1362, Note_on_c, 0, 70, 53
2, 1373, Note_on_c, 0, 70, 0
2, 1373, Note_on_c, 0, 82, 0
2, 1431, Note_on_c, 0, 77, 58
2, 1444, Note_on_c, 0, 72, 50
2, 1446, Note_on_c, 0, 68, 39
2, 1447, Control_c, 0, 64, 0
2, 1449, Note_on_c, 0, 60, 36
2, 1454, Note_on_c, 0, 50, 30
2, 1507, Control_c, 0, 64, 127
2, 1545, Note_on_c, 0, 60, 0
2, 1548, Note_on_c, 0, 77, 0
2, 1552, Note_on_c, 0, 72, 0
2, 1553, Note_on_c, 0, 50, 0
2, 1562, Note_on_c, 0, 68, 0
2, 1642, Note_on_c, 0, 68, 68
2, 1644, Note_on_c, 0, 63, 59
2, 1646, Note_on_c, 0, 59, 53
2, 1665, Note_on_c, 0, 59, 0
2, 1673, Note_on_c, 0, 68, 0
2, 1675, Note_on_c, 0, 63, 0
2, 1688, Note_on_c, 0, 67, 33
2, 1690, Control_c, 0, 64, 0
2, 1692, Note_on_c, 0, 59, 36
2, 1693, Note_on_c, 0, 43, 32
2, 1694, Note_on_c, 0, 63, 31
2, 1699, Note_on_c, 0, 53, 28
2, 1799, Note_on_c, 0, 43, 0
2, 1809, Control_c, 0, 64, 127
2, 1821, Note_on_c, 0, 53, 0
2, 1835, Note_on_c, 0, 59, 0
2, 1844, Note_on_c, 0, 67, 0
2, 1844, Note_on_c, 0, 63, 0
2, 1876, Note_on_c, 0, 62, 42
2, 1877, Note_on_c, 0, 65, 54
2, 1892, Note_on_c, 0, 62, 0
2, 1910, Note_on_c, 0, 65, 0
2, 1926, Control_c, 0, 64, 0
2, 1929, Note_on_c, 0, 58, 25
2, 1930, Note_on_c, 0, 63, 40
2, 1930, Note_on_c, 0, 60, 24
2, 1932, Note_on_c, 0, 55, 30
2, 1944, Note_on_c, 0, 48, 16
2, 2025, Note_on_c, 0, 60, 0
2, 2037, Note_on_c, 0, 63, 0
2, 2045, Control_c, 0, 64, 127
2, 2062, Note_on_c, 0, 58, 0
2, 2071, Note_on_c, 0, 55, 0
2, 2155, Control_c, 0, 64, 0
2, 2158, Note_on_c, 0, 51, 64
2, 2161, Note_on_c, 0, 63, 86
2, 2162, Note_on_c, 0, 75, 86
2, 2190, Control_c, 0, 64, 127
2, 2191, Note_on_c, 0, 63, 0
2, 2200, Note_on_c, 0, 75, 0
2, 2244, Note_on_c, 0, 51, 0
2, 2244, Note_on_c, 0, 77, 71
2, 2245, Note_on_c, 0, 53, 48
2, 2245, Note_on_c, 0, 65, 71
2, 2247, Control_c, 0, 64, 0
2, 2261, Note_on_c, 0, 65, 0
2, 2268, Note_on_c, 0, 77, 0
2, 2277, Control_c, 0, 64, 127
2, 2314, Note_on_c, 0, 48, 0
2, 2324, Note_on_c, 0, 55, 53
2, 2325, Note_on_c, 0, 79, 69
2, 2326, Note_on_c, 0, 67, 60
2, 2331, Note_on_c, 0, 79, 0
2, 2332, Note_on_c, 0, 55, 0
2, 2335, Note_on_c, 0, 53, 0
2, 2337, Note_on_c, 0, 67, 0
2, 2402, Control_c, 0, 64, 0
2, 2404, Note_on_c, 0, 74, 60
2, 2407, Note_on_c, 0, 65, 51
2, 2409, Note_on_c, 0, 44, 35
2, 2409, Note_on_c, 0, 54, 34
2, 2410, Note_on_c, 0, 70, 45
2, 2427, Note_on_c, 0, 65, 0
2, 2430, Control_c, 0, 64, 127
2, 2437, Note_on_c, 0, 70, 0
2, 2440, Note_on_c, 0, 74, 0
2, 2458, Note_on_c, 0, 44, 0
2, 2469, Note_on_c, 0, 54, 0
2, 2521, Note_on_c, 0, 86, 77
2, 2522, Note_on_c, 0, 77, 74
2, 2533, Note_on_c, 0, 77, 0
2, 2541, Note_on_c, 0, 86, 0
2, 2559, Note_on_c, 0, 82, 71
2, 2569, Note_on_c, 0, 82, 0
2, 2571, Control_c, 0, 64, 0
2, 2596, Note_on_c, 0, 65, 50
2, 2597, Note_on_c, 0, 82, 75
2, 2598, Note_on_c, 0, 77, 74
2, 2599, Note_on_c, 0, 58, 36
2, 2599, Note_on_c, 0, 86, 71
2, 2600, Note_on_c, 0, 60, 50
2, 2601, Note_on_c, 0, 54, 43
2, 2632, Control_c, 0, 64, 127
2, 2655, Note_on_c, 0, 86, 0
2, 2655, Note_on_c, 0, 77, 0
2, 2655, Note_on_c, 0, 82, 0
2, 2661, Note_on_c, 0, 65, 0
2, 2663, Note_on_c, 0, 60, 0
2, 2664, Note_on_c, 0, 54, 0
2, 2666, Note_on_c, 0, 58, 0
2, 2683, Note_on_c, 0, 74, 61
2, 2683, Note_on_c, 0, 82, 54
2, 2686, Note_on_c, 0, 65, 40
2, 2689, Note_on_c, 0, 60, 35
2, 2690, Note_on_c, 0, 54, 28
2, 2690, Note_on_c, 0, 58, 36
2, 2709, Note_on_c, 0, 82, 0
2, 2712, Note_on_c, 0, 74, 0
2, 2714, Note_on_c, 0, 60, 0
2, 2723, Note_on_c, 0, 65, 0
2, 2725, Note_on_c, 0, 58, 0
2, 2728, Note_on_c, 0, 54, 0
2, 2770, Note_on_c, 0, 77, 53
2, 2771, Note_on_c, 0, 70, 57
2, 2771, Control_c, 0, 64, 0
2, 2773, Note_on_c, 0, 65, 45
2, 2774, Note_on_c, 0, 74, 51
2, 2776, Note_on_c, 0, 54, 28
2, 2778, Note_on_c, 0, 60, 44
2, 2778, Note_on_c, 0, 58, 32
2, 2785, Note_on_c, 0, 60, 0
2, 2787, Note_on_c, 0, 65, 0
2, 2791, Control_c, 0, 64, 127
2, 2793, Note_on_c, 0, 74, 0
2, 2800, Note_on_c, 0, 77, 0
2, 2801, Note_on_c, 0, 70, 0
2, 2801, Note_on_c, 0, 58, 0
2, 2804, Note_on_c, 0, 54, 0
2, 2891, Note_on_c, 0, 75, 57
2, 2895, Control_c, 0, 64, 0
2, 2896, Note_on_c, 0, 58, 33
2, 2898, Note_on_c, 0, 48, 41
2, 2940, Control_c, 0, 64, 127
2, 3013, Note_on_c, 0, 63, 32
2, 3017, Note_on_c, 0, 67, 34
2, 3032, Note_on_c, 0, 75, 0
2, 3048, Note_on_c, 0, 67, 0
2, 3074, Note_on_c, 0, 63, 0
2, 3108, Note_on_c, 0, 58, 0
2, 3130, Note_on_c, 0, 63, 84
2, 3133, Note_on_c, 0, 60, 87
2, 3133, Note_on_c, 0, 58, 45
2, 3166, Note_on_c, 0, 60, 0
2, 3182, Note_on_c, 0, 58, 0
2, 3199, Note_on_c, 0, 63, 0
2, 3208, Note_on_c, 0, 62, 60
2, 3209, Note_on_c, 0, 65, 58
2, 3212, Note_on_c, 0, 58, 25
2, 3224, Note_on_c, 0, 58, 0
2, 3225, Note_on_c, 0, 62, 0
2, 3232, Note_on_c, 0, 48, 0
2, 3235, Note_on_c, 0, 65, 0
2, 3254, Note_on_c, 0, 67, 59
2, 3256, Control_c, 0, 64, 0
2, 3265, Control_c, 0, 64, 127
2, 3312, Note_on_c, 0, 67, 0
2, 3323, Control_c, 0, 64, 0
2, 3329, Note_on_c, 0, 62, 50
2, 3330, Note_on_c, 0, 55, 37
2, 3332, Note_on_c, 0, 60, 50
2, 3333, Note_on_c, 0, 52, 33
2, 3335, Note_on_c, 0, 45, 30
2, 3355, Note_on_c, 0, 60, 0
2, 3359, Control_c, 0, 64, 127
2, 3363, Note_on_c, 0, 62, 0
2, 3369, Note_on_c, 0, 45, 0
2, 3373, Note_on_c, 0, 52, 0
2, 3385, Note_on_c, 0, 55, 0
2, 3418, Note_on_c, 0, 74, 57
2, 3419, Note_on_c, 0, 64, 57
2, 3421, Note_on_c, 0, 67, 51
2, 3425, Note_on_c, 0, 62, 56
2, 3426, Note_on_c, 0, 64, 0
2, 3427, Note_on_c, 0, 69, 37
2, 3428, Note_on_c, 0, 67, 0
2, 3428, Control_c, 0, 64, 0
2, 3433, Note_on_c, 0, 62, 0
2, 3434, Note_on_c, 0, 69, 0
2, 3438, Note_on_c, 0, 74, 0
2, 3468, Note_on_c, 0, 60, 37
2, 3483, Note_on_c, 0, 60, 0
2, 3493, Note_on_c, 0, 67, 64
2, 3493, Note_on_c, 0, 74, 68
2, 3495, Note_on_c, 0, 64, 67
2, 3495, Note_on_c, 0, 69, 62
2, 3496, Note_on_c, 0, 62, 47
2, 3498, Control_c, 0, 64, 127
2, 3520, Note_on_c, 0, 69, 0
2, 3522, Note_on_c, 0, 67, 0
2, 3529, Note_on_c, 0, 62, 0
2, 3532, Note_on_c, 0, 64, 0
2, 3541, Note_on_c, 0, 74, 0
2, 3564, Note_on_c, 0, 71, 52
2, 3565, Note_on_c, 0, 74, 35
2, 3565, Note_on_c, 0, 68, 56
2, 3565, Note_on_c, 0, 64, 50
2, 3570, Note_on_c, 0, 60, 42
2, 3572, Note_on_c, 0, 54, 39
2, 3575, Control_c, 0, 64, 0
2, 3629, Control_c, 0, 64, 127
2, 3721, Note_on_c, 0, 50, 42
2, 3729, Note_on_c, 0, 50, 0
2, 3734, Note_on_c, 0, 54, 0
2, 3738, Note_on_c, 0, 60, 0
2, 3754, Note_on_c, 0, 71, 0
2, 3757, Note_on_c, 0, 64, 0
2, 3773, Note_on_c, 0, 74, 0
2, 3781, Note_on_c, 0, 68, 0
2, 3797, Note_on_c, 0, 72, 49
2, 3829, Note_on_c, 0, 72, 0
2, 3839, Control_c, 0, 64, 0
2, 3843, Note_on_c, 0, 71, 51
2, 3851, Note_on_c, 0, 71, 0
2, 3918, Note_on_c, 0, 78, 56
2, 3923, Note_on_c, 0, 54, 35
2, 3924, Note_on_c, 0, 62, 22
2, 3929, Note_on_c, 0, 59, 24
2, 3963, Note_on_c, 0, 66, 50
2, 4032, Control_c, 0, 64, 127
2, 4038, Control_c, 0, 64, 0
2, 4043, Note_on_c, 0, 66, 0
2, 4080, Note_on_c, 0, 66, 48
2, 4089, Control_c, 0, 64, 127
2, 4166, Note_on_c, 0, 54, 0
2, 4243, Note_on_c, 0, 62, 0
2, 4247, Note_on_c, 0, 59, 0
2, 4248, Note_on_c, 0, 66, 0
2, 4262, Note_on_c, 0, 78, 0
2, 4326, Control_c, 0, 64, 0
2, 4327, Note_on_c, 0, 78, 83
2, 4329, Note_on_c, 0, 63, 74
2, 4329, Note_on_c, 0, 66, 88
2, 4329, Note_on_c, 0, 54, 67
2, 4331, Note_on_c, 0, 58, 44
2, 4331, Note_on_c, 0, 59, 71
2, 4385, Control_c, 0, 64, 127
2, 4394, Control_c, 0, 64, 0
2, 4396, Control_c, 0, 64, 127
2, 4439, Note_on_c, 0, 66, 0
2, 4450, Note_on_c, 0, 66, 51
2, 4467, Note_on_c, 0, 66, 0
2, 4472, Note_on_c, 0, 78, 0
2, 4503, Note_on_c, 0, 63, 0
2, 4511, Note_on_c, 0, 59, 0
2, 4532, Note_on_c, 0, 63, 33
2, 4535, Note_on_c, 0, 78, 70
2, 4535, Note_on_c, 0, 66, 71
2, 4546, Note_on_c, 0, 66, 0
2, 4550, Note_on_c, 0, 63, 0
2, 4552, Note_on_c, 0, 78, 0
2, 4572, Note_on_c, 0, 63, 37
2, 4573, Control_c, 0, 64, 0
2, 4574, Note_on_c, 0, 68, 85
2, 4574, Note_on_c, 0, 80, 83
2, 4578, Note_on_c, 0, 59, 33
2, 4587, Control_c, 0, 64, 127
2, 4615, Note_on_c, 0, 80, 0
2, 4622, Note_on_c, 0, 63, 0
2, 4623, Note_on_c, 0, 68, 0
2, 4630, Note_on_c, 0, 59, 0
2, 4650, Note_on_c, 0, 78, 43
2, 4653, Note_on_c, 0, 66, 38
2, 4665, Note_on_c, 0, 66, 0
2, 4667, Note_on_c, 0, 78, 0
2, 4681, Control_c, 0, 64, 0
2, 4688, Note_on_c, 0, 63, 42
2, 4689, Note_on_c, 0, 68, 54
2, 4690, Note_on_c, 0, 80, 57
2, 4696, Note_on_c, 0, 59, 24
2, 4702, Control_c, 0, 64, 127
2, 4704, Note_on_c, 0, 58, 0
2, 4710, Note_on_c, 0, 68, 0
2, 4710, Note_on_c, 0, 59, 0
2, 4715, Note_on_c, 0, 80, 0
2, 4724, Note_on_c, 0, 63, 0
2, 4728, Note_on_c, 0, 54, 0
2, 4766, Note_on_c, 0, 82, 56
2, 4766, Note_on_c, 0, 63, 40
2, 4768, Note_on_c, 0, 70, 48
2, 4769, Note_on_c, 0, 60, 51
2, 4770, Note_on_c, 0, 75, 52
2, 4771, Note_on_c, 0, 53, 44
2, 4771, Note_on_c, 0, 79, 49
2, 4772, Control_c, 0, 64, 0
2, 4772, Note_on_c, 0, 56, 38
2, 4818, Control_c, 0, 64, 127
2, 4865, Note_on_c, 0, 79, 0
2, 4874, Note_on_c, 0, 63, 0
2, 4883, Note_on_c, 0, 60, 0
2, 4890, Note_on_c, 0, 82, 0
2, 4902, Note_on_c, 0, 75, 0
2, 4916, Note_on_c, 0, 70, 0
2, 4928, Note_on_c, 0, 56, 0
2, 4953, Note_on_c, 0, 53, 0
2, 5019, Note_on_c, 0, 56, 35
2, 5035, Note_on_c, 0, 56, 0
2, 5036, Control_c, 0, 64, 0
2, 5038, Note_on_c, 0, 70, 67
2, 5041, Note_on_c, 0, 63, 60
2, 5041, Note_on_c, 0, 60, 67
2, 5041, Note_on_c, 0, 67, 51
2, 5043, Note_on_c, 0, 58, 62
2, 5058, Note_on_c, 0, 60, 0
2, 5063, Note_on_c, 0, 63, 0
2, 5065, Note_on_c, 0, 67, 0
2, 5067, Note_on_c, 0, 70, 0
2, 5075, Note_on_c, 0, 58, 0
2, 5092, Note_on_c, 0, 56, 26
2, 5119, Note_on_c, 0, 56, 0
2, 5121, Note_on_c, 0, 63, 69
2, 5122, Note_on_c, 0, 70, 71
2, 5123, Note_on_c, 0, 60, 74
2, 5123, Note_on_c, 0, 67, 62
2, 5123, Note_on_c, 0, 58, 67
2, 5173, Control_c, 0, 64, 127
2, 5286, Note_on_c, 0, 58, 0
2, 5291, Note_on_c, 0, 67, 0
2, 5297, Note_on_c, 0, 70, 0
2, 5305, Note_on_c, 0, 63, 0
2, 5309, Note_on_c, 0, 60, 0
2, 5396, Note_on_c, 0, 67, 42
2, 5396, Note_on_c, 0, 56, 43
2, 5397, Note_on_c, 0, 63, 34
2, 5397, Note_on_c, 0, 60, 53
2, 5400, Note_on_c, 0, 55, 36
2, 5410, Control_c, 0, 64, 0
2, 5473, Control_c, 0, 64, 127
2, 5492, Note_on_c, 0, 55, 0
2, 5493, Note_on_c, 0, 56, 0
2, 5493, Note_on_c, 0, 60, 0
2, 5503, Note_on_c, 0, 67, 0
2, 5505, Note_on_c, 0, 51, 25
2, 5513, Control_c, 0, 64, 0
2, 5517, Note_on_c, 0, 51, 0
2, 5518, Note_on_c, 0, 56, 45
2, 5522, Note_on_c, 0, 53, 44
2, 5522, Note_on_c, 0, 65, 44
2, 5522, Note_on_c, 0, 60, 45
2, 5566, Control_c, 0, 64, 127
2, 5594, Note_on_c, 0, 60, 0
2, 5599, Note_on_c, 0, 56, 0
2, 5601, Note_on_c, 0, 63, 0
2, 5632, Control_c, 0, 64, 0
2, 5636, Note_on_c, 0, 53, 0
2, 5638, Note_on_c, 0, 56, 43
2, 5639, Note_on_c, 0, 63, 50
2, 5639, Note_on_c, 0, 51, 37
2, 5645, Note_on_c, 0, 60, 54
2, 5659, Note_on_c, 0, 51, 0
2, 5661, Control_c, 0, 64, 127
2, 5669, Note_on_c, 0, 60, 0
2, 5674, Note_on_c, 0, 56, 0
2, 5713, Note_on_c, 0, 65, 0
2, 5722, Note_on_c, 0, 63, 0
2, 5759, Control_c, 0, 64, 0
2, 5761, Note_on_c, 0, 62, 49
2, 5763, Note_on_c, 0, 59, 43
2, 5768, Note_on_c, 0, 58, 23
2, 5770, Note_on_c, 0, 48, 31
2, 5779, Note_on_c, 0, 59, 0
2, 5789, Note_on_c, 0, 62, 0
2, 5801, Note_on_c, 0, 65, 55
2, 5810, Note_on_c, 0, 62, 32
2, 5827, Note_on_c, 0, 62, 0
2, 5828, Note_on_c, 0, 65, 0
2, 5843, Note_on_c, 0, 60, 44
2, 5844, Note_on_c, 0, 63, 60
2, 5890, Control_c, 0, 64, 127
2, 5902, Note_on_c, 0, 60, 0
2, 5929, Note_on_c, 0, 63, 0
2, 6043, Note_on_c, 0, 67, 52
2, 6058, Note_on_c, 0, 67, 0
2, 6067, Note_on_c, 0, 58, 0
2, 6076, Note_on_c, 0, 70, 78
2, 6098, Note_on_c, 0, 70, 0
2, 6120, Note_on_c, 0, 70, 83
2, 6124, Note_on_c, 0, 63, 70
2, 6140, Note_on_c, 0, 63, 0
2, 6166, Note_on_c, 0, 70, 0
2, 6247, Note_on_c, 0, 70, 88
2, 6248, Note_on_c, 0, 63, 87
2, 6248, Note_on_c, 0, 62, 94
2, 6249, Control_c, 0, 64, 0
2, 6251, Note_on_c, 0, 58, 55
2, 6301, Control_c, 0, 64, 127
2, 6353, Note_on_c, 0, 70, 0
2, 6446, Note_on_c, 0, 70, 70
2, 6478, Note_on_c, 0, 70, 0
2, 6479, Note_on_c, 0, 63, 0
2, 6493, Note_on_c, 0, 58, 0
2, 6516, Note_on_c, 0, 62, 0
2, 6554, Note_on_c, 0, 72, 90
2, 6574, Note_on_c, 0, 48, 0
2, 6619, Note_on_c, 0, 72, 0
2, 6644, Note_on_c, 0, 70, 35
2, 6656, Note_on_c, 0, 70, 0
2, 6683, Note_on_c, 0, 72, 57
2, 6698, Note_on_c, 0, 72, 0
2, 6726, Control_c, 0, 64, 0
2, 6727, Note_on_c, 0, 71, 56
2, 6728, Note_on_c, 0, 74, 57
2, 6729, Note_on_c, 0, 64, 36
2, 6730, Note_on_c, 0, 67, 49
2, 6730, Note_on_c, 0, 62, 32
2, 6733, Note_on_c, 0, 60, 42
2, 6763, Control_c, 0, 64, 127
2, 6772, Note_on_c, 0, 67, 0
2, 6782, Note_on_c, 0, 71, 0
2, 6785, Note_on_c, 0, 74, 0
2, 6839, Note_on_c, 0, 74, 62
2, 6842, Note_on_c, 0, 86, 66
2, 6860, Note_on_c, 0, 74, 0
2, 6865, Note_on_c, 0, 86, 0
2, 6874, Note_on_c, 0, 64, 0
2, 6880, Note_on_c, 0, 62, 0
2, 6884, Note_on_c, 0, 83, 31
2, 6891, Note_on_c, 0, 83, 0
2, 6895, Note_on_c, 0, 60, 0
2, 6911, Control_c, 0, 64, 0
2, 6915, Note_on_c, 0, 86, 76
2, 6915, Note_on_c, 0, 74, 73
2, 6916, Note_on_c, 0, 60, 19
2, 6916, Note_on_c, 0, 62, 31
2, 6917, Note_on_c, 0, 64, 34
2, 6954, Control_c, 0, 64, 127
2, 6978, Note_on_c, 0, 74, 0
2, 6979, Note_on_c, 0, 86, 0
2, 6980, Note_on_c, 0, 64, 0
2, 6987, Note_on_c, 0, 62, 0
2, 6991, Note_on_c, 0, 60, 0
2, 7000, Note_on_c, 0, 86, 47
2, 7002, Note_on_c, 0, 74, 44
2, 7021, Note_on_c, 0, 74, 0
2, 7024, Note_on_c, 0, 86, 0
2, 7047, Note_on_c, 0, 83, 28
2, 7054, Note_on_c, 0, 83, 0
2, 7073, Control_c, 0, 64, 0
2, 7078, Note_on_c, 0, 74, 69
2, 7078, Note_on_c, 0, 86, 72
2, 7081, Note_on_c, 0, 62, 33
2, 7081, Note_on_c, 0, 64, 36
2, 7082, Note_on_c, 0, 60, 41
2, 7097, Control_c, 0, 64, 127
2, 7120, Note_on_c, 0, 62, 0
2, 7126, Note_on_c, 0, 64, 0
2, 7129, Note_on_c, 0, 60, 0
2, 7146, Note_on_c, 0, 74, 0
2, 7161, Note_on_c, 0, 86, 0
2, 7196, Control_c, 0, 64, 0
2, 7198, Note_on_c, 0, 86, 54
2, 7200, Note_on_c, 0, 76, 41
2, 7205, Note_on_c, 0, 54, 32
2, 7206, Note_on_c, 0, 64, 17
2, 7208, Note_on_c, 0, 60, 33
2, 7221, Note_on_c, 0, 76, 0
2, 7228, Note_on_c, 0, 64, 0
2, 7228, Note_on_c, 0, 86, 0
2, 7228, Note_on_c, 0, 60, 0
2, 7234, Note_on_c, 0, 54, 0
2, 7242, Note_on_c, 0, 83, 32
2, 7254, Note_on_c, 0, 83, 0
2, 7272, Note_on_c, 0, 76, 51
2, 7273, Note_on_c, 0, 86, 59
2, 7274, Note_on_c, 0, 80, 45
2, 7275, Note_on_c, 0, 54, 39
2, 7275, Note_on_c, 0, 64, 34
2, 7277, Note_on_c, 0, 60, 41
2, 7309, Control_c, 0, 64, 127
2, 7331, Note_on_c, 0, 80, 0
2, 7335, Note_on_c, 0, 76, 0
2, 7336, Note_on_c, 0, 86, 0
2, 7340, Note_on_c, 0, 54, 0
2, 7340, Note_on_c, 0, 64, 0
2, 7341, Note_on_c, 0, 60, 0
2, 7357, Note_on_c, 0, 86, 50
2, 7358, Note_on_c, 0, 76, 48
2, 7364, Note_on_c, 0, 54, 30
2, 7365, Note_on_c, 0, 80, 29
2, 7367, Note_on_c, 0, 64, 24
2, 7367, Note_on_c, 0, 60, 45
2, 7371, Note_on_c, 0, 80, 0
2, 7379, Note_on_c, 0, 76, 0
2, 7384, Note_on_c, 0, 86, 0
2, 7386, Note_on_c, 0, 64, 0
2, 7388, Note_on_c, 0, 60, 0
2, 7392, Note_on_c, 0, 54, 0
2, 7400, Note_on_c, 0, 83, 39
2, 7411, Note_on_c, 0, 83, 0
2, 7426, Control_c, 0, 64, 0
2, 7432, Note_on_c, 0, 76, 57
2, 7433, Note_on_c, 0, 86, 57
2, 7433, Note_on_c, 0, 54, 45
2, 7434, Note_on_c, 0, 64, 34
2, 7436, Note_on_c, 0, 80, 40
2, 7437, Note_on_c, 0, 60, 44
2, 7462, Control_c, 0, 64, 127
2, 7511, Note_on_c, 0, 80, 0
2, 7512, Note_on_c, 0, 86, 0
2, 7512, Note_on_c, 0, 76, 0
2, 7512, Note_on_c, 0, 60, 0
2, 7513, Note_on_c, 0, 64, 0
2, 7545, Control_c, 0, 64, 0
2, 7548, Note_on_c, 0, 86, 58
2, 7550, Note_on_c, 0, 76, 52
2, 7552, Note_on_c, 0, 64, 36
2, 7553, Control_c, 0, 64, 127
2, 7554, Note_on_c, 0, 80, 33
2, 7556, Note_on_c, 0, 60, 29
2, 7561, Note_on_c, 0, 80, 0
2, 7565, Note_on_c, 0, 60, 0
2, 7566, Note_on_c, 0, 76, 0
2, 7567, Note_on_c, 0, 64, 0
2, 7572, Note_on_c, 0, 86, 0
2, 7574, Note_on_c, 0, 54, 0
2, 7632, Note_on_c, 0, 78, 71
2, 7633, Control_c, 0, 64, 0
2, 7634, Note_on_c, 0, 86, 62
2, 7634, Note_on_c, 0, 62, 54
2, 7635, Note_on_c, 0, 54, 49
2, 7637, Note_on_c, 0, 83, 50
2, 7639, Note_on_c, 0, 59, 51
2, 7678, Control_c, 0, 64, 127
2, 7744, Note_on_c, 0, 86, 0
2, 7750, Note_on_c, 0, 83, 0
2, 7768, Note_on_c, 0, 78, 0
2, 7851, Note_on_c, 0, 54, 0
2, 7886, Note_on_c, 0, 54, 35
2, 7911, Note_on_c, 0, 62, 0
2, 7931, Note_on_c, 0, 71, 113
2, 7931, Note_on_c, 0, 62, 40
2, 8048, Note_on_c, 0, 59, 0
2, 8055, Note_on_c, 0, 54, 0
2, 8077, Note_on_c, 0, 62, 0
2, 8087, Note_on_c, 0, 71, 0
2, 8094, Note_on_c, 0, 72, 50
2, 8112, Note_on_c, 0, 72, 0
2, 8130, Note_on_c, 0, 74, 47
2, 8159, Control_c, 0, 64, 0
2, 8166, Note_on_c, 0, 74, 0
2, 8169, Note_on_c, 0, 55, 41
2, 8171, Note_on_c, 0, 60, 41
2, 8172, Note_on_c, 0, 57, 45
2, 8174, Note_on_c, 0, 65, 33
2, 8175, Note_on_c, 0, 69, 42
2, 8187, Control_c, 0, 64, 127
2, 8189, Note_on_c, 0, 69, 0
2, 8251, Note_on_c, 0, 81, 80
2, 8279, Note_on_c, 0, 81, 0
2, 8290, Note_on_c, 0, 65, 0
2, 8297, Note_on_c, 0, 72, 44
2, 8311, Note_on_c, 0, 72, 0
2, 8340, Note_on_c, 0, 60, 0
2, 8342, Note_on_c, 0, 57, 0
2, 8370, Note_on_c, 0, 57, 24
2, 8370, Note_on_c, 0, 60, 28
2, 8370, Note_on_c, 0, 77, 55
2, 8371, Note_on_c, 0, 65, 30
2, 8372, Note_on_c, 0, 69, 53
2, 8374, Note_on_c, 0, 72, 48
2, 8378, Control_c, 0, 64, 0
2, 8381, Note_on_c, 0, 72, 0
2, 8385, Note_on_c, 0, 77, 0
2, 8389, Note_on_c, 0, 65, 0
2, 8391, Note_on_c, 0, 69, 0
2, 8399, Note_on_c, 0, 60, 0
2, 8399, Control_c, 0, 64, 127
2, 8418, Note_on_c, 0, 65, 36
2, 8419, Note_on_c, 0, 72, 29
2, 8424, Note_on_c, 0, 60, 31
2, 8443, Note_on_c, 0, 72, 0
2, 8451, Note_on_c, 0, 65, 0
2, 8463, Note_on_c, 0, 60, 0
2, 8474, Note_on_c, 0, 68, 34
2, 8481, Note_on_c, 0, 68, 0
2, 8495, Note_on_c, 0, 55, 0
2, 8496, Note_on_c, 0, 57, 0
2, 8525, Note_on_c, 0, 69, 54
2, 8527, Note_on_c, 0, 60, 45
2, 8529, Note_on_c, 0, 65, 46
2, 8553, Note_on_c, 0, 69, 0
2, 8560, Note_on_c, 0, 65, 0
2, 8582, Note_on_c, 0, 60, 0
2, 8615, Note_on_c, 0, 50, 31
2, 8628, Note_on_c, 0, 50, 0
2, 8646, Note_on_c, 0, 61, 38
2, 8647, Note_on_c, 0, 57, 35
2, 8647, Control_c, 0, 64, 0
2, 8648, Note_on_c, 0, 64, 48
2, 8651, Note_on_c, 0, 55, 28
2, 8651, Note_on_c, 0, 43, 25
2, 8760, Control_c, 0, 64, 127
2, 8790, Note_on_c, 0, 55, 0
2, 8804, Note_on_c, 0, 57, 0
2, 8820, Note_on_c, 0, 64, 0
2, 8834, Note_on_c, 0, 61, 0
2, 8841, Note_on_c, 0, 55, 72
2, 8911, Note_on_c, 0, 55, 0
2, 8940, Note_on_c, 0, 67, 68
2, 8941, Note_on_c, 0, 61, 61
2, 8945, Note_on_c, 0, 64, 56
2, 8954, Note_on_c, 0, 55, 54
2, 8974, Note_on_c, 0, 55, 0
2, 9000, Note_on_c, 0, 67, 0
2, 9003, Note_on_c, 0, 64, 0
2, 9008, Note_on_c, 0, 61, 0
2, 9025, Note_on_c, 0, 69, 60
2, 9037, Note_on_c, 0, 69, 0
2, 9065, Note_on_c, 0, 71, 66
2, 9071, Note_on_c, 0, 71, 0
2, 9116, Note_on_c, 0, 65, 40
2, 9118, Note_on_c, 0, 55, 58
2, 9118, Note_on_c, 0, 63, 54
2, 9119, Note_on_c, 0, 58, 49
2, 9127, Control_c, 0, 64, 0
2, 9233, Control_c, 0, 64, 127
2, 9279, Note_on_c, 0, 55, 0
2, 9298, Note_on_c, 0, 58, 0
2, 9332, Note_on_c, 0, 63, 0
2, 9357, Note_on_c, 0, 63, 38
2, 9358, Note_on_c, 0, 58, 38
2, 9360, Note_on_c, 0, 55, 31
2, 9396, Note_on_c, 0, 55, 0
2, 9438, Note_on_c, 0, 55, 59
2, 9452, Note_on_c, 0, 43, 0
2, 9469, Note_on_c, 0, 55, 0
2, 9479, Note_on_c, 0, 43, 51
2, 9486, Note_on_c, 0, 58, 0
2, 9491, Note_on_c, 0, 43, 0
2, 9538, Note_on_c, 0, 63, 0
2, 9561, Note_on_c, 0, 43, 39
2, 9570, Note_on_c, 0, 43, 0
2, 9591, Note_on_c, 0, 65, 0
2, 9599, Note_on_c, 0, 63, 46
2, 9605, Note_on_c, 0, 55, 46
2, 9605, Note_on_c, 0, 58, 46
2, 9608, Control_c, 0, 64, 0
2, 9609, Note_on_c, 0, 51, 31
2, 9616, Note_on_c, 0, 41, 36
2, 9659, Control_c, 0, 64, 127
2, 9677, Control_c, 0, 64, 0
2, 9694, Note_on_c, 0, 55, 0
2, 9709, Control_c, 0, 64, 127
2, 9716, Note_on_c, 0, 58, 0
2, 9722, Note_on_c, 0, 41, 0
2, 9732, Note_on_c, 0, 63, 0
2, 9736, Note_on_c, 0, 51, 0
2, 9913, Note_on_c, 0, 87, 83
2, 9919, Note_on_c, 0, 82, 80
2, 9919, Note_on_c, 0, 75, 84
2, 9921, Note_on_c, 0, 58, 46
2, 9921, Note_on_c, 0, 63, 55
2, 9921, Note_on_c, 0, 60, 60
2, 9923, Note_on_c, 0, 53, 48
2, 9924, Control_c, 0, 64, 0
2, 9946, Control_c, 0, 64, 127
2, 9958, Note_on_c, 0, 82, 0
2, 9960, Note_on_c, 0, 75, 0
2, 9965, Note_on_c, 0, 87, 0
2, 10002, Note_on_c, 0, 89, 56
2, 10004, Note_on_c, 0, 76, 38
2, 10005, Note_on_c, 0, 77, 38
2, 10005, Note_on_c, 0, 88, 39
2, 10011, Note_on_c, 0, 76, 0
2, 10013, Note_on_c, 0, 88, 0
2, 10013, Note_on_c, 0, 77, 0
2, 10017, Note_on_c, 0, 89, 0
2, 10018, Note_on_c, 0, 53, 0
2, 10026, Note_on_c, 0, 63, 0
2, 10029, Note_on_c, 0, 60, 0
2, 10034, Note_on_c, 0, 58, 0
2, 10036, Note_on_c, 0, 91, 68
2, 10050, Note_on_c, 0, 91, 0
2, 10152, Note_on_c, 0, 86, 70
2, 10152, Note_on_c, 0, 63, 52
2, 10153, Note_on_c, 0, 78, 59
2, 10153, Note_on_c, 0, 81, 64
2, 10154, Note_on_c, 0, 74, 65
2, 10157, Note_on_c, 0, 53, 45
2, 10158, Control_c, 0, 64, 0
2, 10160, Note_on_c, 0, 57, 46
2, 10191, Control_c, 0, 64, 127
2, 10217, Note_on_c, 0, 86, 0
2, 10238, Note_on_c, 0, 86, 73
2, 10242, Note_on_c, 0, 63, 0
2, 10293, Note_on_c, 0, 78, 0
2, 10295, Note_on_c, 0, 74, 0
2, 10297, Note_on_c, 0, 81, 0
2, 10299, Note_on_c, 0, 86, 0
2, 10322, Note_on_c, 0, 86, 53
2, 10322, Note_on_c, 0, 78, 43
2, 10323, Note_on_c, 0, 63, 53
2, 10324, Note_on_c, 0, 81, 53
2, 10326, Note_on_c, 0, 74, 43
2, 10364, Note_on_c, 0, 53, 0
2, 10382, Note_on_c, 0, 86, 0
2, 10399, Note_on_c, 0, 78, 0
2, 10399, Note_on_c, 0, 81, 0
2, 10401, Note_on_c, 0, 74, 0
2, 10409, Note_on_c, 0, 53, 66
2, 10453, Note_on_c, 0, 53, 0
2, 10469, Note_on_c, 0, 63, 0
2, 10508, Note_on_c, 0, 53, 59
2, 10529, Note_on_c, 0, 57, 0
2, 10549, Note_on_c, 0, 53, 0
2, 10661, Note_on_c, 0, 63, 50
2, 10662, Note_on_c, 0, 58, 49
2, 10663, Note_on_c, 0, 55, 53
2, 10667, Note_on_c, 0, 53, 38
2, 10675, Control_c, 0, 64, 0
2, 10710, Control_c, 0, 64, 127
2, 10738, Note_on_c, 0, 55, 0
2, 10744, Note_on_c, 0, 53, 0
2, 10758, Note_on_c, 0, 58, 0
2, 10768, Note_on_c, 0, 63, 0
2, 10791, Note_on_c, 0, 53, 37
2, 10807, Note_on_c, 0, 53, 0
2, 10827, Note_on_c, 0, 63, 78
2, 10828, Note_on_c, 0, 58, 83
2, 10829, Note_on_c, 0, 51, 67
2, 10829, Note_on_c, 0, 55, 81
2, 10830, Control_c, 0, 64, 0
2, 10857, Control_c, 0, 64, 127
2, 10891, Note_on_c, 0, 55, 0
2, 10892, Note_on_c, 0, 63, 0
2, 10900, Note_on_c, 0, 58, 0
2, 10910, Note_on_c, 0, 51, 0
2, 10911, Note_on_c, 0, 53, 55
2, 10913, Note_on_c, 0, 65, 68
2, 10929, Note_on_c, 0, 65, 0
2, 10946, Control_c, 0, 64, 0
2, 10950, Note_on_c, 0, 53, 0
2, 10951, Note_on_c, 0, 55, 71
2, 10952, Note_on_c, 0, 67, 80
2, 10962, Control_c, 0, 64, 127
2, 10978, Note_on_c, 0, 67, 0
2, 10980, Note_on_c, 0, 55, 0
2, 11026, Note_on_c, 0, 69, 76
2, 11026, Note_on_c, 0, 62, 72
2, 11028, Control_c, 0, 64, 0
2, 11028, Note_on_c, 0, 64, 63
2, 11028, Note_on_c, 0, 59, 70
2, 11032, Note_on_c, 0, 57, 62
2, 11077, Control_c, 0, 64, 127
2, 11185, Note_on_c, 0, 57, 0
2, 11211, Note_on_c, 0, 62, 0
2, 11212, Note_on_c, 0, 59, 0
2, 11217, Note_on_c, 0, 69, 0
2, 11232, Note_on_c, 0, 64, 0
2, 11284, Note_on_c, 0, 61, 40
2, 11284, Note_on_c, 0, 58, 34
2, 11285, Control_c, 0, 64, 0
2, 11286, Note_on_c, 0, 64, 38
2, 11287, Note_on_c, 0, 45, 30
2, 11289, Note_on_c, 0, 55, 20
2, 11318, Control_c, 0, 64, 127
2, 11356, Note_on_c, 0, 58, 0
2, 11367, Note_on_c, 0, 45, 0
2, 11373, Note_on_c, 0, 61, 0
2, 11377, Note_on_c, 0, 64, 0
2, 11381, Note_on_c, 0, 55, 0
2, 11524, Control_c, 0, 64, 0
2, 11530, Note_on_c, 0, 65, 50
2, 11531, Note_on_c, 0, 71, 69
2, 11531, Note_on_c, 0, 61, 37
2, 11531, Note_on_c, 0, 81, 66
2, 11532, Note_on_c, 0, 77, 66
2, 11535, Note_on_c, 0, 55, 27
2, 11538, Note_on_c, 0, 71, 0
2, 11542, Note_on_c, 0, 65, 0
2, 11542, Note_on_c, 0, 55, 0
2, 11545, Note_on_c, 0, 77, 0
2, 11550, Note_on_c, 0, 81, 0
2, 11552, Note_on_c, 0, 61, 0
2, 11606, Control_c, 0, 64, 127
2, 11607, Note_on_c, 0, 56, 63
2, 11608, Note_on_c, 0, 66, 60
2, 11610, Note_on_c, 0, 62, 33
2, 11611, Note_on_c, 0, 82, 79
2, 11612, Note_on_c, 0, 73, 76
2, 11614, Note_on_c, 0, 78, 60
2, 11623, Note_on_c, 0, 62, 0
2, 11635, Note_on_c, 0, 78, 0
2, 11636, Note_on_c, 0, 82, 0
2, 11638, Note_on_c, 0, 73, 0
2, 11638, Note_on_c, 0, 66, 0
2, 11644, Note_on_c, 0, 56, 0
2, 11653, Control_c, 0, 64, 0
2, 11659, Note_on_c, 0, 65, 51
2, 11660, Note_on_c, 0, 55, 51
2, 11662, Note_on_c, 0, 81, 64
2, 11663, Note_on_c, 0, 72, 60
2, 11663, Note_on_c, 0, 61, 46
2, 11665, Note_on_c, 0, 77, 51
2, 11672, Note_on_c, 0, 77, 0
2, 11672, Note_on_c, 0, 72, 0
2, 11674, Note_on_c, 0, 81, 0
2, 11675, Note_on_c, 0, 65, 0
2, 11677, Note_on_c, 0, 55, 0
2, 11685, Note_on_c, 0, 61, 0
2, 11722, Control_c, 0, 64, 127
2, 11729, Note_on_c, 0, 79, 60
2, 11732, Note_on_c, 0, 71, 50
2, 11734, Note_on_c, 0, 60, 44
2, 11734, Note_on_c, 0, 64, 32
2, 11735, Note_on_c, 0, 76, 41
2, 11739, Note_on_c, 0, 71, 0
2, 11743, Note_on_c, 0, 76, 0
2, 11743, Note_on_c, 0, 60, 0
2, 11744, Note_on_c, 0, 64, 0
2, 11749, Note_on_c, 0, 79, 0
2, 11760, Control_c, 0, 64, 0
2, 11772, Note_on_c, 0, 55, 59
2, 11775, Note_on_c, 0, 81, 44
2, 11775, Note_on_c, 0, 72, 44
2, 11775, Note_on_c, 0, 65, 47
2, 11777, Note_on_c, 0, 77, 35
2, 11780, Note_on_c, 0, 61, 31
2, 11798, Control_c, 0, 64, 127
2, 11850, Note_on_c, 0, 65, 0
2, 11852, Note_on_c, 0, 72, 0
2, 11854, Note_on_c, 0, 55, 0
2, 11855, Note_on_c, 0, 77, 0
2, 11860, Note_on_c, 0, 81, 0
2, 11865, Note_on_c, 0, 61, 0
2, 11883, Note_on_c, 0, 61, 45
2, 11887, Note_on_c, 0, 65, 52
2, 11887, Note_on_c, 0, 55, 41
2, 11889, Note_on_c, 0, 72, 47
2, 11889, Note_on_c, 0, 77, 44
2, 11889, Note_on_c, 0, 81, 46
2, 11895, Note_on_c, 0, 72, 0
2, 11904, Note_on_c, 0, 77, 0
2, 11905, Note_on_c, 0, 65, 0
2, 11907, Note_on_c, 0, 81, 0
2, 11922, Note_on_c, 0, 55, 0
2, 11925, Note_on_c, 0, 61, 0
2, 11964, Note_on_c, 0, 86, 76
2, 11965, Control_c, 0, 64, 0
2, 11965, Note_on_c, 0, 79, 74
2, 11966, Note_on_c, 0, 64, 58
2, 11966, Note_on_c, 0, 83, 74
2, 11967, Note_on_c, 0, 59, 56
2, 11967, Note_on_c, 0, 74, 66
2, 11968, Note_on_c, 0, 60, 60
2, 11969, Note_on_c, 0, 55, 55
2, 11999, Control_c, 0, 64, 127
2, 12009, Note_on_c, 0, 83, 0
2, 12013, Note_on_c, 0, 79, 0
2, 12025, Note_on_c, 0, 74, 0
2, 12042, Note_on_c, 0, 86, 0
2, 12048, Note_on_c, 0, 85, 53
2, 12061, Note_on_c, 0, 85, 0
2, 12061, Note_on_c, 0, 64, 0
2, 12063, Note_on_c, 0, 60, 0
2, 12063, Note_on_c, 0, 84, 73
2, 12065, Note_on_c, 0, 59, 0
2, 12074, Note_on_c, 0, 55, 0
2, 12087, Note_on_c, 0, 84, 0
2, 12095, Note_on_c, 0, 83, 82
2, 12102, Control_c, 0, 64, 0
2, 12104, Note_on_c, 0, 64, 66
2, 12104, Note_on_c, 0, 60, 70
2, 12106, Note_on_c, 0, 54, 74
2, 12227, Control_c, 0, 64, 127
2, 12269, Note_on_c, 0, 64, 0
2, 12277, Note_on_c, 0, 60, 0
2, 12365, Note_on_c, 0, 64, 24
2, 12368, Note_on_c, 0, 83, 0
2, 12386, Note_on_c, 0, 54, 0
2, 12407, Note_on_c, 0, 64, 0
2, 12483, Control_c, 0, 64, 0
2, 12484, Note_on_c, 0, 66, 34
2, 12485, Note_on_c, 0, 57, 38
2, 12485, Note_on_c, 0, 62, 29
2, 12487, Note_on_c, 0, 71, 57
2, 12512, Control_c, 0, 64, 127
2, 12580, Control_c, 0, 64, 0
2, 12600, Control_c, 0, 64, 127
2, 12647, Note_on_c, 0, 71, 0
2, 12685, Note_on_c, 0, 73, 83
2, 12786, Note_on_c, 0, 71, 73
2, 12801, Control_c, 0, 64, 0
2, 12807, Note_on_c, 0, 73, 0
2, 12826, Control_c, 0, 64, 127
2, 12831, Note_on_c, 0, 66, 0
2, 12864, Note_on_c, 0, 71, 0
2, 12866, Note_on_c, 0, 70, 55
2, 12874, Note_on_c, 0, 62, 0
2, 12885, Note_on_c, 0, 70, 0
2, 12904, Note_on_c, 0, 71, 64
2, 12911, Note_on_c, 0, 62, 33
2, 12921, Note_on_c, 0, 71, 0
2, 12937, Note_on_c, 0, 62, 0
2, 12949, Control_c, 0, 64, 0
2, 12950, Note_on_c, 0, 76, 68
2, 12951, Note_on_c, 0, 57, 0
2, 12952, Note_on_c, 0, 65, 58
2, 12956, Note_on_c, 0, 64, 56
2, 12957, Note_on_c, 0, 71, 43
2, 12958, Note_on_c, 0, 72, 37
2, 12980, Note_on_c, 0, 72, 0
2, 12986, Control_c, 0, 64, 127
2, 13079, Note_on_c, 0, 64, 0
2, 13114, Note_on_c, 0, 65, 0
2, 13120, Note_on_c, 0, 76, 0
2, 13122, Note_on_c, 0, 71, 0
2, 13210, Note_on_c, 0, 77, 49
2, 13214, Control_c, 0, 64, 0
2, 13214, Note_on_c, 0, 69, 46
2, 13215, Note_on_c, 0, 50, 43
2, 13216, Note_on_c, 0, 60, 34
2, 13217, Note_on_c, 0, 65, 39
2, 13251, Control_c, 0, 64, 127
2, 13315, Note_on_c, 0, 50, 0
2, 13325, Note_on_c, 0, 65, 0
2, 13332, Note_on_c, 0, 60, 0
2, 13336, Note_on_c, 0, 69, 0
2, 13353, Note_on_c, 0, 77, 0
2, 13534, Note_on_c, 0, 68, 67
2, 13536, Note_on_c, 0, 78, 80
2, 13536, Note_on_c, 0, 66, 67
2, 13537, Note_on_c, 0, 75, 83
2, 13537, Note_on_c, 0, 64, 64
2, 13538, Note_on_c, 0, 71, 85
2, 13547, Control_c, 0, 64, 0
2, 13583, Control_c, 0, 64, 127
2, 13603, Note_on_c, 0, 78, 0
2, 13619, Note_on_c, 0, 78, 67
2, 13670, Note_on_c, 0, 78, 0
2, 13703, Note_on_c, 0, 78, 63
2, 13752, Note_on_c, 0, 75, 0
2, 13754, Note_on_c, 0, 68, 0
2, 13759, Note_on_c, 0, 78, 0
2, 13766, Note_on_c, 0, 71, 0
2, 13775, Note_on_c, 0, 76, 64
2, 13781, Note_on_c, 0, 78, 23
2, 13796, Note_on_c, 0, 66, 0
2, 13802, Note_on_c, 0, 64, 0
2, 13828, Note_on_c, 0, 76, 0
2, 13840, Note_on_c, 0, 78, 0
2, 13850, Note_on_c, 0, 71, 50
2, 13866, Note_on_c, 0, 71, 0
2, 13929, Note_on_c, 0, 75, 69
2, 13932, Note_on_c, 0, 70, 59
2, 13932, Note_on_c, 0, 64, 52
2, 13933, Note_on_c, 0, 68, 47
2, 13934, Note_on_c, 0, 63, 46
2, 13935, Control_c, 0, 64, 0
2, 14043, Control_c, 0, 64, 127
2, 14095, Note_on_c, 0, 70, 0
2, 14096, Note_on_c, 0, 68, 0
2, 14107, Note_on_c, 0, 64, 0
2, 14141, Note_on_c, 0, 63, 0
2, 14152, Note_on_c, 0, 75, 0
2, 14157, Note_on_c, 0, 70, 35
2, 14161, Note_on_c, 0, 68, 34
2, 14167, Note_on_c, 0, 64, 32
2, 14181, Note_on_c, 0, 70, 0
2, 14184, Note_on_c, 0, 68, 0
2, 14356, Note_on_c, 0, 66, 36
2, 14360, Note_on_c, 0, 64, 0
2, 14382, Note_on_c, 0, 66, 0
2, 14404, Note_on_c, 0, 69, 49
2, 14406, Note_on_c, 0, 61, 46
2, 14406, Control_c, 0, 64, 0
2, 14407, Note_on_c, 0, 66, 42
2, 14409, Note_on_c, 0, 52, 40
2, 14411, Note_on_c, 0, 62, 45
2, 14444, Control_c, 0, 64, 127
2, 14467, Note_on_c, 0, 62, 0
2, 14472, Note_on_c, 0, 61, 0
2, 14479, Note_on_c, 0, 69, 0
2, 14482, Note_on_c, 0, 66, 0
2, 14609, Note_on_c, 0, 81, 83
2, 14634, Note_on_c, 0, 81, 0
2, 14649, Note_on_c, 0, 81, 66
2, 14656, Note_on_c, 0, 78, 70
2, 14656, Note_on_c, 0, 80, 37
2, 14662, Note_on_c, 0, 74, 74
2, 14668, Note_on_c, 0, 73, 56
2, 14740, Note_on_c, 0, 64, 46
2, 14760, Note_on_c, 0, 64, 0
2, 14809, Note_on_c, 0, 80, 0
2, 14811, Note_on_c, 0, 81, 0
2, 14816, Note_on_c, 0, 73, 0
2, 14821, Note_on_c, 0, 78, 0
2, 14821, Note_on_c, 0, 74, 0
2, 14840, Note_on_c, 0, 81, 70
2, 14857, Note_on_c, 0, 81, 0
2, 14889, Note_on_c, 0, 79, 71
2, 14891, Note_on_c, 0, 76, 72
2, 14893, Control_c, 0, 64, 0
2, 14896, Note_on_c, 0, 72, 68
2, 14901, Note_on_c, 0, 64, 35
2, 14902, Note_on_c, 0, 71, 57
2, 14927, Control_c, 0, 64, 127
2, 14986, Note_on_c, 0, 64, 0
2, 15082, Note_on_c, 0, 64, 50
2, 15127, Note_on_c, 0, 64, 0
2, 15158, Note_on_c, 0, 64, 46
2, 15197, Note_on_c, 0, 64, 0
2, 15216, Note_on_c, 0, 72, 0
2, 15222, Note_on_c, 0, 76, 0
2, 15228, Note_on_c, 0, 79, 0
2, 15232, Note_on_c, 0, 71, 0
2, 15239, Note_on_c, 0, 64, 42
2, 15266, Note_on_c, 0, 64, 0
2, 15314, Note_on_c, 0, 78, 75
2, 15319, Note_on_c, 0, 73, 79
2, 15320, Note_on_c, 0, 74, 71
2, 15321, Note_on_c, 0, 64, 56
2, 15325, Note_on_c, 0, 69, 71
2, 15325, Control_c, 0, 64, 0
2, 15357, Control_c, 0, 64, 127
2, 15372, Note_on_c, 0, 64, 0
2, 15395, Note_on_c, 0, 64, 38
2, 15425, Note_on_c, 0, 64, 0
2, 15478, Note_on_c, 0, 64, 55
2, 15517, Note_on_c, 0, 64, 0
2, 15562, Note_on_c, 0, 64, 46
2, 15600, Note_on_c, 0, 64, 0
2, 15640, Note_on_c, 0, 64, 48
2, 15679, Note_on_c, 0, 78, 0
2, 15679, Note_on_c, 0, 74, 0
2, 15683, Note_on_c, 0, 64, 0
2, 15701, Note_on_c, 0, 73, 0
2, 15720, Note_on_c, 0, 64, 45
2, 15727, Note_on_c, 0, 69, 0
2, 15750, Note_on_c, 0, 64, 0
2, 15794, Note_on_c, 0, 76, 66
2, 15799, Note_on_c, 0, 71, 64
2, 15800, Note_on_c, 0, 72, 58
2, 15801, Note_on_c, 0, 67, 60
2, 15801, Note_on_c, 0, 64, 52
2, 15804, Control_c, 0, 64, 0
2, 15839, Control_c, 0, 64, 127
2, 15850, Note_on_c, 0, 64, 0
2, 15876, Note_on_c, 0, 64, 38
2, 15907, Note_on_c, 0, 64, 0
2, 15958, Note_on_c, 0, 64, 53
2, 15988, Note_on_c, 0, 64, 0
2, 16038, Note_on_c, 0, 64, 58
2, 16068, Note_on_c, 0, 64, 0
2, 16119, Note_on_c, 0, 64, 58
2, 16152, Note_on_c, 0, 64, 0
2, 16204, Note_on_c, 0, 76, 0
2, 16204, Note_on_c, 0, 64, 54
2, 16206, Note_on_c, 0, 72, 0
2, 16206, Note_on_c, 0, 67, 0
2, 16207, Note_on_c, 0, 71, 0
2, 16237, Note_on_c, 0, 52, 0
2, 16280, Note_on_c, 0, 64, 0
2, 16284, Note_on_c, 0, 52, 51
2, 16301, Note_on_c, 0, 52, 0
2, 16332, Note_on_c, 0, 72, 54
2, 16333, Note_on_c, 0, 61, 47
2, 16333, Note_on_c, 0, 68, 52
2, 16334, Note_on_c, 0, 65, 56
2, 16334, Note_on_c, 0, 60, 49
2, 16338, Note_on_c, 0, 51, 46
2, 16338, Control_c, 0, 64, 0
2, 16393, Control_c, 0, 64, 127
2, 16415, Control_c, 0, 64, 0
2, 16432, Control_c, 0, 64, 127
2, 16435, Note_on_c, 0, 61, 0
2, 16441, Note_on_c, 0, 65, 0
2, 16454, Note_on_c, 0, 72, 0
2, 16455, Note_on_c, 0, 68, 0
2, 16509, Note_on_c, 0, 60, 0
2, 16513, Note_on_c, 0, 51, 0
2, 16642, Note_on_c, 0, 84, 94
2, 16643, Note_on_c, 0, 72, 96
2, 16677, Note_on_c, 0, 84, 0
2, 16679, Note_on_c, 0, 72, 0
2, 16725, Note_on_c, 0, 85, 64
2, 16726, Note_on_c, 0, 73, 47
2, 16736, Note_on_c, 0, 73, 0
2, 16738, Note_on_c, 0, 85, 0
2, 16761, Note_on_c, 0, 75, 84
2, 16761, Note_on_c, 0, 87, 85
2, 16786, Note_on_c, 0, 87, 0
2, 16803, Note_on_c, 0, 75, 0
2, 16891, Note_on_c, 0, 62, 64
2, 16892, Note_on_c, 0, 70, 70
2, 16894, Note_on_c, 0, 65, 62
2, 16894, Note_on_c, 0, 59, 64
2, 16896, Note_on_c, 0, 58, 59
2, 16905, Control_c, 0, 64, 0
2, 16961, Control_c, 0, 64, 127
2, 17038, Note_on_c, 0, 58, 0
2, 17064, Note_on_c, 0, 51, 37
2, 17066, Control_c, 0, 64, 0
2, 17090, Control_c, 0, 64, 127
2, 17107, Note_on_c, 0, 65, 0
2, 17109, Note_on_c, 0, 59, 0
2, 17113, Note_on_c, 0, 62, 0
2, 17145, Note_on_c, 0, 59, 36
2, 17146, Note_on_c, 0, 65, 36
2, 17147, Note_on_c, 0, 62, 31
2, 17198, Note_on_c, 0, 51, 0
2, 17242, Note_on_c, 0, 59, 0
2, 17242, Note_on_c, 0, 51, 47
2, 17244, Note_on_c, 0, 62, 0
2, 17284, Note_on_c, 0, 65, 0
2, 17326, Note_on_c, 0, 51, 0
2, 17367, Note_on_c, 0, 65, 44
2, 17370, Note_on_c, 0, 60, 35
2, 17371, Note_on_c, 0, 62, 31
2, 17372, Note_on_c, 0, 51, 26
2, 17380, Control_c, 0, 64, 0
2, 17416, Control_c, 0, 64, 127
2, 17459, Note_on_c, 0, 60, 0
2, 17466, Note_on_c, 0, 62, 0
2, 17474, Note_on_c, 0, 65, 0
2, 17479, Note_on_c, 0, 58, 33
2, 17491, Note_on_c, 0, 70, 0
2, 17525, Note_on_c, 0, 67, 103
2, 17583, Note_on_c, 0, 67, 0
2, 17605, Note_on_c, 0, 68, 87
2, 17626, Note_on_c, 0, 58, 0
2, 17640, Note_on_c, 0, 51, 0
2, 17662, Note_on_c, 0, 68, 0
2, 17677, Note_on_c, 0, 70, 74
2, 17695, Note_on_c, 0, 70, 0
2, 17754, Note_on_c, 0, 56, 52
2, 17757, Note_on_c, 0, 65, 51
2, 17759, Note_on_c, 0, 60, 55
2, 17759, Note_on_c, 0, 62, 42
2, 17761, Control_c, 0, 64, 0
2, 17836, Note_on_c, 0, 55, 55
2, 17845, Note_on_c, 0, 55, 0
2, 17876, Note_on_c, 0, 43, 43
2, 17907, Note_on_c, 0, 60, 0
2, 17908, Control_c, 0, 64, 127
2, 17909, Note_on_c, 0, 62, 0
2, 17959, Note_on_c, 0, 56, 0
2, 17979, Note_on_c, 0, 65, 0
2, 17989, Control_c, 0, 64, 0
2, 17997, Note_on_c, 0, 61, 42
2, 17999, Note_on_c, 0, 56, 32
2, 18002, Note_on_c, 0, 53, 28
2, 18002, Note_on_c, 0, 59, 40
2, 18021, Control_c, 0, 64, 127
2, 18042, Note_on_c, 0, 53, 0
2, 18071, Note_on_c, 0, 56, 0
2, 18073, Note_on_c, 0, 59, 0
2, 18074, Note_on_c, 0, 61, 0
2, 18080, Note_on_c, 0, 43, 0
2, 18082, Note_on_c, 0, 50, 38
2, 18099, Note_on_c, 0, 50, 0
2, 18107, Control_c, 0, 64, 0
2, 18109, Note_on_c, 0, 47, 42
2, 18114, Note_on_c, 0, 56, 38
2, 18115, Note_on_c, 0, 62, 38
2, 18119, Note_on_c, 0, 59, 33
2, 18142, Control_c, 0, 64, 127
2, 18161, Note_on_c, 0, 59, 0
2, 18162, Note_on_c, 0, 56, 0
2, 18179, Note_on_c, 0, 62, 0
2, 18225, Note_on_c, 0, 47, 0
2, 18230, Control_c, 0, 64, 0
2, 18236, Note_on_c, 0, 63, 47
2, 18239, Note_on_c, 0, 48, 34
2, 18241, Note_on_c, 0, 58, 29
2, 18249, Control_c, 0, 64, 127
2, 18250, Note_on_c, 0, 58, 0
2, 18251, Note_on_c, 0, 48, 0
2, 18264, Note_on_c, 0, 63, 0
2, 18365, Note_on_c, 0, 62, 30
2, 18366, Note_on_c, 0, 67, 33
2, 18368, Note_on_c, 0, 63, 35
2, 18454, Note_on_c, 0, 67, 0
2, 18465, Note_on_c, 0, 62, 0
2, 18480, Note_on_c, 0, 67, 36
2, 18481, Control_c, 0, 64, 0
2, 18483, Note_on_c, 0, 74, 94
2, 18487, Note_on_c, 0, 60, 49
2, 18514, Note_on_c, 0, 74, 0
2, 18516, Control_c, 0, 64, 127
2, 18520, Note_on_c, 0, 71, 52
2, 18529, Note_on_c, 0, 67, 0
2, 18531, Note_on_c, 0, 71, 0
2, 18546, Note_on_c, 0, 63, 0
2, 18552, Note_on_c, 0, 72, 58
2, 18582, Note_on_c, 0, 74, 74
2, 18586, Note_on_c, 0, 72, 0
2, 18589, Control_c, 0, 64, 0
2, 18594, Note_on_c, 0, 63, 31
2, 18604, Note_on_c, 0, 74, 0
2, 18611, Control_c, 0, 64, 127
2, 18614, Note_on_c, 0, 75, 64
2, 18624, Note_on_c, 0, 63, 0
2, 18626, Note_on_c, 0, 75, 0
2, 18629, Note_on_c, 0, 60, 0
2, 18646, Note_on_c, 0, 77, 51
2, 18665, Note_on_c, 0, 77, 0
2, 18676, Note_on_c, 0, 82, 49
2, 18692, Note_on_c, 0, 82, 0
2, 18708, Control_c, 0, 64, 0
2, 18711, Note_on_c, 0, 84, 38
2, 18712, Note_on_c, 0, 86, 50
2, 18718, Note_on_c, 0, 60, 45
2, 18718, Note_on_c, 0, 54, 39
2, 18718, Note_on_c, 0, 65, 28
2, 18719, Note_on_c, 0, 84, 0
2, 18722, Note_on_c, 0, 58, 25
2, 18725, Note_on_c, 0, 86, 0
2, 18741, Note_on_c, 0, 89, 41
2, 18760, Control_c, 0, 64, 127
2, 18769, Note_on_c, 0, 89, 0
2, 18773, Note_on_c, 0, 94, 55
2, 18787, Note_on_c, 0, 65, 0
2, 18788, Note_on_c, 0, 94, 0
2, 18804, Note_on_c, 0, 98, 80
2, 18805, Note_on_c, 0, 60, 0
2, 18820, Note_on_c, 0, 98, 0
2, 18847, Control_c, 0, 64, 0
2, 18852, Note_on_c, 0, 98, 87
2, 18854, Note_on_c, 0, 65, 40
2, 18860, Note_on_c, 0, 60, 30
2, 18862, Note_on_c, 0, 65, 0
2, 18865, Note_on_c, 0, 98, 0
2, 18869, Note_on_c, 0, 60, 0
2, 18895, Note_on_c, 0, 98, 90
2, 18899, Control_c, 0, 64, 127
2, 18911, Note_on_c, 0, 98, 0
2, 18937, Note_on_c, 0, 94, 78
2, 18951, Note_on_c, 0, 94, 0
2, 18964, Control_c, 0, 64, 0
2, 18977, Note_on_c, 0, 94, 77
2, 18977, Note_on_c, 0, 65, 36
2, 18981, Note_on_c, 0, 60, 37
2, 18992, Note_on_c, 0, 65, 0
2, 18997, Note_on_c, 0, 60, 0
2, 18998, Note_on_c, 0, 94, 0
2, 19011, Note_on_c, 0, 89, 71
2, 19023, Note_on_c, 0, 89, 0
2, 19041, Control_c, 0, 64, 127
2, 19051, Note_on_c, 0, 89, 80
2, 19070, Note_on_c, 0, 58, 0
2, 19071, Note_on_c, 0, 89, 0
2, 19088, Note_on_c, 0, 86, 61
2, 19088, Note_on_c, 0, 60, 44
2, 19092, Note_on_c, 0, 58, 25
2, 19093, Control_c, 0, 64, 0
2, 19096, Note_on_c, 0, 86, 0
2, 19113, Note_on_c, 0, 60, 0
2, 19121, Control_c, 0, 64, 127
2, 19123, Note_on_c, 0, 86, 68
2, 19126, Note_on_c, 0, 54, 0
2, 19131, Note_on_c, 0, 58, 0
2, 19137, Note_on_c, 0, 86, 0
2, 19160, Note_on_c, 0, 82, 64
2, 19175, Note_on_c, 0, 82, 0
2, 19194, Note_on_c, 0, 82, 62
2, 19200, Control_c, 0, 64, 0
2, 19213, Note_on_c, 0, 82, 0
2, 19233, Note_on_c, 0, 83, 56
2, 19241, Note_on_c, 0, 83, 0
2, 19268, Note_on_c, 0, 83, 71
2, 19283, Note_on_c, 0, 83, 0
2, 19301, Note_on_c, 0, 86, 82
2, 19305, Note_on_c, 0, 67, 55
2, 19308, Note_on_c, 0, 63, 35
2, 19309, Note_on_c, 0, 62, 38
2, 19311, Note_on_c, 0, 60, 49
2, 19312, Note_on_c, 0, 67, 0
2, 19317, Note_on_c, 0, 62, 0
2, 19318, Note_on_c, 0, 60, 0
2, 19319, Note_on_c, 0, 86, 0
2, 19321, Note_on_c, 0, 63, 0
2, 19338, Note_on_c, 0, 86, 76
2, 19359, Note_on_c, 0, 86, 0
2, 19377, Note_on_c, 0, 84, 52
2, 19380, Note_on_c, 0, 83, 40
2, 19388, Note_on_c, 0, 83, 0
2, 19392, Note_on_c, 0, 84, 0
2, 19412, Note_on_c, 0, 79, 71
2, 19419, Control_c, 0, 64, 127
2, 19441, Note_on_c, 0, 79, 0
2, 19441, Control_c, 0, 64, 0
2, 19450, Note_on_c, 0, 48, 36
2, 19450, Note_on_c, 0, 58, 28
2, 19452, Note_on_c, 0, 77, 53
2, 19461, Note_on_c, 0, 48, 0
2, 19468, Control_c, 0, 64, 127
2, 19470, Note_on_c, 0, 58, 0
2, 19483, Note_on_c, 0, 77, 0
2, 19498, Control_c, 0, 64, 0
2, 19519, Note_on_c, 0, 75, 74
2, 19520, Control_c, 0, 64, 127
2, 19540, Note_on_c, 0, 75, 0
2, 19550, Control_c, 0, 64, 0
2, 19560, Note_on_c, 0, 48, 31
2, 19562, Note_on_c, 0, 74, 46
2, 19567, Note_on_c, 0, 48, 0
2, 19571, Control_c, 0, 64, 127
2, 19580, Note_on_c, 0, 74, 0
2, 19587, Note_on_c, 0, 75, 56
2, 19607, Control_c, 0, 64, 0
2, 19610, Note_on_c, 0, 74, 33
2, 19615, Note_on_c, 0, 75, 0
2, 19621, Control_c, 0, 64, 127
2, 19643, Note_on_c, 0, 74, 0
2, 19643, Note_on_c, 0, 72, 58
2, 19659, Note_on_c, 0, 72, 0
2, 19669, Control_c, 0, 64, 0
2, 19670, Note_on_c, 0, 64, 38
2, 19675, Note_on_c, 0, 55, 34
2, 19676, Note_on_c, 0, 60, 35
2, 19679, Note_on_c, 0, 74, 60
2, 19726, Control_c, 0, 64, 127
2, 19755, Note_on_c, 0, 74, 0
2, 19759, Note_on_c, 0, 71, 47
2, 19761, Note_on_c, 0, 60, 0
2, 19762, Note_on_c, 0, 64, 0
2, 19777, Note_on_c, 0, 71, 0
2, 19782, Control_c, 0, 64, 0
2, 19804, Note_on_c, 0, 55, 0
2, 19810, Control_c, 0, 64, 127
2, 19832, Note_on_c, 0, 76, 65
2, 19839, Control_c, 0, 64, 0
2, 19851, Note_on_c, 0, 76, 0
2, 19861, Control_c, 0, 64, 127
2, 19872, Note_on_c, 0, 79, 80
2, 19872, Note_on_c, 0, 55, 53
2, 19875, Note_on_c, 0, 64, 28
2, 19878, Note_on_c, 0, 60, 36
2, 19883, Note_on_c, 0, 55, 0
2, 19884, Note_on_c, 0, 60, 0
2, 19885, Note_on_c, 0, 64, 0
2, 19887, Note_on_c, 0, 79, 0
2, 19913, Control_c, 0, 64, 0
2, 19920, Note_on_c, 0, 83, 74
2, 19921, Note_on_c, 0, 54, 54
2, 19922, Note_on_c, 0, 64, 34
2, 19922, Note_on_c, 0, 60, 35
2, 19952, Note_on_c, 0, 83, 0
2, 19953, Control_c, 0, 64, 127
2, 19958, Note_on_c, 0, 86, 66
2, 19992, Note_on_c, 0, 86, 0
2, 20011, Note_on_c, 0, 64, 0
2, 20015, Note_on_c, 0, 54, 0
2, 20025, Note_on_c, 0, 60, 0
2, 20036, Control_c, 0, 64, 0
2, 20040, Note_on_c, 0, 89, 91
2, 20043, Note_on_c, 0, 65, 36
2, 20045, Note_on_c, 0, 54, 36
2, 20045, Note_on_c, 0, 60, 33
2, 20063, Note_on_c, 0, 65, 0
2, 20064, Note_on_c, 0, 89, 0
2, 20068, Control_c, 0, 64, 127
2, 20071, Note_on_c, 0, 87, 77
2, 20090, Note_on_c, 0, 60, 0
2, 20104, Note_on_c, 0, 82, 54
2, 20108, Note_on_c, 0, 87, 0
2, 20119, Note_on_c, 0, 54, 0
2, 20134, Note_on_c, 0, 82, 0
2, 20136, Note_on_c, 0, 77, 33
2, 20150, Note_on_c, 0, 77, 0
2, 20152, Control_c, 0, 64, 0
2, 20159, Note_on_c, 0, 62, 31
2, 20160, Note_on_c, 0, 59, 28
2, 20161, Note_on_c, 0, 54, 36
2, 20162, Note_on_c, 0, 86, 80
2, 20189, Note_on_c, 0, 86, 0
2, 20198, Note_on_c, 0, 83, 65
2, 20206, Control_c, 0, 64, 127
2, 20225, Note_on_c, 0, 83, 0
2, 20229, Note_on_c, 0, 78, 38
2, 20252, Note_on_c, 0, 62, 0
2, 20256, Note_on_c, 0, 78, 0
2, 20261, Note_on_c, 0, 74, 33
2, 20277, Note_on_c, 0, 74, 0
2, 20278, Control_c, 0, 64, 0
2, 20287, Note_on_c, 0, 78, 74
2, 20287, Note_on_c, 0, 62, 25
2, 20336, Note_on_c, 0, 62, 0
2, 20344, Control_c, 0, 64, 127
2, 20360, Note_on_c, 0, 74, 68
2, 20365, Note_on_c, 0, 78, 0
2, 20365, Note_on_c, 0, 62, 32
2, 20389, Control_c, 0, 64, 0
2, 20395, Note_on_c, 0, 74, 0
2, 20399, Note_on_c, 0, 62, 0
2, 20406, Note_on_c, 0, 71, 49
2, 20421, Control_c, 0, 64, 127
2, 20465, Note_on_c, 0, 71, 0
2, 20467, Note_on_c, 0, 59, 0
2, 20484, Note_on_c, 0, 66, 51
2, 20492, Note_on_c, 0, 62, 24
2, 20493, Note_on_c, 0, 59, 34
2, 20503, Note_on_c, 0, 62, 0
2, 20517, Control_c, 0, 64, 0
2, 20523, Note_on_c, 0, 66, 0
2, 20532, Note_on_c, 0, 62, 26
2, 20536, Control_c, 0, 64, 127
2, 20540, Note_on_c, 0, 54, 0
2, 20580, Control_c, 0, 64, 0
2, 20596, Control_c, 0, 64, 127
2, 20606, Note_on_c, 0, 54, 40
2, 20608, Note_on_c, 0, 59, 0
2, 20622, Note_on_c, 0, 54, 0
2, 20633, Note_on_c, 0, 62, 0
2, 20643, Note_on_c, 0, 58, 47
2, 20643, Control_c, 0, 64, 0
2, 20646, Note_on_c, 0, 63, 62
2, 20648, Note_on_c, 0, 59, 26
2, 20689, Note_on_c, 0, 54, 1
2, 20692, Control_c, 0, 64, 127
2, 20720, Note_on_c, 0, 63, 0
2, 20723, Note_on_c, 0, 59, 0
2, 20727, Note_on_c, 0, 65, 47
2, 20741, Note_on_c, 0, 63, 33
2, 20745, Note_on_c, 0, 65, 0
2, 20757, Control_c, 0, 64, 0
2, 20770, Note_on_c, 0, 62, 38
2, 20772, Note_on_c, 0, 59, 35
2, 20780, Note_on_c, 0, 63, 0
2, 20796, Note_on_c, 0, 59, 0
2, 20815, Control_c, 0, 64, 127
2, 20841, Note_on_c, 0, 62, 0
2, 20846, Note_on_c, 0, 63, 59
2, 20851, Note_on_c, 0, 54, 0
2, 20871, Note_on_c, 0, 63, 0
2, 20884, Control_c, 0, 64, 0
2, 20884, Note_on_c, 0, 59, 13
2, 20884, Note_on_c, 0, 63, 42
2, 20887, Note_on_c, 0, 53, 31
2, 20888, Note_on_c, 0, 65, 49
2, 20924, Note_on_c, 0, 66, 62
2, 20928, Note_on_c, 0, 65, 0
2, 20935, Control_c, 0, 64, 127
2, 20937, Note_on_c, 0, 63, 0
2, 20949, Note_on_c, 0, 66, 0
2, 20956, Note_on_c, 0, 58, 0
2, 20958, Note_on_c, 0, 59, 0
2, 20958, Note_on_c, 0, 68, 71
2, 20989, Note_on_c, 0, 63, 46
2, 20995, Note_on_c, 0, 59, 36
2, 20999, Control_c, 0, 64, 0
2, 21000, Note_on_c, 0, 70, 59
2, 21006, Note_on_c, 0, 68, 0
2, 21008, Control_c, 0, 64, 127
2, 21018, Note_on_c, 0, 53, 0
2, 21021, Note_on_c, 0, 59, 0
2, 21022, Note_on_c, 0, 70, 0
2, 21037, Note_on_c, 0, 71, 54
2, 21038, Note_on_c, 0, 63, 0
2, 21063, Note_on_c, 0, 71, 0
2, 21083, Note_on_c, 0, 72, 66
2, 21083, Note_on_c, 0, 63, 35
2, 21085, Note_on_c, 0, 56, 34
2, 21087, Note_on_c, 0, 67, 18
2, 21088, Note_on_c, 0, 60, 52
2, 21088, Control_c, 0, 64, 0
2, 21121, Note_on_c, 0, 72, 0
2, 21133, Note_on_c, 0, 74, 34
2, 21152, Note_on_c, 0, 74, 0
2, 21168, Note_on_c, 0, 75, 73
2, 21181, Note_on_c, 0, 67, 0
2, 21198, Note_on_c, 0, 75, 0
2, 21206, Note_on_c, 0, 63, 0
2, 21207, Note_on_c, 0, 77, 67
2, 21210, Note_on_c, 0, 65, 60
2, 21211, Note_on_c, 0, 60, 0
2, 21237, Note_on_c, 0, 65, 0
2, 21239, Note_on_c, 0, 77, 0
2, 21241, Control_c, 0, 64, 127
2, 21277, Control_c, 0, 64, 0
2, 21289, Note_on_c, 0, 79, 72
2, 21292, Note_on_c, 0, 67, 61
2, 21317, Control_c, 0, 64, 127
2, 21318, Note_on_c, 0, 67, 0
2, 21323, Note_on_c, 0, 79, 0
2, 21330, Note_on_c, 0, 75, 35
2, 21352, Note_on_c, 0, 75, 0
2, 21358, Control_c, 0, 64, 0
2, 21366, Note_on_c, 0, 80, 71
2, 21368, Note_on_c, 0, 68, 69
2, 21368, Note_on_c, 0, 63, 36
2, 21383, Note_on_c, 0, 63, 0
2, 21391, Note_on_c, 0, 68, 0
2, 21393, Note_on_c, 0, 80, 0
2, 21397, Note_on_c, 0, 56, 0
2, 21398, Control_c, 0, 64, 127
2, 21445, Control_c, 0, 64, 0
2, 21447, Note_on_c, 0, 82, 77
2, 21448, Note_on_c, 0, 70, 71
2, 21469, Note_on_c, 0, 70, 0
2, 21476, Control_c, 0, 64, 127
2, 21499, Note_on_c, 0, 82, 0
2, 21526, Note_on_c, 0, 84, 74
2, 21527, Control_c, 0, 64, 0
2, 21530, Note_on_c, 0, 72, 54
2, 21530, Note_on_c, 0, 63, 39
2, 21531, Note_on_c, 0, 56, 28
2, 21532, Note_on_c, 0, 60, 38
2, 21533, Note_on_c, 0, 78, 23
2, 21540, Note_on_c, 0, 60, 0
2, 21542, Note_on_c, 0, 72, 0
2, 21543, Note_on_c, 0, 78, 0
2, 21546, Note_on_c, 0, 63, 0
2, 21551, Note_on_c, 0, 84, 0
2, 21556, Note_on_c, 0, 56, 0
2, 21558, Control_c, 0, 64, 127
2, 21596, Control_c, 0, 64, 0
2, 21602, Note_on_c, 0, 86, 76
2, 21604, Note_on_c, 0, 67, 47
2, 21604, Note_on_c, 0, 74, 66
2, 21604, Note_on_c, 0, 63, 34
2, 21606, Note_on_c, 0, 56, 32
2, 21608, Note_on_c, 0, 60, 42
2, 21614, Note_on_c, 0, 67, 0
2, 21616, Note_on_c, 0, 60, 0
2, 21621, Note_on_c, 0, 63, 0
2, 21625, Note_on_c, 0, 56, 0
2, 21628, Control_c, 0, 64, 127
2, 21630, Note_on_c, 0, 74, 0
2, 21635, Note_on_c, 0, 86, 0
2, 21648, Note_on_c, 0, 82, 33
2, 21666, Note_on_c, 0, 82, 0
2, 21670, Control_c, 0, 64, 0
2, 21679, Note_on_c, 0, 87, 71
2, 21680, Note_on_c, 0, 75, 62
2, 21682, Note_on_c, 0, 63, 49
2, 21685, Note_on_c, 0, 56, 32
2, 21692, Note_on_c, 0, 63, 0
2, 21698, Note_on_c, 0, 56, 0
2, 21703, Control_c, 0, 64, 127
2, 21708, Note_on_c, 0, 87, 0
2, 21724, Note_on_c, 0, 75, 0
2, 21724, Note_on_c, 0, 87, 18
2, 21727, Note_on_c, 0, 85, 31
2, 21733, Note_on_c, 0, 87, 0
2, 21735, Note_on_c, 0, 85, 0
2, 21756, Note_on_c, 0, 89, 79
2, 21758, Note_on_c, 0, 77, 70
2, 21759, Note_on_c, 0, 67, 46
2, 21760, Note_on_c, 0, 63, 48
2, 21762, Note_on_c, 0, 60, 46
2, 21763, Control_c, 0, 64, 0
2, 21764, Note_on_c, 0, 56, 28
2, 21778, Note_on_c, 0, 67, 0
2, 21779, Note_on_c, 0, 77, 0
2, 21783, Note_on_c, 0, 63, 0
2, 21783, Note_on_c, 0, 60, 0
2, 21785, Control_c, 0, 64, 127
2, 21786, Note_on_c, 0, 89, 0
2, 21791, Note_on_c, 0, 56, 0
2, 21834, Control_c, 0, 64, 0
2, 21839, Note_on_c, 0, 63, 59
2, 21839, Note_on_c, 0, 87, 61
2, 21839, Note_on_c, 0, 79, 66
2, 21840, Note_on_c, 0, 91, 68
2, 21841, Note_on_c, 0, 53, 52
2, 21842, Note_on_c, 0, 84, 62
2, 21862, Control_c, 0, 64, 127
2, 21863, Note_on_c, 0, 79, 0
2, 21866, Note_on_c, 0, 84, 0
2, 21874, Note_on_c, 0, 91, 0
2, 21874, Note_on_c, 0, 87, 0
2, 21878, Note_on_c, 0, 53, 0
2, 21890, Note_on_c, 0, 63, 0
2, 21924, Note_on_c, 0, 55, 75
2, 21926, Control_c, 0, 64, 0
2, 21926, Note_on_c, 0, 92, 75
2, 21926, Note_on_c, 0, 87, 71
2, 21927, Note_on_c, 0, 65, 69
2, 21927, Note_on_c, 0, 80, 52
2, 21927, Note_on_c, 0, 82, 56
2, 21928, Note_on_c, 0, 60, 71
2, 21931, Note_on_c, 0, 93, 50
2, 21942, Note_on_c, 0, 65, 0
2, 21944, Note_on_c, 0, 80, 0
2, 21944, Note_on_c, 0, 87, 0
2, 21947, Note_on_c, 0, 93, 0
2, 21947, Note_on_c, 0, 55, 0
2, 21948, Note_on_c, 0, 82, 0
2, 21951, Note_on_c, 0, 60, 0
2, 21952, Note_on_c, 0, 92, 0
2, 21952, Control_c, 0, 64, 127
2, 21973, Note_on_c, 0, 55, 63
2, 21976, Note_on_c, 0, 83, 53
2, 21976, Note_on_c, 0, 96, 74
2, 21977, Note_on_c, 0, 95, 64
2, 21977, Note_on_c, 0, 94, 46
2, 21978, Note_on_c, 0, 84, 63
2, 21996, Note_on_c, 0, 83, 0
2, 21998, Note_on_c, 0, 95, 0
2, 21999, Note_on_c, 0, 94, 0
2, 22004, Note_on_c, 0, 96, 0
2, 22005, Note_on_c, 0, 55, 0
2, 22008, Note_on_c, 0, 84, 0
2, 22037, Note_on_c, 0, 54, 55
2, 22044, Note_on_c, 0, 58, 50
2, 22045, Note_on_c, 0, 98, 87
2, 22047, Note_on_c, 0, 91, 70
2, 22048, Note_on_c, 0, 86, 74
2, 22049, Control_c, 0, 64, 0
2, 22050, Note_on_c, 0, 58, 0
2, 22050, Note_on_c, 0, 54, 0
2, 22050, Note_on_c, 0, 94, 56
2, 22050, Note_on_c, 0, 60, 76
2, 22053, Note_on_c, 0, 57, 57
2, 22053, Note_on_c, 0, 53, 66
2, 22054, Note_on_c, 0, 96, 45
2, 22056, Note_on_c, 0, 94, 0
2, 22060, Note_on_c, 0, 53, 0
2, 22061, Note_on_c, 0, 96, 0
2, 22073, Note_on_c, 0, 57, 0
2, 22075, Note_on_c, 0, 60, 0
2, 22076, Note_on_c, 0, 86, 0
2, 22080, Note_on_c, 0, 91, 0
2, 22086, Note_on_c, 0, 98, 0
2, 22103, Note_on_c, 0, 62, 74
2, 22103, Note_on_c, 0, 51, 61
2, 22105, Note_on_c, 0, 98, 75
2, 22105, Note_on_c, 0, 59, 69
2, 22107, Note_on_c, 0, 91, 62
2, 22107, Note_on_c, 0, 86, 71
2, 22108, Note_on_c, 0, 55, 58
2, 22141, Control_c, 0, 64, 127
2, 22173, Note_on_c, 0, 51, 0
2, 22174, Note_on_c, 0, 62, 0
2, 22177, Note_on_c, 0, 86, 0
2, 22179, Note_on_c, 0, 55, 0
2, 22180, Note_on_c, 0, 91, 0
2, 22180, Note_on_c, 0, 98, 0
2, 22185, Note_on_c, 0, 59, 0
2, 22194, Control_c, 0, 64, 0
2, 22207, Note_on_c, 0, 98, 71
2, 22207, Note_on_c, 0, 59, 54
2, 22208, Note_on_c, 0, 62, 62
2, 22208, Note_on_c, 0, 51, 52
2, 22209, Note_on_c, 0, 86, 58
2, 22209, Note_on_c, 0, 91, 53
2, 22211, Note_on_c, 0, 55, 61
2, 22216, Control_c, 0, 64, 127
2, 22231, Note_on_c, 0, 98, 0
2, 22233, Note_on_c, 0, 59, 0
2, 22234, Note_on_c, 0, 91, 0
2, 22244, Note_on_c, 0, 86, 0
2, 22246, Note_on_c, 0, 62, 0
2, 22248, Note_on_c, 0, 51, 0
2, 22252, Note_on_c, 0, 55, 0
2, 22288, Note_on_c, 0, 94, 64
2, 22290, Note_on_c, 0, 82, 59
2, 22291, Note_on_c, 0, 51, 56
2, 22292, Note_on_c, 0, 60, 66
2, 22292, Note_on_c, 0, 57, 55
2, 22295, Control_c, 0, 64, 0
2, 22296, Note_on_c, 0, 55, 47
2, 22296, Note_on_c, 0, 89, 56
2, 22331, Control_c, 0, 64, 127
2, 22375, Note_on_c, 0, 89, 0
2, 22378, Note_on_c, 0, 94, 0
2, 22394, Note_on_c, 0, 82, 0
2, 22444, Note_on_c, 0, 57, 0
2, 22466, Note_on_c, 0, 60, 0
2, 22489, Note_on_c, 0, 55, 0
2, 22540, Note_on_c, 0, 57, 37
2, 22558, Control_c, 0, 64, 0
2, 22560, Note_on_c, 0, 57, 0
2, 22562, Note_on_c, 0, 74, 84
2, 22562, Note_on_c, 0, 67, 82
2, 22563, Note_on_c, 0, 63, 85
2, 22565, Note_on_c, 0, 59, 80
2, 22571, Note_on_c, 0, 71, 32
2, 22572, Note_on_c, 0, 72, 28
2, 22579, Note_on_c, 0, 72, 0
2, 22582, Note_on_c, 0, 71, 0
2, 22645, Control_c, 0, 64, 127
2, 22686, Control_c, 0, 64, 0
2, 22689, Note_on_c, 0, 58, 55
2, 22691, Note_on_c, 0, 59, 0
2, 22711, Note_on_c, 0, 58, 0
2, 22719, Note_on_c, 0, 56, 37
2, 22724, Control_c, 0, 64, 127
2, 22738, Control_c, 0, 64, 0
2, 22740, Note_on_c, 0, 56, 0
2, 22753, Note_on_c, 0, 55, 71
2, 22784, Control_c, 0, 64, 127
2, 22824, Note_on_c, 0, 51, 0
2, 22848, Note_on_c, 0, 67, 0
2, 22863, Note_on_c, 0, 63, 0
2, 22871, Note_on_c, 0, 74, 0
2, 22886, Note_on_c, 0, 63, 42
2, 22908, Note_on_c, 0, 55, 0
2, 22910, Note_on_c, 0, 63, 0
2, 22922, Note_on_c, 0, 67, 45
2, 22939, Note_on_c, 0, 67, 0
2, 22959, Note_on_c, 0, 71, 80
2, 22978, Note_on_c, 0, 71, 0
2, 22993, Note_on_c, 0, 74, 89
2, 23024, Note_on_c, 0, 74, 0
2, 23030, Note_on_c, 0, 71, 62
2, 23032, Control_c, 0, 64, 0
2, 23034, Note_on_c, 0, 64, 35
2, 23039, Note_on_c, 0, 60, 43
2, 23039, Note_on_c, 0, 55, 30
2, 23039, Note_on_c, 0, 59, 28
2, 23060, Note_on_c, 0, 71, 0
2, 23061, Note_on_c, 0, 72, 60
2, 23097, Note_on_c, 0, 72, 0
2, 23098, Note_on_c, 0, 76, 62
2, 23119, Note_on_c, 0, 64, 0
2, 23119, Note_on_c, 0, 60, 0
2, 23123, Note_on_c, 0, 76, 0
2, 23135, Note_on_c, 0, 79, 68
2, 23150, Note_on_c, 0, 79, 0
2, 23155, Note_on_c, 0, 59, 0
2, 23172, Note_on_c, 0, 83, 64
2, 23188, Note_on_c, 0, 83, 0
2, 23208, Note_on_c, 0, 86, 80
2, 23208, Note_on_c, 0, 74, 74
2, 23255, Note_on_c, 0, 86, 0
2, 23257, Note_on_c, 0, 74, 0
2, 23260, Note_on_c, 0, 55, 0
2, 23284, Note_on_c, 0, 59, 31
2, 23285, Note_on_c, 0, 55, 48
2, 23285, Note_on_c, 0, 86, 74
2, 23286, Note_on_c, 0, 74, 62
2, 23287, Note_on_c, 0, 64, 35
2, 23289, Note_on_c, 0, 60, 46
2, 23305, Control_c, 0, 64, 127
2, 23310, Note_on_c, 0, 64, 0
2, 23312, Note_on_c, 0, 74, 0
2, 23317, Note_on_c, 0, 86, 0
2, 23324, Note_on_c, 0, 60, 0
2, 23326, Note_on_c, 0, 55, 0
2, 23331, Note_on_c, 0, 83, 39
2, 23336, Note_on_c, 0, 59, 0
2, 23344, Note_on_c, 0, 83, 0
2, 23363, Note_on_c, 0, 86, 80
2, 23365, Note_on_c, 0, 74, 72
2, 23365, Control_c, 0, 64, 0
2, 23366, Note_on_c, 0, 59, 41
2, 23366, Note_on_c, 0, 64, 41
2, 23367, Note_on_c, 0, 55, 47
2, 23369, Note_on_c, 0, 60, 51
2, 23409, Control_c, 0, 64, 127
2, 23427, Note_on_c, 0, 55, 0
2, 23452, Note_on_c, 0, 64, 0
2, 23466, Note_on_c, 0, 60, 0
2, 23470, Note_on_c, 0, 59, 0
2, 23471, Note_on_c, 0, 86, 0
2, 23477, Note_on_c, 0, 55, 52
2, 23487, Note_on_c, 0, 74, 0
2, 23489, Note_on_c, 0, 55, 0
2, 23520, Control_c, 0, 64, 0
2, 23523, Note_on_c, 0, 54, 56
2, 23523, Note_on_c, 0, 87, 76
2, 23524, Note_on_c, 0, 60, 43
2, 23524, Note_on_c, 0, 65, 47
2, 23525, Note_on_c, 0, 58, 45
2, 23525, Note_on_c, 0, 75, 72
2, 23542, Note_on_c, 0, 75, 0
2, 23551, Note_on_c, 0, 87, 0
2, 23559, Note_on_c, 0, 60, 0
2, 23562, Note_on_c, 0, 65, 0
2, 23563, Note_on_c, 0, 58, 0
2, 23566, Note_on_c, 0, 54, 0
2, 23573, Note_on_c, 0, 84, 31
2, 23576, Control_c, 0, 64, 127
2, 23579, Note_on_c, 0, 84, 0
2, 23586, Control_c, 0, 64, 0
2, 23599, Note_on_c, 0, 87, 80
2, 23601, Note_on_c, 0, 75, 78
2, 23602, Note_on_c, 0, 54, 59
2, 23603, Note_on_c, 0, 65, 50
2, 23603, Note_on_c, 0, 58, 46
2, 23604, Note_on_c, 0, 60, 59
2, 23643, Control_c, 0, 64, 127
2, 23696, Note_on_c, 0, 65, 0
2, 23698, Note_on_c, 0, 84, 68
2, 23703, Note_on_c, 0, 75, 0
2, 23711, Note_on_c, 0, 87, 0
2, 23721, Note_on_c, 0, 60, 0
2, 23725, Note_on_c, 0, 54, 0
2, 23727, Note_on_c, 0, 84, 0
2, 23730, Note_on_c, 0, 80, 57
2, 23748, Note_on_c, 0, 80, 0
2, 23757, Note_on_c, 0, 58, 0
2, 23766, Control_c, 0, 64, 0
2, 23770, Note_on_c, 0, 54, 60
2, 23771, Note_on_c, 0, 65, 64
2, 23771, Note_on_c, 0, 77, 85
2, 23771, Note_on_c, 0, 89, 83
2, 23773, Note_on_c, 0, 58, 37
2, 23774, Note_on_c, 0, 60, 71
2, 23776, Note_on_c, 0, 88, 40
2, 23784, Note_on_c, 0, 88, 0
2, 23799, Note_on_c, 0, 89, 0
2, 23800, Control_c, 0, 64, 127
2, 23810, Note_on_c, 0, 77, 0
2, 23815, Note_on_c, 0, 87, 48
2, 23818, Note_on_c, 0, 54, 0
2, 23819, Note_on_c, 0, 65, 0
2, 23820, Note_on_c, 0, 60, 0
2, 23825, Note_on_c, 0, 58, 0
2, 23833, Note_on_c, 0, 87, 0
2, 23847, Note_on_c, 0, 54, 74
2, 23849, Note_on_c, 0, 89, 87
2, 23849, Note_on_c, 0, 58, 52
2, 23849, Note_on_c, 0, 65, 68
2, 23850, Note_on_c, 0, 60, 64
2, 23850, Note_on_c, 0, 77, 74
2, 23852, Control_c, 0, 64, 0
2, 23853, Note_on_c, 0, 79, 64
2, 23860, Note_on_c, 0, 79, 0
2, 23876, Note_on_c, 0, 89, 0
2, 23885, Control_c, 0, 64, 127
2, 23886, Note_on_c, 0, 77, 0
2, 23889, Note_on_c, 0, 87, 70
2, 23894, Note_on_c, 0, 54, 0
2, 23924, Note_on_c, 0, 83, 57
2, 23931, Note_on_c, 0, 87, 0
2, 23935, Note_on_c, 0, 65, 0
2, 23946, Note_on_c, 0, 83, 0
2, 23961, Note_on_c, 0, 54, 57
2, 23961, Note_on_c, 0, 77, 59
2, 23963, Note_on_c, 0, 60, 0
2, 23977, Note_on_c, 0, 77, 0
2, 23981, Note_on_c, 0, 58, 0
2, 23986, Note_on_c, 0, 54, 0
2, 24001, Control_c, 0, 64, 0
2, 24001, Note_on_c, 0, 54, 51
2, 24002, Note_on_c, 0, 86, 84
2, 24007, Note_on_c, 0, 59, 45
2, 24008, Note_on_c, 0, 62, 29
2, 24033, Note_on_c, 0, 86, 0
2, 24046, Note_on_c, 0, 83, 44
2, 24056, Note_on_c, 0, 83, 0
2, 24056, Control_c, 0, 64, 127
2, 24057, Note_on_c, 0, 62, 0
2, 24068, Note_on_c, 0, 59, 0
2, 24077, Note_on_c, 0, 86, 81
2, 24081, Note_on_c, 0, 62, 34
2, 24081, Note_on_c, 0, 59, 25
2, 24085, Control_c, 0, 64, 0
2, 24101, Note_on_c, 0, 86, 0
2, 24114, Note_on_c, 0, 83, 62
2, 24136, Note_on_c, 0, 62, 0
2, 24137, Note_on_c, 0, 83, 0
2, 24143, Note_on_c, 0, 59, 0
2, 24146, Note_on_c, 0, 78, 51
2, 24177, Note_on_c, 0, 78, 0
2, 24181, Control_c, 0, 64, 127
2, 24187, Note_on_c, 0, 74, 36
2, 24213, Note_on_c, 0, 74, 0
2, 24229, Note_on_c, 0, 78, 69
2, 24235, Note_on_c, 0, 62, 44
2, 24239, Control_c, 0, 64, 0
2, 24268, Note_on_c, 0, 74, 56
2, 24278, Control_c, 0, 64, 127
2, 24281, Note_on_c, 0, 62, 0
2, 24290, Note_on_c, 0, 74, 0
2, 24290, Note_on_c, 0, 78, 0
2, 24304, Note_on_c, 0, 71, 53
2, 24324, Note_on_c, 0, 71, 0
2, 24346, Note_on_c, 0, 62, 24
2, 24346, Note_on_c, 0, 66, 62
2, 24350, Note_on_c, 0, 59, 20
2, 24364, Note_on_c, 0, 62, 0
2, 24378, Note_on_c, 0, 54, 0
2, 24426, Note_on_c, 0, 62, 43
2, 24431, Note_on_c, 0, 54, 25
2, 24434, Note_on_c, 0, 66, 0
2, 24435, Note_on_c, 0, 62, 0
2, 24442, Note_on_c, 0, 54, 0
2, 24443, Note_on_c, 0, 59, 0
2, 24473, Control_c, 0, 64, 0
2, 24475, Note_on_c, 0, 65, 62
2, 24485, Note_on_c, 0, 60, 31
2, 24487, Note_on_c, 0, 55, 20
2, 24488, Note_on_c, 0, 57, 16
2, 24492, Note_on_c, 0, 65, 0
2, 24496, Note_on_c, 0, 67, 52
2, 24515, Note_on_c, 0, 67, 0
2, 24517, Note_on_c, 0, 65, 42
2, 24537, Note_on_c, 0, 65, 0
2, 24540, Note_on_c, 0, 62, 50
2, 24549, Note_on_c, 0, 62, 0
2, 24555, Note_on_c, 0, 60, 0
2, 24568, Note_on_c, 0, 65, 62
2, 24587, Note_on_c, 0, 65, 0
2, 24589, Note_on_c, 0, 57, 0
2, 24589, Note_on_c, 0, 67, 38
2, 24603, Note_on_c, 0, 67, 0
2, 24612, Note_on_c, 0, 65, 26
2, 24623, Note_on_c, 0, 65, 0
2, 24626, Note_on_c, 0, 62, 38
2, 24637, Note_on_c, 0, 62, 0
2, 24654, Note_on_c, 0, 65, 66
2, 24675, Note_on_c, 0, 65, 0
2, 24678, Note_on_c, 0, 67, 38
2, 24696, Note_on_c, 0, 67, 0
2, 24699, Note_on_c, 0, 65, 32
2, 24710, Note_on_c, 0, 65, 0
2, 24715, Control_c, 0, 64, 127
2, 24716, Note_on_c, 0, 62, 41
2, 24726, Note_on_c, 0, 62, 0
2, 24731, Control_c, 0, 64, 0
2, 24738, Note_on_c, 0, 65, 73
2, 24758, Note_on_c, 0, 55, 0
2, 24791, Control_c, 0, 64, 127
2, 24801, Note_on_c, 0, 62, 55
2, 24822, Control_c, 0, 64, 0
2, 24891, Note_on_c, 0, 55, 49
2, 24903, Note_on_c, 0, 55, 0
2, 24912, Note_on_c, 0, 65, 0
2, 24915, Note_on_c, 0, 62, 0
2, 24926, Control_c, 0, 64, 127
2, 24936, Note_on_c, 0, 50, 65
2, 24975, Note_on_c, 0, 61, 69
2, 24976, Control_c, 0, 64, 0
2, 24976, Note_on_c, 0, 57, 60
2, 24976, Note_on_c, 0, 64, 69
2, 24978, Note_on_c, 0, 43, 65
2, 24979, Note_on_c, 0, 50, 0
2, 25088, Control_c, 0, 64, 127
2, 25156, Note_on_c, 0, 66, 1
2, 25164, Note_on_c, 0, 64, 0
2, 25166, Note_on_c, 0, 55, 103
2, 25170, Note_on_c, 0, 66, 0
2, 25173, Note_on_c, 0, 57, 0
2, 25179, Note_on_c, 0, 61, 0
2, 25210, Note_on_c, 0, 67, 71
2, 25210, Note_on_c, 0, 61, 77
2, 25213, Note_on_c, 0, 64, 64
2, 25213, Note_on_c, 0, 57, 76
2, 25217, Note_on_c, 0, 65, 61
2, 25223, Note_on_c, 0, 65, 0
2, 25247, Note_on_c, 0, 67, 0
2, 25253, Note_on_c, 0, 64, 0
2, 25264, Note_on_c, 0, 57, 0
2, 25277, Note_on_c, 0, 61, 0
2, 25292, Note_on_c, 0, 69, 70
2, 25317, Note_on_c, 0, 69, 0
2, 25357, Note_on_c, 0, 70, 65
2, 25369, Note_on_c, 0, 70, 0
2, 25380, Note_on_c, 0, 55, 0
2, 25436, Note_on_c, 0, 62, 54
2, 25438, Control_c, 0, 64, 0
2, 25438, Note_on_c, 0, 58, 49
2, 25438, Note_on_c, 0, 65, 54
2, 25439, Note_on_c, 0, 55, 46
2, 25488, Note_on_c, 0, 55, 0
2, 25521, Note_on_c, 0, 55, 64
2, 25551, Note_on_c, 0, 58, 0
2, 25552, Note_on_c, 0, 62, 0
2, 25565, Control_c, 0, 64, 127
2, 25602, Note_on_c, 0, 55, 0
2, 25630, Control_c, 0, 64, 0
2, 25641, Control_c, 0, 64, 127
2, 25685, Note_on_c, 0, 58, 42
2, 25686, Note_on_c, 0, 62, 42
2, 25688, Note_on_c, 0, 57, 33
2, 25688, Control_c, 0, 64, 0
2, 25690, Note_on_c, 0, 55, 41
2, 25718, Control_c, 0, 64, 127
2, 25768, Note_on_c, 0, 43, 0
2, 25768, Note_on_c, 0, 50, 55
2, 25791, Note_on_c, 0, 55, 0
2, 25804, Note_on_c, 0, 50, 0
2, 25807, Note_on_c, 0, 43, 39
2, 25810, Note_on_c, 0, 57, 0
2, 25819, Note_on_c, 0, 62, 0
2, 25825, Note_on_c, 0, 58, 0
2, 25827, Note_on_c, 0, 43, 0
2, 25866, Note_on_c, 0, 65, 0
2, 25925, Note_on_c, 0, 63, 43
2, 25926, Note_on_c, 0, 51, 36
2, 25928, Control_c, 0, 64, 0
2, 25929, Note_on_c, 0, 58, 42
2, 25930, Note_on_c, 0, 55, 43
2, 25931, Note_on_c, 0, 41, 34
2, 25975, Control_c, 0, 64, 127
2, 25996, Note_on_c, 0, 55, 0
2, 26004, Note_on_c, 0, 41, 0
2, 26021, Note_on_c, 0, 58, 0
2, 26025, Note_on_c, 0, 51, 0
2, 26047, Note_on_c, 0, 63, 0
2, 26171, Note_on_c, 0, 63, 30
2, 26172, Note_on_c, 0, 53, 34
2, 26258, Note_on_c, 0, 63, 0
2, 26265, Note_on_c, 0, 60, 28
2, 26290, Note_on_c, 0, 74, 70
2, 26314, Note_on_c, 0, 74, 0
2, 26330, Note_on_c, 0, 71, 24
2, 26352, Note_on_c, 0, 71, 0
2, 26355, Note_on_c, 0, 72, 58
2, 26358, Note_on_c, 0, 60, 0
2, 26369, Note_on_c, 0, 53, 0
2, 26387, Note_on_c, 0, 74, 73
2, 26390, Note_on_c, 0, 72, 0
2, 26411, Note_on_c, 0, 74, 0
2, 26417, Note_on_c, 0, 75, 62
2, 26418, Control_c, 0, 64, 0
2, 26422, Note_on_c, 0, 53, 48
2, 26423, Note_on_c, 0, 63, 37
2, 26429, Note_on_c, 0, 75, 0
2, 26449, Note_on_c, 0, 77, 52
2, 26469, Note_on_c, 0, 77, 0
2, 26477, Note_on_c, 0, 78, 51
2, 26489, Note_on_c, 0, 78, 0
2, 26506, Note_on_c, 0, 81, 64
2, 26524, Note_on_c, 0, 81, 0
2, 26531, Control_c, 0, 64, 127
2, 26536, Note_on_c, 0, 86, 58
2, 26542, Note_on_c, 0, 63, 0
2, 26559, Note_on_c, 0, 86, 0
2, 26566, Note_on_c, 0, 90, 65
2, 26575, Note_on_c, 0, 90, 0
2, 26593, Note_on_c, 0, 93, 77
2, 26613, Note_on_c, 0, 63, 8
2, 26620, Note_on_c, 0, 98, 66
2, 26624, Note_on_c, 0, 93, 0
2, 26632, Note_on_c, 0, 63, 0
2, 26646, Note_on_c, 0, 102, 63
2, 26650, Note_on_c, 0, 98, 0
2, 26674, Note_on_c, 0, 102, 0
2, 26682, Note_on_c, 0, 105, 77
2, 26702, Note_on_c, 0, 105, 0
2, 26703, Note_on_c, 0, 102, 35
2, 26710, Note_on_c, 0, 102, 0
2, 26777, Note_on_c, 0, 63, 43
2, 26801, Note_on_c, 0, 53, 0
2, 26848, Note_on_c, 0, 63, 0
2, 26852, Note_on_c, 0, 53, 52
2, 26887, Note_on_c, 0, 74, 80
2, 26889, Note_on_c, 0, 67, 80
2, 26889, Note_on_c, 0, 63, 81
2, 26891, Note_on_c, 0, 70, 71
2, 26891, Note_on_c, 0, 62, 73
2, 26895, Control_c, 0, 64, 0
2, 27000, Control_c, 0, 64, 127
2, 27019, Note_on_c, 0, 62, 0
2, 27028, Note_on_c, 0, 63, 0
2, 27046, Note_on_c, 0, 70, 0
2, 27052, Note_on_c, 0, 67, 0
2, 27081, Note_on_c, 0, 74, 0
2, 27092, Note_on_c, 0, 63, 51
2, 27094, Note_on_c, 0, 70, 47
2, 27094, Note_on_c, 0, 67, 37
2, 27098, Note_on_c, 0, 60, 44
2, 27098, Control_c, 0, 64, 0
2, 27121, Control_c, 0, 64, 127
2, 27196, Note_on_c, 0, 53, 0
2, 27198, Note_on_c, 0, 67, 0
2, 27225, Note_on_c, 0, 63, 0
2, 27235, Note_on_c, 0, 70, 0
2, 27241, Note_on_c, 0, 53, 45
2, 27249, Note_on_c, 0, 60, 0
2, 27266, Note_on_c, 0, 53, 0
2, 27319, Note_on_c, 0, 59, 48
2, 27322, Note_on_c, 0, 69, 50
2, 27322, Note_on_c, 0, 62, 48
2, 27324, Note_on_c, 0, 64, 47
2, 27325, Note_on_c, 0, 52, 47
2, 27329, Control_c, 0, 64, 0
2, 27360, Control_c, 0, 64, 127
2, 27398, Note_on_c, 0, 69, 0
2, 27416, Note_on_c, 0, 64, 0
2, 27420, Note_on_c, 0, 62, 0
2, 27439, Note_on_c, 0, 59, 0
2, 27480, Note_on_c, 0, 60, 60
2, 27488, Control_c, 0, 64, 0
2, 27498, Control_c, 0, 64, 127
2, 27507, Note_on_c, 0, 60, 0
2, 27510, Note_on_c, 0, 61, 67
2, 27513, Note_on_c, 0, 52, 0
2, 27527, Note_on_c, 0, 61, 0
2, 27538, Control_c, 0, 64, 0
2, 27550, Note_on_c, 0, 65, 80
2, 27571, Note_on_c, 0, 65, 0
2, 27618, Note_on_c, 0, 72, 81
2, 27644, Note_on_c, 0, 72, 0
2, 27647, Note_on_c, 0, 73, 80
2, 27661, Note_on_c, 0, 73, 0
2, 27692, Note_on_c, 0, 77, 64
2, 27693, Note_on_c, 0, 66, 59
2, 27695, Note_on_c, 0, 61, 43
2, 27695, Note_on_c, 0, 55, 54
2, 27705, Note_on_c, 0, 55, 0
2, 27708, Note_on_c, 0, 77, 0
2, 27708, Note_on_c, 0, 66, 0
2, 27709, Note_on_c, 0, 61, 0
2, 27722, Note_on_c, 0, 82, 71
2, 27738, Note_on_c, 0, 82, 0
2, 27761, Note_on_c, 0, 84, 91
2, 27763, Note_on_c, 0, 66, 60
2, 27765, Note_on_c, 0, 61, 53
2, 27768, Note_on_c, 0, 55, 48
2, 27787, Note_on_c, 0, 84, 0
2, 27791, Note_on_c, 0, 55, 0
2, 27793, Control_c, 0, 64, 127
2, 27795, Note_on_c, 0, 85, 60
2, 27800, Note_on_c, 0, 66, 0
2, 27805, Note_on_c, 0, 61, 0
2, 27819, Note_on_c, 0, 85, 0
2, 27841, Control_c, 0, 64, 0
2, 27850, Note_on_c, 0, 65, 67
2, 27852, Note_on_c, 0, 61, 46
2, 27854, Note_on_c, 0, 60, 59
2, 27858, Note_on_c, 0, 55, 43
2, 27970, Control_c, 0, 64, 127
2, 27990, Note_on_c, 0, 55, 0
2, 27995, Note_on_c, 0, 65, 0
2, 28002, Note_on_c, 0, 60, 0
2, 28016, Note_on_c, 0, 61, 0
2, 28070, Control_c, 0, 64, 0
2, 28082, Note_on_c, 0, 60, 54
2, 28083, Note_on_c, 0, 61, 51
2, 28085, Note_on_c, 0, 65, 66
2, 28087, Note_on_c, 0, 93, 82
2, 28089, Note_on_c, 0, 81, 75
2, 28091, Note_on_c, 0, 65, 0
2, 28095, Note_on_c, 0, 81, 0
2, 28099, Note_on_c, 0, 60, 0
2, 28101, Note_on_c, 0, 61, 0
2, 28101, Note_on_c, 0, 93, 0
2, 28125, Note_on_c, 0, 94, 87
2, 28125, Note_on_c, 0, 82, 90
2, 28126, Note_on_c, 0, 61, 76
2, 28126, Note_on_c, 0, 60, 79
2, 28128, Note_on_c, 0, 65, 77
2, 28128, Note_on_c, 0, 55, 75
2, 28152, Control_c, 0, 64, 127
2, 28182, Note_on_c, 0, 55, 0
2, 28184, Note_on_c, 0, 82, 0
2, 28185, Note_on_c, 0, 65, 0
2, 28187, Note_on_c, 0, 94, 0
2, 28189, Note_on_c, 0, 60, 0
2, 28191, Note_on_c, 0, 61, 0
2, 28201, Control_c, 0, 64, 0
2, 28207, Note_on_c, 0, 61, 69
2, 28207, Note_on_c, 0, 60, 83
2, 28207, Note_on_c, 0, 55, 83
2, 28208, Note_on_c, 0, 65, 80
2, 28209, Note_on_c, 0, 96, 95
2, 28209, Note_on_c, 0, 84, 92
2, 28215, Note_on_c, 0, 58, 31
2, 28216, Note_on_c, 0, 92, 36
2, 28223, Note_on_c, 0, 92, 0
2, 28225, Control_c, 0, 64, 127
2, 28243, Note_on_c, 0, 96, 0
2, 28247, Note_on_c, 0, 65, 0
2, 28248, Note_on_c, 0, 58, 0
2, 28249, Note_on_c, 0, 55, 0
2, 28249, Note_on_c, 0, 84, 0
2, 28252, Note_on_c, 0, 61, 0
2, 28253, Note_on_c, 0, 60, 0
2, 28290, Note_on_c, 0, 61, 64
2, 28292, Note_on_c, 0, 94, 79
2, 28292, Note_on_c, 0, 82, 77
2, 28293, Note_on_c, 0, 60, 60
2, 28293, Note_on_c, 0, 65, 64
2, 28293, Note_on_c, 0, 55, 72
2, 28306, Note_on_c, 0, 65, 0
2, 28309, Note_on_c, 0, 60, 0
2, 28316, Note_on_c, 0, 94, 0
2, 28316, Note_on_c, 0, 55, 0
2, 28317, Note_on_c, 0, 61, 0
2, 28319, Note_on_c, 0, 82, 0
2, 28328, Control_c, 0, 64, 0
2, 28336, Note_on_c, 0, 55, 58
2, 28339, Note_on_c, 0, 59, 54
2, 28340, Note_on_c, 0, 64, 45
2, 28342, Note_on_c, 0, 93, 66
2, 28342, Note_on_c, 0, 60, 66
2, 28343, Note_on_c, 0, 81, 56
2, 28356, Control_c, 0, 64, 127
2, 28373, Note_on_c, 0, 81, 0
2, 28379, Note_on_c, 0, 93, 0
2, 28379, Note_on_c, 0, 60, 0
2, 28380, Note_on_c, 0, 55, 0
2, 28382, Note_on_c, 0, 64, 0
2, 28385, Note_on_c, 0, 59, 0
2, 28411, Note_on_c, 0, 55, 57
2, 28412, Note_on_c, 0, 59, 50
2, 28412, Note_on_c, 0, 60, 60
2, 28413, Note_on_c, 0, 64, 57
2, 28414, Note_on_c, 0, 83, 74
2, 28414, Note_on_c, 0, 95, 75
2, 28420, Note_on_c, 0, 83, 0
2, 28421, Note_on_c, 0, 64, 0
2, 28421, Note_on_c, 0, 60, 0
2, 28422, Note_on_c, 0, 55, 0
2, 28423, Note_on_c, 0, 59, 0
2, 28427, Note_on_c, 0, 95, 0
2, 28439, Control_c, 0, 64, 0
2, 28445, Note_on_c, 0, 55, 84
2, 28447, Note_on_c, 0, 64, 81
2, 28447, Note_on_c, 0, 60, 76
2, 28447, Note_on_c, 0, 59, 70
2, 28449, Note_on_c, 0, 98, 87
2, 28450, Note_on_c, 0, 86, 79
2, 28452, Note_on_c, 0, 96, 78
2, 28454, Note_on_c, 0, 84, 49
2, 28455, Note_on_c, 0, 97, 52
2, 28458, Note_on_c, 0, 96, 0
2, 28460, Note_on_c, 0, 84, 0
2, 28462, Note_on_c, 0, 97, 0
2, 28462, Control_c, 0, 64, 127
2, 28481, Note_on_c, 0, 98, 0
2, 28485, Note_on_c, 0, 55, 0
2, 28487, Note_on_c, 0, 64, 0
2, 28489, Note_on_c, 0, 86, 0
2, 28492, Note_on_c, 0, 59, 0
2, 28492, Note_on_c, 0, 60, 0
2, 28527, Note_on_c, 0, 64, 72
2, 28531, Note_on_c, 0, 60, 69
2, 28531, Note_on_c, 0, 54, 77
2, 28532, Note_on_c, 0, 82, 79
2, 28534, Note_on_c, 0, 94, 43
2, 28537, Note_on_c, 0, 95, 74
2, 28545, Note_on_c, 0, 92, 23
2, 28545, Control_c, 0, 64, 0
2, 28547, Note_on_c, 0, 82, 0
2, 28548, Note_on_c, 0, 83, 60
2, 28549, Note_on_c, 0, 93, 33
2, 28550, Note_on_c, 0, 94, 0
2, 28559, Note_on_c, 0, 93, 0
2, 28564, Note_on_c, 0, 95, 0
2, 28564, Note_on_c, 0, 83, 0
2, 28570, Note_on_c, 0, 54, 0
2, 28571, Note_on_c, 0, 64, 0
2, 28572, Note_on_c, 0, 92, 0
2, 28577, Control_c, 0, 64, 127
2, 28582, Note_on_c, 0, 93, 58
2, 28583, Note_on_c, 0, 81, 50
2, 28584, Note_on_c, 0, 54, 47
2, 28585, Note_on_c, 0, 64, 30
2, 28586, Note_on_c, 0, 92, 31
2, 28632, Note_on_c, 0, 92, 0
2, 28641, Note_on_c, 0, 93, 0
2, 28642, Note_on_c, 0, 64, 0
2, 28648, Note_on_c, 0, 60, 0
2, 28648, Note_on_c, 0, 54, 0
2, 28649, Note_on_c, 0, 81, 0
2, 28662, Control_c, 0, 64, 0
2, 28674, Note_on_c, 0, 54, 55
2, 28676, Note_on_c, 0, 64, 45
2, 28677, Note_on_c, 0, 60, 46
2, 28677, Note_on_c, 0, 91, 49
2, 28678, Note_on_c, 0, 79, 60
2, 28682, Note_on_c, 0, 90, 26
2, 28688, Control_c, 0, 64, 127
2, 28700, Note_on_c, 0, 60, 0
2, 28706, Note_on_c, 0, 54, 0
2, 28711, Note_on_c, 0, 91, 0
2, 28714, Note_on_c, 0, 90, 0
2, 28734, Note_on_c, 0, 79, 0
2, 28735, Note_on_c, 0, 64, 0
2, 28787, Control_c, 0, 64, 0
2, 28792, Note_on_c, 0, 62, 24
2, 28793, Note_on_c, 0, 66, 44
2, 28794, Note_on_c, 0, 90, 67
2, 28794, Note_on_c, 0, 57, 42
2, 28795, Note_on_c, 0, 78, 51
2, 28802, Note_on_c, 0, 86, 35
2, 28821, Control_c, 0, 64, 127
2, 28833, Note_on_c, 0, 86, 0
2, 28856, Note_on_c, 0, 66, 0
2, 28859, Note_on_c, 0, 57, 0
2, 28865, Note_on_c, 0, 62, 0
2, 28865, Note_on_c, 0, 78, 0
2, 28870, Note_on_c, 0, 90, 0
2, 28879, Note_on_c, 0, 66, 51
2, 28882, Note_on_c, 0, 86, 60
2, 28883, Note_on_c, 0, 62, 37
2, 28904, Note_on_c, 0, 66, 0
2, 28911, Note_on_c, 0, 86, 0
2, 28915, Note_on_c, 0, 66, 23
2, 28917, Control_c, 0, 64, 0
2, 28924, Note_on_c, 0, 83, 44
2, 28925, Note_on_c, 0, 57, 24
2, 28926, Control_c, 0, 64, 127
2, 28934, Note_on_c, 0, 83, 0
2, 28940, Note_on_c, 0, 66, 0
2, 28945, Note_on_c, 0, 57, 0
2, 28988, Note_on_c, 0, 62, 0
2, 29029, Control_c, 0, 64, 0
2, 29030, Note_on_c, 0, 74, 31
2, 29032, Note_on_c, 0, 66, 32
2, 29033, Note_on_c, 0, 78, 25
2, 29034, Note_on_c, 0, 62, 29
2, 29036, Note_on_c, 0, 57, 34
2, 29056, Control_c, 0, 64, 127
2, 29075, Note_on_c, 0, 78, 0
2, 29077, Note_on_c, 0, 57, 0
2, 29085, Note_on_c, 0, 74, 0
2, 29086, Note_on_c, 0, 66, 0
2, 29090, Note_on_c, 0, 62, 0
2, 29121, Note_on_c, 0, 78, 46
2, 29122, Note_on_c, 0, 66, 37
2, 29126, Note_on_c, 0, 62, 28
2, 29128, Note_on_c, 0, 57, 33
2, 29128, Note_on_c, 0, 74, 33
2, 29131, Control_c, 0, 64, 0
2, 29151, Control_c, 0, 64, 127
2, 29153, Note_on_c, 0, 62, 0
2, 29158, Note_on_c, 0, 66, 0
2, 29161, Note_on_c, 0, 74, 0
2, 29162, Note_on_c, 0, 78, 0
2, 29282, Control_c, 0, 64, 0
2, 29290, Note_on_c, 0, 76, 51
2, 29291, Note_on_c, 0, 69, 55
2, 29292, Note_on_c, 0, 64, 50
2, 29293, Note_on_c, 0, 65, 40
2, 29294, Note_on_c, 0, 71, 40
2, 29295, Note_on_c, 0, 57, 0
2, 29337, Control_c, 0, 64, 127
2, 29361, Note_on_c, 0, 69, 0
2, 29362, Note_on_c, 0, 76, 0
2, 29362, Note_on_c, 0, 65, 0
2, 29365, Note_on_c, 0, 71, 0
2, 29366, Note_on_c, 0, 64, 0
2, 29377, Note_on_c, 0, 62, 31
2, 29381, Control_c, 0, 64, 0
2, 29403, Note_on_c, 0, 62, 0
2, 29404, Note_on_c, 0, 76, 56
2, 29406, Note_on_c, 0, 69, 60
2, 29406, Note_on_c, 0, 71, 52
2, 29408, Note_on_c, 0, 65, 46
2, 29409, Note_on_c, 0, 64, 36
2, 29415, Control_c, 0, 64, 127
2, 29430, Note_on_c, 0, 65, 0
2, 29443, Note_on_c, 0, 69, 0
2, 29446, Note_on_c, 0, 71, 0
2, 29457, Note_on_c, 0, 76, 0
2, 29471, Note_on_c, 0, 64, 0
2, 29516, Control_c, 0, 64, 0
2, 29518, Note_on_c, 0, 79, 77
2, 29520, Note_on_c, 0, 72, 74
2, 29520, Note_on_c, 0, 69, 70
2, 29522, Note_on_c, 0, 67, 57
2, 29556, Control_c, 0, 64, 127
2, 29581, Note_on_c, 0, 79, 0
2, 29588, Note_on_c, 0, 69, 0
2, 29590, Note_on_c, 0, 72, 0
2, 29596, Note_on_c, 0, 67, 0
2, 29625, Control_c, 0, 64, 0
2, 29632, Note_on_c, 0, 77, 63
2, 29634, Note_on_c, 0, 72, 59
2, 29635, Note_on_c, 0, 69, 51
2, 29652, Control_c, 0, 64, 127
2, 29668, Note_on_c, 0, 69, 0
2, 29685, Note_on_c, 0, 72, 0
2, 29728, Note_on_c, 0, 77, 0
2, 29841, Note_on_c, 0, 68, 46
2, 29845, Note_on_c, 0, 78, 49
2, 29845, Note_on_c, 0, 75, 50
2, 29845, Note_on_c, 0, 66, 43
2, 29847, Note_on_c, 0, 71, 44
2, 29851, Control_c, 0, 64, 0
2, 29851, Note_on_c, 0, 64, 32
2, 29886, Note_on_c, 0, 66, 0
2, 29888, Note_on_c, 0, 64, 0
2, 29890, Note_on_c, 0, 68, 0
2, 29890, Note_on_c, 0, 71, 0
2, 29896, Note_on_c, 0, 75, 0
2, 29901, Note_on_c, 0, 78, 0
2, 29907, Control_c, 0, 64, 127
2, 29920, Note_on_c, 0, 68, 51
2, 29921, Note_on_c, 0, 78, 45
2, 29923, Note_on_c, 0, 75, 56
2, 29923, Note_on_c, 0, 66, 46
2, 29924, Note_on_c, 0, 71, 46
2, 29928, Note_on_c, 0, 64, 36
2, 29957, Note_on_c, 0, 71, 0
2, 29957, Note_on_c, 0, 68, 0
2, 29960, Note_on_c, 0, 66, 0
2, 29960, Note_on_c, 0, 64, 0
2, 29962, Note_on_c, 0, 75, 0
2, 29970, Note_on_c, 0, 78, 0
2, 29996, Control_c, 0, 64, 0
2, 30004, Note_on_c, 0, 68, 57
2, 30004, Note_on_c, 0, 78, 44
2, 30005, Note_on_c, 0, 75, 53
2, 30006, Control_c, 0, 64, 127
2, 30008, Note_on_c, 0, 71, 46
2, 30009, Note_on_c, 0, 66, 36
2, 30012, Note_on_c, 0, 64, 34
2, 30020, Note_on_c, 0, 66, 0
2, 30021, Note_on_c, 0, 64, 0
2, 30023, Note_on_c, 0, 68, 0
2, 30026, Note_on_c, 0, 71, 0
2, 30038, Note_on_c, 0, 75, 0
2, 30042, Note_on_c, 0, 78, 0
2, 30121, Control_c, 0, 64, 0
2, 30124, Note_on_c, 0, 87, 80
2, 30125, Note_on_c, 0, 80, 81
2, 30125, Note_on_c, 0, 84, 77
2, 30127, Note_on_c, 0, 76, 71
2, 30128, Note_on_c, 0, 75, 82
2, 30135, Note_on_c, 0, 76, 0
2, 30144, Note_on_c, 0, 80, 0
2, 30144, Note_on_c, 0, 75, 0
2, 30146, Note_on_c, 0, 84, 0
2, 30146, Note_on_c, 0, 87, 0
2, 30146, Control_c, 0, 64, 127
2, 30159, Note_on_c, 0, 75, 49
2, 30161, Note_on_c, 0, 87, 56
2, 30162, Note_on_c, 0, 80, 57
2, 30164, Note_on_c, 0, 84, 48
2, 30166, Note_on_c, 0, 76, 49
2, 30171, Note_on_c, 0, 84, 0
2, 30178, Note_on_c, 0, 87, 0
2, 30182, Note_on_c, 0, 76, 0
2, 30187, Note_on_c, 0, 75, 0
2, 30190, Note_on_c, 0, 80, 0
2, 30242, Control_c, 0, 64, 0
2, 30247, Note_on_c, 0, 87, 79
2, 30248, Note_on_c, 0, 75, 74
2, 30249, Note_on_c, 0, 80, 75
2, 30251, Note_on_c, 0, 76, 61
2, 30267, Note_on_c, 0, 76, 0
2, 30272, Control_c, 0, 64, 127
2, 30274, Note_on_c, 0, 80, 0
2, 30274, Note_on_c, 0, 87, 0
2, 30281, Note_on_c, 0, 75, 0
2, 30291, Note_on_c, 0, 73, 61
2, 30308, Note_on_c, 0, 73, 0
2, 30316, Control_c, 0, 64, 0
2, 30322, Note_on_c, 0, 72, 59
2, 30323, Note_on_c, 0, 76, 70
2, 30324, Note_on_c, 0, 73, 55
2, 30324, Note_on_c, 0, 84, 61
2, 30328, Note_on_c, 0, 79, 44
2, 30334, Note_on_c, 0, 72, 0
2, 30339, Note_on_c, 0, 73, 0
2, 30343, Note_on_c, 0, 84, 0
2, 30344, Note_on_c, 0, 76, 0
2, 30346, Note_on_c, 0, 79, 0
2, 30372, Note_on_c, 0, 72, 64
2, 30374, Note_on_c, 0, 76, 62
2, 30375, Note_on_c, 0, 84, 63
2, 30378, Note_on_c, 0, 73, 39
2, 30380, Note_on_c, 0, 84, 0
2, 30389, Note_on_c, 0, 76, 0
2, 30391, Control_c, 0, 64, 127
2, 30396, Note_on_c, 0, 72, 0
2, 30401, Note_on_c, 0, 71, 48
2, 30404, Note_on_c, 0, 73, 0
2, 30410, Note_on_c, 0, 71, 0
2, 30412, Note_on_c, 0, 70, 48
2, 30422, Note_on_c, 0, 70, 0
2, 30425, Control_c, 0, 64, 0
2, 30427, Note_on_c, 0, 73, 59
2, 30428, Note_on_c, 0, 81, 70
2, 30430, Note_on_c, 0, 69, 57
2, 30431, Note_on_c, 0, 76, 40
2, 30448, Note_on_c, 0, 76, 0
2, 30448, Note_on_c, 0, 69, 0
2, 30448, Note_on_c, 0, 81, 0
2, 30450, Note_on_c, 0, 73, 0
2, 30472, Note_on_c, 0, 69, 54
2, 30474, Note_on_c, 0, 73, 60
2, 30474, Note_on_c, 0, 81, 55
2, 30478, Note_on_c, 0, 76, 27
2, 30489, Note_on_c, 0, 81, 0
2, 30491, Note_on_c, 0, 76, 0
2, 30497, Note_on_c, 0, 73, 0
2, 30504, Control_c, 0, 64, 127
2, 30506, Note_on_c, 0, 69, 0
2, 30510, Note_on_c, 0, 67, 44
2, 30522, Control_c, 0, 64, 0
2, 30529, Note_on_c, 0, 67, 0
2, 30532, Note_on_c, 0, 78, 61
2, 30536, Note_on_c, 0, 73, 50
2, 30537, Note_on_c, 0, 70, 50
2, 30537, Note_on_c, 0, 66, 50
2, 30541, Note_on_c, 0, 67, 38
2, 30553, Note_on_c, 0, 67, 0
2, 30555, Note_on_c, 0, 66, 0
2, 30556, Note_on_c, 0, 70, 0
2, 30556, Note_on_c, 0, 73, 0
2, 30560, Control_c, 0, 64, 127
2, 30569, Note_on_c, 0, 78, 0
2, 30588, Control_c, 0, 64, 0
2, 30596, Note_on_c, 0, 78, 64
2, 30597, Note_on_c, 0, 73, 63
2, 30597, Note_on_c, 0, 70, 59
2, 30601, Note_on_c, 0, 67, 40
2, 30601, Note_on_c, 0, 66, 48
2, 30614, Control_c, 0, 64, 127
2, 30638, Note_on_c, 0, 73, 0
2, 30642, Note_on_c, 0, 66, 0
2, 30649, Note_on_c, 0, 70, 0
2, 30659, Note_on_c, 0, 67, 0
2, 30673, Note_on_c, 0, 73, 50
2, 30676, Note_on_c, 0, 78, 0
2, 30683, Note_on_c, 0, 70, 55
2, 30693, Note_on_c, 0, 73, 0
2, 30701, Note_on_c, 0, 67, 47
2, 30704, Note_on_c, 0, 70, 0
2, 30716, Note_on_c, 0, 67, 0
2, 30723, Note_on_c, 0, 52, 58
2, 30723, Note_on_c, 0, 73, 74
2, 30729, Control_c, 0, 64, 0
2, 30764, Control_c, 0, 64, 127
2, 30798, Note_on_c, 0, 66, 39
2, 30798, Note_on_c, 0, 69, 59
2, 30801, Note_on_c, 0, 62, 28
2, 30874, Note_on_c, 0, 62, 0
2, 30927, Note_on_c, 0, 69, 0
2, 30937, Note_on_c, 0, 73, 0
2, 30941, Note_on_c, 0, 66, 0
2, 30963, Note_on_c, 0, 64, 35
2, 30974, Note_on_c, 0, 64, 0
2, 31008, Note_on_c, 0, 61, 70
2, 31028, Note_on_c, 0, 61, 0
2, 31041, Note_on_c, 0, 62, 68
2, 31062, Note_on_c, 0, 62, 0
2, 31080, Note_on_c, 0, 66, 76
2, 31107, Note_on_c, 0, 66, 0
2, 31119, Note_on_c, 0, 69, 76
2, 31120, Note_on_c, 0, 52, 0
2, 31196, Note_on_c, 0, 69, 0
2, 31207, Note_on_c, 0, 59, 66
2, 31210, Note_on_c, 0, 52, 59
2, 31213, Control_c, 0, 64, 0
2, 31232, Note_on_c, 0, 59, 0
2, 31244, Note_on_c, 0, 60, 66
2, 31257, Control_c, 0, 64, 127
2, 31263, Note_on_c, 0, 60, 0
2, 31276, Note_on_c, 0, 64, 62
2, 31307, Note_on_c, 0, 64, 0
2, 31310, Note_on_c, 0, 67, 60
2, 31325, Note_on_c, 0, 67, 0
2, 31342, Note_on_c, 0, 71, 73
2, 31357, Note_on_c, 0, 71, 0
2, 31372, Note_on_c, 0, 72, 74
2, 31396, Note_on_c, 0, 72, 0
2, 31405, Note_on_c, 0, 79, 71
2, 31418, Note_on_c, 0, 79, 0
2, 31440, Note_on_c, 0, 83, 48
2, 31441, Note_on_c, 0, 81, 66
2, 31454, Note_on_c, 0, 83, 0
2, 31456, Note_on_c, 0, 81, 0
2, 31537, Note_on_c, 0, 83, 64
2, 31553, Note_on_c, 0, 83, 0
2, 31579, Note_on_c, 0, 83, 87
2, 31603, Note_on_c, 0, 83, 0
2, 31612, Note_on_c, 0, 84, 80
2, 31624, Note_on_c, 0, 52, 0
2, 31638, Note_on_c, 0, 84, 0
2, 31648, Note_on_c, 0, 88, 88
2, 31675, Note_on_c, 0, 88, 0
2, 31684, Note_on_c, 0, 85, 70
2, 31690, Note_on_c, 0, 52, 54
2, 31691, Control_c, 0, 64, 0
2, 31722, Control_c, 0, 64, 127
2, 31728, Note_on_c, 0, 88, 67
2, 31732, Note_on_c, 0, 85, 0
2, 31755, Note_on_c, 0, 88, 0
2, 31767, Note_on_c, 0, 85, 65
2, 31796, Note_on_c, 0, 61, 1
2, 31811, Note_on_c, 0, 81, 54
2, 31864, Note_on_c, 0, 81, 0
2, 31880, Note_on_c, 0, 78, 45
2, 31884, Note_on_c, 0, 85, 0
2, 31888, Note_on_c, 0, 64, 18
2, 31894, Note_on_c, 0, 78, 0
2, 31913, Note_on_c, 0, 64, 0
2, 31975, Note_on_c, 0, 78, 50
2, 31976, Note_on_c, 0, 74, 60
2, 31977, Note_on_c, 0, 73, 32
2, 31984, Note_on_c, 0, 64, 20
2, 31989, Note_on_c, 0, 74, 0
2, 32019, Note_on_c, 0, 73, 0
2, 32024, Note_on_c, 0, 61, 0
2, 32024, Note_on_c, 0, 64, 0
2, 32048, Note_on_c, 0, 73, 49
2, 32054, Note_on_c, 0, 64, 30
2, 32078, Note_on_c, 0, 52, 0
2, 32078, Note_on_c, 0, 78, 0
2, 32080, Note_on_c, 0, 73, 0
2, 32097, Note_on_c, 0, 64, 0
2, 32121, Note_on_c, 0, 52, 43
2, 32154, Control_c, 0, 64, 0
2, 32159, Note_on_c, 0, 60, 49
2, 32161, Note_on_c, 0, 71, 49
2, 32162, Note_on_c, 0, 76, 51
2, 32163, Note_on_c, 0, 72, 51
2, 32192, Control_c, 0, 64, 127
2, 32282, Note_on_c, 0, 76, 0
2, 32288, Note_on_c, 0, 71, 0
2, 32288, Note_on_c, 0, 72, 0
2, 32301, Note_on_c, 0, 60, 0
2, 32412, Note_on_c, 0, 71, 36
2, 32490, Note_on_c, 0, 60, 61
2, 32496, Note_on_c, 0, 52, 0
2, 32521, Note_on_c, 0, 60, 0
2, 32588, Note_on_c, 0, 52, 47
2, 32599, Note_on_c, 0, 52, 0
2, 32608, Note_on_c, 0, 71, 0
2, 32626, Note_on_c, 0, 52, 30
2, 32659, Note_on_c, 0, 68, 48
2, 32663, Note_on_c, 0, 61, 30
2, 32663, Control_c, 0, 64, 0
2, 32664, Note_on_c, 0, 65, 47
2, 32671, Note_on_c, 0, 52, 0
2, 32672, Note_on_c, 0, 51, 50
2, 32767, Control_c, 0, 64, 127
2, 32796, Note_on_c, 0, 61, 0
2, 32842, Note_on_c, 0, 65, 0
2, 32854, Note_on_c, 0, 68, 0
2, 32877, Note_on_c, 0, 58, 25
2, 32895, Note_on_c, 0, 58, 0
2, 32897, Note_on_c, 0, 72, 80
2, 32902, Note_on_c, 0, 68, 72
2, 32906, Control_c, 0, 64, 0
2, 32907, Note_on_c, 0, 65, 82
2, 32910, Note_on_c, 0, 60, 62
2, 32912, Note_on_c, 0, 61, 64
2, 32938, Control_c, 0, 64, 127
2, 32958, Note_on_c, 0, 72, 0
2, 32991, Note_on_c, 0, 73, 81
2, 33004, Note_on_c, 0, 65, 0
2, 33010, Note_on_c, 0, 61, 0
2, 33013, Note_on_c, 0, 68, 0
2, 33027, Note_on_c, 0, 73, 0
2, 33062, Note_on_c, 0, 75, 71
2, 33073, Note_on_c, 0, 60, 0
2, 33082, Note_on_c, 0, 75, 0
2, 33201, Note_on_c, 0, 70, 68
2, 33208, Note_on_c, 0, 62, 54
2, 33209, Note_on_c, 0, 58, 36
2, 33210, Note_on_c, 0, 65, 58
2, 33214, Note_on_c, 0, 59, 55
2, 33216, Control_c, 0, 64, 0
2, 33219, Control_c, 0, 64, 127
2, 33230, Control_c, 0, 64, 0
2, 33285, Control_c, 0, 64, 127
2, 33288, Note_on_c, 0, 51, 0
2, 33302, Note_on_c, 0, 58, 0
2, 33305, Note_on_c, 0, 51, 67
2, 33308, Control_c, 0, 64, 127
2, 33343, Control_c, 0, 64, 0
2, 33347, Control_c, 0, 64, 127
2, 33374, Note_on_c, 0, 51, 0
2, 33382, Control_c, 0, 64, 0
2, 33389, Note_on_c, 0, 51, 61
2, 33452, Note_on_c, 0, 51, 0
2, 33471, Note_on_c, 0, 51, 53
2, 33476, Note_on_c, 0, 62, 0
2, 33477, Control_c, 0, 64, 127
2, 33478, Note_on_c, 0, 59, 0
2, 33514, Note_on_c, 0, 51, 0
2, 33516, Note_on_c, 0, 65, 0
2, 33526, Control_c, 0, 64, 0
2, 33546, Note_on_c, 0, 51, 61
2, 33587, Note_on_c, 0, 51, 0
2, 33621, Note_on_c, 0, 61, 51
2, 33621, Note_on_c, 0, 58, 37
2, 33623, Control_c, 0, 64, 0
2, 33624, Note_on_c, 0, 51, 48
2, 33627, Note_on_c, 0, 64, 38
2, 33672, Control_c, 0, 64, 127
2, 33682, Note_on_c, 0, 51, 0
2, 33697, Note_on_c, 0, 51, 56
2, 33716, Note_on_c, 0, 58, 0
2, 33726, Note_on_c, 0, 61, 0
2, 33733, Note_on_c, 0, 64, 0
2, 33753, Note_on_c, 0, 51, 0
2, 33756, Note_on_c, 0, 70, 0
2, 33787, Note_on_c, 0, 51, 59
2, 33837, Note_on_c, 0, 51, 0
2, 33851, Note_on_c, 0, 79, 78
2, 33853, Note_on_c, 0, 51, 60
2, 33853, Note_on_c, 0, 67, 83
2, 33857, Note_on_c, 0, 77, 46
2, 33865, Note_on_c, 0, 77, 0
2, 33885, Control_c, 0, 64, 127
2, 33888, Note_on_c, 0, 67, 0
2, 33892, Note_on_c, 0, 79, 0
2, 33901, Control_c, 0, 64, 0
2, 33926, Note_on_c, 0, 80, 75
2, 33927, Note_on_c, 0, 68, 78
2, 33949, Note_on_c, 0, 68, 0
2, 33958, Note_on_c, 0, 80, 0
2, 33967, Note_on_c, 0, 51, 0
2, 33996, Note_on_c, 0, 51, 53
2, 33999, Note_on_c, 0, 82, 60
2, 34000, Note_on_c, 0, 70, 68
2, 34006, Note_on_c, 0, 82, 0
2, 34011, Note_on_c, 0, 70, 0
2, 34024, Note_on_c, 0, 51, 0
2, 34076, Note_on_c, 0, 77, 56
2, 34078, Note_on_c, 0, 71, 58
2, 34078, Note_on_c, 0, 65, 50
2, 34079, Note_on_c, 0, 55, 54
2, 34080, Control_c, 0, 64, 0
2, 34121, Control_c, 0, 64, 127
2, 34141, Note_on_c, 0, 77, 0
2, 34145, Note_on_c, 0, 71, 0
2, 34151, Note_on_c, 0, 43, 45
2, 34162, Note_on_c, 0, 65, 0
2, 34181, Note_on_c, 0, 55, 0
2, 34303, Note_on_c, 0, 67, 35
2, 34303, Control_c, 0, 64, 0
2, 34304, Note_on_c, 0, 61, 39
2, 34305, Note_on_c, 0, 63, 38
2, 34307, Note_on_c, 0, 53, 30
2, 34309, Note_on_c, 0, 59, 36
2, 34327, Control_c, 0, 64, 127
2, 34328, Note_on_c, 0, 67, 0
2, 34346, Note_on_c, 0, 63, 0
2, 34346, Note_on_c, 0, 61, 0
2, 34349, Note_on_c, 0, 59, 0
2, 34353, Note_on_c, 0, 53, 0
2, 34364, Note_on_c, 0, 43, 0
2, 34417, Control_c, 0, 64, 0
2, 34425, Note_on_c, 0, 47, 40
2, 34426, Note_on_c, 0, 56, 37
2, 34428, Note_on_c, 0, 62, 34
2, 34432, Note_on_c, 0, 59, 40
2, 34432, Note_on_c, 0, 65, 34
2, 34479, Note_on_c, 0, 59, 0
2, 34508, Note_on_c, 0, 62, 0
2, 34522, Note_on_c, 0, 65, 0
2, 34529, Note_on_c, 0, 56, 0
2, 34542, Note_on_c, 0, 47, 0
2, 34546, Note_on_c, 0, 63, 30
2, 34550, Note_on_c, 0, 55, 37
2, 34550, Note_on_c, 0, 60, 45
2, 34552, Note_on_c, 0, 48, 32
2, 34593, Note_on_c, 0, 55, 0
2, 34595, Note_on_c, 0, 60, 0
2, 34610, Note_on_c, 0, 48, 0
2, 34612, Note_on_c, 0, 63, 0
2, 34677, Note_on_c, 0, 77, 83
2, 34749, Note_on_c, 0, 74, 31
2, 34750, Note_on_c, 0, 77, 0
2, 34772, Note_on_c, 0, 74, 0
2, 34784, Note_on_c, 0, 75, 51
2, 34848, Note_on_c, 0, 67, 60
2, 34854, Note_on_c, 0, 75, 0
2, 34858, Note_on_c, 0, 67, 0
2, 34988, Note_on_c, 0, 67, 46
2, 35041, Note_on_c, 0, 67, 0
2, 35240, Note_on_c, 0, 67, 46
2, 35463, Note_on_c, 0, 67, 0
2, 35482, Note_on_c, 0, 63, 37
2, 35484, Note_on_c, 0, 58, 37
2, 35484, Note_on_c, 0, 67, 38
2, 35488, Note_on_c, 0, 62, 32
2, 35499, Note_on_c, 0, 62, 0
2, 35506, Note_on_c, 0, 67, 0
2, 35508, Note_on_c, 0, 63, 0
2, 35509, Note_on_c, 0, 58, 0
2, 35685, Note_on_c, 0, 67, 63
2, 35686, Note_on_c, 0, 63, 47
2, 35687, Note_on_c, 0, 58, 38
2, 35690, Note_on_c, 0, 62, 41
2, 35692, Note_on_c, 0, 67, 0
2, 35696, Note_on_c, 0, 58, 0
2, 35697, Note_on_c, 0, 62, 0
2, 35703, Note_on_c, 0, 63, 0
2, 35724, Note_on_c, 0, 89, 89
2, 35724, Note_on_c, 0, 77, 95
2, 35784, Note_on_c, 0, 89, 0
2, 35790, Note_on_c, 0, 77, 0
2, 35810, Note_on_c, 0, 87, 29
2, 35823, Note_on_c, 0, 87, 0
2, 35839, Note_on_c, 0, 67, 49
2, 35840, Note_on_c, 0, 89, 85
2, 35841, Note_on_c, 0, 58, 44
2, 35842, Note_on_c, 0, 63, 37
2, 35842, Note_on_c, 0, 77, 87
2, 35861, Note_on_c, 0, 63, 0
2, 35861, Note_on_c, 0, 67, 0
2, 35869, Note_on_c, 0, 58, 0
2, 35907, Note_on_c, 0, 89, 0
2, 35917, Note_on_c, 0, 77, 0
2, 35923, Note_on_c, 0, 55, 44
2, 35925, Note_on_c, 0, 87, 76
2, 35926, Note_on_c, 0, 60, 51
2, 35929, Note_on_c, 0, 57, 57
2, 35929, Note_on_c, 0, 64, 57
2, 35933, Note_on_c, 0, 77, 40
2, 35943, Note_on_c, 0, 77, 0
2, 35971, Note_on_c, 0, 87, 0
2, 36008, Note_on_c, 0, 86, 81
2, 36014, Note_on_c, 0, 60, 0
2, 36042, Note_on_c, 0, 60, 24
2, 36057, Note_on_c, 0, 86, 0
2, 36076, Note_on_c, 0, 64, 0
2, 36084, Note_on_c, 0, 79, 46
2, 36089, Note_on_c, 0, 55, 0
2, 36101, Note_on_c, 0, 57, 0
2, 36148, Note_on_c, 0, 79, 0
2, 36165, Note_on_c, 0, 64, 37
2, 36166, Note_on_c, 0, 78, 51
2, 36167, Note_on_c, 0, 54, 35
2, 36250, Note_on_c, 0, 60, 0
2, 36276, Note_on_c, 0, 60, 12
2, 36279, Note_on_c, 0, 78, 0
2, 36289, Note_on_c, 0, 81, 71
2, 36317, Note_on_c, 0, 81, 0
2, 36323, Note_on_c, 0, 60, 0
2, 36332, Note_on_c, 0, 64, 0
2, 36335, Note_on_c, 0, 77, 42
2, 36366, Note_on_c, 0, 77, 0
2, 36372, Note_on_c, 0, 54, 0
2, 36375, Note_on_c, 0, 75, 50
2, 36403, Note_on_c, 0, 75, 0
2, 36423, Note_on_c, 0, 59, 49
2, 36426, Note_on_c, 0, 62, 50
2, 36431, Note_on_c, 0, 54, 37
2, 36462, Note_on_c, 0, 75, 81
2, 36516, Note_on_c, 0, 73, 28
2, 36533, Note_on_c, 0, 75, 0
2, 36538, Note_on_c, 0, 73, 0
2, 36550, Note_on_c, 0, 74, 80
2, 36577, Note_on_c, 0, 62, 0
2, 36592, Note_on_c, 0, 71, 36
2, 36595, Note_on_c, 0, 74, 0
2, 36656, Note_on_c, 0, 66, 59
2, 36659, Note_on_c, 0, 71, 0
2, 36676, Note_on_c, 0, 66, 0
2, 36693, Note_on_c, 0, 59, 0
2, 36701, Note_on_c, 0, 62, 46
2, 36761, Note_on_c, 0, 62, 0
2, 36774, Note_on_c, 0, 64, 63
2, 36799, Note_on_c, 0, 54, 0
2, 36801, Note_on_c, 0, 64, 0
2, 36814, Note_on_c, 0, 66, 55
2, 36886, Note_on_c, 0, 66, 0
2, 36887, Note_on_c, 0, 68, 59
2, 36888, Note_on_c, 0, 63, 37
2, 36892, Note_on_c, 0, 54, 28
2, 36893, Note_on_c, 0, 59, 30
2, 36938, Note_on_c, 0, 58, 1
2, 37007, Note_on_c, 0, 70, 55
2, 37013, Note_on_c, 0, 68, 0
2, 37034, Note_on_c, 0, 70, 0
2, 37052, Note_on_c, 0, 71, 54
2, 37090, Note_on_c, 0, 63, 0
2, 37093, Note_on_c, 0, 59, 0
2, 37106, Note_on_c, 0, 54, 0
2, 37110, Note_on_c, 0, 58, 0
2, 37126, Note_on_c, 0, 71, 0
2, 37130, Note_on_c, 0, 73, 56
2, 37163, Note_on_c, 0, 73, 0
2, 37178, Note_on_c, 0, 75, 50
2, 37182, Control_c, 0, 64, 127
2, 37188, Control_c, 0, 64, 0
2, 37241, Note_on_c, 0, 75, 0
2, 37247, Note_on_c, 0, 77, 60
2, 37248, Note_on_c, 0, 63, 52
2, 37255, Note_on_c, 0, 59, 30
2, 37267, Note_on_c, 0, 63, 0
2, 37273, Note_on_c, 0, 59, 0
2, 37279, Note_on_c, 0, 77, 0
2, 37290, Control_c, 0, 64, 127
2, 37301, Control_c, 0, 64, 0
2, 37306, Note_on_c, 0, 79, 40
2, 37321, Control_c, 0, 64, 127
2, 37360, Note_on_c, 0, 79, 0
2, 37375, Note_on_c, 0, 80, 60
2, 37391, Control_c, 0, 64, 0
2, 37415, Note_on_c, 0, 80, 0
2, 37421, Note_on_c, 0, 63, 36
2, 37421, Note_on_c, 0, 56, 30
2, 37425, Note_on_c, 0, 67, 25
2, 37425, Note_on_c, 0, 82, 39
2, 37427, Note_on_c, 0, 60, 40
2, 37433, Control_c, 0, 64, 127
2, 37434, Note_on_c, 0, 70, 21
2, 37445, Control_c, 0, 64, 0
2, 37460, Control_c, 0, 64, 127
2, 37477, Note_on_c, 0, 82, 0
2, 37479, Note_on_c, 0, 70, 0
2, 37483, Note_on_c, 0, 56, 0
2, 37484, Note_on_c, 0, 67, 0
2, 37485, Note_on_c, 0, 60, 0
2, 37486, Note_on_c, 0, 63, 0
2, 37503, Note_on_c, 0, 63, 52
2, 37507, Note_on_c, 0, 56, 32
2, 37509, Note_on_c, 0, 60, 33
2, 37516, Note_on_c, 0, 56, 0
2, 37519, Note_on_c, 0, 60, 0
2, 37519, Control_c, 0, 64, 0
2, 37523, Note_on_c, 0, 63, 0
2, 37536, Note_on_c, 0, 82, 69
2, 37538, Note_on_c, 0, 70, 72
2, 37539, Note_on_c, 0, 63, 60
2, 37540, Note_on_c, 0, 56, 52
2, 37541, Note_on_c, 0, 60, 46
2, 37542, Note_on_c, 0, 67, 57
2, 37550, Control_c, 0, 64, 127
2, 37581, Note_on_c, 0, 70, 0
2, 37584, Note_on_c, 0, 56, 0
2, 37588, Note_on_c, 0, 67, 0
2, 37589, Note_on_c, 0, 82, 0
2, 37595, Note_on_c, 0, 60, 0
2, 37597, Note_on_c, 0, 63, 0
2, 37605, Control_c, 0, 64, 0
2, 37607, Note_on_c, 0, 84, 71
2, 37610, Note_on_c, 0, 72, 58
2, 37611, Note_on_c, 0, 63, 63
2, 37612, Note_on_c, 0, 67, 67
2, 37612, Note_on_c, 0, 60, 60
2, 37613, Note_on_c, 0, 56, 69
2, 37633, Note_on_c, 0, 72, 0
2, 37634, Note_on_c, 0, 67, 0
2, 37634, Note_on_c, 0, 84, 0
2, 37635, Note_on_c, 0, 56, 0
2, 37641, Control_c, 0, 64, 127
2, 37643, Note_on_c, 0, 63, 0
2, 37643, Note_on_c, 0, 60, 0
2, 37653, Note_on_c, 0, 56, 44
2, 37655, Note_on_c, 0, 74, 58
2, 37655, Note_on_c, 0, 67, 53
2, 37656, Note_on_c, 0, 86, 62
2, 37658, Note_on_c, 0, 60, 39
2, 37659, Note_on_c, 0, 63, 49
2, 37683, Note_on_c, 0, 79, 9
2, 37686, Note_on_c, 0, 74, 0
2, 37690, Note_on_c, 0, 86, 0
2, 37699, Note_on_c, 0, 56, 0
2, 37703, Note_on_c, 0, 67, 0
2, 37704, Note_on_c, 0, 60, 0
2, 37706, Note_on_c, 0, 63, 0
2, 37712, Note_on_c, 0, 79, 0
2, 37722, Note_on_c, 0, 87, 63
2, 37727, Note_on_c, 0, 63, 37
2, 37727, Note_on_c, 0, 75, 42
2, 37728, Note_on_c, 0, 67, 40
2, 37729, Note_on_c, 0, 56, 35
2, 37736, Control_c, 0, 64, 0
2, 37738, Note_on_c, 0, 67, 0
2, 37739, Note_on_c, 0, 56, 0
2, 37743, Note_on_c, 0, 87, 0
2, 37745, Note_on_c, 0, 75, 0
2, 37747, Note_on_c, 0, 63, 0
2, 37759, Note_on_c, 0, 67, 53
2, 37759, Note_on_c, 0, 56, 45
2, 37760, Note_on_c, 0, 63, 44
2, 37764, Note_on_c, 0, 89, 63
2, 37764, Control_c, 0, 64, 127
2, 37765, Note_on_c, 0, 60, 45
2, 37766, Note_on_c, 0, 77, 44
2, 37779, Note_on_c, 0, 77, 0
2, 37786, Note_on_c, 0, 89, 0
2, 37803, Note_on_c, 0, 56, 0
2, 37806, Note_on_c, 0, 67, 0
2, 37818, Note_on_c, 0, 63, 0
2, 37818, Note_on_c, 0, 60, 0
2, 37839, Control_c, 0, 64, 0
2, 37839, Note_on_c, 0, 91, 78
2, 37841, Note_on_c, 0, 64, 66
2, 37842, Note_on_c, 0, 84, 66
2, 37843, Note_on_c, 0, 67, 62
2, 37843, Note_on_c, 0, 56, 59
2, 37844, Note_on_c, 0, 60, 58
2, 37844, Note_on_c, 0, 79, 51
2, 37879, Control_c, 0, 64, 127
2, 37897, Note_on_c, 0, 91, 0
2, 37902, Note_on_c, 0, 79, 0
2, 37905, Note_on_c, 0, 84, 0
2, 37914, Note_on_c, 0, 56, 0
2, 37915, Note_on_c, 0, 67, 0
2, 37918, Note_on_c, 0, 60, 0
2, 37923, Note_on_c, 0, 64, 0
2, 37955, Note_on_c, 0, 92, 65
2, 37956, Control_c, 0, 64, 0
2, 37958, Note_on_c, 0, 80, 68
2, 37958, Note_on_c, 0, 64, 67
2, 37960, Note_on_c, 0, 56, 65
2, 37961, Note_on_c, 0, 87, 64
2, 37961, Note_on_c, 0, 67, 66
2, 37963, Note_on_c, 0, 60, 60
2, 37991, Control_c, 0, 64, 127
2, 38000, Note_on_c, 0, 64, 0
2, 38003, Note_on_c, 0, 80, 0
2, 38006, Note_on_c, 0, 87, 0
2, 38011, Note_on_c, 0, 92, 0
2, 38018, Note_on_c, 0, 56, 0
2, 38018, Note_on_c, 0, 67, 0
2, 38031, Note_on_c, 0, 60, 0
2, 38068, Control_c, 0, 64, 0
2, 38079, Note_on_c, 0, 94, 74
2, 38079, Note_on_c, 0, 63, 75
2, 38080, Note_on_c, 0, 56, 74
2, 38081, Note_on_c, 0, 87, 79
2, 38081, Note_on_c, 0, 67, 81
2, 38081, Note_on_c, 0, 82, 71
2, 38082, Note_on_c, 0, 60, 64
2, 38115, Control_c, 0, 64, 127
2, 38123, Note_on_c, 0, 87, 0
2, 38130, Note_on_c, 0, 82, 0
2, 38134, Note_on_c, 0, 94, 0
2, 38143, Note_on_c, 0, 60, 0
2, 38146, Note_on_c, 0, 67, 0
2, 38147, Note_on_c, 0, 56, 0
2, 38152, Note_on_c, 0, 63, 0
2, 38201, Control_c, 0, 64, 0
2, 38202, Note_on_c, 0, 96, 74
2, 38202, Note_on_c, 0, 56, 73
2, 38203, Note_on_c, 0, 91, 71
2, 38203, Note_on_c, 0, 63, 74
2, 38204, Note_on_c, 0, 84, 66
2, 38204, Note_on_c, 0, 67, 74
2, 38205, Note_on_c, 0, 94, 49
2, 38206, Note_on_c, 0, 61, 29
2, 38212, Note_on_c, 0, 94, 0
2, 38230, Note_on_c, 0, 61, 0
2, 38239, Note_on_c, 0, 56, 0
2, 38239, Control_c, 0, 64, 127
2, 38242, Note_on_c, 0, 84, 0
2, 38247, Note_on_c, 0, 63, 0
2, 38250, Note_on_c, 0, 96, 0
2, 38250, Note_on_c, 0, 67, 0
2, 38251, Note_on_c, 0, 91, 0
2, 38318, Control_c, 0, 64, 0
2, 38319, Note_on_c, 0, 98, 79
2, 38320, Note_on_c, 0, 91, 79
2, 38320, Note_on_c, 0, 59, 55
2, 38321, Note_on_c, 0, 86, 72
2, 38324, Note_on_c, 0, 60, 68
2, 38324, Note_on_c, 0, 67, 64
2, 38325, Note_on_c, 0, 63, 55
2, 38361, Control_c, 0, 64, 127
2, 38375, Note_on_c, 0, 86, 0
2, 38381, Note_on_c, 0, 91, 0
2, 38383, Note_on_c, 0, 98, 0
2, 38398, Note_on_c, 0, 60, 0
2, 38398, Note_on_c, 0, 63, 0
2, 38399, Note_on_c, 0, 67, 0
2, 38400, Note_on_c, 0, 59, 0
2, 38439, Note_on_c, 0, 99, 69
2, 38440, Note_on_c, 0, 87, 69
2, 38442, Control_c, 0, 64, 0
2, 38442, Note_on_c, 0, 59, 48
2, 38443, Note_on_c, 0, 67, 57
2, 38444, Note_on_c, 0, 63, 53
2, 38444, Note_on_c, 0, 94, 55
2, 38445, Note_on_c, 0, 60, 46
2, 38478, Control_c, 0, 64, 127
2, 38500, Note_on_c, 0, 94, 0
2, 38506, Note_on_c, 0, 87, 0
2, 38508, Note_on_c, 0, 99, 0
2, 38512, Note_on_c, 0, 60, 0
2, 38514, Note_on_c, 0, 59, 0
2, 38517, Note_on_c, 0, 67, 0
2, 38537, Note_on_c, 0, 63, 0
2, 38584, Control_c, 0, 64, 0
2, 38604, Note_on_c, 0, 101, 53
2, 38606, Note_on_c, 0, 67, 46
2, 38607, Note_on_c, 0, 63, 43
2, 38608, Note_on_c, 0, 94, 38
2, 38609, Note_on_c, 0, 89, 31
2, 38610, Note_on_c, 0, 58, 36
2, 38645, Note_on_c, 0, 89, 0
2, 38647, Note_on_c, 0, 101, 0
2, 38650, Note_on_c, 0, 94, 0
2, 38651, Note_on_c, 0, 58, 0
2, 38653, Note_on_c, 0, 63, 0
2, 38659, Note_on_c, 0, 67, 0
2, 38729, Control_c, 0, 64, 127
2, 38824, Control_c, 0, 64, 0
2, 38848, Note_on_c, 0, 67, 32
2, 38852, Note_on_c, 0, 63, 25
2, 38859, Note_on_c, 0, 59, 15
2, 38891, Note_on_c, 0, 63, 0
2, 38898, Note_on_c, 0, 59, 0
2, 38902, Note_on_c, 0, 67, 0
2, 38969, Note_on_c, 0, 98, 94
2, 39012, Note_on_c, 0, 98, 0
2, 39053, Note_on_c, 0, 101, 90
2, 39054, Note_on_c, 0, 67, 47
2, 39055, Note_on_c, 0, 63, 40
2, 39058, Note_on_c, 0, 59, 36
2, 39073, Note_on_c, 0, 67, 0
2, 39084, Note_on_c, 0, 63, 0
2, 39097, Note_on_c, 0, 101, 0
2, 39109, Note_on_c, 0, 59, 0
2, 39117, Note_on_c, 0, 99, 70
2, 39155, Note_on_c, 0, 99, 0
2, 39178, Note_on_c, 0, 98, 60
2, 39187, Note_on_c, 0, 59, 31
2, 39215, Note_on_c, 0, 59, 0
2, 39226, Note_on_c, 0, 98, 0
2, 39232, Note_on_c, 0, 91, 44
2, 39291, Note_on_c, 0, 91, 0
2, 39302, Note_on_c, 0, 64, 57
2, 39304, Note_on_c, 0, 98, 76
2, 39305, Note_on_c, 0, 55, 30
2, 39306, Note_on_c, 0, 57, 47
2, 39306, Note_on_c, 0, 60, 44
2, 39321, Note_on_c, 0, 55, 0
2, 39324, Note_on_c, 0, 64, 0
2, 39353, Note_on_c, 0, 60, 0
2, 39356, Note_on_c, 0, 98, 0
2, 39357, Note_on_c, 0, 57, 0
2, 39371, Note_on_c, 0, 96, 58
2, 39419, Note_on_c, 0, 91, 67
2, 39425, Note_on_c, 0, 60, 31
2, 39438, Note_on_c, 0, 60, 0
2, 39443, Note_on_c, 0, 96, 0
2, 39454, Note_on_c, 0, 91, 0
2, 39473, Note_on_c, 0, 84, 35
2, 39520, Note_on_c, 0, 84, 0
2, 39539, Note_on_c, 0, 84, 55
2, 39545, Note_on_c, 0, 64, 50
2, 39553, Note_on_c, 0, 57, 27
2, 39553, Note_on_c, 0, 60, 25
2, 39555, Note_on_c, 0, 64, 0
2, 39567, Note_on_c, 0, 84, 0
2, 39572, Note_on_c, 0, 60, 0
2, 39581, Note_on_c, 0, 57, 0
2, 39599, Note_on_c, 0, 84, 19
2, 39631, Note_on_c, 0, 84, 0
2, 39651, Note_on_c, 0, 64, 61
2, 39654, Note_on_c, 0, 57, 44
2, 39656, Note_on_c, 0, 55, 29
2, 39658, Note_on_c, 0, 60, 32
2, 39660, Note_on_c, 0, 64, 0
2, 39669, Note_on_c, 0, 60, 0
2, 39670, Note_on_c, 0, 55, 0
2, 39681, Note_on_c, 0, 57, 0
2, 39765, Note_on_c, 0, 65, 57
2, 39768, Note_on_c, 0, 60, 43
2, 39768, Note_on_c, 0, 54, 39
2, 39983, Note_on_c, 0, 60, 0
2, 40016, Note_on_c, 0, 60, 31
2, 40040, Note_on_c, 0, 88, 80
2, 40041, Note_on_c, 0, 86, 75
2, 40063, Note_on_c, 0, 65, 0
2, 40088, Note_on_c, 0, 88, 0
2, 40094, Note_on_c, 0, 86, 0
2, 40109, Note_on_c, 0, 87, 67
2, 40111, Note_on_c, 0, 65, 51
2, 40115, Note_on_c, 0, 86, 53
2, 40117, Note_on_c, 0, 87, 0
2, 40118, Note_on_c, 0, 85, 31
2, 40134, Note_on_c, 0, 65, 0
2, 40143, Note_on_c, 0, 85, 0
2, 40151, Note_on_c, 0, 60, 0
2, 40206, Note_on_c, 0, 54, 0
2, 40211, Note_on_c, 0, 86, 0
2, 40223, Note_on_c, 0, 84, 74
2, 40229, Note_on_c, 0, 62, 44
2, 40231, Note_on_c, 0, 59, 19
2, 40240, Note_on_c, 0, 54, 25
2, 40252, Note_on_c, 0, 84, 0
2, 40272, Note_on_c, 0, 83, 51
2, 40369, Note_on_c, 0, 83, 0
2, 40372, Note_on_c, 0, 84, 63
2, 40393, Note_on_c, 0, 84, 0
2, 40396, Note_on_c, 0, 83, 64
2, 40401, Note_on_c, 0, 62, 0
2, 40421, Note_on_c, 0, 54, 0
2, 40421, Note_on_c, 0, 78, 46
2, 40433, Note_on_c, 0, 85, 18
2, 40442, Note_on_c, 0, 83, 0
2, 40471, Note_on_c, 0, 85, 0
2, 40487, Note_on_c, 0, 78, 0
2, 40525, Note_on_c, 0, 74, 46
2, 40572, Note_on_c, 0, 59, 0
2, 40584, Note_on_c, 0, 74, 0
2, 40594, Note_on_c, 0, 76, 62
2, 40603, Note_on_c, 0, 59, 27
2, 40605, Note_on_c, 0, 54, 31
2, 40607, Note_on_c, 0, 62, 20
2, 40621, Note_on_c, 0, 62, 0
2, 40624, Note_on_c, 0, 76, 0
2, 40637, Note_on_c, 0, 71, 40
2, 40668, Note_on_c, 0, 54, 0
2, 40672, Note_on_c, 0, 59, 0
2, 40705, Note_on_c, 0, 71, 0
2, 40756, Note_on_c, 0, 76, 57
2, 40759, Note_on_c, 0, 65, 49
2, 40760, Note_on_c, 0, 64, 46
2, 40760, Note_on_c, 0, 72, 44
2, 40761, Note_on_c, 0, 69, 44
2, 40963, Note_on_c, 0, 69, 0
2, 40963, Note_on_c, 0, 72, 0
2, 40964, Note_on_c, 0, 65, 0
2, 40974, Note_on_c, 0, 76, 0
2, 40978, Note_on_c, 0, 64, 0
2, 40991, Note_on_c, 0, 62, 28
2, 41002, Note_on_c, 0, 62, 0
2, 41005, Note_on_c, 0, 76, 57
2, 41008, Note_on_c, 0, 71, 51
2, 41008, Note_on_c, 0, 65, 53
2, 41009, Note_on_c, 0, 69, 53
2, 41013, Note_on_c, 0, 64, 53
2, 41086, Note_on_c, 0, 65, 0
2, 41099, Note_on_c, 0, 69, 0
2, 41100, Note_on_c, 0, 76, 0
2, 41108, Note_on_c, 0, 71, 0
2, 41118, Note_on_c, 0, 64, 0
2, 41119, Note_on_c, 0, 74, 57
2, 41123, Note_on_c, 0, 65, 34
2, 41123, Note_on_c, 0, 62, 31
2, 41147, Note_on_c, 0, 65, 0
2, 41187, Note_on_c, 0, 74, 0
2, 41192, Note_on_c, 0, 62, 0
2, 41202, Note_on_c, 0, 64, 66
2, 41202, Note_on_c, 0, 76, 57
2, 41203, Note_on_c, 0, 73, 38
2, 41203, Note_on_c, 0, 69, 59
2, 41210, Note_on_c, 0, 55, 36
2, 41414, Note_on_c, 0, 55, 0
2, 41437, Note_on_c, 0, 64, 0
2, 41455, Note_on_c, 0, 55, 35
2, 41483, Note_on_c, 0, 69, 0
2, 41491, Note_on_c, 0, 67, 55
2, 41494, Note_on_c, 0, 76, 0
2, 41558, Note_on_c, 0, 67, 0
2, 41574, Note_on_c, 0, 73, 0
2, 41575, Note_on_c, 0, 69, 34
2, 41579, Note_on_c, 0, 64, 31
2, 41592, Note_on_c, 0, 69, 0
2, 41593, Note_on_c, 0, 64, 0
2, 41611, Note_on_c, 0, 71, 83
2, 41635, Note_on_c, 0, 55, 0
2, 41671, Note_on_c, 0, 71, 0
2, 41812, Note_on_c, 0, 65, 79
2, 41814, Note_on_c, 0, 62, 68
2, 41815, Note_on_c, 0, 58, 67
2, 41816, Note_on_c, 0, 57, 73
2, 41819, Note_on_c, 0, 55, 52
2, 41891, Note_on_c, 0, 54, 57
2, 41897, Note_on_c, 0, 55, 0
2, 41961, Note_on_c, 0, 54, 0
2, 41971, Note_on_c, 0, 55, 40
2, 42052, Note_on_c, 0, 43, 44
2, 42094, Control_c, 0, 64, 127
2, 42104, Note_on_c, 0, 43, 0
2, 42114, Control_c, 0, 64, 0
2, 42123, Control_c, 0, 64, 127
2, 42155, Note_on_c, 0, 55, 0
2, 42159, Note_on_c, 0, 62, 0
2, 42160, Note_on_c, 0, 57, 0
2, 42165, Note_on_c, 0, 43, 26
2, 42183, Note_on_c, 0, 43, 0
2, 42186, Note_on_c, 0, 65, 0
2, 42192, Control_c, 0, 64, 0
2, 42195, Note_on_c, 0, 58, 0
2, 42215, Note_on_c, 0, 65, 54
2, 42215, Note_on_c, 0, 63, 50
2, 42216, Note_on_c, 0, 58, 53
2, 42216, Note_on_c, 0, 55, 37
2, 42219, Note_on_c, 0, 53, 27
2, 42219, Note_on_c, 0, 41, 37
2, 42247, Control_c, 0, 64, 127
2, 42302, Control_c, 0, 64, 0
2, 42339, Control_c, 0, 64, 127
2, 42360, Note_on_c, 0, 41, 0
2, 42408, Note_on_c, 0, 65, 0
2, 42408, Note_on_c, 0, 55, 0
2, 42408, Note_on_c, 0, 41, 56
2, 42416, Note_on_c, 0, 63, 0
2, 42418, Note_on_c, 0, 58, 0
2, 42423, Note_on_c, 0, 53, 0
2, 42460, Note_on_c, 0, 53, 37
2, 42470, Note_on_c, 0, 53, 0
2, 42474, Control_c, 0, 64, 0
2, 42502, Note_on_c, 0, 55, 51
2, 42523, Note_on_c, 0, 55, 0
2, 42537, Note_on_c, 0, 57, 67
2, 42546, Note_on_c, 0, 53, 27
2, 42563, Note_on_c, 0, 57, 0
2, 42608, Note_on_c, 0, 57, 44
2, 42618, Note_on_c, 0, 53, 0
2, 42639, Note_on_c, 0, 57, 0
2, 42649, Note_on_c, 0, 58, 63
2, 42662, Note_on_c, 0, 53, 25
2, 42687, Note_on_c, 0, 58, 0
2, 42696, Note_on_c, 0, 57, 32
2, 42726, Note_on_c, 0, 58, 56
2, 42727, Note_on_c, 0, 57, 0
2, 42727, Note_on_c, 0, 53, 0
2, 42757, Note_on_c, 0, 58, 0
2, 42767, Note_on_c, 0, 60, 51
2, 42774, Note_on_c, 0, 53, 27
2, 42787, Note_on_c, 0, 60, 0
2, 42814, Note_on_c, 0, 58, 31
2, 42837, Note_on_c, 0, 58, 0
2, 42853, Note_on_c, 0, 60, 35
2, 42884, Note_on_c, 0, 62, 64
2, 42890, Note_on_c, 0, 60, 0
2, 42903, Note_on_c, 0, 41, 0
2, 42910, Note_on_c, 0, 62, 0
2, 42923, Note_on_c, 0, 53, 0
2, 42926, Note_on_c, 0, 63, 55
2, 42956, Note_on_c, 0, 60, 43
2, 42957, Note_on_c, 0, 63, 0
2, 42975, Note_on_c, 0, 60, 0
2, 42985, Note_on_c, 0, 62, 32
2, 43009, Note_on_c, 0, 62, 0
2, 43014, Note_on_c, 0, 63, 62
2, 43031, Note_on_c, 0, 63, 0
2, 43044, Note_on_c, 0, 65, 58
2, 43061, Note_on_c, 0, 65, 0
2, 43074, Note_on_c, 0, 66, 46
2, 43097, Note_on_c, 0, 66, 0
2, 43105, Note_on_c, 0, 67, 50
2, 43139, Note_on_c, 0, 68, 51
2, 43146, Note_on_c, 0, 67, 0
2, 43157, Note_on_c, 0, 68, 0
2, 43169, Note_on_c, 0, 63, 47
2, 43174, Note_on_c, 0, 53, 41
2, 43259, Note_on_c, 0, 63, 0
2, 43268, Note_on_c, 0, 60, 25
2, 43297, Note_on_c, 0, 63, 51
2, 43297, Note_on_c, 0, 70, 57
2, 43300, Note_on_c, 0, 67, 57
2, 43355, Note_on_c, 0, 63, 0
2, 43362, Note_on_c, 0, 70, 0
2, 43378, Note_on_c, 0, 62, 42
2, 43378, Note_on_c, 0, 63, 56
2, 43379, Note_on_c, 0, 74, 78
2, 43395, Note_on_c, 0, 60, 0
2, 43413, Note_on_c, 0, 62, 0
2, 43415, Note_on_c, 0, 74, 0
2, 43420, Note_on_c, 0, 63, 0
2, 43424, Control_c, 0, 64, 127
2, 43435, Note_on_c, 0, 63, 30
2, 43436, Note_on_c, 0, 72, 51
2, 43480, Note_on_c, 0, 63, 0
2, 43481, Note_on_c, 0, 67, 0
2, 43504, Note_on_c, 0, 63, 59
2, 43505, Note_on_c, 0, 70, 64
2, 43510, Control_c, 0, 64, 0
2, 43510, Note_on_c, 0, 60, 36
2, 43527, Note_on_c, 0, 72, 0
2, 43536, Note_on_c, 0, 63, 0
2, 43540, Note_on_c, 0, 53, 0
2, 43545, Control_c, 0, 64, 127
2, 43548, Note_on_c, 0, 70, 0
2, 43552, Note_on_c, 0, 67, 43
2, 43567, Note_on_c, 0, 63, 18
2, 43596, Note_on_c, 0, 63, 0
2, 43602, Note_on_c, 0, 60, 0
2, 43610, Note_on_c, 0, 67, 0
2, 43621, Note_on_c, 0, 63, 33
2, 43627, Note_on_c, 0, 53, 34
2, 43640, Note_on_c, 0, 53, 0
2, 43642, Note_on_c, 0, 63, 0
2, 43651, Control_c, 0, 64, 0
2, 43663, Note_on_c, 0, 58, 48
2, 43663, Note_on_c, 0, 62, 56
2, 43665, Note_on_c, 0, 52, 41
2, 43665, Note_on_c, 0, 69, 55
2, 43666, Note_on_c, 0, 66, 46
2, 43722, Note_on_c, 0, 66, 0
2, 43725, Note_on_c, 0, 62, 0
2, 43740, Note_on_c, 0, 66, 43
2, 43747, Note_on_c, 0, 69, 0
2, 43774, Note_on_c, 0, 66, 0
2, 43791, Note_on_c, 0, 67, 28
2, 43809, Note_on_c, 0, 52, 0
2, 43815, Control_c, 0, 64, 127
2, 43828, Note_on_c, 0, 58, 0
2, 43838, Note_on_c, 0, 62, 33
2, 43847, Note_on_c, 0, 67, 0
2, 43848, Note_on_c, 0, 62, 0
2, 43854, Note_on_c, 0, 69, 73
2, 43859, Control_c, 0, 64, 0
2, 43877, Note_on_c, 0, 61, 40
2, 43883, Note_on_c, 0, 55, 35
2, 43891, Note_on_c, 0, 69, 0
2, 43905, Control_c, 0, 64, 127
2, 43910, Note_on_c, 0, 70, 35
2, 43953, Note_on_c, 0, 70, 0
2, 43973, Note_on_c, 0, 72, 56
2, 43980, Note_on_c, 0, 65, 45
2, 43982, Control_c, 0, 64, 0
2, 43999, Note_on_c, 0, 65, 0
2, 44004, Note_on_c, 0, 72, 0
2, 44008, Note_on_c, 0, 55, 0
2, 44024, Control_c, 0, 64, 127
2, 44061, Note_on_c, 0, 61, 0
2, 44088, Note_on_c, 0, 77, 54
2, 44122, Note_on_c, 0, 77, 0
2, 44125, Control_c, 0, 64, 0
2, 44135, Note_on_c, 0, 61, 28
2, 44136, Note_on_c, 0, 60, 28
2, 44139, Note_on_c, 0, 79, 34
2, 44155, Note_on_c, 0, 60, 0
2, 44157, Note_on_c, 0, 61, 0
2, 44192, Control_c, 0, 64, 127
2, 44195, Note_on_c, 0, 79, 0
2, 44214, Control_c, 0, 64, 0
2, 44214, Note_on_c, 0, 65, 46
2, 44214, Note_on_c, 0, 61, 30
2, 44216, Note_on_c, 0, 60, 32
2, 44217, Note_on_c, 0, 81, 55
2, 44218, Note_on_c, 0, 55, 28
2, 44221, Note_on_c, 0, 79, 33
2, 44229, Note_on_c, 0, 81, 0
2, 44231, Note_on_c, 0, 65, 0
2, 44232, Note_on_c, 0, 79, 0
2, 44233, Note_on_c, 0, 55, 0
2, 44238, Note_on_c, 0, 60, 0
2, 44240, Note_on_c, 0, 61, 0
2, 44253, Note_on_c, 0, 81, 69
2, 44254, Note_on_c, 0, 69, 69
2, 44256, Note_on_c, 0, 65, 36
2, 44257, Note_on_c, 0, 55, 34
2, 44258, Note_on_c, 0, 61, 47
2, 44260, Note_on_c, 0, 75, 47
2, 44260, Note_on_c, 0, 60, 36
2, 44266, Control_c, 0, 64, 127
2, 44289, Note_on_c, 0, 69, 0
2, 44294, Note_on_c, 0, 81, 0
2, 44301, Note_on_c, 0, 55, 0
2, 44307, Note_on_c, 0, 65, 0
2, 44308, Note_on_c, 0, 75, 0
2, 44313, Note_on_c, 0, 60, 0
2, 44315, Note_on_c, 0, 61, 0
2, 44330, Note_on_c, 0, 82, 67
2, 44330, Note_on_c, 0, 75, 56
2, 44332, Note_on_c, 0, 70, 64
2, 44333, Note_on_c, 0, 65, 71
2, 44334, Note_on_c, 0, 60, 56
2, 44334, Note_on_c, 0, 61, 55
2, 44336, Note_on_c, 0, 77, 50
2, 44336, Note_on_c, 0, 55, 52
2, 44346, Control_c, 0, 64, 0
2, 44357, Note_on_c, 0, 70, 0
2, 44358, Note_on_c, 0, 65, 0
2, 44365, Note_on_c, 0, 61, 0
2, 44365, Note_on_c, 0, 75, 0
2, 44366, Note_on_c, 0, 55, 0
2, 44367, Note_on_c, 0, 82, 0
2, 44370, Note_on_c, 0, 77, 0
2, 44379, Note_on_c, 0, 65, 53
2, 44379, Note_on_c, 0, 55, 26
2, 44382, Note_on_c, 0, 81, 56
2, 44382, Note_on_c, 0, 61, 52
2, 44385, Note_on_c, 0, 75, 31
2, 44385, Note_on_c, 0, 69, 42
2, 44389, Note_on_c, 0, 77, 34
2, 44395, Control_c, 0, 64, 127
2, 44415, Note_on_c, 0, 69, 0
2, 44415, Note_on_c, 0, 81, 0
2, 44427, Note_on_c, 0, 55, 0
2, 44431, Note_on_c, 0, 65, 0
2, 44435, Note_on_c, 0, 61, 0
2, 44439, Note_on_c, 0, 60, 0
2, 44442, Note_on_c, 0, 77, 0
2, 44450, Note_on_c, 0, 82, 58
2, 44453, Note_on_c, 0, 70, 48
2, 44455, Note_on_c, 0, 65, 63
2, 44455, Note_on_c, 0, 61, 47
2, 44456, Note_on_c, 0, 60, 49
2, 44460, Note_on_c, 0, 55, 32
2, 44461, Control_c, 0, 64, 0
2, 44464, Note_on_c, 0, 77, 22
2, 44476, Note_on_c, 0, 65, 0
2, 44477, Note_on_c, 0, 70, 0
2, 44482, Note_on_c, 0, 82, 0
2, 44485, Note_on_c, 0, 61, 0
2, 44487, Note_on_c, 0, 75, 0
2, 44489, Note_on_c, 0, 77, 0
2, 44496, Note_on_c, 0, 81, 53
2, 44503, Note_on_c, 0, 69, 32
2, 44503, Note_on_c, 0, 75, 34
2, 44503, Note_on_c, 0, 65, 51
2, 44505, Control_c, 0, 64, 127
2, 44505, Note_on_c, 0, 61, 32
2, 44513, Note_on_c, 0, 77, 16
2, 44522, Note_on_c, 0, 69, 0
2, 44522, Note_on_c, 0, 81, 0
2, 44526, Note_on_c, 0, 65, 0
2, 44529, Note_on_c, 0, 55, 0
2, 44530, Note_on_c, 0, 77, 0
2, 44538, Note_on_c, 0, 61, 0
2, 44539, Note_on_c, 0, 75, 0
2, 44541, Note_on_c, 0, 60, 0
2, 44566, Note_on_c, 0, 82, 50
2, 44567, Note_on_c, 0, 75, 44
2, 44570, Note_on_c, 0, 70, 35
2, 44571, Note_on_c, 0, 61, 52
2, 44573, Note_on_c, 0, 65, 56
2, 44574, Note_on_c, 0, 55, 33
2, 44575, Note_on_c, 0, 60, 42
2, 44584, Note_on_c, 0, 65, 0
2, 44586, Note_on_c, 0, 60, 0
2, 44590, Note_on_c, 0, 70, 0
2, 44595, Note_on_c, 0, 75, 0
2, 44595, Control_c, 0, 64, 0
2, 44596, Note_on_c, 0, 55, 0
2, 44596, Note_on_c, 0, 61, 0
2, 44598, Note_on_c, 0, 82, 0
2, 44613, Note_on_c, 0, 83, 64
2, 44614, Note_on_c, 0, 71, 60
2, 44615, Note_on_c, 0, 55, 33
2, 44616, Note_on_c, 0, 64, 48
2, 44618, Note_on_c, 0, 60, 48
2, 44619, Note_on_c, 0, 59, 35
2, 44623, Note_on_c, 0, 76, 33
2, 44627, Control_c, 0, 64, 127
2, 44655, Note_on_c, 0, 71, 0
2, 44657, Note_on_c, 0, 76, 0
2, 44663, Note_on_c, 0, 83, 0
2, 44666, Note_on_c, 0, 64, 0
2, 44666, Note_on_c, 0, 55, 0
2, 44670, Note_on_c, 0, 60, 0
2, 44672, Note_on_c, 0, 59, 0
2, 44688, Note_on_c, 0, 86, 75
2, 44689, Note_on_c, 0, 64, 58
2, 44690, Note_on_c, 0, 55, 34
2, 44690, Note_on_c, 0, 60, 58
2, 44691, Note_on_c, 0, 74, 64
2, 44691, Note_on_c, 0, 79, 60
2, 44692, Note_on_c, 0, 59, 54
2, 44699, Note_on_c, 0, 82, 23
2, 44710, Note_on_c, 0, 82, 0
2, 44712, Note_on_c, 0, 79, 0
2, 44712, Note_on_c, 0, 74, 0
2, 44714, Note_on_c, 0, 64, 0
2, 44714, Note_on_c, 0, 86, 0
2, 44716, Note_on_c, 0, 55, 0
2, 44718, Note_on_c, 0, 60, 0
2, 44719, Control_c, 0, 64, 0
2, 44721, Note_on_c, 0, 59, 0
2, 44733, Note_on_c, 0, 64, 51
2, 44734, Note_on_c, 0, 55, 31
2, 44736, Note_on_c, 0, 60, 46
2, 44736, Note_on_c, 0, 59, 27
2, 44739, Note_on_c, 0, 71, 35
2, 44742, Note_on_c, 0, 72, 30
2, 44746, Note_on_c, 0, 84, 15
2, 44754, Control_c, 0, 64, 127
2, 44756, Note_on_c, 0, 71, 0
2, 44765, Note_on_c, 0, 72, 0
2, 44773, Note_on_c, 0, 84, 0
2, 44776, Note_on_c, 0, 55, 0
2, 44784, Note_on_c, 0, 64, 0
2, 44784, Note_on_c, 0, 59, 0
2, 44785, Control_c, 0, 64, 0
2, 44789, Note_on_c, 0, 60, 0
2, 44808, Note_on_c, 0, 86, 65
2, 44809, Note_on_c, 0, 55, 51
2, 44811, Note_on_c, 0, 60, 49
2, 44812, Note_on_c, 0, 64, 55
2, 44812, Note_on_c, 0, 74, 67
2, 44813, Note_on_c, 0, 79, 60
2, 44814, Note_on_c, 0, 59, 41
2, 44821, Note_on_c, 0, 79, 0
2, 44824, Note_on_c, 0, 59, 0
2, 44827, Note_on_c, 0, 86, 0
2, 44830, Note_on_c, 0, 55, 0
2, 44831, Note_on_c, 0, 64, 0
2, 44831, Note_on_c, 0, 74, 0
2, 44833, Note_on_c, 0, 60, 0
2, 44855, Note_on_c, 0, 64, 54
2, 44856, Note_on_c, 0, 83, 55
2, 44857, Note_on_c, 0, 71, 33
2, 44860, Note_on_c, 0, 60, 38
2, 44862, Note_on_c, 0, 54, 43
2, 44880, Note_on_c, 0, 76, 10
2, 44894, Control_c, 0, 64, 127
2, 44921, Note_on_c, 0, 83, 0
2, 44923, Control_c, 0, 64, 0
2, 44924, Note_on_c, 0, 54, 0
2, 44925, Note_on_c, 0, 60, 0
2, 44925, Note_on_c, 0, 64, 0
2, 44925, Note_on_c, 0, 76, 0
2, 44927, Note_on_c, 0, 71, 0
2, 44963, Note_on_c, 0, 82, 57
2, 44964, Note_on_c, 0, 54, 44
2, 44965, Note_on_c, 0, 64, 54
2, 44967, Control_c, 0, 64, 127
2, 44968, Note_on_c, 0, 75, 54
2, 44988, Note_on_c, 0, 54, 0
2, 44999, Note_on_c, 0, 64, 0
2, 45016, Note_on_c, 0, 82, 0
2, 45031, Note_on_c, 0, 75, 0
2, 45042, Control_c, 0, 64, 0
2, 45044, Note_on_c, 0, 81, 56
2, 45047, Note_on_c, 0, 69, 44
2, 45048, Note_on_c, 0, 74, 58
2, 45048, Note_on_c, 0, 66, 52
2, 45050, Note_on_c, 0, 57, 49
2, 45052, Note_on_c, 0, 62, 45
2, 45076, Note_on_c, 0, 69, 0
2, 45081, Control_c, 0, 64, 127
2, 45089, Note_on_c, 0, 74, 0
2, 45106, Note_on_c, 0, 81, 0
2, 45141, Note_on_c, 0, 62, 0
2, 45179, Note_on_c, 0, 66, 0
2, 45183, Note_on_c, 0, 62, 31
2, 45211, Note_on_c, 0, 83, 80
2, 45220, Control_c, 0, 64, 0
2, 45227, Note_on_c, 0, 83, 0
2, 45244, Note_on_c, 0, 83, 54
2, 45269, Note_on_c, 0, 62, 0
2, 45270, Note_on_c, 0, 83, 0
2, 45292, Note_on_c, 0, 66, 44
2, 45297, Note_on_c, 0, 62, 41
2, 45303, Note_on_c, 0, 66, 0
2, 45322, Control_c, 0, 64, 127
2, 45328, Note_on_c, 0, 85, 83
2, 45342, Control_c, 0, 64, 0
2, 45349, Note_on_c, 0, 85, 0
2, 45349, Note_on_c, 0, 57, 0
2, 45366, Note_on_c, 0, 85, 76
2, 45379, Note_on_c, 0, 62, 0
2, 45398, Note_on_c, 0, 85, 0
2, 45409, Note_on_c, 0, 66, 59
2, 45411, Note_on_c, 0, 57, 59
2, 45412, Note_on_c, 0, 62, 39
2, 45429, Note_on_c, 0, 66, 0
2, 45454, Control_c, 0, 64, 127
2, 45455, Note_on_c, 0, 83, 74
2, 45458, Note_on_c, 0, 62, 0
2, 45464, Note_on_c, 0, 57, 0
2, 45469, Control_c, 0, 64, 0
2, 45470, Note_on_c, 0, 83, 0
2, 45491, Note_on_c, 0, 83, 72
2, 45494, Control_c, 0, 64, 127
2, 45507, Control_c, 0, 64, 0
2, 45508, Note_on_c, 0, 83, 0
2, 45536, Note_on_c, 0, 56, 76
2, 45537, Note_on_c, 0, 67, 68
2, 45538, Note_on_c, 0, 62, 62
2, 45539, Note_on_c, 0, 84, 77
2, 45539, Note_on_c, 0, 88, 76
2, 45541, Note_on_c, 0, 77, 60
2, 45544, Note_on_c, 0, 79, 50
2, 45573, Control_c, 0, 64, 127
2, 45594, Note_on_c, 0, 79, 0
2, 45603, Note_on_c, 0, 77, 0
2, 45625, Note_on_c, 0, 88, 0
2, 45638, Note_on_c, 0, 62, 0
2, 45638, Note_on_c, 0, 84, 0
2, 45639, Note_on_c, 0, 56, 0
2, 45640, Note_on_c, 0, 67, 0
2, 45684, Control_c, 0, 64, 0
2, 45684, Note_on_c, 0, 84, 74
2, 45685, Note_on_c, 0, 88, 72
2, 45686, Note_on_c, 0, 67, 68
2, 45686, Note_on_c, 0, 56, 72
2, 45687, Note_on_c, 0, 79, 64
2, 45688, Note_on_c, 0, 62, 64
2, 45701, Control_c, 0, 64, 127
2, 45708, Note_on_c, 0, 67, 0
2, 45713, Note_on_c, 0, 62, 0
2, 45726, Note_on_c, 0, 56, 0
2, 45808, Note_on_c, 0, 79, 0
2, 45812, Note_on_c, 0, 84, 0
2, 45815, Note_on_c, 0, 88, 0
2, 45880, Control_c, 0, 64, 0
2, 45887, Note_on_c, 0, 50, 51
2, 45887, Note_on_c, 0, 57, 57
2, 45887, Note_on_c, 0, 60, 68
2, 45887, Note_on_c, 0, 89, 76
2, 45888, Note_on_c, 0, 84, 82
2, 45889, Note_on_c, 0, 53, 53
2, 45890, Note_on_c, 0, 77, 74
2, 45890, Note_on_c, 0, 87, 55
2, 45899, Note_on_c, 0, 87, 0
2, 45917, Note_on_c, 0, 50, 0
2, 45921, Note_on_c, 0, 53, 0
2, 45922, Control_c, 0, 64, 127
2, 45926, Note_on_c, 0, 57, 0
2, 45930, Note_on_c, 0, 60, 0
2, 45964, Note_on_c, 0, 77, 0
2, 45967, Note_on_c, 0, 89, 0
2, 45976, Note_on_c, 0, 84, 0
2, 46036, Control_c, 0, 64, 0
2, 46041, Note_on_c, 0, 68, 36
2, 46047, Note_on_c, 0, 90, 62
2, 46047, Note_on_c, 0, 59, 26
2, 46048, Note_on_c, 0, 63, 36
2, 46049, Note_on_c, 0, 64, 42
2, 46050, Note_on_c, 0, 78, 45
2, 46084, Note_on_c, 0, 78, 0
2, 46110, Note_on_c, 0, 90, 0
2, 46129, Note_on_c, 0, 88, 51
2, 46153, Note_on_c, 0, 88, 0
2, 46176, Note_on_c, 0, 90, 50
2, 46182, Note_on_c, 0, 78, 30
2, 46222, Note_on_c, 0, 78, 0
2, 46227, Note_on_c, 0, 90, 0
2, 46254, Note_on_c, 0, 88, 37
2, 46272, Note_on_c, 0, 88, 0
2, 46298, Note_on_c, 0, 90, 62
2, 46300, Note_on_c, 0, 78, 39
2, 46328, Note_on_c, 0, 64, 0
2, 46331, Note_on_c, 0, 68, 0
2, 46337, Note_on_c, 0, 63, 0
2, 46337, Note_on_c, 0, 59, 0
2, 46365, Note_on_c, 0, 68, 52
2, 46372, Note_on_c, 0, 63, 32
2, 46374, Note_on_c, 0, 64, 43
2, 46377, Note_on_c, 0, 59, 20
2, 46410, Control_c, 0, 64, 127
2, 46412, Note_on_c, 0, 59, 0
2, 46416, Note_on_c, 0, 68, 0
2, 46433, Note_on_c, 0, 64, 0
2, 46439, Note_on_c, 0, 63, 0
2, 46460, Note_on_c, 0, 78, 0
2, 46471, Note_on_c, 0, 90, 0
2, 46493, Note_on_c, 0, 88, 59
2, 46498, Control_c, 0, 64, 0
2, 46519, Note_on_c, 0, 88, 0
2, 46531, Note_on_c, 0, 68, 46
2, 46533, Note_on_c, 0, 58, 48
2, 46535, Note_on_c, 0, 64, 58
2, 46536, Note_on_c, 0, 63, 40
2, 46536, Note_on_c, 0, 90, 64
2, 46539, Note_on_c, 0, 78, 51
2, 46542, Control_c, 0, 64, 127
2, 46571, Note_on_c, 0, 78, 0
2, 46575, Note_on_c, 0, 58, 0
2, 46575, Note_on_c, 0, 64, 0
2, 46579, Note_on_c, 0, 90, 0
2, 46582, Note_on_c, 0, 63, 0
2, 46583, Note_on_c, 0, 68, 0
2, 46605, Note_on_c, 0, 68, 57
2, 46608, Note_on_c, 0, 58, 48
2, 46609, Note_on_c, 0, 63, 42
2, 46610, Note_on_c, 0, 64, 55
2, 46611, Note_on_c, 0, 82, 57
2, 46611, Note_on_c, 0, 94, 62
2, 46612, Control_c, 0, 64, 0
2, 46618, Note_on_c, 0, 64, 0
2, 46623, Note_on_c, 0, 68, 0
2, 46625, Note_on_c, 0, 82, 0
2, 46627, Note_on_c, 0, 94, 0
2, 46628, Note_on_c, 0, 58, 0
2, 46628, Note_on_c, 0, 63, 0
2, 46654, Control_c, 0, 64, 127
2, 46714, Control_c, 0, 64, 0
2, 46728, Note_on_c, 0, 90, 59
2, 46731, Note_on_c, 0, 68, 67
2, 46731, Note_on_c, 0, 78, 60
2, 46734, Note_on_c, 0, 64, 62
2, 46735, Note_on_c, 0, 58, 53
2, 46735, Note_on_c, 0, 63, 37
2, 46764, Control_c, 0, 64, 127
2, 46806, Note_on_c, 0, 58, 0
2, 46806, Note_on_c, 0, 90, 0
2, 46810, Note_on_c, 0, 78, 0
2, 46823, Note_on_c, 0, 68, 0
2, 46825, Note_on_c, 0, 64, 0
2, 46828, Note_on_c, 0, 63, 0
2, 46848, Note_on_c, 0, 58, 58
2, 46878, Note_on_c, 0, 58, 0
2, 46998, Control_c, 0, 64, 0
2, 47004, Note_on_c, 0, 62, 43
2, 47047, Control_c, 0, 64, 127
2, 47066, Control_c, 0, 64, 0
2, 47084, Note_on_c, 0, 50, 30
2, 47111, Control_c, 0, 64, 127
2, 47129, Note_on_c, 0, 62, 0
2, 47169, Note_on_c, 0, 66, 52
2, 47171, Note_on_c, 0, 62, 60
2, 47172, Note_on_c, 0, 61, 37
2, 47236, Note_on_c, 0, 61, 0
2, 47244, Note_on_c, 0, 62, 0
2, 47248, Note_on_c, 0, 69, 67
2, 47249, Control_c, 0, 64, 0
2, 47255, Note_on_c, 0, 50, 0
2, 47258, Note_on_c, 0, 66, 0
2, 47258, Control_c, 0, 64, 127
2, 47318, Note_on_c, 0, 69, 0
2, 47320, Control_c, 0, 64, 0
2, 47324, Note_on_c, 0, 52, 43
2, 47324, Note_on_c, 0, 61, 56
2, 47325, Note_on_c, 0, 66, 57
2, 47328, Note_on_c, 0, 62, 66
2, 47371, Control_c, 0, 64, 127
2, 47379, Note_on_c, 0, 52, 0
2, 47406, Note_on_c, 0, 52, 51
2, 47434, Note_on_c, 0, 62, 0
2, 47440, Note_on_c, 0, 61, 0
2, 47441, Note_on_c, 0, 66, 0
2, 47443, Note_on_c, 0, 52, 0
2, 47490, Control_c, 0, 64, 0
2, 47491, Note_on_c, 0, 64, 53
2, 47493, Note_on_c, 0, 59, 45
2, 47493, Note_on_c, 0, 52, 47
2, 47495, Note_on_c, 0, 60, 55
2, 47535, Note_on_c, 0, 52, 0
2, 47541, Control_c, 0, 64, 127
2, 47545, Control_c, 0, 64, 0
2, 47570, Note_on_c, 0, 52, 50
2, 47588, Note_on_c, 0, 59, 0
2, 47589, Control_c, 0, 64, 127
2, 47591, Note_on_c, 0, 60, 0
2, 47601, Note_on_c, 0, 64, 0
2, 47613, Note_on_c, 0, 52, 0
2, 47678, Note_on_c, 0, 52, 56
2, 47708, Control_c, 0, 64, 0
2, 47719, Note_on_c, 0, 71, 66
2, 47739, Note_on_c, 0, 71, 0
2, 47756, Note_on_c, 0, 72, 57
2, 47757, Control_c, 0, 64, 127
2, 47770, Note_on_c, 0, 52, 0
2, 47775, Note_on_c, 0, 72, 0
2, 47790, Control_c, 0, 64, 0
2, 47793, Note_on_c, 0, 74, 80
2, 47801, Note_on_c, 0, 52, 57
2, 47820, Note_on_c, 0, 74, 0
2, 47834, Note_on_c, 0, 71, 60
2, 47849, Control_c, 0, 64, 127
2, 47860, Note_on_c, 0, 71, 0
2, 47868, Note_on_c, 0, 52, 0
2, 47870, Note_on_c, 0, 67, 54
2, 47891, Control_c, 0, 64, 0
2, 47897, Note_on_c, 0, 67, 0
2, 47907, Note_on_c, 0, 52, 55
2, 47907, Note_on_c, 0, 64, 46
2, 47922, Control_c, 0, 64, 127
2, 47978, Note_on_c, 0, 64, 0
2, 47987, Note_on_c, 0, 52, 0
2, 48016, Note_on_c, 0, 66, 67
2, 48017, Control_c, 0, 64, 0
2, 48017, Note_on_c, 0, 62, 54
2, 48020, Note_on_c, 0, 52, 47
2, 48052, Control_c, 0, 64, 127
2, 48054, Note_on_c, 0, 62, 0
2, 48054, Note_on_c, 0, 61, 44
2, 48055, Note_on_c, 0, 66, 0
2, 48064, Note_on_c, 0, 52, 0
2, 48065, Control_c, 0, 64, 0
2, 48079, Note_on_c, 0, 61, 0
2, 48093, Note_on_c, 0, 62, 67
2, 48093, Note_on_c, 0, 52, 56
2, 48095, Note_on_c, 0, 66, 59
2, 48112, Control_c, 0, 64, 127
2, 48179, Note_on_c, 0, 66, 0
2, 48183, Note_on_c, 0, 62, 0
2, 48187, Control_c, 0, 64, 0
2, 48209, Control_c, 0, 64, 127
2, 48212, Note_on_c, 0, 66, 50
2, 48217, Note_on_c, 0, 62, 53
2, 48234, Note_on_c, 0, 52, 0
2, 48242, Note_on_c, 0, 66, 0
2, 48245, Note_on_c, 0, 61, 46
2, 48249, Note_on_c, 0, 62, 0
2, 48264, Control_c, 0, 64, 0
2, 48279, Note_on_c, 0, 61, 0
2, 48289, Note_on_c, 0, 52, 62
2, 48290, Note_on_c, 0, 62, 79
2, 48292, Note_on_c, 0, 66, 63
2, 48324, Control_c, 0, 64, 127
2, 48344, Note_on_c, 0, 52, 0
2, 48385, Note_on_c, 0, 62, 0
2, 48406, Note_on_c, 0, 52, 56
2, 48410, Note_on_c, 0, 66, 0
2, 48424, Note_on_c, 0, 52, 0
2, 48443, Control_c, 0, 64, 0
2, 48450, Note_on_c, 0, 64, 69
2, 48451, Note_on_c, 0, 67, 68
2, 48451, Note_on_c, 0, 60, 68
2, 48451, Note_on_c, 0, 59, 70
2, 48453, Note_on_c, 0, 52, 73
2, 48579, Control_c, 0, 64, 127
2, 48605, Note_on_c, 0, 59, 0
2, 48618, Note_on_c, 0, 60, 0
2, 48618, Note_on_c, 0, 52, 0
2, 48618, Note_on_c, 0, 67, 0
2, 48619, Note_on_c, 0, 64, 0
2, 48655, Note_on_c, 0, 67, 64
2, 48655, Note_on_c, 0, 64, 71
2, 48656, Note_on_c, 0, 59, 77
2, 48656, Note_on_c, 0, 60, 75
2, 48657, Note_on_c, 0, 52, 75
2, 48659, Control_c, 0, 64, 0
2, 48705, Control_c, 0, 64, 127
2, 48720, Note_on_c, 0, 52, 0
2, 48775, Note_on_c, 0, 52, 89
2, 48780, Note_on_c, 0, 59, 0
2, 48780, Control_c, 0, 64, 0
2, 48820, Note_on_c, 0, 60, 0
2, 48820, Control_c, 0, 64, 127
2, 48825, Note_on_c, 0, 67, 0
2, 48825, Note_on_c, 0, 59, 31
2, 48827, Note_on_c, 0, 64, 0
2, 48850, Note_on_c, 0, 52, 0
2, 48897, Note_on_c, 0, 59, 0
2, 48900, Note_on_c, 0, 52, 60
2, 48925, Note_on_c, 0, 52, 0
2, 48936, Control_c, 0, 64, 0
2, 48938, Note_on_c, 0, 61, 74
2, 48939, Note_on_c, 0, 65, 79
2, 48939, Note_on_c, 0, 68, 69
2, 48940, Note_on_c, 0, 51, 76
2, 49056, Control_c, 0, 64, 127
2, 49070, Note_on_c, 0, 61, 0
2, 49077, Note_on_c, 0, 51, 0
2, 49083, Note_on_c, 0, 65, 0
2, 49107, Note_on_c, 0, 68, 0
2, 49132, Note_on_c, 0, 51, 60
2, 49154, Note_on_c, 0, 51, 0
2, 49262, Note_on_c, 0, 72, 68
2, 49262, Note_on_c, 0, 63, 62
2, 49262, Note_on_c, 0, 57, 68
2, 49263, Note_on_c, 0, 67, 70
2, 49263, Note_on_c, 0, 84, 64
2, 49265, Control_c, 0, 64, 0
2, 49266, Note_on_c, 0, 86, 37
2, 49276, Note_on_c, 0, 86, 0
2, 49297, Control_c, 0, 64, 127
2, 49298, Note_on_c, 0, 57, 0
2, 49301, Note_on_c, 0, 67, 0
2, 49307, Note_on_c, 0, 63, 0
2, 49320, Note_on_c, 0, 72, 0
2, 49324, Note_on_c, 0, 84, 0
2, 49354, Note_on_c, 0, 73, 34
2, 49354, Note_on_c, 0, 85, 38
2, 49363, Note_on_c, 0, 85, 0
2, 49363, Note_on_c, 0, 73, 0
2, 49385, Note_on_c, 0, 75, 59
2, 49385, Note_on_c, 0, 87, 70
2, 49403, Note_on_c, 0, 75, 0
2, 49406, Note_on_c, 0, 87, 0
2, 49407, Control_c, 0, 64, 0
2, 49528, Control_c, 0, 64, 127
2, 49622, Note_on_c, 0, 70, 70
2, 49624, Note_on_c, 0, 65, 74
2, 49625, Note_on_c, 0, 62, 71
2, 49625, Control_c, 0, 64, 0
2, 49634, Note_on_c, 0, 51, 37
2, 49651, Note_on_c, 0, 51, 0
2, 49693, Control_c, 0, 64, 127
2, 49698, Note_on_c, 0, 51, 69
2, 49726, Note_on_c, 0, 51, 0
2, 49753, Control_c, 0, 64, 0
2, 49783, Note_on_c, 0, 51, 67
2, 49788, Control_c, 0, 64, 127
2, 49827, Note_on_c, 0, 51, 0
2, 49859, Control_c, 0, 64, 0
2, 49865, Note_on_c, 0, 51, 75
2, 49905, Control_c, 0, 64, 127
2, 49930, Note_on_c, 0, 51, 0
2, 49974, Note_on_c, 0, 51, 69
2, 49991, Note_on_c, 0, 65, 0
2, 49991, Control_c, 0, 64, 0
2, 50007, Note_on_c, 0, 70, 0
2, 50007, Note_on_c, 0, 62, 0
2, 50009, Control_c, 0, 64, 127
2, 50013, Note_on_c, 0, 51, 0
2, 50089, Note_on_c, 0, 51, 40
2, 50106, Control_c, 0, 64, 0
2, 50109, Note_on_c, 0, 51, 0
2, 50126, Note_on_c, 0, 67, 48
2, 50128, Note_on_c, 0, 51, 57
2, 50128, Note_on_c, 0, 63, 46
2, 50128, Note_on_c, 0, 58, 34
2, 50145, Control_c, 0, 64, 127
2, 50185, Note_on_c, 0, 67, 0
2, 50192, Note_on_c, 0, 58, 0
2, 50201, Note_on_c, 0, 68, 53
2, 50219, Note_on_c, 0, 68, 0
2, 50232, Note_on_c, 0, 63, 0
2, 50232, Note_on_c, 0, 51, 0
2, 50243, Note_on_c, 0, 70, 70
2, 50290, Note_on_c, 0, 70, 0
2, 50315, Control_c, 0, 64, 0
2, 50328, Note_on_c, 0, 60, 43
2, 50329, Note_on_c, 0, 65, 54
2, 50329, Note_on_c, 0, 56, 42
2, 50329, Note_on_c, 0, 50, 36
2, 50375, Control_c, 0, 64, 127
2, 50447, Note_on_c, 0, 50, 0
2, 50456, Note_on_c, 0, 56, 0
2, 50456, Note_on_c, 0, 60, 0
2, 50482, Control_c, 0, 64, 127
2, 50490, Note_on_c, 0, 65, 0
2, 50543, Control_c, 0, 64, 0
2, 50593, Control_c, 0, 64, 0
2, 50599, Note_on_c, 0, 63, 28
2, 50602, Note_on_c, 0, 59, 36
2, 50604, Note_on_c, 0, 53, 31
2, 50620, Control_c, 0, 64, 127
2, 50666, Control_c, 0, 64, 0
2, 50689, Note_on_c, 0, 71, 30
2, 50711, Note_on_c, 0, 53, 0
2, 50719, Control_c, 0, 64, 127
2, 50721, Note_on_c, 0, 59, 0
2, 50733, Control_c, 0, 64, 127
2, 50735, Note_on_c, 0, 63, 0
2, 50767, Note_on_c, 0, 71, 0
2, 50772, Note_on_c, 0, 74, 43
2, 50791, Note_on_c, 0, 74, 0
2, 50805, Note_on_c, 0, 77, 45
2, 50834, Note_on_c, 0, 77, 0
2, 50845, Note_on_c, 0, 63, 23
2, 50846, Note_on_c, 0, 75, 38
2, 50848, Note_on_c, 0, 60, 30
2, 50849, Note_on_c, 0, 67, 22
2, 50850, Note_on_c, 0, 62, 33
2, 50880, Control_c, 0, 64, 0
2, 50996, Note_on_c, 0, 75, 0
2, 51051, Note_on_c, 0, 46, 47
2, 51059, Note_on_c, 0, 67, 0
2, 51059, Note_on_c, 0, 62, 0
2, 51062, Control_c, 0, 64, 0
2, 51064, Note_on_c, 0, 60, 0
2, 51077, Note_on_c, 0, 63, 0
2, 51083, Note_on_c, 0, 48, 40
2, 51083, Note_on_c, 0, 63, 59
2, 51084, Note_on_c, 0, 46, 0
2, 51087, Note_on_c, 0, 60, 49
2, 51088, Note_on_c, 0, 58, 55
2, 51095, Note_on_c, 0, 55, 29
2, 51116, Control_c, 0, 64, 127
2, 51129, Note_on_c, 0, 60, 0
2, 51146, Note_on_c, 0, 63, 0
2, 51163, Note_on_c, 0, 48, 0
2, 51170, Note_on_c, 0, 50, 54
2, 51174, Note_on_c, 0, 65, 44
2, 51183, Note_on_c, 0, 55, 0
2, 51185, Note_on_c, 0, 58, 0
2, 51185, Note_on_c, 0, 65, 0
2, 51190, Control_c, 0, 64, 0
2, 51197, Note_on_c, 0, 50, 0
2, 51208, Note_on_c, 0, 51, 62
2, 51212, Note_on_c, 0, 67, 67
2, 51233, Control_c, 0, 64, 127
2, 51248, Note_on_c, 0, 51, 0
2, 51258, Note_on_c, 0, 67, 0
2, 51262, Control_c, 0, 64, 0
2, 51326, Note_on_c, 0, 44, 54
2, 51339, Control_c, 0, 64, 127
2, 51358, Note_on_c, 0, 46, 25
2, 51372, Note_on_c, 0, 44, 0
2, 51375, Note_on_c, 0, 46, 0
2, 51417, Note_on_c, 0, 70, 74
2, 51417, Note_on_c, 0, 74, 74
2, 51418, Note_on_c, 0, 65, 77
2, 51420, Note_on_c, 0, 54, 68
2, 51421, Control_c, 0, 64, 0
2, 51435, Note_on_c, 0, 65, 0
2, 51445, Note_on_c, 0, 70, 0
2, 51446, Note_on_c, 0, 74, 0
2, 51453, Note_on_c, 0, 54, 0
2, 51523, Note_on_c, 0, 70, 71
2, 51523, Note_on_c, 0, 74, 74
2, 51524, Note_on_c, 0, 60, 54
2, 51524, Note_on_c, 0, 54, 64
2, 51525, Note_on_c, 0, 65, 76
2, 51557, Control_c, 0, 64, 127
2, 51559, Note_on_c, 0, 54, 0
2, 51563, Note_on_c, 0, 70, 0
2, 51565, Note_on_c, 0, 74, 0
2, 51565, Note_on_c, 0, 65, 0
2, 51570, Note_on_c, 0, 60, 0
2, 51597, Note_on_c, 0, 74, 44
2, 51598, Note_on_c, 0, 60, 41
2, 51599, Note_on_c, 0, 65, 46
2, 51599, Note_on_c, 0, 70, 56
2, 51600, Note_on_c, 0, 54, 45
2, 51630, Note_on_c, 0, 54, 0
2, 51636, Note_on_c, 0, 65, 0
2, 51639, Note_on_c, 0, 74, 0
2, 51642, Note_on_c, 0, 70, 0
2, 51650, Note_on_c, 0, 60, 0
2, 51660, Control_c, 0, 64, 0
2, 51662, Note_on_c, 0, 54, 44
2, 51674, Note_on_c, 0, 70, 45
2, 51674, Note_on_c, 0, 74, 48
2, 51678, Note_on_c, 0, 65, 37
2, 51683, Control_c, 0, 64, 127
2, 51690, Note_on_c, 0, 65, 0
2, 51690, Note_on_c, 0, 54, 0
2, 51698, Note_on_c, 0, 74, 0
2, 51713, Note_on_c, 0, 70, 0
2, 51760, Control_c, 0, 64, 0
2, 51763, Note_on_c, 0, 75, 52
2, 51768, Note_on_c, 0, 63, 42
2, 51770, Note_on_c, 0, 70, 43
2, 51770, Note_on_c, 0, 60, 38
2, 51771, Note_on_c, 0, 72, 44
2, 51773, Note_on_c, 0, 58, 33
2, 51774, Note_on_c, 0, 67, 28
2, 51821, Note_on_c, 0, 67, 0
2, 51827, Control_c, 0, 64, 127
2, 51833, Note_on_c, 0, 70, 0
2, 51833, Note_on_c, 0, 72, 0
2, 51844, Note_on_c, 0, 75, 0
2, 51907, Note_on_c, 0, 60, 0
2, 51910, Note_on_c, 0, 58, 0
2, 51947, Note_on_c, 0, 63, 0
2, 52000, Note_on_c, 0, 87, 73
2, 52001, Note_on_c, 0, 67, 59
2, 52002, Note_on_c, 0, 58, 50
2, 52002, Note_on_c, 0, 63, 39
2, 52003, Note_on_c, 0, 75, 70
2, 52008, Note_on_c, 0, 62, 47
2, 52009, Note_on_c, 0, 60, 44
2, 52018, Note_on_c, 0, 62, 0
2, 52028, Note_on_c, 0, 75, 0
2, 52031, Note_on_c, 0, 67, 0
2, 52032, Note_on_c, 0, 58, 0
2, 52038, Note_on_c, 0, 60, 0
2, 52040, Note_on_c, 0, 63, 0
2, 52040, Note_on_c, 0, 87, 0
2, 52059, Note_on_c, 0, 67, 50
2, 52063, Note_on_c, 0, 63, 51
2, 52064, Note_on_c, 0, 60, 49
2, 52065, Note_on_c, 0, 58, 37
2, 52067, Note_on_c, 0, 89, 55
2, 52068, Note_on_c, 0, 77, 58
2, 52092, Note_on_c, 0, 77, 0
2, 52096, Note_on_c, 0, 89, 0
2, 52098, Note_on_c, 0, 58, 0
2, 52109, Note_on_c, 0, 67, 0
2, 52110, Note_on_c, 0, 60, 0
2, 52123, Note_on_c, 0, 63, 0
2, 52127, Control_c, 0, 64, 0
2, 52138, Note_on_c, 0, 91, 64
2, 52141, Note_on_c, 0, 58, 57
2, 52141, Note_on_c, 0, 67, 50
2, 52143, Note_on_c, 0, 63, 35
2, 52145, Note_on_c, 0, 79, 37
2, 52152, Note_on_c, 0, 67, 0
2, 52156, Note_on_c, 0, 79, 0
2, 52162, Note_on_c, 0, 91, 0
2, 52163, Note_on_c, 0, 63, 0
2, 52168, Note_on_c, 0, 58, 0
2, 52254, Note_on_c, 0, 98, 87
2, 52255, Note_on_c, 0, 55, 67
2, 52255, Note_on_c, 0, 86, 82
2, 52255, Note_on_c, 0, 57, 72
2, 52256, Note_on_c, 0, 64, 83
2, 52256, Note_on_c, 0, 60, 73
2, 52258, Note_on_c, 0, 93, 78
2, 52308, Control_c, 0, 64, 127
2, 52437, Note_on_c, 0, 55, 0
2, 52441, Note_on_c, 0, 64, 0
2, 52445, Note_on_c, 0, 57, 0
2, 52469, Note_on_c, 0, 86, 0
2, 52476, Note_on_c, 0, 93, 0
2, 52480, Note_on_c, 0, 98, 0
2, 52516, Control_c, 0, 64, 0
2, 52525, Note_on_c, 0, 54, 46
2, 52526, Note_on_c, 0, 86, 39
2, 52527, Note_on_c, 0, 98, 43
2, 52528, Note_on_c, 0, 64, 39
2, 52530, Note_on_c, 0, 94, 45
2, 52565, Control_c, 0, 64, 127
2, 52622, Note_on_c, 0, 98, 0
2, 52635, Note_on_c, 0, 94, 0
2, 52636, Note_on_c, 0, 86, 0
2, 52654, Note_on_c, 0, 64, 0
2, 52658, Note_on_c, 0, 60, 0
2, 52662, Note_on_c, 0, 54, 0
2, 52719, Note_on_c, 0, 54, 47
2, 52719, Note_on_c, 0, 64, 44
2, 52720, Note_on_c, 0, 96, 51
2, 52723, Note_on_c, 0, 60, 35
2, 52725, Note_on_c, 0, 84, 39
2, 52736, Note_on_c, 0, 60, 0
2, 52737, Note_on_c, 0, 64, 0
2, 52746, Note_on_c, 0, 96, 0
2, 52748, Note_on_c, 0, 84, 0
2, 52752, Note_on_c, 0, 54, 0
2, 52764, Control_c, 0, 64, 0
2, 52774, Note_on_c, 0, 54, 37
2, 52780, Note_on_c, 0, 59, 31
2, 52780, Note_on_c, 0, 62, 19
2, 52780, Note_on_c, 0, 95, 37
2, 52781, Note_on_c, 0, 83, 46
2, 52790, Control_c, 0, 64, 127
2, 52808, Note_on_c, 0, 83, 0
2, 52818, Note_on_c, 0, 95, 0
2, 52828, Note_on_c, 0, 54, 0
2, 52830, Note_on_c, 0, 62, 0
2, 52839, Note_on_c, 0, 59, 0
2, 52854, Control_c, 0, 64, 0
2, 52857, Note_on_c, 0, 54, 39
2, 52858, Note_on_c, 0, 59, 40
2, 52860, Note_on_c, 0, 62, 42
2, 52871, Note_on_c, 0, 62, 0
2, 52878, Note_on_c, 0, 59, 0
2, 52881, Note_on_c, 0, 54, 0
2, 52974, Note_on_c, 0, 54, 51
2, 52975, Note_on_c, 0, 59, 36
2, 52975, Note_on_c, 0, 62, 44
2, 52976, Note_on_c, 0, 102, 52
2, 52977, Note_on_c, 0, 90, 46
2, 52996, Note_on_c, 0, 90, 0
2, 52997, Note_on_c, 0, 62, 0
2, 53004, Note_on_c, 0, 102, 0
2, 53004, Note_on_c, 0, 59, 0
2, 53007, Note_on_c, 0, 54, 0
2, 53095, Note_on_c, 0, 59, 78
2, 53095, Note_on_c, 0, 54, 76
2, 53097, Note_on_c, 0, 102, 74
2, 53098, Note_on_c, 0, 62, 71
2, 53099, Note_on_c, 0, 90, 75
2, 53106, Note_on_c, 0, 62, 0
2, 53114, Note_on_c, 0, 90, 0
2, 53116, Note_on_c, 0, 102, 0
2, 53116, Note_on_c, 0, 59, 0
2, 53118, Note_on_c, 0, 54, 0
2, 53129, Note_on_c, 0, 54, 44
2, 53130, Note_on_c, 0, 59, 50
2, 53134, Note_on_c, 0, 62, 53
2, 53138, Note_on_c, 0, 102, 49
2, 53139, Note_on_c, 0, 90, 50
2, 53142, Control_c, 0, 64, 127
2, 53185, Note_on_c, 0, 90, 0
2, 53188, Note_on_c, 0, 54, 0
2, 53189, Note_on_c, 0, 102, 0
2, 53196, Note_on_c, 0, 62, 0
2, 53198, Note_on_c, 0, 59, 0
2, 53213, Note_on_c, 0, 59, 24
2, 53216, Note_on_c, 0, 54, 32
2, 53217, Note_on_c, 0, 62, 32
2, 53218, Note_on_c, 0, 90, 46
2, 53219, Note_on_c, 0, 102, 43
2, 53226, Note_on_c, 0, 62, 0
2, 53229, Note_on_c, 0, 54, 0
2, 53238, Note_on_c, 0, 102, 0
2, 53238, Note_on_c, 0, 90, 0
2, 53239, Control_c, 0, 64, 0
2, 53243, Note_on_c, 0, 59, 0
2, 53254, Note_on_c, 0, 63, 64
2, 53255, Note_on_c, 0, 59, 43
2, 53257, Note_on_c, 0, 54, 44
2, 53262, Note_on_c, 0, 102, 61
2, 53265, Note_on_c, 0, 90, 54
2, 53266, Note_on_c, 0, 58, 45
2, 53313, Note_on_c, 0, 58, 0
2, 53319, Note_on_c, 0, 54, 0
2, 53321, Note_on_c, 0, 63, 0
2, 53322, Note_on_c, 0, 90, 0
2, 53322, Note_on_c, 0, 59, 0
2, 53325, Note_on_c, 0, 102, 0
2, 53378, Control_c, 0, 64, 127
2, 53463, Note_on_c, 0, 63, 74
2, 53464, Note_on_c, 0, 54, 63
2, 53465, Note_on_c, 0, 58, 55
2, 53466, Note_on_c, 0, 102, 74
2, 53466, Note_on_c, 0, 59, 52
2, 53466, Note_on_c, 0, 90, 74
2, 53474, Note_on_c, 0, 97, 36
2, 53483, Note_on_c, 0, 63, 0
2, 53484, Note_on_c, 0, 97, 0
2, 53495, Note_on_c, 0, 90, 0
2, 53497, Note_on_c, 0, 59, 0
2, 53498, Note_on_c, 0, 54, 0
2, 53501, Note_on_c, 0, 102, 0
2, 53511, Control_c, 0, 64, 0
2, 53522, Note_on_c, 0, 63, 70
2, 53524, Note_on_c, 0, 53, 59
2, 53525, Note_on_c, 0, 104, 78
2, 53525, Note_on_c, 0, 59, 53
2, 53525, Note_on_c, 0, 92, 67
2, 53552, Control_c, 0, 64, 127
2, 53563, Note_on_c, 0, 104, 0
2, 53567, Note_on_c, 0, 53, 0
2, 53568, Note_on_c, 0, 92, 0
2, 53570, Note_on_c, 0, 63, 0
2, 53577, Note_on_c, 0, 59, 0
2, 53579, Note_on_c, 0, 58, 0
2, 53601, Note_on_c, 0, 102, 64
2, 53604, Note_on_c, 0, 63, 57
2, 53605, Note_on_c, 0, 90, 46
2, 53607, Note_on_c, 0, 58, 38
2, 53607, Note_on_c, 0, 59, 36
2, 53616, Note_on_c, 0, 53, 25
2, 53631, Note_on_c, 0, 90, 0
2, 53633, Note_on_c, 0, 63, 0
2, 53641, Note_on_c, 0, 102, 0
2, 53641, Note_on_c, 0, 53, 0
2, 53645, Note_on_c, 0, 59, 0
2, 53654, Note_on_c, 0, 58, 0
2, 53670, Note_on_c, 0, 63, 57
2, 53675, Note_on_c, 0, 92, 58
2, 53676, Note_on_c, 0, 104, 63
2, 53698, Note_on_c, 0, 92, 0
2, 53701, Note_on_c, 0, 104, 0
2, 53709, Note_on_c, 0, 63, 0
2, 53737, Control_c, 0, 64, 0
2, 53753, Note_on_c, 0, 56, 37
2, 53754, Note_on_c, 0, 67, 43
2, 53756, Note_on_c, 0, 106, 62
2, 53756, Note_on_c, 0, 63, 35
2, 53756, Note_on_c, 0, 94, 55
2, 53757, Note_on_c, 0, 60, 48
2, 53763, Note_on_c, 0, 99, 33
2, 53783, Note_on_c, 0, 99, 0
2, 53786, Control_c, 0, 64, 127
2, 53810, Note_on_c, 0, 106, 0
2, 53826, Note_on_c, 0, 94, 0
2, 53874, Note_on_c, 0, 60, 0
2, 53876, Note_on_c, 0, 56, 0
2, 53882, Note_on_c, 0, 67, 0
2, 53885, Note_on_c, 0, 63, 0
2, 53942, Note_on_c, 0, 82, 64
2, 53958, Note_on_c, 0, 79, 67
2, 53974, Note_on_c, 0, 75, 60
2, 54002, Note_on_c, 0, 70, 44
2, 54008, Note_on_c, 0, 72, 42
2, 54019, Note_on_c, 0, 79, 0
2, 54019, Note_on_c, 0, 82, 0
2, 54028, Note_on_c, 0, 70, 0
2, 54028, Note_on_c, 0, 75, 0
2, 54048, Note_on_c, 0, 72, 0
2, 54083, Note_on_c, 0, 79, 61
2, 54090, Note_on_c, 0, 75, 46
2, 54095, Note_on_c, 0, 72, 50
2, 54096, Control_c, 0, 64, 0
2, 54099, Note_on_c, 0, 67, 36
2, 54102, Note_on_c, 0, 68, 42
2, 54123, Note_on_c, 0, 79, 0
2, 54127, Note_on_c, 0, 67, 0
2, 54132, Control_c, 0, 64, 127
2, 54140, Note_on_c, 0, 72, 0
2, 54143, Note_on_c, 0, 75, 0
2, 54155, Note_on_c, 0, 68, 0
2, 54191, Note_on_c, 0, 75, 37
2, 54203, Note_on_c, 0, 72, 49
2, 54207, Note_on_c, 0, 63, 35
2, 54209, Control_c, 0, 64, 0
2, 54219, Note_on_c, 0, 67, 18
2, 54219, Note_on_c, 0, 65, 19
2, 54241, Note_on_c, 0, 63, 0
2, 54242, Note_on_c, 0, 72, 0
2, 54242, Control_c, 0, 64, 127
2, 54250, Note_on_c, 0, 75, 0
2, 54252, Note_on_c, 0, 65, 0
2, 54253, Note_on_c, 0, 67, 0
2, 54316, Note_on_c, 0, 70, 36
2, 54319, Note_on_c, 0, 60, 39
2, 54319, Control_c, 0, 64, 0
2, 54320, Note_on_c, 0, 67, 49
2, 54321, Note_on_c, 0, 63, 39
2, 54356, Control_c, 0, 64, 127
2, 54369, Note_on_c, 0, 67, 0
2, 54384, Note_on_c, 0, 63, 0
2, 54392, Note_on_c, 0, 60, 0
2, 54401, Note_on_c, 0, 70, 0
2, 54427, Control_c, 0, 64, 0
2, 54428, Note_on_c, 0, 68, 34
2, 54429, Note_on_c, 0, 63, 45
2, 54430, Note_on_c, 0, 60, 39
2, 54433, Note_on_c, 0, 58, 35
2, 54446, Note_on_c, 0, 68, 0
2, 54451, Note_on_c, 0, 63, 0
2, 54456, Note_on_c, 0, 58, 0
2, 54458, Note_on_c, 0, 60, 0
2, 54468, Control_c, 0, 64, 127
2, 54500, Note_on_c, 0, 67, 51
2, 54502, Note_on_c, 0, 55, 34
2, 54504, Note_on_c, 0, 63, 35
2, 54507, Note_on_c, 0, 60, 25
2, 54508, Note_on_c, 0, 56, 23
2, 54553, Note_on_c, 0, 63, 0
2, 54554, Note_on_c, 0, 60, 0
2, 54562, Note_on_c, 0, 56, 0
2, 54569, Note_on_c, 0, 55, 0
2, 54572, Note_on_c, 0, 67, 0
2, 54582, Note_on_c, 0, 63, 37
2, 54587, Note_on_c, 0, 53, 36
2, 54600, Note_on_c, 0, 53, 0
2, 54627, Note_on_c, 0, 63, 0
2, 54669, Control_c, 0, 64, 0
2, 54674, Note_on_c, 0, 63, 36
2, 54678, Note_on_c, 0, 58, 35
2, 54678, Note_on_c, 0, 62, 49
2, 54682, Note_on_c, 0, 55, 24
2, 54683, Note_on_c, 0, 48, 28
2, 54759, Control_c, 0, 64, 127
2, 54784, Note_on_c, 0, 62, 0
2, 54790, Note_on_c, 0, 60, 36
2, 54820, Note_on_c, 0, 58, 0
2, 54843, Note_on_c, 0, 60, 0
2, 54858, Note_on_c, 0, 48, 0
2, 54859, Note_on_c, 0, 63, 0
2, 54909, Note_on_c, 0, 48, 44
2, 54941, Note_on_c, 0, 55, 0
2, 54951, Note_on_c, 0, 67, 70
2, 55011, Note_on_c, 0, 67, 0
2, 55031, Note_on_c, 0, 54, 42
2, 55032, Note_on_c, 0, 70, 67
2, 55034, Note_on_c, 0, 67, 68
2, 55035, Note_on_c, 0, 55, 66
2, 55036, Note_on_c, 0, 63, 71
2, 55037, Note_on_c, 0, 60, 71
2, 55043, Control_c, 0, 64, 0
2, 55055, Note_on_c, 0, 54, 0
2, 55072, Note_on_c, 0, 60, 0
2, 55073, Note_on_c, 0, 55, 0
2, 55075, Note_on_c, 0, 70, 0
2, 55080, Note_on_c, 0, 63, 0
2, 55085, Note_on_c, 0, 67, 0
2, 55089, Note_on_c, 0, 70, 38
2, 55090, Note_on_c, 0, 55, 29
2, 55095, Note_on_c, 0, 60, 54
2, 55096, Note_on_c, 0, 63, 46
2, 55100, Note_on_c, 0, 67, 30
2, 55102, Control_c, 0, 64, 127
2, 55128, Note_on_c, 0, 60, 0
2, 55130, Note_on_c, 0, 70, 0
2, 55138, Note_on_c, 0, 55, 0
2, 55142, Note_on_c, 0, 67, 0
2, 55144, Note_on_c, 0, 63, 0
2, 55164, Note_on_c, 0, 70, 59
2, 55167, Note_on_c, 0, 63, 55
2, 55168, Note_on_c, 0, 55, 39
2, 55168, Note_on_c, 0, 60, 58
2, 55169, Note_on_c, 0, 67, 48
2, 55184, Control_c, 0, 64, 0
2, 55188, Note_on_c, 0, 60, 0
2, 55192, Note_on_c, 0, 55, 0
2, 55194, Note_on_c, 0, 70, 0
2, 55199, Note_on_c, 0, 63, 0
2, 55208, Note_on_c, 0, 67, 0
2, 55218, Note_on_c, 0, 48, 0
2, 55218, Note_on_c, 0, 70, 35
2, 55218, Note_on_c, 0, 55, 33
2, 55222, Note_on_c, 0, 63, 43
2, 55224, Note_on_c, 0, 60, 42
2, 55225, Note_on_c, 0, 67, 32
2, 55250, Note_on_c, 0, 60, 0
2, 55255, Note_on_c, 0, 55, 0
2, 55258, Note_on_c, 0, 70, 0
2, 55260, Note_on_c, 0, 63, 0
2, 55270, Note_on_c, 0, 67, 0
2, 55314, Note_on_c, 0, 55, 35
2, 55316, Note_on_c, 0, 70, 49
2, 55318, Note_on_c, 0, 63, 48
2, 55321, Note_on_c, 0, 67, 49
2, 55323, Control_c, 0, 64, 127
2, 55324, Note_on_c, 0, 60, 36
2, 55348, Note_on_c, 0, 60, 0
2, 55358, Note_on_c, 0, 55, 0
2, 55360, Note_on_c, 0, 63, 0
2, 55362, Note_on_c, 0, 70, 0
2, 55369, Note_on_c, 0, 67, 0
2, 55509, Note_on_c, 0, 72, 62
2, 55511, Note_on_c, 0, 63, 60
2, 55511, Note_on_c, 0, 60, 54
2, 55514, Note_on_c, 0, 67, 60
2, 55526, Control_c, 0, 64, 0
2, 55542, Note_on_c, 0, 72, 0
2, 55544, Note_on_c, 0, 63, 0
2, 55545, Note_on_c, 0, 60, 0
2, 55553, Note_on_c, 0, 67, 0
2, 55556, Note_on_c, 0, 58, 37
2, 55563, Note_on_c, 0, 70, 37
2, 55572, Control_c, 0, 64, 127
2, 55604, Note_on_c, 0, 70, 0
2, 55631, Note_on_c, 0, 60, 39
2, 55631, Note_on_c, 0, 63, 31
2, 55645, Note_on_c, 0, 63, 0
2, 55647, Note_on_c, 0, 60, 0
2, 55659, Note_on_c, 0, 58, 0
2, 55676, Note_on_c, 0, 69, 56
2, 55676, Note_on_c, 0, 67, 39
2, 55677, Control_c, 0, 64, 0
2, 55679, Note_on_c, 0, 62, 57
2, 55680, Note_on_c, 0, 64, 59
2, 55681, Note_on_c, 0, 74, 62
2, 55734, Control_c, 0, 64, 127
2, 55762, Note_on_c, 0, 64, 0
2, 55766, Note_on_c, 0, 50, 53
2, 55776, Note_on_c, 0, 67, 0
2, 55780, Note_on_c, 0, 69, 0
2, 55787, Note_on_c, 0, 74, 0
2, 55788, Note_on_c, 0, 62, 0
2, 55788, Note_on_c, 0, 50, 0
2, 55884, Note_on_c, 0, 86, 69
2, 55886, Note_on_c, 0, 57, 50
2, 55887, Note_on_c, 0, 64, 58
2, 55887, Note_on_c, 0, 55, 40
2, 55887, Note_on_c, 0, 81, 58
2, 55888, Note_on_c, 0, 79, 64
2, 55890, Note_on_c, 0, 74, 59
2, 55892, Note_on_c, 0, 60, 46
2, 55990, Note_on_c, 0, 74, 0
2, 55991, Note_on_c, 0, 81, 0
2, 55994, Note_on_c, 0, 79, 0
2, 56004, Note_on_c, 0, 84, 62
2, 56019, Note_on_c, 0, 86, 0
2, 56032, Note_on_c, 0, 64, 0
2, 56044, Note_on_c, 0, 55, 0
2, 56045, Note_on_c, 0, 60, 0
2, 56046, Note_on_c, 0, 57, 0
2, 56100, Note_on_c, 0, 84, 0
2, 56114, Note_on_c, 0, 83, 53
2, 56114, Note_on_c, 0, 80, 38
2, 56116, Control_c, 0, 64, 0
2, 56117, Note_on_c, 0, 76, 36
2, 56120, Note_on_c, 0, 64, 40
2, 56120, Note_on_c, 0, 60, 31
2, 56124, Note_on_c, 0, 54, 31
2, 56190, Control_c, 0, 64, 127
2, 56261, Note_on_c, 0, 54, 0
2, 56275, Note_on_c, 0, 64, 0
2, 56301, Note_on_c, 0, 76, 0
2, 56302, Note_on_c, 0, 60, 0
2, 56321, Note_on_c, 0, 80, 0
2, 56326, Note_on_c, 0, 83, 0
2, 56347, Note_on_c, 0, 76, 29
2, 56351, Note_on_c, 0, 84, 36
2, 56352, Note_on_c, 0, 54, 32
2, 56352, Note_on_c, 0, 64, 34
2, 56352, Note_on_c, 0, 81, 42
2, 56354, Control_c, 0, 64, 0
2, 56358, Note_on_c, 0, 60, 36
2, 56380, Control_c, 0, 64, 127
2, 56498, Note_on_c, 0, 64, 0
2, 56500, Note_on_c, 0, 60, 0
2, 56524, Note_on_c, 0, 54, 0
2, 56575, Note_on_c, 0, 76, 0
2, 56589, Note_on_c, 0, 81, 0
2, 56609, Note_on_c, 0, 84, 0
2, 56617, Note_on_c, 0, 59, 22
2, 56620, Note_on_c, 0, 62, 30
2, 56621, Control_c, 0, 64, 0
2, 56626, Note_on_c, 0, 57, 34
2, 56627, Note_on_c, 0, 54, 29
2, 56755, Control_c, 0, 64, 127
2, 56824, Note_on_c, 0, 83, 105
2, 56861, Note_on_c, 0, 83, 0
2, 56868, Control_c, 0, 64, 0
2, 56900, Note_on_c, 0, 84, 90
2, 56911, Control_c, 0, 64, 127
2, 56944, Note_on_c, 0, 84, 0
2, 56976, Note_on_c, 0, 57, 0
2, 56986, Note_on_c, 0, 86, 82
2, 56987, Note_on_c, 0, 59, 0
2, 56996, Note_on_c, 0, 54, 0
2, 57001, Note_on_c, 0, 62, 0
2, 57042, Note_on_c, 0, 86, 0
2, 57065, Control_c, 0, 64, 0
2, 57068, Note_on_c, 0, 81, 53
2, 57070, Note_on_c, 0, 55, 25
2, 57071, Note_on_c, 0, 65, 33
2, 57074, Note_on_c, 0, 57, 37
2, 57074, Note_on_c, 0, 60, 33
2, 57151, Note_on_c, 0, 81, 0
2, 57158, Note_on_c, 0, 83, 39
2, 57184, Note_on_c, 0, 83, 0
2, 57192, Note_on_c, 0, 81, 33
2, 57204, Note_on_c, 0, 81, 0
2, 57204, Note_on_c, 0, 80, 50
2, 57224, Note_on_c, 0, 80, 0
2, 57244, Note_on_c, 0, 81, 49
2, 57297, Note_on_c, 0, 81, 0
2, 57345, Control_c, 0, 64, 127
2, 57348, Note_on_c, 0, 81, 50
2, 57383, Note_on_c, 0, 81, 0
2, 57433, Note_on_c, 0, 81, 36
2, 57465, Note_on_c, 0, 81, 0
2, 57481, Note_on_c, 0, 60, 0
2, 57491, Note_on_c, 0, 65, 0
2, 57503, Note_on_c, 0, 57, 0
2, 57509, Note_on_c, 0, 81, 48
2, 57512, Note_on_c, 0, 55, 0
2, 57526, Note_on_c, 0, 81, 0
2, 57548, Note_on_c, 0, 81, 50
2, 57573, Note_on_c, 0, 81, 0
2, 57597, Note_on_c, 0, 55, 27
2, 57598, Note_on_c, 0, 64, 31
2, 57599, Control_c, 0, 64, 0
2, 57600, Note_on_c, 0, 81, 61
2, 57602, Note_on_c, 0, 61, 33
2, 57657, Note_on_c, 0, 81, 0
2, 57684, Note_on_c, 0, 81, 54
2, 57703, Note_on_c, 0, 81, 0
2, 57776, Note_on_c, 0, 81, 53
2, 57799, Note_on_c, 0, 81, 0
2, 57843, Control_c, 0, 64, 127
2, 57852, Note_on_c, 0, 81, 57
2, 57910, Note_on_c, 0, 81, 0
2, 57921, Note_on_c, 0, 79, 42
2, 57998, Note_on_c, 0, 55, 0
2, 58006, Note_on_c, 0, 64, 0
2, 58007, Note_on_c, 0, 79, 0
2, 58007, Note_on_c, 0, 81, 51
2, 58030, Note_on_c, 0, 81, 0
2, 58033, Note_on_c, 0, 61, 0
2, 58050, Note_on_c, 0, 83, 67
2, 58079, Note_on_c, 0, 83, 0
2, 58094, Note_on_c, 0, 77, 55
2, 58150, Note_on_c, 0, 77, 0
2, 58169, Note_on_c, 0, 77, 63
2, 58200, Control_c, 0, 64, 0
2, 58236, Control_c, 0, 64, 127
2, 58271, Control_c, 0, 64, 0
2, 58281, Note_on_c, 0, 62, 51
2, 58282, Note_on_c, 0, 58, 45
2, 58284, Note_on_c, 0, 57, 49
2, 58297, Note_on_c, 0, 58, 0
2, 58299, Note_on_c, 0, 62, 0
2, 58311, Note_on_c, 0, 57, 0
2, 58393, Note_on_c, 0, 62, 66
2, 58396, Note_on_c, 0, 58, 43
2, 58399, Note_on_c, 0, 57, 44
2, 58414, Note_on_c, 0, 62, 0
2, 58424, Note_on_c, 0, 57, 0
2, 58427, Note_on_c, 0, 58, 0
2, 58441, Control_c, 0, 64, 127
2, 58521, Note_on_c, 0, 62, 45
2, 58521, Note_on_c, 0, 58, 52
2, 58531, Note_on_c, 0, 62, 0
2, 58574, Control_c, 0, 64, 0
2, 58576, Note_on_c, 0, 63, 55
2, 58578, Note_on_c, 0, 60, 50
2, 58584, Note_on_c, 0, 53, 42
2, 58669, Note_on_c, 0, 77, 0
2, 58674, Control_c, 0, 64, 127
2, 58707, Note_on_c, 0, 60, 0
2, 58737, Note_on_c, 0, 63, 0
2, 58744, Note_on_c, 0, 60, 46
2, 58772, Note_on_c, 0, 60, 0
2, 58790, Note_on_c, 0, 63, 84
2, 58838, Note_on_c, 0, 63, 0
2, 58851, Note_on_c, 0, 58, 0
2, 58868, Note_on_c, 0, 65, 89
2, 58871, Note_on_c, 0, 58, 13
2, 58874, Note_on_c, 0, 60, 51
2, 58899, Note_on_c, 0, 65, 0
2, 58902, Note_on_c, 0, 60, 0
2, 58914, Note_on_c, 0, 67, 84
2, 58922, Note_on_c, 0, 65, 29
2, 58927, Note_on_c, 0, 58, 0
2, 58932, Note_on_c, 0, 65, 0
2, 58943, Note_on_c, 0, 53, 0
2, 58964, Note_on_c, 0, 67, 0
2, 59106, Note_on_c, 0, 74, 76
2, 59108, Control_c, 0, 64, 0
2, 59112, Note_on_c, 0, 66, 60
2, 59112, Note_on_c, 0, 69, 54
2, 59115, Note_on_c, 0, 63, 48
2, 59121, Note_on_c, 0, 62, 60
2, 59160, Note_on_c, 0, 74, 0
2, 59192, Note_on_c, 0, 74, 68
2, 59230, Note_on_c, 0, 74, 0
2, 59238, Note_on_c, 0, 62, 0
2, 59255, Note_on_c, 0, 66, 0
2, 59257, Note_on_c, 0, 63, 0
2, 59261, Note_on_c, 0, 69, 0
2, 59262, Control_c, 0, 64, 127
2, 59272, Note_on_c, 0, 74, 60
2, 59273, Note_on_c, 0, 62, 40
2, 59276, Note_on_c, 0, 63, 48
2, 59279, Note_on_c, 0, 66, 50
2, 59327, Note_on_c, 0, 74, 0
2, 59344, Note_on_c, 0, 63, 0
2, 59360, Note_on_c, 0, 62, 0
2, 59360, Note_on_c, 0, 72, 55
2, 59372, Note_on_c, 0, 66, 0
2, 59414, Note_on_c, 0, 72, 0
2, 59457, Control_c, 0, 64, 0
2, 59468, Note_on_c, 0, 70, 49
2, 59469, Note_on_c, 0, 63, 34
2, 59470, Note_on_c, 0, 74, 46
2, 59473, Note_on_c, 0, 67, 44
2, 59474, Note_on_c, 0, 58, 32
2, 59475, Note_on_c, 0, 53, 32
2, 59511, Control_c, 0, 64, 127
2, 59564, Note_on_c, 0, 74, 0
2, 59578, Note_on_c, 0, 63, 0
2, 59585, Note_on_c, 0, 67, 0
2, 59591, Note_on_c, 0, 70, 0
2, 59612, Note_on_c, 0, 58, 0
2, 59626, Note_on_c, 0, 53, 0
2, 59732, Control_c, 0, 64, 0
2, 59747, Note_on_c, 0, 63, 55
2, 59750, Note_on_c, 0, 51, 42
2, 59756, Note_on_c, 0, 55, 27
2, 59759, Note_on_c, 0, 58, 36
2, 59770, Control_c, 0, 64, 127
2, 59795, Note_on_c, 0, 55, 0
2, 59795, Note_on_c, 0, 63, 0
2, 59816, Note_on_c, 0, 58, 0
2, 59828, Note_on_c, 0, 65, 48
2, 59835, Note_on_c, 0, 51, 0
2, 59840, Note_on_c, 0, 65, 0
2, 59876, Note_on_c, 0, 67, 63
2, 59904, Note_on_c, 0, 67, 0
2, 59949, Note_on_c, 0, 40, 35
2, 59950, Control_c, 0, 64, 0
2, 59953, Note_on_c, 0, 69, 64
2, 59955, Note_on_c, 0, 47, 30
2, 59958, Note_on_c, 0, 66, 62
2, 59959, Note_on_c, 0, 62, 71
2, 59960, Note_on_c, 0, 55, 37
2, 59961, Note_on_c, 0, 59, 57
2, 60003, Control_c, 0, 64, 127
2, 60081, Note_on_c, 0, 40, 0
2, 60092, Note_on_c, 0, 47, 0
2, 60100, Note_on_c, 0, 59, 0
2, 60102, Note_on_c, 0, 62, 0
2, 60105, Note_on_c, 0, 69, 0
2, 60110, Note_on_c, 0, 55, 0
2, 60122, Note_on_c, 0, 66, 0
2, 60211, Control_c, 0, 64, 0
2, 60220, Note_on_c, 0, 45, 48
2, 60221, Note_on_c, 0, 55, 36
2, 60252, Control_c, 0, 64, 127
2, 60280, Note_on_c, 0, 45, 0
2, 60298, Note_on_c, 0, 55, 0
2, 60452, Control_c, 0, 64, 0
2, 60453, Note_on_c, 0, 61, 31
2, 60453, Note_on_c, 0, 60, 38
2, 60455, Note_on_c, 0, 65, 38
2, 60457, Note_on_c, 0, 81, 71
2, 60465, Note_on_c, 0, 55, 17
2, 60474, Note_on_c, 0, 81, 0
2, 60541, Note_on_c, 0, 82, 67
2, 60565, Note_on_c, 0, 82, 0
2, 60594, Note_on_c, 0, 81, 29
2, 60607, Note_on_c, 0, 81, 0
2, 60609, Note_on_c, 0, 65, 0
2, 60610, Note_on_c, 0, 55, 0
2, 60619, Note_on_c, 0, 61, 0
2, 60620, Note_on_c, 0, 60, 0
2, 60663, Note_on_c, 0, 80, 35
2, 60688, Note_on_c, 0, 80, 0
2, 60696, Note_on_c, 0, 61, 25
2, 60698, Note_on_c, 0, 65, 33
2, 60699, Note_on_c, 0, 60, 29
2, 60703, Note_on_c, 0, 55, 26
2, 60707, Note_on_c, 0, 81, 58
2, 60712, Control_c, 0, 64, 127
2, 60777, Note_on_c, 0, 81, 0
2, 60778, Note_on_c, 0, 80, 56
2, 60798, Note_on_c, 0, 80, 0
2, 60822, Note_on_c, 0, 65, 0
2, 60826, Note_on_c, 0, 81, 49
2, 60838, Note_on_c, 0, 60, 0
2, 60856, Note_on_c, 0, 55, 0
2, 60872, Note_on_c, 0, 81, 0
2, 60879, Note_on_c, 0, 61, 0
2, 60894, Control_c, 0, 64, 0
2, 60899, Note_on_c, 0, 86, 65
2, 60900, Note_on_c, 0, 64, 37
2, 60902, Note_on_c, 0, 74, 66
2, 60903, Note_on_c, 0, 60, 43
2, 60905, Note_on_c, 0, 59, 31
2, 60906, Note_on_c, 0, 55, 20
2, 60916, Note_on_c, 0, 74, 0
2, 60919, Note_on_c, 0, 64, 0
2, 60921, Note_on_c, 0, 86, 0
2, 60926, Note_on_c, 0, 55, 0
2, 60930, Note_on_c, 0, 60, 0
2, 60931, Note_on_c, 0, 59, 0
2, 61020, Note_on_c, 0, 83, 57
2, 61024, Note_on_c, 0, 64, 40
2, 61025, Note_on_c, 0, 76, 46
2, 61026, Note_on_c, 0, 71, 44
2, 61026, Note_on_c, 0, 55, 31
2, 61027, Note_on_c, 0, 60, 36
2, 61029, Note_on_c, 0, 59, 32
2, 61044, Note_on_c, 0, 71, 0
2, 61050, Note_on_c, 0, 76, 0
2, 61052, Note_on_c, 0, 64, 0
2, 61057, Note_on_c, 0, 83, 0
2, 61057, Note_on_c, 0, 60, 0
2, 61061, Note_on_c, 0, 59, 0
2, 61065, Note_on_c, 0, 55, 0
2, 61144, Note_on_c, 0, 81, 43
2, 61146, Note_on_c, 0, 71, 28
2, 61148, Note_on_c, 0, 64, 48
2, 61149, Note_on_c, 0, 60, 38
2, 61153, Note_on_c, 0, 54, 36
2, 61194, Control_c, 0, 64, 127
2, 61262, Note_on_c, 0, 71, 0
2, 61278, Note_on_c, 0, 60, 0
2, 61281, Note_on_c, 0, 54, 0
2, 61300, Note_on_c, 0, 64, 0
2, 61304, Note_on_c, 0, 71, 41
2, 61320, Note_on_c, 0, 71, 0
2, 61343, Note_on_c, 0, 81, 0
2, 61387, Control_c, 0, 64, 0
2, 61389, Note_on_c, 0, 83, 85
2, 61391, Note_on_c, 0, 66, 60
2, 61391, Note_on_c, 0, 61, 48
2, 61393, Note_on_c, 0, 57, 58
2, 61395, Note_on_c, 0, 62, 57
2, 61476, Note_on_c, 0, 83, 0
2, 61487, Note_on_c, 0, 85, 25
2, 61506, Note_on_c, 0, 83, 48
2, 61520, Note_on_c, 0, 85, 0
2, 61527, Note_on_c, 0, 83, 0
2, 61527, Note_on_c, 0, 82, 39
2, 61537, Note_on_c, 0, 82, 0
2, 61541, Note_on_c, 0, 66, 0
2, 61550, Note_on_c, 0, 83, 72
2, 61602, Note_on_c, 0, 62, 0
2, 61641, Note_on_c, 0, 83, 0
2, 61641, Note_on_c, 0, 82, 38
2, 61649, Note_on_c, 0, 62, 33
2, 61657, Note_on_c, 0, 82, 0
2, 61674, Control_c, 0, 64, 127
2, 61675, Note_on_c, 0, 83, 66
2, 61698, Note_on_c, 0, 57, 0
2, 61702, Note_on_c, 0, 62, 0
2, 61733, Note_on_c, 0, 83, 0
2, 61751, Note_on_c, 0, 85, 51
2, 61754, Note_on_c, 0, 66, 37
2, 61764, Note_on_c, 0, 66, 0
2, 61776, Note_on_c, 0, 85, 0
2, 61793, Note_on_c, 0, 86, 54
2, 61826, Note_on_c, 0, 86, 0
2, 61835, Note_on_c, 0, 61, 0
2, 61861, Control_c, 0, 64, 0
2, 61873, Note_on_c, 0, 88, 74
2, 61874, Note_on_c, 0, 56, 64
2, 61874, Note_on_c, 0, 84, 73
2, 61876, Note_on_c, 0, 62, 64
2, 61877, Note_on_c, 0, 79, 67
2, 61910, Control_c, 0, 64, 127
2, 61995, Note_on_c, 0, 62, 0
2, 62009, Note_on_c, 0, 56, 0
2, 62019, Note_on_c, 0, 79, 0
2, 62026, Note_on_c, 0, 84, 0
2, 62028, Note_on_c, 0, 88, 0
2, 62110, Control_c, 0, 64, 0
2, 62117, Note_on_c, 0, 89, 78
2, 62118, Note_on_c, 0, 84, 80
2, 62119, Note_on_c, 0, 77, 74
2, 62120, Note_on_c, 0, 60, 51
2, 62120, Note_on_c, 0, 50, 43
2, 62121, Note_on_c, 0, 57, 38
2, 62123, Note_on_c, 0, 53, 45
2, 62156, Control_c, 0, 64, 127
2, 62190, Note_on_c, 0, 50, 0
2, 62191, Note_on_c, 0, 53, 0
2, 62197, Note_on_c, 0, 57, 0
2, 62207, Note_on_c, 0, 60, 0
2, 62225, Note_on_c, 0, 77, 0
2, 62231, Note_on_c, 0, 89, 0
2, 62252, Note_on_c, 0, 84, 0
2, 62377, Control_c, 0, 64, 0
2, 62387, Note_on_c, 0, 90, 56
2, 62389, Note_on_c, 0, 68, 27
2, 62389, Note_on_c, 0, 59, 29
2, 62390, Note_on_c, 0, 64, 55
2, 62390, Note_on_c, 0, 63, 37
2, 62392, Note_on_c, 0, 78, 40
2, 62487, Control_c, 0, 64, 127
2, 62511, Note_on_c, 0, 64, 0
2, 62515, Note_on_c, 0, 63, 0
2, 62518, Note_on_c, 0, 68, 0
2, 62525, Note_on_c, 0, 59, 0
2, 62560, Note_on_c, 0, 90, 0
2, 62582, Note_on_c, 0, 68, 35
2, 62586, Note_on_c, 0, 63, 36
2, 62588, Note_on_c, 0, 64, 48
2, 62590, Note_on_c, 0, 59, 24
2, 62595, Note_on_c, 0, 78, 0
2, 62696, Note_on_c, 0, 88, 74
2, 62723, Note_on_c, 0, 68, 0
2, 62733, Note_on_c, 0, 64, 0
2, 62734, Note_on_c, 0, 88, 0
2, 62737, Note_on_c, 0, 59, 0
2, 62740, Note_on_c, 0, 63, 0
2, 62756, Note_on_c, 0, 83, 45
2, 62779, Note_on_c, 0, 83, 0
2, 62842, Note_on_c, 0, 82, 20
2, 62853, Note_on_c, 0, 82, 0
2, 62855, Control_c, 0, 64, 0
2, 62885, Note_on_c, 0, 87, 60
2, 62917, Note_on_c, 0, 87, 0
2, 62963, Note_on_c, 0, 63, 40
2, 62966, Note_on_c, 0, 87, 56
2, 62967, Note_on_c, 0, 52, 36
2, 62971, Note_on_c, 0, 58, 34
2, 62985, Note_on_c, 0, 58, 0
2, 62985, Note_on_c, 0, 52, 0
2, 62987, Note_on_c, 0, 63, 0
2, 62988, Note_on_c, 0, 87, 0
2, 63054, Note_on_c, 0, 63, 44
2, 63058, Note_on_c, 0, 87, 60
2, 63059, Note_on_c, 0, 52, 33
2, 63064, Note_on_c, 0, 58, 32
2, 63077, Note_on_c, 0, 52, 0
2, 63080, Note_on_c, 0, 58, 0
2, 63080, Note_on_c, 0, 63, 0
2, 63085, Note_on_c, 0, 87, 0
2, 63116, Control_c, 0, 64, 127
2, 63133, Note_on_c, 0, 63, 30
2, 63137, Note_on_c, 0, 87, 55
2, 63141, Note_on_c, 0, 58, 39
2, 63146, Note_on_c, 0, 52, 11
2, 63158, Note_on_c, 0, 87, 0
2, 63219, Note_on_c, 0, 52, 0
2, 63220, Note_on_c, 0, 63, 0
2, 63246, Note_on_c, 0, 58, 0
2, 63434, Note_on_c, 0, 52, 46
2, 63445, Control_c, 0, 64, 0
2, 63588, Note_on_c, 0, 66, 44
2, 63589, Note_on_c, 0, 61, 39
2, 63591, Note_on_c, 0, 57, 38
2, 63592, Note_on_c, 0, 62, 53
2, 63643, Note_on_c, 0, 57, 0
2, 63646, Note_on_c, 0, 62, 0
2, 63649, Note_on_c, 0, 61, 0
2, 63649, Note_on_c, 0, 66, 0
2, 63679, Note_on_c, 0, 51, 25
2, 63698, Note_on_c, 0, 51, 0
2, 63709, Note_on_c, 0, 66, 36
2, 63710, Note_on_c, 0, 61, 37
2, 63713, Note_on_c, 0, 62, 46
2, 63714, Note_on_c, 0, 57, 41
2, 63727, Control_c, 0, 64, 127
2, 63763, Note_on_c, 0, 57, 0
2, 63771, Note_on_c, 0, 62, 0
2, 63782, Note_on_c, 0, 66, 0
2, 63788, Note_on_c, 0, 61, 0
2, 63832, Note_on_c, 0, 52, 0
2, 63832, Control_c, 0, 64, 0
2, 63838, Note_on_c, 0, 67, 43
2, 63839, Note_on_c, 0, 59, 35
2, 63840, Note_on_c, 0, 64, 51
2, 63841, Note_on_c, 0, 60, 46
2, 63921, Note_on_c, 0, 52, 47
2, 63939, Note_on_c, 0, 52, 0
2, 64040, Note_on_c, 0, 52, 50
2, 64060, Note_on_c, 0, 52, 0
2, 64117, Note_on_c, 0, 52, 49
2, 64141, Note_on_c, 0, 52, 0
2, 64153, Note_on_c, 0, 51, 35
2, 64189, Note_on_c, 0, 51, 0
2, 64195, Note_on_c, 0, 60, 0
2, 64195, Note_on_c, 0, 52, 55
2, 64197, Note_on_c, 0, 59, 0
2, 64202, Control_c, 0, 64, 127
2, 64203, Note_on_c, 0, 64, 0
2, 64207, Note_on_c, 0, 67, 0
2, 64268, Control_c, 0, 64, 0
2, 64281, Note_on_c, 0, 61, 61
2, 64282, Note_on_c, 0, 69, 70
2, 64283, Note_on_c, 0, 66, 62
2, 64284, Note_on_c, 0, 62, 74
2, 64316, Note_on_c, 0, 52, 0
2, 64353, Control_c, 0, 64, 127
2, 64356, Control_c, 0, 64, 0
2, 64379, Control_c, 0, 64, 127
2, 64404, Note_on_c, 0, 51, 56
2, 64407, Control_c, 0, 64, 0
2, 64448, Note_on_c, 0, 51, 0
2, 64455, Note_on_c, 0, 52, 45
2, 64529, Note_on_c, 0, 40, 48
2, 64548, Control_c, 0, 64, 127
2, 64561, Note_on_c, 0, 40, 0
2, 64641, Note_on_c, 0, 40, 52
2, 64649, Note_on_c, 0, 62, 0
2, 64657, Note_on_c, 0, 40, 0
2, 64673, Note_on_c, 0, 69, 0
2, 64678, Note_on_c, 0, 61, 0
2, 64680, Note_on_c, 0, 66, 0
2, 64691, Note_on_c, 0, 52, 0
2, 64759, Control_c, 0, 64, 0
2, 64764, Note_on_c, 0, 71, 76
2, 64767, Note_on_c, 0, 52, 75
2, 64767, Note_on_c, 0, 67, 74
2, 64767, Note_on_c, 0, 64, 84
2, 64769, Note_on_c, 0, 62, 82
2, 64902, Control_c, 0, 64, 127
2, 64913, Note_on_c, 0, 52, 0
2, 64985, Note_on_c, 0, 52, 54
2, 64993, Note_on_c, 0, 62, 0
2, 65006, Note_on_c, 0, 64, 0
2, 65018, Note_on_c, 0, 52, 0
2, 65020, Note_on_c, 0, 67, 0
2, 65024, Note_on_c, 0, 71, 0
2, 65054, Note_on_c, 0, 71, 44
2, 65055, Note_on_c, 0, 52, 48
2, 65056, Note_on_c, 0, 64, 65
2, 65056, Note_on_c, 0, 67, 53
2, 65056, Note_on_c, 0, 60, 60
2, 65086, Note_on_c, 0, 52, 0
2, 65148, Note_on_c, 0, 52, 46
2, 65166, Note_on_c, 0, 52, 0
2, 65205, Control_c, 0, 64, 0
2, 65235, Note_on_c, 0, 52, 65
2, 65254, Control_c, 0, 64, 127
2, 65267, Note_on_c, 0, 60, 0
2, 65272, Note_on_c, 0, 64, 0
2, 65275, Note_on_c, 0, 67, 0
2, 65283, Note_on_c, 0, 71, 0
2, 65303, Note_on_c, 0, 52, 0
2, 65353, Note_on_c, 0, 52, 49
2, 65364, Note_on_c, 0, 52, 0
2, 65395, Control_c, 0, 64, 0
2, 65398, Note_on_c, 0, 73, 60
2, 65399, Note_on_c, 0, 66, 72
2, 65399, Note_on_c, 0, 69, 71
2, 65401, Note_on_c, 0, 62, 74
2, 65407, Note_on_c, 0, 52, 62
2, 65432, Note_on_c, 0, 52, 0
2, 65483, Note_on_c, 0, 52, 54
2, 65492, Control_c, 0, 64, 127
2, 65503, Note_on_c, 0, 52, 0
2, 65580, Note_on_c, 0, 52, 58
2, 65600, Note_on_c, 0, 52, 0
2, 65648, Note_on_c, 0, 62, 0
2, 65663, Note_on_c, 0, 69, 0
2, 65668, Note_on_c, 0, 52, 46
2, 65672, Note_on_c, 0, 66, 0
2, 65681, Note_on_c, 0, 73, 0
2, 65687, Note_on_c, 0, 52, 0
2, 65737, Control_c, 0, 64, 0
2, 65742, Note_on_c, 0, 74, 58
2, 65744, Note_on_c, 0, 67, 53
2, 65745, Note_on_c, 0, 64, 54
2, 65750, Note_on_c, 0, 52, 50
2, 65778, Note_on_c, 0, 52, 0
2, 65793, Control_c, 0, 64, 127
2, 65859, Note_on_c, 0, 52, 37
2, 65878, Note_on_c, 0, 52, 0
2, 65963, Note_on_c, 0, 52, 44
2, 65983, Note_on_c, 0, 52, 0
2, 66070, Note_on_c, 0, 52, 37
2, 66096, Note_on_c, 0, 52, 0
2, 66122, Note_on_c, 0, 74, 0
2, 66128, Note_on_c, 0, 67, 0
2, 66146, Note_on_c, 0, 64, 0
2, 66175, Note_on_c, 0, 52, 29
2, 66190, Note_on_c, 0, 52, 0
2, 66209, Control_c, 0, 64, 0
2, 66213, Note_on_c, 0, 73, 24
2, 66217, Note_on_c, 0, 62, 30
2, 66218, Note_on_c, 0, 66, 38
2, 66219, Note_on_c, 0, 52, 31
2, 66221, Note_on_c, 0, 69, 33
2, 66309, Control_c, 0, 64, 127
2, 66319, Note_on_c, 0, 52, 0
2, 66411, Note_on_c, 0, 52, 29
2, 66442, Note_on_c, 0, 52, 0
2, 66531, Note_on_c, 0, 52, 25
2, 66560, Note_on_c, 0, 52, 0
2, 66570, Note_on_c, 0, 62, 0
2, 66570, Note_on_c, 0, 69, 0
2, 66578, Note_on_c, 0, 73, 0
2, 66627, Note_on_c, 0, 66, 0
2, 66658, Note_on_c, 0, 52, 16
2, 66680, Note_on_c, 0, 52, 0
2, 66714, Control_c, 0, 64, 0
2, 66715, Note_on_c, 0, 71, 23
2, 66716, Note_on_c, 0, 62, 20
2, 66716, Note_on_c, 0, 64, 27
2, 66719, Note_on_c, 0, 67, 26
2, 66723, Note_on_c, 0, 52, 17
2, 66781, Control_c, 0, 64, 127
2, 66815, Note_on_c, 0, 52, 0
2, 66841, Note_on_c, 0, 62, 0
2, 66903, Note_on_c, 0, 52, 20
2, 66935, Note_on_c, 0, 52, 0
2, 67039, Note_on_c, 0, 52, 11
2, 67069, Note_on_c, 0, 52, 0
2, 67159, Note_on_c, 0, 52, 8
2, 67172, Note_on_c, 0, 64, 0
2, 67180, Note_on_c, 0, 52, 0
2, 67192, Control_c, 0, 64, 0
2, 67216, Note_on_c, 0, 52, 7
2, 67230, Note_on_c, 0, 67, 0
2, 67231, Control_c, 0, 64, 127
2, 67252, Note_on_c, 0, 71, 0
2, 67405, Note_on_c, 0, 40, 4
2, 67659, Control_c, 0, 64, 0
2, 67995, Note_on_c, 0, 40, 0
2, 67995, Note_on_c, 0, 52, 0
2, 67995, End_track
3, 0, Start_track
3, 0, Title_t, "Bass"
3, 0, Control_c, 1, 0, 0
3, 0, Control_c, 1, 7, 101
3, 0, Program_c, 1, 32
3, 4, Note_on_c, 1, 39, 55
3, 315, Note_on_c, 1, 54, 60
3, 318, Note_on_c, 1, 55, 79
3, 325, Note_on_c, 1, 54, 0
3, 354, Note_on_c, 1, 55, 0
3, 368, Note_on_c, 1, 53, 58
3, 549, Note_on_c, 1, 53, 0
3, 554, Note_on_c, 1, 51, 54
3, 566, Note_on_c, 1, 39, 0
3, 672, Note_on_c, 1, 39, 38
3, 693, Note_on_c, 1, 39, 0
3, 746, Note_on_c, 1, 39, 50
3, 834, Note_on_c, 1, 39, 0
3, 837, Note_on_c, 1, 38, 40
3, 916, Note_on_c, 1, 51, 0
3, 919, Note_on_c, 1, 38, 0
3, 921, Note_on_c, 1, 39, 72
3, 1209, Note_on_c, 1, 51, 75
3, 1221, Note_on_c, 1, 51, 0
3, 1287, Note_on_c, 1, 53, 73
3, 1300, Note_on_c, 1, 53, 0
3, 1329, Note_on_c, 1, 51, 62
3, 1337, Note_on_c, 1, 39, 0
3, 1411, Note_on_c, 1, 39, 43
3, 1423, Note_on_c, 1, 39, 0
3, 1435, Note_on_c, 1, 51, 0
3, 1447, Note_on_c, 1, 50, 68
3, 1459, Note_on_c, 1, 50, 0
3, 1528, Note_on_c, 1, 44, 65
3, 1547, Note_on_c, 1, 44, 0
3, 1569, Note_on_c, 1, 43, 70
3, 1755, Note_on_c, 1, 43, 0
3, 1757, Note_on_c, 1, 38, 51
3, 1778, Note_on_c, 1, 38, 0
3, 1798, Note_on_c, 1, 35, 58
3, 1910, Note_on_c, 1, 35, 0
3, 1919, Note_on_c, 1, 36, 53
3, 1943, Note_on_c, 1, 36, 0
3, 1956, Note_on_c, 1, 38, 48
3, 1967, Note_on_c, 1, 38, 0
3, 1991, Note_on_c, 1, 39, 51
3, 2008, Note_on_c, 1, 39, 0
3, 2034, Note_on_c, 1, 41, 58
3, 2189, Note_on_c, 1, 41, 0
3, 2193, Note_on_c, 1, 39, 38
3, 2221, Note_on_c, 1, 39, 0
3, 2231, Note_on_c, 1, 38, 46
3, 2264, Note_on_c, 1, 38, 0
3, 2277, Note_on_c, 1, 36, 60
3, 2363, Note_on_c, 1, 32, 60
3, 2364, Note_on_c, 1, 36, 0
3, 2649, Note_on_c, 1, 48, 50
3, 2655, Note_on_c, 1, 48, 0
3, 2692, Note_on_c, 1, 49, 44
3, 2706, Note_on_c, 1, 49, 0
3, 2735, Note_on_c, 1, 48, 58
3, 2748, Note_on_c, 1, 32, 0
3, 2844, Note_on_c, 1, 48, 0
3, 2847, Note_on_c, 1, 47, 61
3, 2857, Note_on_c, 1, 47, 0
3, 2893, Note_on_c, 1, 48, 71
3, 2896, Control_c, 1, 1, 3
3, 2897, Control_c, 1, 1, 4
3, 2898, Control_c, 1, 1, 5
3, 2900, Control_c, 1, 1, 8
3, 2900, Control_c, 1, 1, 10
3, 2901, Control_c, 1, 1, 11
3, 2902, Control_c, 1, 1, 13
3, 2902, Control_c, 1, 1, 15
3, 2904, Control_c, 1, 1, 19
3, 2905, Control_c, 1, 1, 21
3, 2906, Control_c, 1, 1, 22
3, 2906, Control_c, 1, 1, 24
3, 2906, Control_c, 1, 1, 26
3, 2907, Control_c, 1, 1, 28
3, 2908, Control_c, 1, 1, 29
3, 2909, Control_c, 1, 1, 31
3, 2910, Control_c, 1, 1, 33
3, 2910, Control_c, 1, 1, 35
3, 2910, Control_c, 1, 1, 36
3, 2911, Control_c, 1, 1, 38
3, 2911, Control_c, 1, 1, 40
3, 2913, Control_c, 1, 1, 41
3, 2914, Control_c, 1, 1, 43
3, 2914, Control_c, 1, 1, 45
3, 2915, Control_c, 1, 1, 46
3, 2915, Control_c, 1, 1, 48
3, 2915, Control_c, 1, 1, 50
3, 2917, Control_c, 1, 1, 52
3, 2918, Control_c, 1, 1, 53
3, 2918, Control_c, 1, 1, 55
3, 2919, Control_c, 1, 1, 56
3, 2920, Control_c, 1, 1, 58
3, 2920, Control_c, 1, 1, 60
3, 2920, Control_c, 1, 1, 61
3, 2921, Control_c, 1, 1, 63
3, 2922, Control_c, 1, 1, 64
3, 2923, Control_c, 1, 1, 66
3, 2924, Control_c, 1, 1, 67
3, 2924, Control_c, 1, 1, 69
3, 2924, Control_c, 1, 1, 70
3, 2925, Control_c, 1, 1, 72
3, 2928, Control_c, 1, 1, 76
3, 2928, Control_c, 1, 1, 77
3, 2928, Control_c, 1, 1, 78
3, 2929, Control_c, 1, 1, 79
3, 2932, Control_c, 1, 1, 82
3, 2932, Control_c, 1, 1, 83
3, 2934, Control_c, 1, 1, 86
3, 2935, Control_c, 1, 1, 87
3, 2937, Control_c, 1, 1, 89
3, 2938, Control_c, 1, 1, 90
3, 2941, Control_c, 1, 1, 92
3, 2941, Control_c, 1, 1, 93
3, 2943, Control_c, 1, 1, 94
3, 2945, Control_c, 1, 1, 95
3, 2947, Control_c, 1, 1, 96
3, 2951, Control_c, 1, 1, 97
3, 2970, Control_c, 1, 1, 96
3, 2973, Control_c, 1, 1, 95
3, 2975, Control_c, 1, 1, 93
3, 2977, Control_c, 1, 1, 91
3, 2979, Control_c, 1, 1, 90
3, 2981, Control_c, 1, 1, 88
3, 2982, Control_c, 1, 1, 87
3, 2982, Control_c, 1, 1, 86
3, 2982, Control_c, 1, 1, 85
3, 2983, Control_c, 1, 1, 84
3, 2984, Control_c, 1, 1, 82
3, 2985, Control_c, 1, 1, 80
3, 2986, Control_c, 1, 1, 79
3, 2986, Control_c, 1, 1, 78
3, 2987, Control_c, 1, 1, 76
3, 2987, Control_c, 1, 1, 75
3, 2988, Control_c, 1, 1, 72
3, 2989, Control_c, 1, 1, 71
3, 2990, Control_c, 1, 1, 68
3, 2990, Control_c, 1, 1, 66
3, 2991, Control_c, 1, 1, 64
3, 2992, Control_c, 1, 1, 62
3, 2992, Control_c, 1, 1, 60
3, 2993, Control_c, 1, 1, 57
3, 2993, Control_c, 1, 1, 55
3, 2994, Control_c, 1, 1, 53
3, 2995, Control_c, 1, 1, 51
3, 2996, Control_c, 1, 1, 48
3, 2996, Control_c, 1, 1, 46
3, 2997, Control_c, 1, 1, 43
3, 2997, Control_c, 1, 1, 41
3, 2998, Control_c, 1, 1, 39
3, 2999, Control_c, 1, 1, 37
3, 3000, Control_c, 1, 1, 34
3, 3000, Control_c, 1, 1, 32
3, 3001, Control_c, 1, 1, 30
3, 3002, Control_c, 1, 1, 28
3, 3002, Control_c, 1, 1, 26
3, 3002, Control_c, 1, 1, 23
3, 3003, Control_c, 1, 1, 21
3, 3004, Control_c, 1, 1, 19
3, 3005, Control_c, 1, 1, 16
3, 3006, Control_c, 1, 1, 14
3, 3006, Control_c, 1, 1, 12
3, 3007, Control_c, 1, 1, 10
3, 3007, Control_c, 1, 1, 8
3, 3008, Control_c, 1, 1, 6
3, 3009, Control_c, 1, 1, 4
3, 3010, Control_c, 1, 1, 2
3, 3010, Control_c, 1, 1, 1
3, 3014, Control_c, 1, 1, 0
3, 3318, Note_on_c, 1, 48, 0
3, 3323, Note_on_c, 1, 46, 56
3, 3345, Note_on_c, 1, 46, 0
3, 3366, Note_on_c, 1, 45, 36
3, 3377, Note_on_c, 1, 45, 0
3, 3436, Note_on_c, 1, 52, 79
3, 3464, Note_on_c, 1, 52, 0
3, 3478, Note_on_c, 1, 50, 57
3, 3557, Note_on_c, 1, 37, 39
3, 3564, Note_on_c, 1, 50, 0
3, 3587, Note_on_c, 1, 37, 0
3, 3594, Note_on_c, 1, 38, 44
3, 3679, Note_on_c, 1, 54, 56
3, 3788, Note_on_c, 1, 38, 0
3, 3794, Note_on_c, 1, 42, 36
3, 3829, Note_on_c, 1, 54, 0
3, 3833, Note_on_c, 1, 42, 0
3, 3838, Note_on_c, 1, 43, 68
3, 4128, Note_on_c, 1, 59, 66
3, 4143, Note_on_c, 1, 59, 0
3, 4168, Note_on_c, 1, 58, 46
3, 4177, Note_on_c, 1, 58, 0
3, 4207, Note_on_c, 1, 59, 58
3, 4397, Note_on_c, 1, 42, 25
3, 4399, Note_on_c, 1, 43, 0
3, 4421, Note_on_c, 1, 42, 0
3, 4447, Note_on_c, 1, 44, 73
3, 4499, Note_on_c, 1, 59, 0
3, 4614, Note_on_c, 1, 44, 0
3, 4633, Note_on_c, 1, 44, 49
3, 4670, Note_on_c, 1, 44, 0
3, 4679, Note_on_c, 1, 44, 34
3, 4712, Note_on_c, 1, 44, 0
3, 4759, Note_on_c, 1, 40, 36
3, 4793, Note_on_c, 1, 40, 0
3, 4804, Note_on_c, 1, 41, 43
3, 4880, Note_on_c, 1, 56, 52
3, 4898, Note_on_c, 1, 56, 0
3, 4921, Note_on_c, 1, 51, 42
3, 4928, Note_on_c, 1, 51, 0
3, 4995, Note_on_c, 1, 48, 58
3, 5012, Note_on_c, 1, 48, 0
3, 5039, Note_on_c, 1, 44, 48
3, 5070, Note_on_c, 1, 41, 0
3, 5124, Note_on_c, 1, 36, 30
3, 5133, Note_on_c, 1, 36, 0
3, 5140, Note_on_c, 1, 44, 0
3, 5157, Note_on_c, 1, 43, 45
3, 5269, Note_on_c, 1, 43, 0
3, 5279, Note_on_c, 1, 41, 50
3, 5492, Note_on_c, 1, 34, 27
3, 5511, Note_on_c, 1, 34, 0
3, 5519, Note_on_c, 1, 36, 46
3, 5526, Note_on_c, 1, 41, 0
3, 5688, Note_on_c, 1, 34, 48
3, 5689, Note_on_c, 1, 36, 0
3, 5710, Note_on_c, 1, 34, 0
3, 5723, Note_on_c, 1, 35, 59
3, 5753, Note_on_c, 1, 35, 0
3, 5763, Note_on_c, 1, 36, 57
3, 5782, Note_on_c, 1, 36, 0
3, 5803, Note_on_c, 1, 50, 54
3, 5818, Note_on_c, 1, 50, 0
3, 5837, Note_on_c, 1, 49, 56
3, 5870, Note_on_c, 1, 49, 0
3, 5881, Note_on_c, 1, 48, 54
3, 6128, Note_on_c, 1, 43, 71
3, 6131, Note_on_c, 1, 48, 0
3, 6364, Note_on_c, 1, 36, 74
3, 6366, Note_on_c, 1, 43, 0
3, 6442, Note_on_c, 1, 43, 38
3, 6452, Note_on_c, 1, 43, 0
3, 6483, Note_on_c, 1, 50, 87
3, 6563, Note_on_c, 1, 43, 28
3, 6571, Note_on_c, 1, 43, 0
3, 6591, Note_on_c, 1, 50, 0
3, 6600, Note_on_c, 1, 36, 0
3, 6600, Note_on_c, 1, 48, 66
3, 6703, Note_on_c, 1, 48, 0
3, 6715, Note_on_c, 1, 45, 82
3, 6958, Note_on_c, 1, 40, 59
3, 6959, Note_on_c, 1, 45, 0
3, 7189, Note_on_c, 1, 40, 0
3, 7191, Note_on_c, 1, 38, 52
3, 7233, Note_on_c, 1, 52, 55
3, 7257, Note_on_c, 1, 52, 0
3, 7269, Note_on_c, 1, 53, 54
3, 7303, Note_on_c, 1, 53, 0
3, 7311, Note_on_c, 1, 54, 55
3, 7676, Note_on_c, 1, 54, 0
3, 7682, Note_on_c, 1, 43, 44
3, 7685, Note_on_c, 1, 38, 0
3, 7889, Note_on_c, 1, 57, 83
3, 7934, Note_on_c, 1, 57, 0
3, 7946, Note_on_c, 1, 55, 49
3, 8060, Note_on_c, 1, 43, 0
3, 8127, Note_on_c, 1, 43, 67
3, 8135, Note_on_c, 1, 55, 0
3, 8223, Pitch_bend_c, 1, 8192
3, 8225, Pitch_bend_c, 1, 8192
3, 8228, Pitch_bend_c, 1, 8842
3, 8229, Pitch_bend_c, 1, 9102
3, 8230, Pitch_bend_c, 1, 9232
3, 8231, Pitch_bend_c, 1, 9492
3, 8233, Pitch_bend_c, 1, 9752
3, 8234, Pitch_bend_c, 1, 9882
3, 8235, Pitch_bend_c, 1, 10012
3, 8237, Pitch_bend_c, 1, 10142
3, 8238, Pitch_bend_c, 1, 10272
3, 8239, Pitch_bend_c, 1, 10532
3, 8240, Pitch_bend_c, 1, 10662
3, 8241, Pitch_bend_c, 1, 10792
3, 8245, Pitch_bend_c, 1, 11052
3, 8254, Pitch_bend_c, 1, 10922
3, 8255, Pitch_bend_c, 1, 10792
3, 8256, Pitch_bend_c, 1, 10532
3, 8257, Pitch_bend_c, 1, 10272
3, 8259, Pitch_bend_c, 1, 10012
3, 8259, Pitch_bend_c, 1, 9882
3, 8261, Pitch_bend_c, 1, 9492
3, 8263, Pitch_bend_c, 1, 9102
3, 8264, Pitch_bend_c, 1, 8712
3, 8265, Pitch_bend_c, 1, 8192
3, 8266, Pitch_bend_c, 1, 8192
3, 8299, Pitch_bend_c, 1, 8192
3, 8302, Pitch_bend_c, 1, 8712
3, 8302, Pitch_bend_c, 1, 8842
3, 8304, Pitch_bend_c, 1, 9102
3, 8305, Pitch_bend_c, 1, 9232
3, 8307, Pitch_bend_c, 1, 9492
3, 8308, Pitch_bend_c, 1, 9752
3, 8309, Pitch_bend_c, 1, 9882
3, 8311, Pitch_bend_c, 1, 10012
3, 8311, Pitch_bend_c, 1, 10142
3, 8315, Pitch_bend_c, 1, 10272
3, 8323, Pitch_bend_c, 1, 10012
3, 8325, Pitch_bend_c, 1, 9882
3, 8326, Pitch_bend_c, 1, 9752
3, 8327, Pitch_bend_c, 1, 9492
3, 8328, Pitch_bend_c, 1, 9232
3, 8330, Pitch_bend_c, 1, 8972
3, 8331, Pitch_bend_c, 1, 8712
3, 8332, Pitch_bend_c, 1, 8192
3, 8333, Pitch_bend_c, 1, 8192
3, 8369, Pitch_bend_c, 1, 8192
3, 8370, Pitch_bend_c, 1, 8192
3, 8372, Pitch_bend_c, 1, 8712
3, 8373, Pitch_bend_c, 1, 8972
3, 8374, Pitch_bend_c, 1, 9232
3, 8375, Pitch_bend_c, 1, 9492
3, 8377, Pitch_bend_c, 1, 9752
3, 8378, Pitch_bend_c, 1, 9882
3, 8379, Pitch_bend_c, 1, 10142
3, 8381, Pitch_bend_c, 1, 10272
3, 8382, Pitch_bend_c, 1, 10402
3, 8383, Pitch_bend_c, 1, 10532
3, 8387, Pitch_bend_c, 1, 10662
3, 8391, Pitch_bend_c, 1, 10532
3, 8392, Pitch_bend_c, 1, 10402
3, 8393, Pitch_bend_c, 1, 10142
3, 8395, Pitch_bend_c, 1, 9882
3, 8396, Pitch_bend_c, 1, 9752
3, 8397, Pitch_bend_c, 1, 9492
3, 8399, Pitch_bend_c, 1, 9102
3, 8400, Pitch_bend_c, 1, 8842
3, 8400, Pitch_bend_c, 1, 8192
3, 8402, Pitch_bend_c, 1, 8192
3, 8402, Pitch_bend_c, 1, 8192
3, 8599, Note_on_c, 1, 42, 49
3, 8603, Note_on_c, 1, 43, 0
3, 8642, Note_on_c, 1, 42, 0
3, 8645, Note_on_c, 1, 43, 47
3, 8817, Note_on_c, 1, 61, 76
3, 8848, Note_on_c, 1, 61, 0
3, 8855, Note_on_c, 1, 57, 55
3, 8878, Note_on_c, 1, 57, 0
3, 8897, Note_on_c, 1, 52, 35
3, 8916, Note_on_c, 1, 52, 0
3, 8931, Note_on_c, 1, 49, 53
3, 8940, Note_on_c, 1, 43, 0
3, 8960, Note_on_c, 1, 49, 0
3, 8982, Note_on_c, 1, 45, 11
3, 8995, Note_on_c, 1, 45, 0
3, 9012, Note_on_c, 1, 43, 62
3, 9090, Note_on_c, 1, 43, 0
3, 9101, Note_on_c, 1, 43, 74
3, 9440, Note_on_c, 1, 55, 71
3, 9451, Note_on_c, 1, 55, 0
3, 9519, Note_on_c, 1, 42, 56
3, 9522, Note_on_c, 1, 43, 0
3, 9533, Note_on_c, 1, 42, 0
3, 9553, Note_on_c, 1, 40, 68
3, 9592, Note_on_c, 1, 40, 0
3, 9599, Note_on_c, 1, 41, 70
3, 9718, Note_on_c, 1, 53, 78
3, 9740, Note_on_c, 1, 53, 0
3, 9796, Note_on_c, 1, 53, 64
3, 10035, Note_on_c, 1, 41, 0
3, 10039, Note_on_c, 1, 29, 66
3, 10278, Note_on_c, 1, 41, 91
3, 10292, Note_on_c, 1, 29, 0
3, 10293, Note_on_c, 1, 53, 0
3, 10375, Note_on_c, 1, 53, 62
3, 10395, Note_on_c, 1, 53, 0
3, 10412, Note_on_c, 1, 52, 55
3, 10424, Note_on_c, 1, 52, 0
3, 10453, Note_on_c, 1, 53, 71
3, 10609, Note_on_c, 1, 53, 0
3, 10632, Note_on_c, 1, 29, 55
3, 10689, Note_on_c, 1, 53, 54
3, 10714, Note_on_c, 1, 53, 0
3, 10720, Note_on_c, 1, 54, 73
3, 10747, Note_on_c, 1, 54, 0
3, 10761, Note_on_c, 1, 53, 75
3, 10817, Note_on_c, 1, 41, 0
3, 10874, Note_on_c, 1, 41, 62
3, 10892, Note_on_c, 1, 41, 0
3, 10919, Note_on_c, 1, 29, 0
3, 10920, Note_on_c, 1, 41, 58
3, 10976, Note_on_c, 1, 41, 0
3, 10997, Note_on_c, 1, 39, 56
3, 10998, Note_on_c, 1, 53, 0
3, 11044, Note_on_c, 1, 40, 76
3, 11048, Note_on_c, 1, 39, 0
3, 11228, Note_on_c, 1, 40, 0
3, 11240, Note_on_c, 1, 52, 74
3, 11274, Note_on_c, 1, 52, 0
3, 11286, Note_on_c, 1, 45, 50
3, 11364, Note_on_c, 1, 45, 0
3, 11365, Note_on_c, 1, 40, 44
3, 11382, Note_on_c, 1, 40, 0
3, 11407, Note_on_c, 1, 37, 67
3, 11446, Note_on_c, 1, 37, 0
3, 11481, Note_on_c, 1, 38, 61
3, 11515, Note_on_c, 1, 38, 0
3, 11525, Note_on_c, 1, 39, 50
3, 11640, Note_on_c, 1, 55, 78
3, 11923, Note_on_c, 1, 39, 0
3, 11956, Note_on_c, 1, 39, 50
3, 11978, Note_on_c, 1, 39, 0
3, 12075, Note_on_c, 1, 45, 64
3, 12098, Note_on_c, 1, 55, 0
3, 12104, Note_on_c, 1, 45, 0
3, 12113, Note_on_c, 1, 39, 46
3, 12201, Note_on_c, 1, 37, 10
3, 12209, Note_on_c, 1, 39, 0
3, 12242, Note_on_c, 1, 37, 0
3, 12248, Note_on_c, 1, 38, 38
3, 12406, Note_on_c, 1, 38, 0
3, 12406, Note_on_c, 1, 37, 45
3, 12423, Note_on_c, 1, 37, 0
3, 12436, Note_on_c, 1, 36, 57
3, 12465, Note_on_c, 1, 36, 0
3, 12478, Note_on_c, 1, 35, 52
3, 12676, Note_on_c, 1, 50, 73
3, 12720, Note_on_c, 1, 50, 0
3, 12757, Note_on_c, 1, 47, 60
3, 12793, Note_on_c, 1, 35, 0
3, 12820, Note_on_c, 1, 47, 0
3, 12843, Note_on_c, 1, 39, 48
3, 12920, Note_on_c, 1, 39, 0
3, 12922, Note_on_c, 1, 40, 58
3, 13043, Note_on_c, 1, 52, 84
3, 13055, Note_on_c, 1, 52, 0
3, 13092, Note_on_c, 1, 52, 60
3, 13095, Note_on_c, 1, 40, 0
3, 13098, Note_on_c, 1, 52, 0
3, 13167, Note_on_c, 1, 52, 82
3, 13194, Note_on_c, 1, 52, 0
3, 13215, Note_on_c, 1, 50, 45
3, 13278, Note_on_c, 1, 50, 0
3, 13326, Note_on_c, 1, 50, 60
3, 13435, Note_on_c, 1, 50, 0
3, 13445, Note_on_c, 1, 49, 55
3, 13678, Note_on_c, 1, 49, 0
3, 13684, Note_on_c, 1, 37, 48
3, 13917, Note_on_c, 1, 42, 46
3, 13920, Note_on_c, 1, 37, 0
3, 13999, Note_on_c, 1, 58, 48
3, 14408, Note_on_c, 1, 42, 0
3, 14412, Note_on_c, 1, 40, 55
3, 14420, Note_on_c, 1, 58, 0
3, 14605, Note_on_c, 1, 52, 54
3, 14832, Note_on_c, 1, 40, 0
3, 14841, Note_on_c, 1, 39, 39
3, 14875, Note_on_c, 1, 39, 0
3, 14879, Note_on_c, 1, 52, 0
3, 14882, Note_on_c, 1, 40, 51
3, 15044, Note_on_c, 1, 52, 35
3, 15067, Note_on_c, 1, 52, 0
3, 15084, Note_on_c, 1, 55, 26
3, 15098, Note_on_c, 1, 55, 0
3, 15176, Note_on_c, 1, 60, 77
3, 15201, Note_on_c, 1, 60, 0
3, 15239, Note_on_c, 1, 55, 61
3, 15258, Note_on_c, 1, 55, 0
3, 15275, Note_on_c, 1, 52, 39
3, 15284, Note_on_c, 1, 52, 0
3, 15284, Note_on_c, 1, 40, 0
3, 15313, Note_on_c, 1, 40, 60
3, 15338, Note_on_c, 1, 40, 0
3, 15354, Note_on_c, 1, 40, 62
3, 15593, Note_on_c, 1, 61, 74
3, 15619, Note_on_c, 1, 61, 0
3, 15638, Note_on_c, 1, 54, 55
3, 15681, Note_on_c, 1, 54, 0
3, 15724, Note_on_c, 1, 50, 38
3, 15738, Note_on_c, 1, 40, 0
3, 15761, Note_on_c, 1, 40, 56
3, 15766, Note_on_c, 1, 50, 0
3, 15806, Note_on_c, 1, 52, 67
3, 16004, Note_on_c, 1, 40, 0
3, 16047, Note_on_c, 1, 40, 34
3, 16058, Note_on_c, 1, 40, 0
3, 16086, Note_on_c, 1, 40, 51
3, 16104, Note_on_c, 1, 40, 0
3, 16204, Note_on_c, 1, 40, 53
3, 16230, Note_on_c, 1, 40, 0
3, 16288, Note_on_c, 1, 40, 50
3, 16292, Note_on_c, 1, 52, 0
3, 16308, Note_on_c, 1, 40, 0
3, 16326, Note_on_c, 1, 39, 58
3, 16561, Note_on_c, 1, 51, 77
3, 16775, Note_on_c, 1, 39, 0
3, 16777, Note_on_c, 1, 46, 37
3, 16798, Note_on_c, 1, 46, 0
3, 16801, Note_on_c, 1, 39, 67
3, 16966, Note_on_c, 1, 51, 0
3, 17046, Note_on_c, 1, 51, 57
3, 17053, Note_on_c, 1, 51, 0
3, 17126, Note_on_c, 1, 51, 68
3, 17135, Note_on_c, 1, 51, 0
3, 17203, Note_on_c, 1, 51, 57
3, 17221, Note_on_c, 1, 39, 0
3, 17240, Note_on_c, 1, 39, 59
3, 17259, Note_on_c, 1, 39, 0
3, 17276, Note_on_c, 1, 51, 0
3, 17279, Note_on_c, 1, 39, 77
3, 17484, Note_on_c, 1, 46, 26
3, 17510, Note_on_c, 1, 46, 0
3, 17520, Note_on_c, 1, 51, 74
3, 17588, Note_on_c, 1, 39, 0
3, 17597, Note_on_c, 1, 51, 0
3, 17603, Note_on_c, 1, 41, 51
3, 17626, Note_on_c, 1, 41, 0
3, 17635, Note_on_c, 1, 42, 69
3, 17751, Note_on_c, 1, 42, 0
3, 17755, Note_on_c, 1, 43, 71
3, 17997, Note_on_c, 1, 38, 50
3, 18003, Note_on_c, 1, 43, 0
3, 18075, Note_on_c, 1, 38, 0
3, 18079, Note_on_c, 1, 34, 46
3, 18110, Note_on_c, 1, 34, 0
3, 18113, Note_on_c, 1, 35, 57
3, 18205, Note_on_c, 1, 34, 19
3, 18230, Note_on_c, 1, 34, 0
3, 18232, Note_on_c, 1, 35, 0
3, 18234, Note_on_c, 1, 36, 66
3, 18339, Note_on_c, 1, 34, 25
3, 18353, Note_on_c, 1, 36, 0
3, 18358, Note_on_c, 1, 38, 64
3, 18365, Note_on_c, 1, 34, 0
3, 18469, Note_on_c, 1, 38, 0
3, 18473, Note_on_c, 1, 39, 55
3, 18558, Note_on_c, 1, 34, 30
3, 18578, Note_on_c, 1, 39, 0
3, 18581, Note_on_c, 1, 34, 0
3, 18587, Note_on_c, 1, 43, 54
3, 18704, Note_on_c, 1, 43, 0
3, 18713, Note_on_c, 1, 44, 56
3, 18836, Note_on_c, 1, 39, 42
3, 18850, Note_on_c, 1, 44, 0
3, 18958, Note_on_c, 1, 55, 51
3, 19043, Note_on_c, 1, 46, 27
3, 19059, Note_on_c, 1, 46, 0
3, 19070, Note_on_c, 1, 55, 0
3, 19076, Note_on_c, 1, 53, 58
3, 19154, Note_on_c, 1, 39, 0
3, 19155, Note_on_c, 1, 46, 33
3, 19164, Note_on_c, 1, 46, 0
3, 19192, Note_on_c, 1, 53, 0
3, 19195, Note_on_c, 1, 51, 50
3, 19398, Note_on_c, 1, 42, 36
3, 19410, Note_on_c, 1, 42, 0
3, 19427, Note_on_c, 1, 51, 0
3, 19432, Note_on_c, 1, 48, 57
3, 19557, Note_on_c, 1, 39, 53
3, 19562, Note_on_c, 1, 48, 0
3, 19676, Note_on_c, 1, 39, 0
3, 19676, Note_on_c, 1, 33, 58
3, 19793, Note_on_c, 1, 33, 0
3, 19794, Note_on_c, 1, 39, 65
3, 19897, Note_on_c, 1, 37, 23
3, 19908, Note_on_c, 1, 39, 0
3, 19915, Note_on_c, 1, 37, 0
3, 19915, Note_on_c, 1, 38, 62
3, 20020, Note_on_c, 1, 37, 20
3, 20038, Note_on_c, 1, 54, 80
3, 20044, Note_on_c, 1, 38, 0
3, 20051, Note_on_c, 1, 37, 0
3, 20144, Note_on_c, 1, 41, 35
3, 20152, Note_on_c, 1, 41, 0
3, 20153, Note_on_c, 1, 54, 0
3, 20162, Note_on_c, 1, 55, 62
3, 20279, Note_on_c, 1, 42, 49
3, 20282, Note_on_c, 1, 55, 0
3, 20391, Note_on_c, 1, 42, 0
3, 20399, Note_on_c, 1, 43, 44
3, 20511, Note_on_c, 1, 43, 0
3, 20515, Note_on_c, 1, 38, 43
3, 20636, Note_on_c, 1, 38, 0
3, 20637, Note_on_c, 1, 44, 46
3, 20723, Note_on_c, 1, 38, 43
3, 20732, Note_on_c, 1, 38, 0
3, 20755, Note_on_c, 1, 51, 56
3, 20762, Note_on_c, 1, 44, 0
3, 20864, Note_on_c, 1, 51, 0
3, 20875, Note_on_c, 1, 44, 62
3, 21002, Note_on_c, 1, 39, 67
3, 21024, Note_on_c, 1, 44, 0
3, 21119, Note_on_c, 1, 39, 0
3, 21121, Note_on_c, 1, 41, 49
3, 21208, Note_on_c, 1, 39, 27
3, 21234, Note_on_c, 1, 55, 75
3, 21241, Note_on_c, 1, 41, 0
3, 21244, Note_on_c, 1, 39, 0
3, 21401, Note_on_c, 1, 53, 54
3, 21404, Note_on_c, 1, 55, 0
3, 21424, Note_on_c, 1, 53, 0
3, 21431, Note_on_c, 1, 48, 42
3, 21464, Note_on_c, 1, 48, 0
3, 21474, Note_on_c, 1, 44, 48
3, 21557, Note_on_c, 1, 39, 32
3, 21577, Note_on_c, 1, 39, 0
3, 21590, Note_on_c, 1, 44, 0
3, 21604, Note_on_c, 1, 43, 22
3, 21720, Note_on_c, 1, 43, 0
3, 21726, Note_on_c, 1, 41, 50
3, 21844, Note_on_c, 1, 36, 50
3, 21847, Note_on_c, 1, 41, 0
3, 21922, Note_on_c, 1, 36, 0
3, 21927, Note_on_c, 1, 34, 50
3, 21951, Note_on_c, 1, 34, 0
3, 21958, Note_on_c, 1, 35, 63
3, 22076, Note_on_c, 1, 35, 0
3, 22077, Note_on_c, 1, 36, 69
3, 22175, Note_on_c, 1, 34, 42
3, 22198, Note_on_c, 1, 50, 105
3, 22199, Note_on_c, 1, 36, 0
3, 22210, Note_on_c, 1, 34, 0
3, 22305, Note_on_c, 1, 50, 0
3, 22316, Note_on_c, 1, 48, 50
3, 22435, Note_on_c, 1, 48, 0
3, 22439, Note_on_c, 1, 43, 88
3, 22515, Note_on_c, 1, 38, 44
3, 22531, Note_on_c, 1, 43, 0
3, 22546, Note_on_c, 1, 38, 0
3, 22561, Note_on_c, 1, 35, 61
3, 22670, Note_on_c, 1, 35, 0
3, 22679, Note_on_c, 1, 36, 62
3, 22763, Note_on_c, 1, 34, 31
3, 22789, Note_on_c, 1, 34, 0
3, 22794, Note_on_c, 1, 36, 0
3, 22803, Note_on_c, 1, 50, 76
3, 22885, Note_on_c, 1, 36, 42
3, 22895, Note_on_c, 1, 36, 0
3, 22906, Note_on_c, 1, 50, 0
3, 22918, Note_on_c, 1, 48, 55
3, 22998, Note_on_c, 1, 44, 50
3, 23008, Note_on_c, 1, 48, 0
3, 23027, Note_on_c, 1, 44, 0
3, 23038, Note_on_c, 1, 45, 48
3, 23045, Note_on_c, 1, 45, 0
3, 23118, Note_on_c, 1, 42, 70
3, 23153, Note_on_c, 1, 42, 0
3, 23160, Note_on_c, 1, 43, 47
3, 23258, Note_on_c, 1, 43, 0
3, 23277, Note_on_c, 1, 40, 70
3, 23390, Note_on_c, 1, 40, 0
3, 23391, Note_on_c, 1, 39, 53
3, 23486, Note_on_c, 1, 37, 31
3, 23499, Note_on_c, 1, 39, 0
3, 23513, Note_on_c, 1, 37, 0
3, 23513, Note_on_c, 1, 38, 44
3, 23602, Note_on_c, 1, 52, 91
3, 23690, Note_on_c, 1, 52, 0
3, 23692, Note_on_c, 1, 49, 69
3, 23723, Note_on_c, 1, 49, 0
3, 23732, Note_on_c, 1, 50, 69
3, 23742, Note_on_c, 1, 38, 0
3, 23754, Note_on_c, 1, 50, 0
3, 23774, Note_on_c, 1, 45, 57
3, 23826, Note_on_c, 1, 45, 0
3, 23843, Note_on_c, 1, 45, 59
3, 23875, Note_on_c, 1, 45, 0
3, 23884, Note_on_c, 1, 44, 48
3, 23909, Note_on_c, 1, 44, 0
3, 23960, Note_on_c, 1, 44, 56
3, 23994, Note_on_c, 1, 44, 0
3, 24002, Note_on_c, 1, 43, 43
3, 24028, Note_on_c, 1, 43, 0
3, 24036, Note_on_c, 1, 56, 37
3, 24041, Note_on_c, 1, 56, 0
3, 24045, Note_on_c, 1, 57, 46
3, 24074, Note_on_c, 1, 57, 0
3, 24077, Note_on_c, 1, 56, 69
3, 24106, Note_on_c, 1, 56, 0
3, 24118, Note_on_c, 1, 55, 68
3, 24167, Note_on_c, 1, 55, 0
3, 24193, Note_on_c, 1, 43, 40
3, 24244, Note_on_c, 1, 43, 0
3, 24272, Note_on_c, 1, 43, 48
3, 24312, Note_on_c, 1, 38, 47
3, 24321, Note_on_c, 1, 38, 0
3, 24329, Note_on_c, 1, 38, 20
3, 24336, Note_on_c, 1, 43, 0
3, 24341, Note_on_c, 1, 38, 0
3, 24358, Note_on_c, 1, 31, 63
3, 24558, Note_on_c, 1, 43, 43
3, 24567, Note_on_c, 1, 43, 0
3, 24606, Note_on_c, 1, 55, 52
3, 24617, Note_on_c, 1, 55, 0
3, 24641, Note_on_c, 1, 54, 48
3, 24649, Note_on_c, 1, 54, 0
3, 24686, Note_on_c, 1, 55, 77
3, 24756, Note_on_c, 1, 43, 47
3, 24771, Note_on_c, 1, 43, 0
3, 24834, Note_on_c, 1, 43, 50
3, 24870, Note_on_c, 1, 31, 0
3, 24874, Note_on_c, 1, 38, 41
3, 24903, Note_on_c, 1, 38, 0
3, 24920, Note_on_c, 1, 31, 81
3, 24927, Note_on_c, 1, 55, 0
3, 25079, Note_on_c, 1, 52, 66
3, 25103, Note_on_c, 1, 43, 0
3, 25108, Note_on_c, 1, 52, 0
3, 25123, Note_on_c, 1, 49, 52
3, 25137, Note_on_c, 1, 49, 0
3, 25158, Note_on_c, 1, 45, 64
3, 25227, Note_on_c, 1, 45, 0
3, 25234, Note_on_c, 1, 43, 50
3, 25258, Note_on_c, 1, 31, 0
3, 25276, Note_on_c, 1, 38, 30
3, 25300, Note_on_c, 1, 38, 0
3, 25322, Note_on_c, 1, 31, 75
3, 25479, Note_on_c, 1, 43, 0
3, 25519, Note_on_c, 1, 38, 39
3, 25541, Note_on_c, 1, 38, 0
3, 25565, Note_on_c, 1, 51, 59
3, 25586, Note_on_c, 1, 51, 0
3, 25601, Note_on_c, 1, 46, 49
3, 25625, Note_on_c, 1, 46, 0
3, 25634, Note_on_c, 1, 43, 55
3, 25642, Note_on_c, 1, 43, 0
3, 25678, Note_on_c, 1, 43, 69
3, 25720, Note_on_c, 1, 31, 0
3, 25720, Note_on_c, 1, 51, 57
3, 25729, Note_on_c, 1, 51, 0
3, 25758, Note_on_c, 1, 38, 66
3, 25792, Note_on_c, 1, 43, 0
3, 25803, Note_on_c, 1, 46, 57
3, 25829, Note_on_c, 1, 46, 0
3, 25840, Note_on_c, 1, 43, 41
3, 25848, Note_on_c, 1, 43, 0
3, 25865, Note_on_c, 1, 38, 0
3, 25874, Note_on_c, 1, 31, 69
3, 25901, Note_on_c, 1, 31, 0
3, 25901, Note_on_c, 1, 37, 35
3, 25914, Note_on_c, 1, 37, 0
3, 25921, Note_on_c, 1, 29, 66
3, 26118, Note_on_c, 1, 41, 94
3, 26416, Note_on_c, 1, 29, 0
3, 26482, Note_on_c, 1, 29, 73
3, 26534, Note_on_c, 1, 41, 0
3, 26612, Note_on_c, 1, 41, 73
3, 26634, Note_on_c, 1, 29, 0
3, 26657, Note_on_c, 1, 53, 55
3, 26677, Note_on_c, 1, 53, 0
3, 26696, Note_on_c, 1, 54, 64
3, 26732, Note_on_c, 1, 54, 0
3, 26740, Note_on_c, 1, 53, 53
3, 26828, Note_on_c, 1, 36, 57
3, 26841, Note_on_c, 1, 36, 0
3, 26861, Note_on_c, 1, 36, 52
3, 26876, Note_on_c, 1, 36, 0
3, 26895, Note_on_c, 1, 53, 0
3, 26899, Note_on_c, 1, 29, 77
3, 27078, Note_on_c, 1, 36, 43
3, 27083, Note_on_c, 1, 41, 0
3, 27112, Note_on_c, 1, 36, 0
3, 27130, Note_on_c, 1, 53, 74
3, 27200, Note_on_c, 1, 29, 0
3, 27207, Note_on_c, 1, 41, 73
3, 27282, Note_on_c, 1, 41, 0
3, 27284, Note_on_c, 1, 53, 0
3, 27286, Note_on_c, 1, 52, 56
3, 27304, Note_on_c, 1, 52, 0
3, 27322, Note_on_c, 1, 39, 63
3, 27353, Note_on_c, 1, 39, 0
3, 27362, Note_on_c, 1, 40, 61
3, 27483, Note_on_c, 1, 52, 65
3, 27485, Note_on_c, 1, 40, 0
3, 27547, Note_on_c, 1, 52, 0
3, 27563, Note_on_c, 1, 44, 43
3, 27597, Note_on_c, 1, 44, 0
3, 27602, Note_on_c, 1, 45, 53
3, 27713, Note_on_c, 1, 45, 0
3, 27718, Note_on_c, 1, 40, 49
3, 27839, Note_on_c, 1, 40, 0
3, 27841, Note_on_c, 1, 39, 55
3, 27963, Note_on_c, 1, 46, 51
3, 28080, Note_on_c, 1, 57, 55
3, 28087, Note_on_c, 1, 39, 0
3, 28137, Note_on_c, 1, 46, 0
3, 28163, Note_on_c, 1, 46, 30
3, 28190, Note_on_c, 1, 57, 0
3, 28199, Note_on_c, 1, 56, 43
3, 28214, Note_on_c, 1, 46, 0
3, 28281, Note_on_c, 1, 46, 34
3, 28301, Note_on_c, 1, 46, 0
3, 28301, Note_on_c, 1, 56, 0
3, 28317, Note_on_c, 1, 57, 51
3, 28399, Note_on_c, 1, 52, 52
3, 28416, Note_on_c, 1, 52, 0
3, 28416, Note_on_c, 1, 57, 0
3, 28431, Note_on_c, 1, 39, 44
3, 28516, Note_on_c, 1, 45, 50
3, 28522, Note_on_c, 1, 39, 0
3, 28552, Note_on_c, 1, 45, 0
3, 28554, Note_on_c, 1, 38, 50
3, 28633, Note_on_c, 1, 38, 0
3, 28645, Note_on_c, 1, 45, 48
3, 28661, Note_on_c, 1, 45, 0
3, 28671, Note_on_c, 1, 46, 65
3, 28785, Note_on_c, 1, 46, 0
3, 28796, Note_on_c, 1, 47, 60
3, 28912, Note_on_c, 1, 47, 0
3, 28915, Note_on_c, 1, 42, 53
3, 29035, Note_on_c, 1, 42, 0
3, 29039, Note_on_c, 1, 38, 50
3, 29156, Note_on_c, 1, 38, 0
3, 29160, Note_on_c, 1, 39, 58
3, 29250, Note_on_c, 1, 37, 25
3, 29277, Note_on_c, 1, 37, 0
3, 29277, Note_on_c, 1, 39, 0
3, 29277, Note_on_c, 1, 40, 56
3, 29363, Note_on_c, 1, 39, 35
3, 29390, Note_on_c, 1, 40, 0
3, 29396, Note_on_c, 1, 52, 103
3, 29402, Note_on_c, 1, 39, 0
3, 29466, Note_on_c, 1, 39, 19
3, 29480, Note_on_c, 1, 39, 0
3, 29505, Note_on_c, 1, 52, 0
3, 29516, Note_on_c, 1, 50, 62
3, 29634, Note_on_c, 1, 50, 0
3, 29635, Note_on_c, 1, 38, 66
3, 29753, Note_on_c, 1, 38, 0
3, 29756, Note_on_c, 1, 37, 50
3, 29879, Note_on_c, 1, 52, 74
3, 29957, Note_on_c, 1, 52, 0
3, 30060, Note_on_c, 1, 37, 0
3, 30074, Note_on_c, 1, 37, 53
3, 30117, Note_on_c, 1, 52, 64
3, 30123, Note_on_c, 1, 37, 0
3, 30150, Note_on_c, 1, 52, 0
3, 30159, Note_on_c, 1, 40, 37
3, 30170, Note_on_c, 1, 40, 0
3, 30193, Note_on_c, 1, 41, 56
3, 30222, Note_on_c, 1, 41, 0
3, 30236, Note_on_c, 1, 42, 64
3, 30320, Note_on_c, 1, 54, 67
3, 30345, Note_on_c, 1, 54, 0
3, 30360, Note_on_c, 1, 49, 51
3, 30377, Note_on_c, 1, 49, 0
3, 30414, Note_on_c, 1, 42, 0
3, 30438, Note_on_c, 1, 39, 34
3, 30468, Note_on_c, 1, 39, 0
3, 30474, Note_on_c, 1, 42, 23
3, 30558, Note_on_c, 1, 37, 55
3, 30564, Note_on_c, 1, 37, 0
3, 30565, Note_on_c, 1, 38, 50
3, 30583, Note_on_c, 1, 42, 0
3, 30584, Note_on_c, 1, 38, 0
3, 30598, Note_on_c, 1, 39, 58
3, 30692, Note_on_c, 1, 37, 23
3, 30710, Note_on_c, 1, 37, 0
3, 30713, Note_on_c, 1, 39, 0
3, 30715, Note_on_c, 1, 40, 50
3, 30807, Note_on_c, 1, 52, 57
3, 31071, Note_on_c, 1, 40, 0
3, 31088, Note_on_c, 1, 39, 56
3, 31100, Note_on_c, 1, 39, 0
3, 31165, Note_on_c, 1, 40, 88
3, 31320, Note_on_c, 1, 52, 0
3, 31397, Note_on_c, 1, 55, 66
3, 31566, Note_on_c, 1, 52, 36
3, 31568, Note_on_c, 1, 55, 0
3, 31579, Note_on_c, 1, 52, 0
3, 31625, Note_on_c, 1, 39, 52
3, 31628, Note_on_c, 1, 40, 0
3, 31671, Note_on_c, 1, 39, 0
3, 31673, Note_on_c, 1, 40, 60
3, 31881, Note_on_c, 1, 52, 56
3, 31896, Note_on_c, 1, 52, 0
3, 31964, Note_on_c, 1, 52, 61
3, 31984, Note_on_c, 1, 52, 0
3, 31997, Note_on_c, 1, 51, 32
3, 32020, Note_on_c, 1, 51, 0
3, 32044, Note_on_c, 1, 52, 55
3, 32098, Note_on_c, 1, 40, 0
3, 32132, Note_on_c, 1, 39, 52
3, 32145, Note_on_c, 1, 52, 0
3, 32159, Note_on_c, 1, 39, 0
3, 32169, Note_on_c, 1, 40, 77
3, 32375, Note_on_c, 1, 39, 21
3, 32400, Note_on_c, 1, 39, 0
3, 32407, Note_on_c, 1, 52, 52
3, 32415, Note_on_c, 1, 40, 0
3, 32484, Note_on_c, 1, 39, 55
3, 32508, Note_on_c, 1, 52, 0
3, 32512, Note_on_c, 1, 39, 0
3, 32521, Note_on_c, 1, 40, 66
3, 32636, Note_on_c, 1, 39, 74
3, 32638, Note_on_c, 1, 40, 0
3, 32884, Note_on_c, 1, 51, 77
3, 33231, Note_on_c, 1, 39, 0
3, 33250, Note_on_c, 1, 39, 72
3, 33420, Note_on_c, 1, 51, 0
3, 33488, Note_on_c, 1, 51, 87
3, 33549, Note_on_c, 1, 39, 0
3, 33601, Note_on_c, 1, 39, 79
3, 33634, Note_on_c, 1, 51, 0
3, 33921, Note_on_c, 1, 51, 78
3, 33958, Note_on_c, 1, 51, 0
3, 33980, Note_on_c, 1, 39, 0
3, 33998, Note_on_c, 1, 41, 61
3, 34020, Note_on_c, 1, 41, 0
3, 34030, Note_on_c, 1, 42, 60
3, 34059, Note_on_c, 1, 42, 0
3, 34070, Note_on_c, 1, 43, 64
3, 34278, Note_on_c, 1, 38, 54
3, 34284, Note_on_c, 1, 43, 0
3, 34295, Note_on_c, 1, 38, 0
3, 34316, Note_on_c, 1, 35, 52
3, 34486, Note_on_c, 1, 35, 0
3, 34635, Note_on_c, 1, 36, 67
3, 34670, Note_on_c, 1, 36, 0
3, 34673, Note_on_c, 1, 43, 60
3, 34784, Note_on_c, 1, 43, 0
3, 34788, Note_on_c, 1, 51, 69
3, 34869, Note_on_c, 1, 43, 32
3, 34883, Note_on_c, 1, 43, 0
3, 34888, Note_on_c, 1, 51, 0
3, 34966, Note_on_c, 1, 48, 64
3, 34987, Note_on_c, 1, 48, 0
3, 35008, Note_on_c, 1, 43, 51
3, 35109, Note_on_c, 1, 43, 0
3, 35122, Note_on_c, 1, 44, 45
3, 35247, Note_on_c, 1, 39, 45
3, 35248, Note_on_c, 1, 44, 0
3, 35357, Note_on_c, 1, 39, 0
3, 35364, Note_on_c, 1, 35, 56
3, 35473, Note_on_c, 1, 35, 0
3, 35479, Note_on_c, 1, 36, 54
3, 35572, Note_on_c, 1, 34, 46
3, 35584, Note_on_c, 1, 36, 0
3, 35595, Note_on_c, 1, 34, 0
3, 35597, Note_on_c, 1, 50, 72
3, 35701, Note_on_c, 1, 50, 0
3, 35713, Note_on_c, 1, 51, 52
3, 35829, Note_on_c, 1, 44, 48
3, 35835, Note_on_c, 1, 51, 0
3, 35936, Note_on_c, 1, 44, 0
3, 35944, Note_on_c, 1, 45, 56
3, 36053, Note_on_c, 1, 45, 0
3, 36063, Note_on_c, 1, 37, 69
3, 36160, Note_on_c, 1, 34, 29
3, 36172, Note_on_c, 1, 34, 0
3, 36177, Note_on_c, 1, 37, 0
3, 36182, Note_on_c, 1, 38, 62
3, 36297, Note_on_c, 1, 30, 76
3, 36304, Note_on_c, 1, 38, 0
3, 36411, Note_on_c, 1, 30, 0
3, 36417, Note_on_c, 1, 31, 58
3, 36508, Note_on_c, 1, 30, 56
3, 36526, Note_on_c, 1, 30, 0
3, 36541, Note_on_c, 1, 31, 0
3, 36543, Note_on_c, 1, 45, 91
3, 36655, Note_on_c, 1, 45, 0
3, 36657, Note_on_c, 1, 43, 50
3, 36778, Note_on_c, 1, 33, 62
3, 36848, Note_on_c, 1, 33, 0
3, 36860, Note_on_c, 1, 43, 0
3, 36863, Note_on_c, 1, 38, 34
3, 36870, Note_on_c, 1, 33, 51
3, 36882, Note_on_c, 1, 38, 0
3, 36893, Note_on_c, 1, 33, 0
3, 36895, Note_on_c, 1, 44, 71
3, 36994, Note_on_c, 1, 44, 0
3, 37016, Note_on_c, 1, 44, 56
3, 37124, Note_on_c, 1, 44, 0
3, 37135, Note_on_c, 1, 47, 57
3, 37222, Note_on_c, 1, 39, 57
3, 37239, Note_on_c, 1, 47, 0
3, 37248, Note_on_c, 1, 39, 0
3, 37261, Note_on_c, 1, 40, 45
3, 37358, Note_on_c, 1, 39, 27
3, 37372, Note_on_c, 1, 39, 0
3, 37376, Note_on_c, 1, 40, 0
3, 37376, Note_on_c, 1, 41, 45
3, 37482, Note_on_c, 1, 39, 35
3, 37497, Note_on_c, 1, 41, 0
3, 37510, Note_on_c, 1, 44, 53
3, 37515, Note_on_c, 1, 39, 0
3, 37607, Note_on_c, 1, 41, 36
3, 37626, Note_on_c, 1, 44, 0
3, 37638, Note_on_c, 1, 41, 0
3, 37641, Note_on_c, 1, 53, 57
3, 37725, Note_on_c, 1, 41, 34
3, 37744, Note_on_c, 1, 53, 0
3, 37749, Note_on_c, 1, 41, 0
3, 37762, Note_on_c, 1, 44, 43
3, 37845, Note_on_c, 1, 41, 37
3, 37863, Note_on_c, 1, 44, 0
3, 37875, Note_on_c, 1, 41, 0
3, 37881, Note_on_c, 1, 53, 74
3, 37969, Note_on_c, 1, 41, 39
3, 37987, Note_on_c, 1, 41, 0
3, 37988, Note_on_c, 1, 53, 0
3, 38004, Note_on_c, 1, 51, 55
3, 38078, Note_on_c, 1, 41, 39
3, 38101, Note_on_c, 1, 41, 0
3, 38108, Note_on_c, 1, 51, 0
3, 38121, Note_on_c, 1, 44, 60
3, 38202, Note_on_c, 1, 34, 65
3, 38207, Note_on_c, 1, 44, 0
3, 38232, Note_on_c, 1, 34, 0
3, 38241, Note_on_c, 1, 35, 57
3, 38325, Note_on_c, 1, 34, 38
3, 38348, Note_on_c, 1, 35, 0
3, 38349, Note_on_c, 1, 34, 0
3, 38355, Note_on_c, 1, 36, 44
3, 38440, Note_on_c, 1, 34, 38
3, 38457, Note_on_c, 1, 36, 0
3, 38472, Note_on_c, 1, 34, 0
3, 38472, Note_on_c, 1, 43, 47
3, 38564, Note_on_c, 1, 36, 49
3, 38580, Note_on_c, 1, 43, 0
3, 38586, Note_on_c, 1, 36, 0
3, 38596, Note_on_c, 1, 50, 62
3, 38687, Note_on_c, 1, 36, 39
3, 38701, Note_on_c, 1, 50, 0
3, 38705, Note_on_c, 1, 36, 0
3, 38713, Note_on_c, 1, 51, 60
3, 38818, Note_on_c, 1, 51, 0
3, 38830, Note_on_c, 1, 53, 68
3, 38917, Note_on_c, 1, 43, 27
3, 38935, Note_on_c, 1, 43, 0
3, 38948, Note_on_c, 1, 50, 67
3, 38969, Note_on_c, 1, 53, 0
3, 39024, Note_on_c, 1, 43, 26
3, 39037, Note_on_c, 1, 43, 0
3, 39058, Note_on_c, 1, 50, 0
3, 39070, Note_on_c, 1, 51, 64
3, 39156, Note_on_c, 1, 44, 46
3, 39173, Note_on_c, 1, 51, 0
3, 39178, Note_on_c, 1, 44, 0
3, 39191, Note_on_c, 1, 46, 55
3, 39284, Note_on_c, 1, 44, 27
3, 39300, Note_on_c, 1, 46, 0
3, 39302, Note_on_c, 1, 44, 0
3, 39310, Note_on_c, 1, 45, 56
3, 39399, Note_on_c, 1, 39, 32
3, 39432, Note_on_c, 1, 45, 0
3, 39432, Note_on_c, 1, 51, 80
3, 39433, Note_on_c, 1, 39, 0
3, 39506, Note_on_c, 1, 39, 36
3, 39528, Note_on_c, 1, 39, 0
3, 39553, Note_on_c, 1, 50, 65
3, 39570, Note_on_c, 1, 51, 0
3, 39638, Note_on_c, 1, 36, 41
3, 39645, Note_on_c, 1, 50, 0
3, 39661, Note_on_c, 1, 36, 0
3, 39668, Note_on_c, 1, 37, 53
3, 39764, Note_on_c, 1, 34, 26
3, 39789, Note_on_c, 1, 34, 0
3, 39790, Note_on_c, 1, 37, 0
3, 39792, Note_on_c, 1, 38, 52
3, 39920, Note_on_c, 1, 50, 105
3, 40010, Note_on_c, 1, 37, 38
3, 40019, Note_on_c, 1, 50, 0
3, 40023, Note_on_c, 1, 38, 0
3, 40030, Note_on_c, 1, 37, 0
3, 40035, Note_on_c, 1, 50, 87
3, 40123, Note_on_c, 1, 41, 44
3, 40128, Note_on_c, 1, 50, 0
3, 40149, Note_on_c, 1, 41, 0
3, 40159, Note_on_c, 1, 42, 61
3, 40243, Note_on_c, 1, 39, 36
3, 40272, Note_on_c, 1, 39, 0
3, 40272, Note_on_c, 1, 42, 0
3, 40275, Note_on_c, 1, 43, 43
3, 40361, Note_on_c, 1, 42, 37
3, 40381, Note_on_c, 1, 42, 0
3, 40390, Note_on_c, 1, 55, 94
3, 40481, Note_on_c, 1, 55, 0
3, 40481, Note_on_c, 1, 54, 51
3, 40507, Note_on_c, 1, 54, 0
3, 40510, Note_on_c, 1, 55, 54
3, 40589, Note_on_c, 1, 38, 54
3, 40607, Note_on_c, 1, 38, 0
3, 40612, Note_on_c, 1, 55, 0
3, 40629, Note_on_c, 1, 31, 57
3, 40785, Note_on_c, 1, 43, 0
3, 40875, Note_on_c, 1, 43, 77
3, 40888, Note_on_c, 1, 31, 0
3, 41084, Note_on_c, 1, 42, 46
3, 41086, Note_on_c, 1, 43, 0
3, 41114, Note_on_c, 1, 42, 0
3, 41121, Note_on_c, 1, 43, 60
3, 41199, Note_on_c, 1, 31, 77
3, 41221, Note_on_c, 1, 43, 0
3, 41442, Note_on_c, 1, 31, 0
3, 41444, Note_on_c, 1, 43, 77
3, 41565, Note_on_c, 1, 43, 0
3, 41566, Note_on_c, 1, 42, 45
3, 41591, Note_on_c, 1, 42, 0
3, 41601, Note_on_c, 1, 43, 80
3, 41808, Note_on_c, 1, 31, 75
3, 41830, Note_on_c, 1, 43, 0
3, 42048, Note_on_c, 1, 43, 58
3, 42063, Note_on_c, 1, 31, 0
3, 42078, Note_on_c, 1, 43, 0
3, 42084, Note_on_c, 1, 54, 83
3, 42174, Note_on_c, 1, 42, 20
3, 42183, Note_on_c, 1, 42, 0
3, 42186, Note_on_c, 1, 54, 0
3, 42201, Note_on_c, 1, 53, 66
3, 42274, Note_on_c, 1, 41, 48
3, 42277, Note_on_c, 1, 53, 0
3, 42307, Note_on_c, 1, 41, 0
3, 42317, Note_on_c, 1, 29, 64
3, 42647, Note_on_c, 1, 29, 0
3, 42650, Note_on_c, 1, 41, 85
3, 43012, Note_on_c, 1, 36, 45
3, 43024, Note_on_c, 1, 41, 0
3, 43033, Note_on_c, 1, 36, 0
3, 43040, Note_on_c, 1, 42, 67
3, 43118, Note_on_c, 1, 36, 35
3, 43133, Note_on_c, 1, 36, 0
3, 43149, Note_on_c, 1, 42, 0
3, 43161, Note_on_c, 1, 41, 60
3, 43244, Note_on_c, 1, 41, 0
3, 43247, Note_on_c, 1, 29, 71
3, 43749, Note_on_c, 1, 36, 39
3, 43763, Note_on_c, 1, 36, 0
3, 43763, Note_on_c, 1, 29, 0
3, 43771, Note_on_c, 1, 40, 51
3, 43981, Note_on_c, 1, 45, 88
3, 44023, Note_on_c, 1, 40, 0
3, 44094, Note_on_c, 1, 38, 50
3, 44102, Note_on_c, 1, 45, 0
3, 44120, Note_on_c, 1, 38, 0
3, 44134, Note_on_c, 1, 39, 62
3, 44335, Note_on_c, 1, 42, 36
3, 44354, Note_on_c, 1, 42, 0
3, 44372, Note_on_c, 1, 46, 59
3, 44382, Note_on_c, 1, 39, 0
3, 44582, Note_on_c, 1, 43, 43
3, 44598, Note_on_c, 1, 46, 0
3, 44601, Note_on_c, 1, 43, 0
3, 44618, Note_on_c, 1, 50, 55
3, 44814, Note_on_c, 1, 45, 62
3, 44840, Note_on_c, 1, 50, 0
3, 44843, Note_on_c, 1, 45, 0
3, 44858, Note_on_c, 1, 38, 63
3, 45053, Note_on_c, 1, 43, 24
3, 45064, Note_on_c, 1, 43, 0
3, 45091, Note_on_c, 1, 47, 95
3, 45097, Note_on_c, 1, 38, 0
3, 45327, Note_on_c, 1, 47, 0
3, 45327, Note_on_c, 1, 42, 55
3, 45518, Note_on_c, 1, 35, 49
3, 45520, Note_on_c, 1, 42, 0
3, 45556, Note_on_c, 1, 35, 0
3, 45561, Note_on_c, 1, 40, 64
3, 45792, Note_on_c, 1, 40, 0
3, 45797, Note_on_c, 1, 38, 80
3, 46030, Note_on_c, 1, 38, 0
3, 46039, Note_on_c, 1, 37, 77
3, 46477, Note_on_c, 1, 37, 0
3, 46483, Note_on_c, 1, 41, 41
3, 46507, Note_on_c, 1, 41, 0
3, 46520, Note_on_c, 1, 42, 64
3, 46708, Note_on_c, 1, 42, 0
3, 46727, Note_on_c, 1, 42, 62
3, 46987, Note_on_c, 1, 42, 0
3, 46994, Note_on_c, 1, 40, 60
3, 47247, Note_on_c, 1, 52, 58
3, 47271, Note_on_c, 1, 52, 0
3, 47278, Note_on_c, 1, 51, 51
3, 47307, Note_on_c, 1, 51, 0
3, 47318, Note_on_c, 1, 52, 56
3, 47465, Note_on_c, 1, 40, 0
3, 47489, Note_on_c, 1, 40, 70
3, 47500, Note_on_c, 1, 52, 0
3, 47848, Note_on_c, 1, 52, 95
3, 48075, Note_on_c, 1, 40, 0
3, 48151, Note_on_c, 1, 40, 58
3, 48174, Note_on_c, 1, 40, 0
3, 48202, Note_on_c, 1, 40, 63
3, 48218, Note_on_c, 1, 52, 0
3, 48527, Note_on_c, 1, 52, 89
3, 48543, Note_on_c, 1, 40, 0
3, 48775, Note_on_c, 1, 40, 52
3, 48798, Note_on_c, 1, 40, 0
3, 48816, Note_on_c, 1, 40, 52
3, 48925, Note_on_c, 1, 40, 0
3, 48937, Note_on_c, 1, 39, 64
3, 48938, Note_on_c, 1, 52, 0
3, 49267, Note_on_c, 1, 46, 38
3, 49284, Note_on_c, 1, 46, 0
3, 49292, Note_on_c, 1, 39, 0
3, 49302, Note_on_c, 1, 50, 64
3, 49408, Note_on_c, 1, 50, 0
3, 49424, Note_on_c, 1, 51, 62
3, 49530, Note_on_c, 1, 51, 0
3, 49536, Note_on_c, 1, 39, 65
3, 49696, Note_on_c, 1, 39, 0
3, 49748, Note_on_c, 1, 39, 74
3, 49871, Note_on_c, 1, 39, 0
3, 49903, Note_on_c, 1, 39, 83
3, 50222, Note_on_c, 1, 51, 83
3, 50247, Note_on_c, 1, 39, 0
3, 50330, Note_on_c, 1, 39, 52
3, 50351, Note_on_c, 1, 39, 0
3, 50355, Note_on_c, 1, 51, 0
3, 50366, Note_on_c, 1, 50, 69
3, 50425, Note_on_c, 1, 50, 0
3, 50452, Note_on_c, 1, 44, 62
3, 50475, Note_on_c, 1, 44, 0
3, 50497, Note_on_c, 1, 42, 57
3, 50611, Note_on_c, 1, 42, 0
3, 50620, Note_on_c, 1, 43, 56
3, 50812, Note_on_c, 1, 38, 53
3, 50817, Note_on_c, 1, 43, 0
3, 50824, Note_on_c, 1, 38, 0
3, 50852, Note_on_c, 1, 36, 77
3, 50883, Note_on_c, 1, 36, 74
3, 50952, Note_on_c, 1, 36, 0
3, 51200, Note_on_c, 1, 33, 24
3, 51219, Note_on_c, 1, 43, 40
3, 51220, Note_on_c, 1, 33, 0
3, 51222, Note_on_c, 1, 36, 0
3, 51416, Note_on_c, 1, 43, 0
3, 51420, Note_on_c, 1, 44, 42
3, 51537, Note_on_c, 1, 39, 59
3, 51543, Note_on_c, 1, 44, 0
3, 51565, Note_on_c, 1, 39, 0
3, 51574, Note_on_c, 1, 32, 50
3, 51738, Note_on_c, 1, 32, 0
3, 51766, Note_on_c, 1, 35, 53
3, 51800, Note_on_c, 1, 35, 0
3, 51811, Note_on_c, 1, 36, 69
3, 52039, Note_on_c, 1, 45, 60
3, 52048, Note_on_c, 1, 36, 0
3, 52254, Note_on_c, 1, 45, 0
3, 52272, Note_on_c, 1, 45, 31
3, 52498, Note_on_c, 1, 45, 0
3, 52514, Note_on_c, 1, 38, 53
3, 52755, Note_on_c, 1, 38, 0
3, 52757, Note_on_c, 1, 43, 37
3, 52891, Note_on_c, 1, 50, 83
3, 53147, Note_on_c, 1, 43, 0
3, 53217, Note_on_c, 1, 43, 43
3, 53229, Note_on_c, 1, 50, 0
3, 53260, Note_on_c, 1, 44, 56
3, 53268, Note_on_c, 1, 43, 0
3, 53493, Note_on_c, 1, 44, 0
3, 53502, Note_on_c, 1, 39, 69
3, 53733, Note_on_c, 1, 39, 0
3, 53737, Note_on_c, 1, 41, 58
3, 53946, Note_on_c, 1, 36, 55
3, 53964, Note_on_c, 1, 41, 0
3, 53971, Note_on_c, 1, 36, 0
3, 53982, Note_on_c, 1, 29, 57
3, 54215, Note_on_c, 1, 29, 0
3, 54223, Note_on_c, 1, 36, 73
3, 54426, Note_on_c, 1, 34, 30
3, 54455, Note_on_c, 1, 34, 0
3, 54455, Note_on_c, 1, 36, 0
3, 54461, Note_on_c, 1, 41, 56
3, 54654, Note_on_c, 1, 37, 28
3, 54672, Note_on_c, 1, 50, 96
3, 54680, Note_on_c, 1, 41, 0
3, 54687, Note_on_c, 1, 37, 0
3, 54709, Note_on_c, 1, 50, 0
3, 54722, Note_on_c, 1, 48, 88
3, 54942, Note_on_c, 1, 48, 0
3, 54946, Note_on_c, 1, 43, 58
3, 55143, Note_on_c, 1, 38, 58
3, 55147, Note_on_c, 1, 43, 0
3, 55170, Note_on_c, 1, 38, 0
3, 55189, Note_on_c, 1, 36, 69
3, 55420, Note_on_c, 1, 43, 61
3, 55438, Note_on_c, 1, 36, 0
3, 55657, Note_on_c, 1, 43, 0
3, 55669, Note_on_c, 1, 45, 58
3, 55699, Note_on_c, 1, 45, 0
3, 55752, Note_on_c, 1, 50, 66
3, 55773, Note_on_c, 1, 50, 0
3, 55795, Note_on_c, 1, 38, 66
3, 56003, Note_on_c, 1, 50, 75
3, 56019, Note_on_c, 1, 38, 0
3, 56024, Note_on_c, 1, 50, 0
3, 56048, Note_on_c, 1, 38, 73
3, 56351, Note_on_c, 1, 50, 82
3, 56356, Note_on_c, 1, 38, 0
3, 56373, Note_on_c, 1, 50, 0
3, 56391, Note_on_c, 1, 38, 78
3, 56573, Note_on_c, 1, 38, 0
3, 56588, Note_on_c, 1, 38, 58
3, 56609, Note_on_c, 1, 38, 0
3, 56623, Note_on_c, 1, 43, 74
3, 56661, Note_on_c, 1, 43, 0
3, 56707, Note_on_c, 1, 43, 56
3, 56727, Note_on_c, 1, 43, 0
3, 56749, Note_on_c, 1, 31, 63
3, 56877, Note_on_c, 1, 31, 0
3, 56877, Note_on_c, 1, 43, 34
3, 56901, Note_on_c, 1, 43, 0
3, 56954, Note_on_c, 1, 43, 60
3, 56972, Note_on_c, 1, 43, 0
3, 56988, Note_on_c, 1, 31, 69
3, 57303, Note_on_c, 1, 38, 36
3, 57332, Note_on_c, 1, 31, 0
3, 57334, Note_on_c, 1, 38, 0
3, 57340, Note_on_c, 1, 43, 66
3, 57359, Note_on_c, 1, 43, 0
3, 57428, Note_on_c, 1, 43, 63
3, 57441, Note_on_c, 1, 43, 0
3, 57468, Note_on_c, 1, 31, 66
3, 57791, Note_on_c, 1, 38, 59
3, 57810, Note_on_c, 1, 31, 0
3, 57812, Note_on_c, 1, 38, 0
3, 57829, Note_on_c, 1, 43, 64
3, 57843, Note_on_c, 1, 43, 0
3, 57906, Note_on_c, 1, 43, 71
3, 57925, Note_on_c, 1, 43, 0
3, 57948, Note_on_c, 1, 31, 68
3, 58300, Note_on_c, 1, 43, 67
3, 58302, Note_on_c, 1, 31, 0
3, 58318, Note_on_c, 1, 43, 0
3, 58382, Note_on_c, 1, 43, 60
3, 58393, Note_on_c, 1, 43, 0
3, 58420, Note_on_c, 1, 31, 64
3, 58519, Note_on_c, 1, 36, 44
3, 58529, Note_on_c, 1, 36, 0
3, 58536, Note_on_c, 1, 31, 0
3, 58548, Note_on_c, 1, 41, 74
3, 58569, Note_on_c, 1, 41, 0
3, 58622, Note_on_c, 1, 41, 74
3, 58641, Note_on_c, 1, 41, 0
3, 58666, Note_on_c, 1, 29, 66
3, 59137, Note_on_c, 1, 41, 92
3, 59292, Note_on_c, 1, 41, 0
3, 59343, Note_on_c, 1, 41, 85
3, 59435, Note_on_c, 1, 29, 0
3, 59467, Note_on_c, 1, 29, 51
3, 59487, Note_on_c, 1, 29, 0
3, 59495, Note_on_c, 1, 41, 0
3, 59507, Note_on_c, 1, 29, 65
3, 59814, Note_on_c, 1, 41, 89
3, 59830, Note_on_c, 1, 29, 0
3, 59912, Note_on_c, 1, 29, 47
3, 59924, Note_on_c, 1, 41, 0
3, 59955, Note_on_c, 1, 29, 0
3, 59960, Note_on_c, 1, 40, 74
3, 60198, Note_on_c, 1, 40, 0
3, 60204, Note_on_c, 1, 33, 60
3, 60444, Note_on_c, 1, 39, 63
3, 60446, Note_on_c, 1, 33, 0
3, 60671, Note_on_c, 1, 39, 0
3, 60692, Note_on_c, 1, 39, 62
3, 60910, Note_on_c, 1, 34, 43
3, 60932, Note_on_c, 1, 39, 0
3, 60941, Note_on_c, 1, 34, 0
3, 60947, Note_on_c, 1, 45, 83
3, 61143, Note_on_c, 1, 37, 49
3, 61161, Note_on_c, 1, 45, 0
3, 61178, Note_on_c, 1, 37, 0
3, 61181, Note_on_c, 1, 38, 64
3, 61385, Note_on_c, 1, 37, 52
3, 61409, Note_on_c, 1, 38, 0
3, 61419, Note_on_c, 1, 47, 85
3, 61423, Note_on_c, 1, 37, 0
3, 61618, Note_on_c, 1, 38, 29
3, 61644, Note_on_c, 1, 38, 0
3, 61661, Note_on_c, 1, 47, 0
3, 61663, Note_on_c, 1, 42, 64
3, 61671, Note_on_c, 1, 44, 30
3, 61681, Note_on_c, 1, 44, 0
3, 61859, Note_on_c, 1, 38, 61
3, 61870, Note_on_c, 1, 38, 0
3, 61902, Note_on_c, 1, 40, 66
3, 61904, Note_on_c, 1, 42, 0
3, 62110, Note_on_c, 1, 37, 43
3, 62131, Note_on_c, 1, 40, 0
3, 62141, Note_on_c, 1, 37, 0
3, 62141, Note_on_c, 1, 38, 70
3, 62372, Note_on_c, 1, 38, 0
3, 62376, Note_on_c, 1, 37, 78
3, 62555, Note_on_c, 1, 37, 0
3, 62584, Note_on_c, 1, 37, 83
3, 62854, Note_on_c, 1, 37, 0
3, 62860, Note_on_c, 1, 42, 70
3, 63003, Note_on_c, 1, 42, 0
3, 63070, Note_on_c, 1, 42, 71
3, 63332, Note_on_c, 1, 42, 0
3, 63348, Note_on_c, 1, 40, 55
3, 63680, Note_on_c, 1, 52, 79
3, 63785, Note_on_c, 1, 40, 0
3, 63837, Note_on_c, 1, 40, 77
3, 63846, Note_on_c, 1, 52, 0
3, 64127, Note_on_c, 1, 52, 54
3, 64154, Note_on_c, 1, 52, 0
3, 64157, Note_on_c, 1, 51, 59
3, 64187, Note_on_c, 1, 51, 0
3, 64204, Note_on_c, 1, 52, 65
3, 64250, Note_on_c, 1, 40, 0
3, 64323, Note_on_c, 1, 52, 0
3, 64327, Note_on_c, 1, 40, 62
3, 64479, Note_on_c, 1, 40, 0
3, 64526, Note_on_c, 1, 40, 60
3, 64599, Note_on_c, 1, 40, 0
3, 64689, Note_on_c, 1, 40, 64
3, 64996, Note_on_c, 1, 52, 73
3, 65065, Note_on_c, 1, 40, 0
3, 65154, Note_on_c, 1, 40, 41
3, 65181, Note_on_c, 1, 40, 0
3, 65239, Note_on_c, 1, 52, 0
3, 65239, Note_on_c, 1, 40, 62
3, 65617, Note_on_c, 1, 52, 68
3, 65623, Note_on_c, 1, 40, 0
3, 65926, Note_on_c, 1, 40, 35
3, 65959, Note_on_c, 1, 40, 0
3, 66047, Note_on_c, 1, 40, 30
3, 66071, Note_on_c, 1, 40, 0
3, 66096, Note_on_c, 1, 40, 38
3, 66209, Note_on_c, 1, 52, 0
3, 66446, Note_on_c, 1, 52, 37
3, 66544, Note_on_c, 1, 40, 0
3, 66657, Note_on_c, 1, 40, 39
3, 66768, Note_on_c, 1, 52, 0
3, 67061, Note_on_c, 1, 52, 28
3, 67074, Note_on_c, 1, 40, 0
3, 67162, Note_on_c, 1, 52, 0
3, 67165, Note_on_c, 1, 40, 41
3, 68177, Note_on_c, 1, 40, 0
3, 68177, End_track
4, 0, Start_track
4, 0, Title_t, "Drums"
4, 0, Program_c, 9, 32
4, 0, Control_c, 9, 7, 84
4, 2, Note_on_c, 9, 59, 56
4, 27, Note_on_c, 9, 59, 0
4, 197, Note_on_c, 9, 59, 68
4, 214, Note_on_c, 9, 59, 0
4, 237, Note_on_c, 9, 59, 49
4, 254, Note_on_c, 9, 59, 0
4, 402, Note_on_c, 9, 59, 64
4, 420, Note_on_c, 9, 59, 0
4, 435, Note_on_c, 9, 59, 80
4, 451, Note_on_c, 9, 59, 0
4, 475, Note_on_c, 9, 59, 83
4, 527, Note_on_c, 9, 59, 0
4, 671, Note_on_c, 9, 59, 67
4, 679, Note_on_c, 9, 59, 0
4, 713, Note_on_c, 9, 59, 66
4, 720, Note_on_c, 9, 59, 0
4, 799, Note_on_c, 9, 59, 110
4, 808, Note_on_c, 9, 59, 0
4, 1014, Note_on_c, 9, 59, 41
4, 1024, Note_on_c, 9, 59, 0
4, 1052, Note_on_c, 9, 59, 35
4, 1060, Note_on_c, 9, 59, 0
4, 1092, Note_on_c, 9, 59, 80
4, 1212, Note_on_c, 9, 59, 0
4, 1405, Note_on_c, 9, 59, 81
4, 1419, Note_on_c, 9, 59, 0
4, 1442, Note_on_c, 9, 59, 74
4, 1450, Note_on_c, 9, 59, 0
4, 1526, Note_on_c, 9, 59, 78
4, 1534, Note_on_c, 9, 59, 0
4, 1570, Note_on_c, 9, 59, 75
4, 1575, Note_on_c, 9, 59, 0
4, 1646, Note_on_c, 9, 59, 74
4, 1656, Note_on_c, 9, 59, 0
4, 1681, Note_on_c, 9, 59, 76
4, 1688, Note_on_c, 9, 59, 0
4, 1765, Note_on_c, 9, 59, 61
4, 1774, Note_on_c, 9, 59, 0
4, 1803, Note_on_c, 9, 59, 68
4, 1809, Note_on_c, 9, 59, 0
4, 1868, Note_on_c, 9, 57, 25
4, 1875, Note_on_c, 9, 57, 0
4, 1993, Note_on_c, 9, 59, 54
4, 1999, Note_on_c, 9, 59, 0
4, 2031, Note_on_c, 9, 59, 53
4, 2038, Note_on_c, 9, 59, 0
4, 2113, Note_on_c, 9, 59, 99
4, 2124, Note_on_c, 9, 59, 0
4, 2441, Note_on_c, 9, 59, 53
4, 2450, Note_on_c, 9, 59, 0
4, 2484, Note_on_c, 9, 59, 45
4, 2491, Note_on_c, 9, 59, 0
4, 2517, Note_on_c, 9, 53, 50
4, 2531, Note_on_c, 9, 53, 0
4, 2639, Note_on_c, 9, 59, 45
4, 2651, Note_on_c, 9, 59, 0
4, 2677, Note_on_c, 9, 59, 60
4, 2686, Note_on_c, 9, 59, 0
4, 2720, Note_on_c, 9, 53, 71
4, 2738, Note_on_c, 9, 53, 0
4, 2798, Note_on_c, 9, 59, 46
4, 2807, Note_on_c, 9, 59, 0
4, 2840, Note_on_c, 9, 59, 45
4, 2848, Note_on_c, 9, 59, 0
4, 2885, Note_on_c, 9, 59, 95
4, 2938, Note_on_c, 9, 59, 0
4, 3096, Note_on_c, 9, 59, 62
4, 3106, Note_on_c, 9, 59, 0
4, 3138, Note_on_c, 9, 59, 75
4, 3152, Note_on_c, 9, 59, 0
4, 3327, Note_on_c, 9, 59, 60
4, 3335, Note_on_c, 9, 59, 0
4, 3365, Note_on_c, 9, 59, 72
4, 3383, Note_on_c, 9, 59, 0
4, 3572, Note_on_c, 9, 59, 48
4, 3581, Note_on_c, 9, 59, 0
4, 3603, Note_on_c, 9, 59, 60
4, 3612, Note_on_c, 9, 59, 0
4, 3809, Note_on_c, 9, 59, 54
4, 3816, Note_on_c, 9, 59, 0
4, 3847, Note_on_c, 9, 59, 62
4, 3859, Note_on_c, 9, 59, 0
4, 4043, Note_on_c, 9, 59, 46
4, 4058, Note_on_c, 9, 59, 0
4, 4081, Note_on_c, 9, 59, 42
4, 4093, Note_on_c, 9, 59, 0
4, 4159, Note_on_c, 9, 53, 57
4, 4166, Note_on_c, 9, 53, 0
4, 4200, Note_on_c, 9, 53, 35
4, 4209, Note_on_c, 9, 53, 0
4, 4281, Note_on_c, 9, 59, 71
4, 4294, Note_on_c, 9, 59, 0
4, 4320, Note_on_c, 9, 59, 58
4, 4337, Note_on_c, 9, 59, 0
4, 4405, Note_on_c, 9, 53, 54
4, 4412, Note_on_c, 9, 53, 0
4, 4537, Note_on_c, 9, 59, 46
4, 4546, Note_on_c, 9, 59, 0
4, 4577, Note_on_c, 9, 59, 72
4, 4587, Note_on_c, 9, 59, 0
4, 4618, Note_on_c, 9, 53, 72
4, 4632, Note_on_c, 9, 53, 0
4, 4701, Note_on_c, 9, 59, 40
4, 4710, Note_on_c, 9, 59, 0
4, 4732, Note_on_c, 9, 59, 66
4, 4743, Note_on_c, 9, 59, 0
4, 4764, Note_on_c, 9, 53, 79
4, 4786, Note_on_c, 9, 53, 0
4, 4846, Note_on_c, 9, 59, 51
4, 4854, Note_on_c, 9, 59, 0
4, 4882, Note_on_c, 9, 59, 51
4, 4887, Note_on_c, 9, 59, 0
4, 4919, Note_on_c, 9, 53, 65
4, 4934, Note_on_c, 9, 53, 0
4, 5126, Note_on_c, 9, 59, 36
4, 5138, Note_on_c, 9, 59, 0
4, 5163, Note_on_c, 9, 59, 57
4, 5173, Note_on_c, 9, 59, 0
4, 5238, Note_on_c, 9, 59, 108
4, 5256, Note_on_c, 9, 59, 0
4, 5359, Note_on_c, 9, 59, 43
4, 5375, Note_on_c, 9, 59, 0
4, 5410, Note_on_c, 9, 59, 34
4, 5419, Note_on_c, 9, 59, 0
4, 5480, Note_on_c, 9, 59, 99
4, 5497, Note_on_c, 9, 59, 0
4, 5524, Note_on_c, 9, 59, 95
4, 5561, Note_on_c, 9, 59, 0
4, 5603, Note_on_c, 9, 59, 44
4, 5611, Note_on_c, 9, 59, 0
4, 5719, Note_on_c, 9, 59, 96
4, 5743, Note_on_c, 9, 59, 0
4, 5762, Note_on_c, 9, 59, 90
4, 5814, Note_on_c, 9, 59, 0
4, 5968, Note_on_c, 9, 59, 31
4, 5977, Note_on_c, 9, 59, 0
4, 6010, Note_on_c, 9, 59, 41
4, 6021, Note_on_c, 9, 59, 0
4, 6082, Note_on_c, 9, 59, 95
4, 6095, Note_on_c, 9, 59, 0
4, 6119, Note_on_c, 9, 59, 85
4, 6181, Note_on_c, 9, 59, 0
4, 6443, Note_on_c, 9, 59, 63
4, 6452, Note_on_c, 9, 59, 0
4, 6486, Note_on_c, 9, 59, 54
4, 6499, Note_on_c, 9, 59, 0
4, 6675, Note_on_c, 9, 59, 54
4, 6683, Note_on_c, 9, 59, 0
4, 6920, Note_on_c, 9, 59, 54
4, 6929, Note_on_c, 9, 59, 0
4, 6960, Note_on_c, 9, 59, 56
4, 6980, Note_on_c, 9, 59, 0
4, 7158, Note_on_c, 9, 59, 54
4, 7167, Note_on_c, 9, 59, 0
4, 7203, Note_on_c, 9, 59, 47
4, 7222, Note_on_c, 9, 59, 0
4, 7397, Note_on_c, 9, 59, 50
4, 7408, Note_on_c, 9, 59, 0
4, 7436, Note_on_c, 9, 59, 40
4, 7460, Note_on_c, 9, 59, 0
4, 7636, Note_on_c, 9, 59, 63
4, 7642, Note_on_c, 9, 59, 0
4, 7672, Note_on_c, 9, 51, 71
4, 7694, Note_on_c, 9, 51, 0
4, 7882, Note_on_c, 9, 51, 97
4, 7918, Note_on_c, 9, 51, 0
4, 8136, Note_on_c, 9, 51, 48
4, 8143, Note_on_c, 9, 51, 0
4, 8178, Note_on_c, 9, 51, 36
4, 8192, Note_on_c, 9, 51, 0
4, 8209, Note_on_c, 9, 51, 71
4, 8220, Note_on_c, 9, 51, 0
4, 8291, Note_on_c, 9, 51, 88
4, 8445, Note_on_c, 9, 51, 0
4, 8490, Note_on_c, 9, 51, 60
4, 8500, Note_on_c, 9, 51, 0
4, 8525, Note_on_c, 9, 51, 84
4, 8540, Note_on_c, 9, 51, 0
4, 8564, Note_on_c, 9, 51, 98
4, 8579, Note_on_c, 9, 51, 0
4, 8641, Note_on_c, 9, 51, 95
4, 8707, Note_on_c, 9, 51, 0
4, 8759, Note_on_c, 9, 51, 94
4, 8873, Note_on_c, 9, 51, 0
4, 8963, Note_on_c, 9, 51, 67
4, 8980, Note_on_c, 9, 51, 0
4, 9001, Note_on_c, 9, 51, 74
4, 9060, Note_on_c, 9, 51, 0
4, 9235, Note_on_c, 9, 51, 52
4, 9252, Note_on_c, 9, 51, 0
4, 9322, Note_on_c, 9, 51, 99
4, 9342, Note_on_c, 9, 51, 0
4, 9361, Note_on_c, 9, 51, 76
4, 9401, Note_on_c, 9, 51, 0
4, 9560, Note_on_c, 9, 51, 75
4, 9578, Note_on_c, 9, 51, 0
4, 9596, Note_on_c, 9, 51, 74
4, 9654, Note_on_c, 9, 51, 0
4, 9718, Note_on_c, 9, 51, 86
4, 9864, Note_on_c, 9, 51, 0
4, 9916, Note_on_c, 9, 51, 52
4, 9929, Note_on_c, 9, 51, 0
4, 9953, Note_on_c, 9, 51, 93
4, 10071, Note_on_c, 9, 51, 0
4, 10187, Note_on_c, 9, 51, 90
4, 10231, Note_on_c, 9, 51, 0
4, 10309, Note_on_c, 9, 51, 86
4, 10350, Note_on_c, 9, 51, 0
4, 10428, Note_on_c, 9, 51, 85
4, 10462, Note_on_c, 9, 51, 0
4, 10756, Note_on_c, 9, 51, 59
4, 10770, Note_on_c, 9, 51, 0
4, 10792, Note_on_c, 9, 51, 76
4, 10832, Note_on_c, 9, 51, 0
4, 10994, Note_on_c, 9, 51, 62
4, 11003, Note_on_c, 9, 51, 0
4, 11030, Note_on_c, 9, 51, 67
4, 11047, Note_on_c, 9, 51, 0
4, 11277, Note_on_c, 9, 51, 75
4, 11290, Note_on_c, 9, 51, 0
4, 11489, Note_on_c, 9, 51, 64
4, 11503, Note_on_c, 9, 51, 0
4, 11528, Note_on_c, 9, 51, 58
4, 11545, Note_on_c, 9, 51, 0
4, 11606, Note_on_c, 9, 53, 78
4, 11619, Note_on_c, 9, 53, 0
4, 11651, Note_on_c, 9, 51, 31
4, 11660, Note_on_c, 9, 51, 0
4, 11729, Note_on_c, 9, 51, 62
4, 11738, Note_on_c, 9, 51, 0
4, 11773, Note_on_c, 9, 51, 49
4, 11786, Note_on_c, 9, 51, 0
4, 11854, Note_on_c, 9, 51, 53
4, 11862, Note_on_c, 9, 51, 0
4, 11893, Note_on_c, 9, 51, 97
4, 11952, Note_on_c, 9, 51, 0
4, 12052, Note_on_c, 9, 51, 55
4, 12061, Note_on_c, 9, 51, 0
4, 12090, Note_on_c, 9, 51, 88
4, 12139, Note_on_c, 9, 51, 0
4, 12209, Note_on_c, 9, 51, 70
4, 12228, Note_on_c, 9, 51, 0
4, 12245, Note_on_c, 9, 51, 69
4, 12259, Note_on_c, 9, 51, 0
4, 12442, Note_on_c, 9, 51, 43
4, 12455, Note_on_c, 9, 51, 0
4, 12481, Note_on_c, 9, 51, 74
4, 12515, Note_on_c, 9, 51, 0
4, 12680, Note_on_c, 9, 51, 93
4, 12707, Note_on_c, 9, 51, 0
4, 12800, Note_on_c, 9, 51, 70
4, 12810, Note_on_c, 9, 51, 0
4, 12836, Note_on_c, 9, 51, 94
4, 12896, Note_on_c, 9, 51, 0
4, 13029, Note_on_c, 9, 51, 47
4, 13037, Note_on_c, 9, 51, 0
4, 13068, Note_on_c, 9, 51, 82
4, 13127, Note_on_c, 9, 51, 0
4, 13188, Note_on_c, 9, 51, 87
4, 13218, Note_on_c, 9, 51, 0
4, 13445, Note_on_c, 9, 51, 74
4, 13466, Note_on_c, 9, 51, 0
4, 13562, Note_on_c, 9, 51, 79
4, 13592, Note_on_c, 9, 51, 0
4, 13679, Note_on_c, 9, 51, 80
4, 13695, Note_on_c, 9, 51, 0
4, 13888, Note_on_c, 9, 51, 67
4, 13903, Note_on_c, 9, 51, 0
4, 13923, Note_on_c, 9, 51, 82
4, 13983, Note_on_c, 9, 51, 0
4, 14162, Note_on_c, 9, 51, 57
4, 14185, Note_on_c, 9, 51, 0
4, 14366, Note_on_c, 9, 51, 38
4, 14390, Note_on_c, 9, 51, 0
4, 14448, Note_on_c, 9, 53, 78
4, 14486, Note_on_c, 9, 53, 0
4, 14531, Note_on_c, 9, 53, 66
4, 14552, Note_on_c, 9, 53, 0
4, 14607, Note_on_c, 9, 51, 48
4, 14627, Note_on_c, 9, 51, 0
4, 14651, Note_on_c, 9, 51, 28
4, 14674, Note_on_c, 9, 51, 0
4, 14689, Note_on_c, 9, 53, 60
4, 14703, Note_on_c, 9, 53, 0
4, 14767, Note_on_c, 9, 53, 65
4, 14784, Note_on_c, 9, 53, 0
4, 14882, Note_on_c, 9, 51, 34
4, 14913, Note_on_c, 9, 51, 0
4, 14999, Note_on_c, 9, 53, 55
4, 15019, Note_on_c, 9, 53, 0
4, 15080, Note_on_c, 9, 51, 34
4, 15091, Note_on_c, 9, 51, 0
4, 15120, Note_on_c, 9, 51, 28
4, 15151, Note_on_c, 9, 51, 0
4, 15232, Note_on_c, 9, 53, 61
4, 15245, Note_on_c, 9, 53, 0
4, 15312, Note_on_c, 9, 53, 99
4, 15329, Note_on_c, 9, 53, 0
4, 15361, Note_on_c, 9, 51, 31
4, 15385, Note_on_c, 9, 51, 0
4, 15442, Note_on_c, 9, 51, 32
4, 15450, Note_on_c, 9, 51, 0
4, 15476, Note_on_c, 9, 53, 72
4, 15525, Note_on_c, 9, 53, 0
4, 15671, Note_on_c, 9, 51, 46
4, 15683, Note_on_c, 9, 51, 0
4, 15877, Note_on_c, 9, 53, 60
4, 15884, Note_on_c, 9, 53, 0
4, 15957, Note_on_c, 9, 53, 84
4, 15971, Note_on_c, 9, 53, 0
4, 16043, Note_on_c, 9, 53, 58
4, 16049, Note_on_c, 9, 53, 0
4, 16120, Note_on_c, 9, 53, 56
4, 16128, Note_on_c, 9, 53, 0
4, 16157, Note_on_c, 9, 53, 68
4, 16163, Note_on_c, 9, 53, 0
4, 16201, Note_on_c, 9, 51, 51
4, 16219, Note_on_c, 9, 51, 0
4, 16282, Note_on_c, 9, 51, 77
4, 16298, Note_on_c, 9, 51, 0
4, 16319, Note_on_c, 9, 51, 77
4, 16350, Note_on_c, 9, 51, 0
4, 16521, Note_on_c, 9, 51, 71
4, 16534, Note_on_c, 9, 51, 0
4, 16560, Note_on_c, 9, 51, 83
4, 16584, Note_on_c, 9, 51, 0
4, 16764, Note_on_c, 9, 51, 35
4, 16770, Note_on_c, 9, 51, 0
4, 16795, Note_on_c, 9, 51, 90
4, 16861, Note_on_c, 9, 51, 0
4, 16912, Note_on_c, 9, 51, 94
4, 16983, Note_on_c, 9, 51, 0
4, 17122, Note_on_c, 9, 51, 55
4, 17139, Note_on_c, 9, 51, 0
4, 17157, Note_on_c, 9, 51, 83
4, 17230, Note_on_c, 9, 51, 0
4, 17360, Note_on_c, 9, 51, 40
4, 17370, Note_on_c, 9, 51, 0
4, 17393, Note_on_c, 9, 51, 85
4, 17466, Note_on_c, 9, 51, 0
4, 17517, Note_on_c, 9, 51, 91
4, 17560, Note_on_c, 9, 51, 0
4, 17636, Note_on_c, 9, 51, 87
4, 17666, Note_on_c, 9, 51, 0
4, 17752, Note_on_c, 9, 51, 78
4, 17772, Note_on_c, 9, 51, 0
4, 17846, Note_on_c, 9, 51, 39
4, 17858, Note_on_c, 9, 51, 0
4, 17874, Note_on_c, 9, 51, 77
4, 17953, Note_on_c, 9, 51, 0
4, 17990, Note_on_c, 9, 51, 83
4, 18069, Note_on_c, 9, 51, 0
4, 18110, Note_on_c, 9, 51, 87
4, 18186, Note_on_c, 9, 51, 0
4, 18202, Note_on_c, 9, 51, 47
4, 18218, Note_on_c, 9, 51, 0
4, 18229, Note_on_c, 9, 51, 83
4, 18314, Note_on_c, 9, 51, 0
4, 18349, Note_on_c, 9, 51, 90
4, 18432, Note_on_c, 9, 51, 0
4, 18473, Note_on_c, 9, 51, 87
4, 18544, Note_on_c, 9, 51, 0
4, 18594, Note_on_c, 9, 51, 90
4, 18654, Note_on_c, 9, 51, 0
4, 18682, Note_on_c, 9, 51, 37
4, 18693, Note_on_c, 9, 51, 0
4, 18706, Note_on_c, 9, 51, 83
4, 18794, Note_on_c, 9, 51, 0
4, 18830, Note_on_c, 9, 51, 87
4, 18910, Note_on_c, 9, 51, 0
4, 18950, Note_on_c, 9, 51, 88
4, 19018, Note_on_c, 9, 51, 0
4, 19069, Note_on_c, 9, 51, 86
4, 19111, Note_on_c, 9, 51, 0
4, 19160, Note_on_c, 9, 51, 52
4, 19173, Note_on_c, 9, 51, 0
4, 19185, Note_on_c, 9, 51, 81
4, 19266, Note_on_c, 9, 51, 0
4, 19309, Note_on_c, 9, 51, 86
4, 19373, Note_on_c, 9, 51, 0
4, 19423, Note_on_c, 9, 51, 82
4, 19481, Note_on_c, 9, 51, 0
4, 19544, Note_on_c, 9, 51, 81
4, 19575, Note_on_c, 9, 51, 0
4, 19635, Note_on_c, 9, 51, 63
4, 19651, Note_on_c, 9, 51, 0
4, 19664, Note_on_c, 9, 51, 73
4, 19724, Note_on_c, 9, 51, 0
4, 19790, Note_on_c, 9, 51, 86
4, 19827, Note_on_c, 9, 51, 0
4, 19912, Note_on_c, 9, 51, 88
4, 19939, Note_on_c, 9, 51, 0
4, 20003, Note_on_c, 9, 51, 67
4, 20016, Note_on_c, 9, 51, 0
4, 20030, Note_on_c, 9, 51, 73
4, 20088, Note_on_c, 9, 51, 0
4, 20150, Note_on_c, 9, 51, 83
4, 20176, Note_on_c, 9, 51, 0
4, 20273, Note_on_c, 9, 51, 80
4, 20296, Note_on_c, 9, 51, 0
4, 20400, Note_on_c, 9, 51, 78
4, 20414, Note_on_c, 9, 51, 0
4, 20518, Note_on_c, 9, 51, 74
4, 20533, Note_on_c, 9, 51, 0
4, 20603, Note_on_c, 9, 51, 59
4, 20622, Note_on_c, 9, 51, 0
4, 20637, Note_on_c, 9, 51, 71
4, 20663, Note_on_c, 9, 51, 0
4, 20726, Note_on_c, 9, 51, 59
4, 20734, Note_on_c, 9, 51, 0
4, 20757, Note_on_c, 9, 51, 86
4, 20835, Note_on_c, 9, 51, 0
4, 20878, Note_on_c, 9, 51, 50
4, 20885, Note_on_c, 9, 51, 0
4, 20963, Note_on_c, 9, 51, 68
4, 20977, Note_on_c, 9, 51, 0
4, 20997, Note_on_c, 9, 51, 78
4, 21024, Note_on_c, 9, 51, 0
4, 21035, Note_on_c, 9, 51, 82
4, 21054, Note_on_c, 9, 51, 0
4, 21115, Note_on_c, 9, 51, 77
4, 21164, Note_on_c, 9, 51, 0
4, 21232, Note_on_c, 9, 51, 86
4, 21260, Note_on_c, 9, 51, 0
4, 21319, Note_on_c, 9, 51, 37
4, 21328, Note_on_c, 9, 51, 0
4, 21352, Note_on_c, 9, 51, 74
4, 21422, Note_on_c, 9, 51, 0
4, 21471, Note_on_c, 9, 51, 84
4, 21512, Note_on_c, 9, 51, 0
4, 21555, Note_on_c, 9, 51, 31
4, 21561, Note_on_c, 9, 51, 0
4, 21583, Note_on_c, 9, 51, 74
4, 21654, Note_on_c, 9, 51, 0
4, 21705, Note_on_c, 9, 51, 83
4, 21753, Note_on_c, 9, 51, 0
4, 21831, Note_on_c, 9, 51, 80
4, 21869, Note_on_c, 9, 51, 0
4, 21951, Note_on_c, 9, 51, 77
4, 21987, Note_on_c, 9, 51, 0
4, 22054, Note_on_c, 9, 51, 59
4, 22061, Note_on_c, 9, 51, 0
4, 22080, Note_on_c, 9, 51, 73
4, 22154, Note_on_c, 9, 51, 0
4, 22196, Note_on_c, 9, 51, 82
4, 22263, Note_on_c, 9, 51, 0
4, 22316, Note_on_c, 9, 51, 77
4, 22374, Note_on_c, 9, 51, 0
4, 22434, Note_on_c, 9, 51, 80
4, 22486, Note_on_c, 9, 51, 0
4, 22520, Note_on_c, 9, 51, 49
4, 22533, Note_on_c, 9, 51, 0
4, 22548, Note_on_c, 9, 51, 67
4, 22624, Note_on_c, 9, 51, 0
4, 22674, Note_on_c, 9, 51, 79
4, 22736, Note_on_c, 9, 51, 0
4, 22796, Note_on_c, 9, 51, 78
4, 22859, Note_on_c, 9, 51, 0
4, 22917, Note_on_c, 9, 51, 77
4, 22947, Note_on_c, 9, 51, 0
4, 23001, Note_on_c, 9, 51, 57
4, 23011, Note_on_c, 9, 51, 0
4, 23031, Note_on_c, 9, 51, 71
4, 23101, Note_on_c, 9, 51, 0
4, 23150, Note_on_c, 9, 51, 80
4, 23222, Note_on_c, 9, 51, 0
4, 23270, Note_on_c, 9, 51, 71
4, 23336, Note_on_c, 9, 51, 0
4, 23357, Note_on_c, 9, 53, 77
4, 23380, Note_on_c, 9, 53, 0
4, 23476, Note_on_c, 9, 51, 68
4, 23492, Note_on_c, 9, 51, 0
4, 23513, Note_on_c, 9, 51, 62
4, 23557, Note_on_c, 9, 51, 0
4, 23601, Note_on_c, 9, 51, 29
4, 23609, Note_on_c, 9, 51, 0
4, 23634, Note_on_c, 9, 51, 84
4, 23711, Note_on_c, 9, 51, 0
4, 23725, Note_on_c, 9, 51, 72
4, 23740, Note_on_c, 9, 51, 0
4, 23809, Note_on_c, 9, 51, 63
4, 23825, Note_on_c, 9, 51, 0
4, 23852, Note_on_c, 9, 51, 56
4, 23872, Note_on_c, 9, 51, 0
4, 23898, Note_on_c, 9, 51, 58
4, 23912, Note_on_c, 9, 51, 0
4, 23956, Note_on_c, 9, 51, 73
4, 23956, Note_on_c, 9, 57, 45
4, 23967, Note_on_c, 9, 57, 0
4, 23973, Note_on_c, 9, 51, 0
4, 24118, Note_on_c, 9, 51, 70
4, 24132, Note_on_c, 9, 51, 0
4, 24195, Note_on_c, 9, 51, 67
4, 24217, Note_on_c, 9, 51, 0
4, 24234, Note_on_c, 9, 51, 39
4, 24247, Note_on_c, 9, 51, 0
4, 24315, Note_on_c, 9, 51, 56
4, 24323, Note_on_c, 9, 51, 0
4, 24391, Note_on_c, 9, 51, 62
4, 24405, Note_on_c, 9, 51, 0
4, 24427, Note_on_c, 9, 51, 81
4, 24448, Note_on_c, 9, 51, 0
4, 24470, Note_on_c, 9, 51, 88
4, 24513, Note_on_c, 9, 51, 0
4, 24630, Note_on_c, 9, 51, 53
4, 24639, Note_on_c, 9, 51, 0
4, 24664, Note_on_c, 9, 51, 60
4, 24679, Note_on_c, 9, 51, 0
4, 24705, Note_on_c, 9, 51, 82
4, 24763, Note_on_c, 9, 51, 0
4, 24818, Note_on_c, 9, 51, 76
4, 24844, Note_on_c, 9, 51, 0
4, 24917, Note_on_c, 9, 51, 46
4, 24932, Note_on_c, 9, 51, 0
4, 24949, Note_on_c, 9, 51, 64
4, 25021, Note_on_c, 9, 51, 0
4, 25085, Note_on_c, 9, 51, 71
4, 25136, Note_on_c, 9, 51, 0
4, 25199, Note_on_c, 9, 51, 71
4, 25229, Note_on_c, 9, 51, 0
4, 25291, Note_on_c, 9, 51, 45
4, 25304, Note_on_c, 9, 51, 0
4, 25322, Note_on_c, 9, 51, 60
4, 25385, Note_on_c, 9, 51, 0
4, 25519, Note_on_c, 9, 51, 62
4, 25534, Note_on_c, 9, 51, 0
4, 25558, Note_on_c, 9, 51, 74
4, 25628, Note_on_c, 9, 51, 0
4, 25684, Note_on_c, 9, 51, 51
4, 25695, Note_on_c, 9, 51, 0
4, 25716, Note_on_c, 9, 51, 74
4, 25756, Note_on_c, 9, 51, 0
4, 25804, Note_on_c, 9, 51, 71
4, 25822, Note_on_c, 9, 51, 0
4, 25887, Note_on_c, 9, 51, 86
4, 25906, Note_on_c, 9, 51, 0
4, 25924, Note_on_c, 9, 51, 61
4, 25989, Note_on_c, 9, 51, 0
4, 26046, Note_on_c, 9, 51, 35
4, 26053, Note_on_c, 9, 51, 0
4, 26076, Note_on_c, 9, 51, 64
4, 26088, Note_on_c, 9, 51, 0
4, 26112, Note_on_c, 9, 51, 74
4, 26143, Note_on_c, 9, 51, 0
4, 26201, Note_on_c, 9, 51, 53
4, 26209, Note_on_c, 9, 51, 0
4, 26237, Note_on_c, 9, 51, 74
4, 26252, Note_on_c, 9, 51, 0
4, 26278, Note_on_c, 9, 51, 71
4, 26293, Note_on_c, 9, 51, 0
4, 26363, Note_on_c, 9, 51, 92
4, 26382, Note_on_c, 9, 51, 0
4, 26450, Note_on_c, 9, 51, 46
4, 26463, Note_on_c, 9, 51, 0
4, 26487, Note_on_c, 9, 51, 75
4, 26500, Note_on_c, 9, 51, 0
4, 26527, Note_on_c, 9, 51, 98
4, 26554, Note_on_c, 9, 51, 0
4, 26724, Note_on_c, 9, 51, 71
4, 26737, Note_on_c, 9, 51, 0
4, 26760, Note_on_c, 9, 51, 87
4, 26813, Note_on_c, 9, 51, 0
4, 26847, Note_on_c, 9, 51, 80
4, 26870, Note_on_c, 9, 51, 0
4, 26885, Note_on_c, 9, 51, 84
4, 27039, Note_on_c, 9, 51, 0
4, 27087, Note_on_c, 9, 51, 56
4, 27104, Note_on_c, 9, 51, 0
4, 27125, Note_on_c, 9, 51, 79
4, 27130, Note_on_c, 9, 50, 68
4, 27149, Note_on_c, 9, 50, 0
4, 27155, Note_on_c, 9, 51, 0
4, 27244, Note_on_c, 9, 51, 83
4, 27305, Note_on_c, 9, 51, 0
4, 27326, Note_on_c, 9, 51, 49
4, 27341, Note_on_c, 9, 51, 0
4, 27357, Note_on_c, 9, 51, 71
4, 27430, Note_on_c, 9, 51, 0
4, 27482, Note_on_c, 9, 51, 27
4, 27500, Note_on_c, 9, 51, 0
4, 27561, Note_on_c, 9, 51, 63
4, 27580, Note_on_c, 9, 51, 0
4, 27594, Note_on_c, 9, 51, 59
4, 27608, Note_on_c, 9, 51, 0
4, 27711, Note_on_c, 9, 51, 53
4, 27729, Note_on_c, 9, 51, 0
4, 27793, Note_on_c, 9, 57, 41
4, 27833, Note_on_c, 9, 57, 0
4, 27955, Note_on_c, 9, 51, 60
4, 28031, Note_on_c, 9, 51, 0
4, 28072, Note_on_c, 9, 51, 67
4, 28139, Note_on_c, 9, 51, 0
4, 28191, Note_on_c, 9, 51, 77
4, 28237, Note_on_c, 9, 51, 0
4, 28283, Note_on_c, 9, 51, 51
4, 28296, Note_on_c, 9, 51, 0
4, 28313, Note_on_c, 9, 51, 64
4, 28397, Note_on_c, 9, 51, 0
4, 28433, Note_on_c, 9, 51, 77
4, 28496, Note_on_c, 9, 51, 0
4, 28523, Note_on_c, 9, 51, 48
4, 28538, Note_on_c, 9, 51, 0
4, 28550, Note_on_c, 9, 51, 71
4, 28637, Note_on_c, 9, 51, 0
4, 28671, Note_on_c, 9, 51, 81
4, 28740, Note_on_c, 9, 51, 0
4, 28757, Note_on_c, 9, 51, 49
4, 28769, Note_on_c, 9, 51, 0
4, 28785, Note_on_c, 9, 51, 64
4, 28868, Note_on_c, 9, 51, 0
4, 28907, Note_on_c, 9, 51, 80
4, 28974, Note_on_c, 9, 51, 0
4, 29026, Note_on_c, 9, 51, 72
4, 29092, Note_on_c, 9, 51, 0
4, 29149, Note_on_c, 9, 51, 77
4, 29204, Note_on_c, 9, 51, 0
4, 29237, Note_on_c, 9, 51, 42
4, 29247, Note_on_c, 9, 51, 0
4, 29269, Note_on_c, 9, 51, 69
4, 29339, Note_on_c, 9, 51, 0
4, 29395, Note_on_c, 9, 51, 78
4, 29459, Note_on_c, 9, 51, 0
4, 29521, Note_on_c, 9, 51, 80
4, 29587, Note_on_c, 9, 51, 0
4, 29606, Note_on_c, 9, 51, 42
4, 29621, Note_on_c, 9, 51, 0
4, 29635, Note_on_c, 9, 51, 77
4, 29707, Note_on_c, 9, 51, 0
4, 29756, Note_on_c, 9, 51, 83
4, 29815, Note_on_c, 9, 51, 0
4, 29876, Note_on_c, 9, 51, 81
4, 29920, Note_on_c, 9, 51, 0
4, 29966, Note_on_c, 9, 51, 39
4, 29976, Note_on_c, 9, 51, 0
4, 29992, Note_on_c, 9, 51, 72
4, 30071, Note_on_c, 9, 51, 0
4, 30117, Note_on_c, 9, 51, 85
4, 30184, Note_on_c, 9, 51, 0
4, 30202, Note_on_c, 9, 51, 45
4, 30215, Note_on_c, 9, 51, 0
4, 30230, Note_on_c, 9, 51, 64
4, 30300, Note_on_c, 9, 51, 0
4, 30350, Note_on_c, 9, 51, 82
4, 30406, Note_on_c, 9, 51, 0
4, 30440, Note_on_c, 9, 51, 39
4, 30449, Note_on_c, 9, 51, 0
4, 30467, Note_on_c, 9, 51, 67
4, 30527, Note_on_c, 9, 51, 0
4, 30590, Note_on_c, 9, 51, 85
4, 30650, Note_on_c, 9, 51, 0
4, 30711, Note_on_c, 9, 51, 65
4, 30725, Note_on_c, 9, 51, 0
4, 30801, Note_on_c, 9, 57, 13
4, 30809, Note_on_c, 9, 57, 0
4, 30924, Note_on_c, 9, 51, 48
4, 30933, Note_on_c, 9, 51, 0
4, 30961, Note_on_c, 9, 51, 46
4, 31015, Note_on_c, 9, 51, 0
4, 31040, Note_on_c, 9, 53, 50
4, 31048, Note_on_c, 9, 53, 0
4, 31168, Note_on_c, 9, 51, 63
4, 31184, Note_on_c, 9, 51, 0
4, 31202, Note_on_c, 9, 51, 50
4, 31235, Note_on_c, 9, 51, 0
4, 31324, Note_on_c, 9, 53, 54
4, 31331, Note_on_c, 9, 53, 0
4, 31358, Note_on_c, 9, 53, 70
4, 31365, Note_on_c, 9, 53, 0
4, 31529, Note_on_c, 9, 51, 53
4, 31536, Note_on_c, 9, 51, 0
4, 31574, Note_on_c, 9, 53, 38
4, 31581, Note_on_c, 9, 53, 0
4, 31605, Note_on_c, 9, 53, 75
4, 31612, Note_on_c, 9, 53, 0
4, 31651, Note_on_c, 9, 53, 113
4, 31672, Note_on_c, 9, 53, 0
4, 31736, Note_on_c, 9, 53, 33
4, 31744, Note_on_c, 9, 53, 0
4, 31764, Note_on_c, 9, 53, 55
4, 31771, Note_on_c, 9, 53, 0
4, 31803, Note_on_c, 9, 51, 49
4, 31809, Note_on_c, 9, 51, 0
4, 31883, Note_on_c, 9, 51, 51
4, 31896, Note_on_c, 9, 51, 0
4, 31966, Note_on_c, 9, 51, 48
4, 31975, Note_on_c, 9, 51, 0
4, 32001, Note_on_c, 9, 51, 65
4, 32010, Note_on_c, 9, 51, 0
4, 32043, Note_on_c, 9, 51, 97
4, 32075, Note_on_c, 9, 51, 0
4, 32125, Note_on_c, 9, 51, 94
4, 32153, Note_on_c, 9, 51, 0
4, 32203, Note_on_c, 9, 51, 59
4, 32218, Note_on_c, 9, 51, 0
4, 32243, Note_on_c, 9, 51, 47
4, 32255, Note_on_c, 9, 51, 0
4, 32285, Note_on_c, 9, 59, 71
4, 32312, Note_on_c, 9, 59, 0
4, 32362, Note_on_c, 9, 59, 81
4, 32384, Note_on_c, 9, 59, 0
4, 32522, Note_on_c, 9, 51, 49
4, 32538, Note_on_c, 9, 51, 0
4, 32606, Note_on_c, 9, 51, 53
4, 32612, Note_on_c, 9, 51, 0
4, 32642, Note_on_c, 9, 51, 59
4, 32655, Note_on_c, 9, 51, 0
4, 32802, Note_on_c, 9, 53, 54
4, 32809, Note_on_c, 9, 53, 0
4, 32840, Note_on_c, 9, 53, 81
4, 32851, Note_on_c, 9, 53, 0
4, 32887, Note_on_c, 9, 53, 90
4, 32900, Note_on_c, 9, 53, 0
4, 33091, Note_on_c, 9, 51, 54
4, 33100, Note_on_c, 9, 51, 0
4, 33130, Note_on_c, 9, 51, 54
4, 33147, Note_on_c, 9, 51, 0
4, 33326, Note_on_c, 9, 51, 55
4, 33342, Note_on_c, 9, 51, 0
4, 33367, Note_on_c, 9, 51, 71
4, 33398, Note_on_c, 9, 51, 0
4, 33570, Note_on_c, 9, 51, 62
4, 33587, Note_on_c, 9, 51, 0
4, 33610, Note_on_c, 9, 51, 59
4, 33636, Note_on_c, 9, 51, 0
4, 33689, Note_on_c, 9, 53, 57
4, 33697, Note_on_c, 9, 53, 0
4, 33730, Note_on_c, 9, 51, 37
4, 33756, Note_on_c, 9, 51, 0
4, 33968, Note_on_c, 9, 51, 69
4, 33995, Note_on_c, 9, 51, 0
4, 34156, Note_on_c, 9, 51, 46
4, 34167, Note_on_c, 9, 51, 0
4, 34200, Note_on_c, 9, 53, 52
4, 34207, Note_on_c, 9, 53, 0
4, 34272, Note_on_c, 9, 53, 85
4, 34285, Note_on_c, 9, 53, 0
4, 34511, Note_on_c, 9, 51, 52
4, 34518, Note_on_c, 9, 51, 0
4, 34544, Note_on_c, 9, 57, 46
4, 34572, Note_on_c, 9, 57, 0
4, 34572, End_track
5, 0, Start_track
5, 0, Title_t, "Drum 2"
5, 0, Control_c, 9, 7, 90
5, 437, Note_on_c, 9, 35, 13
5, 456, Note_on_c, 9, 35, 0
5, 484, Note_on_c, 9, 35, 4
5, 519, Note_on_c, 9, 35, 0
5, 681, Note_on_c, 9, 35, 13
5, 688, Note_on_c, 9, 35, 0
5, 1210, Note_on_c, 9, 35, 4
5, 1220, Note_on_c, 9, 35, 0
5, 1407, Note_on_c, 9, 35, 7
5, 1416, Note_on_c, 9, 35, 0
5, 1446, Note_on_c, 9, 35, 6
5, 1454, Note_on_c, 9, 35, 0
5, 1711, Note_on_c, 9, 46, 16
5, 1723, Note_on_c, 9, 46, 0
5, 1805, Note_on_c, 9, 46, 28
5, 1811, Note_on_c, 9, 46, 0
5, 1883, Note_on_c, 9, 46, 39
5, 1898, Note_on_c, 9, 46, 0
5, 2002, Note_on_c, 9, 35, 9
5, 2010, Note_on_c, 9, 35, 0
5, 2043, Note_on_c, 9, 35, 10
5, 2073, Note_on_c, 9, 35, 0
5, 2392, Note_on_c, 9, 35, 10
5, 2408, Note_on_c, 9, 35, 0
5, 2559, Note_on_c, 9, 40, 20
5, 2569, Note_on_c, 9, 40, 0
5, 2594, Note_on_c, 9, 40, 20
5, 2604, Note_on_c, 9, 40, 0
5, 2761, Note_on_c, 9, 35, 6
5, 2770, Note_on_c, 9, 35, 0
5, 2837, Note_on_c, 9, 35, 19
5, 2863, Note_on_c, 9, 35, 0
5, 2879, Note_on_c, 9, 35, 14
5, 2921, Note_on_c, 9, 35, 0
5, 3086, Note_on_c, 9, 35, 9
5, 3095, Note_on_c, 9, 35, 0
5, 3332, Note_on_c, 9, 35, 7
5, 3340, Note_on_c, 9, 35, 0
5, 3608, Note_on_c, 9, 40, 21
5, 3615, Note_on_c, 9, 40, 0
5, 3678, Note_on_c, 9, 40, 24
5, 3685, Note_on_c, 9, 40, 0
5, 3720, Note_on_c, 9, 35, 7
5, 3730, Note_on_c, 9, 35, 0
5, 3804, Note_on_c, 9, 35, 7
5, 3812, Note_on_c, 9, 35, 0
5, 4042, Note_on_c, 9, 35, 7
5, 4050, Note_on_c, 9, 35, 0
5, 4082, Note_on_c, 9, 40, 10
5, 4088, Note_on_c, 9, 40, 0
5, 4155, Note_on_c, 9, 40, 30
5, 4162, Note_on_c, 9, 40, 0
5, 4200, Note_on_c, 9, 35, 7
5, 4211, Note_on_c, 9, 35, 0
5, 4282, Note_on_c, 9, 35, 7
5, 4289, Note_on_c, 9, 35, 0
5, 4650, Note_on_c, 9, 35, 4
5, 4657, Note_on_c, 9, 35, 0
5, 4768, Note_on_c, 9, 35, 4
5, 4776, Note_on_c, 9, 35, 0
5, 4989, Note_on_c, 9, 42, 17
5, 4996, Note_on_c, 9, 42, 0
5, 5069, Note_on_c, 9, 42, 25
5, 5076, Note_on_c, 9, 42, 0
5, 5101, Note_on_c, 9, 42, 30
5, 5113, Note_on_c, 9, 42, 0
5, 5201, Note_on_c, 9, 42, 26
5, 5208, Note_on_c, 9, 42, 0
5, 5228, Note_on_c, 9, 42, 16
5, 5239, Note_on_c, 9, 42, 0
5, 5315, Note_on_c, 9, 42, 30
5, 5326, Note_on_c, 9, 42, 0
5, 5350, Note_on_c, 9, 35, 18
5, 5389, Note_on_c, 9, 35, 0
5, 5395, Note_on_c, 9, 42, 11
5, 5401, Note_on_c, 9, 42, 0
5, 5424, Note_on_c, 9, 42, 23
5, 5440, Note_on_c, 9, 42, 0
5, 5462, Note_on_c, 9, 35, 18
5, 5501, Note_on_c, 9, 35, 0
5, 5501, Note_on_c, 9, 42, 18
5, 5509, Note_on_c, 9, 42, 0
5, 5548, Note_on_c, 9, 35, 17
5, 5580, Note_on_c, 9, 35, 0
5, 5635, Note_on_c, 9, 42, 30
5, 5650, Note_on_c, 9, 42, 0
5, 5721, Note_on_c, 9, 35, 14
5, 5737, Note_on_c, 9, 35, 0
5, 5759, Note_on_c, 9, 45, 33
5, 5778, Note_on_c, 9, 45, 0
5, 5955, Note_on_c, 9, 35, 7
5, 5964, Note_on_c, 9, 35, 0
5, 5994, Note_on_c, 9, 35, 9
5, 6024, Note_on_c, 9, 35, 0
5, 6207, Note_on_c, 9, 35, 10
5, 6215, Note_on_c, 9, 35, 0
5, 6244, Note_on_c, 9, 35, 14
5, 6255, Note_on_c, 9, 35, 0
5, 6837, Note_on_c, 9, 46, 14
5, 6845, Note_on_c, 9, 46, 0
5, 6876, Note_on_c, 9, 46, 27
5, 6884, Note_on_c, 9, 46, 0
5, 6960, Note_on_c, 9, 46, 33
5, 6978, Note_on_c, 9, 46, 0
5, 7050, Note_on_c, 9, 35, 7
5, 7058, Note_on_c, 9, 35, 0
5, 7086, Note_on_c, 9, 35, 14
5, 7114, Note_on_c, 9, 35, 0
5, 7163, Note_on_c, 9, 35, 21
5, 7188, Note_on_c, 9, 35, 0
5, 7355, Note_on_c, 9, 46, 14
5, 7362, Note_on_c, 9, 46, 0
5, 7393, Note_on_c, 9, 46, 18
5, 7400, Note_on_c, 9, 46, 0
5, 7476, Note_on_c, 9, 42, 16
5, 7483, Note_on_c, 9, 42, 0
5, 7509, Note_on_c, 9, 42, 28
5, 7517, Note_on_c, 9, 42, 0
5, 7553, Note_on_c, 9, 46, 28
5, 7570, Note_on_c, 9, 46, 0
5, 7591, Note_on_c, 9, 42, 21
5, 7597, Note_on_c, 9, 42, 0
5, 7627, Note_on_c, 9, 35, 18
5, 7706, Note_on_c, 9, 35, 0
5, 7874, Note_on_c, 9, 35, 13
5, 7884, Note_on_c, 9, 35, 0
5, 8131, Note_on_c, 9, 35, 10
5, 8140, Note_on_c, 9, 35, 0
5, 8369, Note_on_c, 9, 35, 18
5, 8388, Note_on_c, 9, 35, 0
5, 8609, Note_on_c, 9, 35, 7
5, 8620, Note_on_c, 9, 35, 0
5, 8651, Note_on_c, 9, 35, 7
5, 8660, Note_on_c, 9, 35, 0
5, 8834, Note_on_c, 9, 35, 16
5, 8848, Note_on_c, 9, 35, 0
5, 9036, Note_on_c, 9, 40, 12
5, 9046, Note_on_c, 9, 40, 0
5, 9078, Note_on_c, 9, 35, 11
5, 9086, Note_on_c, 9, 35, 0
5, 9311, Note_on_c, 9, 40, 26
5, 9318, Note_on_c, 9, 40, 0
5, 9429, Note_on_c, 9, 40, 30
5, 9436, Note_on_c, 9, 40, 0
5, 9555, Note_on_c, 9, 40, 29
5, 9561, Note_on_c, 9, 40, 0
5, 9598, Note_on_c, 9, 35, 7
5, 9640, Note_on_c, 9, 35, 0
5, 9682, Note_on_c, 9, 35, 7
5, 9693, Note_on_c, 9, 35, 0
5, 9720, Note_on_c, 9, 35, 14
5, 9776, Note_on_c, 9, 35, 0
5, 9799, Note_on_c, 9, 35, 19
5, 9838, Note_on_c, 9, 35, 0
5, 10363, Note_on_c, 9, 40, 20
5, 10375, Note_on_c, 9, 40, 0
5, 10396, Note_on_c, 9, 40, 22
5, 10404, Note_on_c, 9, 40, 0
5, 10439, Note_on_c, 9, 35, 7
5, 10452, Note_on_c, 9, 35, 0
5, 10480, Note_on_c, 9, 35, 15
5, 10528, Note_on_c, 9, 35, 0
5, 10571, Note_on_c, 9, 35, 15
5, 10611, Note_on_c, 9, 35, 0
5, 10916, Note_on_c, 9, 35, 9
5, 10928, Note_on_c, 9, 35, 0
5, 10994, Note_on_c, 9, 35, 14
5, 11010, Note_on_c, 9, 35, 0
5, 11483, Note_on_c, 9, 35, 11
5, 11491, Note_on_c, 9, 35, 0
5, 11519, Note_on_c, 9, 35, 11
5, 11529, Note_on_c, 9, 35, 0
5, 11724, Note_on_c, 9, 35, 9
5, 11733, Note_on_c, 9, 35, 0
5, 12078, Note_on_c, 9, 35, 6
5, 12086, Note_on_c, 9, 35, 0
5, 12117, Note_on_c, 9, 37, 32
5, 12138, Note_on_c, 9, 37, 0
5, 12196, Note_on_c, 9, 35, 9
5, 12206, Note_on_c, 9, 35, 0
5, 12329, Note_on_c, 9, 35, 6
5, 12340, Note_on_c, 9, 35, 0
5, 12408, Note_on_c, 9, 40, 30
5, 12429, Note_on_c, 9, 40, 0
5, 12441, Note_on_c, 9, 40, 35
5, 12454, Note_on_c, 9, 40, 0
5, 12486, Note_on_c, 9, 35, 6
5, 12500, Note_on_c, 9, 35, 0
5, 12563, Note_on_c, 9, 35, 7
5, 12573, Note_on_c, 9, 35, 0
5, 12680, Note_on_c, 9, 35, 9
5, 12690, Note_on_c, 9, 35, 0
5, 12723, Note_on_c, 9, 35, 4
5, 12732, Note_on_c, 9, 35, 0
5, 13041, Note_on_c, 9, 35, 6
5, 13050, Note_on_c, 9, 35, 0
5, 13113, Note_on_c, 9, 37, 31
5, 13130, Note_on_c, 9, 37, 0
5, 13196, Note_on_c, 9, 37, 28
5, 13212, Note_on_c, 9, 37, 0
5, 13279, Note_on_c, 9, 35, 11
5, 13288, Note_on_c, 9, 35, 0
5, 13369, Note_on_c, 9, 35, 9
5, 13378, Note_on_c, 9, 35, 0
5, 13405, Note_on_c, 9, 35, 17
5, 13442, Note_on_c, 9, 35, 0
5, 13456, Note_on_c, 9, 35, 15
5, 13478, Note_on_c, 9, 35, 0
5, 13651, Note_on_c, 9, 35, 11
5, 13660, Note_on_c, 9, 35, 0
5, 13692, Note_on_c, 9, 35, 11
5, 13706, Note_on_c, 9, 35, 0
5, 13886, Note_on_c, 9, 35, 7
5, 13896, Note_on_c, 9, 35, 0
5, 13923, Note_on_c, 9, 44, 20
5, 13933, Note_on_c, 9, 44, 0
5, 13960, Note_on_c, 9, 44, 19
5, 13970, Note_on_c, 9, 44, 0
5, 14123, Note_on_c, 9, 35, 8
5, 14133, Note_on_c, 9, 35, 0
5, 14162, Note_on_c, 9, 42, 28
5, 14177, Note_on_c, 9, 42, 0
5, 14198, Note_on_c, 9, 42, 27
5, 14213, Note_on_c, 9, 42, 0
5, 14240, Note_on_c, 9, 35, 11
5, 14253, Note_on_c, 9, 35, 0
5, 14284, Note_on_c, 9, 42, 23
5, 14290, Note_on_c, 9, 42, 0
5, 14318, Note_on_c, 9, 42, 28
5, 14329, Note_on_c, 9, 42, 0
5, 14364, Note_on_c, 9, 35, 9
5, 14373, Note_on_c, 9, 35, 0
5, 14400, Note_on_c, 9, 42, 23
5, 14407, Note_on_c, 9, 42, 0
5, 14436, Note_on_c, 9, 42, 23
5, 14443, Note_on_c, 9, 42, 0
5, 14477, Note_on_c, 9, 35, 10
5, 14487, Note_on_c, 9, 35, 0
5, 14516, Note_on_c, 9, 42, 22
5, 14525, Note_on_c, 9, 42, 0
5, 14552, Note_on_c, 9, 42, 22
5, 14559, Note_on_c, 9, 42, 0
5, 14605, Note_on_c, 9, 46, 35
5, 14624, Note_on_c, 9, 46, 0
5, 14663, Note_on_c, 9, 42, 23
5, 14663, Note_on_c, 9, 42, 0
5, 14692, Note_on_c, 9, 42, 30
5, 14705, Note_on_c, 9, 42, 0
5, 14726, Note_on_c, 9, 35, 13
5, 14735, Note_on_c, 9, 35, 0
5, 14764, Note_on_c, 9, 46, 31
5, 14785, Note_on_c, 9, 46, 0
5, 14810, Note_on_c, 9, 46, 23
5, 14822, Note_on_c, 9, 46, 0
5, 15118, Note_on_c, 9, 42, 22
5, 15125, Note_on_c, 9, 42, 0
5, 15155, Note_on_c, 9, 42, 23
5, 15165, Note_on_c, 9, 42, 0
5, 15194, Note_on_c, 9, 46, 35
5, 15218, Note_on_c, 9, 46, 0
5, 15234, Note_on_c, 9, 42, 20
5, 15242, Note_on_c, 9, 42, 0
5, 15276, Note_on_c, 9, 42, 20
5, 15286, Note_on_c, 9, 42, 0
5, 15314, Note_on_c, 9, 46, 37
5, 15337, Note_on_c, 9, 46, 0
5, 15433, Note_on_c, 9, 35, 10
5, 15440, Note_on_c, 9, 35, 0
5, 15473, Note_on_c, 9, 35, 10
5, 15480, Note_on_c, 9, 35, 0
5, 15551, Note_on_c, 9, 35, 15
5, 15566, Note_on_c, 9, 35, 0
5, 15797, Note_on_c, 9, 35, 12
5, 15805, Note_on_c, 9, 35, 0
5, 15833, Note_on_c, 9, 35, 13
5, 15845, Note_on_c, 9, 35, 0
5, 16034, Note_on_c, 9, 35, 10
5, 16044, Note_on_c, 9, 35, 0
5, 16078, Note_on_c, 9, 35, 7
5, 16087, Note_on_c, 9, 35, 0
5, 16279, Note_on_c, 9, 35, 16
5, 16294, Note_on_c, 9, 35, 0
5, 16320, Note_on_c, 9, 35, 14
5, 16334, Note_on_c, 9, 35, 0
5, 16515, Note_on_c, 9, 35, 13
5, 16521, Note_on_c, 9, 35, 0
5, 16916, Note_on_c, 9, 40, 11
5, 16925, Note_on_c, 9, 40, 0
5, 16992, Note_on_c, 9, 40, 21
5, 17005, Note_on_c, 9, 40, 0
5, 17073, Note_on_c, 9, 40, 18
5, 17099, Note_on_c, 9, 40, 0
5, 17162, Note_on_c, 9, 40, 21
5, 17179, Note_on_c, 9, 40, 0
5, 17236, Note_on_c, 9, 35, 11
5, 17251, Note_on_c, 9, 35, 0
5, 17274, Note_on_c, 9, 35, 12
5, 17311, Note_on_c, 9, 35, 0
5, 17478, Note_on_c, 9, 35, 13
5, 17494, Note_on_c, 9, 35, 0
5, 17518, Note_on_c, 9, 35, 11
5, 17551, Note_on_c, 9, 35, 0
5, 17833, Note_on_c, 9, 40, 22
5, 17840, Note_on_c, 9, 40, 0
5, 17871, Note_on_c, 9, 35, 7
5, 17943, Note_on_c, 9, 35, 0
5, 18077, Note_on_c, 9, 40, 17
5, 18085, Note_on_c, 9, 40, 0
5, 18118, Note_on_c, 9, 35, 7
5, 18130, Note_on_c, 9, 35, 0
5, 18199, Note_on_c, 9, 35, 14
5, 18226, Note_on_c, 9, 35, 0
5, 18242, Note_on_c, 9, 35, 15
5, 18277, Note_on_c, 9, 35, 0
5, 19525, Note_on_c, 9, 40, 23
5, 19533, Note_on_c, 9, 40, 0
5, 19643, Note_on_c, 9, 40, 24
5, 19652, Note_on_c, 9, 40, 0
5, 19689, Note_on_c, 9, 35, 11
5, 19698, Note_on_c, 9, 35, 0
5, 19763, Note_on_c, 9, 35, 13
5, 19773, Note_on_c, 9, 35, 0
5, 20359, Note_on_c, 9, 40, 15
5, 20367, Note_on_c, 9, 40, 0
5, 20393, Note_on_c, 9, 35, 10
5, 20402, Note_on_c, 9, 35, 0
5, 20479, Note_on_c, 9, 40, 25
5, 20491, Note_on_c, 9, 40, 0
5, 20520, Note_on_c, 9, 35, 6
5, 20550, Note_on_c, 9, 35, 0
5, 20596, Note_on_c, 9, 40, 33
5, 20603, Note_on_c, 9, 40, 0
5, 20637, Note_on_c, 9, 35, 10
5, 20655, Note_on_c, 9, 35, 0
5, 20717, Note_on_c, 9, 35, 12
5, 20724, Note_on_c, 9, 35, 0
5, 20932, Note_on_c, 9, 40, 18
5, 20940, Note_on_c, 9, 40, 0
5, 20970, Note_on_c, 9, 40, 28
5, 20976, Note_on_c, 9, 40, 0
5, 21010, Note_on_c, 9, 40, 30
5, 21017, Note_on_c, 9, 40, 0
5, 21051, Note_on_c, 9, 37, 23
5, 21067, Note_on_c, 9, 37, 0
5, 21085, Note_on_c, 9, 35, 18
5, 21118, Note_on_c, 9, 35, 0
5, 21131, Note_on_c, 9, 35, 15
5, 21147, Note_on_c, 9, 35, 0
5, 21205, Note_on_c, 9, 35, 14
5, 21223, Note_on_c, 9, 35, 0
5, 21568, Note_on_c, 9, 35, 6
5, 21577, Note_on_c, 9, 35, 0
5, 21803, Note_on_c, 9, 35, 10
5, 21822, Note_on_c, 9, 35, 0
5, 21840, Note_on_c, 9, 35, 11
5, 21891, Note_on_c, 9, 35, 0
5, 22248, Note_on_c, 9, 40, 23
5, 22254, Note_on_c, 9, 40, 0
5, 22277, Note_on_c, 9, 40, 26
5, 22289, Note_on_c, 9, 40, 0
5, 22314, Note_on_c, 9, 35, 9
5, 22322, Note_on_c, 9, 35, 0
5, 22351, Note_on_c, 9, 40, 16
5, 22360, Note_on_c, 9, 40, 0
5, 22396, Note_on_c, 9, 40, 30
5, 22420, Note_on_c, 9, 40, 0
5, 22485, Note_on_c, 9, 40, 25
5, 22496, Note_on_c, 9, 40, 0
5, 22520, Note_on_c, 9, 40, 23
5, 22535, Note_on_c, 9, 40, 0
5, 22560, Note_on_c, 9, 35, 7
5, 22571, Note_on_c, 9, 35, 0
5, 22602, Note_on_c, 9, 40, 23
5, 22611, Note_on_c, 9, 40, 0
5, 22641, Note_on_c, 9, 40, 34
5, 22652, Note_on_c, 9, 40, 0
5, 22689, Note_on_c, 9, 35, 7
5, 22703, Note_on_c, 9, 35, 0
5, 22768, Note_on_c, 9, 35, 16
5, 22798, Note_on_c, 9, 35, 0
5, 22814, Note_on_c, 9, 35, 14
5, 22866, Note_on_c, 9, 35, 0
5, 23003, Note_on_c, 9, 35, 16
5, 23017, Note_on_c, 9, 35, 0
5, 23364, Note_on_c, 9, 35, 7
5, 23373, Note_on_c, 9, 35, 0
5, 23482, Note_on_c, 9, 35, 4
5, 23491, Note_on_c, 9, 35, 0
5, 23557, Note_on_c, 9, 46, 16
5, 23565, Note_on_c, 9, 46, 0
5, 23592, Note_on_c, 9, 46, 34
5, 23608, Note_on_c, 9, 46, 0
5, 23634, Note_on_c, 9, 35, 10
5, 23643, Note_on_c, 9, 35, 0
5, 23718, Note_on_c, 9, 35, 12
5, 23726, Note_on_c, 9, 35, 0
5, 23959, Note_on_c, 9, 35, 9
5, 23977, Note_on_c, 9, 35, 0
5, 24025, Note_on_c, 9, 42, 11
5, 24031, Note_on_c, 9, 42, 0
5, 24060, Note_on_c, 9, 42, 35
5, 24079, Note_on_c, 9, 42, 0
5, 24148, Note_on_c, 9, 42, 25
5, 24156, Note_on_c, 9, 42, 0
5, 24185, Note_on_c, 9, 42, 29
5, 24200, Note_on_c, 9, 42, 0
5, 24228, Note_on_c, 9, 35, 11
5, 24246, Note_on_c, 9, 35, 0
5, 24286, Note_on_c, 9, 42, 28
5, 24294, Note_on_c, 9, 42, 0
5, 24372, Note_on_c, 9, 42, 34
5, 24385, Note_on_c, 9, 42, 0
5, 24427, Note_on_c, 9, 42, 30
5, 24441, Note_on_c, 9, 42, 0
5, 24478, Note_on_c, 9, 35, 11
5, 24494, Note_on_c, 9, 35, 0
5, 24559, Note_on_c, 9, 35, 15
5, 24575, Note_on_c, 9, 35, 0
5, 24922, Note_on_c, 9, 35, 7
5, 24932, Note_on_c, 9, 35, 0
5, 24959, Note_on_c, 9, 35, 9
5, 24973, Note_on_c, 9, 35, 0
5, 25204, Note_on_c, 9, 40, 21
5, 25211, Note_on_c, 9, 40, 0
5, 25281, Note_on_c, 9, 40, 34
5, 25291, Note_on_c, 9, 40, 0
5, 25323, Note_on_c, 9, 40, 30
5, 25330, Note_on_c, 9, 40, 0
5, 25366, Note_on_c, 9, 40, 33
5, 25372, Note_on_c, 9, 40, 0
5, 25406, Note_on_c, 9, 35, 13
5, 25418, Note_on_c, 9, 35, 0
5, 25448, Note_on_c, 9, 35, 16
5, 25497, Note_on_c, 9, 35, 0
5, 25531, Note_on_c, 9, 35, 20
5, 25572, Note_on_c, 9, 35, 0
5, 26247, Note_on_c, 9, 40, 25
5, 26254, Note_on_c, 9, 40, 0
5, 26327, Note_on_c, 9, 40, 29
5, 26344, Note_on_c, 9, 40, 0
5, 26362, Note_on_c, 9, 37, 31
5, 26394, Note_on_c, 9, 37, 0
5, 26403, Note_on_c, 9, 57, 37
5, 26404, Note_on_c, 9, 35, 16
5, 26682, Note_on_c, 9, 35, 0
5, 26686, Note_on_c, 9, 40, 31
5, 26687, Note_on_c, 9, 57, 0
5, 26700, Note_on_c, 9, 40, 0
5, 26723, Note_on_c, 9, 37, 33
5, 26752, Note_on_c, 9, 37, 0
5, 26765, Note_on_c, 9, 35, 18
5, 26767, Note_on_c, 9, 57, 40
5, 26903, Note_on_c, 9, 57, 0
5, 27018, Note_on_c, 9, 35, 0
5, 27321, Note_on_c, 9, 40, 32
5, 27332, Note_on_c, 9, 40, 0
5, 27366, Note_on_c, 9, 35, 7
5, 27421, Note_on_c, 9, 35, 0
5, 27447, Note_on_c, 9, 35, 12
5, 27463, Note_on_c, 9, 35, 0
5, 27692, Note_on_c, 9, 35, 8
5, 27700, Note_on_c, 9, 35, 0
5, 27808, Note_on_c, 9, 35, 9
5, 27816, Note_on_c, 9, 35, 0
5, 28040, Note_on_c, 9, 35, 9
5, 28049, Note_on_c, 9, 35, 0
5, 28165, Note_on_c, 9, 35, 4
5, 28173, Note_on_c, 9, 35, 0
5, 28285, Note_on_c, 9, 35, 6
5, 28297, Note_on_c, 9, 35, 0
5, 28318, Note_on_c, 9, 40, 25
5, 28325, Note_on_c, 9, 40, 0
5, 28404, Note_on_c, 9, 40, 21
5, 28412, Note_on_c, 9, 40, 0
5, 28442, Note_on_c, 9, 40, 23
5, 28449, Note_on_c, 9, 40, 0
5, 28773, Note_on_c, 9, 40, 13
5, 28781, Note_on_c, 9, 40, 0
5, 28889, Note_on_c, 9, 40, 24
5, 28896, Note_on_c, 9, 40, 0
5, 28936, Note_on_c, 9, 40, 17
5, 28944, Note_on_c, 9, 40, 0
5, 29006, Note_on_c, 9, 40, 26
5, 29012, Note_on_c, 9, 40, 0
5, 29050, Note_on_c, 9, 40, 26
5, 29058, Note_on_c, 9, 40, 0
5, 29085, Note_on_c, 9, 40, 18
5, 29092, Note_on_c, 9, 40, 0
5, 29129, Note_on_c, 9, 35, 10
5, 29154, Note_on_c, 9, 35, 0
5, 29183, Note_on_c, 9, 40, 20
5, 29190, Note_on_c, 9, 40, 0
5, 29221, Note_on_c, 9, 40, 28
5, 29228, Note_on_c, 9, 40, 0
5, 29259, Note_on_c, 9, 35, 11
5, 29275, Note_on_c, 9, 35, 0
5, 29355, Note_on_c, 9, 35, 11
5, 29364, Note_on_c, 9, 35, 0
5, 29721, Note_on_c, 9, 35, 16
5, 29735, Note_on_c, 9, 35, 0
5, 30319, Note_on_c, 9, 35, 10
5, 30329, Note_on_c, 9, 35, 0
5, 30356, Note_on_c, 9, 35, 7
5, 30377, Note_on_c, 9, 35, 0
5, 30444, Note_on_c, 9, 35, 7
5, 30451, Note_on_c, 9, 35, 0
5, 30686, Note_on_c, 9, 40, 14
5, 30695, Note_on_c, 9, 40, 0
5, 30767, Note_on_c, 9, 40, 25
5, 30774, Note_on_c, 9, 40, 0
5, 30801, Note_on_c, 9, 40, 27
5, 30808, Note_on_c, 9, 40, 0
5, 31008, Note_on_c, 9, 40, 24
5, 31014, Note_on_c, 9, 40, 0
5, 31079, Note_on_c, 9, 40, 28
5, 31097, Note_on_c, 9, 40, 0
5, 31158, Note_on_c, 9, 35, 14
5, 31168, Note_on_c, 9, 35, 0
5, 31195, Note_on_c, 9, 35, 15
5, 31222, Note_on_c, 9, 35, 0
5, 31407, Note_on_c, 9, 40, 20
5, 31416, Note_on_c, 9, 40, 0
5, 31451, Note_on_c, 9, 35, 7
5, 31492, Note_on_c, 9, 35, 0
5, 31522, Note_on_c, 9, 35, 10
5, 31531, Note_on_c, 9, 35, 0
5, 31684, Note_on_c, 9, 35, 7
5, 31709, Note_on_c, 9, 35, 0
5, 31767, Note_on_c, 9, 35, 7
5, 31778, Note_on_c, 9, 35, 0
5, 31807, Note_on_c, 9, 57, 15
5, 31815, Note_on_c, 9, 57, 0
5, 31875, Note_on_c, 9, 35, 13
5, 31883, Note_on_c, 9, 35, 0
5, 31997, Note_on_c, 9, 35, 9
5, 32011, Note_on_c, 9, 35, 0
5, 32088, Note_on_c, 9, 40, 33
5, 32102, Note_on_c, 9, 40, 0
5, 32125, Note_on_c, 9, 40, 36
5, 32142, Note_on_c, 9, 40, 0
5, 32164, Note_on_c, 9, 35, 11
5, 32196, Note_on_c, 9, 35, 0
5, 32250, Note_on_c, 9, 35, 8
5, 32260, Note_on_c, 9, 35, 0
5, 32369, Note_on_c, 9, 40, 15
5, 32379, Note_on_c, 9, 40, 0
5, 32487, Note_on_c, 9, 35, 6
5, 32495, Note_on_c, 9, 35, 0
5, 32761, Note_on_c, 9, 40, 18
5, 32769, Note_on_c, 9, 40, 0
5, 32841, Note_on_c, 9, 40, 18
5, 32849, Note_on_c, 9, 40, 0
5, 32920, Note_on_c, 9, 40, 16
5, 32929, Note_on_c, 9, 40, 0
5, 32967, Note_on_c, 9, 35, 4
5, 32977, Note_on_c, 9, 35, 0
5, 33005, Note_on_c, 9, 40, 24
5, 33011, Note_on_c, 9, 40, 0
5, 33048, Note_on_c, 9, 35, 6
5, 33058, Note_on_c, 9, 35, 0
5, 33086, Note_on_c, 9, 37, 28
5, 33124, Note_on_c, 9, 37, 0
5, 33136, Note_on_c, 9, 35, 9
5, 33157, Note_on_c, 9, 35, 0
5, 33326, Note_on_c, 9, 35, 9
5, 33335, Note_on_c, 9, 35, 0
5, 33366, Note_on_c, 9, 35, 11
5, 33386, Note_on_c, 9, 35, 0
5, 33571, Note_on_c, 9, 35, 8
5, 33579, Note_on_c, 9, 35, 0
5, 33806, Note_on_c, 9, 35, 7
5, 33816, Note_on_c, 9, 35, 0
5, 34050, Note_on_c, 9, 35, 12
5, 34071, Note_on_c, 9, 35, 0
5, 34092, Note_on_c, 9, 35, 9
5, 34135, Note_on_c, 9, 35, 0
5, 34285, Note_on_c, 9, 35, 13
5, 34292, Note_on_c, 9, 35, 0
5, 34526, Note_on_c, 9, 35, 9
5, 34537, Note_on_c, 9, 35, 0
5, 34568, Note_on_c, 9, 35, 18
5, 34578, Note_on_c, 9, 35, 0
5, 34667, Note_on_c, 9, 51, 43
5, 34675, Note_on_c, 9, 44, 30
5, 34695, Note_on_c, 9, 51, 0
5, 34720, Note_on_c, 9, 44, 0
5, 34781, Note_on_c, 9, 51, 27
5, 34834, Note_on_c, 9, 51, 0
5, 34896, Note_on_c, 9, 51, 50
5, 34899, Note_on_c, 9, 44, 36
5, 34937, Note_on_c, 9, 44, 0
5, 34937, Note_on_c, 9, 51, 0
5, 34969, Note_on_c, 9, 51, 32
5, 34989, Note_on_c, 9, 51, 0
5, 34991, Note_on_c, 9, 37, 42
5, 35006, Note_on_c, 9, 51, 43
5, 35011, Note_on_c, 9, 37, 0
5, 35033, Note_on_c, 9, 35, 12
5, 35042, Note_on_c, 9, 35, 0
5, 35076, Note_on_c, 9, 51, 0
5, 35127, Note_on_c, 9, 44, 37
5, 35138, Note_on_c, 9, 51, 56
5, 35166, Note_on_c, 9, 44, 0
5, 35199, Note_on_c, 9, 51, 0
5, 35221, Note_on_c, 9, 51, 43
5, 35240, Note_on_c, 9, 51, 0
5, 35255, Note_on_c, 9, 51, 50
5, 35325, Note_on_c, 9, 51, 0
5, 35351, Note_on_c, 9, 44, 33
5, 35366, Note_on_c, 9, 51, 62
5, 35422, Note_on_c, 9, 44, 0
5, 35437, Note_on_c, 9, 51, 0
5, 35478, Note_on_c, 9, 51, 50
5, 35536, Note_on_c, 9, 51, 0
5, 35588, Note_on_c, 9, 51, 52
5, 35589, Note_on_c, 9, 44, 32
5, 35620, Note_on_c, 9, 44, 0
5, 35649, Note_on_c, 9, 51, 0
5, 35673, Note_on_c, 9, 51, 36
5, 35687, Note_on_c, 9, 51, 0
5, 35707, Note_on_c, 9, 51, 42
5, 35780, Note_on_c, 9, 51, 0
5, 35821, Note_on_c, 9, 44, 47
5, 35824, Note_on_c, 9, 51, 73
5, 35867, Note_on_c, 9, 44, 0
5, 35891, Note_on_c, 9, 51, 0
5, 35911, Note_on_c, 9, 51, 51
5, 35928, Note_on_c, 9, 51, 0
5, 35946, Note_on_c, 9, 51, 58
5, 36022, Note_on_c, 9, 51, 0
5, 36051, Note_on_c, 9, 44, 34
5, 36062, Note_on_c, 9, 51, 71
5, 36095, Note_on_c, 9, 44, 0
5, 36140, Note_on_c, 9, 51, 0
5, 36179, Note_on_c, 9, 51, 52
5, 36244, Note_on_c, 9, 51, 0
5, 36290, Note_on_c, 9, 51, 69
5, 36293, Note_on_c, 9, 44, 31
5, 36334, Note_on_c, 9, 44, 0
5, 36355, Note_on_c, 9, 51, 0
5, 36382, Note_on_c, 9, 51, 31
5, 36397, Note_on_c, 9, 51, 0
5, 36416, Note_on_c, 9, 51, 51
5, 36501, Note_on_c, 9, 51, 0
5, 36533, Note_on_c, 9, 44, 36
5, 36542, Note_on_c, 9, 51, 64
5, 36585, Note_on_c, 9, 44, 0
5, 36626, Note_on_c, 9, 51, 0
5, 36661, Note_on_c, 9, 51, 50
5, 36735, Note_on_c, 9, 51, 0
5, 36779, Note_on_c, 9, 51, 58
5, 36785, Note_on_c, 9, 44, 30
5, 36832, Note_on_c, 9, 51, 0
5, 36836, Note_on_c, 9, 44, 0
5, 36869, Note_on_c, 9, 51, 29
5, 36881, Note_on_c, 9, 51, 0
5, 36899, Note_on_c, 9, 51, 48
5, 36982, Note_on_c, 9, 51, 0
5, 37018, Note_on_c, 9, 51, 59
5, 37030, Note_on_c, 9, 44, 38
5, 37064, Note_on_c, 9, 44, 0
5, 37110, Note_on_c, 9, 51, 0
5, 37150, Note_on_c, 9, 51, 55
5, 37228, Note_on_c, 9, 51, 0
5, 37272, Note_on_c, 9, 51, 55
5, 37275, Note_on_c, 9, 46, 34
5, 37321, Note_on_c, 9, 46, 0
5, 37331, Note_on_c, 9, 51, 0
5, 37360, Note_on_c, 9, 51, 29
5, 37377, Note_on_c, 9, 51, 0
5, 37396, Note_on_c, 9, 51, 53
5, 37475, Note_on_c, 9, 51, 0
5, 37523, Note_on_c, 9, 51, 77
5, 37534, Note_on_c, 9, 44, 28
5, 37572, Note_on_c, 9, 44, 0
5, 37598, Note_on_c, 9, 51, 0
5, 37647, Note_on_c, 9, 51, 49
5, 37715, Note_on_c, 9, 51, 0
5, 37735, Note_on_c, 9, 51, 39
5, 37750, Note_on_c, 9, 51, 0
5, 37768, Note_on_c, 9, 44, 32
5, 37770, Note_on_c, 9, 51, 59
5, 37808, Note_on_c, 9, 44, 0
5, 37853, Note_on_c, 9, 51, 0
5, 37889, Note_on_c, 9, 51, 74
5, 37970, Note_on_c, 9, 51, 0
5, 38002, Note_on_c, 9, 44, 32
5, 38005, Note_on_c, 9, 51, 74
5, 38046, Note_on_c, 9, 44, 0
5, 38071, Note_on_c, 9, 51, 0
5, 38091, Note_on_c, 9, 51, 38
5, 38102, Note_on_c, 9, 51, 0
5, 38121, Note_on_c, 9, 51, 59
5, 38208, Note_on_c, 9, 51, 0
5, 38232, Note_on_c, 9, 44, 30
5, 38238, Note_on_c, 9, 51, 77
5, 38287, Note_on_c, 9, 44, 0
5, 38304, Note_on_c, 9, 51, 0
5, 38322, Note_on_c, 9, 51, 51
5, 38344, Note_on_c, 9, 51, 0
5, 38356, Note_on_c, 9, 51, 55
5, 38439, Note_on_c, 9, 51, 0
5, 38465, Note_on_c, 9, 44, 43
5, 38469, Note_on_c, 9, 51, 74
5, 38510, Note_on_c, 9, 44, 0
5, 38552, Note_on_c, 9, 51, 0
5, 38588, Note_on_c, 9, 51, 67
5, 38666, Note_on_c, 9, 51, 0
5, 38688, Note_on_c, 9, 51, 27
5, 38698, Note_on_c, 9, 44, 37
5, 38699, Note_on_c, 9, 51, 0
5, 38714, Note_on_c, 9, 51, 71
5, 38749, Note_on_c, 9, 44, 0
5, 38800, Note_on_c, 9, 51, 0
5, 38829, Note_on_c, 9, 51, 67
5, 38913, Note_on_c, 9, 51, 0
5, 38944, Note_on_c, 9, 44, 39
5, 38951, Note_on_c, 9, 51, 76
5, 38991, Note_on_c, 9, 44, 0
5, 39017, Note_on_c, 9, 51, 0
5, 39038, Note_on_c, 9, 51, 40
5, 39054, Note_on_c, 9, 51, 0
5, 39071, Note_on_c, 9, 51, 67
5, 39162, Note_on_c, 9, 51, 0
5, 39193, Note_on_c, 9, 44, 39
5, 39197, Note_on_c, 9, 51, 73
5, 39235, Note_on_c, 9, 44, 0
5, 39271, Note_on_c, 9, 51, 0
5, 39285, Note_on_c, 9, 51, 38
5, 39298, Note_on_c, 9, 51, 0
5, 39316, Note_on_c, 9, 51, 64
5, 39387, Note_on_c, 9, 51, 0
5, 39434, Note_on_c, 9, 51, 83
5, 39438, Note_on_c, 9, 44, 33
5, 39481, Note_on_c, 9, 44, 0
5, 39535, Note_on_c, 9, 51, 0
5, 39559, Note_on_c, 9, 51, 35
5, 39587, Note_on_c, 9, 51, 0
5, 39643, Note_on_c, 9, 51, 74
5, 39673, Note_on_c, 9, 51, 0
5, 39680, Note_on_c, 9, 44, 32
5, 39683, Note_on_c, 9, 51, 52
5, 39717, Note_on_c, 9, 44, 0
5, 39770, Note_on_c, 9, 51, 0
5, 39805, Note_on_c, 9, 51, 67
5, 39888, Note_on_c, 9, 51, 0
5, 39915, Note_on_c, 9, 44, 42
5, 39923, Note_on_c, 9, 51, 70
5, 39949, Note_on_c, 9, 44, 0
5, 40013, Note_on_c, 9, 51, 0
5, 40044, Note_on_c, 9, 51, 40
5, 40111, Note_on_c, 9, 51, 0
5, 40130, Note_on_c, 9, 51, 48
5, 40141, Note_on_c, 9, 51, 0
5, 40154, Note_on_c, 9, 46, 31
5, 40159, Note_on_c, 9, 51, 67
5, 40229, Note_on_c, 9, 46, 0
5, 40248, Note_on_c, 9, 51, 0
5, 40277, Note_on_c, 9, 51, 54
5, 40341, Note_on_c, 9, 51, 0
5, 40359, Note_on_c, 9, 51, 46
5, 40376, Note_on_c, 9, 51, 0
5, 40381, Note_on_c, 9, 44, 33
5, 40395, Note_on_c, 9, 51, 71
5, 40428, Note_on_c, 9, 44, 0
5, 40482, Note_on_c, 9, 51, 0
5, 40512, Note_on_c, 9, 51, 55
5, 40582, Note_on_c, 9, 51, 0
5, 40599, Note_on_c, 9, 51, 36
5, 40610, Note_on_c, 9, 51, 0
5, 40616, Note_on_c, 9, 44, 37
5, 40629, Note_on_c, 9, 51, 60
5, 40658, Note_on_c, 9, 44, 0
5, 40716, Note_on_c, 9, 51, 0
5, 40745, Note_on_c, 9, 51, 61
5, 40816, Note_on_c, 9, 51, 0
5, 40860, Note_on_c, 9, 44, 37
5, 40867, Note_on_c, 9, 51, 72
5, 40903, Note_on_c, 9, 44, 0
5, 40929, Note_on_c, 9, 51, 0
5, 40950, Note_on_c, 9, 51, 39
5, 40968, Note_on_c, 9, 51, 0
5, 40986, Note_on_c, 9, 51, 62
5, 41036, Note_on_c, 9, 51, 0
5, 41071, Note_on_c, 9, 51, 71
5, 41089, Note_on_c, 9, 51, 0
5, 41105, Note_on_c, 9, 51, 61
5, 41106, Note_on_c, 9, 44, 42
5, 41150, Note_on_c, 9, 44, 0
5, 41178, Note_on_c, 9, 51, 0
5, 41235, Note_on_c, 9, 51, 64
5, 41309, Note_on_c, 9, 51, 0
5, 41345, Note_on_c, 9, 44, 42
5, 41352, Note_on_c, 9, 51, 69
5, 41385, Note_on_c, 9, 44, 0
5, 41415, Note_on_c, 9, 51, 0
5, 41439, Note_on_c, 9, 51, 38
5, 41458, Note_on_c, 9, 51, 0
5, 41474, Note_on_c, 9, 51, 55
5, 41548, Note_on_c, 9, 51, 0
5, 41585, Note_on_c, 9, 44, 45
5, 41589, Note_on_c, 9, 51, 65
5, 41621, Note_on_c, 9, 44, 0
5, 41654, Note_on_c, 9, 51, 0
5, 41671, Note_on_c, 9, 51, 44
5, 41688, Note_on_c, 9, 51, 0
5, 41706, Note_on_c, 9, 51, 57
5, 41786, Note_on_c, 9, 51, 0
5, 41824, Note_on_c, 9, 44, 42
5, 41824, Note_on_c, 9, 51, 68
5, 41868, Note_on_c, 9, 44, 0
5, 41897, Note_on_c, 9, 51, 0
5, 41918, Note_on_c, 9, 51, 27
5, 41933, Note_on_c, 9, 51, 0
5, 41950, Note_on_c, 9, 51, 51
5, 42019, Note_on_c, 9, 51, 0
5, 42065, Note_on_c, 9, 51, 70
5, 42066, Note_on_c, 9, 44, 45
5, 42105, Note_on_c, 9, 44, 0
5, 42151, Note_on_c, 9, 51, 0
5, 42189, Note_on_c, 9, 51, 56
5, 42256, Note_on_c, 9, 51, 0
5, 42311, Note_on_c, 9, 51, 57
5, 42315, Note_on_c, 9, 44, 37
5, 42361, Note_on_c, 9, 44, 0
5, 42388, Note_on_c, 9, 51, 0
5, 42435, Note_on_c, 9, 51, 48
5, 42453, Note_on_c, 9, 51, 0
5, 42468, Note_on_c, 9, 51, 25
5, 42509, Note_on_c, 9, 51, 0
5, 42559, Note_on_c, 9, 51, 64
5, 42561, Note_on_c, 9, 44, 46
5, 42607, Note_on_c, 9, 44, 0
5, 42632, Note_on_c, 9, 51, 0
5, 42681, Note_on_c, 9, 51, 56
5, 42763, Note_on_c, 9, 51, 0
5, 42798, Note_on_c, 9, 44, 51
5, 42799, Note_on_c, 9, 51, 57
5, 42840, Note_on_c, 9, 44, 0
5, 42859, Note_on_c, 9, 51, 0
5, 42880, Note_on_c, 9, 51, 39
5, 42894, Note_on_c, 9, 51, 0
5, 42913, Note_on_c, 9, 51, 63
5, 43003, Note_on_c, 9, 51, 0
5, 43036, Note_on_c, 9, 44, 49
5, 43039, Note_on_c, 9, 51, 60
5, 43078, Note_on_c, 9, 44, 0
5, 43123, Note_on_c, 9, 51, 0
5, 43161, Note_on_c, 9, 51, 62
5, 43241, Note_on_c, 9, 51, 0
5, 43280, Note_on_c, 9, 44, 50
5, 43284, Note_on_c, 9, 51, 62
5, 43323, Note_on_c, 9, 44, 0
5, 43350, Note_on_c, 9, 51, 0
5, 43376, Note_on_c, 9, 51, 28
5, 43390, Note_on_c, 9, 51, 0
5, 43407, Note_on_c, 9, 51, 55
5, 43495, Note_on_c, 9, 51, 0
5, 43524, Note_on_c, 9, 44, 44
5, 43532, Note_on_c, 9, 51, 64
5, 43565, Note_on_c, 9, 44, 0
5, 43621, Note_on_c, 9, 51, 0
5, 43658, Note_on_c, 9, 51, 60
5, 43732, Note_on_c, 9, 51, 0
5, 43764, Note_on_c, 9, 51, 37
5, 43770, Note_on_c, 9, 44, 35
5, 43812, Note_on_c, 9, 51, 0
5, 43817, Note_on_c, 9, 44, 0
5, 43855, Note_on_c, 9, 51, 50
5, 43875, Note_on_c, 9, 51, 0
5, 43892, Note_on_c, 9, 51, 62
5, 43966, Note_on_c, 9, 51, 0
5, 44005, Note_on_c, 9, 46, 34
5, 44014, Note_on_c, 9, 51, 75
5, 44044, Note_on_c, 9, 46, 0
5, 44076, Note_on_c, 9, 51, 0
5, 44099, Note_on_c, 9, 51, 37
5, 44111, Note_on_c, 9, 51, 0
5, 44129, Note_on_c, 9, 51, 61
5, 44202, Note_on_c, 9, 51, 0
5, 44243, Note_on_c, 9, 44, 38
5, 44252, Note_on_c, 9, 51, 72
5, 44283, Note_on_c, 9, 44, 0
5, 44341, Note_on_c, 9, 51, 0
5, 44376, Note_on_c, 9, 51, 57
5, 44440, Note_on_c, 9, 51, 0
5, 44460, Note_on_c, 9, 51, 35
5, 44470, Note_on_c, 9, 51, 0
5, 44487, Note_on_c, 9, 44, 34
5, 44489, Note_on_c, 9, 51, 51
5, 44531, Note_on_c, 9, 44, 0
5, 44574, Note_on_c, 9, 51, 0
5, 44617, Note_on_c, 9, 51, 67
5, 44688, Note_on_c, 9, 51, 0
5, 44724, Note_on_c, 9, 44, 35
5, 44737, Note_on_c, 9, 51, 67
5, 44762, Note_on_c, 9, 44, 0
5, 44796, Note_on_c, 9, 51, 0
5, 44854, Note_on_c, 9, 51, 59
5, 44908, Note_on_c, 9, 51, 0
5, 44938, Note_on_c, 9, 51, 28
5, 44951, Note_on_c, 9, 51, 0
5, 44962, Note_on_c, 9, 44, 42
5, 44969, Note_on_c, 9, 51, 47
5, 44996, Note_on_c, 9, 44, 0
5, 45027, Note_on_c, 9, 51, 0
5, 45054, Note_on_c, 9, 51, 64
5, 45146, Note_on_c, 9, 51, 0
5, 45167, Note_on_c, 9, 51, 37
5, 45183, Note_on_c, 9, 51, 0
5, 45192, Note_on_c, 9, 44, 43
5, 45202, Note_on_c, 9, 51, 59
5, 45220, Note_on_c, 9, 44, 0
5, 45282, Note_on_c, 9, 51, 0
5, 45317, Note_on_c, 9, 51, 64
5, 45381, Note_on_c, 9, 51, 0
5, 45402, Note_on_c, 9, 51, 33
5, 45415, Note_on_c, 9, 51, 0
5, 45433, Note_on_c, 9, 51, 63
5, 45436, Note_on_c, 9, 44, 35
5, 45475, Note_on_c, 9, 44, 0
5, 45513, Note_on_c, 9, 51, 0
5, 45548, Note_on_c, 9, 51, 68
5, 45604, Note_on_c, 9, 51, 0
5, 45668, Note_on_c, 9, 51, 67
5, 45669, Note_on_c, 9, 44, 38
5, 45701, Note_on_c, 9, 44, 0
5, 45737, Note_on_c, 9, 51, 0
5, 45769, Note_on_c, 9, 51, 26
5, 45783, Note_on_c, 9, 51, 0
5, 45794, Note_on_c, 9, 51, 31
5, 45868, Note_on_c, 9, 51, 0
5, 45905, Note_on_c, 9, 44, 39
5, 45914, Note_on_c, 9, 51, 72
5, 45941, Note_on_c, 9, 44, 0
5, 45982, Note_on_c, 9, 51, 0
5, 46034, Note_on_c, 9, 51, 64
5, 46106, Note_on_c, 9, 51, 0
5, 46148, Note_on_c, 9, 44, 40
5, 46159, Note_on_c, 9, 51, 76
5, 46186, Note_on_c, 9, 44, 0
5, 46231, Note_on_c, 9, 51, 0
5, 46276, Note_on_c, 9, 51, 56
5, 46341, Note_on_c, 9, 51, 0
5, 46397, Note_on_c, 9, 44, 37
5, 46397, Note_on_c, 9, 51, 60
5, 46435, Note_on_c, 9, 44, 0
5, 46482, Note_on_c, 9, 51, 0
5, 46519, Note_on_c, 9, 51, 49
5, 46597, Note_on_c, 9, 51, 0
5, 46633, Note_on_c, 9, 51, 63
5, 46635, Note_on_c, 9, 44, 38
5, 46671, Note_on_c, 9, 44, 0
5, 46672, Note_on_c, 9, 51, 0
5, 46715, Note_on_c, 9, 51, 50
5, 46736, Note_on_c, 9, 51, 0
5, 46753, Note_on_c, 9, 51, 43
5, 46805, Note_on_c, 9, 51, 0
5, 46872, Note_on_c, 9, 44, 40
5, 46874, Note_on_c, 9, 51, 54
5, 46875, Note_on_c, 9, 54, 51
5, 46907, Note_on_c, 9, 44, 0
5, 46912, Note_on_c, 9, 51, 0
5, 46913, Note_on_c, 9, 54, 0
5, 46995, Note_on_c, 9, 51, 42
5, 47062, Note_on_c, 9, 51, 0
5, 47113, Note_on_c, 9, 46, 31
5, 47118, Note_on_c, 9, 51, 60
5, 47121, Note_on_c, 9, 53, 57
5, 47205, Note_on_c, 9, 51, 0
5, 47215, Note_on_c, 9, 53, 0
5, 47243, Note_on_c, 9, 51, 25
5, 47273, Note_on_c, 9, 51, 0
5, 47298, Note_on_c, 9, 46, 0
5, 47354, Note_on_c, 9, 51, 61
5, 47358, Note_on_c, 9, 53, 50
5, 47439, Note_on_c, 9, 51, 0
5, 47448, Note_on_c, 9, 53, 0
5, 47475, Note_on_c, 9, 51, 25
5, 47520, Note_on_c, 9, 51, 0
5, 47591, Note_on_c, 9, 51, 65
5, 47595, Note_on_c, 9, 53, 57
5, 47601, Note_on_c, 9, 44, 37
5, 47678, Note_on_c, 9, 44, 0
5, 47685, Note_on_c, 9, 51, 0
5, 47694, Note_on_c, 9, 53, 0
5, 47723, Note_on_c, 9, 51, 28
5, 47762, Note_on_c, 9, 51, 0
5, 47833, Note_on_c, 9, 44, 37
5, 47836, Note_on_c, 9, 51, 62
5, 47838, Note_on_c, 9, 53, 57
5, 47881, Note_on_c, 9, 44, 0
5, 47926, Note_on_c, 9, 51, 0
5, 47932, Note_on_c, 9, 53, 0
5, 47956, Note_on_c, 9, 51, 36
5, 48006, Note_on_c, 9, 51, 0
5, 48067, Note_on_c, 9, 44, 45
5, 48069, Note_on_c, 9, 51, 64
5, 48073, Note_on_c, 9, 53, 58
5, 48106, Note_on_c, 9, 44, 0
5, 48154, Note_on_c, 9, 51, 0
5, 48158, Note_on_c, 9, 53, 0
5, 48204, Note_on_c, 9, 51, 26
5, 48214, Note_on_c, 9, 51, 0
5, 48300, Note_on_c, 9, 44, 44
5, 48313, Note_on_c, 9, 51, 56
5, 48315, Note_on_c, 9, 53, 55
5, 48344, Note_on_c, 9, 44, 0
5, 48395, Note_on_c, 9, 53, 0
5, 48403, Note_on_c, 9, 51, 0
5, 48439, Note_on_c, 9, 51, 38
5, 48447, Note_on_c, 9, 53, 26
5, 48502, Note_on_c, 9, 53, 0
5, 48503, Note_on_c, 9, 51, 0
5, 48555, Note_on_c, 9, 44, 37
5, 48556, Note_on_c, 9, 51, 58
5, 48556, Note_on_c, 9, 53, 57
5, 48606, Note_on_c, 9, 44, 0
5, 48631, Note_on_c, 9, 53, 0
5, 48640, Note_on_c, 9, 51, 0
5, 48674, Note_on_c, 9, 51, 35
5, 48683, Note_on_c, 9, 53, 27
5, 48733, Note_on_c, 9, 51, 0
5, 48739, Note_on_c, 9, 53, 0
5, 48797, Note_on_c, 9, 51, 55
5, 48800, Note_on_c, 9, 53, 49
5, 48802, Note_on_c, 9, 44, 35
5, 48841, Note_on_c, 9, 53, 0
5, 48841, Note_on_c, 9, 51, 0
5, 48847, Note_on_c, 9, 44, 0
5, 48897, Note_on_c, 9, 51, 64
5, 48914, Note_on_c, 9, 51, 0
5, 48935, Note_on_c, 9, 51, 60
5, 49004, Note_on_c, 9, 51, 0
5, 49055, Note_on_c, 9, 51, 88
5, 49059, Note_on_c, 9, 46, 38
5, 49101, Note_on_c, 9, 46, 0
5, 49136, Note_on_c, 9, 51, 0
5, 49158, Note_on_c, 9, 51, 53
5, 49174, Note_on_c, 9, 51, 0
5, 49187, Note_on_c, 9, 51, 37
5, 49236, Note_on_c, 9, 51, 0
5, 49279, Note_on_c, 9, 51, 71
5, 49341, Note_on_c, 9, 51, 0
5, 49386, Note_on_c, 9, 51, 63
5, 49405, Note_on_c, 9, 51, 0
5, 49418, Note_on_c, 9, 51, 81
5, 49494, Note_on_c, 9, 51, 0
5, 49532, Note_on_c, 9, 44, 31
5, 49578, Note_on_c, 9, 44, 0
5, 49614, Note_on_c, 9, 51, 77
5, 49637, Note_on_c, 9, 51, 0
5, 49654, Note_on_c, 9, 51, 62
5, 49741, Note_on_c, 9, 51, 0
5, 49776, Note_on_c, 9, 44, 30
5, 49777, Note_on_c, 9, 51, 76
5, 49833, Note_on_c, 9, 44, 0
5, 49870, Note_on_c, 9, 51, 0
5, 49902, Note_on_c, 9, 51, 79
5, 49983, Note_on_c, 9, 51, 0
5, 50021, Note_on_c, 9, 51, 65
5, 50021, Note_on_c, 9, 44, 40
5, 50061, Note_on_c, 9, 44, 0
5, 50080, Note_on_c, 9, 51, 0
5, 50140, Note_on_c, 9, 51, 64
5, 50209, Note_on_c, 9, 51, 0
5, 50253, Note_on_c, 9, 51, 75
5, 50334, Note_on_c, 9, 51, 0
5, 50372, Note_on_c, 9, 51, 60
5, 50413, Note_on_c, 9, 51, 0
5, 50449, Note_on_c, 9, 51, 68
5, 50452, Note_on_c, 9, 53, 62
5, 50479, Note_on_c, 9, 44, 48
5, 50524, Note_on_c, 9, 44, 0
5, 50541, Note_on_c, 9, 51, 0
5, 50551, Note_on_c, 9, 53, 0
5, 50576, Note_on_c, 9, 51, 36
5, 50596, Note_on_c, 9, 51, 0
5, 50617, Note_on_c, 9, 51, 53
5, 50619, Note_on_c, 9, 53, 58
5, 50689, Note_on_c, 9, 51, 0
5, 50708, Note_on_c, 9, 53, 0
5, 50710, Note_on_c, 9, 46, 35
5, 50735, Note_on_c, 9, 51, 29
5, 50766, Note_on_c, 9, 51, 0
5, 50778, Note_on_c, 9, 46, 0
5, 50806, Note_on_c, 9, 51, 74
5, 50809, Note_on_c, 9, 53, 68
5, 50884, Note_on_c, 9, 51, 0
5, 50904, Note_on_c, 9, 53, 0
5, 50926, Note_on_c, 9, 51, 36
5, 50951, Note_on_c, 9, 51, 0
5, 50956, Note_on_c, 9, 44, 34
5, 50972, Note_on_c, 9, 51, 58
5, 50975, Note_on_c, 9, 53, 62
5, 51005, Note_on_c, 9, 44, 0
5, 51066, Note_on_c, 9, 51, 0
5, 51084, Note_on_c, 9, 53, 0
5, 51090, Note_on_c, 9, 51, 39
5, 51114, Note_on_c, 9, 51, 0
5, 51172, Note_on_c, 9, 51, 62
5, 51175, Note_on_c, 9, 53, 59
5, 51195, Note_on_c, 9, 44, 38
5, 51233, Note_on_c, 9, 44, 0
5, 51245, Note_on_c, 9, 51, 0
5, 51262, Note_on_c, 9, 53, 0
5, 51283, Note_on_c, 9, 51, 34
5, 51307, Note_on_c, 9, 51, 0
5, 51330, Note_on_c, 9, 51, 48
5, 51417, Note_on_c, 9, 51, 0
5, 51432, Note_on_c, 9, 44, 35
5, 51451, Note_on_c, 9, 51, 67
5, 51483, Note_on_c, 9, 44, 0
5, 51505, Note_on_c, 9, 51, 0
5, 51531, Note_on_c, 9, 51, 39
5, 51549, Note_on_c, 9, 51, 0
5, 51566, Note_on_c, 9, 51, 56
5, 51647, Note_on_c, 9, 51, 0
5, 51669, Note_on_c, 9, 44, 31
5, 51679, Note_on_c, 9, 51, 55
5, 51714, Note_on_c, 9, 44, 0
5, 51725, Note_on_c, 9, 51, 0
5, 51758, Note_on_c, 9, 51, 50
5, 51780, Note_on_c, 9, 51, 0
5, 51799, Note_on_c, 9, 51, 46
5, 51804, Note_on_c, 9, 53, 46
5, 51848, Note_on_c, 9, 51, 0
5, 51851, Note_on_c, 9, 53, 0
5, 51881, Note_on_c, 9, 51, 47
5, 51881, Note_on_c, 9, 53, 40
5, 51893, Note_on_c, 9, 44, 43
5, 51921, Note_on_c, 9, 53, 0
5, 51923, Note_on_c, 9, 51, 0
5, 51950, Note_on_c, 9, 44, 0
5, 51984, Note_on_c, 9, 51, 55
5, 52009, Note_on_c, 9, 51, 0
5, 52029, Note_on_c, 9, 51, 48
5, 52033, Note_on_c, 9, 53, 62
5, 52088, Note_on_c, 9, 53, 0
5, 52088, Note_on_c, 9, 51, 0
5, 52137, Note_on_c, 9, 51, 46
5, 52144, Note_on_c, 9, 44, 40
5, 52186, Note_on_c, 9, 51, 0
5, 52201, Note_on_c, 9, 44, 0
5, 52227, Note_on_c, 9, 51, 53
5, 52249, Note_on_c, 9, 51, 0
5, 52266, Note_on_c, 9, 51, 64
5, 52349, Note_on_c, 9, 51, 0
5, 52385, Note_on_c, 9, 51, 57
5, 52396, Note_on_c, 9, 44, 42
5, 52445, Note_on_c, 9, 44, 0
5, 52483, Note_on_c, 9, 51, 0
5, 52516, Note_on_c, 9, 51, 53
5, 52586, Note_on_c, 9, 51, 0
5, 52612, Note_on_c, 9, 51, 48
5, 52625, Note_on_c, 9, 51, 0
5, 52639, Note_on_c, 9, 44, 39
5, 52647, Note_on_c, 9, 51, 56
5, 52691, Note_on_c, 9, 44, 0
5, 52733, Note_on_c, 9, 51, 0
5, 52765, Note_on_c, 9, 51, 56
5, 52842, Note_on_c, 9, 51, 0
5, 52879, Note_on_c, 9, 44, 40
5, 52885, Note_on_c, 9, 51, 67
5, 52929, Note_on_c, 9, 44, 0
5, 52945, Note_on_c, 9, 51, 0
5, 52982, Note_on_c, 9, 51, 43
5, 53003, Note_on_c, 9, 51, 0
5, 53017, Note_on_c, 9, 51, 50
5, 53099, Note_on_c, 9, 51, 0
5, 53135, Note_on_c, 9, 46, 48
5, 53140, Note_on_c, 9, 51, 69
5, 53207, Note_on_c, 9, 51, 0
5, 53229, Note_on_c, 9, 51, 44
5, 53252, Note_on_c, 9, 51, 0
5, 53267, Note_on_c, 9, 51, 55
5, 53344, Note_on_c, 9, 51, 0
5, 53373, Note_on_c, 9, 46, 0
5, 53376, Note_on_c, 9, 44, 50
5, 53390, Note_on_c, 9, 51, 71
5, 53461, Note_on_c, 9, 51, 0
5, 53461, Note_on_c, 9, 44, 0
5, 53479, Note_on_c, 9, 51, 52
5, 53499, Note_on_c, 9, 51, 0
5, 53514, Note_on_c, 9, 51, 56
5, 53587, Note_on_c, 9, 51, 0
5, 53611, Note_on_c, 9, 44, 39
5, 53628, Note_on_c, 9, 51, 67
5, 53671, Note_on_c, 9, 44, 0
5, 53691, Note_on_c, 9, 51, 0
5, 53710, Note_on_c, 9, 51, 44
5, 53725, Note_on_c, 9, 51, 0
5, 53744, Note_on_c, 9, 51, 64
5, 53816, Note_on_c, 9, 51, 0
5, 53859, Note_on_c, 9, 44, 37
5, 53862, Note_on_c, 9, 51, 73
5, 53940, Note_on_c, 9, 51, 0
5, 53959, Note_on_c, 9, 44, 0
5, 53988, Note_on_c, 9, 51, 67
5, 54068, Note_on_c, 9, 51, 0
5, 54105, Note_on_c, 9, 51, 62
5, 54105, Note_on_c, 9, 44, 37
5, 54153, Note_on_c, 9, 51, 0
5, 54157, Note_on_c, 9, 44, 0
5, 54186, Note_on_c, 9, 51, 46
5, 54196, Note_on_c, 9, 51, 0
5, 54220, Note_on_c, 9, 51, 54
5, 54319, Note_on_c, 9, 51, 0
5, 54347, Note_on_c, 9, 44, 39
5, 54400, Note_on_c, 9, 44, 0
5, 54421, Note_on_c, 9, 51, 57
5, 54440, Note_on_c, 9, 51, 0
5, 54458, Note_on_c, 9, 51, 54
5, 54532, Note_on_c, 9, 51, 0
5, 54578, Note_on_c, 9, 51, 77
5, 54585, Note_on_c, 9, 44, 34
5, 54623, Note_on_c, 9, 44, 0
5, 54649, Note_on_c, 9, 51, 0
5, 54666, Note_on_c, 9, 51, 67
5, 54704, Note_on_c, 9, 51, 0
5, 54778, Note_on_c, 9, 51, 59
5, 54798, Note_on_c, 9, 51, 0
5, 54813, Note_on_c, 9, 44, 38
5, 54821, Note_on_c, 9, 51, 59
5, 54851, Note_on_c, 9, 44, 0
5, 54895, Note_on_c, 9, 51, 0
5, 54941, Note_on_c, 9, 51, 60
5, 54996, Note_on_c, 9, 51, 0
5, 55019, Note_on_c, 9, 51, 60
5, 55045, Note_on_c, 9, 46, 50
5, 55066, Note_on_c, 9, 51, 0
5, 55131, Note_on_c, 9, 46, 0
5, 55134, Note_on_c, 9, 51, 78
5, 55197, Note_on_c, 9, 51, 0
5, 55248, Note_on_c, 9, 51, 59
5, 55267, Note_on_c, 9, 51, 0
5, 55282, Note_on_c, 9, 44, 39
5, 55290, Note_on_c, 9, 51, 60
5, 55333, Note_on_c, 9, 44, 0
5, 55358, Note_on_c, 9, 51, 0
5, 55496, Note_on_c, 9, 51, 69
5, 55519, Note_on_c, 9, 51, 0
5, 55526, Note_on_c, 9, 44, 43
5, 55536, Note_on_c, 9, 51, 53
5, 55564, Note_on_c, 9, 44, 0
5, 55573, Note_on_c, 9, 51, 0
5, 55619, Note_on_c, 9, 51, 71
5, 55705, Note_on_c, 9, 51, 0
5, 55734, Note_on_c, 9, 51, 39
5, 55758, Note_on_c, 9, 51, 0
5, 55759, Note_on_c, 9, 44, 42
5, 55775, Note_on_c, 9, 51, 67
5, 55821, Note_on_c, 9, 44, 0
5, 55849, Note_on_c, 9, 51, 0
5, 55900, Note_on_c, 9, 51, 71
5, 55972, Note_on_c, 9, 51, 0
5, 55992, Note_on_c, 9, 51, 30
5, 56008, Note_on_c, 9, 51, 0
5, 56008, Note_on_c, 9, 44, 44
5, 56029, Note_on_c, 9, 51, 53
5, 56065, Note_on_c, 9, 44, 0
5, 56068, Note_on_c, 9, 51, 0
5, 56112, Note_on_c, 9, 51, 76
5, 56212, Note_on_c, 9, 51, 0
5, 56230, Note_on_c, 9, 51, 52
5, 56251, Note_on_c, 9, 51, 0
5, 56254, Note_on_c, 9, 44, 36
5, 56269, Note_on_c, 9, 51, 67
5, 56323, Note_on_c, 9, 44, 0
5, 56344, Note_on_c, 9, 51, 0
5, 56385, Note_on_c, 9, 51, 72
5, 56468, Note_on_c, 9, 51, 0
5, 56487, Note_on_c, 9, 44, 42
5, 56503, Note_on_c, 9, 51, 59
5, 56560, Note_on_c, 9, 51, 0
5, 56562, Note_on_c, 9, 44, 0
5, 56582, Note_on_c, 9, 51, 48
5, 56603, Note_on_c, 9, 51, 0
5, 56618, Note_on_c, 9, 51, 70
5, 56691, Note_on_c, 9, 51, 0
5, 56738, Note_on_c, 9, 44, 40
5, 56739, Note_on_c, 9, 51, 71
5, 56794, Note_on_c, 9, 44, 0
5, 56810, Note_on_c, 9, 51, 0
5, 56831, Note_on_c, 9, 51, 36
5, 56842, Note_on_c, 9, 51, 0
5, 56860, Note_on_c, 9, 51, 60
5, 56934, Note_on_c, 9, 51, 0
5, 56975, Note_on_c, 9, 44, 38
5, 57026, Note_on_c, 9, 44, 0
5, 57064, Note_on_c, 9, 51, 64
5, 57085, Note_on_c, 9, 51, 0
5, 57104, Note_on_c, 9, 51, 53
5, 57160, Note_on_c, 9, 51, 0
5, 57190, Note_on_c, 9, 51, 63
5, 57208, Note_on_c, 9, 51, 0
5, 57219, Note_on_c, 9, 44, 42
5, 57227, Note_on_c, 9, 51, 51
5, 57264, Note_on_c, 9, 44, 0
5, 57282, Note_on_c, 9, 51, 0
5, 57306, Note_on_c, 9, 51, 69
5, 57395, Note_on_c, 9, 51, 0
5, 57428, Note_on_c, 9, 51, 37
5, 57450, Note_on_c, 9, 51, 0
5, 57463, Note_on_c, 9, 44, 42
5, 57468, Note_on_c, 9, 51, 67
5, 57509, Note_on_c, 9, 44, 0
5, 57526, Note_on_c, 9, 51, 0
5, 57549, Note_on_c, 9, 51, 62
5, 57630, Note_on_c, 9, 51, 0
5, 57672, Note_on_c, 9, 51, 52
5, 57688, Note_on_c, 9, 51, 0
5, 57700, Note_on_c, 9, 44, 42
5, 57715, Note_on_c, 9, 51, 62
5, 57749, Note_on_c, 9, 44, 0
5, 57764, Note_on_c, 9, 51, 0
5, 57794, Note_on_c, 9, 51, 71
5, 57868, Note_on_c, 9, 51, 0
5, 57899, Note_on_c, 9, 51, 44
5, 57924, Note_on_c, 9, 51, 0
5, 57936, Note_on_c, 9, 44, 39
5, 57950, Note_on_c, 9, 51, 59
5, 57957, Note_on_c, 9, 53, 57
5, 57987, Note_on_c, 9, 44, 0
5, 58006, Note_on_c, 9, 51, 0
5, 58016, Note_on_c, 9, 53, 0
5, 58054, Note_on_c, 9, 51, 48
5, 58101, Note_on_c, 9, 51, 0
5, 58140, Note_on_c, 9, 51, 55
5, 58143, Note_on_c, 9, 53, 56
5, 58178, Note_on_c, 9, 44, 43
5, 58215, Note_on_c, 9, 51, 0
5, 58220, Note_on_c, 9, 44, 0
5, 58230, Note_on_c, 9, 53, 0
5, 58252, Note_on_c, 9, 51, 36
5, 58287, Note_on_c, 9, 51, 0
5, 58317, Note_on_c, 9, 51, 58
5, 58319, Note_on_c, 9, 53, 54
5, 58391, Note_on_c, 9, 51, 0
5, 58409, Note_on_c, 9, 53, 0
5, 58413, Note_on_c, 9, 46, 35
5, 58428, Note_on_c, 9, 51, 34
5, 58472, Note_on_c, 9, 51, 0
5, 58473, Note_on_c, 9, 46, 0
5, 58498, Note_on_c, 9, 51, 54
5, 58502, Note_on_c, 9, 53, 58
5, 58573, Note_on_c, 9, 51, 0
5, 58594, Note_on_c, 9, 53, 0
5, 58620, Note_on_c, 9, 51, 37
5, 58649, Note_on_c, 9, 44, 49
5, 58650, Note_on_c, 9, 51, 0
5, 58666, Note_on_c, 9, 51, 60
5, 58669, Note_on_c, 9, 53, 65
5, 58696, Note_on_c, 9, 44, 0
5, 58740, Note_on_c, 9, 51, 0
5, 58741, Note_on_c, 9, 53, 0
5, 58779, Note_on_c, 9, 51, 27
5, 58821, Note_on_c, 9, 51, 0
5, 58854, Note_on_c, 9, 51, 61
5, 58857, Note_on_c, 9, 53, 58
5, 58892, Note_on_c, 9, 44, 39
5, 58931, Note_on_c, 9, 44, 0
5, 58939, Note_on_c, 9, 51, 0
5, 58951, Note_on_c, 9, 53, 0
5, 58967, Note_on_c, 9, 51, 34
5, 58984, Note_on_c, 9, 51, 0
5, 59102, Note_on_c, 9, 51, 71
5, 59133, Note_on_c, 9, 51, 0
5, 59141, Note_on_c, 9, 44, 40
5, 59184, Note_on_c, 9, 44, 0
5, 59220, Note_on_c, 9, 51, 61
5, 59245, Note_on_c, 9, 51, 0
5, 59263, Note_on_c, 9, 51, 53
5, 59347, Note_on_c, 9, 51, 0
5, 59377, Note_on_c, 9, 46, 39
5, 59383, Note_on_c, 9, 51, 55
5, 59424, Note_on_c, 9, 46, 0
5, 59437, Note_on_c, 9, 51, 0
5, 59463, Note_on_c, 9, 51, 57
5, 59484, Note_on_c, 9, 51, 0
5, 59502, Note_on_c, 9, 51, 48
5, 59545, Note_on_c, 9, 51, 0
5, 59580, Note_on_c, 9, 51, 62
5, 59599, Note_on_c, 9, 51, 0
5, 59620, Note_on_c, 9, 44, 38
5, 59624, Note_on_c, 9, 51, 44
5, 59661, Note_on_c, 9, 51, 0
5, 59663, Note_on_c, 9, 44, 0
5, 59700, Note_on_c, 9, 51, 60
5, 59703, Note_on_c, 9, 53, 53
5, 59733, Note_on_c, 9, 51, 0
5, 59753, Note_on_c, 9, 53, 0
5, 59778, Note_on_c, 9, 53, 44
5, 59778, Note_on_c, 9, 51, 52
5, 59822, Note_on_c, 9, 53, 0
5, 59828, Note_on_c, 9, 51, 0
5, 59848, Note_on_c, 9, 44, 39
5, 59867, Note_on_c, 9, 51, 54
5, 59883, Note_on_c, 9, 44, 0
5, 59899, Note_on_c, 9, 51, 0
5, 59943, Note_on_c, 9, 51, 60
5, 60004, Note_on_c, 9, 51, 0
5, 60053, Note_on_c, 9, 51, 56
5, 60073, Note_on_c, 9, 51, 0
5, 60090, Note_on_c, 9, 44, 37
5, 60091, Note_on_c, 9, 51, 53
5, 60127, Note_on_c, 9, 44, 0
5, 60144, Note_on_c, 9, 51, 0
5, 60170, Note_on_c, 9, 51, 71
5, 60250, Note_on_c, 9, 51, 0
5, 60286, Note_on_c, 9, 51, 55
5, 60308, Note_on_c, 9, 51, 0
5, 60327, Note_on_c, 9, 51, 53
5, 60330, Note_on_c, 9, 44, 34
5, 60370, Note_on_c, 9, 44, 0
5, 60374, Note_on_c, 9, 51, 0
5, 60416, Note_on_c, 9, 51, 46
5, 60426, Note_on_c, 9, 51, 0
5, 60452, Note_on_c, 9, 51, 49
5, 60528, Note_on_c, 9, 51, 0
5, 60574, Note_on_c, 9, 51, 71
5, 60636, Note_on_c, 9, 51, 0
5, 60658, Note_on_c, 9, 51, 46
5, 60677, Note_on_c, 9, 51, 0
5, 60696, Note_on_c, 9, 51, 57
5, 60775, Note_on_c, 9, 51, 0
5, 60815, Note_on_c, 9, 51, 69
5, 60818, Note_on_c, 9, 44, 36
5, 60867, Note_on_c, 9, 44, 0
5, 60886, Note_on_c, 9, 51, 0
5, 60906, Note_on_c, 9, 51, 34
5, 60924, Note_on_c, 9, 51, 0
5, 61055, Note_on_c, 9, 44, 39
5, 61065, Note_on_c, 9, 51, 67
5, 61097, Note_on_c, 9, 44, 0
5, 61116, Note_on_c, 9, 51, 0
5, 61186, Note_on_c, 9, 51, 49
5, 61208, Note_on_c, 9, 51, 0
5, 61273, Note_on_c, 9, 51, 53
5, 61291, Note_on_c, 9, 44, 43
5, 61292, Note_on_c, 9, 51, 0
5, 61310, Note_on_c, 9, 51, 59
5, 61335, Note_on_c, 9, 44, 0
5, 61387, Note_on_c, 9, 51, 0
5, 61424, Note_on_c, 9, 51, 62
5, 61508, Note_on_c, 9, 51, 0
5, 61542, Note_on_c, 9, 44, 39
5, 61550, Note_on_c, 9, 51, 62
5, 61589, Note_on_c, 9, 44, 0
5, 61614, Note_on_c, 9, 51, 0
5, 61632, Note_on_c, 9, 51, 48
5, 61651, Note_on_c, 9, 51, 0
5, 61668, Note_on_c, 9, 51, 64
5, 61741, Note_on_c, 9, 51, 0
5, 61784, Note_on_c, 9, 44, 34
5, 61787, Note_on_c, 9, 51, 64
5, 61832, Note_on_c, 9, 44, 0
5, 61835, Note_on_c, 9, 51, 0
5, 61872, Note_on_c, 9, 51, 44
5, 61884, Note_on_c, 9, 51, 0
5, 61905, Note_on_c, 9, 51, 53
5, 61979, Note_on_c, 9, 51, 0
5, 62024, Note_on_c, 9, 46, 29
5, 62024, Note_on_c, 9, 51, 63
5, 62073, Note_on_c, 9, 46, 0
5, 62100, Note_on_c, 9, 51, 0
5, 62144, Note_on_c, 9, 51, 59
5, 62219, Note_on_c, 9, 51, 0
5, 62253, Note_on_c, 9, 44, 36
5, 62267, Note_on_c, 9, 51, 59
5, 62298, Note_on_c, 9, 44, 0
5, 62315, Note_on_c, 9, 51, 0
5, 62352, Note_on_c, 9, 51, 37
5, 62362, Note_on_c, 9, 51, 0
5, 62386, Note_on_c, 9, 51, 40
5, 62454, Note_on_c, 9, 51, 0
5, 62488, Note_on_c, 9, 44, 36
5, 62501, Note_on_c, 9, 51, 69
5, 62534, Note_on_c, 9, 44, 0
5, 62562, Note_on_c, 9, 51, 0
5, 62583, Note_on_c, 9, 51, 46
5, 62602, Note_on_c, 9, 51, 0
5, 62620, Note_on_c, 9, 51, 65
5, 62689, Note_on_c, 9, 51, 0
5, 62728, Note_on_c, 9, 44, 42
5, 62738, Note_on_c, 9, 51, 67
5, 62766, Note_on_c, 9, 44, 0
5, 62792, Note_on_c, 9, 51, 0
5, 62822, Note_on_c, 9, 51, 37
5, 62841, Note_on_c, 9, 51, 0
5, 62859, Note_on_c, 9, 51, 60
5, 62927, Note_on_c, 9, 51, 0
5, 62977, Note_on_c, 9, 44, 38
5, 62977, Note_on_c, 9, 51, 60
5, 63031, Note_on_c, 9, 44, 0
5, 63055, Note_on_c, 9, 51, 0
5, 63105, Note_on_c, 9, 51, 35
5, 63143, Note_on_c, 9, 51, 0
5, 63186, Note_on_c, 9, 51, 53
5, 63189, Note_on_c, 9, 53, 51
5, 63209, Note_on_c, 9, 51, 0
5, 63212, Note_on_c, 9, 53, 0
5, 63227, Note_on_c, 9, 44, 33
5, 63232, Note_on_c, 9, 51, 33
5, 63236, Note_on_c, 9, 53, 31
5, 63267, Note_on_c, 9, 44, 0
5, 63273, Note_on_c, 9, 53, 0
5, 63276, Note_on_c, 9, 51, 0
5, 63346, Note_on_c, 9, 51, 29
5, 63406, Note_on_c, 9, 51, 0
5, 63461, Note_on_c, 9, 51, 40
5, 63461, Note_on_c, 9, 46, 28
5, 63466, Note_on_c, 9, 53, 41
5, 63531, Note_on_c, 9, 53, 0
5, 63535, Note_on_c, 9, 46, 0
5, 63537, Note_on_c, 9, 51, 0
5, 63585, Note_on_c, 9, 51, 35
5, 63650, Note_on_c, 9, 51, 0
5, 63697, Note_on_c, 9, 46, 33
5, 63704, Note_on_c, 9, 51, 37
5, 63712, Note_on_c, 9, 53, 31
5, 63757, Note_on_c, 9, 46, 0
5, 63767, Note_on_c, 9, 53, 0
5, 63772, Note_on_c, 9, 51, 0
5, 63818, Note_on_c, 9, 51, 28
5, 63893, Note_on_c, 9, 51, 0
5, 63940, Note_on_c, 9, 51, 35
5, 63951, Note_on_c, 9, 46, 30
5, 63995, Note_on_c, 9, 46, 0
5, 64008, Note_on_c, 9, 51, 0
5, 64064, Note_on_c, 9, 51, 32
5, 64138, Note_on_c, 9, 51, 0
5, 64186, Note_on_c, 9, 46, 30
5, 64186, Note_on_c, 9, 51, 53
5, 64237, Note_on_c, 9, 46, 0
5, 64258, Note_on_c, 9, 51, 0
5, 64277, Note_on_c, 9, 51, 42
5, 64295, Note_on_c, 9, 51, 0
5, 64315, Note_on_c, 9, 51, 49
5, 64361, Note_on_c, 9, 51, 0
5, 64392, Note_on_c, 9, 51, 67
5, 64416, Note_on_c, 9, 51, 0
5, 64427, Note_on_c, 9, 46, 34
5, 64431, Note_on_c, 9, 51, 62
5, 64471, Note_on_c, 9, 46, 0
5, 64512, Note_on_c, 9, 51, 0
5, 64626, Note_on_c, 9, 51, 40
5, 64639, Note_on_c, 9, 51, 0
5, 64663, Note_on_c, 9, 46, 30
5, 64667, Note_on_c, 9, 51, 50
5, 64715, Note_on_c, 9, 46, 0
5, 64749, Note_on_c, 9, 51, 0
5, 64857, Note_on_c, 9, 51, 47
5, 64878, Note_on_c, 9, 51, 0
5, 64891, Note_on_c, 9, 46, 28
5, 64898, Note_on_c, 9, 51, 43
5, 64932, Note_on_c, 9, 51, 0
5, 64951, Note_on_c, 9, 46, 0
5, 64968, Note_on_c, 9, 51, 43
5, 64974, Note_on_c, 9, 53, 42
5, 65032, Note_on_c, 9, 53, 0
5, 65032, Note_on_c, 9, 51, 0
5, 65076, Note_on_c, 9, 51, 28
5, 65100, Note_on_c, 9, 51, 0
5, 65115, Note_on_c, 9, 46, 35
5, 65130, Note_on_c, 9, 51, 37
5, 65133, Note_on_c, 9, 53, 42
5, 65169, Note_on_c, 9, 46, 0
5, 65197, Note_on_c, 9, 51, 0
5, 65202, Note_on_c, 9, 53, 0
5, 65241, Note_on_c, 9, 51, 36
5, 65273, Note_on_c, 9, 51, 0
5, 65322, Note_on_c, 9, 51, 21
5, 65326, Note_on_c, 9, 53, 24
5, 65344, Note_on_c, 9, 46, 35
5, 65370, Note_on_c, 9, 51, 0
5, 65373, Note_on_c, 9, 53, 0
5, 65398, Note_on_c, 9, 46, 0
5, 65421, Note_on_c, 9, 51, 36
5, 65446, Note_on_c, 9, 51, 0
5, 65476, Note_on_c, 9, 51, 25
5, 65480, Note_on_c, 9, 53, 32
5, 65538, Note_on_c, 9, 53, 0
5, 65552, Note_on_c, 9, 51, 0
5, 65592, Note_on_c, 9, 46, 29
5, 65597, Note_on_c, 9, 51, 26
5, 65633, Note_on_c, 9, 51, 0
5, 65643, Note_on_c, 9, 46, 0
5, 65676, Note_on_c, 9, 51, 33
5, 65742, Note_on_c, 9, 51, 0
5, 65791, Note_on_c, 9, 51, 34
5, 65815, Note_on_c, 9, 51, 0
5, 65834, Note_on_c, 9, 44, 37
5, 65841, Note_on_c, 9, 51, 29
5, 65871, Note_on_c, 9, 51, 0
5, 65885, Note_on_c, 9, 44, 0
5, 65924, Note_on_c, 9, 51, 46
5, 65982, Note_on_c, 9, 51, 0
5, 66042, Note_on_c, 9, 51, 27
5, 66069, Note_on_c, 9, 51, 0
5, 66079, Note_on_c, 9, 44, 33
5, 66088, Note_on_c, 9, 51, 18
5, 66091, Note_on_c, 9, 59, 24
5, 66116, Note_on_c, 9, 44, 0
5, 66136, Note_on_c, 9, 59, 0
5, 66138, Note_on_c, 9, 51, 0
5, 66170, Note_on_c, 9, 59, 40
5, 66172, Note_on_c, 9, 51, 32
5, 66215, Note_on_c, 9, 59, 0
5, 66228, Note_on_c, 9, 51, 0
5, 66288, Note_on_c, 9, 59, 34
5, 66288, Note_on_c, 9, 51, 26
5, 66310, Note_on_c, 9, 59, 0
5, 66320, Note_on_c, 9, 51, 0
5, 66339, Note_on_c, 9, 51, 13
5, 66343, Note_on_c, 9, 59, 30
5, 66371, Note_on_c, 9, 59, 0
5, 66381, Note_on_c, 9, 51, 0
5, 66419, Note_on_c, 9, 59, 24
5, 66420, Note_on_c, 9, 51, 25
5, 66462, Note_on_c, 9, 59, 0
5, 66474, Note_on_c, 9, 51, 0
5, 66523, Note_on_c, 9, 59, 30
5, 66547, Note_on_c, 9, 59, 0
5, 66580, Note_on_c, 9, 59, 29
5, 66612, Note_on_c, 9, 59, 0
5, 66659, Note_on_c, 9, 59, 31
5, 66716, Note_on_c, 9, 59, 0
5, 66782, Note_on_c, 9, 59, 19
5, 66801, Note_on_c, 9, 59, 0
5, 66827, Note_on_c, 9, 59, 24
5, 66875, Note_on_c, 9, 59, 0
5, 66910, Note_on_c, 9, 59, 27
5, 66981, Note_on_c, 9, 59, 0
5, 67071, Note_on_c, 9, 59, 29
5, 67234, Note_on_c, 9, 59, 0
5, 67273, Note_on_c, 9, 59, 24
5, 67407, Note_on_c, 9, 59, 0
5, 67469, Note_on_c, 9, 59, 28
5, 67829, Note_on_c, 9, 59, 0
5, 67829, End_track
0, 0, End_of_file
