0, 0, Header, 1, 5, 960
1, 0, Start_track
1, 0, Title_t, "Don't Explain"
1, 0, Text_t, "dougmck@pipeline.com.au\012"
1, 0, Time_signature, 4, 2, 24, 8
1, 0, Key_signature, -5, "major"
1, 0, Tempo, 857143
1, 26880, Marker_t, "Deliberately no legato in stride"
1, 122880, Marker_t, "More staccato stride style"
1, 126720, Marker_t, "Stride - LH extreme low register, RH extreme high"
1, 128704, Marker_t, "Broken line - with an 'escape' tone repeating"
1, 134400, Marker_t, "Same idea with same notes but different rhythm"
1, 138240, Marker_t, "Deliberate dissonant chord (s)"
1, 151018, Marker_t, "On F7 bass note rises chromatically to tritone (B)"
1, 157440, Marker_t, "Ornaments surround series of descending tones"
1, 188160, Marker_t, "On Ab13, RH breaks a D Maj triad into pairs of 6ths."
1, 193595, Marker_t, "Chromatic 32nd notes linking C# dim chord tones (On  Gb13/C7#9 chords)"
1, 215040, Marker_t, "Easy reach 'bluesy' 10th in RH"
1, 227875, Marker_t, "Cliche 'bluesy' repetitive figure"
1, 250262, Marker_t, "On last dominant chord (Ab7sus) a rapid black note pedalled ascending glissando"
1, 250262, End_track
2, 0, Start_track
2, 0, End_track
3, 0, Start_track
3, 0, End_track
4, 0, Start_track
4, 0, Title_t, "MIDI 1"
4, 0, Control_c, 0, 64, 127
4, 0, Control_c, 0, 64, 0
4, 0, Note_on_c, 0, 85, 55
4, 0, Note_on_c, 0, 61, 37
4, 0, Note_on_c, 0, 56, 38
4, 0, Note_on_c, 0, 65, 22
4, 1, Note_on_c, 0, 60, 30
4, 154, Control_c, 0, 64, 127
4, 362, Note_on_c, 0, 65, 0
4, 376, Note_on_c, 0, 60, 0
4, 412, Note_on_c, 0, 61, 0
4, 448, Note_on_c, 0, 56, 0
4, 485, Note_on_c, 0, 85, 0
4, 945, Control_c, 0, 64, 0
4, 955, Note_on_c, 0, 61, 39
4, 973, Note_on_c, 0, 56, 35
4, 984, Note_on_c, 0, 46, 30
4, 1110, Control_c, 0, 64, 127
4, 1247, Note_on_c, 0, 56, 0
4, 1299, Note_on_c, 0, 46, 0
4, 1343, Note_on_c, 0, 61, 0
4, 1889, Control_c, 0, 64, 0
4, 1933, Note_on_c, 0, 58, 35
4, 1936, Note_on_c, 0, 53, 20
4, 1942, Note_on_c, 0, 43, 35
4, 2095, Control_c, 0, 64, 127
4, 2214, Note_on_c, 0, 43, 0
4, 2216, Note_on_c, 0, 53, 0
4, 2373, Note_on_c, 0, 58, 0
4, 2909, Note_on_c, 0, 61, 33
4, 2936, Control_c, 0, 64, 0
4, 2939, Note_on_c, 0, 55, 29
4, 2959, Note_on_c, 0, 61, 0
4, 2984, Note_on_c, 0, 55, 0
4, 3312, Note_on_c, 0, 72, 46
4, 3412, Note_on_c, 0, 72, 0
4, 3575, Note_on_c, 0, 73, 56
4, 3623, Control_c, 0, 64, 127
4, 3696, Note_on_c, 0, 73, 0
4, 3787, Control_c, 0, 64, 0
4, 3856, Note_on_c, 0, 43, 29
4, 3869, Note_on_c, 0, 36, 20
4, 3893, Note_on_c, 0, 72, 44
4, 3982, Control_c, 0, 64, 127
4, 4096, Note_on_c, 0, 36, 0
4, 4115, Note_on_c, 0, 43, 0
4, 4804, Control_c, 0, 64, 0
4, 4805, Note_on_c, 0, 64, 40
4, 4825, Note_on_c, 0, 70, 44
4, 4835, Note_on_c, 0, 58, 38
4, 4968, Control_c, 0, 64, 127
4, 4998, Note_on_c, 0, 58, 0
4, 5142, Note_on_c, 0, 72, 0
4, 5172, Note_on_c, 0, 70, 0
4, 5212, Note_on_c, 0, 64, 0
4, 5811, Control_c, 0, 64, 0
4, 5818, Note_on_c, 0, 57, 47
4, 5819, Note_on_c, 0, 63, 49
4, 5824, Note_on_c, 0, 61, 38
4, 5828, Note_on_c, 0, 66, 43
4, 5831, Note_on_c, 0, 56, 59
4, 6253, Note_on_c, 0, 56, 0
4, 6299, Note_on_c, 0, 54, 57
4, 6406, Control_c, 0, 64, 127
4, 6601, Note_on_c, 0, 61, 0
4, 6617, Note_on_c, 0, 57, 0
4, 6745, Control_c, 0, 64, 0
4, 6766, Note_on_c, 0, 54, 0
4, 6771, Note_on_c, 0, 61, 39
4, 6787, Note_on_c, 0, 53, 34
4, 6788, Note_on_c, 0, 57, 36
4, 6949, Control_c, 0, 64, 127
4, 7058, Note_on_c, 0, 53, 0
4, 7100, Note_on_c, 0, 57, 0
4, 7176, Note_on_c, 0, 66, 0
4, 7209, Note_on_c, 0, 63, 0
4, 7221, Note_on_c, 0, 61, 0
4, 7236, Control_c, 0, 64, 0
4, 7283, Note_on_c, 0, 66, 51
4, 7286, Note_on_c, 0, 57, 57
4, 7289, Note_on_c, 0, 47, 36
4, 7292, Note_on_c, 0, 62, 51
4, 7411, Control_c, 0, 64, 127
4, 7494, Note_on_c, 0, 66, 0
4, 7515, Note_on_c, 0, 57, 0
4, 7527, Note_on_c, 0, 62, 0
4, 7534, Note_on_c, 0, 47, 0
4, 7719, Control_c, 0, 64, 0
4, 7754, Note_on_c, 0, 65, 34
4, 7758, Note_on_c, 0, 61, 35
4, 7769, Note_on_c, 0, 46, 27
4, 7771, Note_on_c, 0, 34, 35
4, 7783, Note_on_c, 0, 56, 20
4, 7904, Control_c, 0, 64, 127
4, 7973, Note_on_c, 0, 56, 0
4, 7988, Note_on_c, 0, 34, 0
4, 8073, Note_on_c, 0, 46, 0
4, 8138, Note_on_c, 0, 65, 0
4, 8158, Note_on_c, 0, 61, 0
4, 8670, Note_on_c, 0, 65, 36
4, 8671, Note_on_c, 0, 61, 35
4, 8690, Note_on_c, 0, 60, 35
4, 8701, Note_on_c, 0, 56, 31
4, 8724, Control_c, 0, 64, 0
4, 8858, Control_c, 0, 64, 127
4, 8944, Note_on_c, 0, 70, 54
4, 9204, Note_on_c, 0, 70, 0
4, 9225, Note_on_c, 0, 60, 0
4, 9225, Note_on_c, 0, 71, 43
4, 9373, Note_on_c, 0, 71, 0
4, 9384, Note_on_c, 0, 72, 40
4, 9399, Note_on_c, 0, 65, 0
4, 9456, Note_on_c, 0, 56, 0
4, 9521, Note_on_c, 0, 73, 56
4, 9548, Note_on_c, 0, 61, 0
4, 9586, Note_on_c, 0, 72, 0
4, 9608, Control_c, 0, 64, 0
4, 9636, Note_on_c, 0, 61, 30
4, 9643, Note_on_c, 0, 65, 45
4, 9652, Note_on_c, 0, 55, 42
4, 9906, Control_c, 0, 64, 127
4, 10099, Note_on_c, 0, 65, 0
4, 10137, Note_on_c, 0, 55, 0
4, 10140, Note_on_c, 0, 61, 0
4, 10862, Note_on_c, 0, 73, 0
4, 10930, Note_on_c, 0, 72, 60
4, 11145, Note_on_c, 0, 72, 0
4, 11179, Note_on_c, 0, 73, 48
4, 11356, Note_on_c, 0, 73, 0
4, 11486, Control_c, 0, 64, 0
4, 11510, Note_on_c, 0, 64, 34
4, 11511, Note_on_c, 0, 72, 44
4, 11525, Note_on_c, 0, 58, 25
4, 11528, Note_on_c, 0, 68, 29
4, 11601, Note_on_c, 0, 48, 15
4, 11701, Control_c, 0, 64, 127
4, 11800, Note_on_c, 0, 64, 0
4, 12122, Note_on_c, 0, 58, 0
4, 12230, Note_on_c, 0, 68, 0
4, 12515, Note_on_c, 0, 68, 40
4, 12522, Note_on_c, 0, 64, 37
4, 12526, Note_on_c, 0, 58, 35
4, 12681, Note_on_c, 0, 48, 0
4, 12697, Note_on_c, 0, 58, 0
4, 13000, Note_on_c, 0, 64, 0
4, 13017, Note_on_c, 0, 41, 46
4, 13023, Note_on_c, 0, 72, 0
4, 13054, Note_on_c, 0, 68, 0
4, 13121, Note_on_c, 0, 41, 0
4, 13518, Note_on_c, 0, 63, 38
4, 13532, Note_on_c, 0, 57, 37
4, 13533, Note_on_c, 0, 51, 30
4, 13538, Control_c, 0, 64, 0
4, 13554, Note_on_c, 0, 69, 22
4, 13774, Control_c, 0, 64, 127
4, 13882, Note_on_c, 0, 57, 0
4, 14132, Note_on_c, 0, 63, 0
4, 14368, Note_on_c, 0, 69, 0
4, 14449, Note_on_c, 0, 63, 37
4, 14457, Note_on_c, 0, 57, 32
4, 14459, Note_on_c, 0, 60, 36
4, 14695, Note_on_c, 0, 60, 0
4, 14705, Note_on_c, 0, 57, 0
4, 14757, Note_on_c, 0, 51, 0
4, 14833, Note_on_c, 0, 63, 0
4, 15386, Control_c, 0, 64, 0
4, 15387, Note_on_c, 0, 42, 42
4, 15391, Note_on_c, 0, 61, 51
4, 15392, Note_on_c, 0, 68, 52
4, 15394, Note_on_c, 0, 64, 55
4, 15403, Note_on_c, 0, 57, 54
4, 15664, Control_c, 0, 64, 127
4, 15886, Note_on_c, 0, 52, 80
4, 16197, Note_on_c, 0, 57, 0
4, 16256, Note_on_c, 0, 64, 0
4, 16270, Note_on_c, 0, 61, 0
4, 16312, Note_on_c, 0, 52, 0
4, 16320, Note_on_c, 0, 68, 0
4, 16367, Note_on_c, 0, 66, 59
4, 16372, Note_on_c, 0, 61, 67
4, 16379, Note_on_c, 0, 57, 69
4, 16382, Control_c, 0, 64, 0
4, 16586, Control_c, 0, 64, 127
4, 16721, Note_on_c, 0, 42, 0
4, 16857, Note_on_c, 0, 42, 42
4, 16970, Note_on_c, 0, 42, 0
4, 17145, Note_on_c, 0, 57, 0
4, 17208, Note_on_c, 0, 66, 0
4, 17226, Note_on_c, 0, 61, 0
4, 17346, Control_c, 0, 64, 0
4, 17363, Note_on_c, 0, 66, 37
4, 17366, Note_on_c, 0, 54, 32
4, 17374, Note_on_c, 0, 61, 28
4, 17382, Note_on_c, 0, 47, 40
4, 17390, Note_on_c, 0, 57, 24
4, 17392, Note_on_c, 0, 63, 37
4, 17736, Control_c, 0, 64, 127
4, 17987, Note_on_c, 0, 57, 0
4, 17996, Note_on_c, 0, 54, 0
4, 18002, Note_on_c, 0, 61, 0
4, 18317, Note_on_c, 0, 61, 39
4, 18338, Note_on_c, 0, 57, 31
4, 18360, Note_on_c, 0, 54, 25
4, 18508, Note_on_c, 0, 54, 0
4, 18612, Note_on_c, 0, 47, 0
4, 18957, Note_on_c, 0, 57, 0
4, 19036, Note_on_c, 0, 66, 0
4, 19064, Note_on_c, 0, 63, 0
4, 19075, Note_on_c, 0, 61, 0
4, 19286, Control_c, 0, 64, 0
4, 19304, Note_on_c, 0, 66, 34
4, 19307, Note_on_c, 0, 55, 27
4, 19308, Note_on_c, 0, 40, 33
4, 19316, Note_on_c, 0, 62, 42
4, 19317, Note_on_c, 0, 47, 25
4, 19326, Note_on_c, 0, 59, 36
4, 19553, Control_c, 0, 64, 127
4, 19980, Note_on_c, 0, 55, 0
4, 20002, Note_on_c, 0, 62, 0
4, 20020, Note_on_c, 0, 59, 0
4, 20039, Note_on_c, 0, 47, 0
4, 20056, Note_on_c, 0, 66, 0
4, 20148, Note_on_c, 0, 40, 0
4, 20251, Control_c, 0, 64, 0
4, 20264, Note_on_c, 0, 61, 37
4, 20265, Note_on_c, 0, 54, 42
4, 20267, Note_on_c, 0, 65, 41
4, 20275, Note_on_c, 0, 58, 49
4, 20709, Note_on_c, 0, 39, 53
4, 21160, Note_on_c, 0, 46, 77
4, 21216, Note_on_c, 0, 39, 0
4, 21267, Control_c, 0, 64, 127
4, 21462, Note_on_c, 0, 54, 0
4, 21637, Note_on_c, 0, 54, 50
4, 21669, Note_on_c, 0, 61, 0
4, 21891, Note_on_c, 0, 65, 0
4, 21895, Note_on_c, 0, 54, 0
4, 21928, Note_on_c, 0, 58, 0
4, 22050, Note_on_c, 0, 46, 0
4, 22057, Control_c, 0, 64, 0
4, 22109, Note_on_c, 0, 65, 62
4, 22110, Note_on_c, 0, 58, 71
4, 22112, Note_on_c, 0, 44, 56
4, 22114, Note_on_c, 0, 54, 73
4, 22116, Note_on_c, 0, 60, 61
4, 22273, Control_c, 0, 64, 127
4, 22397, Note_on_c, 0, 58, 0
4, 22546, Note_on_c, 0, 65, 0
4, 22556, Note_on_c, 0, 54, 0
4, 22587, Note_on_c, 0, 60, 0
4, 22593, Note_on_c, 0, 44, 0
4, 22614, Note_on_c, 0, 58, 71
4, 22908, Note_on_c, 0, 58, 0
4, 23044, Control_c, 0, 64, 0
4, 23079, Note_on_c, 0, 37, 54
4, 23083, Note_on_c, 0, 60, 59
4, 23094, Note_on_c, 0, 44, 46
4, 23098, Note_on_c, 0, 53, 41
4, 23102, Note_on_c, 0, 56, 55
4, 23177, Note_on_c, 0, 53, 0
4, 23240, Note_on_c, 0, 56, 0
4, 23248, Control_c, 0, 64, 127
4, 23260, Note_on_c, 0, 60, 0
4, 23420, Note_on_c, 0, 37, 0
4, 23456, Note_on_c, 0, 44, 0
4, 23641, Note_on_c, 0, 68, 77
4, 23861, Note_on_c, 0, 68, 0
4, 24059, Control_c, 0, 64, 0
4, 24068, Note_on_c, 0, 63, 63
4, 24069, Note_on_c, 0, 72, 68
4, 24073, Note_on_c, 0, 53, 51
4, 24074, Note_on_c, 0, 58, 60
4, 24264, Control_c, 0, 64, 127
4, 24274, Note_on_c, 0, 72, 0
4, 24327, Control_c, 0, 64, 0
4, 24354, Note_on_c, 0, 75, 62
4, 24446, Note_on_c, 0, 75, 0
4, 24621, Note_on_c, 0, 77, 38
4, 24693, Note_on_c, 0, 53, 0
4, 24696, Note_on_c, 0, 77, 0
4, 24757, Control_c, 0, 64, 127
4, 24761, Note_on_c, 0, 58, 0
4, 24788, Note_on_c, 0, 63, 0
4, 24825, Note_on_c, 0, 80, 54
4, 24955, Note_on_c, 0, 80, 0
4, 25034, Control_c, 0, 64, 0
4, 25057, Note_on_c, 0, 65, 39
4, 25062, Note_on_c, 0, 60, 45
4, 25066, Note_on_c, 0, 82, 43
4, 25113, Note_on_c, 0, 65, 0
4, 25119, Note_on_c, 0, 82, 0
4, 25136, Note_on_c, 0, 60, 0
4, 25308, Note_on_c, 0, 84, 42
4, 25426, Note_on_c, 0, 84, 0
4, 25517, Control_c, 0, 64, 127
4, 25539, Note_on_c, 0, 87, 44
4, 25595, Note_on_c, 0, 87, 0
4, 25777, Note_on_c, 0, 89, 45
4, 25833, Note_on_c, 0, 89, 0
4, 25968, Control_c, 0, 64, 0
4, 25984, Note_on_c, 0, 63, 37
4, 25998, Note_on_c, 0, 53, 30
4, 26017, Note_on_c, 0, 58, 46
4, 26067, Note_on_c, 0, 53, 0
4, 26078, Note_on_c, 0, 63, 0
4, 26174, Note_on_c, 0, 58, 0
4, 26257, Note_on_c, 0, 94, 50
4, 26392, Note_on_c, 0, 94, 0
4, 26479, Note_on_c, 0, 96, 55
4, 26482, Control_c, 0, 64, 127
4, 26633, Note_on_c, 0, 96, 0
4, 26733, Note_on_c, 0, 97, 44
4, 26894, Note_on_c, 0, 97, 0
4, 26953, Control_c, 0, 64, 0
4, 26982, Note_on_c, 0, 30, 35
4, 26986, Note_on_c, 0, 99, 45
4, 27044, Note_on_c, 0, 30, 0
4, 27118, Note_on_c, 0, 99, 0
4, 27557, Note_on_c, 0, 85, 35
4, 27579, Control_c, 0, 64, 127
4, 27655, Note_on_c, 0, 85, 0
4, 27868, Control_c, 0, 64, 0
4, 27943, Note_on_c, 0, 63, 34
4, 27969, Note_on_c, 0, 58, 47
4, 27973, Note_on_c, 0, 52, 31
4, 28038, Note_on_c, 0, 52, 0
4, 28061, Note_on_c, 0, 63, 0
4, 28081, Note_on_c, 0, 58, 0
4, 28390, Control_c, 0, 64, 127
4, 28801, Control_c, 0, 64, 0
4, 28873, Note_on_c, 0, 62, 36
4, 28876, Note_on_c, 0, 51, 36
4, 28902, Note_on_c, 0, 57, 41
4, 28959, Note_on_c, 0, 57, 0
4, 28968, Note_on_c, 0, 62, 0
4, 29009, Note_on_c, 0, 51, 0
4, 29182, Note_on_c, 0, 101, 66
4, 29211, Note_on_c, 0, 89, 27
4, 29261, Note_on_c, 0, 89, 0
4, 29305, Note_on_c, 0, 101, 0
4, 29406, Note_on_c, 0, 99, 70
4, 29509, Control_c, 0, 64, 127
4, 29528, Note_on_c, 0, 99, 0
4, 29606, Note_on_c, 0, 97, 64
4, 29747, Note_on_c, 0, 97, 0
4, 29799, Note_on_c, 0, 96, 64
4, 29869, Note_on_c, 0, 17, 34
4, 29878, Control_c, 0, 64, 0
4, 29908, Note_on_c, 0, 96, 0
4, 30003, Note_on_c, 0, 94, 57
4, 30094, Control_c, 0, 64, 127
4, 30127, Note_on_c, 0, 94, 0
4, 30138, Note_on_c, 0, 17, 0
4, 30189, Note_on_c, 0, 93, 65
4, 30329, Note_on_c, 0, 93, 0
4, 30413, Note_on_c, 0, 96, 56
4, 30566, Note_on_c, 0, 96, 0
4, 30578, Note_on_c, 0, 93, 59
4, 30702, Note_on_c, 0, 93, 0
4, 30761, Control_c, 0, 64, 0
4, 30770, Note_on_c, 0, 61, 37
4, 30774, Note_on_c, 0, 94, 56
4, 30778, Note_on_c, 0, 65, 30
4, 30782, Note_on_c, 0, 60, 29
4, 30918, Note_on_c, 0, 94, 0
4, 30980, Note_on_c, 0, 93, 53
4, 31070, Control_c, 0, 64, 127
4, 31097, Note_on_c, 0, 93, 0
4, 31190, Note_on_c, 0, 97, 61
4, 31207, Note_on_c, 0, 85, 47
4, 31330, Note_on_c, 0, 60, 0
4, 31333, Note_on_c, 0, 65, 0
4, 31441, Note_on_c, 0, 85, 0
4, 31452, Note_on_c, 0, 97, 0
4, 31457, Note_on_c, 0, 61, 0
4, 31647, Note_on_c, 0, 61, 31
4, 31654, Control_c, 0, 64, 0
4, 31659, Note_on_c, 0, 65, 44
4, 31798, Control_c, 0, 64, 127
4, 31928, Note_on_c, 0, 65, 0
4, 31980, Note_on_c, 0, 61, 0
4, 32182, Note_on_c, 0, 44, 56
4, 32486, Note_on_c, 0, 44, 0
4, 32645, Note_on_c, 0, 61, 51
4, 32650, Note_on_c, 0, 58, 56
4, 32658, Note_on_c, 0, 43, 41
4, 32661, Control_c, 0, 64, 0
4, 32667, Note_on_c, 0, 53, 34
4, 32886, Control_c, 0, 64, 127
4, 32945, Note_on_c, 0, 53, 0
4, 32958, Note_on_c, 0, 43, 0
4, 33078, Note_on_c, 0, 58, 0
4, 33130, Note_on_c, 0, 61, 0
4, 33640, Note_on_c, 0, 58, 53
4, 33641, Note_on_c, 0, 61, 43
4, 33659, Note_on_c, 0, 55, 36
4, 33661, Note_on_c, 0, 53, 29
4, 33665, Control_c, 0, 64, 0
4, 33809, Control_c, 0, 64, 127
4, 33960, Note_on_c, 0, 72, 105
4, 34221, Note_on_c, 0, 72, 0
4, 34223, Note_on_c, 0, 53, 0
4, 34262, Note_on_c, 0, 55, 0
4, 34264, Note_on_c, 0, 61, 0
4, 34294, Note_on_c, 0, 73, 78
4, 34335, Note_on_c, 0, 58, 0
4, 34542, Note_on_c, 0, 73, 0
4, 34600, Control_c, 0, 64, 0
4, 34637, Note_on_c, 0, 63, 58
4, 34638, Note_on_c, 0, 58, 57
4, 34639, Note_on_c, 0, 72, 83
4, 34660, Note_on_c, 0, 52, 46
4, 34776, Control_c, 0, 64, 127
4, 34856, Note_on_c, 0, 63, 0
4, 34904, Note_on_c, 0, 58, 0
4, 34905, Note_on_c, 0, 52, 0
4, 35589, Note_on_c, 0, 24, 55
4, 35595, Control_c, 0, 64, 0
4, 35717, Note_on_c, 0, 24, 0
4, 35761, Control_c, 0, 64, 127
4, 36079, Note_on_c, 0, 72, 0
4, 36561, Control_c, 0, 64, 0
4, 36564, Note_on_c, 0, 61, 51
4, 36572, Note_on_c, 0, 57, 50
4, 36574, Note_on_c, 0, 63, 49
4, 36577, Note_on_c, 0, 68, 43
4, 36590, Note_on_c, 0, 56, 71
4, 37074, Note_on_c, 0, 66, 50
4, 37075, Note_on_c, 0, 56, 0
4, 37085, Note_on_c, 0, 54, 51
4, 37167, Control_c, 0, 64, 127
4, 37414, Note_on_c, 0, 68, 0
4, 37419, Note_on_c, 0, 57, 0
4, 37439, Note_on_c, 0, 61, 0
4, 37454, Note_on_c, 0, 66, 0
4, 37515, Control_c, 0, 64, 0
4, 37543, Note_on_c, 0, 53, 38
4, 37547, Note_on_c, 0, 54, 0
4, 37552, Note_on_c, 0, 57, 42
4, 37554, Note_on_c, 0, 65, 44
4, 37557, Note_on_c, 0, 61, 23
4, 37689, Control_c, 0, 64, 127
4, 37764, Note_on_c, 0, 63, 0
4, 37901, Note_on_c, 0, 57, 0
4, 37902, Note_on_c, 0, 61, 0
4, 38007, Note_on_c, 0, 53, 0
4, 38008, Note_on_c, 0, 61, 14
4, 38020, Note_on_c, 0, 63, 40
4, 38029, Note_on_c, 0, 51, 28
4, 38121, Note_on_c, 0, 51, 0
4, 38407, Note_on_c, 0, 63, 0
4, 38417, Note_on_c, 0, 65, 0
4, 38450, Control_c, 0, 64, 0
4, 38492, Note_on_c, 0, 56, 35
4, 38499, Note_on_c, 0, 46, 30
4, 38665, Control_c, 0, 64, 127
4, 38692, Note_on_c, 0, 56, 0
4, 38866, Note_on_c, 0, 61, 0
4, 38969, Note_on_c, 0, 53, 32
4, 39030, Note_on_c, 0, 46, 0
4, 39041, Note_on_c, 0, 53, 0
4, 39433, Note_on_c, 0, 70, 55
4, 39444, Control_c, 0, 64, 0
4, 39451, Note_on_c, 0, 61, 29
4, 39458, Note_on_c, 0, 60, 33
4, 39465, Note_on_c, 0, 65, 19
4, 39502, Note_on_c, 0, 70, 0
4, 39537, Note_on_c, 0, 72, 46
4, 39616, Note_on_c, 0, 70, 42
4, 39620, Note_on_c, 0, 72, 0
4, 39714, Note_on_c, 0, 70, 0
4, 39873, Note_on_c, 0, 70, 42
4, 39940, Note_on_c, 0, 65, 0
4, 39989, Note_on_c, 0, 70, 0
4, 40061, Note_on_c, 0, 60, 0
4, 40132, Note_on_c, 0, 61, 0
4, 40173, Note_on_c, 0, 70, 51
4, 40266, Control_c, 0, 64, 127
4, 40267, Note_on_c, 0, 70, 0
4, 40280, Note_on_c, 0, 72, 49
4, 40358, Control_c, 0, 64, 0
4, 40374, Note_on_c, 0, 70, 44
4, 40411, Note_on_c, 0, 61, 25
4, 40425, Note_on_c, 0, 65, 25
4, 40426, Note_on_c, 0, 72, 0
4, 40455, Note_on_c, 0, 55, 24
4, 40489, Note_on_c, 0, 70, 0
4, 40494, Note_on_c, 0, 69, 35
4, 40561, Note_on_c, 0, 69, 0
4, 40603, Note_on_c, 0, 70, 56
4, 40912, Control_c, 0, 64, 127
4, 40979, Note_on_c, 0, 70, 0
4, 41011, Note_on_c, 0, 65, 0
4, 41018, Note_on_c, 0, 72, 43
4, 41082, Note_on_c, 0, 61, 0
4, 41100, Note_on_c, 0, 70, 37
4, 41140, Note_on_c, 0, 72, 0
4, 41194, Note_on_c, 0, 70, 0
4, 41223, Note_on_c, 0, 69, 18
4, 41292, Note_on_c, 0, 69, 0
4, 41323, Control_c, 0, 64, 0
4, 41340, Note_on_c, 0, 70, 60
4, 41411, Note_on_c, 0, 61, 29
4, 41415, Note_on_c, 0, 65, 22
4, 41460, Note_on_c, 0, 70, 0
4, 41560, Note_on_c, 0, 72, 48
4, 41596, Note_on_c, 0, 65, 0
4, 41686, Note_on_c, 0, 72, 0
4, 41719, Note_on_c, 0, 61, 0
4, 41753, Note_on_c, 0, 73, 50
4, 41761, Note_on_c, 0, 55, 0
4, 41862, Note_on_c, 0, 73, 0
4, 41958, Note_on_c, 0, 75, 61
4, 41960, Control_c, 0, 64, 127
4, 42116, Note_on_c, 0, 75, 0
4, 42240, Note_on_c, 0, 36, 44
4, 42349, Control_c, 0, 64, 0
4, 42552, Note_on_c, 0, 36, 0
4, 42575, Control_c, 0, 64, 127
4, 43315, Note_on_c, 0, 64, 31
4, 43329, Note_on_c, 0, 58, 42
4, 43625, Note_on_c, 0, 72, 55
4, 43665, Note_on_c, 0, 58, 0
4, 43746, Note_on_c, 0, 64, 0
4, 43809, Note_on_c, 0, 72, 0
4, 43941, Note_on_c, 0, 84, 74
4, 44040, Note_on_c, 0, 84, 0
4, 44246, Note_on_c, 0, 80, 55
4, 44251, Note_on_c, 0, 68, 39
4, 44271, Note_on_c, 0, 75, 47
4, 44277, Note_on_c, 0, 73, 34
4, 44280, Control_c, 0, 64, 0
4, 44296, Note_on_c, 0, 69, 20
4, 44547, Control_c, 0, 64, 127
4, 44747, Note_on_c, 0, 68, 0
4, 44956, Note_on_c, 0, 69, 0
4, 44976, Note_on_c, 0, 73, 0
4, 44982, Note_on_c, 0, 75, 0
4, 45003, Note_on_c, 0, 80, 0
4, 45103, Note_on_c, 0, 78, 43
4, 45110, Control_c, 0, 64, 0
4, 45113, Note_on_c, 0, 73, 25
4, 45116, Note_on_c, 0, 69, 27
4, 45123, Note_on_c, 0, 75, 32
4, 45135, Note_on_c, 0, 66, 26
4, 45182, Control_c, 0, 64, 127
4, 45494, Note_on_c, 0, 66, 0
4, 45605, Note_on_c, 0, 69, 0
4, 45614, Note_on_c, 0, 78, 0
4, 45627, Note_on_c, 0, 75, 0
4, 45632, Note_on_c, 0, 73, 0
4, 46024, Control_c, 0, 64, 0
4, 46068, Note_on_c, 0, 80, 71
4, 46075, Note_on_c, 0, 73, 55
4, 46076, Note_on_c, 0, 68, 55
4, 46085, Note_on_c, 0, 69, 62
4, 46103, Note_on_c, 0, 76, 48
4, 46362, Control_c, 0, 64, 127
4, 46741, Note_on_c, 0, 68, 0
4, 46759, Note_on_c, 0, 80, 0
4, 46760, Note_on_c, 0, 76, 0
4, 46774, Note_on_c, 0, 73, 0
4, 46775, Note_on_c, 0, 69, 0
4, 48047, Control_c, 0, 64, 0
4, 48066, Note_on_c, 0, 61, 38
4, 48070, Note_on_c, 0, 68, 43
4, 48075, Note_on_c, 0, 56, 44
4, 48083, Note_on_c, 0, 57, 33
4, 48084, Note_on_c, 0, 64, 44
4, 48262, Control_c, 0, 64, 127
4, 48470, Note_on_c, 0, 56, 0
4, 48513, Note_on_c, 0, 57, 0
4, 48518, Note_on_c, 0, 68, 0
4, 48543, Note_on_c, 0, 64, 0
4, 48573, Note_on_c, 0, 54, 42
4, 48589, Note_on_c, 0, 66, 62
4, 48664, Note_on_c, 0, 54, 0
4, 48785, Note_on_c, 0, 66, 0
4, 48861, Note_on_c, 0, 61, 0
4, 48990, Control_c, 0, 64, 0
4, 49049, Note_on_c, 0, 61, 69
4, 49053, Note_on_c, 0, 52, 62
4, 49055, Note_on_c, 0, 64, 60
4, 49056, Note_on_c, 0, 42, 56
4, 49057, Note_on_c, 0, 68, 55
4, 49067, Note_on_c, 0, 57, 68
4, 49144, Control_c, 0, 64, 127
4, 49226, Note_on_c, 0, 64, 0
4, 49238, Note_on_c, 0, 52, 0
4, 49244, Note_on_c, 0, 57, 0
4, 49366, Note_on_c, 0, 68, 0
4, 49378, Note_on_c, 0, 42, 0
4, 49411, Note_on_c, 0, 61, 0
4, 49494, Control_c, 0, 64, 0
4, 49539, Note_on_c, 0, 67, 60
4, 49543, Note_on_c, 0, 41, 57
4, 49544, Note_on_c, 0, 51, 54
4, 49552, Note_on_c, 0, 56, 60
4, 49553, Note_on_c, 0, 63, 56
4, 49556, Note_on_c, 0, 60, 62
4, 49657, Control_c, 0, 64, 127
4, 49716, Note_on_c, 0, 67, 0
4, 49833, Note_on_c, 0, 41, 0
4, 49843, Note_on_c, 0, 51, 0
4, 49867, Note_on_c, 0, 60, 0
4, 49920, Note_on_c, 0, 56, 0
4, 49988, Note_on_c, 0, 63, 0
4, 49996, Control_c, 0, 64, 0
4, 50034, Note_on_c, 0, 66, 59
4, 50040, Note_on_c, 0, 55, 49
4, 50042, Note_on_c, 0, 59, 54
4, 50043, Note_on_c, 0, 50, 53
4, 50049, Note_on_c, 0, 62, 51
4, 50062, Note_on_c, 0, 40, 43
4, 50273, Control_c, 0, 64, 127
4, 50420, Note_on_c, 0, 50, 0
4, 50499, Note_on_c, 0, 47, 31
4, 50658, Note_on_c, 0, 59, 0
4, 50672, Note_on_c, 0, 55, 0
4, 50693, Note_on_c, 0, 62, 0
4, 50938, Note_on_c, 0, 66, 0
4, 50981, Note_on_c, 0, 62, 35
4, 50983, Note_on_c, 0, 55, 35
4, 50995, Note_on_c, 0, 59, 42
4, 50996, Note_on_c, 0, 52, 28
4, 51201, Note_on_c, 0, 40, 0
4, 51373, Note_on_c, 0, 52, 0
4, 51427, Note_on_c, 0, 40, 37
4, 51481, Note_on_c, 0, 55, 0
4, 51517, Note_on_c, 0, 59, 0
4, 51524, Note_on_c, 0, 62, 0
4, 51550, Note_on_c, 0, 47, 0
4, 51607, Note_on_c, 0, 40, 0
4, 51844, Control_c, 0, 64, 0
4, 51889, Note_on_c, 0, 61, 37
4, 51892, Note_on_c, 0, 65, 42
4, 51893, Note_on_c, 0, 54, 38
4, 51905, Note_on_c, 0, 58, 46
4, 51907, Note_on_c, 0, 46, 33
4, 51914, Note_on_c, 0, 39, 37
4, 52121, Control_c, 0, 64, 127
4, 52518, Note_on_c, 0, 39, 0
4, 52604, Note_on_c, 0, 54, 0
4, 52608, Note_on_c, 0, 61, 0
4, 52617, Note_on_c, 0, 58, 0
4, 52681, Note_on_c, 0, 65, 0
4, 52818, Control_c, 0, 64, 0
4, 52837, Note_on_c, 0, 46, 0
4, 52865, Note_on_c, 0, 44, 39
4, 52878, Note_on_c, 0, 54, 39
4, 52887, Note_on_c, 0, 58, 46
4, 52888, Note_on_c, 0, 65, 31
4, 53035, Control_c, 0, 64, 127
4, 53176, Note_on_c, 0, 58, 0
4, 53277, Note_on_c, 0, 65, 0
4, 53358, Note_on_c, 0, 44, 0
4, 53371, Note_on_c, 0, 58, 51
4, 53373, Note_on_c, 0, 54, 0
4, 53805, Control_c, 0, 64, 0
4, 53828, Note_on_c, 0, 58, 0
4, 53863, Note_on_c, 0, 61, 32
4, 53873, Note_on_c, 0, 44, 29
4, 53877, Note_on_c, 0, 37, 32
4, 54021, Control_c, 0, 64, 127
4, 54196, Note_on_c, 0, 37, 0
4, 54200, Note_on_c, 0, 44, 0
4, 54240, Note_on_c, 0, 61, 0
4, 54259, Note_on_c, 0, 60, 50
4, 54387, Note_on_c, 0, 60, 0
4, 54448, Note_on_c, 0, 61, 58
4, 54541, Note_on_c, 0, 61, 0
4, 54654, Note_on_c, 0, 65, 57
4, 54766, Note_on_c, 0, 65, 0
4, 54834, Note_on_c, 0, 68, 57
4, 54851, Control_c, 0, 64, 0
4, 54864, Note_on_c, 0, 63, 44
4, 54897, Note_on_c, 0, 58, 42
4, 54910, Note_on_c, 0, 53, 17
4, 54970, Note_on_c, 0, 68, 0
4, 55017, Note_on_c, 0, 72, 53
4, 55176, Note_on_c, 0, 72, 0
4, 55196, Note_on_c, 0, 73, 38
4, 55220, Control_c, 0, 64, 127
4, 55311, Note_on_c, 0, 73, 0
4, 55367, Note_on_c, 0, 72, 40
4, 55482, Note_on_c, 0, 72, 0
4, 55510, Note_on_c, 0, 73, 52
4, 55569, Note_on_c, 0, 53, 0
4, 55624, Note_on_c, 0, 73, 0
4, 55630, Note_on_c, 0, 58, 0
4, 55681, Note_on_c, 0, 75, 51
4, 55701, Note_on_c, 0, 63, 0
4, 55753, Note_on_c, 0, 75, 0
4, 55826, Control_c, 0, 64, 0
4, 55829, Note_on_c, 0, 77, 58
4, 55851, Note_on_c, 0, 65, 36
4, 55861, Note_on_c, 0, 55, 36
4, 55898, Note_on_c, 0, 60, 26
4, 55921, Note_on_c, 0, 77, 0
4, 55982, Note_on_c, 0, 80, 54
4, 56073, Control_c, 0, 64, 127
4, 56102, Note_on_c, 0, 80, 0
4, 56144, Note_on_c, 0, 84, 39
4, 56175, Note_on_c, 0, 65, 0
4, 56182, Note_on_c, 0, 55, 0
4, 56220, Note_on_c, 0, 84, 0
4, 56232, Note_on_c, 0, 60, 0
4, 56285, Note_on_c, 0, 85, 36
4, 56383, Note_on_c, 0, 84, 52
4, 56446, Note_on_c, 0, 85, 0
4, 56534, Note_on_c, 0, 84, 0
4, 56760, Control_c, 0, 64, 0
4, 56776, Note_on_c, 0, 63, 31
4, 56793, Note_on_c, 0, 53, 26
4, 56808, Note_on_c, 0, 58, 47
4, 56955, Control_c, 0, 64, 127
4, 57275, Note_on_c, 0, 53, 0
4, 57281, Note_on_c, 0, 63, 0
4, 57381, Note_on_c, 0, 58, 0
4, 57612, Control_c, 0, 64, 0
4, 57652, Note_on_c, 0, 75, 64
4, 57656, Note_on_c, 0, 68, 57
4, 57657, Note_on_c, 0, 70, 62
4, 57659, Note_on_c, 0, 64, 66
4, 57688, Note_on_c, 0, 63, 64
4, 58053, Control_c, 0, 64, 127
4, 58129, Note_on_c, 0, 61, 65
4, 58172, Note_on_c, 0, 63, 0
4, 58363, Note_on_c, 0, 64, 0
4, 58379, Note_on_c, 0, 68, 0
4, 58440, Note_on_c, 0, 70, 0
4, 58539, Note_on_c, 0, 75, 0
4, 58566, Note_on_c, 0, 73, 35
4, 58568, Note_on_c, 0, 64, 44
4, 58578, Note_on_c, 0, 70, 39
4, 58593, Note_on_c, 0, 68, 35
4, 58661, Note_on_c, 0, 61, 0
4, 59029, Note_on_c, 0, 61, 52
4, 59073, Note_on_c, 0, 64, 0
4, 59127, Note_on_c, 0, 61, 0
4, 59162, Note_on_c, 0, 68, 0
4, 59227, Note_on_c, 0, 73, 0
4, 59271, Note_on_c, 0, 70, 0
4, 59481, Control_c, 0, 64, 0
4, 59489, Note_on_c, 0, 63, 34
4, 59501, Note_on_c, 0, 72, 42
4, 59509, Note_on_c, 0, 66, 35
4, 59526, Note_on_c, 0, 57, 20
4, 59615, Note_on_c, 0, 57, 0
4, 59726, Control_c, 0, 64, 127
4, 59920, Note_on_c, 0, 72, 0
4, 59971, Note_on_c, 0, 63, 0
4, 59974, Note_on_c, 0, 66, 0
4, 59987, Note_on_c, 0, 41, 30
4, 60459, Note_on_c, 0, 57, 53
4, 60471, Note_on_c, 0, 51, 29
4, 60827, Note_on_c, 0, 41, 0
4, 60901, Note_on_c, 0, 57, 0
4, 60919, Note_on_c, 0, 51, 0
4, 60941, Note_on_c, 0, 61, 52
4, 61346, Note_on_c, 0, 61, 0
4, 61400, Control_c, 0, 64, 0
4, 61424, Note_on_c, 0, 56, 34
4, 61436, Note_on_c, 0, 46, 37
4, 61446, Note_on_c, 0, 62, 40
4, 61635, Control_c, 0, 64, 127
4, 61679, Note_on_c, 0, 56, 0
4, 61763, Note_on_c, 0, 62, 0
4, 61790, Note_on_c, 0, 46, 0
4, 62393, Note_on_c, 0, 56, 40
4, 62395, Note_on_c, 0, 67, 34
4, 62424, Note_on_c, 0, 62, 35
4, 62589, Note_on_c, 0, 67, 0
4, 62731, Note_on_c, 0, 56, 0
4, 62741, Note_on_c, 0, 77, 68
4, 62755, Note_on_c, 0, 62, 0
4, 63081, Note_on_c, 0, 78, 33
4, 63132, Note_on_c, 0, 77, 0
4, 63223, Note_on_c, 0, 78, 0
4, 63244, Note_on_c, 0, 79, 47
4, 63361, Note_on_c, 0, 79, 0
4, 63380, Note_on_c, 0, 39, 39
4, 63410, Note_on_c, 0, 80, 64
4, 63412, Control_c, 0, 64, 0
4, 63436, Note_on_c, 0, 54, 25
4, 63657, Control_c, 0, 64, 127
4, 63724, Note_on_c, 0, 39, 0
4, 63857, Note_on_c, 0, 54, 0
4, 63873, Note_on_c, 0, 80, 0
4, 63946, Note_on_c, 0, 80, 60
4, 64358, Note_on_c, 0, 65, 35
4, 64367, Note_on_c, 0, 54, 32
4, 64373, Note_on_c, 0, 61, 37
4, 64389, Note_on_c, 0, 58, 50
4, 64671, Note_on_c, 0, 80, 0
4, 64675, Note_on_c, 0, 65, 0
4, 64722, Note_on_c, 0, 78, 87
4, 64763, Note_on_c, 0, 61, 0
4, 64792, Note_on_c, 0, 58, 0
4, 64800, Note_on_c, 0, 54, 0
4, 65014, Note_on_c, 0, 78, 0
4, 65170, Note_on_c, 0, 78, 91
4, 65280, Note_on_c, 0, 44, 56
4, 65382, Control_c, 0, 64, 0
4, 65468, Note_on_c, 0, 78, 0
4, 65577, Note_on_c, 0, 78, 83
4, 65608, Control_c, 0, 64, 127
4, 65633, Note_on_c, 0, 44, 0
4, 66167, Note_on_c, 0, 78, 0
4, 66224, Note_on_c, 0, 74, 76
4, 66291, Note_on_c, 0, 65, 39
4, 66292, Note_on_c, 0, 54, 44
4, 66299, Note_on_c, 0, 60, 41
4, 66469, Control_c, 0, 64, 0
4, 66646, Note_on_c, 0, 75, 73
4, 66664, Control_c, 0, 64, 127
4, 66668, Note_on_c, 0, 74, 0
4, 66787, Note_on_c, 0, 75, 0
4, 66800, Note_on_c, 0, 65, 0
4, 66817, Note_on_c, 0, 76, 65
4, 66829, Note_on_c, 0, 60, 0
4, 66906, Note_on_c, 0, 54, 0
4, 66955, Note_on_c, 0, 76, 0
4, 66959, Note_on_c, 0, 77, 56
4, 67084, Note_on_c, 0, 78, 35
4, 67091, Note_on_c, 0, 77, 0
4, 67158, Control_c, 0, 64, 0
4, 67168, Note_on_c, 0, 78, 0
4, 67232, Note_on_c, 0, 64, 22
4, 67243, Note_on_c, 0, 59, 31
4, 67244, Note_on_c, 0, 77, 61
4, 67251, Note_on_c, 0, 53, 31
4, 67516, Note_on_c, 0, 64, 0
4, 67548, Note_on_c, 0, 59, 0
4, 67578, Control_c, 0, 64, 127
4, 67582, Note_on_c, 0, 53, 0
4, 67585, Note_on_c, 0, 77, 0
4, 68185, Note_on_c, 0, 44, 29
4, 68198, Note_on_c, 0, 37, 35
4, 68584, Note_on_c, 0, 37, 0
4, 68995, Note_on_c, 0, 44, 0
4, 69087, Control_c, 0, 64, 0
4, 69131, Note_on_c, 0, 42, 37
4, 69153, Note_on_c, 0, 49, 21
4, 69303, Control_c, 0, 64, 127
4, 69429, Note_on_c, 0, 42, 0
4, 69457, Note_on_c, 0, 49, 0
4, 70092, Note_on_c, 0, 63, 42
4, 70108, Note_on_c, 0, 58, 42
4, 70139, Note_on_c, 0, 52, 29
4, 70427, Note_on_c, 0, 73, 58
4, 70456, Note_on_c, 0, 52, 0
4, 70517, Note_on_c, 0, 63, 0
4, 70550, Note_on_c, 0, 58, 0
4, 70643, Note_on_c, 0, 73, 0
4, 70710, Note_on_c, 0, 70, 50
4, 70818, Note_on_c, 0, 70, 0
4, 70969, Note_on_c, 0, 63, 33
4, 71068, Control_c, 0, 64, 0
4, 71076, Note_on_c, 0, 77, 60
4, 71083, Note_on_c, 0, 67, 48
4, 71083, Note_on_c, 0, 70, 48
4, 71087, Note_on_c, 0, 73, 38
4, 71089, Note_on_c, 0, 65, 59
4, 71247, Note_on_c, 0, 63, 0
4, 71378, Note_on_c, 0, 67, 0
4, 71382, Note_on_c, 0, 70, 0
4, 71398, Note_on_c, 0, 73, 0
4, 71414, Note_on_c, 0, 77, 0
4, 71482, Note_on_c, 0, 65, 0
4, 71541, Note_on_c, 0, 63, 39
4, 71629, Note_on_c, 0, 64, 26
4, 71631, Note_on_c, 0, 77, 50
4, 71633, Note_on_c, 0, 65, 40
4, 71634, Note_on_c, 0, 70, 42
4, 71643, Note_on_c, 0, 67, 42
4, 71644, Note_on_c, 0, 63, 0
4, 71649, Note_on_c, 0, 74, 46
4, 71671, Note_on_c, 0, 64, 0
4, 71685, Control_c, 0, 64, 127
4, 71993, Note_on_c, 0, 67, 0
4, 72142, Note_on_c, 0, 74, 0
4, 72177, Note_on_c, 0, 77, 0
4, 72298, Note_on_c, 0, 70, 0
4, 72308, Note_on_c, 0, 65, 0
4, 72464, Control_c, 0, 64, 0
4, 72556, Note_on_c, 0, 75, 62
4, 72572, Note_on_c, 0, 68, 52
4, 72583, Note_on_c, 0, 64, 42
4, 72607, Note_on_c, 0, 63, 34
4, 72637, Note_on_c, 0, 72, 24
4, 72644, Note_on_c, 0, 71, 26
4, 72711, Control_c, 0, 64, 127
4, 72714, Note_on_c, 0, 63, 0
4, 72762, Note_on_c, 0, 71, 0
4, 72821, Note_on_c, 0, 64, 0
4, 72860, Note_on_c, 0, 68, 0
4, 72863, Note_on_c, 0, 75, 0
4, 72867, Note_on_c, 0, 72, 0
4, 72977, Control_c, 0, 64, 0
4, 73033, Note_on_c, 0, 68, 45
4, 73035, Note_on_c, 0, 72, 35
4, 73036, Note_on_c, 0, 75, 37
4, 73043, Note_on_c, 0, 64, 46
4, 73074, Note_on_c, 0, 63, 44
4, 73213, Control_c, 0, 64, 127
4, 73712, Note_on_c, 0, 64, 0
4, 73728, Note_on_c, 0, 63, 0
4, 73729, Note_on_c, 0, 72, 0
4, 73824, Note_on_c, 0, 68, 0
4, 73927, Note_on_c, 0, 75, 0
4, 73931, Control_c, 0, 64, 0
4, 73940, Note_on_c, 0, 63, 31
4, 73955, Note_on_c, 0, 68, 29
4, 73959, Note_on_c, 0, 64, 35
4, 73960, Note_on_c, 0, 72, 40
4, 73976, Note_on_c, 0, 54, 26
4, 74137, Control_c, 0, 64, 127
4, 74283, Note_on_c, 0, 73, 49
4, 74349, Note_on_c, 0, 64, 0
4, 74484, Note_on_c, 0, 73, 0
4, 74485, Note_on_c, 0, 72, 0
4, 74542, Note_on_c, 0, 75, 52
4, 74628, Note_on_c, 0, 63, 0
4, 74707, Note_on_c, 0, 68, 0
4, 74734, Note_on_c, 0, 54, 0
4, 74780, Note_on_c, 0, 75, 0
4, 74846, Control_c, 0, 64, 0
4, 74852, Note_on_c, 0, 63, 33
4, 74865, Note_on_c, 0, 73, 38
4, 74870, Note_on_c, 0, 53, 25
4, 74885, Note_on_c, 0, 68, 35
4, 75040, Control_c, 0, 64, 127
4, 75169, Note_on_c, 0, 63, 0
4, 75213, Note_on_c, 0, 53, 0
4, 75546, Note_on_c, 0, 73, 0
4, 75586, Note_on_c, 0, 68, 0
4, 75810, Control_c, 0, 64, 0
4, 75823, Note_on_c, 0, 63, 47
4, 75837, Note_on_c, 0, 72, 40
4, 75842, Note_on_c, 0, 57, 36
4, 75849, Note_on_c, 0, 47, 35
4, 75853, Note_on_c, 0, 66, 47
4, 76046, Control_c, 0, 64, 127
4, 76448, Note_on_c, 0, 57, 0
4, 76449, Note_on_c, 0, 63, 0
4, 76472, Note_on_c, 0, 47, 0
4, 76665, Note_on_c, 0, 72, 0
4, 76701, Note_on_c, 0, 66, 0
4, 76816, Control_c, 0, 64, 0
4, 76852, Note_on_c, 0, 65, 36
4, 76856, Note_on_c, 0, 62, 32
4, 76861, Note_on_c, 0, 46, 28
4, 76875, Note_on_c, 0, 56, 21
4, 77011, Control_c, 0, 64, 127
4, 77036, Note_on_c, 0, 62, 0
4, 77104, Note_on_c, 0, 65, 0
4, 77182, Note_on_c, 0, 46, 0
4, 77235, Note_on_c, 0, 56, 0
4, 77432, Note_on_c, 0, 72, 26
4, 77467, Note_on_c, 0, 73, 40
4, 77526, Note_on_c, 0, 73, 0
4, 77533, Note_on_c, 0, 72, 0
4, 77542, Note_on_c, 0, 74, 58
4, 77648, Note_on_c, 0, 74, 0
4, 77715, Note_on_c, 0, 77, 87
4, 77724, Note_on_c, 0, 78, 49
4, 77787, Note_on_c, 0, 78, 0
4, 77883, Control_c, 0, 64, 0
4, 77884, Note_on_c, 0, 77, 0
4, 77935, Note_on_c, 0, 56, 40
4, 77936, Note_on_c, 0, 67, 34
4, 77961, Note_on_c, 0, 62, 40
4, 77992, Note_on_c, 0, 79, 84
4, 78041, Note_on_c, 0, 67, 0
4, 78078, Note_on_c, 0, 62, 0
4, 78133, Note_on_c, 0, 56, 0
4, 78183, Note_on_c, 0, 79, 0
4, 78247, Note_on_c, 0, 77, 57
4, 78383, Note_on_c, 0, 77, 0
4, 78396, Control_c, 0, 64, 127
4, 78516, Note_on_c, 0, 80, 74
4, 78648, Note_on_c, 0, 80, 58
4, 78675, Note_on_c, 0, 80, 0
4, 78782, Control_c, 0, 64, 0
4, 78816, Note_on_c, 0, 39, 39
4, 78834, Note_on_c, 0, 54, 27
4, 78847, Note_on_c, 0, 80, 0
4, 78903, Note_on_c, 0, 78, 52
4, 79023, Note_on_c, 0, 78, 0
4, 79039, Control_c, 0, 64, 127
4, 79201, Note_on_c, 0, 39, 0
4, 79314, Note_on_c, 0, 54, 0
4, 79695, Control_c, 0, 64, 0
4, 79701, Note_on_c, 0, 66, 33
4, 79706, Note_on_c, 0, 65, 42
4, 79719, Note_on_c, 0, 70, 39
4, 79725, Note_on_c, 0, 73, 27
4, 79725, Note_on_c, 0, 58, 33
4, 79749, Note_on_c, 0, 61, 23
4, 79850, Control_c, 0, 64, 127
4, 80090, Note_on_c, 0, 65, 0
4, 80139, Note_on_c, 0, 66, 0
4, 80200, Note_on_c, 0, 70, 0
4, 80208, Note_on_c, 0, 61, 0
4, 80394, Note_on_c, 0, 58, 0
4, 80403, Note_on_c, 0, 73, 0
4, 80582, Control_c, 0, 64, 0
4, 80609, Note_on_c, 0, 65, 35
4, 80625, Note_on_c, 0, 68, 33
4, 80631, Note_on_c, 0, 60, 24
4, 80640, Note_on_c, 0, 54, 28
4, 80640, Note_on_c, 0, 72, 34
4, 80808, Control_c, 0, 64, 127
4, 80810, Note_on_c, 0, 60, 0
4, 80863, Note_on_c, 0, 54, 0
4, 81070, Note_on_c, 0, 65, 0
4, 81153, Note_on_c, 0, 72, 0
4, 81286, Note_on_c, 0, 68, 0
4, 81568, Control_c, 0, 64, 0
4, 81569, Note_on_c, 0, 44, 35
4, 81577, Note_on_c, 0, 62, 45
4, 81754, Control_c, 0, 64, 127
4, 81773, Note_on_c, 0, 62, 0
4, 81818, Note_on_c, 0, 63, 46
4, 81943, Note_on_c, 0, 63, 0
4, 81944, Note_on_c, 0, 44, 0
4, 82046, Note_on_c, 0, 66, 47
4, 82223, Note_on_c, 0, 66, 0
4, 82325, Note_on_c, 0, 68, 32
4, 82376, Note_on_c, 0, 68, 0
4, 82502, Control_c, 0, 64, 0
4, 82569, Note_on_c, 0, 53, 30
4, 82573, Note_on_c, 0, 49, 26
4, 82584, Note_on_c, 0, 65, 24
4, 82586, Note_on_c, 0, 64, 24
4, 82638, Note_on_c, 0, 65, 0
4, 82697, Note_on_c, 0, 53, 0
4, 82698, Note_on_c, 0, 49, 0
4, 82722, Note_on_c, 0, 64, 0
4, 82998, Note_on_c, 0, 64, 40
4, 83006, Note_on_c, 0, 59, 32
4, 83008, Note_on_c, 0, 53, 29
4, 83022, Note_on_c, 0, 49, 25
4, 83123, Note_on_c, 0, 59, 0
4, 83153, Note_on_c, 0, 64, 0
4, 83175, Note_on_c, 0, 53, 0
4, 83183, Note_on_c, 0, 49, 0
4, 83523, Note_on_c, 0, 64, 38
4, 83526, Note_on_c, 0, 59, 31
4, 83533, Note_on_c, 0, 49, 32
4, 83549, Note_on_c, 0, 53, 30
4, 83710, Note_on_c, 0, 53, 0
4, 83713, Note_on_c, 0, 59, 0
4, 83722, Note_on_c, 0, 64, 0
4, 83730, Note_on_c, 0, 49, 0
4, 83846, Note_on_c, 0, 64, 39
4, 83861, Note_on_c, 0, 59, 29
4, 83877, Note_on_c, 0, 49, 25
4, 83880, Note_on_c, 0, 53, 29
4, 83951, Note_on_c, 0, 59, 0
4, 83975, Note_on_c, 0, 64, 0
4, 83993, Note_on_c, 0, 49, 0
4, 83998, Note_on_c, 0, 53, 0
4, 84072, Control_c, 0, 64, 127
4, 84220, Note_on_c, 0, 49, 31
4, 84225, Note_on_c, 0, 64, 45
4, 84231, Note_on_c, 0, 59, 31
4, 84300, Note_on_c, 0, 49, 0
4, 84317, Note_on_c, 0, 59, 0
4, 84366, Note_on_c, 0, 64, 0
4, 84462, Control_c, 0, 64, 0
4, 84586, Note_on_c, 0, 85, 51
4, 84611, Note_on_c, 0, 70, 33
4, 84617, Note_on_c, 0, 42, 34
4, 84623, Note_on_c, 0, 30, 34
4, 84859, Note_on_c, 0, 30, 0
4, 84919, Note_on_c, 0, 42, 0
4, 84983, Note_on_c, 0, 70, 0
4, 85024, Note_on_c, 0, 85, 0
4, 85556, Note_on_c, 0, 63, 32
4, 85580, Note_on_c, 0, 52, 32
4, 85593, Note_on_c, 0, 58, 45
4, 85688, Control_c, 0, 64, 127
4, 85701, Note_on_c, 0, 63, 0
4, 85712, Note_on_c, 0, 52, 0
4, 85740, Note_on_c, 0, 58, 0
4, 86144, Note_on_c, 0, 82, 67
4, 86316, Note_on_c, 0, 82, 0
4, 86530, Control_c, 0, 64, 0
4, 86568, Note_on_c, 0, 87, 74
4, 86569, Note_on_c, 0, 58, 55
4, 86578, Note_on_c, 0, 48, 58
4, 86766, Control_c, 0, 64, 127
4, 86797, Note_on_c, 0, 48, 0
4, 86841, Note_on_c, 0, 87, 0
4, 86863, Note_on_c, 0, 85, 37
4, 86887, Note_on_c, 0, 58, 0
4, 86991, Note_on_c, 0, 85, 0
4, 87072, Note_on_c, 0, 87, 80
4, 87240, Note_on_c, 0, 87, 0
4, 87301, Note_on_c, 0, 85, 77
4, 87451, Control_c, 0, 64, 0
4, 87477, Note_on_c, 0, 63, 31
4, 87487, Note_on_c, 0, 52, 34
4, 87493, Note_on_c, 0, 58, 37
4, 87505, Note_on_c, 0, 85, 0
4, 87530, Note_on_c, 0, 84, 53
4, 87641, Note_on_c, 0, 84, 0
4, 87734, Control_c, 0, 64, 127
4, 87764, Note_on_c, 0, 82, 59
4, 87918, Note_on_c, 0, 82, 0
4, 87945, Note_on_c, 0, 52, 0
4, 88010, Note_on_c, 0, 80, 53
4, 88019, Note_on_c, 0, 63, 0
4, 88038, Note_on_c, 0, 58, 0
4, 88151, Note_on_c, 0, 80, 0
4, 88242, Note_on_c, 0, 81, 48
4, 88395, Note_on_c, 0, 81, 0
4, 88451, Control_c, 0, 64, 0
4, 88454, Note_on_c, 0, 63, 31
4, 88455, Note_on_c, 0, 82, 65
4, 88465, Note_on_c, 0, 58, 43
4, 88482, Note_on_c, 0, 52, 29
4, 88653, Note_on_c, 0, 82, 0
4, 88742, Note_on_c, 0, 78, 42
4, 88840, Note_on_c, 0, 52, 0
4, 88875, Note_on_c, 0, 78, 0
4, 88907, Note_on_c, 0, 63, 0
4, 88949, Note_on_c, 0, 76, 44
4, 88982, Note_on_c, 0, 58, 0
4, 89092, Note_on_c, 0, 76, 0
4, 89174, Note_on_c, 0, 75, 49
4, 89260, Control_c, 0, 64, 127
4, 89350, Control_c, 0, 64, 0
4, 89351, Note_on_c, 0, 75, 0
4, 89380, Note_on_c, 0, 63, 25
4, 89409, Note_on_c, 0, 58, 34
4, 89419, Note_on_c, 0, 52, 25
4, 89428, Note_on_c, 0, 73, 28
4, 89498, Note_on_c, 0, 52, 0
4, 89601, Note_on_c, 0, 73, 0
4, 89611, Note_on_c, 0, 63, 0
4, 89638, Note_on_c, 0, 72, 46
4, 89757, Note_on_c, 0, 72, 0
4, 89857, Note_on_c, 0, 70, 45
4, 89980, Note_on_c, 0, 58, 0
4, 90033, Note_on_c, 0, 70, 0
4, 90114, Note_on_c, 0, 68, 27
4, 90242, Note_on_c, 0, 68, 0
4, 90296, Note_on_c, 0, 51, 35
4, 90301, Note_on_c, 0, 62, 29
4, 90322, Note_on_c, 0, 57, 36
4, 90397, Note_on_c, 0, 62, 0
4, 90398, Note_on_c, 0, 57, 0
4, 90422, Note_on_c, 0, 51, 0
4, 90562, Note_on_c, 0, 65, 47
4, 90680, Note_on_c, 0, 65, 0
4, 90798, Note_on_c, 0, 65, 41
4, 90920, Note_on_c, 0, 65, 0
4, 91040, Note_on_c, 0, 65, 54
4, 91191, Note_on_c, 0, 65, 0
4, 91244, Note_on_c, 0, 51, 33
4, 91250, Note_on_c, 0, 62, 29
4, 91268, Note_on_c, 0, 57, 41
4, 91275, Note_on_c, 0, 65, 67
4, 91321, Note_on_c, 0, 57, 0
4, 91338, Note_on_c, 0, 62, 0
4, 91348, Note_on_c, 0, 65, 0
4, 91352, Note_on_c, 0, 51, 0
4, 91402, Note_on_c, 0, 77, 47
4, 91532, Note_on_c, 0, 77, 0
4, 91571, Note_on_c, 0, 78, 55
4, 91637, Control_c, 0, 64, 127
4, 91714, Note_on_c, 0, 78, 0
4, 91732, Note_on_c, 0, 79, 44
4, 91819, Note_on_c, 0, 79, 0
4, 91876, Note_on_c, 0, 80, 42
4, 91929, Note_on_c, 0, 80, 0
4, 92000, Note_on_c, 0, 81, 28
4, 92048, Note_on_c, 0, 81, 0
4, 92053, Note_on_c, 0, 82, 43
4, 92212, Note_on_c, 0, 83, 60
4, 92219, Note_on_c, 0, 82, 0
4, 92222, Control_c, 0, 64, 0
4, 92242, Note_on_c, 0, 65, 29
4, 92243, Note_on_c, 0, 61, 33
4, 92269, Note_on_c, 0, 60, 33
4, 92280, Note_on_c, 0, 56, 35
4, 92323, Note_on_c, 0, 83, 0
4, 92385, Note_on_c, 0, 84, 64
4, 92542, Note_on_c, 0, 84, 0
4, 92558, Note_on_c, 0, 85, 71
4, 92684, Control_c, 0, 64, 127
4, 92746, Note_on_c, 0, 85, 0
4, 92843, Note_on_c, 0, 85, 52
4, 92922, Note_on_c, 0, 65, 0
4, 92958, Note_on_c, 0, 60, 0
4, 93000, Note_on_c, 0, 61, 0
4, 93035, Note_on_c, 0, 85, 0
4, 93093, Note_on_c, 0, 85, 61
4, 93095, Note_on_c, 0, 73, 52
4, 93278, Note_on_c, 0, 73, 0
4, 93284, Note_on_c, 0, 65, 38
4, 93289, Control_c, 0, 64, 0
4, 93293, Note_on_c, 0, 61, 34
4, 93309, Note_on_c, 0, 85, 0
4, 93343, Note_on_c, 0, 65, 0
4, 93380, Note_on_c, 0, 85, 48
4, 93392, Note_on_c, 0, 73, 32
4, 93421, Note_on_c, 0, 56, 0
4, 93426, Note_on_c, 0, 61, 0
4, 93433, Control_c, 0, 64, 127
4, 93556, Note_on_c, 0, 85, 0
4, 93568, Note_on_c, 0, 73, 0
4, 93633, Note_on_c, 0, 85, 44
4, 93658, Note_on_c, 0, 73, 33
4, 93773, Note_on_c, 0, 85, 0
4, 93789, Note_on_c, 0, 73, 0
4, 93854, Note_on_c, 0, 85, 48
4, 93860, Note_on_c, 0, 73, 28
4, 93982, Note_on_c, 0, 73, 0
4, 94000, Note_on_c, 0, 85, 0
4, 94074, Note_on_c, 0, 85, 40
4, 94086, Note_on_c, 0, 73, 33
4, 94087, Note_on_c, 0, 50, 35
4, 94198, Note_on_c, 0, 73, 0
4, 94215, Note_on_c, 0, 85, 0
4, 94244, Control_c, 0, 64, 0
4, 94284, Note_on_c, 0, 50, 0
4, 94289, Note_on_c, 0, 85, 46
4, 94290, Note_on_c, 0, 73, 28
4, 94294, Note_on_c, 0, 55, 40
4, 94327, Note_on_c, 0, 43, 26
4, 94449, Control_c, 0, 64, 127
4, 94483, Note_on_c, 0, 43, 0
4, 94593, Note_on_c, 0, 55, 0
4, 95129, Note_on_c, 0, 61, 36
4, 95170, Note_on_c, 0, 55, 44
4, 95178, Note_on_c, 0, 53, 22
4, 95187, Note_on_c, 0, 58, 42
4, 95239, Note_on_c, 0, 73, 0
4, 95336, Note_on_c, 0, 85, 0
4, 95451, Note_on_c, 0, 84, 58
4, 95469, Note_on_c, 0, 72, 67
4, 95506, Note_on_c, 0, 83, 30
4, 95616, Note_on_c, 0, 84, 0
4, 95621, Note_on_c, 0, 72, 0
4, 95622, Note_on_c, 0, 83, 0
4, 95702, Note_on_c, 0, 61, 0
4, 95758, Note_on_c, 0, 53, 0
4, 95772, Note_on_c, 0, 85, 77
4, 95785, Note_on_c, 0, 73, 71
4, 95794, Note_on_c, 0, 55, 0
4, 96025, Note_on_c, 0, 58, 0
4, 96032, Note_on_c, 0, 73, 0
4, 96043, Note_on_c, 0, 85, 0
4, 96071, Control_c, 0, 64, 0
4, 96107, Note_on_c, 0, 58, 35
4, 96109, Note_on_c, 0, 84, 67
4, 96110, Note_on_c, 0, 63, 60
4, 96123, Note_on_c, 0, 52, 49
4, 96126, Note_on_c, 0, 72, 71
4, 96156, Note_on_c, 0, 83, 43
4, 96220, Note_on_c, 0, 83, 0
4, 96253, Note_on_c, 0, 63, 0
4, 96257, Control_c, 0, 64, 127
4, 96308, Note_on_c, 0, 52, 0
4, 96328, Note_on_c, 0, 58, 0
4, 96964, Control_c, 0, 64, 0
4, 96998, Note_on_c, 0, 24, 57
4, 97010, Note_on_c, 0, 36, 43
4, 97033, Note_on_c, 0, 84, 0
4, 97084, Note_on_c, 0, 72, 0
4, 97118, Control_c, 0, 64, 127
4, 97232, Note_on_c, 0, 24, 0
4, 97303, Note_on_c, 0, 36, 0
4, 97867, Control_c, 0, 64, 0
4, 97898, Note_on_c, 0, 80, 85
4, 97903, Note_on_c, 0, 73, 79
4, 97905, Note_on_c, 0, 75, 81
4, 97907, Note_on_c, 0, 69, 91
4, 97910, Note_on_c, 0, 68, 85
4, 98105, Note_on_c, 0, 73, 0
4, 98114, Note_on_c, 0, 68, 0
4, 98115, Note_on_c, 0, 69, 0
4, 98128, Note_on_c, 0, 75, 0
4, 98137, Note_on_c, 0, 80, 0
4, 98370, Note_on_c, 0, 78, 67
4, 98374, Note_on_c, 0, 75, 67
4, 98378, Note_on_c, 0, 73, 59
4, 98380, Note_on_c, 0, 69, 74
4, 98382, Note_on_c, 0, 66, 69
4, 98514, Control_c, 0, 64, 127
4, 98531, Note_on_c, 0, 78, 0
4, 98552, Note_on_c, 0, 73, 0
4, 98553, Note_on_c, 0, 75, 0
4, 98554, Note_on_c, 0, 69, 0
4, 98605, Note_on_c, 0, 66, 0
4, 98729, Control_c, 0, 64, 0
4, 98826, Note_on_c, 0, 70, 62
4, 98838, Note_on_c, 0, 77, 62
4, 98843, Note_on_c, 0, 65, 57
4, 98856, Note_on_c, 0, 72, 49
4, 98859, Note_on_c, 0, 66, 53
4, 98866, Note_on_c, 0, 69, 49
4, 99038, Note_on_c, 0, 70, 0
4, 99040, Note_on_c, 0, 77, 0
4, 99077, Note_on_c, 0, 66, 0
4, 99092, Note_on_c, 0, 69, 0
4, 99192, Note_on_c, 0, 65, 0
4, 99203, Note_on_c, 0, 72, 0
4, 99295, Note_on_c, 0, 75, 52
4, 99305, Note_on_c, 0, 63, 48
4, 99309, Note_on_c, 0, 66, 45
4, 99320, Note_on_c, 0, 72, 31
4, 99325, Note_on_c, 0, 69, 47
4, 99396, Control_c, 0, 64, 127
4, 99448, Note_on_c, 0, 69, 0
4, 99462, Note_on_c, 0, 75, 0
4, 99472, Note_on_c, 0, 63, 0
4, 99491, Note_on_c, 0, 72, 0
4, 99521, Note_on_c, 0, 66, 0
4, 99694, Control_c, 0, 64, 0
4, 99744, Note_on_c, 0, 73, 56
4, 99765, Note_on_c, 0, 62, 49
4, 99783, Note_on_c, 0, 65, 46
4, 99910, Control_c, 0, 64, 127
4, 99979, Note_on_c, 0, 73, 0
4, 99983, Note_on_c, 0, 65, 0
4, 100000, Note_on_c, 0, 62, 0
4, 100125, Control_c, 0, 64, 0
4, 100245, Note_on_c, 0, 61, 54
4, 100251, Note_on_c, 0, 65, 51
4, 100252, Note_on_c, 0, 72, 44
4, 100253, Note_on_c, 0, 60, 44
4, 100403, Control_c, 0, 64, 127
4, 100578, Note_on_c, 0, 61, 0
4, 100584, Note_on_c, 0, 65, 0
4, 100590, Note_on_c, 0, 72, 0
4, 100649, Control_c, 0, 64, 0
4, 100684, Note_on_c, 0, 60, 0
4, 100754, Note_on_c, 0, 61, 44
4, 100764, Note_on_c, 0, 58, 43
4, 100768, Note_on_c, 0, 70, 49
4, 100769, Note_on_c, 0, 65, 42
4, 100844, Control_c, 0, 64, 127
4, 100856, Note_on_c, 0, 58, 0
4, 100973, Note_on_c, 0, 65, 0
4, 101023, Note_on_c, 0, 61, 0
4, 101131, Control_c, 0, 64, 0
4, 101229, Note_on_c, 0, 44, 36
4, 101231, Note_on_c, 0, 61, 48
4, 101248, Note_on_c, 0, 65, 49
4, 101272, Note_on_c, 0, 70, 0
4, 101296, Control_c, 0, 64, 127
4, 101364, Note_on_c, 0, 65, 0
4, 101388, Note_on_c, 0, 61, 0
4, 101599, Note_on_c, 0, 44, 0
4, 101726, Control_c, 0, 64, 0
4, 101749, Note_on_c, 0, 61, 37
4, 101770, Note_on_c, 0, 58, 37
4, 101772, Note_on_c, 0, 43, 36
4, 101774, Note_on_c, 0, 53, 34
4, 101911, Control_c, 0, 64, 127
4, 102282, Note_on_c, 0, 53, 0
4, 102424, Note_on_c, 0, 58, 0
4, 102714, Note_on_c, 0, 58, 42
4, 102723, Note_on_c, 0, 49, 25
4, 102742, Note_on_c, 0, 53, 22
4, 102962, Note_on_c, 0, 49, 0
4, 103051, Note_on_c, 0, 43, 0
4, 103619, Note_on_c, 0, 58, 0
4, 103633, Note_on_c, 0, 53, 0
4, 103666, Control_c, 0, 64, 0
4, 103677, Note_on_c, 0, 24, 33
4, 103688, Note_on_c, 0, 36, 24
4, 103700, Note_on_c, 0, 61, 0
4, 104014, Note_on_c, 0, 48, 41
4, 104220, Note_on_c, 0, 48, 0
4, 104249, Note_on_c, 0, 49, 56
4, 104380, Note_on_c, 0, 49, 0
4, 104449, Note_on_c, 0, 54, 60
4, 104457, Control_c, 0, 64, 127
4, 104570, Note_on_c, 0, 36, 0
4, 104664, Note_on_c, 0, 51, 47
4, 104672, Control_c, 0, 64, 0
4, 104682, Note_on_c, 0, 54, 0
4, 104699, Note_on_c, 0, 36, 31
4, 104803, Note_on_c, 0, 51, 0
4, 104839, Note_on_c, 0, 52, 42
4, 104933, Note_on_c, 0, 52, 0
4, 104994, Note_on_c, 0, 54, 47
4, 105085, Note_on_c, 0, 54, 0
4, 105156, Note_on_c, 0, 24, 0
4, 105158, Note_on_c, 0, 55, 36
4, 105245, Note_on_c, 0, 55, 0
4, 105268, Note_on_c, 0, 36, 0
4, 105319, Note_on_c, 0, 57, 34
4, 105411, Note_on_c, 0, 57, 0
4, 105493, Control_c, 0, 64, 127
4, 105596, Control_c, 0, 64, 0
4, 105662, Note_on_c, 0, 41, 45
4, 105928, Note_on_c, 0, 56, 47
4, 106012, Note_on_c, 0, 56, 0
4, 106096, Note_on_c, 0, 58, 60
4, 106260, Note_on_c, 0, 58, 0
4, 106273, Note_on_c, 0, 56, 42
4, 106365, Note_on_c, 0, 56, 0
4, 106398, Note_on_c, 0, 57, 47
4, 106460, Note_on_c, 0, 57, 0
4, 106541, Control_c, 0, 64, 127
4, 106547, Note_on_c, 0, 58, 47
4, 106582, Control_c, 0, 64, 0
4, 106644, Note_on_c, 0, 58, 0
4, 106698, Note_on_c, 0, 48, 24
4, 106699, Note_on_c, 0, 59, 32
4, 106770, Note_on_c, 0, 59, 0
4, 106830, Note_on_c, 0, 60, 40
4, 106926, Note_on_c, 0, 41, 0
4, 106937, Note_on_c, 0, 60, 0
4, 106976, Note_on_c, 0, 61, 54
4, 107077, Note_on_c, 0, 61, 0
4, 107137, Note_on_c, 0, 62, 41
4, 107150, Note_on_c, 0, 57, 30
4, 107248, Note_on_c, 0, 62, 0
4, 107253, Note_on_c, 0, 63, 43
4, 107257, Note_on_c, 0, 48, 0
4, 107328, Note_on_c, 0, 57, 0
4, 107348, Note_on_c, 0, 63, 0
4, 107393, Control_c, 0, 64, 127
4, 107405, Note_on_c, 0, 64, 28
4, 107521, Note_on_c, 0, 64, 0
4, 107553, Note_on_c, 0, 65, 55
4, 107638, Control_c, 0, 64, 0
4, 107676, Note_on_c, 0, 65, 0
4, 107942, Note_on_c, 0, 42, 47
4, 107950, Note_on_c, 0, 64, 51
4, 108029, Note_on_c, 0, 64, 0
4, 108033, Note_on_c, 0, 42, 0
4, 108216, Note_on_c, 0, 68, 56
4, 108232, Note_on_c, 0, 61, 48
4, 108233, Note_on_c, 0, 57, 37
4, 108234, Note_on_c, 0, 64, 43
4, 108236, Note_on_c, 0, 56, 60
4, 108320, Note_on_c, 0, 57, 0
4, 108340, Note_on_c, 0, 68, 0
4, 108360, Note_on_c, 0, 56, 0
4, 108382, Note_on_c, 0, 64, 0
4, 108410, Note_on_c, 0, 61, 0
4, 108506, Note_on_c, 0, 66, 45
4, 108523, Note_on_c, 0, 57, 30
4, 108526, Note_on_c, 0, 54, 46
4, 108530, Note_on_c, 0, 61, 30
4, 108612, Note_on_c, 0, 57, 0
4, 108642, Note_on_c, 0, 61, 0
4, 108681, Note_on_c, 0, 66, 0
4, 108726, Note_on_c, 0, 54, 0
4, 108753, Note_on_c, 0, 61, 35
4, 108755, Note_on_c, 0, 68, 44
4, 108758, Note_on_c, 0, 56, 40
4, 108766, Note_on_c, 0, 57, 36
4, 108800, Note_on_c, 0, 64, 26
4, 108865, Note_on_c, 0, 57, 0
4, 108867, Note_on_c, 0, 64, 0
4, 108886, Note_on_c, 0, 68, 0
4, 108911, Control_c, 0, 64, 127
4, 108917, Note_on_c, 0, 56, 0
4, 108993, Note_on_c, 0, 66, 51
4, 109007, Note_on_c, 0, 54, 36
4, 109078, Note_on_c, 0, 54, 0
4, 109231, Note_on_c, 0, 57, 40
4, 109325, Note_on_c, 0, 57, 0
4, 109348, Note_on_c, 0, 61, 0
4, 109364, Note_on_c, 0, 66, 0
4, 109424, Control_c, 0, 64, 0
4, 109467, Note_on_c, 0, 66, 38
4, 109486, Note_on_c, 0, 61, 36
4, 109487, Note_on_c, 0, 57, 44
4, 109507, Note_on_c, 0, 47, 41
4, 109517, Note_on_c, 0, 63, 37
4, 109691, Control_c, 0, 64, 127
4, 110267, Note_on_c, 0, 57, 0
4, 110458, Note_on_c, 0, 57, 33
4, 110462, Note_on_c, 0, 56, 36
4, 110708, Note_on_c, 0, 56, 0
4, 110748, Note_on_c, 0, 47, 0
4, 110905, Note_on_c, 0, 54, 48
4, 111000, Note_on_c, 0, 54, 0
4, 111045, Note_on_c, 0, 57, 0
4, 111092, Note_on_c, 0, 66, 0
4, 111132, Note_on_c, 0, 63, 0
4, 111344, Control_c, 0, 64, 0
4, 111390, Note_on_c, 0, 55, 30
4, 111392, Note_on_c, 0, 52, 36
4, 111399, Note_on_c, 0, 47, 34
4, 111409, Note_on_c, 0, 59, 39
4, 111411, Note_on_c, 0, 66, 21
4, 111412, Note_on_c, 0, 40, 25
4, 111419, Note_on_c, 0, 62, 34
4, 111484, Note_on_c, 0, 55, 0
4, 111508, Control_c, 0, 64, 127
4, 111509, Note_on_c, 0, 59, 0
4, 111524, Note_on_c, 0, 62, 0
4, 111566, Note_on_c, 0, 61, 0
4, 111571, Note_on_c, 0, 66, 0
4, 111630, Note_on_c, 0, 40, 0
4, 111645, Note_on_c, 0, 47, 0
4, 111702, Note_on_c, 0, 52, 0
4, 111906, Note_on_c, 0, 78, 70
4, 111918, Note_on_c, 0, 71, 74
4, 112225, Note_on_c, 0, 71, 0
4, 112260, Note_on_c, 0, 78, 0
4, 112387, Note_on_c, 0, 78, 64
4, 112391, Note_on_c, 0, 66, 55
4, 112399, Note_on_c, 0, 71, 71
4, 112401, Control_c, 0, 64, 0
4, 112405, Note_on_c, 0, 67, 54
4, 112555, Control_c, 0, 64, 127
4, 112688, Note_on_c, 0, 66, 0
4, 112714, Note_on_c, 0, 78, 0
4, 112771, Note_on_c, 0, 71, 0
4, 112772, Note_on_c, 0, 67, 0
4, 112837, Note_on_c, 0, 77, 63
4, 112841, Note_on_c, 0, 67, 44
4, 112843, Note_on_c, 0, 63, 46
4, 112854, Note_on_c, 0, 71, 32
4, 112881, Note_on_c, 0, 77, 0
4, 112891, Note_on_c, 0, 63, 0
4, 112911, Note_on_c, 0, 71, 0
4, 112948, Note_on_c, 0, 67, 0
4, 113294, Control_c, 0, 64, 0
4, 113295, Note_on_c, 0, 65, 47
4, 113313, Note_on_c, 0, 61, 42
4, 113321, Note_on_c, 0, 58, 46
4, 113323, Note_on_c, 0, 54, 37
4, 113332, Note_on_c, 0, 39, 49
4, 113332, Note_on_c, 0, 46, 44
4, 113468, Control_c, 0, 64, 127
4, 113812, Note_on_c, 0, 54, 0
4, 113891, Note_on_c, 0, 39, 0
4, 114017, Note_on_c, 0, 61, 0
4, 114019, Note_on_c, 0, 58, 0
4, 114062, Note_on_c, 0, 46, 0
4, 114065, Note_on_c, 0, 65, 0
4, 114320, Control_c, 0, 64, 0
4, 114321, Note_on_c, 0, 58, 46
4, 114324, Note_on_c, 0, 54, 42
4, 114326, Note_on_c, 0, 65, 38
4, 114338, Note_on_c, 0, 60, 47
4, 114339, Note_on_c, 0, 44, 32
4, 114505, Control_c, 0, 64, 127
4, 114813, Note_on_c, 0, 44, 0
4, 114847, Note_on_c, 0, 65, 0
4, 114870, Note_on_c, 0, 54, 0
4, 114993, Note_on_c, 0, 58, 0
4, 115053, Note_on_c, 0, 60, 0
4, 115204, Control_c, 0, 64, 0
4, 115262, Note_on_c, 0, 63, 36
4, 115267, Note_on_c, 0, 60, 34
4, 115268, Note_on_c, 0, 56, 39
4, 115276, Note_on_c, 0, 37, 34
4, 115284, Note_on_c, 0, 44, 30
4, 115288, Note_on_c, 0, 53, 19
4, 115356, Note_on_c, 0, 53, 0
4, 115408, Control_c, 0, 64, 127
4, 115409, Note_on_c, 0, 56, 0
4, 115431, Note_on_c, 0, 60, 0
4, 115460, Note_on_c, 0, 63, 0
4, 115599, Note_on_c, 0, 37, 0
4, 115641, Note_on_c, 0, 44, 0
4, 115784, Note_on_c, 0, 75, 67
4, 116239, Note_on_c, 0, 65, 43
4, 116248, Note_on_c, 0, 68, 39
4, 116255, Note_on_c, 0, 63, 45
4, 116617, Note_on_c, 0, 75, 0
4, 116722, Note_on_c, 0, 75, 60
4, 116824, Note_on_c, 0, 65, 0
4, 117003, Note_on_c, 0, 63, 0
4, 117057, Note_on_c, 0, 68, 0
4, 117177, Note_on_c, 0, 68, 45
4, 117185, Note_on_c, 0, 65, 46
4, 117213, Note_on_c, 0, 63, 37
4, 117588, Note_on_c, 0, 63, 0
4, 117755, Note_on_c, 0, 63, 43
4, 117799, Note_on_c, 0, 65, 0
4, 117846, Note_on_c, 0, 68, 0
4, 118073, Note_on_c, 0, 63, 0
4, 118155, Note_on_c, 0, 75, 0
4, 118165, Note_on_c, 0, 64, 46
4, 118169, Control_c, 0, 64, 0
4, 118170, Note_on_c, 0, 68, 39
4, 118177, Note_on_c, 0, 72, 50
4, 118189, Note_on_c, 0, 58, 45
4, 118344, Control_c, 0, 64, 127
4, 118499, Note_on_c, 0, 58, 0
4, 118719, Note_on_c, 0, 72, 0
4, 118766, Note_on_c, 0, 68, 0
4, 118845, Note_on_c, 0, 64, 0
4, 119094, Note_on_c, 0, 58, 37
4, 119113, Control_c, 0, 64, 0
4, 119115, Note_on_c, 0, 48, 40
4, 119412, Note_on_c, 0, 65, 83
4, 119433, Note_on_c, 0, 72, 60
4, 119607, Note_on_c, 0, 65, 0
4, 119633, Note_on_c, 0, 66, 55
4, 119754, Note_on_c, 0, 65, 50
4, 119778, Note_on_c, 0, 72, 0
4, 119833, Note_on_c, 0, 66, 0
4, 119838, Note_on_c, 0, 58, 0
4, 119903, Note_on_c, 0, 63, 55
4, 119904, Note_on_c, 0, 65, 0
4, 119914, Control_c, 0, 64, 127
4, 119976, Control_c, 0, 64, 0
4, 119984, Note_on_c, 0, 63, 0
4, 120054, Note_on_c, 0, 58, 46
4, 120072, Note_on_c, 0, 65, 74
4, 120091, Note_on_c, 0, 72, 65
4, 120181, Note_on_c, 0, 58, 0
4, 120214, Note_on_c, 0, 48, 0
4, 120366, Note_on_c, 0, 65, 0
4, 120372, Note_on_c, 0, 66, 63
4, 120511, Note_on_c, 0, 72, 0
4, 120597, Note_on_c, 0, 65, 49
4, 120653, Control_c, 0, 64, 127
4, 120662, Note_on_c, 0, 66, 0
4, 120796, Note_on_c, 0, 65, 0
4, 120815, Note_on_c, 0, 63, 38
4, 120921, Control_c, 0, 64, 0
4, 120922, Note_on_c, 0, 63, 0
4, 120943, Note_on_c, 0, 41, 27
4, 120982, Note_on_c, 0, 57, 45
4, 121020, Note_on_c, 0, 65, 28
4, 121022, Note_on_c, 0, 72, 1
4, 121149, Note_on_c, 0, 57, 0
4, 121156, Control_c, 0, 64, 127
4, 121157, Note_on_c, 0, 72, 0
4, 121209, Note_on_c, 0, 41, 0
4, 121285, Note_on_c, 0, 65, 0
4, 121320, Note_on_c, 0, 60, 45
4, 121596, Note_on_c, 0, 61, 54
4, 121604, Note_on_c, 0, 60, 0
4, 121826, Note_on_c, 0, 61, 0
4, 121908, Note_on_c, 0, 63, 56
4, 121926, Control_c, 0, 64, 0
4, 121938, Note_on_c, 0, 51, 37
4, 121944, Note_on_c, 0, 57, 37
4, 122105, Note_on_c, 0, 63, 0
4, 122148, Note_on_c, 0, 57, 0
4, 122192, Note_on_c, 0, 65, 42
4, 122293, Note_on_c, 0, 51, 0
4, 122336, Note_on_c, 0, 65, 0
4, 122435, Note_on_c, 0, 70, 47
4, 122574, Note_on_c, 0, 70, 0
4, 122692, Note_on_c, 0, 72, 53
4, 122695, Control_c, 0, 64, 127
4, 122840, Control_c, 0, 64, 0
4, 122864, Note_on_c, 0, 72, 0
4, 122914, Note_on_c, 0, 73, 49
4, 122917, Note_on_c, 0, 46, 44
4, 122926, Note_on_c, 0, 34, 38
4, 122992, Note_on_c, 0, 73, 0
4, 123012, Note_on_c, 0, 46, 0
4, 123025, Note_on_c, 0, 34, 0
4, 123215, Note_on_c, 0, 77, 57
4, 123346, Note_on_c, 0, 77, 0
4, 123424, Note_on_c, 0, 82, 49
4, 123568, Note_on_c, 0, 82, 0
4, 123688, Note_on_c, 0, 84, 61
4, 123819, Note_on_c, 0, 84, 0
4, 123919, Note_on_c, 0, 61, 30
4, 123921, Note_on_c, 0, 65, 31
4, 123924, Note_on_c, 0, 60, 27
4, 123928, Note_on_c, 0, 44, 31
4, 123937, Note_on_c, 0, 85, 67
4, 124023, Note_on_c, 0, 65, 0
4, 124024, Note_on_c, 0, 60, 0
4, 124080, Note_on_c, 0, 85, 0
4, 124112, Note_on_c, 0, 44, 0
4, 124120, Note_on_c, 0, 61, 0
4, 124205, Note_on_c, 0, 87, 69
4, 124317, Note_on_c, 0, 87, 0
4, 124444, Note_on_c, 0, 85, 37
4, 124579, Note_on_c, 0, 85, 0
4, 124680, Note_on_c, 0, 87, 56
4, 124697, Control_c, 0, 64, 127
4, 124801, Control_c, 0, 64, 0
4, 124805, Note_on_c, 0, 87, 0
4, 124903, Note_on_c, 0, 85, 50
4, 124908, Note_on_c, 0, 31, 33
4, 125005, Note_on_c, 0, 31, 0
4, 125229, Note_on_c, 0, 77, 20
4, 125303, Note_on_c, 0, 77, 0
4, 125422, Note_on_c, 0, 85, 0
4, 125514, Note_on_c, 0, 77, 44
4, 125628, Note_on_c, 0, 77, 0
4, 125844, Note_on_c, 0, 61, 40
4, 125952, Note_on_c, 0, 61, 0
4, 126430, Note_on_c, 0, 96, 91
4, 126515, Control_c, 0, 64, 127
4, 126613, Note_on_c, 0, 96, 0
4, 126729, Control_c, 0, 64, 0
4, 126788, Note_on_c, 0, 24, 27
4, 126798, Note_on_c, 0, 97, 77
4, 126810, Note_on_c, 0, 40, 24
4, 126922, Note_on_c, 0, 24, 0
4, 126989, Note_on_c, 0, 97, 0
4, 127042, Note_on_c, 0, 99, 71
4, 127077, Note_on_c, 0, 40, 0
4, 127182, Note_on_c, 0, 99, 0
4, 127286, Note_on_c, 0, 96, 60
4, 127417, Control_c, 0, 64, 127
4, 127460, Note_on_c, 0, 96, 0
4, 127497, Note_on_c, 0, 97, 64
4, 127653, Control_c, 0, 64, 0
4, 127700, Note_on_c, 0, 97, 0
4, 127726, Note_on_c, 0, 61, 40
4, 127741, Note_on_c, 0, 58, 48
4, 127742, Note_on_c, 0, 106, 56
4, 127751, Note_on_c, 0, 64, 32
4, 127922, Note_on_c, 0, 106, 0
4, 127979, Note_on_c, 0, 108, 55
4, 127998, Note_on_c, 0, 64, 0
4, 128046, Note_on_c, 0, 61, 0
4, 128102, Note_on_c, 0, 58, 0
4, 128122, Note_on_c, 0, 108, 0
4, 128214, Note_on_c, 0, 105, 77
4, 128361, Control_c, 0, 64, 127
4, 128399, Note_on_c, 0, 105, 0
4, 128434, Note_on_c, 0, 106, 60
4, 128619, Note_on_c, 0, 106, 0
4, 128628, Control_c, 0, 64, 0
4, 128667, Note_on_c, 0, 62, 37
4, 128670, Note_on_c, 0, 102, 57
4, 128680, Note_on_c, 0, 51, 31
4, 128703, Note_on_c, 0, 57, 37
4, 128836, Note_on_c, 0, 57, 0
4, 128844, Note_on_c, 0, 62, 0
4, 128919, Note_on_c, 0, 106, 52
4, 128920, Note_on_c, 0, 51, 0
4, 128930, Note_on_c, 0, 102, 0
4, 129123, Note_on_c, 0, 106, 0
4, 129144, Note_on_c, 0, 101, 52
4, 129223, Control_c, 0, 64, 127
4, 129336, Note_on_c, 0, 101, 0
4, 129370, Note_on_c, 0, 106, 57
4, 129524, Note_on_c, 0, 106, 0
4, 129552, Control_c, 0, 64, 0
4, 129589, Note_on_c, 0, 100, 50
4, 129591, Note_on_c, 0, 29, 36
4, 129594, Note_on_c, 0, 41, 32
4, 129775, Note_on_c, 0, 29, 0
4, 129849, Note_on_c, 0, 106, 55
4, 129890, Note_on_c, 0, 41, 0
4, 129897, Note_on_c, 0, 100, 0
4, 130023, Note_on_c, 0, 106, 0
4, 130100, Note_on_c, 0, 98, 40
4, 130121, Note_on_c, 0, 100, 32
4, 130138, Control_c, 0, 64, 127
4, 130163, Note_on_c, 0, 100, 0
4, 130317, Note_on_c, 0, 106, 59
4, 130332, Note_on_c, 0, 98, 0
4, 130514, Note_on_c, 0, 106, 0
4, 130518, Control_c, 0, 64, 0
4, 130545, Note_on_c, 0, 97, 54
4, 130549, Note_on_c, 0, 44, 50
4, 130568, Note_on_c, 0, 34, 33
4, 130698, Note_on_c, 0, 44, 0
4, 130703, Note_on_c, 0, 34, 0
4, 130803, Note_on_c, 0, 97, 0
4, 130807, Note_on_c, 0, 106, 47
4, 130958, Note_on_c, 0, 106, 0
4, 131008, Note_on_c, 0, 94, 47
4, 131092, Control_c, 0, 64, 127
4, 131286, Note_on_c, 0, 106, 49
4, 131334, Note_on_c, 0, 94, 0
4, 131428, Note_on_c, 0, 106, 0
4, 131462, Control_c, 0, 64, 0
4, 131505, Note_on_c, 0, 65, 36
4, 131517, Note_on_c, 0, 61, 29
4, 131524, Note_on_c, 0, 56, 30
4, 131534, Note_on_c, 0, 60, 26
4, 131738, Control_c, 0, 64, 127
4, 131781, Note_on_c, 0, 106, 67
4, 131958, Note_on_c, 0, 106, 0
4, 131987, Note_on_c, 0, 94, 45
4, 132115, Note_on_c, 0, 56, 0
4, 132157, Note_on_c, 0, 60, 0
4, 132182, Note_on_c, 0, 65, 0
4, 132249, Note_on_c, 0, 94, 0
4, 132261, Note_on_c, 0, 106, 57
4, 132377, Note_on_c, 0, 61, 0
4, 132457, Control_c, 0, 64, 0
4, 132464, Note_on_c, 0, 106, 0
4, 132468, Note_on_c, 0, 61, 26
4, 132485, Note_on_c, 0, 65, 40
4, 132488, Note_on_c, 0, 96, 64
4, 132501, Note_on_c, 0, 55, 28
4, 132748, Note_on_c, 0, 106, 56
4, 132765, Control_c, 0, 64, 127
4, 132766, Note_on_c, 0, 96, 0
4, 132927, Note_on_c, 0, 106, 0
4, 132940, Note_on_c, 0, 65, 0
4, 132950, Note_on_c, 0, 97, 73
4, 133058, Note_on_c, 0, 61, 0
4, 133206, Note_on_c, 0, 97, 0
4, 133206, Note_on_c, 0, 106, 64
4, 133381, Control_c, 0, 64, 0
4, 133417, Note_on_c, 0, 106, 0
4, 133439, Note_on_c, 0, 61, 49
4, 133442, Note_on_c, 0, 99, 76
4, 133451, Note_on_c, 0, 65, 40
4, 133497, Note_on_c, 0, 65, 0
4, 133567, Note_on_c, 0, 61, 0
4, 133575, Control_c, 0, 64, 127
4, 133611, Note_on_c, 0, 55, 0
4, 133678, Note_on_c, 0, 99, 0
4, 133684, Note_on_c, 0, 106, 56
4, 133862, Note_on_c, 0, 106, 0
4, 133893, Note_on_c, 0, 97, 83
4, 134153, Note_on_c, 0, 106, 56
4, 134308, Note_on_c, 0, 97, 0
4, 134322, Note_on_c, 0, 106, 0
4, 134345, Control_c, 0, 64, 0
4, 134375, Note_on_c, 0, 96, 61
4, 134382, Note_on_c, 0, 24, 45
4, 134459, Note_on_c, 0, 24, 0
4, 134531, Control_c, 0, 64, 127
4, 134540, Note_on_c, 0, 96, 0
4, 134547, Note_on_c, 0, 106, 52
4, 134716, Note_on_c, 0, 106, 0
4, 134733, Note_on_c, 0, 97, 68
4, 134899, Note_on_c, 0, 97, 0
4, 134923, Note_on_c, 0, 106, 60
4, 135086, Note_on_c, 0, 106, 0
4, 135118, Note_on_c, 0, 99, 69
4, 135272, Note_on_c, 0, 99, 0
4, 135292, Note_on_c, 0, 106, 69
4, 135362, Note_on_c, 0, 61, 29
4, 135385, Note_on_c, 0, 58, 35
4, 135386, Note_on_c, 0, 64, 20
4, 135424, Control_c, 0, 64, 0
4, 135479, Note_on_c, 0, 106, 0
4, 135494, Note_on_c, 0, 100, 66
4, 135608, Control_c, 0, 64, 127
4, 135640, Note_on_c, 0, 100, 0
4, 135667, Note_on_c, 0, 106, 64
4, 135735, Note_on_c, 0, 58, 0
4, 135752, Note_on_c, 0, 61, 0
4, 135813, Note_on_c, 0, 64, 0
4, 135843, Note_on_c, 0, 106, 0
4, 135865, Note_on_c, 0, 100, 49
4, 136003, Note_on_c, 0, 100, 0
4, 136295, Control_c, 0, 64, 0
4, 136342, Note_on_c, 0, 65, 34
4, 136350, Note_on_c, 0, 63, 46
4, 136366, Note_on_c, 0, 57, 37
4, 136491, Control_c, 0, 64, 127
4, 136571, Note_on_c, 0, 65, 0
4, 136607, Note_on_c, 0, 63, 0
4, 136641, Note_on_c, 0, 57, 0
4, 137302, Control_c, 0, 64, 0
4, 137320, Note_on_c, 0, 29, 37
4, 137341, Note_on_c, 0, 41, 22
4, 137455, Control_c, 0, 64, 127
4, 137569, Note_on_c, 0, 29, 0
4, 137654, Note_on_c, 0, 41, 0
4, 138235, Control_c, 0, 64, 0
4, 138249, Note_on_c, 0, 97, 84
4, 138249, Note_on_c, 0, 104, 83
4, 138253, Note_on_c, 0, 100, 75
4, 138255, Note_on_c, 0, 93, 80
4, 138268, Note_on_c, 0, 102, 43
4, 138505, Note_on_c, 0, 104, 0
4, 138512, Note_on_c, 0, 100, 0
4, 138523, Control_c, 0, 64, 127
4, 138532, Control_c, 0, 64, 0
4, 138537, Note_on_c, 0, 102, 0
4, 138562, Note_on_c, 0, 97, 0
4, 138582, Note_on_c, 0, 93, 0
4, 138800, Control_c, 0, 64, 127
4, 139128, Control_c, 0, 64, 0
4, 139208, Note_on_c, 0, 80, 67
4, 139211, Note_on_c, 0, 73, 63
4, 139217, Note_on_c, 0, 76, 70
4, 139220, Note_on_c, 0, 68, 65
4, 139224, Note_on_c, 0, 69, 68
4, 139269, Note_on_c, 0, 71, 25
4, 139307, Note_on_c, 0, 71, 0
4, 139350, Note_on_c, 0, 68, 0
4, 139381, Note_on_c, 0, 76, 0
4, 139397, Note_on_c, 0, 69, 0
4, 139398, Note_on_c, 0, 73, 0
4, 139425, Note_on_c, 0, 80, 0
4, 139655, Note_on_c, 0, 78, 40
4, 139703, Note_on_c, 0, 75, 55
4, 139712, Note_on_c, 0, 68, 46
4, 139715, Note_on_c, 0, 73, 34
4, 139734, Note_on_c, 0, 69, 30
4, 139878, Note_on_c, 0, 75, 0
4, 139895, Note_on_c, 0, 78, 0
4, 139899, Note_on_c, 0, 68, 0
4, 139920, Note_on_c, 0, 69, 0
4, 139934, Note_on_c, 0, 73, 0
4, 140216, Control_c, 0, 64, 127
4, 141468, Control_c, 0, 64, 0
4, 141541, Note_on_c, 0, 66, 42
4, 141543, Note_on_c, 0, 63, 55
4, 141569, Note_on_c, 0, 47, 43
4, 141585, Note_on_c, 0, 57, 15
4, 141673, Control_c, 0, 64, 127
4, 141828, Note_on_c, 0, 57, 0
4, 141848, Note_on_c, 0, 47, 0
4, 141889, Note_on_c, 0, 66, 0
4, 141898, Note_on_c, 0, 63, 0
4, 142003, Control_c, 0, 64, 0
4, 142051, Note_on_c, 0, 40, 38
4, 142057, Note_on_c, 0, 66, 35
4, 142067, Note_on_c, 0, 62, 39
4, 142086, Note_on_c, 0, 59, 35
4, 142093, Note_on_c, 0, 55, 12
4, 142208, Control_c, 0, 64, 127
4, 142570, Note_on_c, 0, 47, 37
4, 142672, Note_on_c, 0, 40, 0
4, 142678, Note_on_c, 0, 55, 0
4, 142702, Note_on_c, 0, 62, 0
4, 142704, Note_on_c, 0, 59, 0
4, 142708, Note_on_c, 0, 47, 0
4, 142732, Note_on_c, 0, 66, 0
4, 143019, Control_c, 0, 64, 0
4, 143058, Note_on_c, 0, 65, 37
4, 143067, Note_on_c, 0, 61, 37
4, 143070, Note_on_c, 0, 54, 33
4, 143075, Note_on_c, 0, 58, 39
4, 143092, Note_on_c, 0, 39, 36
4, 143244, Control_c, 0, 64, 127
4, 143550, Note_on_c, 0, 46, 44
4, 143775, Note_on_c, 0, 54, 0
4, 143828, Note_on_c, 0, 58, 0
4, 143859, Note_on_c, 0, 65, 0
4, 143869, Note_on_c, 0, 46, 0
4, 143979, Note_on_c, 0, 39, 0
4, 144029, Note_on_c, 0, 65, 49
4, 144034, Control_c, 0, 64, 0
4, 144038, Note_on_c, 0, 58, 56
4, 144039, Note_on_c, 0, 44, 42
4, 144047, Note_on_c, 0, 54, 46
4, 144056, Note_on_c, 0, 60, 53
4, 144407, Note_on_c, 0, 44, 0
4, 144531, Note_on_c, 0, 44, 86
4, 144619, Control_c, 0, 64, 127
4, 144949, Note_on_c, 0, 44, 0
4, 145025, Note_on_c, 0, 44, 71
4, 145398, Note_on_c, 0, 44, 0
4, 145499, Note_on_c, 0, 65, 0
4, 145502, Note_on_c, 0, 44, 72
4, 145512, Note_on_c, 0, 54, 0
4, 145674, Note_on_c, 0, 58, 0
4, 145814, Note_on_c, 0, 61, 0
4, 145857, Note_on_c, 0, 44, 0
4, 145868, Note_on_c, 0, 60, 0
4, 145892, Control_c, 0, 64, 0
4, 145944, Note_on_c, 0, 63, 60
4, 145947, Note_on_c, 0, 44, 59
4, 145952, Note_on_c, 0, 60, 32
4, 145960, Note_on_c, 0, 56, 71
4, 145963, Note_on_c, 0, 53, 64
4, 146099, Control_c, 0, 64, 127
4, 146196, Note_on_c, 0, 44, 0
4, 146277, Note_on_c, 0, 53, 0
4, 146378, Note_on_c, 0, 56, 0
4, 146441, Note_on_c, 0, 60, 0
4, 146445, Note_on_c, 0, 44, 69
4, 146486, Note_on_c, 0, 63, 0
4, 146924, Note_on_c, 0, 68, 77
4, 146925, Note_on_c, 0, 56, 82
4, 146926, Note_on_c, 0, 65, 81
4, 146935, Note_on_c, 0, 60, 81
4, 147142, Note_on_c, 0, 56, 0
4, 147196, Note_on_c, 0, 60, 0
4, 147249, Note_on_c, 0, 65, 0
4, 147267, Note_on_c, 0, 68, 0
4, 147422, Control_c, 0, 64, 0
4, 147423, Note_on_c, 0, 56, 85
4, 147428, Note_on_c, 0, 68, 85
4, 147435, Note_on_c, 0, 75, 83
4, 147437, Note_on_c, 0, 65, 82
4, 147587, Control_c, 0, 64, 127
4, 147675, Note_on_c, 0, 68, 0
4, 147676, Note_on_c, 0, 75, 0
4, 147729, Note_on_c, 0, 65, 0
4, 147755, Note_on_c, 0, 56, 0
4, 147883, Control_c, 0, 64, 0
4, 147910, Note_on_c, 0, 65, 73
4, 147916, Note_on_c, 0, 56, 82
4, 147919, Note_on_c, 0, 72, 64
4, 147996, Control_c, 0, 64, 127
4, 148212, Note_on_c, 0, 56, 0
4, 148298, Note_on_c, 0, 65, 0
4, 148316, Note_on_c, 0, 72, 0
4, 148382, Note_on_c, 0, 68, 52
4, 148390, Note_on_c, 0, 65, 56
4, 148395, Note_on_c, 0, 60, 53
4, 148399, Note_on_c, 0, 56, 64
4, 148674, Note_on_c, 0, 56, 0
4, 148704, Note_on_c, 0, 60, 0
4, 148716, Note_on_c, 0, 65, 0
4, 148831, Note_on_c, 0, 56, 58
4, 148857, Note_on_c, 0, 65, 58
4, 148860, Note_on_c, 0, 60, 61
4, 148907, Note_on_c, 0, 56, 0
4, 148987, Note_on_c, 0, 44, 0
4, 149167, Control_c, 0, 64, 0
4, 149187, Note_on_c, 0, 46, 88
4, 149192, Note_on_c, 0, 65, 0
4, 149221, Note_on_c, 0, 68, 0
4, 149237, Note_on_c, 0, 60, 0
4, 149330, Control_c, 0, 64, 127
4, 149408, Note_on_c, 0, 46, 0
4, 149413, Note_on_c, 0, 45, 55
4, 149559, Note_on_c, 0, 44, 47
4, 149616, Note_on_c, 0, 45, 0
4, 149664, Note_on_c, 0, 43, 56
4, 149665, Note_on_c, 0, 44, 0
4, 149793, Control_c, 0, 64, 0
4, 149840, Note_on_c, 0, 52, 43
4, 149844, Note_on_c, 0, 43, 0
4, 149850, Note_on_c, 0, 42, 58
4, 149873, Note_on_c, 0, 58, 35
4, 149876, Note_on_c, 0, 60, 32
4, 150172, Control_c, 0, 64, 127
4, 150458, Note_on_c, 0, 58, 0
4, 150465, Note_on_c, 0, 60, 0
4, 150514, Note_on_c, 0, 52, 0
4, 150772, Note_on_c, 0, 52, 37
4, 150781, Note_on_c, 0, 58, 49
4, 150784, Note_on_c, 0, 60, 44
4, 151163, Note_on_c, 0, 52, 0
4, 151169, Note_on_c, 0, 42, 0
4, 151339, Note_on_c, 0, 58, 0
4, 151597, Note_on_c, 0, 51, 47
4, 151601, Note_on_c, 0, 41, 57
4, 151616, Note_on_c, 0, 57, 44
4, 151619, Control_c, 0, 64, 0
4, 151718, Note_on_c, 0, 41, 0
4, 151814, Note_on_c, 0, 42, 27
4, 151858, Note_on_c, 0, 42, 0
4, 151889, Note_on_c, 0, 43, 46
4, 151995, Note_on_c, 0, 43, 0
4, 152029, Note_on_c, 0, 44, 49
4, 152110, Note_on_c, 0, 44, 0
4, 152129, Note_on_c, 0, 45, 53
4, 152276, Note_on_c, 0, 46, 58
4, 152298, Note_on_c, 0, 45, 0
4, 152406, Note_on_c, 0, 46, 0
4, 152445, Note_on_c, 0, 47, 55
4, 152924, Control_c, 0, 64, 127
4, 153131, Note_on_c, 0, 51, 0
4, 153168, Note_on_c, 0, 57, 0
4, 153254, Note_on_c, 0, 60, 0
4, 153447, Control_c, 0, 64, 0
4, 153478, Note_on_c, 0, 58, 47
4, 153491, Note_on_c, 0, 53, 26
4, 153498, Note_on_c, 0, 46, 35
4, 153499, Note_on_c, 0, 47, 0
4, 153672, Control_c, 0, 64, 127
4, 153679, Note_on_c, 0, 53, 0
4, 153801, Note_on_c, 0, 58, 0
4, 153915, Note_on_c, 0, 46, 0
4, 154524, Note_on_c, 0, 56, 34
4, 154556, Note_on_c, 0, 62, 22
4, 154587, Control_c, 0, 64, 0
4, 154633, Note_on_c, 0, 62, 0
4, 154653, Note_on_c, 0, 56, 0
4, 154841, Note_on_c, 0, 85, 46
4, 154852, Note_on_c, 0, 70, 36
4, 154958, Note_on_c, 0, 70, 0
4, 155042, Note_on_c, 0, 85, 0
4, 155130, Control_c, 0, 64, 127
4, 155164, Note_on_c, 0, 82, 37
4, 155376, Note_on_c, 0, 82, 0
4, 155439, Control_c, 0, 64, 0
4, 155492, Note_on_c, 0, 85, 35
4, 155503, Note_on_c, 0, 43, 33
4, 155508, Note_on_c, 0, 70, 29
4, 155602, Control_c, 0, 64, 127
4, 155685, Note_on_c, 0, 43, 0
4, 155973, Note_on_c, 0, 70, 0
4, 156309, Note_on_c, 0, 85, 0
4, 156454, Note_on_c, 0, 61, 15
4, 156498, Note_on_c, 0, 58, 30
4, 156515, Control_c, 0, 64, 0
4, 156578, Note_on_c, 0, 61, 0
4, 156587, Note_on_c, 0, 58, 0
4, 156822, Note_on_c, 0, 84, 56
4, 157001, Note_on_c, 0, 84, 0
4, 157139, Note_on_c, 0, 85, 56
4, 157193, Control_c, 0, 64, 127
4, 157410, Note_on_c, 0, 85, 0
4, 157440, Control_c, 0, 64, 0
4, 157466, Note_on_c, 0, 36, 28
4, 157470, Note_on_c, 0, 84, 47
4, 157491, Note_on_c, 0, 52, 22
4, 157575, Note_on_c, 0, 36, 0
4, 157651, Note_on_c, 0, 84, 0
4, 157686, Note_on_c, 0, 85, 42
4, 157705, Note_on_c, 0, 52, 0
4, 157789, Note_on_c, 0, 84, 53
4, 157844, Note_on_c, 0, 85, 0
4, 157904, Note_on_c, 0, 84, 0
4, 157916, Note_on_c, 0, 83, 51
4, 157991, Note_on_c, 0, 83, 0
4, 158084, Note_on_c, 0, 84, 55
4, 158221, Note_on_c, 0, 84, 0
4, 158266, Note_on_c, 0, 85, 57
4, 158291, Control_c, 0, 64, 127
4, 158418, Note_on_c, 0, 85, 0
4, 158445, Control_c, 0, 64, 0
4, 158446, Note_on_c, 0, 84, 62
4, 158453, Note_on_c, 0, 64, 36
4, 158472, Note_on_c, 0, 58, 34
4, 158480, Note_on_c, 0, 60, 33
4, 158723, Control_c, 0, 64, 127
4, 158778, Note_on_c, 0, 64, 0
4, 158793, Note_on_c, 0, 60, 0
4, 158857, Note_on_c, 0, 58, 0
4, 159307, Control_c, 0, 64, 0
4, 159383, Note_on_c, 0, 41, 40
4, 159512, Control_c, 0, 64, 127
4, 159523, Note_on_c, 0, 41, 0
4, 159692, Note_on_c, 0, 84, 0
4, 159908, Note_on_c, 0, 83, 74
4, 160103, Note_on_c, 0, 83, 0
4, 160129, Note_on_c, 0, 84, 50
4, 160222, Note_on_c, 0, 84, 0
4, 160229, Note_on_c, 0, 83, 57
4, 160313, Control_c, 0, 64, 0
4, 160333, Note_on_c, 0, 62, 30
4, 160344, Note_on_c, 0, 57, 32
4, 160354, Note_on_c, 0, 51, 30
4, 160367, Note_on_c, 0, 82, 50
4, 160369, Note_on_c, 0, 83, 0
4, 160404, Note_on_c, 0, 85, 18
4, 160485, Note_on_c, 0, 85, 0
4, 160492, Note_on_c, 0, 82, 0
4, 160568, Note_on_c, 0, 83, 68
4, 160672, Control_c, 0, 64, 127
4, 160728, Note_on_c, 0, 83, 0
4, 160764, Note_on_c, 0, 84, 64
4, 160777, Note_on_c, 0, 62, 0
4, 160800, Note_on_c, 0, 57, 0
4, 160886, Note_on_c, 0, 51, 0
4, 160901, Note_on_c, 0, 84, 0
4, 160952, Note_on_c, 0, 83, 55
4, 161234, Note_on_c, 0, 83, 0
4, 161268, Control_c, 0, 64, 0
4, 161291, Note_on_c, 0, 56, 48
4, 161304, Note_on_c, 0, 46, 39
4, 161323, Note_on_c, 0, 82, 64
4, 161496, Note_on_c, 0, 82, 0
4, 161522, Note_on_c, 0, 84, 51
4, 161594, Note_on_c, 0, 82, 34
4, 161601, Note_on_c, 0, 46, 0
4, 161640, Note_on_c, 0, 84, 0
4, 161655, Note_on_c, 0, 56, 0
4, 161731, Note_on_c, 0, 81, 47
4, 161770, Note_on_c, 0, 82, 0
4, 161870, Note_on_c, 0, 81, 0
4, 161907, Note_on_c, 0, 82, 62
4, 161967, Control_c, 0, 64, 127
4, 162063, Note_on_c, 0, 82, 0
4, 162100, Note_on_c, 0, 84, 69
4, 162223, Control_c, 0, 64, 0
4, 162259, Note_on_c, 0, 84, 0
4, 162270, Note_on_c, 0, 61, 44
4, 162285, Note_on_c, 0, 65, 27
4, 162286, Note_on_c, 0, 60, 36
4, 162298, Note_on_c, 0, 82, 55
4, 162398, Control_c, 0, 64, 127
4, 162755, Note_on_c, 0, 58, 20
4, 162805, Note_on_c, 0, 60, 0
4, 162824, Note_on_c, 0, 65, 0
4, 162835, Note_on_c, 0, 58, 0
4, 162853, Note_on_c, 0, 61, 0
4, 163208, Control_c, 0, 64, 0
4, 163239, Note_on_c, 0, 61, 34
4, 163245, Note_on_c, 0, 65, 34
4, 163258, Note_on_c, 0, 55, 39
4, 163337, Note_on_c, 0, 82, 0
4, 163402, Control_c, 0, 64, 127
4, 163593, Note_on_c, 0, 82, 64
4, 163612, Note_on_c, 0, 65, 0
4, 163667, Note_on_c, 0, 61, 0
4, 163712, Note_on_c, 0, 55, 0
4, 163822, Note_on_c, 0, 73, 60
4, 163989, Note_on_c, 0, 73, 0
4, 164062, Note_on_c, 0, 82, 0
4, 164143, Control_c, 0, 64, 0
4, 164176, Note_on_c, 0, 72, 30
4, 164178, Note_on_c, 0, 43, 40
4, 164187, Note_on_c, 0, 53, 28
4, 164270, Note_on_c, 0, 53, 0
4, 164328, Note_on_c, 0, 43, 0
4, 164358, Note_on_c, 0, 72, 0
4, 164453, Note_on_c, 0, 70, 50
4, 164698, Note_on_c, 0, 70, 0
4, 164745, Note_on_c, 0, 65, 51
4, 164901, Control_c, 0, 64, 127
4, 164983, Control_c, 0, 64, 0
4, 165098, Note_on_c, 0, 36, 33
4, 165116, Note_on_c, 0, 52, 24
4, 165144, Note_on_c, 0, 64, 56
4, 165237, Note_on_c, 0, 65, 0
4, 165332, Control_c, 0, 64, 127
4, 165464, Note_on_c, 0, 36, 0
4, 165625, Note_on_c, 0, 52, 0
4, 165653, Note_on_c, 0, 64, 0
4, 165765, Note_on_c, 0, 72, 67
4, 165962, Note_on_c, 0, 72, 0
4, 166111, Note_on_c, 0, 58, 47
4, 166126, Note_on_c, 0, 63, 48
4, 166133, Control_c, 0, 64, 0
4, 166145, Note_on_c, 0, 48, 18
4, 166220, Note_on_c, 0, 58, 0
4, 166262, Note_on_c, 0, 48, 0
4, 166722, Note_on_c, 0, 62, 53
4, 166733, Note_on_c, 0, 42, 33
4, 166734, Note_on_c, 0, 63, 0
4, 166735, Note_on_c, 0, 52, 35
4, 166810, Control_c, 0, 64, 127
4, 166886, Note_on_c, 0, 52, 0
4, 167028, Note_on_c, 0, 42, 0
4, 167067, Control_c, 0, 64, 0
4, 167101, Note_on_c, 0, 62, 0
4, 167107, Note_on_c, 0, 63, 53
4, 167113, Note_on_c, 0, 51, 36
4, 167119, Note_on_c, 0, 41, 36
4, 167447, Control_c, 0, 64, 127
4, 167730, Note_on_c, 0, 69, 55
4, 167792, Note_on_c, 0, 51, 0
4, 168022, Control_c, 0, 64, 0
4, 168051, Note_on_c, 0, 69, 0
4, 168057, Note_on_c, 0, 51, 29
4, 168060, Note_on_c, 0, 60, 41
4, 168100, Note_on_c, 0, 63, 0
4, 168268, Control_c, 0, 64, 127
4, 168368, Note_on_c, 0, 51, 0
4, 168384, Note_on_c, 0, 41, 0
4, 168628, Note_on_c, 0, 41, 34
4, 168630, Note_on_c, 0, 60, 0
4, 168729, Note_on_c, 0, 41, 0
4, 168935, Control_c, 0, 64, 0
4, 168956, Note_on_c, 0, 61, 42
4, 168958, Note_on_c, 0, 57, 45
4, 168993, Note_on_c, 0, 42, 30
4, 168994, Note_on_c, 0, 52, 32
4, 169182, Control_c, 0, 64, 127
4, 169310, Note_on_c, 0, 52, 0
4, 169359, Note_on_c, 0, 42, 0
4, 169473, Note_on_c, 0, 57, 0
4, 169518, Note_on_c, 0, 57, 62
4, 169530, Control_c, 0, 64, 0
4, 169653, Control_c, 0, 64, 127
4, 169820, Note_on_c, 0, 57, 0
4, 169859, Note_on_c, 0, 61, 0
4, 169930, Control_c, 0, 64, 0
4, 169942, Note_on_c, 0, 61, 28
4, 169944, Note_on_c, 0, 56, 77
4, 169952, Note_on_c, 0, 57, 40
4, 170218, Control_c, 0, 64, 127
4, 170295, Note_on_c, 0, 57, 0
4, 170364, Note_on_c, 0, 61, 0
4, 170373, Control_c, 0, 64, 0
4, 170406, Note_on_c, 0, 56, 0
4, 170413, Note_on_c, 0, 61, 28
4, 170421, Note_on_c, 0, 57, 47
4, 170438, Note_on_c, 0, 55, 54
4, 170557, Control_c, 0, 64, 127
4, 170714, Note_on_c, 0, 57, 0
4, 170739, Note_on_c, 0, 61, 0
4, 170782, Control_c, 0, 64, 0
4, 170822, Note_on_c, 0, 55, 0
4, 170854, Note_on_c, 0, 61, 38
4, 170869, Note_on_c, 0, 57, 42
4, 170883, Note_on_c, 0, 54, 46
4, 170968, Control_c, 0, 64, 127
4, 171244, Control_c, 0, 64, 0
4, 171325, Note_on_c, 0, 54, 0
4, 171329, Note_on_c, 0, 47, 51
4, 171449, Control_c, 0, 64, 127
4, 171486, Note_on_c, 0, 57, 0
4, 171631, Note_on_c, 0, 61, 0
4, 171738, Control_c, 0, 64, 0
4, 171758, Note_on_c, 0, 61, 36
4, 171777, Note_on_c, 0, 57, 41
4, 171789, Note_on_c, 0, 56, 39
4, 171791, Note_on_c, 0, 63, 40
4, 171942, Control_c, 0, 64, 127
4, 172012, Note_on_c, 0, 56, 0
4, 172198, Note_on_c, 0, 47, 0
4, 172400, Note_on_c, 0, 57, 0
4, 172538, Note_on_c, 0, 61, 0
4, 172562, Note_on_c, 0, 63, 0
4, 172764, Control_c, 0, 64, 0
4, 172788, Note_on_c, 0, 66, 54
4, 172790, Note_on_c, 0, 55, 49
4, 172791, Note_on_c, 0, 40, 47
4, 172805, Note_on_c, 0, 62, 52
4, 172807, Note_on_c, 0, 59, 52
4, 173009, Control_c, 0, 64, 127
4, 173185, Note_on_c, 0, 40, 0
4, 173260, Note_on_c, 0, 47, 78
4, 173338, Note_on_c, 0, 55, 0
4, 173398, Note_on_c, 0, 59, 0
4, 173473, Note_on_c, 0, 62, 0
4, 173664, Note_on_c, 0, 66, 0
4, 173707, Control_c, 0, 64, 0
4, 173730, Note_on_c, 0, 62, 55
4, 173733, Note_on_c, 0, 55, 47
4, 173735, Note_on_c, 0, 59, 57
4, 173745, Note_on_c, 0, 52, 60
4, 173851, Control_c, 0, 64, 127
4, 173965, Note_on_c, 0, 55, 0
4, 173987, Note_on_c, 0, 52, 0
4, 174194, Note_on_c, 0, 54, 81
4, 174389, Note_on_c, 0, 54, 0
4, 174400, Note_on_c, 0, 62, 0
4, 174403, Note_on_c, 0, 59, 0
4, 174556, Note_on_c, 0, 47, 0
4, 174643, Control_c, 0, 64, 0
4, 174676, Note_on_c, 0, 65, 66
4, 174678, Note_on_c, 0, 61, 62
4, 174684, Note_on_c, 0, 54, 67
4, 174687, Note_on_c, 0, 58, 65
4, 174704, Note_on_c, 0, 39, 71
4, 174940, Control_c, 0, 64, 127
4, 175263, Note_on_c, 0, 54, 0
4, 175382, Note_on_c, 0, 39, 0
4, 175441, Note_on_c, 0, 61, 0
4, 175464, Note_on_c, 0, 58, 0
4, 175485, Note_on_c, 0, 65, 0
4, 175678, Control_c, 0, 64, 0
4, 175753, Note_on_c, 0, 58, 47
4, 175757, Note_on_c, 0, 65, 45
4, 175760, Note_on_c, 0, 54, 40
4, 175771, Note_on_c, 0, 44, 36
4, 175773, Note_on_c, 0, 60, 45
4, 175894, Control_c, 0, 64, 127
4, 176367, Note_on_c, 0, 54, 0
4, 176379, Note_on_c, 0, 60, 0
4, 176592, Control_c, 0, 64, 0
4, 176620, Note_on_c, 0, 44, 0
4, 176664, Note_on_c, 0, 37, 52
4, 176781, Note_on_c, 0, 65, 0
4, 176819, Control_c, 0, 64, 127
4, 176839, Note_on_c, 0, 58, 0
4, 177380, Note_on_c, 0, 37, 0
4, 177905, Control_c, 0, 64, 0
4, 177931, Note_on_c, 0, 69, 55
4, 177935, Note_on_c, 0, 61, 45
4, 177949, Note_on_c, 0, 58, 38
4, 177954, Note_on_c, 0, 64, 41
4, 177965, Note_on_c, 0, 57, 37
4, 178200, Note_on_c, 0, 69, 0
4, 178216, Note_on_c, 0, 64, 0
4, 178275, Control_c, 0, 64, 127
4, 178276, Note_on_c, 0, 57, 0
4, 178277, Note_on_c, 0, 58, 0
4, 178290, Note_on_c, 0, 67, 41
4, 178297, Note_on_c, 0, 61, 0
4, 178321, Note_on_c, 0, 55, 34
4, 178335, Note_on_c, 0, 67, 0
4, 178427, Note_on_c, 0, 55, 0
4, 178563, Control_c, 0, 64, 0
4, 178613, Note_on_c, 0, 72, 53
4, 178618, Note_on_c, 0, 61, 40
4, 178619, Note_on_c, 0, 64, 42
4, 178621, Note_on_c, 0, 60, 40
4, 178779, Control_c, 0, 64, 127
4, 178826, Note_on_c, 0, 72, 0
4, 178850, Note_on_c, 0, 64, 0
4, 178908, Note_on_c, 0, 61, 0
4, 178931, Note_on_c, 0, 60, 0
4, 179014, Control_c, 0, 64, 0
4, 179042, Note_on_c, 0, 73, 48
4, 179058, Note_on_c, 0, 61, 47
4, 179083, Note_on_c, 0, 65, 30
4, 179087, Note_on_c, 0, 64, 26
4, 179138, Note_on_c, 0, 64, 0
4, 179147, Note_on_c, 0, 65, 0
4, 179178, Control_c, 0, 64, 127
4, 179243, Note_on_c, 0, 73, 0
4, 179334, Note_on_c, 0, 61, 0
4, 179486, Control_c, 0, 64, 0
4, 179532, Note_on_c, 0, 75, 46
4, 179539, Note_on_c, 0, 67, 38
4, 179540, Note_on_c, 0, 63, 39
4, 179544, Note_on_c, 0, 64, 36
4, 179560, Note_on_c, 0, 70, 38
4, 179661, Control_c, 0, 64, 127
4, 179854, Note_on_c, 0, 64, 0
4, 179915, Note_on_c, 0, 63, 0
4, 179934, Note_on_c, 0, 75, 0
4, 179944, Note_on_c, 0, 70, 0
4, 179968, Note_on_c, 0, 67, 0
4, 180011, Note_on_c, 0, 73, 42
4, 180019, Note_on_c, 0, 61, 40
4, 180136, Note_on_c, 0, 73, 0
4, 180139, Note_on_c, 0, 61, 0
4, 180442, Control_c, 0, 64, 0
4, 180497, Note_on_c, 0, 72, 41
4, 180503, Note_on_c, 0, 60, 30
4, 180506, Note_on_c, 0, 65, 30
4, 180512, Note_on_c, 0, 68, 33
4, 180539, Note_on_c, 0, 49, 26
4, 180718, Control_c, 0, 64, 127
4, 180878, Note_on_c, 0, 60, 0
4, 180902, Note_on_c, 0, 68, 0
4, 180933, Note_on_c, 0, 72, 0
4, 181000, Note_on_c, 0, 70, 53
4, 181022, Note_on_c, 0, 56, 38
4, 181044, Note_on_c, 0, 60, 18
4, 181121, Note_on_c, 0, 60, 0
4, 181206, Note_on_c, 0, 56, 0
4, 181267, Note_on_c, 0, 65, 0
4, 181300, Note_on_c, 0, 70, 0
4, 181426, Note_on_c, 0, 49, 0
4, 181457, Control_c, 0, 64, 0
4, 181487, Note_on_c, 0, 68, 49
4, 181490, Note_on_c, 0, 60, 48
4, 181542, Note_on_c, 0, 56, 26
4, 181585, Note_on_c, 0, 56, 0
4, 181621, Control_c, 0, 64, 127
4, 181696, Note_on_c, 0, 68, 0
4, 181844, Note_on_c, 0, 60, 0
4, 181960, Note_on_c, 0, 66, 55
4, 182099, Note_on_c, 0, 66, 0
4, 182401, Control_c, 0, 64, 0
4, 182441, Note_on_c, 0, 30, 37
4, 182443, Note_on_c, 0, 61, 40
4, 182450, Note_on_c, 0, 64, 40
4, 182458, Note_on_c, 0, 42, 25
4, 182596, Control_c, 0, 64, 127
4, 182861, Note_on_c, 0, 30, 0
4, 182918, Note_on_c, 0, 42, 0
4, 183241, Note_on_c, 0, 61, 0
4, 183335, Note_on_c, 0, 64, 0
4, 183787, Control_c, 0, 64, 0
4, 183848, Note_on_c, 0, 61, 39
4, 183858, Note_on_c, 0, 51, 25
4, 183865, Note_on_c, 0, 41, 31
4, 183868, Note_on_c, 0, 57, 33
4, 183983, Control_c, 0, 64, 127
4, 183985, Note_on_c, 0, 57, 0
4, 183995, Note_on_c, 0, 41, 0
4, 184076, Note_on_c, 0, 51, 0
4, 184251, Note_on_c, 0, 61, 0
4, 184290, Control_c, 0, 64, 0
4, 184343, Note_on_c, 0, 56, 31
4, 184357, Note_on_c, 0, 46, 33
4, 184358, Note_on_c, 0, 62, 35
4, 184485, Control_c, 0, 64, 127
4, 184606, Note_on_c, 0, 56, 0
4, 184668, Note_on_c, 0, 62, 0
4, 184674, Note_on_c, 0, 46, 0
4, 185355, Note_on_c, 0, 67, 29
4, 185363, Note_on_c, 0, 56, 33
4, 185370, Note_on_c, 0, 62, 35
4, 185398, Control_c, 0, 64, 0
4, 185423, Note_on_c, 0, 67, 0
4, 185437, Note_on_c, 0, 62, 0
4, 185464, Note_on_c, 0, 56, 0
4, 185662, Note_on_c, 0, 77, 51
4, 185870, Note_on_c, 0, 77, 0
4, 185871, Note_on_c, 0, 78, 39
4, 185942, Control_c, 0, 64, 127
4, 186011, Note_on_c, 0, 78, 0
4, 186058, Note_on_c, 0, 80, 29
4, 186101, Note_on_c, 0, 80, 0
4, 186161, Note_on_c, 0, 81, 47
4, 186280, Note_on_c, 0, 81, 0
4, 186298, Note_on_c, 0, 82, 53
4, 186312, Control_c, 0, 64, 0
4, 186347, Note_on_c, 0, 39, 45
4, 186361, Note_on_c, 0, 54, 31
4, 186386, Note_on_c, 0, 78, 57
4, 186396, Note_on_c, 0, 82, 0
4, 186660, Control_c, 0, 64, 127
4, 186747, Note_on_c, 0, 39, 0
4, 186857, Note_on_c, 0, 54, 0
4, 187318, Control_c, 0, 64, 0
4, 187325, Note_on_c, 0, 65, 35
4, 187343, Note_on_c, 0, 58, 48
4, 187344, Note_on_c, 0, 61, 46
4, 187347, Note_on_c, 0, 54, 27
4, 187492, Control_c, 0, 64, 127
4, 187633, Note_on_c, 0, 78, 0
4, 188039, Note_on_c, 0, 54, 0
4, 188041, Note_on_c, 0, 65, 0
4, 188172, Note_on_c, 0, 61, 0
4, 188186, Note_on_c, 0, 58, 0
4, 188200, Control_c, 0, 64, 0
4, 188254, Note_on_c, 0, 86, 90
4, 188254, Note_on_c, 0, 93, 94
4, 188270, Note_on_c, 0, 60, 58
4, 188271, Note_on_c, 0, 65, 54
4, 188289, Note_on_c, 0, 54, 46
4, 188395, Control_c, 0, 64, 127
4, 188442, Note_on_c, 0, 93, 0
4, 188504, Note_on_c, 0, 86, 0
4, 188506, Note_on_c, 0, 90, 55
4, 188538, Note_on_c, 0, 81, 51
4, 188662, Note_on_c, 0, 81, 0
4, 188729, Note_on_c, 0, 90, 0
4, 188790, Note_on_c, 0, 93, 78
4, 188795, Note_on_c, 0, 86, 66
4, 188871, Note_on_c, 0, 65, 0
4, 188925, Note_on_c, 0, 60, 0
4, 188950, Note_on_c, 0, 93, 0
4, 189051, Note_on_c, 0, 90, 60
4, 189085, Note_on_c, 0, 81, 43
4, 189169, Note_on_c, 0, 86, 0
4, 189219, Note_on_c, 0, 81, 0
4, 189266, Note_on_c, 0, 65, 44
4, 189278, Note_on_c, 0, 60, 41
4, 189287, Note_on_c, 0, 90, 0
4, 189357, Note_on_c, 0, 93, 71
4, 189358, Note_on_c, 0, 86, 58
4, 189517, Note_on_c, 0, 93, 0
4, 189617, Note_on_c, 0, 90, 38
4, 189672, Note_on_c, 0, 81, 43
4, 189742, Note_on_c, 0, 60, 0
4, 189743, Note_on_c, 0, 86, 0
4, 189748, Note_on_c, 0, 65, 0
4, 189778, Note_on_c, 0, 90, 0
4, 189812, Note_on_c, 0, 81, 0
4, 189963, Note_on_c, 0, 54, 0
4, 190120, Control_c, 0, 64, 0
4, 190131, Note_on_c, 0, 88, 45
4, 190136, Note_on_c, 0, 64, 28
4, 190143, Note_on_c, 0, 83, 49
4, 190160, Note_on_c, 0, 59, 39
4, 190161, Note_on_c, 0, 53, 29
4, 190163, Note_on_c, 0, 77, 20
4, 190376, Control_c, 0, 64, 127
4, 190584, Note_on_c, 0, 83, 0
4, 190703, Note_on_c, 0, 77, 0
4, 190759, Note_on_c, 0, 64, 0
4, 190831, Note_on_c, 0, 59, 0
4, 190845, Note_on_c, 0, 88, 0
4, 191110, Note_on_c, 0, 64, 28
4, 191113, Note_on_c, 0, 77, 41
4, 191114, Note_on_c, 0, 83, 51
4, 191140, Note_on_c, 0, 59, 33
4, 191358, Note_on_c, 0, 53, 0
4, 191368, Note_on_c, 0, 83, 0
4, 191417, Note_on_c, 0, 77, 0
4, 191534, Note_on_c, 0, 64, 0
4, 191624, Note_on_c, 0, 59, 0
4, 192000, Control_c, 0, 2, 123
4, 192000, Control_c, 0, 2, 125
4, 192000, Control_c, 0, 2, 124
4, 192029, Control_c, 0, 64, 0
4, 192049, Note_on_c, 0, 70, 54
4, 192059, Note_on_c, 0, 64, 34
4, 192377, Note_on_c, 0, 70, 0
4, 192442, Note_on_c, 0, 64, 0
4, 192563, Control_c, 0, 64, 127
4, 192570, Note_on_c, 0, 42, 51
4, 193025, Control_c, 0, 64, 0
4, 193053, Note_on_c, 0, 58, 38
4, 193095, Note_on_c, 0, 49, 25
4, 193229, Control_c, 0, 64, 127
4, 193359, Note_on_c, 0, 42, 0
4, 193656, Note_on_c, 0, 49, 0
4, 193859, Note_on_c, 0, 58, 0
4, 193981, Note_on_c, 0, 72, 35
4, 194011, Control_c, 0, 64, 0
4, 194016, Note_on_c, 0, 63, 38
4, 194030, Note_on_c, 0, 58, 50
4, 194038, Note_on_c, 0, 52, 32
4, 194080, Note_on_c, 0, 72, 0
4, 194110, Note_on_c, 0, 73, 45
4, 194165, Note_on_c, 0, 73, 0
4, 194165, Note_on_c, 0, 63, 0
4, 194194, Note_on_c, 0, 52, 0
4, 194204, Note_on_c, 0, 58, 0
4, 194232, Note_on_c, 0, 74, 40
4, 194272, Note_on_c, 0, 74, 0
4, 194307, Note_on_c, 0, 75, 47
4, 194370, Note_on_c, 0, 75, 0
4, 194417, Note_on_c, 0, 76, 53
4, 194471, Note_on_c, 0, 76, 0
4, 194510, Note_on_c, 0, 77, 52
4, 194546, Note_on_c, 0, 77, 0
4, 194629, Note_on_c, 0, 78, 52
4, 194692, Note_on_c, 0, 78, 0
4, 194732, Note_on_c, 0, 77, 47
4, 194783, Note_on_c, 0, 77, 0
4, 194837, Note_on_c, 0, 76, 39
4, 194873, Note_on_c, 0, 76, 0
4, 194910, Note_on_c, 0, 52, 27
4, 194913, Note_on_c, 0, 63, 45
4, 194914, Note_on_c, 0, 75, 39
4, 194915, Note_on_c, 0, 58, 42
4, 194952, Note_on_c, 0, 75, 0
4, 195004, Note_on_c, 0, 52, 0
4, 195011, Note_on_c, 0, 76, 59
4, 195062, Note_on_c, 0, 76, 0
4, 195076, Note_on_c, 0, 63, 0
4, 195086, Note_on_c, 0, 58, 0
4, 195111, Note_on_c, 0, 77, 47
4, 195156, Note_on_c, 0, 77, 0
4, 195211, Note_on_c, 0, 78, 32
4, 195237, Note_on_c, 0, 78, 0
4, 195281, Note_on_c, 0, 79, 42
4, 195318, Note_on_c, 0, 79, 0
4, 195376, Note_on_c, 0, 80, 61
4, 195428, Note_on_c, 0, 80, 0
4, 195479, Note_on_c, 0, 81, 48
4, 195550, Note_on_c, 0, 81, 0
4, 195582, Note_on_c, 0, 80, 40
4, 195623, Note_on_c, 0, 80, 0
4, 195662, Note_on_c, 0, 79, 48
4, 195690, Note_on_c, 0, 79, 0
4, 195756, Note_on_c, 0, 78, 49
4, 195786, Note_on_c, 0, 78, 0
4, 195840, Note_on_c, 0, 79, 29
4, 195946, Note_on_c, 0, 80, 59
4, 195960, Note_on_c, 0, 79, 0
4, 196006, Note_on_c, 0, 80, 0
4, 196069, Note_on_c, 0, 81, 55
4, 196112, Note_on_c, 0, 81, 0
4, 196183, Note_on_c, 0, 82, 58
4, 196223, Note_on_c, 0, 82, 0
4, 196278, Note_on_c, 0, 83, 60
4, 196322, Note_on_c, 0, 83, 0
4, 196344, Note_on_c, 0, 84, 65
4, 196404, Note_on_c, 0, 84, 0
4, 196451, Note_on_c, 0, 85, 56
4, 196530, Note_on_c, 0, 85, 0
4, 196540, Note_on_c, 0, 84, 49
4, 196597, Note_on_c, 0, 84, 0
4, 196634, Note_on_c, 0, 83, 48
4, 196664, Note_on_c, 0, 83, 0
4, 196734, Note_on_c, 0, 82, 25
4, 196762, Note_on_c, 0, 82, 0
4, 196767, Note_on_c, 0, 65, 58
4, 196778, Note_on_c, 0, 60, 48
4, 196782, Note_on_c, 0, 81, 44
4, 196783, Note_on_c, 0, 58, 43
4, 196806, Note_on_c, 0, 54, 26
4, 196834, Note_on_c, 0, 81, 0
4, 196885, Note_on_c, 0, 82, 50
4, 196891, Note_on_c, 0, 65, 0
4, 196900, Note_on_c, 0, 60, 0
4, 196914, Note_on_c, 0, 82, 0
4, 196965, Note_on_c, 0, 83, 47
4, 196968, Note_on_c, 0, 58, 0
4, 196969, Note_on_c, 0, 54, 0
4, 197042, Note_on_c, 0, 83, 0
4, 197052, Note_on_c, 0, 84, 39
4, 197112, Note_on_c, 0, 84, 0
4, 197132, Note_on_c, 0, 85, 46
4, 197186, Note_on_c, 0, 85, 0
4, 197210, Note_on_c, 0, 86, 59
4, 197286, Note_on_c, 0, 86, 0
4, 197306, Note_on_c, 0, 87, 56
4, 197364, Note_on_c, 0, 87, 0
4, 197397, Note_on_c, 0, 88, 60
4, 197468, Note_on_c, 0, 88, 0
4, 197509, Note_on_c, 0, 89, 49
4, 197626, Note_on_c, 0, 90, 58
4, 197629, Note_on_c, 0, 89, 0
4, 197746, Note_on_c, 0, 90, 0
4, 197800, Note_on_c, 0, 65, 61
4, 197804, Note_on_c, 0, 89, 57
4, 197820, Note_on_c, 0, 51, 34
4, 197832, Note_on_c, 0, 41, 36
4, 197916, Note_on_c, 0, 89, 0
4, 198092, Note_on_c, 0, 57, 51
4, 198187, Control_c, 0, 64, 127
4, 198283, Note_on_c, 0, 41, 0
4, 198303, Note_on_c, 0, 57, 0
4, 198384, Note_on_c, 0, 60, 38
4, 198385, Note_on_c, 0, 65, 0
4, 198388, Note_on_c, 0, 51, 0
4, 198519, Note_on_c, 0, 60, 0
4, 198574, Note_on_c, 0, 63, 59
4, 198706, Note_on_c, 0, 63, 0
4, 198731, Control_c, 0, 64, 0
4, 198785, Note_on_c, 0, 65, 64
4, 198793, Note_on_c, 0, 47, 39
4, 198803, Note_on_c, 0, 57, 43
4, 198804, Note_on_c, 0, 61, 45
4, 198848, Note_on_c, 0, 68, 15
4, 198978, Control_c, 0, 64, 127
4, 199179, Note_on_c, 0, 65, 0
4, 199229, Note_on_c, 0, 61, 0
4, 199268, Note_on_c, 0, 68, 0
4, 199305, Note_on_c, 0, 61, 29
4, 199322, Note_on_c, 0, 65, 25
4, 199455, Note_on_c, 0, 57, 0
4, 199469, Note_on_c, 0, 47, 0
4, 199493, Note_on_c, 0, 61, 0
4, 199659, Note_on_c, 0, 65, 0
4, 199737, Control_c, 0, 64, 0
4, 199750, Note_on_c, 0, 46, 37
4, 199758, Note_on_c, 0, 56, 31
4, 199760, Note_on_c, 0, 65, 28
4, 199774, Note_on_c, 0, 62, 35
4, 199922, Note_on_c, 0, 62, 0
4, 199953, Control_c, 0, 64, 127
4, 199979, Note_on_c, 0, 65, 0
4, 200090, Note_on_c, 0, 46, 0
4, 200103, Note_on_c, 0, 56, 0
4, 200178, Control_c, 0, 64, 0
4, 200246, Note_on_c, 0, 72, 30
4, 200329, Note_on_c, 0, 73, 39
4, 200394, Control_c, 0, 64, 127
4, 200400, Note_on_c, 0, 73, 0
4, 200409, Note_on_c, 0, 74, 53
4, 200506, Note_on_c, 0, 72, 0
4, 200521, Note_on_c, 0, 74, 0
4, 200570, Note_on_c, 0, 77, 74
4, 200705, Note_on_c, 0, 77, 0
4, 200754, Control_c, 0, 64, 0
4, 200803, Note_on_c, 0, 67, 36
4, 200805, Note_on_c, 0, 79, 72
4, 200807, Note_on_c, 0, 56, 45
4, 200822, Note_on_c, 0, 62, 38
4, 200878, Note_on_c, 0, 67, 0
4, 200880, Note_on_c, 0, 62, 0
4, 200960, Note_on_c, 0, 56, 0
4, 200987, Note_on_c, 0, 79, 0
4, 201046, Note_on_c, 0, 74, 34
4, 201144, Note_on_c, 0, 74, 0
4, 201241, Note_on_c, 0, 75, 51
4, 201396, Note_on_c, 0, 75, 0
4, 201461, Control_c, 0, 64, 127
4, 201507, Note_on_c, 0, 77, 55
4, 201643, Note_on_c, 0, 77, 0
4, 201697, Control_c, 0, 64, 0
4, 201735, Note_on_c, 0, 39, 37
4, 201741, Note_on_c, 0, 78, 42
4, 201759, Note_on_c, 0, 54, 26
4, 201777, Note_on_c, 0, 66, 37
4, 201872, Note_on_c, 0, 66, 0
4, 201885, Note_on_c, 0, 78, 0
4, 201902, Note_on_c, 0, 39, 0
4, 202018, Note_on_c, 0, 80, 56
4, 202030, Note_on_c, 0, 54, 0
4, 202035, Note_on_c, 0, 68, 40
4, 202107, Note_on_c, 0, 80, 0
4, 202113, Note_on_c, 0, 68, 0
4, 202237, Note_on_c, 0, 78, 39
4, 202253, Note_on_c, 0, 66, 34
4, 202333, Note_on_c, 0, 66, 0
4, 202344, Note_on_c, 0, 78, 0
4, 202364, Control_c, 0, 64, 127
4, 202483, Note_on_c, 0, 80, 43
4, 202494, Note_on_c, 0, 68, 33
4, 202514, Note_on_c, 0, 73, 28
4, 202557, Note_on_c, 0, 80, 0
4, 202566, Note_on_c, 0, 68, 0
4, 202611, Control_c, 0, 64, 0
4, 202636, Note_on_c, 0, 73, 0
4, 202655, Note_on_c, 0, 65, 31
4, 202685, Note_on_c, 0, 61, 29
4, 202697, Note_on_c, 0, 78, 36
4, 202700, Note_on_c, 0, 54, 15
4, 202706, Note_on_c, 0, 58, 34
4, 202719, Note_on_c, 0, 66, 34
4, 202746, Note_on_c, 0, 73, 20
4, 202750, Note_on_c, 0, 65, 0
4, 202814, Note_on_c, 0, 54, 0
4, 202831, Note_on_c, 0, 66, 0
4, 202846, Note_on_c, 0, 78, 0
4, 202867, Control_c, 0, 64, 127
4, 202875, Note_on_c, 0, 73, 0
4, 202920, Note_on_c, 0, 61, 0
4, 202939, Note_on_c, 0, 58, 0
4, 203009, Note_on_c, 0, 65, 45
4, 203137, Note_on_c, 0, 65, 0
4, 203327, Note_on_c, 0, 75, 38
4, 203344, Note_on_c, 0, 63, 36
4, 203403, Note_on_c, 0, 70, 30
4, 203473, Note_on_c, 0, 63, 0
4, 203498, Note_on_c, 0, 70, 0
4, 203511, Note_on_c, 0, 75, 0
4, 203555, Control_c, 0, 64, 0
4, 203612, Note_on_c, 0, 44, 34
4, 203618, Note_on_c, 0, 77, 41
4, 203627, Note_on_c, 0, 65, 31
4, 203630, Note_on_c, 0, 54, 27
4, 203644, Note_on_c, 0, 72, 37
4, 203782, Control_c, 0, 64, 127
4, 203953, Note_on_c, 0, 77, 0
4, 203996, Note_on_c, 0, 65, 0
4, 204007, Note_on_c, 0, 44, 0
4, 204050, Note_on_c, 0, 54, 0
4, 204111, Note_on_c, 0, 77, 48
4, 204425, Note_on_c, 0, 77, 0
4, 204476, Note_on_c, 0, 72, 0
4, 204551, Note_on_c, 0, 65, 32
4, 204554, Note_on_c, 0, 75, 46
4, 204555, Note_on_c, 0, 60, 34
4, 204573, Note_on_c, 0, 54, 34
4, 204928, Note_on_c, 0, 75, 0
4, 205066, Note_on_c, 0, 75, 51
4, 205088, Note_on_c, 0, 60, 0
4, 205091, Note_on_c, 0, 65, 0
4, 205309, Note_on_c, 0, 54, 0
4, 205322, Note_on_c, 0, 75, 0
4, 205536, Note_on_c, 0, 53, 29
4, 205537, Note_on_c, 0, 76, 63
4, 205539, Note_on_c, 0, 71, 68
4, 205544, Note_on_c, 0, 59, 29
4, 205545, Note_on_c, 0, 64, 74
4, 205557, Control_c, 0, 64, 0
4, 205567, Note_on_c, 0, 69, 46
4, 205656, Note_on_c, 0, 53, 0
4, 205664, Note_on_c, 0, 59, 0
4, 205915, Note_on_c, 0, 76, 0
4, 205918, Note_on_c, 0, 64, 0
4, 205928, Note_on_c, 0, 69, 0
4, 205958, Control_c, 0, 64, 127
4, 206024, Note_on_c, 0, 65, 42
4, 206030, Note_on_c, 0, 75, 35
4, 206033, Note_on_c, 0, 69, 37
4, 206034, Note_on_c, 0, 64, 37
4, 206336, Note_on_c, 0, 71, 0
4, 206394, Note_on_c, 0, 65, 0
4, 206418, Note_on_c, 0, 69, 0
4, 206460, Control_c, 0, 64, 0
4, 206496, Note_on_c, 0, 65, 41
4, 206504, Note_on_c, 0, 71, 51
4, 206507, Note_on_c, 0, 59, 38
4, 206507, Note_on_c, 0, 69, 34
4, 206541, Note_on_c, 0, 64, 0
4, 206635, Control_c, 0, 64, 127
4, 206669, Note_on_c, 0, 75, 0
4, 206730, Note_on_c, 0, 65, 0
4, 206947, Note_on_c, 0, 71, 0
4, 206964, Note_on_c, 0, 59, 0
4, 206980, Note_on_c, 0, 55, 45
4, 206983, Note_on_c, 0, 65, 49
4, 207023, Note_on_c, 0, 69, 0
4, 207071, Note_on_c, 0, 55, 0
4, 207076, Note_on_c, 0, 65, 0
4, 207446, Control_c, 0, 64, 0
4, 207487, Note_on_c, 0, 52, 29
4, 207489, Note_on_c, 0, 42, 56
4, 207607, Note_on_c, 0, 52, 0
4, 207855, Note_on_c, 0, 63, 46
4, 207866, Note_on_c, 0, 56, 55
4, 207868, Note_on_c, 0, 52, 38
4, 207870, Note_on_c, 0, 58, 57
4, 207895, Note_on_c, 0, 51, 48
4, 207943, Note_on_c, 0, 52, 0
4, 207966, Note_on_c, 0, 51, 0
4, 207984, Note_on_c, 0, 56, 0
4, 207996, Note_on_c, 0, 63, 0
4, 208010, Note_on_c, 0, 58, 0
4, 208359, Note_on_c, 0, 49, 23
4, 208478, Note_on_c, 0, 49, 0
4, 208484, Note_on_c, 0, 51, 35
4, 208504, Note_on_c, 0, 63, 39
4, 208508, Note_on_c, 0, 56, 42
4, 208510, Note_on_c, 0, 58, 43
4, 208512, Note_on_c, 0, 52, 40
4, 208544, Control_c, 0, 64, 127
4, 208854, Note_on_c, 0, 52, 0
4, 208878, Note_on_c, 0, 51, 0
4, 208905, Note_on_c, 0, 61, 50
4, 208935, Note_on_c, 0, 49, 23
4, 208965, Note_on_c, 0, 63, 0
4, 208985, Note_on_c, 0, 58, 0
4, 208995, Note_on_c, 0, 56, 0
4, 209216, Note_on_c, 0, 61, 0
4, 209222, Note_on_c, 0, 49, 0
4, 209313, Control_c, 0, 64, 0
4, 209360, Note_on_c, 0, 42, 0
4, 209361, Note_on_c, 0, 65, 47
4, 209379, Note_on_c, 0, 56, 50
4, 209388, Note_on_c, 0, 60, 44
4, 209401, Note_on_c, 0, 48, 33
4, 209683, Control_c, 0, 64, 127
4, 210012, Note_on_c, 0, 60, 0
4, 210072, Note_on_c, 0, 56, 0
4, 210121, Note_on_c, 0, 48, 0
4, 210154, Note_on_c, 0, 65, 0
4, 210311, Note_on_c, 0, 60, 42
4, 210316, Note_on_c, 0, 52, 22
4, 210322, Note_on_c, 0, 56, 35
4, 210337, Note_on_c, 0, 48, 30
4, 210376, Note_on_c, 0, 52, 0
4, 210445, Note_on_c, 0, 56, 0
4, 210526, Note_on_c, 0, 60, 0
4, 210625, Note_on_c, 0, 65, 64
4, 210847, Note_on_c, 0, 65, 0
4, 210953, Note_on_c, 0, 63, 53
4, 211075, Note_on_c, 0, 63, 0
4, 211231, Note_on_c, 0, 48, 0
4, 211243, Control_c, 0, 64, 0
4, 211264, Note_on_c, 0, 63, 56
4, 211293, Note_on_c, 0, 52, 30
4, 211300, Note_on_c, 0, 56, 45
4, 211301, Note_on_c, 0, 60, 45
4, 211304, Note_on_c, 0, 42, 30
4, 211479, Control_c, 0, 64, 127
4, 211698, Note_on_c, 0, 52, 0
4, 211885, Note_on_c, 0, 60, 0
4, 211966, Note_on_c, 0, 56, 0
4, 212078, Note_on_c, 0, 63, 0
4, 212156, Control_c, 0, 64, 0
4, 212201, Note_on_c, 0, 61, 48
4, 212210, Note_on_c, 0, 56, 49
4, 212211, Note_on_c, 0, 52, 30
4, 212341, Control_c, 0, 64, 127
4, 212661, Note_on_c, 0, 52, 0
4, 212770, Note_on_c, 0, 56, 0
4, 212847, Note_on_c, 0, 42, 0
4, 212945, Note_on_c, 0, 61, 0
4, 213121, Control_c, 0, 64, 0
4, 213148, Note_on_c, 0, 60, 42
4, 213159, Note_on_c, 0, 57, 36
4, 213169, Note_on_c, 0, 51, 29
4, 213186, Note_on_c, 0, 41, 30
4, 213357, Control_c, 0, 64, 127
4, 213637, Note_on_c, 0, 51, 0
4, 213693, Note_on_c, 0, 57, 0
4, 214120, Note_on_c, 0, 51, 25
4, 214129, Note_on_c, 0, 57, 25
4, 214256, Note_on_c, 0, 57, 0
4, 214281, Note_on_c, 0, 41, 0
4, 214311, Note_on_c, 0, 60, 0
4, 214313, Note_on_c, 0, 51, 0
4, 215064, Note_on_c, 0, 85, 58
4, 215074, Note_on_c, 0, 65, 47
4, 215080, Note_on_c, 0, 61, 21
4, 215081, Note_on_c, 0, 70, 37
4, 215089, Note_on_c, 0, 60, 39
4, 215095, Control_c, 0, 64, 0
4, 215134, Note_on_c, 0, 60, 0
4, 215164, Note_on_c, 0, 65, 0
4, 215198, Note_on_c, 0, 61, 0
4, 215278, Note_on_c, 0, 85, 0
4, 215286, Note_on_c, 0, 70, 0
4, 215375, Note_on_c, 0, 82, 35
4, 215518, Note_on_c, 0, 82, 0
4, 215585, Note_on_c, 0, 85, 52
4, 215604, Note_on_c, 0, 70, 39
4, 215706, Note_on_c, 0, 70, 0
4, 215742, Note_on_c, 0, 85, 0
4, 215884, Note_on_c, 0, 85, 49
4, 215894, Note_on_c, 0, 70, 42
4, 216005, Note_on_c, 0, 70, 0
4, 216030, Note_on_c, 0, 85, 0
4, 216060, Note_on_c, 0, 65, 31
4, 216062, Note_on_c, 0, 61, 39
4, 216083, Note_on_c, 0, 60, 25
4, 216114, Note_on_c, 0, 65, 0
4, 216125, Note_on_c, 0, 60, 0
4, 216179, Note_on_c, 0, 61, 0
4, 216250, Note_on_c, 0, 85, 46
4, 216273, Note_on_c, 0, 70, 29
4, 216355, Note_on_c, 0, 70, 0
4, 216392, Note_on_c, 0, 85, 0
4, 216452, Note_on_c, 0, 82, 38
4, 216542, Note_on_c, 0, 82, 0
4, 216619, Note_on_c, 0, 85, 57
4, 216754, Note_on_c, 0, 85, 0
4, 216982, Note_on_c, 0, 43, 29
4, 217227, Note_on_c, 0, 43, 0
4, 217962, Note_on_c, 0, 61, 38
4, 218001, Note_on_c, 0, 58, 39
4, 218016, Note_on_c, 0, 53, 13
4, 218081, Note_on_c, 0, 53, 0
4, 218085, Note_on_c, 0, 61, 0
4, 218142, Note_on_c, 0, 58, 0
4, 218512, Note_on_c, 0, 72, 88
4, 218750, Note_on_c, 0, 72, 0
4, 218801, Note_on_c, 0, 73, 62
4, 218892, Control_c, 0, 64, 127
4, 218944, Control_c, 0, 64, 0
4, 218968, Note_on_c, 0, 73, 0
4, 218996, Note_on_c, 0, 36, 34
4, 219022, Note_on_c, 0, 72, 35
4, 219072, Note_on_c, 0, 36, 0
4, 219261, Note_on_c, 0, 72, 0
4, 219311, Note_on_c, 0, 72, 24
4, 219398, Note_on_c, 0, 72, 0
4, 219900, Note_on_c, 0, 61, 42
4, 219910, Note_on_c, 0, 64, 33
4, 219912, Note_on_c, 0, 58, 48
4, 219961, Note_on_c, 0, 64, 0
4, 219998, Note_on_c, 0, 61, 0
4, 220021, Note_on_c, 0, 58, 0
4, 220355, Note_on_c, 0, 42, 37
4, 220463, Note_on_c, 0, 42, 0
4, 220809, Note_on_c, 0, 41, 53
4, 220901, Note_on_c, 0, 41, 0
4, 221134, Note_on_c, 0, 51, 51
4, 221136, Note_on_c, 0, 61, 64
4, 221144, Note_on_c, 0, 57, 50
4, 221224, Note_on_c, 0, 51, 0
4, 221290, Note_on_c, 0, 57, 0
4, 221332, Note_on_c, 0, 61, 0
4, 221492, Note_on_c, 0, 65, 56
4, 221499, Note_on_c, 0, 61, 56
4, 221507, Note_on_c, 0, 57, 47
4, 221536, Note_on_c, 0, 53, 28
4, 221582, Note_on_c, 0, 57, 0
4, 221634, Note_on_c, 0, 53, 0
4, 221645, Note_on_c, 0, 65, 0
4, 221657, Note_on_c, 0, 61, 0
4, 221832, Note_on_c, 0, 66, 53
4, 221833, Note_on_c, 0, 61, 58
4, 221838, Note_on_c, 0, 57, 53
4, 221845, Note_on_c, 0, 54, 37
4, 221848, Note_on_c, 0, 63, 49
4, 222016, Note_on_c, 0, 57, 0
4, 222024, Note_on_c, 0, 66, 0
4, 222042, Note_on_c, 0, 54, 0
4, 222075, Note_on_c, 0, 61, 0
4, 222086, Note_on_c, 0, 63, 0
4, 222138, Note_on_c, 0, 57, 50
4, 222139, Note_on_c, 0, 61, 31
4, 222140, Note_on_c, 0, 63, 27
4, 222142, Note_on_c, 0, 56, 40
4, 222143, Note_on_c, 0, 68, 48
4, 222285, Note_on_c, 0, 57, 0
4, 222305, Note_on_c, 0, 56, 0
4, 222321, Note_on_c, 0, 61, 0
4, 222323, Note_on_c, 0, 68, 0
4, 222332, Note_on_c, 0, 63, 0
4, 222439, Note_on_c, 0, 54, 43
4, 222443, Note_on_c, 0, 61, 42
4, 222450, Note_on_c, 0, 66, 45
4, 222468, Note_on_c, 0, 57, 25
4, 222473, Note_on_c, 0, 63, 32
4, 222475, Control_c, 0, 64, 127
4, 222511, Note_on_c, 0, 57, 0
4, 222577, Control_c, 0, 64, 0
4, 222590, Note_on_c, 0, 66, 0
4, 222627, Note_on_c, 0, 61, 0
4, 222639, Note_on_c, 0, 54, 0
4, 222646, Note_on_c, 0, 63, 0
4, 222743, Note_on_c, 0, 61, 39
4, 222744, Note_on_c, 0, 56, 47
4, 222746, Note_on_c, 0, 65, 49
4, 222771, Note_on_c, 0, 46, 31
4, 222773, Note_on_c, 0, 53, 26
4, 222864, Control_c, 0, 64, 127
4, 222909, Note_on_c, 0, 56, 0
4, 223007, Note_on_c, 0, 53, 0
4, 223009, Note_on_c, 0, 46, 0
4, 223024, Note_on_c, 0, 65, 0
4, 223094, Note_on_c, 0, 61, 0
4, 223685, Control_c, 0, 64, 0
4, 223686, Note_on_c, 0, 61, 35
4, 223698, Note_on_c, 0, 65, 28
4, 223705, Note_on_c, 0, 60, 36
4, 223718, Note_on_c, 0, 56, 33
4, 224014, Note_on_c, 0, 72, 41
4, 224089, Note_on_c, 0, 73, 46
4, 224092, Note_on_c, 0, 72, 0
4, 224178, Note_on_c, 0, 60, 0
4, 224199, Note_on_c, 0, 72, 33
4, 224228, Note_on_c, 0, 65, 0
4, 224264, Note_on_c, 0, 73, 0
4, 224276, Note_on_c, 0, 56, 0
4, 224322, Note_on_c, 0, 72, 0
4, 224361, Note_on_c, 0, 61, 0
4, 224512, Note_on_c, 0, 72, 62
4, 224537, Control_c, 0, 64, 127
4, 224559, Control_c, 0, 64, 0
4, 224661, Note_on_c, 0, 61, 25
4, 224665, Note_on_c, 0, 65, 32
4, 224666, Note_on_c, 0, 72, 0
4, 224708, Note_on_c, 0, 55, 20
4, 224736, Note_on_c, 0, 65, 0
4, 224741, Note_on_c, 0, 69, 19
4, 224803, Note_on_c, 0, 61, 0
4, 224813, Note_on_c, 0, 69, 0
4, 224820, Note_on_c, 0, 55, 0
4, 224900, Note_on_c, 0, 70, 46
4, 225004, Note_on_c, 0, 70, 0
4, 225088, Note_on_c, 0, 72, 50
4, 225199, Note_on_c, 0, 72, 0
4, 225264, Note_on_c, 0, 73, 44
4, 225298, Note_on_c, 0, 73, 0
4, 225338, Control_c, 0, 64, 127
4, 225461, Note_on_c, 0, 77, 60
4, 225523, Control_c, 0, 64, 0
4, 225584, Note_on_c, 0, 77, 0
4, 225596, Note_on_c, 0, 55, 35
4, 225605, Note_on_c, 0, 43, 29
4, 225661, Note_on_c, 0, 82, 50
4, 225688, Note_on_c, 0, 55, 0
4, 225763, Note_on_c, 0, 82, 0
4, 225773, Note_on_c, 0, 43, 0
4, 225869, Note_on_c, 0, 84, 62
4, 225981, Note_on_c, 0, 84, 0
4, 226077, Note_on_c, 0, 90, 47
4, 226200, Control_c, 0, 64, 127
4, 226211, Note_on_c, 0, 90, 0
4, 226296, Note_on_c, 0, 94, 59
4, 226446, Control_c, 0, 64, 0
4, 226455, Note_on_c, 0, 94, 0
4, 226534, Note_on_c, 0, 96, 64
4, 226539, Note_on_c, 0, 36, 34
4, 226624, Note_on_c, 0, 36, 0
4, 226657, Note_on_c, 0, 96, 0
4, 226835, Note_on_c, 0, 94, 42
4, 226919, Note_on_c, 0, 94, 0
4, 227112, Note_on_c, 0, 87, 54
4, 227234, Note_on_c, 0, 87, 0
4, 227236, Control_c, 0, 64, 127
4, 227336, Note_on_c, 0, 85, 59
4, 227514, Control_c, 0, 64, 0
4, 227517, Note_on_c, 0, 85, 0
4, 227581, Note_on_c, 0, 64, 33
4, 227587, Note_on_c, 0, 61, 33
4, 227613, Note_on_c, 0, 58, 37
4, 227635, Note_on_c, 0, 91, 63
4, 227814, Note_on_c, 0, 91, 0
4, 227939, Note_on_c, 0, 87, 33
4, 228016, Note_on_c, 0, 87, 0
4, 228160, Control_c, 0, 64, 127
4, 228267, Note_on_c, 0, 87, 67
4, 228321, Note_on_c, 0, 61, 0
4, 228344, Note_on_c, 0, 64, 0
4, 228384, Note_on_c, 0, 88, 45
4, 228502, Note_on_c, 0, 58, 0
4, 228511, Note_on_c, 0, 88, 0
4, 228550, Control_c, 0, 64, 0
4, 228588, Note_on_c, 0, 85, 33
4, 228604, Note_on_c, 0, 87, 0
4, 228685, Note_on_c, 0, 85, 0
4, 228855, Note_on_c, 0, 87, 53
4, 228958, Note_on_c, 0, 87, 0
4, 229033, Note_on_c, 0, 88, 64
4, 229155, Note_on_c, 0, 87, 52
4, 229168, Note_on_c, 0, 88, 0
4, 229176, Control_c, 0, 64, 127
4, 229237, Note_on_c, 0, 85, 47
4, 229275, Note_on_c, 0, 87, 0
4, 229362, Note_on_c, 0, 85, 0
4, 229372, Note_on_c, 0, 82, 26
4, 229433, Control_c, 0, 64, 0
4, 229448, Note_on_c, 0, 82, 0
4, 229496, Note_on_c, 0, 87, 62
4, 229497, Note_on_c, 0, 57, 33
4, 229513, Note_on_c, 0, 63, 37
4, 229519, Note_on_c, 0, 67, 22
4, 229627, Note_on_c, 0, 87, 0
4, 229678, Note_on_c, 0, 88, 46
4, 229777, Note_on_c, 0, 87, 39
4, 229778, Note_on_c, 0, 67, 0
4, 229787, Note_on_c, 0, 88, 0
4, 229853, Note_on_c, 0, 85, 39
4, 229889, Note_on_c, 0, 87, 0
4, 229903, Note_on_c, 0, 63, 0
4, 229954, Note_on_c, 0, 82, 38
4, 229956, Note_on_c, 0, 85, 0
4, 230035, Note_on_c, 0, 82, 0
4, 230039, Control_c, 0, 64, 127
4, 230043, Note_on_c, 0, 57, 0
4, 230069, Note_on_c, 0, 87, 56
4, 230236, Note_on_c, 0, 88, 25
4, 230320, Note_on_c, 0, 88, 0
4, 230383, Note_on_c, 0, 85, 32
4, 230419, Note_on_c, 0, 87, 0
4, 230429, Control_c, 0, 64, 0
4, 230475, Note_on_c, 0, 85, 0
4, 230547, Note_on_c, 0, 87, 55
4, 230666, Note_on_c, 0, 87, 0
4, 230675, Control_c, 0, 64, 127
4, 230903, Note_on_c, 0, 54, 51
4, 230990, Note_on_c, 0, 54, 0
4, 231391, Note_on_c, 0, 80, 68
4, 231393, Note_on_c, 0, 73, 65
4, 231395, Note_on_c, 0, 76, 73
4, 231402, Note_on_c, 0, 69, 76
4, 231404, Control_c, 0, 64, 0
4, 231420, Note_on_c, 0, 68, 80
4, 231568, Control_c, 0, 64, 127
4, 231815, Note_on_c, 0, 69, 0
4, 231831, Note_on_c, 0, 80, 0
4, 231849, Note_on_c, 0, 76, 0
4, 231851, Note_on_c, 0, 68, 0
4, 231897, Note_on_c, 0, 78, 65
4, 231917, Note_on_c, 0, 69, 33
4, 231921, Note_on_c, 0, 66, 48
4, 232159, Note_on_c, 0, 69, 0
4, 232193, Note_on_c, 0, 73, 0
4, 232251, Note_on_c, 0, 78, 0
4, 232312, Note_on_c, 0, 66, 0
4, 232328, Control_c, 0, 64, 0
4, 232338, Note_on_c, 0, 80, 71
4, 232342, Note_on_c, 0, 75, 68
4, 232343, Note_on_c, 0, 73, 60
4, 232354, Note_on_c, 0, 69, 62
4, 232358, Note_on_c, 0, 68, 65
4, 232564, Control_c, 0, 64, 127
4, 232842, Note_on_c, 0, 66, 60
4, 232845, Note_on_c, 0, 68, 0
4, 232928, Note_on_c, 0, 66, 0
4, 232961, Note_on_c, 0, 69, 0
4, 232967, Note_on_c, 0, 80, 0
4, 232969, Note_on_c, 0, 73, 0
4, 232977, Note_on_c, 0, 75, 0
4, 233313, Control_c, 0, 64, 0
4, 233340, Note_on_c, 0, 68, 54
4, 233345, Note_on_c, 0, 54, 38
4, 233348, Note_on_c, 0, 57, 47
4, 233354, Note_on_c, 0, 47, 40
4, 233370, Note_on_c, 0, 61, 39
4, 233372, Note_on_c, 0, 63, 37
4, 233549, Control_c, 0, 64, 127
4, 233849, Note_on_c, 0, 66, 56
4, 233995, Note_on_c, 0, 57, 0
4, 234016, Note_on_c, 0, 47, 0
4, 234043, Note_on_c, 0, 54, 0
4, 234100, Note_on_c, 0, 68, 0
4, 234106, Note_on_c, 0, 61, 0
4, 234107, Note_on_c, 0, 66, 0
4, 234146, Note_on_c, 0, 63, 0
4, 234688, Control_c, 0, 64, 0
4, 234746, Note_on_c, 0, 66, 80
4, 234752, Note_on_c, 0, 62, 84
4, 234757, Note_on_c, 0, 69, 70
4, 234764, Note_on_c, 0, 57, 70
4, 234771, Note_on_c, 0, 55, 63
4, 234773, Note_on_c, 0, 59, 70
4, 234914, Control_c, 0, 64, 127
4, 234994, Note_on_c, 0, 69, 0
4, 235041, Note_on_c, 0, 62, 0
4, 235097, Note_on_c, 0, 59, 0
4, 235114, Note_on_c, 0, 57, 0
4, 235117, Note_on_c, 0, 55, 0
4, 235129, Note_on_c, 0, 66, 0
4, 235202, Control_c, 0, 64, 0
4, 235267, Note_on_c, 0, 61, 79
4, 235270, Note_on_c, 0, 66, 72
4, 235274, Note_on_c, 0, 69, 69
4, 235278, Note_on_c, 0, 57, 66
4, 235280, Note_on_c, 0, 59, 67
4, 235285, Note_on_c, 0, 55, 58
4, 235398, Control_c, 0, 64, 127
4, 235765, Note_on_c, 0, 55, 0
4, 235770, Note_on_c, 0, 57, 0
4, 235789, Note_on_c, 0, 54, 20
4, 235800, Note_on_c, 0, 59, 0
4, 235831, Note_on_c, 0, 61, 0
4, 235855, Note_on_c, 0, 54, 0
4, 235918, Note_on_c, 0, 69, 0
4, 235996, Note_on_c, 0, 66, 0
4, 236136, Control_c, 0, 64, 0
4, 236205, Note_on_c, 0, 68, 74
4, 236207, Note_on_c, 0, 61, 85
4, 236209, Note_on_c, 0, 65, 79
4, 236211, Note_on_c, 0, 58, 81
4, 236214, Note_on_c, 0, 54, 69
4, 236219, Note_on_c, 0, 56, 73
4, 236372, Control_c, 0, 64, 127
4, 236816, Note_on_c, 0, 58, 0
4, 236837, Note_on_c, 0, 61, 0
4, 236959, Note_on_c, 0, 54, 0
4, 236988, Note_on_c, 0, 65, 0
4, 237006, Note_on_c, 0, 56, 0
4, 237016, Note_on_c, 0, 68, 0
4, 237131, Control_c, 0, 64, 0
4, 237215, Note_on_c, 0, 58, 50
4, 237219, Note_on_c, 0, 65, 51
4, 237220, Note_on_c, 0, 68, 44
4, 237222, Note_on_c, 0, 56, 50
4, 237223, Note_on_c, 0, 60, 54
4, 237253, Note_on_c, 0, 54, 34
4, 237329, Control_c, 0, 64, 127
4, 237452, Note_on_c, 0, 58, 0
4, 237557, Note_on_c, 0, 60, 0
4, 237593, Note_on_c, 0, 56, 0
4, 237639, Note_on_c, 0, 54, 0
4, 237696, Note_on_c, 0, 65, 0
4, 237721, Note_on_c, 0, 60, 43
4, 237727, Note_on_c, 0, 68, 0
4, 237800, Note_on_c, 0, 60, 0
4, 238130, Control_c, 0, 64, 0
4, 238176, Note_on_c, 0, 61, 46
4, 238179, Note_on_c, 0, 53, 35
4, 238195, Note_on_c, 0, 37, 39
4, 238407, Control_c, 0, 64, 127
4, 238532, Note_on_c, 0, 53, 0
4, 238656, Note_on_c, 0, 44, 44
4, 238658, Note_on_c, 0, 61, 0
4, 238659, Note_on_c, 0, 37, 0
4, 238992, Note_on_c, 0, 44, 0
4, 239082, Note_on_c, 0, 60, 39
4, 239086, Note_on_c, 0, 68, 42
4, 239107, Note_on_c, 0, 65, 34
4, 239109, Note_on_c, 0, 53, 26
4, 239347, Note_on_c, 0, 60, 0
4, 239483, Note_on_c, 0, 65, 0
4, 239494, Note_on_c, 0, 53, 0
4, 239552, Note_on_c, 0, 56, 38
4, 239558, Note_on_c, 0, 68, 0
4, 240021, Note_on_c, 0, 68, 36
4, 240029, Note_on_c, 0, 75, 40
4, 240034, Note_on_c, 0, 65, 39
4, 240039, Note_on_c, 0, 60, 36
4, 240048, Note_on_c, 0, 72, 44
4, 240498, Note_on_c, 0, 63, 37
4, 240519, Note_on_c, 0, 60, 0
4, 240819, Note_on_c, 0, 65, 0
4, 240878, Note_on_c, 0, 72, 0
4, 240912, Note_on_c, 0, 68, 0
4, 240935, Note_on_c, 0, 75, 0
4, 240974, Note_on_c, 0, 65, 39
4, 240979, Note_on_c, 0, 73, 37
4, 240980, Note_on_c, 0, 63, 0
4, 240993, Note_on_c, 0, 68, 12
4, 240996, Note_on_c, 0, 60, 34
4, 241038, Note_on_c, 0, 56, 0
4, 241131, Note_on_c, 0, 60, 0
4, 241370, Note_on_c, 0, 65, 0
4, 241438, Note_on_c, 0, 68, 0
4, 241440, Note_on_c, 0, 56, 50
4, 241475, Note_on_c, 0, 56, 0
4, 241485, Note_on_c, 0, 73, 0
4, 241907, Control_c, 0, 64, 0
4, 241966, Note_on_c, 0, 68, 67
4, 241967, Note_on_c, 0, 75, 59
4, 241970, Note_on_c, 0, 30, 53
4, 241972, Note_on_c, 0, 72, 58
4, 241977, Note_on_c, 0, 64, 66
4, 241982, Note_on_c, 0, 42, 44
4, 242045, Note_on_c, 0, 64, 0
4, 242078, Note_on_c, 0, 30, 0
4, 242081, Control_c, 0, 64, 127
4, 242094, Note_on_c, 0, 68, 0
4, 242115, Note_on_c, 0, 42, 0
4, 242138, Note_on_c, 0, 72, 0
4, 242153, Note_on_c, 0, 75, 0
4, 242492, Note_on_c, 0, 80, 76
4, 242494, Note_on_c, 0, 87, 73
4, 242498, Note_on_c, 0, 84, 74
4, 242506, Note_on_c, 0, 76, 74
4, 242526, Note_on_c, 0, 75, 83
4, 242750, Note_on_c, 0, 76, 0
4, 242768, Note_on_c, 0, 75, 0
4, 242779, Note_on_c, 0, 87, 0
4, 242781, Note_on_c, 0, 80, 0
4, 242800, Note_on_c, 0, 84, 0
4, 242993, Note_on_c, 0, 87, 77
4, 242997, Note_on_c, 0, 80, 78
4, 242998, Note_on_c, 0, 75, 85
4, 242999, Note_on_c, 0, 84, 76
4, 243001, Note_on_c, 0, 76, 83
4, 243045, Note_on_c, 0, 77, 27
4, 243080, Note_on_c, 0, 77, 0
4, 243308, Note_on_c, 0, 76, 0
4, 243318, Note_on_c, 0, 80, 0
4, 243331, Note_on_c, 0, 87, 0
4, 243357, Note_on_c, 0, 84, 0
4, 243395, Note_on_c, 0, 75, 0
4, 243447, Note_on_c, 0, 85, 74
4, 243451, Note_on_c, 0, 73, 69
4, 243459, Note_on_c, 0, 80, 69
4, 243462, Note_on_c, 0, 76, 74
4, 243464, Note_on_c, 0, 84, 64
4, 243716, Note_on_c, 0, 76, 0
4, 243729, Note_on_c, 0, 80, 0
4, 243734, Note_on_c, 0, 84, 0
4, 243751, Note_on_c, 0, 85, 0
4, 243760, Note_on_c, 0, 73, 0
4, 243929, Note_on_c, 0, 85, 71
4, 243933, Note_on_c, 0, 80, 74
4, 243939, Note_on_c, 0, 73, 69
4, 243946, Note_on_c, 0, 76, 68
4, 243976, Note_on_c, 0, 84, 25
4, 244011, Note_on_c, 0, 84, 0
4, 244261, Note_on_c, 0, 76, 0
4, 244322, Note_on_c, 0, 80, 0
4, 244331, Note_on_c, 0, 73, 0
4, 244369, Note_on_c, 0, 85, 0
4, 244390, Note_on_c, 0, 80, 60
4, 244400, Note_on_c, 0, 84, 68
4, 244404, Note_on_c, 0, 76, 68
4, 244404, Note_on_c, 0, 72, 65
4, 244669, Note_on_c, 0, 76, 0
4, 244682, Note_on_c, 0, 84, 0
4, 244713, Note_on_c, 0, 72, 0
4, 244723, Note_on_c, 0, 80, 0
4, 244895, Note_on_c, 0, 84, 62
4, 244896, Note_on_c, 0, 80, 48
4, 244907, Note_on_c, 0, 72, 51
4, 244909, Note_on_c, 0, 76, 53
4, 245085, Note_on_c, 0, 76, 0
4, 245128, Note_on_c, 0, 80, 0
4, 245179, Note_on_c, 0, 84, 0
4, 245183, Note_on_c, 0, 72, 0
4, 245314, Note_on_c, 0, 73, 33
4, 245344, Note_on_c, 0, 85, 53
4, 245356, Note_on_c, 0, 73, 0
4, 245357, Note_on_c, 0, 80, 45
4, 245362, Note_on_c, 0, 76, 42
4, 245445, Note_on_c, 0, 76, 0
4, 245467, Note_on_c, 0, 80, 0
4, 245516, Note_on_c, 0, 85, 0
4, 245849, Control_c, 0, 64, 0
4, 245850, Note_on_c, 0, 87, 46
4, 245925, Note_on_c, 0, 37, 35
4, 245971, Note_on_c, 0, 77, 7
4, 246074, Control_c, 0, 64, 127
4, 246214, Note_on_c, 0, 37, 0
4, 246315, Note_on_c, 0, 44, 37
4, 246393, Note_on_c, 0, 87, 0
4, 246406, Note_on_c, 0, 77, 0
4, 246680, Note_on_c, 0, 44, 0
4, 246793, Note_on_c, 0, 53, 24
4, 247237, Note_on_c, 0, 53, 0
4, 247284, Note_on_c, 0, 75, 35
4, 247297, Note_on_c, 0, 56, 35
4, 247308, Note_on_c, 0, 68, 26
4, 247380, Note_on_c, 0, 68, 0
4, 247443, Note_on_c, 0, 75, 0
4, 247768, Note_on_c, 0, 87, 48
4, 247801, Note_on_c, 0, 60, 26
4, 248178, Note_on_c, 0, 60, 0
4, 248215, Note_on_c, 0, 65, 29
4, 248227, Note_on_c, 0, 56, 0
4, 248690, Note_on_c, 0, 68, 34
4, 248745, Note_on_c, 0, 65, 0
4, 248802, Note_on_c, 0, 68, 0
4, 248981, Note_on_c, 0, 87, 0
4, 249697, Control_c, 0, 64, 0
4, 249712, Note_on_c, 0, 65, 32
4, 249717, Note_on_c, 0, 54, 36
4, 249726, Note_on_c, 0, 44, 29
4, 249729, Note_on_c, 0, 61, 37
4, 249732, Note_on_c, 0, 58, 46
4, 249746, Note_on_c, 0, 32, 29
4, 249912, Control_c, 0, 64, 127
4, 250129, Note_on_c, 0, 65, 0
4, 250185, Note_on_c, 0, 61, 0
4, 250203, Note_on_c, 0, 58, 0
4, 250205, Note_on_c, 0, 54, 0
4, 250394, Note_on_c, 0, 44, 0
4, 250871, Note_on_c, 0, 42, 38
4, 250931, Note_on_c, 0, 42, 0
4, 250953, Note_on_c, 0, 44, 45
4, 251009, Note_on_c, 0, 44, 0
4, 251027, Note_on_c, 0, 46, 48
4, 251079, Note_on_c, 0, 46, 0
4, 251120, Note_on_c, 0, 49, 54
4, 251161, Note_on_c, 0, 49, 0
4, 251183, Note_on_c, 0, 51, 52
4, 251216, Note_on_c, 0, 51, 0
4, 251256, Note_on_c, 0, 54, 55
4, 251290, Note_on_c, 0, 54, 0
4, 251309, Note_on_c, 0, 56, 61
4, 251342, Note_on_c, 0, 56, 0
4, 251360, Note_on_c, 0, 58, 63
4, 251395, Note_on_c, 0, 58, 0
4, 251425, Note_on_c, 0, 61, 59
4, 251460, Note_on_c, 0, 61, 0
4, 251474, Note_on_c, 0, 63, 65
4, 251509, Note_on_c, 0, 63, 0
4, 251533, Note_on_c, 0, 66, 65
4, 251568, Note_on_c, 0, 66, 0
4, 251575, Note_on_c, 0, 68, 64
4, 251611, Note_on_c, 0, 68, 0
4, 251618, Note_on_c, 0, 70, 71
4, 251654, Note_on_c, 0, 70, 0
4, 251678, Note_on_c, 0, 73, 51
4, 251713, Note_on_c, 0, 73, 0
4, 251722, Note_on_c, 0, 75, 64
4, 251756, Note_on_c, 0, 75, 0
4, 251776, Note_on_c, 0, 78, 60
4, 251809, Note_on_c, 0, 78, 0
4, 251813, Note_on_c, 0, 80, 67
4, 251847, Note_on_c, 0, 80, 0
4, 251854, Note_on_c, 0, 82, 67
4, 251888, Note_on_c, 0, 82, 0
4, 251924, Note_on_c, 0, 85, 53
4, 251958, Note_on_c, 0, 85, 0
4, 251962, Note_on_c, 0, 87, 59
4, 251997, Note_on_c, 0, 87, 0
4, 252014, Note_on_c, 0, 90, 50
4, 252048, Note_on_c, 0, 90, 0
4, 252056, Note_on_c, 0, 92, 61
4, 252090, Note_on_c, 0, 92, 0
4, 252100, Note_on_c, 0, 94, 57
4, 252134, Note_on_c, 0, 94, 0
4, 252155, Note_on_c, 0, 97, 53
4, 252190, Note_on_c, 0, 97, 0
4, 252191, Note_on_c, 0, 99, 63
4, 252226, Note_on_c, 0, 99, 0
4, 252242, Note_on_c, 0, 102, 59
4, 252277, Note_on_c, 0, 102, 0
4, 252281, Note_on_c, 0, 104, 60
4, 252307, Note_on_c, 0, 44, 51
4, 252316, Note_on_c, 0, 104, 0
4, 252336, Note_on_c, 0, 106, 34
4, 252368, Note_on_c, 0, 105, 39
4, 252561, Note_on_c, 0, 105, 0
4, 252573, Note_on_c, 0, 106, 0
4, 252977, Note_on_c, 0, 44, 0
4, 253000, Note_on_c, 0, 32, 0
4, 255384, Note_on_c, 0, 65, 35
4, 255395, Note_on_c, 0, 60, 38
4, 255403, Note_on_c, 0, 53, 16
4, 255411, Note_on_c, 0, 25, 33
4, 255415, Note_on_c, 0, 37, 25
4, 255424, Control_c, 0, 64, 0
4, 255650, Control_c, 0, 64, 127
4, 255698, Note_on_c, 0, 53, 0
4, 255793, Note_on_c, 0, 25, 0
4, 255840, Note_on_c, 0, 60, 0
4, 255853, Note_on_c, 0, 37, 0
4, 255936, Note_on_c, 0, 65, 0
4, 256292, Note_on_c, 0, 68, 42
4, 256357, Note_on_c, 0, 56, 35
4, 256615, Note_on_c, 0, 68, 0
4, 256690, Note_on_c, 0, 75, 46
4, 256724, Note_on_c, 0, 60, 32
4, 257001, Note_on_c, 0, 75, 0
4, 257011, Note_on_c, 0, 56, 0
4, 257022, Note_on_c, 0, 60, 0
4, 257027, Note_on_c, 0, 72, 37
4, 257041, Note_on_c, 0, 63, 42
4, 257162, Note_on_c, 0, 63, 0
4, 257284, Note_on_c, 0, 72, 0
4, 257374, Note_on_c, 0, 82, 48
4, 257382, Note_on_c, 0, 67, 43
4, 257672, Note_on_c, 0, 82, 0
4, 257686, Note_on_c, 0, 67, 0
4, 257717, Note_on_c, 0, 79, 34
4, 257731, Note_on_c, 0, 68, 31
4, 257958, Note_on_c, 0, 79, 0
4, 258029, Note_on_c, 0, 80, 39
4, 258044, Note_on_c, 0, 68, 0
4, 258058, Note_on_c, 0, 72, 29
4, 258185, Note_on_c, 0, 80, 0
4, 258367, Note_on_c, 0, 87, 37
4, 258375, Note_on_c, 0, 75, 38
4, 258394, Note_on_c, 0, 72, 0
4, 258653, Note_on_c, 0, 75, 0
4, 258679, Note_on_c, 0, 87, 0
4, 258720, Note_on_c, 0, 84, 40
4, 258866, Note_on_c, 0, 75, 1
4, 258958, Note_on_c, 0, 84, 0
4, 259102, Note_on_c, 0, 79, 16
4, 259377, Note_on_c, 0, 87, 42
4, 259380, Note_on_c, 0, 79, 0
4, 259389, Note_on_c, 0, 82, 34
4, 259447, Note_on_c, 0, 75, 0
4, 259574, Note_on_c, 0, 82, 0
4, 259579, Note_on_c, 0, 87, 0
4, 259688, Note_on_c, 0, 91, 51
4, 259713, Note_on_c, 0, 84, 18
4, 259929, Note_on_c, 0, 91, 0
4, 260004, Note_on_c, 0, 87, 31
4, 260006, Note_on_c, 0, 84, 0
4, 260295, Note_on_c, 0, 89, 36
4, 260536, Note_on_c, 0, 87, 0
4, 260568, Note_on_c, 0, 94, 43
4, 260600, Note_on_c, 0, 92, 46
4, 260602, Note_on_c, 0, 89, 0
4, 260690, Note_on_c, 0, 94, 0
4, 260864, Note_on_c, 0, 94, 47
4, 260874, Note_on_c, 0, 102, 49
4, 260883, Note_on_c, 0, 92, 0
4, 260992, Note_on_c, 0, 102, 0
4, 261055, Note_on_c, 0, 94, 0
4, 261174, Note_on_c, 0, 106, 67
4, 261189, Note_on_c, 0, 96, 51
4, 261281, Note_on_c, 0, 106, 0
4, 261327, Note_on_c, 0, 96, 0
4, 262281, Control_c, 0, 64, 0
4, 262281, End_track
5, 0, Start_track
5, 0, Title_t, "MIDI 2"
5, 0, End_track
0, 0, End_of_file
