0, 0, Header, 1, 3, 120
1, 0, Start_track
1, 0, Title_t, "Dreamsville by Henry Mancibi - From the TV series Peter Gunn"
1, 0, Text_t, "Doug McKenzie (dougmck@pipeline.com.au)\012"
1, 0, Text_t, "Sounds best using a Rhodes type piano sound\012"
1, 0, Time_signature, 4, 2, 24, 8
1, 0, Key_signature, 0, "major"
1, 0, Tempo, 666667
1, 0, End_track
2, 0, Start_track
2, 0, Title_t, "Dreamsville "
2, 0, Program_c, 0, 0
2, 418, Control_c, 0, 64, 127
2, 500, Note_on_c, 0, 76, 48
2, 504, Note_on_c, 0, 74, 55
2, 510, Note_on_c, 0, 62, 24
2, 513, Note_on_c, 0, 71, 19
2, 515, Note_on_c, 0, 64, 24
2, 515, Note_on_c, 0, 69, 35
2, 579, Note_on_c, 0, 64, 0
2, 634, Note_on_c, 0, 71, 0
2, 637, Note_on_c, 0, 69, 0
2, 646, Note_on_c, 0, 62, 0
2, 717, Note_on_c, 0, 76, 0
2, 726, Note_on_c, 0, 74, 0
2, 766, Note_on_c, 0, 64, 38
2, 818, Note_on_c, 0, 48, 32
2, 821, Note_on_c, 0, 64, 0
2, 887, Note_on_c, 0, 55, 28
2, 896, Note_on_c, 0, 64, 18
2, 898, Note_on_c, 0, 71, 15
2, 936, Note_on_c, 0, 64, 0
2, 968, Note_on_c, 0, 71, 0
2, 969, Note_on_c, 0, 64, 33
2, 976, Note_on_c, 0, 59, 16
2, 986, Note_on_c, 0, 64, 0
2, 1048, Note_on_c, 0, 79, 70
2, 1057, Note_on_c, 0, 48, 0
2, 1077, Note_on_c, 0, 79, 0
2, 1092, Note_on_c, 0, 59, 0
2, 1102, Note_on_c, 0, 81, 83
2, 1104, Note_on_c, 0, 55, 0
2, 1104, Note_on_c, 0, 74, 77
2, 1106, Control_c, 0, 64, 0
2, 1107, Note_on_c, 0, 48, 60
2, 1137, Control_c, 0, 64, 127
2, 1152, Note_on_c, 0, 74, 0
2, 1167, Note_on_c, 0, 48, 0
2, 1172, Note_on_c, 0, 74, 49
2, 1174, Note_on_c, 0, 81, 0
2, 1175, Note_on_c, 0, 69, 45
2, 1178, Note_on_c, 0, 57, 24
2, 1240, Note_on_c, 0, 58, 34
2, 1243, Note_on_c, 0, 74, 0
2, 1266, Note_on_c, 0, 69, 0
2, 1309, Note_on_c, 0, 74, 39
2, 1313, Note_on_c, 0, 70, 48
2, 1314, Note_on_c, 0, 62, 33
2, 1316, Note_on_c, 0, 69, 50
2, 1362, Note_on_c, 0, 62, 0
2, 1474, Note_on_c, 0, 62, 37
2, 1505, Note_on_c, 0, 69, 0
2, 1527, Note_on_c, 0, 70, 0
2, 1529, Note_on_c, 0, 62, 0
2, 1562, Note_on_c, 0, 70, 25
2, 1562, Note_on_c, 0, 69, 32
2, 1563, Note_on_c, 0, 62, 28
2, 1672, Note_on_c, 0, 62, 0
2, 1672, Note_on_c, 0, 74, 0
2, 1683, Note_on_c, 0, 57, 0
2, 1684, Note_on_c, 0, 58, 0
2, 1684, Note_on_c, 0, 70, 0
2, 1684, Note_on_c, 0, 69, 0
2, 1900, Note_on_c, 0, 63, 37
2, 1901, Note_on_c, 0, 59, 31
2, 1903, Note_on_c, 0, 66, 30
2, 1934, Note_on_c, 0, 59, 0
2, 1945, Note_on_c, 0, 66, 0
2, 1948, Note_on_c, 0, 63, 0
2, 1986, Note_on_c, 0, 36, 44
2, 1988, Note_on_c, 0, 62, 28
2, 1989, Note_on_c, 0, 67, 34
2, 1992, Note_on_c, 0, 57, 33
2, 1992, Note_on_c, 0, 59, 29
2, 1997, Control_c, 0, 64, 0
2, 1999, Note_on_c, 0, 52, 27
2, 2058, Control_c, 0, 64, 127
2, 2080, Note_on_c, 0, 43, 48
2, 2089, Note_on_c, 0, 52, 0
2, 2103, Note_on_c, 0, 57, 0
2, 2108, Note_on_c, 0, 59, 0
2, 2110, Note_on_c, 0, 62, 0
2, 2178, Note_on_c, 0, 62, 32
2, 2182, Note_on_c, 0, 57, 36
2, 2182, Note_on_c, 0, 52, 25
2, 2182, Note_on_c, 0, 59, 32
2, 2253, Note_on_c, 0, 36, 0
2, 2257, Note_on_c, 0, 57, 0
2, 2259, Note_on_c, 0, 59, 0
2, 2271, Note_on_c, 0, 62, 0
2, 2272, Note_on_c, 0, 43, 0
2, 2277, Note_on_c, 0, 67, 0
2, 2297, Note_on_c, 0, 52, 0
2, 2430, Note_on_c, 0, 67, 88
2, 2430, Note_on_c, 0, 60, 105
2, 2431, Note_on_c, 0, 55, 72
2, 2432, Note_on_c, 0, 45, 58
2, 2433, Control_c, 0, 64, 0
2, 2457, Control_c, 0, 64, 127
2, 2495, Note_on_c, 0, 45, 0
2, 2499, Note_on_c, 0, 55, 0
2, 2514, Note_on_c, 0, 60, 0
2, 2525, Note_on_c, 0, 59, 58
2, 2527, Note_on_c, 0, 54, 45
2, 2528, Note_on_c, 0, 44, 50
2, 2529, Control_c, 0, 64, 0
2, 2548, Control_c, 0, 64, 127
2, 2582, Note_on_c, 0, 67, 0
2, 2584, Note_on_c, 0, 59, 0
2, 2589, Note_on_c, 0, 54, 0
2, 2591, Note_on_c, 0, 44, 0
2, 2600, Control_c, 0, 64, 0
2, 2601, Note_on_c, 0, 58, 51
2, 2605, Note_on_c, 0, 43, 42
2, 2621, Control_c, 0, 64, 127
2, 2635, Note_on_c, 0, 58, 0
2, 2662, Note_on_c, 0, 43, 0
2, 2662, Note_on_c, 0, 72, 75
2, 2664, Note_on_c, 0, 55, 44
2, 2707, Note_on_c, 0, 72, 0
2, 2734, Note_on_c, 0, 72, 53
2, 2737, Note_on_c, 0, 65, 52
2, 2738, Note_on_c, 0, 55, 0
2, 2738, Note_on_c, 0, 58, 42
2, 2739, Note_on_c, 0, 62, 34
2, 2793, Note_on_c, 0, 72, 0
2, 2844, Note_on_c, 0, 60, 35
2, 2846, Note_on_c, 0, 72, 53
2, 2906, Note_on_c, 0, 60, 0
2, 2911, Note_on_c, 0, 58, 0
2, 2932, Note_on_c, 0, 62, 0
2, 2937, Note_on_c, 0, 65, 0
2, 3002, Control_c, 0, 64, 0
2, 3012, Note_on_c, 0, 72, 0
2, 3028, Note_on_c, 0, 24, 58
2, 3036, Control_c, 0, 64, 127
2, 3045, Note_on_c, 0, 24, 0
2, 3170, Note_on_c, 0, 73, 38
2, 3173, Note_on_c, 0, 69, 51
2, 3174, Note_on_c, 0, 64, 48
2, 3174, Note_on_c, 0, 58, 53
2, 3252, Note_on_c, 0, 58, 0
2, 3297, Note_on_c, 0, 64, 0
2, 3304, Note_on_c, 0, 69, 0
2, 3324, Note_on_c, 0, 73, 0
2, 3326, Note_on_c, 0, 30, 53
2, 3330, Control_c, 0, 64, 0
2, 3351, Control_c, 0, 64, 127
2, 3374, Note_on_c, 0, 30, 0
2, 3485, Note_on_c, 0, 63, 29
2, 3487, Note_on_c, 0, 68, 42
2, 3488, Note_on_c, 0, 72, 40
2, 3491, Note_on_c, 0, 58, 29
2, 3492, Note_on_c, 0, 64, 29
2, 3658, Note_on_c, 0, 64, 0
2, 3680, Note_on_c, 0, 72, 0
2, 3684, Note_on_c, 0, 63, 0
2, 3690, Note_on_c, 0, 58, 0
2, 3700, Note_on_c, 0, 68, 0
2, 3736, Note_on_c, 0, 74, 55
2, 3742, Note_on_c, 0, 67, 53
2, 3744, Control_c, 0, 64, 0
2, 3747, Note_on_c, 0, 53, 31
2, 3773, Control_c, 0, 64, 127
2, 3790, Note_on_c, 0, 67, 0
2, 3806, Note_on_c, 0, 74, 0
2, 3807, Note_on_c, 0, 60, 40
2, 3871, Note_on_c, 0, 70, 45
2, 3872, Note_on_c, 0, 67, 39
2, 3876, Note_on_c, 0, 63, 25
2, 3938, Note_on_c, 0, 74, 70
2, 3984, Note_on_c, 0, 74, 0
2, 4012, Note_on_c, 0, 63, 0
2, 4015, Note_on_c, 0, 74, 72
2, 4057, Note_on_c, 0, 53, 0
2, 4057, Note_on_c, 0, 67, 0
2, 4116, Note_on_c, 0, 70, 0
2, 4120, Note_on_c, 0, 74, 0
2, 4136, Note_on_c, 0, 60, 0
2, 4148, Note_on_c, 0, 72, 76
2, 4178, Note_on_c, 0, 72, 0
2, 4220, Note_on_c, 0, 72, 66
2, 4223, Note_on_c, 0, 51, 48
2, 4224, Note_on_c, 0, 65, 72
2, 4226, Note_on_c, 0, 69, 44
2, 4228, Control_c, 0, 64, 0
2, 4231, Note_on_c, 0, 61, 27
2, 4257, Control_c, 0, 64, 127
2, 4272, Note_on_c, 0, 69, 0
2, 4310, Note_on_c, 0, 72, 0
2, 4359, Note_on_c, 0, 72, 43
2, 4371, Note_on_c, 0, 65, 0
2, 4379, Note_on_c, 0, 61, 0
2, 4389, Note_on_c, 0, 72, 0
2, 4404, Note_on_c, 0, 51, 0
2, 4431, Note_on_c, 0, 65, 55
2, 4434, Control_c, 0, 64, 0
2, 4434, Note_on_c, 0, 50, 44
2, 4435, Note_on_c, 0, 60, 36
2, 4463, Control_c, 0, 64, 127
2, 4473, Note_on_c, 0, 60, 0
2, 4478, Note_on_c, 0, 65, 0
2, 4488, Note_on_c, 0, 57, 39
2, 4538, Note_on_c, 0, 65, 47
2, 4539, Note_on_c, 0, 69, 46
2, 4541, Note_on_c, 0, 60, 36
2, 4549, Note_on_c, 0, 60, 0
2, 4555, Note_on_c, 0, 57, 0
2, 4562, Note_on_c, 0, 50, 0
2, 4570, Note_on_c, 0, 65, 0
2, 4577, Note_on_c, 0, 69, 0
2, 4590, Note_on_c, 0, 77, 58
2, 4615, Note_on_c, 0, 77, 0
2, 4657, Note_on_c, 0, 39, 29
2, 4660, Note_on_c, 0, 77, 50
2, 4661, Note_on_c, 0, 70, 49
2, 4663, Note_on_c, 0, 66, 36
2, 4663, Note_on_c, 0, 54, 36
2, 4668, Control_c, 0, 64, 0
2, 4697, Control_c, 0, 64, 127
2, 4717, Note_on_c, 0, 39, 0
2, 4730, Note_on_c, 0, 77, 0
2, 4740, Note_on_c, 0, 75, 58
2, 4778, Note_on_c, 0, 54, 0
2, 4782, Note_on_c, 0, 70, 0
2, 4791, Note_on_c, 0, 66, 0
2, 4822, Note_on_c, 0, 70, 43
2, 4823, Note_on_c, 0, 75, 0
2, 4824, Note_on_c, 0, 66, 23
2, 4829, Note_on_c, 0, 54, 21
2, 4829, Note_on_c, 0, 44, 31
2, 4846, Control_c, 0, 64, 0
2, 4873, Control_c, 0, 64, 127
2, 4915, Note_on_c, 0, 72, 45
2, 4926, Note_on_c, 0, 44, 0
2, 4939, Note_on_c, 0, 54, 0
2, 4989, Note_on_c, 0, 66, 0
2, 5001, Note_on_c, 0, 72, 0
2, 5051, Note_on_c, 0, 70, 0
2, 5113, Note_on_c, 0, 52, 34
2, 5115, Note_on_c, 0, 62, 28
2, 5123, Note_on_c, 0, 69, 9
2, 5127, Control_c, 0, 64, 0
2, 5164, Control_c, 0, 64, 127
2, 5201, Note_on_c, 0, 62, 0
2, 5209, Note_on_c, 0, 81, 67
2, 5209, Note_on_c, 0, 74, 51
2, 5211, Note_on_c, 0, 58, 29
2, 5224, Note_on_c, 0, 69, 0
2, 5252, Note_on_c, 0, 81, 0
2, 5259, Note_on_c, 0, 74, 0
2, 5286, Note_on_c, 0, 58, 0
2, 5290, Note_on_c, 0, 74, 53
2, 5291, Note_on_c, 0, 81, 58
2, 5293, Note_on_c, 0, 62, 36
2, 5293, Note_on_c, 0, 69, 44
2, 5342, Note_on_c, 0, 69, 0
2, 5345, Note_on_c, 0, 74, 0
2, 5347, Control_c, 0, 64, 0
2, 5353, Control_c, 0, 64, 127
2, 5355, Note_on_c, 0, 62, 0
2, 5356, Note_on_c, 0, 81, 0
2, 5361, Note_on_c, 0, 78, 44
2, 5364, Note_on_c, 0, 69, 26
2, 5366, Note_on_c, 0, 52, 0
2, 5381, Note_on_c, 0, 69, 0
2, 5404, Note_on_c, 0, 78, 0
2, 5419, Note_on_c, 0, 72, 51
2, 5421, Note_on_c, 0, 45, 54
2, 5421, Note_on_c, 0, 81, 45
2, 5422, Note_on_c, 0, 77, 37
2, 5439, Note_on_c, 0, 45, 0
2, 5484, Note_on_c, 0, 55, 66
2, 5525, Note_on_c, 0, 72, 0
2, 5546, Note_on_c, 0, 61, 58
2, 5549, Note_on_c, 0, 81, 0
2, 5555, Note_on_c, 0, 77, 0
2, 5556, Note_on_c, 0, 55, 0
2, 5565, Note_on_c, 0, 61, 0
2, 5611, Note_on_c, 0, 79, 68
2, 5612, Note_on_c, 0, 73, 61
2, 5615, Note_on_c, 0, 64, 44
2, 5667, Note_on_c, 0, 64, 0
2, 5669, Note_on_c, 0, 79, 0
2, 5671, Note_on_c, 0, 73, 0
2, 5700, Note_on_c, 0, 79, 64
2, 5702, Note_on_c, 0, 72, 69
2, 5703, Note_on_c, 0, 62, 56
2, 5704, Note_on_c, 0, 69, 62
2, 5709, Control_c, 0, 64, 0
2, 5735, Control_c, 0, 64, 127
2, 5798, Note_on_c, 0, 62, 0
2, 5803, Note_on_c, 0, 79, 0
2, 5809, Note_on_c, 0, 69, 0
2, 5811, Note_on_c, 0, 72, 0
2, 5909, Control_c, 0, 64, 0
2, 5921, Note_on_c, 0, 45, 60
2, 5924, Control_c, 0, 64, 127
2, 5939, Note_on_c, 0, 45, 0
2, 6026, Note_on_c, 0, 77, 42
2, 6027, Note_on_c, 0, 69, 48
2, 6028, Note_on_c, 0, 61, 38
2, 6029, Note_on_c, 0, 72, 47
2, 6031, Note_on_c, 0, 65, 41
2, 6032, Note_on_c, 0, 55, 39
2, 6078, Note_on_c, 0, 55, 0
2, 6084, Note_on_c, 0, 77, 0
2, 6092, Note_on_c, 0, 61, 0
2, 6097, Note_on_c, 0, 65, 0
2, 6097, Note_on_c, 0, 69, 0
2, 6108, Note_on_c, 0, 72, 0
2, 6366, Note_on_c, 0, 73, 37
2, 6369, Note_on_c, 0, 65, 59
2, 6370, Note_on_c, 0, 44, 32
2, 6370, Note_on_c, 0, 60, 38
2, 6371, Note_on_c, 0, 54, 30
2, 6387, Control_c, 0, 64, 0
2, 6425, Control_c, 0, 64, 127
2, 6490, Note_on_c, 0, 65, 0
2, 6492, Note_on_c, 0, 60, 0
2, 6514, Note_on_c, 0, 54, 0
2, 6516, Note_on_c, 0, 73, 0
2, 6517, Note_on_c, 0, 44, 0
2, 6576, Note_on_c, 0, 74, 47
2, 6578, Note_on_c, 0, 68, 39
2, 6579, Note_on_c, 0, 62, 41
2, 6581, Note_on_c, 0, 71, 32
2, 6581, Note_on_c, 0, 43, 39
2, 6583, Control_c, 0, 64, 0
2, 6585, Note_on_c, 0, 53, 28
2, 6613, Control_c, 0, 64, 127
2, 6641, Note_on_c, 0, 43, 0
2, 6650, Note_on_c, 0, 74, 0
2, 6651, Note_on_c, 0, 53, 0
2, 6654, Note_on_c, 0, 62, 0
2, 6663, Note_on_c, 0, 71, 0
2, 6674, Note_on_c, 0, 68, 0
2, 6690, Note_on_c, 0, 75, 70
2, 6720, Note_on_c, 0, 75, 0
2, 6785, Note_on_c, 0, 76, 50
2, 6788, Note_on_c, 0, 36, 57
2, 6790, Note_on_c, 0, 71, 54
2, 6791, Note_on_c, 0, 64, 54
2, 6793, Note_on_c, 0, 74, 27
2, 6796, Control_c, 0, 64, 0
2, 6820, Control_c, 0, 64, 127
2, 6833, Note_on_c, 0, 76, 0
2, 6835, Note_on_c, 0, 71, 0
2, 6837, Note_on_c, 0, 74, 0
2, 6838, Note_on_c, 0, 43, 49
2, 6842, Note_on_c, 0, 64, 0
2, 6868, Note_on_c, 0, 36, 0
2, 6884, Note_on_c, 0, 43, 0
2, 6888, Note_on_c, 0, 67, 42
2, 6890, Note_on_c, 0, 52, 43
2, 6890, Note_on_c, 0, 64, 53
2, 6891, Note_on_c, 0, 62, 37
2, 6904, Note_on_c, 0, 52, 0
2, 6925, Note_on_c, 0, 62, 0
2, 6932, Note_on_c, 0, 64, 0
2, 6936, Note_on_c, 0, 67, 0
2, 6938, Note_on_c, 0, 55, 62
2, 7000, Note_on_c, 0, 74, 83
2, 7001, Note_on_c, 0, 67, 87
2, 7007, Note_on_c, 0, 59, 42
2, 7021, Note_on_c, 0, 55, 0
2, 7026, Note_on_c, 0, 67, 0
2, 7043, Note_on_c, 0, 74, 0
2, 7069, Note_on_c, 0, 55, 49
2, 7072, Note_on_c, 0, 59, 0
2, 7131, Note_on_c, 0, 64, 45
2, 7134, Note_on_c, 0, 62, 36
2, 7134, Note_on_c, 0, 59, 37
2, 7154, Note_on_c, 0, 55, 0
2, 7183, Note_on_c, 0, 62, 0
2, 7189, Note_on_c, 0, 64, 0
2, 7190, Note_on_c, 0, 59, 0
2, 7192, Note_on_c, 0, 67, 70
2, 7194, Note_on_c, 0, 55, 41
2, 7234, Note_on_c, 0, 67, 0
2, 7252, Note_on_c, 0, 55, 0
2, 7253, Note_on_c, 0, 69, 73
2, 7256, Note_on_c, 0, 62, 66
2, 7256, Note_on_c, 0, 48, 59
2, 7256, Note_on_c, 0, 65, 65
2, 7256, Note_on_c, 0, 58, 58
2, 7260, Control_c, 0, 64, 0
2, 7285, Control_c, 0, 64, 127
2, 7301, Note_on_c, 0, 58, 0
2, 7310, Note_on_c, 0, 62, 0
2, 7314, Note_on_c, 0, 65, 0
2, 7314, Note_on_c, 0, 57, 79
2, 7325, Note_on_c, 0, 48, 0
2, 7343, Note_on_c, 0, 57, 0
2, 7370, Note_on_c, 0, 62, 74
2, 7373, Note_on_c, 0, 58, 56
2, 7391, Note_on_c, 0, 62, 0
2, 7400, Note_on_c, 0, 69, 0
2, 7424, Note_on_c, 0, 62, 71
2, 7470, Note_on_c, 0, 70, 64
2, 7470, Note_on_c, 0, 74, 64
2, 7473, Note_on_c, 0, 62, 0
2, 7473, Note_on_c, 0, 69, 62
2, 7476, Note_on_c, 0, 65, 55
2, 7510, Note_on_c, 0, 69, 0
2, 7515, Note_on_c, 0, 65, 0
2, 7516, Note_on_c, 0, 70, 0
2, 7517, Note_on_c, 0, 74, 0
2, 7520, Note_on_c, 0, 62, 62
2, 7571, Note_on_c, 0, 74, 64
2, 7571, Note_on_c, 0, 65, 60
2, 7572, Note_on_c, 0, 70, 54
2, 7574, Note_on_c, 0, 77, 49
2, 7578, Note_on_c, 0, 62, 0
2, 7586, Note_on_c, 0, 58, 0
2, 7587, Note_on_c, 0, 70, 0
2, 7595, Note_on_c, 0, 74, 0
2, 7595, Note_on_c, 0, 77, 0
2, 7616, Note_on_c, 0, 65, 0
2, 7626, Note_on_c, 0, 86, 75
2, 7627, Note_on_c, 0, 58, 43
2, 7642, Note_on_c, 0, 58, 0
2, 7672, Note_on_c, 0, 86, 0
2, 7692, Note_on_c, 0, 86, 66
2, 7695, Note_on_c, 0, 48, 60
2, 7696, Control_c, 0, 64, 0
2, 7725, Control_c, 0, 64, 127
2, 7734, Note_on_c, 0, 86, 0
2, 7755, Note_on_c, 0, 84, 50
2, 7755, Note_on_c, 0, 55, 36
2, 7769, Note_on_c, 0, 84, 0
2, 7819, Note_on_c, 0, 83, 45
2, 7820, Note_on_c, 0, 76, 33
2, 7824, Note_on_c, 0, 79, 26
2, 7825, Note_on_c, 0, 71, 26
2, 7827, Note_on_c, 0, 60, 35
2, 7845, Note_on_c, 0, 60, 0
2, 7884, Note_on_c, 0, 55, 0
2, 7904, Note_on_c, 0, 55, 38
2, 7905, Note_on_c, 0, 83, 0
2, 7912, Note_on_c, 0, 76, 0
2, 7913, Note_on_c, 0, 79, 0
2, 7924, Note_on_c, 0, 71, 0
2, 7972, Note_on_c, 0, 60, 52
2, 7985, Note_on_c, 0, 60, 0
2, 7992, Note_on_c, 0, 55, 0
2, 8004, Note_on_c, 0, 48, 0
2, 8051, Note_on_c, 0, 64, 70
2, 8087, Note_on_c, 0, 64, 0
2, 8127, Note_on_c, 0, 64, 62
2, 8128, Note_on_c, 0, 55, 48
2, 8129, Note_on_c, 0, 67, 46
2, 8129, Note_on_c, 0, 60, 66
2, 8129, Note_on_c, 0, 45, 38
2, 8134, Control_c, 0, 64, 0
2, 8157, Control_c, 0, 64, 127
2, 8179, Note_on_c, 0, 64, 0
2, 8183, Note_on_c, 0, 45, 0
2, 8184, Note_on_c, 0, 60, 0
2, 8186, Note_on_c, 0, 55, 0
2, 8207, Note_on_c, 0, 67, 0
2, 8324, Note_on_c, 0, 73, 71
2, 8368, Note_on_c, 0, 73, 0
2, 8396, Note_on_c, 0, 72, 66
2, 8400, Note_on_c, 0, 43, 38
2, 8400, Note_on_c, 0, 65, 66
2, 8405, Control_c, 0, 64, 0
2, 8439, Control_c, 0, 64, 127
2, 8449, Note_on_c, 0, 50, 34
2, 8463, Note_on_c, 0, 72, 0
2, 8468, Note_on_c, 0, 70, 2
2, 8488, Note_on_c, 0, 65, 0
2, 8496, Note_on_c, 0, 55, 38
2, 8497, Note_on_c, 0, 58, 42
2, 8511, Note_on_c, 0, 55, 0
2, 8513, Note_on_c, 0, 43, 0
2, 8523, Note_on_c, 0, 50, 0
2, 8546, Note_on_c, 0, 58, 0
2, 8559, Note_on_c, 0, 65, 62
2, 8605, Control_c, 0, 64, 0
2, 8618, Note_on_c, 0, 65, 0
2, 8619, Control_c, 0, 64, 127
2, 8620, Note_on_c, 0, 70, 0
2, 8631, Note_on_c, 0, 24, 50
2, 8644, Note_on_c, 0, 24, 0
2, 8717, Note_on_c, 0, 75, 58
2, 8718, Note_on_c, 0, 68, 45
2, 8720, Note_on_c, 0, 64, 42
2, 8721, Note_on_c, 0, 72, 49
2, 8722, Note_on_c, 0, 58, 35
2, 8787, Note_on_c, 0, 64, 0
2, 8788, Note_on_c, 0, 58, 0
2, 8802, Note_on_c, 0, 68, 0
2, 8807, Note_on_c, 0, 72, 0
2, 8839, Note_on_c, 0, 75, 0
2, 8845, Note_on_c, 0, 30, 40
2, 8861, Control_c, 0, 64, 0
2, 8872, Control_c, 0, 64, 127
2, 8886, Note_on_c, 0, 30, 0
2, 8977, Note_on_c, 0, 80, 38
2, 8983, Note_on_c, 0, 72, 34
2, 8983, Note_on_c, 0, 68, 26
2, 8983, Note_on_c, 0, 75, 37
2, 8984, Note_on_c, 0, 64, 31
2, 8984, Note_on_c, 0, 58, 32
2, 9252, Note_on_c, 0, 80, 0
2, 9260, Note_on_c, 0, 72, 0
2, 9266, Note_on_c, 0, 75, 0
2, 9290, Note_on_c, 0, 68, 0
2, 9307, Note_on_c, 0, 76, 34
2, 9320, Note_on_c, 0, 76, 0
2, 9328, Note_on_c, 0, 64, 0
2, 9349, Note_on_c, 0, 86, 74
2, 9360, Note_on_c, 0, 58, 0
2, 9381, Note_on_c, 0, 86, 0
2, 9404, Note_on_c, 0, 86, 56
2, 9408, Note_on_c, 0, 53, 38
2, 9408, Note_on_c, 0, 63, 33
2, 9408, Note_on_c, 0, 75, 36
2, 9411, Note_on_c, 0, 79, 34
2, 9413, Control_c, 0, 64, 0
2, 9432, Note_on_c, 0, 58, 13
2, 9447, Control_c, 0, 64, 127
2, 9456, Note_on_c, 0, 63, 0
2, 9466, Note_on_c, 0, 79, 0
2, 9473, Note_on_c, 0, 60, 31
2, 9490, Note_on_c, 0, 75, 0
2, 9496, Note_on_c, 0, 86, 0
2, 9523, Note_on_c, 0, 79, 41
2, 9524, Note_on_c, 0, 75, 33
2, 9524, Note_on_c, 0, 63, 28
2, 9548, Note_on_c, 0, 53, 0
2, 9549, Note_on_c, 0, 63, 0
2, 9550, Note_on_c, 0, 60, 0
2, 9557, Note_on_c, 0, 58, 0
2, 9576, Note_on_c, 0, 86, 66
2, 9608, Note_on_c, 0, 86, 0
2, 9620, Control_c, 0, 64, 0
2, 9636, Control_c, 0, 64, 127
2, 9640, Note_on_c, 0, 86, 66
2, 9640, Note_on_c, 0, 41, 58
2, 9647, Note_on_c, 0, 41, 0
2, 9687, Note_on_c, 0, 86, 0
2, 9698, Note_on_c, 0, 79, 0
2, 9699, Note_on_c, 0, 75, 0
2, 9716, Note_on_c, 0, 84, 72
2, 9769, Note_on_c, 0, 84, 0
2, 9778, Control_c, 0, 64, 0
2, 9793, Control_c, 0, 64, 127
2, 9795, Note_on_c, 0, 39, 40
2, 9797, Note_on_c, 0, 84, 64
2, 9814, Note_on_c, 0, 39, 0
2, 9920, Note_on_c, 0, 61, 31
2, 9920, Note_on_c, 0, 65, 29
2, 9924, Note_on_c, 0, 77, 33
2, 9937, Note_on_c, 0, 65, 0
2, 9937, Note_on_c, 0, 55, 11
2, 9941, Note_on_c, 0, 77, 0
2, 9941, Note_on_c, 0, 84, 0
2, 9943, Note_on_c, 0, 72, 1
2, 9949, Note_on_c, 0, 61, 0
2, 9951, Note_on_c, 0, 55, 0
2, 9952, Note_on_c, 0, 72, 0
2, 10013, Note_on_c, 0, 50, 41
2, 10013, Note_on_c, 0, 77, 59
2, 10015, Note_on_c, 0, 60, 32
2, 10049, Control_c, 0, 64, 0
2, 10066, Note_on_c, 0, 60, 0
2, 10068, Note_on_c, 0, 57, 50
2, 10076, Control_c, 0, 64, 127
2, 10079, Note_on_c, 0, 76, 1
2, 10119, Note_on_c, 0, 77, 0
2, 10121, Note_on_c, 0, 76, 0
2, 10122, Note_on_c, 0, 69, 53
2, 10123, Note_on_c, 0, 65, 62
2, 10129, Note_on_c, 0, 60, 32
2, 10146, Note_on_c, 0, 50, 0
2, 10160, Note_on_c, 0, 60, 0
2, 10168, Note_on_c, 0, 57, 0
2, 10186, Note_on_c, 0, 69, 0
2, 10186, Note_on_c, 0, 50, 51
2, 10194, Note_on_c, 0, 50, 0
2, 10198, Note_on_c, 0, 65, 0
2, 10279, Note_on_c, 0, 39, 29
2, 10283, Note_on_c, 0, 61, 42
2, 10284, Note_on_c, 0, 70, 47
2, 10284, Note_on_c, 0, 54, 32
2, 10285, Note_on_c, 0, 66, 45
2, 10294, Control_c, 0, 64, 0
2, 10322, Control_c, 0, 64, 127
2, 10331, Note_on_c, 0, 39, 0
2, 10372, Note_on_c, 0, 61, 0
2, 10375, Note_on_c, 0, 54, 0
2, 10378, Note_on_c, 0, 66, 0
2, 10383, Note_on_c, 0, 70, 0
2, 10432, Note_on_c, 0, 70, 37
2, 10435, Note_on_c, 0, 54, 28
2, 10436, Note_on_c, 0, 65, 53
2, 10436, Note_on_c, 0, 60, 35
2, 10437, Note_on_c, 0, 44, 29
2, 10444, Control_c, 0, 64, 0
2, 10479, Control_c, 0, 64, 127
2, 10583, Note_on_c, 0, 60, 0
2, 10592, Note_on_c, 0, 65, 0
2, 10598, Note_on_c, 0, 44, 0
2, 10604, Note_on_c, 0, 54, 0
2, 10612, Note_on_c, 0, 70, 0
2, 10729, Note_on_c, 0, 76, 74
2, 10736, Note_on_c, 0, 69, 73
2, 10740, Note_on_c, 0, 60, 48
2, 10741, Note_on_c, 0, 65, 64
2, 10742, Note_on_c, 0, 50, 30
2, 10744, Control_c, 0, 64, 0
2, 10780, Control_c, 0, 64, 127
2, 10817, Note_on_c, 0, 57, 49
2, 10821, Note_on_c, 0, 60, 0
2, 10841, Note_on_c, 0, 69, 0
2, 10849, Note_on_c, 0, 65, 0
2, 10901, Note_on_c, 0, 65, 50
2, 10901, Note_on_c, 0, 69, 39
2, 10903, Note_on_c, 0, 60, 33
2, 10935, Note_on_c, 0, 50, 0
2, 10945, Note_on_c, 0, 60, 0
2, 10954, Note_on_c, 0, 76, 0
2, 10976, Note_on_c, 0, 69, 0
2, 10988, Note_on_c, 0, 50, 37
2, 10993, Note_on_c, 0, 65, 0
2, 10997, Note_on_c, 0, 57, 0
2, 11012, Note_on_c, 0, 50, 0
2, 11120, Note_on_c, 0, 67, 48
2, 11122, Note_on_c, 0, 60, 44
2, 11122, Note_on_c, 0, 57, 45
2, 11122, Note_on_c, 0, 55, 44
2, 11132, Control_c, 0, 64, 0
2, 11159, Control_c, 0, 64, 127
2, 11201, Note_on_c, 0, 43, 36
2, 11209, Note_on_c, 0, 57, 0
2, 11209, Note_on_c, 0, 60, 0
2, 11215, Note_on_c, 0, 55, 0
2, 11226, Note_on_c, 0, 67, 0
2, 11248, Note_on_c, 0, 43, 0
2, 11442, Note_on_c, 0, 67, 32
2, 11444, Note_on_c, 0, 59, 45
2, 11446, Note_on_c, 0, 53, 33
2, 11447, Note_on_c, 0, 55, 34
2, 11448, Note_on_c, 0, 37, 34
2, 11449, Note_on_c, 0, 44, 34
2, 11453, Control_c, 0, 64, 0
2, 11498, Control_c, 0, 64, 127
2, 11556, Note_on_c, 0, 67, 0
2, 11576, Note_on_c, 0, 67, 33
2, 11582, Note_on_c, 0, 37, 0
2, 11590, Note_on_c, 0, 53, 0
2, 11592, Note_on_c, 0, 44, 0
2, 11594, Note_on_c, 0, 55, 0
2, 11608, Note_on_c, 0, 59, 0
2, 11657, Note_on_c, 0, 67, 0
2, 11741, Note_on_c, 0, 62, 43
2, 11744, Note_on_c, 0, 59, 37
2, 11744, Note_on_c, 0, 57, 29
2, 11745, Note_on_c, 0, 36, 35
2, 11758, Control_c, 0, 64, 0
2, 11803, Note_on_c, 0, 43, 51
2, 11809, Control_c, 0, 64, 127
2, 11824, Note_on_c, 0, 59, 0
2, 11830, Note_on_c, 0, 57, 0
2, 11884, Note_on_c, 0, 57, 33
2, 11885, Note_on_c, 0, 59, 34
2, 11885, Note_on_c, 0, 52, 28
2, 12040, Note_on_c, 0, 36, 0
2, 12051, Note_on_c, 0, 43, 0
2, 12055, Note_on_c, 0, 57, 0
2, 12066, Note_on_c, 0, 59, 0
2, 12066, Note_on_c, 0, 52, 0
2, 12086, Note_on_c, 0, 62, 0
2, 12438, Note_on_c, 0, 74, 80
2, 12441, Note_on_c, 0, 71, 80
2, 12442, Note_on_c, 0, 62, 55
2, 12443, Note_on_c, 0, 60, 56
2, 12443, Control_c, 0, 64, 0
2, 12443, Note_on_c, 0, 64, 64
2, 12447, Note_on_c, 0, 67, 63
2, 12460, Control_c, 0, 64, 127
2, 12476, Note_on_c, 0, 62, 0
2, 12483, Note_on_c, 0, 71, 0
2, 12485, Note_on_c, 0, 64, 0
2, 12486, Note_on_c, 0, 60, 0
2, 12488, Note_on_c, 0, 67, 0
2, 12495, Note_on_c, 0, 74, 0
2, 12533, Note_on_c, 0, 73, 47
2, 12534, Note_on_c, 0, 66, 59
2, 12534, Note_on_c, 0, 70, 67
2, 12534, Note_on_c, 0, 61, 50
2, 12535, Note_on_c, 0, 63, 50
2, 12537, Note_on_c, 0, 58, 45
2, 12537, Control_c, 0, 64, 0
2, 12547, Control_c, 0, 64, 127
2, 12573, Note_on_c, 0, 63, 0
2, 12578, Note_on_c, 0, 70, 0
2, 12579, Note_on_c, 0, 61, 0
2, 12579, Note_on_c, 0, 66, 0
2, 12584, Note_on_c, 0, 58, 0
2, 12587, Note_on_c, 0, 73, 0
2, 12597, Control_c, 0, 64, 0
2, 12598, Note_on_c, 0, 62, 41
2, 12600, Note_on_c, 0, 72, 57
2, 12600, Note_on_c, 0, 69, 53
2, 12602, Note_on_c, 0, 65, 57
2, 12605, Note_on_c, 0, 57, 31
2, 12608, Control_c, 0, 64, 127
2, 12627, Note_on_c, 0, 62, 0
2, 12628, Note_on_c, 0, 72, 0
2, 12628, Note_on_c, 0, 69, 0
2, 12634, Note_on_c, 0, 65, 0
2, 12640, Note_on_c, 0, 57, 0
2, 12673, Note_on_c, 0, 61, 33
2, 12674, Note_on_c, 0, 68, 49
2, 12674, Note_on_c, 0, 64, 58
2, 12676, Note_on_c, 0, 71, 57
2, 12676, Note_on_c, 0, 59, 31
2, 12680, Note_on_c, 0, 57, 34
2, 12680, Note_on_c, 0, 54, 35
2, 12680, Control_c, 0, 64, 0
2, 12714, Control_c, 0, 64, 127
2, 12750, Note_on_c, 0, 69, 74
2, 12751, Note_on_c, 0, 71, 0
2, 12807, Note_on_c, 0, 69, 0
2, 12811, Note_on_c, 0, 72, 80
2, 12833, Note_on_c, 0, 59, 0
2, 12833, Note_on_c, 0, 57, 0
2, 12834, Note_on_c, 0, 61, 0
2, 12852, Note_on_c, 0, 64, 0
2, 12853, Note_on_c, 0, 54, 0
2, 12854, Note_on_c, 0, 68, 0
2, 12858, Note_on_c, 0, 72, 0
2, 12865, Note_on_c, 0, 69, 71
2, 12881, Note_on_c, 0, 69, 0
2, 12949, Note_on_c, 0, 59, 48
2, 12949, Note_on_c, 0, 63, 42
2, 12950, Note_on_c, 0, 47, 36
2, 12951, Note_on_c, 0, 67, 48
2, 12961, Control_c, 0, 64, 0
2, 13016, Control_c, 0, 64, 127
2, 13016, Note_on_c, 0, 54, 32
2, 13041, Note_on_c, 0, 59, 0
2, 13052, Note_on_c, 0, 63, 0
2, 13082, Note_on_c, 0, 63, 33
2, 13086, Note_on_c, 0, 59, 33
2, 13091, Note_on_c, 0, 57, 28
2, 13140, Note_on_c, 0, 63, 0
2, 13147, Note_on_c, 0, 59, 0
2, 13154, Note_on_c, 0, 57, 0
2, 13155, Note_on_c, 0, 63, 50
2, 13164, Note_on_c, 0, 67, 0
2, 13165, Note_on_c, 0, 54, 0
2, 13167, Note_on_c, 0, 47, 0
2, 13179, Note_on_c, 0, 63, 0
2, 13224, Control_c, 0, 64, 0
2, 13225, Note_on_c, 0, 66, 40
2, 13226, Note_on_c, 0, 59, 52
2, 13229, Note_on_c, 0, 40, 36
2, 13244, Control_c, 0, 64, 127
2, 13245, Note_on_c, 0, 59, 0
2, 13252, Note_on_c, 0, 66, 0
2, 13281, Note_on_c, 0, 47, 50
2, 13282, Note_on_c, 0, 78, 67
2, 13290, Note_on_c, 0, 40, 0
2, 13323, Note_on_c, 0, 78, 0
2, 13342, Note_on_c, 0, 47, 0
2, 13344, Note_on_c, 0, 78, 55
2, 13348, Note_on_c, 0, 71, 48
2, 13350, Note_on_c, 0, 67, 44
2, 13439, Note_on_c, 0, 59, 35
2, 13529, Note_on_c, 0, 67, 0
2, 13531, Note_on_c, 0, 71, 0
2, 13549, Note_on_c, 0, 59, 0
2, 13553, Note_on_c, 0, 67, 34
2, 13633, Note_on_c, 0, 62, 40
2, 13635, Note_on_c, 0, 58, 47
2, 13636, Note_on_c, 0, 54, 31
2, 13637, Note_on_c, 0, 59, 45
2, 13646, Control_c, 0, 64, 0
2, 13683, Control_c, 0, 64, 127
2, 13744, Note_on_c, 0, 62, 0
2, 13745, Note_on_c, 0, 59, 0
2, 13762, Note_on_c, 0, 58, 0
2, 13762, Note_on_c, 0, 54, 0
2, 13840, Note_on_c, 0, 59, 33
2, 13844, Note_on_c, 0, 62, 39
2, 13845, Note_on_c, 0, 53, 30
2, 13848, Control_c, 0, 64, 0
2, 13852, Note_on_c, 0, 67, 0
2, 13876, Control_c, 0, 64, 127
2, 13910, Note_on_c, 0, 78, 0
2, 13923, Note_on_c, 0, 62, 0
2, 13926, Note_on_c, 0, 79, 60
2, 13931, Note_on_c, 0, 59, 0
2, 13936, Note_on_c, 0, 53, 0
2, 13954, Note_on_c, 0, 79, 0
2, 14004, Note_on_c, 0, 81, 67
2, 14004, Control_c, 0, 64, 0
2, 14006, Note_on_c, 0, 42, 53
2, 14028, Control_c, 0, 64, 127
2, 14058, Note_on_c, 0, 52, 27
2, 14059, Note_on_c, 0, 42, 0
2, 14064, Note_on_c, 0, 52, 0
2, 14119, Note_on_c, 0, 61, 38
2, 14165, Note_on_c, 0, 73, 48
2, 14167, Note_on_c, 0, 69, 58
2, 14170, Note_on_c, 0, 64, 40
2, 14176, Note_on_c, 0, 64, 0
2, 14180, Note_on_c, 0, 61, 0
2, 14210, Note_on_c, 0, 69, 0
2, 14220, Note_on_c, 0, 73, 0
2, 14227, Note_on_c, 0, 81, 0
2, 14228, Note_on_c, 0, 74, 50
2, 14229, Note_on_c, 0, 69, 37
2, 14229, Note_on_c, 0, 57, 44
2, 14232, Note_on_c, 0, 47, 43
2, 14237, Control_c, 0, 64, 0
2, 14264, Control_c, 0, 64, 127
2, 14271, Note_on_c, 0, 74, 0
2, 14286, Note_on_c, 0, 69, 0
2, 14288, Note_on_c, 0, 54, 53
2, 14302, Note_on_c, 0, 57, 0
2, 14349, Note_on_c, 0, 66, 52
2, 14350, Note_on_c, 0, 62, 51
2, 14353, Note_on_c, 0, 57, 36
2, 14397, Note_on_c, 0, 62, 0
2, 14398, Note_on_c, 0, 47, 0
2, 14413, Note_on_c, 0, 62, 72
2, 14414, Note_on_c, 0, 47, 42
2, 14421, Note_on_c, 0, 66, 0
2, 14433, Note_on_c, 0, 47, 0
2, 14442, Note_on_c, 0, 57, 0
2, 14445, Note_on_c, 0, 54, 0
2, 14448, Note_on_c, 0, 62, 0
2, 14485, Note_on_c, 0, 74, 71
2, 14490, Note_on_c, 0, 67, 67
2, 14492, Control_c, 0, 64, 0
2, 14492, Note_on_c, 0, 58, 51
2, 14492, Note_on_c, 0, 48, 44
2, 14494, Note_on_c, 0, 63, 35
2, 14514, Control_c, 0, 64, 127
2, 14551, Note_on_c, 0, 58, 0
2, 14554, Note_on_c, 0, 55, 46
2, 14569, Note_on_c, 0, 63, 0
2, 14578, Note_on_c, 0, 67, 0
2, 14612, Note_on_c, 0, 58, 43
2, 14644, Note_on_c, 0, 67, 62
2, 14670, Note_on_c, 0, 74, 0
2, 14672, Note_on_c, 0, 69, 68
2, 14674, Note_on_c, 0, 48, 0
2, 14674, Note_on_c, 0, 55, 0
2, 14676, Note_on_c, 0, 67, 0
2, 14680, Note_on_c, 0, 58, 0
2, 14695, Note_on_c, 0, 69, 0
2, 14696, Note_on_c, 0, 70, 79
2, 14714, Note_on_c, 0, 70, 0
2, 14722, Note_on_c, 0, 72, 74
2, 14745, Note_on_c, 0, 72, 0
2, 14752, Note_on_c, 0, 74, 81
2, 14775, Note_on_c, 0, 74, 0
2, 14784, Note_on_c, 0, 74, 22
2, 14784, Note_on_c, 0, 75, 77
2, 14791, Note_on_c, 0, 74, 0
2, 14811, Note_on_c, 0, 75, 0
2, 14815, Control_c, 0, 64, 0
2, 14818, Note_on_c, 0, 77, 60
2, 14818, Note_on_c, 0, 41, 64
2, 14822, Control_c, 0, 64, 127
2, 14836, Note_on_c, 0, 41, 0
2, 14859, Note_on_c, 0, 79, 60
2, 14867, Note_on_c, 0, 77, 0
2, 14893, Note_on_c, 0, 79, 0
2, 14901, Note_on_c, 0, 62, 47
2, 14904, Note_on_c, 0, 81, 66
2, 14904, Note_on_c, 0, 51, 32
2, 14906, Note_on_c, 0, 57, 37
2, 14940, Note_on_c, 0, 81, 0
2, 14951, Note_on_c, 0, 82, 62
2, 14987, Note_on_c, 0, 82, 0
2, 14997, Note_on_c, 0, 84, 57
2, 15022, Note_on_c, 0, 84, 0
2, 15049, Note_on_c, 0, 86, 60
2, 15050, Note_on_c, 0, 74, 54
2, 15070, Note_on_c, 0, 74, 0
2, 15071, Note_on_c, 0, 86, 0
2, 15109, Note_on_c, 0, 87, 64
2, 15112, Note_on_c, 0, 75, 44
2, 15150, Note_on_c, 0, 87, 0
2, 15154, Note_on_c, 0, 75, 0
2, 15180, Note_on_c, 0, 89, 54
2, 15183, Note_on_c, 0, 77, 40
2, 15200, Note_on_c, 0, 57, 0
2, 15206, Note_on_c, 0, 51, 0
2, 15216, Note_on_c, 0, 62, 0
2, 15436, Note_on_c, 0, 77, 0
2, 15436, Note_on_c, 0, 89, 0
2, 15625, Note_on_c, 0, 73, 68
2, 15627, Note_on_c, 0, 62, 58
2, 15627, Note_on_c, 0, 54, 56
2, 15630, Note_on_c, 0, 58, 47
2, 15631, Note_on_c, 0, 59, 45
2, 15641, Control_c, 0, 64, 0
2, 15763, Control_c, 0, 64, 127
2, 15815, Note_on_c, 0, 71, 61
2, 15823, Note_on_c, 0, 73, 0
2, 15848, Note_on_c, 0, 71, 0
2, 15877, Note_on_c, 0, 74, 95
2, 15878, Note_on_c, 0, 72, 85
2, 15910, Note_on_c, 0, 72, 0
2, 15923, Note_on_c, 0, 74, 0
2, 15938, Note_on_c, 0, 73, 69
2, 16002, Note_on_c, 0, 54, 0
2, 16007, Note_on_c, 0, 67, 60
2, 16011, Note_on_c, 0, 53, 51
2, 16015, Control_c, 0, 64, 0
2, 16032, Note_on_c, 0, 58, 0
2, 16034, Note_on_c, 0, 59, 0
2, 16057, Control_c, 0, 64, 127
2, 16078, Note_on_c, 0, 59, 38
2, 16079, Note_on_c, 0, 62, 0
2, 16167, Note_on_c, 0, 63, 29
2, 16235, Note_on_c, 0, 67, 0
2, 16240, Note_on_c, 0, 73, 0
2, 16247, Note_on_c, 0, 68, 50
2, 16250, Note_on_c, 0, 63, 0
2, 16263, Note_on_c, 0, 53, 0
2, 16264, Note_on_c, 0, 59, 0
2, 16292, Note_on_c, 0, 68, 0
2, 16354, Note_on_c, 0, 42, 44
2, 16355, Note_on_c, 0, 71, 48
2, 16357, Note_on_c, 0, 64, 53
2, 16366, Control_c, 0, 64, 0
2, 16398, Control_c, 0, 64, 127
2, 16405, Note_on_c, 0, 52, 29
2, 16419, Note_on_c, 0, 64, 0
2, 16445, Note_on_c, 0, 71, 0
2, 16450, Note_on_c, 0, 64, 51
2, 16453, Note_on_c, 0, 42, 0
2, 16453, Note_on_c, 0, 59, 42
2, 16488, Note_on_c, 0, 52, 0
2, 16489, Note_on_c, 0, 59, 0
2, 16499, Note_on_c, 0, 69, 56
2, 16511, Note_on_c, 0, 64, 0
2, 16558, Note_on_c, 0, 69, 0
2, 16560, Note_on_c, 0, 60, 46
2, 16563, Note_on_c, 0, 47, 32
2, 16570, Control_c, 0, 64, 0
2, 16620, Control_c, 0, 64, 127
2, 16628, Note_on_c, 0, 51, 32
2, 16652, Note_on_c, 0, 60, 0
2, 16716, Note_on_c, 0, 61, 25
2, 16718, Note_on_c, 0, 69, 32
2, 16719, Note_on_c, 0, 65, 43
2, 16719, Note_on_c, 0, 57, 29
2, 16825, Note_on_c, 0, 65, 0
2, 16829, Note_on_c, 0, 61, 0
2, 16832, Note_on_c, 0, 69, 0
2, 16901, Note_on_c, 0, 47, 0
2, 16903, Note_on_c, 0, 81, 71
2, 16908, Note_on_c, 0, 51, 0
2, 16932, Note_on_c, 0, 57, 0
2, 16938, Note_on_c, 0, 81, 0
2, 17010, Note_on_c, 0, 52, 45
2, 17011, Note_on_c, 0, 81, 64
2, 17011, Note_on_c, 0, 74, 54
2, 17012, Note_on_c, 0, 62, 36
2, 17016, Note_on_c, 0, 69, 29
2, 17018, Control_c, 0, 64, 0
2, 17046, Control_c, 0, 64, 127
2, 17057, Note_on_c, 0, 81, 0
2, 17064, Note_on_c, 0, 69, 0
2, 17064, Note_on_c, 0, 79, 59
2, 17066, Note_on_c, 0, 59, 40
2, 17067, Note_on_c, 0, 62, 0
2, 17094, Note_on_c, 0, 79, 0
2, 17102, Note_on_c, 0, 74, 0
2, 17127, Note_on_c, 0, 82, 71
2, 17129, Note_on_c, 0, 62, 41
2, 17129, Note_on_c, 0, 74, 52
2, 17130, Note_on_c, 0, 70, 50
2, 17191, Note_on_c, 0, 82, 0
2, 17195, Note_on_c, 0, 62, 0
2, 17196, Note_on_c, 0, 52, 0
2, 17199, Note_on_c, 0, 59, 0
2, 17208, Note_on_c, 0, 82, 56
2, 17221, Note_on_c, 0, 74, 0
2, 17230, Note_on_c, 0, 70, 0
2, 17231, Note_on_c, 0, 82, 0
2, 17282, Control_c, 0, 64, 0
2, 17291, Note_on_c, 0, 81, 50
2, 17292, Control_c, 0, 64, 127
2, 17293, Note_on_c, 0, 73, 25
2, 17295, Note_on_c, 0, 33, 53
2, 17296, Note_on_c, 0, 69, 33
2, 17298, Note_on_c, 0, 77, 37
2, 17315, Note_on_c, 0, 33, 0
2, 17376, Note_on_c, 0, 55, 44
2, 17402, Note_on_c, 0, 69, 0
2, 17411, Note_on_c, 0, 73, 0
2, 17425, Note_on_c, 0, 77, 0
2, 17472, Note_on_c, 0, 73, 28
2, 17473, Note_on_c, 0, 69, 37
2, 17475, Note_on_c, 0, 66, 30
2, 17475, Note_on_c, 0, 61, 34
2, 17499, Note_on_c, 0, 81, 0
2, 17564, Note_on_c, 0, 69, 0
2, 17575, Note_on_c, 0, 73, 0
2, 17604, Note_on_c, 0, 75, 82
2, 17606, Note_on_c, 0, 66, 0
2, 17619, Note_on_c, 0, 55, 0
2, 17626, Note_on_c, 0, 61, 0
2, 17636, Note_on_c, 0, 75, 0
2, 17647, Note_on_c, 0, 76, 73
2, 17673, Note_on_c, 0, 76, 0
2, 17719, Note_on_c, 0, 65, 65
2, 17719, Note_on_c, 0, 72, 57
2, 17719, Note_on_c, 0, 79, 54
2, 17726, Note_on_c, 0, 60, 36
2, 17727, Note_on_c, 0, 50, 40
2, 17728, Note_on_c, 0, 57, 29
2, 17730, Control_c, 0, 64, 0
2, 17765, Control_c, 0, 64, 127
2, 17889, Note_on_c, 0, 50, 0
2, 17892, Note_on_c, 0, 57, 0
2, 17903, Note_on_c, 0, 65, 0
2, 17903, Note_on_c, 0, 60, 0
2, 17916, Note_on_c, 0, 79, 0
2, 17916, Note_on_c, 0, 72, 0
2, 18042, Note_on_c, 0, 77, 54
2, 18046, Note_on_c, 0, 72, 52
2, 18047, Note_on_c, 0, 61, 40
2, 18048, Note_on_c, 0, 69, 44
2, 18049, Note_on_c, 0, 55, 45
2, 18051, Control_c, 0, 64, 0
2, 18088, Control_c, 0, 64, 127
2, 18172, Note_on_c, 0, 55, 0
2, 18176, Note_on_c, 0, 72, 0
2, 18179, Note_on_c, 0, 77, 0
2, 18180, Note_on_c, 0, 69, 0
2, 18182, Note_on_c, 0, 61, 0
2, 18326, Note_on_c, 0, 73, 35
2, 18327, Note_on_c, 0, 44, 36
2, 18328, Note_on_c, 0, 65, 48
2, 18329, Note_on_c, 0, 71, 46
2, 18330, Note_on_c, 0, 54, 27
2, 18338, Control_c, 0, 64, 0
2, 18370, Control_c, 0, 64, 127
2, 18407, Note_on_c, 0, 65, 0
2, 18417, Note_on_c, 0, 54, 0
2, 18422, Note_on_c, 0, 44, 0
2, 18423, Note_on_c, 0, 71, 0
2, 18438, Note_on_c, 0, 73, 0
2, 18510, Note_on_c, 0, 68, 36
2, 18510, Note_on_c, 0, 62, 40
2, 18510, Note_on_c, 0, 74, 34
2, 18513, Note_on_c, 0, 71, 32
2, 18515, Note_on_c, 0, 43, 29
2, 18516, Control_c, 0, 64, 0
2, 18517, Note_on_c, 0, 53, 22
2, 18552, Control_c, 0, 64, 127
2, 18571, Note_on_c, 0, 43, 0
2, 18581, Note_on_c, 0, 74, 0
2, 18581, Note_on_c, 0, 53, 0
2, 18582, Note_on_c, 0, 71, 0
2, 18584, Note_on_c, 0, 62, 0
2, 18614, Note_on_c, 0, 68, 0
2, 18647, Note_on_c, 0, 75, 49
2, 18649, Note_on_c, 0, 63, 32
2, 18679, Note_on_c, 0, 63, 0
2, 18687, Note_on_c, 0, 75, 0
2, 18749, Note_on_c, 0, 76, 32
2, 18754, Note_on_c, 0, 36, 34
2, 18756, Note_on_c, 0, 71, 44
2, 18760, Note_on_c, 0, 64, 33
2, 18763, Control_c, 0, 64, 0
2, 18794, Control_c, 0, 64, 127
2, 18799, Note_on_c, 0, 76, 0
2, 18800, Note_on_c, 0, 71, 0
2, 18809, Note_on_c, 0, 43, 39
2, 18812, Note_on_c, 0, 64, 0
2, 18859, Note_on_c, 0, 36, 0
2, 18865, Note_on_c, 0, 43, 0
2, 18866, Note_on_c, 0, 62, 46
2, 18869, Note_on_c, 0, 57, 36
2, 18872, Note_on_c, 0, 52, 40
2, 18880, Note_on_c, 0, 52, 0
2, 18885, Note_on_c, 0, 57, 0
2, 18909, Note_on_c, 0, 62, 0
2, 18927, Note_on_c, 0, 55, 62
2, 18985, Note_on_c, 0, 55, 0
2, 18988, Note_on_c, 0, 79, 70
2, 18991, Note_on_c, 0, 74, 71
2, 18991, Note_on_c, 0, 59, 46
2, 18993, Note_on_c, 0, 69, 66
2, 19036, Note_on_c, 0, 59, 0
2, 19054, Note_on_c, 0, 79, 0
2, 19054, Note_on_c, 0, 74, 0
2, 19056, Note_on_c, 0, 62, 54
2, 19057, Note_on_c, 0, 69, 0
2, 19102, Note_on_c, 0, 62, 0
2, 19124, Note_on_c, 0, 67, 48
2, 19124, Note_on_c, 0, 71, 41
2, 19126, Note_on_c, 0, 62, 25
2, 19132, Note_on_c, 0, 71, 0
2, 19157, Note_on_c, 0, 67, 0
2, 19169, Note_on_c, 0, 62, 0
2, 19191, Note_on_c, 0, 79, 71
2, 19201, Note_on_c, 0, 78, 20
2, 19209, Note_on_c, 0, 78, 0
2, 19214, Note_on_c, 0, 79, 0
2, 19255, Note_on_c, 0, 81, 71
2, 19259, Control_c, 0, 64, 0
2, 19260, Note_on_c, 0, 74, 68
2, 19262, Note_on_c, 0, 48, 62
2, 19265, Note_on_c, 0, 70, 48
2, 19290, Control_c, 0, 64, 127
2, 19318, Note_on_c, 0, 48, 0
2, 19332, Note_on_c, 0, 81, 0
2, 19335, Note_on_c, 0, 74, 0
2, 19336, Note_on_c, 0, 57, 34
2, 19347, Note_on_c, 0, 70, 0
2, 19407, Note_on_c, 0, 74, 42
2, 19409, Note_on_c, 0, 58, 40
2, 19410, Note_on_c, 0, 65, 43
2, 19411, Note_on_c, 0, 69, 41
2, 19489, Note_on_c, 0, 62, 53
2, 19492, Note_on_c, 0, 69, 0
2, 19492, Note_on_c, 0, 65, 0
2, 19576, Note_on_c, 0, 62, 0
2, 19636, Note_on_c, 0, 62, 51
2, 19699, Note_on_c, 0, 62, 0
2, 19715, Note_on_c, 0, 69, 37
2, 19715, Note_on_c, 0, 65, 44
2, 19768, Note_on_c, 0, 65, 0
2, 19778, Note_on_c, 0, 69, 0
2, 19779, Note_on_c, 0, 74, 0
2, 19781, Note_on_c, 0, 62, 36
2, 19798, Note_on_c, 0, 62, 0
2, 19799, Note_on_c, 0, 57, 0
2, 19805, Note_on_c, 0, 58, 0
2, 19837, Note_on_c, 0, 76, 46
2, 19842, Note_on_c, 0, 71, 57
2, 19846, Note_on_c, 0, 48, 37
2, 19847, Note_on_c, 0, 64, 43
2, 19858, Control_c, 0, 64, 0
2, 19888, Control_c, 0, 64, 127
2, 19897, Note_on_c, 0, 55, 51
2, 19905, Note_on_c, 0, 71, 0
2, 19915, Note_on_c, 0, 64, 0
2, 19953, Note_on_c, 0, 71, 53
2, 19955, Note_on_c, 0, 64, 62
2, 19957, Note_on_c, 0, 60, 55
2, 19971, Note_on_c, 0, 55, 0
2, 20004, Note_on_c, 0, 60, 0
2, 20016, Note_on_c, 0, 55, 70
2, 20021, Note_on_c, 0, 71, 0
2, 20021, Note_on_c, 0, 76, 0
2, 20033, Note_on_c, 0, 64, 0
2, 20036, Note_on_c, 0, 55, 0
2, 20045, Note_on_c, 0, 48, 0
2, 20233, Note_on_c, 0, 64, 64
2, 20234, Note_on_c, 0, 67, 50
2, 20235, Note_on_c, 0, 60, 60
2, 20236, Note_on_c, 0, 55, 53
2, 20238, Control_c, 0, 64, 0
2, 20239, Note_on_c, 0, 45, 36
2, 20256, Control_c, 0, 64, 127
2, 20267, Note_on_c, 0, 64, 0
2, 20276, Note_on_c, 0, 60, 0
2, 20277, Note_on_c, 0, 45, 0
2, 20278, Note_on_c, 0, 55, 0
2, 20298, Note_on_c, 0, 67, 0
2, 20306, Note_on_c, 0, 59, 57
2, 20306, Note_on_c, 0, 63, 51
2, 20306, Note_on_c, 0, 66, 48
2, 20309, Note_on_c, 0, 44, 49
2, 20310, Note_on_c, 0, 54, 31
2, 20313, Control_c, 0, 64, 0
2, 20329, Control_c, 0, 64, 127
2, 20332, Note_on_c, 0, 59, 0
2, 20352, Note_on_c, 0, 66, 0
2, 20355, Note_on_c, 0, 54, 0
2, 20358, Note_on_c, 0, 63, 0
2, 20365, Note_on_c, 0, 44, 0
2, 20377, Control_c, 0, 64, 0
2, 20380, Note_on_c, 0, 58, 46
2, 20381, Note_on_c, 0, 62, 55
2, 20383, Note_on_c, 0, 65, 58
2, 20385, Note_on_c, 0, 53, 44
2, 20386, Note_on_c, 0, 43, 38
2, 20400, Control_c, 0, 64, 127
2, 20417, Note_on_c, 0, 62, 0
2, 20418, Note_on_c, 0, 58, 0
2, 20426, Note_on_c, 0, 65, 0
2, 20438, Note_on_c, 0, 53, 0
2, 20442, Note_on_c, 0, 50, 60
2, 20446, Note_on_c, 0, 72, 84
2, 20451, Note_on_c, 0, 43, 0
2, 20460, Note_on_c, 0, 50, 0
2, 20486, Note_on_c, 0, 72, 0
2, 20514, Note_on_c, 0, 72, 58
2, 20515, Note_on_c, 0, 57, 57
2, 20517, Note_on_c, 0, 65, 70
2, 20518, Note_on_c, 0, 62, 66
2, 20518, Note_on_c, 0, 69, 55
2, 20520, Control_c, 0, 64, 0
2, 20533, Control_c, 0, 64, 127
2, 20569, Note_on_c, 0, 72, 0
2, 20591, Note_on_c, 0, 69, 0
2, 20594, Note_on_c, 0, 57, 0
2, 20594, Note_on_c, 0, 72, 79
2, 20602, Note_on_c, 0, 62, 0
2, 20609, Note_on_c, 0, 65, 0
2, 20624, Note_on_c, 0, 72, 0
2, 20644, Control_c, 0, 64, 0
2, 20670, Control_c, 0, 64, 127
2, 20671, Note_on_c, 0, 75, 59
2, 20675, Note_on_c, 0, 68, 57
2, 20675, Note_on_c, 0, 30, 49
2, 20676, Note_on_c, 0, 42, 43
2, 20676, Note_on_c, 0, 72, 56
2, 20678, Note_on_c, 0, 64, 57
2, 20692, Note_on_c, 0, 30, 0
2, 20698, Note_on_c, 0, 42, 0
2, 20742, Note_on_c, 0, 75, 0
2, 20761, Note_on_c, 0, 75, 60
2, 20766, Note_on_c, 0, 58, 48
2, 20778, Note_on_c, 0, 64, 0
2, 20808, Note_on_c, 0, 72, 0
2, 20809, Note_on_c, 0, 68, 0
2, 20824, Note_on_c, 0, 75, 0
2, 20852, Note_on_c, 0, 68, 58
2, 20852, Note_on_c, 0, 73, 37
2, 20854, Note_on_c, 0, 64, 38
2, 20915, Note_on_c, 0, 64, 0
2, 20920, Note_on_c, 0, 58, 0
2, 20946, Note_on_c, 0, 58, 42
2, 21008, Note_on_c, 0, 73, 0
2, 21014, Note_on_c, 0, 68, 0
2, 21035, Note_on_c, 0, 58, 0
2, 21036, Note_on_c, 0, 74, 36
2, 21037, Note_on_c, 0, 63, 33
2, 21040, Note_on_c, 0, 67, 37
2, 21047, Note_on_c, 0, 53, 24
2, 21048, Control_c, 0, 64, 0
2, 21077, Control_c, 0, 64, 127
2, 21091, Note_on_c, 0, 63, 0
2, 21095, Note_on_c, 0, 67, 0
2, 21108, Note_on_c, 0, 60, 27
2, 21162, Note_on_c, 0, 74, 0
2, 21164, Note_on_c, 0, 67, 34
2, 21167, Note_on_c, 0, 63, 25
2, 21227, Note_on_c, 0, 74, 77
2, 21236, Note_on_c, 0, 63, 0
2, 21238, Note_on_c, 0, 67, 0
2, 21254, Note_on_c, 0, 53, 0
2, 21275, Note_on_c, 0, 74, 0
2, 21280, Note_on_c, 0, 60, 0
2, 21291, Note_on_c, 0, 74, 66
2, 21343, Note_on_c, 0, 67, 36
2, 21364, Note_on_c, 0, 67, 0
2, 21397, Note_on_c, 0, 67, 52
2, 21400, Note_on_c, 0, 51, 44
2, 21404, Control_c, 0, 64, 0
2, 21420, Control_c, 0, 64, 127
2, 21432, Note_on_c, 0, 74, 0
2, 21436, Note_on_c, 0, 67, 0
2, 21453, Note_on_c, 0, 72, 67
2, 21456, Note_on_c, 0, 60, 37
2, 21494, Note_on_c, 0, 72, 0
2, 21496, Note_on_c, 0, 60, 0
2, 21505, Note_on_c, 0, 51, 0
2, 21513, Note_on_c, 0, 65, 61
2, 21518, Note_on_c, 0, 50, 40
2, 21521, Control_c, 0, 64, 0
2, 21555, Control_c, 0, 64, 127
2, 21564, Note_on_c, 0, 57, 54
2, 21595, Note_on_c, 0, 65, 0
2, 21615, Note_on_c, 0, 65, 66
2, 21618, Note_on_c, 0, 60, 47
2, 21636, Note_on_c, 0, 50, 0
2, 21651, Note_on_c, 0, 57, 0
2, 21661, Note_on_c, 0, 60, 0
2, 21668, Note_on_c, 0, 72, 68
2, 21687, Note_on_c, 0, 65, 0
2, 21723, Note_on_c, 0, 72, 0
2, 21737, Note_on_c, 0, 39, 35
2, 21739, Note_on_c, 0, 72, 44
2, 21740, Note_on_c, 0, 54, 35
2, 21741, Note_on_c, 0, 66, 50
2, 21742, Note_on_c, 0, 61, 25
2, 21748, Control_c, 0, 64, 0
2, 21775, Control_c, 0, 64, 127
2, 21779, Note_on_c, 0, 39, 0
2, 21785, Note_on_c, 0, 72, 0
2, 21804, Note_on_c, 0, 72, 48
2, 21834, Note_on_c, 0, 54, 0
2, 21838, Note_on_c, 0, 61, 0
2, 21842, Note_on_c, 0, 66, 0
2, 21844, Note_on_c, 0, 72, 0
2, 21878, Note_on_c, 0, 72, 47
2, 21880, Note_on_c, 0, 65, 49
2, 21881, Note_on_c, 0, 60, 36
2, 21882, Note_on_c, 0, 54, 26
2, 21885, Note_on_c, 0, 44, 30
2, 21890, Control_c, 0, 64, 0
2, 21921, Control_c, 0, 64, 127
2, 21935, Note_on_c, 0, 72, 0
2, 21948, Note_on_c, 0, 60, 0
2, 21949, Note_on_c, 0, 70, 60
2, 21964, Note_on_c, 0, 44, 0
2, 21966, Note_on_c, 0, 54, 0
2, 21972, Note_on_c, 0, 65, 0
2, 21978, Note_on_c, 0, 70, 0
2, 22181, Note_on_c, 0, 64, 53
2, 22183, Note_on_c, 0, 57, 53
2, 22184, Note_on_c, 0, 60, 60
2, 22185, Note_on_c, 0, 53, 28
2, 22191, Note_on_c, 0, 50, 30
2, 22195, Control_c, 0, 64, 0
2, 22234, Control_c, 0, 64, 127
2, 22257, Note_on_c, 0, 64, 0
2, 22270, Note_on_c, 0, 64, 61
2, 22322, Note_on_c, 0, 64, 0
2, 22356, Note_on_c, 0, 64, 46
2, 22399, Note_on_c, 0, 50, 0
2, 22410, Note_on_c, 0, 64, 0
2, 22454, Note_on_c, 0, 64, 51
2, 22470, Note_on_c, 0, 57, 0
2, 22472, Note_on_c, 0, 53, 0
2, 22474, Note_on_c, 0, 60, 0
2, 22485, Note_on_c, 0, 64, 0
2, 22597, Note_on_c, 0, 67, 33
2, 22602, Note_on_c, 0, 59, 37
2, 22604, Note_on_c, 0, 63, 29
2, 22604, Note_on_c, 0, 37, 32
2, 22605, Note_on_c, 0, 44, 28
2, 22605, Note_on_c, 0, 53, 22
2, 22608, Control_c, 0, 64, 0
2, 22627, Note_on_c, 0, 63, 0
2, 22673, Control_c, 0, 64, 127
2, 22696, Note_on_c, 0, 67, 0
2, 22712, Note_on_c, 0, 67, 47
2, 22716, Note_on_c, 0, 65, 44
2, 22722, Note_on_c, 0, 65, 0
2, 22772, Note_on_c, 0, 67, 0
2, 22778, Note_on_c, 0, 53, 0
2, 22797, Note_on_c, 0, 67, 41
2, 22812, Note_on_c, 0, 37, 0
2, 22821, Note_on_c, 0, 44, 0
2, 22862, Note_on_c, 0, 67, 0
2, 22878, Note_on_c, 0, 59, 0
2, 22907, Note_on_c, 0, 67, 62
2, 22974, Note_on_c, 0, 66, 25
2, 22977, Note_on_c, 0, 67, 0
2, 22988, Note_on_c, 0, 66, 0
2, 22995, Note_on_c, 0, 65, 38
2, 23019, Note_on_c, 0, 65, 0
2, 23020, Note_on_c, 0, 64, 33
2, 23037, Note_on_c, 0, 64, 0
2, 23038, Note_on_c, 0, 63, 36
2, 23052, Note_on_c, 0, 36, 35
2, 23056, Note_on_c, 0, 63, 0
2, 23056, Note_on_c, 0, 62, 64
2, 23058, Note_on_c, 0, 52, 44
2, 23059, Control_c, 0, 64, 0
2, 23108, Control_c, 0, 64, 127
2, 23130, Note_on_c, 0, 52, 0
2, 23132, Note_on_c, 0, 43, 35
2, 23137, Note_on_c, 0, 74, 44
2, 23141, Note_on_c, 0, 36, 0
2, 23148, Note_on_c, 0, 43, 0
2, 23196, Note_on_c, 0, 74, 0
2, 23219, Note_on_c, 0, 74, 26
2, 23222, Note_on_c, 0, 55, 41
2, 23276, Note_on_c, 0, 62, 0
2, 23323, Note_on_c, 0, 62, 36
2, 23326, Note_on_c, 0, 67, 29
2, 23330, Note_on_c, 0, 59, 31
2, 23413, Note_on_c, 0, 55, 0
2, 23419, Note_on_c, 0, 59, 0
2, 23425, Note_on_c, 0, 62, 0
2, 23428, Note_on_c, 0, 67, 0
2, 23455, Note_on_c, 0, 74, 0
2, 23514, Note_on_c, 0, 75, 53
2, 23519, Note_on_c, 0, 68, 36
2, 23520, Note_on_c, 0, 63, 28
2, 23521, Note_on_c, 0, 65, 38
2, 23524, Note_on_c, 0, 58, 30
2, 23525, Note_on_c, 0, 53, 30
2, 23526, Control_c, 0, 64, 0
2, 23551, Control_c, 0, 64, 127
2, 23579, Note_on_c, 0, 65, 0
2, 23580, Note_on_c, 0, 75, 0
2, 23580, Note_on_c, 0, 72, 53
2, 23584, Note_on_c, 0, 68, 0
2, 23589, Note_on_c, 0, 72, 0
2, 23643, Note_on_c, 0, 77, 47
2, 23693, Note_on_c, 0, 77, 0
2, 23701, Note_on_c, 0, 84, 50
2, 23764, Note_on_c, 0, 80, 45
2, 23768, Note_on_c, 0, 84, 0
2, 23785, Note_on_c, 0, 80, 0
2, 23834, Note_on_c, 0, 91, 50
2, 23934, Note_on_c, 0, 87, 34
2, 23996, Note_on_c, 0, 63, 0
2, 23997, Note_on_c, 0, 53, 0
2, 24001, Note_on_c, 0, 58, 0
2, 24095, Note_on_c, 0, 91, 0
2, 24113, Note_on_c, 0, 87, 0
2, 24142, Note_on_c, 0, 88, 51
2, 24175, Note_on_c, 0, 88, 0
2, 24175, Note_on_c, 0, 89, 67
2, 24200, Note_on_c, 0, 89, 0
2, 24212, Note_on_c, 0, 90, 52
2, 24237, Note_on_c, 0, 90, 0
2, 24245, Note_on_c, 0, 91, 54
2, 24269, Note_on_c, 0, 91, 0
2, 24277, Note_on_c, 0, 36, 45
2, 24280, Control_c, 0, 64, 0
2, 24281, Note_on_c, 0, 88, 45
2, 24282, Note_on_c, 0, 52, 30
2, 24299, Control_c, 0, 64, 127
2, 24304, Note_on_c, 0, 36, 0
2, 24316, Note_on_c, 0, 52, 0
2, 24358, Note_on_c, 0, 88, 0
2, 24371, Note_on_c, 0, 64, 50
2, 24376, Note_on_c, 0, 60, 47
2, 24376, Note_on_c, 0, 59, 34
2, 24408, Note_on_c, 0, 60, 0
2, 24408, Note_on_c, 0, 64, 0
2, 24410, Note_on_c, 0, 59, 0
2, 24493, Note_on_c, 0, 55, 46
2, 24531, Note_on_c, 0, 55, 0
2, 24539, Note_on_c, 0, 48, 35
2, 24616, Note_on_c, 0, 62, 46
2, 24618, Note_on_c, 0, 64, 40
2, 24619, Note_on_c, 0, 59, 33
2, 24678, Note_on_c, 0, 55, 1
2, 24693, Note_on_c, 0, 48, 0
2, 24724, Note_on_c, 0, 64, 0
2, 24734, Note_on_c, 0, 59, 0
2, 24737, Note_on_c, 0, 62, 0
2, 24746, Note_on_c, 0, 48, 37
2, 24762, Note_on_c, 0, 48, 0
2, 24775, Note_on_c, 0, 55, 0
2, 24784, Control_c, 0, 64, 0
2, 24789, Note_on_c, 0, 69, 46
2, 24789, Note_on_c, 0, 62, 46
2, 24791, Note_on_c, 0, 65, 50
2, 24791, Note_on_c, 0, 58, 27
2, 24795, Note_on_c, 0, 48, 43
2, 24801, Note_on_c, 0, 48, 0
2, 24801, Control_c, 0, 64, 127
2, 24817, Note_on_c, 0, 58, 0
2, 24818, Note_on_c, 0, 65, 0
2, 24822, Note_on_c, 0, 62, 0
2, 24845, Note_on_c, 0, 69, 0
2, 24872, Note_on_c, 0, 62, 35
2, 24872, Note_on_c, 0, 57, 34
2, 24873, Note_on_c, 0, 58, 26
2, 24918, Note_on_c, 0, 69, 56
2, 24950, Note_on_c, 0, 70, 72
2, 24951, Note_on_c, 0, 69, 0
2, 24961, Note_on_c, 0, 70, 0
2, 24964, Note_on_c, 0, 62, 0
2, 24966, Note_on_c, 0, 57, 0
2, 24974, Note_on_c, 0, 58, 0
2, 24982, Note_on_c, 0, 74, 82
2, 24998, Note_on_c, 0, 74, 0
2, 25012, Note_on_c, 0, 77, 64
2, 25032, Note_on_c, 0, 77, 0
2, 25040, Control_c, 0, 64, 0
2, 25042, Note_on_c, 0, 84, 81
2, 25043, Control_c, 0, 64, 127
2, 25043, Note_on_c, 0, 48, 62
2, 25044, Note_on_c, 0, 77, 50
2, 25058, Note_on_c, 0, 48, 0
2, 25093, Note_on_c, 0, 77, 0
2, 25098, Note_on_c, 0, 84, 0
2, 25116, Note_on_c, 0, 74, 47
2, 25117, Note_on_c, 0, 81, 44
2, 25118, Note_on_c, 0, 62, 37
2, 25120, Note_on_c, 0, 57, 32
2, 25122, Note_on_c, 0, 58, 27
2, 25172, Note_on_c, 0, 62, 0
2, 25177, Note_on_c, 0, 57, 0
2, 25179, Note_on_c, 0, 58, 0
2, 25203, Note_on_c, 0, 74, 0
2, 25217, Note_on_c, 0, 77, 48
2, 25239, Note_on_c, 0, 81, 0
2, 25251, Note_on_c, 0, 77, 0
2, 25254, Note_on_c, 0, 74, 37
2, 25282, Note_on_c, 0, 74, 0
2, 25294, Control_c, 0, 64, 0
2, 25295, Note_on_c, 0, 76, 39
2, 25300, Note_on_c, 0, 47, 36
2, 25303, Note_on_c, 0, 48, 30
2, 25308, Note_on_c, 0, 47, 0
2, 25323, Control_c, 0, 64, 127
2, 25344, Note_on_c, 0, 48, 0
2, 25384, Note_on_c, 0, 64, 45
2, 25385, Note_on_c, 0, 59, 26
2, 25385, Note_on_c, 0, 60, 40
2, 25436, Note_on_c, 0, 64, 0
2, 25437, Note_on_c, 0, 60, 0
2, 25439, Note_on_c, 0, 59, 0
2, 25495, Note_on_c, 0, 76, 0
2, 25522, Note_on_c, 0, 55, 45
2, 25528, Note_on_c, 0, 55, 0
2, 25572, Note_on_c, 0, 67, 46
2, 25573, Note_on_c, 0, 60, 55
2, 25573, Note_on_c, 0, 55, 36
2, 25575, Note_on_c, 0, 45, 36
2, 25576, Control_c, 0, 64, 0
2, 25577, Note_on_c, 0, 52, 22
2, 25603, Control_c, 0, 64, 127
2, 25633, Note_on_c, 0, 67, 0
2, 25643, Note_on_c, 0, 55, 0
2, 25644, Note_on_c, 0, 52, 0
2, 25644, Note_on_c, 0, 45, 0
2, 25647, Note_on_c, 0, 60, 0
2, 25697, Note_on_c, 0, 66, 33
2, 25698, Note_on_c, 0, 44, 31
2, 25698, Note_on_c, 0, 59, 34
2, 25700, Note_on_c, 0, 54, 25
2, 25708, Control_c, 0, 64, 0
2, 25735, Control_c, 0, 64, 127
2, 25762, Note_on_c, 0, 54, 0
2, 25763, Note_on_c, 0, 59, 0
2, 25767, Note_on_c, 0, 44, 0
2, 25784, Note_on_c, 0, 66, 0
2, 25818, Control_c, 0, 64, 0
2, 25828, Note_on_c, 0, 43, 35
2, 25829, Note_on_c, 0, 65, 41
2, 25830, Note_on_c, 0, 58, 25
2, 25834, Note_on_c, 0, 53, 17
2, 25836, Control_c, 0, 64, 127
2, 25839, Note_on_c, 0, 43, 0
2, 25847, Note_on_c, 0, 58, 0
2, 25849, Note_on_c, 0, 65, 0
2, 25853, Note_on_c, 0, 53, 0
2, 25914, Note_on_c, 0, 84, 78
2, 25955, Control_c, 0, 64, 0
2, 25956, Note_on_c, 0, 84, 0
2, 25956, Note_on_c, 0, 62, 34
2, 25963, Note_on_c, 0, 57, 15
2, 25963, Note_on_c, 0, 58, 18
2, 25972, Control_c, 0, 64, 127
2, 25978, Note_on_c, 0, 62, 0
2, 25985, Note_on_c, 0, 57, 0
2, 25994, Note_on_c, 0, 79, 36
2, 25998, Note_on_c, 0, 58, 0
2, 26014, Note_on_c, 0, 79, 0
2, 26032, Note_on_c, 0, 84, 72
2, 26048, Note_on_c, 0, 84, 0
2, 26075, Note_on_c, 0, 75, 58
2, 26075, Note_on_c, 0, 87, 60
2, 26076, Note_on_c, 0, 63, 43
2, 26078, Note_on_c, 0, 84, 38
2, 26078, Control_c, 0, 64, 0
2, 26079, Note_on_c, 0, 80, 39
2, 26080, Note_on_c, 0, 58, 36
2, 26080, Note_on_c, 0, 52, 39
2, 26099, Control_c, 0, 64, 127
2, 26122, Note_on_c, 0, 84, 0
2, 26125, Note_on_c, 0, 87, 0
2, 26131, Note_on_c, 0, 80, 0
2, 26135, Note_on_c, 0, 75, 0
2, 26147, Note_on_c, 0, 52, 0
2, 26157, Note_on_c, 0, 63, 0
2, 26174, Note_on_c, 0, 58, 0
2, 26283, Note_on_c, 0, 73, 37
2, 26285, Note_on_c, 0, 64, 44
2, 26285, Control_c, 0, 64, 0
2, 26286, Note_on_c, 0, 69, 49
2, 26287, Note_on_c, 0, 58, 34
2, 26288, Note_on_c, 0, 54, 31
2, 26306, Control_c, 0, 64, 127
2, 26313, Note_on_c, 0, 64, 0
2, 26314, Note_on_c, 0, 69, 0
2, 26325, Note_on_c, 0, 54, 0
2, 26325, Note_on_c, 0, 73, 0
2, 26329, Note_on_c, 0, 58, 0
2, 26350, Note_on_c, 0, 74, 47
2, 26352, Note_on_c, 0, 63, 40
2, 26353, Note_on_c, 0, 53, 48
2, 26353, Note_on_c, 0, 60, 40
2, 26353, Note_on_c, 0, 67, 49
2, 26354, Control_c, 0, 64, 0
2, 26356, Note_on_c, 0, 70, 33
2, 26388, Control_c, 0, 64, 127
2, 26425, Note_on_c, 0, 60, 0
2, 26427, Note_on_c, 0, 63, 0
2, 26447, Note_on_c, 0, 67, 0
2, 26454, Note_on_c, 0, 70, 0
2, 26462, Note_on_c, 0, 74, 0
2, 26489, Note_on_c, 0, 70, 35
2, 26490, Note_on_c, 0, 63, 30
2, 26492, Note_on_c, 0, 67, 40
2, 26492, Note_on_c, 0, 60, 26
2, 26537, Note_on_c, 0, 60, 0
2, 26541, Note_on_c, 0, 67, 0
2, 26545, Note_on_c, 0, 63, 0
2, 26549, Note_on_c, 0, 53, 0
2, 26559, Note_on_c, 0, 70, 0
2, 26624, Note_on_c, 0, 74, 68
2, 26628, Note_on_c, 0, 66, 60
2, 26630, Note_on_c, 0, 51, 39
2, 26630, Note_on_c, 0, 69, 50
2, 26631, Note_on_c, 0, 62, 58
2, 26632, Note_on_c, 0, 57, 42
2, 26632, Control_c, 0, 64, 0
2, 26659, Control_c, 0, 64, 127
2, 26702, Note_on_c, 0, 74, 0
2, 26709, Note_on_c, 0, 57, 0
2, 26713, Note_on_c, 0, 62, 0
2, 26721, Note_on_c, 0, 69, 0
2, 26731, Note_on_c, 0, 66, 0
2, 26759, Note_on_c, 0, 72, 59
2, 26765, Note_on_c, 0, 69, 50
2, 26765, Note_on_c, 0, 65, 68
2, 26766, Note_on_c, 0, 61, 52
2, 26767, Note_on_c, 0, 57, 49
2, 26772, Control_c, 0, 64, 0
2, 26789, Control_c, 0, 64, 127
2, 26812, Note_on_c, 0, 57, 0
2, 26819, Note_on_c, 0, 69, 0
2, 26824, Note_on_c, 0, 72, 0
2, 26833, Note_on_c, 0, 61, 0
2, 26835, Note_on_c, 0, 65, 0
2, 26842, Note_on_c, 0, 51, 0
2, 26897, Note_on_c, 0, 64, 40
2, 26899, Note_on_c, 0, 60, 36
2, 26900, Note_on_c, 0, 67, 38
2, 26902, Note_on_c, 0, 50, 31
2, 26903, Note_on_c, 0, 55, 40
2, 26907, Control_c, 0, 64, 0
2, 26940, Control_c, 0, 64, 127
2, 26968, Note_on_c, 0, 67, 0
2, 26972, Note_on_c, 0, 55, 0
2, 26972, Note_on_c, 0, 65, 81
2, 26983, Note_on_c, 0, 64, 0
2, 26995, Note_on_c, 0, 65, 0
2, 27000, Note_on_c, 0, 60, 0
2, 27017, Note_on_c, 0, 50, 0
2, 27036, Note_on_c, 0, 65, 58
2, 27039, Note_on_c, 0, 60, 54
2, 27040, Note_on_c, 0, 57, 41
2, 27041, Note_on_c, 0, 50, 33
2, 27080, Note_on_c, 0, 50, 0
2, 27088, Note_on_c, 0, 57, 0
2, 27107, Note_on_c, 0, 50, 58
2, 27111, Note_on_c, 0, 60, 0
2, 27114, Note_on_c, 0, 50, 0
2, 27145, Note_on_c, 0, 65, 0
2, 27176, Note_on_c, 0, 65, 77
2, 27177, Note_on_c, 0, 39, 71
2, 27177, Note_on_c, 0, 54, 75
2, 27178, Control_c, 0, 64, 0
2, 27178, Note_on_c, 0, 58, 71
2, 27179, Note_on_c, 0, 61, 51
2, 27204, Control_c, 0, 64, 127
2, 27265, Note_on_c, 0, 61, 0
2, 27272, Note_on_c, 0, 54, 0
2, 27276, Note_on_c, 0, 58, 0
2, 27288, Note_on_c, 0, 65, 0
2, 27316, Note_on_c, 0, 39, 0
2, 27324, Note_on_c, 0, 65, 74
2, 27324, Note_on_c, 0, 54, 64
2, 27325, Control_c, 0, 64, 0
2, 27326, Note_on_c, 0, 58, 56
2, 27326, Note_on_c, 0, 44, 49
2, 27332, Note_on_c, 0, 60, 31
2, 27353, Control_c, 0, 64, 127
2, 27354, Note_on_c, 0, 65, 0
2, 27357, Note_on_c, 0, 60, 0
2, 27369, Note_on_c, 0, 63, 58
2, 27383, Note_on_c, 0, 44, 0
2, 27391, Note_on_c, 0, 54, 0
2, 27397, Note_on_c, 0, 58, 0
2, 27399, Note_on_c, 0, 63, 0
2, 27467, Note_on_c, 0, 66, 51
2, 27467, Note_on_c, 0, 69, 67
2, 27468, Note_on_c, 0, 57, 65
2, 27468, Note_on_c, 0, 62, 71
2, 27469, Note_on_c, 0, 40, 55
2, 27470, Note_on_c, 0, 52, 51
2, 27473, Control_c, 0, 64, 0
2, 27520, Control_c, 0, 64, 127
2, 27548, Note_on_c, 0, 52, 0
2, 27557, Note_on_c, 0, 57, 0
2, 27561, Note_on_c, 0, 62, 0
2, 27566, Note_on_c, 0, 66, 0
2, 27595, Note_on_c, 0, 69, 0
2, 27604, Note_on_c, 0, 66, 37
2, 27607, Note_on_c, 0, 62, 50
2, 27608, Note_on_c, 0, 57, 43
2, 27610, Note_on_c, 0, 52, 34
2, 27612, Note_on_c, 0, 69, 17
2, 27647, Note_on_c, 0, 40, 0
2, 27664, Note_on_c, 0, 57, 0
2, 27666, Note_on_c, 0, 52, 0
2, 27672, Note_on_c, 0, 62, 0
2, 27688, Note_on_c, 0, 69, 0
2, 27691, Note_on_c, 0, 66, 0
2, 27743, Note_on_c, 0, 69, 62
2, 27745, Note_on_c, 0, 61, 48
2, 27746, Note_on_c, 0, 65, 59
2, 27748, Note_on_c, 0, 45, 38
2, 27748, Control_c, 0, 64, 0
2, 27748, Note_on_c, 0, 55, 35
2, 27783, Control_c, 0, 64, 127
2, 27811, Note_on_c, 0, 61, 0
2, 27817, Note_on_c, 0, 55, 0
2, 27819, Note_on_c, 0, 65, 0
2, 27843, Note_on_c, 0, 69, 0
2, 27858, Note_on_c, 0, 45, 0
2, 27882, Note_on_c, 0, 61, 53
2, 27885, Note_on_c, 0, 55, 52
2, 27888, Note_on_c, 0, 51, 34
2, 27895, Control_c, 0, 64, 0
2, 27917, Control_c, 0, 64, 127
2, 27942, Note_on_c, 0, 55, 0
2, 27947, Note_on_c, 0, 67, 82
2, 27982, Note_on_c, 0, 61, 0
2, 27985, Note_on_c, 0, 67, 0
2, 28010, Note_on_c, 0, 51, 0
2, 28022, Note_on_c, 0, 67, 60
2, 28025, Note_on_c, 0, 60, 57
2, 28027, Control_c, 0, 64, 0
2, 28027, Note_on_c, 0, 50, 37
2, 28027, Note_on_c, 0, 57, 49
2, 28054, Control_c, 0, 64, 127
2, 28094, Note_on_c, 0, 50, 0
2, 28094, Note_on_c, 0, 67, 0
2, 28096, Note_on_c, 0, 57, 0
2, 28099, Note_on_c, 0, 60, 0
2, 28164, Note_on_c, 0, 65, 62
2, 28165, Note_on_c, 0, 61, 46
2, 28167, Note_on_c, 0, 58, 46
2, 28168, Note_on_c, 0, 55, 37
2, 28169, Note_on_c, 0, 45, 46
2, 28174, Control_c, 0, 64, 0
2, 28206, Control_c, 0, 64, 127
2, 28234, Note_on_c, 0, 45, 0
2, 28243, Note_on_c, 0, 65, 0
2, 28246, Note_on_c, 0, 55, 0
2, 28252, Note_on_c, 0, 61, 0
2, 28255, Note_on_c, 0, 58, 0
2, 28380, Control_c, 0, 64, 0
2, 28380, Note_on_c, 0, 61, 44
2, 28381, Note_on_c, 0, 56, 47
2, 28383, Note_on_c, 0, 59, 56
2, 28384, Note_on_c, 0, 53, 40
2, 28385, Note_on_c, 0, 44, 39
2, 28413, Control_c, 0, 64, 127
2, 28434, Note_on_c, 0, 53, 0
2, 28443, Note_on_c, 0, 59, 0
2, 28446, Note_on_c, 0, 56, 0
2, 28448, Note_on_c, 0, 61, 0
2, 28454, Note_on_c, 0, 44, 0
2, 28463, Note_on_c, 0, 62, 66
2, 28464, Note_on_c, 0, 53, 60
2, 28464, Note_on_c, 0, 43, 46
2, 28464, Note_on_c, 0, 57, 65
2, 28464, Note_on_c, 0, 59, 48
2, 28466, Control_c, 0, 64, 0
2, 28493, Control_c, 0, 64, 127
2, 28498, Note_on_c, 0, 43, 0
2, 28524, Note_on_c, 0, 62, 0
2, 28529, Note_on_c, 0, 53, 0
2, 28536, Note_on_c, 0, 63, 64
2, 28539, Note_on_c, 0, 59, 0
2, 28544, Note_on_c, 0, 57, 0
2, 28562, Note_on_c, 0, 63, 0
2, 28604, Control_c, 0, 64, 0
2, 28605, Note_on_c, 0, 36, 37
2, 28608, Note_on_c, 0, 64, 51
2, 28608, Note_on_c, 0, 43, 29
2, 28610, Note_on_c, 0, 57, 46
2, 28611, Note_on_c, 0, 60, 45
2, 28611, Note_on_c, 0, 55, 39
2, 28612, Note_on_c, 0, 52, 46
2, 28621, Note_on_c, 0, 55, 0
2, 28633, Note_on_c, 0, 57, 0
2, 28633, Control_c, 0, 64, 127
2, 28634, Note_on_c, 0, 60, 0
2, 28648, Note_on_c, 0, 64, 0
2, 28651, Note_on_c, 0, 36, 0
2, 28661, Note_on_c, 0, 43, 0
2, 28670, Note_on_c, 0, 52, 0
2, 28702, Note_on_c, 0, 74, 67
2, 28747, Note_on_c, 0, 74, 0
2, 28750, Note_on_c, 0, 71, 57
2, 28752, Note_on_c, 0, 67, 46
2, 28755, Note_on_c, 0, 62, 35
2, 28755, Control_c, 0, 64, 0
2, 28758, Note_on_c, 0, 64, 32
2, 28776, Control_c, 0, 64, 127
2, 28785, Note_on_c, 0, 67, 0
2, 28786, Note_on_c, 0, 72, 66
2, 28790, Note_on_c, 0, 71, 0
2, 28797, Note_on_c, 0, 72, 0
2, 28824, Note_on_c, 0, 79, 72
2, 28839, Note_on_c, 0, 64, 0
2, 28840, Note_on_c, 0, 79, 0
2, 28857, Note_on_c, 0, 83, 84
2, 28883, Note_on_c, 0, 83, 0
2, 28890, Control_c, 0, 64, 0
2, 28892, Note_on_c, 0, 86, 80
2, 28894, Note_on_c, 0, 67, 42
2, 28894, Note_on_c, 0, 64, 47
2, 28912, Control_c, 0, 64, 127
2, 28920, Note_on_c, 0, 86, 0
2, 28921, Note_on_c, 0, 67, 0
2, 28929, Note_on_c, 0, 84, 68
2, 28952, Note_on_c, 0, 84, 0
2, 28963, Note_on_c, 0, 83, 71
2, 28980, Note_on_c, 0, 83, 0
2, 28996, Note_on_c, 0, 79, 58
2, 29015, Note_on_c, 0, 79, 0
2, 29031, Note_on_c, 0, 55, 34
2, 29032, Note_on_c, 0, 79, 48
2, 29036, Control_c, 0, 64, 0
2, 29044, Control_c, 0, 64, 127
2, 29051, Note_on_c, 0, 79, 0
2, 29074, Note_on_c, 0, 76, 49
2, 29088, Note_on_c, 0, 64, 0
2, 29091, Note_on_c, 0, 76, 0
2, 29100, Note_on_c, 0, 62, 0
2, 29109, Note_on_c, 0, 76, 44
2, 29125, Note_on_c, 0, 76, 0
2, 29145, Note_on_c, 0, 81, 62
2, 29146, Note_on_c, 0, 83, 59
2, 29156, Note_on_c, 0, 83, 0
2, 29162, Note_on_c, 0, 81, 0
2, 29182, Note_on_c, 0, 81, 54
2, 29186, Note_on_c, 0, 62, 42
2, 29187, Note_on_c, 0, 55, 0
2, 29188, Note_on_c, 0, 57, 45
2, 29189, Note_on_c, 0, 58, 37
2, 29190, Control_c, 0, 64, 0
2, 29190, Note_on_c, 0, 74, 45
2, 29191, Note_on_c, 0, 77, 39
2, 29202, Note_on_c, 0, 70, 12
2, 29216, Control_c, 0, 64, 127
2, 29224, Note_on_c, 0, 77, 0
2, 29235, Note_on_c, 0, 74, 0
2, 29239, Note_on_c, 0, 81, 0
2, 29241, Note_on_c, 0, 74, 30
2, 29274, Note_on_c, 0, 57, 0
2, 29277, Note_on_c, 0, 62, 0
2, 29285, Note_on_c, 0, 58, 0
2, 29332, Note_on_c, 0, 48, 45
2, 29344, Note_on_c, 0, 74, 0
2, 29352, Note_on_c, 0, 70, 0
2, 29415, Note_on_c, 0, 65, 37
2, 29433, Note_on_c, 0, 65, 0
2, 29476, Note_on_c, 0, 62, 42
2, 29476, Note_on_c, 0, 58, 31
2, 29480, Note_on_c, 0, 57, 30
2, 29488, Control_c, 0, 64, 0
2, 29519, Control_c, 0, 64, 127
2, 29562, Note_on_c, 0, 58, 0
2, 29574, Note_on_c, 0, 48, 0
2, 29590, Note_on_c, 0, 62, 0
2, 29616, Note_on_c, 0, 48, 34
2, 29618, Note_on_c, 0, 57, 0
2, 29658, Note_on_c, 0, 66, 15
2, 29668, Note_on_c, 0, 66, 0
2, 29670, Note_on_c, 0, 48, 0
2, 29702, Note_on_c, 0, 63, 48
2, 29703, Note_on_c, 0, 66, 43
2, 29704, Note_on_c, 0, 59, 56
2, 29704, Note_on_c, 0, 48, 32
2, 29707, Note_on_c, 0, 61, 38
2, 29735, Note_on_c, 0, 59, 0
2, 29745, Note_on_c, 0, 61, 0
2, 29748, Note_on_c, 0, 66, 0
2, 29751, Note_on_c, 0, 48, 0
2, 29756, Note_on_c, 0, 63, 0
2, 29764, Control_c, 0, 64, 0
2, 29765, Note_on_c, 0, 62, 41
2, 29766, Note_on_c, 0, 67, 48
2, 29768, Note_on_c, 0, 57, 39
2, 29772, Note_on_c, 0, 52, 27
2, 29777, Note_on_c, 0, 48, 22
2, 29792, Note_on_c, 0, 57, 0
2, 29792, Control_c, 0, 64, 127
2, 29800, Note_on_c, 0, 62, 0
2, 29801, Note_on_c, 0, 48, 0
2, 29803, Note_on_c, 0, 52, 0
2, 29804, Note_on_c, 0, 67, 0
2, 29863, Note_on_c, 0, 76, 80
2, 29894, Note_on_c, 0, 76, 0
2, 29909, Control_c, 0, 64, 0
2, 29911, Note_on_c, 0, 64, 28
2, 29913, Note_on_c, 0, 59, 25
2, 29913, Note_on_c, 0, 60, 27
2, 29926, Note_on_c, 0, 60, 0
2, 29928, Note_on_c, 0, 64, 0
2, 29931, Note_on_c, 0, 59, 0
2, 29936, Note_on_c, 0, 73, 37
2, 29942, Control_c, 0, 64, 127
2, 29947, Note_on_c, 0, 73, 0
2, 29948, Note_on_c, 0, 72, 36
2, 29957, Note_on_c, 0, 72, 0
2, 29974, Note_on_c, 0, 76, 56
2, 29998, Note_on_c, 0, 76, 0
2, 30006, Note_on_c, 0, 79, 68
2, 30008, Note_on_c, 0, 52, 40
2, 30020, Note_on_c, 0, 79, 0
2, 30034, Note_on_c, 0, 52, 0
2, 30042, Control_c, 0, 64, 0
2, 30046, Note_on_c, 0, 86, 77
2, 30047, Note_on_c, 0, 83, 69
2, 30047, Note_on_c, 0, 74, 73
2, 30047, Note_on_c, 0, 55, 45
2, 30049, Note_on_c, 0, 45, 40
2, 30069, Control_c, 0, 64, 127
2, 30079, Note_on_c, 0, 83, 0
2, 30100, Note_on_c, 0, 86, 0
2, 30106, Note_on_c, 0, 74, 0
2, 30127, Note_on_c, 0, 45, 0
2, 30129, Note_on_c, 0, 55, 0
2, 30178, Note_on_c, 0, 85, 53
2, 30180, Note_on_c, 0, 54, 45
2, 30182, Note_on_c, 0, 73, 23
2, 30182, Note_on_c, 0, 44, 45
2, 30182, Note_on_c, 0, 80, 37
2, 30185, Control_c, 0, 64, 0
2, 30186, Note_on_c, 0, 82, 29
2, 30207, Control_c, 0, 64, 127
2, 30254, Note_on_c, 0, 85, 0
2, 30259, Note_on_c, 0, 73, 0
2, 30260, Note_on_c, 0, 80, 0
2, 30263, Note_on_c, 0, 54, 0
2, 30274, Note_on_c, 0, 50, 35
2, 30275, Note_on_c, 0, 44, 0
2, 30285, Note_on_c, 0, 82, 0
2, 30306, Note_on_c, 0, 50, 0
2, 30311, Control_c, 0, 64, 0
2, 30321, Note_on_c, 0, 84, 37
2, 30324, Note_on_c, 0, 43, 36
2, 30325, Note_on_c, 0, 77, 32
2, 30325, Note_on_c, 0, 72, 26
2, 30325, Note_on_c, 0, 81, 32
2, 30330, Note_on_c, 0, 53, 19
2, 30331, Control_c, 0, 64, 127
2, 30337, Note_on_c, 0, 43, 0
2, 30350, Note_on_c, 0, 53, 0
2, 30354, Note_on_c, 0, 72, 0
2, 30369, Note_on_c, 0, 77, 0
2, 30376, Note_on_c, 0, 81, 0
2, 30381, Note_on_c, 0, 84, 0
2, 30462, Note_on_c, 0, 62, 44
2, 30465, Note_on_c, 0, 58, 30
2, 30465, Note_on_c, 0, 57, 36
2, 30469, Control_c, 0, 64, 0
2, 30486, Control_c, 0, 64, 127
2, 30500, Note_on_c, 0, 96, 81
2, 30514, Note_on_c, 0, 62, 0
2, 30516, Note_on_c, 0, 94, 60
2, 30517, Note_on_c, 0, 57, 0
2, 30524, Note_on_c, 0, 96, 0
2, 30526, Note_on_c, 0, 92, 57
2, 30531, Note_on_c, 0, 58, 0
2, 30539, Note_on_c, 0, 90, 46
2, 30542, Note_on_c, 0, 94, 0
2, 30547, Note_on_c, 0, 92, 0
2, 30555, Note_on_c, 0, 90, 0
2, 30558, Note_on_c, 0, 88, 38
2, 30565, Note_on_c, 0, 88, 0
2, 30575, Note_on_c, 0, 87, 33
2, 30580, Note_on_c, 0, 87, 0
2, 30584, Note_on_c, 0, 86, 50
2, 30597, Note_on_c, 0, 86, 0
2, 30599, Note_on_c, 0, 85, 57
2, 30602, Control_c, 0, 64, 0
2, 30608, Note_on_c, 0, 63, 32
2, 30610, Note_on_c, 0, 58, 32
2, 30612, Note_on_c, 0, 85, 0
2, 30614, Note_on_c, 0, 52, 31
2, 30615, Note_on_c, 0, 84, 51
2, 30626, Note_on_c, 0, 84, 0
2, 30639, Note_on_c, 0, 82, 53
2, 30652, Note_on_c, 0, 80, 35
2, 30654, Note_on_c, 0, 63, 0
2, 30655, Note_on_c, 0, 52, 0
2, 30660, Note_on_c, 0, 78, 51
2, 30662, Note_on_c, 0, 82, 0
2, 30665, Note_on_c, 0, 58, 0
2, 30667, Note_on_c, 0, 80, 0
2, 30674, Note_on_c, 0, 78, 0
2, 30681, Note_on_c, 0, 76, 28
2, 30687, Note_on_c, 0, 76, 0
2, 30692, Note_on_c, 0, 75, 48
2, 30702, Note_on_c, 0, 75, 0
2, 30711, Note_on_c, 0, 73, 39
2, 30712, Control_c, 0, 64, 127
2, 30729, Note_on_c, 0, 73, 0
2, 30733, Note_on_c, 0, 72, 40
2, 30740, Note_on_c, 0, 72, 0
2, 30749, Note_on_c, 0, 70, 42
2, 30749, Note_on_c, 0, 58, 45
2, 30751, Control_c, 0, 64, 0
2, 30756, Note_on_c, 0, 48, 33
2, 30760, Note_on_c, 0, 68, 38
2, 30773, Note_on_c, 0, 66, 32
2, 30774, Note_on_c, 0, 70, 0
2, 30774, Control_c, 0, 64, 127
2, 30776, Note_on_c, 0, 68, 0
2, 30786, Note_on_c, 0, 58, 0
2, 30789, Note_on_c, 0, 66, 0
2, 30789, Note_on_c, 0, 64, 56
2, 30797, Note_on_c, 0, 48, 0
2, 30801, Note_on_c, 0, 64, 0
2, 30812, Note_on_c, 0, 63, 29
2, 30822, Note_on_c, 0, 62, 60
2, 30823, Note_on_c, 0, 63, 0
2, 30837, Note_on_c, 0, 62, 0
2, 30841, Note_on_c, 0, 61, 34
2, 30850, Note_on_c, 0, 61, 0
2, 30860, Note_on_c, 0, 60, 30
2, 30868, Note_on_c, 0, 60, 0
2, 30877, Note_on_c, 0, 59, 37
2, 30893, Note_on_c, 0, 59, 0
2, 30900, Control_c, 0, 64, 0
2, 30953, Control_c, 0, 64, 127
2, 30953, Note_on_c, 0, 41, 60
2, 30989, Note_on_c, 0, 48, 66
2, 30992, Note_on_c, 0, 41, 0
2, 31003, Note_on_c, 0, 48, 0
2, 31033, Note_on_c, 0, 74, 78
2, 31034, Note_on_c, 0, 67, 81
2, 31035, Note_on_c, 0, 62, 88
2, 31035, Note_on_c, 0, 70, 64
2, 31035, Note_on_c, 0, 63, 70
2, 31096, Note_on_c, 0, 74, 0
2, 31100, Note_on_c, 0, 67, 0
2, 31101, Note_on_c, 0, 63, 0
2, 31104, Note_on_c, 0, 62, 0
2, 31105, Note_on_c, 0, 70, 0
2, 31120, Note_on_c, 0, 67, 60
2, 31120, Note_on_c, 0, 74, 71
2, 31120, Note_on_c, 0, 70, 56
2, 31121, Note_on_c, 0, 63, 65
2, 31121, Note_on_c, 0, 60, 63
2, 31127, Note_on_c, 0, 60, 0
2, 31140, Note_on_c, 0, 67, 0
2, 31142, Note_on_c, 0, 63, 0
2, 31148, Note_on_c, 0, 74, 0
2, 31155, Note_on_c, 0, 70, 0
2, 31184, Note_on_c, 0, 74, 65
2, 31185, Note_on_c, 0, 66, 65
2, 31186, Control_c, 0, 64, 0
2, 31187, Note_on_c, 0, 62, 64
2, 31188, Note_on_c, 0, 69, 61
2, 31188, Note_on_c, 0, 51, 45
2, 31190, Note_on_c, 0, 57, 48
2, 31216, Control_c, 0, 64, 127
2, 31257, Note_on_c, 0, 57, 0
2, 31280, Note_on_c, 0, 72, 1
2, 31289, Note_on_c, 0, 62, 0
2, 31291, Note_on_c, 0, 66, 0
2, 31302, Note_on_c, 0, 69, 0
2, 31305, Note_on_c, 0, 74, 0
2, 31307, Note_on_c, 0, 72, 0
2, 31329, Note_on_c, 0, 66, 49
2, 31334, Note_on_c, 0, 57, 37
2, 31335, Note_on_c, 0, 62, 36
2, 31368, Note_on_c, 0, 62, 0
2, 31378, Note_on_c, 0, 72, 77
2, 31416, Note_on_c, 0, 66, 0
2, 31417, Note_on_c, 0, 51, 0
2, 31423, Note_on_c, 0, 69, 73
2, 31425, Note_on_c, 0, 72, 0
2, 31458, Note_on_c, 0, 57, 0
2, 31464, Note_on_c, 0, 69, 0
2, 31472, Control_c, 0, 64, 0
2, 31472, Note_on_c, 0, 65, 66
2, 31476, Note_on_c, 0, 50, 44
2, 31499, Control_c, 0, 64, 127
2, 31509, Note_on_c, 0, 65, 0
2, 31518, Note_on_c, 0, 57, 52
2, 31563, Note_on_c, 0, 65, 54
2, 31564, Note_on_c, 0, 69, 61
2, 31568, Note_on_c, 0, 60, 39
2, 31604, Note_on_c, 0, 65, 0
2, 31612, Note_on_c, 0, 77, 74
2, 31615, Note_on_c, 0, 65, 19
2, 31631, Note_on_c, 0, 60, 0
2, 31634, Note_on_c, 0, 57, 0
2, 31641, Note_on_c, 0, 50, 0
2, 31644, Note_on_c, 0, 77, 0
2, 31652, Note_on_c, 0, 65, 0
2, 31656, Note_on_c, 0, 69, 0
2, 31660, Note_on_c, 0, 77, 59
2, 31678, Note_on_c, 0, 77, 0
2, 31758, Note_on_c, 0, 39, 50
2, 31770, Control_c, 0, 64, 0
2, 31779, Note_on_c, 0, 48, 19
2, 31789, Note_on_c, 0, 48, 0
2, 31792, Note_on_c, 0, 49, 35
2, 31794, Control_c, 0, 64, 127
2, 31806, Note_on_c, 0, 49, 0
2, 31806, Note_on_c, 0, 51, 44
2, 31811, Note_on_c, 0, 51, 0
2, 31818, Control_c, 0, 64, 0
2, 31822, Note_on_c, 0, 39, 0
2, 31822, Note_on_c, 0, 53, 52
2, 31831, Note_on_c, 0, 53, 0
2, 31838, Note_on_c, 0, 54, 30
2, 31849, Note_on_c, 0, 54, 0
2, 31850, Note_on_c, 0, 56, 28
2, 31859, Note_on_c, 0, 56, 0
2, 31859, Note_on_c, 0, 58, 49
2, 31866, Note_on_c, 0, 58, 0
2, 31875, Note_on_c, 0, 60, 57
2, 31885, Note_on_c, 0, 60, 0
2, 31890, Note_on_c, 0, 61, 46
2, 31890, Note_on_c, 0, 54, 37
2, 31895, Note_on_c, 0, 44, 29
2, 31902, Note_on_c, 0, 61, 0
2, 31903, Note_on_c, 0, 63, 51
2, 31909, Note_on_c, 0, 63, 0
2, 31921, Note_on_c, 0, 65, 58
2, 31932, Note_on_c, 0, 65, 0
2, 31938, Note_on_c, 0, 66, 30
2, 31946, Note_on_c, 0, 66, 0
2, 31948, Note_on_c, 0, 68, 40
2, 31962, Note_on_c, 0, 68, 0
2, 31976, Note_on_c, 0, 72, 53
2, 31982, Note_on_c, 0, 44, 0
2, 31987, Note_on_c, 0, 72, 0
2, 31992, Note_on_c, 0, 54, 0
2, 31995, Note_on_c, 0, 73, 23
2, 32002, Note_on_c, 0, 75, 49
2, 32003, Note_on_c, 0, 73, 0
2, 32017, Control_c, 0, 64, 127
2, 32023, Note_on_c, 0, 75, 0
2, 32024, Note_on_c, 0, 76, 40
2, 32035, Note_on_c, 0, 76, 0
2, 32038, Control_c, 0, 64, 0
2, 32038, Note_on_c, 0, 79, 68
2, 32055, Note_on_c, 0, 79, 0
2, 32063, Note_on_c, 0, 77, 61
2, 32082, Note_on_c, 0, 77, 0
2, 32100, Note_on_c, 0, 76, 65
2, 32114, Note_on_c, 0, 76, 0
2, 32134, Note_on_c, 0, 73, 51
2, 32157, Control_c, 0, 64, 127
2, 32163, Note_on_c, 0, 73, 0
2, 32168, Note_on_c, 0, 76, 53
2, 32189, Note_on_c, 0, 76, 0
2, 32197, Control_c, 0, 64, 0
2, 32202, Note_on_c, 0, 74, 64
2, 32205, Note_on_c, 0, 60, 34
2, 32205, Note_on_c, 0, 50, 36
2, 32207, Note_on_c, 0, 57, 30
2, 32221, Control_c, 0, 64, 127
2, 32235, Note_on_c, 0, 74, 0
2, 32243, Note_on_c, 0, 67, 47
2, 32261, Note_on_c, 0, 67, 0
2, 32283, Note_on_c, 0, 71, 54
2, 32303, Note_on_c, 0, 60, 0
2, 32308, Note_on_c, 0, 71, 0
2, 32312, Note_on_c, 0, 57, 0
2, 32315, Note_on_c, 0, 50, 0
2, 32320, Note_on_c, 0, 72, 63
2, 32348, Note_on_c, 0, 72, 0
2, 32364, Note_on_c, 0, 49, 44
2, 32364, Note_on_c, 0, 72, 58
2, 32365, Note_on_c, 0, 59, 45
2, 32368, Control_c, 0, 64, 0
2, 32390, Note_on_c, 0, 72, 0
2, 32394, Control_c, 0, 64, 127
2, 32406, Note_on_c, 0, 59, 0
2, 32461, Note_on_c, 0, 67, 59
2, 32464, Note_on_c, 0, 63, 46
2, 32465, Note_on_c, 0, 59, 35
2, 32467, Note_on_c, 0, 58, 29
2, 32467, Note_on_c, 0, 53, 34
2, 32498, Note_on_c, 0, 59, 0
2, 32501, Note_on_c, 0, 53, 0
2, 32503, Note_on_c, 0, 67, 0
2, 32508, Note_on_c, 0, 58, 0
2, 32509, Note_on_c, 0, 63, 0
2, 32522, Note_on_c, 0, 67, 43
2, 32524, Note_on_c, 0, 58, 42
2, 32524, Note_on_c, 0, 59, 38
2, 32525, Note_on_c, 0, 63, 39
2, 32526, Note_on_c, 0, 53, 36
2, 32542, Note_on_c, 0, 59, 0
2, 32553, Note_on_c, 0, 53, 0
2, 32568, Note_on_c, 0, 49, 0
2, 32613, Note_on_c, 0, 58, 0
2, 32622, Note_on_c, 0, 49, 35
2, 32644, Note_on_c, 0, 63, 0
2, 32648, Note_on_c, 0, 49, 0
2, 32659, Note_on_c, 0, 67, 0
2, 32675, Control_c, 0, 64, 0
2, 32676, Note_on_c, 0, 62, 47
2, 32679, Note_on_c, 0, 57, 41
2, 32679, Note_on_c, 0, 48, 35
2, 32683, Note_on_c, 0, 55, 34
2, 32697, Note_on_c, 0, 57, 0
2, 32699, Control_c, 0, 64, 127
2, 32705, Note_on_c, 0, 62, 0
2, 32771, Note_on_c, 0, 74, 67
2, 32772, Note_on_c, 0, 67, 68
2, 32774, Note_on_c, 0, 59, 52
2, 32774, Note_on_c, 0, 64, 67
2, 32809, Note_on_c, 0, 59, 0
2, 32813, Note_on_c, 0, 74, 0
2, 32815, Note_on_c, 0, 64, 0
2, 32818, Note_on_c, 0, 67, 0
2, 32828, Note_on_c, 0, 74, 56
2, 32830, Note_on_c, 0, 59, 43
2, 32831, Note_on_c, 0, 67, 51
2, 32831, Note_on_c, 0, 64, 51
2, 32877, Note_on_c, 0, 59, 0
2, 32889, Note_on_c, 0, 64, 0
2, 32897, Note_on_c, 0, 67, 0
2, 32912, Note_on_c, 0, 74, 0
2, 32924, Note_on_c, 0, 55, 0
2, 32924, Note_on_c, 0, 64, 68
2, 32924, Note_on_c, 0, 72, 63
2, 32926, Note_on_c, 0, 67, 59
2, 32927, Note_on_c, 0, 57, 50
2, 32938, Note_on_c, 0, 57, 0
2, 32941, Note_on_c, 0, 64, 0
2, 32947, Note_on_c, 0, 48, 0
2, 32952, Note_on_c, 0, 67, 0
2, 32964, Note_on_c, 0, 72, 0
2, 32982, Note_on_c, 0, 67, 58
2, 32983, Control_c, 0, 64, 0
2, 32984, Note_on_c, 0, 60, 65
2, 32984, Note_on_c, 0, 45, 55
2, 32984, Note_on_c, 0, 55, 55
2, 33005, Control_c, 0, 64, 127
2, 33034, Note_on_c, 0, 67, 0
2, 33051, Note_on_c, 0, 60, 0
2, 33053, Note_on_c, 0, 45, 0
2, 33058, Note_on_c, 0, 55, 0
2, 33082, Note_on_c, 0, 66, 62
2, 33084, Note_on_c, 0, 54, 46
2, 33084, Note_on_c, 0, 44, 50
2, 33085, Note_on_c, 0, 59, 44
2, 33115, Control_c, 0, 64, 0
2, 33132, Control_c, 0, 64, 127
2, 33135, Note_on_c, 0, 59, 0
2, 33147, Note_on_c, 0, 66, 0
2, 33152, Note_on_c, 0, 54, 0
2, 33154, Note_on_c, 0, 44, 0
2, 33178, Note_on_c, 0, 65, 63
2, 33178, Note_on_c, 0, 58, 53
2, 33179, Note_on_c, 0, 43, 44
2, 33179, Note_on_c, 0, 53, 41
2, 33211, Note_on_c, 0, 65, 0
2, 33216, Note_on_c, 0, 53, 0
2, 33216, Note_on_c, 0, 43, 0
2, 33222, Note_on_c, 0, 58, 0
2, 33260, Control_c, 0, 64, 0
2, 33268, Note_on_c, 0, 64, 55
2, 33272, Note_on_c, 0, 57, 19
2, 33275, Note_on_c, 0, 52, 18
2, 33280, Note_on_c, 0, 42, 12
2, 33286, Control_c, 0, 64, 127
2, 33302, Note_on_c, 0, 57, 0
2, 33316, Note_on_c, 0, 64, 0
2, 33317, Note_on_c, 0, 42, 0
2, 33327, Note_on_c, 0, 52, 0
2, 33364, Note_on_c, 0, 71, 64
2, 33365, Note_on_c, 0, 64, 66
2, 33387, Note_on_c, 0, 64, 0
2, 33390, Note_on_c, 0, 71, 0
2, 33415, Note_on_c, 0, 71, 64
2, 33416, Note_on_c, 0, 64, 60
2, 33416, Note_on_c, 0, 60, 44
2, 33418, Note_on_c, 0, 54, 32
2, 33419, Control_c, 0, 64, 0
2, 33431, Control_c, 0, 64, 127
2, 33434, Note_on_c, 0, 60, 0
2, 33444, Note_on_c, 0, 71, 0
2, 33445, Note_on_c, 0, 54, 0
2, 33459, Note_on_c, 0, 69, 34
2, 33468, Note_on_c, 0, 64, 0
2, 33480, Note_on_c, 0, 69, 0
2, 33505, Note_on_c, 0, 71, 47
2, 33506, Note_on_c, 0, 62, 38
2, 33506, Note_on_c, 0, 67, 45
2, 33543, Control_c, 0, 64, 0
2, 33547, Note_on_c, 0, 62, 0
2, 33553, Note_on_c, 0, 51, 30
2, 33554, Note_on_c, 0, 57, 33
2, 33556, Note_on_c, 0, 47, 33
2, 33563, Note_on_c, 0, 67, 0
2, 33565, Control_c, 0, 64, 127
2, 33570, Note_on_c, 0, 71, 0
2, 33612, Note_on_c, 0, 74, 48
2, 33616, Note_on_c, 0, 57, 0
2, 33627, Note_on_c, 0, 74, 0
2, 33643, Note_on_c, 0, 51, 0
2, 33656, Note_on_c, 0, 79, 81
2, 33675, Note_on_c, 0, 79, 0
2, 33702, Note_on_c, 0, 86, 89
2, 33702, Note_on_c, 0, 51, 46
2, 33703, Note_on_c, 0, 47, 0
2, 33703, Control_c, 0, 64, 0
2, 33706, Note_on_c, 0, 57, 32
2, 33712, Note_on_c, 0, 57, 0
2, 33716, Note_on_c, 0, 51, 0
2, 33723, Control_c, 0, 64, 127
2, 33733, Note_on_c, 0, 86, 0
2, 33746, Note_on_c, 0, 90, 74
2, 33772, Note_on_c, 0, 90, 0
2, 33790, Note_on_c, 0, 91, 90
2, 33793, Note_on_c, 0, 87, 80
2, 33804, Note_on_c, 0, 87, 0
2, 33822, Note_on_c, 0, 91, 0
2, 33833, Note_on_c, 0, 40, 39
2, 33835, Note_on_c, 0, 47, 24
2, 33837, Control_c, 0, 64, 0
2, 33839, Note_on_c, 0, 93, 76
2, 33840, Note_on_c, 0, 86, 58
2, 33841, Note_on_c, 0, 81, 54
2, 33841, Note_on_c, 0, 90, 36
2, 33841, Note_on_c, 0, 55, 60
2, 33846, Note_on_c, 0, 55, 0
2, 33867, Control_c, 0, 64, 127
2, 33873, Note_on_c, 0, 90, 0
2, 33876, Note_on_c, 0, 40, 0
2, 33880, Note_on_c, 0, 47, 0
2, 33880, Note_on_c, 0, 55, 1
2, 33882, Note_on_c, 0, 86, 0
2, 33884, Note_on_c, 0, 93, 0
2, 33888, Note_on_c, 0, 81, 0
2, 33889, Note_on_c, 0, 91, 51
2, 33891, Note_on_c, 0, 55, 0
2, 33915, Note_on_c, 0, 91, 0
2, 33933, Note_on_c, 0, 93, 61
2, 33934, Note_on_c, 0, 86, 42
2, 33935, Note_on_c, 0, 90, 30
2, 33936, Note_on_c, 0, 81, 31
2, 33980, Note_on_c, 0, 62, 44
2, 33984, Control_c, 0, 64, 0
2, 33985, Note_on_c, 0, 93, 0
2, 33985, Note_on_c, 0, 59, 30
2, 33985, Note_on_c, 0, 52, 33
2, 33986, Note_on_c, 0, 55, 36
2, 33988, Note_on_c, 0, 86, 0
2, 33994, Note_on_c, 0, 90, 0
2, 34000, Control_c, 0, 64, 127
2, 34009, Note_on_c, 0, 81, 0
2, 34043, Note_on_c, 0, 55, 0
2, 34044, Note_on_c, 0, 52, 0
2, 34049, Note_on_c, 0, 59, 0
2, 34058, Note_on_c, 0, 62, 0
2, 34132, Note_on_c, 0, 54, 78
2, 34133, Note_on_c, 0, 58, 69
2, 34133, Note_on_c, 0, 59, 80
2, 34134, Note_on_c, 0, 62, 85
2, 34138, Control_c, 0, 64, 0
2, 34170, Control_c, 0, 64, 127
2, 34226, Note_on_c, 0, 62, 0
2, 34233, Note_on_c, 0, 59, 0
2, 34249, Note_on_c, 0, 58, 0
2, 34254, Note_on_c, 0, 54, 0
2, 34290, Note_on_c, 0, 63, 52
2, 34291, Control_c, 0, 64, 0
2, 34291, Note_on_c, 0, 59, 54
2, 34296, Note_on_c, 0, 53, 51
2, 34318, Control_c, 0, 64, 127
2, 34365, Note_on_c, 0, 59, 0
2, 34365, Note_on_c, 0, 63, 0
2, 34368, Note_on_c, 0, 53, 0
2, 34386, Note_on_c, 0, 79, 53
2, 34388, Note_on_c, 0, 67, 44
2, 34402, Note_on_c, 0, 67, 0
2, 34409, Note_on_c, 0, 79, 0
2, 34439, Note_on_c, 0, 81, 60
2, 34440, Note_on_c, 0, 76, 36
2, 34441, Note_on_c, 0, 42, 52
2, 34441, Control_c, 0, 64, 0
2, 34442, Note_on_c, 0, 69, 38
2, 34443, Note_on_c, 0, 73, 25
2, 34443, Note_on_c, 0, 52, 39
2, 34474, Control_c, 0, 64, 127
2, 34495, Note_on_c, 0, 42, 0
2, 34500, Note_on_c, 0, 52, 0
2, 34546, Note_on_c, 0, 69, 0
2, 34552, Note_on_c, 0, 73, 0
2, 34588, Note_on_c, 0, 73, 28
2, 34590, Note_on_c, 0, 64, 30
2, 34591, Note_on_c, 0, 69, 46
2, 34593, Note_on_c, 0, 60, 34
2, 34618, Note_on_c, 0, 81, 0
2, 34622, Note_on_c, 0, 64, 0
2, 34625, Note_on_c, 0, 60, 0
2, 34628, Note_on_c, 0, 76, 0
2, 34633, Note_on_c, 0, 73, 0
2, 34635, Note_on_c, 0, 69, 0
2, 34688, Note_on_c, 0, 67, 64
2, 34724, Note_on_c, 0, 67, 0
2, 34745, Note_on_c, 0, 66, 50
2, 34746, Note_on_c, 0, 47, 38
2, 34747, Note_on_c, 0, 57, 39
2, 34753, Control_c, 0, 64, 0
2, 34786, Control_c, 0, 64, 127
2, 34796, Note_on_c, 0, 62, 66
2, 34805, Note_on_c, 0, 66, 0
2, 34826, Note_on_c, 0, 62, 0
2, 34826, Note_on_c, 0, 57, 0
2, 34844, Note_on_c, 0, 74, 88
2, 34845, Note_on_c, 0, 62, 64
2, 34847, Note_on_c, 0, 64, 62
2, 34852, Note_on_c, 0, 64, 0
2, 34884, Note_on_c, 0, 74, 0
2, 34896, Note_on_c, 0, 57, 60
2, 34897, Note_on_c, 0, 74, 66
2, 34899, Control_c, 0, 64, 0
2, 34916, Control_c, 0, 64, 127
2, 34948, Note_on_c, 0, 47, 0
2, 34951, Note_on_c, 0, 72, 72
2, 34976, Note_on_c, 0, 74, 0
2, 34980, Note_on_c, 0, 62, 0
2, 34993, Note_on_c, 0, 57, 0
2, 34998, Note_on_c, 0, 67, 71
2, 35034, Note_on_c, 0, 67, 0
2, 35041, Note_on_c, 0, 72, 0
2, 35052, Note_on_c, 0, 67, 46
2, 35052, Note_on_c, 0, 58, 50
2, 35052, Note_on_c, 0, 72, 62
2, 35056, Note_on_c, 0, 48, 33
2, 35058, Control_c, 0, 64, 0
2, 35063, Note_on_c, 0, 63, 11
2, 35087, Note_on_c, 0, 63, 0
2, 35096, Control_c, 0, 64, 127
2, 35104, Note_on_c, 0, 63, 37
2, 35106, Note_on_c, 0, 67, 0
2, 35116, Note_on_c, 0, 55, 22
2, 35117, Note_on_c, 0, 72, 0
2, 35118, Note_on_c, 0, 58, 0
2, 35126, Note_on_c, 0, 63, 0
2, 35154, Note_on_c, 0, 62, 37
2, 35156, Note_on_c, 0, 65, 45
2, 35205, Note_on_c, 0, 58, 33
2, 35226, Note_on_c, 0, 65, 0
2, 35228, Note_on_c, 0, 62, 0
2, 35231, Note_on_c, 0, 55, 0
2, 35242, Note_on_c, 0, 58, 0
2, 35245, Note_on_c, 0, 48, 0
2, 35253, Note_on_c, 0, 60, 42
2, 35253, Note_on_c, 0, 63, 33
2, 35296, Note_on_c, 0, 60, 0
2, 35301, Note_on_c, 0, 48, 34
2, 35341, Note_on_c, 0, 63, 0
2, 35353, Note_on_c, 0, 48, 0
2, 35356, Note_on_c, 0, 62, 44
2, 35357, Note_on_c, 0, 57, 36
2, 35358, Note_on_c, 0, 51, 37
2, 35359, Control_c, 0, 64, 0
2, 35362, Note_on_c, 0, 41, 32
2, 35380, Note_on_c, 0, 62, 0
2, 35400, Note_on_c, 0, 61, 37
2, 35416, Control_c, 0, 64, 127
2, 35425, Control_c, 0, 64, 0
2, 35427, Note_on_c, 0, 57, 0
2, 35438, Note_on_c, 0, 61, 0
2, 35446, Note_on_c, 0, 57, 20
2, 35448, Note_on_c, 0, 60, 35
2, 35456, Control_c, 0, 64, 127
2, 35486, Note_on_c, 0, 51, 0
2, 35497, Note_on_c, 0, 57, 0
2, 35508, Note_on_c, 0, 51, 37
2, 35537, Note_on_c, 0, 41, 0
2, 35555, Note_on_c, 0, 51, 0
2, 35561, Note_on_c, 0, 60, 0
2, 35661, Note_on_c, 0, 62, 55
2, 35663, Note_on_c, 0, 58, 35
2, 35665, Note_on_c, 0, 54, 36
2, 35666, Note_on_c, 0, 59, 42
2, 35667, Control_c, 0, 64, 0
2, 35701, Control_c, 0, 64, 127
2, 35763, Note_on_c, 0, 59, 0
2, 35767, Note_on_c, 0, 62, 0
2, 35768, Note_on_c, 0, 58, 0
2, 35817, Note_on_c, 0, 62, 58
2, 35818, Note_on_c, 0, 58, 36
2, 35821, Note_on_c, 0, 59, 44
2, 35858, Note_on_c, 0, 73, 81
2, 35888, Note_on_c, 0, 73, 0
2, 35898, Note_on_c, 0, 71, 88
2, 35917, Note_on_c, 0, 71, 0
2, 35936, Note_on_c, 0, 74, 103
2, 35950, Note_on_c, 0, 62, 0
2, 35964, Note_on_c, 0, 74, 0
2, 35965, Note_on_c, 0, 54, 0
2, 35968, Note_on_c, 0, 58, 0
2, 35978, Note_on_c, 0, 53, 51
2, 35980, Note_on_c, 0, 74, 84
2, 35981, Note_on_c, 0, 62, 58
2, 35985, Control_c, 0, 64, 0
2, 36016, Control_c, 0, 64, 127
2, 36037, Note_on_c, 0, 73, 63
2, 36081, Note_on_c, 0, 62, 0
2, 36087, Note_on_c, 0, 67, 57
2, 36106, Note_on_c, 0, 53, 0
2, 36123, Note_on_c, 0, 67, 0
2, 36140, Note_on_c, 0, 67, 49
2, 36141, Note_on_c, 0, 63, 37
2, 36144, Note_on_c, 0, 53, 40
2, 36150, Control_c, 0, 64, 0
2, 36165, Note_on_c, 0, 74, 0
2, 36171, Control_c, 0, 64, 127
2, 36180, Note_on_c, 0, 73, 0
2, 36219, Note_on_c, 0, 63, 0
2, 36231, Note_on_c, 0, 53, 0
2, 36237, Note_on_c, 0, 59, 0
2, 36240, Note_on_c, 0, 68, 62
2, 36254, Note_on_c, 0, 67, 0
2, 36269, Note_on_c, 0, 69, 73
2, 36270, Note_on_c, 0, 68, 0
2, 36288, Note_on_c, 0, 70, 75
2, 36298, Note_on_c, 0, 69, 0
2, 36308, Control_c, 0, 64, 0
2, 36309, Note_on_c, 0, 54, 44
2, 36309, Note_on_c, 0, 64, 44
2, 36310, Note_on_c, 0, 60, 49
2, 36312, Note_on_c, 0, 70, 0
2, 36314, Note_on_c, 0, 71, 67
2, 36335, Control_c, 0, 64, 127
2, 36339, Note_on_c, 0, 72, 58
2, 36345, Note_on_c, 0, 72, 0
2, 36351, Note_on_c, 0, 64, 0
2, 36360, Note_on_c, 0, 60, 0
2, 36372, Note_on_c, 0, 54, 0
2, 36460, Note_on_c, 0, 64, 50
2, 36462, Note_on_c, 0, 59, 43
2, 36467, Note_on_c, 0, 42, 38
2, 36470, Note_on_c, 0, 52, 24
2, 36483, Note_on_c, 0, 71, 0
2, 36504, Note_on_c, 0, 42, 0
2, 36511, Note_on_c, 0, 52, 0
2, 36546, Note_on_c, 0, 59, 0
2, 36554, Note_on_c, 0, 69, 58
2, 36563, Note_on_c, 0, 64, 0
2, 36572, Note_on_c, 0, 69, 0
2, 36626, Note_on_c, 0, 72, 61
2, 36630, Note_on_c, 0, 51, 37
2, 36631, Note_on_c, 0, 69, 57
2, 36632, Note_on_c, 0, 47, 42
2, 36632, Note_on_c, 0, 57, 49
2, 36634, Note_on_c, 0, 65, 67
2, 36635, Control_c, 0, 64, 0
2, 36641, Note_on_c, 0, 60, 31
2, 36683, Control_c, 0, 64, 127
2, 36717, Note_on_c, 0, 57, 0
2, 36725, Note_on_c, 0, 51, 0
2, 36728, Note_on_c, 0, 65, 0
2, 36729, Note_on_c, 0, 60, 0
2, 36745, Note_on_c, 0, 69, 0
2, 36794, Note_on_c, 0, 65, 51
2, 36795, Note_on_c, 0, 60, 45
2, 36796, Note_on_c, 0, 51, 38
2, 36799, Note_on_c, 0, 57, 30
2, 36822, Note_on_c, 0, 57, 0
2, 36828, Note_on_c, 0, 51, 0
2, 36831, Note_on_c, 0, 47, 0
2, 36861, Note_on_c, 0, 72, 0
2, 36868, Note_on_c, 0, 65, 0
2, 36872, Note_on_c, 0, 60, 0
2, 36920, Note_on_c, 0, 40, 72
2, 36940, Note_on_c, 0, 40, 0
2, 36952, Note_on_c, 0, 46, 64
2, 36965, Note_on_c, 0, 46, 0
2, 36966, Note_on_c, 0, 47, 85
2, 36975, Note_on_c, 0, 69, 74
2, 36976, Note_on_c, 0, 54, 70
2, 36976, Note_on_c, 0, 66, 72
2, 36978, Note_on_c, 0, 62, 81
2, 36979, Note_on_c, 0, 57, 80
2, 36991, Control_c, 0, 64, 0
2, 37036, Control_c, 0, 64, 127
2, 37097, Note_on_c, 0, 54, 0
2, 37120, Note_on_c, 0, 57, 0
2, 37131, Note_on_c, 0, 62, 0
2, 37135, Note_on_c, 0, 69, 0
2, 37141, Note_on_c, 0, 67, 69
2, 37141, Note_on_c, 0, 57, 60
2, 37143, Note_on_c, 0, 62, 66
2, 37155, Note_on_c, 0, 57, 0
2, 37169, Note_on_c, 0, 67, 0
2, 37196, Note_on_c, 0, 66, 0
2, 37197, Note_on_c, 0, 62, 0
2, 37205, Note_on_c, 0, 70, 83
2, 37207, Note_on_c, 0, 47, 0
2, 37213, Note_on_c, 0, 62, 36
2, 37234, Note_on_c, 0, 62, 0
2, 37244, Note_on_c, 0, 70, 0
2, 37310, Note_on_c, 0, 61, 50
2, 37311, Note_on_c, 0, 69, 51
2, 37312, Note_on_c, 0, 65, 61
2, 37314, Note_on_c, 0, 45, 44
2, 37316, Note_on_c, 0, 55, 36
2, 37317, Control_c, 0, 64, 0
2, 37359, Control_c, 0, 64, 127
2, 37401, Note_on_c, 0, 55, 0
2, 37403, Note_on_c, 0, 65, 0
2, 37428, Note_on_c, 0, 61, 0
2, 37478, Note_on_c, 0, 61, 38
2, 37479, Note_on_c, 0, 65, 46
2, 37481, Note_on_c, 0, 55, 34
2, 37487, Note_on_c, 0, 69, 0
2, 37516, Note_on_c, 0, 65, 0
2, 37524, Note_on_c, 0, 61, 0
2, 37530, Note_on_c, 0, 45, 0
2, 37536, Note_on_c, 0, 63, 57
2, 37552, Note_on_c, 0, 55, 0
2, 37577, Note_on_c, 0, 63, 0
2, 37582, Note_on_c, 0, 64, 60
2, 37605, Note_on_c, 0, 64, 0
2, 37638, Note_on_c, 0, 64, 50
2, 37640, Note_on_c, 0, 67, 55
2, 37644, Note_on_c, 0, 57, 36
2, 37645, Note_on_c, 0, 50, 42
2, 37649, Control_c, 0, 64, 0
2, 37679, Control_c, 0, 64, 127
2, 37703, Note_on_c, 0, 57, 0
2, 37714, Note_on_c, 0, 50, 0
2, 37727, Note_on_c, 0, 67, 0
2, 37733, Note_on_c, 0, 64, 0
2, 37895, Note_on_c, 0, 45, 47
2, 37896, Note_on_c, 0, 65, 68
2, 37896, Note_on_c, 0, 55, 44
2, 37898, Note_on_c, 0, 60, 57
2, 37904, Control_c, 0, 64, 0
2, 37926, Note_on_c, 0, 55, 0
2, 37928, Control_c, 0, 64, 127
2, 37932, Note_on_c, 0, 60, 0
2, 37937, Note_on_c, 0, 45, 0
2, 37938, Note_on_c, 0, 65, 0
2, 37985, Note_on_c, 0, 54, 49
2, 37987, Note_on_c, 0, 61, 45
2, 37989, Note_on_c, 0, 59, 46
2, 37992, Note_on_c, 0, 44, 47
2, 37996, Control_c, 0, 64, 0
2, 38032, Control_c, 0, 64, 127
2, 38086, Note_on_c, 0, 59, 0
2, 38088, Note_on_c, 0, 44, 0
2, 38090, Note_on_c, 0, 54, 0
2, 38124, Note_on_c, 0, 61, 0
2, 38160, Note_on_c, 0, 43, 45
2, 38160, Note_on_c, 0, 53, 29
2, 38161, Note_on_c, 0, 62, 42
2, 38161, Note_on_c, 0, 59, 30
2, 38166, Control_c, 0, 64, 0
2, 38192, Note_on_c, 0, 43, 0
2, 38193, Control_c, 0, 64, 127
2, 38242, Note_on_c, 0, 53, 0
2, 38253, Note_on_c, 0, 59, 0
2, 38264, Note_on_c, 0, 62, 0
2, 38266, Note_on_c, 0, 43, 27
2, 38321, Note_on_c, 0, 36, 25
2, 38322, Note_on_c, 0, 64, 47
2, 38324, Control_c, 0, 64, 0
2, 38326, Note_on_c, 0, 59, 35
2, 38326, Note_on_c, 0, 57, 32
2, 38333, Note_on_c, 0, 52, 28
2, 38340, Note_on_c, 0, 57, 0
2, 38345, Note_on_c, 0, 59, 0
2, 38347, Control_c, 0, 64, 127
2, 38354, Note_on_c, 0, 64, 0
2, 38376, Note_on_c, 0, 36, 0
2, 38384, Note_on_c, 0, 43, 0
2, 38395, Note_on_c, 0, 52, 0
2, 38437, Note_on_c, 0, 76, 64
2, 38481, Note_on_c, 0, 76, 0
2, 38487, Note_on_c, 0, 67, 39
2, 38488, Note_on_c, 0, 71, 52
2, 38490, Note_on_c, 0, 62, 32
2, 38493, Control_c, 0, 64, 0
2, 38495, Note_on_c, 0, 64, 20
2, 38522, Control_c, 0, 64, 127
2, 38553, Note_on_c, 0, 71, 0
2, 38554, Note_on_c, 0, 72, 66
2, 38571, Note_on_c, 0, 72, 0
2, 38583, Note_on_c, 0, 76, 64
2, 38591, Note_on_c, 0, 67, 0
2, 38600, Note_on_c, 0, 76, 0
2, 38613, Note_on_c, 0, 79, 72
2, 38628, Note_on_c, 0, 79, 0
2, 38647, Note_on_c, 0, 55, 48
2, 38649, Note_on_c, 0, 84, 51
2, 38650, Control_c, 0, 64, 0
2, 38673, Note_on_c, 0, 84, 0
2, 38685, Note_on_c, 0, 86, 68
2, 38710, Note_on_c, 0, 86, 0
2, 38711, Control_c, 0, 64, 127
2, 38725, Note_on_c, 0, 84, 54
2, 38756, Note_on_c, 0, 64, 0
2, 38765, Note_on_c, 0, 62, 0
2, 38794, Note_on_c, 0, 84, 0
2, 38799, Note_on_c, 0, 62, 38
2, 38799, Note_on_c, 0, 64, 37
2, 38803, Note_on_c, 0, 83, 58
2, 38804, Note_on_c, 0, 67, 22
2, 38812, Note_on_c, 0, 67, 0
2, 38824, Note_on_c, 0, 64, 0
2, 38829, Note_on_c, 0, 83, 0
2, 38832, Note_on_c, 0, 62, 0
2, 38845, Note_on_c, 0, 79, 30
2, 38850, Note_on_c, 0, 55, 0
2, 38874, Note_on_c, 0, 79, 0
2, 38884, Note_on_c, 0, 76, 45
2, 38907, Note_on_c, 0, 76, 0
2, 38923, Note_on_c, 0, 74, 40
2, 38959, Note_on_c, 0, 74, 0
2, 38963, Note_on_c, 0, 70, 53
2, 38966, Note_on_c, 0, 48, 43
2, 38970, Note_on_c, 0, 57, 28
2, 38971, Control_c, 0, 64, 0
2, 39001, Control_c, 0, 64, 127
2, 39004, Note_on_c, 0, 70, 0
2, 39014, Note_on_c, 0, 69, 37
2, 39031, Note_on_c, 0, 57, 0
2, 39034, Note_on_c, 0, 69, 0
2, 39049, Note_on_c, 0, 72, 81
2, 39092, Note_on_c, 0, 70, 71
2, 39113, Note_on_c, 0, 72, 0
2, 39120, Note_on_c, 0, 70, 0
2, 39128, Note_on_c, 0, 58, 46
2, 39131, Note_on_c, 0, 69, 53
2, 39138, Control_c, 0, 64, 0
2, 39160, Control_c, 0, 64, 127
2, 39179, Note_on_c, 0, 62, 39
2, 39208, Note_on_c, 0, 62, 0
2, 39226, Note_on_c, 0, 65, 49
2, 39228, Note_on_c, 0, 62, 44
2, 39231, Note_on_c, 0, 69, 0
2, 39267, Note_on_c, 0, 58, 0
2, 39287, Note_on_c, 0, 58, 34
2, 39343, Note_on_c, 0, 48, 0
2, 39392, Note_on_c, 0, 48, 48
2, 39438, Note_on_c, 0, 48, 0
2, 39438, Note_on_c, 0, 62, 0
2, 39457, Note_on_c, 0, 65, 0
2, 39458, Note_on_c, 0, 62, 22
2, 39466, Note_on_c, 0, 62, 0
2, 39538, Note_on_c, 0, 58, 0
2, 39577, Note_on_c, 0, 77, 71
2, 39579, Note_on_c, 0, 58, 56
2, 39579, Control_c, 0, 64, 0
2, 39580, Note_on_c, 0, 72, 73
2, 39581, Note_on_c, 0, 48, 39
2, 39582, Note_on_c, 0, 65, 58
2, 39588, Note_on_c, 0, 67, 24
2, 39593, Note_on_c, 0, 67, 0
2, 39598, Control_c, 0, 64, 127
2, 39608, Note_on_c, 0, 77, 0
2, 39611, Note_on_c, 0, 72, 0
2, 39613, Note_on_c, 0, 65, 0
2, 39633, Note_on_c, 0, 58, 0
2, 39638, Note_on_c, 0, 76, 52
2, 39639, Note_on_c, 0, 71, 58
2, 39640, Note_on_c, 0, 64, 55
2, 39641, Note_on_c, 0, 57, 61
2, 39643, Control_c, 0, 64, 0
2, 39677, Control_c, 0, 64, 127
2, 39719, Note_on_c, 0, 48, 0
2, 39741, Note_on_c, 0, 48, 57
2, 39754, Note_on_c, 0, 71, 0
2, 39769, Note_on_c, 0, 76, 0
2, 39780, Note_on_c, 0, 64, 0
2, 39844, Note_on_c, 0, 48, 0
2, 39923, Note_on_c, 0, 57, 0
2, 39974, Note_on_c, 0, 64, 54
2, 39976, Note_on_c, 0, 60, 35
2, 39976, Note_on_c, 0, 55, 44
2, 39979, Note_on_c, 0, 52, 32
2, 39979, Note_on_c, 0, 45, 33
2, 39984, Control_c, 0, 64, 0
2, 40017, Control_c, 0, 64, 127
2, 40061, Note_on_c, 0, 55, 0
2, 40063, Note_on_c, 0, 52, 0
2, 40069, Note_on_c, 0, 60, 0
2, 40072, Note_on_c, 0, 45, 0
2, 40077, Note_on_c, 0, 64, 0
2, 40139, Note_on_c, 0, 63, 39
2, 40140, Note_on_c, 0, 59, 37
2, 40140, Note_on_c, 0, 44, 34
2, 40141, Control_c, 0, 64, 0
2, 40142, Note_on_c, 0, 54, 25
2, 40160, Control_c, 0, 64, 127
2, 40178, Note_on_c, 0, 59, 0
2, 40194, Note_on_c, 0, 63, 0
2, 40255, Note_on_c, 0, 74, 96
2, 40266, Note_on_c, 0, 54, 0
2, 40278, Note_on_c, 0, 44, 0
2, 40300, Control_c, 0, 64, 0
2, 40301, Note_on_c, 0, 43, 44
2, 40304, Note_on_c, 0, 53, 38
2, 40322, Control_c, 0, 64, 127
2, 40351, Note_on_c, 0, 73, 51
2, 40354, Note_on_c, 0, 43, 0
2, 40366, Note_on_c, 0, 53, 0
2, 40367, Note_on_c, 0, 74, 0
2, 40384, Note_on_c, 0, 73, 0
2, 40402, Note_on_c, 0, 72, 80
2, 40463, Note_on_c, 0, 62, 37
2, 40464, Note_on_c, 0, 57, 32
2, 40464, Note_on_c, 0, 58, 30
2, 40470, Control_c, 0, 64, 0
2, 40499, Control_c, 0, 64, 127
2, 40529, Note_on_c, 0, 70, 53
2, 40535, Note_on_c, 0, 72, 0
2, 40547, Note_on_c, 0, 62, 0
2, 40561, Note_on_c, 0, 57, 0
2, 40564, Note_on_c, 0, 70, 0
2, 40574, Note_on_c, 0, 69, 68
2, 40575, Note_on_c, 0, 58, 0
2, 40607, Note_on_c, 0, 69, 0
2, 40618, Note_on_c, 0, 70, 65
2, 40620, Control_c, 0, 64, 0
2, 40620, Note_on_c, 0, 63, 37
2, 40620, Note_on_c, 0, 52, 42
2, 40623, Note_on_c, 0, 58, 34
2, 40645, Note_on_c, 0, 70, 0
2, 40657, Note_on_c, 0, 71, 70
2, 40665, Note_on_c, 0, 63, 0
2, 40677, Control_c, 0, 64, 127
2, 40684, Note_on_c, 0, 71, 0
2, 40688, Note_on_c, 0, 58, 0
2, 40689, Note_on_c, 0, 52, 0
2, 40698, Note_on_c, 0, 72, 82
2, 40728, Note_on_c, 0, 72, 0
2, 40737, Note_on_c, 0, 68, 62
2, 40752, Note_on_c, 0, 68, 0
2, 40777, Note_on_c, 0, 30, 46
2, 40783, Note_on_c, 0, 30, 0
2, 40824, Note_on_c, 0, 49, 51
2, 40826, Control_c, 0, 64, 0
2, 40826, Note_on_c, 0, 63, 50
2, 40828, Note_on_c, 0, 56, 39
2, 40830, Note_on_c, 0, 52, 40
2, 40830, Note_on_c, 0, 60, 50
2, 40856, Note_on_c, 0, 49, 0
2, 40856, Control_c, 0, 64, 127
2, 40860, Note_on_c, 0, 60, 0
2, 40872, Note_on_c, 0, 61, 55
2, 40884, Note_on_c, 0, 63, 0
2, 40886, Note_on_c, 0, 52, 0
2, 40910, Note_on_c, 0, 61, 0
2, 40914, Note_on_c, 0, 56, 0
2, 40917, Note_on_c, 0, 42, 32
2, 40923, Note_on_c, 0, 49, 21
2, 40937, Note_on_c, 0, 42, 0
2, 40945, Note_on_c, 0, 49, 0
2, 40964, Note_on_c, 0, 51, 51
2, 40966, Note_on_c, 0, 60, 56
2, 40969, Note_on_c, 0, 55, 46
2, 40972, Control_c, 0, 64, 0
2, 40972, Note_on_c, 0, 58, 32
2, 41009, Note_on_c, 0, 51, 0
2, 41010, Control_c, 0, 64, 127
2, 41012, Note_on_c, 0, 55, 0
2, 41015, Note_on_c, 0, 41, 57
2, 41021, Note_on_c, 0, 58, 0
2, 41022, Note_on_c, 0, 60, 0
2, 41045, Note_on_c, 0, 41, 0
2, 41129, Note_on_c, 0, 74, 71
2, 41132, Note_on_c, 0, 70, 73
2, 41133, Note_on_c, 0, 67, 78
2, 41134, Note_on_c, 0, 63, 69
2, 41136, Note_on_c, 0, 62, 82
2, 41145, Control_c, 0, 64, 0
2, 41153, Control_c, 0, 64, 127
2, 41206, Note_on_c, 0, 62, 0
2, 41221, Note_on_c, 0, 67, 0
2, 41224, Note_on_c, 0, 63, 0
2, 41227, Note_on_c, 0, 74, 0
2, 41240, Note_on_c, 0, 70, 0
2, 41241, Note_on_c, 0, 74, 15
2, 41273, Note_on_c, 0, 74, 0
2, 41304, Note_on_c, 0, 74, 50
2, 41305, Note_on_c, 0, 66, 43
2, 41306, Note_on_c, 0, 62, 40
2, 41307, Note_on_c, 0, 57, 39
2, 41307, Note_on_c, 0, 51, 36
2, 41309, Note_on_c, 0, 69, 45
2, 41310, Control_c, 0, 64, 0
2, 41343, Control_c, 0, 64, 127
2, 41382, Note_on_c, 0, 74, 0
2, 41383, Note_on_c, 0, 57, 0
2, 41392, Note_on_c, 0, 69, 0
2, 41396, Note_on_c, 0, 62, 0
2, 41415, Note_on_c, 0, 66, 0
2, 41423, Note_on_c, 0, 51, 0
2, 41473, Note_on_c, 0, 72, 43
2, 41475, Note_on_c, 0, 65, 49
2, 41475, Note_on_c, 0, 51, 33
2, 41475, Note_on_c, 0, 61, 21
2, 41477, Note_on_c, 0, 69, 38
2, 41479, Note_on_c, 0, 57, 33
2, 41492, Control_c, 0, 64, 0
2, 41498, Control_c, 0, 64, 127
2, 41521, Note_on_c, 0, 72, 0
2, 41524, Note_on_c, 0, 69, 0
2, 41528, Note_on_c, 0, 57, 0
2, 41534, Note_on_c, 0, 65, 0
2, 41544, Note_on_c, 0, 61, 0
2, 41556, Note_on_c, 0, 51, 0
2, 41644, Note_on_c, 0, 65, 48
2, 41646, Note_on_c, 0, 57, 32
2, 41646, Note_on_c, 0, 62, 30
2, 41648, Note_on_c, 0, 60, 35
2, 41649, Note_on_c, 0, 50, 34
2, 41654, Control_c, 0, 64, 0
2, 41682, Note_on_c, 0, 65, 0
2, 41683, Note_on_c, 0, 57, 0
2, 41684, Note_on_c, 0, 60, 0
2, 41685, Note_on_c, 0, 62, 0
2, 41691, Note_on_c, 0, 50, 0
2, 41702, Note_on_c, 0, 49, 31
2, 41724, Note_on_c, 0, 49, 0
2, 41743, Note_on_c, 0, 65, 41
2, 41744, Note_on_c, 0, 62, 36
2, 41745, Note_on_c, 0, 57, 28
2, 41745, Note_on_c, 0, 60, 42
2, 41747, Note_on_c, 0, 50, 26
2, 41768, Control_c, 0, 64, 127
2, 41836, Note_on_c, 0, 50, 0
2, 41864, Note_on_c, 0, 62, 0
2, 41868, Note_on_c, 0, 57, 0
2, 41870, Note_on_c, 0, 60, 0
2, 41893, Note_on_c, 0, 65, 0
2, 41975, Control_c, 0, 64, 0
2, 41976, Note_on_c, 0, 39, 36
2, 41982, Note_on_c, 0, 54, 27
2, 41994, Control_c, 0, 64, 127
2, 42025, Note_on_c, 0, 39, 0
2, 42037, Note_on_c, 0, 54, 0
2, 42041, Note_on_c, 0, 89, 44
2, 42051, Note_on_c, 0, 87, 59
2, 42053, Control_c, 0, 64, 0
2, 42062, Note_on_c, 0, 89, 0
2, 42066, Note_on_c, 0, 85, 52
2, 42069, Control_c, 0, 64, 127
2, 42071, Note_on_c, 0, 87, 0
2, 42078, Note_on_c, 0, 85, 0
2, 42083, Note_on_c, 0, 84, 30
2, 42088, Note_on_c, 0, 84, 0
2, 42100, Note_on_c, 0, 82, 47
2, 42114, Note_on_c, 0, 80, 40
2, 42123, Note_on_c, 0, 82, 0
2, 42124, Note_on_c, 0, 78, 39
2, 42127, Control_c, 0, 64, 0
2, 42129, Note_on_c, 0, 80, 0
2, 42133, Note_on_c, 0, 65, 33
2, 42135, Note_on_c, 0, 58, 28
2, 42136, Note_on_c, 0, 60, 33
2, 42137, Note_on_c, 0, 54, 25
2, 42139, Note_on_c, 0, 78, 0
2, 42174, Note_on_c, 0, 74, 38
2, 42188, Note_on_c, 0, 74, 0
2, 42190, Note_on_c, 0, 65, 0
2, 42194, Note_on_c, 0, 73, 28
2, 42198, Control_c, 0, 64, 127
2, 42207, Note_on_c, 0, 73, 0
2, 42210, Note_on_c, 0, 72, 47
2, 42211, Note_on_c, 0, 60, 0
2, 42216, Note_on_c, 0, 72, 0
2, 42224, Note_on_c, 0, 58, 0
2, 42226, Note_on_c, 0, 70, 33
2, 42232, Note_on_c, 0, 54, 0
2, 42235, Control_c, 0, 64, 0
2, 42237, Note_on_c, 0, 70, 0
2, 42244, Note_on_c, 0, 69, 46
2, 42254, Control_c, 0, 64, 127
2, 42259, Note_on_c, 0, 69, 0
2, 42267, Note_on_c, 0, 68, 26
2, 42277, Note_on_c, 0, 68, 0
2, 42282, Note_on_c, 0, 67, 39
2, 42304, Note_on_c, 0, 67, 0
2, 42306, Note_on_c, 0, 66, 25
2, 42312, Note_on_c, 0, 66, 0
2, 42313, Control_c, 0, 64, 0
2, 42316, Note_on_c, 0, 50, 34
2, 42317, Note_on_c, 0, 65, 35
2, 42318, Note_on_c, 0, 57, 22
2, 42318, Note_on_c, 0, 60, 14
2, 42328, Note_on_c, 0, 60, 0
2, 42328, Note_on_c, 0, 65, 0
2, 42336, Note_on_c, 0, 64, 50
2, 42373, Control_c, 0, 64, 127
2, 42397, Note_on_c, 0, 57, 0
2, 42412, Note_on_c, 0, 64, 0
2, 42500, Note_on_c, 0, 60, 46
2, 42506, Note_on_c, 0, 57, 27
2, 42539, Note_on_c, 0, 60, 0
2, 42566, Note_on_c, 0, 65, 83
2, 42576, Note_on_c, 0, 57, 0
2, 42595, Note_on_c, 0, 65, 0
2, 42597, Note_on_c, 0, 50, 0
2, 42674, Note_on_c, 0, 67, 53
2, 42676, Note_on_c, 0, 63, 45
2, 42676, Note_on_c, 0, 59, 53
2, 42678, Note_on_c, 0, 37, 39
2, 42680, Note_on_c, 0, 65, 34
2, 42680, Note_on_c, 0, 55, 33
2, 42681, Note_on_c, 0, 53, 31
2, 42681, Note_on_c, 0, 44, 37
2, 42686, Note_on_c, 0, 65, 0
2, 42686, Control_c, 0, 64, 0
2, 42731, Control_c, 0, 64, 127
2, 42749, Note_on_c, 0, 37, 0
2, 42768, Note_on_c, 0, 53, 0
2, 42771, Note_on_c, 0, 55, 0
2, 42783, Note_on_c, 0, 59, 0
2, 42792, Note_on_c, 0, 63, 0
2, 42825, Note_on_c, 0, 44, 0
2, 42856, Note_on_c, 0, 59, 46
2, 42856, Note_on_c, 0, 63, 31
2, 42858, Note_on_c, 0, 55, 30
2, 42861, Note_on_c, 0, 53, 30
2, 42868, Note_on_c, 0, 44, 17
2, 42886, Note_on_c, 0, 44, 0
2, 42895, Note_on_c, 0, 53, 0
2, 42916, Note_on_c, 0, 55, 0
2, 42917, Note_on_c, 0, 67, 0
2, 42934, Note_on_c, 0, 63, 0
2, 42935, Note_on_c, 0, 59, 0
2, 42958, Note_on_c, 0, 67, 44
2, 43002, Note_on_c, 0, 67, 0
2, 43024, Note_on_c, 0, 43, 15
2, 43024, Note_on_c, 0, 36, 40
2, 43027, Note_on_c, 0, 62, 41
2, 43027, Note_on_c, 0, 57, 36
2, 43030, Note_on_c, 0, 59, 40
2, 43030, Note_on_c, 0, 52, 49
2, 43034, Control_c, 0, 64, 0
2, 43065, Control_c, 0, 64, 127
2, 43075, Note_on_c, 0, 57, 0
2, 43078, Note_on_c, 0, 59, 0
2, 43081, Note_on_c, 0, 62, 0
2, 43092, Note_on_c, 0, 36, 0
2, 43103, Note_on_c, 0, 43, 0
2, 43112, Note_on_c, 0, 52, 0
2, 43196, Note_on_c, 0, 74, 80
2, 43201, Note_on_c, 0, 71, 59
2, 43202, Note_on_c, 0, 64, 57
2, 43204, Note_on_c, 0, 60, 40
2, 43205, Note_on_c, 0, 67, 64
2, 43240, Note_on_c, 0, 74, 0
2, 43256, Note_on_c, 0, 74, 42
2, 43268, Note_on_c, 0, 71, 0
2, 43302, Note_on_c, 0, 64, 0
2, 43303, Note_on_c, 0, 74, 0
2, 43303, Note_on_c, 0, 60, 0
2, 43305, Note_on_c, 0, 67, 0
2, 43314, Note_on_c, 0, 72, 61
2, 43358, Note_on_c, 0, 72, 0
2, 43372, Note_on_c, 0, 74, 56
2, 43376, Note_on_c, 0, 69, 55
2, 43377, Note_on_c, 0, 57, 40
2, 43378, Note_on_c, 0, 65, 42
2, 43382, Control_c, 0, 64, 0
2, 43383, Note_on_c, 0, 60, 41
2, 43410, Control_c, 0, 64, 127
2, 43417, Note_on_c, 0, 74, 0
2, 43430, Note_on_c, 0, 74, 48
2, 43459, Note_on_c, 0, 65, 0
2, 43465, Note_on_c, 0, 60, 0
2, 43475, Note_on_c, 0, 74, 0
2, 43476, Note_on_c, 0, 57, 0
2, 43484, Note_on_c, 0, 72, 51
2, 43495, Note_on_c, 0, 69, 0
2, 43522, Note_on_c, 0, 72, 0
2, 43538, Note_on_c, 0, 74, 51
2, 43540, Control_c, 0, 64, 0
2, 43540, Note_on_c, 0, 63, 33
2, 43540, Note_on_c, 0, 68, 48
2, 43542, Note_on_c, 0, 59, 33
2, 43542, Note_on_c, 0, 65, 45
2, 43544, Note_on_c, 0, 53, 29
2, 43557, Control_c, 0, 64, 127
2, 43561, Note_on_c, 0, 59, 0
2, 43562, Note_on_c, 0, 63, 0
2, 43562, Note_on_c, 0, 74, 0
2, 43566, Note_on_c, 0, 53, 0
2, 43568, Note_on_c, 0, 65, 0
2, 43570, Note_on_c, 0, 68, 0
2, 43602, Note_on_c, 0, 79, 58
2, 43627, Note_on_c, 0, 79, 0
2, 43655, Note_on_c, 0, 79, 57
2, 43690, Note_on_c, 0, 79, 0
2, 43708, Note_on_c, 0, 36, 44
2, 43709, Note_on_c, 0, 43, 25
2, 43712, Note_on_c, 0, 74, 52
2, 43713, Control_c, 0, 64, 0
2, 43713, Note_on_c, 0, 52, 46
2, 43742, Control_c, 0, 64, 127
2, 43757, Note_on_c, 0, 74, 0
2, 43758, Note_on_c, 0, 36, 0
2, 43765, Note_on_c, 0, 43, 0
2, 43769, Note_on_c, 0, 74, 68
2, 43778, Note_on_c, 0, 52, 0
2, 43817, Note_on_c, 0, 74, 0
2, 43822, Note_on_c, 0, 71, 73
2, 43836, Note_on_c, 0, 71, 0
2, 43882, Note_on_c, 0, 67, 76
2, 43883, Note_on_c, 0, 62, 66
2, 43883, Note_on_c, 0, 64, 73
2, 43883, Note_on_c, 0, 86, 95
2, 43921, Note_on_c, 0, 86, 0
2, 43921, Note_on_c, 0, 67, 0
2, 43931, Note_on_c, 0, 64, 0
2, 43937, Note_on_c, 0, 62, 0
2, 43940, Note_on_c, 0, 86, 83
2, 43974, Note_on_c, 0, 86, 0
2, 43995, Note_on_c, 0, 83, 83
2, 44019, Note_on_c, 0, 83, 0
2, 44055, Note_on_c, 0, 79, 65
2, 44058, Note_on_c, 0, 74, 55
2, 44058, Note_on_c, 0, 76, 60
2, 44059, Control_c, 0, 64, 0
2, 44060, Note_on_c, 0, 48, 54
2, 44080, Control_c, 0, 64, 127
2, 44103, Note_on_c, 0, 79, 0
2, 44106, Note_on_c, 0, 76, 0
2, 44108, Note_on_c, 0, 74, 0
2, 44116, Note_on_c, 0, 55, 34
2, 44149, Note_on_c, 0, 48, 0
2, 44170, Note_on_c, 0, 71, 45
2, 44173, Note_on_c, 0, 67, 31
2, 44237, Note_on_c, 0, 62, 56
2, 44256, Note_on_c, 0, 55, 0
2, 44294, Note_on_c, 0, 55, 37
2, 44327, Note_on_c, 0, 62, 0
2, 44350, Note_on_c, 0, 48, 41
2, 44369, Note_on_c, 0, 48, 0
2, 44406, Note_on_c, 0, 55, 0
2, 44406, Control_c, 0, 64, 0
2, 44408, Note_on_c, 0, 48, 62
2, 44425, Control_c, 0, 64, 127
2, 44426, Note_on_c, 0, 48, 0
2, 44465, Note_on_c, 0, 57, 63
2, 44469, Note_on_c, 0, 71, 0
2, 44479, Note_on_c, 0, 67, 0
2, 44505, Note_on_c, 0, 58, 75
2, 44538, Note_on_c, 0, 62, 80
2, 44571, Note_on_c, 0, 69, 81
2, 44604, Note_on_c, 0, 70, 80
2, 44610, Note_on_c, 0, 69, 0
2, 44622, Note_on_c, 0, 62, 0
2, 44622, Note_on_c, 0, 70, 0
2, 44637, Note_on_c, 0, 74, 80
2, 44638, Note_on_c, 0, 62, 46
2, 44657, Note_on_c, 0, 57, 0
2, 44658, Note_on_c, 0, 62, 0
2, 44664, Note_on_c, 0, 74, 0
2, 44665, Note_on_c, 0, 58, 0
2, 44674, Note_on_c, 0, 77, 78
2, 44675, Note_on_c, 0, 74, 42
2, 44686, Note_on_c, 0, 74, 0
2, 44687, Note_on_c, 0, 56, 33
2, 44697, Note_on_c, 0, 56, 0
2, 44712, Note_on_c, 0, 77, 0
2, 44720, Note_on_c, 0, 48, 50
2, 44720, Note_on_c, 0, 84, 85
2, 44721, Note_on_c, 0, 77, 69
2, 44722, Control_c, 0, 64, 0
2, 44757, Control_c, 0, 64, 127
2, 44771, Note_on_c, 0, 84, 0
2, 44774, Note_on_c, 0, 77, 0
2, 44781, Note_on_c, 0, 82, 55
2, 44783, Note_on_c, 0, 48, 0
2, 44796, Note_on_c, 0, 82, 0
2, 44824, Note_on_c, 0, 57, 48
2, 44826, Note_on_c, 0, 81, 66
2, 44828, Note_on_c, 0, 74, 70
2, 44858, Note_on_c, 0, 81, 0
2, 44862, Note_on_c, 0, 74, 0
2, 44883, Note_on_c, 0, 77, 43
2, 44884, Note_on_c, 0, 70, 44
2, 44886, Note_on_c, 0, 58, 33
2, 44898, Note_on_c, 0, 77, 0
2, 44904, Note_on_c, 0, 70, 0
2, 44940, Note_on_c, 0, 74, 40
2, 44942, Note_on_c, 0, 62, 40
2, 44943, Note_on_c, 0, 70, 37
2, 44943, Note_on_c, 0, 69, 48
2, 44960, Note_on_c, 0, 69, 0
2, 44963, Note_on_c, 0, 58, 0
2, 44974, Note_on_c, 0, 57, 0
2, 44979, Note_on_c, 0, 62, 0
2, 44984, Note_on_c, 0, 70, 0
2, 44985, Note_on_c, 0, 74, 0
2, 44991, Note_on_c, 0, 58, 25
2, 45004, Note_on_c, 0, 58, 0
2, 45055, Note_on_c, 0, 48, 65
2, 45067, Control_c, 0, 64, 0
2, 45093, Control_c, 0, 64, 127
2, 45115, Note_on_c, 0, 55, 42
2, 45147, Note_on_c, 0, 68, 31
2, 45156, Note_on_c, 0, 68, 0
2, 45165, Note_on_c, 0, 55, 0
2, 45171, Note_on_c, 0, 67, 45
2, 45173, Note_on_c, 0, 62, 47
2, 45173, Note_on_c, 0, 64, 48
2, 45182, Note_on_c, 0, 57, 19
2, 45215, Note_on_c, 0, 57, 0
2, 45219, Control_c, 0, 64, 0
2, 45226, Note_on_c, 0, 59, 79
2, 45252, Control_c, 0, 64, 127
2, 45271, Note_on_c, 0, 59, 0
2, 45292, Note_on_c, 0, 57, 30
2, 45315, Note_on_c, 0, 48, 0
2, 45332, Note_on_c, 0, 48, 35
2, 45333, Note_on_c, 0, 64, 0
2, 45339, Note_on_c, 0, 57, 0
2, 45340, Note_on_c, 0, 62, 0
2, 45348, Note_on_c, 0, 48, 0
2, 45392, Note_on_c, 0, 67, 0
2, 45411, Note_on_c, 0, 64, 47
2, 45412, Control_c, 0, 64, 0
2, 45413, Note_on_c, 0, 60, 33
2, 45414, Note_on_c, 0, 55, 40
2, 45417, Note_on_c, 0, 45, 33
2, 45441, Control_c, 0, 64, 127
2, 45515, Note_on_c, 0, 45, 0
2, 45516, Note_on_c, 0, 60, 0
2, 45520, Note_on_c, 0, 64, 0
2, 45521, Note_on_c, 0, 55, 0
2, 45578, Note_on_c, 0, 63, 35
2, 45580, Note_on_c, 0, 54, 33
2, 45580, Control_c, 0, 64, 0
2, 45581, Note_on_c, 0, 44, 33
2, 45581, Note_on_c, 0, 59, 34
2, 45608, Control_c, 0, 64, 127
2, 45694, Note_on_c, 0, 50, 33
2, 45703, Note_on_c, 0, 63, 0
2, 45712, Note_on_c, 0, 54, 0
2, 45724, Note_on_c, 0, 44, 0
2, 45732, Note_on_c, 0, 59, 0
2, 45747, Note_on_c, 0, 50, 0
2, 45752, Note_on_c, 0, 53, 35
2, 45756, Note_on_c, 0, 43, 24
2, 45762, Control_c, 0, 64, 0
2, 45792, Note_on_c, 0, 58, 35
2, 45797, Note_on_c, 0, 58, 0
2, 45800, Note_on_c, 0, 53, 0
2, 45804, Note_on_c, 0, 60, 69
2, 45815, Note_on_c, 0, 58, 42
2, 45818, Note_on_c, 0, 60, 0
2, 45832, Note_on_c, 0, 58, 0
2, 45835, Note_on_c, 0, 57, 40
2, 45845, Note_on_c, 0, 57, 0
2, 45860, Note_on_c, 0, 54, 30
2, 45867, Note_on_c, 0, 54, 0
2, 45880, Note_on_c, 0, 57, 44
2, 45895, Note_on_c, 0, 57, 0
2, 45901, Note_on_c, 0, 54, 55
2, 45914, Note_on_c, 0, 54, 0
2, 45924, Note_on_c, 0, 53, 40
2, 45924, Note_on_c, 0, 55, 55
2, 45938, Note_on_c, 0, 55, 0
2, 45956, Note_on_c, 0, 57, 56
2, 45965, Note_on_c, 0, 57, 0
2, 45982, Note_on_c, 0, 58, 60
2, 45993, Note_on_c, 0, 58, 0
2, 46008, Note_on_c, 0, 62, 69
2, 46021, Note_on_c, 0, 62, 0
2, 46032, Note_on_c, 0, 43, 0
2, 46033, Note_on_c, 0, 66, 55
2, 46039, Note_on_c, 0, 53, 0
2, 46043, Control_c, 0, 64, 127
2, 46054, Note_on_c, 0, 66, 0
2, 46064, Note_on_c, 0, 69, 72
2, 46080, Note_on_c, 0, 69, 0
2, 46088, Control_c, 0, 64, 0
2, 46097, Note_on_c, 0, 72, 77
2, 46113, Control_c, 0, 64, 127
2, 46137, Note_on_c, 0, 72, 0
2, 46149, Note_on_c, 0, 70, 69
2, 46173, Note_on_c, 0, 70, 0
2, 46261, Note_on_c, 0, 75, 47
2, 46263, Note_on_c, 0, 58, 37
2, 46263, Note_on_c, 0, 72, 45
2, 46264, Note_on_c, 0, 68, 43
2, 46264, Note_on_c, 0, 64, 56
2, 46266, Control_c, 0, 64, 0
2, 46296, Control_c, 0, 64, 127
2, 46315, Note_on_c, 0, 72, 0
2, 46317, Note_on_c, 0, 75, 0
2, 46323, Note_on_c, 0, 73, 37
2, 46376, Note_on_c, 0, 64, 0
2, 46389, Note_on_c, 0, 73, 0
2, 46390, Note_on_c, 0, 58, 0
2, 46403, Note_on_c, 0, 68, 0
2, 46443, Note_on_c, 0, 63, 31
2, 46443, Note_on_c, 0, 70, 38
2, 46445, Note_on_c, 0, 67, 36
2, 46447, Note_on_c, 0, 60, 30
2, 46449, Control_c, 0, 64, 0
2, 46450, Note_on_c, 0, 53, 27
2, 46471, Note_on_c, 0, 60, 0
2, 46471, Control_c, 0, 64, 127
2, 46489, Note_on_c, 0, 63, 0
2, 46491, Note_on_c, 0, 67, 0
2, 46513, Note_on_c, 0, 70, 0
2, 46514, Note_on_c, 0, 58, 36
2, 46541, Note_on_c, 0, 60, 39
2, 46542, Note_on_c, 0, 65, 40
2, 46555, Note_on_c, 0, 67, 39
2, 46561, Note_on_c, 0, 65, 0
2, 46564, Note_on_c, 0, 63, 28
2, 46569, Control_c, 0, 64, 0
2, 46569, Note_on_c, 0, 69, 43
2, 46572, Note_on_c, 0, 67, 0
2, 46575, Note_on_c, 0, 69, 0
2, 46578, Note_on_c, 0, 70, 47
2, 46583, Note_on_c, 0, 70, 0
2, 46593, Note_on_c, 0, 72, 48
2, 46608, Note_on_c, 0, 72, 0
2, 46611, Note_on_c, 0, 74, 51
2, 46623, Note_on_c, 0, 74, 0
2, 46623, Note_on_c, 0, 75, 57
2, 46628, Note_on_c, 0, 75, 0
2, 46636, Note_on_c, 0, 77, 54
2, 46644, Note_on_c, 0, 63, 0
2, 46651, Note_on_c, 0, 79, 55
2, 46653, Note_on_c, 0, 77, 0
2, 46665, Note_on_c, 0, 81, 36
2, 46668, Note_on_c, 0, 79, 0
2, 46672, Note_on_c, 0, 81, 0
2, 46674, Note_on_c, 0, 82, 44
2, 46680, Note_on_c, 0, 82, 0
2, 46682, Control_c, 0, 64, 127
2, 46689, Note_on_c, 0, 84, 44
2, 46700, Note_on_c, 0, 84, 0
2, 46706, Note_on_c, 0, 86, 49
2, 46717, Note_on_c, 0, 87, 52
2, 46720, Note_on_c, 0, 86, 0
2, 46725, Note_on_c, 0, 58, 0
2, 46728, Note_on_c, 0, 87, 0
2, 46728, Note_on_c, 0, 88, 68
2, 46731, Note_on_c, 0, 60, 0
2, 46736, Note_on_c, 0, 88, 0
2, 46744, Note_on_c, 0, 89, 74
2, 46757, Note_on_c, 0, 89, 0
2, 46761, Note_on_c, 0, 53, 0
2, 46784, Control_c, 0, 64, 0
2, 46794, Control_c, 0, 64, 127
2, 46815, Note_on_c, 0, 53, 35
2, 46866, Note_on_c, 0, 74, 66
2, 46870, Note_on_c, 0, 63, 48
2, 46871, Note_on_c, 0, 67, 64
2, 46875, Note_on_c, 0, 62, 29
2, 46913, Note_on_c, 0, 62, 0
2, 46919, Note_on_c, 0, 53, 0
2, 46934, Note_on_c, 0, 74, 0
2, 46934, Note_on_c, 0, 67, 0
2, 46946, Note_on_c, 0, 63, 0
2, 46990, Note_on_c, 0, 61, 34
2, 46990, Note_on_c, 0, 51, 38
2, 46990, Note_on_c, 0, 72, 44
2, 46992, Note_on_c, 0, 65, 53
2, 46993, Note_on_c, 0, 60, 36
2, 46995, Note_on_c, 0, 69, 34
2, 47001, Control_c, 0, 64, 0
2, 47017, Control_c, 0, 64, 127
2, 47051, Note_on_c, 0, 69, 0
2, 47062, Note_on_c, 0, 60, 0
2, 47065, Note_on_c, 0, 61, 0
2, 47073, Note_on_c, 0, 65, 0
2, 47073, Note_on_c, 0, 72, 0
2, 47081, Note_on_c, 0, 51, 0
2, 47107, Note_on_c, 0, 51, 34
2, 47140, Note_on_c, 0, 51, 0
2, 47169, Note_on_c, 0, 50, 35
2, 47169, Note_on_c, 0, 65, 39
2, 47170, Note_on_c, 0, 60, 31
2, 47171, Note_on_c, 0, 57, 34
2, 47175, Control_c, 0, 64, 0
2, 47203, Control_c, 0, 64, 127
2, 47218, Note_on_c, 0, 60, 0
2, 47243, Note_on_c, 0, 65, 0
2, 47307, Note_on_c, 0, 67, 49
2, 47320, Note_on_c, 0, 67, 0
2, 47322, Note_on_c, 0, 65, 50
2, 47332, Note_on_c, 0, 65, 0
2, 47353, Note_on_c, 0, 69, 81
2, 47354, Control_c, 0, 64, 0
2, 47361, Note_on_c, 0, 60, 46
2, 47368, Note_on_c, 0, 60, 0
2, 47379, Note_on_c, 0, 57, 0
2, 47382, Control_c, 0, 64, 127
2, 47388, Note_on_c, 0, 50, 0
2, 47389, Note_on_c, 0, 69, 0
2, 47389, Note_on_c, 0, 67, 62
2, 47405, Note_on_c, 0, 67, 0
2, 47436, Note_on_c, 0, 70, 75
2, 47471, Note_on_c, 0, 70, 0
2, 47472, Note_on_c, 0, 69, 38
2, 47495, Note_on_c, 0, 69, 0
2, 47515, Note_on_c, 0, 39, 45
2, 47517, Note_on_c, 0, 72, 59
2, 47518, Note_on_c, 0, 54, 31
2, 47524, Control_c, 0, 64, 0
2, 47552, Control_c, 0, 64, 127
2, 47558, Note_on_c, 0, 72, 0
2, 47605, Note_on_c, 0, 72, 33
2, 47608, Note_on_c, 0, 39, 0
2, 47618, Note_on_c, 0, 72, 0
2, 47622, Note_on_c, 0, 73, 33
2, 47623, Note_on_c, 0, 54, 0
2, 47639, Note_on_c, 0, 73, 0
2, 47639, Note_on_c, 0, 75, 62
2, 47650, Note_on_c, 0, 75, 0
2, 47660, Note_on_c, 0, 77, 45
2, 47670, Note_on_c, 0, 77, 0
2, 47673, Note_on_c, 0, 78, 47
2, 47690, Note_on_c, 0, 78, 0
2, 47698, Note_on_c, 0, 80, 69
2, 47703, Note_on_c, 0, 65, 38
2, 47705, Note_on_c, 0, 58, 31
2, 47706, Note_on_c, 0, 60, 36
2, 47707, Note_on_c, 0, 54, 28
2, 47709, Control_c, 0, 64, 0
2, 47714, Note_on_c, 0, 80, 0
2, 47749, Note_on_c, 0, 80, 69
2, 47761, Note_on_c, 0, 80, 0
2, 47797, Note_on_c, 0, 80, 67
2, 47799, Control_c, 0, 64, 127
2, 47821, Note_on_c, 0, 65, 0
2, 47824, Note_on_c, 0, 80, 0
2, 47825, Note_on_c, 0, 78, 56
2, 47827, Note_on_c, 0, 60, 0
2, 47836, Note_on_c, 0, 58, 0
2, 47847, Note_on_c, 0, 54, 0
2, 47847, Note_on_c, 0, 78, 0
2, 47851, Note_on_c, 0, 77, 40
2, 47864, Note_on_c, 0, 77, 0
2, 47902, Note_on_c, 0, 62, 38
2, 47903, Note_on_c, 0, 52, 46
2, 47905, Control_c, 0, 64, 0
2, 47908, Note_on_c, 0, 81, 42
2, 47943, Control_c, 0, 64, 127
2, 47956, Note_on_c, 0, 62, 0
2, 47960, Note_on_c, 0, 67, 26
2, 47961, Note_on_c, 0, 74, 26
2, 47963, Note_on_c, 0, 59, 27
2, 48002, Note_on_c, 0, 67, 0
2, 48007, Note_on_c, 0, 74, 0
2, 48007, Note_on_c, 0, 79, 1
2, 48057, Note_on_c, 0, 59, 0
2, 48058, Note_on_c, 0, 81, 0
2, 48074, Note_on_c, 0, 79, 0
2, 48095, Note_on_c, 0, 62, 45
2, 48100, Note_on_c, 0, 62, 0
2, 48119, Note_on_c, 0, 52, 0
2, 48159, Note_on_c, 0, 69, 74
2, 48160, Note_on_c, 0, 62, 87
2, 48161, Control_c, 0, 64, 0
2, 48161, Note_on_c, 0, 66, 62
2, 48162, Note_on_c, 0, 59, 70
2, 48164, Note_on_c, 0, 57, 66
2, 48185, Control_c, 0, 64, 127
2, 48199, Note_on_c, 0, 69, 0
2, 48201, Note_on_c, 0, 57, 0
2, 48203, Note_on_c, 0, 59, 0
2, 48204, Note_on_c, 0, 62, 0
2, 48205, Note_on_c, 0, 66, 0
2, 48216, Note_on_c, 0, 69, 51
2, 48229, Note_on_c, 0, 67, 27
2, 48234, Note_on_c, 0, 69, 0
2, 48255, Note_on_c, 0, 67, 0
2, 48276, Note_on_c, 0, 61, 61
2, 48276, Note_on_c, 0, 69, 71
2, 48276, Note_on_c, 0, 65, 62
2, 48279, Note_on_c, 0, 55, 50
2, 48280, Note_on_c, 0, 45, 44
2, 48281, Note_on_c, 0, 58, 35
2, 48282, Control_c, 0, 64, 0
2, 48319, Control_c, 0, 64, 127
2, 48374, Note_on_c, 0, 55, 0
2, 48390, Note_on_c, 0, 65, 0
2, 48407, Note_on_c, 0, 58, 0
2, 48410, Note_on_c, 0, 69, 0
2, 48417, Note_on_c, 0, 61, 0
2, 48454, Note_on_c, 0, 45, 0
2, 48560, Note_on_c, 0, 51, 70
2, 48560, Note_on_c, 0, 67, 72
2, 48561, Note_on_c, 0, 61, 74
2, 48562, Note_on_c, 0, 55, 76
2, 48563, Control_c, 0, 64, 0
2, 48590, Control_c, 0, 64, 127
2, 48593, Note_on_c, 0, 55, 0
2, 48611, Note_on_c, 0, 67, 0
2, 48616, Note_on_c, 0, 61, 0
2, 48630, Note_on_c, 0, 51, 0
2, 48636, Note_on_c, 0, 67, 74
2, 48637, Note_on_c, 0, 60, 80
2, 48638, Control_c, 0, 64, 0
2, 48638, Note_on_c, 0, 50, 70
2, 48638, Note_on_c, 0, 57, 69
2, 48675, Control_c, 0, 64, 127
2, 48737, Note_on_c, 0, 67, 0
2, 48749, Note_on_c, 0, 60, 0
2, 48759, Note_on_c, 0, 57, 0
2, 48799, Note_on_c, 0, 50, 0
2, 48889, Note_on_c, 0, 65, 60
2, 48891, Note_on_c, 0, 54, 49
2, 48892, Note_on_c, 0, 60, 65
2, 48892, Note_on_c, 0, 45, 50
2, 48895, Control_c, 0, 64, 0
2, 48920, Control_c, 0, 64, 127
2, 48927, Note_on_c, 0, 45, 0
2, 48927, Note_on_c, 0, 60, 0
2, 48928, Note_on_c, 0, 65, 0
2, 48936, Note_on_c, 0, 54, 0
2, 48981, Note_on_c, 0, 61, 46
2, 48982, Note_on_c, 0, 53, 43
2, 48982, Note_on_c, 0, 59, 53
2, 48984, Note_on_c, 0, 44, 35
2, 48988, Control_c, 0, 64, 0
2, 49023, Control_c, 0, 64, 127
2, 49072, Note_on_c, 0, 53, 0
2, 49074, Note_on_c, 0, 59, 0
2, 49091, Note_on_c, 0, 44, 0
2, 49108, Note_on_c, 0, 61, 0
2, 49158, Note_on_c, 0, 56, 34
2, 49158, Control_c, 0, 64, 0
2, 49160, Note_on_c, 0, 43, 33
2, 49160, Note_on_c, 0, 62, 44
2, 49160, Note_on_c, 0, 59, 38
2, 49161, Note_on_c, 0, 53, 27
2, 49185, Control_c, 0, 64, 127
2, 49197, Note_on_c, 0, 43, 0
2, 49251, Note_on_c, 0, 53, 0
2, 49256, Note_on_c, 0, 62, 0
2, 49270, Note_on_c, 0, 59, 0
2, 49274, Note_on_c, 0, 63, 37
2, 49288, Note_on_c, 0, 56, 0
2, 49295, Note_on_c, 0, 63, 0
2, 49336, Control_c, 0, 64, 0
2, 49337, Note_on_c, 0, 36, 33
2, 49340, Note_on_c, 0, 43, 18
2, 49342, Note_on_c, 0, 64, 38
2, 49344, Note_on_c, 0, 52, 37
2, 49345, Note_on_c, 0, 57, 32
2, 49363, Note_on_c, 0, 57, 0
2, 49365, Control_c, 0, 64, 127
2, 49383, Note_on_c, 0, 36, 0
2, 49384, Note_on_c, 0, 64, 0
2, 49390, Note_on_c, 0, 43, 0
2, 49401, Note_on_c, 0, 52, 0
2, 49453, Note_on_c, 0, 86, 68
2, 49456, Note_on_c, 0, 79, 68
2, 49479, Note_on_c, 0, 86, 0
2, 49484, Note_on_c, 0, 79, 0
2, 49487, Note_on_c, 0, 83, 45
2, 49488, Note_on_c, 0, 74, 45
2, 49512, Note_on_c, 0, 74, 0
2, 49520, Note_on_c, 0, 83, 0
2, 49526, Note_on_c, 0, 86, 54
2, 49527, Note_on_c, 0, 67, 41
2, 49529, Note_on_c, 0, 79, 44
2, 49531, Note_on_c, 0, 64, 36
2, 49531, Note_on_c, 0, 62, 32
2, 49552, Note_on_c, 0, 86, 0
2, 49556, Note_on_c, 0, 79, 0
2, 49563, Note_on_c, 0, 74, 44
2, 49564, Note_on_c, 0, 67, 0
2, 49565, Note_on_c, 0, 83, 46
2, 49584, Note_on_c, 0, 74, 0
2, 49592, Note_on_c, 0, 83, 0
2, 49600, Note_on_c, 0, 86, 66
2, 49601, Note_on_c, 0, 79, 53
2, 49619, Note_on_c, 0, 79, 0
2, 49621, Note_on_c, 0, 86, 0
2, 49634, Note_on_c, 0, 74, 43
2, 49637, Note_on_c, 0, 83, 37
2, 49655, Note_on_c, 0, 74, 0
2, 49666, Note_on_c, 0, 83, 0
2, 49678, Note_on_c, 0, 86, 49
2, 49679, Note_on_c, 0, 79, 40
2, 49682, Note_on_c, 0, 55, 43
2, 49689, Control_c, 0, 64, 0
2, 49700, Note_on_c, 0, 79, 0
2, 49711, Note_on_c, 0, 86, 0
2, 49711, Note_on_c, 0, 62, 0
2, 49713, Control_c, 0, 64, 127
2, 49714, Note_on_c, 0, 64, 0
2, 49723, Note_on_c, 0, 83, 34
2, 49724, Note_on_c, 0, 74, 35
2, 49728, Note_on_c, 0, 79, 29
2, 49741, Note_on_c, 0, 74, 0
2, 49743, Note_on_c, 0, 79, 0
2, 49754, Note_on_c, 0, 83, 0
2, 49843, Note_on_c, 0, 62, 36
2, 49845, Note_on_c, 0, 64, 50
2, 49846, Note_on_c, 0, 67, 30
2, 49873, Note_on_c, 0, 67, 0
2, 49891, Note_on_c, 0, 55, 0
2, 49908, Note_on_c, 0, 64, 0
2, 49909, Note_on_c, 0, 62, 0
2, 50020, Note_on_c, 0, 74, 41
2, 50021, Note_on_c, 0, 70, 35
2, 50024, Note_on_c, 0, 65, 40
2, 50024, Note_on_c, 0, 58, 34
2, 50026, Note_on_c, 0, 48, 32
2, 50027, Control_c, 0, 64, 0
2, 50050, Control_c, 0, 64, 127
2, 50055, Note_on_c, 0, 65, 0
2, 50061, Note_on_c, 0, 70, 0
2, 50064, Note_on_c, 0, 74, 0
2, 50099, Note_on_c, 0, 58, 0
2, 50147, Note_on_c, 0, 81, 83
2, 50147, Note_on_c, 0, 74, 85
2, 50182, Note_on_c, 0, 81, 0
2, 50183, Note_on_c, 0, 74, 0
2, 50190, Note_on_c, 0, 77, 61
2, 50193, Note_on_c, 0, 69, 59
2, 50196, Note_on_c, 0, 74, 35
2, 50198, Note_on_c, 0, 58, 33
2, 50214, Note_on_c, 0, 74, 0
2, 50217, Note_on_c, 0, 69, 0
2, 50227, Note_on_c, 0, 77, 0
2, 50242, Note_on_c, 0, 81, 77
2, 50242, Note_on_c, 0, 74, 79
2, 50271, Note_on_c, 0, 81, 0
2, 50272, Note_on_c, 0, 74, 0
2, 50279, Note_on_c, 0, 77, 55
2, 50286, Note_on_c, 0, 69, 53
2, 50289, Note_on_c, 0, 58, 0
2, 50293, Note_on_c, 0, 77, 0
2, 50301, Note_on_c, 0, 69, 0
2, 50333, Note_on_c, 0, 74, 55
2, 50333, Note_on_c, 0, 77, 60
2, 50335, Note_on_c, 0, 70, 56
2, 50336, Note_on_c, 0, 58, 32
2, 50340, Note_on_c, 0, 69, 33
2, 50346, Note_on_c, 0, 69, 0
2, 50359, Note_on_c, 0, 74, 0
2, 50361, Note_on_c, 0, 77, 0
2, 50365, Note_on_c, 0, 70, 0
2, 50374, Note_on_c, 0, 69, 37
2, 50387, Note_on_c, 0, 69, 0
2, 50387, Note_on_c, 0, 74, 42
2, 50401, Note_on_c, 0, 74, 0
2, 50413, Note_on_c, 0, 58, 0
2, 50419, Note_on_c, 0, 65, 53
2, 50419, Note_on_c, 0, 74, 36
2, 50420, Note_on_c, 0, 69, 38
2, 50421, Note_on_c, 0, 70, 47
2, 50432, Note_on_c, 0, 65, 0
2, 50450, Note_on_c, 0, 69, 0
2, 50453, Note_on_c, 0, 74, 0
2, 50456, Note_on_c, 0, 70, 0
2, 50509, Note_on_c, 0, 62, 36
2, 50510, Note_on_c, 0, 69, 40
2, 50512, Note_on_c, 0, 58, 30
2, 50512, Note_on_c, 0, 65, 41
2, 50537, Note_on_c, 0, 65, 0
2, 50540, Note_on_c, 0, 69, 0
2, 50542, Note_on_c, 0, 58, 0
2, 50545, Note_on_c, 0, 48, 0
2, 50548, Note_on_c, 0, 62, 0
2, 50569, Note_on_c, 0, 58, 34
2, 50569, Note_on_c, 0, 62, 28
2, 50571, Note_on_c, 0, 65, 47
2, 50590, Note_on_c, 0, 62, 0
2, 50604, Note_on_c, 0, 58, 0
2, 50620, Note_on_c, 0, 62, 48
2, 50623, Note_on_c, 0, 65, 0
2, 50647, Note_on_c, 0, 58, 44
2, 50661, Note_on_c, 0, 58, 0
2, 50666, Note_on_c, 0, 62, 0
2, 50686, Note_on_c, 0, 64, 45
2, 50686, Note_on_c, 0, 59, 38
2, 50690, Note_on_c, 0, 55, 38
2, 50692, Note_on_c, 0, 48, 34
2, 50695, Control_c, 0, 64, 0
2, 50735, Control_c, 0, 64, 127
2, 50778, Note_on_c, 0, 55, 0
2, 50791, Note_on_c, 0, 59, 0
2, 50865, Note_on_c, 0, 64, 0
2, 50868, Note_on_c, 0, 59, 31
2, 50870, Note_on_c, 0, 55, 22
2, 50886, Note_on_c, 0, 59, 0
2, 50949, Note_on_c, 0, 71, 46
2, 50950, Note_on_c, 0, 55, 0
2, 50952, Note_on_c, 0, 48, 0
2, 50958, Note_on_c, 0, 71, 0
2, 50975, Note_on_c, 0, 72, 30
2, 50976, Control_c, 0, 64, 0
2, 50987, Note_on_c, 0, 72, 0
2, 50991, Note_on_c, 0, 76, 38
2, 51003, Note_on_c, 0, 76, 0
2, 51007, Note_on_c, 0, 79, 60
2, 51013, Note_on_c, 0, 79, 0
2, 51029, Note_on_c, 0, 83, 74
2, 51040, Note_on_c, 0, 83, 0
2, 51051, Note_on_c, 0, 86, 88
2, 51051, Note_on_c, 0, 74, 80
2, 51056, Note_on_c, 0, 76, 39
2, 51062, Note_on_c, 0, 76, 0
2, 51062, Note_on_c, 0, 55, 50
2, 51066, Note_on_c, 0, 45, 29
2, 51068, Note_on_c, 0, 74, 0
2, 51073, Note_on_c, 0, 86, 0
2, 51110, Note_on_c, 0, 85, 84
2, 51130, Note_on_c, 0, 85, 0
2, 51151, Note_on_c, 0, 84, 80
2, 51169, Note_on_c, 0, 84, 0
2, 51193, Note_on_c, 0, 45, 0
2, 51193, Control_c, 0, 64, 127
2, 51195, Note_on_c, 0, 71, 37
2, 51202, Note_on_c, 0, 55, 0
2, 51212, Note_on_c, 0, 71, 0
2, 51223, Control_c, 0, 64, 0
2, 51230, Note_on_c, 0, 83, 68
2, 51231, Note_on_c, 0, 44, 42
2, 51231, Note_on_c, 0, 54, 38
2, 51251, Note_on_c, 0, 83, 0
2, 51275, Note_on_c, 0, 82, 71
2, 51276, Note_on_c, 0, 70, 64
2, 51276, Control_c, 0, 64, 127
2, 51296, Note_on_c, 0, 70, 0
2, 51296, Note_on_c, 0, 82, 0
2, 51303, Control_c, 0, 64, 0
2, 51316, Note_on_c, 0, 81, 41
2, 51318, Note_on_c, 0, 69, 58
2, 51324, Note_on_c, 0, 80, 26
2, 51329, Note_on_c, 0, 69, 0
2, 51329, Note_on_c, 0, 81, 0
2, 51331, Note_on_c, 0, 80, 0
2, 51348, Control_c, 0, 64, 127
2, 51363, Note_on_c, 0, 80, 46
2, 51368, Note_on_c, 0, 68, 53
2, 51370, Note_on_c, 0, 54, 0
2, 51374, Note_on_c, 0, 50, 25
2, 51386, Note_on_c, 0, 80, 0
2, 51388, Note_on_c, 0, 44, 0
2, 51389, Note_on_c, 0, 68, 0
2, 51389, Note_on_c, 0, 50, 0
2, 51396, Control_c, 0, 64, 0
2, 51407, Note_on_c, 0, 79, 53
2, 51407, Note_on_c, 0, 43, 35
2, 51407, Note_on_c, 0, 53, 37
2, 51414, Note_on_c, 0, 67, 35
2, 51419, Control_c, 0, 64, 127
2, 51435, Note_on_c, 0, 67, 0
2, 51435, Note_on_c, 0, 43, 0
2, 51436, Note_on_c, 0, 79, 0
2, 51448, Note_on_c, 0, 53, 0
2, 51455, Note_on_c, 0, 78, 67
2, 51481, Note_on_c, 0, 78, 0
2, 51496, Note_on_c, 0, 74, 47
2, 51499, Control_c, 0, 64, 0
2, 51526, Control_c, 0, 64, 127
2, 51532, Note_on_c, 0, 74, 0
2, 51542, Note_on_c, 0, 77, 85
2, 51571, Note_on_c, 0, 77, 0
2, 51578, Control_c, 0, 64, 0
2, 51580, Note_on_c, 0, 62, 40
2, 51583, Note_on_c, 0, 57, 34
2, 51584, Note_on_c, 0, 76, 66
2, 51584, Note_on_c, 0, 58, 31
2, 51612, Control_c, 0, 64, 127
2, 51621, Note_on_c, 0, 76, 0
2, 51631, Note_on_c, 0, 72, 70
2, 51648, Note_on_c, 0, 72, 0
2, 51660, Note_on_c, 0, 62, 0
2, 51668, Note_on_c, 0, 57, 0
2, 51668, Note_on_c, 0, 58, 0
2, 51669, Note_on_c, 0, 70, 56
2, 51694, Note_on_c, 0, 70, 0
2, 51715, Note_on_c, 0, 69, 71
2, 51740, Note_on_c, 0, 69, 0
2, 51751, Control_c, 0, 64, 0
2, 51757, Note_on_c, 0, 42, 38
2, 51758, Note_on_c, 0, 30, 38
2, 51759, Note_on_c, 0, 67, 52
2, 51780, Control_c, 0, 64, 127
2, 51795, Note_on_c, 0, 67, 0
2, 51798, Note_on_c, 0, 30, 0
2, 51805, Note_on_c, 0, 66, 52
2, 51808, Note_on_c, 0, 42, 0
2, 51835, Note_on_c, 0, 66, 0
2, 51845, Note_on_c, 0, 64, 55
2, 51862, Note_on_c, 0, 64, 0
2, 51883, Control_c, 0, 64, 0
2, 51935, Note_on_c, 0, 63, 44
2, 51937, Note_on_c, 0, 51, 46
2, 51939, Note_on_c, 0, 56, 44
2, 51941, Note_on_c, 0, 52, 28
2, 51944, Note_on_c, 0, 60, 32
2, 51953, Control_c, 0, 64, 127
2, 51970, Note_on_c, 0, 60, 0
2, 51973, Note_on_c, 0, 52, 0
2, 51976, Note_on_c, 0, 63, 0
2, 51977, Note_on_c, 0, 51, 0
2, 51983, Note_on_c, 0, 61, 38
2, 51985, Note_on_c, 0, 52, 25
2, 51986, Note_on_c, 0, 49, 39
2, 52005, Control_c, 0, 64, 0
2, 52006, Note_on_c, 0, 52, 0
2, 52014, Note_on_c, 0, 49, 0
2, 52015, Note_on_c, 0, 61, 0
2, 52027, Note_on_c, 0, 60, 60
2, 52037, Control_c, 0, 64, 127
2, 52050, Control_c, 0, 64, 0
2, 52062, Control_c, 0, 64, 127
2, 52064, Note_on_c, 0, 60, 0
2, 52064, Note_on_c, 0, 56, 0
2, 52076, Note_on_c, 0, 58, 45
2, 52104, Note_on_c, 0, 58, 0
2, 52118, Note_on_c, 0, 60, 44
2, 52125, Note_on_c, 0, 41, 54
2, 52125, Control_c, 0, 64, 0
2, 52141, Note_on_c, 0, 60, 0
2, 52151, Control_c, 0, 64, 127
2, 52176, Note_on_c, 0, 41, 0
2, 52176, Note_on_c, 0, 48, 50
2, 52182, Note_on_c, 0, 48, 0
2, 52218, Note_on_c, 0, 74, 74
2, 52219, Note_on_c, 0, 60, 71
2, 52220, Note_on_c, 0, 63, 57
2, 52221, Note_on_c, 0, 67, 66
2, 52222, Note_on_c, 0, 70, 44
2, 52254, Note_on_c, 0, 63, 0
2, 52257, Note_on_c, 0, 67, 0
2, 52257, Note_on_c, 0, 74, 0
2, 52262, Note_on_c, 0, 70, 0
2, 52271, Note_on_c, 0, 74, 67
2, 52273, Note_on_c, 0, 60, 0
2, 52273, Note_on_c, 0, 70, 68
2, 52273, Note_on_c, 0, 67, 68
2, 52273, Note_on_c, 0, 63, 76
2, 52275, Note_on_c, 0, 62, 87
2, 52303, Note_on_c, 0, 63, 0
2, 52307, Note_on_c, 0, 67, 0
2, 52307, Note_on_c, 0, 74, 0
2, 52315, Note_on_c, 0, 70, 0
2, 52327, Note_on_c, 0, 74, 64
2, 52329, Note_on_c, 0, 70, 62
2, 52329, Note_on_c, 0, 63, 69
2, 52329, Note_on_c, 0, 67, 62
2, 52330, Control_c, 0, 64, 0
2, 52345, Control_c, 0, 64, 127
2, 52364, Note_on_c, 0, 74, 0
2, 52365, Note_on_c, 0, 67, 0
2, 52370, Note_on_c, 0, 63, 0
2, 52377, Note_on_c, 0, 70, 0
2, 52387, Note_on_c, 0, 74, 65
2, 52389, Note_on_c, 0, 63, 64
2, 52391, Note_on_c, 0, 70, 46
2, 52391, Note_on_c, 0, 67, 62
2, 52394, Note_on_c, 0, 60, 38
2, 52396, Note_on_c, 0, 62, 0
2, 52403, Note_on_c, 0, 60, 0
2, 52424, Note_on_c, 0, 74, 0
2, 52426, Note_on_c, 0, 70, 0
2, 52427, Note_on_c, 0, 63, 0
2, 52427, Note_on_c, 0, 67, 0
2, 52438, Note_on_c, 0, 72, 62
2, 52439, Note_on_c, 0, 63, 25
2, 52462, Note_on_c, 0, 63, 0
2, 52473, Note_on_c, 0, 72, 0
2, 52494, Note_on_c, 0, 74, 64
2, 52496, Note_on_c, 0, 63, 42
2, 52496, Note_on_c, 0, 66, 44
2, 52499, Note_on_c, 0, 57, 37
2, 52500, Note_on_c, 0, 51, 33
2, 52501, Note_on_c, 0, 69, 37
2, 52502, Control_c, 0, 64, 0
2, 52536, Control_c, 0, 64, 127
2, 52554, Note_on_c, 0, 57, 0
2, 52556, Note_on_c, 0, 51, 0
2, 52608, Note_on_c, 0, 69, 0
2, 52616, Note_on_c, 0, 66, 0
2, 52617, Note_on_c, 0, 63, 0
2, 52620, Note_on_c, 0, 74, 0
2, 52664, Note_on_c, 0, 66, 37
2, 52664, Note_on_c, 0, 41, 43
2, 52668, Note_on_c, 0, 63, 21
2, 52668, Note_on_c, 0, 69, 32
2, 52681, Note_on_c, 0, 41, 0
2, 52696, Note_on_c, 0, 63, 0
2, 52722, Note_on_c, 0, 69, 0
2, 52740, Note_on_c, 0, 66, 0
2, 52768, Note_on_c, 0, 72, 68
2, 52806, Note_on_c, 0, 72, 0
2, 52831, Note_on_c, 0, 50, 35
2, 52833, Note_on_c, 0, 60, 36
2, 52834, Note_on_c, 0, 65, 58
2, 52834, Control_c, 0, 64, 0
2, 52835, Note_on_c, 0, 57, 32
2, 52859, Note_on_c, 0, 65, 0
2, 52861, Control_c, 0, 64, 127
2, 52890, Note_on_c, 0, 77, 55
2, 52902, Note_on_c, 0, 60, 0
2, 52918, Note_on_c, 0, 77, 0
2, 52923, Note_on_c, 0, 57, 0
2, 52943, Note_on_c, 0, 77, 78
2, 52977, Note_on_c, 0, 77, 0
2, 52994, Note_on_c, 0, 77, 68
2, 53001, Note_on_c, 0, 75, 53
2, 53003, Note_on_c, 0, 72, 80
2, 53005, Note_on_c, 0, 57, 47
2, 53007, Note_on_c, 0, 60, 57
2, 53009, Note_on_c, 0, 65, 72
2, 53011, Note_on_c, 0, 75, 0
2, 53016, Note_on_c, 0, 60, 0
2, 53023, Note_on_c, 0, 57, 0
2, 53033, Note_on_c, 0, 50, 0
2, 53047, Note_on_c, 0, 77, 0
2, 53056, Note_on_c, 0, 65, 0
2, 53056, Note_on_c, 0, 72, 0
2, 53064, Note_on_c, 0, 77, 66
2, 53091, Note_on_c, 0, 77, 0
2, 53113, Note_on_c, 0, 77, 61
2, 53147, Note_on_c, 0, 77, 0
2, 53169, Note_on_c, 0, 77, 62
2, 53170, Note_on_c, 0, 39, 33
2, 53175, Note_on_c, 0, 70, 54
2, 53177, Note_on_c, 0, 54, 32
2, 53179, Control_c, 0, 64, 0
2, 53185, Note_on_c, 0, 66, 14
2, 53210, Control_c, 0, 64, 127
2, 53223, Note_on_c, 0, 77, 0
2, 53232, Note_on_c, 0, 39, 0
2, 53237, Note_on_c, 0, 77, 64
2, 53255, Note_on_c, 0, 54, 0
2, 53267, Note_on_c, 0, 77, 0
2, 53284, Note_on_c, 0, 66, 0
2, 53292, Note_on_c, 0, 77, 57
2, 53304, Note_on_c, 0, 70, 0
2, 53321, Note_on_c, 0, 77, 0
2, 53351, Note_on_c, 0, 65, 41
2, 53351, Note_on_c, 0, 77, 44
2, 53351, Note_on_c, 0, 70, 45
2, 53353, Note_on_c, 0, 54, 25
2, 53354, Note_on_c, 0, 66, 31
2, 53355, Note_on_c, 0, 60, 34
2, 53398, Note_on_c, 0, 77, 0
2, 53412, Note_on_c, 0, 75, 60
2, 53427, Note_on_c, 0, 65, 0
2, 53428, Note_on_c, 0, 60, 0
2, 53457, Note_on_c, 0, 54, 0
2, 53466, Note_on_c, 0, 66, 0
2, 53475, Note_on_c, 0, 75, 0
2, 53492, Note_on_c, 0, 70, 0
2, 53534, Note_on_c, 0, 76, 46
2, 53537, Note_on_c, 0, 69, 40
2, 53539, Note_on_c, 0, 65, 38
2, 53540, Note_on_c, 0, 60, 32
2, 53540, Control_c, 0, 64, 0
2, 53542, Note_on_c, 0, 50, 34
2, 53543, Note_on_c, 0, 57, 26
2, 53580, Control_c, 0, 64, 127
2, 53604, Note_on_c, 0, 57, 0
2, 53631, Note_on_c, 0, 60, 0
2, 53673, Note_on_c, 0, 69, 0
2, 53678, Note_on_c, 0, 65, 0
2, 53715, Note_on_c, 0, 65, 32
2, 53715, Note_on_c, 0, 69, 32
2, 53716, Note_on_c, 0, 60, 32
2, 53722, Note_on_c, 0, 57, 19
2, 53760, Note_on_c, 0, 76, 0
2, 53768, Note_on_c, 0, 69, 0
2, 53774, Note_on_c, 0, 60, 0
2, 53785, Note_on_c, 0, 57, 0
2, 53797, Note_on_c, 0, 65, 0
2, 53812, Note_on_c, 0, 50, 0
2, 53889, Note_on_c, 0, 67, 48
2, 53892, Note_on_c, 0, 59, 34
2, 53893, Note_on_c, 0, 63, 36
2, 53895, Note_on_c, 0, 53, 33
2, 53896, Note_on_c, 0, 49, 35
2, 53900, Control_c, 0, 64, 0
2, 53938, Control_c, 0, 64, 127
2, 53963, Note_on_c, 0, 53, 0
2, 53975, Note_on_c, 0, 59, 0
2, 54010, Note_on_c, 0, 63, 0
2, 54049, Note_on_c, 0, 67, 0
2, 54072, Note_on_c, 0, 63, 39
2, 54075, Note_on_c, 0, 59, 28
2, 54076, Note_on_c, 0, 53, 31
2, 54099, Note_on_c, 0, 49, 0
2, 54126, Note_on_c, 0, 59, 0
2, 54150, Note_on_c, 0, 63, 0
2, 54169, Note_on_c, 0, 49, 36
2, 54185, Note_on_c, 0, 53, 0
2, 54200, Note_on_c, 0, 49, 0
2, 54257, Note_on_c, 0, 74, 66
2, 54258, Note_on_c, 0, 48, 67
2, 54264, Control_c, 0, 64, 0
2, 54294, Control_c, 0, 64, 127
2, 54342, Note_on_c, 0, 62, 45
2, 54342, Note_on_c, 0, 67, 49
2, 54346, Note_on_c, 0, 55, 32
2, 54390, Note_on_c, 0, 67, 0
2, 54396, Note_on_c, 0, 62, 0
2, 54430, Note_on_c, 0, 67, 41
2, 54430, Note_on_c, 0, 62, 42
2, 54433, Note_on_c, 0, 59, 33
2, 54491, Note_on_c, 0, 48, 0
2, 54513, Note_on_c, 0, 48, 57
2, 54556, Note_on_c, 0, 48, 0
2, 54596, Note_on_c, 0, 48, 67
2, 54603, Note_on_c, 0, 55, 0
2, 54604, Note_on_c, 0, 74, 0
2, 54604, Note_on_c, 0, 59, 0
2, 54607, Note_on_c, 0, 67, 0
2, 54618, Note_on_c, 0, 48, 0
2, 54620, Note_on_c, 0, 62, 0
2, 54684, Note_on_c, 0, 45, 75
2, 54684, Note_on_c, 0, 60, 94
2, 54685, Note_on_c, 0, 55, 80
2, 54685, Note_on_c, 0, 64, 83
2, 54694, Control_c, 0, 64, 0
2, 54718, Control_c, 0, 64, 127
2, 54742, Note_on_c, 0, 60, 0
2, 54743, Note_on_c, 0, 45, 0
2, 54744, Note_on_c, 0, 55, 0
2, 54759, Note_on_c, 0, 64, 0
2, 54773, Note_on_c, 0, 63, 67
2, 54773, Note_on_c, 0, 59, 62
2, 54774, Note_on_c, 0, 44, 62
2, 54775, Note_on_c, 0, 54, 52
2, 54777, Control_c, 0, 64, 0
2, 54800, Control_c, 0, 64, 127
2, 54825, Note_on_c, 0, 59, 0
2, 54840, Note_on_c, 0, 54, 0
2, 54844, Note_on_c, 0, 44, 0
2, 54846, Note_on_c, 0, 63, 0
2, 54860, Note_on_c, 0, 58, 53
2, 54861, Note_on_c, 0, 53, 41
2, 54861, Note_on_c, 0, 62, 58
2, 54861, Note_on_c, 0, 43, 42
2, 54864, Control_c, 0, 64, 0
2, 54886, Control_c, 0, 64, 127
2, 54907, Note_on_c, 0, 43, 0
2, 54907, Note_on_c, 0, 53, 0
2, 54916, Note_on_c, 0, 58, 0
2, 54920, Note_on_c, 0, 62, 0
2, 54943, Control_c, 0, 64, 0
2, 54944, Note_on_c, 0, 61, 45
2, 54947, Note_on_c, 0, 57, 40
2, 54947, Note_on_c, 0, 42, 39
2, 54948, Note_on_c, 0, 52, 33
2, 54970, Control_c, 0, 64, 127
2, 54975, Note_on_c, 0, 57, 0
2, 54986, Note_on_c, 0, 61, 0
2, 55011, Note_on_c, 0, 42, 0
2, 55016, Note_on_c, 0, 52, 0
2, 55052, Note_on_c, 0, 71, 66
2, 55073, Note_on_c, 0, 71, 0
2, 55113, Note_on_c, 0, 64, 37
2, 55114, Note_on_c, 0, 60, 34
2, 55116, Note_on_c, 0, 54, 26
2, 55173, Note_on_c, 0, 64, 0
2, 55180, Note_on_c, 0, 60, 0
2, 55195, Note_on_c, 0, 54, 0
2, 55216, Note_on_c, 0, 71, 68
2, 55231, Note_on_c, 0, 71, 0
2, 55241, Note_on_c, 0, 69, 47
2, 55256, Note_on_c, 0, 69, 0
2, 55268, Control_c, 0, 64, 0
2, 55275, Note_on_c, 0, 51, 33
2, 55276, Note_on_c, 0, 71, 53
2, 55277, Note_on_c, 0, 57, 27
2, 55277, Note_on_c, 0, 47, 34
2, 55294, Control_c, 0, 64, 127
2, 55332, Note_on_c, 0, 47, 0
2, 55341, Note_on_c, 0, 57, 0
2, 55343, Note_on_c, 0, 51, 0
2, 55381, Note_on_c, 0, 71, 0
2, 55432, Note_on_c, 0, 79, 63
2, 55436, Note_on_c, 0, 75, 64
2, 55442, Note_on_c, 0, 71, 62
2, 55464, Note_on_c, 0, 71, 0
2, 55474, Note_on_c, 0, 79, 0
2, 55475, Note_on_c, 0, 75, 0
2, 55489, Note_on_c, 0, 77, 58
2, 55496, Note_on_c, 0, 73, 34
2, 55496, Control_c, 0, 64, 0
2, 55497, Note_on_c, 0, 51, 28
2, 55497, Note_on_c, 0, 62, 24
2, 55499, Note_on_c, 0, 57, 35
2, 55500, Note_on_c, 0, 69, 33
2, 55520, Control_c, 0, 64, 127
2, 55525, Note_on_c, 0, 77, 0
2, 55530, Note_on_c, 0, 73, 0
2, 55532, Note_on_c, 0, 69, 0
2, 55552, Note_on_c, 0, 75, 62
2, 55555, Note_on_c, 0, 71, 50
2, 55556, Note_on_c, 0, 67, 44
2, 55572, Note_on_c, 0, 71, 0
2, 55576, Note_on_c, 0, 67, 0
2, 55578, Note_on_c, 0, 75, 0
2, 55595, Note_on_c, 0, 51, 0
2, 55602, Note_on_c, 0, 74, 62
2, 55605, Note_on_c, 0, 69, 55
2, 55614, Note_on_c, 0, 69, 0
2, 55623, Note_on_c, 0, 74, 0
2, 55631, Note_on_c, 0, 51, 46
2, 55646, Note_on_c, 0, 57, 0
2, 55649, Note_on_c, 0, 75, 25
2, 55653, Note_on_c, 0, 51, 0
2, 55654, Note_on_c, 0, 75, 0
2, 55656, Note_on_c, 0, 62, 0
2, 55668, Note_on_c, 0, 71, 55
2, 55669, Note_on_c, 0, 52, 58
2, 55669, Note_on_c, 0, 78, 53
2, 55673, Control_c, 0, 64, 0
2, 55703, Control_c, 0, 64, 127
2, 55715, Note_on_c, 0, 71, 0
2, 55724, Note_on_c, 0, 59, 39
2, 55727, Note_on_c, 0, 66, 36
2, 55729, Note_on_c, 0, 74, 39
2, 55729, Note_on_c, 0, 71, 30
2, 55757, Note_on_c, 0, 71, 0
2, 55774, Note_on_c, 0, 66, 0
2, 55838, Note_on_c, 0, 71, 40
2, 55838, Note_on_c, 0, 64, 46
2, 55838, Note_on_c, 0, 66, 29
2, 55871, Note_on_c, 0, 64, 0
2, 55882, Note_on_c, 0, 52, 0
2, 55892, Note_on_c, 0, 74, 0
2, 55894, Note_on_c, 0, 71, 0
2, 55896, Note_on_c, 0, 78, 0
2, 55910, Note_on_c, 0, 66, 0
2, 55952, Note_on_c, 0, 52, 34
2, 55954, Note_on_c, 0, 59, 0
2, 55972, Note_on_c, 0, 52, 0
2, 56196, Note_on_c, 0, 59, 60
2, 56196, Note_on_c, 0, 62, 55
2, 56197, Note_on_c, 0, 54, 53
2, 56204, Control_c, 0, 64, 0
2, 56223, Control_c, 0, 64, 127
2, 56252, Note_on_c, 0, 59, 0
2, 56265, Note_on_c, 0, 54, 0
2, 56281, Note_on_c, 0, 59, 43
2, 56283, Note_on_c, 0, 53, 44
2, 56284, Control_c, 0, 64, 0
2, 56285, Note_on_c, 0, 43, 35
2, 56305, Note_on_c, 0, 59, 0
2, 56306, Control_c, 0, 64, 127
2, 56323, Note_on_c, 0, 53, 0
2, 56359, Note_on_c, 0, 43, 0
2, 56361, Control_c, 0, 64, 0
2, 56365, Note_on_c, 0, 42, 50
2, 56366, Note_on_c, 0, 57, 43
2, 56390, Note_on_c, 0, 57, 0
2, 56395, Note_on_c, 0, 62, 0
2, 56396, Control_c, 0, 64, 127
2, 56448, Note_on_c, 0, 69, 67
2, 56451, Control_c, 0, 64, 0
2, 56452, Note_on_c, 0, 64, 71
2, 56452, Note_on_c, 0, 52, 53
2, 56452, Note_on_c, 0, 61, 63
2, 56453, Note_on_c, 0, 67, 38
2, 56456, Note_on_c, 0, 57, 58
2, 56476, Control_c, 0, 64, 127
2, 56510, Note_on_c, 0, 57, 0
2, 56510, Note_on_c, 0, 69, 0
2, 56512, Note_on_c, 0, 61, 0
2, 56514, Note_on_c, 0, 52, 0
2, 56519, Note_on_c, 0, 64, 0
2, 56519, Note_on_c, 0, 67, 0
2, 56533, Note_on_c, 0, 69, 75
2, 56533, Note_on_c, 0, 61, 62
2, 56534, Note_on_c, 0, 64, 69
2, 56535, Note_on_c, 0, 57, 58
2, 56535, Note_on_c, 0, 52, 38
2, 56568, Note_on_c, 0, 42, 0
2, 56587, Note_on_c, 0, 69, 0
2, 56592, Note_on_c, 0, 57, 0
2, 56608, Note_on_c, 0, 61, 0
2, 56612, Note_on_c, 0, 64, 0
2, 56632, Note_on_c, 0, 52, 0
2, 56638, Note_on_c, 0, 71, 80
2, 56665, Note_on_c, 0, 71, 0
2, 56706, Note_on_c, 0, 74, 67
2, 56711, Note_on_c, 0, 66, 68
2, 56712, Note_on_c, 0, 47, 43
2, 56713, Note_on_c, 0, 62, 66
2, 56715, Note_on_c, 0, 57, 47
2, 56717, Control_c, 0, 64, 0
2, 56760, Control_c, 0, 64, 127
2, 56803, Note_on_c, 0, 57, 0
2, 56807, Note_on_c, 0, 54, 28
2, 56818, Note_on_c, 0, 66, 0
2, 56818, Note_on_c, 0, 62, 0
2, 56871, Note_on_c, 0, 74, 0
2, 56875, Note_on_c, 0, 66, 35
2, 56879, Note_on_c, 0, 62, 45
2, 56883, Note_on_c, 0, 57, 32
2, 56928, Note_on_c, 0, 47, 0
2, 56930, Note_on_c, 0, 62, 0
2, 56932, Note_on_c, 0, 66, 0
2, 56956, Note_on_c, 0, 54, 0
2, 56967, Note_on_c, 0, 57, 0
2, 56972, Note_on_c, 0, 74, 51
2, 56986, Note_on_c, 0, 74, 0
2, 57063, Note_on_c, 0, 58, 58
2, 57064, Note_on_c, 0, 86, 62
2, 57068, Note_on_c, 0, 79, 55
2, 57068, Note_on_c, 0, 48, 51
2, 57071, Note_on_c, 0, 75, 37
2, 57073, Control_c, 0, 64, 0
2, 57107, Control_c, 0, 64, 127
2, 57114, Note_on_c, 0, 86, 0
2, 57121, Note_on_c, 0, 79, 0
2, 57129, Note_on_c, 0, 58, 0
2, 57131, Note_on_c, 0, 48, 0
2, 57136, Note_on_c, 0, 75, 0
2, 57144, Note_on_c, 0, 55, 42
2, 57166, Note_on_c, 0, 55, 0
2, 57225, Note_on_c, 0, 67, 44
2, 57227, Note_on_c, 0, 62, 40
2, 57227, Note_on_c, 0, 63, 32
2, 57279, Note_on_c, 0, 63, 0
2, 57282, Note_on_c, 0, 69, 62
2, 57316, Note_on_c, 0, 67, 0
2, 57324, Note_on_c, 0, 69, 0
2, 57332, Note_on_c, 0, 70, 54
2, 57372, Note_on_c, 0, 70, 0
2, 57389, Note_on_c, 0, 70, 54
2, 57391, Note_on_c, 0, 62, 0
2, 57391, Note_on_c, 0, 67, 54
2, 57393, Note_on_c, 0, 63, 35
2, 57396, Note_on_c, 0, 57, 35
2, 57401, Control_c, 0, 64, 0
2, 57428, Control_c, 0, 64, 127
2, 57434, Note_on_c, 0, 70, 0
2, 57435, Note_on_c, 0, 67, 0
2, 57440, Note_on_c, 0, 72, 68
2, 57442, Note_on_c, 0, 69, 25
2, 57449, Note_on_c, 0, 69, 0
2, 57463, Note_on_c, 0, 72, 0
2, 57488, Note_on_c, 0, 72, 62
2, 57488, Note_on_c, 0, 69, 59
2, 57507, Note_on_c, 0, 63, 0
2, 57513, Note_on_c, 0, 69, 0
2, 57517, Note_on_c, 0, 72, 0
2, 57523, Note_on_c, 0, 74, 67
2, 57523, Note_on_c, 0, 70, 64
2, 57550, Note_on_c, 0, 74, 0
2, 57551, Note_on_c, 0, 70, 0
2, 57563, Note_on_c, 0, 70, 64
2, 57564, Note_on_c, 0, 74, 58
2, 57570, Note_on_c, 0, 63, 36
2, 57571, Note_on_c, 0, 67, 34
2, 57572, Control_c, 0, 64, 0
2, 57579, Note_on_c, 0, 70, 0
2, 57581, Note_on_c, 0, 74, 0
2, 57587, Control_c, 0, 64, 127
2, 57600, Note_on_c, 0, 75, 57
2, 57601, Note_on_c, 0, 72, 33
2, 57612, Note_on_c, 0, 57, 0
2, 57622, Note_on_c, 0, 72, 0
2, 57624, Note_on_c, 0, 75, 0
2, 57631, Note_on_c, 0, 67, 0
2, 57645, Note_on_c, 0, 75, 67
2, 57648, Note_on_c, 0, 72, 64
2, 57667, Note_on_c, 0, 63, 0
2, 57669, Note_on_c, 0, 72, 0
2, 57679, Note_on_c, 0, 75, 0
2, 57687, Note_on_c, 0, 77, 68
2, 57752, Note_on_c, 0, 62, 74
2, 57752, Note_on_c, 0, 58, 70
2, 57754, Note_on_c, 0, 59, 73
2, 57754, Note_on_c, 0, 54, 64
2, 57760, Control_c, 0, 64, 0
2, 57813, Control_c, 0, 64, 127
2, 57883, Note_on_c, 0, 59, 0
2, 57890, Note_on_c, 0, 58, 0
2, 57891, Note_on_c, 0, 62, 0
2, 57928, Note_on_c, 0, 77, 0
2, 57936, Note_on_c, 0, 58, 37
2, 57937, Note_on_c, 0, 62, 49
2, 57939, Note_on_c, 0, 59, 47
2, 57984, Note_on_c, 0, 73, 83
2, 58018, Note_on_c, 0, 73, 0
2, 58030, Note_on_c, 0, 71, 96
2, 58052, Note_on_c, 0, 71, 0
2, 58073, Note_on_c, 0, 74, 105
2, 58098, Note_on_c, 0, 62, 0
2, 58115, Note_on_c, 0, 58, 0
2, 58116, Note_on_c, 0, 54, 0
2, 58119, Note_on_c, 0, 74, 0
2, 58124, Note_on_c, 0, 73, 59
2, 58125, Note_on_c, 0, 53, 41
2, 58125, Note_on_c, 0, 62, 29
2, 58129, Control_c, 0, 64, 0
2, 58177, Control_c, 0, 64, 127
2, 58183, Note_on_c, 0, 67, 55
2, 58213, Note_on_c, 0, 62, 0
2, 58217, Note_on_c, 0, 59, 0
2, 58226, Note_on_c, 0, 53, 0
2, 58296, Note_on_c, 0, 73, 0
2, 58301, Note_on_c, 0, 43, 48
2, 58312, Control_c, 0, 64, 0
2, 58322, Control_c, 0, 64, 127
2, 58413, Note_on_c, 0, 43, 0
2, 58421, Note_on_c, 0, 67, 0
2, 58426, Note_on_c, 0, 68, 61
2, 58471, Note_on_c, 0, 68, 0
2, 58490, Note_on_c, 0, 71, 53
2, 58491, Note_on_c, 0, 63, 47
2, 58495, Note_on_c, 0, 42, 47
2, 58500, Control_c, 0, 64, 0
2, 58502, Note_on_c, 0, 59, 14
2, 58543, Control_c, 0, 64, 127
2, 58557, Note_on_c, 0, 59, 0
2, 58561, Note_on_c, 0, 63, 0
2, 58562, Note_on_c, 0, 52, 53
2, 58571, Note_on_c, 0, 42, 0
2, 58580, Note_on_c, 0, 52, 0
2, 58619, Note_on_c, 0, 64, 69
2, 58621, Note_on_c, 0, 71, 0
2, 58621, Note_on_c, 0, 59, 59
2, 58628, Note_on_c, 0, 60, 52
2, 58633, Note_on_c, 0, 60, 0
2, 58652, Note_on_c, 0, 59, 0
2, 58697, Note_on_c, 0, 64, 0
2, 58787, Note_on_c, 0, 69, 60
2, 58802, Note_on_c, 0, 69, 0
2, 58856, Note_on_c, 0, 84, 69
2, 58860, Note_on_c, 0, 81, 72
2, 58862, Control_c, 0, 64, 0
2, 58863, Note_on_c, 0, 47, 46
2, 58864, Note_on_c, 0, 57, 45
2, 58872, Note_on_c, 0, 77, 13
2, 58888, Control_c, 0, 64, 127
2, 58890, Note_on_c, 0, 81, 0
2, 58900, Note_on_c, 0, 84, 0
2, 58901, Note_on_c, 0, 77, 0
2, 58929, Note_on_c, 0, 83, 60
2, 58932, Note_on_c, 0, 79, 56
2, 58933, Note_on_c, 0, 57, 0
2, 58933, Note_on_c, 0, 51, 37
2, 58937, Note_on_c, 0, 74, 45
2, 58961, Note_on_c, 0, 79, 0
2, 58964, Note_on_c, 0, 83, 0
2, 58970, Note_on_c, 0, 74, 0
2, 59028, Note_on_c, 0, 79, 45
2, 59032, Note_on_c, 0, 74, 35
2, 59032, Note_on_c, 0, 57, 31
2, 59034, Note_on_c, 0, 71, 48
2, 59040, Note_on_c, 0, 74, 0
2, 59048, Note_on_c, 0, 71, 0
2, 59050, Note_on_c, 0, 79, 0
2, 59057, Note_on_c, 0, 51, 0
2, 59091, Note_on_c, 0, 74, 43
2, 59097, Note_on_c, 0, 67, 44
2, 59099, Note_on_c, 0, 71, 30
2, 59114, Note_on_c, 0, 71, 0
2, 59114, Note_on_c, 0, 74, 0
2, 59122, Note_on_c, 0, 67, 0
2, 59137, Note_on_c, 0, 47, 0
2, 59146, Note_on_c, 0, 57, 0
2, 59152, Note_on_c, 0, 51, 30
2, 59173, Note_on_c, 0, 51, 0
2, 59203, Note_on_c, 0, 69, 64
2, 59207, Note_on_c, 0, 62, 58
2, 59208, Note_on_c, 0, 58, 42
2, 59210, Note_on_c, 0, 64, 44
2, 59212, Note_on_c, 0, 57, 29
2, 59214, Control_c, 0, 64, 0
2, 59248, Note_on_c, 0, 69, 0
2, 59249, Note_on_c, 0, 64, 0
2, 59251, Note_on_c, 0, 62, 0
2, 59257, Note_on_c, 0, 57, 0
2, 59258, Note_on_c, 0, 67, 38
2, 59263, Note_on_c, 0, 55, 32
2, 59282, Note_on_c, 0, 58, 0
2, 59284, Note_on_c, 0, 67, 0
2, 59299, Note_on_c, 0, 55, 0
2, 59302, Note_on_c, 0, 58, 47
2, 59303, Note_on_c, 0, 69, 54
2, 59306, Note_on_c, 0, 57, 35
2, 59307, Control_c, 0, 64, 127
2, 59308, Note_on_c, 0, 62, 36
2, 59310, Note_on_c, 0, 64, 30
2, 59327, Note_on_c, 0, 64, 0
2, 59327, Note_on_c, 0, 69, 0
2, 59328, Note_on_c, 0, 62, 0
2, 59331, Note_on_c, 0, 58, 0
2, 59337, Control_c, 0, 64, 0
2, 59341, Note_on_c, 0, 57, 0
2, 59344, Control_c, 0, 64, 127
2, 59350, Note_on_c, 0, 55, 41
2, 59385, Note_on_c, 0, 55, 0
2, 59390, Control_c, 0, 64, 0
2, 59392, Note_on_c, 0, 70, 67
2, 59394, Note_on_c, 0, 58, 49
2, 59395, Note_on_c, 0, 61, 49
2, 59399, Note_on_c, 0, 57, 48
2, 59399, Note_on_c, 0, 64, 39
2, 59414, Control_c, 0, 64, 127
2, 59430, Note_on_c, 0, 57, 0
2, 59432, Note_on_c, 0, 61, 0
2, 59437, Note_on_c, 0, 70, 0
2, 59439, Note_on_c, 0, 58, 0
2, 59442, Note_on_c, 0, 64, 0
2, 59456, Note_on_c, 0, 58, 59
2, 59456, Note_on_c, 0, 69, 71
2, 59460, Note_on_c, 0, 61, 36
2, 59460, Note_on_c, 0, 64, 31
2, 59474, Control_c, 0, 64, 0
2, 59486, Control_c, 0, 64, 127
2, 59523, Note_on_c, 0, 64, 0
2, 59526, Note_on_c, 0, 61, 0
2, 59532, Note_on_c, 0, 58, 0
2, 59537, Note_on_c, 0, 69, 0
2, 59560, Note_on_c, 0, 58, 36
2, 59561, Note_on_c, 0, 64, 38
2, 59562, Note_on_c, 0, 61, 44
2, 59563, Note_on_c, 0, 55, 42
2, 59567, Note_on_c, 0, 45, 47
2, 59573, Control_c, 0, 64, 0
2, 59597, Control_c, 0, 64, 127
2, 59636, Note_on_c, 0, 55, 0
2, 59667, Note_on_c, 0, 58, 0
2, 59682, Note_on_c, 0, 61, 0
2, 59737, Note_on_c, 0, 64, 0
2, 59739, Note_on_c, 0, 61, 42
2, 59742, Note_on_c, 0, 55, 28
2, 59743, Note_on_c, 0, 58, 27
2, 59776, Note_on_c, 0, 58, 0
2, 59785, Note_on_c, 0, 61, 0
2, 59789, Note_on_c, 0, 55, 0
2, 59797, Note_on_c, 0, 63, 59
2, 59812, Note_on_c, 0, 45, 0
2, 59834, Note_on_c, 0, 63, 0
2, 59845, Note_on_c, 0, 64, 57
2, 59868, Note_on_c, 0, 64, 0
2, 59905, Note_on_c, 0, 67, 53
2, 59907, Note_on_c, 0, 60, 53
2, 59909, Note_on_c, 0, 50, 40
2, 59909, Note_on_c, 0, 57, 39
2, 59912, Note_on_c, 0, 65, 34
2, 59912, Control_c, 0, 64, 0
2, 59944, Control_c, 0, 64, 127
2, 60031, Note_on_c, 0, 60, 0
2, 60032, Note_on_c, 0, 67, 0
2, 60034, Note_on_c, 0, 65, 0
2, 60038, Note_on_c, 0, 57, 0
2, 60040, Note_on_c, 0, 50, 0
2, 60153, Note_on_c, 0, 65, 70
2, 60156, Note_on_c, 0, 61, 51
2, 60158, Note_on_c, 0, 60, 57
2, 60158, Note_on_c, 0, 45, 41
2, 60159, Control_c, 0, 64, 0
2, 60161, Note_on_c, 0, 55, 30
2, 60183, Control_c, 0, 64, 127
2, 60185, Note_on_c, 0, 45, 0
2, 60195, Note_on_c, 0, 65, 0
2, 60197, Note_on_c, 0, 60, 0
2, 60203, Note_on_c, 0, 55, 0
2, 60204, Note_on_c, 0, 61, 0
2, 60316, Note_on_c, 0, 61, 51
2, 60320, Note_on_c, 0, 56, 39
2, 60320, Note_on_c, 0, 44, 39
2, 60321, Control_c, 0, 64, 0
2, 60321, Note_on_c, 0, 59, 45
2, 60322, Note_on_c, 0, 53, 35
2, 60347, Control_c, 0, 64, 127
2, 60373, Note_on_c, 0, 53, 0
2, 60380, Note_on_c, 0, 56, 0
2, 60381, Note_on_c, 0, 59, 0
2, 60384, Note_on_c, 0, 61, 0
2, 60387, Note_on_c, 0, 44, 0
2, 60411, Note_on_c, 0, 62, 58
2, 60412, Note_on_c, 0, 43, 45
2, 60414, Control_c, 0, 64, 0
2, 60415, Note_on_c, 0, 57, 46
2, 60416, Note_on_c, 0, 53, 30
2, 60416, Note_on_c, 0, 59, 43
2, 60440, Control_c, 0, 64, 127
2, 60485, Note_on_c, 0, 43, 0
2, 60501, Note_on_c, 0, 53, 0
2, 60505, Note_on_c, 0, 62, 0
2, 60520, Note_on_c, 0, 59, 0
2, 60520, Note_on_c, 0, 63, 48
2, 60524, Note_on_c, 0, 57, 0
2, 60541, Note_on_c, 0, 63, 0
2, 60583, Note_on_c, 0, 36, 43
2, 60584, Control_c, 0, 64, 0
2, 60585, Note_on_c, 0, 64, 38
2, 60585, Note_on_c, 0, 43, 17
2, 60587, Note_on_c, 0, 60, 40
2, 60588, Note_on_c, 0, 52, 36
2, 60588, Note_on_c, 0, 57, 43
2, 60605, Note_on_c, 0, 57, 0
2, 60607, Note_on_c, 0, 60, 0
2, 60608, Control_c, 0, 64, 127
2, 60623, Note_on_c, 0, 64, 0
2, 60629, Note_on_c, 0, 36, 0
2, 60638, Note_on_c, 0, 43, 0
2, 60649, Note_on_c, 0, 52, 0
2, 60698, Note_on_c, 0, 74, 64
2, 60703, Note_on_c, 0, 71, 67
2, 60714, Note_on_c, 0, 74, 0
2, 60716, Note_on_c, 0, 69, 51
2, 60724, Note_on_c, 0, 71, 0
2, 60729, Note_on_c, 0, 69, 0
2, 60776, Note_on_c, 0, 67, 36
2, 60778, Note_on_c, 0, 62, 35
2, 60781, Note_on_c, 0, 64, 24
2, 60816, Note_on_c, 0, 86, 69
2, 60825, Note_on_c, 0, 83, 52
2, 60834, Note_on_c, 0, 67, 0
2, 60836, Note_on_c, 0, 81, 43
2, 60845, Note_on_c, 0, 86, 0
2, 60848, Note_on_c, 0, 64, 0
2, 60856, Note_on_c, 0, 81, 0
2, 60856, Note_on_c, 0, 83, 0
2, 60925, Note_on_c, 0, 79, 61
2, 60929, Note_on_c, 0, 76, 55
2, 60934, Note_on_c, 0, 74, 59
2, 60944, Note_on_c, 0, 67, 27
2, 60945, Note_on_c, 0, 64, 31
2, 60954, Note_on_c, 0, 79, 0
2, 60955, Note_on_c, 0, 74, 0
2, 60955, Note_on_c, 0, 76, 0
2, 60975, Note_on_c, 0, 67, 0
2, 60993, Note_on_c, 0, 74, 52
2, 60997, Note_on_c, 0, 71, 58
2, 61004, Note_on_c, 0, 69, 38
2, 61017, Note_on_c, 0, 64, 0
2, 61023, Note_on_c, 0, 71, 0
2, 61030, Note_on_c, 0, 74, 0
2, 61033, Note_on_c, 0, 69, 0
2, 61087, Note_on_c, 0, 62, 0
2, 61104, Note_on_c, 0, 67, 38
2, 61107, Note_on_c, 0, 64, 32
2, 61108, Note_on_c, 0, 62, 16
2, 61138, Note_on_c, 0, 67, 0
2, 61157, Note_on_c, 0, 64, 0
2, 61165, Note_on_c, 0, 62, 0
2, 61197, Note_on_c, 0, 79, 62
2, 61203, Note_on_c, 0, 74, 54
2, 61206, Note_on_c, 0, 67, 51
2, 61214, Note_on_c, 0, 67, 0
2, 61224, Note_on_c, 0, 79, 0
2, 61227, Note_on_c, 0, 74, 0
2, 61265, Note_on_c, 0, 81, 58
2, 61269, Note_on_c, 0, 74, 58
2, 61271, Note_on_c, 0, 77, 44
2, 61272, Note_on_c, 0, 57, 35
2, 61274, Control_c, 0, 64, 0
2, 61275, Note_on_c, 0, 48, 32
2, 61275, Note_on_c, 0, 69, 49
2, 61298, Control_c, 0, 64, 127
2, 61314, Note_on_c, 0, 81, 0
2, 61316, Note_on_c, 0, 74, 0
2, 61316, Note_on_c, 0, 77, 0
2, 61326, Note_on_c, 0, 57, 0
2, 61327, Note_on_c, 0, 69, 0
2, 61376, Note_on_c, 0, 74, 56
2, 61438, Note_on_c, 0, 74, 0
2, 61439, Note_on_c, 0, 70, 32
2, 61439, Note_on_c, 0, 62, 50
2, 61442, Note_on_c, 0, 67, 33
2, 61443, Note_on_c, 0, 58, 21
2, 61461, Note_on_c, 0, 62, 0
2, 61464, Note_on_c, 0, 67, 0
2, 61473, Note_on_c, 0, 70, 0
2, 61528, Note_on_c, 0, 86, 72
2, 61550, Note_on_c, 0, 58, 0
2, 61562, Note_on_c, 0, 74, 47
2, 61579, Note_on_c, 0, 74, 0
2, 61581, Note_on_c, 0, 86, 0
2, 61613, Note_on_c, 0, 58, 37
2, 61681, Note_on_c, 0, 58, 0
2, 61780, Note_on_c, 0, 58, 28
2, 61780, Note_on_c, 0, 62, 34
2, 61789, Note_on_c, 0, 48, 0
2, 61884, Note_on_c, 0, 48, 43
2, 61888, Note_on_c, 0, 62, 0
2, 61897, Note_on_c, 0, 58, 0
2, 61906, Note_on_c, 0, 48, 0
2, 61956, Note_on_c, 0, 36, 77
2, 61962, Control_c, 0, 64, 0
2, 62003, Note_on_c, 0, 43, 53
2, 62010, Control_c, 0, 64, 127
2, 62055, Note_on_c, 0, 64, 62
2, 62056, Note_on_c, 0, 50, 44
2, 62057, Note_on_c, 0, 57, 57
2, 62057, Note_on_c, 0, 59, 55
2, 62063, Control_c, 0, 64, 0
2, 62068, Note_on_c, 0, 36, 0
2, 62075, Control_c, 0, 64, 127
2, 62076, Note_on_c, 0, 43, 0
2, 62176, Note_on_c, 0, 50, 0
2, 62179, Control_c, 0, 64, 0
2, 62180, Note_on_c, 0, 52, 66
2, 62247, Note_on_c, 0, 59, 0
2, 62248, Note_on_c, 0, 57, 0
2, 62294, Note_on_c, 0, 59, 44
2, 62294, Note_on_c, 0, 57, 42
2, 62318, Note_on_c, 0, 57, 0
2, 62324, Note_on_c, 0, 59, 0
2, 62327, Note_on_c, 0, 64, 0
2, 62328, Note_on_c, 0, 52, 0
2, 62331, Control_c, 0, 64, 127
2, 62470, Control_c, 0, 64, 0
2, 62479, Note_on_c, 0, 67, 101
2, 62485, Control_c, 0, 64, 127
2, 62533, Note_on_c, 0, 72, 74
2, 62536, Note_on_c, 0, 67, 0
2, 62580, Note_on_c, 0, 72, 0
2, 62591, Note_on_c, 0, 71, 79
2, 62615, Note_on_c, 0, 71, 0
2, 62653, Note_on_c, 0, 70, 73
2, 62655, Note_on_c, 0, 42, 48
2, 62658, Control_c, 0, 64, 0
2, 62683, Control_c, 0, 64, 127
2, 62709, Note_on_c, 0, 68, 12
2, 62833, Note_on_c, 0, 58, 37
2, 62835, Note_on_c, 0, 64, 43
2, 62843, Note_on_c, 0, 52, 17
2, 62881, Note_on_c, 0, 58, 0
2, 62884, Note_on_c, 0, 64, 0
2, 62884, Note_on_c, 0, 68, 0
2, 62887, Note_on_c, 0, 42, 0
2, 62892, Note_on_c, 0, 70, 0
2, 62895, Note_on_c, 0, 52, 0
2, 62919, Note_on_c, 0, 75, 75
2, 62984, Note_on_c, 0, 75, 0
2, 63008, Note_on_c, 0, 75, 49
2, 63015, Note_on_c, 0, 72, 46
2, 63016, Note_on_c, 0, 68, 30
2, 63017, Note_on_c, 0, 64, 34
2, 63017, Note_on_c, 0, 58, 35
2, 63109, Note_on_c, 0, 64, 0
2, 63126, Note_on_c, 0, 72, 0
2, 63128, Note_on_c, 0, 68, 0
2, 63164, Note_on_c, 0, 58, 0
2, 63180, Note_on_c, 0, 75, 0
2, 63194, Note_on_c, 0, 68, 29
2, 63194, Note_on_c, 0, 72, 30
2, 63196, Note_on_c, 0, 64, 26
2, 63203, Note_on_c, 0, 58, 21
2, 63232, Note_on_c, 0, 64, 0
2, 63247, Note_on_c, 0, 72, 0
2, 63248, Note_on_c, 0, 68, 0
2, 63277, Note_on_c, 0, 74, 71
2, 63281, Note_on_c, 0, 73, 31
2, 63295, Note_on_c, 0, 73, 0
2, 63301, Note_on_c, 0, 74, 0
2, 63312, Note_on_c, 0, 58, 0
2, 63315, Note_on_c, 0, 75, 86
2, 63333, Note_on_c, 0, 75, 0
2, 63347, Note_on_c, 0, 77, 76
2, 63372, Note_on_c, 0, 77, 0
2, 63381, Note_on_c, 0, 75, 63
2, 63384, Note_on_c, 0, 58, 31
2, 63385, Note_on_c, 0, 67, 44
2, 63385, Note_on_c, 0, 63, 33
2, 63385, Control_c, 0, 64, 0
2, 63386, Note_on_c, 0, 70, 50
2, 63388, Note_on_c, 0, 53, 40
2, 63419, Control_c, 0, 64, 127
2, 63440, Note_on_c, 0, 75, 0
2, 63443, Note_on_c, 0, 70, 0
2, 63448, Note_on_c, 0, 63, 0
2, 63450, Note_on_c, 0, 67, 0
2, 63459, Note_on_c, 0, 60, 46
2, 63498, Note_on_c, 0, 60, 0
2, 63505, Note_on_c, 0, 58, 0
2, 63507, Note_on_c, 0, 74, 69
2, 63511, Note_on_c, 0, 67, 74
2, 63512, Note_on_c, 0, 62, 55
2, 63513, Note_on_c, 0, 63, 64
2, 63558, Note_on_c, 0, 74, 0
2, 63577, Note_on_c, 0, 74, 66
2, 63615, Note_on_c, 0, 74, 0
2, 63635, Note_on_c, 0, 62, 0
2, 63638, Note_on_c, 0, 74, 68
2, 63639, Note_on_c, 0, 53, 0
2, 63668, Note_on_c, 0, 74, 0
2, 63690, Note_on_c, 0, 63, 0
2, 63691, Note_on_c, 0, 67, 0
2, 63696, Note_on_c, 0, 74, 58
2, 63722, Note_on_c, 0, 74, 0
2, 63765, Note_on_c, 0, 74, 53
2, 63767, Note_on_c, 0, 66, 39
2, 63768, Control_c, 0, 64, 0
2, 63768, Note_on_c, 0, 62, 47
2, 63771, Note_on_c, 0, 69, 47
2, 63772, Note_on_c, 0, 57, 40
2, 63773, Note_on_c, 0, 51, 39
2, 63813, Control_c, 0, 64, 127
2, 63842, Note_on_c, 0, 57, 0
2, 63850, Note_on_c, 0, 51, 0
2, 63948, Note_on_c, 0, 74, 0
2, 63954, Control_c, 0, 64, 0
2, 63961, Note_on_c, 0, 29, 64
2, 63977, Control_c, 0, 64, 127
2, 64010, Note_on_c, 0, 69, 0
2, 64019, Note_on_c, 0, 29, 0
2, 64042, Note_on_c, 0, 62, 0
2, 64056, Note_on_c, 0, 66, 0
2, 64081, Note_on_c, 0, 72, 89
2, 64098, Note_on_c, 0, 72, 0
2, 64229, Note_on_c, 0, 65, 95
2, 64231, Note_on_c, 0, 60, 94
2, 64232, Note_on_c, 0, 50, 74
2, 64233, Note_on_c, 0, 57, 80
2, 64238, Note_on_c, 0, 59, 34
2, 64239, Control_c, 0, 64, 0
2, 64245, Note_on_c, 0, 59, 0
2, 64291, Control_c, 0, 64, 127
2, 64328, Note_on_c, 0, 65, 0
2, 64345, Note_on_c, 0, 65, 75
2, 64353, Note_on_c, 0, 64, 34
2, 64364, Note_on_c, 0, 64, 0
2, 64387, Note_on_c, 0, 50, 0
2, 64402, Note_on_c, 0, 65, 0
2, 64448, Note_on_c, 0, 65, 80
2, 64464, Note_on_c, 0, 57, 0
2, 64475, Note_on_c, 0, 60, 0
2, 64509, Note_on_c, 0, 65, 0
2, 64553, Control_c, 0, 64, 0
2, 64554, Note_on_c, 0, 65, 61
2, 64556, Note_on_c, 0, 39, 48
2, 64556, Note_on_c, 0, 61, 50
2, 64557, Note_on_c, 0, 58, 48
2, 64558, Note_on_c, 0, 54, 32
2, 64600, Control_c, 0, 64, 127
2, 64640, Note_on_c, 0, 65, 0
2, 64667, Note_on_c, 0, 65, 61
2, 64714, Note_on_c, 0, 61, 0
2, 64721, Note_on_c, 0, 58, 0
2, 64726, Note_on_c, 0, 54, 0
2, 64728, Note_on_c, 0, 65, 0
2, 64787, Note_on_c, 0, 65, 49
2, 64788, Note_on_c, 0, 58, 34
2, 64790, Note_on_c, 0, 54, 23
2, 64790, Note_on_c, 0, 61, 35
2, 64794, Control_c, 0, 64, 0
2, 64796, Note_on_c, 0, 44, 33
2, 64797, Note_on_c, 0, 39, 0
2, 64929, Control_c, 0, 64, 127
2, 64947, Note_on_c, 0, 65, 0
2, 64965, Note_on_c, 0, 63, 37
2, 65054, Note_on_c, 0, 44, 0
2, 65078, Note_on_c, 0, 54, 0
2, 65097, Note_on_c, 0, 63, 0
2, 65102, Note_on_c, 0, 61, 0
2, 65111, Note_on_c, 0, 58, 0
2, 65164, Control_c, 0, 64, 0
2, 65167, Note_on_c, 0, 64, 50
2, 65169, Note_on_c, 0, 57, 53
2, 65170, Note_on_c, 0, 60, 57
2, 65171, Note_on_c, 0, 53, 32
2, 65173, Note_on_c, 0, 38, 39
2, 65193, Control_c, 0, 64, 127
2, 65199, Note_on_c, 0, 53, 0
2, 65205, Note_on_c, 0, 57, 0
2, 65206, Note_on_c, 0, 60, 0
2, 65221, Note_on_c, 0, 64, 0
2, 65235, Note_on_c, 0, 38, 0
2, 65268, Note_on_c, 0, 69, 71
2, 65288, Note_on_c, 0, 69, 0
2, 65383, Note_on_c, 0, 76, 63
2, 65387, Note_on_c, 0, 69, 67
2, 65390, Note_on_c, 0, 50, 34
2, 65391, Note_on_c, 0, 57, 32
2, 65393, Note_on_c, 0, 60, 45
2, 65394, Note_on_c, 0, 65, 45
2, 65495, Note_on_c, 0, 76, 0
2, 65525, Note_on_c, 0, 60, 0
2, 65530, Note_on_c, 0, 57, 0
2, 65536, Note_on_c, 0, 76, 50
2, 65546, Note_on_c, 0, 50, 0
2, 65554, Note_on_c, 0, 65, 0
2, 65561, Note_on_c, 0, 69, 0
2, 65564, Note_on_c, 0, 76, 0
2, 65712, Note_on_c, 0, 67, 71
2, 65714, Note_on_c, 0, 37, 56
2, 65714, Note_on_c, 0, 60, 80
2, 65715, Note_on_c, 0, 55, 69
2, 65715, Note_on_c, 0, 44, 55
2, 65716, Note_on_c, 0, 53, 70
2, 65723, Control_c, 0, 64, 0
2, 65813, Control_c, 0, 64, 127
2, 65897, Note_on_c, 0, 67, 0
2, 65913, Note_on_c, 0, 67, 53
2, 65929, Note_on_c, 0, 53, 0
2, 65933, Note_on_c, 0, 55, 0
2, 65939, Note_on_c, 0, 60, 0
2, 65955, Note_on_c, 0, 37, 0
2, 65962, Note_on_c, 0, 67, 0
2, 65973, Note_on_c, 0, 44, 0
2, 66107, Note_on_c, 0, 79, 44
2, 66109, Note_on_c, 0, 65, 49
2, 66109, Note_on_c, 0, 72, 55
2, 66109, Note_on_c, 0, 67, 42
2, 66113, Note_on_c, 0, 56, 34
2, 66114, Note_on_c, 0, 49, 32
2, 66281, Note_on_c, 0, 79, 0
2, 66345, Note_on_c, 0, 79, 44
2, 66407, Note_on_c, 0, 65, 0
2, 66411, Note_on_c, 0, 79, 0
2, 66414, Note_on_c, 0, 67, 0
2, 66416, Note_on_c, 0, 72, 0
2, 66427, Control_c, 0, 64, 127
2, 66458, Note_on_c, 0, 56, 0
2, 66471, Note_on_c, 0, 49, 0
2, 66570, Control_c, 0, 64, 0
2, 66653, Control_c, 0, 64, 127
2, 66676, Note_on_c, 0, 36, 70
2, 66736, Note_on_c, 0, 43, 58
2, 66806, Note_on_c, 0, 62, 44
2, 66806, Note_on_c, 0, 66, 29
2, 66807, Note_on_c, 0, 57, 33
2, 66807, Note_on_c, 0, 52, 50
2, 66836, Note_on_c, 0, 57, 0
2, 66843, Note_on_c, 0, 62, 0
2, 66848, Note_on_c, 0, 66, 0
2, 66894, Note_on_c, 0, 74, 65
2, 66896, Note_on_c, 0, 81, 64
2, 66920, Note_on_c, 0, 52, 0
2, 66930, Note_on_c, 0, 36, 0
2, 66944, Note_on_c, 0, 43, 0
2, 66962, Note_on_c, 0, 74, 0
2, 66968, Note_on_c, 0, 81, 0
2, 66982, Note_on_c, 0, 78, 13
2, 66991, Note_on_c, 0, 69, 32
2, 66994, Note_on_c, 0, 55, 49
2, 67047, Note_on_c, 0, 69, 0
2, 67070, Note_on_c, 0, 74, 33
2, 67073, Note_on_c, 0, 81, 41
2, 67079, Note_on_c, 0, 74, 0
2, 67082, Note_on_c, 0, 78, 0
2, 67091, Note_on_c, 0, 81, 0
2, 67156, Note_on_c, 0, 86, 35
2, 67159, Note_on_c, 0, 93, 50
2, 67165, Note_on_c, 0, 62, 24
2, 67222, Note_on_c, 0, 86, 0
2, 67224, Note_on_c, 0, 55, 0
2, 67230, Note_on_c, 0, 93, 0
2, 67248, Note_on_c, 0, 90, 25
2, 67249, Note_on_c, 0, 81, 27
2, 67252, Note_on_c, 0, 55, 19
2, 67255, Note_on_c, 0, 62, 0
2, 67261, Note_on_c, 0, 81, 0
2, 67268, Note_on_c, 0, 90, 0
2, 67344, Note_on_c, 0, 98, 50
2, 67346, Note_on_c, 0, 105, 35
2, 67346, Note_on_c, 0, 62, 28
2, 67367, Note_on_c, 0, 55, 0
2, 67417, Note_on_c, 0, 98, 0
2, 67433, Note_on_c, 0, 105, 0
2, 67444, Note_on_c, 0, 62, 0
2, 67452, Note_on_c, 0, 55, 32
2, 67452, Note_on_c, 0, 102, 29
2, 67457, Note_on_c, 0, 93, 24
2, 67459, Note_on_c, 0, 98, 22
2, 67462, Note_on_c, 0, 55, 0
2, 67543, Note_on_c, 0, 93, 0
2, 67548, Note_on_c, 0, 98, 0
2, 67566, Note_on_c, 0, 102, 0
2, 67791, Note_on_c, 0, 24, 32
2, 68184, Control_c, 0, 64, 0
2, 68411, Note_on_c, 0, 24, 0
2, 68411, End_track
3, 0, Start_track
3, 0, Title_t, "By Henry Mancini"
3, 0, End_track
0, 0, End_of_file
