0, 0, Header, 1, 6, 384
1, 0, Start_track
1, 0, Title_t, "Easy Living"
1, 0, Text_t, "dougmck@tpg.com.au.Improvised piano over sequenced bass and drums\012"
1, 0, Time_signature, 4, 2, 24, 8
1, 0, Key_signature, -3, "major"
1, 0, Tempo, 1132075
1, 0, Sequencer_specific, 21, 67, 115, 10, 0, 5, 75, 90, 79, 79, 79, 79, 79, 79, 79, 90, 79, 79, 79, 79, 79, 79
1, 0, Sequencer_specific, 6, 67, 115, 10, 0, 4, 1
1, 0, Sequencer_specific, 9, 67, 123, 0, 88, 70, 48, 50, 0, 0
1, 234, Marker_t, "Improvised piano over sequenced bass and drums"
1, 9552, Marker_t, "Chords arpeggiated downwards"
1, 19162, Marker_t, "'Surrounding' Dm chord tones with neighbours"
1, 24148, Marker_t, "Black note glissando on Ebm7 / Ab7"
1, 24884, Marker_t, "Glissando ends on 1st Melody note of Bridge"
1, 28322, Marker_t, "First a surround of the root of Fm7 then ..."
1, 28648, Marker_t, "On Fm7/ Eb7, an Eb Major run"
1, 29282, Marker_t, "Run finishes on the root of the Ebm7, on downbeat of Bar "
1, 32346, Marker_t, "Surround Bbm7 chord tones with upper and lower n'bours"
1, 39538, Marker_t, "On G#dim a whole/half dim scale"
1, 42556, Marker_t, "On Eb7#11, the 5th and #11 alternate with chord tones"
1, 44852, Marker_t, "'Locked Hands' block chords - on Gm9 -  arpeggio"
1, 46910, Marker_t, "Ab7 - a Db Major scale run"
1, 52224, Marker_t, "Chord tones played rhythmically twice "
1, 53230, Marker_t, "One of the Art Tatum runs on F7 (badly executed !)"
1, 58556, Marker_t, "Short melodic idea is repeated over the turnaround chords"
1, 63146, Marker_t, "Left hand  - short right on the beat chords"
1, 63450, Marker_t, "Sort of quasi Errol Garner"
1, 69116, Marker_t, "3 note phrase moves up in scale steps"
1, 76962, Marker_t, "Phrase on Fm7 - multiple notes  surround  the root"
1, 87942, Marker_t, "On Dim chords- easy to arpeggiate 'locked hands' style"
1, 88394, Marker_t, "LH rolls up onto bottom note of each chord inversion"
1, 93696, Marker_t, "Last bit - LH plays chordsin triplets- 'classical' style"
1, 97620, Marker_t, "'Bluesy' figures over the final few bars"
1, 100208, Marker_t, "LH and RH in unison play blues phrase"
1, 101668, Marker_t, "F Maj7 - Bb7#11 - FMaj7#11  on Coda"
1, 101668, End_track
2, 0, Start_track
2, 0, Title_t, "Piano"
2, 0, Control_c, 0, 0, 0
2, 0, Control_c, 0, 32, 1
2, 0, Program_c, 0, 0
2, 0, Control_c, 0, 7, 107
2, 0, Control_c, 0, 10, 64
2, 0, Control_c, 0, 91, 0
2, 0, Control_c, 0, 93, 0
2, 0, Note_on_c, 0, 69, 66
2, 4, Note_on_c, 0, 60, 72
2, 4, Note_on_c, 0, 62, 70
2, 4, Note_on_c, 0, 57, 60
2, 8, Note_on_c, 0, 65, 54
2, 36, Control_c, 0, 64, 127
2, 92, Note_on_c, 0, 60, 0
2, 144, Note_on_c, 0, 57, 0
2, 160, Note_on_c, 0, 62, 0
2, 188, Note_on_c, 0, 65, 0
2, 192, Note_on_c, 0, 69, 0
2, 532, Note_on_c, 0, 74, 70
2, 536, Note_on_c, 0, 64, 60
2, 536, Note_on_c, 0, 58, 57
2, 536, Note_on_c, 0, 69, 67
2, 576, Note_on_c, 0, 69, 0
2, 580, Note_on_c, 0, 74, 0
2, 604, Note_on_c, 0, 64, 0
2, 656, Note_on_c, 0, 58, 0
2, 664, Note_on_c, 0, 57, 50
2, 664, Note_on_c, 0, 72, 64
2, 672, Note_on_c, 0, 67, 56
2, 684, Note_on_c, 0, 67, 0
2, 688, Note_on_c, 0, 72, 0
2, 724, Note_on_c, 0, 57, 0
2, 828, Note_on_c, 0, 54, 50
2, 828, Note_on_c, 0, 63, 42
2, 836, Note_on_c, 0, 57, 55
2, 836, Note_on_c, 0, 60, 54
2, 840, Control_c, 0, 64, 0
2, 968, Control_c, 0, 64, 127
2, 1088, Note_on_c, 0, 54, 0
2, 1092, Note_on_c, 0, 57, 0
2, 1096, Note_on_c, 0, 60, 0
2, 1176, Note_on_c, 0, 63, 0
2, 1184, Note_on_c, 0, 54, 47
2, 1196, Note_on_c, 0, 57, 46
2, 1196, Note_on_c, 0, 60, 40
2, 1200, Note_on_c, 0, 51, 34
2, 1284, Note_on_c, 0, 51, 0
2, 1332, Note_on_c, 0, 54, 0
2, 1340, Note_on_c, 0, 57, 0
2, 1356, Note_on_c, 0, 60, 0
2, 1544, Control_c, 0, 64, 0
2, 1548, Note_on_c, 0, 53, 43
2, 1548, Note_on_c, 0, 58, 37
2, 1552, Note_on_c, 0, 62, 48
2, 1552, Note_on_c, 0, 55, 48
2, 1560, Note_on_c, 0, 50, 31
2, 1564, Note_on_c, 0, 43, 37
2, 1600, Control_c, 0, 64, 40
2, 1600, Control_c, 0, 64, 127
2, 1612, Note_on_c, 0, 53, 0
2, 1616, Note_on_c, 0, 55, 0
2, 1636, Note_on_c, 0, 62, 0
2, 1644, Note_on_c, 0, 43, 0
2, 1660, Note_on_c, 0, 50, 0
2, 1668, Note_on_c, 0, 58, 0
2, 1884, Control_c, 0, 64, 0
2, 1900, Note_on_c, 0, 62, 81
2, 1900, Note_on_c, 0, 53, 85
2, 1900, Note_on_c, 0, 55, 83
2, 1900, Note_on_c, 0, 58, 77
2, 1904, Note_on_c, 0, 50, 87
2, 1924, Control_c, 0, 64, 127
2, 1948, Note_on_c, 0, 55, 0
2, 1952, Note_on_c, 0, 62, 0
2, 1952, Note_on_c, 0, 53, 0
2, 1960, Note_on_c, 0, 58, 0
2, 2040, Control_c, 0, 64, 0
2, 2056, Note_on_c, 0, 58, 82
2, 2056, Note_on_c, 0, 65, 75
2, 2060, Note_on_c, 0, 50, 0
2, 2060, Note_on_c, 0, 55, 78
2, 2060, Note_on_c, 0, 62, 71
2, 2060, Note_on_c, 0, 53, 75
2, 2088, Note_on_c, 0, 55, 0
2, 2092, Control_c, 0, 64, 127
2, 2096, Note_on_c, 0, 58, 0
2, 2100, Note_on_c, 0, 65, 0
2, 2100, Note_on_c, 0, 62, 0
2, 2172, Note_on_c, 0, 53, 0
2, 2204, Note_on_c, 0, 70, 68
2, 2208, Note_on_c, 0, 62, 70
2, 2208, Note_on_c, 0, 58, 66
2, 2208, Note_on_c, 0, 65, 64
2, 2220, Note_on_c, 0, 67, 43
2, 2232, Note_on_c, 0, 67, 0
2, 2236, Note_on_c, 0, 62, 0
2, 2236, Note_on_c, 0, 65, 0
2, 2248, Note_on_c, 0, 70, 0
2, 2340, Control_c, 0, 64, 0
2, 2352, Note_on_c, 0, 74, 69
2, 2356, Note_on_c, 0, 65, 73
2, 2360, Note_on_c, 0, 62, 54
2, 2364, Note_on_c, 0, 70, 57
2, 2368, Note_on_c, 0, 58, 0
2, 2388, Control_c, 0, 64, 127
2, 2408, Note_on_c, 0, 65, 0
2, 2412, Note_on_c, 0, 74, 0
2, 2416, Note_on_c, 0, 70, 0
2, 2468, Note_on_c, 0, 62, 0
2, 2496, Note_on_c, 0, 63, 36
2, 2504, Note_on_c, 0, 64, 54
2, 2516, Note_on_c, 0, 68, 60
2, 2520, Control_c, 0, 64, 0
2, 2524, Note_on_c, 0, 63, 0
2, 2524, Note_on_c, 0, 77, 62
2, 2524, Note_on_c, 0, 71, 57
2, 2524, Note_on_c, 0, 74, 63
2, 2528, Note_on_c, 0, 65, 46
2, 2548, Note_on_c, 0, 64, 0
2, 2616, Control_c, 0, 64, 127
2, 2628, Note_on_c, 0, 77, 0
2, 2636, Note_on_c, 0, 71, 0
2, 2636, Note_on_c, 0, 74, 0
2, 2640, Note_on_c, 0, 68, 0
2, 2644, Note_on_c, 0, 65, 0
2, 2652, Control_c, 0, 64, 0
2, 2668, Note_on_c, 0, 64, 41
2, 2676, Note_on_c, 0, 68, 55
2, 2680, Note_on_c, 0, 74, 43
2, 2680, Note_on_c, 0, 71, 46
2, 2680, Note_on_c, 0, 77, 54
2, 2684, Note_on_c, 0, 65, 42
2, 2700, Note_on_c, 0, 64, 0
2, 2704, Control_c, 0, 64, 127
2, 2760, Note_on_c, 0, 77, 0
2, 2772, Note_on_c, 0, 71, 0
2, 2772, Note_on_c, 0, 68, 0
2, 2772, Note_on_c, 0, 65, 0
2, 2772, Note_on_c, 0, 74, 0
2, 2808, Note_on_c, 0, 64, 31
2, 2824, Note_on_c, 0, 68, 51
2, 2828, Note_on_c, 0, 64, 0
2, 2828, Note_on_c, 0, 65, 50
2, 2828, Note_on_c, 0, 71, 54
2, 2828, Note_on_c, 0, 77, 51
2, 2840, Note_on_c, 0, 74, 32
2, 2856, Note_on_c, 0, 74, 0
2, 2864, Note_on_c, 0, 71, 0
2, 2864, Note_on_c, 0, 77, 0
2, 2880, Note_on_c, 0, 65, 0
2, 2888, Note_on_c, 0, 68, 0
2, 2920, Note_on_c, 0, 61, 23
2, 2944, Note_on_c, 0, 61, 0
2, 2956, Control_c, 0, 64, 0
2, 2956, Note_on_c, 0, 64, 46
2, 2960, Note_on_c, 0, 76, 54
2, 2960, Note_on_c, 0, 68, 49
2, 2964, Note_on_c, 0, 65, 24
2, 2968, Note_on_c, 0, 71, 51
2, 2980, Control_c, 0, 64, 127
2, 2996, Note_on_c, 0, 76, 0
2, 3004, Note_on_c, 0, 71, 0
2, 3016, Note_on_c, 0, 64, 0
2, 3020, Note_on_c, 0, 68, 0
2, 3032, Note_on_c, 0, 65, 0
2, 3112, Control_c, 0, 64, 0
2, 3124, Note_on_c, 0, 56, 53
2, 3124, Note_on_c, 0, 62, 38
2, 3124, Note_on_c, 0, 71, 42
2, 3128, Note_on_c, 0, 65, 39
2, 3132, Note_on_c, 0, 68, 39
2, 3176, Control_c, 0, 64, 127
2, 3200, Note_on_c, 0, 62, 0
2, 3204, Note_on_c, 0, 65, 0
2, 3216, Note_on_c, 0, 71, 0
2, 3220, Note_on_c, 0, 68, 0
2, 3296, Control_c, 0, 64, 0
2, 3300, Note_on_c, 0, 74, 70
2, 3304, Note_on_c, 0, 68, 62
2, 3304, Note_on_c, 0, 58, 55
2, 3308, Note_on_c, 0, 56, 0
2, 3308, Note_on_c, 0, 64, 35
2, 3344, Control_c, 0, 64, 127
2, 3392, Note_on_c, 0, 74, 0
2, 3404, Note_on_c, 0, 64, 0
2, 3420, Note_on_c, 0, 68, 0
2, 3464, Control_c, 0, 64, 40
2, 3464, Control_c, 0, 64, 0
2, 3472, Note_on_c, 0, 58, 0
2, 3476, Note_on_c, 0, 67, 58
2, 3476, Note_on_c, 0, 72, 52
2, 3480, Note_on_c, 0, 57, 47
2, 3480, Note_on_c, 0, 62, 45
2, 3516, Control_c, 0, 64, 127
2, 3596, Note_on_c, 0, 62, 0
2, 3628, Note_on_c, 0, 57, 0
2, 3628, Note_on_c, 0, 67, 0
2, 3632, Note_on_c, 0, 72, 0
2, 3772, Note_on_c, 0, 77, 83
2, 3812, Note_on_c, 0, 77, 0
2, 3840, Note_on_c, 0, 76, 49
2, 3852, Note_on_c, 0, 76, 0
2, 3872, Control_c, 0, 64, 0
2, 3876, Note_on_c, 0, 63, 42
2, 3880, Note_on_c, 0, 53, 38
2, 3880, Note_on_c, 0, 60, 45
2, 3884, Note_on_c, 0, 77, 63
2, 3884, Note_on_c, 0, 58, 39
2, 3960, Control_c, 0, 64, 127
2, 4020, Note_on_c, 0, 67, 54
2, 4048, Note_on_c, 0, 60, 0
2, 4064, Note_on_c, 0, 58, 0
2, 4064, Note_on_c, 0, 63, 0
2, 4064, Note_on_c, 0, 53, 0
2, 4120, Note_on_c, 0, 67, 0
2, 4152, Note_on_c, 0, 77, 0
2, 4220, Note_on_c, 0, 65, 37
2, 4224, Note_on_c, 0, 62, 43
2, 4224, Note_on_c, 0, 69, 45
2, 4228, Note_on_c, 0, 57, 39
2, 4228, Control_c, 0, 64, 0
2, 4236, Note_on_c, 0, 51, 40
2, 4292, Control_c, 0, 64, 127
2, 4408, Note_on_c, 0, 57, 0
2, 4420, Note_on_c, 0, 51, 0
2, 4424, Note_on_c, 0, 65, 0
2, 4456, Note_on_c, 0, 62, 0
2, 4492, Note_on_c, 0, 69, 0
2, 4620, Control_c, 0, 64, 24
2, 4620, Control_c, 0, 64, 0
2, 4636, Note_on_c, 0, 65, 25
2, 4636, Note_on_c, 0, 70, 35
2, 4636, Note_on_c, 0, 74, 42
2, 4640, Note_on_c, 0, 62, 31
2, 4640, Note_on_c, 0, 67, 43
2, 4644, Note_on_c, 0, 55, 36
2, 4644, Note_on_c, 0, 60, 33
2, 4684, Control_c, 0, 64, 127
2, 4712, Note_on_c, 0, 65, 0
2, 4744, Note_on_c, 0, 67, 0
2, 4768, Note_on_c, 0, 55, 0
2, 4784, Note_on_c, 0, 60, 0
2, 4788, Note_on_c, 0, 70, 0
2, 4812, Note_on_c, 0, 74, 0
2, 4888, Note_on_c, 0, 62, 0
2, 5004, Note_on_c, 0, 65, 28
2, 5008, Note_on_c, 0, 62, 33
2, 5008, Note_on_c, 0, 55, 31
2, 5012, Note_on_c, 0, 60, 37
2, 5028, Control_c, 0, 64, 0
2, 5048, Note_on_c, 0, 72, 48
2, 5064, Note_on_c, 0, 73, 53
2, 5088, Note_on_c, 0, 73, 0
2, 5088, Note_on_c, 0, 72, 0
2, 5096, Note_on_c, 0, 74, 60
2, 5128, Note_on_c, 0, 74, 0
2, 5196, Note_on_c, 0, 77, 81
2, 5228, Note_on_c, 0, 77, 0
2, 5340, Note_on_c, 0, 77, 26
2, 5364, Note_on_c, 0, 77, 0
2, 5440, Note_on_c, 0, 77, 47
2, 5456, Note_on_c, 0, 79, 53
2, 5476, Note_on_c, 0, 77, 0
2, 5476, Note_on_c, 0, 80, 63
2, 5488, Note_on_c, 0, 79, 0
2, 5504, Note_on_c, 0, 80, 0
2, 5504, Note_on_c, 0, 81, 58
2, 5508, Note_on_c, 0, 62, 0
2, 5516, Note_on_c, 0, 65, 0
2, 5524, Note_on_c, 0, 60, 0
2, 5536, Note_on_c, 0, 55, 0
2, 5540, Note_on_c, 0, 81, 0
2, 5592, Note_on_c, 0, 84, 81
2, 5620, Control_c, 0, 64, 127
2, 5632, Note_on_c, 0, 84, 0
2, 5708, Note_on_c, 0, 84, 81
2, 5716, Note_on_c, 0, 61, 43
2, 5716, Control_c, 0, 64, 0
2, 5716, Note_on_c, 0, 55, 43
2, 5716, Note_on_c, 0, 65, 37
2, 5720, Note_on_c, 0, 60, 40
2, 5772, Note_on_c, 0, 84, 0
2, 5788, Control_c, 0, 64, 127
2, 5840, Note_on_c, 0, 84, 78
2, 5972, Note_on_c, 0, 82, 61
2, 5976, Note_on_c, 0, 84, 0
2, 6048, Note_on_c, 0, 60, 0
2, 6060, Note_on_c, 0, 65, 0
2, 6060, Note_on_c, 0, 61, 0
2, 6060, Note_on_c, 0, 55, 0
2, 6140, Note_on_c, 0, 82, 0
2, 6152, Note_on_c, 0, 81, 61
2, 6156, Control_c, 0, 64, 0
2, 6156, Note_on_c, 0, 60, 46
2, 6160, Note_on_c, 0, 57, 38
2, 6160, Note_on_c, 0, 65, 35
2, 6228, Control_c, 0, 64, 127
2, 6256, Note_on_c, 0, 81, 0
2, 6316, Note_on_c, 0, 65, 0
2, 6324, Note_on_c, 0, 60, 0
2, 6332, Note_on_c, 0, 57, 0
2, 6620, Control_c, 0, 64, 0
2, 6640, Note_on_c, 0, 79, 102
2, 6640, Note_on_c, 0, 73, 88
2, 6640, Note_on_c, 0, 70, 88
2, 6640, Note_on_c, 0, 64, 87
2, 6672, Control_c, 0, 64, 127
2, 6700, Note_on_c, 0, 79, 0
2, 6728, Note_on_c, 0, 70, 0
2, 6740, Note_on_c, 0, 73, 0
2, 6772, Note_on_c, 0, 64, 0
2, 6772, Control_c, 0, 64, 0
2, 6780, Note_on_c, 0, 77, 85
2, 6784, Note_on_c, 0, 69, 78
2, 6784, Note_on_c, 0, 62, 72
2, 6784, Note_on_c, 0, 72, 77
2, 6808, Control_c, 0, 64, 127
2, 6832, Note_on_c, 0, 77, 0
2, 6840, Note_on_c, 0, 72, 0
2, 6864, Note_on_c, 0, 69, 0
2, 6936, Note_on_c, 0, 65, 61
2, 6936, Note_on_c, 0, 69, 66
2, 6940, Note_on_c, 0, 61, 62
2, 6944, Control_c, 0, 64, 0
2, 6952, Note_on_c, 0, 62, 0
2, 7032, Control_c, 0, 64, 127
2, 7120, Note_on_c, 0, 60, 63
2, 7124, Control_c, 0, 64, 0
2, 7136, Note_on_c, 0, 61, 0
2, 7164, Control_c, 0, 64, 127
2, 7260, Note_on_c, 0, 65, 0
2, 7280, Note_on_c, 0, 69, 0
2, 7328, Note_on_c, 0, 69, 44
2, 7332, Note_on_c, 0, 65, 52
2, 7336, Control_c, 0, 64, 24
2, 7336, Control_c, 0, 64, 0
2, 7336, Note_on_c, 0, 57, 48
2, 7340, Note_on_c, 0, 60, 0
2, 7360, Control_c, 0, 64, 127
2, 7484, Note_on_c, 0, 57, 0
2, 7516, Note_on_c, 0, 76, 63
2, 7520, Note_on_c, 0, 65, 0
2, 7544, Note_on_c, 0, 69, 0
2, 7572, Note_on_c, 0, 76, 0
2, 7700, Note_on_c, 0, 65, 48
2, 7700, Note_on_c, 0, 74, 55
2, 7704, Note_on_c, 0, 58, 38
2, 7704, Control_c, 0, 64, 0
2, 7716, Note_on_c, 0, 57, 34
2, 7716, Note_on_c, 0, 53, 27
2, 7716, Note_on_c, 0, 62, 31
2, 7784, Control_c, 0, 64, 127
2, 7888, Note_on_c, 0, 70, 56
2, 7892, Note_on_c, 0, 65, 0
2, 7904, Note_on_c, 0, 62, 0
2, 7964, Note_on_c, 0, 58, 0
2, 7968, Note_on_c, 0, 57, 0
2, 7976, Note_on_c, 0, 74, 0
2, 8064, Note_on_c, 0, 70, 0
2, 8076, Note_on_c, 0, 57, 16
2, 8080, Note_on_c, 0, 62, 52
2, 8080, Note_on_c, 0, 58, 35
2, 8092, Control_c, 0, 64, 0
2, 8132, Control_c, 0, 64, 127
2, 8168, Note_on_c, 0, 62, 0
2, 8212, Note_on_c, 0, 62, 54
2, 8284, Note_on_c, 0, 53, 0
2, 8284, Note_on_c, 0, 57, 0
2, 8288, Note_on_c, 0, 58, 0
2, 8288, Note_on_c, 0, 62, 0
2, 8324, Note_on_c, 0, 65, 52
2, 8360, Note_on_c, 0, 65, 0
2, 8432, Control_c, 0, 64, 0
2, 8456, Note_on_c, 0, 64, 40
2, 8456, Note_on_c, 0, 58, 37
2, 8456, Note_on_c, 0, 69, 47
2, 8468, Note_on_c, 0, 52, 36
2, 8472, Control_c, 0, 64, 127
2, 8488, Note_on_c, 0, 52, 0
2, 8488, Note_on_c, 0, 64, 0
2, 8500, Note_on_c, 0, 69, 0
2, 8512, Note_on_c, 0, 58, 0
2, 8660, Control_c, 0, 64, 0
2, 8664, Note_on_c, 0, 81, 65
2, 8668, Note_on_c, 0, 73, 57
2, 8668, Note_on_c, 0, 69, 57
2, 8672, Note_on_c, 0, 76, 60
2, 8672, Note_on_c, 0, 64, 49
2, 8676, Note_on_c, 0, 58, 52
2, 8696, Control_c, 0, 64, 127
2, 8760, Note_on_c, 0, 69, 0
2, 8768, Note_on_c, 0, 73, 0
2, 8772, Note_on_c, 0, 76, 0
2, 8772, Note_on_c, 0, 81, 0
2, 8776, Note_on_c, 0, 58, 0
2, 8776, Note_on_c, 0, 64, 0
2, 8852, Note_on_c, 0, 81, 58
2, 8856, Note_on_c, 0, 73, 47
2, 8856, Note_on_c, 0, 58, 56
2, 8856, Note_on_c, 0, 64, 49
2, 8856, Note_on_c, 0, 69, 49
2, 8860, Note_on_c, 0, 76, 53
2, 8932, Note_on_c, 0, 81, 0
2, 8944, Note_on_c, 0, 58, 0
2, 8964, Note_on_c, 0, 76, 0
2, 8972, Note_on_c, 0, 64, 0
2, 8976, Note_on_c, 0, 69, 0
2, 8984, Note_on_c, 0, 73, 0
2, 9044, Note_on_c, 0, 73, 58
2, 9044, Note_on_c, 0, 79, 58
2, 9052, Note_on_c, 0, 58, 54
2, 9052, Note_on_c, 0, 64, 43
2, 9112, Note_on_c, 0, 58, 0
2, 9112, Note_on_c, 0, 73, 0
2, 9124, Note_on_c, 0, 79, 0
2, 9136, Note_on_c, 0, 64, 0
2, 9212, Note_on_c, 0, 55, 56
2, 9220, Note_on_c, 0, 60, 39
2, 9228, Note_on_c, 0, 84, 81
2, 9236, Note_on_c, 0, 58, 32
2, 9236, Control_c, 0, 64, 0
2, 9236, Note_on_c, 0, 61, 63
2, 9240, Note_on_c, 0, 81, 81
2, 9248, Note_on_c, 0, 77, 82
2, 9248, Note_on_c, 0, 65, 68
2, 9260, Note_on_c, 0, 83, 32
2, 9260, Note_on_c, 0, 72, 47
2, 9280, Note_on_c, 0, 83, 0
2, 9304, Control_c, 0, 64, 127
2, 9316, Note_on_c, 0, 55, 0
2, 9328, Note_on_c, 0, 58, 0
2, 9332, Note_on_c, 0, 60, 0
2, 9344, Note_on_c, 0, 61, 0
2, 9344, Note_on_c, 0, 77, 0
2, 9352, Note_on_c, 0, 81, 0
2, 9352, Note_on_c, 0, 72, 0
2, 9356, Note_on_c, 0, 84, 0
2, 9360, Note_on_c, 0, 65, 0
2, 9400, Note_on_c, 0, 60, 53
2, 9400, Note_on_c, 0, 55, 59
2, 9404, Note_on_c, 0, 84, 81
2, 9412, Note_on_c, 0, 61, 54
2, 9416, Note_on_c, 0, 81, 82
2, 9416, Note_on_c, 0, 58, 34
2, 9424, Note_on_c, 0, 77, 77
2, 9424, Note_on_c, 0, 83, 48
2, 9432, Note_on_c, 0, 65, 61
2, 9444, Note_on_c, 0, 83, 0
2, 9448, Note_on_c, 0, 72, 40
2, 9472, Note_on_c, 0, 58, 0
2, 9472, Note_on_c, 0, 55, 0
2, 9484, Note_on_c, 0, 60, 0
2, 9508, Note_on_c, 0, 61, 0
2, 9512, Note_on_c, 0, 77, 0
2, 9520, Note_on_c, 0, 81, 0
2, 9520, Note_on_c, 0, 84, 0
2, 9528, Note_on_c, 0, 65, 0
2, 9528, Note_on_c, 0, 72, 0
2, 9576, Note_on_c, 0, 55, 45
2, 9584, Note_on_c, 0, 84, 73
2, 9592, Note_on_c, 0, 60, 33
2, 9596, Control_c, 0, 64, 72
2, 9596, Control_c, 0, 64, 0
2, 9600, Note_on_c, 0, 81, 72
2, 9600, Note_on_c, 0, 61, 55
2, 9612, Note_on_c, 0, 77, 66
2, 9616, Note_on_c, 0, 65, 56
2, 9628, Note_on_c, 0, 72, 39
2, 9636, Control_c, 0, 64, 127
2, 9668, Note_on_c, 0, 55, 0
2, 9680, Note_on_c, 0, 60, 0
2, 9688, Note_on_c, 0, 77, 0
2, 9696, Note_on_c, 0, 61, 0
2, 9696, Note_on_c, 0, 84, 0
2, 9700, Note_on_c, 0, 81, 0
2, 9704, Note_on_c, 0, 65, 0
2, 9708, Note_on_c, 0, 72, 0
2, 9768, Note_on_c, 0, 84, 56
2, 9784, Note_on_c, 0, 81, 60
2, 9784, Note_on_c, 0, 60, 40
2, 9784, Note_on_c, 0, 61, 49
2, 9792, Note_on_c, 0, 55, 37
2, 9792, Note_on_c, 0, 77, 60
2, 9796, Note_on_c, 0, 72, 55
2, 9804, Note_on_c, 0, 65, 39
2, 9804, Note_on_c, 0, 58, 27
2, 9828, Note_on_c, 0, 65, 0
2, 9828, Note_on_c, 0, 72, 0
2, 9832, Note_on_c, 0, 77, 0
2, 9840, Note_on_c, 0, 60, 0
2, 9848, Note_on_c, 0, 84, 0
2, 9848, Note_on_c, 0, 81, 0
2, 9852, Note_on_c, 0, 61, 0
2, 9860, Note_on_c, 0, 55, 0
2, 9860, Note_on_c, 0, 58, 0
2, 9968, Note_on_c, 0, 89, 72
2, 9976, Control_c, 0, 64, 0
2, 9976, Note_on_c, 0, 58, 46
2, 9976, Note_on_c, 0, 54, 48
2, 9980, Note_on_c, 0, 86, 63
2, 9984, Note_on_c, 0, 60, 49
2, 9988, Note_on_c, 0, 65, 50
2, 9988, Note_on_c, 0, 82, 60
2, 10024, Note_on_c, 0, 77, 23
2, 10048, Control_c, 0, 64, 127
2, 10080, Note_on_c, 0, 60, 0
2, 10084, Note_on_c, 0, 58, 0
2, 10084, Note_on_c, 0, 82, 0
2, 10088, Note_on_c, 0, 86, 0
2, 10096, Note_on_c, 0, 89, 0
2, 10096, Note_on_c, 0, 54, 0
2, 10100, Note_on_c, 0, 65, 0
2, 10104, Note_on_c, 0, 77, 0
2, 10164, Note_on_c, 0, 89, 45
2, 10180, Note_on_c, 0, 54, 45
2, 10184, Note_on_c, 0, 86, 57
2, 10188, Note_on_c, 0, 65, 38
2, 10192, Note_on_c, 0, 60, 36
2, 10196, Note_on_c, 0, 82, 42
2, 10204, Note_on_c, 0, 58, 25
2, 10220, Note_on_c, 0, 77, 31
2, 10240, Note_on_c, 0, 60, 0
2, 10240, Note_on_c, 0, 86, 0
2, 10244, Note_on_c, 0, 58, 0
2, 10248, Note_on_c, 0, 54, 0
2, 10252, Note_on_c, 0, 65, 0
2, 10260, Note_on_c, 0, 89, 0
2, 10260, Note_on_c, 0, 82, 0
2, 10280, Note_on_c, 0, 77, 0
2, 10352, Note_on_c, 0, 89, 38
2, 10376, Note_on_c, 0, 82, 48
2, 10380, Note_on_c, 0, 65, 39
2, 10380, Note_on_c, 0, 54, 36
2, 10388, Note_on_c, 0, 60, 39
2, 10392, Note_on_c, 0, 58, 33
2, 10396, Note_on_c, 0, 77, 35
2, 10436, Note_on_c, 0, 58, 0
2, 10444, Note_on_c, 0, 60, 0
2, 10448, Note_on_c, 0, 77, 0
2, 10452, Note_on_c, 0, 89, 0
2, 10452, Note_on_c, 0, 82, 0
2, 10456, Note_on_c, 0, 54, 0
2, 10460, Note_on_c, 0, 65, 0
2, 10564, Note_on_c, 0, 89, 20
2, 10576, Note_on_c, 0, 65, 29
2, 10580, Note_on_c, 0, 54, 30
2, 10580, Note_on_c, 0, 82, 29
2, 10584, Note_on_c, 0, 60, 35
2, 10584, Note_on_c, 0, 86, 33
2, 10588, Note_on_c, 0, 77, 37
2, 10588, Note_on_c, 0, 58, 33
2, 10620, Note_on_c, 0, 65, 0
2, 10628, Note_on_c, 0, 60, 0
2, 10636, Note_on_c, 0, 86, 0
2, 10640, Note_on_c, 0, 58, 0
2, 10648, Note_on_c, 0, 89, 0
2, 10660, Note_on_c, 0, 82, 0
2, 10668, Note_on_c, 0, 77, 0
2, 10668, Note_on_c, 0, 54, 0
2, 10756, Note_on_c, 0, 63, 45
2, 10756, Control_c, 0, 64, 0
2, 10760, Note_on_c, 0, 58, 37
2, 10764, Note_on_c, 0, 59, 48
2, 10772, Note_on_c, 0, 53, 35
2, 10872, Control_c, 0, 64, 127
2, 11008, Note_on_c, 0, 63, 0
2, 11024, Note_on_c, 0, 59, 0
2, 11032, Note_on_c, 0, 58, 0
2, 11140, Note_on_c, 0, 63, 41
2, 11144, Note_on_c, 0, 58, 39
2, 11148, Note_on_c, 0, 59, 49
2, 11316, Note_on_c, 0, 59, 0
2, 11328, Note_on_c, 0, 63, 0
2, 11336, Note_on_c, 0, 58, 0
2, 11340, Note_on_c, 0, 53, 0
2, 11512, Control_c, 0, 64, 0
2, 11512, Note_on_c, 0, 58, 32
2, 11520, Note_on_c, 0, 62, 35
2, 11524, Note_on_c, 0, 52, 38
2, 11556, Control_c, 0, 64, 127
2, 11688, Control_c, 0, 64, 0
2, 11688, Note_on_c, 0, 86, 111
2, 11736, Note_on_c, 0, 62, 0
2, 11740, Note_on_c, 0, 86, 0
2, 11748, Note_on_c, 0, 58, 0
2, 11796, Note_on_c, 0, 84, 78
2, 11832, Note_on_c, 0, 84, 0
2, 11900, Note_on_c, 0, 80, 75
2, 11920, Note_on_c, 0, 58, 46
2, 11928, Note_on_c, 0, 62, 34
2, 11936, Note_on_c, 0, 80, 0
2, 11980, Note_on_c, 0, 77, 62
2, 12008, Note_on_c, 0, 77, 0
2, 12052, Note_on_c, 0, 74, 60
2, 12084, Note_on_c, 0, 74, 0
2, 12096, Note_on_c, 0, 52, 0
2, 12120, Note_on_c, 0, 58, 0
2, 12120, Note_on_c, 0, 72, 48
2, 12140, Note_on_c, 0, 72, 0
2, 12184, Note_on_c, 0, 62, 0
2, 12184, Note_on_c, 0, 68, 60
2, 12232, Note_on_c, 0, 68, 0
2, 12248, Note_on_c, 0, 67, 57
2, 12264, Note_on_c, 0, 62, 23
2, 12272, Note_on_c, 0, 60, 34
2, 12276, Note_on_c, 0, 57, 32
2, 12284, Note_on_c, 0, 53, 22
2, 12296, Note_on_c, 0, 67, 0
2, 12328, Note_on_c, 0, 65, 39
2, 12344, Note_on_c, 0, 62, 0
2, 12372, Note_on_c, 0, 65, 0
2, 12380, Note_on_c, 0, 60, 0
2, 12408, Note_on_c, 0, 62, 36
2, 12432, Note_on_c, 0, 62, 0
2, 12632, Control_c, 0, 64, 127
2, 12684, Note_on_c, 0, 60, 35
2, 12696, Note_on_c, 0, 68, 39
2, 12708, Note_on_c, 0, 60, 0
2, 12712, Note_on_c, 0, 68, 0
2, 12716, Note_on_c, 0, 69, 55
2, 12752, Note_on_c, 0, 69, 0
2, 12756, Note_on_c, 0, 57, 0
2, 12788, Note_on_c, 0, 53, 0
2, 12788, Control_c, 0, 64, 0
2, 12816, Note_on_c, 0, 74, 84
2, 12820, Note_on_c, 0, 68, 84
2, 12820, Note_on_c, 0, 64, 68
2, 12820, Note_on_c, 0, 58, 71
2, 12848, Note_on_c, 0, 69, 77
2, 12856, Note_on_c, 0, 68, 0
2, 12876, Note_on_c, 0, 64, 0
2, 12892, Note_on_c, 0, 69, 0
2, 12896, Note_on_c, 0, 74, 0
2, 12940, Note_on_c, 0, 58, 0
2, 12940, Control_c, 0, 64, 127
2, 12940, Note_on_c, 0, 72, 69
2, 12944, Note_on_c, 0, 67, 64
2, 12948, Note_on_c, 0, 57, 62
2, 12952, Note_on_c, 0, 62, 49
2, 12952, Note_on_c, 0, 64, 49
2, 12980, Note_on_c, 0, 67, 0
2, 12988, Note_on_c, 0, 72, 0
2, 12992, Note_on_c, 0, 64, 0
2, 12996, Note_on_c, 0, 62, 0
2, 13040, Note_on_c, 0, 57, 0
2, 13052, Control_c, 0, 64, 0
2, 13180, Note_on_c, 0, 63, 68
2, 13180, Note_on_c, 0, 51, 59
2, 13184, Note_on_c, 0, 54, 55
2, 13196, Note_on_c, 0, 57, 39
2, 13216, Note_on_c, 0, 57, 0
2, 13216, Note_on_c, 0, 54, 0
2, 13240, Note_on_c, 0, 63, 0
2, 13252, Note_on_c, 0, 51, 0
2, 13264, Note_on_c, 0, 50, 51
2, 13304, Note_on_c, 0, 50, 0
2, 13308, Note_on_c, 0, 51, 56
2, 13316, Note_on_c, 0, 54, 56
2, 13316, Note_on_c, 0, 63, 54
2, 13324, Note_on_c, 0, 57, 52
2, 13324, Note_on_c, 0, 60, 50
2, 13368, Control_c, 0, 64, 127
2, 13456, Note_on_c, 0, 57, 0
2, 13456, Note_on_c, 0, 54, 0
2, 13468, Note_on_c, 0, 60, 0
2, 13484, Note_on_c, 0, 63, 0
2, 13540, Note_on_c, 0, 66, 57
2, 13540, Control_c, 0, 64, 0
2, 13544, Note_on_c, 0, 57, 50
2, 13548, Note_on_c, 0, 51, 0
2, 13548, Note_on_c, 0, 54, 50
2, 13552, Note_on_c, 0, 63, 39
2, 13556, Note_on_c, 0, 60, 46
2, 13560, Note_on_c, 0, 57, 0
2, 13568, Note_on_c, 0, 60, 0
2, 13572, Note_on_c, 0, 63, 0
2, 13580, Note_on_c, 0, 66, 0
2, 13592, Note_on_c, 0, 54, 0
2, 13604, Note_on_c, 0, 51, 53
2, 13636, Note_on_c, 0, 51, 0
2, 13652, Note_on_c, 0, 54, 55
2, 13656, Note_on_c, 0, 66, 57
2, 13656, Note_on_c, 0, 57, 58
2, 13664, Note_on_c, 0, 63, 48
2, 13664, Control_c, 0, 64, 127
2, 13668, Note_on_c, 0, 60, 49
2, 13700, Note_on_c, 0, 60, 0
2, 13704, Note_on_c, 0, 57, 0
2, 13716, Note_on_c, 0, 66, 0
2, 13720, Note_on_c, 0, 63, 0
2, 13788, Note_on_c, 0, 54, 0
2, 13924, Control_c, 0, 64, 0
2, 13940, Note_on_c, 0, 67, 48
2, 13944, Note_on_c, 0, 54, 42
2, 13948, Note_on_c, 0, 58, 45
2, 13948, Note_on_c, 0, 55, 56
2, 13952, Note_on_c, 0, 62, 54
2, 13968, Note_on_c, 0, 54, 0
2, 13992, Control_c, 0, 64, 127
2, 14012, Note_on_c, 0, 58, 0
2, 14028, Note_on_c, 0, 62, 0
2, 14032, Note_on_c, 0, 55, 0
2, 14032, Note_on_c, 0, 67, 0
2, 14204, Note_on_c, 0, 58, 43
2, 14208, Note_on_c, 0, 62, 39
2, 14320, Note_on_c, 0, 74, 54
2, 14336, Note_on_c, 0, 74, 0
2, 14368, Control_c, 0, 64, 0
2, 14392, Note_on_c, 0, 79, 43
2, 14404, Note_on_c, 0, 79, 0
2, 14408, Note_on_c, 0, 58, 0
2, 14412, Note_on_c, 0, 62, 0
2, 14452, Note_on_c, 0, 82, 56
2, 14464, Note_on_c, 0, 82, 0
2, 14500, Note_on_c, 0, 83, 64
2, 14524, Note_on_c, 0, 83, 0
2, 14556, Note_on_c, 0, 84, 57
2, 14580, Note_on_c, 0, 84, 0
2, 14600, Note_on_c, 0, 85, 58
2, 14612, Note_on_c, 0, 85, 0
2, 14636, Note_on_c, 0, 86, 51
2, 14640, Note_on_c, 0, 56, 29
2, 14644, Note_on_c, 0, 59, 31
2, 14644, Note_on_c, 0, 62, 20
2, 14648, Note_on_c, 0, 53, 38
2, 14652, Note_on_c, 0, 86, 0
2, 14668, Note_on_c, 0, 87, 48
2, 14704, Note_on_c, 0, 87, 0
2, 14708, Note_on_c, 0, 88, 67
2, 14732, Note_on_c, 0, 88, 0
2, 14752, Note_on_c, 0, 89, 70
2, 14788, Note_on_c, 0, 89, 0
2, 14856, Note_on_c, 0, 89, 38
2, 14864, Note_on_c, 0, 62, 0
2, 14868, Note_on_c, 0, 89, 0
2, 14868, Note_on_c, 0, 59, 0
2, 14880, Note_on_c, 0, 56, 0
2, 14928, Note_on_c, 0, 89, 59
2, 14956, Note_on_c, 0, 89, 0
2, 15008, Note_on_c, 0, 89, 57
2, 15040, Note_on_c, 0, 89, 0
2, 15080, Note_on_c, 0, 56, 36
2, 15084, Note_on_c, 0, 59, 39
2, 15088, Note_on_c, 0, 62, 36
2, 15092, Note_on_c, 0, 89, 57
2, 15100, Control_c, 0, 64, 127
2, 15208, Note_on_c, 0, 59, 0
2, 15216, Note_on_c, 0, 53, 0
2, 15216, Note_on_c, 0, 56, 0
2, 15240, Note_on_c, 0, 62, 0
2, 15316, Note_on_c, 0, 89, 0
2, 15332, Note_on_c, 0, 88, 55
2, 15384, Control_c, 0, 64, 0
2, 15388, Note_on_c, 0, 88, 0
2, 15404, Note_on_c, 0, 63, 50
2, 15404, Note_on_c, 0, 57, 39
2, 15408, Note_on_c, 0, 67, 36
2, 15408, Note_on_c, 0, 83, 45
2, 15512, Control_c, 0, 64, 127
2, 15580, Note_on_c, 0, 67, 0
2, 15588, Note_on_c, 0, 63, 0
2, 15772, Note_on_c, 0, 83, 0
2, 15864, Note_on_c, 0, 86, 94
2, 15868, Note_on_c, 0, 65, 48
2, 15872, Note_on_c, 0, 62, 45
2, 15880, Note_on_c, 0, 60, 32
2, 15900, Note_on_c, 0, 65, 0
2, 15904, Note_on_c, 0, 60, 0
2, 15908, Note_on_c, 0, 62, 0
2, 15908, Note_on_c, 0, 57, 0
2, 15988, Note_on_c, 0, 86, 0
2, 16012, Note_on_c, 0, 84, 72
2, 16108, Note_on_c, 0, 84, 0
2, 16116, Control_c, 0, 64, 0
2, 16124, Note_on_c, 0, 67, 42
2, 16128, Note_on_c, 0, 63, 39
2, 16128, Note_on_c, 0, 58, 41
2, 16128, Note_on_c, 0, 77, 54
2, 16220, Note_on_c, 0, 77, 0
2, 16232, Note_on_c, 0, 89, 72
2, 16272, Control_c, 0, 64, 127
2, 16280, Note_on_c, 0, 89, 0
2, 16308, Control_c, 0, 64, 88
2, 16308, Control_c, 0, 64, 0
2, 16312, Note_on_c, 0, 67, 0
2, 16376, Note_on_c, 0, 58, 0
2, 16380, Note_on_c, 0, 63, 0
2, 16404, Note_on_c, 0, 87, 63
2, 16424, Control_c, 0, 64, 127
2, 16456, Control_c, 0, 64, 0
2, 16460, Note_on_c, 0, 87, 0
2, 16484, Note_on_c, 0, 63, 39
2, 16488, Note_on_c, 0, 66, 24
2, 16488, Note_on_c, 0, 57, 33
2, 16492, Note_on_c, 0, 61, 39
2, 16496, Note_on_c, 0, 86, 45
2, 16556, Note_on_c, 0, 86, 0
2, 16620, Note_on_c, 0, 77, 48
2, 16652, Note_on_c, 0, 77, 0
2, 16676, Control_c, 0, 64, 127
2, 16756, Note_on_c, 0, 57, 0
2, 16764, Note_on_c, 0, 66, 0
2, 16780, Note_on_c, 0, 79, 58
2, 16812, Note_on_c, 0, 79, 0
2, 16812, Note_on_c, 0, 61, 0
2, 16820, Note_on_c, 0, 63, 0
2, 16844, Note_on_c, 0, 81, 65
2, 16876, Note_on_c, 0, 81, 0
2, 16880, Control_c, 0, 64, 0
2, 16908, Note_on_c, 0, 65, 35
2, 16912, Note_on_c, 0, 60, 36
2, 16912, Note_on_c, 0, 84, 72
2, 16912, Note_on_c, 0, 62, 39
2, 16916, Note_on_c, 0, 55, 37
2, 16948, Note_on_c, 0, 84, 0
2, 16984, Note_on_c, 0, 81, 43
2, 16996, Note_on_c, 0, 81, 0
2, 17040, Note_on_c, 0, 84, 68
2, 17068, Note_on_c, 0, 84, 0
2, 17104, Note_on_c, 0, 81, 52
2, 17116, Note_on_c, 0, 81, 0
2, 17160, Note_on_c, 0, 65, 0
2, 17164, Note_on_c, 0, 77, 49
2, 17176, Note_on_c, 0, 60, 0
2, 17192, Note_on_c, 0, 77, 0
2, 17196, Note_on_c, 0, 62, 0
2, 17300, Note_on_c, 0, 70, 20
2, 17304, Note_on_c, 0, 65, 22
2, 17308, Note_on_c, 0, 62, 25
2, 17312, Note_on_c, 0, 60, 21
2, 17332, Note_on_c, 0, 70, 0
2, 17340, Note_on_c, 0, 65, 0
2, 17352, Note_on_c, 0, 69, 49
2, 17360, Note_on_c, 0, 60, 0
2, 17360, Note_on_c, 0, 62, 0
2, 17376, Note_on_c, 0, 69, 0
2, 17416, Note_on_c, 0, 70, 54
2, 17472, Note_on_c, 0, 70, 0
2, 17492, Control_c, 0, 64, 127
2, 17556, Note_on_c, 0, 55, 0
2, 17704, Control_c, 0, 64, 0
2, 17704, Note_on_c, 0, 61, 42
2, 17704, Note_on_c, 0, 65, 39
2, 17712, Note_on_c, 0, 55, 39
2, 17832, Note_on_c, 0, 84, 115
2, 17872, Note_on_c, 0, 84, 0
2, 17896, Note_on_c, 0, 82, 49
2, 17908, Note_on_c, 0, 83, 52
2, 17920, Note_on_c, 0, 83, 0
2, 17920, Note_on_c, 0, 82, 0
2, 17956, Note_on_c, 0, 84, 102
2, 17968, Note_on_c, 0, 65, 0
2, 17972, Note_on_c, 0, 55, 0
2, 18012, Note_on_c, 0, 61, 0
2, 18016, Note_on_c, 0, 82, 76
2, 18024, Note_on_c, 0, 84, 0
2, 18064, Note_on_c, 0, 82, 0
2, 18068, Note_on_c, 0, 61, 23
2, 18072, Note_on_c, 0, 81, 75
2, 18076, Note_on_c, 0, 65, 34
2, 18080, Note_on_c, 0, 60, 36
2, 18080, Note_on_c, 0, 55, 39
2, 18108, Note_on_c, 0, 81, 0
2, 18140, Note_on_c, 0, 77, 47
2, 18172, Note_on_c, 0, 77, 0
2, 18188, Note_on_c, 0, 73, 58
2, 18196, Note_on_c, 0, 65, 0
2, 18224, Note_on_c, 0, 73, 0
2, 18248, Note_on_c, 0, 72, 55
2, 18252, Note_on_c, 0, 61, 0
2, 18288, Note_on_c, 0, 72, 0
2, 18296, Note_on_c, 0, 61, 21
2, 18304, Note_on_c, 0, 70, 54
2, 18332, Note_on_c, 0, 70, 0
2, 18340, Note_on_c, 0, 60, 0
2, 18356, Note_on_c, 0, 69, 32
2, 18380, Note_on_c, 0, 61, 0
2, 18384, Note_on_c, 0, 69, 0
2, 18392, Control_c, 0, 64, 127
2, 18408, Note_on_c, 0, 67, 40
2, 18448, Note_on_c, 0, 67, 0
2, 18456, Note_on_c, 0, 55, 0
2, 18464, Control_c, 0, 64, 0
2, 18468, Note_on_c, 0, 68, 57
2, 18500, Note_on_c, 0, 68, 0
2, 18516, Note_on_c, 0, 60, 42
2, 18520, Note_on_c, 0, 65, 32
2, 18520, Note_on_c, 0, 69, 54
2, 18520, Note_on_c, 0, 57, 30
2, 18552, Note_on_c, 0, 69, 0
2, 18584, Note_on_c, 0, 72, 57
2, 18616, Note_on_c, 0, 72, 0
2, 18640, Note_on_c, 0, 74, 63
2, 18680, Note_on_c, 0, 74, 0
2, 18708, Note_on_c, 0, 72, 46
2, 18712, Note_on_c, 0, 65, 0
2, 18732, Note_on_c, 0, 72, 0
2, 18740, Note_on_c, 0, 60, 0
2, 18796, Note_on_c, 0, 76, 74
2, 18804, Note_on_c, 0, 60, 35
2, 18812, Note_on_c, 0, 65, 31
2, 18836, Note_on_c, 0, 76, 0
2, 18888, Note_on_c, 0, 79, 83
2, 18928, Note_on_c, 0, 79, 0
2, 18928, Control_c, 0, 64, 127
2, 18936, Note_on_c, 0, 65, 0
2, 18952, Note_on_c, 0, 60, 0
2, 18968, Note_on_c, 0, 77, 77
2, 18972, Note_on_c, 0, 57, 0
2, 19020, Note_on_c, 0, 77, 0
2, 19052, Note_on_c, 0, 73, 61
2, 19088, Note_on_c, 0, 73, 0
2, 19104, Note_on_c, 0, 76, 75
2, 19156, Note_on_c, 0, 76, 0
2, 19156, Note_on_c, 0, 73, 57
2, 19184, Control_c, 0, 64, 0
2, 19188, Note_on_c, 0, 73, 0
2, 19208, Note_on_c, 0, 53, 37
2, 19208, Note_on_c, 0, 60, 29
2, 19212, Note_on_c, 0, 57, 39
2, 19212, Note_on_c, 0, 74, 70
2, 19216, Note_on_c, 0, 50, 37
2, 19256, Note_on_c, 0, 74, 0
2, 19280, Note_on_c, 0, 69, 54
2, 19316, Note_on_c, 0, 69, 0
2, 19332, Control_c, 0, 64, 127
2, 19344, Note_on_c, 0, 67, 49
2, 19388, Note_on_c, 0, 67, 0
2, 19420, Note_on_c, 0, 65, 50
2, 19432, Note_on_c, 0, 60, 0
2, 19448, Note_on_c, 0, 65, 0
2, 19476, Note_on_c, 0, 57, 0
2, 19488, Note_on_c, 0, 53, 0
2, 19548, Note_on_c, 0, 62, 39
2, 19672, Note_on_c, 0, 62, 0
2, 19748, Note_on_c, 0, 50, 0
2, 19924, Control_c, 0, 64, 0
2, 19944, Note_on_c, 0, 65, 40
2, 19948, Note_on_c, 0, 58, 38
2, 19948, Note_on_c, 0, 67, 45
2, 19948, Note_on_c, 0, 62, 31
2, 19952, Note_on_c, 0, 53, 28
2, 19960, Note_on_c, 0, 57, 36
2, 20024, Control_c, 0, 64, 127
2, 20092, Note_on_c, 0, 65, 0
2, 20164, Note_on_c, 0, 58, 0
2, 20172, Note_on_c, 0, 62, 0
2, 20172, Note_on_c, 0, 67, 0
2, 20184, Note_on_c, 0, 57, 0
2, 20280, Note_on_c, 0, 53, 0
2, 20348, Control_c, 0, 64, 0
2, 20348, Note_on_c, 0, 58, 41
2, 20352, Note_on_c, 0, 53, 33
2, 20352, Note_on_c, 0, 62, 34
2, 20356, Note_on_c, 0, 57, 39
2, 20496, Note_on_c, 0, 86, 102
2, 20552, Note_on_c, 0, 86, 0
2, 20596, Note_on_c, 0, 62, 0
2, 20600, Note_on_c, 0, 58, 0
2, 20608, Note_on_c, 0, 57, 0
2, 20616, Note_on_c, 0, 53, 0
2, 20676, Note_on_c, 0, 82, 78
2, 20676, Control_c, 0, 64, 127
2, 20748, Note_on_c, 0, 82, 0
2, 20756, Control_c, 0, 64, 0
2, 20768, Note_on_c, 0, 74, 60
2, 20768, Note_on_c, 0, 58, 36
2, 20768, Note_on_c, 0, 62, 34
2, 20776, Note_on_c, 0, 52, 38
2, 20812, Note_on_c, 0, 74, 0
2, 20836, Control_c, 0, 64, 127
2, 20876, Note_on_c, 0, 62, 0
2, 20892, Note_on_c, 0, 58, 0
2, 20896, Note_on_c, 0, 52, 0
2, 20932, Control_c, 0, 64, 0
2, 20940, Note_on_c, 0, 81, 72
2, 20944, Note_on_c, 0, 64, 56
2, 20944, Note_on_c, 0, 73, 58
2, 20944, Note_on_c, 0, 69, 56
2, 20944, Note_on_c, 0, 58, 61
2, 20948, Note_on_c, 0, 76, 63
2, 20984, Control_c, 0, 64, 127
2, 21020, Note_on_c, 0, 69, 0
2, 21020, Note_on_c, 0, 73, 0
2, 21024, Note_on_c, 0, 81, 0
2, 21028, Note_on_c, 0, 76, 0
2, 21040, Note_on_c, 0, 64, 0
2, 21044, Note_on_c, 0, 58, 0
2, 21052, Control_c, 0, 64, 0
2, 21080, Note_on_c, 0, 73, 62
2, 21080, Note_on_c, 0, 81, 62
2, 21080, Note_on_c, 0, 69, 68
2, 21088, Note_on_c, 0, 76, 64
2, 21088, Note_on_c, 0, 58, 56
2, 21088, Note_on_c, 0, 64, 54
2, 21104, Control_c, 0, 64, 127
2, 21152, Note_on_c, 0, 69, 0
2, 21160, Note_on_c, 0, 73, 0
2, 21160, Note_on_c, 0, 64, 0
2, 21164, Note_on_c, 0, 76, 0
2, 21168, Note_on_c, 0, 58, 0
2, 21168, Note_on_c, 0, 81, 0
2, 21220, Note_on_c, 0, 73, 49
2, 21220, Note_on_c, 0, 69, 48
2, 21220, Note_on_c, 0, 81, 45
2, 21224, Note_on_c, 0, 58, 52
2, 21228, Note_on_c, 0, 64, 43
2, 21228, Note_on_c, 0, 76, 54
2, 21276, Note_on_c, 0, 81, 0
2, 21276, Note_on_c, 0, 69, 0
2, 21280, Note_on_c, 0, 73, 0
2, 21280, Note_on_c, 0, 64, 0
2, 21284, Note_on_c, 0, 76, 0
2, 21284, Note_on_c, 0, 58, 0
2, 21340, Note_on_c, 0, 58, 51
2, 21340, Note_on_c, 0, 69, 48
2, 21344, Note_on_c, 0, 73, 46
2, 21344, Note_on_c, 0, 81, 34
2, 21344, Note_on_c, 0, 64, 36
2, 21352, Note_on_c, 0, 76, 42
2, 21376, Note_on_c, 0, 64, 0
2, 21380, Note_on_c, 0, 69, 0
2, 21380, Note_on_c, 0, 73, 0
2, 21380, Note_on_c, 0, 81, 0
2, 21380, Note_on_c, 0, 76, 0
2, 21388, Note_on_c, 0, 58, 0
2, 21472, Note_on_c, 0, 73, 43
2, 21472, Note_on_c, 0, 69, 42
2, 21476, Note_on_c, 0, 76, 56
2, 21476, Note_on_c, 0, 58, 43
2, 21484, Note_on_c, 0, 64, 36
2, 21492, Note_on_c, 0, 76, 0
2, 21504, Note_on_c, 0, 64, 0
2, 21516, Note_on_c, 0, 73, 0
2, 21524, Note_on_c, 0, 69, 0
2, 21540, Note_on_c, 0, 58, 0
2, 21576, Note_on_c, 0, 67, 48
2, 21576, Control_c, 0, 64, 72
2, 21576, Note_on_c, 0, 77, 48
2, 21576, Control_c, 0, 64, 0
2, 21576, Note_on_c, 0, 72, 51
2, 21580, Note_on_c, 0, 62, 38
2, 21584, Note_on_c, 0, 57, 48
2, 21656, Control_c, 0, 64, 127
2, 21780, Note_on_c, 0, 67, 0
2, 21788, Note_on_c, 0, 57, 0
2, 21796, Note_on_c, 0, 62, 0
2, 21828, Note_on_c, 0, 72, 0
2, 21840, Note_on_c, 0, 77, 0
2, 21912, Note_on_c, 0, 77, 52
2, 21916, Note_on_c, 0, 67, 36
2, 21916, Note_on_c, 0, 72, 49
2, 21928, Note_on_c, 0, 57, 39
2, 21940, Note_on_c, 0, 62, 17
2, 21980, Note_on_c, 0, 67, 0
2, 22052, Note_on_c, 0, 77, 0
2, 22060, Note_on_c, 0, 72, 0
2, 22096, Note_on_c, 0, 57, 0
2, 22116, Note_on_c, 0, 62, 0
2, 22232, Note_on_c, 0, 79, 63
2, 22260, Note_on_c, 0, 79, 0
2, 22296, Control_c, 0, 64, 0
2, 22304, Note_on_c, 0, 56, 43
2, 22304, Note_on_c, 0, 67, 36
2, 22312, Note_on_c, 0, 84, 51
2, 22316, Note_on_c, 0, 62, 47
2, 22320, Control_c, 0, 64, 127
2, 22324, Note_on_c, 0, 79, 39
2, 22336, Note_on_c, 0, 79, 0
2, 22348, Note_on_c, 0, 84, 0
2, 22360, Note_on_c, 0, 62, 0
2, 22372, Note_on_c, 0, 67, 0
2, 22372, Note_on_c, 0, 56, 0
2, 22432, Note_on_c, 0, 91, 90
2, 22432, Note_on_c, 0, 84, 88
2, 22436, Note_on_c, 0, 56, 79
2, 22436, Note_on_c, 0, 79, 85
2, 22440, Note_on_c, 0, 67, 74
2, 22444, Note_on_c, 0, 62, 68
2, 22484, Note_on_c, 0, 79, 0
2, 22488, Note_on_c, 0, 67, 0
2, 22492, Note_on_c, 0, 56, 0
2, 22492, Note_on_c, 0, 91, 0
2, 22496, Note_on_c, 0, 84, 0
2, 22500, Note_on_c, 0, 62, 0
2, 22516, Note_on_c, 0, 56, 75
2, 22516, Note_on_c, 0, 91, 84
2, 22516, Note_on_c, 0, 67, 68
2, 22520, Note_on_c, 0, 84, 84
2, 22520, Note_on_c, 0, 62, 67
2, 22520, Note_on_c, 0, 79, 82
2, 22524, Note_on_c, 0, 88, 74
2, 22572, Note_on_c, 0, 79, 0
2, 22576, Note_on_c, 0, 91, 0
2, 22576, Note_on_c, 0, 84, 0
2, 22580, Note_on_c, 0, 67, 0
2, 22584, Note_on_c, 0, 56, 0
2, 22584, Note_on_c, 0, 88, 0
2, 22596, Note_on_c, 0, 62, 0
2, 22620, Note_on_c, 0, 91, 99
2, 22624, Note_on_c, 0, 56, 83
2, 22624, Note_on_c, 0, 67, 88
2, 22624, Note_on_c, 0, 79, 99
2, 22624, Note_on_c, 0, 84, 90
2, 22624, Note_on_c, 0, 62, 72
2, 22624, Note_on_c, 0, 88, 81
2, 22668, Note_on_c, 0, 79, 0
2, 22672, Note_on_c, 0, 67, 0
2, 22672, Note_on_c, 0, 91, 0
2, 22676, Note_on_c, 0, 84, 0
2, 22676, Note_on_c, 0, 56, 0
2, 22680, Note_on_c, 0, 88, 0
2, 22684, Note_on_c, 0, 62, 0
2, 22688, Control_c, 0, 64, 0
2, 22704, Control_c, 0, 64, 127
2, 22704, Note_on_c, 0, 56, 75
2, 22708, Note_on_c, 0, 67, 81
2, 22708, Note_on_c, 0, 91, 83
2, 22708, Note_on_c, 0, 62, 80
2, 22708, Note_on_c, 0, 84, 82
2, 22708, Note_on_c, 0, 88, 70
2, 22708, Note_on_c, 0, 79, 87
2, 22748, Note_on_c, 0, 88, 0
2, 22760, Note_on_c, 0, 91, 0
2, 22764, Note_on_c, 0, 84, 0
2, 22780, Note_on_c, 0, 79, 0
2, 22808, Note_on_c, 0, 67, 0
2, 22808, Note_on_c, 0, 62, 0
2, 22820, Note_on_c, 0, 56, 0
2, 22880, Note_on_c, 0, 56, 72
2, 22884, Note_on_c, 0, 88, 75
2, 22884, Note_on_c, 0, 84, 75
2, 22884, Note_on_c, 0, 67, 70
2, 22884, Note_on_c, 0, 76, 78
2, 22884, Note_on_c, 0, 62, 67
2, 22908, Note_on_c, 0, 86, 25
2, 22932, Note_on_c, 0, 76, 0
2, 22936, Note_on_c, 0, 67, 0
2, 22936, Note_on_c, 0, 62, 0
2, 22944, Note_on_c, 0, 84, 0
2, 22944, Note_on_c, 0, 86, 0
2, 22948, Note_on_c, 0, 88, 0
2, 22956, Note_on_c, 0, 56, 0
2, 23052, Control_c, 0, 64, 0
2, 23060, Note_on_c, 0, 89, 96
2, 23060, Note_on_c, 0, 85, 83
2, 23060, Note_on_c, 0, 82, 84
2, 23060, Note_on_c, 0, 77, 86
2, 23060, Note_on_c, 0, 65, 82
2, 23060, Note_on_c, 0, 61, 66
2, 23060, Note_on_c, 0, 54, 73
2, 23060, Note_on_c, 0, 58, 63
2, 23112, Control_c, 0, 64, 127
2, 23180, Note_on_c, 0, 77, 0
2, 23188, Note_on_c, 0, 82, 0
2, 23192, Note_on_c, 0, 58, 0
2, 23192, Note_on_c, 0, 65, 0
2, 23192, Note_on_c, 0, 54, 0
2, 23196, Note_on_c, 0, 89, 0
2, 23196, Note_on_c, 0, 85, 0
2, 23204, Note_on_c, 0, 61, 0
2, 23260, Note_on_c, 0, 65, 74
2, 23264, Note_on_c, 0, 89, 83
2, 23264, Note_on_c, 0, 82, 81
2, 23264, Note_on_c, 0, 54, 65
2, 23264, Note_on_c, 0, 85, 73
2, 23264, Note_on_c, 0, 58, 61
2, 23264, Note_on_c, 0, 61, 61
2, 23264, Note_on_c, 0, 77, 75
2, 23360, Note_on_c, 0, 77, 0
2, 23364, Note_on_c, 0, 54, 0
2, 23364, Note_on_c, 0, 82, 0
2, 23364, Note_on_c, 0, 65, 0
2, 23368, Note_on_c, 0, 58, 0
2, 23372, Note_on_c, 0, 61, 0
2, 23372, Note_on_c, 0, 85, 0
2, 23376, Note_on_c, 0, 89, 0
2, 23456, Note_on_c, 0, 65, 61
2, 23456, Note_on_c, 0, 89, 61
2, 23456, Note_on_c, 0, 85, 61
2, 23456, Note_on_c, 0, 54, 54
2, 23456, Note_on_c, 0, 82, 62
2, 23456, Note_on_c, 0, 58, 52
2, 23456, Note_on_c, 0, 61, 51
2, 23456, Note_on_c, 0, 77, 55
2, 23540, Note_on_c, 0, 77, 0
2, 23540, Note_on_c, 0, 58, 0
2, 23540, Note_on_c, 0, 82, 0
2, 23548, Note_on_c, 0, 65, 0
2, 23548, Note_on_c, 0, 61, 0
2, 23556, Note_on_c, 0, 89, 0
2, 23556, Note_on_c, 0, 54, 0
2, 23556, Note_on_c, 0, 85, 0
2, 23632, Note_on_c, 0, 82, 57
2, 23636, Note_on_c, 0, 65, 55
2, 23636, Note_on_c, 0, 85, 48
2, 23636, Note_on_c, 0, 61, 51
2, 23636, Note_on_c, 0, 89, 36
2, 23636, Note_on_c, 0, 54, 46
2, 23644, Note_on_c, 0, 58, 51
2, 23644, Note_on_c, 0, 77, 45
2, 23664, Note_on_c, 0, 77, 0
2, 23680, Note_on_c, 0, 89, 0
2, 23684, Note_on_c, 0, 65, 0
2, 23684, Note_on_c, 0, 82, 0
2, 23688, Note_on_c, 0, 85, 0
2, 23708, Note_on_c, 0, 61, 0
2, 23708, Note_on_c, 0, 54, 0
2, 23784, Note_on_c, 0, 58, 0
2, 23808, Control_c, 0, 64, 0
2, 23832, Control_c, 0, 64, 127
2, 23832, Note_on_c, 0, 92, 59
2, 23836, Note_on_c, 0, 54, 50
2, 23840, Note_on_c, 0, 60, 51
2, 23840, Note_on_c, 0, 64, 46
2, 23840, Note_on_c, 0, 80, 49
2, 23840, Note_on_c, 0, 87, 55
2, 23860, Note_on_c, 0, 87, 0
2, 23860, Note_on_c, 0, 92, 0
2, 23860, Note_on_c, 0, 64, 0
2, 23868, Note_on_c, 0, 54, 0
2, 23872, Note_on_c, 0, 80, 0
2, 23872, Note_on_c, 0, 60, 0
2, 24000, Note_on_c, 0, 44, 64
2, 24024, Note_on_c, 0, 44, 0
2, 24044, Note_on_c, 0, 46, 45
2, 24056, Note_on_c, 0, 46, 0
2, 24080, Note_on_c, 0, 49, 61
2, 24092, Note_on_c, 0, 49, 0
2, 24108, Note_on_c, 0, 51, 60
2, 24124, Note_on_c, 0, 51, 0
2, 24144, Note_on_c, 0, 54, 59
2, 24160, Note_on_c, 0, 54, 0
2, 24176, Note_on_c, 0, 56, 57
2, 24188, Note_on_c, 0, 56, 0
2, 24200, Note_on_c, 0, 58, 61
2, 24212, Note_on_c, 0, 58, 0
2, 24232, Note_on_c, 0, 61, 61
2, 24256, Note_on_c, 0, 61, 0
2, 24264, Note_on_c, 0, 63, 60
2, 24268, Control_c, 0, 64, 0
2, 24288, Note_on_c, 0, 63, 0
2, 24300, Note_on_c, 0, 66, 64
2, 24320, Note_on_c, 0, 66, 0
2, 24324, Note_on_c, 0, 68, 61
2, 24344, Note_on_c, 0, 68, 0
2, 24352, Note_on_c, 0, 70, 63
2, 24372, Control_c, 0, 64, 127
2, 24376, Note_on_c, 0, 70, 0
2, 24392, Note_on_c, 0, 73, 58
2, 24416, Note_on_c, 0, 73, 0
2, 24424, Note_on_c, 0, 75, 56
2, 24452, Note_on_c, 0, 75, 0
2, 24464, Note_on_c, 0, 78, 56
2, 24488, Note_on_c, 0, 78, 0
2, 24492, Note_on_c, 0, 80, 57
2, 24508, Note_on_c, 0, 80, 0
2, 24520, Note_on_c, 0, 82, 52
2, 24532, Note_on_c, 0, 82, 0
2, 24556, Note_on_c, 0, 85, 49
2, 24572, Note_on_c, 0, 85, 0
2, 24588, Note_on_c, 0, 87, 50
2, 24608, Note_on_c, 0, 87, 0
2, 24612, Note_on_c, 0, 63, 38
2, 24616, Note_on_c, 0, 58, 47
2, 24620, Note_on_c, 0, 53, 38
2, 24620, Note_on_c, 0, 56, 45
2, 24628, Note_on_c, 0, 90, 45
2, 24640, Control_c, 0, 64, 0
2, 24648, Note_on_c, 0, 90, 0
2, 24672, Note_on_c, 0, 92, 35
2, 24764, Control_c, 0, 64, 127
2, 24840, Note_on_c, 0, 92, 0
2, 24892, Note_on_c, 0, 58, 0
2, 24900, Note_on_c, 0, 56, 0
2, 24912, Note_on_c, 0, 63, 0
2, 25016, Note_on_c, 0, 63, 32
2, 25016, Note_on_c, 0, 58, 42
2, 25032, Note_on_c, 0, 56, 31
2, 25176, Note_on_c, 0, 53, 0
2, 25192, Note_on_c, 0, 58, 0
2, 25196, Note_on_c, 0, 80, 63
2, 25200, Note_on_c, 0, 56, 0
2, 25220, Note_on_c, 0, 63, 0
2, 25244, Note_on_c, 0, 80, 0
2, 25304, Note_on_c, 0, 80, 58
2, 25356, Note_on_c, 0, 80, 0
2, 25404, Note_on_c, 0, 61, 41
2, 25408, Note_on_c, 0, 65, 37
2, 25416, Note_on_c, 0, 80, 52
2, 25416, Control_c, 0, 64, 0
2, 25416, Note_on_c, 0, 60, 36
2, 25504, Note_on_c, 0, 80, 0
2, 25516, Note_on_c, 0, 82, 46
2, 25552, Note_on_c, 0, 80, 46
2, 25560, Note_on_c, 0, 82, 0
2, 25580, Note_on_c, 0, 77, 48
2, 25588, Note_on_c, 0, 80, 0
2, 25608, Note_on_c, 0, 77, 0
2, 25660, Note_on_c, 0, 80, 55
2, 25684, Note_on_c, 0, 65, 0
2, 25696, Note_on_c, 0, 61, 0
2, 25700, Note_on_c, 0, 80, 0
2, 25720, Note_on_c, 0, 82, 63
2, 25760, Note_on_c, 0, 82, 0
2, 25764, Note_on_c, 0, 80, 58
2, 25792, Note_on_c, 0, 65, 38
2, 25796, Note_on_c, 0, 80, 0
2, 25796, Note_on_c, 0, 61, 39
2, 25804, Note_on_c, 0, 77, 41
2, 25820, Note_on_c, 0, 77, 0
2, 25864, Note_on_c, 0, 80, 64
2, 25900, Note_on_c, 0, 80, 0
2, 25920, Note_on_c, 0, 82, 59
2, 25924, Note_on_c, 0, 65, 0
2, 25924, Note_on_c, 0, 60, 0
2, 25952, Note_on_c, 0, 80, 56
2, 25956, Note_on_c, 0, 82, 0
2, 25976, Control_c, 0, 64, 127
2, 25984, Note_on_c, 0, 80, 0
2, 25988, Note_on_c, 0, 77, 52
2, 26004, Note_on_c, 0, 61, 0
2, 26008, Note_on_c, 0, 77, 0
2, 26048, Note_on_c, 0, 80, 56
2, 26064, Control_c, 0, 64, 0
2, 26076, Note_on_c, 0, 80, 0
2, 26084, Note_on_c, 0, 61, 36
2, 26088, Note_on_c, 0, 82, 62
2, 26092, Note_on_c, 0, 58, 39
2, 26092, Note_on_c, 0, 54, 32
2, 26092, Note_on_c, 0, 65, 27
2, 26144, Note_on_c, 0, 80, 55
2, 26148, Note_on_c, 0, 82, 0
2, 26168, Control_c, 0, 64, 127
2, 26252, Note_on_c, 0, 80, 0
2, 26264, Note_on_c, 0, 65, 0
2, 26268, Note_on_c, 0, 58, 0
2, 26276, Note_on_c, 0, 61, 0
2, 26288, Note_on_c, 0, 54, 0
2, 26460, Control_c, 0, 64, 0
2, 26472, Note_on_c, 0, 87, 88
2, 26472, Note_on_c, 0, 54, 78
2, 26472, Note_on_c, 0, 65, 86
2, 26472, Note_on_c, 0, 82, 87
2, 26472, Note_on_c, 0, 75, 96
2, 26472, Note_on_c, 0, 58, 66
2, 26472, Note_on_c, 0, 61, 66
2, 26492, Control_c, 0, 64, 127
2, 26492, Note_on_c, 0, 85, 29
2, 26568, Note_on_c, 0, 75, 0
2, 26568, Note_on_c, 0, 82, 0
2, 26568, Note_on_c, 0, 54, 0
2, 26576, Note_on_c, 0, 87, 0
2, 26576, Note_on_c, 0, 65, 0
2, 26580, Note_on_c, 0, 58, 0
2, 26588, Note_on_c, 0, 61, 0
2, 26592, Note_on_c, 0, 85, 0
2, 26608, Note_on_c, 0, 88, 84
2, 26608, Note_on_c, 0, 82, 80
2, 26612, Note_on_c, 0, 58, 62
2, 26612, Note_on_c, 0, 76, 68
2, 26612, Note_on_c, 0, 65, 66
2, 26612, Note_on_c, 0, 61, 71
2, 26612, Note_on_c, 0, 54, 67
2, 26624, Note_on_c, 0, 77, 41
2, 26628, Note_on_c, 0, 85, 36
2, 26640, Note_on_c, 0, 77, 0
2, 26668, Note_on_c, 0, 76, 0
2, 26684, Note_on_c, 0, 88, 0
2, 26684, Note_on_c, 0, 85, 0
2, 26696, Note_on_c, 0, 82, 0
2, 26700, Note_on_c, 0, 58, 0
2, 26704, Note_on_c, 0, 54, 0
2, 26704, Note_on_c, 0, 65, 0
2, 26712, Note_on_c, 0, 61, 0
2, 26756, Note_on_c, 0, 89, 72
2, 26756, Note_on_c, 0, 82, 68
2, 26760, Note_on_c, 0, 77, 76
2, 26760, Note_on_c, 0, 61, 57
2, 26760, Note_on_c, 0, 54, 57
2, 26760, Note_on_c, 0, 65, 61
2, 26764, Note_on_c, 0, 58, 59
2, 26768, Note_on_c, 0, 88, 45
2, 26772, Note_on_c, 0, 87, 36
2, 26796, Note_on_c, 0, 87, 0
2, 26800, Note_on_c, 0, 88, 0
2, 26816, Note_on_c, 0, 89, 0
2, 26824, Note_on_c, 0, 65, 0
2, 26824, Note_on_c, 0, 77, 0
2, 26836, Note_on_c, 0, 82, 0
2, 26840, Note_on_c, 0, 54, 0
2, 26844, Note_on_c, 0, 61, 0
2, 26864, Note_on_c, 0, 58, 0
2, 26892, Note_on_c, 0, 88, 66
2, 26892, Control_c, 0, 64, 0
2, 26896, Note_on_c, 0, 76, 60
2, 26896, Note_on_c, 0, 82, 62
2, 26900, Note_on_c, 0, 64, 49
2, 26900, Note_on_c, 0, 54, 39
2, 26904, Note_on_c, 0, 60, 52
2, 26904, Note_on_c, 0, 58, 52
2, 26952, Control_c, 0, 64, 127
2, 26956, Note_on_c, 0, 88, 0
2, 26976, Note_on_c, 0, 76, 0
2, 26984, Note_on_c, 0, 60, 0
2, 26988, Note_on_c, 0, 82, 0
2, 26992, Note_on_c, 0, 64, 0
2, 26992, Note_on_c, 0, 54, 0
2, 26992, Note_on_c, 0, 58, 0
2, 27030, Note_on_c, 0, 87, 56
2, 27032, Control_c, 0, 64, 72
2, 27032, Control_c, 0, 64, 0
2, 27040, Note_on_c, 0, 75, 43
2, 27040, Note_on_c, 0, 54, 36
2, 27040, Note_on_c, 0, 82, 56
2, 27040, Note_on_c, 0, 64, 42
2, 27044, Note_on_c, 0, 60, 43
2, 27048, Note_on_c, 0, 58, 39
2, 27076, Control_c, 0, 64, 127
2, 27144, Note_on_c, 0, 58, 0
2, 27148, Note_on_c, 0, 60, 0
2, 27164, Note_on_c, 0, 54, 0
2, 27172, Note_on_c, 0, 75, 0
2, 27176, Note_on_c, 0, 64, 0
2, 27176, Note_on_c, 0, 87, 0
2, 27180, Note_on_c, 0, 82, 0
2, 27272, Note_on_c, 0, 85, 51
2, 27272, Note_on_c, 0, 64, 46
2, 27276, Note_on_c, 0, 73, 44
2, 27276, Note_on_c, 0, 54, 40
2, 27280, Note_on_c, 0, 80, 54
2, 27280, Note_on_c, 0, 60, 47
2, 27284, Note_on_c, 0, 58, 42
2, 27332, Note_on_c, 0, 58, 0
2, 27332, Note_on_c, 0, 64, 0
2, 27336, Note_on_c, 0, 60, 0
2, 27340, Note_on_c, 0, 80, 0
2, 27344, Note_on_c, 0, 54, 0
2, 27348, Note_on_c, 0, 73, 0
2, 27352, Note_on_c, 0, 85, 0
2, 27396, Control_c, 0, 64, 0
2, 27408, Note_on_c, 0, 84, 57
2, 27416, Note_on_c, 0, 64, 35
2, 27416, Note_on_c, 0, 72, 48
2, 27420, Note_on_c, 0, 54, 38
2, 27420, Note_on_c, 0, 58, 33
2, 27424, Note_on_c, 0, 60, 37
2, 27436, Control_c, 0, 64, 127
2, 27444, Note_on_c, 0, 84, 0
2, 27452, Note_on_c, 0, 60, 0
2, 27456, Note_on_c, 0, 72, 0
2, 27460, Note_on_c, 0, 58, 0
2, 27460, Note_on_c, 0, 64, 0
2, 27472, Note_on_c, 0, 54, 0
2, 27536, Note_on_c, 0, 82, 55
2, 27536, Note_on_c, 0, 70, 51
2, 27536, Note_on_c, 0, 54, 39
2, 27540, Note_on_c, 0, 64, 31
2, 27552, Note_on_c, 0, 58, 25
2, 27552, Note_on_c, 0, 60, 33
2, 27568, Note_on_c, 0, 64, 0
2, 27572, Note_on_c, 0, 58, 0
2, 27584, Note_on_c, 0, 82, 0
2, 27584, Note_on_c, 0, 60, 0
2, 27588, Note_on_c, 0, 70, 0
2, 27588, Note_on_c, 0, 54, 0
2, 27644, Control_c, 0, 64, 0
2, 27660, Note_on_c, 0, 80, 49
2, 27660, Note_on_c, 0, 63, 39
2, 27664, Note_on_c, 0, 60, 33
2, 27672, Note_on_c, 0, 68, 37
2, 27672, Note_on_c, 0, 56, 42
2, 27680, Note_on_c, 0, 53, 26
2, 27684, Control_c, 0, 64, 127
2, 27728, Note_on_c, 0, 63, 0
2, 27736, Note_on_c, 0, 80, 0
2, 27740, Note_on_c, 0, 60, 0
2, 27752, Note_on_c, 0, 68, 0
2, 27752, Note_on_c, 0, 53, 0
2, 27764, Note_on_c, 0, 56, 0
2, 28164, Note_on_c, 0, 55, 44
2, 28180, Note_on_c, 0, 55, 0
2, 28188, Control_c, 0, 64, 0
2, 28192, Note_on_c, 0, 56, 54
2, 28216, Note_on_c, 0, 55, 43
2, 28232, Note_on_c, 0, 56, 0
2, 28244, Note_on_c, 0, 55, 0
2, 28256, Note_on_c, 0, 52, 56
2, 28272, Note_on_c, 0, 52, 0
2, 28356, Note_on_c, 0, 53, 65
2, 28376, Note_on_c, 0, 53, 0
2, 28412, Note_on_c, 0, 55, 60
2, 28448, Note_on_c, 0, 55, 0
2, 28460, Note_on_c, 0, 56, 58
2, 28496, Note_on_c, 0, 56, 0
2, 28496, Note_on_c, 0, 58, 48
2, 28508, Note_on_c, 0, 58, 0
2, 28524, Note_on_c, 0, 60, 63
2, 28568, Note_on_c, 0, 60, 0
2, 28568, Note_on_c, 0, 62, 58
2, 28592, Note_on_c, 0, 63, 66
2, 28596, Note_on_c, 0, 62, 0
2, 28608, Note_on_c, 0, 63, 0
2, 28628, Note_on_c, 0, 65, 68
2, 28660, Note_on_c, 0, 67, 61
2, 28668, Note_on_c, 0, 65, 0
2, 28680, Note_on_c, 0, 68, 57
2, 28700, Note_on_c, 0, 67, 0
2, 28704, Note_on_c, 0, 68, 0
2, 28704, Note_on_c, 0, 70, 59
2, 28716, Note_on_c, 0, 70, 0
2, 28736, Note_on_c, 0, 72, 61
2, 28776, Note_on_c, 0, 72, 0
2, 28776, Note_on_c, 0, 74, 64
2, 28796, Note_on_c, 0, 74, 0
2, 28796, Note_on_c, 0, 75, 54
2, 28808, Note_on_c, 0, 75, 0
2, 28832, Note_on_c, 0, 77, 54
2, 28868, Note_on_c, 0, 77, 0
2, 28868, Note_on_c, 0, 79, 44
2, 28892, Note_on_c, 0, 62, 40
2, 28896, Note_on_c, 0, 56, 40
2, 28900, Note_on_c, 0, 67, 23
2, 28908, Note_on_c, 0, 79, 0
2, 28920, Note_on_c, 0, 82, 53
2, 28928, Note_on_c, 0, 82, 0
2, 28960, Note_on_c, 0, 84, 54
2, 28972, Note_on_c, 0, 67, 0
2, 28980, Note_on_c, 0, 84, 0
2, 28988, Note_on_c, 0, 62, 0
2, 29000, Note_on_c, 0, 86, 46
2, 29016, Note_on_c, 0, 56, 0
2, 29032, Note_on_c, 0, 86, 0
2, 29032, Note_on_c, 0, 87, 50
2, 29052, Control_c, 0, 64, 127
2, 29060, Note_on_c, 0, 87, 0
2, 29072, Note_on_c, 0, 88, 42
2, 29092, Note_on_c, 0, 88, 0
2, 29100, Note_on_c, 0, 89, 54
2, 29132, Note_on_c, 0, 89, 0
2, 29132, Control_c, 0, 64, 0
2, 29152, Note_on_c, 0, 87, 57
2, 29160, Note_on_c, 0, 61, 39
2, 29160, Note_on_c, 0, 54, 31
2, 29164, Note_on_c, 0, 65, 22
2, 29164, Note_on_c, 0, 58, 41
2, 29228, Control_c, 0, 64, 127
2, 29324, Note_on_c, 0, 87, 0
2, 29336, Note_on_c, 0, 65, 0
2, 29340, Note_on_c, 0, 58, 0
2, 29348, Note_on_c, 0, 61, 0
2, 29368, Note_on_c, 0, 54, 0
2, 29516, Control_c, 0, 64, 0
2, 29544, Note_on_c, 0, 88, 90
2, 29544, Note_on_c, 0, 82, 88
2, 29548, Note_on_c, 0, 76, 88
2, 29548, Note_on_c, 0, 65, 74
2, 29548, Note_on_c, 0, 54, 69
2, 29548, Note_on_c, 0, 61, 63
2, 29548, Note_on_c, 0, 85, 68
2, 29548, Note_on_c, 0, 58, 62
2, 29556, Control_c, 0, 64, 127
2, 29620, Note_on_c, 0, 76, 0
2, 29624, Note_on_c, 0, 88, 0
2, 29636, Note_on_c, 0, 54, 0
2, 29640, Note_on_c, 0, 82, 0
2, 29640, Note_on_c, 0, 65, 0
2, 29652, Note_on_c, 0, 85, 0
2, 29652, Note_on_c, 0, 58, 0
2, 29660, Note_on_c, 0, 61, 0
2, 29688, Control_c, 0, 64, 0
2, 29688, Note_on_c, 0, 82, 69
2, 29692, Note_on_c, 0, 89, 80
2, 29692, Note_on_c, 0, 85, 61
2, 29696, Note_on_c, 0, 77, 73
2, 29700, Note_on_c, 0, 54, 69
2, 29700, Note_on_c, 0, 61, 59
2, 29700, Note_on_c, 0, 65, 68
2, 29700, Note_on_c, 0, 58, 64
2, 29760, Control_c, 0, 64, 127
2, 29836, Note_on_c, 0, 77, 0
2, 29840, Note_on_c, 0, 65, 0
2, 29844, Note_on_c, 0, 89, 0
2, 29860, Note_on_c, 0, 54, 0
2, 29868, Note_on_c, 0, 61, 0
2, 29868, Note_on_c, 0, 82, 0
2, 29868, Note_on_c, 0, 85, 0
2, 29916, Note_on_c, 0, 58, 0
2, 29964, Control_c, 0, 64, 0
2, 29968, Note_on_c, 0, 54, 52
2, 29968, Note_on_c, 0, 87, 61
2, 29968, Note_on_c, 0, 75, 56
2, 29968, Note_on_c, 0, 60, 51
2, 29968, Note_on_c, 0, 64, 49
2, 29972, Note_on_c, 0, 82, 63
2, 30008, Control_c, 0, 64, 127
2, 30076, Note_on_c, 0, 75, 0
2, 30084, Note_on_c, 0, 54, 0
2, 30088, Note_on_c, 0, 64, 0
2, 30088, Note_on_c, 0, 82, 0
2, 30092, Note_on_c, 0, 87, 0
2, 30096, Note_on_c, 0, 60, 0
2, 30172, Note_on_c, 0, 87, 57
2, 30176, Note_on_c, 0, 54, 50
2, 30176, Note_on_c, 0, 75, 49
2, 30176, Note_on_c, 0, 64, 49
2, 30176, Note_on_c, 0, 82, 58
2, 30180, Note_on_c, 0, 60, 50
2, 30232, Note_on_c, 0, 87, 0
2, 30240, Note_on_c, 0, 82, 0
2, 30252, Note_on_c, 0, 75, 0
2, 30264, Note_on_c, 0, 64, 0
2, 30276, Note_on_c, 0, 54, 0
2, 30288, Note_on_c, 0, 60, 0
2, 30360, Note_on_c, 0, 84, 62
2, 30364, Note_on_c, 0, 72, 52
2, 30368, Note_on_c, 0, 80, 49
2, 30368, Note_on_c, 0, 54, 51
2, 30368, Note_on_c, 0, 60, 50
2, 30372, Note_on_c, 0, 64, 46
2, 30372, Note_on_c, 0, 77, 46
2, 30440, Note_on_c, 0, 84, 0
2, 30460, Note_on_c, 0, 72, 0
2, 30464, Note_on_c, 0, 64, 0
2, 30472, Note_on_c, 0, 80, 0
2, 30480, Note_on_c, 0, 54, 0
2, 30480, Note_on_c, 0, 60, 0
2, 30492, Note_on_c, 0, 77, 0
2, 30660, Note_on_c, 0, 82, 67
2, 30660, Note_on_c, 0, 54, 54
2, 30664, Note_on_c, 0, 70, 63
2, 30668, Note_on_c, 0, 77, 59
2, 30668, Note_on_c, 0, 60, 45
2, 30672, Note_on_c, 0, 64, 27
2, 30684, Note_on_c, 0, 64, 0
2, 30684, Note_on_c, 0, 77, 0
2, 30704, Note_on_c, 0, 54, 0
2, 30704, Note_on_c, 0, 82, 0
2, 30712, Note_on_c, 0, 70, 0
2, 30736, Note_on_c, 0, 60, 0
2, 30756, Control_c, 0, 64, 0
2, 30764, Note_on_c, 0, 80, 54
2, 30764, Note_on_c, 0, 60, 30
2, 30772, Note_on_c, 0, 63, 41
2, 30772, Note_on_c, 0, 75, 56
2, 30772, Note_on_c, 0, 68, 38
2, 30772, Note_on_c, 0, 56, 46
2, 30780, Note_on_c, 0, 53, 39
2, 30836, Control_c, 0, 64, 127
2, 30880, Note_on_c, 0, 63, 0
2, 30884, Note_on_c, 0, 68, 0
2, 30888, Note_on_c, 0, 80, 0
2, 30888, Note_on_c, 0, 75, 0
2, 30888, Note_on_c, 0, 56, 0
2, 30896, Note_on_c, 0, 53, 0
2, 30904, Note_on_c, 0, 60, 0
2, 30952, Note_on_c, 0, 63, 47
2, 30956, Note_on_c, 0, 80, 50
2, 30956, Note_on_c, 0, 68, 43
2, 30960, Note_on_c, 0, 60, 41
2, 30960, Note_on_c, 0, 53, 35
2, 30960, Note_on_c, 0, 75, 49
2, 30960, Note_on_c, 0, 56, 46
2, 31120, Note_on_c, 0, 63, 0
2, 31144, Note_on_c, 0, 68, 0
2, 31152, Note_on_c, 0, 80, 0
2, 31156, Note_on_c, 0, 75, 0
2, 31196, Note_on_c, 0, 56, 0
2, 31212, Note_on_c, 0, 60, 0
2, 31252, Note_on_c, 0, 53, 0
2, 31324, Note_on_c, 0, 63, 38
2, 31336, Note_on_c, 0, 60, 28
2, 31340, Note_on_c, 0, 56, 33
2, 31348, Note_on_c, 0, 63, 0
2, 31356, Note_on_c, 0, 60, 0
2, 31372, Note_on_c, 0, 56, 0
2, 31408, Note_on_c, 0, 68, 62
2, 31440, Note_on_c, 0, 68, 0
2, 31472, Note_on_c, 0, 77, 90
2, 31512, Note_on_c, 0, 77, 0
2, 31540, Note_on_c, 0, 68, 77
2, 31548, Note_on_c, 0, 56, 40
2, 31548, Note_on_c, 0, 48, 43
2, 31560, Control_c, 0, 64, 0
2, 31640, Control_c, 0, 64, 127
2, 31668, Note_on_c, 0, 68, 0
2, 31704, Note_on_c, 0, 68, 66
2, 31800, Note_on_c, 0, 56, 0
2, 31904, Note_on_c, 0, 68, 0
2, 31904, Note_on_c, 0, 65, 54
2, 31908, Note_on_c, 0, 56, 39
2, 31972, Note_on_c, 0, 65, 0
2, 31972, Note_on_c, 0, 48, 0
2, 32016, Note_on_c, 0, 56, 0
2, 32028, Note_on_c, 0, 65, 47
2, 32072, Note_on_c, 0, 65, 0
2, 32172, Note_on_c, 0, 72, 70
2, 32220, Note_on_c, 0, 72, 0
2, 32232, Note_on_c, 0, 69, 57
2, 32264, Note_on_c, 0, 69, 0
2, 32284, Control_c, 0, 64, 0
2, 32284, Note_on_c, 0, 65, 34
2, 32288, Note_on_c, 0, 61, 39
2, 32288, Note_on_c, 0, 70, 60
2, 32296, Note_on_c, 0, 60, 35
2, 32416, Control_c, 0, 64, 127
2, 32508, Note_on_c, 0, 65, 0
2, 32532, Note_on_c, 0, 61, 0
2, 32556, Note_on_c, 0, 70, 0
2, 32624, Note_on_c, 0, 65, 39
2, 32624, Note_on_c, 0, 61, 41
2, 32660, Control_c, 0, 64, 0
2, 32684, Note_on_c, 0, 75, 63
2, 32724, Note_on_c, 0, 75, 0
2, 32732, Note_on_c, 0, 72, 49
2, 32776, Note_on_c, 0, 72, 0
2, 32776, Control_c, 0, 64, 127
2, 32788, Note_on_c, 0, 73, 57
2, 32844, Note_on_c, 0, 73, 0
2, 32844, Note_on_c, 0, 65, 0
2, 32880, Note_on_c, 0, 61, 0
2, 32976, Note_on_c, 0, 84, 67
2, 32976, Note_on_c, 0, 61, 41
2, 32976, Note_on_c, 0, 65, 39
2, 32984, Control_c, 0, 64, 0
2, 33008, Note_on_c, 0, 84, 0
2, 33016, Note_on_c, 0, 81, 54
2, 33040, Note_on_c, 0, 81, 0
2, 33076, Note_on_c, 0, 82, 60
2, 33084, Control_c, 0, 64, 127
2, 33172, Note_on_c, 0, 82, 0
2, 33172, Note_on_c, 0, 65, 0
2, 33188, Note_on_c, 0, 61, 0
2, 33212, Note_on_c, 0, 60, 0
2, 33412, Note_on_c, 0, 61, 45
2, 33412, Note_on_c, 0, 65, 38
2, 33432, Control_c, 0, 64, 0
2, 33484, Control_c, 0, 64, 127
2, 33584, Note_on_c, 0, 56, 56
2, 33644, Note_on_c, 0, 65, 0
2, 33656, Note_on_c, 0, 56, 0
2, 33712, Note_on_c, 0, 61, 0
2, 33768, Control_c, 0, 64, 0
2, 33780, Note_on_c, 0, 84, 82
2, 33784, Note_on_c, 0, 77, 70
2, 33784, Note_on_c, 0, 72, 75
2, 33784, Note_on_c, 0, 61, 55
2, 33784, Note_on_c, 0, 55, 61
2, 33784, Note_on_c, 0, 65, 61
2, 33784, Note_on_c, 0, 58, 56
2, 33824, Control_c, 0, 64, 127
2, 33888, Note_on_c, 0, 72, 0
2, 33896, Note_on_c, 0, 84, 0
2, 33908, Note_on_c, 0, 55, 0
2, 33912, Note_on_c, 0, 65, 0
2, 33924, Note_on_c, 0, 58, 0
2, 33924, Note_on_c, 0, 77, 0
2, 33928, Note_on_c, 0, 61, 0
2, 33972, Note_on_c, 0, 85, 85
2, 33976, Note_on_c, 0, 73, 80
2, 33976, Note_on_c, 0, 58, 64
2, 33976, Note_on_c, 0, 77, 83
2, 33976, Note_on_c, 0, 65, 72
2, 33976, Note_on_c, 0, 61, 68
2, 33980, Note_on_c, 0, 55, 63
2, 34040, Note_on_c, 0, 77, 0
2, 34064, Note_on_c, 0, 73, 0
2, 34084, Note_on_c, 0, 55, 0
2, 34088, Note_on_c, 0, 85, 0
2, 34092, Note_on_c, 0, 58, 0
2, 34092, Note_on_c, 0, 65, 0
2, 34096, Note_on_c, 0, 61, 0
2, 34336, Note_on_c, 0, 65, 80
2, 34336, Note_on_c, 0, 84, 87
2, 34336, Note_on_c, 0, 61, 66
2, 34336, Note_on_c, 0, 58, 65
2, 34336, Note_on_c, 0, 72, 88
2, 34336, Note_on_c, 0, 80, 82
2, 34336, Note_on_c, 0, 55, 71
2, 34344, Note_on_c, 0, 78, 57
2, 34356, Note_on_c, 0, 78, 0
2, 34440, Note_on_c, 0, 72, 0
2, 34448, Note_on_c, 0, 84, 0
2, 34456, Note_on_c, 0, 58, 0
2, 34456, Note_on_c, 0, 55, 0
2, 34460, Note_on_c, 0, 65, 0
2, 34460, Note_on_c, 0, 80, 0
2, 34468, Note_on_c, 0, 61, 0
2, 34524, Control_c, 0, 64, 0
2, 34536, Note_on_c, 0, 85, 81
2, 34540, Note_on_c, 0, 73, 78
2, 34540, Note_on_c, 0, 61, 64
2, 34540, Note_on_c, 0, 65, 70
2, 34540, Note_on_c, 0, 80, 75
2, 34544, Note_on_c, 0, 58, 60
2, 34544, Note_on_c, 0, 55, 61
2, 34568, Control_c, 0, 64, 127
2, 34616, Note_on_c, 0, 73, 0
2, 34624, Note_on_c, 0, 80, 0
2, 34624, Note_on_c, 0, 85, 0
2, 34636, Note_on_c, 0, 55, 0
2, 34640, Note_on_c, 0, 58, 0
2, 34644, Note_on_c, 0, 61, 0
2, 34644, Note_on_c, 0, 65, 0
2, 34732, Note_on_c, 0, 87, 76
2, 34736, Note_on_c, 0, 75, 68
2, 34736, Note_on_c, 0, 61, 57
2, 34736, Note_on_c, 0, 65, 66
2, 34736, Note_on_c, 0, 82, 66
2, 34736, Note_on_c, 0, 58, 57
2, 34740, Note_on_c, 0, 55, 58
2, 34844, Note_on_c, 0, 58, 0
2, 34844, Note_on_c, 0, 65, 0
2, 34848, Note_on_c, 0, 82, 0
2, 34848, Note_on_c, 0, 61, 0
2, 34856, Note_on_c, 0, 75, 0
2, 34856, Note_on_c, 0, 55, 0
2, 34860, Note_on_c, 0, 87, 0
2, 35140, Note_on_c, 0, 88, 59
2, 35140, Note_on_c, 0, 61, 43
2, 35144, Note_on_c, 0, 65, 42
2, 35144, Note_on_c, 0, 82, 54
2, 35148, Note_on_c, 0, 76, 44
2, 35148, Note_on_c, 0, 55, 38
2, 35152, Note_on_c, 0, 58, 43
2, 35184, Note_on_c, 0, 76, 0
2, 35188, Note_on_c, 0, 65, 0
2, 35204, Note_on_c, 0, 82, 0
2, 35204, Note_on_c, 0, 88, 0
2, 35212, Note_on_c, 0, 61, 0
2, 35212, Note_on_c, 0, 58, 0
2, 35232, Note_on_c, 0, 55, 0
2, 35320, Control_c, 0, 64, 0
2, 35336, Note_on_c, 0, 91, 54
2, 35336, Note_on_c, 0, 84, 50
2, 35340, Note_on_c, 0, 79, 39
2, 35340, Note_on_c, 0, 58, 47
2, 35340, Note_on_c, 0, 64, 39
2, 35364, Control_c, 0, 64, 127
2, 35400, Note_on_c, 0, 64, 0
2, 35404, Note_on_c, 0, 91, 0
2, 35404, Note_on_c, 0, 58, 0
2, 35420, Note_on_c, 0, 84, 0
2, 35440, Note_on_c, 0, 79, 0
2, 35532, Note_on_c, 0, 52, 51
2, 35544, Note_on_c, 0, 52, 0
2, 35728, Note_on_c, 0, 70, 57
2, 35736, Note_on_c, 0, 64, 43
2, 35736, Note_on_c, 0, 73, 51
2, 35736, Note_on_c, 0, 79, 54
2, 35736, Note_on_c, 0, 58, 40
2, 35748, Note_on_c, 0, 79, 0
2, 35752, Note_on_c, 0, 73, 0
2, 35756, Note_on_c, 0, 64, 0
2, 35760, Note_on_c, 0, 58, 0
2, 35764, Note_on_c, 0, 70, 0
2, 35924, Note_on_c, 0, 74, 67
2, 35928, Note_on_c, 0, 68, 63
2, 35928, Note_on_c, 0, 65, 57
2, 35928, Note_on_c, 0, 59, 57
2, 36032, Note_on_c, 0, 74, 0
2, 36040, Note_on_c, 0, 65, 0
2, 36052, Note_on_c, 0, 68, 0
2, 36092, Control_c, 0, 64, 0
2, 36108, Note_on_c, 0, 59, 0
2, 36112, Note_on_c, 0, 72, 54
2, 36116, Note_on_c, 0, 64, 46
2, 36116, Note_on_c, 0, 67, 54
2, 36116, Note_on_c, 0, 58, 52
2, 36160, Control_c, 0, 64, 127
2, 36184, Note_on_c, 0, 58, 0
2, 36284, Note_on_c, 0, 67, 0
2, 36292, Note_on_c, 0, 72, 0
2, 36304, Note_on_c, 0, 48, 49
2, 36324, Note_on_c, 0, 64, 0
2, 36472, Note_on_c, 0, 56, 51
2, 36480, Note_on_c, 0, 60, 49
2, 36480, Note_on_c, 0, 68, 54
2, 36484, Note_on_c, 0, 64, 47
2, 36496, Control_c, 0, 64, 0
2, 36516, Note_on_c, 0, 56, 0
2, 36516, Control_c, 0, 64, 88
2, 36516, Control_c, 0, 64, 127
2, 36548, Note_on_c, 0, 48, 0
2, 36652, Note_on_c, 0, 60, 0
2, 36696, Note_on_c, 0, 64, 0
2, 36720, Note_on_c, 0, 68, 0
2, 36836, Control_c, 0, 64, 0
2, 36840, Note_on_c, 0, 48, 18
2, 36856, Note_on_c, 0, 41, 41
2, 36860, Note_on_c, 0, 64, 43
2, 36860, Note_on_c, 0, 57, 43
2, 36860, Note_on_c, 0, 69, 43
2, 36864, Note_on_c, 0, 60, 35
2, 36880, Control_c, 0, 64, 127
2, 36900, Note_on_c, 0, 60, 0
2, 36924, Note_on_c, 0, 64, 0
2, 36944, Note_on_c, 0, 41, 0
2, 36952, Note_on_c, 0, 69, 0
2, 36956, Note_on_c, 0, 48, 0
2, 37000, Note_on_c, 0, 57, 0
2, 37188, Note_on_c, 0, 86, 65
2, 37224, Note_on_c, 0, 86, 0
2, 37224, Control_c, 0, 64, 0
2, 37240, Note_on_c, 0, 84, 39
2, 37260, Note_on_c, 0, 84, 0
2, 37288, Note_on_c, 0, 86, 68
2, 37304, Note_on_c, 0, 62, 29
2, 37308, Note_on_c, 0, 60, 38
2, 37312, Note_on_c, 0, 57, 39
2, 37312, Note_on_c, 0, 53, 31
2, 37320, Note_on_c, 0, 86, 0
2, 37360, Note_on_c, 0, 60, 0
2, 37364, Note_on_c, 0, 62, 0
2, 37372, Note_on_c, 0, 57, 0
2, 37384, Note_on_c, 0, 53, 0
2, 37388, Note_on_c, 0, 84, 56
2, 37404, Note_on_c, 0, 84, 0
2, 37492, Note_on_c, 0, 81, 43
2, 37508, Note_on_c, 0, 81, 0
2, 37560, Note_on_c, 0, 76, 51
2, 37592, Note_on_c, 0, 76, 0
2, 37644, Note_on_c, 0, 74, 37
2, 37668, Note_on_c, 0, 74, 0
2, 37684, Note_on_c, 0, 63, 38
2, 37684, Note_on_c, 0, 54, 39
2, 37684, Note_on_c, 0, 60, 36
2, 37712, Note_on_c, 0, 72, 43
2, 37732, Note_on_c, 0, 72, 0
2, 37780, Note_on_c, 0, 75, 57
2, 37896, Control_c, 0, 64, 127
2, 37912, Note_on_c, 0, 63, 0
2, 37948, Note_on_c, 0, 60, 0
2, 38016, Note_on_c, 0, 63, 35
2, 38016, Note_on_c, 0, 60, 21
2, 38016, Note_on_c, 0, 69, 42
2, 38020, Control_c, 0, 64, 0
2, 38024, Note_on_c, 0, 57, 35
2, 38048, Control_c, 0, 64, 127
2, 38052, Note_on_c, 0, 75, 0
2, 38128, Note_on_c, 0, 60, 0
2, 38144, Note_on_c, 0, 57, 0
2, 38164, Note_on_c, 0, 63, 0
2, 38220, Note_on_c, 0, 54, 0
2, 38332, Note_on_c, 0, 69, 0
2, 38396, Note_on_c, 0, 58, 39
2, 38400, Note_on_c, 0, 62, 26
2, 38404, Control_c, 0, 64, 0
2, 38412, Note_on_c, 0, 57, 28
2, 38416, Note_on_c, 0, 55, 33
2, 38464, Note_on_c, 0, 62, 0
2, 38492, Note_on_c, 0, 57, 0
2, 38520, Note_on_c, 0, 58, 0
2, 38548, Note_on_c, 0, 61, 46
2, 38580, Note_on_c, 0, 61, 0
2, 38660, Note_on_c, 0, 65, 63
2, 38692, Note_on_c, 0, 65, 0
2, 38724, Note_on_c, 0, 69, 85
2, 38768, Note_on_c, 0, 69, 0
2, 38796, Note_on_c, 0, 70, 72
2, 38800, Note_on_c, 0, 58, 47
2, 38804, Note_on_c, 0, 62, 37
2, 38808, Note_on_c, 0, 70, 0
2, 38808, Note_on_c, 0, 71, 58
2, 38844, Note_on_c, 0, 71, 0
2, 38856, Note_on_c, 0, 69, 57
2, 38904, Note_on_c, 0, 69, 0
2, 38920, Note_on_c, 0, 62, 0
2, 38920, Note_on_c, 0, 70, 64
2, 38940, Note_on_c, 0, 58, 0
2, 38960, Note_on_c, 0, 70, 0
2, 38992, Note_on_c, 0, 74, 74
2, 38996, Note_on_c, 0, 62, 32
2, 39000, Note_on_c, 0, 58, 15
2, 39024, Note_on_c, 0, 74, 0
2, 39052, Note_on_c, 0, 55, 0
2, 39052, Note_on_c, 0, 58, 0
2, 39052, Note_on_c, 0, 77, 51
2, 39056, Note_on_c, 0, 76, 48
2, 39068, Note_on_c, 0, 76, 0
2, 39076, Note_on_c, 0, 62, 0
2, 39080, Note_on_c, 0, 77, 0
2, 39116, Note_on_c, 0, 80, 89
2, 39184, Note_on_c, 0, 80, 0
2, 39184, Note_on_c, 0, 56, 45
2, 39188, Note_on_c, 0, 62, 46
2, 39188, Note_on_c, 0, 65, 42
2, 39196, Note_on_c, 0, 59, 39
2, 39288, Note_on_c, 0, 65, 0
2, 39400, Note_on_c, 0, 67, 41
2, 39432, Note_on_c, 0, 67, 0
2, 39440, Note_on_c, 0, 59, 0
2, 39444, Note_on_c, 0, 68, 58
2, 39452, Note_on_c, 0, 62, 0
2, 39480, Note_on_c, 0, 68, 0
2, 39480, Note_on_c, 0, 70, 57
2, 39492, Note_on_c, 0, 70, 0
2, 39508, Note_on_c, 0, 71, 58
2, 39544, Note_on_c, 0, 71, 0
2, 39548, Note_on_c, 0, 72, 45
2, 39576, Note_on_c, 0, 72, 0
2, 39576, Note_on_c, 0, 73, 56
2, 39588, Note_on_c, 0, 73, 0
2, 39608, Note_on_c, 0, 74, 50
2, 39632, Note_on_c, 0, 74, 0
2, 39644, Note_on_c, 0, 75, 48
2, 39680, Note_on_c, 0, 75, 0
2, 39684, Note_on_c, 0, 76, 56
2, 39708, Note_on_c, 0, 76, 0
2, 39720, Note_on_c, 0, 77, 89
2, 39800, Note_on_c, 0, 77, 0
2, 39808, Note_on_c, 0, 74, 74
2, 39848, Note_on_c, 0, 56, 0
2, 39884, Note_on_c, 0, 74, 0
2, 39912, Note_on_c, 0, 72, 39
2, 39916, Note_on_c, 0, 65, 33
2, 39928, Note_on_c, 0, 57, 30
2, 39928, Note_on_c, 0, 60, 31
2, 39932, Note_on_c, 0, 72, 0
2, 40076, Note_on_c, 0, 71, 63
2, 40104, Note_on_c, 0, 71, 0
2, 40116, Note_on_c, 0, 60, 0
2, 40120, Note_on_c, 0, 65, 0
2, 40180, Note_on_c, 0, 74, 72
2, 40236, Note_on_c, 0, 74, 0
2, 40308, Note_on_c, 0, 65, 41
2, 40320, Note_on_c, 0, 72, 72
2, 40320, Note_on_c, 0, 60, 38
2, 40352, Note_on_c, 0, 65, 0
2, 40376, Note_on_c, 0, 72, 0
2, 40388, Control_c, 0, 64, 127
2, 40404, Note_on_c, 0, 65, 58
2, 40436, Note_on_c, 0, 60, 0
2, 40440, Note_on_c, 0, 65, 0
2, 40468, Control_c, 0, 64, 0
2, 40492, Note_on_c, 0, 67, 62
2, 40496, Note_on_c, 0, 57, 0
2, 40556, Note_on_c, 0, 67, 0
2, 40564, Control_c, 0, 64, 127
2, 40580, Note_on_c, 0, 69, 71
2, 40656, Note_on_c, 0, 69, 0
2, 40672, Note_on_c, 0, 70, 66
2, 40680, Control_c, 0, 64, 0
2, 40680, Note_on_c, 0, 60, 46
2, 40680, Note_on_c, 0, 63, 36
2, 40680, Note_on_c, 0, 58, 39
2, 40684, Note_on_c, 0, 53, 37
2, 40744, Note_on_c, 0, 70, 0
2, 40780, Control_c, 0, 64, 127
2, 40792, Note_on_c, 0, 72, 69
2, 40856, Note_on_c, 0, 72, 0
2, 40880, Note_on_c, 0, 75, 68
2, 40912, Note_on_c, 0, 75, 0
2, 40976, Note_on_c, 0, 87, 79
2, 40988, Note_on_c, 0, 60, 0
2, 41000, Note_on_c, 0, 58, 0
2, 41008, Note_on_c, 0, 53, 0
2, 41024, Note_on_c, 0, 63, 0
2, 41048, Note_on_c, 0, 87, 0
2, 41080, Note_on_c, 0, 62, 49
2, 41084, Note_on_c, 0, 51, 44
2, 41088, Note_on_c, 0, 81, 68
2, 41092, Note_on_c, 0, 57, 48
2, 41092, Control_c, 0, 64, 0
2, 41176, Control_c, 0, 64, 127
2, 41188, Note_on_c, 0, 81, 0
2, 41192, Note_on_c, 0, 86, 83
2, 41268, Note_on_c, 0, 86, 0
2, 41296, Note_on_c, 0, 84, 64
2, 41340, Note_on_c, 0, 57, 0
2, 41376, Note_on_c, 0, 51, 0
2, 41392, Note_on_c, 0, 84, 0
2, 41396, Note_on_c, 0, 74, 49
2, 41404, Note_on_c, 0, 62, 0
2, 41464, Note_on_c, 0, 74, 0
2, 41500, Note_on_c, 0, 62, 36
2, 41504, Note_on_c, 0, 60, 39
2, 41504, Note_on_c, 0, 74, 55
2, 41504, Note_on_c, 0, 65, 39
2, 41508, Note_on_c, 0, 55, 33
2, 41512, Control_c, 0, 64, 0
2, 41600, Note_on_c, 0, 84, 57
2, 41632, Note_on_c, 0, 74, 0
2, 41668, Control_c, 0, 64, 127
2, 41692, Note_on_c, 0, 74, 52
2, 41728, Note_on_c, 0, 74, 0
2, 41744, Note_on_c, 0, 65, 0
2, 41752, Note_on_c, 0, 60, 0
2, 41764, Note_on_c, 0, 62, 0
2, 41780, Note_on_c, 0, 74, 49
2, 41820, Note_on_c, 0, 74, 0
2, 41868, Note_on_c, 0, 65, 37
2, 41872, Note_on_c, 0, 60, 35
2, 41876, Note_on_c, 0, 62, 32
2, 41884, Note_on_c, 0, 74, 46
2, 42012, Note_on_c, 0, 60, 0
2, 42024, Note_on_c, 0, 62, 0
2, 42036, Note_on_c, 0, 65, 0
2, 42064, Note_on_c, 0, 55, 0
2, 42184, Note_on_c, 0, 74, 0
2, 42224, Note_on_c, 0, 84, 0
2, 42244, Note_on_c, 0, 61, 38
2, 42248, Note_on_c, 0, 65, 31
2, 42248, Note_on_c, 0, 55, 31
2, 42436, Note_on_c, 0, 65, 0
2, 42444, Note_on_c, 0, 70, 43
2, 42512, Note_on_c, 0, 70, 0
2, 42524, Note_on_c, 0, 69, 36
2, 42556, Note_on_c, 0, 69, 0
2, 42588, Note_on_c, 0, 70, 50
2, 42628, Note_on_c, 0, 70, 0
2, 42652, Note_on_c, 0, 79, 68
2, 42668, Note_on_c, 0, 65, 38
2, 42672, Control_c, 0, 64, 0
2, 42696, Note_on_c, 0, 65, 0
2, 42696, Note_on_c, 0, 79, 0
2, 42712, Note_on_c, 0, 70, 47
2, 42736, Control_c, 0, 64, 127
2, 42760, Note_on_c, 0, 70, 0
2, 42776, Note_on_c, 0, 69, 52
2, 42812, Note_on_c, 0, 69, 0
2, 42812, Note_on_c, 0, 70, 64
2, 42828, Note_on_c, 0, 70, 0
2, 42872, Note_on_c, 0, 82, 81
2, 42896, Note_on_c, 0, 82, 0
2, 42944, Note_on_c, 0, 55, 0
2, 42964, Note_on_c, 0, 61, 0
2, 43044, Note_on_c, 0, 70, 65
2, 43056, Control_c, 0, 64, 0
2, 43088, Note_on_c, 0, 70, 0
2, 43096, Note_on_c, 0, 69, 57
2, 43128, Note_on_c, 0, 69, 0
2, 43164, Note_on_c, 0, 72, 45
2, 43188, Note_on_c, 0, 72, 0
2, 43224, Note_on_c, 0, 79, 71
2, 43228, Note_on_c, 0, 69, 50
2, 43232, Note_on_c, 0, 72, 48
2, 43236, Note_on_c, 0, 64, 43
2, 43264, Note_on_c, 0, 64, 0
2, 43264, Note_on_c, 0, 72, 0
2, 43264, Note_on_c, 0, 79, 0
2, 43268, Note_on_c, 0, 69, 0
2, 43332, Note_on_c, 0, 77, 63
2, 43332, Note_on_c, 0, 62, 43
2, 43332, Note_on_c, 0, 72, 55
2, 43336, Note_on_c, 0, 69, 49
2, 43356, Note_on_c, 0, 72, 0
2, 43360, Note_on_c, 0, 77, 0
2, 43368, Note_on_c, 0, 69, 0
2, 43392, Note_on_c, 0, 62, 0
2, 43428, Note_on_c, 0, 61, 47
2, 43432, Note_on_c, 0, 76, 63
2, 43436, Note_on_c, 0, 69, 50
2, 43440, Note_on_c, 0, 65, 45
2, 43472, Note_on_c, 0, 65, 0
2, 43484, Note_on_c, 0, 69, 0
2, 43484, Note_on_c, 0, 76, 0
2, 43488, Note_on_c, 0, 61, 0
2, 43528, Note_on_c, 0, 60, 48
2, 43532, Note_on_c, 0, 65, 49
2, 43536, Note_on_c, 0, 74, 39
2, 43536, Note_on_c, 0, 69, 36
2, 43552, Note_on_c, 0, 69, 0
2, 43552, Note_on_c, 0, 74, 0
2, 43556, Note_on_c, 0, 65, 0
2, 43584, Note_on_c, 0, 60, 0
2, 43620, Note_on_c, 0, 72, 54
2, 43624, Note_on_c, 0, 65, 49
2, 43632, Note_on_c, 0, 57, 32
2, 43656, Control_c, 0, 64, 127
2, 43664, Note_on_c, 0, 65, 0
2, 43668, Note_on_c, 0, 72, 0
2, 43676, Note_on_c, 0, 57, 0
2, 43696, Note_on_c, 0, 53, 49
2, 43748, Note_on_c, 0, 53, 0
2, 43784, Control_c, 0, 64, 0
2, 43792, Note_on_c, 0, 55, 46
2, 43864, Note_on_c, 0, 55, 0
2, 43948, Note_on_c, 0, 66, 50
2, 43948, Note_on_c, 0, 61, 54
2, 43948, Note_on_c, 0, 59, 56
2, 43952, Note_on_c, 0, 54, 51
2, 43956, Note_on_c, 0, 63, 42
2, 43984, Note_on_c, 0, 63, 0
2, 43992, Note_on_c, 0, 59, 0
2, 44012, Note_on_c, 0, 66, 0
2, 44012, Note_on_c, 0, 61, 0
2, 44032, Note_on_c, 0, 54, 0
2, 44088, Note_on_c, 0, 65, 47
2, 44088, Note_on_c, 0, 53, 54
2, 44088, Note_on_c, 0, 57, 51
2, 44092, Note_on_c, 0, 60, 53
2, 44096, Note_on_c, 0, 62, 46
2, 44140, Note_on_c, 0, 62, 0
2, 44140, Note_on_c, 0, 60, 0
2, 44148, Note_on_c, 0, 57, 0
2, 44148, Control_c, 0, 64, 127
2, 44160, Note_on_c, 0, 53, 0
2, 44160, Note_on_c, 0, 65, 0
2, 44168, Control_c, 0, 64, 104
2, 44172, Control_c, 0, 64, 0
2, 44180, Note_on_c, 0, 50, 48
2, 44184, Note_on_c, 0, 57, 49
2, 44184, Note_on_c, 0, 62, 41
2, 44196, Control_c, 0, 64, 127
2, 44244, Note_on_c, 0, 57, 0
2, 44272, Note_on_c, 0, 62, 0
2, 44284, Control_c, 0, 64, 0
2, 44288, Note_on_c, 0, 65, 55
2, 44292, Note_on_c, 0, 53, 54
2, 44292, Note_on_c, 0, 57, 53
2, 44296, Note_on_c, 0, 60, 49
2, 44300, Note_on_c, 0, 62, 30
2, 44308, Note_on_c, 0, 50, 0
2, 44324, Control_c, 0, 64, 127
2, 44444, Note_on_c, 0, 62, 0
2, 44448, Note_on_c, 0, 57, 0
2, 44448, Note_on_c, 0, 60, 0
2, 44452, Note_on_c, 0, 53, 0
2, 44468, Note_on_c, 0, 50, 34
2, 44472, Note_on_c, 0, 65, 0
2, 44508, Control_c, 0, 64, 0
2, 44512, Note_on_c, 0, 50, 0
2, 44528, Note_on_c, 0, 43, 48
2, 44528, Note_on_c, 0, 58, 50
2, 44528, Note_on_c, 0, 53, 39
2, 44528, Note_on_c, 0, 62, 42
2, 44532, Note_on_c, 0, 55, 42
2, 44576, Control_c, 0, 64, 127
2, 44588, Note_on_c, 0, 62, 0
2, 44616, Note_on_c, 0, 55, 0
2, 44628, Note_on_c, 0, 53, 0
2, 44632, Note_on_c, 0, 58, 0
2, 44664, Note_on_c, 0, 49, 58
2, 44664, Note_on_c, 0, 58, 50
2, 44664, Note_on_c, 0, 61, 57
2, 44668, Note_on_c, 0, 55, 42
2, 44684, Control_c, 0, 64, 0
2, 44692, Note_on_c, 0, 55, 0
2, 44704, Note_on_c, 0, 58, 0
2, 44708, Note_on_c, 0, 61, 0
2, 44708, Note_on_c, 0, 49, 0
2, 44732, Note_on_c, 0, 50, 52
2, 44736, Note_on_c, 0, 62, 41
2, 44752, Note_on_c, 0, 62, 0
2, 44764, Note_on_c, 0, 43, 0
2, 44768, Note_on_c, 0, 50, 0
2, 44784, Note_on_c, 0, 65, 63
2, 44792, Note_on_c, 0, 65, 0
2, 44792, Note_on_c, 0, 53, 42
2, 44800, Control_c, 0, 64, 127
2, 44808, Note_on_c, 0, 53, 0
2, 44836, Note_on_c, 0, 57, 66
2, 44876, Control_c, 0, 64, 0
2, 44892, Note_on_c, 0, 57, 0
2, 44904, Note_on_c, 0, 65, 64
2, 44904, Note_on_c, 0, 72, 68
2, 44912, Note_on_c, 0, 60, 72
2, 44916, Note_on_c, 0, 69, 61
2, 44964, Control_c, 0, 64, 127
2, 44976, Note_on_c, 0, 69, 0
2, 45000, Note_on_c, 0, 65, 0
2, 45008, Note_on_c, 0, 72, 0
2, 45044, Note_on_c, 0, 60, 0
2, 45044, Note_on_c, 0, 58, 59
2, 45044, Control_c, 0, 64, 0
2, 45044, Note_on_c, 0, 65, 46
2, 45044, Note_on_c, 0, 70, 58
2, 45044, Note_on_c, 0, 62, 58
2, 45104, Control_c, 0, 64, 127
2, 45236, Note_on_c, 0, 65, 0
2, 45240, Note_on_c, 0, 62, 0
2, 45248, Note_on_c, 0, 70, 0
2, 45256, Note_on_c, 0, 58, 0
2, 45288, Control_c, 0, 64, 0
2, 45304, Note_on_c, 0, 62, 45
2, 45304, Note_on_c, 0, 57, 49
2, 45312, Note_on_c, 0, 69, 37
2, 45312, Note_on_c, 0, 65, 41
2, 45332, Note_on_c, 0, 62, 0
2, 45344, Note_on_c, 0, 65, 0
2, 45348, Note_on_c, 0, 69, 0
2, 45420, Note_on_c, 0, 57, 0
2, 45432, Note_on_c, 0, 70, 67
2, 45440, Note_on_c, 0, 62, 50
2, 45440, Note_on_c, 0, 58, 56
2, 45472, Note_on_c, 0, 62, 0
2, 45472, Note_on_c, 0, 70, 0
2, 45504, Note_on_c, 0, 58, 0
2, 45508, Control_c, 0, 64, 127
2, 45512, Note_on_c, 0, 72, 63
2, 45512, Note_on_c, 0, 60, 57
2, 45512, Note_on_c, 0, 62, 43
2, 45536, Note_on_c, 0, 62, 0
2, 45544, Note_on_c, 0, 72, 0
2, 45608, Note_on_c, 0, 60, 0
2, 45628, Note_on_c, 0, 73, 72
2, 45632, Note_on_c, 0, 61, 72
2, 45632, Note_on_c, 0, 64, 75
2, 45640, Note_on_c, 0, 67, 54
2, 45644, Note_on_c, 0, 70, 43
2, 45660, Note_on_c, 0, 70, 0
2, 45664, Note_on_c, 0, 64, 0
2, 45664, Note_on_c, 0, 67, 0
2, 45676, Note_on_c, 0, 73, 0
2, 45692, Control_c, 0, 64, 0
2, 45708, Note_on_c, 0, 61, 0
2, 45708, Note_on_c, 0, 75, 89
2, 45712, Note_on_c, 0, 63, 75
2, 45712, Note_on_c, 0, 64, 80
2, 45716, Note_on_c, 0, 67, 67
2, 45716, Note_on_c, 0, 70, 46
2, 45724, Note_on_c, 0, 68, 45
2, 45732, Note_on_c, 0, 70, 0
2, 45744, Note_on_c, 0, 68, 0
2, 45748, Note_on_c, 0, 64, 0
2, 45748, Note_on_c, 0, 67, 0
2, 45764, Note_on_c, 0, 63, 0
2, 45764, Note_on_c, 0, 75, 0
2, 45772, Note_on_c, 0, 61, 49
2, 45832, Note_on_c, 0, 61, 0
2, 45832, Note_on_c, 0, 75, 87
2, 45836, Note_on_c, 0, 63, 68
2, 45836, Note_on_c, 0, 64, 75
2, 45840, Note_on_c, 0, 67, 66
2, 45848, Note_on_c, 0, 70, 45
2, 45864, Note_on_c, 0, 70, 0
2, 45884, Note_on_c, 0, 64, 0
2, 45888, Note_on_c, 0, 67, 0
2, 45888, Note_on_c, 0, 75, 0
2, 45896, Note_on_c, 0, 63, 0
2, 45912, Note_on_c, 0, 61, 58
2, 45916, Note_on_c, 0, 73, 66
2, 45920, Note_on_c, 0, 64, 50
2, 45924, Control_c, 0, 64, 127
2, 45924, Note_on_c, 0, 67, 39
2, 45964, Note_on_c, 0, 64, 0
2, 45976, Note_on_c, 0, 61, 0
2, 45976, Note_on_c, 0, 73, 0
2, 45976, Note_on_c, 0, 67, 0
2, 46040, Note_on_c, 0, 58, 49
2, 46084, Control_c, 0, 64, 0
2, 46096, Note_on_c, 0, 58, 0
2, 46104, Note_on_c, 0, 72, 60
2, 46108, Note_on_c, 0, 62, 43
2, 46108, Note_on_c, 0, 67, 56
2, 46112, Note_on_c, 0, 57, 58
2, 46140, Control_c, 0, 64, 127
2, 46272, Note_on_c, 0, 67, 0
2, 46272, Note_on_c, 0, 62, 0
2, 46276, Note_on_c, 0, 57, 0
2, 46504, Note_on_c, 0, 57, 38
2, 46504, Note_on_c, 0, 67, 41
2, 46504, Note_on_c, 0, 62, 39
2, 46560, Note_on_c, 0, 62, 0
2, 46584, Note_on_c, 0, 57, 0
2, 46648, Note_on_c, 0, 67, 0
2, 46660, Note_on_c, 0, 72, 0
2, 46720, Note_on_c, 0, 65, 49
2, 46748, Note_on_c, 0, 65, 0
2, 46760, Note_on_c, 0, 66, 46
2, 46800, Note_on_c, 0, 68, 48
2, 46804, Note_on_c, 0, 66, 0
2, 46812, Note_on_c, 0, 68, 0
2, 46832, Note_on_c, 0, 70, 47
2, 46844, Note_on_c, 0, 70, 0
2, 46864, Control_c, 0, 64, 0
2, 46864, Note_on_c, 0, 72, 56
2, 46876, Note_on_c, 0, 72, 0
2, 46900, Note_on_c, 0, 73, 43
2, 46920, Note_on_c, 0, 73, 0
2, 46920, Note_on_c, 0, 61, 32
2, 46924, Note_on_c, 0, 54, 27
2, 46928, Note_on_c, 0, 58, 36
2, 46928, Note_on_c, 0, 75, 56
2, 46932, Note_on_c, 0, 65, 25
2, 46940, Note_on_c, 0, 75, 0
2, 46976, Note_on_c, 0, 77, 49
2, 46988, Note_on_c, 0, 77, 0
2, 47008, Note_on_c, 0, 78, 46
2, 47040, Note_on_c, 0, 78, 0
2, 47068, Note_on_c, 0, 82, 46
2, 47080, Note_on_c, 0, 82, 0
2, 47104, Note_on_c, 0, 84, 52
2, 47124, Note_on_c, 0, 84, 0
2, 47152, Note_on_c, 0, 85, 26
2, 47168, Note_on_c, 0, 85, 0
2, 47176, Note_on_c, 0, 87, 47
2, 47188, Note_on_c, 0, 87, 0
2, 47188, Note_on_c, 0, 65, 0
2, 47216, Note_on_c, 0, 61, 0
2, 47220, Note_on_c, 0, 89, 55
2, 47232, Note_on_c, 0, 89, 0
2, 47260, Note_on_c, 0, 90, 41
2, 47276, Note_on_c, 0, 90, 0
2, 47296, Note_on_c, 0, 61, 34
2, 47300, Note_on_c, 0, 92, 56
2, 47308, Note_on_c, 0, 65, 25
2, 47312, Note_on_c, 0, 92, 0
2, 47356, Note_on_c, 0, 94, 57
2, 47368, Note_on_c, 0, 94, 0
2, 47404, Note_on_c, 0, 96, 72
2, 47424, Note_on_c, 0, 65, 0
2, 47432, Note_on_c, 0, 96, 0
2, 47464, Note_on_c, 0, 58, 0
2, 47492, Note_on_c, 0, 61, 0
2, 47500, Note_on_c, 0, 92, 61
2, 47516, Note_on_c, 0, 92, 0
2, 47532, Note_on_c, 0, 54, 0
2, 47588, Note_on_c, 0, 89, 44
2, 47600, Note_on_c, 0, 63, 33
2, 47604, Note_on_c, 0, 56, 41
2, 47604, Note_on_c, 0, 53, 33
2, 47604, Note_on_c, 0, 60, 34
2, 47636, Note_on_c, 0, 89, 0
2, 47672, Note_on_c, 0, 99, 68
2, 47704, Note_on_c, 0, 99, 0
2, 47720, Control_c, 0, 64, 127
2, 47752, Note_on_c, 0, 96, 57
2, 47784, Note_on_c, 0, 96, 0
2, 47852, Note_on_c, 0, 63, 0
2, 47860, Note_on_c, 0, 96, 57
2, 47876, Note_on_c, 0, 60, 0
2, 47884, Note_on_c, 0, 56, 0
2, 47900, Note_on_c, 0, 96, 0
2, 47956, Note_on_c, 0, 63, 36
2, 47960, Note_on_c, 0, 56, 39
2, 47964, Note_on_c, 0, 96, 67
2, 47968, Note_on_c, 0, 60, 36
2, 48048, Note_on_c, 0, 63, 0
2, 48052, Note_on_c, 0, 96, 0
2, 48068, Note_on_c, 0, 92, 57
2, 48092, Note_on_c, 0, 60, 0
2, 48108, Note_on_c, 0, 92, 0
2, 48156, Note_on_c, 0, 92, 58
2, 48192, Note_on_c, 0, 92, 0
2, 48224, Note_on_c, 0, 53, 0
2, 48292, Note_on_c, 0, 56, 0
2, 48292, Note_on_c, 0, 96, 68
2, 48316, Note_on_c, 0, 96, 0
2, 48372, Control_c, 0, 64, 0
2, 48380, Note_on_c, 0, 99, 85
2, 48380, Note_on_c, 0, 58, 55
2, 48384, Note_on_c, 0, 62, 52
2, 48384, Note_on_c, 0, 52, 56
2, 48436, Control_c, 0, 64, 127
2, 48480, Note_on_c, 0, 99, 0
2, 48484, Note_on_c, 0, 52, 0
2, 48488, Note_on_c, 0, 62, 0
2, 48500, Note_on_c, 0, 58, 0
2, 48516, Note_on_c, 0, 100, 82
2, 48520, Note_on_c, 0, 88, 81
2, 48520, Note_on_c, 0, 62, 66
2, 48520, Note_on_c, 0, 52, 63
2, 48524, Note_on_c, 0, 58, 81
2, 48568, Note_on_c, 0, 88, 0
2, 48576, Note_on_c, 0, 52, 0
2, 48576, Note_on_c, 0, 100, 0
2, 48580, Note_on_c, 0, 62, 0
2, 48592, Note_on_c, 0, 58, 0
2, 48608, Note_on_c, 0, 52, 72
2, 48608, Note_on_c, 0, 101, 98
2, 48608, Note_on_c, 0, 89, 96
2, 48608, Note_on_c, 0, 62, 73
2, 48612, Note_on_c, 0, 58, 82
2, 48672, Note_on_c, 0, 89, 0
2, 48672, Note_on_c, 0, 101, 0
2, 48680, Note_on_c, 0, 52, 0
2, 48696, Note_on_c, 0, 62, 0
2, 48708, Note_on_c, 0, 58, 0
2, 48732, Note_on_c, 0, 102, 90
2, 48736, Note_on_c, 0, 90, 89
2, 48736, Note_on_c, 0, 58, 80
2, 48740, Note_on_c, 0, 62, 87
2, 48740, Note_on_c, 0, 52, 88
2, 48744, Note_on_c, 0, 103, 50
2, 48764, Note_on_c, 0, 103, 0
2, 48780, Note_on_c, 0, 90, 0
2, 48792, Note_on_c, 0, 102, 0
2, 48792, Note_on_c, 0, 52, 0
2, 48796, Note_on_c, 0, 62, 0
2, 48804, Note_on_c, 0, 58, 0
2, 48820, Control_c, 0, 64, 0
2, 48820, Note_on_c, 0, 103, 85
2, 48820, Note_on_c, 0, 52, 76
2, 48824, Note_on_c, 0, 62, 79
2, 48824, Note_on_c, 0, 91, 87
2, 48824, Note_on_c, 0, 58, 86
2, 48832, Note_on_c, 0, 101, 51
2, 48840, Control_c, 0, 64, 127
2, 48880, Note_on_c, 0, 103, 0
2, 48884, Note_on_c, 0, 91, 0
2, 48884, Note_on_c, 0, 101, 0
2, 48900, Note_on_c, 0, 52, 0
2, 48912, Note_on_c, 0, 62, 0
2, 48916, Note_on_c, 0, 58, 0
2, 48944, Note_on_c, 0, 104, 83
2, 48944, Note_on_c, 0, 92, 81
2, 48944, Note_on_c, 0, 58, 75
2, 48944, Note_on_c, 0, 62, 77
2, 48944, Note_on_c, 0, 52, 81
2, 48952, Note_on_c, 0, 98, 65
2, 48992, Note_on_c, 0, 98, 0
2, 48992, Note_on_c, 0, 92, 0
2, 48996, Note_on_c, 0, 104, 0
2, 48996, Note_on_c, 0, 52, 0
2, 49000, Note_on_c, 0, 62, 0
2, 49004, Note_on_c, 0, 58, 0
2, 49020, Note_on_c, 0, 52, 68
2, 49020, Note_on_c, 0, 93, 72
2, 49024, Note_on_c, 0, 62, 60
2, 49024, Note_on_c, 0, 98, 69
2, 49024, Note_on_c, 0, 105, 57
2, 49024, Note_on_c, 0, 58, 63
2, 49060, Note_on_c, 0, 98, 0
2, 49060, Note_on_c, 0, 93, 0
2, 49068, Note_on_c, 0, 105, 0
2, 49080, Note_on_c, 0, 52, 0
2, 49084, Note_on_c, 0, 62, 0
2, 49096, Note_on_c, 0, 58, 0
2, 49104, Note_on_c, 0, 58, 51
2, 49104, Note_on_c, 0, 62, 63
2, 49108, Note_on_c, 0, 106, 80
2, 49108, Note_on_c, 0, 94, 68
2, 49116, Note_on_c, 0, 52, 30
2, 49120, Note_on_c, 0, 99, 40
2, 49132, Note_on_c, 0, 52, 0
2, 49136, Note_on_c, 0, 99, 0
2, 49144, Note_on_c, 0, 62, 0
2, 49148, Note_on_c, 0, 58, 0
2, 49152, Note_on_c, 0, 94, 0
2, 49156, Note_on_c, 0, 106, 0
2, 49168, Control_c, 0, 64, 0
2, 49180, Note_on_c, 0, 105, 71
2, 49180, Note_on_c, 0, 64, 59
2, 49180, Note_on_c, 0, 60, 56
2, 49180, Note_on_c, 0, 93, 52
2, 49188, Note_on_c, 0, 102, 48
2, 49188, Note_on_c, 0, 100, 60
2, 49188, Note_on_c, 0, 53, 47
2, 49188, Note_on_c, 0, 57, 57
2, 49220, Control_c, 0, 64, 127
2, 49284, Note_on_c, 0, 100, 0
2, 49284, Note_on_c, 0, 105, 0
2, 49312, Note_on_c, 0, 102, 0
2, 49344, Note_on_c, 0, 93, 0
2, 49368, Note_on_c, 0, 64, 0
2, 49420, Note_on_c, 0, 57, 0
2, 49428, Note_on_c, 0, 60, 0
2, 49432, Note_on_c, 0, 53, 0
2, 49524, Note_on_c, 0, 64, 39
2, 49524, Note_on_c, 0, 60, 40
2, 49524, Note_on_c, 0, 53, 39
2, 49524, Note_on_c, 0, 57, 50
2, 49644, Note_on_c, 0, 98, 82
2, 49652, Control_c, 0, 64, 0
2, 49676, Control_c, 0, 64, 127
2, 49728, Note_on_c, 0, 98, 0
2, 49772, Note_on_c, 0, 64, 0
2, 49772, Note_on_c, 0, 60, 0
2, 49776, Note_on_c, 0, 57, 0
2, 49780, Note_on_c, 0, 53, 0
2, 49804, Note_on_c, 0, 98, 84
2, 49848, Note_on_c, 0, 98, 0
2, 49868, Note_on_c, 0, 96, 66
2, 49908, Note_on_c, 0, 96, 0
2, 49912, Control_c, 0, 64, 0
2, 49916, Note_on_c, 0, 54, 43
2, 49916, Note_on_c, 0, 63, 34
2, 49920, Note_on_c, 0, 60, 40
2, 49928, Note_on_c, 0, 57, 43
2, 49928, Note_on_c, 0, 98, 74
2, 49984, Note_on_c, 0, 98, 0
2, 49992, Note_on_c, 0, 96, 56
2, 50028, Note_on_c, 0, 96, 0
2, 50144, Note_on_c, 0, 87, 55
2, 50168, Control_c, 0, 64, 127
2, 50180, Note_on_c, 0, 87, 0
2, 50184, Note_on_c, 0, 57, 0
2, 50216, Note_on_c, 0, 63, 0
2, 50228, Note_on_c, 0, 60, 0
2, 50332, Note_on_c, 0, 63, 38
2, 50332, Note_on_c, 0, 87, 53
2, 50340, Note_on_c, 0, 60, 42
2, 50340, Control_c, 0, 64, 0
2, 50348, Note_on_c, 0, 57, 39
2, 50372, Control_c, 0, 64, 127
2, 50476, Note_on_c, 0, 60, 0
2, 50484, Note_on_c, 0, 57, 0
2, 50504, Note_on_c, 0, 63, 0
2, 50532, Note_on_c, 0, 54, 0
2, 50660, Note_on_c, 0, 87, 0
2, 50676, Control_c, 0, 64, 0
2, 50692, Note_on_c, 0, 58, 38
2, 50696, Note_on_c, 0, 57, 35
2, 50700, Note_on_c, 0, 62, 24
2, 50700, Note_on_c, 0, 55, 39
2, 50824, Note_on_c, 0, 85, 57
2, 50860, Note_on_c, 0, 85, 0
2, 50888, Note_on_c, 0, 86, 45
2, 50928, Note_on_c, 0, 86, 0
2, 50932, Note_on_c, 0, 62, 0
2, 50948, Note_on_c, 0, 57, 0
2, 50956, Note_on_c, 0, 89, 34
2, 50960, Note_on_c, 0, 58, 0
2, 50972, Note_on_c, 0, 89, 0
2, 51008, Note_on_c, 0, 93, 81
2, 51044, Note_on_c, 0, 93, 0
2, 51068, Note_on_c, 0, 58, 45
2, 51076, Note_on_c, 0, 62, 34
2, 51084, Note_on_c, 0, 96, 78
2, 51128, Note_on_c, 0, 96, 0
2, 51188, Note_on_c, 0, 96, 81
2, 51240, Note_on_c, 0, 96, 0
2, 51264, Note_on_c, 0, 93, 59
2, 51288, Note_on_c, 0, 93, 0
2, 51296, Note_on_c, 0, 55, 0
2, 51296, Note_on_c, 0, 58, 0
2, 51316, Note_on_c, 0, 62, 0
2, 51364, Note_on_c, 0, 93, 63
2, 51396, Note_on_c, 0, 93, 0
2, 51428, Note_on_c, 0, 56, 33
2, 51436, Note_on_c, 0, 89, 50
2, 51436, Note_on_c, 0, 62, 26
2, 51440, Note_on_c, 0, 53, 35
2, 51440, Note_on_c, 0, 59, 32
2, 51476, Note_on_c, 0, 89, 0
2, 51556, Note_on_c, 0, 89, 46
2, 51572, Note_on_c, 0, 89, 0
2, 51632, Note_on_c, 0, 98, 81
2, 51668, Note_on_c, 0, 98, 0
2, 51708, Note_on_c, 0, 59, 0
2, 51712, Note_on_c, 0, 62, 0
2, 51736, Note_on_c, 0, 56, 0
2, 51748, Note_on_c, 0, 98, 117
2, 51796, Note_on_c, 0, 98, 0
2, 51816, Note_on_c, 0, 56, 40
2, 51816, Note_on_c, 0, 62, 45
2, 51820, Note_on_c, 0, 59, 47
2, 51824, Note_on_c, 0, 95, 99
2, 51832, Note_on_c, 0, 96, 63
2, 51844, Note_on_c, 0, 96, 0
2, 51876, Note_on_c, 0, 95, 0
2, 51932, Note_on_c, 0, 95, 122
2, 51984, Note_on_c, 0, 95, 0
2, 52004, Note_on_c, 0, 59, 0
2, 52008, Note_on_c, 0, 56, 0
2, 52012, Note_on_c, 0, 53, 0
2, 52012, Note_on_c, 0, 92, 88
2, 52056, Note_on_c, 0, 92, 0
2, 52060, Note_on_c, 0, 62, 0
2, 52124, Note_on_c, 0, 92, 77
2, 52164, Note_on_c, 0, 92, 0
2, 52200, Note_on_c, 0, 98, 78
2, 52220, Note_on_c, 0, 57, 27
2, 52236, Note_on_c, 0, 98, 0
2, 52240, Note_on_c, 0, 57, 0
2, 52316, Note_on_c, 0, 98, 82
2, 52324, Note_on_c, 0, 67, 48
2, 52328, Note_on_c, 0, 62, 44
2, 52328, Note_on_c, 0, 57, 40
2, 52356, Note_on_c, 0, 98, 0
2, 52400, Note_on_c, 0, 96, 71
2, 52436, Note_on_c, 0, 96, 0
2, 52444, Note_on_c, 0, 62, 0
2, 52448, Note_on_c, 0, 67, 0
2, 52456, Note_on_c, 0, 57, 0
2, 52460, Control_c, 0, 64, 127
2, 52508, Note_on_c, 0, 96, 66
2, 52552, Note_on_c, 0, 96, 0
2, 52552, Control_c, 0, 64, 0
2, 52580, Note_on_c, 0, 67, 37
2, 52580, Note_on_c, 0, 62, 45
2, 52584, Note_on_c, 0, 57, 39
2, 52584, Note_on_c, 0, 93, 72
2, 52620, Note_on_c, 0, 93, 0
2, 52624, Control_c, 0, 64, 127
2, 52708, Note_on_c, 0, 89, 57
2, 52736, Note_on_c, 0, 62, 0
2, 52756, Note_on_c, 0, 57, 0
2, 52772, Note_on_c, 0, 89, 0
2, 52776, Note_on_c, 0, 67, 0
2, 52940, Control_c, 0, 64, 0
2, 52952, Note_on_c, 0, 67, 45
2, 52952, Note_on_c, 0, 58, 49
2, 52952, Note_on_c, 0, 63, 48
2, 53044, Note_on_c, 0, 101, 87
2, 53084, Note_on_c, 0, 101, 0
2, 53096, Note_on_c, 0, 98, 60
2, 53108, Note_on_c, 0, 98, 0
2, 53140, Note_on_c, 0, 99, 66
2, 53176, Note_on_c, 0, 96, 67
2, 53180, Note_on_c, 0, 67, 0
2, 53184, Note_on_c, 0, 99, 0
2, 53192, Note_on_c, 0, 96, 0
2, 53208, Note_on_c, 0, 93, 60
2, 53220, Note_on_c, 0, 93, 0
2, 53228, Note_on_c, 0, 63, 0
2, 53260, Note_on_c, 0, 91, 70
2, 53272, Note_on_c, 0, 58, 0
2, 53300, Note_on_c, 0, 91, 0
2, 53300, Note_on_c, 0, 89, 67
2, 53328, Note_on_c, 0, 89, 0
2, 53336, Note_on_c, 0, 88, 55
2, 53352, Note_on_c, 0, 88, 0
2, 53380, Note_on_c, 0, 63, 36
2, 53392, Note_on_c, 0, 57, 40
2, 53396, Note_on_c, 0, 67, 22
2, 53464, Note_on_c, 0, 84, 56
2, 53500, Note_on_c, 0, 84, 0
2, 53508, Note_on_c, 0, 81, 49
2, 53536, Note_on_c, 0, 81, 0
2, 53588, Note_on_c, 0, 79, 61
2, 53596, Note_on_c, 0, 67, 0
2, 53624, Note_on_c, 0, 79, 0
2, 53632, Note_on_c, 0, 78, 62
2, 53644, Note_on_c, 0, 57, 0
2, 53652, Note_on_c, 0, 78, 0
2, 53668, Note_on_c, 0, 77, 61
2, 53680, Note_on_c, 0, 63, 0
2, 53696, Note_on_c, 0, 77, 0
2, 53704, Note_on_c, 0, 76, 51
2, 53724, Note_on_c, 0, 76, 0
2, 53736, Note_on_c, 0, 75, 58
2, 53744, Note_on_c, 0, 75, 0
2, 53772, Note_on_c, 0, 74, 46
2, 53780, Note_on_c, 0, 62, 39
2, 53780, Note_on_c, 0, 65, 31
2, 53784, Note_on_c, 0, 60, 38
2, 53788, Note_on_c, 0, 55, 38
2, 53844, Note_on_c, 0, 74, 0
2, 54044, Note_on_c, 0, 65, 0
2, 54060, Note_on_c, 0, 62, 0
2, 54064, Note_on_c, 0, 60, 0
2, 54080, Note_on_c, 0, 74, 57
2, 54100, Note_on_c, 0, 60, 26
2, 54100, Note_on_c, 0, 62, 35
2, 54104, Note_on_c, 0, 65, 12
2, 54112, Note_on_c, 0, 74, 0
2, 54112, Note_on_c, 0, 75, 66
2, 54140, Note_on_c, 0, 75, 0
2, 54148, Note_on_c, 0, 74, 52
2, 54176, Note_on_c, 0, 73, 45
2, 54184, Note_on_c, 0, 74, 0
2, 54220, Note_on_c, 0, 73, 0
2, 54244, Note_on_c, 0, 74, 76
2, 54272, Note_on_c, 0, 65, 0
2, 54280, Note_on_c, 0, 74, 0
2, 54296, Note_on_c, 0, 62, 0
2, 54296, Note_on_c, 0, 60, 0
2, 54300, Note_on_c, 0, 77, 75
2, 54336, Note_on_c, 0, 77, 0
2, 54352, Note_on_c, 0, 81, 76
2, 54388, Note_on_c, 0, 81, 0
2, 54392, Note_on_c, 0, 60, 25
2, 54400, Note_on_c, 0, 82, 63
2, 54412, Note_on_c, 0, 82, 0
2, 54420, Note_on_c, 0, 55, 0
2, 54432, Note_on_c, 0, 60, 0
2, 54444, Note_on_c, 0, 84, 56
2, 54456, Note_on_c, 0, 86, 28
2, 54464, Note_on_c, 0, 84, 0
2, 54472, Note_on_c, 0, 86, 0
2, 54488, Note_on_c, 0, 89, 51
2, 54520, Note_on_c, 0, 93, 75
2, 54524, Note_on_c, 0, 89, 0
2, 54552, Note_on_c, 0, 93, 0
2, 54564, Note_on_c, 0, 96, 85
2, 54572, Note_on_c, 0, 65, 46
2, 54572, Note_on_c, 0, 61, 43
2, 54572, Note_on_c, 0, 84, 61
2, 54572, Note_on_c, 0, 92, 48
2, 54580, Note_on_c, 0, 55, 46
2, 54580, Note_on_c, 0, 60, 31
2, 54588, Note_on_c, 0, 92, 0
2, 54596, Note_on_c, 0, 58, 26
2, 54624, Note_on_c, 0, 96, 0
2, 54628, Note_on_c, 0, 84, 0
2, 54628, Note_on_c, 0, 58, 0
2, 54636, Note_on_c, 0, 65, 0
2, 54640, Note_on_c, 0, 55, 0
2, 54644, Note_on_c, 0, 61, 0
2, 54644, Note_on_c, 0, 60, 0
2, 54664, Note_on_c, 0, 96, 85
2, 54668, Note_on_c, 0, 84, 72
2, 54672, Note_on_c, 0, 61, 56
2, 54676, Note_on_c, 0, 55, 48
2, 54676, Note_on_c, 0, 65, 40
2, 54676, Note_on_c, 0, 60, 49
2, 54716, Control_c, 0, 64, 127
2, 54720, Note_on_c, 0, 65, 0
2, 54720, Note_on_c, 0, 55, 0
2, 54724, Note_on_c, 0, 84, 0
2, 54724, Note_on_c, 0, 96, 0
2, 54732, Note_on_c, 0, 60, 0
2, 54732, Note_on_c, 0, 61, 0
2, 54760, Note_on_c, 0, 96, 72
2, 54764, Note_on_c, 0, 84, 67
2, 54764, Note_on_c, 0, 61, 54
2, 54768, Note_on_c, 0, 65, 43
2, 54768, Note_on_c, 0, 60, 47
2, 54776, Note_on_c, 0, 55, 44
2, 54808, Note_on_c, 0, 84, 0
2, 54812, Note_on_c, 0, 65, 0
2, 54812, Note_on_c, 0, 96, 0
2, 54820, Note_on_c, 0, 61, 0
2, 54820, Note_on_c, 0, 55, 0
2, 54820, Note_on_c, 0, 60, 0
2, 54852, Note_on_c, 0, 96, 79
2, 54852, Note_on_c, 0, 61, 49
2, 54856, Note_on_c, 0, 65, 57
2, 54856, Note_on_c, 0, 60, 51
2, 54856, Note_on_c, 0, 55, 50
2, 54856, Note_on_c, 0, 84, 63
2, 54904, Note_on_c, 0, 55, 0
2, 54904, Note_on_c, 0, 65, 0
2, 54908, Note_on_c, 0, 96, 0
2, 54908, Note_on_c, 0, 84, 0
2, 54916, Note_on_c, 0, 61, 0
2, 54920, Note_on_c, 0, 60, 0
2, 54952, Note_on_c, 0, 96, 75
2, 54952, Note_on_c, 0, 61, 49
2, 54952, Note_on_c, 0, 84, 71
2, 54952, Note_on_c, 0, 65, 61
2, 54952, Note_on_c, 0, 60, 53
2, 54960, Note_on_c, 0, 55, 58
2, 54976, Note_on_c, 0, 95, 26
2, 55000, Note_on_c, 0, 95, 0
2, 55000, Note_on_c, 0, 65, 0
2, 55000, Note_on_c, 0, 96, 0
2, 55000, Note_on_c, 0, 55, 0
2, 55004, Note_on_c, 0, 84, 0
2, 55012, Note_on_c, 0, 60, 0
2, 55012, Note_on_c, 0, 61, 0
2, 55044, Note_on_c, 0, 61, 52
2, 55048, Note_on_c, 0, 65, 67
2, 55048, Note_on_c, 0, 60, 50
2, 55048, Note_on_c, 0, 96, 79
2, 55052, Note_on_c, 0, 84, 69
2, 55052, Note_on_c, 0, 55, 57
2, 55060, Note_on_c, 0, 94, 39
2, 55076, Note_on_c, 0, 94, 0
2, 55096, Note_on_c, 0, 55, 0
2, 55100, Note_on_c, 0, 65, 0
2, 55100, Note_on_c, 0, 84, 0
2, 55104, Note_on_c, 0, 96, 0
2, 55112, Note_on_c, 0, 60, 0
2, 55112, Note_on_c, 0, 61, 0
2, 55156, Note_on_c, 0, 61, 57
2, 55156, Note_on_c, 0, 98, 84
2, 55160, Note_on_c, 0, 65, 57
2, 55160, Note_on_c, 0, 86, 72
2, 55160, Note_on_c, 0, 55, 60
2, 55160, Note_on_c, 0, 60, 46
2, 55160, Note_on_c, 0, 97, 49
2, 55184, Note_on_c, 0, 97, 0
2, 55192, Note_on_c, 0, 65, 0
2, 55200, Note_on_c, 0, 60, 0
2, 55204, Note_on_c, 0, 98, 0
2, 55208, Note_on_c, 0, 86, 0
2, 55216, Note_on_c, 0, 55, 0
2, 55216, Note_on_c, 0, 61, 0
2, 55232, Control_c, 0, 64, 0
2, 55256, Note_on_c, 0, 96, 77
2, 55256, Note_on_c, 0, 65, 51
2, 55256, Note_on_c, 0, 60, 57
2, 55256, Note_on_c, 0, 57, 56
2, 55256, Note_on_c, 0, 84, 66
2, 55276, Control_c, 0, 64, 127
2, 55300, Note_on_c, 0, 96, 0
2, 55316, Note_on_c, 0, 65, 0
2, 55320, Note_on_c, 0, 84, 0
2, 55332, Note_on_c, 0, 57, 0
2, 55344, Note_on_c, 0, 60, 0
2, 55404, Note_on_c, 0, 93, 72
2, 55408, Note_on_c, 0, 81, 56
2, 55412, Note_on_c, 0, 88, 57
2, 55412, Note_on_c, 0, 60, 59
2, 55412, Note_on_c, 0, 65, 56
2, 55416, Note_on_c, 0, 57, 57
2, 55528, Note_on_c, 0, 88, 0
2, 55528, Note_on_c, 0, 93, 0
2, 55540, Note_on_c, 0, 65, 0
2, 55552, Note_on_c, 0, 57, 0
2, 55556, Note_on_c, 0, 60, 0
2, 55564, Note_on_c, 0, 81, 0
2, 55652, Control_c, 0, 64, 0
2, 55664, Note_on_c, 0, 91, 68
2, 55668, Note_on_c, 0, 88, 50
2, 55668, Note_on_c, 0, 60, 50
2, 55672, Note_on_c, 0, 65, 43
2, 55672, Note_on_c, 0, 57, 48
2, 55676, Control_c, 0, 64, 127
2, 55676, Note_on_c, 0, 84, 47
2, 55676, Note_on_c, 0, 79, 39
2, 55712, Note_on_c, 0, 88, 0
2, 55720, Note_on_c, 0, 91, 0
2, 55724, Note_on_c, 0, 84, 0
2, 55724, Note_on_c, 0, 65, 0
2, 55724, Note_on_c, 0, 79, 0
2, 55744, Note_on_c, 0, 60, 0
2, 55748, Note_on_c, 0, 57, 0
2, 55804, Note_on_c, 0, 76, 55
2, 55808, Note_on_c, 0, 88, 42
2, 55808, Note_on_c, 0, 83, 47
2, 55808, Note_on_c, 0, 57, 48
2, 55812, Note_on_c, 0, 60, 48
2, 55812, Note_on_c, 0, 65, 43
2, 55816, Note_on_c, 0, 82, 27
2, 55864, Note_on_c, 0, 65, 0
2, 55884, Note_on_c, 0, 57, 0
2, 55884, Note_on_c, 0, 60, 0
2, 55888, Note_on_c, 0, 82, 0
2, 55892, Note_on_c, 0, 88, 0
2, 55900, Note_on_c, 0, 83, 0
2, 55916, Note_on_c, 0, 76, 0
2, 55996, Control_c, 0, 64, 0
2, 56036, Note_on_c, 0, 84, 59
2, 56036, Note_on_c, 0, 53, 49
2, 56036, Note_on_c, 0, 57, 43
2, 56036, Note_on_c, 0, 60, 39
2, 56036, Note_on_c, 0, 50, 43
2, 56036, Note_on_c, 0, 77, 54
2, 56036, Note_on_c, 0, 72, 42
2, 56036, Note_on_c, 0, 81, 48
2, 56044, Control_c, 0, 64, 127
2, 56080, Note_on_c, 0, 81, 0
2, 56088, Note_on_c, 0, 77, 0
2, 56092, Note_on_c, 0, 84, 0
2, 56108, Note_on_c, 0, 50, 0
2, 56108, Note_on_c, 0, 60, 0
2, 56112, Note_on_c, 0, 53, 0
2, 56112, Note_on_c, 0, 72, 0
2, 56112, Note_on_c, 0, 57, 0
2, 56168, Control_c, 0, 64, 0
2, 56180, Note_on_c, 0, 81, 60
2, 56180, Note_on_c, 0, 69, 56
2, 56184, Note_on_c, 0, 74, 58
2, 56184, Note_on_c, 0, 77, 64
2, 56188, Note_on_c, 0, 57, 36
2, 56188, Note_on_c, 0, 50, 41
2, 56188, Note_on_c, 0, 60, 38
2, 56188, Note_on_c, 0, 53, 50
2, 56232, Control_c, 0, 64, 127
2, 56280, Note_on_c, 0, 81, 0
2, 56284, Note_on_c, 0, 77, 0
2, 56292, Note_on_c, 0, 74, 0
2, 56304, Note_on_c, 0, 53, 0
2, 56304, Note_on_c, 0, 50, 0
2, 56308, Note_on_c, 0, 60, 0
2, 56312, Note_on_c, 0, 69, 0
2, 56324, Note_on_c, 0, 57, 0
2, 56404, Control_c, 0, 64, 24
2, 56408, Control_c, 0, 64, 0
2, 56416, Note_on_c, 0, 77, 61
2, 56420, Note_on_c, 0, 72, 49
2, 56420, Note_on_c, 0, 65, 45
2, 56420, Note_on_c, 0, 57, 40
2, 56420, Note_on_c, 0, 50, 41
2, 56424, Note_on_c, 0, 60, 37
2, 56428, Note_on_c, 0, 53, 46
2, 56456, Control_c, 0, 64, 127
2, 56496, Note_on_c, 0, 65, 0
2, 56500, Note_on_c, 0, 60, 0
2, 56500, Note_on_c, 0, 72, 0
2, 56516, Note_on_c, 0, 57, 0
2, 56520, Note_on_c, 0, 53, 0
2, 56536, Note_on_c, 0, 77, 0
2, 56556, Note_on_c, 0, 65, 53
2, 56560, Note_on_c, 0, 72, 52
2, 56564, Note_on_c, 0, 74, 52
2, 56564, Note_on_c, 0, 57, 35
2, 56564, Note_on_c, 0, 60, 39
2, 56568, Note_on_c, 0, 53, 27
2, 56612, Note_on_c, 0, 53, 0
2, 56620, Note_on_c, 0, 50, 0
2, 56624, Note_on_c, 0, 57, 0
2, 56636, Note_on_c, 0, 74, 0
2, 56652, Note_on_c, 0, 65, 0
2, 56652, Note_on_c, 0, 72, 0
2, 56660, Note_on_c, 0, 60, 0
2, 56776, Control_c, 0, 64, 0
2, 56784, Note_on_c, 0, 58, 45
2, 56784, Note_on_c, 0, 53, 39
2, 56784, Note_on_c, 0, 70, 49
2, 56788, Note_on_c, 0, 65, 47
2, 56788, Note_on_c, 0, 62, 36
2, 56792, Note_on_c, 0, 57, 44
2, 56880, Control_c, 0, 64, 127
2, 57064, Note_on_c, 0, 57, 0
2, 57064, Note_on_c, 0, 58, 0
2, 57076, Note_on_c, 0, 62, 0
2, 57108, Note_on_c, 0, 53, 0
2, 57116, Note_on_c, 0, 65, 0
2, 57176, Note_on_c, 0, 70, 0
2, 57180, Note_on_c, 0, 58, 43
2, 57180, Note_on_c, 0, 62, 34
2, 57180, Note_on_c, 0, 57, 29
2, 57184, Note_on_c, 0, 53, 32
2, 57200, Control_c, 0, 64, 0
2, 57224, Note_on_c, 0, 70, 63
2, 57252, Note_on_c, 0, 70, 0
2, 57256, Note_on_c, 0, 72, 60
2, 57280, Note_on_c, 0, 70, 29
2, 57284, Note_on_c, 0, 72, 0
2, 57320, Note_on_c, 0, 70, 0
2, 57324, Note_on_c, 0, 69, 52
2, 57360, Note_on_c, 0, 69, 0
2, 57388, Note_on_c, 0, 70, 74
2, 57396, Note_on_c, 0, 62, 0
2, 57412, Note_on_c, 0, 53, 0
2, 57420, Note_on_c, 0, 57, 0
2, 57428, Note_on_c, 0, 58, 0
2, 57444, Note_on_c, 0, 70, 0
2, 57520, Note_on_c, 0, 72, 73
2, 57556, Note_on_c, 0, 72, 0
2, 57592, Note_on_c, 0, 58, 40
2, 57600, Note_on_c, 0, 62, 30
2, 57600, Note_on_c, 0, 52, 36
2, 57604, Note_on_c, 0, 73, 54
2, 57672, Note_on_c, 0, 73, 0
2, 57692, Note_on_c, 0, 62, 0
2, 57696, Note_on_c, 0, 52, 0
2, 57704, Note_on_c, 0, 58, 0
2, 57720, Note_on_c, 0, 75, 62
2, 57772, Note_on_c, 0, 75, 0
2, 57804, Note_on_c, 0, 76, 42
2, 57852, Note_on_c, 0, 76, 0
2, 57980, Note_on_c, 0, 58, 42
2, 57980, Note_on_c, 0, 62, 32
2, 57992, Note_on_c, 0, 52, 25
2, 57992, Note_on_c, 0, 78, 61
2, 58000, Note_on_c, 0, 62, 0
2, 58008, Note_on_c, 0, 58, 0
2, 58008, Note_on_c, 0, 52, 0
2, 58008, Note_on_c, 0, 78, 0
2, 58096, Note_on_c, 0, 79, 75
2, 58128, Note_on_c, 0, 79, 0
2, 58160, Note_on_c, 0, 81, 79
2, 58188, Note_on_c, 0, 81, 0
2, 58220, Note_on_c, 0, 82, 68
2, 58240, Note_on_c, 0, 82, 0
2, 58284, Note_on_c, 0, 83, 76
2, 58316, Note_on_c, 0, 83, 0
2, 58344, Note_on_c, 0, 65, 42
2, 58344, Note_on_c, 0, 61, 40
2, 58348, Note_on_c, 0, 84, 72
2, 58352, Note_on_c, 0, 60, 39
2, 58352, Note_on_c, 0, 55, 39
2, 58372, Note_on_c, 0, 84, 0
2, 58412, Note_on_c, 0, 84, 57
2, 58436, Note_on_c, 0, 84, 0
2, 58472, Note_on_c, 0, 84, 58
2, 58504, Note_on_c, 0, 84, 0
2, 58540, Note_on_c, 0, 84, 57
2, 58544, Note_on_c, 0, 55, 0
2, 58548, Note_on_c, 0, 65, 0
2, 58560, Note_on_c, 0, 61, 0
2, 58568, Note_on_c, 0, 84, 0
2, 58568, Note_on_c, 0, 60, 0
2, 58692, Note_on_c, 0, 84, 74
2, 58696, Note_on_c, 0, 61, 39
2, 58700, Note_on_c, 0, 65, 28
2, 58700, Note_on_c, 0, 60, 35
2, 58704, Note_on_c, 0, 55, 41
2, 58736, Note_on_c, 0, 84, 0
2, 58776, Note_on_c, 0, 86, 82
2, 58812, Note_on_c, 0, 86, 0
2, 58836, Control_c, 0, 64, 127
2, 58856, Note_on_c, 0, 65, 0
2, 58860, Note_on_c, 0, 55, 0
2, 58864, Note_on_c, 0, 61, 0
2, 58872, Note_on_c, 0, 60, 0
2, 58944, Note_on_c, 0, 84, 72
2, 58944, Note_on_c, 0, 60, 44
2, 58948, Note_on_c, 0, 65, 31
2, 58948, Note_on_c, 0, 61, 42
2, 58952, Note_on_c, 0, 55, 37
2, 59012, Note_on_c, 0, 65, 0
2, 59020, Note_on_c, 0, 55, 0
2, 59020, Note_on_c, 0, 60, 0
2, 59044, Note_on_c, 0, 61, 0
2, 59076, Note_on_c, 0, 84, 0
2, 59084, Control_c, 0, 64, 72
2, 59084, Control_c, 0, 64, 0
2, 59092, Note_on_c, 0, 80, 68
2, 59096, Note_on_c, 0, 54, 57
2, 59100, Note_on_c, 0, 65, 54
2, 59104, Note_on_c, 0, 60, 49
2, 59160, Control_c, 0, 64, 127
2, 59280, Note_on_c, 0, 65, 0
2, 59284, Note_on_c, 0, 60, 0
2, 59296, Note_on_c, 0, 54, 0
2, 59320, Note_on_c, 0, 80, 0
2, 59336, Note_on_c, 0, 54, 46
2, 59340, Note_on_c, 0, 65, 48
2, 59340, Note_on_c, 0, 81, 70
2, 59344, Note_on_c, 0, 60, 50
2, 59448, Note_on_c, 0, 60, 0
2, 59452, Note_on_c, 0, 65, 0
2, 59464, Note_on_c, 0, 54, 0
2, 59476, Note_on_c, 0, 81, 0
2, 59500, Control_c, 0, 64, 24
2, 59500, Control_c, 0, 64, 0
2, 59528, Note_on_c, 0, 54, 45
2, 59528, Note_on_c, 0, 65, 46
2, 59532, Note_on_c, 0, 81, 63
2, 59532, Note_on_c, 0, 60, 50
2, 59536, Control_c, 0, 64, 127
2, 59716, Note_on_c, 0, 54, 0
2, 59728, Note_on_c, 0, 65, 0
2, 59768, Note_on_c, 0, 81, 0
2, 59796, Note_on_c, 0, 60, 0
2, 59820, Note_on_c, 0, 54, 55
2, 59848, Note_on_c, 0, 54, 0
2, 59884, Control_c, 0, 64, 0
2, 59888, Note_on_c, 0, 83, 96
2, 59892, Note_on_c, 0, 63, 66
2, 59892, Note_on_c, 0, 58, 51
2, 59896, Note_on_c, 0, 53, 57
2, 59896, Note_on_c, 0, 59, 62
2, 59940, Control_c, 0, 64, 127
2, 59960, Note_on_c, 0, 53, 0
2, 59976, Note_on_c, 0, 63, 0
2, 59980, Note_on_c, 0, 83, 0
2, 59988, Note_on_c, 0, 59, 0
2, 59992, Note_on_c, 0, 58, 0
2, 60084, Note_on_c, 0, 82, 99
2, 60092, Note_on_c, 0, 63, 76
2, 60096, Note_on_c, 0, 58, 56
2, 60096, Note_on_c, 0, 59, 63
2, 60100, Note_on_c, 0, 53, 55
2, 60156, Note_on_c, 0, 53, 0
2, 60164, Note_on_c, 0, 82, 0
2, 60164, Note_on_c, 0, 63, 0
2, 60172, Note_on_c, 0, 59, 0
2, 60176, Note_on_c, 0, 58, 0
2, 60204, Note_on_c, 0, 82, 107
2, 60208, Note_on_c, 0, 63, 79
2, 60208, Note_on_c, 0, 59, 62
2, 60208, Note_on_c, 0, 58, 49
2, 60212, Note_on_c, 0, 53, 71
2, 60252, Note_on_c, 0, 53, 0
2, 60256, Note_on_c, 0, 82, 0
2, 60256, Note_on_c, 0, 63, 0
2, 60264, Note_on_c, 0, 58, 0
2, 60268, Note_on_c, 0, 59, 0
2, 60292, Note_on_c, 0, 59, 66
2, 60292, Note_on_c, 0, 63, 68
2, 60292, Note_on_c, 0, 58, 52
2, 60292, Note_on_c, 0, 82, 83
2, 60292, Note_on_c, 0, 53, 61
2, 60344, Note_on_c, 0, 53, 0
2, 60356, Note_on_c, 0, 63, 0
2, 60368, Note_on_c, 0, 59, 0
2, 60368, Note_on_c, 0, 58, 0
2, 60384, Note_on_c, 0, 82, 0
2, 60396, Note_on_c, 0, 84, 81
2, 60396, Note_on_c, 0, 63, 64
2, 60396, Control_c, 0, 64, 0
2, 60400, Note_on_c, 0, 59, 65
2, 60404, Note_on_c, 0, 53, 57
2, 60404, Note_on_c, 0, 58, 46
2, 60436, Note_on_c, 0, 53, 0
2, 60440, Note_on_c, 0, 63, 0
2, 60448, Note_on_c, 0, 58, 0
2, 60452, Note_on_c, 0, 59, 0
2, 60468, Control_c, 0, 64, 127
2, 60468, Note_on_c, 0, 63, 54
2, 60472, Note_on_c, 0, 82, 63
2, 60476, Note_on_c, 0, 53, 42
2, 60476, Note_on_c, 0, 59, 41
2, 60480, Note_on_c, 0, 58, 31
2, 60528, Note_on_c, 0, 59, 0
2, 60532, Note_on_c, 0, 58, 0
2, 60536, Note_on_c, 0, 84, 0
2, 60540, Note_on_c, 0, 53, 0
2, 60548, Note_on_c, 0, 63, 0
2, 60552, Note_on_c, 0, 82, 0
2, 60620, Control_c, 0, 64, 0
2, 60636, Note_on_c, 0, 58, 45
2, 60636, Note_on_c, 0, 78, 55
2, 60640, Note_on_c, 0, 62, 41
2, 60644, Note_on_c, 0, 52, 38
2, 60704, Control_c, 0, 64, 127
2, 60712, Note_on_c, 0, 52, 0
2, 60716, Note_on_c, 0, 62, 0
2, 60732, Note_on_c, 0, 58, 0
2, 60752, Note_on_c, 0, 78, 0
2, 60764, Note_on_c, 0, 79, 67
2, 60768, Note_on_c, 0, 58, 48
2, 60772, Control_c, 0, 64, 0
2, 60772, Note_on_c, 0, 52, 42
2, 60772, Note_on_c, 0, 62, 35
2, 60808, Control_c, 0, 64, 127
2, 60884, Note_on_c, 0, 79, 0
2, 60888, Note_on_c, 0, 52, 0
2, 60908, Note_on_c, 0, 58, 0
2, 60912, Note_on_c, 0, 62, 0
2, 61004, Control_c, 0, 64, 0
2, 61008, Note_on_c, 0, 76, 61
2, 61008, Note_on_c, 0, 70, 56
2, 61016, Note_on_c, 0, 73, 56
2, 61020, Note_on_c, 0, 58, 42
2, 61020, Note_on_c, 0, 64, 39
2, 61056, Control_c, 0, 64, 127
2, 61084, Note_on_c, 0, 70, 0
2, 61088, Note_on_c, 0, 64, 0
2, 61092, Note_on_c, 0, 73, 0
2, 61104, Note_on_c, 0, 76, 0
2, 61136, Note_on_c, 0, 70, 72
2, 61136, Note_on_c, 0, 79, 66
2, 61144, Note_on_c, 0, 64, 56
2, 61144, Note_on_c, 0, 73, 52
2, 61144, Note_on_c, 0, 76, 43
2, 61160, Note_on_c, 0, 73, 0
2, 61160, Note_on_c, 0, 58, 0
2, 61164, Note_on_c, 0, 76, 0
2, 61168, Note_on_c, 0, 70, 0
2, 61184, Note_on_c, 0, 64, 0
2, 61188, Note_on_c, 0, 79, 0
2, 61324, Note_on_c, 0, 85, 85
2, 61324, Note_on_c, 0, 70, 81
2, 61328, Note_on_c, 0, 75, 83
2, 61332, Note_on_c, 0, 80, 79
2, 61332, Control_c, 0, 64, 0
2, 61376, Note_on_c, 0, 85, 0
2, 61380, Note_on_c, 0, 70, 0
2, 61380, Note_on_c, 0, 75, 0
2, 61384, Note_on_c, 0, 80, 0
2, 61404, Note_on_c, 0, 84, 72
2, 61408, Note_on_c, 0, 69, 61
2, 61408, Note_on_c, 0, 74, 68
2, 61408, Note_on_c, 0, 79, 67
2, 61440, Note_on_c, 0, 84, 0
2, 61444, Note_on_c, 0, 79, 0
2, 61448, Note_on_c, 0, 74, 0
2, 61452, Note_on_c, 0, 69, 0
2, 61516, Note_on_c, 0, 75, 66
2, 61528, Note_on_c, 0, 68, 56
2, 61564, Note_on_c, 0, 75, 0
2, 61572, Note_on_c, 0, 68, 0
2, 61704, Note_on_c, 0, 64, 45
2, 61708, Note_on_c, 0, 81, 61
2, 61708, Note_on_c, 0, 74, 70
2, 61708, Note_on_c, 0, 65, 73
2, 61708, Note_on_c, 0, 72, 66
2, 61716, Note_on_c, 0, 64, 0
2, 61732, Note_on_c, 0, 81, 0
2, 61744, Note_on_c, 0, 72, 0
2, 61744, Note_on_c, 0, 74, 0
2, 61760, Note_on_c, 0, 65, 0
2, 61784, Note_on_c, 0, 72, 48
2, 61788, Note_on_c, 0, 62, 57
2, 61788, Note_on_c, 0, 77, 49
2, 61796, Note_on_c, 0, 69, 38
2, 61808, Note_on_c, 0, 77, 0
2, 61816, Note_on_c, 0, 72, 0
2, 61820, Note_on_c, 0, 62, 0
2, 61824, Note_on_c, 0, 69, 0
2, 61920, Note_on_c, 0, 70, 41
2, 61936, Note_on_c, 0, 70, 0
2, 62056, Note_on_c, 0, 57, 48
2, 62060, Note_on_c, 0, 64, 56
2, 62060, Note_on_c, 0, 72, 37
2, 62060, Note_on_c, 0, 67, 48
2, 62064, Control_c, 0, 64, 127
2, 62072, Note_on_c, 0, 60, 54
2, 62080, Note_on_c, 0, 72, 0
2, 62080, Note_on_c, 0, 57, 0
2, 62084, Note_on_c, 0, 67, 0
2, 62104, Note_on_c, 0, 64, 0
2, 62116, Note_on_c, 0, 60, 0
2, 62120, Control_c, 0, 64, 0
2, 62152, Note_on_c, 0, 66, 55
2, 62152, Note_on_c, 0, 74, 68
2, 62152, Note_on_c, 0, 63, 52
2, 62152, Note_on_c, 0, 62, 56
2, 62156, Note_on_c, 0, 69, 41
2, 62216, Note_on_c, 0, 74, 0
2, 62240, Note_on_c, 0, 66, 0
2, 62240, Note_on_c, 0, 69, 0
2, 62240, Note_on_c, 0, 63, 0
2, 62276, Note_on_c, 0, 73, 57
2, 62276, Note_on_c, 0, 63, 48
2, 62280, Note_on_c, 0, 66, 46
2, 62280, Control_c, 0, 64, 127
2, 62284, Note_on_c, 0, 62, 0
2, 62284, Note_on_c, 0, 61, 52
2, 62292, Note_on_c, 0, 69, 33
2, 62308, Control_c, 0, 64, 0
2, 62316, Note_on_c, 0, 73, 0
2, 62320, Note_on_c, 0, 63, 0
2, 62324, Note_on_c, 0, 66, 0
2, 62332, Note_on_c, 0, 69, 0
2, 62340, Note_on_c, 0, 61, 0
2, 62356, Note_on_c, 0, 63, 48
2, 62360, Note_on_c, 0, 60, 58
2, 62360, Note_on_c, 0, 72, 49
2, 62360, Note_on_c, 0, 66, 50
2, 62372, Note_on_c, 0, 69, 21
2, 62388, Control_c, 0, 64, 127
2, 62440, Note_on_c, 0, 63, 0
2, 62460, Note_on_c, 0, 66, 0
2, 62460, Note_on_c, 0, 69, 0
2, 62508, Note_on_c, 0, 60, 0
2, 62528, Control_c, 0, 64, 0
2, 62552, Note_on_c, 0, 63, 44
2, 62552, Note_on_c, 0, 66, 48
2, 62556, Note_on_c, 0, 57, 43
2, 62560, Note_on_c, 0, 69, 41
2, 62564, Control_c, 0, 64, 127
2, 62648, Note_on_c, 0, 69, 0
2, 62652, Note_on_c, 0, 57, 0
2, 62660, Note_on_c, 0, 63, 0
2, 62664, Note_on_c, 0, 66, 0
2, 62760, Note_on_c, 0, 63, 39
2, 62764, Note_on_c, 0, 66, 46
2, 62816, Note_on_c, 0, 63, 0
2, 62840, Note_on_c, 0, 72, 0
2, 62876, Note_on_c, 0, 66, 0
2, 62956, Note_on_c, 0, 58, 41
2, 62960, Note_on_c, 0, 62, 29
2, 62960, Control_c, 0, 64, 0
2, 62964, Note_on_c, 0, 53, 31
2, 62992, Note_on_c, 0, 62, 0
2, 62996, Note_on_c, 0, 53, 0
2, 62996, Note_on_c, 0, 58, 0
2, 63140, Note_on_c, 0, 73, 45
2, 63144, Note_on_c, 0, 61, 49
2, 63156, Note_on_c, 0, 70, 40
2, 63176, Note_on_c, 0, 70, 0
2, 63212, Note_on_c, 0, 73, 0
2, 63216, Note_on_c, 0, 61, 0
2, 63260, Note_on_c, 0, 62, 50
2, 63272, Note_on_c, 0, 74, 37
2, 63280, Note_on_c, 0, 62, 0
2, 63288, Note_on_c, 0, 74, 0
2, 63328, Note_on_c, 0, 58, 50
2, 63332, Note_on_c, 0, 53, 41
2, 63336, Note_on_c, 0, 77, 66
2, 63336, Note_on_c, 0, 57, 29
2, 63340, Note_on_c, 0, 62, 35
2, 63340, Note_on_c, 0, 65, 44
2, 63352, Note_on_c, 0, 65, 0
2, 63356, Note_on_c, 0, 53, 0
2, 63356, Note_on_c, 0, 62, 0
2, 63364, Note_on_c, 0, 57, 0
2, 63368, Note_on_c, 0, 77, 0
2, 63368, Note_on_c, 0, 58, 0
2, 63464, Note_on_c, 0, 70, 62
2, 63464, Note_on_c, 0, 82, 54
2, 63496, Note_on_c, 0, 70, 0
2, 63504, Note_on_c, 0, 82, 0
2, 63660, Note_on_c, 0, 82, 68
2, 63668, Note_on_c, 0, 70, 76
2, 63672, Note_on_c, 0, 76, 61
2, 63712, Note_on_c, 0, 62, 48
2, 63716, Note_on_c, 0, 56, 40
2, 63720, Note_on_c, 0, 59, 42
2, 63724, Note_on_c, 0, 62, 0
2, 63724, Note_on_c, 0, 76, 0
2, 63724, Note_on_c, 0, 82, 0
2, 63724, Note_on_c, 0, 70, 0
2, 63724, Note_on_c, 0, 71, 61
2, 63732, Note_on_c, 0, 59, 0
2, 63748, Note_on_c, 0, 56, 0
2, 63768, Note_on_c, 0, 71, 0
2, 63784, Note_on_c, 0, 83, 54
2, 63784, Note_on_c, 0, 76, 54
2, 63812, Note_on_c, 0, 76, 0
2, 63816, Note_on_c, 0, 83, 0
2, 63860, Note_on_c, 0, 74, 74
2, 63860, Note_on_c, 0, 86, 82
2, 63880, Note_on_c, 0, 74, 0
2, 63884, Note_on_c, 0, 86, 0
2, 64104, Note_on_c, 0, 62, 55
2, 64112, Note_on_c, 0, 56, 41
2, 64116, Note_on_c, 0, 59, 36
2, 64124, Note_on_c, 0, 62, 0
2, 64132, Note_on_c, 0, 59, 0
2, 64144, Note_on_c, 0, 56, 0
2, 64236, Note_on_c, 0, 89, 87
2, 64240, Note_on_c, 0, 77, 82
2, 64240, Note_on_c, 0, 83, 74
2, 64248, Note_on_c, 0, 77, 0
2, 64252, Note_on_c, 0, 83, 0
2, 64268, Note_on_c, 0, 89, 0
2, 64420, Note_on_c, 0, 80, 54
2, 64424, Note_on_c, 0, 71, 66
2, 64424, Note_on_c, 0, 83, 56
2, 64432, Note_on_c, 0, 76, 54
2, 64440, Note_on_c, 0, 76, 0
2, 64444, Note_on_c, 0, 71, 0
2, 64460, Note_on_c, 0, 83, 0
2, 64468, Note_on_c, 0, 80, 0
2, 64488, Note_on_c, 0, 64, 52
2, 64492, Note_on_c, 0, 60, 48
2, 64492, Note_on_c, 0, 57, 52
2, 64500, Note_on_c, 0, 53, 31
2, 64504, Note_on_c, 0, 86, 87
2, 64504, Note_on_c, 0, 74, 79
2, 64508, Note_on_c, 0, 81, 74
2, 64516, Note_on_c, 0, 64, 0
2, 64520, Note_on_c, 0, 53, 0
2, 64524, Note_on_c, 0, 60, 0
2, 64532, Note_on_c, 0, 57, 0
2, 64572, Note_on_c, 0, 86, 0
2, 64580, Note_on_c, 0, 74, 0
2, 64580, Note_on_c, 0, 81, 0
2, 64616, Note_on_c, 0, 86, 54
2, 64620, Note_on_c, 0, 74, 50
2, 64620, Note_on_c, 0, 81, 60
2, 64632, Note_on_c, 0, 86, 0
2, 64640, Note_on_c, 0, 81, 0
2, 64648, Note_on_c, 0, 74, 0
2, 64676, Note_on_c, 0, 84, 38
2, 64688, Note_on_c, 0, 72, 46
2, 64696, Note_on_c, 0, 79, 52
2, 64748, Note_on_c, 0, 79, 0
2, 64748, Note_on_c, 0, 72, 0
2, 64748, Note_on_c, 0, 84, 0
2, 64808, Note_on_c, 0, 84, 47
2, 64808, Note_on_c, 0, 72, 54
2, 64812, Note_on_c, 0, 79, 41
2, 64824, Note_on_c, 0, 84, 0
2, 64832, Note_on_c, 0, 79, 0
2, 64844, Note_on_c, 0, 72, 0
2, 64876, Note_on_c, 0, 76, 50
2, 64880, Note_on_c, 0, 64, 33
2, 64880, Note_on_c, 0, 57, 39
2, 64884, Note_on_c, 0, 60, 36
2, 64888, Note_on_c, 0, 81, 50
2, 64892, Note_on_c, 0, 53, 31
2, 64920, Note_on_c, 0, 64, 0
2, 64920, Note_on_c, 0, 76, 0
2, 64928, Note_on_c, 0, 81, 0
2, 64948, Note_on_c, 0, 60, 0
2, 64956, Note_on_c, 0, 53, 0
2, 64984, Note_on_c, 0, 57, 0
2, 65020, Control_c, 0, 64, 127
2, 65064, Note_on_c, 0, 84, 74
2, 65068, Note_on_c, 0, 79, 73
2, 65072, Note_on_c, 0, 72, 60
2, 65108, Note_on_c, 0, 72, 0
2, 65124, Note_on_c, 0, 79, 0
2, 65124, Note_on_c, 0, 84, 0
2, 65224, Control_c, 0, 64, 0
2, 65248, Note_on_c, 0, 86, 96
2, 65252, Note_on_c, 0, 74, 85
2, 65252, Note_on_c, 0, 63, 59
2, 65252, Note_on_c, 0, 79, 82
2, 65252, Note_on_c, 0, 82, 66
2, 65252, Note_on_c, 0, 58, 52
2, 65252, Note_on_c, 0, 60, 56
2, 65252, Note_on_c, 0, 53, 55
2, 65284, Control_c, 0, 64, 127
2, 65328, Note_on_c, 0, 86, 0
2, 65340, Note_on_c, 0, 79, 0
2, 65344, Note_on_c, 0, 74, 0
2, 65344, Note_on_c, 0, 53, 0
2, 65348, Note_on_c, 0, 63, 0
2, 65352, Note_on_c, 0, 60, 0
2, 65352, Note_on_c, 0, 82, 0
2, 65360, Note_on_c, 0, 58, 0
2, 65380, Note_on_c, 0, 84, 58
2, 65384, Note_on_c, 0, 63, 43
2, 65384, Note_on_c, 0, 72, 53
2, 65392, Note_on_c, 0, 82, 50
2, 65392, Note_on_c, 0, 79, 45
2, 65392, Note_on_c, 0, 53, 42
2, 65396, Note_on_c, 0, 72, 0
2, 65396, Note_on_c, 0, 60, 48
2, 65404, Note_on_c, 0, 58, 35
2, 65408, Note_on_c, 0, 60, 0
2, 65408, Note_on_c, 0, 79, 0
2, 65408, Note_on_c, 0, 53, 0
2, 65408, Note_on_c, 0, 82, 0
2, 65408, Note_on_c, 0, 84, 0
2, 65412, Note_on_c, 0, 63, 0
2, 65412, Control_c, 0, 64, 0
2, 65424, Note_on_c, 0, 58, 0
2, 65440, Note_on_c, 0, 63, 54
2, 65440, Note_on_c, 0, 86, 79
2, 65440, Note_on_c, 0, 79, 63
2, 65444, Note_on_c, 0, 82, 48
2, 65444, Note_on_c, 0, 74, 63
2, 65448, Note_on_c, 0, 53, 35
2, 65448, Control_c, 0, 64, 127
2, 65448, Note_on_c, 0, 60, 54
2, 65452, Note_on_c, 0, 58, 46
2, 65460, Note_on_c, 0, 82, 0
2, 65472, Note_on_c, 0, 53, 0
2, 65480, Note_on_c, 0, 74, 0
2, 65480, Note_on_c, 0, 60, 0
2, 65496, Note_on_c, 0, 79, 0
2, 65496, Note_on_c, 0, 58, 0
2, 65508, Note_on_c, 0, 63, 0
2, 65512, Note_on_c, 0, 86, 0
2, 65732, Control_c, 0, 64, 0
2, 65740, Note_on_c, 0, 92, 86
2, 65740, Note_on_c, 0, 63, 68
2, 65740, Note_on_c, 0, 87, 85
2, 65740, Note_on_c, 0, 68, 81
2, 65744, Note_on_c, 0, 80, 80
2, 65744, Note_on_c, 0, 57, 68
2, 65744, Note_on_c, 0, 61, 57
2, 65784, Control_c, 0, 64, 127
2, 65800, Note_on_c, 0, 80, 0
2, 65804, Note_on_c, 0, 92, 0
2, 65812, Note_on_c, 0, 68, 0
2, 65816, Note_on_c, 0, 87, 0
2, 65824, Note_on_c, 0, 57, 0
2, 65824, Note_on_c, 0, 61, 0
2, 65840, Note_on_c, 0, 63, 0
2, 65872, Note_on_c, 0, 94, 82
2, 65876, Note_on_c, 0, 63, 60
2, 65876, Note_on_c, 0, 68, 77
2, 65876, Note_on_c, 0, 87, 72
2, 65880, Note_on_c, 0, 82, 62
2, 65880, Note_on_c, 0, 61, 52
2, 65880, Note_on_c, 0, 57, 63
2, 65920, Note_on_c, 0, 87, 0
2, 65924, Note_on_c, 0, 57, 0
2, 65928, Note_on_c, 0, 68, 0
2, 65940, Note_on_c, 0, 82, 0
2, 65948, Note_on_c, 0, 94, 0
2, 65964, Note_on_c, 0, 61, 0
2, 65972, Note_on_c, 0, 63, 0
2, 65980, Control_c, 0, 64, 0
2, 66004, Note_on_c, 0, 65, 65
2, 66004, Note_on_c, 0, 62, 57
2, 66008, Note_on_c, 0, 93, 54
2, 66008, Note_on_c, 0, 60, 54
2, 66008, Note_on_c, 0, 89, 60
2, 66008, Note_on_c, 0, 55, 58
2, 66008, Note_on_c, 0, 86, 60
2, 66016, Note_on_c, 0, 81, 48
2, 66020, Note_on_c, 0, 91, 35
2, 66028, Control_c, 0, 64, 127
2, 66064, Note_on_c, 0, 81, 0
2, 66072, Note_on_c, 0, 86, 0
2, 66072, Note_on_c, 0, 89, 0
2, 66088, Note_on_c, 0, 93, 0
2, 66088, Note_on_c, 0, 91, 0
2, 66088, Note_on_c, 0, 55, 0
2, 66092, Note_on_c, 0, 65, 0
2, 66096, Note_on_c, 0, 60, 0
2, 66100, Note_on_c, 0, 62, 0
2, 66132, Control_c, 0, 64, 0
2, 66144, Note_on_c, 0, 89, 74
2, 66144, Note_on_c, 0, 62, 43
2, 66148, Note_on_c, 0, 65, 60
2, 66148, Note_on_c, 0, 55, 52
2, 66148, Note_on_c, 0, 84, 56
2, 66148, Note_on_c, 0, 60, 52
2, 66152, Note_on_c, 0, 93, 49
2, 66164, Control_c, 0, 64, 127
2, 66192, Note_on_c, 0, 93, 0
2, 66204, Note_on_c, 0, 89, 0
2, 66204, Note_on_c, 0, 84, 0
2, 66228, Note_on_c, 0, 55, 0
2, 66232, Note_on_c, 0, 65, 0
2, 66236, Note_on_c, 0, 60, 0
2, 66244, Note_on_c, 0, 62, 0
2, 66588, Note_on_c, 0, 89, 79
2, 66588, Note_on_c, 0, 65, 38
2, 66592, Note_on_c, 0, 77, 61
2, 66596, Note_on_c, 0, 60, 47
2, 66596, Note_on_c, 0, 62, 41
2, 66600, Note_on_c, 0, 55, 31
2, 66656, Note_on_c, 0, 89, 0
2, 66668, Note_on_c, 0, 62, 0
2, 66676, Note_on_c, 0, 77, 0
2, 66688, Note_on_c, 0, 65, 0
2, 66692, Note_on_c, 0, 60, 0
2, 66696, Note_on_c, 0, 55, 0
2, 66788, Control_c, 0, 64, 0
2, 66800, Note_on_c, 0, 84, 67
2, 66800, Note_on_c, 0, 60, 39
2, 66804, Note_on_c, 0, 61, 45
2, 66804, Note_on_c, 0, 65, 53
2, 66808, Note_on_c, 0, 55, 43
2, 66812, Note_on_c, 0, 77, 45
2, 66812, Note_on_c, 0, 81, 61
2, 66828, Note_on_c, 0, 73, 20
2, 66888, Note_on_c, 0, 81, 0
2, 66888, Control_c, 0, 64, 127
2, 66896, Note_on_c, 0, 77, 0
2, 66904, Note_on_c, 0, 65, 0
2, 66912, Note_on_c, 0, 73, 0
2, 66916, Note_on_c, 0, 61, 0
2, 66924, Note_on_c, 0, 60, 0
2, 66940, Note_on_c, 0, 84, 0
2, 66944, Note_on_c, 0, 73, 43
2, 66944, Note_on_c, 0, 60, 28
2, 66944, Note_on_c, 0, 81, 59
2, 66944, Note_on_c, 0, 77, 48
2, 66952, Note_on_c, 0, 61, 48
2, 66952, Note_on_c, 0, 65, 45
2, 67036, Note_on_c, 0, 55, 0
2, 67052, Note_on_c, 0, 77, 0
2, 67056, Note_on_c, 0, 65, 0
2, 67072, Note_on_c, 0, 73, 0
2, 67076, Note_on_c, 0, 61, 0
2, 67084, Note_on_c, 0, 60, 0
2, 67252, Note_on_c, 0, 81, 0
2, 67296, Control_c, 0, 64, 0
2, 67300, Note_on_c, 0, 73, 45
2, 67300, Note_on_c, 0, 77, 54
2, 67300, Note_on_c, 0, 61, 40
2, 67308, Note_on_c, 0, 60, 36
2, 67312, Note_on_c, 0, 55, 37
2, 67312, Note_on_c, 0, 65, 23
2, 67320, Control_c, 0, 64, 127
2, 67340, Note_on_c, 0, 65, 0
2, 67348, Note_on_c, 0, 60, 0
2, 67352, Note_on_c, 0, 77, 0
2, 67368, Note_on_c, 0, 73, 0
2, 67372, Note_on_c, 0, 61, 0
2, 67412, Note_on_c, 0, 55, 0
2, 67512, Control_c, 0, 64, 0
2, 67524, Note_on_c, 0, 69, 45
2, 67528, Note_on_c, 0, 72, 49
2, 67532, Note_on_c, 0, 64, 36
2, 67536, Note_on_c, 0, 60, 42
2, 67540, Note_on_c, 0, 57, 36
2, 67564, Note_on_c, 0, 69, 0
2, 67572, Control_c, 0, 64, 127
2, 67660, Note_on_c, 0, 72, 0
2, 67688, Note_on_c, 0, 64, 0
2, 67692, Note_on_c, 0, 60, 0
2, 67940, Note_on_c, 0, 64, 39
2, 67948, Note_on_c, 0, 60, 36
2, 67952, Control_c, 0, 64, 0
2, 68012, Note_on_c, 0, 72, 50
2, 68016, Note_on_c, 0, 64, 0
2, 68032, Note_on_c, 0, 72, 0
2, 68052, Note_on_c, 0, 60, 0
2, 68072, Note_on_c, 0, 74, 53
2, 68080, Note_on_c, 0, 57, 0
2, 68092, Note_on_c, 0, 74, 0
2, 68144, Note_on_c, 0, 76, 60
2, 68164, Note_on_c, 0, 76, 0
2, 68200, Note_on_c, 0, 79, 68
2, 68228, Note_on_c, 0, 79, 0
2, 68264, Note_on_c, 0, 77, 63
2, 68300, Note_on_c, 0, 77, 0
2, 68324, Note_on_c, 0, 73, 60
2, 68332, Note_on_c, 0, 53, 36
2, 68332, Note_on_c, 0, 57, 32
2, 68336, Note_on_c, 0, 50, 33
2, 68336, Note_on_c, 0, 60, 23
2, 68348, Note_on_c, 0, 73, 0
2, 68388, Note_on_c, 0, 76, 63
2, 68420, Note_on_c, 0, 76, 0
2, 68428, Note_on_c, 0, 60, 0
2, 68460, Note_on_c, 0, 74, 54
2, 68476, Note_on_c, 0, 74, 0
2, 68488, Note_on_c, 0, 53, 0
2, 68500, Note_on_c, 0, 57, 0
2, 68520, Note_on_c, 0, 69, 60
2, 68556, Note_on_c, 0, 69, 0
2, 68636, Note_on_c, 0, 69, 65
2, 68668, Note_on_c, 0, 69, 0
2, 68712, Note_on_c, 0, 69, 53
2, 68720, Note_on_c, 0, 53, 39
2, 68724, Note_on_c, 0, 57, 30
2, 68724, Note_on_c, 0, 60, 25
2, 68752, Note_on_c, 0, 69, 0
2, 68768, Note_on_c, 0, 67, 56
2, 68800, Note_on_c, 0, 67, 0
2, 68832, Note_on_c, 0, 65, 54
2, 68872, Note_on_c, 0, 65, 0
2, 68908, Note_on_c, 0, 69, 66
2, 68916, Note_on_c, 0, 60, 0
2, 68932, Note_on_c, 0, 57, 0
2, 68948, Note_on_c, 0, 69, 0
2, 68964, Note_on_c, 0, 67, 58
2, 68968, Note_on_c, 0, 53, 0
2, 68992, Note_on_c, 0, 50, 0
2, 69004, Note_on_c, 0, 67, 0
2, 69032, Note_on_c, 0, 65, 51
2, 69064, Note_on_c, 0, 65, 0
2, 69104, Note_on_c, 0, 58, 44
2, 69108, Note_on_c, 0, 62, 38
2, 69108, Note_on_c, 0, 53, 39
2, 69116, Note_on_c, 0, 57, 36
2, 69300, Note_on_c, 0, 70, 62
2, 69336, Note_on_c, 0, 62, 0
2, 69340, Note_on_c, 0, 70, 0
2, 69352, Note_on_c, 0, 58, 0
2, 69364, Note_on_c, 0, 69, 49
2, 69376, Note_on_c, 0, 57, 0
2, 69404, Note_on_c, 0, 69, 0
2, 69424, Note_on_c, 0, 67, 45
2, 69444, Note_on_c, 0, 67, 0
2, 69496, Note_on_c, 0, 58, 39
2, 69496, Note_on_c, 0, 62, 35
2, 69496, Note_on_c, 0, 74, 61
2, 69504, Note_on_c, 0, 76, 46
2, 69516, Note_on_c, 0, 76, 0
2, 69520, Note_on_c, 0, 62, 0
2, 69532, Note_on_c, 0, 74, 0
2, 69544, Note_on_c, 0, 58, 0
2, 69552, Note_on_c, 0, 53, 0
2, 69644, Note_on_c, 0, 62, 57
2, 69644, Note_on_c, 0, 58, 57
2, 69648, Note_on_c, 0, 53, 51
2, 69652, Note_on_c, 0, 57, 56
2, 69732, Control_c, 0, 64, 127
2, 69776, Note_on_c, 0, 58, 0
2, 69788, Note_on_c, 0, 62, 0
2, 69792, Note_on_c, 0, 57, 0
2, 69808, Note_on_c, 0, 53, 0
2, 69876, Control_c, 0, 64, 0
2, 69876, Note_on_c, 0, 75, 88
2, 69880, Note_on_c, 0, 58, 52
2, 69880, Note_on_c, 0, 62, 58
2, 69884, Note_on_c, 0, 52, 54
2, 69928, Note_on_c, 0, 75, 0
2, 69944, Note_on_c, 0, 73, 52
2, 69984, Note_on_c, 0, 73, 0
2, 70008, Note_on_c, 0, 72, 40
2, 70028, Note_on_c, 0, 72, 0
2, 70092, Control_c, 0, 64, 127
2, 70100, Note_on_c, 0, 62, 0
2, 70132, Note_on_c, 0, 58, 0
2, 70132, Note_on_c, 0, 52, 0
2, 70192, Note_on_c, 0, 58, 69
2, 70192, Note_on_c, 0, 62, 72
2, 70196, Note_on_c, 0, 52, 62
2, 70272, Note_on_c, 0, 78, 96
2, 70348, Note_on_c, 0, 58, 0
2, 70352, Note_on_c, 0, 62, 0
2, 70352, Note_on_c, 0, 78, 0
2, 70352, Note_on_c, 0, 76, 73
2, 70380, Note_on_c, 0, 76, 0
2, 70392, Note_on_c, 0, 52, 0
2, 70400, Note_on_c, 0, 78, 70
2, 70428, Note_on_c, 0, 78, 0
2, 70428, Control_c, 0, 64, 0
2, 70464, Note_on_c, 0, 58, 52
2, 70468, Note_on_c, 0, 62, 50
2, 70472, Note_on_c, 0, 78, 67
2, 70472, Note_on_c, 0, 52, 42
2, 70508, Note_on_c, 0, 78, 0
2, 70512, Control_c, 0, 64, 127
2, 70522, Note_on_c, 0, 79, 69
2, 70552, Note_on_c, 0, 52, 0
2, 70556, Note_on_c, 0, 79, 0
2, 70568, Note_on_c, 0, 80, 54
2, 70572, Note_on_c, 0, 58, 0
2, 70584, Note_on_c, 0, 80, 0
2, 70604, Note_on_c, 0, 62, 0
2, 70612, Note_on_c, 0, 81, 43
2, 70636, Note_on_c, 0, 82, 68
2, 70644, Note_on_c, 0, 81, 0
2, 70664, Control_c, 0, 64, 0
2, 70676, Note_on_c, 0, 82, 0
2, 70676, Note_on_c, 0, 81, 68
2, 70680, Note_on_c, 0, 64, 48
2, 70692, Note_on_c, 0, 60, 46
2, 70692, Note_on_c, 0, 57, 48
2, 70696, Note_on_c, 0, 53, 38
2, 70740, Control_c, 0, 64, 127
2, 70768, Note_on_c, 0, 81, 0
2, 70784, Note_on_c, 0, 72, 58
2, 70820, Note_on_c, 0, 72, 0
2, 70888, Note_on_c, 0, 57, 0
2, 70892, Note_on_c, 0, 64, 0
2, 70896, Note_on_c, 0, 60, 0
2, 70992, Note_on_c, 0, 72, 57
2, 70992, Note_on_c, 0, 64, 39
2, 70996, Note_on_c, 0, 60, 39
2, 71000, Note_on_c, 0, 57, 35
2, 71096, Note_on_c, 0, 72, 0
2, 71124, Note_on_c, 0, 74, 86
2, 71192, Note_on_c, 0, 60, 0
2, 71200, Note_on_c, 0, 57, 0
2, 71200, Note_on_c, 0, 53, 0
2, 71200, Note_on_c, 0, 74, 0
2, 71220, Note_on_c, 0, 64, 0
2, 71232, Note_on_c, 0, 76, 75
2, 71268, Note_on_c, 0, 76, 0
2, 71292, Note_on_c, 0, 77, 81
2, 71340, Note_on_c, 0, 77, 0
2, 71364, Note_on_c, 0, 79, 75
2, 71364, Control_c, 0, 64, 0
2, 71364, Note_on_c, 0, 67, 60
2, 71364, Note_on_c, 0, 76, 74
2, 71364, Note_on_c, 0, 72, 72
2, 71372, Note_on_c, 0, 56, 52
2, 71372, Note_on_c, 0, 60, 55
2, 71376, Note_on_c, 0, 62, 51
2, 71436, Control_c, 0, 64, 127
2, 71496, Note_on_c, 0, 76, 0
2, 71512, Note_on_c, 0, 72, 0
2, 71512, Note_on_c, 0, 67, 0
2, 71520, Note_on_c, 0, 62, 0
2, 71524, Note_on_c, 0, 79, 0
2, 71532, Note_on_c, 0, 60, 0
2, 71544, Note_on_c, 0, 56, 0
2, 71560, Note_on_c, 0, 67, 72
2, 71560, Note_on_c, 0, 76, 75
2, 71560, Note_on_c, 0, 72, 74
2, 71568, Note_on_c, 0, 56, 69
2, 71568, Note_on_c, 0, 60, 65
2, 71572, Note_on_c, 0, 62, 56
2, 71680, Note_on_c, 0, 60, 0
2, 71684, Note_on_c, 0, 56, 0
2, 71684, Note_on_c, 0, 67, 0
2, 71696, Note_on_c, 0, 62, 0
2, 71700, Note_on_c, 0, 72, 0
2, 71712, Note_on_c, 0, 76, 0
2, 71752, Note_on_c, 0, 56, 56
2, 71756, Note_on_c, 0, 62, 59
2, 71756, Note_on_c, 0, 76, 57
2, 71760, Note_on_c, 0, 72, 67
2, 71764, Note_on_c, 0, 67, 54
2, 71768, Note_on_c, 0, 60, 41
2, 71788, Note_on_c, 0, 60, 0
2, 71792, Note_on_c, 0, 67, 0
2, 71828, Note_on_c, 0, 72, 0
2, 71836, Note_on_c, 0, 56, 0
2, 71852, Note_on_c, 0, 76, 0
2, 71868, Note_on_c, 0, 62, 0
2, 72024, Note_on_c, 0, 62, 45
2, 72028, Note_on_c, 0, 77, 70
2, 72028, Note_on_c, 0, 89, 69
2, 72032, Note_on_c, 0, 56, 38
2, 72040, Note_on_c, 0, 84, 40
2, 72048, Note_on_c, 0, 56, 0
2, 72048, Note_on_c, 0, 77, 0
2, 72056, Note_on_c, 0, 62, 0
2, 72056, Note_on_c, 0, 89, 0
2, 72056, Note_on_c, 0, 84, 0
2, 72084, Note_on_c, 0, 56, 57
2, 72092, Note_on_c, 0, 90, 81
2, 72092, Note_on_c, 0, 78, 81
2, 72096, Note_on_c, 0, 85, 68
2, 72104, Note_on_c, 0, 78, 0
2, 72120, Note_on_c, 0, 56, 0
2, 72124, Note_on_c, 0, 90, 0
2, 72128, Note_on_c, 0, 85, 0
2, 72144, Control_c, 0, 64, 0
2, 72156, Note_on_c, 0, 65, 68
2, 72156, Note_on_c, 0, 54, 57
2, 72156, Note_on_c, 0, 58, 52
2, 72156, Note_on_c, 0, 87, 82
2, 72156, Note_on_c, 0, 61, 57
2, 72156, Note_on_c, 0, 80, 78
2, 72156, Note_on_c, 0, 92, 77
2, 72196, Control_c, 0, 64, 127
2, 72280, Note_on_c, 0, 54, 0
2, 72284, Note_on_c, 0, 80, 0
2, 72288, Note_on_c, 0, 65, 0
2, 72288, Note_on_c, 0, 92, 0
2, 72292, Note_on_c, 0, 58, 0
2, 72296, Note_on_c, 0, 87, 0
2, 72300, Note_on_c, 0, 61, 0
2, 72364, Note_on_c, 0, 77, 52
2, 72372, Note_on_c, 0, 65, 40
2, 72372, Note_on_c, 0, 61, 47
2, 72376, Note_on_c, 0, 89, 49
2, 72376, Note_on_c, 0, 54, 39
2, 72376, Note_on_c, 0, 58, 45
2, 72476, Note_on_c, 0, 58, 0
2, 72476, Note_on_c, 0, 65, 0
2, 72476, Note_on_c, 0, 54, 0
2, 72480, Note_on_c, 0, 61, 0
2, 72484, Note_on_c, 0, 89, 0
2, 72484, Note_on_c, 0, 77, 0
2, 72556, Note_on_c, 0, 89, 52
2, 72556, Note_on_c, 0, 65, 51
2, 72556, Note_on_c, 0, 54, 47
2, 72556, Note_on_c, 0, 61, 50
2, 72560, Note_on_c, 0, 77, 54
2, 72564, Note_on_c, 0, 58, 43
2, 72576, Note_on_c, 0, 77, 0
2, 72584, Note_on_c, 0, 89, 0
2, 72588, Note_on_c, 0, 65, 0
2, 72596, Note_on_c, 0, 54, 0
2, 72596, Note_on_c, 0, 58, 0
2, 72600, Note_on_c, 0, 61, 0
2, 72632, Note_on_c, 0, 78, 65
2, 72636, Note_on_c, 0, 61, 48
2, 72640, Note_on_c, 0, 54, 40
2, 72640, Note_on_c, 0, 58, 46
2, 72648, Note_on_c, 0, 90, 26
2, 72652, Note_on_c, 0, 78, 0
2, 72652, Note_on_c, 0, 85, 27
2, 72656, Note_on_c, 0, 58, 0
2, 72656, Note_on_c, 0, 54, 0
2, 72660, Note_on_c, 0, 90, 0
2, 72664, Note_on_c, 0, 61, 0
2, 72668, Note_on_c, 0, 85, 0
2, 72692, Note_on_c, 0, 92, 89
2, 72692, Note_on_c, 0, 80, 89
2, 72696, Note_on_c, 0, 61, 60
2, 72700, Note_on_c, 0, 54, 57
2, 72700, Note_on_c, 0, 65, 60
2, 72700, Note_on_c, 0, 58, 58
2, 72728, Note_on_c, 0, 65, 0
2, 72732, Note_on_c, 0, 54, 0
2, 72732, Note_on_c, 0, 80, 0
2, 72736, Note_on_c, 0, 92, 0
2, 72740, Note_on_c, 0, 58, 0
2, 72744, Note_on_c, 0, 61, 0
2, 72764, Control_c, 0, 64, 0
2, 72772, Note_on_c, 0, 94, 94
2, 72772, Note_on_c, 0, 82, 92
2, 72772, Note_on_c, 0, 61, 63
2, 72772, Note_on_c, 0, 54, 70
2, 72772, Note_on_c, 0, 58, 58
2, 72772, Note_on_c, 0, 65, 75
2, 72812, Control_c, 0, 64, 127
2, 72872, Note_on_c, 0, 65, 0
2, 72872, Note_on_c, 0, 54, 0
2, 72876, Note_on_c, 0, 82, 0
2, 72880, Note_on_c, 0, 94, 0
2, 72896, Note_on_c, 0, 61, 0
2, 72900, Control_c, 0, 64, 0
2, 72908, Note_on_c, 0, 94, 66
2, 72912, Note_on_c, 0, 82, 76
2, 72912, Note_on_c, 0, 64, 76
2, 72916, Note_on_c, 0, 60, 68
2, 72916, Note_on_c, 0, 54, 57
2, 72924, Note_on_c, 0, 87, 39
2, 72948, Note_on_c, 0, 87, 0
2, 72952, Control_c, 0, 64, 127
2, 73008, Note_on_c, 0, 82, 0
2, 73016, Note_on_c, 0, 94, 0
2, 73036, Note_on_c, 0, 58, 0
2, 73036, Note_on_c, 0, 60, 0
2, 73044, Note_on_c, 0, 54, 0
2, 73044, Note_on_c, 0, 64, 0
2, 73076, Note_on_c, 0, 80, 68
2, 73076, Note_on_c, 0, 92, 47
2, 73084, Note_on_c, 0, 64, 52
2, 73088, Note_on_c, 0, 60, 52
2, 73088, Note_on_c, 0, 54, 41
2, 73088, Note_on_c, 0, 90, 38
2, 73096, Note_on_c, 0, 58, 46
2, 73112, Note_on_c, 0, 58, 0
2, 73236, Note_on_c, 0, 64, 0
2, 73236, Note_on_c, 0, 60, 0
2, 73244, Note_on_c, 0, 54, 0
2, 73244, Note_on_c, 0, 80, 0
2, 73252, Note_on_c, 0, 92, 0
2, 73256, Note_on_c, 0, 90, 0
2, 73292, Control_c, 0, 64, 0
2, 73304, Control_c, 0, 64, 127
2, 73316, Note_on_c, 0, 54, 50
2, 73316, Note_on_c, 0, 64, 46
2, 73316, Note_on_c, 0, 60, 52
2, 73320, Note_on_c, 0, 92, 58
2, 73328, Note_on_c, 0, 80, 48
2, 73360, Note_on_c, 0, 80, 0
2, 73364, Note_on_c, 0, 64, 0
2, 73372, Note_on_c, 0, 92, 0
2, 73376, Note_on_c, 0, 60, 0
2, 73376, Note_on_c, 0, 54, 0
2, 73440, Note_on_c, 0, 94, 74
2, 73440, Note_on_c, 0, 87, 68
2, 73444, Note_on_c, 0, 82, 72
2, 73444, Note_on_c, 0, 60, 72
2, 73444, Note_on_c, 0, 54, 72
2, 73448, Note_on_c, 0, 64, 69
2, 73484, Note_on_c, 0, 87, 0
2, 73488, Note_on_c, 0, 64, 0
2, 73500, Note_on_c, 0, 54, 0
2, 73504, Note_on_c, 0, 60, 0
2, 73504, Note_on_c, 0, 82, 0
2, 73508, Note_on_c, 0, 94, 0
2, 73528, Note_on_c, 0, 54, 68
2, 73532, Note_on_c, 0, 83, 74
2, 73532, Note_on_c, 0, 95, 63
2, 73532, Note_on_c, 0, 64, 54
2, 73536, Note_on_c, 0, 60, 70
2, 73536, Note_on_c, 0, 88, 70
2, 73540, Note_on_c, 0, 93, 43
2, 73552, Note_on_c, 0, 93, 0
2, 73564, Note_on_c, 0, 88, 0
2, 73568, Note_on_c, 0, 83, 0
2, 73580, Note_on_c, 0, 64, 0
2, 73584, Note_on_c, 0, 95, 0
2, 73592, Note_on_c, 0, 54, 0
2, 73596, Note_on_c, 0, 60, 0
2, 73640, Note_on_c, 0, 54, 66
2, 73640, Note_on_c, 0, 90, 71
2, 73640, Note_on_c, 0, 96, 78
2, 73642, Note_on_c, 0, 84, 70
2, 73648, Note_on_c, 0, 64, 42
2, 73652, Note_on_c, 0, 60, 57
2, 73668, Note_on_c, 0, 64, 0
2, 73672, Note_on_c, 0, 84, 0
2, 73676, Note_on_c, 0, 96, 0
2, 73688, Note_on_c, 0, 54, 0
2, 73688, Note_on_c, 0, 90, 0
2, 73704, Control_c, 0, 64, 0
2, 73724, Note_on_c, 0, 63, 66
2, 73728, Note_on_c, 0, 97, 84
2, 73728, Note_on_c, 0, 53, 55
2, 73728, Note_on_c, 0, 85, 66
2, 73732, Note_on_c, 0, 56, 56
2, 73752, Control_c, 0, 64, 127
2, 73792, Note_on_c, 0, 97, 0
2, 73796, Note_on_c, 0, 85, 0
2, 73808, Note_on_c, 0, 53, 0
2, 73824, Note_on_c, 0, 56, 0
2, 73828, Note_on_c, 0, 63, 0
2, 73836, Note_on_c, 0, 60, 0
2, 73892, Note_on_c, 0, 92, 61
2, 73896, Note_on_c, 0, 63, 47
2, 73900, Note_on_c, 0, 80, 45
2, 73904, Note_on_c, 0, 60, 48
2, 73904, Note_on_c, 0, 56, 47
2, 73904, Note_on_c, 0, 87, 53
2, 73908, Note_on_c, 0, 53, 42
2, 73948, Note_on_c, 0, 63, 0
2, 73960, Note_on_c, 0, 53, 0
2, 73968, Note_on_c, 0, 60, 0
2, 73980, Note_on_c, 0, 56, 0
2, 74004, Note_on_c, 0, 80, 0
2, 74016, Note_on_c, 0, 92, 0
2, 74016, Note_on_c, 0, 87, 0
2, 74068, Control_c, 0, 64, 0
2, 74084, Note_on_c, 0, 92, 56
2, 74092, Note_on_c, 0, 63, 51
2, 74092, Note_on_c, 0, 60, 45
2, 74096, Note_on_c, 0, 56, 45
2, 74096, Note_on_c, 0, 87, 50
2, 74096, Note_on_c, 0, 80, 42
2, 74104, Note_on_c, 0, 53, 36
2, 74112, Control_c, 0, 64, 127
2, 74192, Note_on_c, 0, 56, 0
2, 74252, Note_on_c, 0, 53, 0
2, 74264, Note_on_c, 0, 60, 0
2, 74268, Note_on_c, 0, 80, 0
2, 74276, Note_on_c, 0, 63, 0
2, 74284, Note_on_c, 0, 87, 0
2, 74300, Note_on_c, 0, 92, 0
2, 74584, Control_c, 0, 64, 0
2, 74592, Note_on_c, 0, 101, 111
2, 74592, Note_on_c, 0, 99, 84
2, 74592, Note_on_c, 0, 56, 84
2, 74596, Note_on_c, 0, 65, 92
2, 74596, Note_on_c, 0, 96, 80
2, 74596, Note_on_c, 0, 89, 68
2, 74596, Note_on_c, 0, 61, 72
2, 74596, Note_on_c, 0, 60, 78
2, 74596, Note_on_c, 0, 97, 61
2, 74596, Note_on_c, 0, 91, 75
2, 74608, Note_on_c, 0, 97, 0
2, 74612, Note_on_c, 0, 91, 0
2, 74624, Note_on_c, 0, 99, 0
2, 74644, Control_c, 0, 64, 127
2, 74684, Note_on_c, 0, 101, 0
2, 74688, Note_on_c, 0, 89, 0
2, 74700, Note_on_c, 0, 96, 0
2, 74704, Note_on_c, 0, 65, 0
2, 74704, Note_on_c, 0, 56, 0
2, 74708, Note_on_c, 0, 60, 0
2, 74712, Note_on_c, 0, 61, 0
2, 74736, Note_on_c, 0, 99, 84
2, 74740, Note_on_c, 0, 87, 80
2, 74740, Note_on_c, 0, 94, 80
2, 74740, Note_on_c, 0, 61, 66
2, 74740, Note_on_c, 0, 65, 75
2, 74740, Note_on_c, 0, 56, 72
2, 74744, Note_on_c, 0, 60, 63
2, 74804, Note_on_c, 0, 99, 0
2, 74816, Note_on_c, 0, 65, 0
2, 74816, Note_on_c, 0, 87, 0
2, 74820, Note_on_c, 0, 56, 0
2, 74824, Note_on_c, 0, 94, 0
2, 74828, Note_on_c, 0, 60, 0
2, 74828, Note_on_c, 0, 61, 0
2, 74828, Control_c, 0, 64, 0
2, 74864, Note_on_c, 0, 97, 72
2, 74864, Note_on_c, 0, 65, 74
2, 74864, Note_on_c, 0, 60, 54
2, 74864, Note_on_c, 0, 56, 67
2, 74864, Note_on_c, 0, 61, 50
2, 74864, Note_on_c, 0, 85, 68
2, 74868, Note_on_c, 0, 92, 66
2, 74868, Control_c, 0, 64, 127
2, 74928, Note_on_c, 0, 65, 0
2, 74932, Note_on_c, 0, 56, 0
2, 74932, Note_on_c, 0, 92, 0
2, 74936, Note_on_c, 0, 60, 0
2, 74936, Note_on_c, 0, 97, 0
2, 74940, Note_on_c, 0, 61, 0
2, 74948, Note_on_c, 0, 85, 0
2, 74984, Note_on_c, 0, 96, 72
2, 74988, Note_on_c, 0, 56, 56
2, 74988, Note_on_c, 0, 65, 60
2, 74988, Note_on_c, 0, 61, 56
2, 74988, Note_on_c, 0, 91, 68
2, 74992, Note_on_c, 0, 84, 57
2, 75036, Note_on_c, 0, 84, 0
2, 75048, Note_on_c, 0, 65, 0
2, 75052, Note_on_c, 0, 96, 0
2, 75056, Note_on_c, 0, 91, 0
2, 75088, Note_on_c, 0, 61, 0
2, 75088, Note_on_c, 0, 56, 0
2, 75136, Note_on_c, 0, 99, 88
2, 75136, Note_on_c, 0, 87, 85
2, 75140, Note_on_c, 0, 94, 79
2, 75144, Note_on_c, 0, 65, 83
2, 75144, Note_on_c, 0, 61, 69
2, 75144, Note_on_c, 0, 58, 68
2, 75144, Note_on_c, 0, 54, 70
2, 75148, Control_c, 0, 64, 0
2, 75204, Control_c, 0, 64, 127
2, 75268, Note_on_c, 0, 54, 0
2, 75268, Note_on_c, 0, 65, 0
2, 75268, Note_on_c, 0, 87, 0
2, 75268, Note_on_c, 0, 99, 0
2, 75268, Note_on_c, 0, 58, 0
2, 75272, Note_on_c, 0, 94, 0
2, 75272, Note_on_c, 0, 61, 0
2, 75304, Control_c, 0, 64, 0
2, 75308, Note_on_c, 0, 97, 72
2, 75312, Note_on_c, 0, 65, 66
2, 75312, Note_on_c, 0, 85, 60
2, 75312, Note_on_c, 0, 92, 68
2, 75312, Note_on_c, 0, 58, 57
2, 75312, Note_on_c, 0, 54, 61
2, 75312, Note_on_c, 0, 61, 56
2, 75336, Control_c, 0, 64, 127
2, 75388, Note_on_c, 0, 92, 0
2, 75396, Note_on_c, 0, 65, 0
2, 75396, Note_on_c, 0, 97, 0
2, 75400, Note_on_c, 0, 58, 0
2, 75400, Note_on_c, 0, 85, 0
2, 75400, Note_on_c, 0, 54, 0
2, 75404, Note_on_c, 0, 61, 0
2, 75440, Note_on_c, 0, 96, 68
2, 75448, Note_on_c, 0, 65, 59
2, 75448, Note_on_c, 0, 84, 47
2, 75448, Note_on_c, 0, 91, 64
2, 75448, Note_on_c, 0, 54, 55
2, 75448, Note_on_c, 0, 58, 58
2, 75448, Note_on_c, 0, 61, 52
2, 75492, Note_on_c, 0, 96, 0
2, 75500, Note_on_c, 0, 91, 0
2, 75508, Note_on_c, 0, 84, 0
2, 75516, Note_on_c, 0, 54, 0
2, 75520, Note_on_c, 0, 65, 0
2, 75524, Note_on_c, 0, 58, 0
2, 75528, Note_on_c, 0, 61, 0
2, 75548, Control_c, 0, 64, 0
2, 75572, Note_on_c, 0, 94, 63
2, 75576, Note_on_c, 0, 82, 63
2, 75576, Note_on_c, 0, 54, 50
2, 75576, Note_on_c, 0, 65, 48
2, 75576, Note_on_c, 0, 58, 52
2, 75584, Note_on_c, 0, 61, 54
2, 75608, Control_c, 0, 64, 127
2, 75664, Note_on_c, 0, 82, 0
2, 75676, Note_on_c, 0, 94, 0
2, 75800, Note_on_c, 0, 58, 0
2, 75800, Note_on_c, 0, 65, 0
2, 75808, Note_on_c, 0, 54, 0
2, 75816, Note_on_c, 0, 61, 0
2, 75884, Note_on_c, 0, 97, 72
2, 75884, Note_on_c, 0, 85, 70
2, 75884, Note_on_c, 0, 61, 49
2, 75884, Note_on_c, 0, 65, 50
2, 75888, Note_on_c, 0, 92, 58
2, 75888, Note_on_c, 0, 54, 48
2, 75892, Note_on_c, 0, 58, 48
2, 75904, Note_on_c, 0, 92, 0
2, 75904, Note_on_c, 0, 65, 0
2, 75932, Note_on_c, 0, 97, 0
2, 75932, Note_on_c, 0, 54, 0
2, 75944, Control_c, 0, 64, 0
2, 75948, Note_on_c, 0, 85, 0
2, 75948, Note_on_c, 0, 61, 0
2, 75976, Note_on_c, 0, 96, 67
2, 75976, Note_on_c, 0, 54, 47
2, 75976, Note_on_c, 0, 64, 54
2, 75976, Note_on_c, 0, 60, 57
2, 75980, Control_c, 0, 64, 127
2, 75984, Note_on_c, 0, 84, 49
2, 75988, Note_on_c, 0, 91, 50
2, 76000, Note_on_c, 0, 58, 0
2, 76012, Note_on_c, 0, 91, 0
2, 76016, Note_on_c, 0, 96, 0
2, 76032, Note_on_c, 0, 84, 0
2, 76052, Note_on_c, 0, 54, 0
2, 76056, Note_on_c, 0, 64, 0
2, 76072, Note_on_c, 0, 60, 0
2, 76112, Control_c, 0, 64, 0
2, 76116, Note_on_c, 0, 93, 71
2, 76116, Note_on_c, 0, 64, 49
2, 76116, Note_on_c, 0, 81, 58
2, 76120, Note_on_c, 0, 60, 50
2, 76124, Note_on_c, 0, 54, 37
2, 76168, Control_c, 0, 64, 127
2, 76268, Note_on_c, 0, 60, 0
2, 76312, Note_on_c, 0, 60, 29
2, 76320, Note_on_c, 0, 93, 0
2, 76324, Note_on_c, 0, 81, 0
2, 76360, Control_c, 0, 64, 0
2, 76368, Note_on_c, 0, 64, 0
2, 76380, Note_on_c, 0, 90, 70
2, 76408, Note_on_c, 0, 60, 0
2, 76412, Note_on_c, 0, 90, 0
2, 76504, Note_on_c, 0, 86, 68
2, 76504, Note_on_c, 0, 64, 49
2, 76512, Note_on_c, 0, 60, 42
2, 76536, Note_on_c, 0, 86, 0
2, 76540, Note_on_c, 0, 64, 0
2, 76572, Note_on_c, 0, 81, 44
2, 76592, Note_on_c, 0, 81, 0
2, 76652, Note_on_c, 0, 54, 0
2, 76704, Note_on_c, 0, 79, 63
2, 76708, Note_on_c, 0, 60, 0
2, 76752, Note_on_c, 0, 63, 39
2, 76752, Note_on_c, 0, 60, 35
2, 76760, Note_on_c, 0, 56, 41
2, 76764, Note_on_c, 0, 53, 36
2, 76800, Note_on_c, 0, 79, 0
2, 76816, Note_on_c, 0, 80, 43
2, 76844, Note_on_c, 0, 79, 55
2, 76856, Note_on_c, 0, 80, 0
2, 76884, Note_on_c, 0, 79, 0
2, 76888, Note_on_c, 0, 77, 51
2, 76916, Note_on_c, 0, 77, 0
2, 76932, Note_on_c, 0, 76, 54
2, 76960, Note_on_c, 0, 76, 0
2, 76976, Note_on_c, 0, 79, 59
2, 77020, Note_on_c, 0, 79, 0
2, 77028, Note_on_c, 0, 76, 34
2, 77048, Note_on_c, 0, 76, 0
2, 77072, Note_on_c, 0, 77, 50
2, 77100, Note_on_c, 0, 77, 0
2, 77120, Note_on_c, 0, 72, 49
2, 77140, Note_on_c, 0, 72, 0
2, 77168, Note_on_c, 0, 68, 48
2, 77184, Note_on_c, 0, 63, 0
2, 77216, Note_on_c, 0, 68, 0
2, 77228, Note_on_c, 0, 67, 48
2, 77240, Note_on_c, 0, 67, 0
2, 77280, Note_on_c, 0, 70, 66
2, 77320, Note_on_c, 0, 70, 0
2, 77388, Note_on_c, 0, 67, 56
2, 77416, Note_on_c, 0, 67, 0
2, 77444, Note_on_c, 0, 68, 67
2, 77452, Note_on_c, 0, 53, 0
2, 77460, Note_on_c, 0, 60, 0
2, 77480, Note_on_c, 0, 68, 0
2, 77488, Note_on_c, 0, 56, 0
2, 77496, Note_on_c, 0, 70, 57
2, 77508, Note_on_c, 0, 70, 0
2, 77536, Note_on_c, 0, 71, 56
2, 77568, Note_on_c, 0, 71, 0
2, 77580, Note_on_c, 0, 72, 45
2, 77612, Note_on_c, 0, 72, 0
2, 77616, Note_on_c, 0, 73, 57
2, 77620, Note_on_c, 0, 56, 29
2, 77624, Note_on_c, 0, 67, 19
2, 77624, Note_on_c, 0, 62, 35
2, 77628, Note_on_c, 0, 73, 0
2, 77676, Note_on_c, 0, 75, 41
2, 77716, Note_on_c, 0, 75, 0
2, 77716, Note_on_c, 0, 76, 66
2, 77728, Note_on_c, 0, 67, 0
2, 77756, Note_on_c, 0, 76, 0
2, 77756, Note_on_c, 0, 77, 68
2, 77800, Note_on_c, 0, 77, 0
2, 77824, Note_on_c, 0, 74, 63
2, 77852, Note_on_c, 0, 74, 0
2, 77876, Note_on_c, 0, 62, 0
2, 77904, Note_on_c, 0, 71, 33
2, 77904, Note_on_c, 0, 72, 33
2, 77920, Note_on_c, 0, 71, 0
2, 77940, Note_on_c, 0, 72, 0
2, 77992, Note_on_c, 0, 62, 38
2, 78036, Control_c, 0, 64, 127
2, 78036, Note_on_c, 0, 67, 43
2, 78112, Note_on_c, 0, 62, 0
2, 78112, Note_on_c, 0, 56, 0
2, 78200, Note_on_c, 0, 56, 39
2, 78236, Note_on_c, 0, 56, 0
2, 78288, Note_on_c, 0, 67, 0
2, 78340, Control_c, 0, 64, 0
2, 78364, Note_on_c, 0, 65, 45
2, 78364, Note_on_c, 0, 54, 46
2, 78368, Note_on_c, 0, 61, 49
2, 78372, Note_on_c, 0, 58, 49
2, 78396, Control_c, 0, 64, 127
2, 78424, Note_on_c, 0, 65, 0
2, 78452, Note_on_c, 0, 61, 0
2, 78456, Note_on_c, 0, 58, 0
2, 78472, Note_on_c, 0, 54, 0
2, 78760, Note_on_c, 0, 48, 52
2, 78772, Control_c, 0, 64, 0
2, 78788, Note_on_c, 0, 48, 0
2, 78800, Note_on_c, 0, 49, 74
2, 78832, Note_on_c, 0, 49, 0
2, 78856, Note_on_c, 0, 53, 29
2, 78868, Note_on_c, 0, 50, 68
2, 78872, Note_on_c, 0, 53, 0
2, 78912, Note_on_c, 0, 50, 0
2, 78912, Note_on_c, 0, 51, 68
2, 78940, Note_on_c, 0, 54, 57
2, 78956, Note_on_c, 0, 51, 0
2, 78968, Note_on_c, 0, 52, 67
2, 78972, Note_on_c, 0, 54, 0
2, 79000, Note_on_c, 0, 52, 0
2, 79008, Note_on_c, 0, 53, 63
2, 79028, Note_on_c, 0, 56, 60
2, 79040, Note_on_c, 0, 53, 0
2, 79064, Note_on_c, 0, 56, 0
2, 79072, Note_on_c, 0, 53, 42
2, 79096, Note_on_c, 0, 53, 0
2, 79100, Note_on_c, 0, 56, 41
2, 79124, Note_on_c, 0, 56, 0
2, 79140, Note_on_c, 0, 59, 25
2, 79160, Note_on_c, 0, 59, 0
2, 79180, Note_on_c, 0, 55, 22
2, 79184, Note_on_c, 0, 56, 29
2, 79212, Note_on_c, 0, 55, 0
2, 79236, Note_on_c, 0, 56, 0
2, 79332, Note_on_c, 0, 53, 30
2, 79336, Note_on_c, 0, 55, 39
2, 79348, Note_on_c, 0, 55, 0
2, 79348, Note_on_c, 0, 53, 0
2, 79352, Note_on_c, 0, 44, 40
2, 79356, Note_on_c, 0, 56, 48
2, 79388, Note_on_c, 0, 56, 0
2, 79392, Note_on_c, 0, 60, 51
2, 79404, Note_on_c, 0, 60, 0
2, 79420, Note_on_c, 0, 57, 68
2, 79440, Note_on_c, 0, 54, 4
2, 79452, Note_on_c, 0, 57, 0
2, 79452, Note_on_c, 0, 58, 56
2, 79476, Note_on_c, 0, 54, 0
2, 79492, Note_on_c, 0, 61, 55
2, 79500, Note_on_c, 0, 58, 0
2, 79504, Note_on_c, 0, 61, 0
2, 79508, Note_on_c, 0, 51, 25
2, 79512, Note_on_c, 0, 59, 66
2, 79532, Note_on_c, 0, 51, 0
2, 79540, Note_on_c, 0, 60, 61
2, 79548, Note_on_c, 0, 59, 0
2, 79576, Note_on_c, 0, 60, 0
2, 79576, Note_on_c, 0, 63, 63
2, 79612, Note_on_c, 0, 60, 57
2, 79620, Note_on_c, 0, 63, 0
2, 79644, Note_on_c, 0, 54, 27
2, 79648, Note_on_c, 0, 60, 0
2, 79652, Note_on_c, 0, 61, 52
2, 79676, Note_on_c, 0, 65, 43
2, 79688, Note_on_c, 0, 61, 0
2, 79692, Note_on_c, 0, 65, 0
2, 79696, Note_on_c, 0, 44, 0
2, 79704, Note_on_c, 0, 62, 69
2, 79708, Note_on_c, 0, 54, 0
2, 79752, Note_on_c, 0, 63, 50
2, 79764, Note_on_c, 0, 63, 0
2, 79764, Note_on_c, 0, 62, 0
2, 79780, Note_on_c, 0, 64, 28
2, 79792, Note_on_c, 0, 66, 57
2, 79804, Note_on_c, 0, 64, 0
2, 79836, Note_on_c, 0, 66, 0
2, 79844, Note_on_c, 0, 68, 68
2, 79868, Note_on_c, 0, 60, 42
2, 79872, Note_on_c, 0, 53, 38
2, 79876, Note_on_c, 0, 56, 41
2, 79892, Note_on_c, 0, 65, 58
2, 79908, Note_on_c, 0, 68, 0
2, 79952, Note_on_c, 0, 60, 0
2, 79988, Note_on_c, 0, 65, 0
2, 80000, Note_on_c, 0, 60, 57
2, 80044, Note_on_c, 0, 60, 0
2, 80060, Note_on_c, 0, 61, 59
2, 80104, Note_on_c, 0, 61, 0
2, 80116, Note_on_c, 0, 63, 60
2, 80128, Note_on_c, 0, 56, 0
2, 80144, Note_on_c, 0, 63, 0
2, 80172, Note_on_c, 0, 65, 65
2, 80208, Note_on_c, 0, 65, 0
2, 80232, Note_on_c, 0, 68, 69
2, 80236, Note_on_c, 0, 63, 42
2, 80252, Note_on_c, 0, 56, 35
2, 80252, Note_on_c, 0, 60, 37
2, 80268, Note_on_c, 0, 68, 0
2, 80296, Note_on_c, 0, 70, 59
2, 80312, Note_on_c, 0, 70, 0
2, 80356, Note_on_c, 0, 72, 49
2, 80360, Note_on_c, 0, 71, 41
2, 80376, Note_on_c, 0, 71, 0
2, 80388, Note_on_c, 0, 72, 0
2, 80404, Note_on_c, 0, 73, 63
2, 80432, Note_on_c, 0, 73, 0
2, 80472, Note_on_c, 0, 75, 48
2, 80484, Note_on_c, 0, 75, 0
2, 80524, Note_on_c, 0, 77, 70
2, 80552, Note_on_c, 0, 60, 0
2, 80556, Note_on_c, 0, 63, 0
2, 80560, Note_on_c, 0, 77, 0
2, 80564, Note_on_c, 0, 56, 0
2, 80572, Note_on_c, 0, 53, 0
2, 80584, Note_on_c, 0, 80, 65
2, 80620, Note_on_c, 0, 80, 0
2, 80640, Note_on_c, 0, 84, 69
2, 80684, Note_on_c, 0, 84, 0
2, 80708, Note_on_c, 0, 85, 69
2, 80732, Note_on_c, 0, 86, 36
2, 80744, Note_on_c, 0, 85, 0
2, 80748, Note_on_c, 0, 86, 0
2, 80768, Note_on_c, 0, 87, 79
2, 80808, Note_on_c, 0, 87, 0
2, 80944, Control_c, 0, 64, 127
2, 81000, Note_on_c, 0, 56, 54
2, 81004, Note_on_c, 0, 48, 57
2, 81108, Note_on_c, 0, 48, 0
2, 81136, Note_on_c, 0, 56, 0
2, 81304, Note_on_c, 0, 72, 78
2, 81304, Note_on_c, 0, 77, 70
2, 81304, Note_on_c, 0, 84, 52
2, 81308, Note_on_c, 0, 80, 54
2, 81308, Note_on_c, 0, 56, 54
2, 81316, Note_on_c, 0, 83, 39
2, 81324, Note_on_c, 0, 56, 0
2, 81328, Note_on_c, 0, 84, 0
2, 81328, Note_on_c, 0, 72, 0
2, 81332, Note_on_c, 0, 83, 0
2, 81344, Note_on_c, 0, 77, 0
2, 81344, Control_c, 0, 64, 0
2, 81348, Note_on_c, 0, 80, 0
2, 81364, Note_on_c, 0, 56, 68
2, 81364, Note_on_c, 0, 65, 75
2, 81368, Note_on_c, 0, 60, 66
2, 81368, Note_on_c, 0, 61, 66
2, 81368, Note_on_c, 0, 77, 85
2, 81368, Note_on_c, 0, 73, 79
2, 81368, Note_on_c, 0, 85, 85
2, 81372, Note_on_c, 0, 80, 63
2, 81388, Note_on_c, 0, 80, 0
2, 81400, Note_on_c, 0, 80, 28
2, 81408, Control_c, 0, 64, 127
2, 81428, Note_on_c, 0, 77, 0
2, 81448, Note_on_c, 0, 73, 0
2, 81452, Note_on_c, 0, 80, 0
2, 81456, Note_on_c, 0, 85, 0
2, 81460, Note_on_c, 0, 56, 0
2, 81460, Note_on_c, 0, 65, 0
2, 81464, Note_on_c, 0, 60, 0
2, 81472, Note_on_c, 0, 61, 0
2, 81488, Note_on_c, 0, 87, 89
2, 81488, Note_on_c, 0, 65, 72
2, 81492, Note_on_c, 0, 56, 63
2, 81492, Note_on_c, 0, 75, 88
2, 81492, Note_on_c, 0, 60, 71
2, 81492, Note_on_c, 0, 61, 77
2, 81536, Note_on_c, 0, 87, 0
2, 81540, Note_on_c, 0, 75, 0
2, 81544, Note_on_c, 0, 56, 0
2, 81548, Note_on_c, 0, 65, 0
2, 81552, Note_on_c, 0, 60, 0
2, 81552, Control_c, 0, 64, 0
2, 81560, Note_on_c, 0, 61, 0
2, 81572, Note_on_c, 0, 85, 66
2, 81572, Note_on_c, 0, 73, 65
2, 81572, Note_on_c, 0, 56, 50
2, 81576, Note_on_c, 0, 65, 66
2, 81576, Control_c, 0, 64, 127
2, 81576, Note_on_c, 0, 61, 46
2, 81580, Note_on_c, 0, 80, 59
2, 81580, Note_on_c, 0, 60, 45
2, 81616, Note_on_c, 0, 73, 0
2, 81624, Note_on_c, 0, 85, 0
2, 81632, Note_on_c, 0, 65, 0
2, 81632, Note_on_c, 0, 56, 0
2, 81636, Note_on_c, 0, 80, 0
2, 81640, Note_on_c, 0, 60, 0
2, 81644, Note_on_c, 0, 61, 0
2, 81664, Note_on_c, 0, 87, 81
2, 81668, Note_on_c, 0, 65, 56
2, 81672, Note_on_c, 0, 75, 75
2, 81672, Note_on_c, 0, 61, 64
2, 81672, Note_on_c, 0, 56, 49
2, 81676, Note_on_c, 0, 60, 53
2, 81708, Note_on_c, 0, 87, 0
2, 81712, Note_on_c, 0, 75, 0
2, 81716, Note_on_c, 0, 65, 0
2, 81716, Note_on_c, 0, 56, 0
2, 81716, Control_c, 0, 64, 0
2, 81724, Note_on_c, 0, 60, 0
2, 81728, Note_on_c, 0, 61, 0
2, 81740, Note_on_c, 0, 85, 49
2, 81748, Note_on_c, 0, 65, 58
2, 81748, Note_on_c, 0, 80, 50
2, 81748, Note_on_c, 0, 73, 52
2, 81748, Note_on_c, 0, 56, 53
2, 81752, Control_c, 0, 64, 127
2, 81752, Note_on_c, 0, 61, 56
2, 81756, Note_on_c, 0, 60, 43
2, 81840, Note_on_c, 0, 65, 0
2, 81848, Note_on_c, 0, 56, 0
2, 81848, Note_on_c, 0, 73, 0
2, 81852, Note_on_c, 0, 80, 0
2, 81852, Note_on_c, 0, 85, 0
2, 81852, Note_on_c, 0, 60, 0
2, 81856, Note_on_c, 0, 61, 0
2, 81908, Note_on_c, 0, 84, 65
2, 81908, Note_on_c, 0, 65, 54
2, 81912, Note_on_c, 0, 61, 57
2, 81912, Note_on_c, 0, 56, 48
2, 81912, Note_on_c, 0, 72, 58
2, 81920, Note_on_c, 0, 60, 44
2, 82012, Note_on_c, 0, 60, 0
2, 82012, Note_on_c, 0, 56, 0
2, 82024, Note_on_c, 0, 65, 0
2, 82024, Note_on_c, 0, 72, 0
2, 82040, Note_on_c, 0, 84, 0
2, 82052, Note_on_c, 0, 61, 0
2, 82088, Control_c, 0, 64, 0
2, 82104, Note_on_c, 0, 61, 54
2, 82104, Note_on_c, 0, 65, 52
2, 82104, Note_on_c, 0, 56, 49
2, 82112, Note_on_c, 0, 84, 53
2, 82116, Note_on_c, 0, 72, 56
2, 82140, Control_c, 0, 64, 127
2, 82180, Note_on_c, 0, 84, 0
2, 82204, Note_on_c, 0, 65, 0
2, 82208, Note_on_c, 0, 72, 0
2, 82212, Note_on_c, 0, 56, 0
2, 82236, Note_on_c, 0, 61, 0
2, 82292, Note_on_c, 0, 65, 50
2, 82292, Note_on_c, 0, 82, 60
2, 82296, Note_on_c, 0, 61, 48
2, 82296, Note_on_c, 0, 56, 41
2, 82300, Note_on_c, 0, 70, 54
2, 82340, Note_on_c, 0, 65, 0
2, 82360, Note_on_c, 0, 82, 0
2, 82360, Note_on_c, 0, 70, 0
2, 82400, Note_on_c, 0, 56, 0
2, 82424, Note_on_c, 0, 61, 0
2, 82476, Control_c, 0, 64, 0
2, 82484, Note_on_c, 0, 77, 54
2, 82488, Note_on_c, 0, 61, 48
2, 82488, Note_on_c, 0, 65, 49
2, 82488, Note_on_c, 0, 56, 43
2, 82492, Note_on_c, 0, 72, 48
2, 82512, Control_c, 0, 64, 127
2, 82564, Note_on_c, 0, 77, 0
2, 82576, Note_on_c, 0, 65, 0
2, 82608, Note_on_c, 0, 56, 0
2, 82612, Note_on_c, 0, 72, 0
2, 82620, Note_on_c, 0, 61, 0
2, 82688, Note_on_c, 0, 56, 48
2, 82700, Note_on_c, 0, 61, 36
2, 82720, Note_on_c, 0, 61, 0
2, 82748, Note_on_c, 0, 56, 0
2, 82800, Note_on_c, 0, 67, 48
2, 82804, Note_on_c, 0, 79, 37
2, 82820, Note_on_c, 0, 67, 0
2, 82824, Note_on_c, 0, 79, 0
2, 82884, Note_on_c, 0, 55, 39
2, 82884, Control_c, 0, 64, 0
2, 82884, Note_on_c, 0, 61, 41
2, 82888, Note_on_c, 0, 58, 36
2, 82888, Note_on_c, 0, 65, 38
2, 82896, Note_on_c, 0, 82, 42
2, 82908, Note_on_c, 0, 80, 31
2, 82912, Note_on_c, 0, 82, 0
2, 82944, Control_c, 0, 64, 127
2, 82964, Note_on_c, 0, 80, 0
2, 82992, Note_on_c, 0, 65, 0
2, 83004, Note_on_c, 0, 61, 0
2, 83028, Note_on_c, 0, 58, 0
2, 83080, Note_on_c, 0, 61, 46
2, 83080, Note_on_c, 0, 82, 61
2, 83084, Note_on_c, 0, 58, 42
2, 83088, Note_on_c, 0, 70, 41
2, 83088, Note_on_c, 0, 65, 35
2, 83172, Note_on_c, 0, 65, 0
2, 83180, Note_on_c, 0, 61, 0
2, 83188, Note_on_c, 0, 58, 0
2, 83200, Note_on_c, 0, 70, 0
2, 83208, Note_on_c, 0, 82, 0
2, 83272, Note_on_c, 0, 61, 42
2, 83280, Note_on_c, 0, 65, 37
2, 83280, Note_on_c, 0, 82, 54
2, 83284, Note_on_c, 0, 58, 36
2, 83288, Note_on_c, 0, 70, 45
2, 83328, Note_on_c, 0, 65, 0
2, 83336, Note_on_c, 0, 70, 0
2, 83344, Note_on_c, 0, 82, 0
2, 83372, Note_on_c, 0, 55, 0
2, 83376, Note_on_c, 0, 58, 0
2, 83392, Note_on_c, 0, 61, 0
2, 83472, Note_on_c, 0, 61, 70
2, 83472, Note_on_c, 0, 84, 92
2, 83476, Note_on_c, 0, 55, 72
2, 83476, Note_on_c, 0, 72, 88
2, 83476, Note_on_c, 0, 58, 60
2, 83476, Note_on_c, 0, 65, 71
2, 83488, Note_on_c, 0, 74, 43
2, 83500, Note_on_c, 0, 74, 0
2, 83592, Note_on_c, 0, 65, 0
2, 83600, Note_on_c, 0, 55, 0
2, 83604, Note_on_c, 0, 58, 0
2, 83608, Note_on_c, 0, 72, 0
2, 83608, Note_on_c, 0, 61, 0
2, 83616, Note_on_c, 0, 84, 0
2, 83664, Note_on_c, 0, 55, 62
2, 83664, Note_on_c, 0, 61, 60
2, 83664, Note_on_c, 0, 84, 63
2, 83664, Note_on_c, 0, 65, 66
2, 83664, Note_on_c, 0, 58, 58
2, 83664, Note_on_c, 0, 72, 68
2, 83788, Note_on_c, 0, 65, 0
2, 83792, Note_on_c, 0, 58, 0
2, 83796, Note_on_c, 0, 61, 0
2, 83828, Note_on_c, 0, 55, 0
2, 83868, Note_on_c, 0, 55, 42
2, 83872, Note_on_c, 0, 61, 48
2, 83872, Note_on_c, 0, 65, 43
2, 83876, Note_on_c, 0, 58, 48
2, 83964, Note_on_c, 0, 65, 0
2, 83976, Note_on_c, 0, 58, 0
2, 83984, Note_on_c, 0, 61, 0
2, 83996, Note_on_c, 0, 55, 0
2, 84048, Note_on_c, 0, 72, 0
2, 84068, Note_on_c, 0, 61, 48
2, 84072, Note_on_c, 0, 65, 41
2, 84072, Note_on_c, 0, 55, 39
2, 84072, Note_on_c, 0, 58, 45
2, 84112, Note_on_c, 0, 84, 0
2, 84236, Note_on_c, 0, 65, 0
2, 84268, Note_on_c, 0, 61, 0
2, 84272, Note_on_c, 0, 90, 75
2, 84280, Note_on_c, 0, 55, 0
2, 84284, Note_on_c, 0, 58, 0
2, 84316, Note_on_c, 0, 90, 0
2, 84336, Note_on_c, 0, 91, 74
2, 84368, Note_on_c, 0, 91, 0
2, 84416, Control_c, 0, 64, 0
2, 84472, Note_on_c, 0, 87, 65
2, 84480, Note_on_c, 0, 58, 37
2, 84492, Note_on_c, 0, 52, 36
2, 84492, Note_on_c, 0, 62, 22
2, 84512, Note_on_c, 0, 87, 0
2, 84528, Note_on_c, 0, 88, 63
2, 84560, Note_on_c, 0, 88, 0
2, 84680, Note_on_c, 0, 83, 60
2, 84724, Note_on_c, 0, 83, 0
2, 84744, Note_on_c, 0, 84, 50
2, 84776, Note_on_c, 0, 84, 0
2, 84828, Note_on_c, 0, 62, 0
2, 84864, Note_on_c, 0, 80, 52
2, 84928, Control_c, 0, 64, 127
2, 84972, Note_on_c, 0, 58, 0
2, 85012, Note_on_c, 0, 80, 0
2, 85024, Note_on_c, 0, 76, 55
2, 85044, Note_on_c, 0, 76, 0
2, 85188, Note_on_c, 0, 70, 48
2, 85196, Note_on_c, 0, 58, 39
2, 85200, Note_on_c, 0, 62, 24
2, 85228, Note_on_c, 0, 62, 0
2, 85272, Note_on_c, 0, 58, 0
2, 85276, Note_on_c, 0, 70, 0
2, 85392, Note_on_c, 0, 64, 45
2, 85396, Note_on_c, 0, 68, 47
2, 85396, Note_on_c, 0, 58, 42
2, 85452, Note_on_c, 0, 52, 0
2, 85520, Note_on_c, 0, 64, 0
2, 85544, Note_on_c, 0, 58, 0
2, 85548, Note_on_c, 0, 68, 0
2, 85592, Note_on_c, 0, 58, 45
2, 85600, Note_on_c, 0, 64, 44
2, 85600, Note_on_c, 0, 68, 36
2, 85636, Note_on_c, 0, 58, 0
2, 85640, Note_on_c, 0, 68, 0
2, 85640, Note_on_c, 0, 64, 0
2, 85912, Note_on_c, 0, 63, 89
2, 85916, Note_on_c, 0, 56, 84
2, 85916, Note_on_c, 0, 68, 84
2, 85920, Note_on_c, 0, 60, 79
2, 85932, Note_on_c, 0, 60, 0
2, 85932, Note_on_c, 0, 66, 31
2, 85976, Control_c, 0, 64, 0
2, 85980, Note_on_c, 0, 68, 0
2, 85980, Note_on_c, 0, 63, 0
2, 85992, Note_on_c, 0, 66, 0
2, 86008, Note_on_c, 0, 69, 72
2, 86008, Note_on_c, 0, 62, 71
2, 86012, Note_on_c, 0, 65, 54
2, 86012, Note_on_c, 0, 57, 75
2, 86012, Note_on_c, 0, 60, 65
2, 86024, Control_c, 0, 64, 104
2, 86028, Note_on_c, 0, 56, 0
2, 86028, Control_c, 0, 64, 127
2, 86052, Note_on_c, 0, 60, 0
2, 86060, Note_on_c, 0, 65, 0
2, 86060, Note_on_c, 0, 62, 0
2, 86068, Note_on_c, 0, 69, 0
2, 86132, Note_on_c, 0, 57, 0
2, 86184, Control_c, 0, 64, 0
2, 86192, Note_on_c, 0, 74, 96
2, 86192, Note_on_c, 0, 69, 94
2, 86196, Note_on_c, 0, 58, 85
2, 86196, Note_on_c, 0, 64, 88
2, 86240, Control_c, 0, 64, 127
2, 86296, Note_on_c, 0, 69, 0
2, 86304, Note_on_c, 0, 74, 0
2, 86320, Note_on_c, 0, 64, 0
2, 86368, Control_c, 0, 64, 88
2, 86372, Control_c, 0, 64, 0
2, 86384, Note_on_c, 0, 58, 0
2, 86384, Note_on_c, 0, 72, 72
2, 86384, Note_on_c, 0, 57, 69
2, 86388, Note_on_c, 0, 67, 69
2, 86392, Note_on_c, 0, 60, 50
2, 86392, Note_on_c, 0, 62, 54
2, 86424, Control_c, 0, 64, 127
2, 86448, Note_on_c, 0, 60, 0
2, 86472, Note_on_c, 0, 57, 0
2, 86496, Note_on_c, 0, 67, 0
2, 86524, Note_on_c, 0, 72, 0
2, 86556, Control_c, 0, 64, 0
2, 86560, Note_on_c, 0, 62, 0
2, 86572, Note_on_c, 0, 41, 66
2, 86584, Control_c, 0, 64, 127
2, 86624, Note_on_c, 0, 41, 0
2, 86748, Control_c, 0, 64, 0
2, 86764, Note_on_c, 0, 42, 59
2, 86768, Note_on_c, 0, 54, 56
2, 86772, Note_on_c, 0, 63, 50
2, 86772, Note_on_c, 0, 51, 42
2, 86772, Note_on_c, 0, 57, 56
2, 86776, Note_on_c, 0, 60, 51
2, 86808, Control_c, 0, 64, 127
2, 86932, Note_on_c, 0, 54, 0
2, 86936, Note_on_c, 0, 57, 0
2, 86944, Note_on_c, 0, 60, 0
2, 86972, Note_on_c, 0, 42, 0
2, 86984, Note_on_c, 0, 51, 0
2, 86996, Note_on_c, 0, 63, 0
2, 87160, Note_on_c, 0, 66, 49
2, 87168, Note_on_c, 0, 57, 43
2, 87168, Note_on_c, 0, 60, 49
2, 87172, Note_on_c, 0, 54, 43
2, 87172, Note_on_c, 0, 63, 46
2, 87288, Note_on_c, 0, 54, 0
2, 87312, Note_on_c, 0, 66, 0
2, 87316, Note_on_c, 0, 60, 0
2, 87324, Note_on_c, 0, 63, 0
2, 87360, Note_on_c, 0, 57, 0
2, 87512, Control_c, 0, 64, 0
2, 87532, Note_on_c, 0, 62, 56
2, 87532, Note_on_c, 0, 53, 55
2, 87532, Note_on_c, 0, 50, 49
2, 87532, Note_on_c, 0, 58, 52
2, 87536, Note_on_c, 0, 43, 46
2, 87536, Note_on_c, 0, 55, 52
2, 87568, Control_c, 0, 64, 127
2, 87604, Note_on_c, 0, 43, 0
2, 87608, Note_on_c, 0, 53, 0
2, 87608, Note_on_c, 0, 55, 0
2, 87620, Note_on_c, 0, 62, 0
2, 87620, Note_on_c, 0, 58, 0
2, 87636, Note_on_c, 0, 50, 0
2, 87740, Note_on_c, 0, 67, 80
2, 87740, Note_on_c, 0, 55, 83
2, 87744, Control_c, 0, 64, 0
2, 87744, Note_on_c, 0, 62, 82
2, 87748, Note_on_c, 0, 58, 81
2, 87756, Note_on_c, 0, 65, 45
2, 87764, Control_c, 0, 64, 127
2, 87800, Note_on_c, 0, 58, 0
2, 87804, Note_on_c, 0, 65, 0
2, 87808, Note_on_c, 0, 62, 0
2, 87812, Note_on_c, 0, 67, 0
2, 87904, Note_on_c, 0, 55, 0
2, 87908, Control_c, 0, 64, 0
2, 87920, Note_on_c, 0, 70, 84
2, 87920, Note_on_c, 0, 65, 80
2, 87920, Note_on_c, 0, 62, 81
2, 87924, Note_on_c, 0, 58, 76
2, 87940, Note_on_c, 0, 67, 31
2, 87944, Note_on_c, 0, 68, 36
2, 87948, Control_c, 0, 64, 127
2, 87960, Note_on_c, 0, 67, 0
2, 87960, Note_on_c, 0, 62, 0
2, 87964, Note_on_c, 0, 68, 0
2, 87968, Note_on_c, 0, 65, 0
2, 87976, Note_on_c, 0, 70, 0
2, 88072, Control_c, 0, 64, 0
2, 88092, Note_on_c, 0, 62, 79
2, 88092, Note_on_c, 0, 74, 82
2, 88096, Note_on_c, 0, 67, 80
2, 88096, Note_on_c, 0, 70, 75
2, 88096, Note_on_c, 0, 65, 80
2, 88104, Note_on_c, 0, 58, 0
2, 88112, Control_c, 0, 64, 127
2, 88156, Note_on_c, 0, 67, 0
2, 88156, Note_on_c, 0, 74, 0
2, 88160, Note_on_c, 0, 65, 0
2, 88168, Note_on_c, 0, 70, 0
2, 88208, Note_on_c, 0, 60, 54
2, 88228, Note_on_c, 0, 63, 61
2, 88252, Control_c, 0, 64, 0
2, 88256, Note_on_c, 0, 60, 0
2, 88260, Note_on_c, 0, 64, 72
2, 88272, Note_on_c, 0, 62, 0
2, 88272, Note_on_c, 0, 77, 79
2, 88272, Note_on_c, 0, 71, 80
2, 88276, Note_on_c, 0, 68, 79
2, 88276, Note_on_c, 0, 74, 68
2, 88280, Note_on_c, 0, 65, 75
2, 88288, Note_on_c, 0, 63, 0
2, 88304, Note_on_c, 0, 64, 0
2, 88320, Control_c, 0, 64, 127
2, 88360, Note_on_c, 0, 71, 0
2, 88360, Note_on_c, 0, 68, 0
2, 88360, Note_on_c, 0, 74, 0
2, 88364, Note_on_c, 0, 77, 0
2, 88376, Note_on_c, 0, 63, 47
2, 88416, Note_on_c, 0, 66, 56
2, 88440, Control_c, 0, 64, 0
2, 88444, Note_on_c, 0, 63, 0
2, 88444, Note_on_c, 0, 67, 68
2, 88448, Note_on_c, 0, 65, 0
2, 88464, Note_on_c, 0, 71, 60
2, 88468, Note_on_c, 0, 74, 70
2, 88472, Note_on_c, 0, 80, 63
2, 88472, Note_on_c, 0, 77, 66
2, 88476, Note_on_c, 0, 68, 68
2, 88484, Note_on_c, 0, 67, 0
2, 88500, Note_on_c, 0, 66, 0
2, 88508, Control_c, 0, 64, 127
2, 88524, Note_on_c, 0, 71, 0
2, 88536, Note_on_c, 0, 74, 0
2, 88536, Note_on_c, 0, 77, 0
2, 88548, Note_on_c, 0, 80, 0
2, 88552, Note_on_c, 0, 68, 0
2, 88616, Note_on_c, 0, 68, 48
2, 88636, Note_on_c, 0, 67, 21
2, 88636, Control_c, 0, 64, 0
2, 88644, Note_on_c, 0, 69, 56
2, 88656, Note_on_c, 0, 67, 0
2, 88660, Note_on_c, 0, 74, 50
2, 88664, Note_on_c, 0, 83, 51
2, 88664, Note_on_c, 0, 77, 58
2, 88668, Note_on_c, 0, 80, 55
2, 88672, Note_on_c, 0, 69, 0
2, 88672, Note_on_c, 0, 71, 49
2, 88684, Note_on_c, 0, 68, 0
2, 88692, Control_c, 0, 64, 127
2, 88712, Note_on_c, 0, 74, 0
2, 88724, Note_on_c, 0, 77, 0
2, 88728, Note_on_c, 0, 83, 0
2, 88728, Note_on_c, 0, 80, 0
2, 88752, Note_on_c, 0, 71, 0
2, 88772, Note_on_c, 0, 68, 24
2, 88788, Note_on_c, 0, 70, 36
2, 88800, Note_on_c, 0, 68, 0
2, 88812, Note_on_c, 0, 70, 0
2, 88824, Note_on_c, 0, 72, 47
2, 88836, Note_on_c, 0, 74, 58
2, 88836, Control_c, 0, 64, 0
2, 88840, Note_on_c, 0, 77, 43
2, 88840, Note_on_c, 0, 80, 62
2, 88848, Note_on_c, 0, 83, 63
2, 88852, Note_on_c, 0, 86, 64
2, 88864, Note_on_c, 0, 72, 0
2, 88880, Control_c, 0, 64, 127
2, 88900, Note_on_c, 0, 74, 0
2, 88916, Note_on_c, 0, 83, 0
2, 88924, Note_on_c, 0, 86, 0
2, 88940, Note_on_c, 0, 80, 0
2, 88940, Note_on_c, 0, 77, 0
2, 89008, Note_on_c, 0, 66, 39
2, 89028, Note_on_c, 0, 74, 58
2, 89036, Note_on_c, 0, 68, 46
2, 89040, Control_c, 0, 64, 88
2, 89040, Control_c, 0, 64, 0
2, 89044, Note_on_c, 0, 77, 57
2, 89048, Note_on_c, 0, 66, 0
2, 89048, Note_on_c, 0, 80, 62
2, 89056, Note_on_c, 0, 71, 43
2, 89068, Note_on_c, 0, 68, 0
2, 89076, Note_on_c, 0, 83, 57
2, 89092, Control_c, 0, 64, 127
2, 89116, Note_on_c, 0, 74, 0
2, 89128, Note_on_c, 0, 77, 0
2, 89132, Note_on_c, 0, 80, 0
2, 89140, Note_on_c, 0, 83, 0
2, 89176, Note_on_c, 0, 71, 0
2, 89220, Note_on_c, 0, 69, 38
2, 89228, Note_on_c, 0, 77, 57
2, 89232, Control_c, 0, 64, 0
2, 89236, Note_on_c, 0, 80, 49
2, 89248, Note_on_c, 0, 71, 50
2, 89248, Note_on_c, 0, 83, 58
2, 89256, Note_on_c, 0, 69, 0
2, 89256, Note_on_c, 0, 86, 61
2, 89284, Control_c, 0, 64, 127
2, 89288, Note_on_c, 0, 83, 0
2, 89324, Note_on_c, 0, 86, 0
2, 89332, Note_on_c, 0, 77, 0
2, 89332, Note_on_c, 0, 71, 0
2, 89376, Note_on_c, 0, 80, 0
2, 89388, Note_on_c, 0, 66, 47
2, 89412, Note_on_c, 0, 75, 54
2, 89412, Note_on_c, 0, 68, 37
2, 89412, Control_c, 0, 64, 88
2, 89412, Control_c, 0, 64, 0
2, 89432, Note_on_c, 0, 79, 62
2, 89440, Note_on_c, 0, 68, 0
2, 89440, Note_on_c, 0, 66, 0
2, 89440, Note_on_c, 0, 69, 43
2, 89440, Note_on_c, 0, 82, 60
2, 89452, Note_on_c, 0, 84, 42
2, 89468, Control_c, 0, 64, 127
2, 89492, Note_on_c, 0, 84, 0
2, 89496, Note_on_c, 0, 79, 0
2, 89508, Note_on_c, 0, 69, 0
2, 89512, Note_on_c, 0, 82, 0
2, 89520, Note_on_c, 0, 75, 0
2, 89596, Control_c, 0, 64, 0
2, 89604, Note_on_c, 0, 64, 36
2, 89608, Note_on_c, 0, 82, 62
2, 89620, Note_on_c, 0, 79, 59
2, 89620, Note_on_c, 0, 75, 54
2, 89624, Note_on_c, 0, 64, 0
2, 89624, Note_on_c, 0, 65, 48
2, 89628, Note_on_c, 0, 70, 39
2, 89636, Control_c, 0, 64, 127
2, 89672, Note_on_c, 0, 65, 0
2, 89680, Note_on_c, 0, 79, 0
2, 89700, Note_on_c, 0, 82, 0
2, 89712, Note_on_c, 0, 70, 0
2, 89724, Note_on_c, 0, 75, 0
2, 89804, Note_on_c, 0, 81, 49
2, 89816, Note_on_c, 0, 78, 56
2, 89816, Control_c, 0, 64, 0
2, 89824, Note_on_c, 0, 53, 43
2, 89824, Note_on_c, 0, 74, 63
2, 89832, Note_on_c, 0, 63, 39
2, 89844, Note_on_c, 0, 69, 27
2, 89884, Control_c, 0, 64, 127
2, 89932, Note_on_c, 0, 81, 0
2, 89944, Note_on_c, 0, 78, 0
2, 89968, Note_on_c, 0, 74, 0
2, 89984, Note_on_c, 0, 69, 0
2, 90024, Note_on_c, 0, 74, 49
2, 90024, Note_on_c, 0, 79, 47
2, 90024, Note_on_c, 0, 60, 44
2, 90028, Note_on_c, 0, 69, 28
2, 90056, Note_on_c, 0, 63, 0
2, 90080, Note_on_c, 0, 74, 0
2, 90088, Note_on_c, 0, 53, 0
2, 90092, Note_on_c, 0, 79, 0
2, 90096, Note_on_c, 0, 69, 0
2, 90212, Note_on_c, 0, 60, 0
2, 90212, Control_c, 0, 64, 0
2, 90220, Note_on_c, 0, 69, 41
2, 90220, Note_on_c, 0, 77, 48
2, 90220, Note_on_c, 0, 74, 54
2, 90224, Note_on_c, 0, 63, 39
2, 90228, Note_on_c, 0, 53, 41
2, 90260, Control_c, 0, 64, 127
2, 90364, Note_on_c, 0, 69, 0
2, 90384, Note_on_c, 0, 63, 0
2, 90384, Note_on_c, 0, 74, 0
2, 90392, Note_on_c, 0, 53, 0
2, 90404, Note_on_c, 0, 60, 43
2, 90404, Note_on_c, 0, 73, 57
2, 90408, Note_on_c, 0, 69, 44
2, 90448, Note_on_c, 0, 60, 0
2, 90516, Note_on_c, 0, 69, 0
2, 90560, Note_on_c, 0, 73, 0
2, 90572, Control_c, 0, 64, 0
2, 90596, Note_on_c, 0, 69, 31
2, 90596, Note_on_c, 0, 72, 39
2, 90596, Note_on_c, 0, 62, 37
2, 90600, Note_on_c, 0, 65, 36
2, 90604, Note_on_c, 0, 60, 37
2, 90604, Note_on_c, 0, 55, 36
2, 90632, Control_c, 0, 64, 127
2, 90692, Note_on_c, 0, 69, 0
2, 90744, Note_on_c, 0, 72, 0
2, 90752, Note_on_c, 0, 77, 0
2, 90848, Note_on_c, 0, 65, 0
2, 90872, Note_on_c, 0, 60, 0
2, 90876, Note_on_c, 0, 62, 0
2, 91020, Note_on_c, 0, 65, 43
2, 91024, Note_on_c, 0, 62, 39
2, 91032, Note_on_c, 0, 60, 37
2, 91044, Note_on_c, 0, 65, 0
2, 91048, Note_on_c, 0, 62, 0
2, 91052, Note_on_c, 0, 60, 0
2, 91052, Control_c, 0, 64, 0
2, 91064, Note_on_c, 0, 55, 0
2, 91088, Note_on_c, 0, 74, 57
2, 91104, Note_on_c, 0, 74, 0
2, 91164, Note_on_c, 0, 77, 67
2, 91196, Note_on_c, 0, 77, 0
2, 91248, Note_on_c, 0, 81, 73
2, 91276, Note_on_c, 0, 81, 0
2, 91320, Note_on_c, 0, 82, 66
2, 91352, Note_on_c, 0, 82, 0
2, 91384, Note_on_c, 0, 83, 65
2, 91412, Note_on_c, 0, 65, 27
2, 91412, Note_on_c, 0, 61, 39
2, 91416, Note_on_c, 0, 55, 36
2, 91416, Note_on_c, 0, 60, 35
2, 91420, Note_on_c, 0, 83, 0
2, 91456, Note_on_c, 0, 84, 67
2, 91460, Note_on_c, 0, 65, 0
2, 91464, Note_on_c, 0, 55, 0
2, 91472, Note_on_c, 0, 60, 0
2, 91472, Note_on_c, 0, 61, 0
2, 91492, Note_on_c, 0, 84, 0
2, 91544, Note_on_c, 0, 84, 55
2, 91576, Note_on_c, 0, 84, 0
2, 91624, Note_on_c, 0, 84, 50
2, 91656, Note_on_c, 0, 84, 0
2, 91704, Note_on_c, 0, 84, 48
2, 91736, Note_on_c, 0, 84, 0
2, 91780, Note_on_c, 0, 65, 30
2, 91780, Note_on_c, 0, 61, 32
2, 91784, Note_on_c, 0, 84, 45
2, 91788, Note_on_c, 0, 55, 28
2, 91792, Note_on_c, 0, 60, 36
2, 91812, Note_on_c, 0, 84, 0
2, 91888, Note_on_c, 0, 84, 40
2, 91904, Note_on_c, 0, 84, 0
2, 91996, Note_on_c, 0, 65, 0
2, 92000, Note_on_c, 0, 60, 0
2, 92016, Note_on_c, 0, 61, 0
2, 92040, Note_on_c, 0, 55, 0
2, 92116, Note_on_c, 0, 60, 39
2, 92116, Note_on_c, 0, 57, 30
2, 92124, Note_on_c, 0, 65, 20
2, 92180, Note_on_c, 0, 82, 61
2, 92204, Note_on_c, 0, 82, 0
2, 92212, Note_on_c, 0, 84, 56
2, 92236, Note_on_c, 0, 84, 0
2, 92240, Note_on_c, 0, 82, 48
2, 92280, Note_on_c, 0, 82, 0
2, 92284, Note_on_c, 0, 81, 47
2, 92320, Note_on_c, 0, 81, 0
2, 92348, Note_on_c, 0, 65, 0
2, 92396, Note_on_c, 0, 60, 0
2, 92500, Note_on_c, 0, 65, 34
2, 92504, Note_on_c, 0, 60, 41
2, 92532, Note_on_c, 0, 65, 0
2, 92552, Note_on_c, 0, 60, 0
2, 92580, Note_on_c, 0, 57, 0
2, 92600, Note_on_c, 0, 84, 39
2, 92624, Note_on_c, 0, 84, 0
2, 92632, Note_on_c, 0, 88, 68
2, 92656, Note_on_c, 0, 88, 0
2, 92672, Note_on_c, 0, 91, 82
2, 92704, Note_on_c, 0, 91, 0
2, 92764, Note_on_c, 0, 89, 71
2, 92792, Note_on_c, 0, 89, 0
2, 92876, Note_on_c, 0, 81, 57
2, 92888, Note_on_c, 0, 60, 30
2, 92892, Note_on_c, 0, 57, 39
2, 92892, Note_on_c, 0, 53, 39
2, 92896, Note_on_c, 0, 50, 31
2, 92904, Note_on_c, 0, 81, 0
2, 92912, Note_on_c, 0, 53, 0
2, 92920, Note_on_c, 0, 60, 0
2, 92920, Note_on_c, 0, 57, 0
2, 92928, Note_on_c, 0, 50, 0
2, 93004, Note_on_c, 0, 81, 57
2, 93008, Note_on_c, 0, 60, 31
2, 93012, Note_on_c, 0, 50, 35
2, 93012, Note_on_c, 0, 53, 44
2, 93012, Note_on_c, 0, 57, 41
2, 93040, Note_on_c, 0, 81, 0
2, 93044, Note_on_c, 0, 60, 0
2, 93052, Note_on_c, 0, 57, 0
2, 93060, Note_on_c, 0, 50, 0
2, 93060, Note_on_c, 0, 53, 0
2, 93156, Note_on_c, 0, 81, 66
2, 93160, Note_on_c, 0, 60, 39
2, 93160, Note_on_c, 0, 53, 48
2, 93160, Note_on_c, 0, 50, 44
2, 93160, Note_on_c, 0, 57, 45
2, 93164, Control_c, 0, 64, 127
2, 93228, Note_on_c, 0, 50, 0
2, 93228, Note_on_c, 0, 60, 0
2, 93228, Note_on_c, 0, 81, 0
2, 93236, Note_on_c, 0, 53, 0
2, 93240, Note_on_c, 0, 57, 0
2, 93268, Note_on_c, 0, 60, 38
2, 93272, Note_on_c, 0, 81, 66
2, 93272, Note_on_c, 0, 50, 39
2, 93276, Note_on_c, 0, 57, 48
2, 93276, Note_on_c, 0, 53, 56
2, 93332, Note_on_c, 0, 60, 0
2, 93336, Note_on_c, 0, 53, 0
2, 93340, Note_on_c, 0, 57, 0
2, 93340, Note_on_c, 0, 50, 0
2, 93352, Note_on_c, 0, 81, 0
2, 93396, Note_on_c, 0, 60, 57
2, 93396, Note_on_c, 0, 88, 92
2, 93400, Note_on_c, 0, 50, 54
2, 93400, Note_on_c, 0, 57, 53
2, 93404, Note_on_c, 0, 53, 57
2, 93456, Note_on_c, 0, 60, 0
2, 93472, Note_on_c, 0, 53, 0
2, 93472, Note_on_c, 0, 50, 0
2, 93476, Note_on_c, 0, 57, 0
2, 93528, Note_on_c, 0, 88, 0
2, 93528, Note_on_c, 0, 50, 52
2, 93528, Note_on_c, 0, 60, 56
2, 93532, Note_on_c, 0, 57, 57
2, 93536, Note_on_c, 0, 53, 53
2, 93552, Note_on_c, 0, 53, 0
2, 93552, Note_on_c, 0, 50, 0
2, 93564, Note_on_c, 0, 57, 0
2, 93568, Note_on_c, 0, 60, 0
2, 93636, Note_on_c, 0, 53, 78
2, 93640, Control_c, 0, 64, 0
2, 93640, Note_on_c, 0, 58, 79
2, 93640, Note_on_c, 0, 55, 70
2, 93640, Note_on_c, 0, 62, 77
2, 93640, Note_on_c, 0, 86, 89
2, 93644, Note_on_c, 0, 82, 69
2, 93644, Note_on_c, 0, 74, 82
2, 93648, Note_on_c, 0, 79, 77
2, 93712, Control_c, 0, 64, 127
2, 93768, Note_on_c, 0, 53, 0
2, 93772, Note_on_c, 0, 62, 0
2, 93772, Note_on_c, 0, 55, 0
2, 93776, Note_on_c, 0, 58, 0
2, 93800, Note_on_c, 0, 58, 69
2, 93800, Note_on_c, 0, 62, 68
2, 93804, Note_on_c, 0, 55, 56
2, 93808, Note_on_c, 0, 53, 51
2, 93880, Note_on_c, 0, 53, 0
2, 93884, Note_on_c, 0, 62, 0
2, 93892, Note_on_c, 0, 58, 0
2, 93892, Note_on_c, 0, 55, 0
2, 93924, Note_on_c, 0, 86, 0
2, 93928, Note_on_c, 0, 74, 0
2, 93928, Note_on_c, 0, 58, 56
2, 93928, Note_on_c, 0, 55, 55
2, 93928, Note_on_c, 0, 53, 66
2, 93928, Note_on_c, 0, 62, 66
2, 93956, Note_on_c, 0, 79, 0
2, 93972, Note_on_c, 0, 82, 0
2, 94012, Note_on_c, 0, 53, 0
2, 94028, Note_on_c, 0, 55, 0
2, 94028, Note_on_c, 0, 62, 0
2, 94036, Note_on_c, 0, 58, 0
2, 94064, Note_on_c, 0, 58, 63
2, 94064, Note_on_c, 0, 62, 64
2, 94064, Note_on_c, 0, 55, 54
2, 94068, Note_on_c, 0, 53, 58
2, 94128, Note_on_c, 0, 53, 0
2, 94144, Note_on_c, 0, 55, 0
2, 94144, Note_on_c, 0, 62, 0
2, 94156, Note_on_c, 0, 58, 0
2, 94188, Note_on_c, 0, 82, 74
2, 94192, Note_on_c, 0, 70, 72
2, 94192, Note_on_c, 0, 58, 56
2, 94192, Note_on_c, 0, 62, 61
2, 94196, Note_on_c, 0, 55, 50
2, 94196, Note_on_c, 0, 53, 55
2, 94244, Note_on_c, 0, 53, 0
2, 94256, Note_on_c, 0, 70, 0
2, 94256, Note_on_c, 0, 82, 0
2, 94256, Note_on_c, 0, 62, 0
2, 94264, Note_on_c, 0, 55, 0
2, 94272, Note_on_c, 0, 58, 0
2, 94304, Note_on_c, 0, 58, 58
2, 94304, Note_on_c, 0, 62, 64
2, 94304, Note_on_c, 0, 74, 64
2, 94304, Note_on_c, 0, 53, 61
2, 94308, Note_on_c, 0, 55, 54
2, 94352, Note_on_c, 0, 62, 0
2, 94356, Note_on_c, 0, 53, 0
2, 94356, Note_on_c, 0, 55, 0
2, 94360, Note_on_c, 0, 74, 0
2, 94396, Note_on_c, 0, 58, 0
2, 94412, Control_c, 0, 64, 0
2, 94432, Note_on_c, 0, 73, 56
2, 94432, Note_on_c, 0, 81, 68
2, 94432, Note_on_c, 0, 58, 52
2, 94436, Note_on_c, 0, 52, 63
2, 94436, Note_on_c, 0, 76, 63
2, 94436, Note_on_c, 0, 62, 58
2, 94436, Note_on_c, 0, 69, 55
2, 94480, Control_c, 0, 64, 127
2, 94528, Note_on_c, 0, 62, 0
2, 94532, Note_on_c, 0, 52, 0
2, 94540, Note_on_c, 0, 58, 0
2, 94548, Note_on_c, 0, 81, 0
2, 94548, Note_on_c, 0, 69, 0
2, 94556, Note_on_c, 0, 73, 0
2, 94564, Note_on_c, 0, 76, 0
2, 94588, Note_on_c, 0, 81, 61
2, 94588, Note_on_c, 0, 73, 52
2, 94588, Note_on_c, 0, 69, 57
2, 94588, Note_on_c, 0, 52, 63
2, 94588, Note_on_c, 0, 58, 67
2, 94588, Note_on_c, 0, 62, 58
2, 94592, Note_on_c, 0, 76, 73
2, 94700, Note_on_c, 0, 52, 0
2, 94704, Note_on_c, 0, 58, 0
2, 94704, Note_on_c, 0, 69, 0
2, 94712, Note_on_c, 0, 62, 0
2, 94744, Note_on_c, 0, 81, 0
2, 94748, Note_on_c, 0, 76, 0
2, 94756, Note_on_c, 0, 73, 0
2, 94984, Note_on_c, 0, 67, 84
2, 94984, Note_on_c, 0, 62, 74
2, 94984, Note_on_c, 0, 76, 90
2, 94984, Note_on_c, 0, 56, 81
2, 94988, Control_c, 0, 64, 0
2, 94992, Note_on_c, 0, 72, 73
2, 94992, Note_on_c, 0, 79, 76
2, 95016, Note_on_c, 0, 76, 0
2, 95048, Control_c, 0, 64, 127
2, 95100, Note_on_c, 0, 72, 0
2, 95116, Note_on_c, 0, 62, 0
2, 95120, Note_on_c, 0, 79, 0
2, 95120, Note_on_c, 0, 67, 0
2, 95148, Note_on_c, 0, 56, 0
2, 95204, Control_c, 0, 64, 0
2, 95224, Note_on_c, 0, 84, 98
2, 95224, Note_on_c, 0, 61, 75
2, 95224, Note_on_c, 0, 65, 87
2, 95224, Note_on_c, 0, 72, 102
2, 95224, Note_on_c, 0, 60, 74
2, 95224, Note_on_c, 0, 77, 92
2, 95224, Note_on_c, 0, 81, 83
2, 95228, Note_on_c, 0, 55, 72
2, 95240, Note_on_c, 0, 58, 38
2, 95264, Control_c, 0, 64, 127
2, 95324, Note_on_c, 0, 55, 0
2, 95328, Note_on_c, 0, 65, 0
2, 95328, Note_on_c, 0, 58, 0
2, 95328, Note_on_c, 0, 72, 0
2, 95332, Note_on_c, 0, 77, 0
2, 95336, Note_on_c, 0, 60, 0
2, 95336, Note_on_c, 0, 84, 0
2, 95336, Note_on_c, 0, 61, 0
2, 95348, Note_on_c, 0, 81, 0
2, 95388, Note_on_c, 0, 84, 73
2, 95388, Note_on_c, 0, 61, 58
2, 95388, Note_on_c, 0, 65, 68
2, 95388, Note_on_c, 0, 55, 66
2, 95388, Note_on_c, 0, 81, 66
2, 95388, Note_on_c, 0, 77, 69
2, 95388, Note_on_c, 0, 60, 54
2, 95388, Note_on_c, 0, 72, 68
2, 95456, Note_on_c, 0, 55, 0
2, 95460, Note_on_c, 0, 65, 0
2, 95460, Note_on_c, 0, 60, 0
2, 95464, Note_on_c, 0, 61, 0
2, 95544, Note_on_c, 0, 65, 61
2, 95548, Note_on_c, 0, 61, 47
2, 95552, Note_on_c, 0, 60, 46
2, 95552, Note_on_c, 0, 55, 45
2, 95596, Note_on_c, 0, 60, 0
2, 95600, Note_on_c, 0, 55, 0
2, 95600, Note_on_c, 0, 65, 0
2, 95612, Note_on_c, 0, 61, 0
2, 95656, Note_on_c, 0, 61, 39
2, 95656, Note_on_c, 0, 65, 49
2, 95660, Note_on_c, 0, 60, 45
2, 95664, Note_on_c, 0, 55, 39
2, 95712, Note_on_c, 0, 55, 0
2, 95716, Note_on_c, 0, 60, 0
2, 95716, Note_on_c, 0, 65, 0
2, 95720, Note_on_c, 0, 61, 0
2, 95780, Note_on_c, 0, 72, 0
2, 95780, Note_on_c, 0, 65, 39
2, 95784, Note_on_c, 0, 61, 45
2, 95788, Note_on_c, 0, 55, 40
2, 95788, Note_on_c, 0, 60, 39
2, 95832, Note_on_c, 0, 77, 0
2, 95840, Note_on_c, 0, 65, 0
2, 95840, Note_on_c, 0, 81, 0
2, 95840, Note_on_c, 0, 55, 0
2, 95844, Note_on_c, 0, 60, 0
2, 95844, Note_on_c, 0, 61, 0
2, 95860, Note_on_c, 0, 84, 0
2, 95924, Note_on_c, 0, 65, 54
2, 95932, Note_on_c, 0, 61, 39
2, 95932, Note_on_c, 0, 60, 43
2, 95936, Note_on_c, 0, 55, 37
2, 95952, Note_on_c, 0, 60, 0
2, 95956, Note_on_c, 0, 55, 0
2, 95956, Note_on_c, 0, 65, 0
2, 95960, Note_on_c, 0, 61, 0
2, 96012, Control_c, 0, 64, 0
2, 96016, Note_on_c, 0, 65, 49
2, 96016, Note_on_c, 0, 89, 72
2, 96020, Note_on_c, 0, 61, 41
2, 96020, Note_on_c, 0, 77, 52
2, 96020, Note_on_c, 0, 55, 46
2, 96028, Note_on_c, 0, 60, 32
2, 96048, Control_c, 0, 64, 127
2, 96068, Note_on_c, 0, 65, 0
2, 96072, Note_on_c, 0, 55, 0
2, 96076, Note_on_c, 0, 60, 0
2, 96080, Note_on_c, 0, 61, 0
2, 96136, Note_on_c, 0, 65, 36
2, 96140, Note_on_c, 0, 55, 38
2, 96140, Note_on_c, 0, 61, 48
2, 96140, Note_on_c, 0, 60, 38
2, 96180, Note_on_c, 0, 65, 0
2, 96184, Note_on_c, 0, 55, 0
2, 96188, Note_on_c, 0, 60, 0
2, 96192, Note_on_c, 0, 61, 0
2, 96304, Note_on_c, 0, 61, 43
2, 96312, Note_on_c, 0, 55, 38
2, 96312, Note_on_c, 0, 60, 33
2, 96332, Note_on_c, 0, 60, 0
2, 96332, Note_on_c, 0, 55, 0
2, 96348, Note_on_c, 0, 61, 0
2, 96392, Note_on_c, 0, 61, 33
2, 96392, Note_on_c, 0, 65, 40
2, 96404, Note_on_c, 0, 55, 35
2, 96404, Note_on_c, 0, 60, 41
2, 96432, Note_on_c, 0, 60, 0
2, 96432, Note_on_c, 0, 55, 0
2, 96436, Note_on_c, 0, 65, 0
2, 96452, Note_on_c, 0, 61, 0
2, 96512, Note_on_c, 0, 61, 41
2, 96516, Note_on_c, 0, 65, 39
2, 96516, Note_on_c, 0, 60, 41
2, 96524, Note_on_c, 0, 55, 36
2, 96552, Note_on_c, 0, 65, 0
2, 96556, Note_on_c, 0, 55, 0
2, 96568, Note_on_c, 0, 61, 0
2, 96568, Note_on_c, 0, 60, 0
2, 96660, Note_on_c, 0, 61, 39
2, 96664, Note_on_c, 0, 55, 33
2, 96668, Note_on_c, 0, 77, 0
2, 96680, Note_on_c, 0, 55, 0
2, 96692, Note_on_c, 0, 61, 0
2, 96736, Control_c, 0, 64, 0
2, 96752, Note_on_c, 0, 65, 46
2, 96752, Note_on_c, 0, 54, 48
2, 96756, Note_on_c, 0, 77, 40
2, 96756, Note_on_c, 0, 82, 37
2, 96756, Note_on_c, 0, 60, 41
2, 96804, Control_c, 0, 64, 127
2, 96824, Note_on_c, 0, 65, 0
2, 96832, Note_on_c, 0, 60, 0
2, 96836, Note_on_c, 0, 54, 0
2, 96880, Note_on_c, 0, 54, 49
2, 96884, Note_on_c, 0, 65, 40
2, 96892, Note_on_c, 0, 60, 43
2, 96924, Note_on_c, 0, 65, 0
2, 96932, Note_on_c, 0, 60, 0
2, 96944, Note_on_c, 0, 54, 0
2, 96976, Note_on_c, 0, 77, 0
2, 97028, Note_on_c, 0, 82, 0
2, 97044, Note_on_c, 0, 89, 0
2, 97112, Note_on_c, 0, 65, 43
2, 97112, Note_on_c, 0, 54, 41
2, 97116, Note_on_c, 0, 60, 45
2, 97296, Note_on_c, 0, 65, 0
2, 97320, Note_on_c, 0, 60, 0
2, 97328, Note_on_c, 0, 54, 0
2, 97420, Note_on_c, 0, 64, 41
2, 97420, Note_on_c, 0, 54, 42
2, 97420, Note_on_c, 0, 60, 48
2, 97436, Control_c, 0, 64, 0
2, 97512, Note_on_c, 0, 64, 0
2, 97520, Note_on_c, 0, 80, 36
2, 97536, Note_on_c, 0, 80, 0
2, 97548, Note_on_c, 0, 81, 45
2, 97552, Note_on_c, 0, 60, 0
2, 97584, Note_on_c, 0, 81, 0
2, 97620, Note_on_c, 0, 86, 107
2, 97632, Note_on_c, 0, 64, 47
2, 97636, Note_on_c, 0, 60, 48
2, 97656, Note_on_c, 0, 64, 0
2, 97676, Note_on_c, 0, 86, 0
2, 97700, Note_on_c, 0, 80, 39
2, 97728, Note_on_c, 0, 80, 0
2, 97756, Note_on_c, 0, 54, 0
2, 97764, Note_on_c, 0, 60, 0
2, 97808, Note_on_c, 0, 54, 47
2, 97808, Note_on_c, 0, 80, 66
2, 97808, Note_on_c, 0, 86, 69
2, 97808, Note_on_c, 0, 60, 47
2, 97816, Note_on_c, 0, 64, 31
2, 97840, Note_on_c, 0, 80, 0
2, 97844, Note_on_c, 0, 81, 58
2, 97848, Note_on_c, 0, 64, 0
2, 97872, Note_on_c, 0, 86, 0
2, 97876, Note_on_c, 0, 81, 0
2, 97912, Note_on_c, 0, 77, 39
2, 97960, Note_on_c, 0, 77, 0
2, 97968, Note_on_c, 0, 54, 0
2, 98008, Note_on_c, 0, 54, 41
2, 98024, Note_on_c, 0, 64, 26
2, 98052, Note_on_c, 0, 64, 0
2, 98100, Note_on_c, 0, 60, 0
2, 98156, Note_on_c, 0, 54, 0
2, 98188, Note_on_c, 0, 58, 57
2, 98192, Note_on_c, 0, 53, 48
2, 98196, Note_on_c, 0, 62, 38
2, 98200, Note_on_c, 0, 57, 37
2, 98276, Note_on_c, 0, 80, 42
2, 98288, Note_on_c, 0, 80, 0
2, 98304, Note_on_c, 0, 81, 43
2, 98352, Note_on_c, 0, 81, 0
2, 98392, Note_on_c, 0, 86, 85
2, 98432, Note_on_c, 0, 86, 0
2, 98468, Note_on_c, 0, 80, 50
2, 98484, Note_on_c, 0, 62, 0
2, 98488, Note_on_c, 0, 86, 42
2, 98500, Note_on_c, 0, 58, 0
2, 98500, Note_on_c, 0, 53, 0
2, 98504, Note_on_c, 0, 57, 0
2, 98504, Note_on_c, 0, 80, 0
2, 98508, Note_on_c, 0, 81, 49
2, 98532, Note_on_c, 0, 86, 0
2, 98544, Note_on_c, 0, 81, 0
2, 98592, Note_on_c, 0, 74, 53
2, 98596, Note_on_c, 0, 58, 38
2, 98596, Note_on_c, 0, 53, 39
2, 98600, Note_on_c, 0, 62, 31
2, 98604, Note_on_c, 0, 57, 38
2, 98632, Note_on_c, 0, 74, 0
2, 98672, Note_on_c, 0, 77, 57
2, 98692, Note_on_c, 0, 62, 0
2, 98716, Note_on_c, 0, 57, 0
2, 98716, Note_on_c, 0, 58, 0
2, 98732, Note_on_c, 0, 77, 0
2, 98744, Note_on_c, 0, 53, 0
2, 98764, Note_on_c, 0, 79, 45
2, 98772, Note_on_c, 0, 77, 60
2, 98780, Note_on_c, 0, 79, 0
2, 98800, Note_on_c, 0, 53, 33
2, 98800, Note_on_c, 0, 58, 35
2, 98812, Note_on_c, 0, 74, 49
2, 98816, Note_on_c, 0, 77, 0
2, 98820, Note_on_c, 0, 57, 24
2, 98832, Note_on_c, 0, 74, 0
2, 98876, Note_on_c, 0, 58, 0
2, 98876, Note_on_c, 0, 77, 58
2, 98892, Note_on_c, 0, 57, 0
2, 98904, Note_on_c, 0, 53, 0
2, 98956, Note_on_c, 0, 77, 0
2, 98988, Note_on_c, 0, 79, 74
2, 98996, Note_on_c, 0, 58, 39
2, 99000, Note_on_c, 0, 62, 39
2, 99000, Note_on_c, 0, 53, 37
2, 99004, Note_on_c, 0, 57, 39
2, 99040, Note_on_c, 0, 79, 0
2, 99072, Note_on_c, 0, 77, 51
2, 99108, Control_c, 0, 64, 127
2, 99128, Note_on_c, 0, 62, 0
2, 99152, Note_on_c, 0, 58, 0
2, 99184, Note_on_c, 0, 74, 46
2, 99188, Note_on_c, 0, 58, 21
2, 99188, Note_on_c, 0, 62, 31
2, 99192, Note_on_c, 0, 77, 0
2, 99192, Control_c, 0, 64, 0
2, 99208, Note_on_c, 0, 74, 0
2, 99216, Note_on_c, 0, 62, 0
2, 99236, Note_on_c, 0, 58, 0
2, 99260, Note_on_c, 0, 57, 0
2, 99288, Note_on_c, 0, 53, 0
2, 99424, Note_on_c, 0, 74, 50
2, 99424, Note_on_c, 0, 58, 40
2, 99428, Note_on_c, 0, 62, 33
2, 99432, Note_on_c, 0, 57, 31
2, 99432, Note_on_c, 0, 53, 31
2, 99440, Control_c, 0, 64, 127
2, 99604, Note_on_c, 0, 62, 0
2, 99612, Note_on_c, 0, 57, 0
2, 99616, Note_on_c, 0, 58, 0
2, 99620, Note_on_c, 0, 74, 0
2, 99628, Note_on_c, 0, 53, 0
2, 99744, Control_c, 0, 64, 0
2, 99788, Note_on_c, 0, 58, 41
2, 99792, Note_on_c, 0, 73, 47
2, 99792, Note_on_c, 0, 70, 42
2, 99796, Note_on_c, 0, 52, 36
2, 99808, Note_on_c, 0, 70, 0
2, 99812, Note_on_c, 0, 73, 0
2, 99832, Note_on_c, 0, 58, 0
2, 99956, Note_on_c, 0, 56, 48
2, 99984, Note_on_c, 0, 58, 60
2, 99992, Note_on_c, 0, 56, 0
2, 99992, Note_on_c, 0, 82, 73
2, 99992, Note_on_c, 0, 83, 82
2, 100000, Note_on_c, 0, 59, 49
2, 100020, Note_on_c, 0, 82, 0
2, 100024, Note_on_c, 0, 58, 0
2, 100088, Note_on_c, 0, 83, 0
2, 100176, Note_on_c, 0, 59, 0
2, 100184, Note_on_c, 0, 58, 51
2, 100184, Note_on_c, 0, 82, 64
2, 100288, Note_on_c, 0, 82, 0
2, 100304, Note_on_c, 0, 52, 0
2, 100308, Note_on_c, 0, 80, 48
2, 100320, Note_on_c, 0, 56, 42
2, 100332, Note_on_c, 0, 58, 0
2, 100364, Note_on_c, 0, 56, 0
2, 100368, Note_on_c, 0, 80, 0
2, 100372, Note_on_c, 0, 77, 45
2, 100372, Note_on_c, 0, 54, 35
2, 100388, Note_on_c, 0, 56, 28
2, 100416, Note_on_c, 0, 54, 0
2, 100420, Note_on_c, 0, 56, 0
2, 100424, Note_on_c, 0, 77, 0
2, 100508, Note_on_c, 0, 54, 32
2, 100552, Note_on_c, 0, 54, 0
2, 100560, Note_on_c, 0, 80, 75
2, 100568, Note_on_c, 0, 58, 58
2, 100612, Note_on_c, 0, 80, 0
2, 100632, Note_on_c, 0, 82, 46
2, 100668, Note_on_c, 0, 58, 0
2, 100672, Note_on_c, 0, 80, 55
2, 100672, Note_on_c, 0, 56, 45
2, 100684, Note_on_c, 0, 82, 0
2, 100712, Note_on_c, 0, 56, 0
2, 100716, Note_on_c, 0, 80, 0
2, 100720, Note_on_c, 0, 77, 49
2, 100748, Note_on_c, 0, 77, 0
2, 100772, Note_on_c, 0, 56, 53
2, 100772, Note_on_c, 0, 80, 66
2, 100884, Note_on_c, 0, 80, 0
2, 100896, Note_on_c, 0, 77, 68
2, 100900, Note_on_c, 0, 56, 0
2, 100904, Note_on_c, 0, 53, 55
2, 100968, Note_on_c, 0, 53, 0
2, 100968, Note_on_c, 0, 77, 0
2, 101004, Note_on_c, 0, 75, 56
2, 101004, Note_on_c, 0, 51, 51
2, 101100, Note_on_c, 0, 75, 0
2, 101112, Note_on_c, 0, 51, 0
2, 101156, Note_on_c, 0, 76, 52
2, 101160, Note_on_c, 0, 52, 49
2, 101180, Control_c, 0, 64, 127
2, 101192, Note_on_c, 0, 76, 0
2, 101240, Note_on_c, 0, 52, 0
2, 101324, Control_c, 0, 64, 88
2, 101324, Control_c, 0, 64, 0
2, 101364, Note_on_c, 0, 77, 57
2, 101372, Note_on_c, 0, 41, 54
2, 101396, Control_c, 0, 64, 127
2, 101448, Note_on_c, 0, 77, 0
2, 101480, Note_on_c, 0, 48, 61
2, 101492, Note_on_c, 0, 41, 0
2, 101564, Note_on_c, 0, 48, 0
2, 101584, Note_on_c, 0, 57, 63
2, 101652, Note_on_c, 0, 57, 0
2, 101696, Note_on_c, 0, 60, 77
2, 101800, Note_on_c, 0, 64, 79
2, 101912, Note_on_c, 0, 69, 81
2, 101976, Note_on_c, 0, 69, 0
2, 102016, Note_on_c, 0, 64, 0
2, 102024, Note_on_c, 0, 72, 84
2, 102028, Note_on_c, 0, 60, 0
2, 102096, Note_on_c, 0, 72, 0
2, 102144, Note_on_c, 0, 76, 115
2, 102224, Note_on_c, 0, 76, 0
2, 102300, Control_c, 0, 64, 0
2, 102308, Note_on_c, 0, 56, 76
2, 102308, Note_on_c, 0, 74, 89
2, 102308, Note_on_c, 0, 79, 94
2, 102316, Note_on_c, 0, 78, 61
2, 102328, Note_on_c, 0, 78, 0
2, 102432, Control_c, 0, 64, 127
2, 102448, Note_on_c, 0, 79, 0
2, 102464, Note_on_c, 0, 77, 76
2, 102468, Note_on_c, 0, 62, 56
2, 102592, Note_on_c, 0, 74, 0
2, 102596, Note_on_c, 0, 77, 0
2, 102612, Note_on_c, 0, 72, 57
2, 102616, Note_on_c, 0, 67, 56
2, 102620, Note_on_c, 0, 76, 66
2, 102632, Note_on_c, 0, 67, 0
2, 102636, Note_on_c, 0, 76, 0
2, 102648, Note_on_c, 0, 62, 0
2, 102652, Note_on_c, 0, 72, 0
2, 102672, Note_on_c, 0, 56, 0
2, 102776, Note_on_c, 0, 72, 58
2, 102780, Note_on_c, 0, 56, 52
2, 102784, Note_on_c, 0, 64, 40
2, 102784, Note_on_c, 0, 67, 54
2, 102824, Note_on_c, 0, 56, 0
2, 102828, Note_on_c, 0, 67, 0
2, 102840, Note_on_c, 0, 72, 0
2, 102860, Note_on_c, 0, 64, 0
2, 102972, Note_on_c, 0, 46, 48
2, 102972, Note_on_c, 0, 60, 49
2, 102976, Note_on_c, 0, 67, 51
2, 102976, Note_on_c, 0, 53, 38
2, 102980, Note_on_c, 0, 64, 54
2, 102980, Control_c, 0, 64, 0
2, 102980, Note_on_c, 0, 56, 42
2, 103032, Control_c, 0, 64, 127
2, 103092, Note_on_c, 0, 60, 0
2, 103096, Note_on_c, 0, 64, 0
2, 103096, Note_on_c, 0, 46, 0
2, 103108, Note_on_c, 0, 67, 0
2, 103108, Note_on_c, 0, 56, 0
2, 103120, Note_on_c, 0, 53, 0
2, 103200, Note_on_c, 0, 46, 39
2, 103200, Note_on_c, 0, 67, 36
2, 103204, Note_on_c, 0, 56, 32
2, 103204, Note_on_c, 0, 53, 35
2, 103204, Note_on_c, 0, 64, 43
2, 103204, Note_on_c, 0, 60, 33
2, 103280, Note_on_c, 0, 60, 0
2, 103288, Note_on_c, 0, 64, 0
2, 103292, Note_on_c, 0, 46, 0
2, 103296, Note_on_c, 0, 67, 0
2, 103300, Note_on_c, 0, 56, 0
2, 103304, Note_on_c, 0, 53, 0
2, 103432, Note_on_c, 0, 46, 35
2, 103440, Note_on_c, 0, 67, 35
2, 103448, Note_on_c, 0, 60, 32
2, 103452, Note_on_c, 0, 64, 37
2, 103452, Note_on_c, 0, 56, 26
2, 103452, Note_on_c, 0, 53, 40
2, 103648, Note_on_c, 0, 64, 0
2, 103720, Note_on_c, 0, 60, 0
2, 103856, System_exclusive, 9, 67, 16, 76, 3, 1, 0, 64, 0, 247
2, 103924, Note_on_c, 0, 67, 0
2, 103976, Note_on_c, 0, 65, 57
2, 104024, Note_on_c, 0, 56, 0
2, 104052, Note_on_c, 0, 53, 0
2, 104124, Note_on_c, 0, 46, 0
2, 104184, Note_on_c, 0, 65, 0
2, 104504, Control_c, 0, 64, 88
2, 104508, Control_c, 0, 64, 0
2, 104516, Note_on_c, 0, 67, 67
2, 104516, Note_on_c, 0, 57, 70
2, 104516, Note_on_c, 0, 59, 64
2, 104520, Note_on_c, 0, 62, 59
2, 104520, Note_on_c, 0, 64, 61
2, 104524, Note_on_c, 0, 48, 55
2, 104524, Note_on_c, 0, 41, 57
2, 104564, Control_c, 0, 64, 127
2, 104624, Note_on_c, 0, 48, 0
2, 104632, Note_on_c, 0, 67, 0
2, 104656, Note_on_c, 0, 59, 0
2, 104660, Note_on_c, 0, 57, 0
2, 104672, Note_on_c, 0, 62, 0
2, 104692, Note_on_c, 0, 64, 0
2, 104696, Note_on_c, 0, 48, 33
2, 104764, Note_on_c, 0, 48, 0
2, 104776, Note_on_c, 0, 57, 37
2, 104812, Note_on_c, 0, 57, 0
2, 104816, Note_on_c, 0, 41, 0
2, 104820, Note_on_c, 0, 48, 31
2, 104868, Note_on_c, 0, 48, 0
2, 104876, Note_on_c, 0, 41, 50
2, 104876, Note_on_c, 0, 57, 38
2, 104908, Note_on_c, 0, 57, 0
2, 104920, Note_on_c, 0, 41, 0
2, 104928, Note_on_c, 0, 48, 35
2, 104956, Note_on_c, 0, 48, 0
2, 104968, Note_on_c, 0, 41, 49
2, 105008, Note_on_c, 0, 41, 0
2, 105016, Note_on_c, 0, 48, 42
2, 105048, Note_on_c, 0, 48, 0
2, 105048, Note_on_c, 0, 59, 49
2, 105064, Note_on_c, 0, 41, 43
2, 105084, Note_on_c, 0, 59, 0
2, 105096, Note_on_c, 0, 48, 41
2, 105100, Note_on_c, 0, 41, 0
2, 105100, Note_on_c, 0, 64, 32
2, 105116, Note_on_c, 0, 67, 27
2, 105132, Note_on_c, 0, 67, 0
2, 105136, Note_on_c, 0, 64, 0
2, 105136, Note_on_c, 0, 48, 0
2, 105136, Note_on_c, 0, 59, 51
2, 105156, Note_on_c, 0, 41, 44
2, 105172, Note_on_c, 0, 59, 0
2, 105184, Note_on_c, 0, 62, 54
2, 105188, Note_on_c, 0, 48, 40
2, 105192, Note_on_c, 0, 41, 0
2, 105220, Note_on_c, 0, 62, 0
2, 105224, Note_on_c, 0, 59, 35
2, 105232, Note_on_c, 0, 48, 0
2, 105240, Note_on_c, 0, 41, 49
2, 105248, Note_on_c, 0, 59, 0
2, 105260, Note_on_c, 0, 62, 39
2, 105276, Note_on_c, 0, 48, 46
2, 105280, Note_on_c, 0, 41, 0
2, 105284, Note_on_c, 0, 62, 0
2, 105304, Note_on_c, 0, 48, 0
2, 105308, Note_on_c, 0, 57, 41
2, 105312, Note_on_c, 0, 53, 29
2, 105328, Note_on_c, 0, 41, 49
2, 105332, Note_on_c, 0, 53, 0
2, 105332, Note_on_c, 0, 57, 0
2, 105344, Note_on_c, 0, 62, 35
2, 105356, Note_on_c, 0, 48, 39
2, 105364, Note_on_c, 0, 41, 0
2, 105368, Note_on_c, 0, 67, 22
2, 105380, Note_on_c, 0, 62, 0
2, 105392, Note_on_c, 0, 48, 0
2, 105404, Note_on_c, 0, 67, 0
2, 105408, Note_on_c, 0, 41, 52
2, 105408, Note_on_c, 0, 57, 22
2, 105424, Note_on_c, 0, 62, 34
2, 105432, Note_on_c, 0, 57, 0
2, 105440, Note_on_c, 0, 48, 39
2, 105448, Note_on_c, 0, 41, 0
2, 105452, Note_on_c, 0, 67, 35
2, 105468, Note_on_c, 0, 62, 0
2, 105476, Note_on_c, 0, 48, 0
2, 105488, Note_on_c, 0, 67, 0
2, 105492, Note_on_c, 0, 57, 49
2, 105492, Note_on_c, 0, 59, 48
2, 105492, Note_on_c, 0, 41, 51
2, 105520, Note_on_c, 0, 62, 36
2, 105528, Note_on_c, 0, 59, 0
2, 105528, Note_on_c, 0, 57, 0
2, 105532, Note_on_c, 0, 48, 35
2, 105536, Note_on_c, 0, 41, 0
2, 105540, Note_on_c, 0, 67, 38
2, 105564, Note_on_c, 0, 62, 0
2, 105568, Note_on_c, 0, 48, 0
2, 105572, Note_on_c, 0, 67, 0
2, 105576, Note_on_c, 0, 57, 41
2, 105576, Note_on_c, 0, 59, 45
2, 105580, Note_on_c, 0, 41, 51
2, 105604, Note_on_c, 0, 62, 37
2, 105612, Note_on_c, 0, 48, 40
2, 105616, Note_on_c, 0, 57, 0
2, 105620, Note_on_c, 0, 59, 0
2, 105620, Note_on_c, 0, 41, 0
2, 105632, Note_on_c, 0, 67, 34
2, 105652, Note_on_c, 0, 62, 0
2, 105652, Note_on_c, 0, 48, 0
2, 105652, Note_on_c, 0, 53, 25
2, 105656, Note_on_c, 0, 67, 0
2, 105664, Note_on_c, 0, 57, 47
2, 105664, Note_on_c, 0, 59, 46
2, 105664, Note_on_c, 0, 41, 56
2, 105672, Note_on_c, 0, 53, 0
2, 105700, Note_on_c, 0, 62, 36
2, 105700, Note_on_c, 0, 48, 36
2, 105704, Note_on_c, 0, 41, 0
2, 105712, Note_on_c, 0, 57, 0
2, 105716, Note_on_c, 0, 59, 0
2, 105724, Note_on_c, 0, 67, 30
2, 105744, Note_on_c, 0, 48, 0
2, 105748, Note_on_c, 0, 62, 0
2, 105752, Note_on_c, 0, 67, 0
2, 105752, Note_on_c, 0, 41, 57
2, 105764, Note_on_c, 0, 57, 41
2, 105768, Note_on_c, 0, 59, 39
2, 105788, Note_on_c, 0, 62, 39
2, 105796, Note_on_c, 0, 41, 0
2, 105800, Note_on_c, 0, 48, 39
2, 105808, Note_on_c, 0, 57, 0
2, 105808, Note_on_c, 0, 59, 0
2, 105820, Note_on_c, 0, 67, 33
2, 105820, Note_on_c, 0, 53, 38
2, 105836, Note_on_c, 0, 53, 0
2, 105836, Note_on_c, 0, 48, 0
2, 105840, Note_on_c, 0, 67, 0
2, 105844, Note_on_c, 0, 62, 0
2, 105848, Note_on_c, 0, 41, 55
2, 105860, Note_on_c, 0, 57, 45
2, 105860, Note_on_c, 0, 59, 43
2, 105888, Note_on_c, 0, 41, 0
2, 105888, Note_on_c, 0, 62, 39
2, 105892, Note_on_c, 0, 48, 35
2, 105900, Note_on_c, 0, 57, 0
2, 105904, Note_on_c, 0, 59, 0
2, 105908, Note_on_c, 0, 67, 39
2, 105912, Note_on_c, 0, 53, 31
2, 105932, Note_on_c, 0, 62, 0
2, 105936, Note_on_c, 0, 48, 0
2, 105936, Note_on_c, 0, 53, 0
2, 105940, Note_on_c, 0, 41, 54
2, 105948, Note_on_c, 0, 67, 0
2, 105948, Note_on_c, 0, 57, 39
2, 105948, Note_on_c, 0, 59, 43
2, 105976, Note_on_c, 0, 62, 38
2, 105988, Note_on_c, 0, 41, 0
2, 105992, Note_on_c, 0, 48, 24
2, 105996, Note_on_c, 0, 57, 0
2, 105996, Note_on_c, 0, 59, 0
2, 105996, Note_on_c, 0, 67, 40
2, 106004, Note_on_c, 0, 53, 41
2, 106024, Note_on_c, 0, 62, 0
2, 106032, Note_on_c, 0, 53, 0
2, 106040, Note_on_c, 0, 41, 29
2, 106044, Note_on_c, 0, 67, 0
2, 106048, Note_on_c, 0, 57, 37
2, 106048, Note_on_c, 0, 59, 36
2, 106060, Note_on_c, 0, 48, 0
2, 106076, Note_on_c, 0, 62, 37
2, 106088, Note_on_c, 0, 41, 0
2, 106088, Note_on_c, 0, 59, 0
2, 106088, Note_on_c, 0, 57, 0
2, 106100, Note_on_c, 0, 67, 20
2, 106124, Note_on_c, 0, 62, 0
2, 106148, Note_on_c, 0, 67, 0
2, 106148, Note_on_c, 0, 59, 33
2, 106148, Note_on_c, 0, 57, 31
2, 106160, Note_on_c, 0, 62, 46
2, 106180, Note_on_c, 0, 57, 0
2, 106180, Note_on_c, 0, 59, 0
2, 106184, Note_on_c, 0, 67, 34
2, 106208, Note_on_c, 0, 62, 0
2, 106240, Note_on_c, 0, 67, 0
2, 106240, Note_on_c, 0, 57, 34
2, 106240, Note_on_c, 0, 59, 35
2, 106256, Note_on_c, 0, 62, 39
2, 106272, Note_on_c, 0, 59, 0
2, 106272, Note_on_c, 0, 57, 0
2, 106288, Note_on_c, 0, 67, 23
2, 106308, Note_on_c, 0, 62, 0
2, 106324, Note_on_c, 0, 67, 0
2, 106332, Note_on_c, 0, 57, 31
2, 106332, Note_on_c, 0, 59, 38
2, 106356, Note_on_c, 0, 62, 39
2, 106364, Note_on_c, 0, 57, 0
2, 106368, Note_on_c, 0, 59, 0
2, 106384, Note_on_c, 0, 67, 41
2, 106396, Note_on_c, 0, 62, 0
2, 106428, Note_on_c, 0, 67, 0
2, 106428, Note_on_c, 0, 59, 27
2, 106428, Note_on_c, 0, 57, 26
2, 106440, Note_on_c, 0, 62, 41
2, 106456, Note_on_c, 0, 57, 0
2, 106464, Note_on_c, 0, 59, 0
2, 106476, Note_on_c, 0, 67, 33
2, 106600, Note_on_c, 0, 62, 0
2, 106624, Note_on_c, 0, 57, 26
2, 106628, Note_on_c, 0, 59, 24
2, 106668, Note_on_c, 0, 57, 0
2, 106736, Note_on_c, 0, 59, 0
2, 106768, Note_on_c, 0, 28, 26
2, 106808, Note_on_c, 0, 28, 0
2, 106812, Note_on_c, 0, 29, 41
2, 106812, Control_c, 0, 64, 0
2, 107468, Note_on_c, 0, 67, 0
2, 107480, Note_on_c, 0, 29, 0
2, 107480, End_track
3, 0, Start_track
3, 0, Title_t, "Bass"
3, 0, Control_c, 1, 0, 0
3, 0, Control_c, 1, 7, 86
3, 0, Control_c, 1, 10, 64
3, 0, Control_c, 1, 91, 0
3, 0, Control_c, 1, 93, 0
3, 0, Control_c, 1, 32, 1
3, 0, Program_c, 1, 32
3, 4, Note_on_c, 1, 29, 57
3, 664, Note_on_c, 1, 36, 41
3, 708, Note_on_c, 1, 36, 0
3, 732, Note_on_c, 1, 41, 60
3, 776, Note_on_c, 1, 41, 0
3, 788, Note_on_c, 1, 42, 81
3, 808, Note_on_c, 1, 29, 0
3, 1532, Note_on_c, 1, 43, 68
3, 1540, Note_on_c, 1, 42, 0
3, 2296, Note_on_c, 1, 44, 88
3, 2304, Note_on_c, 1, 43, 0
3, 3084, Note_on_c, 1, 45, 79
3, 3096, Note_on_c, 1, 44, 0
3, 4160, Note_on_c, 1, 45, 0
3, 4164, Note_on_c, 1, 48, 62
3, 4216, Note_on_c, 1, 48, 0
3, 4244, Note_on_c, 1, 41, 47
3, 4304, Note_on_c, 1, 41, 0
3, 4356, Note_on_c, 1, 36, 52
3, 4400, Note_on_c, 1, 36, 0
3, 4420, Note_on_c, 1, 29, 64
3, 4592, Note_on_c, 1, 29, 0
3, 4608, Note_on_c, 1, 34, 78
3, 5716, Note_on_c, 1, 37, 24
3, 5728, Note_on_c, 1, 34, 0
3, 5744, Note_on_c, 1, 37, 0
3, 5744, Note_on_c, 1, 39, 74
3, 5924, Note_on_c, 1, 51, 77
3, 5956, Note_on_c, 1, 39, 0
3, 5992, Note_on_c, 1, 51, 0
3, 6040, Note_on_c, 1, 52, 87
3, 6096, Note_on_c, 1, 52, 0
3, 6112, Note_on_c, 1, 53, 89
3, 6904, Note_on_c, 1, 53, 0
3, 6936, Note_on_c, 1, 50, 85
3, 7004, Pitch_bend_c, 1, 8322
3, 7008, Pitch_bend_c, 1, 8712
3, 7012, Pitch_bend_c, 1, 9102
3, 7016, Pitch_bend_c, 1, 9492
3, 7020, Pitch_bend_c, 1, 10402
3, 7024, Pitch_bend_c, 1, 10662
3, 7028, Pitch_bend_c, 1, 10922
3, 7032, Pitch_bend_c, 1, 11312
3, 7036, Pitch_bend_c, 1, 11572
3, 7040, Pitch_bend_c, 1, 11702
3, 7044, Pitch_bend_c, 1, 11832
3, 7052, Pitch_bend_c, 1, 11702
3, 7056, Pitch_bend_c, 1, 11572
3, 7060, Pitch_bend_c, 1, 11442
3, 7064, Pitch_bend_c, 1, 10922
3, 7068, Pitch_bend_c, 1, 10532
3, 7072, Pitch_bend_c, 1, 10012
3, 7076, Pitch_bend_c, 1, 9622
3, 7080, Pitch_bend_c, 1, 9102
3, 7084, Pitch_bend_c, 1, 8192
3, 7152, Pitch_bend_c, 1, 8322
3, 7156, Pitch_bend_c, 1, 8712
3, 7160, Pitch_bend_c, 1, 8972
3, 7164, Pitch_bend_c, 1, 9362
3, 7168, Pitch_bend_c, 1, 9882
3, 7172, Pitch_bend_c, 1, 10012
3, 7180, Pitch_bend_c, 1, 10272
3, 7188, Pitch_bend_c, 1, 10012
3, 7192, Pitch_bend_c, 1, 9752
3, 7196, Pitch_bend_c, 1, 9622
3, 7200, Pitch_bend_c, 1, 9362
3, 7204, Pitch_bend_c, 1, 8972
3, 7208, Pitch_bend_c, 1, 8712
3, 7212, Pitch_bend_c, 1, 8192
3, 7628, Note_on_c, 1, 42, 49
3, 7680, Note_on_c, 1, 50, 0
3, 7684, Note_on_c, 1, 42, 0
3, 7688, Note_on_c, 1, 43, 61
3, 8168, Note_on_c, 1, 37, 52
3, 8188, Note_on_c, 1, 43, 0
3, 8232, Note_on_c, 1, 37, 0
3, 8252, Note_on_c, 1, 35, 75
3, 8636, Note_on_c, 1, 35, 0
3, 8640, Note_on_c, 1, 36, 62
3, 8792, Note_on_c, 1, 34, 41
3, 8832, Note_on_c, 1, 34, 0
3, 8840, Note_on_c, 1, 48, 115
3, 8852, Note_on_c, 1, 36, 0
3, 8964, Note_on_c, 1, 36, 57
3, 8972, Note_on_c, 1, 48, 0
3, 8992, Note_on_c, 1, 36, 0
3, 9020, Note_on_c, 1, 46, 78
3, 9180, Note_on_c, 1, 46, 0
3, 9212, Note_on_c, 1, 45, 78
3, 9284, Pitch_bend_c, 1, 8842
3, 9288, Pitch_bend_c, 1, 9362
3, 9292, Pitch_bend_c, 1, 9882
3, 9296, Pitch_bend_c, 1, 10402
3, 9300, Pitch_bend_c, 1, 10792
3, 9304, Pitch_bend_c, 1, 11442
3, 9308, Pitch_bend_c, 1, 11702
3, 9320, Pitch_bend_c, 1, 11572
3, 9324, Pitch_bend_c, 1, 11182
3, 9328, Pitch_bend_c, 1, 10792
3, 9332, Pitch_bend_c, 1, 10402
3, 9336, Pitch_bend_c, 1, 9882
3, 9340, Pitch_bend_c, 1, 9362
3, 9344, Pitch_bend_c, 1, 8712
3, 9348, Pitch_bend_c, 1, 8192
3, 9416, Pitch_bend_c, 1, 8582
3, 9420, Pitch_bend_c, 1, 8972
3, 9424, Pitch_bend_c, 1, 9492
3, 9428, Pitch_bend_c, 1, 9882
3, 9432, Pitch_bend_c, 1, 10662
3, 9436, Pitch_bend_c, 1, 10922
3, 9440, Pitch_bend_c, 1, 11182
3, 9452, Pitch_bend_c, 1, 10922
3, 9456, Pitch_bend_c, 1, 10662
3, 9460, Pitch_bend_c, 1, 10272
3, 9464, Pitch_bend_c, 1, 9752
3, 9468, Pitch_bend_c, 1, 9102
3, 9472, Pitch_bend_c, 1, 8192
3, 9548, Pitch_bend_c, 1, 8582
3, 9552, Pitch_bend_c, 1, 8972
3, 9556, Pitch_bend_c, 1, 9882
3, 9560, Pitch_bend_c, 1, 10272
3, 9564, Pitch_bend_c, 1, 10532
3, 9568, Pitch_bend_c, 1, 10792
3, 9572, Pitch_bend_c, 1, 11182
3, 9580, Pitch_bend_c, 1, 11312
3, 9584, Pitch_bend_c, 1, 11182
3, 9588, Pitch_bend_c, 1, 10922
3, 9592, Pitch_bend_c, 1, 10792
3, 9596, Pitch_bend_c, 1, 10532
3, 9600, Pitch_bend_c, 1, 9622
3, 9604, Pitch_bend_c, 1, 9102
3, 9608, Pitch_bend_c, 1, 8712
3, 9612, Pitch_bend_c, 1, 8192
3, 9968, Note_on_c, 1, 38, 63
3, 9976, Note_on_c, 1, 45, 0
3, 10480, Note_on_c, 1, 37, 39
3, 10504, Note_on_c, 1, 37, 0
3, 10540, Note_on_c, 1, 54, 82
3, 10616, Note_on_c, 1, 38, 0
3, 10692, Note_on_c, 1, 38, 42
3, 10720, Note_on_c, 1, 38, 0
3, 10720, Note_on_c, 1, 54, 0
3, 10732, Note_on_c, 1, 55, 80
3, 10860, Note_on_c, 1, 42, 52
3, 10872, Note_on_c, 1, 55, 0
3, 10912, Note_on_c, 1, 42, 0
3, 10928, Note_on_c, 1, 43, 58
3, 11116, Note_on_c, 1, 43, 0
3, 11116, Note_on_c, 1, 31, 74
3, 11692, Note_on_c, 1, 36, 87
3, 11712, Note_on_c, 1, 31, 0
3, 11884, Note_on_c, 1, 48, 111
3, 11948, Note_on_c, 1, 36, 0
3, 12196, Note_on_c, 1, 36, 47
3, 12260, Note_on_c, 1, 36, 0
3, 12272, Note_on_c, 1, 41, 96
3, 12300, Note_on_c, 1, 48, 0
3, 12940, Note_on_c, 1, 36, 48
3, 12968, Note_on_c, 1, 41, 0
3, 12984, Note_on_c, 1, 36, 0
3, 12996, Note_on_c, 1, 33, 61
3, 13036, Note_on_c, 1, 33, 0
3, 13068, Note_on_c, 1, 30, 72
3, 13812, Note_on_c, 1, 30, 0
3, 13820, Note_on_c, 1, 31, 81
3, 14776, Note_on_c, 1, 31, 0
3, 14780, Note_on_c, 1, 32, 84
3, 14952, Note_on_c, 1, 32, 0
3, 14968, Note_on_c, 1, 32, 98
3, 15132, Note_on_c, 1, 32, 0
3, 15152, Note_on_c, 1, 32, 94
3, 15336, Note_on_c, 1, 32, 0
3, 15336, Note_on_c, 1, 33, 86
3, 16284, Note_on_c, 1, 33, 0
3, 16284, Note_on_c, 1, 36, 74
3, 16608, Note_on_c, 1, 36, 0
3, 16620, Note_on_c, 1, 41, 70
3, 16664, Note_on_c, 1, 41, 0
3, 16692, Note_on_c, 1, 29, 50
3, 16880, Note_on_c, 1, 29, 0
3, 16888, Note_on_c, 1, 34, 66
3, 17588, Note_on_c, 1, 50, 71
3, 17664, Note_on_c, 1, 34, 0
3, 17668, Note_on_c, 1, 50, 0
3, 17684, Note_on_c, 1, 51, 61
3, 17796, Note_on_c, 1, 38, 59
3, 17856, Note_on_c, 1, 51, 0
3, 17868, Note_on_c, 1, 38, 0
3, 17876, Note_on_c, 1, 39, 64
3, 18384, Note_on_c, 1, 39, 0
3, 18396, Note_on_c, 1, 36, 31
3, 18420, Note_on_c, 1, 36, 0
3, 18424, Note_on_c, 1, 41, 77
3, 19112, Note_on_c, 1, 37, 56
3, 19120, Note_on_c, 1, 41, 0
3, 19168, Note_on_c, 1, 37, 0
3, 19168, Note_on_c, 1, 38, 68
3, 19536, Note_on_c, 1, 30, 87
3, 19540, Note_on_c, 1, 38, 0
3, 19928, Note_on_c, 1, 30, 0
3, 19936, Note_on_c, 1, 31, 84
3, 20664, Note_on_c, 1, 50, 94
3, 20752, Note_on_c, 1, 48, 74
3, 20768, Note_on_c, 1, 50, 0
3, 20884, Note_on_c, 1, 31, 0
3, 20940, Note_on_c, 1, 35, 55
3, 21116, Note_on_c, 1, 35, 0
3, 21124, Note_on_c, 1, 36, 66
3, 21144, Note_on_c, 1, 48, 0
3, 21316, Note_on_c, 1, 28, 86
3, 21324, Note_on_c, 1, 36, 0
3, 21508, Note_on_c, 1, 29, 84
3, 21524, Note_on_c, 1, 28, 0
3, 22660, Note_on_c, 1, 46, 84
3, 22868, Note_on_c, 1, 29, 0
3, 23040, Note_on_c, 1, 39, 69
3, 23092, Note_on_c, 1, 46, 0
3, 24192, Note_on_c, 1, 32, 70
3, 24200, Note_on_c, 1, 39, 0
3, 24580, Note_on_c, 1, 37, 79
3, 24584, Note_on_c, 1, 32, 0
3, 25252, Note_on_c, 1, 37, 0
3, 25264, Note_on_c, 1, 35, 40
3, 25304, Note_on_c, 1, 35, 0
3, 25320, Note_on_c, 1, 34, 72
3, 25624, Note_on_c, 1, 44, 51
3, 25640, Note_on_c, 1, 44, 0
3, 25684, Note_on_c, 1, 49, 76
3, 25860, Note_on_c, 1, 49, 0
3, 25872, Note_on_c, 1, 49, 75
3, 26036, Note_on_c, 1, 34, 0
3, 26064, Note_on_c, 1, 39, 73
3, 26072, Note_on_c, 1, 49, 0
3, 26844, Note_on_c, 1, 32, 80
3, 26848, Note_on_c, 1, 39, 0
3, 27228, Note_on_c, 1, 30, 84
3, 27236, Note_on_c, 1, 32, 0
3, 27628, Note_on_c, 1, 29, 74
3, 27652, Note_on_c, 1, 30, 0
3, 28384, Note_on_c, 1, 29, 0
3, 28384, Note_on_c, 1, 34, 82
3, 29048, Note_on_c, 1, 41, 62
3, 29060, Note_on_c, 1, 34, 0
3, 29076, Note_on_c, 1, 41, 0
3, 29108, Note_on_c, 1, 34, 66
3, 29144, Note_on_c, 1, 34, 0
3, 29176, Note_on_c, 1, 39, 77
3, 29328, Note_on_c, 1, 34, 65
3, 29384, Note_on_c, 1, 39, 0
3, 29548, Note_on_c, 1, 27, 70
3, 29560, Note_on_c, 1, 34, 0
3, 29936, Note_on_c, 1, 32, 80
3, 29956, Note_on_c, 1, 27, 0
3, 30352, Note_on_c, 1, 44, 94
3, 30732, Note_on_c, 1, 32, 0
3, 30736, Note_on_c, 1, 37, 76
3, 30740, Note_on_c, 1, 44, 0
3, 31504, Note_on_c, 1, 48, 107
3, 31556, Note_on_c, 1, 37, 0
3, 32184, Note_on_c, 1, 37, 48
3, 32216, Note_on_c, 1, 37, 0
3, 32244, Note_on_c, 1, 46, 79
3, 32268, Note_on_c, 1, 48, 0
3, 33020, Note_on_c, 1, 44, 68
3, 33024, Note_on_c, 1, 46, 0
3, 33044, Note_on_c, 1, 44, 0
3, 33140, Note_on_c, 1, 39, 48
3, 33200, Note_on_c, 1, 39, 0
3, 33212, Note_on_c, 1, 32, 71
3, 33756, Note_on_c, 1, 32, 0
3, 33756, Note_on_c, 1, 31, 81
3, 34760, Note_on_c, 1, 37, 83
3, 34780, Note_on_c, 1, 31, 0
3, 34952, Note_on_c, 1, 49, 86
3, 35116, Note_on_c, 1, 49, 0
3, 35144, Note_on_c, 1, 49, 84
3, 35228, Note_on_c, 1, 37, 0
3, 35336, Note_on_c, 1, 48, 82
3, 35360, Note_on_c, 1, 49, 0
3, 35524, Note_on_c, 1, 35, 81
3, 35604, Note_on_c, 1, 48, 0
3, 35704, Note_on_c, 1, 36, 85
3, 35716, Note_on_c, 1, 35, 0
3, 36844, Note_on_c, 1, 29, 79
3, 36852, Note_on_c, 1, 36, 0
3, 37600, Note_on_c, 1, 29, 0
3, 37604, Note_on_c, 1, 30, 85
3, 38380, Note_on_c, 1, 30, 0
3, 38384, Note_on_c, 1, 31, 82
3, 38436, Control_c, 1, 1, 3
3, 38440, Control_c, 1, 1, 6
3, 38444, Control_c, 1, 1, 10
3, 38448, Control_c, 1, 1, 13
3, 38452, Control_c, 1, 1, 17
3, 38456, Control_c, 1, 1, 25
3, 38460, Control_c, 1, 1, 28
3, 38464, Control_c, 1, 1, 31
3, 38468, Control_c, 1, 1, 34
3, 38472, Control_c, 1, 1, 38
3, 38476, Control_c, 1, 1, 43
3, 38480, Control_c, 1, 1, 45
3, 38484, Control_c, 1, 1, 48
3, 38488, Control_c, 1, 1, 50
3, 38492, Control_c, 1, 1, 52
3, 38496, Control_c, 1, 1, 58
3, 38500, Control_c, 1, 1, 60
3, 38504, Control_c, 1, 1, 62
3, 38508, Control_c, 1, 1, 64
3, 38512, Control_c, 1, 1, 66
3, 38516, Control_c, 1, 1, 68
3, 38520, Control_c, 1, 1, 72
3, 38524, Control_c, 1, 1, 75
3, 38528, Control_c, 1, 1, 77
3, 38532, Control_c, 1, 1, 79
3, 38536, Control_c, 1, 1, 81
3, 38540, Control_c, 1, 1, 84
3, 38544, Control_c, 1, 1, 86
3, 38548, Control_c, 1, 1, 88
3, 38552, Control_c, 1, 1, 89
3, 38556, Control_c, 1, 1, 92
3, 38560, Control_c, 1, 1, 95
3, 38564, Control_c, 1, 1, 96
3, 38568, Control_c, 1, 1, 98
3, 38572, Control_c, 1, 1, 99
3, 38576, Control_c, 1, 1, 100
3, 38580, Control_c, 1, 1, 101
3, 38584, Control_c, 1, 1, 104
3, 38588, Control_c, 1, 1, 105
3, 38592, Control_c, 1, 1, 106
3, 38596, Control_c, 1, 1, 107
3, 38600, Control_c, 1, 1, 108
3, 38604, Control_c, 1, 1, 111
3, 38608, Control_c, 1, 1, 112
3, 38612, Control_c, 1, 1, 113
3, 38616, Control_c, 1, 1, 114
3, 38620, Control_c, 1, 1, 115
3, 38624, Control_c, 1, 1, 116
3, 38644, Control_c, 1, 1, 115
3, 38648, Control_c, 1, 1, 114
3, 38652, Control_c, 1, 1, 113
3, 38656, Control_c, 1, 1, 112
3, 38660, Control_c, 1, 1, 111
3, 38664, Control_c, 1, 1, 108
3, 38668, Control_c, 1, 1, 105
3, 38672, Control_c, 1, 1, 104
3, 38676, Control_c, 1, 1, 102
3, 38680, Control_c, 1, 1, 101
3, 38684, Control_c, 1, 1, 99
3, 38688, Control_c, 1, 1, 96
3, 38692, Control_c, 1, 1, 94
3, 38696, Control_c, 1, 1, 92
3, 38700, Control_c, 1, 1, 90
3, 38704, Control_c, 1, 1, 88
3, 38708, Control_c, 1, 1, 84
3, 38712, Control_c, 1, 1, 83
3, 38716, Control_c, 1, 1, 81
3, 38720, Control_c, 1, 1, 79
3, 38724, Control_c, 1, 1, 76
3, 38728, Control_c, 1, 1, 74
3, 38732, Control_c, 1, 1, 68
3, 38736, Control_c, 1, 1, 65
3, 38740, Control_c, 1, 1, 61
3, 38744, Control_c, 1, 1, 58
3, 38748, Control_c, 1, 1, 55
3, 38752, Control_c, 1, 1, 47
3, 38756, Control_c, 1, 1, 43
3, 38760, Control_c, 1, 1, 39
3, 38764, Control_c, 1, 1, 34
3, 38768, Control_c, 1, 1, 30
3, 38772, Control_c, 1, 1, 21
3, 38776, Control_c, 1, 1, 16
3, 38780, Control_c, 1, 1, 12
3, 38784, Control_c, 1, 1, 7
3, 38788, Control_c, 1, 1, 4
3, 38792, Control_c, 1, 1, 0
3, 39144, Note_on_c, 1, 31, 0
3, 39156, Note_on_c, 1, 36, 57
3, 39164, Note_on_c, 1, 35, 81
3, 39172, Note_on_c, 1, 35, 0
3, 39720, Note_on_c, 1, 32, 83
3, 39772, Note_on_c, 1, 36, 0
3, 39920, Note_on_c, 1, 33, 85
3, 39936, Note_on_c, 1, 32, 0
3, 40684, Note_on_c, 1, 36, 78
3, 40708, Note_on_c, 1, 33, 0
3, 41076, Note_on_c, 1, 36, 0
3, 41076, Note_on_c, 1, 41, 68
3, 41384, Note_on_c, 1, 29, 60
3, 41404, Note_on_c, 1, 41, 0
3, 41448, Note_on_c, 1, 34, 74
3, 41460, Note_on_c, 1, 29, 0
3, 41628, Note_on_c, 1, 34, 0
3, 41648, Note_on_c, 1, 34, 82
3, 42232, Note_on_c, 1, 39, 77
3, 42324, Note_on_c, 1, 34, 0
3, 42968, Note_on_c, 1, 39, 0
3, 42980, Note_on_c, 1, 41, 79
3, 43732, Note_on_c, 1, 38, 77
3, 43744, Note_on_c, 1, 41, 0
3, 44132, Note_on_c, 1, 30, 85
3, 44148, Note_on_c, 1, 38, 0
3, 44528, Note_on_c, 1, 30, 0
3, 44540, Note_on_c, 1, 31, 94
3, 45236, Note_on_c, 1, 50, 84
3, 45312, Note_on_c, 1, 50, 0
3, 45320, Note_on_c, 1, 48, 68
3, 45336, Note_on_c, 1, 31, 0
3, 45440, Note_on_c, 1, 35, 64
3, 45464, Note_on_c, 1, 48, 0
3, 45512, Note_on_c, 1, 36, 64
3, 45524, Note_on_c, 1, 35, 0
3, 45696, Note_on_c, 1, 52, 68
3, 45996, Note_on_c, 1, 36, 0
3, 46004, Note_on_c, 1, 40, 57
3, 46068, Note_on_c, 1, 40, 0
3, 46068, Note_on_c, 1, 41, 87
3, 46148, Note_on_c, 1, 52, 0
3, 46836, Note_on_c, 1, 32, 85
3, 46852, Note_on_c, 1, 41, 0
3, 47576, Note_on_c, 1, 37, 82
3, 47596, Note_on_c, 1, 32, 0
3, 48376, Note_on_c, 1, 48, 82
3, 48472, Note_on_c, 1, 37, 0
3, 49036, Note_on_c, 1, 48, 0
3, 49128, Control_c, 1, 0, 0
3, 49128, Control_c, 1, 32, 122
3, 49128, Program_c, 1, 32
3, 49128, Control_c, 1, 7, 127
3, 49128, Control_c, 1, 10, 64
3, 49128, Control_c, 1, 11, 127
3, 49128, Control_c, 1, 91, 16
3, 49128, Control_c, 1, 93, 0
3, 49128, Control_c, 1, 94, 0
3, 49128, Control_c, 1, 101, 0
3, 49129, Control_c, 1, 100, 1
3, 49130, Control_c, 1, 6, 64
3, 49131, Control_c, 1, 38, 0
3, 49131, Pitch_bend_c, 1, 8192
3, 49131, Note_on_c, 1, 41, 66
3, 49876, Note_on_c, 1, 36, 39
3, 49896, Note_on_c, 1, 41, 0
3, 49912, Note_on_c, 1, 36, 0
3, 49920, Note_on_c, 1, 39, 54
3, 49932, Note_on_c, 1, 39, 0
3, 49944, Note_on_c, 1, 42, 79
3, 50252, Note_on_c, 1, 39, 47
3, 50280, Note_on_c, 1, 39, 0
3, 50288, Note_on_c, 1, 42, 0
3, 50312, Note_on_c, 1, 45, 82
3, 50440, Note_on_c, 1, 39, 53
3, 50456, Note_on_c, 1, 39, 0
3, 50512, Note_on_c, 1, 42, 50
3, 50552, Note_on_c, 1, 45, 0
3, 50620, Note_on_c, 1, 42, 0
3, 50628, Note_on_c, 1, 45, 72
3, 50644, Note_on_c, 1, 37, 39
3, 50660, Note_on_c, 1, 37, 0
3, 50680, Note_on_c, 1, 45, 0
3, 50700, Note_on_c, 1, 43, 57
3, 50724, Note_on_c, 1, 43, 0
3, 50816, Note_on_c, 1, 38, 58
3, 50856, Note_on_c, 1, 38, 0
3, 50880, Note_on_c, 1, 30, 75
3, 51060, Note_on_c, 1, 30, 0
3, 51072, Note_on_c, 1, 31, 62
3, 51456, Note_on_c, 1, 31, 0
3, 51460, Note_on_c, 1, 32, 63
3, 51648, Note_on_c, 1, 32, 0
3, 51648, Note_on_c, 1, 41, 43
3, 51792, Note_on_c, 1, 35, 52
3, 51808, Note_on_c, 1, 41, 0
3, 51816, Note_on_c, 1, 35, 0
3, 51844, Note_on_c, 1, 44, 68
3, 51976, Note_on_c, 1, 35, 53
3, 52008, Note_on_c, 1, 35, 0
3, 52016, Note_on_c, 1, 44, 0
3, 52032, Note_on_c, 1, 47, 76
3, 52168, Note_on_c, 1, 35, 48
3, 52192, Note_on_c, 1, 35, 0
3, 52212, Note_on_c, 1, 47, 0
3, 52228, Note_on_c, 1, 45, 66
3, 52864, Note_on_c, 1, 40, 57
3, 52888, Note_on_c, 1, 40, 0
3, 52920, Note_on_c, 1, 35, 66
3, 52976, Note_on_c, 1, 35, 0
3, 52988, Note_on_c, 1, 45, 0
3, 52992, Note_on_c, 1, 36, 66
3, 53400, Note_on_c, 1, 42, 63
3, 53404, Note_on_c, 1, 36, 0
3, 53428, Note_on_c, 1, 42, 0
3, 53468, Note_on_c, 1, 36, 59
3, 53504, Note_on_c, 1, 36, 0
3, 53528, Note_on_c, 1, 41, 74
3, 53624, Note_on_c, 1, 41, 0
3, 53648, Note_on_c, 1, 33, 63
3, 53708, Note_on_c, 1, 33, 0
3, 53712, Note_on_c, 1, 34, 66
3, 54108, Note_on_c, 1, 41, 55
3, 54112, Note_on_c, 1, 34, 0
3, 54392, Note_on_c, 1, 41, 0
3, 54492, Note_on_c, 1, 39, 80
3, 54588, Pitch_bend_c, 1, 8064
3, 54592, Pitch_bend_c, 1, 7808
3, 54596, Pitch_bend_c, 1, 7552
3, 54600, Pitch_bend_c, 1, 7424
3, 54604, Pitch_bend_c, 1, 7040
3, 54608, Pitch_bend_c, 1, 6912
3, 54608, Pitch_bend_c, 1, 6784
3, 54612, Pitch_bend_c, 1, 6656
3, 54616, Pitch_bend_c, 1, 6528
3, 54624, Pitch_bend_c, 1, 6400
3, 54628, Pitch_bend_c, 1, 6144
3, 54632, Pitch_bend_c, 1, 6016
3, 54644, Pitch_bend_c, 1, 6144
3, 54648, Pitch_bend_c, 1, 6400
3, 54652, Pitch_bend_c, 1, 6528
3, 54652, Pitch_bend_c, 1, 6784
3, 54656, Pitch_bend_c, 1, 7296
3, 54660, Pitch_bend_c, 1, 7680
3, 54664, Pitch_bend_c, 1, 8192
3, 54736, Pitch_bend_c, 1, 7808
3, 54736, Pitch_bend_c, 1, 7296
3, 54740, Pitch_bend_c, 1, 6784
3, 54744, Pitch_bend_c, 1, 6400
3, 54748, Pitch_bend_c, 1, 5888
3, 54752, Pitch_bend_c, 1, 5504
3, 54756, Pitch_bend_c, 1, 4992
3, 54756, Pitch_bend_c, 1, 4736
3, 54760, Pitch_bend_c, 1, 4224
3, 54764, Pitch_bend_c, 1, 3968
3, 54768, Pitch_bend_c, 1, 3840
3, 54772, Pitch_bend_c, 1, 3712
3, 54776, Pitch_bend_c, 1, 3456
3, 54784, Pitch_bend_c, 1, 3712
3, 54788, Pitch_bend_c, 1, 3840
3, 54792, Pitch_bend_c, 1, 4096
3, 54796, Pitch_bend_c, 1, 4352
3, 54800, Pitch_bend_c, 1, 4736
3, 54800, Pitch_bend_c, 1, 5120
3, 54804, Pitch_bend_c, 1, 5632
3, 54808, Pitch_bend_c, 1, 6016
3, 54812, Pitch_bend_c, 1, 6656
3, 54816, Pitch_bend_c, 1, 7040
3, 54820, Pitch_bend_c, 1, 7552
3, 54820, Pitch_bend_c, 1, 8064
3, 54824, Pitch_bend_c, 1, 8192
3, 54884, Pitch_bend_c, 1, 7808
3, 54884, Pitch_bend_c, 1, 7296
3, 54888, Pitch_bend_c, 1, 6656
3, 54892, Pitch_bend_c, 1, 6016
3, 54896, Pitch_bend_c, 1, 5632
3, 54900, Pitch_bend_c, 1, 5120
3, 54904, Pitch_bend_c, 1, 4736
3, 54904, Pitch_bend_c, 1, 4352
3, 54908, Pitch_bend_c, 1, 4096
3, 54912, Pitch_bend_c, 1, 3968
3, 54916, Pitch_bend_c, 1, 3840
3, 54920, Pitch_bend_c, 1, 3712
3, 54932, Pitch_bend_c, 1, 3840
3, 54936, Pitch_bend_c, 1, 3968
3, 54940, Pitch_bend_c, 1, 4096
3, 54944, Pitch_bend_c, 1, 4224
3, 54948, Pitch_bend_c, 1, 4608
3, 54948, Pitch_bend_c, 1, 4864
3, 54952, Pitch_bend_c, 1, 5248
3, 54956, Pitch_bend_c, 1, 5760
3, 54960, Pitch_bend_c, 1, 6144
3, 54964, Pitch_bend_c, 1, 6784
3, 54968, Pitch_bend_c, 1, 7296
3, 54968, Pitch_bend_c, 1, 7808
3, 54972, Pitch_bend_c, 1, 8192
3, 55252, Note_on_c, 1, 38, 41
3, 55272, Note_on_c, 1, 38, 0
3, 55312, Note_on_c, 1, 39, 0
3, 55312, Note_on_c, 1, 41, 63
3, 55668, Note_on_c, 1, 41, 0
3, 55680, Note_on_c, 1, 52, 75
3, 56004, Note_on_c, 1, 38, 49
3, 56016, Note_on_c, 1, 38, 0
3, 56028, Note_on_c, 1, 52, 0
3, 56056, Note_on_c, 1, 50, 68
3, 56060, Note_on_c, 1, 51, 54
3, 56072, Note_on_c, 1, 51, 0
3, 56384, Note_on_c, 1, 45, 63
3, 56392, Note_on_c, 1, 50, 0
3, 56420, Note_on_c, 1, 45, 0
3, 56440, Note_on_c, 1, 41, 66
3, 56704, Note_on_c, 1, 38, 47
3, 56724, Note_on_c, 1, 38, 0
3, 56740, Note_on_c, 1, 41, 0
3, 56756, Note_on_c, 1, 30, 69
3, 56812, Note_on_c, 1, 30, 0
3, 56824, Note_on_c, 1, 31, 75
3, 57216, Note_on_c, 1, 38, 80
3, 57240, Note_on_c, 1, 31, 0
3, 57528, Note_on_c, 1, 37, 66
3, 57536, Note_on_c, 1, 38, 0
3, 57592, Note_on_c, 1, 37, 0
3, 57596, Note_on_c, 1, 36, 58
3, 57748, Note_on_c, 1, 34, 48
3, 57752, Note_on_c, 1, 36, 0
3, 57784, Note_on_c, 1, 34, 0
3, 57788, Note_on_c, 1, 36, 50
3, 57792, Note_on_c, 1, 52, 68
3, 57916, Note_on_c, 1, 52, 0
3, 57924, Note_on_c, 1, 36, 0
3, 57924, Note_on_c, 1, 51, 39
3, 57928, Note_on_c, 1, 35, 42
3, 57964, Note_on_c, 1, 51, 0
3, 57980, Note_on_c, 1, 35, 0
3, 57980, Note_on_c, 1, 52, 57
3, 57984, Note_on_c, 1, 36, 54
3, 58244, Note_on_c, 1, 35, 47
3, 58252, Note_on_c, 1, 36, 0
3, 58260, Note_on_c, 1, 52, 0
3, 58288, Note_on_c, 1, 35, 0
3, 58300, Note_on_c, 1, 34, 77
3, 58360, Note_on_c, 1, 34, 0
3, 58372, Note_on_c, 1, 33, 94
3, 59020, Note_on_c, 1, 48, 48
3, 59040, Note_on_c, 1, 48, 0
3, 59084, Note_on_c, 1, 40, 41
3, 59108, Note_on_c, 1, 33, 0
3, 59124, Note_on_c, 1, 40, 0
3, 59156, Note_on_c, 1, 50, 65
3, 59156, Note_on_c, 1, 48, 75
3, 59228, Note_on_c, 1, 48, 0
3, 59352, Note_on_c, 1, 38, 75
3, 59360, Note_on_c, 1, 50, 0
3, 59712, Note_on_c, 1, 30, 82
3, 59716, Note_on_c, 1, 38, 0
3, 59900, Note_on_c, 1, 30, 0
3, 59900, Note_on_c, 1, 31, 82
3, 60532, Note_on_c, 1, 39, 56
3, 60544, Note_on_c, 1, 39, 0
3, 60596, Note_on_c, 1, 31, 0
3, 60596, Note_on_c, 1, 35, 61
3, 60672, Note_on_c, 1, 35, 0
3, 60672, Note_on_c, 1, 36, 68
3, 60976, Note_on_c, 1, 50, 82
3, 61044, Note_on_c, 1, 50, 0
3, 61056, Note_on_c, 1, 48, 68
3, 61256, Note_on_c, 1, 36, 0
3, 61368, Note_on_c, 1, 40, 39
3, 61416, Note_on_c, 1, 40, 0
3, 61416, Note_on_c, 1, 41, 82
3, 61424, Note_on_c, 1, 48, 0
3, 61788, Note_on_c, 1, 41, 0
3, 61792, Note_on_c, 1, 29, 96
3, 62196, Note_on_c, 1, 29, 0
3, 62200, Note_on_c, 1, 30, 82
3, 62608, Note_on_c, 1, 42, 85
3, 62736, Note_on_c, 1, 42, 0
3, 62796, Note_on_c, 1, 42, 76
3, 62824, Note_on_c, 1, 30, 0
3, 62956, Note_on_c, 1, 42, 0
3, 62984, Note_on_c, 1, 43, 78
3, 62996, Control_c, 1, 1, 4
3, 63000, Control_c, 1, 1, 7
3, 63000, Control_c, 1, 1, 11
3, 63004, Control_c, 1, 1, 15
3, 63008, Control_c, 1, 1, 21
3, 63012, Control_c, 1, 1, 25
3, 63016, Control_c, 1, 1, 30
3, 63020, Control_c, 1, 1, 35
3, 63024, Control_c, 1, 1, 40
3, 63024, Control_c, 1, 1, 45
3, 63028, Control_c, 1, 1, 49
3, 63032, Control_c, 1, 1, 53
3, 63036, Control_c, 1, 1, 57
3, 63040, Control_c, 1, 1, 60
3, 63044, Control_c, 1, 1, 64
3, 63044, Control_c, 1, 1, 67
3, 63048, Control_c, 1, 1, 70
3, 63052, Control_c, 1, 1, 74
3, 63056, Control_c, 1, 1, 77
3, 63060, Control_c, 1, 1, 79
3, 63064, Control_c, 1, 1, 82
3, 63064, Control_c, 1, 1, 84
3, 63068, Control_c, 1, 1, 87
3, 63072, Control_c, 1, 1, 89
3, 63076, Control_c, 1, 1, 92
3, 63080, Control_c, 1, 1, 94
3, 63084, Control_c, 1, 1, 95
3, 63084, Control_c, 1, 1, 97
3, 63088, Control_c, 1, 1, 98
3, 63092, Control_c, 1, 1, 99
3, 63096, Control_c, 1, 1, 100
3, 63100, Control_c, 1, 1, 101
3, 63104, Control_c, 1, 1, 102
3, 63108, Control_c, 1, 1, 103
3, 63112, Control_c, 1, 1, 104
3, 63116, Control_c, 1, 1, 105
3, 63120, Control_c, 1, 1, 106
3, 63124, Control_c, 1, 1, 107
3, 63128, Control_c, 1, 1, 108
3, 63128, Control_c, 1, 1, 110
3, 63132, Control_c, 1, 1, 111
3, 63136, Control_c, 1, 1, 112
3, 63140, Control_c, 1, 1, 113
3, 63148, Control_c, 1, 1, 114
3, 63148, Control_c, 1, 1, 115
3, 63152, Control_c, 1, 1, 116
3, 63156, Control_c, 1, 1, 117
3, 63160, Control_c, 1, 1, 118
3, 63168, Control_c, 1, 1, 119
3, 63172, Control_c, 1, 1, 120
3, 63172, Control_c, 1, 1, 121
3, 63188, Control_c, 1, 1, 122
3, 63196, Control_c, 1, 1, 121
3, 63212, Control_c, 1, 1, 120
3, 63216, Control_c, 1, 1, 119
3, 63224, Control_c, 1, 1, 118
3, 63232, Control_c, 1, 1, 117
3, 63240, Control_c, 1, 1, 116
3, 63252, Control_c, 1, 1, 115
3, 63260, Control_c, 1, 1, 114
3, 63272, Control_c, 1, 1, 113
3, 63276, Control_c, 1, 1, 112
3, 63276, Control_c, 1, 1, 111
3, 63280, Control_c, 1, 1, 110
3, 63284, Control_c, 1, 1, 107
3, 63288, Control_c, 1, 1, 106
3, 63292, Control_c, 1, 1, 104
3, 63296, Control_c, 1, 1, 102
3, 63296, Control_c, 1, 1, 101
3, 63300, Control_c, 1, 1, 99
3, 63304, Control_c, 1, 1, 97
3, 63308, Control_c, 1, 1, 94
3, 63312, Control_c, 1, 1, 92
3, 63316, Control_c, 1, 1, 88
3, 63320, Control_c, 1, 1, 85
3, 63320, Control_c, 1, 1, 82
3, 63324, Control_c, 1, 1, 79
3, 63328, Control_c, 1, 1, 75
3, 63332, Control_c, 1, 1, 71
3, 63336, Control_c, 1, 1, 67
3, 63340, Control_c, 1, 1, 64
3, 63340, Control_c, 1, 1, 61
3, 63344, Control_c, 1, 1, 57
3, 63348, Control_c, 1, 1, 53
3, 63352, Control_c, 1, 1, 50
3, 63356, Control_c, 1, 1, 47
3, 63360, Control_c, 1, 1, 44
3, 63360, Control_c, 1, 1, 41
3, 63364, Control_c, 1, 1, 37
3, 63368, Control_c, 1, 1, 33
3, 63372, Control_c, 1, 1, 29
3, 63376, Control_c, 1, 1, 25
3, 63380, Control_c, 1, 1, 21
3, 63380, Control_c, 1, 1, 15
3, 63384, Control_c, 1, 1, 11
3, 63388, Control_c, 1, 1, 6
3, 63392, Control_c, 1, 1, 2
3, 63396, Control_c, 1, 1, 0
3, 63732, Note_on_c, 1, 43, 0
3, 63748, Note_on_c, 1, 44, 81
3, 64028, Control_c, 1, 1, 2
3, 64032, Control_c, 1, 1, 7
3, 64036, Control_c, 1, 1, 13
3, 64036, Control_c, 1, 1, 20
3, 64040, Control_c, 1, 1, 26
3, 64044, Control_c, 1, 1, 30
3, 64048, Control_c, 1, 1, 35
3, 64052, Control_c, 1, 1, 40
3, 64056, Control_c, 1, 1, 44
3, 64060, Control_c, 1, 1, 48
3, 64060, Control_c, 1, 1, 51
3, 64064, Control_c, 1, 1, 55
3, 64068, Control_c, 1, 1, 58
3, 64072, Control_c, 1, 1, 61
3, 64076, Control_c, 1, 1, 64
3, 64080, Control_c, 1, 1, 67
3, 64080, Control_c, 1, 1, 69
3, 64084, Control_c, 1, 1, 71
3, 64088, Control_c, 1, 1, 74
3, 64092, Control_c, 1, 1, 76
3, 64096, Control_c, 1, 1, 78
3, 64100, Control_c, 1, 1, 79
3, 64100, Control_c, 1, 1, 81
3, 64104, Control_c, 1, 1, 83
3, 64108, Control_c, 1, 1, 84
3, 64112, Control_c, 1, 1, 86
3, 64116, Control_c, 1, 1, 88
3, 64120, Control_c, 1, 1, 90
3, 64120, Control_c, 1, 1, 93
3, 64124, Control_c, 1, 1, 95
3, 64128, Control_c, 1, 1, 97
3, 64132, Control_c, 1, 1, 98
3, 64136, Control_c, 1, 1, 100
3, 64140, Control_c, 1, 1, 101
3, 64144, Control_c, 1, 1, 102
3, 64144, Control_c, 1, 1, 103
3, 64148, Control_c, 1, 1, 104
3, 64152, Control_c, 1, 1, 105
3, 64156, Control_c, 1, 1, 106
3, 64160, Control_c, 1, 1, 107
3, 64164, Control_c, 1, 1, 108
3, 64164, Control_c, 1, 1, 110
3, 64168, Control_c, 1, 1, 111
3, 64172, Control_c, 1, 1, 112
3, 64176, Control_c, 1, 1, 113
3, 64180, Control_c, 1, 1, 115
3, 64184, Control_c, 1, 1, 116
3, 64184, Control_c, 1, 1, 117
3, 64188, Control_c, 1, 1, 119
3, 64192, Control_c, 1, 1, 120
3, 64196, Control_c, 1, 1, 121
3, 64200, Control_c, 1, 1, 122
3, 64204, Control_c, 1, 1, 123
3, 64208, Control_c, 1, 1, 124
3, 64216, Control_c, 1, 1, 125
3, 64236, Control_c, 1, 1, 124
3, 64244, Control_c, 1, 1, 123
3, 64248, Control_c, 1, 1, 122
3, 64248, Control_c, 1, 1, 121
3, 64252, Control_c, 1, 1, 120
3, 64256, Control_c, 1, 1, 119
3, 64260, Control_c, 1, 1, 117
3, 64264, Control_c, 1, 1, 116
3, 64268, Control_c, 1, 1, 114
3, 64268, Control_c, 1, 1, 111
3, 64272, Control_c, 1, 1, 108
3, 64276, Control_c, 1, 1, 104
3, 64280, Control_c, 1, 1, 101
3, 64284, Control_c, 1, 1, 97
3, 64288, Control_c, 1, 1, 93
3, 64292, Control_c, 1, 1, 88
3, 64292, Control_c, 1, 1, 84
3, 64296, Control_c, 1, 1, 79
3, 64300, Control_c, 1, 1, 74
3, 64304, Control_c, 1, 1, 69
3, 64308, Control_c, 1, 1, 64
3, 64312, Control_c, 1, 1, 59
3, 64312, Control_c, 1, 1, 53
3, 64316, Control_c, 1, 1, 49
3, 64320, Control_c, 1, 1, 44
3, 64324, Control_c, 1, 1, 40
3, 64328, Control_c, 1, 1, 35
3, 64332, Control_c, 1, 1, 30
3, 64332, Control_c, 1, 1, 26
3, 64336, Control_c, 1, 1, 21
3, 64340, Control_c, 1, 1, 16
3, 64344, Control_c, 1, 1, 12
3, 64348, Control_c, 1, 1, 7
3, 64352, Control_c, 1, 1, 4
3, 64352, Control_c, 1, 1, 0
3, 64536, Note_on_c, 1, 45, 55
3, 64540, Note_on_c, 1, 44, 0
3, 65060, Note_on_c, 1, 41, 38
3, 65080, Note_on_c, 1, 41, 0
3, 65088, Note_on_c, 1, 48, 89
3, 65120, Note_on_c, 1, 45, 0
3, 65384, Note_on_c, 1, 45, 49
3, 65400, Note_on_c, 1, 45, 0
3, 65424, Note_on_c, 1, 48, 0
3, 65444, Note_on_c, 1, 53, 75
3, 65616, Note_on_c, 1, 53, 0
3, 65632, Note_on_c, 1, 41, 54
3, 65832, Note_on_c, 1, 33, 65
3, 65864, Note_on_c, 1, 41, 0
3, 66024, Note_on_c, 1, 34, 74
3, 66028, Note_on_c, 1, 33, 0
3, 66396, Note_on_c, 1, 41, 94
3, 66416, Note_on_c, 1, 34, 0
3, 66784, Note_on_c, 1, 39, 75
3, 66792, Note_on_c, 1, 41, 0
3, 67256, Note_on_c, 1, 39, 0
3, 67304, Note_on_c, 1, 55, 71
3, 67308, Note_on_c, 1, 39, 56
3, 67420, Note_on_c, 1, 39, 0
3, 67432, Note_on_c, 1, 55, 0
3, 67436, Note_on_c, 1, 56, 57
3, 67440, Note_on_c, 1, 40, 61
3, 67556, Note_on_c, 1, 56, 0
3, 67564, Note_on_c, 1, 40, 0
3, 67564, Note_on_c, 1, 57, 54
3, 67568, Note_on_c, 1, 41, 49
3, 68268, Note_on_c, 1, 37, 40
3, 68284, Note_on_c, 1, 41, 0
3, 68336, Note_on_c, 1, 38, 75
3, 68348, Note_on_c, 1, 37, 0
3, 68444, Note_on_c, 1, 57, 0
3, 68660, Note_on_c, 1, 33, 56
3, 68684, Note_on_c, 1, 38, 0
3, 68704, Note_on_c, 1, 33, 0
3, 68720, Note_on_c, 1, 29, 81
3, 69040, Note_on_c, 1, 30, 72
3, 69048, Note_on_c, 1, 29, 0
3, 69100, Note_on_c, 1, 30, 0
3, 69108, Note_on_c, 1, 31, 72
3, 69692, Note_on_c, 1, 38, 58
3, 69736, Note_on_c, 1, 31, 0
3, 69780, Note_on_c, 1, 38, 0
3, 69808, Note_on_c, 1, 37, 60
3, 69876, Note_on_c, 1, 37, 0
3, 69880, Note_on_c, 1, 36, 61
3, 70332, Note_on_c, 1, 31, 60
3, 70344, Note_on_c, 1, 36, 0
3, 70364, Note_on_c, 1, 31, 0
3, 70392, Note_on_c, 1, 27, 83
3, 70416, Note_on_c, 1, 27, 0
3, 70456, Note_on_c, 1, 28, 77
3, 70616, Note_on_c, 1, 28, 0
3, 70632, Note_on_c, 1, 29, 74
3, 71320, Note_on_c, 1, 36, 54
3, 71376, Note_on_c, 1, 29, 0
3, 71384, Note_on_c, 1, 36, 0
3, 71396, Note_on_c, 1, 34, 66
3, 71592, Note_on_c, 1, 50, 70
3, 72188, Note_on_c, 1, 39, 89
3, 72200, Note_on_c, 1, 34, 0
3, 72208, Note_on_c, 1, 50, 0
3, 72768, Note_on_c, 1, 45, 78
3, 72792, Note_on_c, 1, 39, 0
3, 72896, Note_on_c, 1, 39, 46
3, 72900, Note_on_c, 1, 45, 0
3, 72968, Note_on_c, 1, 44, 65
3, 72972, Note_on_c, 1, 39, 0
3, 73012, Note_on_c, 1, 44, 0
3, 73092, Note_on_c, 1, 39, 52
3, 73156, Note_on_c, 1, 32, 74
3, 73160, Note_on_c, 1, 39, 0
3, 73352, Note_on_c, 1, 38, 78
3, 73360, Note_on_c, 1, 32, 0
3, 73656, Note_on_c, 1, 32, 56
3, 73660, Note_on_c, 1, 38, 0
3, 73724, Note_on_c, 1, 37, 83
3, 73728, Note_on_c, 1, 32, 0
3, 74412, Note_on_c, 1, 37, 0
3, 74416, Note_on_c, 1, 35, 63
3, 74484, Note_on_c, 1, 35, 0
3, 74488, Note_on_c, 1, 34, 68
3, 74788, Note_on_c, 1, 37, 36
3, 74832, Note_on_c, 1, 37, 0
3, 74836, Note_on_c, 1, 41, 82
3, 74844, Note_on_c, 1, 34, 0
3, 75004, Note_on_c, 1, 41, 0
3, 75028, Note_on_c, 1, 40, 83
3, 75216, Note_on_c, 1, 39, 78
3, 75224, Note_on_c, 1, 40, 0
3, 75600, Note_on_c, 1, 39, 0
3, 75600, Note_on_c, 1, 33, 79
3, 75616, Note_on_c, 1, 34, 31
3, 75636, Note_on_c, 1, 34, 0
3, 76004, Note_on_c, 1, 33, 0
3, 76004, Note_on_c, 1, 32, 63
3, 76336, Note_on_c, 1, 42, 41
3, 76368, Note_on_c, 1, 42, 0
3, 76400, Note_on_c, 1, 44, 89
3, 76408, Note_on_c, 1, 32, 0
3, 76528, Note_on_c, 1, 32, 57
3, 76568, Note_on_c, 1, 44, 0
3, 76596, Note_on_c, 1, 42, 84
3, 76608, Note_on_c, 1, 32, 0
3, 76732, Note_on_c, 1, 32, 55
3, 76768, Note_on_c, 1, 32, 0
3, 76788, Note_on_c, 1, 42, 0
3, 76796, Note_on_c, 1, 41, 81
3, 77452, Note_on_c, 1, 36, 44
3, 77476, Note_on_c, 1, 36, 0
3, 77488, Note_on_c, 1, 41, 0
3, 77508, Note_on_c, 1, 33, 54
3, 77560, Note_on_c, 1, 33, 0
3, 77580, Note_on_c, 1, 34, 73
3, 77972, Note_on_c, 1, 41, 81
3, 78088, Note_on_c, 1, 34, 0
3, 78276, Note_on_c, 1, 34, 50
3, 78300, Note_on_c, 1, 41, 0
3, 78332, Note_on_c, 1, 34, 0
3, 78332, Note_on_c, 1, 39, 77
3, 78704, Note_on_c, 1, 39, 0
3, 78708, Note_on_c, 1, 33, 78
3, 79096, Note_on_c, 1, 32, 73
3, 79100, Note_on_c, 1, 33, 0
3, 79488, Note_on_c, 1, 44, 85
3, 79656, Note_on_c, 1, 44, 0
3, 79676, Note_on_c, 1, 44, 85
3, 79748, Note_on_c, 1, 32, 0
3, 80068, Note_on_c, 1, 32, 65
3, 80244, Note_on_c, 1, 44, 0
3, 80264, Note_on_c, 1, 37, 68
3, 80300, Note_on_c, 1, 32, 0
3, 80448, Note_on_c, 1, 49, 84
3, 80500, Note_on_c, 1, 37, 0
3, 80632, Note_on_c, 1, 49, 0
3, 80636, Note_on_c, 1, 48, 78
3, 80980, Note_on_c, 1, 37, 38
3, 80992, Note_on_c, 1, 48, 0
3, 81016, Note_on_c, 1, 48, 88
3, 81020, Note_on_c, 1, 37, 0
3, 81316, Note_on_c, 1, 41, 43
3, 81336, Note_on_c, 1, 41, 0
3, 81372, Note_on_c, 1, 48, 0
3, 81372, Note_on_c, 1, 46, 82
3, 81720, Note_on_c, 1, 46, 0
3, 81744, Note_on_c, 1, 46, 82
3, 82152, Note_on_c, 1, 44, 87
3, 82164, Note_on_c, 1, 46, 0
3, 82500, Note_on_c, 1, 44, 0
3, 82528, Note_on_c, 1, 44, 77
3, 82856, Note_on_c, 1, 42, 41
3, 82876, Note_on_c, 1, 44, 0
3, 82908, Note_on_c, 1, 43, 81
3, 82916, Note_on_c, 1, 42, 0
3, 83620, Note_on_c, 1, 49, 52
3, 83688, Note_on_c, 1, 49, 0
3, 83708, Note_on_c, 1, 55, 90
3, 83744, Note_on_c, 1, 43, 0
3, 83968, Pitch_bend_c, 1, 8322
3, 83972, Pitch_bend_c, 1, 8712
3, 83972, Pitch_bend_c, 1, 8972
3, 83976, Pitch_bend_c, 1, 9492
3, 83980, Pitch_bend_c, 1, 9752
3, 83984, Pitch_bend_c, 1, 10272
3, 83988, Pitch_bend_c, 1, 10532
3, 83992, Pitch_bend_c, 1, 10792
3, 83992, Pitch_bend_c, 1, 11182
3, 83996, Pitch_bend_c, 1, 11442
3, 84000, Pitch_bend_c, 1, 11702
3, 84004, Pitch_bend_c, 1, 11832
3, 84008, Pitch_bend_c, 1, 12222
3, 84012, Pitch_bend_c, 1, 12352
3, 84012, Pitch_bend_c, 1, 12612
3, 84016, Pitch_bend_c, 1, 12742
3, 84020, Pitch_bend_c, 1, 13132
3, 84024, Pitch_bend_c, 1, 13262
3, 84028, Pitch_bend_c, 1, 13522
3, 84032, Pitch_bend_c, 1, 13652
3, 84036, Pitch_bend_c, 1, 13912
3, 84036, Pitch_bend_c, 1, 14042
3, 84040, Pitch_bend_c, 1, 14172
3, 84056, Pitch_bend_c, 1, 14042
3, 84056, Pitch_bend_c, 1, 13912
3, 84060, Pitch_bend_c, 1, 13652
3, 84064, Pitch_bend_c, 1, 13392
3, 84068, Pitch_bend_c, 1, 13262
3, 84072, Pitch_bend_c, 1, 13002
3, 84076, Pitch_bend_c, 1, 12612
3, 84076, Pitch_bend_c, 1, 12352
3, 84080, Pitch_bend_c, 1, 12092
3, 84084, Pitch_bend_c, 1, 11702
3, 84088, Pitch_bend_c, 1, 11442
3, 84092, Pitch_bend_c, 1, 10922
3, 84096, Pitch_bend_c, 1, 10662
3, 84100, Pitch_bend_c, 1, 10402
3, 84100, Pitch_bend_c, 1, 9882
3, 84104, Pitch_bend_c, 1, 9622
3, 84108, Pitch_bend_c, 1, 9362
3, 84112, Pitch_bend_c, 1, 8972
3, 84116, Pitch_bend_c, 1, 8712
3, 84120, Pitch_bend_c, 1, 8452
3, 84120, Pitch_bend_c, 1, 8192
3, 84200, Pitch_bend_c, 1, 8452
3, 84204, Pitch_bend_c, 1, 8712
3, 84204, Pitch_bend_c, 1, 8842
3, 84208, Pitch_bend_c, 1, 9102
3, 84212, Pitch_bend_c, 1, 9362
3, 84216, Pitch_bend_c, 1, 9492
3, 84220, Pitch_bend_c, 1, 9622
3, 84224, Pitch_bend_c, 1, 9752
3, 84252, Pitch_bend_c, 1, 9622
3, 84260, Pitch_bend_c, 1, 9492
3, 84264, Pitch_bend_c, 1, 9102
3, 84268, Pitch_bend_c, 1, 8972
3, 84268, Pitch_bend_c, 1, 8712
3, 84272, Pitch_bend_c, 1, 8582
3, 84276, Pitch_bend_c, 1, 8192
3, 84660, Note_on_c, 1, 48, 80
3, 84664, Note_on_c, 1, 55, 0
3, 84796, Note_on_c, 1, 48, 0
3, 84836, Control_c, 1, 1, 1
3, 84840, Control_c, 1, 1, 4
3, 84844, Control_c, 1, 1, 7
3, 84848, Control_c, 1, 1, 11
3, 84848, Note_on_c, 1, 48, 75
3, 84852, Control_c, 1, 1, 15
3, 84856, Control_c, 1, 1, 20
3, 84860, Control_c, 1, 1, 25
3, 84860, Control_c, 1, 1, 29
3, 84864, Control_c, 1, 1, 34
3, 84868, Control_c, 1, 1, 39
3, 84872, Control_c, 1, 1, 44
3, 84876, Control_c, 1, 1, 48
3, 84880, Control_c, 1, 1, 53
3, 84880, Control_c, 1, 1, 58
3, 84884, Control_c, 1, 1, 62
3, 84888, Control_c, 1, 1, 66
3, 84892, Control_c, 1, 1, 69
3, 84896, Control_c, 1, 1, 74
3, 84900, Control_c, 1, 1, 77
3, 84900, Control_c, 1, 1, 80
3, 84904, Control_c, 1, 1, 82
3, 84908, Control_c, 1, 1, 85
3, 84912, Control_c, 1, 1, 87
3, 84916, Control_c, 1, 1, 90
3, 84920, Control_c, 1, 1, 93
3, 84924, Control_c, 1, 1, 96
3, 84924, Control_c, 1, 1, 98
3, 84928, Control_c, 1, 1, 100
3, 84932, Control_c, 1, 1, 102
3, 84936, Control_c, 1, 1, 104
3, 84940, Control_c, 1, 1, 105
3, 84944, Control_c, 1, 1, 107
3, 84944, Control_c, 1, 1, 108
3, 84948, Control_c, 1, 1, 110
3, 84952, Control_c, 1, 1, 111
3, 84956, Control_c, 1, 1, 112
3, 84960, Control_c, 1, 1, 113
3, 84964, Control_c, 1, 1, 114
3, 84964, Control_c, 1, 1, 115
3, 84972, Control_c, 1, 1, 116
3, 84984, Control_c, 1, 1, 117
3, 84992, Control_c, 1, 1, 116
3, 85004, Control_c, 1, 1, 115
3, 85008, Control_c, 1, 1, 114
3, 85008, Control_c, 1, 1, 113
3, 85012, Control_c, 1, 1, 112
3, 85016, Control_c, 1, 1, 111
3, 85020, Control_c, 1, 1, 110
3, 85024, Control_c, 1, 1, 108
3, 85028, Control_c, 1, 1, 107
3, 85028, Control_c, 1, 1, 105
3, 85032, Control_c, 1, 1, 104
3, 85036, Control_c, 1, 1, 103
3, 85040, Control_c, 1, 1, 101
3, 85044, Control_c, 1, 1, 100
3, 85048, Control_c, 1, 1, 99
3, 85048, Control_c, 1, 1, 97
3, 85052, Control_c, 1, 1, 96
3, 85056, Control_c, 1, 1, 95
3, 85060, Control_c, 1, 1, 94
3, 85064, Control_c, 1, 1, 93
3, 85068, Control_c, 1, 1, 92
3, 85072, Control_c, 1, 1, 90
3, 85076, Control_c, 1, 1, 89
3, 85080, Control_c, 1, 1, 88
3, 85084, Control_c, 1, 1, 87
3, 85088, Control_c, 1, 1, 86
3, 85092, Control_c, 1, 1, 85
3, 85092, Control_c, 1, 1, 83
3, 85096, Control_c, 1, 1, 81
3, 85100, Control_c, 1, 1, 79
3, 85104, Control_c, 1, 1, 77
3, 85108, Control_c, 1, 1, 74
3, 85112, Control_c, 1, 1, 70
3, 85112, Control_c, 1, 1, 68
3, 85116, Control_c, 1, 1, 65
3, 85120, Control_c, 1, 1, 62
3, 85124, Control_c, 1, 1, 60
3, 85128, Control_c, 1, 1, 57
3, 85132, Control_c, 1, 1, 53
3, 85132, Control_c, 1, 1, 50
3, 85136, Control_c, 1, 1, 47
3, 85140, Control_c, 1, 1, 43
3, 85144, Control_c, 1, 1, 40
3, 85148, Control_c, 1, 1, 35
3, 85152, Control_c, 1, 1, 32
3, 85156, Control_c, 1, 1, 29
3, 85156, Control_c, 1, 1, 26
3, 85160, Control_c, 1, 1, 23
3, 85164, Control_c, 1, 1, 20
3, 85168, Control_c, 1, 1, 17
3, 85172, Control_c, 1, 1, 14
3, 85176, Control_c, 1, 1, 11
3, 85176, Control_c, 1, 1, 9
3, 85180, Control_c, 1, 1, 7
3, 85184, Control_c, 1, 1, 4
3, 85188, Control_c, 1, 1, 2
3, 85192, Control_c, 1, 1, 0
3, 85588, Note_on_c, 1, 37, 27
3, 85640, Note_on_c, 1, 37, 0
3, 85652, Note_on_c, 1, 42, 65
3, 85824, Note_on_c, 1, 30, 68
3, 85828, Note_on_c, 1, 42, 0
3, 85852, Note_on_c, 1, 48, 0
3, 86020, Note_on_c, 1, 29, 85
3, 86024, Note_on_c, 1, 30, 0
3, 86768, Note_on_c, 1, 30, 85
3, 86780, Note_on_c, 1, 29, 0
3, 87536, Note_on_c, 1, 30, 0
3, 87540, Note_on_c, 1, 31, 92
3, 88308, Note_on_c, 1, 32, 85
3, 88324, Note_on_c, 1, 31, 0
3, 89060, Note_on_c, 1, 33, 87
3, 89068, Note_on_c, 1, 32, 0
3, 89780, Note_on_c, 1, 38, 45
3, 89804, Note_on_c, 1, 38, 0
3, 89848, Note_on_c, 1, 48, 81
3, 89852, Note_on_c, 1, 33, 0
3, 90364, Note_on_c, 1, 41, 43
3, 90368, Note_on_c, 1, 43, 41
3, 90380, Note_on_c, 1, 43, 0
3, 90444, Note_on_c, 1, 29, 79
3, 90452, Note_on_c, 1, 48, 0
3, 90620, Note_on_c, 1, 29, 0
3, 90632, Note_on_c, 1, 34, 82
3, 90652, Note_on_c, 1, 41, 0
3, 90996, Note_on_c, 1, 41, 87
3, 91020, Note_on_c, 1, 34, 0
3, 91316, Note_on_c, 1, 34, 37
3, 91340, Note_on_c, 1, 41, 0
3, 91364, Note_on_c, 1, 34, 0
3, 91364, Note_on_c, 1, 39, 84
3, 91956, Note_on_c, 1, 40, 86
3, 91960, Note_on_c, 1, 39, 0
3, 92144, Note_on_c, 1, 41, 92
3, 92156, Note_on_c, 1, 40, 0
3, 92896, Note_on_c, 1, 38, 82
3, 92904, Note_on_c, 1, 41, 0
3, 93276, Note_on_c, 1, 30, 87
3, 93288, Note_on_c, 1, 38, 0
3, 93668, Note_on_c, 1, 31, 92
3, 93672, Note_on_c, 1, 30, 0
3, 94376, Note_on_c, 1, 50, 99
3, 94464, Note_on_c, 1, 50, 0
3, 94472, Note_on_c, 1, 48, 85
3, 94532, Note_on_c, 1, 31, 0
3, 94844, Note_on_c, 1, 46, 89
3, 94880, Note_on_c, 1, 48, 0
3, 95216, Note_on_c, 1, 46, 0
3, 95220, Note_on_c, 1, 45, 89
3, 96020, Note_on_c, 1, 39, 87
3, 96036, Note_on_c, 1, 45, 0
3, 96504, Note_on_c, 1, 39, 0
3, 96504, Note_on_c, 1, 36, 82
3, 96640, Note_on_c, 1, 37, 85
3, 96648, Note_on_c, 1, 36, 0
3, 96768, Note_on_c, 1, 38, 90
3, 96784, Note_on_c, 1, 37, 0
3, 96996, Note_on_c, 1, 52, 44
3, 97052, Note_on_c, 1, 52, 0
3, 97060, Note_on_c, 1, 53, 66
3, 97112, Note_on_c, 1, 53, 0
3, 97124, Note_on_c, 1, 54, 78
3, 97892, Note_on_c, 1, 32, 84
3, 97900, Note_on_c, 1, 38, 0
3, 98072, Note_on_c, 1, 54, 0
3, 98308, Note_on_c, 1, 31, 76
3, 98320, Note_on_c, 1, 32, 0
3, 98852, Note_on_c, 1, 33, 82
3, 98868, Note_on_c, 1, 31, 0
3, 99064, Note_on_c, 1, 34, 77
3, 99072, Note_on_c, 1, 33, 0
3, 99448, Note_on_c, 1, 35, 79
3, 99456, Note_on_c, 1, 34, 0
3, 99836, Note_on_c, 1, 35, 0
3, 99836, Note_on_c, 1, 36, 84
3, 100212, Note_on_c, 1, 48, 88
3, 100856, Note_on_c, 1, 36, 0
3, 100984, Note_on_c, 1, 36, 87
3, 101032, Note_on_c, 1, 48, 0
3, 101388, Note_on_c, 1, 36, 0
3, 101392, Note_on_c, 1, 29, 94
3, 103140, Note_on_c, 1, 29, 0
3, 103140, End_track
4, 0, Start_track
4, 0, Title_t, "Drums"
4, 0, Program_c, 9, 0
4, 0, Control_c, 9, 7, 60
4, 4, Note_on_c, 9, 35, 12
4, 4, Note_on_c, 9, 51, 52
4, 4, Note_on_c, 9, 57, 29
4, 32, Note_on_c, 9, 57, 0
4, 36, Note_on_c, 9, 35, 0
4, 356, Note_on_c, 9, 51, 65
4, 360, Note_on_c, 9, 44, 73
4, 382, Note_on_c, 9, 51, 0
4, 744, Note_on_c, 9, 51, 0
4, 756, Note_on_c, 9, 51, 55
4, 782, Note_on_c, 9, 44, 0
4, 1128, Note_on_c, 9, 51, 0
4, 1128, Note_on_c, 9, 44, 77
4, 1150, Note_on_c, 9, 51, 67
4, 1512, Note_on_c, 9, 51, 0
4, 1528, Note_on_c, 9, 51, 50
4, 1568, Note_on_c, 9, 44, 0
4, 1896, Note_on_c, 9, 51, 0
4, 1896, Note_on_c, 9, 44, 70
4, 1914, Note_on_c, 9, 51, 62
4, 2264, Note_on_c, 9, 44, 0
4, 2280, Note_on_c, 9, 51, 0
4, 2318, Note_on_c, 9, 51, 67
4, 2602, Note_on_c, 9, 53, 46
4, 2648, Note_on_c, 9, 53, 0
4, 2664, Note_on_c, 9, 51, 0
4, 2664, Note_on_c, 9, 46, 39
4, 2680, Note_on_c, 9, 51, 50
4, 2682, Note_on_c, 9, 46, 0
4, 2880, Note_on_c, 9, 51, 52
4, 3048, Note_on_c, 9, 51, 0
4, 3060, Note_on_c, 9, 51, 57
4, 3432, Note_on_c, 9, 51, 0
4, 3432, Note_on_c, 9, 51, 0
4, 3432, Note_on_c, 9, 44, 52
4, 3464, Note_on_c, 9, 51, 62
4, 3514, Note_on_c, 9, 44, 0
4, 3816, Note_on_c, 9, 51, 0
4, 3854, Note_on_c, 9, 51, 52
4, 4200, Note_on_c, 9, 51, 0
4, 4200, Note_on_c, 9, 44, 61
4, 4212, Note_on_c, 9, 51, 52
4, 4320, Note_on_c, 9, 44, 0
4, 4584, Note_on_c, 9, 51, 0
4, 4586, Note_on_c, 9, 51, 47
4, 4968, Note_on_c, 9, 51, 0
4, 4968, Note_on_c, 9, 44, 62
4, 4990, Note_on_c, 9, 51, 52
4, 5028, Note_on_c, 9, 44, 0
4, 5352, Note_on_c, 9, 51, 0
4, 5360, Note_on_c, 9, 51, 55
4, 5550, Note_on_c, 9, 51, 47
4, 5736, Note_on_c, 9, 51, 0
4, 5736, Note_on_c, 9, 44, 51
4, 5736, Note_on_c, 9, 51, 67
4, 5834, Note_on_c, 9, 44, 0
4, 6024, Note_on_c, 9, 35, 13
4, 6040, Note_on_c, 9, 35, 0
4, 6120, Note_on_c, 9, 51, 0
4, 6120, Note_on_c, 9, 51, 0
4, 6128, Note_on_c, 9, 51, 77
4, 6504, Note_on_c, 9, 51, 0
4, 6504, Note_on_c, 9, 44, 52
4, 6528, Note_on_c, 9, 51, 52
4, 6568, Note_on_c, 9, 44, 0
4, 6810, Note_on_c, 9, 35, 16
4, 6826, Note_on_c, 9, 35, 0
4, 6888, Note_on_c, 9, 51, 0
4, 6920, Note_on_c, 9, 51, 77
4, 7272, Note_on_c, 9, 51, 0
4, 7272, Note_on_c, 9, 44, 55
4, 7300, Note_on_c, 9, 51, 70
4, 7332, Note_on_c, 9, 44, 0
4, 7480, Note_on_c, 9, 53, 46
4, 7578, Note_on_c, 9, 53, 0
4, 7656, Note_on_c, 9, 51, 0
4, 7680, Note_on_c, 9, 51, 52
4, 8040, Note_on_c, 9, 51, 0
4, 8040, Note_on_c, 9, 44, 56
4, 8052, Note_on_c, 9, 51, 55
4, 8088, Note_on_c, 9, 44, 0
4, 8330, Note_on_c, 9, 35, 15
4, 8376, Note_on_c, 9, 35, 0
4, 8424, Note_on_c, 9, 51, 0
4, 8426, Note_on_c, 9, 35, 18
4, 8440, Note_on_c, 9, 51, 57
4, 8442, Note_on_c, 9, 59, 34
4, 8452, Note_on_c, 9, 35, 0
4, 8474, Note_on_c, 9, 59, 0
4, 8616, Note_on_c, 9, 35, 16
4, 8632, Note_on_c, 9, 59, 38
4, 8664, Note_on_c, 9, 35, 0
4, 8676, Note_on_c, 9, 59, 0
4, 8808, Note_on_c, 9, 51, 0
4, 8808, Note_on_c, 9, 46, 25
4, 8816, Note_on_c, 9, 51, 65
4, 8856, Note_on_c, 9, 46, 0
4, 9192, Note_on_c, 9, 51, 0
4, 9194, Note_on_c, 9, 51, 77
4, 9200, Note_on_c, 9, 51, 62
4, 9576, Note_on_c, 9, 51, 0
4, 9576, Note_on_c, 9, 51, 0
4, 9576, Note_on_c, 9, 44, 69
4, 9582, Note_on_c, 9, 51, 72
4, 9684, Note_on_c, 9, 44, 0
4, 9764, Note_on_c, 9, 53, 62
4, 9940, Note_on_c, 9, 53, 0
4, 9956, Note_on_c, 9, 51, 62
4, 9960, Note_on_c, 9, 51, 0
4, 10344, Note_on_c, 9, 51, 0
4, 10344, Note_on_c, 9, 44, 53
4, 10346, Note_on_c, 9, 51, 60
4, 10436, Note_on_c, 9, 44, 0
4, 10634, Note_on_c, 9, 35, 24
4, 10650, Note_on_c, 9, 35, 0
4, 10714, Note_on_c, 9, 35, 17
4, 10728, Note_on_c, 9, 51, 0
4, 10728, Note_on_c, 9, 59, 40
4, 10728, Note_on_c, 9, 51, 55
4, 10772, Note_on_c, 9, 35, 0
4, 10778, Note_on_c, 9, 59, 0
4, 11112, Note_on_c, 9, 51, 0
4, 11112, Note_on_c, 9, 44, 71
4, 11118, Note_on_c, 9, 51, 52
4, 11176, Note_on_c, 9, 44, 0
4, 11496, Note_on_c, 9, 51, 0
4, 11496, Note_on_c, 9, 35, 16
4, 11498, Note_on_c, 9, 51, 67
4, 11524, Note_on_c, 9, 35, 0
4, 11690, Note_on_c, 9, 35, 17
4, 11784, Note_on_c, 9, 35, 0
4, 11876, Note_on_c, 9, 51, 65
4, 11880, Note_on_c, 9, 51, 0
4, 11880, Note_on_c, 9, 46, 55
4, 11908, Note_on_c, 9, 46, 0
4, 12010, Note_on_c, 9, 35, 30
4, 12036, Note_on_c, 9, 35, 0
4, 12088, Note_on_c, 9, 35, 23
4, 12104, Note_on_c, 9, 59, 26
4, 12106, Note_on_c, 9, 35, 0
4, 12120, Note_on_c, 9, 59, 0
4, 12244, Note_on_c, 9, 51, 70
4, 12264, Note_on_c, 9, 51, 0
4, 12264, Note_on_c, 9, 35, 23
4, 12280, Note_on_c, 9, 59, 54
4, 12286, Note_on_c, 9, 35, 0
4, 12298, Note_on_c, 9, 59, 0
4, 12474, Note_on_c, 9, 35, 16
4, 12488, Note_on_c, 9, 59, 61
4, 12522, Note_on_c, 9, 59, 0
4, 12554, Note_on_c, 9, 35, 0
4, 12648, Note_on_c, 9, 51, 0
4, 12648, Note_on_c, 9, 44, 45
4, 12666, Note_on_c, 9, 51, 60
4, 12702, Note_on_c, 9, 44, 0
4, 13032, Note_on_c, 9, 51, 0
4, 13048, Note_on_c, 9, 51, 70
4, 13416, Note_on_c, 9, 51, 0
4, 13416, Note_on_c, 9, 44, 70
4, 13424, Note_on_c, 9, 51, 47
4, 13518, Note_on_c, 9, 44, 0
4, 13800, Note_on_c, 9, 51, 0
4, 13818, Note_on_c, 9, 51, 80
4, 14184, Note_on_c, 9, 51, 0
4, 14184, Note_on_c, 9, 44, 75
4, 14216, Note_on_c, 9, 51, 50
4, 14296, Note_on_c, 9, 44, 0
4, 14568, Note_on_c, 9, 51, 0
4, 14576, Note_on_c, 9, 51, 47
4, 14952, Note_on_c, 9, 51, 0
4, 14952, Note_on_c, 9, 44, 69
4, 14952, Note_on_c, 9, 51, 50
4, 15064, Note_on_c, 9, 44, 0
4, 15072, Note_on_c, 9, 53, 56
4, 15230, Note_on_c, 9, 53, 0
4, 15258, Note_on_c, 9, 51, 60
4, 15336, Note_on_c, 9, 51, 0
4, 15342, Note_on_c, 9, 51, 37
4, 15712, Note_on_c, 9, 51, 52
4, 15720, Note_on_c, 9, 51, 0
4, 15720, Note_on_c, 9, 51, 0
4, 15720, Note_on_c, 9, 44, 69
4, 15838, Note_on_c, 9, 44, 0
4, 16100, Note_on_c, 9, 51, 55
4, 16104, Note_on_c, 9, 51, 0
4, 16308, Note_on_c, 9, 53, 50
4, 16480, Note_on_c, 9, 53, 0
4, 16488, Note_on_c, 9, 51, 0
4, 16488, Note_on_c, 9, 44, 70
4, 16500, Note_on_c, 9, 51, 45
4, 16584, Note_on_c, 9, 44, 0
4, 16688, Note_on_c, 9, 51, 47
4, 16872, Note_on_c, 9, 51, 0
4, 16874, Note_on_c, 9, 51, 60
4, 17256, Note_on_c, 9, 51, 0
4, 17256, Note_on_c, 9, 51, 0
4, 17256, Note_on_c, 9, 44, 62
4, 17284, Note_on_c, 9, 51, 52
4, 17306, Note_on_c, 9, 37, 25
4, 17322, Note_on_c, 9, 37, 0
4, 17342, Note_on_c, 9, 44, 0
4, 17640, Note_on_c, 9, 51, 0
4, 17656, Note_on_c, 9, 51, 52
4, 18024, Note_on_c, 9, 51, 0
4, 18024, Note_on_c, 9, 44, 64
4, 18024, Note_on_c, 9, 51, 75
4, 18096, Note_on_c, 9, 44, 0
4, 18362, Note_on_c, 9, 35, 18
4, 18388, Note_on_c, 9, 35, 0
4, 18398, Note_on_c, 9, 51, 62
4, 18408, Note_on_c, 9, 51, 0
4, 18448, Note_on_c, 9, 35, 16
4, 18516, Note_on_c, 9, 35, 0
4, 18638, Note_on_c, 9, 35, 17
4, 18648, Note_on_c, 9, 59, 60
4, 18664, Note_on_c, 9, 59, 0
4, 18688, Note_on_c, 9, 35, 0
4, 18792, Note_on_c, 9, 51, 0
4, 18792, Note_on_c, 9, 44, 55
4, 18808, Note_on_c, 9, 51, 62
4, 18826, Note_on_c, 9, 44, 0
4, 19160, Note_on_c, 9, 51, 75
4, 19176, Note_on_c, 9, 51, 0
4, 19536, Note_on_c, 9, 53, 68
4, 19560, Note_on_c, 9, 51, 0
4, 19560, Note_on_c, 9, 44, 74
4, 19626, Note_on_c, 9, 44, 0
4, 19712, Note_on_c, 9, 53, 0
4, 19742, Note_on_c, 9, 51, 55
4, 19936, Note_on_c, 9, 51, 62
4, 19944, Note_on_c, 9, 51, 0
4, 20152, Note_on_c, 9, 51, 67
4, 20328, Note_on_c, 9, 51, 0
4, 20328, Note_on_c, 9, 44, 75
4, 20328, Note_on_c, 9, 44, 70
4, 20328, Note_on_c, 9, 44, 58
4, 20368, Note_on_c, 9, 44, 0
4, 20388, Note_on_c, 9, 44, 0
4, 20478, Note_on_c, 9, 44, 0
4, 20712, Note_on_c, 9, 51, 0
4, 20728, Note_on_c, 9, 51, 75
4, 21096, Note_on_c, 9, 51, 0
4, 21096, Note_on_c, 9, 44, 54
4, 21096, Note_on_c, 9, 44, 55
4, 21124, Note_on_c, 9, 51, 60
4, 21146, Note_on_c, 9, 44, 0
4, 21268, Note_on_c, 9, 44, 0
4, 21480, Note_on_c, 9, 51, 0
4, 21512, Note_on_c, 9, 51, 62
4, 21864, Note_on_c, 9, 51, 0
4, 21864, Note_on_c, 9, 44, 56
4, 21864, Note_on_c, 9, 44, 60
4, 21898, Note_on_c, 9, 51, 60
4, 21908, Note_on_c, 9, 35, 14
4, 21912, Note_on_c, 9, 44, 0
4, 21924, Note_on_c, 9, 35, 0
4, 21992, Note_on_c, 9, 44, 0
4, 22094, Note_on_c, 9, 51, 65
4, 22248, Note_on_c, 9, 51, 0
4, 22280, Note_on_c, 9, 51, 67
4, 22462, Note_on_c, 9, 35, 13
4, 22580, Note_on_c, 9, 35, 0
4, 22632, Note_on_c, 9, 51, 0
4, 22632, Note_on_c, 9, 51, 0
4, 22632, Note_on_c, 9, 44, 51
4, 22632, Note_on_c, 9, 44, 62
4, 22640, Note_on_c, 9, 51, 55
4, 22664, Note_on_c, 9, 44, 0
4, 22736, Note_on_c, 9, 44, 0
4, 23016, Note_on_c, 9, 51, 0
4, 23032, Note_on_c, 9, 51, 60
4, 23400, Note_on_c, 9, 51, 0
4, 23400, Note_on_c, 9, 44, 58
4, 23400, Note_on_c, 9, 44, 60
4, 23428, Note_on_c, 9, 44, 0
4, 23434, Note_on_c, 9, 51, 55
4, 23504, Note_on_c, 9, 44, 0
4, 23616, Note_on_c, 9, 35, 14
4, 23648, Note_on_c, 9, 35, 0
4, 23784, Note_on_c, 9, 51, 0
4, 23792, Note_on_c, 9, 51, 65
4, 24008, Note_on_c, 9, 53, 36
4, 24168, Note_on_c, 9, 51, 0
4, 24168, Note_on_c, 9, 46, 44
4, 24168, Note_on_c, 9, 46, 34
4, 24170, Note_on_c, 9, 53, 0
4, 24190, Note_on_c, 9, 46, 0
4, 24190, Note_on_c, 9, 51, 55
4, 24280, Note_on_c, 9, 46, 0
4, 24388, Note_on_c, 9, 53, 35
4, 24468, Note_on_c, 9, 35, 15
4, 24494, Note_on_c, 9, 53, 0
4, 24496, Note_on_c, 9, 35, 0
4, 24538, Note_on_c, 9, 51, 37
4, 24552, Note_on_c, 9, 51, 0
4, 24560, Note_on_c, 9, 35, 18
4, 24584, Note_on_c, 9, 59, 40
4, 24586, Note_on_c, 9, 51, 52
4, 24648, Note_on_c, 9, 35, 0
4, 24672, Note_on_c, 9, 59, 0
4, 24756, Note_on_c, 9, 35, 18
4, 24776, Note_on_c, 9, 59, 31
4, 24836, Note_on_c, 9, 35, 0
4, 24848, Note_on_c, 9, 59, 0
4, 24936, Note_on_c, 9, 51, 0
4, 24936, Note_on_c, 9, 51, 0
4, 24936, Note_on_c, 9, 44, 79
4, 24936, Note_on_c, 9, 44, 34
4, 24938, Note_on_c, 9, 51, 47
4, 25044, Note_on_c, 9, 44, 0
4, 25044, Note_on_c, 9, 44, 0
4, 25312, Note_on_c, 9, 51, 52
4, 25320, Note_on_c, 9, 51, 0
4, 25680, Note_on_c, 9, 51, 65
4, 25704, Note_on_c, 9, 51, 0
4, 25704, Note_on_c, 9, 44, 55
4, 25704, Note_on_c, 9, 44, 50
4, 25758, Note_on_c, 9, 44, 0
4, 25812, Note_on_c, 9, 44, 0
4, 26000, Note_on_c, 9, 53, 53
4, 26042, Note_on_c, 9, 53, 0
4, 26074, Note_on_c, 9, 51, 72
4, 26088, Note_on_c, 9, 51, 0
4, 26276, Note_on_c, 9, 51, 55
4, 26472, Note_on_c, 9, 51, 0
4, 26472, Note_on_c, 9, 51, 0
4, 26472, Note_on_c, 9, 44, 57
4, 26472, Note_on_c, 9, 44, 44
4, 26506, Note_on_c, 9, 44, 0
4, 26592, Note_on_c, 9, 44, 0
4, 26664, Note_on_c, 9, 51, 55
4, 26846, Note_on_c, 9, 51, 75
4, 27072, Note_on_c, 9, 53, 32
4, 27230, Note_on_c, 9, 53, 0
4, 27240, Note_on_c, 9, 51, 0
4, 27240, Note_on_c, 9, 51, 0
4, 27240, Note_on_c, 9, 44, 58
4, 27240, Note_on_c, 9, 44, 48
4, 27258, Note_on_c, 9, 51, 52
4, 27320, Note_on_c, 9, 44, 0
4, 27338, Note_on_c, 9, 44, 0
4, 27544, Note_on_c, 9, 35, 15
4, 27562, Note_on_c, 9, 35, 0
4, 27624, Note_on_c, 9, 51, 0
4, 27624, Note_on_c, 9, 35, 12
4, 27630, Note_on_c, 9, 51, 52
4, 27640, Note_on_c, 9, 57, 29
4, 27656, Note_on_c, 9, 35, 0
4, 27668, Note_on_c, 9, 57, 0
4, 28004, Note_on_c, 9, 51, 65
4, 28008, Note_on_c, 9, 51, 0
4, 28008, Note_on_c, 9, 44, 73
4, 28392, Note_on_c, 9, 51, 0
4, 28404, Note_on_c, 9, 51, 55
4, 28430, Note_on_c, 9, 44, 0
4, 28776, Note_on_c, 9, 51, 0
4, 28776, Note_on_c, 9, 44, 77
4, 28798, Note_on_c, 9, 51, 67
4, 29160, Note_on_c, 9, 51, 0
4, 29176, Note_on_c, 9, 51, 50
4, 29216, Note_on_c, 9, 44, 0
4, 29544, Note_on_c, 9, 51, 0
4, 29544, Note_on_c, 9, 44, 70
4, 29562, Note_on_c, 9, 51, 62
4, 29912, Note_on_c, 9, 44, 0
4, 29928, Note_on_c, 9, 51, 0
4, 29966, Note_on_c, 9, 51, 67
4, 30250, Note_on_c, 9, 53, 46
4, 30296, Note_on_c, 9, 53, 0
4, 30312, Note_on_c, 9, 51, 0
4, 30312, Note_on_c, 9, 46, 39
4, 30328, Note_on_c, 9, 51, 50
4, 30330, Note_on_c, 9, 46, 0
4, 30528, Note_on_c, 9, 51, 52
4, 30696, Note_on_c, 9, 51, 0
4, 30708, Note_on_c, 9, 51, 57
4, 31080, Note_on_c, 9, 51, 0
4, 31080, Note_on_c, 9, 51, 0
4, 31080, Note_on_c, 9, 44, 52
4, 31112, Note_on_c, 9, 51, 62
4, 31162, Note_on_c, 9, 44, 0
4, 31464, Note_on_c, 9, 51, 0
4, 31502, Note_on_c, 9, 51, 52
4, 31848, Note_on_c, 9, 51, 0
4, 31848, Note_on_c, 9, 44, 61
4, 31860, Note_on_c, 9, 51, 52
4, 31968, Note_on_c, 9, 44, 0
4, 32232, Note_on_c, 9, 51, 0
4, 32234, Note_on_c, 9, 51, 47
4, 32616, Note_on_c, 9, 51, 0
4, 32616, Note_on_c, 9, 44, 62
4, 32638, Note_on_c, 9, 51, 52
4, 32676, Note_on_c, 9, 44, 0
4, 33000, Note_on_c, 9, 51, 0
4, 33008, Note_on_c, 9, 51, 55
4, 33198, Note_on_c, 9, 51, 47
4, 33384, Note_on_c, 9, 51, 0
4, 33384, Note_on_c, 9, 44, 51
4, 33384, Note_on_c, 9, 51, 67
4, 33482, Note_on_c, 9, 44, 0
4, 33672, Note_on_c, 9, 35, 13
4, 33688, Note_on_c, 9, 35, 0
4, 33768, Note_on_c, 9, 51, 0
4, 33768, Note_on_c, 9, 51, 0
4, 33776, Note_on_c, 9, 51, 77
4, 34152, Note_on_c, 9, 51, 0
4, 34152, Note_on_c, 9, 44, 52
4, 34176, Note_on_c, 9, 51, 52
4, 34216, Note_on_c, 9, 44, 0
4, 34458, Note_on_c, 9, 35, 16
4, 34474, Note_on_c, 9, 35, 0
4, 34536, Note_on_c, 9, 51, 0
4, 34568, Note_on_c, 9, 51, 77
4, 34920, Note_on_c, 9, 51, 0
4, 34920, Note_on_c, 9, 44, 55
4, 34948, Note_on_c, 9, 51, 70
4, 34980, Note_on_c, 9, 44, 0
4, 35128, Note_on_c, 9, 53, 46
4, 35226, Note_on_c, 9, 53, 0
4, 35304, Note_on_c, 9, 51, 0
4, 35328, Note_on_c, 9, 51, 52
4, 35688, Note_on_c, 9, 51, 0
4, 35688, Note_on_c, 9, 44, 56
4, 35700, Note_on_c, 9, 51, 55
4, 35736, Note_on_c, 9, 44, 0
4, 35978, Note_on_c, 9, 35, 15
4, 36024, Note_on_c, 9, 35, 0
4, 36072, Note_on_c, 9, 51, 0
4, 36074, Note_on_c, 9, 35, 18
4, 36088, Note_on_c, 9, 51, 57
4, 36090, Note_on_c, 9, 59, 34
4, 36100, Note_on_c, 9, 35, 0
4, 36122, Note_on_c, 9, 59, 0
4, 36264, Note_on_c, 9, 35, 16
4, 36280, Note_on_c, 9, 59, 38
4, 36312, Note_on_c, 9, 35, 0
4, 36324, Note_on_c, 9, 59, 0
4, 36456, Note_on_c, 9, 51, 0
4, 36456, Note_on_c, 9, 46, 25
4, 36464, Note_on_c, 9, 51, 65
4, 36504, Note_on_c, 9, 46, 0
4, 36840, Note_on_c, 9, 51, 0
4, 36842, Note_on_c, 9, 51, 77
4, 36848, Note_on_c, 9, 51, 62
4, 37224, Note_on_c, 9, 51, 0
4, 37224, Note_on_c, 9, 51, 0
4, 37224, Note_on_c, 9, 44, 69
4, 37230, Note_on_c, 9, 51, 72
4, 37332, Note_on_c, 9, 44, 0
4, 37412, Note_on_c, 9, 53, 62
4, 37588, Note_on_c, 9, 53, 0
4, 37604, Note_on_c, 9, 51, 62
4, 37608, Note_on_c, 9, 51, 0
4, 37992, Note_on_c, 9, 51, 0
4, 37992, Note_on_c, 9, 44, 53
4, 37994, Note_on_c, 9, 51, 60
4, 38084, Note_on_c, 9, 44, 0
4, 38282, Note_on_c, 9, 35, 24
4, 38298, Note_on_c, 9, 35, 0
4, 38362, Note_on_c, 9, 35, 17
4, 38376, Note_on_c, 9, 51, 0
4, 38376, Note_on_c, 9, 59, 40
4, 38376, Note_on_c, 9, 51, 55
4, 38420, Note_on_c, 9, 35, 0
4, 38426, Note_on_c, 9, 59, 0
4, 38760, Note_on_c, 9, 51, 0
4, 38760, Note_on_c, 9, 44, 71
4, 38766, Note_on_c, 9, 51, 52
4, 38824, Note_on_c, 9, 44, 0
4, 39144, Note_on_c, 9, 51, 0
4, 39144, Note_on_c, 9, 35, 16
4, 39146, Note_on_c, 9, 51, 67
4, 39172, Note_on_c, 9, 35, 0
4, 39338, Note_on_c, 9, 35, 17
4, 39432, Note_on_c, 9, 35, 0
4, 39524, Note_on_c, 9, 51, 65
4, 39528, Note_on_c, 9, 51, 0
4, 39528, Note_on_c, 9, 46, 55
4, 39556, Note_on_c, 9, 46, 0
4, 39658, Note_on_c, 9, 35, 30
4, 39684, Note_on_c, 9, 35, 0
4, 39736, Note_on_c, 9, 35, 23
4, 39752, Note_on_c, 9, 59, 26
4, 39754, Note_on_c, 9, 35, 0
4, 39768, Note_on_c, 9, 59, 0
4, 39892, Note_on_c, 9, 51, 70
4, 39912, Note_on_c, 9, 51, 0
4, 39912, Note_on_c, 9, 35, 23
4, 39928, Note_on_c, 9, 59, 54
4, 39934, Note_on_c, 9, 35, 0
4, 39946, Note_on_c, 9, 59, 0
4, 40122, Note_on_c, 9, 35, 16
4, 40136, Note_on_c, 9, 59, 61
4, 40170, Note_on_c, 9, 59, 0
4, 40202, Note_on_c, 9, 35, 0
4, 40296, Note_on_c, 9, 51, 0
4, 40296, Note_on_c, 9, 44, 45
4, 40314, Note_on_c, 9, 51, 60
4, 40350, Note_on_c, 9, 44, 0
4, 40680, Note_on_c, 9, 51, 0
4, 40696, Note_on_c, 9, 51, 70
4, 41064, Note_on_c, 9, 51, 0
4, 41064, Note_on_c, 9, 44, 70
4, 41072, Note_on_c, 9, 51, 47
4, 41166, Note_on_c, 9, 44, 0
4, 41448, Note_on_c, 9, 51, 0
4, 41466, Note_on_c, 9, 51, 80
4, 41832, Note_on_c, 9, 51, 0
4, 41832, Note_on_c, 9, 44, 75
4, 41864, Note_on_c, 9, 51, 50
4, 41944, Note_on_c, 9, 44, 0
4, 42216, Note_on_c, 9, 51, 0
4, 42224, Note_on_c, 9, 51, 47
4, 42600, Note_on_c, 9, 51, 0
4, 42600, Note_on_c, 9, 44, 69
4, 42600, Note_on_c, 9, 51, 50
4, 42712, Note_on_c, 9, 44, 0
4, 42720, Note_on_c, 9, 53, 56
4, 42878, Note_on_c, 9, 53, 0
4, 42906, Note_on_c, 9, 51, 60
4, 42984, Note_on_c, 9, 51, 0
4, 42990, Note_on_c, 9, 51, 37
4, 43360, Note_on_c, 9, 51, 52
4, 43368, Note_on_c, 9, 51, 0
4, 43368, Note_on_c, 9, 51, 0
4, 43368, Note_on_c, 9, 44, 69
4, 43486, Note_on_c, 9, 44, 0
4, 43748, Note_on_c, 9, 51, 55
4, 43752, Note_on_c, 9, 51, 0
4, 43956, Note_on_c, 9, 53, 50
4, 44128, Note_on_c, 9, 53, 0
4, 44136, Note_on_c, 9, 51, 0
4, 44136, Note_on_c, 9, 44, 70
4, 44148, Note_on_c, 9, 51, 45
4, 44232, Note_on_c, 9, 44, 0
4, 44336, Note_on_c, 9, 51, 47
4, 44520, Note_on_c, 9, 51, 0
4, 44522, Note_on_c, 9, 51, 60
4, 44904, Note_on_c, 9, 51, 0
4, 44904, Note_on_c, 9, 51, 0
4, 44904, Note_on_c, 9, 44, 62
4, 44932, Note_on_c, 9, 51, 52
4, 44954, Note_on_c, 9, 37, 25
4, 44970, Note_on_c, 9, 37, 0
4, 44990, Note_on_c, 9, 44, 0
4, 45288, Note_on_c, 9, 51, 0
4, 45304, Note_on_c, 9, 51, 52
4, 45672, Note_on_c, 9, 51, 0
4, 45672, Note_on_c, 9, 44, 64
4, 45672, Note_on_c, 9, 51, 75
4, 45744, Note_on_c, 9, 44, 0
4, 46010, Note_on_c, 9, 35, 18
4, 46036, Note_on_c, 9, 35, 0
4, 46046, Note_on_c, 9, 51, 62
4, 46056, Note_on_c, 9, 51, 0
4, 46096, Note_on_c, 9, 35, 16
4, 46164, Note_on_c, 9, 35, 0
4, 46286, Note_on_c, 9, 35, 17
4, 46296, Note_on_c, 9, 59, 60
4, 46312, Note_on_c, 9, 59, 0
4, 46336, Note_on_c, 9, 35, 0
4, 46440, Note_on_c, 9, 51, 0
4, 46440, Note_on_c, 9, 44, 55
4, 46456, Note_on_c, 9, 51, 62
4, 46474, Note_on_c, 9, 44, 0
4, 46808, Note_on_c, 9, 51, 75
4, 46824, Note_on_c, 9, 51, 0
4, 47184, Note_on_c, 9, 53, 68
4, 47208, Note_on_c, 9, 51, 0
4, 47208, Note_on_c, 9, 44, 74
4, 47274, Note_on_c, 9, 44, 0
4, 47360, Note_on_c, 9, 53, 0
4, 47390, Note_on_c, 9, 51, 55
4, 47584, Note_on_c, 9, 51, 62
4, 47592, Note_on_c, 9, 51, 0
4, 47800, Note_on_c, 9, 51, 67
4, 47976, Note_on_c, 9, 51, 0
4, 47976, Note_on_c, 9, 44, 75
4, 47976, Note_on_c, 9, 44, 70
4, 47976, Note_on_c, 9, 44, 58
4, 48016, Note_on_c, 9, 44, 0
4, 48036, Note_on_c, 9, 44, 0
4, 48126, Note_on_c, 9, 44, 0
4, 48360, Note_on_c, 9, 51, 0
4, 48376, Note_on_c, 9, 51, 75
4, 48744, Note_on_c, 9, 51, 0
4, 48744, Note_on_c, 9, 44, 54
4, 48744, Note_on_c, 9, 44, 55
4, 48772, Note_on_c, 9, 51, 60
4, 48794, Note_on_c, 9, 44, 0
4, 48916, Note_on_c, 9, 44, 0
4, 49128, Note_on_c, 9, 51, 0
4, 49160, Note_on_c, 9, 51, 62
4, 49512, Note_on_c, 9, 51, 0
4, 49512, Note_on_c, 9, 44, 56
4, 49512, Note_on_c, 9, 44, 60
4, 49546, Note_on_c, 9, 51, 60
4, 49556, Note_on_c, 9, 35, 14
4, 49560, Note_on_c, 9, 44, 0
4, 49572, Note_on_c, 9, 35, 0
4, 49640, Note_on_c, 9, 44, 0
4, 49742, Note_on_c, 9, 51, 65
4, 49896, Note_on_c, 9, 51, 0
4, 49928, Note_on_c, 9, 51, 67
4, 50110, Note_on_c, 9, 35, 13
4, 50228, Note_on_c, 9, 35, 0
4, 50280, Note_on_c, 9, 51, 0
4, 50280, Note_on_c, 9, 51, 0
4, 50280, Note_on_c, 9, 44, 51
4, 50280, Note_on_c, 9, 44, 62
4, 50288, Note_on_c, 9, 51, 55
4, 50312, Note_on_c, 9, 44, 0
4, 50384, Note_on_c, 9, 44, 0
4, 50664, Note_on_c, 9, 51, 0
4, 50680, Note_on_c, 9, 51, 60
4, 51048, Note_on_c, 9, 51, 0
4, 51048, Note_on_c, 9, 44, 58
4, 51048, Note_on_c, 9, 44, 60
4, 51076, Note_on_c, 9, 44, 0
4, 51082, Note_on_c, 9, 51, 55
4, 51152, Note_on_c, 9, 44, 0
4, 51264, Note_on_c, 9, 35, 14
4, 51296, Note_on_c, 9, 35, 0
4, 51432, Note_on_c, 9, 51, 0
4, 51440, Note_on_c, 9, 51, 65
4, 51656, Note_on_c, 9, 53, 36
4, 51816, Note_on_c, 9, 51, 0
4, 51816, Note_on_c, 9, 46, 44
4, 51816, Note_on_c, 9, 46, 34
4, 51818, Note_on_c, 9, 53, 0
4, 51838, Note_on_c, 9, 46, 0
4, 51838, Note_on_c, 9, 51, 55
4, 51928, Note_on_c, 9, 46, 0
4, 52036, Note_on_c, 9, 53, 35
4, 52116, Note_on_c, 9, 35, 15
4, 52142, Note_on_c, 9, 53, 0
4, 52144, Note_on_c, 9, 35, 0
4, 52186, Note_on_c, 9, 51, 37
4, 52200, Note_on_c, 9, 51, 0
4, 52208, Note_on_c, 9, 35, 18
4, 52232, Note_on_c, 9, 59, 40
4, 52234, Note_on_c, 9, 51, 52
4, 52296, Note_on_c, 9, 35, 0
4, 52320, Note_on_c, 9, 59, 0
4, 52404, Note_on_c, 9, 35, 18
4, 52424, Note_on_c, 9, 59, 31
4, 52484, Note_on_c, 9, 35, 0
4, 52496, Note_on_c, 9, 59, 0
4, 52584, Note_on_c, 9, 51, 0
4, 52584, Note_on_c, 9, 51, 0
4, 52584, Note_on_c, 9, 44, 79
4, 52584, Note_on_c, 9, 44, 34
4, 52586, Note_on_c, 9, 51, 47
4, 52692, Note_on_c, 9, 44, 0
4, 52692, Note_on_c, 9, 44, 0
4, 52960, Note_on_c, 9, 51, 52
4, 52968, Note_on_c, 9, 51, 0
4, 53328, Note_on_c, 9, 51, 65
4, 53352, Note_on_c, 9, 51, 0
4, 53352, Note_on_c, 9, 44, 55
4, 53352, Note_on_c, 9, 44, 50
4, 53406, Note_on_c, 9, 44, 0
4, 53460, Note_on_c, 9, 44, 0
4, 53648, Note_on_c, 9, 53, 53
4, 53690, Note_on_c, 9, 53, 0
4, 53722, Note_on_c, 9, 51, 72
4, 53736, Note_on_c, 9, 51, 0
4, 53924, Note_on_c, 9, 51, 55
4, 54120, Note_on_c, 9, 51, 0
4, 54120, Note_on_c, 9, 51, 0
4, 54120, Note_on_c, 9, 44, 57
4, 54120, Note_on_c, 9, 44, 44
4, 54154, Note_on_c, 9, 44, 0
4, 54240, Note_on_c, 9, 44, 0
4, 54312, Note_on_c, 9, 51, 55
4, 54494, Note_on_c, 9, 51, 75
4, 54720, Note_on_c, 9, 53, 32
4, 54878, Note_on_c, 9, 53, 0
4, 54888, Note_on_c, 9, 51, 0
4, 54888, Note_on_c, 9, 51, 0
4, 54888, Note_on_c, 9, 44, 58
4, 54888, Note_on_c, 9, 44, 48
4, 54906, Note_on_c, 9, 51, 52
4, 54968, Note_on_c, 9, 44, 0
4, 54986, Note_on_c, 9, 44, 0
4, 55192, Note_on_c, 9, 35, 15
4, 55210, Note_on_c, 9, 35, 0
4, 55272, Note_on_c, 9, 51, 0
4, 55272, Note_on_c, 9, 35, 12
4, 55278, Note_on_c, 9, 51, 52
4, 55288, Note_on_c, 9, 57, 29
4, 55304, Note_on_c, 9, 35, 0
4, 55316, Note_on_c, 9, 57, 0
4, 55652, Note_on_c, 9, 51, 65
4, 55656, Note_on_c, 9, 51, 0
4, 55656, Note_on_c, 9, 44, 73
4, 56040, Note_on_c, 9, 51, 0
4, 56052, Note_on_c, 9, 51, 55
4, 56078, Note_on_c, 9, 44, 0
4, 56424, Note_on_c, 9, 51, 0
4, 56424, Note_on_c, 9, 44, 77
4, 56446, Note_on_c, 9, 51, 67
4, 56808, Note_on_c, 9, 51, 0
4, 56824, Note_on_c, 9, 51, 50
4, 56864, Note_on_c, 9, 44, 0
4, 57192, Note_on_c, 9, 51, 0
4, 57192, Note_on_c, 9, 44, 70
4, 57210, Note_on_c, 9, 51, 62
4, 57560, Note_on_c, 9, 44, 0
4, 57576, Note_on_c, 9, 51, 0
4, 57614, Note_on_c, 9, 51, 67
4, 57898, Note_on_c, 9, 53, 46
4, 57944, Note_on_c, 9, 53, 0
4, 57960, Note_on_c, 9, 51, 0
4, 57960, Note_on_c, 9, 46, 39
4, 57976, Note_on_c, 9, 51, 50
4, 57978, Note_on_c, 9, 46, 0
4, 58176, Note_on_c, 9, 51, 52
4, 58344, Note_on_c, 9, 51, 0
4, 58356, Note_on_c, 9, 51, 57
4, 58728, Note_on_c, 9, 51, 0
4, 58728, Note_on_c, 9, 51, 0
4, 58728, Note_on_c, 9, 44, 52
4, 58760, Note_on_c, 9, 51, 62
4, 58810, Note_on_c, 9, 44, 0
4, 59112, Note_on_c, 9, 51, 0
4, 59150, Note_on_c, 9, 51, 52
4, 59496, Note_on_c, 9, 51, 0
4, 59496, Note_on_c, 9, 44, 61
4, 59508, Note_on_c, 9, 51, 52
4, 59616, Note_on_c, 9, 44, 0
4, 59880, Note_on_c, 9, 51, 0
4, 59882, Note_on_c, 9, 51, 47
4, 60264, Note_on_c, 9, 51, 0
4, 60264, Note_on_c, 9, 44, 62
4, 60286, Note_on_c, 9, 51, 52
4, 60324, Note_on_c, 9, 44, 0
4, 60648, Note_on_c, 9, 51, 0
4, 60656, Note_on_c, 9, 51, 55
4, 60846, Note_on_c, 9, 51, 47
4, 61032, Note_on_c, 9, 51, 0
4, 61032, Note_on_c, 9, 44, 51
4, 61032, Note_on_c, 9, 51, 67
4, 61130, Note_on_c, 9, 44, 0
4, 61320, Note_on_c, 9, 35, 13
4, 61336, Note_on_c, 9, 35, 0
4, 61416, Note_on_c, 9, 51, 0
4, 61416, Note_on_c, 9, 51, 0
4, 61424, Note_on_c, 9, 51, 77
4, 61800, Note_on_c, 9, 51, 0
4, 61800, Note_on_c, 9, 44, 52
4, 61824, Note_on_c, 9, 51, 52
4, 61864, Note_on_c, 9, 44, 0
4, 62106, Note_on_c, 9, 35, 16
4, 62122, Note_on_c, 9, 35, 0
4, 62184, Note_on_c, 9, 51, 0
4, 62216, Note_on_c, 9, 51, 77
4, 62568, Note_on_c, 9, 51, 0
4, 62568, Note_on_c, 9, 44, 55
4, 62596, Note_on_c, 9, 51, 70
4, 62628, Note_on_c, 9, 44, 0
4, 62776, Note_on_c, 9, 53, 46
4, 62874, Note_on_c, 9, 53, 0
4, 62952, Note_on_c, 9, 51, 0
4, 62976, Note_on_c, 9, 51, 52
4, 63336, Note_on_c, 9, 51, 0
4, 63336, Note_on_c, 9, 44, 56
4, 63348, Note_on_c, 9, 51, 55
4, 63384, Note_on_c, 9, 44, 0
4, 63626, Note_on_c, 9, 35, 15
4, 63672, Note_on_c, 9, 35, 0
4, 63720, Note_on_c, 9, 51, 0
4, 63722, Note_on_c, 9, 35, 18
4, 63736, Note_on_c, 9, 51, 57
4, 63738, Note_on_c, 9, 59, 34
4, 63748, Note_on_c, 9, 35, 0
4, 63770, Note_on_c, 9, 59, 0
4, 63912, Note_on_c, 9, 35, 16
4, 63928, Note_on_c, 9, 59, 38
4, 63960, Note_on_c, 9, 35, 0
4, 63972, Note_on_c, 9, 59, 0
4, 64104, Note_on_c, 9, 51, 0
4, 64104, Note_on_c, 9, 46, 25
4, 64112, Note_on_c, 9, 51, 65
4, 64152, Note_on_c, 9, 46, 0
4, 64488, Note_on_c, 9, 51, 0
4, 64490, Note_on_c, 9, 51, 77
4, 64496, Note_on_c, 9, 51, 62
4, 64872, Note_on_c, 9, 51, 0
4, 64872, Note_on_c, 9, 51, 0
4, 64872, Note_on_c, 9, 44, 69
4, 64878, Note_on_c, 9, 51, 72
4, 64980, Note_on_c, 9, 44, 0
4, 65060, Note_on_c, 9, 53, 62
4, 65236, Note_on_c, 9, 53, 0
4, 65252, Note_on_c, 9, 51, 62
4, 65256, Note_on_c, 9, 51, 0
4, 65640, Note_on_c, 9, 51, 0
4, 65640, Note_on_c, 9, 44, 53
4, 65642, Note_on_c, 9, 51, 60
4, 65732, Note_on_c, 9, 44, 0
4, 65930, Note_on_c, 9, 35, 24
4, 65946, Note_on_c, 9, 35, 0
4, 66010, Note_on_c, 9, 35, 17
4, 66024, Note_on_c, 9, 51, 0
4, 66024, Note_on_c, 9, 59, 40
4, 66024, Note_on_c, 9, 51, 55
4, 66068, Note_on_c, 9, 35, 0
4, 66074, Note_on_c, 9, 59, 0
4, 66408, Note_on_c, 9, 51, 0
4, 66408, Note_on_c, 9, 44, 71
4, 66414, Note_on_c, 9, 51, 52
4, 66472, Note_on_c, 9, 44, 0
4, 66792, Note_on_c, 9, 51, 0
4, 66792, Note_on_c, 9, 35, 16
4, 66794, Note_on_c, 9, 51, 67
4, 66820, Note_on_c, 9, 35, 0
4, 66986, Note_on_c, 9, 35, 17
4, 67080, Note_on_c, 9, 35, 0
4, 67172, Note_on_c, 9, 51, 65
4, 67176, Note_on_c, 9, 51, 0
4, 67176, Note_on_c, 9, 46, 55
4, 67204, Note_on_c, 9, 46, 0
4, 67306, Note_on_c, 9, 35, 30
4, 67332, Note_on_c, 9, 35, 0
4, 67384, Note_on_c, 9, 35, 23
4, 67400, Note_on_c, 9, 59, 26
4, 67402, Note_on_c, 9, 35, 0
4, 67416, Note_on_c, 9, 59, 0
4, 67540, Note_on_c, 9, 51, 70
4, 67560, Note_on_c, 9, 51, 0
4, 67560, Note_on_c, 9, 35, 23
4, 67576, Note_on_c, 9, 59, 54
4, 67582, Note_on_c, 9, 35, 0
4, 67594, Note_on_c, 9, 59, 0
4, 67770, Note_on_c, 9, 35, 16
4, 67784, Note_on_c, 9, 59, 61
4, 67818, Note_on_c, 9, 59, 0
4, 67850, Note_on_c, 9, 35, 0
4, 67944, Note_on_c, 9, 51, 0
4, 67944, Note_on_c, 9, 44, 45
4, 67962, Note_on_c, 9, 51, 60
4, 67998, Note_on_c, 9, 44, 0
4, 68328, Note_on_c, 9, 51, 0
4, 68344, Note_on_c, 9, 51, 70
4, 68712, Note_on_c, 9, 51, 0
4, 68712, Note_on_c, 9, 44, 70
4, 68720, Note_on_c, 9, 51, 47
4, 68814, Note_on_c, 9, 44, 0
4, 69096, Note_on_c, 9, 51, 0
4, 69114, Note_on_c, 9, 51, 80
4, 69480, Note_on_c, 9, 51, 0
4, 69480, Note_on_c, 9, 44, 75
4, 69512, Note_on_c, 9, 51, 50
4, 69592, Note_on_c, 9, 44, 0
4, 69864, Note_on_c, 9, 51, 0
4, 69872, Note_on_c, 9, 51, 47
4, 70248, Note_on_c, 9, 51, 0
4, 70248, Note_on_c, 9, 44, 69
4, 70248, Note_on_c, 9, 51, 50
4, 70360, Note_on_c, 9, 44, 0
4, 70368, Note_on_c, 9, 53, 56
4, 70526, Note_on_c, 9, 53, 0
4, 70554, Note_on_c, 9, 51, 60
4, 70632, Note_on_c, 9, 51, 0
4, 70638, Note_on_c, 9, 51, 37
4, 71008, Note_on_c, 9, 51, 52
4, 71016, Note_on_c, 9, 51, 0
4, 71016, Note_on_c, 9, 51, 0
4, 71016, Note_on_c, 9, 44, 69
4, 71134, Note_on_c, 9, 44, 0
4, 71396, Note_on_c, 9, 51, 55
4, 71400, Note_on_c, 9, 51, 0
4, 71604, Note_on_c, 9, 53, 50
4, 71776, Note_on_c, 9, 53, 0
4, 71784, Note_on_c, 9, 51, 0
4, 71784, Note_on_c, 9, 44, 70
4, 71796, Note_on_c, 9, 51, 45
4, 71880, Note_on_c, 9, 44, 0
4, 71984, Note_on_c, 9, 51, 47
4, 72168, Note_on_c, 9, 51, 0
4, 72170, Note_on_c, 9, 51, 60
4, 72552, Note_on_c, 9, 51, 0
4, 72552, Note_on_c, 9, 51, 0
4, 72552, Note_on_c, 9, 44, 62
4, 72580, Note_on_c, 9, 51, 52
4, 72602, Note_on_c, 9, 37, 25
4, 72618, Note_on_c, 9, 37, 0
4, 72638, Note_on_c, 9, 44, 0
4, 72936, Note_on_c, 9, 51, 0
4, 72952, Note_on_c, 9, 51, 52
4, 73320, Note_on_c, 9, 51, 0
4, 73320, Note_on_c, 9, 44, 64
4, 73320, Note_on_c, 9, 51, 75
4, 73392, Note_on_c, 9, 44, 0
4, 73658, Note_on_c, 9, 35, 18
4, 73684, Note_on_c, 9, 35, 0
4, 73694, Note_on_c, 9, 51, 62
4, 73704, Note_on_c, 9, 51, 0
4, 73744, Note_on_c, 9, 35, 16
4, 73812, Note_on_c, 9, 35, 0
4, 73934, Note_on_c, 9, 35, 17
4, 73944, Note_on_c, 9, 59, 60
4, 73960, Note_on_c, 9, 59, 0
4, 73984, Note_on_c, 9, 35, 0
4, 74088, Note_on_c, 9, 51, 0
4, 74088, Note_on_c, 9, 44, 55
4, 74104, Note_on_c, 9, 51, 62
4, 74122, Note_on_c, 9, 44, 0
4, 74456, Note_on_c, 9, 51, 75
4, 74472, Note_on_c, 9, 51, 0
4, 74832, Note_on_c, 9, 53, 68
4, 74856, Note_on_c, 9, 51, 0
4, 74856, Note_on_c, 9, 44, 74
4, 74922, Note_on_c, 9, 44, 0
4, 75008, Note_on_c, 9, 53, 0
4, 75038, Note_on_c, 9, 51, 55
4, 75232, Note_on_c, 9, 51, 62
4, 75240, Note_on_c, 9, 51, 0
4, 75448, Note_on_c, 9, 51, 67
4, 75624, Note_on_c, 9, 51, 0
4, 75624, Note_on_c, 9, 44, 75
4, 75624, Note_on_c, 9, 44, 70
4, 75624, Note_on_c, 9, 44, 58
4, 75664, Note_on_c, 9, 44, 0
4, 75684, Note_on_c, 9, 44, 0
4, 75774, Note_on_c, 9, 44, 0
4, 76008, Note_on_c, 9, 51, 0
4, 76024, Note_on_c, 9, 51, 75
4, 76392, Note_on_c, 9, 51, 0
4, 76392, Note_on_c, 9, 44, 54
4, 76392, Note_on_c, 9, 44, 55
4, 76420, Note_on_c, 9, 51, 60
4, 76442, Note_on_c, 9, 44, 0
4, 76564, Note_on_c, 9, 44, 0
4, 76776, Note_on_c, 9, 51, 0
4, 76808, Note_on_c, 9, 51, 62
4, 77160, Note_on_c, 9, 51, 0
4, 77160, Note_on_c, 9, 44, 56
4, 77160, Note_on_c, 9, 44, 60
4, 77194, Note_on_c, 9, 51, 60
4, 77204, Note_on_c, 9, 35, 14
4, 77208, Note_on_c, 9, 44, 0
4, 77220, Note_on_c, 9, 35, 0
4, 77288, Note_on_c, 9, 44, 0
4, 77390, Note_on_c, 9, 51, 65
4, 77544, Note_on_c, 9, 51, 0
4, 77576, Note_on_c, 9, 51, 67
4, 77758, Note_on_c, 9, 35, 13
4, 77876, Note_on_c, 9, 35, 0
4, 77928, Note_on_c, 9, 51, 0
4, 77928, Note_on_c, 9, 51, 0
4, 77928, Note_on_c, 9, 44, 51
4, 77928, Note_on_c, 9, 44, 62
4, 77936, Note_on_c, 9, 51, 55
4, 77960, Note_on_c, 9, 44, 0
4, 78032, Note_on_c, 9, 44, 0
4, 78312, Note_on_c, 9, 51, 0
4, 78328, Note_on_c, 9, 51, 60
4, 78696, Note_on_c, 9, 51, 0
4, 78696, Note_on_c, 9, 44, 58
4, 78696, Note_on_c, 9, 44, 60
4, 78724, Note_on_c, 9, 44, 0
4, 78730, Note_on_c, 9, 51, 55
4, 78800, Note_on_c, 9, 44, 0
4, 78912, Note_on_c, 9, 35, 14
4, 78944, Note_on_c, 9, 35, 0
4, 79080, Note_on_c, 9, 51, 0
4, 79088, Note_on_c, 9, 51, 65
4, 79304, Note_on_c, 9, 53, 36
4, 79464, Note_on_c, 9, 51, 0
4, 79464, Note_on_c, 9, 46, 44
4, 79464, Note_on_c, 9, 46, 34
4, 79466, Note_on_c, 9, 53, 0
4, 79486, Note_on_c, 9, 46, 0
4, 79486, Note_on_c, 9, 51, 55
4, 79576, Note_on_c, 9, 46, 0
4, 79684, Note_on_c, 9, 53, 35
4, 79764, Note_on_c, 9, 35, 15
4, 79790, Note_on_c, 9, 53, 0
4, 79792, Note_on_c, 9, 35, 0
4, 79834, Note_on_c, 9, 51, 37
4, 79848, Note_on_c, 9, 51, 0
4, 79856, Note_on_c, 9, 35, 18
4, 79880, Note_on_c, 9, 59, 40
4, 79882, Note_on_c, 9, 51, 52
4, 79944, Note_on_c, 9, 35, 0
4, 79968, Note_on_c, 9, 59, 0
4, 80052, Note_on_c, 9, 35, 18
4, 80072, Note_on_c, 9, 59, 31
4, 80132, Note_on_c, 9, 35, 0
4, 80144, Note_on_c, 9, 59, 0
4, 80232, Note_on_c, 9, 51, 0
4, 80232, Note_on_c, 9, 51, 0
4, 80232, Note_on_c, 9, 44, 79
4, 80232, Note_on_c, 9, 44, 34
4, 80234, Note_on_c, 9, 51, 47
4, 80340, Note_on_c, 9, 44, 0
4, 80340, Note_on_c, 9, 44, 0
4, 80608, Note_on_c, 9, 51, 52
4, 80616, Note_on_c, 9, 51, 0
4, 80976, Note_on_c, 9, 51, 65
4, 81000, Note_on_c, 9, 51, 0
4, 81000, Note_on_c, 9, 44, 55
4, 81000, Note_on_c, 9, 44, 50
4, 81054, Note_on_c, 9, 44, 0
4, 81108, Note_on_c, 9, 44, 0
4, 81296, Note_on_c, 9, 53, 53
4, 81338, Note_on_c, 9, 53, 0
4, 81370, Note_on_c, 9, 51, 72
4, 81384, Note_on_c, 9, 51, 0
4, 81572, Note_on_c, 9, 51, 55
4, 81768, Note_on_c, 9, 51, 0
4, 81768, Note_on_c, 9, 51, 0
4, 81768, Note_on_c, 9, 44, 57
4, 81768, Note_on_c, 9, 44, 44
4, 81802, Note_on_c, 9, 44, 0
4, 81888, Note_on_c, 9, 44, 0
4, 81960, Note_on_c, 9, 51, 55
4, 82142, Note_on_c, 9, 51, 75
4, 82368, Note_on_c, 9, 53, 32
4, 82526, Note_on_c, 9, 53, 0
4, 82536, Note_on_c, 9, 51, 0
4, 82536, Note_on_c, 9, 51, 0
4, 82536, Note_on_c, 9, 44, 58
4, 82536, Note_on_c, 9, 44, 48
4, 82554, Note_on_c, 9, 51, 52
4, 82616, Note_on_c, 9, 44, 0
4, 82634, Note_on_c, 9, 44, 0
4, 82840, Note_on_c, 9, 35, 15
4, 82858, Note_on_c, 9, 35, 0
4, 82920, Note_on_c, 9, 51, 0
4, 82920, Note_on_c, 9, 35, 12
4, 82926, Note_on_c, 9, 51, 52
4, 82936, Note_on_c, 9, 57, 29
4, 82952, Note_on_c, 9, 35, 0
4, 82964, Note_on_c, 9, 57, 0
4, 83300, Note_on_c, 9, 51, 65
4, 83304, Note_on_c, 9, 51, 0
4, 83304, Note_on_c, 9, 44, 73
4, 83688, Note_on_c, 9, 51, 0
4, 83700, Note_on_c, 9, 51, 55
4, 83726, Note_on_c, 9, 44, 0
4, 84072, Note_on_c, 9, 51, 0
4, 84072, Note_on_c, 9, 44, 77
4, 84094, Note_on_c, 9, 51, 67
4, 84456, Note_on_c, 9, 51, 0
4, 84472, Note_on_c, 9, 51, 50
4, 84512, Note_on_c, 9, 44, 0
4, 84840, Note_on_c, 9, 51, 0
4, 84840, Note_on_c, 9, 44, 70
4, 84858, Note_on_c, 9, 51, 62
4, 85208, Note_on_c, 9, 44, 0
4, 85224, Note_on_c, 9, 51, 0
4, 85262, Note_on_c, 9, 51, 67
4, 85546, Note_on_c, 9, 53, 46
4, 85592, Note_on_c, 9, 53, 0
4, 85608, Note_on_c, 9, 51, 0
4, 85608, Note_on_c, 9, 46, 39
4, 85624, Note_on_c, 9, 51, 50
4, 85626, Note_on_c, 9, 46, 0
4, 85824, Note_on_c, 9, 51, 52
4, 85992, Note_on_c, 9, 51, 0
4, 86004, Note_on_c, 9, 51, 57
4, 86376, Note_on_c, 9, 51, 0
4, 86376, Note_on_c, 9, 51, 0
4, 86376, Note_on_c, 9, 44, 52
4, 86408, Note_on_c, 9, 51, 62
4, 86458, Note_on_c, 9, 44, 0
4, 86760, Note_on_c, 9, 51, 0
4, 86798, Note_on_c, 9, 51, 52
4, 87144, Note_on_c, 9, 51, 0
4, 87144, Note_on_c, 9, 44, 61
4, 87156, Note_on_c, 9, 51, 52
4, 87264, Note_on_c, 9, 44, 0
4, 87528, Note_on_c, 9, 51, 0
4, 87530, Note_on_c, 9, 51, 47
4, 87912, Note_on_c, 9, 51, 0
4, 87912, Note_on_c, 9, 44, 62
4, 87934, Note_on_c, 9, 51, 52
4, 87972, Note_on_c, 9, 44, 0
4, 88296, Note_on_c, 9, 51, 0
4, 88304, Note_on_c, 9, 51, 55
4, 88494, Note_on_c, 9, 51, 47
4, 88680, Note_on_c, 9, 51, 0
4, 88680, Note_on_c, 9, 44, 51
4, 88680, Note_on_c, 9, 51, 67
4, 88778, Note_on_c, 9, 44, 0
4, 88968, Note_on_c, 9, 35, 13
4, 88984, Note_on_c, 9, 35, 0
4, 89064, Note_on_c, 9, 51, 0
4, 89064, Note_on_c, 9, 51, 0
4, 89072, Note_on_c, 9, 51, 77
4, 89448, Note_on_c, 9, 51, 0
4, 89448, Note_on_c, 9, 44, 52
4, 89472, Note_on_c, 9, 51, 52
4, 89512, Note_on_c, 9, 44, 0
4, 89754, Note_on_c, 9, 35, 16
4, 89770, Note_on_c, 9, 35, 0
4, 89832, Note_on_c, 9, 51, 0
4, 89864, Note_on_c, 9, 51, 77
4, 90216, Note_on_c, 9, 51, 0
4, 90216, Note_on_c, 9, 44, 55
4, 90244, Note_on_c, 9, 51, 70
4, 90276, Note_on_c, 9, 44, 0
4, 90424, Note_on_c, 9, 53, 46
4, 90522, Note_on_c, 9, 53, 0
4, 90600, Note_on_c, 9, 51, 0
4, 90624, Note_on_c, 9, 51, 52
4, 90984, Note_on_c, 9, 51, 0
4, 90984, Note_on_c, 9, 44, 56
4, 90996, Note_on_c, 9, 51, 55
4, 91032, Note_on_c, 9, 44, 0
4, 91274, Note_on_c, 9, 35, 15
4, 91320, Note_on_c, 9, 35, 0
4, 91368, Note_on_c, 9, 51, 0
4, 91370, Note_on_c, 9, 35, 18
4, 91384, Note_on_c, 9, 51, 57
4, 91386, Note_on_c, 9, 59, 34
4, 91396, Note_on_c, 9, 35, 0
4, 91418, Note_on_c, 9, 59, 0
4, 91560, Note_on_c, 9, 35, 16
4, 91576, Note_on_c, 9, 59, 38
4, 91608, Note_on_c, 9, 35, 0
4, 91620, Note_on_c, 9, 59, 0
4, 91752, Note_on_c, 9, 51, 0
4, 91752, Note_on_c, 9, 46, 25
4, 91760, Note_on_c, 9, 51, 65
4, 91800, Note_on_c, 9, 46, 0
4, 92136, Note_on_c, 9, 51, 0
4, 92138, Note_on_c, 9, 51, 77
4, 92144, Note_on_c, 9, 51, 62
4, 92520, Note_on_c, 9, 51, 0
4, 92520, Note_on_c, 9, 51, 0
4, 92520, Note_on_c, 9, 44, 69
4, 92526, Note_on_c, 9, 51, 72
4, 92628, Note_on_c, 9, 44, 0
4, 92708, Note_on_c, 9, 53, 62
4, 92884, Note_on_c, 9, 53, 0
4, 92900, Note_on_c, 9, 51, 62
4, 92904, Note_on_c, 9, 51, 0
4, 93288, Note_on_c, 9, 51, 0
4, 93288, Note_on_c, 9, 44, 53
4, 93290, Note_on_c, 9, 51, 60
4, 93380, Note_on_c, 9, 44, 0
4, 93578, Note_on_c, 9, 35, 24
4, 93594, Note_on_c, 9, 35, 0
4, 93658, Note_on_c, 9, 35, 17
4, 93672, Note_on_c, 9, 51, 0
4, 93672, Note_on_c, 9, 59, 40
4, 93672, Note_on_c, 9, 51, 55
4, 93716, Note_on_c, 9, 35, 0
4, 93722, Note_on_c, 9, 59, 0
4, 94056, Note_on_c, 9, 51, 0
4, 94056, Note_on_c, 9, 44, 71
4, 94062, Note_on_c, 9, 51, 52
4, 94120, Note_on_c, 9, 44, 0
4, 94440, Note_on_c, 9, 51, 0
4, 94440, Note_on_c, 9, 35, 16
4, 94442, Note_on_c, 9, 51, 67
4, 94468, Note_on_c, 9, 35, 0
4, 94634, Note_on_c, 9, 35, 17
4, 94728, Note_on_c, 9, 35, 0
4, 94820, Note_on_c, 9, 51, 65
4, 94824, Note_on_c, 9, 51, 0
4, 94824, Note_on_c, 9, 46, 55
4, 94852, Note_on_c, 9, 46, 0
4, 94954, Note_on_c, 9, 35, 30
4, 94980, Note_on_c, 9, 35, 0
4, 95032, Note_on_c, 9, 35, 23
4, 95048, Note_on_c, 9, 59, 26
4, 95050, Note_on_c, 9, 35, 0
4, 95064, Note_on_c, 9, 59, 0
4, 95188, Note_on_c, 9, 51, 70
4, 95208, Note_on_c, 9, 51, 0
4, 95208, Note_on_c, 9, 35, 23
4, 95224, Note_on_c, 9, 59, 54
4, 95230, Note_on_c, 9, 35, 0
4, 95242, Note_on_c, 9, 59, 0
4, 95418, Note_on_c, 9, 35, 16
4, 95432, Note_on_c, 9, 59, 61
4, 95466, Note_on_c, 9, 59, 0
4, 95498, Note_on_c, 9, 35, 0
4, 95592, Note_on_c, 9, 51, 0
4, 95592, Note_on_c, 9, 44, 45
4, 95610, Note_on_c, 9, 51, 60
4, 95646, Note_on_c, 9, 44, 0
4, 95976, Note_on_c, 9, 51, 0
4, 95992, Note_on_c, 9, 51, 70
4, 96360, Note_on_c, 9, 51, 0
4, 96360, Note_on_c, 9, 44, 70
4, 96368, Note_on_c, 9, 51, 47
4, 96462, Note_on_c, 9, 44, 0
4, 96744, Note_on_c, 9, 51, 0
4, 96762, Note_on_c, 9, 51, 80
4, 97128, Note_on_c, 9, 51, 0
4, 97128, Note_on_c, 9, 44, 75
4, 97160, Note_on_c, 9, 51, 50
4, 97240, Note_on_c, 9, 44, 0
4, 97512, Note_on_c, 9, 51, 0
4, 97520, Note_on_c, 9, 51, 47
4, 97896, Note_on_c, 9, 51, 0
4, 97896, Note_on_c, 9, 44, 69
4, 97896, Note_on_c, 9, 51, 50
4, 98008, Note_on_c, 9, 44, 0
4, 98016, Note_on_c, 9, 53, 56
4, 98174, Note_on_c, 9, 53, 0
4, 98202, Note_on_c, 9, 51, 60
4, 98280, Note_on_c, 9, 51, 0
4, 98286, Note_on_c, 9, 51, 37
4, 98656, Note_on_c, 9, 51, 52
4, 98664, Note_on_c, 9, 51, 0
4, 98664, Note_on_c, 9, 51, 0
4, 98664, Note_on_c, 9, 44, 69
4, 98782, Note_on_c, 9, 44, 0
4, 99044, Note_on_c, 9, 51, 55
4, 99048, Note_on_c, 9, 51, 0
4, 99252, Note_on_c, 9, 53, 50
4, 99424, Note_on_c, 9, 53, 0
4, 99432, Note_on_c, 9, 51, 0
4, 99432, Note_on_c, 9, 44, 70
4, 99444, Note_on_c, 9, 51, 45
4, 99528, Note_on_c, 9, 44, 0
4, 99632, Note_on_c, 9, 51, 47
4, 99816, Note_on_c, 9, 51, 0
4, 99818, Note_on_c, 9, 51, 60
4, 100200, Note_on_c, 9, 51, 0
4, 100200, Note_on_c, 9, 51, 0
4, 100200, Note_on_c, 9, 44, 62
4, 100228, Note_on_c, 9, 51, 52
4, 100250, Note_on_c, 9, 37, 25
4, 100266, Note_on_c, 9, 37, 0
4, 100286, Note_on_c, 9, 44, 0
4, 100584, Note_on_c, 9, 51, 0
4, 100600, Note_on_c, 9, 51, 52
4, 100968, Note_on_c, 9, 51, 0
4, 100968, Note_on_c, 9, 44, 64
4, 100968, Note_on_c, 9, 51, 75
4, 101040, Note_on_c, 9, 44, 0
4, 101306, Note_on_c, 9, 35, 18
4, 101332, Note_on_c, 9, 35, 0
4, 101342, Note_on_c, 9, 51, 62
4, 101352, Note_on_c, 9, 51, 0
4, 101392, Note_on_c, 9, 35, 16
4, 101460, Note_on_c, 9, 35, 0
4, 101736, Note_on_c, 9, 51, 0
4, 101736, End_track
5, 0, Start_track
5, 0, Title_t, "Cakewalk TTS-1 1 Output 1"
5, 0, Control_c, 0, 7, 101
5, 0, Control_c, 0, 10, 64
5, 0, End_track
6, 0, Start_track
6, 0, Title_t, "Cakewalk TTS-1 1"
6, 0, End_track
0, 0, End_of_file
