0, 0, Header, 1, 4, 120
1, 0, Start_track
1, 0, Title_t, "Easy Does It"
1, 0, Text_t, "Oliver/Young\012"
1, 0, Text_t, "'Easy Does It' - I think it was played originally by the Basie band. It is 24 bars long (8+8+8) - and the chords are all basically I iv ii V  in 2 keys (C then F then C again) and the challenge is to create variety by finding lots of ways around this wit\012"
1, 0, System_exclusive, 10, 65, 16, 66, 18, 64, 0, 127, 0, 65, 247
1, 0, Time_signature, 4, 2, 24, 8
1, 0, Key_signature, 0, "major"
1, 0, Tempo, 476190
1, 480, Marker_t, "Walking bass on I.vi,ii,V - chord roots preceded by chromatic neighbour(s)"
1, 720, Marker_t, "Give each note its full value - one bass note is always  sounding"
1, 960, Marker_t, "Note that pedal is NOT used over this walking bass line"
1, 1138, Marker_t, "Often chromatic neighbour tones are on the 'a' of a triplet - a one, a two etc - and accented"
1, 2625, Marker_t, "On a good piano go right down low - even to this bottom A"
1, 2996, Marker_t, "Finish with 2 handed  chord blocks -  LH plays rootless voicing, RH plays octaves with 5th"
1, 4328, Marker_t, "Kind of simple stride style in LH"
1, 4669, Marker_t, "Notice that Pedal is used judiciously over stride LH  often 4 times per bar"
1, 6892, Marker_t, "LH and RH in unison 2 octaves apart for this Oscar Petersonish lick"
1, 12000, Marker_t, "Bass and Drums (brushes) in - First chorus play head"
1, 12315, Marker_t, "Little or no use of pedal - the drums and bass fill in the gaps when piano not playing"
1, 22604, Marker_t, "Oscar Peterson cliche - LH plays Dominant (G) on turn around"
1, 23520, Marker_t, "Drums to sticks - Improvised choruses begin - lots of Blues scale licks used"
1, 26897, Marker_t, "Modulating to F - using C half/whole dim scale on C7 chord"
1, 27360, Marker_t, "Descending F blues scale figure - note the use of 2 notes to accent"
1, 32420, Marker_t, "Tremolo continues as chords change under it"
1, 44856, Marker_t, "Common Blues phrase - repeated over different harmonies"
1, 46687, Marker_t, "Another cliche blues phrase"
1, 49924, Marker_t, "Another dim (half/whole) scale over C7 to modulate"
1, 54991, Marker_t, "Short Blues phrase is repeated but displaced on different beat"
1, 58080, Marker_t, "Head repeats - brushes return"
1, 65445, Marker_t, "RH white note glissando on G7"
1, 65445, End_track
2, 0, Start_track
2, 0, Title_t, "Piano"
2, 493, Note_on_c, 0, 60, 87
2, 493, Note_on_c, 0, 48, 47
2, 575, Note_on_c, 0, 60, 0
2, 576, Note_on_c, 0, 55, 33
2, 578, Note_on_c, 0, 48, 0
2, 582, Note_on_c, 0, 44, 23
2, 595, Note_on_c, 0, 55, 0
2, 608, Note_on_c, 0, 44, 0
2, 610, Note_on_c, 0, 47, 34
2, 611, Note_on_c, 0, 59, 60
2, 682, Note_on_c, 0, 59, 0
2, 685, Note_on_c, 0, 44, 32
2, 687, Note_on_c, 0, 62, 60
2, 689, Note_on_c, 0, 47, 0
2, 710, Note_on_c, 0, 62, 0
2, 716, Note_on_c, 0, 44, 0
2, 722, Note_on_c, 0, 45, 52
2, 723, Note_on_c, 0, 60, 64
2, 791, Note_on_c, 0, 45, 0
2, 798, Note_on_c, 0, 37, 45
2, 825, Note_on_c, 0, 37, 0
2, 837, Note_on_c, 0, 39, 40
2, 920, Note_on_c, 0, 37, 30
2, 929, Note_on_c, 0, 39, 0
2, 944, Note_on_c, 0, 37, 0
2, 954, Note_on_c, 0, 38, 39
2, 1033, Note_on_c, 0, 60, 0
2, 1040, Note_on_c, 0, 55, 55
2, 1059, Note_on_c, 0, 55, 0
2, 1080, Note_on_c, 0, 38, 0
2, 1082, Note_on_c, 0, 32, 28
2, 1119, Note_on_c, 0, 59, 25
2, 1139, Note_on_c, 0, 59, 0
2, 1155, Note_on_c, 0, 62, 103
2, 1160, Note_on_c, 0, 30, 51
2, 1170, Note_on_c, 0, 32, 0
2, 1182, Note_on_c, 0, 62, 0
2, 1190, Note_on_c, 0, 30, 0
2, 1195, Note_on_c, 0, 31, 60
2, 1195, Note_on_c, 0, 60, 91
2, 1277, Note_on_c, 0, 60, 0
2, 1283, Note_on_c, 0, 55, 48
2, 1292, Note_on_c, 0, 55, 0
2, 1312, Note_on_c, 0, 31, 0
2, 1314, Note_on_c, 0, 29, 36
2, 1325, Note_on_c, 0, 59, 53
2, 1333, Note_on_c, 0, 59, 0
2, 1396, Note_on_c, 0, 62, 94
2, 1412, Note_on_c, 0, 62, 0
2, 1427, Note_on_c, 0, 29, 0
2, 1434, Note_on_c, 0, 28, 40
2, 1434, Note_on_c, 0, 60, 54
2, 1441, Note_on_c, 0, 60, 0
2, 1545, Note_on_c, 0, 28, 0
2, 1551, Note_on_c, 0, 34, 53
2, 1554, Note_on_c, 0, 59, 76
2, 1592, Note_on_c, 0, 59, 0
2, 1612, Note_on_c, 0, 34, 0
2, 1633, Note_on_c, 0, 28, 44
2, 1660, Note_on_c, 0, 28, 0
2, 1669, Note_on_c, 0, 33, 49
2, 1672, Note_on_c, 0, 60, 48
2, 1736, Note_on_c, 0, 33, 0
2, 1753, Note_on_c, 0, 25, 83
2, 1900, Note_on_c, 0, 60, 0
2, 1910, Note_on_c, 0, 25, 0
2, 1910, Note_on_c, 0, 26, 56
2, 2001, Note_on_c, 0, 55, 46
2, 2023, Note_on_c, 0, 55, 0
2, 2045, Note_on_c, 0, 28, 20
2, 2053, Note_on_c, 0, 26, 0
2, 2083, Note_on_c, 0, 59, 37
2, 2102, Note_on_c, 0, 59, 0
2, 2108, Note_on_c, 0, 28, 0
2, 2112, Note_on_c, 0, 30, 59
2, 2112, Note_on_c, 0, 62, 88
2, 2145, Note_on_c, 0, 62, 0
2, 2150, Note_on_c, 0, 30, 0
2, 2154, Note_on_c, 0, 31, 65
2, 2155, Note_on_c, 0, 60, 70
2, 2238, Note_on_c, 0, 53, 31
2, 2256, Note_on_c, 0, 53, 0
2, 2256, Note_on_c, 0, 60, 0
2, 2262, Note_on_c, 0, 31, 0
2, 2269, Note_on_c, 0, 23, 58
2, 2273, Note_on_c, 0, 59, 51
2, 2362, Note_on_c, 0, 22, 33
2, 2370, Note_on_c, 0, 59, 0
2, 2384, Note_on_c, 0, 23, 0
2, 2394, Note_on_c, 0, 24, 33
2, 2395, Note_on_c, 0, 60, 67
2, 2396, Note_on_c, 0, 22, 0
2, 2491, Note_on_c, 0, 60, 0
2, 2511, Note_on_c, 0, 22, 79
2, 2515, Note_on_c, 0, 24, 0
2, 2633, Note_on_c, 0, 57, 54
2, 2634, Note_on_c, 0, 21, 56
2, 2635, Note_on_c, 0, 22, 0
2, 2701, Note_on_c, 0, 57, 0
2, 2722, Note_on_c, 0, 60, 66
2, 2731, Note_on_c, 0, 60, 0
2, 2750, Note_on_c, 0, 21, 0
2, 2751, Note_on_c, 0, 25, 35
2, 2870, Note_on_c, 0, 22, 21
2, 2881, Note_on_c, 0, 26, 68
2, 2884, Note_on_c, 0, 22, 0
2, 2886, Note_on_c, 0, 25, 0
2, 2887, Note_on_c, 0, 24, 35
2, 2893, Note_on_c, 0, 24, 0
2, 2908, Note_on_c, 0, 26, 0
2, 2932, Control_c, 0, 64, 127
2, 2997, Control_c, 0, 64, 0
2, 3007, Note_on_c, 0, 65, 81
2, 3008, Note_on_c, 0, 60, 83
2, 3008, Note_on_c, 0, 78, 83
2, 3009, Note_on_c, 0, 54, 69
2, 3009, Note_on_c, 0, 90, 83
2, 3011, Note_on_c, 0, 84, 77
2, 3016, Note_on_c, 0, 84, 0
2, 3024, Note_on_c, 0, 84, 24
2, 3032, Note_on_c, 0, 78, 0
2, 3033, Note_on_c, 0, 90, 0
2, 3033, Note_on_c, 0, 84, 0
2, 3043, Note_on_c, 0, 84, 52
2, 3043, Note_on_c, 0, 89, 69
2, 3045, Note_on_c, 0, 77, 60
2, 3051, Control_c, 0, 64, 127
2, 3056, Control_c, 0, 64, 0
2, 3067, Control_c, 0, 64, 127
2, 3083, Note_on_c, 0, 89, 0
2, 3088, Note_on_c, 0, 84, 0
2, 3093, Note_on_c, 0, 60, 0
2, 3094, Note_on_c, 0, 65, 0
2, 3099, Note_on_c, 0, 77, 0
2, 3111, Note_on_c, 0, 54, 0
2, 3112, Control_c, 0, 64, 0
2, 3120, Note_on_c, 0, 64, 55
2, 3120, Note_on_c, 0, 87, 67
2, 3121, Note_on_c, 0, 75, 53
2, 3124, Note_on_c, 0, 59, 44
2, 3125, Note_on_c, 0, 82, 37
2, 3125, Note_on_c, 0, 53, 42
2, 3150, Control_c, 0, 64, 127
2, 3155, Note_on_c, 0, 82, 0
2, 3176, Note_on_c, 0, 87, 0
2, 3183, Note_on_c, 0, 53, 0
2, 3184, Note_on_c, 0, 75, 0
2, 3184, Note_on_c, 0, 64, 0
2, 3188, Note_on_c, 0, 59, 0
2, 3200, Note_on_c, 0, 64, 45
2, 3201, Note_on_c, 0, 84, 68
2, 3201, Note_on_c, 0, 59, 53
2, 3202, Note_on_c, 0, 53, 52
2, 3206, Note_on_c, 0, 72, 40
2, 3209, Note_on_c, 0, 74, 30
2, 3215, Note_on_c, 0, 74, 0
2, 3216, Note_on_c, 0, 64, 0
2, 3218, Note_on_c, 0, 53, 0
2, 3218, Note_on_c, 0, 84, 0
2, 3218, Note_on_c, 0, 72, 0
2, 3222, Note_on_c, 0, 59, 0
2, 3231, Control_c, 0, 64, 0
2, 3241, Note_on_c, 0, 53, 39
2, 3241, Note_on_c, 0, 64, 32
2, 3241, Note_on_c, 0, 59, 48
2, 3242, Note_on_c, 0, 81, 45
2, 3245, Note_on_c, 0, 69, 26
2, 3278, Note_on_c, 0, 69, 0
2, 3278, Note_on_c, 0, 59, 0
2, 3284, Control_c, 0, 64, 127
2, 3288, Note_on_c, 0, 81, 0
2, 3292, Note_on_c, 0, 64, 0
2, 3296, Note_on_c, 0, 53, 0
2, 3317, Note_on_c, 0, 62, 54
2, 3317, Note_on_c, 0, 72, 65
2, 3317, Note_on_c, 0, 84, 72
2, 3318, Note_on_c, 0, 52, 56
2, 3319, Note_on_c, 0, 57, 53
2, 3319, Control_c, 0, 64, 0
2, 3320, Note_on_c, 0, 79, 54
2, 3360, Control_c, 0, 64, 127
2, 3481, Note_on_c, 0, 62, 0
2, 3484, Note_on_c, 0, 57, 0
2, 3490, Note_on_c, 0, 84, 0
2, 3499, Note_on_c, 0, 79, 0
2, 3499, Note_on_c, 0, 52, 0
2, 3512, Note_on_c, 0, 72, 0
2, 3562, Note_on_c, 0, 54, 76
2, 3584, Control_c, 0, 64, 0
2, 3599, Note_on_c, 0, 54, 0
2, 3604, Note_on_c, 0, 55, 64
2, 3678, Note_on_c, 0, 43, 71
2, 3703, Control_c, 0, 64, 127
2, 3744, Note_on_c, 0, 55, 0
2, 3796, Note_on_c, 0, 50, 38
2, 3820, Note_on_c, 0, 50, 0
2, 3821, Control_c, 0, 64, 0
2, 3833, Note_on_c, 0, 53, 58
2, 3834, Note_on_c, 0, 65, 51
2, 3834, Note_on_c, 0, 62, 51
2, 3835, Note_on_c, 0, 58, 44
2, 3835, Note_on_c, 0, 55, 51
2, 3836, Note_on_c, 0, 43, 0
2, 3845, Control_c, 0, 64, 127
2, 3853, Note_on_c, 0, 55, 0
2, 3857, Note_on_c, 0, 58, 0
2, 3858, Note_on_c, 0, 62, 0
2, 3858, Note_on_c, 0, 65, 0
2, 3868, Note_on_c, 0, 53, 0
2, 3910, Note_on_c, 0, 58, 71
2, 3911, Note_on_c, 0, 69, 54
2, 3911, Note_on_c, 0, 62, 69
2, 3912, Note_on_c, 0, 57, 76
2, 3926, Note_on_c, 0, 62, 0
2, 3926, Note_on_c, 0, 58, 0
2, 3930, Note_on_c, 0, 69, 0
2, 3930, Note_on_c, 0, 57, 0
2, 3953, Note_on_c, 0, 60, 62
2, 3953, Control_c, 0, 64, 0
2, 3954, Note_on_c, 0, 72, 74
2, 3954, Note_on_c, 0, 62, 80
2, 3954, Note_on_c, 0, 65, 73
2, 3957, Note_on_c, 0, 69, 61
2, 3978, Control_c, 0, 64, 127
2, 3984, Note_on_c, 0, 65, 0
2, 3985, Note_on_c, 0, 69, 0
2, 3988, Note_on_c, 0, 62, 0
2, 3989, Note_on_c, 0, 72, 0
2, 3993, Note_on_c, 0, 60, 0
2, 4029, Note_on_c, 0, 75, 72
2, 4030, Note_on_c, 0, 70, 69
2, 4030, Note_on_c, 0, 63, 69
2, 4031, Note_on_c, 0, 62, 58
2, 4032, Note_on_c, 0, 64, 70
2, 4040, Control_c, 0, 64, 0
2, 4064, Note_on_c, 0, 62, 0
2, 4066, Note_on_c, 0, 63, 0
2, 4071, Control_c, 0, 64, 127
2, 4142, Note_on_c, 0, 75, 0
2, 4142, Note_on_c, 0, 42, 69
2, 4144, Note_on_c, 0, 52, 71
2, 4145, Note_on_c, 0, 64, 0
2, 4150, Note_on_c, 0, 70, 0
2, 4162, Control_c, 0, 64, 0
2, 4197, Control_c, 0, 64, 127
2, 4267, Note_on_c, 0, 52, 0
2, 4270, Note_on_c, 0, 48, 44
2, 4271, Note_on_c, 0, 42, 0
2, 4302, Note_on_c, 0, 48, 0
2, 4304, Control_c, 0, 64, 0
2, 4308, Note_on_c, 0, 77, 64
2, 4308, Note_on_c, 0, 41, 54
2, 4324, Note_on_c, 0, 41, 0
2, 4368, Note_on_c, 0, 77, 0
2, 4393, Control_c, 0, 64, 127
2, 4400, Note_on_c, 0, 77, 75
2, 4426, Control_c, 0, 64, 0
2, 4427, Note_on_c, 0, 62, 57
2, 4432, Note_on_c, 0, 60, 42
2, 4432, Note_on_c, 0, 53, 29
2, 4435, Note_on_c, 0, 62, 0
2, 4438, Note_on_c, 0, 60, 0
2, 4454, Note_on_c, 0, 53, 0
2, 4485, Note_on_c, 0, 72, 58
2, 4493, Note_on_c, 0, 72, 0
2, 4498, Note_on_c, 0, 77, 0
2, 4509, Control_c, 0, 64, 127
2, 4514, Note_on_c, 0, 76, 77
2, 4535, Note_on_c, 0, 76, 0
2, 4541, Note_on_c, 0, 79, 77
2, 4554, Control_c, 0, 64, 0
2, 4559, Note_on_c, 0, 50, 45
2, 4560, Note_on_c, 0, 79, 0
2, 4567, Note_on_c, 0, 77, 68
2, 4572, Note_on_c, 0, 64, 17
2, 4590, Control_c, 0, 64, 127
2, 4591, Note_on_c, 0, 64, 0
2, 4592, Note_on_c, 0, 50, 0
2, 4673, Note_on_c, 0, 54, 51
2, 4675, Note_on_c, 0, 44, 48
2, 4676, Control_c, 0, 64, 0
2, 4714, Control_c, 0, 64, 127
2, 4748, Note_on_c, 0, 54, 0
2, 4752, Note_on_c, 0, 50, 39
2, 4757, Note_on_c, 0, 44, 0
2, 4775, Note_on_c, 0, 50, 0
2, 4787, Note_on_c, 0, 77, 0
2, 4792, Control_c, 0, 64, 0
2, 4794, Note_on_c, 0, 43, 44
2, 4795, Note_on_c, 0, 74, 50
2, 4795, Note_on_c, 0, 53, 36
2, 4801, Note_on_c, 0, 65, 20
2, 4801, Note_on_c, 0, 70, 21
2, 4809, Note_on_c, 0, 43, 0
2, 4814, Note_on_c, 0, 65, 0
2, 4821, Note_on_c, 0, 53, 0
2, 4826, Control_c, 0, 64, 127
2, 4830, Note_on_c, 0, 70, 0
2, 4847, Note_on_c, 0, 74, 0
2, 4849, Control_c, 0, 64, 0
2, 4864, Control_c, 0, 64, 127
2, 4875, Note_on_c, 0, 72, 38
2, 4884, Note_on_c, 0, 72, 0
2, 4909, Note_on_c, 0, 58, 43
2, 4911, Control_c, 0, 64, 0
2, 4911, Note_on_c, 0, 75, 52
2, 4926, Note_on_c, 0, 58, 0
2, 4932, Note_on_c, 0, 75, 0
2, 4950, Note_on_c, 0, 76, 57
2, 4966, Note_on_c, 0, 76, 0
2, 4976, Control_c, 0, 64, 127
2, 4986, Note_on_c, 0, 79, 82
2, 5009, Note_on_c, 0, 79, 0
2, 5016, Control_c, 0, 64, 0
2, 5023, Note_on_c, 0, 48, 51
2, 5025, Note_on_c, 0, 77, 71
2, 5025, Note_on_c, 0, 58, 49
2, 5052, Control_c, 0, 64, 127
2, 5058, Note_on_c, 0, 48, 0
2, 5079, Note_on_c, 0, 58, 0
2, 5111, Note_on_c, 0, 67, 29
2, 5119, Note_on_c, 0, 67, 0
2, 5148, Note_on_c, 0, 64, 54
2, 5150, Note_on_c, 0, 58, 48
2, 5155, Note_on_c, 0, 64, 0
2, 5156, Control_c, 0, 64, 0
2, 5166, Note_on_c, 0, 58, 0
2, 5176, Control_c, 0, 64, 127
2, 5186, Note_on_c, 0, 77, 0
2, 5198, Note_on_c, 0, 76, 32
2, 5214, Note_on_c, 0, 76, 0
2, 5237, Note_on_c, 0, 79, 62
2, 5262, Note_on_c, 0, 79, 0
2, 5271, Note_on_c, 0, 41, 61
2, 5273, Note_on_c, 0, 77, 57
2, 5275, Control_c, 0, 64, 0
2, 5285, Note_on_c, 0, 41, 0
2, 5298, Note_on_c, 0, 77, 0
2, 5355, Note_on_c, 0, 77, 74
2, 5357, Control_c, 0, 64, 127
2, 5383, Control_c, 0, 64, 0
2, 5387, Note_on_c, 0, 64, 43
2, 5393, Note_on_c, 0, 60, 39
2, 5396, Note_on_c, 0, 53, 19
2, 5397, Note_on_c, 0, 64, 0
2, 5398, Note_on_c, 0, 57, 27
2, 5401, Note_on_c, 0, 60, 0
2, 5407, Note_on_c, 0, 57, 0
2, 5411, Control_c, 0, 64, 127
2, 5414, Note_on_c, 0, 53, 0
2, 5448, Note_on_c, 0, 77, 0
2, 5472, Note_on_c, 0, 45, 59
2, 5483, Note_on_c, 0, 45, 0
2, 5514, Control_c, 0, 64, 0
2, 5514, Note_on_c, 0, 77, 72
2, 5516, Note_on_c, 0, 65, 66
2, 5517, Note_on_c, 0, 72, 57
2, 5517, Note_on_c, 0, 54, 62
2, 5518, Note_on_c, 0, 60, 71
2, 5525, Note_on_c, 0, 53, 51
2, 5535, Note_on_c, 0, 53, 0
2, 5544, Control_c, 0, 64, 127
2, 5548, Note_on_c, 0, 54, 0
2, 5565, Note_on_c, 0, 60, 0
2, 5585, Note_on_c, 0, 72, 0
2, 5598, Note_on_c, 0, 77, 0
2, 5606, Note_on_c, 0, 65, 0
2, 5634, Note_on_c, 0, 44, 56
2, 5637, Control_c, 0, 64, 0
2, 5637, Note_on_c, 0, 54, 45
2, 5656, Control_c, 0, 64, 127
2, 5717, Note_on_c, 0, 54, 0
2, 5718, Note_on_c, 0, 50, 34
2, 5737, Note_on_c, 0, 44, 0
2, 5740, Note_on_c, 0, 50, 0
2, 5754, Control_c, 0, 64, 0
2, 5758, Note_on_c, 0, 57, 33
2, 5759, Note_on_c, 0, 62, 35
2, 5760, Note_on_c, 0, 43, 36
2, 5760, Note_on_c, 0, 53, 26
2, 5762, Note_on_c, 0, 58, 34
2, 5780, Control_c, 0, 64, 127
2, 5783, Note_on_c, 0, 43, 0
2, 5783, Note_on_c, 0, 57, 0
2, 5791, Note_on_c, 0, 58, 0
2, 5799, Note_on_c, 0, 62, 0
2, 5802, Note_on_c, 0, 53, 0
2, 5877, Note_on_c, 0, 62, 51
2, 5878, Note_on_c, 0, 58, 47
2, 5879, Note_on_c, 0, 57, 46
2, 5885, Control_c, 0, 64, 0
2, 5896, Note_on_c, 0, 62, 0
2, 5901, Note_on_c, 0, 57, 0
2, 5904, Note_on_c, 0, 58, 0
2, 5946, Control_c, 0, 64, 127
2, 5961, Note_on_c, 0, 72, 57
2, 5969, Note_on_c, 0, 72, 0
2, 5994, Control_c, 0, 64, 0
2, 5996, Note_on_c, 0, 62, 57
2, 5996, Note_on_c, 0, 58, 53
2, 5997, Note_on_c, 0, 75, 68
2, 5999, Note_on_c, 0, 52, 42
2, 6007, Note_on_c, 0, 62, 0
2, 6016, Note_on_c, 0, 52, 0
2, 6019, Note_on_c, 0, 58, 0
2, 6024, Note_on_c, 0, 75, 0
2, 6035, Note_on_c, 0, 76, 62
2, 6053, Note_on_c, 0, 76, 0
2, 6067, Note_on_c, 0, 79, 82
2, 6069, Note_on_c, 0, 67, 89
2, 6080, Control_c, 0, 64, 127
2, 6094, Control_c, 0, 64, 0
2, 6104, Note_on_c, 0, 58, 59
2, 6106, Note_on_c, 0, 48, 52
2, 6113, Note_on_c, 0, 48, 0
2, 6117, Note_on_c, 0, 58, 0
2, 6118, Control_c, 0, 64, 127
2, 6186, Note_on_c, 0, 79, 0
2, 6188, Note_on_c, 0, 48, 54
2, 6209, Note_on_c, 0, 67, 0
2, 6223, Note_on_c, 0, 48, 0
2, 6230, Note_on_c, 0, 41, 25
2, 6230, Control_c, 0, 64, 0
2, 6232, Note_on_c, 0, 77, 68
2, 6233, Note_on_c, 0, 65, 68
2, 6233, Note_on_c, 0, 57, 43
2, 6259, Note_on_c, 0, 41, 0
2, 6266, Control_c, 0, 64, 127
2, 6283, Note_on_c, 0, 57, 0
2, 6313, Note_on_c, 0, 65, 0
2, 6336, Note_on_c, 0, 77, 0
2, 6345, Note_on_c, 0, 55, 67
2, 6350, Note_on_c, 0, 65, 68
2, 6353, Note_on_c, 0, 76, 54
2, 6353, Note_on_c, 0, 61, 31
2, 6354, Control_c, 0, 64, 0
2, 6382, Control_c, 0, 64, 127
2, 6424, Note_on_c, 0, 55, 0
2, 6428, Note_on_c, 0, 65, 0
2, 6428, Note_on_c, 0, 76, 0
2, 6449, Note_on_c, 0, 61, 0
2, 6469, Note_on_c, 0, 77, 62
2, 6471, Note_on_c, 0, 60, 66
2, 6472, Control_c, 0, 64, 0
2, 6474, Note_on_c, 0, 65, 34
2, 6474, Note_on_c, 0, 54, 50
2, 6477, Note_on_c, 0, 67, 41
2, 6483, Note_on_c, 0, 67, 0
2, 6501, Control_c, 0, 64, 127
2, 6512, Note_on_c, 0, 60, 0
2, 6522, Note_on_c, 0, 54, 0
2, 6524, Note_on_c, 0, 77, 0
2, 6544, Note_on_c, 0, 65, 0
2, 6589, Control_c, 0, 64, 0
2, 6589, Note_on_c, 0, 74, 47
2, 6590, Note_on_c, 0, 54, 43
2, 6590, Note_on_c, 0, 68, 38
2, 6591, Note_on_c, 0, 60, 52
2, 6593, Note_on_c, 0, 62, 25
2, 6610, Note_on_c, 0, 60, 0
2, 6610, Note_on_c, 0, 68, 0
2, 6617, Note_on_c, 0, 69, 27
2, 6618, Control_c, 0, 64, 127
2, 6622, Note_on_c, 0, 54, 0
2, 6641, Note_on_c, 0, 69, 0
2, 6665, Note_on_c, 0, 74, 0
2, 6666, Note_on_c, 0, 62, 0
2, 6671, Note_on_c, 0, 50, 33
2, 6700, Note_on_c, 0, 50, 0
2, 6706, Control_c, 0, 64, 0
2, 6709, Note_on_c, 0, 62, 46
2, 6710, Note_on_c, 0, 53, 54
2, 6710, Note_on_c, 0, 43, 48
2, 6711, Note_on_c, 0, 65, 49
2, 6724, Note_on_c, 0, 62, 0
2, 6728, Note_on_c, 0, 43, 0
2, 6729, Control_c, 0, 64, 127
2, 6732, Note_on_c, 0, 65, 0
2, 6739, Note_on_c, 0, 53, 0
2, 6912, Note_on_c, 0, 82, 90
2, 6912, Note_on_c, 0, 83, 87
2, 6914, Note_on_c, 0, 59, 88
2, 6915, Note_on_c, 0, 58, 72
2, 6921, Note_on_c, 0, 82, 0
2, 6922, Control_c, 0, 64, 0
2, 6927, Note_on_c, 0, 58, 0
2, 6928, Note_on_c, 0, 83, 0
2, 6930, Note_on_c, 0, 59, 0
2, 6960, Note_on_c, 0, 58, 67
2, 6961, Note_on_c, 0, 82, 67
2, 6977, Note_on_c, 0, 82, 0
2, 6977, Note_on_c, 0, 58, 0
2, 6998, Note_on_c, 0, 56, 46
2, 6998, Note_on_c, 0, 80, 50
2, 7011, Note_on_c, 0, 56, 0
2, 7013, Note_on_c, 0, 80, 0
2, 7032, Note_on_c, 0, 53, 57
2, 7034, Note_on_c, 0, 77, 32
2, 7051, Note_on_c, 0, 77, 0
2, 7055, Note_on_c, 0, 53, 0
2, 7070, Note_on_c, 0, 75, 53
2, 7074, Note_on_c, 0, 51, 31
2, 7099, Note_on_c, 0, 51, 0
2, 7100, Note_on_c, 0, 75, 0
2, 7106, Note_on_c, 0, 76, 55
2, 7113, Note_on_c, 0, 52, 37
2, 7123, Note_on_c, 0, 76, 0
2, 7133, Note_on_c, 0, 52, 0
2, 7142, Note_on_c, 0, 53, 83
2, 7144, Note_on_c, 0, 77, 91
2, 7193, Control_c, 0, 64, 127
2, 7313, Note_on_c, 0, 72, 45
2, 7319, Note_on_c, 0, 77, 0
2, 7336, Control_c, 0, 64, 0
2, 7338, Control_c, 0, 64, 127
2, 7371, Note_on_c, 0, 72, 0
2, 7434, Note_on_c, 0, 60, 58
2, 7436, Note_on_c, 0, 57, 50
2, 7440, Control_c, 0, 64, 0
2, 7490, Control_c, 0, 64, 127
2, 7547, Control_c, 0, 64, 0
2, 7549, Note_on_c, 0, 48, 59
2, 7550, Note_on_c, 0, 53, 0
2, 7556, Note_on_c, 0, 60, 0
2, 7560, Control_c, 0, 64, 127
2, 7567, Note_on_c, 0, 48, 0
2, 7609, Note_on_c, 0, 57, 0
2, 7672, Note_on_c, 0, 53, 33
2, 7672, Note_on_c, 0, 43, 40
2, 7673, Note_on_c, 0, 57, 41
2, 7673, Note_on_c, 0, 64, 26
2, 7674, Note_on_c, 0, 31, 43
2, 7675, Control_c, 0, 64, 0
2, 7675, Note_on_c, 0, 60, 38
2, 7701, Note_on_c, 0, 60, 0
2, 7701, Note_on_c, 0, 57, 0
2, 7702, Note_on_c, 0, 53, 0
2, 7704, Note_on_c, 0, 43, 0
2, 7704, Note_on_c, 0, 64, 0
2, 7705, Note_on_c, 0, 31, 0
2, 7758, Note_on_c, 0, 43, 34
2, 7761, Note_on_c, 0, 31, 33
2, 7761, Note_on_c, 0, 57, 35
2, 7761, Note_on_c, 0, 53, 24
2, 7763, Note_on_c, 0, 60, 41
2, 7765, Note_on_c, 0, 64, 22
2, 7786, Note_on_c, 0, 31, 0
2, 7791, Note_on_c, 0, 43, 0
2, 7794, Note_on_c, 0, 60, 0
2, 7794, Note_on_c, 0, 64, 0
2, 7795, Note_on_c, 0, 53, 0
2, 7797, Note_on_c, 0, 57, 0
2, 7861, Control_c, 0, 64, 127
2, 7879, Note_on_c, 0, 43, 42
2, 7880, Note_on_c, 0, 64, 40
2, 7881, Note_on_c, 0, 56, 28
2, 7881, Note_on_c, 0, 31, 39
2, 7881, Note_on_c, 0, 53, 34
2, 7882, Control_c, 0, 64, 0
2, 7883, Note_on_c, 0, 59, 43
2, 7906, Control_c, 0, 64, 127
2, 7921, Note_on_c, 0, 53, 0
2, 7930, Note_on_c, 0, 56, 0
2, 7931, Note_on_c, 0, 59, 0
2, 7949, Note_on_c, 0, 64, 0
2, 7972, Note_on_c, 0, 31, 0
2, 8003, Note_on_c, 0, 31, 53
2, 8022, Note_on_c, 0, 31, 0
2, 8037, Note_on_c, 0, 43, 0
2, 8042, Control_c, 0, 64, 0
2, 8049, Note_on_c, 0, 74, 17
2, 8073, Note_on_c, 0, 75, 23
2, 8084, Note_on_c, 0, 74, 0
2, 8085, Control_c, 0, 64, 127
2, 8093, Note_on_c, 0, 75, 0
2, 8095, Note_on_c, 0, 76, 44
2, 8097, Control_c, 0, 64, 0
2, 8113, Control_c, 0, 64, 127
2, 8115, Note_on_c, 0, 76, 0
2, 8125, Note_on_c, 0, 79, 74
2, 8148, Note_on_c, 0, 79, 0
2, 8155, Note_on_c, 0, 43, 26
2, 8156, Control_c, 0, 64, 0
2, 8157, Note_on_c, 0, 36, 41
2, 8159, Note_on_c, 0, 52, 34
2, 8159, Note_on_c, 0, 72, 30
2, 8165, Note_on_c, 0, 36, 0
2, 8182, Note_on_c, 0, 43, 0
2, 8182, Control_c, 0, 64, 127
2, 8194, Note_on_c, 0, 52, 0
2, 8244, Note_on_c, 0, 67, 43
2, 8249, Note_on_c, 0, 72, 0
2, 8260, Note_on_c, 0, 67, 0
2, 8274, Note_on_c, 0, 64, 50
2, 8275, Note_on_c, 0, 71, 64
2, 8277, Note_on_c, 0, 60, 49
2, 8277, Note_on_c, 0, 59, 40
2, 8279, Control_c, 0, 64, 0
2, 8281, Note_on_c, 0, 64, 0
2, 8286, Note_on_c, 0, 60, 0
2, 8288, Note_on_c, 0, 59, 0
2, 8346, Control_c, 0, 64, 127
2, 8355, Note_on_c, 0, 52, 32
2, 8358, Note_on_c, 0, 71, 0
2, 8364, Note_on_c, 0, 52, 0
2, 8385, Control_c, 0, 64, 0
2, 8387, Note_on_c, 0, 72, 74
2, 8392, Note_on_c, 0, 55, 79
2, 8393, Note_on_c, 0, 65, 84
2, 8396, Note_on_c, 0, 57, 42
2, 8403, Note_on_c, 0, 57, 0
2, 8417, Control_c, 0, 64, 127
2, 8435, Note_on_c, 0, 65, 0
2, 8443, Note_on_c, 0, 55, 0
2, 8513, Note_on_c, 0, 61, 38
2, 8516, Note_on_c, 0, 54, 33
2, 8517, Note_on_c, 0, 51, 28
2, 8519, Note_on_c, 0, 58, 39
2, 8520, Control_c, 0, 64, 0
2, 8551, Control_c, 0, 64, 127
2, 8567, Note_on_c, 0, 58, 0
2, 8584, Note_on_c, 0, 61, 0
2, 8603, Note_on_c, 0, 51, 0
2, 8608, Note_on_c, 0, 54, 0
2, 8636, Control_c, 0, 64, 0
2, 8636, Note_on_c, 0, 60, 36
2, 8638, Note_on_c, 0, 53, 32
2, 8640, Note_on_c, 0, 50, 19
2, 8644, Note_on_c, 0, 57, 28
2, 8672, Control_c, 0, 64, 127
2, 8701, Note_on_c, 0, 57, 0
2, 8710, Note_on_c, 0, 60, 0
2, 8718, Note_on_c, 0, 67, 55
2, 8731, Note_on_c, 0, 67, 0
2, 8757, Note_on_c, 0, 60, 45
2, 8759, Note_on_c, 0, 57, 42
2, 8765, Note_on_c, 0, 60, 0
2, 8765, Control_c, 0, 64, 0
2, 8768, Note_on_c, 0, 57, 0
2, 8773, Note_on_c, 0, 50, 0
2, 8776, Note_on_c, 0, 53, 0
2, 8777, Control_c, 0, 64, 127
2, 8798, Note_on_c, 0, 72, 0
2, 8803, Note_on_c, 0, 71, 51
2, 8822, Note_on_c, 0, 71, 0
2, 8835, Note_on_c, 0, 74, 83
2, 8858, Note_on_c, 0, 74, 0
2, 8868, Control_c, 0, 64, 0
2, 8871, Note_on_c, 0, 72, 77
2, 8872, Note_on_c, 0, 43, 60
2, 8891, Control_c, 0, 64, 127
2, 8893, Note_on_c, 0, 43, 0
2, 8954, Note_on_c, 0, 67, 53
2, 8976, Note_on_c, 0, 72, 0
2, 8991, Control_c, 0, 64, 0
2, 8992, Note_on_c, 0, 64, 40
2, 8994, Note_on_c, 0, 53, 29
2, 8996, Note_on_c, 0, 59, 46
2, 9010, Note_on_c, 0, 64, 0
2, 9013, Control_c, 0, 64, 127
2, 9014, Note_on_c, 0, 59, 0
2, 9020, Note_on_c, 0, 53, 0
2, 9042, Note_on_c, 0, 67, 0
2, 9042, Note_on_c, 0, 71, 43
2, 9064, Note_on_c, 0, 71, 0
2, 9073, Note_on_c, 0, 74, 65
2, 9097, Note_on_c, 0, 74, 0
2, 9113, Control_c, 0, 64, 0
2, 9114, Note_on_c, 0, 62, 49
2, 9116, Note_on_c, 0, 52, 33
2, 9117, Note_on_c, 0, 57, 41
2, 9124, Note_on_c, 0, 62, 0
2, 9125, Note_on_c, 0, 57, 0
2, 9126, Note_on_c, 0, 52, 0
2, 9196, Control_c, 0, 64, 127
2, 9229, Control_c, 0, 64, 0
2, 9236, Note_on_c, 0, 56, 42
2, 9237, Note_on_c, 0, 71, 49
2, 9238, Note_on_c, 0, 46, 36
2, 9242, Note_on_c, 0, 66, 42
2, 9278, Note_on_c, 0, 56, 0
2, 9286, Note_on_c, 0, 66, 0
2, 9286, Control_c, 0, 64, 127
2, 9292, Note_on_c, 0, 46, 0
2, 9311, Note_on_c, 0, 71, 0
2, 9351, Control_c, 0, 64, 0
2, 9360, Note_on_c, 0, 55, 48
2, 9361, Note_on_c, 0, 72, 48
2, 9362, Note_on_c, 0, 60, 51
2, 9362, Note_on_c, 0, 45, 33
2, 9363, Note_on_c, 0, 67, 49
2, 9389, Control_c, 0, 64, 127
2, 9421, Note_on_c, 0, 67, 0
2, 9435, Note_on_c, 0, 45, 0
2, 9441, Note_on_c, 0, 72, 0
2, 9448, Note_on_c, 0, 60, 0
2, 9452, Note_on_c, 0, 55, 0
2, 9481, Note_on_c, 0, 66, 48
2, 9482, Note_on_c, 0, 51, 48
2, 9483, Note_on_c, 0, 60, 37
2, 9489, Control_c, 0, 64, 0
2, 9534, Control_c, 0, 64, 127
2, 9570, Note_on_c, 0, 51, 0
2, 9571, Note_on_c, 0, 60, 0
2, 9575, Note_on_c, 0, 66, 0
2, 9594, Control_c, 0, 64, 0
2, 9599, Note_on_c, 0, 65, 51
2, 9601, Note_on_c, 0, 50, 37
2, 9604, Note_on_c, 0, 60, 22
2, 9604, Note_on_c, 0, 57, 29
2, 9615, Control_c, 0, 64, 127
2, 9616, Note_on_c, 0, 60, 0
2, 9630, Note_on_c, 0, 50, 0
2, 9641, Note_on_c, 0, 65, 0
2, 9641, Note_on_c, 0, 57, 0
2, 9718, Note_on_c, 0, 65, 17
2, 9719, Control_c, 0, 64, 0
2, 9720, Note_on_c, 0, 60, 27
2, 9720, Note_on_c, 0, 54, 13
2, 9744, Control_c, 0, 64, 127
2, 9755, Note_on_c, 0, 67, 49
2, 9763, Note_on_c, 0, 67, 0
2, 9770, Note_on_c, 0, 65, 0
2, 9783, Note_on_c, 0, 60, 0
2, 9792, Note_on_c, 0, 72, 80
2, 9817, Note_on_c, 0, 54, 0
2, 9819, Note_on_c, 0, 72, 0
2, 9832, Note_on_c, 0, 72, 64
2, 9834, Note_on_c, 0, 64, 57
2, 9835, Note_on_c, 0, 53, 51
2, 9836, Control_c, 0, 64, 0
2, 9837, Note_on_c, 0, 59, 55
2, 9866, Note_on_c, 0, 64, 0
2, 9873, Note_on_c, 0, 59, 0
2, 9876, Control_c, 0, 64, 127
2, 9886, Note_on_c, 0, 53, 0
2, 9889, Control_c, 0, 64, 0
2, 9900, Note_on_c, 0, 72, 0
2, 9900, Control_c, 0, 64, 127
2, 9916, Note_on_c, 0, 74, 80
2, 9953, Note_on_c, 0, 74, 0
2, 9953, Note_on_c, 0, 43, 54
2, 9953, Control_c, 0, 64, 0
2, 9955, Note_on_c, 0, 70, 57
2, 9966, Note_on_c, 0, 71, 37
2, 9969, Note_on_c, 0, 43, 0
2, 9971, Note_on_c, 0, 70, 0
2, 9986, Control_c, 0, 64, 127
2, 10005, Note_on_c, 0, 71, 0
2, 10032, Note_on_c, 0, 71, 68
2, 10054, Note_on_c, 0, 71, 0
2, 10072, Note_on_c, 0, 72, 42
2, 10073, Note_on_c, 0, 67, 53
2, 10073, Note_on_c, 0, 40, 46
2, 10074, Control_c, 0, 64, 0
2, 10078, Note_on_c, 0, 62, 27
2, 10097, Note_on_c, 0, 40, 0
2, 10126, Note_on_c, 0, 72, 0
2, 10126, Note_on_c, 0, 67, 0
2, 10126, Note_on_c, 0, 62, 0
2, 10143, Control_c, 0, 64, 127
2, 10195, Control_c, 0, 64, 0
2, 10196, Note_on_c, 0, 46, 38
2, 10196, Note_on_c, 0, 56, 42
2, 10197, Note_on_c, 0, 61, 46
2, 10197, Note_on_c, 0, 72, 36
2, 10198, Note_on_c, 0, 66, 48
2, 10214, Note_on_c, 0, 56, 0
2, 10228, Note_on_c, 0, 46, 0
2, 10248, Control_c, 0, 64, 127
2, 10255, Note_on_c, 0, 61, 0
2, 10274, Note_on_c, 0, 72, 0
2, 10279, Note_on_c, 0, 66, 0
2, 10309, Control_c, 0, 64, 0
2, 10313, Note_on_c, 0, 61, 52
2, 10313, Note_on_c, 0, 55, 51
2, 10314, Note_on_c, 0, 65, 55
2, 10315, Note_on_c, 0, 72, 32
2, 10316, Note_on_c, 0, 45, 33
2, 10318, Note_on_c, 0, 69, 43
2, 10340, Control_c, 0, 64, 127
2, 10360, Note_on_c, 0, 69, 0
2, 10366, Note_on_c, 0, 72, 0
2, 10374, Note_on_c, 0, 65, 0
2, 10383, Note_on_c, 0, 61, 0
2, 10386, Note_on_c, 0, 55, 0
2, 10420, Note_on_c, 0, 45, 0
2, 10436, Note_on_c, 0, 61, 42
2, 10436, Control_c, 0, 64, 0
2, 10437, Note_on_c, 0, 58, 35
2, 10437, Note_on_c, 0, 51, 46
2, 10440, Note_on_c, 0, 65, 42
2, 10462, Control_c, 0, 64, 127
2, 10467, Note_on_c, 0, 65, 0
2, 10474, Note_on_c, 0, 58, 0
2, 10486, Note_on_c, 0, 61, 0
2, 10516, Note_on_c, 0, 51, 0
2, 10520, Note_on_c, 0, 50, 45
2, 10520, Note_on_c, 0, 57, 49
2, 10522, Note_on_c, 0, 65, 45
2, 10522, Note_on_c, 0, 60, 55
2, 10523, Note_on_c, 0, 62, 36
2, 10529, Control_c, 0, 64, 0
2, 10539, Note_on_c, 0, 57, 0
2, 10552, Note_on_c, 0, 60, 0
2, 10554, Control_c, 0, 64, 127
2, 10555, Note_on_c, 0, 62, 0
2, 10559, Note_on_c, 0, 65, 0
2, 10593, Note_on_c, 0, 50, 0
2, 10642, Note_on_c, 0, 90, 77
2, 10642, Note_on_c, 0, 78, 74
2, 10646, Note_on_c, 0, 84, 62
2, 10651, Note_on_c, 0, 84, 0
2, 10658, Note_on_c, 0, 78, 0
2, 10660, Note_on_c, 0, 90, 0
2, 10667, Control_c, 0, 64, 0
2, 10671, Note_on_c, 0, 89, 63
2, 10671, Note_on_c, 0, 84, 61
2, 10671, Note_on_c, 0, 77, 60
2, 10678, Note_on_c, 0, 89, 0
2, 10681, Note_on_c, 0, 84, 0
2, 10685, Note_on_c, 0, 77, 0
2, 10719, Note_on_c, 0, 75, 64
2, 10721, Note_on_c, 0, 65, 34
2, 10724, Note_on_c, 0, 54, 20
2, 10725, Note_on_c, 0, 75, 0
2, 10728, Note_on_c, 0, 65, 0
2, 10732, Note_on_c, 0, 54, 0
2, 10756, Note_on_c, 0, 72, 69
2, 10758, Note_on_c, 0, 84, 50
2, 10763, Note_on_c, 0, 72, 0
2, 10764, Note_on_c, 0, 84, 0
2, 10791, Note_on_c, 0, 60, 71
2, 10791, Note_on_c, 0, 65, 67
2, 10791, Note_on_c, 0, 87, 85
2, 10791, Note_on_c, 0, 75, 83
2, 10792, Note_on_c, 0, 54, 52
2, 10797, Note_on_c, 0, 65, 0
2, 10803, Note_on_c, 0, 60, 0
2, 10804, Note_on_c, 0, 75, 0
2, 10805, Note_on_c, 0, 54, 0
2, 10807, Note_on_c, 0, 87, 0
2, 10827, Note_on_c, 0, 64, 49
2, 10827, Note_on_c, 0, 53, 42
2, 10828, Note_on_c, 0, 84, 51
2, 10829, Note_on_c, 0, 59, 41
2, 10831, Note_on_c, 0, 72, 22
2, 10849, Note_on_c, 0, 84, 0
2, 10857, Control_c, 0, 64, 127
2, 10862, Note_on_c, 0, 72, 0
2, 10872, Note_on_c, 0, 64, 0
2, 10875, Note_on_c, 0, 53, 0
2, 10877, Note_on_c, 0, 59, 0
2, 10891, Note_on_c, 0, 82, 53
2, 10893, Note_on_c, 0, 70, 63
2, 10895, Note_on_c, 0, 53, 47
2, 10896, Note_on_c, 0, 59, 50
2, 10899, Note_on_c, 0, 64, 40
2, 10909, Note_on_c, 0, 64, 0
2, 10911, Note_on_c, 0, 82, 0
2, 10911, Note_on_c, 0, 70, 0
2, 10914, Note_on_c, 0, 53, 0
2, 10916, Note_on_c, 0, 59, 0
2, 10923, Control_c, 0, 64, 0
2, 10936, Note_on_c, 0, 53, 37
2, 10937, Note_on_c, 0, 59, 41
2, 10944, Note_on_c, 0, 71, 66
2, 10953, Note_on_c, 0, 59, 0
2, 10959, Note_on_c, 0, 71, 0
2, 10964, Note_on_c, 0, 53, 0
2, 10997, Control_c, 0, 64, 127
2, 11003, Note_on_c, 0, 71, 78
2, 11003, Note_on_c, 0, 59, 54
2, 11004, Note_on_c, 0, 83, 58
2, 11004, Note_on_c, 0, 53, 41
2, 11004, Note_on_c, 0, 64, 45
2, 11010, Note_on_c, 0, 81, 26
2, 11013, Note_on_c, 0, 64, 0
2, 11016, Note_on_c, 0, 59, 0
2, 11016, Note_on_c, 0, 71, 0
2, 11017, Note_on_c, 0, 81, 0
2, 11022, Note_on_c, 0, 53, 0
2, 11022, Note_on_c, 0, 83, 0
2, 11032, Control_c, 0, 64, 0
2, 11042, Note_on_c, 0, 72, 66
2, 11042, Note_on_c, 0, 84, 71
2, 11043, Note_on_c, 0, 57, 58
2, 11043, Note_on_c, 0, 62, 51
2, 11045, Note_on_c, 0, 52, 39
2, 11056, Note_on_c, 0, 52, 0
2, 11057, Note_on_c, 0, 62, 0
2, 11058, Note_on_c, 0, 84, 0
2, 11060, Note_on_c, 0, 57, 0
2, 11060, Note_on_c, 0, 72, 0
2, 11114, Note_on_c, 0, 62, 64
2, 11115, Note_on_c, 0, 57, 64
2, 11115, Note_on_c, 0, 52, 58
2, 11116, Note_on_c, 0, 84, 77
2, 11116, Note_on_c, 0, 72, 79
2, 11117, Note_on_c, 0, 79, 66
2, 11124, Note_on_c, 0, 79, 0
2, 11128, Note_on_c, 0, 72, 0
2, 11129, Note_on_c, 0, 84, 0
2, 11131, Note_on_c, 0, 62, 0
2, 11134, Note_on_c, 0, 52, 0
2, 11135, Note_on_c, 0, 57, 0
2, 11162, Note_on_c, 0, 62, 40
2, 11162, Note_on_c, 0, 57, 44
2, 11162, Note_on_c, 0, 72, 63
2, 11162, Note_on_c, 0, 84, 63
2, 11165, Note_on_c, 0, 79, 40
2, 11168, Note_on_c, 0, 84, 0
2, 11168, Note_on_c, 0, 72, 0
2, 11169, Note_on_c, 0, 62, 0
2, 11169, Note_on_c, 0, 57, 0
2, 11172, Note_on_c, 0, 79, 0
2, 11227, Note_on_c, 0, 57, 57
2, 11227, Note_on_c, 0, 62, 59
2, 11229, Note_on_c, 0, 52, 39
2, 11230, Note_on_c, 0, 84, 73
2, 11231, Note_on_c, 0, 72, 62
2, 11232, Note_on_c, 0, 79, 57
2, 11234, Note_on_c, 0, 62, 0
2, 11234, Note_on_c, 0, 57, 0
2, 11236, Note_on_c, 0, 52, 0
2, 11237, Note_on_c, 0, 72, 0
2, 11238, Note_on_c, 0, 79, 0
2, 11244, Note_on_c, 0, 84, 0
2, 11246, Control_c, 0, 64, 127
2, 11268, Control_c, 0, 64, 0
2, 11278, Note_on_c, 0, 55, 80
2, 11279, Note_on_c, 0, 65, 76
2, 11280, Note_on_c, 0, 61, 56
2, 11285, Note_on_c, 0, 75, 67
2, 11286, Note_on_c, 0, 87, 65
2, 11292, Note_on_c, 0, 75, 0
2, 11292, Note_on_c, 0, 65, 0
2, 11294, Note_on_c, 0, 87, 0
2, 11295, Note_on_c, 0, 55, 0
2, 11296, Note_on_c, 0, 61, 0
2, 11398, Note_on_c, 0, 61, 71
2, 11398, Note_on_c, 0, 87, 77
2, 11399, Note_on_c, 0, 55, 77
2, 11399, Note_on_c, 0, 65, 66
2, 11399, Note_on_c, 0, 75, 77
2, 11423, Control_c, 0, 64, 127
2, 11473, Note_on_c, 0, 65, 0
2, 11474, Note_on_c, 0, 55, 0
2, 11475, Note_on_c, 0, 87, 0
2, 11478, Note_on_c, 0, 75, 0
2, 11492, Note_on_c, 0, 61, 0
2, 11510, Control_c, 0, 64, 0
2, 11515, Note_on_c, 0, 54, 50
2, 11515, Note_on_c, 0, 74, 54
2, 11515, Note_on_c, 0, 65, 55
2, 11516, Note_on_c, 0, 86, 69
2, 11517, Note_on_c, 0, 60, 53
2, 11535, Control_c, 0, 64, 127
2, 11550, Note_on_c, 0, 74, 0
2, 11557, Note_on_c, 0, 60, 0
2, 11562, Note_on_c, 0, 86, 0
2, 11563, Note_on_c, 0, 65, 0
2, 11567, Note_on_c, 0, 54, 0
2, 11629, Control_c, 0, 64, 0
2, 11633, Note_on_c, 0, 92, 83
2, 11633, Note_on_c, 0, 54, 69
2, 11634, Note_on_c, 0, 65, 73
2, 11634, Note_on_c, 0, 60, 74
2, 11634, Note_on_c, 0, 80, 77
2, 11634, Note_on_c, 0, 87, 81
2, 11653, Control_c, 0, 64, 127
2, 11673, Note_on_c, 0, 60, 0
2, 11678, Note_on_c, 0, 65, 0
2, 11686, Note_on_c, 0, 87, 0
2, 11688, Note_on_c, 0, 92, 0
2, 11691, Note_on_c, 0, 80, 0
2, 11694, Note_on_c, 0, 54, 0
2, 11717, Note_on_c, 0, 86, 85
2, 11718, Note_on_c, 0, 79, 78
2, 11718, Note_on_c, 0, 91, 80
2, 11718, Note_on_c, 0, 64, 80
2, 11719, Note_on_c, 0, 59, 79
2, 11720, Note_on_c, 0, 53, 74
2, 11722, Control_c, 0, 64, 0
2, 11738, Note_on_c, 0, 64, 0
2, 11739, Control_c, 0, 64, 127
2, 11744, Note_on_c, 0, 59, 0
2, 11752, Note_on_c, 0, 53, 0
2, 11789, Note_on_c, 0, 86, 0
2, 11789, Note_on_c, 0, 79, 0
2, 11794, Note_on_c, 0, 91, 0
2, 11836, Note_on_c, 0, 43, 103
2, 11837, Note_on_c, 0, 31, 103
2, 11845, Control_c, 0, 64, 0
2, 11894, Note_on_c, 0, 31, 0
2, 11894, Note_on_c, 0, 43, 0
2, 12000, Note_on_c, 0, 55, 38
2, 12000, Note_on_c, 0, 55, 0
2, 12009, Note_on_c, 0, 72, 89
2, 12010, Note_on_c, 0, 60, 78
2, 12091, Note_on_c, 0, 60, 0
2, 12093, Note_on_c, 0, 55, 32
2, 12094, Note_on_c, 0, 72, 0
2, 12110, Note_on_c, 0, 55, 0
2, 12131, Note_on_c, 0, 59, 32
2, 12132, Note_on_c, 0, 71, 60
2, 12202, Note_on_c, 0, 71, 0
2, 12205, Note_on_c, 0, 59, 0
2, 12209, Note_on_c, 0, 62, 75
2, 12211, Note_on_c, 0, 74, 87
2, 12243, Note_on_c, 0, 74, 0
2, 12244, Note_on_c, 0, 62, 0
2, 12252, Note_on_c, 0, 60, 62
2, 12265, Note_on_c, 0, 72, 29
2, 12313, Note_on_c, 0, 60, 0
2, 12320, Note_on_c, 0, 72, 0
2, 12330, Note_on_c, 0, 67, 60
2, 12331, Note_on_c, 0, 55, 53
2, 12337, Note_on_c, 0, 67, 0
2, 12341, Note_on_c, 0, 55, 0
2, 12486, Note_on_c, 0, 65, 51
2, 12491, Note_on_c, 0, 60, 46
2, 12498, Note_on_c, 0, 65, 0
2, 12499, Note_on_c, 0, 60, 0
2, 12724, Note_on_c, 0, 84, 101
2, 12725, Note_on_c, 0, 64, 61
2, 12727, Note_on_c, 0, 59, 58
2, 12729, Note_on_c, 0, 53, 45
2, 12764, Note_on_c, 0, 84, 0
2, 12767, Note_on_c, 0, 64, 0
2, 12769, Note_on_c, 0, 53, 0
2, 12770, Note_on_c, 0, 59, 0
2, 12813, Note_on_c, 0, 79, 36
2, 12824, Note_on_c, 0, 59, 32
2, 12827, Note_on_c, 0, 79, 0
2, 12833, Note_on_c, 0, 53, 18
2, 12836, Note_on_c, 0, 59, 0
2, 12847, Note_on_c, 0, 53, 0
2, 12849, Note_on_c, 0, 83, 79
2, 12868, Note_on_c, 0, 83, 0
2, 12926, Note_on_c, 0, 86, 118
2, 12927, Note_on_c, 0, 62, 77
2, 12927, Note_on_c, 0, 57, 71
2, 12930, Note_on_c, 0, 52, 58
2, 12936, Note_on_c, 0, 52, 0
2, 12940, Note_on_c, 0, 57, 0
2, 12940, Note_on_c, 0, 86, 0
2, 12941, Note_on_c, 0, 62, 0
2, 12986, Note_on_c, 0, 84, 84
2, 12998, Note_on_c, 0, 84, 0
2, 13081, Note_on_c, 0, 83, 87
2, 13093, Note_on_c, 0, 83, 0
2, 13166, Note_on_c, 0, 58, 74
2, 13166, Note_on_c, 0, 61, 71
2, 13166, Note_on_c, 0, 55, 85
2, 13167, Note_on_c, 0, 65, 77
2, 13169, Note_on_c, 0, 84, 108
2, 13241, Control_c, 0, 64, 127
2, 13310, Control_c, 0, 64, 0
2, 13324, Note_on_c, 0, 80, 51
2, 13367, Note_on_c, 0, 84, 0
2, 13373, Note_on_c, 0, 80, 0
2, 13374, Note_on_c, 0, 55, 0
2, 13376, Note_on_c, 0, 81, 24
2, 13394, Note_on_c, 0, 81, 0
2, 13395, Note_on_c, 0, 65, 0
2, 13411, Note_on_c, 0, 58, 0
2, 13420, Note_on_c, 0, 61, 0
2, 13444, Note_on_c, 0, 53, 30
2, 13448, Note_on_c, 0, 57, 44
2, 13448, Note_on_c, 0, 60, 41
2, 13449, Note_on_c, 0, 64, 31
2, 13521, Note_on_c, 0, 64, 0
2, 13531, Note_on_c, 0, 60, 0
2, 13533, Note_on_c, 0, 53, 0
2, 13539, Note_on_c, 0, 57, 0
2, 13639, Note_on_c, 0, 53, 42
2, 13641, Note_on_c, 0, 67, 55
2, 13645, Note_on_c, 0, 57, 35
2, 13648, Note_on_c, 0, 67, 0
2, 13654, Note_on_c, 0, 53, 0
2, 13655, Note_on_c, 0, 57, 0
2, 13685, Note_on_c, 0, 53, 50
2, 13687, Note_on_c, 0, 64, 43
2, 13687, Note_on_c, 0, 71, 92
2, 13688, Note_on_c, 0, 59, 52
2, 13746, Note_on_c, 0, 59, 0
2, 13763, Note_on_c, 0, 71, 0
2, 13769, Note_on_c, 0, 59, 35
2, 13774, Note_on_c, 0, 67, 17
2, 13787, Note_on_c, 0, 64, 0
2, 13796, Note_on_c, 0, 67, 0
2, 13806, Note_on_c, 0, 73, 67
2, 13815, Note_on_c, 0, 74, 78
2, 13819, Note_on_c, 0, 73, 0
2, 13819, Note_on_c, 0, 59, 0
2, 13832, Note_on_c, 0, 53, 0
2, 13862, Note_on_c, 0, 74, 0
2, 13883, Note_on_c, 0, 73, 67
2, 13888, Note_on_c, 0, 74, 91
2, 13890, Note_on_c, 0, 73, 0
2, 13922, Note_on_c, 0, 74, 0
2, 13925, Note_on_c, 0, 57, 36
2, 13926, Note_on_c, 0, 52, 24
2, 13931, Note_on_c, 0, 72, 48
2, 13938, Note_on_c, 0, 52, 0
2, 13939, Note_on_c, 0, 57, 0
2, 14010, Note_on_c, 0, 67, 39
2, 14020, Note_on_c, 0, 72, 0
2, 14021, Note_on_c, 0, 67, 0
2, 14043, Note_on_c, 0, 71, 78
2, 14114, Note_on_c, 0, 71, 0
2, 14161, Note_on_c, 0, 65, 50
2, 14162, Note_on_c, 0, 61, 37
2, 14162, Note_on_c, 0, 58, 39
2, 14163, Note_on_c, 0, 72, 66
2, 14164, Note_on_c, 0, 55, 40
2, 14245, Note_on_c, 0, 67, 62
2, 14247, Note_on_c, 0, 65, 0
2, 14248, Note_on_c, 0, 72, 0
2, 14256, Note_on_c, 0, 55, 0
2, 14257, Note_on_c, 0, 67, 0
2, 14268, Note_on_c, 0, 61, 0
2, 14285, Note_on_c, 0, 58, 0
2, 14345, Control_c, 0, 64, 127
2, 14387, Control_c, 0, 64, 0
2, 14400, Note_on_c, 0, 54, 74
2, 14400, Note_on_c, 0, 78, 86
2, 14400, Note_on_c, 0, 90, 83
2, 14401, Note_on_c, 0, 85, 85
2, 14401, Note_on_c, 0, 65, 85
2, 14403, Note_on_c, 0, 60, 79
2, 14406, Note_on_c, 0, 64, 45
2, 14412, Note_on_c, 0, 64, 0
2, 14416, Note_on_c, 0, 90, 0
2, 14419, Note_on_c, 0, 89, 41
2, 14424, Note_on_c, 0, 78, 0
2, 14427, Note_on_c, 0, 65, 0
2, 14427, Note_on_c, 0, 89, 0
2, 14430, Note_on_c, 0, 85, 0
2, 14436, Note_on_c, 0, 77, 51
2, 14438, Note_on_c, 0, 89, 62
2, 14439, Note_on_c, 0, 84, 58
2, 14442, Note_on_c, 0, 65, 57
2, 14448, Note_on_c, 0, 65, 0
2, 14448, Note_on_c, 0, 88, 24
2, 14461, Note_on_c, 0, 88, 0
2, 14483, Note_on_c, 0, 89, 0
2, 14485, Control_c, 0, 64, 127
2, 14486, Note_on_c, 0, 84, 0
2, 14492, Note_on_c, 0, 54, 0
2, 14494, Note_on_c, 0, 77, 0
2, 14495, Note_on_c, 0, 60, 0
2, 14506, Control_c, 0, 64, 0
2, 14516, Note_on_c, 0, 87, 67
2, 14517, Note_on_c, 0, 75, 59
2, 14518, Note_on_c, 0, 82, 62
2, 14520, Note_on_c, 0, 54, 59
2, 14521, Note_on_c, 0, 65, 63
2, 14522, Note_on_c, 0, 60, 64
2, 14538, Control_c, 0, 64, 127
2, 14586, Note_on_c, 0, 87, 0
2, 14588, Note_on_c, 0, 82, 0
2, 14590, Note_on_c, 0, 60, 0
2, 14597, Note_on_c, 0, 75, 0
2, 14603, Note_on_c, 0, 65, 0
2, 14622, Note_on_c, 0, 54, 0
2, 14637, Control_c, 0, 64, 0
2, 14640, Note_on_c, 0, 64, 50
2, 14642, Note_on_c, 0, 53, 43
2, 14644, Note_on_c, 0, 72, 44
2, 14645, Note_on_c, 0, 84, 55
2, 14647, Note_on_c, 0, 59, 49
2, 14688, Control_c, 0, 64, 127
2, 14693, Note_on_c, 0, 84, 0
2, 14709, Note_on_c, 0, 59, 0
2, 14720, Note_on_c, 0, 72, 0
2, 14720, Note_on_c, 0, 53, 0
2, 14725, Note_on_c, 0, 64, 0
2, 14755, Control_c, 0, 64, 0
2, 14764, Note_on_c, 0, 64, 44
2, 14765, Note_on_c, 0, 53, 34
2, 14765, Note_on_c, 0, 59, 51
2, 14769, Note_on_c, 0, 70, 49
2, 14773, Note_on_c, 0, 82, 23
2, 14809, Note_on_c, 0, 59, 0
2, 14821, Note_on_c, 0, 64, 0
2, 14830, Note_on_c, 0, 82, 0
2, 14831, Note_on_c, 0, 70, 0
2, 14833, Note_on_c, 0, 53, 0
2, 14847, Note_on_c, 0, 72, 63
2, 14849, Note_on_c, 0, 84, 57
2, 14850, Note_on_c, 0, 62, 50
2, 14852, Note_on_c, 0, 52, 45
2, 14852, Note_on_c, 0, 57, 50
2, 14858, Note_on_c, 0, 84, 0
2, 14859, Note_on_c, 0, 72, 0
2, 14859, Note_on_c, 0, 62, 0
2, 14860, Note_on_c, 0, 57, 0
2, 14865, Note_on_c, 0, 52, 0
2, 15125, Note_on_c, 0, 57, 57
2, 15127, Note_on_c, 0, 72, 40
2, 15128, Note_on_c, 0, 62, 46
2, 15128, Note_on_c, 0, 67, 42
2, 15135, Note_on_c, 0, 62, 0
2, 15137, Note_on_c, 0, 67, 0
2, 15138, Note_on_c, 0, 57, 0
2, 15144, Note_on_c, 0, 72, 0
2, 15248, Note_on_c, 0, 69, 87
2, 15249, Note_on_c, 0, 81, 74
2, 15249, Note_on_c, 0, 77, 70
2, 15249, Note_on_c, 0, 58, 72
2, 15249, Note_on_c, 0, 62, 77
2, 15250, Note_on_c, 0, 73, 39
2, 15250, Note_on_c, 0, 57, 70
2, 15252, Note_on_c, 0, 74, 62
2, 15271, Note_on_c, 0, 73, 0
2, 15285, Note_on_c, 0, 69, 0
2, 15285, Note_on_c, 0, 62, 0
2, 15290, Note_on_c, 0, 74, 0
2, 15294, Note_on_c, 0, 58, 0
2, 15294, Note_on_c, 0, 57, 0
2, 15296, Note_on_c, 0, 77, 0
2, 15300, Note_on_c, 0, 81, 0
2, 15363, Note_on_c, 0, 80, 72
2, 15363, Note_on_c, 0, 72, 83
2, 15363, Note_on_c, 0, 78, 65
2, 15364, Note_on_c, 0, 58, 67
2, 15364, Note_on_c, 0, 84, 79
2, 15364, Note_on_c, 0, 62, 71
2, 15366, Note_on_c, 0, 57, 64
2, 15404, Note_on_c, 0, 78, 0
2, 15406, Note_on_c, 0, 81, 54
2, 15411, Note_on_c, 0, 80, 0
2, 15414, Note_on_c, 0, 83, 20
2, 15420, Note_on_c, 0, 84, 0
2, 15424, Note_on_c, 0, 83, 0
2, 15425, Note_on_c, 0, 81, 0
2, 15426, Note_on_c, 0, 72, 0
2, 15428, Note_on_c, 0, 57, 0
2, 15428, Note_on_c, 0, 62, 0
2, 15430, Note_on_c, 0, 58, 0
2, 15485, Note_on_c, 0, 77, 58
2, 15485, Note_on_c, 0, 62, 64
2, 15486, Note_on_c, 0, 69, 60
2, 15486, Note_on_c, 0, 58, 54
2, 15487, Note_on_c, 0, 57, 52
2, 15487, Note_on_c, 0, 78, 26
2, 15488, Note_on_c, 0, 81, 49
2, 15489, Note_on_c, 0, 83, 32
2, 15496, Note_on_c, 0, 83, 0
2, 15513, Note_on_c, 0, 78, 0
2, 15526, Note_on_c, 0, 81, 0
2, 15531, Note_on_c, 0, 77, 0
2, 15531, Note_on_c, 0, 57, 0
2, 15537, Note_on_c, 0, 69, 0
2, 15542, Note_on_c, 0, 62, 0
2, 15546, Note_on_c, 0, 58, 0
2, 15603, Note_on_c, 0, 68, 52
2, 15603, Note_on_c, 0, 76, 64
2, 15604, Note_on_c, 0, 73, 33
2, 15605, Note_on_c, 0, 61, 52
2, 15605, Note_on_c, 0, 64, 55
2, 15606, Note_on_c, 0, 58, 46
2, 15621, Control_c, 0, 64, 127
2, 15663, Note_on_c, 0, 68, 0
2, 15667, Note_on_c, 0, 64, 0
2, 15669, Note_on_c, 0, 61, 0
2, 15673, Note_on_c, 0, 58, 0
2, 15675, Note_on_c, 0, 76, 0
2, 15678, Note_on_c, 0, 73, 0
2, 15688, Note_on_c, 0, 73, 25
2, 15689, Note_on_c, 0, 68, 40
2, 15691, Note_on_c, 0, 64, 47
2, 15692, Note_on_c, 0, 61, 48
2, 15695, Note_on_c, 0, 58, 46
2, 15737, Note_on_c, 0, 64, 0
2, 15744, Note_on_c, 0, 68, 0
2, 15767, Note_on_c, 0, 73, 0
2, 15824, Note_on_c, 0, 58, 0
2, 15826, Note_on_c, 0, 61, 0
2, 15831, Control_c, 0, 64, 0
2, 15839, Note_on_c, 0, 60, 49
2, 15842, Note_on_c, 0, 64, 33
2, 15842, Note_on_c, 0, 57, 42
2, 15843, Note_on_c, 0, 53, 27
2, 15929, Note_on_c, 0, 89, 94
2, 15953, Note_on_c, 0, 89, 0
2, 15964, Note_on_c, 0, 64, 0
2, 15981, Note_on_c, 0, 60, 0
2, 15981, Note_on_c, 0, 88, 45
2, 15985, Note_on_c, 0, 57, 0
2, 16001, Note_on_c, 0, 53, 0
2, 16030, Note_on_c, 0, 88, 0
2, 16048, Note_on_c, 0, 91, 82
2, 16073, Note_on_c, 0, 91, 0
2, 16092, Note_on_c, 0, 89, 41
2, 16145, Note_on_c, 0, 89, 0
2, 16165, Note_on_c, 0, 84, 51
2, 16175, Note_on_c, 0, 84, 0
2, 16322, Note_on_c, 0, 62, 49
2, 16323, Note_on_c, 0, 58, 46
2, 16325, Note_on_c, 0, 57, 41
2, 16335, Note_on_c, 0, 57, 0
2, 16341, Note_on_c, 0, 62, 0
2, 16347, Note_on_c, 0, 58, 0
2, 16436, Note_on_c, 0, 89, 95
2, 16524, Note_on_c, 0, 89, 0
2, 16531, Note_on_c, 0, 84, 27
2, 16540, Note_on_c, 0, 84, 0
2, 16551, Note_on_c, 0, 58, 39
2, 16552, Note_on_c, 0, 52, 45
2, 16554, Note_on_c, 0, 62, 27
2, 16560, Note_on_c, 0, 88, 66
2, 16566, Note_on_c, 0, 62, 0
2, 16570, Note_on_c, 0, 58, 0
2, 16572, Note_on_c, 0, 52, 0
2, 16653, Note_on_c, 0, 88, 0
2, 16680, Note_on_c, 0, 91, 85
2, 16773, Note_on_c, 0, 91, 0
2, 16796, Note_on_c, 0, 62, 60
2, 16799, Note_on_c, 0, 89, 80
2, 16799, Note_on_c, 0, 57, 54
2, 16800, Note_on_c, 0, 60, 55
2, 16803, Note_on_c, 0, 53, 25
2, 16807, Note_on_c, 0, 60, 0
2, 16811, Note_on_c, 0, 62, 0
2, 16812, Note_on_c, 0, 53, 0
2, 16817, Note_on_c, 0, 57, 0
2, 16898, Note_on_c, 0, 89, 0
2, 16901, Note_on_c, 0, 84, 40
2, 16909, Note_on_c, 0, 84, 0
2, 16921, Note_on_c, 0, 88, 83
2, 16998, Note_on_c, 0, 88, 0
2, 17034, Note_on_c, 0, 54, 59
2, 17035, Note_on_c, 0, 60, 71
2, 17037, Note_on_c, 0, 89, 84
2, 17042, Note_on_c, 0, 60, 0
2, 17051, Note_on_c, 0, 54, 0
2, 17117, Note_on_c, 0, 60, 77
2, 17117, Note_on_c, 0, 54, 76
2, 17118, Note_on_c, 0, 65, 82
2, 17182, Control_c, 0, 64, 127
2, 17225, Note_on_c, 0, 60, 0
2, 17233, Note_on_c, 0, 65, 0
2, 17257, Note_on_c, 0, 54, 0
2, 17270, Control_c, 0, 64, 0
2, 17279, Note_on_c, 0, 62, 37
2, 17279, Note_on_c, 0, 53, 24
2, 17279, Note_on_c, 0, 58, 48
2, 17281, Note_on_c, 0, 57, 43
2, 17425, Note_on_c, 0, 62, 0
2, 17426, Note_on_c, 0, 58, 0
2, 17426, Note_on_c, 0, 57, 0
2, 17476, Note_on_c, 0, 89, 0
2, 17487, Note_on_c, 0, 58, 28
2, 17489, Note_on_c, 0, 84, 46
2, 17491, Note_on_c, 0, 53, 0
2, 17504, Note_on_c, 0, 58, 0
2, 17508, Note_on_c, 0, 84, 0
2, 17524, Note_on_c, 0, 87, 45
2, 17526, Note_on_c, 0, 62, 26
2, 17532, Note_on_c, 0, 87, 0
2, 17536, Note_on_c, 0, 88, 48
2, 17557, Note_on_c, 0, 62, 0
2, 17572, Note_on_c, 0, 88, 0
2, 17636, Note_on_c, 0, 62, 51
2, 17639, Note_on_c, 0, 58, 33
2, 17644, Note_on_c, 0, 52, 24
2, 17645, Note_on_c, 0, 62, 0
2, 17650, Note_on_c, 0, 58, 0
2, 17652, Note_on_c, 0, 52, 0
2, 17698, Note_on_c, 0, 91, 91
2, 17734, Note_on_c, 0, 91, 0
2, 17741, Note_on_c, 0, 84, 51
2, 17748, Note_on_c, 0, 84, 0
2, 17765, Note_on_c, 0, 62, 50
2, 17769, Note_on_c, 0, 57, 49
2, 17771, Note_on_c, 0, 89, 80
2, 17771, Note_on_c, 0, 60, 34
2, 17772, Note_on_c, 0, 62, 0
2, 17780, Note_on_c, 0, 57, 0
2, 17781, Note_on_c, 0, 60, 0
2, 17847, Note_on_c, 0, 89, 0
2, 17889, Note_on_c, 0, 88, 88
2, 17935, Note_on_c, 0, 88, 0
2, 17965, Note_on_c, 0, 91, 88
2, 17969, Note_on_c, 0, 60, 62
2, 17971, Note_on_c, 0, 57, 64
2, 17973, Note_on_c, 0, 50, 27
2, 17975, Note_on_c, 0, 60, 0
2, 17978, Note_on_c, 0, 57, 0
2, 17980, Note_on_c, 0, 50, 0
2, 17989, Note_on_c, 0, 91, 0
2, 18014, Note_on_c, 0, 89, 55
2, 18076, Note_on_c, 0, 89, 0
2, 18084, Note_on_c, 0, 84, 64
2, 18101, Note_on_c, 0, 84, 0
2, 18131, Control_c, 0, 64, 127
2, 18223, Control_c, 0, 64, 0
2, 18239, Note_on_c, 0, 59, 78
2, 18240, Note_on_c, 0, 87, 80
2, 18241, Note_on_c, 0, 90, 73
2, 18241, Note_on_c, 0, 95, 80
2, 18241, Note_on_c, 0, 83, 83
2, 18262, Note_on_c, 0, 59, 0
2, 18267, Note_on_c, 0, 95, 0
2, 18270, Note_on_c, 0, 87, 0
2, 18270, Note_on_c, 0, 83, 0
2, 18274, Note_on_c, 0, 90, 0
2, 18359, Note_on_c, 0, 94, 83
2, 18359, Note_on_c, 0, 82, 78
2, 18360, Note_on_c, 0, 58, 77
2, 18367, Note_on_c, 0, 88, 47
2, 18375, Note_on_c, 0, 88, 0
2, 18413, Control_c, 0, 64, 127
2, 18437, Note_on_c, 0, 94, 0
2, 18446, Note_on_c, 0, 82, 0
2, 18456, Note_on_c, 0, 58, 0
2, 18471, Control_c, 0, 64, 0
2, 18482, Note_on_c, 0, 92, 77
2, 18483, Note_on_c, 0, 80, 69
2, 18485, Note_on_c, 0, 87, 63
2, 18486, Note_on_c, 0, 56, 65
2, 18520, Control_c, 0, 64, 127
2, 18535, Note_on_c, 0, 87, 0
2, 18543, Note_on_c, 0, 92, 0
2, 18551, Note_on_c, 0, 56, 0
2, 18554, Note_on_c, 0, 80, 0
2, 18585, Control_c, 0, 64, 0
2, 18594, Note_on_c, 0, 53, 70
2, 18597, Note_on_c, 0, 89, 69
2, 18599, Note_on_c, 0, 77, 57
2, 18614, Note_on_c, 0, 53, 0
2, 18634, Control_c, 0, 64, 127
2, 18672, Note_on_c, 0, 89, 0
2, 18678, Note_on_c, 0, 77, 0
2, 18705, Control_c, 0, 64, 0
2, 18715, Note_on_c, 0, 67, 47
2, 18716, Note_on_c, 0, 63, 47
2, 18717, Note_on_c, 0, 87, 73
2, 18718, Note_on_c, 0, 57, 39
2, 18723, Note_on_c, 0, 67, 0
2, 18731, Note_on_c, 0, 63, 0
2, 18734, Note_on_c, 0, 57, 0
2, 18747, Note_on_c, 0, 87, 0
2, 18795, Note_on_c, 0, 82, 65
2, 18798, Note_on_c, 0, 48, 74
2, 18800, Note_on_c, 0, 83, 64
2, 18803, Note_on_c, 0, 47, 53
2, 18811, Note_on_c, 0, 47, 0
2, 18818, Note_on_c, 0, 82, 0
2, 18926, Note_on_c, 0, 46, 25
2, 18943, Note_on_c, 0, 83, 0
2, 18944, Note_on_c, 0, 46, 0
2, 18954, Note_on_c, 0, 48, 0
2, 18959, Note_on_c, 0, 82, 57
2, 18980, Note_on_c, 0, 82, 0
2, 18994, Note_on_c, 0, 80, 50
2, 19020, Note_on_c, 0, 80, 0
2, 19032, Note_on_c, 0, 77, 47
2, 19053, Note_on_c, 0, 77, 0
2, 19073, Note_on_c, 0, 75, 60
2, 19181, Control_c, 0, 64, 127
2, 19197, Control_c, 0, 64, 0
2, 19219, Note_on_c, 0, 75, 0
2, 19282, Control_c, 0, 64, 127
2, 19289, Note_on_c, 0, 64, 62
2, 19292, Note_on_c, 0, 60, 51
2, 19295, Note_on_c, 0, 64, 0
2, 19295, Note_on_c, 0, 57, 41
2, 19300, Note_on_c, 0, 60, 0
2, 19309, Control_c, 0, 64, 0
2, 19316, Note_on_c, 0, 57, 0
2, 19324, Note_on_c, 0, 67, 48
2, 19342, Note_on_c, 0, 68, 33
2, 19356, Note_on_c, 0, 67, 0
2, 19357, Note_on_c, 0, 68, 0
2, 19361, Note_on_c, 0, 69, 50
2, 19380, Note_on_c, 0, 69, 0
2, 19437, Note_on_c, 0, 59, 68
2, 19437, Note_on_c, 0, 53, 58
2, 19438, Note_on_c, 0, 72, 92
2, 19439, Note_on_c, 0, 64, 63
2, 19496, Note_on_c, 0, 53, 0
2, 19496, Note_on_c, 0, 59, 0
2, 19506, Note_on_c, 0, 64, 0
2, 19518, Control_c, 0, 64, 127
2, 19527, Note_on_c, 0, 59, 41
2, 19530, Note_on_c, 0, 72, 0
2, 19540, Note_on_c, 0, 59, 0
2, 19549, Control_c, 0, 64, 0
2, 19561, Note_on_c, 0, 64, 52
2, 19562, Note_on_c, 0, 71, 80
2, 19563, Note_on_c, 0, 53, 37
2, 19563, Note_on_c, 0, 59, 50
2, 19574, Note_on_c, 0, 64, 0
2, 19582, Note_on_c, 0, 59, 0
2, 19587, Note_on_c, 0, 53, 0
2, 19621, Note_on_c, 0, 71, 0
2, 19643, Note_on_c, 0, 72, 85
2, 19646, Note_on_c, 0, 62, 64
2, 19648, Note_on_c, 0, 52, 57
2, 19648, Note_on_c, 0, 57, 62
2, 19774, Note_on_c, 0, 72, 0
2, 19777, Note_on_c, 0, 67, 41
2, 19793, Note_on_c, 0, 67, 0
2, 19801, Note_on_c, 0, 57, 0
2, 19805, Note_on_c, 0, 52, 0
2, 19807, Note_on_c, 0, 71, 70
2, 19823, Note_on_c, 0, 62, 0
2, 19856, Note_on_c, 0, 71, 0
2, 19881, Note_on_c, 0, 74, 81
2, 19906, Note_on_c, 0, 74, 0
2, 19922, Note_on_c, 0, 72, 45
2, 19997, Note_on_c, 0, 67, 72
2, 20012, Note_on_c, 0, 67, 0
2, 20012, Note_on_c, 0, 72, 0
2, 20039, Note_on_c, 0, 61, 48
2, 20040, Note_on_c, 0, 55, 62
2, 20041, Note_on_c, 0, 65, 52
2, 20042, Note_on_c, 0, 58, 43
2, 20109, Note_on_c, 0, 55, 0
2, 20127, Note_on_c, 0, 65, 0
2, 20145, Note_on_c, 0, 58, 0
2, 20148, Note_on_c, 0, 61, 0
2, 20162, Note_on_c, 0, 60, 50
2, 20164, Note_on_c, 0, 64, 38
2, 20166, Note_on_c, 0, 57, 40
2, 20166, Note_on_c, 0, 53, 22
2, 20222, Note_on_c, 0, 60, 0
2, 20242, Note_on_c, 0, 60, 33
2, 20245, Note_on_c, 0, 67, 36
2, 20248, Note_on_c, 0, 64, 0
2, 20257, Note_on_c, 0, 67, 0
2, 20271, Note_on_c, 0, 60, 0
2, 20272, Note_on_c, 0, 53, 0
2, 20293, Note_on_c, 0, 70, 21
2, 20294, Note_on_c, 0, 57, 0
2, 20317, Note_on_c, 0, 70, 0
2, 20321, Note_on_c, 0, 71, 55
2, 20340, Note_on_c, 0, 71, 0
2, 20356, Note_on_c, 0, 74, 95
2, 20388, Note_on_c, 0, 74, 0
2, 20392, Note_on_c, 0, 64, 43
2, 20392, Note_on_c, 0, 59, 53
2, 20393, Note_on_c, 0, 53, 37
2, 20400, Note_on_c, 0, 72, 70
2, 20484, Note_on_c, 0, 67, 47
2, 20489, Note_on_c, 0, 72, 0
2, 20495, Note_on_c, 0, 67, 0
2, 20498, Note_on_c, 0, 64, 0
2, 20516, Note_on_c, 0, 59, 0
2, 20523, Note_on_c, 0, 71, 72
2, 20534, Note_on_c, 0, 53, 0
2, 20541, Note_on_c, 0, 71, 0
2, 20605, Note_on_c, 0, 74, 92
2, 20624, Note_on_c, 0, 74, 0
2, 20638, Note_on_c, 0, 62, 58
2, 20640, Note_on_c, 0, 59, 55
2, 20643, Note_on_c, 0, 55, 51
2, 20644, Note_on_c, 0, 62, 0
2, 20645, Note_on_c, 0, 72, 62
2, 20655, Note_on_c, 0, 55, 0
2, 20656, Note_on_c, 0, 59, 0
2, 20733, Note_on_c, 0, 67, 35
2, 20738, Note_on_c, 0, 72, 0
2, 20744, Note_on_c, 0, 67, 0
2, 20768, Note_on_c, 0, 71, 65
2, 20837, Note_on_c, 0, 71, 0
2, 20886, Note_on_c, 0, 65, 60
2, 20887, Note_on_c, 0, 72, 74
2, 20888, Note_on_c, 0, 61, 46
2, 20891, Note_on_c, 0, 58, 37
2, 20899, Note_on_c, 0, 65, 0
2, 20913, Note_on_c, 0, 61, 0
2, 20917, Note_on_c, 0, 58, 0
2, 20937, Note_on_c, 0, 72, 0
2, 21070, Control_c, 0, 64, 127
2, 21104, Control_c, 0, 64, 0
2, 21122, Note_on_c, 0, 60, 52
2, 21129, Note_on_c, 0, 53, 27
2, 21130, Note_on_c, 0, 57, 30
2, 21131, Note_on_c, 0, 60, 0
2, 21139, Note_on_c, 0, 57, 0
2, 21144, Note_on_c, 0, 53, 0
2, 21204, Note_on_c, 0, 91, 66
2, 21204, Note_on_c, 0, 79, 59
2, 21211, Note_on_c, 0, 79, 0
2, 21217, Note_on_c, 0, 91, 0
2, 21247, Control_c, 0, 64, 127
2, 21293, Control_c, 0, 64, 0
2, 21324, Note_on_c, 0, 59, 72
2, 21325, Note_on_c, 0, 53, 66
2, 21325, Note_on_c, 0, 64, 66
2, 21326, Note_on_c, 0, 95, 77
2, 21326, Note_on_c, 0, 83, 75
2, 21331, Note_on_c, 0, 64, 0
2, 21332, Note_on_c, 0, 53, 0
2, 21334, Note_on_c, 0, 83, 0
2, 21336, Note_on_c, 0, 59, 0
2, 21339, Note_on_c, 0, 95, 0
2, 21393, Note_on_c, 0, 53, 79
2, 21394, Note_on_c, 0, 59, 79
2, 21395, Note_on_c, 0, 98, 91
2, 21395, Note_on_c, 0, 86, 91
2, 21395, Note_on_c, 0, 64, 73
2, 21402, Note_on_c, 0, 88, 31
2, 21409, Note_on_c, 0, 88, 0
2, 21420, Control_c, 0, 64, 127
2, 21457, Note_on_c, 0, 64, 0
2, 21459, Note_on_c, 0, 53, 0
2, 21460, Note_on_c, 0, 98, 0
2, 21461, Note_on_c, 0, 86, 0
2, 21463, Note_on_c, 0, 59, 0
2, 21476, Control_c, 0, 64, 0
2, 21479, Note_on_c, 0, 59, 71
2, 21479, Note_on_c, 0, 53, 68
2, 21479, Note_on_c, 0, 96, 71
2, 21479, Note_on_c, 0, 64, 71
2, 21481, Note_on_c, 0, 84, 62
2, 21520, Note_on_c, 0, 96, 0
2, 21524, Note_on_c, 0, 84, 0
2, 21527, Note_on_c, 0, 64, 0
2, 21527, Note_on_c, 0, 53, 0
2, 21537, Note_on_c, 0, 59, 0
2, 21543, Control_c, 0, 64, 127
2, 21556, Note_on_c, 0, 53, 52
2, 21559, Note_on_c, 0, 59, 39
2, 21564, Note_on_c, 0, 95, 55
2, 21566, Note_on_c, 0, 59, 0
2, 21566, Note_on_c, 0, 83, 40
2, 21570, Note_on_c, 0, 53, 0
2, 21575, Note_on_c, 0, 83, 0
2, 21577, Note_on_c, 0, 95, 0
2, 21583, Control_c, 0, 64, 0
2, 21595, Note_on_c, 0, 57, 57
2, 21596, Note_on_c, 0, 62, 56
2, 21596, Note_on_c, 0, 52, 59
2, 21600, Note_on_c, 0, 96, 65
2, 21601, Note_on_c, 0, 84, 58
2, 21644, Note_on_c, 0, 96, 0
2, 21644, Note_on_c, 0, 52, 0
2, 21644, Note_on_c, 0, 62, 0
2, 21660, Note_on_c, 0, 57, 0
2, 21660, Note_on_c, 0, 84, 0
2, 21800, Note_on_c, 0, 61, 56
2, 21800, Note_on_c, 0, 65, 70
2, 21800, Note_on_c, 0, 58, 52
2, 21801, Note_on_c, 0, 55, 67
2, 21802, Note_on_c, 0, 95, 76
2, 21802, Note_on_c, 0, 83, 71
2, 21824, Note_on_c, 0, 83, 0
2, 21824, Note_on_c, 0, 55, 0
2, 21826, Note_on_c, 0, 65, 0
2, 21826, Note_on_c, 0, 95, 0
2, 21831, Note_on_c, 0, 58, 0
2, 21832, Note_on_c, 0, 61, 0
2, 21847, Note_on_c, 0, 65, 55
2, 21847, Note_on_c, 0, 61, 37
2, 21849, Note_on_c, 0, 55, 49
2, 21850, Note_on_c, 0, 58, 39
2, 21851, Note_on_c, 0, 96, 62
2, 21852, Note_on_c, 0, 84, 54
2, 21867, Note_on_c, 0, 96, 0
2, 21872, Note_on_c, 0, 55, 0
2, 21872, Note_on_c, 0, 84, 0
2, 21877, Note_on_c, 0, 65, 0
2, 21879, Note_on_c, 0, 61, 0
2, 21882, Note_on_c, 0, 58, 0
2, 21960, Control_c, 0, 64, 127
2, 22070, Control_c, 0, 64, 0
2, 22080, Note_on_c, 0, 54, 74
2, 22081, Note_on_c, 0, 60, 71
2, 22081, Note_on_c, 0, 90, 83
2, 22081, Note_on_c, 0, 102, 86
2, 22083, Note_on_c, 0, 65, 56
2, 22084, Note_on_c, 0, 96, 72
2, 22085, Note_on_c, 0, 64, 57
2, 22090, Note_on_c, 0, 96, 0
2, 22091, Note_on_c, 0, 64, 0
2, 22098, Note_on_c, 0, 65, 0
2, 22104, Note_on_c, 0, 60, 0
2, 22110, Note_on_c, 0, 90, 0
2, 22112, Note_on_c, 0, 102, 0
2, 22117, Note_on_c, 0, 65, 55
2, 22119, Note_on_c, 0, 96, 48
2, 22119, Note_on_c, 0, 60, 64
2, 22120, Note_on_c, 0, 101, 55
2, 22120, Note_on_c, 0, 89, 46
2, 22134, Control_c, 0, 64, 127
2, 22162, Note_on_c, 0, 101, 0
2, 22168, Note_on_c, 0, 96, 0
2, 22176, Note_on_c, 0, 89, 0
2, 22179, Note_on_c, 0, 65, 0
2, 22181, Note_on_c, 0, 60, 0
2, 22181, Note_on_c, 0, 54, 0
2, 22185, Control_c, 0, 64, 0
2, 22198, Note_on_c, 0, 54, 50
2, 22199, Note_on_c, 0, 65, 51
2, 22200, Note_on_c, 0, 99, 69
2, 22201, Note_on_c, 0, 60, 65
2, 22202, Note_on_c, 0, 87, 64
2, 22205, Note_on_c, 0, 94, 55
2, 22223, Control_c, 0, 64, 127
2, 22266, Note_on_c, 0, 94, 0
2, 22272, Note_on_c, 0, 99, 0
2, 22276, Note_on_c, 0, 60, 0
2, 22280, Note_on_c, 0, 65, 0
2, 22281, Note_on_c, 0, 87, 0
2, 22296, Note_on_c, 0, 54, 0
2, 22311, Control_c, 0, 64, 0
2, 22320, Note_on_c, 0, 53, 53
2, 22321, Note_on_c, 0, 64, 45
2, 22322, Note_on_c, 0, 59, 56
2, 22323, Note_on_c, 0, 96, 57
2, 22325, Note_on_c, 0, 84, 52
2, 22330, Note_on_c, 0, 64, 0
2, 22331, Note_on_c, 0, 53, 0
2, 22331, Note_on_c, 0, 59, 0
2, 22333, Note_on_c, 0, 84, 0
2, 22334, Note_on_c, 0, 96, 0
2, 22363, Note_on_c, 0, 94, 72
2, 22366, Note_on_c, 0, 82, 60
2, 22366, Note_on_c, 0, 59, 71
2, 22366, Note_on_c, 0, 64, 70
2, 22367, Note_on_c, 0, 53, 71
2, 22391, Control_c, 0, 64, 127
2, 22415, Note_on_c, 0, 94, 0
2, 22422, Note_on_c, 0, 64, 0
2, 22423, Note_on_c, 0, 53, 0
2, 22425, Note_on_c, 0, 82, 0
2, 22429, Note_on_c, 0, 59, 0
2, 22430, Control_c, 0, 64, 0
2, 22443, Note_on_c, 0, 53, 60
2, 22445, Note_on_c, 0, 91, 57
2, 22445, Note_on_c, 0, 59, 67
2, 22446, Note_on_c, 0, 64, 45
2, 22448, Note_on_c, 0, 79, 46
2, 22470, Note_on_c, 0, 91, 0
2, 22474, Note_on_c, 0, 79, 0
2, 22481, Note_on_c, 0, 64, 0
2, 22489, Note_on_c, 0, 59, 0
2, 22493, Note_on_c, 0, 53, 0
2, 22513, Control_c, 0, 64, 127
2, 22518, Note_on_c, 0, 53, 54
2, 22521, Note_on_c, 0, 59, 61
2, 22522, Note_on_c, 0, 64, 37
2, 22526, Note_on_c, 0, 89, 58
2, 22528, Note_on_c, 0, 77, 48
2, 22530, Note_on_c, 0, 64, 0
2, 22533, Note_on_c, 0, 89, 0
2, 22536, Note_on_c, 0, 53, 0
2, 22537, Note_on_c, 0, 59, 0
2, 22540, Note_on_c, 0, 77, 0
2, 22551, Control_c, 0, 64, 0
2, 22560, Note_on_c, 0, 59, 40
2, 22560, Note_on_c, 0, 62, 56
2, 22562, Note_on_c, 0, 75, 59
2, 22562, Note_on_c, 0, 87, 65
2, 22562, Note_on_c, 0, 52, 46
2, 22580, Note_on_c, 0, 62, 0
2, 22586, Note_on_c, 0, 59, 0
2, 22605, Note_on_c, 0, 52, 0
2, 22607, Note_on_c, 0, 75, 0
2, 22608, Note_on_c, 0, 76, 60
2, 22609, Note_on_c, 0, 87, 0
2, 22626, Note_on_c, 0, 76, 0
2, 22637, Note_on_c, 0, 55, 99
2, 22639, Note_on_c, 0, 54, 67
2, 22651, Note_on_c, 0, 54, 0
2, 22759, Note_on_c, 0, 54, 31
2, 22767, Note_on_c, 0, 54, 0
2, 22799, Note_on_c, 0, 69, 81
2, 22801, Note_on_c, 0, 65, 74
2, 22805, Note_on_c, 0, 55, 0
2, 22874, Note_on_c, 0, 69, 0
2, 22875, Note_on_c, 0, 65, 0
2, 23035, Note_on_c, 0, 54, 47
2, 23035, Note_on_c, 0, 55, 66
2, 23041, Note_on_c, 0, 54, 0
2, 23049, Note_on_c, 0, 64, 62
2, 23087, Note_on_c, 0, 64, 0
2, 23121, Note_on_c, 0, 54, 25
2, 23129, Note_on_c, 0, 54, 0
2, 23131, Note_on_c, 0, 55, 0
2, 23134, Note_on_c, 0, 65, 103
2, 23135, Note_on_c, 0, 69, 91
2, 23241, Note_on_c, 0, 69, 0
2, 23250, Note_on_c, 0, 65, 0
2, 23251, Note_on_c, 0, 51, 36
2, 23254, Note_on_c, 0, 54, 25
2, 23262, Note_on_c, 0, 54, 0
2, 23282, Note_on_c, 0, 64, 88
2, 23285, Note_on_c, 0, 51, 0
2, 23285, Note_on_c, 0, 67, 78
2, 23321, Note_on_c, 0, 64, 0
2, 23332, Note_on_c, 0, 64, 24
2, 23336, Note_on_c, 0, 67, 0
2, 23342, Note_on_c, 0, 60, 71
2, 23353, Note_on_c, 0, 64, 0
2, 23364, Note_on_c, 0, 60, 0
2, 23373, Note_on_c, 0, 55, 69
2, 23391, Note_on_c, 0, 55, 0
2, 23404, Note_on_c, 0, 53, 36
2, 23486, Note_on_c, 0, 43, 76
2, 23497, Note_on_c, 0, 53, 0
2, 23500, Note_on_c, 0, 43, 0
2, 23517, Note_on_c, 0, 52, 66
2, 23593, Note_on_c, 0, 52, 0
2, 23604, Note_on_c, 0, 52, 70
2, 23619, Note_on_c, 0, 52, 0
2, 23763, Note_on_c, 0, 61, 51
2, 23764, Note_on_c, 0, 65, 59
2, 23766, Note_on_c, 0, 58, 46
2, 23768, Note_on_c, 0, 55, 42
2, 23819, Note_on_c, 0, 55, 0
2, 23820, Note_on_c, 0, 65, 0
2, 23824, Note_on_c, 0, 58, 0
2, 23825, Note_on_c, 0, 61, 0
2, 23996, Note_on_c, 0, 64, 48
2, 23998, Note_on_c, 0, 57, 54
2, 24000, Note_on_c, 0, 53, 34
2, 24001, Note_on_c, 0, 60, 44
2, 24035, Note_on_c, 0, 60, 0
2, 24043, Note_on_c, 0, 57, 0
2, 24047, Note_on_c, 0, 64, 0
2, 24048, Note_on_c, 0, 53, 0
2, 24122, Note_on_c, 0, 77, 95
2, 24123, Note_on_c, 0, 89, 94
2, 24177, Note_on_c, 0, 77, 0
2, 24185, Note_on_c, 0, 89, 0
2, 24206, Note_on_c, 0, 64, 62
2, 24207, Note_on_c, 0, 59, 62
2, 24209, Note_on_c, 0, 53, 61
2, 24212, Note_on_c, 0, 88, 80
2, 24243, Note_on_c, 0, 88, 0
2, 24284, Note_on_c, 0, 87, 81
2, 24293, Note_on_c, 0, 86, 40
2, 24301, Note_on_c, 0, 86, 0
2, 24304, Note_on_c, 0, 59, 0
2, 24315, Note_on_c, 0, 87, 0
2, 24325, Note_on_c, 0, 59, 41
2, 24338, Note_on_c, 0, 64, 0
2, 24339, Note_on_c, 0, 84, 81
2, 24362, Note_on_c, 0, 59, 0
2, 24363, Note_on_c, 0, 84, 0
2, 24375, Note_on_c, 0, 53, 0
2, 24386, Note_on_c, 0, 79, 45
2, 24430, Note_on_c, 0, 79, 0
2, 24451, Note_on_c, 0, 78, 78
2, 24454, Note_on_c, 0, 84, 71
2, 24455, Note_on_c, 0, 62, 66
2, 24455, Note_on_c, 0, 58, 57
2, 24458, Note_on_c, 0, 52, 56
2, 24465, Note_on_c, 0, 62, 0
2, 24466, Note_on_c, 0, 52, 0
2, 24472, Note_on_c, 0, 58, 0
2, 24475, Note_on_c, 0, 84, 0
2, 24477, Note_on_c, 0, 78, 0
2, 24505, Note_on_c, 0, 77, 43
2, 24507, Note_on_c, 0, 84, 49
2, 24525, Note_on_c, 0, 84, 0
2, 24530, Note_on_c, 0, 77, 0
2, 24570, Note_on_c, 0, 75, 72
2, 24571, Note_on_c, 0, 79, 71
2, 24574, Note_on_c, 0, 62, 62
2, 24577, Note_on_c, 0, 58, 44
2, 24582, Note_on_c, 0, 62, 0
2, 24586, Note_on_c, 0, 75, 0
2, 24586, Note_on_c, 0, 76, 77
2, 24590, Note_on_c, 0, 58, 0
2, 24594, Note_on_c, 0, 77, 24
2, 24608, Note_on_c, 0, 76, 0
2, 24614, Note_on_c, 0, 77, 0
2, 24620, Note_on_c, 0, 72, 36
2, 24685, Note_on_c, 0, 79, 0
2, 24692, Note_on_c, 0, 72, 0
2, 24699, Note_on_c, 0, 69, 45
2, 24708, Note_on_c, 0, 69, 0
2, 24725, Note_on_c, 0, 61, 43
2, 24726, Note_on_c, 0, 65, 41
2, 24727, Note_on_c, 0, 72, 56
2, 24728, Note_on_c, 0, 55, 45
2, 24728, Note_on_c, 0, 79, 46
2, 24763, Note_on_c, 0, 79, 0
2, 24774, Note_on_c, 0, 72, 0
2, 24788, Note_on_c, 0, 55, 0
2, 24789, Note_on_c, 0, 65, 0
2, 24798, Note_on_c, 0, 61, 0
2, 24969, Note_on_c, 0, 64, 55
2, 24974, Note_on_c, 0, 57, 60
2, 24974, Note_on_c, 0, 60, 50
2, 24975, Note_on_c, 0, 53, 29
2, 25011, Note_on_c, 0, 60, 0
2, 25015, Note_on_c, 0, 57, 0
2, 25017, Note_on_c, 0, 64, 0
2, 25020, Note_on_c, 0, 53, 0
2, 25196, Note_on_c, 0, 62, 61
2, 25197, Note_on_c, 0, 58, 52
2, 25201, Note_on_c, 0, 57, 44
2, 25209, Note_on_c, 0, 57, 0
2, 25216, Note_on_c, 0, 62, 0
2, 25219, Note_on_c, 0, 58, 0
2, 25318, Note_on_c, 0, 81, 91
2, 25395, Note_on_c, 0, 81, 0
2, 25402, Note_on_c, 0, 78, 65
2, 25435, Note_on_c, 0, 78, 0
2, 25455, Note_on_c, 0, 79, 38
2, 25499, Note_on_c, 0, 79, 0
2, 25524, Note_on_c, 0, 81, 57
2, 25542, Note_on_c, 0, 81, 0
2, 25556, Note_on_c, 0, 72, 77
2, 25557, Note_on_c, 0, 84, 83
2, 25619, Note_on_c, 0, 72, 0
2, 25625, Note_on_c, 0, 84, 0
2, 25684, Note_on_c, 0, 61, 71
2, 25685, Note_on_c, 0, 65, 74
2, 25687, Note_on_c, 0, 58, 56
2, 25688, Note_on_c, 0, 55, 68
2, 25690, Note_on_c, 0, 75, 83
2, 25691, Note_on_c, 0, 87, 81
2, 25730, Note_on_c, 0, 75, 0
2, 25733, Note_on_c, 0, 88, 55
2, 25735, Note_on_c, 0, 76, 34
2, 25746, Note_on_c, 0, 87, 0
2, 25754, Note_on_c, 0, 88, 0
2, 25762, Note_on_c, 0, 55, 0
2, 25762, Note_on_c, 0, 76, 0
2, 25763, Note_on_c, 0, 65, 0
2, 25770, Note_on_c, 0, 58, 0
2, 25771, Note_on_c, 0, 61, 0
2, 25798, Note_on_c, 0, 61, 48
2, 25805, Note_on_c, 0, 58, 31
2, 25819, Note_on_c, 0, 61, 0
2, 25825, Note_on_c, 0, 58, 0
2, 25927, Note_on_c, 0, 54, 77
2, 25927, Note_on_c, 0, 65, 80
2, 25928, Note_on_c, 0, 72, 87
2, 25928, Note_on_c, 0, 60, 74
2, 25929, Note_on_c, 0, 84, 83
2, 26132, Note_on_c, 0, 60, 0
2, 26133, Note_on_c, 0, 65, 0
2, 26153, Note_on_c, 0, 54, 0
2, 26162, Note_on_c, 0, 64, 62
2, 26164, Note_on_c, 0, 53, 62
2, 26164, Note_on_c, 0, 59, 62
2, 26219, Note_on_c, 0, 72, 0
2, 26229, Note_on_c, 0, 84, 0
2, 26279, Note_on_c, 0, 81, 82
2, 26281, Note_on_c, 0, 64, 0
2, 26285, Note_on_c, 0, 59, 0
2, 26292, Note_on_c, 0, 53, 0
2, 26344, Note_on_c, 0, 81, 0
2, 26363, Note_on_c, 0, 62, 72
2, 26364, Note_on_c, 0, 59, 64
2, 26364, Note_on_c, 0, 84, 89
2, 26364, Note_on_c, 0, 72, 89
2, 26364, Note_on_c, 0, 52, 62
2, 26366, Note_on_c, 0, 55, 63
2, 26371, Note_on_c, 0, 62, 0
2, 26372, Note_on_c, 0, 52, 0
2, 26373, Note_on_c, 0, 55, 0
2, 26374, Note_on_c, 0, 59, 0
2, 26465, Note_on_c, 0, 72, 0
2, 26469, Note_on_c, 0, 84, 0
2, 26492, Note_on_c, 0, 81, 49
2, 26504, Note_on_c, 0, 81, 0
2, 26526, Note_on_c, 0, 84, 83
2, 26527, Note_on_c, 0, 72, 76
2, 26560, Note_on_c, 0, 84, 0
2, 26595, Note_on_c, 0, 72, 0
2, 26606, Note_on_c, 0, 84, 82
2, 26608, Note_on_c, 0, 72, 44
2, 26627, Note_on_c, 0, 72, 0
2, 26637, Note_on_c, 0, 84, 0
2, 26643, Note_on_c, 0, 65, 46
2, 26644, Note_on_c, 0, 61, 38
2, 26647, Note_on_c, 0, 81, 47
2, 26650, Note_on_c, 0, 58, 32
2, 26652, Note_on_c, 0, 55, 32
2, 26709, Note_on_c, 0, 81, 0
2, 26725, Note_on_c, 0, 72, 70
2, 26725, Note_on_c, 0, 84, 76
2, 26730, Note_on_c, 0, 65, 0
2, 26740, Note_on_c, 0, 72, 0
2, 26740, Note_on_c, 0, 55, 0
2, 26740, Note_on_c, 0, 84, 0
2, 26743, Note_on_c, 0, 61, 0
2, 26755, Note_on_c, 0, 58, 0
2, 26844, Note_on_c, 0, 62, 62
2, 26844, Note_on_c, 0, 58, 53
2, 26846, Note_on_c, 0, 57, 47
2, 26853, Note_on_c, 0, 57, 0
2, 26856, Note_on_c, 0, 62, 0
2, 26863, Note_on_c, 0, 58, 0
2, 26906, Note_on_c, 0, 66, 33
2, 26914, Note_on_c, 0, 66, 0
2, 26930, Note_on_c, 0, 69, 76
2, 26950, Note_on_c, 0, 66, 34
2, 26953, Note_on_c, 0, 69, 0
2, 26969, Note_on_c, 0, 57, 15
2, 26971, Note_on_c, 0, 66, 0
2, 26981, Note_on_c, 0, 67, 39
2, 26984, Note_on_c, 0, 57, 0
2, 26992, Note_on_c, 0, 67, 0
2, 27002, Note_on_c, 0, 69, 60
2, 27022, Note_on_c, 0, 69, 0
2, 27023, Note_on_c, 0, 70, 69
2, 27040, Note_on_c, 0, 70, 0
2, 27049, Note_on_c, 0, 72, 64
2, 27067, Note_on_c, 0, 72, 0
2, 27069, Note_on_c, 0, 73, 36
2, 27086, Note_on_c, 0, 75, 52
2, 27088, Note_on_c, 0, 73, 0
2, 27098, Note_on_c, 0, 58, 40
2, 27101, Note_on_c, 0, 75, 0
2, 27105, Note_on_c, 0, 58, 0
2, 27105, Note_on_c, 0, 76, 64
2, 27122, Note_on_c, 0, 76, 0
2, 27124, Note_on_c, 0, 78, 53
2, 27138, Note_on_c, 0, 78, 0
2, 27148, Note_on_c, 0, 79, 50
2, 27155, Note_on_c, 0, 80, 55
2, 27166, Note_on_c, 0, 79, 0
2, 27169, Note_on_c, 0, 80, 0
2, 27172, Note_on_c, 0, 81, 44
2, 27188, Note_on_c, 0, 82, 64
2, 27193, Note_on_c, 0, 81, 0
2, 27201, Note_on_c, 0, 82, 0
2, 27213, Note_on_c, 0, 84, 70
2, 27222, Note_on_c, 0, 62, 53
2, 27223, Note_on_c, 0, 58, 50
2, 27228, Note_on_c, 0, 52, 40
2, 27232, Note_on_c, 0, 85, 60
2, 27234, Note_on_c, 0, 84, 0
2, 27255, Note_on_c, 0, 52, 0
2, 27259, Note_on_c, 0, 85, 0
2, 27267, Note_on_c, 0, 87, 31
2, 27272, Note_on_c, 0, 58, 0
2, 27284, Note_on_c, 0, 87, 0
2, 27289, Note_on_c, 0, 88, 56
2, 27293, Note_on_c, 0, 62, 0
2, 27308, Note_on_c, 0, 88, 0
2, 27321, Note_on_c, 0, 91, 94
2, 27343, Note_on_c, 0, 91, 0
2, 27353, Note_on_c, 0, 57, 60
2, 27353, Note_on_c, 0, 89, 82
2, 27354, Note_on_c, 0, 64, 43
2, 27356, Note_on_c, 0, 60, 43
2, 27356, Note_on_c, 0, 91, 60
2, 27357, Note_on_c, 0, 53, 40
2, 27363, Note_on_c, 0, 91, 0
2, 27374, Note_on_c, 0, 64, 0
2, 27380, Note_on_c, 0, 89, 0
2, 27384, Note_on_c, 0, 60, 0
2, 27387, Note_on_c, 0, 57, 0
2, 27397, Note_on_c, 0, 86, 65
2, 27398, Note_on_c, 0, 84, 60
2, 27405, Note_on_c, 0, 84, 0
2, 27405, Note_on_c, 0, 86, 0
2, 27416, Note_on_c, 0, 53, 0
2, 27432, Note_on_c, 0, 81, 68
2, 27451, Note_on_c, 0, 81, 0
2, 27471, Note_on_c, 0, 80, 77
2, 27471, Note_on_c, 0, 86, 78
2, 27496, Note_on_c, 0, 86, 0
2, 27498, Note_on_c, 0, 80, 0
2, 27512, Note_on_c, 0, 86, 64
2, 27514, Note_on_c, 0, 79, 64
2, 27533, Note_on_c, 0, 86, 0
2, 27542, Note_on_c, 0, 79, 0
2, 27552, Note_on_c, 0, 77, 72
2, 27586, Note_on_c, 0, 77, 0
2, 27595, Note_on_c, 0, 74, 63
2, 27598, Note_on_c, 0, 60, 53
2, 27604, Note_on_c, 0, 53, 39
2, 27606, Note_on_c, 0, 57, 27
2, 27608, Note_on_c, 0, 60, 0
2, 27616, Note_on_c, 0, 57, 0
2, 27627, Note_on_c, 0, 53, 0
2, 27680, Note_on_c, 0, 74, 0
2, 27686, Note_on_c, 0, 77, 68
2, 27715, Note_on_c, 0, 77, 0
2, 27732, Note_on_c, 0, 67, 36
2, 27733, Note_on_c, 0, 65, 37
2, 27791, Note_on_c, 0, 65, 0
2, 27791, Note_on_c, 0, 67, 0
2, 27835, Note_on_c, 0, 62, 44
2, 27837, Note_on_c, 0, 58, 43
2, 27839, Note_on_c, 0, 57, 37
2, 27857, Note_on_c, 0, 62, 0
2, 27862, Note_on_c, 0, 57, 0
2, 27868, Note_on_c, 0, 58, 0
2, 28076, Note_on_c, 0, 62, 72
2, 28076, Note_on_c, 0, 58, 62
2, 28079, Note_on_c, 0, 52, 57
2, 28080, Note_on_c, 0, 81, 84
2, 28081, Note_on_c, 0, 93, 87
2, 28084, Note_on_c, 0, 62, 0
2, 28087, Note_on_c, 0, 52, 0
2, 28092, Note_on_c, 0, 58, 0
2, 28094, Note_on_c, 0, 93, 0
2, 28096, Note_on_c, 0, 81, 0
2, 28164, Note_on_c, 0, 58, 83
2, 28164, Note_on_c, 0, 98, 95
2, 28164, Note_on_c, 0, 62, 90
2, 28165, Note_on_c, 0, 86, 95
2, 28165, Note_on_c, 0, 93, 82
2, 28165, Note_on_c, 0, 52, 89
2, 28167, Note_on_c, 0, 91, 77
2, 28174, Note_on_c, 0, 91, 0
2, 28180, Note_on_c, 0, 93, 0
2, 28181, Note_on_c, 0, 86, 0
2, 28186, Note_on_c, 0, 98, 0
2, 28191, Note_on_c, 0, 62, 0
2, 28194, Note_on_c, 0, 52, 0
2, 28204, Note_on_c, 0, 52, 38
2, 28206, Note_on_c, 0, 96, 74
2, 28207, Note_on_c, 0, 62, 58
2, 28209, Note_on_c, 0, 84, 67
2, 28211, Note_on_c, 0, 91, 51
2, 28218, Note_on_c, 0, 89, 32
2, 28221, Note_on_c, 0, 91, 0
2, 28227, Note_on_c, 0, 89, 0
2, 28228, Note_on_c, 0, 96, 0
2, 28237, Note_on_c, 0, 84, 0
2, 28238, Note_on_c, 0, 62, 0
2, 28247, Note_on_c, 0, 52, 0
2, 28257, Note_on_c, 0, 58, 0
2, 28284, Note_on_c, 0, 92, 83
2, 28285, Note_on_c, 0, 80, 75
2, 28285, Note_on_c, 0, 85, 74
2, 28287, Note_on_c, 0, 62, 70
2, 28288, Note_on_c, 0, 53, 58
2, 28290, Note_on_c, 0, 57, 46
2, 28293, Note_on_c, 0, 59, 42
2, 28294, Note_on_c, 0, 60, 44
2, 28294, Note_on_c, 0, 90, 26
2, 28298, Note_on_c, 0, 85, 0
2, 28300, Note_on_c, 0, 80, 0
2, 28303, Note_on_c, 0, 81, 53
2, 28307, Note_on_c, 0, 92, 0
2, 28307, Note_on_c, 0, 86, 41
2, 28314, Note_on_c, 0, 62, 0
2, 28315, Note_on_c, 0, 81, 0
2, 28316, Note_on_c, 0, 59, 0
2, 28319, Note_on_c, 0, 60, 0
2, 28319, Note_on_c, 0, 86, 0
2, 28323, Note_on_c, 0, 90, 0
2, 28331, Note_on_c, 0, 57, 0
2, 28336, Note_on_c, 0, 89, 62
2, 28340, Note_on_c, 0, 77, 53
2, 28344, Note_on_c, 0, 62, 38
2, 28350, Note_on_c, 0, 60, 20
2, 28353, Note_on_c, 0, 57, 24
2, 28365, Note_on_c, 0, 62, 0
2, 28377, Note_on_c, 0, 60, 0
2, 28378, Note_on_c, 0, 57, 0
2, 28388, Note_on_c, 0, 89, 0
2, 28394, Note_on_c, 0, 77, 0
2, 28395, Note_on_c, 0, 53, 0
2, 28437, Note_on_c, 0, 89, 73
2, 28439, Note_on_c, 0, 77, 71
2, 28487, Note_on_c, 0, 89, 0
2, 28492, Note_on_c, 0, 77, 0
2, 28640, Note_on_c, 0, 54, 55
2, 28660, Note_on_c, 0, 54, 0
2, 28676, Note_on_c, 0, 68, 83
2, 28676, Note_on_c, 0, 74, 76
2, 28679, Note_on_c, 0, 60, 47
2, 28679, Note_on_c, 0, 54, 51
2, 28681, Note_on_c, 0, 62, 33
2, 28688, Note_on_c, 0, 60, 0
2, 28690, Note_on_c, 0, 62, 0
2, 28707, Note_on_c, 0, 54, 0
2, 28740, Note_on_c, 0, 74, 0
2, 28756, Note_on_c, 0, 68, 0
2, 28759, Note_on_c, 0, 51, 42
2, 28762, Note_on_c, 0, 62, 60
2, 28773, Note_on_c, 0, 51, 0
2, 28784, Note_on_c, 0, 62, 0
2, 28798, Note_on_c, 0, 65, 74
2, 28857, Note_on_c, 0, 65, 0
2, 28872, Note_on_c, 0, 67, 59
2, 28879, Note_on_c, 0, 65, 57
2, 28898, Note_on_c, 0, 67, 0
2, 28914, Note_on_c, 0, 62, 46
2, 28916, Note_on_c, 0, 65, 0
2, 28965, Note_on_c, 0, 62, 0
2, 29002, Note_on_c, 0, 65, 103
2, 29002, Note_on_c, 0, 58, 68
2, 29022, Note_on_c, 0, 58, 0
2, 29055, Note_on_c, 0, 65, 0
2, 29065, Note_on_c, 0, 67, 48
2, 29086, Note_on_c, 0, 65, 49
2, 29089, Note_on_c, 0, 67, 0
2, 29116, Note_on_c, 0, 65, 0
2, 29121, Note_on_c, 0, 62, 60
2, 29124, Note_on_c, 0, 47, 36
2, 29130, Note_on_c, 0, 48, 60
2, 29133, Note_on_c, 0, 47, 0
2, 29142, Note_on_c, 0, 48, 0
2, 29144, Note_on_c, 0, 62, 0
2, 29161, Note_on_c, 0, 59, 77
2, 29216, Note_on_c, 0, 59, 0
2, 29239, Note_on_c, 0, 58, 77
2, 29240, Note_on_c, 0, 48, 45
2, 29247, Note_on_c, 0, 48, 0
2, 29272, Note_on_c, 0, 58, 0
2, 29306, Note_on_c, 0, 56, 55
2, 29306, Note_on_c, 0, 62, 55
2, 29330, Note_on_c, 0, 56, 0
2, 29330, Note_on_c, 0, 57, 45
2, 29359, Note_on_c, 0, 57, 0
2, 29366, Note_on_c, 0, 62, 0
2, 29366, Note_on_c, 0, 46, 28
2, 29368, Note_on_c, 0, 47, 31
2, 29373, Note_on_c, 0, 46, 0
2, 29377, Note_on_c, 0, 47, 0
2, 29397, Note_on_c, 0, 50, 65
2, 29467, Note_on_c, 0, 50, 0
2, 29480, Note_on_c, 0, 53, 73
2, 29514, Note_on_c, 0, 53, 0
2, 29605, Note_on_c, 0, 60, 66
2, 29605, Note_on_c, 0, 54, 56
2, 29606, Note_on_c, 0, 65, 70
2, 29607, Note_on_c, 0, 58, 52
2, 29731, Note_on_c, 0, 60, 0
2, 29736, Note_on_c, 0, 65, 0
2, 29750, Note_on_c, 0, 58, 0
2, 29753, Note_on_c, 0, 54, 0
2, 29762, Note_on_c, 0, 64, 56
2, 29767, Note_on_c, 0, 59, 50
2, 29770, Note_on_c, 0, 53, 33
2, 29876, Note_on_c, 0, 59, 0
2, 29899, Note_on_c, 0, 64, 0
2, 29902, Note_on_c, 0, 53, 0
2, 29962, Note_on_c, 0, 63, 76
2, 29964, Note_on_c, 0, 58, 61
2, 29968, Note_on_c, 0, 52, 58
2, 29976, Note_on_c, 0, 52, 0
2, 29980, Note_on_c, 0, 63, 0
2, 30008, Note_on_c, 0, 94, 67
2, 30032, Note_on_c, 0, 58, 0
2, 30034, Note_on_c, 0, 94, 0
2, 30035, Note_on_c, 0, 95, 52
2, 30051, Note_on_c, 0, 94, 36
2, 30065, Note_on_c, 0, 95, 0
2, 30071, Note_on_c, 0, 94, 0
2, 30075, Note_on_c, 0, 92, 51
2, 30092, Note_on_c, 0, 58, 46
2, 30099, Note_on_c, 0, 89, 43
2, 30100, Note_on_c, 0, 52, 38
2, 30105, Note_on_c, 0, 92, 0
2, 30113, Note_on_c, 0, 58, 0
2, 30120, Note_on_c, 0, 89, 0
2, 30124, Note_on_c, 0, 52, 0
2, 30130, Note_on_c, 0, 94, 85
2, 30185, Note_on_c, 0, 94, 0
2, 30199, Note_on_c, 0, 48, 82
2, 30201, Note_on_c, 0, 47, 70
2, 30210, Note_on_c, 0, 47, 0
2, 30326, Note_on_c, 0, 47, 40
2, 30347, Note_on_c, 0, 48, 0
2, 30349, Note_on_c, 0, 47, 0
2, 30360, Note_on_c, 0, 92, 83
2, 30424, Note_on_c, 0, 92, 0
2, 30481, Note_on_c, 0, 89, 72
2, 30565, Note_on_c, 0, 89, 0
2, 30566, Note_on_c, 0, 48, 69
2, 30572, Note_on_c, 0, 47, 36
2, 30577, Note_on_c, 0, 48, 0
2, 30580, Note_on_c, 0, 47, 0
2, 30597, Note_on_c, 0, 87, 74
2, 30675, Note_on_c, 0, 87, 0
2, 30711, Note_on_c, 0, 65, 58
2, 30715, Note_on_c, 0, 55, 46
2, 30716, Note_on_c, 0, 57, 49
2, 30717, Note_on_c, 0, 60, 61
2, 30717, Note_on_c, 0, 84, 73
2, 30766, Note_on_c, 0, 60, 0
2, 30790, Note_on_c, 0, 65, 0
2, 30791, Note_on_c, 0, 84, 0
2, 30803, Note_on_c, 0, 55, 0
2, 30811, Note_on_c, 0, 57, 0
2, 30828, Note_on_c, 0, 55, 53
2, 30829, Note_on_c, 0, 65, 61
2, 30831, Note_on_c, 0, 80, 71
2, 30833, Note_on_c, 0, 84, 67
2, 30834, Note_on_c, 0, 60, 48
2, 30835, Note_on_c, 0, 57, 36
2, 30859, Note_on_c, 0, 60, 0
2, 30876, Note_on_c, 0, 80, 0
2, 30877, Note_on_c, 0, 81, 28
2, 30913, Note_on_c, 0, 81, 0
2, 30920, Note_on_c, 0, 65, 0
2, 30931, Note_on_c, 0, 55, 0
2, 30938, Note_on_c, 0, 57, 0
2, 30940, Note_on_c, 0, 84, 0
2, 30954, Note_on_c, 0, 59, 12
2, 30958, Note_on_c, 0, 64, 47
2, 30962, Note_on_c, 0, 72, 57
2, 30997, Note_on_c, 0, 59, 0
2, 31043, Note_on_c, 0, 59, 80
2, 31046, Note_on_c, 0, 53, 79
2, 31067, Note_on_c, 0, 72, 0
2, 31108, Note_on_c, 0, 59, 0
2, 31151, Note_on_c, 0, 64, 0
2, 31166, Note_on_c, 0, 58, 51
2, 31168, Note_on_c, 0, 53, 0
2, 31183, Note_on_c, 0, 58, 0
2, 31202, Note_on_c, 0, 87, 91
2, 31203, Note_on_c, 0, 78, 93
2, 31209, Note_on_c, 0, 85, 45
2, 31215, Note_on_c, 0, 62, 38
2, 31217, Note_on_c, 0, 85, 0
2, 31224, Note_on_c, 0, 62, 0
2, 31267, Note_on_c, 0, 87, 0
2, 31268, Note_on_c, 0, 78, 0
2, 31282, Note_on_c, 0, 88, 82
2, 31284, Note_on_c, 0, 79, 76
2, 31288, Note_on_c, 0, 62, 62
2, 31290, Note_on_c, 0, 58, 48
2, 31292, Note_on_c, 0, 82, 32
2, 31293, Note_on_c, 0, 52, 41
2, 31295, Note_on_c, 0, 62, 0
2, 31301, Note_on_c, 0, 86, 25
2, 31303, Note_on_c, 0, 52, 0
2, 31304, Note_on_c, 0, 58, 0
2, 31306, Note_on_c, 0, 79, 0
2, 31311, Note_on_c, 0, 88, 0
2, 31317, Note_on_c, 0, 86, 0
2, 31318, Note_on_c, 0, 82, 0
2, 31334, Note_on_c, 0, 87, 64
2, 31336, Note_on_c, 0, 78, 48
2, 31374, Note_on_c, 0, 87, 0
2, 31385, Note_on_c, 0, 78, 0
2, 31403, Note_on_c, 0, 88, 71
2, 31404, Note_on_c, 0, 79, 64
2, 31408, Note_on_c, 0, 58, 51
2, 31409, Note_on_c, 0, 62, 50
2, 31418, Note_on_c, 0, 62, 0
2, 31421, Note_on_c, 0, 88, 0
2, 31423, Note_on_c, 0, 79, 0
2, 31424, Note_on_c, 0, 58, 0
2, 31447, Note_on_c, 0, 76, 47
2, 31449, Note_on_c, 0, 84, 46
2, 31504, Note_on_c, 0, 76, 0
2, 31514, Note_on_c, 0, 84, 0
2, 31555, Note_on_c, 0, 61, 37
2, 31556, Note_on_c, 0, 65, 42
2, 31557, Note_on_c, 0, 58, 44
2, 31559, Note_on_c, 0, 81, 55
2, 31560, Note_on_c, 0, 55, 33
2, 31561, Note_on_c, 0, 72, 37
2, 31600, Note_on_c, 0, 55, 0
2, 31608, Note_on_c, 0, 65, 0
2, 31608, Note_on_c, 0, 72, 0
2, 31622, Note_on_c, 0, 81, 0
2, 31624, Note_on_c, 0, 58, 0
2, 31629, Note_on_c, 0, 61, 0
2, 31681, Note_on_c, 0, 64, 47
2, 31682, Note_on_c, 0, 60, 38
2, 31683, Note_on_c, 0, 72, 62
2, 31684, Note_on_c, 0, 57, 40
2, 31684, Note_on_c, 0, 84, 66
2, 31685, Note_on_c, 0, 53, 32
2, 31725, Note_on_c, 0, 84, 0
2, 31728, Note_on_c, 0, 72, 0
2, 31731, Note_on_c, 0, 60, 0
2, 31732, Note_on_c, 0, 64, 0
2, 31736, Note_on_c, 0, 53, 0
2, 31739, Note_on_c, 0, 57, 0
2, 31896, Note_on_c, 0, 59, 62
2, 31904, Note_on_c, 0, 59, 0
2, 31925, Note_on_c, 0, 78, 95
2, 31926, Note_on_c, 0, 90, 88
2, 31926, Note_on_c, 0, 59, 87
2, 31928, Note_on_c, 0, 64, 88
2, 31928, Note_on_c, 0, 53, 88
2, 31928, Note_on_c, 0, 84, 77
2, 31936, Note_on_c, 0, 84, 0
2, 31945, Note_on_c, 0, 78, 0
2, 31947, Note_on_c, 0, 90, 0
2, 31952, Note_on_c, 0, 89, 57
2, 31953, Note_on_c, 0, 84, 24
2, 31956, Note_on_c, 0, 77, 31
2, 31963, Note_on_c, 0, 86, 28
2, 31973, Note_on_c, 0, 86, 0
2, 32002, Note_on_c, 0, 89, 0
2, 32003, Note_on_c, 0, 84, 0
2, 32012, Note_on_c, 0, 53, 0
2, 32015, Note_on_c, 0, 64, 0
2, 32015, Note_on_c, 0, 77, 0
2, 32018, Note_on_c, 0, 59, 0
2, 32041, Note_on_c, 0, 53, 68
2, 32041, Note_on_c, 0, 59, 60
2, 32041, Note_on_c, 0, 87, 72
2, 32042, Note_on_c, 0, 64, 66
2, 32042, Note_on_c, 0, 75, 71
2, 32096, Note_on_c, 0, 87, 0
2, 32099, Note_on_c, 0, 53, 0
2, 32100, Note_on_c, 0, 64, 0
2, 32113, Note_on_c, 0, 59, 0
2, 32114, Note_on_c, 0, 75, 0
2, 32126, Note_on_c, 0, 59, 37
2, 32126, Note_on_c, 0, 62, 64
2, 32128, Note_on_c, 0, 84, 80
2, 32130, Note_on_c, 0, 72, 62
2, 32131, Note_on_c, 0, 52, 51
2, 32131, Note_on_c, 0, 74, 62
2, 32133, Note_on_c, 0, 55, 62
2, 32140, Note_on_c, 0, 74, 0
2, 32271, Note_on_c, 0, 72, 0
2, 32277, Note_on_c, 0, 52, 0
2, 32279, Note_on_c, 0, 59, 0
2, 32280, Note_on_c, 0, 55, 0
2, 32281, Note_on_c, 0, 84, 0
2, 32293, Note_on_c, 0, 62, 0
2, 32366, Note_on_c, 0, 61, 71
2, 32367, Note_on_c, 0, 65, 75
2, 32368, Note_on_c, 0, 58, 53
2, 32370, Note_on_c, 0, 55, 59
2, 32371, Note_on_c, 0, 90, 81
2, 32372, Note_on_c, 0, 78, 73
2, 32373, Note_on_c, 0, 82, 57
2, 32374, Note_on_c, 0, 87, 56
2, 32375, Note_on_c, 0, 65, 0
2, 32375, Note_on_c, 0, 85, 40
2, 32377, Note_on_c, 0, 55, 0
2, 32381, Note_on_c, 0, 87, 0
2, 32381, Note_on_c, 0, 82, 0
2, 32383, Note_on_c, 0, 61, 0
2, 32383, Note_on_c, 0, 85, 0
2, 32387, Note_on_c, 0, 58, 0
2, 32393, Note_on_c, 0, 78, 0
2, 32421, Note_on_c, 0, 90, 0
2, 32427, Note_on_c, 0, 75, 39
2, 32450, Note_on_c, 0, 75, 0
2, 32456, Note_on_c, 0, 90, 39
2, 32459, Note_on_c, 0, 87, 39
2, 32484, Note_on_c, 0, 75, 35
2, 32486, Note_on_c, 0, 87, 0
2, 32486, Note_on_c, 0, 90, 0
2, 32507, Note_on_c, 0, 75, 0
2, 32512, Note_on_c, 0, 90, 48
2, 32516, Note_on_c, 0, 87, 48
2, 32544, Note_on_c, 0, 75, 46
2, 32546, Note_on_c, 0, 87, 0
2, 32546, Note_on_c, 0, 90, 0
2, 32571, Note_on_c, 0, 75, 0
2, 32579, Note_on_c, 0, 90, 48
2, 32580, Note_on_c, 0, 87, 54
2, 32594, Note_on_c, 0, 64, 59
2, 32597, Note_on_c, 0, 60, 51
2, 32603, Note_on_c, 0, 64, 0
2, 32606, Note_on_c, 0, 60, 0
2, 32611, Note_on_c, 0, 90, 0
2, 32615, Note_on_c, 0, 87, 0
2, 32618, Note_on_c, 0, 75, 42
2, 32647, Note_on_c, 0, 90, 31
2, 32650, Note_on_c, 0, 75, 0
2, 32651, Note_on_c, 0, 87, 50
2, 32679, Note_on_c, 0, 90, 0
2, 32685, Note_on_c, 0, 87, 0
2, 32691, Note_on_c, 0, 75, 57
2, 32703, Note_on_c, 0, 55, 63
2, 32703, Note_on_c, 0, 53, 66
2, 32703, Note_on_c, 0, 43, 60
2, 32704, Note_on_c, 0, 41, 68
2, 32711, Note_on_c, 0, 41, 0
2, 32711, Note_on_c, 0, 53, 0
2, 32719, Note_on_c, 0, 55, 0
2, 32720, Note_on_c, 0, 43, 0
2, 32726, Note_on_c, 0, 90, 29
2, 32728, Note_on_c, 0, 75, 0
2, 32729, Note_on_c, 0, 87, 52
2, 32751, Note_on_c, 0, 90, 0
2, 32760, Note_on_c, 0, 87, 0
2, 32760, Note_on_c, 0, 75, 47
2, 32789, Note_on_c, 0, 75, 0
2, 32790, Note_on_c, 0, 87, 60
2, 32791, Note_on_c, 0, 90, 34
2, 32821, Note_on_c, 0, 90, 0
2, 32822, Note_on_c, 0, 87, 0
2, 32825, Note_on_c, 0, 75, 63
2, 32833, Note_on_c, 0, 64, 83
2, 32835, Note_on_c, 0, 59, 72
2, 32837, Note_on_c, 0, 53, 61
2, 32857, Note_on_c, 0, 75, 0
2, 32858, Note_on_c, 0, 64, 0
2, 32859, Note_on_c, 0, 87, 51
2, 32861, Note_on_c, 0, 90, 33
2, 32869, Note_on_c, 0, 53, 0
2, 32874, Note_on_c, 0, 59, 0
2, 32888, Note_on_c, 0, 87, 0
2, 32888, Note_on_c, 0, 90, 0
2, 32889, Note_on_c, 0, 75, 53
2, 32927, Note_on_c, 0, 87, 43
2, 32929, Note_on_c, 0, 75, 0
2, 32931, Note_on_c, 0, 90, 51
2, 32957, Note_on_c, 0, 63, 88
2, 32958, Note_on_c, 0, 53, 74
2, 32958, Note_on_c, 0, 59, 75
2, 32959, Note_on_c, 0, 90, 0
2, 32959, Note_on_c, 0, 56, 64
2, 32960, Note_on_c, 0, 87, 0
2, 32969, Note_on_c, 0, 75, 40
2, 33007, Note_on_c, 0, 87, 40
2, 33009, Note_on_c, 0, 75, 0
2, 33026, Note_on_c, 0, 59, 0
2, 33061, Note_on_c, 0, 75, 11
2, 33073, Note_on_c, 0, 75, 0
2, 33075, Note_on_c, 0, 53, 0
2, 33075, Note_on_c, 0, 59, 57
2, 33089, Note_on_c, 0, 63, 0
2, 33099, Note_on_c, 0, 87, 0
2, 33110, Note_on_c, 0, 56, 0
2, 33120, Note_on_c, 0, 62, 68
2, 33122, Note_on_c, 0, 55, 53
2, 33124, Note_on_c, 0, 52, 53
2, 33127, Note_on_c, 0, 89, 50
2, 33130, Note_on_c, 0, 76, 42
2, 33154, Note_on_c, 0, 62, 0
2, 33156, Note_on_c, 0, 76, 0
2, 33162, Note_on_c, 0, 59, 0
2, 33164, Note_on_c, 0, 52, 0
2, 33164, Note_on_c, 0, 55, 0
2, 33173, Note_on_c, 0, 89, 0
2, 33249, Note_on_c, 0, 62, 75
2, 33251, Note_on_c, 0, 59, 62
2, 33251, Note_on_c, 0, 55, 56
2, 33252, Note_on_c, 0, 52, 57
2, 33252, Note_on_c, 0, 79, 75
2, 33253, Note_on_c, 0, 86, 80
2, 33253, Note_on_c, 0, 91, 74
2, 33273, Note_on_c, 0, 52, 0
2, 33284, Note_on_c, 0, 55, 0
2, 33286, Note_on_c, 0, 79, 0
2, 33286, Note_on_c, 0, 59, 0
2, 33288, Note_on_c, 0, 62, 0
2, 33296, Note_on_c, 0, 86, 0
2, 33299, Note_on_c, 0, 91, 0
2, 33372, Note_on_c, 0, 61, 74
2, 33372, Note_on_c, 0, 65, 81
2, 33372, Note_on_c, 0, 58, 68
2, 33373, Note_on_c, 0, 55, 83
2, 33373, Note_on_c, 0, 81, 89
2, 33374, Note_on_c, 0, 88, 85
2, 33374, Note_on_c, 0, 93, 89
2, 33417, Note_on_c, 0, 81, 0
2, 33419, Note_on_c, 0, 88, 0
2, 33423, Note_on_c, 0, 55, 0
2, 33428, Note_on_c, 0, 65, 0
2, 33428, Note_on_c, 0, 93, 0
2, 33433, Note_on_c, 0, 58, 0
2, 33435, Note_on_c, 0, 61, 0
2, 33452, Note_on_c, 0, 61, 73
2, 33452, Note_on_c, 0, 55, 80
2, 33453, Note_on_c, 0, 91, 77
2, 33453, Note_on_c, 0, 58, 75
2, 33453, Note_on_c, 0, 65, 78
2, 33454, Note_on_c, 0, 96, 81
2, 33454, Note_on_c, 0, 84, 69
2, 33515, Note_on_c, 0, 84, 0
2, 33523, Note_on_c, 0, 91, 0
2, 33526, Note_on_c, 0, 96, 0
2, 33567, Note_on_c, 0, 55, 0
2, 33570, Note_on_c, 0, 65, 0
2, 33586, Note_on_c, 0, 58, 0
2, 33589, Note_on_c, 0, 61, 0
2, 33602, Note_on_c, 0, 60, 62
2, 33603, Note_on_c, 0, 57, 61
2, 33604, Note_on_c, 0, 53, 68
2, 33604, Note_on_c, 0, 64, 63
2, 33607, Note_on_c, 0, 101, 81
2, 33607, Note_on_c, 0, 96, 80
2, 33607, Note_on_c, 0, 89, 81
2, 33680, Note_on_c, 0, 101, 0
2, 33686, Note_on_c, 0, 96, 0
2, 33690, Note_on_c, 0, 53, 0
2, 33691, Note_on_c, 0, 64, 0
2, 33692, Note_on_c, 0, 89, 0
2, 33696, Note_on_c, 0, 57, 0
2, 33698, Note_on_c, 0, 60, 0
2, 33719, Note_on_c, 0, 100, 81
2, 33719, Note_on_c, 0, 95, 76
2, 33720, Note_on_c, 0, 60, 56
2, 33721, Note_on_c, 0, 57, 60
2, 33721, Note_on_c, 0, 64, 68
2, 33721, Note_on_c, 0, 88, 65
2, 33722, Note_on_c, 0, 53, 61
2, 33753, Note_on_c, 0, 100, 0
2, 33758, Note_on_c, 0, 95, 0
2, 33780, Note_on_c, 0, 88, 0
2, 33798, Note_on_c, 0, 60, 0
2, 33802, Note_on_c, 0, 53, 0
2, 33807, Note_on_c, 0, 64, 0
2, 33820, Note_on_c, 0, 57, 0
2, 33838, Note_on_c, 0, 92, 81
2, 33838, Note_on_c, 0, 64, 70
2, 33840, Note_on_c, 0, 53, 59
2, 33841, Note_on_c, 0, 59, 68
2, 33841, Note_on_c, 0, 96, 77
2, 33844, Note_on_c, 0, 86, 60
2, 33844, Note_on_c, 0, 84, 49
2, 33851, Note_on_c, 0, 86, 0
2, 33853, Note_on_c, 0, 84, 0
2, 33867, Note_on_c, 0, 93, 51
2, 33878, Note_on_c, 0, 92, 0
2, 33903, Note_on_c, 0, 59, 0
2, 33907, Note_on_c, 0, 96, 0
2, 33909, Note_on_c, 0, 93, 0
2, 33924, Note_on_c, 0, 53, 0
2, 33934, Note_on_c, 0, 64, 0
2, 33934, Note_on_c, 0, 84, 32
2, 33943, Note_on_c, 0, 59, 26
2, 33948, Note_on_c, 0, 84, 0
2, 33958, Note_on_c, 0, 53, 60
2, 33959, Note_on_c, 0, 64, 74
2, 33961, Note_on_c, 0, 93, 81
2, 33962, Note_on_c, 0, 89, 71
2, 33968, Note_on_c, 0, 91, 45
2, 33978, Note_on_c, 0, 91, 0
2, 34008, Note_on_c, 0, 93, 0
2, 34012, Note_on_c, 0, 64, 0
2, 34017, Note_on_c, 0, 53, 0
2, 34021, Note_on_c, 0, 89, 0
2, 34026, Note_on_c, 0, 59, 0
2, 34046, Note_on_c, 0, 87, 83
2, 34047, Note_on_c, 0, 59, 51
2, 34047, Note_on_c, 0, 91, 74
2, 34049, Note_on_c, 0, 62, 66
2, 34051, Note_on_c, 0, 52, 53
2, 34054, Note_on_c, 0, 55, 57
2, 34091, Note_on_c, 0, 87, 0
2, 34104, Note_on_c, 0, 89, 22
2, 34105, Note_on_c, 0, 88, 54
2, 34120, Note_on_c, 0, 59, 0
2, 34126, Note_on_c, 0, 62, 0
2, 34137, Note_on_c, 0, 91, 0
2, 34139, Note_on_c, 0, 84, 53
2, 34153, Note_on_c, 0, 88, 0
2, 34153, Note_on_c, 0, 89, 0
2, 34168, Note_on_c, 0, 84, 0
2, 34169, Note_on_c, 0, 59, 48
2, 34171, Note_on_c, 0, 79, 58
2, 34193, Note_on_c, 0, 79, 0
2, 34201, Note_on_c, 0, 62, 61
2, 34205, Note_on_c, 0, 84, 66
2, 34206, Note_on_c, 0, 79, 57
2, 34207, Note_on_c, 0, 77, 69
2, 34227, Note_on_c, 0, 59, 0
2, 34244, Note_on_c, 0, 84, 0
2, 34252, Note_on_c, 0, 55, 0
2, 34253, Note_on_c, 0, 62, 0
2, 34265, Note_on_c, 0, 52, 0
2, 34267, Note_on_c, 0, 79, 0
2, 34276, Note_on_c, 0, 77, 0
2, 34290, Note_on_c, 0, 72, 41
2, 34312, Note_on_c, 0, 72, 0
2, 34319, Note_on_c, 0, 55, 41
2, 34320, Note_on_c, 0, 65, 50
2, 34322, Note_on_c, 0, 75, 65
2, 34323, Note_on_c, 0, 61, 44
2, 34323, Note_on_c, 0, 58, 35
2, 34324, Note_on_c, 0, 79, 58
2, 34373, Note_on_c, 0, 61, 0
2, 34373, Note_on_c, 0, 75, 0
2, 34373, Note_on_c, 0, 76, 51
2, 34386, Note_on_c, 0, 58, 0
2, 34399, Note_on_c, 0, 65, 0
2, 34401, Note_on_c, 0, 76, 0
2, 34403, Note_on_c, 0, 79, 0
2, 34406, Note_on_c, 0, 61, 52
2, 34411, Note_on_c, 0, 58, 42
2, 34414, Note_on_c, 0, 61, 0
2, 34425, Note_on_c, 0, 58, 0
2, 34434, Note_on_c, 0, 55, 0
2, 34441, Note_on_c, 0, 67, 68
2, 34510, Note_on_c, 0, 67, 0
2, 34522, Note_on_c, 0, 54, 62
2, 34522, Note_on_c, 0, 55, 87
2, 34524, Note_on_c, 0, 66, 77
2, 34524, Note_on_c, 0, 72, 62
2, 34538, Note_on_c, 0, 54, 0
2, 34645, Note_on_c, 0, 66, 0
2, 34646, Note_on_c, 0, 55, 0
2, 34649, Note_on_c, 0, 50, 44
2, 34653, Note_on_c, 0, 72, 0
2, 34673, Note_on_c, 0, 50, 0
2, 34681, Note_on_c, 0, 65, 71
2, 34681, Note_on_c, 0, 53, 54
2, 34683, Note_on_c, 0, 72, 48
2, 34715, Note_on_c, 0, 72, 0
2, 34760, Note_on_c, 0, 65, 0
2, 34772, Note_on_c, 0, 50, 37
2, 34773, Note_on_c, 0, 53, 0
2, 34777, Note_on_c, 0, 60, 28
2, 34781, Note_on_c, 0, 50, 0
2, 34786, Note_on_c, 0, 60, 0
2, 35040, Note_on_c, 0, 75, 85
2, 35040, Note_on_c, 0, 79, 78
2, 35065, Note_on_c, 0, 75, 0
2, 35076, Note_on_c, 0, 76, 62
2, 35097, Note_on_c, 0, 79, 0
2, 35120, Note_on_c, 0, 76, 0
2, 35169, Note_on_c, 0, 72, 89
2, 35170, Note_on_c, 0, 79, 78
2, 35253, Note_on_c, 0, 79, 0
2, 35261, Note_on_c, 0, 72, 0
2, 35284, Note_on_c, 0, 69, 65
2, 35285, Note_on_c, 0, 79, 40
2, 35336, Note_on_c, 0, 69, 0
2, 35339, Note_on_c, 0, 79, 0
2, 35364, Note_on_c, 0, 61, 48
2, 35365, Note_on_c, 0, 65, 48
2, 35368, Note_on_c, 0, 58, 38
2, 35372, Note_on_c, 0, 55, 27
2, 35388, Note_on_c, 0, 65, 0
2, 35389, Note_on_c, 0, 55, 0
2, 35401, Note_on_c, 0, 61, 0
2, 35402, Note_on_c, 0, 58, 0
2, 35512, Note_on_c, 0, 64, 44
2, 35513, Note_on_c, 0, 57, 55
2, 35514, Note_on_c, 0, 60, 48
2, 35535, Note_on_c, 0, 64, 0
2, 35538, Note_on_c, 0, 60, 0
2, 35544, Note_on_c, 0, 57, 0
2, 35723, Note_on_c, 0, 59, 83
2, 35723, Note_on_c, 0, 64, 82
2, 35728, Note_on_c, 0, 53, 58
2, 35731, Note_on_c, 0, 59, 0
2, 35732, Note_on_c, 0, 64, 0
2, 35737, Note_on_c, 0, 53, 0
2, 35756, Note_on_c, 0, 77, 103
2, 35756, Note_on_c, 0, 89, 99
2, 35765, Note_on_c, 0, 88, 36
2, 35773, Note_on_c, 0, 88, 0
2, 35815, Note_on_c, 0, 89, 0
2, 35819, Note_on_c, 0, 77, 0
2, 35836, Note_on_c, 0, 89, 57
2, 35839, Note_on_c, 0, 77, 68
2, 35850, Note_on_c, 0, 59, 58
2, 35853, Note_on_c, 0, 89, 0
2, 35856, Note_on_c, 0, 77, 0
2, 35856, Note_on_c, 0, 53, 24
2, 35866, Note_on_c, 0, 59, 0
2, 35871, Note_on_c, 0, 53, 0
2, 35875, Note_on_c, 0, 75, 74
2, 35876, Note_on_c, 0, 87, 83
2, 35890, Note_on_c, 0, 88, 41
2, 35898, Note_on_c, 0, 75, 0
2, 35898, Note_on_c, 0, 76, 64
2, 35904, Note_on_c, 0, 86, 30
2, 35906, Note_on_c, 0, 77, 35
2, 35910, Note_on_c, 0, 87, 0
2, 35915, Note_on_c, 0, 77, 0
2, 35958, Note_on_c, 0, 88, 0
2, 35958, Note_on_c, 0, 86, 0
2, 35964, Note_on_c, 0, 76, 0
2, 35978, Note_on_c, 0, 62, 47
2, 35987, Note_on_c, 0, 59, 47
2, 35988, Note_on_c, 0, 55, 38
2, 35988, Note_on_c, 0, 84, 66
2, 35991, Note_on_c, 0, 72, 48
2, 35992, Note_on_c, 0, 52, 24
2, 36044, Note_on_c, 0, 59, 0
2, 36073, Note_on_c, 0, 84, 0
2, 36074, Note_on_c, 0, 72, 0
2, 36091, Note_on_c, 0, 62, 0
2, 36113, Note_on_c, 0, 55, 0
2, 36120, Note_on_c, 0, 52, 0
2, 36239, Note_on_c, 0, 65, 57
2, 36239, Note_on_c, 0, 79, 53
2, 36240, Note_on_c, 0, 72, 43
2, 36241, Note_on_c, 0, 61, 39
2, 36242, Note_on_c, 0, 58, 35
2, 36257, Note_on_c, 0, 65, 0
2, 36260, Note_on_c, 0, 72, 0
2, 36265, Note_on_c, 0, 61, 0
2, 36270, Note_on_c, 0, 58, 0
2, 36270, Note_on_c, 0, 79, 0
2, 36475, Note_on_c, 0, 64, 47
2, 36476, Note_on_c, 0, 60, 54
2, 36476, Note_on_c, 0, 57, 58
2, 36486, Note_on_c, 0, 64, 0
2, 36489, Note_on_c, 0, 60, 0
2, 36499, Note_on_c, 0, 57, 0
2, 36686, Note_on_c, 0, 59, 35
2, 36696, Note_on_c, 0, 59, 0
2, 36716, Note_on_c, 0, 59, 80
2, 36718, Note_on_c, 0, 53, 84
2, 36719, Note_on_c, 0, 64, 76
2, 36720, Note_on_c, 0, 103, 89
2, 36721, Note_on_c, 0, 98, 84
2, 36721, Note_on_c, 0, 91, 80
2, 36726, Note_on_c, 0, 93, 57
2, 36729, Note_on_c, 0, 91, 0
2, 36734, Note_on_c, 0, 64, 0
2, 36735, Note_on_c, 0, 98, 0
2, 36735, Note_on_c, 0, 93, 0
2, 36736, Note_on_c, 0, 103, 0
2, 36738, Note_on_c, 0, 53, 0
2, 36740, Note_on_c, 0, 59, 0
2, 36752, Note_on_c, 0, 59, 69
2, 36752, Note_on_c, 0, 64, 75
2, 36752, Note_on_c, 0, 53, 79
2, 36756, Note_on_c, 0, 102, 87
2, 36759, Note_on_c, 0, 92, 68
2, 36762, Note_on_c, 0, 103, 63
2, 36765, Note_on_c, 0, 91, 55
2, 36768, Note_on_c, 0, 92, 0
2, 36769, Note_on_c, 0, 64, 0
2, 36770, Note_on_c, 0, 103, 0
2, 36772, Note_on_c, 0, 53, 0
2, 36774, Note_on_c, 0, 91, 0
2, 36779, Note_on_c, 0, 102, 0
2, 36780, Note_on_c, 0, 59, 0
2, 36792, Note_on_c, 0, 53, 66
2, 36794, Note_on_c, 0, 59, 70
2, 36795, Note_on_c, 0, 89, 71
2, 36796, Note_on_c, 0, 64, 71
2, 36797, Note_on_c, 0, 101, 52
2, 36799, Note_on_c, 0, 100, 58
2, 36804, Note_on_c, 0, 89, 0
2, 36804, Note_on_c, 0, 99, 34
2, 36805, Note_on_c, 0, 64, 0
2, 36809, Note_on_c, 0, 100, 0
2, 36812, Note_on_c, 0, 99, 0
2, 36813, Note_on_c, 0, 53, 0
2, 36813, Note_on_c, 0, 101, 0
2, 36832, Note_on_c, 0, 53, 74
2, 36834, Note_on_c, 0, 87, 81
2, 36834, Note_on_c, 0, 64, 66
2, 36835, Note_on_c, 0, 97, 60
2, 36838, Note_on_c, 0, 98, 84
2, 36838, Note_on_c, 0, 92, 56
2, 36846, Note_on_c, 0, 92, 0
2, 36886, Note_on_c, 0, 98, 0
2, 36908, Note_on_c, 0, 59, 0
2, 36918, Note_on_c, 0, 64, 0
2, 36920, Note_on_c, 0, 97, 0
2, 36922, Note_on_c, 0, 53, 0
2, 36929, Note_on_c, 0, 87, 0
2, 36949, Note_on_c, 0, 62, 64
2, 36950, Note_on_c, 0, 58, 60
2, 36951, Note_on_c, 0, 57, 53
2, 36955, Note_on_c, 0, 91, 59
2, 36957, Note_on_c, 0, 96, 60
2, 36960, Note_on_c, 0, 52, 52
2, 36962, Note_on_c, 0, 84, 31
2, 37014, Note_on_c, 0, 84, 0
2, 37017, Note_on_c, 0, 91, 0
2, 37018, Note_on_c, 0, 58, 0
2, 37022, Note_on_c, 0, 57, 0
2, 37024, Note_on_c, 0, 62, 0
2, 37024, Note_on_c, 0, 96, 0
2, 37025, Note_on_c, 0, 52, 0
2, 37073, Note_on_c, 0, 93, 77
2, 37075, Note_on_c, 0, 62, 74
2, 37076, Note_on_c, 0, 58, 62
2, 37077, Note_on_c, 0, 57, 58
2, 37079, Note_on_c, 0, 84, 62
2, 37080, Note_on_c, 0, 52, 57
2, 37115, Note_on_c, 0, 52, 0
2, 37121, Note_on_c, 0, 57, 0
2, 37133, Note_on_c, 0, 58, 0
2, 37133, Note_on_c, 0, 84, 0
2, 37135, Note_on_c, 0, 93, 0
2, 37139, Note_on_c, 0, 62, 0
2, 37195, Note_on_c, 0, 65, 76
2, 37196, Note_on_c, 0, 61, 60
2, 37199, Note_on_c, 0, 60, 74
2, 37199, Note_on_c, 0, 96, 82
2, 37200, Note_on_c, 0, 84, 81
2, 37202, Note_on_c, 0, 55, 59
2, 37287, Note_on_c, 0, 55, 0
2, 37290, Note_on_c, 0, 65, 0
2, 37291, Note_on_c, 0, 84, 0
2, 37296, Note_on_c, 0, 61, 0
2, 37299, Note_on_c, 0, 60, 0
2, 37304, Note_on_c, 0, 96, 0
2, 37308, Note_on_c, 0, 65, 32
2, 37309, Note_on_c, 0, 61, 23
2, 37314, Note_on_c, 0, 55, 18
2, 37321, Note_on_c, 0, 93, 55
2, 37360, Note_on_c, 0, 55, 0
2, 37371, Note_on_c, 0, 65, 0
2, 37389, Note_on_c, 0, 61, 0
2, 37393, Note_on_c, 0, 93, 0
2, 37405, Note_on_c, 0, 64, 64
2, 37407, Note_on_c, 0, 60, 65
2, 37408, Note_on_c, 0, 54, 57
2, 37409, Note_on_c, 0, 96, 69
2, 37412, Note_on_c, 0, 84, 54
2, 37414, Note_on_c, 0, 86, 64
2, 37423, Note_on_c, 0, 86, 0
2, 37431, Note_on_c, 0, 84, 0
2, 37454, Note_on_c, 0, 84, 20
2, 37562, Note_on_c, 0, 84, 0
2, 37573, Note_on_c, 0, 96, 0
2, 37627, Note_on_c, 0, 54, 0
2, 37639, Note_on_c, 0, 60, 0
2, 37646, Note_on_c, 0, 54, 57
2, 37670, Note_on_c, 0, 64, 0
2, 37675, Note_on_c, 0, 54, 0
2, 37688, Note_on_c, 0, 87, 79
2, 37690, Note_on_c, 0, 102, 79
2, 37695, Note_on_c, 0, 94, 36
2, 37704, Note_on_c, 0, 94, 0
2, 37755, Note_on_c, 0, 87, 0
2, 37763, Note_on_c, 0, 102, 0
2, 37765, Note_on_c, 0, 99, 38
2, 37773, Note_on_c, 0, 59, 54
2, 37776, Note_on_c, 0, 64, 30
2, 37785, Note_on_c, 0, 59, 0
2, 37786, Note_on_c, 0, 64, 0
2, 37790, Note_on_c, 0, 99, 0
2, 37812, Note_on_c, 0, 102, 70
2, 37813, Note_on_c, 0, 87, 67
2, 37821, Note_on_c, 0, 94, 30
2, 37829, Note_on_c, 0, 94, 0
2, 37861, Note_on_c, 0, 102, 0
2, 37865, Note_on_c, 0, 87, 0
2, 37890, Note_on_c, 0, 102, 57
2, 37895, Note_on_c, 0, 62, 60
2, 37897, Note_on_c, 0, 55, 57
2, 37901, Note_on_c, 0, 59, 30
2, 37903, Note_on_c, 0, 62, 0
2, 37909, Note_on_c, 0, 59, 0
2, 37912, Note_on_c, 0, 55, 0
2, 37931, Note_on_c, 0, 102, 0
2, 37948, Note_on_c, 0, 99, 49
2, 37994, Note_on_c, 0, 99, 0
2, 38008, Note_on_c, 0, 102, 69
2, 38011, Note_on_c, 0, 87, 57
2, 38014, Note_on_c, 0, 99, 30
2, 38023, Note_on_c, 0, 99, 0
2, 38034, Note_on_c, 0, 87, 0
2, 38036, Note_on_c, 0, 102, 0
2, 38058, Note_on_c, 0, 99, 44
2, 38118, Note_on_c, 0, 99, 0
2, 38130, Note_on_c, 0, 65, 74
2, 38131, Note_on_c, 0, 61, 67
2, 38136, Note_on_c, 0, 55, 49
2, 38139, Note_on_c, 0, 65, 0
2, 38145, Note_on_c, 0, 55, 0
2, 38150, Note_on_c, 0, 61, 0
2, 38163, Note_on_c, 0, 102, 71
2, 38163, Note_on_c, 0, 87, 71
2, 38232, Note_on_c, 0, 87, 0
2, 38240, Note_on_c, 0, 102, 0
2, 38280, Note_on_c, 0, 99, 69
2, 38283, Note_on_c, 0, 87, 64
2, 38321, Note_on_c, 0, 87, 0
2, 38327, Note_on_c, 0, 99, 0
2, 38364, Note_on_c, 0, 62, 69
2, 38364, Note_on_c, 0, 58, 62
2, 38371, Note_on_c, 0, 52, 45
2, 38372, Note_on_c, 0, 62, 0
2, 38380, Note_on_c, 0, 52, 0
2, 38382, Note_on_c, 0, 58, 0
2, 38413, Note_on_c, 0, 98, 99
2, 38445, Note_on_c, 0, 98, 0
2, 38490, Note_on_c, 0, 96, 89
2, 38516, Note_on_c, 0, 96, 0
2, 38546, Note_on_c, 0, 94, 75
2, 38586, Note_on_c, 0, 92, 36
2, 38587, Note_on_c, 0, 90, 46
2, 38588, Note_on_c, 0, 94, 0
2, 38594, Note_on_c, 0, 91, 48
2, 38597, Note_on_c, 0, 92, 0
2, 38604, Note_on_c, 0, 91, 0
2, 38613, Note_on_c, 0, 90, 0
2, 38618, Note_on_c, 0, 88, 54
2, 38631, Note_on_c, 0, 61, 37
2, 38633, Note_on_c, 0, 88, 0
2, 38638, Note_on_c, 0, 58, 29
2, 38647, Note_on_c, 0, 52, 20
2, 38649, Note_on_c, 0, 87, 64
2, 38669, Note_on_c, 0, 87, 0
2, 38676, Note_on_c, 0, 86, 47
2, 38703, Note_on_c, 0, 86, 0
2, 38709, Note_on_c, 0, 85, 55
2, 38731, Note_on_c, 0, 85, 0
2, 38732, Note_on_c, 0, 84, 66
2, 38733, Note_on_c, 0, 52, 0
2, 38744, Note_on_c, 0, 84, 0
2, 38752, Note_on_c, 0, 58, 0
2, 38755, Note_on_c, 0, 61, 0
2, 38765, Note_on_c, 0, 82, 30
2, 38782, Note_on_c, 0, 80, 40
2, 38796, Note_on_c, 0, 82, 0
2, 38810, Note_on_c, 0, 78, 38
2, 38816, Note_on_c, 0, 80, 0
2, 38839, Note_on_c, 0, 78, 0
2, 38851, Note_on_c, 0, 76, 28
2, 38860, Note_on_c, 0, 76, 0
2, 38862, Note_on_c, 0, 64, 30
2, 38863, Note_on_c, 0, 60, 39
2, 38863, Note_on_c, 0, 57, 44
2, 38876, Note_on_c, 0, 64, 0
2, 38885, Note_on_c, 0, 60, 0
2, 38899, Note_on_c, 0, 57, 0
2, 38900, Note_on_c, 0, 79, 81
2, 38943, Note_on_c, 0, 79, 0
2, 38962, Note_on_c, 0, 76, 82
2, 38987, Note_on_c, 0, 76, 0
2, 39004, Note_on_c, 0, 77, 62
2, 39005, Note_on_c, 0, 79, 66
2, 39022, Note_on_c, 0, 79, 0
2, 39032, Note_on_c, 0, 77, 0
2, 39046, Note_on_c, 0, 74, 71
2, 39088, Note_on_c, 0, 74, 0
2, 39108, Note_on_c, 0, 60, 56
2, 39114, Note_on_c, 0, 71, 71
2, 39115, Note_on_c, 0, 57, 38
2, 39116, Note_on_c, 0, 53, 32
2, 39117, Note_on_c, 0, 60, 0
2, 39127, Note_on_c, 0, 57, 0
2, 39138, Note_on_c, 0, 53, 0
2, 39139, Note_on_c, 0, 71, 0
2, 39165, Note_on_c, 0, 74, 56
2, 39165, Note_on_c, 0, 68, 64
2, 39204, Note_on_c, 0, 74, 0
2, 39211, Note_on_c, 0, 68, 0
2, 39225, Note_on_c, 0, 65, 64
2, 39243, Note_on_c, 0, 65, 0
2, 39260, Note_on_c, 0, 67, 61
2, 39262, Note_on_c, 0, 74, 43
2, 39294, Note_on_c, 0, 74, 0
2, 39321, Note_on_c, 0, 67, 0
2, 39331, Note_on_c, 0, 62, 53
2, 39341, Note_on_c, 0, 62, 0
2, 39363, Note_on_c, 0, 65, 77
2, 39422, Note_on_c, 0, 65, 0
2, 39443, Note_on_c, 0, 67, 53
2, 39443, Note_on_c, 0, 65, 61
2, 39462, Note_on_c, 0, 67, 0
2, 39480, Note_on_c, 0, 62, 45
2, 39481, Note_on_c, 0, 65, 0
2, 39547, Note_on_c, 0, 62, 0
2, 39564, Note_on_c, 0, 65, 71
2, 39572, Note_on_c, 0, 52, 30
2, 39583, Note_on_c, 0, 52, 0
2, 39595, Note_on_c, 0, 65, 0
2, 39646, Note_on_c, 0, 65, 68
2, 39655, Note_on_c, 0, 62, 30
2, 39659, Note_on_c, 0, 60, 34
2, 39664, Note_on_c, 0, 62, 0
2, 39667, Note_on_c, 0, 60, 0
2, 39682, Note_on_c, 0, 65, 0
2, 39696, Note_on_c, 0, 50, 27
2, 39698, Note_on_c, 0, 48, 46
2, 39705, Note_on_c, 0, 50, 0
2, 39707, Note_on_c, 0, 48, 0
2, 39726, Note_on_c, 0, 58, 77
2, 39728, Note_on_c, 0, 65, 68
2, 39764, Note_on_c, 0, 65, 0
2, 39779, Note_on_c, 0, 58, 0
2, 39801, Note_on_c, 0, 56, 78
2, 39802, Note_on_c, 0, 65, 66
2, 39811, Note_on_c, 0, 56, 0
2, 39814, Note_on_c, 0, 57, 74
2, 39832, Note_on_c, 0, 57, 0
2, 39851, Note_on_c, 0, 65, 0
2, 39857, Note_on_c, 0, 53, 59
2, 39907, Note_on_c, 0, 53, 0
2, 39927, Note_on_c, 0, 53, 60
2, 39936, Note_on_c, 0, 53, 0
2, 40078, Note_on_c, 0, 65, 60
2, 40079, Note_on_c, 0, 54, 45
2, 40080, Note_on_c, 0, 60, 55
2, 40121, Note_on_c, 0, 60, 0
2, 40126, Note_on_c, 0, 65, 0
2, 40145, Note_on_c, 0, 54, 0
2, 40321, Note_on_c, 0, 62, 52
2, 40325, Note_on_c, 0, 58, 45
2, 40326, Note_on_c, 0, 57, 38
2, 40361, Note_on_c, 0, 62, 0
2, 40364, Note_on_c, 0, 57, 0
2, 40364, Note_on_c, 0, 58, 0
2, 40435, Note_on_c, 0, 74, 89
2, 40465, Note_on_c, 0, 74, 0
2, 40522, Note_on_c, 0, 77, 71
2, 40524, Note_on_c, 0, 69, 71
2, 40525, Note_on_c, 0, 58, 64
2, 40526, Note_on_c, 0, 64, 57
2, 40533, Note_on_c, 0, 69, 0
2, 40538, Note_on_c, 0, 64, 0
2, 40541, Note_on_c, 0, 77, 0
2, 40549, Note_on_c, 0, 58, 0
2, 40601, Note_on_c, 0, 86, 88
2, 40601, Note_on_c, 0, 74, 80
2, 40602, Note_on_c, 0, 80, 62
2, 40606, Note_on_c, 0, 84, 50
2, 40610, Note_on_c, 0, 80, 0
2, 40616, Note_on_c, 0, 84, 0
2, 40642, Note_on_c, 0, 86, 0
2, 40647, Note_on_c, 0, 74, 0
2, 40661, Note_on_c, 0, 58, 43
2, 40676, Note_on_c, 0, 84, 77
2, 40677, Note_on_c, 0, 72, 77
2, 40684, Note_on_c, 0, 58, 0
2, 40740, Note_on_c, 0, 84, 0
2, 40747, Note_on_c, 0, 72, 0
2, 40753, Note_on_c, 0, 63, 68
2, 40755, Note_on_c, 0, 67, 68
2, 40756, Note_on_c, 0, 57, 66
2, 40763, Note_on_c, 0, 67, 0
2, 40764, Note_on_c, 0, 57, 0
2, 40779, Note_on_c, 0, 63, 0
2, 40876, Note_on_c, 0, 62, 59
2, 40885, Note_on_c, 0, 62, 0
2, 40911, Note_on_c, 0, 67, 49
2, 40915, Note_on_c, 0, 68, 46
2, 40929, Note_on_c, 0, 68, 0
2, 40931, Note_on_c, 0, 67, 0
2, 40933, Note_on_c, 0, 69, 56
2, 40965, Note_on_c, 0, 69, 0
2, 41001, Note_on_c, 0, 72, 87
2, 41012, Note_on_c, 0, 60, 44
2, 41024, Note_on_c, 0, 60, 0
2, 41027, Note_on_c, 0, 72, 0
2, 41074, Note_on_c, 0, 74, 115
2, 41116, Note_on_c, 0, 74, 0
2, 41131, Note_on_c, 0, 62, 50
2, 41133, Note_on_c, 0, 60, 47
2, 41135, Note_on_c, 0, 54, 31
2, 41140, Note_on_c, 0, 62, 0
2, 41143, Note_on_c, 0, 60, 0
2, 41147, Note_on_c, 0, 54, 0
2, 41160, Note_on_c, 0, 72, 95
2, 41205, Note_on_c, 0, 72, 0
2, 41245, Note_on_c, 0, 68, 79
2, 41247, Note_on_c, 0, 74, 68
2, 41248, Note_on_c, 0, 62, 59
2, 41251, Note_on_c, 0, 58, 40
2, 41257, Note_on_c, 0, 62, 0
2, 41271, Note_on_c, 0, 58, 0
2, 41320, Note_on_c, 0, 74, 0
2, 41347, Note_on_c, 0, 68, 0
2, 41348, Note_on_c, 0, 62, 68
2, 41369, Note_on_c, 0, 62, 0
2, 41386, Note_on_c, 0, 65, 79
2, 41388, Note_on_c, 0, 58, 36
2, 41407, Note_on_c, 0, 58, 0
2, 41432, Note_on_c, 0, 65, 0
2, 41496, Note_on_c, 0, 58, 69
2, 41498, Note_on_c, 0, 60, 70
2, 41506, Note_on_c, 0, 60, 0
2, 41518, Note_on_c, 0, 58, 0
2, 41534, Note_on_c, 0, 65, 92
2, 41580, Note_on_c, 0, 65, 0
2, 41602, Note_on_c, 0, 67, 55
2, 41609, Note_on_c, 0, 65, 52
2, 41626, Note_on_c, 0, 67, 0
2, 41640, Note_on_c, 0, 65, 0
2, 41644, Note_on_c, 0, 62, 57
2, 41706, Note_on_c, 0, 62, 0
2, 41725, Note_on_c, 0, 48, 62
2, 41731, Note_on_c, 0, 60, 71
2, 41735, Note_on_c, 0, 48, 0
2, 41758, Note_on_c, 0, 60, 0
2, 41792, Note_on_c, 0, 65, 54
2, 41851, Note_on_c, 0, 65, 0
2, 41853, Note_on_c, 0, 48, 49
2, 41863, Note_on_c, 0, 48, 0
2, 41890, Note_on_c, 0, 65, 61
2, 41891, Note_on_c, 0, 56, 69
2, 41923, Note_on_c, 0, 56, 0
2, 41930, Note_on_c, 0, 57, 30
2, 41940, Note_on_c, 0, 57, 0
2, 41946, Note_on_c, 0, 65, 0
2, 41970, Note_on_c, 0, 48, 50
2, 41980, Note_on_c, 0, 48, 0
2, 42019, Note_on_c, 0, 57, 73
2, 42065, Note_on_c, 0, 57, 0
2, 42085, Note_on_c, 0, 58, 75
2, 42086, Note_on_c, 0, 65, 62
2, 42110, Note_on_c, 0, 65, 0
2, 42116, Note_on_c, 0, 58, 0
2, 42129, Note_on_c, 0, 59, 61
2, 42132, Note_on_c, 0, 65, 54
2, 42174, Note_on_c, 0, 59, 0
2, 42177, Note_on_c, 0, 65, 0
2, 42198, Note_on_c, 0, 65, 58
2, 42199, Note_on_c, 0, 60, 64
2, 42222, Note_on_c, 0, 60, 0
2, 42230, Note_on_c, 0, 65, 0
2, 42330, Note_on_c, 0, 62, 74
2, 42349, Note_on_c, 0, 62, 0
2, 42366, Note_on_c, 0, 65, 74
2, 42401, Note_on_c, 0, 65, 0
2, 42410, Note_on_c, 0, 62, 47
2, 42430, Note_on_c, 0, 62, 0
2, 42443, Note_on_c, 0, 64, 61
2, 42476, Note_on_c, 0, 64, 0
2, 42480, Note_on_c, 0, 65, 47
2, 42513, Note_on_c, 0, 65, 0
2, 42524, Note_on_c, 0, 66, 44
2, 42552, Note_on_c, 0, 66, 0
2, 42567, Note_on_c, 0, 67, 61
2, 42568, Note_on_c, 0, 59, 58
2, 42569, Note_on_c, 0, 64, 57
2, 42580, Note_on_c, 0, 53, 24
2, 42582, Note_on_c, 0, 64, 0
2, 42588, Note_on_c, 0, 67, 0
2, 42595, Note_on_c, 0, 59, 0
2, 42601, Note_on_c, 0, 53, 0
2, 42610, Note_on_c, 0, 70, 29
2, 42638, Note_on_c, 0, 70, 0
2, 42647, Note_on_c, 0, 71, 53
2, 42672, Note_on_c, 0, 71, 0
2, 42688, Note_on_c, 0, 74, 92
2, 42694, Note_on_c, 0, 62, 62
2, 42697, Note_on_c, 0, 59, 50
2, 42698, Note_on_c, 0, 55, 53
2, 42704, Note_on_c, 0, 62, 0
2, 42718, Note_on_c, 0, 59, 0
2, 42726, Note_on_c, 0, 55, 0
2, 42730, Note_on_c, 0, 74, 0
2, 42736, Note_on_c, 0, 71, 43
2, 42822, Note_on_c, 0, 71, 0
2, 42847, Note_on_c, 0, 67, 64
2, 42923, Note_on_c, 0, 67, 0
2, 42939, Note_on_c, 0, 64, 34
2, 42959, Note_on_c, 0, 64, 0
2, 42972, Note_on_c, 0, 67, 45
2, 43028, Note_on_c, 0, 67, 0
2, 43053, Note_on_c, 0, 61, 57
2, 43054, Note_on_c, 0, 65, 62
2, 43057, Note_on_c, 0, 58, 45
2, 43063, Note_on_c, 0, 65, 0
2, 43076, Note_on_c, 0, 61, 0
2, 43085, Note_on_c, 0, 58, 0
2, 43288, Note_on_c, 0, 53, 41
2, 43293, Note_on_c, 0, 57, 26
2, 43305, Note_on_c, 0, 57, 0
2, 43314, Note_on_c, 0, 74, 35
2, 43321, Note_on_c, 0, 53, 0
2, 43327, Note_on_c, 0, 74, 0
2, 43328, Note_on_c, 0, 75, 56
2, 43348, Note_on_c, 0, 75, 0
2, 43352, Note_on_c, 0, 76, 51
2, 43375, Note_on_c, 0, 76, 0
2, 43394, Note_on_c, 0, 79, 79
2, 43419, Note_on_c, 0, 79, 0
2, 43434, Note_on_c, 0, 81, 71
2, 43436, Note_on_c, 0, 79, 56
2, 43444, Note_on_c, 0, 79, 0
2, 43457, Note_on_c, 0, 81, 0
2, 43495, Note_on_c, 0, 81, 73
2, 43514, Note_on_c, 0, 81, 0
2, 43514, Note_on_c, 0, 82, 60
2, 43530, Note_on_c, 0, 59, 38
2, 43541, Note_on_c, 0, 81, 50
2, 43545, Note_on_c, 0, 82, 0
2, 43552, Note_on_c, 0, 59, 0
2, 43562, Note_on_c, 0, 81, 0
2, 43563, Note_on_c, 0, 79, 43
2, 43574, Note_on_c, 0, 79, 0
2, 43587, Note_on_c, 0, 81, 76
2, 43619, Note_on_c, 0, 81, 0
2, 43635, Note_on_c, 0, 80, 73
2, 43654, Note_on_c, 0, 62, 44
2, 43658, Note_on_c, 0, 80, 0
2, 43658, Note_on_c, 0, 59, 39
2, 43661, Note_on_c, 0, 55, 47
2, 43664, Note_on_c, 0, 62, 0
2, 43679, Note_on_c, 0, 79, 55
2, 43682, Note_on_c, 0, 59, 0
2, 43689, Note_on_c, 0, 55, 0
2, 43700, Note_on_c, 0, 79, 0
2, 43708, Note_on_c, 0, 72, 51
2, 43771, Note_on_c, 0, 72, 0
2, 43809, Note_on_c, 0, 72, 63
2, 43865, Note_on_c, 0, 72, 0
2, 43894, Note_on_c, 0, 61, 64
2, 43896, Note_on_c, 0, 65, 68
2, 43896, Note_on_c, 0, 58, 56
2, 43901, Note_on_c, 0, 55, 48
2, 43912, Note_on_c, 0, 55, 0
2, 43919, Note_on_c, 0, 65, 0
2, 43934, Note_on_c, 0, 58, 0
2, 43936, Note_on_c, 0, 61, 0
2, 44014, Note_on_c, 0, 58, 42
2, 44032, Note_on_c, 0, 58, 0
2, 44043, Note_on_c, 0, 75, 81
2, 44045, Note_on_c, 0, 79, 72
2, 44100, Note_on_c, 0, 79, 0
2, 44105, Note_on_c, 0, 75, 0
2, 44125, Note_on_c, 0, 76, 84
2, 44125, Note_on_c, 0, 79, 60
2, 44130, Note_on_c, 0, 64, 53
2, 44134, Note_on_c, 0, 60, 48
2, 44135, Note_on_c, 0, 57, 47
2, 44139, Note_on_c, 0, 64, 0
2, 44145, Note_on_c, 0, 60, 0
2, 44153, Note_on_c, 0, 79, 0
2, 44158, Note_on_c, 0, 76, 0
2, 44158, Note_on_c, 0, 57, 0
2, 44177, Note_on_c, 0, 72, 31
2, 44239, Note_on_c, 0, 72, 0
2, 44247, Note_on_c, 0, 67, 66
2, 44267, Note_on_c, 0, 67, 0
2, 44267, Note_on_c, 0, 59, 39
2, 44280, Note_on_c, 0, 59, 0
2, 44283, Note_on_c, 0, 72, 28
2, 44286, Note_on_c, 0, 65, 44
2, 44311, Note_on_c, 0, 72, 0
2, 44358, Note_on_c, 0, 65, 0
2, 44367, Note_on_c, 0, 60, 44
2, 44388, Note_on_c, 0, 60, 0
2, 44398, Note_on_c, 0, 63, 57
2, 44401, Note_on_c, 0, 67, 59
2, 44460, Note_on_c, 0, 64, 46
2, 44461, Note_on_c, 0, 63, 0
2, 44479, Note_on_c, 0, 64, 0
2, 44479, Note_on_c, 0, 67, 0
2, 44514, Note_on_c, 0, 63, 61
2, 44517, Note_on_c, 0, 67, 51
2, 44573, Note_on_c, 0, 64, 27
2, 44596, Note_on_c, 0, 63, 0
2, 44597, Note_on_c, 0, 67, 0
2, 44603, Note_on_c, 0, 64, 0
2, 44608, Note_on_c, 0, 58, 48
2, 44616, Note_on_c, 0, 58, 0
2, 44637, Note_on_c, 0, 60, 58
2, 44640, Note_on_c, 0, 67, 36
2, 44692, Note_on_c, 0, 60, 0
2, 44702, Note_on_c, 0, 67, 0
2, 44880, Note_on_c, 0, 79, 70
2, 44881, Note_on_c, 0, 67, 76
2, 44882, Note_on_c, 0, 61, 55
2, 44883, Note_on_c, 0, 55, 64
2, 44884, Note_on_c, 0, 58, 46
2, 44884, Note_on_c, 0, 65, 57
2, 44892, Note_on_c, 0, 55, 0
2, 44894, Note_on_c, 0, 65, 0
2, 44904, Note_on_c, 0, 79, 0
2, 44905, Note_on_c, 0, 67, 0
2, 44909, Note_on_c, 0, 61, 0
2, 44911, Note_on_c, 0, 58, 0
2, 44970, Note_on_c, 0, 61, 59
2, 44972, Note_on_c, 0, 58, 42
2, 44975, Note_on_c, 0, 69, 42
2, 44978, Note_on_c, 0, 81, 25
2, 44979, Note_on_c, 0, 61, 0
2, 44982, Note_on_c, 0, 58, 0
2, 44986, Note_on_c, 0, 69, 0
2, 44987, Note_on_c, 0, 81, 0
2, 45001, Note_on_c, 0, 61, 79
2, 45001, Note_on_c, 0, 55, 91
2, 45002, Note_on_c, 0, 58, 70
2, 45003, Note_on_c, 0, 65, 83
2, 45003, Note_on_c, 0, 72, 90
2, 45005, Note_on_c, 0, 84, 90
2, 45070, Note_on_c, 0, 72, 0
2, 45076, Note_on_c, 0, 84, 0
2, 45081, Note_on_c, 0, 55, 0
2, 45088, Note_on_c, 0, 65, 0
2, 45104, Note_on_c, 0, 58, 0
2, 45107, Note_on_c, 0, 61, 0
2, 45124, Note_on_c, 0, 60, 69
2, 45125, Note_on_c, 0, 64, 72
2, 45126, Note_on_c, 0, 53, 66
2, 45126, Note_on_c, 0, 80, 64
2, 45127, Note_on_c, 0, 75, 77
2, 45127, Note_on_c, 0, 57, 63
2, 45127, Note_on_c, 0, 87, 76
2, 45176, Note_on_c, 0, 80, 0
2, 45181, Note_on_c, 0, 87, 0
2, 45184, Note_on_c, 0, 75, 0
2, 45188, Note_on_c, 0, 64, 0
2, 45191, Note_on_c, 0, 53, 0
2, 45196, Note_on_c, 0, 60, 0
2, 45197, Note_on_c, 0, 57, 0
2, 45335, Note_on_c, 0, 69, 66
2, 45336, Note_on_c, 0, 81, 43
2, 45337, Note_on_c, 0, 53, 57
2, 45341, Note_on_c, 0, 59, 39
2, 45341, Note_on_c, 0, 64, 34
2, 45343, Note_on_c, 0, 69, 0
2, 45346, Note_on_c, 0, 53, 0
2, 45347, Note_on_c, 0, 81, 0
2, 45351, Note_on_c, 0, 59, 0
2, 45352, Note_on_c, 0, 64, 0
2, 45371, Note_on_c, 0, 59, 73
2, 45371, Note_on_c, 0, 53, 74
2, 45373, Note_on_c, 0, 64, 64
2, 45377, Note_on_c, 0, 72, 76
2, 45377, Note_on_c, 0, 84, 81
2, 45419, Note_on_c, 0, 84, 0
2, 45420, Note_on_c, 0, 72, 0
2, 45434, Note_on_c, 0, 64, 0
2, 45434, Note_on_c, 0, 53, 0
2, 45441, Note_on_c, 0, 59, 0
2, 45456, Note_on_c, 0, 75, 83
2, 45457, Note_on_c, 0, 80, 71
2, 45457, Note_on_c, 0, 87, 83
2, 45458, Note_on_c, 0, 53, 79
2, 45459, Note_on_c, 0, 59, 82
2, 45459, Note_on_c, 0, 82, 59
2, 45459, Note_on_c, 0, 64, 89
2, 45461, Note_on_c, 0, 85, 55
2, 45467, Note_on_c, 0, 82, 0
2, 45495, Note_on_c, 0, 81, 6
2, 45519, Note_on_c, 0, 87, 0
2, 45540, Note_on_c, 0, 75, 0
2, 45543, Note_on_c, 0, 59, 0
2, 45547, Note_on_c, 0, 81, 0
2, 45553, Note_on_c, 0, 85, 0
2, 45557, Note_on_c, 0, 80, 0
2, 45574, Note_on_c, 0, 64, 0
2, 45584, Note_on_c, 0, 53, 0
2, 45584, Note_on_c, 0, 59, 32
2, 45594, Note_on_c, 0, 59, 0
2, 45613, Note_on_c, 0, 67, 56
2, 45613, Note_on_c, 0, 59, 26
2, 45620, Note_on_c, 0, 62, 32
2, 45621, Note_on_c, 0, 52, 36
2, 45621, Note_on_c, 0, 79, 27
2, 45625, Note_on_c, 0, 77, 18
2, 45641, Note_on_c, 0, 77, 0
2, 45641, Note_on_c, 0, 62, 0
2, 45644, Note_on_c, 0, 67, 0
2, 45645, Note_on_c, 0, 59, 0
2, 45650, Note_on_c, 0, 52, 0
2, 45654, Note_on_c, 0, 79, 0
2, 45693, Note_on_c, 0, 59, 55
2, 45694, Note_on_c, 0, 81, 47
2, 45696, Note_on_c, 0, 55, 50
2, 45698, Note_on_c, 0, 69, 28
2, 45702, Note_on_c, 0, 59, 0
2, 45705, Note_on_c, 0, 81, 0
2, 45705, Note_on_c, 0, 55, 0
2, 45706, Note_on_c, 0, 69, 0
2, 45721, Note_on_c, 0, 59, 74
2, 45723, Note_on_c, 0, 55, 67
2, 45723, Note_on_c, 0, 52, 78
2, 45725, Note_on_c, 0, 72, 78
2, 45727, Note_on_c, 0, 84, 91
2, 45733, Note_on_c, 0, 80, 35
2, 45741, Note_on_c, 0, 80, 0
2, 45799, Note_on_c, 0, 52, 0
2, 45801, Note_on_c, 0, 72, 0
2, 45806, Note_on_c, 0, 84, 0
2, 45807, Note_on_c, 0, 55, 0
2, 45810, Note_on_c, 0, 59, 0
2, 45810, Note_on_c, 0, 82, 21
2, 45821, Note_on_c, 0, 82, 0
2, 45842, Note_on_c, 0, 55, 84
2, 45843, Note_on_c, 0, 61, 77
2, 45844, Note_on_c, 0, 58, 74
2, 45844, Note_on_c, 0, 75, 84
2, 45845, Note_on_c, 0, 65, 80
2, 45846, Note_on_c, 0, 87, 77
2, 45846, Note_on_c, 0, 82, 49
2, 45850, Note_on_c, 0, 85, 44
2, 45852, Note_on_c, 0, 59, 69
2, 45854, Note_on_c, 0, 81, 38
2, 45855, Note_on_c, 0, 82, 0
2, 45881, Note_on_c, 0, 59, 0
2, 45897, Note_on_c, 0, 75, 0
2, 45903, Note_on_c, 0, 85, 0
2, 45903, Note_on_c, 0, 76, 35
2, 45907, Note_on_c, 0, 87, 0
2, 45908, Note_on_c, 0, 83, 1
2, 45918, Note_on_c, 0, 76, 0
2, 45923, Note_on_c, 0, 83, 0
2, 45926, Note_on_c, 0, 81, 0
2, 45927, Note_on_c, 0, 55, 0
2, 45929, Note_on_c, 0, 65, 0
2, 45930, Note_on_c, 0, 61, 0
2, 45931, Note_on_c, 0, 58, 0
2, 45967, Note_on_c, 0, 65, 38
2, 45968, Note_on_c, 0, 61, 38
2, 45970, Note_on_c, 0, 58, 35
2, 45971, Note_on_c, 0, 55, 32
2, 46023, Note_on_c, 0, 55, 0
2, 46025, Note_on_c, 0, 65, 0
2, 46045, Note_on_c, 0, 58, 0
2, 46049, Note_on_c, 0, 61, 0
2, 46076, Note_on_c, 0, 84, 68
2, 46078, Note_on_c, 0, 72, 48
2, 46079, Note_on_c, 0, 60, 49
2, 46082, Note_on_c, 0, 79, 36
2, 46083, Note_on_c, 0, 64, 45
2, 46087, Note_on_c, 0, 57, 40
2, 46087, Note_on_c, 0, 53, 27
2, 46121, Note_on_c, 0, 72, 0
2, 46129, Note_on_c, 0, 79, 0
2, 46133, Note_on_c, 0, 64, 0
2, 46134, Note_on_c, 0, 60, 0
2, 46141, Note_on_c, 0, 84, 0
2, 46142, Note_on_c, 0, 57, 0
2, 46148, Note_on_c, 0, 53, 0
2, 46317, Note_on_c, 0, 64, 74
2, 46318, Note_on_c, 0, 79, 80
2, 46318, Note_on_c, 0, 91, 80
2, 46319, Note_on_c, 0, 53, 66
2, 46319, Note_on_c, 0, 86, 85
2, 46321, Note_on_c, 0, 59, 44
2, 46322, Note_on_c, 0, 57, 48
2, 46331, Note_on_c, 0, 57, 0
2, 46338, Note_on_c, 0, 64, 0
2, 46338, Note_on_c, 0, 79, 0
2, 46341, Note_on_c, 0, 59, 0
2, 46342, Note_on_c, 0, 86, 0
2, 46343, Note_on_c, 0, 53, 0
2, 46350, Note_on_c, 0, 91, 0
2, 46405, Note_on_c, 0, 88, 57
2, 46407, Note_on_c, 0, 81, 35
2, 46408, Note_on_c, 0, 93, 39
2, 46411, Note_on_c, 0, 59, 34
2, 46413, Note_on_c, 0, 88, 0
2, 46417, Note_on_c, 0, 93, 0
2, 46419, Note_on_c, 0, 81, 0
2, 46421, Note_on_c, 0, 59, 0
2, 46434, Note_on_c, 0, 53, 74
2, 46435, Note_on_c, 0, 91, 85
2, 46436, Note_on_c, 0, 64, 78
2, 46436, Note_on_c, 0, 84, 89
2, 46436, Note_on_c, 0, 96, 87
2, 46437, Note_on_c, 0, 57, 67
2, 46437, Note_on_c, 0, 59, 85
2, 46491, Note_on_c, 0, 64, 0
2, 46492, Note_on_c, 0, 57, 0
2, 46497, Note_on_c, 0, 96, 0
2, 46498, Note_on_c, 0, 84, 0
2, 46498, Note_on_c, 0, 53, 0
2, 46503, Note_on_c, 0, 91, 0
2, 46505, Note_on_c, 0, 59, 0
2, 46529, Note_on_c, 0, 59, 69
2, 46530, Note_on_c, 0, 62, 80
2, 46530, Note_on_c, 0, 52, 74
2, 46532, Note_on_c, 0, 55, 67
2, 46532, Note_on_c, 0, 91, 79
2, 46533, Note_on_c, 0, 96, 77
2, 46535, Note_on_c, 0, 84, 67
2, 46537, Note_on_c, 0, 86, 70
2, 46543, Note_on_c, 0, 84, 0
2, 46546, Note_on_c, 0, 86, 0
2, 46550, Note_on_c, 0, 91, 0
2, 46552, Note_on_c, 0, 96, 0
2, 46553, Note_on_c, 0, 62, 0
2, 46563, Note_on_c, 0, 52, 0
2, 46569, Note_on_c, 0, 55, 0
2, 46574, Note_on_c, 0, 59, 0
2, 46693, Note_on_c, 0, 78, 83
2, 46694, Note_on_c, 0, 84, 78
2, 46718, Note_on_c, 0, 78, 0
2, 46719, Note_on_c, 0, 84, 0
2, 46728, Note_on_c, 0, 84, 28
2, 46729, Note_on_c, 0, 79, 60
2, 46747, Note_on_c, 0, 84, 0
2, 46749, Note_on_c, 0, 79, 0
2, 46767, Note_on_c, 0, 79, 61
2, 46770, Note_on_c, 0, 84, 68
2, 46784, Note_on_c, 0, 79, 0
2, 46785, Note_on_c, 0, 84, 0
2, 46804, Note_on_c, 0, 78, 50
2, 46807, Note_on_c, 0, 84, 34
2, 46823, Note_on_c, 0, 78, 0
2, 46826, Note_on_c, 0, 84, 0
2, 46842, Note_on_c, 0, 79, 45
2, 46847, Note_on_c, 0, 84, 34
2, 46854, Note_on_c, 0, 84, 0
2, 46859, Note_on_c, 0, 79, 0
2, 46880, Note_on_c, 0, 79, 70
2, 46881, Note_on_c, 0, 84, 66
2, 46884, Note_on_c, 0, 67, 57
2, 46886, Note_on_c, 0, 56, 38
2, 46886, Note_on_c, 0, 62, 55
2, 46896, Note_on_c, 0, 67, 0
2, 46896, Note_on_c, 0, 79, 0
2, 46896, Note_on_c, 0, 84, 0
2, 46899, Note_on_c, 0, 62, 0
2, 46912, Note_on_c, 0, 56, 0
2, 46918, Note_on_c, 0, 78, 46
2, 46937, Note_on_c, 0, 78, 0
2, 46958, Note_on_c, 0, 79, 49
2, 46977, Note_on_c, 0, 79, 0
2, 46992, Note_on_c, 0, 79, 59
2, 46992, Note_on_c, 0, 84, 71
2, 47009, Note_on_c, 0, 79, 0
2, 47011, Note_on_c, 0, 84, 0
2, 47028, Note_on_c, 0, 54, 38
2, 47029, Note_on_c, 0, 77, 71
2, 47029, Note_on_c, 0, 64, 40
2, 47031, Note_on_c, 0, 84, 60
2, 47034, Note_on_c, 0, 60, 25
2, 47037, Note_on_c, 0, 64, 0
2, 47041, Note_on_c, 0, 60, 0
2, 47045, Note_on_c, 0, 54, 0
2, 47083, Note_on_c, 0, 77, 0
2, 47091, Note_on_c, 0, 81, 40
2, 47101, Note_on_c, 0, 77, 47
2, 47108, Note_on_c, 0, 84, 0
2, 47113, Note_on_c, 0, 81, 0
2, 47123, Note_on_c, 0, 77, 0
2, 47124, Note_on_c, 0, 72, 30
2, 47132, Note_on_c, 0, 72, 0
2, 47155, Note_on_c, 0, 79, 66
2, 47160, Note_on_c, 0, 60, 32
2, 47162, Note_on_c, 0, 78, 34
2, 47162, Note_on_c, 0, 64, 33
2, 47164, Note_on_c, 0, 76, 40
2, 47179, Note_on_c, 0, 60, 0
2, 47180, Note_on_c, 0, 64, 0
2, 47186, Note_on_c, 0, 76, 0
2, 47199, Note_on_c, 0, 78, 0
2, 47202, Note_on_c, 0, 79, 0
2, 47270, Note_on_c, 0, 64, 50
2, 47270, Note_on_c, 0, 79, 65
2, 47270, Note_on_c, 0, 74, 68
2, 47271, Note_on_c, 0, 72, 60
2, 47272, Note_on_c, 0, 53, 35
2, 47273, Note_on_c, 0, 59, 36
2, 47286, Note_on_c, 0, 74, 0
2, 47288, Note_on_c, 0, 64, 0
2, 47289, Note_on_c, 0, 53, 0
2, 47290, Note_on_c, 0, 59, 0
2, 47310, Note_on_c, 0, 79, 0
2, 47322, Note_on_c, 0, 72, 0
2, 47349, Note_on_c, 0, 67, 60
2, 47370, Note_on_c, 0, 67, 0
2, 47387, Note_on_c, 0, 72, 48
2, 47391, Note_on_c, 0, 67, 39
2, 47392, Note_on_c, 0, 65, 26
2, 47402, Note_on_c, 0, 67, 0
2, 47436, Note_on_c, 0, 72, 0
2, 47452, Note_on_c, 0, 65, 0
2, 47468, Note_on_c, 0, 63, 59
2, 47474, Note_on_c, 0, 72, 22
2, 47478, Note_on_c, 0, 62, 34
2, 47485, Note_on_c, 0, 62, 0
2, 47487, Note_on_c, 0, 72, 0
2, 47497, Note_on_c, 0, 63, 0
2, 47519, Note_on_c, 0, 64, 28
2, 47551, Note_on_c, 0, 64, 0
2, 47628, Note_on_c, 0, 67, 88
2, 47682, Note_on_c, 0, 67, 0
2, 47750, Note_on_c, 0, 67, 50
2, 47751, Note_on_c, 0, 68, 55
2, 47753, Note_on_c, 0, 61, 39
2, 47754, Note_on_c, 0, 65, 53
2, 47757, Note_on_c, 0, 58, 37
2, 47759, Note_on_c, 0, 67, 0
2, 47759, Note_on_c, 0, 55, 38
2, 47770, Note_on_c, 0, 68, 0
2, 47775, Note_on_c, 0, 69, 43
2, 47817, Note_on_c, 0, 55, 0
2, 47820, Note_on_c, 0, 69, 0
2, 47824, Note_on_c, 0, 65, 0
2, 47833, Note_on_c, 0, 58, 0
2, 47837, Note_on_c, 0, 61, 0
2, 47842, Note_on_c, 0, 72, 54
2, 47859, Note_on_c, 0, 72, 0
2, 47867, Note_on_c, 0, 61, 46
2, 47867, Note_on_c, 0, 55, 64
2, 47869, Note_on_c, 0, 65, 55
2, 47869, Note_on_c, 0, 74, 79
2, 47870, Note_on_c, 0, 58, 52
2, 47924, Note_on_c, 0, 55, 0
2, 47933, Note_on_c, 0, 65, 0
2, 47946, Note_on_c, 0, 61, 0
2, 47947, Note_on_c, 0, 74, 0
2, 47958, Note_on_c, 0, 72, 67
2, 47960, Note_on_c, 0, 54, 50
2, 47961, Note_on_c, 0, 64, 55
2, 47962, Note_on_c, 0, 60, 57
2, 47973, Note_on_c, 0, 58, 0
2, 48146, Note_on_c, 0, 54, 0
2, 48171, Note_on_c, 0, 72, 0
2, 48187, Note_on_c, 0, 54, 38
2, 48192, Note_on_c, 0, 60, 0
2, 48201, Note_on_c, 0, 64, 0
2, 48216, Note_on_c, 0, 54, 0
2, 48232, Note_on_c, 0, 75, 74
2, 48234, Note_on_c, 0, 64, 40
2, 48235, Note_on_c, 0, 59, 50
2, 48236, Note_on_c, 0, 53, 32
2, 48252, Note_on_c, 0, 75, 0
2, 48267, Note_on_c, 0, 76, 68
2, 48288, Note_on_c, 0, 76, 0
2, 48299, Note_on_c, 0, 77, 49
2, 48310, Note_on_c, 0, 53, 0
2, 48313, Note_on_c, 0, 64, 0
2, 48316, Note_on_c, 0, 77, 0
2, 48318, Note_on_c, 0, 59, 0
2, 48326, Note_on_c, 0, 78, 64
2, 48346, Note_on_c, 0, 78, 0
2, 48358, Note_on_c, 0, 59, 51
2, 48359, Note_on_c, 0, 64, 35
2, 48359, Note_on_c, 0, 79, 64
2, 48361, Note_on_c, 0, 53, 34
2, 48377, Note_on_c, 0, 79, 0
2, 48378, Note_on_c, 0, 64, 0
2, 48400, Note_on_c, 0, 75, 73
2, 48411, Note_on_c, 0, 59, 0
2, 48435, Note_on_c, 0, 53, 0
2, 48459, Note_on_c, 0, 75, 0
2, 48471, Note_on_c, 0, 62, 42
2, 48473, Note_on_c, 0, 67, 46
2, 48476, Note_on_c, 0, 58, 31
2, 48476, Note_on_c, 0, 52, 24
2, 48489, Note_on_c, 0, 52, 0
2, 48492, Note_on_c, 0, 62, 0
2, 48498, Note_on_c, 0, 58, 0
2, 48525, Note_on_c, 0, 67, 0
2, 48546, Note_on_c, 0, 67, 41
2, 48559, Note_on_c, 0, 67, 0
2, 48581, Note_on_c, 0, 72, 56
2, 48680, Note_on_c, 0, 72, 0
2, 48701, Note_on_c, 0, 69, 40
2, 48705, Note_on_c, 0, 65, 31
2, 48705, Note_on_c, 0, 61, 25
2, 48706, Note_on_c, 0, 55, 30
2, 48751, Note_on_c, 0, 55, 0
2, 48753, Note_on_c, 0, 69, 0
2, 48761, Note_on_c, 0, 65, 0
2, 48779, Note_on_c, 0, 61, 0
2, 48952, Note_on_c, 0, 57, 49
2, 48953, Note_on_c, 0, 60, 39
2, 48953, Note_on_c, 0, 64, 31
2, 48955, Note_on_c, 0, 53, 14
2, 48968, Note_on_c, 0, 60, 0
2, 48970, Note_on_c, 0, 64, 0
2, 48973, Note_on_c, 0, 57, 0
2, 48974, Note_on_c, 0, 53, 0
2, 49071, Note_on_c, 0, 87, 87
2, 49072, Note_on_c, 0, 75, 91
2, 49103, Note_on_c, 0, 75, 0
2, 49103, Note_on_c, 0, 87, 0
2, 49158, Note_on_c, 0, 76, 72
2, 49158, Note_on_c, 0, 88, 74
2, 49160, Note_on_c, 0, 59, 56
2, 49161, Note_on_c, 0, 64, 50
2, 49169, Note_on_c, 0, 64, 0
2, 49169, Note_on_c, 0, 59, 0
2, 49170, Note_on_c, 0, 88, 0
2, 49171, Note_on_c, 0, 76, 0
2, 49219, Note_on_c, 0, 93, 91
2, 49220, Note_on_c, 0, 81, 83
2, 49221, Note_on_c, 0, 53, 72
2, 49222, Note_on_c, 0, 59, 65
2, 49222, Note_on_c, 0, 64, 65
2, 49285, Note_on_c, 0, 93, 0
2, 49286, Note_on_c, 0, 53, 0
2, 49289, Note_on_c, 0, 64, 0
2, 49292, Note_on_c, 0, 81, 0
2, 49296, Note_on_c, 0, 59, 0
2, 49313, Note_on_c, 0, 59, 55
2, 49314, Note_on_c, 0, 91, 68
2, 49314, Note_on_c, 0, 53, 58
2, 49315, Note_on_c, 0, 79, 57
2, 49316, Note_on_c, 0, 64, 43
2, 49325, Note_on_c, 0, 64, 0
2, 49333, Note_on_c, 0, 59, 0
2, 49341, Note_on_c, 0, 91, 0
2, 49341, Note_on_c, 0, 53, 0
2, 49344, Note_on_c, 0, 79, 0
2, 49440, Note_on_c, 0, 89, 74
2, 49441, Note_on_c, 0, 62, 52
2, 49441, Note_on_c, 0, 77, 69
2, 49444, Note_on_c, 0, 59, 44
2, 49445, Note_on_c, 0, 55, 42
2, 49454, Note_on_c, 0, 77, 0
2, 49455, Note_on_c, 0, 89, 0
2, 49457, Note_on_c, 0, 62, 0
2, 49458, Note_on_c, 0, 59, 0
2, 49459, Note_on_c, 0, 55, 0
2, 49526, Note_on_c, 0, 62, 49
2, 49526, Note_on_c, 0, 52, 46
2, 49527, Note_on_c, 0, 59, 41
2, 49528, Note_on_c, 0, 55, 54
2, 49528, Note_on_c, 0, 88, 76
2, 49529, Note_on_c, 0, 76, 69
2, 49538, Note_on_c, 0, 55, 0
2, 49539, Note_on_c, 0, 59, 0
2, 49542, Note_on_c, 0, 62, 0
2, 49543, Note_on_c, 0, 88, 0
2, 49546, Note_on_c, 0, 52, 0
2, 49548, Note_on_c, 0, 76, 0
2, 49566, Note_on_c, 0, 86, 64
2, 49568, Note_on_c, 0, 74, 50
2, 49569, Note_on_c, 0, 52, 35
2, 49569, Note_on_c, 0, 62, 33
2, 49570, Note_on_c, 0, 59, 36
2, 49572, Note_on_c, 0, 55, 44
2, 49642, Note_on_c, 0, 62, 0
2, 49643, Note_on_c, 0, 52, 0
2, 49645, Note_on_c, 0, 55, 0
2, 49647, Note_on_c, 0, 59, 0
2, 49649, Note_on_c, 0, 86, 0
2, 49654, Note_on_c, 0, 74, 0
2, 49677, Note_on_c, 0, 62, 42
2, 49678, Note_on_c, 0, 84, 59
2, 49680, Note_on_c, 0, 72, 41
2, 49681, Note_on_c, 0, 52, 33
2, 49681, Note_on_c, 0, 59, 37
2, 49682, Note_on_c, 0, 55, 51
2, 49697, Note_on_c, 0, 62, 0
2, 49699, Note_on_c, 0, 59, 0
2, 49703, Note_on_c, 0, 84, 0
2, 49706, Note_on_c, 0, 55, 0
2, 49707, Note_on_c, 0, 52, 0
2, 49708, Note_on_c, 0, 72, 0
2, 49792, Note_on_c, 0, 79, 51
2, 49793, Note_on_c, 0, 52, 32
2, 49793, Note_on_c, 0, 67, 49
2, 49794, Note_on_c, 0, 62, 28
2, 49796, Note_on_c, 0, 59, 36
2, 49796, Note_on_c, 0, 55, 44
2, 49828, Note_on_c, 0, 55, 0
2, 49833, Note_on_c, 0, 59, 0
2, 49834, Note_on_c, 0, 52, 0
2, 49839, Note_on_c, 0, 79, 0
2, 49847, Note_on_c, 0, 62, 0
2, 49862, Note_on_c, 0, 67, 0
2, 49917, Note_on_c, 0, 62, 49
2, 49921, Note_on_c, 0, 53, 32
2, 49922, Note_on_c, 0, 57, 39
2, 49922, Note_on_c, 0, 58, 43
2, 49969, Note_on_c, 0, 66, 35
2, 49975, Note_on_c, 0, 66, 0
2, 49989, Note_on_c, 0, 69, 83
2, 50002, Note_on_c, 0, 62, 0
2, 50005, Note_on_c, 0, 58, 0
2, 50007, Note_on_c, 0, 57, 0
2, 50014, Note_on_c, 0, 53, 0
2, 50019, Note_on_c, 0, 69, 0
2, 50023, Note_on_c, 0, 66, 58
2, 50033, Note_on_c, 0, 62, 32
2, 50038, Note_on_c, 0, 58, 32
2, 50040, Note_on_c, 0, 57, 17
2, 50043, Note_on_c, 0, 66, 0
2, 50043, Note_on_c, 0, 53, 13
2, 50055, Note_on_c, 0, 67, 33
2, 50078, Note_on_c, 0, 67, 0
2, 50084, Note_on_c, 0, 57, 0
2, 50086, Note_on_c, 0, 62, 0
2, 50089, Note_on_c, 0, 69, 71
2, 50090, Note_on_c, 0, 58, 0
2, 50102, Note_on_c, 0, 53, 0
2, 50110, Note_on_c, 0, 69, 0
2, 50118, Note_on_c, 0, 70, 67
2, 50136, Note_on_c, 0, 70, 0
2, 50146, Note_on_c, 0, 72, 60
2, 50150, Note_on_c, 0, 62, 34
2, 50150, Note_on_c, 0, 52, 41
2, 50152, Note_on_c, 0, 58, 34
2, 50174, Note_on_c, 0, 72, 0
2, 50177, Note_on_c, 0, 73, 43
2, 50182, Note_on_c, 0, 58, 0
2, 50192, Note_on_c, 0, 62, 0
2, 50201, Note_on_c, 0, 73, 0
2, 50211, Note_on_c, 0, 75, 53
2, 50217, Note_on_c, 0, 52, 0
2, 50228, Note_on_c, 0, 75, 0
2, 50234, Note_on_c, 0, 76, 61
2, 50262, Note_on_c, 0, 76, 0
2, 50263, Note_on_c, 0, 77, 61
2, 50264, Note_on_c, 0, 52, 32
2, 50267, Note_on_c, 0, 58, 33
2, 50268, Note_on_c, 0, 62, 15
2, 50281, Note_on_c, 0, 52, 0
2, 50290, Note_on_c, 0, 77, 0
2, 50296, Note_on_c, 0, 58, 0
2, 50296, Note_on_c, 0, 79, 57
2, 50303, Note_on_c, 0, 62, 0
2, 50310, Note_on_c, 0, 79, 0
2, 50323, Note_on_c, 0, 80, 54
2, 50346, Note_on_c, 0, 80, 0
2, 50356, Note_on_c, 0, 81, 49
2, 50375, Note_on_c, 0, 81, 0
2, 50382, Note_on_c, 0, 57, 42
2, 50383, Note_on_c, 0, 86, 82
2, 50386, Note_on_c, 0, 60, 31
2, 50387, Note_on_c, 0, 53, 25
2, 50398, Note_on_c, 0, 60, 0
2, 50408, Note_on_c, 0, 57, 0
2, 50409, Note_on_c, 0, 86, 0
2, 50415, Note_on_c, 0, 84, 62
2, 50417, Note_on_c, 0, 53, 0
2, 50435, Note_on_c, 0, 84, 0
2, 50445, Note_on_c, 0, 81, 73
2, 50474, Note_on_c, 0, 81, 0
2, 50474, Note_on_c, 0, 77, 60
2, 50506, Note_on_c, 0, 76, 46
2, 50507, Note_on_c, 0, 77, 0
2, 50527, Note_on_c, 0, 76, 0
2, 50540, Note_on_c, 0, 79, 68
2, 50574, Note_on_c, 0, 79, 0
2, 50575, Note_on_c, 0, 76, 54
2, 50585, Note_on_c, 0, 76, 0
2, 50598, Note_on_c, 0, 77, 81
2, 50629, Note_on_c, 0, 77, 0
2, 50635, Note_on_c, 0, 72, 51
2, 50658, Note_on_c, 0, 72, 0
2, 50672, Note_on_c, 0, 72, 55
2, 50700, Note_on_c, 0, 72, 0
2, 50721, Note_on_c, 0, 72, 48
2, 50733, Note_on_c, 0, 72, 0
2, 50759, Note_on_c, 0, 65, 50
2, 50761, Note_on_c, 0, 54, 38
2, 50763, Note_on_c, 0, 60, 47
2, 50806, Note_on_c, 0, 65, 0
2, 50808, Note_on_c, 0, 60, 0
2, 50827, Note_on_c, 0, 54, 0
2, 50879, Note_on_c, 0, 62, 49
2, 50880, Note_on_c, 0, 58, 40
2, 50884, Note_on_c, 0, 53, 34
2, 50885, Note_on_c, 0, 57, 48
2, 50945, Note_on_c, 0, 57, 0
2, 50945, Note_on_c, 0, 58, 0
2, 50952, Note_on_c, 0, 62, 0
2, 50974, Note_on_c, 0, 53, 0
2, 50996, Note_on_c, 0, 72, 95
2, 51076, Note_on_c, 0, 69, 48
2, 51077, Note_on_c, 0, 58, 52
2, 51079, Note_on_c, 0, 62, 49
2, 51080, Note_on_c, 0, 72, 0
2, 51082, Note_on_c, 0, 52, 34
2, 51086, Note_on_c, 0, 62, 0
2, 51100, Note_on_c, 0, 69, 0
2, 51101, Note_on_c, 0, 58, 0
2, 51116, Note_on_c, 0, 52, 0
2, 51120, Note_on_c, 0, 71, 81
2, 51153, Note_on_c, 0, 70, 58
2, 51162, Note_on_c, 0, 71, 0
2, 51178, Note_on_c, 0, 68, 42
2, 51179, Note_on_c, 0, 70, 0
2, 51199, Note_on_c, 0, 68, 0
2, 51206, Note_on_c, 0, 65, 49
2, 51219, Note_on_c, 0, 48, 35
2, 51223, Note_on_c, 0, 65, 0
2, 51238, Note_on_c, 0, 63, 59
2, 51243, Note_on_c, 0, 48, 0
2, 51302, Note_on_c, 0, 63, 0
2, 51311, Note_on_c, 0, 59, 66
2, 51316, Note_on_c, 0, 48, 25
2, 51322, Note_on_c, 0, 48, 0
2, 51348, Note_on_c, 0, 59, 0
2, 51438, Note_on_c, 0, 53, 25
2, 51444, Note_on_c, 0, 48, 28
2, 51446, Note_on_c, 0, 53, 0
2, 51452, Note_on_c, 0, 48, 0
2, 51472, Note_on_c, 0, 56, 48
2, 51575, Note_on_c, 0, 56, 0
2, 51591, Note_on_c, 0, 53, 37
2, 51655, Note_on_c, 0, 53, 0
2, 51676, Note_on_c, 0, 53, 37
2, 51685, Note_on_c, 0, 53, 0
2, 51710, Note_on_c, 0, 26, 51
2, 51719, Note_on_c, 0, 26, 0
2, 51832, Note_on_c, 0, 62, 45
2, 51834, Note_on_c, 0, 58, 36
2, 51838, Note_on_c, 0, 57, 33
2, 51847, Note_on_c, 0, 57, 0
2, 51848, Note_on_c, 0, 62, 0
2, 51855, Note_on_c, 0, 58, 0
2, 52028, Note_on_c, 0, 62, 62
2, 52028, Note_on_c, 0, 58, 47
2, 52034, Note_on_c, 0, 62, 0
2, 52037, Note_on_c, 0, 52, 22
2, 52040, Note_on_c, 0, 58, 0
2, 52043, Note_on_c, 0, 52, 0
2, 52081, Note_on_c, 0, 82, 56
2, 52082, Note_on_c, 0, 94, 60
2, 52094, Note_on_c, 0, 94, 0
2, 52094, Note_on_c, 0, 82, 0
2, 52097, Note_on_c, 0, 92, 18
2, 52102, Note_on_c, 0, 83, 44
2, 52107, Note_on_c, 0, 95, 22
2, 52114, Note_on_c, 0, 92, 0
2, 52118, Note_on_c, 0, 83, 0
2, 52120, Note_on_c, 0, 95, 0
2, 52154, Note_on_c, 0, 62, 78
2, 52154, Note_on_c, 0, 58, 64
2, 52156, Note_on_c, 0, 52, 66
2, 52156, Note_on_c, 0, 86, 89
2, 52157, Note_on_c, 0, 98, 82
2, 52162, Note_on_c, 0, 52, 0
2, 52164, Note_on_c, 0, 86, 0
2, 52164, Note_on_c, 0, 62, 0
2, 52169, Note_on_c, 0, 58, 0
2, 52169, Note_on_c, 0, 98, 0
2, 52204, Note_on_c, 0, 62, 66
2, 52208, Note_on_c, 0, 84, 71
2, 52209, Note_on_c, 0, 96, 70
2, 52211, Note_on_c, 0, 62, 0
2, 52215, Note_on_c, 0, 96, 0
2, 52215, Note_on_c, 0, 84, 0
2, 52270, Note_on_c, 0, 62, 71
2, 52272, Note_on_c, 0, 80, 64
2, 52272, Note_on_c, 0, 53, 51
2, 52273, Note_on_c, 0, 92, 80
2, 52274, Note_on_c, 0, 57, 44
2, 52275, Note_on_c, 0, 60, 50
2, 52282, Note_on_c, 0, 60, 0
2, 52284, Note_on_c, 0, 80, 0
2, 52288, Note_on_c, 0, 62, 0
2, 52290, Note_on_c, 0, 92, 0
2, 52293, Note_on_c, 0, 57, 0
2, 52294, Note_on_c, 0, 53, 0
2, 52319, Note_on_c, 0, 62, 50
2, 52320, Note_on_c, 0, 89, 53
2, 52322, Note_on_c, 0, 77, 40
2, 52323, Note_on_c, 0, 57, 39
2, 52328, Note_on_c, 0, 53, 15
2, 52337, Note_on_c, 0, 53, 0
2, 52338, Note_on_c, 0, 62, 0
2, 52340, Note_on_c, 0, 89, 0
2, 52341, Note_on_c, 0, 77, 0
2, 52341, Note_on_c, 0, 57, 0
2, 52514, Note_on_c, 0, 86, 69
2, 52517, Note_on_c, 0, 65, 40
2, 52520, Note_on_c, 0, 86, 0
2, 52520, Note_on_c, 0, 58, 25
2, 52522, Note_on_c, 0, 60, 26
2, 52525, Note_on_c, 0, 65, 0
2, 52528, Note_on_c, 0, 60, 0
2, 52528, Note_on_c, 0, 58, 0
2, 52549, Note_on_c, 0, 89, 74
2, 52549, Note_on_c, 0, 77, 71
2, 52550, Note_on_c, 0, 65, 65
2, 52551, Note_on_c, 0, 54, 37
2, 52552, Note_on_c, 0, 58, 33
2, 52555, Note_on_c, 0, 60, 46
2, 52557, Note_on_c, 0, 65, 0
2, 52559, Note_on_c, 0, 77, 0
2, 52562, Note_on_c, 0, 89, 0
2, 52562, Note_on_c, 0, 60, 0
2, 52567, Note_on_c, 0, 54, 0
2, 52568, Note_on_c, 0, 58, 0
2, 52670, Note_on_c, 0, 80, 69
2, 52670, Note_on_c, 0, 86, 81
2, 52670, Note_on_c, 0, 74, 74
2, 52671, Note_on_c, 0, 54, 49
2, 52672, Note_on_c, 0, 60, 54
2, 52672, Note_on_c, 0, 58, 47
2, 52673, Note_on_c, 0, 65, 48
2, 52699, Note_on_c, 0, 80, 0
2, 52704, Note_on_c, 0, 65, 0
2, 52708, Note_on_c, 0, 60, 0
2, 52708, Note_on_c, 0, 86, 0
2, 52716, Note_on_c, 0, 74, 0
2, 52727, Note_on_c, 0, 58, 0
2, 52731, Note_on_c, 0, 54, 0
2, 52793, Note_on_c, 0, 68, 60
2, 52794, Note_on_c, 0, 62, 48
2, 52794, Note_on_c, 0, 59, 50
2, 52794, Note_on_c, 0, 80, 61
2, 52796, Note_on_c, 0, 57, 48
2, 52797, Note_on_c, 0, 74, 50
2, 52797, Note_on_c, 0, 53, 32
2, 52805, Note_on_c, 0, 68, 0
2, 52817, Note_on_c, 0, 69, 20
2, 52836, Note_on_c, 0, 80, 0
2, 52837, Note_on_c, 0, 69, 0
2, 52850, Note_on_c, 0, 74, 0
2, 52854, Note_on_c, 0, 57, 0
2, 52858, Note_on_c, 0, 59, 0
2, 52861, Note_on_c, 0, 62, 0
2, 52867, Note_on_c, 0, 53, 0
2, 52916, Note_on_c, 0, 77, 51
2, 52916, Note_on_c, 0, 53, 32
2, 52917, Note_on_c, 0, 62, 31
2, 52919, Note_on_c, 0, 59, 37
2, 52920, Note_on_c, 0, 65, 38
2, 52921, Note_on_c, 0, 57, 32
2, 52952, Note_on_c, 0, 65, 0
2, 52956, Note_on_c, 0, 59, 0
2, 52961, Note_on_c, 0, 62, 0
2, 52961, Note_on_c, 0, 57, 0
2, 52968, Note_on_c, 0, 77, 0
2, 52985, Note_on_c, 0, 53, 0
2, 53041, Note_on_c, 0, 68, 61
2, 53045, Note_on_c, 0, 80, 33
2, 53045, Note_on_c, 0, 62, 48
2, 53045, Note_on_c, 0, 74, 47
2, 53046, Note_on_c, 0, 52, 51
2, 53046, Note_on_c, 0, 58, 39
2, 53048, Note_on_c, 0, 68, 0
2, 53050, Note_on_c, 0, 69, 57
2, 53051, Note_on_c, 0, 80, 0
2, 53070, Note_on_c, 0, 81, 8
2, 53084, Note_on_c, 0, 69, 0
2, 53085, Note_on_c, 0, 81, 0
2, 53091, Note_on_c, 0, 52, 0
2, 53091, Note_on_c, 0, 74, 0
2, 53096, Note_on_c, 0, 62, 0
2, 53105, Note_on_c, 0, 58, 0
2, 53127, Note_on_c, 0, 82, 74
2, 53128, Note_on_c, 0, 70, 76
2, 53129, Note_on_c, 0, 75, 62
2, 53130, Note_on_c, 0, 58, 56
2, 53131, Note_on_c, 0, 62, 53
2, 53131, Note_on_c, 0, 52, 61
2, 53147, Note_on_c, 0, 62, 0
2, 53149, Note_on_c, 0, 52, 0
2, 53153, Note_on_c, 0, 75, 0
2, 53156, Note_on_c, 0, 82, 0
2, 53157, Note_on_c, 0, 70, 0
2, 53159, Note_on_c, 0, 58, 0
2, 53172, Note_on_c, 0, 52, 46
2, 53173, Note_on_c, 0, 58, 38
2, 53174, Note_on_c, 0, 83, 31
2, 53174, Note_on_c, 0, 71, 51
2, 53174, Note_on_c, 0, 62, 37
2, 53177, Note_on_c, 0, 76, 49
2, 53181, Note_on_c, 0, 81, 24
2, 53182, Note_on_c, 0, 79, 34
2, 53203, Note_on_c, 0, 71, 0
2, 53204, Note_on_c, 0, 76, 0
2, 53206, Note_on_c, 0, 79, 0
2, 53208, Note_on_c, 0, 52, 0
2, 53208, Note_on_c, 0, 81, 0
2, 53213, Note_on_c, 0, 83, 0
2, 53217, Note_on_c, 0, 62, 0
2, 53221, Note_on_c, 0, 58, 0
2, 53246, Note_on_c, 0, 53, 44
2, 53247, Note_on_c, 0, 84, 68
2, 53248, Note_on_c, 0, 62, 35
2, 53249, Note_on_c, 0, 72, 53
2, 53249, Note_on_c, 0, 77, 56
2, 53252, Note_on_c, 0, 81, 32
2, 53252, Note_on_c, 0, 57, 36
2, 53260, Note_on_c, 0, 77, 0
2, 53261, Note_on_c, 0, 81, 0
2, 53262, Note_on_c, 0, 72, 0
2, 53262, Note_on_c, 0, 84, 0
2, 53263, Note_on_c, 0, 62, 0
2, 53270, Note_on_c, 0, 57, 0
2, 53274, Note_on_c, 0, 53, 0
2, 53288, Note_on_c, 0, 81, 52
2, 53290, Note_on_c, 0, 53, 17
2, 53291, Note_on_c, 0, 77, 47
2, 53292, Note_on_c, 0, 62, 22
2, 53292, Note_on_c, 0, 74, 40
2, 53293, Note_on_c, 0, 69, 36
2, 53294, Note_on_c, 0, 57, 36
2, 53298, Note_on_c, 0, 60, 24
2, 53344, Note_on_c, 0, 81, 0
2, 53345, Note_on_c, 0, 62, 0
2, 53345, Note_on_c, 0, 77, 0
2, 53346, Note_on_c, 0, 74, 0
2, 53346, Note_on_c, 0, 69, 0
2, 53347, Note_on_c, 0, 60, 0
2, 53347, Note_on_c, 0, 57, 0
2, 53355, Note_on_c, 0, 53, 0
2, 53393, Note_on_c, 0, 77, 37
2, 53396, Note_on_c, 0, 72, 29
2, 53396, Note_on_c, 0, 74, 40
2, 53396, Note_on_c, 0, 53, 22
2, 53397, Note_on_c, 0, 65, 33
2, 53397, Note_on_c, 0, 62, 26
2, 53398, Note_on_c, 0, 57, 43
2, 53399, Note_on_c, 0, 60, 35
2, 53416, Note_on_c, 0, 65, 0
2, 53425, Note_on_c, 0, 74, 0
2, 53426, Note_on_c, 0, 60, 0
2, 53426, Note_on_c, 0, 72, 0
2, 53430, Note_on_c, 0, 57, 0
2, 53434, Note_on_c, 0, 62, 0
2, 53440, Note_on_c, 0, 53, 0
2, 53454, Note_on_c, 0, 77, 0
2, 53485, Note_on_c, 0, 74, 35
2, 53499, Note_on_c, 0, 74, 0
2, 53516, Note_on_c, 0, 65, 48
2, 53517, Note_on_c, 0, 77, 38
2, 53518, Note_on_c, 0, 62, 26
2, 53522, Note_on_c, 0, 74, 29
2, 53522, Note_on_c, 0, 72, 25
2, 53522, Note_on_c, 0, 53, 19
2, 53522, Note_on_c, 0, 60, 26
2, 53522, Note_on_c, 0, 57, 36
2, 53538, Note_on_c, 0, 65, 0
2, 53545, Note_on_c, 0, 74, 0
2, 53554, Note_on_c, 0, 72, 0
2, 53561, Note_on_c, 0, 77, 0
2, 53574, Note_on_c, 0, 60, 0
2, 53587, Note_on_c, 0, 62, 0
2, 53626, Note_on_c, 0, 57, 0
2, 53636, Note_on_c, 0, 53, 0
2, 53749, Note_on_c, 0, 55, 39
2, 53752, Note_on_c, 0, 65, 34
2, 53754, Note_on_c, 0, 57, 35
2, 53756, Note_on_c, 0, 60, 39
2, 53799, Note_on_c, 0, 68, 56
2, 53826, Note_on_c, 0, 68, 0
2, 53833, Note_on_c, 0, 69, 72
2, 53859, Note_on_c, 0, 69, 0
2, 53873, Note_on_c, 0, 72, 54
2, 53874, Note_on_c, 0, 65, 0
2, 53884, Note_on_c, 0, 60, 0
2, 53893, Note_on_c, 0, 72, 0
2, 53897, Note_on_c, 0, 57, 0
2, 53904, Note_on_c, 0, 55, 0
2, 53914, Note_on_c, 0, 76, 63
2, 53931, Note_on_c, 0, 76, 0
2, 53952, Note_on_c, 0, 79, 85
2, 53953, Note_on_c, 0, 55, 64
2, 53956, Note_on_c, 0, 60, 55
2, 53973, Note_on_c, 0, 60, 0
2, 53975, Note_on_c, 0, 55, 0
2, 53979, Note_on_c, 0, 79, 0
2, 53995, Note_on_c, 0, 77, 66
2, 54026, Note_on_c, 0, 77, 0
2, 54072, Note_on_c, 0, 75, 54
2, 54073, Note_on_c, 0, 76, 78
2, 54075, Note_on_c, 0, 59, 58
2, 54075, Note_on_c, 0, 64, 56
2, 54076, Note_on_c, 0, 53, 56
2, 54080, Note_on_c, 0, 75, 0
2, 54097, Note_on_c, 0, 64, 0
2, 54100, Note_on_c, 0, 53, 0
2, 54103, Note_on_c, 0, 59, 0
2, 54108, Note_on_c, 0, 76, 0
2, 54122, Note_on_c, 0, 72, 47
2, 54128, Note_on_c, 0, 53, 28
2, 54132, Note_on_c, 0, 59, 22
2, 54143, Note_on_c, 0, 59, 0
2, 54151, Note_on_c, 0, 53, 0
2, 54181, Note_on_c, 0, 72, 0
2, 54196, Note_on_c, 0, 69, 55
2, 54205, Note_on_c, 0, 69, 0
2, 54238, Note_on_c, 0, 55, 39
2, 54239, Note_on_c, 0, 72, 72
2, 54240, Note_on_c, 0, 62, 20
2, 54243, Note_on_c, 0, 59, 22
2, 54248, Note_on_c, 0, 52, 24
2, 54249, Note_on_c, 0, 62, 0
2, 54251, Note_on_c, 0, 59, 0
2, 54256, Note_on_c, 0, 52, 0
2, 54258, Note_on_c, 0, 55, 0
2, 54266, Note_on_c, 0, 72, 0
2, 54270, Note_on_c, 0, 74, 46
2, 54295, Note_on_c, 0, 74, 0
2, 54297, Note_on_c, 0, 72, 18
2, 54321, Note_on_c, 0, 69, 33
2, 54323, Note_on_c, 0, 72, 0
2, 54338, Note_on_c, 0, 69, 0
2, 54359, Note_on_c, 0, 72, 71
2, 54388, Note_on_c, 0, 72, 0
2, 54394, Note_on_c, 0, 74, 40
2, 54418, Note_on_c, 0, 74, 0
2, 54418, Note_on_c, 0, 72, 22
2, 54439, Note_on_c, 0, 69, 32
2, 54440, Note_on_c, 0, 72, 0
2, 54454, Note_on_c, 0, 69, 0
2, 54477, Note_on_c, 0, 72, 66
2, 54595, Note_on_c, 0, 65, 45
2, 54596, Note_on_c, 0, 72, 0
2, 54596, Note_on_c, 0, 61, 34
2, 54596, Note_on_c, 0, 69, 56
2, 54597, Note_on_c, 0, 60, 47
2, 54600, Note_on_c, 0, 55, 41
2, 54644, Note_on_c, 0, 60, 0
2, 54647, Note_on_c, 0, 69, 0
2, 54647, Note_on_c, 0, 65, 0
2, 54650, Note_on_c, 0, 61, 0
2, 54654, Note_on_c, 0, 55, 0
2, 54717, Note_on_c, 0, 64, 41
2, 54719, Note_on_c, 0, 60, 48
2, 54719, Note_on_c, 0, 54, 25
2, 54720, Note_on_c, 0, 59, 47
2, 54827, Note_on_c, 0, 59, 0
2, 54835, Note_on_c, 0, 60, 0
2, 54854, Note_on_c, 0, 64, 0
2, 54861, Note_on_c, 0, 54, 0
2, 54918, Note_on_c, 0, 64, 53
2, 54921, Note_on_c, 0, 59, 53
2, 54922, Note_on_c, 0, 57, 44
2, 54923, Note_on_c, 0, 53, 25
2, 54961, Note_on_c, 0, 64, 0
2, 54962, Note_on_c, 0, 57, 0
2, 54964, Note_on_c, 0, 59, 0
2, 54984, Note_on_c, 0, 53, 0
2, 55003, Note_on_c, 0, 75, 72
2, 55026, Note_on_c, 0, 75, 0
2, 55040, Note_on_c, 0, 76, 83
2, 55070, Note_on_c, 0, 76, 0
2, 55081, Note_on_c, 0, 53, 58
2, 55082, Note_on_c, 0, 77, 61
2, 55082, Note_on_c, 0, 63, 48
2, 55082, Note_on_c, 0, 59, 54
2, 55106, Note_on_c, 0, 77, 0
2, 55108, Note_on_c, 0, 59, 0
2, 55114, Note_on_c, 0, 63, 0
2, 55120, Note_on_c, 0, 78, 52
2, 55123, Note_on_c, 0, 53, 0
2, 55140, Note_on_c, 0, 78, 0
2, 55159, Note_on_c, 0, 79, 78
2, 55162, Note_on_c, 0, 62, 54
2, 55163, Note_on_c, 0, 59, 43
2, 55166, Note_on_c, 0, 52, 42
2, 55169, Note_on_c, 0, 55, 49
2, 55182, Note_on_c, 0, 62, 0
2, 55190, Note_on_c, 0, 59, 0
2, 55196, Note_on_c, 0, 55, 0
2, 55196, Note_on_c, 0, 52, 0
2, 55228, Note_on_c, 0, 79, 0
2, 55265, Note_on_c, 0, 67, 41
2, 55287, Note_on_c, 0, 67, 0
2, 55356, Note_on_c, 0, 75, 76
2, 55377, Note_on_c, 0, 75, 0
2, 55393, Note_on_c, 0, 76, 87
2, 55419, Note_on_c, 0, 76, 0
2, 55429, Note_on_c, 0, 77, 68
2, 55446, Note_on_c, 0, 77, 0
2, 55463, Note_on_c, 0, 78, 69
2, 55484, Note_on_c, 0, 78, 0
2, 55500, Note_on_c, 0, 61, 65
2, 55500, Note_on_c, 0, 79, 75
2, 55501, Note_on_c, 0, 65, 70
2, 55501, Note_on_c, 0, 55, 72
2, 55502, Note_on_c, 0, 58, 62
2, 55529, Note_on_c, 0, 79, 0
2, 55530, Note_on_c, 0, 65, 0
2, 55537, Note_on_c, 0, 55, 0
2, 55540, Note_on_c, 0, 61, 0
2, 55547, Note_on_c, 0, 58, 0
2, 55547, Note_on_c, 0, 75, 59
2, 55583, Note_on_c, 0, 75, 0
2, 55632, Note_on_c, 0, 65, 40
2, 55654, Note_on_c, 0, 65, 0
2, 55674, Note_on_c, 0, 72, 55
2, 55674, Note_on_c, 0, 65, 64
2, 55678, Note_on_c, 0, 60, 44
2, 55706, Note_on_c, 0, 60, 0
2, 55741, Note_on_c, 0, 65, 0
2, 55745, Note_on_c, 0, 72, 0
2, 55755, Note_on_c, 0, 69, 44
2, 55755, Note_on_c, 0, 60, 54
2, 55756, Note_on_c, 0, 50, 47
2, 55757, Note_on_c, 0, 65, 35
2, 55777, Note_on_c, 0, 69, 0
2, 55778, Note_on_c, 0, 50, 0
2, 55779, Note_on_c, 0, 60, 0
2, 55781, Note_on_c, 0, 65, 0
2, 55874, Note_on_c, 0, 64, 58
2, 55875, Note_on_c, 0, 59, 58
2, 55876, Note_on_c, 0, 53, 54
2, 55978, Note_on_c, 0, 64, 0
2, 55991, Note_on_c, 0, 59, 0
2, 55993, Note_on_c, 0, 53, 0
2, 55993, Note_on_c, 0, 43, 39
2, 56026, Note_on_c, 0, 63, 56
2, 56029, Note_on_c, 0, 59, 52
2, 56033, Note_on_c, 0, 53, 36
2, 56045, Note_on_c, 0, 53, 0
2, 56059, Note_on_c, 0, 43, 0
2, 56096, Note_on_c, 0, 59, 0
2, 56099, Note_on_c, 0, 63, 0
2, 56119, Note_on_c, 0, 48, 35
2, 56140, Note_on_c, 0, 48, 0
2, 56152, Note_on_c, 0, 60, 55
2, 56153, Note_on_c, 0, 52, 38
2, 56154, Note_on_c, 0, 57, 40
2, 56158, Note_on_c, 0, 42, 29
2, 56235, Note_on_c, 0, 57, 0
2, 56238, Note_on_c, 0, 52, 0
2, 56239, Note_on_c, 0, 60, 0
2, 56252, Note_on_c, 0, 42, 0
2, 56273, Note_on_c, 0, 56, 65
2, 56274, Note_on_c, 0, 60, 63
2, 56275, Note_on_c, 0, 51, 50
2, 56276, Note_on_c, 0, 41, 62
2, 56362, Note_on_c, 0, 41, 0
2, 56368, Note_on_c, 0, 60, 0
2, 56369, Note_on_c, 0, 51, 0
2, 56376, Note_on_c, 0, 56, 0
2, 56394, Note_on_c, 0, 55, 68
2, 56394, Note_on_c, 0, 60, 69
2, 56395, Note_on_c, 0, 50, 49
2, 56476, Note_on_c, 0, 55, 0
2, 56477, Note_on_c, 0, 60, 0
2, 56482, Note_on_c, 0, 50, 0
2, 56483, Note_on_c, 0, 40, 30
2, 56505, Note_on_c, 0, 40, 0
2, 56512, Note_on_c, 0, 54, 73
2, 56514, Note_on_c, 0, 60, 71
2, 56595, Note_on_c, 0, 45, 33
2, 56596, Note_on_c, 0, 60, 0
2, 56606, Note_on_c, 0, 45, 0
2, 56611, Note_on_c, 0, 54, 0
2, 56632, Note_on_c, 0, 53, 66
2, 56633, Note_on_c, 0, 60, 57
2, 56685, Note_on_c, 0, 53, 0
2, 56695, Note_on_c, 0, 60, 0
2, 56714, Note_on_c, 0, 38, 59
2, 56731, Note_on_c, 0, 38, 0
2, 56760, Note_on_c, 0, 65, 38
2, 56775, Note_on_c, 0, 65, 0
2, 56799, Note_on_c, 0, 69, 64
2, 56815, Note_on_c, 0, 69, 0
2, 56836, Note_on_c, 0, 72, 80
2, 56848, Note_on_c, 0, 59, 28
2, 56855, Note_on_c, 0, 59, 0
2, 56858, Note_on_c, 0, 72, 0
2, 56877, Note_on_c, 0, 71, 71
2, 56878, Note_on_c, 0, 68, 47
2, 56879, Note_on_c, 0, 76, 71
2, 56880, Note_on_c, 0, 65, 60
2, 56880, Note_on_c, 0, 53, 58
2, 56881, Note_on_c, 0, 59, 58
2, 56882, Note_on_c, 0, 64, 57
2, 56884, Note_on_c, 0, 74, 42
2, 56957, Note_on_c, 0, 64, 0
2, 56957, Note_on_c, 0, 65, 0
2, 56959, Note_on_c, 0, 59, 0
2, 56960, Note_on_c, 0, 68, 0
2, 56962, Note_on_c, 0, 71, 0
2, 56963, Note_on_c, 0, 53, 0
2, 56968, Note_on_c, 0, 74, 0
2, 56974, Note_on_c, 0, 76, 0
2, 57001, Note_on_c, 0, 76, 45
2, 57001, Note_on_c, 0, 71, 58
2, 57001, Note_on_c, 0, 53, 38
2, 57002, Note_on_c, 0, 65, 62
2, 57002, Note_on_c, 0, 68, 38
2, 57002, Note_on_c, 0, 64, 37
2, 57002, Note_on_c, 0, 59, 44
2, 57011, Note_on_c, 0, 64, 0
2, 57014, Note_on_c, 0, 59, 0
2, 57035, Note_on_c, 0, 76, 0
2, 57040, Note_on_c, 0, 53, 0
2, 57044, Note_on_c, 0, 71, 0
2, 57049, Note_on_c, 0, 65, 0
2, 57061, Note_on_c, 0, 68, 0
2, 57081, Note_on_c, 0, 57, 72
2, 57082, Note_on_c, 0, 72, 58
2, 57082, Note_on_c, 0, 67, 66
2, 57083, Note_on_c, 0, 62, 64
2, 57085, Note_on_c, 0, 56, 46
2, 57086, Note_on_c, 0, 69, 50
2, 57099, Note_on_c, 0, 56, 0
2, 57186, Note_on_c, 0, 67, 0
2, 57188, Note_on_c, 0, 69, 0
2, 57209, Note_on_c, 0, 62, 0
2, 57211, Note_on_c, 0, 72, 0
2, 57234, Note_on_c, 0, 71, 36
2, 57234, Note_on_c, 0, 66, 62
2, 57237, Note_on_c, 0, 61, 45
2, 57239, Note_on_c, 0, 56, 45
2, 57246, Note_on_c, 0, 57, 0
2, 57285, Note_on_c, 0, 61, 0
2, 57304, Note_on_c, 0, 66, 0
2, 57310, Note_on_c, 0, 71, 0
2, 57319, Note_on_c, 0, 54, 18
2, 57344, Note_on_c, 0, 56, 0
2, 57345, Note_on_c, 0, 54, 0
2, 57348, Note_on_c, 0, 67, 56
2, 57349, Note_on_c, 0, 72, 41
2, 57349, Note_on_c, 0, 62, 55
2, 57350, Note_on_c, 0, 57, 39
2, 57374, Control_c, 0, 64, 127
2, 57404, Note_on_c, 0, 57, 0
2, 57430, Note_on_c, 0, 43, 70
2, 57441, Control_c, 0, 64, 0
2, 57456, Note_on_c, 0, 72, 0
2, 57458, Note_on_c, 0, 67, 0
2, 57483, Control_c, 0, 64, 127
2, 57485, Note_on_c, 0, 62, 0
2, 57592, Control_c, 0, 64, 0
2, 57592, Note_on_c, 0, 64, 40
2, 57592, Note_on_c, 0, 50, 1
2, 57595, Note_on_c, 0, 53, 26
2, 57595, Note_on_c, 0, 60, 30
2, 57596, Note_on_c, 0, 57, 34
2, 57613, Note_on_c, 0, 43, 0
2, 57668, Note_on_c, 0, 43, 50
2, 57677, Note_on_c, 0, 50, 0
2, 57696, Control_c, 0, 64, 127
2, 57709, Note_on_c, 0, 60, 0
2, 57709, Note_on_c, 0, 53, 0
2, 57718, Note_on_c, 0, 57, 0
2, 57731, Note_on_c, 0, 64, 0
2, 57786, Note_on_c, 0, 56, 60
2, 57786, Note_on_c, 0, 64, 59
2, 57788, Note_on_c, 0, 59, 49
2, 57791, Note_on_c, 0, 53, 53
2, 57793, Control_c, 0, 64, 0
2, 57815, Note_on_c, 0, 56, 0
2, 57819, Note_on_c, 0, 59, 0
2, 57822, Note_on_c, 0, 43, 0
2, 57824, Control_c, 0, 64, 127
2, 57848, Note_on_c, 0, 64, 0
2, 57906, Note_on_c, 0, 43, 68
2, 57917, Note_on_c, 0, 53, 0
2, 57925, Note_on_c, 0, 43, 0
2, 58034, Control_c, 0, 64, 0
2, 58039, Note_on_c, 0, 59, 28
2, 58060, Note_on_c, 0, 59, 0
2, 58070, Note_on_c, 0, 84, 66
2, 58071, Note_on_c, 0, 60, 52
2, 58127, Note_on_c, 0, 84, 0
2, 58150, Note_on_c, 0, 60, 0
2, 58163, Note_on_c, 0, 55, 32
2, 58177, Note_on_c, 0, 55, 0
2, 58196, Note_on_c, 0, 59, 36
2, 58196, Note_on_c, 0, 83, 48
2, 58264, Note_on_c, 0, 59, 0
2, 58276, Note_on_c, 0, 83, 0
2, 58277, Note_on_c, 0, 62, 44
2, 58280, Note_on_c, 0, 86, 65
2, 58307, Note_on_c, 0, 86, 0
2, 58309, Note_on_c, 0, 62, 0
2, 58322, Note_on_c, 0, 84, 40
2, 58324, Note_on_c, 0, 60, 40
2, 58351, Note_on_c, 0, 84, 0
2, 58358, Note_on_c, 0, 60, 0
2, 58636, Note_on_c, 0, 55, 41
2, 58638, Note_on_c, 0, 79, 32
2, 58648, Note_on_c, 0, 79, 0
2, 58653, Note_on_c, 0, 55, 0
2, 58673, Note_on_c, 0, 59, 36
2, 58673, Note_on_c, 0, 83, 53
2, 58688, Note_on_c, 0, 59, 0
2, 58695, Note_on_c, 0, 83, 0
2, 58760, Note_on_c, 0, 86, 79
2, 58763, Note_on_c, 0, 62, 48
2, 58781, Note_on_c, 0, 86, 0
2, 58783, Note_on_c, 0, 62, 0
2, 58799, Note_on_c, 0, 60, 36
2, 58801, Note_on_c, 0, 84, 49
2, 58815, Note_on_c, 0, 84, 0
2, 58815, Note_on_c, 0, 60, 0
2, 58876, Note_on_c, 0, 79, 43
2, 58876, Note_on_c, 0, 55, 39
2, 58892, Note_on_c, 0, 79, 0
2, 58898, Note_on_c, 0, 55, 0
2, 58915, Note_on_c, 0, 83, 50
2, 58915, Note_on_c, 0, 59, 27
2, 58925, Note_on_c, 0, 59, 0
2, 58925, Note_on_c, 0, 83, 0
2, 58991, Note_on_c, 0, 86, 74
2, 58992, Note_on_c, 0, 62, 49
2, 59011, Note_on_c, 0, 62, 0
2, 59013, Note_on_c, 0, 86, 0
2, 59032, Note_on_c, 0, 60, 48
2, 59036, Note_on_c, 0, 84, 49
2, 59118, Note_on_c, 0, 60, 0
2, 59119, Note_on_c, 0, 79, 35
2, 59121, Note_on_c, 0, 84, 0
2, 59125, Note_on_c, 0, 55, 30
2, 59133, Note_on_c, 0, 79, 0
2, 59137, Note_on_c, 0, 55, 0
2, 59156, Note_on_c, 0, 83, 43
2, 59158, Note_on_c, 0, 59, 36
2, 59243, Note_on_c, 0, 83, 0
2, 59245, Note_on_c, 0, 59, 0
2, 59250, Note_on_c, 0, 79, 27
2, 59258, Note_on_c, 0, 57, 17
2, 59259, Note_on_c, 0, 79, 0
2, 59264, Note_on_c, 0, 57, 0
2, 59281, Note_on_c, 0, 84, 44
2, 59283, Note_on_c, 0, 60, 40
2, 59314, Note_on_c, 0, 84, 0
2, 59323, Note_on_c, 0, 60, 0
2, 59599, Note_on_c, 0, 67, 40
2, 59601, Note_on_c, 0, 55, 44
2, 59608, Note_on_c, 0, 67, 0
2, 59610, Note_on_c, 0, 55, 0
2, 59638, Note_on_c, 0, 71, 63
2, 59641, Note_on_c, 0, 59, 40
2, 59646, Note_on_c, 0, 71, 0
2, 59650, Note_on_c, 0, 59, 0
2, 59716, Note_on_c, 0, 62, 87
2, 59717, Note_on_c, 0, 74, 110
2, 59722, Note_on_c, 0, 72, 26
2, 59729, Note_on_c, 0, 72, 0
2, 59733, Note_on_c, 0, 74, 0
2, 59734, Note_on_c, 0, 62, 0
2, 59757, Note_on_c, 0, 60, 64
2, 59762, Note_on_c, 0, 72, 68
2, 59789, Note_on_c, 0, 72, 0
2, 59795, Note_on_c, 0, 67, 52
2, 59797, Note_on_c, 0, 60, 0
2, 59800, Note_on_c, 0, 55, 43
2, 59802, Note_on_c, 0, 67, 0
2, 59815, Note_on_c, 0, 55, 0
2, 59838, Note_on_c, 0, 71, 82
2, 59843, Note_on_c, 0, 59, 73
2, 59908, Note_on_c, 0, 71, 0
2, 59912, Note_on_c, 0, 59, 0
2, 59914, Note_on_c, 0, 74, 71
2, 59917, Note_on_c, 0, 62, 81
2, 59983, Note_on_c, 0, 74, 0
2, 59988, Note_on_c, 0, 62, 0
2, 59997, Note_on_c, 0, 72, 66
2, 59998, Note_on_c, 0, 60, 64
2, 60081, Note_on_c, 0, 60, 0
2, 60082, Note_on_c, 0, 67, 38
2, 60084, Note_on_c, 0, 55, 29
2, 60093, Note_on_c, 0, 67, 0
2, 60100, Note_on_c, 0, 72, 0
2, 60104, Note_on_c, 0, 55, 0
2, 60115, Note_on_c, 0, 71, 50
2, 60120, Note_on_c, 0, 59, 40
2, 60181, Note_on_c, 0, 59, 0
2, 60196, Note_on_c, 0, 71, 0
2, 60237, Note_on_c, 0, 72, 47
2, 60239, Note_on_c, 0, 60, 43
2, 60262, Note_on_c, 0, 60, 0
2, 60297, Note_on_c, 0, 72, 0
2, 60557, Note_on_c, 0, 78, 85
2, 60557, Note_on_c, 0, 85, 82
2, 60558, Note_on_c, 0, 90, 76
2, 60559, Note_on_c, 0, 65, 81
2, 60559, Note_on_c, 0, 54, 73
2, 60559, Note_on_c, 0, 58, 69
2, 60560, Note_on_c, 0, 87, 63
2, 60560, Note_on_c, 0, 60, 76
2, 60566, Note_on_c, 0, 87, 0
2, 60573, Note_on_c, 0, 87, 25
2, 60616, Control_c, 0, 64, 127
2, 60670, Note_on_c, 0, 60, 0
2, 60676, Note_on_c, 0, 85, 0
2, 60681, Note_on_c, 0, 78, 0
2, 60681, Note_on_c, 0, 65, 0
2, 60682, Note_on_c, 0, 87, 0
2, 60683, Note_on_c, 0, 90, 0
2, 60703, Note_on_c, 0, 54, 0
2, 60711, Note_on_c, 0, 58, 0
2, 60713, Control_c, 0, 64, 0
2, 60723, Note_on_c, 0, 64, 50
2, 60726, Note_on_c, 0, 59, 48
2, 60726, Note_on_c, 0, 77, 58
2, 60726, Note_on_c, 0, 53, 39
2, 60727, Note_on_c, 0, 89, 49
2, 60730, Note_on_c, 0, 84, 54
2, 60735, Note_on_c, 0, 89, 0
2, 60736, Note_on_c, 0, 53, 0
2, 60737, Note_on_c, 0, 84, 0
2, 60738, Note_on_c, 0, 64, 0
2, 60738, Note_on_c, 0, 59, 0
2, 60742, Note_on_c, 0, 77, 0
2, 60763, Note_on_c, 0, 64, 40
2, 60763, Note_on_c, 0, 59, 46
2, 60765, Note_on_c, 0, 87, 49
2, 60765, Note_on_c, 0, 75, 51
2, 60771, Note_on_c, 0, 64, 0
2, 60774, Note_on_c, 0, 59, 0
2, 60775, Note_on_c, 0, 75, 0
2, 60778, Note_on_c, 0, 87, 0
2, 60797, Note_on_c, 0, 59, 51
2, 60799, Note_on_c, 0, 84, 50
2, 60801, Note_on_c, 0, 72, 37
2, 60807, Note_on_c, 0, 84, 0
2, 60811, Note_on_c, 0, 72, 0
2, 60817, Note_on_c, 0, 59, 0
2, 60837, Note_on_c, 0, 59, 38
2, 60840, Note_on_c, 0, 53, 44
2, 60841, Note_on_c, 0, 64, 35
2, 60842, Note_on_c, 0, 70, 47
2, 60843, Note_on_c, 0, 82, 33
2, 60874, Note_on_c, 0, 59, 0
2, 60890, Note_on_c, 0, 64, 0
2, 60895, Note_on_c, 0, 53, 0
2, 60909, Note_on_c, 0, 82, 0
2, 60911, Note_on_c, 0, 70, 0
2, 60955, Note_on_c, 0, 62, 37
2, 60958, Note_on_c, 0, 72, 34
2, 60958, Note_on_c, 0, 84, 48
2, 60960, Note_on_c, 0, 58, 35
2, 60960, Note_on_c, 0, 57, 35
2, 60960, Note_on_c, 0, 52, 40
2, 60961, Note_on_c, 0, 79, 35
2, 60995, Note_on_c, 0, 79, 0
2, 60999, Note_on_c, 0, 72, 0
2, 61001, Note_on_c, 0, 57, 0
2, 61001, Note_on_c, 0, 58, 0
2, 61003, Note_on_c, 0, 84, 0
2, 61008, Note_on_c, 0, 62, 0
2, 61011, Note_on_c, 0, 52, 0
2, 61205, Note_on_c, 0, 60, 50
2, 61206, Note_on_c, 0, 61, 36
2, 61206, Note_on_c, 0, 65, 42
2, 61206, Note_on_c, 0, 84, 71
2, 61208, Note_on_c, 0, 77, 51
2, 61208, Note_on_c, 0, 72, 40
2, 61209, Note_on_c, 0, 55, 46
2, 61315, Note_on_c, 0, 65, 0
2, 61321, Note_on_c, 0, 60, 0
2, 61323, Note_on_c, 0, 61, 0
2, 61335, Note_on_c, 0, 55, 0
2, 61339, Note_on_c, 0, 84, 0
2, 61347, Note_on_c, 0, 77, 0
2, 61409, Note_on_c, 0, 72, 0
2, 61437, Note_on_c, 0, 81, 52
2, 61438, Note_on_c, 0, 77, 55
2, 61439, Note_on_c, 0, 74, 54
2, 61440, Note_on_c, 0, 53, 35
2, 61440, Note_on_c, 0, 62, 40
2, 61440, Note_on_c, 0, 69, 43
2, 61442, Note_on_c, 0, 57, 41
2, 61443, Note_on_c, 0, 58, 37
2, 61552, Control_c, 0, 64, 127
2, 61572, Note_on_c, 0, 57, 0
2, 61574, Note_on_c, 0, 62, 0
2, 61577, Note_on_c, 0, 58, 0
2, 61584, Note_on_c, 0, 53, 0
2, 61584, Note_on_c, 0, 74, 0
2, 61584, Note_on_c, 0, 77, 0
2, 61594, Note_on_c, 0, 69, 0
2, 61602, Note_on_c, 0, 81, 0
2, 61643, Note_on_c, 0, 76, 59
2, 61643, Note_on_c, 0, 73, 38
2, 61643, Control_c, 0, 64, 0
2, 61644, Note_on_c, 0, 62, 55
2, 61644, Note_on_c, 0, 58, 45
2, 61644, Note_on_c, 0, 81, 55
2, 61645, Note_on_c, 0, 69, 57
2, 61645, Note_on_c, 0, 52, 54
2, 61718, Note_on_c, 0, 58, 0
2, 61719, Note_on_c, 0, 62, 0
2, 61721, Note_on_c, 0, 52, 0
2, 61756, Note_on_c, 0, 81, 0
2, 61768, Note_on_c, 0, 76, 0
2, 61769, Note_on_c, 0, 58, 50
2, 61769, Note_on_c, 0, 62, 57
2, 61770, Note_on_c, 0, 52, 50
2, 61777, Note_on_c, 0, 69, 0
2, 61779, Note_on_c, 0, 73, 0
2, 61823, Note_on_c, 0, 52, 0
2, 61835, Note_on_c, 0, 58, 0
2, 61837, Note_on_c, 0, 62, 0
2, 61886, Note_on_c, 0, 77, 105
2, 61892, Note_on_c, 0, 64, 66
2, 61894, Note_on_c, 0, 53, 47
2, 61895, Note_on_c, 0, 60, 54
2, 61897, Note_on_c, 0, 57, 48
2, 62019, Note_on_c, 0, 72, 31
2, 62027, Note_on_c, 0, 64, 0
2, 62029, Note_on_c, 0, 72, 0
2, 62037, Note_on_c, 0, 77, 0
2, 62041, Note_on_c, 0, 60, 0
2, 62055, Note_on_c, 0, 76, 78
2, 62061, Note_on_c, 0, 57, 0
2, 62063, Note_on_c, 0, 53, 0
2, 62127, Note_on_c, 0, 76, 0
2, 62127, Note_on_c, 0, 79, 68
2, 62152, Note_on_c, 0, 79, 0
2, 62161, Note_on_c, 0, 54, 42
2, 62161, Note_on_c, 0, 60, 48
2, 62165, Note_on_c, 0, 77, 45
2, 62176, Note_on_c, 0, 60, 0
2, 62182, Note_on_c, 0, 54, 0
2, 62275, Note_on_c, 0, 54, 45
2, 62276, Note_on_c, 0, 65, 40
2, 62277, Note_on_c, 0, 60, 49
2, 62316, Note_on_c, 0, 60, 0
2, 62320, Note_on_c, 0, 65, 0
2, 62352, Note_on_c, 0, 54, 0
2, 62399, Note_on_c, 0, 64, 30
2, 62400, Note_on_c, 0, 53, 28
2, 62401, Note_on_c, 0, 59, 44
2, 62476, Note_on_c, 0, 72, 35
2, 62492, Note_on_c, 0, 72, 0
2, 62497, Note_on_c, 0, 77, 0
2, 62513, Note_on_c, 0, 64, 0
2, 62519, Note_on_c, 0, 59, 0
2, 62530, Note_on_c, 0, 75, 29
2, 62530, Note_on_c, 0, 74, 15
2, 62541, Note_on_c, 0, 53, 0
2, 62543, Note_on_c, 0, 74, 0
2, 62558, Note_on_c, 0, 76, 45
2, 62560, Note_on_c, 0, 75, 0
2, 62581, Note_on_c, 0, 76, 0
2, 62595, Note_on_c, 0, 79, 89
2, 62622, Note_on_c, 0, 79, 0
2, 62631, Note_on_c, 0, 62, 45
2, 62634, Note_on_c, 0, 58, 37
2, 62637, Note_on_c, 0, 52, 32
2, 62637, Note_on_c, 0, 77, 76
2, 62721, Note_on_c, 0, 72, 36
2, 62741, Note_on_c, 0, 77, 0
2, 62744, Note_on_c, 0, 72, 0
2, 62770, Note_on_c, 0, 76, 59
2, 62775, Note_on_c, 0, 52, 0
2, 62779, Note_on_c, 0, 58, 0
2, 62786, Note_on_c, 0, 62, 0
2, 62786, Note_on_c, 0, 76, 0
2, 62845, Note_on_c, 0, 79, 91
2, 62846, Note_on_c, 0, 64, 63
2, 62848, Note_on_c, 0, 60, 57
2, 62850, Note_on_c, 0, 57, 49
2, 62853, Note_on_c, 0, 64, 0
2, 62858, Note_on_c, 0, 60, 0
2, 62863, Note_on_c, 0, 79, 0
2, 62864, Note_on_c, 0, 57, 0
2, 62903, Note_on_c, 0, 77, 64
2, 62923, Note_on_c, 0, 77, 0
2, 62968, Note_on_c, 0, 72, 47
2, 62977, Note_on_c, 0, 72, 0
2, 63074, Note_on_c, 0, 76, 72
2, 63096, Note_on_c, 0, 76, 0
2, 63106, Note_on_c, 0, 79, 71
2, 63126, Note_on_c, 0, 79, 0
2, 63143, Note_on_c, 0, 77, 59
2, 63215, Note_on_c, 0, 65, 70
2, 63216, Note_on_c, 0, 54, 53
2, 63217, Note_on_c, 0, 60, 62
2, 63225, Note_on_c, 0, 60, 0
2, 63226, Note_on_c, 0, 65, 0
2, 63237, Note_on_c, 0, 54, 0
2, 63366, Note_on_c, 0, 62, 47
2, 63367, Note_on_c, 0, 58, 39
2, 63367, Note_on_c, 0, 53, 40
2, 63369, Note_on_c, 0, 57, 44
2, 63451, Note_on_c, 0, 72, 47
2, 63462, Note_on_c, 0, 77, 0
2, 63463, Note_on_c, 0, 72, 0
2, 63487, Note_on_c, 0, 76, 62
2, 63493, Note_on_c, 0, 58, 0
2, 63495, Note_on_c, 0, 62, 0
2, 63497, Note_on_c, 0, 76, 0
2, 63498, Note_on_c, 0, 57, 0
2, 63512, Note_on_c, 0, 53, 0
2, 63567, Note_on_c, 0, 62, 64
2, 63567, Note_on_c, 0, 79, 83
2, 63567, Note_on_c, 0, 58, 51
2, 63574, Note_on_c, 0, 62, 0
2, 63580, Note_on_c, 0, 58, 0
2, 63583, Note_on_c, 0, 79, 0
2, 63611, Note_on_c, 0, 77, 55
2, 63626, Note_on_c, 0, 77, 0
2, 63675, Note_on_c, 0, 36, 61
2, 63679, Note_on_c, 0, 72, 64
2, 63682, Note_on_c, 0, 36, 0
2, 63690, Note_on_c, 0, 72, 0
2, 63723, Note_on_c, 0, 76, 45
2, 63734, Note_on_c, 0, 76, 0
2, 63804, Note_on_c, 0, 77, 36
2, 63814, Note_on_c, 0, 77, 0
2, 63923, Note_on_c, 0, 63, 35
2, 63927, Note_on_c, 0, 65, 24
2, 63932, Note_on_c, 0, 63, 0
2, 63933, Note_on_c, 0, 65, 0
2, 64042, Note_on_c, 0, 76, 43
2, 64050, Note_on_c, 0, 76, 0
2, 64160, Note_on_c, 0, 77, 84
2, 64162, Note_on_c, 0, 65, 62
2, 64165, Note_on_c, 0, 60, 50
2, 64166, Note_on_c, 0, 54, 25
2, 64169, Note_on_c, 0, 65, 0
2, 64173, Note_on_c, 0, 60, 0
2, 64175, Note_on_c, 0, 54, 0
2, 64177, Note_on_c, 0, 77, 0
2, 64394, Note_on_c, 0, 82, 94
2, 64397, Note_on_c, 0, 59, 89
2, 64398, Note_on_c, 0, 58, 69
2, 64401, Note_on_c, 0, 81, 37
2, 64407, Note_on_c, 0, 82, 0
2, 64410, Note_on_c, 0, 81, 0
2, 64410, Note_on_c, 0, 58, 0
2, 64412, Note_on_c, 0, 59, 0
2, 64445, Note_on_c, 0, 83, 44
2, 64462, Note_on_c, 0, 83, 0
2, 64519, Note_on_c, 0, 77, 52
2, 64537, Note_on_c, 0, 77, 0
2, 64560, Note_on_c, 0, 80, 59
2, 64581, Note_on_c, 0, 80, 0
2, 64636, Note_on_c, 0, 82, 74
2, 64636, Note_on_c, 0, 70, 80
2, 64638, Note_on_c, 0, 58, 58
2, 64638, Note_on_c, 0, 62, 66
2, 64642, Note_on_c, 0, 52, 50
2, 64647, Note_on_c, 0, 62, 0
2, 64649, Note_on_c, 0, 52, 0
2, 64662, Note_on_c, 0, 58, 0
2, 64714, Note_on_c, 0, 70, 0
2, 64714, Note_on_c, 0, 82, 0
2, 64756, Note_on_c, 0, 48, 74
2, 64757, Note_on_c, 0, 80, 60
2, 64759, Note_on_c, 0, 47, 57
2, 64759, Note_on_c, 0, 68, 62
2, 64765, Note_on_c, 0, 47, 0
2, 64774, Note_on_c, 0, 68, 0
2, 64777, Note_on_c, 0, 80, 0
2, 64833, Note_on_c, 0, 77, 64
2, 64837, Note_on_c, 0, 65, 61
2, 64847, Note_on_c, 0, 65, 0
2, 64853, Note_on_c, 0, 77, 0
2, 64873, Note_on_c, 0, 75, 51
2, 64887, Note_on_c, 0, 75, 0
2, 64910, Note_on_c, 0, 48, 0
2, 64917, Note_on_c, 0, 77, 72
2, 64917, Note_on_c, 0, 65, 77
2, 64933, Note_on_c, 0, 65, 0
2, 64937, Note_on_c, 0, 77, 0
2, 64998, Note_on_c, 0, 70, 77
2, 64999, Note_on_c, 0, 77, 55
2, 65009, Note_on_c, 0, 70, 0
2, 65011, Note_on_c, 0, 71, 51
2, 65028, Note_on_c, 0, 71, 0
2, 65032, Note_on_c, 0, 77, 0
2, 65075, Note_on_c, 0, 70, 74
2, 65077, Note_on_c, 0, 77, 59
2, 65101, Note_on_c, 0, 77, 0
2, 65150, Note_on_c, 0, 70, 0
2, 65162, Note_on_c, 0, 65, 48
2, 65225, Note_on_c, 0, 65, 0
2, 65245, Note_on_c, 0, 63, 51
2, 65267, Note_on_c, 0, 63, 0
2, 65316, Note_on_c, 0, 55, 66
2, 65319, Note_on_c, 0, 64, 41
2, 65320, Note_on_c, 0, 57, 60
2, 65321, Note_on_c, 0, 60, 65
2, 65365, Note_on_c, 0, 55, 0
2, 65378, Note_on_c, 0, 60, 0
2, 65380, Note_on_c, 0, 64, 0
2, 65381, Note_on_c, 0, 57, 0
2, 65400, Note_on_c, 0, 43, 62
2, 65473, Note_on_c, 0, 53, 40
2, 65481, Note_on_c, 0, 53, 0
2, 65484, Note_on_c, 0, 55, 53
2, 65491, Note_on_c, 0, 55, 0
2, 65503, Note_on_c, 0, 43, 0
2, 65504, Note_on_c, 0, 57, 44
2, 65511, Note_on_c, 0, 57, 0
2, 65521, Note_on_c, 0, 59, 48
2, 65528, Note_on_c, 0, 59, 0
2, 65538, Note_on_c, 0, 60, 51
2, 65544, Note_on_c, 0, 60, 0
2, 65552, Note_on_c, 0, 62, 40
2, 65561, Note_on_c, 0, 62, 0
2, 65569, Note_on_c, 0, 64, 40
2, 65578, Note_on_c, 0, 64, 0
2, 65586, Note_on_c, 0, 65, 48
2, 65593, Note_on_c, 0, 65, 0
2, 65601, Note_on_c, 0, 67, 43
2, 65609, Note_on_c, 0, 67, 0
2, 65618, Note_on_c, 0, 69, 46
2, 65626, Note_on_c, 0, 69, 0
2, 65633, Note_on_c, 0, 71, 36
2, 65641, Note_on_c, 0, 64, 38
2, 65645, Note_on_c, 0, 71, 0
2, 65645, Note_on_c, 0, 59, 38
2, 65649, Note_on_c, 0, 53, 22
2, 65653, Note_on_c, 0, 72, 36
2, 65654, Note_on_c, 0, 64, 0
2, 65658, Note_on_c, 0, 59, 0
2, 65659, Note_on_c, 0, 53, 0
2, 65662, Note_on_c, 0, 72, 0
2, 65671, Note_on_c, 0, 74, 35
2, 65683, Note_on_c, 0, 74, 0
2, 65687, Note_on_c, 0, 76, 35
2, 65701, Note_on_c, 0, 76, 0
2, 65706, Note_on_c, 0, 77, 36
2, 65720, Note_on_c, 0, 77, 0
2, 65726, Note_on_c, 0, 79, 33
2, 65737, Note_on_c, 0, 79, 0
2, 65758, Note_on_c, 0, 62, 56
2, 65762, Note_on_c, 0, 53, 31
2, 65763, Note_on_c, 0, 57, 48
2, 65764, Note_on_c, 0, 60, 33
2, 65801, Note_on_c, 0, 60, 0
2, 65806, Note_on_c, 0, 62, 0
2, 65807, Note_on_c, 0, 57, 0
2, 65819, Note_on_c, 0, 53, 0
2, 65879, Note_on_c, 0, 83, 81
2, 65882, Note_on_c, 0, 59, 62
2, 65956, Note_on_c, 0, 83, 0
2, 65963, Note_on_c, 0, 59, 0
2, 66003, Note_on_c, 0, 84, 71
2, 66004, Note_on_c, 0, 60, 48
2, 66072, Note_on_c, 0, 60, 0
2, 66075, Note_on_c, 0, 84, 0
2, 66084, Note_on_c, 0, 79, 49
2, 66092, Note_on_c, 0, 55, 45
2, 66100, Note_on_c, 0, 79, 0
2, 66103, Note_on_c, 0, 55, 0
2, 66236, Note_on_c, 0, 65, 43
2, 66238, Note_on_c, 0, 58, 34
2, 66240, Note_on_c, 0, 61, 32
2, 66250, Note_on_c, 0, 61, 0
2, 66250, Note_on_c, 0, 65, 0
2, 66259, Note_on_c, 0, 58, 0
2, 66357, Note_on_c, 0, 83, 88
2, 66384, Note_on_c, 0, 83, 0
2, 66445, Note_on_c, 0, 84, 92
2, 66447, Note_on_c, 0, 64, 57
2, 66448, Note_on_c, 0, 57, 58
2, 66450, Note_on_c, 0, 60, 50
2, 66451, Note_on_c, 0, 53, 33
2, 66463, Note_on_c, 0, 64, 0
2, 66497, Note_on_c, 0, 53, 0
2, 66512, Note_on_c, 0, 60, 0
2, 66523, Note_on_c, 0, 57, 0
2, 66558, Note_on_c, 0, 79, 53
2, 66574, Note_on_c, 0, 79, 0
2, 66577, Note_on_c, 0, 84, 0
2, 66598, Note_on_c, 0, 64, 35
2, 66599, Note_on_c, 0, 83, 61
2, 66600, Note_on_c, 0, 59, 41
2, 66601, Note_on_c, 0, 53, 27
2, 66606, Note_on_c, 0, 83, 0
2, 66608, Note_on_c, 0, 64, 0
2, 66609, Note_on_c, 0, 59, 0
2, 66612, Note_on_c, 0, 53, 0
2, 66680, Note_on_c, 0, 53, 56
2, 66681, Note_on_c, 0, 64, 44
2, 66681, Note_on_c, 0, 59, 57
2, 66681, Note_on_c, 0, 86, 91
2, 66683, Note_on_c, 0, 74, 80
2, 66689, Note_on_c, 0, 64, 0
2, 66690, Note_on_c, 0, 59, 0
2, 66697, Note_on_c, 0, 74, 0
2, 66697, Note_on_c, 0, 53, 0
2, 66704, Note_on_c, 0, 86, 0
2, 66729, Note_on_c, 0, 59, 24
2, 66729, Note_on_c, 0, 52, 34
2, 66729, Note_on_c, 0, 84, 62
2, 66729, Note_on_c, 0, 62, 34
2, 66731, Note_on_c, 0, 55, 40
2, 66731, Note_on_c, 0, 72, 44
2, 66776, Note_on_c, 0, 55, 0
2, 66778, Note_on_c, 0, 62, 0
2, 66778, Note_on_c, 0, 59, 0
2, 66783, Note_on_c, 0, 52, 0
2, 66784, Note_on_c, 0, 72, 0
2, 66794, Note_on_c, 0, 84, 0
2, 66844, Note_on_c, 0, 83, 68
2, 66906, Note_on_c, 0, 83, 0
2, 66961, Note_on_c, 0, 83, 71
2, 67012, Note_on_c, 0, 83, 0
2, 67032, Note_on_c, 0, 84, 79
2, 67053, Note_on_c, 0, 84, 0
2, 67160, Note_on_c, 0, 64, 46
2, 67162, Note_on_c, 0, 57, 54
2, 67162, Note_on_c, 0, 60, 44
2, 67169, Note_on_c, 0, 64, 0
2, 67171, Note_on_c, 0, 60, 0
2, 67183, Note_on_c, 0, 57, 0
2, 67404, Note_on_c, 0, 59, 51
2, 67405, Note_on_c, 0, 79, 51
2, 67412, Note_on_c, 0, 79, 0
2, 67412, Note_on_c, 0, 59, 0
2, 67437, Note_on_c, 0, 59, 60
2, 67437, Note_on_c, 0, 83, 77
2, 67437, Note_on_c, 0, 53, 59
2, 67438, Note_on_c, 0, 64, 54
2, 67445, Note_on_c, 0, 64, 0
2, 67448, Note_on_c, 0, 53, 0
2, 67450, Note_on_c, 0, 83, 0
2, 67450, Note_on_c, 0, 59, 0
2, 67521, Note_on_c, 0, 86, 101
2, 67522, Note_on_c, 0, 59, 69
2, 67523, Note_on_c, 0, 64, 65
2, 67523, Note_on_c, 0, 53, 68
2, 67537, Note_on_c, 0, 64, 0
2, 67543, Note_on_c, 0, 53, 0
2, 67544, Note_on_c, 0, 59, 0
2, 67544, Note_on_c, 0, 86, 0
2, 67560, Note_on_c, 0, 53, 51
2, 67561, Note_on_c, 0, 59, 39
2, 67563, Note_on_c, 0, 64, 44
2, 67563, Note_on_c, 0, 84, 71
2, 67579, Note_on_c, 0, 64, 0
2, 67587, Note_on_c, 0, 84, 0
2, 67587, Note_on_c, 0, 53, 0
2, 67588, Note_on_c, 0, 59, 0
2, 67648, Note_on_c, 0, 79, 27
2, 67656, Note_on_c, 0, 79, 0
2, 67677, Note_on_c, 0, 84, 72
2, 67678, Note_on_c, 0, 59, 36
2, 67679, Note_on_c, 0, 52, 50
2, 67679, Note_on_c, 0, 62, 34
2, 67683, Note_on_c, 0, 55, 48
2, 67720, Note_on_c, 0, 55, 0
2, 67722, Note_on_c, 0, 62, 0
2, 67723, Note_on_c, 0, 52, 0
2, 67723, Note_on_c, 0, 59, 0
2, 67765, Note_on_c, 0, 84, 0
2, 67795, Note_on_c, 0, 83, 73
2, 67797, Note_on_c, 0, 62, 57
2, 67798, Note_on_c, 0, 59, 51
2, 67799, Note_on_c, 0, 55, 51
2, 67799, Note_on_c, 0, 52, 39
2, 67811, Note_on_c, 0, 52, 0
2, 67817, Note_on_c, 0, 59, 0
2, 67818, Note_on_c, 0, 62, 0
2, 67819, Note_on_c, 0, 55, 0
2, 67857, Note_on_c, 0, 83, 0
2, 67913, Note_on_c, 0, 61, 57
2, 67913, Note_on_c, 0, 84, 87
2, 67914, Note_on_c, 0, 58, 50
2, 67914, Note_on_c, 0, 65, 62
2, 67915, Note_on_c, 0, 55, 66
2, 68029, Control_c, 0, 64, 127
2, 68038, Note_on_c, 0, 65, 0
2, 68039, Note_on_c, 0, 55, 0
2, 68046, Note_on_c, 0, 58, 0
2, 68063, Note_on_c, 0, 61, 0
2, 68145, Control_c, 0, 64, 0
2, 68152, Note_on_c, 0, 84, 0
2, 68236, Note_on_c, 0, 53, 82
2, 68236, Note_on_c, 0, 102, 86
2, 68237, Note_on_c, 0, 90, 92
2, 68237, Note_on_c, 0, 57, 73
2, 68237, Note_on_c, 0, 60, 80
2, 68238, Note_on_c, 0, 64, 82
2, 68238, Note_on_c, 0, 99, 83
2, 68243, Note_on_c, 0, 103, 38
2, 68244, Note_on_c, 0, 96, 34
2, 68250, Note_on_c, 0, 96, 0
2, 68251, Note_on_c, 0, 103, 0
2, 68261, Note_on_c, 0, 99, 0
2, 68267, Note_on_c, 0, 102, 0
2, 68268, Note_on_c, 0, 90, 0
2, 68276, Note_on_c, 0, 89, 46
2, 68277, Note_on_c, 0, 101, 49
2, 68295, Note_on_c, 0, 101, 0
2, 68295, Note_on_c, 0, 89, 0
2, 68296, Note_on_c, 0, 64, 0
2, 68298, Note_on_c, 0, 60, 0
2, 68300, Note_on_c, 0, 57, 0
2, 68303, Note_on_c, 0, 53, 0
2, 68315, Note_on_c, 0, 64, 41
2, 68315, Note_on_c, 0, 60, 51
2, 68315, Note_on_c, 0, 53, 26
2, 68316, Note_on_c, 0, 99, 62
2, 68317, Note_on_c, 0, 87, 67
2, 68318, Note_on_c, 0, 57, 49
2, 68323, Note_on_c, 0, 64, 0
2, 68326, Note_on_c, 0, 57, 0
2, 68327, Note_on_c, 0, 99, 0
2, 68330, Note_on_c, 0, 87, 0
2, 68331, Note_on_c, 0, 53, 0
2, 68331, Note_on_c, 0, 60, 0
2, 68354, Note_on_c, 0, 96, 60
2, 68356, Note_on_c, 0, 53, 62
2, 68357, Note_on_c, 0, 60, 61
2, 68358, Note_on_c, 0, 64, 59
2, 68358, Note_on_c, 0, 57, 61
2, 68359, Note_on_c, 0, 84, 71
2, 68375, Note_on_c, 0, 84, 0
2, 68375, Note_on_c, 0, 96, 0
2, 68380, Note_on_c, 0, 64, 0
2, 68380, Note_on_c, 0, 60, 0
2, 68388, Note_on_c, 0, 53, 0
2, 68388, Note_on_c, 0, 57, 0
2, 68408, Note_on_c, 0, 53, 60
2, 68408, Note_on_c, 0, 59, 59
2, 68408, Note_on_c, 0, 82, 54
2, 68408, Note_on_c, 0, 64, 45
2, 68408, Note_on_c, 0, 94, 58
2, 68411, Note_on_c, 0, 59, 0
2, 68411, Note_on_c, 0, 53, 0
2, 68413, Note_on_c, 0, 64, 0
2, 68413, Note_on_c, 0, 94, 0
2, 68414, Note_on_c, 0, 82, 0
2, 68442, Note_on_c, 0, 91, 79
2, 68443, Note_on_c, 0, 53, 80
2, 68444, Note_on_c, 0, 79, 76
2, 68444, Note_on_c, 0, 64, 76
2, 68444, Note_on_c, 0, 59, 75
2, 68448, Note_on_c, 0, 90, 39
2, 68455, Note_on_c, 0, 90, 0
2, 68495, Note_on_c, 0, 91, 0
2, 68502, Note_on_c, 0, 64, 0
2, 68503, Note_on_c, 0, 79, 0
2, 68504, Note_on_c, 0, 53, 0
2, 68505, Note_on_c, 0, 59, 0
2, 68522, Note_on_c, 0, 53, 66
2, 68522, Note_on_c, 0, 89, 55
2, 68522, Note_on_c, 0, 59, 50
2, 68523, Note_on_c, 0, 64, 57
2, 68524, Note_on_c, 0, 77, 64
2, 68536, Note_on_c, 0, 64, 0
2, 68536, Note_on_c, 0, 89, 0
2, 68539, Note_on_c, 0, 77, 0
2, 68539, Note_on_c, 0, 59, 0
2, 68543, Note_on_c, 0, 53, 0
2, 68589, Note_on_c, 0, 53, 66
2, 68591, Note_on_c, 0, 64, 54
2, 68593, Note_on_c, 0, 59, 56
2, 68595, Note_on_c, 0, 75, 75
2, 68595, Note_on_c, 0, 87, 71
2, 68600, Note_on_c, 0, 59, 0
2, 68600, Note_on_c, 0, 64, 0
2, 68608, Note_on_c, 0, 87, 0
2, 68609, Note_on_c, 0, 75, 0
2, 68610, Note_on_c, 0, 53, 0
2, 68633, Note_on_c, 0, 62, 65
2, 68634, Note_on_c, 0, 58, 56
2, 68636, Note_on_c, 0, 84, 59
2, 68636, Note_on_c, 0, 72, 52
2, 68637, Note_on_c, 0, 52, 44
2, 68640, Note_on_c, 0, 62, 0
2, 68642, Note_on_c, 0, 84, 0
2, 68646, Note_on_c, 0, 52, 0
2, 68646, Note_on_c, 0, 58, 0
2, 68647, Note_on_c, 0, 72, 0
2, 68717, Note_on_c, 0, 58, 32
2, 68732, Note_on_c, 0, 58, 0
2, 68748, Note_on_c, 0, 75, 52
2, 68750, Note_on_c, 0, 70, 64
2, 68752, Note_on_c, 0, 64, 46
2, 68755, Note_on_c, 0, 65, 44
2, 68763, Note_on_c, 0, 65, 0
2, 68766, Note_on_c, 0, 75, 0
2, 68766, Note_on_c, 0, 70, 0
2, 68769, Note_on_c, 0, 64, 0
2, 68829, Note_on_c, 0, 72, 67
2, 68832, Note_on_c, 0, 61, 69
2, 68833, Note_on_c, 0, 57, 70
2, 68849, Note_on_c, 0, 72, 0
2, 68850, Note_on_c, 0, 57, 0
2, 68856, Note_on_c, 0, 61, 0
2, 68889, Note_on_c, 0, 69, 66
2, 68891, Note_on_c, 0, 58, 47
2, 68892, Note_on_c, 0, 55, 56
2, 68893, Note_on_c, 0, 64, 53
2, 68911, Note_on_c, 0, 69, 0
2, 68914, Note_on_c, 0, 55, 0
2, 68916, Note_on_c, 0, 64, 0
2, 68922, Note_on_c, 0, 58, 0
2, 68955, Note_on_c, 0, 61, 37
2, 68956, Note_on_c, 0, 51, 51
2, 68957, Note_on_c, 0, 66, 19
2, 68958, Note_on_c, 0, 67, 54
2, 68964, Note_on_c, 0, 67, 0
2, 68972, Note_on_c, 0, 61, 0
2, 68977, Note_on_c, 0, 66, 0
2, 68981, Note_on_c, 0, 51, 0
2, 69006, Note_on_c, 0, 48, 44
2, 69008, Note_on_c, 0, 53, 54
2, 69013, Note_on_c, 0, 63, 13
2, 69032, Note_on_c, 0, 63, 0
2, 69039, Note_on_c, 0, 48, 0
2, 69042, Note_on_c, 0, 53, 0
2, 69072, Note_on_c, 0, 42, 50
2, 69095, Note_on_c, 0, 42, 0
2, 69123, Note_on_c, 0, 50, 57
2, 69123, Note_on_c, 0, 55, 60
2, 69123, Note_on_c, 0, 60, 57
2, 69127, Note_on_c, 0, 57, 48
2, 69147, Note_on_c, 0, 50, 0
2, 69163, Note_on_c, 0, 60, 0
2, 69164, Note_on_c, 0, 55, 0
2, 69165, Note_on_c, 0, 57, 0
2, 69243, Note_on_c, 0, 37, 48
2, 69248, Note_on_c, 0, 25, 33
2, 69297, Note_on_c, 0, 37, 0
2, 69303, Note_on_c, 0, 25, 0
2, 69324, Note_on_c, 0, 24, 37
2, 69325, Note_on_c, 0, 52, 37
2, 69325, Note_on_c, 0, 36, 44
2, 69420, Control_c, 0, 64, 127
2, 69453, Note_on_c, 0, 52, 0
2, 69498, Control_c, 0, 64, 0
2, 69664, Note_on_c, 0, 24, 0
2, 69680, Note_on_c, 0, 36, 0
2, 69680, End_track
3, 0, Start_track
3, 0, Title_t, "Bass"
3, 120, Program_c, 1, 32
3, 11599, Note_on_c, 1, 38, 82
3, 11836, Note_on_c, 1, 38, 0
3, 11843, Note_on_c, 1, 32, 69
3, 11875, Note_on_c, 1, 32, 0
3, 11882, Note_on_c, 1, 31, 86
3, 12000, Note_on_c, 1, 31, 0
3, 12000, Note_on_c, 1, 36, 61
3, 12092, Note_on_c, 1, 36, 0
3, 12120, Note_on_c, 1, 34, 56
3, 12233, Note_on_c, 1, 34, 0
3, 12240, Note_on_c, 1, 33, 54
3, 12332, Note_on_c, 1, 33, 0
3, 12360, Note_on_c, 1, 39, 75
3, 12475, Note_on_c, 1, 39, 0
3, 12480, Note_on_c, 1, 38, 61
3, 12560, Note_on_c, 1, 29, 64
3, 12569, Note_on_c, 1, 38, 0
3, 12578, Note_on_c, 1, 29, 0
3, 12600, Note_on_c, 1, 30, 90
3, 12720, Note_on_c, 1, 31, 113
3, 12727, Note_on_c, 1, 30, 0
3, 12800, Note_on_c, 1, 27, 46
3, 12816, Note_on_c, 1, 31, 0
3, 12835, Note_on_c, 1, 27, 0
3, 12840, Note_on_c, 1, 29, 90
3, 12955, Note_on_c, 1, 29, 0
3, 12960, Note_on_c, 1, 28, 75
3, 13040, Note_on_c, 1, 27, 64
3, 13060, Note_on_c, 1, 27, 0
3, 13080, Note_on_c, 1, 40, 110
3, 13099, Note_on_c, 1, 28, 0
3, 13189, Note_on_c, 1, 40, 0
3, 13200, Note_on_c, 1, 28, 45
3, 13200, Note_on_c, 1, 39, 72
3, 13217, Note_on_c, 1, 28, 0
3, 13280, Note_on_c, 1, 28, 49
3, 13305, Note_on_c, 1, 39, 0
3, 13306, Note_on_c, 1, 28, 0
3, 13320, Note_on_c, 1, 39, 82
3, 13432, Note_on_c, 1, 39, 0
3, 13440, Note_on_c, 1, 38, 66
3, 13520, Note_on_c, 1, 33, 74
3, 13522, Note_on_c, 1, 38, 0
3, 13547, Note_on_c, 1, 33, 0
3, 13560, Note_on_c, 1, 32, 69
3, 13640, Note_on_c, 1, 30, 39
3, 13654, Note_on_c, 1, 32, 0
3, 13662, Note_on_c, 1, 30, 0
3, 13680, Note_on_c, 1, 31, 71
3, 13840, Note_on_c, 1, 30, 55
3, 13855, Note_on_c, 1, 31, 0
3, 13859, Note_on_c, 1, 30, 0
3, 13880, Note_on_c, 1, 29, 36
3, 13905, Note_on_c, 1, 29, 0
3, 13920, Note_on_c, 1, 28, 69
3, 14000, Note_on_c, 1, 33, 34
3, 14010, Note_on_c, 1, 33, 0
3, 14038, Note_on_c, 1, 28, 0
3, 14040, Note_on_c, 1, 40, 95
3, 14120, Note_on_c, 1, 31, 54
3, 14132, Note_on_c, 1, 31, 0
3, 14160, Note_on_c, 1, 40, 0
3, 14160, Note_on_c, 1, 36, 29
3, 14168, Note_on_c, 1, 36, 0
3, 14240, Note_on_c, 1, 33, 76
3, 14360, Note_on_c, 1, 32, 56
3, 14378, Note_on_c, 1, 33, 0
3, 14386, Note_on_c, 1, 32, 0
3, 14400, Note_on_c, 1, 38, 62
3, 14480, Note_on_c, 1, 33, 33
3, 14489, Note_on_c, 1, 33, 0
3, 14508, Note_on_c, 1, 38, 0
3, 14520, Note_on_c, 1, 45, 79
3, 14625, Note_on_c, 1, 45, 0
3, 14640, Note_on_c, 1, 43, 60
3, 14720, Note_on_c, 1, 38, 47
3, 14729, Note_on_c, 1, 38, 0
3, 14750, Note_on_c, 1, 43, 0
3, 14760, Note_on_c, 1, 41, 60
3, 14878, Note_on_c, 1, 41, 0
3, 14880, Note_on_c, 1, 40, 60
3, 14996, Note_on_c, 1, 40, 0
3, 15000, Note_on_c, 1, 35, 63
3, 15116, Note_on_c, 1, 35, 0
3, 15120, Note_on_c, 1, 36, 64
3, 15218, Note_on_c, 1, 36, 0
3, 15240, Note_on_c, 1, 35, 63
3, 15352, Note_on_c, 1, 35, 0
3, 15360, Note_on_c, 1, 36, 60
3, 15440, Note_on_c, 1, 34, 37
3, 15463, Note_on_c, 1, 36, 0
3, 15464, Note_on_c, 1, 34, 0
3, 15480, Note_on_c, 1, 39, 65
3, 15600, Note_on_c, 1, 39, 0
3, 15600, Note_on_c, 1, 40, 65
3, 15680, Note_on_c, 1, 30, 82
3, 15691, Note_on_c, 1, 40, 0
3, 15829, Note_on_c, 1, 30, 0
3, 15840, Note_on_c, 1, 29, 51
3, 15920, Note_on_c, 1, 30, 37
3, 15938, Note_on_c, 1, 29, 0
3, 15941, Note_on_c, 1, 30, 0
3, 15960, Note_on_c, 1, 39, 81
3, 16075, Note_on_c, 1, 39, 0
3, 16080, Note_on_c, 1, 38, 57
3, 16160, Note_on_c, 1, 33, 40
3, 16169, Note_on_c, 1, 33, 0
3, 16185, Note_on_c, 1, 38, 0
3, 16200, Note_on_c, 1, 42, 68
3, 16317, Note_on_c, 1, 42, 0
3, 16320, Note_on_c, 1, 43, 55
3, 16400, Note_on_c, 1, 39, 48
3, 16408, Note_on_c, 1, 39, 0
3, 16430, Note_on_c, 1, 43, 0
3, 16440, Note_on_c, 1, 47, 71
3, 16558, Note_on_c, 1, 47, 0
3, 16560, Note_on_c, 1, 48, 71
3, 16670, Note_on_c, 1, 48, 0
3, 16680, Note_on_c, 1, 46, 72
3, 16794, Note_on_c, 1, 46, 0
3, 16800, Note_on_c, 1, 45, 77
3, 16906, Note_on_c, 1, 45, 0
3, 16920, Note_on_c, 1, 45, 75
3, 17018, Note_on_c, 1, 45, 0
3, 17040, Note_on_c, 1, 44, 67
3, 17120, Note_on_c, 1, 32, 67
3, 17132, Note_on_c, 1, 44, 0
3, 17143, Note_on_c, 1, 32, 0
3, 17160, Note_on_c, 1, 30, 59
3, 17273, Note_on_c, 1, 30, 0
3, 17280, Note_on_c, 1, 31, 68
3, 17360, Note_on_c, 1, 30, 46
3, 17388, Note_on_c, 1, 30, 0
3, 17399, Note_on_c, 1, 31, 0
3, 17400, Note_on_c, 1, 43, 66
3, 17506, Note_on_c, 1, 43, 0
3, 17520, Note_on_c, 1, 42, 69
3, 17625, Note_on_c, 1, 42, 0
3, 17640, Note_on_c, 1, 30, 70
3, 17756, Note_on_c, 1, 30, 0
3, 17760, Note_on_c, 1, 29, 55
3, 17840, Note_on_c, 1, 30, 53
3, 17867, Note_on_c, 1, 30, 0
3, 17873, Note_on_c, 1, 29, 0
3, 17880, Note_on_c, 1, 45, 85
3, 17960, Note_on_c, 1, 37, 25
3, 17979, Note_on_c, 1, 45, 0
3, 17985, Note_on_c, 1, 37, 0
3, 18000, Note_on_c, 1, 38, 62
3, 18080, Note_on_c, 1, 37, 36
3, 18120, Note_on_c, 1, 50, 78
3, 18122, Note_on_c, 1, 37, 0
3, 18125, Note_on_c, 1, 38, 0
3, 18200, Note_on_c, 1, 42, 33
3, 18227, Note_on_c, 1, 50, 0
3, 18231, Note_on_c, 1, 42, 0
3, 18240, Note_on_c, 1, 43, 55
3, 18349, Note_on_c, 1, 43, 0
3, 18360, Note_on_c, 1, 37, 76
3, 18440, Note_on_c, 1, 34, 31
3, 18465, Note_on_c, 1, 34, 0
3, 18470, Note_on_c, 1, 37, 0
3, 18480, Note_on_c, 1, 36, 59
3, 18600, Note_on_c, 1, 36, 0
3, 18600, Note_on_c, 1, 34, 67
3, 18680, Note_on_c, 1, 32, 40
3, 18712, Note_on_c, 1, 32, 0
3, 18715, Note_on_c, 1, 34, 0
3, 18720, Note_on_c, 1, 33, 60
3, 18830, Note_on_c, 1, 33, 0
3, 18840, Note_on_c, 1, 31, 69
3, 18953, Note_on_c, 1, 31, 0
3, 18960, Note_on_c, 1, 29, 64
3, 19070, Note_on_c, 1, 29, 0
3, 19080, Note_on_c, 1, 38, 80
3, 19160, Note_on_c, 1, 34, 36
3, 19189, Note_on_c, 1, 34, 0
3, 19193, Note_on_c, 1, 38, 0
3, 19200, Note_on_c, 1, 43, 91
3, 19320, Note_on_c, 1, 32, 78
3, 19322, Note_on_c, 1, 43, 0
3, 19427, Note_on_c, 1, 32, 0
3, 19440, Note_on_c, 1, 31, 60
3, 19520, Note_on_c, 1, 34, 59
3, 19522, Note_on_c, 1, 31, 0
3, 19534, Note_on_c, 1, 34, 0
3, 19560, Note_on_c, 1, 35, 71
3, 19640, Note_on_c, 1, 34, 33
3, 19664, Note_on_c, 1, 34, 0
3, 19674, Note_on_c, 1, 35, 0
3, 19680, Note_on_c, 1, 36, 59
3, 19760, Note_on_c, 1, 48, 105
3, 19773, Note_on_c, 1, 36, 0
3, 19795, Note_on_c, 1, 48, 0
3, 19800, Note_on_c, 1, 46, 53
3, 19880, Note_on_c, 1, 34, 46
3, 19893, Note_on_c, 1, 34, 0
3, 19903, Note_on_c, 1, 46, 0
3, 19920, Note_on_c, 1, 45, 54
3, 20000, Note_on_c, 1, 37, 26
3, 20012, Note_on_c, 1, 45, 0
3, 20021, Note_on_c, 1, 37, 0
3, 20040, Note_on_c, 1, 39, 64
3, 20120, Note_on_c, 1, 37, 34
3, 20146, Note_on_c, 1, 37, 0
3, 20153, Note_on_c, 1, 39, 0
3, 20160, Note_on_c, 1, 38, 54
3, 20240, Note_on_c, 1, 37, 35
3, 20265, Note_on_c, 1, 38, 0
3, 20279, Note_on_c, 1, 37, 0
3, 20280, Note_on_c, 1, 45, 82
3, 20391, Note_on_c, 1, 45, 0
3, 20400, Note_on_c, 1, 43, 64
3, 20505, Note_on_c, 1, 43, 0
3, 20520, Note_on_c, 1, 43, 80
3, 20600, Note_on_c, 1, 38, 51
3, 20610, Note_on_c, 1, 38, 0
3, 20618, Note_on_c, 1, 43, 0
3, 20640, Note_on_c, 1, 40, 64
3, 20751, Note_on_c, 1, 40, 0
3, 20760, Note_on_c, 1, 40, 81
3, 20840, Note_on_c, 1, 38, 38
3, 20848, Note_on_c, 1, 38, 0
3, 20870, Note_on_c, 1, 40, 0
3, 20880, Note_on_c, 1, 40, 66
3, 20960, Note_on_c, 1, 36, 44
3, 20968, Note_on_c, 1, 36, 0
3, 20980, Note_on_c, 1, 40, 0
3, 21000, Note_on_c, 1, 39, 71
3, 21080, Note_on_c, 1, 37, 36
3, 21108, Note_on_c, 1, 39, 0
3, 21110, Note_on_c, 1, 37, 0
3, 21120, Note_on_c, 1, 38, 58
3, 21200, Note_on_c, 1, 37, 38
3, 21229, Note_on_c, 1, 38, 0
3, 21232, Note_on_c, 1, 37, 0
3, 21240, Note_on_c, 1, 48, 105
3, 21320, Note_on_c, 1, 38, 48
3, 21320, Note_on_c, 1, 45, 47
3, 21328, Note_on_c, 1, 48, 0
3, 21330, Note_on_c, 1, 38, 0
3, 21340, Note_on_c, 1, 45, 0
3, 21360, Note_on_c, 1, 47, 78
3, 21440, Note_on_c, 1, 38, 37
3, 21448, Note_on_c, 1, 47, 0
3, 21457, Note_on_c, 1, 38, 0
3, 21480, Note_on_c, 1, 31, 77
3, 21560, Note_on_c, 1, 35, 65
3, 21569, Note_on_c, 1, 31, 0
3, 21586, Note_on_c, 1, 35, 0
3, 21600, Note_on_c, 1, 36, 81
3, 21710, Note_on_c, 1, 36, 0
3, 21720, Note_on_c, 1, 34, 69
3, 21825, Note_on_c, 1, 34, 0
3, 21840, Note_on_c, 1, 33, 68
3, 21957, Note_on_c, 1, 33, 0
3, 21960, Note_on_c, 1, 39, 74
3, 22040, Note_on_c, 1, 34, 34
3, 22048, Note_on_c, 1, 39, 0
3, 22074, Note_on_c, 1, 34, 0
3, 22080, Note_on_c, 1, 38, 54
3, 22160, Note_on_c, 1, 34, 33
3, 22197, Note_on_c, 1, 38, 0
3, 22200, Note_on_c, 1, 45, 91
3, 22204, Note_on_c, 1, 34, 0
3, 22310, Note_on_c, 1, 45, 0
3, 22320, Note_on_c, 1, 43, 64
3, 22400, Note_on_c, 1, 36, 46
3, 22409, Note_on_c, 1, 36, 0
3, 22416, Note_on_c, 1, 43, 0
3, 22440, Note_on_c, 1, 47, 72
3, 22520, Note_on_c, 1, 40, 36
3, 22530, Note_on_c, 1, 40, 0
3, 22552, Note_on_c, 1, 47, 0
3, 22560, Note_on_c, 1, 48, 58
3, 22584, Note_on_c, 1, 48, 0
3, 22600, Note_on_c, 1, 45, 44
3, 22609, Note_on_c, 1, 45, 0
3, 22640, Note_on_c, 1, 39, 78
3, 22674, Note_on_c, 1, 39, 0
3, 22680, Note_on_c, 1, 40, 78
3, 22799, Note_on_c, 1, 40, 0
3, 22800, Note_on_c, 1, 41, 72
3, 22907, Note_on_c, 1, 41, 0
3, 22920, Note_on_c, 1, 42, 70
3, 23033, Note_on_c, 1, 42, 0
3, 23040, Note_on_c, 1, 31, 74
3, 23152, Note_on_c, 1, 31, 0
3, 23160, Note_on_c, 1, 43, 72
3, 23240, Note_on_c, 1, 31, 88
3, 23273, Note_on_c, 1, 43, 0
3, 23400, Note_on_c, 1, 35, 69
3, 23422, Note_on_c, 1, 31, 0
3, 23520, Note_on_c, 1, 35, 0
3, 23520, Note_on_c, 1, 36, 91
3, 23640, Note_on_c, 1, 34, 62
3, 23644, Note_on_c, 1, 36, 0
3, 23742, Note_on_c, 1, 34, 0
3, 23760, Note_on_c, 1, 32, 30
3, 23760, Note_on_c, 1, 33, 51
3, 23770, Note_on_c, 1, 32, 0
3, 23840, Note_on_c, 1, 32, 59
3, 23855, Note_on_c, 1, 33, 0
3, 23866, Note_on_c, 1, 32, 0
3, 23880, Note_on_c, 1, 39, 83
3, 23989, Note_on_c, 1, 39, 0
3, 24000, Note_on_c, 1, 38, 75
3, 24074, Note_on_c, 1, 38, 0
3, 24080, Note_on_c, 1, 33, 62
3, 24097, Note_on_c, 1, 33, 0
3, 24120, Note_on_c, 1, 32, 64
3, 24200, Note_on_c, 1, 30, 36
3, 24223, Note_on_c, 1, 30, 0
3, 24235, Note_on_c, 1, 32, 0
3, 24240, Note_on_c, 1, 31, 66
3, 24320, Note_on_c, 1, 30, 50
3, 24342, Note_on_c, 1, 31, 0
3, 24348, Note_on_c, 1, 30, 0
3, 24360, Note_on_c, 1, 42, 91
3, 24474, Note_on_c, 1, 42, 0
3, 24480, Note_on_c, 1, 41, 75
3, 24560, Note_on_c, 1, 38, 50
3, 24569, Note_on_c, 1, 38, 0
3, 24570, Note_on_c, 1, 41, 0
3, 24600, Note_on_c, 1, 40, 72
3, 24708, Note_on_c, 1, 40, 0
3, 24720, Note_on_c, 1, 39, 59
3, 24815, Note_on_c, 1, 39, 0
3, 24840, Note_on_c, 1, 39, 67
3, 24941, Note_on_c, 1, 39, 0
3, 24960, Note_on_c, 1, 38, 60
3, 25040, Note_on_c, 1, 33, 67
3, 25043, Note_on_c, 1, 38, 0
3, 25061, Note_on_c, 1, 33, 0
3, 25080, Note_on_c, 1, 32, 67
3, 25160, Note_on_c, 1, 30, 39
3, 25182, Note_on_c, 1, 32, 0
3, 25184, Note_on_c, 1, 30, 0
3, 25200, Note_on_c, 1, 31, 67
3, 25280, Note_on_c, 1, 27, 42
3, 25290, Note_on_c, 1, 31, 0
3, 25306, Note_on_c, 1, 27, 0
3, 25320, Note_on_c, 1, 29, 58
3, 25400, Note_on_c, 1, 27, 47
3, 25429, Note_on_c, 1, 27, 0
3, 25432, Note_on_c, 1, 29, 0
3, 25440, Note_on_c, 1, 28, 68
3, 25520, Note_on_c, 1, 27, 67
3, 25543, Note_on_c, 1, 27, 0
3, 25555, Note_on_c, 1, 28, 0
3, 25560, Note_on_c, 1, 40, 75
3, 25640, Note_on_c, 1, 32, 51
3, 25662, Note_on_c, 1, 40, 0
3, 25673, Note_on_c, 1, 32, 0
3, 25680, Note_on_c, 1, 33, 53
3, 25760, Note_on_c, 1, 32, 52
3, 25783, Note_on_c, 1, 32, 0
3, 25783, Note_on_c, 1, 33, 0
3, 25800, Note_on_c, 1, 39, 83
3, 25880, Note_on_c, 1, 33, 37
3, 25893, Note_on_c, 1, 33, 0
3, 25911, Note_on_c, 1, 39, 0
3, 25920, Note_on_c, 1, 38, 64
3, 26000, Note_on_c, 1, 33, 51
3, 26012, Note_on_c, 1, 33, 0
3, 26014, Note_on_c, 1, 38, 0
3, 26040, Note_on_c, 1, 42, 81
3, 26147, Note_on_c, 1, 42, 0
3, 26160, Note_on_c, 1, 43, 69
3, 26240, Note_on_c, 1, 38, 42
3, 26261, Note_on_c, 1, 38, 0
3, 26264, Note_on_c, 1, 43, 0
3, 26280, Note_on_c, 1, 41, 71
3, 26389, Note_on_c, 1, 41, 0
3, 26400, Note_on_c, 1, 40, 63
3, 26500, Note_on_c, 1, 40, 0
3, 26520, Note_on_c, 1, 35, 74
3, 26640, Note_on_c, 1, 36, 69
3, 26643, Note_on_c, 1, 35, 0
3, 26743, Note_on_c, 1, 36, 0
3, 26760, Note_on_c, 1, 31, 71
3, 26861, Note_on_c, 1, 31, 0
3, 26880, Note_on_c, 1, 36, 60
3, 26960, Note_on_c, 1, 34, 33
3, 26969, Note_on_c, 1, 34, 0
3, 26986, Note_on_c, 1, 36, 0
3, 27000, Note_on_c, 1, 39, 59
3, 27106, Note_on_c, 1, 39, 0
3, 27120, Note_on_c, 1, 40, 59
3, 27200, Note_on_c, 1, 36, 51
3, 27211, Note_on_c, 1, 36, 0
3, 27217, Note_on_c, 1, 40, 0
3, 27240, Note_on_c, 1, 43, 79
3, 27240, Note_on_c, 1, 41, 30
3, 27249, Note_on_c, 1, 41, 0
3, 27309, Note_on_c, 1, 43, 0
3, 27320, Note_on_c, 1, 42, 69
3, 27347, Note_on_c, 1, 42, 0
3, 27360, Note_on_c, 1, 41, 64
3, 27472, Note_on_c, 1, 41, 0
3, 27480, Note_on_c, 1, 39, 69
3, 27560, Note_on_c, 1, 34, 32
3, 27569, Note_on_c, 1, 34, 0
3, 27595, Note_on_c, 1, 39, 0
3, 27600, Note_on_c, 1, 38, 68
3, 27630, Note_on_c, 1, 38, 0
3, 27680, Note_on_c, 1, 33, 78
3, 27700, Note_on_c, 1, 33, 0
3, 27720, Note_on_c, 1, 32, 69
3, 27840, Note_on_c, 1, 31, 66
3, 27843, Note_on_c, 1, 32, 0
3, 27920, Note_on_c, 1, 35, 45
3, 27930, Note_on_c, 1, 35, 0
3, 27955, Note_on_c, 1, 31, 0
3, 27960, Note_on_c, 1, 45, 92
3, 28067, Note_on_c, 1, 45, 0
3, 28080, Note_on_c, 1, 43, 60
3, 28160, Note_on_c, 1, 36, 66
3, 28163, Note_on_c, 1, 43, 0
3, 28182, Note_on_c, 1, 36, 0
3, 28200, Note_on_c, 1, 48, 76
3, 28280, Note_on_c, 1, 40, 41
3, 28296, Note_on_c, 1, 48, 0
3, 28307, Note_on_c, 1, 40, 0
3, 28320, Note_on_c, 1, 41, 57
3, 28400, Note_on_c, 1, 39, 32
3, 28415, Note_on_c, 1, 41, 0
3, 28426, Note_on_c, 1, 39, 0
3, 28440, Note_on_c, 1, 41, 63
3, 28520, Note_on_c, 1, 37, 46
3, 28526, Note_on_c, 1, 41, 0
3, 28545, Note_on_c, 1, 37, 0
3, 28560, Note_on_c, 1, 38, 58
3, 28668, Note_on_c, 1, 38, 0
3, 28680, Note_on_c, 1, 34, 60
3, 28770, Note_on_c, 1, 34, 0
3, 28800, Note_on_c, 1, 31, 74
3, 28917, Note_on_c, 1, 31, 0
3, 28920, Note_on_c, 1, 38, 62
3, 29000, Note_on_c, 1, 31, 57
3, 29021, Note_on_c, 1, 31, 0
3, 29023, Note_on_c, 1, 38, 0
3, 29040, Note_on_c, 1, 36, 65
3, 29141, Note_on_c, 1, 36, 0
3, 29160, Note_on_c, 1, 34, 69
3, 29240, Note_on_c, 1, 32, 38
3, 29265, Note_on_c, 1, 34, 0
3, 29274, Note_on_c, 1, 32, 0
3, 29280, Note_on_c, 1, 33, 57
3, 29360, Note_on_c, 1, 32, 50
3, 29376, Note_on_c, 1, 33, 0
3, 29395, Note_on_c, 1, 32, 0
3, 29400, Note_on_c, 1, 33, 71
3, 29510, Note_on_c, 1, 33, 0
3, 29520, Note_on_c, 1, 32, 67
3, 29592, Note_on_c, 1, 32, 0
3, 29600, Note_on_c, 1, 32, 44
3, 29640, Note_on_c, 1, 44, 77
3, 29641, Note_on_c, 1, 32, 0
3, 29720, Note_on_c, 1, 32, 43
3, 29740, Note_on_c, 1, 32, 0
3, 29758, Note_on_c, 1, 44, 0
3, 29760, Note_on_c, 1, 43, 65
3, 29760, Note_on_c, 1, 44, 15
3, 29840, Note_on_c, 1, 36, 55
3, 29849, Note_on_c, 1, 43, 0
3, 29851, Note_on_c, 1, 36, 0
3, 29852, Note_on_c, 1, 44, 0
3, 29880, Note_on_c, 1, 43, 68
3, 29960, Note_on_c, 1, 36, 39
3, 29971, Note_on_c, 1, 36, 0
3, 29972, Note_on_c, 1, 43, 0
3, 30000, Note_on_c, 1, 42, 61
3, 30080, Note_on_c, 1, 36, 25
3, 30088, Note_on_c, 1, 36, 0
3, 30090, Note_on_c, 1, 42, 0
3, 30120, Note_on_c, 1, 42, 62
3, 30200, Note_on_c, 1, 34, 27
3, 30209, Note_on_c, 1, 34, 0
3, 30224, Note_on_c, 1, 42, 0
3, 30240, Note_on_c, 1, 41, 60
3, 30344, Note_on_c, 1, 41, 0
3, 30360, Note_on_c, 1, 35, 71
3, 30440, Note_on_c, 1, 34, 23
3, 30456, Note_on_c, 1, 34, 0
3, 30476, Note_on_c, 1, 35, 0
3, 30480, Note_on_c, 1, 36, 64
3, 30560, Note_on_c, 1, 34, 38
3, 30589, Note_on_c, 1, 36, 0
3, 30599, Note_on_c, 1, 34, 0
3, 30600, Note_on_c, 1, 42, 65
3, 30713, Note_on_c, 1, 42, 0
3, 30720, Note_on_c, 1, 43, 65
3, 30800, Note_on_c, 1, 38, 76
3, 30805, Note_on_c, 1, 43, 0
3, 30820, Note_on_c, 1, 38, 0
3, 30840, Note_on_c, 1, 32, 74
3, 30941, Note_on_c, 1, 32, 0
3, 30960, Note_on_c, 1, 31, 68
3, 31026, Note_on_c, 1, 31, 0
3, 31040, Note_on_c, 1, 34, 55
3, 31061, Note_on_c, 1, 34, 0
3, 31080, Note_on_c, 1, 35, 66
3, 31160, Note_on_c, 1, 34, 33
3, 31184, Note_on_c, 1, 34, 0
3, 31196, Note_on_c, 1, 35, 0
3, 31200, Note_on_c, 1, 36, 58
3, 31280, Note_on_c, 1, 34, 39
3, 31300, Note_on_c, 1, 36, 0
3, 31311, Note_on_c, 1, 34, 0
3, 31320, Note_on_c, 1, 41, 81
3, 31400, Note_on_c, 1, 34, 33
3, 31409, Note_on_c, 1, 34, 0
3, 31432, Note_on_c, 1, 41, 0
3, 31440, Note_on_c, 1, 40, 53
3, 31548, Note_on_c, 1, 40, 0
3, 31560, Note_on_c, 1, 33, 80
3, 31674, Note_on_c, 1, 33, 0
3, 31680, Note_on_c, 1, 38, 62
3, 31680, Note_on_c, 1, 40, 35
3, 31689, Note_on_c, 1, 40, 0
3, 31788, Note_on_c, 1, 38, 0
3, 31800, Note_on_c, 1, 32, 74
3, 31906, Note_on_c, 1, 32, 0
3, 31920, Note_on_c, 1, 31, 66
3, 32021, Note_on_c, 1, 31, 0
3, 32040, Note_on_c, 1, 29, 62
3, 32154, Note_on_c, 1, 29, 0
3, 32160, Note_on_c, 1, 28, 64
3, 32240, Note_on_c, 1, 31, 49
3, 32250, Note_on_c, 1, 31, 0
3, 32279, Note_on_c, 1, 28, 0
3, 32280, Note_on_c, 1, 40, 94
3, 32360, Note_on_c, 1, 30, 36
3, 32380, Note_on_c, 1, 30, 0
3, 32393, Note_on_c, 1, 40, 0
3, 32400, Note_on_c, 1, 33, 85
3, 32480, Note_on_c, 1, 32, 64
3, 32499, Note_on_c, 1, 33, 0
3, 32506, Note_on_c, 1, 32, 0
3, 32520, Note_on_c, 1, 39, 94
3, 32600, Note_on_c, 1, 32, 47
3, 32610, Note_on_c, 1, 32, 0
3, 32627, Note_on_c, 1, 39, 0
3, 32640, Note_on_c, 1, 38, 95
3, 32754, Note_on_c, 1, 38, 0
3, 32760, Note_on_c, 1, 35, 92
3, 32871, Note_on_c, 1, 35, 0
3, 32880, Note_on_c, 1, 32, 90
3, 32995, Note_on_c, 1, 32, 0
3, 33000, Note_on_c, 1, 31, 87
3, 33080, Note_on_c, 1, 28, 69
3, 33104, Note_on_c, 1, 28, 0
3, 33108, Note_on_c, 1, 31, 0
3, 33120, Note_on_c, 1, 36, 110
3, 33231, Note_on_c, 1, 36, 0
3, 33240, Note_on_c, 1, 28, 78
3, 33360, Note_on_c, 1, 33, 87
3, 33366, Note_on_c, 1, 28, 0
3, 33476, Note_on_c, 1, 33, 0
3, 33480, Note_on_c, 1, 32, 77
3, 33591, Note_on_c, 1, 32, 0
3, 33600, Note_on_c, 1, 33, 70
3, 33680, Note_on_c, 1, 32, 52
3, 33689, Note_on_c, 1, 32, 0
3, 33689, Note_on_c, 1, 33, 0
3, 33720, Note_on_c, 1, 38, 99
3, 33839, Note_on_c, 1, 38, 0
3, 33840, Note_on_c, 1, 31, 78
3, 33914, Note_on_c, 1, 31, 0
3, 33920, Note_on_c, 1, 30, 57
3, 33920, Note_on_c, 1, 31, 66
3, 33929, Note_on_c, 1, 30, 0
3, 33952, Note_on_c, 1, 31, 0
3, 33960, Note_on_c, 1, 35, 79
3, 34040, Note_on_c, 1, 31, 61
3, 34060, Note_on_c, 1, 31, 0
3, 34069, Note_on_c, 1, 35, 0
3, 34080, Note_on_c, 1, 36, 76
3, 34144, Note_on_c, 1, 36, 0
3, 34160, Note_on_c, 1, 36, 71
3, 34178, Note_on_c, 1, 36, 0
3, 34200, Note_on_c, 1, 34, 57
3, 34280, Note_on_c, 1, 32, 40
3, 34297, Note_on_c, 1, 34, 0
3, 34310, Note_on_c, 1, 32, 0
3, 34320, Note_on_c, 1, 33, 76
3, 34413, Note_on_c, 1, 33, 0
3, 34440, Note_on_c, 1, 37, 76
3, 34556, Note_on_c, 1, 37, 0
3, 34560, Note_on_c, 1, 38, 85
3, 34660, Note_on_c, 1, 38, 0
3, 34680, Note_on_c, 1, 32, 78
3, 34790, Note_on_c, 1, 32, 0
3, 34800, Note_on_c, 1, 31, 71
3, 34903, Note_on_c, 1, 31, 0
3, 34920, Note_on_c, 1, 37, 81
3, 35027, Note_on_c, 1, 37, 0
3, 35047, Note_on_c, 1, 36, 94
3, 35155, Note_on_c, 1, 36, 0
3, 35167, Note_on_c, 1, 34, 62
3, 35247, Note_on_c, 1, 32, 49
3, 35272, Note_on_c, 1, 32, 0
3, 35272, Note_on_c, 1, 34, 0
3, 35287, Note_on_c, 1, 33, 62
3, 35367, Note_on_c, 1, 32, 51
3, 35391, Note_on_c, 1, 33, 0
3, 35402, Note_on_c, 1, 32, 0
3, 35407, Note_on_c, 1, 39, 84
3, 35517, Note_on_c, 1, 39, 0
3, 35527, Note_on_c, 1, 38, 76
3, 35571, Note_on_c, 1, 38, 0
3, 35607, Note_on_c, 1, 33, 73
3, 35626, Note_on_c, 1, 33, 0
3, 35647, Note_on_c, 1, 32, 74
3, 35727, Note_on_c, 1, 30, 42
3, 35751, Note_on_c, 1, 32, 0
3, 35758, Note_on_c, 1, 30, 0
3, 35767, Note_on_c, 1, 31, 72
3, 35847, Note_on_c, 1, 27, 36
3, 35858, Note_on_c, 1, 31, 0
3, 35878, Note_on_c, 1, 27, 0
3, 35887, Note_on_c, 1, 29, 62
3, 35967, Note_on_c, 1, 27, 47
3, 35980, Note_on_c, 1, 29, 0
3, 35997, Note_on_c, 1, 27, 0
3, 36007, Note_on_c, 1, 28, 57
3, 36087, Note_on_c, 1, 27, 37
3, 36115, Note_on_c, 1, 27, 0
3, 36118, Note_on_c, 1, 28, 0
3, 36127, Note_on_c, 1, 38, 91
3, 36207, Note_on_c, 1, 32, 52
3, 36231, Note_on_c, 1, 38, 0
3, 36234, Note_on_c, 1, 32, 0
3, 36247, Note_on_c, 1, 33, 58
3, 36327, Note_on_c, 1, 32, 47
3, 36348, Note_on_c, 1, 32, 0
3, 36364, Note_on_c, 1, 33, 0
3, 36367, Note_on_c, 1, 40, 84
3, 36447, Note_on_c, 1, 32, 48
3, 36463, Note_on_c, 1, 32, 0
3, 36468, Note_on_c, 1, 40, 0
3, 36487, Note_on_c, 1, 38, 67
3, 36560, Note_on_c, 1, 38, 0
3, 36567, Note_on_c, 1, 33, 75
3, 36591, Note_on_c, 1, 33, 0
3, 36607, Note_on_c, 1, 32, 65
3, 36807, Note_on_c, 1, 30, 65
3, 36807, Note_on_c, 1, 31, 70
3, 36818, Note_on_c, 1, 32, 0
3, 36832, Note_on_c, 1, 30, 0
3, 36887, Note_on_c, 1, 27, 45
3, 36891, Note_on_c, 1, 31, 0
3, 36905, Note_on_c, 1, 27, 0
3, 36927, Note_on_c, 1, 29, 71
3, 36954, Note_on_c, 1, 29, 0
3, 36967, Note_on_c, 1, 28, 75
3, 37052, Note_on_c, 1, 28, 0
3, 37087, Note_on_c, 1, 34, 77
3, 37167, Note_on_c, 1, 30, 26
3, 37183, Note_on_c, 1, 30, 0
3, 37194, Note_on_c, 1, 34, 0
3, 37207, Note_on_c, 1, 33, 62
3, 37287, Note_on_c, 1, 30, 43
3, 37287, Note_on_c, 1, 32, 33
3, 37300, Note_on_c, 1, 32, 0
3, 37312, Note_on_c, 1, 33, 0
3, 37313, Note_on_c, 1, 30, 0
3, 37327, Note_on_c, 1, 45, 78
3, 37407, Note_on_c, 1, 37, 30
3, 37426, Note_on_c, 1, 37, 0
3, 37447, Note_on_c, 1, 38, 58
3, 37451, Note_on_c, 1, 45, 0
3, 37527, Note_on_c, 1, 37, 44
3, 37565, Note_on_c, 1, 37, 0
3, 37566, Note_on_c, 1, 38, 0
3, 37567, Note_on_c, 1, 50, 77
3, 37687, Note_on_c, 1, 31, 67
3, 37694, Note_on_c, 1, 50, 0
3, 37767, Note_on_c, 1, 38, 48
3, 37786, Note_on_c, 1, 38, 0
3, 37807, Note_on_c, 1, 47, 62
3, 37887, Note_on_c, 1, 38, 34
3, 37899, Note_on_c, 1, 38, 0
3, 37902, Note_on_c, 1, 31, 0
3, 37910, Note_on_c, 1, 47, 0
3, 37927, Note_on_c, 1, 48, 77
3, 38030, Note_on_c, 1, 48, 0
3, 38047, Note_on_c, 1, 43, 47
3, 38127, Note_on_c, 1, 36, 53
3, 38137, Note_on_c, 1, 36, 0
3, 38161, Note_on_c, 1, 43, 0
3, 38167, Note_on_c, 1, 40, 49
3, 38276, Note_on_c, 1, 40, 0
3, 38287, Note_on_c, 1, 39, 60
3, 38367, Note_on_c, 1, 37, 31
3, 38384, Note_on_c, 1, 37, 0
3, 38393, Note_on_c, 1, 39, 0
3, 38407, Note_on_c, 1, 38, 53
3, 38487, Note_on_c, 1, 34, 34
3, 38502, Note_on_c, 1, 38, 0
3, 38513, Note_on_c, 1, 34, 0
3, 38527, Note_on_c, 1, 36, 64
3, 38607, Note_on_c, 1, 34, 46
3, 38638, Note_on_c, 1, 34, 0
3, 38642, Note_on_c, 1, 36, 0
3, 38647, Note_on_c, 1, 46, 70
3, 38760, Note_on_c, 1, 46, 0
3, 38767, Note_on_c, 1, 30, 69
3, 38887, Note_on_c, 1, 29, 54
3, 38892, Note_on_c, 1, 30, 0
3, 38967, Note_on_c, 1, 36, 32
3, 38977, Note_on_c, 1, 36, 0
3, 39007, Note_on_c, 1, 38, 69
3, 39008, Note_on_c, 1, 29, 0
3, 39118, Note_on_c, 1, 38, 0
3, 39127, Note_on_c, 1, 36, 42
3, 39207, Note_on_c, 1, 30, 23
3, 39207, Note_on_c, 1, 32, 32
3, 39216, Note_on_c, 1, 32, 0
3, 39216, Note_on_c, 1, 30, 0
3, 39224, Note_on_c, 1, 36, 0
3, 39247, Note_on_c, 1, 37, 65
3, 39352, Note_on_c, 1, 37, 0
3, 39367, Note_on_c, 1, 38, 60
3, 39437, Note_on_c, 1, 38, 0
3, 39447, Note_on_c, 1, 31, 75
3, 39553, Note_on_c, 1, 31, 0
3, 39567, Note_on_c, 1, 31, 52
3, 39587, Note_on_c, 1, 31, 0
3, 39607, Note_on_c, 1, 36, 63
3, 39678, Note_on_c, 1, 36, 0
3, 39687, Note_on_c, 1, 30, 68
3, 39834, Note_on_c, 1, 30, 0
3, 39847, Note_on_c, 1, 29, 43
3, 39948, Note_on_c, 1, 29, 0
3, 39967, Note_on_c, 1, 29, 62
3, 40082, Note_on_c, 1, 29, 0
3, 40087, Note_on_c, 1, 38, 67
3, 40193, Note_on_c, 1, 38, 0
3, 40207, Note_on_c, 1, 38, 55
3, 40320, Note_on_c, 1, 38, 0
3, 40327, Note_on_c, 1, 31, 52
3, 40444, Note_on_c, 1, 31, 0
3, 40447, Note_on_c, 1, 43, 58
3, 40527, Note_on_c, 1, 40, 26
3, 40544, Note_on_c, 1, 40, 0
3, 40559, Note_on_c, 1, 43, 0
3, 40567, Note_on_c, 1, 50, 57
3, 40647, Note_on_c, 1, 43, 40
3, 40647, Note_on_c, 1, 41, 32
3, 40658, Note_on_c, 1, 41, 0
3, 40658, Note_on_c, 1, 43, 0
3, 40675, Note_on_c, 1, 50, 0
3, 40687, Note_on_c, 1, 48, 55
3, 40767, Note_on_c, 1, 41, 43
3, 40778, Note_on_c, 1, 41, 0
3, 40795, Note_on_c, 1, 48, 0
3, 40807, Note_on_c, 1, 45, 58
3, 40887, Note_on_c, 1, 41, 37
3, 40898, Note_on_c, 1, 41, 0
3, 40911, Note_on_c, 1, 45, 0
3, 40927, Note_on_c, 1, 45, 63
3, 41021, Note_on_c, 1, 45, 0
3, 41047, Note_on_c, 1, 44, 61
3, 41127, Note_on_c, 1, 32, 53
3, 41145, Note_on_c, 1, 32, 0
3, 41146, Note_on_c, 1, 44, 0
3, 41167, Note_on_c, 1, 30, 58
3, 41279, Note_on_c, 1, 30, 0
3, 41287, Note_on_c, 1, 31, 58
3, 41367, Note_on_c, 1, 30, 36
3, 41388, Note_on_c, 1, 30, 0
3, 41407, Note_on_c, 1, 44, 61
3, 41410, Note_on_c, 1, 31, 0
3, 41512, Note_on_c, 1, 44, 0
3, 41527, Note_on_c, 1, 43, 35
3, 41624, Note_on_c, 1, 43, 0
3, 41647, Note_on_c, 1, 42, 55
3, 41754, Note_on_c, 1, 42, 0
3, 41767, Note_on_c, 1, 41, 53
3, 41847, Note_on_c, 1, 37, 37
3, 41865, Note_on_c, 1, 41, 0
3, 41868, Note_on_c, 1, 37, 0
3, 41887, Note_on_c, 1, 39, 53
3, 41967, Note_on_c, 1, 37, 29
3, 41989, Note_on_c, 1, 39, 0
3, 41990, Note_on_c, 1, 37, 0
3, 42007, Note_on_c, 1, 38, 47
3, 42115, Note_on_c, 1, 38, 0
3, 42127, Note_on_c, 1, 37, 57
3, 42207, Note_on_c, 1, 34, 31
3, 42233, Note_on_c, 1, 34, 0
3, 42235, Note_on_c, 1, 37, 0
3, 42247, Note_on_c, 1, 38, 52
3, 42365, Note_on_c, 1, 38, 0
3, 42367, Note_on_c, 1, 32, 75
3, 42472, Note_on_c, 1, 32, 0
3, 42487, Note_on_c, 1, 31, 76
3, 42564, Note_on_c, 1, 31, 0
3, 42567, Note_on_c, 1, 34, 64
3, 42588, Note_on_c, 1, 34, 0
3, 42607, Note_on_c, 1, 35, 58
3, 42607, Note_on_c, 1, 36, 60
3, 42636, Note_on_c, 1, 36, 0
3, 42687, Note_on_c, 1, 34, 36
3, 42705, Note_on_c, 1, 34, 0
3, 42718, Note_on_c, 1, 35, 0
3, 42727, Note_on_c, 1, 36, 61
3, 42834, Note_on_c, 1, 36, 0
3, 42847, Note_on_c, 1, 38, 60
3, 42927, Note_on_c, 1, 35, 29
3, 42937, Note_on_c, 1, 35, 0
3, 42949, Note_on_c, 1, 38, 0
3, 42967, Note_on_c, 1, 40, 62
3, 43074, Note_on_c, 1, 40, 0
3, 43087, Note_on_c, 1, 33, 54
3, 43191, Note_on_c, 1, 33, 0
3, 43207, Note_on_c, 1, 38, 66
3, 43312, Note_on_c, 1, 38, 0
3, 43327, Note_on_c, 1, 32, 62
3, 43434, Note_on_c, 1, 32, 0
3, 43447, Note_on_c, 1, 31, 62
3, 43511, Note_on_c, 1, 31, 0
3, 43527, Note_on_c, 1, 31, 73
3, 43548, Note_on_c, 1, 31, 0
3, 43567, Note_on_c, 1, 29, 60
3, 43672, Note_on_c, 1, 29, 0
3, 43687, Note_on_c, 1, 28, 47
3, 43767, Note_on_c, 1, 33, 58
3, 43779, Note_on_c, 1, 33, 0
3, 43794, Note_on_c, 1, 28, 0
3, 43807, Note_on_c, 1, 43, 68
3, 43910, Note_on_c, 1, 43, 0
3, 43927, Note_on_c, 1, 42, 56
3, 44047, Note_on_c, 1, 42, 0
3, 44047, Note_on_c, 1, 37, 69
3, 44127, Note_on_c, 1, 34, 30
3, 44150, Note_on_c, 1, 34, 0
3, 44161, Note_on_c, 1, 37, 0
3, 44167, Note_on_c, 1, 38, 57
3, 44279, Note_on_c, 1, 38, 0
3, 44287, Note_on_c, 1, 32, 68
3, 44393, Note_on_c, 1, 32, 0
3, 44407, Note_on_c, 1, 31, 61
3, 44487, Note_on_c, 1, 32, 31
3, 44487, Note_on_c, 1, 43, 78
3, 44489, Note_on_c, 1, 31, 0
3, 44497, Note_on_c, 1, 32, 0
3, 44506, Note_on_c, 1, 43, 0
3, 44527, Note_on_c, 1, 41, 58
3, 44607, Note_on_c, 1, 35, 26
3, 44618, Note_on_c, 1, 35, 0
3, 44625, Note_on_c, 1, 41, 0
3, 44647, Note_on_c, 1, 40, 49
3, 44727, Note_on_c, 1, 34, 30
3, 44745, Note_on_c, 1, 34, 0
3, 44749, Note_on_c, 1, 40, 0
3, 44767, Note_on_c, 1, 50, 47
3, 44870, Note_on_c, 1, 50, 0
3, 44887, Note_on_c, 1, 45, 33
3, 44976, Note_on_c, 1, 45, 0
3, 45007, Note_on_c, 1, 45, 55
3, 45117, Note_on_c, 1, 45, 0
3, 45127, Note_on_c, 1, 48, 49
3, 45240, Note_on_c, 1, 48, 0
3, 45247, Note_on_c, 1, 41, 48
3, 45327, Note_on_c, 1, 37, 37
3, 45336, Note_on_c, 1, 37, 0
3, 45337, Note_on_c, 1, 41, 0
3, 45367, Note_on_c, 1, 43, 51
3, 45474, Note_on_c, 1, 43, 0
3, 45487, Note_on_c, 1, 31, 69
3, 45567, Note_on_c, 1, 34, 25
3, 45580, Note_on_c, 1, 34, 0
3, 45597, Note_on_c, 1, 31, 0
3, 45607, Note_on_c, 1, 36, 65
3, 45713, Note_on_c, 1, 36, 0
3, 45727, Note_on_c, 1, 34, 49
3, 45807, Note_on_c, 1, 32, 32
3, 45807, Note_on_c, 1, 33, 49
3, 45827, Note_on_c, 1, 34, 0
3, 45834, Note_on_c, 1, 32, 0
3, 45928, Note_on_c, 1, 33, 0
3, 45967, Note_on_c, 1, 35, 62
3, 46047, Note_on_c, 1, 34, 37
3, 46075, Note_on_c, 1, 35, 0
3, 46084, Note_on_c, 1, 34, 0
3, 46087, Note_on_c, 1, 36, 61
3, 46167, Note_on_c, 1, 34, 23
3, 46186, Note_on_c, 1, 36, 0
3, 46195, Note_on_c, 1, 34, 0
3, 46207, Note_on_c, 1, 36, 64
3, 46325, Note_on_c, 1, 36, 0
3, 46327, Note_on_c, 1, 31, 61
3, 46430, Note_on_c, 1, 31, 0
3, 46447, Note_on_c, 1, 35, 57
3, 46560, Note_on_c, 1, 36, 94
3, 46562, Note_on_c, 1, 35, 0
3, 46668, Note_on_c, 1, 36, 0
3, 46680, Note_on_c, 1, 34, 62
3, 46760, Note_on_c, 1, 32, 49
3, 46785, Note_on_c, 1, 32, 0
3, 46785, Note_on_c, 1, 34, 0
3, 46800, Note_on_c, 1, 33, 62
3, 46880, Note_on_c, 1, 32, 51
3, 46904, Note_on_c, 1, 33, 0
3, 46915, Note_on_c, 1, 32, 0
3, 46920, Note_on_c, 1, 39, 84
3, 47030, Note_on_c, 1, 39, 0
3, 47040, Note_on_c, 1, 38, 76
3, 47084, Note_on_c, 1, 38, 0
3, 47120, Note_on_c, 1, 33, 73
3, 47139, Note_on_c, 1, 33, 0
3, 47160, Note_on_c, 1, 32, 74
3, 47240, Note_on_c, 1, 30, 42
3, 47264, Note_on_c, 1, 32, 0
3, 47271, Note_on_c, 1, 30, 0
3, 47280, Note_on_c, 1, 31, 72
3, 47360, Note_on_c, 1, 27, 36
3, 47371, Note_on_c, 1, 31, 0
3, 47391, Note_on_c, 1, 27, 0
3, 47400, Note_on_c, 1, 29, 62
3, 47480, Note_on_c, 1, 27, 47
3, 47493, Note_on_c, 1, 29, 0
3, 47510, Note_on_c, 1, 27, 0
3, 47520, Note_on_c, 1, 28, 57
3, 47600, Note_on_c, 1, 27, 37
3, 47628, Note_on_c, 1, 27, 0
3, 47631, Note_on_c, 1, 28, 0
3, 47640, Note_on_c, 1, 38, 91
3, 47720, Note_on_c, 1, 32, 52
3, 47744, Note_on_c, 1, 38, 0
3, 47747, Note_on_c, 1, 32, 0
3, 47760, Note_on_c, 1, 33, 58
3, 47840, Note_on_c, 1, 32, 47
3, 47861, Note_on_c, 1, 32, 0
3, 47877, Note_on_c, 1, 33, 0
3, 47880, Note_on_c, 1, 40, 84
3, 47960, Note_on_c, 1, 32, 48
3, 47976, Note_on_c, 1, 32, 0
3, 47981, Note_on_c, 1, 40, 0
3, 48000, Note_on_c, 1, 38, 67
3, 48073, Note_on_c, 1, 38, 0
3, 48080, Note_on_c, 1, 33, 75
3, 48104, Note_on_c, 1, 33, 0
3, 48120, Note_on_c, 1, 32, 65
3, 48320, Note_on_c, 1, 30, 65
3, 48320, Note_on_c, 1, 31, 70
3, 48331, Note_on_c, 1, 32, 0
3, 48345, Note_on_c, 1, 30, 0
3, 48400, Note_on_c, 1, 27, 45
3, 48404, Note_on_c, 1, 31, 0
3, 48418, Note_on_c, 1, 27, 0
3, 48440, Note_on_c, 1, 29, 71
3, 48467, Note_on_c, 1, 29, 0
3, 48480, Note_on_c, 1, 28, 75
3, 48565, Note_on_c, 1, 28, 0
3, 48600, Note_on_c, 1, 34, 77
3, 48680, Note_on_c, 1, 30, 26
3, 48696, Note_on_c, 1, 30, 0
3, 48707, Note_on_c, 1, 34, 0
3, 48720, Note_on_c, 1, 33, 62
3, 48800, Note_on_c, 1, 30, 43
3, 48800, Note_on_c, 1, 32, 33
3, 48813, Note_on_c, 1, 32, 0
3, 48825, Note_on_c, 1, 33, 0
3, 48826, Note_on_c, 1, 30, 0
3, 48840, Note_on_c, 1, 45, 78
3, 48920, Note_on_c, 1, 37, 30
3, 48939, Note_on_c, 1, 37, 0
3, 48960, Note_on_c, 1, 38, 58
3, 48964, Note_on_c, 1, 45, 0
3, 49040, Note_on_c, 1, 37, 44
3, 49078, Note_on_c, 1, 37, 0
3, 49079, Note_on_c, 1, 38, 0
3, 49080, Note_on_c, 1, 50, 77
3, 49200, Note_on_c, 1, 31, 67
3, 49207, Note_on_c, 1, 50, 0
3, 49280, Note_on_c, 1, 38, 48
3, 49299, Note_on_c, 1, 38, 0
3, 49320, Note_on_c, 1, 47, 62
3, 49400, Note_on_c, 1, 38, 34
3, 49412, Note_on_c, 1, 38, 0
3, 49415, Note_on_c, 1, 31, 0
3, 49423, Note_on_c, 1, 47, 0
3, 49440, Note_on_c, 1, 48, 77
3, 49543, Note_on_c, 1, 48, 0
3, 49560, Note_on_c, 1, 43, 47
3, 49640, Note_on_c, 1, 36, 53
3, 49650, Note_on_c, 1, 36, 0
3, 49674, Note_on_c, 1, 43, 0
3, 49680, Note_on_c, 1, 40, 49
3, 49789, Note_on_c, 1, 40, 0
3, 49800, Note_on_c, 1, 39, 60
3, 49880, Note_on_c, 1, 37, 31
3, 49897, Note_on_c, 1, 37, 0
3, 49906, Note_on_c, 1, 39, 0
3, 49920, Note_on_c, 1, 38, 53
3, 50000, Note_on_c, 1, 34, 34
3, 50015, Note_on_c, 1, 38, 0
3, 50026, Note_on_c, 1, 34, 0
3, 50040, Note_on_c, 1, 36, 64
3, 50120, Note_on_c, 1, 34, 46
3, 50151, Note_on_c, 1, 34, 0
3, 50155, Note_on_c, 1, 36, 0
3, 50160, Note_on_c, 1, 46, 70
3, 50273, Note_on_c, 1, 46, 0
3, 50280, Note_on_c, 1, 30, 69
3, 50400, Note_on_c, 1, 29, 54
3, 50405, Note_on_c, 1, 30, 0
3, 50480, Note_on_c, 1, 36, 32
3, 50490, Note_on_c, 1, 36, 0
3, 50520, Note_on_c, 1, 38, 69
3, 50521, Note_on_c, 1, 29, 0
3, 50631, Note_on_c, 1, 38, 0
3, 50640, Note_on_c, 1, 36, 42
3, 50720, Note_on_c, 1, 30, 23
3, 50720, Note_on_c, 1, 32, 32
3, 50729, Note_on_c, 1, 32, 0
3, 50729, Note_on_c, 1, 30, 0
3, 50737, Note_on_c, 1, 36, 0
3, 50760, Note_on_c, 1, 37, 65
3, 50865, Note_on_c, 1, 37, 0
3, 50880, Note_on_c, 1, 38, 60
3, 50950, Note_on_c, 1, 38, 0
3, 50960, Note_on_c, 1, 31, 75
3, 51066, Note_on_c, 1, 31, 0
3, 51080, Note_on_c, 1, 31, 52
3, 51100, Note_on_c, 1, 31, 0
3, 51120, Note_on_c, 1, 36, 63
3, 51191, Note_on_c, 1, 36, 0
3, 51200, Note_on_c, 1, 30, 68
3, 51347, Note_on_c, 1, 30, 0
3, 51360, Note_on_c, 1, 29, 43
3, 51461, Note_on_c, 1, 29, 0
3, 51480, Note_on_c, 1, 29, 62
3, 51595, Note_on_c, 1, 29, 0
3, 51600, Note_on_c, 1, 38, 67
3, 51706, Note_on_c, 1, 38, 0
3, 51720, Note_on_c, 1, 38, 55
3, 51833, Note_on_c, 1, 38, 0
3, 51840, Note_on_c, 1, 31, 52
3, 51957, Note_on_c, 1, 31, 0
3, 51960, Note_on_c, 1, 43, 58
3, 52040, Note_on_c, 1, 40, 26
3, 52057, Note_on_c, 1, 40, 0
3, 52072, Note_on_c, 1, 43, 0
3, 52080, Note_on_c, 1, 50, 57
3, 52160, Note_on_c, 1, 43, 40
3, 52160, Note_on_c, 1, 41, 32
3, 52171, Note_on_c, 1, 41, 0
3, 52171, Note_on_c, 1, 43, 0
3, 52188, Note_on_c, 1, 50, 0
3, 52200, Note_on_c, 1, 48, 55
3, 52280, Note_on_c, 1, 41, 43
3, 52291, Note_on_c, 1, 41, 0
3, 52308, Note_on_c, 1, 48, 0
3, 52320, Note_on_c, 1, 45, 58
3, 52400, Note_on_c, 1, 41, 37
3, 52411, Note_on_c, 1, 41, 0
3, 52424, Note_on_c, 1, 45, 0
3, 52440, Note_on_c, 1, 45, 63
3, 52534, Note_on_c, 1, 45, 0
3, 52560, Note_on_c, 1, 44, 61
3, 52640, Note_on_c, 1, 32, 53
3, 52658, Note_on_c, 1, 32, 0
3, 52659, Note_on_c, 1, 44, 0
3, 52680, Note_on_c, 1, 30, 58
3, 52792, Note_on_c, 1, 30, 0
3, 52800, Note_on_c, 1, 31, 58
3, 52880, Note_on_c, 1, 30, 36
3, 52901, Note_on_c, 1, 30, 0
3, 52920, Note_on_c, 1, 44, 61
3, 52923, Note_on_c, 1, 31, 0
3, 53025, Note_on_c, 1, 44, 0
3, 53040, Note_on_c, 1, 43, 35
3, 53137, Note_on_c, 1, 43, 0
3, 53160, Note_on_c, 1, 42, 55
3, 53267, Note_on_c, 1, 42, 0
3, 53280, Note_on_c, 1, 41, 53
3, 53360, Note_on_c, 1, 37, 37
3, 53378, Note_on_c, 1, 41, 0
3, 53381, Note_on_c, 1, 37, 0
3, 53400, Note_on_c, 1, 39, 53
3, 53480, Note_on_c, 1, 37, 29
3, 53502, Note_on_c, 1, 39, 0
3, 53503, Note_on_c, 1, 37, 0
3, 53520, Note_on_c, 1, 38, 47
3, 53628, Note_on_c, 1, 38, 0
3, 53640, Note_on_c, 1, 37, 57
3, 53720, Note_on_c, 1, 34, 31
3, 53746, Note_on_c, 1, 34, 0
3, 53748, Note_on_c, 1, 37, 0
3, 53760, Note_on_c, 1, 38, 52
3, 53878, Note_on_c, 1, 38, 0
3, 53880, Note_on_c, 1, 32, 75
3, 53985, Note_on_c, 1, 32, 0
3, 54000, Note_on_c, 1, 31, 76
3, 54077, Note_on_c, 1, 31, 0
3, 54080, Note_on_c, 1, 34, 64
3, 54101, Note_on_c, 1, 34, 0
3, 54120, Note_on_c, 1, 35, 58
3, 54120, Note_on_c, 1, 36, 60
3, 54149, Note_on_c, 1, 36, 0
3, 54200, Note_on_c, 1, 34, 36
3, 54218, Note_on_c, 1, 34, 0
3, 54231, Note_on_c, 1, 35, 0
3, 54240, Note_on_c, 1, 36, 61
3, 54347, Note_on_c, 1, 36, 0
3, 54360, Note_on_c, 1, 38, 60
3, 54440, Note_on_c, 1, 35, 29
3, 54450, Note_on_c, 1, 35, 0
3, 54462, Note_on_c, 1, 38, 0
3, 54480, Note_on_c, 1, 40, 62
3, 54587, Note_on_c, 1, 40, 0
3, 54600, Note_on_c, 1, 33, 54
3, 54704, Note_on_c, 1, 33, 0
3, 54720, Note_on_c, 1, 38, 66
3, 54825, Note_on_c, 1, 38, 0
3, 54840, Note_on_c, 1, 32, 62
3, 54947, Note_on_c, 1, 32, 0
3, 54960, Note_on_c, 1, 31, 62
3, 55024, Note_on_c, 1, 31, 0
3, 55040, Note_on_c, 1, 31, 73
3, 55061, Note_on_c, 1, 31, 0
3, 55080, Note_on_c, 1, 29, 60
3, 55185, Note_on_c, 1, 29, 0
3, 55200, Note_on_c, 1, 28, 47
3, 55280, Note_on_c, 1, 33, 58
3, 55292, Note_on_c, 1, 33, 0
3, 55307, Note_on_c, 1, 28, 0
3, 55320, Note_on_c, 1, 43, 68
3, 55423, Note_on_c, 1, 43, 0
3, 55440, Note_on_c, 1, 42, 56
3, 55560, Note_on_c, 1, 42, 0
3, 55560, Note_on_c, 1, 37, 69
3, 55640, Note_on_c, 1, 34, 30
3, 55663, Note_on_c, 1, 34, 0
3, 55674, Note_on_c, 1, 37, 0
3, 55680, Note_on_c, 1, 38, 57
3, 55792, Note_on_c, 1, 38, 0
3, 55800, Note_on_c, 1, 32, 68
3, 55906, Note_on_c, 1, 32, 0
3, 55920, Note_on_c, 1, 31, 61
3, 56000, Note_on_c, 1, 32, 31
3, 56000, Note_on_c, 1, 43, 78
3, 56002, Note_on_c, 1, 31, 0
3, 56010, Note_on_c, 1, 32, 0
3, 56019, Note_on_c, 1, 43, 0
3, 56040, Note_on_c, 1, 41, 58
3, 56120, Note_on_c, 1, 35, 26
3, 56131, Note_on_c, 1, 35, 0
3, 56138, Note_on_c, 1, 41, 0
3, 56160, Note_on_c, 1, 40, 49
3, 56240, Note_on_c, 1, 34, 30
3, 56258, Note_on_c, 1, 34, 0
3, 56262, Note_on_c, 1, 40, 0
3, 56280, Note_on_c, 1, 50, 47
3, 56383, Note_on_c, 1, 50, 0
3, 56400, Note_on_c, 1, 45, 33
3, 56489, Note_on_c, 1, 45, 0
3, 56520, Note_on_c, 1, 45, 55
3, 56630, Note_on_c, 1, 45, 0
3, 56640, Note_on_c, 1, 48, 49
3, 56753, Note_on_c, 1, 48, 0
3, 56760, Note_on_c, 1, 41, 48
3, 56840, Note_on_c, 1, 37, 37
3, 56849, Note_on_c, 1, 37, 0
3, 56850, Note_on_c, 1, 41, 0
3, 56880, Note_on_c, 1, 43, 51
3, 56987, Note_on_c, 1, 43, 0
3, 57000, Note_on_c, 1, 31, 69
3, 57080, Note_on_c, 1, 34, 25
3, 57093, Note_on_c, 1, 34, 0
3, 57110, Note_on_c, 1, 31, 0
3, 57120, Note_on_c, 1, 36, 65
3, 57226, Note_on_c, 1, 36, 0
3, 57240, Note_on_c, 1, 34, 49
3, 57320, Note_on_c, 1, 32, 32
3, 57320, Note_on_c, 1, 33, 49
3, 57340, Note_on_c, 1, 34, 0
3, 57347, Note_on_c, 1, 32, 0
3, 57441, Note_on_c, 1, 33, 0
3, 57480, Note_on_c, 1, 35, 62
3, 57560, Note_on_c, 1, 34, 37
3, 57588, Note_on_c, 1, 35, 0
3, 57597, Note_on_c, 1, 34, 0
3, 57600, Note_on_c, 1, 38, 61
3, 57680, Note_on_c, 1, 33, 23
3, 57699, Note_on_c, 1, 38, 0
3, 57708, Note_on_c, 1, 33, 0
3, 57720, Note_on_c, 1, 32, 64
3, 57838, Note_on_c, 1, 32, 0
3, 57840, Note_on_c, 1, 31, 61
3, 57943, Note_on_c, 1, 31, 0
3, 57960, Note_on_c, 1, 35, 57
3, 58075, Note_on_c, 1, 35, 0
3, 58080, Note_on_c, 1, 36, 61
3, 58172, Note_on_c, 1, 36, 0
3, 58200, Note_on_c, 1, 34, 56
3, 58313, Note_on_c, 1, 34, 0
3, 58320, Note_on_c, 1, 33, 54
3, 58412, Note_on_c, 1, 33, 0
3, 58440, Note_on_c, 1, 39, 75
3, 58555, Note_on_c, 1, 39, 0
3, 58560, Note_on_c, 1, 38, 61
3, 58640, Note_on_c, 1, 29, 64
3, 58649, Note_on_c, 1, 38, 0
3, 58658, Note_on_c, 1, 29, 0
3, 58680, Note_on_c, 1, 30, 90
3, 58800, Note_on_c, 1, 31, 113
3, 58807, Note_on_c, 1, 30, 0
3, 58880, Note_on_c, 1, 27, 46
3, 58896, Note_on_c, 1, 31, 0
3, 58915, Note_on_c, 1, 27, 0
3, 58920, Note_on_c, 1, 29, 90
3, 59035, Note_on_c, 1, 29, 0
3, 59040, Note_on_c, 1, 28, 75
3, 59120, Note_on_c, 1, 27, 64
3, 59140, Note_on_c, 1, 27, 0
3, 59160, Note_on_c, 1, 40, 110
3, 59179, Note_on_c, 1, 28, 0
3, 59269, Note_on_c, 1, 40, 0
3, 59280, Note_on_c, 1, 28, 45
3, 59280, Note_on_c, 1, 39, 72
3, 59297, Note_on_c, 1, 28, 0
3, 59360, Note_on_c, 1, 28, 49
3, 59385, Note_on_c, 1, 39, 0
3, 59386, Note_on_c, 1, 28, 0
3, 59400, Note_on_c, 1, 39, 82
3, 59512, Note_on_c, 1, 39, 0
3, 59520, Note_on_c, 1, 38, 66
3, 59600, Note_on_c, 1, 33, 74
3, 59602, Note_on_c, 1, 38, 0
3, 59627, Note_on_c, 1, 33, 0
3, 59640, Note_on_c, 1, 32, 69
3, 59720, Note_on_c, 1, 30, 39
3, 59734, Note_on_c, 1, 32, 0
3, 59742, Note_on_c, 1, 30, 0
3, 59760, Note_on_c, 1, 31, 71
3, 59920, Note_on_c, 1, 30, 55
3, 59935, Note_on_c, 1, 31, 0
3, 59939, Note_on_c, 1, 30, 0
3, 59960, Note_on_c, 1, 29, 36
3, 59985, Note_on_c, 1, 29, 0
3, 60000, Note_on_c, 1, 28, 69
3, 60080, Note_on_c, 1, 33, 34
3, 60090, Note_on_c, 1, 33, 0
3, 60118, Note_on_c, 1, 28, 0
3, 60120, Note_on_c, 1, 40, 95
3, 60200, Note_on_c, 1, 31, 54
3, 60212, Note_on_c, 1, 31, 0
3, 60240, Note_on_c, 1, 40, 0
3, 60240, Note_on_c, 1, 36, 29
3, 60248, Note_on_c, 1, 36, 0
3, 60320, Note_on_c, 1, 33, 76
3, 60440, Note_on_c, 1, 32, 56
3, 60458, Note_on_c, 1, 33, 0
3, 60466, Note_on_c, 1, 32, 0
3, 60480, Note_on_c, 1, 38, 62
3, 60560, Note_on_c, 1, 33, 33
3, 60569, Note_on_c, 1, 33, 0
3, 60588, Note_on_c, 1, 38, 0
3, 60600, Note_on_c, 1, 45, 79
3, 60705, Note_on_c, 1, 45, 0
3, 60720, Note_on_c, 1, 43, 60
3, 60800, Note_on_c, 1, 38, 47
3, 60809, Note_on_c, 1, 38, 0
3, 60830, Note_on_c, 1, 43, 0
3, 60840, Note_on_c, 1, 41, 60
3, 60958, Note_on_c, 1, 41, 0
3, 60960, Note_on_c, 1, 40, 60
3, 61076, Note_on_c, 1, 40, 0
3, 61080, Note_on_c, 1, 35, 63
3, 61196, Note_on_c, 1, 35, 0
3, 61200, Note_on_c, 1, 36, 64
3, 61298, Note_on_c, 1, 36, 0
3, 61320, Note_on_c, 1, 35, 63
3, 61432, Note_on_c, 1, 35, 0
3, 61440, Note_on_c, 1, 36, 60
3, 61520, Note_on_c, 1, 34, 37
3, 61543, Note_on_c, 1, 36, 0
3, 61544, Note_on_c, 1, 34, 0
3, 61560, Note_on_c, 1, 39, 65
3, 61680, Note_on_c, 1, 39, 0
3, 61680, Note_on_c, 1, 40, 65
3, 61760, Note_on_c, 1, 30, 82
3, 61771, Note_on_c, 1, 40, 0
3, 61909, Note_on_c, 1, 30, 0
3, 61920, Note_on_c, 1, 29, 51
3, 62000, Note_on_c, 1, 30, 37
3, 62018, Note_on_c, 1, 29, 0
3, 62021, Note_on_c, 1, 30, 0
3, 62040, Note_on_c, 1, 39, 81
3, 62155, Note_on_c, 1, 39, 0
3, 62160, Note_on_c, 1, 38, 57
3, 62240, Note_on_c, 1, 33, 40
3, 62249, Note_on_c, 1, 33, 0
3, 62265, Note_on_c, 1, 38, 0
3, 62280, Note_on_c, 1, 42, 68
3, 62397, Note_on_c, 1, 42, 0
3, 62400, Note_on_c, 1, 43, 55
3, 62480, Note_on_c, 1, 39, 48
3, 62488, Note_on_c, 1, 39, 0
3, 62510, Note_on_c, 1, 43, 0
3, 62520, Note_on_c, 1, 47, 71
3, 62638, Note_on_c, 1, 47, 0
3, 62640, Note_on_c, 1, 48, 71
3, 62750, Note_on_c, 1, 48, 0
3, 62760, Note_on_c, 1, 46, 72
3, 62874, Note_on_c, 1, 46, 0
3, 62880, Note_on_c, 1, 45, 77
3, 62986, Note_on_c, 1, 45, 0
3, 63000, Note_on_c, 1, 45, 75
3, 63098, Note_on_c, 1, 45, 0
3, 63120, Note_on_c, 1, 44, 67
3, 63200, Note_on_c, 1, 32, 67
3, 63212, Note_on_c, 1, 44, 0
3, 63223, Note_on_c, 1, 32, 0
3, 63240, Note_on_c, 1, 30, 59
3, 63353, Note_on_c, 1, 30, 0
3, 63360, Note_on_c, 1, 31, 68
3, 63440, Note_on_c, 1, 30, 46
3, 63468, Note_on_c, 1, 30, 0
3, 63479, Note_on_c, 1, 31, 0
3, 63480, Note_on_c, 1, 43, 66
3, 63586, Note_on_c, 1, 43, 0
3, 63600, Note_on_c, 1, 42, 69
3, 63705, Note_on_c, 1, 42, 0
3, 63720, Note_on_c, 1, 30, 70
3, 63836, Note_on_c, 1, 30, 0
3, 63840, Note_on_c, 1, 29, 55
3, 63920, Note_on_c, 1, 30, 53
3, 63947, Note_on_c, 1, 30, 0
3, 63953, Note_on_c, 1, 29, 0
3, 63960, Note_on_c, 1, 45, 85
3, 64040, Note_on_c, 1, 37, 25
3, 64059, Note_on_c, 1, 45, 0
3, 64065, Note_on_c, 1, 37, 0
3, 64080, Note_on_c, 1, 38, 62
3, 64160, Note_on_c, 1, 37, 36
3, 64200, Note_on_c, 1, 50, 78
3, 64202, Note_on_c, 1, 37, 0
3, 64205, Note_on_c, 1, 38, 0
3, 64280, Note_on_c, 1, 42, 33
3, 64307, Note_on_c, 1, 50, 0
3, 64311, Note_on_c, 1, 42, 0
3, 64320, Note_on_c, 1, 43, 55
3, 64429, Note_on_c, 1, 43, 0
3, 64440, Note_on_c, 1, 37, 76
3, 64520, Note_on_c, 1, 34, 31
3, 64545, Note_on_c, 1, 34, 0
3, 64550, Note_on_c, 1, 37, 0
3, 64560, Note_on_c, 1, 36, 59
3, 64680, Note_on_c, 1, 36, 0
3, 64680, Note_on_c, 1, 34, 67
3, 64760, Note_on_c, 1, 32, 40
3, 64792, Note_on_c, 1, 32, 0
3, 64795, Note_on_c, 1, 34, 0
3, 64800, Note_on_c, 1, 33, 60
3, 64910, Note_on_c, 1, 33, 0
3, 64920, Note_on_c, 1, 31, 69
3, 65033, Note_on_c, 1, 31, 0
3, 65040, Note_on_c, 1, 29, 64
3, 65150, Note_on_c, 1, 29, 0
3, 65160, Note_on_c, 1, 38, 80
3, 65240, Note_on_c, 1, 34, 36
3, 65269, Note_on_c, 1, 34, 0
3, 65273, Note_on_c, 1, 38, 0
3, 65280, Note_on_c, 1, 43, 91
3, 65400, Note_on_c, 1, 32, 78
3, 65402, Note_on_c, 1, 43, 0
3, 65507, Note_on_c, 1, 32, 0
3, 65520, Note_on_c, 1, 31, 60
3, 65600, Note_on_c, 1, 34, 59
3, 65602, Note_on_c, 1, 31, 0
3, 65614, Note_on_c, 1, 34, 0
3, 65640, Note_on_c, 1, 35, 71
3, 65720, Note_on_c, 1, 34, 33
3, 65744, Note_on_c, 1, 34, 0
3, 65754, Note_on_c, 1, 35, 0
3, 65760, Note_on_c, 1, 36, 59
3, 65840, Note_on_c, 1, 48, 105
3, 65853, Note_on_c, 1, 36, 0
3, 65875, Note_on_c, 1, 48, 0
3, 65880, Note_on_c, 1, 46, 53
3, 65960, Note_on_c, 1, 34, 46
3, 65973, Note_on_c, 1, 34, 0
3, 65983, Note_on_c, 1, 46, 0
3, 66000, Note_on_c, 1, 45, 54
3, 66080, Note_on_c, 1, 37, 26
3, 66092, Note_on_c, 1, 45, 0
3, 66101, Note_on_c, 1, 37, 0
3, 66120, Note_on_c, 1, 39, 64
3, 66200, Note_on_c, 1, 37, 34
3, 66226, Note_on_c, 1, 37, 0
3, 66233, Note_on_c, 1, 39, 0
3, 66240, Note_on_c, 1, 38, 54
3, 66320, Note_on_c, 1, 37, 35
3, 66345, Note_on_c, 1, 38, 0
3, 66359, Note_on_c, 1, 37, 0
3, 66360, Note_on_c, 1, 45, 82
3, 66471, Note_on_c, 1, 45, 0
3, 66480, Note_on_c, 1, 43, 64
3, 66585, Note_on_c, 1, 43, 0
3, 66600, Note_on_c, 1, 43, 80
3, 66680, Note_on_c, 1, 38, 51
3, 66690, Note_on_c, 1, 38, 0
3, 66698, Note_on_c, 1, 43, 0
3, 66720, Note_on_c, 1, 42, 64
3, 66840, Note_on_c, 1, 41, 81
3, 66843, Note_on_c, 1, 42, 0
3, 66920, Note_on_c, 1, 38, 38
3, 66928, Note_on_c, 1, 38, 0
3, 66950, Note_on_c, 1, 41, 0
3, 66960, Note_on_c, 1, 40, 66
3, 67040, Note_on_c, 1, 36, 44
3, 67048, Note_on_c, 1, 36, 0
3, 67060, Note_on_c, 1, 40, 0
3, 67080, Note_on_c, 1, 39, 71
3, 67160, Note_on_c, 1, 37, 36
3, 67188, Note_on_c, 1, 39, 0
3, 67190, Note_on_c, 1, 37, 0
3, 67200, Note_on_c, 1, 38, 58
3, 67280, Note_on_c, 1, 37, 38
3, 67309, Note_on_c, 1, 38, 0
3, 67312, Note_on_c, 1, 37, 0
3, 67320, Note_on_c, 1, 48, 105
3, 67400, Note_on_c, 1, 38, 48
3, 67400, Note_on_c, 1, 45, 47
3, 67408, Note_on_c, 1, 48, 0
3, 67410, Note_on_c, 1, 38, 0
3, 67420, Note_on_c, 1, 45, 0
3, 67440, Note_on_c, 1, 47, 78
3, 67520, Note_on_c, 1, 38, 37
3, 67528, Note_on_c, 1, 47, 0
3, 67537, Note_on_c, 1, 38, 0
3, 67560, Note_on_c, 1, 31, 77
3, 67640, Note_on_c, 1, 35, 65
3, 67649, Note_on_c, 1, 31, 0
3, 67666, Note_on_c, 1, 35, 0
3, 67680, Note_on_c, 1, 36, 81
3, 67790, Note_on_c, 1, 36, 0
3, 67800, Note_on_c, 1, 34, 69
3, 67905, Note_on_c, 1, 34, 0
3, 67920, Note_on_c, 1, 33, 68
3, 68037, Note_on_c, 1, 33, 0
3, 68040, Note_on_c, 1, 39, 74
3, 68120, Note_on_c, 1, 34, 34
3, 68128, Note_on_c, 1, 39, 0
3, 68154, Note_on_c, 1, 34, 0
3, 68160, Note_on_c, 1, 38, 54
3, 68240, Note_on_c, 1, 34, 33
3, 68277, Note_on_c, 1, 38, 0
3, 68280, Note_on_c, 1, 45, 91
3, 68284, Note_on_c, 1, 34, 0
3, 68390, Note_on_c, 1, 45, 0
3, 68400, Note_on_c, 1, 43, 64
3, 68480, Note_on_c, 1, 36, 46
3, 68489, Note_on_c, 1, 36, 0
3, 68496, Note_on_c, 1, 43, 0
3, 68520, Note_on_c, 1, 47, 72
3, 68600, Note_on_c, 1, 40, 36
3, 68610, Note_on_c, 1, 40, 0
3, 68632, Note_on_c, 1, 47, 0
3, 68640, Note_on_c, 1, 48, 58
3, 68664, Note_on_c, 1, 48, 0
3, 68680, Note_on_c, 1, 45, 44
3, 68689, Note_on_c, 1, 45, 0
3, 68720, Note_on_c, 1, 39, 78
3, 68754, Note_on_c, 1, 39, 0
3, 68760, Note_on_c, 1, 40, 78
3, 68879, Note_on_c, 1, 40, 0
3, 68880, Note_on_c, 1, 41, 72
3, 68987, Note_on_c, 1, 41, 0
3, 69000, Note_on_c, 1, 42, 70
3, 69113, Note_on_c, 1, 42, 0
3, 69120, Note_on_c, 1, 31, 74
3, 69232, Note_on_c, 1, 31, 0
3, 69240, Note_on_c, 1, 43, 72
3, 69320, Note_on_c, 1, 36, 88
3, 69353, Note_on_c, 1, 43, 0
3, 69502, Note_on_c, 1, 36, 0
3, 69502, End_track
4, 0, Start_track
4, 0, Title_t, "Drums - brush set"
4, 125, Program_c, 9, 40
4, 9730, Note_on_c, 9, 44, 34
4, 9770, Note_on_c, 9, 44, 0
4, 9961, Note_on_c, 9, 44, 38
4, 10000, Note_on_c, 9, 44, 0
4, 10191, Note_on_c, 9, 44, 45
4, 10219, Note_on_c, 9, 44, 0
4, 10438, Note_on_c, 9, 44, 37
4, 10468, Note_on_c, 9, 44, 0
4, 10684, Note_on_c, 9, 46, 36
4, 10707, Note_on_c, 9, 46, 0
4, 10918, Note_on_c, 9, 44, 38
4, 10957, Note_on_c, 9, 44, 0
4, 11162, Note_on_c, 9, 44, 42
4, 11201, Note_on_c, 9, 44, 0
4, 11405, Note_on_c, 9, 44, 51
4, 11447, Note_on_c, 9, 44, 0
4, 11525, Note_on_c, 9, 40, 27
4, 11529, Note_on_c, 9, 38, 35
4, 11561, Note_on_c, 9, 40, 0
4, 11562, Note_on_c, 9, 38, 0
4, 11642, Note_on_c, 9, 44, 59
4, 11677, Note_on_c, 9, 44, 0
4, 11840, Note_on_c, 9, 39, 64
4, 11859, Note_on_c, 9, 39, 0
4, 11870, Note_on_c, 9, 44, 51
4, 11876, Note_on_c, 9, 40, 25
4, 11884, Note_on_c, 9, 38, 27
4, 11885, Note_on_c, 9, 39, 53
4, 11900, Note_on_c, 9, 44, 0
4, 11909, Note_on_c, 9, 39, 0
4, 11909, Note_on_c, 9, 38, 0
4, 11911, Note_on_c, 9, 40, 0
4, 11956, Note_on_c, 9, 36, 62
4, 11965, Note_on_c, 9, 36, 0
4, 11987, Note_on_c, 9, 46, 44
4, 11990, Note_on_c, 9, 36, 62
4, 11991, Note_on_c, 9, 40, 20
4, 11995, Note_on_c, 9, 46, 0
4, 11998, Note_on_c, 9, 38, 29
4, 12000, Note_on_c, 9, 40, 40
4, 12000, Note_on_c, 9, 38, 61
4, 12005, Note_on_c, 9, 36, 0
4, 12021, Note_on_c, 9, 38, 0
4, 12044, Note_on_c, 9, 40, 0
4, 12056, Note_on_c, 9, 38, 0
4, 12064, Note_on_c, 9, 40, 0
4, 12120, Note_on_c, 9, 40, 29
4, 12120, Note_on_c, 9, 38, 57
4, 12120, Note_on_c, 9, 44, 69
4, 12180, Note_on_c, 9, 38, 0
4, 12186, Note_on_c, 9, 44, 0
4, 12200, Note_on_c, 9, 39, 67
4, 12201, Note_on_c, 9, 40, 0
4, 12234, Note_on_c, 9, 39, 0
4, 12240, Note_on_c, 9, 38, 49
4, 12240, Note_on_c, 9, 40, 26
4, 12313, Note_on_c, 9, 40, 0
4, 12324, Note_on_c, 9, 38, 0
4, 12360, Note_on_c, 9, 40, 23
4, 12360, Note_on_c, 9, 38, 58
4, 12360, Note_on_c, 9, 44, 67
4, 12416, Note_on_c, 9, 44, 0
4, 12431, Note_on_c, 9, 40, 0
4, 12433, Note_on_c, 9, 38, 0
4, 12480, Note_on_c, 9, 40, 26
4, 12480, Note_on_c, 9, 38, 48
4, 12562, Note_on_c, 9, 40, 0
4, 12570, Note_on_c, 9, 38, 0
4, 12600, Note_on_c, 9, 38, 48
4, 12600, Note_on_c, 9, 40, 25
4, 12600, Note_on_c, 9, 44, 56
4, 12650, Note_on_c, 9, 38, 0
4, 12673, Note_on_c, 9, 44, 0
4, 12680, Note_on_c, 9, 38, 68
4, 12680, Note_on_c, 9, 36, 24
4, 12691, Note_on_c, 9, 36, 0
4, 12694, Note_on_c, 9, 38, 0
4, 12694, Note_on_c, 9, 40, 0
4, 12720, Note_on_c, 9, 40, 21
4, 12720, Note_on_c, 9, 38, 61
4, 12720, Note_on_c, 9, 36, 27
4, 12752, Note_on_c, 9, 36, 0
4, 12808, Note_on_c, 9, 40, 0
4, 12815, Note_on_c, 9, 38, 0
4, 12840, Note_on_c, 9, 38, 47
4, 12840, Note_on_c, 9, 40, 27
4, 12840, Note_on_c, 9, 44, 64
4, 12897, Note_on_c, 9, 38, 0
4, 12903, Note_on_c, 9, 40, 0
4, 12920, Note_on_c, 9, 38, 66
4, 12920, Note_on_c, 9, 36, 50
4, 12922, Note_on_c, 9, 44, 0
4, 12929, Note_on_c, 9, 36, 0
4, 12938, Note_on_c, 9, 38, 0
4, 12960, Note_on_c, 9, 40, 33
4, 12960, Note_on_c, 9, 38, 41
4, 13036, Note_on_c, 9, 40, 0
4, 13037, Note_on_c, 9, 38, 0
4, 13040, Note_on_c, 9, 38, 74
4, 13040, Note_on_c, 9, 40, 43
4, 13061, Note_on_c, 9, 40, 0
4, 13080, Note_on_c, 9, 40, 23
4, 13080, Note_on_c, 9, 44, 63
4, 13124, Note_on_c, 9, 44, 0
4, 13168, Note_on_c, 9, 40, 0
4, 13173, Note_on_c, 9, 38, 0
4, 13200, Note_on_c, 9, 40, 31
4, 13200, Note_on_c, 9, 38, 51
4, 13283, Note_on_c, 9, 40, 0
4, 13292, Note_on_c, 9, 38, 0
4, 13320, Note_on_c, 9, 38, 53
4, 13320, Note_on_c, 9, 40, 33
4, 13320, Note_on_c, 9, 46, 38
4, 13345, Note_on_c, 9, 46, 0
4, 13397, Note_on_c, 9, 40, 0
4, 13399, Note_on_c, 9, 38, 0
4, 13400, Note_on_c, 9, 39, 65
4, 13428, Note_on_c, 9, 39, 0
4, 13440, Note_on_c, 9, 38, 45
4, 13440, Note_on_c, 9, 40, 26
4, 13501, Note_on_c, 9, 40, 0
4, 13511, Note_on_c, 9, 38, 0
4, 13520, Note_on_c, 9, 39, 57
4, 13520, Note_on_c, 9, 40, 33
4, 13520, Note_on_c, 9, 38, 50
4, 13539, Note_on_c, 9, 39, 0
4, 13560, Note_on_c, 9, 44, 53
4, 13608, Note_on_c, 9, 44, 0
4, 13635, Note_on_c, 9, 38, 0
4, 13636, Note_on_c, 9, 40, 0
4, 13680, Note_on_c, 9, 40, 32
4, 13680, Note_on_c, 9, 38, 47
4, 13719, Note_on_c, 9, 38, 0
4, 13762, Note_on_c, 9, 40, 0
4, 13800, Note_on_c, 9, 40, 34
4, 13800, Note_on_c, 9, 38, 54
4, 13800, Note_on_c, 9, 44, 57
4, 13826, Note_on_c, 9, 38, 0
4, 13828, Note_on_c, 9, 44, 0
4, 13838, Note_on_c, 9, 40, 0
4, 13840, Note_on_c, 9, 39, 52
4, 13856, Note_on_c, 9, 39, 0
4, 13880, Note_on_c, 9, 39, 55
4, 13880, Note_on_c, 9, 36, 57
4, 13891, Note_on_c, 9, 39, 0
4, 13903, Note_on_c, 9, 36, 0
4, 13920, Note_on_c, 9, 40, 25
4, 13920, Note_on_c, 9, 38, 44
4, 13920, Note_on_c, 9, 36, 44
4, 13981, Note_on_c, 9, 36, 0
4, 13984, Note_on_c, 9, 38, 0
4, 13990, Note_on_c, 9, 40, 0
4, 14000, Note_on_c, 9, 39, 55
4, 14000, Note_on_c, 9, 36, 47
4, 14013, Note_on_c, 9, 36, 0
4, 14014, Note_on_c, 9, 39, 0
4, 14040, Note_on_c, 9, 38, 38
4, 14040, Note_on_c, 9, 40, 24
4, 14040, Note_on_c, 9, 44, 53
4, 14068, Note_on_c, 9, 44, 0
4, 14117, Note_on_c, 9, 38, 0
4, 14120, Note_on_c, 9, 40, 0
4, 14160, Note_on_c, 9, 40, 32
4, 14160, Note_on_c, 9, 38, 45
4, 14223, Note_on_c, 9, 38, 0
4, 14236, Note_on_c, 9, 40, 0
4, 14280, Note_on_c, 9, 40, 34
4, 14280, Note_on_c, 9, 38, 45
4, 14280, Note_on_c, 9, 44, 50
4, 14318, Note_on_c, 9, 44, 0
4, 14357, Note_on_c, 9, 38, 0
4, 14360, Note_on_c, 9, 39, 68
4, 14362, Note_on_c, 9, 40, 0
4, 14374, Note_on_c, 9, 39, 0
4, 14400, Note_on_c, 9, 40, 27
4, 14400, Note_on_c, 9, 38, 38
4, 14484, Note_on_c, 9, 38, 0
4, 14485, Note_on_c, 9, 40, 0
4, 14520, Note_on_c, 9, 40, 30
4, 14520, Note_on_c, 9, 38, 48
4, 14520, Note_on_c, 9, 44, 50
4, 14544, Note_on_c, 9, 44, 0
4, 14605, Note_on_c, 9, 38, 0
4, 14605, Note_on_c, 9, 40, 0
4, 14640, Note_on_c, 9, 40, 26
4, 14640, Note_on_c, 9, 38, 49
4, 14710, Note_on_c, 9, 38, 0
4, 14714, Note_on_c, 9, 40, 0
4, 14720, Note_on_c, 9, 39, 40
4, 14727, Note_on_c, 9, 39, 0
4, 14760, Note_on_c, 9, 40, 20
4, 14760, Note_on_c, 9, 38, 33
4, 14760, Note_on_c, 9, 44, 49
4, 14791, Note_on_c, 9, 44, 0
4, 14795, Note_on_c, 9, 38, 0
4, 14807, Note_on_c, 9, 40, 0
4, 14840, Note_on_c, 9, 40, 38
4, 14840, Note_on_c, 9, 38, 62
4, 14854, Note_on_c, 9, 38, 0
4, 14858, Note_on_c, 9, 40, 0
4, 14880, Note_on_c, 9, 40, 34
4, 14880, Note_on_c, 9, 38, 53
4, 14946, Note_on_c, 9, 38, 0
4, 14956, Note_on_c, 9, 40, 0
4, 15000, Note_on_c, 9, 40, 25
4, 15000, Note_on_c, 9, 38, 48
4, 15000, Note_on_c, 9, 46, 45
4, 15000, Note_on_c, 9, 37, 49
4, 15020, Note_on_c, 9, 37, 0
4, 15027, Note_on_c, 9, 46, 0
4, 15053, Note_on_c, 9, 38, 0
4, 15071, Note_on_c, 9, 40, 0
4, 15120, Note_on_c, 9, 40, 24
4, 15120, Note_on_c, 9, 38, 52
4, 15148, Note_on_c, 9, 38, 0
4, 15151, Note_on_c, 9, 40, 0
4, 15160, Note_on_c, 9, 39, 51
4, 15184, Note_on_c, 9, 39, 0
4, 15200, Note_on_c, 9, 40, 25
4, 15200, Note_on_c, 9, 38, 45
4, 15222, Note_on_c, 9, 40, 0
4, 15223, Note_on_c, 9, 38, 0
4, 15240, Note_on_c, 9, 38, 53
4, 15240, Note_on_c, 9, 40, 25
4, 15240, Note_on_c, 9, 44, 37
4, 15281, Note_on_c, 9, 44, 0
4, 15300, Note_on_c, 9, 38, 0
4, 15309, Note_on_c, 9, 40, 0
4, 15320, Note_on_c, 9, 39, 35
4, 15320, Note_on_c, 9, 40, 28
4, 15320, Note_on_c, 9, 38, 11
4, 15320, Note_on_c, 9, 36, 56
4, 15329, Note_on_c, 9, 39, 0
4, 15340, Note_on_c, 9, 40, 0
4, 15345, Note_on_c, 9, 38, 0
4, 15345, Note_on_c, 9, 36, 0
4, 15360, Note_on_c, 9, 40, 24
4, 15360, Note_on_c, 9, 36, 32
4, 15373, Note_on_c, 9, 40, 0
4, 15384, Note_on_c, 9, 36, 0
4, 15440, Note_on_c, 9, 38, 48
4, 15440, Note_on_c, 9, 40, 34
4, 15472, Note_on_c, 9, 40, 0
4, 15478, Note_on_c, 9, 38, 0
4, 15480, Note_on_c, 9, 39, 42
4, 15480, Note_on_c, 9, 44, 52
4, 15489, Note_on_c, 9, 39, 0
4, 15518, Note_on_c, 9, 44, 0
4, 15520, Note_on_c, 9, 39, 51
4, 15534, Note_on_c, 9, 39, 0
4, 15560, Note_on_c, 9, 40, 36
4, 15560, Note_on_c, 9, 38, 48
4, 15582, Note_on_c, 9, 40, 0
4, 15588, Note_on_c, 9, 38, 0
4, 15600, Note_on_c, 9, 39, 32
4, 15615, Note_on_c, 9, 39, 0
4, 15680, Note_on_c, 9, 40, 42
4, 15680, Note_on_c, 9, 38, 58
4, 15680, Note_on_c, 9, 46, 55
4, 15688, Note_on_c, 9, 38, 0
4, 15696, Note_on_c, 9, 40, 0
4, 15705, Note_on_c, 9, 46, 0
4, 15720, Note_on_c, 9, 39, 53
4, 15734, Note_on_c, 9, 39, 0
4, 15760, Note_on_c, 9, 39, 59
4, 15771, Note_on_c, 9, 39, 0
4, 15800, Note_on_c, 9, 40, 47
4, 15800, Note_on_c, 9, 38, 69
4, 15817, Note_on_c, 9, 38, 0
4, 15817, Note_on_c, 9, 40, 0
4, 15840, Note_on_c, 9, 40, 26
4, 15840, Note_on_c, 9, 38, 45
4, 15840, Note_on_c, 9, 46, 52
4, 15855, Note_on_c, 9, 46, 0
4, 15874, Note_on_c, 9, 38, 0
4, 15884, Note_on_c, 9, 40, 0
4, 15960, Note_on_c, 9, 40, 31
4, 15960, Note_on_c, 9, 38, 44
4, 15960, Note_on_c, 9, 44, 55
4, 15992, Note_on_c, 9, 44, 0
4, 16035, Note_on_c, 9, 38, 0
4, 16038, Note_on_c, 9, 40, 0
4, 16080, Note_on_c, 9, 40, 21
4, 16080, Note_on_c, 9, 38, 44
4, 16138, Note_on_c, 9, 38, 0
4, 16142, Note_on_c, 9, 40, 0
4, 16160, Note_on_c, 9, 36, 32
4, 16170, Note_on_c, 9, 36, 0
4, 16200, Note_on_c, 9, 40, 29
4, 16200, Note_on_c, 9, 38, 44
4, 16200, Note_on_c, 9, 46, 32
4, 16224, Note_on_c, 9, 46, 0
4, 16268, Note_on_c, 9, 38, 0
4, 16279, Note_on_c, 9, 40, 0
4, 16280, Note_on_c, 9, 39, 52
4, 16305, Note_on_c, 9, 39, 0
4, 16320, Note_on_c, 9, 38, 41
4, 16320, Note_on_c, 9, 40, 26
4, 16320, Note_on_c, 9, 36, 43
4, 16335, Note_on_c, 9, 36, 0
4, 16393, Note_on_c, 9, 40, 0
4, 16401, Note_on_c, 9, 38, 0
4, 16440, Note_on_c, 9, 40, 28
4, 16440, Note_on_c, 9, 38, 40
4, 16440, Note_on_c, 9, 44, 40
4, 16469, Note_on_c, 9, 44, 0
4, 16511, Note_on_c, 9, 38, 0
4, 16519, Note_on_c, 9, 40, 0
4, 16520, Note_on_c, 9, 36, 39
4, 16532, Note_on_c, 9, 36, 0
4, 16560, Note_on_c, 9, 40, 25
4, 16560, Note_on_c, 9, 38, 42
4, 16626, Note_on_c, 9, 38, 0
4, 16628, Note_on_c, 9, 40, 0
4, 16680, Note_on_c, 9, 40, 28
4, 16680, Note_on_c, 9, 38, 45
4, 16680, Note_on_c, 9, 44, 49
4, 16703, Note_on_c, 9, 40, 0
4, 16704, Note_on_c, 9, 38, 0
4, 16715, Note_on_c, 9, 44, 0
4, 16760, Note_on_c, 9, 38, 60
4, 16760, Note_on_c, 9, 40, 32
4, 16770, Note_on_c, 9, 40, 0
4, 16778, Note_on_c, 9, 38, 0
4, 16800, Note_on_c, 9, 38, 40
4, 16800, Note_on_c, 9, 40, 20
4, 16860, Note_on_c, 9, 40, 0
4, 16864, Note_on_c, 9, 38, 0
4, 16920, Note_on_c, 9, 40, 25
4, 16920, Note_on_c, 9, 38, 45
4, 16920, Note_on_c, 9, 44, 51
4, 16961, Note_on_c, 9, 44, 0
4, 16984, Note_on_c, 9, 38, 0
4, 16985, Note_on_c, 9, 40, 0
4, 17040, Note_on_c, 9, 40, 25
4, 17040, Note_on_c, 9, 38, 37
4, 17127, Note_on_c, 9, 40, 0
4, 17128, Note_on_c, 9, 38, 0
4, 17160, Note_on_c, 9, 40, 25
4, 17160, Note_on_c, 9, 38, 46
4, 17160, Note_on_c, 9, 44, 57
4, 17198, Note_on_c, 9, 44, 0
4, 17243, Note_on_c, 9, 40, 0
4, 17245, Note_on_c, 9, 38, 0
4, 17280, Note_on_c, 9, 40, 24
4, 17280, Note_on_c, 9, 38, 44
4, 17353, Note_on_c, 9, 38, 0
4, 17355, Note_on_c, 9, 40, 0
4, 17360, Note_on_c, 9, 39, 57
4, 17384, Note_on_c, 9, 39, 0
4, 17400, Note_on_c, 9, 38, 36
4, 17400, Note_on_c, 9, 40, 21
4, 17400, Note_on_c, 9, 44, 61
4, 17400, Note_on_c, 9, 59, 28
4, 17414, Note_on_c, 9, 59, 0
4, 17442, Note_on_c, 9, 44, 0
4, 17480, Note_on_c, 9, 59, 60
4, 17488, Note_on_c, 9, 40, 0
4, 17490, Note_on_c, 9, 59, 0
4, 17501, Note_on_c, 9, 38, 0
4, 17520, Note_on_c, 9, 40, 27
4, 17520, Note_on_c, 9, 38, 33
4, 17595, Note_on_c, 9, 40, 0
4, 17597, Note_on_c, 9, 38, 0
4, 17600, Note_on_c, 9, 39, 60
4, 17600, Note_on_c, 9, 36, 47
4, 17613, Note_on_c, 9, 36, 0
4, 17633, Note_on_c, 9, 39, 0
4, 17640, Note_on_c, 9, 38, 32
4, 17640, Note_on_c, 9, 40, 22
4, 17640, Note_on_c, 9, 44, 67
4, 17640, Note_on_c, 9, 36, 49
4, 17679, Note_on_c, 9, 36, 0
4, 17682, Note_on_c, 9, 40, 0
4, 17687, Note_on_c, 9, 44, 0
4, 17690, Note_on_c, 9, 38, 0
4, 17720, Note_on_c, 9, 39, 60
4, 17720, Note_on_c, 9, 36, 57
4, 17749, Note_on_c, 9, 36, 0
4, 17757, Note_on_c, 9, 39, 0
4, 17760, Note_on_c, 9, 40, 22
4, 17760, Note_on_c, 9, 38, 40
4, 17837, Note_on_c, 9, 40, 0
4, 17844, Note_on_c, 9, 38, 0
4, 17880, Note_on_c, 9, 40, 23
4, 17880, Note_on_c, 9, 38, 39
4, 17880, Note_on_c, 9, 44, 56
4, 17931, Note_on_c, 9, 44, 0
4, 17955, Note_on_c, 9, 38, 0
4, 17960, Note_on_c, 9, 40, 0
4, 18000, Note_on_c, 9, 38, 42
4, 18000, Note_on_c, 9, 40, 25
4, 18061, Note_on_c, 9, 40, 0
4, 18064, Note_on_c, 9, 38, 0
4, 18120, Note_on_c, 9, 40, 30
4, 18120, Note_on_c, 9, 38, 47
4, 18120, Note_on_c, 9, 44, 58
4, 18158, Note_on_c, 9, 44, 0
4, 18186, Note_on_c, 9, 38, 0
4, 18199, Note_on_c, 9, 40, 0
4, 18200, Note_on_c, 9, 39, 67
4, 18223, Note_on_c, 9, 39, 0
4, 18240, Note_on_c, 9, 38, 46
4, 18240, Note_on_c, 9, 40, 20
4, 18315, Note_on_c, 9, 40, 0
4, 18331, Note_on_c, 9, 38, 0
4, 18360, Note_on_c, 9, 40, 31
4, 18360, Note_on_c, 9, 38, 46
4, 18360, Note_on_c, 9, 44, 61
4, 18395, Note_on_c, 9, 44, 0
4, 18440, Note_on_c, 9, 40, 0
4, 18443, Note_on_c, 9, 38, 0
4, 18480, Note_on_c, 9, 40, 25
4, 18480, Note_on_c, 9, 38, 40
4, 18518, Note_on_c, 9, 38, 0
4, 18519, Note_on_c, 9, 40, 0
4, 18520, Note_on_c, 9, 39, 55
4, 18537, Note_on_c, 9, 39, 0
4, 18560, Note_on_c, 9, 39, 59
4, 18560, Note_on_c, 9, 36, 36
4, 18571, Note_on_c, 9, 36, 0
4, 18575, Note_on_c, 9, 39, 0
4, 18600, Note_on_c, 9, 40, 21
4, 18600, Note_on_c, 9, 38, 31
4, 18600, Note_on_c, 9, 44, 58
4, 18638, Note_on_c, 9, 44, 0
4, 18639, Note_on_c, 9, 38, 0
4, 18640, Note_on_c, 9, 39, 62
4, 18642, Note_on_c, 9, 40, 0
4, 18654, Note_on_c, 9, 39, 0
4, 18680, Note_on_c, 9, 40, 36
4, 18680, Note_on_c, 9, 38, 47
4, 18707, Note_on_c, 9, 40, 0
4, 18708, Note_on_c, 9, 38, 0
4, 18720, Note_on_c, 9, 40, 39
4, 18720, Note_on_c, 9, 38, 40
4, 18720, Note_on_c, 9, 36, 44
4, 18735, Note_on_c, 9, 36, 0
4, 18775, Note_on_c, 9, 38, 0
4, 18780, Note_on_c, 9, 40, 0
4, 18840, Note_on_c, 9, 40, 27
4, 18840, Note_on_c, 9, 38, 39
4, 18840, Note_on_c, 9, 44, 61
4, 18876, Note_on_c, 9, 44, 0
4, 18900, Note_on_c, 9, 38, 0
4, 18911, Note_on_c, 9, 40, 0
4, 18920, Note_on_c, 9, 39, 55
4, 18948, Note_on_c, 9, 39, 0
4, 18960, Note_on_c, 9, 40, 24
4, 18960, Note_on_c, 9, 38, 34
4, 19032, Note_on_c, 9, 40, 0
4, 19034, Note_on_c, 9, 38, 0
4, 19080, Note_on_c, 9, 40, 31
4, 19080, Note_on_c, 9, 38, 45
4, 19080, Note_on_c, 9, 44, 64
4, 19126, Note_on_c, 9, 44, 0
4, 19163, Note_on_c, 9, 40, 0
4, 19167, Note_on_c, 9, 38, 0
4, 19200, Note_on_c, 9, 40, 27
4, 19200, Note_on_c, 9, 38, 43
4, 19270, Note_on_c, 9, 38, 0
4, 19273, Note_on_c, 9, 40, 0
4, 19320, Note_on_c, 9, 40, 26
4, 19320, Note_on_c, 9, 38, 44
4, 19320, Note_on_c, 9, 44, 62
4, 19382, Note_on_c, 9, 44, 0
4, 19385, Note_on_c, 9, 38, 0
4, 19392, Note_on_c, 9, 40, 0
4, 19440, Note_on_c, 9, 40, 29
4, 19440, Note_on_c, 9, 38, 44
4, 19505, Note_on_c, 9, 40, 0
4, 19512, Note_on_c, 9, 38, 0
4, 19520, Note_on_c, 9, 39, 51
4, 19520, Note_on_c, 9, 36, 35
4, 19530, Note_on_c, 9, 36, 0
4, 19560, Note_on_c, 9, 44, 65
4, 19560, Note_on_c, 9, 37, 67
4, 19578, Note_on_c, 9, 37, 0
4, 19588, Note_on_c, 9, 39, 0
4, 19617, Note_on_c, 9, 44, 0
4, 19640, Note_on_c, 9, 57, 66
4, 19640, Note_on_c, 9, 38, 58
4, 19640, Note_on_c, 9, 40, 36
4, 19640, Note_on_c, 9, 36, 60
4, 19648, Note_on_c, 9, 57, 0
4, 19660, Note_on_c, 9, 36, 0
4, 19680, Note_on_c, 9, 36, 48
4, 19718, Note_on_c, 9, 36, 0
4, 19786, Note_on_c, 9, 40, 0
4, 19789, Note_on_c, 9, 38, 0
4, 19800, Note_on_c, 9, 39, 42
4, 19800, Note_on_c, 9, 44, 60
4, 19838, Note_on_c, 9, 44, 0
4, 19852, Note_on_c, 9, 39, 0
4, 19880, Note_on_c, 9, 40, 46
4, 19880, Note_on_c, 9, 38, 70
4, 19880, Note_on_c, 9, 36, 55
4, 19888, Note_on_c, 9, 36, 0
4, 19903, Note_on_c, 9, 40, 0
4, 19920, Note_on_c, 9, 40, 16
4, 20002, Note_on_c, 9, 40, 0
4, 20012, Note_on_c, 9, 38, 0
4, 20040, Note_on_c, 9, 40, 21
4, 20040, Note_on_c, 9, 38, 43
4, 20040, Note_on_c, 9, 44, 57
4, 20082, Note_on_c, 9, 44, 0
4, 20120, Note_on_c, 9, 40, 0
4, 20128, Note_on_c, 9, 38, 0
4, 20160, Note_on_c, 9, 38, 39
4, 20160, Note_on_c, 9, 40, 19
4, 20231, Note_on_c, 9, 40, 0
4, 20237, Note_on_c, 9, 38, 0
4, 20280, Note_on_c, 9, 40, 23
4, 20280, Note_on_c, 9, 38, 44
4, 20280, Note_on_c, 9, 44, 57
4, 20323, Note_on_c, 9, 44, 0
4, 20350, Note_on_c, 9, 38, 0
4, 20360, Note_on_c, 9, 39, 59
4, 20364, Note_on_c, 9, 40, 0
4, 20384, Note_on_c, 9, 39, 0
4, 20400, Note_on_c, 9, 38, 44
4, 20400, Note_on_c, 9, 40, 22
4, 20480, Note_on_c, 9, 40, 0
4, 20488, Note_on_c, 9, 38, 0
4, 20520, Note_on_c, 9, 40, 26
4, 20520, Note_on_c, 9, 38, 43
4, 20520, Note_on_c, 9, 44, 59
4, 20569, Note_on_c, 9, 44, 0
4, 20591, Note_on_c, 9, 40, 0
4, 20592, Note_on_c, 9, 38, 0
4, 20600, Note_on_c, 9, 36, 66
4, 20621, Note_on_c, 9, 36, 0
4, 20640, Note_on_c, 9, 40, 27
4, 20640, Note_on_c, 9, 38, 47
4, 20713, Note_on_c, 9, 40, 0
4, 20718, Note_on_c, 9, 38, 0
4, 20760, Note_on_c, 9, 40, 24
4, 20760, Note_on_c, 9, 38, 50
4, 20760, Note_on_c, 9, 44, 59
4, 20800, Note_on_c, 9, 44, 0
4, 20818, Note_on_c, 9, 38, 0
4, 20827, Note_on_c, 9, 40, 0
4, 20840, Note_on_c, 9, 39, 55
4, 20867, Note_on_c, 9, 39, 0
4, 20880, Note_on_c, 9, 40, 32
4, 20880, Note_on_c, 9, 38, 44
4, 20965, Note_on_c, 9, 40, 0
4, 20967, Note_on_c, 9, 38, 0
4, 21000, Note_on_c, 9, 40, 27
4, 21000, Note_on_c, 9, 38, 51
4, 21000, Note_on_c, 9, 44, 56
4, 21037, Note_on_c, 9, 44, 0
4, 21071, Note_on_c, 9, 40, 0
4, 21073, Note_on_c, 9, 38, 0
4, 21120, Note_on_c, 9, 40, 24
4, 21120, Note_on_c, 9, 38, 44
4, 21185, Note_on_c, 9, 38, 0
4, 21186, Note_on_c, 9, 40, 0
4, 21240, Note_on_c, 9, 38, 50
4, 21240, Note_on_c, 9, 40, 28
4, 21240, Note_on_c, 9, 44, 59
4, 21287, Note_on_c, 9, 44, 0
4, 21305, Note_on_c, 9, 40, 0
4, 21308, Note_on_c, 9, 38, 0
4, 21360, Note_on_c, 9, 40, 27
4, 21360, Note_on_c, 9, 38, 42
4, 21400, Note_on_c, 9, 38, 0
4, 21402, Note_on_c, 9, 40, 0
4, 21440, Note_on_c, 9, 38, 54
4, 21440, Note_on_c, 9, 36, 36
4, 21450, Note_on_c, 9, 38, 0
4, 21451, Note_on_c, 9, 36, 0
4, 21480, Note_on_c, 9, 40, 34
4, 21480, Note_on_c, 9, 38, 63
4, 21480, Note_on_c, 9, 46, 50
4, 21514, Note_on_c, 9, 46, 0
4, 21560, Note_on_c, 9, 36, 45
4, 21561, Note_on_c, 9, 40, 0
4, 21563, Note_on_c, 9, 38, 0
4, 21570, Note_on_c, 9, 36, 0
4, 21600, Note_on_c, 9, 38, 47
4, 21600, Note_on_c, 9, 40, 24
4, 21600, Note_on_c, 9, 46, 37
4, 21600, Note_on_c, 9, 36, 27
4, 21627, Note_on_c, 9, 36, 0
4, 21635, Note_on_c, 9, 46, 0
4, 21645, Note_on_c, 9, 38, 0
4, 21680, Note_on_c, 9, 38, 68
4, 21683, Note_on_c, 9, 40, 0
4, 21691, Note_on_c, 9, 38, 0
4, 21720, Note_on_c, 9, 38, 44
4, 21720, Note_on_c, 9, 40, 18
4, 21720, Note_on_c, 9, 44, 55
4, 21765, Note_on_c, 9, 44, 0
4, 21772, Note_on_c, 9, 40, 0
4, 21773, Note_on_c, 9, 38, 0
4, 21800, Note_on_c, 9, 38, 74
4, 21819, Note_on_c, 9, 38, 0
4, 21840, Note_on_c, 9, 38, 55
4, 21840, Note_on_c, 9, 40, 34
4, 21911, Note_on_c, 9, 40, 0
4, 21916, Note_on_c, 9, 38, 0
4, 21920, Note_on_c, 9, 36, 34
4, 21932, Note_on_c, 9, 36, 0
4, 21960, Note_on_c, 9, 38, 53
4, 21960, Note_on_c, 9, 40, 33
4, 21960, Note_on_c, 9, 44, 59
4, 21960, Note_on_c, 9, 36, 32
4, 21985, Note_on_c, 9, 36, 0
4, 21999, Note_on_c, 9, 44, 0
4, 22007, Note_on_c, 9, 38, 0
4, 22018, Note_on_c, 9, 40, 0
4, 22040, Note_on_c, 9, 38, 62
4, 22055, Note_on_c, 9, 38, 0
4, 22080, Note_on_c, 9, 40, 27
4, 22080, Note_on_c, 9, 38, 55
4, 22133, Note_on_c, 9, 40, 0
4, 22136, Note_on_c, 9, 38, 0
4, 22160, Note_on_c, 9, 39, 59
4, 22185, Note_on_c, 9, 39, 0
4, 22200, Note_on_c, 9, 38, 43
4, 22200, Note_on_c, 9, 40, 24
4, 22200, Note_on_c, 9, 44, 60
4, 22240, Note_on_c, 9, 44, 0
4, 22246, Note_on_c, 9, 40, 0
4, 22253, Note_on_c, 9, 38, 0
4, 22280, Note_on_c, 9, 38, 47
4, 22280, Note_on_c, 9, 40, 29
4, 22290, Note_on_c, 9, 40, 0
4, 22293, Note_on_c, 9, 38, 0
4, 22320, Note_on_c, 9, 40, 23
4, 22320, Note_on_c, 9, 38, 43
4, 22370, Note_on_c, 9, 38, 0
4, 22371, Note_on_c, 9, 40, 0
4, 22400, Note_on_c, 9, 39, 62
4, 22437, Note_on_c, 9, 39, 0
4, 22440, Note_on_c, 9, 38, 40
4, 22440, Note_on_c, 9, 40, 21
4, 22440, Note_on_c, 9, 44, 60
4, 22479, Note_on_c, 9, 44, 0
4, 22488, Note_on_c, 9, 40, 0
4, 22498, Note_on_c, 9, 38, 0
4, 22560, Note_on_c, 9, 40, 28
4, 22560, Note_on_c, 9, 38, 46
4, 22604, Note_on_c, 9, 40, 0
4, 22610, Note_on_c, 9, 38, 0
4, 22680, Note_on_c, 9, 40, 29
4, 22680, Note_on_c, 9, 38, 49
4, 22680, Note_on_c, 9, 44, 60
4, 22722, Note_on_c, 9, 44, 0
4, 22758, Note_on_c, 9, 40, 0
4, 22760, Note_on_c, 9, 38, 0
4, 22800, Note_on_c, 9, 38, 38
4, 22800, Note_on_c, 9, 40, 21
4, 22866, Note_on_c, 9, 40, 0
4, 22874, Note_on_c, 9, 38, 0
4, 22880, Note_on_c, 9, 59, 70
4, 22887, Note_on_c, 9, 59, 0
4, 22920, Note_on_c, 9, 39, 28
4, 22920, Note_on_c, 9, 44, 62
4, 22980, Note_on_c, 9, 44, 0
4, 23000, Note_on_c, 9, 38, 55
4, 23018, Note_on_c, 9, 38, 0
4, 23018, Note_on_c, 9, 39, 0
4, 23040, Note_on_c, 9, 40, 27
4, 23040, Note_on_c, 9, 59, 76
4, 23040, Note_on_c, 9, 38, 52
4, 23145, Note_on_c, 9, 40, 0
4, 23148, Note_on_c, 9, 38, 0
4, 23148, Note_on_c, 9, 59, 0
4, 23160, Note_on_c, 9, 39, 62
4, 23160, Note_on_c, 9, 44, 60
4, 23222, Note_on_c, 9, 44, 0
4, 23237, Note_on_c, 9, 39, 0
4, 23240, Note_on_c, 9, 59, 95
4, 23240, Note_on_c, 9, 40, 39
4, 23240, Note_on_c, 9, 38, 50
4, 23240, Note_on_c, 9, 36, 64
4, 23258, Note_on_c, 9, 36, 0
4, 23357, Note_on_c, 9, 59, 0
4, 23360, Note_on_c, 9, 39, 71
4, 23360, Note_on_c, 9, 36, 50
4, 23361, Note_on_c, 9, 40, 0
4, 23366, Note_on_c, 9, 38, 0
4, 23369, Note_on_c, 9, 36, 0
4, 23395, Note_on_c, 9, 39, 0
4, 23400, Note_on_c, 9, 59, 113
4, 23400, Note_on_c, 9, 40, 29
4, 23400, Note_on_c, 9, 44, 64
4, 23400, Note_on_c, 9, 38, 77
4, 23409, Note_on_c, 9, 38, 0
4, 23410, Note_on_c, 9, 40, 0
4, 23453, Note_on_c, 9, 44, 0
4, 23476, Note_on_c, 9, 59, 0
4, 23480, Note_on_c, 9, 38, 108
4, 23501, Note_on_c, 9, 38, 0
4, 23520, Program_c, 9, 32
4, 23520, Note_on_c, 9, 59, 125
4, 23598, Note_on_c, 9, 59, 0
4, 23600, Note_on_c, 9, 36, 51
4, 23607, Note_on_c, 9, 44, 67
4, 23616, Note_on_c, 9, 36, 0
4, 23640, Note_on_c, 9, 59, 94
4, 23712, Note_on_c, 9, 44, 0
4, 23713, Note_on_c, 9, 59, 0
4, 23720, Note_on_c, 9, 59, 61
4, 23740, Note_on_c, 9, 59, 0
4, 23760, Note_on_c, 9, 59, 94
4, 23842, Note_on_c, 9, 59, 0
4, 23880, Note_on_c, 9, 59, 95
4, 23880, Note_on_c, 9, 39, 25
4, 23887, Note_on_c, 9, 44, 68
4, 23901, Note_on_c, 9, 39, 0
4, 23946, Note_on_c, 9, 59, 0
4, 23951, Note_on_c, 9, 44, 0
4, 24000, Note_on_c, 9, 59, 99
4, 24069, Note_on_c, 9, 59, 0
4, 24080, Note_on_c, 9, 59, 58
4, 24098, Note_on_c, 9, 59, 0
4, 24120, Note_on_c, 9, 59, 90
4, 24127, Note_on_c, 9, 44, 64
4, 24195, Note_on_c, 9, 44, 0
4, 24195, Note_on_c, 9, 59, 0
4, 24240, Note_on_c, 9, 59, 91
4, 24240, Note_on_c, 9, 38, 74
4, 24249, Note_on_c, 9, 38, 0
4, 24310, Note_on_c, 9, 59, 0
4, 24320, Note_on_c, 9, 38, 96
4, 24341, Note_on_c, 9, 38, 0
4, 24360, Note_on_c, 9, 59, 88
4, 24367, Note_on_c, 9, 44, 64
4, 24427, Note_on_c, 9, 59, 0
4, 24440, Note_on_c, 9, 59, 59
4, 24440, Note_on_c, 9, 36, 54
4, 24448, Note_on_c, 9, 59, 0
4, 24449, Note_on_c, 9, 36, 0
4, 24478, Note_on_c, 9, 44, 0
4, 24480, Note_on_c, 9, 59, 89
4, 24480, Note_on_c, 9, 36, 60
4, 24541, Note_on_c, 9, 36, 0
4, 24551, Note_on_c, 9, 59, 0
4, 24600, Note_on_c, 9, 59, 90
4, 24607, Note_on_c, 9, 44, 67
4, 24668, Note_on_c, 9, 59, 0
4, 24680, Note_on_c, 9, 44, 0
4, 24720, Note_on_c, 9, 59, 87
4, 24784, Note_on_c, 9, 59, 0
4, 24807, Note_on_c, 9, 44, 62
4, 24837, Note_on_c, 9, 44, 0
4, 24840, Note_on_c, 9, 59, 80
4, 24911, Note_on_c, 9, 59, 0
4, 24920, Note_on_c, 9, 36, 42
4, 24929, Note_on_c, 9, 36, 0
4, 24960, Note_on_c, 9, 59, 88
4, 24960, Note_on_c, 9, 38, 44
4, 24971, Note_on_c, 9, 38, 0
4, 25000, Note_on_c, 9, 38, 63
4, 25014, Note_on_c, 9, 38, 0
4, 25037, Note_on_c, 9, 59, 0
4, 25040, Note_on_c, 9, 53, 60
4, 25080, Note_on_c, 9, 59, 52
4, 25081, Note_on_c, 9, 53, 0
4, 25087, Note_on_c, 9, 44, 64
4, 25129, Note_on_c, 9, 44, 0
4, 25163, Note_on_c, 9, 59, 0
4, 25200, Note_on_c, 9, 59, 68
4, 25200, Note_on_c, 9, 38, 38
4, 25211, Note_on_c, 9, 38, 0
4, 25240, Note_on_c, 9, 38, 68
4, 25249, Note_on_c, 9, 38, 0
4, 25273, Note_on_c, 9, 59, 0
4, 25280, Note_on_c, 9, 59, 51
4, 25288, Note_on_c, 9, 59, 0
4, 25320, Note_on_c, 9, 59, 88
4, 25320, Note_on_c, 9, 38, 75
4, 25327, Note_on_c, 9, 44, 68
4, 25339, Note_on_c, 9, 38, 0
4, 25369, Note_on_c, 9, 44, 0
4, 25396, Note_on_c, 9, 59, 0
4, 25400, Note_on_c, 9, 38, 71
4, 25410, Note_on_c, 9, 38, 0
4, 25440, Note_on_c, 9, 59, 90
4, 25440, Note_on_c, 9, 36, 51
4, 25461, Note_on_c, 9, 36, 0
4, 25508, Note_on_c, 9, 59, 0
4, 25560, Note_on_c, 9, 59, 91
4, 25567, Note_on_c, 9, 44, 64
4, 25619, Note_on_c, 9, 44, 0
4, 25629, Note_on_c, 9, 59, 0
4, 25640, Note_on_c, 9, 59, 55
4, 25658, Note_on_c, 9, 59, 0
4, 25680, Note_on_c, 9, 59, 81
4, 25754, Note_on_c, 9, 59, 0
4, 25760, Note_on_c, 9, 40, 46
4, 25790, Note_on_c, 9, 40, 0
4, 25800, Note_on_c, 9, 59, 84
4, 25800, Note_on_c, 9, 36, 57
4, 25807, Note_on_c, 9, 44, 64
4, 25827, Note_on_c, 9, 36, 0
4, 25864, Note_on_c, 9, 59, 0
4, 25867, Note_on_c, 9, 44, 0
4, 25880, Note_on_c, 9, 59, 48
4, 25880, Note_on_c, 9, 36, 66
4, 25897, Note_on_c, 9, 59, 0
4, 25909, Note_on_c, 9, 36, 0
4, 25920, Note_on_c, 9, 59, 78
4, 25989, Note_on_c, 9, 59, 0
4, 26040, Note_on_c, 9, 59, 88
4, 26047, Note_on_c, 9, 44, 60
4, 26104, Note_on_c, 9, 59, 0
4, 26106, Note_on_c, 9, 44, 0
4, 26120, Note_on_c, 9, 59, 49
4, 26138, Note_on_c, 9, 59, 0
4, 26160, Note_on_c, 9, 59, 78
4, 26225, Note_on_c, 9, 59, 0
4, 26280, Note_on_c, 9, 59, 94
4, 26287, Note_on_c, 9, 44, 48
4, 26336, Note_on_c, 9, 44, 0
4, 26340, Note_on_c, 9, 59, 0
4, 26400, Note_on_c, 9, 59, 92
4, 26459, Note_on_c, 9, 59, 0
4, 26480, Note_on_c, 9, 59, 57
4, 26489, Note_on_c, 9, 59, 0
4, 26520, Note_on_c, 9, 59, 79
4, 26527, Note_on_c, 9, 44, 67
4, 26560, Note_on_c, 9, 44, 0
4, 26596, Note_on_c, 9, 59, 0
4, 26640, Note_on_c, 9, 59, 87
4, 26640, Note_on_c, 9, 36, 36
4, 26652, Note_on_c, 9, 36, 0
4, 26708, Note_on_c, 9, 59, 0
4, 26760, Note_on_c, 9, 59, 81
4, 26767, Note_on_c, 9, 44, 69
4, 26806, Note_on_c, 9, 44, 0
4, 26823, Note_on_c, 9, 59, 0
4, 26840, Note_on_c, 9, 59, 52
4, 26853, Note_on_c, 9, 59, 0
4, 26880, Note_on_c, 9, 59, 76
4, 26880, Note_on_c, 9, 38, 52
4, 26913, Note_on_c, 9, 38, 0
4, 26943, Note_on_c, 9, 59, 0
4, 27000, Note_on_c, 9, 59, 91
4, 27000, Note_on_c, 9, 38, 75
4, 27007, Note_on_c, 9, 44, 71
4, 27039, Note_on_c, 9, 44, 0
4, 27055, Note_on_c, 9, 38, 0
4, 27062, Note_on_c, 9, 59, 0
4, 27120, Note_on_c, 9, 59, 89
4, 27185, Note_on_c, 9, 59, 0
4, 27200, Note_on_c, 9, 53, 94
4, 27200, Note_on_c, 9, 51, 69
4, 27200, Note_on_c, 9, 38, 82
4, 27228, Note_on_c, 9, 38, 0
4, 27247, Note_on_c, 9, 46, 60
4, 27270, Note_on_c, 9, 46, 0
4, 27320, Note_on_c, 9, 37, 47
4, 27320, Note_on_c, 9, 38, 58
4, 27329, Note_on_c, 9, 38, 0
4, 27329, Note_on_c, 9, 37, 0
4, 27346, Note_on_c, 9, 51, 0
4, 27347, Note_on_c, 9, 53, 0
4, 27360, Note_on_c, 9, 53, 68
4, 27360, Note_on_c, 9, 51, 74
4, 27360, Note_on_c, 9, 57, 89
4, 27360, Note_on_c, 9, 36, 75
4, 27382, Note_on_c, 9, 57, 0
4, 27393, Note_on_c, 9, 36, 0
4, 27438, Note_on_c, 9, 51, 0
4, 27448, Note_on_c, 9, 53, 0
4, 27480, Note_on_c, 9, 53, 68
4, 27487, Note_on_c, 9, 44, 67
4, 27523, Note_on_c, 9, 44, 0
4, 27525, Note_on_c, 9, 53, 0
4, 27600, Note_on_c, 9, 59, 80
4, 27680, Note_on_c, 9, 38, 74
4, 27681, Note_on_c, 9, 59, 0
4, 27696, Note_on_c, 9, 38, 0
4, 27720, Note_on_c, 9, 59, 84
4, 27720, Note_on_c, 9, 57, 91
4, 27720, Note_on_c, 9, 36, 83
4, 27727, Note_on_c, 9, 44, 68
4, 27736, Note_on_c, 9, 57, 0
4, 27765, Note_on_c, 9, 44, 0
4, 27765, Note_on_c, 9, 36, 0
4, 27790, Note_on_c, 9, 59, 0
4, 27800, Note_on_c, 9, 59, 51
4, 27817, Note_on_c, 9, 59, 0
4, 27840, Note_on_c, 9, 59, 82
4, 27909, Note_on_c, 9, 59, 0
4, 27960, Note_on_c, 9, 59, 105
4, 27967, Note_on_c, 9, 44, 71
4, 28002, Note_on_c, 9, 44, 0
4, 28041, Note_on_c, 9, 59, 0
4, 28080, Note_on_c, 9, 59, 69
4, 28122, Note_on_c, 9, 59, 0
4, 28160, Note_on_c, 9, 59, 66
4, 28177, Note_on_c, 9, 59, 0
4, 28200, Note_on_c, 9, 59, 82
4, 28207, Note_on_c, 9, 44, 71
4, 28251, Note_on_c, 9, 44, 0
4, 28278, Note_on_c, 9, 59, 0
4, 28320, Note_on_c, 9, 59, 65
4, 28369, Note_on_c, 9, 59, 0
4, 28400, Note_on_c, 9, 59, 91
4, 28447, Note_on_c, 9, 44, 73
4, 28478, Note_on_c, 9, 59, 0
4, 28495, Note_on_c, 9, 44, 0
4, 28520, Note_on_c, 9, 59, 46
4, 28530, Note_on_c, 9, 59, 0
4, 28560, Note_on_c, 9, 59, 101
4, 28638, Note_on_c, 9, 59, 0
4, 28680, Note_on_c, 9, 59, 63
4, 28680, Note_on_c, 9, 37, 83
4, 28687, Note_on_c, 9, 44, 75
4, 28730, Note_on_c, 9, 59, 0
4, 28731, Note_on_c, 9, 44, 0
4, 28734, Note_on_c, 9, 37, 0
4, 28760, Note_on_c, 9, 59, 103
4, 28800, Note_on_c, 9, 36, 29
4, 28812, Note_on_c, 9, 36, 0
4, 28851, Note_on_c, 9, 59, 0
4, 28880, Note_on_c, 9, 59, 54
4, 28880, Note_on_c, 9, 36, 65
4, 28893, Note_on_c, 9, 59, 0
4, 28908, Note_on_c, 9, 36, 0
4, 28920, Note_on_c, 9, 53, 68
4, 28920, Note_on_c, 9, 59, 87
4, 28927, Note_on_c, 9, 44, 72
4, 28981, Note_on_c, 9, 53, 0
4, 28988, Note_on_c, 9, 44, 0
4, 29013, Note_on_c, 9, 59, 0
4, 29040, Note_on_c, 9, 59, 59
4, 29040, Note_on_c, 9, 36, 53
4, 29069, Note_on_c, 9, 36, 0
4, 29091, Note_on_c, 9, 59, 0
4, 29120, Note_on_c, 9, 59, 91
4, 29167, Note_on_c, 9, 44, 72
4, 29204, Note_on_c, 9, 44, 0
4, 29224, Note_on_c, 9, 59, 0
4, 29240, Note_on_c, 9, 59, 42
4, 29249, Note_on_c, 9, 59, 0
4, 29280, Note_on_c, 9, 59, 77
4, 29367, Note_on_c, 9, 59, 0
4, 29400, Note_on_c, 9, 59, 80
4, 29407, Note_on_c, 9, 44, 76
4, 29448, Note_on_c, 9, 44, 0
4, 29462, Note_on_c, 9, 59, 0
4, 29480, Note_on_c, 9, 59, 43
4, 29489, Note_on_c, 9, 59, 0
4, 29520, Note_on_c, 9, 59, 74
4, 29560, Note_on_c, 9, 38, 40
4, 29570, Note_on_c, 9, 38, 0
4, 29599, Note_on_c, 9, 59, 0
4, 29600, Note_on_c, 9, 38, 35
4, 29616, Note_on_c, 9, 38, 0
4, 29640, Note_on_c, 9, 59, 81
4, 29640, Note_on_c, 9, 38, 60
4, 29647, Note_on_c, 9, 44, 73
4, 29648, Note_on_c, 9, 38, 0
4, 29688, Note_on_c, 9, 44, 0
4, 29705, Note_on_c, 9, 59, 0
4, 29720, Note_on_c, 9, 59, 44
4, 29720, Note_on_c, 9, 36, 67
4, 29740, Note_on_c, 9, 59, 0
4, 29745, Note_on_c, 9, 36, 0
4, 29760, Note_on_c, 9, 59, 66
4, 29852, Note_on_c, 9, 59, 0
4, 29880, Note_on_c, 9, 59, 80
4, 29887, Note_on_c, 9, 44, 76
4, 29923, Note_on_c, 9, 44, 0
4, 29952, Note_on_c, 9, 59, 0
4, 29960, Note_on_c, 9, 59, 50
4, 29974, Note_on_c, 9, 59, 0
4, 30000, Note_on_c, 9, 59, 72
4, 30080, Note_on_c, 9, 38, 61
4, 30091, Note_on_c, 9, 59, 0
4, 30099, Note_on_c, 9, 38, 0
4, 30120, Note_on_c, 9, 59, 83
4, 30127, Note_on_c, 9, 44, 75
4, 30183, Note_on_c, 9, 59, 0
4, 30185, Note_on_c, 9, 44, 0
4, 30200, Note_on_c, 9, 59, 46
4, 30200, Note_on_c, 9, 38, 66
4, 30218, Note_on_c, 9, 59, 0
4, 30221, Note_on_c, 9, 38, 0
4, 30240, Note_on_c, 9, 59, 73
4, 30320, Note_on_c, 9, 38, 73
4, 30328, Note_on_c, 9, 59, 0
4, 30350, Note_on_c, 9, 38, 0
4, 30360, Note_on_c, 9, 59, 81
4, 30367, Note_on_c, 9, 44, 75
4, 30419, Note_on_c, 9, 44, 0
4, 30430, Note_on_c, 9, 59, 0
4, 30480, Note_on_c, 9, 59, 84
4, 30480, Note_on_c, 9, 38, 52
4, 30507, Note_on_c, 9, 38, 0
4, 30548, Note_on_c, 9, 59, 0
4, 30560, Note_on_c, 9, 59, 57
4, 30560, Note_on_c, 9, 38, 71
4, 30571, Note_on_c, 9, 59, 0
4, 30579, Note_on_c, 9, 38, 0
4, 30600, Note_on_c, 9, 59, 85
4, 30607, Note_on_c, 9, 44, 77
4, 30645, Note_on_c, 9, 44, 0
4, 30680, Note_on_c, 9, 36, 54
4, 30688, Note_on_c, 9, 59, 0
4, 30689, Note_on_c, 9, 36, 0
4, 30720, Note_on_c, 9, 59, 80
4, 30800, Note_on_c, 9, 38, 61
4, 30802, Note_on_c, 9, 59, 0
4, 30819, Note_on_c, 9, 38, 0
4, 30840, Note_on_c, 9, 59, 87
4, 30847, Note_on_c, 9, 44, 76
4, 30883, Note_on_c, 9, 44, 0
4, 30918, Note_on_c, 9, 59, 0
4, 30920, Note_on_c, 9, 38, 83
4, 30950, Note_on_c, 9, 38, 0
4, 30960, Note_on_c, 9, 59, 82
4, 31016, Note_on_c, 9, 59, 0
4, 31040, Note_on_c, 9, 59, 41
4, 31040, Note_on_c, 9, 36, 74
4, 31050, Note_on_c, 9, 59, 0
4, 31061, Note_on_c, 9, 36, 0
4, 31080, Note_on_c, 9, 59, 81
4, 31087, Note_on_c, 9, 44, 71
4, 31122, Note_on_c, 9, 44, 0
4, 31150, Note_on_c, 9, 59, 0
4, 31160, Note_on_c, 9, 59, 94
4, 31160, Note_on_c, 9, 36, 87
4, 31160, Note_on_c, 9, 38, 64
4, 31168, Note_on_c, 9, 38, 0
4, 31176, Note_on_c, 9, 36, 0
4, 31200, Note_on_c, 9, 57, 82
4, 31200, Note_on_c, 9, 38, 85
4, 31216, Note_on_c, 9, 57, 0
4, 31226, Note_on_c, 9, 38, 0
4, 31264, Note_on_c, 9, 59, 0
4, 31280, Note_on_c, 9, 59, 46
4, 31292, Note_on_c, 9, 59, 0
4, 31320, Note_on_c, 9, 59, 94
4, 31327, Note_on_c, 9, 44, 71
4, 31363, Note_on_c, 9, 44, 0
4, 31407, Note_on_c, 9, 59, 0
4, 31440, Note_on_c, 9, 59, 82
4, 31504, Note_on_c, 9, 59, 0
4, 31520, Note_on_c, 9, 38, 76
4, 31536, Note_on_c, 9, 38, 0
4, 31560, Note_on_c, 9, 59, 87
4, 31560, Note_on_c, 9, 57, 90
4, 31560, Note_on_c, 9, 38, 74
4, 31560, Note_on_c, 9, 36, 77
4, 31567, Note_on_c, 9, 44, 69
4, 31593, Note_on_c, 9, 57, 0
4, 31595, Note_on_c, 9, 38, 0
4, 31600, Note_on_c, 9, 44, 0
4, 31600, Note_on_c, 9, 36, 0
4, 31621, Note_on_c, 9, 59, 0
4, 31680, Note_on_c, 9, 59, 90
4, 31680, Note_on_c, 9, 53, 71
4, 31736, Note_on_c, 9, 59, 0
4, 31750, Note_on_c, 9, 53, 0
4, 31760, Note_on_c, 9, 59, 59
4, 31775, Note_on_c, 9, 59, 0
4, 31800, Note_on_c, 9, 59, 51
4, 31807, Note_on_c, 9, 44, 70
4, 31834, Note_on_c, 9, 44, 0
4, 31857, Note_on_c, 9, 59, 0
4, 31880, Note_on_c, 9, 59, 88
4, 31880, Note_on_c, 9, 53, 82
4, 31920, Note_on_c, 9, 38, 41
4, 31921, Note_on_c, 9, 59, 0
4, 31930, Note_on_c, 9, 38, 0
4, 31958, Note_on_c, 9, 53, 0
4, 31960, Note_on_c, 9, 38, 51
4, 31969, Note_on_c, 9, 38, 0
4, 32000, Note_on_c, 9, 59, 64
4, 32007, Note_on_c, 9, 59, 0
4, 32040, Note_on_c, 9, 53, 80
4, 32040, Note_on_c, 9, 59, 95
4, 32047, Note_on_c, 9, 46, 60
4, 32079, Note_on_c, 9, 46, 0
4, 32106, Note_on_c, 9, 59, 0
4, 32114, Note_on_c, 9, 53, 0
4, 32120, Note_on_c, 9, 59, 41
4, 32120, Note_on_c, 9, 36, 46
4, 32130, Note_on_c, 9, 36, 0
4, 32143, Note_on_c, 9, 59, 0
4, 32160, Note_on_c, 9, 59, 38
4, 32217, Note_on_c, 9, 59, 0
4, 32240, Note_on_c, 9, 53, 84
4, 32240, Note_on_c, 9, 59, 84
4, 32270, Note_on_c, 9, 53, 0
4, 32271, Note_on_c, 9, 59, 0
4, 32287, Note_on_c, 9, 44, 69
4, 32320, Note_on_c, 9, 59, 38
4, 32326, Note_on_c, 9, 44, 0
4, 32360, Note_on_c, 9, 59, 55
4, 32369, Note_on_c, 9, 59, 0
4, 32374, Note_on_c, 9, 59, 0
4, 32400, Note_on_c, 9, 59, 91
4, 32440, Note_on_c, 9, 38, 38
4, 32454, Note_on_c, 9, 38, 0
4, 32476, Note_on_c, 9, 59, 0
4, 32520, Note_on_c, 9, 59, 90
4, 32520, Note_on_c, 9, 38, 50
4, 32527, Note_on_c, 9, 44, 64
4, 32537, Note_on_c, 9, 38, 0
4, 32570, Note_on_c, 9, 44, 0
4, 32587, Note_on_c, 9, 59, 0
4, 32600, Note_on_c, 9, 36, 39
4, 32625, Note_on_c, 9, 36, 0
4, 32640, Note_on_c, 9, 59, 90
4, 32680, Note_on_c, 9, 38, 46
4, 32694, Note_on_c, 9, 38, 0
4, 32696, Note_on_c, 9, 59, 0
4, 32760, Note_on_c, 9, 59, 91
4, 32760, Note_on_c, 9, 38, 47
4, 32767, Note_on_c, 9, 44, 74
4, 32782, Note_on_c, 9, 38, 0
4, 32803, Note_on_c, 9, 44, 0
4, 32833, Note_on_c, 9, 59, 0
4, 32840, Note_on_c, 9, 36, 35
4, 32856, Note_on_c, 9, 36, 0
4, 32880, Note_on_c, 9, 59, 83
4, 32920, Note_on_c, 9, 38, 57
4, 32934, Note_on_c, 9, 38, 0
4, 32947, Note_on_c, 9, 59, 0
4, 32960, Note_on_c, 9, 59, 49
4, 32971, Note_on_c, 9, 59, 0
4, 33000, Note_on_c, 9, 59, 87
4, 33000, Note_on_c, 9, 38, 50
4, 33007, Note_on_c, 9, 44, 65
4, 33021, Note_on_c, 9, 38, 0
4, 33063, Note_on_c, 9, 44, 0
4, 33080, Note_on_c, 9, 36, 46
4, 33084, Note_on_c, 9, 59, 0
4, 33091, Note_on_c, 9, 36, 0
4, 33120, Note_on_c, 9, 59, 90
4, 33160, Note_on_c, 9, 38, 45
4, 33188, Note_on_c, 9, 38, 0
4, 33204, Note_on_c, 9, 59, 0
4, 33240, Note_on_c, 9, 59, 87
4, 33240, Note_on_c, 9, 38, 55
4, 33247, Note_on_c, 9, 44, 72
4, 33267, Note_on_c, 9, 38, 0
4, 33293, Note_on_c, 9, 44, 0
4, 33310, Note_on_c, 9, 59, 0
4, 33320, Note_on_c, 9, 59, 64
4, 33320, Note_on_c, 9, 36, 51
4, 33334, Note_on_c, 9, 36, 0
4, 33335, Note_on_c, 9, 59, 0
4, 33360, Note_on_c, 9, 59, 87
4, 33360, Note_on_c, 9, 36, 41
4, 33391, Note_on_c, 9, 36, 0
4, 33462, Note_on_c, 9, 59, 0
4, 33480, Note_on_c, 9, 59, 82
4, 33487, Note_on_c, 9, 44, 74
4, 33532, Note_on_c, 9, 44, 0
4, 33574, Note_on_c, 9, 59, 0
4, 33600, Note_on_c, 9, 59, 81
4, 33683, Note_on_c, 9, 59, 0
4, 33720, Note_on_c, 9, 59, 84
4, 33727, Note_on_c, 9, 44, 65
4, 33775, Note_on_c, 9, 44, 0
4, 33793, Note_on_c, 9, 59, 0
4, 33840, Note_on_c, 9, 59, 80
4, 33907, Note_on_c, 9, 59, 0
4, 33920, Note_on_c, 9, 59, 55
4, 33920, Note_on_c, 9, 40, 55
4, 33929, Note_on_c, 9, 40, 0
4, 33936, Note_on_c, 9, 59, 0
4, 33960, Note_on_c, 9, 59, 78
4, 33967, Note_on_c, 9, 44, 71
4, 34004, Note_on_c, 9, 44, 0
4, 34040, Note_on_c, 9, 36, 34
4, 34044, Note_on_c, 9, 59, 0
4, 34050, Note_on_c, 9, 36, 0
4, 34080, Note_on_c, 9, 59, 82
4, 34150, Note_on_c, 9, 59, 0
4, 34160, Note_on_c, 9, 59, 31
4, 34169, Note_on_c, 9, 59, 0
4, 34200, Note_on_c, 9, 59, 80
4, 34200, Note_on_c, 9, 40, 58
4, 34207, Note_on_c, 9, 44, 73
4, 34209, Note_on_c, 9, 40, 0
4, 34243, Note_on_c, 9, 44, 0
4, 34280, Note_on_c, 9, 40, 83
4, 34286, Note_on_c, 9, 59, 0
4, 34299, Note_on_c, 9, 40, 0
4, 34320, Note_on_c, 9, 59, 78
4, 34390, Note_on_c, 9, 59, 0
4, 34400, Note_on_c, 9, 36, 27
4, 34409, Note_on_c, 9, 36, 0
4, 34440, Note_on_c, 9, 59, 78
4, 34447, Note_on_c, 9, 44, 72
4, 34482, Note_on_c, 9, 44, 0
4, 34520, Note_on_c, 9, 36, 58
4, 34533, Note_on_c, 9, 59, 0
4, 34543, Note_on_c, 9, 36, 0
4, 34560, Note_on_c, 9, 59, 77
4, 34629, Note_on_c, 9, 59, 0
4, 34640, Note_on_c, 9, 59, 49
4, 34640, Note_on_c, 9, 36, 71
4, 34650, Note_on_c, 9, 59, 0
4, 34662, Note_on_c, 9, 36, 0
4, 34680, Note_on_c, 9, 59, 73
4, 34687, Note_on_c, 9, 44, 62
4, 34716, Note_on_c, 9, 44, 0
4, 34760, Note_on_c, 9, 38, 79
4, 34762, Note_on_c, 9, 59, 0
4, 34800, Note_on_c, 9, 38, 0
4, 34800, Note_on_c, 9, 59, 79
4, 34870, Note_on_c, 9, 59, 0
4, 34880, Note_on_c, 9, 59, 64
4, 34880, Note_on_c, 9, 38, 88
4, 34899, Note_on_c, 9, 59, 0
4, 34907, Note_on_c, 9, 38, 0
4, 34927, Note_on_c, 9, 46, 55
4, 34956, Note_on_c, 9, 46, 0
4, 35000, Note_on_c, 9, 59, 94
4, 35000, Note_on_c, 9, 38, 68
4, 35018, Note_on_c, 9, 38, 0
4, 35034, Note_on_c, 9, 59, 0
4, 35040, Note_on_c, 9, 38, 77
4, 35040, Note_on_c, 9, 57, 91
4, 35040, Note_on_c, 9, 36, 80
4, 35047, Note_on_c, 9, 51, 95
4, 35055, Note_on_c, 9, 57, 0
4, 35062, Note_on_c, 9, 36, 0
4, 35073, Note_on_c, 9, 38, 0
4, 35096, Note_on_c, 9, 51, 0
4, 35127, Note_on_c, 9, 44, 67
4, 35167, Note_on_c, 9, 51, 99
4, 35227, Note_on_c, 9, 51, 0
4, 35232, Note_on_c, 9, 44, 0
4, 35287, Note_on_c, 9, 51, 97
4, 35341, Note_on_c, 9, 51, 0
4, 35367, Note_on_c, 9, 51, 56
4, 35378, Note_on_c, 9, 51, 0
4, 35407, Note_on_c, 9, 51, 82
4, 35407, Note_on_c, 9, 44, 68
4, 35471, Note_on_c, 9, 44, 0
4, 35480, Note_on_c, 9, 38, 60
4, 35495, Note_on_c, 9, 38, 0
4, 35495, Note_on_c, 9, 51, 0
4, 35520, Note_on_c, 9, 36, 42
4, 35527, Note_on_c, 9, 51, 88
4, 35535, Note_on_c, 9, 36, 0
4, 35605, Note_on_c, 9, 51, 0
4, 35647, Note_on_c, 9, 51, 87
4, 35647, Note_on_c, 9, 44, 64
4, 35715, Note_on_c, 9, 44, 0
4, 35727, Note_on_c, 9, 51, 64
4, 35730, Note_on_c, 9, 51, 0
4, 35742, Note_on_c, 9, 51, 0
4, 35767, Note_on_c, 9, 51, 70
4, 35847, Note_on_c, 9, 51, 80
4, 35859, Note_on_c, 9, 51, 0
4, 35887, Note_on_c, 9, 44, 64
4, 35934, Note_on_c, 9, 51, 0
4, 35967, Note_on_c, 9, 51, 59
4, 35977, Note_on_c, 9, 51, 0
4, 35998, Note_on_c, 9, 44, 0
4, 36007, Note_on_c, 9, 51, 90
4, 36101, Note_on_c, 9, 51, 0
4, 36127, Note_on_c, 9, 51, 84
4, 36127, Note_on_c, 9, 44, 67
4, 36200, Note_on_c, 9, 44, 0
4, 36207, Note_on_c, 9, 51, 52
4, 36210, Note_on_c, 9, 51, 0
4, 36215, Note_on_c, 9, 51, 0
4, 36240, Note_on_c, 9, 38, 38
4, 36247, Note_on_c, 9, 51, 77
4, 36250, Note_on_c, 9, 38, 0
4, 36280, Note_on_c, 9, 38, 45
4, 36289, Note_on_c, 9, 38, 0
4, 36327, Note_on_c, 9, 44, 62
4, 36344, Note_on_c, 9, 51, 0
4, 36357, Note_on_c, 9, 44, 0
4, 36367, Note_on_c, 9, 51, 84
4, 36448, Note_on_c, 9, 51, 0
4, 36487, Note_on_c, 9, 51, 81
4, 36560, Note_on_c, 9, 36, 24
4, 36564, Note_on_c, 9, 51, 0
4, 36568, Note_on_c, 9, 36, 0
4, 36607, Note_on_c, 9, 51, 83
4, 36607, Note_on_c, 9, 44, 64
4, 36649, Note_on_c, 9, 44, 0
4, 36680, Note_on_c, 9, 51, 0
4, 36687, Note_on_c, 9, 51, 45
4, 36687, Note_on_c, 9, 51, 68
4, 36695, Note_on_c, 9, 51, 0
4, 36760, Note_on_c, 9, 38, 35
4, 36770, Note_on_c, 9, 38, 0
4, 36771, Note_on_c, 9, 51, 0
4, 36807, Note_on_c, 9, 51, 88
4, 36840, Note_on_c, 9, 38, 64
4, 36847, Note_on_c, 9, 44, 68
4, 36849, Note_on_c, 9, 38, 0
4, 36880, Note_on_c, 9, 51, 0
4, 36889, Note_on_c, 9, 44, 0
4, 36920, Note_on_c, 9, 38, 72
4, 36927, Note_on_c, 9, 51, 64
4, 36929, Note_on_c, 9, 38, 0
4, 36944, Note_on_c, 9, 51, 0
4, 36967, Note_on_c, 9, 51, 83
4, 37040, Note_on_c, 9, 36, 32
4, 37051, Note_on_c, 9, 36, 0
4, 37065, Note_on_c, 9, 51, 0
4, 37087, Note_on_c, 9, 51, 81
4, 37087, Note_on_c, 9, 44, 64
4, 37139, Note_on_c, 9, 44, 0
4, 37153, Note_on_c, 9, 51, 0
4, 37167, Note_on_c, 9, 51, 42
4, 37177, Note_on_c, 9, 51, 0
4, 37207, Note_on_c, 9, 51, 83
4, 37280, Note_on_c, 9, 36, 24
4, 37289, Note_on_c, 9, 36, 0
4, 37297, Note_on_c, 9, 51, 0
4, 37320, Note_on_c, 9, 37, 88
4, 37327, Note_on_c, 9, 51, 88
4, 37327, Note_on_c, 9, 44, 64
4, 37387, Note_on_c, 9, 44, 0
4, 37387, Note_on_c, 9, 37, 0
4, 37400, Note_on_c, 9, 37, 77
4, 37427, Note_on_c, 9, 51, 0
4, 37438, Note_on_c, 9, 37, 0
4, 37447, Note_on_c, 9, 51, 82
4, 37520, Note_on_c, 9, 36, 46
4, 37526, Note_on_c, 9, 51, 0
4, 37527, Note_on_c, 9, 51, 58
4, 37530, Note_on_c, 9, 36, 0
4, 37537, Note_on_c, 9, 51, 0
4, 37567, Note_on_c, 9, 51, 82
4, 37567, Note_on_c, 9, 44, 60
4, 37626, Note_on_c, 9, 44, 0
4, 37669, Note_on_c, 9, 51, 0
4, 37687, Note_on_c, 9, 51, 81
4, 37767, Note_on_c, 9, 51, 48
4, 37773, Note_on_c, 9, 51, 0
4, 37775, Note_on_c, 9, 51, 0
4, 37807, Note_on_c, 9, 51, 80
4, 37807, Note_on_c, 9, 44, 48
4, 37856, Note_on_c, 9, 44, 0
4, 37906, Note_on_c, 9, 51, 0
4, 37927, Note_on_c, 9, 51, 80
4, 38025, Note_on_c, 9, 51, 0
4, 38047, Note_on_c, 9, 51, 77
4, 38047, Note_on_c, 9, 44, 67
4, 38080, Note_on_c, 9, 44, 0
4, 38108, Note_on_c, 9, 51, 0
4, 38127, Note_on_c, 9, 51, 62
4, 38150, Note_on_c, 9, 51, 0
4, 38167, Note_on_c, 9, 51, 67
4, 38167, Note_on_c, 9, 53, 73
4, 38255, Note_on_c, 9, 51, 0
4, 38265, Note_on_c, 9, 53, 0
4, 38287, Note_on_c, 9, 51, 74
4, 38287, Note_on_c, 9, 44, 69
4, 38326, Note_on_c, 9, 44, 0
4, 38336, Note_on_c, 9, 51, 0
4, 38367, Note_on_c, 9, 51, 79
4, 38367, Note_on_c, 9, 53, 80
4, 38450, Note_on_c, 9, 51, 0
4, 38480, Note_on_c, 9, 53, 0
4, 38487, Note_on_c, 9, 51, 35
4, 38496, Note_on_c, 9, 51, 0
4, 38527, Note_on_c, 9, 51, 79
4, 38527, Note_on_c, 9, 53, 80
4, 38527, Note_on_c, 9, 44, 71
4, 38559, Note_on_c, 9, 44, 0
4, 38609, Note_on_c, 9, 51, 0
4, 38636, Note_on_c, 9, 53, 0
4, 38647, Note_on_c, 9, 51, 60
4, 38673, Note_on_c, 9, 51, 0
4, 38720, Note_on_c, 9, 38, 71
4, 38727, Note_on_c, 9, 51, 92
4, 38727, Note_on_c, 9, 53, 88
4, 38738, Note_on_c, 9, 38, 0
4, 38767, Note_on_c, 9, 46, 60
4, 38790, Note_on_c, 9, 46, 0
4, 38812, Note_on_c, 9, 51, 0
4, 38825, Note_on_c, 9, 53, 0
4, 38840, Note_on_c, 9, 36, 50
4, 38847, Note_on_c, 9, 51, 58
4, 38849, Note_on_c, 9, 36, 0
4, 38859, Note_on_c, 9, 51, 0
4, 38880, Note_on_c, 9, 57, 65
4, 38880, Note_on_c, 9, 36, 60
4, 38887, Note_on_c, 9, 51, 90
4, 38896, Note_on_c, 9, 57, 0
4, 38913, Note_on_c, 9, 36, 0
4, 38982, Note_on_c, 9, 51, 0
4, 39007, Note_on_c, 9, 51, 85
4, 39007, Note_on_c, 9, 44, 67
4, 39043, Note_on_c, 9, 44, 0
4, 39075, Note_on_c, 9, 51, 0
4, 39087, Note_on_c, 9, 51, 57
4, 39101, Note_on_c, 9, 51, 0
4, 39127, Note_on_c, 9, 51, 85
4, 39221, Note_on_c, 9, 51, 0
4, 39247, Note_on_c, 9, 51, 85
4, 39247, Note_on_c, 9, 44, 68
4, 39285, Note_on_c, 9, 44, 0
4, 39330, Note_on_c, 9, 51, 0
4, 39367, Note_on_c, 9, 51, 85
4, 39452, Note_on_c, 9, 51, 0
4, 39487, Note_on_c, 9, 51, 84
4, 39487, Note_on_c, 9, 44, 71
4, 39522, Note_on_c, 9, 44, 0
4, 39561, Note_on_c, 9, 51, 0
4, 39567, Note_on_c, 9, 51, 57
4, 39582, Note_on_c, 9, 51, 0
4, 39607, Note_on_c, 9, 51, 84
4, 39680, Note_on_c, 9, 38, 66
4, 39692, Note_on_c, 9, 38, 0
4, 39699, Note_on_c, 9, 51, 0
4, 39727, Note_on_c, 9, 51, 83
4, 39727, Note_on_c, 9, 44, 71
4, 39771, Note_on_c, 9, 44, 0
4, 39794, Note_on_c, 9, 51, 0
4, 39800, Note_on_c, 9, 36, 32
4, 39807, Note_on_c, 9, 51, 53
4, 39809, Note_on_c, 9, 36, 0
4, 39825, Note_on_c, 9, 51, 0
4, 39840, Note_on_c, 9, 38, 34
4, 39847, Note_on_c, 9, 51, 83
4, 39861, Note_on_c, 9, 38, 0
4, 39930, Note_on_c, 9, 51, 0
4, 39967, Note_on_c, 9, 51, 84
4, 39967, Note_on_c, 9, 44, 73
4, 40015, Note_on_c, 9, 44, 0
4, 40045, Note_on_c, 9, 51, 0
4, 40080, Note_on_c, 9, 38, 54
4, 40087, Note_on_c, 9, 51, 79
4, 40121, Note_on_c, 9, 38, 0
4, 40140, Note_on_c, 9, 51, 0
4, 40160, Note_on_c, 9, 36, 46
4, 40167, Note_on_c, 9, 51, 93
4, 40167, Note_on_c, 9, 53, 83
4, 40174, Note_on_c, 9, 36, 0
4, 40200, Note_on_c, 9, 38, 63
4, 40207, Note_on_c, 9, 44, 75
4, 40251, Note_on_c, 9, 44, 0
4, 40255, Note_on_c, 9, 51, 0
4, 40258, Note_on_c, 9, 38, 0
4, 40264, Note_on_c, 9, 53, 0
4, 40287, Note_on_c, 9, 51, 52
4, 40304, Note_on_c, 9, 51, 0
4, 40327, Note_on_c, 9, 51, 84
4, 40327, Note_on_c, 9, 53, 85
4, 40400, Note_on_c, 9, 38, 65
4, 40417, Note_on_c, 9, 53, 0
4, 40418, Note_on_c, 9, 38, 0
4, 40418, Note_on_c, 9, 51, 0
4, 40447, Note_on_c, 9, 51, 63
4, 40447, Note_on_c, 9, 44, 72
4, 40495, Note_on_c, 9, 51, 0
4, 40508, Note_on_c, 9, 44, 0
4, 40527, Note_on_c, 9, 51, 83
4, 40625, Note_on_c, 9, 51, 0
4, 40640, Note_on_c, 9, 36, 28
4, 40647, Note_on_c, 9, 51, 51
4, 40648, Note_on_c, 9, 36, 0
4, 40666, Note_on_c, 9, 51, 0
4, 40680, Note_on_c, 9, 38, 52
4, 40687, Note_on_c, 9, 51, 71
4, 40687, Note_on_c, 9, 44, 72
4, 40724, Note_on_c, 9, 44, 0
4, 40735, Note_on_c, 9, 38, 0
4, 40749, Note_on_c, 9, 51, 0
4, 40760, Note_on_c, 9, 38, 54
4, 40767, Note_on_c, 9, 51, 63
4, 40774, Note_on_c, 9, 38, 0
4, 40784, Note_on_c, 9, 51, 0
4, 40800, Note_on_c, 9, 36, 30
4, 40807, Note_on_c, 9, 51, 85
4, 40818, Note_on_c, 9, 36, 0
4, 40880, Note_on_c, 9, 36, 51
4, 40894, Note_on_c, 9, 51, 0
4, 40902, Note_on_c, 9, 36, 0
4, 40927, Note_on_c, 9, 51, 87
4, 40927, Note_on_c, 9, 44, 76
4, 40968, Note_on_c, 9, 44, 0
4, 41007, Note_on_c, 9, 51, 61
4, 41009, Note_on_c, 9, 51, 0
4, 41022, Note_on_c, 9, 51, 0
4, 41047, Note_on_c, 9, 51, 80
4, 41143, Note_on_c, 9, 51, 0
4, 41167, Note_on_c, 9, 51, 79
4, 41167, Note_on_c, 9, 44, 73
4, 41208, Note_on_c, 9, 44, 0
4, 41246, Note_on_c, 9, 51, 0
4, 41247, Note_on_c, 9, 51, 57
4, 41261, Note_on_c, 9, 51, 0
4, 41280, Note_on_c, 9, 40, 36
4, 41287, Note_on_c, 9, 51, 81
4, 41293, Note_on_c, 9, 40, 0
4, 41320, Note_on_c, 9, 40, 38
4, 41332, Note_on_c, 9, 40, 0
4, 41383, Note_on_c, 9, 51, 0
4, 41407, Note_on_c, 9, 51, 81
4, 41407, Note_on_c, 9, 44, 76
4, 41443, Note_on_c, 9, 44, 0
4, 41479, Note_on_c, 9, 51, 0
4, 41480, Note_on_c, 9, 36, 32
4, 41487, Note_on_c, 9, 51, 61
4, 41493, Note_on_c, 9, 36, 0
4, 41503, Note_on_c, 9, 51, 0
4, 41527, Note_on_c, 9, 51, 82
4, 41560, Note_on_c, 9, 38, 54
4, 41569, Note_on_c, 9, 38, 0
4, 41621, Note_on_c, 9, 51, 0
4, 41640, Note_on_c, 9, 38, 48
4, 41647, Note_on_c, 9, 51, 81
4, 41647, Note_on_c, 9, 44, 75
4, 41650, Note_on_c, 9, 38, 0
4, 41705, Note_on_c, 9, 44, 0
4, 41720, Note_on_c, 9, 51, 0
4, 41720, Note_on_c, 9, 38, 49
4, 41727, Note_on_c, 9, 51, 59
4, 41730, Note_on_c, 9, 38, 0
4, 41744, Note_on_c, 9, 51, 0
4, 41767, Note_on_c, 9, 51, 80
4, 41840, Note_on_c, 9, 36, 37
4, 41850, Note_on_c, 9, 36, 0
4, 41855, Note_on_c, 9, 51, 0
4, 41887, Note_on_c, 9, 51, 82
4, 41887, Note_on_c, 9, 44, 75
4, 41939, Note_on_c, 9, 44, 0
4, 41967, Note_on_c, 9, 51, 44
4, 41969, Note_on_c, 9, 51, 0
4, 41983, Note_on_c, 9, 51, 0
4, 42007, Note_on_c, 9, 51, 74
4, 42096, Note_on_c, 9, 51, 0
4, 42127, Note_on_c, 9, 51, 83
4, 42127, Note_on_c, 9, 44, 77
4, 42165, Note_on_c, 9, 44, 0
4, 42198, Note_on_c, 9, 51, 0
4, 42200, Note_on_c, 9, 37, 51
4, 42205, Note_on_c, 9, 37, 0
4, 42207, Note_on_c, 9, 51, 53
4, 42223, Note_on_c, 9, 51, 0
4, 42247, Note_on_c, 9, 51, 74
4, 42280, Note_on_c, 9, 37, 55
4, 42298, Note_on_c, 9, 37, 0
4, 42334, Note_on_c, 9, 51, 0
4, 42360, Note_on_c, 9, 37, 53
4, 42367, Note_on_c, 9, 51, 84
4, 42367, Note_on_c, 9, 44, 76
4, 42370, Note_on_c, 9, 37, 0
4, 42403, Note_on_c, 9, 44, 0
4, 42440, Note_on_c, 9, 37, 61
4, 42442, Note_on_c, 9, 51, 0
4, 42447, Note_on_c, 9, 51, 46
4, 42457, Note_on_c, 9, 51, 0
4, 42463, Note_on_c, 9, 37, 0
4, 42487, Note_on_c, 9, 51, 74
4, 42520, Note_on_c, 9, 37, 56
4, 42542, Note_on_c, 9, 37, 0
4, 42575, Note_on_c, 9, 51, 0
4, 42600, Note_on_c, 9, 37, 62
4, 42607, Note_on_c, 9, 51, 87
4, 42607, Note_on_c, 9, 44, 71
4, 42625, Note_on_c, 9, 37, 0
4, 42642, Note_on_c, 9, 44, 0
4, 42680, Note_on_c, 9, 37, 74
4, 42680, Note_on_c, 9, 36, 78
4, 42680, Note_on_c, 9, 57, 85
4, 42686, Note_on_c, 9, 51, 0
4, 42697, Note_on_c, 9, 36, 0
4, 42698, Note_on_c, 9, 57, 0
4, 42699, Note_on_c, 9, 37, 0
4, 42727, Note_on_c, 9, 51, 88
4, 42806, Note_on_c, 9, 51, 0
4, 42847, Note_on_c, 9, 51, 90
4, 42847, Note_on_c, 9, 44, 71
4, 42883, Note_on_c, 9, 44, 0
4, 42925, Note_on_c, 9, 51, 0
4, 42967, Note_on_c, 9, 51, 85
4, 43040, Note_on_c, 9, 36, 46
4, 43044, Note_on_c, 9, 51, 0
4, 43047, Note_on_c, 9, 51, 50
4, 43054, Note_on_c, 9, 36, 0
4, 43060, Note_on_c, 9, 51, 0
4, 43080, Note_on_c, 9, 36, 61
4, 43080, Note_on_c, 9, 37, 50
4, 43080, Note_on_c, 9, 57, 79
4, 43080, Note_on_c, 9, 38, 38
4, 43087, Note_on_c, 9, 51, 83
4, 43087, Note_on_c, 9, 44, 69
4, 43098, Note_on_c, 9, 57, 0
4, 43102, Note_on_c, 9, 38, 0
4, 43111, Note_on_c, 9, 37, 0
4, 43120, Note_on_c, 9, 36, 0
4, 43120, Note_on_c, 9, 44, 0
4, 43174, Note_on_c, 9, 51, 0
4, 43207, Note_on_c, 9, 51, 88
4, 43284, Note_on_c, 9, 51, 0
4, 43287, Note_on_c, 9, 51, 40
4, 43298, Note_on_c, 9, 51, 0
4, 43327, Note_on_c, 9, 51, 74
4, 43327, Note_on_c, 9, 44, 70
4, 43354, Note_on_c, 9, 44, 0
4, 43402, Note_on_c, 9, 51, 0
4, 43407, Note_on_c, 9, 51, 47
4, 43420, Note_on_c, 9, 51, 0
4, 43447, Note_on_c, 9, 51, 84
4, 43529, Note_on_c, 9, 51, 0
4, 43567, Note_on_c, 9, 51, 85
4, 43567, Note_on_c, 9, 46, 60
4, 43599, Note_on_c, 9, 46, 0
4, 43635, Note_on_c, 9, 51, 0
4, 43640, Note_on_c, 9, 38, 57
4, 43647, Note_on_c, 9, 51, 50
4, 43648, Note_on_c, 9, 38, 0
4, 43665, Note_on_c, 9, 51, 0
4, 43680, Note_on_c, 9, 36, 33
4, 43687, Note_on_c, 9, 51, 85
4, 43702, Note_on_c, 9, 36, 0
4, 43760, Note_on_c, 9, 38, 42
4, 43769, Note_on_c, 9, 38, 0
4, 43776, Note_on_c, 9, 51, 0
4, 43807, Note_on_c, 9, 51, 79
4, 43807, Note_on_c, 9, 44, 69
4, 43846, Note_on_c, 9, 44, 0
4, 43887, Note_on_c, 9, 51, 48
4, 43889, Note_on_c, 9, 51, 0
4, 43896, Note_on_c, 9, 51, 0
4, 43927, Note_on_c, 9, 51, 82
4, 44000, Note_on_c, 9, 36, 30
4, 44009, Note_on_c, 9, 36, 0
4, 44025, Note_on_c, 9, 51, 0
4, 44040, Note_on_c, 9, 38, 37
4, 44047, Note_on_c, 9, 51, 78
4, 44047, Note_on_c, 9, 44, 64
4, 44055, Note_on_c, 9, 38, 0
4, 44090, Note_on_c, 9, 44, 0
4, 44120, Note_on_c, 9, 38, 64
4, 44127, Note_on_c, 9, 51, 42
4, 44130, Note_on_c, 9, 51, 0
4, 44136, Note_on_c, 9, 38, 0
4, 44141, Note_on_c, 9, 51, 0
4, 44167, Note_on_c, 9, 51, 78
4, 44263, Note_on_c, 9, 51, 0
4, 44287, Note_on_c, 9, 51, 76
4, 44287, Note_on_c, 9, 44, 74
4, 44323, Note_on_c, 9, 44, 0
4, 44357, Note_on_c, 9, 51, 0
4, 44367, Note_on_c, 9, 51, 78
4, 44367, Note_on_c, 9, 53, 71
4, 44400, Note_on_c, 9, 38, 38
4, 44416, Note_on_c, 9, 38, 0
4, 44470, Note_on_c, 9, 51, 0
4, 44487, Note_on_c, 9, 51, 40
4, 44492, Note_on_c, 9, 53, 0
4, 44505, Note_on_c, 9, 51, 0
4, 44527, Note_on_c, 9, 51, 80
4, 44527, Note_on_c, 9, 53, 80
4, 44527, Note_on_c, 9, 44, 65
4, 44583, Note_on_c, 9, 44, 0
4, 44631, Note_on_c, 9, 53, 0
4, 44632, Note_on_c, 9, 51, 0
4, 44647, Note_on_c, 9, 51, 69
4, 44720, Note_on_c, 9, 38, 41
4, 44724, Note_on_c, 9, 51, 0
4, 44727, Note_on_c, 9, 51, 39
4, 44730, Note_on_c, 9, 38, 0
4, 44738, Note_on_c, 9, 51, 0
4, 44760, Note_on_c, 9, 38, 38
4, 44767, Note_on_c, 9, 51, 83
4, 44767, Note_on_c, 9, 44, 72
4, 44770, Note_on_c, 9, 38, 0
4, 44813, Note_on_c, 9, 44, 0
4, 44871, Note_on_c, 9, 51, 0
4, 44880, Note_on_c, 9, 38, 40
4, 44887, Note_on_c, 9, 51, 76
4, 44892, Note_on_c, 9, 38, 0
4, 44960, Note_on_c, 9, 38, 58
4, 44967, Note_on_c, 9, 51, 35
4, 44969, Note_on_c, 9, 38, 0
4, 44971, Note_on_c, 9, 51, 0
4, 44982, Note_on_c, 9, 51, 0
4, 45007, Note_on_c, 9, 51, 83
4, 45007, Note_on_c, 9, 44, 74
4, 45052, Note_on_c, 9, 44, 0
4, 45105, Note_on_c, 9, 51, 0
4, 45120, Note_on_c, 9, 38, 48
4, 45127, Note_on_c, 9, 51, 77
4, 45170, Note_on_c, 9, 38, 0
4, 45200, Note_on_c, 9, 38, 39
4, 45211, Note_on_c, 9, 51, 0
4, 45213, Note_on_c, 9, 38, 0
4, 45240, Note_on_c, 9, 38, 40
4, 45247, Note_on_c, 9, 51, 81
4, 45247, Note_on_c, 9, 44, 65
4, 45295, Note_on_c, 9, 44, 0
4, 45297, Note_on_c, 9, 38, 0
4, 45320, Note_on_c, 9, 38, 44
4, 45327, Note_on_c, 9, 51, 36
4, 45335, Note_on_c, 9, 51, 0
4, 45336, Note_on_c, 9, 51, 0
4, 45337, Note_on_c, 9, 38, 0
4, 45367, Note_on_c, 9, 51, 82
4, 45458, Note_on_c, 9, 51, 0
4, 45487, Note_on_c, 9, 51, 79
4, 45487, Note_on_c, 9, 44, 71
4, 45524, Note_on_c, 9, 44, 0
4, 45560, Note_on_c, 9, 38, 38
4, 45565, Note_on_c, 9, 51, 0
4, 45567, Note_on_c, 9, 51, 51
4, 45572, Note_on_c, 9, 38, 0
4, 45576, Note_on_c, 9, 51, 0
4, 45600, Note_on_c, 9, 38, 19
4, 45607, Note_on_c, 9, 51, 69
4, 45630, Note_on_c, 9, 38, 0
4, 45695, Note_on_c, 9, 51, 0
4, 45727, Note_on_c, 9, 51, 73
4, 45727, Note_on_c, 9, 44, 73
4, 45763, Note_on_c, 9, 44, 0
4, 45800, Note_on_c, 9, 38, 58
4, 45807, Note_on_c, 9, 51, 53
4, 45808, Note_on_c, 9, 51, 0
4, 45812, Note_on_c, 9, 38, 0
4, 45824, Note_on_c, 9, 51, 0
4, 45847, Note_on_c, 9, 51, 64
4, 45938, Note_on_c, 9, 51, 0
4, 45967, Note_on_c, 9, 51, 79
4, 45967, Note_on_c, 9, 44, 72
4, 46002, Note_on_c, 9, 44, 0
4, 46040, Note_on_c, 9, 51, 0
4, 46040, Note_on_c, 9, 38, 53
4, 46047, Note_on_c, 9, 51, 46
4, 46054, Note_on_c, 9, 38, 0
4, 46067, Note_on_c, 9, 51, 0
4, 46087, Note_on_c, 9, 51, 83
4, 46179, Note_on_c, 9, 51, 0
4, 46207, Note_on_c, 9, 51, 79
4, 46207, Note_on_c, 9, 44, 62
4, 46236, Note_on_c, 9, 44, 0
4, 46269, Note_on_c, 9, 51, 0
4, 46280, Note_on_c, 9, 38, 50
4, 46287, Note_on_c, 9, 51, 51
4, 46290, Note_on_c, 9, 38, 0
4, 46305, Note_on_c, 9, 51, 0
4, 46327, Note_on_c, 9, 51, 60
4, 46378, Note_on_c, 9, 51, 0
4, 46407, Note_on_c, 9, 51, 73
4, 46407, Note_on_c, 9, 53, 74
4, 46447, Note_on_c, 9, 46, 55
4, 46476, Note_on_c, 9, 46, 0
4, 46520, Note_on_c, 9, 38, 74
4, 46520, Note_on_c, 9, 57, 60
4, 46529, Note_on_c, 9, 57, 0
4, 46529, Note_on_c, 9, 51, 0
4, 46533, Note_on_c, 9, 53, 0
4, 46535, Note_on_c, 9, 38, 0
4, 46560, Note_on_c, 9, 51, 95
4, 46609, Note_on_c, 9, 51, 0
4, 46640, Note_on_c, 9, 44, 67
4, 46680, Note_on_c, 9, 51, 99
4, 46740, Note_on_c, 9, 51, 0
4, 46745, Note_on_c, 9, 44, 0
4, 46800, Note_on_c, 9, 51, 97
4, 46854, Note_on_c, 9, 51, 0
4, 46880, Note_on_c, 9, 51, 56
4, 46891, Note_on_c, 9, 51, 0
4, 46920, Note_on_c, 9, 51, 82
4, 46920, Note_on_c, 9, 44, 68
4, 46984, Note_on_c, 9, 44, 0
4, 47008, Note_on_c, 9, 51, 0
4, 47040, Note_on_c, 9, 51, 88
4, 47118, Note_on_c, 9, 51, 0
4, 47160, Note_on_c, 9, 51, 87
4, 47160, Note_on_c, 9, 44, 64
4, 47228, Note_on_c, 9, 44, 0
4, 47240, Note_on_c, 9, 51, 64
4, 47243, Note_on_c, 9, 51, 0
4, 47255, Note_on_c, 9, 51, 0
4, 47280, Note_on_c, 9, 51, 70
4, 47360, Note_on_c, 9, 51, 80
4, 47372, Note_on_c, 9, 51, 0
4, 47400, Note_on_c, 9, 44, 64
4, 47447, Note_on_c, 9, 51, 0
4, 47480, Note_on_c, 9, 51, 59
4, 47480, Note_on_c, 9, 38, 44
4, 47490, Note_on_c, 9, 38, 0
4, 47490, Note_on_c, 9, 51, 0
4, 47511, Note_on_c, 9, 44, 0
4, 47520, Note_on_c, 9, 51, 90
4, 47614, Note_on_c, 9, 51, 0
4, 47640, Note_on_c, 9, 51, 84
4, 47640, Note_on_c, 9, 44, 67
4, 47713, Note_on_c, 9, 44, 0
4, 47720, Note_on_c, 9, 51, 52
4, 47723, Note_on_c, 9, 51, 0
4, 47728, Note_on_c, 9, 51, 0
4, 47760, Note_on_c, 9, 51, 77
4, 47840, Note_on_c, 9, 44, 62
4, 47840, Note_on_c, 9, 38, 45
4, 47857, Note_on_c, 9, 51, 0
4, 47866, Note_on_c, 9, 38, 0
4, 47870, Note_on_c, 9, 44, 0
4, 47880, Note_on_c, 9, 51, 84
4, 47880, Note_on_c, 9, 36, 17
4, 47907, Note_on_c, 9, 36, 0
4, 47960, Note_on_c, 9, 36, 40
4, 47961, Note_on_c, 9, 51, 0
4, 47976, Note_on_c, 9, 36, 0
4, 48000, Note_on_c, 9, 51, 81
4, 48077, Note_on_c, 9, 51, 0
4, 48120, Note_on_c, 9, 51, 83
4, 48120, Note_on_c, 9, 44, 64
4, 48162, Note_on_c, 9, 44, 0
4, 48193, Note_on_c, 9, 51, 0
4, 48200, Note_on_c, 9, 51, 45
4, 48200, Note_on_c, 9, 51, 68
4, 48208, Note_on_c, 9, 51, 0
4, 48284, Note_on_c, 9, 51, 0
4, 48320, Note_on_c, 9, 51, 88
4, 48320, Note_on_c, 9, 38, 62
4, 48337, Note_on_c, 9, 38, 0
4, 48360, Note_on_c, 9, 44, 68
4, 48393, Note_on_c, 9, 51, 0
4, 48402, Note_on_c, 9, 44, 0
4, 48440, Note_on_c, 9, 51, 64
4, 48440, Note_on_c, 9, 38, 55
4, 48440, Note_on_c, 9, 57, 66
4, 48440, Note_on_c, 9, 36, 41
4, 48451, Note_on_c, 9, 57, 0
4, 48452, Note_on_c, 9, 38, 0
4, 48454, Note_on_c, 9, 36, 0
4, 48457, Note_on_c, 9, 51, 0
4, 48480, Note_on_c, 9, 51, 83
4, 48578, Note_on_c, 9, 51, 0
4, 48600, Note_on_c, 9, 51, 81
4, 48600, Note_on_c, 9, 44, 64
4, 48652, Note_on_c, 9, 44, 0
4, 48666, Note_on_c, 9, 51, 0
4, 48680, Note_on_c, 9, 51, 42
4, 48690, Note_on_c, 9, 51, 0
4, 48720, Note_on_c, 9, 51, 83
4, 48810, Note_on_c, 9, 51, 0
4, 48840, Note_on_c, 9, 51, 88
4, 48840, Note_on_c, 9, 44, 64
4, 48900, Note_on_c, 9, 44, 0
4, 48940, Note_on_c, 9, 51, 0
4, 48960, Note_on_c, 9, 51, 82
4, 49039, Note_on_c, 9, 51, 0
4, 49040, Note_on_c, 9, 51, 58
4, 49050, Note_on_c, 9, 51, 0
4, 49080, Note_on_c, 9, 51, 82
4, 49080, Note_on_c, 9, 44, 60
4, 49139, Note_on_c, 9, 44, 0
4, 49182, Note_on_c, 9, 51, 0
4, 49200, Note_on_c, 9, 51, 81
4, 49280, Note_on_c, 9, 51, 48
4, 49280, Note_on_c, 9, 38, 56
4, 49286, Note_on_c, 9, 51, 0
4, 49288, Note_on_c, 9, 38, 0
4, 49288, Note_on_c, 9, 51, 0
4, 49320, Note_on_c, 9, 51, 80
4, 49320, Note_on_c, 9, 44, 48
4, 49320, Note_on_c, 9, 38, 64
4, 49331, Note_on_c, 9, 38, 0
4, 49360, Note_on_c, 9, 36, 61
4, 49369, Note_on_c, 9, 44, 0
4, 49381, Note_on_c, 9, 36, 0
4, 49419, Note_on_c, 9, 51, 0
4, 49440, Note_on_c, 9, 51, 80
4, 49440, Note_on_c, 9, 36, 68
4, 49473, Note_on_c, 9, 36, 0
4, 49520, Note_on_c, 9, 36, 57
4, 49538, Note_on_c, 9, 51, 0
4, 49542, Note_on_c, 9, 36, 0
4, 49560, Note_on_c, 9, 51, 77
4, 49560, Note_on_c, 9, 44, 67
4, 49593, Note_on_c, 9, 44, 0
4, 49621, Note_on_c, 9, 51, 0
4, 49640, Note_on_c, 9, 51, 62
4, 49663, Note_on_c, 9, 51, 0
4, 49680, Note_on_c, 9, 51, 67
4, 49680, Note_on_c, 9, 53, 73
4, 49768, Note_on_c, 9, 51, 0
4, 49778, Note_on_c, 9, 53, 0
4, 49800, Note_on_c, 9, 51, 74
4, 49800, Note_on_c, 9, 44, 69
4, 49839, Note_on_c, 9, 44, 0
4, 49849, Note_on_c, 9, 51, 0
4, 49880, Note_on_c, 9, 51, 79
4, 49880, Note_on_c, 9, 53, 80
4, 49963, Note_on_c, 9, 51, 0
4, 49993, Note_on_c, 9, 53, 0
4, 50000, Note_on_c, 9, 51, 35
4, 50000, Note_on_c, 9, 40, 66
4, 50009, Note_on_c, 9, 51, 0
4, 50019, Note_on_c, 9, 40, 0
4, 50040, Note_on_c, 9, 51, 79
4, 50040, Note_on_c, 9, 53, 80
4, 50040, Note_on_c, 9, 44, 71
4, 50040, Note_on_c, 9, 36, 24
4, 50052, Note_on_c, 9, 36, 0
4, 50072, Note_on_c, 9, 44, 0
4, 50122, Note_on_c, 9, 51, 0
4, 50149, Note_on_c, 9, 53, 0
4, 50160, Note_on_c, 9, 51, 60
4, 50186, Note_on_c, 9, 51, 0
4, 50240, Note_on_c, 9, 51, 92
4, 50240, Note_on_c, 9, 53, 88
4, 50240, Note_on_c, 9, 40, 69
4, 50260, Note_on_c, 9, 40, 0
4, 50280, Note_on_c, 9, 46, 60
4, 50303, Note_on_c, 9, 46, 0
4, 50325, Note_on_c, 9, 51, 0
4, 50338, Note_on_c, 9, 53, 0
4, 50360, Note_on_c, 9, 51, 58
4, 50360, Note_on_c, 9, 40, 81
4, 50360, Note_on_c, 9, 57, 80
4, 50360, Note_on_c, 9, 36, 71
4, 50368, Note_on_c, 9, 57, 0
4, 50369, Note_on_c, 9, 36, 0
4, 50372, Note_on_c, 9, 51, 0
4, 50373, Note_on_c, 9, 40, 0
4, 50400, Note_on_c, 9, 51, 90
4, 50495, Note_on_c, 9, 51, 0
4, 50520, Note_on_c, 9, 51, 85
4, 50520, Note_on_c, 9, 44, 67
4, 50556, Note_on_c, 9, 44, 0
4, 50588, Note_on_c, 9, 51, 0
4, 50600, Note_on_c, 9, 51, 57
4, 50614, Note_on_c, 9, 51, 0
4, 50640, Note_on_c, 9, 51, 85
4, 50720, Note_on_c, 9, 38, 51
4, 50734, Note_on_c, 9, 51, 0
4, 50739, Note_on_c, 9, 38, 0
4, 50760, Note_on_c, 9, 51, 85
4, 50760, Note_on_c, 9, 44, 68
4, 50798, Note_on_c, 9, 44, 0
4, 50840, Note_on_c, 9, 57, 55
4, 50840, Note_on_c, 9, 36, 66
4, 50843, Note_on_c, 9, 51, 0
4, 50849, Note_on_c, 9, 57, 0
4, 50866, Note_on_c, 9, 36, 0
4, 50880, Note_on_c, 9, 51, 85
4, 50965, Note_on_c, 9, 51, 0
4, 51000, Note_on_c, 9, 51, 84
4, 51000, Note_on_c, 9, 44, 71
4, 51035, Note_on_c, 9, 44, 0
4, 51074, Note_on_c, 9, 51, 0
4, 51080, Note_on_c, 9, 51, 57
4, 51095, Note_on_c, 9, 51, 0
4, 51120, Note_on_c, 9, 51, 84
4, 51212, Note_on_c, 9, 51, 0
4, 51240, Note_on_c, 9, 51, 83
4, 51240, Note_on_c, 9, 44, 71
4, 51284, Note_on_c, 9, 44, 0
4, 51307, Note_on_c, 9, 51, 0
4, 51320, Note_on_c, 9, 51, 53
4, 51338, Note_on_c, 9, 51, 0
4, 51360, Note_on_c, 9, 51, 83
4, 51443, Note_on_c, 9, 51, 0
4, 51480, Note_on_c, 9, 51, 84
4, 51480, Note_on_c, 9, 44, 73
4, 51528, Note_on_c, 9, 44, 0
4, 51558, Note_on_c, 9, 51, 0
4, 51600, Note_on_c, 9, 51, 79
4, 51600, Note_on_c, 9, 38, 39
4, 51612, Note_on_c, 9, 38, 0
4, 51640, Note_on_c, 9, 38, 46
4, 51652, Note_on_c, 9, 38, 0
4, 51653, Note_on_c, 9, 51, 0
4, 51680, Note_on_c, 9, 51, 93
4, 51680, Note_on_c, 9, 53, 83
4, 51720, Note_on_c, 9, 44, 75
4, 51720, Note_on_c, 9, 38, 50
4, 51720, Note_on_c, 9, 38, 46
4, 51729, Note_on_c, 9, 38, 0
4, 51729, Note_on_c, 9, 38, 0
4, 51764, Note_on_c, 9, 44, 0
4, 51768, Note_on_c, 9, 51, 0
4, 51777, Note_on_c, 9, 53, 0
4, 51800, Note_on_c, 9, 51, 52
4, 51817, Note_on_c, 9, 51, 0
4, 51840, Note_on_c, 9, 51, 84
4, 51840, Note_on_c, 9, 53, 85
4, 51930, Note_on_c, 9, 53, 0
4, 51931, Note_on_c, 9, 51, 0
4, 51960, Note_on_c, 9, 51, 63
4, 51960, Note_on_c, 9, 44, 72
4, 52008, Note_on_c, 9, 51, 0
4, 52021, Note_on_c, 9, 44, 0
4, 52040, Note_on_c, 9, 51, 83
4, 52120, Note_on_c, 9, 38, 54
4, 52129, Note_on_c, 9, 38, 0
4, 52138, Note_on_c, 9, 51, 0
4, 52160, Note_on_c, 9, 51, 51
4, 52160, Note_on_c, 9, 36, 36
4, 52179, Note_on_c, 9, 51, 0
4, 52184, Note_on_c, 9, 36, 0
4, 52200, Note_on_c, 9, 51, 71
4, 52200, Note_on_c, 9, 44, 72
4, 52237, Note_on_c, 9, 44, 0
4, 52262, Note_on_c, 9, 51, 0
4, 52280, Note_on_c, 9, 51, 63
4, 52280, Note_on_c, 9, 36, 57
4, 52297, Note_on_c, 9, 51, 0
4, 52305, Note_on_c, 9, 36, 0
4, 52320, Note_on_c, 9, 51, 85
4, 52407, Note_on_c, 9, 51, 0
4, 52440, Note_on_c, 9, 51, 87
4, 52440, Note_on_c, 9, 44, 76
4, 52481, Note_on_c, 9, 44, 0
4, 52520, Note_on_c, 9, 51, 61
4, 52522, Note_on_c, 9, 51, 0
4, 52535, Note_on_c, 9, 51, 0
4, 52560, Note_on_c, 9, 51, 80
4, 52656, Note_on_c, 9, 51, 0
4, 52680, Note_on_c, 9, 51, 79
4, 52680, Note_on_c, 9, 44, 73
4, 52721, Note_on_c, 9, 44, 0
4, 52759, Note_on_c, 9, 51, 0
4, 52760, Note_on_c, 9, 51, 57
4, 52760, Note_on_c, 9, 38, 39
4, 52770, Note_on_c, 9, 38, 0
4, 52774, Note_on_c, 9, 51, 0
4, 52800, Note_on_c, 9, 51, 81
4, 52896, Note_on_c, 9, 51, 0
4, 52920, Note_on_c, 9, 51, 81
4, 52920, Note_on_c, 9, 44, 76
4, 52956, Note_on_c, 9, 44, 0
4, 52992, Note_on_c, 9, 51, 0
4, 53000, Note_on_c, 9, 51, 61
4, 53016, Note_on_c, 9, 51, 0
4, 53040, Note_on_c, 9, 51, 82
4, 53134, Note_on_c, 9, 51, 0
4, 53160, Note_on_c, 9, 51, 81
4, 53160, Note_on_c, 9, 44, 75
4, 53218, Note_on_c, 9, 44, 0
4, 53233, Note_on_c, 9, 51, 0
4, 53240, Note_on_c, 9, 51, 59
4, 53257, Note_on_c, 9, 51, 0
4, 53280, Note_on_c, 9, 51, 80
4, 53360, Note_on_c, 9, 44, 39
4, 53368, Note_on_c, 9, 51, 0
4, 53369, Note_on_c, 9, 44, 0
4, 53400, Note_on_c, 9, 51, 82
4, 53400, Note_on_c, 9, 44, 75
4, 53452, Note_on_c, 9, 44, 0
4, 53480, Note_on_c, 9, 51, 44
4, 53480, Note_on_c, 9, 44, 53
4, 53482, Note_on_c, 9, 51, 0
4, 53489, Note_on_c, 9, 44, 0
4, 53496, Note_on_c, 9, 51, 0
4, 53520, Note_on_c, 9, 51, 74
4, 53600, Note_on_c, 9, 44, 53
4, 53609, Note_on_c, 9, 44, 0
4, 53609, Note_on_c, 9, 51, 0
4, 53640, Note_on_c, 9, 51, 83
4, 53640, Note_on_c, 9, 44, 77
4, 53678, Note_on_c, 9, 44, 0
4, 53680, Note_on_c, 9, 38, 54
4, 53689, Note_on_c, 9, 38, 0
4, 53711, Note_on_c, 9, 51, 0
4, 53720, Note_on_c, 9, 51, 53
4, 53736, Note_on_c, 9, 51, 0
4, 53760, Note_on_c, 9, 51, 74
4, 53800, Note_on_c, 9, 38, 63
4, 53812, Note_on_c, 9, 38, 0
4, 53847, Note_on_c, 9, 51, 0
4, 53880, Note_on_c, 9, 51, 84
4, 53880, Note_on_c, 9, 44, 76
4, 53916, Note_on_c, 9, 44, 0
4, 53955, Note_on_c, 9, 51, 0
4, 53960, Note_on_c, 9, 51, 46
4, 53960, Note_on_c, 9, 38, 73
4, 53970, Note_on_c, 9, 51, 0
4, 53980, Note_on_c, 9, 38, 0
4, 54000, Note_on_c, 9, 51, 74
4, 54080, Note_on_c, 9, 38, 83
4, 54088, Note_on_c, 9, 51, 0
4, 54109, Note_on_c, 9, 38, 0
4, 54120, Note_on_c, 9, 51, 87
4, 54120, Note_on_c, 9, 44, 71
4, 54155, Note_on_c, 9, 44, 0
4, 54199, Note_on_c, 9, 51, 0
4, 54200, Note_on_c, 9, 38, 80
4, 54219, Note_on_c, 9, 38, 0
4, 54240, Note_on_c, 9, 51, 88
4, 54240, Note_on_c, 9, 57, 88
4, 54240, Note_on_c, 9, 38, 71
4, 54240, Note_on_c, 9, 36, 75
4, 54248, Note_on_c, 9, 36, 0
4, 54250, Note_on_c, 9, 57, 0
4, 54257, Note_on_c, 9, 38, 0
4, 54319, Note_on_c, 9, 51, 0
4, 54360, Note_on_c, 9, 51, 90
4, 54360, Note_on_c, 9, 44, 71
4, 54396, Note_on_c, 9, 44, 0
4, 54438, Note_on_c, 9, 51, 0
4, 54480, Note_on_c, 9, 51, 85
4, 54557, Note_on_c, 9, 51, 0
4, 54560, Note_on_c, 9, 51, 50
4, 54573, Note_on_c, 9, 51, 0
4, 54600, Note_on_c, 9, 51, 83
4, 54600, Note_on_c, 9, 44, 69
4, 54633, Note_on_c, 9, 44, 0
4, 54687, Note_on_c, 9, 51, 0
4, 54720, Note_on_c, 9, 51, 88
4, 54797, Note_on_c, 9, 51, 0
4, 54800, Note_on_c, 9, 51, 40
4, 54800, Note_on_c, 9, 44, 39
4, 54809, Note_on_c, 9, 44, 0
4, 54811, Note_on_c, 9, 51, 0
4, 54840, Note_on_c, 9, 51, 74
4, 54840, Note_on_c, 9, 44, 70
4, 54867, Note_on_c, 9, 44, 0
4, 54915, Note_on_c, 9, 51, 0
4, 54920, Note_on_c, 9, 51, 47
4, 54920, Note_on_c, 9, 44, 51
4, 54928, Note_on_c, 9, 44, 0
4, 54933, Note_on_c, 9, 51, 0
4, 54960, Note_on_c, 9, 51, 84
4, 55000, Note_on_c, 9, 38, 50
4, 55009, Note_on_c, 9, 38, 0
4, 55042, Note_on_c, 9, 51, 0
4, 55080, Note_on_c, 9, 51, 85
4, 55080, Note_on_c, 9, 46, 60
4, 55112, Note_on_c, 9, 46, 0
4, 55148, Note_on_c, 9, 51, 0
4, 55160, Note_on_c, 9, 51, 50
4, 55160, Note_on_c, 9, 38, 56
4, 55176, Note_on_c, 9, 38, 0
4, 55178, Note_on_c, 9, 51, 0
4, 55200, Note_on_c, 9, 51, 85
4, 55200, Note_on_c, 9, 36, 24
4, 55215, Note_on_c, 9, 36, 0
4, 55280, Note_on_c, 9, 36, 59
4, 55289, Note_on_c, 9, 51, 0
4, 55299, Note_on_c, 9, 36, 0
4, 55320, Note_on_c, 9, 51, 79
4, 55320, Note_on_c, 9, 44, 69
4, 55320, Note_on_c, 9, 36, 24
4, 55341, Note_on_c, 9, 36, 0
4, 55359, Note_on_c, 9, 44, 0
4, 55400, Note_on_c, 9, 51, 48
4, 55400, Note_on_c, 9, 36, 44
4, 55402, Note_on_c, 9, 51, 0
4, 55409, Note_on_c, 9, 51, 0
4, 55420, Note_on_c, 9, 36, 0
4, 55440, Note_on_c, 9, 51, 82
4, 55538, Note_on_c, 9, 51, 0
4, 55560, Note_on_c, 9, 51, 78
4, 55560, Note_on_c, 9, 44, 64
4, 55603, Note_on_c, 9, 44, 0
4, 55640, Note_on_c, 9, 51, 42
4, 55643, Note_on_c, 9, 51, 0
4, 55654, Note_on_c, 9, 51, 0
4, 55680, Note_on_c, 9, 51, 78
4, 55776, Note_on_c, 9, 51, 0
4, 55800, Note_on_c, 9, 51, 76
4, 55800, Note_on_c, 9, 44, 74
4, 55836, Note_on_c, 9, 44, 0
4, 55870, Note_on_c, 9, 51, 0
4, 55880, Note_on_c, 9, 51, 78
4, 55880, Note_on_c, 9, 53, 71
4, 55920, Note_on_c, 9, 38, 58
4, 55929, Note_on_c, 9, 38, 0
4, 55960, Note_on_c, 9, 38, 74
4, 55968, Note_on_c, 9, 38, 0
4, 55983, Note_on_c, 9, 51, 0
4, 56000, Note_on_c, 9, 51, 40
4, 56005, Note_on_c, 9, 53, 0
4, 56018, Note_on_c, 9, 51, 0
4, 56040, Note_on_c, 9, 51, 80
4, 56040, Note_on_c, 9, 53, 80
4, 56040, Note_on_c, 9, 44, 65
4, 56040, Note_on_c, 9, 38, 66
4, 56049, Note_on_c, 9, 38, 0
4, 56080, Note_on_c, 9, 38, 39
4, 56090, Note_on_c, 9, 38, 0
4, 56096, Note_on_c, 9, 44, 0
4, 56120, Note_on_c, 9, 36, 60
4, 56130, Note_on_c, 9, 36, 0
4, 56144, Note_on_c, 9, 53, 0
4, 56145, Note_on_c, 9, 51, 0
4, 56160, Note_on_c, 9, 51, 69
4, 56237, Note_on_c, 9, 51, 0
4, 56240, Note_on_c, 9, 51, 39
4, 56251, Note_on_c, 9, 51, 0
4, 56280, Note_on_c, 9, 51, 83
4, 56280, Note_on_c, 9, 44, 72
4, 56326, Note_on_c, 9, 44, 0
4, 56384, Note_on_c, 9, 51, 0
4, 56400, Note_on_c, 9, 51, 76
4, 56480, Note_on_c, 9, 51, 35
4, 56480, Note_on_c, 9, 38, 79
4, 56484, Note_on_c, 9, 51, 0
4, 56495, Note_on_c, 9, 38, 0
4, 56495, Note_on_c, 9, 51, 0
4, 56520, Note_on_c, 9, 51, 83
4, 56520, Note_on_c, 9, 44, 74
4, 56520, Note_on_c, 9, 36, 36
4, 56553, Note_on_c, 9, 36, 0
4, 56565, Note_on_c, 9, 44, 0
4, 56600, Note_on_c, 9, 36, 34
4, 56613, Note_on_c, 9, 36, 0
4, 56618, Note_on_c, 9, 51, 0
4, 56640, Note_on_c, 9, 51, 77
4, 56724, Note_on_c, 9, 51, 0
4, 56760, Note_on_c, 9, 51, 81
4, 56760, Note_on_c, 9, 44, 65
4, 56808, Note_on_c, 9, 44, 0
4, 56840, Note_on_c, 9, 51, 36
4, 56848, Note_on_c, 9, 51, 0
4, 56849, Note_on_c, 9, 51, 0
4, 56880, Note_on_c, 9, 51, 82
4, 56971, Note_on_c, 9, 51, 0
4, 57000, Note_on_c, 9, 51, 79
4, 57000, Note_on_c, 9, 44, 71
4, 57037, Note_on_c, 9, 44, 0
4, 57078, Note_on_c, 9, 51, 0
4, 57080, Note_on_c, 9, 51, 51
4, 57089, Note_on_c, 9, 51, 0
4, 57120, Note_on_c, 9, 51, 69
4, 57200, Note_on_c, 9, 38, 55
4, 57208, Note_on_c, 9, 51, 0
4, 57218, Note_on_c, 9, 38, 0
4, 57240, Note_on_c, 9, 51, 73
4, 57240, Note_on_c, 9, 44, 73
4, 57240, Note_on_c, 9, 36, 32
4, 57256, Note_on_c, 9, 36, 0
4, 57276, Note_on_c, 9, 44, 0
4, 57320, Note_on_c, 9, 51, 53
4, 57320, Note_on_c, 9, 36, 48
4, 57321, Note_on_c, 9, 51, 0
4, 57333, Note_on_c, 9, 36, 0
4, 57337, Note_on_c, 9, 51, 0
4, 57360, Note_on_c, 9, 51, 64
4, 57451, Note_on_c, 9, 51, 0
4, 57480, Note_on_c, 9, 51, 79
4, 57480, Note_on_c, 9, 44, 72
4, 57515, Note_on_c, 9, 44, 0
4, 57553, Note_on_c, 9, 51, 0
4, 57560, Note_on_c, 9, 51, 46
4, 57580, Note_on_c, 9, 51, 0
4, 57600, Note_on_c, 9, 51, 83
4, 57692, Note_on_c, 9, 51, 0
4, 57720, Note_on_c, 9, 51, 79
4, 57720, Note_on_c, 9, 44, 62
4, 57749, Note_on_c, 9, 44, 0
4, 57782, Note_on_c, 9, 51, 0
4, 57800, Note_on_c, 9, 51, 51
4, 57818, Note_on_c, 9, 51, 0
4, 57840, Note_on_c, 9, 51, 60
4, 57891, Note_on_c, 9, 51, 0
4, 57920, Note_on_c, 9, 51, 73
4, 57920, Note_on_c, 9, 53, 74
4, 57960, Note_on_c, 9, 46, 55
4, 57989, Note_on_c, 9, 46, 0
4, 58040, Note_on_c, 9, 38, 43
4, 58042, Note_on_c, 9, 51, 0
4, 58046, Note_on_c, 9, 53, 0
4, 58052, Note_on_c, 9, 38, 0
4, 58080, Note_on_c, 9, 40, 40
4, 58080, Note_on_c, 9, 38, 61
4, 58080, Program_c, 9, 40
4, 58080, Note_on_c, 9, 36, 31
4, 58112, Note_on_c, 9, 36, 0
4, 58136, Note_on_c, 9, 38, 0
4, 58144, Note_on_c, 9, 40, 0
4, 58200, Note_on_c, 9, 40, 29
4, 58200, Note_on_c, 9, 38, 57
4, 58200, Note_on_c, 9, 44, 69
4, 58260, Note_on_c, 9, 38, 0
4, 58266, Note_on_c, 9, 44, 0
4, 58280, Note_on_c, 9, 39, 67
4, 58281, Note_on_c, 9, 40, 0
4, 58314, Note_on_c, 9, 39, 0
4, 58320, Note_on_c, 9, 38, 49
4, 58320, Note_on_c, 9, 40, 26
4, 58393, Note_on_c, 9, 40, 0
4, 58404, Note_on_c, 9, 38, 0
4, 58440, Note_on_c, 9, 40, 23
4, 58440, Note_on_c, 9, 38, 58
4, 58440, Note_on_c, 9, 44, 67
4, 58496, Note_on_c, 9, 44, 0
4, 58511, Note_on_c, 9, 40, 0
4, 58513, Note_on_c, 9, 38, 0
4, 58560, Note_on_c, 9, 40, 26
4, 58560, Note_on_c, 9, 38, 48
4, 58642, Note_on_c, 9, 40, 0
4, 58650, Note_on_c, 9, 38, 0
4, 58680, Note_on_c, 9, 38, 48
4, 58680, Note_on_c, 9, 40, 25
4, 58680, Note_on_c, 9, 44, 56
4, 58730, Note_on_c, 9, 38, 0
4, 58753, Note_on_c, 9, 44, 0
4, 58760, Note_on_c, 9, 38, 68
4, 58774, Note_on_c, 9, 38, 0
4, 58774, Note_on_c, 9, 40, 0
4, 58800, Note_on_c, 9, 40, 21
4, 58800, Note_on_c, 9, 38, 61
4, 58888, Note_on_c, 9, 40, 0
4, 58895, Note_on_c, 9, 38, 0
4, 58920, Note_on_c, 9, 38, 47
4, 58920, Note_on_c, 9, 40, 27
4, 58920, Note_on_c, 9, 44, 64
4, 58977, Note_on_c, 9, 38, 0
4, 58983, Note_on_c, 9, 40, 0
4, 59000, Note_on_c, 9, 38, 66
4, 59002, Note_on_c, 9, 44, 0
4, 59018, Note_on_c, 9, 38, 0
4, 59040, Note_on_c, 9, 40, 33
4, 59040, Note_on_c, 9, 38, 41
4, 59116, Note_on_c, 9, 40, 0
4, 59117, Note_on_c, 9, 38, 0
4, 59120, Note_on_c, 9, 38, 74
4, 59120, Note_on_c, 9, 40, 43
4, 59141, Note_on_c, 9, 40, 0
4, 59160, Note_on_c, 9, 40, 23
4, 59160, Note_on_c, 9, 44, 63
4, 59204, Note_on_c, 9, 44, 0
4, 59248, Note_on_c, 9, 40, 0
4, 59253, Note_on_c, 9, 38, 0
4, 59280, Note_on_c, 9, 40, 31
4, 59280, Note_on_c, 9, 38, 51
4, 59360, Note_on_c, 9, 36, 24
4, 59363, Note_on_c, 9, 40, 0
4, 59369, Note_on_c, 9, 36, 0
4, 59372, Note_on_c, 9, 38, 0
4, 59400, Note_on_c, 9, 38, 53
4, 59400, Note_on_c, 9, 40, 33
4, 59400, Note_on_c, 9, 46, 38
4, 59400, Note_on_c, 9, 36, 24
4, 59423, Note_on_c, 9, 36, 0
4, 59425, Note_on_c, 9, 46, 0
4, 59477, Note_on_c, 9, 40, 0
4, 59479, Note_on_c, 9, 38, 0
4, 59480, Note_on_c, 9, 39, 65
4, 59480, Note_on_c, 9, 36, 48
4, 59491, Note_on_c, 9, 36, 0
4, 59508, Note_on_c, 9, 39, 0
4, 59520, Note_on_c, 9, 38, 45
4, 59520, Note_on_c, 9, 40, 26
4, 59581, Note_on_c, 9, 40, 0
4, 59591, Note_on_c, 9, 38, 0
4, 59600, Note_on_c, 9, 39, 57
4, 59600, Note_on_c, 9, 40, 33
4, 59600, Note_on_c, 9, 38, 50
4, 59619, Note_on_c, 9, 39, 0
4, 59640, Note_on_c, 9, 44, 53
4, 59688, Note_on_c, 9, 44, 0
4, 59715, Note_on_c, 9, 38, 0
4, 59716, Note_on_c, 9, 40, 0
4, 59760, Note_on_c, 9, 40, 32
4, 59760, Note_on_c, 9, 38, 47
4, 59799, Note_on_c, 9, 38, 0
4, 59842, Note_on_c, 9, 40, 0
4, 59880, Note_on_c, 9, 40, 34
4, 59880, Note_on_c, 9, 38, 54
4, 59880, Note_on_c, 9, 44, 57
4, 59906, Note_on_c, 9, 38, 0
4, 59908, Note_on_c, 9, 44, 0
4, 59918, Note_on_c, 9, 40, 0
4, 59920, Note_on_c, 9, 39, 52
4, 59936, Note_on_c, 9, 39, 0
4, 59960, Note_on_c, 9, 39, 55
4, 59971, Note_on_c, 9, 39, 0
4, 60000, Note_on_c, 9, 40, 25
4, 60000, Note_on_c, 9, 38, 44
4, 60064, Note_on_c, 9, 38, 0
4, 60070, Note_on_c, 9, 40, 0
4, 60080, Note_on_c, 9, 39, 55
4, 60094, Note_on_c, 9, 39, 0
4, 60120, Note_on_c, 9, 38, 38
4, 60120, Note_on_c, 9, 40, 24
4, 60120, Note_on_c, 9, 44, 53
4, 60148, Note_on_c, 9, 44, 0
4, 60197, Note_on_c, 9, 38, 0
4, 60200, Note_on_c, 9, 40, 0
4, 60240, Note_on_c, 9, 40, 32
4, 60240, Note_on_c, 9, 38, 45
4, 60303, Note_on_c, 9, 38, 0
4, 60316, Note_on_c, 9, 40, 0
4, 60320, Note_on_c, 9, 38, 54
4, 60345, Note_on_c, 9, 38, 0
4, 60360, Note_on_c, 9, 40, 34
4, 60360, Note_on_c, 9, 38, 45
4, 60360, Note_on_c, 9, 44, 50
4, 60360, Note_on_c, 9, 36, 20
4, 60369, Note_on_c, 9, 36, 0
4, 60398, Note_on_c, 9, 44, 0
4, 60437, Note_on_c, 9, 38, 0
4, 60440, Note_on_c, 9, 39, 68
4, 60440, Note_on_c, 9, 36, 59
4, 60442, Note_on_c, 9, 40, 0
4, 60454, Note_on_c, 9, 39, 0
4, 60463, Note_on_c, 9, 36, 0
4, 60480, Note_on_c, 9, 40, 27
4, 60480, Note_on_c, 9, 38, 38
4, 60564, Note_on_c, 9, 38, 0
4, 60565, Note_on_c, 9, 40, 0
4, 60600, Note_on_c, 9, 40, 30
4, 60600, Note_on_c, 9, 38, 48
4, 60600, Note_on_c, 9, 44, 50
4, 60624, Note_on_c, 9, 44, 0
4, 60680, Note_on_c, 9, 38, 53
4, 60685, Note_on_c, 9, 38, 0
4, 60685, Note_on_c, 9, 40, 0
4, 60692, Note_on_c, 9, 38, 0
4, 60720, Note_on_c, 9, 40, 26
4, 60720, Note_on_c, 9, 38, 49
4, 60790, Note_on_c, 9, 38, 0
4, 60794, Note_on_c, 9, 40, 0
4, 60800, Note_on_c, 9, 39, 40
4, 60800, Note_on_c, 9, 36, 28
4, 60807, Note_on_c, 9, 39, 0
4, 60816, Note_on_c, 9, 36, 0
4, 60840, Note_on_c, 9, 40, 20
4, 60840, Note_on_c, 9, 38, 33
4, 60840, Note_on_c, 9, 44, 49
4, 60871, Note_on_c, 9, 44, 0
4, 60875, Note_on_c, 9, 38, 0
4, 60887, Note_on_c, 9, 40, 0
4, 60920, Note_on_c, 9, 40, 38
4, 60920, Note_on_c, 9, 38, 62
4, 60920, Note_on_c, 9, 38, 48
4, 60932, Note_on_c, 9, 38, 0
4, 60934, Note_on_c, 9, 38, 0
4, 60938, Note_on_c, 9, 40, 0
4, 60960, Note_on_c, 9, 40, 34
4, 60960, Note_on_c, 9, 38, 53
4, 60962, Note_on_c, 9, 46, 55
4, 60979, Note_on_c, 9, 46, 0
4, 61026, Note_on_c, 9, 38, 0
4, 61036, Note_on_c, 9, 40, 0
4, 61080, Note_on_c, 9, 40, 25
4, 61080, Note_on_c, 9, 38, 48
4, 61080, Note_on_c, 9, 46, 45
4, 61107, Note_on_c, 9, 46, 0
4, 61133, Note_on_c, 9, 38, 0
4, 61151, Note_on_c, 9, 40, 0
4, 61160, Note_on_c, 9, 38, 51
4, 61174, Note_on_c, 9, 38, 0
4, 61200, Note_on_c, 9, 40, 24
4, 61200, Note_on_c, 9, 38, 52
4, 61228, Note_on_c, 9, 38, 0
4, 61231, Note_on_c, 9, 40, 0
4, 61240, Note_on_c, 9, 39, 51
4, 61264, Note_on_c, 9, 39, 0
4, 61280, Note_on_c, 9, 40, 25
4, 61280, Note_on_c, 9, 38, 45
4, 61280, Note_on_c, 9, 38, 47
4, 61295, Note_on_c, 9, 38, 0
4, 61302, Note_on_c, 9, 40, 0
4, 61303, Note_on_c, 9, 38, 0
4, 61320, Note_on_c, 9, 38, 53
4, 61320, Note_on_c, 9, 40, 25
4, 61320, Note_on_c, 9, 44, 37
4, 61360, Note_on_c, 9, 36, 50
4, 61361, Note_on_c, 9, 44, 0
4, 61372, Note_on_c, 9, 36, 0
4, 61380, Note_on_c, 9, 38, 0
4, 61389, Note_on_c, 9, 40, 0
4, 61400, Note_on_c, 9, 38, 11
4, 61400, Note_on_c, 9, 36, 47
4, 61400, Note_on_c, 9, 39, 35
4, 61400, Note_on_c, 9, 40, 28
4, 61409, Note_on_c, 9, 39, 0
4, 61415, Note_on_c, 9, 36, 0
4, 61420, Note_on_c, 9, 40, 0
4, 61425, Note_on_c, 9, 38, 0
4, 61440, Note_on_c, 9, 40, 24
4, 61453, Note_on_c, 9, 40, 0
4, 61520, Note_on_c, 9, 38, 48
4, 61520, Note_on_c, 9, 40, 34
4, 61552, Note_on_c, 9, 40, 0
4, 61558, Note_on_c, 9, 38, 0
4, 61560, Note_on_c, 9, 39, 42
4, 61560, Note_on_c, 9, 44, 52
4, 61569, Note_on_c, 9, 39, 0
4, 61598, Note_on_c, 9, 44, 0
4, 61600, Note_on_c, 9, 39, 51
4, 61614, Note_on_c, 9, 39, 0
4, 61640, Note_on_c, 9, 40, 36
4, 61640, Note_on_c, 9, 38, 48
4, 61662, Note_on_c, 9, 40, 0
4, 61668, Note_on_c, 9, 38, 0
4, 61680, Note_on_c, 9, 39, 32
4, 61695, Note_on_c, 9, 39, 0
4, 61760, Note_on_c, 9, 46, 55
4, 61760, Note_on_c, 9, 40, 42
4, 61760, Note_on_c, 9, 38, 58
4, 61768, Note_on_c, 9, 38, 0
4, 61776, Note_on_c, 9, 40, 0
4, 61785, Note_on_c, 9, 46, 0
4, 61800, Note_on_c, 9, 39, 53
4, 61814, Note_on_c, 9, 39, 0
4, 61840, Note_on_c, 9, 39, 59
4, 61851, Note_on_c, 9, 39, 0
4, 61880, Note_on_c, 9, 36, 46
4, 61880, Note_on_c, 9, 40, 47
4, 61880, Note_on_c, 9, 38, 69
4, 61890, Note_on_c, 9, 36, 0
4, 61897, Note_on_c, 9, 38, 0
4, 61897, Note_on_c, 9, 40, 0
4, 61920, Note_on_c, 9, 40, 26
4, 61920, Note_on_c, 9, 38, 45
4, 61920, Note_on_c, 9, 59, 51
4, 61929, Note_on_c, 9, 59, 0
4, 61954, Note_on_c, 9, 38, 0
4, 61964, Note_on_c, 9, 40, 0
4, 62040, Note_on_c, 9, 44, 55
4, 62040, Note_on_c, 9, 40, 31
4, 62040, Note_on_c, 9, 38, 44
4, 62072, Note_on_c, 9, 44, 0
4, 62115, Note_on_c, 9, 38, 0
4, 62118, Note_on_c, 9, 40, 0
4, 62160, Note_on_c, 9, 40, 21
4, 62160, Note_on_c, 9, 38, 44
4, 62218, Note_on_c, 9, 38, 0
4, 62222, Note_on_c, 9, 40, 0
4, 62240, Note_on_c, 9, 59, 61
4, 62249, Note_on_c, 9, 59, 0
4, 62280, Note_on_c, 9, 40, 29
4, 62280, Note_on_c, 9, 38, 44
4, 62280, Note_on_c, 9, 46, 32
4, 62280, Note_on_c, 9, 36, 20
4, 62291, Note_on_c, 9, 36, 0
4, 62304, Note_on_c, 9, 46, 0
4, 62348, Note_on_c, 9, 38, 0
4, 62359, Note_on_c, 9, 40, 0
4, 62360, Note_on_c, 9, 39, 52
4, 62360, Note_on_c, 9, 36, 58
4, 62384, Note_on_c, 9, 36, 0
4, 62385, Note_on_c, 9, 39, 0
4, 62400, Note_on_c, 9, 38, 41
4, 62400, Note_on_c, 9, 40, 26
4, 62473, Note_on_c, 9, 40, 0
4, 62481, Note_on_c, 9, 38, 0
4, 62520, Note_on_c, 9, 40, 28
4, 62520, Note_on_c, 9, 38, 40
4, 62520, Note_on_c, 9, 44, 40
4, 62549, Note_on_c, 9, 44, 0
4, 62591, Note_on_c, 9, 38, 0
4, 62599, Note_on_c, 9, 40, 0
4, 62640, Note_on_c, 9, 40, 25
4, 62640, Note_on_c, 9, 38, 42
4, 62706, Note_on_c, 9, 38, 0
4, 62708, Note_on_c, 9, 40, 0
4, 62760, Note_on_c, 9, 40, 28
4, 62760, Note_on_c, 9, 38, 45
4, 62760, Note_on_c, 9, 44, 49
4, 62783, Note_on_c, 9, 40, 0
4, 62784, Note_on_c, 9, 38, 0
4, 62795, Note_on_c, 9, 44, 0
4, 62840, Note_on_c, 9, 38, 60
4, 62840, Note_on_c, 9, 40, 32
4, 62850, Note_on_c, 9, 40, 0
4, 62858, Note_on_c, 9, 38, 0
4, 62880, Note_on_c, 9, 38, 40
4, 62880, Note_on_c, 9, 40, 20
4, 62940, Note_on_c, 9, 40, 0
4, 62944, Note_on_c, 9, 38, 0
4, 63000, Note_on_c, 9, 40, 25
4, 63000, Note_on_c, 9, 38, 45
4, 63000, Note_on_c, 9, 44, 51
4, 63041, Note_on_c, 9, 44, 0
4, 63064, Note_on_c, 9, 38, 0
4, 63065, Note_on_c, 9, 40, 0
4, 63120, Note_on_c, 9, 40, 25
4, 63120, Note_on_c, 9, 38, 37
4, 63207, Note_on_c, 9, 40, 0
4, 63208, Note_on_c, 9, 38, 0
4, 63240, Note_on_c, 9, 40, 25
4, 63240, Note_on_c, 9, 38, 46
4, 63240, Note_on_c, 9, 44, 57
4, 63278, Note_on_c, 9, 44, 0
4, 63323, Note_on_c, 9, 40, 0
4, 63325, Note_on_c, 9, 38, 0
4, 63360, Note_on_c, 9, 40, 24
4, 63360, Note_on_c, 9, 38, 44
4, 63433, Note_on_c, 9, 38, 0
4, 63435, Note_on_c, 9, 40, 0
4, 63440, Note_on_c, 9, 39, 57
4, 63464, Note_on_c, 9, 39, 0
4, 63480, Note_on_c, 9, 38, 36
4, 63480, Note_on_c, 9, 40, 21
4, 63480, Note_on_c, 9, 44, 61
4, 63522, Note_on_c, 9, 44, 0
4, 63568, Note_on_c, 9, 40, 0
4, 63581, Note_on_c, 9, 38, 0
4, 63600, Note_on_c, 9, 36, 43
4, 63600, Note_on_c, 9, 40, 27
4, 63600, Note_on_c, 9, 38, 33
4, 63611, Note_on_c, 9, 36, 0
4, 63675, Note_on_c, 9, 40, 0
4, 63677, Note_on_c, 9, 38, 0
4, 63680, Note_on_c, 9, 39, 60
4, 63713, Note_on_c, 9, 39, 0
4, 63720, Note_on_c, 9, 38, 32
4, 63720, Note_on_c, 9, 40, 22
4, 63720, Note_on_c, 9, 44, 67
4, 63762, Note_on_c, 9, 40, 0
4, 63767, Note_on_c, 9, 44, 0
4, 63770, Note_on_c, 9, 38, 0
4, 63800, Note_on_c, 9, 39, 60
4, 63800, Note_on_c, 9, 36, 53
4, 63810, Note_on_c, 9, 36, 0
4, 63837, Note_on_c, 9, 39, 0
4, 63840, Note_on_c, 9, 40, 22
4, 63840, Note_on_c, 9, 38, 40
4, 63917, Note_on_c, 9, 40, 0
4, 63924, Note_on_c, 9, 38, 0
4, 63960, Note_on_c, 9, 44, 56
4, 63960, Note_on_c, 9, 40, 23
4, 63960, Note_on_c, 9, 38, 39
4, 64011, Note_on_c, 9, 44, 0
4, 64035, Note_on_c, 9, 38, 0
4, 64040, Note_on_c, 9, 40, 0
4, 64080, Note_on_c, 9, 38, 42
4, 64080, Note_on_c, 9, 40, 25
4, 64141, Note_on_c, 9, 40, 0
4, 64144, Note_on_c, 9, 38, 0
4, 64200, Note_on_c, 9, 44, 58
4, 64200, Note_on_c, 9, 40, 30
4, 64200, Note_on_c, 9, 38, 47
4, 64238, Note_on_c, 9, 44, 0
4, 64266, Note_on_c, 9, 38, 0
4, 64279, Note_on_c, 9, 40, 0
4, 64280, Note_on_c, 9, 39, 67
4, 64280, Note_on_c, 9, 59, 44
4, 64289, Note_on_c, 9, 59, 0
4, 64303, Note_on_c, 9, 39, 0
4, 64320, Note_on_c, 9, 38, 46
4, 64320, Note_on_c, 9, 40, 20
4, 64395, Note_on_c, 9, 40, 0
4, 64411, Note_on_c, 9, 38, 0
4, 64440, Note_on_c, 9, 44, 61
4, 64440, Note_on_c, 9, 40, 31
4, 64440, Note_on_c, 9, 38, 46
4, 64475, Note_on_c, 9, 44, 0
4, 64520, Note_on_c, 9, 40, 0
4, 64523, Note_on_c, 9, 38, 0
4, 64560, Note_on_c, 9, 40, 25
4, 64560, Note_on_c, 9, 38, 40
4, 64598, Note_on_c, 9, 38, 0
4, 64599, Note_on_c, 9, 40, 0
4, 64600, Note_on_c, 9, 39, 55
4, 64617, Note_on_c, 9, 39, 0
4, 64640, Note_on_c, 9, 39, 59
4, 64655, Note_on_c, 9, 39, 0
4, 64680, Note_on_c, 9, 40, 21
4, 64680, Note_on_c, 9, 38, 31
4, 64680, Note_on_c, 9, 44, 58
4, 64718, Note_on_c, 9, 44, 0
4, 64719, Note_on_c, 9, 38, 0
4, 64720, Note_on_c, 9, 39, 62
4, 64722, Note_on_c, 9, 40, 0
4, 64734, Note_on_c, 9, 39, 0
4, 64760, Note_on_c, 9, 40, 36
4, 64760, Note_on_c, 9, 38, 47
4, 64787, Note_on_c, 9, 40, 0
4, 64788, Note_on_c, 9, 38, 0
4, 64800, Note_on_c, 9, 40, 39
4, 64800, Note_on_c, 9, 38, 40
4, 64855, Note_on_c, 9, 38, 0
4, 64860, Note_on_c, 9, 40, 0
4, 64920, Note_on_c, 9, 40, 27
4, 64920, Note_on_c, 9, 38, 39
4, 64920, Note_on_c, 9, 44, 61
4, 64956, Note_on_c, 9, 44, 0
4, 64980, Note_on_c, 9, 38, 0
4, 64991, Note_on_c, 9, 40, 0
4, 65000, Note_on_c, 9, 39, 55
4, 65028, Note_on_c, 9, 39, 0
4, 65040, Note_on_c, 9, 40, 24
4, 65040, Note_on_c, 9, 38, 34
4, 65112, Note_on_c, 9, 40, 0
4, 65114, Note_on_c, 9, 38, 0
4, 65160, Note_on_c, 9, 40, 31
4, 65160, Note_on_c, 9, 38, 45
4, 65160, Note_on_c, 9, 44, 64
4, 65206, Note_on_c, 9, 44, 0
4, 65243, Note_on_c, 9, 40, 0
4, 65247, Note_on_c, 9, 38, 0
4, 65280, Note_on_c, 9, 40, 27
4, 65280, Note_on_c, 9, 38, 43
4, 65350, Note_on_c, 9, 38, 0
4, 65353, Note_on_c, 9, 40, 0
4, 65400, Note_on_c, 9, 40, 26
4, 65400, Note_on_c, 9, 38, 44
4, 65400, Note_on_c, 9, 44, 62
4, 65462, Note_on_c, 9, 44, 0
4, 65465, Note_on_c, 9, 38, 0
4, 65472, Note_on_c, 9, 40, 0
4, 65520, Note_on_c, 9, 40, 29
4, 65520, Note_on_c, 9, 38, 44
4, 65585, Note_on_c, 9, 40, 0
4, 65592, Note_on_c, 9, 38, 0
4, 65600, Note_on_c, 9, 39, 51
4, 65600, Note_on_c, 9, 59, 68
4, 65613, Note_on_c, 9, 59, 0
4, 65640, Note_on_c, 9, 44, 65
4, 65668, Note_on_c, 9, 39, 0
4, 65697, Note_on_c, 9, 44, 0
4, 65720, Note_on_c, 9, 40, 36
4, 65720, Note_on_c, 9, 36, 65
4, 65720, Note_on_c, 9, 57, 66
4, 65720, Note_on_c, 9, 38, 58
4, 65728, Note_on_c, 9, 57, 0
4, 65743, Note_on_c, 9, 36, 0
4, 65760, Note_on_c, 9, 36, 64
4, 65800, Note_on_c, 9, 36, 0
4, 65866, Note_on_c, 9, 40, 0
4, 65869, Note_on_c, 9, 38, 0
4, 65880, Note_on_c, 9, 39, 42
4, 65880, Note_on_c, 9, 44, 60
4, 65918, Note_on_c, 9, 44, 0
4, 65932, Note_on_c, 9, 39, 0
4, 65960, Note_on_c, 9, 40, 46
4, 65960, Note_on_c, 9, 38, 70
4, 65983, Note_on_c, 9, 40, 0
4, 66000, Note_on_c, 9, 40, 16
4, 66080, Note_on_c, 9, 59, 54
4, 66082, Note_on_c, 9, 40, 0
4, 66089, Note_on_c, 9, 59, 0
4, 66092, Note_on_c, 9, 38, 0
4, 66120, Note_on_c, 9, 40, 21
4, 66120, Note_on_c, 9, 36, 39
4, 66120, Note_on_c, 9, 38, 43
4, 66120, Note_on_c, 9, 44, 57
4, 66162, Note_on_c, 9, 44, 0
4, 66180, Note_on_c, 9, 36, 0
4, 66200, Note_on_c, 9, 40, 0
4, 66200, Note_on_c, 9, 36, 51
4, 66208, Note_on_c, 9, 38, 0
4, 66227, Note_on_c, 9, 36, 0
4, 66240, Note_on_c, 9, 38, 39
4, 66240, Note_on_c, 9, 40, 19
4, 66311, Note_on_c, 9, 40, 0
4, 66317, Note_on_c, 9, 38, 0
4, 66360, Note_on_c, 9, 44, 57
4, 66360, Note_on_c, 9, 40, 23
4, 66360, Note_on_c, 9, 38, 44
4, 66403, Note_on_c, 9, 44, 0
4, 66430, Note_on_c, 9, 38, 0
4, 66440, Note_on_c, 9, 39, 59
4, 66444, Note_on_c, 9, 40, 0
4, 66464, Note_on_c, 9, 39, 0
4, 66480, Note_on_c, 9, 38, 44
4, 66480, Note_on_c, 9, 40, 22
4, 66560, Note_on_c, 9, 40, 0
4, 66560, Note_on_c, 9, 39, 55
4, 66568, Note_on_c, 9, 38, 0
4, 66578, Note_on_c, 9, 39, 0
4, 66600, Note_on_c, 9, 40, 26
4, 66600, Note_on_c, 9, 38, 43
4, 66600, Note_on_c, 9, 44, 59
4, 66649, Note_on_c, 9, 44, 0
4, 66671, Note_on_c, 9, 40, 0
4, 66672, Note_on_c, 9, 38, 0
4, 66680, Note_on_c, 9, 39, 52
4, 66702, Note_on_c, 9, 39, 0
4, 66720, Note_on_c, 9, 36, 45
4, 66720, Note_on_c, 9, 40, 27
4, 66720, Note_on_c, 9, 38, 47
4, 66730, Note_on_c, 9, 36, 0
4, 66793, Note_on_c, 9, 40, 0
4, 66798, Note_on_c, 9, 38, 0
4, 66840, Note_on_c, 9, 40, 24
4, 66840, Note_on_c, 9, 38, 50
4, 66840, Note_on_c, 9, 44, 59
4, 66880, Note_on_c, 9, 44, 0
4, 66898, Note_on_c, 9, 38, 0
4, 66907, Note_on_c, 9, 40, 0
4, 66920, Note_on_c, 9, 39, 55
4, 66947, Note_on_c, 9, 39, 0
4, 66960, Note_on_c, 9, 40, 32
4, 66960, Note_on_c, 9, 38, 44
4, 67040, Note_on_c, 9, 39, 51
4, 67045, Note_on_c, 9, 40, 0
4, 67047, Note_on_c, 9, 38, 0
4, 67070, Note_on_c, 9, 39, 0
4, 67080, Note_on_c, 9, 40, 27
4, 67080, Note_on_c, 9, 36, 22
4, 67080, Note_on_c, 9, 38, 51
4, 67080, Note_on_c, 9, 44, 56
4, 67107, Note_on_c, 9, 36, 0
4, 67117, Note_on_c, 9, 44, 0
4, 67151, Note_on_c, 9, 40, 0
4, 67153, Note_on_c, 9, 38, 0
4, 67160, Note_on_c, 9, 36, 41
4, 67177, Note_on_c, 9, 36, 0
4, 67200, Note_on_c, 9, 40, 24
4, 67200, Note_on_c, 9, 38, 44
4, 67265, Note_on_c, 9, 38, 0
4, 67266, Note_on_c, 9, 40, 0
4, 67320, Note_on_c, 9, 44, 59
4, 67320, Note_on_c, 9, 38, 50
4, 67320, Note_on_c, 9, 40, 28
4, 67367, Note_on_c, 9, 44, 0
4, 67385, Note_on_c, 9, 40, 0
4, 67388, Note_on_c, 9, 38, 0
4, 67440, Note_on_c, 9, 40, 27
4, 67440, Note_on_c, 9, 38, 42
4, 67480, Note_on_c, 9, 38, 0
4, 67482, Note_on_c, 9, 40, 0
4, 67520, Note_on_c, 9, 38, 54
4, 67530, Note_on_c, 9, 38, 0
4, 67560, Note_on_c, 9, 46, 50
4, 67560, Note_on_c, 9, 40, 34
4, 67560, Note_on_c, 9, 38, 63
4, 67594, Note_on_c, 9, 46, 0
4, 67640, Note_on_c, 9, 36, 66
4, 67641, Note_on_c, 9, 40, 0
4, 67643, Note_on_c, 9, 38, 0
4, 67674, Note_on_c, 9, 36, 0
4, 67680, Note_on_c, 9, 38, 47
4, 67680, Note_on_c, 9, 40, 24
4, 67720, Note_on_c, 9, 36, 24
4, 67725, Note_on_c, 9, 38, 0
4, 67750, Note_on_c, 9, 36, 0
4, 67760, Note_on_c, 9, 38, 68
4, 67763, Note_on_c, 9, 40, 0
4, 67771, Note_on_c, 9, 38, 0
4, 67800, Note_on_c, 9, 38, 44
4, 67800, Note_on_c, 9, 40, 18
4, 67800, Note_on_c, 9, 44, 55
4, 67845, Note_on_c, 9, 44, 0
4, 67852, Note_on_c, 9, 40, 0
4, 67853, Note_on_c, 9, 38, 0
4, 67880, Note_on_c, 9, 38, 74
4, 67899, Note_on_c, 9, 38, 0
4, 67920, Note_on_c, 9, 38, 55
4, 67920, Note_on_c, 9, 40, 34
4, 67991, Note_on_c, 9, 40, 0
4, 67996, Note_on_c, 9, 38, 0
4, 68000, Note_on_c, 9, 39, 33
4, 68019, Note_on_c, 9, 39, 0
4, 68040, Note_on_c, 9, 38, 53
4, 68040, Note_on_c, 9, 40, 33
4, 68040, Note_on_c, 9, 44, 59
4, 68079, Note_on_c, 9, 44, 0
4, 68087, Note_on_c, 9, 38, 0
4, 68098, Note_on_c, 9, 40, 0
4, 68120, Note_on_c, 9, 38, 62
4, 68120, Note_on_c, 9, 59, 39
4, 68130, Note_on_c, 9, 59, 0
4, 68135, Note_on_c, 9, 38, 0
4, 68160, Note_on_c, 9, 40, 27
4, 68160, Note_on_c, 9, 38, 55
4, 68213, Note_on_c, 9, 40, 0
4, 68216, Note_on_c, 9, 38, 0
4, 68240, Note_on_c, 9, 39, 59
4, 68240, Note_on_c, 9, 59, 57
4, 68249, Note_on_c, 9, 59, 0
4, 68265, Note_on_c, 9, 39, 0
4, 68280, Note_on_c, 9, 44, 60
4, 68280, Note_on_c, 9, 38, 43
4, 68280, Note_on_c, 9, 40, 24
4, 68320, Note_on_c, 9, 44, 0
4, 68326, Note_on_c, 9, 40, 0
4, 68333, Note_on_c, 9, 38, 0
4, 68360, Note_on_c, 9, 38, 47
4, 68360, Note_on_c, 9, 40, 29
4, 68360, Note_on_c, 9, 59, 61
4, 68368, Note_on_c, 9, 59, 0
4, 68370, Note_on_c, 9, 40, 0
4, 68373, Note_on_c, 9, 38, 0
4, 68400, Note_on_c, 9, 40, 23
4, 68400, Note_on_c, 9, 38, 43
4, 68450, Note_on_c, 9, 38, 0
4, 68451, Note_on_c, 9, 40, 0
4, 68480, Note_on_c, 9, 39, 62
4, 68480, Note_on_c, 9, 59, 56
4, 68488, Note_on_c, 9, 59, 0
4, 68517, Note_on_c, 9, 39, 0
4, 68520, Note_on_c, 9, 44, 60
4, 68520, Note_on_c, 9, 38, 40
4, 68520, Note_on_c, 9, 40, 21
4, 68559, Note_on_c, 9, 44, 0
4, 68568, Note_on_c, 9, 40, 0
4, 68578, Note_on_c, 9, 38, 0
4, 68600, Note_on_c, 9, 39, 37
4, 68609, Note_on_c, 9, 39, 0
4, 68640, Note_on_c, 9, 40, 28
4, 68640, Note_on_c, 9, 38, 46
4, 68684, Note_on_c, 9, 40, 0
4, 68690, Note_on_c, 9, 38, 0
4, 68720, Note_on_c, 9, 39, 42
4, 68729, Note_on_c, 9, 39, 0
4, 68760, Note_on_c, 9, 40, 29
4, 68760, Note_on_c, 9, 38, 49
4, 68760, Note_on_c, 9, 44, 60
4, 68802, Note_on_c, 9, 44, 0
4, 68838, Note_on_c, 9, 40, 0
4, 68840, Note_on_c, 9, 38, 0
4, 68880, Note_on_c, 9, 38, 38
4, 68880, Note_on_c, 9, 40, 21
4, 68946, Note_on_c, 9, 40, 0
4, 68954, Note_on_c, 9, 38, 0
4, 68960, Note_on_c, 9, 59, 70
4, 68960, Note_on_c, 9, 39, 37
4, 68967, Note_on_c, 9, 59, 0
4, 68974, Note_on_c, 9, 39, 0
4, 69000, Note_on_c, 9, 39, 28
4, 69000, Note_on_c, 9, 44, 62
4, 69060, Note_on_c, 9, 44, 0
4, 69080, Note_on_c, 9, 38, 55
4, 69098, Note_on_c, 9, 38, 0
4, 69098, Note_on_c, 9, 39, 0
4, 69120, Note_on_c, 9, 40, 27
4, 69120, Note_on_c, 9, 59, 49
4, 69120, Note_on_c, 9, 59, 76
4, 69120, Note_on_c, 9, 38, 52
4, 69130, Note_on_c, 9, 59, 0
4, 69160, Note_on_c, 9, 39, 29
4, 69171, Note_on_c, 9, 39, 0
4, 69225, Note_on_c, 9, 40, 0
4, 69228, Note_on_c, 9, 59, 0
4, 69228, Note_on_c, 9, 38, 0
4, 69240, Note_on_c, 9, 39, 62
4, 69240, Note_on_c, 9, 44, 60
4, 69240, Note_on_c, 9, 36, 55
4, 69250, Note_on_c, 9, 36, 0
4, 69302, Note_on_c, 9, 44, 0
4, 69317, Note_on_c, 9, 39, 0
4, 69320, Note_on_c, 9, 59, 95
4, 69320, Note_on_c, 9, 40, 39
4, 69320, Note_on_c, 9, 38, 50
4, 69320, Note_on_c, 9, 57, 57
4, 69320, Note_on_c, 9, 36, 46
4, 69334, Note_on_c, 9, 57, 0
4, 69352, Note_on_c, 9, 36, 0
4, 69437, Note_on_c, 9, 59, 0
4, 69440, Note_on_c, 9, 39, 71
4, 69441, Note_on_c, 9, 40, 0
4, 69446, Note_on_c, 9, 38, 0
4, 69475, Note_on_c, 9, 39, 0
4, 69480, Note_on_c, 9, 59, 113
4, 69480, Note_on_c, 9, 40, 29
4, 69480, Note_on_c, 9, 44, 64
4, 69490, Note_on_c, 9, 40, 0
4, 69533, Note_on_c, 9, 44, 0
4, 69556, Note_on_c, 9, 59, 0
4, 69556, End_track
0, 0, End_of_file
