0, 0, Header, 1, 2, 120
1, 0, Start_track
1, 0, Title_t, "  Easy To Love"
1, 0, Text_t, "Cole Porter\012"
1, 0, Text_t, "This relies heavily on a version done by Adam Makowicz in the Maybeck Hall series of concerts. \012"
1, 0, Text_t, "The introduction moves through 3 fairly unrelated minor keys (modes) - improvising freely on dorian type modes (Bb dorian, Gb dorian and Cb dorian), setting up the theme which also moves ambiguously into and out of key (F) in the first 16 bars. The theme\012"
1, 0, Time_signature, 4, 2, 24, 8
1, 0, Key_signature, -1, "major"
1, 0, Tempo, 461538
1, 0, Marker_t, "The introduction moves through 3 fairly unrelated minor keys (modes), "
1, 480, Marker_t, "This sets up the theme which also moves ambiguously into and out of key."
1, 8270, Marker_t, "The theme begins in Bm (instead of Gm) for 3 bars, then through Ab in bar 4, home to F in bar 5"
1, 11520, Marker_t, " In Bars 5 and 6 the melody moves in half steps,"
1, 12483, Marker_t, "THis makes it an ideal situation to harmonize each note separately with a quartal type of chord ."
1, 15856, Marker_t, " A similar device using Augmented triads is used in bar11 and 12 of the song"
1, 18725, Marker_t, " In the turnaround, in bars 15 & 16, , the melody note (E) is reharmonized with an  A Maj7 chord. "
1, 20278, Marker_t, "Second half of song begins  - in tempo"
1, 39923, Marker_t, "Walking bass added on 2nd chorus"
1, 51945, Marker_t, "Ending similar to intro"
1, 51945, End_track
2, 0, Start_track
2, 0, Title_t, "Track 1"
2, 0, Control_c, 0, 7, 127
2, 0, Control_c, 0, 10, 64
2, 92, Note_on_c, 0, 46, 51
2, 195, Control_c, 0, 64, 127
2, 208, Note_on_c, 0, 53, 41
2, 234, Note_on_c, 0, 46, 0
2, 295, Note_on_c, 0, 60, 57
2, 373, Note_on_c, 0, 61, 67
2, 398, Note_on_c, 0, 61, 29
2, 417, Note_on_c, 0, 61, 0
2, 422, Note_on_c, 0, 61, 0
2, 423, Note_on_c, 0, 63, 47
2, 443, Note_on_c, 0, 63, 0
2, 452, Note_on_c, 0, 65, 64
2, 462, Note_on_c, 0, 63, 85
2, 483, Note_on_c, 0, 67, 74
2, 488, Note_on_c, 0, 65, 0
2, 505, Note_on_c, 0, 60, 0
2, 509, Note_on_c, 0, 68, 71
2, 516, Note_on_c, 0, 53, 0
2, 520, Note_on_c, 0, 67, 0
2, 535, Note_on_c, 0, 70, 64
2, 540, Note_on_c, 0, 68, 0
2, 550, Note_on_c, 0, 70, 0
2, 558, Control_c, 0, 64, 0
2, 559, Note_on_c, 0, 72, 70
2, 566, Control_c, 0, 64, 127
2, 585, Note_on_c, 0, 72, 0
2, 587, Note_on_c, 0, 73, 60
2, 603, Note_on_c, 0, 75, 64
2, 610, Note_on_c, 0, 73, 0
2, 624, Note_on_c, 0, 75, 0
2, 636, Note_on_c, 0, 77, 65
2, 661, Note_on_c, 0, 77, 0
2, 662, Note_on_c, 0, 79, 57
2, 679, Note_on_c, 0, 80, 48
2, 685, Note_on_c, 0, 79, 0
2, 702, Note_on_c, 0, 80, 0
2, 705, Note_on_c, 0, 82, 53
2, 722, Note_on_c, 0, 82, 0
2, 737, Note_on_c, 0, 84, 52
2, 746, Note_on_c, 0, 84, 0
2, 764, Note_on_c, 0, 85, 48
2, 776, Note_on_c, 0, 85, 0
2, 790, Note_on_c, 0, 87, 39
2, 800, Note_on_c, 0, 87, 0
2, 814, Note_on_c, 0, 89, 36
2, 839, Note_on_c, 0, 89, 0
2, 848, Note_on_c, 0, 91, 36
2, 860, Note_on_c, 0, 61, 43
2, 861, Note_on_c, 0, 91, 0
2, 861, Note_on_c, 0, 92, 42
2, 890, Note_on_c, 0, 63, 0
2, 892, Note_on_c, 0, 94, 51
2, 902, Note_on_c, 0, 92, 0
2, 917, Note_on_c, 0, 60, 53
2, 918, Note_on_c, 0, 61, 0
2, 924, Note_on_c, 0, 96, 52
2, 925, Note_on_c, 0, 94, 0
2, 969, Note_on_c, 0, 91, 47
2, 976, Note_on_c, 0, 60, 0
2, 976, Note_on_c, 0, 53, 61
2, 1032, Note_on_c, 0, 53, 0
2, 1045, Note_on_c, 0, 96, 0
2, 1056, Note_on_c, 0, 53, 59
2, 1056, Note_on_c, 0, 94, 56
2, 1060, Control_c, 0, 64, 0
2, 1071, Note_on_c, 0, 91, 0
2, 1074, Control_c, 0, 64, 127
2, 1136, Note_on_c, 0, 46, 72
2, 1138, Note_on_c, 0, 89, 27
2, 1145, Note_on_c, 0, 53, 0
2, 1157, Note_on_c, 0, 94, 0
2, 1191, Control_c, 0, 64, 0
2, 1199, Control_c, 0, 64, 127
2, 1216, Note_on_c, 0, 53, 70
2, 1230, Note_on_c, 0, 89, 0
2, 1231, Note_on_c, 0, 46, 0
2, 1239, Note_on_c, 0, 87, 52
2, 1298, Note_on_c, 0, 53, 0
2, 1305, Note_on_c, 0, 60, 75
2, 1341, Note_on_c, 0, 84, 34
2, 1343, Note_on_c, 0, 87, 0
2, 1401, Note_on_c, 0, 61, 79
2, 1412, Note_on_c, 0, 84, 0
2, 1413, Note_on_c, 0, 60, 0
2, 1470, Note_on_c, 0, 61, 0
2, 1503, Note_on_c, 0, 63, 82
2, 1520, Control_c, 0, 64, 0
2, 1548, Control_c, 0, 64, 127
2, 1617, Note_on_c, 0, 61, 60
2, 1624, Note_on_c, 0, 63, 0
2, 1736, Note_on_c, 0, 61, 0
2, 1742, Note_on_c, 0, 60, 60
2, 1776, Note_on_c, 0, 60, 0
2, 2260, Note_on_c, 0, 44, 48
2, 2394, Note_on_c, 0, 44, 0
2, 2421, Note_on_c, 0, 42, 55
2, 2448, Control_c, 0, 64, 0
2, 2511, Control_c, 0, 64, 127
2, 2587, Note_on_c, 0, 49, 39
2, 2610, Note_on_c, 0, 64, 4
2, 2616, Note_on_c, 0, 42, 0
2, 2685, Note_on_c, 0, 66, 45
2, 2694, Note_on_c, 0, 56, 54
2, 2700, Note_on_c, 0, 64, 0
2, 2748, Note_on_c, 0, 68, 55
2, 2751, Note_on_c, 0, 56, 0
2, 2760, Note_on_c, 0, 66, 0
2, 2779, Note_on_c, 0, 49, 0
2, 2780, Note_on_c, 0, 57, 58
2, 2801, Note_on_c, 0, 68, 0
2, 2805, Note_on_c, 0, 71, 61
2, 2869, Note_on_c, 0, 73, 54
2, 2872, Note_on_c, 0, 61, 67
2, 2874, Note_on_c, 0, 57, 0
2, 2879, Note_on_c, 0, 71, 0
2, 2897, Control_c, 0, 64, 0
2, 2912, Control_c, 0, 64, 127
2, 2922, Note_on_c, 0, 75, 69
2, 2936, Note_on_c, 0, 73, 0
2, 2964, Note_on_c, 0, 75, 0
2, 2967, Note_on_c, 0, 76, 66
2, 2975, Note_on_c, 0, 64, 50
2, 3009, Note_on_c, 0, 78, 69
2, 3010, Note_on_c, 0, 76, 0
2, 3051, Note_on_c, 0, 80, 74
2, 3061, Note_on_c, 0, 78, 0
2, 3080, Note_on_c, 0, 80, 0
2, 3092, Note_on_c, 0, 64, 0
2, 3096, Note_on_c, 0, 83, 68
2, 3098, Note_on_c, 0, 66, 47
2, 3144, Note_on_c, 0, 83, 0
2, 3147, Note_on_c, 0, 85, 55
2, 3166, Note_on_c, 0, 66, 0
2, 3185, Note_on_c, 0, 61, 0
2, 3202, Note_on_c, 0, 87, 62
2, 3211, Note_on_c, 0, 85, 0
2, 3261, Note_on_c, 0, 87, 0
2, 3264, Note_on_c, 0, 88, 54
2, 3294, Note_on_c, 0, 49, 35
2, 3338, Note_on_c, 0, 90, 56
2, 3345, Note_on_c, 0, 88, 0
2, 3376, Note_on_c, 0, 49, 0
2, 3377, Note_on_c, 0, 42, 64
2, 3394, Control_c, 0, 64, 0
2, 3405, Note_on_c, 0, 92, 61
2, 3409, Note_on_c, 0, 90, 0
2, 3431, Control_c, 0, 64, 127
2, 3458, Note_on_c, 0, 49, 61
2, 3478, Note_on_c, 0, 88, 55
2, 3495, Note_on_c, 0, 92, 0
2, 3571, Note_on_c, 0, 42, 0
2, 3595, Note_on_c, 0, 56, 74
2, 3669, Note_on_c, 0, 56, 0
2, 3669, Note_on_c, 0, 85, 50
2, 3674, Note_on_c, 0, 88, 0
2, 3690, Note_on_c, 0, 57, 82
2, 3695, Note_on_c, 0, 49, 0
2, 3724, Note_on_c, 0, 85, 0
2, 3726, Note_on_c, 0, 88, 39
2, 3726, Note_on_c, 0, 89, 36
2, 3759, Note_on_c, 0, 89, 0
2, 3788, Note_on_c, 0, 59, 83
2, 3788, Note_on_c, 0, 87, 76
2, 3792, Note_on_c, 0, 88, 0
2, 3800, Note_on_c, 0, 57, 0
2, 3890, Note_on_c, 0, 83, 47
2, 3895, Note_on_c, 0, 61, 81
2, 3907, Note_on_c, 0, 59, 0
2, 3916, Note_on_c, 0, 87, 0
2, 3988, Note_on_c, 0, 85, 74
2, 3998, Control_c, 0, 64, 0
2, 4002, Note_on_c, 0, 83, 0
2, 4010, Control_c, 0, 64, 127
2, 4023, Note_on_c, 0, 63, 68
2, 4025, Note_on_c, 0, 61, 0
2, 4095, Note_on_c, 0, 85, 0
2, 4097, Note_on_c, 0, 80, 40
2, 4187, Note_on_c, 0, 80, 0
2, 4187, Note_on_c, 0, 83, 56
2, 4295, Note_on_c, 0, 78, 42
2, 4302, Note_on_c, 0, 63, 0
2, 4304, Note_on_c, 0, 64, 42
2, 4347, Note_on_c, 0, 64, 0
2, 4423, Note_on_c, 0, 83, 0
2, 4424, Note_on_c, 0, 76, 43
2, 4425, Note_on_c, 0, 78, 0
2, 4454, Note_on_c, 0, 47, 52
2, 4527, Control_c, 0, 64, 0
2, 4539, Control_c, 0, 64, 127
2, 4544, Note_on_c, 0, 76, 0
2, 4547, Note_on_c, 0, 73, 36
2, 4579, Note_on_c, 0, 54, 46
2, 4626, Note_on_c, 0, 47, 0
2, 4713, Note_on_c, 0, 61, 52
2, 4718, Control_c, 0, 64, 0
2, 4730, Control_c, 0, 64, 127
2, 4775, Note_on_c, 0, 54, 0
2, 4834, Note_on_c, 0, 54, 48
2, 4846, Note_on_c, 0, 71, 55
2, 4859, Note_on_c, 0, 73, 0
2, 4921, Note_on_c, 0, 61, 0
2, 4941, Note_on_c, 0, 62, 70
2, 4969, Control_c, 0, 64, 0
2, 5022, Note_on_c, 0, 54, 0
2, 5024, Control_c, 0, 64, 127
2, 5040, Note_on_c, 0, 71, 0
2, 5041, Note_on_c, 0, 54, 51
2, 5104, Note_on_c, 0, 62, 0
2, 5130, Note_on_c, 0, 61, 57
2, 5137, Note_on_c, 0, 61, 71
2, 5156, Note_on_c, 0, 54, 0
2, 5157, Control_c, 0, 64, 0
2, 5199, Control_c, 0, 64, 127
2, 5200, Note_on_c, 0, 61, 0
2, 5211, Note_on_c, 0, 54, 56
2, 5263, Note_on_c, 0, 61, 0
2, 5285, Note_on_c, 0, 47, 61
2, 5300, Control_c, 0, 64, 0
2, 5301, Note_on_c, 0, 54, 0
2, 5347, Control_c, 0, 64, 127
2, 5351, Note_on_c, 0, 54, 62
2, 5382, Note_on_c, 0, 57, 38
2, 5385, Note_on_c, 0, 47, 0
2, 5430, Note_on_c, 0, 61, 60
2, 5439, Note_on_c, 0, 59, 42
2, 5450, Note_on_c, 0, 57, 0
2, 5464, Note_on_c, 0, 54, 0
2, 5473, Note_on_c, 0, 59, 0
2, 5493, Note_on_c, 0, 61, 85
2, 5504, Note_on_c, 0, 54, 51
2, 5507, Control_c, 0, 64, 0
2, 5517, Note_on_c, 0, 61, 0
2, 5539, Note_on_c, 0, 61, 0
2, 5539, Note_on_c, 0, 62, 84
2, 5546, Control_c, 0, 64, 127
2, 5588, Note_on_c, 0, 64, 78
2, 5598, Note_on_c, 0, 62, 0
2, 5605, Note_on_c, 0, 62, 54
2, 5621, Control_c, 0, 64, 0
2, 5630, Note_on_c, 0, 64, 0
2, 5638, Note_on_c, 0, 66, 78
2, 5684, Note_on_c, 0, 66, 0
2, 5688, Note_on_c, 0, 68, 65
2, 5710, Note_on_c, 0, 69, 37
2, 5731, Note_on_c, 0, 68, 0
2, 5742, Note_on_c, 0, 69, 64
2, 5800, Note_on_c, 0, 71, 63
2, 5801, Note_on_c, 0, 69, 0
2, 5837, Note_on_c, 0, 69, 0
2, 5841, Note_on_c, 0, 62, 0
2, 5844, Note_on_c, 0, 66, 33
2, 5861, Note_on_c, 0, 73, 36
2, 5866, Note_on_c, 0, 71, 0
2, 5872, Note_on_c, 0, 54, 0
2, 5921, Note_on_c, 0, 73, 0
2, 5928, Note_on_c, 0, 74, 45
2, 5975, Note_on_c, 0, 54, 43
2, 5996, Note_on_c, 0, 66, 0
2, 5997, Note_on_c, 0, 76, 38
2, 6057, Control_c, 0, 64, 127
2, 6059, Note_on_c, 0, 74, 0
2, 6084, Note_on_c, 0, 76, 0
2, 6091, Note_on_c, 0, 78, 37
2, 6139, Note_on_c, 0, 47, 51
2, 6153, Control_c, 0, 64, 0
2, 6189, Note_on_c, 0, 78, 0
2, 6197, Note_on_c, 0, 80, 33
2, 6229, Control_c, 0, 64, 127
2, 6231, Note_on_c, 0, 80, 0
2, 6406, Note_on_c, 0, 54, 0
2, 6433, Note_on_c, 0, 85, 48
2, 6522, Note_on_c, 0, 85, 0
2, 6552, Note_on_c, 0, 47, 0
2, 6594, Note_on_c, 0, 85, 67
2, 6606, Note_on_c, 0, 73, 25
2, 6610, Control_c, 0, 64, 0
2, 6612, Control_c, 0, 64, 0
2, 6664, Control_c, 0, 64, 127
2, 6697, Note_on_c, 0, 74, 37
2, 6731, Note_on_c, 0, 85, 0
2, 6735, Note_on_c, 0, 78, 37
2, 6774, Note_on_c, 0, 74, 0
2, 6780, Note_on_c, 0, 85, 71
2, 6821, Note_on_c, 0, 73, 0
2, 6823, Note_on_c, 0, 74, 63
2, 6825, Note_on_c, 0, 71, 64
2, 6826, Note_on_c, 0, 78, 0
2, 6827, Note_on_c, 0, 85, 0
2, 6847, Control_c, 0, 64, 0
2, 6883, Control_c, 0, 64, 127
2, 6889, Note_on_c, 0, 78, 47
2, 6939, Note_on_c, 0, 83, 58
2, 6940, Note_on_c, 0, 74, 0
2, 6984, Note_on_c, 0, 78, 0
2, 6999, Note_on_c, 0, 74, 35
2, 7029, Note_on_c, 0, 83, 0
2, 7076, Note_on_c, 0, 69, 38
2, 7089, Control_c, 0, 64, 0
2, 7095, Note_on_c, 0, 71, 0
2, 7124, Control_c, 0, 64, 127
2, 7154, Note_on_c, 0, 74, 0
2, 7175, Note_on_c, 0, 74, 29
2, 7264, Note_on_c, 0, 83, 36
2, 7288, Note_on_c, 0, 74, 0
2, 7325, Note_on_c, 0, 83, 0
2, 7333, Note_on_c, 0, 74, 32
2, 7374, Note_on_c, 0, 69, 0
2, 7404, Note_on_c, 0, 74, 0
2, 7404, Note_on_c, 0, 73, 59
2, 7407, Note_on_c, 0, 85, 73
2, 7415, Control_c, 0, 64, 0
2, 7441, Control_c, 0, 64, 127
2, 7464, Note_on_c, 0, 74, 55
2, 7488, Note_on_c, 0, 85, 0
2, 7501, Note_on_c, 0, 78, 36
2, 7535, Note_on_c, 0, 74, 0
2, 7535, Note_on_c, 0, 85, 70
2, 7543, Note_on_c, 0, 73, 0
2, 7577, Note_on_c, 0, 74, 61
2, 7580, Note_on_c, 0, 85, 0
2, 7580, Note_on_c, 0, 71, 58
2, 7582, Note_on_c, 0, 78, 0
2, 7590, Control_c, 0, 64, 0
2, 7619, Control_c, 0, 64, 127
2, 7631, Note_on_c, 0, 78, 40
2, 7672, Note_on_c, 0, 74, 0
2, 7678, Note_on_c, 0, 83, 62
2, 7702, Note_on_c, 0, 78, 0
2, 7732, Note_on_c, 0, 74, 40
2, 7763, Note_on_c, 0, 83, 0
2, 7792, Note_on_c, 0, 69, 44
2, 7793, Note_on_c, 0, 78, 27
2, 7798, Note_on_c, 0, 71, 0
2, 7807, Control_c, 0, 64, 0
2, 7833, Control_c, 0, 64, 127
2, 7841, Note_on_c, 0, 74, 0
2, 7869, Note_on_c, 0, 74, 27
2, 7880, Note_on_c, 0, 78, 0
2, 7948, Note_on_c, 0, 81, 44
2, 7950, Note_on_c, 0, 74, 0
2, 8027, Note_on_c, 0, 74, 22
2, 8054, Control_c, 0, 64, 127
2, 8076, Note_on_c, 0, 81, 0
2, 8112, Note_on_c, 0, 59, 32
2, 8113, Note_on_c, 0, 78, 35
2, 8128, Control_c, 0, 64, 0
2, 8129, Note_on_c, 0, 74, 0
2, 8149, Control_c, 0, 64, 127
2, 8185, Note_on_c, 0, 69, 0
2, 8197, Note_on_c, 0, 74, 79
2, 8217, Note_on_c, 0, 69, 22
2, 8245, Note_on_c, 0, 59, 0
2, 8247, Note_on_c, 0, 74, 0
2, 8272, Note_on_c, 0, 74, 65
2, 8277, Note_on_c, 0, 47, 45
2, 8282, Control_c, 0, 64, 0
2, 8298, Note_on_c, 0, 78, 0
2, 8305, Note_on_c, 0, 74, 31
2, 8312, Control_c, 0, 64, 127
2, 8336, Note_on_c, 0, 54, 31
2, 8356, Note_on_c, 0, 74, 0
2, 8363, Note_on_c, 0, 69, 0
2, 8396, Note_on_c, 0, 66, 38
2, 8398, Note_on_c, 0, 62, 44
2, 8399, Note_on_c, 0, 58, 34
2, 8455, Note_on_c, 0, 58, 0
2, 8474, Note_on_c, 0, 59, 51
2, 8476, Note_on_c, 0, 62, 0
2, 8488, Note_on_c, 0, 66, 0
2, 8542, Note_on_c, 0, 59, 0
2, 8563, Control_c, 0, 64, 0
2, 8567, Note_on_c, 0, 66, 42
2, 8572, Note_on_c, 0, 62, 36
2, 8576, Note_on_c, 0, 59, 44
2, 8644, Note_on_c, 0, 59, 0
2, 8676, Note_on_c, 0, 59, 45
2, 8692, Note_on_c, 0, 62, 0
2, 8707, Note_on_c, 0, 66, 0
2, 8740, Note_on_c, 0, 59, 0
2, 8773, Note_on_c, 0, 66, 28
2, 8775, Note_on_c, 0, 62, 30
2, 8780, Note_on_c, 0, 59, 34
2, 8799, Note_on_c, 0, 54, 0
2, 8851, Note_on_c, 0, 59, 0
2, 8856, Note_on_c, 0, 54, 42
2, 8862, Note_on_c, 0, 74, 0
2, 8875, Note_on_c, 0, 66, 0
2, 8896, Note_on_c, 0, 47, 0
2, 8902, Note_on_c, 0, 62, 0
2, 9020, Note_on_c, 0, 54, 0
2, 9022, Note_on_c, 0, 66, 78
2, 9025, Note_on_c, 0, 47, 48
2, 9041, Control_c, 0, 64, 0
2, 9067, Control_c, 0, 64, 127
2, 9103, Note_on_c, 0, 55, 55
2, 9204, Note_on_c, 0, 62, 32
2, 9208, Note_on_c, 0, 57, 26
2, 9640, Note_on_c, 0, 57, 0
2, 9682, Note_on_c, 0, 62, 0
2, 9819, Note_on_c, 0, 66, 0
2, 10029, Note_on_c, 0, 68, 54
2, 10064, Note_on_c, 0, 47, 0
2, 10080, Note_on_c, 0, 55, 0
2, 10104, Note_on_c, 0, 68, 0
2, 10110, Note_on_c, 0, 47, 47
2, 10111, Note_on_c, 0, 62, 46
2, 10114, Note_on_c, 0, 69, 50
2, 10120, Control_c, 0, 64, 0
2, 10156, Control_c, 0, 64, 127
2, 10205, Note_on_c, 0, 57, 39
2, 10265, Note_on_c, 0, 62, 0
2, 10268, Note_on_c, 0, 69, 0
2, 10277, Note_on_c, 0, 57, 0
2, 10294, Note_on_c, 0, 68, 58
2, 10295, Note_on_c, 0, 62, 71
2, 10300, Note_on_c, 0, 57, 53
2, 10357, Note_on_c, 0, 47, 0
2, 10371, Note_on_c, 0, 68, 0
2, 10402, Note_on_c, 0, 69, 68
2, 10404, Note_on_c, 0, 47, 44
2, 10419, Note_on_c, 0, 62, 0
2, 10424, Note_on_c, 0, 57, 0
2, 10446, Note_on_c, 0, 47, 0
2, 10452, Note_on_c, 0, 69, 0
2, 10799, Note_on_c, 0, 75, 60
2, 10800, Control_c, 0, 64, 0
2, 10801, Note_on_c, 0, 56, 35
2, 10803, Note_on_c, 0, 46, 34
2, 10806, Note_on_c, 0, 63, 37
2, 10832, Control_c, 0, 64, 127
2, 10851, Note_on_c, 0, 46, 0
2, 10859, Note_on_c, 0, 56, 0
2, 10907, Note_on_c, 0, 63, 0
2, 10931, Note_on_c, 0, 61, 46
2, 11040, Note_on_c, 0, 61, 0
2, 11043, Note_on_c, 0, 68, 44
2, 11046, Note_on_c, 0, 64, 24
2, 11046, Note_on_c, 0, 63, 28
2, 11053, Note_on_c, 0, 64, 0
2, 11056, Note_on_c, 0, 75, 0
2, 11128, Note_on_c, 0, 75, 53
2, 11175, Note_on_c, 0, 75, 0
2, 11193, Note_on_c, 0, 68, 0
2, 11194, Note_on_c, 0, 63, 0
2, 11201, Note_on_c, 0, 27, 55
2, 11201, Note_on_c, 0, 75, 55
2, 11203, Control_c, 0, 64, 0
2, 11221, Note_on_c, 0, 27, 0
2, 11227, Control_c, 0, 64, 127
2, 11302, Note_on_c, 0, 60, 39
2, 11386, Note_on_c, 0, 75, 0
2, 11390, Note_on_c, 0, 63, 34
2, 11394, Note_on_c, 0, 60, 0
2, 11394, Note_on_c, 0, 67, 44
2, 11399, Note_on_c, 0, 58, 31
2, 11475, Note_on_c, 0, 58, 0
2, 11491, Note_on_c, 0, 63, 0
2, 11492, Note_on_c, 0, 67, 0
2, 11529, Note_on_c, 0, 73, 52
2, 11531, Note_on_c, 0, 63, 63
2, 11532, Note_on_c, 0, 68, 69
2, 11532, Note_on_c, 0, 58, 55
2, 11544, Control_c, 0, 64, 0
2, 11548, Control_c, 0, 64, 127
2, 11602, Note_on_c, 0, 63, 0
2, 11605, Note_on_c, 0, 73, 0
2, 11612, Note_on_c, 0, 68, 0
2, 11623, Note_on_c, 0, 58, 0
2, 11626, Control_c, 0, 64, 0
2, 11630, Note_on_c, 0, 67, 67
2, 11630, Note_on_c, 0, 72, 58
2, 11631, Note_on_c, 0, 57, 48
2, 11633, Note_on_c, 0, 62, 51
2, 11660, Control_c, 0, 64, 127
2, 11668, Note_on_c, 0, 57, 0
2, 11716, Note_on_c, 0, 48, 60
2, 11719, Note_on_c, 0, 67, 0
2, 11719, Note_on_c, 0, 72, 0
2, 11733, Note_on_c, 0, 62, 0
2, 11811, Control_c, 0, 64, 0
2, 11811, Note_on_c, 0, 55, 50
2, 11811, Note_on_c, 0, 57, 51
2, 11813, Note_on_c, 0, 60, 54
2, 11814, Note_on_c, 0, 41, 38
2, 11836, Note_on_c, 0, 48, 0
2, 11839, Control_c, 0, 64, 127
2, 11856, Note_on_c, 0, 55, 0
2, 11876, Note_on_c, 0, 57, 0
2, 11885, Note_on_c, 0, 60, 0
2, 11904, Note_on_c, 0, 48, 51
2, 11953, Note_on_c, 0, 41, 0
2, 11997, Note_on_c, 0, 48, 0
2, 12199, Note_on_c, 0, 71, 55
2, 12200, Control_c, 0, 64, 0
2, 12202, Note_on_c, 0, 56, 40
2, 12203, Note_on_c, 0, 67, 60
2, 12204, Note_on_c, 0, 62, 38
2, 12212, Control_c, 0, 64, 127
2, 12251, Note_on_c, 0, 71, 0
2, 12253, Note_on_c, 0, 62, 0
2, 12256, Note_on_c, 0, 56, 0
2, 12261, Note_on_c, 0, 57, 46
2, 12262, Note_on_c, 0, 72, 61
2, 12271, Note_on_c, 0, 71, 48
2, 12273, Note_on_c, 0, 67, 0
2, 12279, Note_on_c, 0, 71, 0
2, 12282, Note_on_c, 0, 72, 0
2, 12302, Note_on_c, 0, 57, 0
2, 12329, Note_on_c, 0, 46, 52
2, 12331, Note_on_c, 0, 79, 68
2, 12332, Note_on_c, 0, 72, 62
2, 12334, Control_c, 0, 64, 0
2, 12368, Control_c, 0, 64, 127
2, 12399, Note_on_c, 0, 46, 0
2, 12399, Note_on_c, 0, 57, 53
2, 12410, Note_on_c, 0, 57, 0
2, 12465, Note_on_c, 0, 79, 0
2, 12477, Note_on_c, 0, 72, 0
2, 12479, Note_on_c, 0, 62, 58
2, 12560, Note_on_c, 0, 79, 64
2, 12561, Note_on_c, 0, 62, 0
2, 12561, Note_on_c, 0, 74, 75
2, 12563, Note_on_c, 0, 69, 72
2, 12564, Note_on_c, 0, 64, 56
2, 12567, Control_c, 0, 64, 0
2, 12589, Control_c, 0, 64, 127
2, 12624, Note_on_c, 0, 79, 0
2, 12626, Note_on_c, 0, 69, 0
2, 12637, Note_on_c, 0, 74, 0
2, 12647, Note_on_c, 0, 64, 0
2, 12663, Note_on_c, 0, 79, 39
2, 12666, Note_on_c, 0, 74, 74
2, 12668, Note_on_c, 0, 69, 70
2, 12669, Note_on_c, 0, 64, 56
2, 12677, Control_c, 0, 64, 0
2, 12689, Control_c, 0, 64, 127
2, 12715, Note_on_c, 0, 79, 0
2, 12724, Note_on_c, 0, 69, 0
2, 12733, Note_on_c, 0, 74, 0
2, 12745, Control_c, 0, 64, 0
2, 12750, Note_on_c, 0, 78, 59
2, 12750, Note_on_c, 0, 63, 58
2, 12751, Note_on_c, 0, 68, 57
2, 12752, Note_on_c, 0, 64, 0
2, 12752, Note_on_c, 0, 73, 51
2, 12769, Control_c, 0, 64, 127
2, 12806, Note_on_c, 0, 78, 0
2, 12807, Note_on_c, 0, 73, 0
2, 12810, Note_on_c, 0, 68, 0
2, 12813, Control_c, 0, 64, 0
2, 12817, Note_on_c, 0, 63, 0
2, 12820, Note_on_c, 0, 77, 57
2, 12822, Note_on_c, 0, 62, 48
2, 12824, Note_on_c, 0, 72, 50
2, 12825, Note_on_c, 0, 67, 44
2, 12837, Control_c, 0, 64, 127
2, 12849, Note_on_c, 0, 77, 0
2, 12860, Note_on_c, 0, 72, 0
2, 12878, Note_on_c, 0, 67, 0
2, 12880, Note_on_c, 0, 61, 52
2, 12881, Note_on_c, 0, 62, 0
2, 12884, Note_on_c, 0, 76, 62
2, 12895, Note_on_c, 0, 61, 0
2, 12906, Note_on_c, 0, 76, 0
2, 12957, Note_on_c, 0, 45, 46
2, 12957, Note_on_c, 0, 74, 55
2, 12966, Control_c, 0, 64, 0
2, 13012, Control_c, 0, 64, 127
2, 13025, Note_on_c, 0, 55, 42
2, 13042, Note_on_c, 0, 45, 0
2, 13065, Note_on_c, 0, 55, 0
2, 13091, Note_on_c, 0, 67, 49
2, 13095, Note_on_c, 0, 60, 30
2, 13130, Note_on_c, 0, 60, 0
2, 13161, Note_on_c, 0, 60, 50
2, 13172, Note_on_c, 0, 67, 0
2, 13182, Note_on_c, 0, 60, 0
2, 13241, Note_on_c, 0, 67, 36
2, 13246, Note_on_c, 0, 60, 19
2, 13298, Note_on_c, 0, 74, 0
2, 13301, Note_on_c, 0, 60, 0
2, 13304, Note_on_c, 0, 55, 40
2, 13347, Note_on_c, 0, 67, 0
2, 13363, Control_c, 0, 64, 0
2, 13369, Note_on_c, 0, 73, 40
2, 13371, Note_on_c, 0, 61, 51
2, 13372, Note_on_c, 0, 52, 33
2, 13373, Note_on_c, 0, 67, 47
2, 13385, Control_c, 0, 64, 127
2, 13419, Note_on_c, 0, 73, 0
2, 13420, Note_on_c, 0, 61, 0
2, 13425, Note_on_c, 0, 67, 0
2, 13437, Note_on_c, 0, 45, 47
2, 13438, Note_on_c, 0, 74, 69
2, 13440, Note_on_c, 0, 55, 0
2, 13444, Note_on_c, 0, 52, 0
2, 13446, Note_on_c, 0, 45, 0
2, 13462, Note_on_c, 0, 74, 0
2, 13524, Note_on_c, 0, 51, 42
2, 13526, Note_on_c, 0, 72, 54
2, 13527, Control_c, 0, 64, 0
2, 13528, Note_on_c, 0, 61, 46
2, 13528, Note_on_c, 0, 65, 54
2, 13530, Note_on_c, 0, 69, 50
2, 13578, Control_c, 0, 64, 127
2, 13618, Note_on_c, 0, 55, 43
2, 13625, Note_on_c, 0, 61, 0
2, 13630, Note_on_c, 0, 65, 0
2, 13640, Note_on_c, 0, 69, 0
2, 13708, Note_on_c, 0, 61, 31
2, 13752, Note_on_c, 0, 51, 0
2, 13796, Note_on_c, 0, 51, 36
2, 13800, Note_on_c, 0, 55, 0
2, 13801, Note_on_c, 0, 65, 36
2, 13804, Note_on_c, 0, 61, 0
2, 13807, Note_on_c, 0, 69, 19
2, 13820, Note_on_c, 0, 69, 0
2, 13835, Note_on_c, 0, 65, 0
2, 13837, Note_on_c, 0, 51, 0
2, 13893, Note_on_c, 0, 72, 0
2, 13895, Note_on_c, 0, 68, 31
2, 13901, Note_on_c, 0, 64, 32
2, 13902, Control_c, 0, 64, 0
2, 13903, Note_on_c, 0, 60, 41
2, 13903, Note_on_c, 0, 50, 33
2, 13906, Note_on_c, 0, 54, 25
2, 13938, Note_on_c, 0, 60, 0
2, 13940, Control_c, 0, 64, 127
2, 13946, Note_on_c, 0, 64, 0
2, 13957, Note_on_c, 0, 68, 0
2, 13998, Note_on_c, 0, 83, 53
2, 14003, Note_on_c, 0, 60, 22
2, 14058, Note_on_c, 0, 60, 0
2, 14082, Note_on_c, 0, 83, 0
2, 14116, Note_on_c, 0, 83, 36
2, 14122, Note_on_c, 0, 71, 32
2, 14127, Note_on_c, 0, 60, 25
2, 14186, Note_on_c, 0, 71, 0
2, 14192, Note_on_c, 0, 83, 0
2, 14231, Note_on_c, 0, 60, 0
2, 14233, Note_on_c, 0, 84, 58
2, 14238, Note_on_c, 0, 72, 31
2, 14246, Note_on_c, 0, 50, 0
2, 14251, Note_on_c, 0, 54, 0
2, 14310, Note_on_c, 0, 84, 0
2, 14318, Note_on_c, 0, 72, 0
2, 14344, Control_c, 0, 64, 0
2, 14345, Note_on_c, 0, 84, 49
2, 14348, Note_on_c, 0, 43, 32
2, 14350, Note_on_c, 0, 72, 33
2, 14360, Note_on_c, 0, 43, 0
2, 14362, Control_c, 0, 64, 127
2, 14451, Note_on_c, 0, 62, 42
2, 14457, Note_on_c, 0, 58, 30
2, 14484, Note_on_c, 0, 62, 0
2, 14489, Note_on_c, 0, 58, 0
2, 14549, Note_on_c, 0, 62, 54
2, 14551, Note_on_c, 0, 58, 39
2, 14554, Note_on_c, 0, 60, 45
2, 14563, Note_on_c, 0, 60, 0
2, 14569, Note_on_c, 0, 62, 0
2, 14577, Note_on_c, 0, 58, 0
2, 14639, Note_on_c, 0, 57, 55
2, 14639, Note_on_c, 0, 60, 64
2, 14641, Note_on_c, 0, 58, 53
2, 14693, Note_on_c, 0, 60, 0
2, 14699, Note_on_c, 0, 57, 0
2, 14699, Note_on_c, 0, 58, 0
2, 14731, Note_on_c, 0, 57, 66
2, 14732, Note_on_c, 0, 60, 71
2, 14734, Note_on_c, 0, 58, 61
2, 14745, Note_on_c, 0, 60, 0
2, 14751, Note_on_c, 0, 57, 0
2, 14753, Note_on_c, 0, 58, 0
2, 14824, Note_on_c, 0, 50, 70
2, 14874, Note_on_c, 0, 50, 0
2, 14923, Note_on_c, 0, 50, 64
2, 14958, Note_on_c, 0, 50, 0
2, 15013, Note_on_c, 0, 50, 57
2, 15022, Note_on_c, 0, 50, 0
2, 15038, Note_on_c, 0, 72, 0
2, 15053, Note_on_c, 0, 84, 0
2, 15121, Note_on_c, 0, 86, 57
2, 15122, Control_c, 0, 64, 0
2, 15124, Note_on_c, 0, 36, 40
2, 15124, Note_on_c, 0, 74, 32
2, 15126, Note_on_c, 0, 24, 38
2, 15150, Control_c, 0, 64, 127
2, 15158, Note_on_c, 0, 24, 0
2, 15167, Note_on_c, 0, 36, 0
2, 15170, Note_on_c, 0, 86, 0
2, 15185, Note_on_c, 0, 74, 0
2, 15313, Note_on_c, 0, 62, 38
2, 15314, Note_on_c, 0, 66, 34
2, 15314, Note_on_c, 0, 69, 49
2, 15317, Note_on_c, 0, 58, 34
2, 15537, Note_on_c, 0, 58, 0
2, 15538, Note_on_c, 0, 62, 0
2, 15548, Note_on_c, 0, 66, 0
2, 15554, Note_on_c, 0, 69, 0
2, 15685, Note_on_c, 0, 76, 80
2, 15685, Note_on_c, 0, 64, 75
2, 15689, Note_on_c, 0, 52, 53
2, 15695, Control_c, 0, 64, 0
2, 15709, Control_c, 0, 64, 127
2, 15739, Note_on_c, 0, 52, 0
2, 15753, Note_on_c, 0, 76, 0
2, 15781, Note_on_c, 0, 64, 0
2, 15895, Note_on_c, 0, 69, 74
2, 15896, Note_on_c, 0, 61, 75
2, 15898, Note_on_c, 0, 57, 69
2, 15898, Note_on_c, 0, 41, 58
2, 15899, Note_on_c, 0, 49, 55
2, 15906, Control_c, 0, 64, 0
2, 15942, Control_c, 0, 64, 127
2, 15992, Note_on_c, 0, 57, 0
2, 15998, Note_on_c, 0, 69, 0
2, 15999, Note_on_c, 0, 61, 0
2, 16037, Note_on_c, 0, 49, 0
2, 16046, Note_on_c, 0, 69, 72
2, 16048, Note_on_c, 0, 62, 75
2, 16049, Note_on_c, 0, 50, 57
2, 16049, Note_on_c, 0, 57, 64
2, 16050, Control_c, 0, 64, 0
2, 16089, Control_c, 0, 64, 127
2, 16104, Note_on_c, 0, 41, 0
2, 16115, Note_on_c, 0, 50, 0
2, 16131, Note_on_c, 0, 57, 0
2, 16147, Note_on_c, 0, 62, 0
2, 16161, Note_on_c, 0, 69, 0
2, 16403, Note_on_c, 0, 66, 40
2, 16405, Note_on_c, 0, 69, 47
2, 16405, Note_on_c, 0, 54, 37
2, 16406, Note_on_c, 0, 46, 36
2, 16407, Note_on_c, 0, 62, 41
2, 16413, Control_c, 0, 64, 0
2, 16462, Control_c, 0, 64, 127
2, 16506, Note_on_c, 0, 69, 0
2, 16679, Note_on_c, 0, 66, 0
2, 16700, Note_on_c, 0, 66, 27
2, 16701, Note_on_c, 0, 69, 49
2, 16717, Note_on_c, 0, 62, 0
2, 16720, Note_on_c, 0, 54, 0
2, 16748, Note_on_c, 0, 69, 0
2, 16753, Note_on_c, 0, 66, 0
2, 16821, Note_on_c, 0, 46, 0
2, 16863, Note_on_c, 0, 53, 46
2, 16864, Note_on_c, 0, 61, 42
2, 16865, Note_on_c, 0, 68, 45
2, 16867, Note_on_c, 0, 65, 51
2, 16868, Note_on_c, 0, 45, 31
2, 16869, Control_c, 0, 64, 0
2, 16903, Control_c, 0, 64, 127
2, 16918, Note_on_c, 0, 68, 0
2, 16946, Note_on_c, 0, 45, 0
2, 16949, Note_on_c, 0, 68, 46
2, 16951, Note_on_c, 0, 53, 0
2, 16967, Note_on_c, 0, 65, 0
2, 16974, Note_on_c, 0, 61, 0
2, 16989, Note_on_c, 0, 68, 0
2, 17037, Note_on_c, 0, 67, 44
2, 17039, Control_c, 0, 64, 0
2, 17040, Note_on_c, 0, 60, 34
2, 17041, Note_on_c, 0, 64, 45
2, 17044, Note_on_c, 0, 44, 31
2, 17045, Note_on_c, 0, 52, 19
2, 17077, Control_c, 0, 64, 127
2, 17095, Note_on_c, 0, 67, 0
2, 17121, Note_on_c, 0, 67, 48
2, 17129, Note_on_c, 0, 64, 0
2, 17147, Note_on_c, 0, 60, 0
2, 17149, Note_on_c, 0, 44, 0
2, 17168, Note_on_c, 0, 52, 0
2, 17200, Note_on_c, 0, 67, 0
2, 17218, Control_c, 0, 64, 0
2, 17220, Note_on_c, 0, 43, 39
2, 17225, Note_on_c, 0, 63, 34
2, 17225, Note_on_c, 0, 66, 35
2, 17228, Note_on_c, 0, 59, 26
2, 17250, Control_c, 0, 64, 127
2, 17268, Note_on_c, 0, 59, 0
2, 17276, Note_on_c, 0, 63, 0
2, 17282, Note_on_c, 0, 66, 0
2, 17308, Note_on_c, 0, 43, 0
2, 17309, Note_on_c, 0, 53, 46
2, 17312, Note_on_c, 0, 72, 59
2, 17343, Note_on_c, 0, 53, 0
2, 17374, Note_on_c, 0, 72, 0
2, 17390, Note_on_c, 0, 72, 45
2, 17393, Note_on_c, 0, 65, 46
2, 17396, Note_on_c, 0, 69, 51
2, 17396, Note_on_c, 0, 58, 36
2, 17405, Note_on_c, 0, 65, 0
2, 17412, Note_on_c, 0, 69, 0
2, 17418, Note_on_c, 0, 72, 0
2, 17466, Note_on_c, 0, 62, 36
2, 17468, Note_on_c, 0, 84, 80
2, 17516, Note_on_c, 0, 84, 0
2, 17536, Note_on_c, 0, 62, 0
2, 17547, Note_on_c, 0, 84, 54
2, 17551, Note_on_c, 0, 77, 50
2, 17551, Note_on_c, 0, 81, 52
2, 17552, Note_on_c, 0, 65, 40
2, 17554, Note_on_c, 0, 72, 45
2, 17555, Note_on_c, 0, 58, 0
2, 17570, Note_on_c, 0, 65, 0
2, 17639, Note_on_c, 0, 69, 57
2, 17689, Note_on_c, 0, 72, 0
2, 17716, Note_on_c, 0, 84, 0
2, 17721, Note_on_c, 0, 77, 0
2, 17723, Note_on_c, 0, 81, 0
2, 17725, Note_on_c, 0, 69, 0
2, 17736, Note_on_c, 0, 67, 52
2, 17773, Note_on_c, 0, 67, 0
2, 17826, Note_on_c, 0, 72, 71
2, 17900, Note_on_c, 0, 72, 0
2, 17928, Note_on_c, 0, 48, 43
2, 17929, Note_on_c, 0, 72, 60
2, 17930, Control_c, 0, 64, 0
2, 17930, Note_on_c, 0, 58, 32
2, 17935, Note_on_c, 0, 65, 30
2, 17958, Control_c, 0, 64, 127
2, 18000, Note_on_c, 0, 65, 0
2, 18000, Note_on_c, 0, 72, 0
2, 18014, Note_on_c, 0, 48, 0
2, 18018, Note_on_c, 0, 73, 67
2, 18032, Note_on_c, 0, 58, 0
2, 18076, Note_on_c, 0, 73, 0
2, 18105, Note_on_c, 0, 73, 51
2, 18109, Note_on_c, 0, 69, 62
2, 18110, Note_on_c, 0, 64, 54
2, 18112, Control_c, 0, 64, 0
2, 18115, Note_on_c, 0, 58, 38
2, 18138, Control_c, 0, 64, 127
2, 18177, Note_on_c, 0, 58, 0
2, 18240, Note_on_c, 0, 69, 0
2, 18249, Note_on_c, 0, 64, 0
2, 18272, Note_on_c, 0, 73, 0
2, 18288, Note_on_c, 0, 48, 49
2, 18341, Note_on_c, 0, 48, 0
2, 18392, Note_on_c, 0, 74, 62
2, 18446, Note_on_c, 0, 74, 0
2, 18489, Note_on_c, 0, 74, 49
2, 18490, Note_on_c, 0, 58, 32
2, 18498, Note_on_c, 0, 64, 26
2, 18567, Note_on_c, 0, 74, 0
2, 18574, Note_on_c, 0, 58, 0
2, 18600, Note_on_c, 0, 64, 0
2, 18616, Note_on_c, 0, 74, 39
2, 18653, Note_on_c, 0, 74, 0
2, 18748, Control_c, 0, 64, 0
2, 18755, Note_on_c, 0, 73, 21
2, 18756, Note_on_c, 0, 45, 35
2, 18757, Note_on_c, 0, 76, 24
2, 18758, Note_on_c, 0, 68, 15
2, 18759, Note_on_c, 0, 71, 31
2, 18790, Control_c, 0, 64, 127
2, 18812, Note_on_c, 0, 76, 0
2, 18842, Note_on_c, 0, 45, 0
2, 18850, Note_on_c, 0, 76, 66
2, 18852, Note_on_c, 0, 57, 36
2, 18899, Note_on_c, 0, 76, 0
2, 18919, Note_on_c, 0, 68, 0
2, 18922, Note_on_c, 0, 73, 0
2, 18924, Note_on_c, 0, 71, 0
2, 18930, Note_on_c, 0, 57, 0
2, 18930, Note_on_c, 0, 76, 68
2, 18934, Note_on_c, 0, 59, 46
2, 18984, Note_on_c, 0, 76, 0
2, 19005, Note_on_c, 0, 59, 0
2, 19007, Note_on_c, 0, 61, 69
2, 19078, Note_on_c, 0, 76, 66
2, 19082, Note_on_c, 0, 73, 35
2, 19085, Control_c, 0, 64, 0
2, 19086, Note_on_c, 0, 68, 39
2, 19086, Note_on_c, 0, 71, 44
2, 19086, Note_on_c, 0, 64, 47
2, 19088, Note_on_c, 0, 61, 0
2, 19103, Control_c, 0, 64, 127
2, 19156, Note_on_c, 0, 68, 0
2, 19160, Note_on_c, 0, 64, 0
2, 19166, Note_on_c, 0, 66, 50
2, 19176, Note_on_c, 0, 71, 0
2, 19190, Note_on_c, 0, 73, 0
2, 19256, Note_on_c, 0, 76, 0
2, 19260, Note_on_c, 0, 73, 23
2, 19260, Note_on_c, 0, 68, 28
2, 19262, Note_on_c, 0, 71, 44
2, 19292, Note_on_c, 0, 66, 0
2, 19365, Note_on_c, 0, 76, 38
2, 19408, Note_on_c, 0, 76, 0
2, 19451, Note_on_c, 0, 76, 41
2, 19457, Note_on_c, 0, 45, 30
2, 19515, Note_on_c, 0, 68, 0
2, 19517, Note_on_c, 0, 71, 0
2, 19526, Note_on_c, 0, 76, 0
2, 19537, Note_on_c, 0, 73, 0
2, 19543, Note_on_c, 0, 52, 31
2, 19635, Note_on_c, 0, 59, 36
2, 19642, Note_on_c, 0, 57, 32
2, 19723, Note_on_c, 0, 71, 50
2, 19765, Note_on_c, 0, 59, 0
2, 19770, Note_on_c, 0, 57, 0
2, 19828, Note_on_c, 0, 59, 22
2, 19828, Note_on_c, 0, 68, 21
2, 19833, Note_on_c, 0, 57, 24
2, 19833, Note_on_c, 0, 64, 25
2, 19836, Note_on_c, 0, 52, 0
2, 19929, Note_on_c, 0, 59, 0
2, 19936, Note_on_c, 0, 52, 30
2, 19947, Note_on_c, 0, 57, 0
2, 19999, Note_on_c, 0, 45, 0
2, 20037, Note_on_c, 0, 64, 0
2, 20045, Note_on_c, 0, 71, 0
2, 20050, Note_on_c, 0, 52, 0
2, 20053, Note_on_c, 0, 68, 0
2, 20054, Note_on_c, 0, 45, 22
2, 20055, Note_on_c, 0, 59, 28
2, 20072, Note_on_c, 0, 45, 0
2, 20073, Note_on_c, 0, 59, 0
2, 20197, Note_on_c, 0, 56, 33
2, 20199, Note_on_c, 0, 63, 42
2, 20201, Note_on_c, 0, 59, 44
2, 20202, Control_c, 0, 64, 0
2, 20203, Note_on_c, 0, 44, 32
2, 20214, Control_c, 0, 64, 127
2, 20242, Note_on_c, 0, 59, 0
2, 20245, Note_on_c, 0, 56, 0
2, 20257, Note_on_c, 0, 63, 0
2, 20274, Note_on_c, 0, 44, 0
2, 20299, Note_on_c, 0, 62, 42
2, 20300, Control_c, 0, 64, 0
2, 20306, Note_on_c, 0, 58, 33
2, 20306, Note_on_c, 0, 53, 32
2, 20307, Note_on_c, 0, 55, 33
2, 20307, Note_on_c, 0, 43, 35
2, 20345, Control_c, 0, 64, 127
2, 20360, Note_on_c, 0, 55, 0
2, 20360, Note_on_c, 0, 53, 0
2, 20370, Note_on_c, 0, 62, 0
2, 20375, Note_on_c, 0, 58, 0
2, 20386, Note_on_c, 0, 50, 50
2, 20389, Note_on_c, 0, 43, 0
2, 20397, Note_on_c, 0, 50, 0
2, 20459, Note_on_c, 0, 74, 78
2, 20465, Note_on_c, 0, 57, 33
2, 20465, Note_on_c, 0, 58, 30
2, 20466, Note_on_c, 0, 62, 36
2, 20546, Note_on_c, 0, 58, 0
2, 20555, Note_on_c, 0, 62, 0
2, 20569, Note_on_c, 0, 57, 0
2, 20655, Note_on_c, 0, 62, 40
2, 20656, Note_on_c, 0, 58, 42
2, 20656, Note_on_c, 0, 57, 35
2, 20692, Note_on_c, 0, 62, 0
2, 20698, Note_on_c, 0, 57, 0
2, 20698, Note_on_c, 0, 58, 0
2, 20776, Control_c, 0, 64, 0
2, 20783, Note_on_c, 0, 45, 57
2, 20791, Note_on_c, 0, 45, 0
2, 20796, Control_c, 0, 64, 127
2, 20906, Note_on_c, 0, 61, 46
2, 20906, Control_c, 0, 64, 0
2, 20908, Note_on_c, 0, 65, 44
2, 20908, Note_on_c, 0, 55, 42
2, 20916, Note_on_c, 0, 65, 0
2, 20919, Note_on_c, 0, 55, 0
2, 20933, Note_on_c, 0, 61, 0
2, 20981, Note_on_c, 0, 64, 49
2, 20983, Note_on_c, 0, 60, 50
2, 20985, Note_on_c, 0, 54, 33
2, 21020, Control_c, 0, 64, 127
2, 21090, Note_on_c, 0, 67, 62
2, 21145, Note_on_c, 0, 64, 0
2, 21150, Note_on_c, 0, 60, 0
2, 21160, Note_on_c, 0, 54, 0
2, 21197, Note_on_c, 0, 67, 0
2, 21209, Note_on_c, 0, 69, 63
2, 21225, Note_on_c, 0, 74, 0
2, 21237, Control_c, 0, 64, 0
2, 21241, Note_on_c, 0, 69, 0
2, 21249, Note_on_c, 0, 43, 40
2, 21251, Note_on_c, 0, 50, 37
2, 21252, Note_on_c, 0, 70, 57
2, 21259, Note_on_c, 0, 43, 0
2, 21267, Control_c, 0, 64, 127
2, 21271, Note_on_c, 0, 50, 0
2, 21320, Note_on_c, 0, 57, 43
2, 21321, Note_on_c, 0, 58, 39
2, 21329, Control_c, 0, 64, 0
2, 21330, Note_on_c, 0, 57, 0
2, 21340, Note_on_c, 0, 58, 0
2, 21377, Control_c, 0, 64, 127
2, 21422, Control_c, 0, 64, 0
2, 21426, Note_on_c, 0, 57, 37
2, 21427, Note_on_c, 0, 62, 40
2, 21429, Note_on_c, 0, 58, 31
2, 21458, Control_c, 0, 64, 127
2, 21522, Note_on_c, 0, 70, 0
2, 21535, Note_on_c, 0, 69, 50
2, 21561, Note_on_c, 0, 69, 0
2, 21561, Note_on_c, 0, 62, 0
2, 21569, Note_on_c, 0, 58, 0
2, 21570, Note_on_c, 0, 70, 64
2, 21578, Note_on_c, 0, 57, 0
2, 21673, Note_on_c, 0, 70, 0
2, 21684, Note_on_c, 0, 76, 79
2, 21792, Note_on_c, 0, 49, 53
2, 21794, Note_on_c, 0, 59, 60
2, 21794, Note_on_c, 0, 64, 58
2, 21795, Note_on_c, 0, 71, 53
2, 21797, Control_c, 0, 64, 0
2, 21798, Note_on_c, 0, 68, 29
2, 21800, Note_on_c, 0, 49, 0
2, 21801, Note_on_c, 0, 59, 0
2, 21805, Note_on_c, 0, 68, 0
2, 21807, Note_on_c, 0, 64, 0
2, 21833, Control_c, 0, 64, 127
2, 21875, Note_on_c, 0, 71, 0
2, 21899, Control_c, 0, 64, 0
2, 21904, Note_on_c, 0, 30, 42
2, 21907, Control_c, 0, 64, 127
2, 21920, Note_on_c, 0, 30, 0
2, 21933, Note_on_c, 0, 76, 0
2, 21981, Note_on_c, 0, 75, 59
2, 21982, Note_on_c, 0, 64, 61
2, 21982, Note_on_c, 0, 70, 52
2, 21985, Note_on_c, 0, 68, 30
2, 21989, Note_on_c, 0, 64, 0
2, 21991, Note_on_c, 0, 68, 0
2, 21991, Note_on_c, 0, 70, 0
2, 21995, Note_on_c, 0, 75, 0
2, 21995, Control_c, 0, 64, 0
2, 22001, Control_c, 0, 64, 127
2, 22029, Control_c, 0, 64, 0
2, 22054, Note_on_c, 0, 73, 37
2, 22056, Note_on_c, 0, 63, 45
2, 22057, Note_on_c, 0, 68, 48
2, 22059, Note_on_c, 0, 70, 40
2, 22060, Note_on_c, 0, 58, 36
2, 22062, Control_c, 0, 64, 127
2, 22105, Note_on_c, 0, 58, 0
2, 22108, Note_on_c, 0, 73, 0
2, 22111, Note_on_c, 0, 68, 0
2, 22112, Note_on_c, 0, 70, 0
2, 22114, Note_on_c, 0, 63, 0
2, 22126, Control_c, 0, 64, 0
2, 22129, Note_on_c, 0, 72, 38
2, 22130, Note_on_c, 0, 67, 46
2, 22130, Note_on_c, 0, 62, 41
2, 22133, Note_on_c, 0, 57, 37
2, 22150, Control_c, 0, 64, 127
2, 22163, Note_on_c, 0, 72, 0
2, 22164, Note_on_c, 0, 67, 0
2, 22187, Note_on_c, 0, 62, 0
2, 22199, Note_on_c, 0, 57, 0
2, 22206, Control_c, 0, 64, 0
2, 22206, Note_on_c, 0, 53, 39
2, 22207, Note_on_c, 0, 69, 35
2, 22211, Note_on_c, 0, 64, 34
2, 22217, Note_on_c, 0, 60, 19
2, 22234, Control_c, 0, 64, 127
2, 22259, Note_on_c, 0, 64, 0
2, 22259, Note_on_c, 0, 69, 0
2, 22263, Note_on_c, 0, 53, 0
2, 22269, Note_on_c, 0, 60, 0
2, 22306, Note_on_c, 0, 60, 60
2, 22308, Note_on_c, 0, 48, 45
2, 22312, Note_on_c, 0, 57, 29
2, 22316, Control_c, 0, 64, 0
2, 22341, Note_on_c, 0, 55, 1
2, 22360, Control_c, 0, 64, 127
2, 22398, Note_on_c, 0, 48, 0
2, 22414, Note_on_c, 0, 45, 31
2, 22424, Control_c, 0, 64, 0
2, 22426, Note_on_c, 0, 45, 0
2, 22448, Note_on_c, 0, 47, 52
2, 22473, Control_c, 0, 64, 127
2, 22513, Note_on_c, 0, 47, 0
2, 22513, Note_on_c, 0, 55, 0
2, 22515, Note_on_c, 0, 57, 0
2, 22517, Note_on_c, 0, 35, 33
2, 22523, Note_on_c, 0, 60, 0
2, 22528, Note_on_c, 0, 35, 0
2, 22533, Control_c, 0, 64, 0
2, 22559, Note_on_c, 0, 46, 43
2, 22567, Control_c, 0, 64, 127
2, 22623, Control_c, 0, 64, 0
2, 22626, Note_on_c, 0, 34, 49
2, 22627, Note_on_c, 0, 46, 0
2, 22637, Note_on_c, 0, 34, 0
2, 22643, Control_c, 0, 64, 127
2, 22731, Note_on_c, 0, 79, 67
2, 22731, Note_on_c, 0, 76, 68
2, 22731, Control_c, 0, 64, 0
2, 22732, Note_on_c, 0, 72, 64
2, 22733, Note_on_c, 0, 62, 62
2, 22733, Note_on_c, 0, 56, 59
2, 22733, Note_on_c, 0, 67, 68
2, 22770, Control_c, 0, 64, 127
2, 22784, Note_on_c, 0, 76, 0
2, 22788, Note_on_c, 0, 72, 0
2, 22797, Note_on_c, 0, 79, 0
2, 22837, Note_on_c, 0, 78, 68
2, 22842, Control_c, 0, 64, 0
2, 22864, Note_on_c, 0, 78, 0
2, 22885, Note_on_c, 0, 77, 36
2, 22890, Note_on_c, 0, 62, 0
2, 22892, Note_on_c, 0, 67, 0
2, 22923, Note_on_c, 0, 77, 0
2, 22937, Note_on_c, 0, 56, 0
2, 22947, Note_on_c, 0, 76, 64
2, 22973, Note_on_c, 0, 76, 0
2, 22980, Note_on_c, 0, 55, 32
2, 22982, Note_on_c, 0, 57, 33
2, 22984, Note_on_c, 0, 64, 27
2, 22986, Note_on_c, 0, 60, 29
2, 22987, Note_on_c, 0, 74, 53
2, 23034, Note_on_c, 0, 74, 0
2, 23044, Note_on_c, 0, 76, 42
2, 23055, Note_on_c, 0, 74, 40
2, 23066, Note_on_c, 0, 76, 0
2, 23072, Note_on_c, 0, 73, 44
2, 23074, Note_on_c, 0, 74, 0
2, 23086, Note_on_c, 0, 73, 0
2, 23091, Note_on_c, 0, 74, 42
2, 23144, Note_on_c, 0, 74, 0
2, 23189, Note_on_c, 0, 74, 71
2, 23201, Control_c, 0, 64, 127
2, 23246, Note_on_c, 0, 74, 0
2, 23253, Note_on_c, 0, 73, 28
2, 23263, Note_on_c, 0, 64, 0
2, 23270, Note_on_c, 0, 73, 0
2, 23273, Control_c, 0, 64, 0
2, 23274, Note_on_c, 0, 60, 0
2, 23275, Note_on_c, 0, 55, 0
2, 23279, Note_on_c, 0, 57, 0
2, 23280, Note_on_c, 0, 74, 48
2, 23285, Control_c, 0, 64, 127
2, 23311, Note_on_c, 0, 74, 0
2, 23346, Note_on_c, 0, 86, 79
2, 23349, Note_on_c, 0, 54, 38
2, 23351, Note_on_c, 0, 60, 40
2, 23352, Control_c, 0, 64, 0
2, 23355, Note_on_c, 0, 86, 0
2, 23406, Control_c, 0, 64, 127
2, 23425, Note_on_c, 0, 60, 0
2, 23432, Note_on_c, 0, 54, 0
2, 23440, Control_c, 0, 64, 0
2, 23444, Note_on_c, 0, 50, 33
2, 23455, Note_on_c, 0, 50, 0
2, 23481, Note_on_c, 0, 71, 51
2, 23484, Note_on_c, 0, 60, 49
2, 23486, Note_on_c, 0, 64, 34
2, 23488, Note_on_c, 0, 68, 30
2, 23545, Note_on_c, 0, 54, 64
2, 23559, Note_on_c, 0, 54, 0
2, 23566, Note_on_c, 0, 64, 0
2, 23569, Note_on_c, 0, 60, 0
2, 23570, Note_on_c, 0, 68, 0
2, 23573, Note_on_c, 0, 71, 0
2, 23616, Control_c, 0, 64, 127
2, 23640, Note_on_c, 0, 44, 52
2, 23641, Note_on_c, 0, 54, 52
2, 23652, Control_c, 0, 64, 0
2, 23677, Note_on_c, 0, 58, 54
2, 23693, Note_on_c, 0, 54, 0
2, 23701, Note_on_c, 0, 58, 0
2, 23710, Note_on_c, 0, 60, 51
2, 23725, Note_on_c, 0, 58, 38
2, 23732, Note_on_c, 0, 60, 0
2, 23741, Control_c, 0, 64, 127
2, 23749, Note_on_c, 0, 58, 0
2, 23750, Note_on_c, 0, 57, 42
2, 23758, Note_on_c, 0, 44, 0
2, 23767, Note_on_c, 0, 57, 0
2, 23773, Control_c, 0, 64, 0
2, 23774, Note_on_c, 0, 53, 36
2, 23775, Note_on_c, 0, 58, 52
2, 23777, Note_on_c, 0, 43, 36
2, 23803, Control_c, 0, 64, 127
2, 23844, Note_on_c, 0, 60, 71
2, 23847, Note_on_c, 0, 58, 0
2, 23850, Note_on_c, 0, 53, 0
2, 23852, Note_on_c, 0, 50, 37
2, 23857, Note_on_c, 0, 60, 0
2, 23861, Note_on_c, 0, 43, 0
2, 23863, Note_on_c, 0, 50, 0
2, 23894, Note_on_c, 0, 71, 66
2, 23895, Note_on_c, 0, 69, 64
2, 23916, Note_on_c, 0, 71, 0
2, 23917, Note_on_c, 0, 69, 0
2, 23953, Note_on_c, 0, 72, 92
2, 23973, Control_c, 0, 64, 0
2, 23974, Note_on_c, 0, 62, 34
2, 23975, Note_on_c, 0, 57, 26
2, 23979, Note_on_c, 0, 58, 39
2, 23985, Note_on_c, 0, 72, 0
2, 24005, Note_on_c, 0, 69, 50
2, 24017, Control_c, 0, 64, 127
2, 24030, Note_on_c, 0, 58, 0
2, 24043, Note_on_c, 0, 69, 0
2, 24056, Note_on_c, 0, 65, 64
2, 24058, Note_on_c, 0, 58, 25
2, 24059, Note_on_c, 0, 62, 0
2, 24059, Control_c, 0, 64, 0
2, 24076, Note_on_c, 0, 58, 0
2, 24076, Note_on_c, 0, 65, 0
2, 24083, Note_on_c, 0, 57, 0
2, 24090, Control_c, 0, 64, 127
2, 24099, Note_on_c, 0, 61, 26
2, 24139, Note_on_c, 0, 61, 0
2, 24159, Note_on_c, 0, 72, 54
2, 24159, Note_on_c, 0, 61, 46
2, 24159, Note_on_c, 0, 56, 35
2, 24161, Note_on_c, 0, 65, 62
2, 24166, Control_c, 0, 64, 0
2, 24206, Control_c, 0, 64, 127
2, 24238, Note_on_c, 0, 65, 0
2, 24241, Note_on_c, 0, 61, 0
2, 24243, Note_on_c, 0, 72, 0
2, 24252, Note_on_c, 0, 56, 0
2, 24252, Control_c, 0, 64, 0
2, 24255, Note_on_c, 0, 70, 56
2, 24256, Note_on_c, 0, 61, 35
2, 24259, Note_on_c, 0, 65, 52
2, 24260, Note_on_c, 0, 53, 34
2, 24275, Note_on_c, 0, 53, 0
2, 24278, Control_c, 0, 64, 127
2, 24290, Note_on_c, 0, 65, 0
2, 24318, Note_on_c, 0, 61, 0
2, 24351, Note_on_c, 0, 70, 0
2, 24352, Control_c, 0, 64, 0
2, 24354, Note_on_c, 0, 61, 30
2, 24355, Note_on_c, 0, 64, 46
2, 24356, Note_on_c, 0, 46, 34
2, 24360, Note_on_c, 0, 39, 31
2, 24384, Control_c, 0, 64, 127
2, 24404, Note_on_c, 0, 39, 0
2, 24409, Note_on_c, 0, 46, 0
2, 24429, Note_on_c, 0, 64, 0
2, 24456, Note_on_c, 0, 61, 0
2, 24479, Control_c, 0, 64, 0
2, 24489, Note_on_c, 0, 63, 48
2, 24490, Note_on_c, 0, 61, 33
2, 24490, Note_on_c, 0, 68, 35
2, 24493, Note_on_c, 0, 52, 42
2, 24501, Control_c, 0, 64, 127
2, 24525, Note_on_c, 0, 61, 0
2, 24538, Note_on_c, 0, 63, 0
2, 24539, Note_on_c, 0, 68, 0
2, 24547, Control_c, 0, 64, 0
2, 24558, Note_on_c, 0, 52, 0
2, 24558, Note_on_c, 0, 69, 53
2, 24561, Note_on_c, 0, 64, 54
2, 24563, Note_on_c, 0, 53, 53
2, 24564, Note_on_c, 0, 60, 40
2, 24589, Note_on_c, 0, 60, 0
2, 24590, Note_on_c, 0, 64, 0
2, 24591, Control_c, 0, 64, 127
2, 24592, Note_on_c, 0, 69, 0
2, 24593, Note_on_c, 0, 53, 0
2, 24655, Note_on_c, 0, 57, 53
2, 24656, Note_on_c, 0, 67, 61
2, 24657, Note_on_c, 0, 72, 48
2, 24658, Note_on_c, 0, 62, 53
2, 24659, Control_c, 0, 64, 0
2, 24685, Control_c, 0, 64, 127
2, 24719, Note_on_c, 0, 67, 0
2, 24721, Note_on_c, 0, 72, 0
2, 24735, Note_on_c, 0, 62, 0
2, 24753, Note_on_c, 0, 57, 0
2, 24765, Note_on_c, 0, 53, 36
2, 24791, Note_on_c, 0, 53, 0
2, 24796, Control_c, 0, 64, 0
2, 24801, Note_on_c, 0, 60, 45
2, 24801, Note_on_c, 0, 64, 47
2, 24802, Note_on_c, 0, 46, 38
2, 24804, Note_on_c, 0, 56, 28
2, 24824, Control_c, 0, 64, 127
2, 24846, Note_on_c, 0, 56, 0
2, 24848, Note_on_c, 0, 60, 0
2, 24849, Note_on_c, 0, 46, 0
2, 24860, Note_on_c, 0, 64, 0
2, 24868, Note_on_c, 0, 56, 39
2, 24868, Note_on_c, 0, 46, 33
2, 24870, Note_on_c, 0, 65, 55
2, 24871, Note_on_c, 0, 60, 38
2, 24876, Control_c, 0, 64, 0
2, 24876, Note_on_c, 0, 62, 34
2, 24886, Note_on_c, 0, 62, 0
2, 24891, Note_on_c, 0, 60, 0
2, 24900, Control_c, 0, 64, 127
2, 24906, Note_on_c, 0, 56, 0
2, 24908, Note_on_c, 0, 60, 11
2, 24937, Note_on_c, 0, 60, 0
2, 24982, Note_on_c, 0, 46, 0
2, 24982, Note_on_c, 0, 49, 18
2, 24985, Note_on_c, 0, 65, 0
2, 24994, Note_on_c, 0, 49, 0
2, 25002, Control_c, 0, 64, 0
2, 25003, Note_on_c, 0, 62, 47
2, 25004, Note_on_c, 0, 67, 42
2, 25005, Note_on_c, 0, 52, 32
2, 25006, Note_on_c, 0, 57, 49
2, 25057, Note_on_c, 0, 67, 0
2, 25070, Control_c, 0, 64, 127
2, 25072, Note_on_c, 0, 57, 0
2, 25073, Note_on_c, 0, 62, 0
2, 25076, Note_on_c, 0, 49, 34
2, 25082, Note_on_c, 0, 52, 0
2, 25098, Control_c, 0, 64, 0
2, 25102, Note_on_c, 0, 49, 0
2, 25107, Note_on_c, 0, 66, 46
2, 25107, Note_on_c, 0, 51, 44
2, 25108, Note_on_c, 0, 56, 40
2, 25110, Note_on_c, 0, 61, 47
2, 25165, Control_c, 0, 64, 127
2, 25182, Note_on_c, 0, 66, 0
2, 25186, Note_on_c, 0, 49, 28
2, 25188, Note_on_c, 0, 56, 0
2, 25192, Note_on_c, 0, 61, 0
2, 25193, Control_c, 0, 64, 0
2, 25198, Note_on_c, 0, 51, 0
2, 25207, Note_on_c, 0, 49, 0
2, 25212, Note_on_c, 0, 50, 32
2, 25213, Note_on_c, 0, 65, 39
2, 25214, Note_on_c, 0, 60, 44
2, 25219, Note_on_c, 0, 55, 24
2, 25237, Control_c, 0, 64, 127
2, 25249, Control_c, 0, 64, 0
2, 25263, Control_c, 0, 64, 127
2, 25269, Note_on_c, 0, 55, 0
2, 25275, Note_on_c, 0, 50, 0
2, 25277, Note_on_c, 0, 60, 0
2, 25282, Note_on_c, 0, 51, 39
2, 25289, Note_on_c, 0, 51, 0
2, 25292, Note_on_c, 0, 65, 0
2, 25299, Control_c, 0, 64, 0
2, 25313, Note_on_c, 0, 54, 43
2, 25317, Note_on_c, 0, 64, 43
2, 25319, Note_on_c, 0, 44, 23
2, 25321, Note_on_c, 0, 60, 28
2, 25329, Control_c, 0, 64, 127
2, 25345, Note_on_c, 0, 60, 0
2, 25358, Note_on_c, 0, 54, 0
2, 25368, Note_on_c, 0, 64, 0
2, 25374, Note_on_c, 0, 44, 0
2, 25386, Note_on_c, 0, 53, 44
2, 25387, Note_on_c, 0, 62, 44
2, 25387, Control_c, 0, 64, 0
2, 25388, Note_on_c, 0, 58, 35
2, 25390, Note_on_c, 0, 43, 44
2, 25427, Control_c, 0, 64, 127
2, 25448, Note_on_c, 0, 62, 0
2, 25462, Note_on_c, 0, 53, 0
2, 25473, Note_on_c, 0, 58, 0
2, 25488, Note_on_c, 0, 46, 35
2, 25489, Note_on_c, 0, 43, 0
2, 25489, Note_on_c, 0, 61, 44
2, 25492, Note_on_c, 0, 58, 33
2, 25492, Note_on_c, 0, 53, 28
2, 25495, Note_on_c, 0, 49, 42
2, 25511, Note_on_c, 0, 53, 0
2, 25512, Note_on_c, 0, 46, 0
2, 25512, Control_c, 0, 64, 0
2, 25519, Note_on_c, 0, 61, 0
2, 25520, Note_on_c, 0, 58, 0
2, 25524, Note_on_c, 0, 49, 0
2, 25529, Note_on_c, 0, 62, 50
2, 25531, Note_on_c, 0, 50, 49
2, 25562, Control_c, 0, 64, 127
2, 25567, Note_on_c, 0, 62, 0
2, 25591, Note_on_c, 0, 50, 0
2, 25594, Note_on_c, 0, 53, 60
2, 25594, Note_on_c, 0, 62, 54
2, 25595, Note_on_c, 0, 58, 51
2, 25595, Note_on_c, 0, 65, 49
2, 25597, Note_on_c, 0, 55, 58
2, 25609, Note_on_c, 0, 55, 0
2, 25613, Note_on_c, 0, 58, 0
2, 25618, Note_on_c, 0, 62, 0
2, 25619, Note_on_c, 0, 53, 0
2, 25619, Note_on_c, 0, 65, 0
2, 25642, Control_c, 0, 64, 0
2, 25653, Note_on_c, 0, 57, 59
2, 25653, Note_on_c, 0, 58, 64
2, 25654, Note_on_c, 0, 69, 61
2, 25657, Note_on_c, 0, 62, 52
2, 25665, Note_on_c, 0, 65, 19
2, 25690, Control_c, 0, 64, 127
2, 25697, Note_on_c, 0, 65, 0
2, 25707, Note_on_c, 0, 58, 0
2, 25708, Note_on_c, 0, 62, 0
2, 25716, Control_c, 0, 64, 0
2, 25720, Note_on_c, 0, 69, 0
2, 25724, Note_on_c, 0, 57, 0
2, 25732, Note_on_c, 0, 65, 48
2, 25735, Note_on_c, 0, 55, 54
2, 25737, Note_on_c, 0, 62, 25
2, 25744, Note_on_c, 0, 65, 0
2, 25745, Note_on_c, 0, 62, 0
2, 25750, Control_c, 0, 64, 127
2, 25793, Note_on_c, 0, 55, 0
2, 25798, Control_c, 0, 64, 0
2, 25805, Note_on_c, 0, 72, 55
2, 25806, Note_on_c, 0, 58, 49
2, 25806, Note_on_c, 0, 68, 51
2, 25808, Note_on_c, 0, 64, 46
2, 25817, Note_on_c, 0, 64, 0
2, 25820, Note_on_c, 0, 58, 0
2, 25825, Note_on_c, 0, 68, 0
2, 25828, Note_on_c, 0, 72, 0
2, 25902, Note_on_c, 0, 48, 46
2, 25910, Note_on_c, 0, 48, 0
2, 25965, Control_c, 0, 64, 127
2, 25991, Control_c, 0, 64, 0
2, 25995, Note_on_c, 0, 61, 56
2, 25996, Note_on_c, 0, 75, 57
2, 25998, Note_on_c, 0, 68, 51
2, 25998, Note_on_c, 0, 64, 54
2, 26000, Note_on_c, 0, 72, 45
2, 26007, Note_on_c, 0, 64, 0
2, 26010, Note_on_c, 0, 61, 0
2, 26010, Note_on_c, 0, 72, 0
2, 26012, Note_on_c, 0, 75, 0
2, 26013, Note_on_c, 0, 68, 0
2, 26055, Control_c, 0, 64, 127
2, 26073, Control_c, 0, 64, 0
2, 26090, Note_on_c, 0, 73, 35
2, 26091, Note_on_c, 0, 68, 40
2, 26092, Note_on_c, 0, 64, 44
2, 26093, Note_on_c, 0, 70, 38
2, 26094, Note_on_c, 0, 58, 38
2, 26123, Control_c, 0, 64, 127
2, 26179, Note_on_c, 0, 73, 0
2, 26187, Note_on_c, 0, 58, 0
2, 26190, Note_on_c, 0, 64, 0
2, 26194, Note_on_c, 0, 68, 0
2, 26199, Note_on_c, 0, 70, 0
2, 26222, Control_c, 0, 64, 0
2, 26226, Note_on_c, 0, 57, 38
2, 26227, Note_on_c, 0, 72, 30
2, 26229, Note_on_c, 0, 62, 30
2, 26229, Note_on_c, 0, 67, 44
2, 26268, Note_on_c, 0, 72, 0
2, 26270, Control_c, 0, 64, 127
2, 26277, Note_on_c, 0, 67, 0
2, 26294, Note_on_c, 0, 72, 46
2, 26295, Note_on_c, 0, 67, 53
2, 26315, Note_on_c, 0, 72, 0
2, 26325, Note_on_c, 0, 67, 0
2, 26335, Note_on_c, 0, 72, 27
2, 26363, Note_on_c, 0, 72, 0
2, 26368, Note_on_c, 0, 57, 0
2, 26384, Note_on_c, 0, 62, 0
2, 26397, Note_on_c, 0, 72, 55
2, 26399, Note_on_c, 0, 62, 20
2, 26415, Note_on_c, 0, 62, 0
2, 26417, Note_on_c, 0, 72, 0
2, 26442, Note_on_c, 0, 67, 39
2, 26442, Control_c, 0, 64, 0
2, 26444, Note_on_c, 0, 64, 26
2, 26446, Note_on_c, 0, 60, 36
2, 26447, Note_on_c, 0, 56, 27
2, 26447, Note_on_c, 0, 46, 28
2, 26496, Control_c, 0, 64, 127
2, 26498, Note_on_c, 0, 67, 0
2, 26500, Note_on_c, 0, 60, 0
2, 26507, Note_on_c, 0, 64, 0
2, 26517, Note_on_c, 0, 67, 57
2, 26518, Note_on_c, 0, 64, 24
2, 26521, Note_on_c, 0, 60, 27
2, 26542, Note_on_c, 0, 60, 0
2, 26550, Note_on_c, 0, 64, 0
2, 26557, Note_on_c, 0, 67, 0
2, 26561, Note_on_c, 0, 56, 0
2, 26585, Note_on_c, 0, 46, 0
2, 26619, Note_on_c, 0, 52, 36
2, 26640, Note_on_c, 0, 52, 0
2, 26647, Control_c, 0, 64, 0
2, 26655, Note_on_c, 0, 74, 77
2, 26656, Note_on_c, 0, 71, 77
2, 26657, Note_on_c, 0, 67, 83
2, 26657, Note_on_c, 0, 55, 73
2, 26657, Note_on_c, 0, 45, 72
2, 26658, Note_on_c, 0, 64, 61
2, 26659, Note_on_c, 0, 62, 71
2, 26693, Note_on_c, 0, 62, 0
2, 26697, Note_on_c, 0, 64, 0
2, 26702, Note_on_c, 0, 74, 0
2, 26703, Note_on_c, 0, 67, 0
2, 26708, Note_on_c, 0, 71, 0
2, 26708, Control_c, 0, 64, 127
2, 26722, Note_on_c, 0, 74, 46
2, 26725, Note_on_c, 0, 71, 62
2, 26725, Note_on_c, 0, 67, 58
2, 26726, Note_on_c, 0, 64, 58
2, 26742, Note_on_c, 0, 45, 0
2, 26746, Note_on_c, 0, 64, 0
2, 26747, Note_on_c, 0, 67, 0
2, 26748, Note_on_c, 0, 74, 0
2, 26752, Note_on_c, 0, 71, 0
2, 26760, Note_on_c, 0, 55, 0
2, 26767, Note_on_c, 0, 74, 32
2, 26769, Note_on_c, 0, 71, 58
2, 26771, Note_on_c, 0, 67, 44
2, 26771, Note_on_c, 0, 64, 33
2, 26788, Note_on_c, 0, 64, 0
2, 26789, Note_on_c, 0, 74, 0
2, 26791, Note_on_c, 0, 67, 0
2, 26801, Note_on_c, 0, 71, 0
2, 26831, Note_on_c, 0, 74, 66
2, 26837, Note_on_c, 0, 71, 29
2, 26848, Note_on_c, 0, 71, 0
2, 26860, Note_on_c, 0, 74, 0
2, 26872, Control_c, 0, 64, 0
2, 26876, Note_on_c, 0, 54, 38
2, 26877, Note_on_c, 0, 60, 38
2, 26877, Note_on_c, 0, 64, 35
2, 26878, Note_on_c, 0, 50, 32
2, 26878, Note_on_c, 0, 68, 39
2, 26913, Control_c, 0, 64, 127
2, 26924, Note_on_c, 0, 60, 0
2, 26926, Note_on_c, 0, 68, 0
2, 26927, Note_on_c, 0, 64, 0
2, 26945, Note_on_c, 0, 68, 48
2, 26947, Note_on_c, 0, 60, 45
2, 26949, Note_on_c, 0, 64, 39
2, 26960, Note_on_c, 0, 60, 0
2, 26964, Note_on_c, 0, 50, 0
2, 26966, Note_on_c, 0, 54, 0
2, 26978, Note_on_c, 0, 64, 0
2, 27010, Note_on_c, 0, 68, 0
2, 27041, Note_on_c, 0, 50, 78
2, 27049, Control_c, 0, 64, 0
2, 27074, Note_on_c, 0, 50, 0
2, 27083, Control_c, 0, 64, 127
2, 27089, Note_on_c, 0, 43, 44
2, 27098, Note_on_c, 0, 43, 0
2, 27156, Note_on_c, 0, 58, 52
2, 27157, Note_on_c, 0, 74, 51
2, 27157, Note_on_c, 0, 62, 50
2, 27157, Note_on_c, 0, 57, 41
2, 27158, Note_on_c, 0, 86, 74
2, 27158, Control_c, 0, 64, 0
2, 27160, Note_on_c, 0, 81, 46
2, 27163, Note_on_c, 0, 53, 24
2, 27186, Control_c, 0, 64, 127
2, 27218, Note_on_c, 0, 53, 0
2, 27239, Note_on_c, 0, 57, 0
2, 27299, Control_c, 0, 64, 0
2, 27301, Note_on_c, 0, 54, 60
2, 27304, Note_on_c, 0, 58, 0
2, 27306, Note_on_c, 0, 62, 0
2, 27327, Control_c, 0, 64, 127
2, 27372, Note_on_c, 0, 58, 43
2, 27374, Note_on_c, 0, 62, 47
2, 27375, Control_c, 0, 64, 0
2, 27390, Note_on_c, 0, 54, 0
2, 27399, Control_c, 0, 64, 127
2, 27404, Note_on_c, 0, 81, 0
2, 27404, Note_on_c, 0, 86, 0
2, 27410, Note_on_c, 0, 74, 0
2, 27419, Note_on_c, 0, 58, 0
2, 27423, Note_on_c, 0, 62, 0
2, 27463, Control_c, 0, 64, 0
2, 27468, Note_on_c, 0, 63, 51
2, 27469, Note_on_c, 0, 84, 64
2, 27470, Note_on_c, 0, 79, 52
2, 27471, Note_on_c, 0, 55, 42
2, 27471, Note_on_c, 0, 72, 40
2, 27472, Note_on_c, 0, 60, 48
2, 27481, Note_on_c, 0, 60, 0
2, 27482, Note_on_c, 0, 55, 0
2, 27485, Note_on_c, 0, 63, 0
2, 27488, Note_on_c, 0, 72, 0
2, 27490, Note_on_c, 0, 79, 0
2, 27490, Note_on_c, 0, 84, 0
2, 27495, Control_c, 0, 64, 127
2, 27515, Control_c, 0, 64, 0
2, 27563, Note_on_c, 0, 45, 56
2, 27594, Note_on_c, 0, 45, 0
2, 27602, Note_on_c, 0, 51, 39
2, 27665, Note_on_c, 0, 51, 0
2, 27668, Note_on_c, 0, 49, 34
2, 27671, Note_on_c, 0, 55, 41
2, 27690, Note_on_c, 0, 49, 0
2, 27700, Note_on_c, 0, 55, 0
2, 27705, Note_on_c, 0, 50, 32
2, 27709, Note_on_c, 0, 54, 47
2, 27768, Note_on_c, 0, 38, 30
2, 27769, Note_on_c, 0, 50, 0
2, 27776, Note_on_c, 0, 54, 0
2, 27801, Note_on_c, 0, 38, 0
2, 27804, Note_on_c, 0, 44, 44
2, 27807, Note_on_c, 0, 60, 63
2, 27868, Note_on_c, 0, 60, 0
2, 27871, Note_on_c, 0, 42, 44
2, 27877, Note_on_c, 0, 57, 32
2, 27884, Note_on_c, 0, 44, 0
2, 27897, Note_on_c, 0, 57, 0
2, 27899, Note_on_c, 0, 42, 0
2, 27907, Note_on_c, 0, 58, 51
2, 27907, Note_on_c, 0, 43, 38
2, 27969, Note_on_c, 0, 55, 68
2, 27974, Note_on_c, 0, 31, 69
2, 27998, Note_on_c, 0, 31, 0
2, 28003, Note_on_c, 0, 58, 0
2, 28003, Control_c, 0, 64, 127
2, 28015, Note_on_c, 0, 55, 0
2, 28016, Note_on_c, 0, 43, 0
2, 28081, Note_on_c, 0, 55, 53
2, 28099, Note_on_c, 0, 55, 0
2, 28101, Control_c, 0, 64, 0
2, 28108, Note_on_c, 0, 69, 73
2, 28108, Note_on_c, 0, 57, 50
2, 28108, Note_on_c, 0, 58, 62
2, 28109, Note_on_c, 0, 62, 62
2, 28115, Note_on_c, 0, 65, 36
2, 28159, Control_c, 0, 64, 127
2, 28167, Note_on_c, 0, 65, 0
2, 28172, Note_on_c, 0, 69, 0
2, 28173, Note_on_c, 0, 58, 0
2, 28179, Note_on_c, 0, 57, 0
2, 28182, Note_on_c, 0, 55, 58
2, 28183, Note_on_c, 0, 67, 67
2, 28183, Note_on_c, 0, 58, 35
2, 28187, Control_c, 0, 64, 0
2, 28188, Note_on_c, 0, 65, 38
2, 28225, Control_c, 0, 64, 127
2, 28228, Note_on_c, 0, 55, 0
2, 28299, Note_on_c, 0, 58, 0
2, 28311, Note_on_c, 0, 62, 0
2, 28313, Note_on_c, 0, 67, 0
2, 28315, Note_on_c, 0, 65, 0
2, 28420, Control_c, 0, 64, 0
2, 28425, Note_on_c, 0, 74, 74
2, 28426, Note_on_c, 0, 66, 64
2, 28427, Note_on_c, 0, 62, 70
2, 28428, Note_on_c, 0, 57, 70
2, 28431, Note_on_c, 0, 70, 35
2, 28438, Note_on_c, 0, 70, 0
2, 28476, Control_c, 0, 64, 127
2, 28494, Note_on_c, 0, 47, 60
2, 28496, Control_c, 0, 64, 0
2, 28509, Note_on_c, 0, 57, 0
2, 28514, Control_c, 0, 64, 127
2, 28555, Note_on_c, 0, 66, 0
2, 28562, Note_on_c, 0, 62, 0
2, 28571, Note_on_c, 0, 74, 0
2, 28594, Note_on_c, 0, 71, 64
2, 28596, Note_on_c, 0, 62, 58
2, 28597, Note_on_c, 0, 66, 51
2, 28597, Note_on_c, 0, 56, 55
2, 28600, Control_c, 0, 64, 0
2, 28631, Note_on_c, 0, 47, 0
2, 28635, Control_c, 0, 64, 127
2, 28689, Note_on_c, 0, 62, 0
2, 28703, Note_on_c, 0, 49, 28
2, 28704, Note_on_c, 0, 51, 37
2, 28705, Note_on_c, 0, 71, 0
2, 28706, Note_on_c, 0, 66, 0
2, 28711, Note_on_c, 0, 56, 0
2, 28728, Note_on_c, 0, 49, 0
2, 28733, Control_c, 0, 64, 0
2, 28735, Note_on_c, 0, 69, 49
2, 28737, Note_on_c, 0, 60, 38
2, 28739, Note_on_c, 0, 64, 37
2, 28741, Note_on_c, 0, 51, 0
2, 28741, Note_on_c, 0, 57, 40
2, 28763, Control_c, 0, 64, 127
2, 28769, Note_on_c, 0, 60, 0
2, 28775, Note_on_c, 0, 64, 0
2, 28786, Note_on_c, 0, 69, 0
2, 28824, Note_on_c, 0, 57, 0
2, 28834, Note_on_c, 0, 74, 75
2, 28835, Note_on_c, 0, 64, 71
2, 28837, Control_c, 0, 64, 0
2, 28837, Note_on_c, 0, 58, 43
2, 28871, Control_c, 0, 64, 127
2, 28875, Note_on_c, 0, 74, 0
2, 28889, Note_on_c, 0, 64, 0
2, 28907, Control_c, 0, 64, 0
2, 28908, Note_on_c, 0, 58, 0
2, 28908, Note_on_c, 0, 62, 57
2, 28909, Note_on_c, 0, 72, 37
2, 28911, Note_on_c, 0, 67, 60
2, 28911, Note_on_c, 0, 57, 52
2, 28926, Note_on_c, 0, 72, 0
2, 28927, Note_on_c, 0, 67, 0
2, 28936, Note_on_c, 0, 62, 0
2, 28955, Control_c, 0, 64, 127
2, 29000, Control_c, 0, 64, 0
2, 29006, Note_on_c, 0, 69, 59
2, 29007, Note_on_c, 0, 53, 51
2, 29008, Note_on_c, 0, 64, 53
2, 29008, Note_on_c, 0, 60, 46
2, 29012, Note_on_c, 0, 57, 0
2, 29044, Control_c, 0, 64, 127
2, 29069, Note_on_c, 0, 53, 0
2, 29101, Note_on_c, 0, 64, 0
2, 29108, Note_on_c, 0, 60, 0
2, 29112, Note_on_c, 0, 53, 32
2, 29131, Note_on_c, 0, 69, 0
2, 29134, Note_on_c, 0, 53, 0
2, 29138, Control_c, 0, 64, 0
2, 29147, Note_on_c, 0, 62, 50
2, 29149, Note_on_c, 0, 46, 40
2, 29150, Note_on_c, 0, 60, 35
2, 29150, Note_on_c, 0, 57, 44
2, 29176, Control_c, 0, 64, 127
2, 29189, Note_on_c, 0, 60, 0
2, 29200, Note_on_c, 0, 62, 0
2, 29205, Note_on_c, 0, 46, 0
2, 29216, Note_on_c, 0, 57, 0
2, 29244, Note_on_c, 0, 79, 68
2, 29298, Note_on_c, 0, 79, 0
2, 29313, Note_on_c, 0, 67, 44
2, 29315, Note_on_c, 0, 76, 35
2, 29315, Note_on_c, 0, 62, 44
2, 29317, Note_on_c, 0, 56, 35
2, 29319, Note_on_c, 0, 72, 36
2, 29320, Control_c, 0, 64, 0
2, 29346, Control_c, 0, 64, 127
2, 29367, Note_on_c, 0, 62, 0
2, 29375, Note_on_c, 0, 56, 0
2, 29408, Note_on_c, 0, 46, 60
2, 29409, Note_on_c, 0, 67, 0
2, 29414, Note_on_c, 0, 72, 0
2, 29432, Note_on_c, 0, 76, 0
2, 29460, Note_on_c, 0, 46, 0
2, 29489, Control_c, 0, 64, 0
2, 29505, Note_on_c, 0, 45, 66
2, 29513, Control_c, 0, 64, 127
2, 29523, Note_on_c, 0, 45, 0
2, 29601, Note_on_c, 0, 64, 55
2, 29603, Control_c, 0, 64, 0
2, 29603, Note_on_c, 0, 57, 47
2, 29604, Note_on_c, 0, 86, 82
2, 29604, Note_on_c, 0, 60, 50
2, 29604, Note_on_c, 0, 79, 71
2, 29606, Note_on_c, 0, 55, 40
2, 29617, Control_c, 0, 64, 127
2, 29618, Note_on_c, 0, 55, 0
2, 29626, Note_on_c, 0, 64, 0
2, 29627, Note_on_c, 0, 60, 0
2, 29642, Note_on_c, 0, 57, 0
2, 29654, Note_on_c, 0, 79, 0
2, 29674, Note_on_c, 0, 86, 0
2, 29696, Note_on_c, 0, 83, 64
2, 29698, Control_c, 0, 64, 0
2, 29698, Note_on_c, 0, 79, 55
2, 29698, Note_on_c, 0, 74, 55
2, 29705, Note_on_c, 0, 79, 0
2, 29705, Note_on_c, 0, 51, 65
2, 29706, Note_on_c, 0, 74, 0
2, 29712, Note_on_c, 0, 39, 26
2, 29713, Note_on_c, 0, 83, 0
2, 29740, Control_c, 0, 64, 127
2, 29759, Note_on_c, 0, 39, 0
2, 29778, Note_on_c, 0, 51, 0
2, 29790, Control_c, 0, 64, 0
2, 29795, Note_on_c, 0, 38, 66
2, 29812, Note_on_c, 0, 38, 0
2, 29814, Control_c, 0, 64, 127
2, 29893, Note_on_c, 0, 89, 77
2, 29894, Note_on_c, 0, 60, 73
2, 29894, Note_on_c, 0, 65, 79
2, 29895, Note_on_c, 0, 77, 78
2, 29895, Note_on_c, 0, 82, 68
2, 29896, Note_on_c, 0, 54, 70
2, 29896, Control_c, 0, 64, 0
2, 29926, Control_c, 0, 64, 127
2, 29927, Note_on_c, 0, 65, 0
2, 29934, Note_on_c, 0, 60, 0
2, 29949, Note_on_c, 0, 54, 0
2, 29960, Note_on_c, 0, 89, 0
2, 29966, Note_on_c, 0, 82, 0
2, 29985, Note_on_c, 0, 77, 0
2, 30022, Control_c, 0, 64, 0
2, 30024, Note_on_c, 0, 54, 48
2, 30025, Note_on_c, 0, 74, 54
2, 30025, Note_on_c, 0, 86, 52
2, 30042, Control_c, 0, 64, 127
2, 30055, Note_on_c, 0, 86, 0
2, 30075, Note_on_c, 0, 74, 0
2, 30096, Note_on_c, 0, 84, 52
2, 30097, Note_on_c, 0, 72, 42
2, 30103, Control_c, 0, 64, 0
2, 30131, Control_c, 0, 64, 127
2, 30139, Note_on_c, 0, 84, 0
2, 30159, Note_on_c, 0, 72, 0
2, 30191, Control_c, 0, 64, 0
2, 30191, Note_on_c, 0, 83, 41
2, 30193, Note_on_c, 0, 44, 35
2, 30193, Note_on_c, 0, 71, 48
2, 30217, Control_c, 0, 64, 127
2, 30218, Note_on_c, 0, 83, 0
2, 30220, Note_on_c, 0, 54, 0
2, 30235, Note_on_c, 0, 71, 0
2, 30236, Note_on_c, 0, 44, 0
2, 30281, Control_c, 0, 64, 0
2, 30282, Note_on_c, 0, 82, 42
2, 30288, Note_on_c, 0, 43, 34
2, 30288, Note_on_c, 0, 70, 42
2, 30289, Note_on_c, 0, 53, 34
2, 30302, Note_on_c, 0, 43, 0
2, 30305, Note_on_c, 0, 82, 0
2, 30309, Control_c, 0, 64, 127
2, 30312, Note_on_c, 0, 70, 0
2, 30319, Note_on_c, 0, 53, 0
2, 30388, Note_on_c, 0, 65, 57
2, 30389, Note_on_c, 0, 72, 53
2, 30389, Note_on_c, 0, 62, 53
2, 30392, Note_on_c, 0, 69, 45
2, 30393, Note_on_c, 0, 58, 40
2, 30396, Control_c, 0, 64, 0
2, 30397, Note_on_c, 0, 60, 49
2, 30402, Note_on_c, 0, 69, 0
2, 30406, Note_on_c, 0, 65, 0
2, 30411, Note_on_c, 0, 72, 0
2, 30413, Note_on_c, 0, 62, 0
2, 30429, Note_on_c, 0, 72, 36
2, 30430, Note_on_c, 0, 62, 27
2, 30431, Note_on_c, 0, 65, 24
2, 30434, Note_on_c, 0, 69, 34
2, 30442, Control_c, 0, 64, 127
2, 30460, Note_on_c, 0, 62, 0
2, 30464, Note_on_c, 0, 69, 0
2, 30466, Note_on_c, 0, 65, 0
2, 30468, Note_on_c, 0, 60, 0
2, 30472, Note_on_c, 0, 58, 0
2, 30475, Note_on_c, 0, 72, 0
2, 30494, Note_on_c, 0, 72, 42
2, 30495, Note_on_c, 0, 62, 48
2, 30495, Note_on_c, 0, 65, 58
2, 30496, Note_on_c, 0, 58, 42
2, 30496, Note_on_c, 0, 69, 60
2, 30498, Note_on_c, 0, 60, 52
2, 30513, Note_on_c, 0, 62, 0
2, 30516, Note_on_c, 0, 69, 0
2, 30516, Note_on_c, 0, 60, 0
2, 30519, Note_on_c, 0, 65, 0
2, 30520, Note_on_c, 0, 72, 0
2, 30523, Note_on_c, 0, 58, 0
2, 30524, Control_c, 0, 64, 0
2, 30534, Note_on_c, 0, 62, 44
2, 30535, Note_on_c, 0, 58, 30
2, 30535, Note_on_c, 0, 65, 34
2, 30537, Note_on_c, 0, 72, 51
2, 30537, Note_on_c, 0, 69, 45
2, 30537, Note_on_c, 0, 60, 48
2, 30563, Note_on_c, 0, 62, 0
2, 30564, Control_c, 0, 64, 127
2, 30565, Note_on_c, 0, 60, 0
2, 30576, Note_on_c, 0, 69, 0
2, 30580, Note_on_c, 0, 65, 0
2, 30581, Note_on_c, 0, 58, 0
2, 30587, Note_on_c, 0, 72, 0
2, 30603, Note_on_c, 0, 72, 55
2, 30605, Note_on_c, 0, 69, 62
2, 30606, Note_on_c, 0, 65, 47
2, 30607, Note_on_c, 0, 62, 55
2, 30607, Note_on_c, 0, 58, 45
2, 30610, Control_c, 0, 64, 0
2, 30611, Note_on_c, 0, 60, 48
2, 30640, Control_c, 0, 64, 127
2, 30646, Note_on_c, 0, 60, 0
2, 30648, Note_on_c, 0, 62, 0
2, 30659, Note_on_c, 0, 58, 0
2, 30682, Note_on_c, 0, 69, 0
2, 30685, Note_on_c, 0, 72, 0
2, 30692, Note_on_c, 0, 65, 0
2, 30730, Control_c, 0, 64, 0
2, 30738, Note_on_c, 0, 48, 53
2, 30752, Control_c, 0, 64, 127
2, 30806, Note_on_c, 0, 69, 64
2, 30809, Note_on_c, 0, 61, 47
2, 30809, Note_on_c, 0, 58, 52
2, 30811, Note_on_c, 0, 57, 64
2, 30815, Note_on_c, 0, 64, 33
2, 30816, Note_on_c, 0, 58, 0
2, 30821, Control_c, 0, 64, 0
2, 30823, Note_on_c, 0, 61, 0
2, 30825, Note_on_c, 0, 64, 0
2, 30827, Note_on_c, 0, 69, 0
2, 30839, Note_on_c, 0, 57, 0
2, 30874, Note_on_c, 0, 68, 53
2, 30876, Note_on_c, 0, 56, 49
2, 30877, Note_on_c, 0, 61, 40
2, 30878, Note_on_c, 0, 58, 33
2, 30880, Note_on_c, 0, 64, 39
2, 30903, Control_c, 0, 64, 127
2, 30915, Note_on_c, 0, 61, 0
2, 30918, Note_on_c, 0, 68, 0
2, 30918, Note_on_c, 0, 64, 0
2, 30919, Note_on_c, 0, 58, 0
2, 30927, Control_c, 0, 64, 0
2, 30938, Note_on_c, 0, 56, 0
2, 30947, Note_on_c, 0, 61, 36
2, 30947, Note_on_c, 0, 58, 34
2, 30948, Note_on_c, 0, 48, 0
2, 30949, Note_on_c, 0, 64, 36
2, 30950, Note_on_c, 0, 67, 40
2, 30950, Note_on_c, 0, 55, 32
2, 30957, Control_c, 0, 64, 127
2, 31016, Note_on_c, 0, 48, 58
2, 31024, Note_on_c, 0, 55, 0
2, 31038, Note_on_c, 0, 67, 0
2, 31038, Note_on_c, 0, 48, 0
2, 31043, Note_on_c, 0, 64, 0
2, 31044, Note_on_c, 0, 58, 0
2, 31051, Note_on_c, 0, 61, 0
2, 31149, Control_c, 0, 64, 0
2, 31154, Note_on_c, 0, 41, 51
2, 31194, Control_c, 0, 64, 127
2, 31222, Control_c, 0, 64, 0
2, 31222, Note_on_c, 0, 55, 38
2, 31223, Note_on_c, 0, 64, 38
2, 31223, Note_on_c, 0, 48, 40
2, 31224, Note_on_c, 0, 57, 30
2, 31224, Note_on_c, 0, 60, 53
2, 31250, Note_on_c, 0, 48, 0
2, 31252, Note_on_c, 0, 55, 0
2, 31252, Note_on_c, 0, 64, 0
2, 31252, Note_on_c, 0, 60, 0
2, 31253, Note_on_c, 0, 57, 0
2, 31268, Control_c, 0, 64, 127
2, 31275, Note_on_c, 0, 60, 42
2, 31277, Note_on_c, 0, 64, 33
2, 31295, Note_on_c, 0, 41, 0
2, 31299, Note_on_c, 0, 60, 0
2, 31301, Note_on_c, 0, 64, 0
2, 31336, Note_on_c, 0, 60, 41
2, 31337, Note_on_c, 0, 64, 48
2, 31357, Note_on_c, 0, 60, 0
2, 31361, Note_on_c, 0, 64, 0
2, 31381, Control_c, 0, 64, 0
2, 31381, Note_on_c, 0, 46, 49
2, 31382, Note_on_c, 0, 67, 73
2, 31385, Note_on_c, 0, 64, 66
2, 31386, Note_on_c, 0, 56, 38
2, 31388, Note_on_c, 0, 60, 56
2, 31417, Control_c, 0, 64, 127
2, 31430, Note_on_c, 0, 56, 0
2, 31431, Note_on_c, 0, 64, 0
2, 31431, Note_on_c, 0, 46, 0
2, 31432, Note_on_c, 0, 67, 0
2, 31433, Note_on_c, 0, 60, 0
2, 31454, Note_on_c, 0, 67, 59
2, 31455, Note_on_c, 0, 46, 48
2, 31455, Note_on_c, 0, 56, 50
2, 31455, Control_c, 0, 64, 0
2, 31457, Note_on_c, 0, 64, 61
2, 31458, Note_on_c, 0, 60, 60
2, 31477, Control_c, 0, 64, 127
2, 31483, Note_on_c, 0, 64, 0
2, 31484, Note_on_c, 0, 67, 0
2, 31485, Note_on_c, 0, 60, 0
2, 31485, Note_on_c, 0, 56, 0
2, 31516, Note_on_c, 0, 46, 0
2, 31551, Note_on_c, 0, 59, 55
2, 31554, Note_on_c, 0, 60, 63
2, 31555, Note_on_c, 0, 55, 55
2, 31557, Note_on_c, 0, 52, 45
2, 31557, Note_on_c, 0, 45, 37
2, 31558, Control_c, 0, 64, 0
2, 31584, Note_on_c, 0, 60, 0
2, 31588, Note_on_c, 0, 52, 0
2, 31589, Note_on_c, 0, 59, 0
2, 31591, Note_on_c, 0, 55, 0
2, 31595, Note_on_c, 0, 45, 0
2, 31602, Control_c, 0, 64, 127
2, 31612, Note_on_c, 0, 45, 25
2, 31612, Note_on_c, 0, 59, 50
2, 31613, Note_on_c, 0, 60, 67
2, 31614, Note_on_c, 0, 55, 33
2, 31638, Note_on_c, 0, 55, 0
2, 31642, Note_on_c, 0, 59, 0
2, 31644, Note_on_c, 0, 60, 0
2, 31649, Note_on_c, 0, 45, 0
2, 31673, Note_on_c, 0, 45, 30
2, 31674, Note_on_c, 0, 55, 54
2, 31674, Note_on_c, 0, 60, 64
2, 31676, Note_on_c, 0, 59, 49
2, 31686, Note_on_c, 0, 59, 0
2, 31694, Note_on_c, 0, 55, 0
2, 31696, Note_on_c, 0, 60, 0
2, 31703, Note_on_c, 0, 45, 0
2, 31768, Note_on_c, 0, 66, 67
2, 31770, Note_on_c, 0, 61, 55
2, 31770, Note_on_c, 0, 57, 65
2, 31770, Note_on_c, 0, 63, 51
2, 31772, Note_on_c, 0, 54, 61
2, 31774, Control_c, 0, 64, 0
2, 31839, Control_c, 0, 64, 127
2, 31869, Note_on_c, 0, 54, 0
2, 31870, Note_on_c, 0, 44, 50
2, 31908, Note_on_c, 0, 57, 0
2, 31910, Note_on_c, 0, 66, 0
2, 31910, Note_on_c, 0, 61, 0
2, 31910, Note_on_c, 0, 54, 26
2, 31919, Note_on_c, 0, 63, 0
2, 31937, Note_on_c, 0, 54, 0
2, 31961, Note_on_c, 0, 44, 0
2, 31969, Control_c, 0, 64, 0
2, 31974, Note_on_c, 0, 62, 51
2, 31976, Note_on_c, 0, 58, 49
2, 31979, Note_on_c, 0, 53, 45
2, 31979, Note_on_c, 0, 57, 37
2, 31980, Note_on_c, 0, 43, 36
2, 31996, Note_on_c, 0, 43, 0
2, 31997, Control_c, 0, 64, 127
2, 31999, Note_on_c, 0, 57, 0
2, 32005, Note_on_c, 0, 58, 0
2, 32010, Note_on_c, 0, 62, 0
2, 32012, Note_on_c, 0, 53, 0
2, 32075, Note_on_c, 0, 72, 62
2, 32077, Note_on_c, 0, 65, 61
2, 32078, Note_on_c, 0, 62, 60
2, 32078, Note_on_c, 0, 60, 64
2, 32079, Note_on_c, 0, 69, 50
2, 32079, Control_c, 0, 64, 0
2, 32119, Control_c, 0, 64, 127
2, 32180, Note_on_c, 0, 69, 0
2, 32180, Note_on_c, 0, 65, 0
2, 32183, Note_on_c, 0, 62, 0
2, 32190, Note_on_c, 0, 72, 0
2, 32222, Note_on_c, 0, 60, 0
2, 32224, Control_c, 0, 64, 0
2, 32227, Note_on_c, 0, 70, 52
2, 32232, Note_on_c, 0, 62, 50
2, 32233, Note_on_c, 0, 58, 36
2, 32233, Note_on_c, 0, 65, 43
2, 32249, Note_on_c, 0, 65, 0
2, 32252, Control_c, 0, 64, 127
2, 32253, Note_on_c, 0, 70, 0
2, 32264, Note_on_c, 0, 62, 0
2, 32272, Note_on_c, 0, 58, 0
2, 32322, Control_c, 0, 64, 0
2, 32333, Note_on_c, 0, 57, 45
2, 32333, Note_on_c, 0, 69, 42
2, 32333, Note_on_c, 0, 58, 37
2, 32334, Note_on_c, 0, 62, 48
2, 32337, Note_on_c, 0, 65, 40
2, 32357, Note_on_c, 0, 57, 0
2, 32360, Note_on_c, 0, 62, 0
2, 32361, Note_on_c, 0, 58, 0
2, 32362, Note_on_c, 0, 65, 0
2, 32364, Note_on_c, 0, 69, 0
2, 32439, Note_on_c, 0, 58, 40
2, 32441, Note_on_c, 0, 55, 39
2, 32441, Note_on_c, 0, 67, 36
2, 32445, Note_on_c, 0, 61, 32
2, 32446, Note_on_c, 0, 64, 39
2, 32463, Note_on_c, 0, 55, 0
2, 32467, Note_on_c, 0, 67, 0
2, 32474, Note_on_c, 0, 64, 0
2, 32481, Note_on_c, 0, 61, 0
2, 32486, Note_on_c, 0, 58, 0
2, 32540, Note_on_c, 0, 61, 52
2, 32542, Note_on_c, 0, 58, 48
2, 32542, Note_on_c, 0, 65, 49
2, 32559, Control_c, 0, 64, 127
2, 32561, Note_on_c, 0, 65, 0
2, 32561, Note_on_c, 0, 58, 0
2, 32568, Note_on_c, 0, 61, 0
2, 32637, Control_c, 0, 64, 0
2, 32645, Note_on_c, 0, 64, 43
2, 32646, Note_on_c, 0, 56, 39
2, 32646, Note_on_c, 0, 61, 36
2, 32648, Note_on_c, 0, 52, 46
2, 32650, Note_on_c, 0, 49, 34
2, 32669, Control_c, 0, 64, 127
2, 32697, Note_on_c, 0, 61, 0
2, 32707, Note_on_c, 0, 56, 0
2, 32711, Note_on_c, 0, 52, 0
2, 32727, Control_c, 0, 64, 0
2, 32734, Note_on_c, 0, 64, 0
2, 32737, Note_on_c, 0, 49, 0
2, 32748, Note_on_c, 0, 61, 42
2, 32752, Note_on_c, 0, 56, 39
2, 32754, Note_on_c, 0, 46, 33
2, 32754, Note_on_c, 0, 52, 28
2, 32755, Control_c, 0, 64, 127
2, 32768, Note_on_c, 0, 52, 0
2, 32786, Note_on_c, 0, 56, 0
2, 32792, Note_on_c, 0, 61, 0
2, 32815, Note_on_c, 0, 46, 0
2, 32819, Control_c, 0, 64, 0
2, 32829, Note_on_c, 0, 57, 40
2, 32829, Note_on_c, 0, 60, 44
2, 32831, Note_on_c, 0, 48, 30
2, 32831, Note_on_c, 0, 55, 35
2, 32832, Note_on_c, 0, 41, 48
2, 32845, Control_c, 0, 64, 127
2, 32863, Note_on_c, 0, 55, 0
2, 32881, Note_on_c, 0, 57, 0
2, 32891, Note_on_c, 0, 60, 0
2, 32917, Note_on_c, 0, 41, 0
2, 32925, Note_on_c, 0, 48, 0
2, 33054, Control_c, 0, 64, 0
2, 33059, Note_on_c, 0, 74, 66
2, 33059, Note_on_c, 0, 54, 40
2, 33060, Note_on_c, 0, 46, 40
2, 33060, Note_on_c, 0, 66, 56
2, 33084, Control_c, 0, 64, 127
2, 33119, Note_on_c, 0, 66, 0
2, 33123, Note_on_c, 0, 74, 0
2, 33131, Note_on_c, 0, 54, 0
2, 33135, Note_on_c, 0, 62, 47
2, 33135, Note_on_c, 0, 55, 50
2, 33193, Note_on_c, 0, 55, 0
2, 33201, Note_on_c, 0, 62, 0
2, 33234, Note_on_c, 0, 64, 47
2, 33236, Note_on_c, 0, 46, 0
2, 33236, Note_on_c, 0, 55, 49
2, 33236, Note_on_c, 0, 60, 36
2, 33242, Control_c, 0, 64, 0
2, 33276, Control_c, 0, 64, 127
2, 33329, Note_on_c, 0, 45, 57
2, 33336, Note_on_c, 0, 55, 0
2, 33337, Control_c, 0, 64, 0
2, 33353, Control_c, 0, 64, 127
2, 33420, Note_on_c, 0, 60, 0
2, 33422, Note_on_c, 0, 64, 0
2, 33459, Note_on_c, 0, 45, 0
2, 33460, Note_on_c, 0, 54, 43
2, 33462, Note_on_c, 0, 63, 34
2, 33463, Control_c, 0, 64, 0
2, 33467, Note_on_c, 0, 59, 30
2, 33491, Control_c, 0, 64, 127
2, 33533, Note_on_c, 0, 44, 52
2, 33534, Note_on_c, 0, 59, 0
2, 33535, Note_on_c, 0, 65, 39
2, 33537, Note_on_c, 0, 63, 0
2, 33539, Control_c, 0, 64, 0
2, 33543, Note_on_c, 0, 65, 0
2, 33563, Control_c, 0, 64, 127
2, 33618, Note_on_c, 0, 54, 0
2, 33630, Note_on_c, 0, 44, 0
2, 33630, Note_on_c, 0, 58, 42
2, 33630, Note_on_c, 0, 57, 46
2, 33631, Note_on_c, 0, 53, 48
2, 33636, Note_on_c, 0, 43, 37
2, 33642, Control_c, 0, 64, 0
2, 33684, Control_c, 0, 64, 127
2, 33715, Note_on_c, 0, 58, 0
2, 33719, Note_on_c, 0, 57, 0
2, 33731, Note_on_c, 0, 50, 45
2, 33735, Note_on_c, 0, 53, 0
2, 33746, Control_c, 0, 64, 0
2, 33764, Note_on_c, 0, 50, 0
2, 33766, Note_on_c, 0, 62, 59
2, 33768, Note_on_c, 0, 43, 0
2, 33771, Note_on_c, 0, 53, 43
2, 33774, Control_c, 0, 64, 127
2, 33778, Note_on_c, 0, 62, 0
2, 33792, Note_on_c, 0, 53, 0
2, 33834, Note_on_c, 0, 57, 54
2, 33835, Note_on_c, 0, 58, 57
2, 33836, Note_on_c, 0, 62, 61
2, 33837, Note_on_c, 0, 65, 55
2, 33856, Control_c, 0, 64, 0
2, 33859, Note_on_c, 0, 58, 0
2, 33862, Note_on_c, 0, 62, 0
2, 33865, Note_on_c, 0, 65, 0
2, 33867, Note_on_c, 0, 57, 0
2, 33883, Note_on_c, 0, 55, 46
2, 33892, Control_c, 0, 64, 127
2, 33943, Note_on_c, 0, 55, 0
2, 33943, Note_on_c, 0, 58, 58
2, 33944, Note_on_c, 0, 62, 61
2, 33945, Control_c, 0, 64, 0
2, 33946, Note_on_c, 0, 57, 48
2, 33947, Note_on_c, 0, 65, 48
2, 33974, Note_on_c, 0, 57, 0
2, 33977, Control_c, 0, 64, 127
2, 33984, Note_on_c, 0, 65, 0
2, 33986, Note_on_c, 0, 62, 0
2, 33986, Note_on_c, 0, 58, 0
2, 34037, Control_c, 0, 64, 0
2, 34039, Note_on_c, 0, 63, 57
2, 34043, Note_on_c, 0, 55, 55
2, 34043, Note_on_c, 0, 60, 53
2, 34044, Note_on_c, 0, 45, 46
2, 34056, Note_on_c, 0, 55, 0
2, 34061, Control_c, 0, 64, 127
2, 34068, Note_on_c, 0, 45, 0
2, 34070, Note_on_c, 0, 60, 0
2, 34076, Note_on_c, 0, 63, 0
2, 34145, Note_on_c, 0, 67, 76
2, 34145, Note_on_c, 0, 63, 58
2, 34157, Control_c, 0, 64, 0
2, 34160, Note_on_c, 0, 63, 0
2, 34168, Note_on_c, 0, 67, 0
2, 34175, Control_c, 0, 64, 127
2, 34192, Note_on_c, 0, 72, 64
2, 34213, Note_on_c, 0, 72, 0
2, 34246, Note_on_c, 0, 77, 80
2, 34265, Control_c, 0, 64, 0
2, 34273, Note_on_c, 0, 60, 42
2, 34274, Note_on_c, 0, 54, 30
2, 34279, Note_on_c, 0, 77, 0
2, 34279, Note_on_c, 0, 50, 24
2, 34293, Control_c, 0, 64, 127
2, 34303, Note_on_c, 0, 50, 0
2, 34305, Note_on_c, 0, 75, 46
2, 34309, Note_on_c, 0, 54, 0
2, 34315, Note_on_c, 0, 60, 0
2, 34340, Note_on_c, 0, 75, 0
2, 34356, Note_on_c, 0, 74, 75
2, 34358, Note_on_c, 0, 54, 30
2, 34358, Note_on_c, 0, 65, 31
2, 34360, Note_on_c, 0, 60, 31
2, 34366, Control_c, 0, 64, 0
2, 34384, Note_on_c, 0, 74, 0
2, 34394, Control_c, 0, 64, 127
2, 34401, Note_on_c, 0, 72, 42
2, 34409, Note_on_c, 0, 65, 0
2, 34421, Note_on_c, 0, 60, 0
2, 34454, Note_on_c, 0, 72, 0
2, 34461, Note_on_c, 0, 69, 42
2, 34468, Note_on_c, 0, 54, 0
2, 34486, Control_c, 0, 64, 0
2, 34487, Note_on_c, 0, 69, 0
2, 34495, Note_on_c, 0, 62, 46
2, 34498, Note_on_c, 0, 58, 35
2, 34501, Note_on_c, 0, 70, 62
2, 34505, Note_on_c, 0, 53, 17
2, 34506, Note_on_c, 0, 62, 0
2, 34515, Note_on_c, 0, 58, 0
2, 34516, Control_c, 0, 64, 127
2, 34521, Note_on_c, 0, 53, 0
2, 34553, Note_on_c, 0, 70, 0
2, 34586, Control_c, 0, 64, 0
2, 34596, Note_on_c, 0, 69, 78
2, 34598, Note_on_c, 0, 50, 41
2, 34599, Note_on_c, 0, 43, 50
2, 34614, Control_c, 0, 64, 127
2, 34659, Note_on_c, 0, 69, 0
2, 34664, Note_on_c, 0, 66, 38
2, 34673, Note_on_c, 0, 66, 0
2, 34681, Control_c, 0, 64, 0
2, 34699, Note_on_c, 0, 67, 60
2, 34703, Note_on_c, 0, 55, 29
2, 34705, Control_c, 0, 64, 127
2, 34711, Note_on_c, 0, 43, 0
2, 34767, Note_on_c, 0, 62, 64
2, 34768, Note_on_c, 0, 43, 39
2, 34775, Control_c, 0, 64, 0
2, 34801, Control_c, 0, 64, 127
2, 34823, Note_on_c, 0, 55, 0
2, 34824, Note_on_c, 0, 50, 0
2, 34832, Note_on_c, 0, 43, 0
2, 34896, Note_on_c, 0, 62, 0
2, 34897, Note_on_c, 0, 67, 0
2, 34903, Note_on_c, 0, 49, 59
2, 34907, Control_c, 0, 64, 0
2, 34923, Control_c, 0, 64, 127
2, 34971, Note_on_c, 0, 59, 49
2, 34985, Note_on_c, 0, 59, 0
2, 34985, Control_c, 0, 64, 0
2, 35006, Note_on_c, 0, 49, 0
2, 35011, Control_c, 0, 64, 127
2, 35012, Note_on_c, 0, 64, 41
2, 35051, Note_on_c, 0, 64, 0
2, 35065, Note_on_c, 0, 30, 45
2, 35066, Note_on_c, 0, 42, 36
2, 35068, Note_on_c, 0, 66, 34
2, 35074, Control_c, 0, 64, 0
2, 35085, Note_on_c, 0, 30, 0
2, 35087, Note_on_c, 0, 42, 0
2, 35092, Note_on_c, 0, 66, 0
2, 35106, Control_c, 0, 64, 127
2, 35165, Note_on_c, 0, 70, 46
2, 35172, Note_on_c, 0, 63, 52
2, 35172, Note_on_c, 0, 56, 46
2, 35183, Note_on_c, 0, 63, 0
2, 35189, Note_on_c, 0, 70, 0
2, 35198, Note_on_c, 0, 56, 0
2, 35209, Note_on_c, 0, 71, 28
2, 35247, Note_on_c, 0, 71, 0
2, 35262, Note_on_c, 0, 73, 40
2, 35265, Note_on_c, 0, 61, 50
2, 35269, Note_on_c, 0, 58, 36
2, 35290, Note_on_c, 0, 58, 0
2, 35290, Note_on_c, 0, 73, 0
2, 35293, Note_on_c, 0, 61, 0
2, 35302, Note_on_c, 0, 64, 59
2, 35305, Note_on_c, 0, 74, 66
2, 35306, Note_on_c, 0, 69, 64
2, 35306, Control_c, 0, 64, 0
2, 35307, Note_on_c, 0, 79, 60
2, 35332, Control_c, 0, 64, 127
2, 35346, Note_on_c, 0, 79, 0
2, 35352, Note_on_c, 0, 74, 0
2, 35353, Note_on_c, 0, 69, 0
2, 35363, Note_on_c, 0, 64, 0
2, 35368, Note_on_c, 0, 63, 64
2, 35385, Control_c, 0, 64, 0
2, 35398, Note_on_c, 0, 63, 0
2, 35407, Note_on_c, 0, 62, 64
2, 35435, Control_c, 0, 64, 127
2, 35455, Note_on_c, 0, 62, 0
2, 35463, Note_on_c, 0, 61, 50
2, 35487, Control_c, 0, 64, 0
2, 35493, Note_on_c, 0, 61, 0
2, 35505, Note_on_c, 0, 60, 39
2, 35506, Note_on_c, 0, 76, 38
2, 35507, Note_on_c, 0, 69, 50
2, 35507, Note_on_c, 0, 64, 45
2, 35508, Note_on_c, 0, 72, 35
2, 35509, Control_c, 0, 64, 127
2, 35526, Note_on_c, 0, 72, 0
2, 35526, Note_on_c, 0, 69, 0
2, 35531, Note_on_c, 0, 76, 0
2, 35539, Note_on_c, 0, 64, 0
2, 35552, Note_on_c, 0, 60, 0
2, 35574, Note_on_c, 0, 72, 31
2, 35574, Note_on_c, 0, 69, 42
2, 35574, Note_on_c, 0, 57, 55
2, 35575, Note_on_c, 0, 65, 43
2, 35577, Control_c, 0, 64, 0
2, 35580, Note_on_c, 0, 62, 24
2, 35583, Note_on_c, 0, 60, 19
2, 35593, Note_on_c, 0, 60, 0
2, 35594, Note_on_c, 0, 65, 0
2, 35596, Note_on_c, 0, 69, 0
2, 35596, Note_on_c, 0, 62, 0
2, 35598, Note_on_c, 0, 57, 0
2, 35604, Note_on_c, 0, 72, 0
2, 35604, Control_c, 0, 64, 127
2, 35634, Note_on_c, 0, 54, 30
2, 35642, Note_on_c, 0, 54, 0
2, 35666, Note_on_c, 0, 67, 55
2, 35667, Note_on_c, 0, 46, 45
2, 35668, Note_on_c, 0, 64, 44
2, 35669, Note_on_c, 0, 60, 45
2, 35670, Control_c, 0, 64, 0
2, 35708, Control_c, 0, 64, 127
2, 35720, Note_on_c, 0, 64, 0
2, 35735, Note_on_c, 0, 60, 0
2, 35751, Note_on_c, 0, 67, 0
2, 35762, Note_on_c, 0, 56, 46
2, 35762, Note_on_c, 0, 66, 45
2, 35762, Note_on_c, 0, 63, 44
2, 35764, Note_on_c, 0, 60, 38
2, 35768, Control_c, 0, 64, 0
2, 35792, Control_c, 0, 64, 127
2, 35795, Note_on_c, 0, 56, 0
2, 35825, Note_on_c, 0, 60, 0
2, 35826, Note_on_c, 0, 63, 0
2, 35829, Note_on_c, 0, 66, 0
2, 35852, Control_c, 0, 64, 0
2, 35859, Note_on_c, 0, 55, 49
2, 35860, Note_on_c, 0, 65, 46
2, 35861, Note_on_c, 0, 60, 35
2, 35861, Note_on_c, 0, 62, 46
2, 35882, Note_on_c, 0, 46, 0
2, 35899, Control_c, 0, 64, 127
2, 35918, Note_on_c, 0, 60, 0
2, 35934, Note_on_c, 0, 62, 0
2, 35943, Note_on_c, 0, 65, 0
2, 35946, Note_on_c, 0, 46, 52
2, 35969, Note_on_c, 0, 55, 0
2, 35979, Note_on_c, 0, 46, 0
2, 36025, Control_c, 0, 64, 0
2, 36034, Note_on_c, 0, 86, 89
2, 36035, Note_on_c, 0, 79, 74
2, 36035, Note_on_c, 0, 74, 80
2, 36036, Note_on_c, 0, 45, 66
2, 36036, Note_on_c, 0, 83, 67
2, 36039, Note_on_c, 0, 55, 64
2, 36042, Note_on_c, 0, 45, 0
2, 36054, Note_on_c, 0, 55, 0
2, 36055, Control_c, 0, 64, 127
2, 36086, Note_on_c, 0, 86, 0
2, 36088, Note_on_c, 0, 83, 0
2, 36096, Note_on_c, 0, 79, 0
2, 36097, Note_on_c, 0, 74, 0
2, 36129, Note_on_c, 0, 85, 77
2, 36130, Note_on_c, 0, 64, 40
2, 36130, Note_on_c, 0, 73, 51
2, 36131, Note_on_c, 0, 79, 64
2, 36131, Note_on_c, 0, 55, 44
2, 36132, Note_on_c, 0, 60, 43
2, 36134, Note_on_c, 0, 59, 38
2, 36146, Note_on_c, 0, 59, 0
2, 36151, Note_on_c, 0, 64, 0
2, 36152, Note_on_c, 0, 55, 0
2, 36154, Note_on_c, 0, 60, 0
2, 36169, Note_on_c, 0, 79, 0
2, 36179, Note_on_c, 0, 85, 0
2, 36185, Note_on_c, 0, 73, 0
2, 36215, Control_c, 0, 64, 0
2, 36220, Note_on_c, 0, 79, 64
2, 36221, Note_on_c, 0, 64, 52
2, 36221, Note_on_c, 0, 84, 62
2, 36222, Note_on_c, 0, 72, 59
2, 36224, Note_on_c, 0, 60, 51
2, 36228, Note_on_c, 0, 64, 0
2, 36231, Note_on_c, 0, 72, 0
2, 36233, Note_on_c, 0, 60, 0
2, 36239, Control_c, 0, 64, 127
2, 36243, Note_on_c, 0, 79, 0
2, 36244, Note_on_c, 0, 84, 0
2, 36308, Control_c, 0, 64, 0
2, 36309, Note_on_c, 0, 95, 78
2, 36309, Note_on_c, 0, 50, 75
2, 36310, Note_on_c, 0, 88, 74
2, 36310, Note_on_c, 0, 38, 78
2, 36311, Note_on_c, 0, 83, 67
2, 36311, Note_on_c, 0, 91, 69
2, 36324, Note_on_c, 0, 50, 0
2, 36326, Note_on_c, 0, 38, 0
2, 36338, Control_c, 0, 64, 127
2, 36349, Note_on_c, 0, 95, 0
2, 36353, Note_on_c, 0, 91, 0
2, 36357, Note_on_c, 0, 88, 0
2, 36365, Note_on_c, 0, 83, 0
2, 36401, Note_on_c, 0, 94, 71
2, 36402, Note_on_c, 0, 64, 49
2, 36403, Note_on_c, 0, 87, 63
2, 36404, Note_on_c, 0, 82, 47
2, 36406, Note_on_c, 0, 60, 56
2, 36408, Control_c, 0, 64, 0
2, 36409, Note_on_c, 0, 54, 30
2, 36410, Note_on_c, 0, 64, 0
2, 36415, Note_on_c, 0, 60, 0
2, 36418, Control_c, 0, 64, 127
2, 36421, Note_on_c, 0, 54, 0
2, 36444, Note_on_c, 0, 87, 0
2, 36450, Note_on_c, 0, 82, 0
2, 36456, Note_on_c, 0, 94, 0
2, 36492, Control_c, 0, 64, 0
2, 36495, Note_on_c, 0, 93, 69
2, 36496, Note_on_c, 0, 86, 74
2, 36496, Note_on_c, 0, 81, 64
2, 36500, Note_on_c, 0, 54, 38
2, 36514, Note_on_c, 0, 81, 0
2, 36516, Note_on_c, 0, 86, 0
2, 36518, Control_c, 0, 64, 127
2, 36523, Note_on_c, 0, 93, 0
2, 36563, Note_on_c, 0, 54, 0
2, 36585, Note_on_c, 0, 54, 43
2, 36586, Note_on_c, 0, 100, 89
2, 36586, Control_c, 0, 64, 0
2, 36587, Note_on_c, 0, 50, 59
2, 36587, Note_on_c, 0, 88, 79
2, 36588, Note_on_c, 0, 96, 51
2, 36589, Note_on_c, 0, 95, 75
2, 36594, Note_on_c, 0, 89, 26
2, 36601, Note_on_c, 0, 89, 0
2, 36605, Note_on_c, 0, 96, 0
2, 36610, Control_c, 0, 64, 127
2, 36619, Note_on_c, 0, 100, 0
2, 36623, Note_on_c, 0, 95, 0
2, 36638, Note_on_c, 0, 54, 0
2, 36638, Note_on_c, 0, 88, 0
2, 36664, Note_on_c, 0, 50, 0
2, 36676, Note_on_c, 0, 54, 50
2, 36678, Note_on_c, 0, 44, 55
2, 36678, Note_on_c, 0, 94, 68
2, 36679, Note_on_c, 0, 99, 63
2, 36680, Note_on_c, 0, 87, 60
2, 36683, Control_c, 0, 64, 0
2, 36699, Control_c, 0, 64, 127
2, 36704, Note_on_c, 0, 99, 0
2, 36705, Note_on_c, 0, 87, 0
2, 36706, Note_on_c, 0, 94, 0
2, 36706, Note_on_c, 0, 54, 0
2, 36719, Note_on_c, 0, 44, 0
2, 36763, Control_c, 0, 64, 0
2, 36766, Note_on_c, 0, 98, 66
2, 36767, Note_on_c, 0, 43, 50
2, 36769, Note_on_c, 0, 86, 55
2, 36769, Note_on_c, 0, 93, 63
2, 36771, Note_on_c, 0, 53, 42
2, 36776, Note_on_c, 0, 43, 0
2, 36791, Control_c, 0, 64, 127
2, 36793, Note_on_c, 0, 53, 0
2, 36798, Note_on_c, 0, 93, 0
2, 36806, Note_on_c, 0, 98, 0
2, 36820, Note_on_c, 0, 86, 0
2, 36862, Note_on_c, 0, 96, 66
2, 36862, Note_on_c, 0, 62, 48
2, 36863, Note_on_c, 0, 58, 44
2, 36863, Note_on_c, 0, 89, 54
2, 36865, Control_c, 0, 64, 0
2, 36865, Note_on_c, 0, 84, 49
2, 36866, Note_on_c, 0, 57, 45
2, 36866, Note_on_c, 0, 93, 48
2, 36887, Control_c, 0, 64, 127
2, 36902, Note_on_c, 0, 96, 0
2, 36903, Note_on_c, 0, 93, 0
2, 36909, Note_on_c, 0, 89, 0
2, 36924, Note_on_c, 0, 84, 0
2, 36945, Note_on_c, 0, 62, 0
2, 36986, Note_on_c, 0, 57, 0
2, 36986, Control_c, 0, 64, 0
2, 36994, Note_on_c, 0, 62, 45
2, 36996, Note_on_c, 0, 93, 57
2, 36998, Note_on_c, 0, 81, 47
2, 36998, Note_on_c, 0, 86, 58
2, 36998, Note_on_c, 0, 89, 43
2, 37018, Control_c, 0, 64, 127
2, 37021, Note_on_c, 0, 93, 0
2, 37030, Note_on_c, 0, 86, 0
2, 37030, Note_on_c, 0, 89, 0
2, 37044, Note_on_c, 0, 81, 0
2, 37069, Note_on_c, 0, 62, 0
2, 37070, Note_on_c, 0, 55, 29
2, 37078, Note_on_c, 0, 58, 0
2, 37082, Note_on_c, 0, 55, 0
2, 37159, Note_on_c, 0, 72, 68
2, 37159, Note_on_c, 0, 61, 62
2, 37161, Note_on_c, 0, 65, 66
2, 37166, Note_on_c, 0, 60, 66
2, 37170, Control_c, 0, 64, 0
2, 37200, Control_c, 0, 64, 127
2, 37261, Note_on_c, 0, 65, 0
2, 37264, Note_on_c, 0, 61, 0
2, 37265, Note_on_c, 0, 72, 0
2, 37273, Note_on_c, 0, 60, 0
2, 37286, Note_on_c, 0, 61, 43
2, 37286, Control_c, 0, 64, 0
2, 37287, Note_on_c, 0, 70, 56
2, 37288, Note_on_c, 0, 58, 42
2, 37294, Note_on_c, 0, 65, 34
2, 37300, Control_c, 0, 64, 127
2, 37332, Note_on_c, 0, 65, 0
2, 37340, Note_on_c, 0, 61, 0
2, 37367, Note_on_c, 0, 70, 0
2, 37370, Note_on_c, 0, 58, 0
2, 37375, Control_c, 0, 64, 0
2, 37387, Note_on_c, 0, 61, 43
2, 37388, Note_on_c, 0, 57, 37
2, 37389, Note_on_c, 0, 65, 47
2, 37393, Note_on_c, 0, 69, 33
2, 37403, Control_c, 0, 64, 127
2, 37430, Note_on_c, 0, 69, 0
2, 37430, Note_on_c, 0, 61, 0
2, 37439, Note_on_c, 0, 65, 0
2, 37441, Note_on_c, 0, 57, 0
2, 37452, Note_on_c, 0, 58, 37
2, 37455, Note_on_c, 0, 70, 46
2, 37456, Note_on_c, 0, 61, 53
2, 37461, Note_on_c, 0, 58, 0
2, 37464, Note_on_c, 0, 65, 24
2, 37472, Note_on_c, 0, 65, 0
2, 37476, Note_on_c, 0, 61, 0
2, 37476, Note_on_c, 0, 70, 0
2, 37535, Control_c, 0, 64, 0
2, 37539, Note_on_c, 0, 53, 43
2, 37541, Note_on_c, 0, 60, 34
2, 37542, Note_on_c, 0, 64, 38
2, 37542, Note_on_c, 0, 69, 41
2, 37583, Control_c, 0, 64, 127
2, 37629, Note_on_c, 0, 41, 46
2, 37641, Note_on_c, 0, 41, 0
2, 37658, Note_on_c, 0, 53, 0
2, 37693, Note_on_c, 0, 64, 0
2, 37731, Note_on_c, 0, 60, 0
2, 37759, Note_on_c, 0, 46, 45
2, 37762, Control_c, 0, 64, 0
2, 37786, Control_c, 0, 64, 127
2, 37787, Note_on_c, 0, 69, 0
2, 37826, Note_on_c, 0, 60, 55
2, 37826, Note_on_c, 0, 64, 48
2, 37827, Note_on_c, 0, 56, 37
2, 37828, Control_c, 0, 64, 0
2, 37854, Control_c, 0, 64, 127
2, 37877, Note_on_c, 0, 60, 0
2, 37884, Note_on_c, 0, 64, 0
2, 37886, Note_on_c, 0, 60, 24
2, 37888, Note_on_c, 0, 65, 64
2, 37907, Note_on_c, 0, 60, 0
2, 37909, Note_on_c, 0, 56, 0
2, 37937, Note_on_c, 0, 65, 0
2, 37945, Note_on_c, 0, 46, 0
2, 37962, Control_c, 0, 64, 0
2, 37962, Note_on_c, 0, 64, 57
2, 37963, Note_on_c, 0, 67, 60
2, 37965, Note_on_c, 0, 45, 39
2, 37966, Note_on_c, 0, 60, 49
2, 37968, Note_on_c, 0, 55, 48
2, 37994, Control_c, 0, 64, 127
2, 38052, Note_on_c, 0, 64, 0
2, 38054, Note_on_c, 0, 60, 0
2, 38057, Note_on_c, 0, 55, 0
2, 38066, Note_on_c, 0, 67, 0
2, 38116, Note_on_c, 0, 66, 65
2, 38117, Note_on_c, 0, 63, 62
2, 38118, Note_on_c, 0, 55, 51
2, 38120, Note_on_c, 0, 59, 56
2, 38131, Note_on_c, 0, 55, 0
2, 38141, Control_c, 0, 64, 0
2, 38146, Note_on_c, 0, 59, 0
2, 38154, Note_on_c, 0, 63, 0
2, 38157, Note_on_c, 0, 66, 0
2, 38161, Note_on_c, 0, 55, 31
2, 38168, Note_on_c, 0, 65, 46
2, 38177, Note_on_c, 0, 62, 28
2, 38179, Note_on_c, 0, 55, 0
2, 38179, Control_c, 0, 64, 127
2, 38184, Note_on_c, 0, 45, 0
2, 38193, Note_on_c, 0, 65, 0
2, 38197, Note_on_c, 0, 62, 0
2, 38228, Note_on_c, 0, 64, 32
2, 38229, Control_c, 0, 64, 0
2, 38230, Note_on_c, 0, 44, 46
2, 38231, Note_on_c, 0, 54, 35
2, 38238, Note_on_c, 0, 64, 0
2, 38249, Note_on_c, 0, 54, 0
2, 38257, Control_c, 0, 64, 127
2, 38260, Note_on_c, 0, 44, 0
2, 38307, Control_c, 0, 64, 0
2, 38312, Note_on_c, 0, 53, 46
2, 38313, Note_on_c, 0, 62, 53
2, 38316, Note_on_c, 0, 58, 48
2, 38317, Note_on_c, 0, 43, 32
2, 38318, Note_on_c, 0, 55, 33
2, 38347, Control_c, 0, 64, 127
2, 38354, Note_on_c, 0, 55, 0
2, 38372, Note_on_c, 0, 53, 0
2, 38389, Note_on_c, 0, 58, 0
2, 38392, Note_on_c, 0, 62, 0
2, 38407, Note_on_c, 0, 49, 40
2, 38410, Note_on_c, 0, 61, 45
2, 38416, Note_on_c, 0, 53, 24
2, 38419, Note_on_c, 0, 58, 18
2, 38431, Note_on_c, 0, 53, 0
2, 38432, Control_c, 0, 64, 0
2, 38437, Note_on_c, 0, 49, 0
2, 38438, Note_on_c, 0, 61, 0
2, 38440, Note_on_c, 0, 58, 0
2, 38449, Note_on_c, 0, 62, 49
2, 38450, Note_on_c, 0, 50, 48
2, 38459, Note_on_c, 0, 62, 0
2, 38483, Note_on_c, 0, 43, 0
2, 38489, Note_on_c, 0, 50, 0
2, 38506, Control_c, 0, 64, 127
2, 38507, Note_on_c, 0, 53, 57
2, 38512, Note_on_c, 0, 65, 51
2, 38524, Note_on_c, 0, 53, 0
2, 38536, Note_on_c, 0, 65, 0
2, 38540, Control_c, 0, 64, 0
2, 38552, Note_on_c, 0, 57, 58
2, 38556, Note_on_c, 0, 69, 55
2, 38556, Note_on_c, 0, 58, 38
2, 38558, Note_on_c, 0, 62, 38
2, 38566, Note_on_c, 0, 58, 0
2, 38574, Note_on_c, 0, 57, 0
2, 38575, Note_on_c, 0, 69, 0
2, 38582, Note_on_c, 0, 62, 0
2, 38611, Note_on_c, 0, 69, 69
2, 38612, Note_on_c, 0, 57, 57
2, 38614, Note_on_c, 0, 58, 43
2, 38616, Note_on_c, 0, 62, 50
2, 38638, Note_on_c, 0, 58, 0
2, 38638, Note_on_c, 0, 69, 0
2, 38639, Note_on_c, 0, 57, 0
2, 38642, Note_on_c, 0, 62, 0
2, 38652, Note_on_c, 0, 53, 30
2, 38653, Note_on_c, 0, 65, 43
2, 38666, Note_on_c, 0, 65, 0
2, 38670, Control_c, 0, 64, 127
2, 38681, Note_on_c, 0, 53, 0
2, 38710, Note_on_c, 0, 72, 54
2, 38711, Note_on_c, 0, 62, 62
2, 38712, Control_c, 0, 64, 0
2, 38713, Note_on_c, 0, 60, 53
2, 38713, Note_on_c, 0, 65, 57
2, 38718, Note_on_c, 0, 69, 30
2, 38722, Note_on_c, 0, 65, 0
2, 38724, Note_on_c, 0, 60, 0
2, 38726, Note_on_c, 0, 69, 0
2, 38726, Note_on_c, 0, 62, 0
2, 38730, Note_on_c, 0, 72, 0
2, 38755, Control_c, 0, 64, 127
2, 38800, Note_on_c, 0, 72, 65
2, 38803, Note_on_c, 0, 62, 74
2, 38804, Note_on_c, 0, 60, 34
2, 38812, Note_on_c, 0, 60, 0
2, 38818, Note_on_c, 0, 72, 0
2, 38825, Note_on_c, 0, 62, 0
2, 38825, Control_c, 0, 64, 0
2, 38855, Note_on_c, 0, 48, 48
2, 38883, Note_on_c, 0, 48, 0
2, 38916, Note_on_c, 0, 48, 62
2, 38933, Note_on_c, 0, 48, 0
2, 38969, Note_on_c, 0, 61, 64
2, 38969, Note_on_c, 0, 58, 69
2, 38974, Note_on_c, 0, 68, 13
2, 38975, Note_on_c, 0, 64, 38
2, 38985, Note_on_c, 0, 58, 0
2, 38986, Note_on_c, 0, 64, 0
2, 38988, Note_on_c, 0, 68, 0
2, 38988, Note_on_c, 0, 61, 0
2, 39025, Note_on_c, 0, 69, 58
2, 39025, Note_on_c, 0, 61, 60
2, 39027, Note_on_c, 0, 58, 56
2, 39030, Note_on_c, 0, 64, 45
2, 39045, Note_on_c, 0, 69, 0
2, 39046, Note_on_c, 0, 58, 0
2, 39048, Note_on_c, 0, 64, 0
2, 39050, Note_on_c, 0, 61, 0
2, 39068, Note_on_c, 0, 48, 40
2, 39094, Note_on_c, 0, 48, 0
2, 39127, Note_on_c, 0, 48, 62
2, 39146, Note_on_c, 0, 48, 0
2, 39168, Note_on_c, 0, 57, 49
2, 39169, Note_on_c, 0, 65, 51
2, 39170, Note_on_c, 0, 62, 45
2, 39171, Note_on_c, 0, 60, 47
2, 39180, Note_on_c, 0, 60, 0
2, 39180, Note_on_c, 0, 57, 0
2, 39189, Note_on_c, 0, 62, 0
2, 39191, Note_on_c, 0, 65, 0
2, 39229, Note_on_c, 0, 65, 59
2, 39231, Note_on_c, 0, 57, 53
2, 39232, Note_on_c, 0, 60, 53
2, 39234, Note_on_c, 0, 62, 41
2, 39239, Note_on_c, 0, 57, 0
2, 39240, Note_on_c, 0, 60, 0
2, 39242, Note_on_c, 0, 62, 0
2, 39246, Note_on_c, 0, 65, 0
2, 39265, Note_on_c, 0, 48, 55
2, 39295, Note_on_c, 0, 48, 0
2, 39304, Control_c, 0, 64, 127
2, 39327, Note_on_c, 0, 48, 44
2, 39336, Note_on_c, 0, 48, 0
2, 39352, Control_c, 0, 64, 0
2, 39365, Note_on_c, 0, 64, 53
2, 39368, Note_on_c, 0, 60, 46
2, 39369, Note_on_c, 0, 55, 33
2, 39372, Note_on_c, 0, 46, 30
2, 39391, Note_on_c, 0, 55, 0
2, 39391, Note_on_c, 0, 60, 0
2, 39399, Note_on_c, 0, 64, 0
2, 39400, Note_on_c, 0, 46, 0
2, 39400, Control_c, 0, 64, 127
2, 39422, Note_on_c, 0, 46, 52
2, 39429, Note_on_c, 0, 55, 49
2, 39430, Note_on_c, 0, 60, 55
2, 39432, Control_c, 0, 64, 0
2, 39433, Note_on_c, 0, 64, 28
2, 39436, Note_on_c, 0, 55, 0
2, 39438, Note_on_c, 0, 60, 0
2, 39443, Note_on_c, 0, 64, 0
2, 39448, Note_on_c, 0, 46, 0
2, 39475, Note_on_c, 0, 34, 15
2, 39494, Note_on_c, 0, 34, 0
2, 39515, Control_c, 0, 64, 127
2, 39531, Note_on_c, 0, 33, 53
2, 39546, Note_on_c, 0, 33, 0
2, 39551, Control_c, 0, 64, 0
2, 39565, Note_on_c, 0, 60, 55
2, 39565, Note_on_c, 0, 55, 52
2, 39568, Note_on_c, 0, 64, 36
2, 39568, Note_on_c, 0, 45, 33
2, 39611, Control_c, 0, 64, 127
2, 39624, Note_on_c, 0, 45, 0
2, 39627, Note_on_c, 0, 33, 51
2, 39641, Control_c, 0, 64, 0
2, 39648, Note_on_c, 0, 55, 0
2, 39659, Note_on_c, 0, 64, 0
2, 39660, Note_on_c, 0, 60, 0
2, 39668, Note_on_c, 0, 45, 45
2, 39675, Control_c, 0, 64, 127
2, 39706, Note_on_c, 0, 45, 0
2, 39711, Note_on_c, 0, 33, 0
2, 39726, Note_on_c, 0, 54, 60
2, 39727, Note_on_c, 0, 63, 53
2, 39730, Note_on_c, 0, 59, 58
2, 39731, Note_on_c, 0, 44, 52
2, 39733, Control_c, 0, 64, 0
2, 39777, Note_on_c, 0, 44, 0
2, 39825, Note_on_c, 0, 41, 44
2, 39848, Note_on_c, 0, 41, 0
2, 39862, Note_on_c, 0, 42, 36
2, 39880, Note_on_c, 0, 54, 0
2, 39913, Note_on_c, 0, 59, 0
2, 39923, Note_on_c, 0, 39, 32
2, 39943, Note_on_c, 0, 63, 0
2, 39954, Note_on_c, 0, 42, 0
2, 39957, Note_on_c, 0, 39, 0
2, 39962, Note_on_c, 0, 43, 48
2, 39965, Note_on_c, 0, 62, 50
2, 40041, Note_on_c, 0, 43, 0
2, 40055, Note_on_c, 0, 38, 44
2, 40147, Note_on_c, 0, 62, 0
2, 40149, Note_on_c, 0, 38, 0
2, 40157, Note_on_c, 0, 34, 44
2, 40161, Note_on_c, 0, 58, 42
2, 40226, Note_on_c, 0, 34, 0
2, 40254, Note_on_c, 0, 32, 57
2, 40257, Note_on_c, 0, 58, 0
2, 40340, Note_on_c, 0, 32, 0
2, 40353, Note_on_c, 0, 33, 48
2, 40355, Note_on_c, 0, 60, 58
2, 40409, Note_on_c, 0, 60, 0
2, 40444, Note_on_c, 0, 33, 0
2, 40452, Note_on_c, 0, 39, 50
2, 40516, Note_on_c, 0, 39, 0
2, 40521, Note_on_c, 0, 34, 29
2, 40521, Note_on_c, 0, 55, 80
2, 40540, Note_on_c, 0, 34, 0
2, 40542, Note_on_c, 0, 38, 42
2, 40562, Note_on_c, 0, 55, 0
2, 40576, Note_on_c, 0, 54, 49
2, 40626, Note_on_c, 0, 38, 0
2, 40637, Note_on_c, 0, 54, 0
2, 40640, Note_on_c, 0, 42, 31
2, 40707, Note_on_c, 0, 39, 36
2, 40711, Note_on_c, 0, 60, 85
2, 40738, Note_on_c, 0, 42, 0
2, 40741, Note_on_c, 0, 43, 42
2, 40742, Note_on_c, 0, 60, 0
2, 40742, Note_on_c, 0, 39, 0
2, 40759, Note_on_c, 0, 58, 34
2, 40812, Note_on_c, 0, 58, 0
2, 40813, Note_on_c, 0, 57, 56
2, 40830, Note_on_c, 0, 57, 0
2, 40836, Note_on_c, 0, 43, 0
2, 40836, Note_on_c, 0, 45, 48
2, 40848, Note_on_c, 0, 58, 45
2, 40874, Note_on_c, 0, 58, 0
2, 40931, Note_on_c, 0, 45, 0
2, 40938, Note_on_c, 0, 46, 45
2, 41013, Note_on_c, 0, 46, 0
2, 41033, Note_on_c, 0, 46, 67
2, 41127, Note_on_c, 0, 46, 0
2, 41132, Note_on_c, 0, 62, 60
2, 41132, Note_on_c, 0, 47, 53
2, 41185, Note_on_c, 0, 62, 0
2, 41198, Note_on_c, 0, 57, 36
2, 41207, Note_on_c, 0, 57, 0
2, 41212, Note_on_c, 0, 47, 0
2, 41220, Note_on_c, 0, 41, 34
2, 41231, Note_on_c, 0, 62, 42
2, 41278, Note_on_c, 0, 39, 42
2, 41281, Note_on_c, 0, 41, 0
2, 41282, Note_on_c, 0, 62, 0
2, 41289, Note_on_c, 0, 65, 74
2, 41298, Note_on_c, 0, 39, 0
2, 41306, Note_on_c, 0, 40, 27
2, 41312, Note_on_c, 0, 65, 0
2, 41328, Note_on_c, 0, 64, 55
2, 41382, Note_on_c, 0, 64, 0
2, 41389, Note_on_c, 0, 59, 50
2, 41399, Note_on_c, 0, 40, 0
2, 41400, Note_on_c, 0, 59, 0
2, 41401, Note_on_c, 0, 32, 38
2, 41468, Note_on_c, 0, 32, 0
2, 41481, Note_on_c, 0, 37, 26
2, 41485, Note_on_c, 0, 40, 28
2, 41497, Note_on_c, 0, 40, 0
2, 41503, Note_on_c, 0, 37, 0
2, 41516, Note_on_c, 0, 60, 46
2, 41522, Note_on_c, 0, 29, 16
2, 41575, Note_on_c, 0, 55, 22
2, 41594, Note_on_c, 0, 60, 0
2, 41609, Control_c, 0, 64, 127
2, 41610, Note_on_c, 0, 29, 0
2, 41639, Note_on_c, 0, 55, 0
2, 41671, Note_on_c, 0, 67, 64
2, 41672, Note_on_c, 0, 57, 66
2, 41672, Note_on_c, 0, 62, 66
2, 41681, Control_c, 0, 64, 0
2, 41686, Note_on_c, 0, 57, 0
2, 41691, Note_on_c, 0, 62, 0
2, 41698, Note_on_c, 0, 67, 0
2, 41717, Control_c, 0, 64, 127
2, 41763, Control_c, 0, 64, 0
2, 41768, Note_on_c, 0, 57, 63
2, 41768, Note_on_c, 0, 72, 66
2, 41768, Note_on_c, 0, 67, 60
2, 41769, Note_on_c, 0, 62, 62
2, 41792, Note_on_c, 0, 62, 0
2, 41795, Note_on_c, 0, 57, 0
2, 41798, Control_c, 0, 64, 127
2, 41800, Note_on_c, 0, 67, 0
2, 41802, Note_on_c, 0, 72, 0
2, 41863, Note_on_c, 0, 46, 61
2, 41874, Control_c, 0, 64, 0
2, 41904, Control_c, 0, 64, 127
2, 41928, Note_on_c, 0, 79, 73
2, 41929, Note_on_c, 0, 67, 68
2, 41930, Note_on_c, 0, 72, 63
2, 41930, Note_on_c, 0, 76, 58
2, 41932, Control_c, 0, 64, 0
2, 41933, Note_on_c, 0, 55, 46
2, 41952, Control_c, 0, 64, 127
2, 41978, Note_on_c, 0, 55, 0
2, 41993, Note_on_c, 0, 79, 0
2, 41993, Note_on_c, 0, 72, 0
2, 41994, Note_on_c, 0, 76, 0
2, 41997, Note_on_c, 0, 67, 0
2, 42000, Control_c, 0, 64, 0
2, 42006, Control_c, 0, 64, 127
2, 42011, Note_on_c, 0, 55, 40
2, 42050, Note_on_c, 0, 46, 0
2, 42075, Note_on_c, 0, 66, 53
2, 42075, Note_on_c, 0, 46, 45
2, 42076, Note_on_c, 0, 69, 59
2, 42077, Note_on_c, 0, 62, 60
2, 42080, Note_on_c, 0, 70, 38
2, 42080, Control_c, 0, 64, 0
2, 42114, Control_c, 0, 64, 127
2, 42142, Note_on_c, 0, 55, 0
2, 42148, Note_on_c, 0, 62, 0
2, 42148, Note_on_c, 0, 70, 0
2, 42159, Note_on_c, 0, 69, 0
2, 42170, Note_on_c, 0, 74, 71
2, 42177, Note_on_c, 0, 55, 44
2, 42181, Control_c, 0, 64, 0
2, 42199, Note_on_c, 0, 66, 0
2, 42205, Control_c, 0, 64, 127
2, 42207, Note_on_c, 0, 74, 0
2, 42242, Note_on_c, 0, 55, 0
2, 42257, Note_on_c, 0, 46, 0
2, 42267, Note_on_c, 0, 64, 58
2, 42268, Note_on_c, 0, 55, 37
2, 42269, Note_on_c, 0, 60, 54
2, 42269, Control_c, 0, 64, 0
2, 42270, Note_on_c, 0, 45, 43
2, 42303, Control_c, 0, 64, 127
2, 42322, Note_on_c, 0, 55, 0
2, 42336, Note_on_c, 0, 45, 0
2, 42339, Note_on_c, 0, 60, 0
2, 42344, Note_on_c, 0, 64, 0
2, 42360, Note_on_c, 0, 64, 63
2, 42360, Note_on_c, 0, 71, 58
2, 42361, Note_on_c, 0, 60, 38
2, 42362, Note_on_c, 0, 59, 67
2, 42371, Control_c, 0, 64, 0
2, 42399, Control_c, 0, 64, 127
2, 42425, Note_on_c, 0, 60, 0
2, 42427, Note_on_c, 0, 64, 0
2, 42452, Note_on_c, 0, 59, 0
2, 42457, Note_on_c, 0, 64, 47
2, 42458, Note_on_c, 0, 60, 46
2, 42458, Note_on_c, 0, 67, 40
2, 42461, Control_c, 0, 64, 0
2, 42462, Note_on_c, 0, 57, 51
2, 42487, Control_c, 0, 64, 127
2, 42501, Note_on_c, 0, 57, 0
2, 42547, Note_on_c, 0, 48, 71
2, 42558, Control_c, 0, 64, 0
2, 42584, Control_c, 0, 64, 127
2, 42634, Note_on_c, 0, 67, 0
2, 42635, Note_on_c, 0, 64, 0
2, 42640, Note_on_c, 0, 48, 0
2, 42646, Note_on_c, 0, 49, 34
2, 42647, Note_on_c, 0, 60, 0
2, 42670, Note_on_c, 0, 49, 0
2, 42672, Control_c, 0, 64, 0
2, 42674, Note_on_c, 0, 71, 0
2, 42674, Note_on_c, 0, 66, 36
2, 42677, Note_on_c, 0, 50, 50
2, 42678, Note_on_c, 0, 60, 34
2, 42680, Note_on_c, 0, 63, 30
2, 42764, Note_on_c, 0, 50, 0
2, 42776, Note_on_c, 0, 38, 34
2, 42872, Note_on_c, 0, 38, 0
2, 42873, Note_on_c, 0, 45, 50
2, 42950, Note_on_c, 0, 63, 0
2, 42953, Note_on_c, 0, 66, 0
2, 42960, Note_on_c, 0, 60, 0
2, 42965, Note_on_c, 0, 45, 0
2, 42968, Note_on_c, 0, 42, 37
2, 43064, Note_on_c, 0, 42, 0
2, 43065, Control_c, 0, 64, 127
2, 43065, Note_on_c, 0, 43, 46
2, 43078, Note_on_c, 0, 43, 0
2, 43168, Note_on_c, 0, 72, 82
2, 43169, Note_on_c, 0, 65, 87
2, 43169, Note_on_c, 0, 62, 89
2, 43171, Control_c, 0, 64, 0
2, 43172, Note_on_c, 0, 57, 54
2, 43214, Control_c, 0, 64, 127
2, 43252, Note_on_c, 0, 62, 0
2, 43255, Note_on_c, 0, 72, 0
2, 43256, Note_on_c, 0, 65, 0
2, 43256, Control_c, 0, 64, 0
2, 43267, Note_on_c, 0, 57, 0
2, 43274, Note_on_c, 0, 62, 33
2, 43275, Note_on_c, 0, 56, 43
2, 43275, Note_on_c, 0, 71, 50
2, 43286, Note_on_c, 0, 65, 15
2, 43294, Control_c, 0, 64, 127
2, 43328, Note_on_c, 0, 71, 0
2, 43334, Note_on_c, 0, 62, 0
2, 43338, Note_on_c, 0, 65, 0
2, 43362, Control_c, 0, 64, 0
2, 43364, Note_on_c, 0, 56, 0
2, 43368, Note_on_c, 0, 62, 50
2, 43368, Note_on_c, 0, 70, 50
2, 43373, Note_on_c, 0, 55, 36
2, 43375, Note_on_c, 0, 65, 30
2, 43386, Control_c, 0, 64, 127
2, 43392, Note_on_c, 0, 65, 0
2, 43402, Note_on_c, 0, 70, 0
2, 43403, Note_on_c, 0, 62, 0
2, 43414, Note_on_c, 0, 55, 0
2, 43468, Note_on_c, 0, 69, 67
2, 43468, Control_c, 0, 64, 0
2, 43471, Note_on_c, 0, 58, 34
2, 43472, Note_on_c, 0, 62, 49
2, 43473, Note_on_c, 0, 53, 49
2, 43488, Note_on_c, 0, 53, 0
2, 43506, Control_c, 0, 64, 127
2, 43528, Note_on_c, 0, 69, 0
2, 43544, Note_on_c, 0, 58, 0
2, 43546, Note_on_c, 0, 62, 0
2, 43555, Control_c, 0, 64, 0
2, 43567, Note_on_c, 0, 68, 47
2, 43571, Note_on_c, 0, 58, 31
2, 43572, Note_on_c, 0, 62, 36
2, 43579, Control_c, 0, 64, 127
2, 43583, Note_on_c, 0, 65, 17
2, 43606, Note_on_c, 0, 65, 0
2, 43607, Note_on_c, 0, 62, 0
2, 43613, Note_on_c, 0, 58, 0
2, 43623, Note_on_c, 0, 68, 0
2, 43640, Note_on_c, 0, 58, 32
2, 43640, Note_on_c, 0, 67, 41
2, 43643, Note_on_c, 0, 62, 39
2, 43647, Control_c, 0, 64, 0
2, 43658, Note_on_c, 0, 64, 20
2, 43703, Control_c, 0, 64, 127
2, 43723, Control_c, 0, 64, 0
2, 43726, Note_on_c, 0, 43, 60
2, 43749, Note_on_c, 0, 43, 0
2, 43759, Note_on_c, 0, 58, 0
2, 43767, Note_on_c, 0, 67, 0
2, 43770, Note_on_c, 0, 62, 0
2, 43771, Note_on_c, 0, 36, 29
2, 43771, Control_c, 0, 64, 127
2, 43774, Note_on_c, 0, 64, 0
2, 43779, Note_on_c, 0, 36, 0
2, 43838, Note_on_c, 0, 41, 60
2, 43852, Note_on_c, 0, 41, 0
2, 43853, Control_c, 0, 64, 0
2, 43892, Note_on_c, 0, 69, 64
2, 43893, Note_on_c, 0, 61, 52
2, 43896, Note_on_c, 0, 57, 41
2, 43898, Note_on_c, 0, 64, 46
2, 43898, Note_on_c, 0, 49, 59
2, 43906, Control_c, 0, 64, 127
2, 43906, Note_on_c, 0, 41, 36
2, 43936, Note_on_c, 0, 64, 0
2, 43937, Note_on_c, 0, 57, 0
2, 43942, Note_on_c, 0, 61, 0
2, 43948, Control_c, 0, 64, 0
2, 43958, Note_on_c, 0, 62, 61
2, 43959, Note_on_c, 0, 57, 38
2, 43963, Note_on_c, 0, 41, 0
2, 43964, Note_on_c, 0, 69, 0
2, 43965, Note_on_c, 0, 50, 54
2, 43966, Note_on_c, 0, 49, 0
2, 43968, Note_on_c, 0, 57, 0
2, 43972, Note_on_c, 0, 50, 0
2, 43974, Control_c, 0, 64, 127
2, 43975, Note_on_c, 0, 62, 0
2, 44038, Note_on_c, 0, 54, 50
2, 44038, Note_on_c, 0, 46, 39
2, 44039, Note_on_c, 0, 74, 74
2, 44039, Note_on_c, 0, 66, 71
2, 44041, Note_on_c, 0, 62, 67
2, 44042, Control_c, 0, 64, 0
2, 44056, Note_on_c, 0, 66, 0
2, 44059, Note_on_c, 0, 62, 0
2, 44062, Note_on_c, 0, 46, 0
2, 44063, Note_on_c, 0, 74, 0
2, 44067, Note_on_c, 0, 54, 0
2, 44090, Control_c, 0, 64, 127
2, 44120, Control_c, 0, 64, 0
2, 44131, Note_on_c, 0, 46, 51
2, 44132, Note_on_c, 0, 72, 58
2, 44134, Note_on_c, 0, 66, 56
2, 44134, Note_on_c, 0, 55, 44
2, 44134, Note_on_c, 0, 62, 66
2, 44135, Note_on_c, 0, 69, 48
2, 44147, Note_on_c, 0, 69, 0
2, 44151, Note_on_c, 0, 55, 0
2, 44157, Note_on_c, 0, 66, 0
2, 44157, Note_on_c, 0, 62, 0
2, 44157, Note_on_c, 0, 72, 0
2, 44165, Control_c, 0, 64, 127
2, 44174, Note_on_c, 0, 46, 0
2, 44219, Control_c, 0, 64, 0
2, 44225, Note_on_c, 0, 60, 57
2, 44226, Note_on_c, 0, 67, 60
2, 44227, Note_on_c, 0, 64, 55
2, 44228, Note_on_c, 0, 45, 41
2, 44230, Note_on_c, 0, 55, 37
2, 44253, Control_c, 0, 64, 127
2, 44291, Note_on_c, 0, 55, 0
2, 44321, Note_on_c, 0, 55, 44
2, 44322, Note_on_c, 0, 45, 0
2, 44335, Note_on_c, 0, 55, 0
2, 44355, Note_on_c, 0, 60, 0
2, 44390, Note_on_c, 0, 67, 0
2, 44393, Note_on_c, 0, 64, 0
2, 44412, Note_on_c, 0, 71, 65
2, 44415, Note_on_c, 0, 59, 53
2, 44435, Note_on_c, 0, 59, 0
2, 44446, Note_on_c, 0, 71, 0
2, 44450, Control_c, 0, 64, 0
2, 44464, Note_on_c, 0, 54, 53
2, 44464, Note_on_c, 0, 60, 36
2, 44465, Note_on_c, 0, 68, 28
2, 44469, Note_on_c, 0, 64, 49
2, 44492, Control_c, 0, 64, 127
2, 44498, Note_on_c, 0, 54, 0
2, 44507, Note_on_c, 0, 60, 0
2, 44511, Note_on_c, 0, 64, 0
2, 44519, Note_on_c, 0, 68, 0
2, 44527, Note_on_c, 0, 44, 40
2, 44528, Control_c, 0, 64, 0
2, 44529, Note_on_c, 0, 69, 61
2, 44531, Note_on_c, 0, 54, 29
2, 44549, Note_on_c, 0, 69, 0
2, 44554, Control_c, 0, 64, 127
2, 44559, Note_on_c, 0, 54, 0
2, 44587, Note_on_c, 0, 44, 0
2, 44610, Control_c, 0, 64, 0
2, 44612, Note_on_c, 0, 62, 62
2, 44613, Note_on_c, 0, 58, 43
2, 44616, Note_on_c, 0, 53, 43
2, 44616, Note_on_c, 0, 43, 33
2, 44627, Note_on_c, 0, 43, 0
2, 44627, Note_on_c, 0, 58, 0
2, 44630, Control_c, 0, 64, 127
2, 44632, Note_on_c, 0, 62, 0
2, 44638, Note_on_c, 0, 53, 0
2, 44706, Note_on_c, 0, 72, 68
2, 44707, Note_on_c, 0, 84, 70
2, 44721, Note_on_c, 0, 84, 0
2, 44722, Note_on_c, 0, 72, 0
2, 44722, Control_c, 0, 64, 0
2, 44736, Note_on_c, 0, 84, 58
2, 44736, Note_on_c, 0, 72, 55
2, 44750, Note_on_c, 0, 72, 0
2, 44752, Note_on_c, 0, 84, 0
2, 44762, Note_on_c, 0, 84, 46
2, 44764, Note_on_c, 0, 72, 54
2, 44773, Note_on_c, 0, 72, 0
2, 44778, Note_on_c, 0, 84, 0
2, 44830, Note_on_c, 0, 72, 74
2, 44831, Note_on_c, 0, 84, 73
2, 44833, Note_on_c, 0, 62, 52
2, 44834, Note_on_c, 0, 58, 39
2, 44834, Note_on_c, 0, 57, 53
2, 44839, Note_on_c, 0, 72, 0
2, 44840, Note_on_c, 0, 84, 0
2, 44845, Note_on_c, 0, 62, 0
2, 44847, Note_on_c, 0, 57, 0
2, 44853, Note_on_c, 0, 58, 0
2, 44869, Note_on_c, 0, 72, 36
2, 44877, Note_on_c, 0, 72, 0
2, 44920, Note_on_c, 0, 84, 66
2, 44921, Note_on_c, 0, 72, 57
2, 44932, Note_on_c, 0, 72, 0
2, 44935, Note_on_c, 0, 84, 0
2, 44953, Control_c, 0, 64, 127
2, 44957, Note_on_c, 0, 84, 67
2, 44959, Note_on_c, 0, 72, 63
2, 45005, Note_on_c, 0, 72, 0
2, 45005, Note_on_c, 0, 84, 0
2, 45011, Control_c, 0, 64, 0
2, 45018, Note_on_c, 0, 36, 65
2, 45034, Note_on_c, 0, 36, 0
2, 45035, Control_c, 0, 64, 127
2, 45092, Note_on_c, 0, 73, 43
2, 45094, Note_on_c, 0, 85, 49
2, 45100, Note_on_c, 0, 85, 0
2, 45100, Note_on_c, 0, 73, 0
2, 45124, Note_on_c, 0, 73, 43
2, 45125, Note_on_c, 0, 85, 50
2, 45127, Note_on_c, 0, 81, 42
2, 45131, Control_c, 0, 64, 0
2, 45132, Note_on_c, 0, 85, 0
2, 45133, Note_on_c, 0, 73, 0
2, 45140, Note_on_c, 0, 81, 0
2, 45154, Note_on_c, 0, 85, 69
2, 45155, Note_on_c, 0, 73, 59
2, 45156, Note_on_c, 0, 58, 72
2, 45157, Note_on_c, 0, 81, 60
2, 45158, Note_on_c, 0, 64, 65
2, 45169, Note_on_c, 0, 73, 0
2, 45172, Note_on_c, 0, 85, 0
2, 45174, Note_on_c, 0, 64, 0
2, 45176, Note_on_c, 0, 81, 0
2, 45180, Note_on_c, 0, 58, 0
2, 45221, Note_on_c, 0, 85, 71
2, 45221, Note_on_c, 0, 73, 60
2, 45222, Note_on_c, 0, 58, 61
2, 45222, Note_on_c, 0, 64, 57
2, 45226, Note_on_c, 0, 81, 44
2, 45235, Note_on_c, 0, 73, 0
2, 45236, Note_on_c, 0, 64, 0
2, 45236, Note_on_c, 0, 85, 0
2, 45237, Note_on_c, 0, 81, 0
2, 45241, Note_on_c, 0, 58, 0
2, 45257, Note_on_c, 0, 85, 51
2, 45259, Note_on_c, 0, 73, 35
2, 45259, Note_on_c, 0, 64, 47
2, 45260, Note_on_c, 0, 58, 43
2, 45264, Note_on_c, 0, 81, 30
2, 45269, Note_on_c, 0, 73, 0
2, 45270, Note_on_c, 0, 64, 0
2, 45273, Note_on_c, 0, 85, 0
2, 45275, Note_on_c, 0, 81, 0
2, 45276, Note_on_c, 0, 58, 0
2, 45318, Note_on_c, 0, 58, 72
2, 45318, Note_on_c, 0, 85, 74
2, 45318, Note_on_c, 0, 73, 62
2, 45320, Note_on_c, 0, 64, 58
2, 45323, Note_on_c, 0, 81, 50
2, 45331, Note_on_c, 0, 64, 0
2, 45336, Note_on_c, 0, 73, 0
2, 45336, Note_on_c, 0, 85, 0
2, 45340, Note_on_c, 0, 58, 0
2, 45348, Note_on_c, 0, 81, 0
2, 45357, Control_c, 0, 64, 127
2, 45359, Note_on_c, 0, 58, 50
2, 45361, Note_on_c, 0, 73, 36
2, 45361, Note_on_c, 0, 85, 64
2, 45361, Note_on_c, 0, 64, 47
2, 45381, Note_on_c, 0, 73, 0
2, 45390, Note_on_c, 0, 85, 0
2, 45411, Note_on_c, 0, 64, 0
2, 45423, Note_on_c, 0, 58, 0
2, 45451, Control_c, 0, 64, 0
2, 45455, Note_on_c, 0, 57, 64
2, 45456, Note_on_c, 0, 62, 55
2, 45462, Note_on_c, 0, 62, 0
2, 45465, Note_on_c, 0, 57, 0
2, 45467, Control_c, 0, 64, 127
2, 45521, Note_on_c, 0, 86, 82
2, 45521, Note_on_c, 0, 74, 70
2, 45522, Note_on_c, 0, 79, 66
2, 45522, Note_on_c, 0, 83, 64
2, 45531, Control_c, 0, 64, 0
2, 45545, Note_on_c, 0, 79, 0
2, 45546, Note_on_c, 0, 74, 0
2, 45549, Note_on_c, 0, 86, 0
2, 45551, Note_on_c, 0, 83, 0
2, 45552, Note_on_c, 0, 48, 36
2, 45554, Note_on_c, 0, 41, 43
2, 45564, Note_on_c, 0, 86, 71
2, 45565, Note_on_c, 0, 74, 35
2, 45565, Control_c, 0, 64, 127
2, 45567, Note_on_c, 0, 83, 53
2, 45568, Note_on_c, 0, 79, 44
2, 45582, Note_on_c, 0, 41, 0
2, 45587, Note_on_c, 0, 48, 0
2, 45593, Note_on_c, 0, 86, 0
2, 45593, Note_on_c, 0, 79, 0
2, 45594, Note_on_c, 0, 74, 0
2, 45597, Note_on_c, 0, 83, 0
2, 45625, Note_on_c, 0, 86, 70
2, 45625, Note_on_c, 0, 74, 59
2, 45627, Note_on_c, 0, 79, 48
2, 45628, Note_on_c, 0, 83, 44
2, 45637, Note_on_c, 0, 79, 0
2, 45637, Note_on_c, 0, 74, 0
2, 45643, Note_on_c, 0, 86, 0
2, 45647, Note_on_c, 0, 83, 0
2, 45655, Control_c, 0, 64, 0
2, 45664, Note_on_c, 0, 46, 63
2, 45665, Note_on_c, 0, 56, 67
2, 45667, Note_on_c, 0, 88, 76
2, 45669, Note_on_c, 0, 81, 67
2, 45670, Note_on_c, 0, 76, 62
2, 45670, Note_on_c, 0, 84, 66
2, 45690, Control_c, 0, 64, 127
2, 45701, Note_on_c, 0, 56, 0
2, 45703, Note_on_c, 0, 76, 0
2, 45703, Note_on_c, 0, 81, 0
2, 45703, Note_on_c, 0, 46, 0
2, 45706, Note_on_c, 0, 84, 0
2, 45707, Note_on_c, 0, 88, 0
2, 45723, Note_on_c, 0, 46, 57
2, 45725, Note_on_c, 0, 56, 62
2, 45727, Note_on_c, 0, 88, 66
2, 45730, Control_c, 0, 64, 0
2, 45730, Note_on_c, 0, 81, 68
2, 45730, Note_on_c, 0, 76, 60
2, 45731, Note_on_c, 0, 84, 58
2, 45750, Note_on_c, 0, 56, 0
2, 45752, Note_on_c, 0, 88, 0
2, 45757, Note_on_c, 0, 76, 0
2, 45757, Note_on_c, 0, 84, 0
2, 45759, Note_on_c, 0, 81, 0
2, 45768, Control_c, 0, 64, 127
2, 45771, Note_on_c, 0, 88, 58
2, 45774, Note_on_c, 0, 56, 37
2, 45774, Note_on_c, 0, 81, 57
2, 45775, Note_on_c, 0, 76, 43
2, 45777, Note_on_c, 0, 84, 28
2, 45785, Note_on_c, 0, 84, 0
2, 45786, Note_on_c, 0, 88, 0
2, 45792, Note_on_c, 0, 81, 0
2, 45797, Note_on_c, 0, 46, 0
2, 45798, Note_on_c, 0, 76, 0
2, 45830, Note_on_c, 0, 46, 56
2, 45837, Note_on_c, 0, 56, 0
2, 45856, Note_on_c, 0, 46, 0
2, 45868, Control_c, 0, 64, 0
2, 45874, Note_on_c, 0, 45, 61
2, 45892, Control_c, 0, 64, 127
2, 45934, Note_on_c, 0, 71, 63
2, 45936, Note_on_c, 0, 60, 60
2, 45937, Note_on_c, 0, 67, 51
2, 45939, Note_on_c, 0, 64, 50
2, 45939, Note_on_c, 0, 55, 53
2, 45952, Control_c, 0, 64, 0
2, 45955, Note_on_c, 0, 60, 0
2, 45956, Note_on_c, 0, 64, 0
2, 45957, Note_on_c, 0, 55, 0
2, 45961, Note_on_c, 0, 71, 0
2, 45961, Note_on_c, 0, 67, 0
2, 45979, Note_on_c, 0, 71, 56
2, 45982, Note_on_c, 0, 67, 39
2, 45982, Note_on_c, 0, 55, 33
2, 45983, Note_on_c, 0, 60, 24
2, 45985, Note_on_c, 0, 64, 36
2, 45990, Control_c, 0, 64, 127
2, 45994, Note_on_c, 0, 55, 0
2, 45996, Note_on_c, 0, 67, 0
2, 45996, Note_on_c, 0, 64, 0
2, 45997, Note_on_c, 0, 60, 0
2, 46002, Note_on_c, 0, 71, 0
2, 46009, Control_c, 0, 64, 0
2, 46031, Note_on_c, 0, 45, 0
2, 46031, Control_c, 0, 64, 127
2, 46035, Note_on_c, 0, 71, 69
2, 46037, Note_on_c, 0, 55, 39
2, 46038, Note_on_c, 0, 64, 59
2, 46040, Note_on_c, 0, 60, 49
2, 46046, Note_on_c, 0, 64, 0
2, 46047, Note_on_c, 0, 55, 0
2, 46061, Note_on_c, 0, 60, 0
2, 46062, Note_on_c, 0, 71, 0
2, 46083, Control_c, 0, 64, 0
2, 46083, Note_on_c, 0, 66, 42
2, 46084, Note_on_c, 0, 70, 38
2, 46086, Note_on_c, 0, 60, 34
2, 46086, Note_on_c, 0, 50, 36
2, 46103, Note_on_c, 0, 50, 0
2, 46105, Note_on_c, 0, 60, 0
2, 46108, Note_on_c, 0, 66, 0
2, 46112, Note_on_c, 0, 70, 0
2, 46131, Control_c, 0, 64, 127
2, 46141, Control_c, 0, 64, 0
2, 46141, Note_on_c, 0, 70, 59
2, 46143, Note_on_c, 0, 60, 51
2, 46144, Note_on_c, 0, 66, 51
2, 46144, Note_on_c, 0, 50, 51
2, 46145, Note_on_c, 0, 63, 42
2, 46158, Note_on_c, 0, 63, 0
2, 46161, Note_on_c, 0, 60, 0
2, 46164, Note_on_c, 0, 66, 0
2, 46165, Note_on_c, 0, 70, 0
2, 46185, Control_c, 0, 64, 127
2, 46185, Note_on_c, 0, 70, 27
2, 46187, Note_on_c, 0, 60, 36
2, 46188, Note_on_c, 0, 63, 32
2, 46188, Note_on_c, 0, 66, 29
2, 46191, Note_on_c, 0, 50, 0
2, 46194, Note_on_c, 0, 70, 0
2, 46202, Note_on_c, 0, 66, 0
2, 46204, Note_on_c, 0, 60, 0
2, 46211, Note_on_c, 0, 63, 0
2, 46245, Note_on_c, 0, 69, 57
2, 46246, Note_on_c, 0, 43, 31
2, 46246, Note_on_c, 0, 58, 56
2, 46248, Note_on_c, 0, 62, 55
2, 46249, Control_c, 0, 64, 0
2, 46250, Note_on_c, 0, 53, 41
2, 46252, Note_on_c, 0, 65, 39
2, 46268, Note_on_c, 0, 43, 0
2, 46283, Control_c, 0, 64, 127
2, 46303, Note_on_c, 0, 65, 0
2, 46332, Note_on_c, 0, 69, 0
2, 46335, Note_on_c, 0, 62, 0
2, 46336, Note_on_c, 0, 58, 0
2, 46336, Note_on_c, 0, 53, 0
2, 46358, Note_on_c, 0, 52, 47
2, 46371, Note_on_c, 0, 52, 0
2, 46388, Control_c, 0, 64, 0
2, 46395, Note_on_c, 0, 69, 60
2, 46395, Note_on_c, 0, 58, 40
2, 46397, Note_on_c, 0, 53, 48
2, 46401, Note_on_c, 0, 62, 38
2, 46426, Control_c, 0, 64, 127
2, 46456, Note_on_c, 0, 53, 0
2, 46466, Note_on_c, 0, 62, 0
2, 46466, Note_on_c, 0, 58, 0
2, 46477, Note_on_c, 0, 46, 29
2, 46481, Note_on_c, 0, 69, 0
2, 46492, Control_c, 0, 64, 0
2, 46495, Note_on_c, 0, 50, 40
2, 46495, Note_on_c, 0, 58, 42
2, 46496, Note_on_c, 0, 46, 0
2, 46496, Note_on_c, 0, 65, 49
2, 46497, Note_on_c, 0, 62, 49
2, 46540, Control_c, 0, 64, 127
2, 46552, Note_on_c, 0, 50, 0
2, 46557, Note_on_c, 0, 58, 0
2, 46559, Note_on_c, 0, 65, 0
2, 46559, Note_on_c, 0, 46, 25
2, 46564, Note_on_c, 0, 62, 0
2, 46572, Control_c, 0, 64, 0
2, 46585, Note_on_c, 0, 46, 0
2, 46589, Note_on_c, 0, 50, 48
2, 46598, Note_on_c, 0, 58, 49
2, 46598, Note_on_c, 0, 62, 53
2, 46599, Note_on_c, 0, 65, 50
2, 46602, Control_c, 0, 64, 127
2, 46615, Note_on_c, 0, 50, 0
2, 46630, Note_on_c, 0, 65, 0
2, 46631, Note_on_c, 0, 62, 0
2, 46633, Note_on_c, 0, 58, 0
2, 46696, Note_on_c, 0, 45, 56
2, 46696, Control_c, 0, 64, 0
2, 46706, Note_on_c, 0, 45, 0
2, 46708, Control_c, 0, 64, 127
2, 46787, Control_c, 0, 64, 0
2, 46793, Note_on_c, 0, 60, 71
2, 46794, Note_on_c, 0, 61, 62
2, 46796, Note_on_c, 0, 65, 66
2, 46797, Note_on_c, 0, 55, 61
2, 46821, Control_c, 0, 64, 127
2, 46866, Note_on_c, 0, 87, 76
2, 46867, Note_on_c, 0, 82, 74
2, 46867, Note_on_c, 0, 75, 74
2, 46874, Note_on_c, 0, 55, 0
2, 46881, Note_on_c, 0, 65, 0
2, 46883, Note_on_c, 0, 60, 0
2, 46896, Note_on_c, 0, 61, 0
2, 46907, Note_on_c, 0, 75, 0
2, 46909, Note_on_c, 0, 82, 0
2, 46909, Note_on_c, 0, 87, 0
2, 46915, Control_c, 0, 64, 0
2, 46942, Note_on_c, 0, 86, 79
2, 46943, Note_on_c, 0, 74, 71
2, 46944, Note_on_c, 0, 81, 67
2, 46946, Note_on_c, 0, 64, 63
2, 46946, Note_on_c, 0, 60, 64
2, 46947, Note_on_c, 0, 54, 51
2, 46978, Note_on_c, 0, 86, 0
2, 46980, Note_on_c, 0, 81, 0
2, 46993, Note_on_c, 0, 74, 0
2, 47013, Control_c, 0, 64, 127
2, 47020, Note_on_c, 0, 84, 68
2, 47021, Note_on_c, 0, 72, 61
2, 47022, Note_on_c, 0, 60, 0
2, 47034, Note_on_c, 0, 64, 0
2, 47036, Note_on_c, 0, 84, 0
2, 47043, Note_on_c, 0, 54, 0
2, 47051, Note_on_c, 0, 72, 0
2, 47086, Control_c, 0, 64, 0
2, 47086, Note_on_c, 0, 82, 62
2, 47086, Note_on_c, 0, 70, 64
2, 47087, Note_on_c, 0, 62, 62
2, 47087, Note_on_c, 0, 58, 50
2, 47088, Note_on_c, 0, 53, 46
2, 47089, Note_on_c, 0, 77, 55
2, 47090, Note_on_c, 0, 57, 51
2, 47099, Note_on_c, 0, 57, 0
2, 47103, Note_on_c, 0, 62, 0
2, 47107, Note_on_c, 0, 58, 0
2, 47114, Note_on_c, 0, 53, 0
2, 47114, Control_c, 0, 64, 127
2, 47127, Note_on_c, 0, 77, 0
2, 47133, Note_on_c, 0, 70, 0
2, 47136, Note_on_c, 0, 82, 0
2, 47176, Control_c, 0, 64, 0
2, 47178, Note_on_c, 0, 50, 57
2, 47179, Note_on_c, 0, 81, 64
2, 47179, Note_on_c, 0, 76, 64
2, 47180, Note_on_c, 0, 43, 54
2, 47180, Note_on_c, 0, 69, 57
2, 47188, Note_on_c, 0, 43, 0
2, 47199, Note_on_c, 0, 81, 0
2, 47200, Note_on_c, 0, 76, 0
2, 47203, Note_on_c, 0, 50, 0
2, 47203, Control_c, 0, 64, 127
2, 47205, Note_on_c, 0, 69, 0
2, 47271, Control_c, 0, 64, 0
2, 47273, Note_on_c, 0, 79, 62
2, 47275, Note_on_c, 0, 58, 37
2, 47275, Note_on_c, 0, 74, 64
2, 47275, Note_on_c, 0, 62, 48
2, 47276, Note_on_c, 0, 55, 43
2, 47276, Note_on_c, 0, 67, 57
2, 47292, Note_on_c, 0, 62, 0
2, 47292, Note_on_c, 0, 74, 0
2, 47293, Note_on_c, 0, 79, 0
2, 47295, Note_on_c, 0, 67, 0
2, 47299, Control_c, 0, 64, 127
2, 47300, Note_on_c, 0, 58, 0
2, 47302, Note_on_c, 0, 55, 0
2, 47365, Note_on_c, 0, 54, 58
2, 47366, Note_on_c, 0, 77, 62
2, 47368, Control_c, 0, 64, 0
2, 47369, Note_on_c, 0, 65, 64
2, 47370, Note_on_c, 0, 72, 57
2, 47386, Note_on_c, 0, 65, 0
2, 47387, Note_on_c, 0, 72, 0
2, 47388, Note_on_c, 0, 77, 0
2, 47391, Note_on_c, 0, 54, 0
2, 47394, Control_c, 0, 64, 127
2, 47456, Control_c, 0, 64, 0
2, 47456, Note_on_c, 0, 76, 73
2, 47459, Note_on_c, 0, 69, 71
2, 47461, Note_on_c, 0, 62, 39
2, 47462, Note_on_c, 0, 64, 49
2, 47462, Note_on_c, 0, 57, 62
2, 47465, Note_on_c, 0, 47, 49
2, 47476, Note_on_c, 0, 47, 0
2, 47490, Control_c, 0, 64, 127
2, 47497, Note_on_c, 0, 57, 0
2, 47519, Note_on_c, 0, 64, 0
2, 47521, Note_on_c, 0, 62, 0
2, 47523, Note_on_c, 0, 69, 0
2, 47540, Note_on_c, 0, 76, 0
2, 47550, Note_on_c, 0, 74, 67
2, 47552, Note_on_c, 0, 69, 70
2, 47555, Note_on_c, 0, 62, 52
2, 47555, Note_on_c, 0, 64, 49
2, 47556, Note_on_c, 0, 59, 46
2, 47558, Control_c, 0, 64, 0
2, 47572, Note_on_c, 0, 59, 0
2, 47578, Control_c, 0, 64, 127
2, 47581, Note_on_c, 0, 62, 0
2, 47582, Note_on_c, 0, 64, 0
2, 47588, Note_on_c, 0, 74, 0
2, 47591, Note_on_c, 0, 69, 0
2, 47642, Control_c, 0, 64, 0
2, 47644, Note_on_c, 0, 74, 58
2, 47644, Note_on_c, 0, 71, 60
2, 47645, Note_on_c, 0, 65, 68
2, 47647, Note_on_c, 0, 62, 50
2, 47647, Note_on_c, 0, 68, 55
2, 47649, Note_on_c, 0, 56, 44
2, 47673, Control_c, 0, 64, 127
2, 47680, Note_on_c, 0, 71, 0
2, 47683, Note_on_c, 0, 62, 0
2, 47685, Note_on_c, 0, 74, 0
2, 47688, Note_on_c, 0, 65, 0
2, 47695, Note_on_c, 0, 68, 0
2, 47720, Note_on_c, 0, 56, 0
2, 47742, Note_on_c, 0, 73, 47
2, 47742, Note_on_c, 0, 63, 64
2, 47743, Control_c, 0, 64, 0
2, 47744, Note_on_c, 0, 68, 49
2, 47747, Note_on_c, 0, 58, 55
2, 47748, Note_on_c, 0, 70, 37
2, 47769, Control_c, 0, 64, 127
2, 47803, Note_on_c, 0, 58, 0
2, 47806, Note_on_c, 0, 68, 0
2, 47808, Note_on_c, 0, 63, 0
2, 47811, Note_on_c, 0, 73, 0
2, 47814, Note_on_c, 0, 70, 0
2, 47834, Note_on_c, 0, 72, 54
2, 47835, Control_c, 0, 64, 0
2, 47836, Note_on_c, 0, 67, 64
2, 47836, Note_on_c, 0, 62, 57
2, 47840, Note_on_c, 0, 57, 54
2, 47859, Note_on_c, 0, 67, 0
2, 47861, Note_on_c, 0, 72, 0
2, 47861, Control_c, 0, 64, 127
2, 47880, Note_on_c, 0, 62, 0
2, 47915, Note_on_c, 0, 57, 0
2, 47928, Note_on_c, 0, 69, 64
2, 47929, Control_c, 0, 64, 0
2, 47930, Note_on_c, 0, 53, 62
2, 47931, Note_on_c, 0, 64, 62
2, 47932, Note_on_c, 0, 60, 54
2, 47951, Note_on_c, 0, 64, 0
2, 47953, Note_on_c, 0, 53, 0
2, 47954, Note_on_c, 0, 69, 0
2, 47959, Control_c, 0, 64, 127
2, 47962, Note_on_c, 0, 60, 0
2, 48020, Note_on_c, 0, 64, 53
2, 48024, Note_on_c, 0, 55, 55
2, 48024, Note_on_c, 0, 57, 55
2, 48026, Note_on_c, 0, 60, 53
2, 48029, Note_on_c, 0, 52, 54
2, 48034, Control_c, 0, 64, 0
2, 48068, Control_c, 0, 64, 127
2, 48119, Note_on_c, 0, 60, 0
2, 48125, Note_on_c, 0, 55, 0
2, 48129, Note_on_c, 0, 57, 0
2, 48141, Note_on_c, 0, 52, 0
2, 48142, Control_c, 0, 64, 0
2, 48147, Note_on_c, 0, 64, 0
2, 48148, Control_c, 0, 64, 127
2, 48153, Note_on_c, 0, 60, 53
2, 48154, Note_on_c, 0, 55, 45
2, 48165, Note_on_c, 0, 55, 0
2, 48170, Note_on_c, 0, 60, 0
2, 48246, Control_c, 0, 64, 0
2, 48249, Note_on_c, 0, 67, 43
2, 48251, Note_on_c, 0, 55, 49
2, 48251, Note_on_c, 0, 60, 51
2, 48251, Note_on_c, 0, 46, 29
2, 48252, Note_on_c, 0, 64, 45
2, 48257, Note_on_c, 0, 57, 41
2, 48310, Control_c, 0, 64, 127
2, 48319, Control_c, 0, 64, 0
2, 48343, Note_on_c, 0, 55, 0
2, 48347, Note_on_c, 0, 57, 0
2, 48353, Note_on_c, 0, 54, 39
2, 48359, Note_on_c, 0, 64, 0
2, 48361, Note_on_c, 0, 60, 0
2, 48361, Control_c, 0, 64, 127
2, 48385, Note_on_c, 0, 67, 0
2, 48416, Note_on_c, 0, 54, 0
2, 48419, Control_c, 0, 64, 0
2, 48419, Note_on_c, 0, 53, 43
2, 48419, Note_on_c, 0, 65, 53
2, 48422, Note_on_c, 0, 57, 32
2, 48423, Note_on_c, 0, 60, 45
2, 48427, Note_on_c, 0, 46, 0
2, 48449, Note_on_c, 0, 57, 0
2, 48467, Control_c, 0, 64, 127
2, 48477, Note_on_c, 0, 60, 0
2, 48489, Note_on_c, 0, 65, 0
2, 48505, Control_c, 0, 64, 0
2, 48512, Note_on_c, 0, 46, 46
2, 48533, Control_c, 0, 64, 127
2, 48538, Note_on_c, 0, 53, 0
2, 48546, Note_on_c, 0, 46, 0
2, 48589, Control_c, 0, 64, 0
2, 48599, Note_on_c, 0, 86, 79
2, 48600, Note_on_c, 0, 45, 51
2, 48601, Note_on_c, 0, 79, 59
2, 48601, Note_on_c, 0, 74, 60
2, 48602, Note_on_c, 0, 83, 54
2, 48610, Note_on_c, 0, 45, 0
2, 48614, Note_on_c, 0, 83, 0
2, 48614, Note_on_c, 0, 79, 0
2, 48616, Note_on_c, 0, 74, 0
2, 48620, Note_on_c, 0, 86, 0
2, 48621, Control_c, 0, 64, 127
2, 48662, Control_c, 0, 64, 0
2, 48686, Note_on_c, 0, 55, 53
2, 48687, Note_on_c, 0, 57, 45
2, 48688, Note_on_c, 0, 64, 35
2, 48691, Note_on_c, 0, 86, 71
2, 48691, Note_on_c, 0, 74, 59
2, 48692, Note_on_c, 0, 79, 47
2, 48694, Note_on_c, 0, 83, 34
2, 48704, Note_on_c, 0, 79, 0
2, 48705, Note_on_c, 0, 83, 0
2, 48707, Note_on_c, 0, 86, 0
2, 48707, Note_on_c, 0, 64, 0
2, 48707, Note_on_c, 0, 74, 0
2, 48709, Note_on_c, 0, 55, 0
2, 48721, Note_on_c, 0, 57, 0
2, 48737, Note_on_c, 0, 84, 36
2, 48742, Note_on_c, 0, 72, 20
2, 48756, Note_on_c, 0, 72, 0
2, 48756, Control_c, 0, 64, 127
2, 48763, Note_on_c, 0, 84, 0
2, 48772, Control_c, 0, 64, 0
2, 48788, Note_on_c, 0, 57, 34
2, 48788, Note_on_c, 0, 64, 33
2, 48790, Note_on_c, 0, 60, 42
2, 48790, Note_on_c, 0, 86, 73
2, 48791, Note_on_c, 0, 74, 47
2, 48792, Note_on_c, 0, 79, 40
2, 48792, Note_on_c, 0, 83, 40
2, 48798, Note_on_c, 0, 86, 0
2, 48801, Note_on_c, 0, 79, 0
2, 48802, Note_on_c, 0, 83, 0
2, 48803, Note_on_c, 0, 64, 0
2, 48803, Note_on_c, 0, 74, 0
2, 48804, Note_on_c, 0, 60, 0
2, 48815, Note_on_c, 0, 57, 0
2, 48828, Control_c, 0, 64, 127
2, 48876, Note_on_c, 0, 64, 33
2, 48877, Note_on_c, 0, 86, 71
2, 48877, Note_on_c, 0, 60, 46
2, 48880, Note_on_c, 0, 74, 45
2, 48882, Note_on_c, 0, 79, 35
2, 48885, Note_on_c, 0, 64, 0
2, 48886, Note_on_c, 0, 60, 0
2, 48895, Note_on_c, 0, 79, 0
2, 48900, Note_on_c, 0, 74, 0
2, 48906, Note_on_c, 0, 86, 0
2, 48920, Note_on_c, 0, 84, 48
2, 48944, Note_on_c, 0, 84, 0
2, 48956, Control_c, 0, 64, 0
2, 48966, Note_on_c, 0, 38, 53
2, 48970, Note_on_c, 0, 86, 74
2, 48972, Note_on_c, 0, 77, 53
2, 48973, Note_on_c, 0, 82, 43
2, 48982, Note_on_c, 0, 38, 0
2, 48986, Note_on_c, 0, 82, 0
2, 48986, Note_on_c, 0, 77, 0
2, 48992, Note_on_c, 0, 86, 0
2, 48994, Control_c, 0, 64, 127
2, 49038, Control_c, 0, 64, 0
2, 49058, Note_on_c, 0, 60, 57
2, 49060, Note_on_c, 0, 54, 47
2, 49061, Note_on_c, 0, 86, 77
2, 49061, Note_on_c, 0, 82, 54
2, 49063, Note_on_c, 0, 77, 40
2, 49084, Note_on_c, 0, 82, 0
2, 49084, Note_on_c, 0, 86, 0
2, 49086, Note_on_c, 0, 77, 0
2, 49096, Note_on_c, 0, 60, 0
2, 49103, Control_c, 0, 64, 127
2, 49104, Note_on_c, 0, 54, 0
2, 49108, Note_on_c, 0, 84, 40
2, 49110, Note_on_c, 0, 76, 37
2, 49112, Note_on_c, 0, 80, 30
2, 49132, Note_on_c, 0, 76, 0
2, 49140, Note_on_c, 0, 84, 0
2, 49141, Note_on_c, 0, 80, 0
2, 49145, Control_c, 0, 64, 0
2, 49160, Note_on_c, 0, 54, 50
2, 49160, Note_on_c, 0, 77, 45
2, 49161, Note_on_c, 0, 86, 69
2, 49161, Note_on_c, 0, 82, 48
2, 49162, Note_on_c, 0, 50, 38
2, 49165, Note_on_c, 0, 60, 39
2, 49168, Note_on_c, 0, 86, 0
2, 49170, Note_on_c, 0, 50, 0
2, 49173, Note_on_c, 0, 77, 0
2, 49174, Note_on_c, 0, 60, 0
2, 49174, Note_on_c, 0, 82, 0
2, 49185, Note_on_c, 0, 54, 0
2, 49195, Control_c, 0, 64, 127
2, 49249, Note_on_c, 0, 65, 65
2, 49249, Note_on_c, 0, 60, 58
2, 49250, Control_c, 0, 64, 0
2, 49250, Note_on_c, 0, 54, 54
2, 49251, Note_on_c, 0, 82, 60
2, 49252, Note_on_c, 0, 86, 76
2, 49252, Note_on_c, 0, 77, 60
2, 49274, Note_on_c, 0, 77, 0
2, 49275, Note_on_c, 0, 86, 0
2, 49277, Note_on_c, 0, 82, 0
2, 49282, Note_on_c, 0, 65, 0
2, 49289, Note_on_c, 0, 60, 0
2, 49292, Control_c, 0, 64, 127
2, 49298, Note_on_c, 0, 84, 46
2, 49303, Note_on_c, 0, 76, 36
2, 49304, Note_on_c, 0, 80, 30
2, 49314, Note_on_c, 0, 54, 0
2, 49322, Note_on_c, 0, 80, 0
2, 49328, Note_on_c, 0, 84, 0
2, 49330, Note_on_c, 0, 76, 0
2, 49352, Control_c, 0, 64, 0
2, 49355, Note_on_c, 0, 55, 68
2, 49358, Note_on_c, 0, 62, 57
2, 49358, Note_on_c, 0, 84, 56
2, 49358, Note_on_c, 0, 72, 48
2, 49359, Note_on_c, 0, 79, 57
2, 49361, Note_on_c, 0, 58, 43
2, 49365, Note_on_c, 0, 62, 0
2, 49371, Note_on_c, 0, 72, 0
2, 49372, Note_on_c, 0, 79, 0
2, 49373, Note_on_c, 0, 84, 0
2, 49373, Note_on_c, 0, 58, 0
2, 49374, Note_on_c, 0, 55, 0
2, 49384, Control_c, 0, 64, 127
2, 49438, Note_on_c, 0, 43, 52
2, 49446, Note_on_c, 0, 43, 0
2, 49466, Control_c, 0, 64, 0
2, 49477, Note_on_c, 0, 72, 55
2, 49478, Note_on_c, 0, 62, 59
2, 49478, Note_on_c, 0, 69, 57
2, 49479, Note_on_c, 0, 65, 57
2, 49483, Note_on_c, 0, 60, 53
2, 49507, Note_on_c, 0, 60, 0
2, 49510, Control_c, 0, 64, 127
2, 49512, Note_on_c, 0, 62, 0
2, 49513, Note_on_c, 0, 65, 0
2, 49514, Note_on_c, 0, 72, 0
2, 49518, Note_on_c, 0, 69, 0
2, 49539, Note_on_c, 0, 72, 62
2, 49540, Control_c, 0, 64, 0
2, 49541, Note_on_c, 0, 62, 66
2, 49541, Note_on_c, 0, 65, 54
2, 49542, Note_on_c, 0, 60, 55
2, 49545, Note_on_c, 0, 69, 41
2, 49561, Note_on_c, 0, 60, 0
2, 49565, Note_on_c, 0, 65, 0
2, 49566, Note_on_c, 0, 72, 0
2, 49567, Note_on_c, 0, 62, 0
2, 49570, Note_on_c, 0, 69, 0
2, 49587, Note_on_c, 0, 72, 45
2, 49589, Note_on_c, 0, 60, 47
2, 49591, Note_on_c, 0, 62, 44
2, 49591, Note_on_c, 0, 65, 40
2, 49595, Control_c, 0, 64, 127
2, 49597, Note_on_c, 0, 69, 26
2, 49607, Note_on_c, 0, 69, 0
2, 49619, Note_on_c, 0, 62, 0
2, 49622, Note_on_c, 0, 65, 0
2, 49626, Note_on_c, 0, 72, 0
2, 49638, Note_on_c, 0, 60, 0
2, 49643, Control_c, 0, 64, 0
2, 49644, Note_on_c, 0, 62, 47
2, 49647, Note_on_c, 0, 70, 46
2, 49647, Note_on_c, 0, 58, 47
2, 49663, Note_on_c, 0, 62, 0
2, 49665, Note_on_c, 0, 58, 0
2, 49667, Control_c, 0, 64, 127
2, 49683, Note_on_c, 0, 70, 0
2, 49729, Note_on_c, 0, 72, 64
2, 49731, Control_c, 0, 64, 0
2, 49732, Note_on_c, 0, 56, 58
2, 49732, Note_on_c, 0, 46, 55
2, 49732, Note_on_c, 0, 61, 59
2, 49732, Note_on_c, 0, 65, 63
2, 49767, Control_c, 0, 64, 127
2, 49839, Note_on_c, 0, 56, 0
2, 49843, Note_on_c, 0, 61, 0
2, 49855, Note_on_c, 0, 65, 0
2, 49861, Control_c, 0, 64, 0
2, 49862, Note_on_c, 0, 72, 0
2, 49864, Note_on_c, 0, 71, 46
2, 49865, Note_on_c, 0, 61, 39
2, 49867, Note_on_c, 0, 56, 44
2, 49870, Note_on_c, 0, 65, 17
2, 49885, Control_c, 0, 64, 127
2, 49891, Note_on_c, 0, 65, 0
2, 49903, Note_on_c, 0, 71, 0
2, 49909, Note_on_c, 0, 61, 0
2, 49913, Note_on_c, 0, 56, 0
2, 49932, Control_c, 0, 64, 0
2, 49932, Note_on_c, 0, 61, 43
2, 49934, Note_on_c, 0, 70, 43
2, 49936, Note_on_c, 0, 65, 51
2, 49941, Note_on_c, 0, 55, 44
2, 49957, Note_on_c, 0, 46, 0
2, 49976, Control_c, 0, 64, 127
2, 50022, Note_on_c, 0, 46, 35
2, 50044, Note_on_c, 0, 55, 0
2, 50063, Note_on_c, 0, 65, 0
2, 50066, Note_on_c, 0, 61, 0
2, 50092, Note_on_c, 0, 70, 0
2, 50114, Note_on_c, 0, 73, 55
2, 50115, Note_on_c, 0, 63, 63
2, 50115, Note_on_c, 0, 56, 45
2, 50117, Note_on_c, 0, 68, 58
2, 50149, Note_on_c, 0, 56, 0
2, 50152, Note_on_c, 0, 68, 0
2, 50154, Note_on_c, 0, 73, 0
2, 50154, Control_c, 0, 64, 0
2, 50155, Note_on_c, 0, 63, 0
2, 50168, Note_on_c, 0, 46, 0
2, 50171, Note_on_c, 0, 72, 44
2, 50172, Note_on_c, 0, 57, 44
2, 50176, Note_on_c, 0, 62, 40
2, 50176, Note_on_c, 0, 67, 44
2, 50180, Control_c, 0, 64, 127
2, 50193, Note_on_c, 0, 72, 0
2, 50196, Note_on_c, 0, 67, 0
2, 50222, Note_on_c, 0, 62, 0
2, 50232, Note_on_c, 0, 57, 0
2, 50236, Control_c, 0, 64, 0
2, 50240, Note_on_c, 0, 69, 54
2, 50243, Note_on_c, 0, 53, 42
2, 50244, Note_on_c, 0, 60, 39
2, 50247, Note_on_c, 0, 64, 32
2, 50257, Note_on_c, 0, 64, 0
2, 50258, Note_on_c, 0, 69, 0
2, 50262, Note_on_c, 0, 53, 0
2, 50265, Note_on_c, 0, 60, 0
2, 50266, Control_c, 0, 64, 127
2, 50332, Note_on_c, 0, 53, 53
2, 50351, Note_on_c, 0, 53, 0
2, 50381, Control_c, 0, 64, 0
2, 50387, Note_on_c, 0, 46, 48
2, 50399, Control_c, 0, 64, 127
2, 50445, Control_c, 0, 64, 0
2, 50451, Note_on_c, 0, 66, 51
2, 50451, Note_on_c, 0, 62, 59
2, 50453, Note_on_c, 0, 57, 51
2, 50456, Note_on_c, 0, 54, 36
2, 50479, Control_c, 0, 64, 127
2, 50495, Note_on_c, 0, 57, 0
2, 50507, Note_on_c, 0, 66, 0
2, 50512, Note_on_c, 0, 62, 0
2, 50516, Note_on_c, 0, 69, 69
2, 50532, Note_on_c, 0, 54, 0
2, 50563, Note_on_c, 0, 46, 0
2, 50573, Note_on_c, 0, 69, 0
2, 50585, Control_c, 0, 64, 0
2, 50587, Note_on_c, 0, 67, 55
2, 50589, Note_on_c, 0, 64, 51
2, 50590, Note_on_c, 0, 60, 42
2, 50593, Note_on_c, 0, 55, 34
2, 50642, Control_c, 0, 64, 127
2, 50656, Note_on_c, 0, 45, 44
2, 50672, Note_on_c, 0, 55, 0
2, 50721, Note_on_c, 0, 64, 0
2, 50725, Note_on_c, 0, 45, 0
2, 50726, Note_on_c, 0, 60, 0
2, 50736, Note_on_c, 0, 67, 0
2, 50785, Note_on_c, 0, 44, 47
2, 50790, Control_c, 0, 64, 0
2, 50828, Control_c, 0, 64, 127
2, 50846, Control_c, 0, 64, 0
2, 50853, Note_on_c, 0, 62, 55
2, 50854, Note_on_c, 0, 54, 38
2, 50855, Note_on_c, 0, 59, 51
2, 50888, Control_c, 0, 64, 127
2, 50903, Note_on_c, 0, 59, 0
2, 50911, Note_on_c, 0, 44, 0
2, 50922, Note_on_c, 0, 68, 40
2, 50929, Note_on_c, 0, 44, 34
2, 50959, Note_on_c, 0, 62, 0
2, 50968, Note_on_c, 0, 54, 0
2, 50968, Note_on_c, 0, 68, 0
2, 50984, Note_on_c, 0, 44, 0
2, 50991, Control_c, 0, 64, 0
2, 50994, Note_on_c, 0, 62, 44
2, 50994, Note_on_c, 0, 67, 32
2, 50994, Note_on_c, 0, 58, 35
2, 50996, Note_on_c, 0, 53, 44
2, 50997, Note_on_c, 0, 65, 36
2, 51006, Note_on_c, 0, 43, 33
2, 51039, Control_c, 0, 64, 127
2, 51060, Note_on_c, 0, 53, 0
2, 51065, Note_on_c, 0, 50, 42
2, 51084, Note_on_c, 0, 43, 0
2, 51089, Note_on_c, 0, 50, 0
2, 51092, Note_on_c, 0, 58, 0
2, 51104, Note_on_c, 0, 65, 0
2, 51105, Note_on_c, 0, 62, 0
2, 51127, Note_on_c, 0, 67, 0
2, 51161, Control_c, 0, 64, 0
2, 51162, Note_on_c, 0, 58, 57
2, 51163, Note_on_c, 0, 69, 66
2, 51163, Note_on_c, 0, 62, 60
2, 51164, Note_on_c, 0, 57, 66
2, 51164, Note_on_c, 0, 65, 48
2, 51211, Control_c, 0, 64, 127
2, 51254, Note_on_c, 0, 57, 0
2, 51258, Note_on_c, 0, 69, 0
2, 51261, Note_on_c, 0, 55, 49
2, 51263, Note_on_c, 0, 58, 0
2, 51264, Note_on_c, 0, 65, 0
2, 51266, Note_on_c, 0, 62, 0
2, 51271, Note_on_c, 0, 55, 0
2, 51298, Note_on_c, 0, 69, 62
2, 51301, Note_on_c, 0, 58, 36
2, 51302, Note_on_c, 0, 62, 48
2, 51304, Note_on_c, 0, 65, 38
2, 51343, Note_on_c, 0, 69, 0
2, 51345, Note_on_c, 0, 58, 0
2, 51355, Note_on_c, 0, 65, 0
2, 51361, Note_on_c, 0, 62, 0
2, 51400, Note_on_c, 0, 24, 81
2, 51401, Note_on_c, 0, 36, 84
2, 51404, Control_c, 0, 64, 0
2, 51458, Control_c, 0, 64, 127
2, 51588, Note_on_c, 0, 24, 0
2, 51598, Note_on_c, 0, 36, 0
2, 51748, Note_on_c, 0, 81, 64
2, 51750, Note_on_c, 0, 73, 29
2, 51751, Note_on_c, 0, 76, 52
2, 51751, Note_on_c, 0, 69, 41
2, 51753, Note_on_c, 0, 58, 50
2, 51753, Note_on_c, 0, 64, 48
2, 52039, Note_on_c, 0, 81, 0
2, 52046, Note_on_c, 0, 64, 0
2, 52050, Note_on_c, 0, 73, 0
2, 52050, Note_on_c, 0, 76, 0
2, 52055, Note_on_c, 0, 69, 0
2, 52087, Note_on_c, 0, 58, 0
2, 52111, Note_on_c, 0, 60, 79
2, 52152, Note_on_c, 0, 60, 0
2, 52176, Note_on_c, 0, 60, 79
2, 52217, Note_on_c, 0, 60, 0
2, 52235, Note_on_c, 0, 60, 72
2, 52276, Note_on_c, 0, 60, 0
2, 52299, Note_on_c, 0, 60, 71
2, 52342, Note_on_c, 0, 60, 0
2, 52365, Note_on_c, 0, 60, 65
2, 52407, Note_on_c, 0, 60, 0
2, 52441, Note_on_c, 0, 60, 53
2, 52482, Note_on_c, 0, 60, 0
2, 52518, Note_on_c, 0, 60, 54
2, 52560, Note_on_c, 0, 60, 0
2, 52600, Note_on_c, 0, 60, 43
2, 52639, Note_on_c, 0, 60, 0
2, 52682, Note_on_c, 0, 60, 38
2, 52736, Note_on_c, 0, 60, 0
2, 52768, Note_on_c, 0, 60, 43
2, 52831, Note_on_c, 0, 60, 0
2, 52858, Note_on_c, 0, 60, 26
2, 53108, Note_on_c, 0, 60, 0
2, 53179, Note_on_c, 0, 72, 55
2, 53181, Note_on_c, 0, 61, 51
2, 53184, Note_on_c, 0, 65, 60
2, 53187, Note_on_c, 0, 58, 46
2, 53243, Control_c, 0, 64, 0
2, 53261, Control_c, 0, 64, 127
2, 53379, Note_on_c, 0, 58, 0
2, 53393, Note_on_c, 0, 61, 0
2, 53404, Note_on_c, 0, 65, 0
2, 53407, Note_on_c, 0, 70, 51
2, 53416, Note_on_c, 0, 72, 0
2, 53416, Note_on_c, 0, 61, 36
2, 53418, Note_on_c, 0, 56, 38
2, 53421, Note_on_c, 0, 65, 22
2, 53436, Control_c, 0, 64, 0
2, 53488, Control_c, 0, 64, 127
2, 53525, Note_on_c, 0, 56, 0
2, 53622, Note_on_c, 0, 34, 63
2, 53662, Note_on_c, 0, 34, 0
2, 53772, Note_on_c, 0, 61, 0
2, 53778, Note_on_c, 0, 65, 0
2, 53789, Note_on_c, 0, 70, 0
2, 53916, Note_on_c, 0, 72, 78
2, 53918, Note_on_c, 0, 61, 88
2, 53918, Note_on_c, 0, 60, 82
2, 53919, Note_on_c, 0, 65, 84
2, 53920, Note_on_c, 0, 68, 67
2, 53965, Note_on_c, 0, 61, 0
2, 53965, Note_on_c, 0, 72, 0
2, 53993, Note_on_c, 0, 60, 0
2, 53995, Note_on_c, 0, 65, 0
2, 53997, Note_on_c, 0, 68, 0
2, 54000, Note_on_c, 0, 61, 77
2, 54001, Note_on_c, 0, 73, 64
2, 54003, Note_on_c, 0, 65, 34
2, 54006, Note_on_c, 0, 68, 51
2, 54049, Note_on_c, 0, 73, 0
2, 54059, Note_on_c, 0, 65, 0
2, 54060, Note_on_c, 0, 61, 0
2, 54065, Note_on_c, 0, 68, 0
2, 54072, Note_on_c, 0, 72, 66
2, 54072, Note_on_c, 0, 60, 72
2, 54074, Note_on_c, 0, 65, 68
2, 54075, Note_on_c, 0, 61, 67
2, 54077, Note_on_c, 0, 68, 37
2, 54083, Control_c, 0, 64, 0
2, 54110, Control_c, 0, 64, 127
2, 54133, Note_on_c, 0, 72, 0
2, 54148, Note_on_c, 0, 70, 60
2, 54150, Note_on_c, 0, 58, 64
2, 54154, Control_c, 0, 64, 0
2, 54155, Note_on_c, 0, 60, 0
2, 54170, Control_c, 0, 64, 127
2, 54179, Note_on_c, 0, 68, 0
2, 54196, Note_on_c, 0, 65, 0
2, 54207, Note_on_c, 0, 61, 0
2, 54224, Note_on_c, 0, 70, 0
2, 54232, Control_c, 0, 64, 0
2, 54238, Note_on_c, 0, 58, 0
2, 54241, Note_on_c, 0, 60, 62
2, 54244, Note_on_c, 0, 72, 47
2, 54245, Note_on_c, 0, 65, 58
2, 54245, Note_on_c, 0, 61, 48
2, 54248, Note_on_c, 0, 68, 38
2, 54274, Control_c, 0, 64, 127
2, 54333, Note_on_c, 0, 72, 0
2, 54334, Note_on_c, 0, 65, 0
2, 54335, Note_on_c, 0, 61, 0
2, 54342, Note_on_c, 0, 68, 0
2, 54349, Note_on_c, 0, 70, 60
2, 54349, Note_on_c, 0, 61, 33
2, 54352, Note_on_c, 0, 58, 58
2, 54355, Note_on_c, 0, 68, 23
2, 54356, Note_on_c, 0, 65, 32
2, 54363, Note_on_c, 0, 60, 0
2, 54386, Note_on_c, 0, 68, 0
2, 54404, Note_on_c, 0, 65, 0
2, 54457, Note_on_c, 0, 65, 64
2, 54483, Note_on_c, 0, 58, 0
2, 54494, Note_on_c, 0, 61, 0
2, 54559, Note_on_c, 0, 61, 44
2, 54560, Note_on_c, 0, 65, 0
2, 54562, Note_on_c, 0, 70, 0
2, 54582, Note_on_c, 0, 61, 0
2, 54744, Note_on_c, 0, 52, 34
2, 54745, Note_on_c, 0, 30, 36
2, 54746, Note_on_c, 0, 42, 32
2, 54747, Control_c, 0, 64, 0
2, 54748, Note_on_c, 0, 56, 31
2, 54748, Note_on_c, 0, 63, 28
2, 54753, Note_on_c, 0, 59, 36
2, 54808, Control_c, 0, 64, 127
2, 54948, Note_on_c, 0, 59, 0
2, 54956, Note_on_c, 0, 52, 0
2, 54971, Note_on_c, 0, 56, 0
2, 54971, Note_on_c, 0, 42, 0
2, 55016, Note_on_c, 0, 42, 32
2, 55033, Note_on_c, 0, 30, 0
2, 55060, Note_on_c, 0, 42, 0
2, 55190, Note_on_c, 0, 54, 57
2, 55290, Note_on_c, 0, 54, 0
2, 55301, Note_on_c, 0, 49, 47
2, 55369, Note_on_c, 0, 63, 0
2, 55422, Note_on_c, 0, 42, 59
2, 55534, Note_on_c, 0, 42, 0
2, 55552, Note_on_c, 0, 42, 53
2, 55563, Note_on_c, 0, 49, 0
2, 55684, Note_on_c, 0, 54, 64
2, 55787, Note_on_c, 0, 54, 0
2, 55813, Note_on_c, 0, 54, 59
2, 55895, Note_on_c, 0, 42, 0
2, 55934, Note_on_c, 0, 42, 70
2, 55955, Note_on_c, 0, 54, 0
2, 56044, Note_on_c, 0, 54, 68
2, 56149, Note_on_c, 0, 54, 0
2, 56171, Note_on_c, 0, 54, 49
2, 56266, Note_on_c, 0, 54, 0
2, 56317, Note_on_c, 0, 54, 54
2, 56366, Note_on_c, 0, 42, 0
2, 56393, Note_on_c, 0, 54, 0
2, 56672, Note_on_c, 0, 61, 48
2, 56676, Note_on_c, 0, 68, 55
2, 56677, Note_on_c, 0, 71, 64
2, 56678, Note_on_c, 0, 57, 56
2, 56679, Note_on_c, 0, 58, 50
2, 56679, Note_on_c, 0, 64, 55
2, 56789, Note_on_c, 0, 57, 0
2, 56793, Note_on_c, 0, 58, 0
2, 56802, Note_on_c, 0, 61, 0
2, 56811, Note_on_c, 0, 64, 0
2, 56818, Note_on_c, 0, 68, 0
2, 56819, Note_on_c, 0, 71, 0
2, 56865, Note_on_c, 0, 61, 45
2, 56869, Note_on_c, 0, 64, 46
2, 56869, Note_on_c, 0, 71, 54
2, 56870, Note_on_c, 0, 68, 36
2, 56872, Note_on_c, 0, 58, 36
2, 56873, Note_on_c, 0, 57, 45
2, 56943, Note_on_c, 0, 57, 0
2, 56945, Note_on_c, 0, 61, 0
2, 56952, Note_on_c, 0, 71, 0
2, 56961, Note_on_c, 0, 58, 0
2, 56968, Note_on_c, 0, 68, 0
2, 56976, Note_on_c, 0, 64, 0
2, 57052, Note_on_c, 0, 61, 32
2, 57054, Note_on_c, 0, 71, 45
2, 57059, Note_on_c, 0, 58, 35
2, 57060, Note_on_c, 0, 64, 32
2, 57061, Note_on_c, 0, 57, 36
2, 57064, Note_on_c, 0, 68, 30
2, 57167, Note_on_c, 0, 68, 0
2, 57235, Note_on_c, 0, 64, 0
2, 57242, Note_on_c, 0, 71, 0
2, 57246, Note_on_c, 0, 68, 52
2, 57347, Note_on_c, 0, 61, 0
2, 57373, Note_on_c, 0, 64, 50
2, 57500, Note_on_c, 0, 58, 0
2, 57508, Note_on_c, 0, 57, 0
2, 57527, Note_on_c, 0, 61, 45
2, 57528, Note_on_c, 0, 64, 0
2, 57665, Note_on_c, 0, 61, 0
2, 57691, Note_on_c, 0, 59, 46
2, 57695, Note_on_c, 0, 47, 32
2, 57712, Control_c, 0, 64, 0
2, 57746, Control_c, 0, 64, 127
2, 57767, Note_on_c, 0, 59, 0
2, 57770, Note_on_c, 0, 68, 0
2, 57827, Note_on_c, 0, 54, 26
2, 57830, Note_on_c, 0, 73, 55
2, 57888, Note_on_c, 0, 47, 0
2, 57913, Note_on_c, 0, 54, 0
2, 57948, Note_on_c, 0, 66, 37
2, 57948, Note_on_c, 0, 62, 46
2, 57951, Note_on_c, 0, 61, 48
2, 58060, Note_on_c, 0, 61, 0
2, 58075, Note_on_c, 0, 59, 80
2, 58087, Note_on_c, 0, 62, 0
2, 58110, Note_on_c, 0, 66, 0
2, 58193, Note_on_c, 0, 66, 58
2, 58194, Note_on_c, 0, 59, 0
2, 58198, Note_on_c, 0, 62, 55
2, 58200, Note_on_c, 0, 73, 0
2, 58304, Note_on_c, 0, 54, 88
2, 58324, Control_c, 0, 64, 0
2, 58356, Control_c, 0, 64, 127
2, 58362, Note_on_c, 0, 62, 0
2, 58374, Note_on_c, 0, 66, 0
2, 58397, Note_on_c, 0, 62, 62
2, 58481, Note_on_c, 0, 47, 79
2, 58497, Note_on_c, 0, 54, 0
2, 58502, Control_c, 0, 64, 0
2, 58506, Note_on_c, 0, 62, 0
2, 58512, Control_c, 0, 64, 127
2, 58570, Control_c, 0, 64, 0
2, 58572, Note_on_c, 0, 66, 60
2, 58574, Note_on_c, 0, 62, 67
2, 58575, Note_on_c, 0, 57, 65
2, 58581, Note_on_c, 0, 54, 59
2, 58606, Control_c, 0, 64, 127
2, 58625, Note_on_c, 0, 57, 0
2, 58649, Note_on_c, 0, 54, 0
2, 58669, Note_on_c, 0, 62, 0
2, 58677, Note_on_c, 0, 54, 61
2, 58679, Note_on_c, 0, 66, 0
2, 58787, Note_on_c, 0, 73, 42
2, 58790, Note_on_c, 0, 69, 64
2, 58791, Note_on_c, 0, 59, 46
2, 58810, Note_on_c, 0, 54, 0
2, 58899, Note_on_c, 0, 54, 49
2, 58904, Note_on_c, 0, 69, 0
2, 58910, Note_on_c, 0, 73, 0
2, 58911, Note_on_c, 0, 59, 0
2, 59039, Note_on_c, 0, 54, 0
2, 59126, Note_on_c, 0, 54, 49
2, 59219, Note_on_c, 0, 54, 0
2, 59237, Note_on_c, 0, 47, 0
2, 59250, Note_on_c, 0, 66, 47
2, 59252, Note_on_c, 0, 62, 46
2, 59378, Note_on_c, 0, 47, 35
2, 59427, Note_on_c, 0, 66, 0
2, 59525, Note_on_c, 0, 35, 58
2, 59542, Control_c, 0, 64, 0
2, 59571, Control_c, 0, 64, 127
2, 59625, Note_on_c, 0, 62, 0
2, 59630, Note_on_c, 0, 47, 0
2, 59686, Note_on_c, 0, 35, 0
2, 59695, Note_on_c, 0, 47, 41
2, 59739, Note_on_c, 0, 47, 0
2, 60591, Note_on_c, 0, 47, 25
2, 60613, Note_on_c, 0, 54, 25
2, 60654, Note_on_c, 0, 62, 30
2, 60658, Note_on_c, 0, 61, 38
2, 60678, Note_on_c, 0, 69, 47
2, 60705, Note_on_c, 0, 76, 37
2, 60759, Note_on_c, 0, 62, 0
2, 60782, Note_on_c, 0, 69, 0
2, 60791, Note_on_c, 0, 76, 0
2, 60832, Note_on_c, 0, 61, 0
2, 60852, Note_on_c, 0, 88, 55
2, 60871, Note_on_c, 0, 88, 0
2, 61001, Note_on_c, 0, 88, 44
2, 61014, Note_on_c, 0, 100, 47
2, 61080, Note_on_c, 0, 47, 0
2, 61091, Note_on_c, 0, 54, 0
2, 61371, Note_on_c, 0, 23, 62
2, 61402, Note_on_c, 0, 23, 0
2, 61426, Note_on_c, 0, 88, 0
2, 61434, Note_on_c, 0, 100, 0
2, 62074, Control_c, 0, 64, 0
2, 62074, End_track
0, 0, End_of_file
