0, 0, Header, 1, 6, 120
1, 0, Start_track
1, 0, Title_t, "untitled"
1, 0, Text_t, "Doug McK\012"
1, 0, Time_signature, 4, 2, 24, 8
1, 0, Key_signature, 0, "major"
1, 0, Tempo, 363636
1, 0, Marker_t, "Form  - 'A' section is Dm11 (D dorian). Bridge is B7sus (B mixolydian)"
1, 0, End_track
2, 0, Start_track
2, 0, Title_t, "'Effendi' By McCoy Tyner sequenced by Doug McKenzie"
2, 0, Program_c, 1, 32
2, 559, Note_on_c, 1, 38, 27
2, 584, Note_on_c, 1, 38, 0
2, 605, Note_on_c, 1, 43, 50
2, 639, Note_on_c, 1, 43, 0
2, 681, Note_on_c, 1, 47, 70
2, 728, Note_on_c, 1, 47, 0
2, 732, Note_on_c, 1, 45, 60
2, 833, Note_on_c, 1, 45, 0
2, 846, Note_on_c, 1, 48, 67
2, 908, Note_on_c, 1, 48, 0
2, 925, Note_on_c, 1, 50, 92
2, 998, Pitch_bend_c, 1, 8192
2, 1000, Pitch_bend_c, 1, 8192
2, 1002, Pitch_bend_c, 1, 8192
2, 1004, Pitch_bend_c, 1, 8192
2, 1007, Pitch_bend_c, 1, 7680
2, 1009, Pitch_bend_c, 1, 7552
2, 1011, Pitch_bend_c, 1, 7296
2, 1013, Pitch_bend_c, 1, 7168
2, 1014, Pitch_bend_c, 1, 7040
2, 1015, Pitch_bend_c, 1, 6912
2, 1016, Pitch_bend_c, 1, 6784
2, 1019, Pitch_bend_c, 1, 6528
2, 1022, Pitch_bend_c, 1, 6272
2, 1023, Pitch_bend_c, 1, 6144
2, 1024, Pitch_bend_c, 1, 6016
2, 1025, Pitch_bend_c, 1, 5888
2, 1028, Pitch_bend_c, 1, 5760
2, 1029, Pitch_bend_c, 1, 5632
2, 1031, Pitch_bend_c, 1, 5504
2, 1034, Pitch_bend_c, 1, 5120
2, 1036, Pitch_bend_c, 1, 4992
2, 1039, Pitch_bend_c, 1, 4736
2, 1041, Pitch_bend_c, 1, 4608
2, 1045, Pitch_bend_c, 1, 4352
2, 1046, Pitch_bend_c, 1, 4224
2, 1047, Pitch_bend_c, 1, 4096
2, 1048, Pitch_bend_c, 1, 3968
2, 1051, Pitch_bend_c, 1, 3840
2, 1053, Pitch_bend_c, 1, 3584
2, 1056, Pitch_bend_c, 1, 3456
2, 1057, Note_on_c, 1, 50, 0
2, 1059, Pitch_bend_c, 1, 3328
2, 1060, Pitch_bend_c, 1, 3200
2, 1063, Pitch_bend_c, 1, 2944
2, 1064, Pitch_bend_c, 1, 2816
2, 1065, Pitch_bend_c, 1, 2688
2, 1068, Pitch_bend_c, 1, 2560
2, 1070, Pitch_bend_c, 1, 2304
2, 1073, Pitch_bend_c, 1, 2176
2, 1074, Pitch_bend_c, 1, 2048
2, 1075, Pitch_bend_c, 1, 1920
2, 1078, Pitch_bend_c, 1, 1792
2, 1081, Pitch_bend_c, 1, 1664
2, 1083, Pitch_bend_c, 1, 1536
2, 1090, Pitch_bend_c, 1, 1408
2, 1096, Pitch_bend_c, 1, 1536
2, 1098, Pitch_bend_c, 1, 1664
2, 1100, Pitch_bend_c, 1, 1920
2, 1101, Pitch_bend_c, 1, 2048
2, 1103, Pitch_bend_c, 1, 2304
2, 1104, Pitch_bend_c, 1, 2432
2, 1105, Pitch_bend_c, 1, 2816
2, 1107, Pitch_bend_c, 1, 3328
2, 1108, Pitch_bend_c, 1, 4096
2, 1109, Pitch_bend_c, 1, 4864
2, 1110, Pitch_bend_c, 1, 5760
2, 1112, Pitch_bend_c, 1, 6528
2, 1113, Pitch_bend_c, 1, 6912
2, 1114, Pitch_bend_c, 1, 7168
2, 1116, Pitch_bend_c, 1, 7424
2, 1117, Pitch_bend_c, 1, 7552
2, 1118, Pitch_bend_c, 1, 8192
2, 1119, Pitch_bend_c, 1, 8192
2, 1120, Pitch_bend_c, 1, 8192
2, 1754, Note_on_c, 1, 38, 59
2, 1778, Note_on_c, 1, 38, 0
2, 1805, Note_on_c, 1, 43, 54
2, 1825, Note_on_c, 1, 43, 0
2, 1876, Note_on_c, 1, 48, 101
2, 1914, Note_on_c, 1, 48, 0
2, 1925, Note_on_c, 1, 47, 96
2, 2034, Note_on_c, 1, 47, 0
2, 2043, Note_on_c, 1, 48, 75
2, 2114, Note_on_c, 1, 48, 0
2, 2117, Note_on_c, 1, 45, 90
2, 2269, Note_on_c, 1, 45, 0
2, 2478, Note_on_c, 1, 38, 49
2, 2499, Note_on_c, 1, 38, 0
2, 2526, Note_on_c, 1, 41, 48
2, 2535, Note_on_c, 1, 41, 0
2, 2599, Note_on_c, 1, 45, 99
2, 2633, Note_on_c, 1, 45, 0
2, 2645, Note_on_c, 1, 43, 99
2, 2706, Note_on_c, 1, 43, 0
2, 2719, Note_on_c, 1, 43, 50
2, 2763, Note_on_c, 1, 43, 0
2, 2766, Note_on_c, 1, 45, 81
2, 2833, Note_on_c, 1, 45, 0
2, 2839, Note_on_c, 1, 43, 101
2, 2906, Pitch_bend_c, 1, 8192
2, 2909, Pitch_bend_c, 1, 8192
2, 2912, Pitch_bend_c, 1, 8192
2, 2919, Pitch_bend_c, 1, 8192
2, 2929, Pitch_bend_c, 1, 7680
2, 2934, Pitch_bend_c, 1, 7552
2, 2939, Pitch_bend_c, 1, 7424
2, 2943, Pitch_bend_c, 1, 7296
2, 2946, Pitch_bend_c, 1, 7168
2, 2950, Pitch_bend_c, 1, 7040
2, 2952, Pitch_bend_c, 1, 6912
2, 2955, Pitch_bend_c, 1, 6784
2, 2958, Pitch_bend_c, 1, 6656
2, 2961, Pitch_bend_c, 1, 6400
2, 2964, Pitch_bend_c, 1, 6272
2, 2966, Pitch_bend_c, 1, 6016
2, 2969, Pitch_bend_c, 1, 5888
2, 2971, Pitch_bend_c, 1, 5760
2, 2972, Pitch_bend_c, 1, 5632
2, 2974, Pitch_bend_c, 1, 5504
2, 2976, Pitch_bend_c, 1, 5376
2, 2978, Pitch_bend_c, 1, 4992
2, 2979, Pitch_bend_c, 1, 4864
2, 2982, Pitch_bend_c, 1, 4736
2, 2985, Pitch_bend_c, 1, 4480
2, 2988, Pitch_bend_c, 1, 4352
2, 2990, Pitch_bend_c, 1, 4096
2, 2993, Pitch_bend_c, 1, 3968
2, 2994, Pitch_bend_c, 1, 3840
2, 2997, Pitch_bend_c, 1, 3712
2, 3000, Pitch_bend_c, 1, 3584
2, 3004, Pitch_bend_c, 1, 3328
2, 3005, Pitch_bend_c, 1, 3200
2, 3009, Pitch_bend_c, 1, 3072
2, 3011, Pitch_bend_c, 1, 2944
2, 3013, Pitch_bend_c, 1, 2816
2, 3015, Pitch_bend_c, 1, 2688
2, 3018, Pitch_bend_c, 1, 2432
2, 3021, Pitch_bend_c, 1, 2304
2, 3023, Pitch_bend_c, 1, 2176
2, 3024, Pitch_bend_c, 1, 2048
2, 3025, Pitch_bend_c, 1, 1920
2, 3028, Pitch_bend_c, 1, 1792
2, 3029, Pitch_bend_c, 1, 1664
2, 3032, Pitch_bend_c, 1, 1408
2, 3033, Pitch_bend_c, 1, 1280
2, 3034, Pitch_bend_c, 1, 1152
2, 3035, Note_on_c, 1, 43, 0
2, 3036, Pitch_bend_c, 1, 1024
2, 3039, Pitch_bend_c, 1, 768
2, 3043, Pitch_bend_c, 1, 640
2, 3050, Pitch_bend_c, 1, 512
2, 3053, Pitch_bend_c, 1, 384
2, 3066, Pitch_bend_c, 1, 512
2, 3068, Pitch_bend_c, 1, 640
2, 3072, Pitch_bend_c, 1, 768
2, 3073, Pitch_bend_c, 1, 896
2, 3076, Pitch_bend_c, 1, 1152
2, 3077, Pitch_bend_c, 1, 1280
2, 3078, Pitch_bend_c, 1, 1536
2, 3079, Pitch_bend_c, 1, 1664
2, 3081, Pitch_bend_c, 1, 1792
2, 3082, Pitch_bend_c, 1, 2176
2, 3083, Pitch_bend_c, 1, 2432
2, 3085, Pitch_bend_c, 1, 2816
2, 3086, Pitch_bend_c, 1, 3328
2, 3087, Pitch_bend_c, 1, 3840
2, 3088, Pitch_bend_c, 1, 4480
2, 3090, Pitch_bend_c, 1, 4864
2, 3091, Pitch_bend_c, 1, 5504
2, 3092, Pitch_bend_c, 1, 5888
2, 3094, Pitch_bend_c, 1, 6272
2, 3095, Pitch_bend_c, 1, 6656
2, 3096, Pitch_bend_c, 1, 7040
2, 3097, Pitch_bend_c, 1, 7424
2, 3099, Pitch_bend_c, 1, 7680
2, 3100, Pitch_bend_c, 1, 8192
2, 3101, Pitch_bend_c, 1, 8192
2, 3434, Note_on_c, 1, 38, 44
2, 3454, Note_on_c, 1, 38, 0
2, 3480, Note_on_c, 1, 41, 54
2, 3503, Note_on_c, 1, 41, 0
2, 3556, Note_on_c, 1, 45, 77
2, 3572, Note_on_c, 1, 45, 0
2, 3601, Note_on_c, 1, 47, 84
2, 3659, Note_on_c, 1, 47, 0
2, 3675, Note_on_c, 1, 48, 44
2, 3700, Note_on_c, 1, 48, 0
2, 3723, Note_on_c, 1, 47, 78
2, 3729, Note_on_c, 1, 47, 0
2, 3794, Note_on_c, 1, 45, 74
2, 3912, Note_on_c, 1, 45, 0
2, 3912, Note_on_c, 1, 47, 77
2, 3955, Note_on_c, 1, 47, 0
2, 3964, Note_on_c, 1, 45, 60
2, 4026, Note_on_c, 1, 45, 0
2, 4032, Note_on_c, 1, 43, 92
2, 4218, Note_on_c, 1, 43, 0
2, 4402, Note_on_c, 1, 42, 88
2, 4432, Note_on_c, 1, 42, 0
2, 4444, Note_on_c, 1, 44, 77
2, 4508, Note_on_c, 1, 44, 0
2, 4518, Note_on_c, 1, 45, 101
2, 4619, Note_on_c, 1, 45, 0
2, 4635, Note_on_c, 1, 44, 90
2, 4689, Note_on_c, 1, 42, 53
2, 4694, Note_on_c, 1, 44, 0
2, 4743, Note_on_c, 1, 42, 0
2, 4758, Note_on_c, 1, 47, 92
2, 4811, Pitch_bend_c, 1, 8192
2, 4813, Pitch_bend_c, 1, 8192
2, 4816, Pitch_bend_c, 1, 8192
2, 4819, Pitch_bend_c, 1, 7680
2, 4822, Pitch_bend_c, 1, 7552
2, 4825, Pitch_bend_c, 1, 7296
2, 4826, Pitch_bend_c, 1, 7168
2, 4829, Pitch_bend_c, 1, 7040
2, 4830, Pitch_bend_c, 1, 6912
2, 4832, Pitch_bend_c, 1, 6784
2, 4835, Pitch_bend_c, 1, 6656
2, 4838, Pitch_bend_c, 1, 6528
2, 4839, Pitch_bend_c, 1, 6400
2, 4841, Pitch_bend_c, 1, 6272
2, 4843, Pitch_bend_c, 1, 6144
2, 4845, Pitch_bend_c, 1, 6016
2, 4847, Pitch_bend_c, 1, 5888
2, 4850, Pitch_bend_c, 1, 5632
2, 4853, Pitch_bend_c, 1, 5504
2, 4856, Pitch_bend_c, 1, 5376
2, 4859, Pitch_bend_c, 1, 5120
2, 4862, Pitch_bend_c, 1, 4992
2, 4865, Pitch_bend_c, 1, 4864
2, 4868, Pitch_bend_c, 1, 4736
2, 4871, Pitch_bend_c, 1, 4608
2, 4875, Pitch_bend_c, 1, 4480
2, 4879, Pitch_bend_c, 1, 4352
2, 4882, Pitch_bend_c, 1, 4224
2, 4885, Pitch_bend_c, 1, 4096
2, 4888, Note_on_c, 1, 47, 0
2, 4888, Pitch_bend_c, 1, 3840
2, 4892, Pitch_bend_c, 1, 3712
2, 4894, Pitch_bend_c, 1, 3584
2, 4898, Pitch_bend_c, 1, 3456
2, 4901, Pitch_bend_c, 1, 3200
2, 4905, Pitch_bend_c, 1, 3072
2, 4911, Pitch_bend_c, 1, 2944
2, 4927, Pitch_bend_c, 1, 3072
2, 4928, Pitch_bend_c, 1, 3200
2, 4930, Pitch_bend_c, 1, 3456
2, 4931, Pitch_bend_c, 1, 3584
2, 4932, Pitch_bend_c, 1, 3712
2, 4934, Pitch_bend_c, 1, 3968
2, 4935, Pitch_bend_c, 1, 4352
2, 4936, Pitch_bend_c, 1, 4608
2, 4937, Pitch_bend_c, 1, 4992
2, 4939, Pitch_bend_c, 1, 5504
2, 4940, Pitch_bend_c, 1, 5888
2, 4941, Pitch_bend_c, 1, 6272
2, 4943, Pitch_bend_c, 1, 6656
2, 4944, Pitch_bend_c, 1, 7168
2, 4945, Pitch_bend_c, 1, 7552
2, 4946, Pitch_bend_c, 1, 8192
2, 4947, Pitch_bend_c, 1, 8192
2, 4948, Pitch_bend_c, 1, 8192
2, 5594, Note_on_c, 1, 42, 72
2, 5626, Note_on_c, 1, 42, 0
2, 5636, Note_on_c, 1, 44, 64
2, 5684, Note_on_c, 1, 44, 0
2, 5713, Note_on_c, 1, 45, 99
2, 5826, Note_on_c, 1, 45, 0
2, 5831, Note_on_c, 1, 44, 76
2, 5873, Note_on_c, 1, 44, 0
2, 5885, Note_on_c, 1, 42, 46
2, 5957, Note_on_c, 1, 35, 82
2, 5971, Note_on_c, 1, 42, 0
2, 6111, Note_on_c, 1, 35, 0
2, 6319, Note_on_c, 1, 42, 83
2, 6343, Note_on_c, 1, 42, 0
2, 6362, Note_on_c, 1, 44, 76
2, 6410, Note_on_c, 1, 44, 0
2, 6440, Note_on_c, 1, 45, 110
2, 6539, Note_on_c, 1, 45, 0
2, 6557, Note_on_c, 1, 44, 72
2, 6595, Note_on_c, 1, 44, 0
2, 6604, Note_on_c, 1, 42, 44
2, 6669, Note_on_c, 1, 42, 0
2, 6674, Note_on_c, 1, 47, 77
2, 6895, Note_on_c, 1, 47, 0
2, 7515, Note_on_c, 1, 42, 74
2, 7547, Note_on_c, 1, 42, 0
2, 7559, Note_on_c, 1, 44, 57
2, 7619, Note_on_c, 1, 44, 0
2, 7633, Note_on_c, 1, 45, 99
2, 7746, Note_on_c, 1, 45, 0
2, 7753, Note_on_c, 1, 44, 63
2, 7791, Note_on_c, 1, 44, 0
2, 7802, Note_on_c, 1, 42, 62
2, 7872, Note_on_c, 1, 42, 0
2, 7875, Note_on_c, 1, 35, 83
2, 8045, Note_on_c, 1, 35, 0
2, 8237, Note_on_c, 1, 38, 56
2, 8263, Note_on_c, 1, 38, 0
2, 8286, Note_on_c, 1, 43, 54
2, 8296, Note_on_c, 1, 43, 0
2, 8396, Note_on_c, 1, 45, 72
2, 8506, Note_on_c, 1, 45, 0
2, 8515, Note_on_c, 1, 48, 84
2, 8582, Note_on_c, 1, 48, 0
2, 8590, Note_on_c, 1, 50, 95
2, 8784, Note_on_c, 1, 50, 0
2, 9442, Note_on_c, 1, 38, 64
2, 9465, Note_on_c, 1, 38, 0
2, 9489, Note_on_c, 1, 43, 62
2, 9505, Note_on_c, 1, 43, 0
2, 9562, Note_on_c, 1, 48, 96
2, 9599, Note_on_c, 1, 48, 0
2, 9608, Note_on_c, 1, 47, 77
2, 9719, Note_on_c, 1, 47, 0
2, 9722, Note_on_c, 1, 48, 80
2, 9728, Note_on_c, 1, 47, 26
2, 9735, Note_on_c, 1, 47, 0
2, 9792, Note_on_c, 1, 48, 0
2, 9796, Note_on_c, 1, 45, 87
2, 10085, Note_on_c, 1, 45, 0
2, 10159, Note_on_c, 1, 38, 76
2, 10191, Note_on_c, 1, 38, 0
2, 10205, Note_on_c, 1, 41, 65
2, 10220, Note_on_c, 1, 41, 0
2, 10277, Note_on_c, 1, 45, 101
2, 10317, Note_on_c, 1, 45, 0
2, 10324, Note_on_c, 1, 43, 96
2, 10443, Note_on_c, 1, 43, 0
2, 10445, Note_on_c, 1, 45, 75
2, 10516, Note_on_c, 1, 43, 89
2, 10518, Note_on_c, 1, 45, 0
2, 10713, Note_on_c, 1, 43, 0
2, 11112, Note_on_c, 1, 38, 57
2, 11148, Note_on_c, 1, 38, 0
2, 11159, Note_on_c, 1, 41, 52
2, 11169, Note_on_c, 1, 41, 0
2, 11235, Note_on_c, 1, 45, 66
2, 11250, Note_on_c, 1, 45, 0
2, 11276, Note_on_c, 1, 47, 92
2, 11348, Note_on_c, 1, 47, 0
2, 11352, Note_on_c, 1, 48, 70
2, 11388, Note_on_c, 1, 48, 0
2, 11399, Note_on_c, 1, 47, 46
2, 11465, Note_on_c, 1, 47, 0
2, 11473, Note_on_c, 1, 45, 99
2, 11481, Note_on_c, 1, 47, 25
2, 11487, Note_on_c, 1, 47, 0
2, 11599, Note_on_c, 1, 47, 70
2, 11600, Note_on_c, 1, 45, 0
2, 11640, Note_on_c, 1, 47, 0
2, 11643, Note_on_c, 1, 45, 53
2, 11708, Note_on_c, 1, 45, 0
2, 11718, Note_on_c, 1, 43, 125
2, 11944, Note_on_c, 1, 43, 0
2, 11999, Note_on_c, 1, 38, 57
2, 12081, Note_on_c, 1, 45, 123
2, 12085, Note_on_c, 1, 47, 59
2, 12090, Note_on_c, 1, 47, 0
2, 12107, Note_on_c, 1, 38, 0
2, 12120, Note_on_c, 1, 45, 0
2, 12127, Note_on_c, 1, 43, 54
2, 12204, Note_on_c, 1, 38, 44
2, 12214, Note_on_c, 1, 38, 0
2, 12225, Note_on_c, 1, 43, 0
2, 12243, Note_on_c, 1, 41, 64
2, 12355, Note_on_c, 1, 41, 0
2, 12361, Note_on_c, 1, 40, 55
2, 12464, Note_on_c, 1, 40, 0
2, 12479, Note_on_c, 1, 38, 50
2, 12598, Note_on_c, 1, 33, 85
2, 12611, Note_on_c, 1, 38, 0
2, 12720, Note_on_c, 1, 36, 80
2, 12741, Note_on_c, 1, 33, 0
2, 12800, Note_on_c, 1, 33, 54
2, 12814, Note_on_c, 1, 33, 0
2, 12816, Note_on_c, 1, 36, 0
2, 12836, Note_on_c, 1, 37, 90
2, 12917, Note_on_c, 1, 33, 38
2, 12926, Note_on_c, 1, 33, 0
2, 12948, Note_on_c, 1, 37, 0
2, 12958, Note_on_c, 1, 38, 64
2, 12976, Note_on_c, 1, 38, 0
2, 12996, Note_on_c, 1, 33, 56
2, 13013, Note_on_c, 1, 33, 0
2, 13034, Note_on_c, 1, 32, 71
2, 13070, Note_on_c, 1, 32, 0
2, 13079, Note_on_c, 1, 31, 81
2, 13199, Note_on_c, 1, 31, 0
2, 13201, Note_on_c, 1, 32, 77
2, 13315, Note_on_c, 1, 32, 0
2, 13315, Note_on_c, 1, 33, 74
2, 13401, Note_on_c, 1, 40, 108
2, 13402, Note_on_c, 1, 41, 79
2, 13407, Note_on_c, 1, 41, 0
2, 13420, Note_on_c, 1, 33, 0
2, 13435, Note_on_c, 1, 40, 0
2, 13440, Note_on_c, 1, 38, 83
2, 13509, Note_on_c, 1, 38, 0
2, 13520, Note_on_c, 1, 38, 68
2, 13563, Note_on_c, 1, 50, 80
2, 13671, Note_on_c, 1, 50, 0
2, 13679, Note_on_c, 1, 45, 82
2, 13744, Note_on_c, 1, 38, 0
2, 13775, Note_on_c, 1, 36, 36
2, 13786, Note_on_c, 1, 36, 0
2, 13791, Note_on_c, 1, 45, 0
2, 13802, Note_on_c, 1, 40, 66
2, 13802, Note_on_c, 1, 41, 60
2, 13824, Note_on_c, 1, 41, 0
2, 13916, Note_on_c, 1, 40, 0
2, 13918, Note_on_c, 1, 38, 67
2, 14046, Note_on_c, 1, 33, 73
2, 14057, Note_on_c, 1, 38, 0
2, 14165, Note_on_c, 1, 31, 68
2, 14172, Note_on_c, 1, 33, 0
2, 14251, Note_on_c, 1, 33, 39
2, 14268, Note_on_c, 1, 33, 0
2, 14279, Note_on_c, 1, 39, 78
2, 14284, Note_on_c, 1, 31, 0
2, 14366, Note_on_c, 1, 33, 36
2, 14374, Note_on_c, 1, 33, 0
2, 14393, Note_on_c, 1, 39, 0
2, 14401, Note_on_c, 1, 38, 73
2, 14522, Note_on_c, 1, 33, 80
2, 14532, Note_on_c, 1, 38, 0
2, 14605, Note_on_c, 1, 38, 34
2, 14613, Note_on_c, 1, 38, 0
2, 14643, Note_on_c, 1, 41, 115
2, 14646, Note_on_c, 1, 33, 0
2, 14712, Note_on_c, 1, 41, 0
2, 14720, Note_on_c, 1, 41, 88
2, 14756, Note_on_c, 1, 41, 0
2, 14763, Note_on_c, 1, 40, 90
2, 14842, Note_on_c, 1, 37, 80
2, 14844, Note_on_c, 1, 40, 0
2, 14870, Note_on_c, 1, 37, 0
2, 14881, Note_on_c, 1, 38, 94
2, 14993, Note_on_c, 1, 38, 0
2, 15001, Note_on_c, 1, 33, 101
2, 15005, Note_on_c, 1, 38, 58
2, 15010, Note_on_c, 1, 38, 0
2, 15122, Note_on_c, 1, 36, 96
2, 15134, Note_on_c, 1, 33, 0
2, 15241, Note_on_c, 1, 33, 80
2, 15250, Note_on_c, 1, 36, 0
2, 15361, Note_on_c, 1, 38, 96
2, 15373, Note_on_c, 1, 33, 0
2, 15434, Note_on_c, 1, 38, 0
2, 15441, Note_on_c, 1, 38, 83
2, 15479, Note_on_c, 1, 41, 125
2, 15486, Note_on_c, 1, 38, 0
2, 15599, Note_on_c, 1, 41, 0
2, 15605, Note_on_c, 1, 40, 95
2, 15718, Note_on_c, 1, 40, 0
2, 15721, Note_on_c, 1, 37, 82
2, 15832, Note_on_c, 1, 37, 0
2, 15840, Note_on_c, 1, 38, 71
2, 15965, Note_on_c, 1, 45, 110
2, 15981, Note_on_c, 1, 38, 0
2, 16082, Note_on_c, 1, 45, 0
2, 16089, Note_on_c, 1, 43, 76
2, 16198, Note_on_c, 1, 43, 0
2, 16203, Note_on_c, 1, 41, 83
2, 16317, Note_on_c, 1, 41, 0
2, 16322, Note_on_c, 1, 40, 80
2, 16385, Note_on_c, 1, 40, 0
2, 16401, Note_on_c, 1, 40, 66
2, 16432, Note_on_c, 1, 40, 0
2, 16444, Note_on_c, 1, 38, 80
2, 16562, Note_on_c, 1, 33, 77
2, 16564, Note_on_c, 1, 38, 0
2, 16629, Note_on_c, 1, 33, 0
2, 16642, Note_on_c, 1, 33, 62
2, 16672, Note_on_c, 1, 33, 0
2, 16682, Note_on_c, 1, 36, 94
2, 16797, Note_on_c, 1, 36, 0
2, 16800, Note_on_c, 1, 38, 88
2, 16886, Note_on_c, 1, 45, 34
2, 16894, Note_on_c, 1, 45, 0
2, 16921, Note_on_c, 1, 52, 101
2, 17037, Note_on_c, 1, 52, 0
2, 17045, Note_on_c, 1, 50, 74
2, 17159, Note_on_c, 1, 50, 0
2, 17164, Note_on_c, 1, 45, 74
2, 17273, Note_on_c, 1, 45, 0
2, 17281, Note_on_c, 1, 48, 91
2, 17299, Note_on_c, 1, 38, 0
2, 17367, Note_on_c, 1, 38, 50
2, 17374, Note_on_c, 1, 38, 0
2, 17399, Note_on_c, 1, 48, 0
2, 17401, Note_on_c, 1, 43, 84
2, 17515, Note_on_c, 1, 43, 0
2, 17521, Note_on_c, 1, 41, 68
2, 17604, Note_on_c, 1, 40, 58
2, 17623, Note_on_c, 1, 41, 0
2, 17632, Note_on_c, 1, 40, 0
2, 17642, Note_on_c, 1, 37, 78
2, 17762, Note_on_c, 1, 37, 0
2, 17766, Note_on_c, 1, 38, 68
2, 17846, Note_on_c, 1, 43, 108
2, 17875, Note_on_c, 1, 38, 0
2, 17879, Note_on_c, 1, 43, 0
2, 17888, Note_on_c, 1, 41, 73
2, 17967, Note_on_c, 1, 38, 53
2, 17976, Note_on_c, 1, 38, 0
2, 17999, Note_on_c, 1, 41, 0
2, 18007, Note_on_c, 1, 40, 79
2, 18120, Note_on_c, 1, 40, 0
2, 18124, Note_on_c, 1, 37, 75
2, 18230, Note_on_c, 1, 37, 0
2, 18241, Note_on_c, 1, 38, 72
2, 18326, Note_on_c, 1, 33, 76
2, 18338, Note_on_c, 1, 38, 0
2, 18350, Note_on_c, 1, 33, 0
2, 18364, Note_on_c, 1, 29, 71
2, 18484, Note_on_c, 1, 29, 0
2, 18488, Note_on_c, 1, 31, 80
2, 18568, Note_on_c, 1, 31, 0
2, 18568, Note_on_c, 1, 32, 67
2, 18596, Note_on_c, 1, 32, 0
2, 18605, Note_on_c, 1, 33, 79
2, 18701, Note_on_c, 1, 32, 33
2, 18714, Note_on_c, 1, 32, 0
2, 18716, Note_on_c, 1, 33, 0
2, 18725, Note_on_c, 1, 38, 89
2, 18839, Note_on_c, 1, 38, 0
2, 18843, Note_on_c, 1, 40, 101
2, 18940, Note_on_c, 1, 40, 0
2, 18962, Note_on_c, 1, 41, 96
2, 19029, Note_on_c, 1, 41, 0
2, 19044, Note_on_c, 1, 41, 87
2, 19072, Note_on_c, 1, 41, 0
2, 19082, Note_on_c, 1, 40, 87
2, 19192, Note_on_c, 1, 40, 0
2, 19203, Note_on_c, 1, 38, 69
2, 19320, Note_on_c, 1, 33, 91
2, 19323, Note_on_c, 1, 38, 0
2, 19443, Note_on_c, 1, 38, 108
2, 19448, Note_on_c, 1, 33, 0
2, 19517, Note_on_c, 1, 38, 0
2, 19530, Note_on_c, 1, 33, 65
2, 19548, Note_on_c, 1, 33, 0
2, 19561, Note_on_c, 1, 34, 93
2, 19659, Note_on_c, 1, 32, 33
2, 19676, Note_on_c, 1, 34, 0
2, 19678, Note_on_c, 1, 32, 0
2, 19683, Note_on_c, 1, 35, 92
2, 19764, Note_on_c, 1, 34, 34
2, 19775, Note_on_c, 1, 34, 0
2, 19780, Note_on_c, 1, 32, 21
2, 19791, Note_on_c, 1, 32, 0
2, 19799, Note_on_c, 1, 47, 113
2, 19917, Note_on_c, 1, 47, 0
2, 19924, Note_on_c, 1, 45, 94
2, 20002, Note_on_c, 1, 34, 35
2, 20022, Note_on_c, 1, 34, 0
2, 20026, Note_on_c, 1, 35, 0
2, 20031, Note_on_c, 1, 45, 0
2, 20036, Note_on_c, 1, 42, 84
2, 20127, Note_on_c, 1, 34, 25
2, 20133, Note_on_c, 1, 34, 0
2, 20152, Note_on_c, 1, 42, 0
2, 20158, Note_on_c, 1, 40, 82
2, 20241, Note_on_c, 1, 35, 33
2, 20253, Note_on_c, 1, 35, 0
2, 20265, Note_on_c, 1, 40, 0
2, 20282, Note_on_c, 1, 39, 77
2, 20397, Note_on_c, 1, 39, 0
2, 20401, Note_on_c, 1, 37, 73
2, 20482, Note_on_c, 1, 33, 56
2, 20483, Note_on_c, 1, 37, 0
2, 20501, Note_on_c, 1, 33, 0
2, 20518, Note_on_c, 1, 34, 77
2, 20626, Note_on_c, 1, 32, 20
2, 20633, Note_on_c, 1, 32, 0
2, 20634, Note_on_c, 1, 34, 0
2, 20640, Note_on_c, 1, 35, 74
2, 20707, Note_on_c, 1, 35, 0
2, 20720, Note_on_c, 1, 35, 54
2, 20749, Note_on_c, 1, 35, 0
2, 20758, Note_on_c, 1, 33, 82
2, 20878, Note_on_c, 1, 33, 0
2, 20882, Note_on_c, 1, 35, 80
2, 21001, Note_on_c, 1, 39, 82
2, 21028, Note_on_c, 1, 35, 0
2, 21081, Note_on_c, 1, 35, 52
2, 21096, Note_on_c, 1, 35, 0
2, 21112, Note_on_c, 1, 39, 0
2, 21117, Note_on_c, 1, 40, 71
2, 21200, Note_on_c, 1, 35, 36
2, 21215, Note_on_c, 1, 35, 0
2, 21231, Note_on_c, 1, 40, 0
2, 21241, Note_on_c, 1, 41, 85
2, 21352, Note_on_c, 1, 41, 0
2, 21363, Note_on_c, 1, 42, 78
2, 21460, Note_on_c, 1, 42, 0
2, 21480, Note_on_c, 1, 45, 91
2, 21528, Note_on_c, 1, 45, 0
2, 21561, Note_on_c, 1, 47, 105
2, 21601, Note_on_c, 1, 47, 0
2, 21608, Note_on_c, 1, 47, 79
2, 21720, Note_on_c, 1, 47, 0
2, 21727, Note_on_c, 1, 42, 69
2, 21820, Note_on_c, 1, 42, 0
2, 21840, Note_on_c, 1, 45, 85
2, 21952, Note_on_c, 1, 45, 0
2, 21962, Note_on_c, 1, 42, 79
2, 22077, Note_on_c, 1, 42, 0
2, 22084, Note_on_c, 1, 40, 72
2, 22143, Note_on_c, 1, 40, 0
2, 22160, Note_on_c, 1, 40, 54
2, 22186, Note_on_c, 1, 40, 0
2, 22203, Note_on_c, 1, 39, 72
2, 22318, Note_on_c, 1, 39, 0
2, 22322, Note_on_c, 1, 37, 74
2, 22437, Note_on_c, 1, 37, 0
2, 22442, Note_on_c, 1, 34, 82
2, 22557, Note_on_c, 1, 34, 0
2, 22564, Note_on_c, 1, 35, 68
2, 22633, Note_on_c, 1, 35, 0
2, 22642, Note_on_c, 1, 35, 46
2, 22668, Note_on_c, 1, 35, 0
2, 22677, Note_on_c, 1, 37, 92
2, 22741, Note_on_c, 1, 37, 0
2, 22758, Note_on_c, 1, 37, 32
2, 22777, Note_on_c, 1, 37, 0
2, 22794, Note_on_c, 1, 39, 83
2, 22910, Note_on_c, 1, 39, 0
2, 22919, Note_on_c, 1, 34, 82
2, 23042, Note_on_c, 1, 35, 85
2, 23048, Note_on_c, 1, 34, 0
2, 23160, Note_on_c, 1, 37, 83
2, 23273, Note_on_c, 1, 37, 0
2, 23282, Note_on_c, 1, 35, 0
2, 23283, Note_on_c, 1, 39, 78
2, 23365, Note_on_c, 1, 36, 66
2, 23366, Note_on_c, 1, 39, 0
2, 23394, Note_on_c, 1, 36, 0
2, 23402, Note_on_c, 1, 37, 76
2, 23518, Note_on_c, 1, 37, 0
2, 23518, Note_on_c, 1, 38, 70
2, 23600, Note_on_c, 1, 52, 91
2, 23635, Note_on_c, 1, 52, 0
2, 23645, Note_on_c, 1, 50, 71
2, 23757, Note_on_c, 1, 50, 0
2, 23761, Note_on_c, 1, 38, 0
2, 23765, Note_on_c, 1, 48, 74
2, 23786, Note_on_c, 1, 51, 29
2, 23801, Note_on_c, 1, 51, 0
2, 23877, Note_on_c, 1, 48, 0
2, 23884, Note_on_c, 1, 45, 79
2, 23991, Note_on_c, 1, 45, 0
2, 24002, Note_on_c, 1, 43, 72
2, 24081, Note_on_c, 1, 43, 0
2, 24088, Note_on_c, 1, 41, 79
2, 24120, Note_on_c, 1, 41, 0
2, 24128, Note_on_c, 1, 38, 66
2, 24238, Note_on_c, 1, 38, 0
2, 24247, Note_on_c, 1, 36, 66
2, 24336, Note_on_c, 1, 33, 54
2, 24341, Note_on_c, 1, 33, 0
2, 24345, Note_on_c, 1, 36, 0
2, 24367, Note_on_c, 1, 37, 69
2, 24436, Note_on_c, 1, 37, 0
2, 24446, Note_on_c, 1, 38, 78
2, 24521, Note_on_c, 1, 36, 66
2, 24528, Note_on_c, 1, 38, 0
2, 24535, Note_on_c, 1, 36, 0
2, 24560, Note_on_c, 1, 33, 64
2, 24590, Note_on_c, 1, 33, 0
2, 24600, Note_on_c, 1, 29, 75
2, 24714, Note_on_c, 1, 29, 0
2, 24720, Note_on_c, 1, 31, 67
2, 24775, Note_on_c, 1, 31, 0
2, 24800, Note_on_c, 1, 32, 63
2, 24834, Note_on_c, 1, 32, 0
2, 24839, Note_on_c, 1, 33, 60
2, 24920, Note_on_c, 1, 40, 113
2, 24927, Note_on_c, 1, 33, 0
2, 24956, Note_on_c, 1, 40, 0
2, 24963, Note_on_c, 1, 38, 64
2, 24969, Note_on_c, 1, 38, 0
2, 24998, Note_on_c, 1, 33, 56
2, 25016, Note_on_c, 1, 33, 0
2, 25033, Note_on_c, 1, 29, 69
2, 25065, Note_on_c, 1, 29, 0
2, 25075, Note_on_c, 1, 31, 80
2, 25196, Note_on_c, 1, 31, 0
2, 25202, Note_on_c, 1, 32, 71
2, 25318, Note_on_c, 1, 32, 0
2, 25323, Note_on_c, 1, 33, 66
2, 25403, Note_on_c, 1, 38, 54
2, 25409, Note_on_c, 1, 38, 0
2, 25439, Note_on_c, 1, 41, 101
2, 25462, Note_on_c, 1, 33, 0
2, 25507, Note_on_c, 1, 41, 0
2, 25516, Note_on_c, 1, 41, 68
2, 25552, Note_on_c, 1, 41, 0
2, 25559, Note_on_c, 1, 40, 71
2, 25625, Note_on_c, 1, 40, 0
2, 25638, Note_on_c, 1, 40, 72
2, 25682, Note_on_c, 1, 38, 67
2, 25685, Note_on_c, 1, 40, 0
2, 25805, Note_on_c, 1, 45, 79
2, 25838, Note_on_c, 1, 38, 0
2, 25880, Note_on_c, 1, 38, 39
2, 25895, Note_on_c, 1, 38, 0
2, 25916, Note_on_c, 1, 52, 81
2, 25925, Note_on_c, 1, 45, 0
2, 26026, Note_on_c, 1, 52, 0
2, 26038, Note_on_c, 1, 51, 80
2, 26152, Note_on_c, 1, 51, 0
2, 26158, Note_on_c, 1, 50, 69
2, 26241, Note_on_c, 1, 45, 54
2, 26259, Note_on_c, 1, 50, 0
2, 26264, Note_on_c, 1, 45, 0
2, 26277, Note_on_c, 1, 41, 67
2, 26396, Note_on_c, 1, 41, 0
2, 26402, Note_on_c, 1, 43, 89
2, 26515, Note_on_c, 1, 43, 0
2, 26519, Note_on_c, 1, 41, 77
2, 26627, Note_on_c, 1, 41, 0
2, 26639, Note_on_c, 1, 38, 78
2, 26757, Note_on_c, 1, 38, 0
2, 26762, Note_on_c, 1, 36, 83
2, 26878, Note_on_c, 1, 36, 0
2, 26883, Note_on_c, 1, 33, 75
2, 27000, Note_on_c, 1, 33, 0
2, 27005, Note_on_c, 1, 36, 90
2, 27111, Note_on_c, 1, 36, 0
2, 27125, Note_on_c, 1, 36, 83
2, 27207, Note_on_c, 1, 48, 105
2, 27237, Note_on_c, 1, 48, 0
2, 27248, Note_on_c, 1, 49, 87
2, 27272, Note_on_c, 1, 36, 0
2, 27327, Note_on_c, 1, 36, 47
2, 27337, Note_on_c, 1, 36, 0
2, 27346, Note_on_c, 1, 49, 0
2, 27351, Note_on_c, 1, 48, 26
2, 27356, Note_on_c, 1, 48, 0
2, 27365, Note_on_c, 1, 50, 73
2, 27382, Note_on_c, 1, 50, 0
2, 27405, Note_on_c, 1, 38, 39
2, 27411, Note_on_c, 1, 38, 0
2, 27439, Note_on_c, 1, 37, 74
2, 27483, Note_on_c, 1, 37, 0
2, 27483, Note_on_c, 1, 38, 74
2, 27562, Note_on_c, 1, 45, 113
2, 27569, Note_on_c, 1, 38, 0
2, 27593, Note_on_c, 1, 45, 0
2, 27605, Note_on_c, 1, 41, 77
2, 27711, Note_on_c, 1, 41, 0
2, 27724, Note_on_c, 1, 36, 80
2, 27835, Note_on_c, 1, 36, 0
2, 27842, Note_on_c, 1, 38, 77
2, 27960, Note_on_c, 1, 38, 0
2, 27960, Note_on_c, 1, 33, 71
2, 28080, Note_on_c, 1, 33, 0
2, 28081, Note_on_c, 1, 36, 71
2, 28167, Note_on_c, 1, 33, 42
2, 28171, Note_on_c, 1, 36, 0
2, 28191, Note_on_c, 1, 33, 0
2, 28203, Note_on_c, 1, 37, 83
2, 28293, Note_on_c, 1, 37, 0
2, 28322, Note_on_c, 1, 38, 95
2, 28348, Pitch_bend_c, 1, 8192
2, 28350, Pitch_bend_c, 1, 8192
2, 28352, Pitch_bend_c, 1, 8192
2, 28354, Pitch_bend_c, 1, 7552
2, 28355, Pitch_bend_c, 1, 7424
2, 28356, Pitch_bend_c, 1, 7168
2, 28357, Pitch_bend_c, 1, 6912
2, 28359, Pitch_bend_c, 1, 6784
2, 28360, Pitch_bend_c, 1, 6528
2, 28361, Pitch_bend_c, 1, 6400
2, 28362, Pitch_bend_c, 1, 6144
2, 28363, Pitch_bend_c, 1, 6016
2, 28364, Pitch_bend_c, 1, 5760
2, 28365, Pitch_bend_c, 1, 5632
2, 28367, Pitch_bend_c, 1, 5504
2, 28369, Pitch_bend_c, 1, 5120
2, 28370, Pitch_bend_c, 1, 4992
2, 28371, Pitch_bend_c, 1, 4864
2, 28372, Pitch_bend_c, 1, 4736
2, 28375, Pitch_bend_c, 1, 4608
2, 28377, Pitch_bend_c, 1, 4480
2, 28380, Pitch_bend_c, 1, 4736
2, 28381, Pitch_bend_c, 1, 5120
2, 28382, Pitch_bend_c, 1, 5632
2, 28384, Pitch_bend_c, 1, 6144
2, 28385, Pitch_bend_c, 1, 6656
2, 28386, Pitch_bend_c, 1, 7040
2, 28387, Pitch_bend_c, 1, 7552
2, 28388, Pitch_bend_c, 1, 8192
2, 28389, Pitch_bend_c, 1, 8192
2, 28389, Pitch_bend_c, 1, 8192
2, 28398, Note_on_c, 1, 38, 0
2, 28414, Note_on_c, 1, 36, 95
2, 28556, Note_on_c, 1, 36, 0
2, 28563, Note_on_c, 1, 33, 64
2, 28631, Note_on_c, 1, 33, 0
2, 28645, Note_on_c, 1, 33, 63
2, 28662, Note_on_c, 1, 33, 0
2, 28683, Note_on_c, 1, 31, 59
2, 28800, Note_on_c, 1, 31, 0
2, 28803, Note_on_c, 1, 29, 65
2, 28886, Note_on_c, 1, 41, 85
2, 28891, Note_on_c, 1, 43, 41
2, 28896, Note_on_c, 1, 43, 0
2, 28902, Note_on_c, 1, 29, 0
2, 28919, Note_on_c, 1, 41, 0
2, 28924, Note_on_c, 1, 40, 78
2, 29036, Note_on_c, 1, 40, 0
2, 29042, Note_on_c, 1, 38, 64
2, 29162, Note_on_c, 1, 37, 69
2, 29169, Note_on_c, 1, 38, 0
2, 29282, Note_on_c, 1, 37, 0
2, 29283, Note_on_c, 1, 38, 52
2, 29356, Note_on_c, 1, 45, 62
2, 29392, Note_on_c, 1, 45, 0
2, 29399, Note_on_c, 1, 52, 83
2, 29418, Note_on_c, 1, 38, 0
2, 29511, Note_on_c, 1, 52, 0
2, 29521, Note_on_c, 1, 50, 72
2, 29634, Note_on_c, 1, 50, 0
2, 29638, Note_on_c, 1, 45, 74
2, 29709, Note_on_c, 1, 45, 0
2, 29717, Note_on_c, 1, 45, 42
2, 29748, Note_on_c, 1, 45, 0
2, 29758, Note_on_c, 1, 48, 88
2, 29880, Note_on_c, 1, 48, 0
2, 29881, Note_on_c, 1, 47, 81
2, 30001, Note_on_c, 1, 47, 0
2, 30005, Note_on_c, 1, 45, 69
2, 30118, Note_on_c, 1, 38, 69
2, 30129, Note_on_c, 1, 45, 0
2, 30188, Note_on_c, 1, 38, 0
2, 30200, Note_on_c, 1, 38, 69
2, 30237, Note_on_c, 1, 38, 0
2, 30239, Note_on_c, 1, 41, 108
2, 30307, Note_on_c, 1, 41, 0
2, 30316, Note_on_c, 1, 41, 83
2, 30354, Note_on_c, 1, 41, 0
2, 30360, Note_on_c, 1, 40, 89
2, 30474, Note_on_c, 1, 40, 0
2, 30485, Note_on_c, 1, 38, 58
2, 30563, Note_on_c, 1, 38, 0
2, 30566, Note_on_c, 1, 33, 74
2, 30584, Note_on_c, 1, 33, 0
2, 30603, Note_on_c, 1, 36, 74
2, 30689, Note_on_c, 1, 33, 42
2, 30703, Note_on_c, 1, 36, 0
2, 30706, Note_on_c, 1, 33, 0
2, 30726, Note_on_c, 1, 37, 83
2, 30813, Note_on_c, 1, 33, 24
2, 30823, Note_on_c, 1, 33, 0
2, 30825, Note_on_c, 1, 37, 0
2, 30845, Note_on_c, 1, 37, 83
2, 30922, Note_on_c, 1, 33, 39
2, 30931, Note_on_c, 1, 33, 0
2, 30954, Note_on_c, 1, 37, 0
2, 30962, Note_on_c, 1, 38, 55
2, 30986, Note_on_c, 1, 38, 0
2, 31000, Note_on_c, 1, 41, 74
2, 31021, Note_on_c, 1, 41, 0
2, 31035, Note_on_c, 1, 33, 65
2, 31078, Note_on_c, 1, 37, 80
2, 31096, Note_on_c, 1, 33, 0
2, 31159, Note_on_c, 1, 33, 45
2, 31170, Note_on_c, 1, 33, 0
2, 31191, Note_on_c, 1, 37, 0
2, 31198, Note_on_c, 1, 38, 62
2, 31271, Note_on_c, 1, 38, 0
2, 31280, Note_on_c, 1, 41, 80
2, 31316, Note_on_c, 1, 41, 0
2, 31322, Note_on_c, 1, 40, 64
2, 31436, Note_on_c, 1, 40, 0
2, 31442, Note_on_c, 1, 38, 57
2, 31520, Note_on_c, 1, 38, 0
2, 31525, Note_on_c, 1, 33, 49
2, 31643, Note_on_c, 1, 41, 105
2, 31670, Note_on_c, 1, 33, 0
2, 31677, Note_on_c, 1, 41, 0
2, 31688, Note_on_c, 1, 38, 51
2, 31741, Note_on_c, 1, 38, 0
2, 31766, Note_on_c, 1, 38, 62
2, 31803, Note_on_c, 1, 38, 0
2, 31805, Note_on_c, 1, 45, 91
2, 31914, Note_on_c, 1, 45, 0
2, 31921, Note_on_c, 1, 41, 68
2, 32036, Note_on_c, 1, 41, 0
2, 32042, Note_on_c, 1, 40, 68
2, 32161, Note_on_c, 1, 40, 0
2, 32162, Note_on_c, 1, 38, 62
2, 32234, Note_on_c, 1, 38, 0
2, 32247, Note_on_c, 1, 38, 64
2, 32283, Note_on_c, 1, 50, 108
2, 32307, Note_on_c, 1, 38, 0
2, 32370, Note_on_c, 1, 38, 25
2, 32380, Note_on_c, 1, 38, 0
2, 32392, Note_on_c, 1, 50, 0
2, 32401, Note_on_c, 1, 48, 89
2, 32484, Note_on_c, 1, 38, 22
2, 32490, Note_on_c, 1, 38, 0
2, 32509, Note_on_c, 1, 48, 0
2, 32516, Note_on_c, 1, 45, 87
2, 32636, Note_on_c, 1, 45, 0
2, 32642, Note_on_c, 1, 43, 75
2, 32709, Note_on_c, 1, 43, 0
2, 32717, Note_on_c, 1, 43, 22
2, 32745, Note_on_c, 1, 43, 0
2, 32756, Note_on_c, 1, 41, 75
2, 32882, Note_on_c, 1, 41, 0
2, 32885, Note_on_c, 1, 40, 72
2, 33003, Note_on_c, 1, 33, 68
2, 33018, Note_on_c, 1, 40, 0
2, 33127, Note_on_c, 1, 38, 101
2, 33132, Note_on_c, 1, 33, 0
2, 33198, Note_on_c, 1, 33, 49
2, 33212, Note_on_c, 1, 33, 0
2, 33226, Note_on_c, 1, 38, 0
2, 33241, Note_on_c, 1, 31, 79
2, 33347, Note_on_c, 1, 31, 0
2, 33363, Note_on_c, 1, 29, 91
2, 33473, Note_on_c, 1, 29, 0
2, 33479, Note_on_c, 1, 31, 96
2, 33483, Note_on_c, 1, 29, 50
2, 33489, Note_on_c, 1, 29, 0
2, 33598, Note_on_c, 1, 31, 0
2, 33602, Note_on_c, 1, 33, 89
2, 33677, Note_on_c, 1, 33, 0
2, 33684, Note_on_c, 1, 33, 46
2, 33708, Note_on_c, 1, 33, 0
2, 33721, Note_on_c, 1, 36, 101
2, 33824, Note_on_c, 1, 36, 0
2, 33838, Note_on_c, 1, 38, 95
2, 33923, Note_on_c, 1, 33, 67
2, 33932, Note_on_c, 1, 38, 0
2, 33951, Note_on_c, 1, 33, 0
2, 33962, Note_on_c, 1, 36, 118
2, 34060, Note_on_c, 1, 33, 32
2, 34072, Note_on_c, 1, 36, 0
2, 34073, Note_on_c, 1, 33, 0
2, 34082, Note_on_c, 1, 38, 99
2, 34188, Note_on_c, 1, 38, 0
2, 34204, Note_on_c, 1, 38, 94
2, 34284, Note_on_c, 1, 38, 0
2, 34287, Note_on_c, 1, 36, 60
2, 34305, Note_on_c, 1, 36, 0
2, 34320, Note_on_c, 1, 38, 87
2, 34401, Note_on_c, 1, 38, 0
2, 34408, Note_on_c, 1, 33, 53
2, 34416, Note_on_c, 1, 33, 0
2, 34436, Note_on_c, 1, 36, 94
2, 34540, Note_on_c, 1, 36, 0
2, 34560, Note_on_c, 1, 38, 108
2, 34590, Pitch_bend_c, 1, 8192
2, 34592, Pitch_bend_c, 1, 8192
2, 34592, Pitch_bend_c, 1, 8192
2, 34593, Pitch_bend_c, 1, 7680
2, 34595, Pitch_bend_c, 1, 7552
2, 34596, Pitch_bend_c, 1, 7296
2, 34597, Pitch_bend_c, 1, 7168
2, 34598, Pitch_bend_c, 1, 6912
2, 34599, Pitch_bend_c, 1, 6784
2, 34600, Pitch_bend_c, 1, 6528
2, 34602, Pitch_bend_c, 1, 6400
2, 34603, Pitch_bend_c, 1, 6144
2, 34604, Pitch_bend_c, 1, 6016
2, 34605, Pitch_bend_c, 1, 5760
2, 34606, Pitch_bend_c, 1, 5632
2, 34607, Pitch_bend_c, 1, 5504
2, 34608, Pitch_bend_c, 1, 5376
2, 34610, Pitch_bend_c, 1, 4992
2, 34611, Pitch_bend_c, 1, 4864
2, 34612, Pitch_bend_c, 1, 4736
2, 34613, Pitch_bend_c, 1, 4608
2, 34614, Pitch_bend_c, 1, 4480
2, 34615, Pitch_bend_c, 1, 4352
2, 34616, Pitch_bend_c, 1, 4224
2, 34618, Pitch_bend_c, 1, 4096
2, 34620, Pitch_bend_c, 1, 3968
2, 34623, Pitch_bend_c, 1, 3840
2, 34625, Pitch_bend_c, 1, 3712
2, 34633, Pitch_bend_c, 1, 3968
2, 34635, Note_on_c, 1, 38, 0
2, 34635, Pitch_bend_c, 1, 4608
2, 34636, Pitch_bend_c, 1, 5504
2, 34637, Pitch_bend_c, 1, 6656
2, 34638, Pitch_bend_c, 1, 7680
2, 34639, Pitch_bend_c, 1, 8192
2, 34689, Note_on_c, 1, 38, 108
2, 34776, Note_on_c, 1, 38, 0
2, 34806, Note_on_c, 1, 38, 103
2, 34923, Note_on_c, 1, 36, 99
2, 34931, Note_on_c, 1, 38, 0
2, 35001, Note_on_c, 1, 34, 75
2, 35029, Note_on_c, 1, 36, 0
2, 35035, Note_on_c, 1, 34, 0
2, 35039, Note_on_c, 1, 35, 84
2, 35113, Note_on_c, 1, 35, 0
2, 35122, Note_on_c, 1, 35, 68
2, 35156, Note_on_c, 1, 35, 0
2, 35158, Note_on_c, 1, 37, 85
2, 35272, Note_on_c, 1, 37, 0
2, 35281, Note_on_c, 1, 39, 78
2, 35284, Note_on_c, 1, 37, 45
2, 35290, Note_on_c, 1, 37, 0
2, 35401, Note_on_c, 1, 39, 0
2, 35401, Note_on_c, 1, 40, 87
2, 35515, Note_on_c, 1, 40, 0
2, 35521, Note_on_c, 1, 42, 87
2, 35600, Note_on_c, 1, 35, 31
2, 35608, Note_on_c, 1, 35, 0
2, 35631, Note_on_c, 1, 42, 0
2, 35641, Note_on_c, 1, 44, 84
2, 35755, Note_on_c, 1, 44, 0
2, 35761, Note_on_c, 1, 45, 87
2, 35848, Note_on_c, 1, 40, 41
2, 35854, Note_on_c, 1, 40, 0
2, 35871, Note_on_c, 1, 45, 0
2, 35881, Note_on_c, 1, 46, 87
2, 35961, Note_on_c, 1, 40, 42
2, 35970, Note_on_c, 1, 40, 0
2, 35989, Note_on_c, 1, 46, 0
2, 36002, Note_on_c, 1, 47, 82
2, 36084, Note_on_c, 1, 40, 69
2, 36096, Note_on_c, 1, 40, 0
2, 36108, Note_on_c, 1, 47, 0
2, 36122, Note_on_c, 1, 44, 92
2, 36125, Note_on_c, 1, 46, 52
2, 36131, Note_on_c, 1, 46, 0
2, 36235, Note_on_c, 1, 44, 0
2, 36241, Note_on_c, 1, 42, 90
2, 36360, Note_on_c, 1, 39, 77
2, 36363, Note_on_c, 1, 42, 0
2, 36476, Note_on_c, 1, 39, 0
2, 36484, Note_on_c, 1, 37, 77
2, 36590, Note_on_c, 1, 37, 0
2, 36601, Note_on_c, 1, 33, 74
2, 36722, Note_on_c, 1, 33, 0
2, 36724, Note_on_c, 1, 34, 87
2, 36842, Note_on_c, 1, 37, 83
2, 36851, Note_on_c, 1, 34, 0
2, 36923, Note_on_c, 1, 37, 0
2, 36924, Note_on_c, 1, 34, 60
2, 36962, Note_on_c, 1, 35, 83
2, 36971, Note_on_c, 1, 34, 0
2, 37053, Note_on_c, 1, 34, 27
2, 37080, Note_on_c, 1, 34, 0
2, 37083, Note_on_c, 1, 37, 82
2, 37093, Note_on_c, 1, 35, 0
2, 37163, Note_on_c, 1, 35, 45
2, 37173, Note_on_c, 1, 35, 0
2, 37196, Note_on_c, 1, 37, 0
2, 37203, Note_on_c, 1, 39, 72
2, 37223, Note_on_c, 1, 39, 0
2, 37237, Note_on_c, 1, 33, 59
2, 37269, Note_on_c, 1, 33, 0
2, 37277, Note_on_c, 1, 34, 78
2, 37321, Note_on_c, 1, 35, 87
2, 37325, Note_on_c, 1, 34, 0
2, 37404, Note_on_c, 1, 34, 35
2, 37438, Note_on_c, 1, 34, 0
2, 37442, Note_on_c, 1, 47, 105
2, 37547, Note_on_c, 1, 47, 0
2, 37555, Note_on_c, 1, 35, 0
2, 37565, Note_on_c, 1, 47, 89
2, 37678, Note_on_c, 1, 47, 0
2, 37683, Note_on_c, 1, 45, 80
2, 37760, Note_on_c, 1, 45, 0
2, 37763, Note_on_c, 1, 33, 54
2, 37789, Note_on_c, 1, 33, 0
2, 37798, Note_on_c, 1, 34, 79
2, 37883, Note_on_c, 1, 32, 33
2, 37909, Note_on_c, 1, 34, 0
2, 37914, Note_on_c, 1, 32, 0
2, 37920, Note_on_c, 1, 35, 79
2, 38041, Note_on_c, 1, 47, 103
2, 38062, Note_on_c, 1, 35, 0
2, 38144, Note_on_c, 1, 47, 0
2, 38168, Note_on_c, 1, 47, 92
2, 38248, Note_on_c, 1, 34, 50
2, 38252, Note_on_c, 1, 47, 0
2, 38285, Note_on_c, 1, 35, 82
2, 38287, Note_on_c, 1, 34, 0
2, 38402, Note_on_c, 1, 35, 0
2, 38402, Note_on_c, 1, 47, 105
2, 38492, Note_on_c, 1, 47, 0
2, 38494, Note_on_c, 1, 35, 18
2, 38512, Note_on_c, 1, 35, 0
2, 38524, Note_on_c, 1, 47, 103
2, 38608, Note_on_c, 1, 47, 0
2, 38610, Note_on_c, 1, 35, 87
2, 38751, Note_on_c, 1, 34, 30
2, 38767, Note_on_c, 1, 48, 101
2, 38769, Note_on_c, 1, 35, 0
2, 38774, Note_on_c, 1, 34, 0
2, 38804, Note_on_c, 1, 36, 70
2, 38814, Note_on_c, 1, 48, 0
2, 38845, Note_on_c, 1, 37, 84
2, 38849, Note_on_c, 1, 36, 0
2, 38889, Note_on_c, 1, 38, 79
2, 38893, Note_on_c, 1, 37, 0
2, 38972, Note_on_c, 1, 52, 92
2, 39004, Note_on_c, 1, 52, 0
2, 39013, Note_on_c, 1, 38, 0
2, 39015, Note_on_c, 1, 50, 49
2, 39091, Note_on_c, 1, 38, 20
2, 39101, Note_on_c, 1, 38, 0
2, 39121, Note_on_c, 1, 50, 0
2, 39127, Note_on_c, 1, 45, 51
2, 39238, Note_on_c, 1, 45, 0
2, 39243, Note_on_c, 1, 48, 77
2, 39347, Note_on_c, 1, 48, 0
2, 39358, Note_on_c, 1, 43, 62
2, 39478, Note_on_c, 1, 43, 0
2, 39484, Note_on_c, 1, 41, 65
2, 39595, Note_on_c, 1, 41, 0
2, 39602, Note_on_c, 1, 38, 53
2, 39715, Note_on_c, 1, 38, 0
2, 39718, Note_on_c, 1, 37, 57
2, 39805, Note_on_c, 1, 34, 18
2, 39834, Note_on_c, 1, 37, 0
2, 39835, Note_on_c, 1, 34, 0
2, 39840, Note_on_c, 1, 38, 74
2, 39882, Note_on_c, 1, 38, 0
2, 39922, Note_on_c, 1, 38, 63
2, 39960, Note_on_c, 1, 38, 0
2, 39964, Note_on_c, 1, 40, 79
2, 40069, Note_on_c, 1, 40, 0
2, 40080, Note_on_c, 1, 41, 71
2, 40131, Note_on_c, 1, 41, 0
2, 40160, Note_on_c, 1, 41, 74
2, 40176, Note_on_c, 1, 41, 0
2, 40196, Note_on_c, 1, 36, 67
2, 40312, Note_on_c, 1, 36, 0
2, 40320, Note_on_c, 1, 33, 69
2, 40440, Note_on_c, 1, 33, 0
2, 40443, Note_on_c, 1, 36, 84
2, 40563, Note_on_c, 1, 37, 81
2, 40578, Note_on_c, 1, 36, 0
2, 40644, Note_on_c, 1, 33, 59
2, 40663, Note_on_c, 1, 33, 0
2, 40670, Note_on_c, 1, 37, 0
2, 40685, Note_on_c, 1, 39, 77
2, 40712, Note_on_c, 1, 39, 0
2, 40722, Note_on_c, 1, 37, 48
2, 40749, Note_on_c, 1, 37, 0
2, 40760, Note_on_c, 1, 38, 82
2, 40834, Note_on_c, 1, 33, 59
2, 40848, Note_on_c, 1, 38, 0
2, 40850, Note_on_c, 1, 33, 0
2, 40874, Note_on_c, 1, 31, 71
2, 40911, Note_on_c, 1, 31, 0
2, 40916, Note_on_c, 1, 29, 80
2, 41035, Note_on_c, 1, 29, 0
2, 41043, Note_on_c, 1, 33, 80
2, 41163, Note_on_c, 1, 40, 89
2, 41173, Note_on_c, 1, 33, 0
2, 41179, Note_on_c, 1, 40, 0
2, 41199, Note_on_c, 1, 37, 65
2, 41215, Note_on_c, 1, 37, 0
2, 41242, Note_on_c, 1, 39, 90
2, 41271, Note_on_c, 1, 39, 0
2, 41284, Note_on_c, 1, 38, 68
2, 41352, Note_on_c, 1, 38, 0
2, 41366, Note_on_c, 1, 33, 61
2, 41397, Note_on_c, 1, 33, 0
2, 41407, Note_on_c, 1, 29, 54
2, 41518, Note_on_c, 1, 29, 0
2, 41523, Note_on_c, 1, 31, 61
2, 41544, Note_on_c, 1, 31, 0
2, 41602, Note_on_c, 1, 32, 70
2, 41632, Note_on_c, 1, 32, 0
2, 41642, Note_on_c, 1, 33, 61
2, 41688, Note_on_c, 1, 33, 0
2, 41719, Note_on_c, 1, 36, 85
2, 41748, Note_on_c, 1, 36, 0
2, 41760, Note_on_c, 1, 38, 79
2, 41825, Note_on_c, 1, 38, 0
2, 41843, Note_on_c, 1, 38, 60
2, 41861, Note_on_c, 1, 38, 0
2, 41884, Note_on_c, 1, 33, 63
2, 42004, Note_on_c, 1, 36, 85
2, 42014, Note_on_c, 1, 33, 0
2, 42121, Note_on_c, 1, 33, 62
2, 42123, Note_on_c, 1, 36, 0
2, 42177, Note_on_c, 1, 33, 0
2, 42199, Note_on_c, 1, 33, 39
2, 42231, Note_on_c, 1, 33, 0
2, 42238, Note_on_c, 1, 38, 88
2, 42298, Note_on_c, 1, 38, 0
2, 42315, Note_on_c, 1, 38, 47
2, 42351, Note_on_c, 1, 38, 0
2, 42360, Note_on_c, 1, 33, 79
2, 42478, Note_on_c, 1, 33, 0
2, 42481, Note_on_c, 1, 36, 95
2, 42603, Note_on_c, 1, 37, 85
2, 42608, Note_on_c, 1, 36, 0
2, 42660, Note_on_c, 1, 37, 0
2, 42799, Note_on_c, 1, 38, 27
2, 42824, Note_on_c, 1, 38, 0
2, 42845, Note_on_c, 1, 43, 50
2, 42879, Note_on_c, 1, 43, 0
2, 42921, Note_on_c, 1, 47, 70
2, 42968, Note_on_c, 1, 47, 0
2, 42972, Note_on_c, 1, 45, 60
2, 43073, Note_on_c, 1, 45, 0
2, 43086, Note_on_c, 1, 48, 67
2, 43148, Note_on_c, 1, 48, 0
2, 43165, Note_on_c, 1, 50, 92
2, 43238, Pitch_bend_c, 1, 8192
2, 43240, Pitch_bend_c, 1, 8192
2, 43242, Pitch_bend_c, 1, 8192
2, 43244, Pitch_bend_c, 1, 8192
2, 43247, Pitch_bend_c, 1, 7680
2, 43249, Pitch_bend_c, 1, 7552
2, 43251, Pitch_bend_c, 1, 7296
2, 43253, Pitch_bend_c, 1, 7168
2, 43254, Pitch_bend_c, 1, 7040
2, 43255, Pitch_bend_c, 1, 6912
2, 43256, Pitch_bend_c, 1, 6784
2, 43259, Pitch_bend_c, 1, 6528
2, 43262, Pitch_bend_c, 1, 6272
2, 43263, Pitch_bend_c, 1, 6144
2, 43264, Pitch_bend_c, 1, 6016
2, 43265, Pitch_bend_c, 1, 5888
2, 43268, Pitch_bend_c, 1, 5760
2, 43269, Pitch_bend_c, 1, 5632
2, 43271, Pitch_bend_c, 1, 5504
2, 43274, Pitch_bend_c, 1, 5120
2, 43276, Pitch_bend_c, 1, 4992
2, 43279, Pitch_bend_c, 1, 4736
2, 43281, Pitch_bend_c, 1, 4608
2, 43285, Pitch_bend_c, 1, 4352
2, 43286, Pitch_bend_c, 1, 4224
2, 43287, Pitch_bend_c, 1, 4096
2, 43288, Pitch_bend_c, 1, 3968
2, 43291, Pitch_bend_c, 1, 3840
2, 43293, Pitch_bend_c, 1, 3584
2, 43296, Pitch_bend_c, 1, 3456
2, 43297, Note_on_c, 1, 50, 0
2, 43299, Pitch_bend_c, 1, 3328
2, 43300, Pitch_bend_c, 1, 3200
2, 43303, Pitch_bend_c, 1, 2944
2, 43304, Pitch_bend_c, 1, 2816
2, 43305, Pitch_bend_c, 1, 2688
2, 43308, Pitch_bend_c, 1, 2560
2, 43310, Pitch_bend_c, 1, 2304
2, 43313, Pitch_bend_c, 1, 2176
2, 43314, Pitch_bend_c, 1, 2048
2, 43315, Pitch_bend_c, 1, 1920
2, 43318, Pitch_bend_c, 1, 1792
2, 43321, Pitch_bend_c, 1, 1664
2, 43323, Pitch_bend_c, 1, 1536
2, 43330, Pitch_bend_c, 1, 1408
2, 43336, Pitch_bend_c, 1, 1536
2, 43338, Pitch_bend_c, 1, 1664
2, 43340, Pitch_bend_c, 1, 1920
2, 43341, Pitch_bend_c, 1, 2048
2, 43343, Pitch_bend_c, 1, 2304
2, 43344, Pitch_bend_c, 1, 2432
2, 43345, Pitch_bend_c, 1, 2816
2, 43347, Pitch_bend_c, 1, 3328
2, 43348, Pitch_bend_c, 1, 4096
2, 43349, Pitch_bend_c, 1, 4864
2, 43350, Pitch_bend_c, 1, 5760
2, 43352, Pitch_bend_c, 1, 6528
2, 43353, Pitch_bend_c, 1, 6912
2, 43354, Pitch_bend_c, 1, 7168
2, 43356, Pitch_bend_c, 1, 7424
2, 43357, Pitch_bend_c, 1, 7552
2, 43358, Pitch_bend_c, 1, 8192
2, 43359, Pitch_bend_c, 1, 8192
2, 43360, Pitch_bend_c, 1, 8192
2, 43994, Note_on_c, 1, 38, 59
2, 44018, Note_on_c, 1, 38, 0
2, 44045, Note_on_c, 1, 43, 54
2, 44065, Note_on_c, 1, 43, 0
2, 44116, Note_on_c, 1, 48, 101
2, 44154, Note_on_c, 1, 48, 0
2, 44165, Note_on_c, 1, 47, 96
2, 44274, Note_on_c, 1, 47, 0
2, 44283, Note_on_c, 1, 48, 75
2, 44354, Note_on_c, 1, 48, 0
2, 44357, Note_on_c, 1, 45, 90
2, 44509, Note_on_c, 1, 45, 0
2, 44718, Note_on_c, 1, 38, 49
2, 44739, Note_on_c, 1, 38, 0
2, 44766, Note_on_c, 1, 41, 48
2, 44775, Note_on_c, 1, 41, 0
2, 44839, Note_on_c, 1, 45, 99
2, 44873, Note_on_c, 1, 45, 0
2, 44885, Note_on_c, 1, 43, 99
2, 44946, Note_on_c, 1, 43, 0
2, 44959, Note_on_c, 1, 43, 50
2, 45003, Note_on_c, 1, 43, 0
2, 45006, Note_on_c, 1, 45, 81
2, 45073, Note_on_c, 1, 45, 0
2, 45079, Note_on_c, 1, 43, 101
2, 45146, Pitch_bend_c, 1, 8192
2, 45149, Pitch_bend_c, 1, 8192
2, 45152, Pitch_bend_c, 1, 8192
2, 45159, Pitch_bend_c, 1, 8192
2, 45169, Pitch_bend_c, 1, 7680
2, 45174, Pitch_bend_c, 1, 7552
2, 45179, Pitch_bend_c, 1, 7424
2, 45183, Pitch_bend_c, 1, 7296
2, 45186, Pitch_bend_c, 1, 7168
2, 45190, Pitch_bend_c, 1, 7040
2, 45192, Pitch_bend_c, 1, 6912
2, 45195, Pitch_bend_c, 1, 6784
2, 45198, Pitch_bend_c, 1, 6656
2, 45201, Pitch_bend_c, 1, 6400
2, 45204, Pitch_bend_c, 1, 6272
2, 45206, Pitch_bend_c, 1, 6016
2, 45209, Pitch_bend_c, 1, 5888
2, 45211, Pitch_bend_c, 1, 5760
2, 45212, Pitch_bend_c, 1, 5632
2, 45214, Pitch_bend_c, 1, 5504
2, 45216, Pitch_bend_c, 1, 5376
2, 45218, Pitch_bend_c, 1, 4992
2, 45219, Pitch_bend_c, 1, 4864
2, 45222, Pitch_bend_c, 1, 4736
2, 45225, Pitch_bend_c, 1, 4480
2, 45228, Pitch_bend_c, 1, 4352
2, 45230, Pitch_bend_c, 1, 4096
2, 45233, Pitch_bend_c, 1, 3968
2, 45234, Pitch_bend_c, 1, 3840
2, 45237, Pitch_bend_c, 1, 3712
2, 45240, Pitch_bend_c, 1, 3584
2, 45244, Pitch_bend_c, 1, 3328
2, 45245, Pitch_bend_c, 1, 3200
2, 45249, Pitch_bend_c, 1, 3072
2, 45251, Pitch_bend_c, 1, 2944
2, 45253, Pitch_bend_c, 1, 2816
2, 45255, Pitch_bend_c, 1, 2688
2, 45258, Pitch_bend_c, 1, 2432
2, 45261, Pitch_bend_c, 1, 2304
2, 45263, Pitch_bend_c, 1, 2176
2, 45264, Pitch_bend_c, 1, 2048
2, 45265, Pitch_bend_c, 1, 1920
2, 45268, Pitch_bend_c, 1, 1792
2, 45269, Pitch_bend_c, 1, 1664
2, 45272, Pitch_bend_c, 1, 1408
2, 45273, Pitch_bend_c, 1, 1280
2, 45274, Pitch_bend_c, 1, 1152
2, 45275, Note_on_c, 1, 43, 0
2, 45276, Pitch_bend_c, 1, 1024
2, 45279, Pitch_bend_c, 1, 768
2, 45283, Pitch_bend_c, 1, 640
2, 45290, Pitch_bend_c, 1, 512
2, 45293, Pitch_bend_c, 1, 384
2, 45306, Pitch_bend_c, 1, 512
2, 45308, Pitch_bend_c, 1, 640
2, 45312, Pitch_bend_c, 1, 768
2, 45313, Pitch_bend_c, 1, 896
2, 45316, Pitch_bend_c, 1, 1152
2, 45317, Pitch_bend_c, 1, 1280
2, 45318, Pitch_bend_c, 1, 1536
2, 45319, Pitch_bend_c, 1, 1664
2, 45321, Pitch_bend_c, 1, 1792
2, 45322, Pitch_bend_c, 1, 2176
2, 45323, Pitch_bend_c, 1, 2432
2, 45325, Pitch_bend_c, 1, 2816
2, 45326, Pitch_bend_c, 1, 3328
2, 45327, Pitch_bend_c, 1, 3840
2, 45328, Pitch_bend_c, 1, 4480
2, 45330, Pitch_bend_c, 1, 4864
2, 45331, Pitch_bend_c, 1, 5504
2, 45332, Pitch_bend_c, 1, 5888
2, 45334, Pitch_bend_c, 1, 6272
2, 45335, Pitch_bend_c, 1, 6656
2, 45336, Pitch_bend_c, 1, 7040
2, 45337, Pitch_bend_c, 1, 7424
2, 45339, Pitch_bend_c, 1, 7680
2, 45340, Pitch_bend_c, 1, 8192
2, 45341, Pitch_bend_c, 1, 8192
2, 45674, Note_on_c, 1, 38, 44
2, 45694, Note_on_c, 1, 38, 0
2, 45720, Note_on_c, 1, 41, 54
2, 45743, Note_on_c, 1, 41, 0
2, 45796, Note_on_c, 1, 45, 77
2, 45812, Note_on_c, 1, 45, 0
2, 45841, Note_on_c, 1, 47, 84
2, 45899, Note_on_c, 1, 47, 0
2, 45911, Note_on_c, 1, 48, 75
2, 45946, Note_on_c, 1, 48, 0
2, 45960, Note_on_c, 1, 47, 78
2, 45966, Note_on_c, 1, 47, 0
2, 46034, Note_on_c, 1, 45, 74
2, 46152, Note_on_c, 1, 45, 0
2, 46152, Note_on_c, 1, 47, 77
2, 46195, Note_on_c, 1, 47, 0
2, 46204, Note_on_c, 1, 45, 60
2, 46266, Note_on_c, 1, 45, 0
2, 46272, Note_on_c, 1, 43, 92
2, 46458, Note_on_c, 1, 43, 0
2, 46642, Note_on_c, 1, 42, 88
2, 46672, Note_on_c, 1, 42, 0
2, 46684, Note_on_c, 1, 44, 77
2, 46748, Note_on_c, 1, 44, 0
2, 46758, Note_on_c, 1, 45, 101
2, 46859, Note_on_c, 1, 45, 0
2, 46875, Note_on_c, 1, 44, 90
2, 46929, Note_on_c, 1, 42, 53
2, 46934, Note_on_c, 1, 44, 0
2, 46983, Note_on_c, 1, 42, 0
2, 46998, Note_on_c, 1, 47, 92
2, 47051, Pitch_bend_c, 1, 8192
2, 47053, Pitch_bend_c, 1, 8192
2, 47056, Pitch_bend_c, 1, 8192
2, 47059, Pitch_bend_c, 1, 7680
2, 47062, Pitch_bend_c, 1, 7552
2, 47065, Pitch_bend_c, 1, 7296
2, 47066, Pitch_bend_c, 1, 7168
2, 47069, Pitch_bend_c, 1, 7040
2, 47070, Pitch_bend_c, 1, 6912
2, 47072, Pitch_bend_c, 1, 6784
2, 47075, Pitch_bend_c, 1, 6656
2, 47078, Pitch_bend_c, 1, 6528
2, 47079, Pitch_bend_c, 1, 6400
2, 47081, Pitch_bend_c, 1, 6272
2, 47083, Pitch_bend_c, 1, 6144
2, 47085, Pitch_bend_c, 1, 6016
2, 47087, Pitch_bend_c, 1, 5888
2, 47090, Pitch_bend_c, 1, 5632
2, 47093, Pitch_bend_c, 1, 5504
2, 47096, Pitch_bend_c, 1, 5376
2, 47099, Pitch_bend_c, 1, 5120
2, 47102, Pitch_bend_c, 1, 4992
2, 47105, Pitch_bend_c, 1, 4864
2, 47108, Pitch_bend_c, 1, 4736
2, 47111, Pitch_bend_c, 1, 4608
2, 47115, Pitch_bend_c, 1, 4480
2, 47119, Pitch_bend_c, 1, 4352
2, 47122, Pitch_bend_c, 1, 4224
2, 47125, Pitch_bend_c, 1, 4096
2, 47128, Note_on_c, 1, 47, 0
2, 47128, Pitch_bend_c, 1, 3840
2, 47132, Pitch_bend_c, 1, 3712
2, 47134, Pitch_bend_c, 1, 3584
2, 47138, Pitch_bend_c, 1, 3456
2, 47141, Pitch_bend_c, 1, 3200
2, 47145, Pitch_bend_c, 1, 3072
2, 47151, Pitch_bend_c, 1, 2944
2, 47167, Pitch_bend_c, 1, 3072
2, 47168, Pitch_bend_c, 1, 3200
2, 47170, Pitch_bend_c, 1, 3456
2, 47171, Pitch_bend_c, 1, 3584
2, 47172, Pitch_bend_c, 1, 3712
2, 47174, Pitch_bend_c, 1, 3968
2, 47175, Pitch_bend_c, 1, 4352
2, 47176, Pitch_bend_c, 1, 4608
2, 47177, Pitch_bend_c, 1, 4992
2, 47179, Pitch_bend_c, 1, 5504
2, 47180, Pitch_bend_c, 1, 5888
2, 47181, Pitch_bend_c, 1, 6272
2, 47183, Pitch_bend_c, 1, 6656
2, 47184, Pitch_bend_c, 1, 7168
2, 47185, Pitch_bend_c, 1, 7552
2, 47186, Pitch_bend_c, 1, 8192
2, 47187, Pitch_bend_c, 1, 8192
2, 47188, Pitch_bend_c, 1, 8192
2, 47834, Note_on_c, 1, 42, 72
2, 47866, Note_on_c, 1, 42, 0
2, 47876, Note_on_c, 1, 44, 64
2, 47924, Note_on_c, 1, 44, 0
2, 47953, Note_on_c, 1, 45, 99
2, 48066, Note_on_c, 1, 45, 0
2, 48071, Note_on_c, 1, 44, 76
2, 48113, Note_on_c, 1, 44, 0
2, 48125, Note_on_c, 1, 42, 46
2, 48197, Note_on_c, 1, 35, 82
2, 48211, Note_on_c, 1, 42, 0
2, 48351, Note_on_c, 1, 35, 0
2, 48559, Note_on_c, 1, 42, 83
2, 48583, Note_on_c, 1, 42, 0
2, 48602, Note_on_c, 1, 44, 76
2, 48650, Note_on_c, 1, 44, 0
2, 48680, Note_on_c, 1, 45, 110
2, 48779, Note_on_c, 1, 45, 0
2, 48797, Note_on_c, 1, 44, 72
2, 48835, Note_on_c, 1, 44, 0
2, 48844, Note_on_c, 1, 42, 44
2, 48909, Note_on_c, 1, 42, 0
2, 48914, Note_on_c, 1, 47, 77
2, 49135, Note_on_c, 1, 47, 0
2, 49755, Note_on_c, 1, 42, 74
2, 49787, Note_on_c, 1, 42, 0
2, 49799, Note_on_c, 1, 44, 57
2, 49859, Note_on_c, 1, 44, 0
2, 49873, Note_on_c, 1, 45, 99
2, 49986, Note_on_c, 1, 45, 0
2, 49993, Note_on_c, 1, 44, 63
2, 50031, Note_on_c, 1, 44, 0
2, 50042, Note_on_c, 1, 42, 62
2, 50112, Note_on_c, 1, 42, 0
2, 50115, Note_on_c, 1, 35, 83
2, 50285, Note_on_c, 1, 35, 0
2, 50477, Note_on_c, 1, 38, 56
2, 50503, Note_on_c, 1, 38, 0
2, 50526, Note_on_c, 1, 43, 54
2, 50536, Note_on_c, 1, 43, 0
2, 50636, Note_on_c, 1, 45, 72
2, 50746, Note_on_c, 1, 45, 0
2, 50755, Note_on_c, 1, 48, 84
2, 50822, Note_on_c, 1, 48, 0
2, 50830, Note_on_c, 1, 50, 95
2, 51024, Note_on_c, 1, 50, 0
2, 51682, Note_on_c, 1, 38, 64
2, 51705, Note_on_c, 1, 38, 0
2, 51729, Note_on_c, 1, 43, 62
2, 51745, Note_on_c, 1, 43, 0
2, 51802, Note_on_c, 1, 48, 96
2, 51839, Note_on_c, 1, 48, 0
2, 51848, Note_on_c, 1, 47, 77
2, 51959, Note_on_c, 1, 47, 0
2, 51962, Note_on_c, 1, 48, 80
2, 51968, Note_on_c, 1, 47, 26
2, 51975, Note_on_c, 1, 47, 0
2, 52032, Note_on_c, 1, 48, 0
2, 52036, Note_on_c, 1, 45, 87
2, 52325, Note_on_c, 1, 45, 0
2, 52399, Note_on_c, 1, 38, 76
2, 52431, Note_on_c, 1, 38, 0
2, 52445, Note_on_c, 1, 41, 65
2, 52460, Note_on_c, 1, 41, 0
2, 52517, Note_on_c, 1, 45, 101
2, 52557, Note_on_c, 1, 45, 0
2, 52564, Note_on_c, 1, 43, 96
2, 52683, Note_on_c, 1, 43, 0
2, 52685, Note_on_c, 1, 45, 75
2, 52756, Note_on_c, 1, 43, 89
2, 52758, Note_on_c, 1, 45, 0
2, 52953, Note_on_c, 1, 43, 0
2, 53352, Note_on_c, 1, 38, 57
2, 53388, Note_on_c, 1, 38, 0
2, 53399, Note_on_c, 1, 41, 52
2, 53409, Note_on_c, 1, 41, 0
2, 53475, Note_on_c, 1, 45, 66
2, 53490, Note_on_c, 1, 45, 0
2, 53516, Note_on_c, 1, 47, 92
2, 53588, Note_on_c, 1, 47, 0
2, 53592, Note_on_c, 1, 48, 70
2, 53628, Note_on_c, 1, 48, 0
2, 53639, Note_on_c, 1, 47, 46
2, 53705, Note_on_c, 1, 47, 0
2, 53713, Note_on_c, 1, 45, 99
2, 53721, Note_on_c, 1, 47, 25
2, 53727, Note_on_c, 1, 47, 0
2, 53839, Note_on_c, 1, 47, 70
2, 53840, Note_on_c, 1, 45, 0
2, 53880, Note_on_c, 1, 47, 0
2, 53883, Note_on_c, 1, 45, 53
2, 53948, Note_on_c, 1, 45, 0
2, 53958, Note_on_c, 1, 43, 125
2, 54184, Note_on_c, 1, 43, 0
2, 54184, End_track
3, 0, Start_track
3, 0, Title_t, "dougmck@pipeline.com.au"
3, 0, Program_c, 0, 0
3, 245, Note_on_c, 0, 57, 59
3, 245, Note_on_c, 0, 50, 51
3, 245, Note_on_c, 0, 60, 60
3, 246, Note_on_c, 0, 65, 62
3, 270, Note_on_c, 0, 57, 0
3, 272, Note_on_c, 0, 60, 0
3, 281, Note_on_c, 0, 65, 0
3, 282, Note_on_c, 0, 50, 0
3, 363, Note_on_c, 0, 67, 64
3, 365, Note_on_c, 0, 62, 62
3, 367, Note_on_c, 0, 52, 58
3, 373, Note_on_c, 0, 59, 33
3, 386, Note_on_c, 0, 59, 0
3, 395, Note_on_c, 0, 62, 0
3, 403, Note_on_c, 0, 52, 0
3, 406, Note_on_c, 0, 67, 0
3, 486, Note_on_c, 0, 69, 65
3, 488, Note_on_c, 0, 60, 60
3, 489, Note_on_c, 0, 53, 61
3, 489, Note_on_c, 0, 65, 64
3, 903, Control_c, 0, 64, 127
3, 912, Control_c, 0, 64, 0
3, 952, Note_on_c, 0, 60, 0
3, 957, Control_c, 0, 64, 127
3, 963, Note_on_c, 0, 65, 0
3, 970, Note_on_c, 0, 53, 0
3, 973, Note_on_c, 0, 69, 0
3, 1153, Note_on_c, 0, 67, 91
3, 1154, Note_on_c, 0, 71, 88
3, 1154, Note_on_c, 0, 62, 91
3, 1155, Note_on_c, 0, 57, 83
3, 1161, Control_c, 0, 64, 0
3, 1192, Control_c, 0, 64, 127
3, 1200, Note_on_c, 0, 62, 0
3, 1205, Note_on_c, 0, 67, 0
3, 1207, Note_on_c, 0, 71, 0
3, 1227, Note_on_c, 0, 57, 0
3, 1242, Control_c, 0, 64, 0
3, 1259, Note_on_c, 0, 59, 65
3, 1261, Note_on_c, 0, 72, 85
3, 1261, Note_on_c, 0, 69, 85
3, 1261, Note_on_c, 0, 64, 89
3, 1271, Control_c, 0, 64, 127
3, 1289, Note_on_c, 0, 72, 0
3, 1292, Note_on_c, 0, 69, 0
3, 1295, Note_on_c, 0, 64, 0
3, 1302, Note_on_c, 0, 59, 0
3, 1304, Control_c, 0, 64, 0
3, 1308, Note_on_c, 0, 71, 73
3, 1310, Note_on_c, 0, 57, 62
3, 1311, Note_on_c, 0, 62, 65
3, 1311, Note_on_c, 0, 67, 73
3, 1358, Note_on_c, 0, 67, 0
3, 1358, Note_on_c, 0, 62, 0
3, 1360, Note_on_c, 0, 71, 0
3, 1366, Note_on_c, 0, 57, 0
3, 1379, Control_c, 0, 64, 127
3, 1394, Note_on_c, 0, 55, 35
3, 1402, Note_on_c, 0, 55, 0
3, 1419, Control_c, 0, 64, 0
3, 1431, Note_on_c, 0, 67, 76
3, 1431, Note_on_c, 0, 71, 73
3, 1432, Note_on_c, 0, 62, 70
3, 1433, Note_on_c, 0, 57, 66
3, 1488, Control_c, 0, 64, 127
3, 1589, Note_on_c, 0, 62, 0
3, 1615, Note_on_c, 0, 67, 0
3, 1622, Note_on_c, 0, 71, 0
3, 1628, Note_on_c, 0, 69, 44
3, 1629, Note_on_c, 0, 60, 50
3, 1631, Note_on_c, 0, 55, 54
3, 1632, Note_on_c, 0, 57, 0
3, 1633, Note_on_c, 0, 65, 48
3, 1636, Control_c, 0, 64, 0
3, 1863, Note_on_c, 0, 65, 0
3, 1864, Note_on_c, 0, 60, 0
3, 1871, Note_on_c, 0, 69, 0
3, 1881, Note_on_c, 0, 55, 0
3, 2274, Note_on_c, 0, 67, 41
3, 2276, Note_on_c, 0, 59, 43
3, 2276, Note_on_c, 0, 62, 43
3, 2279, Note_on_c, 0, 52, 36
3, 2314, Control_c, 0, 64, 127
3, 2328, Note_on_c, 0, 67, 0
3, 2338, Note_on_c, 0, 59, 0
3, 2346, Note_on_c, 0, 62, 0
3, 2354, Note_on_c, 0, 52, 0
3, 2359, Note_on_c, 0, 69, 77
3, 2359, Note_on_c, 0, 60, 75
3, 2359, Note_on_c, 0, 65, 85
3, 2360, Control_c, 0, 64, 0
3, 2360, Note_on_c, 0, 55, 65
3, 2996, Note_on_c, 0, 60, 0
3, 2998, Note_on_c, 0, 55, 0
3, 3005, Note_on_c, 0, 65, 0
3, 3008, Note_on_c, 0, 69, 0
3, 3118, Note_on_c, 0, 71, 89
3, 3118, Note_on_c, 0, 67, 88
3, 3119, Note_on_c, 0, 62, 92
3, 3120, Note_on_c, 0, 59, 71
3, 3145, Note_on_c, 0, 59, 0
3, 3149, Note_on_c, 0, 67, 0
3, 3150, Note_on_c, 0, 62, 0
3, 3152, Note_on_c, 0, 71, 0
3, 3237, Note_on_c, 0, 67, 48
3, 3237, Note_on_c, 0, 53, 42
3, 3238, Note_on_c, 0, 64, 54
3, 3241, Note_on_c, 0, 59, 40
3, 3262, Note_on_c, 0, 59, 0
3, 3264, Note_on_c, 0, 53, 0
3, 3268, Note_on_c, 0, 67, 0
3, 3270, Note_on_c, 0, 64, 0
3, 3350, Note_on_c, 0, 65, 58
3, 3351, Note_on_c, 0, 69, 60
3, 3351, Note_on_c, 0, 55, 53
3, 3353, Note_on_c, 0, 60, 47
3, 3562, Control_c, 0, 64, 127
3, 3824, Note_on_c, 0, 55, 0
3, 4015, Note_on_c, 0, 60, 0
3, 4033, Note_on_c, 0, 65, 0
3, 4037, Note_on_c, 0, 69, 0
3, 4269, Note_on_c, 0, 73, 57
3, 4269, Note_on_c, 0, 47, 64
3, 4269, Note_on_c, 0, 35, 63
3, 4270, Note_on_c, 0, 64, 72
3, 4270, Note_on_c, 0, 69, 72
3, 4280, Control_c, 0, 64, 0
3, 4320, Control_c, 0, 64, 127
3, 4341, Note_on_c, 0, 35, 0
3, 4354, Note_on_c, 0, 47, 0
3, 4450, Note_on_c, 0, 69, 0
3, 4469, Note_on_c, 0, 64, 0
3, 4935, Note_on_c, 0, 73, 0
3, 4995, Note_on_c, 0, 57, 76
3, 4995, Note_on_c, 0, 75, 83
3, 4995, Note_on_c, 0, 47, 70
3, 4996, Note_on_c, 0, 66, 83
3, 4997, Note_on_c, 0, 71, 80
3, 5011, Control_c, 0, 64, 0
3, 5016, Note_on_c, 0, 57, 0
3, 5019, Note_on_c, 0, 47, 0
3, 5022, Note_on_c, 0, 71, 0
3, 5024, Note_on_c, 0, 66, 0
3, 5024, Note_on_c, 0, 75, 0
3, 5051, Control_c, 0, 64, 127
3, 5108, Note_on_c, 0, 69, 77
3, 5108, Note_on_c, 0, 61, 69
3, 5109, Note_on_c, 0, 64, 76
3, 5109, Note_on_c, 0, 57, 65
3, 5111, Note_on_c, 0, 47, 60
3, 5119, Control_c, 0, 64, 0
3, 5123, Note_on_c, 0, 47, 0
3, 5124, Note_on_c, 0, 57, 0
3, 5127, Note_on_c, 0, 69, 0
3, 5133, Note_on_c, 0, 64, 0
3, 5135, Note_on_c, 0, 61, 0
3, 5152, Control_c, 0, 64, 127
3, 5190, Control_c, 0, 64, 0
3, 5222, Note_on_c, 0, 71, 60
3, 5222, Control_c, 0, 64, 127
3, 5223, Note_on_c, 0, 47, 67
3, 5224, Note_on_c, 0, 62, 56
3, 5227, Note_on_c, 0, 57, 38
3, 5232, Note_on_c, 0, 62, 0
3, 5234, Note_on_c, 0, 57, 0
3, 5238, Note_on_c, 0, 71, 0
3, 5246, Note_on_c, 0, 47, 0
3, 5267, Note_on_c, 0, 73, 57
3, 5267, Note_on_c, 0, 69, 76
3, 5268, Note_on_c, 0, 64, 79
3, 5268, Note_on_c, 0, 57, 75
3, 5268, Note_on_c, 0, 47, 68
3, 5271, Control_c, 0, 64, 0
3, 5307, Control_c, 0, 64, 127
3, 5345, Note_on_c, 0, 64, 0
3, 5354, Note_on_c, 0, 47, 0
3, 5361, Note_on_c, 0, 57, 0
3, 5367, Note_on_c, 0, 73, 0
3, 5370, Note_on_c, 0, 69, 0
3, 5384, Note_on_c, 0, 66, 54
3, 5384, Note_on_c, 0, 57, 47
3, 5385, Control_c, 0, 64, 0
3, 5385, Note_on_c, 0, 75, 59
3, 5385, Note_on_c, 0, 71, 61
3, 5387, Note_on_c, 0, 47, 44
3, 5414, Control_c, 0, 64, 127
3, 5429, Note_on_c, 0, 47, 0
3, 5436, Note_on_c, 0, 57, 0
3, 5441, Note_on_c, 0, 66, 0
3, 5443, Note_on_c, 0, 71, 0
3, 5448, Note_on_c, 0, 75, 0
3, 5460, Note_on_c, 0, 73, 38
3, 5461, Note_on_c, 0, 64, 62
3, 5462, Note_on_c, 0, 57, 45
3, 5462, Note_on_c, 0, 69, 64
3, 5462, Note_on_c, 0, 47, 43
3, 5471, Control_c, 0, 64, 0
3, 5509, Control_c, 0, 64, 127
3, 5995, Note_on_c, 0, 64, 0
3, 6026, Note_on_c, 0, 47, 0
3, 6060, Note_on_c, 0, 69, 0
3, 6062, Note_on_c, 0, 73, 0
3, 6063, Note_on_c, 0, 57, 0
3, 6114, Note_on_c, 0, 66, 87
3, 6114, Note_on_c, 0, 75, 83
3, 6115, Note_on_c, 0, 71, 88
3, 6116, Note_on_c, 0, 57, 57
3, 6119, Control_c, 0, 64, 0
3, 6141, Control_c, 0, 64, 127
3, 6185, Note_on_c, 0, 66, 0
3, 6186, Note_on_c, 0, 75, 0
3, 6186, Note_on_c, 0, 57, 0
3, 6187, Note_on_c, 0, 71, 0
3, 6195, Note_on_c, 0, 73, 40
3, 6196, Note_on_c, 0, 69, 70
3, 6196, Note_on_c, 0, 64, 71
3, 6198, Note_on_c, 0, 47, 49
3, 6211, Control_c, 0, 64, 0
3, 6515, Control_c, 0, 64, 127
3, 6587, Control_c, 0, 64, 0
3, 6611, Control_c, 0, 64, 127
3, 6717, Note_on_c, 0, 47, 0
3, 6775, Note_on_c, 0, 64, 0
3, 6807, Note_on_c, 0, 69, 0
3, 6827, Note_on_c, 0, 73, 0
3, 6916, Note_on_c, 0, 76, 78
3, 6917, Note_on_c, 0, 72, 89
3, 6917, Note_on_c, 0, 67, 85
3, 6920, Note_on_c, 0, 60, 60
3, 6921, Control_c, 0, 64, 0
3, 6922, Note_on_c, 0, 74, 37
3, 6932, Note_on_c, 0, 74, 0
3, 6936, Note_on_c, 0, 67, 0
3, 6942, Note_on_c, 0, 72, 0
3, 6944, Note_on_c, 0, 60, 0
3, 6947, Note_on_c, 0, 76, 0
3, 6970, Control_c, 0, 64, 127
3, 7027, Control_c, 0, 64, 0
3, 7032, Note_on_c, 0, 78, 77
3, 7033, Note_on_c, 0, 62, 74
3, 7034, Note_on_c, 0, 69, 82
3, 7034, Note_on_c, 0, 74, 68
3, 7044, Note_on_c, 0, 74, 0
3, 7044, Note_on_c, 0, 69, 0
3, 7047, Note_on_c, 0, 62, 0
3, 7049, Note_on_c, 0, 78, 0
3, 7076, Control_c, 0, 64, 127
3, 7132, Control_c, 0, 64, 0
3, 7145, Control_c, 0, 64, 127
3, 7147, Note_on_c, 0, 76, 64
3, 7148, Note_on_c, 0, 72, 71
3, 7149, Note_on_c, 0, 67, 64
3, 7150, Note_on_c, 0, 60, 62
3, 7162, Note_on_c, 0, 76, 0
3, 7164, Note_on_c, 0, 67, 0
3, 7168, Note_on_c, 0, 72, 0
3, 7176, Note_on_c, 0, 60, 0
3, 7196, Note_on_c, 0, 75, 71
3, 7196, Note_on_c, 0, 66, 65
3, 7197, Note_on_c, 0, 71, 68
3, 7199, Control_c, 0, 64, 0
3, 7199, Note_on_c, 0, 59, 53
3, 7226, Control_c, 0, 64, 127
3, 7276, Note_on_c, 0, 59, 0
3, 7333, Note_on_c, 0, 66, 0
3, 7347, Note_on_c, 0, 71, 0
3, 7351, Note_on_c, 0, 75, 0
3, 7390, Note_on_c, 0, 73, 36
3, 7392, Note_on_c, 0, 64, 51
3, 7393, Note_on_c, 0, 69, 51
3, 7395, Note_on_c, 0, 57, 45
3, 7397, Note_on_c, 0, 47, 41
3, 7397, Control_c, 0, 64, 0
3, 7446, Control_c, 0, 64, 127
3, 7501, Note_on_c, 0, 69, 0
3, 7511, Note_on_c, 0, 73, 0
3, 7515, Note_on_c, 0, 54, 31
3, 7519, Note_on_c, 0, 64, 0
3, 7562, Note_on_c, 0, 57, 0
3, 7632, Note_on_c, 0, 66, 29
3, 7634, Note_on_c, 0, 64, 42
3, 7635, Note_on_c, 0, 59, 33
3, 7635, Note_on_c, 0, 57, 35
3, 7645, Control_c, 0, 64, 0
3, 7685, Control_c, 0, 64, 127
3, 7779, Note_on_c, 0, 59, 0
3, 7797, Note_on_c, 0, 64, 0
3, 7798, Note_on_c, 0, 66, 0
3, 7990, Control_c, 0, 64, 0
3, 7990, Note_on_c, 0, 68, 87
3, 7990, Note_on_c, 0, 72, 95
3, 7990, Note_on_c, 0, 63, 97
3, 8002, Control_c, 0, 64, 127
3, 8030, Note_on_c, 0, 63, 0
3, 8031, Note_on_c, 0, 68, 0
3, 8033, Note_on_c, 0, 72, 0
3, 8075, Note_on_c, 0, 72, 94
3, 8075, Note_on_c, 0, 68, 82
3, 8076, Note_on_c, 0, 63, 92
3, 8110, Note_on_c, 0, 57, 0
3, 8113, Note_on_c, 0, 54, 0
3, 8123, Note_on_c, 0, 47, 0
3, 8130, Note_on_c, 0, 63, 0
3, 8136, Note_on_c, 0, 68, 0
3, 8138, Note_on_c, 0, 72, 0
3, 8157, Control_c, 0, 64, 0
3, 8158, Note_on_c, 0, 71, 59
3, 8158, Note_on_c, 0, 62, 59
3, 8159, Note_on_c, 0, 67, 62
3, 8160, Note_on_c, 0, 50, 40
3, 8162, Note_on_c, 0, 57, 37
3, 8201, Control_c, 0, 64, 127
3, 8270, Note_on_c, 0, 57, 0
3, 8273, Note_on_c, 0, 50, 0
3, 8280, Note_on_c, 0, 67, 0
3, 8284, Note_on_c, 0, 71, 0
3, 8299, Note_on_c, 0, 62, 0
3, 8350, Note_on_c, 0, 69, 58
3, 8350, Note_on_c, 0, 60, 47
3, 8352, Note_on_c, 0, 65, 60
3, 8353, Note_on_c, 0, 55, 51
3, 8354, Note_on_c, 0, 50, 40
3, 8356, Control_c, 0, 64, 0
3, 8747, Note_on_c, 0, 50, 0
3, 8756, Note_on_c, 0, 55, 0
3, 8764, Note_on_c, 0, 60, 0
3, 8784, Control_c, 0, 64, 127
3, 8800, Note_on_c, 0, 65, 0
3, 8803, Note_on_c, 0, 69, 0
3, 8836, Control_c, 0, 64, 0
3, 8840, Note_on_c, 0, 71, 84
3, 8841, Note_on_c, 0, 67, 90
3, 8841, Note_on_c, 0, 62, 90
3, 8842, Note_on_c, 0, 57, 78
3, 8876, Control_c, 0, 64, 127
3, 8879, Note_on_c, 0, 62, 0
3, 8885, Note_on_c, 0, 67, 0
3, 8889, Note_on_c, 0, 71, 0
3, 8895, Note_on_c, 0, 57, 0
3, 8908, Control_c, 0, 64, 0
3, 8926, Note_on_c, 0, 59, 78
3, 8929, Note_on_c, 0, 72, 88
3, 8929, Note_on_c, 0, 69, 89
3, 8929, Note_on_c, 0, 64, 95
3, 8954, Control_c, 0, 64, 127
3, 8978, Note_on_c, 0, 69, 0
3, 8980, Note_on_c, 0, 72, 0
3, 8984, Note_on_c, 0, 64, 0
3, 8996, Note_on_c, 0, 59, 0
3, 9000, Control_c, 0, 64, 0
3, 9007, Note_on_c, 0, 71, 80
3, 9008, Note_on_c, 0, 62, 77
3, 9009, Note_on_c, 0, 57, 67
3, 9010, Note_on_c, 0, 67, 71
3, 9017, Note_on_c, 0, 69, 25
3, 9024, Control_c, 0, 64, 127
3, 9028, Note_on_c, 0, 69, 0
3, 9033, Note_on_c, 0, 67, 0
3, 9034, Note_on_c, 0, 71, 0
3, 9043, Note_on_c, 0, 62, 0
3, 9074, Note_on_c, 0, 57, 0
3, 9078, Note_on_c, 0, 67, 44
3, 9080, Control_c, 0, 64, 0
3, 9081, Note_on_c, 0, 64, 54
3, 9082, Note_on_c, 0, 59, 53
3, 9084, Note_on_c, 0, 52, 43
3, 9102, Note_on_c, 0, 59, 0
3, 9103, Control_c, 0, 64, 127
3, 9108, Note_on_c, 0, 64, 0
3, 9114, Note_on_c, 0, 67, 0
3, 9142, Note_on_c, 0, 52, 0
3, 9201, Note_on_c, 0, 67, 80
3, 9202, Note_on_c, 0, 71, 77
3, 9202, Note_on_c, 0, 62, 79
3, 9203, Control_c, 0, 64, 0
3, 9205, Note_on_c, 0, 57, 78
3, 9254, Note_on_c, 0, 62, 0
3, 9254, Note_on_c, 0, 67, 0
3, 9254, Note_on_c, 0, 71, 0
3, 9273, Note_on_c, 0, 57, 0
3, 9273, Note_on_c, 0, 69, 61
3, 9275, Note_on_c, 0, 65, 57
3, 9275, Note_on_c, 0, 60, 55
3, 9278, Note_on_c, 0, 55, 60
3, 9699, Note_on_c, 0, 65, 0
3, 9703, Note_on_c, 0, 69, 0
3, 9709, Note_on_c, 0, 60, 0
3, 9735, Note_on_c, 0, 55, 0
3, 9959, Note_on_c, 0, 64, 61
3, 9960, Note_on_c, 0, 67, 54
3, 9963, Note_on_c, 0, 52, 44
3, 9963, Note_on_c, 0, 59, 35
3, 10015, Note_on_c, 0, 59, 0
3, 10017, Note_on_c, 0, 67, 0
3, 10025, Note_on_c, 0, 64, 0
3, 10036, Note_on_c, 0, 69, 75
3, 10036, Note_on_c, 0, 65, 76
3, 10036, Note_on_c, 0, 60, 74
3, 10038, Note_on_c, 0, 53, 77
3, 10045, Note_on_c, 0, 52, 0
3, 10048, Control_c, 0, 64, 127
3, 10197, Note_on_c, 0, 60, 0
3, 10200, Note_on_c, 0, 65, 0
3, 10201, Note_on_c, 0, 69, 0
3, 10205, Note_on_c, 0, 53, 0
3, 10750, Control_c, 0, 64, 0
3, 10754, Note_on_c, 0, 59, 80
3, 10754, Note_on_c, 0, 71, 91
3, 10754, Note_on_c, 0, 67, 91
3, 10754, Note_on_c, 0, 62, 94
3, 10779, Note_on_c, 0, 59, 0
3, 10782, Note_on_c, 0, 71, 0
3, 10782, Note_on_c, 0, 67, 0
3, 10782, Note_on_c, 0, 62, 0
3, 10871, Note_on_c, 0, 67, 57
3, 10873, Note_on_c, 0, 55, 71
3, 10873, Note_on_c, 0, 64, 61
3, 10874, Note_on_c, 0, 59, 63
3, 10905, Note_on_c, 0, 59, 0
3, 10910, Note_on_c, 0, 55, 0
3, 10912, Note_on_c, 0, 64, 0
3, 10913, Note_on_c, 0, 67, 0
3, 10988, Note_on_c, 0, 65, 64
3, 10988, Note_on_c, 0, 69, 62
3, 10988, Note_on_c, 0, 60, 60
3, 10991, Note_on_c, 0, 57, 55
3, 11145, Control_c, 0, 64, 127
3, 11186, Note_on_c, 0, 57, 0
3, 11497, Note_on_c, 0, 60, 0
3, 11507, Note_on_c, 0, 65, 0
3, 11522, Note_on_c, 0, 69, 0
3, 11659, Control_c, 0, 64, 0
3, 11729, Note_on_c, 0, 76, 99
3, 11752, Note_on_c, 0, 76, 0
3, 11775, Note_on_c, 0, 79, 80
3, 11794, Note_on_c, 0, 79, 0
3, 11848, Note_on_c, 0, 77, 76
3, 11869, Note_on_c, 0, 77, 0
3, 11894, Note_on_c, 0, 73, 35
3, 11921, Note_on_c, 0, 73, 0
3, 11960, Note_on_c, 0, 76, 74
3, 11980, Note_on_c, 0, 76, 0
3, 12004, Note_on_c, 0, 74, 62
3, 12034, Note_on_c, 0, 74, 0
3, 12079, Note_on_c, 0, 67, 44
3, 12092, Note_on_c, 0, 67, 0
3, 12118, Note_on_c, 0, 69, 57
3, 12181, Note_on_c, 0, 69, 0
3, 12238, Note_on_c, 0, 60, 37
3, 12238, Note_on_c, 0, 65, 41
3, 12239, Note_on_c, 0, 55, 41
3, 12268, Note_on_c, 0, 55, 0
3, 12276, Note_on_c, 0, 60, 0
3, 12279, Note_on_c, 0, 65, 0
3, 12355, Note_on_c, 0, 65, 45
3, 12355, Note_on_c, 0, 60, 44
3, 12357, Note_on_c, 0, 55, 38
3, 12388, Note_on_c, 0, 65, 0
3, 12389, Note_on_c, 0, 60, 0
3, 12397, Note_on_c, 0, 55, 0
3, 12596, Note_on_c, 0, 55, 42
3, 12597, Note_on_c, 0, 60, 29
3, 12602, Note_on_c, 0, 50, 24
3, 12620, Note_on_c, 0, 50, 0
3, 12622, Note_on_c, 0, 55, 0
3, 12623, Note_on_c, 0, 60, 0
3, 12719, Note_on_c, 0, 74, 118
3, 12749, Note_on_c, 0, 74, 0
3, 12801, Note_on_c, 0, 73, 77
3, 12831, Note_on_c, 0, 73, 0
3, 12845, Note_on_c, 0, 76, 82
3, 12870, Note_on_c, 0, 76, 0
3, 12882, Note_on_c, 0, 74, 80
3, 12911, Note_on_c, 0, 74, 0
3, 12922, Note_on_c, 0, 69, 66
3, 12928, Note_on_c, 0, 65, 40
3, 12935, Note_on_c, 0, 65, 0
3, 12935, Note_on_c, 0, 60, 24
3, 12941, Note_on_c, 0, 60, 0
3, 12947, Note_on_c, 0, 69, 0
3, 12960, Note_on_c, 0, 67, 51
3, 12997, Note_on_c, 0, 67, 0
3, 13086, Note_on_c, 0, 65, 82
3, 13118, Note_on_c, 0, 65, 0
3, 13127, Note_on_c, 0, 64, 42
3, 13157, Note_on_c, 0, 64, 0
3, 13166, Note_on_c, 0, 67, 69
3, 13201, Note_on_c, 0, 67, 0
3, 13210, Note_on_c, 0, 65, 51
3, 13243, Note_on_c, 0, 65, 0
3, 13247, Note_on_c, 0, 61, 48
3, 13283, Note_on_c, 0, 61, 0
3, 13283, Note_on_c, 0, 64, 61
3, 13319, Note_on_c, 0, 64, 0
3, 13321, Note_on_c, 0, 62, 53
3, 13349, Note_on_c, 0, 62, 0
3, 13362, Note_on_c, 0, 57, 54
3, 13384, Note_on_c, 0, 57, 0
3, 13395, Note_on_c, 0, 62, 57
3, 13399, Note_on_c, 0, 55, 65
3, 13429, Note_on_c, 0, 55, 0
3, 13436, Note_on_c, 0, 53, 43
3, 13440, Note_on_c, 0, 62, 0
3, 13444, Note_on_c, 0, 53, 0
3, 13473, Note_on_c, 0, 55, 59
3, 13473, Note_on_c, 0, 62, 20
3, 13489, Note_on_c, 0, 62, 0
3, 13504, Note_on_c, 0, 55, 0
3, 13515, Note_on_c, 0, 52, 38
3, 13544, Note_on_c, 0, 52, 0
3, 13555, Note_on_c, 0, 53, 59
3, 13593, Note_on_c, 0, 53, 0
3, 13757, Note_on_c, 0, 60, 63
3, 13758, Note_on_c, 0, 65, 62
3, 13758, Note_on_c, 0, 55, 60
3, 13783, Note_on_c, 0, 55, 0
3, 13785, Note_on_c, 0, 60, 0
3, 13788, Note_on_c, 0, 65, 0
3, 13807, Note_on_c, 0, 67, 65
3, 13808, Note_on_c, 0, 57, 61
3, 13809, Note_on_c, 0, 62, 57
3, 13817, Note_on_c, 0, 62, 0
3, 13818, Note_on_c, 0, 57, 0
3, 13821, Note_on_c, 0, 67, 0
3, 13883, Note_on_c, 0, 74, 91
3, 13906, Note_on_c, 0, 74, 0
3, 13926, Note_on_c, 0, 72, 55
3, 13940, Note_on_c, 0, 72, 0
3, 13998, Note_on_c, 0, 60, 56
3, 13999, Note_on_c, 0, 69, 62
3, 14002, Note_on_c, 0, 55, 41
3, 14010, Note_on_c, 0, 55, 0
3, 14014, Note_on_c, 0, 60, 0
3, 14023, Note_on_c, 0, 69, 0
3, 14041, Note_on_c, 0, 67, 48
3, 14086, Note_on_c, 0, 67, 0
3, 14134, Note_on_c, 0, 72, 84
3, 14157, Note_on_c, 0, 72, 0
3, 14181, Note_on_c, 0, 69, 45
3, 14196, Note_on_c, 0, 69, 0
3, 14244, Note_on_c, 0, 67, 70
3, 14248, Note_on_c, 0, 55, 37
3, 14255, Note_on_c, 0, 55, 0
3, 14271, Note_on_c, 0, 67, 0
3, 14297, Note_on_c, 0, 64, 31
3, 14318, Note_on_c, 0, 64, 0
3, 14364, Note_on_c, 0, 69, 83
3, 14369, Note_on_c, 0, 65, 67
3, 14371, Note_on_c, 0, 60, 55
3, 14375, Note_on_c, 0, 65, 0
3, 14384, Note_on_c, 0, 60, 0
3, 14388, Note_on_c, 0, 69, 0
3, 14410, Note_on_c, 0, 67, 52
3, 14431, Note_on_c, 0, 67, 0
3, 14482, Note_on_c, 0, 64, 61
3, 14512, Note_on_c, 0, 64, 0
3, 14528, Note_on_c, 0, 62, 28
3, 14553, Note_on_c, 0, 62, 0
3, 14603, Note_on_c, 0, 60, 63
3, 14604, Note_on_c, 0, 67, 80
3, 14604, Note_on_c, 0, 55, 62
3, 14609, Note_on_c, 0, 60, 0
3, 14610, Note_on_c, 0, 55, 0
3, 14623, Note_on_c, 0, 67, 0
3, 14646, Note_on_c, 0, 64, 57
3, 14668, Note_on_c, 0, 64, 0
3, 14685, Note_on_c, 0, 62, 63
3, 14708, Note_on_c, 0, 62, 0
3, 14723, Note_on_c, 0, 60, 71
3, 14749, Note_on_c, 0, 60, 0
3, 14766, Note_on_c, 0, 57, 36
3, 14840, Note_on_c, 0, 57, 0
3, 14846, Note_on_c, 0, 55, 45
3, 14872, Note_on_c, 0, 55, 0
3, 14887, Note_on_c, 0, 57, 46
3, 14947, Note_on_c, 0, 57, 0
3, 14958, Note_on_c, 0, 60, 64
3, 14982, Note_on_c, 0, 60, 0
3, 14997, Note_on_c, 0, 62, 51
3, 15081, Note_on_c, 0, 62, 0
3, 15127, Note_on_c, 0, 62, 43
3, 15129, Note_on_c, 0, 63, 46
3, 15152, Note_on_c, 0, 64, 33
3, 15157, Note_on_c, 0, 62, 0
3, 15158, Note_on_c, 0, 63, 0
3, 15182, Note_on_c, 0, 64, 0
3, 15362, Note_on_c, 0, 60, 49
3, 15363, Note_on_c, 0, 55, 41
3, 15364, Note_on_c, 0, 65, 40
3, 15383, Note_on_c, 0, 65, 0
3, 15389, Note_on_c, 0, 60, 0
3, 15391, Note_on_c, 0, 55, 0
3, 15483, Note_on_c, 0, 62, 47
3, 15484, Note_on_c, 0, 67, 51
3, 15488, Note_on_c, 0, 57, 43
3, 15501, Note_on_c, 0, 67, 0
3, 15502, Note_on_c, 0, 62, 0
3, 15511, Note_on_c, 0, 57, 0
3, 15557, Control_c, 0, 64, 127
3, 15578, Control_c, 0, 64, 0
3, 15600, Note_on_c, 0, 50, 51
3, 15600, Note_on_c, 0, 69, 70
3, 15601, Note_on_c, 0, 60, 60
3, 15601, Note_on_c, 0, 55, 46
3, 15603, Note_on_c, 0, 65, 73
3, 15611, Control_c, 0, 64, 127
3, 15627, Note_on_c, 0, 55, 0
3, 15629, Note_on_c, 0, 50, 0
3, 15641, Note_on_c, 0, 60, 0
3, 15656, Note_on_c, 0, 65, 0
3, 15665, Note_on_c, 0, 69, 0
3, 15682, Note_on_c, 0, 62, 64
3, 15682, Note_on_c, 0, 71, 72
3, 15683, Note_on_c, 0, 67, 80
3, 15683, Note_on_c, 0, 57, 61
3, 15685, Note_on_c, 0, 52, 30
3, 15692, Note_on_c, 0, 52, 0
3, 15693, Note_on_c, 0, 62, 0
3, 15698, Note_on_c, 0, 57, 0
3, 15705, Note_on_c, 0, 67, 0
3, 15706, Note_on_c, 0, 71, 0
3, 15719, Control_c, 0, 64, 0
3, 15719, Note_on_c, 0, 53, 80
3, 15720, Note_on_c, 0, 68, 81
3, 15720, Note_on_c, 0, 72, 79
3, 15720, Note_on_c, 0, 63, 78
3, 15722, Note_on_c, 0, 58, 69
3, 15776, Note_on_c, 0, 53, 0
3, 15780, Note_on_c, 0, 63, 0
3, 15785, Note_on_c, 0, 72, 0
3, 15790, Note_on_c, 0, 68, 0
3, 15796, Note_on_c, 0, 58, 0
3, 15798, Note_on_c, 0, 62, 72
3, 15799, Note_on_c, 0, 67, 74
3, 15799, Note_on_c, 0, 71, 66
3, 15802, Note_on_c, 0, 57, 66
3, 15804, Note_on_c, 0, 52, 52
3, 15807, Control_c, 0, 64, 127
3, 15812, Note_on_c, 0, 62, 0
3, 15817, Note_on_c, 0, 57, 0
3, 15821, Note_on_c, 0, 52, 0
3, 15833, Note_on_c, 0, 71, 0
3, 15834, Control_c, 0, 64, 0
3, 15839, Note_on_c, 0, 67, 0
3, 15847, Note_on_c, 0, 60, 31
3, 15848, Note_on_c, 0, 65, 46
3, 15849, Note_on_c, 0, 69, 55
3, 15851, Note_on_c, 0, 50, 20
3, 15851, Note_on_c, 0, 55, 40
3, 15865, Note_on_c, 0, 55, 0
3, 15866, Note_on_c, 0, 60, 0
3, 15867, Note_on_c, 0, 65, 0
3, 15872, Note_on_c, 0, 50, 0
3, 15882, Note_on_c, 0, 69, 0
3, 16048, Note_on_c, 0, 50, 29
3, 16051, Note_on_c, 0, 55, 35
3, 16056, Note_on_c, 0, 50, 0
3, 16057, Note_on_c, 0, 55, 0
3, 16083, Note_on_c, 0, 67, 84
3, 16110, Note_on_c, 0, 67, 0
3, 16115, Note_on_c, 0, 64, 52
3, 16135, Note_on_c, 0, 64, 0
3, 16146, Note_on_c, 0, 65, 66
3, 16170, Note_on_c, 0, 65, 0
3, 16179, Note_on_c, 0, 69, 58
3, 16200, Note_on_c, 0, 69, 0
3, 16210, Note_on_c, 0, 72, 51
3, 16222, Note_on_c, 0, 72, 0
3, 16244, Note_on_c, 0, 76, 54
3, 16263, Note_on_c, 0, 76, 0
3, 16276, Note_on_c, 0, 67, 81
3, 16276, Note_on_c, 0, 79, 82
3, 16309, Note_on_c, 0, 78, 63
3, 16310, Note_on_c, 0, 67, 0
3, 16315, Note_on_c, 0, 79, 0
3, 16332, Note_on_c, 0, 78, 0
3, 16338, Note_on_c, 0, 77, 37
3, 16363, Note_on_c, 0, 77, 0
3, 16372, Note_on_c, 0, 73, 39
3, 16390, Note_on_c, 0, 73, 0
3, 16397, Note_on_c, 0, 76, 71
3, 16429, Note_on_c, 0, 76, 0
3, 16431, Note_on_c, 0, 73, 33
3, 16443, Note_on_c, 0, 73, 0
3, 16459, Note_on_c, 0, 74, 74
3, 16484, Note_on_c, 0, 74, 0
3, 16493, Note_on_c, 0, 69, 49
3, 16509, Note_on_c, 0, 69, 0
3, 16759, Note_on_c, 0, 67, 92
3, 16764, Note_on_c, 0, 57, 61
3, 16765, Note_on_c, 0, 62, 49
3, 16770, Note_on_c, 0, 57, 0
3, 16771, Note_on_c, 0, 62, 0
3, 16797, Note_on_c, 0, 67, 0
3, 16808, Note_on_c, 0, 65, 42
3, 16810, Note_on_c, 0, 60, 44
3, 16813, Note_on_c, 0, 55, 36
3, 16817, Note_on_c, 0, 60, 0
3, 16821, Note_on_c, 0, 55, 0
3, 16871, Note_on_c, 0, 65, 0
3, 16923, Note_on_c, 0, 64, 62
3, 16974, Note_on_c, 0, 64, 0
3, 16991, Note_on_c, 0, 65, 60
3, 16999, Note_on_c, 0, 64, 44
3, 17009, Note_on_c, 0, 65, 0
3, 17022, Note_on_c, 0, 62, 43
3, 17024, Note_on_c, 0, 64, 0
3, 17041, Note_on_c, 0, 62, 0
3, 17054, Note_on_c, 0, 61, 49
3, 17113, Note_on_c, 0, 61, 0
3, 17122, Note_on_c, 0, 64, 80
3, 17124, Note_on_c, 0, 60, 44
3, 17130, Note_on_c, 0, 60, 0
3, 17152, Note_on_c, 0, 64, 0
3, 17164, Note_on_c, 0, 62, 55
3, 17237, Note_on_c, 0, 62, 0
3, 17245, Note_on_c, 0, 57, 50
3, 17367, Note_on_c, 0, 50, 36
3, 17374, Note_on_c, 0, 50, 0
3, 17390, Note_on_c, 0, 57, 0
3, 17597, Note_on_c, 0, 62, 68
3, 17600, Note_on_c, 0, 60, 56
3, 17602, Note_on_c, 0, 55, 42
3, 17609, Note_on_c, 0, 55, 0
3, 17611, Note_on_c, 0, 62, 0
3, 17613, Note_on_c, 0, 60, 0
3, 17637, Note_on_c, 0, 67, 54
3, 17710, Note_on_c, 0, 67, 0
3, 17721, Note_on_c, 0, 74, 81
3, 17753, Note_on_c, 0, 74, 0
3, 17774, Note_on_c, 0, 72, 52
3, 17828, Note_on_c, 0, 72, 0
3, 17886, Note_on_c, 0, 65, 57
3, 17887, Note_on_c, 0, 55, 49
3, 17888, Note_on_c, 0, 60, 48
3, 17919, Note_on_c, 0, 60, 0
3, 17919, Note_on_c, 0, 65, 0
3, 17924, Note_on_c, 0, 55, 0
3, 18004, Note_on_c, 0, 64, 51
3, 18008, Note_on_c, 0, 59, 48
3, 18013, Note_on_c, 0, 53, 24
3, 18053, Note_on_c, 0, 64, 0
3, 18054, Note_on_c, 0, 59, 0
3, 18060, Note_on_c, 0, 53, 0
3, 18089, Note_on_c, 0, 74, 24
3, 18101, Note_on_c, 0, 74, 0
3, 18121, Note_on_c, 0, 81, 89
3, 18121, Note_on_c, 0, 69, 90
3, 18181, Note_on_c, 0, 81, 0
3, 18189, Note_on_c, 0, 69, 0
3, 18203, Note_on_c, 0, 69, 74
3, 18204, Note_on_c, 0, 81, 81
3, 18208, Note_on_c, 0, 50, 36
3, 18216, Note_on_c, 0, 50, 0
3, 18236, Note_on_c, 0, 81, 0
3, 18236, Note_on_c, 0, 69, 0
3, 18361, Note_on_c, 0, 76, 94
3, 18383, Note_on_c, 0, 76, 0
3, 18444, Note_on_c, 0, 79, 101
3, 18445, Note_on_c, 0, 50, 63
3, 18461, Note_on_c, 0, 50, 0
3, 18475, Note_on_c, 0, 79, 0
3, 18514, Note_on_c, 0, 79, 79
3, 18545, Note_on_c, 0, 79, 0
3, 18595, Note_on_c, 0, 65, 66
3, 18599, Note_on_c, 0, 74, 68
3, 18600, Note_on_c, 0, 60, 44
3, 18601, Note_on_c, 0, 65, 0
3, 18606, Note_on_c, 0, 60, 0
3, 18616, Note_on_c, 0, 74, 0
3, 18679, Note_on_c, 0, 77, 101
3, 18680, Note_on_c, 0, 48, 48
3, 18683, Note_on_c, 0, 50, 40
3, 18694, Note_on_c, 0, 48, 0
3, 18698, Note_on_c, 0, 50, 0
3, 18720, Note_on_c, 0, 77, 0
3, 18758, Note_on_c, 0, 77, 76
3, 18795, Control_c, 0, 64, 127
3, 18799, Note_on_c, 0, 77, 0
3, 18820, Control_c, 0, 64, 0
3, 18842, Note_on_c, 0, 72, 73
3, 18842, Note_on_c, 0, 65, 37
3, 18844, Note_on_c, 0, 60, 36
3, 18847, Note_on_c, 0, 55, 19
3, 18849, Note_on_c, 0, 65, 0
3, 18851, Note_on_c, 0, 60, 0
3, 18856, Note_on_c, 0, 55, 0
3, 18857, Note_on_c, 0, 72, 0
3, 18924, Note_on_c, 0, 50, 50
3, 18924, Note_on_c, 0, 76, 103
3, 18925, Note_on_c, 0, 48, 48
3, 18938, Note_on_c, 0, 48, 0
3, 18947, Note_on_c, 0, 50, 0
3, 18962, Note_on_c, 0, 76, 0
3, 18996, Note_on_c, 0, 76, 80
3, 19031, Control_c, 0, 64, 127
3, 19045, Note_on_c, 0, 76, 0
3, 19073, Control_c, 0, 64, 0
3, 19078, Note_on_c, 0, 65, 58
3, 19081, Note_on_c, 0, 60, 39
3, 19083, Note_on_c, 0, 71, 49
3, 19084, Note_on_c, 0, 65, 0
3, 19088, Note_on_c, 0, 55, 22
3, 19089, Note_on_c, 0, 60, 0
3, 19095, Note_on_c, 0, 55, 0
3, 19103, Note_on_c, 0, 71, 0
3, 19159, Note_on_c, 0, 74, 80
3, 19186, Note_on_c, 0, 74, 0
3, 19330, Note_on_c, 0, 64, 75
3, 19340, Note_on_c, 0, 64, 0
3, 19444, Note_on_c, 0, 64, 77
3, 19516, Note_on_c, 0, 64, 0
3, 19525, Note_on_c, 0, 62, 36
3, 19558, Note_on_c, 0, 62, 0
3, 19564, Note_on_c, 0, 60, 44
3, 19662, Note_on_c, 0, 60, 0
3, 19685, Note_on_c, 0, 59, 48
3, 19720, Note_on_c, 0, 59, 0
3, 20118, Note_on_c, 0, 61, 60
3, 20119, Note_on_c, 0, 47, 59
3, 20120, Note_on_c, 0, 57, 71
3, 20120, Note_on_c, 0, 52, 71
3, 20136, Note_on_c, 0, 52, 0
3, 20138, Note_on_c, 0, 47, 0
3, 20142, Note_on_c, 0, 57, 0
3, 20146, Note_on_c, 0, 61, 0
3, 20241, Note_on_c, 0, 54, 88
3, 20243, Note_on_c, 0, 63, 71
3, 20243, Note_on_c, 0, 59, 78
3, 20245, Note_on_c, 0, 47, 68
3, 20278, Note_on_c, 0, 47, 0
3, 20280, Note_on_c, 0, 59, 0
3, 20280, Note_on_c, 0, 54, 0
3, 20283, Note_on_c, 0, 63, 0
3, 20365, Note_on_c, 0, 61, 50
3, 20366, Note_on_c, 0, 52, 48
3, 20367, Note_on_c, 0, 47, 46
3, 20370, Note_on_c, 0, 57, 47
3, 20372, Note_on_c, 0, 52, 0
3, 20385, Note_on_c, 0, 47, 0
3, 20389, Note_on_c, 0, 57, 0
3, 20390, Note_on_c, 0, 61, 0
3, 20405, Note_on_c, 0, 47, 66
3, 20406, Note_on_c, 0, 59, 80
3, 20407, Note_on_c, 0, 54, 86
3, 20407, Note_on_c, 0, 63, 69
3, 20414, Note_on_c, 0, 57, 29
3, 20420, Note_on_c, 0, 57, 0
3, 20509, Note_on_c, 0, 54, 0
3, 20514, Note_on_c, 0, 63, 0
3, 20514, Note_on_c, 0, 47, 0
3, 20517, Note_on_c, 0, 59, 0
3, 20524, Note_on_c, 0, 61, 38
3, 20526, Note_on_c, 0, 47, 48
3, 20529, Note_on_c, 0, 57, 51
3, 20529, Note_on_c, 0, 52, 66
3, 20568, Note_on_c, 0, 52, 0
3, 20584, Note_on_c, 0, 47, 0
3, 20586, Note_on_c, 0, 61, 0
3, 20590, Note_on_c, 0, 57, 0
3, 20599, Note_on_c, 0, 54, 82
3, 20599, Note_on_c, 0, 63, 70
3, 20600, Note_on_c, 0, 47, 62
3, 20600, Note_on_c, 0, 59, 74
3, 20603, Note_on_c, 0, 61, 32
3, 20605, Note_on_c, 0, 57, 43
3, 20609, Note_on_c, 0, 61, 0
3, 20609, Note_on_c, 0, 54, 0
3, 20611, Note_on_c, 0, 57, 0
3, 20614, Note_on_c, 0, 47, 0
3, 20614, Note_on_c, 0, 59, 0
3, 20619, Note_on_c, 0, 63, 0
3, 20718, Note_on_c, 0, 61, 92
3, 20746, Note_on_c, 0, 61, 0
3, 20771, Note_on_c, 0, 59, 24
3, 20878, Note_on_c, 0, 59, 0
3, 20886, Note_on_c, 0, 61, 62
3, 21170, Note_on_c, 0, 61, 0
3, 21171, Note_on_c, 0, 64, 62
3, 21206, Note_on_c, 0, 64, 0
3, 21206, Note_on_c, 0, 66, 77
3, 21237, Note_on_c, 0, 66, 0
3, 21244, Note_on_c, 0, 68, 74
3, 21245, Note_on_c, 0, 66, 20
3, 21252, Note_on_c, 0, 66, 0
3, 21269, Note_on_c, 0, 68, 0
3, 21279, Note_on_c, 0, 71, 73
3, 21307, Note_on_c, 0, 71, 0
3, 21319, Note_on_c, 0, 73, 73
3, 21326, Note_on_c, 0, 57, 57
3, 21332, Note_on_c, 0, 57, 0
3, 21352, Note_on_c, 0, 73, 0
3, 21360, Note_on_c, 0, 76, 82
3, 21394, Note_on_c, 0, 76, 0
3, 21398, Note_on_c, 0, 73, 37
3, 21416, Note_on_c, 0, 73, 0
3, 21434, Note_on_c, 0, 76, 91
3, 21469, Note_on_c, 0, 76, 0
3, 21477, Note_on_c, 0, 73, 34
3, 21496, Note_on_c, 0, 73, 0
3, 21520, Note_on_c, 0, 71, 29
3, 21539, Note_on_c, 0, 71, 0
3, 21556, Note_on_c, 0, 68, 42
3, 21583, Note_on_c, 0, 68, 0
3, 21601, Note_on_c, 0, 71, 64
3, 21636, Note_on_c, 0, 71, 0
3, 21679, Note_on_c, 0, 71, 78
3, 21717, Note_on_c, 0, 71, 0
3, 21720, Note_on_c, 0, 68, 47
3, 21758, Note_on_c, 0, 68, 0
3, 21760, Note_on_c, 0, 66, 44
3, 21780, Note_on_c, 0, 66, 0
3, 21803, Note_on_c, 0, 64, 38
3, 21826, Note_on_c, 0, 64, 0
3, 22147, Note_on_c, 0, 63, 42
3, 22149, Note_on_c, 0, 58, 43
3, 22152, Note_on_c, 0, 59, 36
3, 22160, Note_on_c, 0, 59, 0
3, 22162, Note_on_c, 0, 58, 0
3, 22162, Note_on_c, 0, 63, 0
3, 22211, Note_on_c, 0, 63, 37
3, 22216, Note_on_c, 0, 58, 31
3, 22216, Note_on_c, 0, 59, 44
3, 22225, Note_on_c, 0, 59, 0
3, 22227, Note_on_c, 0, 63, 0
3, 22228, Note_on_c, 0, 58, 0
3, 22331, Note_on_c, 0, 68, 86
3, 22369, Note_on_c, 0, 68, 0
3, 22409, Note_on_c, 0, 66, 86
3, 22439, Note_on_c, 0, 66, 0
3, 22456, Note_on_c, 0, 64, 51
3, 22510, Note_on_c, 0, 64, 0
3, 22532, Note_on_c, 0, 61, 29
3, 22553, Note_on_c, 0, 61, 0
3, 22564, Note_on_c, 0, 64, 81
3, 22663, Note_on_c, 0, 64, 0
3, 22679, Note_on_c, 0, 61, 45
3, 22783, Note_on_c, 0, 61, 0
3, 22799, Note_on_c, 0, 59, 35
3, 22874, Note_on_c, 0, 61, 56
3, 22880, Note_on_c, 0, 59, 0
3, 23027, Note_on_c, 0, 61, 0
3, 23042, Note_on_c, 0, 59, 44
3, 23115, Note_on_c, 0, 59, 0
3, 23163, Note_on_c, 0, 59, 44
3, 23361, Note_on_c, 0, 59, 0
3, 23367, Note_on_c, 0, 57, 33
3, 23402, Note_on_c, 0, 57, 0
3, 23410, Note_on_c, 0, 60, 45
3, 23448, Note_on_c, 0, 60, 0
3, 23448, Note_on_c, 0, 64, 73
3, 23474, Note_on_c, 0, 64, 0
3, 23484, Note_on_c, 0, 67, 91
3, 23520, Note_on_c, 0, 67, 0
3, 23523, Note_on_c, 0, 65, 64
3, 23549, Note_on_c, 0, 65, 0
3, 23556, Note_on_c, 0, 61, 40
3, 23588, Note_on_c, 0, 61, 0
3, 23595, Note_on_c, 0, 64, 77
3, 23629, Note_on_c, 0, 64, 0
3, 23634, Note_on_c, 0, 62, 46
3, 23659, Note_on_c, 0, 62, 0
3, 23673, Note_on_c, 0, 57, 42
3, 23691, Note_on_c, 0, 57, 0
3, 23712, Note_on_c, 0, 55, 49
3, 23738, Note_on_c, 0, 55, 0
3, 23751, Note_on_c, 0, 53, 31
3, 23766, Note_on_c, 0, 53, 0
3, 23782, Note_on_c, 0, 55, 51
3, 23809, Note_on_c, 0, 55, 0
3, 23873, Note_on_c, 0, 62, 53
3, 23874, Note_on_c, 0, 55, 55
3, 23876, Note_on_c, 0, 60, 57
3, 23933, Note_on_c, 0, 60, 0
3, 23934, Note_on_c, 0, 55, 0
3, 23938, Note_on_c, 0, 62, 0
3, 24203, Note_on_c, 0, 76, 44
3, 24206, Note_on_c, 0, 57, 53
3, 24212, Note_on_c, 0, 57, 0
3, 24219, Note_on_c, 0, 76, 0
3, 24244, Note_on_c, 0, 79, 85
3, 24244, Note_on_c, 0, 67, 94
3, 24308, Note_on_c, 0, 79, 0
3, 24325, Note_on_c, 0, 79, 33
3, 24343, Note_on_c, 0, 67, 0
3, 24346, Note_on_c, 0, 79, 0
3, 24364, Note_on_c, 0, 77, 51
3, 24366, Note_on_c, 0, 65, 48
3, 24417, Note_on_c, 0, 77, 0
3, 24420, Note_on_c, 0, 65, 0
3, 24447, Note_on_c, 0, 77, 42
3, 24449, Note_on_c, 0, 65, 36
3, 24460, Note_on_c, 0, 77, 0
3, 24461, Note_on_c, 0, 65, 0
3, 24483, Note_on_c, 0, 76, 49
3, 24487, Note_on_c, 0, 64, 35
3, 24514, Note_on_c, 0, 76, 0
3, 24527, Note_on_c, 0, 64, 0
3, 24597, Note_on_c, 0, 72, 39
3, 24597, Note_on_c, 0, 60, 30
3, 24631, Note_on_c, 0, 60, 0
3, 24652, Note_on_c, 0, 72, 0
3, 24719, Note_on_c, 0, 74, 47
3, 24722, Note_on_c, 0, 62, 35
3, 24755, Note_on_c, 0, 62, 0
3, 24767, Note_on_c, 0, 74, 0
3, 25157, Note_on_c, 0, 65, 68
3, 25160, Note_on_c, 0, 69, 54
3, 25160, Note_on_c, 0, 70, 33
3, 25161, Note_on_c, 0, 71, 53
3, 25161, Note_on_c, 0, 60, 55
3, 25163, Note_on_c, 0, 55, 44
3, 25164, Note_on_c, 0, 50, 32
3, 25166, Note_on_c, 0, 70, 0
3, 25167, Note_on_c, 0, 71, 0
3, 25169, Note_on_c, 0, 65, 0
3, 25171, Note_on_c, 0, 55, 0
3, 25172, Note_on_c, 0, 50, 0
3, 25174, Note_on_c, 0, 69, 0
3, 25176, Note_on_c, 0, 60, 0
3, 25222, Note_on_c, 0, 71, 91
3, 25224, Note_on_c, 0, 67, 84
3, 25226, Note_on_c, 0, 62, 53
3, 25227, Note_on_c, 0, 52, 64
3, 25229, Note_on_c, 0, 56, 23
3, 25229, Note_on_c, 0, 60, 54
3, 25231, Note_on_c, 0, 57, 34
3, 25235, Note_on_c, 0, 60, 0
3, 25258, Note_on_c, 0, 56, 0
3, 25273, Note_on_c, 0, 57, 0
3, 25275, Note_on_c, 0, 62, 0
3, 25277, Note_on_c, 0, 52, 0
3, 25290, Note_on_c, 0, 67, 0
3, 25291, Note_on_c, 0, 71, 0
3, 25311, Note_on_c, 0, 53, 54
3, 25313, Note_on_c, 0, 72, 69
3, 25314, Note_on_c, 0, 63, 59
3, 25314, Note_on_c, 0, 68, 65
3, 25316, Note_on_c, 0, 58, 53
3, 25352, Note_on_c, 0, 63, 0
3, 25354, Note_on_c, 0, 53, 0
3, 25372, Note_on_c, 0, 58, 0
3, 25374, Note_on_c, 0, 68, 0
3, 25376, Note_on_c, 0, 72, 0
3, 25391, Note_on_c, 0, 62, 53
3, 25391, Note_on_c, 0, 67, 66
3, 25393, Note_on_c, 0, 71, 60
3, 25394, Note_on_c, 0, 57, 56
3, 25398, Note_on_c, 0, 52, 35
3, 25402, Note_on_c, 0, 62, 0
3, 25403, Note_on_c, 0, 57, 0
3, 25406, Note_on_c, 0, 67, 0
3, 25406, Note_on_c, 0, 52, 0
3, 25409, Note_on_c, 0, 71, 0
3, 25464, Note_on_c, 0, 60, 52
3, 25464, Note_on_c, 0, 65, 62
3, 25465, Note_on_c, 0, 69, 57
3, 25466, Note_on_c, 0, 55, 46
3, 25471, Note_on_c, 0, 50, 31
3, 25524, Note_on_c, 0, 65, 0
3, 25525, Note_on_c, 0, 50, 0
3, 25528, Note_on_c, 0, 60, 0
3, 25529, Note_on_c, 0, 55, 0
3, 25534, Note_on_c, 0, 69, 0
3, 25550, Note_on_c, 0, 64, 47
3, 25550, Note_on_c, 0, 67, 51
3, 25552, Note_on_c, 0, 55, 37
3, 25560, Note_on_c, 0, 55, 0
3, 25560, Note_on_c, 0, 50, 30
3, 25565, Note_on_c, 0, 64, 0
3, 25566, Note_on_c, 0, 67, 0
3, 25570, Note_on_c, 0, 50, 0
3, 25640, Note_on_c, 0, 50, 36
3, 25640, Note_on_c, 0, 62, 33
3, 25641, Note_on_c, 0, 65, 53
3, 25657, Note_on_c, 0, 50, 0
3, 25662, Note_on_c, 0, 65, 0
3, 25664, Note_on_c, 0, 62, 0
3, 25722, Note_on_c, 0, 61, 37
3, 25749, Note_on_c, 0, 61, 0
3, 25757, Note_on_c, 0, 64, 77
3, 25787, Note_on_c, 0, 64, 0
3, 25799, Note_on_c, 0, 62, 53
3, 25829, Note_on_c, 0, 62, 0
3, 25839, Note_on_c, 0, 57, 41
3, 25862, Note_on_c, 0, 57, 0
3, 25878, Note_on_c, 0, 55, 57
3, 25911, Note_on_c, 0, 55, 0
3, 25922, Note_on_c, 0, 53, 32
3, 26115, Note_on_c, 0, 51, 50
3, 26123, Note_on_c, 0, 53, 0
3, 26144, Note_on_c, 0, 51, 0
3, 26155, Note_on_c, 0, 53, 54
3, 26187, Note_on_c, 0, 53, 0
3, 26191, Note_on_c, 0, 51, 49
3, 26216, Note_on_c, 0, 51, 0
3, 26227, Note_on_c, 0, 52, 32
3, 26266, Note_on_c, 0, 52, 0
3, 26402, Note_on_c, 0, 55, 80
3, 26428, Note_on_c, 0, 55, 0
3, 26435, Note_on_c, 0, 52, 36
3, 26452, Note_on_c, 0, 52, 0
3, 26467, Note_on_c, 0, 53, 44
3, 26489, Note_on_c, 0, 53, 0
3, 26496, Note_on_c, 0, 55, 69
3, 26519, Note_on_c, 0, 55, 0
3, 26531, Note_on_c, 0, 57, 62
3, 26565, Note_on_c, 0, 57, 0
3, 26606, Note_on_c, 0, 62, 78
3, 26606, Note_on_c, 0, 60, 74
3, 26620, Note_on_c, 0, 62, 0
3, 26623, Note_on_c, 0, 60, 0
3, 26646, Note_on_c, 0, 64, 94
3, 26720, Note_on_c, 0, 64, 0
3, 26726, Note_on_c, 0, 67, 82
3, 26755, Note_on_c, 0, 67, 0
3, 26768, Note_on_c, 0, 65, 68
3, 26840, Note_on_c, 0, 65, 0
3, 26846, Note_on_c, 0, 61, 29
3, 26874, Note_on_c, 0, 61, 0
3, 26881, Note_on_c, 0, 64, 58
3, 26959, Note_on_c, 0, 64, 0
3, 26960, Note_on_c, 0, 61, 25
3, 26988, Note_on_c, 0, 61, 0
3, 27001, Note_on_c, 0, 62, 57
3, 27066, Note_on_c, 0, 62, 0
3, 27080, Note_on_c, 0, 45, 77
3, 27081, Note_on_c, 0, 38, 64
3, 27082, Note_on_c, 0, 57, 46
3, 27094, Note_on_c, 0, 38, 0
3, 27094, Note_on_c, 0, 45, 0
3, 27109, Note_on_c, 0, 57, 0
3, 27377, Note_on_c, 0, 67, 110
3, 27395, Note_on_c, 0, 67, 0
3, 27455, Note_on_c, 0, 64, 52
3, 27464, Note_on_c, 0, 64, 0
3, 27490, Note_on_c, 0, 65, 71
3, 27594, Note_on_c, 0, 65, 0
3, 27611, Note_on_c, 0, 64, 52
3, 27633, Note_on_c, 0, 64, 0
3, 27727, Note_on_c, 0, 62, 71
3, 27823, Note_on_c, 0, 62, 0
3, 27846, Note_on_c, 0, 60, 80
3, 27900, Note_on_c, 0, 60, 0
3, 27917, Note_on_c, 0, 62, 44
3, 27924, Note_on_c, 0, 60, 57
3, 27932, Note_on_c, 0, 62, 0
3, 27948, Note_on_c, 0, 60, 0
3, 27957, Note_on_c, 0, 57, 38
3, 28048, Note_on_c, 0, 57, 0
3, 28056, Note_on_c, 0, 55, 29
3, 28076, Note_on_c, 0, 55, 0
3, 28089, Note_on_c, 0, 53, 49
3, 28195, Note_on_c, 0, 53, 0
3, 28204, Note_on_c, 0, 50, 27
3, 28279, Note_on_c, 0, 50, 0
3, 28283, Note_on_c, 0, 48, 56
3, 28309, Note_on_c, 0, 48, 0
3, 28326, Note_on_c, 0, 50, 59
3, 28352, Note_on_c, 0, 50, 0
3, 28443, Note_on_c, 0, 60, 35
3, 28443, Note_on_c, 0, 55, 36
3, 28444, Note_on_c, 0, 65, 37
3, 28462, Note_on_c, 0, 65, 0
3, 28464, Note_on_c, 0, 55, 0
3, 28464, Note_on_c, 0, 60, 0
3, 28559, Note_on_c, 0, 67, 45
3, 28560, Note_on_c, 0, 62, 43
3, 28562, Note_on_c, 0, 57, 37
3, 28693, Note_on_c, 0, 67, 0
3, 28694, Note_on_c, 0, 62, 0
3, 28705, Note_on_c, 0, 57, 0
3, 28802, Note_on_c, 0, 60, 49
3, 28809, Note_on_c, 0, 60, 0
3, 28811, Note_on_c, 0, 50, 19
3, 28819, Note_on_c, 0, 50, 0
3, 28902, Note_on_c, 0, 79, 101
3, 28942, Note_on_c, 0, 78, 67
3, 28951, Note_on_c, 0, 79, 0
3, 28981, Note_on_c, 0, 73, 60
3, 28987, Note_on_c, 0, 78, 0
3, 28991, Note_on_c, 0, 55, 44
3, 28998, Note_on_c, 0, 55, 0
3, 29014, Note_on_c, 0, 73, 0
3, 29020, Note_on_c, 0, 72, 31
3, 29048, Note_on_c, 0, 72, 0
3, 29059, Note_on_c, 0, 77, 70
3, 29085, Note_on_c, 0, 77, 0
3, 29098, Note_on_c, 0, 76, 73
3, 29137, Note_on_c, 0, 76, 0
3, 29141, Note_on_c, 0, 71, 53
3, 29174, Note_on_c, 0, 71, 0
3, 29188, Note_on_c, 0, 70, 30
3, 29210, Note_on_c, 0, 70, 0
3, 29223, Note_on_c, 0, 75, 67
3, 29259, Note_on_c, 0, 75, 0
3, 29262, Note_on_c, 0, 74, 57
3, 29298, Note_on_c, 0, 74, 0
3, 29307, Note_on_c, 0, 69, 33
3, 29331, Note_on_c, 0, 69, 0
3, 29355, Note_on_c, 0, 65, 18
3, 29364, Note_on_c, 0, 65, 0
3, 29379, Note_on_c, 0, 72, 79
3, 29410, Note_on_c, 0, 72, 0
3, 29423, Note_on_c, 0, 69, 36
3, 29477, Note_on_c, 0, 69, 0
3, 29487, Note_on_c, 0, 67, 78
3, 29538, Note_on_c, 0, 67, 0
3, 29543, Note_on_c, 0, 69, 50
3, 29563, Note_on_c, 0, 67, 30
3, 29574, Note_on_c, 0, 69, 0
3, 29594, Note_on_c, 0, 67, 0
3, 29594, Note_on_c, 0, 65, 64
3, 29627, Note_on_c, 0, 65, 0
3, 29629, Note_on_c, 0, 64, 60
3, 29655, Note_on_c, 0, 64, 0
3, 29662, Note_on_c, 0, 67, 71
3, 29695, Note_on_c, 0, 67, 0
3, 29702, Note_on_c, 0, 65, 66
3, 29721, Note_on_c, 0, 65, 0
3, 29733, Note_on_c, 0, 64, 50
3, 29762, Note_on_c, 0, 64, 0
3, 29768, Note_on_c, 0, 62, 43
3, 29798, Note_on_c, 0, 62, 0
3, 29803, Note_on_c, 0, 61, 33
3, 29822, Note_on_c, 0, 61, 0
3, 29831, Note_on_c, 0, 64, 73
3, 29864, Note_on_c, 0, 64, 0
3, 29867, Note_on_c, 0, 61, 38
3, 29883, Note_on_c, 0, 61, 0
3, 29896, Note_on_c, 0, 62, 62
3, 29921, Note_on_c, 0, 62, 0
3, 29933, Note_on_c, 0, 57, 36
3, 29973, Note_on_c, 0, 57, 0
3, 30012, Note_on_c, 0, 57, 32
3, 30030, Note_on_c, 0, 57, 0
3, 30120, Note_on_c, 0, 60, 46
3, 30123, Note_on_c, 0, 55, 54
3, 30134, Note_on_c, 0, 60, 0
3, 30141, Note_on_c, 0, 55, 0
3, 30251, Note_on_c, 0, 60, 43
3, 30253, Note_on_c, 0, 50, 34
3, 30261, Note_on_c, 0, 60, 0
3, 30278, Note_on_c, 0, 50, 0
3, 30361, Note_on_c, 0, 64, 113
3, 30392, Note_on_c, 0, 64, 0
3, 30442, Note_on_c, 0, 67, 94
3, 30446, Note_on_c, 0, 65, 64
3, 30447, Note_on_c, 0, 60, 45
3, 30452, Note_on_c, 0, 65, 0
3, 30452, Note_on_c, 0, 55, 41
3, 30454, Note_on_c, 0, 60, 0
3, 30460, Note_on_c, 0, 55, 0
3, 30472, Note_on_c, 0, 67, 0
3, 30491, Note_on_c, 0, 65, 73
3, 30523, Note_on_c, 0, 65, 0
3, 30564, Note_on_c, 0, 65, 85
3, 30589, Note_on_c, 0, 65, 0
3, 30616, Note_on_c, 0, 64, 44
3, 30627, Note_on_c, 0, 64, 0
3, 30681, Note_on_c, 0, 64, 71
3, 30683, Note_on_c, 0, 60, 26
3, 30686, Note_on_c, 0, 55, 30
3, 30689, Note_on_c, 0, 60, 0
3, 30694, Note_on_c, 0, 55, 0
3, 30701, Note_on_c, 0, 64, 0
3, 30723, Note_on_c, 0, 62, 45
3, 30752, Note_on_c, 0, 62, 0
3, 30803, Note_on_c, 0, 62, 57
3, 30821, Note_on_c, 0, 62, 0
3, 30932, Note_on_c, 0, 57, 38
3, 30944, Note_on_c, 0, 57, 0
3, 30975, Note_on_c, 0, 60, 46
3, 31022, Note_on_c, 0, 60, 0
3, 31045, Note_on_c, 0, 60, 35
3, 31063, Note_on_c, 0, 60, 0
3, 31318, Note_on_c, 0, 62, 94
3, 31396, Note_on_c, 0, 62, 0
3, 31398, Note_on_c, 0, 61, 36
3, 31418, Note_on_c, 0, 61, 0
3, 31436, Note_on_c, 0, 62, 54
3, 31496, Note_on_c, 0, 62, 0
3, 31558, Note_on_c, 0, 64, 80
3, 31631, Note_on_c, 0, 64, 0
3, 31636, Note_on_c, 0, 63, 40
3, 31657, Note_on_c, 0, 63, 0
3, 31675, Note_on_c, 0, 64, 47
3, 31738, Note_on_c, 0, 64, 0
3, 31757, Note_on_c, 0, 60, 47
3, 31759, Note_on_c, 0, 55, 52
3, 31761, Note_on_c, 0, 65, 80
3, 31763, Note_on_c, 0, 60, 0
3, 31777, Note_on_c, 0, 55, 0
3, 31802, Note_on_c, 0, 65, 0
3, 31814, Note_on_c, 0, 64, 37
3, 31870, Note_on_c, 0, 64, 0
3, 31882, Note_on_c, 0, 65, 73
3, 31885, Note_on_c, 0, 64, 19
3, 31894, Note_on_c, 0, 64, 0
3, 31920, Note_on_c, 0, 65, 0
3, 31939, Note_on_c, 0, 67, 72
3, 32000, Note_on_c, 0, 67, 0
3, 32000, Note_on_c, 0, 66, 69
3, 32000, Note_on_c, 0, 53, 68
3, 32001, Note_on_c, 0, 63, 63
3, 32006, Note_on_c, 0, 58, 50
3, 32037, Note_on_c, 0, 66, 0
3, 32050, Note_on_c, 0, 67, 32
3, 32090, Note_on_c, 0, 53, 0
3, 32108, Note_on_c, 0, 63, 0
3, 32111, Note_on_c, 0, 67, 0
3, 32118, Note_on_c, 0, 58, 0
3, 32118, Note_on_c, 0, 64, 33
3, 32120, Note_on_c, 0, 68, 67
3, 32121, Note_on_c, 0, 54, 72
3, 32122, Note_on_c, 0, 59, 71
3, 32131, Note_on_c, 0, 69, 53
3, 32152, Note_on_c, 0, 69, 0
3, 32154, Note_on_c, 0, 68, 0
3, 32183, Note_on_c, 0, 67, 47
3, 32233, Control_c, 0, 64, 127
3, 32245, Note_on_c, 0, 68, 65
3, 32257, Note_on_c, 0, 59, 0
3, 32258, Note_on_c, 0, 54, 0
3, 32263, Note_on_c, 0, 67, 0
3, 32269, Control_c, 0, 64, 0
3, 32270, Note_on_c, 0, 64, 0
3, 32279, Note_on_c, 0, 68, 0
3, 32287, Note_on_c, 0, 65, 80
3, 32288, Note_on_c, 0, 55, 71
3, 32288, Note_on_c, 0, 69, 80
3, 32290, Note_on_c, 0, 60, 65
3, 32354, Note_on_c, 0, 69, 0
3, 32359, Note_on_c, 0, 68, 50
3, 32397, Note_on_c, 0, 68, 0
3, 32406, Note_on_c, 0, 69, 62
3, 32424, Note_on_c, 0, 55, 0
3, 32441, Note_on_c, 0, 60, 0
3, 32445, Note_on_c, 0, 65, 0
3, 32466, Note_on_c, 0, 69, 0
3, 32473, Note_on_c, 0, 56, 72
3, 32473, Note_on_c, 0, 66, 71
3, 32474, Note_on_c, 0, 70, 79
3, 32475, Note_on_c, 0, 61, 60
3, 32515, Note_on_c, 0, 70, 0
3, 32524, Note_on_c, 0, 69, 30
3, 32574, Note_on_c, 0, 56, 0
3, 32575, Note_on_c, 0, 66, 0
3, 32578, Note_on_c, 0, 61, 0
3, 32594, Note_on_c, 0, 71, 69
3, 32595, Note_on_c, 0, 67, 68
3, 32597, Note_on_c, 0, 62, 61
3, 32598, Note_on_c, 0, 57, 68
3, 32603, Note_on_c, 0, 69, 0
3, 32619, Note_on_c, 0, 67, 0
3, 32633, Note_on_c, 0, 62, 0
3, 32635, Note_on_c, 0, 71, 0
3, 32643, Note_on_c, 0, 57, 0
3, 32644, Note_on_c, 0, 74, 50
3, 32726, Note_on_c, 0, 74, 0
3, 32736, Note_on_c, 0, 71, 20
3, 32758, Note_on_c, 0, 71, 0
3, 32771, Note_on_c, 0, 72, 57
3, 32845, Note_on_c, 0, 69, 31
3, 32861, Note_on_c, 0, 72, 0
3, 32875, Note_on_c, 0, 69, 0
3, 32883, Note_on_c, 0, 71, 57
3, 32959, Note_on_c, 0, 67, 41
3, 32970, Note_on_c, 0, 60, 25
3, 32976, Note_on_c, 0, 60, 0
3, 32976, Note_on_c, 0, 67, 0
3, 32979, Note_on_c, 0, 71, 0
3, 32996, Note_on_c, 0, 69, 54
3, 33078, Note_on_c, 0, 64, 54
3, 33082, Note_on_c, 0, 60, 43
3, 33087, Note_on_c, 0, 55, 34
3, 33089, Note_on_c, 0, 60, 0
3, 33095, Note_on_c, 0, 55, 0
3, 33110, Note_on_c, 0, 69, 0
3, 33113, Note_on_c, 0, 64, 0
3, 33138, Note_on_c, 0, 67, 47
3, 33219, Note_on_c, 0, 67, 0
3, 33241, Note_on_c, 0, 65, 58
3, 33316, Note_on_c, 0, 65, 0
3, 33329, Note_on_c, 0, 64, 45
3, 33446, Note_on_c, 0, 62, 50
3, 33447, Note_on_c, 0, 64, 0
3, 33454, Note_on_c, 0, 55, 26
3, 33462, Note_on_c, 0, 55, 0
3, 33483, Note_on_c, 0, 62, 0
3, 33497, Note_on_c, 0, 60, 28
3, 33560, Note_on_c, 0, 60, 0
3, 33845, Note_on_c, 0, 62, 79
3, 33890, Note_on_c, 0, 62, 0
3, 34093, Note_on_c, 0, 62, 71
3, 34122, Note_on_c, 0, 62, 0
3, 34329, Note_on_c, 0, 62, 71
3, 34402, Note_on_c, 0, 62, 0
3, 34413, Note_on_c, 0, 60, 30
3, 34438, Note_on_c, 0, 60, 0
3, 34448, Note_on_c, 0, 64, 68
3, 34518, Note_on_c, 0, 64, 0
3, 34523, Note_on_c, 0, 62, 28
3, 34530, Note_on_c, 0, 60, 71
3, 34532, Note_on_c, 0, 62, 0
3, 34545, Note_on_c, 0, 60, 0
3, 34599, Note_on_c, 0, 62, 69
3, 34599, Note_on_c, 0, 60, 24
3, 34606, Note_on_c, 0, 60, 0
3, 34654, Note_on_c, 0, 62, 0
3, 34890, Note_on_c, 0, 60, 39
3, 34894, Note_on_c, 0, 55, 37
3, 34898, Note_on_c, 0, 60, 0
3, 34901, Note_on_c, 0, 55, 0
3, 34923, Note_on_c, 0, 62, 78
3, 34982, Note_on_c, 0, 62, 0
3, 35129, Note_on_c, 0, 57, 53
3, 35135, Note_on_c, 0, 57, 0
3, 35160, Note_on_c, 0, 61, 79
3, 35244, Note_on_c, 0, 61, 0
3, 35245, Note_on_c, 0, 57, 44
3, 35272, Note_on_c, 0, 57, 0
3, 35293, Note_on_c, 0, 58, 30
3, 35315, Note_on_c, 0, 58, 0
3, 35329, Note_on_c, 0, 59, 28
3, 35351, Note_on_c, 0, 59, 0
3, 35360, Note_on_c, 0, 61, 68
3, 35365, Note_on_c, 0, 57, 37
3, 35373, Note_on_c, 0, 57, 0
3, 35464, Note_on_c, 0, 63, 47
3, 35471, Note_on_c, 0, 61, 0
3, 35493, Note_on_c, 0, 63, 0
3, 35502, Note_on_c, 0, 64, 56
3, 35530, Note_on_c, 0, 64, 0
3, 35539, Note_on_c, 0, 66, 51
3, 35568, Note_on_c, 0, 66, 0
3, 35575, Note_on_c, 0, 68, 45
3, 35589, Note_on_c, 0, 68, 0
3, 35607, Note_on_c, 0, 71, 54
3, 35640, Note_on_c, 0, 71, 0
3, 35644, Note_on_c, 0, 73, 42
3, 35665, Note_on_c, 0, 73, 0
3, 35678, Note_on_c, 0, 75, 79
3, 35712, Note_on_c, 0, 75, 0
3, 35880, Note_on_c, 0, 63, 25
3, 35883, Note_on_c, 0, 61, 34
3, 35883, Note_on_c, 0, 59, 37
3, 35932, Note_on_c, 0, 59, 0
3, 35934, Note_on_c, 0, 61, 0
3, 35939, Note_on_c, 0, 63, 0
3, 35964, Note_on_c, 0, 63, 42
3, 35966, Note_on_c, 0, 61, 47
3, 35979, Note_on_c, 0, 63, 0
3, 35985, Note_on_c, 0, 61, 0
3, 36124, Note_on_c, 0, 82, 62
3, 36125, Note_on_c, 0, 70, 65
3, 36133, Note_on_c, 0, 58, 39
3, 36143, Note_on_c, 0, 58, 0
3, 36160, Note_on_c, 0, 70, 0
3, 36168, Note_on_c, 0, 82, 0
3, 36210, Note_on_c, 0, 83, 80
3, 36211, Note_on_c, 0, 71, 81
3, 36218, Note_on_c, 0, 82, 37
3, 36224, Note_on_c, 0, 82, 0
3, 36251, Note_on_c, 0, 83, 0
3, 36255, Note_on_c, 0, 71, 0
3, 36443, Note_on_c, 0, 58, 46
3, 36444, Note_on_c, 0, 62, 47
3, 36447, Note_on_c, 0, 59, 40
3, 36455, Note_on_c, 0, 62, 0
3, 36456, Note_on_c, 0, 59, 0
3, 36472, Note_on_c, 0, 58, 0
3, 36574, Note_on_c, 0, 83, 89
3, 36606, Note_on_c, 0, 83, 0
3, 36650, Note_on_c, 0, 85, 88
3, 36682, Note_on_c, 0, 85, 0
3, 36708, Note_on_c, 0, 87, 82
3, 36735, Note_on_c, 0, 87, 0
3, 36774, Note_on_c, 0, 88, 88
3, 36806, Note_on_c, 0, 88, 0
3, 36824, Note_on_c, 0, 87, 84
3, 36851, Note_on_c, 0, 87, 0
3, 36872, Note_on_c, 0, 85, 68
3, 36905, Note_on_c, 0, 85, 0
3, 36932, Note_on_c, 0, 83, 68
3, 36935, Note_on_c, 0, 61, 31
3, 36949, Note_on_c, 0, 61, 0
3, 36967, Note_on_c, 0, 83, 0
3, 37006, Note_on_c, 0, 81, 57
3, 37043, Note_on_c, 0, 81, 0
3, 37056, Note_on_c, 0, 83, 74
3, 37064, Note_on_c, 0, 61, 26
3, 37073, Note_on_c, 0, 61, 0
3, 37086, Note_on_c, 0, 83, 0
3, 37110, Note_on_c, 0, 80, 67
3, 37153, Note_on_c, 0, 80, 0
3, 37174, Note_on_c, 0, 81, 75
3, 37206, Note_on_c, 0, 81, 0
3, 37227, Note_on_c, 0, 78, 55
3, 37274, Note_on_c, 0, 78, 0
3, 37286, Note_on_c, 0, 80, 72
3, 37292, Note_on_c, 0, 61, 58
3, 37301, Note_on_c, 0, 61, 0
3, 37327, Note_on_c, 0, 80, 0
3, 37335, Note_on_c, 0, 76, 56
3, 37397, Note_on_c, 0, 76, 0
3, 37406, Note_on_c, 0, 78, 64
3, 37453, Note_on_c, 0, 74, 43
3, 37460, Note_on_c, 0, 78, 0
3, 37525, Note_on_c, 0, 74, 0
3, 37576, Note_on_c, 0, 75, 82
3, 37584, Note_on_c, 0, 74, 64
3, 37610, Note_on_c, 0, 74, 0
3, 37619, Note_on_c, 0, 75, 0
3, 37652, Note_on_c, 0, 67, 71
3, 37653, Note_on_c, 0, 76, 80
3, 37653, Note_on_c, 0, 62, 59
3, 37654, Note_on_c, 0, 57, 62
3, 37662, Note_on_c, 0, 57, 0
3, 37667, Note_on_c, 0, 67, 0
3, 37674, Note_on_c, 0, 62, 0
3, 37689, Note_on_c, 0, 76, 0
3, 37707, Note_on_c, 0, 73, 35
3, 37757, Note_on_c, 0, 73, 0
3, 37766, Note_on_c, 0, 75, 73
3, 37803, Note_on_c, 0, 75, 0
3, 37812, Note_on_c, 0, 71, 57
3, 37868, Note_on_c, 0, 71, 0
3, 37878, Note_on_c, 0, 73, 39
3, 37883, Note_on_c, 0, 67, 62
3, 37883, Note_on_c, 0, 62, 54
3, 37890, Note_on_c, 0, 67, 0
3, 37906, Note_on_c, 0, 62, 0
3, 37914, Note_on_c, 0, 73, 0
3, 37928, Note_on_c, 0, 69, 43
3, 37989, Note_on_c, 0, 69, 0
3, 37996, Note_on_c, 0, 71, 56
3, 38016, Note_on_c, 0, 62, 30
3, 38025, Note_on_c, 0, 62, 0
3, 38026, Note_on_c, 0, 71, 0
3, 38042, Note_on_c, 0, 68, 53
3, 38116, Note_on_c, 0, 68, 0
3, 38162, Note_on_c, 0, 66, 80
3, 38235, Note_on_c, 0, 66, 0
3, 38362, Note_on_c, 0, 62, 47
3, 38367, Note_on_c, 0, 63, 85
3, 38386, Note_on_c, 0, 62, 0
3, 38404, Note_on_c, 0, 63, 0
3, 38421, Note_on_c, 0, 64, 83
3, 38471, Note_on_c, 0, 64, 0
3, 38484, Note_on_c, 0, 62, 27
3, 38494, Note_on_c, 0, 62, 0
3, 38525, Note_on_c, 0, 64, 99
3, 38529, Note_on_c, 0, 65, 69
3, 38535, Note_on_c, 0, 65, 0
3, 38596, Note_on_c, 0, 64, 0
3, 38605, Note_on_c, 0, 63, 55
3, 38608, Note_on_c, 0, 62, 47
3, 38629, Note_on_c, 0, 62, 0
3, 38633, Note_on_c, 0, 63, 0
3, 38645, Note_on_c, 0, 64, 71
3, 38686, Note_on_c, 0, 64, 0
3, 38687, Note_on_c, 0, 63, 64
3, 38709, Note_on_c, 0, 63, 0
3, 38732, Note_on_c, 0, 61, 60
3, 38771, Note_on_c, 0, 61, 0
3, 38781, Note_on_c, 0, 58, 38
3, 38837, Note_on_c, 0, 58, 0
3, 38852, Note_on_c, 0, 57, 66
3, 38857, Note_on_c, 0, 50, 39
3, 38867, Note_on_c, 0, 50, 0
3, 38895, Note_on_c, 0, 57, 0
3, 38909, Note_on_c, 0, 55, 37
3, 38965, Note_on_c, 0, 55, 0
3, 38971, Note_on_c, 0, 53, 54
3, 39015, Note_on_c, 0, 53, 0
3, 39015, Note_on_c, 0, 52, 58
3, 39111, Note_on_c, 0, 52, 0
3, 39126, Note_on_c, 0, 50, 48
3, 39182, Note_on_c, 0, 50, 0
3, 39360, Note_on_c, 0, 60, 31
3, 39364, Note_on_c, 0, 55, 37
3, 39383, Note_on_c, 0, 60, 0
3, 39386, Note_on_c, 0, 55, 0
3, 39475, Note_on_c, 0, 62, 31
3, 39477, Note_on_c, 0, 55, 48
3, 39482, Note_on_c, 0, 60, 39
3, 39516, Note_on_c, 0, 60, 0
3, 39522, Note_on_c, 0, 55, 0
3, 39523, Note_on_c, 0, 62, 0
3, 39602, Note_on_c, 0, 64, 33
3, 39604, Note_on_c, 0, 57, 37
3, 39605, Note_on_c, 0, 62, 35
3, 39637, Note_on_c, 0, 62, 0
3, 39644, Note_on_c, 0, 64, 0
3, 39650, Note_on_c, 0, 57, 0
3, 39686, Note_on_c, 0, 67, 41
3, 39695, Note_on_c, 0, 67, 0
3, 39728, Note_on_c, 0, 76, 91
3, 39770, Note_on_c, 0, 76, 0
3, 39808, Note_on_c, 0, 76, 80
3, 39810, Note_on_c, 0, 55, 51
3, 39818, Note_on_c, 0, 55, 0
3, 39843, Note_on_c, 0, 76, 0
3, 39855, Note_on_c, 0, 69, 48
3, 39889, Note_on_c, 0, 69, 0
3, 40047, Note_on_c, 0, 69, 38
3, 40055, Note_on_c, 0, 69, 0
3, 40093, Note_on_c, 0, 74, 81
3, 40121, Note_on_c, 0, 74, 0
3, 40204, Note_on_c, 0, 73, 60
3, 40236, Note_on_c, 0, 73, 0
3, 40241, Note_on_c, 0, 68, 48
3, 40278, Note_on_c, 0, 68, 0
3, 40279, Note_on_c, 0, 67, 53
3, 40286, Note_on_c, 0, 55, 41
3, 40294, Note_on_c, 0, 55, 0
3, 40311, Note_on_c, 0, 67, 0
3, 40321, Note_on_c, 0, 72, 71
3, 40351, Note_on_c, 0, 72, 0
3, 40358, Note_on_c, 0, 71, 64
3, 40391, Note_on_c, 0, 71, 0
3, 40458, Note_on_c, 0, 66, 69
3, 40497, Note_on_c, 0, 66, 0
3, 40497, Note_on_c, 0, 65, 71
3, 40521, Note_on_c, 0, 65, 0
3, 40532, Note_on_c, 0, 70, 65
3, 40565, Note_on_c, 0, 70, 0
3, 40574, Note_on_c, 0, 69, 50
3, 40601, Note_on_c, 0, 69, 0
3, 40611, Note_on_c, 0, 64, 60
3, 40650, Note_on_c, 0, 62, 40
3, 40654, Note_on_c, 0, 64, 0
3, 40663, Note_on_c, 0, 55, 27
3, 40673, Note_on_c, 0, 55, 0
3, 40678, Note_on_c, 0, 62, 0
3, 40690, Note_on_c, 0, 67, 73
3, 40723, Note_on_c, 0, 67, 0
3, 40731, Note_on_c, 0, 65, 74
3, 40769, Note_on_c, 0, 61, 56
3, 40777, Note_on_c, 0, 65, 0
3, 40782, Note_on_c, 0, 55, 29
3, 40792, Note_on_c, 0, 55, 0
3, 40802, Note_on_c, 0, 61, 0
3, 40811, Note_on_c, 0, 64, 53
3, 40840, Note_on_c, 0, 64, 0
3, 40847, Note_on_c, 0, 62, 64
3, 40875, Note_on_c, 0, 62, 0
3, 40887, Note_on_c, 0, 57, 62
3, 40897, Note_on_c, 0, 50, 19
3, 40914, Note_on_c, 0, 57, 0
3, 40926, Note_on_c, 0, 55, 57
3, 40956, Note_on_c, 0, 55, 0
3, 40966, Note_on_c, 0, 53, 44
3, 40985, Note_on_c, 0, 45, 28
3, 41001, Note_on_c, 0, 45, 0
3, 41001, Note_on_c, 0, 52, 66
3, 41009, Note_on_c, 0, 53, 0
3, 41028, Note_on_c, 0, 52, 0
3, 41038, Note_on_c, 0, 55, 64
3, 41076, Note_on_c, 0, 55, 0
3, 41078, Note_on_c, 0, 50, 0
3, 41080, Note_on_c, 0, 52, 42
3, 41100, Note_on_c, 0, 52, 0
3, 41115, Note_on_c, 0, 53, 53
3, 41117, Note_on_c, 0, 45, 34
3, 41146, Note_on_c, 0, 45, 0
3, 41146, Note_on_c, 0, 53, 0
3, 41153, Note_on_c, 0, 50, 50
3, 41239, Note_on_c, 0, 50, 0
3, 41242, Note_on_c, 0, 48, 36
3, 41254, Note_on_c, 0, 48, 0
3, 41281, Note_on_c, 0, 50, 55
3, 41292, Note_on_c, 0, 38, 18
3, 41304, Note_on_c, 0, 38, 0
3, 41343, Note_on_c, 0, 50, 0
3, 41358, Note_on_c, 0, 45, 37
3, 41372, Note_on_c, 0, 45, 0
3, 41400, Note_on_c, 0, 48, 41
3, 41500, Note_on_c, 0, 48, 0
3, 41523, Note_on_c, 0, 50, 48
3, 41594, Note_on_c, 0, 65, 80
3, 41600, Note_on_c, 0, 55, 32
3, 41600, Note_on_c, 0, 60, 46
3, 41604, Note_on_c, 0, 52, 59
3, 41605, Note_on_c, 0, 50, 0
3, 41607, Note_on_c, 0, 55, 0
3, 41608, Note_on_c, 0, 60, 0
3, 41609, Note_on_c, 0, 65, 0
3, 41643, Note_on_c, 0, 52, 0
3, 41644, Note_on_c, 0, 48, 33
3, 41756, Note_on_c, 0, 48, 0
3, 41767, Note_on_c, 0, 50, 40
3, 41818, Note_on_c, 0, 50, 0
3, 42002, Note_on_c, 0, 65, 50
3, 42005, Note_on_c, 0, 60, 46
3, 42007, Note_on_c, 0, 69, 37
3, 42024, Note_on_c, 0, 60, 0
3, 42032, Note_on_c, 0, 65, 0
3, 42037, Note_on_c, 0, 69, 0
3, 42120, Note_on_c, 0, 58, 48
3, 42122, Note_on_c, 0, 68, 65
3, 42122, Note_on_c, 0, 73, 38
3, 42122, Note_on_c, 0, 63, 54
3, 42208, Note_on_c, 0, 63, 0
3, 42209, Note_on_c, 0, 68, 0
3, 42210, Note_on_c, 0, 73, 0
3, 42212, Note_on_c, 0, 62, 46
3, 42213, Note_on_c, 0, 72, 66
3, 42214, Note_on_c, 0, 58, 0
3, 42215, Note_on_c, 0, 67, 50
3, 42219, Note_on_c, 0, 57, 60
3, 42481, Note_on_c, 0, 65, 71
3, 42481, Note_on_c, 0, 60, 63
3, 42482, Note_on_c, 0, 57, 63
3, 42483, Note_on_c, 0, 50, 50
3, 42498, Note_on_c, 0, 57, 0
3, 42507, Note_on_c, 0, 60, 0
3, 42509, Note_on_c, 0, 50, 0
3, 42513, Note_on_c, 0, 65, 0
3, 42571, Note_on_c, 0, 62, 0
3, 42582, Note_on_c, 0, 67, 0
3, 42587, Note_on_c, 0, 72, 0
3, 42601, Note_on_c, 0, 57, 0
3, 42601, Note_on_c, 0, 55, 45
3, 42604, Note_on_c, 0, 71, 24
3, 42604, Note_on_c, 0, 67, 63
3, 42606, Note_on_c, 0, 62, 17
3, 42606, Note_on_c, 0, 59, 56
3, 42608, Note_on_c, 0, 67, 22
3, 42608, Note_on_c, 0, 52, 55
3, 42608, Note_on_c, 0, 62, 49
3, 42630, Note_on_c, 0, 59, 0
3, 42631, Note_on_c, 0, 52, 0
3, 42634, Note_on_c, 0, 67, 0
3, 42637, Note_on_c, 0, 62, 0
3, 42637, Note_on_c, 0, 67, 0
3, 42644, Note_on_c, 0, 62, 0
3, 42666, Note_on_c, 0, 71, 0
3, 42680, Note_on_c, 0, 55, 0
3, 42680, Note_on_c, 0, 62, 53
3, 42681, Note_on_c, 0, 72, 58
3, 42682, Note_on_c, 0, 67, 51
3, 42685, Note_on_c, 0, 57, 57
3, 42690, Note_on_c, 0, 62, 0
3, 42691, Note_on_c, 0, 67, 0
3, 42695, Note_on_c, 0, 72, 0
3, 42695, Note_on_c, 0, 57, 0
3, 42719, Note_on_c, 0, 60, 62
3, 42719, Note_on_c, 0, 69, 57
3, 42719, Note_on_c, 0, 65, 58
3, 42721, Note_on_c, 0, 53, 48
3, 43260, Note_on_c, 0, 60, 0
3, 43264, Note_on_c, 0, 53, 0
3, 43268, Note_on_c, 0, 65, 0
3, 43270, Note_on_c, 0, 69, 0
3, 43408, Note_on_c, 0, 71, 53
3, 43411, Note_on_c, 0, 55, 49
3, 43412, Note_on_c, 0, 62, 40
3, 43413, Note_on_c, 0, 67, 46
3, 43449, Note_on_c, 0, 62, 0
3, 43466, Note_on_c, 0, 67, 0
3, 43474, Note_on_c, 0, 71, 0
3, 43487, Note_on_c, 0, 64, 73
3, 43487, Note_on_c, 0, 72, 74
3, 43488, Note_on_c, 0, 69, 69
3, 43489, Note_on_c, 0, 57, 71
3, 43496, Note_on_c, 0, 55, 0
3, 43535, Note_on_c, 0, 64, 0
3, 43548, Note_on_c, 0, 69, 0
3, 43549, Note_on_c, 0, 72, 0
3, 43564, Note_on_c, 0, 71, 57
3, 43566, Note_on_c, 0, 55, 66
3, 43566, Note_on_c, 0, 67, 63
3, 43567, Note_on_c, 0, 57, 0
3, 43568, Note_on_c, 0, 62, 60
3, 43581, Note_on_c, 0, 67, 0
3, 43586, Note_on_c, 0, 71, 0
3, 43592, Note_on_c, 0, 62, 0
3, 43636, Note_on_c, 0, 55, 0
3, 43644, Note_on_c, 0, 67, 38
3, 43644, Note_on_c, 0, 64, 38
3, 43644, Note_on_c, 0, 59, 35
3, 43645, Note_on_c, 0, 52, 42
3, 43683, Note_on_c, 0, 59, 0
3, 43688, Note_on_c, 0, 67, 0
3, 43690, Note_on_c, 0, 64, 0
3, 43728, Note_on_c, 0, 52, 0
3, 43731, Note_on_c, 0, 53, 51
3, 43731, Note_on_c, 0, 60, 38
3, 43732, Note_on_c, 0, 69, 42
3, 43733, Note_on_c, 0, 65, 48
3, 44076, Note_on_c, 0, 60, 0
3, 44077, Note_on_c, 0, 65, 0
3, 44081, Note_on_c, 0, 69, 0
3, 44089, Note_on_c, 0, 53, 0
3, 44524, Note_on_c, 0, 67, 32
3, 44525, Note_on_c, 0, 52, 28
3, 44525, Note_on_c, 0, 62, 32
3, 44527, Note_on_c, 0, 59, 29
3, 44568, Note_on_c, 0, 59, 0
3, 44574, Note_on_c, 0, 67, 0
3, 44584, Note_on_c, 0, 62, 0
3, 44600, Note_on_c, 0, 60, 62
3, 44600, Note_on_c, 0, 69, 53
3, 44601, Note_on_c, 0, 65, 66
3, 44603, Note_on_c, 0, 53, 65
3, 44605, Note_on_c, 0, 52, 0
3, 45210, Note_on_c, 0, 60, 0
3, 45221, Note_on_c, 0, 53, 0
3, 45221, Note_on_c, 0, 69, 0
3, 45226, Note_on_c, 0, 65, 0
3, 45317, Note_on_c, 0, 62, 77
3, 45318, Note_on_c, 0, 71, 73
3, 45318, Note_on_c, 0, 55, 65
3, 45319, Note_on_c, 0, 67, 71
3, 45343, Note_on_c, 0, 55, 0
3, 45348, Note_on_c, 0, 71, 0
3, 45352, Note_on_c, 0, 67, 0
3, 45353, Note_on_c, 0, 62, 0
3, 45443, Note_on_c, 0, 67, 53
3, 45444, Note_on_c, 0, 57, 61
3, 45445, Note_on_c, 0, 52, 57
3, 45446, Note_on_c, 0, 62, 57
3, 45476, Note_on_c, 0, 57, 0
3, 45481, Note_on_c, 0, 52, 0
3, 45483, Note_on_c, 0, 62, 0
3, 45489, Note_on_c, 0, 67, 0
3, 45559, Note_on_c, 0, 60, 53
3, 45560, Note_on_c, 0, 69, 40
3, 45561, Note_on_c, 0, 64, 58
3, 45563, Note_on_c, 0, 53, 45
3, 46415, Control_c, 0, 64, 127
3, 46442, Note_on_c, 0, 60, 0
3, 46445, Note_on_c, 0, 64, 0
3, 46459, Note_on_c, 0, 69, 0
3, 46515, Note_on_c, 0, 53, 0
3, 46565, Control_c, 0, 64, 0
3, 46565, Note_on_c, 0, 73, 57
3, 46565, Note_on_c, 0, 59, 65
3, 46566, Note_on_c, 0, 69, 78
3, 46566, Note_on_c, 0, 64, 76
3, 46568, Note_on_c, 0, 47, 43
3, 46706, Control_c, 0, 64, 127
3, 46983, Note_on_c, 0, 47, 0
3, 47038, Note_on_c, 0, 59, 0
3, 47085, Note_on_c, 0, 64, 0
3, 47133, Note_on_c, 0, 69, 0
3, 47172, Note_on_c, 0, 73, 0
3, 47237, Control_c, 0, 64, 0
3, 47237, Note_on_c, 0, 75, 76
3, 47239, Note_on_c, 0, 59, 66
3, 47240, Note_on_c, 0, 71, 78
3, 47240, Note_on_c, 0, 66, 72
3, 47254, Note_on_c, 0, 59, 0
3, 47263, Note_on_c, 0, 71, 0
3, 47264, Note_on_c, 0, 75, 0
3, 47265, Note_on_c, 0, 66, 0
3, 47354, Note_on_c, 0, 69, 63
3, 47355, Note_on_c, 0, 61, 42
3, 47355, Note_on_c, 0, 64, 64
3, 47357, Note_on_c, 0, 59, 42
3, 47375, Note_on_c, 0, 59, 0
3, 47382, Note_on_c, 0, 64, 0
3, 47384, Note_on_c, 0, 61, 0
3, 47388, Note_on_c, 0, 69, 0
3, 47468, Note_on_c, 0, 71, 57
3, 47470, Note_on_c, 0, 62, 55
3, 47474, Note_on_c, 0, 59, 48
3, 47482, Note_on_c, 0, 71, 0
3, 47483, Note_on_c, 0, 62, 0
3, 47495, Note_on_c, 0, 59, 0
3, 47520, Note_on_c, 0, 73, 42
3, 47521, Note_on_c, 0, 64, 62
3, 47522, Note_on_c, 0, 59, 44
3, 47522, Note_on_c, 0, 69, 54
3, 47590, Note_on_c, 0, 64, 0
3, 47614, Note_on_c, 0, 59, 0
3, 47620, Note_on_c, 0, 73, 0
3, 47621, Note_on_c, 0, 69, 0
3, 47633, Note_on_c, 0, 59, 43
3, 47634, Note_on_c, 0, 66, 64
3, 47635, Note_on_c, 0, 75, 72
3, 47635, Note_on_c, 0, 71, 70
3, 47692, Note_on_c, 0, 66, 0
3, 47693, Note_on_c, 0, 59, 0
3, 47695, Note_on_c, 0, 75, 0
3, 47695, Note_on_c, 0, 71, 0
3, 47706, Note_on_c, 0, 73, 28
3, 47708, Note_on_c, 0, 69, 67
3, 47710, Note_on_c, 0, 59, 50
3, 47710, Note_on_c, 0, 64, 64
3, 47836, Note_on_c, 0, 47, 33
3, 48211, Control_c, 0, 64, 127
3, 48293, Note_on_c, 0, 64, 0
3, 48328, Note_on_c, 0, 69, 0
3, 48329, Note_on_c, 0, 59, 0
3, 48329, Note_on_c, 0, 54, 36
3, 48339, Note_on_c, 0, 73, 0
3, 48357, Note_on_c, 0, 71, 84
3, 48357, Note_on_c, 0, 75, 82
3, 48357, Note_on_c, 0, 66, 87
3, 48359, Note_on_c, 0, 59, 68
3, 48359, Control_c, 0, 64, 0
3, 48366, Note_on_c, 0, 54, 0
3, 48410, Control_c, 0, 64, 127
3, 48422, Note_on_c, 0, 66, 0
3, 48427, Note_on_c, 0, 71, 0
3, 48429, Note_on_c, 0, 59, 0
3, 48429, Note_on_c, 0, 75, 0
3, 48438, Note_on_c, 0, 73, 5
3, 48440, Note_on_c, 0, 69, 82
3, 48440, Note_on_c, 0, 64, 83
3, 48441, Note_on_c, 0, 59, 80
3, 48443, Note_on_c, 0, 47, 0
3, 48444, Control_c, 0, 64, 0
3, 49023, Control_c, 0, 64, 127
3, 49064, Note_on_c, 0, 64, 0
3, 49078, Note_on_c, 0, 69, 0
3, 49125, Note_on_c, 0, 73, 0
3, 49157, Control_c, 0, 64, 0
3, 49160, Note_on_c, 0, 76, 50
3, 49160, Note_on_c, 0, 67, 60
3, 49161, Note_on_c, 0, 72, 60
3, 49162, Note_on_c, 0, 60, 45
3, 49175, Note_on_c, 0, 67, 0
3, 49176, Note_on_c, 0, 59, 0
3, 49180, Note_on_c, 0, 72, 0
3, 49183, Note_on_c, 0, 60, 0
3, 49185, Note_on_c, 0, 76, 0
3, 49277, Note_on_c, 0, 78, 69
3, 49277, Note_on_c, 0, 74, 68
3, 49278, Note_on_c, 0, 62, 60
3, 49279, Note_on_c, 0, 69, 72
3, 49296, Note_on_c, 0, 69, 0
3, 49297, Note_on_c, 0, 74, 0
3, 49299, Note_on_c, 0, 78, 0
3, 49302, Note_on_c, 0, 62, 0
3, 49338, Control_c, 0, 64, 127
3, 49372, Control_c, 0, 64, 0
3, 49386, Control_c, 0, 64, 127
3, 49394, Note_on_c, 0, 76, 58
3, 49396, Note_on_c, 0, 60, 64
3, 49397, Note_on_c, 0, 67, 71
3, 49400, Note_on_c, 0, 72, 54
3, 49407, Note_on_c, 0, 72, 0
3, 49411, Note_on_c, 0, 76, 0
3, 49413, Note_on_c, 0, 67, 0
3, 49440, Control_c, 0, 64, 0
3, 49441, Note_on_c, 0, 60, 0
3, 49444, Note_on_c, 0, 75, 74
3, 49445, Note_on_c, 0, 66, 68
3, 49445, Note_on_c, 0, 59, 66
3, 49445, Note_on_c, 0, 71, 71
3, 49482, Control_c, 0, 64, 127
3, 49576, Note_on_c, 0, 66, 0
3, 49590, Note_on_c, 0, 71, 0
3, 49602, Note_on_c, 0, 75, 0
3, 49626, Note_on_c, 0, 59, 0
3, 49638, Note_on_c, 0, 73, 31
3, 49640, Note_on_c, 0, 64, 46
3, 49642, Note_on_c, 0, 57, 42
3, 49642, Note_on_c, 0, 69, 51
3, 49650, Control_c, 0, 64, 0
3, 49762, Control_c, 0, 64, 127
3, 49820, Control_c, 0, 64, 0
3, 49975, Control_c, 0, 64, 127
3, 50167, Note_on_c, 0, 69, 0
3, 50177, Note_on_c, 0, 73, 0
3, 50186, Note_on_c, 0, 64, 0
3, 50250, Note_on_c, 0, 63, 80
3, 50250, Note_on_c, 0, 72, 79
3, 50250, Note_on_c, 0, 68, 77
3, 50251, Note_on_c, 0, 57, 0
3, 50252, Note_on_c, 0, 56, 77
3, 50258, Control_c, 0, 64, 0
3, 50292, Control_c, 0, 64, 127
3, 50350, Note_on_c, 0, 63, 0
3, 50358, Note_on_c, 0, 72, 0
3, 50361, Note_on_c, 0, 56, 0
3, 50374, Note_on_c, 0, 68, 0
3, 50403, Control_c, 0, 64, 0
3, 50411, Note_on_c, 0, 62, 38
3, 50412, Note_on_c, 0, 71, 41
3, 50415, Note_on_c, 0, 67, 40
3, 50417, Note_on_c, 0, 57, 28
3, 50419, Note_on_c, 0, 50, 34
3, 50471, Control_c, 0, 64, 127
3, 50526, Note_on_c, 0, 57, 0
3, 50527, Note_on_c, 0, 67, 0
3, 50528, Note_on_c, 0, 50, 0
3, 50537, Note_on_c, 0, 71, 0
3, 50546, Note_on_c, 0, 62, 0
3, 50593, Note_on_c, 0, 69, 49
3, 50594, Control_c, 0, 64, 0
3, 50594, Note_on_c, 0, 60, 40
3, 50595, Note_on_c, 0, 65, 60
3, 50597, Note_on_c, 0, 57, 32
3, 50601, Note_on_c, 0, 50, 30
3, 50993, Control_c, 0, 64, 127
3, 51012, Note_on_c, 0, 57, 0
3, 51018, Note_on_c, 0, 60, 0
3, 51043, Note_on_c, 0, 65, 0
3, 51048, Note_on_c, 0, 69, 0
3, 51084, Note_on_c, 0, 71, 80
3, 51085, Note_on_c, 0, 62, 84
3, 51085, Note_on_c, 0, 67, 80
3, 51086, Note_on_c, 0, 55, 74
3, 51087, Control_c, 0, 64, 0
3, 51121, Note_on_c, 0, 62, 0
3, 51127, Note_on_c, 0, 71, 0
3, 51129, Note_on_c, 0, 67, 0
3, 51133, Note_on_c, 0, 50, 0
3, 51135, Control_c, 0, 64, 127
3, 51141, Control_c, 0, 64, 0
3, 51161, Note_on_c, 0, 72, 82
3, 51162, Note_on_c, 0, 64, 84
3, 51162, Note_on_c, 0, 69, 79
3, 51163, Note_on_c, 0, 57, 74
3, 51168, Note_on_c, 0, 55, 0
3, 51179, Control_c, 0, 64, 127
3, 51198, Note_on_c, 0, 69, 0
3, 51201, Note_on_c, 0, 72, 0
3, 51211, Note_on_c, 0, 64, 0
3, 51235, Control_c, 0, 64, 0
3, 51236, Note_on_c, 0, 57, 0
3, 51240, Note_on_c, 0, 71, 59
3, 51243, Note_on_c, 0, 55, 66
3, 51243, Note_on_c, 0, 67, 62
3, 51244, Note_on_c, 0, 62, 60
3, 51263, Note_on_c, 0, 67, 0
3, 51263, Note_on_c, 0, 71, 0
3, 51273, Note_on_c, 0, 62, 0
3, 51288, Control_c, 0, 64, 127
3, 51311, Note_on_c, 0, 55, 0
3, 51318, Control_c, 0, 64, 0
3, 51319, Note_on_c, 0, 67, 54
3, 51321, Note_on_c, 0, 64, 54
3, 51322, Note_on_c, 0, 59, 57
3, 51323, Note_on_c, 0, 52, 55
3, 51351, Note_on_c, 0, 59, 0
3, 51358, Note_on_c, 0, 64, 0
3, 51359, Note_on_c, 0, 67, 0
3, 51389, Note_on_c, 0, 52, 0
3, 51393, Note_on_c, 0, 69, 58
3, 51393, Note_on_c, 0, 60, 58
3, 51394, Note_on_c, 0, 65, 62
3, 51395, Note_on_c, 0, 53, 50
3, 52122, Note_on_c, 0, 65, 0
3, 52130, Note_on_c, 0, 69, 0
3, 52150, Note_on_c, 0, 60, 0
3, 52203, Note_on_c, 0, 53, 0
3, 52204, Note_on_c, 0, 67, 32
3, 52206, Note_on_c, 0, 62, 37
3, 52208, Note_on_c, 0, 59, 34
3, 52210, Note_on_c, 0, 52, 34
3, 52265, Note_on_c, 0, 59, 0
3, 52268, Note_on_c, 0, 67, 0
3, 52275, Note_on_c, 0, 62, 0
3, 52285, Note_on_c, 0, 65, 83
3, 52286, Note_on_c, 0, 60, 71
3, 52286, Note_on_c, 0, 69, 70
3, 52287, Note_on_c, 0, 53, 77
3, 52296, Note_on_c, 0, 52, 0
3, 52856, Note_on_c, 0, 65, 0
3, 52856, Note_on_c, 0, 60, 0
3, 52858, Note_on_c, 0, 69, 0
3, 52993, Control_c, 0, 64, 127
3, 53033, Control_c, 0, 64, 0
3, 53041, Note_on_c, 0, 71, 71
3, 53043, Note_on_c, 0, 55, 64
3, 53043, Note_on_c, 0, 62, 65
3, 53044, Note_on_c, 0, 67, 55
3, 53046, Note_on_c, 0, 53, 0
3, 53064, Note_on_c, 0, 67, 0
3, 53069, Note_on_c, 0, 71, 0
3, 53072, Note_on_c, 0, 62, 0
3, 53076, Note_on_c, 0, 55, 0
3, 53159, Note_on_c, 0, 67, 40
3, 53161, Note_on_c, 0, 52, 42
3, 53166, Note_on_c, 0, 64, 33
3, 53168, Note_on_c, 0, 59, 25
3, 53207, Note_on_c, 0, 59, 0
3, 53213, Note_on_c, 0, 67, 0
3, 53219, Note_on_c, 0, 64, 0
3, 53239, Note_on_c, 0, 69, 43
3, 53240, Note_on_c, 0, 60, 41
3, 53240, Note_on_c, 0, 53, 54
3, 53241, Note_on_c, 0, 65, 66
3, 53244, Note_on_c, 0, 52, 0
3, 53656, Control_c, 0, 64, 127
3, 53856, Note_on_c, 0, 60, 0
3, 53871, Note_on_c, 0, 69, 0
3, 53876, Note_on_c, 0, 65, 0
3, 53877, Note_on_c, 0, 53, 0
3, 53986, Control_c, 0, 64, 0
3, 53992, Note_on_c, 0, 71, 64
3, 53992, Note_on_c, 0, 55, 53
3, 53994, Note_on_c, 0, 62, 55
3, 53994, Note_on_c, 0, 67, 49
3, 54012, Note_on_c, 0, 55, 0
3, 54013, Note_on_c, 0, 67, 0
3, 54015, Note_on_c, 0, 71, 0
3, 54017, Note_on_c, 0, 62, 0
3, 54094, Control_c, 0, 64, 127
3, 54123, Note_on_c, 0, 52, 43
3, 54124, Note_on_c, 0, 67, 44
3, 54126, Note_on_c, 0, 64, 44
3, 54127, Note_on_c, 0, 59, 37
3, 54133, Note_on_c, 0, 52, 0
3, 54147, Note_on_c, 0, 59, 0
3, 54152, Note_on_c, 0, 67, 0
3, 54154, Note_on_c, 0, 64, 0
3, 54262, Note_on_c, 0, 69, 44
3, 54263, Note_on_c, 0, 60, 37
3, 54265, Note_on_c, 0, 65, 60
3, 54266, Control_c, 0, 64, 0
3, 54266, Note_on_c, 0, 50, 37
3, 54268, Note_on_c, 0, 26, 39
3, 54271, Note_on_c, 0, 55, 54
3, 54423, Control_c, 0, 64, 127
3, 55053, Note_on_c, 0, 55, 0
3, 55055, Note_on_c, 0, 60, 0
3, 55057, Note_on_c, 0, 65, 0
3, 55074, Note_on_c, 0, 69, 0
3, 55104, Note_on_c, 0, 50, 0
3, 55106, Note_on_c, 0, 26, 0
3, 55273, Control_c, 0, 64, 0
3, 55273, End_track
4, 0, Start_track
4, 0, Title_t, ""
4, 0, Program_c, 9, 0
4, 247, Note_on_c, 9, 59, 20
4, 257, Note_on_c, 9, 59, 0
4, 437, Note_on_c, 9, 59, 50
4, 452, Note_on_c, 9, 59, 0
4, 479, Note_on_c, 9, 59, 40
4, 517, Note_on_c, 9, 59, 0
4, 679, Note_on_c, 9, 53, 36
4, 682, Note_on_c, 9, 51, 20
4, 706, Note_on_c, 9, 53, 0
4, 708, Note_on_c, 9, 51, 0
4, 727, Note_on_c, 9, 51, 21
4, 733, Note_on_c, 9, 53, 28
4, 767, Note_on_c, 9, 53, 0
4, 783, Note_on_c, 9, 51, 0
4, 839, Note_on_c, 9, 38, 32
4, 849, Note_on_c, 9, 38, 0
4, 853, Note_on_c, 9, 51, 20
4, 858, Note_on_c, 9, 53, 17
4, 882, Note_on_c, 9, 53, 0
4, 891, Note_on_c, 9, 51, 0
4, 918, Note_on_c, 9, 38, 40
4, 926, Note_on_c, 9, 51, 48
4, 928, Note_on_c, 9, 53, 42
4, 937, Note_on_c, 9, 38, 0
4, 961, Note_on_c, 9, 53, 0
4, 966, Note_on_c, 9, 51, 0
4, 1045, Note_on_c, 9, 36, 29
4, 1074, Note_on_c, 9, 36, 0
4, 1092, Note_on_c, 9, 36, 24
4, 1147, Note_on_c, 9, 36, 0
4, 1159, Note_on_c, 9, 59, 40
4, 1163, Note_on_c, 9, 36, 72
4, 1191, Note_on_c, 9, 59, 0
4, 1235, Note_on_c, 9, 36, 0
4, 1254, Note_on_c, 9, 59, 43
4, 1297, Note_on_c, 9, 59, 0
4, 1339, Note_on_c, 9, 59, 43
4, 1374, Note_on_c, 9, 59, 0
4, 1406, Note_on_c, 9, 59, 22
4, 1423, Note_on_c, 9, 59, 0
4, 1746, Note_on_c, 9, 53, 28
4, 1756, Note_on_c, 9, 38, 20
4, 1759, Note_on_c, 9, 53, 0
4, 1766, Note_on_c, 9, 38, 0
4, 1802, Note_on_c, 9, 38, 24
4, 1828, Note_on_c, 9, 38, 0
4, 1870, Note_on_c, 9, 51, 24
4, 1876, Note_on_c, 9, 36, 28
4, 1891, Note_on_c, 9, 36, 0
4, 1894, Note_on_c, 9, 51, 0
4, 1924, Note_on_c, 9, 51, 44
4, 1927, Note_on_c, 9, 53, 44
4, 1989, Note_on_c, 9, 51, 0
4, 1991, Note_on_c, 9, 53, 0
4, 1999, Note_on_c, 9, 38, 37
4, 2025, Note_on_c, 9, 38, 0
4, 2037, Note_on_c, 9, 53, 31
4, 2039, Note_on_c, 9, 51, 24
4, 2054, Note_on_c, 9, 53, 0
4, 2058, Note_on_c, 9, 51, 0
4, 2115, Note_on_c, 9, 51, 66
4, 2115, Note_on_c, 9, 36, 28
4, 2117, Note_on_c, 9, 53, 61
4, 2131, Note_on_c, 9, 36, 0
4, 2170, Note_on_c, 9, 51, 0
4, 2172, Note_on_c, 9, 53, 0
4, 2290, Note_on_c, 9, 38, 40
4, 2294, Note_on_c, 9, 59, 20
4, 2300, Note_on_c, 9, 38, 0
4, 2318, Note_on_c, 9, 59, 0
4, 2350, Note_on_c, 9, 59, 64
4, 2359, Note_on_c, 9, 38, 51
4, 2382, Note_on_c, 9, 38, 0
4, 2400, Note_on_c, 9, 59, 0
4, 2603, Note_on_c, 9, 36, 27
4, 2617, Note_on_c, 9, 36, 0
4, 2650, Note_on_c, 9, 51, 21
4, 2656, Note_on_c, 9, 53, 26
4, 2678, Note_on_c, 9, 53, 0
4, 2679, Note_on_c, 9, 51, 0
4, 2835, Note_on_c, 9, 51, 29
4, 2839, Note_on_c, 9, 53, 35
4, 2876, Note_on_c, 9, 53, 0
4, 2890, Note_on_c, 9, 51, 0
4, 2959, Note_on_c, 9, 38, 27
4, 2970, Note_on_c, 9, 38, 0
4, 3004, Note_on_c, 9, 38, 32
4, 3061, Note_on_c, 9, 38, 0
4, 3079, Note_on_c, 9, 36, 38
4, 3113, Note_on_c, 9, 36, 0
4, 3123, Note_on_c, 9, 59, 60
4, 3172, Note_on_c, 9, 59, 0
4, 3240, Note_on_c, 9, 59, 67
4, 3299, Note_on_c, 9, 59, 0
4, 3361, Note_on_c, 9, 59, 73
4, 3405, Note_on_c, 9, 59, 0
4, 3434, Note_on_c, 9, 51, 39
4, 3436, Note_on_c, 9, 53, 36
4, 3454, Note_on_c, 9, 53, 0
4, 3460, Note_on_c, 9, 51, 0
4, 3485, Note_on_c, 9, 51, 16
4, 3488, Note_on_c, 9, 53, 21
4, 3512, Note_on_c, 9, 53, 0
4, 3524, Note_on_c, 9, 51, 0
4, 3555, Note_on_c, 9, 38, 42
4, 3557, Note_on_c, 9, 51, 53
4, 3558, Note_on_c, 9, 53, 56
4, 3580, Note_on_c, 9, 38, 0
4, 3602, Note_on_c, 9, 38, 28
4, 3641, Note_on_c, 9, 38, 0
4, 3643, Note_on_c, 9, 53, 0
4, 3645, Note_on_c, 9, 51, 0
4, 3675, Note_on_c, 9, 36, 35
4, 3688, Note_on_c, 9, 36, 0
4, 3792, Note_on_c, 9, 51, 43
4, 3792, Note_on_c, 9, 38, 32
4, 3796, Note_on_c, 9, 53, 40
4, 3801, Note_on_c, 9, 38, 0
4, 3828, Note_on_c, 9, 53, 0
4, 3839, Note_on_c, 9, 51, 0
4, 3908, Note_on_c, 9, 38, 40
4, 3918, Note_on_c, 9, 38, 0
4, 4035, Note_on_c, 9, 38, 65
4, 4038, Note_on_c, 9, 51, 25
4, 4040, Note_on_c, 9, 53, 32
4, 4059, Note_on_c, 9, 53, 0
4, 4065, Note_on_c, 9, 51, 0
4, 4083, Note_on_c, 9, 38, 0
4, 4155, Note_on_c, 9, 38, 67
4, 4222, Note_on_c, 9, 38, 0
4, 4276, Note_on_c, 9, 59, 60
4, 4278, Note_on_c, 9, 57, 59
4, 4279, Note_on_c, 9, 36, 64
4, 4298, Note_on_c, 9, 36, 0
4, 4299, Note_on_c, 9, 57, 0
4, 4310, Note_on_c, 9, 59, 0
4, 4319, Note_on_c, 9, 38, 64
4, 4321, Note_on_c, 9, 36, 52
4, 4368, Note_on_c, 9, 36, 0
4, 4373, Note_on_c, 9, 38, 0
4, 4515, Note_on_c, 9, 51, 50
4, 4518, Note_on_c, 9, 53, 43
4, 4542, Note_on_c, 9, 53, 0
4, 4549, Note_on_c, 9, 51, 0
4, 4641, Note_on_c, 9, 51, 27
4, 4645, Note_on_c, 9, 53, 20
4, 4656, Note_on_c, 9, 53, 0
4, 4662, Note_on_c, 9, 51, 0
4, 4690, Note_on_c, 9, 51, 20
4, 4710, Note_on_c, 9, 51, 0
4, 4755, Note_on_c, 9, 51, 47
4, 4758, Note_on_c, 9, 53, 40
4, 4769, Note_on_c, 9, 53, 0
4, 4778, Note_on_c, 9, 51, 0
4, 4790, Note_on_c, 9, 36, 42
4, 4801, Note_on_c, 9, 36, 0
4, 4828, Note_on_c, 9, 36, 46
4, 4854, Note_on_c, 9, 36, 0
4, 4875, Note_on_c, 9, 59, 28
4, 4886, Note_on_c, 9, 59, 0
4, 4930, Note_on_c, 9, 36, 30
4, 4967, Note_on_c, 9, 36, 0
4, 4996, Note_on_c, 9, 59, 41
4, 4998, Note_on_c, 9, 38, 43
4, 5007, Note_on_c, 9, 59, 0
4, 5016, Note_on_c, 9, 38, 0
4, 5039, Note_on_c, 9, 59, 68
4, 5040, Note_on_c, 9, 38, 37
4, 5084, Note_on_c, 9, 38, 0
4, 5098, Note_on_c, 9, 59, 0
4, 5115, Note_on_c, 9, 36, 38
4, 5123, Note_on_c, 9, 59, 27
4, 5129, Note_on_c, 9, 36, 0
4, 5134, Note_on_c, 9, 59, 0
4, 5237, Note_on_c, 9, 59, 54
4, 5256, Note_on_c, 9, 59, 0
4, 5280, Note_on_c, 9, 59, 51
4, 5330, Note_on_c, 9, 59, 0
4, 5353, Note_on_c, 9, 38, 21
4, 5364, Note_on_c, 9, 38, 0
4, 5403, Note_on_c, 9, 38, 17
4, 5414, Note_on_c, 9, 38, 0
4, 5472, Note_on_c, 9, 59, 36
4, 5477, Note_on_c, 9, 36, 28
4, 5485, Note_on_c, 9, 59, 0
4, 5488, Note_on_c, 9, 36, 0
4, 5595, Note_on_c, 9, 51, 20
4, 5602, Note_on_c, 9, 53, 13
4, 5616, Note_on_c, 9, 53, 0
4, 5617, Note_on_c, 9, 51, 0
4, 5643, Note_on_c, 9, 38, 29
4, 5659, Note_on_c, 9, 38, 0
4, 5680, Note_on_c, 9, 38, 32
4, 5691, Note_on_c, 9, 38, 0
4, 5714, Note_on_c, 9, 51, 59
4, 5719, Note_on_c, 9, 36, 40
4, 5720, Note_on_c, 9, 53, 49
4, 5735, Note_on_c, 9, 51, 0
4, 5738, Note_on_c, 9, 53, 0
4, 5742, Note_on_c, 9, 36, 0
4, 5799, Note_on_c, 9, 38, 27
4, 5809, Note_on_c, 9, 38, 0
4, 5837, Note_on_c, 9, 38, 22
4, 5854, Note_on_c, 9, 38, 0
4, 5875, Note_on_c, 9, 36, 35
4, 5889, Note_on_c, 9, 51, 58
4, 5893, Note_on_c, 9, 53, 56
4, 5904, Note_on_c, 9, 36, 0
4, 5909, Note_on_c, 9, 51, 0
4, 5943, Note_on_c, 9, 53, 0
4, 6079, Note_on_c, 9, 51, 56
4, 6082, Note_on_c, 9, 53, 55
4, 6114, Note_on_c, 9, 51, 0
4, 6121, Note_on_c, 9, 53, 0
4, 6188, Note_on_c, 9, 38, 52
4, 6195, Note_on_c, 9, 59, 48
4, 6201, Note_on_c, 9, 38, 0
4, 6209, Note_on_c, 9, 59, 0
4, 6240, Note_on_c, 9, 38, 25
4, 6241, Note_on_c, 9, 59, 56
4, 6256, Note_on_c, 9, 38, 0
4, 6277, Note_on_c, 9, 59, 0
4, 6313, Note_on_c, 9, 36, 27
4, 6315, Note_on_c, 9, 51, 50
4, 6318, Note_on_c, 9, 53, 46
4, 6325, Note_on_c, 9, 36, 0
4, 6348, Note_on_c, 9, 53, 0
4, 6350, Note_on_c, 9, 51, 0
4, 6357, Note_on_c, 9, 36, 28
4, 6387, Note_on_c, 9, 36, 0
4, 6433, Note_on_c, 9, 36, 48
4, 6459, Note_on_c, 9, 36, 0
4, 6486, Note_on_c, 9, 51, 54
4, 6489, Note_on_c, 9, 53, 54
4, 6544, Note_on_c, 9, 51, 0
4, 6560, Note_on_c, 9, 53, 0
4, 6599, Note_on_c, 9, 59, 35
4, 6612, Note_on_c, 9, 59, 0
4, 6672, Note_on_c, 9, 51, 53
4, 6673, Note_on_c, 9, 53, 56
4, 6716, Note_on_c, 9, 51, 0
4, 6732, Note_on_c, 9, 53, 0
4, 6794, Note_on_c, 9, 51, 53
4, 6794, Note_on_c, 9, 38, 52
4, 6798, Note_on_c, 9, 53, 54
4, 6809, Note_on_c, 9, 38, 0
4, 6833, Note_on_c, 9, 51, 0
4, 6837, Note_on_c, 9, 53, 0
4, 6915, Note_on_c, 9, 36, 32
4, 6922, Note_on_c, 9, 51, 46
4, 6924, Note_on_c, 9, 36, 0
4, 6925, Note_on_c, 9, 53, 36
4, 6933, Note_on_c, 9, 53, 0
4, 6936, Note_on_c, 9, 51, 0
4, 6957, Note_on_c, 9, 38, 54
4, 6969, Note_on_c, 9, 51, 59
4, 6970, Note_on_c, 9, 53, 57
4, 7013, Note_on_c, 9, 38, 0
4, 7015, Note_on_c, 9, 51, 0
4, 7017, Note_on_c, 9, 53, 0
4, 7035, Note_on_c, 9, 38, 43
4, 7051, Note_on_c, 9, 38, 0
4, 7157, Note_on_c, 9, 51, 31
4, 7157, Note_on_c, 9, 36, 32
4, 7159, Note_on_c, 9, 53, 29
4, 7168, Note_on_c, 9, 53, 0
4, 7168, Note_on_c, 9, 51, 0
4, 7170, Note_on_c, 9, 36, 0
4, 7198, Note_on_c, 9, 38, 36
4, 7204, Note_on_c, 9, 59, 42
4, 7215, Note_on_c, 9, 59, 0
4, 7253, Note_on_c, 9, 38, 0
4, 7271, Note_on_c, 9, 59, 65
4, 7272, Note_on_c, 9, 38, 49
4, 7282, Note_on_c, 9, 38, 0
4, 7297, Note_on_c, 9, 59, 0
4, 7318, Note_on_c, 9, 59, 48
4, 7349, Note_on_c, 9, 59, 0
4, 7396, Note_on_c, 9, 59, 51
4, 7397, Note_on_c, 9, 38, 24
4, 7409, Note_on_c, 9, 38, 0
4, 7413, Note_on_c, 9, 59, 0
4, 7441, Note_on_c, 9, 59, 43
4, 7468, Note_on_c, 9, 59, 0
4, 7516, Note_on_c, 9, 51, 35
4, 7517, Note_on_c, 9, 53, 41
4, 7517, Note_on_c, 9, 38, 40
4, 7528, Note_on_c, 9, 38, 0
4, 7528, Note_on_c, 9, 53, 0
4, 7536, Note_on_c, 9, 51, 0
4, 7568, Note_on_c, 9, 51, 20
4, 7568, Note_on_c, 9, 53, 28
4, 7580, Note_on_c, 9, 53, 0
4, 7587, Note_on_c, 9, 51, 0
4, 7633, Note_on_c, 9, 51, 64
4, 7636, Note_on_c, 9, 53, 63
4, 7639, Note_on_c, 9, 38, 42
4, 7662, Note_on_c, 9, 38, 0
4, 7680, Note_on_c, 9, 53, 0
4, 7685, Note_on_c, 9, 51, 0
4, 7754, Note_on_c, 9, 51, 41
4, 7754, Note_on_c, 9, 38, 41
4, 7757, Note_on_c, 9, 53, 38
4, 7765, Note_on_c, 9, 38, 0
4, 7766, Note_on_c, 9, 53, 0
4, 7775, Note_on_c, 9, 51, 0
4, 7801, Note_on_c, 9, 51, 28
4, 7806, Note_on_c, 9, 53, 28
4, 7817, Note_on_c, 9, 53, 0
4, 7824, Note_on_c, 9, 51, 0
4, 7877, Note_on_c, 9, 51, 55
4, 7878, Note_on_c, 9, 38, 44
4, 7880, Note_on_c, 9, 53, 52
4, 7890, Note_on_c, 9, 38, 0
4, 7899, Note_on_c, 9, 53, 0
4, 7905, Note_on_c, 9, 51, 0
4, 7922, Note_on_c, 9, 50, 56
4, 7935, Note_on_c, 9, 50, 0
4, 7961, Note_on_c, 9, 50, 54
4, 7987, Note_on_c, 9, 50, 0
4, 7998, Note_on_c, 9, 57, 59
4, 8000, Note_on_c, 9, 59, 49
4, 8000, Note_on_c, 9, 51, 51
4, 8001, Note_on_c, 9, 38, 43
4, 8002, Note_on_c, 9, 53, 52
4, 8008, Note_on_c, 9, 59, 0
4, 8010, Note_on_c, 9, 57, 0
4, 8015, Note_on_c, 9, 53, 0
4, 8019, Note_on_c, 9, 38, 0
4, 8020, Note_on_c, 9, 51, 0
4, 8045, Note_on_c, 9, 45, 57
4, 8053, Note_on_c, 9, 45, 0
4, 8078, Note_on_c, 9, 45, 54
4, 8095, Note_on_c, 9, 45, 0
4, 8126, Note_on_c, 9, 38, 45
4, 8129, Note_on_c, 9, 51, 44
4, 8133, Note_on_c, 9, 53, 30
4, 8135, Note_on_c, 9, 38, 0
4, 8137, Note_on_c, 9, 51, 0
4, 8142, Note_on_c, 9, 53, 0
4, 8170, Note_on_c, 9, 38, 39
4, 8175, Note_on_c, 9, 36, 55
4, 8179, Note_on_c, 9, 38, 0
4, 8189, Note_on_c, 9, 51, 51
4, 8191, Note_on_c, 9, 53, 48
4, 8199, Note_on_c, 9, 53, 0
4, 8207, Note_on_c, 9, 51, 0
4, 8236, Note_on_c, 9, 36, 0
4, 8359, Note_on_c, 9, 51, 48
4, 8365, Note_on_c, 9, 53, 35
4, 8373, Note_on_c, 9, 53, 0
4, 8377, Note_on_c, 9, 51, 0
4, 8415, Note_on_c, 9, 53, 39
4, 8417, Note_on_c, 9, 51, 30
4, 8427, Note_on_c, 9, 53, 0
4, 8430, Note_on_c, 9, 51, 0
4, 8719, Note_on_c, 9, 51, 34
4, 8722, Note_on_c, 9, 53, 27
4, 8730, Note_on_c, 9, 51, 0
4, 8731, Note_on_c, 9, 53, 0
4, 8771, Note_on_c, 9, 51, 16
4, 8771, Note_on_c, 9, 53, 22
4, 8782, Note_on_c, 9, 53, 0
4, 8787, Note_on_c, 9, 51, 0
4, 8840, Note_on_c, 9, 36, 34
4, 8845, Note_on_c, 9, 51, 34
4, 8850, Note_on_c, 9, 53, 20
4, 8851, Note_on_c, 9, 36, 0
4, 8858, Note_on_c, 9, 53, 0
4, 8861, Note_on_c, 9, 51, 0
4, 8884, Note_on_c, 9, 36, 26
4, 8887, Note_on_c, 9, 59, 47
4, 8910, Note_on_c, 9, 36, 0
4, 8916, Note_on_c, 9, 59, 0
4, 8959, Note_on_c, 9, 36, 37
4, 8960, Note_on_c, 9, 59, 53
4, 8970, Note_on_c, 9, 36, 0
4, 8985, Note_on_c, 9, 59, 0
4, 9027, Note_on_c, 9, 59, 51
4, 9054, Note_on_c, 9, 59, 0
4, 9102, Note_on_c, 9, 59, 48
4, 9125, Note_on_c, 9, 59, 0
4, 9160, Note_on_c, 9, 59, 52
4, 9183, Note_on_c, 9, 59, 0
4, 9314, Note_on_c, 9, 51, 42
4, 9318, Note_on_c, 9, 53, 30
4, 9326, Note_on_c, 9, 53, 0
4, 9331, Note_on_c, 9, 51, 0
4, 9361, Note_on_c, 9, 51, 34
4, 9362, Note_on_c, 9, 53, 44
4, 9394, Note_on_c, 9, 53, 0
4, 9409, Note_on_c, 9, 51, 0
4, 9442, Note_on_c, 9, 51, 41
4, 9443, Note_on_c, 9, 38, 32
4, 9444, Note_on_c, 9, 53, 43
4, 9453, Note_on_c, 9, 53, 0
4, 9454, Note_on_c, 9, 38, 0
4, 9464, Note_on_c, 9, 51, 0
4, 9492, Note_on_c, 9, 38, 23
4, 9511, Note_on_c, 9, 38, 0
4, 9563, Note_on_c, 9, 51, 56
4, 9564, Note_on_c, 9, 53, 56
4, 9564, Note_on_c, 9, 38, 37
4, 9578, Note_on_c, 9, 38, 0
4, 9612, Note_on_c, 9, 38, 27
4, 9635, Note_on_c, 9, 51, 0
4, 9637, Note_on_c, 9, 53, 0
4, 9668, Note_on_c, 9, 38, 0
4, 9688, Note_on_c, 9, 51, 36
4, 9698, Note_on_c, 9, 51, 0
4, 9727, Note_on_c, 9, 51, 37
4, 9728, Note_on_c, 9, 53, 37
4, 9730, Note_on_c, 9, 38, 28
4, 9741, Note_on_c, 9, 38, 0
4, 9743, Note_on_c, 9, 53, 0
4, 9750, Note_on_c, 9, 51, 0
4, 9798, Note_on_c, 9, 38, 38
4, 9804, Note_on_c, 9, 51, 63
4, 9806, Note_on_c, 9, 53, 62
4, 9810, Note_on_c, 9, 38, 0
4, 9825, Note_on_c, 9, 53, 0
4, 9829, Note_on_c, 9, 51, 0
4, 9920, Note_on_c, 9, 36, 17
4, 9923, Note_on_c, 9, 51, 29
4, 9929, Note_on_c, 9, 36, 0
4, 9931, Note_on_c, 9, 51, 0
4, 9959, Note_on_c, 9, 36, 31
4, 9966, Note_on_c, 9, 59, 47
4, 9976, Note_on_c, 9, 36, 0
4, 9994, Note_on_c, 9, 59, 0
4, 10036, Note_on_c, 9, 36, 44
4, 10039, Note_on_c, 9, 59, 66
4, 10055, Note_on_c, 9, 36, 0
4, 10068, Note_on_c, 9, 59, 0
4, 10162, Note_on_c, 9, 38, 17
4, 10172, Note_on_c, 9, 38, 0
4, 10282, Note_on_c, 9, 38, 19
4, 10287, Note_on_c, 9, 51, 36
4, 10290, Note_on_c, 9, 53, 30
4, 10299, Note_on_c, 9, 53, 0
4, 10299, Note_on_c, 9, 38, 0
4, 10308, Note_on_c, 9, 51, 0
4, 10324, Note_on_c, 9, 38, 36
4, 10327, Note_on_c, 9, 51, 38
4, 10329, Note_on_c, 9, 53, 40
4, 10351, Note_on_c, 9, 53, 0
4, 10359, Note_on_c, 9, 51, 0
4, 10371, Note_on_c, 9, 38, 0
4, 10514, Note_on_c, 9, 38, 42
4, 10521, Note_on_c, 9, 51, 53
4, 10523, Note_on_c, 9, 38, 0
4, 10524, Note_on_c, 9, 53, 49
4, 10537, Note_on_c, 9, 53, 0
4, 10542, Note_on_c, 9, 51, 0
4, 10633, Note_on_c, 9, 38, 46
4, 10647, Note_on_c, 9, 59, 22
4, 10656, Note_on_c, 9, 38, 0
4, 10657, Note_on_c, 9, 59, 0
4, 10756, Note_on_c, 9, 36, 40
4, 10758, Note_on_c, 9, 59, 56
4, 10765, Note_on_c, 9, 36, 0
4, 10775, Note_on_c, 9, 59, 0
4, 10996, Note_on_c, 9, 51, 44
4, 10999, Note_on_c, 9, 53, 36
4, 11015, Note_on_c, 9, 53, 0
4, 11021, Note_on_c, 9, 51, 0
4, 11039, Note_on_c, 9, 38, 15
4, 11043, Note_on_c, 9, 53, 40
4, 11047, Note_on_c, 9, 51, 20
4, 11065, Note_on_c, 9, 53, 0
4, 11068, Note_on_c, 9, 51, 0
4, 11079, Note_on_c, 9, 38, 0
4, 11116, Note_on_c, 9, 38, 47
4, 11142, Note_on_c, 9, 38, 0
4, 11167, Note_on_c, 9, 38, 31
4, 11200, Note_on_c, 9, 38, 0
4, 11236, Note_on_c, 9, 36, 41
4, 11247, Note_on_c, 9, 36, 0
4, 11280, Note_on_c, 9, 59, 48
4, 11291, Note_on_c, 9, 38, 22
4, 11292, Note_on_c, 9, 59, 0
4, 11340, Note_on_c, 9, 38, 0
4, 11473, Note_on_c, 9, 38, 38
4, 11478, Note_on_c, 9, 59, 59
4, 11491, Note_on_c, 9, 38, 0
4, 11494, Note_on_c, 9, 59, 0
4, 11595, Note_on_c, 9, 38, 16
4, 11606, Note_on_c, 9, 38, 0
4, 11717, Note_on_c, 9, 51, 34
4, 11718, Note_on_c, 9, 53, 32
4, 11722, Note_on_c, 9, 38, 34
4, 11726, Note_on_c, 9, 53, 0
4, 11728, Note_on_c, 9, 51, 0
4, 11733, Note_on_c, 9, 38, 0
4, 11760, Note_on_c, 9, 50, 80
4, 11828, Note_on_c, 9, 50, 0
4, 11853, Note_on_c, 9, 51, 30
4, 11854, Note_on_c, 9, 53, 24
4, 11861, Note_on_c, 9, 51, 0
4, 11863, Note_on_c, 9, 53, 0
4, 11886, Note_on_c, 9, 45, 84
4, 11929, Note_on_c, 9, 45, 0
4, 11955, Note_on_c, 9, 51, 68
4, 11956, Note_on_c, 9, 57, 80
4, 11957, Note_on_c, 9, 59, 65
4, 11961, Note_on_c, 9, 57, 86
4, 11965, Note_on_c, 9, 36, 45
4, 11976, Note_on_c, 9, 36, 0
4, 11976, Note_on_c, 9, 57, 0
4, 11981, Note_on_c, 9, 57, 0
4, 11986, Note_on_c, 9, 51, 0
4, 11990, Note_on_c, 9, 59, 0
4, 12007, Note_on_c, 9, 36, 58
4, 12032, Note_on_c, 9, 36, 0
4, 12247, Note_on_c, 9, 51, 48
4, 12260, Note_on_c, 9, 51, 0
4, 12355, Note_on_c, 9, 38, 18
4, 12366, Note_on_c, 9, 51, 67
4, 12395, Note_on_c, 9, 51, 0
4, 12415, Note_on_c, 9, 38, 0
4, 12438, Note_on_c, 9, 38, 23
4, 12457, Note_on_c, 9, 38, 0
4, 12562, Note_on_c, 9, 36, 28
4, 12584, Note_on_c, 9, 36, 0
4, 12604, Note_on_c, 9, 51, 76
4, 12633, Note_on_c, 9, 51, 0
4, 12919, Note_on_c, 9, 51, 55
4, 12943, Note_on_c, 9, 51, 0
4, 12964, Note_on_c, 9, 51, 66
4, 13008, Note_on_c, 9, 51, 0
4, 13205, Note_on_c, 9, 51, 64
4, 13239, Note_on_c, 9, 51, 0
4, 13272, Note_on_c, 9, 44, 31
4, 13291, Note_on_c, 9, 44, 0
4, 13326, Note_on_c, 9, 51, 74
4, 13396, Note_on_c, 9, 44, 34
4, 13403, Note_on_c, 9, 51, 0
4, 13408, Note_on_c, 9, 44, 0
4, 13518, Note_on_c, 9, 44, 33
4, 13526, Note_on_c, 9, 44, 0
4, 13559, Note_on_c, 9, 51, 72
4, 13605, Note_on_c, 9, 51, 0
4, 13639, Note_on_c, 9, 44, 36
4, 13647, Note_on_c, 9, 44, 0
4, 13685, Note_on_c, 9, 51, 66
4, 13719, Note_on_c, 9, 51, 0
4, 13757, Note_on_c, 9, 44, 38
4, 13766, Note_on_c, 9, 44, 0
4, 13800, Note_on_c, 9, 51, 68
4, 13802, Note_on_c, 9, 53, 64
4, 13855, Note_on_c, 9, 51, 0
4, 13867, Note_on_c, 9, 53, 0
4, 13872, Note_on_c, 9, 46, 45
4, 13889, Note_on_c, 9, 46, 0
4, 13926, Note_on_c, 9, 51, 37
4, 13973, Note_on_c, 9, 51, 0
4, 14036, Note_on_c, 9, 51, 61
4, 14093, Note_on_c, 9, 51, 0
4, 14164, Note_on_c, 9, 51, 66
4, 14241, Note_on_c, 9, 51, 0
4, 14360, Note_on_c, 9, 38, 37
4, 14367, Note_on_c, 9, 38, 0
4, 14369, Note_on_c, 9, 51, 49
4, 14382, Note_on_c, 9, 51, 0
4, 14407, Note_on_c, 9, 38, 25
4, 14418, Note_on_c, 9, 38, 0
4, 14422, Note_on_c, 9, 51, 65
4, 14479, Note_on_c, 9, 38, 29
4, 14480, Note_on_c, 9, 51, 0
4, 14490, Note_on_c, 9, 38, 0
4, 14527, Note_on_c, 9, 38, 25
4, 14531, Note_on_c, 9, 51, 69
4, 14537, Note_on_c, 9, 38, 0
4, 14598, Note_on_c, 9, 36, 29
4, 14601, Note_on_c, 9, 38, 33
4, 14606, Note_on_c, 9, 36, 0
4, 14622, Note_on_c, 9, 51, 0
4, 14630, Note_on_c, 9, 38, 0
4, 14652, Note_on_c, 9, 38, 26
4, 14666, Note_on_c, 9, 38, 0
4, 14715, Note_on_c, 9, 51, 57
4, 14723, Note_on_c, 9, 38, 35
4, 14731, Note_on_c, 9, 38, 0
4, 14739, Note_on_c, 9, 51, 0
4, 14759, Note_on_c, 9, 51, 62
4, 14765, Note_on_c, 9, 38, 31
4, 14773, Note_on_c, 9, 38, 0
4, 14802, Note_on_c, 9, 38, 31
4, 14815, Note_on_c, 9, 38, 0
4, 14815, Note_on_c, 9, 51, 0
4, 14844, Note_on_c, 9, 36, 42
4, 14885, Note_on_c, 9, 51, 72
4, 14889, Note_on_c, 9, 36, 0
4, 14936, Note_on_c, 9, 51, 0
4, 15005, Note_on_c, 9, 51, 68
4, 15049, Note_on_c, 9, 51, 0
4, 15124, Note_on_c, 9, 51, 67
4, 15167, Note_on_c, 9, 38, 39
4, 15170, Note_on_c, 9, 51, 0
4, 15175, Note_on_c, 9, 38, 0
4, 15202, Note_on_c, 9, 38, 33
4, 15234, Note_on_c, 9, 38, 0
4, 15247, Note_on_c, 9, 51, 67
4, 15248, Note_on_c, 9, 36, 45
4, 15248, Note_on_c, 9, 57, 37
4, 15283, Note_on_c, 9, 57, 0
4, 15285, Note_on_c, 9, 51, 0
4, 15297, Note_on_c, 9, 36, 0
4, 15369, Note_on_c, 9, 51, 68
4, 15400, Note_on_c, 9, 38, 38
4, 15409, Note_on_c, 9, 51, 0
4, 15424, Note_on_c, 9, 38, 0
4, 15442, Note_on_c, 9, 36, 44
4, 15443, Note_on_c, 9, 57, 43
4, 15475, Note_on_c, 9, 57, 0
4, 15487, Note_on_c, 9, 36, 0
4, 15490, Note_on_c, 9, 51, 66
4, 15534, Note_on_c, 9, 51, 0
4, 15573, Note_on_c, 9, 51, 38
4, 15652, Note_on_c, 9, 51, 0
4, 15678, Note_on_c, 9, 38, 29
4, 15686, Note_on_c, 9, 38, 0
4, 15725, Note_on_c, 9, 38, 22
4, 15726, Note_on_c, 9, 51, 69
4, 15734, Note_on_c, 9, 38, 0
4, 15768, Note_on_c, 9, 51, 0
4, 15795, Note_on_c, 9, 38, 48
4, 15812, Note_on_c, 9, 51, 49
4, 15814, Note_on_c, 9, 38, 0
4, 15830, Note_on_c, 9, 51, 0
4, 15839, Note_on_c, 9, 38, 53
4, 15840, Note_on_c, 9, 57, 59
4, 15842, Note_on_c, 9, 36, 50
4, 15852, Note_on_c, 9, 51, 67
4, 15858, Note_on_c, 9, 36, 0
4, 15860, Note_on_c, 9, 57, 0
4, 15881, Note_on_c, 9, 38, 0
4, 15892, Note_on_c, 9, 51, 0
4, 15965, Note_on_c, 9, 51, 69
4, 16002, Note_on_c, 9, 51, 0
4, 16091, Note_on_c, 9, 51, 68
4, 16129, Note_on_c, 9, 51, 0
4, 16216, Note_on_c, 9, 51, 68
4, 16247, Note_on_c, 9, 51, 0
4, 16284, Note_on_c, 9, 38, 24
4, 16294, Note_on_c, 9, 38, 0
4, 16325, Note_on_c, 9, 51, 68
4, 16351, Note_on_c, 9, 51, 0
4, 16439, Note_on_c, 9, 51, 55
4, 16487, Note_on_c, 9, 51, 0
4, 16545, Note_on_c, 9, 51, 48
4, 16598, Note_on_c, 9, 51, 0
4, 16621, Note_on_c, 9, 38, 19
4, 16640, Note_on_c, 9, 38, 0
4, 16657, Note_on_c, 9, 38, 29
4, 16666, Note_on_c, 9, 38, 0
4, 16678, Note_on_c, 9, 51, 61
4, 16691, Note_on_c, 9, 38, 24
4, 16714, Note_on_c, 9, 38, 0
4, 16746, Note_on_c, 9, 51, 0
4, 16756, Note_on_c, 9, 38, 40
4, 16767, Note_on_c, 9, 38, 0
4, 16802, Note_on_c, 9, 51, 55
4, 16812, Note_on_c, 9, 38, 34
4, 16830, Note_on_c, 9, 38, 0
4, 16848, Note_on_c, 9, 38, 20
4, 16857, Note_on_c, 9, 38, 0
4, 16864, Note_on_c, 9, 51, 0
4, 16886, Note_on_c, 9, 36, 29
4, 16913, Note_on_c, 9, 36, 0
4, 16919, Note_on_c, 9, 51, 57
4, 16980, Note_on_c, 9, 51, 0
4, 17042, Note_on_c, 9, 51, 59
4, 17104, Note_on_c, 9, 51, 0
4, 17167, Note_on_c, 9, 51, 56
4, 17212, Note_on_c, 9, 51, 0
4, 17258, Note_on_c, 9, 51, 59
4, 17292, Note_on_c, 9, 51, 0
4, 17301, Note_on_c, 9, 51, 36
4, 17364, Note_on_c, 9, 51, 0
4, 17405, Note_on_c, 9, 51, 55
4, 17461, Note_on_c, 9, 51, 0
4, 17476, Note_on_c, 9, 40, 34
4, 17493, Note_on_c, 9, 51, 53
4, 17503, Note_on_c, 9, 40, 0
4, 17526, Note_on_c, 9, 51, 0
4, 17540, Note_on_c, 9, 51, 49
4, 17596, Note_on_c, 9, 40, 40
4, 17605, Note_on_c, 9, 51, 0
4, 17628, Note_on_c, 9, 40, 0
4, 17642, Note_on_c, 9, 51, 56
4, 17653, Note_on_c, 9, 38, 14
4, 17664, Note_on_c, 9, 38, 0
4, 17697, Note_on_c, 9, 51, 0
4, 17717, Note_on_c, 9, 36, 46
4, 17745, Note_on_c, 9, 36, 0
4, 17761, Note_on_c, 9, 51, 63
4, 17766, Note_on_c, 9, 36, 31
4, 17814, Note_on_c, 9, 51, 0
4, 17815, Note_on_c, 9, 36, 0
4, 17874, Note_on_c, 9, 51, 65
4, 17941, Note_on_c, 9, 51, 0
4, 18002, Note_on_c, 9, 51, 63
4, 18064, Note_on_c, 9, 51, 0
4, 18125, Note_on_c, 9, 51, 64
4, 18190, Note_on_c, 9, 51, 0
4, 18202, Note_on_c, 9, 38, 31
4, 18211, Note_on_c, 9, 38, 0
4, 18255, Note_on_c, 9, 51, 62
4, 18310, Note_on_c, 9, 51, 0
4, 18323, Note_on_c, 9, 38, 34
4, 18332, Note_on_c, 9, 38, 0
4, 18362, Note_on_c, 9, 51, 62
4, 18422, Note_on_c, 9, 51, 0
4, 18453, Note_on_c, 9, 36, 31
4, 18461, Note_on_c, 9, 36, 0
4, 18483, Note_on_c, 9, 51, 60
4, 18495, Note_on_c, 9, 38, 31
4, 18539, Note_on_c, 9, 51, 0
4, 18548, Note_on_c, 9, 38, 0
4, 18568, Note_on_c, 9, 38, 33
4, 18581, Note_on_c, 9, 38, 0
4, 18602, Note_on_c, 9, 51, 61
4, 18653, Note_on_c, 9, 51, 0
4, 18683, Note_on_c, 9, 36, 21
4, 18691, Note_on_c, 9, 36, 0
4, 18712, Note_on_c, 9, 51, 60
4, 18774, Note_on_c, 9, 51, 0
4, 18844, Note_on_c, 9, 51, 60
4, 18844, Note_on_c, 9, 38, 27
4, 18857, Note_on_c, 9, 38, 0
4, 18893, Note_on_c, 9, 51, 0
4, 18920, Note_on_c, 9, 38, 39
4, 18933, Note_on_c, 9, 38, 0
4, 18944, Note_on_c, 9, 51, 56
4, 18971, Note_on_c, 9, 51, 0
4, 18982, Note_on_c, 9, 51, 46
4, 18999, Note_on_c, 9, 38, 31
4, 19038, Note_on_c, 9, 38, 0
4, 19038, Note_on_c, 9, 51, 0
4, 19085, Note_on_c, 9, 38, 44
4, 19088, Note_on_c, 9, 51, 65
4, 19108, Note_on_c, 9, 38, 0
4, 19136, Note_on_c, 9, 51, 0
4, 19161, Note_on_c, 9, 38, 50
4, 19174, Note_on_c, 9, 51, 49
4, 19192, Note_on_c, 9, 38, 0
4, 19204, Note_on_c, 9, 51, 0
4, 19218, Note_on_c, 9, 51, 49
4, 19240, Note_on_c, 9, 38, 54
4, 19272, Note_on_c, 9, 51, 0
4, 19275, Note_on_c, 9, 38, 0
4, 19324, Note_on_c, 9, 51, 62
4, 19325, Note_on_c, 9, 38, 54
4, 19363, Note_on_c, 9, 38, 0
4, 19373, Note_on_c, 9, 51, 0
4, 19405, Note_on_c, 9, 38, 49
4, 19426, Note_on_c, 9, 38, 0
4, 19433, Note_on_c, 9, 51, 61
4, 19486, Note_on_c, 9, 38, 48
4, 19490, Note_on_c, 9, 51, 0
4, 19513, Note_on_c, 9, 38, 0
4, 19561, Note_on_c, 9, 51, 59
4, 19563, Note_on_c, 9, 38, 53
4, 19565, Note_on_c, 9, 37, 49
4, 19593, Note_on_c, 9, 38, 0
4, 19597, Note_on_c, 9, 37, 0
4, 19603, Note_on_c, 9, 51, 0
4, 19639, Note_on_c, 9, 38, 55
4, 19639, Note_on_c, 9, 36, 59
4, 19641, Note_on_c, 9, 57, 58
4, 19652, Note_on_c, 9, 51, 60
4, 19678, Note_on_c, 9, 51, 0
4, 19694, Note_on_c, 9, 51, 53
4, 19745, Note_on_c, 9, 51, 0
4, 19760, Note_on_c, 9, 57, 0
4, 19805, Note_on_c, 9, 36, 0
4, 19805, Note_on_c, 9, 38, 0
4, 19805, Note_on_c, 9, 51, 61
4, 19851, Note_on_c, 9, 51, 0
4, 19882, Note_on_c, 9, 38, 30
4, 19894, Note_on_c, 9, 38, 0
4, 19925, Note_on_c, 9, 51, 64
4, 19926, Note_on_c, 9, 38, 15
4, 19971, Note_on_c, 9, 51, 0
4, 19982, Note_on_c, 9, 38, 0
4, 20001, Note_on_c, 9, 38, 29
4, 20010, Note_on_c, 9, 38, 0
4, 20040, Note_on_c, 9, 51, 62
4, 20080, Note_on_c, 9, 51, 0
4, 20128, Note_on_c, 9, 51, 52
4, 20155, Note_on_c, 9, 51, 0
4, 20165, Note_on_c, 9, 51, 29
4, 20219, Note_on_c, 9, 51, 0
4, 20278, Note_on_c, 9, 51, 61
4, 20320, Note_on_c, 9, 51, 0
4, 20364, Note_on_c, 9, 51, 53
4, 20391, Note_on_c, 9, 51, 0
4, 20407, Note_on_c, 9, 51, 51
4, 20453, Note_on_c, 9, 38, 34
4, 20456, Note_on_c, 9, 51, 0
4, 20461, Note_on_c, 9, 38, 0
4, 20489, Note_on_c, 9, 38, 23
4, 20510, Note_on_c, 9, 38, 0
4, 20524, Note_on_c, 9, 51, 64
4, 20532, Note_on_c, 9, 38, 17
4, 20541, Note_on_c, 9, 38, 0
4, 20549, Note_on_c, 9, 38, 14
4, 20577, Note_on_c, 9, 51, 0
4, 20580, Note_on_c, 9, 38, 0
4, 20602, Note_on_c, 9, 38, 28
4, 20611, Note_on_c, 9, 38, 0
4, 20626, Note_on_c, 9, 51, 60
4, 20657, Note_on_c, 9, 51, 0
4, 20668, Note_on_c, 9, 51, 37
4, 20715, Note_on_c, 9, 51, 0
4, 20721, Note_on_c, 9, 36, 35
4, 20747, Note_on_c, 9, 36, 0
4, 20766, Note_on_c, 9, 51, 66
4, 20806, Note_on_c, 9, 51, 0
4, 20852, Note_on_c, 9, 51, 51
4, 20873, Note_on_c, 9, 51, 0
4, 20892, Note_on_c, 9, 51, 56
4, 20941, Note_on_c, 9, 51, 0
4, 21006, Note_on_c, 9, 51, 68
4, 21055, Note_on_c, 9, 51, 0
4, 21099, Note_on_c, 9, 51, 53
4, 21130, Note_on_c, 9, 51, 0
4, 21139, Note_on_c, 9, 51, 33
4, 21186, Note_on_c, 9, 51, 0
4, 21242, Note_on_c, 9, 51, 63
4, 21288, Note_on_c, 9, 51, 0
4, 21367, Note_on_c, 9, 51, 65
4, 21411, Note_on_c, 9, 51, 0
4, 21439, Note_on_c, 9, 38, 16
4, 21447, Note_on_c, 9, 38, 0
4, 21481, Note_on_c, 9, 45, 48
4, 21484, Note_on_c, 9, 51, 64
4, 21497, Note_on_c, 9, 45, 0
4, 21518, Note_on_c, 9, 45, 45
4, 21534, Note_on_c, 9, 51, 0
4, 21541, Note_on_c, 9, 45, 0
4, 21561, Note_on_c, 9, 41, 60
4, 21584, Note_on_c, 9, 41, 0
4, 21595, Note_on_c, 9, 38, 52
4, 21609, Note_on_c, 9, 51, 64
4, 21630, Note_on_c, 9, 38, 0
4, 21655, Note_on_c, 9, 51, 0
4, 21727, Note_on_c, 9, 51, 65
4, 21769, Note_on_c, 9, 51, 0
4, 21832, Note_on_c, 9, 51, 60
4, 21874, Note_on_c, 9, 51, 0
4, 21883, Note_on_c, 9, 45, 43
4, 21890, Note_on_c, 9, 45, 0
4, 21917, Note_on_c, 9, 38, 30
4, 21939, Note_on_c, 9, 38, 0
4, 21962, Note_on_c, 9, 51, 64
4, 21963, Note_on_c, 9, 57, 47
4, 21963, Note_on_c, 9, 36, 52
4, 22002, Note_on_c, 9, 51, 0
4, 22013, Note_on_c, 9, 57, 0
4, 22050, Note_on_c, 9, 36, 0
4, 22059, Note_on_c, 9, 51, 56
4, 22138, Note_on_c, 9, 51, 0
4, 22203, Note_on_c, 9, 51, 66
4, 22247, Note_on_c, 9, 51, 0
4, 22291, Note_on_c, 9, 51, 53
4, 22322, Note_on_c, 9, 51, 0
4, 22330, Note_on_c, 9, 51, 28
4, 22384, Note_on_c, 9, 51, 0
4, 22447, Note_on_c, 9, 51, 66
4, 22491, Note_on_c, 9, 51, 0
4, 22522, Note_on_c, 9, 38, 23
4, 22531, Note_on_c, 9, 38, 0
4, 22540, Note_on_c, 9, 51, 49
4, 22562, Note_on_c, 9, 51, 0
4, 22566, Note_on_c, 9, 38, 23
4, 22573, Note_on_c, 9, 51, 43
4, 22577, Note_on_c, 9, 38, 0
4, 22621, Note_on_c, 9, 51, 0
4, 22690, Note_on_c, 9, 51, 66
4, 22736, Note_on_c, 9, 51, 0
4, 22810, Note_on_c, 9, 51, 66
4, 22860, Note_on_c, 9, 51, 0
4, 22917, Note_on_c, 9, 38, 12
4, 22926, Note_on_c, 9, 51, 65
4, 22955, Note_on_c, 9, 38, 0
4, 22965, Note_on_c, 9, 51, 0
4, 22993, Note_on_c, 9, 38, 39
4, 23008, Note_on_c, 9, 38, 0
4, 23017, Note_on_c, 9, 51, 53
4, 23040, Note_on_c, 9, 51, 0
4, 23053, Note_on_c, 9, 51, 36
4, 23091, Note_on_c, 9, 51, 0
4, 23111, Note_on_c, 9, 38, 32
4, 23120, Note_on_c, 9, 38, 0
4, 23153, Note_on_c, 9, 51, 64
4, 23165, Note_on_c, 9, 36, 14
4, 23172, Note_on_c, 9, 36, 0
4, 23189, Note_on_c, 9, 51, 0
4, 23237, Note_on_c, 9, 38, 29
4, 23245, Note_on_c, 9, 38, 0
4, 23283, Note_on_c, 9, 51, 60
4, 23311, Note_on_c, 9, 51, 0
4, 23356, Note_on_c, 9, 38, 42
4, 23373, Note_on_c, 9, 38, 0
4, 23403, Note_on_c, 9, 51, 72
4, 23438, Note_on_c, 9, 51, 0
4, 23471, Note_on_c, 9, 57, 54
4, 23473, Note_on_c, 9, 36, 52
4, 23485, Note_on_c, 9, 57, 0
4, 23490, Note_on_c, 9, 36, 0
4, 23524, Note_on_c, 9, 51, 60
4, 23559, Note_on_c, 9, 51, 0
4, 23646, Note_on_c, 9, 51, 77
4, 23651, Note_on_c, 9, 53, 66
4, 23693, Note_on_c, 9, 51, 0
4, 23697, Note_on_c, 9, 53, 0
4, 23778, Note_on_c, 9, 51, 41
4, 23793, Note_on_c, 9, 51, 0
4, 23835, Note_on_c, 9, 38, 30
4, 23852, Note_on_c, 9, 38, 0
4, 23877, Note_on_c, 9, 38, 25
4, 23893, Note_on_c, 9, 51, 72
4, 23894, Note_on_c, 9, 53, 68
4, 23902, Note_on_c, 9, 38, 0
4, 23962, Note_on_c, 9, 53, 0
4, 23973, Note_on_c, 9, 51, 0
4, 24017, Note_on_c, 9, 51, 40
4, 24052, Note_on_c, 9, 51, 0
4, 24130, Note_on_c, 9, 51, 74
4, 24184, Note_on_c, 9, 51, 0
4, 24246, Note_on_c, 9, 51, 36
4, 24272, Note_on_c, 9, 51, 0
4, 24368, Note_on_c, 9, 51, 68
4, 24404, Note_on_c, 9, 51, 0
4, 24446, Note_on_c, 9, 51, 51
4, 24470, Note_on_c, 9, 51, 0
4, 24491, Note_on_c, 9, 51, 61
4, 24529, Note_on_c, 9, 51, 0
4, 24608, Note_on_c, 9, 51, 74
4, 24645, Note_on_c, 9, 51, 0
4, 24691, Note_on_c, 9, 51, 47
4, 24710, Note_on_c, 9, 51, 0
4, 24732, Note_on_c, 9, 51, 63
4, 24766, Note_on_c, 9, 51, 0
4, 24841, Note_on_c, 9, 36, 21
4, 24849, Note_on_c, 9, 51, 76
4, 24850, Note_on_c, 9, 36, 0
4, 24880, Note_on_c, 9, 51, 0
4, 24931, Note_on_c, 9, 51, 55
4, 24945, Note_on_c, 9, 51, 0
4, 24970, Note_on_c, 9, 51, 60
4, 25004, Note_on_c, 9, 51, 0
4, 25071, Note_on_c, 9, 36, 14
4, 25086, Note_on_c, 9, 51, 72
4, 25118, Note_on_c, 9, 51, 0
4, 25138, Note_on_c, 9, 36, 0
4, 25161, Note_on_c, 9, 36, 37
4, 25172, Note_on_c, 9, 36, 0
4, 25204, Note_on_c, 9, 36, 25
4, 25206, Note_on_c, 9, 51, 68
4, 25238, Note_on_c, 9, 51, 0
4, 25255, Note_on_c, 9, 36, 0
4, 25326, Note_on_c, 9, 51, 69
4, 25358, Note_on_c, 9, 51, 0
4, 25452, Note_on_c, 9, 51, 68
4, 25484, Note_on_c, 9, 51, 0
4, 25567, Note_on_c, 9, 51, 65
4, 25594, Note_on_c, 9, 51, 0
4, 25686, Note_on_c, 9, 51, 66
4, 25716, Note_on_c, 9, 51, 0
4, 25804, Note_on_c, 9, 51, 66
4, 25805, Note_on_c, 9, 37, 54
4, 25836, Note_on_c, 9, 51, 0
4, 25845, Note_on_c, 9, 37, 0
4, 25881, Note_on_c, 9, 51, 49
4, 25898, Note_on_c, 9, 51, 0
4, 25921, Note_on_c, 9, 51, 63
4, 25957, Note_on_c, 9, 51, 0
4, 26041, Note_on_c, 9, 51, 73
4, 26073, Note_on_c, 9, 51, 0
4, 26121, Note_on_c, 9, 38, 19
4, 26129, Note_on_c, 9, 38, 0
4, 26156, Note_on_c, 9, 51, 61
4, 26182, Note_on_c, 9, 51, 0
4, 26236, Note_on_c, 9, 36, 25
4, 26245, Note_on_c, 9, 36, 0
4, 26275, Note_on_c, 9, 37, 61
4, 26278, Note_on_c, 9, 51, 72
4, 26312, Note_on_c, 9, 51, 0
4, 26322, Note_on_c, 9, 37, 0
4, 26400, Note_on_c, 9, 51, 68
4, 26438, Note_on_c, 9, 51, 0
4, 26526, Note_on_c, 9, 51, 69
4, 26561, Note_on_c, 9, 51, 0
4, 26651, Note_on_c, 9, 51, 67
4, 26678, Note_on_c, 9, 51, 0
4, 26722, Note_on_c, 9, 36, 15
4, 26730, Note_on_c, 9, 36, 0
4, 26758, Note_on_c, 9, 37, 56
4, 26762, Note_on_c, 9, 51, 68
4, 26809, Note_on_c, 9, 51, 0
4, 26819, Note_on_c, 9, 37, 0
4, 26894, Note_on_c, 9, 51, 59
4, 26919, Note_on_c, 9, 51, 0
4, 27014, Note_on_c, 9, 51, 68
4, 27045, Note_on_c, 9, 51, 0
4, 27135, Note_on_c, 9, 51, 70
4, 27170, Note_on_c, 9, 51, 0
4, 27244, Note_on_c, 9, 37, 30
4, 27252, Note_on_c, 9, 37, 0
4, 27257, Note_on_c, 9, 51, 69
4, 27291, Note_on_c, 9, 51, 0
4, 27327, Note_on_c, 9, 36, 28
4, 27336, Note_on_c, 9, 36, 0
4, 27368, Note_on_c, 9, 57, 54
4, 27368, Note_on_c, 9, 36, 46
4, 27377, Note_on_c, 9, 51, 72
4, 27388, Note_on_c, 9, 57, 0
4, 27389, Note_on_c, 9, 36, 0
4, 27413, Note_on_c, 9, 51, 0
4, 27496, Note_on_c, 9, 51, 69
4, 27531, Note_on_c, 9, 51, 0
4, 27573, Note_on_c, 9, 51, 49
4, 27594, Note_on_c, 9, 51, 0
4, 27612, Note_on_c, 9, 51, 63
4, 27651, Note_on_c, 9, 51, 0
4, 27683, Note_on_c, 9, 38, 43
4, 27692, Note_on_c, 9, 38, 0
4, 27724, Note_on_c, 9, 57, 55
4, 27726, Note_on_c, 9, 51, 74
4, 27726, Note_on_c, 9, 36, 52
4, 27759, Note_on_c, 9, 51, 0
4, 27813, Note_on_c, 9, 51, 59
4, 27822, Note_on_c, 9, 57, 0
4, 27833, Note_on_c, 9, 51, 0
4, 27851, Note_on_c, 9, 51, 61
4, 27888, Note_on_c, 9, 51, 0
4, 27904, Note_on_c, 9, 36, 0
4, 27970, Note_on_c, 9, 51, 69
4, 28002, Note_on_c, 9, 51, 0
4, 28053, Note_on_c, 9, 51, 42
4, 28066, Note_on_c, 9, 51, 0
4, 28084, Note_on_c, 9, 51, 55
4, 28123, Note_on_c, 9, 51, 0
4, 28203, Note_on_c, 9, 51, 74
4, 28255, Note_on_c, 9, 51, 0
4, 28284, Note_on_c, 9, 36, 31
4, 28290, Note_on_c, 9, 51, 39
4, 28294, Note_on_c, 9, 36, 0
4, 28306, Note_on_c, 9, 51, 0
4, 28327, Note_on_c, 9, 36, 25
4, 28329, Note_on_c, 9, 51, 60
4, 28349, Note_on_c, 9, 36, 0
4, 28367, Note_on_c, 9, 51, 0
4, 28447, Note_on_c, 9, 51, 75
4, 28485, Note_on_c, 9, 51, 0
4, 28568, Note_on_c, 9, 51, 61
4, 28601, Note_on_c, 9, 51, 0
4, 28689, Note_on_c, 9, 51, 66
4, 28729, Note_on_c, 9, 51, 0
4, 28769, Note_on_c, 9, 51, 48
4, 28793, Note_on_c, 9, 51, 0
4, 28799, Note_on_c, 9, 38, 25
4, 28810, Note_on_c, 9, 38, 0
4, 28813, Note_on_c, 9, 51, 55
4, 28834, Note_on_c, 9, 38, 30
4, 28844, Note_on_c, 9, 38, 0
4, 28851, Note_on_c, 9, 51, 0
4, 28873, Note_on_c, 9, 36, 31
4, 28885, Note_on_c, 9, 36, 0
4, 28913, Note_on_c, 9, 38, 21
4, 28923, Note_on_c, 9, 51, 64
4, 28934, Note_on_c, 9, 38, 0
4, 28951, Note_on_c, 9, 38, 18
4, 28956, Note_on_c, 9, 51, 0
4, 28965, Note_on_c, 9, 38, 0
4, 29043, Note_on_c, 9, 51, 63
4, 29067, Note_on_c, 9, 51, 0
4, 29090, Note_on_c, 9, 38, 30
4, 29100, Note_on_c, 9, 38, 0
4, 29122, Note_on_c, 9, 38, 36
4, 29145, Note_on_c, 9, 38, 0
4, 29169, Note_on_c, 9, 51, 59
4, 29170, Note_on_c, 9, 38, 27
4, 29185, Note_on_c, 9, 38, 0
4, 29209, Note_on_c, 9, 38, 24
4, 29222, Note_on_c, 9, 51, 0
4, 29223, Note_on_c, 9, 38, 0
4, 29289, Note_on_c, 9, 51, 59
4, 29334, Note_on_c, 9, 38, 29
4, 29342, Note_on_c, 9, 51, 0
4, 29345, Note_on_c, 9, 38, 0
4, 29368, Note_on_c, 9, 38, 32
4, 29386, Note_on_c, 9, 38, 0
4, 29407, Note_on_c, 9, 51, 53
4, 29413, Note_on_c, 9, 38, 31
4, 29427, Note_on_c, 9, 38, 0
4, 29446, Note_on_c, 9, 38, 41
4, 29460, Note_on_c, 9, 51, 0
4, 29461, Note_on_c, 9, 38, 0
4, 29493, Note_on_c, 9, 36, 33
4, 29503, Note_on_c, 9, 36, 0
4, 29524, Note_on_c, 9, 51, 56
4, 29577, Note_on_c, 9, 51, 0
4, 29641, Note_on_c, 9, 51, 61
4, 29690, Note_on_c, 9, 51, 0
4, 29765, Note_on_c, 9, 51, 59
4, 29814, Note_on_c, 9, 51, 0
4, 29887, Note_on_c, 9, 51, 58
4, 29922, Note_on_c, 9, 51, 0
4, 29970, Note_on_c, 9, 51, 49
4, 29983, Note_on_c, 9, 51, 0
4, 30010, Note_on_c, 9, 51, 56
4, 30053, Note_on_c, 9, 51, 0
4, 30124, Note_on_c, 9, 51, 60
4, 30179, Note_on_c, 9, 51, 0
4, 30197, Note_on_c, 9, 38, 23
4, 30213, Note_on_c, 9, 38, 0
4, 30245, Note_on_c, 9, 51, 64
4, 30290, Note_on_c, 9, 51, 0
4, 30365, Note_on_c, 9, 51, 66
4, 30405, Note_on_c, 9, 51, 0
4, 30479, Note_on_c, 9, 51, 61
4, 30506, Note_on_c, 9, 51, 0
4, 30561, Note_on_c, 9, 51, 68
4, 30566, Note_on_c, 9, 38, 22
4, 30576, Note_on_c, 9, 38, 0
4, 30590, Note_on_c, 9, 51, 0
4, 30685, Note_on_c, 9, 38, 33
4, 30692, Note_on_c, 9, 51, 66
4, 30699, Note_on_c, 9, 38, 0
4, 30718, Note_on_c, 9, 51, 0
4, 30732, Note_on_c, 9, 51, 63
4, 30766, Note_on_c, 9, 51, 0
4, 30804, Note_on_c, 9, 38, 31
4, 30817, Note_on_c, 9, 38, 0
4, 30851, Note_on_c, 9, 51, 64
4, 30882, Note_on_c, 9, 51, 0
4, 30921, Note_on_c, 9, 38, 33
4, 30922, Note_on_c, 9, 51, 66
4, 30931, Note_on_c, 9, 38, 0
4, 30955, Note_on_c, 9, 51, 0
4, 30967, Note_on_c, 9, 50, 60
4, 30989, Note_on_c, 9, 50, 0
4, 31041, Note_on_c, 9, 50, 62
4, 31043, Note_on_c, 9, 51, 57
4, 31051, Note_on_c, 9, 49, 23
4, 31058, Note_on_c, 9, 49, 0
4, 31062, Note_on_c, 9, 51, 0
4, 31070, Note_on_c, 9, 50, 0
4, 31084, Note_on_c, 9, 50, 52
4, 31091, Note_on_c, 9, 51, 49
4, 31092, Note_on_c, 9, 53, 59
4, 31129, Note_on_c, 9, 47, 34
4, 31129, Note_on_c, 9, 45, 44
4, 31137, Note_on_c, 9, 47, 0
4, 31138, Note_on_c, 9, 45, 0
4, 31139, Note_on_c, 9, 50, 0
4, 31148, Note_on_c, 9, 51, 0
4, 31155, Note_on_c, 9, 53, 0
4, 31163, Note_on_c, 9, 38, 48
4, 31183, Note_on_c, 9, 38, 0
4, 31208, Note_on_c, 9, 36, 57
4, 31209, Note_on_c, 9, 38, 29
4, 31214, Note_on_c, 9, 51, 55
4, 31240, Note_on_c, 9, 51, 0
4, 31240, Note_on_c, 9, 36, 0
4, 31257, Note_on_c, 9, 38, 0
4, 31284, Note_on_c, 9, 51, 70
4, 31326, Note_on_c, 9, 51, 0
4, 31402, Note_on_c, 9, 51, 62
4, 31423, Note_on_c, 9, 51, 0
4, 31452, Note_on_c, 9, 51, 69
4, 31499, Note_on_c, 9, 51, 0
4, 31572, Note_on_c, 9, 51, 73
4, 31611, Note_on_c, 9, 51, 0
4, 31682, Note_on_c, 9, 51, 59
4, 31715, Note_on_c, 9, 51, 0
4, 31803, Note_on_c, 9, 51, 66
4, 31833, Note_on_c, 9, 51, 0
4, 31922, Note_on_c, 9, 51, 65
4, 31954, Note_on_c, 9, 51, 0
4, 31970, Note_on_c, 9, 38, 19
4, 31979, Note_on_c, 9, 38, 0
4, 32003, Note_on_c, 9, 38, 20
4, 32022, Note_on_c, 9, 38, 0
4, 32043, Note_on_c, 9, 51, 64
4, 32067, Note_on_c, 9, 51, 0
4, 32165, Note_on_c, 9, 51, 75
4, 32193, Note_on_c, 9, 38, 20
4, 32201, Note_on_c, 9, 51, 0
4, 32213, Note_on_c, 9, 38, 0
4, 32236, Note_on_c, 9, 38, 21
4, 32259, Note_on_c, 9, 38, 0
4, 32281, Note_on_c, 9, 51, 45
4, 32289, Note_on_c, 9, 38, 27
4, 32309, Note_on_c, 9, 51, 0
4, 32313, Note_on_c, 9, 38, 0
4, 32357, Note_on_c, 9, 38, 48
4, 32363, Note_on_c, 9, 51, 49
4, 32383, Note_on_c, 9, 38, 0
4, 32385, Note_on_c, 9, 51, 0
4, 32407, Note_on_c, 9, 51, 64
4, 32407, Note_on_c, 9, 38, 19
4, 32420, Note_on_c, 9, 38, 0
4, 32445, Note_on_c, 9, 51, 0
4, 32465, Note_on_c, 9, 38, 51
4, 32519, Note_on_c, 9, 38, 0
4, 32534, Note_on_c, 9, 51, 67
4, 32557, Note_on_c, 9, 38, 40
4, 32569, Note_on_c, 9, 51, 0
4, 32605, Note_on_c, 9, 38, 0
4, 32616, Note_on_c, 9, 51, 48
4, 32634, Note_on_c, 9, 37, 40
4, 32636, Note_on_c, 9, 51, 0
4, 32654, Note_on_c, 9, 51, 46
4, 32688, Note_on_c, 9, 51, 0
4, 32689, Note_on_c, 9, 37, 0
4, 32713, Note_on_c, 9, 38, 49
4, 32715, Note_on_c, 9, 37, 32
4, 32733, Note_on_c, 9, 37, 0
4, 32751, Note_on_c, 9, 38, 0
4, 32767, Note_on_c, 9, 51, 66
4, 32795, Note_on_c, 9, 36, 42
4, 32801, Note_on_c, 9, 37, 38
4, 32808, Note_on_c, 9, 51, 0
4, 32830, Note_on_c, 9, 37, 0
4, 32839, Note_on_c, 9, 36, 0
4, 32847, Note_on_c, 9, 51, 40
4, 32863, Note_on_c, 9, 51, 0
4, 32890, Note_on_c, 9, 51, 53
4, 32925, Note_on_c, 9, 51, 0
4, 33010, Note_on_c, 9, 51, 64
4, 33052, Note_on_c, 9, 51, 0
4, 33093, Note_on_c, 9, 51, 41
4, 33115, Note_on_c, 9, 51, 0
4, 33134, Note_on_c, 9, 51, 51
4, 33171, Note_on_c, 9, 51, 0
4, 33255, Note_on_c, 9, 51, 66
4, 33293, Note_on_c, 9, 51, 0
4, 33335, Note_on_c, 9, 51, 47
4, 33361, Note_on_c, 9, 51, 0
4, 33384, Note_on_c, 9, 51, 55
4, 33429, Note_on_c, 9, 51, 0
4, 33497, Note_on_c, 9, 51, 61
4, 33540, Note_on_c, 9, 51, 0
4, 33607, Note_on_c, 9, 51, 56
4, 33650, Note_on_c, 9, 51, 0
4, 33720, Note_on_c, 9, 44, 47
4, 33729, Note_on_c, 9, 51, 64
4, 33732, Note_on_c, 9, 53, 59
4, 33764, Note_on_c, 9, 44, 0
4, 33784, Note_on_c, 9, 51, 0
4, 33794, Note_on_c, 9, 53, 0
4, 33856, Note_on_c, 9, 51, 36
4, 33875, Note_on_c, 9, 51, 0
4, 33927, Note_on_c, 9, 38, 14
4, 33937, Note_on_c, 9, 38, 0
4, 33956, Note_on_c, 9, 44, 50
4, 33978, Note_on_c, 9, 51, 68
4, 33980, Note_on_c, 9, 53, 65
4, 34016, Note_on_c, 9, 44, 0
4, 34039, Note_on_c, 9, 51, 0
4, 34040, Note_on_c, 9, 53, 0
4, 34094, Note_on_c, 9, 51, 56
4, 34134, Note_on_c, 9, 51, 0
4, 34200, Note_on_c, 9, 44, 52
4, 34215, Note_on_c, 9, 51, 66
4, 34260, Note_on_c, 9, 51, 0
4, 34261, Note_on_c, 9, 44, 0
4, 34336, Note_on_c, 9, 51, 49
4, 34376, Note_on_c, 9, 51, 0
4, 34438, Note_on_c, 9, 44, 48
4, 34447, Note_on_c, 9, 51, 67
4, 34484, Note_on_c, 9, 44, 0
4, 34493, Note_on_c, 9, 51, 0
4, 34527, Note_on_c, 9, 51, 38
4, 34551, Note_on_c, 9, 51, 0
4, 34566, Note_on_c, 9, 51, 42
4, 34605, Note_on_c, 9, 51, 0
4, 34681, Note_on_c, 9, 44, 40
4, 34687, Note_on_c, 9, 51, 70
4, 34722, Note_on_c, 9, 51, 0
4, 34722, Note_on_c, 9, 44, 0
4, 34764, Note_on_c, 9, 38, 27
4, 34775, Note_on_c, 9, 38, 0
4, 34809, Note_on_c, 9, 51, 66
4, 34840, Note_on_c, 9, 38, 33
4, 34849, Note_on_c, 9, 51, 0
4, 34861, Note_on_c, 9, 38, 0
4, 34929, Note_on_c, 9, 51, 68
4, 34932, Note_on_c, 9, 38, 25
4, 34946, Note_on_c, 9, 38, 0
4, 34969, Note_on_c, 9, 51, 0
4, 35004, Note_on_c, 9, 38, 39
4, 35020, Note_on_c, 9, 38, 0
4, 35053, Note_on_c, 9, 51, 74
4, 35057, Note_on_c, 9, 53, 70
4, 35095, Note_on_c, 9, 51, 0
4, 35103, Note_on_c, 9, 53, 0
4, 35167, Note_on_c, 9, 44, 49
4, 35175, Note_on_c, 9, 51, 41
4, 35200, Note_on_c, 9, 44, 0
4, 35205, Note_on_c, 9, 51, 0
4, 35285, Note_on_c, 9, 51, 52
4, 35318, Note_on_c, 9, 51, 0
4, 35399, Note_on_c, 9, 44, 44
4, 35402, Note_on_c, 9, 59, 69
4, 35428, Note_on_c, 9, 44, 0
4, 35470, Note_on_c, 9, 59, 0
4, 35643, Note_on_c, 9, 59, 82
4, 35645, Note_on_c, 9, 44, 49
4, 35675, Note_on_c, 9, 44, 0
4, 35729, Note_on_c, 9, 59, 0
4, 35767, Note_on_c, 9, 59, 36
4, 35815, Note_on_c, 9, 59, 0
4, 35880, Note_on_c, 9, 44, 50
4, 35883, Note_on_c, 9, 59, 76
4, 35915, Note_on_c, 9, 44, 0
4, 35943, Note_on_c, 9, 59, 0
4, 35968, Note_on_c, 9, 59, 57
4, 35984, Note_on_c, 9, 59, 0
4, 36011, Note_on_c, 9, 59, 68
4, 36055, Note_on_c, 9, 59, 0
4, 36123, Note_on_c, 9, 59, 86
4, 36129, Note_on_c, 9, 44, 45
4, 36155, Note_on_c, 9, 44, 0
4, 36210, Note_on_c, 9, 59, 0
4, 36250, Note_on_c, 9, 59, 46
4, 36279, Note_on_c, 9, 59, 0
4, 36327, Note_on_c, 9, 59, 60
4, 36355, Note_on_c, 9, 59, 0
4, 36373, Note_on_c, 9, 44, 48
4, 36375, Note_on_c, 9, 59, 65
4, 36404, Note_on_c, 9, 44, 0
4, 36420, Note_on_c, 9, 59, 0
4, 36487, Note_on_c, 9, 59, 80
4, 36554, Note_on_c, 9, 59, 0
4, 36600, Note_on_c, 9, 59, 49
4, 36632, Note_on_c, 9, 59, 0
4, 36729, Note_on_c, 9, 59, 64
4, 36733, Note_on_c, 9, 57, 64
4, 36746, Note_on_c, 9, 57, 0
4, 36777, Note_on_c, 9, 59, 0
4, 36846, Note_on_c, 9, 59, 44
4, 36846, Note_on_c, 9, 44, 46
4, 36865, Note_on_c, 9, 44, 0
4, 36883, Note_on_c, 9, 59, 0
4, 36918, Note_on_c, 9, 59, 67
4, 36999, Note_on_c, 9, 59, 0
4, 37040, Note_on_c, 9, 59, 50
4, 37066, Note_on_c, 9, 59, 0
4, 37089, Note_on_c, 9, 59, 72
4, 37156, Note_on_c, 9, 59, 0
4, 37213, Note_on_c, 9, 59, 59
4, 37240, Note_on_c, 9, 59, 0
4, 37291, Note_on_c, 9, 38, 46
4, 37319, Note_on_c, 9, 38, 0
4, 37333, Note_on_c, 9, 59, 79
4, 37341, Note_on_c, 9, 38, 24
4, 37375, Note_on_c, 9, 59, 0
4, 37395, Note_on_c, 9, 38, 0
4, 37413, Note_on_c, 9, 36, 29
4, 37414, Note_on_c, 9, 59, 43
4, 37423, Note_on_c, 9, 36, 0
4, 37431, Note_on_c, 9, 59, 0
4, 37455, Note_on_c, 9, 59, 63
4, 37465, Note_on_c, 9, 38, 23
4, 37476, Note_on_c, 9, 38, 0
4, 37495, Note_on_c, 9, 59, 0
4, 37563, Note_on_c, 9, 59, 72
4, 37606, Note_on_c, 9, 59, 0
4, 37647, Note_on_c, 9, 59, 38
4, 37653, Note_on_c, 9, 38, 42
4, 37662, Note_on_c, 9, 59, 0
4, 37676, Note_on_c, 9, 38, 0
4, 37686, Note_on_c, 9, 59, 67
4, 37706, Note_on_c, 9, 38, 30
4, 37729, Note_on_c, 9, 59, 0
4, 37731, Note_on_c, 9, 38, 0
4, 37770, Note_on_c, 9, 36, 44
4, 37797, Note_on_c, 9, 36, 0
4, 37805, Note_on_c, 9, 59, 76
4, 37857, Note_on_c, 9, 59, 0
4, 37887, Note_on_c, 9, 59, 49
4, 37916, Note_on_c, 9, 59, 0
4, 37929, Note_on_c, 9, 59, 47
4, 37969, Note_on_c, 9, 59, 0
4, 38046, Note_on_c, 9, 59, 76
4, 38105, Note_on_c, 9, 59, 0
4, 38121, Note_on_c, 9, 38, 42
4, 38134, Note_on_c, 9, 59, 52
4, 38137, Note_on_c, 9, 38, 0
4, 38151, Note_on_c, 9, 59, 0
4, 38173, Note_on_c, 9, 59, 52
4, 38218, Note_on_c, 9, 59, 0
4, 38240, Note_on_c, 9, 38, 58
4, 38270, Note_on_c, 9, 38, 0
4, 38282, Note_on_c, 9, 59, 72
4, 38327, Note_on_c, 9, 59, 0
4, 38362, Note_on_c, 9, 37, 34
4, 38370, Note_on_c, 9, 36, 21
4, 38378, Note_on_c, 9, 37, 0
4, 38380, Note_on_c, 9, 36, 0
4, 38404, Note_on_c, 9, 59, 73
4, 38404, Note_on_c, 9, 36, 44
4, 38405, Note_on_c, 9, 38, 50
4, 38406, Note_on_c, 9, 57, 55
4, 38411, Note_on_c, 9, 37, 30
4, 38418, Note_on_c, 9, 37, 0
4, 38449, Note_on_c, 9, 59, 0
4, 38482, Note_on_c, 9, 59, 59
4, 38511, Note_on_c, 9, 59, 0
4, 38532, Note_on_c, 9, 59, 64
4, 38559, Note_on_c, 9, 36, 0
4, 38565, Note_on_c, 9, 59, 0
4, 38568, Note_on_c, 9, 57, 0
4, 38573, Note_on_c, 9, 38, 0
4, 38613, Note_on_c, 9, 59, 76
4, 38704, Note_on_c, 9, 59, 0
4, 38720, Note_on_c, 9, 37, 36
4, 38731, Note_on_c, 9, 59, 54
4, 38735, Note_on_c, 9, 37, 0
4, 38747, Note_on_c, 9, 59, 0
4, 38775, Note_on_c, 9, 59, 67
4, 38839, Note_on_c, 9, 59, 0
4, 38845, Note_on_c, 9, 38, 31
4, 38853, Note_on_c, 9, 38, 0
4, 38884, Note_on_c, 9, 38, 44
4, 38886, Note_on_c, 9, 57, 46
4, 38894, Note_on_c, 9, 59, 64
4, 38894, Note_on_c, 9, 36, 39
4, 38914, Note_on_c, 9, 36, 0
4, 38917, Note_on_c, 9, 57, 0
4, 38946, Note_on_c, 9, 38, 0
4, 38948, Note_on_c, 9, 59, 0
4, 39004, Note_on_c, 9, 59, 65
4, 39052, Note_on_c, 9, 59, 0
4, 39142, Note_on_c, 9, 59, 72
4, 39183, Note_on_c, 9, 59, 0
4, 39204, Note_on_c, 9, 38, 19
4, 39215, Note_on_c, 9, 38, 0
4, 39247, Note_on_c, 9, 59, 64
4, 39253, Note_on_c, 9, 38, 23
4, 39286, Note_on_c, 9, 38, 0
4, 39292, Note_on_c, 9, 59, 0
4, 39326, Note_on_c, 9, 38, 30
4, 39333, Note_on_c, 9, 59, 44
4, 39336, Note_on_c, 9, 38, 0
4, 39352, Note_on_c, 9, 59, 0
4, 39374, Note_on_c, 9, 59, 64
4, 39420, Note_on_c, 9, 59, 0
4, 39491, Note_on_c, 9, 59, 73
4, 39542, Note_on_c, 9, 59, 0
4, 39573, Note_on_c, 9, 59, 49
4, 39597, Note_on_c, 9, 59, 0
4, 39613, Note_on_c, 9, 59, 52
4, 39648, Note_on_c, 9, 59, 0
4, 39728, Note_on_c, 9, 59, 79
4, 39778, Note_on_c, 9, 59, 0
4, 39813, Note_on_c, 9, 59, 48
4, 39833, Note_on_c, 9, 59, 0
4, 39849, Note_on_c, 9, 59, 50
4, 39888, Note_on_c, 9, 59, 0
4, 39968, Note_on_c, 9, 38, 25
4, 39969, Note_on_c, 9, 59, 75
4, 39979, Note_on_c, 9, 38, 0
4, 40005, Note_on_c, 9, 59, 0
4, 40005, Note_on_c, 9, 38, 19
4, 40025, Note_on_c, 9, 38, 0
4, 40045, Note_on_c, 9, 38, 44
4, 40081, Note_on_c, 9, 38, 0
4, 40093, Note_on_c, 9, 59, 72
4, 40127, Note_on_c, 9, 59, 0
4, 40211, Note_on_c, 9, 59, 73
4, 40261, Note_on_c, 9, 59, 0
4, 40299, Note_on_c, 9, 59, 51
4, 40320, Note_on_c, 9, 59, 0
4, 40332, Note_on_c, 9, 59, 36
4, 40375, Note_on_c, 9, 38, 37
4, 40377, Note_on_c, 9, 59, 0
4, 40388, Note_on_c, 9, 38, 0
4, 40413, Note_on_c, 9, 38, 29
4, 40433, Note_on_c, 9, 38, 0
4, 40442, Note_on_c, 9, 59, 71
4, 40452, Note_on_c, 9, 38, 33
4, 40461, Note_on_c, 9, 38, 0
4, 40483, Note_on_c, 9, 59, 0
4, 40487, Note_on_c, 9, 38, 21
4, 40500, Note_on_c, 9, 38, 0
4, 40558, Note_on_c, 9, 38, 20
4, 40570, Note_on_c, 9, 59, 65
4, 40581, Note_on_c, 9, 38, 0
4, 40611, Note_on_c, 9, 59, 0
4, 40638, Note_on_c, 9, 38, 44
4, 40658, Note_on_c, 9, 59, 35
4, 40674, Note_on_c, 9, 59, 0
4, 40684, Note_on_c, 9, 38, 0
4, 40688, Note_on_c, 9, 59, 59
4, 40710, Note_on_c, 9, 38, 17
4, 40730, Note_on_c, 9, 38, 0
4, 40743, Note_on_c, 9, 59, 0
4, 40750, Note_on_c, 9, 38, 23
4, 40759, Note_on_c, 9, 38, 0
4, 40768, Note_on_c, 9, 59, 73
4, 40787, Note_on_c, 9, 38, 57
4, 40825, Note_on_c, 9, 38, 0
4, 40866, Note_on_c, 9, 38, 20
4, 40868, Note_on_c, 9, 59, 0
4, 40875, Note_on_c, 9, 38, 0
4, 40893, Note_on_c, 9, 59, 48
4, 40910, Note_on_c, 9, 59, 0
4, 40931, Note_on_c, 9, 59, 64
4, 40989, Note_on_c, 9, 59, 0
4, 41018, Note_on_c, 9, 38, 23
4, 41028, Note_on_c, 9, 38, 0
4, 41051, Note_on_c, 9, 59, 72
4, 41080, Note_on_c, 9, 38, 29
4, 41106, Note_on_c, 9, 59, 0
4, 41110, Note_on_c, 9, 38, 0
4, 41119, Note_on_c, 9, 37, 35
4, 41155, Note_on_c, 9, 37, 0
4, 41164, Note_on_c, 9, 38, 41
4, 41169, Note_on_c, 9, 59, 69
4, 41186, Note_on_c, 9, 38, 0
4, 41207, Note_on_c, 9, 37, 27
4, 41218, Note_on_c, 9, 59, 0
4, 41227, Note_on_c, 9, 37, 0
4, 41248, Note_on_c, 9, 59, 46
4, 41270, Note_on_c, 9, 59, 0
4, 41282, Note_on_c, 9, 59, 43
4, 41333, Note_on_c, 9, 59, 0
4, 41361, Note_on_c, 9, 38, 25
4, 41374, Note_on_c, 9, 38, 0
4, 41400, Note_on_c, 9, 59, 72
4, 41407, Note_on_c, 9, 38, 17
4, 41418, Note_on_c, 9, 38, 0
4, 41453, Note_on_c, 9, 59, 0
4, 41476, Note_on_c, 9, 38, 29
4, 41490, Note_on_c, 9, 38, 0
4, 41525, Note_on_c, 9, 59, 70
4, 41576, Note_on_c, 9, 59, 0
4, 41595, Note_on_c, 9, 38, 29
4, 41605, Note_on_c, 9, 38, 0
4, 41652, Note_on_c, 9, 59, 72
4, 41699, Note_on_c, 9, 59, 0
4, 41716, Note_on_c, 9, 38, 36
4, 41736, Note_on_c, 9, 38, 0
4, 41760, Note_on_c, 9, 59, 53
4, 41767, Note_on_c, 9, 38, 16
4, 41782, Note_on_c, 9, 38, 0
4, 41796, Note_on_c, 9, 59, 0
4, 41888, Note_on_c, 9, 59, 71
4, 41928, Note_on_c, 9, 59, 0
4, 41964, Note_on_c, 9, 38, 21
4, 41972, Note_on_c, 9, 59, 44
4, 41981, Note_on_c, 9, 38, 0
4, 41990, Note_on_c, 9, 59, 0
4, 42006, Note_on_c, 9, 38, 26
4, 42012, Note_on_c, 9, 59, 64
4, 42052, Note_on_c, 9, 59, 0
4, 42071, Note_on_c, 9, 38, 0
4, 42087, Note_on_c, 9, 38, 27
4, 42100, Note_on_c, 9, 38, 0
4, 42129, Note_on_c, 9, 59, 72
4, 42169, Note_on_c, 9, 59, 0
4, 42210, Note_on_c, 9, 59, 44
4, 42283, Note_on_c, 9, 59, 0
4, 42366, Note_on_c, 9, 59, 72
4, 42398, Note_on_c, 9, 59, 0
4, 42481, Note_on_c, 9, 59, 69
4, 42489, Note_on_c, 9, 38, 36
4, 42511, Note_on_c, 9, 38, 0
4, 42513, Note_on_c, 9, 59, 0
4, 42567, Note_on_c, 9, 36, 28
4, 42578, Note_on_c, 9, 36, 0
4, 42603, Note_on_c, 9, 59, 64
4, 42610, Note_on_c, 9, 36, 28
4, 42626, Note_on_c, 9, 36, 0
4, 42632, Note_on_c, 9, 59, 0
4, 42685, Note_on_c, 9, 37, 19
4, 42695, Note_on_c, 9, 59, 38
4, 42710, Note_on_c, 9, 59, 0
4, 42721, Note_on_c, 9, 37, 0
4, 42728, Note_on_c, 9, 59, 68
4, 42799, Note_on_c, 9, 59, 0
4, 42805, Note_on_c, 9, 59, 44
4, 42826, Note_on_c, 9, 59, 0
4, 42923, Note_on_c, 9, 59, 36
4, 42941, Note_on_c, 9, 59, 0
4, 42963, Note_on_c, 9, 36, 42
4, 42966, Note_on_c, 9, 59, 56
4, 43018, Note_on_c, 9, 36, 0
4, 43043, Note_on_c, 9, 59, 0
4, 43155, Note_on_c, 9, 59, 40
4, 43165, Note_on_c, 9, 59, 0
4, 43168, Note_on_c, 9, 36, 20
4, 43191, Note_on_c, 9, 36, 0
4, 43198, Note_on_c, 9, 59, 49
4, 43256, Note_on_c, 9, 59, 0
4, 43279, Note_on_c, 9, 59, 55
4, 43280, Note_on_c, 9, 38, 31
4, 43294, Note_on_c, 9, 59, 0
4, 43303, Note_on_c, 9, 38, 0
4, 43326, Note_on_c, 9, 38, 23
4, 43359, Note_on_c, 9, 38, 0
4, 43409, Note_on_c, 9, 36, 25
4, 43427, Note_on_c, 9, 36, 0
4, 43447, Note_on_c, 9, 59, 82
4, 43456, Note_on_c, 9, 36, 26
4, 43472, Note_on_c, 9, 59, 0
4, 43483, Note_on_c, 9, 36, 0
4, 43637, Note_on_c, 9, 59, 36
4, 43660, Note_on_c, 9, 59, 0
4, 43680, Note_on_c, 9, 36, 25
4, 43686, Note_on_c, 9, 59, 32
4, 43696, Note_on_c, 9, 36, 0
4, 43720, Note_on_c, 9, 59, 0
4, 43798, Note_on_c, 9, 44, 44
4, 43825, Note_on_c, 9, 44, 0
4, 43884, Note_on_c, 9, 59, 25
4, 43900, Note_on_c, 9, 59, 0
4, 43931, Note_on_c, 9, 59, 34
4, 43965, Note_on_c, 9, 59, 0
4, 44042, Note_on_c, 9, 44, 41
4, 44058, Note_on_c, 9, 44, 0
4, 44164, Note_on_c, 9, 59, 60
4, 44225, Note_on_c, 9, 59, 0
4, 44281, Note_on_c, 9, 59, 68
4, 44343, Note_on_c, 9, 59, 0
4, 44353, Note_on_c, 9, 44, 37
4, 44361, Note_on_c, 9, 59, 76
4, 44370, Note_on_c, 9, 44, 0
4, 44406, Note_on_c, 9, 59, 0
4, 44473, Note_on_c, 9, 38, 52
4, 44491, Note_on_c, 9, 59, 14
4, 44504, Note_on_c, 9, 59, 0
4, 44504, Note_on_c, 9, 38, 0
4, 44520, Note_on_c, 9, 38, 25
4, 44536, Note_on_c, 9, 59, 27
4, 44557, Note_on_c, 9, 38, 0
4, 44560, Note_on_c, 9, 59, 0
4, 44602, Note_on_c, 9, 36, 40
4, 44610, Note_on_c, 9, 59, 30
4, 44625, Note_on_c, 9, 36, 0
4, 44626, Note_on_c, 9, 59, 0
4, 44647, Note_on_c, 9, 36, 46
4, 44720, Note_on_c, 9, 36, 0
4, 44837, Note_on_c, 9, 59, 24
4, 44849, Note_on_c, 9, 59, 0
4, 44891, Note_on_c, 9, 59, 25
4, 44905, Note_on_c, 9, 59, 0
4, 44961, Note_on_c, 9, 51, 38
4, 44961, Note_on_c, 9, 44, 24
4, 44962, Note_on_c, 9, 53, 38
4, 44975, Note_on_c, 9, 44, 0
4, 44979, Note_on_c, 9, 53, 0
4, 44980, Note_on_c, 9, 51, 0
4, 45005, Note_on_c, 9, 44, 21
4, 45020, Note_on_c, 9, 44, 0
4, 45073, Note_on_c, 9, 51, 24
4, 45085, Note_on_c, 9, 51, 0
4, 45086, Note_on_c, 9, 44, 44
4, 45100, Note_on_c, 9, 44, 0
4, 45125, Note_on_c, 9, 51, 27
4, 45126, Note_on_c, 9, 59, 47
4, 45126, Note_on_c, 9, 53, 36
4, 45146, Note_on_c, 9, 59, 0
4, 45161, Note_on_c, 9, 53, 0
4, 45161, Note_on_c, 9, 51, 0
4, 45196, Note_on_c, 9, 44, 45
4, 45211, Note_on_c, 9, 44, 0
4, 45251, Note_on_c, 9, 59, 25
4, 45265, Note_on_c, 9, 59, 0
4, 45317, Note_on_c, 9, 59, 57
4, 45319, Note_on_c, 9, 44, 51
4, 45334, Note_on_c, 9, 44, 0
4, 45338, Note_on_c, 9, 59, 0
4, 45440, Note_on_c, 9, 44, 50
4, 45457, Note_on_c, 9, 44, 0
4, 45557, Note_on_c, 9, 38, 51
4, 45577, Note_on_c, 9, 38, 0
4, 45607, Note_on_c, 9, 36, 32
4, 45643, Note_on_c, 9, 36, 0
4, 45681, Note_on_c, 9, 44, 36
4, 45684, Note_on_c, 9, 59, 35
4, 45695, Note_on_c, 9, 59, 0
4, 45697, Note_on_c, 9, 44, 0
4, 45727, Note_on_c, 9, 59, 26
4, 45755, Note_on_c, 9, 59, 0
4, 45803, Note_on_c, 9, 59, 30
4, 45814, Note_on_c, 9, 59, 0
4, 45839, Note_on_c, 9, 59, 56
4, 45899, Note_on_c, 9, 59, 0
4, 45919, Note_on_c, 9, 59, 39
4, 45938, Note_on_c, 9, 59, 0
4, 45961, Note_on_c, 9, 59, 38
4, 45969, Note_on_c, 9, 59, 0
4, 46034, Note_on_c, 9, 59, 75
4, 46035, Note_on_c, 9, 38, 23
4, 46055, Note_on_c, 9, 38, 0
4, 46084, Note_on_c, 9, 38, 25
4, 46124, Note_on_c, 9, 59, 0
4, 46144, Note_on_c, 9, 38, 0
4, 46152, Note_on_c, 9, 59, 40
4, 46167, Note_on_c, 9, 36, 26
4, 46170, Note_on_c, 9, 59, 0
4, 46182, Note_on_c, 9, 36, 0
4, 46201, Note_on_c, 9, 59, 24
4, 46232, Note_on_c, 9, 59, 0
4, 46275, Note_on_c, 9, 38, 52
4, 46277, Note_on_c, 9, 59, 50
4, 46296, Note_on_c, 9, 38, 0
4, 46316, Note_on_c, 9, 59, 0
4, 46324, Note_on_c, 9, 38, 28
4, 46379, Note_on_c, 9, 38, 0
4, 46393, Note_on_c, 9, 51, 40
4, 46394, Note_on_c, 9, 53, 43
4, 46398, Note_on_c, 9, 36, 48
4, 46405, Note_on_c, 9, 53, 0
4, 46412, Note_on_c, 9, 51, 0
4, 46423, Note_on_c, 9, 36, 0
4, 46518, Note_on_c, 9, 51, 45
4, 46518, Note_on_c, 9, 38, 54
4, 46519, Note_on_c, 9, 57, 53
4, 46519, Note_on_c, 9, 53, 49
4, 46519, Note_on_c, 9, 59, 49
4, 46526, Note_on_c, 9, 51, 0
4, 46527, Note_on_c, 9, 53, 0
4, 46527, Note_on_c, 9, 57, 0
4, 46528, Note_on_c, 9, 59, 0
4, 46531, Note_on_c, 9, 38, 0
4, 46568, Note_on_c, 9, 38, 53
4, 46589, Note_on_c, 9, 38, 0
4, 46774, Note_on_c, 9, 38, 16
4, 46783, Note_on_c, 9, 38, 0
4, 46887, Note_on_c, 9, 59, 25
4, 46897, Note_on_c, 9, 59, 0
4, 46998, Note_on_c, 9, 59, 67
4, 47002, Note_on_c, 9, 36, 29
4, 47012, Note_on_c, 9, 36, 0
4, 47028, Note_on_c, 9, 59, 0
4, 47047, Note_on_c, 9, 36, 19
4, 47057, Note_on_c, 9, 36, 0
4, 47076, Note_on_c, 9, 36, 46
4, 47106, Note_on_c, 9, 36, 0
4, 47171, Note_on_c, 9, 36, 53
4, 47210, Note_on_c, 9, 36, 0
4, 47244, Note_on_c, 9, 59, 53
4, 47252, Note_on_c, 9, 59, 0
4, 47287, Note_on_c, 9, 59, 67
4, 47307, Note_on_c, 9, 59, 0
4, 47359, Note_on_c, 9, 59, 72
4, 47368, Note_on_c, 9, 38, 20
4, 47378, Note_on_c, 9, 38, 0
4, 47406, Note_on_c, 9, 59, 0
4, 47478, Note_on_c, 9, 38, 52
4, 47482, Note_on_c, 9, 59, 66
4, 47499, Note_on_c, 9, 38, 0
4, 47503, Note_on_c, 9, 59, 0
4, 47522, Note_on_c, 9, 59, 54
4, 47522, Note_on_c, 9, 38, 34
4, 47574, Note_on_c, 9, 38, 0
4, 47595, Note_on_c, 9, 36, 33
4, 47619, Note_on_c, 9, 59, 0
4, 47620, Note_on_c, 9, 36, 0
4, 47638, Note_on_c, 9, 36, 24
4, 47693, Note_on_c, 9, 36, 0
4, 47715, Note_on_c, 9, 36, 46
4, 47718, Note_on_c, 9, 59, 54
4, 47736, Note_on_c, 9, 59, 0
4, 47747, Note_on_c, 9, 36, 0
4, 47761, Note_on_c, 9, 59, 56
4, 47850, Note_on_c, 9, 59, 0
4, 47959, Note_on_c, 9, 59, 66
4, 48041, Note_on_c, 9, 59, 0
4, 48078, Note_on_c, 9, 38, 32
4, 48091, Note_on_c, 9, 38, 0
4, 48127, Note_on_c, 9, 50, 44
4, 48139, Note_on_c, 9, 50, 0
4, 48200, Note_on_c, 9, 50, 72
4, 48203, Note_on_c, 9, 59, 48
4, 48230, Note_on_c, 9, 59, 0
4, 48232, Note_on_c, 9, 50, 0
4, 48262, Note_on_c, 9, 45, 24
4, 48270, Note_on_c, 9, 45, 0
4, 48320, Note_on_c, 9, 45, 72
4, 48321, Note_on_c, 9, 51, 48
4, 48324, Note_on_c, 9, 53, 46
4, 48335, Note_on_c, 9, 53, 0
4, 48340, Note_on_c, 9, 45, 0
4, 48342, Note_on_c, 9, 51, 0
4, 48378, Note_on_c, 9, 38, 19
4, 48386, Note_on_c, 9, 38, 0
4, 48438, Note_on_c, 9, 51, 64
4, 48438, Note_on_c, 9, 38, 56
4, 48439, Note_on_c, 9, 53, 64
4, 48461, Note_on_c, 9, 38, 0
4, 48468, Note_on_c, 9, 53, 0
4, 48471, Note_on_c, 9, 51, 0
4, 48487, Note_on_c, 9, 38, 26
4, 48533, Note_on_c, 9, 38, 0
4, 48561, Note_on_c, 9, 59, 38
4, 48574, Note_on_c, 9, 59, 0
4, 48615, Note_on_c, 9, 59, 26
4, 48638, Note_on_c, 9, 59, 0
4, 48678, Note_on_c, 9, 59, 72
4, 48682, Note_on_c, 9, 36, 44
4, 48703, Note_on_c, 9, 36, 0
4, 48758, Note_on_c, 9, 59, 0
4, 48802, Note_on_c, 9, 59, 42
4, 48816, Note_on_c, 9, 59, 0
4, 48846, Note_on_c, 9, 59, 26
4, 48860, Note_on_c, 9, 59, 0
4, 48922, Note_on_c, 9, 59, 37
4, 48931, Note_on_c, 9, 59, 0
4, 48970, Note_on_c, 9, 59, 38
4, 48979, Note_on_c, 9, 59, 0
4, 49035, Note_on_c, 9, 59, 71
4, 49052, Note_on_c, 9, 59, 0
4, 49077, Note_on_c, 9, 59, 75
4, 49113, Note_on_c, 9, 59, 0
4, 49152, Note_on_c, 9, 59, 86
4, 49203, Note_on_c, 9, 59, 0
4, 49276, Note_on_c, 9, 38, 32
4, 49286, Note_on_c, 9, 38, 0
4, 49404, Note_on_c, 9, 59, 40
4, 49429, Note_on_c, 9, 59, 0
4, 49435, Note_on_c, 9, 38, 28
4, 49452, Note_on_c, 9, 59, 37
4, 49454, Note_on_c, 9, 38, 0
4, 49476, Note_on_c, 9, 59, 0
4, 49476, Note_on_c, 9, 38, 42
4, 49487, Note_on_c, 9, 38, 0
4, 49519, Note_on_c, 9, 36, 33
4, 49526, Note_on_c, 9, 59, 36
4, 49536, Note_on_c, 9, 59, 0
4, 49543, Note_on_c, 9, 36, 0
4, 49565, Note_on_c, 9, 59, 48
4, 49610, Note_on_c, 9, 59, 0
4, 49678, Note_on_c, 9, 38, 29
4, 49684, Note_on_c, 9, 59, 72
4, 49690, Note_on_c, 9, 38, 0
4, 49714, Note_on_c, 9, 38, 40
4, 49725, Note_on_c, 9, 38, 0
4, 49726, Note_on_c, 9, 59, 0
4, 49752, Note_on_c, 9, 38, 44
4, 49766, Note_on_c, 9, 59, 33
4, 49778, Note_on_c, 9, 59, 0
4, 49785, Note_on_c, 9, 38, 0
4, 49878, Note_on_c, 9, 59, 64
4, 49906, Note_on_c, 9, 59, 0
4, 49992, Note_on_c, 9, 36, 33
4, 49997, Note_on_c, 9, 59, 19
4, 50005, Note_on_c, 9, 59, 0
4, 50009, Note_on_c, 9, 36, 0
4, 50036, Note_on_c, 9, 38, 25
4, 50046, Note_on_c, 9, 59, 72
4, 50048, Note_on_c, 9, 38, 0
4, 50066, Note_on_c, 9, 38, 43
4, 50085, Note_on_c, 9, 38, 0
4, 50104, Note_on_c, 9, 59, 0
4, 50106, Note_on_c, 9, 38, 38
4, 50126, Note_on_c, 9, 38, 0
4, 50225, Note_on_c, 9, 38, 52
4, 50234, Note_on_c, 9, 59, 64
4, 50244, Note_on_c, 9, 38, 0
4, 50270, Note_on_c, 9, 59, 0
4, 50274, Note_on_c, 9, 38, 34
4, 50285, Note_on_c, 9, 38, 0
4, 50355, Note_on_c, 9, 59, 60
4, 50356, Note_on_c, 9, 51, 49
4, 50356, Note_on_c, 9, 57, 59
4, 50358, Note_on_c, 9, 53, 48
4, 50358, Note_on_c, 9, 36, 42
4, 50368, Note_on_c, 9, 36, 0
4, 50370, Note_on_c, 9, 53, 0
4, 50373, Note_on_c, 9, 57, 0
4, 50375, Note_on_c, 9, 51, 0
4, 50384, Note_on_c, 9, 59, 0
4, 50396, Note_on_c, 9, 36, 51
4, 50423, Note_on_c, 9, 36, 0
4, 50602, Note_on_c, 9, 59, 37
4, 50611, Note_on_c, 9, 59, 0
4, 50718, Note_on_c, 9, 59, 28
4, 50729, Note_on_c, 9, 59, 0
4, 50758, Note_on_c, 9, 59, 27
4, 50770, Note_on_c, 9, 59, 0
4, 50834, Note_on_c, 9, 59, 71
4, 50858, Note_on_c, 9, 59, 0
4, 51082, Note_on_c, 9, 38, 20
4, 51112, Note_on_c, 9, 38, 0
4, 51121, Note_on_c, 9, 59, 43
4, 51130, Note_on_c, 9, 59, 0
4, 51194, Note_on_c, 9, 38, 33
4, 51200, Note_on_c, 9, 59, 51
4, 51217, Note_on_c, 9, 59, 0
4, 51225, Note_on_c, 9, 38, 0
4, 51273, Note_on_c, 9, 59, 52
4, 51273, Note_on_c, 9, 38, 28
4, 51289, Note_on_c, 9, 59, 0
4, 51301, Note_on_c, 9, 38, 0
4, 51355, Note_on_c, 9, 38, 24
4, 51356, Note_on_c, 9, 59, 52
4, 51370, Note_on_c, 9, 59, 0
4, 51373, Note_on_c, 9, 38, 0
4, 51439, Note_on_c, 9, 59, 51
4, 51451, Note_on_c, 9, 59, 0
4, 51539, Note_on_c, 9, 59, 36
4, 51552, Note_on_c, 9, 59, 0
4, 51575, Note_on_c, 9, 59, 49
4, 51594, Note_on_c, 9, 59, 0
4, 51613, Note_on_c, 9, 59, 52
4, 51672, Note_on_c, 9, 59, 0
4, 51687, Note_on_c, 9, 38, 27
4, 51699, Note_on_c, 9, 38, 0
4, 51726, Note_on_c, 9, 59, 41
4, 51735, Note_on_c, 9, 59, 0
4, 51800, Note_on_c, 9, 59, 64
4, 51806, Note_on_c, 9, 36, 28
4, 51819, Note_on_c, 9, 36, 0
4, 51837, Note_on_c, 9, 59, 0
4, 51848, Note_on_c, 9, 36, 37
4, 51920, Note_on_c, 9, 36, 0
4, 51960, Note_on_c, 9, 59, 35
4, 51987, Note_on_c, 9, 59, 0
4, 52034, Note_on_c, 9, 59, 66
4, 52066, Note_on_c, 9, 59, 0
4, 52159, Note_on_c, 9, 36, 40
4, 52169, Note_on_c, 9, 36, 0
4, 52190, Note_on_c, 9, 51, 23
4, 52192, Note_on_c, 9, 53, 30
4, 52211, Note_on_c, 9, 36, 25
4, 52213, Note_on_c, 9, 51, 0
4, 52216, Note_on_c, 9, 53, 0
4, 52225, Note_on_c, 9, 36, 0
4, 52280, Note_on_c, 9, 53, 57
4, 52281, Note_on_c, 9, 51, 52
4, 52320, Note_on_c, 9, 53, 0
4, 52324, Note_on_c, 9, 51, 0
4, 52330, Note_on_c, 9, 36, 23
4, 52346, Note_on_c, 9, 36, 0
4, 52409, Note_on_c, 9, 59, 36
4, 52426, Note_on_c, 9, 59, 0
4, 52469, Note_on_c, 9, 59, 8
4, 52493, Note_on_c, 9, 59, 0
4, 52512, Note_on_c, 9, 38, 37
4, 52522, Note_on_c, 9, 59, 32
4, 52524, Note_on_c, 9, 38, 0
4, 52550, Note_on_c, 9, 59, 0
4, 52571, Note_on_c, 9, 59, 36
4, 52628, Note_on_c, 9, 59, 0
4, 52761, Note_on_c, 9, 59, 59
4, 52787, Note_on_c, 9, 59, 0
4, 52869, Note_on_c, 9, 38, 28
4, 52878, Note_on_c, 9, 59, 32
4, 52884, Note_on_c, 9, 38, 0
4, 52893, Note_on_c, 9, 59, 0
4, 52923, Note_on_c, 9, 38, 17
4, 52934, Note_on_c, 9, 38, 0
4, 52992, Note_on_c, 9, 36, 40
4, 53003, Note_on_c, 9, 36, 0
4, 53044, Note_on_c, 9, 36, 20
4, 53067, Note_on_c, 9, 36, 0
4, 53235, Note_on_c, 9, 38, 32
4, 53242, Note_on_c, 9, 59, 26
4, 53247, Note_on_c, 9, 38, 0
4, 53255, Note_on_c, 9, 59, 0
4, 53286, Note_on_c, 9, 59, 26
4, 53287, Note_on_c, 9, 38, 19
4, 53296, Note_on_c, 9, 38, 0
4, 53306, Note_on_c, 9, 59, 0
4, 53357, Note_on_c, 9, 38, 39
4, 53360, Note_on_c, 9, 59, 55
4, 53378, Note_on_c, 9, 38, 0
4, 53382, Note_on_c, 9, 59, 0
4, 53405, Note_on_c, 9, 59, 26
4, 53432, Note_on_c, 9, 59, 0
4, 53490, Note_on_c, 9, 36, 35
4, 53500, Note_on_c, 9, 36, 0
4, 53523, Note_on_c, 9, 59, 56
4, 53579, Note_on_c, 9, 59, 0
4, 53712, Note_on_c, 9, 59, 64
4, 53831, Note_on_c, 9, 59, 0
4, 54078, Note_on_c, 9, 51, 35
4, 54079, Note_on_c, 9, 53, 25
4, 54084, Note_on_c, 9, 38, 38
4, 54088, Note_on_c, 9, 53, 0
4, 54088, Note_on_c, 9, 51, 0
4, 54104, Note_on_c, 9, 38, 0
4, 54132, Note_on_c, 9, 38, 28
4, 54153, Note_on_c, 9, 38, 0
4, 54205, Note_on_c, 9, 38, 46
4, 54220, Note_on_c, 9, 38, 0
4, 54258, Note_on_c, 9, 59, 48
4, 54258, Note_on_c, 9, 57, 72
4, 54259, Note_on_c, 9, 33, 42
4, 54259, Note_on_c, 9, 36, 61
4, 54260, Note_on_c, 9, 57, 45
4, 54290, Note_on_c, 9, 33, 0
4, 54298, Note_on_c, 9, 57, 0
4, 54303, Note_on_c, 9, 59, 0
4, 54771, Note_on_c, 9, 57, 0
4, 55042, Note_on_c, 9, 36, 0
4, 55042, End_track
5, 0, Start_track
5, 0, Title_t, ""
5, 0, End_track
6, 0, Start_track
6, 0, Title_t, ""
6, 0, End_track
0, 0, End_of_file
