0, 0, Header, 1, 3, 120
1, 0, Start_track
1, 0, Title_t, "Eleanor Rigby"
1, 0, Text_t, "dougmck@pipeline.com.au\012"
1, 0, Time_signature, 3, 2, 24, 8
1, 0, Key_signature, 1, "major"
1, 0, Tempo, 500000
1, 0, End_track
2, 0, Start_track
2, 0, End_track
3, 0, Start_track
3, 0, Title_t, "Solo Piano in Real time"
3, 1, Control_c, 0, 64, 127
3, 25, Note_on_c, 0, 88, 68
3, 33, Note_on_c, 0, 79, 57
3, 33, Note_on_c, 0, 67, 32
3, 40, Note_on_c, 0, 62, 28
3, 47, Note_on_c, 0, 64, 19
3, 97, Note_on_c, 0, 67, 0
3, 147, Note_on_c, 0, 55, 48
3, 156, Note_on_c, 0, 79, 0
3, 159, Note_on_c, 0, 88, 0
3, 213, Note_on_c, 0, 64, 0
3, 226, Note_on_c, 0, 90, 85
3, 229, Note_on_c, 0, 64, 30
3, 231, Note_on_c, 0, 81, 84
3, 235, Note_on_c, 0, 67, 51
3, 265, Note_on_c, 0, 81, 0
3, 271, Note_on_c, 0, 90, 0
3, 289, Note_on_c, 0, 91, 85
3, 292, Note_on_c, 0, 83, 89
3, 329, Note_on_c, 0, 67, 0
3, 330, Note_on_c, 0, 83, 0
3, 334, Note_on_c, 0, 91, 0
3, 341, Note_on_c, 0, 64, 0
3, 359, Note_on_c, 0, 93, 92
3, 361, Note_on_c, 0, 84, 85
3, 363, Note_on_c, 0, 64, 46
3, 364, Note_on_c, 0, 67, 42
3, 430, Note_on_c, 0, 55, 0
3, 432, Note_on_c, 0, 93, 0
3, 441, Note_on_c, 0, 84, 0
3, 491, Note_on_c, 0, 91, 48
3, 492, Note_on_c, 0, 83, 50
3, 494, Note_on_c, 0, 55, 32
3, 561, Note_on_c, 0, 67, 0
3, 569, Note_on_c, 0, 91, 0
3, 573, Note_on_c, 0, 83, 0
3, 580, Note_on_c, 0, 64, 0
3, 588, Note_on_c, 0, 62, 0
3, 628, Note_on_c, 0, 64, 37
3, 629, Note_on_c, 0, 90, 60
3, 629, Note_on_c, 0, 81, 38
3, 631, Note_on_c, 0, 62, 17
3, 632, Note_on_c, 0, 67, 32
3, 698, Note_on_c, 0, 90, 0
3, 710, Note_on_c, 0, 55, 0
3, 718, Note_on_c, 0, 67, 0
3, 721, Note_on_c, 0, 81, 0
3, 775, Note_on_c, 0, 79, 33
3, 777, Note_on_c, 0, 88, 30
3, 778, Note_on_c, 0, 55, 29
3, 848, Note_on_c, 0, 88, 0
3, 864, Note_on_c, 0, 64, 0
3, 871, Note_on_c, 0, 62, 0
3, 877, Note_on_c, 0, 79, 0
3, 896, Note_on_c, 0, 55, 0
3, 994, Control_c, 0, 64, 0
3, 997, Note_on_c, 0, 83, 47
3, 1005, Note_on_c, 0, 52, 35
3, 1032, Control_c, 0, 64, 127
3, 1070, Note_on_c, 0, 83, 0
3, 1094, Note_on_c, 0, 59, 32
3, 1134, Note_on_c, 0, 52, 0
3, 1146, Note_on_c, 0, 59, 0
3, 1156, Note_on_c, 0, 64, 27
3, 1196, Note_on_c, 0, 69, 48
3, 1204, Note_on_c, 0, 64, 0
3, 1208, Note_on_c, 0, 66, 21
3, 1212, Note_on_c, 0, 69, 0
3, 1233, Note_on_c, 0, 74, 53
3, 1262, Note_on_c, 0, 74, 0
3, 1263, Note_on_c, 0, 67, 35
3, 1264, Note_on_c, 0, 78, 52
3, 1279, Note_on_c, 0, 78, 0
3, 1293, Note_on_c, 0, 67, 0
3, 1295, Note_on_c, 0, 81, 66
3, 1311, Note_on_c, 0, 69, 17
3, 1327, Note_on_c, 0, 69, 0
3, 1327, Note_on_c, 0, 66, 0
3, 1327, Note_on_c, 0, 86, 82
3, 1335, Note_on_c, 0, 81, 0
3, 1358, Note_on_c, 0, 90, 71
3, 1361, Note_on_c, 0, 86, 0
3, 1376, Note_on_c, 0, 90, 0
3, 1392, Note_on_c, 0, 93, 72
3, 1392, Note_on_c, 0, 91, 50
3, 1399, Note_on_c, 0, 91, 0
3, 1423, Note_on_c, 0, 98, 76
3, 1433, Note_on_c, 0, 93, 0
3, 1453, Note_on_c, 0, 102, 73
3, 1473, Note_on_c, 0, 98, 0
3, 1482, Note_on_c, 0, 102, 0
3, 1487, Note_on_c, 0, 103, 83
3, 1518, Note_on_c, 0, 102, 72
3, 1536, Note_on_c, 0, 103, 0
3, 1554, Note_on_c, 0, 98, 75
3, 1558, Note_on_c, 0, 102, 0
3, 1558, Note_on_c, 0, 52, 54
3, 1571, Control_c, 0, 64, 0
3, 1588, Note_on_c, 0, 100, 71
3, 1590, Note_on_c, 0, 98, 0
3, 1605, Control_c, 0, 64, 127
3, 1626, Note_on_c, 0, 95, 44
3, 1629, Note_on_c, 0, 100, 0
3, 1654, Note_on_c, 0, 95, 0
3, 1665, Note_on_c, 0, 98, 66
3, 1696, Note_on_c, 0, 98, 0
3, 1702, Note_on_c, 0, 90, 43
3, 1723, Note_on_c, 0, 52, 0
3, 1738, Note_on_c, 0, 90, 0
3, 1745, Note_on_c, 0, 95, 40
3, 1770, Note_on_c, 0, 95, 0
3, 1788, Note_on_c, 0, 88, 35
3, 1820, Note_on_c, 0, 88, 0
3, 1835, Note_on_c, 0, 90, 35
3, 1878, Note_on_c, 0, 90, 0
3, 1881, Note_on_c, 0, 86, 38
3, 1918, Note_on_c, 0, 86, 0
3, 1931, Note_on_c, 0, 88, 34
3, 1976, Note_on_c, 0, 88, 0
3, 2009, Note_on_c, 0, 83, 17
3, 2094, Note_on_c, 0, 83, 0
3, 2097, Note_on_c, 0, 28, 39
3, 2189, Note_on_c, 0, 28, 0
3, 2569, Note_on_c, 0, 52, 34
3, 2576, Note_on_c, 0, 24, 32
3, 2577, Note_on_c, 0, 36, 32
3, 2580, Control_c, 0, 64, 0
3, 2634, Control_c, 0, 64, 127
3, 2680, Note_on_c, 0, 52, 0
3, 2692, Note_on_c, 0, 24, 0
3, 2704, Note_on_c, 0, 36, 0
3, 2821, Note_on_c, 0, 88, 71
3, 2833, Note_on_c, 0, 79, 64
3, 2932, Note_on_c, 0, 72, 32
3, 2955, Note_on_c, 0, 79, 0
3, 2960, Note_on_c, 0, 88, 0
3, 3017, Note_on_c, 0, 90, 71
3, 3027, Note_on_c, 0, 81, 44
3, 3078, Note_on_c, 0, 81, 0
3, 3087, Note_on_c, 0, 90, 0
3, 3095, Note_on_c, 0, 91, 50
3, 3101, Note_on_c, 0, 83, 51
3, 3134, Note_on_c, 0, 91, 0
3, 3136, Note_on_c, 0, 83, 0
3, 3315, Note_on_c, 0, 93, 61
3, 3323, Note_on_c, 0, 84, 57
3, 3340, Note_on_c, 0, 72, 0
3, 3355, Note_on_c, 0, 93, 0
3, 3370, Note_on_c, 0, 84, 0
3, 3400, Note_on_c, 0, 91, 61
3, 3405, Note_on_c, 0, 83, 52
3, 3413, Note_on_c, 0, 72, 24
3, 3435, Note_on_c, 0, 91, 0
3, 3458, Note_on_c, 0, 83, 0
3, 3482, Note_on_c, 0, 72, 0
3, 3494, Note_on_c, 0, 90, 57
3, 3498, Note_on_c, 0, 81, 43
3, 3527, Note_on_c, 0, 90, 0
3, 3538, Note_on_c, 0, 81, 0
3, 3592, Note_on_c, 0, 72, 26
3, 3595, Note_on_c, 0, 79, 42
3, 3596, Note_on_c, 0, 88, 38
3, 3631, Note_on_c, 0, 88, 0
3, 3632, Note_on_c, 0, 72, 0
3, 3654, Note_on_c, 0, 79, 0
3, 3807, Note_on_c, 0, 83, 47
3, 3812, Note_on_c, 0, 76, 45
3, 3813, Note_on_c, 0, 52, 34
3, 3817, Control_c, 0, 64, 0
3, 3849, Control_c, 0, 64, 127
3, 3910, Note_on_c, 0, 83, 0
3, 3910, Note_on_c, 0, 59, 30
3, 3922, Note_on_c, 0, 76, 0
3, 3937, Note_on_c, 0, 52, 0
3, 3955, Note_on_c, 0, 59, 0
3, 3964, Note_on_c, 0, 64, 36
3, 4008, Note_on_c, 0, 64, 0
3, 4016, Note_on_c, 0, 67, 34
3, 4017, Note_on_c, 0, 66, 19
3, 4045, Note_on_c, 0, 67, 0
3, 4050, Note_on_c, 0, 69, 44
3, 4072, Note_on_c, 0, 69, 0
3, 4079, Note_on_c, 0, 71, 64
3, 4084, Note_on_c, 0, 67, 19
3, 4094, Note_on_c, 0, 71, 0
3, 4107, Note_on_c, 0, 67, 0
3, 4108, Note_on_c, 0, 74, 56
3, 4134, Note_on_c, 0, 66, 0
3, 4137, Note_on_c, 0, 74, 0
3, 4139, Note_on_c, 0, 76, 46
3, 4164, Note_on_c, 0, 78, 51
3, 4166, Note_on_c, 0, 76, 0
3, 4187, Note_on_c, 0, 78, 0
3, 4188, Note_on_c, 0, 81, 69
3, 4219, Note_on_c, 0, 52, 40
3, 4219, Note_on_c, 0, 76, 56
3, 4221, Control_c, 0, 64, 0
3, 4222, Note_on_c, 0, 81, 0
3, 4268, Control_c, 0, 64, 127
3, 4285, Note_on_c, 0, 78, 34
3, 4288, Note_on_c, 0, 76, 0
3, 4288, Note_on_c, 0, 59, 35
3, 4345, Note_on_c, 0, 52, 0
3, 4348, Note_on_c, 0, 59, 0
3, 4348, Note_on_c, 0, 71, 34
3, 4365, Note_on_c, 0, 64, 22
3, 4435, Note_on_c, 0, 66, 29
3, 4437, Note_on_c, 0, 64, 0
3, 4481, Note_on_c, 0, 78, 0
3, 4481, Note_on_c, 0, 71, 0
3, 4485, Note_on_c, 0, 74, 42
3, 4520, Note_on_c, 0, 74, 0
3, 4521, Note_on_c, 0, 76, 39
3, 4537, Note_on_c, 0, 76, 0
3, 4544, Note_on_c, 0, 78, 42
3, 4550, Note_on_c, 0, 71, 19
3, 4553, Note_on_c, 0, 78, 0
3, 4572, Note_on_c, 0, 81, 53
3, 4582, Note_on_c, 0, 71, 0
3, 4596, Note_on_c, 0, 86, 66
3, 4597, Note_on_c, 0, 81, 0
3, 4620, Note_on_c, 0, 90, 70
3, 4631, Note_on_c, 0, 86, 0
3, 4638, Note_on_c, 0, 71, 1
3, 4640, Note_on_c, 0, 90, 0
3, 4645, Note_on_c, 0, 91, 74
3, 4656, Note_on_c, 0, 66, 0
3, 4664, Control_c, 0, 64, 0
3, 4667, Note_on_c, 0, 71, 0
3, 4671, Note_on_c, 0, 90, 61
3, 4675, Note_on_c, 0, 64, 35
3, 4685, Note_on_c, 0, 91, 0
3, 4700, Control_c, 0, 64, 127
3, 4701, Note_on_c, 0, 86, 63
3, 4715, Note_on_c, 0, 90, 0
3, 4728, Note_on_c, 0, 86, 0
3, 4751, Note_on_c, 0, 71, 33
3, 4760, Note_on_c, 0, 105, 87
3, 4772, Note_on_c, 0, 105, 0
3, 4820, Note_on_c, 0, 71, 0
3, 4865, Note_on_c, 0, 71, 30
3, 4866, Note_on_c, 0, 102, 55
3, 4924, Note_on_c, 0, 96, 39
3, 4925, Note_on_c, 0, 102, 0
3, 4957, Note_on_c, 0, 96, 0
3, 4961, Note_on_c, 0, 100, 63
3, 4987, Note_on_c, 0, 64, 0
3, 4996, Note_on_c, 0, 98, 58
3, 5015, Note_on_c, 0, 100, 0
3, 5023, Note_on_c, 0, 98, 0
3, 5029, Note_on_c, 0, 93, 55
3, 5045, Note_on_c, 0, 64, 32
3, 5052, Note_on_c, 0, 93, 0
3, 5066, Note_on_c, 0, 90, 52
3, 5084, Note_on_c, 0, 71, 0
3, 5103, Note_on_c, 0, 90, 0
3, 5112, Note_on_c, 0, 95, 47
3, 5155, Note_on_c, 0, 95, 0
3, 5158, Note_on_c, 0, 71, 32
3, 5162, Note_on_c, 0, 93, 36
3, 5201, Note_on_c, 0, 93, 0
3, 5245, Note_on_c, 0, 86, 2
3, 5272, Note_on_c, 0, 86, 0
3, 5326, Note_on_c, 0, 90, 37
3, 5438, Note_on_c, 0, 71, 0
3, 5447, Note_on_c, 0, 81, 32
3, 5468, Note_on_c, 0, 64, 0
3, 5519, Note_on_c, 0, 90, 0
3, 5566, Note_on_c, 0, 81, 0
3, 5873, Note_on_c, 0, 79, 36
3, 5874, Note_on_c, 0, 71, 25
3, 5878, Note_on_c, 0, 64, 32
3, 5878, Note_on_c, 0, 67, 32
3, 5881, Control_c, 0, 64, 0
3, 5951, Control_c, 0, 64, 127
3, 5975, Note_on_c, 0, 81, 55
3, 5990, Note_on_c, 0, 79, 0
3, 6014, Note_on_c, 0, 81, 0
3, 6019, Note_on_c, 0, 83, 71
3, 6076, Note_on_c, 0, 83, 0
3, 6079, Note_on_c, 0, 79, 62
3, 6154, Note_on_c, 0, 76, 52
3, 6255, Note_on_c, 0, 79, 0
3, 6333, Note_on_c, 0, 67, 0
3, 6339, Note_on_c, 0, 76, 0
3, 6339, Note_on_c, 0, 64, 0
3, 6341, Note_on_c, 0, 71, 0
3, 6412, Note_on_c, 0, 79, 74
3, 6413, Note_on_c, 0, 71, 44
3, 6415, Note_on_c, 0, 67, 45
3, 6416, Control_c, 0, 64, 0
3, 6418, Note_on_c, 0, 62, 50
3, 6465, Control_c, 0, 64, 127
3, 6479, Note_on_c, 0, 81, 73
3, 6490, Note_on_c, 0, 79, 0
3, 6519, Note_on_c, 0, 81, 0
3, 6533, Note_on_c, 0, 83, 82
3, 6569, Note_on_c, 0, 71, 0
3, 6583, Note_on_c, 0, 83, 0
3, 6600, Note_on_c, 0, 86, 90
3, 6655, Note_on_c, 0, 86, 0
3, 6668, Note_on_c, 0, 85, 69
3, 6719, Note_on_c, 0, 85, 0
3, 6723, Note_on_c, 0, 62, 0
3, 6726, Note_on_c, 0, 83, 58
3, 6788, Note_on_c, 0, 83, 0
3, 6794, Note_on_c, 0, 61, 48
3, 6797, Note_on_c, 0, 71, 36
3, 6797, Note_on_c, 0, 85, 46
3, 6801, Control_c, 0, 64, 0
3, 6854, Control_c, 0, 64, 127
3, 6899, Note_on_c, 0, 83, 50
3, 6912, Note_on_c, 0, 85, 0
3, 6954, Note_on_c, 0, 83, 0
3, 6956, Note_on_c, 0, 81, 50
3, 6962, Note_on_c, 0, 71, 0
3, 6968, Note_on_c, 0, 67, 0
3, 7013, Note_on_c, 0, 81, 0
3, 7022, Note_on_c, 0, 71, 34
3, 7023, Note_on_c, 0, 83, 51
3, 7027, Note_on_c, 0, 67, 30
3, 7074, Note_on_c, 0, 71, 0
3, 7079, Note_on_c, 0, 67, 0
3, 7094, Note_on_c, 0, 61, 0
3, 7161, Note_on_c, 0, 81, 49
3, 7201, Note_on_c, 0, 83, 0
3, 7211, Note_on_c, 0, 81, 0
3, 7213, Note_on_c, 0, 79, 43
3, 7270, Note_on_c, 0, 79, 0
3, 7274, Note_on_c, 0, 48, 32
3, 7275, Control_c, 0, 64, 0
3, 7277, Note_on_c, 0, 81, 38
3, 7309, Control_c, 0, 64, 127
3, 7358, Note_on_c, 0, 55, 35
3, 7376, Note_on_c, 0, 81, 0
3, 7418, Note_on_c, 0, 55, 0
3, 7423, Note_on_c, 0, 48, 0
3, 7431, Note_on_c, 0, 59, 35
3, 7486, Note_on_c, 0, 59, 0
3, 7493, Note_on_c, 0, 60, 45
3, 7550, Note_on_c, 0, 64, 51
3, 7584, Note_on_c, 0, 64, 0
3, 7597, Note_on_c, 0, 67, 63
3, 7624, Note_on_c, 0, 67, 0
3, 7640, Note_on_c, 0, 69, 64
3, 7667, Note_on_c, 0, 69, 0
3, 7685, Note_on_c, 0, 74, 55
3, 7731, Note_on_c, 0, 74, 0
3, 7733, Note_on_c, 0, 71, 49
3, 7780, Note_on_c, 0, 72, 47
3, 7781, Note_on_c, 0, 71, 0
3, 7820, Note_on_c, 0, 72, 0
3, 7834, Note_on_c, 0, 76, 38
3, 7880, Note_on_c, 0, 76, 0
3, 7887, Note_on_c, 0, 79, 44
3, 7908, Note_on_c, 0, 79, 0
3, 7947, Note_on_c, 0, 83, 49
3, 8000, Note_on_c, 0, 83, 0
3, 8008, Note_on_c, 0, 86, 38
3, 8071, Note_on_c, 0, 83, 30
3, 8077, Note_on_c, 0, 86, 0
3, 8149, Note_on_c, 0, 84, 33
3, 8165, Note_on_c, 0, 83, 0
3, 8200, Note_on_c, 0, 60, 0
3, 8269, Note_on_c, 0, 84, 0
3, 8350, Note_on_c, 0, 88, 42
3, 8357, Note_on_c, 0, 72, 18
3, 8358, Note_on_c, 0, 79, 20
3, 8359, Control_c, 0, 64, 0
3, 8389, Control_c, 0, 64, 127
3, 8452, Note_on_c, 0, 88, 0
3, 8454, Note_on_c, 0, 79, 0
3, 8506, Note_on_c, 0, 72, 0
3, 8541, Note_on_c, 0, 91, 50
3, 8548, Note_on_c, 0, 83, 49
3, 8553, Note_on_c, 0, 76, 42
3, 8596, Note_on_c, 0, 91, 0
3, 8603, Note_on_c, 0, 83, 0
3, 8631, Note_on_c, 0, 93, 69
3, 8635, Note_on_c, 0, 84, 54
3, 8642, Note_on_c, 0, 76, 0
3, 8645, Note_on_c, 0, 77, 28
3, 8685, Note_on_c, 0, 84, 0
3, 8687, Note_on_c, 0, 93, 0
3, 8716, Note_on_c, 0, 95, 61
3, 8717, Note_on_c, 0, 86, 62
3, 8721, Note_on_c, 0, 79, 30
3, 8723, Note_on_c, 0, 77, 0
3, 8757, Note_on_c, 0, 79, 0
3, 8774, Note_on_c, 0, 86, 0
3, 8781, Note_on_c, 0, 95, 0
3, 8958, Note_on_c, 0, 96, 51
3, 8963, Note_on_c, 0, 52, 36
3, 9005, Note_on_c, 0, 96, 0
3, 9045, Note_on_c, 0, 59, 30
3, 9096, Note_on_c, 0, 52, 0
3, 9106, Note_on_c, 0, 59, 0
3, 9122, Note_on_c, 0, 95, 44
3, 9124, Note_on_c, 0, 64, 33
3, 9124, Note_on_c, 0, 83, 48
3, 9184, Note_on_c, 0, 95, 0
3, 9198, Note_on_c, 0, 83, 0
3, 9200, Note_on_c, 0, 64, 0
3, 9200, Note_on_c, 0, 66, 36
3, 9279, Note_on_c, 0, 91, 49
3, 9279, Note_on_c, 0, 67, 48
3, 9280, Note_on_c, 0, 79, 39
3, 9330, Note_on_c, 0, 79, 0
3, 9333, Note_on_c, 0, 91, 0
3, 9356, Note_on_c, 0, 67, 0
3, 9360, Note_on_c, 0, 66, 0
3, 9361, Note_on_c, 0, 69, 49
3, 9430, Note_on_c, 0, 71, 53
3, 9431, Note_on_c, 0, 69, 0
3, 9432, Note_on_c, 0, 93, 74
3, 9434, Note_on_c, 0, 81, 66
3, 9466, Note_on_c, 0, 81, 0
3, 9472, Note_on_c, 0, 93, 0
3, 9505, Note_on_c, 0, 74, 55
3, 9508, Note_on_c, 0, 95, 76
3, 9510, Note_on_c, 0, 71, 0
3, 9510, Note_on_c, 0, 83, 71
3, 9514, Note_on_c, 0, 74, 0
3, 9529, Note_on_c, 0, 95, 0
3, 9536, Note_on_c, 0, 83, 0
3, 9591, Note_on_c, 0, 52, 46
3, 9592, Note_on_c, 0, 91, 67
3, 9595, Note_on_c, 0, 79, 57
3, 9617, Note_on_c, 0, 91, 0
3, 9638, Note_on_c, 0, 79, 0
3, 9662, Note_on_c, 0, 59, 56
3, 9665, Note_on_c, 0, 52, 0
3, 9723, Note_on_c, 0, 59, 0
3, 9723, Note_on_c, 0, 78, 48
3, 9725, Note_on_c, 0, 71, 66
3, 9730, Note_on_c, 0, 64, 45
3, 9783, Note_on_c, 0, 64, 0
3, 9792, Note_on_c, 0, 66, 55
3, 9808, Note_on_c, 0, 66, 0
3, 9823, Note_on_c, 0, 71, 0
3, 9871, Note_on_c, 0, 67, 39
3, 9871, Note_on_c, 0, 71, 46
3, 9875, Note_on_c, 0, 74, 39
3, 9932, Note_on_c, 0, 67, 0
3, 9959, Note_on_c, 0, 66, 27
3, 9990, Note_on_c, 0, 71, 0
3, 10034, Note_on_c, 0, 74, 0
3, 10044, Note_on_c, 0, 71, 44
3, 10045, Note_on_c, 0, 67, 33
3, 10076, Note_on_c, 0, 67, 0
3, 10103, Note_on_c, 0, 78, 0
3, 10140, Note_on_c, 0, 66, 0
3, 10140, Note_on_c, 0, 67, 41
3, 10166, Note_on_c, 0, 67, 0
3, 10176, Note_on_c, 0, 71, 0
3, 10259, Note_on_c, 0, 79, 48
3, 10264, Note_on_c, 0, 71, 52
3, 10264, Note_on_c, 0, 52, 36
3, 10267, Control_c, 0, 64, 0
3, 10308, Control_c, 0, 64, 127
3, 10345, Note_on_c, 0, 59, 31
3, 10348, Note_on_c, 0, 79, 0
3, 10352, Note_on_c, 0, 71, 0
3, 10458, Note_on_c, 0, 81, 51
3, 10460, Note_on_c, 0, 72, 27
3, 10497, Note_on_c, 0, 72, 0
3, 10503, Note_on_c, 0, 81, 0
3, 10531, Note_on_c, 0, 83, 66
3, 10531, Note_on_c, 0, 74, 71
3, 10552, Note_on_c, 0, 74, 0
3, 10558, Note_on_c, 0, 83, 0
3, 10714, Note_on_c, 0, 86, 80
3, 10718, Note_on_c, 0, 78, 70
3, 10720, Note_on_c, 0, 59, 0
3, 10725, Note_on_c, 0, 64, 20
3, 10756, Note_on_c, 0, 86, 0
3, 10771, Note_on_c, 0, 78, 0
3, 10783, Note_on_c, 0, 64, 0
3, 10785, Note_on_c, 0, 85, 62
3, 10789, Note_on_c, 0, 76, 50
3, 10819, Note_on_c, 0, 85, 0
3, 10828, Note_on_c, 0, 76, 0
3, 10845, Note_on_c, 0, 83, 47
3, 10847, Note_on_c, 0, 74, 22
3, 10861, Note_on_c, 0, 52, 0
3, 10870, Note_on_c, 0, 83, 0
3, 10874, Note_on_c, 0, 74, 0
3, 10901, Note_on_c, 0, 85, 74
3, 10902, Note_on_c, 0, 76, 62
3, 10905, Control_c, 0, 64, 0
3, 10906, Note_on_c, 0, 52, 42
3, 10939, Control_c, 0, 64, 127
3, 10947, Note_on_c, 0, 85, 0
3, 10957, Note_on_c, 0, 76, 0
3, 10958, Note_on_c, 0, 59, 26
3, 10984, Note_on_c, 0, 59, 0
3, 10999, Note_on_c, 0, 83, 57
3, 11002, Note_on_c, 0, 74, 54
3, 11020, Note_on_c, 0, 83, 0
3, 11025, Note_on_c, 0, 74, 0
3, 11050, Note_on_c, 0, 81, 50
3, 11051, Note_on_c, 0, 72, 34
3, 11060, Note_on_c, 0, 59, 24
3, 11071, Note_on_c, 0, 72, 0
3, 11075, Note_on_c, 0, 81, 0
3, 11099, Note_on_c, 0, 59, 0
3, 11107, Note_on_c, 0, 74, 53
3, 11108, Note_on_c, 0, 83, 53
3, 11120, Note_on_c, 0, 64, 14
3, 11140, Note_on_c, 0, 83, 0
3, 11155, Note_on_c, 0, 74, 0
3, 11194, Note_on_c, 0, 64, 0
3, 11199, Note_on_c, 0, 59, 1
3, 11203, Note_on_c, 0, 52, 0
3, 11225, Note_on_c, 0, 81, 41
3, 11225, Note_on_c, 0, 72, 32
3, 11244, Note_on_c, 0, 81, 0
3, 11259, Note_on_c, 0, 72, 0
3, 11290, Note_on_c, 0, 79, 45
3, 11290, Note_on_c, 0, 71, 50
3, 11291, Note_on_c, 0, 52, 38
3, 11299, Note_on_c, 0, 59, 0
3, 11321, Note_on_c, 0, 52, 0
3, 11323, Note_on_c, 0, 79, 0
3, 11324, Note_on_c, 0, 71, 0
3, 11371, Note_on_c, 0, 81, 49
3, 11372, Control_c, 0, 64, 0
3, 11372, Note_on_c, 0, 72, 37
3, 11374, Note_on_c, 0, 48, 32
3, 11414, Control_c, 0, 64, 127
3, 11436, Note_on_c, 0, 81, 0
3, 11443, Note_on_c, 0, 72, 0
3, 11444, Note_on_c, 0, 55, 33
3, 11511, Note_on_c, 0, 59, 32
3, 11545, Note_on_c, 0, 59, 0
3, 11555, Note_on_c, 0, 60, 60
3, 11599, Note_on_c, 0, 60, 0
3, 11602, Note_on_c, 0, 64, 69
3, 11619, Note_on_c, 0, 64, 0
3, 11647, Note_on_c, 0, 71, 74
3, 11659, Note_on_c, 0, 48, 0
3, 11666, Note_on_c, 0, 55, 0
3, 11677, Note_on_c, 0, 71, 0
3, 11698, Note_on_c, 0, 76, 76
3, 11752, Note_on_c, 0, 76, 0
3, 11758, Note_on_c, 0, 74, 71
3, 11761, Control_c, 0, 64, 0
3, 11761, Note_on_c, 0, 64, 34
3, 11761, Note_on_c, 0, 67, 39
3, 11765, Note_on_c, 0, 62, 34
3, 11791, Control_c, 0, 64, 127
3, 11803, Note_on_c, 0, 74, 0
3, 11823, Note_on_c, 0, 84, 50
3, 11825, Note_on_c, 0, 83, 47
3, 11847, Note_on_c, 0, 83, 0
3, 11857, Note_on_c, 0, 67, 0
3, 11873, Note_on_c, 0, 84, 0
3, 11885, Note_on_c, 0, 79, 42
3, 11929, Note_on_c, 0, 79, 0
3, 11945, Note_on_c, 0, 81, 50
3, 11951, Note_on_c, 0, 55, 38
3, 11994, Note_on_c, 0, 81, 0
3, 11999, Note_on_c, 0, 86, 64
3, 12010, Note_on_c, 0, 86, 0
3, 12056, Note_on_c, 0, 95, 59
3, 12062, Note_on_c, 0, 64, 0
3, 12067, Note_on_c, 0, 62, 0
3, 12077, Note_on_c, 0, 55, 0
3, 12107, Note_on_c, 0, 95, 0
3, 12115, Note_on_c, 0, 98, 64
3, 12174, Note_on_c, 0, 98, 0
3, 12179, Note_on_c, 0, 100, 48
3, 12218, Note_on_c, 0, 100, 0
3, 12243, Note_on_c, 0, 103, 48
3, 12310, Note_on_c, 0, 103, 0
3, 12321, Note_on_c, 0, 100, 32
3, 12324, Note_on_c, 0, 24, 28
3, 12472, Note_on_c, 0, 100, 0
3, 12489, Note_on_c, 0, 24, 0
3, 12762, Note_on_c, 0, 79, 49
3, 12765, Note_on_c, 0, 74, 40
3, 12768, Note_on_c, 0, 64, 28
3, 12768, Note_on_c, 0, 69, 31
3, 12769, Control_c, 0, 64, 0
3, 12787, Control_c, 0, 64, 127
3, 12845, Note_on_c, 0, 69, 0
3, 12850, Note_on_c, 0, 79, 0
3, 12868, Note_on_c, 0, 74, 0
3, 13113, Note_on_c, 0, 81, 49
3, 13114, Control_c, 0, 64, 0
3, 13115, Note_on_c, 0, 66, 35
3, 13116, Note_on_c, 0, 74, 48
3, 13118, Note_on_c, 0, 64, 0
3, 13119, Note_on_c, 0, 71, 46
3, 13148, Control_c, 0, 64, 127
3, 13160, Note_on_c, 0, 71, 0
3, 13166, Note_on_c, 0, 74, 0
3, 13178, Note_on_c, 0, 81, 0
3, 13192, Note_on_c, 0, 66, 0
3, 13207, Note_on_c, 0, 83, 55
3, 13208, Note_on_c, 0, 74, 52
3, 13210, Note_on_c, 0, 67, 43
3, 13230, Note_on_c, 0, 67, 0
3, 13239, Note_on_c, 0, 74, 0
3, 13251, Note_on_c, 0, 83, 0
3, 13412, Note_on_c, 0, 84, 66
3, 13467, Note_on_c, 0, 84, 0
3, 13481, Note_on_c, 0, 83, 59
3, 13513, Note_on_c, 0, 83, 0
3, 13555, Note_on_c, 0, 81, 40
3, 13559, Note_on_c, 0, 74, 38
3, 13567, Control_c, 0, 64, 0
3, 13568, Note_on_c, 0, 52, 32
3, 13617, Control_c, 0, 64, 127
3, 13648, Note_on_c, 0, 59, 24
3, 13650, Note_on_c, 0, 52, 0
3, 13661, Note_on_c, 0, 59, 0
3, 13675, Note_on_c, 0, 74, 0
3, 13717, Note_on_c, 0, 81, 0
3, 13761, Note_on_c, 0, 81, 47
3, 13764, Note_on_c, 0, 78, 44
3, 13769, Note_on_c, 0, 74, 50
3, 13774, Note_on_c, 0, 67, 22
3, 13774, Note_on_c, 0, 71, 33
3, 13774, Note_on_c, 0, 69, 24
3, 13836, Note_on_c, 0, 67, 0
3, 13837, Note_on_c, 0, 69, 0
3, 13846, Note_on_c, 0, 71, 0
3, 13847, Note_on_c, 0, 74, 0
3, 13858, Note_on_c, 0, 78, 0
3, 13858, Note_on_c, 0, 81, 0
3, 13888, Note_on_c, 0, 81, 43
3, 13894, Note_on_c, 0, 78, 46
3, 13901, Note_on_c, 0, 67, 29
3, 13903, Note_on_c, 0, 71, 37
3, 13904, Note_on_c, 0, 74, 42
3, 13907, Note_on_c, 0, 69, 29
3, 13929, Note_on_c, 0, 69, 0
3, 13955, Note_on_c, 0, 67, 0
3, 13966, Note_on_c, 0, 71, 0
3, 14014, Note_on_c, 0, 74, 0
3, 14035, Note_on_c, 0, 78, 0
3, 14050, Note_on_c, 0, 71, 31
3, 14052, Note_on_c, 0, 67, 32
3, 14057, Note_on_c, 0, 69, 34
3, 14063, Note_on_c, 0, 81, 0
3, 14108, Note_on_c, 0, 69, 0
3, 14111, Note_on_c, 0, 67, 0
3, 14111, Note_on_c, 0, 71, 0
3, 14148, Note_on_c, 0, 79, 75
3, 14158, Note_on_c, 0, 71, 43
3, 14162, Note_on_c, 0, 67, 34
3, 14167, Note_on_c, 0, 69, 25
3, 14176, Note_on_c, 0, 69, 0
3, 14181, Note_on_c, 0, 71, 0
3, 14185, Note_on_c, 0, 67, 0
3, 14209, Note_on_c, 0, 79, 0
3, 14222, Note_on_c, 0, 81, 85
3, 14227, Note_on_c, 0, 79, 40
3, 14231, Note_on_c, 0, 71, 51
3, 14234, Note_on_c, 0, 79, 0
3, 14235, Note_on_c, 0, 67, 40
3, 14238, Note_on_c, 0, 69, 37
3, 14248, Note_on_c, 0, 69, 0
3, 14253, Note_on_c, 0, 71, 0
3, 14258, Note_on_c, 0, 67, 0
3, 14272, Note_on_c, 0, 81, 0
3, 14283, Note_on_c, 0, 83, 77
3, 14338, Note_on_c, 0, 83, 0
3, 14352, Note_on_c, 0, 79, 59
3, 14355, Note_on_c, 0, 49, 33
3, 14357, Control_c, 0, 64, 0
3, 14397, Control_c, 0, 64, 127
3, 14419, Note_on_c, 0, 76, 51
3, 14421, Note_on_c, 0, 71, 36
3, 14422, Note_on_c, 0, 49, 0
3, 14424, Note_on_c, 0, 59, 34
3, 14487, Note_on_c, 0, 61, 40
3, 14490, Note_on_c, 0, 59, 0
3, 14542, Note_on_c, 0, 76, 0
3, 14544, Note_on_c, 0, 79, 0
3, 14557, Note_on_c, 0, 64, 45
3, 14559, Note_on_c, 0, 71, 0
3, 14628, Note_on_c, 0, 71, 48
3, 14674, Note_on_c, 0, 71, 0
3, 14703, Note_on_c, 0, 71, 36
3, 14708, Note_on_c, 0, 76, 53
3, 14751, Note_on_c, 0, 64, 0
3, 14775, Note_on_c, 0, 76, 0
3, 14783, Note_on_c, 0, 83, 42
3, 14791, Note_on_c, 0, 64, 32
3, 14803, Note_on_c, 0, 83, 0
3, 14812, Note_on_c, 0, 71, 0
3, 14852, Note_on_c, 0, 64, 0
3, 14861, Note_on_c, 0, 61, 0
3, 14883, Note_on_c, 0, 88, 54
3, 14955, Note_on_c, 0, 88, 0
3, 15009, Note_on_c, 0, 86, 58
3, 15018, Note_on_c, 0, 36, 30
3, 15020, Note_on_c, 0, 24, 44
3, 15021, Control_c, 0, 64, 0
3, 15029, Note_on_c, 0, 86, 0
3, 15030, Note_on_c, 0, 88, 54
3, 15061, Control_c, 0, 64, 127
3, 15075, Note_on_c, 0, 24, 0
3, 15088, Note_on_c, 0, 36, 0
3, 15147, Note_on_c, 0, 88, 0
3, 15324, Note_on_c, 0, 88, 80
3, 15324, Note_on_c, 0, 76, 88
3, 15325, Note_on_c, 0, 82, 71
3, 15325, Note_on_c, 0, 84, 76
3, 15325, Note_on_c, 0, 69, 80
3, 15325, Note_on_c, 0, 58, 78
3, 15326, Note_on_c, 0, 64, 67
3, 15332, Control_c, 0, 64, 0
3, 15392, Control_c, 0, 64, 127
3, 15480, Note_on_c, 0, 88, 0
3, 15481, Note_on_c, 0, 84, 0
3, 15490, Note_on_c, 0, 82, 0
3, 15500, Note_on_c, 0, 76, 0
3, 15527, Note_on_c, 0, 69, 0
3, 15599, Note_on_c, 0, 82, 83
3, 15600, Note_on_c, 0, 70, 83
3, 15617, Note_on_c, 0, 70, 0
3, 15624, Note_on_c, 0, 82, 0
3, 15626, Note_on_c, 0, 69, 34
3, 15626, Note_on_c, 0, 81, 50
3, 15627, Note_on_c, 0, 83, 37
3, 15635, Note_on_c, 0, 83, 0
3, 15700, Note_on_c, 0, 69, 0
3, 15705, Note_on_c, 0, 81, 0
3, 15710, Note_on_c, 0, 79, 55
3, 15791, Note_on_c, 0, 64, 0
3, 15812, Note_on_c, 0, 58, 0
3, 15853, Note_on_c, 0, 76, 52
3, 15858, Note_on_c, 0, 79, 0
3, 15878, Note_on_c, 0, 76, 0
3, 15881, Note_on_c, 0, 74, 43
3, 15907, Note_on_c, 0, 74, 0
3, 15910, Control_c, 0, 64, 0
3, 15914, Note_on_c, 0, 52, 40
3, 15916, Note_on_c, 0, 76, 39
3, 15956, Control_c, 0, 64, 127
3, 15983, Note_on_c, 0, 59, 32
3, 16035, Note_on_c, 0, 52, 0
3, 16037, Note_on_c, 0, 59, 0
3, 16040, Note_on_c, 0, 76, 0
3, 16045, Note_on_c, 0, 71, 44
3, 16053, Note_on_c, 0, 64, 26
3, 16089, Note_on_c, 0, 71, 0
3, 16107, Note_on_c, 0, 71, 44
3, 16110, Note_on_c, 0, 78, 32
3, 16112, Note_on_c, 0, 76, 54
3, 16113, Note_on_c, 0, 66, 32
3, 16130, Note_on_c, 0, 64, 0
3, 16205, Note_on_c, 0, 66, 0
3, 16252, Note_on_c, 0, 76, 0
3, 16255, Note_on_c, 0, 78, 0
3, 16274, Note_on_c, 0, 71, 0
3, 16358, Note_on_c, 0, 52, 43
3, 16361, Control_c, 0, 64, 0
3, 16425, Note_on_c, 0, 59, 33
3, 16427, Control_c, 0, 64, 127
3, 16479, Note_on_c, 0, 64, 37
3, 16520, Note_on_c, 0, 64, 0
3, 16547, Note_on_c, 0, 66, 34
3, 16550, Note_on_c, 0, 64, 32
3, 16624, Note_on_c, 0, 52, 0
3, 16634, Note_on_c, 0, 64, 0
3, 16649, Note_on_c, 0, 52, 36
3, 16717, Note_on_c, 0, 52, 0
3, 16726, Note_on_c, 0, 64, 28
3, 16747, Note_on_c, 0, 64, 0
3, 16753, Note_on_c, 0, 66, 0
3, 16779, Note_on_c, 0, 52, 44
3, 16786, Note_on_c, 0, 59, 0
3, 16841, Note_on_c, 0, 62, 85
3, 16841, Note_on_c, 0, 66, 74
3, 16841, Note_on_c, 0, 69, 79
3, 16842, Control_c, 0, 64, 0
3, 16843, Note_on_c, 0, 59, 50
3, 16845, Note_on_c, 0, 57, 43
3, 16848, Note_on_c, 0, 55, 39
3, 16952, Control_c, 0, 64, 127
3, 16989, Note_on_c, 0, 52, 0
3, 17024, Note_on_c, 0, 69, 0
3, 17025, Note_on_c, 0, 52, 39
3, 17029, Note_on_c, 0, 67, 37
3, 17036, Note_on_c, 0, 66, 0
3, 17040, Note_on_c, 0, 55, 0
3, 17042, Note_on_c, 0, 62, 0
3, 17042, Note_on_c, 0, 57, 0
3, 17043, Note_on_c, 0, 59, 0
3, 17073, Note_on_c, 0, 67, 0
3, 17078, Control_c, 0, 64, 0
3, 17093, Note_on_c, 0, 66, 36
3, 17094, Note_on_c, 0, 69, 53
3, 17095, Note_on_c, 0, 59, 38
3, 17097, Note_on_c, 0, 62, 37
3, 17101, Note_on_c, 0, 57, 31
3, 17102, Note_on_c, 0, 55, 28
3, 17132, Control_c, 0, 64, 127
3, 17201, Note_on_c, 0, 57, 0
3, 17207, Note_on_c, 0, 59, 0
3, 17222, Note_on_c, 0, 55, 0
3, 17238, Note_on_c, 0, 52, 0
3, 17246, Note_on_c, 0, 69, 0
3, 17270, Note_on_c, 0, 71, 53
3, 17299, Note_on_c, 0, 66, 0
3, 17309, Note_on_c, 0, 62, 0
3, 17318, Note_on_c, 0, 71, 0
3, 17325, Control_c, 0, 64, 0
3, 17334, Note_on_c, 0, 67, 40
3, 17336, Note_on_c, 0, 64, 32
3, 17341, Note_on_c, 0, 59, 27
3, 17342, Note_on_c, 0, 49, 23
3, 17359, Control_c, 0, 64, 127
3, 17387, Note_on_c, 0, 64, 0
3, 17395, Note_on_c, 0, 67, 0
3, 17411, Note_on_c, 0, 49, 0
3, 17421, Note_on_c, 0, 59, 0
3, 17446, Note_on_c, 0, 69, 34
3, 17485, Note_on_c, 0, 69, 0
3, 17524, Note_on_c, 0, 81, 57
3, 17546, Note_on_c, 0, 81, 0
3, 17602, Note_on_c, 0, 88, 53
3, 17606, Note_on_c, 0, 67, 27
3, 17608, Note_on_c, 0, 61, 27
3, 17690, Note_on_c, 0, 93, 43
3, 17692, Note_on_c, 0, 67, 0
3, 17707, Note_on_c, 0, 88, 0
3, 17718, Note_on_c, 0, 93, 0
3, 17735, Note_on_c, 0, 61, 0
3, 17870, Control_c, 0, 64, 0
3, 17877, Control_c, 0, 64, 127
3, 17879, Note_on_c, 0, 36, 36
3, 17891, Note_on_c, 0, 36, 0
3, 17971, Note_on_c, 0, 100, 82
3, 18075, Note_on_c, 0, 58, 44
3, 18076, Note_on_c, 0, 69, 38
3, 18079, Note_on_c, 0, 64, 40
3, 18122, Note_on_c, 0, 100, 0
3, 18225, Note_on_c, 0, 94, 86
3, 18226, Note_on_c, 0, 100, 76
3, 18252, Note_on_c, 0, 94, 0
3, 18257, Note_on_c, 0, 93, 61
3, 18282, Note_on_c, 0, 69, 0
3, 18283, Note_on_c, 0, 91, 66
3, 18285, Note_on_c, 0, 100, 0
3, 18285, Note_on_c, 0, 93, 0
3, 18293, Note_on_c, 0, 64, 0
3, 18315, Note_on_c, 0, 58, 0
3, 18339, Note_on_c, 0, 91, 0
3, 18349, Note_on_c, 0, 90, 58
3, 18485, Note_on_c, 0, 90, 0
3, 18772, Note_on_c, 0, 71, 63
3, 18801, Note_on_c, 0, 71, 0
3, 18875, Note_on_c, 0, 67, 49
3, 18878, Note_on_c, 0, 52, 28
3, 18934, Control_c, 0, 64, 127
3, 18943, Note_on_c, 0, 67, 0
3, 18952, Note_on_c, 0, 59, 30
3, 19001, Note_on_c, 0, 52, 0
3, 19009, Note_on_c, 0, 78, 36
3, 19012, Note_on_c, 0, 59, 0
3, 19021, Note_on_c, 0, 64, 24
3, 19071, Note_on_c, 0, 78, 0
3, 19076, Control_c, 0, 64, 0
3, 19076, Note_on_c, 0, 79, 59
3, 19077, Note_on_c, 0, 66, 42
3, 19079, Note_on_c, 0, 64, 0
3, 19090, Control_c, 0, 64, 127
3, 19171, Note_on_c, 0, 66, 0
3, 19192, Note_on_c, 0, 69, 37
3, 19194, Note_on_c, 0, 79, 0
3, 19256, Note_on_c, 0, 69, 0
3, 19258, Note_on_c, 0, 59, 27
3, 19273, Note_on_c, 0, 59, 0
3, 19331, Note_on_c, 0, 59, 20
3, 19383, Control_c, 0, 64, 0
3, 19385, Note_on_c, 0, 59, 0
3, 19387, Note_on_c, 0, 52, 37
3, 19389, Note_on_c, 0, 64, 38
3, 19421, Control_c, 0, 64, 127
3, 19442, Note_on_c, 0, 64, 0
3, 19447, Note_on_c, 0, 66, 37
3, 19455, Note_on_c, 0, 66, 0
3, 19457, Note_on_c, 0, 59, 32
3, 19508, Note_on_c, 0, 74, 70
3, 19557, Note_on_c, 0, 74, 0
3, 19574, Note_on_c, 0, 78, 79
3, 19591, Note_on_c, 0, 64, 8
3, 19607, Control_c, 0, 64, 0
3, 19626, Note_on_c, 0, 78, 0
3, 19639, Note_on_c, 0, 69, 45
3, 19639, Control_c, 0, 64, 127
3, 19661, Note_on_c, 0, 59, 0
3, 19701, Note_on_c, 0, 59, 24
3, 19721, Note_on_c, 0, 64, 0
3, 19730, Note_on_c, 0, 52, 0
3, 19762, Note_on_c, 0, 66, 39
3, 19770, Note_on_c, 0, 69, 0
3, 19818, Note_on_c, 0, 59, 0
3, 19828, Note_on_c, 0, 52, 33
3, 19838, Note_on_c, 0, 52, 0
3, 19886, Control_c, 0, 64, 0
3, 19889, Note_on_c, 0, 66, 0
3, 19890, Note_on_c, 0, 64, 33
3, 19891, Note_on_c, 0, 48, 24
3, 19928, Control_c, 0, 64, 127
3, 19949, Note_on_c, 0, 64, 0
3, 19961, Note_on_c, 0, 48, 0
3, 20021, Note_on_c, 0, 57, 31
3, 20085, Note_on_c, 0, 81, 49
3, 20085, Note_on_c, 0, 74, 43
3, 20087, Note_on_c, 0, 58, 31
3, 20127, Note_on_c, 0, 81, 0
3, 20133, Note_on_c, 0, 74, 0
3, 20145, Note_on_c, 0, 78, 25
3, 20149, Note_on_c, 0, 69, 36
3, 20151, Note_on_c, 0, 62, 45
3, 20169, Note_on_c, 0, 69, 0
3, 20183, Note_on_c, 0, 78, 0
3, 20218, Note_on_c, 0, 93, 92
3, 20221, Note_on_c, 0, 88, 70
3, 20221, Note_on_c, 0, 86, 74
3, 20226, Note_on_c, 0, 58, 0
3, 20228, Note_on_c, 0, 88, 0
3, 20273, Note_on_c, 0, 93, 0
3, 20277, Note_on_c, 0, 90, 57
3, 20279, Note_on_c, 0, 81, 55
3, 20288, Note_on_c, 0, 86, 0
3, 20303, Note_on_c, 0, 90, 0
3, 20322, Note_on_c, 0, 81, 0
3, 20340, Note_on_c, 0, 58, 29
3, 20341, Note_on_c, 0, 62, 0
3, 20464, Note_on_c, 0, 78, 30
3, 20469, Note_on_c, 0, 62, 39
3, 20470, Note_on_c, 0, 69, 31
3, 20473, Note_on_c, 0, 74, 22
3, 20481, Note_on_c, 0, 69, 0
3, 20483, Note_on_c, 0, 74, 0
3, 20493, Note_on_c, 0, 78, 0
3, 20499, Note_on_c, 0, 58, 0
3, 20532, Note_on_c, 0, 58, 32
3, 20541, Note_on_c, 0, 62, 0
3, 20592, Note_on_c, 0, 98, 94
3, 20593, Note_on_c, 0, 105, 88
3, 20594, Note_on_c, 0, 62, 65
3, 20621, Note_on_c, 0, 58, 0
3, 20647, Note_on_c, 0, 105, 0
3, 20648, Note_on_c, 0, 98, 0
3, 20653, Note_on_c, 0, 57, 0
3, 20654, Note_on_c, 0, 102, 44
3, 20656, Note_on_c, 0, 93, 57
3, 20662, Note_on_c, 0, 102, 0
3, 20676, Note_on_c, 0, 93, 0
3, 20715, Note_on_c, 0, 58, 25
3, 20726, Note_on_c, 0, 62, 0
3, 20780, Note_on_c, 0, 93, 47
3, 20782, Note_on_c, 0, 81, 32
3, 20782, Note_on_c, 0, 90, 34
3, 20783, Note_on_c, 0, 86, 42
3, 20783, Note_on_c, 0, 62, 34
3, 20810, Note_on_c, 0, 58, 0
3, 20821, Note_on_c, 0, 86, 0
3, 20823, Note_on_c, 0, 93, 0
3, 20825, Note_on_c, 0, 90, 0
3, 20838, Note_on_c, 0, 81, 0
3, 20851, Note_on_c, 0, 58, 19
3, 20894, Note_on_c, 0, 58, 0
3, 20906, Note_on_c, 0, 62, 0
3, 20906, Note_on_c, 0, 78, 34
3, 20907, Note_on_c, 0, 90, 37
3, 20912, Control_c, 0, 64, 0
3, 20950, Note_on_c, 0, 52, 1
3, 20958, Control_c, 0, 64, 127
3, 21030, Note_on_c, 0, 59, 26
3, 21033, Note_on_c, 0, 78, 0
3, 21036, Note_on_c, 0, 90, 0
3, 21036, Note_on_c, 0, 91, 62
3, 21040, Note_on_c, 0, 79, 35
3, 21066, Note_on_c, 0, 91, 0
3, 21082, Note_on_c, 0, 79, 0
3, 21092, Note_on_c, 0, 52, 0
3, 21098, Note_on_c, 0, 64, 36
3, 21108, Note_on_c, 0, 59, 0
3, 21157, Note_on_c, 0, 71, 47
3, 21160, Note_on_c, 0, 66, 25
3, 21164, Note_on_c, 0, 64, 0
3, 21179, Note_on_c, 0, 71, 0
3, 21222, Note_on_c, 0, 78, 67
3, 21271, Note_on_c, 0, 78, 0
3, 21281, Note_on_c, 0, 66, 0
3, 21283, Note_on_c, 0, 81, 81
3, 21286, Note_on_c, 0, 71, 22
3, 21314, Note_on_c, 0, 71, 0
3, 21341, Note_on_c, 0, 76, 58
3, 21342, Note_on_c, 0, 81, 0
3, 21349, Note_on_c, 0, 67, 33
3, 21390, Note_on_c, 0, 67, 0
3, 21402, Note_on_c, 0, 76, 0
3, 21402, Control_c, 0, 64, 0
3, 21404, Note_on_c, 0, 78, 47
3, 21409, Note_on_c, 0, 64, 20
3, 21425, Control_c, 0, 64, 127
3, 21451, Note_on_c, 0, 64, 0
3, 21460, Note_on_c, 0, 78, 0
3, 21464, Note_on_c, 0, 71, 24
3, 21523, Note_on_c, 0, 71, 0
3, 21528, Note_on_c, 0, 76, 42
3, 21533, Note_on_c, 0, 59, 9
3, 21578, Note_on_c, 0, 76, 0
3, 21589, Note_on_c, 0, 66, 25
3, 21647, Note_on_c, 0, 52, 31
3, 21648, Control_c, 0, 64, 0
3, 21653, Note_on_c, 0, 59, 0
3, 21674, Control_c, 0, 64, 127
3, 21711, Note_on_c, 0, 59, 30
3, 21764, Note_on_c, 0, 66, 0
3, 21774, Note_on_c, 0, 59, 0
3, 21774, Note_on_c, 0, 71, 48
3, 21787, Note_on_c, 0, 52, 0
3, 21824, Note_on_c, 0, 71, 0
3, 21837, Note_on_c, 0, 64, 44
3, 21891, Control_c, 0, 64, 0
3, 21899, Note_on_c, 0, 66, 77
3, 21902, Note_on_c, 0, 36, 24
3, 21910, Note_on_c, 0, 64, 0
3, 21945, Control_c, 0, 64, 127
3, 21963, Note_on_c, 0, 48, 41
3, 21976, Note_on_c, 0, 36, 0
3, 21992, Note_on_c, 0, 48, 0
3, 22030, Note_on_c, 0, 62, 50
3, 22113, Note_on_c, 0, 55, 59
3, 22204, Note_on_c, 0, 55, 0
3, 22209, Note_on_c, 0, 57, 74
3, 22238, Note_on_c, 0, 66, 0
3, 22284, Note_on_c, 0, 62, 0
3, 22291, Note_on_c, 0, 58, 73
3, 22301, Note_on_c, 0, 57, 0
3, 22369, Note_on_c, 0, 69, 69
3, 22371, Note_on_c, 0, 62, 58
3, 22422, Note_on_c, 0, 69, 0
3, 22445, Note_on_c, 0, 67, 48
3, 22449, Note_on_c, 0, 74, 63
3, 22453, Note_on_c, 0, 67, 0
3, 22467, Note_on_c, 0, 62, 0
3, 22474, Note_on_c, 0, 58, 0
3, 22526, Note_on_c, 0, 58, 43
3, 22526, Note_on_c, 0, 78, 52
3, 22528, Note_on_c, 0, 74, 0
3, 22545, Note_on_c, 0, 78, 0
3, 22610, Note_on_c, 0, 81, 42
3, 22611, Note_on_c, 0, 62, 41
3, 22656, Note_on_c, 0, 58, 0
3, 22705, Note_on_c, 0, 81, 0
3, 22712, Note_on_c, 0, 86, 53
3, 22721, Note_on_c, 0, 58, 19
3, 22748, Note_on_c, 0, 62, 0
3, 22752, Note_on_c, 0, 58, 0
3, 22803, Note_on_c, 0, 86, 0
3, 22827, Note_on_c, 0, 90, 37
3, 22828, Note_on_c, 0, 58, 25
3, 22880, Note_on_c, 0, 58, 0
3, 22880, Note_on_c, 0, 90, 0
3, 22885, Note_on_c, 0, 83, 35
3, 22887, Note_on_c, 0, 52, 30
3, 22891, Control_c, 0, 64, 0
3, 22892, Note_on_c, 0, 91, 36
3, 22935, Control_c, 0, 64, 127
3, 22938, Note_on_c, 0, 91, 0
3, 22946, Note_on_c, 0, 83, 0
3, 22956, Note_on_c, 0, 59, 24
3, 23071, Note_on_c, 0, 78, 46
3, 23075, Note_on_c, 0, 71, 49
3, 23079, Note_on_c, 0, 69, 64
3, 23083, Note_on_c, 0, 64, 30
3, 23100, Note_on_c, 0, 69, 0
3, 23116, Note_on_c, 0, 69, 12
3, 23136, Note_on_c, 0, 59, 0
3, 23187, Note_on_c, 0, 69, 0
3, 23203, Note_on_c, 0, 59, 39
3, 23222, Note_on_c, 0, 59, 0
3, 23227, Note_on_c, 0, 64, 0
3, 23247, Note_on_c, 0, 71, 0
3, 23250, Note_on_c, 0, 78, 0
3, 23287, Note_on_c, 0, 59, 12
3, 23297, Note_on_c, 0, 52, 0
3, 23340, Note_on_c, 0, 52, 34
3, 23352, Note_on_c, 0, 52, 0
3, 23402, Note_on_c, 0, 52, 56
3, 23412, Note_on_c, 0, 59, 0
3, 23420, Control_c, 0, 64, 0
3, 23463, Note_on_c, 0, 55, 49
3, 23472, Control_c, 0, 64, 127
3, 23519, Note_on_c, 0, 66, 47
3, 23520, Note_on_c, 0, 62, 57
3, 23526, Control_c, 0, 64, 0
3, 23527, Note_on_c, 0, 57, 42
3, 23570, Control_c, 0, 64, 127
3, 23581, Note_on_c, 0, 62, 0
3, 23583, Note_on_c, 0, 69, 62
3, 23586, Note_on_c, 0, 66, 0
3, 23587, Note_on_c, 0, 59, 37
3, 23598, Note_on_c, 0, 69, 0
3, 23610, Note_on_c, 0, 55, 0
3, 23623, Note_on_c, 0, 57, 0
3, 23645, Note_on_c, 0, 81, 74
3, 23645, Note_on_c, 0, 74, 80
3, 23704, Note_on_c, 0, 59, 0
3, 23708, Note_on_c, 0, 81, 0
3, 23710, Note_on_c, 0, 78, 35
3, 23712, Note_on_c, 0, 57, 39
3, 23716, Note_on_c, 0, 69, 30
3, 23724, Note_on_c, 0, 57, 0
3, 23726, Note_on_c, 0, 74, 0
3, 23736, Note_on_c, 0, 52, 0
3, 23763, Note_on_c, 0, 69, 0
3, 23765, Note_on_c, 0, 78, 0
3, 23827, Note_on_c, 0, 43, 38
3, 23830, Note_on_c, 0, 78, 34
3, 23863, Note_on_c, 0, 78, 0
3, 23897, Note_on_c, 0, 36, 46
3, 23899, Note_on_c, 0, 81, 53
3, 23901, Control_c, 0, 64, 0
3, 23903, Note_on_c, 0, 78, 42
3, 23904, Note_on_c, 0, 70, 39
3, 23905, Note_on_c, 0, 74, 49
3, 23909, Note_on_c, 0, 52, 29
3, 23918, Note_on_c, 0, 43, 0
3, 23956, Control_c, 0, 64, 127
3, 23974, Note_on_c, 0, 43, 39
3, 23992, Note_on_c, 0, 52, 0
3, 24025, Note_on_c, 0, 36, 0
3, 24036, Note_on_c, 0, 43, 0
3, 24041, Note_on_c, 0, 52, 40
3, 24051, Note_on_c, 0, 52, 0
3, 24120, Note_on_c, 0, 58, 44
3, 24197, Note_on_c, 0, 62, 57
3, 24222, Note_on_c, 0, 58, 0
3, 24274, Note_on_c, 0, 66, 39
3, 24281, Note_on_c, 0, 81, 0
3, 24291, Note_on_c, 0, 74, 0
3, 24326, Note_on_c, 0, 70, 0
3, 24346, Note_on_c, 0, 78, 0
3, 24351, Note_on_c, 0, 69, 54
3, 24390, Note_on_c, 0, 70, 71
3, 24392, Note_on_c, 0, 69, 0
3, 24411, Note_on_c, 0, 70, 0
3, 24429, Note_on_c, 0, 74, 74
3, 24463, Note_on_c, 0, 74, 0
3, 24464, Note_on_c, 0, 78, 70
3, 24490, Note_on_c, 0, 78, 0
3, 24496, Note_on_c, 0, 81, 68
3, 24529, Note_on_c, 0, 81, 0
3, 24531, Note_on_c, 0, 78, 65
3, 24548, Note_on_c, 0, 78, 0
3, 24557, Note_on_c, 0, 79, 60
3, 24590, Note_on_c, 0, 81, 58
3, 24592, Note_on_c, 0, 79, 0
3, 24595, Note_on_c, 0, 66, 0
3, 24619, Note_on_c, 0, 81, 0
3, 24623, Note_on_c, 0, 82, 57
3, 24637, Note_on_c, 0, 82, 0
3, 24656, Note_on_c, 0, 86, 65
3, 24677, Note_on_c, 0, 86, 0
3, 24688, Note_on_c, 0, 90, 61
3, 24710, Note_on_c, 0, 90, 0
3, 24721, Note_on_c, 0, 93, 72
3, 24747, Note_on_c, 0, 93, 0
3, 24756, Note_on_c, 0, 90, 52
3, 24775, Note_on_c, 0, 90, 0
3, 24787, Note_on_c, 0, 91, 52
3, 24811, Note_on_c, 0, 91, 0
3, 24828, Note_on_c, 0, 93, 48
3, 24848, Note_on_c, 0, 93, 0
3, 24860, Note_on_c, 0, 94, 53
3, 24878, Note_on_c, 0, 94, 0
3, 24901, Note_on_c, 0, 98, 59
3, 24912, Note_on_c, 0, 66, 19
3, 24928, Note_on_c, 0, 98, 0
3, 24931, Note_on_c, 0, 66, 0
3, 24938, Note_on_c, 0, 62, 0
3, 24941, Note_on_c, 0, 102, 52
3, 24970, Note_on_c, 0, 102, 0
3, 24985, Note_on_c, 0, 103, 49
3, 25031, Note_on_c, 0, 105, 62
3, 25042, Note_on_c, 0, 103, 0
3, 25087, Note_on_c, 0, 105, 0
3, 25093, Note_on_c, 0, 52, 33
3, 25093, Note_on_c, 0, 107, 60
3, 25102, Control_c, 0, 64, 0
3, 25140, Control_c, 0, 64, 127
3, 25143, Note_on_c, 0, 107, 0
3, 25172, Note_on_c, 0, 59, 31
3, 25226, Note_on_c, 0, 52, 0
3, 25238, Note_on_c, 0, 59, 0
3, 25251, Note_on_c, 0, 81, 24
3, 25252, Note_on_c, 0, 71, 28
3, 25255, Note_on_c, 0, 76, 40
3, 25255, Note_on_c, 0, 64, 25
3, 25312, Note_on_c, 0, 71, 0
3, 25318, Note_on_c, 0, 76, 0
3, 25329, Note_on_c, 0, 81, 0
3, 25335, Note_on_c, 0, 66, 25
3, 25342, Note_on_c, 0, 64, 0
3, 25420, Note_on_c, 0, 86, 41
3, 25422, Note_on_c, 0, 93, 40
3, 25429, Note_on_c, 0, 69, 29
3, 25483, Note_on_c, 0, 86, 0
3, 25497, Note_on_c, 0, 93, 0
3, 25510, Note_on_c, 0, 90, 21
3, 25512, Note_on_c, 0, 69, 0
3, 25515, Note_on_c, 0, 81, 27
3, 25517, Note_on_c, 0, 74, 24
3, 25574, Note_on_c, 0, 81, 0
3, 25591, Note_on_c, 0, 90, 0
3, 25627, Note_on_c, 0, 69, 24
3, 25627, Note_on_c, 0, 81, 20
3, 25628, Note_on_c, 0, 86, 26
3, 25644, Note_on_c, 0, 66, 0
3, 25670, Note_on_c, 0, 74, 0
3, 25682, Note_on_c, 0, 81, 0
3, 25683, Note_on_c, 0, 86, 0
3, 25722, Note_on_c, 0, 69, 0
3, 25726, Note_on_c, 0, 66, 25
3, 25745, Note_on_c, 0, 66, 0
3, 25838, Note_on_c, 0, 90, 25
3, 25840, Note_on_c, 0, 81, 30
3, 25842, Note_on_c, 0, 52, 24
3, 25864, Note_on_c, 0, 81, 0
3, 25902, Note_on_c, 0, 90, 0
3, 25934, Note_on_c, 0, 59, 29
3, 26026, Note_on_c, 0, 64, 26
3, 26027, Note_on_c, 0, 95, 26
3, 26037, Note_on_c, 0, 64, 0
3, 26038, Note_on_c, 0, 59, 0
3, 26053, Note_on_c, 0, 52, 0
3, 26122, Note_on_c, 0, 102, 42
3, 26123, Note_on_c, 0, 40, 32
3, 26142, Note_on_c, 0, 40, 0
3, 26223, Note_on_c, 0, 102, 0
3, 26232, Note_on_c, 0, 103, 32
3, 26249, Note_on_c, 0, 35, 27
3, 26275, Note_on_c, 0, 103, 0
3, 26323, Note_on_c, 0, 95, 0
3, 26352, Note_on_c, 0, 107, 44
3, 26357, Note_on_c, 0, 28, 31
3, 26362, Note_on_c, 0, 35, 0
3, 26420, Note_on_c, 0, 28, 0
3, 26447, Note_on_c, 0, 107, 0
3, 26501, Note_on_c, 0, 107, 42
3, 26509, Note_on_c, 0, 28, 29
3, 26624, Note_on_c, 0, 28, 0
3, 26634, Note_on_c, 0, 107, 0
3, 26710, Note_on_c, 0, 107, 32
3, 26716, Note_on_c, 0, 28, 26
3, 26752, Note_on_c, 0, 107, 0
3, 26772, Note_on_c, 0, 28, 0
3, 27095, Control_c, 0, 64, 0
3, 27095, End_track
0, 0, End_of_file
