0, 0, Header, 0, 1, 384
1, 0, Start_track
1, 0, Title_t, "untitled"
1, 0, Text_t, "Doug McK\012"
1, 0, System_exclusive, 5, 126, 127, 9, 1, 247
1, 0, Time_signature, 4, 2, 24, 8
1, 0, Key_signature, 0, "major"
1, 0, Tempo, 600000
1, 0, Tempo, 500000
1, 0, Sequencer_specific, 21, 67, 115, 10, 0, 5, 75, 90, 79, 79, 79, 79, 79, 79, 79, 90, 79, 79, 79, 79, 79, 79
1, 0, Sequencer_specific, 6, 67, 115, 10, 0, 4, 1
1, 0, Sequencer_specific, 9, 67, 123, 0, 88, 70, 48, 50, 0, 0
1, 384, Control_c, 0, 0, 0
1, 384, Control_c, 0, 32, 0
1, 384, Program_c, 0, 0
1, 385, Control_c, 0, 7, 107
1, 385, Control_c, 0, 10, 64
1, 385, Control_c, 0, 91, 10
1, 385, Control_c, 0, 93, 0
1, 402, Program_c, 9, 32
1, 403, Control_c, 9, 7, 83
1, 768, Control_c, 0, 11, 127
1, 768, Control_c, 0, 94, 0
1, 768, Control_c, 0, 101, 0
1, 769, Control_c, 0, 100, 1
1, 770, Control_c, 0, 6, 64
1, 771, Control_c, 0, 38, 0
1, 772, Control_c, 0, 71, 43
1, 772, Control_c, 0, 74, 46
1, 772, Control_c, 0, 64, 0
1, 772, Control_c, 1, 0, 0
1, 1536, Time_signature, 3, 2, 24, 8
1, 1536, Control_c, 1, 0, 0
1, 1536, Control_c, 1, 32, 122
1, 1536, Control_c, 1, 0, 0
1, 1536, Control_c, 1, 32, 122
1, 1536, Note_on_c, 0, 55, 36
1, 1536, Note_on_c, 0, 71, 75
1, 1536, Control_c, 1, 32, 122
1, 1536, Note_on_c, 0, 62, 47
1, 1536, Note_on_c, 0, 66, 54
1, 1536, Program_c, 1, 32
1, 1536, Note_on_c, 9, 36, 40
1, 1536, Note_on_c, 9, 36, 0
1, 1552, Control_c, 1, 7, 100
1, 1552, Note_on_c, 1, 43, 124
1, 1560, Note_on_c, 0, 59, 49
1, 1560, Note_on_c, 9, 59, 96
1, 1572, Control_c, 0, 64, 127
1, 1600, Note_on_c, 9, 36, 26
1, 1624, Note_on_c, 9, 36, 0
1, 1624, Note_on_c, 9, 59, 0
1, 1926, Note_on_c, 9, 59, 72
1, 1948, Note_on_c, 0, 71, 0
1, 1960, Note_on_c, 0, 78, 67
1, 1984, Note_on_c, 9, 59, 0
1, 2178, Note_on_c, 9, 36, 36
1, 2204, Note_on_c, 9, 36, 0
1, 2232, Note_on_c, 9, 59, 77
1, 2240, Note_on_c, 0, 74, 61
1, 2246, Note_on_c, 1, 39, 51
1, 2268, Note_on_c, 1, 39, 0
1, 2268, Control_c, 0, 64, 0
1, 2274, Note_on_c, 1, 43, 0
1, 2284, Note_on_c, 0, 62, 0
1, 2296, Note_on_c, 9, 59, 0
1, 2296, Control_c, 0, 64, 127
1, 2316, Note_on_c, 0, 66, 0
1, 2320, Note_on_c, 0, 59, 0
1, 2320, Note_on_c, 1, 42, 111
1, 2338, Note_on_c, 9, 59, 80
1, 2352, Note_on_c, 0, 55, 0
1, 2408, Note_on_c, 9, 59, 0
1, 2608, Note_on_c, 0, 78, 0
1, 2624, Note_on_c, 0, 74, 0
1, 2678, Note_on_c, 1, 42, 0
1, 2696, Note_on_c, 1, 40, 108
1, 2696, Note_on_c, 9, 59, 99
1, 2728, Note_on_c, 0, 62, 45
1, 2736, Note_on_c, 0, 59, 43
1, 2744, Note_on_c, 0, 52, 39
1, 2752, Note_on_c, 0, 55, 36
1, 2756, Control_c, 0, 64, 24
1, 2760, Control_c, 0, 64, 0
1, 2834, Note_on_c, 9, 59, 0
1, 3100, Control_c, 0, 64, 127
1, 3188, Note_on_c, 0, 52, 0
1, 3216, Note_on_c, 0, 55, 0
1, 3244, Note_on_c, 0, 59, 0
1, 3272, Note_on_c, 0, 62, 0
1, 3324, Note_on_c, 1, 34, 99
1, 3350, Note_on_c, 9, 38, 39
1, 3356, Note_on_c, 9, 59, 87
1, 3364, Note_on_c, 0, 83, 61
1, 3376, Note_on_c, 1, 40, 0
1, 3382, Note_on_c, 9, 38, 0
1, 3416, Note_on_c, 9, 59, 0
1, 3424, Note_on_c, 0, 83, 0
1, 3424, Note_on_c, 1, 34, 0
1, 3472, Note_on_c, 1, 33, 109
1, 3490, Note_on_c, 9, 38, 24
1, 3492, Control_c, 0, 64, 0
1, 3524, Note_on_c, 0, 90, 102
1, 3536, Note_on_c, 9, 38, 0
1, 3730, Note_on_c, 9, 36, 30
1, 3744, Note_on_c, 0, 90, 0
1, 3766, Note_on_c, 9, 36, 0
1, 3776, Note_on_c, 0, 86, 66
1, 3784, Note_on_c, 0, 64, 44
1, 3788, Note_on_c, 0, 60, 50
1, 3788, Note_on_c, 0, 55, 46
1, 3800, Note_on_c, 0, 59, 39
1, 3848, Note_on_c, 9, 36, 32
1, 3908, Note_on_c, 0, 86, 0
1, 4004, Note_on_c, 0, 86, 38
1, 4064, Control_c, 0, 64, 127
1, 4104, Note_on_c, 9, 36, 0
1, 4164, Note_on_c, 0, 86, 0
1, 4192, Note_on_c, 0, 55, 0
1, 4216, Note_on_c, 0, 64, 0
1, 4232, Note_on_c, 0, 59, 0
1, 4232, Note_on_c, 0, 60, 0
1, 4246, Note_on_c, 9, 59, 63
1, 4272, Note_on_c, 0, 90, 83
1, 4276, Control_c, 0, 64, 0
1, 4280, Note_on_c, 0, 64, 43
1, 4284, Note_on_c, 0, 55, 44
1, 4284, Note_on_c, 0, 60, 36
1, 4292, Note_on_c, 0, 59, 35
1, 4316, Note_on_c, 9, 59, 0
1, 4428, Note_on_c, 0, 64, 0
1, 4432, Note_on_c, 0, 59, 0
1, 4436, Note_on_c, 0, 55, 0
1, 4468, Note_on_c, 0, 60, 0
1, 4476, Note_on_c, 1, 40, 89
1, 4502, Note_on_c, 9, 59, 74
1, 4514, Note_on_c, 1, 33, 0
1, 4528, Note_on_c, 0, 90, 0
1, 4528, Note_on_c, 1, 40, 0
1, 4548, Note_on_c, 0, 86, 53
1, 4562, Note_on_c, 9, 59, 0
1, 4608, Note_on_c, 0, 86, 0
1, 4614, Note_on_c, 1, 40, 113
1, 4784, Note_on_c, 0, 86, 45
1, 4816, Note_on_c, 9, 53, 74
1, 4834, Note_on_c, 9, 59, 87
1, 4864, Note_on_c, 0, 86, 0
1, 4876, Note_on_c, 9, 53, 0
1, 4918, Note_on_c, 9, 59, 0
1, 4936, Note_on_c, 1, 40, 0
1, 4966, Note_on_c, 1, 38, 99
1, 4980, Control_c, 0, 64, 127
1, 5012, Note_on_c, 0, 86, 51
1, 5020, Note_on_c, 0, 64, 39
1, 5024, Note_on_c, 0, 60, 42
1, 5024, Note_on_c, 0, 54, 37
1, 5048, Note_on_c, 9, 59, 79
1, 5196, Note_on_c, 9, 59, 0
1, 5268, Note_on_c, 0, 86, 0
1, 5324, Note_on_c, 9, 53, 71
1, 5350, Note_on_c, 9, 59, 81
1, 5360, Note_on_c, 0, 64, 0
1, 5366, Note_on_c, 1, 50, 127
1, 5400, Note_on_c, 9, 53, 0
1, 5404, Note_on_c, 0, 60, 0
1, 5464, Note_on_c, 1, 38, 0
1, 5490, Note_on_c, 9, 59, 0
1, 5496, Note_on_c, 0, 54, 0
1, 5632, Note_on_c, 0, 54, 41
1, 5632, Note_on_c, 9, 59, 76
1, 5654, Note_on_c, 1, 38, 81
1, 5702, Note_on_c, 1, 50, 0
1, 5728, Control_c, 0, 64, 0
1, 5744, Note_on_c, 9, 59, 0
1, 5748, Note_on_c, 0, 66, 63
1, 5756, Note_on_c, 1, 38, 0
1, 5764, Note_on_c, 0, 62, 52
1, 5764, Note_on_c, 0, 71, 59
1, 5766, Note_on_c, 1, 48, 101
1, 5772, Note_on_c, 0, 59, 43
1, 5796, Note_on_c, 0, 54, 0
1, 5812, Note_on_c, 0, 59, 0
1, 5828, Note_on_c, 0, 66, 0
1, 5832, Note_on_c, 0, 67, 48
1, 5848, Note_on_c, 0, 62, 0
1, 5864, Note_on_c, 0, 67, 0
1, 5868, Note_on_c, 0, 71, 0
1, 5904, Note_on_c, 9, 59, 79
1, 5920, Note_on_c, 9, 53, 80
1, 5986, Note_on_c, 9, 53, 0
1, 6012, Note_on_c, 9, 36, 30
1, 6018, Note_on_c, 1, 42, 76
1, 6028, Note_on_c, 0, 57, 58
1, 6028, Note_on_c, 0, 66, 53
1, 6040, Note_on_c, 0, 69, 57
1, 6040, Note_on_c, 0, 62, 52
1, 6050, Note_on_c, 9, 36, 0
1, 6054, Note_on_c, 9, 59, 0
1, 6060, Note_on_c, 1, 42, 0
1, 6084, Note_on_c, 0, 57, 0
1, 6092, Note_on_c, 1, 48, 0
1, 6108, Note_on_c, 0, 62, 0
1, 6112, Note_on_c, 0, 66, 0
1, 6134, Note_on_c, 9, 36, 29
1, 6146, Note_on_c, 1, 47, 104
1, 6156, Note_on_c, 0, 69, 0
1, 6182, Note_on_c, 9, 59, 79
1, 6274, Note_on_c, 9, 36, 0
1, 6368, Note_on_c, 9, 59, 0
1, 6428, Note_on_c, 0, 59, 63
1, 6428, Note_on_c, 0, 62, 66
1, 6432, Note_on_c, 0, 67, 66
1, 6440, Note_on_c, 0, 55, 56
1, 6456, Note_on_c, 0, 54, 38
1, 6500, Note_on_c, 0, 54, 0
1, 6564, Control_c, 0, 64, 127
1, 6768, Note_on_c, 1, 43, 81
1, 6816, Note_on_c, 9, 59, 67
1, 6824, Note_on_c, 1, 43, 0
1, 6836, Note_on_c, 0, 59, 0
1, 6860, Note_on_c, 9, 59, 0
1, 6896, Note_on_c, 1, 38, 102
1, 6908, Note_on_c, 1, 47, 0
1, 6940, Note_on_c, 9, 59, 72
1, 6948, Note_on_c, 0, 67, 0
1, 6956, Note_on_c, 0, 69, 75
1, 6980, Note_on_c, 0, 55, 0
1, 7012, Note_on_c, 0, 62, 0
1, 7016, Note_on_c, 9, 59, 0
1, 7064, Note_on_c, 0, 69, 0
1, 7174, Note_on_c, 0, 71, 80
1, 7174, Note_on_c, 9, 38, 40
1, 7216, Note_on_c, 9, 38, 0
1, 7244, Note_on_c, 0, 71, 0
1, 7264, Note_on_c, 1, 38, 0
1, 7276, Note_on_c, 1, 31, 108
1, 7296, Note_on_c, 9, 59, 105
1, 7312, Note_on_c, 9, 38, 32
1, 7340, Note_on_c, 9, 38, 0
1, 7348, Control_c, 0, 64, 0
1, 7414, Note_on_c, 9, 59, 0
1, 7432, Note_on_c, 9, 38, 34
1, 7444, Note_on_c, 0, 70, 65
1, 7452, Note_on_c, 0, 76, 64
1, 7452, Note_on_c, 0, 68, 58
1, 7456, Note_on_c, 0, 64, 65
1, 7468, Note_on_c, 0, 65, 66
1, 7472, Note_on_c, 0, 71, 65
1, 7474, Note_on_c, 9, 38, 0
1, 7480, Note_on_c, 0, 74, 38
1, 7488, Note_on_c, 0, 70, 0
1, 7554, Note_on_c, 1, 38, 71
1, 7560, Note_on_c, 9, 36, 32
1, 7632, Note_on_c, 1, 38, 0
1, 7644, Note_on_c, 9, 36, 0
1, 7666, Note_on_c, 1, 48, 127
1, 7676, Note_on_c, 0, 74, 0
1, 7696, Note_on_c, 9, 59, 74
1, 7720, Control_c, 0, 64, 127
1, 7744, Note_on_c, 9, 59, 0
1, 7788, Note_on_c, 0, 64, 0
1, 7824, Note_on_c, 0, 76, 0
1, 7840, Note_on_c, 0, 65, 0
1, 7864, Note_on_c, 0, 68, 0
1, 7880, Note_on_c, 0, 71, 0
1, 7920, Control_c, 0, 64, 0
1, 7956, Note_on_c, 0, 68, 57
1, 7956, Note_on_c, 0, 74, 66
1, 7956, Note_on_c, 0, 65, 72
1, 7960, Note_on_c, 1, 38, 63
1, 7968, Note_on_c, 0, 71, 48
1, 7972, Note_on_c, 0, 62, 54
1, 7976, Note_on_c, 9, 59, 69
1, 8000, Note_on_c, 1, 38, 0
1, 8028, Note_on_c, 9, 59, 0
1, 8048, Note_on_c, 0, 71, 0
1, 8060, Control_c, 0, 64, 127
1, 8088, Note_on_c, 9, 59, 77
1, 8120, Note_on_c, 0, 65, 0
1, 8156, Note_on_c, 0, 68, 0
1, 8164, Note_on_c, 0, 74, 0
1, 8172, Note_on_c, 0, 62, 0
1, 8192, Note_on_c, 9, 59, 0
1, 8192, Note_on_c, 1, 47, 95
1, 8198, Note_on_c, 1, 48, 0
1, 8220, Note_on_c, 0, 71, 51
1, 8232, Note_on_c, 0, 72, 41
1, 8236, Note_on_c, 1, 47, 0
1, 8290, Note_on_c, 1, 38, 87
1, 8316, Note_on_c, 1, 31, 0
1, 8342, Note_on_c, 9, 38, 32
1, 8348, Note_on_c, 0, 71, 0
1, 8376, Note_on_c, 0, 72, 0
1, 8384, Note_on_c, 9, 38, 0
1, 8396, Note_on_c, 1, 38, 0
1, 8432, Control_c, 0, 64, 0
1, 8434, Note_on_c, 1, 36, 106
1, 8456, Note_on_c, 0, 64, 43
1, 8460, Note_on_c, 0, 67, 51
1, 8464, Note_on_c, 9, 59, 99
1, 8472, Note_on_c, 0, 62, 31
1, 8472, Note_on_c, 0, 52, 34
1, 8480, Note_on_c, 0, 57, 43
1, 8492, Note_on_c, 9, 36, 16
1, 8626, Note_on_c, 9, 36, 0
1, 8646, Note_on_c, 9, 59, 0
1, 8772, Note_on_c, 0, 64, 0
1, 8792, Control_c, 0, 64, 127
1, 8866, Note_on_c, 9, 59, 82
1, 8876, Note_on_c, 0, 67, 0
1, 9046, Note_on_c, 9, 59, 0
1, 9104, Note_on_c, 0, 57, 0
1, 9124, Note_on_c, 0, 52, 0
1, 9204, Note_on_c, 0, 62, 0
1, 9254, Note_on_c, 9, 44, 37
1, 9334, Note_on_c, 9, 44, 0
1, 9446, Note_on_c, 1, 43, 41
1, 9494, Note_on_c, 9, 59, 74
1, 9554, Note_on_c, 1, 43, 0
1, 9564, Control_c, 0, 64, 0
1, 9568, Note_on_c, 1, 36, 0
1, 9570, Note_on_c, 9, 59, 0
1, 9592, Note_on_c, 0, 67, 38
1, 9592, Note_on_c, 0, 63, 37
1, 9596, Note_on_c, 0, 62, 36
1, 9600, Note_on_c, 1, 41, 93
1, 9612, Note_on_c, 0, 57, 40
1, 9622, Note_on_c, 9, 59, 80
1, 9830, Note_on_c, 9, 59, 0
1, 9996, Note_on_c, 1, 53, 117
1, 10012, Note_on_c, 0, 81, 127
1, 10188, Note_on_c, 0, 67, 0
1, 10256, Note_on_c, 9, 38, 24
1, 10268, Note_on_c, 0, 81, 0
1, 10268, Note_on_c, 9, 59, 56
1, 10276, Note_on_c, 0, 80, 58
1, 10284, Note_on_c, 9, 38, 0
1, 10316, Note_on_c, 0, 67, 28
1, 10326, Note_on_c, 9, 59, 0
1, 10364, Note_on_c, 0, 67, 0
1, 10368, Note_on_c, 0, 80, 0
1, 10386, Note_on_c, 9, 46, 60
1, 10400, Note_on_c, 0, 63, 0
1, 10404, Note_on_c, 0, 62, 0
1, 10408, Note_on_c, 9, 59, 69
1, 10424, Note_on_c, 0, 81, 74
1, 10448, Note_on_c, 0, 57, 0
1, 10466, Note_on_c, 9, 46, 0
1, 10476, Control_c, 0, 64, 127
1, 10544, Note_on_c, 9, 59, 0
1, 10604, Note_on_c, 0, 81, 0
1, 10646, Note_on_c, 1, 41, 0
1, 10648, Note_on_c, 1, 47, 74
1, 10660, Note_on_c, 0, 80, 39
1, 10668, Note_on_c, 9, 59, 103
1, 10720, Note_on_c, 1, 53, 0
1, 10728, Note_on_c, 1, 47, 0
1, 10740, Control_c, 0, 64, 0
1, 10742, Note_on_c, 9, 59, 0
1, 10756, Note_on_c, 0, 80, 0
1, 10768, Note_on_c, 1, 40, 98
1, 10796, Note_on_c, 9, 59, 90
1, 10808, Note_on_c, 0, 81, 46
1, 10824, Note_on_c, 0, 59, 32
1, 10876, Note_on_c, 0, 64, 22
1, 10928, Note_on_c, 0, 64, 0
1, 10932, Note_on_c, 0, 59, 0
1, 11026, Note_on_c, 1, 56, 101
1, 11028, Note_on_c, 0, 81, 0
1, 11046, Note_on_c, 9, 59, 0
1, 11048, Note_on_c, 0, 83, 67
1, 11128, Note_on_c, 0, 83, 0
1, 11176, Note_on_c, 9, 59, 78
1, 11200, Note_on_c, 0, 76, 46
1, 11280, Note_on_c, 9, 59, 0
1, 11412, Note_on_c, 0, 76, 0
1, 11548, Note_on_c, 9, 59, 91
1, 11556, Note_on_c, 0, 76, 54
1, 11640, Note_on_c, 9, 59, 0
1, 11768, Note_on_c, 0, 76, 0
1, 11768, Control_c, 0, 64, 127
1, 11810, Note_on_c, 9, 36, 44
1, 11812, Control_c, 0, 64, 0
1, 11840, Note_on_c, 1, 40, 0
1, 11884, Note_on_c, 9, 36, 0
1, 11912, Note_on_c, 1, 37, 74
1, 11948, Note_on_c, 9, 59, 74
1, 11952, Note_on_c, 0, 82, 99
1, 11952, Note_on_c, 0, 59, 57
1, 11952, Note_on_c, 0, 49, 53
1, 11952, Note_on_c, 9, 36, 28
1, 12076, Note_on_c, 9, 59, 0
1, 12098, Note_on_c, 9, 36, 0
1, 12108, Note_on_c, 1, 56, 0
1, 12148, Note_on_c, 0, 82, 0
1, 12172, Note_on_c, 1, 53, 90
1, 12212, Note_on_c, 0, 83, 77
1, 12316, Note_on_c, 9, 59, 72
1, 12320, Note_on_c, 0, 83, 0
1, 12368, Note_on_c, 0, 76, 45
1, 12400, Note_on_c, 0, 59, 0
1, 12450, Note_on_c, 9, 59, 0
1, 12556, Note_on_c, 0, 76, 0
1, 12572, Note_on_c, 0, 59, 48
1, 12600, Note_on_c, 0, 49, 0
1, 12612, Note_on_c, 0, 59, 0
1, 12704, Control_c, 0, 64, 127
1, 12710, Note_on_c, 9, 59, 60
1, 12720, Note_on_c, 0, 76, 66
1, 12760, Note_on_c, 9, 59, 0
1, 12784, Note_on_c, 0, 76, 0
1, 12828, Note_on_c, 1, 53, 0
1, 12928, Note_on_c, 1, 52, 102
1, 12940, Note_on_c, 9, 38, 55
1, 12950, Note_on_c, 9, 51, 58
1, 12956, Note_on_c, 9, 53, 67
1, 12956, Note_on_c, 9, 59, 72
1, 12976, Control_c, 0, 64, 0
1, 12994, Note_on_c, 9, 38, 0
1, 13000, Note_on_c, 9, 51, 0
1, 13026, Note_on_c, 9, 53, 0
1, 13026, Note_on_c, 9, 59, 0
1, 13088, Note_on_c, 1, 42, 85
1, 13088, Note_on_c, 9, 38, 24
1, 13090, Note_on_c, 1, 37, 0
1, 13094, Note_on_c, 1, 52, 0
1, 13104, Note_on_c, 0, 60, 65
1, 13104, Note_on_c, 0, 64, 67
1, 13104, Note_on_c, 0, 79, 82
1, 13104, Note_on_c, 0, 83, 84
1, 13104, Note_on_c, 0, 71, 85
1, 13104, Note_on_c, 0, 57, 54
1, 13116, Note_on_c, 0, 54, 46
1, 13152, Control_c, 0, 64, 127
1, 13168, Note_on_c, 9, 38, 0
1, 13170, Note_on_c, 9, 59, 60
1, 13304, Note_on_c, 9, 59, 0
1, 13324, Note_on_c, 9, 36, 31
1, 13360, Note_on_c, 9, 36, 0
1, 13400, Note_on_c, 0, 71, 0
1, 13432, Note_on_c, 0, 57, 0
1, 13456, Note_on_c, 0, 79, 0
1, 13468, Note_on_c, 0, 83, 0
1, 13472, Note_on_c, 0, 64, 0
1, 13476, Note_on_c, 0, 54, 0
1, 13476, Note_on_c, 0, 60, 0
1, 13478, Note_on_c, 1, 45, 106
1, 13484, Note_on_c, 9, 36, 27
1, 13490, Note_on_c, 9, 59, 74
1, 13496, Note_on_c, 1, 42, 0
1, 13526, Note_on_c, 9, 36, 0
1, 13584, Note_on_c, 9, 59, 0
1, 13740, Note_on_c, 9, 59, 71
1, 13832, Note_on_c, 9, 59, 0
1, 14080, Note_on_c, 1, 48, 111
1, 14092, Note_on_c, 0, 64, 75
1, 14096, Note_on_c, 0, 54, 57
1, 14100, Note_on_c, 0, 88, 73
1, 14100, Note_on_c, 0, 60, 58
1, 14100, Note_on_c, 0, 76, 78
1, 14108, Note_on_c, 0, 84, 57
1, 14108, Note_on_c, 0, 81, 57
1, 14116, Note_on_c, 0, 57, 42
1, 14128, Note_on_c, 0, 60, 0
1, 14128, Note_on_c, 1, 45, 0
1, 14136, Note_on_c, 0, 64, 0
1, 14136, Note_on_c, 9, 38, 28
1, 14160, Note_on_c, 0, 57, 0
1, 14166, Note_on_c, 9, 38, 0
1, 14180, Note_on_c, 0, 81, 0
1, 14184, Note_on_c, 1, 48, 0
1, 14184, Note_on_c, 0, 76, 0
1, 14196, Note_on_c, 0, 54, 0
1, 14208, Note_on_c, 0, 84, 0
1, 14208, Note_on_c, 0, 88, 0
1, 14236, Note_on_c, 1, 47, 83
1, 14248, Control_c, 0, 64, 0
1, 14292, Note_on_c, 0, 51, 62
1, 14292, Note_on_c, 0, 62, 70
1, 14292, Note_on_c, 0, 88, 63
1, 14292, Note_on_c, 0, 84, 57
1, 14312, Note_on_c, 0, 57, 50
1, 14372, Note_on_c, 0, 84, 0
1, 14376, Note_on_c, 0, 88, 0
1, 14416, Note_on_c, 0, 51, 0
1, 14440, Note_on_c, 0, 62, 0
1, 14448, Note_on_c, 0, 57, 0
1, 14470, Note_on_c, 1, 45, 72
1, 14476, Note_on_c, 9, 38, 30
1, 14486, Note_on_c, 9, 59, 64
1, 14512, Note_on_c, 9, 38, 0
1, 14518, Note_on_c, 1, 47, 0
1, 14528, Note_on_c, 1, 45, 0
1, 14550, Note_on_c, 9, 59, 0
1, 14572, Note_on_c, 1, 48, 91
1, 14608, Note_on_c, 0, 83, 98
1, 14614, Note_on_c, 0, 74, 92
1, 14614, Note_on_c, 0, 79, 92
1, 14614, Note_on_c, 9, 59, 73
1, 14624, Note_on_c, 0, 62, 94
1, 14624, Note_on_c, 0, 51, 86
1, 14628, Note_on_c, 0, 57, 72
1, 14684, Note_on_c, 9, 59, 0
1, 14706, Note_on_c, 9, 44, 36
1, 14732, Control_c, 0, 64, 127
1, 14752, Note_on_c, 9, 44, 0
1, 14834, Note_on_c, 1, 47, 63
1, 14848, Note_on_c, 9, 38, 28
1, 14870, Note_on_c, 1, 47, 0
1, 14870, Note_on_c, 9, 59, 118
1, 14876, Note_on_c, 9, 38, 0
1, 14928, Note_on_c, 1, 48, 0
1, 14928, Note_on_c, 0, 57, 0
1, 14948, Note_on_c, 0, 79, 0
1, 14960, Note_on_c, 1, 50, 80
1, 14968, Note_on_c, 0, 83, 0
1, 14972, Note_on_c, 9, 44, 33
1, 14980, Note_on_c, 0, 51, 0
1, 15008, Note_on_c, 0, 74, 0
1, 15016, Note_on_c, 0, 62, 0
1, 15026, Note_on_c, 9, 44, 0
1, 15094, Note_on_c, 9, 44, 38
1, 15120, Note_on_c, 9, 44, 0
1, 15176, Note_on_c, 1, 50, 0
1, 15176, Note_on_c, 0, 81, 80
1, 15180, Note_on_c, 0, 62, 66
1, 15184, Note_on_c, 0, 77, 76
1, 15184, Note_on_c, 0, 51, 54
1, 15184, Note_on_c, 0, 72, 70
1, 15204, Note_on_c, 0, 57, 43
1, 15212, Note_on_c, 1, 51, 97
1, 15224, Note_on_c, 9, 38, 28
1, 15232, Note_on_c, 0, 57, 0
1, 15236, Note_on_c, 0, 77, 0
1, 15244, Note_on_c, 0, 51, 0
1, 15244, Note_on_c, 9, 59, 0
1, 15244, Note_on_c, 0, 81, 0
1, 15252, Note_on_c, 0, 62, 0
1, 15254, Note_on_c, 1, 47, 46
1, 15260, Note_on_c, 0, 72, 0
1, 15264, Note_on_c, 9, 38, 0
1, 15286, Note_on_c, 1, 47, 0
1, 15328, Note_on_c, 1, 51, 0
1, 15340, Control_c, 0, 64, 0
1, 15356, Note_on_c, 1, 52, 77
1, 15392, Note_on_c, 0, 55, 60
1, 15392, Note_on_c, 0, 62, 63
1, 15392, Note_on_c, 0, 52, 55
1, 15396, Note_on_c, 0, 74, 57
1, 15396, Note_on_c, 0, 79, 66
1, 15408, Note_on_c, 0, 67, 48
1, 15408, Note_on_c, 0, 59, 58
1, 15424, Note_on_c, 0, 69, 44
1, 15456, Note_on_c, 0, 69, 0
1, 15556, Control_c, 0, 64, 127
1, 15558, Note_on_c, 1, 52, 0
1, 15568, Note_on_c, 0, 67, 0
1, 15568, Note_on_c, 0, 79, 0
1, 15572, Note_on_c, 0, 52, 0
1, 15580, Note_on_c, 0, 62, 0
1, 15588, Note_on_c, 0, 59, 0
1, 15592, Note_on_c, 1, 57, 96
1, 15608, Note_on_c, 0, 74, 0
1, 15608, Note_on_c, 0, 55, 0
1, 15608, Note_on_c, 9, 59, 66
1, 15616, Control_c, 0, 64, 0
1, 15652, Note_on_c, 0, 74, 61
1, 15656, Note_on_c, 0, 62, 58
1, 15656, Note_on_c, 0, 81, 70
1, 15664, Note_on_c, 9, 59, 0
1, 15664, Note_on_c, 0, 59, 54
1, 15664, Note_on_c, 0, 69, 56
1, 15668, Note_on_c, 0, 52, 38
1, 15672, Note_on_c, 0, 55, 57
1, 15692, Note_on_c, 0, 69, 0
1, 15700, Note_on_c, 0, 62, 0
1, 15708, Note_on_c, 0, 52, 0
1, 15712, Note_on_c, 1, 57, 0
1, 15716, Note_on_c, 0, 74, 0
1, 15720, Note_on_c, 0, 59, 0
1, 15744, Note_on_c, 0, 81, 0
1, 15744, Note_on_c, 1, 55, 89
1, 15744, Note_on_c, 9, 59, 68
1, 15760, Note_on_c, 0, 55, 0
1, 15856, Note_on_c, 9, 59, 0
1, 15968, Note_on_c, 9, 38, 36
1, 16000, Note_on_c, 0, 83, 57
1, 16004, Note_on_c, 0, 71, 52
1, 16008, Note_on_c, 0, 76, 58
1, 16008, Note_on_c, 0, 62, 62
1, 16016, Note_on_c, 0, 59, 56
1, 16020, Note_on_c, 0, 55, 49
1, 16024, Note_on_c, 0, 79, 46
1, 16038, Note_on_c, 9, 38, 0
1, 16048, Note_on_c, 0, 52, 27
1, 16064, Control_c, 0, 64, 127
1, 16100, Note_on_c, 0, 52, 0
1, 16118, Note_on_c, 9, 36, 29
1, 16128, Note_on_c, 0, 55, 0
1, 16128, Note_on_c, 0, 71, 0
1, 16148, Note_on_c, 0, 59, 0
1, 16152, Note_on_c, 0, 62, 0
1, 16160, Note_on_c, 9, 36, 0
1, 16164, Note_on_c, 0, 76, 0
1, 16172, Note_on_c, 0, 79, 0
1, 16204, Note_on_c, 0, 83, 0
1, 16258, Note_on_c, 1, 52, 87
1, 16280, Note_on_c, 1, 52, 0
1, 16296, Note_on_c, 1, 55, 0
1, 16364, Note_on_c, 9, 36, 31
1, 16376, Note_on_c, 1, 47, 85
1, 16376, Note_on_c, 9, 59, 57
1, 16396, Note_on_c, 9, 36, 0
1, 16416, Note_on_c, 9, 59, 0
1, 16466, Note_on_c, 1, 47, 0
1, 16498, Note_on_c, 9, 59, 53
1, 16520, Note_on_c, 1, 46, 85
1, 16566, Note_on_c, 9, 59, 0
1, 16588, Note_on_c, 1, 46, 0
1, 16646, Note_on_c, 1, 45, 80
1, 16710, Note_on_c, 1, 45, 0
1, 16764, Note_on_c, 9, 59, 83
1, 16770, Note_on_c, 1, 40, 91
1, 16774, Note_on_c, 9, 53, 80
1, 16834, Note_on_c, 9, 59, 0
1, 16838, Note_on_c, 9, 53, 0
1, 16844, Control_c, 0, 64, 0
1, 16866, Note_on_c, 1, 40, 0
1, 16896, Note_on_c, 0, 65, 85
1, 16896, Note_on_c, 0, 93, 102
1, 16896, Note_on_c, 0, 61, 70
1, 16896, Note_on_c, 0, 55, 74
1, 16896, Note_on_c, 0, 60, 75
1, 16896, Note_on_c, 0, 88, 87
1, 16896, Note_on_c, 0, 81, 87
1, 16904, Note_on_c, 1, 33, 99
1, 16924, Note_on_c, 0, 58, 45
1, 16964, Note_on_c, 0, 58, 0
1, 17188, Note_on_c, 0, 65, 0
1, 17196, Note_on_c, 0, 55, 0
1, 17200, Note_on_c, 0, 93, 0
1, 17208, Note_on_c, 0, 61, 0
1, 17212, Note_on_c, 0, 81, 0
1, 17228, Note_on_c, 0, 88, 0
1, 17236, Note_on_c, 0, 60, 0
1, 17236, Control_c, 0, 64, 127
1, 17276, Note_on_c, 0, 61, 51
1, 17276, Note_on_c, 0, 91, 74
1, 17276, Note_on_c, 0, 65, 55
1, 17276, Note_on_c, 0, 60, 41
1, 17284, Note_on_c, 0, 55, 55
1, 17288, Note_on_c, 0, 79, 60
1, 17320, Note_on_c, 9, 59, 87
1, 17328, Note_on_c, 9, 53, 78
1, 17352, Note_on_c, 0, 65, 0
1, 17368, Note_on_c, 0, 79, 0
1, 17372, Note_on_c, 0, 55, 0
1, 17376, Note_on_c, 0, 91, 0
1, 17384, Note_on_c, 0, 61, 0
1, 17394, Note_on_c, 9, 53, 0
1, 17396, Note_on_c, 0, 60, 0
1, 17436, Note_on_c, 9, 59, 0
1, 17522, Note_on_c, 1, 39, 80
1, 17560, Note_on_c, 0, 61, 48
1, 17572, Note_on_c, 0, 65, 36
1, 17584, Note_on_c, 1, 33, 0
1, 17596, Note_on_c, 0, 61, 0
1, 17600, Note_on_c, 1, 39, 0
1, 17612, Note_on_c, 0, 65, 0
1, 17666, Note_on_c, 1, 38, 78
1, 17676, Control_c, 0, 64, 0
1, 17750, Note_on_c, 9, 38, 22
1, 17782, Note_on_c, 9, 38, 0
1, 17852, Note_on_c, 9, 38, 37
1, 17916, Note_on_c, 9, 38, 0
1, 17986, Note_on_c, 9, 36, 33
1, 18022, Note_on_c, 9, 36, 0
1, 18044, Note_on_c, 1, 57, 112
1, 18108, Note_on_c, 9, 59, 59
1, 18116, Note_on_c, 0, 60, 32
1, 18132, Note_on_c, 0, 67, 43
1, 18144, Note_on_c, 9, 59, 0
1, 18144, Note_on_c, 0, 55, 40
1, 18144, Note_on_c, 0, 59, 31
1, 18156, Note_on_c, 0, 64, 41
1, 18184, Note_on_c, 0, 67, 0
1, 18200, Note_on_c, 0, 64, 0
1, 18210, Note_on_c, 1, 38, 0
1, 18224, Note_on_c, 0, 60, 0
1, 18228, Note_on_c, 0, 55, 0
1, 18232, Note_on_c, 0, 59, 0
1, 18336, Note_on_c, 0, 76, 82
1, 18338, Note_on_c, 9, 59, 63
1, 18340, Note_on_c, 0, 67, 79
1, 18344, Note_on_c, 0, 72, 77
1, 18356, Control_c, 0, 64, 127
1, 18356, Note_on_c, 0, 55, 66
1, 18356, Note_on_c, 0, 60, 62
1, 18356, Note_on_c, 0, 64, 68
1, 18360, Note_on_c, 0, 59, 68
1, 18376, Note_on_c, 9, 59, 0
1, 18420, Note_on_c, 0, 67, 0
1, 18436, Note_on_c, 0, 64, 0
1, 18440, Note_on_c, 0, 76, 0
1, 18444, Note_on_c, 0, 55, 0
1, 18452, Note_on_c, 0, 72, 0
1, 18456, Note_on_c, 1, 46, 104
1, 18468, Note_on_c, 0, 59, 0
1, 18484, Note_on_c, 0, 60, 0
1, 18508, Note_on_c, 0, 64, 58
1, 18512, Note_on_c, 0, 60, 32
1, 18520, Note_on_c, 0, 59, 41
1, 18520, Note_on_c, 0, 79, 86
1, 18520, Note_on_c, 0, 55, 52
1, 18616, Note_on_c, 0, 55, 0
1, 18616, Note_on_c, 0, 64, 0
1, 18624, Note_on_c, 0, 79, 0
1, 18656, Note_on_c, 0, 59, 0
1, 18664, Note_on_c, 0, 60, 0
1, 18680, Note_on_c, 9, 59, 57
1, 18710, Note_on_c, 9, 38, 33
1, 18738, Note_on_c, 9, 38, 0
1, 18752, Control_c, 0, 64, 0
1, 18768, Note_on_c, 9, 59, 0
1, 18776, Note_on_c, 0, 82, 99
1, 18784, Note_on_c, 0, 54, 81
1, 18788, Note_on_c, 0, 64, 79
1, 18792, Note_on_c, 0, 60, 68
1, 18816, Note_on_c, 1, 50, 89
1, 18824, Note_on_c, 1, 48, 78
1, 18828, Note_on_c, 1, 46, 0
1, 18848, Note_on_c, 1, 48, 0
1, 18850, Note_on_c, 9, 59, 72
1, 18860, Note_on_c, 9, 46, 62
1, 18948, Control_c, 0, 64, 127
1, 19024, Note_on_c, 9, 59, 0
1, 19052, Note_on_c, 9, 46, 0
1, 19116, Note_on_c, 9, 36, 18
1, 19138, Note_on_c, 9, 36, 0
1, 19192, Note_on_c, 1, 57, 0
1, 19192, Note_on_c, 1, 38, 105
1, 19196, Note_on_c, 0, 64, 0
1, 19234, Note_on_c, 9, 38, 38
1, 19260, Note_on_c, 9, 38, 0
1, 19268, Note_on_c, 0, 54, 0
1, 19280, Note_on_c, 0, 82, 0
1, 19300, Note_on_c, 0, 60, 0
1, 19424, Control_c, 0, 64, 0
1, 19440, Note_on_c, 9, 59, 82
1, 19446, Note_on_c, 9, 46, 74
1, 19468, Note_on_c, 0, 54, 67
1, 19472, Note_on_c, 0, 84, 85
1, 19474, Note_on_c, 0, 64, 68
1, 19474, Note_on_c, 9, 38, 47
1, 19480, Note_on_c, 0, 60, 66
1, 19522, Note_on_c, 9, 38, 0
1, 19568, Note_on_c, 1, 38, 0
1, 19572, Control_c, 0, 64, 127
1, 19580, Note_on_c, 9, 46, 0
1, 19584, Note_on_c, 0, 60, 0
1, 19584, Note_on_c, 0, 64, 0
1, 19584, Note_on_c, 1, 42, 104
1, 19622, Note_on_c, 9, 38, 39
1, 19624, Note_on_c, 1, 50, 0
1, 19660, Note_on_c, 0, 54, 0
1, 19670, Note_on_c, 9, 38, 0
1, 19686, Note_on_c, 9, 59, 0
1, 19836, Note_on_c, 9, 36, 38
1, 19852, Note_on_c, 0, 84, 0
1, 19856, Note_on_c, 9, 59, 56
1, 19862, Note_on_c, 9, 36, 0
1, 19876, Control_c, 0, 64, 56
1, 19880, Control_c, 0, 64, 0
1, 19904, Note_on_c, 9, 59, 0
1, 19936, Note_on_c, 1, 42, 0
1, 19968, Note_on_c, 1, 43, 83
1, 19976, Note_on_c, 9, 38, 51
1, 19980, Note_on_c, 9, 57, 31
1, 19996, Note_on_c, 0, 52, 55
1, 19996, Note_on_c, 0, 59, 48
1, 20004, Note_on_c, 0, 83, 68
1, 20004, Note_on_c, 0, 62, 44
1, 20004, Note_on_c, 0, 57, 50
1, 20006, Note_on_c, 9, 57, 0
1, 20008, Note_on_c, 9, 59, 78
1, 20012, Note_on_c, 0, 74, 58
1, 20032, Note_on_c, 9, 38, 0
1, 20060, Control_c, 0, 64, 127
1, 20112, Note_on_c, 0, 74, 0
1, 20144, Note_on_c, 0, 83, 0
1, 20198, Note_on_c, 9, 59, 0
1, 20252, Note_on_c, 0, 62, 0
1, 20256, Note_on_c, 0, 59, 0
1, 20260, Note_on_c, 0, 57, 0
1, 20268, Note_on_c, 0, 52, 0
1, 20524, Note_on_c, 1, 57, 108
1, 20584, Note_on_c, 9, 59, 77
1, 20600, Note_on_c, 9, 53, 68
1, 20604, Note_on_c, 1, 57, 0
1, 20604, Note_on_c, 0, 90, 107
1, 20612, Note_on_c, 0, 62, 78
1, 20616, Note_on_c, 0, 52, 72
1, 20616, Note_on_c, 0, 78, 102
1, 20616, Note_on_c, 0, 57, 67
1, 20616, Note_on_c, 0, 59, 66
1, 20632, Note_on_c, 1, 55, 103
1, 20668, Note_on_c, 9, 59, 0
1, 20672, Note_on_c, 9, 53, 0
1, 20706, Note_on_c, 1, 55, 0
1, 20764, Note_on_c, 0, 90, 0
1, 20768, Note_on_c, 0, 62, 0
1, 20780, Note_on_c, 1, 54, 97
1, 20788, Note_on_c, 0, 57, 0
1, 20796, Note_on_c, 0, 78, 0
1, 20816, Note_on_c, 0, 52, 0
1, 20824, Note_on_c, 0, 59, 0
1, 20876, Note_on_c, 1, 54, 0
1, 20876, Note_on_c, 0, 85, 34
1, 20920, Note_on_c, 0, 85, 0
1, 21016, Note_on_c, 1, 51, 103
1, 21088, Control_c, 0, 64, 0
1, 21112, Note_on_c, 1, 51, 0
1, 21120, Note_on_c, 0, 86, 107
1, 21120, Note_on_c, 0, 59, 69
1, 21124, Note_on_c, 0, 79, 107
1, 21124, Note_on_c, 0, 62, 79
1, 21128, Note_on_c, 0, 52, 64
1, 21128, Note_on_c, 0, 55, 58
1, 21160, Note_on_c, 1, 43, 0
1, 21176, Note_on_c, 1, 52, 92
1, 21216, Control_c, 0, 64, 24
1, 21220, Control_c, 0, 64, 127
1, 21340, Note_on_c, 1, 52, 0
1, 21380, Note_on_c, 0, 86, 0
1, 21392, Note_on_c, 0, 52, 0
1, 21396, Note_on_c, 0, 62, 0
1, 21408, Note_on_c, 1, 47, 89
1, 21440, Note_on_c, 0, 55, 0
1, 21444, Note_on_c, 0, 79, 0
1, 21468, Note_on_c, 0, 59, 0
1, 21474, Note_on_c, 1, 47, 0
1, 21548, Note_on_c, 1, 43, 69
1, 21760, Control_c, 0, 64, 0
1, 21760, Note_on_c, 0, 83, 80
1, 21760, Note_on_c, 9, 59, 79
1, 21764, Note_on_c, 0, 74, 76
1, 21768, Note_on_c, 9, 53, 54
1, 21772, Note_on_c, 0, 59, 50
1, 21776, Note_on_c, 0, 62, 60
1, 21792, Note_on_c, 0, 55, 39
1, 21796, Note_on_c, 0, 52, 40
1, 21826, Note_on_c, 9, 53, 0
1, 21832, Control_c, 0, 64, 127
1, 21848, Note_on_c, 9, 59, 0
1, 21916, Note_on_c, 0, 52, 0
1, 21924, Note_on_c, 0, 55, 0
1, 21936, Note_on_c, 0, 83, 0
1, 21940, Note_on_c, 0, 59, 0
1, 21956, Note_on_c, 0, 62, 0
1, 21988, Note_on_c, 0, 74, 0
1, 22028, Note_on_c, 9, 59, 75
1, 22098, Note_on_c, 1, 43, 0
1, 22120, Note_on_c, 9, 59, 0
1, 22136, Note_on_c, 1, 44, 90
1, 22182, Note_on_c, 9, 38, 32
1, 22208, Note_on_c, 9, 38, 0
1, 22230, Note_on_c, 1, 44, 0
1, 22256, Control_c, 0, 64, 0
1, 22264, Note_on_c, 1, 45, 77
1, 22292, Note_on_c, 0, 79, 63
1, 22296, Note_on_c, 0, 69, 54
1, 22296, Note_on_c, 0, 55, 46
1, 22300, Note_on_c, 0, 60, 48
1, 22300, Note_on_c, 0, 64, 43
1, 22304, Note_on_c, 0, 72, 49
1, 22310, Note_on_c, 9, 38, 40
1, 22312, Note_on_c, 0, 76, 42
1, 22326, Note_on_c, 9, 53, 66
1, 22336, Note_on_c, 1, 45, 0
1, 22342, Note_on_c, 9, 59, 79
1, 22354, Note_on_c, 9, 38, 0
1, 22392, Note_on_c, 9, 53, 0
1, 22420, Control_c, 0, 64, 127
1, 22454, Note_on_c, 9, 59, 0
1, 22502, Note_on_c, 0, 76, 0
1, 22502, Note_on_c, 1, 48, 87
1, 22532, Note_on_c, 0, 79, 0
1, 22544, Note_on_c, 9, 38, 54
1, 22552, Note_on_c, 0, 69, 0
1, 22560, Note_on_c, 0, 72, 0
1, 22560, Note_on_c, 1, 48, 0
1, 22572, Note_on_c, 0, 64, 0
1, 22582, Note_on_c, 9, 38, 0
1, 22600, Note_on_c, 9, 59, 65
1, 22608, Note_on_c, 0, 55, 0
1, 22646, Note_on_c, 1, 50, 95
1, 22668, Note_on_c, 9, 59, 0
1, 22696, Note_on_c, 0, 60, 0
1, 22738, Note_on_c, 1, 50, 0
1, 22866, Note_on_c, 9, 53, 76
1, 22868, Control_c, 0, 64, 0
1, 22872, Note_on_c, 9, 59, 77
1, 22892, Note_on_c, 1, 52, 108
1, 22896, Note_on_c, 0, 76, 52
1, 22904, Note_on_c, 0, 69, 46
1, 22904, Note_on_c, 0, 72, 43
1, 22904, Note_on_c, 0, 64, 39
1, 22916, Note_on_c, 0, 60, 44
1, 22920, Note_on_c, 0, 55, 45
1, 22956, Note_on_c, 9, 53, 0
1, 22982, Pitch_bend_c, 1, 8192
1, 22982, Pitch_bend_c, 1, 8192
1, 22984, Note_on_c, 9, 59, 0
1, 22984, Control_c, 0, 64, 127
1, 22988, Pitch_bend_c, 1, 8192
1, 22998, Pitch_bend_c, 1, 7552
1, 23004, Pitch_bend_c, 1, 7296
1, 23008, Pitch_bend_c, 1, 7040
1, 23014, Pitch_bend_c, 1, 6912
1, 23016, Pitch_bend_c, 1, 6656
1, 23020, Pitch_bend_c, 1, 6528
1, 23026, Pitch_bend_c, 1, 6400
1, 23030, Pitch_bend_c, 1, 6144
1, 23036, Pitch_bend_c, 1, 6016
1, 23040, Pitch_bend_c, 1, 5760
1, 23044, Note_on_c, 0, 64, 0
1, 23046, Pitch_bend_c, 1, 5632
1, 23048, Pitch_bend_c, 1, 5504
1, 23056, Pitch_bend_c, 1, 5376
1, 23058, Pitch_bend_c, 1, 5120
1, 23062, Pitch_bend_c, 1, 4992
1, 23068, Pitch_bend_c, 1, 4864
1, 23072, Pitch_bend_c, 1, 4736
1, 23078, Pitch_bend_c, 1, 4608
1, 23080, Pitch_bend_c, 1, 4480
1, 23088, Pitch_bend_c, 1, 4224
1, 23090, Pitch_bend_c, 1, 4096
1, 23094, Note_on_c, 0, 55, 0
1, 23094, Pitch_bend_c, 1, 3840
1, 23100, Pitch_bend_c, 1, 3712
1, 23104, Pitch_bend_c, 1, 3584
1, 23108, Note_on_c, 0, 60, 0
1, 23110, Pitch_bend_c, 1, 3456
1, 23110, Note_on_c, 9, 59, 76
1, 23112, Pitch_bend_c, 1, 3200
1, 23120, Pitch_bend_c, 1, 3072
1, 23132, Pitch_bend_c, 1, 3584
1, 23136, Pitch_bend_c, 1, 4352
1, 23140, Note_on_c, 0, 76, 0
1, 23142, Pitch_bend_c, 1, 5888
1, 23144, Pitch_bend_c, 1, 7296
1, 23148, Note_on_c, 0, 69, 0
1, 23152, Pitch_bend_c, 1, 8192
1, 23152, Pitch_bend_c, 1, 8192
1, 23158, Note_on_c, 1, 52, 0
1, 23200, Note_on_c, 0, 72, 0
1, 23202, Note_on_c, 9, 59, 0
1, 23340, Control_c, 0, 64, 0
1, 23420, Note_on_c, 0, 66, 50
1, 23424, Note_on_c, 0, 74, 56
1, 23424, Note_on_c, 0, 54, 49
1, 23424, Note_on_c, 0, 60, 42
1, 23432, Note_on_c, 0, 69, 48
1, 23436, Note_on_c, 0, 64, 43
1, 23442, Note_on_c, 9, 59, 71
1, 23504, Control_c, 0, 64, 127
1, 23560, Note_on_c, 9, 38, 38
1, 23586, Note_on_c, 9, 38, 0
1, 23612, Note_on_c, 9, 59, 0
1, 23654, Note_on_c, 9, 38, 27
1, 23660, Note_on_c, 0, 69, 0
1, 23680, Note_on_c, 1, 50, 113
1, 23692, Note_on_c, 0, 66, 0
1, 23708, Note_on_c, 0, 64, 0
1, 23744, Note_on_c, 9, 38, 0
1, 23748, Note_on_c, 0, 74, 0
1, 23752, Note_on_c, 0, 54, 0
1, 23798, Note_on_c, 9, 38, 54
1, 23804, Note_on_c, 0, 60, 0
1, 23826, Note_on_c, 9, 59, 80
1, 23954, Note_on_c, 9, 38, 0
1, 23988, Control_c, 0, 64, 0
1, 24004, Note_on_c, 0, 72, 80
1, 24024, Note_on_c, 0, 64, 56
1, 24024, Note_on_c, 0, 60, 56
1, 24024, Note_on_c, 0, 54, 51
1, 24064, Note_on_c, 1, 45, 73
1, 24088, Note_on_c, 1, 45, 0
1, 24096, Note_on_c, 9, 59, 0
1, 24136, Control_c, 0, 64, 127
1, 24156, Note_on_c, 9, 38, 35
1, 24168, Note_on_c, 0, 60, 0
1, 24182, Note_on_c, 9, 38, 0
1, 24210, Note_on_c, 1, 38, 71
1, 24220, Note_on_c, 0, 64, 0
1, 24260, Note_on_c, 0, 54, 0
1, 24264, Note_on_c, 9, 38, 28
1, 24268, Note_on_c, 1, 38, 0
1, 24304, Note_on_c, 0, 74, 18
1, 24320, Note_on_c, 9, 38, 0
1, 24392, Note_on_c, 0, 74, 0
1, 24402, Note_on_c, 9, 38, 57
1, 24436, Note_on_c, 0, 72, 0
1, 24460, Note_on_c, 9, 59, 63
1, 24464, Note_on_c, 1, 42, 90
1, 24488, Control_c, 0, 64, 0
1, 24530, Note_on_c, 9, 59, 0
1, 24540, Note_on_c, 0, 64, 68
1, 24544, Note_on_c, 0, 59, 61
1, 24544, Note_on_c, 0, 71, 127
1, 24544, Note_on_c, 0, 53, 71
1, 24550, Note_on_c, 1, 50, 0
1, 24562, Note_on_c, 9, 38, 0
1, 24566, Note_on_c, 1, 42, 0
1, 24592, Note_on_c, 1, 43, 90
1, 24598, Note_on_c, 9, 59, 64
1, 24780, Note_on_c, 9, 59, 0
1, 24940, Control_c, 0, 64, 127
1, 25024, Note_on_c, 0, 53, 0
1, 25036, Note_on_c, 0, 64, 0
1, 25100, Note_on_c, 0, 59, 0
1, 25116, Note_on_c, 0, 71, 0
1, 25184, Note_on_c, 0, 72, 83
1, 25204, Note_on_c, 0, 59, 61
1, 25212, Note_on_c, 0, 64, 60
1, 25216, Control_c, 0, 64, 0
1, 25228, Note_on_c, 0, 53, 41
1, 25238, Note_on_c, 1, 42, 44
1, 25248, Note_on_c, 0, 64, 0
1, 25268, Note_on_c, 0, 53, 0
1, 25270, Note_on_c, 9, 59, 74
1, 25292, Note_on_c, 0, 72, 0
1, 25324, Note_on_c, 0, 59, 0
1, 25328, Note_on_c, 9, 59, 0
1, 25332, Note_on_c, 0, 74, 72
1, 25340, Note_on_c, 1, 42, 0
1, 25344, Control_c, 0, 64, 127
1, 25352, Note_on_c, 1, 57, 126
1, 25382, Note_on_c, 9, 59, 78
1, 25452, Note_on_c, 0, 74, 0
1, 25526, Note_on_c, 9, 59, 0
1, 25548, Note_on_c, 1, 43, 0
1, 25596, Note_on_c, 0, 63, 39
1, 25640, Note_on_c, 0, 66, 49
1, 25664, Control_c, 0, 64, 0
1, 25718, Note_on_c, 1, 57, 0
1, 25720, Note_on_c, 0, 66, 0
1, 25720, Note_on_c, 0, 75, 82
1, 25728, Note_on_c, 0, 79, 71
1, 25730, Note_on_c, 0, 63, 0
1, 25730, Note_on_c, 0, 71, 75
1, 25730, Note_on_c, 0, 67, 74
1, 25730, Note_on_c, 0, 83, 68
1, 25730, Note_on_c, 1, 55, 111
1, 25730, Note_on_c, 9, 59, 88
1, 25904, Note_on_c, 0, 76, 65
1, 25912, Note_on_c, 0, 75, 0
1, 25928, Note_on_c, 0, 67, 0
1, 25932, Note_on_c, 0, 71, 0
1, 25960, Note_on_c, 0, 83, 0
1, 25964, Note_on_c, 0, 79, 0
1, 25964, Note_on_c, 9, 59, 0
1, 25974, Note_on_c, 9, 40, 35
1, 25976, Note_on_c, 0, 76, 0
1, 26034, Note_on_c, 9, 40, 0
1, 26112, Note_on_c, 9, 59, 82
1, 26134, Note_on_c, 0, 81, 78
1, 26134, Note_on_c, 9, 38, 18
1, 26136, Note_on_c, 0, 71, 71
1, 26136, Note_on_c, 0, 75, 69
1, 26144, Note_on_c, 0, 65, 54
1, 26280, Note_on_c, 9, 38, 0
1, 26324, Note_on_c, 0, 75, 0
1, 26332, Note_on_c, 0, 76, 46
1, 26354, Note_on_c, 9, 59, 0
1, 26356, Note_on_c, 0, 65, 0
1, 26360, Note_on_c, 0, 81, 0
1, 26364, Note_on_c, 0, 76, 0
1, 26368, Note_on_c, 1, 47, 98
1, 26376, Note_on_c, 9, 38, 54
1, 26380, Note_on_c, 0, 71, 0
1, 26416, Note_on_c, 1, 47, 0
1, 26480, Note_on_c, 9, 38, 0
1, 26492, Control_c, 0, 64, 127
1, 26492, Note_on_c, 1, 43, 94
1, 26504, Note_on_c, 0, 79, 69
1, 26516, Note_on_c, 0, 69, 56
1, 26516, Note_on_c, 0, 64, 50
1, 26520, Note_on_c, 0, 74, 65
1, 26530, Note_on_c, 9, 38, 40
1, 26560, Note_on_c, 0, 64, 0
1, 26604, Note_on_c, 1, 55, 0
1, 26616, Note_on_c, 0, 79, 0
1, 26616, Note_on_c, 0, 74, 0
1, 26648, Note_on_c, 0, 69, 0
1, 26664, Note_on_c, 9, 38, 0
1, 26760, Note_on_c, 9, 38, 51
1, 26784, Note_on_c, 9, 59, 59
1, 26816, Control_c, 0, 64, 0
1, 26822, Note_on_c, 9, 59, 0
1, 26860, Note_on_c, 1, 43, 0
1, 26864, Note_on_c, 9, 38, 0
1, 26870, Note_on_c, 1, 48, 101
1, 26896, Note_on_c, 0, 76, 54
1, 26896, Note_on_c, 9, 59, 71
1, 26900, Note_on_c, 0, 64, 36
1, 26908, Note_on_c, 0, 59, 34
1, 26908, Note_on_c, 0, 71, 46
1, 26928, Note_on_c, 0, 48, 40
1, 26928, Note_on_c, 0, 55, 43
1, 26992, Control_c, 0, 64, 127
1, 27084, Note_on_c, 9, 59, 0
1, 27144, Note_on_c, 9, 36, 40
1, 27196, Note_on_c, 9, 36, 0
1, 27248, Note_on_c, 1, 36, 109
1, 27286, Note_on_c, 9, 59, 82
1, 27312, Note_on_c, 0, 48, 0
1, 27340, Note_on_c, 0, 55, 0
1, 27348, Note_on_c, 0, 59, 0
1, 27420, Note_on_c, 0, 64, 0
1, 27462, Note_on_c, 9, 59, 0
1, 27524, Note_on_c, 0, 59, 46
1, 27532, Note_on_c, 0, 55, 46
1, 27532, Note_on_c, 0, 48, 43
1, 27572, Note_on_c, 0, 59, 0
1, 27572, Note_on_c, 0, 71, 0
1, 27576, Note_on_c, 0, 55, 0
1, 27608, Note_on_c, 0, 48, 0
1, 27656, Note_on_c, 0, 76, 0
1, 27666, Note_on_c, 9, 59, 81
1, 27828, Control_c, 0, 64, 0
1, 27872, Note_on_c, 9, 59, 0
1, 27896, Note_on_c, 0, 47, 73
1, 27910, Note_on_c, 9, 38, 38
1, 27926, Note_on_c, 1, 42, 56
1, 27942, Note_on_c, 1, 48, 0
1, 27960, Note_on_c, 9, 38, 0
1, 27976, Note_on_c, 0, 47, 0
1, 27992, Control_c, 0, 64, 127
1, 28006, Note_on_c, 1, 42, 0
1, 28016, Note_on_c, 1, 36, 0
1, 28022, Note_on_c, 1, 47, 108
1, 28070, Note_on_c, 9, 36, 20
1, 28114, Note_on_c, 9, 36, 0
1, 28268, Control_c, 0, 64, 0
1, 28292, Note_on_c, 0, 78, 83
1, 28292, Note_on_c, 0, 90, 81
1, 28300, Note_on_c, 9, 36, 28
1, 28304, Note_on_c, 0, 57, 64
1, 28304, Note_on_c, 0, 51, 60
1, 28304, Note_on_c, 0, 62, 62
1, 28320, Note_on_c, 0, 86, 48
1, 28342, Note_on_c, 9, 36, 0
1, 28408, Note_on_c, 1, 35, 111
1, 28424, Control_c, 0, 64, 127
1, 28652, Note_on_c, 0, 51, 0
1, 28660, Note_on_c, 0, 62, 0
1, 28668, Note_on_c, 0, 78, 0
1, 28672, Note_on_c, 0, 90, 0
1, 28680, Note_on_c, 0, 86, 0
1, 28692, Note_on_c, 0, 57, 0
1, 28792, Note_on_c, 9, 44, 51
1, 28808, Note_on_c, 9, 59, 84
1, 28812, Note_on_c, 0, 62, 50
1, 28820, Note_on_c, 0, 57, 45
1, 28824, Note_on_c, 0, 51, 41
1, 28860, Note_on_c, 0, 57, 0
1, 28880, Note_on_c, 0, 51, 0
1, 28888, Note_on_c, 9, 44, 0
1, 28900, Note_on_c, 0, 62, 0
1, 28956, Note_on_c, 9, 59, 0
1, 28998, Note_on_c, 1, 35, 0
1, 29062, Note_on_c, 1, 39, 84
1, 29068, Note_on_c, 9, 38, 21
1, 29078, Note_on_c, 1, 47, 0
1, 29078, Note_on_c, 9, 59, 53
1, 29126, Note_on_c, 9, 59, 0
1, 29132, Note_on_c, 1, 39, 0
1, 29138, Note_on_c, 9, 38, 0
1, 29144, Control_c, 0, 64, 0
1, 29186, Note_on_c, 1, 40, 96
1, 29190, Note_on_c, 9, 59, 70
1, 29208, Note_on_c, 0, 62, 50
1, 29212, Note_on_c, 0, 59, 42
1, 29212, Note_on_c, 0, 55, 48
1, 29222, Note_on_c, 9, 38, 15
1, 29228, Note_on_c, 0, 52, 38
1, 29254, Note_on_c, 9, 38, 0
1, 29362, Note_on_c, 9, 59, 0
1, 29580, Note_on_c, 9, 44, 35
1, 29638, Note_on_c, 9, 44, 0
1, 29660, Note_on_c, 0, 62, 0
1, 29676, Note_on_c, 0, 59, 0
1, 29712, Note_on_c, 0, 55, 0
1, 29712, Note_on_c, 1, 47, 66
1, 29732, Note_on_c, 0, 52, 0
1, 29784, Note_on_c, 1, 47, 0
1, 29812, Note_on_c, 0, 91, 72
1, 29816, Note_on_c, 0, 88, 76
1, 29820, Note_on_c, 0, 89, 1
1, 29824, Note_on_c, 0, 62, 48
1, 29832, Note_on_c, 0, 52, 35
1, 29836, Note_on_c, 0, 59, 49
1, 29836, Note_on_c, 1, 52, 94
1, 29840, Note_on_c, 0, 55, 50
1, 29844, Note_on_c, 0, 89, 0
1, 29864, Note_on_c, 9, 59, 52
1, 29912, Note_on_c, 9, 59, 0
1, 29912, Note_on_c, 0, 88, 0
1, 29928, Note_on_c, 0, 91, 0
1, 29942, Note_on_c, 1, 52, 0
1, 29944, Control_c, 0, 64, 127
1, 29974, Note_on_c, 1, 54, 90
1, 29974, Note_on_c, 9, 44, 36
1, 29984, Control_c, 0, 64, 0
1, 29990, Note_on_c, 9, 59, 68
1, 29992, Note_on_c, 0, 52, 0
1, 30012, Note_on_c, 0, 90, 70
1, 30016, Note_on_c, 0, 55, 0
1, 30020, Note_on_c, 0, 59, 0
1, 30022, Note_on_c, 9, 44, 0
1, 30032, Note_on_c, 0, 86, 57
1, 30048, Note_on_c, 0, 62, 0
1, 30050, Note_on_c, 9, 59, 0
1, 30070, Note_on_c, 1, 54, 0
1, 30080, Note_on_c, 1, 56, 80
1, 30104, Note_on_c, 1, 55, 94
1, 30108, Note_on_c, 1, 56, 0
1, 30128, Note_on_c, 0, 86, 0
1, 30144, Note_on_c, 0, 90, 0
1, 30166, Note_on_c, 1, 55, 0
1, 30216, Note_on_c, 0, 88, 76
1, 30220, Note_on_c, 0, 84, 60
1, 30236, Note_on_c, 9, 38, 28
1, 30240, Note_on_c, 1, 54, 98
1, 30268, Note_on_c, 9, 38, 0
1, 30280, Note_on_c, 0, 88, 0
1, 30288, Note_on_c, 0, 84, 0
1, 30384, Note_on_c, 1, 40, 0
1, 30416, Note_on_c, 0, 86, 61
1, 30420, Note_on_c, 0, 83, 42
1, 30420, Note_on_c, 0, 64, 44
1, 30444, Note_on_c, 0, 57, 37
1, 30460, Note_on_c, 0, 54, 36
1, 30466, Note_on_c, 1, 54, 0
1, 30518, Note_on_c, 1, 52, 86
1, 30564, Note_on_c, 0, 57, 0
1, 30580, Note_on_c, 0, 83, 0
1, 30592, Note_on_c, 0, 64, 0
1, 30596, Note_on_c, 0, 86, 0
1, 30604, Note_on_c, 0, 54, 0
1, 30608, Note_on_c, 9, 59, 55
1, 30616, Note_on_c, 9, 36, 26
1, 30642, Note_on_c, 1, 52, 0
1, 30646, Note_on_c, 9, 59, 0
1, 30672, Note_on_c, 9, 36, 0
1, 30684, Control_c, 0, 64, 127
1, 30728, Note_on_c, 9, 59, 67
1, 30744, Note_on_c, 1, 42, 95
1, 30860, Control_c, 0, 64, 0
1, 30880, Note_on_c, 9, 59, 0
1, 30984, Note_on_c, 0, 73, 63
1, 30988, Note_on_c, 0, 51, 54
1, 30988, Note_on_c, 0, 62, 58
1, 30988, Note_on_c, 0, 57, 56
1, 30988, Note_on_c, 0, 85, 63
1, 30996, Note_on_c, 0, 82, 56
1, 31084, Control_c, 0, 64, 127
1, 31116, Note_on_c, 9, 59, 108
1, 31204, Note_on_c, 0, 57, 0
1, 31264, Note_on_c, 0, 51, 0
1, 31272, Note_on_c, 0, 82, 0
1, 31308, Note_on_c, 0, 62, 0
1, 31308, Note_on_c, 0, 73, 0
1, 31316, Note_on_c, 0, 85, 0
1, 31346, Note_on_c, 1, 46, 97
1, 31350, Note_on_c, 9, 59, 0
1, 31442, Note_on_c, 1, 46, 0
1, 31478, Note_on_c, 1, 47, 81
1, 31500, Control_c, 0, 64, 0
1, 31516, Note_on_c, 0, 52, 54
1, 31516, Note_on_c, 0, 62, 52
1, 31532, Note_on_c, 0, 59, 42
1, 31532, Note_on_c, 0, 74, 63
1, 31532, Note_on_c, 0, 86, 57
1, 31538, Note_on_c, 9, 59, 62
1, 31580, Note_on_c, 9, 59, 0
1, 31600, Note_on_c, 1, 42, 0
1, 31652, Control_c, 0, 64, 127
1, 31756, Note_on_c, 0, 52, 0
1, 31762, Note_on_c, 1, 42, 56
1, 31768, Note_on_c, 0, 59, 0
1, 31772, Note_on_c, 9, 59, 89
1, 31780, Note_on_c, 0, 74, 0
1, 31784, Note_on_c, 0, 62, 0
1, 31808, Note_on_c, 0, 86, 0
1, 31816, Note_on_c, 1, 47, 0
1, 31842, Note_on_c, 1, 42, 0
1, 31852, Note_on_c, 1, 49, 88
1, 31888, Note_on_c, 9, 44, 28
1, 31932, Note_on_c, 9, 59, 0
1, 31936, Note_on_c, 9, 44, 0
1, 32064, Control_c, 0, 64, 0
1, 32108, Note_on_c, 0, 66, 63
1, 32112, Note_on_c, 0, 88, 70
1, 32120, Note_on_c, 0, 76, 71
1, 32124, Note_on_c, 0, 57, 51
1, 32144, Note_on_c, 0, 62, 47
1, 32162, Note_on_c, 1, 42, 64
1, 32172, Note_on_c, 0, 61, 22
1, 32208, Note_on_c, 1, 49, 0
1, 32208, Control_c, 0, 64, 127
1, 32214, Note_on_c, 1, 42, 0
1, 32220, Note_on_c, 0, 88, 0
1, 32224, Note_on_c, 0, 76, 0
1, 32236, Note_on_c, 9, 59, 68
1, 32248, Note_on_c, 0, 57, 0
1, 32252, Note_on_c, 1, 50, 85
1, 32264, Note_on_c, 9, 44, 50
1, 32268, Note_on_c, 0, 66, 0
1, 32268, Note_on_c, 0, 62, 0
1, 32272, Note_on_c, 0, 61, 0
1, 32306, Note_on_c, 9, 44, 0
1, 32320, Note_on_c, 9, 59, 0
1, 32420, Note_on_c, 0, 90, 80
1, 32420, Note_on_c, 0, 78, 75
1, 32428, Note_on_c, 0, 66, 74
1, 32448, Note_on_c, 0, 57, 53
1, 32456, Note_on_c, 0, 62, 41
1, 32502, Note_on_c, 9, 38, 54
1, 32540, Note_on_c, 0, 57, 0
1, 32544, Note_on_c, 0, 78, 0
1, 32556, Note_on_c, 0, 90, 0
1, 32560, Note_on_c, 9, 38, 0
1, 32560, Note_on_c, 0, 62, 0
1, 32588, Note_on_c, 0, 66, 0
1, 32598, Note_on_c, 1, 50, 0
1, 32616, Control_c, 0, 64, 0
1, 32632, Note_on_c, 1, 52, 92
1, 32646, Note_on_c, 9, 36, 40
1, 32676, Note_on_c, 0, 67, 75
1, 32680, Note_on_c, 0, 78, 74
1, 32680, Note_on_c, 0, 56, 67
1, 32680, Note_on_c, 0, 62, 59
1, 32680, Note_on_c, 0, 90, 71
1, 32692, Note_on_c, 0, 86, 63
1, 32728, Note_on_c, 9, 36, 0
1, 32768, Control_c, 0, 64, 127
1, 32892, Note_on_c, 9, 53, 63
1, 32898, Note_on_c, 1, 47, 83
1, 32898, Note_on_c, 9, 59, 55
1, 32920, Note_on_c, 1, 52, 0
1, 32966, Note_on_c, 1, 47, 0
1, 32976, Note_on_c, 0, 86, 0
1, 32976, Note_on_c, 0, 67, 0
1, 32992, Note_on_c, 9, 53, 0
1, 32992, Note_on_c, 0, 90, 0
1, 33008, Note_on_c, 0, 78, 0
1, 33016, Note_on_c, 1, 40, 102
1, 33024, Note_on_c, 0, 56, 0
1, 33026, Note_on_c, 9, 59, 0
1, 33116, Note_on_c, 0, 62, 0
1, 33128, Note_on_c, 9, 53, 65
1, 33138, Note_on_c, 9, 59, 66
1, 33208, Control_c, 0, 64, 0
1, 33228, Note_on_c, 9, 53, 0
1, 33252, Note_on_c, 0, 56, 63
1, 33256, Note_on_c, 0, 62, 61
1, 33260, Note_on_c, 0, 88, 72
1, 33260, Note_on_c, 0, 65, 62
1, 33264, Note_on_c, 0, 76, 79
1, 33282, Note_on_c, 9, 59, 0
1, 33344, Control_c, 0, 64, 127
1, 33364, Note_on_c, 0, 88, 0
1, 33388, Note_on_c, 0, 65, 0
1, 33396, Note_on_c, 0, 76, 0
1, 33404, Note_on_c, 0, 56, 0
1, 33416, Note_on_c, 9, 53, 57
1, 33416, Note_on_c, 9, 59, 70
1, 33424, Note_on_c, 9, 44, 23
1, 33452, Note_on_c, 0, 62, 0
1, 33458, Note_on_c, 9, 44, 0
1, 33516, Note_on_c, 0, 86, 64
1, 33524, Note_on_c, 0, 56, 67
1, 33528, Note_on_c, 0, 74, 58
1, 33528, Note_on_c, 0, 65, 58
1, 33532, Note_on_c, 9, 53, 0
1, 33536, Note_on_c, 0, 62, 51
1, 33552, Note_on_c, 0, 85, 39
1, 33564, Note_on_c, 0, 62, 0
1, 33574, Note_on_c, 9, 59, 0
1, 33574, Note_on_c, 9, 44, 36
1, 33592, Note_on_c, 0, 85, 0
1, 33600, Note_on_c, 9, 44, 0
1, 33608, Note_on_c, 0, 86, 0
1, 33608, Note_on_c, 0, 65, 0
1, 33634, Note_on_c, 1, 40, 0
1, 33650, Note_on_c, 1, 46, 108
1, 33656, Note_on_c, 0, 74, 0
1, 33670, Note_on_c, 9, 53, 65
1, 33676, Note_on_c, 9, 59, 64
1, 33684, Note_on_c, 0, 56, 0
1, 33702, Note_on_c, 9, 44, 56
1, 33750, Note_on_c, 9, 44, 0
1, 33756, Note_on_c, 9, 53, 0
1, 33764, Control_c, 0, 64, 0
1, 33784, Note_on_c, 1, 46, 0
1, 33792, Note_on_c, 0, 84, 66
1, 33792, Note_on_c, 0, 72, 61
1, 33792, Note_on_c, 0, 64, 55
1, 33792, Note_on_c, 0, 55, 47
1, 33792, Note_on_c, 0, 59, 71
1, 33800, Note_on_c, 9, 59, 0
1, 33800, Note_on_c, 0, 60, 58
1, 33864, Note_on_c, 9, 59, 64
1, 33868, Note_on_c, 9, 38, 19
1, 33900, Note_on_c, 9, 38, 0
1, 33952, Note_on_c, 1, 45, 96
1, 33968, Note_on_c, 0, 72, 0
1, 33988, Note_on_c, 0, 55, 0
1, 33988, Note_on_c, 0, 84, 0
1, 34000, Note_on_c, 0, 59, 0
1, 34008, Note_on_c, 0, 64, 0
1, 34016, Note_on_c, 0, 60, 0
1, 34038, Note_on_c, 9, 59, 0
1, 34044, Note_on_c, 1, 45, 0
1, 34056, Note_on_c, 0, 86, 75
1, 34056, Note_on_c, 0, 74, 73
1, 34066, Note_on_c, 1, 40, 80
1, 34068, Note_on_c, 0, 60, 59
1, 34068, Note_on_c, 0, 64, 64
1, 34072, Note_on_c, 0, 55, 45
1, 34076, Note_on_c, 0, 59, 61
1, 34076, Note_on_c, 9, 38, 34
1, 34134, Note_on_c, 1, 40, 0
1, 34144, Control_c, 0, 64, 127
1, 34150, Note_on_c, 9, 38, 0
1, 34172, Note_on_c, 9, 59, 68
1, 34182, Note_on_c, 1, 36, 97
1, 34216, Note_on_c, 9, 38, 30
1, 34220, Note_on_c, 0, 74, 0
1, 34232, Note_on_c, 0, 55, 0
1, 34236, Note_on_c, 0, 86, 0
1, 34244, Note_on_c, 0, 64, 0
1, 34248, Note_on_c, 0, 60, 0
1, 34248, Note_on_c, 0, 59, 0
1, 34280, Note_on_c, 9, 59, 0
1, 34290, Note_on_c, 9, 38, 0
1, 34332, Control_c, 0, 64, 0
1, 34352, Note_on_c, 0, 88, 87
1, 34356, Note_on_c, 0, 64, 75
1, 34356, Note_on_c, 0, 76, 81
1, 34356, Note_on_c, 0, 60, 63
1, 34364, Note_on_c, 0, 55, 62
1, 34364, Note_on_c, 0, 59, 62
1, 34432, Control_c, 0, 64, 127
1, 34440, Note_on_c, 9, 36, 38
1, 34444, Note_on_c, 9, 59, 73
1, 34484, Note_on_c, 0, 55, 0
1, 34500, Note_on_c, 0, 76, 0
1, 34502, Note_on_c, 9, 59, 0
1, 34504, Note_on_c, 0, 88, 0
1, 34508, Note_on_c, 0, 64, 0
1, 34516, Note_on_c, 0, 59, 0
1, 34518, Note_on_c, 9, 36, 0
1, 34520, Note_on_c, 1, 36, 0
1, 34536, Note_on_c, 0, 60, 0
1, 34560, Note_on_c, 1, 37, 85
1, 34588, Note_on_c, 0, 64, 63
1, 34594, Note_on_c, 9, 36, 30
1, 34596, Note_on_c, 0, 60, 63
1, 34596, Note_on_c, 0, 59, 53
1, 34596, Note_on_c, 0, 55, 65
1, 34604, Note_on_c, 0, 88, 80
1, 34612, Note_on_c, 0, 76, 80
1, 34656, Note_on_c, 9, 36, 0
1, 34732, Note_on_c, 0, 55, 0
1, 34752, Note_on_c, 0, 59, 0
1, 34764, Note_on_c, 0, 76, 0
1, 34764, Note_on_c, 0, 60, 0
1, 34764, Note_on_c, 0, 64, 0
1, 34776, Note_on_c, 0, 88, 0
1, 34780, Note_on_c, 9, 59, 71
1, 34818, Note_on_c, 1, 34, 50
1, 34836, Control_c, 0, 64, 0
1, 34850, Note_on_c, 9, 59, 0
1, 34868, Note_on_c, 0, 60, 78
1, 34868, Note_on_c, 0, 88, 82
1, 34868, Note_on_c, 0, 64, 82
1, 34872, Note_on_c, 0, 54, 69
1, 34872, Note_on_c, 0, 59, 69
1, 34872, Note_on_c, 0, 76, 81
1, 34872, Note_on_c, 0, 83, 78
1, 34920, Note_on_c, 1, 37, 0
1, 34936, Note_on_c, 1, 34, 0
1, 34936, Note_on_c, 1, 38, 92
1, 34940, Note_on_c, 9, 59, 71
1, 34976, Note_on_c, 9, 38, 43
1, 34998, Note_on_c, 9, 38, 0
1, 35028, Control_c, 0, 64, 127
1, 35090, Note_on_c, 9, 38, 48
1, 35144, Note_on_c, 9, 38, 0
1, 35144, Note_on_c, 9, 59, 0
1, 35256, Note_on_c, 0, 59, 0
1, 35256, Note_on_c, 9, 36, 16
1, 35288, Note_on_c, 9, 36, 0
1, 35296, Note_on_c, 0, 88, 0
1, 35316, Note_on_c, 0, 54, 0
1, 35324, Note_on_c, 0, 83, 0
1, 35336, Note_on_c, 0, 64, 0
1, 35356, Note_on_c, 0, 76, 0
1, 35364, Note_on_c, 0, 60, 0
1, 35476, Control_c, 0, 64, 0
1, 35536, Note_on_c, 0, 82, 82
1, 35540, Note_on_c, 0, 86, 86
1, 35540, Note_on_c, 0, 54, 68
1, 35548, Note_on_c, 0, 64, 77
1, 35548, Note_on_c, 0, 60, 68
1, 35548, Note_on_c, 0, 59, 66
1, 35552, Note_on_c, 0, 80, 45
1, 35560, Note_on_c, 1, 37, 90
1, 35584, Note_on_c, 0, 80, 0
1, 35584, Note_on_c, 1, 38, 0
1, 35590, Note_on_c, 9, 59, 61
1, 35616, Note_on_c, 9, 36, 31
1, 35628, Note_on_c, 1, 37, 0
1, 35644, Note_on_c, 9, 36, 0
1, 35644, Note_on_c, 9, 59, 0
1, 35660, Note_on_c, 0, 82, 0
1, 35668, Note_on_c, 0, 83, 54
1, 35676, Control_c, 0, 64, 127
1, 35680, Note_on_c, 0, 64, 0
1, 35680, Note_on_c, 1, 36, 87
1, 35712, Note_on_c, 0, 60, 0
1, 35724, Note_on_c, 0, 59, 0
1, 35724, Note_on_c, 9, 59, 60
1, 35736, Note_on_c, 0, 86, 0
1, 35740, Note_on_c, 0, 83, 0
1, 35740, Note_on_c, 9, 38, 33
1, 35748, Note_on_c, 0, 54, 0
1, 35768, Note_on_c, 9, 38, 0
1, 35804, Note_on_c, 0, 64, 65
1, 35816, Note_on_c, 0, 84, 68
1, 35820, Note_on_c, 0, 81, 75
1, 35830, Note_on_c, 9, 59, 0
1, 35858, Note_on_c, 9, 38, 52
1, 35892, Note_on_c, 0, 64, 0
1, 35912, Note_on_c, 9, 38, 0
1, 35970, Note_on_c, 9, 59, 105
1, 35974, Note_on_c, 0, 81, 0
1, 35974, Note_on_c, 9, 36, 42
1, 36008, Note_on_c, 0, 84, 0
1, 36034, Note_on_c, 1, 36, 0
1, 36040, Control_c, 0, 64, 0
1, 36044, Note_on_c, 9, 36, 0
1, 36054, Note_on_c, 1, 35, 85
1, 36064, Note_on_c, 0, 67, 57
1, 36072, Note_on_c, 9, 59, 0
1, 36076, Note_on_c, 0, 57, 46
1, 36076, Note_on_c, 0, 63, 57
1, 36084, Note_on_c, 0, 62, 48
1, 36084, Note_on_c, 0, 79, 63
1, 36084, Note_on_c, 0, 83, 65
1, 36120, Note_on_c, 9, 59, 85
1, 36134, Note_on_c, 9, 38, 39
1, 36156, Note_on_c, 9, 38, 0
1, 36320, Note_on_c, 9, 59, 0
1, 36416, Note_on_c, 0, 83, 0
1, 36420, Note_on_c, 0, 79, 0
1, 36448, Note_on_c, 1, 47, 78
1, 36452, Control_c, 0, 64, 127
1, 36464, Note_on_c, 0, 84, 41
1, 36482, Note_on_c, 9, 59, 53
1, 36484, Note_on_c, 0, 81, 51
1, 36496, Note_on_c, 0, 57, 0
1, 36504, Note_on_c, 0, 67, 0
1, 36532, Note_on_c, 0, 63, 0
1, 36560, Note_on_c, 0, 62, 0
1, 36614, Note_on_c, 9, 59, 0
1, 36640, Note_on_c, 0, 81, 0
1, 36648, Note_on_c, 0, 84, 0
1, 36708, Control_c, 0, 64, 0
1, 36726, Note_on_c, 1, 41, 76
1, 36732, Note_on_c, 9, 59, 58
1, 36740, Note_on_c, 0, 67, 53
1, 36744, Note_on_c, 0, 62, 38
1, 36752, Note_on_c, 1, 41, 0
1, 36752, Note_on_c, 0, 83, 57
1, 36756, Note_on_c, 0, 63, 48
1, 36760, Note_on_c, 0, 86, 57
1, 36764, Note_on_c, 0, 57, 39
1, 36796, Note_on_c, 9, 59, 0
1, 36818, Note_on_c, 1, 47, 0
1, 36850, Note_on_c, 1, 59, 89
1, 36852, Control_c, 0, 64, 127
1, 36854, Note_on_c, 9, 59, 70
1, 36882, Note_on_c, 1, 35, 0
1, 36892, Note_on_c, 0, 81, 1
1, 36940, Note_on_c, 0, 86, 0
1, 36956, Note_on_c, 9, 59, 0
1, 36960, Note_on_c, 0, 83, 0
1, 36964, Note_on_c, 0, 81, 0
1, 36988, Note_on_c, 0, 57, 0
1, 37000, Note_on_c, 0, 67, 0
1, 37004, Note_on_c, 0, 63, 0
1, 37024, Note_on_c, 0, 62, 0
1, 37120, Note_on_c, 1, 38, 80
1, 37144, Note_on_c, 1, 59, 0
1, 37154, Note_on_c, 1, 38, 0
1, 37212, Control_c, 0, 64, 0
1, 37234, Note_on_c, 9, 59, 95
1, 37238, Note_on_c, 1, 57, 113
1, 37240, Note_on_c, 0, 85, 68
1, 37240, Note_on_c, 0, 89, 75
1, 37240, Note_on_c, 0, 77, 66
1, 37248, Note_on_c, 1, 41, 105
1, 37256, Note_on_c, 0, 67, 68
1, 37256, Note_on_c, 0, 57, 68
1, 37256, Note_on_c, 0, 63, 63
1, 37266, Note_on_c, 9, 38, 22
1, 37308, Note_on_c, 0, 77, 0
1, 37312, Note_on_c, 0, 85, 0
1, 37312, Note_on_c, 0, 67, 0
1, 37314, Note_on_c, 9, 38, 0
1, 37328, Note_on_c, 0, 86, 44
1, 37334, Note_on_c, 1, 41, 0
1, 37346, Note_on_c, 1, 57, 0
1, 37348, Note_on_c, 0, 57, 0
1, 37360, Note_on_c, 0, 63, 0
1, 37360, Note_on_c, 0, 86, 0
1, 37380, Note_on_c, 0, 89, 0
1, 37388, Note_on_c, 1, 57, 73
1, 37426, Note_on_c, 1, 57, 0
1, 37510, Note_on_c, 9, 59, 0
1, 37528, Note_on_c, 9, 36, 28
1, 37560, Note_on_c, 9, 36, 0
1, 37612, Note_on_c, 1, 56, 113
1, 37616, Note_on_c, 1, 40, 112
1, 37632, Note_on_c, 9, 59, 78
1, 37648, Note_on_c, 9, 57, 30
1, 37660, Note_on_c, 9, 38, 39
1, 37664, Note_on_c, 0, 88, 64
1, 37668, Note_on_c, 0, 76, 60
1, 37680, Note_on_c, 0, 67, 63
1, 37684, Note_on_c, 0, 56, 56
1, 37688, Note_on_c, 0, 62, 56
1, 37744, Control_c, 0, 64, 127
1, 37878, Note_on_c, 9, 59, 0
1, 37904, Note_on_c, 0, 88, 0
1, 37992, Note_on_c, 0, 62, 0
1, 37992, Note_on_c, 0, 76, 0
1, 38008, Note_on_c, 0, 67, 0
1, 38034, Note_on_c, 9, 59, 76
1, 38082, Note_on_c, 9, 57, 0
1, 38104, Note_on_c, 0, 56, 0
1, 38172, Note_on_c, 1, 40, 0
1, 38172, Note_on_c, 1, 35, 55
1, 38204, Note_on_c, 9, 59, 0
1, 38214, Note_on_c, 1, 35, 0
1, 38284, Note_on_c, 1, 34, 102
1, 38306, Note_on_c, 9, 38, 0
1, 38320, Note_on_c, 9, 59, 55
1, 38340, Control_c, 0, 64, 0
1, 38340, Note_on_c, 0, 60, 40
1, 38344, Note_on_c, 0, 62, 63
1, 38384, Note_on_c, 0, 60, 0
1, 38384, Note_on_c, 9, 59, 0
1, 38390, Note_on_c, 1, 56, 0
1, 38390, Note_on_c, 1, 34, 0
1, 38416, Note_on_c, 0, 79, 94
1, 38420, Note_on_c, 0, 64, 85
1, 38420, Note_on_c, 0, 72, 85
1, 38420, Note_on_c, 0, 69, 88
1, 38420, Note_on_c, 0, 76, 80
1, 38432, Note_on_c, 0, 77, 64
1, 38432, Note_on_c, 1, 33, 113
1, 38434, Note_on_c, 9, 59, 80
1, 38456, Note_on_c, 0, 62, 0
1, 38460, Note_on_c, 0, 77, 0
1, 38652, Note_on_c, 9, 59, 0
1, 38696, Note_on_c, 0, 77, 13
1, 38696, Note_on_c, 9, 38, 33
1, 38728, Note_on_c, 9, 38, 0
1, 38752, Note_on_c, 0, 76, 0
1, 38756, Control_c, 0, 64, 127
1, 38796, Note_on_c, 0, 79, 0
1, 38806, Note_on_c, 9, 59, 92
1, 38840, Control_c, 0, 64, 0
1, 38844, Note_on_c, 9, 38, 24
1, 38872, Note_on_c, 0, 69, 0
1, 38872, Control_c, 0, 64, 127
1, 38892, Note_on_c, 0, 72, 0
1, 38900, Note_on_c, 0, 77, 0
1, 38908, Note_on_c, 9, 38, 0
1, 38952, Control_c, 0, 64, 0
1, 38988, Note_on_c, 0, 64, 0
1, 39020, Note_on_c, 0, 78, 81
1, 39032, Note_on_c, 0, 62, 66
1, 39036, Note_on_c, 0, 72, 63
1, 39040, Note_on_c, 0, 69, 63
1, 39096, Note_on_c, 9, 36, 25
1, 39132, Note_on_c, 9, 36, 0
1, 39132, Control_c, 0, 64, 127
1, 39136, Note_on_c, 9, 59, 0
1, 39148, Note_on_c, 0, 72, 0
1, 39148, Note_on_c, 0, 69, 0
1, 39156, Note_on_c, 0, 78, 0
1, 39200, Note_on_c, 0, 62, 0
1, 39218, Note_on_c, 9, 36, 30
1, 39244, Note_on_c, 0, 76, 63
1, 39248, Note_on_c, 0, 67, 67
1, 39260, Note_on_c, 0, 60, 50
1, 39276, Note_on_c, 0, 76, 0
1, 39296, Note_on_c, 1, 33, 0
1, 39302, Note_on_c, 9, 36, 0
1, 39312, Note_on_c, 0, 60, 0
1, 39312, Note_on_c, 0, 67, 0
1, 39324, Note_on_c, 1, 34, 92
1, 39394, Note_on_c, 1, 34, 0
1, 39430, Note_on_c, 9, 59, 64
1, 39448, Note_on_c, 1, 35, 106
1, 39488, Note_on_c, 9, 59, 0
1, 39504, Control_c, 0, 64, 0
1, 39554, Note_on_c, 1, 35, 0
1, 39564, Note_on_c, 9, 59, 75
1, 39576, Note_on_c, 0, 74, 72
1, 39576, Note_on_c, 0, 63, 64
1, 39576, Note_on_c, 0, 67, 60
1, 39580, Note_on_c, 0, 59, 58
1, 39586, Note_on_c, 1, 36, 112
1, 39776, Note_on_c, 0, 59, 0
1, 39816, Note_on_c, 0, 58, 56
1, 39826, Note_on_c, 9, 59, 0
1, 39872, Note_on_c, 0, 67, 0
1, 39878, Note_on_c, 1, 34, 64
1, 39884, Note_on_c, 0, 63, 0
1, 39884, Note_on_c, 0, 58, 0
1, 39896, Note_on_c, 0, 57, 56
1, 39932, Note_on_c, 0, 74, 0
1, 39968, Note_on_c, 0, 57, 0
1, 39976, Note_on_c, 1, 48, 109
1, 39986, Note_on_c, 1, 34, 0
1, 39988, Note_on_c, 0, 56, 57
1, 40020, Note_on_c, 0, 56, 0
1, 40056, Note_on_c, 0, 63, 57
1, 40064, Note_on_c, 0, 72, 59
1, 40072, Note_on_c, 0, 55, 54
1, 40076, Note_on_c, 0, 67, 56
1, 40188, Note_on_c, 9, 59, 60
1, 40216, Note_on_c, 9, 38, 21
1, 40240, Note_on_c, 9, 59, 0
1, 40242, Note_on_c, 9, 38, 0
1, 40304, Control_c, 0, 64, 127
1, 40306, Note_on_c, 9, 59, 80
1, 40320, Note_on_c, 9, 44, 45
1, 40450, Note_on_c, 9, 44, 0
1, 40492, Note_on_c, 1, 36, 0
1, 40502, Note_on_c, 9, 59, 0
1, 40524, Note_on_c, 0, 55, 0
1, 40552, Note_on_c, 0, 63, 0
1, 40572, Note_on_c, 1, 36, 74
1, 40596, Note_on_c, 0, 67, 0
1, 40640, Note_on_c, 0, 54, 37
1, 40648, Note_on_c, 0, 72, 0
1, 40660, Control_c, 0, 64, 0
1, 40668, Note_on_c, 1, 36, 0
1, 40678, Note_on_c, 9, 59, 95
1, 40706, Note_on_c, 1, 48, 0
1, 40710, Note_on_c, 1, 35, 83
1, 40722, Note_on_c, 9, 38, 16
1, 40732, Note_on_c, 0, 54, 0
1, 40752, Note_on_c, 0, 62, 58
1, 40752, Note_on_c, 0, 66, 57
1, 40756, Note_on_c, 0, 47, 49
1, 40760, Note_on_c, 0, 57, 49
1, 40764, Note_on_c, 9, 38, 0
1, 40808, Control_c, 0, 64, 127
1, 40868, Note_on_c, 0, 62, 0
1, 40904, Note_on_c, 9, 59, 0
1, 40924, Note_on_c, 0, 47, 0
1, 40972, Note_on_c, 0, 57, 0
1, 41000, Note_on_c, 0, 66, 0
1, 41078, Note_on_c, 9, 59, 92
1, 41096, Note_on_c, 1, 50, 127
1, 41126, Note_on_c, 1, 35, 0
1, 41304, Note_on_c, 9, 59, 0
1, 41332, Note_on_c, 0, 90, 84
1, 41334, Note_on_c, 9, 38, 18
1, 41356, Note_on_c, 0, 86, 72
1, 41356, Note_on_c, 1, 38, 92
1, 41360, Note_on_c, 9, 38, 0
1, 41364, Note_on_c, 0, 66, 61
1, 41368, Control_c, 0, 64, 0
1, 41372, Note_on_c, 0, 62, 50
1, 41372, Note_on_c, 0, 57, 48
1, 41372, Note_on_c, 0, 61, 44
1, 41400, Control_c, 0, 64, 127
1, 41416, Note_on_c, 1, 38, 0
1, 41416, Note_on_c, 0, 78, 61
1, 41440, Note_on_c, 1, 50, 0
1, 41452, Note_on_c, 9, 44, 46
1, 41472, Note_on_c, 9, 59, 101
1, 41484, Note_on_c, 1, 39, 103
1, 41584, Note_on_c, 0, 62, 0
1, 41596, Note_on_c, 0, 61, 0
1, 41596, Note_on_c, 0, 57, 0
1, 41616, Note_on_c, 0, 66, 0
1, 41616, Note_on_c, 0, 86, 0
1, 41648, Note_on_c, 0, 90, 0
1, 41650, Note_on_c, 9, 44, 0
1, 41660, Note_on_c, 0, 78, 0
1, 41680, Note_on_c, 9, 59, 0
1, 41750, Note_on_c, 9, 59, 64
1, 41800, Note_on_c, 9, 59, 0
1, 41862, Note_on_c, 9, 59, 85
1, 41864, Note_on_c, 1, 40, 96
1, 41874, Note_on_c, 1, 39, 0
1, 42072, Note_on_c, 9, 59, 0
1, 42100, Control_c, 0, 64, 0
1, 42118, Note_on_c, 1, 59, 112
1, 42128, Note_on_c, 0, 86, 71
1, 42128, Note_on_c, 9, 38, 19
1, 42140, Note_on_c, 0, 83, 79
1, 42160, Note_on_c, 0, 56, 50
1, 42162, Note_on_c, 9, 38, 0
1, 42164, Note_on_c, 0, 67, 48
1, 42168, Note_on_c, 0, 62, 49
1, 42176, Note_on_c, 0, 74, 48
1, 42210, Note_on_c, 1, 59, 0
1, 42246, Note_on_c, 9, 59, 108
1, 42246, Note_on_c, 9, 44, 41
1, 42296, Control_c, 0, 64, 127
1, 42344, Note_on_c, 1, 56, 96
1, 42444, Note_on_c, 9, 44, 0
1, 42460, Note_on_c, 0, 67, 0
1, 42464, Note_on_c, 0, 74, 0
1, 42464, Note_on_c, 0, 62, 0
1, 42480, Note_on_c, 0, 83, 0
1, 42486, Note_on_c, 9, 59, 0
1, 42488, Note_on_c, 0, 56, 0
1, 42536, Note_on_c, 9, 59, 63
1, 42552, Note_on_c, 0, 86, 0
1, 42582, Note_on_c, 9, 59, 0
1, 42604, Note_on_c, 1, 56, 0
1, 42624, Note_on_c, 1, 40, 0
1, 42624, Note_on_c, 0, 56, 51
1, 42624, Note_on_c, 9, 44, 50
1, 42636, Note_on_c, 1, 52, 99
1, 42644, Note_on_c, 0, 67, 39
1, 42648, Note_on_c, 9, 59, 85
1, 42652, Note_on_c, 0, 62, 46
1, 42736, Note_on_c, 0, 62, 0
1, 42752, Note_on_c, 9, 44, 0
1, 42772, Note_on_c, 0, 67, 0
1, 42828, Note_on_c, 9, 59, 0
1, 42856, Note_on_c, 1, 52, 0
1, 42880, Note_on_c, 9, 38, 32
1, 42892, Note_on_c, 1, 44, 104
1, 42936, Note_on_c, 0, 56, 0
1, 42940, Note_on_c, 9, 38, 0
1, 42984, Control_c, 0, 64, 0
1, 43004, Note_on_c, 0, 64, 46
1, 43016, Note_on_c, 0, 55, 31
1, 43020, Note_on_c, 0, 60, 48
1, 43024, Note_on_c, 0, 59, 45
1, 43024, Note_on_c, 9, 59, 105
1, 43052, Note_on_c, 0, 81, 42
1, 43068, Note_on_c, 1, 44, 0
1, 43136, Note_on_c, 1, 45, 98
1, 43168, Note_on_c, 0, 82, 39
1, 43188, Note_on_c, 0, 60, 0
1, 43204, Note_on_c, 0, 82, 0
1, 43232, Note_on_c, 0, 83, 54
1, 43244, Note_on_c, 0, 59, 0
1, 43256, Note_on_c, 0, 81, 0
1, 43272, Note_on_c, 9, 38, 22
1, 43296, Note_on_c, 0, 83, 0
1, 43302, Note_on_c, 9, 38, 0
1, 43304, Note_on_c, 9, 59, 0
1, 43304, Note_on_c, 0, 60, 46
1, 43320, Note_on_c, 0, 86, 76
1, 43368, Note_on_c, 1, 45, 0
1, 43372, Note_on_c, 0, 59, 4
1, 43384, Note_on_c, 0, 64, 0
1, 43400, Note_on_c, 1, 40, 98
1, 43414, Note_on_c, 9, 44, 26
1, 43416, Note_on_c, 0, 60, 0
1, 43424, Note_on_c, 0, 86, 0
1, 43430, Note_on_c, 9, 59, 79
1, 43436, Note_on_c, 0, 55, 0
1, 43448, Note_on_c, 0, 59, 0
1, 43468, Note_on_c, 9, 44, 0
1, 43528, Note_on_c, 9, 44, 33
1, 43552, Note_on_c, 9, 44, 0
1, 43568, Note_on_c, 9, 59, 0
1, 43644, Note_on_c, 0, 83, 45
1, 43648, Note_on_c, 9, 38, 42
1, 43672, Note_on_c, 0, 83, 0
1, 43712, Note_on_c, 0, 64, 39
1, 43716, Note_on_c, 0, 60, 44
1, 43740, Note_on_c, 0, 59, 37
1, 43744, Note_on_c, 1, 40, 0
1, 43752, Note_on_c, 0, 55, 32
1, 43756, Note_on_c, 0, 64, 0
1, 43768, Note_on_c, 0, 90, 88
1, 43776, Note_on_c, 1, 36, 81
1, 43804, Note_on_c, 9, 59, 76
1, 43808, Note_on_c, 0, 60, 0
1, 43812, Note_on_c, 0, 59, 0
1, 43852, Note_on_c, 9, 38, 0
1, 43860, Note_on_c, 0, 55, 0
1, 43904, Note_on_c, 9, 59, 0
1, 43936, Note_on_c, 0, 86, 68
1, 43940, Note_on_c, 0, 90, 0
1, 44038, Note_on_c, 1, 36, 0
1, 44040, Note_on_c, 1, 37, 92
1, 44056, Note_on_c, 0, 86, 0
1, 44060, Note_on_c, 9, 51, 76
1, 44064, Note_on_c, 9, 59, 87
1, 44140, Note_on_c, 9, 51, 0
1, 44150, Note_on_c, 1, 37, 0
1, 44156, Note_on_c, 0, 86, 60
1, 44172, Note_on_c, 1, 38, 97
1, 44196, Note_on_c, 0, 60, 39
1, 44204, Note_on_c, 0, 64, 40
1, 44212, Note_on_c, 0, 54, 37
1, 44256, Note_on_c, 0, 86, 0
1, 44278, Note_on_c, 9, 59, 0
1, 44356, Note_on_c, 0, 60, 0
1, 44368, Note_on_c, 0, 86, 49
1, 44440, Note_on_c, 9, 59, 64
1, 44464, Note_on_c, 0, 60, 45
1, 44504, Note_on_c, 0, 86, 0
1, 44512, Note_on_c, 9, 59, 0
1, 44512, Note_on_c, 0, 64, 0
1, 44552, Note_on_c, 9, 44, 22
1, 44576, Note_on_c, 0, 90, 68
1, 44584, Note_on_c, 0, 60, 0
1, 44588, Note_on_c, 9, 59, 78
1, 44600, Note_on_c, 9, 44, 0
1, 44608, Note_on_c, 0, 54, 0
1, 44678, Note_on_c, 9, 38, 46
1, 44792, Note_on_c, 0, 90, 0
1, 44796, Note_on_c, 9, 59, 0
1, 44812, Note_on_c, 0, 54, 46
1, 44816, Note_on_c, 0, 60, 46
1, 44824, Note_on_c, 0, 86, 56
1, 44832, Note_on_c, 0, 64, 38
1, 44886, Note_on_c, 9, 38, 0
1, 44892, Note_on_c, 0, 86, 0
1, 44914, Note_on_c, 1, 38, 0
1, 44920, Control_c, 0, 64, 127
1, 44934, Note_on_c, 1, 36, 95
1, 44952, Note_on_c, 9, 59, 101
1, 44972, Note_on_c, 0, 64, 0
1, 44980, Note_on_c, 0, 60, 0
1, 45044, Note_on_c, 0, 54, 0
1, 45052, Note_on_c, 0, 86, 65
1, 45158, Note_on_c, 9, 59, 0
1, 45164, Note_on_c, 0, 54, 52
1, 45168, Note_on_c, 0, 86, 0
1, 45172, Note_on_c, 0, 64, 43
1, 45188, Note_on_c, 0, 60, 43
1, 45224, Note_on_c, 0, 60, 0
1, 45228, Note_on_c, 0, 64, 0
1, 45232, Note_on_c, 9, 59, 63
1, 45296, Note_on_c, 9, 59, 0
1, 45296, Note_on_c, 0, 83, 58
1, 45304, Note_on_c, 1, 36, 0
1, 45312, Note_on_c, 0, 54, 0
1, 45320, Note_on_c, 1, 35, 95
1, 45346, Note_on_c, 9, 59, 77
1, 45350, Note_on_c, 9, 44, 24
1, 45380, Note_on_c, 0, 83, 0
1, 45388, Note_on_c, 9, 44, 0
1, 45392, Control_c, 0, 64, 0
1, 45404, Note_on_c, 0, 82, 63
1, 45472, Note_on_c, 9, 38, 60
1, 45484, Note_on_c, 0, 82, 0
1, 45504, Note_on_c, 0, 81, 58
1, 45544, Note_on_c, 9, 59, 0
1, 45564, Note_on_c, 0, 59, 34
1, 45588, Note_on_c, 0, 62, 30
1, 45632, Note_on_c, 0, 62, 0
1, 45632, Note_on_c, 0, 81, 0
1, 45632, Note_on_c, 0, 59, 0
1, 45670, Note_on_c, 9, 38, 0
1, 45708, Note_on_c, 9, 59, 81
1, 45760, Control_c, 0, 64, 127
1, 45760, Note_on_c, 9, 38, 38
1, 45780, Note_on_c, 0, 59, 44
1, 45784, Note_on_c, 0, 81, 60
1, 45784, Note_on_c, 0, 62, 45
1, 45792, Note_on_c, 0, 57, 42
1, 45846, Note_on_c, 9, 38, 0
1, 45874, Note_on_c, 9, 59, 0
1, 45980, Note_on_c, 9, 59, 83
1, 46116, Note_on_c, 0, 62, 0
1, 46134, Note_on_c, 9, 59, 0
1, 46136, Note_on_c, 0, 59, 0
1, 46144, Note_on_c, 0, 57, 0
1, 46224, Note_on_c, 0, 81, 0
1, 46352, Note_on_c, 9, 59, 67
1, 46352, Note_on_c, 9, 38, 32
1, 46380, Note_on_c, 9, 38, 0
1, 46392, Note_on_c, 1, 37, 66
1, 46400, Note_on_c, 9, 59, 0
1, 46456, Note_on_c, 1, 35, 0
1, 46472, Note_on_c, 1, 37, 0
1, 46476, Note_on_c, 0, 49, 55
1, 46480, Control_c, 0, 64, 0
1, 46484, Note_on_c, 0, 50, 45
1, 46498, Note_on_c, 1, 38, 93
1, 46500, Note_on_c, 0, 49, 0
1, 46738, Note_on_c, 9, 38, 31
1, 46740, Note_on_c, 0, 71, 66
1, 46742, Note_on_c, 9, 59, 77
1, 46748, Note_on_c, 0, 64, 62
1, 46748, Note_on_c, 0, 60, 56
1, 46760, Note_on_c, 0, 67, 52
1, 46768, Note_on_c, 1, 37, 59
1, 46770, Note_on_c, 9, 38, 0
1, 46808, Note_on_c, 9, 59, 0
1, 46822, Note_on_c, 1, 37, 0
1, 46836, Control_c, 0, 64, 127
1, 46864, Note_on_c, 1, 50, 126
1, 46880, Note_on_c, 9, 59, 54
1, 46882, Note_on_c, 1, 38, 0
1, 47004, Note_on_c, 9, 59, 0
1, 47092, Note_on_c, 0, 67, 0
1, 47116, Note_on_c, 9, 38, 42
1, 47128, Note_on_c, 0, 38, 61
1, 47136, Note_on_c, 0, 64, 0
1, 47136, Note_on_c, 0, 60, 0
1, 47136, Note_on_c, 9, 59, 73
1, 47144, Note_on_c, 9, 38, 0
1, 47160, Note_on_c, 0, 38, 0
1, 47196, Note_on_c, 0, 71, 0
1, 47196, Note_on_c, 0, 50, 0
1, 47196, Note_on_c, 9, 59, 0
1, 47234, Note_on_c, 1, 50, 0
1, 47240, Note_on_c, 1, 44, 99
1, 47272, Note_on_c, 0, 60, 55
1, 47286, Note_on_c, 9, 38, 18
1, 47298, Note_on_c, 9, 59, 37
1, 47318, Note_on_c, 9, 38, 0
1, 47350, Note_on_c, 9, 59, 0
1, 47412, Note_on_c, 0, 60, 0
1, 47490, Note_on_c, 9, 36, 48
1, 47500, Note_on_c, 9, 59, 74
1, 47504, Note_on_c, 9, 57, 44
1, 47504, Note_on_c, 9, 51, 69
1, 47520, Control_c, 0, 64, 0
1, 47524, Note_on_c, 0, 66, 76
1, 47540, Note_on_c, 0, 59, 68
1, 47544, Note_on_c, 0, 62, 65
1, 47548, Note_on_c, 0, 54, 57
1, 47548, Note_on_c, 0, 43, 55
1, 47558, Note_on_c, 9, 57, 0
1, 47558, Note_on_c, 9, 36, 0
1, 47560, Note_on_c, 9, 51, 0
1, 47560, Note_on_c, 9, 59, 0
1, 47560, Note_on_c, 0, 50, 45
1, 47586, Note_on_c, 1, 44, 0
1, 47606, Note_on_c, 1, 43, 82
1, 47634, Note_on_c, 9, 36, 25
1, 47736, Note_on_c, 9, 36, 0
1, 47858, Note_on_c, 1, 38, 83
1, 47862, Note_on_c, 1, 43, 0
1, 47884, Note_on_c, 0, 62, 0
1, 47926, Note_on_c, 1, 38, 0
1, 47948, Note_on_c, 0, 59, 0
1, 47984, Note_on_c, 1, 35, 87
1, 48004, Note_on_c, 0, 66, 0
1, 48028, Note_on_c, 0, 62, 60
1, 48036, Note_on_c, 0, 54, 0
1, 48152, Note_on_c, 0, 50, 0
1, 48216, Note_on_c, 0, 62, 0
1, 48252, Note_on_c, 0, 59, 66
1, 48278, Note_on_c, 0, 50, 45
1, 48278, Note_on_c, 9, 38, 24
1, 48306, Note_on_c, 9, 38, 0
1, 48332, Note_on_c, 0, 59, 0
1, 48348, Note_on_c, 1, 35, 0
1, 48372, Note_on_c, 0, 50, 0
1, 48374, Note_on_c, 1, 39, 95
1, 48388, Note_on_c, 0, 54, 62
1, 48406, Note_on_c, 9, 51, 88
1, 48424, Note_on_c, 0, 43, 0
1, 48642, Note_on_c, 9, 38, 36
1, 48648, Note_on_c, 0, 54, 0
1, 48652, Note_on_c, 0, 47, 48
1, 48668, Note_on_c, 0, 50, 72
1, 48672, Note_on_c, 9, 38, 0
1, 48700, Note_on_c, 0, 47, 0
1, 48744, Note_on_c, 0, 50, 0
1, 48764, Note_on_c, 1, 39, 0
1, 48764, Note_on_c, 1, 40, 94
1, 48788, Note_on_c, 0, 52, 57
1, 48898, Note_on_c, 9, 51, 0
1, 48928, Note_on_c, 0, 52, 0
1, 49036, Note_on_c, 0, 40, 73
1, 49052, Note_on_c, 9, 51, 63
1, 49088, Note_on_c, 9, 51, 0
1, 49104, Note_on_c, 0, 40, 0
1, 49144, Note_on_c, 9, 44, 34
1, 49164, Note_on_c, 9, 51, 80
1, 49296, Note_on_c, 1, 47, 88
1, 49346, Note_on_c, 1, 47, 0
1, 49384, Note_on_c, 9, 51, 0
1, 49388, Note_on_c, 9, 44, 0
1, 49412, Note_on_c, 0, 59, 69
1, 49414, Note_on_c, 1, 49, 106
1, 49416, Note_on_c, 0, 62, 65
1, 49428, Note_on_c, 0, 55, 48
1, 49444, Note_on_c, 0, 62, 0
1, 49464, Note_on_c, 0, 59, 0
1, 49488, Note_on_c, 0, 55, 0
1, 49512, Note_on_c, 1, 49, 0
1, 49520, Note_on_c, 9, 44, 48
1, 49524, Note_on_c, 0, 70, 58
1, 49538, Note_on_c, 9, 51, 92
1, 49542, Note_on_c, 1, 50, 96
1, 49592, Note_on_c, 1, 40, 0
1, 49602, Note_on_c, 9, 44, 0
1, 49632, Note_on_c, 0, 70, 0
1, 49652, Note_on_c, 0, 71, 50
1, 49744, Note_on_c, 0, 71, 0
1, 49760, Note_on_c, 9, 51, 0
1, 49766, Note_on_c, 1, 50, 0
1, 49776, Note_on_c, 0, 74, 117
1, 49776, Note_on_c, 9, 38, 30
1, 49778, Note_on_c, 1, 46, 100
1, 49814, Note_on_c, 9, 38, 0
1, 49820, Note_on_c, 0, 64, 63
1, 49828, Note_on_c, 0, 60, 60
1, 49852, Note_on_c, 0, 59, 43
1, 49876, Note_on_c, 0, 55, 31
1, 49910, Note_on_c, 1, 46, 0
1, 49916, Note_on_c, 0, 74, 0
1, 49922, Note_on_c, 9, 51, 87
1, 49940, Note_on_c, 0, 71, 39
1, 49984, Note_on_c, 1, 45, 75
1, 50040, Note_on_c, 0, 60, 0
1, 50056, Note_on_c, 0, 64, 0
1, 50140, Note_on_c, 0, 71, 0
1, 50144, Note_on_c, 9, 51, 0
1, 50162, Note_on_c, 1, 45, 0
1, 50168, Note_on_c, 0, 72, 81
1, 50172, Note_on_c, 0, 60, 41
1, 50244, Note_on_c, 0, 55, 0
1, 50248, Note_on_c, 0, 60, 0
1, 50248, Note_on_c, 1, 40, 89
1, 50252, Note_on_c, 0, 72, 0
1, 50306, Note_on_c, 9, 51, 84
1, 50308, Note_on_c, 0, 74, 80
1, 50364, Note_on_c, 0, 59, 0
1, 50432, Note_on_c, 9, 51, 0
1, 50492, Note_on_c, 1, 40, 0
1, 50492, Note_on_c, 0, 74, 0
1, 50518, Note_on_c, 1, 36, 90
1, 50548, Note_on_c, 0, 76, 73
1, 50548, Note_on_c, 0, 64, 48
1, 50556, Note_on_c, 0, 59, 43
1, 50560, Note_on_c, 0, 60, 51
1, 50564, Note_on_c, 0, 55, 42
1, 50580, Note_on_c, 0, 64, 0
1, 50592, Note_on_c, 9, 51, 71
1, 50624, Note_on_c, 9, 51, 0
1, 50632, Note_on_c, 0, 60, 0
1, 50644, Note_on_c, 0, 76, 0
1, 50664, Note_on_c, 0, 59, 0
1, 50672, Note_on_c, 9, 38, 24
1, 50690, Note_on_c, 9, 51, 75
1, 50692, Note_on_c, 0, 55, 0
1, 50700, Note_on_c, 0, 79, 70
1, 50710, Note_on_c, 9, 38, 0
1, 50780, Note_on_c, 9, 38, 24
1, 50804, Note_on_c, 0, 79, 0
1, 50812, Note_on_c, 0, 78, 43
1, 50838, Note_on_c, 9, 38, 0
1, 50840, Note_on_c, 0, 78, 0
1, 50920, Note_on_c, 9, 51, 0
1, 50920, Note_on_c, 0, 80, 79
1, 50928, Note_on_c, 0, 68, 63
1, 50952, Note_on_c, 0, 60, 54
1, 50952, Note_on_c, 0, 64, 49
1, 50952, Note_on_c, 0, 54, 49
1, 51062, Note_on_c, 1, 36, 0
1, 51068, Note_on_c, 9, 51, 87
1, 51084, Note_on_c, 1, 38, 90
1, 51298, Note_on_c, 9, 51, 0
1, 51302, Note_on_c, 1, 38, 0
1, 51350, Note_on_c, 1, 38, 86
1, 51452, Control_c, 0, 64, 127
1, 51462, Note_on_c, 9, 51, 83
1, 51472, Note_on_c, 0, 64, 0
1, 51478, Note_on_c, 1, 50, 109
1, 51510, Note_on_c, 9, 38, 22
1, 51556, Note_on_c, 0, 68, 0
1, 51556, Note_on_c, 0, 60, 0
1, 51556, Note_on_c, 0, 54, 0
1, 51564, Note_on_c, 9, 38, 0
1, 51568, Note_on_c, 0, 80, 0
1, 51622, Note_on_c, 9, 38, 33
1, 51632, Control_c, 0, 64, 0
1, 51654, Note_on_c, 9, 38, 0
1, 51676, Note_on_c, 0, 54, 61
1, 51680, Note_on_c, 9, 51, 0
1, 51680, Note_on_c, 0, 81, 72
1, 51684, Note_on_c, 0, 60, 62
1, 51688, Note_on_c, 0, 69, 70
1, 51692, Note_on_c, 0, 64, 55
1, 51740, Note_on_c, 9, 51, 56
1, 51748, Note_on_c, 0, 75, 22
1, 51750, Note_on_c, 9, 38, 54
1, 51756, Control_c, 0, 64, 127
1, 51760, Note_on_c, 9, 53, 62
1, 51836, Note_on_c, 0, 81, 0
1, 51842, Note_on_c, 9, 38, 0
1, 51860, Note_on_c, 0, 64, 0
1, 51860, Note_on_c, 0, 69, 0
1, 51880, Note_on_c, 0, 54, 0
1, 51890, Note_on_c, 9, 51, 0
1, 51890, Note_on_c, 9, 53, 0
1, 51890, Note_on_c, 9, 38, 45
1, 51896, Note_on_c, 0, 60, 0
1, 51900, Note_on_c, 0, 75, 0
1, 51928, Note_on_c, 9, 38, 0
1, 51948, Note_on_c, 0, 82, 79
1, 51952, Note_on_c, 0, 70, 66
1, 51956, Note_on_c, 0, 54, 63
1, 51964, Note_on_c, 0, 60, 63
1, 51964, Note_on_c, 0, 64, 58
1, 51992, Note_on_c, 1, 38, 0
1, 52012, Note_on_c, 9, 36, 30
1, 52068, Note_on_c, 0, 60, 0
1, 52068, Note_on_c, 0, 64, 0
1, 52086, Note_on_c, 9, 36, 0
1, 52136, Note_on_c, 0, 70, 0
1, 52136, Note_on_c, 9, 51, 58
1, 52150, Note_on_c, 9, 36, 50
1, 52152, Note_on_c, 0, 54, 0
1, 52152, Note_on_c, 0, 82, 0
1, 52156, Control_c, 0, 64, 0
1, 52200, Note_on_c, 9, 51, 0
1, 52216, Note_on_c, 1, 50, 0
1, 52230, Note_on_c, 1, 43, 81
1, 52232, Note_on_c, 0, 59, 62
1, 52236, Note_on_c, 0, 83, 63
1, 52240, Note_on_c, 0, 62, 55
1, 52240, Note_on_c, 0, 71, 57
1, 52248, Note_on_c, 0, 54, 44
1, 52274, Note_on_c, 9, 51, 74
1, 52280, Note_on_c, 0, 57, 30
1, 52316, Note_on_c, 9, 36, 0
1, 52324, Control_c, 0, 64, 127
1, 52484, Note_on_c, 0, 57, 0
1, 52496, Note_on_c, 0, 59, 0
1, 52520, Note_on_c, 0, 54, 0
1, 52536, Note_on_c, 0, 71, 0
1, 52552, Note_on_c, 9, 51, 0
1, 52584, Note_on_c, 0, 62, 0
1, 52648, Note_on_c, 9, 51, 83
1, 52724, Note_on_c, 0, 83, 0
1, 52864, Note_on_c, 0, 62, 67
1, 52876, Note_on_c, 0, 59, 56
1, 52876, Note_on_c, 0, 54, 39
1, 52884, Note_on_c, 0, 57, 47
1, 52892, Note_on_c, 9, 51, 0
1, 52936, Note_on_c, 1, 43, 0
1, 52968, Note_on_c, 0, 54, 0
1, 52968, Control_c, 0, 64, 0
1, 52972, Note_on_c, 0, 57, 0
1, 52978, Note_on_c, 1, 38, 106
1, 52984, Note_on_c, 9, 51, 44
1, 53000, Note_on_c, 0, 59, 0
1, 53014, Note_on_c, 9, 51, 0
1, 53044, Note_on_c, 0, 87, 39
1, 53056, Note_on_c, 9, 51, 71
1, 53072, Note_on_c, 0, 62, 0
1, 53084, Note_on_c, 0, 87, 0
1, 53180, Note_on_c, 0, 88, 62
1, 53240, Note_on_c, 0, 88, 0
1, 53254, Note_on_c, 9, 51, 0
1, 53300, Note_on_c, 0, 91, 122
1, 53320, Note_on_c, 0, 65, 56
1, 53324, Note_on_c, 0, 60, 57
1, 53332, Note_on_c, 0, 55, 49
1, 53336, Note_on_c, 0, 57, 54
1, 53394, Note_on_c, 9, 51, 86
1, 53424, Note_on_c, 9, 38, 25
1, 53428, Note_on_c, 0, 91, 0
1, 53440, Note_on_c, 0, 89, 77
1, 53462, Note_on_c, 9, 38, 0
1, 53538, Note_on_c, 9, 38, 19
1, 53548, Note_on_c, 0, 89, 0
1, 53580, Note_on_c, 0, 85, 68
1, 53600, Note_on_c, 9, 38, 0
1, 53628, Note_on_c, 9, 51, 0
1, 53660, Note_on_c, 9, 38, 40
1, 53712, Note_on_c, 0, 85, 0
1, 53732, Note_on_c, 0, 84, 42
1, 53756, Note_on_c, 1, 31, 85
1, 53760, Note_on_c, 9, 51, 81
1, 53766, Note_on_c, 9, 38, 0
1, 53776, Note_on_c, 1, 38, 0
1, 53820, Note_on_c, 0, 84, 0
1, 53832, Note_on_c, 0, 65, 0
1, 53872, Note_on_c, 0, 60, 0
1, 53906, Note_on_c, 9, 51, 0
1, 53924, Note_on_c, 0, 57, 0
1, 53944, Note_on_c, 0, 55, 0
1, 53968, Note_on_c, 9, 38, 24
1, 53996, Note_on_c, 1, 38, 74
1, 54022, Note_on_c, 9, 38, 0
1, 54024, Note_on_c, 1, 38, 0
1, 54032, Note_on_c, 1, 31, 0
1, 54050, Note_on_c, 9, 51, 59
1, 54072, Note_on_c, 0, 53, 58
1, 54080, Note_on_c, 0, 59, 49
1, 54092, Note_on_c, 0, 64, 36
1, 54096, Note_on_c, 9, 51, 0
1, 54108, Note_on_c, 0, 62, 32
1, 54134, Note_on_c, 1, 43, 89
1, 54140, Note_on_c, 9, 51, 82
1, 54156, Note_on_c, 0, 62, 0
1, 54276, Note_on_c, 0, 64, 0
1, 54316, Note_on_c, 0, 88, 83
1, 54326, Note_on_c, 9, 38, 33
1, 54332, Note_on_c, 0, 59, 0
1, 54358, Note_on_c, 9, 38, 0
1, 54370, Note_on_c, 9, 51, 0
1, 54372, Note_on_c, 0, 53, 0
1, 54380, Note_on_c, 1, 43, 0
1, 54416, Note_on_c, 1, 35, 50
1, 54424, Note_on_c, 0, 88, 0
1, 54432, Note_on_c, 9, 38, 27
1, 54448, Note_on_c, 0, 83, 70
1, 54496, Note_on_c, 9, 38, 0
1, 54498, Note_on_c, 1, 35, 0
1, 54508, Note_on_c, 0, 59, 31
1, 54508, Note_on_c, 9, 51, 90
1, 54512, Note_on_c, 0, 62, 48
1, 54516, Note_on_c, 0, 52, 46
1, 54524, Note_on_c, 0, 83, 0
1, 54524, Note_on_c, 0, 55, 42
1, 54524, Note_on_c, 1, 36, 87
1, 54560, Note_on_c, 9, 38, 27
1, 54594, Note_on_c, 9, 38, 0
1, 54684, Note_on_c, 0, 86, 120
1, 54748, Note_on_c, 9, 51, 0
1, 54880, Note_on_c, 9, 51, 75
1, 54998, Note_on_c, 9, 51, 0
1, 55068, Note_on_c, 0, 62, 0
1, 55088, Note_on_c, 0, 52, 0
1, 55100, Note_on_c, 0, 59, 0
1, 55108, Note_on_c, 0, 55, 0
1, 55128, Note_on_c, 0, 86, 0
1, 55152, Note_on_c, 9, 51, 44
1, 55164, Note_on_c, 0, 84, 85
1, 55176, Note_on_c, 0, 52, 50
1, 55180, Note_on_c, 0, 62, 54
1, 55188, Note_on_c, 0, 59, 57
1, 55188, Note_on_c, 0, 55, 57
1, 55206, Note_on_c, 9, 51, 0
1, 55264, Note_on_c, 9, 51, 80
1, 55280, Note_on_c, 0, 52, 0
1, 55280, Control_c, 0, 64, 127
1, 55296, Note_on_c, 0, 55, 0
1, 55302, Note_on_c, 1, 48, 127
1, 55308, Note_on_c, 0, 59, 0
1, 55320, Note_on_c, 0, 62, 0
1, 55336, Note_on_c, 0, 84, 0
1, 55346, Note_on_c, 1, 36, 0
1, 55360, Control_c, 0, 64, 0
1, 55368, Note_on_c, 0, 83, 51
1, 55492, Note_on_c, 0, 83, 0
1, 55500, Note_on_c, 9, 51, 0
1, 55560, Note_on_c, 0, 62, 43
1, 55564, Note_on_c, 0, 67, 56
1, 55564, Note_on_c, 0, 79, 67
1, 55568, Note_on_c, 0, 63, 53
1, 55572, Note_on_c, 0, 57, 45
1, 55672, Note_on_c, 9, 51, 99
1, 55712, Note_on_c, 0, 79, 0
1, 55744, Note_on_c, 0, 75, 56
1, 55792, Note_on_c, 0, 63, 0
1, 55800, Note_on_c, 0, 67, 0
1, 55896, Note_on_c, 0, 75, 0
1, 55916, Note_on_c, 9, 51, 0
1, 55916, Note_on_c, 9, 38, 31
1, 55936, Note_on_c, 1, 41, 115
1, 55942, Note_on_c, 9, 38, 0
1, 55960, Note_on_c, 0, 63, 25
1, 55988, Note_on_c, 0, 74, 48
1, 56020, Note_on_c, 0, 74, 0
1, 56028, Note_on_c, 0, 63, 0
1, 56082, Note_on_c, 9, 51, 62
1, 56084, Note_on_c, 0, 77, 83
1, 56096, Note_on_c, 0, 57, 0
1, 56140, Note_on_c, 9, 51, 0
1, 56144, Control_c, 0, 64, 127
1, 56152, Note_on_c, 0, 62, 0
1, 56162, Note_on_c, 9, 38, 38
1, 56188, Note_on_c, 9, 38, 0
1, 56188, Control_c, 0, 64, 0
1, 56236, Control_c, 0, 64, 127
1, 56288, Control_c, 0, 64, 0
1, 56296, Note_on_c, 0, 77, 0
1, 56304, Note_on_c, 1, 48, 0
1, 56310, Note_on_c, 9, 36, 26
1, 56320, Note_on_c, 0, 74, 50
1, 56326, Note_on_c, 1, 39, 71
1, 56332, Note_on_c, 0, 63, 45
1, 56332, Note_on_c, 0, 67, 36
1, 56332, Note_on_c, 0, 62, 39
1, 56332, Note_on_c, 9, 51, 67
1, 56360, Note_on_c, 0, 57, 31
1, 56364, Note_on_c, 9, 36, 0
1, 56372, Note_on_c, 0, 67, 0
1, 56384, Note_on_c, 0, 62, 0
1, 56392, Note_on_c, 0, 74, 0
1, 56400, Note_on_c, 0, 63, 0
1, 56406, Note_on_c, 9, 51, 0
1, 56420, Note_on_c, 0, 57, 0
1, 56428, Note_on_c, 1, 39, 0
1, 56432, Note_on_c, 9, 38, 29
1, 56456, Note_on_c, 9, 51, 83
1, 56460, Note_on_c, 1, 53, 112
1, 56468, Control_c, 0, 64, 127
1, 56476, Note_on_c, 0, 75, 63
1, 56488, Note_on_c, 9, 38, 0
1, 56498, Note_on_c, 1, 41, 0
1, 56560, Note_on_c, 9, 38, 27
1, 56568, Note_on_c, 9, 51, 0
1, 56632, Note_on_c, 9, 38, 0
1, 56672, Note_on_c, 0, 75, 0
1, 56692, Control_c, 0, 64, 0
1, 56700, Note_on_c, 9, 36, 33
1, 56712, Note_on_c, 0, 76, 68
1, 56712, Note_on_c, 9, 51, 106
1, 56722, Note_on_c, 1, 41, 79
1, 56732, Note_on_c, 9, 36, 0
1, 56754, Note_on_c, 1, 41, 0
1, 56764, Note_on_c, 0, 56, 39
1, 56764, Note_on_c, 0, 59, 39
1, 56768, Note_on_c, 1, 53, 0
1, 56796, Note_on_c, 0, 76, 0
1, 56828, Note_on_c, 9, 51, 0
1, 56844, Note_on_c, 1, 52, 93
1, 56870, Note_on_c, 0, 71, 58
1, 56870, Note_on_c, 9, 51, 83
1, 56900, Note_on_c, 0, 59, 0
1, 56904, Note_on_c, 0, 52, 1
1, 56924, Note_on_c, 0, 56, 0
1, 57020, Note_on_c, 0, 71, 0
1, 57084, Note_on_c, 9, 51, 0
1, 57124, Note_on_c, 0, 59, 30
1, 57148, Note_on_c, 0, 56, 14
1, 57176, Note_on_c, 0, 52, 0
1, 57188, Note_on_c, 0, 59, 0
1, 57196, Note_on_c, 1, 52, 0
1, 57228, Note_on_c, 1, 47, 93
1, 57240, Note_on_c, 0, 56, 0
1, 57248, Note_on_c, 9, 51, 83
1, 57360, Note_on_c, 9, 51, 0
1, 57510, Note_on_c, 0, 56, 48
1, 57510, Note_on_c, 9, 51, 75
1, 57536, Note_on_c, 0, 59, 32
1, 57554, Note_on_c, 9, 51, 0
1, 57584, Note_on_c, 0, 59, 0
1, 57618, Note_on_c, 9, 51, 86
1, 57624, Note_on_c, 0, 56, 0
1, 57672, Note_on_c, 0, 64, 27
1, 57708, Note_on_c, 0, 64, 0
1, 57756, Note_on_c, 0, 66, 55
1, 57832, Note_on_c, 0, 66, 0
1, 57846, Note_on_c, 1, 40, 98
1, 57856, Note_on_c, 9, 51, 0
1, 57868, Note_on_c, 0, 68, 64
1, 57900, Note_on_c, 0, 56, 45
1, 57924, Note_on_c, 0, 68, 0
1, 57926, Note_on_c, 1, 47, 0
1, 57948, Note_on_c, 0, 56, 0
1, 57984, Note_on_c, 1, 40, 0
1, 57984, Note_on_c, 1, 37, 108
1, 57986, Note_on_c, 9, 51, 73
1, 57996, Note_on_c, 0, 71, 54
1, 58060, Note_on_c, 0, 71, 0
1, 58092, Note_on_c, 0, 73, 52
1, 58118, Note_on_c, 9, 51, 0
1, 58140, Note_on_c, 0, 73, 0
1, 58204, Note_on_c, 0, 76, 63
1, 58256, Note_on_c, 9, 51, 69
1, 58268, Note_on_c, 0, 76, 0
1, 58312, Note_on_c, 9, 51, 0
1, 58320, Note_on_c, 0, 78, 79
1, 58348, Note_on_c, 0, 59, 55
1, 58352, Note_on_c, 0, 49, 46
1, 58376, Note_on_c, 0, 59, 0
1, 58376, Note_on_c, 9, 51, 77
1, 58392, Note_on_c, 0, 49, 0
1, 58392, Note_on_c, 0, 78, 0
1, 58452, Note_on_c, 0, 80, 65
1, 58492, Note_on_c, 0, 80, 0
1, 58576, Note_on_c, 0, 83, 54
1, 58584, Note_on_c, 9, 51, 0
1, 58616, Note_on_c, 0, 83, 0
1, 58646, Note_on_c, 9, 38, 50
1, 58688, Note_on_c, 0, 85, 72
1, 58732, Note_on_c, 9, 38, 0
1, 58764, Note_on_c, 0, 85, 0
1, 58800, Note_on_c, 9, 51, 39
1, 58808, Note_on_c, 0, 88, 73
1, 58816, Note_on_c, 9, 38, 25
1, 58832, Note_on_c, 9, 51, 0
1, 58884, Note_on_c, 0, 88, 0
1, 58898, Note_on_c, 9, 38, 0
1, 58928, Note_on_c, 0, 90, 63
1, 59008, Note_on_c, 0, 90, 0
1, 59008, Note_on_c, 1, 37, 0
1, 59014, Note_on_c, 9, 51, 79
1, 59020, Note_on_c, 1, 47, 108
1, 59064, Note_on_c, 0, 92, 69
1, 59084, Note_on_c, 9, 51, 0
1, 59092, Note_on_c, 0, 92, 0
1, 59144, Note_on_c, 9, 51, 83
1, 59152, Note_on_c, 1, 47, 0
1, 59164, Note_on_c, 1, 42, 97
1, 59382, Note_on_c, 9, 51, 0
1, 59506, Note_on_c, 1, 48, 116
1, 59510, Note_on_c, 1, 50, 101
1, 59510, Note_on_c, 9, 51, 70
1, 59536, Control_c, 0, 64, 127
1, 59574, Note_on_c, 9, 51, 0
1, 59596, Note_on_c, 1, 50, 0
1, 59724, Control_c, 0, 64, 0
1, 59768, Note_on_c, 0, 54, 59
1, 59768, Note_on_c, 0, 64, 68
1, 59776, Note_on_c, 0, 60, 65
1, 59788, Note_on_c, 9, 51, 102
1, 59836, Note_on_c, 0, 64, 0
1, 59868, Note_on_c, 0, 54, 0
1, 59880, Note_on_c, 1, 48, 0
1, 59884, Note_on_c, 1, 45, 90
1, 59890, Note_on_c, 1, 42, 0
1, 59896, Note_on_c, 0, 60, 0
1, 59904, Note_on_c, 0, 69, 63
1, 59912, Note_on_c, 0, 72, 51
1, 59968, Note_on_c, 0, 69, 0
1, 59980, Note_on_c, 0, 72, 0
1, 59986, Note_on_c, 9, 51, 0
1, 60032, Note_on_c, 0, 74, 63
1, 60036, Note_on_c, 0, 71, 61
1, 60096, Note_on_c, 0, 71, 0
1, 60096, Note_on_c, 0, 74, 0
1, 60156, Note_on_c, 0, 72, 98
1, 60160, Note_on_c, 0, 76, 107
1, 60178, Note_on_c, 9, 51, 59
1, 60192, Note_on_c, 0, 74, 31
1, 60194, Note_on_c, 1, 41, 63
1, 60220, Note_on_c, 1, 41, 0
1, 60228, Note_on_c, 0, 74, 0
1, 60236, Note_on_c, 9, 51, 0
1, 60256, Note_on_c, 0, 76, 0
1, 60256, Note_on_c, 0, 72, 0
1, 60262, Note_on_c, 1, 45, 0
1, 60276, Note_on_c, 0, 62, 53
1, 60284, Note_on_c, 0, 57, 50
1, 60284, Note_on_c, 0, 51, 45
1, 60288, Note_on_c, 0, 74, 81
1, 60300, Note_on_c, 0, 71, 60
1, 60300, Note_on_c, 1, 47, 95
1, 60348, Note_on_c, 9, 51, 99
1, 60552, Note_on_c, 1, 42, 73
1, 60562, Note_on_c, 9, 51, 0
1, 60576, Note_on_c, 9, 38, 20
1, 60608, Note_on_c, 9, 38, 0
1, 60608, Note_on_c, 0, 71, 0
1, 60610, Note_on_c, 1, 42, 0
1, 60612, Note_on_c, 0, 62, 0
1, 60620, Note_on_c, 0, 74, 0
1, 60632, Note_on_c, 0, 51, 0
1, 60632, Control_c, 0, 64, 127
1, 60658, Note_on_c, 1, 47, 0
1, 60672, Note_on_c, 0, 69, 56
1, 60676, Note_on_c, 0, 72, 56
1, 60678, Note_on_c, 1, 35, 101
1, 60704, Note_on_c, 9, 37, 51
1, 60710, Note_on_c, 9, 51, 60
1, 60720, Note_on_c, 0, 57, 0
1, 60760, Note_on_c, 0, 69, 0
1, 60776, Note_on_c, 9, 51, 0
1, 60812, Note_on_c, 0, 72, 0
1, 60936, Note_on_c, 0, 51, 55
1, 60940, Note_on_c, 9, 37, 0
1, 60950, Note_on_c, 9, 51, 90
1, 60952, Note_on_c, 0, 57, 50
1, 60964, Note_on_c, 0, 51, 0
1, 60966, Note_on_c, 9, 53, 76
1, 60972, Control_c, 0, 64, 0
1, 60992, Note_on_c, 0, 57, 0
1, 61032, Note_on_c, 1, 35, 0
1, 61042, Note_on_c, 1, 39, 103
1, 61064, Note_on_c, 0, 83, 89
1, 61080, Note_on_c, 0, 79, 81
1, 61080, Note_on_c, 0, 57, 64
1, 61084, Note_on_c, 0, 51, 70
1, 61088, Note_on_c, 0, 62, 60
1, 61092, Note_on_c, 0, 74, 75
1, 61096, Note_on_c, 9, 37, 39
1, 61116, Note_on_c, 0, 81, 36
1, 61152, Control_c, 0, 64, 127
1, 61158, Note_on_c, 9, 51, 0
1, 61160, Note_on_c, 9, 37, 0
1, 61190, Note_on_c, 9, 53, 0
1, 61212, Note_on_c, 0, 57, 0
1, 61240, Note_on_c, 0, 51, 0
1, 61284, Note_on_c, 0, 79, 0
1, 61284, Note_on_c, 0, 81, 0
1, 61288, Note_on_c, 0, 62, 0
1, 61304, Note_on_c, 0, 74, 0
1, 61304, Note_on_c, 0, 83, 0
1, 61318, Note_on_c, 9, 51, 60
1, 61378, Note_on_c, 9, 38, 48
1, 61384, Note_on_c, 9, 51, 0
1, 61408, Note_on_c, 9, 38, 0
1, 61410, Note_on_c, 1, 39, 0
1, 61426, Note_on_c, 1, 40, 102
1, 61506, Note_on_c, 9, 51, 84
1, 61522, Note_on_c, 9, 53, 78
1, 61604, Control_c, 0, 64, 0
1, 61608, Note_on_c, 9, 38, 43
1, 61652, Note_on_c, 0, 81, 84
1, 61654, Note_on_c, 9, 38, 0
1, 61668, Note_on_c, 0, 78, 82
1, 61684, Note_on_c, 0, 59, 57
1, 61684, Note_on_c, 0, 74, 78
1, 61684, Note_on_c, 0, 52, 56
1, 61692, Note_on_c, 0, 62, 62
1, 61700, Note_on_c, 0, 55, 49
1, 61704, Note_on_c, 9, 51, 0
1, 61732, Note_on_c, 0, 69, 57
1, 61766, Note_on_c, 9, 53, 0
1, 61824, Note_on_c, 0, 69, 0
1, 61824, Note_on_c, 0, 52, 0
1, 61824, Note_on_c, 0, 62, 0
1, 61836, Note_on_c, 0, 74, 0
1, 61840, Note_on_c, 0, 81, 0
1, 61856, Note_on_c, 0, 55, 0
1, 61856, Note_on_c, 0, 59, 0
1, 61856, Note_on_c, 9, 51, 71
1, 61868, Note_on_c, 0, 78, 0
1, 61876, Control_c, 0, 64, 127
1, 61896, Note_on_c, 9, 38, 52
1, 61920, Note_on_c, 9, 51, 0
1, 61944, Note_on_c, 0, 81, 79
1, 61956, Note_on_c, 0, 62, 58
1, 61960, Note_on_c, 0, 78, 68
1, 61964, Note_on_c, 0, 52, 50
1, 61968, Note_on_c, 0, 74, 76
1, 61968, Note_on_c, 0, 55, 45
1, 61976, Note_on_c, 0, 59, 49
1, 61984, Note_on_c, 0, 69, 68
1, 62056, Note_on_c, 9, 38, 0
1, 62088, Note_on_c, 9, 51, 84
1, 62096, Note_on_c, 9, 53, 81
1, 62100, Note_on_c, 0, 62, 0
1, 62104, Note_on_c, 0, 69, 0
1, 62104, Note_on_c, 0, 74, 0
1, 62108, Note_on_c, 0, 52, 0
1, 62124, Control_c, 0, 64, 0
1, 62124, Note_on_c, 9, 38, 45
1, 62128, Note_on_c, 0, 59, 0
1, 62128, Note_on_c, 0, 55, 0
1, 62136, Note_on_c, 0, 81, 0
1, 62140, Note_on_c, 0, 78, 0
1, 62204, Note_on_c, 9, 38, 0
1, 62228, Note_on_c, 0, 81, 84
1, 62236, Note_on_c, 0, 62, 58
1, 62240, Note_on_c, 0, 52, 49
1, 62240, Note_on_c, 0, 69, 74
1, 62240, Note_on_c, 0, 59, 46
1, 62244, Note_on_c, 0, 78, 61
1, 62248, Note_on_c, 0, 74, 69
1, 62252, Note_on_c, 0, 55, 39
1, 62284, Note_on_c, 9, 51, 0
1, 62304, Control_c, 0, 64, 127
1, 62312, Note_on_c, 0, 62, 0
1, 62328, Note_on_c, 9, 53, 0
1, 62344, Note_on_c, 0, 59, 0
1, 62360, Note_on_c, 0, 69, 0
1, 62376, Note_on_c, 0, 81, 0
1, 62396, Note_on_c, 0, 74, 0
1, 62408, Note_on_c, 0, 52, 0
1, 62424, Note_on_c, 0, 78, 0
1, 62470, Note_on_c, 9, 51, 46
1, 62480, Control_c, 0, 64, 0
1, 62480, Note_on_c, 0, 74, 69
1, 62480, Note_on_c, 0, 79, 74
1, 62492, Note_on_c, 0, 62, 57
1, 62492, Note_on_c, 0, 67, 54
1, 62500, Note_on_c, 0, 55, 0
1, 62500, Note_on_c, 0, 59, 39
1, 62520, Note_on_c, 0, 67, 0
1, 62532, Note_on_c, 0, 62, 0
1, 62532, Note_on_c, 0, 59, 0
1, 62534, Note_on_c, 9, 51, 0
1, 62552, Note_on_c, 0, 74, 0
1, 62568, Note_on_c, 1, 40, 0
1, 62576, Note_on_c, 0, 79, 0
1, 62588, Note_on_c, 1, 33, 102
1, 62626, Note_on_c, 9, 51, 74
1, 62636, Note_on_c, 9, 53, 75
1, 62812, Note_on_c, 0, 84, 88
1, 62820, Note_on_c, 0, 72, 81
1, 62820, Note_on_c, 0, 80, 75
1, 62824, Note_on_c, 0, 55, 68
1, 62824, Note_on_c, 0, 65, 73
1, 62824, Note_on_c, 0, 61, 63
1, 62824, Note_on_c, 0, 78, 62
1, 62828, Note_on_c, 9, 53, 0
1, 62838, Note_on_c, 9, 51, 0
1, 62852, Note_on_c, 0, 78, 0
1, 62872, Note_on_c, 0, 80, 0
1, 62888, Note_on_c, 0, 81, 52
1, 62908, Note_on_c, 0, 83, 21
1, 62916, Control_c, 0, 64, 127
1, 62984, Note_on_c, 0, 72, 0
1, 62988, Control_c, 0, 64, 0
1, 62996, Note_on_c, 0, 83, 0
1, 62996, Note_on_c, 0, 65, 0
1, 63000, Note_on_c, 0, 55, 0
1, 63000, Note_on_c, 0, 84, 0
1, 63004, Note_on_c, 9, 51, 49
1, 63008, Note_on_c, 0, 81, 0
1, 63024, Note_on_c, 0, 61, 0
1, 63046, Note_on_c, 9, 38, 30
1, 63076, Note_on_c, 0, 84, 69
1, 63078, Note_on_c, 9, 38, 0
1, 63080, Note_on_c, 0, 55, 58
1, 63080, Note_on_c, 0, 61, 63
1, 63080, Note_on_c, 0, 65, 66
1, 63080, Note_on_c, 0, 80, 71
1, 63080, Note_on_c, 0, 72, 64
1, 63088, Note_on_c, 9, 51, 0
1, 63116, Note_on_c, 0, 78, 36
1, 63124, Control_c, 0, 64, 127
1, 63152, Note_on_c, 0, 81, 63
1, 63156, Note_on_c, 0, 78, 0
1, 63156, Note_on_c, 0, 83, 24
1, 63160, Note_on_c, 0, 80, 0
1, 63170, Note_on_c, 9, 38, 40
1, 63238, Note_on_c, 9, 38, 0
1, 63240, Note_on_c, 0, 72, 0
1, 63240, Note_on_c, 0, 81, 0
1, 63240, Note_on_c, 9, 51, 94
1, 63248, Control_c, 0, 64, 0
1, 63264, Note_on_c, 0, 55, 0
1, 63264, Note_on_c, 0, 83, 0
1, 63268, Note_on_c, 0, 65, 0
1, 63276, Note_on_c, 0, 84, 0
1, 63296, Note_on_c, 0, 61, 0
1, 63308, Note_on_c, 9, 38, 43
1, 63348, Note_on_c, 0, 84, 68
1, 63356, Note_on_c, 0, 55, 57
1, 63356, Note_on_c, 0, 61, 60
1, 63356, Note_on_c, 0, 80, 69
1, 63356, Note_on_c, 0, 65, 61
1, 63356, Note_on_c, 0, 72, 63
1, 63364, Control_c, 0, 64, 127
1, 63368, Note_on_c, 9, 38, 0
1, 63384, Note_on_c, 0, 80, 0
1, 63408, Note_on_c, 0, 83, 39
1, 63408, Note_on_c, 0, 81, 55
1, 63436, Note_on_c, 9, 51, 0
1, 63440, Note_on_c, 9, 36, 45
1, 63444, Note_on_c, 0, 81, 0
1, 63460, Note_on_c, 0, 83, 0
1, 63472, Note_on_c, 0, 65, 0
1, 63480, Note_on_c, 0, 72, 0
1, 63480, Note_on_c, 0, 55, 0
1, 63488, Note_on_c, 0, 84, 0
1, 63500, Note_on_c, 9, 36, 0
1, 63532, Note_on_c, 0, 61, 0
1, 63548, Control_c, 0, 64, 0
1, 63600, Note_on_c, 0, 81, 77
1, 63612, Note_on_c, 0, 61, 60
1, 63616, Note_on_c, 0, 69, 54
1, 63628, Note_on_c, 0, 65, 50
1, 63634, Note_on_c, 9, 51, 46
1, 63640, Note_on_c, 0, 69, 0
1, 63656, Note_on_c, 0, 65, 0
1, 63668, Note_on_c, 0, 81, 0
1, 63682, Note_on_c, 9, 36, 45
1, 63692, Note_on_c, 0, 61, 0
1, 63698, Note_on_c, 9, 51, 0
1, 63752, Note_on_c, 9, 36, 0
1, 63804, Note_on_c, 9, 51, 85
1, 63816, Note_on_c, 9, 53, 76
1, 63864, Note_on_c, 0, 88, 82
1, 63868, Note_on_c, 0, 55, 64
1, 63868, Note_on_c, 0, 64, 75
1, 63876, Note_on_c, 0, 60, 66
1, 63876, Note_on_c, 0, 81, 71
1, 63876, Note_on_c, 0, 76, 71
1, 63876, Note_on_c, 0, 84, 63
1, 63876, Note_on_c, 0, 59, 60
1, 63916, Control_c, 0, 64, 127
1, 64012, Note_on_c, 9, 51, 0
1, 64032, Control_c, 0, 64, 0
1, 64038, Note_on_c, 9, 53, 0
1, 64052, Note_on_c, 0, 76, 0
1, 64060, Note_on_c, 0, 81, 0
1, 64060, Note_on_c, 0, 55, 0
1, 64068, Note_on_c, 0, 59, 0
1, 64068, Note_on_c, 0, 64, 0
1, 64068, Note_on_c, 0, 84, 0
1, 64076, Note_on_c, 0, 88, 0
1, 64080, Note_on_c, 0, 60, 0
1, 64128, Note_on_c, 1, 33, 0
1, 64136, Note_on_c, 1, 45, 127
1, 64144, Note_on_c, 0, 88, 75
1, 64150, Note_on_c, 9, 51, 51
1, 64152, Note_on_c, 0, 64, 60
1, 64156, Note_on_c, 0, 55, 52
1, 64156, Note_on_c, 0, 60, 64
1, 64160, Note_on_c, 0, 59, 55
1, 64160, Note_on_c, 0, 81, 68
1, 64164, Note_on_c, 0, 76, 67
1, 64172, Note_on_c, 0, 84, 45
1, 64184, Note_on_c, 0, 86, 39
1, 64228, Control_c, 0, 64, 127
1, 64242, Note_on_c, 9, 51, 0
1, 64248, Note_on_c, 0, 84, 0
1, 64264, Note_on_c, 0, 81, 0
1, 64272, Note_on_c, 0, 86, 0
1, 64276, Note_on_c, 0, 88, 0
1, 64288, Note_on_c, 0, 76, 0
1, 64292, Note_on_c, 0, 55, 0
1, 64304, Note_on_c, 0, 64, 0
1, 64324, Note_on_c, 0, 59, 0
1, 64332, Note_on_c, 0, 60, 0
1, 64372, Control_c, 0, 64, 0
1, 64374, Note_on_c, 9, 51, 78
1, 64396, Note_on_c, 9, 38, 36
1, 64408, Note_on_c, 1, 40, 85
1, 64416, Note_on_c, 0, 64, 66
1, 64416, Note_on_c, 0, 60, 57
1, 64416, Note_on_c, 0, 59, 56
1, 64420, Note_on_c, 0, 84, 52
1, 64424, Note_on_c, 0, 55, 55
1, 64428, Note_on_c, 9, 38, 0
1, 64428, Note_on_c, 1, 45, 0
1, 64428, Note_on_c, 0, 83, 55
1, 64428, Note_on_c, 0, 79, 57
1, 64456, Note_on_c, 0, 83, 0
1, 64460, Note_on_c, 0, 55, 0
1, 64464, Note_on_c, 0, 79, 0
1, 64476, Note_on_c, 9, 51, 0
1, 64496, Note_on_c, 0, 64, 0
1, 64504, Note_on_c, 1, 40, 0
1, 64520, Note_on_c, 0, 84, 0
1, 64520, Note_on_c, 0, 60, 0
1, 64528, Note_on_c, 0, 59, 0
1, 64534, Note_on_c, 1, 39, 98
1, 64540, Note_on_c, 9, 38, 36
1, 64604, Note_on_c, 9, 38, 0
1, 64660, Note_on_c, 0, 91, 84
1, 64668, Note_on_c, 0, 64, 75
1, 64672, Note_on_c, 0, 55, 69
1, 64672, Note_on_c, 0, 79, 71
1, 64680, Note_on_c, 0, 86, 69
1, 64680, Note_on_c, 0, 60, 63
1, 64680, Note_on_c, 0, 59, 63
1, 64720, Note_on_c, 0, 89, 23
1, 64764, Note_on_c, 0, 79, 0
1, 64770, Note_on_c, 9, 51, 63
1, 64772, Control_c, 0, 64, 127
1, 64776, Note_on_c, 0, 59, 0
1, 64776, Note_on_c, 0, 91, 0
1, 64784, Note_on_c, 0, 89, 0
1, 64788, Note_on_c, 0, 86, 0
1, 64788, Note_on_c, 0, 64, 0
1, 64792, Note_on_c, 0, 55, 0
1, 64792, Note_on_c, 0, 60, 0
1, 64828, Note_on_c, 9, 51, 0
1, 64844, Control_c, 0, 64, 0
1, 64856, Note_on_c, 1, 37, 51
1, 64904, Note_on_c, 9, 51, 64
1, 64916, Note_on_c, 0, 65, 83
1, 64916, Note_on_c, 0, 92, 82
1, 64918, Note_on_c, 1, 37, 0
1, 64920, Note_on_c, 0, 54, 68
1, 64920, Note_on_c, 0, 80, 77
1, 64920, Note_on_c, 0, 87, 76
1, 64920, Note_on_c, 0, 60, 68
1, 64920, Note_on_c, 1, 38, 95
1, 64928, Note_on_c, 1, 39, 0
1, 64932, Note_on_c, 0, 58, 61
1, 65104, Note_on_c, 0, 92, 0
1, 65104, Note_on_c, 9, 51, 0
1, 65108, Note_on_c, 0, 80, 0
1, 65116, Note_on_c, 0, 65, 0
1, 65120, Note_on_c, 0, 54, 0
1, 65132, Note_on_c, 0, 58, 0
1, 65132, Note_on_c, 0, 60, 0
1, 65140, Note_on_c, 0, 87, 0
1, 65184, Note_on_c, 0, 65, 60
1, 65188, Note_on_c, 0, 92, 64
1, 65192, Note_on_c, 0, 54, 48
1, 65196, Note_on_c, 0, 87, 71
1, 65200, Note_on_c, 0, 80, 49
1, 65204, Note_on_c, 0, 60, 63
1, 65204, Note_on_c, 0, 58, 64
1, 65260, Control_c, 0, 64, 127
1, 65272, Note_on_c, 9, 51, 94
1, 65356, Note_on_c, 0, 80, 0
1, 65364, Note_on_c, 0, 60, 0
1, 65372, Note_on_c, 0, 58, 0
1, 65372, Note_on_c, 0, 92, 0
1, 65380, Note_on_c, 0, 65, 0
1, 65388, Note_on_c, 0, 87, 0
1, 65396, Note_on_c, 0, 54, 0
1, 65414, Note_on_c, 9, 51, 0
1, 65476, Control_c, 0, 64, 0
1, 65528, Note_on_c, 0, 94, 72
1, 65532, Note_on_c, 0, 65, 64
1, 65536, Note_on_c, 0, 54, 56
1, 65536, Note_on_c, 0, 87, 65
1, 65536, Note_on_c, 0, 82, 59
1, 65538, Note_on_c, 9, 38, 48
1, 65544, Note_on_c, 0, 58, 49
1, 65552, Note_on_c, 0, 60, 53
1, 65560, Note_on_c, 9, 51, 58
1, 65616, Note_on_c, 9, 38, 0
1, 65616, Control_c, 0, 64, 127
1, 65624, Note_on_c, 9, 51, 0
1, 65660, Note_on_c, 1, 38, 0
1, 65664, Note_on_c, 1, 40, 79
1, 65680, Note_on_c, 9, 51, 71
1, 65686, Note_on_c, 9, 38, 36
1, 65700, Note_on_c, 0, 60, 0
1, 65712, Note_on_c, 0, 65, 0
1, 65732, Note_on_c, 0, 58, 0
1, 65740, Note_on_c, 0, 54, 0
1, 65740, Note_on_c, 0, 87, 0
1, 65752, Note_on_c, 9, 38, 0
1, 65756, Note_on_c, 0, 82, 0
1, 65760, Note_on_c, 1, 40, 0
1, 65792, Note_on_c, 1, 41, 85
1, 65798, Note_on_c, 9, 51, 0
1, 65808, Note_on_c, 0, 94, 0
1, 65858, Note_on_c, 1, 41, 0
1, 65868, Control_c, 0, 64, 0
1, 65912, Note_on_c, 0, 95, 72
1, 65916, Note_on_c, 0, 90, 69
1, 65916, Note_on_c, 0, 83, 75
1, 65916, Note_on_c, 0, 59, 62
1, 65916, Note_on_c, 0, 54, 54
1, 65916, Note_on_c, 1, 42, 98
1, 65926, Note_on_c, 9, 36, 36
1, 65928, Note_on_c, 0, 64, 54
1, 65932, Note_on_c, 0, 62, 50
1, 65936, Note_on_c, 0, 57, 56
1, 65952, Note_on_c, 9, 51, 84
1, 65984, Note_on_c, 0, 64, 0
1, 66000, Note_on_c, 9, 36, 0
1, 66012, Note_on_c, 9, 51, 0
1, 66024, Note_on_c, 0, 83, 0
1, 66028, Note_on_c, 1, 42, 0
1, 66032, Note_on_c, 0, 95, 0
1, 66036, Control_c, 0, 64, 127
1, 66044, Note_on_c, 0, 62, 0
1, 66048, Note_on_c, 0, 57, 0
1, 66050, Note_on_c, 1, 43, 92
1, 66052, Note_on_c, 0, 90, 0
1, 66056, Note_on_c, 0, 54, 0
1, 66060, Note_on_c, 0, 59, 0
1, 66060, Note_on_c, 9, 51, 76
1, 66070, Note_on_c, 9, 36, 38
1, 66104, Note_on_c, 0, 95, 56
1, 66108, Note_on_c, 0, 90, 57
1, 66108, Note_on_c, 0, 54, 20
1, 66108, Note_on_c, 0, 83, 48
1, 66116, Note_on_c, 0, 62, 42
1, 66120, Note_on_c, 0, 59, 37
1, 66136, Note_on_c, 0, 57, 52
1, 66176, Note_on_c, 0, 83, 0
1, 66176, Note_on_c, 9, 36, 0
1, 66200, Note_on_c, 0, 90, 0
1, 66212, Note_on_c, 0, 95, 0
1, 66248, Note_on_c, 0, 54, 0
1, 66256, Note_on_c, 0, 57, 0
1, 66260, Note_on_c, 0, 59, 0
1, 66272, Note_on_c, 0, 62, 0
1, 66288, Note_on_c, 9, 51, 0
1, 66306, Note_on_c, 1, 43, 0
1, 66310, Note_on_c, 1, 38, 83
1, 66408, Note_on_c, 1, 38, 0
1, 66454, Note_on_c, 9, 51, 88
1, 66598, Note_on_c, 9, 51, 0
1, 66656, Note_on_c, 0, 102, 94
1, 66656, Note_on_c, 0, 90, 92
1, 66656, Note_on_c, 0, 62, 78
1, 66656, Note_on_c, 0, 54, 68
1, 66656, Note_on_c, 0, 59, 74
1, 66668, Note_on_c, 0, 57, 69
1, 66668, Note_on_c, 0, 98, 79
1, 66688, Note_on_c, 1, 43, 66
1, 66716, Control_c, 0, 64, 0
1, 66726, Note_on_c, 1, 43, 0
1, 66732, Note_on_c, 9, 51, 57
1, 66748, Control_c, 0, 64, 127
1, 66768, Note_on_c, 9, 51, 0
1, 66788, Note_on_c, 0, 102, 0
1, 66796, Note_on_c, 0, 54, 0
1, 66796, Note_on_c, 0, 62, 0
1, 66804, Note_on_c, 0, 90, 0
1, 66804, Note_on_c, 0, 57, 0
1, 66816, Note_on_c, 0, 98, 0
1, 66820, Note_on_c, 0, 59, 0
1, 66828, Note_on_c, 1, 47, 109
1, 66840, Note_on_c, 9, 51, 70
1, 66852, Note_on_c, 0, 102, 70
1, 66856, Note_on_c, 0, 54, 65
1, 66860, Note_on_c, 0, 90, 72
1, 66860, Note_on_c, 0, 62, 75
1, 66876, Note_on_c, 0, 57, 57
1, 66876, Note_on_c, 0, 98, 72
1, 66876, Note_on_c, 0, 59, 69
1, 66940, Note_on_c, 0, 98, 0
1, 66956, Note_on_c, 0, 57, 0
1, 66968, Note_on_c, 0, 102, 0
1, 66972, Note_on_c, 0, 90, 0
1, 66996, Note_on_c, 0, 59, 0
1, 67004, Note_on_c, 0, 54, 0
1, 67024, Note_on_c, 9, 51, 0
1, 67032, Note_on_c, 0, 62, 0
1, 67072, Note_on_c, 1, 47, 0
1, 67080, Note_on_c, 1, 43, 82
1, 67080, Note_on_c, 9, 38, 57
1, 67108, Note_on_c, 0, 97, 27
1, 67140, Control_c, 0, 64, 0
1, 67152, Note_on_c, 0, 97, 0
1, 67164, Note_on_c, 9, 38, 0
1, 67164, Note_on_c, 1, 43, 0
1, 67208, Note_on_c, 0, 100, 68
1, 67212, Note_on_c, 0, 62, 71
1, 67216, Note_on_c, 0, 55, 66
1, 67216, Note_on_c, 0, 88, 60
1, 67216, Note_on_c, 0, 59, 58
1, 67222, Note_on_c, 9, 51, 92
1, 67228, Note_on_c, 0, 52, 56
1, 67248, Note_on_c, 0, 95, 50
1, 67248, Note_on_c, 0, 96, 40
1, 67264, Note_on_c, 0, 98, 31
1, 67284, Note_on_c, 0, 96, 0
1, 67360, Note_on_c, 0, 95, 0
1, 67382, Note_on_c, 1, 40, 92
1, 67384, Note_on_c, 0, 52, 0
1, 67388, Note_on_c, 0, 100, 0
1, 67392, Note_on_c, 0, 88, 0
1, 67396, Note_on_c, 0, 62, 0
1, 67400, Note_on_c, 9, 51, 0
1, 67408, Note_on_c, 0, 98, 0
1, 67416, Note_on_c, 0, 59, 0
1, 67416, Note_on_c, 0, 55, 0
1, 67464, Note_on_c, 0, 100, 72
1, 67468, Note_on_c, 0, 62, 62
1, 67468, Note_on_c, 0, 88, 69
1, 67476, Note_on_c, 0, 98, 59
1, 67480, Note_on_c, 0, 59, 68
1, 67480, Note_on_c, 0, 95, 60
1, 67484, Note_on_c, 0, 55, 72
1, 67484, Note_on_c, 0, 52, 39
1, 67512, Note_on_c, 0, 95, 0
1, 67512, Note_on_c, 0, 98, 0
1, 67532, Note_on_c, 0, 100, 0
1, 67552, Note_on_c, 0, 52, 0
1, 67552, Note_on_c, 0, 88, 0
1, 67560, Note_on_c, 0, 62, 0
1, 67584, Control_c, 0, 64, 127
1, 67606, Note_on_c, 1, 40, 0
1, 67612, Note_on_c, 0, 55, 0
1, 67616, Note_on_c, 0, 59, 0
1, 67616, Note_on_c, 9, 51, 83
1, 67618, Note_on_c, 1, 52, 126
1, 67700, Control_c, 0, 64, 0
1, 67720, Control_c, 0, 64, 127
1, 67730, Note_on_c, 9, 51, 0
1, 67784, Note_on_c, 0, 93, 61
1, 67784, Note_on_c, 0, 62, 71
1, 67792, Note_on_c, 0, 59, 60
1, 67792, Note_on_c, 0, 55, 62
1, 67796, Note_on_c, 0, 52, 58
1, 67868, Note_on_c, 1, 52, 0
1, 67874, Note_on_c, 0, 93, 0
1, 67874, Note_on_c, 9, 51, 69
1, 67874, Note_on_c, 9, 38, 15
1, 67884, Note_on_c, 1, 47, 87
1, 67892, Note_on_c, 0, 62, 0
1, 67896, Note_on_c, 0, 52, 0
1, 67896, Note_on_c, 9, 38, 0
1, 67928, Note_on_c, 0, 55, 0
1, 67938, Note_on_c, 9, 51, 0
1, 67944, Note_on_c, 0, 59, 0
1, 67958, Note_on_c, 1, 47, 0
1, 67968, Control_c, 0, 64, 0
1, 67990, Note_on_c, 9, 38, 33
1, 68000, Note_on_c, 9, 51, 67
1, 68020, Note_on_c, 0, 62, 69
1, 68020, Note_on_c, 0, 95, 71
1, 68020, Note_on_c, 0, 59, 63
1, 68024, Note_on_c, 0, 55, 59
1, 68024, Note_on_c, 0, 52, 61
1, 68028, Note_on_c, 0, 83, 55
1, 68036, Note_on_c, 0, 88, 55
1, 68044, Note_on_c, 9, 38, 0
1, 68052, Note_on_c, 0, 91, 36
1, 68084, Control_c, 0, 64, 127
1, 68112, Note_on_c, 1, 43, 81
1, 68120, Note_on_c, 9, 38, 34
1, 68150, Note_on_c, 9, 51, 0
1, 68156, Note_on_c, 0, 91, 0
1, 68172, Note_on_c, 0, 83, 0
1, 68176, Note_on_c, 0, 88, 0
1, 68176, Note_on_c, 0, 52, 0
1, 68176, Note_on_c, 0, 55, 0
1, 68178, Note_on_c, 9, 38, 0
1, 68184, Note_on_c, 0, 59, 0
1, 68194, Note_on_c, 1, 43, 0
1, 68208, Note_on_c, 0, 95, 0
1, 68224, Note_on_c, 0, 62, 0
1, 68232, Note_on_c, 1, 44, 84
1, 68242, Note_on_c, 9, 38, 40
1, 68248, Control_c, 0, 64, 0
1, 68292, Note_on_c, 0, 64, 76
1, 68292, Note_on_c, 0, 98, 77
1, 68300, Note_on_c, 0, 96, 77
1, 68300, Note_on_c, 0, 91, 68
1, 68304, Note_on_c, 9, 38, 0
1, 68308, Note_on_c, 0, 60, 63
1, 68308, Note_on_c, 0, 84, 56
1, 68308, Note_on_c, 0, 59, 70
1, 68312, Note_on_c, 0, 86, 53
1, 68320, Note_on_c, 0, 53, 47
1, 68324, Note_on_c, 0, 55, 49
1, 68328, Note_on_c, 1, 44, 0
1, 68336, Note_on_c, 0, 86, 0
1, 68344, Note_on_c, 0, 53, 0
1, 68364, Note_on_c, 1, 45, 72
1, 68376, Note_on_c, 0, 91, 0
1, 68376, Note_on_c, 9, 38, 27
1, 68380, Note_on_c, 9, 51, 92
1, 68392, Note_on_c, 0, 84, 0
1, 68408, Note_on_c, 0, 96, 0
1, 68416, Note_on_c, 0, 98, 0
1, 68428, Note_on_c, 9, 38, 0
1, 68436, Note_on_c, 0, 55, 0
1, 68448, Note_on_c, 0, 64, 0
1, 68460, Note_on_c, 0, 59, 0
1, 68468, Control_c, 0, 64, 127
1, 68476, Note_on_c, 0, 60, 0
1, 68536, Note_on_c, 0, 98, 74
1, 68548, Note_on_c, 0, 64, 62
1, 68548, Note_on_c, 0, 55, 58
1, 68552, Note_on_c, 0, 60, 61
1, 68552, Note_on_c, 0, 86, 65
1, 68560, Note_on_c, 0, 59, 56
1, 68560, Note_on_c, 0, 91, 57
1, 68610, Note_on_c, 9, 38, 37
1, 68620, Note_on_c, 9, 51, 0
1, 68630, Note_on_c, 1, 45, 0
1, 68632, Note_on_c, 9, 38, 0
1, 68660, Note_on_c, 0, 91, 0
1, 68664, Note_on_c, 0, 59, 0
1, 68668, Note_on_c, 0, 98, 0
1, 68668, Note_on_c, 0, 86, 0
1, 68672, Note_on_c, 0, 64, 0
1, 68680, Note_on_c, 0, 55, 0
1, 68688, Note_on_c, 0, 60, 0
1, 68728, Note_on_c, 1, 48, 92
1, 68748, Control_c, 0, 64, 0
1, 68752, Note_on_c, 9, 51, 39
1, 68784, Note_on_c, 9, 51, 0
1, 68792, Note_on_c, 0, 93, 69
1, 68796, Note_on_c, 0, 64, 66
1, 68808, Note_on_c, 0, 81, 65
1, 68812, Note_on_c, 0, 60, 58
1, 68812, Note_on_c, 0, 59, 57
1, 68812, Note_on_c, 0, 55, 53
1, 68916, Note_on_c, 0, 81, 0
1, 68932, Note_on_c, 0, 55, 0
1, 68952, Note_on_c, 0, 64, 0
1, 68952, Note_on_c, 0, 93, 0
1, 68960, Note_on_c, 0, 59, 0
1, 68964, Note_on_c, 0, 60, 0
1, 68992, Note_on_c, 9, 51, 95
1, 69032, Note_on_c, 0, 93, 61
1, 69036, Note_on_c, 0, 81, 68
1, 69040, Note_on_c, 0, 64, 54
1, 69044, Note_on_c, 0, 87, 57
1, 69048, Note_on_c, 0, 60, 60
1, 69048, Note_on_c, 0, 59, 56
1, 69052, Note_on_c, 0, 55, 50
1, 69068, Note_on_c, 0, 90, 40
1, 69068, Control_c, 0, 64, 127
1, 69104, Note_on_c, 0, 81, 0
1, 69112, Note_on_c, 0, 90, 0
1, 69124, Note_on_c, 0, 87, 0
1, 69128, Note_on_c, 0, 55, 0
1, 69136, Note_on_c, 0, 64, 0
1, 69140, Note_on_c, 0, 93, 0
1, 69160, Note_on_c, 9, 51, 0
1, 69160, Note_on_c, 0, 59, 0
1, 69164, Note_on_c, 0, 60, 0
1, 69268, Note_on_c, 0, 64, 60
1, 69268, Note_on_c, 0, 55, 61
1, 69272, Note_on_c, 0, 96, 75
1, 69276, Note_on_c, 0, 60, 50
1, 69276, Note_on_c, 0, 59, 47
1, 69284, Note_on_c, 0, 84, 61
1, 69312, Note_on_c, 0, 59, 0
1, 69346, Note_on_c, 9, 36, 35
1, 69348, Note_on_c, 0, 64, 0
1, 69356, Note_on_c, 0, 60, 0
1, 69372, Note_on_c, 0, 84, 0
1, 69378, Note_on_c, 9, 51, 39
1, 69382, Note_on_c, 9, 36, 0
1, 69384, Note_on_c, 0, 55, 0
1, 69388, Note_on_c, 0, 96, 0
1, 69424, Control_c, 0, 64, 0
1, 69456, Note_on_c, 9, 51, 0
1, 69472, Note_on_c, 9, 36, 30
1, 69512, Note_on_c, 1, 48, 0
1, 69512, Note_on_c, 1, 38, 81
1, 69516, Note_on_c, 0, 60, 59
1, 69516, Note_on_c, 0, 64, 64
1, 69516, Note_on_c, 0, 54, 61
1, 69516, Note_on_c, 0, 96, 74
1, 69520, Note_on_c, 9, 36, 0
1, 69532, Note_on_c, 0, 84, 68
1, 69532, Note_on_c, 9, 51, 74
1, 69538, Note_on_c, 9, 53, 73
1, 69548, Note_on_c, 0, 91, 46
1, 69568, Control_c, 0, 64, 127
1, 69624, Note_on_c, 0, 96, 0
1, 69632, Note_on_c, 0, 91, 0
1, 69668, Note_on_c, 0, 84, 0
1, 69680, Note_on_c, 0, 64, 0
1, 69704, Note_on_c, 9, 51, 0
1, 69704, Note_on_c, 0, 60, 0
1, 69712, Note_on_c, 0, 54, 0
1, 69718, Note_on_c, 9, 53, 0
1, 69724, Control_c, 0, 64, 0
1, 69776, Note_on_c, 0, 92, 65
1, 69788, Note_on_c, 0, 54, 49
1, 69788, Note_on_c, 0, 80, 61
1, 69796, Note_on_c, 0, 64, 51
1, 69800, Note_on_c, 0, 60, 48
1, 69820, Note_on_c, 0, 80, 0
1, 69884, Note_on_c, 9, 51, 20
1, 69896, Note_on_c, 0, 92, 0
1, 69912, Note_on_c, 0, 64, 0
1, 69920, Note_on_c, 1, 54, 89
1, 69932, Note_on_c, 0, 54, 0
1, 69932, Note_on_c, 0, 60, 0
1, 69936, Note_on_c, 9, 51, 0
1, 69952, Control_c, 0, 64, 127
1, 69992, Control_c, 0, 64, 0
1, 70072, Note_on_c, 0, 92, 75
1, 70080, Note_on_c, 0, 80, 66
1, 70092, Note_on_c, 0, 54, 60
1, 70100, Note_on_c, 0, 64, 56
1, 70100, Note_on_c, 0, 60, 59
1, 70146, Note_on_c, 9, 51, 77
1, 70150, Note_on_c, 9, 38, 45
1, 70152, Note_on_c, 9, 53, 78
1, 70188, Note_on_c, 0, 64, 0
1, 70200, Note_on_c, 0, 80, 0
1, 70204, Note_on_c, 9, 38, 0
1, 70212, Control_c, 0, 64, 127
1, 70220, Note_on_c, 0, 92, 0
1, 70224, Note_on_c, 0, 54, 0
1, 70224, Note_on_c, 0, 60, 0
1, 70290, Note_on_c, 9, 38, 32
1, 70300, Note_on_c, 0, 92, 51
1, 70300, Note_on_c, 0, 54, 54
1, 70316, Note_on_c, 0, 64, 47
1, 70320, Note_on_c, 0, 80, 57
1, 70324, Note_on_c, 0, 60, 45
1, 70332, Note_on_c, 9, 51, 0
1, 70348, Note_on_c, 0, 87, 39
1, 70354, Note_on_c, 9, 38, 0
1, 70354, Note_on_c, 9, 53, 0
1, 70444, Note_on_c, 0, 64, 0
1, 70456, Note_on_c, 0, 87, 0
1, 70456, Note_on_c, 0, 54, 0
1, 70460, Note_on_c, 0, 60, 0
1, 70460, Note_on_c, 0, 80, 0
1, 70472, Note_on_c, 0, 92, 0
1, 70486, Note_on_c, 9, 51, 51
1, 70520, Note_on_c, 9, 36, 47
1, 70540, Note_on_c, 9, 51, 0
1, 70548, Note_on_c, 0, 93, 58
1, 70548, Note_on_c, 0, 54, 61
1, 70550, Note_on_c, 1, 37, 44
1, 70556, Note_on_c, 0, 64, 58
1, 70556, Note_on_c, 0, 81, 63
1, 70556, Note_on_c, 0, 60, 48
1, 70556, Note_on_c, 0, 87, 45
1, 70580, Note_on_c, 0, 91, 30
1, 70596, Note_on_c, 0, 58, 26
1, 70598, Note_on_c, 9, 36, 0
1, 70608, Note_on_c, 0, 91, 0
1, 70608, Note_on_c, 0, 60, 0
1, 70620, Note_on_c, 0, 64, 0
1, 70620, Note_on_c, 1, 38, 0
1, 70624, Note_on_c, 1, 37, 0
1, 70626, Note_on_c, 0, 81, 0
1, 70626, Note_on_c, 9, 53, 50
1, 70626, Note_on_c, 9, 51, 45
1, 70640, Note_on_c, 0, 93, 0
1, 70646, Note_on_c, 1, 43, 92
1, 70648, Note_on_c, 0, 58, 0
1, 70660, Note_on_c, 0, 54, 0
1, 70664, Control_c, 0, 64, 0
1, 70668, Note_on_c, 0, 87, 0
1, 70672, Note_on_c, 9, 53, 0
1, 70674, Note_on_c, 9, 36, 30
1, 70680, Note_on_c, 9, 51, 0
1, 70732, Note_on_c, 9, 51, 77
1, 70736, Note_on_c, 0, 53, 57
1, 70736, Note_on_c, 9, 53, 80
1, 70740, Note_on_c, 0, 87, 49
1, 70748, Note_on_c, 0, 94, 56
1, 70752, Note_on_c, 0, 64, 51
1, 70756, Note_on_c, 0, 59, 61
1, 70768, Note_on_c, 0, 82, 37
1, 70770, Note_on_c, 1, 54, 0
1, 70784, Note_on_c, 9, 36, 0
1, 70824, Note_on_c, 0, 94, 0
1, 70824, Note_on_c, 0, 87, 0
1, 70828, Note_on_c, 0, 95, 53
1, 70848, Note_on_c, 0, 88, 49
1, 70856, Note_on_c, 0, 93, 31
1, 70864, Note_on_c, 0, 82, 0
1, 70872, Note_on_c, 0, 83, 46
1, 70900, Note_on_c, 0, 93, 0
1, 70904, Note_on_c, 9, 53, 0
1, 70924, Note_on_c, 9, 51, 0
1, 70940, Note_on_c, 1, 42, 74
1, 70944, Note_on_c, 0, 83, 0
1, 70950, Note_on_c, 1, 43, 0
1, 70956, Note_on_c, 0, 95, 0
1, 70960, Note_on_c, 0, 53, 0
1, 70980, Note_on_c, 0, 64, 0
1, 70984, Note_on_c, 0, 59, 0
1, 70984, Note_on_c, 0, 88, 0
1, 71030, Note_on_c, 1, 42, 0
1, 71048, Note_on_c, 1, 43, 92
1, 71058, Note_on_c, 9, 51, 51
1, 71064, Note_on_c, 0, 94, 68
1, 71076, Note_on_c, 0, 82, 61
1, 71084, Note_on_c, 0, 64, 61
1, 71084, Note_on_c, 0, 59, 55
1, 71096, Note_on_c, 0, 53, 56
1, 71116, Note_on_c, 9, 51, 0
1, 71152, Note_on_c, 0, 88, 20
1, 71180, Control_c, 0, 64, 127
1, 71216, Note_on_c, 0, 88, 0
1, 71216, Control_c, 0, 64, 0
1, 71236, Note_on_c, 0, 53, 0
1, 71248, Note_on_c, 0, 64, 0
1, 71268, Note_on_c, 0, 59, 0
1, 71276, Note_on_c, 0, 94, 0
1, 71276, Note_on_c, 0, 82, 0
1, 71292, Note_on_c, 9, 51, 92
1, 71320, Note_on_c, 0, 93, 72
1, 71324, Note_on_c, 0, 64, 60
1, 71328, Note_on_c, 0, 81, 73
1, 71332, Note_on_c, 0, 59, 72
1, 71332, Note_on_c, 0, 53, 54
1, 71356, Note_on_c, 0, 90, 33
1, 71368, Note_on_c, 0, 87, 19
1, 71404, Note_on_c, 0, 93, 0
1, 71426, Note_on_c, 0, 64, 0
1, 71426, Note_on_c, 1, 31, 111
1, 71432, Note_on_c, 0, 53, 0
1, 71444, Note_on_c, 0, 90, 0
1, 71452, Note_on_c, 0, 87, 0
1, 71460, Note_on_c, 0, 81, 0
1, 71460, Note_on_c, 0, 59, 0
1, 71468, Note_on_c, 9, 51, 0
1, 71492, Note_on_c, 0, 94, 62
1, 71500, Note_on_c, 0, 59, 39
1, 71500, Note_on_c, 0, 64, 58
1, 71500, Note_on_c, 0, 53, 54
1, 71520, Note_on_c, 0, 94, 0
1, 71524, Control_c, 0, 64, 127
1, 71524, Note_on_c, 0, 87, 38
1, 71570, Note_on_c, 9, 51, 47
1, 71572, Note_on_c, 0, 80, 15
1, 71580, Note_on_c, 0, 87, 0
1, 71608, Note_on_c, 0, 80, 0
1, 71608, Control_c, 0, 64, 0
1, 71616, Note_on_c, 0, 53, 0
1, 71620, Note_on_c, 0, 64, 0
1, 71634, Note_on_c, 9, 51, 0
1, 71672, Note_on_c, 0, 59, 0
1, 71686, Note_on_c, 9, 51, 74
1, 71728, Note_on_c, 0, 91, 63
1, 71732, Note_on_c, 0, 79, 68
1, 71748, Note_on_c, 0, 86, 65
1, 71748, Note_on_c, 0, 53, 61
1, 71748, Note_on_c, 0, 59, 69
1, 71748, Note_on_c, 0, 64, 61
1, 71766, Note_on_c, 9, 51, 0
1, 71796, Control_c, 0, 64, 127
1, 71820, Note_on_c, 9, 51, 71
1, 71880, Note_on_c, 9, 38, 29
1, 71912, Note_on_c, 9, 38, 0
1, 71954, Note_on_c, 9, 51, 0
1, 72152, Note_on_c, 1, 31, 0
1, 72180, Note_on_c, 0, 64, 0
1, 72192, Note_on_c, 1, 33, 85
1, 72220, Note_on_c, 0, 86, 0
1, 72232, Note_on_c, 9, 51, 64
1, 72240, Note_on_c, 0, 91, 0
1, 72256, Note_on_c, 1, 43, 0
1, 72264, Note_on_c, 0, 53, 0
1, 72272, Note_on_c, 0, 59, 0
1, 72296, Note_on_c, 9, 51, 0
1, 72332, Note_on_c, 0, 79, 0
1, 72420, Control_c, 0, 64, 0
1, 72460, Note_on_c, 0, 53, 66
1, 72464, Note_on_c, 0, 64, 69
1, 72464, Note_on_c, 0, 59, 68
1, 72472, Note_on_c, 9, 51, 78
1, 72508, Note_on_c, 9, 38, 36
1, 72548, Control_c, 0, 64, 127
1, 72560, Note_on_c, 9, 51, 0
1, 72568, Note_on_c, 9, 38, 0
1, 72572, Note_on_c, 1, 35, 91
1, 72594, Note_on_c, 1, 33, 0
1, 72678, Note_on_c, 9, 38, 32
1, 72716, Note_on_c, 9, 38, 0
1, 72768, Note_on_c, 0, 64, 0
1, 72780, Note_on_c, 0, 53, 0
1, 72804, Control_c, 0, 64, 0
1, 72852, Note_on_c, 0, 59, 0
1, 72860, Note_on_c, 9, 51, 71
1, 72902, Note_on_c, 9, 36, 45
1, 72912, Note_on_c, 9, 51, 0
1, 72930, Note_on_c, 1, 35, 0
1, 72946, Note_on_c, 1, 36, 87
1, 72960, Note_on_c, 0, 59, 42
1, 72960, Note_on_c, 0, 52, 49
1, 72972, Note_on_c, 0, 62, 59
1, 72980, Note_on_c, 0, 55, 51
1, 72980, Note_on_c, 0, 76, 111
1, 72984, Note_on_c, 9, 36, 0
1, 72992, Note_on_c, 9, 51, 75
1, 73046, Note_on_c, 9, 36, 30
1, 73122, Note_on_c, 9, 36, 0
1, 73144, Note_on_c, 0, 76, 0
1, 73170, Note_on_c, 9, 51, 0
1, 73216, Note_on_c, 0, 84, 85
1, 73260, Note_on_c, 0, 62, 0
1, 73324, Note_on_c, 0, 84, 0
1, 73344, Note_on_c, 9, 51, 85
1, 73368, Note_on_c, 0, 76, 64
1, 73384, Note_on_c, 0, 55, 0
1, 73392, Note_on_c, 0, 59, 0
1, 73392, Note_on_c, 0, 52, 0
1, 73494, Note_on_c, 9, 51, 0
1, 73564, Note_on_c, 0, 76, 0
1, 73584, Note_on_c, 0, 75, 64
1, 73604, Note_on_c, 0, 62, 46
1, 73604, Note_on_c, 0, 59, 48
1, 73608, Note_on_c, 0, 52, 36
1, 73616, Note_on_c, 0, 55, 53
1, 73616, Note_on_c, 9, 51, 56
1, 73644, Note_on_c, 0, 62, 0
1, 73656, Note_on_c, 0, 52, 0
1, 73680, Note_on_c, 9, 51, 0
1, 73684, Note_on_c, 0, 75, 0
1, 73720, Note_on_c, 0, 55, 0
1, 73728, Note_on_c, 0, 59, 0
1, 73728, Note_on_c, 9, 51, 74
1, 73760, Note_on_c, 0, 74, 47
1, 73856, Note_on_c, 1, 36, 0
1, 73884, Note_on_c, 9, 51, 0
1, 73928, Note_on_c, 0, 74, 0
1, 73964, Note_on_c, 0, 73, 66
1, 74000, Note_on_c, 0, 65, 50
1, 74000, Note_on_c, 1, 52, 115
1, 74000, Note_on_c, 1, 36, 88
1, 74008, Note_on_c, 0, 57, 45
1, 74016, Note_on_c, 0, 63, 43
1, 74104, Note_on_c, 0, 73, 0
1, 74118, Note_on_c, 9, 51, 92
1, 74148, Note_on_c, 0, 72, 47
1, 74198, Note_on_c, 1, 52, 0
1, 74208, Note_on_c, 1, 36, 0
1, 74210, Note_on_c, 0, 65, 0
1, 74210, Note_on_c, 1, 35, 75
1, 74216, Note_on_c, 1, 51, 88
1, 74264, Note_on_c, 0, 63, 0
1, 74288, Note_on_c, 9, 51, 0
1, 74372, Note_on_c, 0, 72, 0
1, 74376, Note_on_c, 0, 69, 57
1, 74388, Note_on_c, 0, 63, 30
1, 74428, Note_on_c, 0, 63, 0
1, 74452, Note_on_c, 0, 69, 0
1, 74484, Note_on_c, 0, 57, 0
1, 74512, Note_on_c, 0, 71, 78
1, 74512, Note_on_c, 9, 51, 87
1, 74672, Note_on_c, 0, 71, 0
1, 74678, Note_on_c, 9, 51, 0
1, 74728, Note_on_c, 0, 72, 56
1, 74764, Note_on_c, 0, 71, 57
1, 74780, Note_on_c, 9, 38, 30
1, 74806, Note_on_c, 9, 38, 0
1, 74812, Note_on_c, 0, 57, 42
1, 74812, Note_on_c, 0, 62, 35
1, 74816, Note_on_c, 0, 72, 0
1, 74852, Note_on_c, 0, 51, 21
1, 74892, Note_on_c, 0, 62, 0
1, 74904, Note_on_c, 0, 71, 0
1, 74904, Note_on_c, 0, 69, 45
1, 74912, Note_on_c, 9, 51, 91
1, 74920, Note_on_c, 9, 38, 37
1, 74940, Control_c, 0, 64, 127
1, 74946, Note_on_c, 9, 38, 0
1, 74964, Note_on_c, 0, 57, 0
1, 74968, Control_c, 0, 64, 0
1, 74996, Note_on_c, 0, 51, 0
1, 74998, Note_on_c, 1, 35, 0
1, 75020, Note_on_c, 1, 38, 81
1, 75036, Control_c, 0, 64, 127
1, 75042, Note_on_c, 1, 51, 0
1, 75076, Note_on_c, 0, 69, 0
1, 75084, Note_on_c, 1, 38, 0
1, 75088, Control_c, 0, 64, 0
1, 75148, Note_on_c, 0, 68, 63
1, 75152, Note_on_c, 9, 51, 0
1, 75152, Note_on_c, 1, 39, 83
1, 75158, Note_on_c, 9, 36, 43
1, 75160, Note_on_c, 0, 62, 44
1, 75196, Note_on_c, 0, 62, 0
1, 75200, Note_on_c, 1, 39, 0
1, 75228, Note_on_c, 9, 36, 0
1, 75260, Note_on_c, 0, 68, 0
1, 75286, Note_on_c, 1, 40, 94
1, 75292, Note_on_c, 9, 36, 29
1, 75308, Note_on_c, 0, 67, 57
1, 75376, Note_on_c, 9, 36, 0
1, 75516, Note_on_c, 0, 62, 25
1, 75524, Note_on_c, 0, 59, 43
1, 75544, Note_on_c, 0, 62, 0
1, 75544, Note_on_c, 9, 51, 69
1, 75552, Note_on_c, 0, 67, 0
1, 75560, Note_on_c, 0, 55, 36
1, 75568, Note_on_c, 0, 59, 0
1, 75568, Note_on_c, 0, 64, 38
1, 75602, Note_on_c, 9, 51, 0
1, 75608, Note_on_c, 0, 64, 0
1, 75612, Note_on_c, 0, 55, 0
1, 75650, Note_on_c, 1, 54, 105
1, 75660, Note_on_c, 9, 51, 69
1, 75872, Note_on_c, 1, 54, 0
1, 75888, Note_on_c, 9, 51, 0
1, 75900, Note_on_c, 1, 55, 101
1, 75928, Note_on_c, 0, 62, 39
1, 75940, Note_on_c, 0, 59, 41
1, 75964, Note_on_c, 0, 62, 0
1, 75968, Note_on_c, 0, 55, 39
1, 75990, Note_on_c, 1, 55, 0
1, 75996, Note_on_c, 0, 59, 0
1, 76024, Control_c, 0, 64, 127
1, 76052, Note_on_c, 0, 64, 55
1, 76056, Note_on_c, 0, 55, 0
1, 76064, Note_on_c, 9, 51, 85
1, 76086, Note_on_c, 1, 54, 61
1, 76228, Note_on_c, 0, 64, 0
1, 76236, Note_on_c, 9, 51, 0
1, 76248, Note_on_c, 1, 40, 0
1, 76258, Note_on_c, 1, 54, 0
1, 76294, Note_on_c, 1, 52, 87
1, 76348, Note_on_c, 9, 51, 59
1, 76376, Note_on_c, 9, 51, 0
1, 76422, Note_on_c, 1, 52, 0
1, 76438, Note_on_c, 9, 51, 60
1, 76464, Note_on_c, 1, 54, 80
1, 76614, Note_on_c, 9, 51, 0
1, 76772, Control_c, 0, 64, 0
1, 76792, Note_on_c, 1, 42, 104
1, 76824, Note_on_c, 9, 51, 84
1, 76840, Note_on_c, 1, 54, 0
1, 76848, Note_on_c, 0, 68, 66
1, 76848, Note_on_c, 0, 72, 51
1, 76852, Note_on_c, 0, 76, 61
1, 76856, Note_on_c, 0, 64, 57
1, 76860, Note_on_c, 0, 58, 56
1, 77016, Note_on_c, 9, 51, 0
1, 77096, Control_c, 0, 64, 127
1, 77206, Note_on_c, 9, 51, 87
1, 77268, Note_on_c, 0, 64, 0
1, 77288, Note_on_c, 0, 76, 0
1, 77300, Note_on_c, 0, 72, 0
1, 77344, Note_on_c, 0, 58, 0
1, 77362, Note_on_c, 9, 51, 0
1, 77364, Note_on_c, 0, 68, 0
1, 77432, Note_on_c, 1, 46, 97
1, 77480, Note_on_c, 9, 51, 53
1, 77510, Note_on_c, 9, 51, 0
1, 77532, Note_on_c, 1, 46, 0
1, 77536, Note_on_c, 1, 42, 0
1, 77560, Note_on_c, 1, 47, 91
1, 77592, Note_on_c, 9, 51, 74
1, 77596, Control_c, 0, 64, 0
1, 77624, Note_on_c, 0, 66, 63
1, 77632, Note_on_c, 0, 57, 47
1, 77644, Note_on_c, 0, 61, 36
1, 77648, Note_on_c, 0, 62, 49
1, 77812, Note_on_c, 0, 62, 0
1, 77824, Note_on_c, 9, 51, 0
1, 77884, Note_on_c, 0, 66, 0
1, 77916, Note_on_c, 0, 62, 43
1, 77972, Note_on_c, 0, 74, 85
1, 77986, Note_on_c, 9, 51, 87
1, 77990, Note_on_c, 9, 44, 33
1, 78072, Note_on_c, 0, 74, 0
1, 78072, Note_on_c, 0, 62, 0
1, 78084, Note_on_c, 0, 73, 66
1, 78092, Note_on_c, 0, 57, 0
1, 78116, Note_on_c, 0, 61, 0
1, 78134, Note_on_c, 9, 44, 0
1, 78152, Note_on_c, 0, 73, 0
1, 78182, Note_on_c, 9, 51, 0
1, 78220, Note_on_c, 0, 74, 84
1, 78256, Note_on_c, 0, 62, 49
1, 78262, Note_on_c, 9, 38, 16
1, 78276, Note_on_c, 0, 66, 37
1, 78284, Note_on_c, 9, 38, 0
1, 78320, Note_on_c, 0, 66, 0
1, 78352, Note_on_c, 9, 51, 86
1, 78358, Note_on_c, 9, 46, 62
1, 78396, Note_on_c, 0, 62, 0
1, 78444, Note_on_c, 0, 74, 0
1, 78454, Note_on_c, 1, 47, 0
1, 78456, Note_on_c, 1, 52, 89
1, 78480, Note_on_c, 0, 76, 84
1, 78514, Note_on_c, 1, 52, 0
1, 78550, Note_on_c, 9, 46, 0
1, 78556, Note_on_c, 9, 51, 0
1, 78580, Note_on_c, 0, 76, 0
1, 78588, Note_on_c, 1, 39, 96
1, 78604, Note_on_c, 0, 75, 63
1, 78716, Note_on_c, 0, 75, 0
1, 78720, Note_on_c, 1, 40, 95
1, 78722, Note_on_c, 1, 39, 0
1, 78732, Note_on_c, 0, 66, 58
1, 78736, Note_on_c, 0, 62, 48
1, 78740, Note_on_c, 0, 76, 79
1, 78744, Note_on_c, 0, 56, 56
1, 78930, Note_on_c, 1, 40, 0
1, 78966, Note_on_c, 1, 35, 72
1, 79008, Note_on_c, 0, 76, 0
1, 79014, Note_on_c, 9, 51, 65
1, 79020, Note_on_c, 9, 38, 19
1, 79024, Note_on_c, 0, 62, 0
1, 79042, Note_on_c, 1, 35, 0
1, 79048, Note_on_c, 9, 38, 0
1, 79052, Note_on_c, 0, 66, 0
1, 79060, Note_on_c, 0, 77, 79
1, 79078, Note_on_c, 9, 51, 0
1, 79080, Note_on_c, 1, 28, 101
1, 79136, Note_on_c, 9, 51, 70
1, 79158, Note_on_c, 0, 77, 0
1, 79158, Note_on_c, 9, 38, 18
1, 79184, Note_on_c, 0, 56, 0
1, 79196, Note_on_c, 0, 76, 52
1, 79248, Note_on_c, 9, 38, 0
1, 79300, Note_on_c, 0, 76, 0
1, 79324, Note_on_c, 9, 51, 0
1, 79336, Note_on_c, 0, 64, 56
1, 79340, Note_on_c, 0, 60, 58
1, 79344, Note_on_c, 0, 55, 47
1, 79344, Note_on_c, 0, 77, 81
1, 79352, Note_on_c, 0, 59, 50
1, 79372, Note_on_c, 9, 38, 42
1, 79388, Note_on_c, 0, 59, 0
1, 79432, Note_on_c, 0, 59, 21
1, 79448, Note_on_c, 1, 28, 0
1, 79452, Control_c, 0, 64, 127
1, 79456, Note_on_c, 9, 38, 0
1, 79464, Note_on_c, 0, 77, 0
1, 79464, Note_on_c, 1, 34, 104
1, 79488, Control_c, 0, 64, 0
1, 79506, Note_on_c, 9, 51, 88
1, 79524, Note_on_c, 0, 64, 0
1, 79528, Note_on_c, 9, 38, 24
1, 79544, Note_on_c, 0, 60, 0
1, 79544, Note_on_c, 0, 55, 0
1, 79544, Note_on_c, 0, 59, 0
1, 79548, Control_c, 0, 64, 127
1, 79596, Note_on_c, 0, 78, 71
1, 79608, Note_on_c, 9, 38, 0
1, 79612, Note_on_c, 0, 66, 61
1, 79686, Note_on_c, 9, 51, 0
1, 79688, Note_on_c, 0, 66, 0
1, 79692, Note_on_c, 0, 78, 0
1, 79746, Note_on_c, 1, 32, 72
1, 79752, Note_on_c, 0, 78, 57
1, 79776, Control_c, 0, 64, 0
1, 79782, Note_on_c, 1, 34, 0
1, 79784, Note_on_c, 0, 66, 31
1, 79792, Note_on_c, 0, 60, 46
1, 79798, Note_on_c, 9, 51, 58
1, 79816, Note_on_c, 0, 78, 0
1, 79824, Note_on_c, 0, 66, 0
1, 79832, Note_on_c, 0, 60, 0
1, 79840, Note_on_c, 1, 32, 0
1, 79856, Note_on_c, 9, 51, 0
1, 79856, Note_on_c, 1, 33, 105
1, 79892, Note_on_c, 0, 79, 74
1, 79892, Note_on_c, 0, 67, 71
1, 79892, Note_on_c, 0, 60, 43
1, 79896, Note_on_c, 0, 64, 51
1, 79896, Note_on_c, 9, 36, 30
1, 79900, Note_on_c, 9, 51, 83
1, 79904, Note_on_c, 0, 55, 48
1, 79936, Note_on_c, 9, 36, 0
1, 79940, Control_c, 0, 64, 127
1, 80100, Note_on_c, 0, 60, 0
1, 80102, Note_on_c, 9, 51, 0
1, 80124, Note_on_c, 0, 67, 0
1, 80124, Note_on_c, 0, 79, 0
1, 80152, Note_on_c, 0, 64, 0
1, 80176, Note_on_c, 0, 55, 0
1, 80176, Note_on_c, 0, 60, 31
1, 80256, Note_on_c, 0, 69, 78
1, 80256, Note_on_c, 0, 81, 75
1, 80268, Note_on_c, 9, 51, 91
1, 80284, Note_on_c, 9, 44, 27
1, 80320, Note_on_c, 0, 60, 0
1, 80326, Note_on_c, 9, 44, 0
1, 80368, Note_on_c, 0, 69, 0
1, 80390, Note_on_c, 1, 33, 0
1, 80396, Note_on_c, 0, 81, 0
1, 80396, Note_on_c, 1, 35, 74
1, 80472, Control_c, 0, 64, 0
1, 80488, Note_on_c, 1, 35, 0
1, 80512, Note_on_c, 0, 60, 66
1, 80512, Note_on_c, 1, 36, 89
1, 80516, Note_on_c, 0, 64, 71
1, 80516, Note_on_c, 0, 84, 94
1, 80516, Note_on_c, 0, 59, 61
1, 80516, Note_on_c, 0, 72, 84
1, 80516, Note_on_c, 0, 55, 63
1, 80524, Note_on_c, 9, 51, 0
1, 80588, Control_c, 0, 64, 127
1, 80592, Note_on_c, 0, 72, 0
1, 80596, Note_on_c, 0, 64, 0
1, 80608, Note_on_c, 1, 36, 0
1, 80628, Note_on_c, 0, 55, 0
1, 80632, Note_on_c, 0, 84, 0
1, 80642, Note_on_c, 9, 44, 51
1, 80644, Note_on_c, 0, 59, 0
1, 80644, Note_on_c, 0, 60, 0
1, 80646, Note_on_c, 1, 37, 99
1, 80704, Note_on_c, 0, 55, 63
1, 80712, Note_on_c, 0, 64, 66
1, 80712, Note_on_c, 0, 88, 86
1, 80716, Note_on_c, 0, 59, 60
1, 80716, Note_on_c, 0, 60, 65
1, 80720, Note_on_c, 0, 76, 86
1, 80724, Note_on_c, 0, 74, 55
1, 80732, Note_on_c, 0, 86, 54
1, 80744, Note_on_c, 9, 44, 0
1, 80752, Note_on_c, 0, 74, 0
1, 80756, Note_on_c, 0, 86, 0
1, 80836, Note_on_c, 0, 76, 0
1, 80840, Note_on_c, 0, 88, 0
1, 80876, Note_on_c, 0, 59, 0
1, 80884, Note_on_c, 0, 60, 0
1, 80888, Note_on_c, 0, 64, 0
1, 80888, Note_on_c, 9, 51, 64
1, 80896, Note_on_c, 0, 55, 0
1, 80898, Note_on_c, 9, 38, 33
1, 80956, Note_on_c, 9, 38, 0
1, 80960, Note_on_c, 9, 51, 0
1, 80994, Note_on_c, 1, 37, 0
1, 81020, Note_on_c, 1, 38, 102
1, 81024, Note_on_c, 9, 51, 69
1, 81048, Note_on_c, 9, 36, 23
1, 81170, Note_on_c, 9, 36, 0
1, 81244, Control_c, 0, 64, 0
1, 81250, Note_on_c, 9, 51, 0
1, 81288, Note_on_c, 0, 92, 79
1, 81300, Note_on_c, 0, 80, 75
1, 81300, Note_on_c, 0, 54, 81
1, 81304, Note_on_c, 0, 64, 82
1, 81304, Note_on_c, 0, 87, 68
1, 81304, Note_on_c, 0, 60, 75
1, 81414, Note_on_c, 9, 51, 83
1, 81444, Control_c, 0, 64, 127
1, 81488, Note_on_c, 0, 64, 0
1, 81500, Note_on_c, 0, 80, 0
1, 81504, Note_on_c, 0, 87, 0
1, 81508, Note_on_c, 0, 92, 0
1, 81508, Note_on_c, 0, 54, 0
1, 81508, Note_on_c, 0, 60, 0
1, 81520, Note_on_c, 9, 51, 0
1, 81548, Note_on_c, 0, 93, 77
1, 81556, Note_on_c, 0, 87, 74
1, 81556, Note_on_c, 0, 64, 67
1, 81556, Note_on_c, 0, 81, 75
1, 81556, Note_on_c, 0, 54, 82
1, 81568, Note_on_c, 0, 60, 79
1, 81576, Note_on_c, 0, 90, 43
1, 81664, Note_on_c, 0, 93, 0
1, 81666, Note_on_c, 0, 81, 0
1, 81666, Note_on_c, 9, 51, 83
1, 81672, Note_on_c, 9, 38, 24
1, 81676, Note_on_c, 0, 90, 0
1, 81702, Note_on_c, 9, 51, 0
1, 81704, Note_on_c, 9, 52, 80
1, 81712, Note_on_c, 9, 38, 0
1, 81716, Note_on_c, 0, 64, 0
1, 81716, Note_on_c, 0, 87, 0
1, 81732, Note_on_c, 0, 54, 0
1, 81734, Note_on_c, 9, 52, 0
1, 81752, Control_c, 0, 64, 0
1, 81760, Note_on_c, 0, 60, 0
1, 81796, Note_on_c, 0, 54, 61
1, 81800, Note_on_c, 0, 94, 86
1, 81800, Note_on_c, 9, 44, 34
1, 81812, Note_on_c, 0, 82, 76
1, 81812, Note_on_c, 0, 64, 71
1, 81812, Note_on_c, 0, 87, 72
1, 81820, Control_c, 0, 64, 127
1, 81836, Note_on_c, 0, 60, 58
1, 81840, Note_on_c, 0, 58, 45
1, 81842, Note_on_c, 9, 44, 0
1, 81864, Note_on_c, 0, 60, 0
1, 81876, Note_on_c, 0, 58, 0
1, 81924, Note_on_c, 0, 54, 0
1, 81926, Note_on_c, 9, 44, 43
1, 81932, Note_on_c, 0, 64, 0
1, 81940, Note_on_c, 0, 87, 0
1, 81960, Note_on_c, 0, 82, 0
1, 81980, Note_on_c, 0, 94, 0
1, 81984, Note_on_c, 9, 44, 0
1, 82024, Note_on_c, 9, 51, 68
1, 82064, Control_c, 0, 64, 0
1, 82080, Note_on_c, 0, 95, 85
1, 82080, Note_on_c, 0, 67, 86
1, 82084, Note_on_c, 0, 91, 81
1, 82084, Note_on_c, 0, 83, 81
1, 82084, Note_on_c, 0, 63, 67
1, 82088, Note_on_c, 9, 51, 0
1, 82096, Note_on_c, 0, 57, 65
1, 82104, Note_on_c, 0, 62, 66
1, 82112, Note_on_c, 0, 61, 22
1, 82136, Note_on_c, 0, 93, 28
1, 82148, Note_on_c, 0, 61, 0
1, 82192, Note_on_c, 1, 47, 127
1, 82194, Note_on_c, 9, 51, 69
1, 82208, Note_on_c, 1, 38, 0
1, 82216, Note_on_c, 9, 53, 64
1, 82232, Control_c, 0, 64, 127
1, 82236, Note_on_c, 0, 67, 0
1, 82236, Note_on_c, 0, 57, 0
1, 82236, Note_on_c, 0, 83, 0
1, 82244, Note_on_c, 0, 91, 0
1, 82248, Note_on_c, 0, 95, 0
1, 82260, Note_on_c, 0, 62, 0
1, 82260, Note_on_c, 0, 93, 0
1, 82276, Note_on_c, 0, 63, 0
1, 82328, Note_on_c, 9, 53, 0
1, 82344, Note_on_c, 0, 95, 75
1, 82348, Note_on_c, 0, 63, 54
1, 82348, Note_on_c, 0, 62, 56
1, 82352, Note_on_c, 0, 67, 75
1, 82352, Note_on_c, 0, 83, 76
1, 82352, Note_on_c, 0, 57, 65
1, 82352, Note_on_c, 0, 91, 68
1, 82370, Note_on_c, 9, 51, 0
1, 82460, Note_on_c, 9, 36, 19
1, 82480, Note_on_c, 0, 83, 0
1, 82482, Note_on_c, 9, 36, 0
1, 82492, Note_on_c, 0, 67, 0
1, 82500, Note_on_c, 0, 57, 0
1, 82508, Note_on_c, 0, 91, 0
1, 82516, Note_on_c, 0, 95, 0
1, 82524, Note_on_c, 0, 63, 0
1, 82528, Control_c, 0, 64, 0
1, 82532, Note_on_c, 0, 62, 0
1, 82572, Note_on_c, 9, 51, 64
1, 82604, Note_on_c, 0, 63, 50
1, 82604, Note_on_c, 0, 96, 82
1, 82604, Note_on_c, 0, 62, 60
1, 82604, Note_on_c, 0, 67, 71
1, 82612, Note_on_c, 0, 57, 59
1, 82620, Note_on_c, 0, 84, 63
1, 82624, Note_on_c, 0, 91, 66
1, 82646, Note_on_c, 9, 51, 0
1, 82648, Control_c, 0, 64, 127
1, 82704, Note_on_c, 9, 44, 39
1, 82744, Note_on_c, 0, 91, 0
1, 82748, Note_on_c, 9, 44, 0
1, 82748, Note_on_c, 0, 57, 0
1, 82752, Note_on_c, 0, 96, 0
1, 82764, Note_on_c, 0, 67, 0
1, 82788, Note_on_c, 0, 63, 0
1, 82792, Note_on_c, 0, 84, 0
1, 82792, Note_on_c, 1, 38, 75
1, 82800, Control_c, 0, 64, 0
1, 82804, Note_on_c, 0, 62, 0
1, 82812, Note_on_c, 9, 51, 82
1, 82822, Note_on_c, 1, 38, 0
1, 82824, Note_on_c, 9, 53, 73
1, 82834, Note_on_c, 9, 54, 37
1, 82864, Note_on_c, 9, 54, 0
1, 82872, Note_on_c, 0, 95, 73
1, 82880, Note_on_c, 0, 62, 57
1, 82884, Note_on_c, 0, 67, 67
1, 82888, Note_on_c, 0, 63, 60
1, 82892, Note_on_c, 0, 83, 57
1, 82904, Note_on_c, 0, 57, 51
1, 82934, Note_on_c, 1, 43, 79
1, 82940, Note_on_c, 1, 47, 0
1, 82956, Note_on_c, 9, 44, 38
1, 82964, Control_c, 0, 64, 127
1, 83000, Note_on_c, 9, 53, 0
1, 83016, Note_on_c, 9, 44, 0
1, 83024, Note_on_c, 9, 51, 0
1, 83032, Note_on_c, 0, 95, 0
1, 83084, Note_on_c, 0, 83, 0
1, 83088, Note_on_c, 0, 57, 0
1, 83092, Note_on_c, 0, 63, 0
1, 83104, Note_on_c, 9, 44, 37
1, 83124, Note_on_c, 0, 67, 0
1, 83138, Note_on_c, 9, 44, 0
1, 83148, Note_on_c, 0, 62, 0
1, 83190, Note_on_c, 1, 39, 78
1, 83192, Note_on_c, 9, 51, 61
1, 83216, Note_on_c, 1, 39, 0
1, 83256, Note_on_c, 0, 62, 35
1, 83264, Control_c, 0, 64, 0
1, 83266, Note_on_c, 9, 51, 0
1, 83276, Note_on_c, 0, 63, 31
1, 83292, Note_on_c, 0, 62, 0
1, 83292, Note_on_c, 1, 43, 0
1, 83316, Note_on_c, 0, 63, 0
1, 83320, Note_on_c, 1, 41, 89
1, 83340, Note_on_c, 0, 89, 63
1, 83348, Note_on_c, 0, 77, 56
1, 83360, Note_on_c, 0, 84, 56
1, 83360, Note_on_c, 0, 62, 38
1, 83360, Note_on_c, 0, 67, 52
1, 83360, Note_on_c, 0, 57, 53
1, 83368, Note_on_c, 0, 63, 60
1, 83378, Note_on_c, 9, 44, 40
1, 83384, Note_on_c, 9, 51, 82
1, 83398, Note_on_c, 9, 53, 77
1, 83424, Note_on_c, 9, 44, 0
1, 83464, Note_on_c, 0, 67, 0
1, 83468, Note_on_c, 0, 62, 0
1, 83472, Note_on_c, 0, 89, 0
1, 83478, Note_on_c, 1, 41, 0
1, 83484, Note_on_c, 0, 84, 0
1, 83484, Note_on_c, 0, 57, 0
1, 83484, Note_on_c, 9, 44, 42
1, 83504, Note_on_c, 0, 77, 0
1, 83512, Note_on_c, 0, 63, 0
1, 83512, Note_on_c, 9, 44, 0
1, 83570, Note_on_c, 9, 51, 0
1, 83576, Note_on_c, 1, 39, 81
1, 83584, Note_on_c, 9, 53, 0
1, 83622, Note_on_c, 1, 39, 0
1, 83724, Note_on_c, 1, 40, 101
1, 83728, Note_on_c, 9, 51, 56
1, 83734, Note_on_c, 9, 44, 37
1, 83748, Note_on_c, 0, 88, 57
1, 83752, Note_on_c, 0, 66, 61
1, 83752, Note_on_c, 0, 83, 57
1, 83760, Note_on_c, 0, 62, 50
1, 83760, Note_on_c, 0, 76, 49
1, 83764, Control_c, 0, 64, 127
1, 83764, Note_on_c, 0, 56, 52
1, 83778, Note_on_c, 9, 44, 0
1, 83800, Note_on_c, 9, 51, 0
1, 83840, Note_on_c, 9, 44, 39
1, 83890, Note_on_c, 9, 44, 0
1, 83912, Note_on_c, 0, 76, 0
1, 83928, Note_on_c, 0, 83, 0
1, 83944, Note_on_c, 0, 88, 0
1, 83944, Note_on_c, 0, 62, 0
1, 83954, Note_on_c, 9, 51, 76
1, 83968, Note_on_c, 9, 53, 74
1, 83980, Note_on_c, 9, 54, 32
1, 83992, Note_on_c, 9, 38, 16
1, 84008, Note_on_c, 9, 54, 0
1, 84022, Note_on_c, 9, 38, 0
1, 84032, Note_on_c, 0, 62, 40
1, 84084, Control_c, 0, 64, 0
1, 84096, Note_on_c, 0, 66, 0
1, 84114, Note_on_c, 9, 44, 42
1, 84124, Note_on_c, 0, 62, 0
1, 84128, Note_on_c, 9, 51, 0
1, 84130, Note_on_c, 9, 53, 0
1, 84132, Note_on_c, 0, 81, 38
1, 84166, Note_on_c, 9, 44, 0
1, 84220, Note_on_c, 0, 82, 38
1, 84220, Note_on_c, 9, 44, 48
1, 84262, Note_on_c, 9, 44, 0
1, 84276, Note_on_c, 0, 82, 0
1, 84292, Note_on_c, 0, 83, 56
1, 84316, Note_on_c, 9, 51, 55
1, 84336, Note_on_c, 0, 81, 0
1, 84340, Note_on_c, 0, 56, 0
1, 84344, Note_on_c, 1, 34, 95
1, 84356, Note_on_c, 0, 83, 0
1, 84358, Note_on_c, 9, 38, 48
1, 84374, Note_on_c, 1, 40, 0
1, 84400, Note_on_c, 0, 86, 96
1, 84418, Note_on_c, 9, 51, 0
1, 84432, Note_on_c, 9, 38, 0
1, 84432, Note_on_c, 1, 34, 0
1, 84432, Note_on_c, 0, 64, 55
1, 84440, Note_on_c, 0, 60, 57
1, 84444, Note_on_c, 0, 55, 45
1, 84444, Note_on_c, 0, 59, 51
1, 84476, Note_on_c, 9, 51, 61
1, 84480, Note_on_c, 1, 33, 83
1, 84492, Note_on_c, 9, 57, 36
1, 84498, Note_on_c, 9, 36, 46
1, 84504, Note_on_c, 9, 54, 37
1, 84534, Note_on_c, 9, 54, 0
1, 84536, Note_on_c, 0, 86, 0
1, 84592, Note_on_c, 0, 81, 20
1, 84612, Note_on_c, 0, 60, 0
1, 84620, Note_on_c, 0, 82, 48
1, 84652, Note_on_c, 0, 82, 0
1, 84652, Note_on_c, 9, 36, 0
1, 84656, Note_on_c, 0, 59, 0
1, 84656, Note_on_c, 0, 64, 0
1, 84680, Note_on_c, 9, 57, 0
1, 84696, Note_on_c, 0, 83, 49
1, 84710, Note_on_c, 9, 51, 0
1, 84724, Note_on_c, 0, 81, 0
1, 84736, Note_on_c, 0, 83, 0
1, 84752, Note_on_c, 0, 64, 42
1, 84760, Note_on_c, 0, 86, 84
1, 84768, Note_on_c, 0, 60, 47
1, 84784, Note_on_c, 0, 59, 33
1, 84796, Note_on_c, 0, 64, 0
1, 84864, Note_on_c, 0, 55, 0
1, 84880, Note_on_c, 1, 48, 103
1, 84880, Note_on_c, 9, 51, 37
1, 84888, Note_on_c, 0, 60, 0
1, 84888, Note_on_c, 0, 79, 53
1, 84900, Note_on_c, 0, 59, 0
1, 84956, Note_on_c, 9, 51, 0
1, 85112, Note_on_c, 9, 51, 40
1, 85124, Note_on_c, 0, 86, 0
1, 85128, Note_on_c, 0, 79, 0
1, 85128, Note_on_c, 0, 60, 48
1, 85168, Note_on_c, 0, 59, 34
1, 85202, Note_on_c, 9, 51, 0
1, 85216, Note_on_c, 0, 59, 0
1, 85224, Note_on_c, 0, 60, 0
1, 85252, Note_on_c, 0, 79, 68
1, 85256, Note_on_c, 0, 86, 56
1, 85260, Note_on_c, 9, 51, 57
1, 85304, Control_c, 0, 64, 127
1, 85320, Note_on_c, 9, 51, 0
1, 85398, Note_on_c, 1, 34, 85
1, 85414, Note_on_c, 1, 48, 0
1, 85416, Note_on_c, 1, 33, 0
1, 85472, Note_on_c, 1, 34, 0
1, 85488, Note_on_c, 0, 79, 0
1, 85510, Note_on_c, 1, 35, 92
1, 85512, Note_on_c, 9, 51, 92
1, 85528, Note_on_c, 0, 86, 0
1, 85536, Control_c, 0, 64, 0
1, 85592, Note_on_c, 9, 51, 0
1, 85620, Note_on_c, 0, 67, 49
1, 85628, Note_on_c, 0, 63, 46
1, 85632, Note_on_c, 0, 62, 42
1, 85644, Note_on_c, 1, 35, 0
1, 85644, Note_on_c, 0, 58, 40
1, 85656, Note_on_c, 1, 51, 95
1, 85656, Note_on_c, 1, 36, 93
1, 85660, Note_on_c, 9, 51, 67
1, 85840, Note_on_c, 9, 51, 0
1, 85916, Note_on_c, 9, 38, 41
1, 85984, Note_on_c, 9, 38, 0
1, 86016, Note_on_c, 0, 67, 0
1, 86032, Note_on_c, 0, 89, 122
1, 86054, Note_on_c, 9, 51, 26
1, 86076, Note_on_c, 9, 38, 31
1, 86092, Note_on_c, 9, 51, 0
1, 86112, Note_on_c, 0, 62, 0
1, 86140, Note_on_c, 9, 38, 0
1, 86144, Note_on_c, 0, 63, 0
1, 86248, Note_on_c, 0, 89, 0
1, 86284, Note_on_c, 0, 86, 84
1, 86290, Note_on_c, 9, 51, 54
1, 86292, Note_on_c, 0, 63, 53
1, 86294, Note_on_c, 9, 38, 42
1, 86300, Note_on_c, 0, 62, 39
1, 86300, Note_on_c, 0, 67, 40
1, 86340, Note_on_c, 0, 61, 23
1, 86352, Note_on_c, 9, 51, 0
1, 86384, Note_on_c, 0, 67, 0
1, 86384, Note_on_c, 9, 38, 0
1, 86408, Note_on_c, 9, 51, 67
1, 86416, Note_on_c, 0, 86, 0
1, 86420, Note_on_c, 0, 61, 0
1, 86428, Note_on_c, 0, 62, 0
1, 86440, Note_on_c, 9, 38, 35
1, 86448, Note_on_c, 0, 58, 0
1, 86460, Note_on_c, 0, 87, 76
1, 86468, Note_on_c, 0, 63, 0
1, 86540, Note_on_c, 9, 51, 0
1, 86544, Note_on_c, 9, 38, 0
1, 86652, Note_on_c, 0, 87, 0
1, 86674, Note_on_c, 9, 36, 47
1, 86676, Note_on_c, 0, 66, 58
1, 86692, Note_on_c, 0, 62, 48
1, 86696, Note_on_c, 0, 83, 57
1, 86700, Note_on_c, 0, 57, 41
1, 86700, Note_on_c, 1, 34, 63
1, 86736, Note_on_c, 1, 36, 0
1, 86752, Note_on_c, 9, 36, 0
1, 86754, Note_on_c, 1, 51, 0
1, 86796, Note_on_c, 9, 51, 81
1, 86800, Note_on_c, 1, 34, 0
1, 86818, Note_on_c, 1, 50, 75
1, 86818, Note_on_c, 9, 36, 35
1, 86838, Note_on_c, 1, 35, 61
1, 86840, Note_on_c, 0, 83, 0
1, 86904, Note_on_c, 0, 86, 81
1, 86914, Note_on_c, 9, 51, 0
1, 86936, Note_on_c, 0, 66, 0
1, 86968, Note_on_c, 0, 62, 0
1, 86976, Note_on_c, 9, 36, 0
1, 87020, Note_on_c, 0, 86, 0
1, 87048, Note_on_c, 0, 66, 40
1, 87060, Note_on_c, 0, 62, 48
1, 87068, Note_on_c, 0, 74, 55
1, 87084, Note_on_c, 0, 66, 0
1, 87148, Note_on_c, 0, 74, 0
1, 87236, Note_on_c, 0, 57, 0
1, 87244, Note_on_c, 0, 74, 58
1, 87340, Note_on_c, 0, 62, 0
1, 87360, Note_on_c, 0, 74, 0
1, 87376, Note_on_c, 1, 35, 0
1, 87398, Note_on_c, 1, 34, 60
1, 87452, Note_on_c, 0, 74, 68
1, 87452, Note_on_c, 9, 51, 50
1, 87456, Note_on_c, 0, 66, 63
1, 87472, Note_on_c, 0, 62, 51
1, 87472, Note_on_c, 0, 57, 54
1, 87496, Note_on_c, 9, 51, 0
1, 87500, Note_on_c, 1, 34, 0
1, 87528, Note_on_c, 0, 74, 0
1, 87536, Note_on_c, 1, 41, 104
1, 87544, Note_on_c, 0, 66, 0
1, 87570, Note_on_c, 9, 51, 50
1, 87576, Note_on_c, 1, 50, 0
1, 87596, Note_on_c, 1, 41, 0
1, 87636, Note_on_c, 0, 74, 67
1, 87664, Note_on_c, 9, 51, 0
1, 87668, Note_on_c, 0, 57, 0
1, 87748, Note_on_c, 0, 62, 0
1, 87756, Note_on_c, 0, 76, 67
1, 87768, Note_on_c, 0, 74, 0
1, 87784, Note_on_c, 1, 39, 96
1, 87836, Note_on_c, 0, 74, 63
1, 87840, Note_on_c, 0, 76, 0
1, 87880, Note_on_c, 1, 39, 0
1, 87906, Note_on_c, 1, 40, 99
1, 87912, Note_on_c, 0, 73, 57
1, 87928, Note_on_c, 0, 74, 0
1, 87980, Note_on_c, 0, 62, 40
1, 87984, Note_on_c, 0, 56, 47
1, 87988, Note_on_c, 0, 73, 0
1, 88000, Note_on_c, 0, 67, 33
1, 88028, Note_on_c, 0, 74, 58
1, 88168, Note_on_c, 1, 39, 58
1, 88192, Note_on_c, 9, 51, 45
1, 88246, Note_on_c, 9, 51, 0
1, 88276, Note_on_c, 0, 67, 0
1, 88284, Note_on_c, 0, 74, 0
1, 88294, Note_on_c, 1, 39, 0
1, 88296, Note_on_c, 9, 44, 48
1, 88306, Note_on_c, 1, 52, 124
1, 88310, Note_on_c, 1, 40, 0
1, 88332, Note_on_c, 9, 51, 53
1, 88336, Control_c, 0, 64, 127
1, 88342, Note_on_c, 9, 38, 33
1, 88376, Note_on_c, 9, 38, 0
1, 88392, Note_on_c, 0, 62, 0
1, 88392, Note_on_c, 9, 51, 0
1, 88464, Note_on_c, 9, 38, 27
1, 88468, Note_on_c, 0, 56, 0
1, 88468, Control_c, 0, 64, 0
1, 88502, Note_on_c, 9, 44, 0
1, 88502, Note_on_c, 9, 38, 0
1, 88576, Note_on_c, 9, 51, 98
1, 88588, Note_on_c, 0, 56, 52
1, 88592, Note_on_c, 9, 36, 21
1, 88594, Note_on_c, 0, 62, 45
1, 88594, Note_on_c, 1, 40, 65
1, 88604, Note_on_c, 1, 39, 61
1, 88624, Note_on_c, 1, 40, 0
1, 88624, Note_on_c, 9, 36, 0
1, 88632, Note_on_c, 0, 62, 0
1, 88642, Note_on_c, 1, 39, 0
1, 88678, Note_on_c, 9, 44, 39
1, 88700, Note_on_c, 9, 38, 34
1, 88704, Note_on_c, 0, 56, 0
1, 88704, Note_on_c, 0, 64, 63
1, 88706, Note_on_c, 1, 52, 0
1, 88716, Note_on_c, 1, 47, 92
1, 88722, Note_on_c, 1, 49, 61
1, 88744, Note_on_c, 9, 51, 0
1, 88748, Note_on_c, 1, 49, 0
1, 88784, Note_on_c, 9, 38, 0
1, 88824, Note_on_c, 9, 38, 40
1, 88854, Note_on_c, 9, 51, 62
1, 88884, Note_on_c, 0, 64, 0
1, 88888, Note_on_c, 9, 38, 0
1, 88902, Note_on_c, 9, 51, 0
1, 88950, Note_on_c, 9, 44, 0
1, 88952, Note_on_c, 9, 36, 48
1, 88968, Note_on_c, 9, 51, 65
1, 88972, Note_on_c, 0, 64, 66
1, 88978, Note_on_c, 1, 40, 74
1, 88988, Note_on_c, 0, 60, 48
1, 89008, Note_on_c, 1, 40, 0
1, 89012, Note_on_c, 0, 59, 46
1, 89020, Note_on_c, 0, 55, 31
1, 89030, Note_on_c, 9, 51, 0
1, 89030, Note_on_c, 1, 47, 0
1, 89058, Note_on_c, 9, 36, 0
1, 89080, Note_on_c, 0, 64, 0
1, 89084, Note_on_c, 1, 48, 106
1, 89100, Note_on_c, 9, 51, 83
1, 89152, Note_on_c, 0, 64, 56
1, 89180, Note_on_c, 0, 60, 0
1, 89220, Note_on_c, 0, 59, 0
1, 89256, Note_on_c, 9, 51, 0
1, 89308, Note_on_c, 0, 64, 0
1, 89344, Note_on_c, 0, 74, 80
1, 89356, Note_on_c, 0, 60, 52
1, 89368, Note_on_c, 0, 59, 36
1, 89444, Note_on_c, 0, 74, 0
1, 89448, Note_on_c, 1, 48, 0
1, 89456, Note_on_c, 1, 45, 85
1, 89472, Note_on_c, 9, 44, 45
1, 89478, Note_on_c, 9, 51, 45
1, 89500, Note_on_c, 0, 55, 0
1, 89512, Note_on_c, 0, 74, 63
1, 89520, Note_on_c, 9, 51, 0
1, 89524, Note_on_c, 0, 60, 0
1, 89524, Note_on_c, 0, 59, 0
1, 89664, Note_on_c, 9, 44, 0
1, 89672, Note_on_c, 0, 74, 0
1, 89712, Note_on_c, 9, 38, 43
1, 89724, Note_on_c, 0, 64, 59
1, 89746, Note_on_c, 9, 51, 86
1, 89756, Note_on_c, 9, 38, 0
1, 89760, Note_on_c, 0, 60, 39
1, 89764, Note_on_c, 0, 59, 36
1, 89776, Note_on_c, 0, 55, 31
1, 89816, Note_on_c, 1, 45, 0
1, 89816, Note_on_c, 0, 64, 0
1, 89832, Note_on_c, 9, 51, 0
1, 89842, Note_on_c, 9, 44, 45
1, 89848, Note_on_c, 1, 39, 96
1, 89868, Note_on_c, 0, 60, 0
1, 89868, Note_on_c, 9, 38, 36
1, 89884, Note_on_c, 0, 59, 0
1, 89904, Note_on_c, 0, 64, 43
1, 89912, Note_on_c, 0, 55, 0
1, 89936, Note_on_c, 9, 38, 0
1, 90008, Note_on_c, 9, 51, 55
1, 90024, Note_on_c, 9, 44, 0
1, 90038, Note_on_c, 9, 51, 0
1, 90084, Note_on_c, 0, 64, 0
1, 90108, Note_on_c, 1, 37, 57
1, 90120, Note_on_c, 9, 36, 33
1, 90124, Note_on_c, 9, 51, 59
1, 90132, Note_on_c, 0, 74, 72
1, 90148, Note_on_c, 0, 54, 48
1, 90148, Note_on_c, 0, 60, 54
1, 90180, Note_on_c, 0, 60, 0
1, 90188, Note_on_c, 9, 51, 0
1, 90192, Note_on_c, 9, 36, 0
1, 90214, Note_on_c, 1, 37, 0
1, 90226, Note_on_c, 1, 38, 99
1, 90240, Note_on_c, 0, 54, 0
1, 90240, Note_on_c, 0, 74, 0
1, 90256, Note_on_c, 1, 39, 0
1, 90264, Note_on_c, 9, 51, 70
1, 90268, Note_on_c, 9, 36, 27
1, 90312, Note_on_c, 9, 36, 0
1, 90324, Note_on_c, 0, 63, 60
1, 90386, Note_on_c, 9, 51, 0
1, 90508, Note_on_c, 0, 63, 0
1, 90528, Note_on_c, 1, 37, 46
1, 90604, Note_on_c, 9, 44, 46
1, 90616, Note_on_c, 1, 50, 124
1, 90616, Note_on_c, 9, 51, 47
1, 90620, Note_on_c, 0, 50, 57
1, 90640, Note_on_c, 0, 49, 48
1, 90646, Note_on_c, 1, 37, 0
1, 90694, Note_on_c, 9, 51, 0
1, 90748, Note_on_c, 0, 49, 0
1, 90800, Note_on_c, 9, 44, 0
1, 90870, Note_on_c, 9, 51, 90
1, 90870, Note_on_c, 9, 38, 35
1, 90904, Note_on_c, 1, 37, 61
1, 90920, Note_on_c, 9, 38, 0
1, 90952, Note_on_c, 1, 38, 0
1, 90982, Note_on_c, 1, 50, 0
1, 91014, Note_on_c, 1, 47, 102
1, 91014, Note_on_c, 9, 44, 39
1, 91026, Note_on_c, 1, 37, 0
1, 91026, Note_on_c, 9, 38, 25
1, 91040, Control_c, 0, 64, 127
1, 91074, Note_on_c, 9, 51, 0
1, 91078, Note_on_c, 9, 38, 0
1, 91156, Control_c, 0, 64, 0
1, 91216, Note_on_c, 9, 44, 0
1, 91224, Note_on_c, 0, 50, 0
1, 91260, Note_on_c, 1, 38, 75
1, 91260, Note_on_c, 9, 36, 46
1, 91288, Note_on_c, 9, 51, 46
1, 91292, Note_on_c, 1, 38, 0
1, 91308, Note_on_c, 0, 50, 57
1, 91328, Note_on_c, 9, 51, 0
1, 91330, Note_on_c, 9, 36, 0
1, 91352, Note_on_c, 1, 47, 0
1, 91356, Note_on_c, 0, 50, 0
1, 91378, Note_on_c, 1, 42, 100
1, 91412, Note_on_c, 0, 69, 75
1, 91412, Note_on_c, 0, 59, 76
1, 91412, Note_on_c, 0, 62, 68
1, 91412, Note_on_c, 0, 66, 58
1, 91414, Note_on_c, 9, 36, 24
1, 91424, Note_on_c, 0, 54, 61
1, 91448, Note_on_c, 9, 51, 93
1, 91458, Note_on_c, 9, 36, 0
1, 91584, Note_on_c, 0, 59, 0
1, 91604, Note_on_c, 0, 62, 0
1, 91608, Note_on_c, 0, 66, 0
1, 91608, Note_on_c, 0, 69, 0
1, 91616, Note_on_c, 9, 51, 0
1, 91632, Note_on_c, 0, 54, 0
1, 91644, Note_on_c, 1, 38, 71
1, 91666, Note_on_c, 1, 38, 0
1, 91684, Note_on_c, 0, 52, 58
1, 91696, Note_on_c, 0, 67, 31
1, 91702, Note_on_c, 1, 42, 0
1, 91748, Note_on_c, 0, 67, 0
1, 91756, Note_on_c, 9, 44, 46
1, 91768, Note_on_c, 1, 38, 87
1, 91784, Note_on_c, 9, 51, 57
1, 91788, Note_on_c, 0, 52, 0
1, 91798, Note_on_c, 9, 44, 0
1, 91808, Note_on_c, 0, 69, 74
1, 91808, Note_on_c, 0, 59, 72
1, 91808, Note_on_c, 0, 66, 53
1, 91808, Note_on_c, 0, 54, 68
1, 91808, Note_on_c, 0, 62, 71
1, 91848, Note_on_c, 9, 51, 0
1, 91976, Note_on_c, 0, 59, 0
1, 91992, Note_on_c, 0, 66, 0
1, 91996, Note_on_c, 0, 69, 0
1, 92008, Note_on_c, 0, 62, 0
1, 92024, Note_on_c, 9, 38, 60
1, 92028, Note_on_c, 9, 51, 85
1, 92038, Note_on_c, 9, 53, 80
1, 92044, Note_on_c, 0, 54, 0
1, 92084, Note_on_c, 0, 52, 53
1, 92092, Note_on_c, 0, 67, 35
1, 92098, Note_on_c, 1, 38, 0
1, 92144, Note_on_c, 1, 38, 117
1, 92148, Note_on_c, 0, 67, 0
1, 92156, Note_on_c, 9, 46, 40
1, 92184, Control_c, 0, 64, 127
1, 92200, Note_on_c, 0, 52, 0
1, 92200, Note_on_c, 0, 54, 53
1, 92204, Note_on_c, 0, 59, 68
1, 92204, Note_on_c, 0, 69, 64
1, 92212, Note_on_c, 0, 66, 56
1, 92220, Note_on_c, 9, 38, 0
1, 92224, Note_on_c, 0, 62, 43
1, 92252, Note_on_c, 9, 51, 0
1, 92252, Note_on_c, 0, 67, 20
1, 92256, Note_on_c, 0, 62, 0
1, 92258, Note_on_c, 9, 53, 0
1, 92272, Note_on_c, 0, 54, 0
1, 92300, Note_on_c, 0, 59, 0
1, 92308, Note_on_c, 0, 67, 0
1, 92316, Note_on_c, 0, 69, 0
1, 92352, Control_c, 0, 64, 0
1, 92356, Note_on_c, 0, 66, 0
1, 92416, Note_on_c, 9, 36, 36
1, 92418, Note_on_c, 9, 51, 59
1, 92428, Note_on_c, 9, 46, 0
1, 92438, Note_on_c, 9, 36, 0
1, 92472, Note_on_c, 0, 64, 73
1, 92472, Note_on_c, 0, 71, 75
1, 92472, Note_on_c, 0, 60, 77
1, 92472, Note_on_c, 0, 67, 57
1, 92472, Note_on_c, 0, 50, 70
1, 92480, Note_on_c, 9, 51, 0
1, 92492, Note_on_c, 0, 68, 39
1, 92520, Note_on_c, 1, 54, 114
1, 92582, Note_on_c, 9, 51, 87
1, 92588, Note_on_c, 9, 53, 81
1, 92598, Note_on_c, 9, 36, 63
1, 92598, Note_on_c, 9, 38, 60
1, 92690, Note_on_c, 9, 36, 0
1, 92786, Note_on_c, 9, 51, 0
1, 92808, Note_on_c, 9, 38, 0
1, 92808, Note_on_c, 1, 37, 79
1, 92824, Note_on_c, 9, 53, 0
1, 92824, Note_on_c, 0, 38, 89
1, 92866, Note_on_c, 1, 38, 0
1, 92880, Note_on_c, 1, 37, 0
1, 92880, Note_on_c, 0, 68, 0
1, 92892, Note_on_c, 0, 60, 0
1, 92902, Note_on_c, 1, 50, 95
1, 92904, Note_on_c, 9, 44, 46
1, 92908, Note_on_c, 1, 54, 0
1, 92908, Note_on_c, 9, 38, 46
1, 92912, Control_c, 0, 64, 127
1, 92924, Note_on_c, 9, 51, 60
1, 92964, Note_on_c, 0, 64, 0
1, 92972, Note_on_c, 9, 38, 0
1, 92988, Note_on_c, 0, 67, 0
1, 92992, Note_on_c, 9, 51, 0
1, 93024, Note_on_c, 0, 71, 0
1, 93036, Note_on_c, 9, 44, 0
1, 93064, Note_on_c, 0, 38, 0
1, 93144, Note_on_c, 9, 38, 37
1, 93160, Note_on_c, 9, 51, 50
1, 93164, Note_on_c, 9, 57, 31
1, 93188, Note_on_c, 0, 50, 0
1, 93212, Note_on_c, 0, 38, 82
1, 93280, Note_on_c, 0, 38, 0
1, 93304, Note_on_c, 9, 44, 49
1, 93320, Note_on_c, 1, 50, 0
1, 93352, Note_on_c, 9, 38, 0
1, 93368, Note_on_c, 9, 51, 0
1, 93388, Note_on_c, 9, 57, 0
1, 93468, Note_on_c, 9, 44, 0
1, 93522, Note_on_c, 9, 51, 19
1, 93558, Note_on_c, 9, 51, 0
1, 93656, Note_on_c, 1, 47, 70
1, 93656, Note_on_c, 9, 59, 24
1, 93664, Note_on_c, 9, 38, 21
1, 93672, Control_c, 0, 64, 0
1, 93682, Note_on_c, 9, 51, 48
1, 93686, Note_on_c, 9, 57, 27
1, 93692, Note_on_c, 9, 59, 0
1, 93708, Note_on_c, 0, 81, 80
1, 93720, Note_on_c, 0, 78, 75
1, 93740, Note_on_c, 9, 38, 0
1, 93744, Note_on_c, 0, 78, 0
1, 93744, Note_on_c, 0, 57, 42
1, 93744, Note_on_c, 0, 59, 41
1, 93744, Note_on_c, 0, 62, 54
1, 93744, Note_on_c, 0, 52, 50
1, 93744, Note_on_c, 0, 74, 62
1, 93788, Note_on_c, 0, 69, 41
1, 93808, Note_on_c, 9, 57, 0
1, 93808, Note_on_c, 9, 51, 0
1, 93904, Note_on_c, 1, 47, 0
1, 93910, Note_on_c, 1, 54, 108
1, 94054, Note_on_c, 9, 46, 40
1, 94072, Note_on_c, 1, 50, 62
1, 94076, Note_on_c, 1, 54, 0
1, 94080, Note_on_c, 9, 44, 20
1, 94182, Note_on_c, 9, 44, 0
1, 94184, Note_on_c, 9, 46, 0
1, 94428, Note_on_c, 9, 46, 43
1, 94438, Note_on_c, 9, 44, 21
1, 94444, Control_c, 0, 64, 127
1, 94598, Note_on_c, 9, 46, 0
1, 94616, Note_on_c, 9, 44, 0
1, 94656, Note_on_c, 0, 81, 0
1, 94676, Note_on_c, 0, 57, 0
1, 94676, Note_on_c, 0, 59, 0
1, 94684, Note_on_c, 0, 69, 0
1, 94692, Note_on_c, 0, 74, 0
1, 94692, Note_on_c, 0, 62, 0
1, 94704, Note_on_c, 9, 59, 27
1, 94740, Note_on_c, 0, 52, 0
1, 94780, Note_on_c, 9, 59, 0
1, 94840, Note_on_c, 9, 59, 24
1, 94944, Note_on_c, 9, 59, 0
1, 95036, Note_on_c, 1, 50, 0
1, 95062, Note_on_c, 1, 47, 110
1, 95192, Control_c, 0, 64, 0
1, 95222, Note_on_c, 1, 47, 0
1, 95232, Note_on_c, 9, 44, 31
1, 95240, Note_on_c, 0, 78, 63
1, 95264, Note_on_c, 0, 71, 46
1, 95276, Note_on_c, 0, 52, 40
1, 95280, Note_on_c, 0, 67, 17
1, 95284, Note_on_c, 0, 59, 39
1, 95288, Note_on_c, 9, 44, 0
1, 95292, Note_on_c, 0, 62, 29
1, 95296, Note_on_c, 1, 54, 112
1, 95340, Control_c, 0, 64, 127
1, 95428, Note_on_c, 0, 52, 0
1, 95440, Note_on_c, 0, 59, 0
1, 95448, Note_on_c, 0, 67, 0
1, 95452, Note_on_c, 0, 71, 0
1, 95496, Note_on_c, 0, 62, 0
1, 95574, Note_on_c, 1, 54, 0
1, 95592, Note_on_c, 1, 50, 95
1, 95602, Note_on_c, 9, 44, 36
1, 95692, Note_on_c, 0, 78, 0
1, 95752, Note_on_c, 9, 44, 0
1, 95766, Note_on_c, 9, 59, 37
1, 95816, Note_on_c, 9, 59, 0
1, 95858, Note_on_c, 1, 47, 101
1, 95868, Note_on_c, 9, 59, 38
1, 95956, Control_c, 0, 64, 0
1, 95968, Note_on_c, 9, 59, 0
1, 95968, Note_on_c, 1, 50, 0
1, 96002, Note_on_c, 9, 59, 48
1, 96012, Note_on_c, 0, 72, 43
1, 96016, Note_on_c, 0, 67, 33
1, 96016, Note_on_c, 0, 76, 49
1, 96018, Note_on_c, 1, 47, 0
1, 96028, Note_on_c, 0, 64, 36
1, 96028, Note_on_c, 0, 60, 31
1, 96036, Note_on_c, 0, 59, 40
1, 96044, Note_on_c, 0, 55, 36
1, 96086, Note_on_c, 1, 47, 89
1, 96182, Note_on_c, 9, 59, 0
1, 96242, Note_on_c, 1, 47, 0
1, 96248, Note_on_c, 9, 59, 26
1, 96264, Note_on_c, 1, 54, 98
1, 96370, Note_on_c, 9, 59, 0
1, 96396, Note_on_c, 9, 44, 33
1, 96434, Note_on_c, 1, 54, 0
1, 96444, Note_on_c, 9, 59, 22
1, 96466, Note_on_c, 1, 50, 95
1, 96518, Note_on_c, 9, 44, 0
1, 96582, Note_on_c, 9, 59, 0
1, 96588, Pitch_bend_c, 1, 8192
1, 96594, Pitch_bend_c, 1, 8192
1, 96608, Pitch_bend_c, 1, 8192
1, 96616, Pitch_bend_c, 1, 8192
1, 96626, Pitch_bend_c, 1, 7680
1, 96636, Pitch_bend_c, 1, 7552
1, 96644, Note_on_c, 0, 67, 0
1, 96648, Pitch_bend_c, 1, 7424
1, 96662, Pitch_bend_c, 1, 7296
1, 96668, Pitch_bend_c, 1, 7168
1, 96678, Pitch_bend_c, 1, 7040
1, 96684, Pitch_bend_c, 1, 6912
1, 96694, Pitch_bend_c, 1, 6784
1, 96704, Pitch_bend_c, 1, 6656
1, 96712, Pitch_bend_c, 1, 6528
1, 96720, Pitch_bend_c, 1, 6272
1, 96728, Pitch_bend_c, 1, 6144
1, 96736, Pitch_bend_c, 1, 5888
1, 96744, Pitch_bend_c, 1, 5760
1, 96752, Pitch_bend_c, 1, 5504
1, 96764, Pitch_bend_c, 1, 5376
1, 96768, Note_on_c, 0, 72, 0
1, 96768, Pitch_bend_c, 1, 5120
1, 96774, Pitch_bend_c, 1, 4992
1, 96780, Pitch_bend_c, 1, 4864
1, 96790, Pitch_bend_c, 1, 4736
1, 96796, Note_on_c, 1, 50, 0
1, 96796, Pitch_bend_c, 1, 4608
1, 96806, Pitch_bend_c, 1, 4480
1, 96818, Pitch_bend_c, 1, 4352
1, 96838, Pitch_bend_c, 1, 4224
1, 96856, Pitch_bend_c, 1, 4096
1, 96860, Note_on_c, 0, 76, 0
1, 96870, Pitch_bend_c, 1, 3968
1, 96880, Pitch_bend_c, 1, 3840
1, 96888, Pitch_bend_c, 1, 3712
1, 96898, Pitch_bend_c, 1, 3584
1, 96904, Note_on_c, 0, 64, 0
1, 96912, Pitch_bend_c, 1, 3456
1, 96916, Note_on_c, 0, 60, 0
1, 96918, Pitch_bend_c, 1, 3328
1, 96928, Pitch_bend_c, 1, 3200
1, 96944, Pitch_bend_c, 1, 3072
1, 96956, Note_on_c, 0, 59, 0
1, 96984, Pitch_bend_c, 1, 3200
1, 96988, Note_on_c, 0, 55, 0
1, 96988, Pitch_bend_c, 1, 3328
1, 96992, Pitch_bend_c, 1, 3456
1, 96998, Pitch_bend_c, 1, 3584
1, 97000, Pitch_bend_c, 1, 3840
1, 97004, Pitch_bend_c, 1, 3968
1, 97008, Pitch_bend_c, 1, 4224
1, 97014, Pitch_bend_c, 1, 4352
1, 97016, Pitch_bend_c, 1, 4480
1, 97020, Pitch_bend_c, 1, 4608
1, 97026, Pitch_bend_c, 1, 4736
1, 97030, Pitch_bend_c, 1, 4864
1, 97032, Pitch_bend_c, 1, 4992
1, 97040, Pitch_bend_c, 1, 5120
1, 97042, Pitch_bend_c, 1, 5376
1, 97048, Pitch_bend_c, 1, 5632
1, 97056, Pitch_bend_c, 1, 5760
1, 97058, Pitch_bend_c, 1, 5888
1, 97062, Pitch_bend_c, 1, 6144
1, 97064, Pitch_bend_c, 1, 6272
1, 97072, Pitch_bend_c, 1, 6528
1, 97074, Pitch_bend_c, 1, 6656
1, 97078, Pitch_bend_c, 1, 6912
1, 97084, Pitch_bend_c, 1, 7040
1, 97088, Pitch_bend_c, 1, 7296
1, 97090, Pitch_bend_c, 1, 7424
1, 97094, Pitch_bend_c, 1, 7552
1, 97100, Pitch_bend_c, 1, 7680
1, 97104, Pitch_bend_c, 1, 8192
1, 97110, Pitch_bend_c, 1, 8192
1, 97116, Pitch_bend_c, 1, 8192
1, 97122, Pitch_bend_c, 1, 8192
1, 97250, Note_on_c, 9, 38, 3
1, 97430, Note_on_c, 9, 38, 0
1, 97536, Note_on_c, 9, 44, 40
1, 97564, Note_on_c, 9, 53, 34
1, 97568, Note_on_c, 9, 59, 40
1, 97670, Note_on_c, 9, 44, 0
1, 97688, Note_on_c, 9, 53, 0
1, 97736, Note_on_c, 9, 59, 0
1, 97748, Control_c, 0, 64, 127
1, 97766, Note_on_c, 1, 50, 116
1, 97820, Note_on_c, 9, 59, 29
1, 97830, Note_on_c, 9, 38, 30
1, 97874, Note_on_c, 1, 50, 0
1, 97920, Note_on_c, 1, 47, 104
1, 97926, Note_on_c, 9, 38, 0
1, 97932, Note_on_c, 9, 46, 41
1, 97942, Note_on_c, 9, 59, 0
1, 97974, Note_on_c, 9, 38, 13
1, 98000, Note_on_c, 1, 47, 0
1, 98034, Note_on_c, 1, 47, 98
1, 98040, Note_on_c, 9, 46, 0
1, 98054, Note_on_c, 9, 53, 28
1, 98056, Note_on_c, 9, 59, 37
1, 98112, Note_on_c, 1, 47, 0
1, 98130, Note_on_c, 1, 45, 89
1, 98160, Note_on_c, 9, 38, 0
1, 98160, Note_on_c, 9, 53, 0
1, 98176, Note_on_c, 0, 64, 56
1, 98176, Note_on_c, 0, 54, 51
1, 98180, Note_on_c, 0, 98, 72
1, 98184, Note_on_c, 1, 45, 0
1, 98188, Note_on_c, 0, 60, 46
1, 98188, Note_on_c, 0, 86, 57
1, 98192, Note_on_c, 9, 59, 0
1, 98220, Note_on_c, 0, 60, 0
1, 98242, Note_on_c, 1, 45, 77
1, 98248, Note_on_c, 0, 64, 0
1, 98276, Note_on_c, 0, 86, 0
1, 98296, Note_on_c, 9, 59, 28
1, 98304, Note_on_c, 0, 98, 0
1, 98312, Note_on_c, 1, 45, 0
1, 98320, Control_c, 0, 64, 0
1, 98372, Note_on_c, 0, 86, 43
1, 98376, Note_on_c, 0, 62, 48
1, 98376, Note_on_c, 0, 95, 60
1, 98380, Note_on_c, 0, 59, 43
1, 98380, Note_on_c, 1, 43, 77
1, 98396, Note_on_c, 0, 57, 48
1, 98492, Note_on_c, 9, 59, 0
1, 98548, Control_c, 0, 64, 127
1, 98674, Note_on_c, 9, 44, 41
1, 98700, Note_on_c, 9, 59, 24
1, 98720, Note_on_c, 0, 59, 0
1, 98724, Note_on_c, 0, 57, 0
1, 98732, Note_on_c, 0, 54, 0
1, 98784, Note_on_c, 9, 44, 0
1, 98834, Note_on_c, 9, 59, 0
1, 98836, Note_on_c, 0, 86, 0
1, 98836, Note_on_c, 0, 62, 0
1, 98852, Note_on_c, 0, 95, 0
1, 98964, Control_c, 0, 64, 0
1, 98996, Note_on_c, 0, 95, 56
1, 99004, Note_on_c, 0, 86, 46
1, 99004, Note_on_c, 0, 62, 48
1, 99004, Note_on_c, 0, 59, 46
1, 99016, Note_on_c, 0, 54, 45
1, 99020, Note_on_c, 0, 57, 43
1, 99072, Control_c, 0, 64, 127
1, 99192, Note_on_c, 1, 43, 0
1, 99196, Note_on_c, 0, 95, 0
1, 99228, Note_on_c, 0, 59, 0
1, 99238, Note_on_c, 1, 45, 89
1, 99268, Note_on_c, 0, 57, 0
1, 99272, Note_on_c, 0, 86, 0
1, 99276, Note_on_c, 0, 54, 0
1, 99286, Note_on_c, 1, 45, 0
1, 99308, Note_on_c, 0, 62, 0
1, 99308, Note_on_c, 9, 59, 27
1, 99372, Note_on_c, 1, 47, 87
1, 99378, Note_on_c, 9, 59, 0
1, 99436, Note_on_c, 1, 47, 0
1, 99446, Note_on_c, 9, 59, 26
1, 99532, Note_on_c, 9, 59, 0
1, 99564, Note_on_c, 1, 52, 113
1, 99672, Note_on_c, 1, 52, 0
1, 99682, Note_on_c, 1, 51, 65
1, 99782, Note_on_c, 1, 51, 0
1, 99808, Note_on_c, 1, 52, 97
1, 99824, Note_on_c, 1, 51, 56
1, 99842, Note_on_c, 1, 51, 0
1, 99868, Note_on_c, 9, 44, 30
1, 99968, Note_on_c, 9, 44, 0
1, 100070, Note_on_c, 9, 59, 30
1, 100144, Note_on_c, 9, 59, 0
1, 100162, Note_on_c, 1, 50, 71
1, 100192, Note_on_c, 1, 52, 0
1, 100216, Note_on_c, 9, 59, 33
1, 100236, Note_on_c, 1, 50, 0
1, 100242, Note_on_c, 9, 44, 29
1, 100262, Note_on_c, 9, 59, 0
1, 100290, Note_on_c, 1, 48, 40
1, 100322, Note_on_c, 1, 48, 0
1, 100364, Note_on_c, 1, 50, 93
1, 100392, Note_on_c, 9, 44, 0
1, 100556, Note_on_c, 1, 50, 0
1, 100562, Note_on_c, 1, 47, 75
1, 100576, Control_c, 0, 64, 0
1, 100648, Note_on_c, 0, 69, 46
1, 100656, Note_on_c, 0, 79, 49
1, 100658, Note_on_c, 1, 47, 0
1, 100664, Note_on_c, 0, 74, 52
1, 100664, Note_on_c, 0, 64, 49
1, 100720, Note_on_c, 1, 43, 60
1, 100828, Note_on_c, 0, 69, 0
1, 100832, Note_on_c, 0, 74, 0
1, 100844, Note_on_c, 0, 79, 0
1, 100866, Note_on_c, 1, 43, 0
1, 100872, Note_on_c, 0, 64, 0
1, 100918, Note_on_c, 1, 43, 82
1, 100984, Note_on_c, 9, 44, 36
1, 101020, Note_on_c, 0, 78, 63
1, 101036, Note_on_c, 0, 68, 43
1, 101044, Note_on_c, 0, 63, 45
1, 101060, Note_on_c, 0, 73, 39
1, 101128, Note_on_c, 9, 44, 0
1, 101200, Note_on_c, 0, 68, 0
1, 101216, Note_on_c, 0, 73, 0
1, 101248, Note_on_c, 0, 78, 0
1, 101266, Note_on_c, 9, 59, 25
1, 101280, Note_on_c, 0, 74, 61
1, 101284, Note_on_c, 0, 69, 52
1, 101288, Note_on_c, 0, 63, 0
1, 101288, Note_on_c, 0, 64, 56
1, 101300, Note_on_c, 0, 79, 42
1, 101312, Note_on_c, 0, 69, 0
1, 101332, Note_on_c, 0, 64, 0
1, 101332, Note_on_c, 0, 74, 0
1, 101334, Note_on_c, 9, 59, 0
1, 101336, Note_on_c, 0, 79, 0
1, 101404, Note_on_c, 9, 59, 25
1, 101446, Note_on_c, 9, 59, 0
1, 101490, Note_on_c, 9, 38, 13
1, 101574, Note_on_c, 9, 38, 0
1, 101654, Note_on_c, 9, 59, 45
1, 101704, Note_on_c, 9, 59, 0
1, 101714, Note_on_c, 1, 43, 0
1, 101760, Note_on_c, 0, 86, 62
1, 101764, Note_on_c, 0, 67, 47
1, 101768, Note_on_c, 0, 74, 48
1, 101768, Note_on_c, 0, 79, 53
1, 101776, Note_on_c, 0, 63, 42
1, 101776, Note_on_c, 0, 57, 48
1, 101776, Note_on_c, 0, 62, 36
1, 101782, Note_on_c, 9, 59, 27
1, 101848, Note_on_c, 9, 59, 0
1, 101872, Control_c, 0, 64, 127
1, 102006, Note_on_c, 9, 38, 27
1, 102064, Note_on_c, 9, 38, 0
1, 102136, Note_on_c, 9, 44, 37
1, 102156, Note_on_c, 0, 67, 0
1, 102166, Note_on_c, 9, 38, 20
1, 102176, Note_on_c, 0, 63, 0
1, 102188, Note_on_c, 0, 79, 0
1, 102200, Note_on_c, 0, 57, 0
1, 102208, Note_on_c, 0, 74, 0
1, 102216, Note_on_c, 0, 62, 0
1, 102262, Note_on_c, 9, 44, 0
1, 102284, Note_on_c, 0, 86, 0
1, 102290, Note_on_c, 9, 38, 0
1, 102546, Note_on_c, 1, 45, 127
1, 102694, Note_on_c, 1, 45, 0
1, 102770, Note_on_c, 9, 38, 30
1, 102784, Note_on_c, 0, 83, 63
1, 102784, Note_on_c, 0, 75, 64
1, 102784, Note_on_c, 1, 46, 109
1, 102792, Note_on_c, 9, 59, 37
1, 102812, Control_c, 0, 64, 0
1, 102828, Note_on_c, 9, 59, 0
1, 102866, Note_on_c, 9, 38, 0
1, 102900, Note_on_c, 0, 83, 0
1, 102920, Note_on_c, 1, 46, 0
1, 102930, Note_on_c, 9, 59, 36
1, 102950, Note_on_c, 9, 38, 17
1, 102952, Note_on_c, 0, 80, 52
1, 102956, Note_on_c, 0, 71, 48
1, 102966, Note_on_c, 1, 47, 69
1, 102968, Note_on_c, 0, 52, 39
1, 102968, Note_on_c, 0, 63, 33
1, 102968, Note_on_c, 0, 59, 40
1, 102988, Note_on_c, 0, 56, 38
1, 103024, Note_on_c, 9, 59, 0
1, 103048, Note_on_c, 9, 38, 0
1, 103276, Note_on_c, 9, 44, 41
1, 103308, Control_c, 0, 64, 127
1, 103384, Note_on_c, 9, 44, 0
1, 103464, Note_on_c, 1, 47, 0
1, 103536, Note_on_c, 1, 39, 67
1, 103558, Note_on_c, 9, 38, 25
1, 103576, Note_on_c, 0, 63, 0
1, 103576, Note_on_c, 0, 59, 0
1, 103612, Note_on_c, 9, 38, 0
1, 103632, Note_on_c, 0, 52, 0
1, 103640, Note_on_c, 0, 56, 0
1, 103644, Note_on_c, 1, 39, 0
1, 103652, Note_on_c, 0, 75, 0
1, 103664, Note_on_c, 0, 80, 0
1, 103686, Note_on_c, 1, 40, 62
1, 103686, Note_on_c, 9, 46, 39
1, 103688, Note_on_c, 0, 71, 0
1, 103704, Note_on_c, 9, 38, 16
1, 103792, Note_on_c, 1, 40, 0
1, 103814, Note_on_c, 1, 44, 69
1, 103840, Note_on_c, 9, 46, 0
1, 103862, Note_on_c, 9, 38, 0
1, 103894, Note_on_c, 1, 44, 0
1, 103926, Note_on_c, 1, 47, 98
1, 103926, Note_on_c, 9, 59, 31
1, 103976, Note_on_c, 9, 59, 0
1, 104038, Note_on_c, 9, 59, 26
1, 104120, Note_on_c, 9, 59, 0
1, 104156, Note_on_c, 9, 59, 30
1, 104178, Note_on_c, 9, 59, 0
1, 104262, Note_on_c, 1, 47, 0
1, 104278, Note_on_c, 9, 59, 49
1, 104280, Note_on_c, 1, 52, 110
1, 104428, Note_on_c, 9, 44, 43
1, 104440, Control_c, 0, 64, 0
1, 104464, Note_on_c, 0, 64, 58
1, 104464, Note_on_c, 0, 49, 52
1, 104468, Note_on_c, 0, 68, 56
1, 104472, Note_on_c, 0, 59, 45
1, 104476, Note_on_c, 9, 59, 0
1, 104496, Note_on_c, 1, 52, 0
1, 104528, Note_on_c, 1, 49, 104
1, 104546, Note_on_c, 9, 44, 0
1, 104576, Control_c, 0, 64, 127
1, 104742, Note_on_c, 1, 49, 0
1, 104786, Note_on_c, 1, 47, 81
1, 104796, Note_on_c, 0, 49, 0
1, 104804, Note_on_c, 0, 64, 0
1, 104820, Note_on_c, 0, 59, 0
1, 104936, Note_on_c, 0, 68, 0
1, 105016, Note_on_c, 1, 47, 0
1, 105056, Note_on_c, 1, 40, 50
1, 105058, Note_on_c, 9, 59, 34
1, 105116, Note_on_c, 9, 59, 0
1, 105190, Note_on_c, 9, 59, 27
1, 105216, Note_on_c, 1, 40, 0
1, 105216, Note_on_c, 1, 47, 87
1, 105292, Note_on_c, 9, 59, 0
1, 105456, Note_on_c, 1, 47, 0
1, 105468, Note_on_c, 1, 40, 68
1, 105484, Control_c, 0, 64, 0
1, 105588, Note_on_c, 0, 64, 56
1, 105592, Note_on_c, 9, 44, 37
1, 105596, Note_on_c, 0, 69, 55
1, 105600, Note_on_c, 1, 40, 0
1, 105604, Note_on_c, 0, 54, 45
1, 105612, Note_on_c, 0, 60, 39
1, 105640, Note_on_c, 1, 39, 50
1, 105728, Note_on_c, 9, 44, 0
1, 105744, Note_on_c, 0, 64, 0
1, 105752, Note_on_c, 0, 54, 0
1, 105760, Note_on_c, 0, 69, 0
1, 105768, Note_on_c, 0, 60, 0
1, 105846, Note_on_c, 1, 39, 0
1, 105852, Note_on_c, 0, 69, 49
1, 105852, Note_on_c, 9, 59, 27
1, 105860, Note_on_c, 0, 64, 48
1, 105868, Note_on_c, 1, 40, 71
1, 105880, Note_on_c, 9, 59, 0
1, 105880, Note_on_c, 0, 54, 43
1, 105880, Note_on_c, 0, 60, 39
1, 105936, Note_on_c, 0, 64, 0
1, 105940, Note_on_c, 0, 60, 0
1, 105952, Note_on_c, 0, 69, 0
1, 105960, Note_on_c, 0, 54, 0
1, 105990, Note_on_c, 9, 44, 40
1, 106096, Note_on_c, 0, 69, 49
1, 106104, Note_on_c, 9, 44, 0
1, 106108, Note_on_c, 0, 64, 39
1, 106108, Note_on_c, 0, 54, 42
1, 106116, Note_on_c, 0, 60, 39
1, 106156, Note_on_c, 0, 60, 0
1, 106180, Note_on_c, 0, 64, 0
1, 106204, Note_on_c, 0, 54, 0
1, 106216, Note_on_c, 0, 69, 0
1, 106312, Note_on_c, 1, 40, 0
1, 106616, Note_on_c, 0, 62, 47
1, 106624, Note_on_c, 0, 67, 50
1, 106624, Note_on_c, 0, 71, 55
1, 106652, Note_on_c, 0, 57, 28
1, 106660, Note_on_c, 0, 51, 32
1, 106664, Note_on_c, 0, 47, 38
1, 106748, Note_on_c, 9, 37, 45
1, 106754, Note_on_c, 9, 44, 35
1, 106780, Note_on_c, 9, 59, 37
1, 106808, Note_on_c, 9, 59, 0
1, 106882, Note_on_c, 9, 59, 34
1, 106888, Note_on_c, 9, 44, 0
1, 106904, Note_on_c, 9, 59, 0
1, 106976, Note_on_c, 9, 37, 0
1, 106992, Note_on_c, 1, 47, 127
1, 107020, Control_c, 0, 64, 127
1, 107120, Note_on_c, 9, 37, 46
1, 107132, Note_on_c, 0, 67, 0
1, 107132, Note_on_c, 0, 71, 0
1, 107142, Note_on_c, 9, 59, 36
1, 107158, Note_on_c, 1, 47, 0
1, 107176, Note_on_c, 1, 47, 94
1, 107186, Note_on_c, 9, 59, 0
1, 107192, Note_on_c, 0, 57, 0
1, 107204, Note_on_c, 0, 62, 0
1, 107204, Note_on_c, 0, 51, 0
1, 107232, Note_on_c, 9, 59, 38
1, 107282, Note_on_c, 9, 59, 0
1, 107292, Note_on_c, 9, 37, 0
1, 107308, Note_on_c, 0, 47, 0
1, 107376, Note_on_c, 0, 51, 42
1, 107394, Note_on_c, 9, 38, 30
1, 107404, Note_on_c, 1, 47, 0
1, 107420, Note_on_c, 1, 45, 95
1, 107424, Control_c, 0, 64, 0
1, 107436, Note_on_c, 9, 38, 0
1, 107512, Note_on_c, 0, 51, 0
1, 107528, Note_on_c, 0, 66, 61
1, 107528, Note_on_c, 0, 59, 72
1, 107528, Note_on_c, 0, 69, 73
1, 107532, Note_on_c, 0, 62, 68
1, 107532, Note_on_c, 9, 59, 36
1, 107542, Note_on_c, 9, 38, 22
1, 107544, Note_on_c, 0, 57, 77
1, 107568, Note_on_c, 9, 59, 0
1, 107580, Note_on_c, 1, 45, 0
1, 107634, Note_on_c, 1, 43, 75
1, 107734, Note_on_c, 9, 38, 0
1, 107766, Note_on_c, 1, 43, 0
1, 107800, Note_on_c, 1, 43, 92
1, 107808, Note_on_c, 9, 38, 40
1, 107828, Note_on_c, 0, 59, 0
1, 107860, Note_on_c, 0, 62, 0
1, 107864, Note_on_c, 0, 69, 0
1, 107906, Note_on_c, 9, 44, 37
1, 107920, Note_on_c, 0, 59, 42
1, 107926, Note_on_c, 1, 43, 0
1, 107932, Note_on_c, 0, 57, 0
1, 107936, Note_on_c, 0, 67, 46
1, 107940, Note_on_c, 0, 55, 46
1, 107952, Note_on_c, 1, 45, 100
1, 107976, Note_on_c, 9, 38, 0
1, 108032, Note_on_c, 1, 45, 0
1, 108048, Note_on_c, 9, 44, 0
1, 108066, Note_on_c, 1, 45, 92
1, 108080, Note_on_c, 0, 59, 0
1, 108108, Note_on_c, 0, 66, 0
1, 108108, Note_on_c, 0, 67, 0
1, 108150, Note_on_c, 1, 45, 0
1, 108184, Note_on_c, 0, 59, 54
1, 108192, Note_on_c, 0, 69, 50
1, 108196, Note_on_c, 0, 66, 48
1, 108200, Note_on_c, 1, 47, 105
1, 108204, Note_on_c, 0, 57, 56
1, 108204, Note_on_c, 0, 62, 48
1, 108212, Note_on_c, 0, 59, 0
1, 108220, Note_on_c, 0, 55, 0
1, 108232, Note_on_c, 0, 62, 0
1, 108236, Note_on_c, 0, 69, 0
1, 108248, Note_on_c, 0, 66, 0
1, 108256, Note_on_c, 0, 57, 0
1, 108290, Note_on_c, 1, 47, 0
1, 108328, Note_on_c, 1, 47, 93
1, 108376, Note_on_c, 1, 47, 0
1, 108472, Note_on_c, 1, 57, 113
1, 108544, Note_on_c, 9, 53, 25
1, 108546, Note_on_c, 9, 59, 26
1, 108582, Note_on_c, 1, 57, 0
1, 108614, Note_on_c, 9, 59, 0
1, 108614, Note_on_c, 9, 53, 0
1, 108616, Note_on_c, 1, 57, 100
1, 108684, Control_c, 0, 64, 24
1, 108684, Control_c, 0, 64, 127
1, 108704, Note_on_c, 1, 57, 0
1, 108704, Note_on_c, 9, 59, 18
1, 108704, Note_on_c, 9, 53, 15
1, 108780, Note_on_c, 1, 57, 93
1, 108800, Note_on_c, 9, 53, 0
1, 108812, Note_on_c, 9, 59, 0
1, 108918, Note_on_c, 1, 57, 0
1, 109062, Note_on_c, 9, 59, 22
1, 109072, Note_on_c, 9, 53, 14
1, 109074, Note_on_c, 9, 44, 38
1, 109160, Note_on_c, 9, 38, 31
1, 109196, Note_on_c, 9, 53, 0
1, 109212, Note_on_c, 9, 59, 0
1, 109232, Note_on_c, 9, 38, 0
1, 109238, Note_on_c, 1, 55, 117
1, 109254, Note_on_c, 9, 44, 0
1, 109292, Pitch_bend_c, 1, 8192
1, 109298, Pitch_bend_c, 1, 8192
1, 109308, Pitch_bend_c, 1, 8192
1, 109320, Pitch_bend_c, 1, 7680
1, 109328, Note_on_c, 9, 38, 18
1, 109330, Pitch_bend_c, 1, 7552
1, 109340, Pitch_bend_c, 1, 7424
1, 109350, Pitch_bend_c, 1, 7296
1, 109356, Pitch_bend_c, 1, 7168
1, 109360, Pitch_bend_c, 1, 7040
1, 109368, Note_on_c, 9, 38, 0
1, 109372, Pitch_bend_c, 1, 6912
1, 109378, Pitch_bend_c, 1, 6784
1, 109388, Pitch_bend_c, 1, 6656
1, 109398, Pitch_bend_c, 1, 6528
1, 109408, Pitch_bend_c, 1, 6400
1, 109420, Pitch_bend_c, 1, 6272
1, 109436, Note_on_c, 1, 55, 0
1, 109442, Note_on_c, 9, 59, 26
1, 109446, Note_on_c, 9, 53, 18
1, 109468, Pitch_bend_c, 1, 6400
1, 109474, Pitch_bend_c, 1, 6528
1, 109480, Pitch_bend_c, 1, 6656
1, 109488, Pitch_bend_c, 1, 6784
1, 109496, Pitch_bend_c, 1, 7040
1, 109500, Pitch_bend_c, 1, 7168
1, 109504, Pitch_bend_c, 1, 7296
1, 109510, Pitch_bend_c, 1, 7424
1, 109512, Pitch_bend_c, 1, 7680
1, 109516, Pitch_bend_c, 1, 8192
1, 109520, Pitch_bend_c, 1, 8192
1, 109526, Note_on_c, 9, 53, 0
1, 109526, Pitch_bend_c, 1, 8192
1, 109532, Pitch_bend_c, 1, 8192
1, 109568, Note_on_c, 9, 59, 0
1, 109730, Note_on_c, 1, 45, 81
1, 109888, Note_on_c, 1, 45, 0
1, 109938, Note_on_c, 1, 45, 72
1, 110098, Note_on_c, 1, 44, 63
1, 110102, Note_on_c, 1, 45, 0
1, 110150, Note_on_c, 9, 44, 37
1, 110184, Note_on_c, 1, 44, 0
1, 110210, Note_on_c, 9, 53, 20
1, 110216, Note_on_c, 9, 59, 19
1, 110226, Note_on_c, 1, 45, 61
1, 110284, Note_on_c, 0, 79, 57
1, 110296, Note_on_c, 0, 91, 46
1, 110300, Note_on_c, 0, 88, 49
1, 110304, Note_on_c, 0, 64, 38
1, 110306, Note_on_c, 9, 44, 0
1, 110312, Note_on_c, 0, 60, 39
1, 110324, Note_on_c, 0, 57, 48
1, 110332, Note_on_c, 0, 55, 38
1, 110352, Note_on_c, 9, 53, 0
1, 110392, Note_on_c, 0, 79, 0
1, 110400, Note_on_c, 0, 64, 0
1, 110400, Note_on_c, 9, 59, 0
1, 110404, Note_on_c, 0, 60, 0
1, 110432, Note_on_c, 0, 55, 0
1, 110460, Note_on_c, 0, 88, 0
1, 110468, Note_on_c, 0, 57, 0
1, 110472, Note_on_c, 0, 91, 0
1, 110482, Note_on_c, 9, 38, 22
1, 110534, Note_on_c, 9, 38, 0
1, 110598, Note_on_c, 9, 59, 27
1, 110598, Note_on_c, 9, 53, 28
1, 110616, Note_on_c, 9, 44, 22
1, 110630, Note_on_c, 9, 38, 21
1, 110662, Note_on_c, 9, 53, 0
1, 110678, Note_on_c, 1, 45, 0
1, 110694, Note_on_c, 9, 59, 0
1, 110716, Note_on_c, 9, 38, 0
1, 110732, Note_on_c, 9, 44, 0
1, 110738, Note_on_c, 1, 43, 38
1, 110776, Note_on_c, 1, 43, 0
1, 110840, Note_on_c, 1, 45, 68
1, 110940, Note_on_c, 1, 45, 0
1, 110962, Note_on_c, 1, 46, 98
1, 111196, Note_on_c, 9, 38, 34
1, 111244, Note_on_c, 9, 38, 0
1, 111292, Control_c, 0, 64, 0
1, 111318, Note_on_c, 9, 46, 45
1, 111346, Note_on_c, 9, 38, 25
1, 111348, Note_on_c, 0, 94, 68
1, 111348, Note_on_c, 0, 54, 54
1, 111350, Note_on_c, 1, 46, 0
1, 111350, Note_on_c, 9, 59, 25
1, 111352, Note_on_c, 0, 87, 65
1, 111352, Note_on_c, 0, 82, 61
1, 111352, Note_on_c, 0, 64, 52
1, 111352, Note_on_c, 0, 60, 51
1, 111352, Note_on_c, 9, 53, 21
1, 111360, Note_on_c, 9, 44, 27
1, 111372, Note_on_c, 1, 45, 51
1, 111396, Control_c, 0, 64, 127
1, 111426, Note_on_c, 9, 46, 0
1, 111458, Note_on_c, 9, 53, 0
1, 111478, Note_on_c, 9, 59, 0
1, 111478, Note_on_c, 1, 45, 0
1, 111488, Note_on_c, 1, 46, 81
1, 111490, Note_on_c, 9, 38, 0
1, 111504, Note_on_c, 9, 44, 0
1, 111512, Note_on_c, 0, 64, 0
1, 111524, Note_on_c, 0, 87, 0
1, 111532, Note_on_c, 0, 54, 0
1, 111540, Note_on_c, 0, 82, 0
1, 111548, Note_on_c, 0, 94, 0
1, 111552, Note_on_c, 0, 60, 0
1, 111584, Note_on_c, 1, 46, 0
1, 111600, Note_on_c, 0, 95, 74
1, 111604, Note_on_c, 0, 54, 64
1, 111604, Note_on_c, 0, 83, 66
1, 111606, Note_on_c, 1, 47, 88
1, 111608, Note_on_c, 0, 88, 76
1, 111612, Note_on_c, 0, 64, 66
1, 111620, Note_on_c, 0, 60, 73
1, 111672, Note_on_c, 0, 83, 0
1, 111688, Note_on_c, 0, 88, 0
1, 111688, Note_on_c, 0, 95, 0
1, 111692, Note_on_c, 0, 64, 0
1, 111700, Note_on_c, 0, 54, 0
1, 111708, Note_on_c, 0, 60, 0
1, 111728, Note_on_c, 1, 47, 0
1, 111750, Note_on_c, 1, 50, 70
1, 111750, Note_on_c, 9, 59, 25
1, 111752, Note_on_c, 0, 96, 92
1, 111752, Note_on_c, 0, 54, 67
1, 111752, Note_on_c, 0, 84, 79
1, 111752, Note_on_c, 9, 53, 15
1, 111756, Note_on_c, 0, 64, 66
1, 111756, Note_on_c, 9, 44, 19
1, 111764, Note_on_c, 0, 60, 69
1, 111768, Note_on_c, 0, 90, 61
1, 111792, Note_on_c, 0, 90, 0
1, 111794, Note_on_c, 9, 53, 0
1, 111824, Note_on_c, 9, 59, 0
1, 111826, Note_on_c, 1, 50, 0
1, 111826, Note_on_c, 9, 44, 0
1, 111844, Note_on_c, 0, 84, 0
1, 111856, Note_on_c, 0, 96, 0
1, 111862, Note_on_c, 1, 54, 98
1, 111868, Note_on_c, 0, 54, 0
1, 111876, Note_on_c, 0, 64, 0
1, 111908, Note_on_c, 0, 60, 0
1, 111952, Note_on_c, 1, 54, 0
1, 111972, Note_on_c, 0, 54, 81
1, 111976, Note_on_c, 0, 64, 63
1, 111984, Note_on_c, 0, 60, 54
1, 111984, Note_on_c, 0, 97, 83
1, 111984, Note_on_c, 0, 92, 75
1, 111984, Note_on_c, 1, 57, 115
1, 111988, Note_on_c, 0, 85, 78
1, 111996, Note_on_c, 9, 38, 22
1, 112000, Note_on_c, 0, 58, 44
1, 112008, Note_on_c, 0, 60, 0
1, 112032, Note_on_c, 0, 58, 0
1, 112032, Note_on_c, 0, 64, 0
1, 112048, Note_on_c, 0, 92, 0
1, 112048, Note_on_c, 9, 38, 0
1, 112080, Note_on_c, 0, 85, 0
1, 112082, Note_on_c, 1, 57, 0
1, 112084, Note_on_c, 0, 97, 0
1, 112118, Note_on_c, 1, 54, 92
1, 112120, Note_on_c, 0, 62, 64
1, 112124, Control_c, 0, 64, 0
1, 112128, Note_on_c, 0, 59, 60
1, 112140, Note_on_c, 0, 91, 68
1, 112140, Note_on_c, 0, 98, 77
1, 112140, Note_on_c, 0, 86, 70
1, 112140, Note_on_c, 0, 57, 73
1, 112156, Note_on_c, 9, 38, 27
1, 112230, Note_on_c, 1, 50, 78
1, 112240, Note_on_c, 1, 54, 0
1, 112272, Note_on_c, 9, 38, 0
1, 112296, Note_on_c, 1, 50, 0
1, 112342, Note_on_c, 1, 47, 66
1, 112412, Note_on_c, 1, 47, 0
1, 112454, Note_on_c, 1, 42, 67
1, 112488, Note_on_c, 9, 44, 47
1, 112504, Note_on_c, 9, 44, 30
1, 112508, Control_c, 0, 64, 127
1, 112524, Note_on_c, 1, 42, 0
1, 112594, Note_on_c, 1, 38, 74
1, 112626, Note_on_c, 9, 44, 0
1, 112640, Note_on_c, 9, 44, 0
1, 112786, Note_on_c, 1, 38, 0
1, 112832, Note_on_c, 0, 98, 0
1, 112848, Note_on_c, 0, 91, 0
1, 112886, Note_on_c, 9, 44, 45
1, 112888, Note_on_c, 0, 57, 0
1, 112888, Note_on_c, 0, 59, 0
1, 112896, Note_on_c, 0, 62, 0
1, 112898, Note_on_c, 0, 86, 0
1, 112898, Note_on_c, 9, 44, 32
1, 112952, Note_on_c, 0, 54, 0
1, 112988, Note_on_c, 9, 44, 0
1, 113016, Control_c, 0, 64, 0
1, 113120, Note_on_c, 9, 44, 0
1, 113142, Note_on_c, 1, 39, 90
1, 113152, Note_on_c, 9, 59, 31
1, 113234, Note_on_c, 1, 39, 0
1, 113240, Note_on_c, 9, 59, 0
1, 113256, Note_on_c, 1, 40, 73
1, 113296, Note_on_c, 9, 59, 36
1, 113346, Note_on_c, 1, 40, 0
1, 113356, Note_on_c, 1, 42, 83
1, 113368, Note_on_c, 9, 59, 0
1, 113426, Note_on_c, 1, 42, 0
1, 113452, Note_on_c, 1, 43, 69
1, 113510, Note_on_c, 9, 38, 24
1, 113526, Note_on_c, 9, 44, 22
1, 113532, Note_on_c, 0, 81, 52
1, 113540, Note_on_c, 0, 74, 50
1, 113548, Note_on_c, 0, 69, 31
1, 113548, Note_on_c, 0, 78, 48
1, 113552, Note_on_c, 0, 62, 32
1, 113556, Note_on_c, 0, 59, 37
1, 113558, Note_on_c, 1, 45, 95
1, 113564, Note_on_c, 0, 52, 37
1, 113576, Note_on_c, 1, 43, 0
1, 113584, Note_on_c, 0, 78, 0
1, 113586, Note_on_c, 9, 44, 0
1, 113604, Note_on_c, 0, 69, 0
1, 113612, Note_on_c, 0, 74, 0
1, 113612, Note_on_c, 9, 38, 0
1, 113616, Note_on_c, 0, 62, 0
1, 113624, Note_on_c, 0, 52, 0
1, 113628, Note_on_c, 0, 59, 0
1, 113634, Note_on_c, 1, 45, 0
1, 113644, Note_on_c, 0, 81, 0
1, 113656, Note_on_c, 9, 44, 18
1, 113656, Note_on_c, 9, 44, 45
1, 113664, Note_on_c, 1, 46, 72
1, 113712, Note_on_c, 1, 46, 0
1, 113752, Note_on_c, 1, 47, 74
1, 113756, Note_on_c, 9, 44, 0
1, 113784, Note_on_c, 0, 81, 56
1, 113800, Note_on_c, 0, 78, 44
1, 113800, Note_on_c, 0, 74, 50
1, 113800, Note_on_c, 0, 62, 48
1, 113804, Note_on_c, 9, 44, 0
1, 113804, Note_on_c, 0, 69, 39
1, 113812, Note_on_c, 0, 59, 43
1, 113824, Note_on_c, 0, 52, 34
1, 113826, Note_on_c, 1, 47, 0
1, 113842, Note_on_c, 1, 50, 72
1, 113856, Note_on_c, 0, 69, 0
1, 113864, Note_on_c, 0, 52, 0
1, 113864, Note_on_c, 0, 59, 0
1, 113868, Note_on_c, 0, 62, 0
1, 113876, Note_on_c, 0, 74, 0
1, 113880, Note_on_c, 0, 81, 0
1, 113884, Note_on_c, 0, 78, 0
1, 113910, Note_on_c, 1, 50, 0
1, 113992, Control_c, 0, 64, 127
1, 114052, Note_on_c, 0, 81, 50
1, 114060, Note_on_c, 0, 74, 48
1, 114064, Note_on_c, 0, 78, 45
1, 114064, Note_on_c, 0, 59, 40
1, 114064, Note_on_c, 0, 62, 38
1, 114064, Note_on_c, 0, 69, 31
1, 114072, Note_on_c, 0, 52, 37
1, 114184, Note_on_c, 0, 69, 0
1, 114192, Note_on_c, 0, 78, 0
1, 114204, Note_on_c, 0, 52, 0
1, 114212, Note_on_c, 0, 81, 0
1, 114224, Note_on_c, 0, 59, 0
1, 114232, Note_on_c, 0, 74, 0
1, 114268, Note_on_c, 0, 62, 0
1, 114304, Note_on_c, 0, 79, 54
1, 114304, Note_on_c, 9, 59, 21
1, 114308, Control_c, 0, 64, 0
1, 114348, Note_on_c, 9, 59, 0
1, 114356, Note_on_c, 0, 79, 0
1, 114424, Note_on_c, 9, 59, 43
1, 114588, Note_on_c, 9, 59, 0
1, 114610, Note_on_c, 1, 55, 93
1, 114658, Note_on_c, 1, 55, 0
1, 114676, Note_on_c, 0, 72, 49
1, 114680, Note_on_c, 0, 83, 48
1, 114684, Note_on_c, 0, 76, 52
1, 114688, Note_on_c, 0, 79, 50
1, 114688, Note_on_c, 0, 64, 39
1, 114696, Note_on_c, 0, 60, 43
1, 114708, Note_on_c, 0, 59, 43
1, 114712, Note_on_c, 0, 55, 33
1, 114720, Note_on_c, 1, 59, 113
1, 114784, Note_on_c, 9, 44, 49
1, 114816, Note_on_c, 1, 59, 0
1, 114864, Note_on_c, 1, 62, 120
1, 114904, Note_on_c, 9, 44, 0
1, 114924, Control_c, 0, 64, 127
1, 114952, Note_on_c, 9, 59, 26
1, 114960, Note_on_c, 1, 62, 0
1, 114982, Note_on_c, 1, 61, 99
1, 114992, Note_on_c, 9, 59, 0
1, 115056, Note_on_c, 1, 61, 0
1, 115078, Note_on_c, 9, 59, 31
1, 115090, Note_on_c, 1, 60, 100
1, 115136, Note_on_c, 9, 59, 0
1, 115158, Note_on_c, 9, 44, 45
1, 115168, Note_on_c, 0, 72, 0
1, 115176, Note_on_c, 0, 64, 0
1, 115184, Note_on_c, 0, 60, 0
1, 115200, Note_on_c, 9, 59, 46
1, 115206, Note_on_c, 1, 60, 0
1, 115208, Note_on_c, 0, 76, 0
1, 115212, Note_on_c, 1, 56, 58
1, 115220, Note_on_c, 0, 59, 0
1, 115228, Note_on_c, 0, 79, 0
1, 115232, Note_on_c, 0, 55, 0
1, 115236, Note_on_c, 0, 83, 0
1, 115252, Control_c, 0, 64, 0
1, 115284, Control_c, 0, 64, 127
1, 115324, Note_on_c, 9, 59, 0
1, 115328, Note_on_c, 1, 59, 98
1, 115344, Note_on_c, 1, 56, 0
1, 115346, Note_on_c, 9, 44, 0
1, 115456, Note_on_c, 1, 58, 95
1, 115480, Note_on_c, 1, 59, 0
1, 115520, Control_c, 0, 64, 0
1, 115590, Note_on_c, 1, 58, 0
1, 115596, Note_on_c, 1, 57, 95
1, 115736, Note_on_c, 1, 57, 0
1, 115824, Note_on_c, 1, 52, 75
1, 115872, Note_on_c, 1, 52, 0
1, 115952, Note_on_c, 9, 44, 40
1, 115964, Note_on_c, 1, 55, 120
1, 115964, Note_on_c, 9, 37, 24
1, 116050, Note_on_c, 1, 55, 0
1, 116070, Note_on_c, 1, 57, 87
1, 116072, Control_c, 0, 64, 127
1, 116096, Note_on_c, 9, 44, 0
1, 116120, Note_on_c, 1, 55, 71
1, 116128, Note_on_c, 1, 57, 0
1, 116166, Note_on_c, 9, 37, 0
1, 116198, Note_on_c, 9, 59, 29
1, 116210, Note_on_c, 1, 55, 0
1, 116220, Note_on_c, 1, 52, 68
1, 116226, Note_on_c, 9, 59, 0
1, 116280, Note_on_c, 1, 52, 0
1, 116280, Control_c, 0, 64, 0
1, 116316, Note_on_c, 9, 44, 44
1, 116328, Note_on_c, 9, 59, 30
1, 116340, Note_on_c, 0, 54, 41
1, 116342, Note_on_c, 9, 37, 30
1, 116344, Note_on_c, 0, 75, 45
1, 116344, Note_on_c, 0, 78, 47
1, 116344, Note_on_c, 0, 72, 37
1, 116344, Note_on_c, 1, 54, 104
1, 116352, Note_on_c, 0, 60, 37
1, 116368, Control_c, 0, 64, 127
1, 116380, Note_on_c, 0, 64, 15
1, 116384, Control_c, 0, 64, 0
1, 116402, Note_on_c, 9, 59, 0
1, 116448, Control_c, 0, 64, 127
1, 116450, Note_on_c, 9, 59, 34
1, 116456, Note_on_c, 1, 55, 102
1, 116464, Note_on_c, 1, 54, 0
1, 116468, Note_on_c, 0, 54, 0
1, 116476, Note_on_c, 0, 60, 0
1, 116486, Note_on_c, 9, 59, 0
1, 116492, Note_on_c, 9, 44, 0
1, 116520, Note_on_c, 0, 72, 0
1, 116532, Note_on_c, 0, 64, 0
1, 116534, Note_on_c, 9, 37, 0
1, 116556, Note_on_c, 1, 55, 0
1, 116584, Note_on_c, 1, 57, 106
1, 116588, Note_on_c, 0, 75, 0
1, 116588, Note_on_c, 9, 59, 51
1, 116596, Note_on_c, 0, 78, 0
1, 116624, Control_c, 0, 64, 0
1, 116696, Note_on_c, 1, 57, 0
1, 116726, Note_on_c, 1, 55, 85
1, 116728, Note_on_c, 9, 59, 0
1, 116732, Note_on_c, 0, 72, 55
1, 116736, Note_on_c, 0, 65, 45
1, 116740, Note_on_c, 0, 77, 57
1, 116740, Note_on_c, 0, 81, 56
1, 116740, Note_on_c, 0, 60, 44
1, 116748, Note_on_c, 0, 55, 41
1, 116760, Note_on_c, 0, 57, 48
1, 116864, Control_c, 0, 64, 127
1, 116940, Note_on_c, 1, 55, 0
1, 117008, Note_on_c, 0, 65, 0
1, 117008, Note_on_c, 1, 50, 31
1, 117010, Note_on_c, 1, 48, 32
1, 117016, Note_on_c, 0, 81, 0
1, 117024, Note_on_c, 0, 60, 0
1, 117056, Note_on_c, 0, 72, 0
1, 117064, Note_on_c, 0, 55, 0
1, 117068, Note_on_c, 1, 48, 0
1, 117068, Note_on_c, 0, 77, 0
1, 117072, Note_on_c, 1, 50, 0
1, 117084, Note_on_c, 0, 57, 0
1, 117110, Note_on_c, 9, 37, 33
1, 117128, Note_on_c, 1, 48, 62
1, 117334, Note_on_c, 1, 48, 0
1, 117368, Note_on_c, 9, 37, 0
1, 117372, Note_on_c, 1, 47, 64
1, 117510, Note_on_c, 9, 37, 33
1, 117556, Control_c, 0, 64, 0
1, 117580, Control_c, 0, 64, 127
1, 117640, Control_c, 0, 64, 0
1, 117644, Note_on_c, 9, 59, 20
1, 117670, Note_on_c, 9, 59, 0
1, 117696, Note_on_c, 9, 37, 0
1, 117736, Control_c, 0, 64, 127
1, 117752, Note_on_c, 0, 60, 60
1, 117764, Note_on_c, 0, 53, 46
1, 117764, Note_on_c, 0, 43, 48
1, 117766, Note_on_c, 9, 59, 15
1, 117776, Note_on_c, 0, 50, 45
1, 117780, Control_c, 0, 64, 0
1, 117832, Note_on_c, 1, 47, 0
1, 117844, Note_on_c, 0, 43, 0
1, 117844, Note_on_c, 0, 60, 0
1, 117846, Note_on_c, 9, 59, 0
1, 117852, Note_on_c, 0, 53, 0
1, 117872, Note_on_c, 0, 50, 0
1, 117890, Note_on_c, 9, 59, 40
1, 117928, Note_on_c, 0, 53, 63
1, 117936, Note_on_c, 0, 56, 62
1, 117940, Note_on_c, 0, 64, 58
1, 117940, Note_on_c, 0, 59, 66
1, 117944, Note_on_c, 0, 43, 51
1, 118022, Note_on_c, 9, 59, 0
1, 118088, Control_c, 0, 64, 127
1, 118144, Note_on_c, 1, 59, 124
1, 118172, Note_on_c, 9, 59, 16
1, 118198, Note_on_c, 9, 59, 0
1, 118224, Note_on_c, 0, 53, 0
1, 118246, Note_on_c, 9, 44, 48
1, 118272, Note_on_c, 0, 59, 0
1, 118294, Note_on_c, 0, 56, 0
1, 118294, Note_on_c, 9, 59, 33
1, 118308, Note_on_c, 0, 64, 0
1, 118310, Note_on_c, 1, 59, 0
1, 118326, Note_on_c, 9, 59, 0
1, 118344, Note_on_c, 1, 57, 110
1, 118384, Note_on_c, 9, 44, 0
1, 118404, Note_on_c, 0, 43, 0
1, 118406, Note_on_c, 9, 59, 26
1, 118432, Note_on_c, 9, 59, 0
1, 118504, Note_on_c, 1, 57, 0
1, 118508, Control_c, 0, 64, 0
1, 118528, Note_on_c, 9, 38, 28
1, 118534, Note_on_c, 1, 57, 111
1, 118536, Note_on_c, 9, 59, 49
1, 118560, Note_on_c, 0, 67, 82
1, 118560, Note_on_c, 0, 59, 89
1, 118560, Note_on_c, 0, 63, 80
1, 118576, Note_on_c, 9, 38, 0
1, 118576, Note_on_c, 0, 53, 76
1, 118628, Note_on_c, 0, 63, 0
1, 118636, Note_on_c, 0, 64, 47
1, 118640, Note_on_c, 9, 44, 48
1, 118656, Note_on_c, 0, 65, 41
1, 118678, Note_on_c, 1, 57, 0
1, 118684, Note_on_c, 9, 38, 22
1, 118720, Note_on_c, 9, 59, 0
1, 118722, Note_on_c, 1, 55, 99
1, 118812, Note_on_c, 9, 59, 16
1, 118828, Note_on_c, 9, 38, 0
1, 118838, Note_on_c, 9, 59, 0
1, 118838, Note_on_c, 9, 44, 0
1, 118854, Note_on_c, 1, 55, 0
1, 118912, Note_on_c, 1, 55, 94
1, 118914, Note_on_c, 9, 59, 31
1, 118930, Note_on_c, 9, 38, 30
1, 118946, Note_on_c, 9, 59, 0
1, 118964, Note_on_c, 0, 67, 0
1, 118980, Note_on_c, 0, 59, 0
1, 118996, Note_on_c, 0, 53, 0
1, 118996, Note_on_c, 0, 65, 0
1, 118996, Note_on_c, 0, 50, 55
1, 119010, Note_on_c, 9, 38, 0
1, 119024, Note_on_c, 1, 55, 0
1, 119042, Note_on_c, 9, 59, 54
1, 119068, Note_on_c, 0, 64, 0
1, 119090, Note_on_c, 1, 52, 91
1, 119112, Note_on_c, 0, 57, 66
1, 119112, Note_on_c, 0, 67, 60
1, 119112, Note_on_c, 0, 52, 57
1, 119112, Note_on_c, 0, 62, 66
1, 119120, Note_on_c, 0, 50, 0
1, 119216, Note_on_c, 9, 59, 0
1, 119216, Pitch_bend_c, 1, 8192
1, 119224, Pitch_bend_c, 1, 8192
1, 119238, Pitch_bend_c, 1, 8192
1, 119244, Pitch_bend_c, 1, 8192
1, 119256, Pitch_bend_c, 1, 7680
1, 119266, Pitch_bend_c, 1, 7552
1, 119276, Pitch_bend_c, 1, 7424
1, 119282, Pitch_bend_c, 1, 7296
1, 119292, Pitch_bend_c, 1, 7168
1, 119302, Pitch_bend_c, 1, 6912
1, 119312, Pitch_bend_c, 1, 6784
1, 119318, Pitch_bend_c, 1, 6656
1, 119324, Note_on_c, 9, 38, 38
1, 119328, Pitch_bend_c, 1, 6528
1, 119330, Pitch_bend_c, 1, 6400
1, 119340, Pitch_bend_c, 1, 6272
1, 119346, Pitch_bend_c, 1, 6144
1, 119360, Pitch_bend_c, 1, 6016
1, 119368, Pitch_bend_c, 1, 5888
1, 119378, Pitch_bend_c, 1, 5760
1, 119380, Control_c, 0, 64, 127
1, 119388, Pitch_bend_c, 1, 5632
1, 119392, Note_on_c, 9, 38, 0
1, 119400, Pitch_bend_c, 1, 5504
1, 119408, Note_on_c, 9, 44, 50
1, 119410, Pitch_bend_c, 1, 5376
1, 119416, Pitch_bend_c, 1, 5120
1, 119426, Pitch_bend_c, 1, 4864
1, 119436, Pitch_bend_c, 1, 4736
1, 119446, Pitch_bend_c, 1, 4608
1, 119446, Note_on_c, 9, 59, 28
1, 119458, Pitch_bend_c, 1, 4480
1, 119464, Note_on_c, 1, 52, 0
1, 119468, Pitch_bend_c, 1, 4352
1, 119472, Pitch_bend_c, 1, 4224
1, 119480, Pitch_bend_c, 1, 4096
1, 119488, Note_on_c, 9, 59, 0
1, 119490, Pitch_bend_c, 1, 3968
1, 119496, Note_on_c, 0, 57, 0
1, 119496, Pitch_bend_c, 1, 3840
1, 119496, Note_on_c, 9, 38, 22
1, 119506, Pitch_bend_c, 1, 3712
1, 119516, Pitch_bend_c, 1, 3584
1, 119526, Pitch_bend_c, 1, 3456
1, 119538, Pitch_bend_c, 1, 3328
1, 119544, Pitch_bend_c, 1, 3200
1, 119554, Pitch_bend_c, 1, 3072
1, 119564, Pitch_bend_c, 1, 2944
1, 119574, Pitch_bend_c, 1, 2816
1, 119576, Pitch_bend_c, 1, 2688
1, 119580, Note_on_c, 9, 44, 0
1, 119590, Pitch_bend_c, 1, 2560
1, 119600, Pitch_bend_c, 1, 2432
1, 119606, Pitch_bend_c, 1, 2304
1, 119608, Pitch_bend_c, 1, 2176
1, 119616, Note_on_c, 0, 52, 0
1, 119622, Pitch_bend_c, 1, 2048
1, 119628, Note_on_c, 0, 62, 0
1, 119628, Note_on_c, 9, 38, 0
1, 119632, Note_on_c, 0, 67, 0
1, 119632, Pitch_bend_c, 1, 1920
1, 119644, Pitch_bend_c, 1, 1792
1, 119650, Note_on_c, 9, 59, 48
1, 119666, Pitch_bend_c, 1, 1664
1, 119682, Pitch_bend_c, 1, 1536
1, 119708, Pitch_bend_c, 1, 1664
1, 119714, Note_on_c, 9, 38, 36
1, 119718, Pitch_bend_c, 1, 1792
1, 119720, Pitch_bend_c, 1, 1920
1, 119728, Pitch_bend_c, 1, 2176
1, 119730, Pitch_bend_c, 1, 2432
1, 119734, Pitch_bend_c, 1, 2560
1, 119736, Pitch_bend_c, 1, 2816
1, 119744, Pitch_bend_c, 1, 3072
1, 119746, Pitch_bend_c, 1, 3328
1, 119750, Pitch_bend_c, 1, 3456
1, 119756, Pitch_bend_c, 1, 3712
1, 119760, Pitch_bend_c, 1, 3840
1, 119762, Pitch_bend_c, 1, 3968
1, 119768, Note_on_c, 9, 59, 0
1, 119768, Pitch_bend_c, 1, 4096
1, 119772, Pitch_bend_c, 1, 4224
1, 119776, Pitch_bend_c, 1, 4352
1, 119778, Pitch_bend_c, 1, 4480
1, 119782, Note_on_c, 9, 38, 0
1, 119784, Pitch_bend_c, 1, 4736
1, 119788, Pitch_bend_c, 1, 4864
1, 119792, Pitch_bend_c, 1, 5120
1, 119798, Pitch_bend_c, 1, 5504
1, 119800, Pitch_bend_c, 1, 5760
1, 119804, Pitch_bend_c, 1, 6144
1, 119808, Pitch_bend_c, 1, 6528
1, 119814, Pitch_bend_c, 1, 6912
1, 119816, Pitch_bend_c, 1, 7168
1, 119820, Pitch_bend_c, 1, 7424
1, 119826, Pitch_bend_c, 1, 7680
1, 119830, Pitch_bend_c, 1, 8192
1, 119832, Pitch_bend_c, 1, 8192
1, 119836, Pitch_bend_c, 1, 8192
1, 119840, Pitch_bend_c, 1, 8192
1, 120032, Note_on_c, 9, 53, 22
1, 120054, Note_on_c, 9, 53, 0
1, 120086, Note_on_c, 9, 38, 39
1, 120160, Note_on_c, 9, 38, 0
1, 120168, Control_c, 0, 64, 0
1, 120172, Note_on_c, 1, 54, 112
1, 120178, Note_on_c, 9, 53, 42
1, 120188, Note_on_c, 9, 59, 43
1, 120224, Note_on_c, 0, 86, 107
1, 120224, Note_on_c, 0, 79, 115
1, 120232, Note_on_c, 0, 51, 68
1, 120232, Note_on_c, 0, 57, 63
1, 120236, Note_on_c, 0, 62, 70
1, 120248, Note_on_c, 9, 38, 27
1, 120338, Note_on_c, 9, 53, 0
1, 120374, Note_on_c, 9, 59, 0
1, 120380, Note_on_c, 1, 54, 0
1, 120408, Note_on_c, 1, 48, 101
1, 120416, Note_on_c, 9, 38, 0
1, 120460, Note_on_c, 0, 86, 0
1, 120482, Note_on_c, 9, 38, 42
1, 120496, Note_on_c, 0, 83, 58
1, 120500, Note_on_c, 0, 74, 65
1, 120534, Note_on_c, 9, 53, 26
1, 120556, Note_on_c, 9, 53, 0
1, 120560, Note_on_c, 9, 38, 0
1, 120566, Note_on_c, 1, 48, 0
1, 120572, Note_on_c, 9, 44, 53
1, 120596, Control_c, 0, 64, 127
1, 120614, Note_on_c, 1, 45, 72
1, 120692, Note_on_c, 0, 83, 0
1, 120700, Note_on_c, 0, 79, 0
1, 120722, Note_on_c, 9, 44, 0
1, 120756, Note_on_c, 0, 74, 0
1, 120784, Note_on_c, 9, 59, 44
1, 120784, Note_on_c, 9, 53, 42
1, 120788, Note_on_c, 0, 57, 0
1, 120796, Note_on_c, 0, 62, 0
1, 120816, Note_on_c, 0, 51, 0
1, 120822, Note_on_c, 9, 38, 39
1, 120832, Note_on_c, 1, 45, 0
1, 120856, Note_on_c, 1, 42, 83
1, 120888, Control_c, 0, 64, 0
1, 120908, Note_on_c, 9, 38, 0
1, 120936, Note_on_c, 9, 53, 0
1, 120956, Note_on_c, 9, 44, 46
1, 120964, Note_on_c, 0, 78, 53
1, 120964, Note_on_c, 0, 75, 57
1, 120964, Note_on_c, 0, 71, 49
1, 120964, Note_on_c, 0, 57, 39
1, 120972, Note_on_c, 0, 51, 44
1, 120980, Note_on_c, 0, 62, 45
1, 120988, Note_on_c, 9, 38, 26
1, 121004, Note_on_c, 1, 42, 0
1, 121004, Control_c, 0, 64, 127
1, 121016, Note_on_c, 9, 59, 0
1, 121076, Note_on_c, 0, 57, 0
1, 121116, Note_on_c, 0, 51, 0
1, 121124, Note_on_c, 0, 71, 0
1, 121126, Note_on_c, 1, 38, 56
1, 121144, Note_on_c, 9, 44, 0
1, 121152, Note_on_c, 9, 38, 0
1, 121164, Note_on_c, 0, 62, 0
1, 121188, Note_on_c, 0, 78, 0
1, 121196, Note_on_c, 9, 59, 24
1, 121220, Note_on_c, 0, 75, 0
1, 121224, Note_on_c, 1, 38, 0
1, 121232, Note_on_c, 9, 38, 48
1, 121248, Note_on_c, 1, 39, 85
1, 121270, Note_on_c, 9, 59, 0
1, 121296, Control_c, 0, 64, 0
1, 121352, Note_on_c, 1, 39, 0
1, 121366, Note_on_c, 9, 59, 30
1, 121378, Note_on_c, 9, 38, 0
1, 121378, Note_on_c, 1, 40, 66
1, 121512, Note_on_c, 9, 59, 0
1, 121624, Note_on_c, 0, 67, 45
1, 121628, Note_on_c, 0, 79, 47
1, 121628, Note_on_c, 0, 74, 50
1, 121636, Note_on_c, 0, 62, 41
1, 121636, Note_on_c, 0, 59, 41
1, 121656, Note_on_c, 0, 52, 34
1, 121680, Note_on_c, 0, 74, 0
1, 121680, Note_on_c, 0, 67, 0
1, 121684, Note_on_c, 0, 79, 0
1, 121692, Note_on_c, 0, 62, 0
1, 121696, Note_on_c, 0, 52, 0
1, 121696, Note_on_c, 0, 59, 0
1, 121718, Note_on_c, 9, 44, 43
1, 121888, Note_on_c, 9, 44, 0
1, 121906, Note_on_c, 1, 39, 67
1, 121910, Note_on_c, 1, 40, 0
1, 121964, Note_on_c, 9, 59, 27
1, 121990, Note_on_c, 1, 39, 0
1, 122012, Note_on_c, 1, 40, 64
1, 122038, Note_on_c, 9, 59, 0
1, 122088, Control_c, 0, 64, 127
1, 122108, Note_on_c, 1, 40, 0
1, 122140, Note_on_c, 1, 42, 77
1, 122214, Note_on_c, 1, 42, 0
1, 122240, Note_on_c, 1, 43, 78
1, 122344, Note_on_c, 1, 43, 0
1, 122344, Note_on_c, 1, 45, 85
1, 122400, Note_on_c, 1, 45, 0
1, 122448, Note_on_c, 1, 46, 80
1, 122460, Control_c, 0, 64, 0
1, 122502, Note_on_c, 1, 46, 0
1, 122524, Note_on_c, 0, 76, 58
1, 122528, Note_on_c, 0, 64, 50
1, 122532, Note_on_c, 0, 84, 48
1, 122532, Note_on_c, 0, 54, 46
1, 122536, Note_on_c, 0, 58, 46
1, 122536, Note_on_c, 0, 81, 52
1, 122560, Note_on_c, 1, 47, 78
1, 122700, Note_on_c, 1, 47, 0
1, 122704, Note_on_c, 1, 49, 80
1, 122792, Note_on_c, 1, 49, 0
1, 122812, Control_c, 0, 64, 127
1, 122876, Note_on_c, 9, 44, 55
1, 123036, Note_on_c, 9, 44, 0
1, 123080, Note_on_c, 9, 59, 27
1, 123120, Note_on_c, 9, 59, 0
1, 123168, Note_on_c, 9, 38, 22
1, 123184, Note_on_c, 9, 59, 30
1, 123238, Note_on_c, 9, 38, 0
1, 123250, Note_on_c, 9, 59, 0
1, 123250, Note_on_c, 9, 44, 48
1, 123300, Note_on_c, 0, 54, 0
1, 123302, Note_on_c, 0, 58, 0
1, 123302, Note_on_c, 9, 59, 43
1, 123308, Note_on_c, 0, 64, 0
1, 123344, Note_on_c, 0, 76, 0
1, 123372, Note_on_c, 0, 81, 0
1, 123380, Note_on_c, 0, 84, 0
1, 123424, Note_on_c, 9, 38, 27
1, 123432, Note_on_c, 9, 59, 0
1, 123448, Note_on_c, 9, 44, 0
1, 123544, Note_on_c, 1, 42, 78
1, 123564, Note_on_c, 9, 38, 0
1, 123616, Control_c, 0, 64, 0
1, 123660, Note_on_c, 1, 42, 0
1, 123672, Note_on_c, 0, 66, 75
1, 123672, Note_on_c, 0, 86, 81
1, 123680, Note_on_c, 0, 81, 80
1, 123684, Note_on_c, 0, 74, 71
1, 123684, Note_on_c, 0, 57, 61
1, 123684, Note_on_c, 0, 61, 56
1, 123696, Note_on_c, 0, 62, 55
1, 123704, Note_on_c, 1, 38, 65
1, 123750, Note_on_c, 9, 38, 21
1, 123832, Control_c, 0, 64, 127
1, 123874, Note_on_c, 9, 38, 0
1, 123952, Note_on_c, 1, 38, 0
1, 124012, Note_on_c, 0, 66, 0
1, 124012, Note_on_c, 9, 44, 50
1, 124044, Note_on_c, 0, 57, 0
1, 124044, Note_on_c, 0, 74, 0
1, 124048, Note_on_c, 0, 62, 0
1, 124056, Note_on_c, 1, 40, 72
1, 124080, Note_on_c, 0, 86, 0
1, 124108, Note_on_c, 0, 61, 0
1, 124128, Note_on_c, 0, 81, 0
1, 124134, Note_on_c, 1, 40, 0
1, 124162, Note_on_c, 1, 40, 71
1, 124210, Note_on_c, 9, 44, 0
1, 124258, Note_on_c, 1, 40, 0
1, 124290, Note_on_c, 1, 42, 98
1, 124300, Control_c, 0, 64, 0
1, 124316, Note_on_c, 0, 88, 78
1, 124320, Note_on_c, 0, 84, 72
1, 124324, Note_on_c, 0, 66, 76
1, 124328, Note_on_c, 0, 76, 78
1, 124336, Note_on_c, 0, 57, 59
1, 124336, Note_on_c, 0, 61, 53
1, 124360, Note_on_c, 0, 62, 41
1, 124404, Control_c, 0, 64, 127
1, 124484, Note_on_c, 0, 62, 0
1, 124496, Note_on_c, 1, 42, 0
1, 124524, Note_on_c, 0, 57, 0
1, 124544, Note_on_c, 0, 76, 0
1, 124568, Note_on_c, 0, 66, 0
1, 124572, Note_on_c, 0, 84, 0
1, 124576, Note_on_c, 0, 61, 0
1, 124578, Note_on_c, 9, 59, 28
1, 124584, Note_on_c, 0, 88, 0
1, 124608, Note_on_c, 9, 59, 0
1, 124694, Note_on_c, 9, 59, 22
1, 124716, Note_on_c, 9, 59, 0
1, 124768, Control_c, 0, 64, 0
1, 124812, Note_on_c, 9, 59, 52
1, 124840, Note_on_c, 0, 89, 63
1, 124852, Note_on_c, 0, 86, 57
1, 124852, Note_on_c, 0, 56, 55
1, 124856, Note_on_c, 0, 67, 56
1, 124856, Note_on_c, 0, 82, 58
1, 124856, Note_on_c, 0, 62, 54
1, 124864, Note_on_c, 0, 77, 56
1, 124948, Control_c, 0, 64, 127
1, 124962, Note_on_c, 9, 59, 0
1, 125046, Note_on_c, 9, 59, 49
1, 125144, Note_on_c, 9, 59, 0
1, 125168, Note_on_c, 0, 67, 0
1, 125176, Note_on_c, 9, 44, 43
1, 125184, Note_on_c, 0, 77, 0
1, 125192, Note_on_c, 0, 86, 0
1, 125196, Note_on_c, 9, 59, 43
1, 125200, Note_on_c, 0, 56, 0
1, 125212, Note_on_c, 0, 82, 0
1, 125232, Note_on_c, 0, 62, 0
1, 125248, Note_on_c, 0, 89, 0
1, 125328, Note_on_c, 9, 59, 0
1, 125340, Note_on_c, 9, 44, 0
1, 125356, Note_on_c, 1, 51, 107
1, 125408, Control_c, 0, 64, 0
1, 125448, Note_on_c, 1, 51, 0
1, 125464, Note_on_c, 0, 91, 63
1, 125472, Note_on_c, 1, 52, 84
1, 125476, Note_on_c, 0, 84, 49
1, 125476, Note_on_c, 0, 56, 51
1, 125480, Note_on_c, 0, 88, 48
1, 125480, Note_on_c, 0, 79, 48
1, 125480, Note_on_c, 0, 67, 42
1, 125480, Note_on_c, 0, 62, 46
1, 125540, Control_c, 0, 64, 127
1, 125570, Note_on_c, 1, 52, 0
1, 125592, Note_on_c, 0, 67, 0
1, 125600, Note_on_c, 0, 62, 0
1, 125608, Note_on_c, 1, 56, 83
1, 125656, Note_on_c, 0, 84, 0
1, 125664, Note_on_c, 0, 79, 0
1, 125680, Note_on_c, 1, 56, 0
1, 125700, Note_on_c, 0, 56, 0
1, 125712, Note_on_c, 0, 88, 0
1, 125724, Note_on_c, 1, 59, 108
1, 125732, Note_on_c, 0, 91, 0
1, 125820, Note_on_c, 1, 59, 0
1, 125840, Note_on_c, 9, 59, 22
1, 125848, Note_on_c, 1, 62, 111
1, 125864, Note_on_c, 9, 59, 0
1, 125864, Note_on_c, 1, 60, 65
1, 125888, Note_on_c, 1, 60, 0
1, 125924, Control_c, 0, 64, 0
1, 125952, Note_on_c, 1, 62, 0
1, 125974, Note_on_c, 9, 59, 39
1, 125976, Note_on_c, 1, 60, 98
1, 125984, Note_on_c, 0, 93, 54
1, 125984, Note_on_c, 0, 60, 40
1, 125988, Note_on_c, 0, 81, 43
1, 125992, Note_on_c, 0, 64, 36
1, 126000, Note_on_c, 0, 59, 43
1, 126000, Note_on_c, 0, 89, 43
1, 126000, Note_on_c, 0, 55, 39
1, 126086, Note_on_c, 1, 60, 0
1, 126086, Note_on_c, 9, 59, 0
1, 126086, Note_on_c, 1, 56, 76
1, 126194, Note_on_c, 1, 56, 0
1, 126204, Note_on_c, 1, 59, 108
1, 126242, Note_on_c, 9, 37, 27
1, 126268, Note_on_c, 0, 81, 0
1, 126284, Note_on_c, 0, 64, 0
1, 126292, Control_c, 0, 64, 127
1, 126300, Note_on_c, 0, 55, 0
1, 126312, Note_on_c, 0, 89, 0
1, 126312, Note_on_c, 9, 44, 41
1, 126316, Note_on_c, 0, 60, 0
1, 126324, Note_on_c, 0, 59, 0
1, 126326, Note_on_c, 9, 37, 0
1, 126328, Note_on_c, 1, 59, 0
1, 126332, Note_on_c, 0, 93, 0
1, 126338, Note_on_c, 1, 57, 85
1, 126416, Note_on_c, 1, 57, 0
1, 126448, Note_on_c, 1, 52, 70
1, 126512, Note_on_c, 9, 37, 33
1, 126534, Note_on_c, 1, 52, 0
1, 126536, Note_on_c, 9, 44, 0
1, 126556, Control_c, 0, 64, 0
1, 126556, Note_on_c, 1, 50, 71
1, 126588, Note_on_c, 0, 96, 49
1, 126592, Note_on_c, 0, 84, 41
1, 126600, Note_on_c, 0, 60, 44
1, 126600, Note_on_c, 0, 64, 36
1, 126600, Note_on_c, 0, 93, 46
1, 126616, Note_on_c, 0, 59, 42
1, 126620, Note_on_c, 0, 55, 36
1, 126652, Note_on_c, 9, 37, 0
1, 126662, Note_on_c, 1, 50, 0
1, 126696, Control_c, 0, 64, 127
1, 126704, Note_on_c, 1, 48, 59
1, 126706, Note_on_c, 9, 44, 43
1, 126744, Note_on_c, 0, 84, 0
1, 126756, Note_on_c, 0, 60, 0
1, 126776, Note_on_c, 0, 64, 0
1, 126784, Note_on_c, 9, 37, 33
1, 126796, Note_on_c, 0, 59, 0
1, 126800, Note_on_c, 0, 93, 0
1, 126832, Note_on_c, 0, 55, 0
1, 126832, Note_on_c, 0, 96, 0
1, 126844, Note_on_c, 9, 59, 24
1, 126924, Note_on_c, 9, 59, 0
1, 126930, Note_on_c, 9, 37, 0
1, 126934, Note_on_c, 9, 44, 0
1, 126936, Note_on_c, 1, 48, 0
1, 126952, Note_on_c, 9, 59, 27
1, 126982, Note_on_c, 1, 47, 91
1, 127020, Note_on_c, 9, 59, 0
1, 127020, Note_on_c, 9, 37, 31
1, 127044, Control_c, 0, 64, 0
1, 127078, Note_on_c, 9, 59, 40
1, 127088, Note_on_c, 0, 98, 43
1, 127094, Note_on_c, 9, 37, 0
1, 127096, Note_on_c, 1, 47, 0
1, 127100, Note_on_c, 0, 54, 42
1, 127100, Note_on_c, 0, 86, 34
1, 127100, Note_on_c, 0, 64, 39
1, 127108, Note_on_c, 0, 60, 40
1, 127120, Note_on_c, 0, 93, 41
1, 127158, Note_on_c, 9, 59, 0
1, 127158, Note_on_c, 1, 45, 69
1, 127272, Note_on_c, 0, 93, 0
1, 127284, Note_on_c, 0, 86, 0
1, 127300, Note_on_c, 0, 98, 0
1, 127308, Note_on_c, 0, 64, 0
1, 127308, Note_on_c, 0, 60, 0
1, 127318, Note_on_c, 1, 45, 0
1, 127324, Note_on_c, 0, 54, 0
1, 127334, Note_on_c, 9, 53, 32
1, 127336, Note_on_c, 9, 59, 35
1, 127360, Note_on_c, 1, 43, 63
1, 127424, Note_on_c, 9, 38, 25
1, 127464, Note_on_c, 9, 38, 0
1, 127484, Control_c, 0, 64, 127
1, 127494, Note_on_c, 9, 44, 41
1, 127504, Note_on_c, 9, 53, 0
1, 127506, Note_on_c, 1, 43, 0
1, 127520, Note_on_c, 1, 42, 72
1, 127522, Note_on_c, 9, 59, 0
1, 127616, Note_on_c, 9, 59, 35
1, 127698, Note_on_c, 9, 44, 0
1, 127720, Note_on_c, 9, 38, 21
1, 127820, Note_on_c, 9, 59, 0
1, 127826, Note_on_c, 9, 38, 0
1, 127922, Note_on_c, 9, 59, 29
1, 127932, Note_on_c, 9, 53, 19
1, 127968, Note_on_c, 9, 38, 26
1, 128050, Note_on_c, 1, 42, 0
1, 128056, Note_on_c, 9, 53, 0
1, 128076, Note_on_c, 9, 59, 0
1, 128080, Note_on_c, 9, 38, 0
1, 128108, Note_on_c, 1, 45, 62
1, 128176, Note_on_c, 9, 59, 28
1, 128184, Control_c, 0, 64, 0
1, 128208, Note_on_c, 1, 45, 0
1, 128226, Note_on_c, 9, 38, 34
1, 128260, Note_on_c, 0, 69, 56
1, 128262, Note_on_c, 0, 77, 57
1, 128262, Note_on_c, 1, 46, 67
1, 128264, Note_on_c, 0, 65, 54
1, 128272, Note_on_c, 0, 74, 54
1, 128276, Note_on_c, 0, 71, 42
1, 128288, Note_on_c, 9, 59, 0
1, 128322, Note_on_c, 9, 38, 0
1, 128354, Note_on_c, 1, 46, 0
1, 128396, Note_on_c, 0, 69, 0
1, 128420, Note_on_c, 0, 71, 0
1, 128422, Note_on_c, 9, 59, 27
1, 128424, Note_on_c, 0, 77, 0
1, 128424, Note_on_c, 9, 53, 22
1, 128436, Note_on_c, 0, 65, 0
1, 128448, Note_on_c, 0, 74, 0
1, 128508, Note_on_c, 1, 47, 81
1, 128530, Note_on_c, 9, 53, 0
1, 128536, Note_on_c, 0, 64, 40
1, 128578, Note_on_c, 9, 59, 0
1, 128582, Note_on_c, 1, 47, 0
1, 128626, Note_on_c, 9, 44, 40
1, 128628, Note_on_c, 0, 64, 0
1, 128648, Note_on_c, 0, 69, 46
1, 128648, Note_on_c, 0, 65, 46
1, 128656, Note_on_c, 0, 74, 49
1, 128660, Note_on_c, 0, 77, 44
1, 128664, Note_on_c, 0, 71, 42
1, 128700, Note_on_c, 9, 59, 34
1, 128722, Note_on_c, 1, 51, 90
1, 128780, Note_on_c, 9, 59, 0
1, 128802, Note_on_c, 1, 51, 0
1, 128822, Note_on_c, 9, 44, 0
1, 128840, Note_on_c, 1, 52, 49
1, 128852, Note_on_c, 0, 69, 0
1, 128854, Note_on_c, 1, 53, 39
1, 128872, Note_on_c, 0, 71, 0
1, 128876, Note_on_c, 0, 77, 0
1, 128876, Note_on_c, 1, 52, 0
1, 128888, Note_on_c, 0, 74, 0
1, 128888, Note_on_c, 0, 65, 0
1, 128902, Note_on_c, 1, 53, 0
1, 128930, Note_on_c, 9, 59, 33
1, 128934, Note_on_c, 9, 38, 25
1, 128934, Note_on_c, 9, 53, 23
1, 128936, Note_on_c, 0, 64, 49
1, 128952, Note_on_c, 1, 55, 98
1, 128972, Note_on_c, 0, 64, 0
1, 128978, Note_on_c, 9, 53, 0
1, 128994, Note_on_c, 9, 38, 0
1, 129000, Note_on_c, 9, 44, 41
1, 129016, Note_on_c, 9, 59, 0
1, 129040, Note_on_c, 1, 55, 0
1, 129072, Note_on_c, 1, 57, 111
1, 129084, Note_on_c, 1, 55, 71
1, 129104, Note_on_c, 1, 55, 0
1, 129174, Note_on_c, 1, 59, 93
1, 129180, Note_on_c, 1, 57, 0
1, 129186, Note_on_c, 9, 59, 36
1, 129200, Note_on_c, 9, 44, 0
1, 129266, Note_on_c, 1, 59, 0
1, 129272, Note_on_c, 1, 57, 97
1, 129346, Note_on_c, 9, 59, 0
1, 129356, Note_on_c, 1, 57, 0
1, 129368, Note_on_c, 1, 55, 88
1, 129432, Note_on_c, 0, 68, 48
1, 129432, Note_on_c, 0, 65, 41
1, 129432, Note_on_c, 0, 64, 49
1, 129432, Note_on_c, 0, 76, 54
1, 129432, Note_on_c, 9, 38, 22
1, 129432, Note_on_c, 9, 59, 32
1, 129436, Note_on_c, 9, 53, 20
1, 129446, Note_on_c, 1, 55, 0
1, 129452, Note_on_c, 0, 71, 50
1, 129474, Note_on_c, 1, 53, 59
1, 129512, Note_on_c, 9, 53, 0
1, 129522, Note_on_c, 9, 38, 0
1, 129542, Note_on_c, 1, 53, 0
1, 129584, Note_on_c, 1, 55, 88
1, 129590, Note_on_c, 9, 59, 0
1, 129596, Note_on_c, 0, 65, 0
1, 129604, Note_on_c, 0, 76, 0
1, 129616, Note_on_c, 0, 71, 0
1, 129620, Note_on_c, 0, 68, 0
1, 129652, Note_on_c, 0, 64, 0
1, 129696, Note_on_c, 1, 55, 0
1, 129696, Note_on_c, 9, 59, 35
1, 129730, Note_on_c, 1, 53, 79
1, 129744, Note_on_c, 0, 62, 36
1, 129794, Note_on_c, 9, 59, 0
1, 129808, Note_on_c, 0, 62, 0
1, 129808, Note_on_c, 1, 53, 0
1, 129816, Note_on_c, 0, 64, 49
1, 129820, Note_on_c, 0, 65, 49
1, 129824, Note_on_c, 0, 68, 42
1, 129828, Note_on_c, 0, 76, 55
1, 129836, Note_on_c, 0, 71, 50
1, 129842, Note_on_c, 1, 52, 69
1, 130016, Note_on_c, 0, 65, 0
1, 130032, Note_on_c, 0, 71, 0
1, 130032, Note_on_c, 0, 76, 0
1, 130032, Note_on_c, 0, 68, 0
1, 130096, Note_on_c, 0, 65, 48
1, 130116, Note_on_c, 0, 64, 0
1, 130116, Note_on_c, 0, 68, 32
1, 130116, Note_on_c, 0, 74, 47
1, 130124, Note_on_c, 0, 62, 41
1, 130132, Note_on_c, 0, 65, 0
1, 130152, Note_on_c, 0, 74, 0
1, 130156, Note_on_c, 0, 68, 0
1, 130160, Note_on_c, 0, 62, 0
1, 130326, Note_on_c, 1, 52, 0
1, 130376, Note_on_c, 1, 47, 53
1, 130384, Note_on_c, 1, 48, 48
1, 130406, Note_on_c, 1, 48, 0
1, 130424, Note_on_c, 1, 47, 0
1, 130432, Note_on_c, 9, 59, 30
1, 130432, Note_on_c, 9, 38, 30
1, 130448, Note_on_c, 1, 45, 67
1, 130496, Note_on_c, 9, 38, 0
1, 130512, Note_on_c, 9, 59, 0
1, 130530, Note_on_c, 1, 45, 0
1, 130560, Note_on_c, 9, 59, 35
1, 130610, Note_on_c, 9, 38, 14
1, 130624, Note_on_c, 1, 43, 55
1, 130624, Note_on_c, 1, 45, 62
1, 130662, Note_on_c, 1, 43, 0
1, 130720, Note_on_c, 9, 59, 0
1, 130726, Note_on_c, 9, 38, 0
1, 130956, Note_on_c, 9, 44, 45
1, 131080, Note_on_c, 1, 45, 0
1, 131088, Note_on_c, 1, 47, 78
1, 131126, Note_on_c, 9, 59, 27
1, 131136, Note_on_c, 9, 44, 0
1, 131152, Note_on_c, 1, 47, 0
1, 131154, Note_on_c, 9, 59, 0
1, 131184, Note_on_c, 9, 38, 26
1, 131190, Note_on_c, 1, 48, 93
1, 131196, Note_on_c, 0, 59, 46
1, 131204, Note_on_c, 0, 60, 61
1, 131208, Note_on_c, 0, 74, 68
1, 131212, Note_on_c, 0, 64, 71
1, 131216, Note_on_c, 0, 67, 62
1, 131220, Note_on_c, 0, 71, 48
1, 131228, Note_on_c, 0, 59, 0
1, 131228, Note_on_c, 9, 59, 30
1, 131248, Note_on_c, 9, 38, 0
1, 131282, Note_on_c, 1, 48, 0
1, 131288, Note_on_c, 9, 59, 0
1, 131308, Note_on_c, 0, 71, 0
1, 131312, Note_on_c, 0, 64, 0
1, 131312, Note_on_c, 1, 50, 110
1, 131320, Note_on_c, 9, 44, 43
1, 131328, Note_on_c, 0, 67, 0
1, 131340, Note_on_c, 0, 74, 0
1, 131346, Note_on_c, 9, 59, 40
1, 131372, Note_on_c, 0, 60, 0
1, 131424, Note_on_c, 9, 59, 0
1, 131432, Note_on_c, 0, 72, 57
1, 131444, Note_on_c, 0, 67, 56
1, 131444, Note_on_c, 0, 64, 52
1, 131444, Note_on_c, 0, 59, 44
1, 131494, Note_on_c, 9, 44, 0
1, 131516, Note_on_c, 0, 64, 0
1, 131528, Note_on_c, 0, 72, 0
1, 131532, Note_on_c, 0, 59, 0
1, 131556, Note_on_c, 0, 67, 0
1, 131564, Note_on_c, 9, 36, 34
1, 131628, Note_on_c, 9, 36, 0
1, 131660, Note_on_c, 1, 50, 0
1, 131660, Note_on_c, 9, 59, 29
1, 131680, Note_on_c, 1, 51, 88
1, 131702, Note_on_c, 9, 59, 0
1, 131720, Note_on_c, 9, 36, 21
1, 131740, Note_on_c, 0, 74, 67
1, 131740, Note_on_c, 0, 63, 67
1, 131740, Note_on_c, 0, 59, 54
1, 131748, Note_on_c, 0, 67, 59
1, 131784, Note_on_c, 9, 59, 34
1, 131824, Note_on_c, 9, 36, 0
1, 131830, Note_on_c, 9, 59, 0
1, 131904, Note_on_c, 9, 59, 49
1, 131936, Note_on_c, 1, 50, 82
1, 131970, Note_on_c, 1, 51, 0
1, 132034, Note_on_c, 1, 50, 0
1, 132040, Note_on_c, 9, 59, 0
1, 132060, Note_on_c, 9, 46, 39
1, 132102, Note_on_c, 1, 48, 62
1, 132108, Control_c, 0, 64, 127
1, 132156, Note_on_c, 0, 67, 0
1, 132178, Note_on_c, 9, 46, 0
1, 132192, Note_on_c, 0, 63, 0
1, 132256, Note_on_c, 0, 74, 0
1, 132264, Control_c, 0, 64, 0
1, 132312, Note_on_c, 9, 38, 29
1, 132352, Note_on_c, 0, 59, 0
1, 132360, Note_on_c, 0, 63, 63
1, 132364, Note_on_c, 0, 72, 56
1, 132372, Note_on_c, 0, 67, 50
1, 132384, Note_on_c, 0, 57, 45
1, 132392, Note_on_c, 9, 38, 0
1, 132428, Control_c, 0, 64, 56
1, 132432, Control_c, 0, 64, 127
1, 132492, Note_on_c, 0, 57, 0
1, 132496, Note_on_c, 9, 36, 18
1, 132588, Note_on_c, 0, 67, 0
1, 132600, Note_on_c, 9, 36, 0
1, 132624, Note_on_c, 0, 63, 0
1, 132648, Note_on_c, 0, 72, 0
1, 132684, Note_on_c, 1, 48, 0
1, 132712, Note_on_c, 9, 36, 25
1, 132716, Note_on_c, 1, 46, 59
1, 132732, Note_on_c, 9, 59, 33
1, 132760, Control_c, 0, 64, 0
1, 132780, Note_on_c, 9, 59, 0
1, 132800, Note_on_c, 9, 36, 0
1, 132832, Note_on_c, 1, 46, 0
1, 132840, Note_on_c, 0, 62, 57
1, 132852, Note_on_c, 0, 57, 39
1, 132856, Note_on_c, 0, 47, 46
1, 132864, Note_on_c, 9, 59, 26
1, 132876, Note_on_c, 1, 47, 57
1, 132882, Note_on_c, 9, 36, 19
1, 132914, Note_on_c, 9, 59, 0
1, 133026, Note_on_c, 9, 36, 0
1, 133192, Control_c, 0, 64, 127
1, 133196, Note_on_c, 9, 44, 43
1, 133252, Note_on_c, 0, 62, 0
1, 133272, Note_on_c, 0, 47, 0
1, 133312, Note_on_c, 0, 57, 0
1, 133388, Note_on_c, 9, 44, 0
1, 133442, Note_on_c, 1, 47, 0
1, 133452, Note_on_c, 1, 49, 84
1, 133544, Note_on_c, 1, 49, 0
1, 133554, Note_on_c, 1, 50, 88
1, 133672, Note_on_c, 1, 51, 97
1, 133680, Note_on_c, 1, 50, 0
1, 133760, Note_on_c, 1, 51, 0
1, 133778, Note_on_c, 1, 52, 79
1, 133862, Note_on_c, 9, 36, 29
1, 133864, Note_on_c, 1, 52, 0
1, 133894, Note_on_c, 1, 53, 95
1, 133900, Note_on_c, 9, 36, 0
1, 133990, Note_on_c, 1, 53, 0
1, 134016, Note_on_c, 1, 55, 100
1, 134048, Note_on_c, 9, 36, 19
1, 134050, Note_on_c, 9, 53, 33
1, 134056, Note_on_c, 9, 59, 21
1, 134076, Note_on_c, 9, 53, 0
1, 134086, Note_on_c, 9, 59, 0
1, 134092, Note_on_c, 9, 36, 0
1, 134104, Note_on_c, 1, 55, 0
1, 134136, Note_on_c, 1, 56, 93
1, 134226, Note_on_c, 1, 56, 0
1, 134242, Note_on_c, 9, 36, 37
1, 134262, Note_on_c, 1, 58, 85
1, 134328, Note_on_c, 9, 36, 0
1, 134358, Note_on_c, 1, 58, 0
1, 134380, Note_on_c, 9, 44, 41
1, 134386, Note_on_c, 1, 59, 81
1, 134418, Note_on_c, 9, 36, 31
1, 134476, Note_on_c, 1, 59, 0
1, 134514, Note_on_c, 9, 44, 0
1, 134514, Note_on_c, 1, 62, 70
1, 134530, Note_on_c, 9, 36, 0
1, 134614, Note_on_c, 1, 62, 0
1, 134616, Note_on_c, 9, 53, 28
1, 134624, Note_on_c, 9, 36, 33
1, 134640, Note_on_c, 9, 59, 36
1, 134648, Note_on_c, 1, 60, 82
1, 134710, Note_on_c, 1, 60, 0
1, 134720, Note_on_c, 9, 59, 0
1, 134722, Note_on_c, 9, 53, 0
1, 134736, Note_on_c, 9, 36, 0
1, 134768, Note_on_c, 9, 46, 39
1, 134784, Control_c, 0, 64, 0
1, 134788, Note_on_c, 0, 56, 58
1, 134788, Note_on_c, 0, 88, 75
1, 134788, Note_on_c, 0, 67, 61
1, 134790, Note_on_c, 1, 56, 73
1, 134792, Note_on_c, 0, 79, 70
1, 134796, Note_on_c, 0, 84, 59
1, 134808, Note_on_c, 0, 62, 50
1, 134816, Note_on_c, 9, 36, 37
1, 134856, Control_c, 0, 64, 127
1, 134888, Note_on_c, 1, 56, 0
1, 134888, Note_on_c, 9, 59, 30
1, 134896, Note_on_c, 0, 67, 0
1, 134896, Note_on_c, 9, 46, 0
1, 134902, Note_on_c, 1, 59, 78
1, 134916, Note_on_c, 0, 62, 0
1, 134940, Note_on_c, 0, 79, 0
1, 134944, Note_on_c, 0, 88, 0
1, 134972, Note_on_c, 9, 59, 0
1, 134980, Note_on_c, 0, 84, 0
1, 134982, Note_on_c, 9, 36, 0
1, 134984, Note_on_c, 1, 59, 0
1, 135032, Note_on_c, 0, 56, 0
1, 135032, Note_on_c, 1, 55, 87
1, 135120, Note_on_c, 1, 55, 0
1, 135140, Control_c, 0, 64, 0
1, 135148, Note_on_c, 9, 53, 34
1, 135168, Note_on_c, 0, 64, 48
1, 135172, Note_on_c, 0, 74, 57
1, 135172, Note_on_c, 0, 86, 56
1, 135172, Note_on_c, 0, 83, 54
1, 135184, Note_on_c, 0, 57, 43
1, 135184, Note_on_c, 0, 55, 35
1, 135184, Note_on_c, 9, 59, 31
1, 135190, Note_on_c, 1, 52, 36
1, 135200, Note_on_c, 0, 60, 49
1, 135238, Note_on_c, 9, 53, 0
1, 135276, Note_on_c, 9, 59, 0
1, 135320, Note_on_c, 1, 52, 0
1, 135392, Note_on_c, 1, 47, 67
1, 135410, Note_on_c, 9, 38, 34
1, 135432, Note_on_c, 9, 59, 36
1, 135496, Note_on_c, 9, 38, 0
1, 135500, Note_on_c, 1, 47, 0
1, 135500, Control_c, 0, 64, 127
1, 135504, Note_on_c, 9, 59, 0
1, 135542, Note_on_c, 1, 50, 80
1, 135548, Note_on_c, 9, 44, 38
1, 135650, Note_on_c, 9, 44, 0
1, 135654, Note_on_c, 9, 53, 28
1, 135680, Note_on_c, 9, 59, 34
1, 135696, Note_on_c, 1, 50, 0
1, 135752, Note_on_c, 9, 53, 0
1, 135766, Note_on_c, 9, 59, 0
1, 135792, Note_on_c, 1, 48, 86
1, 135828, Note_on_c, 0, 60, 0
1, 135840, Note_on_c, 9, 38, 38
1, 135844, Note_on_c, 0, 74, 0
1, 135872, Note_on_c, 0, 64, 0
1, 135904, Note_on_c, 1, 48, 0
1, 135908, Note_on_c, 0, 55, 0
1, 135916, Note_on_c, 9, 38, 0
1, 135922, Note_on_c, 9, 44, 41
1, 135942, Note_on_c, 1, 47, 65
1, 135942, Note_on_c, 9, 59, 34
1, 135944, Note_on_c, 0, 83, 0
1, 135972, Note_on_c, 0, 86, 0
1, 136012, Note_on_c, 9, 59, 0
1, 136032, Note_on_c, 9, 44, 0
1, 136040, Note_on_c, 0, 57, 0
1, 136104, Note_on_c, 1, 47, 0
1, 136166, Note_on_c, 9, 53, 28
1, 136182, Note_on_c, 1, 48, 80
1, 136184, Note_on_c, 9, 59, 34
1, 136204, Note_on_c, 9, 38, 44
1, 136240, Note_on_c, 1, 48, 0
1, 136272, Note_on_c, 9, 53, 0
1, 136272, Note_on_c, 9, 38, 0
1, 136280, Note_on_c, 9, 59, 0
1, 136342, Note_on_c, 1, 50, 78
1, 136358, Note_on_c, 9, 38, 32
1, 136416, Note_on_c, 9, 59, 31
1, 136438, Pitch_bend_c, 1, 8192
1, 136454, Pitch_bend_c, 1, 8192
1, 136464, Pitch_bend_c, 1, 8192
1, 136476, Pitch_bend_c, 1, 8192
1, 136486, Pitch_bend_c, 1, 7680
1, 136496, Pitch_bend_c, 1, 7552
1, 136502, Note_on_c, 9, 38, 0
1, 136508, Pitch_bend_c, 1, 7424
1, 136514, Pitch_bend_c, 1, 7296
1, 136520, Note_on_c, 9, 59, 0
1, 136524, Pitch_bend_c, 1, 7168
1, 136528, Control_c, 0, 64, 0
1, 136530, Pitch_bend_c, 1, 7040
1, 136540, Pitch_bend_c, 1, 6912
1, 136546, Pitch_bend_c, 1, 6784
1, 136556, Pitch_bend_c, 1, 6656
1, 136566, Pitch_bend_c, 1, 6528
1, 136568, Pitch_bend_c, 1, 6400
1, 136576, Pitch_bend_c, 1, 6272
1, 136584, Pitch_bend_c, 1, 6016
1, 136588, Note_on_c, 0, 80, 61
1, 136588, Note_on_c, 0, 88, 67
1, 136592, Note_on_c, 0, 76, 63
1, 136594, Pitch_bend_c, 1, 5888
1, 136596, Note_on_c, 0, 65, 57
1, 136600, Note_on_c, 0, 54, 55
1, 136600, Note_on_c, 0, 60, 57
1, 136600, Note_on_c, 0, 84, 54
1, 136604, Pitch_bend_c, 1, 5760
1, 136610, Pitch_bend_c, 1, 5632
1, 136620, Pitch_bend_c, 1, 5504
1, 136630, Pitch_bend_c, 1, 5376
1, 136640, Pitch_bend_c, 1, 5120
1, 136648, Pitch_bend_c, 1, 4992
1, 136658, Pitch_bend_c, 1, 4864
1, 136664, Note_on_c, 1, 50, 0
1, 136668, Pitch_bend_c, 1, 4736
1, 136678, Pitch_bend_c, 1, 4608
1, 136684, Pitch_bend_c, 1, 4480
1, 136690, Pitch_bend_c, 1, 4352
1, 136690, Note_on_c, 9, 44, 43
1, 136696, Pitch_bend_c, 1, 4096
1, 136710, Pitch_bend_c, 1, 3968
1, 136710, Note_on_c, 9, 53, 24
1, 136722, Pitch_bend_c, 1, 3840
1, 136726, Note_on_c, 9, 59, 31
1, 136732, Pitch_bend_c, 1, 3712
1, 136760, Pitch_bend_c, 1, 3584
1, 136768, Control_c, 0, 64, 127
1, 136790, Note_on_c, 9, 53, 0
1, 136802, Pitch_bend_c, 1, 3712
1, 136806, Pitch_bend_c, 1, 3840
1, 136816, Pitch_bend_c, 1, 4096
1, 136818, Pitch_bend_c, 1, 4224
1, 136822, Pitch_bend_c, 1, 4352
1, 136828, Pitch_bend_c, 1, 4608
1, 136832, Pitch_bend_c, 1, 4864
1, 136834, Pitch_bend_c, 1, 5120
1, 136838, Pitch_bend_c, 1, 5504
1, 136840, Note_on_c, 9, 59, 0
1, 136844, Pitch_bend_c, 1, 5760
1, 136848, Pitch_bend_c, 1, 6016
1, 136850, Pitch_bend_c, 1, 6272
1, 136856, Pitch_bend_c, 1, 6528
1, 136860, Pitch_bend_c, 1, 6784
1, 136864, Pitch_bend_c, 1, 7040
1, 136870, Pitch_bend_c, 1, 7296
1, 136872, Note_on_c, 9, 44, 0
1, 136872, Pitch_bend_c, 1, 7552
1, 136876, Pitch_bend_c, 1, 7680
1, 136880, Pitch_bend_c, 1, 8192
1, 136882, Pitch_bend_c, 1, 8192
1, 136886, Pitch_bend_c, 1, 8192
1, 136886, Pitch_bend_c, 1, 8192
1, 136972, Note_on_c, 9, 38, 39
1, 136976, Note_on_c, 1, 50, 87
1, 137042, Note_on_c, 9, 38, 0
1, 137056, Note_on_c, 1, 50, 0
1, 137072, Note_on_c, 0, 65, 0
1, 137084, Note_on_c, 0, 60, 0
1, 137108, Note_on_c, 0, 76, 0
1, 137110, Note_on_c, 1, 54, 109
1, 137112, Note_on_c, 9, 44, 42
1, 137116, Note_on_c, 9, 38, 40
1, 137120, Note_on_c, 0, 84, 0
1, 137124, Note_on_c, 0, 88, 0
1, 137128, Note_on_c, 0, 54, 0
1, 137200, Note_on_c, 0, 80, 0
1, 137218, Note_on_c, 9, 44, 0
1, 137238, Note_on_c, 9, 38, 0
1, 137266, Note_on_c, 1, 54, 0
1, 137346, Note_on_c, 9, 59, 30
1, 137362, Note_on_c, 1, 57, 103
1, 137408, Note_on_c, 9, 59, 0
1, 137476, Control_c, 0, 64, 0
1, 137480, Note_on_c, 1, 57, 0
1, 137488, Note_on_c, 9, 59, 23
1, 137496, Note_on_c, 0, 74, 68
1, 137504, Note_on_c, 0, 86, 62
1, 137512, Note_on_c, 0, 83, 60
1, 137512, Note_on_c, 1, 54, 85
1, 137516, Control_c, 0, 64, 127
1, 137696, Note_on_c, 1, 54, 0
1, 137720, Note_on_c, 0, 86, 0
1, 137734, Note_on_c, 1, 50, 69
1, 137744, Note_on_c, 0, 83, 0
1, 137744, Note_on_c, 9, 38, 42
1, 137748, Note_on_c, 0, 50, 82
1, 137756, Note_on_c, 0, 49, 67
1, 137788, Control_c, 0, 64, 0
1, 137796, Note_on_c, 0, 74, 0
1, 137816, Note_on_c, 1, 50, 0
1, 137820, Note_on_c, 9, 38, 0
1, 137840, Note_on_c, 0, 49, 0
1, 137872, Note_on_c, 1, 50, 64
1, 137872, Note_on_c, 9, 44, 41
1, 137878, Note_on_c, 9, 44, 40
1, 137900, Note_on_c, 9, 38, 33
1, 137932, Note_on_c, 9, 44, 0
1, 137990, Note_on_c, 9, 38, 0
1, 138096, Note_on_c, 9, 44, 0
1, 138114, Note_on_c, 9, 59, 0
1, 138134, Note_on_c, 9, 57, 18
1, 138148, Note_on_c, 0, 49, 43
1, 138172, Note_on_c, 9, 36, 22
1, 138182, Note_on_c, 9, 57, 0
1, 138192, Note_on_c, 0, 49, 0
1, 138224, Note_on_c, 9, 36, 0
1, 138252, Note_on_c, 9, 44, 26
1, 138276, Note_on_c, 0, 62, 69
1, 138276, Note_on_c, 0, 59, 67
1, 138328, Note_on_c, 0, 50, 0
1, 138338, Note_on_c, 9, 44, 0
1, 138496, Note_on_c, 1, 50, 0
1, 138502, Note_on_c, 1, 47, 45
1, 138512, Note_on_c, 9, 44, 62
1, 138518, Note_on_c, 9, 59, 30
1, 138528, Note_on_c, 0, 50, 92
1, 138534, Note_on_c, 9, 38, 28
1, 138546, Note_on_c, 9, 59, 0
1, 138552, Note_on_c, 0, 49, 61
1, 138582, Note_on_c, 1, 47, 0
1, 138592, Note_on_c, 0, 49, 0
1, 138598, Note_on_c, 9, 44, 0
1, 138600, Note_on_c, 9, 38, 0
1, 138636, Note_on_c, 1, 50, 78
1, 138640, Note_on_c, 9, 59, 49
1, 138672, Note_on_c, 9, 44, 43
1, 138680, Note_on_c, 9, 38, 27
1, 138716, Note_on_c, 0, 62, 0
1, 138770, Note_on_c, 9, 38, 0
1, 138784, Note_on_c, 9, 44, 0
1, 138812, Control_c, 0, 64, 127
1, 138816, Note_on_c, 0, 59, 0
1, 138816, Control_c, 0, 64, 0
1, 138820, Control_c, 0, 64, 127
1, 138822, Note_on_c, 9, 59, 0
1, 138860, Note_on_c, 1, 50, 0
1, 138882, Note_on_c, 1, 54, 101
1, 138892, Note_on_c, 9, 44, 15
1, 138924, Note_on_c, 9, 57, 24
1, 138932, Note_on_c, 0, 49, 52
1, 138936, Note_on_c, 9, 38, 42
1, 138940, Control_c, 0, 64, 0
1, 138950, Note_on_c, 9, 44, 0
1, 138956, Note_on_c, 9, 57, 0
1, 139000, Note_on_c, 1, 54, 0
1, 139014, Note_on_c, 9, 38, 0
1, 139016, Note_on_c, 9, 59, 39
1, 139024, Note_on_c, 0, 49, 0
1, 139036, Note_on_c, 1, 50, 69
1, 139036, Note_on_c, 9, 59, 47
1, 139044, Note_on_c, 0, 50, 0
1, 139044, Note_on_c, 0, 65, 81
1, 139048, Note_on_c, 0, 54, 85
1, 139052, Note_on_c, 0, 60, 82
1, 139136, Note_on_c, 9, 59, 0
1, 139144, Note_on_c, 9, 59, 0
1, 139252, Control_c, 0, 64, 127
1, 139282, Note_on_c, 9, 38, 39
1, 139292, Note_on_c, 0, 50, 96
1, 139296, Note_on_c, 9, 59, 36
1, 139300, Note_on_c, 0, 49, 72
1, 139336, Note_on_c, 9, 59, 0
1, 139356, Note_on_c, 9, 38, 0
1, 139376, Note_on_c, 0, 49, 0
1, 139404, Note_on_c, 9, 59, 57
1, 139446, Note_on_c, 9, 57, 16
1, 139448, Note_on_c, 0, 50, 0
1, 139472, Note_on_c, 0, 54, 0
1, 139484, Note_on_c, 9, 57, 0
1, 139608, Note_on_c, 0, 60, 0
1, 139624, Note_on_c, 9, 59, 0
1, 139624, Note_on_c, 9, 57, 20
1, 139632, Note_on_c, 9, 44, 21
1, 139632, Note_on_c, 9, 59, 30
1, 139660, Note_on_c, 9, 57, 0
1, 139664, Note_on_c, 9, 44, 0
1, 139664, Note_on_c, 9, 38, 56
1, 139676, Note_on_c, 9, 59, 0
1, 139676, Note_on_c, 0, 50, 54
1, 139704, Note_on_c, 0, 65, 0
1, 139736, Control_c, 0, 64, 0
1, 139792, Note_on_c, 9, 59, 30
1, 139798, Note_on_c, 1, 31, 103
1, 139804, Note_on_c, 9, 38, 0
1, 139808, Note_on_c, 9, 59, 85
1, 139814, Note_on_c, 1, 50, 0
1, 139814, Note_on_c, 0, 43, 66
1, 139820, Note_on_c, 0, 54, 74
1, 139824, Note_on_c, 0, 59, 75
1, 139828, Note_on_c, 0, 57, 77
1, 139832, Note_on_c, 0, 62, 70
1, 139872, Note_on_c, 0, 50, 0
1, 139916, Control_c, 0, 64, 127
1, 139968, Note_on_c, 9, 59, 0
1, 140000, Note_on_c, 0, 57, 0
1, 140020, Note_on_c, 0, 43, 0
1, 140048, Note_on_c, 9, 59, 0
1, 140072, Note_on_c, 0, 59, 0
1, 140084, Note_on_c, 0, 62, 0
1, 140096, Note_on_c, 0, 54, 0
1, 140428, Note_on_c, 9, 59, 25
1, 140456, Control_c, 0, 64, 0
1, 140460, Note_on_c, 0, 90, 85
1, 140466, Note_on_c, 9, 59, 0
1, 140476, Note_on_c, 0, 55, 65
1, 140476, Note_on_c, 0, 66, 82
1, 140476, Note_on_c, 0, 86, 81
1, 140476, Note_on_c, 0, 62, 63
1, 140496, Note_on_c, 0, 59, 60
1, 140512, Note_on_c, 0, 78, 56
1, 140552, Note_on_c, 9, 59, 30
1, 140608, Control_c, 0, 64, 127
1, 140676, Note_on_c, 0, 62, 0
1, 140700, Note_on_c, 0, 59, 0
1, 140704, Note_on_c, 0, 66, 0
1, 140710, Note_on_c, 9, 59, 0
1, 140728, Note_on_c, 0, 55, 0
1, 140732, Note_on_c, 0, 86, 0
1, 140748, Note_on_c, 0, 90, 0
1, 140768, Note_on_c, 0, 78, 0
1, 140768, Note_on_c, 1, 31, 0
1, 140832, Note_on_c, 1, 39, 85
1, 140936, Note_on_c, 1, 39, 0
1, 140940, Note_on_c, 9, 59, 49
1, 140988, Note_on_c, 1, 40, 83
1, 140996, Control_c, 0, 64, 0
1, 141016, Note_on_c, 0, 86, 78
1, 141028, Note_on_c, 0, 83, 72
1, 141032, Note_on_c, 0, 62, 64
1, 141036, Note_on_c, 0, 59, 49
1, 141036, Note_on_c, 0, 79, 73
1, 141048, Note_on_c, 0, 52, 49
1, 141048, Note_on_c, 0, 55, 47
1, 141064, Note_on_c, 0, 79, 0
1, 141064, Note_on_c, 0, 74, 44
1, 141096, Note_on_c, 0, 79, 28
1, 141100, Note_on_c, 9, 59, 0
1, 141128, Control_c, 0, 64, 127
1, 141324, Note_on_c, 0, 52, 0
1, 141324, Note_on_c, 0, 83, 0
1, 141328, Note_on_c, 0, 62, 0
1, 141328, Note_on_c, 0, 86, 0
1, 141352, Note_on_c, 0, 79, 0
1, 141352, Note_on_c, 0, 55, 0
1, 141364, Note_on_c, 0, 74, 0
1, 141424, Note_on_c, 0, 59, 0
1, 141508, Note_on_c, 0, 80, 28
1, 141544, Note_on_c, 0, 80, 0
1, 141576, Control_c, 0, 64, 0
1, 141576, Note_on_c, 1, 35, 81
1, 141580, Note_on_c, 9, 59, 31
1, 141592, Note_on_c, 1, 40, 0
1, 141604, Note_on_c, 0, 71, 56
1, 141604, Note_on_c, 0, 59, 57
1, 141604, Note_on_c, 0, 83, 46
1, 141604, Note_on_c, 0, 62, 63
1, 141620, Note_on_c, 0, 55, 52
1, 141628, Note_on_c, 9, 59, 0
1, 141632, Note_on_c, 0, 52, 36
1, 141640, Note_on_c, 0, 62, 0
1, 141666, Note_on_c, 1, 35, 0
1, 141668, Note_on_c, 0, 71, 0
1, 141672, Note_on_c, 0, 52, 0
1, 141688, Note_on_c, 0, 59, 0
1, 141696, Note_on_c, 0, 83, 0
1, 141708, Note_on_c, 0, 55, 0
1, 141712, Control_c, 0, 64, 127
1, 141718, Note_on_c, 9, 59, 37
1, 141728, Note_on_c, 1, 34, 93
1, 141830, Note_on_c, 9, 59, 0
1, 141852, Note_on_c, 0, 90, 75
1, 141868, Note_on_c, 0, 78, 58
1, 141884, Note_on_c, 0, 59, 47
1, 141888, Note_on_c, 0, 62, 49
1, 141932, Note_on_c, 0, 62, 0
1, 141944, Note_on_c, 0, 78, 0
1, 141948, Note_on_c, 0, 59, 0
1, 141948, Note_on_c, 0, 90, 0
1, 142076, Control_c, 0, 64, 0
1, 142102, Note_on_c, 9, 59, 49
1, 142128, Note_on_c, 0, 64, 55
1, 142132, Note_on_c, 0, 86, 65
1, 142136, Note_on_c, 0, 74, 54
1, 142136, Note_on_c, 0, 57, 40
1, 142140, Note_on_c, 0, 55, 44
1, 142140, Note_on_c, 0, 60, 46
1, 142216, Note_on_c, 9, 59, 0
1, 142228, Control_c, 0, 64, 127
1, 142448, Note_on_c, 1, 33, 87
1, 142470, Note_on_c, 1, 34, 0
1, 142476, Note_on_c, 0, 64, 0
1, 142482, Note_on_c, 9, 59, 38
1, 142556, Note_on_c, 0, 60, 0
1, 142568, Note_on_c, 0, 57, 0
1, 142576, Note_on_c, 0, 55, 0
1, 142592, Note_on_c, 0, 74, 0
1, 142600, Note_on_c, 9, 59, 0
1, 142732, Note_on_c, 0, 64, 56
1, 142744, Note_on_c, 0, 60, 50
1, 142744, Note_on_c, 0, 55, 43
1, 142748, Note_on_c, 0, 57, 46
1, 142788, Note_on_c, 0, 86, 0
1, 142816, Note_on_c, 0, 64, 0
1, 142828, Note_on_c, 0, 60, 0
1, 142856, Note_on_c, 1, 45, 101
1, 142864, Note_on_c, 0, 55, 0
1, 142870, Note_on_c, 9, 59, 44
1, 142888, Note_on_c, 9, 44, 54
1, 142924, Note_on_c, 0, 57, 0
1, 142982, Note_on_c, 9, 59, 0
1, 143004, Note_on_c, 9, 44, 0
1, 143072, Note_on_c, 1, 45, 0
1, 143104, Note_on_c, 1, 37, 46
1, 143136, Note_on_c, 9, 59, 31
1, 143144, Note_on_c, 0, 60, 39
1, 143152, Note_on_c, 1, 33, 0
1, 143176, Note_on_c, 9, 59, 0
1, 143188, Note_on_c, 0, 60, 0
1, 143208, Control_c, 0, 64, 0
1, 143254, Note_on_c, 9, 59, 40
1, 143260, Note_on_c, 1, 38, 82
1, 143264, Note_on_c, 0, 54, 54
1, 143264, Note_on_c, 0, 64, 54
1, 143272, Note_on_c, 0, 60, 44
1, 143288, Note_on_c, 1, 37, 0
1, 143404, Note_on_c, 9, 59, 0
1, 143440, Note_on_c, 0, 60, 0
1, 143536, Note_on_c, 0, 60, 43
1, 143548, Note_on_c, 0, 64, 0
1, 143618, Note_on_c, 9, 59, 49
1, 143632, Note_on_c, 9, 44, 46
1, 143640, Note_on_c, 1, 50, 106
1, 143644, Note_on_c, 0, 91, 117
1, 143652, Control_c, 0, 64, 127
1, 143656, Note_on_c, 0, 60, 0
1, 143680, Control_c, 0, 64, 0
1, 143696, Control_c, 0, 64, 127
1, 143778, Note_on_c, 9, 44, 0
1, 143782, Note_on_c, 9, 59, 0
1, 143800, Note_on_c, 0, 91, 0
1, 143832, Note_on_c, 0, 54, 0
1, 143884, Note_on_c, 0, 91, 84
1, 143884, Control_c, 0, 64, 0
1, 143896, Note_on_c, 0, 54, 63
1, 143908, Note_on_c, 0, 64, 52
1, 143916, Note_on_c, 0, 60, 56
1, 143976, Note_on_c, 0, 64, 0
1, 144002, Note_on_c, 9, 44, 43
1, 144004, Note_on_c, 0, 60, 0
1, 144012, Note_on_c, 0, 91, 0
1, 144024, Control_c, 0, 64, 127
1, 144024, Note_on_c, 9, 59, 43
1, 144050, Note_on_c, 1, 38, 0
1, 144064, Note_on_c, 0, 86, 31
1, 144100, Note_on_c, 0, 54, 0
1, 144120, Note_on_c, 9, 59, 0
1, 144166, Note_on_c, 9, 44, 0
1, 144184, Note_on_c, 0, 86, 0
1, 144288, Note_on_c, 0, 86, 69
1, 144300, Note_on_c, 9, 59, 34
1, 144354, Note_on_c, 9, 59, 0
1, 144380, Control_c, 0, 64, 0
1, 144384, Note_on_c, 0, 86, 0
1, 144416, Note_on_c, 1, 43, 68
1, 144424, Note_on_c, 0, 62, 31
1, 144424, Note_on_c, 0, 52, 43
1, 144424, Note_on_c, 9, 59, 48
1, 144428, Note_on_c, 0, 57, 43
1, 144428, Note_on_c, 0, 59, 36
1, 144440, Note_on_c, 1, 50, 0
1, 144546, Note_on_c, 9, 59, 0
1, 144792, Note_on_c, 9, 59, 60
1, 144880, Note_on_c, 0, 59, 0
1, 144888, Note_on_c, 0, 62, 0
1, 144908, Note_on_c, 0, 57, 0
1, 144962, Note_on_c, 9, 59, 0
1, 145052, Note_on_c, 0, 62, 43
1, 145052, Note_on_c, 0, 59, 52
1, 145068, Note_on_c, 0, 57, 43
1, 145084, Note_on_c, 0, 62, 0
1, 145104, Note_on_c, 0, 57, 0
1, 145132, Note_on_c, 0, 59, 0
1, 145158, Note_on_c, 9, 59, 51
1, 145176, Note_on_c, 0, 79, 64
1, 145244, Note_on_c, 0, 79, 0
1, 145324, Note_on_c, 9, 59, 0
1, 145324, Note_on_c, 0, 81, 85
1, 145384, Note_on_c, 0, 52, 0
1, 145408, Note_on_c, 0, 81, 0
1, 145420, Note_on_c, 1, 38, 82
1, 145448, Note_on_c, 0, 83, 87
1, 145452, Note_on_c, 1, 38, 0
1, 145536, Note_on_c, 0, 83, 0
1, 145558, Note_on_c, 1, 31, 97
1, 145564, Note_on_c, 9, 59, 46
1, 145604, Note_on_c, 0, 55, 57
1, 145604, Note_on_c, 0, 84, 75
1, 145604, Note_on_c, 0, 88, 87
1, 145612, Note_on_c, 0, 81, 79
1, 145612, Note_on_c, 0, 60, 50
1, 145612, Note_on_c, 0, 76, 57
1, 145624, Note_on_c, 0, 77, 68
1, 145652, Note_on_c, 0, 77, 0
1, 145652, Note_on_c, 0, 65, 22
1, 145668, Note_on_c, 0, 64, 17
1, 145708, Note_on_c, 0, 65, 0
1, 145712, Note_on_c, 0, 60, 0
1, 145712, Note_on_c, 9, 59, 0
1, 145720, Note_on_c, 0, 55, 0
1, 145748, Note_on_c, 0, 64, 0
1, 145776, Note_on_c, 0, 81, 0
1, 145784, Note_on_c, 0, 76, 0
1, 145800, Note_on_c, 0, 84, 0
1, 145800, Note_on_c, 0, 88, 0
1, 145920, Note_on_c, 1, 34, 93
1, 145922, Note_on_c, 1, 43, 0
1, 145932, Note_on_c, 1, 31, 0
1, 145944, Note_on_c, 0, 53, 61
1, 145948, Note_on_c, 0, 86, 72
1, 145948, Note_on_c, 9, 46, 36
1, 145952, Note_on_c, 0, 64, 58
1, 145952, Note_on_c, 9, 59, 56
1, 145954, Note_on_c, 1, 35, 93
1, 145960, Note_on_c, 0, 80, 58
1, 145964, Note_on_c, 0, 59, 55
1, 145968, Note_on_c, 0, 83, 46
1, 145968, Note_on_c, 0, 74, 41
1, 145990, Note_on_c, 1, 34, 0
1, 146088, Note_on_c, 0, 83, 0
1, 146112, Note_on_c, 0, 86, 0
1, 146120, Note_on_c, 0, 80, 0
1, 146120, Note_on_c, 0, 74, 0
1, 146124, Note_on_c, 0, 64, 0
1, 146136, Note_on_c, 0, 53, 0
1, 146196, Note_on_c, 0, 59, 0
1, 146198, Note_on_c, 9, 59, 0
1, 146224, Note_on_c, 0, 83, 69
1, 146232, Note_on_c, 0, 63, 66
1, 146236, Note_on_c, 0, 78, 63
1, 146240, Note_on_c, 0, 59, 37
1, 146240, Note_on_c, 0, 53, 46
1, 146244, Note_on_c, 0, 71, 32
1, 146252, Note_on_c, 0, 72, 40
1, 146268, Note_on_c, 0, 56, 37
1, 146304, Note_on_c, 0, 72, 0
1, 146304, Note_on_c, 0, 71, 0
1, 146304, Control_c, 0, 64, 127
1, 146312, Note_on_c, 0, 79, 59
1, 146316, Note_on_c, 0, 78, 0
1, 146320, Note_on_c, 0, 63, 0
1, 146322, Note_on_c, 1, 36, 110
1, 146324, Note_on_c, 0, 56, 0
1, 146328, Note_on_c, 0, 53, 0
1, 146344, Note_on_c, 0, 79, 0
1, 146344, Control_c, 0, 64, 0
1, 146360, Note_on_c, 9, 59, 40
1, 146368, Note_on_c, 0, 83, 0
1, 146376, Note_on_c, 1, 35, 0
1, 146380, Note_on_c, 0, 59, 0
1, 146466, Note_on_c, 9, 59, 0
1, 146480, Note_on_c, 0, 63, 60
1, 146484, Note_on_c, 0, 53, 48
1, 146492, Note_on_c, 0, 82, 74
1, 146500, Note_on_c, 0, 70, 67
1, 146508, Note_on_c, 0, 59, 38
1, 146524, Note_on_c, 9, 46, 0
1, 146524, Note_on_c, 0, 56, 32
1, 146528, Control_c, 0, 64, 127
1, 146584, Note_on_c, 0, 53, 0
1, 146598, Note_on_c, 9, 59, 30
1, 146608, Note_on_c, 0, 63, 0
1, 146616, Note_on_c, 0, 82, 0
1, 146640, Note_on_c, 0, 70, 0
1, 146640, Control_c, 0, 64, 0
1, 146642, Note_on_c, 9, 59, 0
1, 146648, Note_on_c, 0, 56, 0
1, 146668, Note_on_c, 0, 59, 0
1, 146728, Note_on_c, 0, 75, 66
1, 146728, Note_on_c, 9, 59, 44
1, 146732, Note_on_c, 0, 59, 31
1, 146740, Note_on_c, 0, 62, 55
1, 146760, Note_on_c, 0, 52, 46
1, 146760, Note_on_c, 0, 55, 42
1, 146768, Note_on_c, 0, 79, 52
1, 146796, Note_on_c, 0, 67, 19
1, 146812, Control_c, 0, 64, 127
1, 146840, Note_on_c, 0, 75, 0
1, 146872, Note_on_c, 9, 59, 0
1, 147088, Note_on_c, 9, 59, 54
1, 147132, Note_on_c, 0, 62, 0
1, 147160, Note_on_c, 0, 55, 0
1, 147164, Note_on_c, 0, 67, 0
1, 147168, Note_on_c, 0, 59, 0
1, 147184, Note_on_c, 0, 52, 0
1, 147200, Note_on_c, 0, 79, 0
1, 147282, Note_on_c, 9, 59, 0
1, 147324, Note_on_c, 0, 59, 45
1, 147328, Note_on_c, 0, 52, 42
1, 147328, Note_on_c, 0, 67, 48
1, 147328, Note_on_c, 0, 62, 48
1, 147328, Note_on_c, 0, 79, 48
1, 147332, Note_on_c, 0, 74, 54
1, 147344, Note_on_c, 0, 55, 41
1, 147376, Note_on_c, 9, 59, 33
1, 147432, Note_on_c, 9, 59, 0
1, 147436, Note_on_c, 0, 59, 0
1, 147440, Note_on_c, 0, 62, 0
1, 147448, Note_on_c, 0, 74, 0
1, 147452, Note_on_c, 0, 79, 0
1, 147460, Note_on_c, 0, 55, 0
1, 147496, Note_on_c, 9, 59, 50
1, 147516, Note_on_c, 0, 67, 0
1, 147520, Note_on_c, 0, 52, 0
1, 147682, Note_on_c, 9, 59, 0
1, 147720, Control_c, 0, 64, 0
1, 147792, Note_on_c, 0, 60, 48
1, 147844, Note_on_c, 0, 63, 66
1, 147848, Note_on_c, 0, 74, 68
1, 147852, Note_on_c, 0, 67, 63
1, 147852, Note_on_c, 9, 59, 60
1, 147856, Note_on_c, 1, 41, 83
1, 147864, Note_on_c, 0, 73, 35
1, 147868, Note_on_c, 0, 60, 0
1, 147872, Note_on_c, 0, 62, 54
1, 147880, Note_on_c, 0, 64, 37
1, 147892, Note_on_c, 0, 69, 26
1, 147896, Note_on_c, 1, 36, 0
1, 147920, Note_on_c, 0, 64, 0
1, 148066, Note_on_c, 9, 59, 0
1, 148080, Note_on_c, 0, 67, 0
1, 148080, Note_on_c, 0, 69, 0
1, 148096, Note_on_c, 0, 74, 0
1, 148104, Note_on_c, 0, 63, 0
1, 148112, Note_on_c, 0, 73, 0
1, 148124, Note_on_c, 0, 62, 0
1, 148130, Note_on_c, 0, 61, 55
1, 148130, Note_on_c, 9, 59, 39
1, 148182, Note_on_c, 9, 59, 0
1, 148216, Note_on_c, 0, 61, 0
1, 148232, Note_on_c, 9, 59, 44
1, 148240, Note_on_c, 0, 63, 56
1, 148256, Note_on_c, 0, 60, 54
1, 148256, Note_on_c, 0, 72, 52
1, 148256, Note_on_c, 0, 67, 48
1, 148304, Note_on_c, 0, 69, 26
1, 148316, Control_c, 0, 64, 127
1, 148424, Note_on_c, 9, 59, 0
1, 148456, Note_on_c, 0, 67, 0
1, 148492, Note_on_c, 0, 63, 0
1, 148544, Note_on_c, 0, 69, 0
1, 148608, Note_on_c, 9, 59, 59
1, 148632, Note_on_c, 0, 63, 28
1, 148652, Note_on_c, 0, 57, 44
1, 148700, Note_on_c, 0, 57, 0
1, 148712, Note_on_c, 0, 72, 0
1, 148720, Note_on_c, 0, 60, 0
1, 148752, Note_on_c, 0, 63, 0
1, 148800, Note_on_c, 9, 59, 0
1, 148864, Control_c, 0, 64, 0
1, 148896, Note_on_c, 1, 36, 68
1, 148898, Note_on_c, 9, 59, 30
1, 148952, Note_on_c, 1, 41, 0
1, 148966, Note_on_c, 1, 36, 0
1, 148978, Note_on_c, 9, 59, 0
1, 149004, Note_on_c, 1, 40, 76
1, 149004, Note_on_c, 9, 59, 39
1, 149040, Note_on_c, 0, 52, 46
1, 149044, Note_on_c, 0, 63, 54
1, 149052, Note_on_c, 0, 56, 24
1, 149056, Note_on_c, 0, 71, 44
1, 149064, Note_on_c, 0, 68, 34
1, 149120, Note_on_c, 0, 71, 0
1, 149136, Note_on_c, 0, 63, 0
1, 149140, Note_on_c, 0, 68, 0
1, 149164, Note_on_c, 9, 59, 0
1, 149376, Note_on_c, 9, 59, 59
1, 149384, Note_on_c, 9, 44, 37
1, 149416, Note_on_c, 0, 64, 57
1, 149480, Note_on_c, 0, 64, 0
1, 149484, Note_on_c, 0, 66, 56
1, 149528, Note_on_c, 9, 44, 0
1, 149564, Note_on_c, 0, 64, 39
1, 149572, Note_on_c, 0, 66, 0
1, 149672, Note_on_c, 0, 64, 0
1, 149672, Note_on_c, 0, 63, 48
1, 149720, Note_on_c, 0, 63, 0
1, 149750, Note_on_c, 9, 44, 36
1, 149808, Note_on_c, 1, 44, 83
1, 149812, Note_on_c, 0, 64, 55
1, 149848, Note_on_c, 0, 56, 0
1, 149864, Note_on_c, 0, 52, 0
1, 149920, Note_on_c, 0, 64, 0
1, 149936, Note_on_c, 9, 59, 0
1, 149948, Note_on_c, 0, 66, 56
1, 149968, Note_on_c, 9, 44, 0
1, 150032, Note_on_c, 0, 66, 0
1, 150032, Note_on_c, 0, 64, 36
1, 150040, Note_on_c, 9, 59, 29
1, 150104, Note_on_c, 9, 59, 0
1, 150116, Note_on_c, 0, 64, 0
1, 150128, Note_on_c, 0, 63, 37
1, 150164, Note_on_c, 0, 63, 0
1, 150172, Note_on_c, 9, 59, 50
1, 150208, Note_on_c, 1, 40, 0
1, 150240, Note_on_c, 0, 64, 46
1, 150328, Note_on_c, 0, 64, 0
1, 150340, Note_on_c, 0, 66, 50
1, 150372, Note_on_c, 0, 66, 0
1, 150390, Note_on_c, 9, 59, 0
1, 150408, Note_on_c, 0, 64, 40
1, 150450, Note_on_c, 1, 37, 69
1, 150488, Note_on_c, 0, 64, 0
1, 150500, Note_on_c, 0, 63, 54
1, 150502, Note_on_c, 1, 37, 0
1, 150536, Note_on_c, 0, 63, 0
1, 150536, Note_on_c, 0, 55, 27
1, 150540, Note_on_c, 1, 44, 0
1, 150544, Note_on_c, 9, 44, 39
1, 150556, Note_on_c, 9, 59, 59
1, 150566, Note_on_c, 1, 49, 93
1, 150588, Note_on_c, 0, 55, 0
1, 150604, Note_on_c, 0, 64, 54
1, 150656, Note_on_c, 9, 44, 0
1, 150788, Note_on_c, 0, 64, 0
1, 150824, Note_on_c, 0, 71, 83
1, 150854, Note_on_c, 9, 59, 0
1, 150864, Note_on_c, 0, 59, 41
1, 150868, Note_on_c, 0, 49, 40
1, 150900, Note_on_c, 0, 59, 0
1, 150920, Note_on_c, 0, 49, 0
1, 150924, Note_on_c, 0, 71, 0
1, 150936, Note_on_c, 9, 44, 38
1, 150944, Note_on_c, 9, 59, 30
1, 150988, Note_on_c, 0, 64, 49
1, 151030, Note_on_c, 9, 59, 0
1, 151088, Note_on_c, 9, 44, 0
1, 151170, Note_on_c, 9, 59, 56
1, 151190, Note_on_c, 1, 39, 71
1, 151240, Note_on_c, 0, 64, 0
1, 151240, Note_on_c, 0, 63, 52
1, 151276, Note_on_c, 1, 39, 0
1, 151280, Note_on_c, 0, 63, 0
1, 151334, Note_on_c, 1, 42, 90
1, 151360, Note_on_c, 1, 49, 0
1, 151364, Note_on_c, 0, 64, 36
1, 151464, Note_on_c, 9, 59, 0
1, 151528, Note_on_c, 0, 64, 0
1, 151544, Note_on_c, 9, 59, 33
1, 151588, Note_on_c, 0, 73, 78
1, 151604, Note_on_c, 0, 42, 49
1, 151622, Note_on_c, 9, 59, 0
1, 151636, Note_on_c, 0, 42, 0
1, 151686, Note_on_c, 9, 44, 41
1, 151688, Note_on_c, 0, 73, 0
1, 151692, Note_on_c, 9, 59, 50
1, 151768, Note_on_c, 0, 64, 38
1, 151784, Note_on_c, 9, 44, 0
1, 151900, Note_on_c, 9, 59, 0
1, 151980, Note_on_c, 0, 64, 0
1, 151992, Note_on_c, 0, 63, 51
1, 152000, Note_on_c, 0, 57, 47
1, 152000, Note_on_c, 0, 54, 39
1, 152028, Note_on_c, 0, 57, 0
1, 152040, Note_on_c, 0, 63, 0
1, 152064, Note_on_c, 0, 54, 0
1, 152064, Note_on_c, 9, 59, 54
1, 152070, Note_on_c, 1, 42, 0
1, 152102, Note_on_c, 1, 36, 79
1, 152128, Note_on_c, 0, 64, 46
1, 152200, Note_on_c, 0, 64, 0
1, 152200, Note_on_c, 1, 36, 0
1, 152216, Note_on_c, 9, 59, 0
1, 152336, Note_on_c, 0, 74, 83
1, 152396, Note_on_c, 0, 74, 0
1, 152438, Note_on_c, 9, 59, 50
1, 152464, Note_on_c, 1, 35, 69
1, 152536, Note_on_c, 0, 64, 73
1, 152584, Note_on_c, 9, 59, 0
1, 152724, Note_on_c, 0, 63, 65
1, 152732, Note_on_c, 0, 64, 0
1, 152732, Note_on_c, 0, 51, 52
1, 152732, Note_on_c, 0, 57, 60
1, 152738, Note_on_c, 9, 59, 46
1, 152754, Note_on_c, 9, 53, 42
1, 152768, Note_on_c, 0, 57, 0
1, 152776, Note_on_c, 0, 51, 0
1, 152792, Note_on_c, 0, 63, 0
1, 152840, Note_on_c, 1, 47, 109
1, 152850, Note_on_c, 1, 35, 0
1, 152876, Note_on_c, 0, 64, 60
1, 152940, Note_on_c, 9, 59, 0
1, 152980, Note_on_c, 0, 64, 0
1, 153088, Note_on_c, 9, 53, 0
1, 153096, Note_on_c, 0, 76, 96
1, 153116, Note_on_c, 0, 62, 50
1, 153122, Note_on_c, 0, 57, 57
1, 153122, Note_on_c, 9, 59, 43
1, 153128, Note_on_c, 0, 52, 47
1, 153144, Note_on_c, 0, 62, 0
1, 153156, Note_on_c, 0, 52, 0
1, 153164, Note_on_c, 0, 57, 0
1, 153196, Note_on_c, 0, 76, 0
1, 153200, Note_on_c, 9, 59, 0
1, 153216, Note_on_c, 1, 47, 0
1, 153228, Note_on_c, 1, 39, 74
1, 153286, Note_on_c, 9, 59, 45
1, 153288, Note_on_c, 9, 53, 50
1, 153452, Note_on_c, 9, 38, 48
1, 153490, Note_on_c, 9, 59, 0
1, 153496, Note_on_c, 0, 62, 58
1, 153500, Note_on_c, 9, 53, 0
1, 153512, Note_on_c, 0, 59, 50
1, 153520, Note_on_c, 0, 62, 0
1, 153522, Note_on_c, 9, 38, 0
1, 153540, Note_on_c, 0, 59, 0
1, 153608, Note_on_c, 1, 39, 0
1, 153612, Note_on_c, 9, 59, 34
1, 153618, Note_on_c, 1, 40, 76
1, 153724, Note_on_c, 9, 59, 0
1, 153858, Note_on_c, 9, 59, 46
1, 153864, Note_on_c, 9, 38, 27
1, 153892, Note_on_c, 0, 62, 60
1, 153900, Note_on_c, 0, 59, 49
1, 153906, Note_on_c, 9, 38, 0
1, 153916, Note_on_c, 0, 62, 0
1, 153928, Note_on_c, 0, 55, 35
1, 153996, Note_on_c, 0, 59, 0
1, 154020, Note_on_c, 0, 55, 0
1, 154020, Note_on_c, 0, 67, 52
1, 154024, Note_on_c, 9, 59, 0
1, 154034, Note_on_c, 9, 44, 35
1, 154076, Note_on_c, 0, 67, 0
1, 154088, Note_on_c, 0, 69, 52
1, 154114, Note_on_c, 9, 44, 0
1, 154136, Note_on_c, 0, 67, 58
1, 154140, Note_on_c, 0, 69, 0
1, 154210, Note_on_c, 9, 59, 34
1, 154236, Note_on_c, 0, 67, 0
1, 154244, Note_on_c, 0, 66, 52
1, 154258, Note_on_c, 9, 59, 0
1, 154288, Note_on_c, 0, 66, 0
1, 154288, Note_on_c, 0, 59, 31
1, 154300, Note_on_c, 0, 55, 28
1, 154308, Note_on_c, 0, 67, 41
1, 154354, Note_on_c, 9, 59, 45
1, 154356, Note_on_c, 0, 59, 0
1, 154360, Note_on_c, 0, 55, 0
1, 154404, Note_on_c, 0, 67, 0
1, 154404, Note_on_c, 0, 69, 50
1, 154476, Note_on_c, 0, 69, 0
1, 154484, Note_on_c, 0, 70, 63
1, 154512, Note_on_c, 0, 70, 0
1, 154564, Note_on_c, 0, 72, 61
1, 154572, Note_on_c, 9, 59, 0
1, 154592, Note_on_c, 0, 72, 0
1, 154636, Note_on_c, 0, 73, 33
1, 154656, Note_on_c, 1, 44, 80
1, 154672, Note_on_c, 0, 75, 70
1, 154676, Note_on_c, 0, 73, 0
1, 154708, Note_on_c, 0, 75, 0
1, 154732, Note_on_c, 1, 44, 0
1, 154752, Note_on_c, 1, 40, 0
1, 154754, Note_on_c, 9, 59, 48
1, 154760, Note_on_c, 0, 76, 63
1, 154788, Note_on_c, 0, 76, 0
1, 154790, Note_on_c, 1, 45, 88
1, 154824, Note_on_c, 0, 78, 61
1, 154848, Note_on_c, 0, 78, 0
1, 154904, Note_on_c, 0, 79, 54
1, 154908, Note_on_c, 9, 59, 0
1, 154968, Note_on_c, 0, 79, 0
1, 154972, Note_on_c, 0, 81, 45
1, 155032, Note_on_c, 0, 81, 0
1, 155036, Note_on_c, 0, 82, 63
1, 155060, Note_on_c, 0, 82, 0
1, 155112, Note_on_c, 0, 84, 64
1, 155132, Note_on_c, 9, 59, 51
1, 155148, Note_on_c, 9, 44, 35
1, 155156, Note_on_c, 0, 84, 0
1, 155160, Note_on_c, 0, 85, 52
1, 155168, Note_on_c, 1, 40, 85
1, 155218, Note_on_c, 9, 44, 0
1, 155224, Note_on_c, 0, 85, 0
1, 155224, Note_on_c, 0, 87, 45
1, 155296, Note_on_c, 0, 87, 0
1, 155300, Note_on_c, 0, 88, 57
1, 155328, Note_on_c, 9, 59, 0
1, 155372, Note_on_c, 0, 88, 0
1, 155384, Note_on_c, 0, 91, 89
1, 155388, Note_on_c, 0, 66, 49
1, 155392, Note_on_c, 0, 61, 52
1, 155404, Note_on_c, 0, 55, 51
1, 155458, Note_on_c, 1, 45, 0
1, 155496, Note_on_c, 0, 88, 72
1, 155512, Note_on_c, 0, 91, 0
1, 155512, Note_on_c, 9, 46, 44
1, 155532, Note_on_c, 1, 40, 0
1, 155538, Note_on_c, 1, 33, 88
1, 155542, Note_on_c, 9, 59, 49
1, 155580, Note_on_c, 0, 88, 0
1, 155616, Note_on_c, 0, 66, 0
1, 155648, Note_on_c, 9, 46, 0
1, 155692, Note_on_c, 0, 84, 82
1, 155696, Note_on_c, 0, 55, 0
1, 155702, Note_on_c, 9, 59, 0
1, 155772, Note_on_c, 0, 84, 0
1, 155824, Note_on_c, 9, 59, 33
1, 155832, Note_on_c, 0, 83, 37
1, 155840, Note_on_c, 0, 81, 39
1, 155848, Note_on_c, 0, 61, 0
1, 155872, Note_on_c, 0, 83, 0
1, 155872, Note_on_c, 0, 81, 0
1, 155894, Note_on_c, 9, 59, 0
1, 155952, Note_on_c, 0, 79, 50
1, 155952, Note_on_c, 9, 59, 46
1, 155960, Note_on_c, 0, 59, 47
1, 155968, Note_on_c, 0, 60, 48
1, 155980, Note_on_c, 0, 79, 0
1, 155980, Note_on_c, 0, 55, 38
1, 155992, Note_on_c, 0, 64, 24
1, 156088, Note_on_c, 0, 86, 87
1, 156124, Note_on_c, 9, 59, 0
1, 156204, Note_on_c, 0, 86, 0
1, 156256, Note_on_c, 0, 83, 51
1, 156272, Note_on_c, 9, 44, 38
1, 156284, Note_on_c, 0, 83, 0
1, 156296, Note_on_c, 1, 45, 124
1, 156320, Note_on_c, 9, 59, 57
1, 156332, Note_on_c, 1, 33, 0
1, 156440, Note_on_c, 0, 64, 0
1, 156476, Note_on_c, 9, 44, 0
1, 156484, Note_on_c, 0, 55, 0
1, 156488, Note_on_c, 0, 60, 0
1, 156508, Note_on_c, 0, 59, 0
1, 156584, Note_on_c, 0, 80, 72
1, 156628, Note_on_c, 0, 64, 43
1, 156648, Note_on_c, 0, 60, 40
1, 156660, Note_on_c, 0, 59, 31
1, 156668, Note_on_c, 0, 55, 24
1, 156674, Note_on_c, 1, 37, 80
1, 156680, Note_on_c, 1, 45, 0
1, 156684, Note_on_c, 9, 44, 39
1, 156692, Note_on_c, 0, 80, 0
1, 156720, Note_on_c, 0, 83, 79
1, 156820, Note_on_c, 0, 60, 0
1, 156820, Note_on_c, 0, 64, 0
1, 156828, Note_on_c, 9, 44, 0
1, 156838, Note_on_c, 9, 59, 0
1, 156840, Note_on_c, 0, 59, 0
1, 156856, Note_on_c, 0, 55, 0
1, 156916, Note_on_c, 0, 83, 0
1, 156952, Note_on_c, 0, 80, 59
1, 156956, Note_on_c, 9, 59, 34
1, 157030, Note_on_c, 9, 59, 0
1, 157048, Note_on_c, 0, 80, 0
1, 157084, Note_on_c, 0, 64, 46
1, 157084, Note_on_c, 1, 38, 81
1, 157084, Note_on_c, 9, 59, 48
1, 157090, Note_on_c, 1, 37, 0
1, 157096, Note_on_c, 0, 60, 41
1, 157100, Note_on_c, 0, 54, 46
1, 157120, Note_on_c, 0, 81, 48
1, 157248, Note_on_c, 0, 81, 0
1, 157256, Note_on_c, 9, 59, 0
1, 157368, Note_on_c, 0, 80, 82
1, 157420, Note_on_c, 0, 64, 0
1, 157462, Note_on_c, 9, 53, 48
1, 157468, Note_on_c, 0, 80, 0
1, 157472, Note_on_c, 9, 52, 47
1, 157506, Note_on_c, 9, 52, 0
1, 157564, Note_on_c, 0, 60, 0
1, 157564, Note_on_c, 0, 75, 75
1, 157604, Note_on_c, 0, 54, 0
1, 157644, Note_on_c, 0, 75, 0
1, 157744, Note_on_c, 0, 54, 52
1, 157752, Note_on_c, 0, 72, 57
1, 157752, Note_on_c, 0, 64, 52
1, 157764, Note_on_c, 0, 60, 45
1, 157788, Note_on_c, 1, 40, 69
1, 157836, Note_on_c, 0, 64, 0
1, 157852, Note_on_c, 0, 72, 0
1, 157864, Note_on_c, 0, 60, 0
1, 157894, Note_on_c, 1, 40, 0
1, 157904, Note_on_c, 1, 38, 0
1, 157912, Note_on_c, 0, 68, 41
1, 158056, Note_on_c, 0, 54, 0
1, 158082, Note_on_c, 1, 42, 81
1, 158088, Note_on_c, 0, 68, 0
1, 158112, Note_on_c, 9, 53, 0
1, 158128, Note_on_c, 0, 65, 63
1, 158162, Note_on_c, 1, 42, 0
1, 158164, Note_on_c, 0, 65, 0
1, 158164, Note_on_c, 0, 59, 46
1, 158168, Note_on_c, 0, 62, 39
1, 158220, Note_on_c, 9, 51, 68
1, 158232, Note_on_c, 0, 62, 0
1, 158232, Note_on_c, 1, 43, 91
1, 158264, Note_on_c, 0, 70, 56
1, 158356, Note_on_c, 0, 59, 0
1, 158412, Note_on_c, 0, 70, 0
1, 158484, Note_on_c, 0, 71, 86
1, 158518, Note_on_c, 9, 51, 0
1, 158520, Note_on_c, 0, 59, 63
1, 158528, Note_on_c, 0, 62, 47
1, 158560, Note_on_c, 0, 62, 0
1, 158568, Note_on_c, 0, 71, 0
1, 158582, Note_on_c, 9, 44, 34
1, 158626, Note_on_c, 9, 51, 71
1, 158640, Note_on_c, 0, 74, 122
1, 158668, Note_on_c, 0, 59, 0
1, 158748, Note_on_c, 9, 44, 0
1, 158806, Note_on_c, 9, 51, 0
1, 158808, Note_on_c, 0, 74, 0
1, 158876, Note_on_c, 0, 71, 76
1, 158886, Note_on_c, 1, 43, 0
1, 158892, Note_on_c, 0, 62, 50
1, 158900, Note_on_c, 0, 59, 53
1, 158904, Control_c, 0, 64, 127
1, 158932, Note_on_c, 0, 62, 0
1, 158972, Note_on_c, 0, 71, 0
1, 158978, Note_on_c, 1, 42, 74
1, 158988, Note_on_c, 9, 44, 45
1, 158996, Note_on_c, 0, 59, 0
1, 159024, Note_on_c, 9, 51, 85
1, 159028, Note_on_c, 0, 66, 57
1, 159080, Note_on_c, 1, 42, 0
1, 159152, Note_on_c, 9, 44, 0
1, 159240, Note_on_c, 1, 39, 76
1, 159252, Note_on_c, 0, 66, 0
1, 159254, Note_on_c, 9, 51, 0
1, 159280, Note_on_c, 0, 62, 58
1, 159288, Control_c, 0, 64, 0
1, 159308, Note_on_c, 0, 62, 0
1, 159360, Note_on_c, 1, 39, 0
1, 159400, Note_on_c, 1, 40, 81
1, 159420, Note_on_c, 9, 51, 42
1, 159424, Note_on_c, 0, 59, 35
1, 159424, Note_on_c, 0, 62, 58
1, 159428, Note_on_c, 0, 55, 37
1, 159432, Note_on_c, 0, 52, 35
1, 159552, Note_on_c, 0, 59, 0
1, 159552, Note_on_c, 9, 51, 0
1, 159576, Note_on_c, 0, 62, 0
1, 159660, Note_on_c, 0, 67, 68
1, 159704, Note_on_c, 0, 59, 25
1, 159748, Note_on_c, 0, 59, 0
1, 159748, Note_on_c, 0, 67, 0
1, 159762, Note_on_c, 9, 44, 44
1, 159776, Note_on_c, 9, 51, 95
1, 159808, Note_on_c, 0, 52, 0
1, 159808, Note_on_c, 0, 62, 42
1, 159816, Note_on_c, 0, 55, 0
1, 159862, Note_on_c, 9, 44, 0
1, 159948, Note_on_c, 0, 62, 0
1, 159970, Note_on_c, 9, 51, 0
1, 160032, Note_on_c, 0, 62, 63
1, 160076, Note_on_c, 9, 51, 56
1, 160128, Note_on_c, 9, 51, 0
1, 160140, Note_on_c, 0, 62, 0
1, 160176, Note_on_c, 0, 59, 48
1, 160176, Note_on_c, 9, 51, 77
1, 160216, Note_on_c, 0, 59, 0
1, 160252, Note_on_c, 1, 47, 92
1, 160268, Note_on_c, 1, 40, 0
1, 160310, Note_on_c, 9, 51, 0
1, 160412, Note_on_c, 0, 45, 56
1, 160444, Note_on_c, 0, 55, 42
1, 160480, Note_on_c, 0, 55, 0
1, 160524, Note_on_c, 0, 45, 0
1, 160528, Note_on_c, 9, 51, 86
1, 160568, Note_on_c, 0, 64, 49
1, 160644, Note_on_c, 0, 64, 0
1, 160828, Control_c, 0, 64, 127
1, 160902, Note_on_c, 9, 44, 47
1, 160912, Note_on_c, 1, 47, 0
1, 160928, Note_on_c, 1, 45, 89
1, 160950, Note_on_c, 9, 51, 0
1, 161052, Note_on_c, 9, 44, 0
1, 161148, Note_on_c, 9, 51, 68
1, 161176, Control_c, 0, 64, 0
1, 161212, Note_on_c, 9, 51, 0
1, 161282, Note_on_c, 9, 51, 74
1, 161296, Note_on_c, 0, 66, 57
1, 161312, Note_on_c, 0, 78, 68
1, 161328, Note_on_c, 0, 69, 49
1, 161332, Note_on_c, 0, 72, 48
1, 161364, Note_on_c, 0, 66, 0
1, 161404, Note_on_c, 0, 69, 0
1, 161416, Note_on_c, 0, 72, 0
1, 161436, Note_on_c, 0, 78, 0
1, 161558, Note_on_c, 9, 51, 0
1, 161568, Note_on_c, 1, 37, 58
1, 161612, Control_c, 0, 64, 127
1, 161640, Note_on_c, 1, 45, 0
1, 161676, Note_on_c, 1, 37, 0
1, 161676, Note_on_c, 1, 38, 85
1, 161874, Note_on_c, 9, 51, 62
1, 161908, Control_c, 0, 64, 40
1, 161912, Control_c, 0, 64, 0
1, 161916, Note_on_c, 9, 51, 0
1, 161970, Note_on_c, 9, 51, 73
1, 162048, Note_on_c, 9, 51, 0
1, 162064, Note_on_c, 9, 37, 39
1, 162072, Note_on_c, 0, 74, 67
1, 162072, Note_on_c, 0, 62, 45
1, 162072, Note_on_c, 0, 54, 41
1, 162072, Note_on_c, 0, 66, 53
1, 162100, Note_on_c, 0, 69, 45
1, 162108, Note_on_c, 0, 70, 31
1, 162120, Control_c, 0, 64, 72
1, 162124, Control_c, 0, 64, 127
1, 162188, Note_on_c, 9, 37, 0
1, 162280, Note_on_c, 0, 62, 0
1, 162292, Note_on_c, 0, 74, 0
1, 162316, Note_on_c, 0, 54, 0
1, 162324, Note_on_c, 0, 70, 0
1, 162326, Note_on_c, 9, 51, 72
1, 162332, Note_on_c, 0, 69, 0
1, 162344, Note_on_c, 0, 66, 0
1, 162374, Note_on_c, 1, 31, 73
1, 162376, Note_on_c, 1, 38, 0
1, 162386, Note_on_c, 9, 51, 0
1, 162388, Control_c, 0, 64, 0
1, 162434, Note_on_c, 9, 51, 71
1, 162440, Control_c, 0, 64, 127
1, 162444, Note_on_c, 0, 54, 49
1, 162456, Note_on_c, 0, 66, 57
1, 162460, Note_on_c, 0, 72, 60
1, 162460, Note_on_c, 0, 62, 45
1, 162460, Note_on_c, 9, 37, 34
1, 162496, Note_on_c, 9, 51, 0
1, 162504, Note_on_c, 9, 37, 0
1, 162508, Note_on_c, 0, 62, 0
1, 162576, Note_on_c, 0, 66, 0
1, 162592, Note_on_c, 0, 54, 0
1, 162604, Note_on_c, 0, 72, 0
1, 162680, Note_on_c, 9, 51, 71
1, 162690, Note_on_c, 9, 37, 56
1, 162690, Note_on_c, 9, 40, 48
1, 162722, Note_on_c, 9, 40, 0
1, 162736, Note_on_c, 9, 51, 0
1, 162758, Note_on_c, 1, 31, 0
1, 162768, Control_c, 0, 64, 0
1, 162770, Note_on_c, 9, 51, 49
1, 162776, Note_on_c, 9, 37, 0
1, 162822, Note_on_c, 1, 31, 91
1, 162834, Note_on_c, 9, 36, 47
1, 162840, Note_on_c, 9, 51, 0
1, 162840, Note_on_c, 9, 36, 25
1, 162848, Note_on_c, 0, 64, 50
1, 162860, Note_on_c, 0, 59, 54
1, 162864, Note_on_c, 0, 71, 59
1, 162864, Note_on_c, 0, 67, 56
1, 162872, Note_on_c, 0, 53, 49
1, 162888, Note_on_c, 9, 36, 0
1, 162924, Control_c, 0, 64, 127
1, 162930, Note_on_c, 9, 36, 0
1, 162988, Note_on_c, 0, 64, 0
1, 162988, Note_on_c, 0, 67, 0
1, 163040, Note_on_c, 0, 53, 0
1, 163072, Note_on_c, 0, 59, 0
1, 163132, Note_on_c, 0, 71, 0
1, 163148, Note_on_c, 9, 51, 37
1, 163156, Control_c, 0, 64, 0
1, 163180, Note_on_c, 9, 51, 0
1, 163216, Note_on_c, 0, 72, 60
1, 163216, Note_on_c, 0, 65, 58
1, 163216, Note_on_c, 0, 59, 53
1, 163224, Control_c, 0, 64, 127
1, 163232, Note_on_c, 9, 51, 67
1, 163236, Note_on_c, 0, 69, 49
1, 163236, Note_on_c, 0, 53, 48
1, 163292, Note_on_c, 9, 51, 0
1, 163320, Note_on_c, 0, 69, 0
1, 163332, Note_on_c, 0, 72, 0
1, 163376, Note_on_c, 0, 65, 0
1, 163396, Note_on_c, 0, 53, 0
1, 163444, Note_on_c, 0, 59, 0
1, 163456, Control_c, 0, 64, 0
1, 163516, Note_on_c, 0, 74, 65
1, 163528, Note_on_c, 0, 68, 56
1, 163528, Note_on_c, 0, 59, 49
1, 163532, Note_on_c, 0, 62, 54
1, 163532, Note_on_c, 0, 71, 52
1, 163532, Note_on_c, 0, 53, 52
1, 163532, Note_on_c, 0, 65, 39
1, 163576, Note_on_c, 9, 51, 86
1, 163596, Control_c, 0, 64, 127
1, 163612, Note_on_c, 0, 65, 0
1, 163620, Note_on_c, 0, 62, 0
1, 163624, Note_on_c, 0, 71, 0
1, 163628, Note_on_c, 0, 53, 0
1, 163644, Note_on_c, 0, 74, 0
1, 163648, Note_on_c, 0, 68, 0
1, 163672, Note_on_c, 0, 59, 0
1, 163788, Note_on_c, 0, 62, 52
1, 163788, Note_on_c, 0, 59, 47
1, 163796, Note_on_c, 0, 53, 46
1, 163836, Note_on_c, 0, 53, 0
1, 163840, Note_on_c, 9, 51, 0
1, 163856, Note_on_c, 1, 38, 59
1, 163868, Note_on_c, 0, 62, 0
1, 163896, Note_on_c, 0, 59, 0
1, 163928, Note_on_c, 1, 38, 0
1, 163954, Note_on_c, 1, 31, 0
1, 163964, Note_on_c, 1, 43, 94
1, 163984, Note_on_c, 9, 51, 42
1, 163988, Control_c, 0, 64, 0
1, 164018, Note_on_c, 9, 51, 0
1, 164036, Note_on_c, 0, 75, 75
1, 164048, Note_on_c, 0, 71, 61
1, 164048, Note_on_c, 0, 83, 68
1, 164048, Note_on_c, 0, 79, 63
1, 164052, Note_on_c, 0, 64, 69
1, 164052, Note_on_c, 0, 59, 66
1, 164056, Note_on_c, 0, 53, 64
1, 164140, Note_on_c, 0, 75, 0
1, 164140, Note_on_c, 0, 76, 51
1, 164156, Control_c, 0, 64, 127
1, 164228, Note_on_c, 0, 53, 0
1, 164240, Note_on_c, 0, 64, 0
1, 164260, Control_c, 0, 64, 0
1, 164262, Note_on_c, 9, 51, 62
1, 164300, Note_on_c, 0, 53, 54
1, 164310, Note_on_c, 9, 51, 0
1, 164312, Note_on_c, 0, 64, 68
1, 164364, Note_on_c, 9, 51, 70
1, 164436, Note_on_c, 0, 64, 0
1, 164436, Note_on_c, 0, 83, 0
1, 164440, Note_on_c, 0, 53, 0
1, 164448, Note_on_c, 0, 79, 0
1, 164456, Note_on_c, 0, 71, 0
1, 164480, Note_on_c, 0, 76, 0
1, 164486, Note_on_c, 9, 51, 0
1, 164492, Note_on_c, 0, 59, 0
1, 164572, Control_c, 0, 64, 127
1, 164576, Control_c, 0, 64, 0
1, 164580, Note_on_c, 0, 59, 62
1, 164580, Note_on_c, 0, 64, 56
1, 164580, Note_on_c, 0, 81, 71
1, 164580, Note_on_c, 0, 53, 57
1, 164580, Note_on_c, 0, 76, 61
1, 164588, Control_c, 0, 64, 127
1, 164588, Note_on_c, 0, 69, 57
1, 164640, Note_on_c, 0, 64, 0
1, 164648, Note_on_c, 0, 53, 0
1, 164684, Note_on_c, 1, 43, 0
1, 164716, Note_on_c, 1, 35, 75
1, 164720, Note_on_c, 9, 51, 68
1, 164728, Note_on_c, 9, 53, 66
1, 164744, Note_on_c, 0, 59, 0
1, 164748, Note_on_c, 0, 76, 0
1, 164764, Note_on_c, 9, 44, 41
1, 164768, Note_on_c, 0, 81, 0
1, 164768, Control_c, 0, 64, 0
1, 164776, Note_on_c, 0, 69, 0
1, 164796, Control_c, 0, 64, 104
1, 164800, Control_c, 0, 64, 127
1, 164824, Note_on_c, 9, 44, 0
1, 164828, Note_on_c, 0, 59, 57
1, 164832, Note_on_c, 0, 53, 60
1, 164840, Note_on_c, 0, 63, 57
1, 164944, Note_on_c, 9, 51, 0
1, 164968, Control_c, 0, 64, 0
1, 164978, Note_on_c, 9, 53, 0
1, 165004, Note_on_c, 0, 53, 0
1, 165028, Note_on_c, 0, 63, 0
1, 165058, Note_on_c, 1, 35, 0
1, 165068, Note_on_c, 0, 79, 61
1, 165076, Note_on_c, 0, 74, 63
1, 165076, Note_on_c, 0, 67, 47
1, 165094, Note_on_c, 1, 36, 80
1, 165096, Note_on_c, 0, 62, 50
1, 165112, Note_on_c, 0, 55, 50
1, 165120, Note_on_c, 0, 52, 33
1, 165126, Note_on_c, 9, 51, 51
1, 165176, Note_on_c, 0, 62, 0
1, 165180, Note_on_c, 9, 51, 0
1, 165180, Note_on_c, 0, 74, 0
1, 165192, Note_on_c, 0, 79, 0
1, 165196, Note_on_c, 0, 52, 0
1, 165212, Note_on_c, 0, 67, 0
1, 165220, Note_on_c, 0, 55, 0
1, 165240, Note_on_c, 0, 59, 0
1, 165316, Note_on_c, 0, 76, 67
1, 165332, Note_on_c, 0, 64, 52
1, 165340, Note_on_c, 0, 59, 44
1, 165340, Note_on_c, 0, 71, 40
1, 165340, Note_on_c, 0, 55, 42
1, 165348, Note_on_c, 0, 62, 41
1, 165348, Note_on_c, 0, 52, 43
1, 165384, Note_on_c, 9, 51, 69
1, 165394, Note_on_c, 9, 53, 62
1, 165456, Note_on_c, 0, 62, 0
1, 165456, Note_on_c, 0, 64, 0
1, 165468, Note_on_c, 0, 52, 0
1, 165472, Note_on_c, 0, 71, 0
1, 165472, Note_on_c, 0, 55, 0
1, 165484, Note_on_c, 0, 59, 0
1, 165484, Note_on_c, 0, 76, 0
1, 165490, Note_on_c, 9, 44, 31
1, 165552, Note_on_c, 9, 44, 0
1, 165592, Note_on_c, 0, 76, 59
1, 165592, Note_on_c, 0, 59, 48
1, 165600, Note_on_c, 0, 52, 47
1, 165600, Note_on_c, 0, 62, 51
1, 165600, Note_on_c, 0, 64, 48
1, 165604, Note_on_c, 0, 71, 49
1, 165608, Note_on_c, 0, 55, 39
1, 165648, Note_on_c, 9, 51, 0
1, 165696, Note_on_c, 9, 53, 0
1, 165778, Note_on_c, 9, 51, 37
1, 165814, Note_on_c, 9, 51, 0
1, 165858, Note_on_c, 9, 46, 50
1, 165888, Control_c, 0, 64, 127
1, 165916, Note_on_c, 9, 53, 77
1, 165916, Note_on_c, 9, 51, 60
1, 165956, Note_on_c, 0, 59, 0
1, 165956, Note_on_c, 0, 62, 0
1, 165964, Note_on_c, 0, 71, 0
1, 165996, Note_on_c, 9, 46, 0
1, 165996, Note_on_c, 0, 55, 0
1, 166024, Note_on_c, 0, 64, 0
1, 166048, Note_on_c, 0, 52, 0
1, 166068, Note_on_c, 0, 76, 0
1, 166160, Note_on_c, 9, 51, 0
1, 166224, Note_on_c, 9, 53, 0
1, 166256, Note_on_c, 1, 36, 0
1, 166264, Note_on_c, 1, 35, 82
1, 166288, Note_on_c, 9, 51, 56
1, 166360, Note_on_c, 9, 51, 0
1, 166492, Control_c, 0, 64, 0
1, 166540, Note_on_c, 0, 51, 71
1, 166540, Note_on_c, 9, 51, 71
1, 166548, Note_on_c, 0, 62, 66
1, 166548, Note_on_c, 0, 78, 85
1, 166548, Note_on_c, 0, 66, 86
1, 166548, Note_on_c, 0, 57, 66
1, 166550, Note_on_c, 9, 53, 69
1, 166556, Note_on_c, 0, 74, 78
1, 166648, Note_on_c, 9, 44, 39
1, 166662, Note_on_c, 9, 51, 0
1, 166672, Note_on_c, 9, 53, 0
1, 166696, Control_c, 0, 64, 127
1, 166752, Note_on_c, 9, 44, 0
1, 166880, Note_on_c, 1, 35, 0
1, 166886, Note_on_c, 9, 37, 46
1, 166924, Note_on_c, 1, 39, 106
1, 166924, Note_on_c, 9, 51, 52
1, 166962, Note_on_c, 9, 51, 0
1, 166966, Note_on_c, 9, 37, 0
1, 167046, Note_on_c, 9, 51, 62
1, 167052, Note_on_c, 9, 37, 45
1, 167058, Note_on_c, 0, 57, 0
1, 167058, Note_on_c, 9, 53, 72
1, 167080, Note_on_c, 0, 66, 0
1, 167088, Note_on_c, 0, 74, 0
1, 167090, Note_on_c, 9, 37, 0
1, 167116, Note_on_c, 0, 51, 0
1, 167144, Note_on_c, 0, 78, 0
1, 167148, Note_on_c, 0, 62, 0
1, 167200, Note_on_c, 9, 53, 0
1, 167206, Note_on_c, 9, 51, 0
1, 167296, Note_on_c, 9, 36, 45
1, 167340, Note_on_c, 9, 36, 0
1, 167384, Control_c, 0, 64, 0
1, 167442, Note_on_c, 9, 51, 84
1, 167448, Note_on_c, 0, 59, 67
1, 167448, Note_on_c, 0, 79, 99
1, 167448, Note_on_c, 9, 36, 40
1, 167452, Note_on_c, 0, 74, 86
1, 167452, Note_on_c, 0, 67, 83
1, 167452, Note_on_c, 0, 62, 75
1, 167460, Note_on_c, 0, 55, 47
1, 167460, Note_on_c, 0, 52, 57
1, 167464, Note_on_c, 1, 39, 0
1, 167478, Note_on_c, 1, 40, 113
1, 167484, Note_on_c, 0, 69, 39
1, 167520, Note_on_c, 0, 69, 0
1, 167636, Control_c, 0, 64, 127
1, 167638, Note_on_c, 9, 36, 0
1, 167654, Note_on_c, 9, 51, 0
1, 167768, Note_on_c, 0, 67, 0
1, 167824, Note_on_c, 9, 44, 48
1, 167840, Note_on_c, 9, 51, 75
1, 167856, Note_on_c, 0, 79, 0
1, 167864, Note_on_c, 0, 74, 0
1, 167884, Note_on_c, 0, 62, 0
1, 167904, Note_on_c, 0, 59, 0
1, 167908, Note_on_c, 0, 52, 0
1, 167912, Note_on_c, 0, 55, 0
1, 167928, Note_on_c, 9, 44, 0
1, 168000, Note_on_c, 9, 51, 0
1, 168060, Control_c, 0, 64, 0
1, 168076, Note_on_c, 0, 78, 88
1, 168080, Note_on_c, 0, 74, 92
1, 168092, Note_on_c, 0, 52, 50
1, 168092, Note_on_c, 0, 62, 56
1, 168092, Note_on_c, 0, 59, 49
1, 168100, Note_on_c, 0, 55, 45
1, 168156, Control_c, 0, 64, 127
1, 168200, Note_on_c, 9, 44, 40
1, 168220, Note_on_c, 9, 51, 81
1, 168240, Note_on_c, 0, 55, 0
1, 168244, Note_on_c, 0, 52, 0
1, 168256, Note_on_c, 0, 74, 0
1, 168264, Note_on_c, 0, 59, 0
1, 168264, Note_on_c, 0, 62, 0
1, 168264, Note_on_c, 0, 78, 0
1, 168306, Note_on_c, 9, 44, 0
1, 168332, Note_on_c, 0, 76, 81
1, 168336, Note_on_c, 0, 72, 68
1, 168352, Note_on_c, 9, 51, 0
1, 168364, Note_on_c, 0, 78, 35
1, 168432, Note_on_c, 0, 72, 0
1, 168432, Note_on_c, 0, 76, 0
1, 168460, Note_on_c, 0, 78, 0
1, 168488, Note_on_c, 1, 40, 0
1, 168496, Note_on_c, 1, 39, 73
1, 168502, Note_on_c, 9, 51, 57
1, 168572, Note_on_c, 9, 51, 0
1, 168616, Note_on_c, 0, 64, 64
1, 168624, Note_on_c, 0, 74, 74
1, 168624, Note_on_c, 9, 51, 77
1, 168626, Note_on_c, 1, 42, 98
1, 168632, Note_on_c, 0, 54, 47
1, 168644, Control_c, 0, 64, 0
1, 168648, Note_on_c, 0, 57, 46
1, 168680, Note_on_c, 1, 39, 0
1, 168770, Note_on_c, 9, 51, 0
1, 168936, Note_on_c, 0, 57, 0
1, 168948, Control_c, 0, 64, 127
1, 168972, Note_on_c, 9, 46, 37
1, 168994, Note_on_c, 9, 51, 93
1, 169032, Note_on_c, 0, 64, 0
1, 169048, Note_on_c, 0, 54, 0
1, 169100, Note_on_c, 9, 46, 0
1, 169208, Note_on_c, 0, 74, 0
1, 169240, Note_on_c, 0, 73, 57
1, 169248, Note_on_c, 0, 69, 52
1, 169252, Note_on_c, 0, 64, 57
1, 169264, Note_on_c, 0, 54, 39
1, 169320, Note_on_c, 0, 64, 0
1, 169376, Note_on_c, 0, 69, 0
1, 169376, Note_on_c, 9, 51, 0
1, 169416, Note_on_c, 0, 73, 0
1, 169420, Note_on_c, 0, 54, 0
1, 169616, Note_on_c, 1, 39, 63
1, 169632, Note_on_c, 9, 51, 60
1, 169698, Note_on_c, 9, 51, 0
1, 169700, Control_c, 0, 64, 0
1, 169736, Note_on_c, 0, 74, 61
1, 169736, Note_on_c, 1, 47, 124
1, 169740, Note_on_c, 0, 57, 45
1, 169748, Note_on_c, 0, 47, 43
1, 169752, Note_on_c, 0, 69, 48
1, 169760, Note_on_c, 0, 62, 32
1, 169766, Note_on_c, 9, 51, 71
1, 169804, Note_on_c, 1, 39, 0
1, 169820, Note_on_c, 1, 42, 0
1, 169900, Note_on_c, 0, 74, 0
1, 169960, Note_on_c, 0, 62, 0
1, 169960, Note_on_c, 9, 51, 0
1, 169988, Note_on_c, 0, 69, 0
1, 170068, Note_on_c, 0, 76, 46
1, 170068, Note_on_c, 0, 64, 40
1, 170092, Note_on_c, 0, 57, 0
1, 170112, Note_on_c, 0, 64, 0
1, 170112, Note_on_c, 9, 44, 37
1, 170124, Control_c, 0, 64, 127
1, 170148, Note_on_c, 0, 76, 0
1, 170204, Note_on_c, 9, 44, 0
1, 170324, Note_on_c, 0, 78, 68
1, 170332, Note_on_c, 0, 66, 55
1, 170340, Note_on_c, 0, 47, 0
1, 170352, Note_on_c, 0, 57, 45
1, 170380, Note_on_c, 9, 51, 60
1, 170384, Note_on_c, 0, 57, 0
1, 170384, Note_on_c, 1, 41, 116
1, 170416, Note_on_c, 1, 47, 0
1, 170416, Note_on_c, 0, 66, 0
1, 170428, Note_on_c, 0, 78, 0
1, 170448, Note_on_c, 9, 51, 0
1, 170486, Note_on_c, 9, 44, 43
1, 170508, Note_on_c, 9, 51, 72
1, 170572, Note_on_c, 0, 78, 70
1, 170580, Note_on_c, 0, 66, 42
1, 170588, Note_on_c, 9, 44, 0
1, 170620, Note_on_c, 0, 66, 0
1, 170700, Note_on_c, 9, 51, 0
1, 170716, Note_on_c, 0, 78, 0
1, 170784, Note_on_c, 1, 39, 71
1, 170824, Note_on_c, 1, 41, 0
1, 170880, Control_c, 0, 64, 0
1, 170896, Note_on_c, 9, 51, 83
1, 170902, Note_on_c, 1, 39, 0
1, 170908, Note_on_c, 0, 78, 59
1, 170916, Note_on_c, 0, 66, 57
1, 170924, Note_on_c, 1, 40, 111
1, 170928, Note_on_c, 0, 70, 44
1, 170928, Note_on_c, 0, 74, 50
1, 170928, Note_on_c, 0, 56, 46
1, 170940, Note_on_c, 0, 62, 39
1, 171004, Control_c, 0, 64, 127
1, 171074, Note_on_c, 9, 51, 0
1, 171180, Note_on_c, 0, 70, 0
1, 171196, Note_on_c, 0, 66, 0
1, 171204, Note_on_c, 0, 62, 0
1, 171208, Note_on_c, 0, 74, 0
1, 171232, Note_on_c, 0, 78, 0
1, 171264, Note_on_c, 9, 46, 45
1, 171286, Note_on_c, 9, 51, 92
1, 171474, Note_on_c, 9, 51, 0
1, 171478, Note_on_c, 1, 40, 0
1, 171480, Control_c, 0, 64, 0
1, 171484, Note_on_c, 9, 46, 0
1, 171512, Note_on_c, 0, 76, 81
1, 171516, Note_on_c, 0, 65, 75
1, 171516, Note_on_c, 0, 71, 67
1, 171520, Note_on_c, 0, 64, 74
1, 171520, Note_on_c, 0, 68, 68
1, 171522, Note_on_c, 1, 34, 104
1, 171526, Note_on_c, 9, 36, 39
1, 171568, Note_on_c, 9, 36, 0
1, 171620, Note_on_c, 0, 56, 0
1, 171620, Control_c, 0, 64, 56
1, 171624, Control_c, 0, 64, 127
1, 171640, Note_on_c, 0, 76, 0
1, 171664, Note_on_c, 0, 65, 0
1, 171666, Note_on_c, 9, 51, 82
1, 171686, Note_on_c, 9, 38, 22
1, 171688, Note_on_c, 0, 71, 0
1, 171688, Note_on_c, 0, 68, 0
1, 171708, Note_on_c, 0, 64, 0
1, 171756, Note_on_c, 0, 68, 64
1, 171768, Note_on_c, 0, 74, 60
1, 171776, Note_on_c, 0, 65, 48
1, 171776, Note_on_c, 0, 62, 45
1, 171794, Note_on_c, 9, 38, 0
1, 171796, Note_on_c, 0, 74, 0
1, 171804, Note_on_c, 0, 62, 0
1, 171808, Note_on_c, 9, 51, 0
1, 171848, Note_on_c, 0, 65, 0
1, 171892, Note_on_c, 0, 68, 0
1, 171948, Note_on_c, 9, 51, 60
1, 171986, Note_on_c, 9, 51, 0
1, 172004, Control_c, 0, 64, 0
1, 172028, Note_on_c, 1, 34, 0
1, 172048, Note_on_c, 0, 57, 48
1, 172050, Note_on_c, 9, 51, 71
1, 172056, Note_on_c, 0, 72, 68
1, 172060, Note_on_c, 1, 33, 88
1, 172068, Note_on_c, 0, 64, 57
1, 172068, Note_on_c, 0, 67, 60
1, 172156, Control_c, 0, 64, 127
1, 172188, Note_on_c, 9, 51, 0
1, 172196, Note_on_c, 0, 72, 0
1, 172236, Control_c, 0, 64, 40
1, 172240, Control_c, 0, 64, 0
1, 172332, Note_on_c, 0, 57, 0
1, 172332, Note_on_c, 0, 74, 75
1, 172344, Note_on_c, 0, 59, 64
1, 172380, Control_c, 0, 64, 127
1, 172400, Note_on_c, 0, 64, 0
1, 172418, Note_on_c, 9, 51, 75
1, 172428, Note_on_c, 0, 67, 0
1, 172468, Note_on_c, 0, 74, 0
1, 172572, Note_on_c, 9, 51, 0
1, 172588, Note_on_c, 0, 76, 79
1, 172592, Note_on_c, 0, 67, 71
1, 172596, Note_on_c, 0, 69, 66
1, 172596, Note_on_c, 0, 60, 68
1, 172600, Note_on_c, 0, 59, 0
1, 172604, Note_on_c, 0, 72, 57
1, 172678, Note_on_c, 1, 40, 108
1, 172732, Note_on_c, 1, 33, 0
1, 172740, Note_on_c, 0, 67, 0
1, 172748, Note_on_c, 0, 60, 0
1, 172748, Note_on_c, 0, 72, 0
1, 172752, Note_on_c, 0, 69, 0
1, 172768, Note_on_c, 0, 76, 0
1, 172780, Control_c, 0, 64, 0
1, 172790, Note_on_c, 9, 51, 60
1, 172818, Note_on_c, 9, 38, 22
1, 172856, Note_on_c, 0, 76, 66
1, 172856, Note_on_c, 0, 60, 63
1, 172860, Control_c, 0, 64, 104
1, 172864, Control_c, 0, 64, 127
1, 172864, Note_on_c, 0, 67, 65
1, 172868, Note_on_c, 0, 69, 68
1, 172876, Note_on_c, 0, 72, 54
1, 172898, Note_on_c, 9, 38, 0
1, 172904, Note_on_c, 9, 51, 0
1, 172956, Note_on_c, 0, 60, 0
1, 172972, Note_on_c, 0, 67, 0
1, 172984, Note_on_c, 0, 76, 0
1, 172984, Note_on_c, 0, 69, 0
1, 173020, Note_on_c, 0, 72, 0
1, 173040, Note_on_c, 9, 36, 35
1, 173094, Note_on_c, 9, 36, 0
1, 173096, Control_c, 0, 64, 0
1, 173110, Note_on_c, 1, 37, 76
1, 173116, Note_on_c, 0, 76, 80
1, 173120, Note_on_c, 0, 66, 78
1, 173126, Note_on_c, 1, 40, 0
1, 173128, Note_on_c, 0, 69, 75
1, 173128, Note_on_c, 0, 72, 54
1, 173132, Note_on_c, 0, 64, 80
1, 173168, Note_on_c, 9, 59, 75
1, 173176, Note_on_c, 9, 51, 76
1, 173238, Note_on_c, 1, 38, 101
1, 173288, Note_on_c, 0, 64, 0
1, 173292, Note_on_c, 1, 37, 0
1, 173320, Control_c, 0, 64, 127
1, 173360, Note_on_c, 0, 64, 73
1, 173414, Note_on_c, 9, 59, 0
1, 173430, Note_on_c, 9, 51, 0
1, 173540, Control_c, 0, 64, 0
1, 173548, Note_on_c, 9, 38, 33
1, 173568, Note_on_c, 9, 44, 38
1, 173584, Note_on_c, 0, 64, 0
1, 173584, Note_on_c, 9, 51, 46
1, 173606, Note_on_c, 9, 38, 0
1, 173644, Control_c, 0, 64, 127
1, 173644, Note_on_c, 0, 63, 72
1, 173670, Note_on_c, 9, 44, 0
1, 173682, Note_on_c, 9, 51, 0
1, 173792, Note_on_c, 9, 36, 36
1, 173808, Note_on_c, 1, 38, 0
1, 173820, Note_on_c, 9, 51, 76
1, 173824, Note_on_c, 1, 36, 106
1, 173828, Control_c, 0, 64, 0
1, 173860, Note_on_c, 0, 63, 0
1, 173868, Note_on_c, 9, 36, 0
1, 173892, Note_on_c, 0, 62, 76
1, 173968, Control_c, 0, 64, 127
1, 173980, Note_on_c, 9, 40, 19
1, 174028, Note_on_c, 0, 69, 0
1, 174028, Note_on_c, 0, 66, 0
1, 174028, Note_on_c, 0, 76, 0
1, 174064, Note_on_c, 9, 40, 0
1, 174072, Note_on_c, 9, 51, 0
1, 174076, Note_on_c, 0, 72, 0
1, 174080, Note_on_c, 0, 62, 0
1, 174120, Note_on_c, 0, 66, 68
1, 174136, Note_on_c, 0, 61, 61
1, 174140, Note_on_c, 0, 74, 65
1, 174148, Note_on_c, 0, 69, 40
1, 174164, Note_on_c, 0, 61, 0
1, 174166, Note_on_c, 9, 40, 68
1, 174180, Note_on_c, 0, 69, 0
1, 174192, Note_on_c, 0, 66, 0
1, 174210, Note_on_c, 9, 51, 58
1, 174236, Note_on_c, 9, 40, 0
1, 174256, Note_on_c, 0, 72, 61
1, 174278, Note_on_c, 9, 51, 0
1, 174290, Note_on_c, 1, 36, 0
1, 174328, Note_on_c, 0, 72, 0
1, 174328, Note_on_c, 9, 36, 25
1, 174332, Note_on_c, 0, 74, 0
1, 174332, Note_on_c, 1, 35, 98
1, 174348, Control_c, 0, 64, 0
1, 174360, Note_on_c, 9, 51, 71
1, 174388, Note_on_c, 0, 67, 68
1, 174404, Note_on_c, 0, 71, 59
1, 174412, Note_on_c, 0, 57, 56
1, 174420, Note_on_c, 0, 47, 32
1, 174424, Note_on_c, 9, 36, 0
1, 174428, Note_on_c, 0, 48, 39
1, 174560, Note_on_c, 9, 51, 0
1, 174582, Note_on_c, 9, 36, 36
1, 174596, Note_on_c, 0, 48, 0
1, 174626, Note_on_c, 9, 36, 0
1, 174704, Note_on_c, 9, 51, 56
1, 174708, Control_c, 0, 64, 127
1, 174710, Note_on_c, 0, 47, 0
1, 174710, Note_on_c, 9, 36, 45
1, 174716, Note_on_c, 9, 44, 43
1, 174724, Note_on_c, 0, 72, 63
1, 174776, Note_on_c, 9, 51, 0
1, 174802, Note_on_c, 9, 44, 0
1, 174804, Note_on_c, 0, 57, 0
1, 174844, Note_on_c, 9, 36, 0
1, 174916, Note_on_c, 0, 67, 0
1, 174918, Note_on_c, 9, 51, 83
1, 174932, Note_on_c, 0, 72, 0
1, 174944, Note_on_c, 0, 71, 0
1, 174948, Control_c, 0, 64, 0
1, 174988, Note_on_c, 0, 74, 67
1, 174996, Note_on_c, 0, 57, 54
1, 175000, Note_on_c, 0, 47, 45
1, 175032, Note_on_c, 0, 47, 0
1, 175056, Control_c, 0, 64, 127
1, 175076, Note_on_c, 0, 57, 0
1, 175100, Note_on_c, 9, 46, 60
1, 175152, Note_on_c, 9, 51, 0
1, 175200, Note_on_c, 9, 46, 0
1, 175224, Note_on_c, 0, 74, 0
1, 175302, Note_on_c, 9, 51, 69
1, 175356, Note_on_c, 1, 37, 55
1, 175372, Note_on_c, 9, 51, 0
1, 175392, Note_on_c, 1, 37, 0
1, 175398, Note_on_c, 1, 36, 77
1, 175446, Note_on_c, 9, 51, 73
1, 175458, Note_on_c, 1, 35, 0
1, 175462, Note_on_c, 1, 36, 0
1, 175484, Control_c, 0, 64, 0
1, 175500, Note_on_c, 0, 62, 72
1, 175504, Note_on_c, 0, 67, 85
1, 175504, Note_on_c, 0, 89, 94
1, 175504, Note_on_c, 0, 63, 66
1, 175504, Note_on_c, 0, 85, 85
1, 175504, Note_on_c, 0, 77, 89
1, 175510, Note_on_c, 1, 41, 94
1, 175516, Note_on_c, 0, 57, 67
1, 175540, Note_on_c, 0, 57, 0
1, 175568, Note_on_c, 0, 67, 0
1, 175586, Note_on_c, 1, 41, 0
1, 175616, Note_on_c, 0, 63, 0
1, 175628, Note_on_c, 0, 62, 0
1, 175632, Note_on_c, 0, 77, 0
1, 175676, Note_on_c, 0, 89, 0
1, 175688, Note_on_c, 0, 86, 45
1, 175696, Note_on_c, 0, 85, 0
1, 175712, Note_on_c, 9, 51, 0
1, 175720, Note_on_c, 0, 86, 0
1, 175778, Note_on_c, 1, 38, 83
1, 175852, Note_on_c, 9, 51, 67
1, 175852, Note_on_c, 9, 44, 41
1, 175862, Note_on_c, 1, 38, 0
1, 175900, Note_on_c, 0, 88, 82
1, 175900, Note_on_c, 0, 76, 85
1, 175900, Note_on_c, 0, 84, 72
1, 175900, Note_on_c, 1, 40, 98
1, 175916, Note_on_c, 0, 67, 82
1, 175920, Note_on_c, 0, 56, 79
1, 175924, Note_on_c, 0, 62, 63
1, 175940, Control_c, 0, 64, 127
1, 175964, Note_on_c, 9, 51, 0
1, 176034, Note_on_c, 9, 44, 0
1, 176156, Note_on_c, 0, 76, 0
1, 176204, Note_on_c, 0, 84, 0
1, 176208, Note_on_c, 0, 88, 0
1, 176212, Note_on_c, 0, 67, 0
1, 176214, Note_on_c, 1, 40, 0
1, 176224, Note_on_c, 0, 56, 0
1, 176228, Note_on_c, 0, 62, 0
1, 176230, Note_on_c, 9, 51, 72
1, 176246, Note_on_c, 1, 34, 90
1, 176252, Note_on_c, 9, 44, 39
1, 176300, Note_on_c, 0, 56, 79
1, 176304, Note_on_c, 0, 67, 115
1, 176308, Note_on_c, 0, 91, 120
1, 176312, Note_on_c, 0, 62, 80
1, 176316, Note_on_c, 0, 79, 88
1, 176316, Note_on_c, 0, 77, 86
1, 176324, Note_on_c, 0, 89, 63
1, 176352, Note_on_c, 0, 89, 0
1, 176352, Note_on_c, 9, 51, 0
1, 176384, Note_on_c, 0, 77, 0
1, 176428, Note_on_c, 9, 44, 0
1, 176484, Note_on_c, 0, 62, 0
1, 176516, Note_on_c, 0, 67, 0
1, 176520, Note_on_c, 0, 79, 0
1, 176532, Note_on_c, 0, 91, 0
1, 176534, Note_on_c, 9, 51, 70
1, 176576, Note_on_c, 0, 56, 0
1, 176582, Note_on_c, 9, 51, 0
1, 176582, Note_on_c, 1, 34, 0
1, 176604, Note_on_c, 1, 33, 94
1, 176620, Control_c, 0, 64, 0
1, 176642, Note_on_c, 9, 51, 70
1, 176684, Note_on_c, 0, 60, 86
1, 176684, Note_on_c, 0, 64, 90
1, 176688, Note_on_c, 0, 91, 111
1, 176692, Note_on_c, 0, 79, 117
1, 176692, Note_on_c, 0, 55, 73
1, 176692, Note_on_c, 0, 88, 92
1, 176700, Note_on_c, 0, 59, 66
1, 176708, Note_on_c, 0, 87, 53
1, 176728, Note_on_c, 0, 59, 0
1, 176736, Note_on_c, 0, 87, 0
1, 176764, Note_on_c, 0, 59, 25
1, 176780, Control_c, 0, 64, 127
1, 176790, Note_on_c, 9, 51, 0
1, 176872, Note_on_c, 0, 89, 38
1, 176968, Note_on_c, 0, 91, 0
1, 176980, Note_on_c, 0, 88, 0
1, 177004, Note_on_c, 0, 89, 0
1, 177020, Note_on_c, 0, 79, 0
1, 177024, Note_on_c, 0, 64, 0
1, 177030, Note_on_c, 9, 51, 77
1, 177092, Note_on_c, 0, 59, 0
1, 177100, Note_on_c, 0, 55, 0
1, 177108, Note_on_c, 0, 60, 0
1, 177142, Note_on_c, 9, 51, 0
1, 177228, Control_c, 0, 64, 0
1, 177248, Note_on_c, 0, 90, 85
1, 177252, Note_on_c, 0, 78, 92
1, 177252, Note_on_c, 0, 60, 69
1, 177256, Note_on_c, 0, 64, 68
1, 177260, Note_on_c, 0, 55, 63
1, 177260, Note_on_c, 0, 59, 57
1, 177288, Control_c, 0, 64, 127
1, 177332, Note_on_c, 0, 64, 0
1, 177344, Note_on_c, 0, 90, 0
1, 177368, Note_on_c, 0, 78, 0
1, 177380, Note_on_c, 0, 55, 0
1, 177400, Note_on_c, 0, 59, 0
1, 177408, Note_on_c, 0, 60, 0
1, 177410, Note_on_c, 9, 51, 88
1, 177492, Note_on_c, 0, 88, 74
1, 177492, Note_on_c, 0, 64, 58
1, 177504, Note_on_c, 0, 76, 51
1, 177508, Note_on_c, 0, 87, 57
1, 177524, Note_on_c, 0, 77, 50
1, 177552, Note_on_c, 0, 77, 0
1, 177560, Note_on_c, 0, 64, 0
1, 177580, Note_on_c, 0, 87, 0
1, 177588, Note_on_c, 0, 88, 0
1, 177588, Note_on_c, 0, 76, 0
1, 177654, Note_on_c, 9, 51, 0
1, 177654, Note_on_c, 9, 36, 36
1, 177698, Note_on_c, 9, 36, 0
1, 177744, Control_c, 0, 64, 0
1, 177752, Note_on_c, 1, 33, 0
1, 177784, Note_on_c, 1, 36, 89
1, 177792, Note_on_c, 0, 86, 63
1, 177792, Note_on_c, 0, 67, 58
1, 177792, Note_on_c, 0, 74, 63
1, 177800, Note_on_c, 0, 63, 55
1, 177800, Note_on_c, 0, 58, 47
1, 177800, Note_on_c, 0, 62, 49
1, 177800, Note_on_c, 9, 51, 56
1, 177814, Note_on_c, 0, 79, 49
1, 177814, Note_on_c, 9, 36, 26
1, 177824, Note_on_c, 0, 82, 39
1, 177872, Note_on_c, 9, 51, 0
1, 177912, Note_on_c, 9, 36, 0
1, 177916, Control_c, 0, 64, 127
1, 178024, Note_on_c, 9, 51, 64
1, 178064, Note_on_c, 9, 36, 41
1, 178092, Note_on_c, 9, 51, 0
1, 178108, Note_on_c, 0, 79, 0
1, 178112, Note_on_c, 0, 58, 0
1, 178112, Note_on_c, 0, 67, 0
1, 178128, Note_on_c, 9, 36, 0
1, 178156, Note_on_c, 9, 51, 69
1, 178166, Note_on_c, 9, 44, 67
1, 178192, Note_on_c, 0, 63, 0
1, 178204, Note_on_c, 0, 86, 0
1, 178208, Note_on_c, 0, 62, 0
1, 178252, Note_on_c, 0, 82, 0
1, 178256, Note_on_c, 0, 74, 0
1, 178344, Note_on_c, 9, 51, 0
1, 178396, Note_on_c, 9, 44, 0
1, 178420, Note_on_c, 0, 84, 56
1, 178420, Note_on_c, 0, 67, 54
1, 178424, Note_on_c, 0, 58, 49
1, 178432, Note_on_c, 0, 62, 52
1, 178432, Note_on_c, 0, 72, 45
1, 178432, Note_on_c, 0, 63, 43
1, 178436, Note_on_c, 0, 79, 55
1, 178540, Note_on_c, 0, 72, 0
1, 178552, Note_on_c, 9, 51, 81
1, 178560, Note_on_c, 0, 62, 0
1, 178564, Note_on_c, 0, 67, 0
1, 178596, Note_on_c, 0, 63, 0
1, 178598, Note_on_c, 9, 36, 35
1, 178628, Note_on_c, 0, 79, 0
1, 178656, Note_on_c, 0, 84, 0
1, 178662, Note_on_c, 9, 36, 0
1, 178684, Note_on_c, 0, 58, 0
1, 178710, Note_on_c, 9, 51, 0
1, 178828, Note_on_c, 1, 36, 0
1, 178828, Note_on_c, 1, 34, 81
1, 178896, Control_c, 0, 64, 0
1, 178934, Note_on_c, 1, 34, 0
1, 178944, Note_on_c, 0, 66, 50
1, 178948, Note_on_c, 0, 71, 52
1, 178956, Note_on_c, 1, 35, 68
1, 178968, Note_on_c, 0, 57, 39
1, 178968, Note_on_c, 0, 61, 39
1, 178984, Note_on_c, 0, 62, 43
1, 179180, Note_on_c, 9, 51, 56
1, 179232, Note_on_c, 9, 51, 0
1, 179288, Note_on_c, 1, 35, 0
1, 179298, Note_on_c, 9, 44, 40
1, 179302, Note_on_c, 1, 47, 111
1, 179304, Note_on_c, 0, 66, 0
1, 179308, Control_c, 0, 64, 127
1, 179324, Note_on_c, 9, 51, 56
1, 179336, Note_on_c, 1, 45, 51
1, 179356, Note_on_c, 0, 57, 0
1, 179368, Note_on_c, 1, 45, 0
1, 179396, Note_on_c, 0, 62, 0
1, 179408, Note_on_c, 0, 61, 0
1, 179412, Note_on_c, 0, 71, 0
1, 179420, Note_on_c, 9, 44, 0
1, 179424, Note_on_c, 9, 51, 0
1, 179564, Note_on_c, 0, 66, 67
1, 179568, Note_on_c, 0, 78, 85
1, 179580, Note_on_c, 9, 51, 74
1, 179584, Note_on_c, 0, 57, 48
1, 179600, Control_c, 0, 64, 0
1, 179608, Note_on_c, 0, 61, 26
1, 179608, Note_on_c, 0, 62, 32
1, 179668, Control_c, 0, 64, 127
1, 179682, Note_on_c, 1, 39, 95
1, 179686, Note_on_c, 9, 51, 0
1, 179708, Note_on_c, 1, 47, 0
1, 179708, Note_on_c, 9, 44, 61
1, 179744, Note_on_c, 0, 62, 0
1, 179784, Note_on_c, 0, 57, 0
1, 179828, Note_on_c, 0, 66, 0
1, 179872, Note_on_c, 0, 61, 0
1, 179872, Note_on_c, 9, 44, 0
1, 179968, Note_on_c, 9, 51, 46
1, 180002, Note_on_c, 9, 51, 0
1, 180012, Control_c, 0, 64, 0
1, 180070, Note_on_c, 1, 39, 0
1, 180076, Note_on_c, 1, 40, 101
1, 180096, Note_on_c, 0, 78, 0
1, 180104, Note_on_c, 0, 56, 52
1, 180104, Note_on_c, 0, 67, 47
1, 180112, Note_on_c, 0, 74, 57
1, 180112, Note_on_c, 0, 62, 44
1, 180118, Note_on_c, 9, 51, 80
1, 180352, Note_on_c, 9, 51, 0
1, 180428, Note_on_c, 0, 67, 0
1, 180436, Control_c, 0, 64, 127
1, 180472, Note_on_c, 0, 56, 0
1, 180472, Note_on_c, 9, 44, 40
1, 180476, Note_on_c, 9, 37, 37
1, 180496, Note_on_c, 0, 74, 0
1, 180502, Note_on_c, 9, 51, 47
1, 180504, Note_on_c, 0, 62, 0
1, 180568, Note_on_c, 9, 51, 0
1, 180592, Note_on_c, 9, 44, 0
1, 180720, Note_on_c, 0, 56, 63
1, 180720, Note_on_c, 9, 51, 80
1, 180732, Note_on_c, 0, 67, 46
1, 180736, Note_on_c, 0, 62, 51
1, 180742, Note_on_c, 9, 37, 0
1, 180772, Control_c, 0, 64, 0
1, 180776, Note_on_c, 0, 67, 0
1, 180776, Note_on_c, 0, 62, 0
1, 180844, Note_on_c, 9, 51, 0
1, 180854, Note_on_c, 9, 37, 41
1, 180912, Note_on_c, 0, 81, 41
1, 180940, Note_on_c, 0, 56, 0
1, 180996, Note_on_c, 0, 82, 49
1, 181024, Note_on_c, 0, 82, 0
1, 181044, Note_on_c, 0, 81, 0
1, 181056, Note_on_c, 0, 83, 56
1, 181064, Note_on_c, 9, 37, 0
1, 181112, Note_on_c, 9, 51, 55
1, 181120, Note_on_c, 0, 83, 0
1, 181148, Note_on_c, 0, 86, 82
1, 181160, Note_on_c, 9, 51, 0
1, 181180, Note_on_c, 0, 60, 47
1, 181188, Note_on_c, 0, 64, 47
1, 181188, Note_on_c, 0, 59, 47
1, 181200, Note_on_c, 1, 40, 0
1, 181200, Note_on_c, 0, 55, 43
1, 181238, Note_on_c, 1, 33, 101
1, 181256, Note_on_c, 0, 86, 0
1, 181264, Note_on_c, 0, 64, 0
1, 181266, Note_on_c, 9, 51, 75
1, 181304, Note_on_c, 0, 81, 32
1, 181336, Note_on_c, 0, 60, 0
1, 181360, Note_on_c, 0, 59, 0
1, 181392, Note_on_c, 0, 82, 43
1, 181420, Note_on_c, 0, 82, 0
1, 181424, Note_on_c, 9, 51, 0
1, 181460, Note_on_c, 0, 55, 0
1, 181464, Note_on_c, 0, 83, 41
1, 181512, Note_on_c, 0, 83, 0
1, 181512, Note_on_c, 0, 81, 0
1, 181564, Note_on_c, 0, 55, 31
1, 181568, Note_on_c, 0, 59, 36
1, 181572, Note_on_c, 0, 60, 41
1, 181618, Note_on_c, 9, 44, 38
1, 181622, Note_on_c, 9, 36, 38
1, 181640, Note_on_c, 9, 51, 71
1, 181652, Note_on_c, 0, 90, 67
1, 181676, Note_on_c, 0, 55, 0
1, 181684, Note_on_c, 0, 60, 0
1, 181688, Note_on_c, 9, 44, 0
1, 181720, Note_on_c, 0, 59, 0
1, 181752, Note_on_c, 9, 51, 0
1, 181788, Note_on_c, 9, 36, 0
1, 181888, Note_on_c, 1, 33, 0
1, 181894, Note_on_c, 1, 40, 109
1, 181920, Note_on_c, 0, 64, 23
1, 181924, Note_on_c, 0, 60, 40
1, 181928, Note_on_c, 0, 90, 0
1, 181928, Note_on_c, 0, 59, 31
1, 181928, Note_on_c, 9, 51, 59
1, 181948, Note_on_c, 0, 64, 0
1, 181948, Note_on_c, 0, 55, 27
1, 181968, Note_on_c, 9, 51, 0
1, 182000, Note_on_c, 0, 60, 0
1, 182028, Note_on_c, 0, 59, 0
1, 182028, Note_on_c, 0, 55, 0
1, 182028, Note_on_c, 0, 86, 60
1, 182028, Note_on_c, 9, 46, 51
1, 182054, Note_on_c, 9, 51, 53
1, 182102, Note_on_c, 9, 46, 0
1, 182160, Note_on_c, 9, 51, 0
1, 182236, Note_on_c, 0, 86, 0
1, 182306, Note_on_c, 1, 37, 65
1, 182322, Note_on_c, 1, 40, 0
1, 182388, Note_on_c, 0, 54, 44
1, 182400, Note_on_c, 0, 64, 38
1, 182412, Note_on_c, 0, 60, 41
1, 182418, Note_on_c, 1, 37, 0
1, 182438, Note_on_c, 1, 38, 102
1, 182440, Note_on_c, 9, 51, 60
1, 182472, Note_on_c, 0, 60, 0
1, 182496, Note_on_c, 0, 64, 0
1, 182504, Note_on_c, 0, 54, 0
1, 182608, Note_on_c, 9, 51, 0
1, 182796, Note_on_c, 9, 44, 38
1, 182804, Note_on_c, 0, 86, 78
1, 182854, Note_on_c, 9, 51, 57
1, 182886, Note_on_c, 9, 44, 0
1, 182956, Note_on_c, 0, 86, 0
1, 182960, Note_on_c, 1, 38, 0
1, 182988, Note_on_c, 9, 51, 0
1, 183052, Note_on_c, 9, 36, 41
1, 183056, Note_on_c, 0, 93, 88
1, 183056, Note_on_c, 1, 38, 100
1, 183064, Note_on_c, 0, 64, 55
1, 183068, Note_on_c, 0, 54, 51
1, 183088, Note_on_c, 0, 60, 38
1, 183088, Note_on_c, 1, 36, 53
1, 183104, Note_on_c, 0, 64, 0
1, 183106, Note_on_c, 9, 36, 0
1, 183120, Note_on_c, 1, 36, 0
1, 183124, Note_on_c, 0, 60, 0
1, 183160, Note_on_c, 0, 93, 0
1, 183174, Note_on_c, 0, 54, 0
1, 183174, Note_on_c, 9, 44, 38
1, 183216, Note_on_c, 9, 36, 39
1, 183228, Note_on_c, 0, 90, 52
1, 183256, Note_on_c, 9, 51, 55
1, 183266, Note_on_c, 9, 36, 0
1, 183276, Note_on_c, 9, 44, 0
1, 183346, Note_on_c, 9, 51, 0
1, 183428, Note_on_c, 0, 90, 0
1, 183446, Note_on_c, 9, 36, 54
1, 183496, Note_on_c, 9, 51, 79
1, 183536, Note_on_c, 1, 38, 0
1, 183568, Note_on_c, 9, 36, 0
1, 183570, Note_on_c, 9, 51, 0
1, 183570, Note_on_c, 1, 37, 104
1, 183608, Note_on_c, 9, 51, 92
1, 183852, Note_on_c, 0, 64, 56
1, 183856, Note_on_c, 9, 51, 0
1, 183860, Note_on_c, 0, 59, 58
1, 183880, Note_on_c, 0, 64, 0
1, 183888, Note_on_c, 0, 59, 0
1, 183976, Note_on_c, 9, 51, 74
1, 183976, Note_on_c, 9, 44, 41
1, 183988, Note_on_c, 0, 88, 43
1, 184012, Note_on_c, 9, 44, 0
1, 184076, Note_on_c, 0, 88, 0
1, 184114, Note_on_c, 1, 37, 0
1, 184162, Note_on_c, 1, 37, 111
1, 184168, Note_on_c, 9, 51, 0
1, 184228, Note_on_c, 0, 95, 115
1, 184236, Note_on_c, 0, 49, 69
1, 184236, Note_on_c, 0, 59, 73
1, 184312, Note_on_c, 0, 59, 0
1, 184320, Note_on_c, 0, 49, 0
1, 184368, Note_on_c, 0, 95, 0
1, 184370, Note_on_c, 9, 51, 65
1, 184408, Note_on_c, 0, 91, 67
1, 184504, Note_on_c, 9, 51, 0
1, 184600, Note_on_c, 0, 91, 0
1, 184616, Note_on_c, 1, 34, 70
1, 184630, Note_on_c, 9, 51, 73
1, 184684, Note_on_c, 1, 37, 0
1, 184706, Note_on_c, 9, 51, 0
1, 184726, Note_on_c, 1, 34, 0
1, 184742, Note_on_c, 1, 36, 120
1, 184744, Note_on_c, 0, 52, 48
1, 184752, Note_on_c, 0, 62, 49
1, 184752, Note_on_c, 9, 51, 82
1, 184764, Note_on_c, 0, 57, 57
1, 184768, Note_on_c, 0, 91, 78
1, 184840, Control_c, 0, 64, 127
1, 185008, Note_on_c, 9, 51, 0
1, 185014, Note_on_c, 9, 38, 27
1, 185032, Note_on_c, 0, 91, 0
1, 185062, Note_on_c, 9, 38, 0
1, 185104, Note_on_c, 0, 52, 0
1, 185106, Note_on_c, 0, 62, 0
1, 185106, Note_on_c, 9, 44, 53
1, 185116, Note_on_c, 9, 51, 48
1, 185196, Note_on_c, 0, 57, 0
1, 185200, Note_on_c, 9, 44, 0
1, 185222, Note_on_c, 1, 36, 0
1, 185238, Note_on_c, 1, 34, 46
1, 185276, Note_on_c, 1, 34, 0
1, 185298, Note_on_c, 9, 51, 0
1, 185308, Note_on_c, 1, 36, 116
1, 185348, Control_c, 0, 64, 0
1, 185366, Note_on_c, 9, 51, 63
1, 185372, Note_on_c, 0, 100, 83
1, 185376, Note_on_c, 0, 62, 57
1, 185380, Note_on_c, 0, 57, 57
1, 185388, Note_on_c, 0, 52, 52
1, 185410, Note_on_c, 9, 38, 24
1, 185452, Note_on_c, 9, 51, 0
1, 185458, Note_on_c, 9, 38, 0
1, 185478, Note_on_c, 9, 44, 48
1, 185490, Note_on_c, 9, 51, 65
1, 185504, Control_c, 0, 64, 127
1, 185536, Note_on_c, 0, 57, 0
1, 185556, Note_on_c, 0, 52, 0
1, 185580, Note_on_c, 9, 44, 0
1, 185616, Note_on_c, 0, 62, 0
1, 185616, Note_on_c, 0, 100, 0
1, 185682, Note_on_c, 9, 51, 0
1, 185720, Note_on_c, 1, 34, 79
1, 185724, Note_on_c, 9, 38, 38
1, 185752, Note_on_c, 9, 51, 59
1, 185762, Note_on_c, 9, 38, 0
1, 185766, Note_on_c, 1, 36, 0
1, 185816, Control_c, 0, 64, 0
1, 185830, Note_on_c, 9, 51, 0
1, 185832, Note_on_c, 1, 34, 0
1, 185856, Note_on_c, 9, 36, 35
1, 185868, Note_on_c, 1, 35, 124
1, 185884, Note_on_c, 0, 62, 58
1, 185884, Note_on_c, 9, 51, 83
1, 185888, Note_on_c, 0, 61, 57
1, 185892, Note_on_c, 0, 66, 66
1, 185904, Note_on_c, 0, 57, 57
1, 186028, Note_on_c, 9, 36, 0
1, 186162, Note_on_c, 9, 51, 0
1, 186236, Note_on_c, 9, 44, 43
1, 186276, Control_c, 0, 64, 127
1, 186280, Note_on_c, 0, 86, 90
1, 186316, Note_on_c, 0, 57, 0
1, 186328, Note_on_c, 0, 66, 0
1, 186340, Note_on_c, 0, 62, 0
1, 186354, Note_on_c, 9, 44, 0
1, 186360, Note_on_c, 0, 61, 0
1, 186432, Note_on_c, 1, 47, 117
1, 186496, Control_c, 0, 64, 0
1, 186512, Note_on_c, 9, 51, 82
1, 186524, Note_on_c, 0, 67, 56
1, 186528, Note_on_c, 0, 62, 51
1, 186532, Note_on_c, 0, 63, 48
1, 186540, Note_on_c, 0, 57, 48
1, 186592, Note_on_c, 9, 51, 0
1, 186620, Note_on_c, 9, 44, 43
1, 186640, Note_on_c, 9, 51, 80
1, 186648, Control_c, 0, 64, 127
1, 186700, Note_on_c, 0, 67, 0
1, 186728, Note_on_c, 9, 44, 0
1, 186752, Note_on_c, 0, 86, 0
1, 186768, Note_on_c, 0, 63, 0
1, 186772, Note_on_c, 0, 62, 0
1, 186800, Note_on_c, 0, 57, 0
1, 186816, Note_on_c, 0, 90, 84
1, 186822, Note_on_c, 9, 51, 0
1, 186838, Note_on_c, 9, 38, 24
1, 186876, Note_on_c, 9, 38, 0
1, 186978, Note_on_c, 1, 35, 0
1, 186992, Note_on_c, 9, 38, 35
1, 186998, Note_on_c, 1, 47, 0
1, 186998, Note_on_c, 1, 46, 106
1, 187008, Note_on_c, 9, 51, 92
1, 187012, Note_on_c, 0, 90, 0
1, 187040, Control_c, 0, 64, 0
1, 187088, Note_on_c, 9, 38, 0
1, 187224, Note_on_c, 9, 36, 43
1, 187264, Note_on_c, 9, 36, 0
1, 187380, Note_on_c, 0, 85, 80
1, 187380, Note_on_c, 0, 61, 63
1, 187400, Note_on_c, 1, 34, 41
1, 187400, Note_on_c, 9, 38, 43
1, 187412, Note_on_c, 0, 61, 0
1, 187416, Note_on_c, 0, 56, 42
1, 187428, Control_c, 0, 64, 127
1, 187436, Note_on_c, 9, 51, 0
1, 187446, Note_on_c, 9, 38, 0
1, 187468, Note_on_c, 0, 62, 34
1, 187480, Note_on_c, 1, 34, 0
1, 187524, Note_on_c, 0, 56, 0
1, 187536, Note_on_c, 1, 46, 0
1, 187552, Note_on_c, 0, 62, 0
1, 187588, Note_on_c, 0, 85, 0
1, 187602, Note_on_c, 1, 46, 108
1, 187616, Control_c, 0, 64, 72
1, 187618, Note_on_c, 9, 51, 84
1, 187620, Control_c, 0, 64, 0
1, 187652, Note_on_c, 0, 96, 87
1, 187652, Note_on_c, 0, 56, 62
1, 187660, Note_on_c, 0, 67, 68
1, 187660, Note_on_c, 0, 62, 65
1, 187748, Control_c, 0, 64, 127
1, 187788, Note_on_c, 0, 67, 0
1, 187810, Note_on_c, 9, 51, 0
1, 187812, Note_on_c, 0, 56, 0
1, 187848, Note_on_c, 0, 96, 0
1, 187848, Note_on_c, 0, 62, 0
1, 187888, Note_on_c, 0, 56, 56
1, 187900, Note_on_c, 0, 93, 76
1, 187920, Note_on_c, 9, 51, 76
1, 187928, Note_on_c, 0, 62, 33
1, 187964, Note_on_c, 0, 62, 0
1, 188012, Note_on_c, 1, 34, 80
1, 188044, Note_on_c, 9, 51, 0
1, 188052, Note_on_c, 0, 56, 0
1, 188056, Note_on_c, 0, 93, 0
1, 188070, Note_on_c, 1, 34, 0
1, 188080, Note_on_c, 1, 46, 0
1, 188100, Control_c, 0, 64, 0
1, 188152, Note_on_c, 1, 45, 127
1, 188176, Note_on_c, 0, 64, 57
1, 188176, Note_on_c, 0, 88, 78
1, 188180, Note_on_c, 0, 60, 63
1, 188184, Note_on_c, 0, 55, 50
1, 188184, Note_on_c, 9, 36, 26
1, 188188, Note_on_c, 0, 59, 54
1, 188188, Note_on_c, 9, 51, 87
1, 188232, Control_c, 0, 64, 127
1, 188322, Note_on_c, 9, 36, 0
1, 188388, Note_on_c, 0, 64, 0
1, 188388, Note_on_c, 0, 55, 0
1, 188400, Note_on_c, 0, 59, 0
1, 188404, Note_on_c, 0, 60, 0
1, 188518, Note_on_c, 9, 44, 48
1, 188594, Note_on_c, 9, 51, 0
1, 188610, Note_on_c, 9, 44, 0
1, 188690, Note_on_c, 1, 45, 0
1, 188738, Note_on_c, 9, 51, 72
1, 188744, Control_c, 0, 64, 0
1, 188752, Note_on_c, 0, 88, 0
1, 188770, Note_on_c, 1, 45, 120
1, 188772, Note_on_c, 0, 98, 102
1, 188776, Note_on_c, 0, 64, 79
1, 188784, Note_on_c, 0, 55, 67
1, 188784, Note_on_c, 0, 60, 66
1, 188784, Note_on_c, 0, 59, 61
1, 188792, Note_on_c, 0, 88, 31
1, 188816, Note_on_c, 9, 51, 0
1, 188828, Note_on_c, 0, 88, 0
1, 188876, Control_c, 0, 64, 127
1, 188888, Note_on_c, 9, 44, 42
1, 188896, Note_on_c, 9, 51, 80
1, 188932, Note_on_c, 0, 60, 0
1, 188940, Note_on_c, 0, 55, 0
1, 188944, Note_on_c, 0, 64, 0
1, 188948, Note_on_c, 0, 59, 0
1, 188966, Note_on_c, 9, 44, 0
1, 189004, Note_on_c, 0, 98, 0
1, 189096, Note_on_c, 9, 51, 0
1, 189176, Note_on_c, 9, 38, 31
1, 189196, Note_on_c, 1, 32, 77
1, 189218, Note_on_c, 9, 38, 0
1, 189240, Note_on_c, 1, 45, 0
1, 189260, Note_on_c, 1, 32, 0
1, 189260, Control_c, 0, 64, 0
1, 189292, Note_on_c, 0, 90, 70
1, 189296, Note_on_c, 0, 56, 74
1, 189300, Note_on_c, 0, 67, 63
1, 189304, Note_on_c, 9, 38, 39
1, 189312, Note_on_c, 0, 62, 58
1, 189312, Note_on_c, 9, 51, 95
1, 189334, Note_on_c, 1, 44, 113
1, 189388, Note_on_c, 9, 38, 0
1, 189580, Control_c, 0, 64, 127
1, 189592, Note_on_c, 0, 67, 0
1, 189608, Note_on_c, 0, 62, 0
1, 189648, Note_on_c, 9, 44, 44
1, 189656, Note_on_c, 0, 90, 0
1, 189676, Note_on_c, 0, 56, 0
1, 189740, Note_on_c, 9, 51, 0
1, 189750, Note_on_c, 9, 44, 0
1, 189912, Note_on_c, 9, 38, 44
1, 189920, Control_c, 0, 64, 88
1, 189924, Control_c, 0, 64, 0
1, 189932, Note_on_c, 9, 51, 90
1, 189948, Note_on_c, 0, 101, 94
1, 189948, Note_on_c, 0, 94, 85
1, 189948, Note_on_c, 0, 65, 83
1, 189948, Note_on_c, 0, 54, 79
1, 189948, Note_on_c, 0, 89, 89
1, 189948, Note_on_c, 0, 98, 78
1, 189948, Note_on_c, 0, 60, 72
1, 189964, Note_on_c, 1, 44, 0
1, 189970, Note_on_c, 9, 38, 0
1, 190040, Note_on_c, 1, 44, 106
1, 190048, Note_on_c, 9, 44, 34
1, 190064, Control_c, 0, 64, 127
1, 190086, Note_on_c, 9, 38, 30
1, 190114, Note_on_c, 9, 44, 0
1, 190136, Note_on_c, 9, 38, 0
1, 190148, Note_on_c, 0, 65, 0
1, 190164, Note_on_c, 0, 60, 0
1, 190180, Note_on_c, 0, 98, 0
1, 190184, Note_on_c, 0, 101, 0
1, 190220, Note_on_c, 0, 89, 0
1, 190240, Note_on_c, 0, 94, 0
1, 190268, Note_on_c, 0, 54, 0
1, 190310, Note_on_c, 9, 36, 43
1, 190358, Note_on_c, 9, 36, 0
1, 190412, Note_on_c, 9, 51, 0
1, 190440, Note_on_c, 1, 44, 0
1, 190450, Note_on_c, 1, 31, 126
1, 190452, Control_c, 0, 64, 0
1, 190476, Note_on_c, 9, 57, 23
1, 190504, Note_on_c, 0, 54, 61
1, 190504, Note_on_c, 0, 90, 82
1, 190508, Note_on_c, 0, 59, 74
1, 190508, Note_on_c, 0, 62, 81
1, 190516, Note_on_c, 0, 86, 69
1, 190552, Note_on_c, 0, 93, 52
1, 190592, Control_c, 0, 64, 127
1, 190728, Note_on_c, 0, 93, 0
1, 190752, Note_on_c, 0, 90, 0
1, 190776, Note_on_c, 0, 86, 0
1, 190800, Note_on_c, 0, 59, 0
1, 190848, Note_on_c, 0, 62, 0
1, 190876, Note_on_c, 0, 59, 63
1, 191156, Note_on_c, 0, 59, 0
1, 191184, Note_on_c, 0, 81, 86
1, 191184, Note_on_c, 0, 74, 89
1, 191192, Note_on_c, 0, 54, 0
1, 191196, Note_on_c, 0, 62, 57
1, 191444, Note_on_c, 0, 81, 0
1, 191452, Note_on_c, 0, 62, 0
1, 191468, Note_on_c, 0, 74, 0
1, 191500, Note_on_c, 0, 78, 68
1, 191500, Note_on_c, 0, 64, 65
1, 191516, Note_on_c, 0, 69, 52
1, 191528, Note_on_c, 0, 74, 23
1, 191606, Note_on_c, 9, 57, 0
1, 191644, Note_on_c, 0, 74, 0
1, 191708, Note_on_c, 0, 69, 0
1, 191792, Note_on_c, 0, 78, 0
1, 191820, Note_on_c, 0, 64, 0
1, 191832, Note_on_c, 0, 81, 66
1, 191832, Note_on_c, 0, 78, 34
1, 191836, Note_on_c, 0, 66, 65
1, 191836, Note_on_c, 0, 74, 54
1, 191864, Note_on_c, 0, 74, 0
1, 191904, Note_on_c, 0, 78, 0
1, 191912, Note_on_c, 0, 81, 0
1, 192128, Note_on_c, 0, 66, 0
1, 192140, Note_on_c, 0, 86, 66
1, 192144, Note_on_c, 0, 78, 50
1, 192148, Note_on_c, 0, 69, 54
1, 192340, Note_on_c, 0, 86, 0
1, 192384, Note_on_c, 0, 69, 0
1, 192432, Note_on_c, 0, 71, 52
1, 192480, Note_on_c, 0, 78, 0
1, 192732, Note_on_c, 0, 93, 69
1, 192740, Note_on_c, 0, 71, 0
1, 192740, Note_on_c, 0, 86, 63
1, 192740, Note_on_c, 0, 73, 57
1, 192988, Note_on_c, 0, 73, 0
1, 193028, Note_on_c, 0, 93, 0
1, 193064, Note_on_c, 0, 90, 55
1, 193076, Note_on_c, 0, 81, 48
1, 193100, Note_on_c, 0, 76, 56
1, 193152, Note_on_c, 1, 31, 0
1, 193252, Note_on_c, 0, 86, 0
1, 193272, Note_on_c, 0, 81, 0
1, 193344, Note_on_c, 0, 90, 0
1, 193396, Note_on_c, 0, 76, 0
1, 193416, Note_on_c, 0, 78, 50
1, 193416, Note_on_c, 0, 93, 58
1, 193432, Note_on_c, 0, 86, 49
1, 193612, Note_on_c, 0, 86, 0
1, 193644, Note_on_c, 0, 78, 0
1, 193664, Note_on_c, 0, 93, 0
1, 193744, Note_on_c, 0, 90, 49
1, 193756, Note_on_c, 0, 83, 39
1, 193772, Note_on_c, 0, 79, 48
1, 193832, Note_on_c, 0, 83, 0
1, 193880, Note_on_c, 0, 90, 0
1, 194084, Note_on_c, 0, 79, 0
1, 194096, Note_on_c, 0, 100, 59
1, 194100, Note_on_c, 0, 93, 56
1, 194112, Note_on_c, 0, 81, 47
1, 194368, Note_on_c, 0, 93, 0
1, 194384, Note_on_c, 0, 100, 0
1, 194416, Note_on_c, 0, 81, 0
1, 194448, Note_on_c, 0, 97, 49
1, 194464, Note_on_c, 0, 93, 31
1, 194468, Note_on_c, 0, 91, 37
1, 194472, Note_on_c, 0, 83, 38
1, 194536, Note_on_c, 0, 93, 0
1, 194540, Note_on_c, 0, 91, 0
1, 194596, Note_on_c, 0, 97, 0
1, 194788, Note_on_c, 0, 105, 67
1, 194804, Note_on_c, 0, 83, 0
1, 194804, Note_on_c, 0, 85, 45
1, 195076, Note_on_c, 0, 105, 0
1, 195188, Note_on_c, 0, 100, 48
1, 195204, Note_on_c, 0, 93, 43
1, 195212, Note_on_c, 0, 97, 46
1, 195220, Note_on_c, 0, 88, 47
1, 195436, Note_on_c, 0, 85, 0
1, 195524, Note_on_c, 0, 93, 0
1, 195536, Note_on_c, 0, 100, 0
1, 195580, Note_on_c, 0, 88, 0
1, 195612, Note_on_c, 0, 105, 57
1, 195616, Note_on_c, 0, 85, 43
1, 195624, Note_on_c, 0, 97, 0
1, 195656, Note_on_c, 0, 85, 0
1, 196268, Note_on_c, 0, 105, 0
1, 196332, Note_on_c, 0, 43, 35
1, 196336, Note_on_c, 0, 31, 40
1, 196344, Note_on_c, 0, 100, 44
1, 196348, Note_on_c, 0, 93, 40
1, 196348, Note_on_c, 0, 97, 42
1, 197188, Note_on_c, 0, 100, 0
1, 197232, Note_on_c, 0, 97, 0
1, 197280, Note_on_c, 0, 93, 0
1, 197596, Note_on_c, 0, 31, 0
1, 197620, Note_on_c, 0, 43, 0
1, 198260, Control_c, 0, 64, 0
1, 198260, End_track
0, 0, End_of_file
