0, 0, Header, 0, 1, 120
1, 0, Start_track
1, 0, Title_t, "untitled"
1, 0, Text_t, "Doug McK"
1, 0, Time_signature, 3, 2, 24, 8
1, 0, Key_signature, 0, "major"
1, 0, Tempo, 428571
1, 0, Program_c, 0, 4
1, 0, Program_c, 1, 32
1, 0, Program_c, 9, 32
1, 0, Control_c, 9, 7, 100
1, 0, Note_on_c, 9, 36, 40
1, 0, Note_on_c, 9, 36, 0
1, 3, Control_c, 0, 7, 127
1, 3, Note_on_c, 0, 71, 64
1, 5, Control_c, 1, 7, 100
1, 5, Note_on_c, 1, 43, 107
1, 8, Note_on_c, 9, 59, 96
1, 11, Control_c, 0, 64, 127
1, 20, Note_on_c, 9, 36, 26
1, 28, Note_on_c, 9, 36, 0
1, 28, Note_on_c, 9, 59, 0
1, 88, Note_on_c, 0, 62, 14
1, 93, Note_on_c, 0, 55, 16
1, 94, Note_on_c, 0, 78, 51
1, 95, Note_on_c, 0, 66, 26
1, 96, Note_on_c, 0, 59, 34
1, 122, Note_on_c, 9, 59, 72
1, 140, Note_on_c, 9, 59, 0
1, 201, Note_on_c, 9, 36, 36
1, 209, Note_on_c, 9, 36, 0
1, 218, Note_on_c, 9, 59, 77
1, 222, Note_on_c, 1, 39, 34
1, 229, Note_on_c, 1, 39, 0
1, 231, Note_on_c, 1, 43, 0
1, 238, Note_on_c, 9, 59, 0
1, 245, Note_on_c, 1, 42, 94
1, 251, Note_on_c, 9, 59, 80
1, 258, Note_on_c, 0, 74, 55
1, 273, Note_on_c, 9, 59, 0
1, 305, Note_on_c, 0, 62, 0
1, 310, Note_on_c, 0, 59, 0
1, 310, Note_on_c, 0, 66, 0
1, 317, Note_on_c, 0, 55, 0
1, 357, Note_on_c, 1, 42, 0
1, 363, Note_on_c, 1, 40, 91
1, 363, Note_on_c, 9, 59, 99
1, 406, Note_on_c, 9, 59, 0
1, 441, Note_on_c, 0, 71, 0
1, 463, Note_on_c, 0, 59, 32
1, 464, Note_on_c, 0, 62, 37
1, 465, Note_on_c, 0, 52, 41
1, 469, Note_on_c, 0, 55, 35
1, 472, Control_c, 0, 64, 0
1, 475, Note_off_c, 0, 78, 0
1, 522, Control_c, 0, 64, 127
1, 543, Note_off_c, 0, 74, 0
1, 558, Note_on_c, 0, 71, 80
1, 559, Note_on_c, 1, 34, 82
1, 567, Note_on_c, 9, 38, 39
1, 569, Note_on_c, 9, 59, 87
1, 575, Note_on_c, 1, 40, 0
1, 577, Note_on_c, 9, 38, 0
1, 588, Note_on_c, 9, 59, 0
1, 590, Note_on_c, 1, 34, 0
1, 594, Note_on_c, 0, 71, 0
1, 605, Note_on_c, 1, 33, 92
1, 611, Note_on_c, 9, 38, 24
1, 625, Note_on_c, 9, 38, 0
1, 632, Note_on_c, 0, 52, 0
1, 632, Note_on_c, 0, 55, 0
1, 636, Note_on_c, 0, 59, 0
1, 642, Note_on_c, 0, 78, 86
1, 652, Note_on_c, 0, 62, 0
1, 686, Note_on_c, 9, 36, 30
1, 697, Note_on_c, 9, 36, 0
1, 723, Note_on_c, 9, 36, 32
1, 728, Note_on_c, 0, 74, 63
1, 731, Control_c, 0, 64, 0
1, 731, Note_on_c, 0, 64, 44
1, 732, Note_on_c, 0, 78, 0
1, 734, Note_on_c, 0, 55, 36
1, 736, Note_on_c, 0, 60, 34
1, 738, Note_on_c, 0, 59, 29
1, 775, Control_c, 0, 64, 127
1, 803, Note_off_c, 9, 36, 0
1, 822, Control_c, 0, 64, 0
1, 847, Note_on_c, 9, 59, 63
1, 869, Note_on_c, 9, 59, 0
1, 869, Control_c, 0, 64, 127
1, 916, Note_on_c, 0, 71, 54
1, 919, Note_on_c, 1, 40, 72
1, 927, Note_on_c, 9, 59, 74
1, 930, Note_on_c, 0, 71, 0
1, 931, Note_on_c, 1, 33, 0
1, 931, Note_on_c, 0, 74, 0
1, 935, Note_on_c, 1, 40, 0
1, 946, Note_on_c, 9, 59, 0
1, 953, Note_on_c, 0, 78, 69
1, 962, Note_on_c, 1, 40, 96
1, 973, Control_c, 0, 64, 0
1, 995, Note_on_c, 0, 74, 69
1, 997, Note_on_c, 0, 78, 0
1, 1025, Note_on_c, 9, 53, 74
1, 1031, Note_on_c, 9, 59, 87
1, 1044, Note_on_c, 9, 53, 0
1, 1047, Note_on_c, 0, 74, 0
1, 1057, Note_on_c, 9, 59, 0
1, 1062, Note_on_c, 0, 55, 0
1, 1062, Note_on_c, 0, 59, 0
1, 1063, Note_on_c, 1, 40, 0
1, 1063, Note_on_c, 0, 64, 0
1, 1064, Control_c, 0, 64, 127
1, 1066, Note_on_c, 0, 74, 64
1, 1070, Note_on_c, 0, 60, 0
1, 1072, Note_on_c, 1, 38, 82
1, 1085, Control_c, 0, 64, 0
1, 1098, Note_on_c, 9, 59, 79
1, 1127, Control_c, 0, 64, 127
1, 1144, Note_off_c, 9, 59, 0
1, 1184, Note_on_c, 9, 53, 71
1, 1192, Note_on_c, 9, 59, 81
1, 1197, Note_on_c, 1, 50, 119
1, 1208, Note_on_c, 9, 53, 0
1, 1228, Note_on_c, 1, 38, 0
1, 1236, Note_on_c, 9, 59, 0
1, 1278, Note_on_c, 0, 74, 0
1, 1280, Note_on_c, 0, 64, 43
1, 1280, Note_on_c, 9, 59, 76
1, 1281, Note_on_c, 0, 54, 31
1, 1287, Note_on_c, 0, 59, 28
1, 1287, Note_on_c, 1, 38, 64
1, 1288, Note_on_c, 0, 60, 36
1, 1299, Control_c, 0, 64, 0
1, 1302, Note_off_c, 1, 50, 0
1, 1315, Note_off_c, 9, 59, 0
1, 1319, Note_off_c, 1, 38, 0
1, 1322, Note_on_c, 1, 48, 84
1, 1330, Control_c, 0, 64, 127
1, 1365, Note_off_c, 0, 59, 0
1, 1365, Note_on_c, 9, 59, 79
1, 1369, Note_on_c, 0, 64, 0
1, 1369, Note_on_c, 0, 60, 0
1, 1370, Note_on_c, 9, 53, 80
1, 1377, Note_on_c, 0, 71, 60
1, 1391, Note_on_c, 9, 53, 0
1, 1392, Note_on_c, 0, 54, 0
1, 1399, Note_on_c, 9, 36, 30
1, 1401, Note_on_c, 1, 42, 59
1, 1405, Note_on_c, 0, 71, 0
1, 1411, Note_on_c, 9, 36, 0
1, 1412, Note_on_c, 9, 59, 0
1, 1414, Note_on_c, 1, 42, 0
1, 1414, Note_on_c, 0, 69, 62
1, 1424, Note_on_c, 1, 48, 0
1, 1437, Note_on_c, 9, 36, 29
1, 1441, Note_on_c, 1, 47, 87
1, 1443, Note_on_c, 0, 69, 0
1, 1448, Control_c, 0, 64, 0
1, 1452, Note_on_c, 9, 59, 79
1, 1455, Note_on_c, 0, 59, 42
1, 1459, Note_on_c, 0, 62, 35
1, 1461, Note_on_c, 0, 57, 33
1, 1461, Note_on_c, 0, 67, 24
1, 1481, Note_on_c, 9, 36, 0
1, 1510, Note_on_c, 9, 59, 0
1, 1532, Note_on_c, 0, 67, 0
1, 1551, Note_on_c, 0, 59, 0
1, 1557, Note_on_c, 0, 62, 0
1, 1557, Note_on_c, 0, 57, 0
1, 1635, Note_on_c, 1, 43, 64
1, 1650, Note_on_c, 9, 59, 67
1, 1651, Note_on_c, 0, 62, 62
1, 1653, Note_on_c, 1, 43, 0
1, 1655, Note_on_c, 0, 59, 46
1, 1659, Note_on_c, 0, 57, 36
1, 1662, Note_on_c, 0, 62, 0
1, 1664, Note_on_c, 9, 59, 0
1, 1665, Note_on_c, 0, 59, 0
1, 1670, Note_on_c, 0, 57, 0
1, 1675, Note_on_c, 1, 38, 85
1, 1679, Note_on_c, 1, 47, 0
1, 1689, Note_on_c, 9, 59, 72
1, 1701, Note_on_c, 0, 69, 62
1, 1713, Note_on_c, 9, 59, 0
1, 1754, Note_on_c, 0, 69, 0
1, 1762, Note_on_c, 9, 38, 40
1, 1770, Note_on_c, 0, 71, 74
1, 1775, Note_on_c, 9, 38, 0
1, 1790, Note_on_c, 1, 38, 0
1, 1794, Note_on_c, 1, 31, 91
1, 1795, Note_on_c, 0, 71, 0
1, 1800, Note_on_c, 9, 59, 105
1, 1805, Note_on_c, 9, 38, 32
1, 1814, Note_on_c, 9, 38, 0
1, 1837, Note_on_c, 9, 59, 0
1, 1843, Note_on_c, 9, 38, 34
1, 1856, Note_on_c, 9, 38, 0
1, 1858, Note_on_c, 0, 76, 72
1, 1859, Note_on_c, 0, 68, 72
1, 1860, Note_on_c, 0, 65, 80
1, 1861, Note_on_c, 0, 71, 73
1, 1863, Note_on_c, 0, 64, 85
1, 1869, Note_on_c, 0, 74, 42
1, 1881, Note_on_c, 1, 38, 54
1, 1883, Note_on_c, 9, 36, 32
1, 1901, Control_c, 0, 64, 127
1, 1905, Note_off_c, 1, 38, 0
1, 1909, Note_off_c, 9, 36, 0
1, 1911, Note_off_c, 0, 74, 0
1, 1916, Note_on_c, 1, 48, 119
1, 1925, Note_on_c, 9, 59, 74
1, 1926, Note_on_c, 0, 76, 0
1, 1927, Note_on_c, 0, 64, 0
1, 1932, Note_on_c, 0, 68, 0
1, 1933, Note_on_c, 0, 71, 0
1, 1935, Note_on_c, 0, 65, 0
1, 1940, Note_on_c, 9, 59, 0
1, 1943, Control_c, 0, 64, 0
1, 1949, Note_on_c, 0, 68, 37
1, 1950, Note_on_c, 0, 65, 33
1, 1950, Note_on_c, 0, 74, 47
1, 1952, Note_on_c, 0, 71, 46
1, 1956, Note_on_c, 0, 62, 54
1, 1980, Control_c, 0, 64, 127
1, 2008, Note_on_c, 1, 38, 46
1, 2013, Note_on_c, 9, 59, 69
1, 2017, Note_on_c, 0, 71, 0
1, 2020, Note_on_c, 1, 38, 0
1, 2028, Note_on_c, 0, 65, 0
1, 2029, Note_on_c, 9, 59, 0
1, 2034, Control_c, 0, 64, 0
1, 2036, Note_off_c, 0, 68, 0
1, 2046, Note_on_c, 0, 71, 40
1, 2048, Note_on_c, 9, 59, 77
1, 2051, Note_on_c, 0, 62, 0
1, 2051, Note_on_c, 0, 65, 54
1, 2051, Note_on_c, 0, 68, 28
1, 2055, Note_on_c, 0, 59, 40
1, 2061, Note_on_c, 0, 74, 0
1, 2063, Control_c, 0, 64, 127
1, 2065, Note_off_c, 0, 59, 0
1, 2076, Note_off_c, 0, 71, 0
1, 2080, Note_off_c, 9, 59, 0
1, 2080, Note_on_c, 1, 47, 78
1, 2082, Note_on_c, 1, 48, 0
1, 2085, Note_on_c, 0, 68, 0
1, 2089, Note_on_c, 0, 65, 0
1, 2094, Note_on_c, 1, 47, 0
1, 2111, Note_on_c, 1, 38, 70
1, 2119, Note_on_c, 1, 31, 0
1, 2127, Note_on_c, 9, 38, 32
1, 2140, Note_on_c, 9, 38, 0
1, 2144, Note_on_c, 1, 38, 0
1, 2156, Note_on_c, 1, 36, 89
1, 2165, Note_on_c, 9, 59, 99
1, 2171, Note_on_c, 0, 62, 33
1, 2172, Note_on_c, 0, 67, 45
1, 2173, Control_c, 0, 64, 0
1, 2174, Note_on_c, 9, 36, 16
1, 2176, Note_on_c, 0, 64, 43
1, 2182, Note_on_c, 0, 48, 34
1, 2182, Note_on_c, 0, 55, 36
1, 2216, Note_on_c, 9, 36, 0
1, 2222, Note_on_c, 9, 59, 0
1, 2272, Control_c, 0, 64, 127
1, 2291, Note_on_c, 9, 59, 82
1, 2300, Note_on_c, 0, 62, 0
1, 2314, Note_on_c, 0, 48, 0
1, 2315, Note_on_c, 0, 64, 0
1, 2319, Note_on_c, 0, 55, 0
1, 2338, Note_on_c, 0, 67, 0
1, 2347, Note_on_c, 9, 59, 0
1, 2412, Note_on_c, 9, 44, 37
1, 2437, Note_on_c, 9, 44, 0
1, 2472, Note_on_c, 1, 43, 24
1, 2487, Note_on_c, 9, 59, 74
1, 2496, Note_on_c, 0, 57, 22
1, 2505, Note_on_c, 0, 62, 37
1, 2506, Note_on_c, 1, 43, 0
1, 2510, Note_on_c, 1, 36, 0
1, 2511, Note_on_c, 9, 59, 0
1, 2519, Note_on_c, 0, 83, 47
1, 2520, Note_on_c, 1, 41, 76
1, 2521, Note_on_c, 0, 79, 41
1, 2521, Note_on_c, 0, 75, 56
1, 2522, Note_on_c, 0, 63, 25
1, 2527, Note_on_c, 9, 59, 80
1, 2529, Note_on_c, 0, 71, 55
1, 2532, Control_c, 0, 64, 0
1, 2535, Note_on_c, 0, 67, 50
1, 2592, Note_on_c, 9, 59, 0
1, 2642, Control_c, 0, 64, 127
1, 2644, Note_on_c, 1, 53, 100
1, 2725, Note_on_c, 9, 38, 24
1, 2729, Note_on_c, 9, 59, 56
1, 2734, Note_on_c, 9, 38, 0
1, 2744, Note_on_c, 0, 67, 0
1, 2747, Note_on_c, 9, 59, 0
1, 2748, Note_on_c, 0, 62, 0
1, 2757, Note_on_c, 0, 63, 0
1, 2766, Note_on_c, 9, 46, 60
1, 2770, Note_on_c, 0, 57, 0
1, 2773, Note_on_c, 9, 59, 69
1, 2787, Note_on_c, 0, 71, 0
1, 2791, Note_on_c, 9, 46, 0
1, 2798, Note_on_c, 0, 79, 0
1, 2801, Note_on_c, 0, 75, 0
1, 2815, Note_on_c, 9, 59, 0
1, 2832, Note_on_c, 0, 83, 0
1, 2847, Note_on_c, 1, 41, 0
1, 2848, Note_on_c, 1, 47, 57
1, 2854, Note_on_c, 9, 59, 103
1, 2870, Note_on_c, 1, 53, 0
1, 2873, Note_on_c, 1, 47, 0
1, 2877, Note_on_c, 9, 59, 0
1, 2885, Note_on_c, 1, 40, 81
1, 2890, Control_c, 0, 64, 0
1, 2894, Note_on_c, 9, 59, 90
1, 2905, Control_c, 0, 64, 127
1, 2966, Note_on_c, 1, 56, 84
1, 2971, Note_on_c, 0, 64, 45
1, 2972, Note_on_c, 9, 59, 0
1, 2972, Note_on_c, 0, 61, 31
1, 2973, Control_c, 0, 64, 0
1, 2977, Note_on_c, 0, 54, 34
1, 2980, Note_on_c, 0, 59, 39
1, 3013, Note_on_c, 9, 59, 78
1, 3025, Control_c, 0, 64, 127
1, 3045, Note_off_c, 9, 59, 0
1, 3090, Note_on_c, 0, 83, 88
1, 3129, Control_c, 0, 64, 0
1, 3129, Note_on_c, 9, 59, 91
1, 3135, Note_on_c, 0, 83, 0
1, 3144, Note_on_c, 0, 76, 52
1, 3145, Note_on_c, 0, 59, 0
1, 3146, Note_on_c, 0, 64, 0
1, 3154, Note_on_c, 0, 61, 0
1, 3158, Note_on_c, 9, 59, 0
1, 3163, Note_on_c, 0, 54, 0
1, 3166, Note_on_c, 0, 76, 0
1, 3209, Note_on_c, 0, 76, 63
1, 3211, Note_on_c, 9, 36, 44
1, 3220, Note_on_c, 1, 40, 0
1, 3228, Note_on_c, 0, 76, 0
1, 3234, Note_on_c, 9, 36, 0
1, 3243, Note_on_c, 1, 37, 57
1, 3254, Note_on_c, 9, 59, 74
1, 3255, Note_on_c, 9, 36, 28
1, 3258, Note_on_c, 0, 83, 74
1, 3285, Note_on_c, 0, 83, 0
1, 3294, Note_on_c, 9, 59, 0
1, 3301, Note_on_c, 9, 36, 0
1, 3304, Note_on_c, 1, 56, 0
1, 3324, Note_on_c, 1, 53, 73
1, 3331, Note_on_c, 0, 76, 56
1, 3336, Note_on_c, 0, 59, 52
1, 3339, Note_on_c, 0, 49, 37
1, 3347, Note_on_c, 0, 76, 0
1, 3351, Note_on_c, 0, 59, 0
1, 3357, Note_on_c, 0, 49, 0
1, 3369, Note_on_c, 9, 59, 72
1, 3385, Note_on_c, 0, 76, 36
1, 3411, Note_on_c, 9, 59, 0
1, 3413, Note_on_c, 0, 76, 0
1, 3453, Note_on_c, 0, 76, 57
1, 3468, Note_on_c, 0, 76, 0
1, 3492, Note_on_c, 0, 76, 37
1, 3492, Note_on_c, 9, 59, 60
1, 3508, Note_on_c, 9, 59, 0
1, 3514, Note_on_c, 0, 76, 0
1, 3529, Note_on_c, 1, 53, 0
1, 3557, Note_on_c, 0, 76, 54
1, 3560, Note_on_c, 1, 52, 85
1, 3562, Control_c, 0, 64, 127
1, 3564, Note_on_c, 9, 38, 55
1, 3567, Note_on_c, 9, 51, 58
1, 3569, Note_on_c, 9, 53, 67
1, 3569, Note_on_c, 9, 59, 72
1, 3581, Note_on_c, 9, 38, 0
1, 3583, Note_on_c, 9, 51, 0
1, 3588, Note_on_c, 0, 76, 0
1, 3589, Control_c, 0, 64, 0
1, 3591, Note_off_c, 9, 53, 0
1, 3591, Note_off_c, 9, 59, 0
1, 3607, Note_on_c, 0, 62, 41
1, 3608, Note_on_c, 0, 83, 60
1, 3610, Note_on_c, 1, 42, 68
1, 3610, Note_on_c, 9, 38, 24
1, 3611, Note_on_c, 1, 37, 0
1, 3612, Note_on_c, 1, 52, 0
1, 3615, Note_on_c, 0, 59, 27
1, 3619, Note_on_c, 0, 62, 0
1, 3627, Note_on_c, 0, 59, 0
1, 3629, Note_on_c, 0, 83, 0
1, 3635, Note_on_c, 9, 38, 0
1, 3636, Note_on_c, 9, 59, 60
1, 3678, Note_on_c, 9, 59, 0
1, 3684, Note_on_c, 9, 36, 31
1, 3695, Note_on_c, 9, 36, 0
1, 3732, Note_on_c, 1, 45, 89
1, 3734, Note_on_c, 9, 36, 27
1, 3736, Note_on_c, 9, 59, 74
1, 3738, Note_on_c, 1, 42, 0
1, 3740, Control_c, 0, 64, 127
1, 3747, Note_off_c, 9, 36, 0
1, 3765, Note_off_c, 9, 59, 0
1, 3793, Note_on_c, 0, 73, 42
1, 3795, Note_on_c, 0, 69, 55
1, 3797, Note_on_c, 0, 76, 39
1, 3803, Note_on_c, 0, 57, 35
1, 3804, Note_on_c, 0, 59, 32
1, 3805, Control_c, 0, 64, 0
1, 3806, Note_off_c, 0, 69, 0
1, 3810, Note_off_c, 0, 76, 0
1, 3814, Note_off_c, 0, 57, 0
1, 3814, Note_off_c, 0, 73, 0
1, 3814, Note_on_c, 9, 59, 71
1, 3816, Note_on_c, 0, 59, 0
1, 3843, Note_on_c, 9, 59, 0
1, 3899, Control_c, 0, 64, 127
1, 3920, Note_on_c, 1, 48, 94
1, 3935, Note_on_c, 1, 45, 0
1, 3938, Note_on_c, 9, 38, 28
1, 3947, Note_on_c, 9, 38, 0
1, 3953, Note_on_c, 1, 48, 0
1, 3964, Note_on_c, 0, 51, 39
1, 3965, Note_on_c, 0, 62, 43
1, 3966, Note_on_c, 0, 67, 44
1, 3966, Note_on_c, 0, 71, 49
1, 3967, Control_c, 0, 64, 0
1, 3969, Note_on_c, 1, 47, 66
1, 3971, Note_on_c, 0, 47, 39
1, 3972, Note_on_c, 0, 57, 40
1, 4000, Control_c, 0, 64, 127
1, 4042, Note_on_c, 1, 45, 55
1, 4044, Note_on_c, 9, 38, 30
1, 4047, Note_on_c, 9, 59, 64
1, 4055, Note_on_c, 9, 38, 0
1, 4057, Note_on_c, 1, 47, 0
1, 4060, Note_on_c, 1, 45, 0
1, 4067, Note_on_c, 9, 59, 0
1, 4074, Note_on_c, 1, 48, 74
1, 4081, Note_on_c, 0, 67, 0
1, 4087, Note_on_c, 9, 59, 73
1, 4089, Note_on_c, 0, 57, 0
1, 4104, Note_on_c, 0, 51, 0
1, 4106, Note_on_c, 0, 62, 0
1, 4109, Note_on_c, 9, 59, 0
1, 4116, Note_on_c, 9, 44, 36
1, 4130, Note_on_c, 9, 44, 0
1, 4134, Note_on_c, 0, 71, 0
1, 4156, Note_on_c, 1, 47, 46
1, 4160, Note_on_c, 9, 38, 28
1, 4161, Note_on_c, 0, 66, 42
1, 4161, Note_on_c, 0, 62, 47
1, 4164, Note_on_c, 0, 69, 51
1, 4165, Note_on_c, 0, 51, 42
1, 4167, Note_on_c, 1, 47, 0
1, 4167, Note_on_c, 0, 57, 43
1, 4167, Note_on_c, 9, 59, 118
1, 4169, Note_on_c, 9, 38, 0
1, 4170, Control_c, 0, 64, 0
1, 4185, Note_off_c, 1, 48, 0
1, 4195, Note_on_c, 1, 50, 63
1, 4199, Note_on_c, 9, 44, 33
1, 4201, Control_c, 0, 64, 127
1, 4207, Note_off_c, 0, 47, 0
1, 4210, Note_off_c, 0, 51, 0
1, 4216, Note_off_c, 9, 44, 0
1, 4223, Note_off_c, 0, 57, 0
1, 4235, Note_off_c, 0, 62, 0
1, 4237, Note_on_c, 9, 44, 38
1, 4245, Note_on_c, 9, 44, 0
1, 4263, Note_on_c, 1, 50, 0
1, 4267, Note_on_c, 0, 66, 0
1, 4270, Note_on_c, 0, 69, 0
1, 4274, Note_on_c, 1, 51, 80
1, 4278, Note_on_c, 9, 38, 28
1, 4284, Note_on_c, 9, 59, 0
1, 4287, Note_on_c, 1, 47, 29
1, 4290, Note_on_c, 9, 38, 0
1, 4297, Note_on_c, 1, 47, 0
1, 4310, Note_on_c, 1, 51, 0
1, 4319, Note_on_c, 1, 52, 60
1, 4326, Control_c, 0, 64, 0
1, 4329, Note_on_c, 0, 67, 53
1, 4333, Note_on_c, 0, 62, 28
1, 4333, Note_on_c, 0, 52, 27
1, 4336, Note_on_c, 0, 59, 20
1, 4338, Note_on_c, 0, 55, 27
1, 4382, Note_on_c, 1, 52, 0
1, 4393, Note_on_c, 1, 57, 79
1, 4398, Note_on_c, 9, 59, 66
1, 4413, Note_on_c, 0, 67, 0
1, 4415, Note_on_c, 9, 59, 0
1, 4430, Note_on_c, 1, 57, 0
1, 4440, Note_on_c, 1, 55, 72
1, 4440, Note_on_c, 9, 59, 68
1, 4475, Note_on_c, 9, 59, 0
1, 4493, Note_on_c, 0, 62, 0
1, 4510, Note_on_c, 9, 38, 36
1, 4511, Control_c, 0, 64, 127
1, 4522, Note_on_c, 0, 67, 68
1, 4522, Note_on_c, 0, 62, 29
1, 4532, Note_on_c, 9, 38, 0
1, 4540, Control_c, 0, 64, 0
1, 4547, Note_off_c, 0, 67, 0
1, 4557, Note_on_c, 9, 36, 29
1, 4561, Note_on_c, 0, 55, 0
1, 4563, Note_on_c, 0, 59, 0
1, 4566, Note_on_c, 0, 69, 74
1, 4568, Note_on_c, 0, 62, 0
1, 4569, Note_on_c, 0, 52, 0
1, 4570, Note_on_c, 9, 36, 0
1, 4585, Note_on_c, 0, 69, 0
1, 4601, Note_on_c, 1, 52, 70
1, 4602, Note_on_c, 0, 69, 68
1, 4608, Note_on_c, 1, 52, 0
1, 4613, Note_on_c, 1, 55, 0
1, 4623, Control_c, 0, 64, 127
1, 4628, Note_off_c, 0, 69, 0
1, 4634, Note_on_c, 9, 36, 31
1, 4637, Control_c, 0, 64, 0
1, 4638, Note_on_c, 1, 47, 68
1, 4638, Note_on_c, 9, 59, 57
1, 4644, Note_on_c, 9, 36, 0
1, 4647, Note_on_c, 0, 71, 82
1, 4650, Note_on_c, 9, 59, 0
1, 4653, Note_on_c, 0, 64, 57
1, 4657, Note_on_c, 0, 60, 47
1, 4658, Note_on_c, 0, 59, 40
1, 4658, Note_on_c, 0, 55, 29
1, 4666, Note_on_c, 1, 47, 0
1, 4671, Note_on_c, 0, 71, 0
1, 4676, Note_on_c, 9, 59, 53
1, 4683, Note_on_c, 1, 46, 68
1, 4688, Note_on_c, 0, 71, 64
1, 4697, Note_on_c, 9, 59, 0
1, 4704, Note_on_c, 1, 46, 0
1, 4714, Note_on_c, 0, 71, 0
1, 4722, Note_on_c, 1, 45, 63
1, 4742, Note_on_c, 1, 45, 0
1, 4752, Note_on_c, 0, 81, 84
1, 4759, Note_on_c, 9, 59, 83
1, 4761, Note_on_c, 1, 40, 74
1, 4762, Note_on_c, 9, 53, 80
1, 4776, Note_on_c, 0, 81, 0
1, 4781, Note_on_c, 9, 59, 0
1, 4782, Note_on_c, 9, 53, 0
1, 4785, Note_on_c, 0, 64, 0
1, 4787, Note_on_c, 0, 60, 0
1, 4788, Note_on_c, 0, 59, 0
1, 4791, Note_on_c, 1, 40, 0
1, 4791, Note_on_c, 0, 55, 0
1, 4803, Note_on_c, 1, 33, 82
1, 4840, Note_on_c, 0, 64, 59
1, 4843, Note_on_c, 0, 81, 89
1, 4845, Note_on_c, 0, 60, 50
1, 4845, Note_on_c, 0, 59, 32
1, 4848, Note_on_c, 0, 55, 36
1, 4882, Control_c, 0, 64, 127
1, 4918, Control_c, 0, 64, 0
1, 4933, Note_on_c, 9, 59, 87
1, 4935, Note_on_c, 9, 53, 78
1, 4942, Control_c, 0, 64, 127
1, 4956, Note_off_c, 9, 53, 0
1, 4969, Note_off_c, 9, 59, 0
1, 4971, Note_off_c, 0, 55, 0
1, 4976, Note_off_c, 0, 59, 0
1, 4977, Note_off_c, 0, 64, 0
1, 4982, Note_off_c, 0, 60, 0
1, 4994, Note_off_c, 0, 81, 0
1, 4996, Note_on_c, 1, 39, 63
1, 5015, Note_on_c, 1, 33, 0
1, 5020, Note_on_c, 1, 39, 0
1, 5020, Note_on_c, 0, 79, 60
1, 5033, Note_on_c, 0, 60, 24
1, 5041, Note_on_c, 1, 38, 61
1, 5047, Note_on_c, 0, 60, 0
1, 5054, Note_on_c, 0, 79, 0
1, 5054, Control_c, 0, 64, 0
1, 5062, Note_on_c, 0, 55, 27
1, 5064, Note_on_c, 0, 60, 22
1, 5066, Note_on_c, 0, 71, 50
1, 5067, Note_on_c, 0, 64, 37
1, 5067, Note_on_c, 9, 38, 22
1, 5071, Note_on_c, 0, 57, 49
1, 5077, Note_on_c, 9, 38, 0
1, 5099, Note_on_c, 9, 38, 37
1, 5119, Note_on_c, 9, 38, 0
1, 5141, Note_on_c, 9, 36, 33
1, 5152, Note_on_c, 9, 36, 0
1, 5159, Note_on_c, 1, 57, 95
1, 5163, Control_c, 0, 64, 127
1, 5171, Note_off_c, 0, 64, 0
1, 5179, Note_on_c, 9, 59, 59
1, 5180, Note_on_c, 0, 57, 0
1, 5185, Note_on_c, 0, 60, 0
1, 5186, Note_on_c, 0, 55, 0
1, 5190, Note_on_c, 9, 59, 0
1, 5206, Note_on_c, 0, 71, 0
1, 5211, Note_on_c, 1, 38, 0
1, 5237, Note_on_c, 0, 55, 49
1, 5240, Note_on_c, 0, 76, 59
1, 5240, Note_on_c, 0, 64, 38
1, 5242, Note_on_c, 0, 57, 51
1, 5243, Note_on_c, 0, 83, 50
1, 5244, Note_on_c, 0, 60, 38
1, 5251, Note_on_c, 9, 59, 63
1, 5254, Control_c, 0, 64, 0
1, 5263, Note_off_c, 9, 59, 0
1, 5283, Control_c, 0, 64, 127
1, 5288, Note_on_c, 1, 46, 87
1, 5325, Note_on_c, 0, 83, 0
1, 5326, Note_on_c, 0, 60, 0
1, 5327, Note_on_c, 0, 64, 0
1, 5336, Note_on_c, 0, 55, 0
1, 5337, Note_on_c, 0, 76, 0
1, 5345, Note_on_c, 0, 57, 0
1, 5358, Note_on_c, 9, 59, 57
1, 5367, Note_on_c, 9, 38, 33
1, 5376, Note_on_c, 9, 38, 0
1, 5385, Note_on_c, 9, 59, 0
1, 5400, Note_on_c, 1, 50, 72
1, 5403, Note_on_c, 1, 48, 61
1, 5404, Note_on_c, 1, 46, 0
1, 5410, Note_on_c, 1, 48, 0
1, 5410, Note_on_c, 0, 82, 52
1, 5411, Note_on_c, 0, 75, 55
1, 5411, Note_on_c, 0, 64, 55
1, 5411, Note_on_c, 9, 59, 72
1, 5413, Note_on_c, 0, 70, 42
1, 5414, Control_c, 0, 64, 0
1, 5414, Note_on_c, 0, 60, 40
1, 5414, Note_on_c, 9, 46, 62
1, 5415, Note_on_c, 0, 54, 36
1, 5417, Note_on_c, 0, 78, 31
1, 5465, Note_on_c, 9, 59, 0
1, 5474, Note_on_c, 9, 46, 0
1, 5494, Note_on_c, 9, 36, 18
1, 5501, Note_on_c, 9, 36, 0
1, 5505, Control_c, 0, 64, 127
1, 5513, Note_off_c, 0, 70, 0
1, 5516, Note_off_c, 0, 78, 0
1, 5516, Note_off_c, 0, 75, 0
1, 5518, Note_off_c, 1, 57, 0
1, 5518, Note_on_c, 1, 38, 88
1, 5526, Note_on_c, 0, 82, 0
1, 5531, Note_on_c, 9, 38, 38
1, 5534, Note_on_c, 0, 60, 0
1, 5536, Note_on_c, 0, 64, 0
1, 5539, Note_on_c, 9, 38, 0
1, 5540, Note_on_c, 0, 54, 0
1, 5595, Note_on_c, 9, 59, 82
1, 5597, Note_on_c, 9, 46, 74
1, 5606, Note_on_c, 0, 74, 63
1, 5606, Note_on_c, 9, 38, 47
1, 5607, Note_on_c, 0, 86, 60
1, 5609, Note_on_c, 0, 82, 40
1, 5610, Note_on_c, 0, 78, 37
1, 5610, Note_on_c, 0, 65, 48
1, 5613, Note_on_c, 0, 60, 42
1, 5614, Control_c, 0, 64, 0
1, 5615, Note_on_c, 0, 58, 34
1, 5616, Note_on_c, 0, 54, 26
1, 5621, Note_on_c, 9, 38, 0
1, 5635, Note_on_c, 1, 38, 0
1, 5639, Note_on_c, 9, 46, 0
1, 5640, Note_on_c, 1, 42, 87
1, 5652, Note_on_c, 9, 38, 39
1, 5653, Note_on_c, 1, 50, 0
1, 5656, Control_c, 0, 64, 127
1, 5667, Note_off_c, 9, 38, 0
1, 5672, Note_off_c, 9, 59, 0
1, 5687, Note_off_c, 0, 78, 0
1, 5687, Note_off_c, 0, 74, 0
1, 5690, Note_off_c, 0, 60, 0
1, 5690, Note_off_c, 0, 65, 0
1, 5705, Note_off_c, 0, 82, 0
1, 5713, Note_off_c, 0, 86, 0
1, 5719, Note_off_c, 0, 54, 0
1, 5719, Note_on_c, 9, 36, 38
1, 5725, Note_on_c, 9, 59, 56
1, 5727, Note_on_c, 9, 36, 0
1, 5738, Note_on_c, 0, 58, 0
1, 5740, Note_on_c, 9, 59, 0
1, 5750, Note_on_c, 1, 42, 0
1, 5760, Note_on_c, 1, 43, 66
1, 5763, Note_on_c, 9, 38, 51
1, 5764, Note_on_c, 9, 57, 53
1, 5772, Note_on_c, 9, 57, 0
1, 5773, Note_on_c, 0, 64, 48
1, 5773, Note_on_c, 9, 59, 78
1, 5775, Note_on_c, 0, 83, 41
1, 5776, Control_c, 0, 64, 0
1, 5779, Note_on_c, 0, 54, 31
1, 5780, Note_on_c, 9, 38, 0
1, 5781, Note_on_c, 0, 59, 32
1, 5832, Note_on_c, 9, 59, 0
1, 5885, Control_c, 0, 64, 127
1, 5917, Note_off_c, 0, 64, 0
1, 5920, Note_off_c, 0, 59, 0
1, 5925, Note_off_c, 0, 54, 0
1, 5934, Note_on_c, 1, 57, 91
1, 5949, Note_on_c, 0, 83, 0
1, 5953, Note_on_c, 9, 59, 77
1, 5958, Note_on_c, 9, 53, 68
1, 5959, Note_on_c, 1, 57, 0
1, 5962, Note_on_c, 0, 90, 64
1, 5963, Note_on_c, 0, 54, 37
1, 5965, Note_on_c, 0, 64, 51
1, 5968, Note_on_c, 1, 55, 86
1, 5969, Note_on_c, 0, 59, 37
1, 5977, Control_c, 0, 64, 0
1, 5979, Note_off_c, 9, 59, 0
1, 5980, Note_off_c, 9, 53, 0
1, 5991, Note_off_c, 1, 55, 0
1, 5993, Note_off_c, 0, 90, 0
1, 6014, Note_on_c, 1, 54, 80
1, 6020, Note_on_c, 0, 64, 0
1, 6021, Note_on_c, 0, 86, 50
1, 6027, Note_on_c, 0, 59, 0
1, 6035, Note_on_c, 0, 54, 0
1, 6044, Note_on_c, 1, 54, 0
1, 6053, Note_on_c, 0, 86, 0
1, 6088, Note_on_c, 1, 51, 86
1, 6118, Note_on_c, 1, 51, 0
1, 6133, Note_on_c, 1, 43, 0
1, 6135, Note_on_c, 0, 62, 39
1, 6138, Note_on_c, 1, 52, 75
1, 6144, Note_on_c, 0, 59, 26
1, 6148, Note_on_c, 0, 55, 24
1, 6156, Note_on_c, 0, 62, 0
1, 6163, Note_on_c, 0, 55, 0
1, 6164, Note_on_c, 0, 59, 0
1, 6189, Note_on_c, 1, 52, 0
1, 6210, Note_on_c, 1, 47, 72
1, 6231, Note_on_c, 1, 47, 0
1, 6249, Note_on_c, 0, 83, 62
1, 6254, Note_on_c, 1, 43, 52
1, 6268, Note_on_c, 0, 83, 0
1, 6320, Note_on_c, 9, 59, 79
1, 6323, Note_on_c, 9, 53, 54
1, 6329, Note_on_c, 0, 90, 79
1, 6335, Note_on_c, 0, 62, 54
1, 6336, Note_on_c, 0, 59, 38
1, 6338, Note_on_c, 0, 55, 44
1, 6341, Note_on_c, 9, 53, 0
1, 6341, Note_on_c, 0, 60, 31
1, 6344, Note_on_c, 0, 62, 0
1, 6348, Note_on_c, 9, 59, 0
1, 6349, Note_on_c, 0, 60, 0
1, 6352, Note_on_c, 0, 59, 0
1, 6354, Note_on_c, 0, 55, 0
1, 6365, Note_on_c, 0, 90, 0
1, 6387, Note_on_c, 0, 86, 64
1, 6404, Note_on_c, 9, 59, 75
1, 6407, Note_on_c, 0, 86, 0
1, 6426, Note_on_c, 1, 43, 0
1, 6433, Note_on_c, 9, 59, 0
1, 6438, Note_on_c, 1, 44, 73
1, 6452, Note_on_c, 9, 38, 32
1, 6460, Note_on_c, 9, 38, 0
1, 6467, Note_on_c, 1, 44, 0
1, 6478, Note_on_c, 1, 45, 60
1, 6488, Note_on_c, 0, 64, 61
1, 6492, Note_on_c, 9, 38, 40
1, 6495, Note_on_c, 0, 83, 45
1, 6497, Note_on_c, 0, 59, 35
1, 6497, Note_on_c, 9, 53, 66
1, 6498, Note_on_c, 0, 60, 34
1, 6500, Note_on_c, 0, 64, 0
1, 6500, Note_on_c, 1, 45, 0
1, 6502, Note_on_c, 9, 59, 79
1, 6506, Note_on_c, 9, 38, 0
1, 6509, Note_on_c, 0, 60, 0
1, 6510, Note_on_c, 0, 59, 0
1, 6518, Note_on_c, 9, 53, 0
1, 6523, Note_on_c, 0, 83, 0
1, 6537, Note_on_c, 9, 59, 0
1, 6552, Note_on_c, 1, 48, 70
1, 6565, Note_on_c, 9, 38, 54
1, 6569, Note_on_c, 0, 90, 79
1, 6570, Note_on_c, 1, 48, 0
1, 6577, Note_on_c, 9, 38, 0
1, 6583, Note_on_c, 9, 59, 65
1, 6597, Note_on_c, 1, 50, 78
1, 6603, Note_on_c, 0, 90, 0
1, 6604, Note_on_c, 9, 59, 0
1, 6624, Note_on_c, 0, 86, 52
1, 6626, Note_on_c, 1, 50, 0
1, 6646, Note_on_c, 0, 86, 0
1, 6666, Note_on_c, 9, 53, 76
1, 6668, Note_on_c, 9, 59, 77
1, 6674, Note_on_c, 1, 52, 91
1, 6694, Note_on_c, 9, 53, 0
1, 6702, Pitch_bend_c, 1, 8192
1, 6702, Pitch_bend_c, 1, 8192
1, 6703, Note_off_c, 9, 59, 0
1, 6704, Pitch_bend_c, 1, 8192
1, 6707, Pitch_bend_c, 1, 7552
1, 6709, Pitch_bend_c, 1, 7296
1, 6710, Pitch_bend_c, 1, 7040
1, 6712, Pitch_bend_c, 1, 6912
1, 6713, Pitch_bend_c, 1, 6656
1, 6714, Pitch_bend_c, 1, 6528
1, 6716, Pitch_bend_c, 1, 6400
1, 6717, Pitch_bend_c, 1, 6144
1, 6719, Pitch_bend_c, 1, 6016
1, 6720, Note_on_c, 0, 64, 50
1, 6720, Pitch_bend_c, 1, 5760
1, 6722, Pitch_bend_c, 1, 5632
1, 6723, Pitch_bend_c, 1, 5504
1, 6725, Pitch_bend_c, 1, 5376
1, 6726, Pitch_bend_c, 1, 5120
1, 6727, Note_on_c, 0, 55, 29
1, 6727, Pitch_bend_c, 1, 4992
1, 6728, Note_on_c, 0, 59, 30
1, 6728, Note_on_c, 0, 60, 34
1, 6729, Pitch_bend_c, 1, 4864
1, 6730, Pitch_bend_c, 1, 4736
1, 6732, Pitch_bend_c, 1, 4608
1, 6733, Pitch_bend_c, 1, 4480
1, 6735, Pitch_bend_c, 1, 4224
1, 6736, Pitch_bend_c, 1, 4096
1, 6737, Pitch_bend_c, 1, 3840
1, 6739, Note_off_c, 0, 64, 0
1, 6739, Pitch_bend_c, 1, 3712
1, 6740, Pitch_bend_c, 1, 3584
1, 6741, Note_off_c, 0, 60, 0
1, 6742, Note_off_c, 0, 59, 0
1, 6742, Pitch_bend_c, 1, 3456
1, 6742, Note_on_c, 9, 59, 76
1, 6743, Pitch_bend_c, 1, 3200
1, 6744, Note_off_c, 0, 55, 0
1, 6745, Pitch_bend_c, 1, 3072
1, 6749, Pitch_bend_c, 1, 3584
1, 6750, Pitch_bend_c, 1, 4352
1, 6752, Pitch_bend_c, 1, 5888
1, 6753, Pitch_bend_c, 1, 7296
1, 6755, Pitch_bend_c, 1, 8192
1, 6755, Pitch_bend_c, 1, 8192
1, 6757, Note_off_c, 1, 52, 0
1, 6771, Note_off_c, 9, 59, 0
1, 6846, Note_on_c, 9, 59, 71
1, 6876, Control_c, 0, 64, 127
1, 6883, Note_on_c, 9, 38, 38
1, 6891, Note_on_c, 9, 38, 0
1, 6899, Note_on_c, 9, 59, 0
1, 6912, Note_on_c, 9, 38, 27
1, 6919, Note_on_c, 0, 64, 50
1, 6920, Note_on_c, 1, 50, 96
1, 6925, Note_on_c, 0, 60, 40
1, 6926, Note_on_c, 0, 54, 27
1, 6926, Control_c, 0, 64, 0
1, 6927, Note_on_c, 0, 59, 38
1, 6940, Note_on_c, 9, 38, 0
1, 6957, Note_on_c, 9, 38, 54
1, 6966, Note_on_c, 9, 59, 80
1, 6968, Control_c, 0, 64, 127
1, 7006, Note_off_c, 9, 38, 0
1, 7040, Note_on_c, 1, 45, 56
1, 7048, Note_on_c, 1, 45, 0
1, 7050, Note_on_c, 9, 59, 0
1, 7051, Note_on_c, 0, 83, 24
1, 7060, Note_on_c, 0, 83, 0
1, 7067, Control_c, 0, 64, 0
1, 7069, Note_on_c, 9, 38, 35
1, 7077, Note_on_c, 9, 38, 0
1, 7082, Note_on_c, 0, 85, 104
1, 7086, Note_on_c, 1, 38, 54
1, 7090, Note_on_c, 0, 86, 74
1, 7093, Note_on_c, 0, 59, 0
1, 7103, Note_on_c, 9, 38, 28
1, 7104, Note_on_c, 0, 60, 0
1, 7104, Note_on_c, 1, 38, 0
1, 7106, Note_on_c, 0, 64, 0
1, 7109, Note_on_c, 0, 85, 0
1, 7120, Note_on_c, 9, 38, 0
1, 7136, Note_on_c, 0, 54, 0
1, 7144, Note_on_c, 0, 86, 0
1, 7146, Note_on_c, 9, 38, 57
1, 7163, Control_c, 0, 64, 127
1, 7164, Note_on_c, 9, 59, 63
1, 7165, Note_on_c, 0, 84, 90
1, 7165, Note_on_c, 1, 42, 73
1, 7172, Note_on_c, 0, 59, 56
1, 7175, Note_on_c, 0, 62, 45
1, 7179, Control_c, 0, 64, 0
1, 7182, Note_on_c, 0, 57, 36
1, 7186, Note_on_c, 9, 59, 0
1, 7192, Note_on_c, 1, 50, 0
1, 7196, Note_on_c, 9, 38, 0
1, 7197, Note_on_c, 1, 42, 0
1, 7205, Note_on_c, 1, 43, 73
1, 7206, Note_on_c, 0, 84, 0
1, 7207, Note_on_c, 9, 59, 64
1, 7226, Note_on_c, 0, 83, 53
1, 7245, Note_on_c, 0, 59, 0
1, 7264, Note_on_c, 9, 59, 0
1, 7274, Note_on_c, 0, 83, 0
1, 7311, Note_on_c, 0, 62, 0
1, 7328, Note_on_c, 0, 84, 88
1, 7335, Control_c, 0, 64, 127
1, 7341, Note_off_c, 0, 57, 0
1, 7367, Note_off_c, 0, 84, 0
1, 7407, Note_on_c, 1, 42, 27
1, 7408, Note_on_c, 0, 86, 76
1, 7410, Note_on_c, 0, 62, 58
1, 7411, Note_on_c, 0, 59, 55
1, 7414, Note_on_c, 0, 57, 44
1, 7416, Control_c, 0, 64, 0
1, 7417, Note_on_c, 9, 59, 74
1, 7421, Note_on_c, 0, 62, 0
1, 7428, Note_on_c, 0, 57, 0
1, 7433, Note_on_c, 0, 59, 0
1, 7433, Note_on_c, 0, 86, 0
1, 7435, Note_on_c, 9, 59, 0
1, 7439, Note_on_c, 1, 42, 0
1, 7443, Note_on_c, 1, 57, 109
1, 7452, Note_on_c, 9, 59, 78
1, 7497, Note_on_c, 9, 59, 0
1, 7504, Note_on_c, 1, 43, 0
1, 7520, Note_on_c, 0, 87, 91
1, 7522, Note_on_c, 0, 83, 76
1, 7523, Note_on_c, 0, 95, 85
1, 7523, Note_on_c, 0, 59, 80
1, 7523, Note_on_c, 0, 91, 71
1, 7524, Note_on_c, 0, 64, 89
1, 7525, Note_on_c, 0, 53, 79
1, 7540, Note_on_c, 0, 88, 47
1, 7551, Note_on_c, 0, 87, 0
1, 7557, Note_on_c, 1, 57, 0
1, 7561, Note_on_c, 1, 55, 94
1, 7561, Note_on_c, 9, 59, 88
1, 7565, Note_on_c, 0, 53, 0
1, 7565, Note_on_c, 0, 83, 0
1, 7566, Note_on_c, 0, 88, 0
1, 7567, Note_on_c, 0, 64, 0
1, 7571, Note_on_c, 0, 95, 0
1, 7573, Note_on_c, 0, 91, 0
1, 7578, Note_on_c, 0, 59, 0
1, 7598, Note_on_c, 0, 59, 67
1, 7598, Note_on_c, 0, 87, 82
1, 7600, Note_on_c, 0, 53, 72
1, 7601, Note_on_c, 0, 95, 72
1, 7601, Note_on_c, 0, 64, 70
1, 7602, Note_on_c, 0, 83, 71
1, 7604, Note_on_c, 0, 91, 49
1, 7619, Control_c, 0, 64, 127
1, 7634, Note_off_c, 9, 59, 0
1, 7637, Note_on_c, 9, 40, 35
1, 7649, Note_on_c, 0, 88, 48
1, 7655, Note_on_c, 0, 87, 0
1, 7656, Note_on_c, 9, 40, 0
1, 7659, Note_on_c, 0, 53, 0
1, 7664, Note_on_c, 0, 91, 0
1, 7665, Note_on_c, 0, 95, 0
1, 7665, Note_on_c, 0, 64, 0
1, 7666, Note_on_c, 0, 88, 0
1, 7667, Note_on_c, 0, 83, 0
1, 7671, Control_c, 0, 64, 0
1, 7673, Note_off_c, 0, 59, 0
1, 7680, Note_on_c, 9, 59, 82
1, 7687, Note_on_c, 9, 38, 18
1, 7696, Note_on_c, 0, 59, 61
1, 7696, Note_on_c, 0, 64, 68
1, 7698, Note_on_c, 0, 93, 79
1, 7699, Note_on_c, 0, 81, 68
1, 7699, Note_on_c, 0, 53, 74
1, 7700, Note_on_c, 0, 87, 78
1, 7733, Note_on_c, 9, 38, 0
1, 7756, Note_on_c, 9, 59, 0
1, 7757, Note_on_c, 0, 88, 55
1, 7759, Note_on_c, 0, 53, 0
1, 7760, Note_on_c, 0, 87, 0
1, 7760, Note_on_c, 1, 47, 81
1, 7763, Note_on_c, 9, 38, 54
1, 7764, Note_on_c, 0, 64, 0
1, 7768, Note_on_c, 0, 88, 0
1, 7771, Note_on_c, 0, 93, 0
1, 7775, Note_on_c, 1, 47, 0
1, 7776, Note_on_c, 0, 81, 0
1, 7783, Note_on_c, 0, 59, 0
1, 7795, Note_on_c, 9, 38, 0
1, 7799, Note_on_c, 1, 43, 77
1, 7811, Note_on_c, 9, 38, 40
1, 7820, Control_c, 0, 64, 127
1, 7834, Note_off_c, 1, 55, 0
1, 7853, Note_off_c, 9, 38, 0
1, 7857, Control_c, 0, 64, 0
1, 7874, Note_on_c, 0, 85, 78
1, 7875, Note_on_c, 0, 91, 74
1, 7875, Note_on_c, 0, 59, 62
1, 7876, Note_on_c, 0, 63, 63
1, 7876, Note_on_c, 0, 79, 66
1, 7876, Note_on_c, 0, 53, 59
1, 7879, Note_on_c, 0, 56, 45
1, 7883, Note_on_c, 9, 38, 51
1, 7890, Note_on_c, 9, 59, 59
1, 7896, Control_c, 0, 64, 127
1, 7902, Note_off_c, 9, 59, 0
1, 7914, Note_off_c, 1, 43, 0
1, 7915, Note_off_c, 9, 38, 0
1, 7915, Note_on_c, 0, 86, 46
1, 7916, Note_on_c, 0, 85, 0
1, 7917, Note_on_c, 1, 48, 84
1, 7920, Note_on_c, 0, 53, 0
1, 7923, Note_on_c, 0, 91, 0
1, 7924, Note_on_c, 0, 56, 0
1, 7925, Note_on_c, 0, 63, 0
1, 7925, Note_on_c, 9, 59, 71
1, 7929, Note_on_c, 0, 79, 0
1, 7930, Note_on_c, 0, 86, 0
1, 7961, Control_c, 0, 64, 0
1, 7964, Note_on_c, 0, 62, 53
1, 7970, Note_on_c, 0, 76, 53
1, 7970, Note_on_c, 0, 52, 48
1, 7971, Note_on_c, 0, 88, 49
1, 7973, Note_on_c, 0, 83, 41
1, 7974, Note_on_c, 0, 55, 40
1, 7984, Note_on_c, 9, 59, 0
1, 8003, Note_on_c, 9, 36, 40
1, 8019, Note_on_c, 9, 36, 0
1, 8035, Note_on_c, 1, 36, 92
1, 8047, Note_on_c, 9, 59, 82
1, 8058, Control_c, 0, 64, 127
1, 8102, Note_off_c, 9, 59, 0
1, 8104, Note_off_c, 0, 88, 0
1, 8125, Note_off_c, 0, 83, 0
1, 8143, Note_off_c, 0, 76, 0
1, 8147, Note_off_c, 0, 59, 0
1, 8151, Note_off_c, 0, 62, 0
1, 8152, Note_off_c, 0, 55, 0
1, 8166, Note_on_c, 9, 59, 81
1, 8170, Note_on_c, 0, 52, 0
1, 8230, Note_on_c, 9, 59, 0
1, 8242, Note_on_c, 9, 38, 38
1, 8247, Note_on_c, 1, 42, 39
1, 8252, Note_on_c, 1, 48, 0
1, 8258, Note_on_c, 9, 38, 0
1, 8272, Note_on_c, 1, 42, 0
1, 8272, Control_c, 0, 64, 0
1, 8275, Note_off_c, 1, 36, 0
1, 8277, Note_on_c, 1, 47, 91
1, 8285, Note_on_c, 0, 47, 40
1, 8292, Note_on_c, 9, 36, 20
1, 8306, Note_on_c, 9, 36, 0
1, 8364, Note_on_c, 9, 36, 28
1, 8377, Note_on_c, 9, 36, 0
1, 8398, Note_on_c, 1, 35, 94
1, 8402, Note_on_c, 0, 63, 35
1, 8404, Note_on_c, 0, 57, 25
1, 8405, Note_on_c, 0, 66, 26
1, 8406, Note_on_c, 0, 51, 34
1, 8408, Note_on_c, 0, 59, 28
1, 8442, Control_c, 0, 64, 127
1, 8472, Note_off_c, 0, 59, 0
1, 8499, Note_off_c, 0, 63, 0
1, 8500, Note_off_c, 0, 47, 0
1, 8507, Note_off_c, 0, 66, 0
1, 8510, Note_off_c, 0, 51, 0
1, 8514, Note_off_c, 0, 57, 0
1, 8518, Note_on_c, 9, 44, 51
1, 8523, Note_on_c, 9, 59, 84
1, 8548, Note_on_c, 9, 44, 0
1, 8569, Note_on_c, 9, 59, 0
1, 8582, Note_on_c, 1, 35, 0
1, 8602, Note_on_c, 1, 39, 67
1, 8604, Note_on_c, 9, 38, 21
1, 8607, Note_on_c, 1, 47, 0
1, 8607, Note_on_c, 9, 59, 53
1, 8622, Note_on_c, 9, 59, 0
1, 8624, Note_on_c, 1, 39, 0
1, 8626, Note_on_c, 9, 38, 0
1, 8641, Note_on_c, 1, 40, 79
1, 8642, Note_on_c, 9, 59, 70
1, 8645, Control_c, 0, 64, 0
1, 8652, Note_on_c, 9, 38, 15
1, 8656, Note_on_c, 0, 59, 30
1, 8656, Note_on_c, 0, 62, 42
1, 8659, Note_on_c, 0, 52, 36
1, 8659, Note_on_c, 0, 79, 62
1, 8661, Note_on_c, 0, 74, 55
1, 8662, Note_on_c, 9, 38, 0
1, 8662, Note_on_c, 0, 67, 53
1, 8663, Note_on_c, 0, 55, 34
1, 8686, Note_on_c, 0, 67, 0
1, 8696, Note_on_c, 9, 59, 0
1, 8704, Note_on_c, 0, 79, 0
1, 8723, Note_on_c, 0, 74, 0
1, 8730, Note_on_c, 0, 78, 42
1, 8762, Note_on_c, 0, 78, 0
1, 8764, Note_on_c, 9, 44, 35
1, 8776, Note_on_c, 0, 79, 43
1, 8782, Note_on_c, 9, 44, 0
1, 8785, Note_on_c, 0, 74, 27
1, 8795, Note_on_c, 0, 74, 0
1, 8802, Note_on_c, 0, 79, 0
1, 8805, Note_on_c, 0, 62, 0
1, 8805, Note_on_c, 1, 47, 49
1, 8812, Note_on_c, 0, 59, 0
1, 8816, Note_on_c, 0, 55, 0
1, 8828, Note_on_c, 1, 47, 0
1, 8843, Note_on_c, 0, 52, 0
1, 8844, Note_on_c, 1, 52, 77
1, 8845, Note_on_c, 0, 78, 67
1, 8853, Note_on_c, 9, 59, 52
1, 8868, Note_on_c, 9, 59, 0
1, 8877, Note_on_c, 0, 78, 0
1, 8877, Note_on_c, 1, 52, 0
1, 8887, Note_on_c, 1, 54, 73
1, 8887, Note_on_c, 9, 44, 36
1, 8892, Note_on_c, 9, 59, 68
1, 8894, Note_on_c, 0, 76, 53
1, 8902, Note_on_c, 9, 44, 0
1, 8911, Note_on_c, 9, 59, 0
1, 8917, Note_on_c, 1, 54, 0
1, 8920, Note_on_c, 1, 56, 63
1, 8928, Note_on_c, 1, 55, 77
1, 8929, Note_on_c, 1, 56, 0
1, 8934, Note_on_c, 0, 76, 0
1, 8947, Note_on_c, 1, 55, 0
1, 8966, Control_c, 0, 64, 127
1, 8969, Note_on_c, 9, 38, 28
1, 8970, Note_on_c, 1, 54, 81
1, 8977, Control_c, 0, 64, 0
1, 8979, Note_off_c, 9, 38, 0
1, 9003, Note_on_c, 0, 74, 65
1, 9015, Note_on_c, 1, 40, 0
1, 9041, Note_on_c, 1, 54, 0
1, 9057, Note_on_c, 1, 52, 69
1, 9085, Note_on_c, 9, 59, 55
1, 9088, Note_on_c, 9, 36, 26
1, 9096, Note_on_c, 1, 52, 0
1, 9097, Note_on_c, 9, 59, 0
1, 9105, Note_on_c, 9, 36, 0
1, 9121, Note_on_c, 0, 63, 34
1, 9122, Note_on_c, 0, 58, 45
1, 9123, Note_on_c, 0, 52, 40
1, 9123, Note_on_c, 9, 59, 67
1, 9128, Note_on_c, 1, 42, 78
1, 9170, Note_on_c, 9, 59, 0
1, 9244, Note_on_c, 9, 59, 108
1, 9249, Note_on_c, 0, 63, 0
1, 9250, Control_c, 0, 64, 127
1, 9253, Note_off_c, 0, 52, 0
1, 9273, Note_off_c, 0, 58, 0
1, 9312, Note_off_c, 0, 74, 0
1, 9316, Note_on_c, 1, 46, 80
1, 9317, Note_on_c, 9, 59, 0
1, 9324, Note_on_c, 0, 73, 44
1, 9346, Note_on_c, 1, 46, 0
1, 9356, Note_on_c, 0, 73, 0
1, 9357, Note_on_c, 1, 47, 64
1, 9360, Control_c, 0, 64, 0
1, 9371, Note_on_c, 0, 47, 50
1, 9376, Note_on_c, 0, 57, 33
1, 9376, Note_on_c, 9, 59, 62
1, 9377, Note_on_c, 0, 74, 51
1, 9389, Note_on_c, 9, 59, 0
1, 9395, Note_on_c, 1, 42, 0
1, 9404, Control_c, 0, 64, 127
1, 9430, Note_off_c, 0, 74, 0
1, 9446, Note_on_c, 1, 42, 39
1, 9449, Note_on_c, 9, 59, 89
1, 9453, Note_on_c, 0, 76, 80
1, 9463, Note_on_c, 1, 47, 0
1, 9467, Note_on_c, 0, 47, 0
1, 9471, Note_on_c, 1, 42, 0
1, 9474, Note_on_c, 1, 49, 71
1, 9485, Note_on_c, 9, 44, 28
1, 9487, Note_on_c, 0, 57, 0
1, 9499, Note_on_c, 9, 59, 0
1, 9500, Note_on_c, 9, 44, 0
1, 9504, Note_on_c, 0, 76, 0
1, 9539, Note_on_c, 0, 78, 80
1, 9571, Note_on_c, 1, 42, 47
1, 9585, Note_on_c, 1, 49, 0
1, 9587, Note_on_c, 1, 42, 0
1, 9594, Note_on_c, 9, 59, 68
1, 9596, Note_on_c, 0, 78, 0
1, 9599, Note_on_c, 1, 50, 68
1, 9603, Note_on_c, 9, 44, 50
1, 9616, Note_on_c, 9, 44, 0
1, 9620, Note_on_c, 9, 59, 0
1, 9623, Note_on_c, 0, 72, 57
1, 9624, Note_on_c, 0, 76, 66
1, 9626, Control_c, 0, 64, 0
1, 9641, Control_c, 0, 64, 127
1, 9677, Note_on_c, 9, 38, 54
1, 9685, Note_on_c, 0, 72, 0
1, 9694, Note_on_c, 0, 76, 0
1, 9695, Note_on_c, 9, 38, 0
1, 9699, Control_c, 0, 64, 0
1, 9705, Note_on_c, 0, 72, 57
1, 9705, Note_on_c, 0, 62, 37
1, 9707, Note_on_c, 1, 50, 0
1, 9707, Note_on_c, 0, 56, 33
1, 9711, Note_on_c, 0, 67, 43
1, 9718, Note_on_c, 1, 52, 75
1, 9722, Note_on_c, 9, 36, 40
1, 9725, Control_c, 0, 64, 127
1, 9735, Note_off_c, 0, 67, 0
1, 9745, Note_off_c, 0, 72, 0
1, 9748, Note_off_c, 9, 36, 0
1, 9787, Note_on_c, 0, 76, 48
1, 9789, Note_on_c, 0, 83, 54
1, 9791, Note_on_c, 0, 67, 43
1, 9799, Note_on_c, 9, 53, 63
1, 9801, Note_on_c, 1, 47, 66
1, 9801, Note_on_c, 9, 59, 55
1, 9808, Note_on_c, 1, 52, 0
1, 9813, Note_on_c, 0, 67, 0
1, 9822, Note_on_c, 1, 47, 0
1, 9830, Note_on_c, 9, 53, 0
1, 9838, Note_on_c, 1, 40, 85
1, 9841, Note_on_c, 9, 59, 0
1, 9850, Note_on_c, 0, 76, 0
1, 9853, Note_on_c, 0, 83, 0
1, 9861, Note_on_c, 0, 79, 51
1, 9867, Note_on_c, 0, 72, 40
1, 9872, Note_on_c, 0, 65, 33
1, 9873, Note_on_c, 9, 53, 65
1, 9876, Note_on_c, 9, 59, 66
1, 9877, Note_on_c, 0, 72, 0
1, 9884, Note_on_c, 0, 79, 0
1, 9885, Note_on_c, 0, 65, 0
1, 9904, Note_on_c, 9, 53, 0
1, 9909, Note_on_c, 0, 62, 0
1, 9921, Note_on_c, 9, 59, 0
1, 9942, Note_on_c, 0, 88, 73
1, 9943, Note_on_c, 0, 76, 62
1, 9945, Note_on_c, 0, 65, 61
1, 9945, Note_on_c, 0, 81, 61
1, 9946, Control_c, 0, 64, 0
1, 9947, Note_on_c, 0, 62, 39
1, 9963, Note_on_c, 9, 53, 57
1, 9963, Note_on_c, 9, 59, 70
1, 9965, Note_on_c, 9, 44, 23
1, 9975, Control_c, 0, 64, 127
1, 9976, Note_off_c, 9, 44, 0
1, 9989, Note_off_c, 0, 88, 0
1, 9989, Note_off_c, 0, 56, 0
1, 9994, Note_off_c, 0, 76, 0
1, 9995, Note_off_c, 0, 65, 0
1, 9999, Note_off_c, 9, 53, 0
1, 10001, Note_off_c, 0, 81, 0
1, 10012, Note_off_c, 9, 59, 0
1, 10012, Note_on_c, 9, 44, 36
1, 10015, Note_on_c, 0, 56, 49
1, 10018, Note_on_c, 0, 86, 55
1, 10020, Note_on_c, 9, 44, 0
1, 10022, Note_on_c, 0, 65, 35
1, 10023, Note_on_c, 0, 74, 57
1, 10031, Note_on_c, 1, 40, 0
1, 10032, Note_on_c, 0, 65, 0
1, 10035, Note_on_c, 0, 62, 0
1, 10036, Note_on_c, 1, 46, 91
1, 10042, Note_on_c, 9, 53, 65
1, 10044, Note_on_c, 9, 59, 64
1, 10048, Note_on_c, 0, 86, 0
1, 10052, Note_on_c, 9, 44, 56
1, 10055, Note_on_c, 0, 74, 0
1, 10062, Note_on_c, 0, 56, 0
1, 10067, Note_on_c, 9, 44, 0
1, 10069, Note_on_c, 9, 53, 0
1, 10078, Note_on_c, 1, 46, 0
1, 10082, Control_c, 0, 64, 0
1, 10083, Note_off_c, 9, 59, 0
1, 10086, Note_on_c, 0, 55, 53
1, 10086, Note_on_c, 0, 84, 60
1, 10087, Note_on_c, 0, 72, 62
1, 10088, Note_on_c, 0, 64, 44
1, 10092, Note_on_c, 0, 57, 37
1, 10099, Note_on_c, 0, 60, 36
1, 10103, Note_on_c, 9, 59, 64
1, 10104, Note_on_c, 9, 38, 19
1, 10114, Note_on_c, 9, 38, 0
1, 10130, Note_on_c, 1, 45, 79
1, 10157, Note_on_c, 9, 59, 0
1, 10159, Note_on_c, 1, 45, 0
1, 10166, Note_on_c, 1, 40, 63
1, 10169, Note_on_c, 9, 38, 34
1, 10177, Note_on_c, 0, 60, 0
1, 10179, Control_c, 0, 64, 127
1, 10187, Note_off_c, 1, 40, 0
1, 10189, Note_off_c, 0, 57, 0
1, 10192, Note_off_c, 9, 38, 0
1, 10194, Note_off_c, 0, 55, 0
1, 10195, Note_off_c, 0, 64, 0
1, 10199, Note_on_c, 9, 59, 68
1, 10200, Note_on_c, 0, 84, 0
1, 10202, Note_on_c, 0, 72, 0
1, 10202, Note_on_c, 1, 36, 80
1, 10213, Note_on_c, 9, 38, 30
1, 10233, Note_on_c, 9, 59, 0
1, 10236, Note_on_c, 9, 38, 0
1, 10272, Note_on_c, 0, 65, 82
1, 10272, Control_c, 0, 64, 0
1, 10273, Note_on_c, 0, 86, 81
1, 10273, Note_on_c, 0, 61, 51
1, 10273, Note_on_c, 0, 60, 71
1, 10274, Note_on_c, 0, 55, 73
1, 10274, Note_on_c, 0, 74, 85
1, 10274, Note_on_c, 0, 81, 81
1, 10280, Note_on_c, 0, 58, 48
1, 10283, Note_on_c, 9, 36, 38
1, 10284, Note_on_c, 9, 59, 73
1, 10302, Note_on_c, 9, 59, 0
1, 10306, Control_c, 0, 64, 127
1, 10307, Note_off_c, 9, 36, 0
1, 10308, Note_off_c, 1, 36, 0
1, 10320, Note_on_c, 1, 37, 68
1, 10323, Note_on_c, 0, 86, 0
1, 10324, Note_on_c, 0, 74, 0
1, 10325, Note_on_c, 0, 55, 0
1, 10327, Note_on_c, 0, 65, 0
1, 10330, Note_on_c, 0, 58, 0
1, 10331, Note_on_c, 9, 36, 30
1, 10333, Note_on_c, 0, 60, 0
1, 10339, Note_on_c, 0, 81, 0
1, 10339, Note_on_c, 0, 61, 0
1, 10350, Note_on_c, 9, 36, 0
1, 10357, Note_on_c, 0, 61, 53
1, 10358, Note_on_c, 0, 65, 76
1, 10358, Note_on_c, 0, 60, 64
1, 10358, Note_on_c, 0, 55, 68
1, 10360, Note_on_c, 0, 81, 67
1, 10361, Note_on_c, 0, 88, 88
1, 10361, Note_on_c, 0, 76, 72
1, 10367, Note_on_c, 0, 58, 34
1, 10389, Note_on_c, 9, 59, 71
1, 10401, Note_on_c, 0, 81, 0
1, 10401, Note_on_c, 1, 34, 33
1, 10404, Note_on_c, 0, 55, 0
1, 10405, Note_on_c, 0, 65, 0
1, 10411, Note_on_c, 9, 59, 0
1, 10411, Note_on_c, 0, 60, 0
1, 10415, Note_on_c, 0, 58, 0
1, 10416, Note_on_c, 0, 76, 0
1, 10420, Note_on_c, 0, 88, 0
1, 10422, Note_on_c, 0, 61, 0
1, 10433, Note_on_c, 1, 37, 0
1, 10438, Note_on_c, 1, 34, 0
1, 10438, Note_on_c, 1, 38, 75
1, 10439, Note_on_c, 9, 59, 71
1, 10448, Control_c, 0, 64, 0
1, 10450, Note_on_c, 9, 38, 43
1, 10454, Note_on_c, 0, 88, 80
1, 10455, Note_on_c, 0, 54, 53
1, 10456, Note_on_c, 0, 59, 55
1, 10456, Note_on_c, 0, 64, 57
1, 10457, Note_on_c, 9, 38, 0
1, 10457, Note_on_c, 0, 60, 64
1, 10457, Note_on_c, 0, 76, 66
1, 10465, Note_on_c, 0, 81, 40
1, 10475, Note_on_c, 0, 81, 0
1, 10486, Note_on_c, 9, 38, 48
1, 10503, Note_on_c, 9, 38, 0
1, 10503, Note_on_c, 9, 59, 0
1, 10538, Note_on_c, 9, 36, 16
1, 10548, Note_on_c, 9, 36, 0
1, 10568, Control_c, 0, 64, 127
1, 10570, Note_off_c, 0, 59, 0
1, 10588, Note_off_c, 0, 60, 0
1, 10595, Note_off_c, 0, 88, 0
1, 10597, Note_off_c, 0, 76, 0
1, 10598, Note_off_c, 0, 54, 0
1, 10600, Note_off_c, 0, 64, 0
1, 10633, Note_on_c, 1, 37, 73
1, 10640, Note_on_c, 1, 38, 0
1, 10641, Note_on_c, 0, 86, 46
1, 10642, Note_on_c, 9, 59, 61
1, 10643, Note_on_c, 0, 74, 60
1, 10645, Note_on_c, 0, 64, 69
1, 10645, Note_on_c, 0, 81, 58
1, 10648, Control_c, 0, 64, 0
1, 10650, Note_on_c, 9, 36, 31
1, 10651, Note_on_c, 0, 54, 36
1, 10653, Note_on_c, 0, 60, 43
1, 10654, Note_on_c, 1, 37, 0
1, 10654, Note_on_c, 0, 59, 36
1, 10659, Note_on_c, 9, 36, 0
1, 10659, Note_on_c, 9, 59, 0
1, 10670, Note_on_c, 1, 36, 70
1, 10677, Control_c, 0, 64, 127
1, 10680, Note_off_c, 0, 81, 0
1, 10684, Note_on_c, 9, 59, 60
1, 10689, Note_on_c, 0, 64, 0
1, 10689, Note_on_c, 0, 86, 0
1, 10689, Note_on_c, 9, 38, 33
1, 10695, Note_on_c, 0, 74, 0
1, 10698, Note_on_c, 9, 38, 0
1, 10701, Note_on_c, 0, 60, 0
1, 10710, Note_on_c, 0, 59, 0
1, 10717, Note_on_c, 9, 59, 0
1, 10726, Note_on_c, 9, 38, 52
1, 10730, Note_on_c, 0, 84, 51
1, 10731, Note_on_c, 0, 64, 58
1, 10734, Note_on_c, 0, 72, 65
1, 10743, Note_on_c, 9, 38, 0
1, 10747, Note_on_c, 0, 54, 0
1, 10756, Note_on_c, 0, 84, 0
1, 10758, Note_on_c, 0, 64, 0
1, 10761, Note_on_c, 9, 59, 105
1, 10762, Note_on_c, 0, 72, 0
1, 10762, Note_on_c, 9, 36, 42
1, 10781, Note_on_c, 1, 36, 0
1, 10784, Note_on_c, 9, 36, 0
1, 10787, Note_on_c, 1, 35, 68
1, 10793, Note_on_c, 9, 59, 0
1, 10808, Note_on_c, 9, 59, 85
1, 10812, Note_on_c, 9, 38, 39
1, 10819, Note_on_c, 9, 38, 0
1, 10833, Control_c, 0, 64, 0
1, 10870, Note_off_c, 9, 59, 0
1, 10875, Note_on_c, 0, 63, 37
1, 10877, Note_on_c, 0, 67, 50
1, 10878, Note_on_c, 0, 62, 37
1, 10879, Note_on_c, 0, 57, 44
1, 10879, Note_on_c, 0, 79, 42
1, 10879, Note_on_c, 0, 71, 44
1, 10886, Note_on_c, 0, 67, 0
1, 10890, Note_on_c, 0, 57, 0
1, 10893, Note_on_c, 0, 71, 0
1, 10894, Note_on_c, 0, 62, 0
1, 10896, Note_on_c, 0, 79, 0
1, 10898, Note_on_c, 0, 63, 0
1, 10910, Note_on_c, 1, 47, 61
1, 10921, Note_on_c, 9, 59, 53
1, 10962, Note_on_c, 9, 59, 0
1, 10966, Note_on_c, 0, 84, 57
1, 10966, Note_on_c, 0, 67, 51
1, 10967, Note_on_c, 0, 72, 64
1, 10967, Note_on_c, 0, 62, 50
1, 10969, Control_c, 0, 64, 127
1, 10969, Note_on_c, 0, 63, 32
1, 10970, Note_on_c, 0, 57, 46
1, 10976, Note_on_c, 0, 79, 32
1, 10992, Note_on_c, 0, 79, 0
1, 10992, Note_on_c, 0, 67, 0
1, 10997, Note_on_c, 1, 41, 59
1, 10999, Note_on_c, 9, 59, 58
1, 11001, Note_on_c, 0, 72, 0
1, 11003, Note_on_c, 0, 57, 0
1, 11005, Note_on_c, 1, 41, 0
1, 11006, Note_on_c, 0, 84, 0
1, 11009, Note_on_c, 0, 62, 0
1, 11010, Note_on_c, 0, 63, 0
1, 11019, Note_on_c, 9, 59, 0
1, 11026, Note_on_c, 1, 47, 0
1, 11036, Note_on_c, 1, 59, 72
1, 11037, Note_on_c, 9, 59, 70
1, 11040, Control_c, 0, 64, 0
1, 11040, Note_on_c, 0, 86, 64
1, 11041, Note_on_c, 0, 62, 31
1, 11042, Note_on_c, 0, 63, 42
1, 11043, Note_on_c, 0, 74, 55
1, 11043, Note_on_c, 0, 67, 60
1, 11043, Note_on_c, 0, 79, 48
1, 11045, Note_on_c, 0, 57, 58
1, 11046, Note_on_c, 1, 35, 0
1, 11069, Note_on_c, 9, 59, 0
1, 11071, Control_c, 0, 64, 127
1, 11080, Note_off_c, 0, 62, 0
1, 11089, Note_off_c, 0, 67, 0
1, 11089, Control_c, 0, 64, 0
1, 11090, Note_off_c, 0, 57, 0
1, 11091, Note_off_c, 0, 74, 0
1, 11096, Note_off_c, 0, 79, 0
1, 11096, Note_off_c, 0, 63, 0
1, 11103, Note_off_c, 0, 86, 0
1, 11120, Note_on_c, 1, 38, 63
1, 11128, Note_on_c, 1, 59, 0
1, 11128, Control_c, 0, 64, 127
1, 11131, Note_off_c, 1, 38, 0
1, 11156, Note_on_c, 9, 59, 95
1, 11157, Control_c, 0, 64, 0
1, 11157, Note_on_c, 1, 57, 96
1, 11160, Note_on_c, 1, 41, 88
1, 11166, Note_on_c, 9, 38, 22
1, 11170, Note_on_c, 0, 85, 77
1, 11171, Note_on_c, 0, 91, 66
1, 11172, Note_on_c, 0, 79, 59
1, 11174, Note_on_c, 0, 63, 68
1, 11174, Note_on_c, 0, 67, 79
1, 11174, Note_on_c, 0, 57, 77
1, 11181, Note_on_c, 9, 38, 0
1, 11187, Note_on_c, 1, 41, 0
1, 11191, Note_on_c, 1, 57, 0
1, 11193, Note_on_c, 0, 67, 0
1, 11203, Note_on_c, 0, 57, 0
1, 11204, Note_on_c, 1, 57, 56
1, 11206, Note_on_c, 0, 85, 0
1, 11214, Note_on_c, 0, 91, 0
1, 11216, Note_on_c, 0, 63, 0
1, 11216, Note_on_c, 1, 57, 0
1, 11218, Note_on_c, 0, 79, 0
1, 11242, Note_on_c, 9, 59, 0
1, 11248, Note_on_c, 9, 36, 28
1, 11258, Note_on_c, 9, 36, 0
1, 11274, Note_on_c, 1, 56, 96
1, 11275, Note_on_c, 1, 40, 95
1, 11280, Note_on_c, 9, 59, 78
1, 11285, Note_on_c, 9, 57, 51
1, 11289, Note_on_c, 9, 38, 39
1, 11297, Note_on_c, 0, 85, 49
1, 11297, Note_on_c, 0, 62, 60
1, 11298, Note_on_c, 0, 77, 49
1, 11298, Note_on_c, 0, 66, 62
1, 11300, Note_on_c, 0, 89, 57
1, 11301, Note_on_c, 0, 56, 57
1, 11306, Note_on_c, 0, 85, 0
1, 11315, Note_on_c, 0, 86, 22
1, 11357, Note_on_c, 9, 59, 0
1, 11394, Control_c, 0, 64, 127
1, 11406, Note_on_c, 9, 59, 76
1, 11421, Note_on_c, 9, 57, 0
1, 11444, Note_on_c, 0, 86, 0
1, 11449, Note_on_c, 1, 40, 0
1, 11449, Note_on_c, 1, 35, 38
1, 11452, Note_on_c, 0, 89, 0
1, 11455, Note_on_c, 0, 77, 0
1, 11459, Note_on_c, 9, 59, 0
1, 11461, Note_on_c, 0, 88, 67
1, 11462, Note_on_c, 1, 35, 0
1, 11469, Note_on_c, 0, 62, 0
1, 11470, Note_on_c, 0, 66, 0
1, 11484, Note_on_c, 1, 34, 85
1, 11490, Control_c, 0, 64, 0
1, 11491, Note_off_c, 9, 38, 0
1, 11495, Note_on_c, 9, 59, 55
1, 11498, Note_on_c, 0, 86, 53
1, 11499, Control_c, 0, 64, 127
1, 11504, Note_off_c, 0, 88, 0
1, 11509, Note_off_c, 0, 56, 0
1, 11515, Note_off_c, 9, 59, 0
1, 11517, Note_off_c, 1, 56, 0
1, 11517, Note_off_c, 1, 34, 0
1, 11525, Control_c, 0, 64, 0
1, 11530, Note_on_c, 1, 33, 96
1, 11531, Note_on_c, 9, 59, 80
1, 11532, Note_on_c, 0, 86, 0
1, 11539, Note_on_c, 0, 55, 42
1, 11543, Note_on_c, 0, 84, 44
1, 11544, Note_on_c, 0, 60, 38
1, 11545, Note_on_c, 0, 64, 46
1, 11547, Note_on_c, 0, 57, 28
1, 11599, Note_on_c, 9, 59, 0
1, 11613, Note_on_c, 9, 38, 33
1, 11623, Note_on_c, 9, 38, 0
1, 11642, Control_c, 0, 64, 127
1, 11647, Note_on_c, 9, 59, 92
1, 11659, Note_on_c, 9, 38, 24
1, 11661, Note_on_c, 0, 57, 0
1, 11664, Note_on_c, 0, 60, 0
1, 11664, Note_on_c, 0, 64, 0
1, 11669, Note_on_c, 0, 55, 0
1, 11679, Note_on_c, 9, 38, 0
1, 11718, Note_on_c, 0, 55, 44
1, 11718, Note_on_c, 0, 64, 46
1, 11722, Note_on_c, 0, 57, 45
1, 11722, Note_on_c, 0, 60, 40
1, 11725, Control_c, 0, 64, 0
1, 11730, Note_off_c, 0, 64, 0
1, 11730, Note_off_c, 0, 55, 0
1, 11733, Note_off_c, 0, 60, 0
1, 11734, Note_off_c, 0, 57, 0
1, 11738, Note_on_c, 9, 36, 25
1, 11749, Note_on_c, 9, 36, 0
1, 11750, Note_on_c, 9, 59, 0
1, 11776, Note_on_c, 9, 36, 30
1, 11793, Note_on_c, 0, 83, 55
1, 11794, Note_on_c, 0, 84, 0
1, 11800, Note_on_c, 1, 33, 0
1, 11802, Note_on_c, 9, 36, 0
1, 11809, Note_on_c, 1, 34, 75
1, 11817, Note_on_c, 0, 83, 0
1, 11819, Control_c, 0, 64, 127
1, 11831, Note_off_c, 1, 34, 0
1, 11831, Note_on_c, 0, 81, 66
1, 11842, Note_on_c, 9, 59, 64
1, 11848, Note_on_c, 1, 35, 89
1, 11860, Note_on_c, 9, 59, 0
1, 11861, Note_on_c, 0, 81, 0
1, 11866, Control_c, 0, 64, 0
1, 11871, Note_on_c, 0, 79, 42
1, 11873, Note_on_c, 0, 62, 42
1, 11878, Note_on_c, 0, 51, 30
1, 11880, Note_on_c, 0, 57, 39
1, 11881, Note_on_c, 1, 35, 0
1, 11881, Note_on_c, 0, 55, 31
1, 11884, Note_on_c, 9, 59, 75
1, 11891, Note_on_c, 1, 36, 95
1, 11905, Note_on_c, 0, 79, 0
1, 11954, Note_on_c, 0, 74, 57
1, 11966, Note_on_c, 9, 59, 0
1, 11982, Note_on_c, 1, 34, 47
1, 11986, Note_on_c, 0, 74, 0
1, 12008, Note_on_c, 0, 77, 71
1, 12013, Note_on_c, 1, 48, 92
1, 12015, Note_on_c, 0, 76, 25
1, 12016, Note_on_c, 1, 34, 0
1, 12024, Note_on_c, 0, 76, 0
1, 12040, Note_on_c, 0, 77, 0
1, 12076, Note_on_c, 0, 75, 77
1, 12079, Note_on_c, 9, 59, 60
1, 12088, Note_on_c, 9, 38, 21
1, 12095, Note_on_c, 9, 59, 0
1, 12096, Note_on_c, 9, 38, 0
1, 12111, Note_on_c, 0, 75, 0
1, 12116, Note_on_c, 9, 59, 80
1, 12120, Note_on_c, 9, 44, 45
1, 12123, Note_on_c, 0, 62, 0
1, 12127, Note_on_c, 0, 57, 0
1, 12132, Note_on_c, 0, 55, 0
1, 12139, Note_on_c, 0, 69, 26
1, 12152, Note_on_c, 0, 51, 0
1, 12161, Note_on_c, 9, 44, 0
1, 12174, Note_on_c, 1, 36, 0
1, 12177, Note_on_c, 9, 59, 0
1, 12183, Note_on_c, 0, 69, 0
1, 12192, Control_c, 0, 64, 127
1, 12199, Note_on_c, 1, 36, 57
1, 12205, Note_on_c, 0, 74, 44
1, 12229, Note_on_c, 1, 36, 0
1, 12232, Note_on_c, 0, 74, 0
1, 12232, Note_on_c, 9, 59, 95
1, 12241, Note_on_c, 1, 48, 0
1, 12242, Control_c, 0, 64, 0
1, 12242, Note_on_c, 1, 35, 66
1, 12246, Note_on_c, 0, 47, 41
1, 12246, Note_on_c, 0, 57, 36
1, 12246, Note_on_c, 9, 38, 16
1, 12259, Note_on_c, 9, 38, 0
1, 12303, Note_on_c, 9, 59, 0
1, 12357, Note_on_c, 9, 59, 92
1, 12361, Control_c, 0, 64, 127
1, 12363, Note_on_c, 1, 50, 114
1, 12368, Note_on_c, 0, 64, 35
1, 12372, Note_on_c, 1, 35, 0
1, 12381, Note_on_c, 0, 64, 0
1, 12428, Note_on_c, 9, 59, 0
1, 12437, Note_on_c, 9, 38, 18
1, 12439, Note_on_c, 0, 78, 72
1, 12444, Note_on_c, 1, 38, 75
1, 12445, Note_on_c, 9, 38, 0
1, 12448, Note_on_c, 0, 47, 0
1, 12449, Note_on_c, 0, 51, 25
1, 12461, Note_on_c, 0, 51, 0
1, 12463, Note_on_c, 1, 38, 0
1, 12465, Note_on_c, 0, 57, 0
1, 12470, Note_on_c, 1, 50, 0
1, 12474, Note_on_c, 9, 44, 46
1, 12480, Note_on_c, 9, 59, 101
1, 12483, Note_on_c, 0, 78, 0
1, 12484, Note_on_c, 1, 39, 86
1, 12513, Note_on_c, 0, 78, 71
1, 12536, Note_on_c, 9, 44, 0
1, 12545, Note_on_c, 9, 59, 0
1, 12567, Note_on_c, 9, 59, 64
1, 12574, Note_on_c, 0, 78, 0
1, 12583, Note_on_c, 9, 59, 0
1, 12602, Note_on_c, 9, 59, 85
1, 12603, Note_on_c, 1, 40, 79
1, 12606, Note_on_c, 1, 39, 0
1, 12611, Note_on_c, 0, 76, 43
1, 12616, Note_on_c, 0, 62, 36
1, 12617, Control_c, 0, 64, 0
1, 12617, Note_on_c, 0, 67, 43
1, 12618, Note_on_c, 0, 56, 35
1, 12619, Note_on_c, 0, 72, 58
1, 12668, Note_on_c, 9, 59, 0
1, 12682, Note_on_c, 1, 59, 95
1, 12685, Note_on_c, 9, 38, 19
1, 12696, Note_on_c, 9, 38, 0
1, 12711, Note_on_c, 1, 59, 0
1, 12722, Note_on_c, 9, 59, 108
1, 12722, Note_on_c, 9, 44, 41
1, 12724, Control_c, 0, 64, 127
1, 12745, Note_off_c, 0, 62, 0
1, 12747, Note_off_c, 0, 72, 0
1, 12751, Note_off_c, 0, 56, 0
1, 12753, Note_on_c, 1, 56, 79
1, 12754, Note_on_c, 0, 67, 0
1, 12775, Note_on_c, 0, 76, 0
1, 12784, Note_on_c, 9, 44, 0
1, 12797, Note_on_c, 9, 59, 0
1, 12802, Note_on_c, 0, 74, 43
1, 12805, Note_on_c, 0, 67, 42
1, 12806, Note_on_c, 0, 62, 38
1, 12806, Note_on_c, 0, 72, 44
1, 12807, Note_on_c, 0, 56, 37
1, 12813, Note_on_c, 9, 59, 63
1, 12820, Control_c, 0, 64, 0
1, 12827, Note_off_c, 9, 59, 0
1, 12834, Note_off_c, 1, 56, 0
1, 12840, Note_off_c, 1, 40, 0
1, 12840, Note_on_c, 9, 44, 50
1, 12844, Note_on_c, 1, 52, 82
1, 12848, Note_on_c, 9, 59, 85
1, 12849, Control_c, 0, 64, 127
1, 12862, Note_off_c, 0, 62, 0
1, 12880, Note_off_c, 9, 44, 0
1, 12888, Note_off_c, 0, 56, 0
1, 12903, Note_off_c, 0, 74, 0
1, 12904, Note_off_c, 0, 72, 0
1, 12904, Note_off_c, 9, 59, 0
1, 12911, Note_off_c, 0, 67, 0
1, 12913, Note_off_c, 1, 52, 0
1, 12920, Note_on_c, 9, 38, 32
1, 12924, Note_on_c, 1, 44, 87
1, 12939, Note_on_c, 9, 38, 0
1, 12965, Note_on_c, 9, 59, 105
1, 12968, Note_on_c, 0, 55, 32
1, 12969, Note_on_c, 0, 64, 35
1, 12969, Note_on_c, 0, 71, 45
1, 12971, Note_on_c, 0, 57, 38
1, 12974, Note_on_c, 0, 60, 38
1, 12979, Note_on_c, 1, 44, 0
1, 12979, Control_c, 0, 64, 0
1, 13000, Note_on_c, 1, 45, 81
1, 13043, Note_on_c, 9, 38, 22
1, 13052, Note_on_c, 9, 38, 0
1, 13053, Note_on_c, 9, 59, 0
1, 13071, Control_c, 0, 64, 127
1, 13073, Note_off_c, 1, 45, 0
1, 13083, Note_on_c, 1, 40, 81
1, 13087, Note_on_c, 9, 44, 26
1, 13091, Note_on_c, 0, 64, 0
1, 13092, Note_on_c, 9, 59, 79
1, 13094, Note_on_c, 0, 55, 0
1, 13094, Note_on_c, 0, 57, 0
1, 13095, Note_on_c, 0, 60, 0
1, 13104, Note_on_c, 9, 44, 0
1, 13123, Note_on_c, 9, 44, 33
1, 13130, Note_on_c, 9, 44, 0
1, 13135, Note_on_c, 9, 59, 0
1, 13149, Note_on_c, 0, 71, 0
1, 13160, Note_on_c, 0, 55, 38
1, 13160, Note_on_c, 9, 38, 42
1, 13161, Note_on_c, 0, 64, 40
1, 13161, Note_on_c, 0, 74, 57
1, 13166, Note_on_c, 0, 57, 38
1, 13168, Note_on_c, 0, 60, 36
1, 13190, Note_on_c, 1, 40, 0
1, 13200, Note_on_c, 1, 36, 64
1, 13209, Note_on_c, 9, 59, 76
1, 13223, Note_on_c, 0, 64, 0
1, 13224, Note_on_c, 9, 38, 0
1, 13240, Note_on_c, 9, 59, 0
1, 13247, Note_on_c, 0, 55, 0
1, 13249, Note_on_c, 0, 60, 0
1, 13252, Note_on_c, 0, 57, 0
1, 13282, Note_on_c, 1, 36, 0
1, 13283, Note_on_c, 1, 37, 75
1, 13289, Note_on_c, 9, 51, 76
1, 13290, Note_on_c, 9, 59, 87
1, 13294, Note_on_c, 0, 74, 0
1, 13314, Note_on_c, 9, 51, 0
1, 13316, Control_c, 0, 64, 0
1, 13317, Note_off_c, 1, 37, 0
1, 13323, Note_on_c, 0, 60, 40
1, 13324, Note_on_c, 1, 38, 80
1, 13326, Note_on_c, 0, 68, 28
1, 13326, Note_on_c, 0, 64, 31
1, 13327, Note_on_c, 0, 54, 35
1, 13328, Note_on_c, 0, 71, 25
1, 13347, Control_c, 0, 64, 127
1, 13357, Note_off_c, 9, 59, 0
1, 13382, Note_off_c, 0, 64, 0
1, 13401, Note_off_c, 0, 68, 0
1, 13403, Note_off_c, 0, 71, 0
1, 13408, Note_on_c, 9, 59, 64
1, 13430, Note_on_c, 9, 59, 0
1, 13443, Note_on_c, 9, 44, 22
1, 13454, Note_on_c, 9, 59, 78
1, 13458, Note_on_c, 9, 44, 0
1, 13478, Note_on_c, 0, 54, 0
1, 13482, Note_on_c, 9, 38, 46
1, 13498, Note_on_c, 0, 60, 0
1, 13519, Note_on_c, 9, 59, 0
1, 13524, Note_on_c, 0, 78, 71
1, 13527, Note_on_c, 0, 54, 50
1, 13528, Note_on_c, 0, 64, 46
1, 13529, Note_on_c, 0, 60, 33
1, 13537, Control_c, 0, 64, 0
1, 13547, Note_off_c, 9, 38, 0
1, 13556, Note_off_c, 1, 38, 0
1, 13562, Note_on_c, 1, 36, 78
1, 13568, Note_on_c, 9, 59, 101
1, 13595, Control_c, 0, 64, 127
1, 13600, Note_off_c, 0, 78, 0
1, 13606, Note_on_c, 0, 74, 66
1, 13632, Note_on_c, 9, 59, 0
1, 13640, Note_on_c, 0, 60, 0
1, 13649, Note_on_c, 0, 64, 0
1, 13655, Note_on_c, 9, 59, 63
1, 13674, Note_on_c, 0, 54, 0
1, 13675, Note_on_c, 9, 59, 0
1, 13678, Note_on_c, 1, 36, 0
1, 13683, Note_on_c, 1, 35, 78
1, 13691, Note_on_c, 9, 59, 77
1, 13692, Note_on_c, 9, 44, 24
1, 13697, Note_on_c, 0, 74, 0
1, 13700, Note_on_c, 0, 71, 63
1, 13704, Note_on_c, 9, 44, 0
1, 13707, Control_c, 0, 64, 0
1, 13730, Note_on_c, 9, 38, 60
1, 13753, Note_on_c, 9, 59, 0
1, 13792, Note_on_c, 9, 38, 0
1, 13804, Note_on_c, 9, 59, 81
1, 13816, Control_c, 0, 64, 127
1, 13820, Note_on_c, 9, 38, 38
1, 13847, Note_on_c, 9, 38, 0
1, 13856, Note_on_c, 9, 59, 0
1, 13867, Note_on_c, 0, 71, 0
1, 13880, Note_on_c, 0, 49, 47
1, 13884, Note_on_c, 0, 69, 55
1, 13884, Note_on_c, 0, 50, 48
1, 13889, Note_on_c, 9, 59, 83
1, 13899, Note_on_c, 0, 49, 0
1, 13902, Control_c, 0, 64, 0
1, 13937, Note_off_c, 9, 59, 0
1, 13939, Control_c, 0, 64, 127
1, 14005, Note_on_c, 9, 59, 67
1, 14005, Note_on_c, 9, 38, 32
1, 14014, Note_on_c, 9, 38, 0
1, 14017, Control_c, 0, 64, 0
1, 14018, Note_on_c, 1, 37, 49
1, 14020, Note_on_c, 9, 59, 0
1, 14033, Control_c, 0, 64, 127
1, 14038, Note_off_c, 1, 35, 0
1, 14043, Note_off_c, 1, 37, 0
1, 14051, Note_on_c, 1, 38, 76
1, 14059, Note_on_c, 0, 50, 0
1, 14112, Note_on_c, 0, 69, 0
1, 14125, Note_on_c, 0, 67, 37
1, 14126, Note_on_c, 9, 38, 31
1, 14127, Note_on_c, 0, 64, 41
1, 14127, Note_on_c, 9, 59, 77
1, 14128, Note_on_c, 0, 60, 39
1, 14129, Control_c, 0, 64, 0
1, 14133, Note_on_c, 0, 50, 38
1, 14134, Note_on_c, 0, 49, 27
1, 14135, Note_on_c, 1, 37, 42
1, 14136, Note_on_c, 9, 38, 0
1, 14148, Note_on_c, 9, 59, 0
1, 14152, Note_on_c, 1, 37, 0
1, 14156, Note_on_c, 0, 49, 0
1, 14165, Note_on_c, 1, 50, 109
1, 14170, Note_on_c, 9, 59, 54
1, 14171, Note_on_c, 1, 38, 0
1, 14171, Control_c, 0, 64, 127
1, 14209, Note_off_c, 9, 59, 0
1, 14244, Note_on_c, 9, 38, 42
1, 14250, Note_on_c, 9, 59, 73
1, 14253, Note_on_c, 9, 38, 0
1, 14269, Note_on_c, 9, 59, 0
1, 14281, Note_on_c, 1, 50, 0
1, 14283, Note_on_c, 1, 44, 82
1, 14297, Note_on_c, 9, 38, 18
1, 14301, Note_on_c, 9, 59, 37
1, 14303, Note_on_c, 0, 64, 0
1, 14307, Note_on_c, 9, 38, 0
1, 14314, Note_on_c, 0, 50, 0
1, 14317, Note_on_c, 9, 59, 0
1, 14328, Note_on_c, 0, 60, 0
1, 14359, Note_on_c, 0, 67, 0
1, 14361, Note_on_c, 9, 36, 48
1, 14364, Note_on_c, 9, 59, 74
1, 14365, Note_on_c, 9, 57, 74
1, 14365, Note_on_c, 9, 51, 69
1, 14373, Note_on_c, 0, 64, 53
1, 14382, Note_on_c, 9, 57, 0
1, 14382, Note_on_c, 9, 36, 0
1, 14383, Note_on_c, 9, 51, 0
1, 14383, Note_on_c, 9, 59, 0
1, 14391, Note_on_c, 1, 44, 0
1, 14396, Note_on_c, 0, 64, 0
1, 14397, Note_on_c, 1, 43, 65
1, 14400, Control_c, 0, 64, 0
1, 14406, Note_on_c, 9, 36, 25
1, 14410, Note_on_c, 0, 43, 46
1, 14413, Note_on_c, 0, 54, 38
1, 14419, Note_on_c, 0, 66, 61
1, 14438, Note_on_c, 0, 54, 0
1, 14438, Note_on_c, 9, 36, 0
1, 14442, Note_on_c, 0, 66, 0
1, 14442, Note_on_c, 0, 43, 0
1, 14476, Note_on_c, 1, 38, 66
1, 14477, Note_on_c, 1, 43, 0
1, 14494, Note_on_c, 0, 64, 77
1, 14497, Note_on_c, 1, 38, 0
1, 14515, Note_on_c, 1, 35, 70
1, 14525, Note_on_c, 0, 64, 0
1, 14545, Note_on_c, 0, 62, 42
1, 14607, Note_on_c, 9, 38, 24
1, 14616, Note_on_c, 9, 38, 0
1, 14629, Note_on_c, 1, 35, 0
1, 14637, Note_on_c, 1, 39, 78
1, 14639, Note_on_c, 0, 62, 0
1, 14646, Note_on_c, 0, 59, 51
1, 14647, Note_on_c, 9, 51, 88
1, 14721, Note_on_c, 9, 38, 36
1, 14730, Note_on_c, 9, 38, 0
1, 14751, Note_on_c, 0, 59, 0
1, 14759, Note_on_c, 1, 39, 0
1, 14759, Note_on_c, 1, 40, 77
1, 14801, Note_on_c, 9, 51, 0
1, 14849, Note_on_c, 9, 51, 63
1, 14860, Note_on_c, 9, 51, 0
1, 14878, Note_on_c, 9, 44, 34
1, 14883, Note_on_c, 0, 62, 35
1, 14884, Note_on_c, 9, 51, 80
1, 14892, Note_on_c, 0, 52, 29
1, 14893, Note_on_c, 0, 59, 22
1, 14893, Note_on_c, 0, 55, 32
1, 14925, Note_on_c, 1, 47, 71
1, 14941, Note_on_c, 1, 47, 0
1, 14953, Note_on_c, 9, 51, 0
1, 14954, Note_on_c, 9, 44, 0
1, 14962, Note_on_c, 0, 62, 0
1, 14962, Note_on_c, 1, 49, 89
1, 14976, Note_on_c, 0, 52, 0
1, 14993, Note_on_c, 1, 49, 0
1, 14995, Note_on_c, 9, 44, 48
1, 15001, Note_on_c, 9, 51, 92
1, 15002, Note_on_c, 1, 50, 79
1, 15004, Note_on_c, 0, 59, 0
1, 15005, Note_on_c, 0, 64, 67
1, 15009, Note_on_c, 0, 55, 0
1, 15018, Note_on_c, 1, 40, 0
1, 15021, Note_on_c, 9, 44, 0
1, 15033, Note_on_c, 0, 64, 0
1, 15044, Note_on_c, 0, 66, 53
1, 15070, Note_on_c, 0, 66, 0
1, 15070, Note_on_c, 9, 51, 0
1, 15072, Note_on_c, 1, 50, 0
1, 15075, Note_on_c, 9, 38, 30
1, 15076, Note_on_c, 1, 46, 83
1, 15083, Note_on_c, 0, 67, 57
1, 15087, Note_on_c, 9, 38, 0
1, 15117, Note_on_c, 1, 46, 0
1, 15118, Note_on_c, 0, 67, 0
1, 15121, Note_on_c, 9, 51, 87
1, 15126, Note_on_c, 0, 71, 53
1, 15129, Note_on_c, 0, 60, 22
1, 15129, Note_on_c, 0, 64, 24
1, 15133, Note_on_c, 0, 59, 17
1, 15134, Note_on_c, 0, 55, 29
1, 15140, Note_on_c, 1, 45, 58
1, 15166, Note_on_c, 0, 71, 0
1, 15174, Note_on_c, 0, 74, 82
1, 15190, Note_on_c, 9, 51, 0
1, 15196, Note_on_c, 1, 45, 0
1, 15213, Note_on_c, 0, 74, 0
1, 15223, Note_on_c, 1, 40, 72
1, 15230, Note_on_c, 0, 64, 0
1, 15237, Note_on_c, 0, 59, 0
1, 15237, Note_on_c, 0, 55, 0
1, 15240, Note_on_c, 0, 60, 0
1, 15241, Note_on_c, 9, 51, 84
1, 15280, Note_on_c, 9, 51, 0
1, 15299, Note_on_c, 1, 40, 0
1, 15307, Note_on_c, 1, 36, 73
1, 15327, Note_on_c, 0, 64, 66
1, 15330, Note_on_c, 9, 51, 71
1, 15335, Note_on_c, 0, 60, 46
1, 15336, Note_on_c, 0, 59, 40
1, 15339, Note_on_c, 0, 64, 0
1, 15340, Note_on_c, 9, 51, 0
1, 15347, Note_on_c, 0, 59, 0
1, 15350, Note_on_c, 0, 60, 0
1, 15355, Note_on_c, 9, 38, 24
1, 15361, Note_on_c, 9, 51, 75
1, 15367, Note_on_c, 9, 38, 0
1, 15374, Note_on_c, 0, 71, 57
1, 15389, Note_on_c, 9, 38, 24
1, 15401, Note_on_c, 0, 71, 0
1, 15404, Note_on_c, 0, 72, 68
1, 15407, Note_on_c, 9, 38, 0
1, 15433, Note_on_c, 9, 51, 0
1, 15435, Note_on_c, 0, 72, 0
1, 15458, Note_on_c, 0, 79, 58
1, 15477, Note_on_c, 1, 36, 0
1, 15478, Note_on_c, 0, 79, 0
1, 15479, Note_on_c, 9, 51, 87
1, 15484, Note_on_c, 1, 38, 73
1, 15506, Note_on_c, 0, 83, 68
1, 15542, Note_on_c, 0, 83, 0
1, 15551, Note_on_c, 9, 51, 0
1, 15552, Note_on_c, 1, 38, 0
1, 15567, Note_on_c, 1, 38, 69
1, 15572, Note_on_c, 0, 74, 80
1, 15572, Note_on_c, 0, 86, 81
1, 15600, Note_on_c, 0, 74, 0
1, 15602, Note_on_c, 9, 51, 83
1, 15604, Note_on_c, 0, 86, 0
1, 15607, Note_on_c, 1, 50, 92
1, 15617, Note_on_c, 9, 38, 22
1, 15630, Note_on_c, 0, 85, 74
1, 15634, Note_on_c, 9, 38, 0
1, 15652, Note_on_c, 9, 38, 33
1, 15660, Note_on_c, 0, 85, 0
1, 15662, Note_on_c, 9, 38, 0
1, 15670, Note_on_c, 9, 51, 0
1, 15689, Note_on_c, 9, 51, 56
1, 15692, Note_on_c, 9, 38, 54
1, 15693, Note_on_c, 0, 84, 70
1, 15695, Note_on_c, 9, 53, 62
1, 15696, Note_on_c, 0, 64, 49
1, 15705, Note_on_c, 0, 60, 27
1, 15710, Note_on_c, 0, 64, 0
1, 15715, Note_on_c, 0, 60, 0
1, 15721, Note_on_c, 9, 38, 0
1, 15722, Note_on_c, 0, 84, 0
1, 15736, Note_on_c, 9, 51, 0
1, 15736, Note_on_c, 9, 53, 0
1, 15736, Note_on_c, 9, 38, 45
1, 15748, Note_on_c, 9, 38, 0
1, 15755, Note_on_c, 0, 83, 58
1, 15768, Note_on_c, 1, 38, 0
1, 15774, Note_on_c, 9, 36, 30
1, 15779, Note_on_c, 0, 83, 0
1, 15797, Note_on_c, 9, 36, 0
1, 15813, Note_on_c, 9, 51, 58
1, 15817, Note_on_c, 9, 36, 50
1, 15819, Note_on_c, 0, 81, 71
1, 15833, Note_on_c, 9, 51, 0
1, 15838, Note_on_c, 1, 50, 0
1, 15842, Note_on_c, 1, 43, 64
1, 15848, Note_on_c, 0, 59, 27
1, 15849, Note_on_c, 0, 62, 40
1, 15850, Note_on_c, 0, 54, 34
1, 15856, Note_on_c, 9, 51, 74
1, 15863, Note_on_c, 0, 81, 0
1, 15867, Note_on_c, 0, 79, 42
1, 15869, Note_on_c, 9, 36, 0
1, 15919, Note_on_c, 0, 79, 0
1, 15943, Note_on_c, 9, 51, 0
1, 15973, Note_on_c, 9, 51, 83
1, 15977, Note_on_c, 0, 78, 61
1, 16010, Note_on_c, 0, 79, 57
1, 16020, Note_on_c, 0, 78, 0
1, 16041, Note_on_c, 0, 79, 0
1, 16049, Note_on_c, 9, 51, 0
1, 16051, Note_on_c, 0, 81, 60
1, 16063, Note_on_c, 1, 43, 0
1, 16076, Note_on_c, 1, 38, 89
1, 16078, Note_on_c, 9, 51, 44
1, 16079, Note_on_c, 0, 81, 0
1, 16087, Note_on_c, 9, 51, 0
1, 16094, Note_on_c, 0, 74, 50
1, 16100, Note_on_c, 9, 51, 71
1, 16118, Note_on_c, 0, 74, 0
1, 16132, Note_on_c, 0, 76, 53
1, 16136, Note_on_c, 0, 62, 0
1, 16155, Note_on_c, 0, 59, 0
1, 16155, Note_on_c, 0, 76, 0
1, 16162, Note_on_c, 9, 51, 0
1, 16164, Note_on_c, 0, 54, 0
1, 16166, Note_on_c, 0, 78, 58
1, 16192, Note_on_c, 0, 78, 0
1, 16206, Note_on_c, 9, 51, 86
1, 16210, Note_on_c, 0, 71, 46
1, 16215, Note_on_c, 9, 38, 25
1, 16227, Note_on_c, 9, 38, 0
1, 16240, Note_on_c, 0, 71, 0
1, 16250, Note_on_c, 0, 72, 50
1, 16251, Note_on_c, 9, 38, 19
1, 16270, Note_on_c, 9, 38, 0
1, 16279, Note_on_c, 9, 51, 0
1, 16283, Note_on_c, 0, 73, 47
1, 16289, Note_on_c, 0, 72, 0
1, 16289, Note_on_c, 9, 38, 40
1, 16304, Note_on_c, 0, 59, 31
1, 16316, Note_on_c, 0, 74, 72
1, 16319, Note_on_c, 1, 31, 68
1, 16320, Note_on_c, 9, 51, 81
1, 16321, Note_on_c, 0, 73, 0
1, 16322, Note_on_c, 9, 38, 0
1, 16325, Note_on_c, 1, 38, 0
1, 16343, Note_on_c, 0, 74, 0
1, 16366, Note_on_c, 9, 51, 0
1, 16369, Note_on_c, 0, 59, 0
1, 16385, Note_on_c, 9, 38, 24
1, 16394, Note_on_c, 1, 38, 57
1, 16402, Note_on_c, 9, 38, 0
1, 16403, Note_on_c, 1, 38, 0
1, 16405, Note_on_c, 1, 31, 0
1, 16407, Note_on_c, 0, 67, 64
1, 16411, Note_on_c, 9, 51, 59
1, 16413, Note_on_c, 0, 59, 32
1, 16425, Note_on_c, 9, 51, 0
1, 16432, Note_on_c, 0, 68, 48
1, 16437, Note_on_c, 1, 43, 72
1, 16439, Note_on_c, 9, 51, 82
1, 16440, Note_on_c, 0, 59, 0
1, 16446, Note_on_c, 0, 67, 0
1, 16455, Note_on_c, 0, 69, 58
1, 16470, Note_on_c, 0, 68, 0
1, 16482, Note_on_c, 0, 70, 69
1, 16487, Note_on_c, 0, 69, 0
1, 16497, Note_on_c, 9, 38, 33
1, 16507, Note_on_c, 9, 38, 0
1, 16510, Note_on_c, 0, 70, 0
1, 16511, Note_on_c, 9, 51, 0
1, 16514, Note_on_c, 1, 43, 0
1, 16516, Note_on_c, 0, 59, 35
1, 16525, Note_on_c, 1, 35, 33
1, 16530, Note_on_c, 9, 38, 27
1, 16531, Note_on_c, 0, 59, 0
1, 16550, Note_on_c, 9, 38, 0
1, 16550, Note_on_c, 0, 62, 57
1, 16551, Note_on_c, 1, 35, 0
1, 16554, Note_on_c, 9, 51, 90
1, 16559, Note_on_c, 1, 36, 70
1, 16570, Note_on_c, 9, 38, 27
1, 16575, Note_on_c, 0, 63, 37
1, 16578, Note_on_c, 0, 62, 0
1, 16581, Note_on_c, 9, 38, 0
1, 16600, Note_on_c, 0, 64, 68
1, 16604, Note_on_c, 0, 63, 0
1, 16623, Note_on_c, 0, 64, 0
1, 16629, Note_on_c, 9, 51, 0
1, 16635, Note_on_c, 0, 65, 62
1, 16656, Note_on_c, 0, 55, 24
1, 16664, Note_on_c, 0, 65, 0
1, 16666, Note_on_c, 0, 64, 64
1, 16670, Note_on_c, 9, 51, 75
1, 16674, Note_on_c, 0, 55, 0
1, 16707, Note_on_c, 9, 51, 0
1, 16720, Note_on_c, 0, 64, 0
1, 16755, Note_on_c, 9, 51, 44
1, 16772, Note_on_c, 9, 51, 0
1, 16772, Note_on_c, 0, 55, 29
1, 16790, Note_on_c, 9, 51, 80
1, 16802, Note_on_c, 1, 48, 119
1, 16816, Note_on_c, 1, 36, 0
1, 16818, Note_on_c, 0, 55, 0
1, 16864, Note_on_c, 9, 51, 0
1, 16918, Note_on_c, 9, 51, 99
1, 16937, Control_c, 0, 64, 127
1, 16994, Note_off_c, 9, 51, 0
1, 16994, Note_on_c, 9, 38, 31
1, 16995, Note_on_c, 0, 51, 64
1, 17000, Note_on_c, 1, 41, 98
1, 17002, Note_on_c, 9, 38, 0
1, 17003, Control_c, 0, 64, 0
1, 17031, Note_off_c, 0, 51, 0
1, 17041, Note_on_c, 0, 63, 45
1, 17041, Note_on_c, 0, 71, 55
1, 17045, Note_on_c, 0, 67, 40
1, 17046, Note_on_c, 9, 51, 62
1, 17052, Note_on_c, 0, 57, 37
1, 17063, Note_on_c, 0, 57, 0
1, 17064, Note_on_c, 9, 51, 0
1, 17071, Note_on_c, 9, 38, 38
1, 17079, Note_on_c, 9, 38, 0
1, 17106, Note_on_c, 0, 63, 0
1, 17107, Note_on_c, 0, 71, 0
1, 17115, Note_on_c, 1, 48, 0
1, 17117, Note_on_c, 9, 36, 26
1, 17118, Note_on_c, 0, 63, 23
1, 17118, Note_on_c, 0, 74, 87
1, 17122, Note_on_c, 1, 39, 54
1, 17124, Note_on_c, 9, 51, 67
1, 17134, Note_on_c, 9, 36, 0
1, 17137, Note_on_c, 0, 63, 0
1, 17144, Note_on_c, 0, 67, 0
1, 17147, Note_on_c, 9, 51, 0
1, 17154, Note_on_c, 1, 39, 0
1, 17155, Note_on_c, 9, 38, 29
1, 17158, Note_on_c, 0, 74, 0
1, 17163, Note_on_c, 9, 51, 83
1, 17164, Note_on_c, 1, 53, 95
1, 17167, Note_on_c, 0, 72, 46
1, 17173, Note_on_c, 9, 38, 0
1, 17176, Note_on_c, 1, 41, 0
1, 17177, Control_c, 0, 64, 127
1, 17195, Note_on_c, 9, 38, 27
1, 17198, Note_on_c, 9, 51, 0
1, 17218, Note_on_c, 9, 38, 0
1, 17229, Note_on_c, 0, 72, 0
1, 17239, Note_on_c, 9, 36, 33
1, 17243, Note_on_c, 9, 51, 106
1, 17246, Note_on_c, 1, 41, 62
1, 17249, Note_on_c, 9, 36, 0
1, 17256, Note_on_c, 1, 41, 0
1, 17260, Note_on_c, 1, 53, 0
1, 17268, Control_c, 0, 64, 0
1, 17279, Note_off_c, 9, 51, 0
1, 17284, Note_on_c, 0, 63, 44
1, 17284, Note_on_c, 1, 52, 76
1, 17288, Note_on_c, 0, 71, 48
1, 17291, Note_on_c, 0, 56, 32
1, 17291, Note_on_c, 0, 59, 41
1, 17292, Note_on_c, 9, 51, 83
1, 17325, Note_on_c, 0, 63, 0
1, 17329, Control_c, 0, 64, 127
1, 17343, Note_off_c, 0, 71, 0
1, 17359, Note_off_c, 9, 51, 0
1, 17365, Control_c, 0, 64, 0
1, 17380, Note_on_c, 0, 64, 59
1, 17394, Note_on_c, 1, 52, 0
1, 17404, Note_on_c, 0, 64, 0
1, 17404, Note_on_c, 1, 47, 76
1, 17410, Note_on_c, 9, 51, 83
1, 17423, Note_on_c, 0, 66, 45
1, 17428, Note_on_c, 0, 59, 0
1, 17445, Note_on_c, 9, 51, 0
1, 17449, Note_on_c, 0, 66, 0
1, 17463, Note_on_c, 0, 68, 53
1, 17483, Note_on_c, 0, 68, 0
1, 17492, Note_on_c, 9, 51, 75
1, 17502, Note_on_c, 0, 71, 68
1, 17506, Note_on_c, 9, 51, 0
1, 17511, Note_on_c, 0, 63, 42
1, 17521, Note_on_c, 0, 59, 30
1, 17526, Note_on_c, 9, 51, 86
1, 17529, Note_on_c, 0, 71, 0
1, 17531, Note_on_c, 0, 63, 0
1, 17535, Note_on_c, 0, 59, 0
1, 17541, Note_on_c, 0, 56, 0
1, 17547, Note_on_c, 0, 73, 34
1, 17556, Note_on_c, 0, 73, 0
1, 17584, Note_on_c, 0, 76, 46
1, 17597, Note_on_c, 1, 40, 81
1, 17600, Note_on_c, 9, 51, 0
1, 17614, Note_on_c, 0, 76, 0
1, 17620, Note_on_c, 0, 78, 58
1, 17622, Note_on_c, 1, 47, 0
1, 17640, Note_on_c, 1, 40, 0
1, 17640, Note_on_c, 1, 37, 91
1, 17641, Note_on_c, 9, 51, 73
1, 17642, Note_on_c, 0, 78, 0
1, 17665, Note_on_c, 0, 59, 41
1, 17665, Note_on_c, 0, 49, 37
1, 17666, Note_on_c, 0, 80, 64
1, 17682, Note_on_c, 9, 51, 0
1, 17725, Note_on_c, 9, 51, 69
1, 17741, Note_on_c, 0, 80, 0
1, 17743, Note_on_c, 9, 51, 0
1, 17763, Note_on_c, 9, 51, 77
1, 17775, Note_on_c, 0, 49, 0
1, 17778, Note_on_c, 0, 78, 72
1, 17786, Note_on_c, 0, 59, 0
1, 17819, Note_on_c, 0, 78, 0
1, 17828, Note_on_c, 9, 51, 0
1, 17847, Note_on_c, 9, 38, 50
1, 17848, Note_on_c, 0, 80, 55
1, 17857, Note_on_c, 0, 78, 51
1, 17872, Note_on_c, 0, 49, 28
1, 17874, Note_on_c, 9, 38, 0
1, 17874, Note_on_c, 0, 59, 31
1, 17889, Note_on_c, 0, 80, 0
1, 17892, Note_on_c, 0, 49, 0
1, 17893, Note_on_c, 0, 76, 39
1, 17895, Note_on_c, 9, 51, 39
1, 17899, Note_on_c, 0, 59, 0
1, 17899, Note_on_c, 0, 78, 0
1, 17900, Note_on_c, 9, 38, 25
1, 17905, Note_on_c, 9, 51, 0
1, 17926, Note_on_c, 9, 38, 0
1, 17944, Control_c, 0, 64, 127
1, 17956, Note_off_c, 0, 76, 0
1, 17960, Note_off_c, 1, 37, 0
1, 17962, Note_on_c, 9, 51, 79
1, 17964, Note_on_c, 1, 47, 91
1, 17965, Control_c, 0, 64, 0
1, 17968, Note_on_c, 0, 78, 62
1, 17984, Note_on_c, 9, 51, 0
1, 17997, Note_on_c, 0, 78, 0
1, 18003, Note_on_c, 9, 51, 83
1, 18005, Note_on_c, 1, 47, 0
1, 18009, Note_on_c, 1, 42, 80
1, 18021, Note_on_c, 0, 81, 66
1, 18025, Control_c, 0, 64, 127
1, 18066, Note_off_c, 0, 81, 0
1, 18077, Note_off_c, 9, 51, 0
1, 18091, Note_on_c, 0, 64, 57
1, 18092, Note_on_c, 0, 84, 81
1, 18094, Note_on_c, 0, 54, 34
1, 18095, Note_on_c, 0, 60, 50
1, 18098, Note_on_c, 0, 57, 43
1, 18111, Control_c, 0, 64, 0
1, 18116, Note_on_c, 1, 48, 99
1, 18117, Note_on_c, 1, 50, 84
1, 18117, Note_on_c, 9, 51, 70
1, 18137, Note_on_c, 9, 51, 0
1, 18144, Note_on_c, 1, 50, 0
1, 18152, Control_c, 0, 64, 127
1, 18204, Note_on_c, 9, 51, 102
1, 18209, Note_on_c, 0, 84, 0
1, 18223, Note_on_c, 0, 64, 0
1, 18230, Note_on_c, 0, 81, 31
1, 18233, Note_on_c, 1, 48, 0
1, 18234, Note_on_c, 1, 45, 73
1, 18236, Note_on_c, 1, 42, 0
1, 18244, Note_on_c, 0, 81, 0
1, 18244, Control_c, 0, 64, 0
1, 18252, Note_off_c, 0, 60, 0
1, 18266, Note_off_c, 9, 51, 0
1, 18266, Note_on_c, 0, 64, 68
1, 18267, Note_on_c, 0, 84, 83
1, 18268, Note_on_c, 0, 72, 82
1, 18271, Note_on_c, 0, 60, 22
1, 18286, Control_c, 0, 64, 127
1, 18321, Note_off_c, 0, 60, 0
1, 18326, Note_on_c, 9, 51, 59
1, 18331, Note_on_c, 0, 64, 0
1, 18331, Note_on_c, 1, 41, 46
1, 18336, Note_on_c, 0, 57, 0
1, 18338, Control_c, 0, 64, 0
1, 18339, Note_off_c, 1, 41, 0
1, 18344, Note_off_c, 9, 51, 0
1, 18348, Note_off_c, 0, 72, 0
1, 18352, Note_off_c, 1, 45, 0
1, 18353, Control_c, 0, 64, 127
1, 18354, Note_off_c, 0, 84, 0
1, 18357, Note_off_c, 0, 54, 0
1, 18364, Note_on_c, 1, 47, 78
1, 18376, Note_on_c, 0, 81, 52
1, 18379, Note_on_c, 9, 51, 99
1, 18405, Note_on_c, 0, 81, 0
1, 18443, Note_on_c, 1, 42, 56
1, 18446, Note_on_c, 9, 51, 0
1, 18450, Note_on_c, 9, 38, 20
1, 18452, Note_on_c, 0, 74, 80
1, 18452, Note_on_c, 0, 86, 80
1, 18455, Note_on_c, 0, 51, 57
1, 18455, Note_on_c, 0, 79, 62
1, 18455, Note_on_c, 0, 62, 62
1, 18458, Control_c, 0, 64, 0
1, 18458, Note_on_c, 0, 57, 55
1, 18460, Note_on_c, 9, 38, 0
1, 18461, Note_on_c, 1, 42, 0
1, 18476, Note_on_c, 1, 47, 0
1, 18482, Note_on_c, 1, 35, 84
1, 18490, Note_on_c, 9, 37, 51
1, 18492, Note_on_c, 9, 51, 60
1, 18502, Control_c, 0, 64, 127
1, 18513, Note_off_c, 9, 51, 0
1, 18530, Control_c, 0, 64, 0
1, 18541, Note_off_c, 0, 79, 0
1, 18541, Control_c, 0, 64, 127
1, 18544, Note_off_c, 0, 74, 0
1, 18554, Note_off_c, 0, 86, 0
1, 18564, Note_off_c, 9, 37, 0
1, 18564, Note_off_c, 0, 57, 0
1, 18567, Note_on_c, 9, 51, 90
1, 18572, Note_on_c, 0, 51, 0
1, 18572, Note_on_c, 0, 62, 0
1, 18572, Note_on_c, 9, 53, 76
1, 18577, Note_on_c, 0, 83, 40
1, 18593, Note_on_c, 1, 35, 0
1, 18596, Note_on_c, 1, 39, 86
1, 18603, Note_on_c, 0, 83, 0
1, 18611, Control_c, 0, 64, 0
1, 18613, Note_on_c, 9, 37, 39
1, 18627, Note_on_c, 0, 86, 78
1, 18627, Note_on_c, 0, 62, 60
1, 18628, Note_on_c, 0, 57, 68
1, 18628, Note_on_c, 0, 51, 61
1, 18629, Note_on_c, 0, 74, 76
1, 18629, Note_on_c, 0, 79, 65
1, 18632, Note_on_c, 9, 51, 0
1, 18633, Note_on_c, 9, 37, 0
1, 18642, Note_on_c, 9, 53, 0
1, 18682, Note_on_c, 9, 51, 60
1, 18685, Note_on_c, 0, 57, 0
1, 18687, Control_c, 0, 64, 127
1, 18694, Note_off_c, 0, 51, 0
1, 18696, Note_off_c, 0, 79, 0
1, 18701, Note_on_c, 9, 38, 48
1, 18703, Note_on_c, 9, 51, 0
1, 18704, Note_on_c, 0, 74, 0
1, 18705, Note_on_c, 0, 62, 0
1, 18708, Note_on_c, 0, 86, 0
1, 18710, Note_on_c, 9, 38, 0
1, 18711, Note_on_c, 1, 39, 0
1, 18716, Note_on_c, 1, 40, 85
1, 18731, Note_on_c, 0, 83, 35
1, 18741, Note_on_c, 9, 51, 84
1, 18746, Note_on_c, 9, 53, 78
1, 18749, Note_on_c, 0, 83, 0
1, 18773, Note_on_c, 9, 38, 43
1, 18787, Note_on_c, 9, 38, 0
1, 18796, Control_c, 0, 64, 0
1, 18803, Note_off_c, 9, 51, 0
1, 18807, Note_on_c, 0, 62, 66
1, 18809, Note_on_c, 0, 59, 55
1, 18813, Note_on_c, 0, 52, 29
1, 18814, Note_on_c, 0, 55, 40
1, 18822, Note_on_c, 9, 53, 0
1, 18824, Note_on_c, 0, 52, 0
1, 18824, Note_on_c, 0, 55, 0
1, 18827, Note_on_c, 0, 62, 0
1, 18832, Note_on_c, 0, 59, 0
1, 18850, Note_on_c, 9, 51, 71
1, 18863, Note_on_c, 9, 38, 52
1, 18864, Control_c, 0, 64, 127
1, 18870, Note_off_c, 9, 51, 0
1, 18913, Note_off_c, 9, 38, 0
1, 18923, Note_on_c, 0, 88, 82
1, 18923, Note_on_c, 9, 51, 84
1, 18925, Note_on_c, 9, 53, 81
1, 18934, Note_on_c, 9, 38, 45
1, 18951, Note_on_c, 0, 88, 0
1, 18956, Control_c, 0, 64, 0
1, 18959, Note_off_c, 9, 38, 0
1, 18969, Note_on_c, 0, 62, 73
1, 18970, Note_on_c, 0, 67, 81
1, 18970, Note_on_c, 0, 91, 90
1, 18971, Note_on_c, 0, 56, 72
1, 18971, Note_on_c, 0, 79, 80
1, 18973, Note_on_c, 0, 84, 71
1, 18975, Note_on_c, 0, 88, 36
1, 18984, Note_on_c, 9, 51, 0
1, 18987, Note_on_c, 0, 88, 0
1, 18990, Control_c, 0, 64, 127
1, 18998, Note_off_c, 9, 53, 0
1, 19008, Note_off_c, 0, 84, 0
1, 19013, Note_off_c, 0, 79, 0
1, 19016, Note_off_c, 0, 67, 0
1, 19016, Note_off_c, 0, 91, 0
1, 19023, Note_off_c, 0, 56, 0
1, 19029, Note_off_c, 0, 62, 0
1, 19042, Note_on_c, 0, 67, 53
1, 19042, Note_on_c, 0, 56, 51
1, 19042, Note_on_c, 9, 51, 46
1, 19045, Note_on_c, 0, 62, 43
1, 19047, Note_on_c, 0, 79, 60
1, 19048, Note_on_c, 0, 91, 71
1, 19053, Note_on_c, 0, 88, 54
1, 19058, Note_on_c, 0, 89, 49
1, 19062, Note_on_c, 9, 51, 0
1, 19062, Note_on_c, 0, 67, 0
1, 19066, Note_on_c, 0, 79, 0
1, 19067, Note_on_c, 0, 89, 0
1, 19070, Note_on_c, 0, 91, 0
1, 19071, Note_on_c, 0, 62, 0
1, 19073, Note_on_c, 1, 40, 0
1, 19077, Note_on_c, 0, 88, 0
1, 19079, Note_on_c, 1, 33, 85
1, 19080, Note_on_c, 0, 56, 0
1, 19091, Note_on_c, 9, 51, 74
1, 19094, Control_c, 0, 64, 0
1, 19094, Note_on_c, 9, 53, 75
1, 19095, Note_on_c, 0, 85, 80
1, 19097, Note_on_c, 0, 81, 76
1, 19097, Note_on_c, 0, 88, 60
1, 19097, Note_on_c, 0, 93, 80
1, 19098, Note_on_c, 0, 66, 77
1, 19098, Note_on_c, 0, 55, 85
1, 19098, Note_on_c, 0, 61, 67
1, 19103, Note_on_c, 0, 91, 43
1, 19141, Control_c, 0, 64, 127
1, 19154, Note_off_c, 9, 53, 0
1, 19157, Note_off_c, 9, 51, 0
1, 19209, Note_on_c, 9, 51, 49
1, 19222, Note_on_c, 9, 38, 30
1, 19229, Note_on_c, 0, 55, 0
1, 19232, Note_on_c, 9, 38, 0
1, 19235, Note_on_c, 9, 51, 0
1, 19238, Note_on_c, 0, 66, 0
1, 19242, Note_on_c, 0, 93, 0
1, 19243, Note_on_c, 0, 81, 0
1, 19247, Note_on_c, 0, 91, 0
1, 19256, Note_on_c, 0, 85, 0
1, 19256, Note_on_c, 0, 61, 0
1, 19261, Note_on_c, 9, 38, 40
1, 19265, Note_on_c, 0, 88, 0
1, 19282, Note_on_c, 9, 38, 0
1, 19283, Note_on_c, 9, 51, 94
1, 19292, Note_on_c, 0, 85, 56
1, 19292, Note_on_c, 0, 91, 58
1, 19293, Note_on_c, 0, 65, 66
1, 19293, Note_on_c, 0, 61, 48
1, 19295, Note_on_c, 0, 55, 58
1, 19296, Note_on_c, 0, 79, 46
1, 19298, Note_on_c, 0, 88, 41
1, 19304, Note_on_c, 9, 38, 43
1, 19305, Control_c, 0, 64, 0
1, 19323, Note_off_c, 9, 38, 0
1, 19341, Control_c, 0, 64, 127
1, 19344, Note_off_c, 9, 51, 0
1, 19345, Note_on_c, 9, 36, 45
1, 19349, Note_on_c, 0, 88, 0
1, 19351, Note_on_c, 0, 91, 0
1, 19364, Note_on_c, 9, 36, 0
1, 19365, Note_on_c, 0, 85, 0
1, 19368, Note_on_c, 0, 79, 0
1, 19387, Note_on_c, 0, 65, 0
1, 19394, Note_on_c, 0, 55, 0
1, 19406, Note_on_c, 9, 51, 46
1, 19410, Note_on_c, 0, 61, 0
1, 19421, Note_on_c, 9, 36, 45
1, 19426, Note_on_c, 9, 51, 0
1, 19443, Note_on_c, 9, 36, 0
1, 19448, Note_on_c, 0, 64, 47
1, 19448, Note_on_c, 0, 55, 34
1, 19448, Control_c, 0, 64, 0
1, 19450, Note_on_c, 0, 57, 44
1, 19453, Note_on_c, 0, 76, 38
1, 19453, Note_on_c, 0, 60, 47
1, 19456, Note_on_c, 0, 88, 32
1, 19457, Note_on_c, 0, 81, 36
1, 19459, Note_on_c, 0, 84, 26
1, 19459, Note_on_c, 9, 51, 85
1, 19463, Note_on_c, 9, 53, 76
1, 19524, Note_on_c, 9, 51, 0
1, 19532, Note_on_c, 9, 53, 0
1, 19539, Note_on_c, 0, 76, 0
1, 19554, Note_on_c, 0, 81, 0
1, 19555, Control_c, 0, 64, 127
1, 19557, Note_off_c, 0, 84, 0
1, 19560, Note_off_c, 1, 33, 0
1, 19563, Note_on_c, 1, 45, 114
1, 19564, Note_on_c, 0, 88, 0
1, 19567, Note_on_c, 9, 51, 51
1, 19590, Note_on_c, 0, 64, 0
1, 19591, Note_on_c, 0, 55, 0
1, 19592, Note_on_c, 0, 60, 0
1, 19596, Note_on_c, 9, 51, 0
1, 19597, Note_on_c, 0, 57, 0
1, 19637, Note_on_c, 9, 51, 78
1, 19638, Note_on_c, 0, 64, 41
1, 19644, Note_on_c, 9, 38, 36
1, 19647, Note_on_c, 0, 57, 32
1, 19648, Note_on_c, 1, 40, 68
1, 19650, Note_on_c, 0, 64, 0
1, 19654, Note_on_c, 9, 38, 0
1, 19654, Note_on_c, 1, 45, 0
1, 19657, Control_c, 0, 64, 0
1, 19669, Note_off_c, 9, 51, 0
1, 19678, Note_off_c, 1, 40, 0
1, 19679, Note_on_c, 0, 95, 63
1, 19681, Note_on_c, 0, 57, 0
1, 19687, Note_on_c, 1, 39, 81
1, 19689, Note_on_c, 9, 38, 36
1, 19706, Note_on_c, 0, 95, 0
1, 19709, Note_on_c, 9, 38, 0
1, 19754, Note_on_c, 0, 98, 94
1, 19754, Note_on_c, 0, 54, 49
1, 19756, Note_on_c, 0, 65, 52
1, 19757, Note_on_c, 0, 58, 38
1, 19758, Note_on_c, 0, 60, 44
1, 19761, Note_on_c, 9, 51, 63
1, 19779, Note_on_c, 9, 51, 0
1, 19788, Note_on_c, 1, 37, 34
1, 19799, Note_on_c, 0, 98, 0
1, 19803, Note_on_c, 9, 51, 64
1, 19807, Note_on_c, 1, 37, 0
1, 19808, Note_on_c, 1, 38, 78
1, 19810, Note_on_c, 1, 39, 0
1, 19831, Note_on_c, 0, 97, 60
1, 19865, Note_on_c, 0, 97, 0
1, 19865, Note_on_c, 9, 51, 0
1, 19894, Note_on_c, 0, 96, 67
1, 19918, Note_on_c, 9, 51, 94
1, 19927, Note_on_c, 0, 65, 0
1, 19929, Note_on_c, 0, 96, 0
1, 19932, Note_on_c, 0, 58, 0
1, 19939, Note_on_c, 0, 60, 0
1, 19957, Note_on_c, 0, 95, 50
1, 19962, Note_on_c, 0, 54, 0
1, 19962, Note_on_c, 9, 51, 0
1, 19985, Note_on_c, 0, 95, 0
1, 20001, Note_on_c, 9, 38, 48
1, 20008, Note_on_c, 9, 51, 58
1, 20012, Note_on_c, 0, 94, 73
1, 20024, Note_on_c, 0, 65, 34
1, 20025, Note_on_c, 9, 38, 0
1, 20027, Note_on_c, 0, 58, 33
1, 20028, Note_on_c, 9, 51, 0
1, 20028, Note_on_c, 0, 54, 23
1, 20028, Note_on_c, 0, 60, 35
1, 20036, Note_on_c, 0, 65, 0
1, 20039, Note_on_c, 1, 38, 0
1, 20040, Note_on_c, 1, 40, 62
1, 20045, Note_on_c, 9, 51, 71
1, 20047, Note_on_c, 9, 38, 36
1, 20052, Note_on_c, 0, 60, 0
1, 20055, Note_on_c, 0, 94, 0
1, 20068, Note_on_c, 9, 38, 0
1, 20070, Note_on_c, 1, 40, 0
1, 20073, Note_on_c, 0, 93, 51
1, 20080, Note_on_c, 1, 41, 68
1, 20082, Note_on_c, 9, 51, 0
1, 20101, Note_on_c, 0, 93, 0
1, 20101, Note_on_c, 1, 41, 0
1, 20117, Note_on_c, 0, 54, 0
1, 20119, Note_on_c, 1, 42, 81
1, 20120, Note_on_c, 0, 58, 0
1, 20121, Control_c, 0, 64, 127
1, 20122, Note_on_c, 9, 36, 36
1, 20130, Note_on_c, 9, 51, 84
1, 20135, Note_on_c, 0, 91, 62
1, 20145, Note_on_c, 9, 36, 0
1, 20149, Note_on_c, 9, 51, 0
1, 20154, Note_on_c, 1, 42, 0
1, 20161, Note_on_c, 1, 43, 75
1, 20164, Note_on_c, 0, 91, 0
1, 20164, Note_on_c, 9, 51, 76
1, 20167, Note_on_c, 9, 36, 38
1, 20173, Control_c, 0, 64, 0
1, 20184, Note_on_c, 0, 62, 37
1, 20187, Note_on_c, 0, 59, 35
1, 20192, Note_on_c, 0, 90, 51
1, 20196, Note_on_c, 0, 54, 25
1, 20200, Note_on_c, 9, 36, 0
1, 20226, Note_on_c, 0, 91, 67
1, 20233, Note_on_c, 0, 90, 0
1, 20235, Note_on_c, 9, 51, 0
1, 20241, Note_on_c, 1, 43, 0
1, 20242, Note_on_c, 1, 38, 66
1, 20256, Note_on_c, 0, 91, 0
1, 20264, Note_on_c, 0, 93, 68
1, 20273, Note_on_c, 1, 38, 0
1, 20287, Note_on_c, 9, 51, 88
1, 20289, Note_on_c, 0, 93, 0
1, 20307, Note_on_c, 0, 86, 45
1, 20326, Note_on_c, 0, 62, 0
1, 20332, Note_on_c, 9, 51, 0
1, 20333, Note_on_c, 0, 86, 0
1, 20335, Note_on_c, 0, 59, 0
1, 20341, Note_on_c, 0, 88, 46
1, 20342, Note_on_c, 0, 54, 0
1, 20360, Note_on_c, 1, 43, 49
1, 20370, Note_on_c, 0, 88, 0
1, 20372, Note_on_c, 1, 43, 0
1, 20374, Note_on_c, 9, 51, 57
1, 20376, Note_on_c, 0, 90, 52
1, 20384, Control_c, 0, 64, 127
1, 20385, Note_off_c, 9, 51, 0
1, 20401, Note_off_c, 0, 90, 0
1, 20404, Note_on_c, 1, 47, 92
1, 20408, Note_on_c, 9, 51, 70
1, 20410, Control_c, 0, 64, 0
1, 20416, Note_on_c, 0, 62, 32
1, 20417, Note_on_c, 0, 83, 37
1, 20419, Note_on_c, 0, 54, 29
1, 20422, Note_on_c, 0, 59, 25
1, 20440, Note_on_c, 0, 62, 0
1, 20441, Note_on_c, 0, 59, 0
1, 20450, Note_on_c, 0, 83, 0
1, 20453, Note_on_c, 0, 85, 39
1, 20456, Note_on_c, 0, 54, 0
1, 20463, Note_on_c, 0, 85, 0
1, 20465, Note_on_c, 9, 51, 0
1, 20480, Note_on_c, 1, 47, 0
1, 20483, Note_on_c, 1, 43, 65
1, 20483, Note_on_c, 9, 38, 57
1, 20496, Control_c, 0, 64, 127
1, 20497, Note_on_c, 0, 86, 33
1, 20507, Note_on_c, 0, 86, 0
1, 20509, Note_on_c, 9, 38, 0
1, 20509, Note_on_c, 1, 43, 0
1, 20520, Control_c, 0, 64, 0
1, 20527, Note_on_c, 9, 51, 92
1, 20538, Note_on_c, 0, 62, 40
1, 20541, Note_on_c, 0, 59, 32
1, 20542, Note_on_c, 0, 55, 42
1, 20548, Note_on_c, 0, 52, 35
1, 20577, Note_on_c, 1, 40, 75
1, 20583, Note_on_c, 9, 51, 0
1, 20641, Note_on_c, 0, 62, 0
1, 20647, Note_on_c, 1, 40, 0
1, 20650, Note_on_c, 9, 51, 83
1, 20651, Note_on_c, 1, 52, 109
1, 20674, Control_c, 0, 64, 127
1, 20680, Note_off_c, 0, 59, 0
1, 20685, Note_off_c, 0, 55, 0
1, 20686, Note_off_c, 9, 51, 0
1, 20729, Note_off_c, 1, 52, 0
1, 20731, Note_on_c, 9, 51, 69
1, 20731, Note_on_c, 9, 38, 15
1, 20734, Note_on_c, 0, 62, 36
1, 20734, Note_on_c, 1, 47, 70
1, 20738, Note_on_c, 9, 38, 0
1, 20741, Note_on_c, 0, 59, 34
1, 20746, Note_on_c, 0, 62, 0
1, 20751, Note_on_c, 9, 51, 0
1, 20757, Note_on_c, 1, 47, 0
1, 20762, Control_c, 0, 64, 0
1, 20767, Note_on_c, 9, 38, 33
1, 20770, Note_on_c, 9, 51, 67
1, 20776, Note_on_c, 0, 59, 0
1, 20780, Note_on_c, 0, 83, 54
1, 20784, Note_on_c, 9, 38, 0
1, 20789, Note_on_c, 0, 52, 0
1, 20803, Note_on_c, 0, 83, 0
1, 20805, Note_on_c, 0, 81, 57
1, 20805, Note_on_c, 1, 43, 64
1, 20808, Note_on_c, 9, 38, 34
1, 20817, Note_on_c, 9, 51, 0
1, 20826, Note_on_c, 9, 38, 0
1, 20831, Note_on_c, 1, 43, 0
1, 20831, Note_on_c, 0, 81, 0
1, 20839, Note_on_c, 0, 79, 49
1, 20843, Note_on_c, 1, 44, 67
1, 20846, Note_on_c, 9, 38, 40
1, 20854, Note_on_c, 0, 79, 0
1, 20865, Note_on_c, 9, 38, 0
1, 20873, Note_on_c, 1, 44, 0
1, 20884, Note_on_c, 1, 45, 55
1, 20888, Note_on_c, 9, 38, 27
1, 20889, Note_on_c, 9, 51, 92
1, 20904, Note_on_c, 9, 38, 0
1, 20929, Note_on_c, 0, 86, 55
1, 20957, Note_on_c, 0, 84, 53
1, 20961, Note_on_c, 0, 86, 0
1, 20961, Note_on_c, 9, 38, 37
1, 20964, Note_on_c, 9, 51, 0
1, 20967, Note_on_c, 1, 45, 0
1, 20968, Note_on_c, 9, 38, 0
1, 20989, Note_on_c, 0, 84, 0
1, 20990, Note_on_c, 0, 83, 36
1, 20998, Note_on_c, 1, 48, 75
1, 21005, Note_on_c, 9, 51, 39
1, 21015, Note_on_c, 9, 51, 0
1, 21028, Note_on_c, 0, 83, 0
1, 21074, Note_on_c, 0, 64, 66
1, 21080, Note_on_c, 9, 51, 95
1, 21083, Note_on_c, 0, 60, 42
1, 21084, Note_on_c, 0, 59, 30
1, 21085, Note_on_c, 0, 64, 0
1, 21092, Note_on_c, 0, 60, 0
1, 21095, Note_on_c, 0, 59, 0
1, 21133, Note_on_c, 9, 51, 0
1, 21163, Note_on_c, 0, 95, 74
1, 21191, Note_on_c, 9, 36, 35
1, 21198, Note_on_c, 0, 95, 0
1, 21198, Note_on_c, 0, 91, 50
1, 21201, Note_on_c, 9, 51, 39
1, 21202, Note_on_c, 9, 36, 0
1, 21225, Note_on_c, 9, 51, 0
1, 21230, Note_on_c, 9, 36, 30
1, 21233, Note_on_c, 0, 91, 0
1, 21235, Note_on_c, 0, 88, 44
1, 21243, Note_on_c, 1, 48, 0
1, 21243, Note_on_c, 1, 38, 64
1, 21245, Note_on_c, 9, 36, 0
1, 21249, Note_on_c, 9, 51, 74
1, 21251, Note_on_c, 9, 53, 73
1, 21254, Note_on_c, 0, 88, 0
1, 21303, Note_on_c, 9, 51, 0
1, 21307, Note_on_c, 9, 53, 0
1, 21323, Note_on_c, 0, 65, 58
1, 21324, Note_on_c, 0, 58, 51
1, 21329, Note_on_c, 0, 60, 36
1, 21330, Note_on_c, 0, 54, 23
1, 21332, Note_on_c, 0, 65, 0
1, 21339, Note_on_c, 0, 60, 0
1, 21345, Note_on_c, 0, 54, 0
1, 21352, Note_on_c, 0, 58, 0
1, 21359, Note_on_c, 9, 51, 20
1, 21370, Note_on_c, 1, 54, 72
1, 21373, Note_on_c, 0, 98, 76
1, 21375, Note_on_c, 9, 51, 0
1, 21403, Note_on_c, 0, 98, 0
1, 21409, Note_on_c, 0, 96, 72
1, 21438, Note_on_c, 0, 96, 0
1, 21441, Note_on_c, 9, 51, 77
1, 21442, Note_on_c, 9, 38, 45
1, 21443, Note_on_c, 9, 53, 78
1, 21450, Note_on_c, 0, 95, 56
1, 21459, Note_on_c, 9, 38, 0
1, 21470, Note_on_c, 0, 95, 0
1, 21486, Note_on_c, 9, 38, 32
1, 21499, Note_on_c, 9, 51, 0
1, 21506, Note_on_c, 9, 53, 0
1, 21506, Note_on_c, 9, 38, 0
1, 21547, Note_on_c, 9, 51, 51
1, 21558, Note_on_c, 9, 36, 47
1, 21560, Note_on_c, 0, 64, 47
1, 21561, Note_on_c, 0, 103, 63
1, 21563, Note_on_c, 0, 101, 64
1, 21564, Note_on_c, 9, 51, 0
1, 21565, Note_on_c, 0, 59, 48
1, 21567, Note_on_c, 1, 37, 27
1, 21570, Note_on_c, 0, 64, 0
1, 21572, Note_on_c, 0, 101, 0
1, 21582, Note_on_c, 9, 36, 0
1, 21584, Note_on_c, 0, 59, 0
1, 21589, Note_on_c, 1, 38, 0
1, 21590, Note_on_c, 1, 37, 0
1, 21591, Note_on_c, 9, 53, 50
1, 21591, Note_on_c, 9, 51, 45
1, 21597, Note_on_c, 0, 102, 67
1, 21597, Note_on_c, 1, 43, 75
1, 21598, Note_on_c, 0, 103, 0
1, 21605, Note_on_c, 9, 53, 0
1, 21606, Note_on_c, 9, 36, 30
1, 21608, Note_on_c, 9, 51, 0
1, 21624, Note_on_c, 9, 51, 77
1, 21625, Note_on_c, 9, 53, 80
1, 21630, Note_on_c, 0, 102, 0
1, 21636, Note_on_c, 1, 54, 0
1, 21637, Note_on_c, 0, 59, 45
1, 21638, Note_on_c, 0, 64, 42
1, 21640, Note_on_c, 9, 36, 0
1, 21640, Note_on_c, 0, 100, 51
1, 21644, Control_c, 0, 64, 127
1, 21649, Note_off_c, 0, 64, 0
1, 21659, Control_c, 0, 64, 0
1, 21663, Note_off_c, 0, 100, 0
1, 21664, Note_off_c, 0, 59, 0
1, 21678, Note_off_c, 9, 53, 0
1, 21684, Note_off_c, 9, 51, 0
1, 21689, Note_on_c, 1, 42, 57
1, 21692, Note_on_c, 1, 43, 0
1, 21717, Note_on_c, 1, 42, 0
1, 21723, Note_on_c, 1, 43, 75
1, 21726, Note_on_c, 9, 51, 51
1, 21738, Control_c, 0, 64, 127
1, 21744, Note_off_c, 9, 51, 0
1, 21799, Note_on_c, 9, 51, 92
1, 21816, Note_on_c, 0, 107, 101
1, 21817, Note_on_c, 0, 59, 74
1, 21817, Note_on_c, 0, 64, 85
1, 21818, Note_on_c, 0, 95, 67
1, 21819, Note_on_c, 0, 53, 77
1, 21821, Note_on_c, 0, 100, 50
1, 21822, Note_on_c, 0, 103, 49
1, 21829, Control_c, 0, 64, 0
1, 21841, Note_on_c, 1, 31, 94
1, 21854, Note_on_c, 9, 51, 0
1, 21868, Control_c, 0, 64, 127
1, 21886, Note_on_c, 9, 51, 47
1, 21906, Note_on_c, 9, 51, 0
1, 21922, Note_on_c, 9, 51, 74
1, 21944, Note_on_c, 0, 103, 0
1, 21944, Note_on_c, 0, 107, 0
1, 21947, Note_on_c, 9, 51, 0
1, 21953, Note_on_c, 0, 64, 0
1, 21953, Note_on_c, 0, 100, 0
1, 21953, Note_on_c, 0, 95, 0
1, 21959, Note_on_c, 0, 59, 0
1, 21963, Note_on_c, 0, 53, 0
1, 21964, Note_on_c, 9, 51, 71
1, 21980, Note_on_c, 0, 62, 74
1, 21982, Note_on_c, 0, 53, 69
1, 21983, Note_on_c, 0, 105, 83
1, 21983, Note_on_c, 0, 100, 74
1, 21983, Note_on_c, 9, 38, 29
1, 21984, Note_on_c, 0, 59, 54
1, 21984, Note_on_c, 0, 93, 74
1, 21985, Control_c, 0, 64, 0
1, 21993, Note_off_c, 9, 38, 0
1, 22006, Note_off_c, 9, 51, 0
1, 22068, Note_off_c, 1, 31, 0
1, 22076, Control_c, 0, 64, 127
1, 22080, Note_on_c, 1, 33, 68
1, 22093, Note_on_c, 9, 51, 64
1, 22095, Note_on_c, 0, 105, 0
1, 22096, Note_on_c, 0, 100, 0
1, 22097, Note_on_c, 0, 53, 0
1, 22100, Note_on_c, 1, 43, 0
1, 22102, Note_on_c, 0, 62, 0
1, 22108, Note_on_c, 0, 93, 0
1, 22113, Note_on_c, 9, 51, 0
1, 22125, Note_on_c, 0, 59, 0
1, 22168, Note_on_c, 9, 51, 78
1, 22170, Note_on_c, 0, 103, 69
1, 22170, Note_on_c, 0, 53, 50
1, 22171, Note_on_c, 0, 59, 57
1, 22172, Note_on_c, 0, 63, 52
1, 22172, Note_on_c, 0, 98, 64
1, 22173, Note_on_c, 0, 56, 42
1, 22174, Note_on_c, 0, 91, 51
1, 22179, Note_on_c, 9, 38, 36
1, 22181, Control_c, 0, 64, 0
1, 22195, Note_off_c, 9, 51, 0
1, 22198, Note_off_c, 9, 38, 0
1, 22199, Note_on_c, 1, 35, 74
1, 22206, Note_on_c, 1, 33, 0
1, 22215, Control_c, 0, 64, 127
1, 22232, Note_on_c, 9, 38, 32
1, 22238, Note_on_c, 0, 103, 0
1, 22244, Note_on_c, 9, 38, 0
1, 22245, Note_on_c, 0, 63, 0
1, 22246, Note_on_c, 0, 98, 0
1, 22247, Note_on_c, 0, 53, 0
1, 22253, Note_on_c, 0, 56, 0
1, 22256, Note_on_c, 0, 59, 0
1, 22259, Note_on_c, 0, 91, 0
1, 22289, Note_on_c, 9, 51, 71
1, 22302, Note_on_c, 9, 36, 45
1, 22305, Note_on_c, 9, 51, 0
1, 22311, Note_on_c, 1, 35, 0
1, 22316, Note_on_c, 1, 36, 70
1, 22324, Note_on_c, 0, 62, 51
1, 22325, Note_on_c, 0, 95, 56
1, 22325, Note_on_c, 0, 59, 30
1, 22325, Note_on_c, 0, 100, 46
1, 22328, Note_on_c, 9, 36, 0
1, 22328, Note_on_c, 0, 52, 38
1, 22329, Note_on_c, 0, 88, 40
1, 22329, Control_c, 0, 64, 0
1, 22330, Note_on_c, 9, 51, 75
1, 22333, Note_on_c, 0, 55, 38
1, 22347, Note_on_c, 9, 36, 30
1, 22371, Note_on_c, 9, 36, 0
1, 22386, Note_on_c, 9, 51, 0
1, 22387, Note_on_c, 0, 100, 0
1, 22387, Control_c, 0, 64, 127
1, 22400, Note_off_c, 0, 95, 0
1, 22428, Note_off_c, 0, 88, 0
1, 22440, Note_on_c, 9, 51, 85
1, 22480, Note_on_c, 0, 52, 0
1, 22483, Note_on_c, 0, 55, 0
1, 22487, Note_on_c, 9, 51, 0
1, 22494, Note_on_c, 0, 59, 0
1, 22500, Note_on_c, 0, 62, 0
1, 22525, Note_on_c, 9, 51, 56
1, 22545, Note_on_c, 9, 51, 0
1, 22560, Note_on_c, 9, 51, 74
1, 22569, Control_c, 0, 64, 0
1, 22570, Note_on_c, 0, 61, 42
1, 22582, Note_on_c, 0, 63, 34
1, 22585, Note_on_c, 0, 65, 62
1, 22594, Note_on_c, 0, 61, 0
1, 22595, Note_on_c, 0, 63, 0
1, 22600, Note_on_c, 1, 36, 0
1, 22603, Note_on_c, 0, 67, 48
1, 22609, Note_on_c, 9, 51, 0
1, 22622, Note_on_c, 0, 65, 0
1, 22623, Note_on_c, 0, 69, 54
1, 22641, Note_on_c, 0, 67, 0
1, 22641, Note_on_c, 0, 71, 64
1, 22642, Note_on_c, 0, 69, 0
1, 22645, Note_on_c, 1, 52, 98
1, 22645, Note_on_c, 1, 36, 71
1, 22659, Note_on_c, 0, 71, 0
1, 22662, Note_on_c, 0, 73, 53
1, 22670, Note_on_c, 0, 75, 35
1, 22674, Note_on_c, 0, 73, 0
1, 22679, Note_on_c, 0, 75, 0
1, 22682, Note_on_c, 9, 51, 92
1, 22689, Note_on_c, 0, 77, 46
1, 22707, Note_on_c, 1, 52, 0
1, 22707, Note_on_c, 0, 79, 36
1, 22710, Note_on_c, 1, 36, 0
1, 22710, Note_on_c, 0, 77, 0
1, 22711, Note_on_c, 1, 35, 58
1, 22713, Note_on_c, 1, 51, 71
1, 22724, Note_on_c, 0, 81, 32
1, 22730, Note_on_c, 0, 79, 0
1, 22735, Note_on_c, 9, 51, 0
1, 22735, Note_on_c, 0, 81, 0
1, 22757, Note_on_c, 0, 85, 52
1, 22763, Note_on_c, 0, 87, 44
1, 22775, Note_on_c, 0, 87, 0
1, 22776, Note_on_c, 0, 89, 50
1, 22779, Note_on_c, 0, 85, 0
1, 22791, Note_on_c, 0, 89, 0
1, 22796, Note_on_c, 0, 91, 26
1, 22805, Note_on_c, 9, 51, 87
1, 22808, Note_on_c, 0, 93, 62
1, 22824, Note_on_c, 0, 91, 0
1, 22837, Note_on_c, 0, 93, 0
1, 22838, Note_on_c, 0, 95, 74
1, 22857, Note_on_c, 9, 51, 0
1, 22859, Note_on_c, 0, 95, 0
1, 22889, Note_on_c, 9, 38, 30
1, 22897, Note_on_c, 9, 38, 0
1, 22930, Note_on_c, 9, 51, 91
1, 22933, Note_on_c, 9, 38, 37
1, 22941, Note_on_c, 9, 38, 0
1, 22957, Note_on_c, 1, 35, 0
1, 22964, Note_on_c, 1, 38, 64
1, 22971, Note_on_c, 1, 51, 0
1, 22984, Note_on_c, 1, 38, 0
1, 23005, Note_on_c, 9, 51, 0
1, 23005, Note_on_c, 1, 39, 66
1, 23007, Note_on_c, 9, 36, 43
1, 23020, Note_on_c, 1, 39, 0
1, 23029, Note_on_c, 9, 36, 0
1, 23047, Note_on_c, 1, 40, 77
1, 23049, Note_on_c, 9, 36, 29
1, 23065, Control_c, 0, 64, 127
1, 23075, Note_off_c, 9, 36, 0
1, 23128, Note_on_c, 9, 51, 69
1, 23146, Note_on_c, 9, 51, 0
1, 23148, Control_c, 0, 64, 0
1, 23160, Note_on_c, 0, 52, 32
1, 23161, Note_on_c, 1, 54, 88
1, 23164, Note_on_c, 9, 51, 69
1, 23172, Control_c, 0, 64, 127
1, 23230, Note_off_c, 1, 54, 0
1, 23235, Note_off_c, 9, 51, 0
1, 23239, Note_on_c, 1, 55, 84
1, 23252, Control_c, 0, 64, 0
1, 23257, Note_on_c, 0, 62, 24
1, 23267, Note_on_c, 1, 55, 0
1, 23281, Control_c, 0, 64, 127
1, 23283, Note_off_c, 0, 62, 0
1, 23290, Note_on_c, 9, 51, 85
1, 23297, Note_on_c, 1, 54, 44
1, 23344, Note_on_c, 9, 51, 0
1, 23348, Note_on_c, 1, 40, 0
1, 23351, Note_on_c, 1, 54, 0
1, 23360, Note_on_c, 0, 81, 70
1, 23361, Note_on_c, 0, 74, 74
1, 23362, Control_c, 0, 64, 0
1, 23362, Note_on_c, 1, 52, 70
1, 23363, Note_on_c, 0, 62, 58
1, 23363, Note_on_c, 0, 69, 72
1, 23365, Note_on_c, 0, 77, 59
1, 23369, Note_on_c, 0, 52, 0
1, 23379, Note_on_c, 9, 51, 59
1, 23388, Note_on_c, 9, 51, 0
1, 23388, Control_c, 0, 64, 127
1, 23389, Note_off_c, 0, 62, 0
1, 23399, Note_off_c, 0, 81, 0
1, 23401, Note_off_c, 0, 77, 0
1, 23402, Note_off_c, 1, 52, 0
1, 23403, Note_off_c, 0, 74, 0
1, 23407, Note_off_c, 0, 69, 0
1, 23407, Note_on_c, 9, 51, 60
1, 23415, Note_on_c, 1, 54, 63
1, 23462, Note_on_c, 9, 51, 0
1, 23518, Note_on_c, 1, 42, 87
1, 23528, Note_on_c, 9, 51, 84
1, 23533, Note_on_c, 1, 54, 0
1, 23588, Note_on_c, 9, 51, 0
1, 23613, Note_on_c, 0, 74, 65
1, 23617, Note_on_c, 0, 70, 49
1, 23618, Note_on_c, 0, 64, 50
1, 23619, Note_on_c, 0, 68, 46
1, 23620, Note_on_c, 0, 62, 40
1, 23621, Note_on_c, 0, 73, 28
1, 23625, Control_c, 0, 64, 0
1, 23635, Note_off_c, 0, 62, 0
1, 23636, Note_off_c, 0, 73, 0
1, 23647, Note_on_c, 9, 51, 87
1, 23657, Note_on_c, 0, 70, 0
1, 23658, Note_on_c, 0, 64, 0
1, 23666, Note_on_c, 0, 68, 0
1, 23673, Note_on_c, 0, 74, 0
1, 23695, Note_on_c, 0, 72, 68
1, 23696, Note_on_c, 9, 51, 0
1, 23698, Note_on_c, 0, 68, 51
1, 23699, Note_on_c, 0, 64, 44
1, 23700, Note_on_c, 0, 58, 43
1, 23701, Control_c, 0, 64, 127
1, 23718, Note_on_c, 1, 46, 80
1, 23721, Note_on_c, 0, 64, 0
1, 23724, Note_on_c, 0, 58, 0
1, 23733, Note_on_c, 9, 51, 53
1, 23738, Note_on_c, 0, 68, 0
1, 23742, Note_on_c, 9, 51, 0
1, 23742, Note_on_c, 0, 72, 0
1, 23749, Note_on_c, 1, 46, 0
1, 23750, Note_on_c, 1, 42, 0
1, 23758, Note_on_c, 1, 47, 74
1, 23768, Note_on_c, 9, 51, 74
1, 23771, Control_c, 0, 64, 0
1, 23777, Note_on_c, 0, 57, 52
1, 23779, Note_on_c, 0, 74, 57
1, 23779, Note_on_c, 0, 62, 61
1, 23780, Note_on_c, 0, 69, 56
1, 23781, Note_on_c, 0, 47, 41
1, 23808, Control_c, 0, 64, 127
1, 23821, Note_off_c, 0, 74, 0
1, 23830, Note_off_c, 0, 62, 0
1, 23837, Note_off_c, 0, 57, 0
1, 23840, Note_off_c, 9, 51, 0
1, 23850, Note_off_c, 0, 69, 0
1, 23864, Note_on_c, 0, 76, 67
1, 23865, Note_on_c, 0, 69, 63
1, 23868, Note_on_c, 0, 64, 70
1, 23873, Note_on_c, 0, 57, 57
1, 23891, Note_on_c, 0, 64, 0
1, 23891, Note_on_c, 9, 51, 87
1, 23892, Note_on_c, 9, 44, 33
1, 23894, Note_on_c, 0, 57, 0
1, 23903, Note_on_c, 0, 69, 0
1, 23906, Note_on_c, 0, 76, 0
1, 23937, Note_on_c, 9, 44, 0
1, 23951, Note_on_c, 0, 78, 69
1, 23952, Note_on_c, 9, 51, 0
1, 23953, Note_on_c, 0, 66, 69
1, 23954, Note_on_c, 0, 57, 62
1, 23963, Note_on_c, 0, 47, 0
1, 23977, Note_on_c, 9, 38, 16
1, 23979, Note_on_c, 0, 57, 0
1, 23984, Note_on_c, 9, 38, 0
1, 23993, Note_on_c, 0, 78, 0
1, 23993, Note_on_c, 0, 66, 0
1, 24005, Note_on_c, 9, 51, 86
1, 24007, Note_on_c, 9, 46, 62
1, 24016, Control_c, 0, 64, 0
1, 24024, Control_c, 0, 64, 127
1, 24027, Note_on_c, 0, 79, 67
1, 24029, Note_on_c, 0, 67, 71
1, 24030, Note_on_c, 0, 72, 70
1, 24037, Note_on_c, 1, 47, 0
1, 24038, Note_on_c, 0, 77, 30
1, 24038, Note_on_c, 1, 52, 72
1, 24053, Note_on_c, 0, 67, 0
1, 24053, Note_on_c, 0, 72, 0
1, 24056, Note_on_c, 1, 52, 0
1, 24067, Note_on_c, 0, 79, 0
1, 24067, Note_on_c, 9, 46, 0
1, 24067, Note_on_c, 0, 77, 0
1, 24069, Note_on_c, 9, 51, 0
1, 24079, Note_on_c, 1, 39, 79
1, 24103, Note_on_c, 0, 81, 66
1, 24105, Note_on_c, 0, 69, 57
1, 24116, Note_on_c, 0, 69, 0
1, 24120, Note_on_c, 1, 40, 78
1, 24121, Note_on_c, 1, 39, 0
1, 24133, Note_on_c, 0, 81, 0
1, 24157, Control_c, 0, 64, 0
1, 24164, Note_on_c, 0, 83, 54
1, 24165, Note_on_c, 0, 71, 49
1, 24166, Note_on_c, 0, 76, 43
1, 24167, Note_on_c, 0, 67, 49
1, 24168, Note_on_c, 0, 56, 37
1, 24169, Note_on_c, 0, 79, 37
1, 24170, Note_on_c, 0, 62, 40
1, 24186, Note_on_c, 1, 40, 0
1, 24191, Control_c, 0, 64, 127
1, 24197, Note_on_c, 1, 35, 55
1, 24212, Note_on_c, 9, 51, 65
1, 24214, Note_on_c, 9, 38, 19
1, 24221, Note_on_c, 1, 35, 0
1, 24223, Note_on_c, 9, 38, 0
1, 24232, Note_on_c, 9, 51, 0
1, 24233, Note_on_c, 1, 28, 84
1, 24250, Note_on_c, 0, 71, 0
1, 24250, Note_on_c, 9, 51, 70
1, 24253, Note_on_c, 0, 76, 0
1, 24256, Note_on_c, 0, 79, 0
1, 24257, Note_on_c, 9, 38, 18
1, 24265, Note_on_c, 0, 83, 0
1, 24275, Note_on_c, 0, 67, 0
1, 24285, Note_on_c, 9, 38, 0
1, 24292, Note_on_c, 0, 62, 0
1, 24294, Note_on_c, 0, 56, 0
1, 24309, Note_on_c, 9, 51, 0
1, 24324, Note_on_c, 9, 38, 42
1, 24325, Note_on_c, 0, 56, 37
1, 24325, Note_on_c, 0, 84, 57
1, 24326, Note_on_c, 0, 65, 51
1, 24327, Control_c, 0, 64, 0
1, 24328, Note_on_c, 0, 62, 39
1, 24328, Note_on_c, 0, 79, 43
1, 24329, Note_on_c, 0, 72, 43
1, 24348, Note_on_c, 1, 28, 0
1, 24350, Note_on_c, 9, 38, 0
1, 24353, Control_c, 0, 64, 127
1, 24353, Note_on_c, 1, 34, 87
1, 24356, Note_on_c, 0, 72, 0
1, 24358, Note_on_c, 0, 65, 0
1, 24363, Note_on_c, 0, 84, 0
1, 24366, Note_on_c, 9, 51, 88
1, 24371, Note_on_c, 0, 56, 0
1, 24373, Note_on_c, 9, 38, 24
1, 24374, Note_on_c, 0, 79, 0
1, 24376, Note_on_c, 0, 62, 0
1, 24398, Note_on_c, 9, 38, 0
1, 24403, Note_on_c, 0, 56, 53
1, 24403, Note_on_c, 0, 74, 58
1, 24404, Note_on_c, 0, 86, 61
1, 24407, Note_on_c, 0, 62, 29
1, 24408, Note_on_c, 0, 65, 46
1, 24411, Note_on_c, 0, 79, 19
1, 24415, Note_on_c, 0, 82, 25
1, 24422, Note_on_c, 0, 65, 0
1, 24422, Note_on_c, 0, 62, 0
1, 24422, Note_on_c, 9, 51, 0
1, 24423, Note_on_c, 0, 82, 0
1, 24427, Note_on_c, 0, 79, 0
1, 24435, Note_on_c, 0, 74, 0
1, 24438, Note_on_c, 0, 86, 0
1, 24441, Note_on_c, 1, 32, 55
1, 24448, Note_on_c, 0, 56, 0
1, 24452, Note_on_c, 1, 34, 0
1, 24457, Note_on_c, 9, 51, 58
1, 24470, Note_on_c, 1, 32, 0
1, 24475, Note_on_c, 9, 51, 0
1, 24475, Note_on_c, 1, 33, 88
1, 24484, Note_on_c, 0, 55, 53
1, 24484, Note_on_c, 0, 64, 59
1, 24486, Control_c, 0, 64, 0
1, 24486, Note_on_c, 0, 81, 55
1, 24487, Note_on_c, 0, 72, 52
1, 24488, Note_on_c, 0, 84, 45
1, 24488, Note_on_c, 9, 36, 30
1, 24489, Note_on_c, 9, 51, 83
1, 24500, Note_on_c, 9, 36, 0
1, 24535, Control_c, 0, 64, 127
1, 24539, Note_off_c, 0, 55, 0
1, 24541, Note_off_c, 0, 64, 0
1, 24549, Note_off_c, 0, 72, 0
1, 24552, Note_off_c, 9, 51, 0
1, 24560, Note_off_c, 0, 81, 0
1, 24565, Note_off_c, 0, 84, 0
1, 24604, Note_on_c, 9, 51, 91
1, 24609, Note_on_c, 9, 44, 27
1, 24622, Note_on_c, 9, 44, 0
1, 24642, Note_on_c, 1, 33, 0
1, 24644, Note_on_c, 1, 35, 57
1, 24658, Control_c, 0, 64, 0
1, 24659, Note_on_c, 0, 61, 45
1, 24659, Note_on_c, 0, 86, 65
1, 24660, Note_on_c, 0, 65, 64
1, 24661, Note_on_c, 0, 74, 72
1, 24661, Note_on_c, 0, 55, 58
1, 24661, Note_on_c, 0, 60, 57
1, 24665, Note_on_c, 0, 58, 43
1, 24673, Note_on_c, 1, 35, 0
1, 24680, Note_on_c, 1, 36, 72
1, 24684, Note_on_c, 9, 51, 0
1, 24690, Control_c, 0, 64, 127
1, 24703, Note_off_c, 0, 86, 0
1, 24710, Note_off_c, 1, 36, 0
1, 24711, Note_off_c, 0, 74, 0
1, 24711, Note_off_c, 0, 55, 0
1, 24714, Note_off_c, 0, 65, 0
1, 24719, Note_off_c, 0, 60, 0
1, 24721, Note_off_c, 0, 58, 0
1, 24721, Note_on_c, 9, 44, 51
1, 24722, Note_on_c, 0, 61, 0
1, 24722, Note_on_c, 1, 37, 82
1, 24748, Note_on_c, 0, 61, 42
1, 24749, Note_on_c, 0, 88, 72
1, 24749, Note_on_c, 0, 65, 72
1, 24750, Note_on_c, 0, 81, 62
1, 24750, Note_on_c, 0, 76, 62
1, 24751, Note_on_c, 0, 60, 45
1, 24752, Note_on_c, 0, 84, 60
1, 24752, Note_on_c, 0, 55, 66
1, 24753, Note_on_c, 9, 44, 0
1, 24757, Note_on_c, 0, 58, 35
1, 24760, Note_on_c, 0, 86, 34
1, 24780, Note_on_c, 0, 60, 0
1, 24783, Note_on_c, 0, 81, 0
1, 24785, Note_on_c, 0, 65, 0
1, 24787, Note_on_c, 0, 55, 0
1, 24793, Note_on_c, 0, 84, 0
1, 24794, Note_on_c, 0, 76, 0
1, 24798, Note_on_c, 0, 58, 0
1, 24798, Note_on_c, 9, 51, 64
1, 24801, Note_on_c, 0, 86, 0
1, 24801, Note_on_c, 9, 38, 33
1, 24802, Note_on_c, 0, 61, 0
1, 24808, Note_on_c, 0, 88, 0
1, 24819, Note_on_c, 9, 38, 0
1, 24820, Note_on_c, 9, 51, 0
1, 24831, Note_on_c, 1, 37, 0
1, 24839, Note_on_c, 1, 38, 85
1, 24840, Note_on_c, 9, 51, 69
1, 24848, Note_on_c, 9, 36, 23
1, 24851, Control_c, 0, 64, 0
1, 24853, Note_on_c, 0, 64, 54
1, 24854, Note_on_c, 0, 54, 39
1, 24856, Note_on_c, 0, 88, 62
1, 24856, Note_on_c, 0, 76, 55
1, 24857, Note_on_c, 0, 80, 46
1, 24857, Note_on_c, 0, 84, 50
1, 24859, Note_on_c, 0, 59, 35
1, 24859, Note_on_c, 0, 60, 39
1, 24864, Note_on_c, 0, 86, 38
1, 24876, Note_on_c, 0, 86, 0
1, 24886, Note_on_c, 9, 36, 0
1, 24911, Note_on_c, 9, 51, 0
1, 24956, Control_c, 0, 64, 127
1, 24962, Note_on_c, 9, 51, 83
1, 24964, Note_on_c, 0, 59, 0
1, 24967, Note_on_c, 0, 76, 0
1, 24969, Note_on_c, 0, 84, 0
1, 24971, Note_on_c, 0, 88, 0
1, 24981, Note_on_c, 0, 64, 0
1, 24982, Note_on_c, 0, 54, 0
1, 24985, Note_on_c, 0, 60, 0
1, 24986, Note_on_c, 0, 80, 0
1, 24995, Note_on_c, 9, 51, 0
1, 25032, Note_on_c, 0, 64, 60
1, 25033, Note_on_c, 0, 80, 58
1, 25033, Note_on_c, 0, 86, 52
1, 25034, Control_c, 0, 64, 0
1, 25035, Note_on_c, 0, 74, 57
1, 25036, Note_on_c, 0, 54, 39
1, 25040, Note_on_c, 0, 60, 38
1, 25041, Note_on_c, 9, 51, 83
1, 25042, Note_on_c, 0, 59, 45
1, 25043, Note_on_c, 9, 38, 24
1, 25052, Note_on_c, 9, 51, 0
1, 25053, Note_on_c, 9, 52, 80
1, 25055, Note_on_c, 9, 38, 0
1, 25062, Note_on_c, 9, 52, 0
1, 25062, Control_c, 0, 64, 127
1, 25063, Note_off_c, 0, 64, 0
1, 25073, Note_off_c, 0, 86, 0
1, 25073, Note_off_c, 0, 59, 0
1, 25077, Note_off_c, 0, 74, 0
1, 25078, Note_off_c, 0, 80, 0
1, 25078, Note_off_c, 0, 60, 0
1, 25083, Note_on_c, 9, 44, 34
1, 25086, Control_c, 0, 64, 0
1, 25096, Note_off_c, 9, 44, 0
1, 25102, Control_c, 0, 64, 127
1, 25112, Note_on_c, 0, 84, 37
1, 25113, Note_on_c, 0, 64, 54
1, 25121, Note_on_c, 0, 72, 49
1, 25121, Note_on_c, 0, 60, 22
1, 25122, Note_on_c, 0, 79, 34
1, 25122, Note_on_c, 9, 44, 43
1, 25132, Note_on_c, 0, 60, 0
1, 25138, Note_on_c, 0, 54, 0
1, 25140, Note_on_c, 9, 44, 0
1, 25142, Note_on_c, 0, 79, 0
1, 25147, Note_on_c, 0, 72, 0
1, 25147, Note_on_c, 0, 84, 0
1, 25148, Note_on_c, 0, 64, 0
1, 25153, Note_on_c, 9, 51, 68
1, 25173, Note_on_c, 9, 51, 0
1, 25203, Control_c, 0, 64, 0
1, 25204, Note_on_c, 0, 57, 44
1, 25204, Note_on_c, 0, 65, 51
1, 25205, Note_on_c, 1, 47, 117
1, 25206, Note_on_c, 0, 83, 37
1, 25206, Note_on_c, 9, 51, 69
1, 25207, Note_on_c, 0, 71, 46
1, 25209, Note_on_c, 0, 62, 43
1, 25210, Note_on_c, 1, 38, 0
1, 25213, Note_on_c, 0, 77, 46
1, 25213, Note_on_c, 9, 53, 64
1, 25248, Note_on_c, 9, 53, 0
1, 25261, Note_on_c, 9, 51, 0
1, 25289, Note_on_c, 9, 36, 19
1, 25296, Note_on_c, 9, 36, 0
1, 25306, Note_on_c, 0, 71, 0
1, 25308, Control_c, 0, 64, 127
1, 25311, Note_off_c, 0, 83, 0
1, 25312, Note_off_c, 0, 77, 0
1, 25324, Note_on_c, 9, 51, 64
1, 25338, Note_on_c, 0, 57, 0
1, 25338, Note_on_c, 0, 65, 0
1, 25339, Note_on_c, 0, 62, 0
1, 25347, Note_on_c, 9, 51, 0
1, 25365, Note_on_c, 9, 44, 39
1, 25379, Note_on_c, 9, 44, 0
1, 25385, Note_on_c, 0, 65, 56
1, 25386, Note_on_c, 0, 57, 44
1, 25386, Note_on_c, 0, 84, 53
1, 25388, Note_on_c, 0, 72, 55
1, 25389, Note_on_c, 0, 62, 43
1, 25390, Note_on_c, 0, 79, 45
1, 25393, Note_on_c, 1, 38, 58
1, 25399, Note_on_c, 9, 51, 82
1, 25402, Note_on_c, 1, 38, 0
1, 25403, Note_on_c, 9, 53, 73
1, 25406, Note_on_c, 9, 54, 37
1, 25415, Note_on_c, 9, 54, 0
1, 25415, Note_on_c, 0, 72, 0
1, 25426, Note_on_c, 0, 79, 0
1, 25428, Note_on_c, 0, 65, 0
1, 25431, Note_on_c, 0, 57, 0
1, 25435, Note_on_c, 0, 84, 0
1, 25435, Note_on_c, 0, 62, 0
1, 25437, Note_on_c, 1, 43, 62
1, 25439, Note_on_c, 1, 47, 0
1, 25444, Note_on_c, 9, 44, 38
1, 25458, Note_on_c, 9, 53, 0
1, 25463, Note_on_c, 9, 44, 0
1, 25465, Note_on_c, 9, 51, 0
1, 25470, Note_on_c, 0, 89, 64
1, 25471, Note_on_c, 0, 57, 57
1, 25473, Note_on_c, 0, 62, 36
1, 25473, Note_on_c, 0, 76, 43
1, 25473, Note_on_c, 0, 65, 60
1, 25475, Control_c, 0, 64, 0
1, 25477, Note_on_c, 0, 77, 33
1, 25483, Control_c, 0, 64, 127
1, 25490, Note_on_c, 9, 44, 37
1, 25494, Note_on_c, 0, 76, 0
1, 25495, Note_on_c, 0, 62, 0
1, 25495, Note_on_c, 0, 77, 0
1, 25501, Note_on_c, 9, 44, 0
1, 25502, Note_on_c, 0, 57, 0
1, 25506, Note_on_c, 0, 65, 0
1, 25509, Note_on_c, 0, 89, 0
1, 25517, Note_on_c, 1, 39, 61
1, 25518, Note_on_c, 9, 51, 61
1, 25525, Note_on_c, 1, 39, 0
1, 25541, Note_on_c, 9, 51, 0
1, 25548, Control_c, 0, 64, 0
1, 25549, Note_off_c, 1, 43, 0
1, 25557, Note_on_c, 0, 62, 37
1, 25558, Note_on_c, 0, 67, 66
1, 25558, Note_on_c, 0, 57, 46
1, 25558, Note_on_c, 1, 41, 72
1, 25559, Note_on_c, 0, 63, 58
1, 25566, Note_on_c, 0, 93, 51
1, 25567, Note_on_c, 0, 79, 38
1, 25567, Note_on_c, 0, 91, 54
1, 25569, Note_on_c, 0, 81, 42
1, 25576, Note_on_c, 9, 44, 40
1, 25578, Note_on_c, 9, 51, 82
1, 25582, Note_on_c, 9, 53, 77
1, 25585, Control_c, 0, 64, 127
1, 25588, Note_off_c, 0, 81, 0
1, 25589, Note_off_c, 0, 79, 0
1, 25590, Note_off_c, 9, 44, 0
1, 25595, Note_off_c, 0, 91, 0
1, 25603, Note_off_c, 0, 93, 0
1, 25607, Note_off_c, 1, 41, 0
1, 25609, Note_on_c, 9, 44, 42
1, 25618, Note_on_c, 9, 44, 0
1, 25625, Note_on_c, 0, 67, 0
1, 25628, Note_on_c, 0, 62, 0
1, 25630, Note_on_c, 0, 57, 0
1, 25631, Note_on_c, 0, 63, 0
1, 25636, Note_on_c, 9, 51, 0
1, 25638, Note_on_c, 1, 39, 64
1, 25640, Note_on_c, 9, 53, 0
1, 25652, Note_on_c, 1, 39, 0
1, 25682, Note_on_c, 0, 66, 74
1, 25682, Note_on_c, 0, 56, 67
1, 25683, Note_on_c, 0, 62, 64
1, 25683, Note_on_c, 0, 100, 68
1, 25684, Note_on_c, 1, 40, 84
1, 25685, Note_on_c, 0, 88, 68
1, 25685, Note_on_c, 9, 51, 56
1, 25686, Control_c, 0, 64, 0
1, 25687, Note_on_c, 0, 95, 64
1, 25687, Note_on_c, 9, 44, 37
1, 25690, Note_on_c, 0, 94, 31
1, 25699, Note_on_c, 0, 94, 0
1, 25701, Note_on_c, 9, 44, 0
1, 25708, Note_on_c, 9, 51, 0
1, 25720, Note_on_c, 9, 44, 39
1, 25736, Note_on_c, 9, 44, 0
1, 25756, Note_on_c, 9, 51, 76
1, 25760, Note_on_c, 9, 53, 74
1, 25764, Note_on_c, 9, 54, 32
1, 25768, Note_on_c, 9, 38, 16
1, 25773, Note_on_c, 9, 54, 0
1, 25777, Note_on_c, 9, 38, 0
1, 25788, Control_c, 0, 64, 127
1, 25806, Note_on_c, 9, 44, 42
1, 25810, Note_on_c, 9, 51, 0
1, 25811, Note_on_c, 9, 53, 0
1, 25814, Note_on_c, 0, 95, 0
1, 25819, Note_on_c, 0, 100, 0
1, 25822, Note_on_c, 9, 44, 0
1, 25833, Note_on_c, 0, 88, 0
1, 25835, Note_on_c, 0, 66, 0
1, 25839, Note_on_c, 0, 56, 0
1, 25839, Note_on_c, 9, 44, 48
1, 25851, Note_on_c, 0, 62, 0
1, 25852, Note_on_c, 9, 44, 0
1, 25869, Note_on_c, 9, 51, 55
1, 25873, Note_on_c, 0, 56, 53
1, 25878, Note_on_c, 0, 98, 70
1, 25878, Note_on_c, 1, 34, 78
1, 25881, Note_on_c, 0, 86, 57
1, 25881, Note_on_c, 0, 93, 68
1, 25882, Note_on_c, 9, 38, 48
1, 25887, Note_on_c, 1, 40, 0
1, 25901, Note_on_c, 9, 51, 0
1, 25903, Note_on_c, 0, 93, 0
1, 25905, Note_on_c, 9, 38, 0
1, 25905, Note_on_c, 1, 34, 0
1, 25910, Note_on_c, 0, 98, 0
1, 25912, Note_on_c, 0, 86, 0
1, 25916, Note_on_c, 0, 56, 0
1, 25919, Note_on_c, 9, 51, 61
1, 25920, Note_on_c, 1, 33, 66
1, 25924, Note_on_c, 9, 57, 60
1, 25926, Note_on_c, 9, 36, 46
1, 25928, Note_on_c, 9, 54, 37
1, 25931, Control_c, 0, 64, 0
1, 25936, Note_on_c, 0, 55, 33
1, 25936, Note_on_c, 0, 64, 44
1, 25937, Note_on_c, 9, 54, 0
1, 25941, Note_on_c, 0, 96, 47
1, 25941, Note_on_c, 0, 57, 40
1, 25944, Note_on_c, 0, 60, 33
1, 25949, Note_on_c, 0, 91, 22
1, 25950, Note_on_c, 0, 55, 0
1, 25951, Note_on_c, 0, 64, 0
1, 25953, Note_on_c, 0, 96, 0
1, 25955, Note_on_c, 0, 60, 0
1, 25957, Note_on_c, 0, 57, 0
1, 25957, Note_on_c, 0, 91, 0
1, 25974, Note_on_c, 9, 36, 0
1, 25983, Note_on_c, 9, 57, 0
1, 25992, Note_on_c, 9, 51, 0
1, 26045, Note_on_c, 1, 48, 86
1, 26045, Note_on_c, 9, 51, 37
1, 26069, Note_on_c, 9, 51, 0
1, 26075, Control_c, 0, 64, 127
1, 26118, Note_on_c, 9, 51, 40
1, 26126, Note_on_c, 0, 79, 63
1, 26131, Note_on_c, 0, 64, 60
1, 26141, Note_on_c, 0, 64, 0
1, 26142, Note_on_c, 0, 57, 25
1, 26146, Note_on_c, 9, 51, 0
1, 26153, Note_on_c, 0, 57, 0
1, 26158, Note_on_c, 0, 79, 0
1, 26158, Control_c, 0, 64, 0
1, 26164, Note_on_c, 9, 51, 57
1, 26177, Note_on_c, 0, 78, 46
1, 26183, Note_on_c, 9, 51, 0
1, 26205, Note_on_c, 0, 78, 0
1, 26207, Note_on_c, 1, 34, 68
1, 26212, Note_on_c, 1, 48, 0
1, 26213, Note_on_c, 1, 33, 0
1, 26230, Note_on_c, 1, 34, 0
1, 26242, Note_on_c, 1, 35, 75
1, 26243, Note_on_c, 9, 51, 92
1, 26250, Note_on_c, 0, 76, 66
1, 26268, Note_on_c, 9, 51, 0
1, 26284, Note_on_c, 1, 35, 0
1, 26287, Note_on_c, 0, 76, 0
1, 26288, Note_on_c, 1, 51, 78
1, 26288, Note_on_c, 1, 36, 76
1, 26289, Note_on_c, 9, 51, 67
1, 26301, Note_on_c, 0, 74, 44
1, 26345, Note_on_c, 9, 51, 0
1, 26359, Control_c, 0, 64, 127
1, 26369, Note_on_c, 9, 38, 41
1, 26390, Note_on_c, 9, 38, 0
1, 26393, Control_c, 0, 64, 0
1, 26412, Note_on_c, 9, 51, 26
1, 26419, Note_on_c, 9, 38, 31
1, 26424, Note_on_c, 9, 51, 0
1, 26437, Control_c, 0, 64, 127
1, 26439, Note_off_c, 9, 38, 0
1, 26477, Note_off_c, 0, 74, 0
1, 26486, Note_on_c, 9, 51, 54
1, 26487, Note_on_c, 9, 38, 42
1, 26504, Note_on_c, 0, 72, 64
1, 26505, Note_on_c, 9, 51, 0
1, 26513, Note_on_c, 0, 57, 26
1, 26515, Note_on_c, 9, 38, 0
1, 26521, Control_c, 0, 64, 0
1, 26522, Note_off_c, 0, 57, 0
1, 26523, Note_on_c, 9, 51, 67
1, 26533, Note_on_c, 9, 38, 35
1, 26552, Control_c, 0, 64, 127
1, 26564, Note_off_c, 9, 51, 0
1, 26565, Note_off_c, 9, 38, 0
1, 26606, Note_on_c, 9, 36, 47
1, 26614, Note_on_c, 1, 34, 46
1, 26620, Note_on_c, 0, 54, 25
1, 26625, Note_on_c, 1, 36, 0
1, 26630, Note_on_c, 9, 36, 0
1, 26631, Note_on_c, 1, 51, 0
1, 26633, Control_c, 0, 64, 0
1, 26634, Note_on_c, 0, 47, 40
1, 26636, Note_on_c, 0, 57, 44
1, 26637, Note_on_c, 0, 72, 0
1, 26638, Note_on_c, 0, 54, 0
1, 26644, Note_on_c, 9, 51, 81
1, 26645, Note_on_c, 0, 47, 0
1, 26645, Note_on_c, 1, 34, 0
1, 26650, Note_on_c, 0, 57, 0
1, 26651, Note_on_c, 1, 50, 58
1, 26651, Note_on_c, 9, 36, 35
1, 26656, Note_on_c, 0, 71, 32
1, 26657, Note_on_c, 1, 35, 44
1, 26667, Control_c, 0, 64, 127
1, 26681, Note_off_c, 9, 51, 0
1, 26700, Note_off_c, 9, 36, 0
1, 26771, Control_c, 0, 64, 0
1, 26775, Note_on_c, 0, 66, 53
1, 26776, Note_on_c, 0, 78, 57
1, 26777, Note_on_c, 0, 57, 49
1, 26780, Note_on_c, 0, 62, 35
1, 26825, Note_on_c, 1, 35, 0
1, 26832, Note_on_c, 1, 34, 43
1, 26849, Note_on_c, 9, 51, 50
1, 26863, Note_on_c, 9, 51, 0
1, 26864, Note_on_c, 1, 34, 0
1, 26875, Note_on_c, 1, 41, 87
1, 26886, Note_on_c, 9, 51, 50
1, 26888, Note_on_c, 1, 50, 0
1, 26891, Control_c, 0, 64, 127
1, 26894, Note_off_c, 1, 41, 0
1, 26912, Note_off_c, 0, 62, 0
1, 26913, Note_off_c, 0, 57, 0
1, 26915, Note_off_c, 9, 51, 0
1, 26929, Note_off_c, 0, 66, 0
1, 26945, Note_off_c, 0, 71, 0
1, 26953, Note_on_c, 1, 39, 79
1, 26969, Note_on_c, 0, 78, 0
1, 26983, Note_on_c, 1, 39, 0
1, 26991, Note_on_c, 1, 40, 82
1, 27001, Control_c, 0, 64, 0
1, 27007, Note_on_c, 0, 74, 45
1, 27009, Note_on_c, 0, 67, 32
1, 27009, Note_on_c, 0, 56, 48
1, 27010, Note_on_c, 0, 62, 44
1, 27029, Control_c, 0, 64, 127
1, 27046, Note_off_c, 0, 67, 0
1, 27073, Note_on_c, 1, 39, 41
1, 27077, Note_on_c, 0, 74, 0
1, 27080, Note_on_c, 9, 51, 45
1, 27093, Note_on_c, 0, 62, 0
1, 27097, Note_on_c, 9, 51, 0
1, 27112, Note_on_c, 1, 39, 0
1, 27113, Note_on_c, 0, 56, 0
1, 27116, Note_on_c, 1, 52, 107
1, 27117, Note_on_c, 1, 40, 0
1, 27124, Note_on_c, 9, 51, 53
1, 27127, Note_on_c, 9, 38, 33
1, 27138, Note_on_c, 9, 38, 0
1, 27143, Note_on_c, 9, 51, 0
1, 27165, Note_on_c, 9, 38, 27
1, 27177, Note_on_c, 9, 38, 0
1, 27194, Note_on_c, 0, 84, 80
1, 27198, Note_on_c, 0, 79, 80
1, 27199, Note_on_c, 0, 76, 74
1, 27199, Note_on_c, 0, 62, 59
1, 27199, Note_on_c, 0, 56, 62
1, 27200, Note_on_c, 9, 51, 98
1, 27202, Note_on_c, 0, 67, 64
1, 27204, Control_c, 0, 64, 0
1, 27205, Note_on_c, 9, 36, 21
1, 27206, Note_on_c, 1, 40, 48
1, 27209, Note_on_c, 1, 39, 44
1, 27215, Note_on_c, 1, 40, 0
1, 27215, Note_on_c, 9, 36, 0
1, 27221, Note_on_c, 1, 39, 0
1, 27239, Note_on_c, 9, 38, 34
1, 27241, Note_on_c, 1, 52, 0
1, 27241, Control_c, 0, 64, 127
1, 27244, Note_on_c, 1, 47, 75
1, 27246, Note_on_c, 1, 49, 44
1, 27253, Note_on_c, 9, 51, 0
1, 27254, Note_on_c, 1, 49, 0
1, 27257, Note_on_c, 0, 67, 0
1, 27265, Note_on_c, 9, 38, 0
1, 27265, Note_on_c, 0, 62, 0
1, 27278, Note_on_c, 9, 38, 40
1, 27287, Note_on_c, 0, 84, 0
1, 27287, Note_on_c, 9, 51, 62
1, 27293, Note_on_c, 0, 79, 0
1, 27298, Note_on_c, 9, 38, 0
1, 27299, Note_on_c, 0, 76, 0
1, 27302, Note_on_c, 9, 51, 0
1, 27303, Note_on_c, 0, 56, 0
1, 27318, Note_on_c, 9, 36, 48
1, 27323, Note_on_c, 9, 51, 65
1, 27326, Note_on_c, 1, 40, 57
1, 27335, Note_on_c, 1, 40, 0
1, 27342, Note_on_c, 9, 51, 0
1, 27342, Note_on_c, 1, 47, 0
1, 27351, Note_on_c, 9, 36, 0
1, 27359, Note_on_c, 1, 48, 89
1, 27363, Control_c, 0, 64, 0
1, 27364, Note_on_c, 9, 51, 83
1, 27367, Note_on_c, 0, 83, 59
1, 27368, Note_on_c, 0, 79, 47
1, 27369, Note_on_c, 0, 55, 45
1, 27369, Note_on_c, 0, 57, 60
1, 27370, Note_on_c, 0, 76, 51
1, 27371, Note_on_c, 0, 64, 51
1, 27371, Note_on_c, 0, 71, 50
1, 27373, Note_on_c, 0, 60, 40
1, 27405, Control_c, 0, 64, 127
1, 27413, Note_off_c, 9, 51, 0
1, 27441, Note_off_c, 0, 71, 0
1, 27442, Note_off_c, 0, 64, 0
1, 27443, Note_off_c, 0, 60, 0
1, 27449, Note_off_c, 0, 55, 0
1, 27457, Note_off_c, 0, 76, 0
1, 27464, Note_off_c, 0, 83, 0
1, 27466, Note_off_c, 0, 79, 0
1, 27468, Note_off_c, 0, 57, 0
1, 27473, Note_off_c, 1, 48, 0
1, 27475, Note_on_c, 1, 45, 68
1, 27482, Note_on_c, 9, 51, 45
1, 27495, Note_on_c, 9, 51, 0
1, 27555, Note_on_c, 9, 38, 43
1, 27563, Note_on_c, 0, 88, 70
1, 27564, Note_on_c, 0, 55, 52
1, 27564, Note_on_c, 0, 76, 51
1, 27565, Note_on_c, 0, 57, 48
1, 27566, Note_on_c, 0, 84, 48
1, 27566, Note_on_c, 0, 81, 51
1, 27566, Note_on_c, 0, 64, 55
1, 27566, Note_on_c, 9, 51, 86
1, 27569, Note_on_c, 9, 38, 0
1, 27569, Note_on_c, 0, 60, 43
1, 27572, Control_c, 0, 64, 0
1, 27588, Note_off_c, 1, 45, 0
1, 27593, Note_off_c, 9, 51, 0
1, 27598, Note_on_c, 1, 39, 79
1, 27604, Note_on_c, 9, 38, 36
1, 27614, Control_c, 0, 64, 127
1, 27625, Note_off_c, 9, 38, 0
1, 27636, Note_off_c, 0, 76, 0
1, 27644, Note_off_c, 0, 81, 0
1, 27648, Note_off_c, 0, 84, 0
1, 27648, Note_on_c, 9, 51, 55
1, 27649, Note_on_c, 0, 88, 0
1, 27657, Note_on_c, 9, 51, 0
1, 27660, Note_on_c, 0, 64, 0
1, 27661, Note_on_c, 0, 60, 0
1, 27666, Note_on_c, 0, 55, 0
1, 27668, Note_on_c, 0, 57, 0
1, 27679, Note_on_c, 1, 37, 40
1, 27683, Note_on_c, 9, 36, 33
1, 27684, Note_on_c, 9, 51, 59
1, 27704, Note_on_c, 9, 51, 0
1, 27705, Note_on_c, 9, 36, 0
1, 27712, Note_on_c, 1, 37, 0
1, 27716, Note_on_c, 1, 38, 82
1, 27725, Note_on_c, 1, 39, 0
1, 27728, Note_on_c, 9, 51, 70
1, 27729, Note_on_c, 9, 36, 27
1, 27738, Note_on_c, 0, 95, 49
1, 27742, Note_on_c, 0, 83, 47
1, 27742, Note_on_c, 0, 88, 50
1, 27743, Note_on_c, 9, 36, 0
1, 27743, Note_on_c, 0, 65, 60
1, 27746, Note_on_c, 0, 54, 44
1, 27746, Note_on_c, 0, 58, 45
1, 27747, Note_on_c, 0, 92, 35
1, 27747, Note_on_c, 0, 60, 46
1, 27758, Note_on_c, 0, 92, 0
1, 27765, Control_c, 0, 64, 0
1, 27766, Note_off_c, 9, 51, 0
1, 27810, Note_on_c, 1, 37, 29
1, 27828, Control_c, 0, 64, 127
1, 27831, Note_off_c, 0, 95, 0
1, 27833, Note_off_c, 0, 88, 0
1, 27838, Note_on_c, 1, 50, 107
1, 27838, Note_on_c, 9, 51, 47
1, 27839, Note_on_c, 0, 83, 0
1, 27847, Note_on_c, 1, 37, 0
1, 27847, Note_on_c, 0, 65, 0
1, 27856, Note_on_c, 0, 60, 0
1, 27862, Note_on_c, 9, 51, 0
1, 27866, Note_on_c, 0, 58, 0
1, 27884, Note_on_c, 0, 54, 0
1, 27917, Note_on_c, 9, 51, 90
1, 27917, Note_on_c, 9, 38, 35
1, 27928, Note_on_c, 0, 64, 62
1, 27928, Note_on_c, 0, 78, 47
1, 27928, Note_on_c, 1, 37, 44
1, 27930, Note_on_c, 0, 90, 49
1, 27931, Note_on_c, 0, 58, 47
1, 27933, Note_on_c, 9, 38, 0
1, 27933, Note_on_c, 0, 54, 36
1, 27934, Note_on_c, 0, 60, 46
1, 27937, Control_c, 0, 64, 0
1, 27943, Note_off_c, 1, 38, 0
1, 27952, Note_off_c, 1, 50, 0
1, 27962, Note_on_c, 1, 47, 85
1, 27966, Note_on_c, 1, 37, 0
1, 27966, Note_on_c, 9, 38, 25
1, 27976, Control_c, 0, 64, 127
1, 27981, Note_off_c, 9, 51, 0
1, 27982, Note_off_c, 9, 38, 0
1, 28006, Note_off_c, 0, 90, 0
1, 28011, Note_off_c, 0, 60, 0
1, 28013, Note_off_c, 0, 78, 0
1, 28015, Note_off_c, 0, 64, 0
1, 28032, Note_off_c, 0, 58, 0
1, 28039, Note_on_c, 1, 38, 58
1, 28039, Note_on_c, 9, 36, 46
1, 28046, Note_on_c, 0, 54, 0
1, 28048, Note_on_c, 9, 51, 46
1, 28049, Note_on_c, 1, 38, 0
1, 28060, Note_on_c, 9, 51, 0
1, 28061, Note_on_c, 9, 36, 0
1, 28068, Note_on_c, 1, 47, 0
1, 28076, Note_on_c, 1, 42, 83
1, 28087, Note_on_c, 9, 36, 24
1, 28095, Note_on_c, 0, 59, 51
1, 28096, Note_on_c, 0, 62, 54
1, 28098, Note_on_c, 0, 93, 71
1, 28098, Note_on_c, 9, 51, 93
1, 28099, Control_c, 0, 64, 0
1, 28099, Note_on_c, 0, 54, 43
1, 28100, Note_on_c, 0, 86, 54
1, 28100, Note_on_c, 0, 81, 56
1, 28101, Note_on_c, 9, 36, 0
1, 28103, Note_on_c, 0, 90, 31
1, 28150, Note_on_c, 9, 51, 0
1, 28159, Note_on_c, 1, 38, 54
1, 28166, Note_on_c, 1, 38, 0
1, 28177, Note_on_c, 1, 42, 0
1, 28195, Control_c, 0, 64, 127
1, 28198, Note_on_c, 1, 38, 70
1, 28203, Note_on_c, 9, 51, 57
1, 28209, Note_on_c, 0, 93, 0
1, 28210, Note_on_c, 0, 90, 0
1, 28212, Note_on_c, 0, 81, 0
1, 28220, Note_on_c, 0, 62, 0
1, 28223, Note_on_c, 9, 51, 0
1, 28223, Note_on_c, 0, 86, 0
1, 28232, Note_on_c, 0, 59, 0
1, 28232, Note_on_c, 0, 54, 0
1, 28278, Note_on_c, 9, 38, 60
1, 28279, Note_on_c, 9, 51, 85
1, 28282, Note_on_c, 0, 86, 42
1, 28282, Note_on_c, 9, 53, 80
1, 28283, Note_on_c, 0, 91, 44
1, 28284, Note_on_c, 0, 79, 42
1, 28286, Note_on_c, 0, 62, 49
1, 28287, Note_on_c, 0, 54, 50
1, 28289, Control_c, 0, 64, 0
1, 28289, Note_on_c, 0, 59, 40
1, 28301, Note_on_c, 1, 38, 0
1, 28315, Note_on_c, 1, 38, 100
1, 28316, Note_on_c, 0, 62, 0
1, 28318, Note_on_c, 0, 59, 0
1, 28326, Control_c, 0, 64, 127
1, 28339, Note_off_c, 0, 54, 0
1, 28339, Note_off_c, 9, 38, 0
1, 28348, Note_off_c, 0, 91, 0
1, 28349, Note_off_c, 9, 51, 0
1, 28351, Note_off_c, 9, 53, 0
1, 28351, Note_off_c, 0, 86, 0
1, 28377, Note_off_c, 0, 79, 0
1, 28400, Note_on_c, 9, 36, 36
1, 28401, Note_on_c, 9, 51, 59
1, 28407, Note_on_c, 9, 36, 0
1, 28420, Note_on_c, 9, 51, 0
1, 28433, Note_on_c, 1, 54, 97
1, 28438, Note_on_c, 0, 49, 52
1, 28446, Control_c, 0, 64, 0
1, 28449, Note_on_c, 0, 90, 39
1, 28450, Note_on_c, 0, 78, 38
1, 28452, Note_on_c, 0, 50, 47
1, 28452, Note_on_c, 9, 51, 87
1, 28453, Note_on_c, 0, 86, 46
1, 28454, Note_on_c, 9, 53, 81
1, 28456, Note_on_c, 0, 49, 0
1, 28457, Note_on_c, 9, 36, 63
1, 28457, Note_on_c, 9, 38, 60
1, 28486, Note_on_c, 9, 36, 0
1, 28516, Note_on_c, 9, 51, 0
1, 28523, Note_on_c, 9, 38, 0
1, 28523, Note_on_c, 1, 37, 62
1, 28528, Note_on_c, 9, 53, 0
1, 28541, Note_on_c, 1, 38, 0
1, 28542, Note_on_c, 0, 90, 0
1, 28545, Note_on_c, 1, 37, 0
1, 28545, Note_on_c, 0, 86, 0
1, 28550, Note_on_c, 0, 78, 0
1, 28552, Note_on_c, 1, 50, 78
1, 28554, Note_on_c, 1, 54, 0
1, 28554, Note_on_c, 9, 38, 46
1, 28559, Note_on_c, 9, 51, 60
1, 28565, Note_on_c, 0, 38, 52
1, 28574, Note_on_c, 9, 38, 0
1, 28580, Note_on_c, 9, 51, 0
1, 28628, Note_on_c, 9, 38, 63
1, 28633, Note_on_c, 9, 51, 84
1, 28634, Note_on_c, 9, 57, 88
1, 28649, Note_on_c, 0, 38, 0
1, 28675, Note_on_c, 0, 38, 45
1, 28683, Note_on_c, 1, 50, 0
1, 28693, Note_on_c, 9, 38, 0
1, 28698, Note_on_c, 9, 51, 0
1, 28704, Note_on_c, 9, 57, 0
1, 28723, Note_on_c, 0, 38, 0
1, 28735, Note_on_c, 0, 50, 0
1, 28746, Note_on_c, 9, 51, 32
1, 28757, Note_on_c, 9, 51, 0
1, 28788, Note_on_c, 1, 47, 53
1, 28788, Note_on_c, 9, 59, 40
1, 28790, Note_on_c, 9, 38, 36
1, 28796, Note_on_c, 9, 51, 81
1, 28797, Note_on_c, 9, 57, 76
1, 28799, Note_on_c, 9, 59, 0
1, 28814, Note_on_c, 9, 38, 0
1, 28835, Note_on_c, 9, 57, 0
1, 28835, Note_on_c, 9, 51, 0
1, 28865, Note_on_c, 1, 47, 0
1, 28867, Note_on_c, 1, 54, 91
1, 28915, Control_c, 0, 64, 127
1, 28918, Note_on_c, 1, 50, 45
1, 28919, Note_on_c, 1, 54, 0
1, 28920, Note_on_c, 9, 44, 34
1, 28952, Note_on_c, 9, 44, 0
1, 29032, Note_on_c, 9, 44, 35
1, 29088, Note_on_c, 9, 44, 0
1, 29115, Note_on_c, 9, 59, 46
1, 29139, Note_on_c, 9, 59, 0
1, 29158, Note_on_c, 9, 59, 40
1, 29160, Note_on_c, 0, 66, 32
1, 29161, Note_on_c, 0, 55, 32
1, 29161, Note_on_c, 0, 59, 44
1, 29162, Note_on_c, 0, 62, 39
1, 29163, Note_on_c, 0, 52, 41
1, 29175, Control_c, 0, 64, 0
1, 29190, Note_off_c, 9, 59, 0
1, 29219, Note_off_c, 1, 50, 0
1, 29227, Note_on_c, 1, 47, 93
1, 29247, Control_c, 0, 64, 127
1, 29277, Note_off_c, 1, 47, 0
1, 29300, Note_on_c, 1, 54, 95
1, 29386, Note_on_c, 0, 55, 0
1, 29387, Note_on_c, 1, 54, 0
1, 29393, Note_on_c, 1, 50, 78
1, 29399, Note_on_c, 0, 59, 0
1, 29401, Note_on_c, 0, 62, 0
1, 29422, Note_on_c, 0, 52, 0
1, 29424, Note_on_c, 0, 66, 0
1, 29447, Note_on_c, 9, 59, 63
1, 29463, Note_on_c, 9, 59, 0
1, 29476, Note_on_c, 1, 47, 84
1, 29479, Note_on_c, 0, 79, 62
1, 29479, Note_on_c, 9, 59, 64
1, 29510, Note_on_c, 9, 59, 0
1, 29510, Note_on_c, 1, 50, 0
1, 29521, Note_on_c, 9, 59, 80
1, 29523, Note_on_c, 0, 79, 0
1, 29526, Note_on_c, 1, 47, 0
1, 29528, Note_on_c, 0, 71, 40
1, 29529, Note_on_c, 0, 76, 36
1, 29530, Note_on_c, 0, 64, 35
1, 29534, Note_on_c, 0, 60, 27
1, 29535, Note_on_c, 0, 59, 29
1, 29540, Control_c, 0, 64, 0
1, 29547, Note_on_c, 1, 47, 72
1, 29577, Note_on_c, 9, 59, 0
1, 29596, Note_on_c, 1, 47, 0
1, 29597, Control_c, 0, 64, 127
1, 29598, Note_on_c, 9, 59, 44
1, 29603, Note_on_c, 1, 54, 81
1, 29636, Note_on_c, 9, 59, 0
1, 29656, Note_on_c, 1, 54, 0
1, 29659, Note_on_c, 9, 59, 37
1, 29666, Note_on_c, 1, 50, 78
1, 29702, Note_on_c, 9, 59, 0
1, 29704, Pitch_bend_c, 1, 8192
1, 29706, Pitch_bend_c, 1, 8192
1, 29710, Pitch_bend_c, 1, 8192
1, 29713, Pitch_bend_c, 1, 8192
1, 29716, Pitch_bend_c, 1, 7680
1, 29719, Pitch_bend_c, 1, 7552
1, 29723, Pitch_bend_c, 1, 7424
1, 29727, Pitch_bend_c, 1, 7296
1, 29729, Pitch_bend_c, 1, 7168
1, 29732, Pitch_bend_c, 1, 7040
1, 29734, Pitch_bend_c, 1, 6912
1, 29737, Pitch_bend_c, 1, 6784
1, 29740, Pitch_bend_c, 1, 6656
1, 29743, Pitch_bend_c, 1, 6528
1, 29745, Pitch_bend_c, 1, 6272
1, 29748, Pitch_bend_c, 1, 6144
1, 29750, Pitch_bend_c, 1, 5888
1, 29753, Pitch_bend_c, 1, 5760
1, 29755, Pitch_bend_c, 1, 5504
1, 29759, Pitch_bend_c, 1, 5376
1, 29760, Pitch_bend_c, 1, 5120
1, 29762, Pitch_bend_c, 1, 4992
1, 29764, Pitch_bend_c, 1, 4864
1, 29767, Pitch_bend_c, 1, 4736
1, 29769, Note_off_c, 1, 50, 0
1, 29769, Pitch_bend_c, 1, 4608
1, 29772, Pitch_bend_c, 1, 4480
1, 29776, Pitch_bend_c, 1, 4352
1, 29782, Pitch_bend_c, 1, 4224
1, 29788, Note_off_c, 0, 71, 0
1, 29788, Pitch_bend_c, 1, 4096
1, 29792, Pitch_bend_c, 1, 3968
1, 29795, Pitch_bend_c, 1, 3840
1, 29796, Note_off_c, 0, 76, 0
1, 29798, Pitch_bend_c, 1, 3712
1, 29801, Pitch_bend_c, 1, 3584
1, 29805, Pitch_bend_c, 1, 3456
1, 29807, Pitch_bend_c, 1, 3328
1, 29810, Pitch_bend_c, 1, 3200
1, 29815, Pitch_bend_c, 1, 3072
1, 29818, Note_off_c, 0, 64, 0
1, 29828, Pitch_bend_c, 1, 3200
1, 29829, Pitch_bend_c, 1, 3328
1, 29830, Note_off_c, 0, 60, 0
1, 29830, Pitch_bend_c, 1, 3456
1, 29832, Pitch_bend_c, 1, 3584
1, 29833, Pitch_bend_c, 1, 3840
1, 29834, Pitch_bend_c, 1, 3968
1, 29835, Pitch_bend_c, 1, 4224
1, 29836, Note_off_c, 0, 59, 0
1, 29837, Pitch_bend_c, 1, 4352
1, 29838, Pitch_bend_c, 1, 4480
1, 29839, Pitch_bend_c, 1, 4608
1, 29841, Pitch_bend_c, 1, 4736
1, 29842, Pitch_bend_c, 1, 4864
1, 29843, Pitch_bend_c, 1, 4992
1, 29845, Pitch_bend_c, 1, 5120
1, 29846, Pitch_bend_c, 1, 5376
1, 29848, Pitch_bend_c, 1, 5632
1, 29850, Note_on_c, 0, 83, 71
1, 29850, Pitch_bend_c, 1, 5760
1, 29851, Pitch_bend_c, 1, 5888
1, 29852, Pitch_bend_c, 1, 6144
1, 29853, Pitch_bend_c, 1, 6272
1, 29855, Pitch_bend_c, 1, 6528
1, 29856, Pitch_bend_c, 1, 6656
1, 29857, Pitch_bend_c, 1, 6912
1, 29859, Pitch_bend_c, 1, 7040
1, 29860, Pitch_bend_c, 1, 7296
1, 29861, Pitch_bend_c, 1, 7424
1, 29862, Pitch_bend_c, 1, 7552
1, 29864, Pitch_bend_c, 1, 7680
1, 29865, Pitch_bend_c, 1, 8192
1, 29867, Pitch_bend_c, 1, 8192
1, 29869, Pitch_bend_c, 1, 8192
1, 29871, Pitch_bend_c, 1, 8192
1, 29895, Note_off_c, 0, 83, 0
1, 29900, Note_on_c, 0, 80, 30
1, 29902, Note_on_c, 0, 76, 35
1, 29903, Control_c, 0, 64, 0
1, 29903, Note_on_c, 0, 54, 33
1, 29903, Note_on_c, 0, 72, 29
1, 29904, Note_on_c, 0, 64, 30
1, 29904, Note_on_c, 0, 60, 32
1, 29911, Note_on_c, 9, 38, 5
1, 29967, Note_on_c, 9, 38, 0
1, 29991, Control_c, 0, 64, 127
1, 30009, Note_on_c, 9, 53, 57
1, 30010, Note_on_c, 9, 59, 68
1, 30048, Note_on_c, 9, 53, 0
1, 30063, Note_on_c, 9, 59, 0
1, 30072, Note_on_c, 1, 50, 99
1, 30089, Note_on_c, 9, 59, 49
1, 30092, Note_on_c, 9, 38, 51
1, 30106, Note_on_c, 1, 50, 0
1, 30120, Note_on_c, 1, 47, 87
1, 30122, Note_on_c, 9, 38, 0
1, 30127, Note_on_c, 9, 59, 0
1, 30137, Note_on_c, 9, 38, 22
1, 30145, Note_on_c, 1, 47, 0
1, 30149, Note_on_c, 0, 76, 0
1, 30153, Note_on_c, 0, 80, 0
1, 30156, Note_on_c, 1, 47, 81
1, 30162, Note_on_c, 9, 53, 48
1, 30163, Note_on_c, 9, 59, 63
1, 30164, Note_on_c, 0, 72, 0
1, 30177, Note_on_c, 0, 60, 0
1, 30180, Note_on_c, 1, 47, 0
1, 30185, Note_on_c, 0, 64, 0
1, 30186, Note_on_c, 1, 45, 72
1, 30195, Note_on_c, 9, 38, 0
1, 30195, Note_on_c, 9, 53, 0
1, 30203, Note_on_c, 1, 45, 0
1, 30205, Note_on_c, 9, 59, 0
1, 30221, Note_on_c, 1, 45, 60
1, 30238, Note_on_c, 9, 59, 48
1, 30243, Note_on_c, 1, 45, 0
1, 30264, Note_on_c, 1, 43, 60
1, 30278, Control_c, 0, 64, 0
1, 30285, Note_off_c, 0, 54, 0
1, 30299, Note_off_c, 9, 59, 0
1, 30364, Note_on_c, 9, 59, 41
1, 30406, Note_on_c, 9, 59, 0
1, 30435, Note_on_c, 0, 78, 44
1, 30438, Note_on_c, 0, 71, 38
1, 30440, Note_on_c, 0, 69, 32
1, 30442, Note_on_c, 0, 74, 22
1, 30442, Note_on_c, 0, 64, 37
1, 30445, Note_on_c, 0, 78, 0
1, 30446, Note_on_c, 0, 71, 0
1, 30447, Note_on_c, 0, 69, 0
1, 30448, Note_on_c, 0, 74, 0
1, 30449, Note_on_c, 0, 64, 0
1, 30518, Note_on_c, 1, 43, 0
1, 30532, Note_on_c, 1, 45, 72
1, 30547, Note_on_c, 1, 45, 0
1, 30554, Note_on_c, 9, 59, 45
1, 30574, Note_on_c, 1, 47, 70
1, 30576, Note_on_c, 9, 59, 0
1, 30594, Note_on_c, 1, 47, 0
1, 30597, Note_on_c, 9, 59, 44
1, 30624, Note_on_c, 9, 59, 0
1, 30634, Note_on_c, 1, 52, 96
1, 30668, Note_on_c, 1, 52, 0
1, 30671, Note_on_c, 1, 51, 48
1, 30702, Note_on_c, 1, 51, 0
1, 30710, Note_on_c, 1, 52, 80
1, 30715, Note_on_c, 1, 51, 39
1, 30721, Note_on_c, 1, 51, 0
1, 30792, Note_on_c, 9, 59, 51
1, 30815, Note_on_c, 9, 59, 0
1, 30821, Note_on_c, 1, 50, 54
1, 30830, Note_on_c, 1, 52, 0
1, 30838, Note_on_c, 9, 59, 56
1, 30844, Note_on_c, 1, 50, 0
1, 30852, Note_on_c, 9, 59, 0
1, 30861, Note_on_c, 1, 48, 23
1, 30871, Note_on_c, 1, 48, 0
1, 30884, Note_on_c, 1, 50, 76
1, 30944, Note_on_c, 1, 50, 0
1, 30946, Note_on_c, 1, 47, 58
1, 30972, Note_on_c, 0, 64, 30
1, 30974, Note_on_c, 0, 48, 32
1, 30975, Note_on_c, 0, 55, 24
1, 30976, Note_on_c, 1, 47, 0
1, 30976, Note_on_c, 0, 59, 27
1, 30995, Note_on_c, 1, 43, 43
1, 31041, Note_on_c, 1, 43, 0
1, 31057, Note_on_c, 1, 43, 65
1, 31107, Control_c, 0, 64, 127
1, 31166, Note_on_c, 9, 59, 42
1, 31177, Note_on_c, 0, 59, 0
1, 31187, Note_on_c, 9, 59, 0
1, 31195, Note_on_c, 0, 64, 0
1, 31206, Note_on_c, 0, 48, 0
1, 31207, Note_on_c, 0, 55, 0
1, 31209, Note_on_c, 9, 59, 43
1, 31222, Note_on_c, 9, 59, 0
1, 31236, Note_on_c, 9, 38, 22
1, 31262, Note_on_c, 9, 38, 0
1, 31279, Note_on_c, 0, 81, 62
1, 31287, Note_on_c, 9, 59, 76
1, 31303, Note_on_c, 9, 59, 0
1, 31306, Note_on_c, 1, 43, 0
1, 31321, Note_on_c, 0, 81, 0
1, 31321, Note_on_c, 0, 78, 27
1, 31325, Note_on_c, 0, 69, 39
1, 31326, Note_on_c, 0, 63, 30
1, 31327, Note_on_c, 0, 74, 40
1, 31327, Note_on_c, 9, 59, 46
1, 31329, Note_on_c, 0, 62, 32
1, 31332, Control_c, 0, 64, 0
1, 31348, Note_off_c, 9, 59, 0
1, 31397, Note_on_c, 9, 38, 46
1, 31406, Control_c, 0, 64, 127
1, 31415, Note_off_c, 9, 38, 0
1, 31447, Note_on_c, 9, 38, 34
1, 31486, Note_on_c, 9, 38, 0
1, 31555, Note_on_c, 0, 63, 0
1, 31555, Note_on_c, 0, 62, 0
1, 31566, Note_on_c, 1, 45, 127
1, 31576, Note_on_c, 0, 74, 0
1, 31577, Note_on_c, 0, 78, 0
1, 31583, Note_on_c, 0, 69, 0
1, 31612, Note_on_c, 1, 45, 0
1, 31636, Note_on_c, 9, 38, 50
1, 31640, Note_on_c, 1, 46, 92
1, 31643, Note_on_c, 9, 59, 63
1, 31654, Note_on_c, 9, 59, 0
1, 31666, Note_on_c, 9, 38, 0
1, 31677, Note_on_c, 0, 63, 32
1, 31680, Note_on_c, 0, 52, 34
1, 31681, Control_c, 0, 64, 0
1, 31681, Note_on_c, 0, 68, 37
1, 31681, Note_on_c, 0, 59, 31
1, 31683, Note_on_c, 1, 46, 0
1, 31684, Note_on_c, 0, 71, 26
1, 31686, Note_on_c, 9, 59, 60
1, 31692, Note_on_c, 9, 38, 29
1, 31697, Note_on_c, 1, 47, 52
1, 31715, Note_on_c, 9, 59, 0
1, 31723, Note_on_c, 9, 38, 0
1, 31821, Control_c, 0, 64, 127
1, 31853, Note_off_c, 1, 47, 0
1, 31875, Note_on_c, 1, 39, 50
1, 31882, Note_on_c, 9, 38, 42
1, 31899, Note_on_c, 9, 38, 0
1, 31909, Note_on_c, 1, 39, 0
1, 31913, Note_on_c, 0, 59, 0
1, 31922, Note_on_c, 1, 40, 45
1, 31928, Note_on_c, 9, 38, 28
1, 31930, Note_on_c, 0, 52, 0
1, 31945, Note_on_c, 0, 63, 0
1, 31955, Note_on_c, 1, 40, 0
1, 31962, Note_on_c, 1, 44, 52
1, 31977, Note_on_c, 9, 38, 0
1, 31987, Note_on_c, 1, 44, 0
1, 31997, Note_on_c, 1, 47, 81
1, 31997, Note_on_c, 9, 59, 52
1, 32013, Note_on_c, 9, 59, 0
1, 32026, Note_on_c, 0, 68, 0
1, 32032, Note_on_c, 9, 59, 44
1, 32035, Note_on_c, 0, 64, 43
1, 32037, Note_on_c, 0, 59, 34
1, 32038, Control_c, 0, 64, 0
1, 32045, Note_on_c, 0, 49, 29
1, 32057, Note_on_c, 0, 55, 5
1, 32058, Note_on_c, 9, 59, 0
1, 32069, Note_on_c, 9, 59, 50
1, 32076, Note_on_c, 9, 59, 0
1, 32102, Note_on_c, 1, 47, 0
1, 32107, Note_on_c, 9, 59, 83
1, 32108, Note_on_c, 1, 52, 93
1, 32168, Control_c, 0, 64, 127
1, 32169, Note_off_c, 9, 59, 0
1, 32175, Note_off_c, 1, 52, 0
1, 32185, Note_on_c, 1, 49, 87
1, 32238, Note_on_c, 0, 59, 0
1, 32251, Note_on_c, 0, 55, 0
1, 32252, Note_on_c, 1, 49, 0
1, 32256, Note_on_c, 0, 64, 0
1, 32266, Note_on_c, 0, 49, 0
1, 32266, Note_on_c, 1, 47, 64
1, 32296, Note_on_c, 0, 71, 0
1, 32338, Note_on_c, 1, 47, 0
1, 32350, Note_on_c, 1, 40, 33
1, 32351, Note_on_c, 9, 59, 57
1, 32369, Note_on_c, 9, 59, 0
1, 32392, Note_on_c, 9, 59, 45
1, 32398, Note_on_c, 0, 64, 56
1, 32398, Note_on_c, 0, 71, 51
1, 32399, Note_on_c, 0, 59, 45
1, 32399, Note_on_c, 0, 61, 34
1, 32400, Note_on_c, 1, 40, 0
1, 32400, Note_on_c, 0, 68, 45
1, 32400, Note_on_c, 1, 47, 70
1, 32406, Note_on_c, 0, 57, 41
1, 32407, Control_c, 0, 64, 0
1, 32424, Note_off_c, 9, 59, 0
1, 32475, Note_off_c, 1, 47, 0
1, 32479, Note_on_c, 1, 40, 51
1, 32520, Note_on_c, 1, 40, 0
1, 32533, Note_on_c, 1, 39, 33
1, 32535, Control_c, 0, 64, 127
1, 32597, Note_off_c, 1, 39, 0
1, 32599, Note_on_c, 9, 59, 46
1, 32604, Note_on_c, 1, 40, 54
1, 32608, Note_on_c, 9, 59, 0
1, 32635, Note_on_c, 0, 57, 0
1, 32635, Note_on_c, 0, 59, 0
1, 32637, Note_on_c, 0, 61, 0
1, 32681, Note_on_c, 0, 71, 0
1, 32691, Note_on_c, 0, 64, 0
1, 32721, Note_on_c, 0, 68, 0
1, 32743, Note_on_c, 1, 40, 0
1, 32754, Note_on_c, 0, 74, 59
1, 32760, Note_on_c, 0, 71, 60
1, 32762, Control_c, 0, 64, 0
1, 32764, Note_on_c, 0, 51, 39
1, 32765, Note_on_c, 0, 67, 62
1, 32770, Note_on_c, 0, 57, 45
1, 32774, Note_on_c, 0, 62, 25
1, 32879, Note_on_c, 9, 37, 75
1, 32889, Note_on_c, 9, 59, 63
1, 32898, Note_on_c, 9, 59, 0
1, 32908, Control_c, 0, 64, 127
1, 32921, Note_on_c, 9, 59, 58
1, 32928, Note_on_c, 9, 59, 0
1, 32935, Note_on_c, 0, 62, 0
1, 32950, Note_on_c, 9, 37, 0
1, 32955, Note_on_c, 1, 47, 119
1, 32957, Note_on_c, 0, 67, 0
1, 32979, Note_on_c, 0, 74, 0
1, 32981, Note_on_c, 0, 71, 0
1, 32995, Note_on_c, 9, 37, 77
1, 33002, Note_on_c, 9, 59, 61
1, 33007, Note_on_c, 1, 47, 0
1, 33010, Note_on_c, 0, 51, 0
1, 33012, Note_on_c, 0, 57, 0
1, 33013, Note_on_c, 1, 47, 77
1, 33016, Note_on_c, 9, 59, 0
1, 33030, Note_on_c, 9, 59, 64
1, 33046, Note_on_c, 9, 59, 0
1, 33049, Note_on_c, 9, 37, 0
1, 33070, Note_on_c, 0, 81, 72
1, 33081, Note_on_c, 9, 38, 51
1, 33084, Note_on_c, 1, 47, 0
1, 33089, Note_on_c, 1, 45, 78
1, 33092, Note_on_c, 0, 81, 0
1, 33094, Note_on_c, 9, 38, 0
1, 33124, Note_on_c, 9, 59, 60
1, 33125, Note_on_c, 0, 79, 53
1, 33127, Note_on_c, 9, 38, 37
1, 33128, Note_on_c, 0, 52, 32
1, 33129, Control_c, 0, 64, 0
1, 33135, Note_off_c, 9, 59, 0
1, 33139, Note_off_c, 1, 45, 0
1, 33156, Note_on_c, 1, 43, 58
1, 33170, Control_c, 0, 64, 127
1, 33187, Note_off_c, 9, 38, 0
1, 33197, Note_off_c, 1, 43, 0
1, 33208, Note_on_c, 1, 43, 75
1, 33210, Note_on_c, 9, 38, 67
1, 33244, Note_on_c, 0, 67, 28
1, 33245, Note_on_c, 0, 71, 24
1, 33247, Note_on_c, 1, 43, 0
1, 33249, Note_on_c, 0, 62, 24
1, 33251, Control_c, 0, 64, 0
1, 33255, Note_on_c, 1, 45, 83
1, 33263, Note_on_c, 9, 38, 0
1, 33280, Note_on_c, 1, 45, 0
1, 33291, Note_on_c, 1, 45, 75
1, 33296, Control_c, 0, 64, 127
1, 33303, Note_on_c, 0, 59, 1
1, 33317, Note_on_c, 1, 45, 0
1, 33333, Note_on_c, 1, 47, 88
1, 33361, Note_on_c, 1, 47, 0
1, 33373, Note_on_c, 1, 47, 76
1, 33379, Note_on_c, 0, 67, 0
1, 33388, Note_on_c, 0, 59, 0
1, 33388, Note_on_c, 1, 47, 0
1, 33390, Note_on_c, 0, 71, 0
1, 33391, Note_on_c, 0, 52, 0
1, 33398, Note_on_c, 0, 62, 0
1, 33418, Note_on_c, 0, 79, 0
1, 33418, Note_on_c, 1, 57, 96
1, 33440, Note_on_c, 9, 53, 42
1, 33441, Note_on_c, 9, 59, 44
1, 33452, Note_on_c, 1, 57, 0
1, 33461, Control_c, 0, 64, 0
1, 33462, Note_off_c, 9, 59, 0
1, 33462, Note_off_c, 9, 53, 0
1, 33463, Note_on_c, 1, 57, 83
1, 33490, Note_on_c, 1, 57, 0
1, 33490, Note_on_c, 9, 59, 30
1, 33490, Note_on_c, 9, 53, 25
1, 33514, Note_on_c, 1, 57, 76
1, 33520, Note_on_c, 9, 53, 0
1, 33524, Note_on_c, 9, 59, 0
1, 33557, Note_on_c, 1, 57, 0
1, 33602, Note_on_c, 9, 59, 37
1, 33605, Note_on_c, 9, 53, 24
1, 33613, Note_on_c, 0, 61, 46
1, 33614, Note_on_c, 0, 81, 49
1, 33614, Note_on_c, 0, 93, 57
1, 33615, Note_on_c, 0, 89, 42
1, 33615, Note_on_c, 0, 55, 49
1, 33616, Note_on_c, 0, 66, 37
1, 33624, Note_on_c, 0, 89, 0
1, 33624, Note_on_c, 0, 93, 0
1, 33626, Note_on_c, 0, 66, 0
1, 33627, Note_on_c, 0, 55, 0
1, 33628, Note_on_c, 0, 81, 0
1, 33633, Note_on_c, 0, 61, 0
1, 33633, Note_on_c, 9, 38, 53
1, 33644, Note_on_c, 9, 53, 0
1, 33649, Note_on_c, 9, 59, 0
1, 33655, Note_on_c, 9, 38, 0
1, 33657, Note_on_c, 1, 55, 100
1, 33674, Pitch_bend_c, 1, 8192
1, 33676, Pitch_bend_c, 1, 8192
1, 33679, Pitch_bend_c, 1, 8192
1, 33683, Pitch_bend_c, 1, 7680
1, 33685, Note_on_c, 9, 38, 30
1, 33686, Pitch_bend_c, 1, 7552
1, 33689, Pitch_bend_c, 1, 7424
1, 33692, Pitch_bend_c, 1, 7296
1, 33694, Pitch_bend_c, 1, 7168
1, 33695, Pitch_bend_c, 1, 7040
1, 33698, Note_off_c, 9, 38, 0
1, 33699, Pitch_bend_c, 1, 6912
1, 33701, Pitch_bend_c, 1, 6784
1, 33704, Pitch_bend_c, 1, 6656
1, 33707, Pitch_bend_c, 1, 6528
1, 33710, Pitch_bend_c, 1, 6400
1, 33714, Pitch_bend_c, 1, 6272
1, 33719, Note_off_c, 1, 55, 0
1, 33721, Note_on_c, 9, 59, 44
1, 33722, Note_on_c, 9, 53, 31
1, 33729, Pitch_bend_c, 1, 6400
1, 33731, Control_c, 0, 64, 127
1, 33731, Pitch_bend_c, 1, 6528
1, 33733, Pitch_bend_c, 1, 6656
1, 33735, Pitch_bend_c, 1, 6784
1, 33738, Pitch_bend_c, 1, 7040
1, 33739, Pitch_bend_c, 1, 7168
1, 33740, Pitch_bend_c, 1, 7296
1, 33742, Pitch_bend_c, 1, 7424
1, 33743, Pitch_bend_c, 1, 7680
1, 33744, Pitch_bend_c, 1, 8192
1, 33745, Pitch_bend_c, 1, 8192
1, 33747, Note_off_c, 9, 53, 0
1, 33747, Pitch_bend_c, 1, 8192
1, 33749, Pitch_bend_c, 1, 8192
1, 33760, Note_off_c, 9, 59, 0
1, 33777, Control_c, 0, 64, 0
1, 33786, Note_on_c, 0, 61, 47
1, 33788, Note_on_c, 0, 55, 56
1, 33788, Note_on_c, 0, 91, 69
1, 33789, Note_on_c, 0, 79, 58
1, 33789, Note_on_c, 0, 66, 48
1, 33791, Note_on_c, 0, 88, 51
1, 33793, Control_c, 0, 64, 127
1, 33810, Note_off_c, 0, 88, 0
1, 33810, Note_off_c, 0, 91, 0
1, 33811, Note_on_c, 1, 45, 64
1, 33817, Note_on_c, 0, 66, 0
1, 33818, Note_on_c, 0, 79, 0
1, 33821, Note_on_c, 0, 55, 0
1, 33835, Note_on_c, 0, 61, 0
1, 33840, Control_c, 0, 64, 0
1, 33850, Note_on_c, 0, 55, 26
1, 33850, Note_on_c, 0, 76, 42
1, 33851, Note_on_c, 0, 64, 49
1, 33853, Note_on_c, 0, 88, 37
1, 33853, Note_on_c, 0, 84, 40
1, 33854, Note_on_c, 0, 57, 47
1, 33854, Note_on_c, 0, 60, 46
1, 33860, Note_on_c, 1, 45, 0
1, 33876, Note_on_c, 1, 45, 55
1, 33877, Note_on_c, 0, 84, 0
1, 33879, Note_on_c, 0, 88, 0
1, 33882, Note_on_c, 0, 55, 0
1, 33883, Note_on_c, 0, 60, 0
1, 33883, Note_on_c, 0, 64, 0
1, 33885, Note_on_c, 0, 76, 0
1, 33887, Note_on_c, 0, 57, 0
1, 33925, Note_on_c, 0, 84, 24
1, 33926, Note_on_c, 0, 72, 27
1, 33926, Note_on_c, 1, 44, 46
1, 33927, Note_on_c, 1, 45, 0
1, 33927, Note_on_c, 0, 57, 36
1, 33929, Note_on_c, 0, 60, 32
1, 33929, Note_on_c, 0, 80, 20
1, 33929, Note_on_c, 0, 64, 27
1, 33934, Note_on_c, 0, 72, 0
1, 33937, Note_on_c, 0, 80, 0
1, 33937, Note_on_c, 0, 84, 0
1, 33937, Note_on_c, 0, 64, 0
1, 33942, Note_on_c, 0, 60, 0
1, 33948, Note_on_c, 0, 57, 0
1, 33953, Note_on_c, 1, 44, 0
1, 33961, Note_on_c, 9, 53, 34
1, 33963, Note_on_c, 9, 59, 32
1, 33966, Note_on_c, 1, 45, 44
1, 34005, Note_on_c, 9, 53, 0
1, 34020, Note_on_c, 9, 59, 0
1, 34046, Note_on_c, 9, 38, 37
1, 34062, Note_on_c, 9, 38, 0
1, 34082, Note_on_c, 9, 59, 45
1, 34082, Note_on_c, 9, 53, 47
1, 34092, Note_on_c, 9, 38, 36
1, 34102, Note_on_c, 9, 53, 0
1, 34107, Note_on_c, 1, 45, 0
1, 34112, Note_on_c, 9, 59, 0
1, 34119, Note_on_c, 9, 38, 0
1, 34126, Note_on_c, 1, 43, 21
1, 34138, Note_on_c, 1, 43, 0
1, 34158, Note_on_c, 1, 45, 51
1, 34164, Note_on_c, 0, 70, 32
1, 34165, Note_on_c, 0, 60, 27
1, 34166, Note_on_c, 0, 65, 40
1, 34166, Note_on_c, 0, 54, 38
1, 34167, Note_on_c, 0, 62, 30
1, 34187, Note_on_c, 0, 65, 0
1, 34189, Note_on_c, 1, 45, 0
1, 34190, Note_on_c, 0, 62, 0
1, 34193, Note_on_c, 0, 60, 0
1, 34195, Note_on_c, 0, 54, 0
1, 34196, Note_on_c, 1, 46, 81
1, 34199, Note_on_c, 0, 70, 0
1, 34222, Note_on_c, 0, 70, 32
1, 34225, Note_on_c, 0, 54, 35
1, 34226, Note_on_c, 0, 60, 24
1, 34228, Note_on_c, 0, 62, 26
1, 34230, Note_on_c, 0, 65, 31
1, 34239, Note_on_c, 0, 65, 0
1, 34243, Note_on_c, 0, 62, 0
1, 34245, Note_on_c, 0, 60, 0
1, 34248, Note_on_c, 0, 54, 0
1, 34251, Note_on_c, 0, 70, 0
1, 34269, Note_on_c, 9, 38, 58
1, 34284, Note_on_c, 9, 38, 0
1, 34297, Note_on_c, 0, 70, 31
1, 34301, Note_on_c, 0, 62, 29
1, 34301, Note_on_c, 0, 60, 27
1, 34302, Note_on_c, 0, 54, 26
1, 34303, Note_on_c, 0, 65, 44
1, 34316, Note_on_c, 9, 38, 42
1, 34317, Note_on_c, 1, 46, 0
1, 34317, Note_on_c, 9, 59, 42
1, 34318, Note_on_c, 9, 53, 35
1, 34320, Note_on_c, 9, 44, 45
1, 34324, Note_on_c, 1, 45, 34
1, 34351, Note_on_c, 9, 53, 0
1, 34357, Note_on_c, 1, 45, 0
1, 34357, Note_on_c, 9, 59, 0
1, 34360, Note_on_c, 1, 46, 64
1, 34361, Note_on_c, 9, 38, 0
1, 34365, Note_on_c, 9, 44, 0
1, 34367, Control_c, 0, 64, 127
1, 34390, Note_off_c, 1, 46, 0
1, 34397, Note_on_c, 1, 47, 71
1, 34435, Note_on_c, 1, 47, 0
1, 34442, Note_on_c, 1, 50, 53
1, 34442, Note_on_c, 9, 59, 42
1, 34443, Note_on_c, 9, 53, 26
1, 34444, Note_on_c, 9, 44, 33
1, 34456, Note_on_c, 9, 53, 0
1, 34465, Note_on_c, 9, 59, 0
1, 34465, Note_on_c, 0, 62, 0
1, 34466, Note_on_c, 0, 60, 0
1, 34466, Note_on_c, 9, 44, 0
1, 34466, Note_on_c, 1, 50, 0
1, 34475, Note_on_c, 0, 54, 0
1, 34477, Note_on_c, 0, 65, 0
1, 34477, Note_on_c, 1, 54, 81
1, 34491, Note_on_c, 0, 70, 0
1, 34505, Note_on_c, 1, 54, 0
1, 34515, Note_on_c, 1, 57, 98
1, 34519, Note_on_c, 9, 38, 38
1, 34535, Note_on_c, 9, 38, 0
1, 34546, Note_on_c, 1, 57, 0
1, 34557, Note_on_c, 1, 54, 75
1, 34559, Note_on_c, 0, 66, 46
1, 34559, Note_on_c, 0, 74, 48
1, 34560, Note_on_c, 0, 59, 38
1, 34562, Note_on_c, 0, 69, 47
1, 34562, Note_on_c, 0, 54, 37
1, 34563, Note_on_c, 0, 62, 34
1, 34564, Control_c, 0, 64, 0
1, 34566, Note_on_c, 0, 71, 38
1, 34569, Note_on_c, 9, 38, 46
1, 34592, Note_on_c, 1, 50, 61
1, 34595, Note_on_c, 1, 54, 0
1, 34605, Note_on_c, 9, 38, 0
1, 34613, Note_on_c, 1, 50, 0
1, 34627, Note_on_c, 1, 47, 49
1, 34649, Note_on_c, 1, 47, 0
1, 34662, Note_on_c, 1, 42, 50
1, 34678, Note_on_c, 9, 44, 50
1, 34684, Note_on_c, 1, 42, 0
1, 34699, Control_c, 0, 64, 127
1, 34706, Note_on_c, 1, 38, 57
1, 34716, Note_on_c, 9, 44, 0
1, 34766, Note_on_c, 1, 38, 0
1, 34799, Note_on_c, 0, 66, 0
1, 34800, Note_on_c, 0, 69, 0
1, 34801, Note_on_c, 9, 44, 54
1, 34806, Note_on_c, 0, 71, 0
1, 34809, Note_on_c, 0, 59, 0
1, 34811, Note_on_c, 0, 74, 0
1, 34817, Note_on_c, 0, 62, 0
1, 34822, Note_on_c, 0, 54, 0
1, 34829, Note_on_c, 9, 44, 0
1, 34877, Note_on_c, 1, 39, 73
1, 34880, Note_on_c, 9, 59, 53
1, 34906, Note_on_c, 1, 39, 0
1, 34908, Note_on_c, 9, 59, 0
1, 34913, Note_on_c, 1, 40, 56
1, 34921, Control_c, 0, 64, 0
1, 34921, Note_on_c, 0, 81, 62
1, 34923, Note_on_c, 0, 78, 53
1, 34925, Note_on_c, 9, 59, 60
1, 34926, Note_on_c, 0, 74, 65
1, 34928, Note_on_c, 0, 66, 49
1, 34933, Note_on_c, 0, 71, 32
1, 34941, Note_on_c, 1, 40, 0
1, 34944, Note_on_c, 1, 42, 66
1, 34948, Note_on_c, 9, 59, 0
1, 34963, Control_c, 0, 64, 127
1, 34966, Note_off_c, 1, 42, 0
1, 34974, Note_on_c, 1, 43, 52
1, 34992, Note_on_c, 9, 38, 41
1, 34997, Note_on_c, 9, 44, 38
1, 35007, Note_on_c, 1, 45, 78
1, 35013, Note_on_c, 1, 43, 0
1, 35013, Note_on_c, 0, 71, 0
1, 35014, Note_on_c, 0, 81, 0
1, 35014, Note_on_c, 0, 74, 0
1, 35016, Note_on_c, 9, 44, 0
1, 35024, Note_on_c, 0, 78, 0
1, 35024, Note_on_c, 9, 38, 0
1, 35031, Note_on_c, 1, 45, 0
1, 35035, Note_on_c, 0, 66, 0
1, 35038, Note_on_c, 9, 44, 30
1, 35039, Note_on_c, 0, 79, 45
1, 35040, Note_on_c, 0, 71, 30
1, 35040, Note_on_c, 0, 74, 31
1, 35040, Note_on_c, 1, 46, 55
1, 35047, Control_c, 0, 64, 0
1, 35048, Note_on_c, 0, 64, 30
1, 35055, Note_on_c, 1, 46, 0
1, 35068, Note_on_c, 1, 47, 57
1, 35069, Note_on_c, 9, 44, 0
1, 35091, Note_on_c, 1, 47, 0
1, 35096, Note_on_c, 1, 50, 55
1, 35103, Control_c, 0, 64, 127
1, 35117, Note_off_c, 1, 50, 0
1, 35148, Note_off_c, 0, 64, 0
1, 35153, Note_off_c, 0, 79, 0
1, 35159, Note_off_c, 0, 74, 0
1, 35161, Note_off_c, 0, 71, 0
1, 35176, Control_c, 0, 64, 0
1, 35240, Note_on_c, 9, 59, 36
1, 35254, Note_on_c, 9, 59, 0
1, 35278, Note_on_c, 9, 59, 73
1, 35329, Note_on_c, 9, 59, 0
1, 35336, Note_on_c, 1, 55, 76
1, 35351, Note_on_c, 1, 55, 0
1, 35370, Note_on_c, 1, 59, 96
1, 35400, Note_on_c, 1, 59, 0
1, 35415, Note_on_c, 1, 62, 103
1, 35443, Note_on_c, 9, 59, 44
1, 35445, Note_on_c, 1, 62, 0
1, 35452, Note_on_c, 1, 61, 82
1, 35455, Note_on_c, 9, 59, 0
1, 35475, Note_on_c, 1, 61, 0
1, 35482, Note_on_c, 9, 59, 53
1, 35486, Note_on_c, 1, 60, 83
1, 35500, Note_on_c, 9, 59, 0
1, 35520, Note_on_c, 9, 59, 77
1, 35522, Note_on_c, 1, 60, 0
1, 35524, Note_on_c, 1, 56, 41
1, 35559, Note_on_c, 9, 59, 0
1, 35560, Note_on_c, 1, 59, 81
1, 35565, Note_on_c, 1, 56, 0
1, 35599, Note_on_c, 0, 60, 48
1, 35599, Note_on_c, 0, 64, 53
1, 35600, Note_on_c, 1, 58, 78
1, 35602, Note_on_c, 0, 59, 40
1, 35602, Note_on_c, 0, 67, 34
1, 35606, Note_on_c, 0, 60, 0
1, 35607, Note_on_c, 0, 64, 0
1, 35608, Note_on_c, 1, 59, 0
1, 35609, Note_on_c, 0, 59, 0
1, 35609, Note_on_c, 0, 67, 0
1, 35642, Note_on_c, 1, 58, 0
1, 35644, Note_on_c, 1, 57, 78
1, 35688, Note_on_c, 1, 57, 0
1, 35715, Note_on_c, 1, 52, 58
1, 35720, Note_on_c, 0, 64, 57
1, 35720, Note_on_c, 0, 60, 47
1, 35721, Note_on_c, 0, 68, 36
1, 35723, Note_on_c, 0, 71, 29
1, 35725, Note_on_c, 0, 54, 33
1, 35727, Note_on_c, 0, 60, 0
1, 35728, Note_on_c, 0, 64, 0
1, 35729, Note_on_c, 0, 68, 0
1, 35730, Note_on_c, 1, 52, 0
1, 35731, Note_on_c, 0, 71, 0
1, 35735, Note_on_c, 0, 54, 0
1, 35759, Note_on_c, 1, 55, 103
1, 35759, Note_on_c, 9, 37, 40
1, 35786, Note_on_c, 1, 55, 0
1, 35792, Note_on_c, 1, 57, 70
1, 35808, Note_on_c, 1, 55, 54
1, 35810, Note_on_c, 1, 57, 0
1, 35822, Note_on_c, 9, 37, 0
1, 35832, Note_on_c, 0, 68, 43
1, 35832, Note_on_c, 9, 59, 49
1, 35834, Note_on_c, 0, 64, 53
1, 35834, Note_on_c, 0, 60, 39
1, 35835, Note_on_c, 0, 54, 44
1, 35836, Note_on_c, 1, 55, 0
1, 35839, Note_on_c, 1, 52, 51
1, 35841, Note_on_c, 0, 60, 0
1, 35841, Note_on_c, 0, 64, 0
1, 35841, Note_on_c, 9, 59, 0
1, 35849, Note_on_c, 0, 68, 0
1, 35852, Note_on_c, 0, 54, 0
1, 35858, Note_on_c, 1, 52, 0
1, 35873, Note_on_c, 9, 59, 51
1, 35877, Note_on_c, 9, 37, 50
1, 35878, Note_on_c, 1, 54, 87
1, 35896, Note_on_c, 9, 59, 0
1, 35911, Note_on_c, 9, 59, 57
1, 35913, Note_on_c, 1, 55, 85
1, 35915, Note_on_c, 1, 54, 0
1, 35922, Note_on_c, 9, 59, 0
1, 35937, Note_on_c, 9, 37, 0
1, 35944, Note_on_c, 1, 55, 0
1, 35950, Note_on_c, 0, 44, 42
1, 35951, Note_on_c, 0, 60, 40
1, 35952, Note_on_c, 0, 59, 35
1, 35953, Note_on_c, 1, 57, 89
1, 35954, Note_on_c, 9, 59, 85
1, 35956, Note_on_c, 0, 54, 17
1, 35969, Note_on_c, 0, 59, 0
1, 35973, Note_on_c, 0, 60, 0
1, 35975, Note_on_c, 0, 54, 0
1, 35987, Note_on_c, 0, 44, 0
1, 35988, Note_on_c, 1, 57, 0
1, 35997, Note_on_c, 1, 55, 68
1, 35998, Note_on_c, 9, 59, 0
1, 35998, Note_on_c, 0, 59, 39
1, 35998, Note_on_c, 0, 55, 27
1, 36002, Note_on_c, 0, 53, 28
1, 36003, Note_on_c, 0, 50, 31
1, 36004, Note_on_c, 0, 43, 32
1, 36064, Note_on_c, 1, 55, 0
1, 36085, Note_on_c, 1, 50, 14
1, 36086, Note_on_c, 1, 48, 15
1, 36104, Note_on_c, 1, 48, 0
1, 36105, Note_on_c, 1, 50, 0
1, 36117, Note_on_c, 9, 37, 55
1, 36123, Note_on_c, 1, 48, 45
1, 36187, Note_on_c, 1, 48, 0
1, 36198, Note_on_c, 9, 37, 0
1, 36199, Note_on_c, 1, 47, 47
1, 36242, Note_on_c, 9, 37, 55
1, 36270, Note_on_c, 0, 50, 0
1, 36284, Note_on_c, 9, 59, 34
1, 36286, Note_on_c, 0, 59, 0
1, 36289, Control_c, 0, 64, 127
1, 36292, Note_off_c, 9, 59, 0
1, 36300, Note_off_c, 9, 37, 0
1, 36302, Note_off_c, 0, 55, 0
1, 36302, Note_off_c, 0, 53, 0
1, 36322, Note_on_c, 9, 59, 25
1, 36334, Note_on_c, 0, 50, 24
1, 36343, Note_on_c, 1, 47, 0
1, 36343, Control_c, 0, 64, 0
1, 36347, Note_off_c, 9, 59, 0
1, 36351, Note_off_c, 0, 50, 0
1, 36361, Note_on_c, 9, 59, 68
1, 36363, Note_on_c, 0, 64, 55
1, 36365, Note_on_c, 0, 56, 40
1, 36365, Note_on_c, 0, 53, 47
1, 36367, Note_on_c, 0, 59, 37
1, 36371, Note_on_c, 0, 52, 54
1, 36374, Note_on_c, 0, 43, 0
1, 36377, Note_on_c, 0, 64, 0
1, 36378, Note_on_c, 0, 56, 0
1, 36379, Note_on_c, 0, 53, 0
1, 36380, Note_on_c, 0, 59, 0
1, 36402, Note_on_c, 9, 59, 0
1, 36403, Note_on_c, 0, 52, 0
1, 36403, Note_on_c, 0, 51, 50
1, 36438, Note_on_c, 0, 51, 0
1, 36439, Note_on_c, 0, 62, 38
1, 36440, Note_on_c, 1, 59, 107
1, 36443, Note_on_c, 0, 56, 29
1, 36443, Note_on_c, 0, 53, 28
1, 36444, Note_on_c, 0, 59, 40
1, 36449, Note_on_c, 9, 59, 28
1, 36450, Note_on_c, 0, 50, 20
1, 36457, Note_on_c, 9, 59, 0
1, 36487, Note_on_c, 9, 59, 55
1, 36492, Note_on_c, 1, 59, 0
1, 36497, Note_on_c, 9, 59, 0
1, 36503, Note_on_c, 1, 57, 93
1, 36522, Note_on_c, 9, 59, 44
1, 36530, Note_on_c, 9, 59, 0
1, 36553, Note_on_c, 1, 57, 0
1, 36560, Note_on_c, 9, 38, 48
1, 36562, Note_on_c, 1, 57, 94
1, 36563, Note_on_c, 9, 59, 83
1, 36575, Note_on_c, 9, 38, 0
1, 36607, Note_on_c, 1, 57, 0
1, 36609, Note_on_c, 9, 38, 38
1, 36614, Control_c, 0, 64, 127
1, 36620, Note_off_c, 9, 59, 0
1, 36621, Note_on_c, 1, 55, 82
1, 36649, Note_on_c, 9, 59, 27
1, 36654, Note_on_c, 9, 38, 0
1, 36657, Note_on_c, 9, 59, 0
1, 36658, Note_on_c, 0, 53, 0
1, 36662, Note_on_c, 1, 55, 0
1, 36680, Note_on_c, 0, 56, 0
1, 36680, Note_on_c, 1, 55, 77
1, 36681, Note_on_c, 9, 59, 52
1, 36686, Note_on_c, 9, 38, 51
1, 36691, Note_on_c, 9, 59, 0
1, 36696, Note_on_c, 0, 59, 0
1, 36711, Note_on_c, 9, 38, 0
1, 36715, Note_on_c, 0, 62, 0
1, 36715, Note_on_c, 1, 55, 0
1, 36721, Note_on_c, 9, 59, 91
1, 36733, Note_on_c, 0, 50, 0
1, 36735, Control_c, 0, 64, 0
1, 36736, Note_on_c, 1, 52, 74
1, 36737, Note_on_c, 0, 59, 39
1, 36737, Note_on_c, 0, 64, 44
1, 36738, Note_on_c, 0, 55, 36
1, 36743, Note_on_c, 0, 48, 22
1, 36775, Note_on_c, 9, 59, 0
1, 36775, Pitch_bend_c, 1, 8192
1, 36778, Pitch_bend_c, 1, 8192
1, 36782, Pitch_bend_c, 1, 8192
1, 36784, Pitch_bend_c, 1, 8192
1, 36788, Pitch_bend_c, 1, 7680
1, 36791, Pitch_bend_c, 1, 7552
1, 36794, Pitch_bend_c, 1, 7424
1, 36796, Pitch_bend_c, 1, 7296
1, 36799, Pitch_bend_c, 1, 7168
1, 36802, Pitch_bend_c, 1, 6912
1, 36805, Pitch_bend_c, 1, 6784
1, 36807, Pitch_bend_c, 1, 6656
1, 36809, Note_on_c, 9, 38, 64
1, 36810, Pitch_bend_c, 1, 6528
1, 36811, Pitch_bend_c, 1, 6400
1, 36814, Pitch_bend_c, 1, 6272
1, 36816, Pitch_bend_c, 1, 6144
1, 36820, Pitch_bend_c, 1, 6016
1, 36823, Pitch_bend_c, 1, 5888
1, 36826, Pitch_bend_c, 1, 5760
1, 36829, Pitch_bend_c, 1, 5632
1, 36830, Note_off_c, 9, 38, 0
1, 36833, Pitch_bend_c, 1, 5504
1, 36836, Pitch_bend_c, 1, 5376
1, 36838, Pitch_bend_c, 1, 5120
1, 36841, Pitch_bend_c, 1, 4864
1, 36844, Pitch_bend_c, 1, 4736
1, 36847, Pitch_bend_c, 1, 4608
1, 36847, Note_on_c, 9, 59, 47
1, 36851, Pitch_bend_c, 1, 4480
1, 36853, Note_off_c, 1, 52, 0
1, 36854, Pitch_bend_c, 1, 4352
1, 36855, Pitch_bend_c, 1, 4224
1, 36858, Pitch_bend_c, 1, 4096
1, 36860, Note_off_c, 9, 59, 0
1, 36861, Pitch_bend_c, 1, 3968
1, 36863, Pitch_bend_c, 1, 3840
1, 36863, Note_on_c, 9, 38, 37
1, 36866, Pitch_bend_c, 1, 3712
1, 36869, Pitch_bend_c, 1, 3584
1, 36872, Pitch_bend_c, 1, 3456
1, 36876, Pitch_bend_c, 1, 3328
1, 36878, Pitch_bend_c, 1, 3200
1, 36881, Pitch_bend_c, 1, 3072
1, 36884, Pitch_bend_c, 1, 2944
1, 36887, Pitch_bend_c, 1, 2816
1, 36888, Pitch_bend_c, 1, 2688
1, 36892, Control_c, 0, 64, 127
1, 36892, Pitch_bend_c, 1, 2560
1, 36895, Pitch_bend_c, 1, 2432
1, 36897, Pitch_bend_c, 1, 2304
1, 36898, Pitch_bend_c, 1, 2176
1, 36902, Pitch_bend_c, 1, 2048
1, 36904, Note_off_c, 9, 38, 0
1, 36905, Pitch_bend_c, 1, 1920
1, 36909, Pitch_bend_c, 1, 1792
1, 36911, Note_on_c, 9, 59, 81
1, 36916, Pitch_bend_c, 1, 1664
1, 36921, Pitch_bend_c, 1, 1536
1, 36929, Pitch_bend_c, 1, 1664
1, 36931, Note_on_c, 9, 38, 61
1, 36932, Pitch_bend_c, 1, 1792
1, 36933, Pitch_bend_c, 1, 1920
1, 36935, Pitch_bend_c, 1, 2176
1, 36936, Pitch_bend_c, 1, 2432
1, 36937, Pitch_bend_c, 1, 2560
1, 36938, Pitch_bend_c, 1, 2816
1, 36940, Pitch_bend_c, 1, 3072
1, 36941, Pitch_bend_c, 1, 3328
1, 36942, Pitch_bend_c, 1, 3456
1, 36944, Pitch_bend_c, 1, 3712
1, 36945, Pitch_bend_c, 1, 3840
1, 36946, Pitch_bend_c, 1, 3968
1, 36947, Note_off_c, 0, 55, 0
1, 36948, Note_off_c, 9, 59, 0
1, 36948, Pitch_bend_c, 1, 4096
1, 36949, Pitch_bend_c, 1, 4224
1, 36950, Pitch_bend_c, 1, 4352
1, 36951, Pitch_bend_c, 1, 4480
1, 36952, Note_off_c, 9, 38, 0
1, 36953, Pitch_bend_c, 1, 4736
1, 36954, Pitch_bend_c, 1, 4864
1, 36955, Pitch_bend_c, 1, 5120
1, 36957, Pitch_bend_c, 1, 5504
1, 36958, Pitch_bend_c, 1, 5760
1, 36959, Pitch_bend_c, 1, 6144
1, 36960, Pitch_bend_c, 1, 6528
1, 36962, Pitch_bend_c, 1, 6912
1, 36963, Pitch_bend_c, 1, 7168
1, 36964, Pitch_bend_c, 1, 7424
1, 36965, Note_off_c, 0, 48, 0
1, 36966, Pitch_bend_c, 1, 7680
1, 36967, Pitch_bend_c, 1, 8192
1, 36968, Pitch_bend_c, 1, 8192
1, 36969, Pitch_bend_c, 1, 8192
1, 36970, Pitch_bend_c, 1, 8192
1, 36979, Note_off_c, 0, 59, 0
1, 36990, Note_off_c, 0, 64, 0
1, 37030, Note_on_c, 9, 53, 37
1, 37037, Note_on_c, 9, 53, 0
1, 37047, Note_on_c, 0, 74, 80
1, 37047, Note_on_c, 9, 38, 66
1, 37070, Note_on_c, 9, 38, 0
1, 37074, Note_on_c, 1, 54, 95
1, 37076, Note_on_c, 9, 53, 71
1, 37079, Note_on_c, 0, 74, 0
1, 37079, Note_on_c, 9, 59, 72
1, 37096, Control_c, 0, 64, 0
1, 37097, Note_on_c, 0, 51, 32
1, 37098, Note_on_c, 0, 63, 45
1, 37098, Note_on_c, 9, 38, 45
1, 37099, Note_on_c, 0, 71, 63
1, 37100, Note_on_c, 0, 67, 45
1, 37102, Note_on_c, 0, 47, 34
1, 37102, Note_on_c, 0, 57, 32
1, 37126, Note_on_c, 9, 53, 0
1, 37137, Note_on_c, 9, 59, 0
1, 37139, Note_on_c, 1, 54, 0
1, 37148, Note_on_c, 1, 48, 84
1, 37150, Note_on_c, 9, 38, 0
1, 37171, Note_on_c, 9, 38, 70
1, 37187, Note_on_c, 9, 53, 44
1, 37194, Note_on_c, 9, 53, 0
1, 37195, Note_on_c, 9, 38, 0
1, 37197, Note_on_c, 1, 48, 0
1, 37212, Note_on_c, 1, 45, 55
1, 37237, Control_c, 0, 64, 127
1, 37265, Note_on_c, 9, 59, 74
1, 37265, Note_on_c, 9, 53, 70
1, 37277, Note_on_c, 9, 38, 66
1, 37280, Note_on_c, 1, 45, 0
1, 37285, Note_on_c, 0, 63, 0
1, 37287, Note_on_c, 0, 67, 0
1, 37288, Note_on_c, 1, 42, 66
1, 37297, Note_on_c, 0, 71, 0
1, 37304, Note_on_c, 9, 38, 0
1, 37313, Note_on_c, 9, 53, 0
1, 37315, Note_on_c, 0, 47, 0
1, 37326, Note_on_c, 0, 51, 0
1, 37329, Note_on_c, 9, 38, 44
1, 37334, Note_on_c, 1, 42, 0
1, 37335, Note_on_c, 0, 57, 0
1, 37335, Note_on_c, 0, 79, 60
1, 37336, Note_on_c, 0, 81, 58
1, 37338, Note_on_c, 9, 59, 0
1, 37361, Note_on_c, 0, 81, 0
1, 37372, Note_on_c, 1, 38, 39
1, 37380, Note_on_c, 9, 38, 0
1, 37394, Note_on_c, 9, 59, 41
1, 37403, Note_on_c, 1, 38, 0
1, 37405, Note_on_c, 9, 38, 80
1, 37410, Note_on_c, 1, 39, 68
1, 37417, Note_on_c, 9, 59, 0
1, 37443, Note_on_c, 1, 39, 0
1, 37447, Note_on_c, 9, 59, 50
1, 37451, Note_on_c, 9, 38, 0
1, 37451, Note_on_c, 1, 40, 49
1, 37455, Note_on_c, 0, 79, 0
1, 37455, Note_on_c, 0, 76, 34
1, 37456, Note_on_c, 0, 67, 32
1, 37457, Control_c, 0, 64, 0
1, 37459, Note_on_c, 0, 72, 38
1, 37460, Note_on_c, 0, 62, 29
1, 37462, Note_on_c, 0, 59, 31
1, 37462, Note_on_c, 0, 52, 35
1, 37493, Note_on_c, 9, 59, 0
1, 37584, Control_c, 0, 64, 127
1, 37606, Note_off_c, 0, 76, 0
1, 37610, Note_off_c, 0, 62, 0
1, 37616, Note_on_c, 1, 39, 50
1, 37617, Note_on_c, 1, 40, 0
1, 37620, Note_on_c, 0, 67, 0
1, 37624, Note_on_c, 0, 72, 0
1, 37634, Note_on_c, 9, 59, 45
1, 37642, Note_on_c, 1, 39, 0
1, 37649, Note_on_c, 1, 40, 47
1, 37657, Note_on_c, 9, 59, 0
1, 37679, Note_on_c, 1, 40, 0
1, 37689, Note_on_c, 0, 59, 0
1, 37689, Note_on_c, 1, 42, 60
1, 37697, Note_on_c, 0, 56, 26
1, 37698, Note_on_c, 0, 67, 49
1, 37700, Note_on_c, 0, 62, 32
1, 37701, Note_on_c, 0, 74, 44
1, 37701, Control_c, 0, 64, 0
1, 37701, Note_on_c, 0, 71, 49
1, 37712, Note_on_c, 1, 42, 0
1, 37720, Note_on_c, 1, 43, 61
1, 37737, Control_c, 0, 64, 127
1, 37753, Note_off_c, 1, 43, 0
1, 37753, Note_on_c, 1, 45, 68
1, 37760, Note_on_c, 0, 74, 0
1, 37760, Note_on_c, 0, 52, 0
1, 37761, Note_on_c, 0, 71, 0
1, 37767, Note_on_c, 0, 67, 0
1, 37770, Note_on_c, 1, 45, 0
1, 37774, Note_on_c, 0, 56, 0
1, 37784, Note_on_c, 0, 62, 0
1, 37785, Note_on_c, 1, 46, 63
1, 37802, Note_on_c, 1, 46, 0
1, 37820, Control_c, 0, 64, 0
1, 37820, Note_on_c, 1, 47, 61
1, 37864, Note_on_c, 1, 47, 0
1, 37865, Note_on_c, 1, 49, 63
1, 37893, Note_on_c, 1, 49, 0
1, 37955, Note_on_c, 0, 74, 49
1, 37955, Note_on_c, 0, 66, 45
1, 37955, Note_on_c, 0, 62, 57
1, 37957, Note_on_c, 0, 54, 50
1, 37958, Note_on_c, 0, 69, 48
1, 37965, Note_on_c, 0, 69, 0
1, 37965, Note_on_c, 0, 62, 0
1, 37967, Note_on_c, 0, 66, 0
1, 37970, Note_on_c, 0, 74, 0
1, 37972, Note_on_c, 0, 54, 0
1, 37983, Note_on_c, 9, 59, 46
1, 37995, Note_on_c, 9, 59, 0
1, 38010, Note_on_c, 9, 38, 38
1, 38015, Note_on_c, 9, 59, 51
1, 38032, Note_on_c, 9, 38, 0
1, 38033, Note_on_c, 0, 74, 44
1, 38035, Note_on_c, 0, 62, 45
1, 38035, Note_on_c, 0, 66, 35
1, 38036, Note_on_c, 9, 59, 0
1, 38037, Note_on_c, 0, 54, 40
1, 38037, Note_on_c, 0, 69, 46
1, 38052, Note_on_c, 9, 59, 73
1, 38062, Note_on_c, 0, 66, 0
1, 38064, Note_on_c, 0, 74, 0
1, 38065, Note_on_c, 0, 69, 0
1, 38068, Note_on_c, 0, 54, 0
1, 38069, Note_on_c, 0, 62, 0
1, 38090, Note_on_c, 9, 38, 46
1, 38093, Note_on_c, 9, 59, 0
1, 38108, Note_on_c, 0, 73, 37
1, 38120, Control_c, 0, 64, 127
1, 38128, Note_on_c, 1, 42, 61
1, 38131, Note_on_c, 0, 73, 0
1, 38134, Note_on_c, 9, 38, 0
1, 38163, Note_on_c, 0, 74, 39
1, 38164, Note_on_c, 1, 42, 0
1, 38166, Note_on_c, 0, 66, 25
1, 38166, Note_on_c, 0, 62, 35
1, 38167, Control_c, 0, 64, 0
1, 38168, Note_on_c, 0, 47, 33
1, 38172, Note_on_c, 0, 57, 33
1, 38178, Note_on_c, 1, 38, 48
1, 38192, Note_on_c, 9, 38, 36
1, 38231, Note_on_c, 9, 38, 0
1, 38255, Note_on_c, 1, 38, 0
1, 38288, Control_c, 0, 64, 127
1, 38288, Note_on_c, 1, 40, 55
1, 38312, Note_on_c, 1, 40, 0
1, 38321, Note_on_c, 1, 40, 54
1, 38351, Note_on_c, 1, 40, 0
1, 38361, Note_on_c, 1, 42, 81
1, 38391, Note_on_c, 0, 62, 0
1, 38395, Note_on_c, 0, 47, 0
1, 38412, Note_on_c, 0, 57, 0
1, 38425, Note_on_c, 1, 42, 0
1, 38430, Note_on_c, 0, 66, 0
1, 38451, Note_on_c, 9, 59, 48
1, 38454, Note_on_c, 0, 74, 0
1, 38460, Note_on_c, 9, 59, 0
1, 38487, Note_on_c, 9, 59, 38
1, 38494, Note_on_c, 9, 59, 0
1, 38524, Note_on_c, 9, 59, 87
1, 38571, Note_on_c, 9, 59, 0
1, 38597, Note_on_c, 9, 59, 83
1, 38599, Note_on_c, 0, 77, 60
1, 38602, Note_on_c, 0, 69, 60
1, 38604, Control_c, 0, 64, 0
1, 38604, Note_on_c, 0, 62, 46
1, 38605, Note_on_c, 0, 56, 36
1, 38605, Note_on_c, 0, 72, 40
1, 38606, Note_on_c, 0, 65, 60
1, 38628, Note_on_c, 9, 59, 0
1, 38638, Control_c, 0, 64, 127
1, 38644, Note_on_c, 9, 59, 72
1, 38685, Note_on_c, 9, 59, 0
1, 38694, Note_on_c, 1, 51, 90
1, 38707, Note_on_c, 0, 65, 0
1, 38721, Note_on_c, 0, 69, 0
1, 38723, Note_on_c, 1, 51, 0
1, 38724, Note_on_c, 0, 56, 0
1, 38727, Note_on_c, 0, 72, 0
1, 38729, Note_on_c, 0, 77, 0
1, 38730, Note_on_c, 1, 52, 67
1, 38734, Note_on_c, 0, 62, 0
1, 38760, Note_on_c, 0, 67, 43
1, 38760, Note_on_c, 0, 76, 43
1, 38761, Note_on_c, 1, 52, 0
1, 38761, Control_c, 0, 64, 0
1, 38761, Note_on_c, 0, 62, 43
1, 38764, Note_on_c, 0, 72, 33
1, 38765, Note_on_c, 0, 56, 37
1, 38773, Note_on_c, 1, 56, 66
1, 38795, Note_on_c, 1, 56, 0
1, 38799, Control_c, 0, 64, 127
1, 38805, Note_off_c, 0, 62, 0
1, 38809, Note_on_c, 1, 59, 91
1, 38825, Note_on_c, 0, 56, 0
1, 38839, Note_on_c, 1, 59, 0
1, 38840, Note_on_c, 0, 67, 0
1, 38845, Note_on_c, 9, 59, 37
1, 38848, Note_on_c, 1, 62, 94
1, 38853, Note_on_c, 9, 59, 0
1, 38853, Note_on_c, 1, 60, 48
1, 38854, Note_on_c, 0, 72, 0
1, 38854, Note_on_c, 0, 76, 0
1, 38860, Note_on_c, 1, 60, 0
1, 38874, Note_on_c, 0, 57, 40
1, 38875, Note_on_c, 0, 67, 44
1, 38876, Note_on_c, 0, 60, 40
1, 38878, Note_on_c, 0, 74, 26
1, 38878, Note_on_c, 0, 64, 44
1, 38878, Control_c, 0, 64, 0
1, 38880, Note_off_c, 1, 62, 0
1, 38880, Note_on_c, 0, 71, 36
1, 38887, Note_on_c, 9, 59, 65
1, 38888, Note_on_c, 1, 60, 81
1, 38922, Note_on_c, 1, 60, 0
1, 38922, Note_on_c, 9, 59, 0
1, 38922, Note_on_c, 1, 56, 59
1, 38956, Note_on_c, 1, 56, 0
1, 38959, Note_on_c, 1, 59, 91
1, 38971, Note_on_c, 9, 37, 46
1, 38997, Note_on_c, 9, 37, 0
1, 38998, Note_on_c, 1, 59, 0
1, 39001, Note_on_c, 1, 57, 68
1, 39010, Control_c, 0, 64, 127
1, 39025, Note_off_c, 1, 57, 0
1, 39035, Note_on_c, 1, 52, 53
1, 39055, Note_on_c, 9, 37, 55
1, 39062, Note_on_c, 1, 52, 0
1, 39069, Note_on_c, 1, 50, 54
1, 39099, Note_on_c, 9, 37, 0
1, 39102, Note_on_c, 1, 50, 0
1, 39115, Note_on_c, 1, 48, 42
1, 39129, Note_on_c, 0, 64, 0
1, 39140, Note_on_c, 9, 37, 56
1, 39146, Note_on_c, 0, 60, 0
1, 39158, Note_on_c, 0, 74, 0
1, 39159, Note_on_c, 9, 59, 41
1, 39160, Note_on_c, 0, 72, 54
1, 39164, Note_on_c, 0, 57, 0
1, 39176, Note_on_c, 0, 71, 0
1, 39177, Note_on_c, 0, 67, 0
1, 39181, Note_on_c, 0, 72, 0
1, 39184, Note_on_c, 9, 59, 0
1, 39186, Note_on_c, 9, 37, 0
1, 39188, Note_on_c, 1, 48, 0
1, 39191, Note_on_c, 0, 74, 58
1, 39193, Note_on_c, 9, 59, 45
1, 39202, Note_on_c, 1, 47, 74
1, 39214, Note_on_c, 9, 59, 0
1, 39214, Note_on_c, 9, 37, 53
1, 39218, Note_on_c, 0, 74, 0
1, 39230, Note_on_c, 0, 76, 48
1, 39232, Control_c, 0, 64, 0
1, 39232, Note_on_c, 9, 59, 68
1, 39237, Note_on_c, 9, 37, 0
1, 39238, Note_on_c, 1, 47, 0
1, 39238, Note_on_c, 0, 54, 35
1, 39238, Note_on_c, 0, 60, 31
1, 39239, Note_on_c, 0, 68, 29
1, 39239, Note_on_c, 0, 64, 17
1, 39257, Note_on_c, 9, 59, 0
1, 39257, Note_on_c, 1, 45, 52
1, 39270, Note_on_c, 0, 71, 1
1, 39307, Note_on_c, 1, 45, 0
1, 39312, Note_on_c, 9, 53, 54
1, 39313, Note_on_c, 9, 59, 59
1, 39320, Note_on_c, 1, 43, 46
1, 39340, Note_on_c, 9, 38, 43
1, 39353, Note_on_c, 9, 38, 0
1, 39365, Note_on_c, 9, 53, 0
1, 39366, Note_on_c, 1, 43, 0
1, 39370, Note_on_c, 1, 42, 55
1, 39371, Note_on_c, 9, 59, 0
1, 39371, Control_c, 0, 64, 127
1, 39382, Note_off_c, 0, 76, 0
1, 39390, Note_off_c, 0, 71, 0
1, 39400, Note_on_c, 9, 59, 59
1, 39401, Note_on_c, 0, 68, 0
1, 39403, Note_on_c, 0, 64, 0
1, 39406, Note_on_c, 0, 60, 0
1, 39433, Note_on_c, 9, 38, 36
1, 39436, Note_on_c, 0, 54, 0
1, 39464, Note_on_c, 9, 59, 0
1, 39466, Note_on_c, 9, 38, 0
1, 39496, Note_on_c, 9, 59, 49
1, 39499, Note_on_c, 9, 53, 32
1, 39510, Note_on_c, 9, 38, 44
1, 39536, Note_on_c, 1, 42, 0
1, 39538, Note_on_c, 9, 53, 0
1, 39544, Note_on_c, 9, 59, 0
1, 39545, Note_on_c, 9, 38, 0
1, 39554, Note_on_c, 1, 45, 45
1, 39564, Note_on_c, 0, 74, 48
1, 39575, Note_on_c, 9, 59, 48
1, 39585, Note_on_c, 1, 45, 0
1, 39591, Note_on_c, 9, 38, 57
1, 39598, Note_on_c, 0, 74, 0
1, 39602, Note_on_c, 1, 46, 50
1, 39610, Note_on_c, 9, 59, 0
1, 39610, Note_on_c, 0, 71, 37
1, 39612, Note_on_c, 0, 62, 29
1, 39615, Note_on_c, 0, 47, 31
1, 39618, Control_c, 0, 64, 0
1, 39619, Note_on_c, 0, 57, 26
1, 39621, Note_on_c, 9, 38, 0
1, 39631, Note_on_c, 1, 46, 0
1, 39652, Note_on_c, 9, 59, 46
1, 39653, Note_on_c, 9, 53, 37
1, 39679, Note_on_c, 1, 47, 64
1, 39686, Note_on_c, 9, 53, 0
1, 39701, Note_on_c, 9, 59, 0
1, 39702, Note_on_c, 1, 47, 0
1, 39739, Control_c, 0, 64, 127
1, 39739, Note_on_c, 9, 59, 58
1, 39746, Note_on_c, 1, 51, 73
1, 39764, Note_on_c, 9, 59, 0
1, 39771, Note_on_c, 1, 51, 0
1, 39783, Note_on_c, 1, 52, 32
1, 39787, Note_on_c, 1, 53, 22
1, 39794, Note_on_c, 1, 52, 0
1, 39802, Note_on_c, 1, 53, 0
1, 39806, Note_on_c, 0, 62, 0
1, 39811, Note_on_c, 9, 59, 56
1, 39812, Note_on_c, 9, 38, 42
1, 39812, Note_on_c, 9, 53, 39
1, 39818, Note_on_c, 1, 55, 81
1, 39825, Note_on_c, 0, 47, 0
1, 39826, Note_on_c, 9, 53, 0
1, 39831, Note_on_c, 9, 38, 0
1, 39833, Note_on_c, 0, 57, 0
1, 39838, Note_on_c, 9, 59, 0
1, 39845, Note_on_c, 1, 55, 0
1, 39854, Note_on_c, 0, 71, 0
1, 39855, Note_on_c, 1, 57, 94
1, 39859, Note_on_c, 1, 55, 54
1, 39865, Note_on_c, 1, 55, 0
1, 39887, Note_on_c, 1, 59, 76
1, 39889, Note_on_c, 1, 57, 0
1, 39891, Note_on_c, 9, 59, 60
1, 39916, Note_on_c, 1, 59, 0
1, 39918, Note_on_c, 1, 57, 80
1, 39941, Note_on_c, 9, 59, 0
1, 39944, Note_on_c, 1, 57, 0
1, 39948, Note_on_c, 1, 55, 71
1, 39968, Note_on_c, 0, 79, 71
1, 39968, Note_on_c, 9, 38, 37
1, 39968, Note_on_c, 9, 59, 54
1, 39969, Note_on_c, 0, 74, 83
1, 39969, Note_on_c, 0, 67, 69
1, 39969, Note_on_c, 0, 63, 53
1, 39969, Note_on_c, 9, 53, 34
1, 39972, Note_on_c, 1, 55, 0
1, 39972, Note_on_c, 0, 57, 49
1, 39972, Control_c, 0, 64, 0
1, 39981, Note_on_c, 1, 53, 42
1, 39993, Note_on_c, 9, 53, 0
1, 39996, Note_on_c, 9, 38, 0
1, 40002, Note_on_c, 1, 53, 0
1, 40005, Control_c, 0, 64, 127
1, 40015, Note_on_c, 1, 55, 71
1, 40017, Note_on_c, 9, 59, 0
1, 40041, Note_on_c, 0, 79, 0
1, 40041, Note_on_c, 0, 67, 0
1, 40042, Note_on_c, 0, 57, 0
1, 40050, Note_on_c, 1, 55, 0
1, 40050, Note_on_c, 9, 59, 59
1, 40053, Note_on_c, 0, 74, 0
1, 40060, Note_on_c, 0, 63, 0
1, 40061, Note_on_c, 1, 53, 62
1, 40080, Note_on_c, 0, 77, 53
1, 40080, Note_on_c, 0, 72, 57
1, 40081, Note_on_c, 9, 59, 0
1, 40081, Note_on_c, 0, 62, 46
1, 40085, Note_on_c, 1, 53, 0
1, 40085, Note_on_c, 0, 66, 36
1, 40085, Note_on_c, 0, 56, 39
1, 40088, Control_c, 0, 64, 0
1, 40096, Note_on_c, 1, 52, 52
1, 40209, Control_c, 0, 64, 127
1, 40213, Note_off_c, 0, 66, 0
1, 40231, Note_off_c, 0, 77, 0
1, 40232, Note_off_c, 0, 62, 0
1, 40242, Note_on_c, 0, 76, 48
1, 40247, Note_on_c, 1, 52, 0
1, 40258, Note_on_c, 0, 56, 0
1, 40258, Note_on_c, 0, 72, 0
1, 40263, Note_on_c, 1, 47, 36
1, 40265, Note_on_c, 1, 48, 31
1, 40272, Note_on_c, 1, 48, 0
1, 40272, Note_on_c, 0, 76, 0
1, 40278, Note_on_c, 1, 47, 0
1, 40278, Note_on_c, 0, 74, 48
1, 40280, Note_on_c, 9, 59, 51
1, 40280, Note_on_c, 9, 38, 50
1, 40285, Note_on_c, 1, 45, 50
1, 40300, Note_on_c, 9, 38, 0
1, 40305, Note_on_c, 9, 59, 0
1, 40310, Control_c, 0, 64, 0
1, 40311, Note_off_c, 0, 74, 0
1, 40311, Note_off_c, 1, 45, 0
1, 40320, Note_on_c, 9, 59, 59
1, 40321, Note_on_c, 0, 55, 25
1, 40321, Note_on_c, 0, 64, 31
1, 40322, Note_on_c, 0, 71, 36
1, 40322, Note_on_c, 0, 57, 32
1, 40324, Note_on_c, 0, 60, 29
1, 40336, Note_on_c, 9, 38, 24
1, 40340, Note_on_c, 1, 43, 38
1, 40340, Note_on_c, 1, 45, 45
1, 40352, Note_on_c, 1, 43, 0
1, 40370, Note_on_c, 9, 59, 0
1, 40372, Note_on_c, 9, 38, 0
1, 40454, Control_c, 0, 64, 127
1, 40483, Note_off_c, 1, 45, 0
1, 40485, Note_on_c, 1, 47, 61
1, 40497, Note_on_c, 9, 59, 45
1, 40505, Note_on_c, 1, 47, 0
1, 40506, Note_on_c, 9, 59, 0
1, 40515, Note_on_c, 9, 38, 44
1, 40517, Note_on_c, 1, 48, 76
1, 40529, Note_on_c, 9, 59, 50
1, 40535, Note_on_c, 9, 38, 0
1, 40545, Note_on_c, 0, 71, 0
1, 40546, Note_on_c, 1, 48, 0
1, 40547, Note_on_c, 0, 64, 0
1, 40548, Note_on_c, 9, 59, 0
1, 40555, Note_on_c, 1, 50, 93
1, 40563, Note_on_c, 0, 60, 0
1, 40566, Note_on_c, 9, 59, 68
1, 40582, Note_on_c, 0, 55, 0
1, 40590, Note_on_c, 9, 59, 0
1, 40591, Note_on_c, 0, 57, 0
1, 40633, Note_on_c, 0, 67, 64
1, 40634, Note_on_c, 9, 36, 58
1, 40654, Note_on_c, 9, 36, 0
1, 40664, Note_on_c, 1, 50, 0
1, 40664, Note_on_c, 9, 59, 49
1, 40668, Note_on_c, 0, 67, 0
1, 40670, Note_on_c, 1, 51, 71
1, 40677, Note_on_c, 9, 59, 0
1, 40682, Control_c, 0, 64, 0
1, 40683, Note_on_c, 9, 36, 35
1, 40684, Note_on_c, 0, 74, 65
1, 40685, Note_on_c, 0, 67, 47
1, 40685, Note_on_c, 0, 63, 48
1, 40687, Note_on_c, 0, 59, 51
1, 40703, Note_on_c, 9, 59, 58
1, 40715, Note_on_c, 9, 36, 0
1, 40717, Note_on_c, 9, 59, 0
1, 40740, Note_on_c, 9, 59, 83
1, 40747, Control_c, 0, 64, 127
1, 40750, Note_on_c, 1, 50, 65
1, 40761, Note_on_c, 1, 51, 0
1, 40775, Note_on_c, 0, 63, 0
1, 40779, Note_on_c, 0, 74, 0
1, 40781, Note_on_c, 1, 50, 0
1, 40783, Note_on_c, 0, 67, 0
1, 40783, Note_on_c, 9, 59, 0
1, 40795, Control_c, 0, 64, 0
1, 40801, Note_on_c, 0, 63, 33
1, 40802, Note_on_c, 0, 72, 54
1, 40802, Note_on_c, 1, 48, 45
1, 40803, Note_on_c, 0, 59, 0
1, 40803, Note_on_c, 0, 67, 29
1, 40805, Note_on_c, 0, 57, 52
1, 40818, Note_on_c, 0, 67, 0
1, 40819, Note_on_c, 0, 63, 0
1, 40819, Note_on_c, 0, 57, 0
1, 40820, Note_on_c, 0, 72, 0
1, 40868, Note_on_c, 9, 38, 49
1, 40893, Note_on_c, 9, 38, 0
1, 40925, Note_on_c, 9, 36, 30
1, 40958, Note_on_c, 9, 36, 0
1, 40984, Note_on_c, 1, 48, 0
1, 40993, Note_on_c, 9, 36, 43
1, 40994, Note_on_c, 1, 46, 42
1, 40999, Note_on_c, 9, 59, 55
1, 41014, Note_on_c, 9, 59, 0
1, 41020, Note_on_c, 9, 36, 0
1, 41030, Note_on_c, 1, 46, 0
1, 41040, Note_on_c, 9, 59, 44
1, 41042, Note_on_c, 0, 62, 44
1, 41043, Note_on_c, 0, 57, 43
1, 41044, Note_on_c, 0, 54, 32
1, 41044, Note_on_c, 1, 47, 40
1, 41046, Note_on_c, 0, 47, 38
1, 41046, Note_on_c, 9, 36, 33
1, 41051, Note_on_c, 0, 57, 0
1, 41055, Note_on_c, 0, 47, 0
1, 41056, Note_on_c, 9, 59, 0
1, 41056, Note_on_c, 0, 62, 0
1, 41057, Note_on_c, 0, 54, 0
1, 41091, Note_on_c, 9, 36, 0
1, 41113, Note_on_c, 0, 62, 37
1, 41113, Note_on_c, 0, 57, 42
1, 41114, Note_on_c, 0, 54, 28
1, 41117, Note_on_c, 0, 47, 29
1, 41123, Note_on_c, 0, 57, 0
1, 41125, Note_on_c, 0, 62, 0
1, 41126, Note_on_c, 0, 47, 0
1, 41129, Note_on_c, 0, 54, 0
1, 41175, Note_on_c, 0, 54, 29
1, 41176, Note_on_c, 0, 62, 30
1, 41176, Note_on_c, 0, 57, 33
1, 41177, Note_on_c, 0, 47, 29
1, 41188, Note_on_c, 0, 47, 0
1, 41189, Note_on_c, 0, 62, 0
1, 41189, Note_on_c, 0, 57, 0
1, 41192, Note_on_c, 0, 54, 0
1, 41221, Note_on_c, 1, 47, 0
1, 41224, Note_on_c, 1, 49, 67
1, 41237, Note_on_c, 0, 57, 34
1, 41237, Note_on_c, 0, 62, 29
1, 41237, Note_on_c, 0, 54, 26
1, 41240, Note_on_c, 0, 47, 31
1, 41249, Note_on_c, 0, 47, 0
1, 41250, Note_on_c, 0, 62, 0
1, 41250, Note_on_c, 0, 57, 0
1, 41253, Note_on_c, 1, 49, 0
1, 41254, Note_on_c, 0, 54, 0
1, 41256, Note_on_c, 1, 50, 71
1, 41293, Note_on_c, 0, 57, 35
1, 41293, Note_on_c, 1, 51, 80
1, 41294, Note_on_c, 0, 62, 30
1, 41295, Note_on_c, 1, 50, 0
1, 41295, Note_on_c, 0, 54, 26
1, 41297, Note_on_c, 0, 47, 28
1, 41307, Note_on_c, 0, 47, 0
1, 41309, Note_on_c, 0, 57, 0
1, 41311, Note_on_c, 0, 62, 0
1, 41312, Note_on_c, 0, 54, 0
1, 41320, Note_on_c, 1, 51, 0
1, 41326, Note_on_c, 1, 52, 62
1, 41352, Note_on_c, 9, 36, 49
1, 41353, Note_on_c, 1, 52, 0
1, 41362, Note_on_c, 1, 53, 78
1, 41364, Note_on_c, 9, 36, 0
1, 41392, Note_on_c, 1, 53, 0
1, 41400, Note_on_c, 1, 55, 83
1, 41410, Note_on_c, 9, 36, 32
1, 41411, Note_on_c, 9, 53, 55
1, 41413, Note_on_c, 9, 59, 35
1, 41419, Note_on_c, 9, 53, 0
1, 41422, Note_on_c, 9, 59, 0
1, 41424, Note_on_c, 9, 36, 0
1, 41428, Note_on_c, 1, 55, 0
1, 41438, Note_on_c, 1, 56, 76
1, 41466, Note_on_c, 1, 56, 0
1, 41471, Note_on_c, 9, 36, 63
1, 41477, Note_on_c, 1, 58, 68
1, 41498, Note_on_c, 9, 36, 0
1, 41507, Note_on_c, 1, 58, 0
1, 41516, Note_on_c, 1, 59, 64
1, 41526, Note_on_c, 9, 36, 53
1, 41544, Note_on_c, 1, 59, 0
1, 41556, Note_on_c, 1, 62, 53
1, 41561, Note_on_c, 9, 36, 0
1, 41587, Note_on_c, 1, 62, 0
1, 41588, Note_on_c, 9, 53, 47
1, 41590, Note_on_c, 9, 36, 55
1, 41595, Note_on_c, 9, 59, 60
1, 41598, Note_on_c, 1, 60, 65
1, 41602, Note_on_c, 0, 76, 54
1, 41602, Note_on_c, 0, 67, 61
1, 41604, Note_on_c, 0, 62, 54
1, 41605, Note_on_c, 0, 72, 50
1, 41606, Note_on_c, 0, 56, 48
1, 41610, Note_on_c, 0, 67, 0
1, 41612, Note_on_c, 0, 72, 0
1, 41612, Note_on_c, 0, 62, 0
1, 41617, Note_on_c, 1, 60, 0
1, 41618, Note_on_c, 0, 76, 0
1, 41620, Note_on_c, 9, 59, 0
1, 41620, Note_on_c, 0, 56, 0
1, 41621, Note_on_c, 9, 53, 0
1, 41625, Note_on_c, 9, 36, 0
1, 41642, Note_on_c, 1, 56, 56
1, 41650, Note_on_c, 9, 36, 62
1, 41673, Note_on_c, 1, 56, 0
1, 41673, Note_on_c, 9, 59, 51
1, 41677, Note_on_c, 1, 59, 61
1, 41693, Note_on_c, 0, 76, 64
1, 41695, Note_on_c, 0, 67, 59
1, 41696, Note_on_c, 0, 72, 55
1, 41696, Note_on_c, 0, 62, 49
1, 41698, Note_on_c, 0, 56, 37
1, 41699, Note_on_c, 9, 59, 0
1, 41702, Note_on_c, 9, 36, 0
1, 41703, Note_on_c, 1, 59, 0
1, 41716, Control_c, 0, 64, 127
1, 41718, Note_on_c, 1, 55, 70
1, 41727, Note_on_c, 0, 72, 0
1, 41732, Note_on_c, 0, 76, 0
1, 41733, Note_on_c, 0, 67, 0
1, 41745, Note_on_c, 1, 55, 0
1, 41749, Note_on_c, 0, 62, 0
1, 41754, Note_on_c, 9, 53, 57
1, 41761, Control_c, 0, 64, 0
1, 41762, Note_off_c, 0, 56, 0
1, 41763, Note_on_c, 0, 74, 42
1, 41764, Note_on_c, 0, 64, 44
1, 41765, Note_on_c, 0, 71, 37
1, 41765, Note_on_c, 9, 59, 53
1, 41766, Note_on_c, 0, 67, 45
1, 41767, Note_on_c, 1, 52, 19
1, 41771, Note_on_c, 0, 57, 57
1, 41782, Note_on_c, 9, 53, 0
1, 41794, Note_on_c, 9, 59, 0
1, 41808, Note_on_c, 1, 52, 0
1, 41824, Control_c, 0, 64, 127
1, 41830, Note_on_c, 1, 47, 50
1, 41836, Note_on_c, 9, 38, 58
1, 41843, Note_on_c, 9, 59, 60
1, 41863, Note_on_c, 9, 38, 0
1, 41864, Note_on_c, 1, 47, 0
1, 41865, Note_on_c, 9, 59, 0
1, 41877, Note_on_c, 1, 50, 63
1, 41897, Note_on_c, 0, 71, 0
1, 41900, Note_on_c, 0, 67, 0
1, 41902, Note_on_c, 0, 74, 0
1, 41910, Note_on_c, 0, 64, 0
1, 41911, Note_on_c, 0, 57, 0
1, 41912, Note_on_c, 9, 53, 48
1, 41920, Note_on_c, 9, 59, 58
1, 41925, Note_on_c, 1, 50, 0
1, 41943, Note_on_c, 9, 53, 0
1, 41947, Note_on_c, 9, 59, 0
1, 41955, Note_on_c, 1, 48, 69
1, 41962, Note_on_c, 0, 60, 39
1, 41962, Note_on_c, 0, 67, 35
1, 41963, Note_on_c, 0, 64, 40
1, 41964, Note_on_c, 0, 71, 28
1, 41966, Note_on_c, 0, 57, 39
1, 41969, Control_c, 0, 64, 0
1, 41970, Note_on_c, 9, 38, 64
1, 41990, Note_on_c, 1, 48, 0
1, 41994, Note_on_c, 9, 38, 0
1, 41997, Control_c, 0, 64, 127
1, 42002, Note_on_c, 1, 47, 48
1, 42002, Note_on_c, 9, 59, 58
1, 42024, Note_on_c, 9, 59, 0
1, 42053, Note_on_c, 1, 47, 0
1, 42063, Note_on_c, 0, 67, 0
1, 42072, Note_on_c, 9, 53, 48
1, 42073, Note_on_c, 0, 64, 0
1, 42077, Note_on_c, 1, 48, 63
1, 42078, Note_on_c, 0, 60, 0
1, 42078, Note_on_c, 9, 59, 58
1, 42084, Note_on_c, 9, 38, 74
1, 42095, Note_on_c, 1, 48, 0
1, 42096, Note_on_c, 0, 71, 0
1, 42105, Note_on_c, 9, 53, 0
1, 42105, Note_on_c, 9, 38, 0
1, 42108, Note_on_c, 9, 59, 0
1, 42122, Control_c, 0, 64, 0
1, 42127, Note_on_c, 1, 50, 61
1, 42131, Note_on_c, 0, 68, 31
1, 42132, Note_on_c, 0, 60, 37
1, 42132, Note_on_c, 0, 64, 55
1, 42132, Note_on_c, 0, 71, 29
1, 42132, Note_on_c, 9, 38, 54
1, 42134, Note_on_c, 0, 57, 0
1, 42135, Note_on_c, 0, 59, 38
1, 42137, Note_on_c, 0, 50, 31
1, 42150, Note_on_c, 9, 59, 52
1, 42157, Pitch_bend_c, 1, 8192
1, 42162, Pitch_bend_c, 1, 8192
1, 42165, Pitch_bend_c, 1, 8192
1, 42169, Pitch_bend_c, 1, 8192
1, 42172, Pitch_bend_c, 1, 7680
1, 42175, Pitch_bend_c, 1, 7552
1, 42177, Note_off_c, 9, 38, 0
1, 42179, Pitch_bend_c, 1, 7424
1, 42181, Pitch_bend_c, 1, 7296
1, 42183, Note_off_c, 9, 59, 0
1, 42184, Pitch_bend_c, 1, 7168
1, 42186, Pitch_bend_c, 1, 7040
1, 42189, Pitch_bend_c, 1, 6912
1, 42191, Pitch_bend_c, 1, 6784
1, 42194, Pitch_bend_c, 1, 6656
1, 42197, Pitch_bend_c, 1, 6528
1, 42198, Pitch_bend_c, 1, 6400
1, 42200, Pitch_bend_c, 1, 6272
1, 42203, Pitch_bend_c, 1, 6016
1, 42206, Pitch_bend_c, 1, 5888
1, 42209, Pitch_bend_c, 1, 5760
1, 42211, Pitch_bend_c, 1, 5632
1, 42214, Pitch_bend_c, 1, 5504
1, 42217, Pitch_bend_c, 1, 5376
1, 42220, Pitch_bend_c, 1, 5120
1, 42223, Pitch_bend_c, 1, 4992
1, 42226, Pitch_bend_c, 1, 4864
1, 42228, Note_off_c, 1, 50, 0
1, 42229, Pitch_bend_c, 1, 4736
1, 42232, Pitch_bend_c, 1, 4608
1, 42234, Pitch_bend_c, 1, 4480
1, 42236, Pitch_bend_c, 1, 4352
1, 42238, Pitch_bend_c, 1, 4096
1, 42242, Pitch_bend_c, 1, 3968
1, 42242, Note_on_c, 9, 53, 41
1, 42246, Pitch_bend_c, 1, 3840
1, 42247, Note_on_c, 9, 59, 53
1, 42249, Pitch_bend_c, 1, 3712
1, 42258, Pitch_bend_c, 1, 3584
1, 42267, Note_off_c, 9, 53, 0
1, 42267, Control_c, 0, 64, 127
1, 42271, Pitch_bend_c, 1, 3712
1, 42272, Pitch_bend_c, 1, 3840
1, 42275, Pitch_bend_c, 1, 4096
1, 42276, Pitch_bend_c, 1, 4224
1, 42277, Pitch_bend_c, 1, 4352
1, 42279, Pitch_bend_c, 1, 4608
1, 42280, Pitch_bend_c, 1, 4864
1, 42281, Pitch_bend_c, 1, 5120
1, 42282, Pitch_bend_c, 1, 5504
1, 42283, Note_off_c, 9, 59, 0
1, 42284, Pitch_bend_c, 1, 5760
1, 42285, Pitch_bend_c, 1, 6016
1, 42286, Pitch_bend_c, 1, 6272
1, 42288, Pitch_bend_c, 1, 6528
1, 42289, Pitch_bend_c, 1, 6784
1, 42290, Pitch_bend_c, 1, 7040
1, 42292, Pitch_bend_c, 1, 7296
1, 42293, Pitch_bend_c, 1, 7552
1, 42294, Pitch_bend_c, 1, 7680
1, 42295, Pitch_bend_c, 1, 8192
1, 42296, Pitch_bend_c, 1, 8192
1, 42297, Pitch_bend_c, 1, 8192
1, 42297, Pitch_bend_c, 1, 8192
1, 42301, Note_off_c, 0, 68, 0
1, 42313, Note_off_c, 0, 59, 0
1, 42318, Note_off_c, 0, 60, 0
1, 42321, Note_off_c, 0, 64, 0
1, 42324, Note_on_c, 9, 38, 66
1, 42325, Note_on_c, 1, 50, 70
1, 42346, Note_on_c, 9, 38, 0
1, 42350, Note_on_c, 1, 50, 0
1, 42367, Note_on_c, 1, 54, 92
1, 42369, Note_on_c, 9, 38, 67
1, 42394, Note_on_c, 0, 71, 0
1, 42407, Note_on_c, 9, 38, 0
1, 42411, Note_on_c, 0, 50, 0
1, 42416, Note_on_c, 1, 54, 0
1, 42441, Note_on_c, 9, 59, 50
1, 42446, Note_on_c, 1, 57, 86
1, 42448, Note_on_c, 0, 66, 51
1, 42460, Note_on_c, 9, 59, 0
1, 42469, Note_on_c, 0, 66, 0
1, 42483, Note_on_c, 1, 57, 0
1, 42485, Note_on_c, 9, 59, 39
1, 42492, Control_c, 0, 64, 0
1, 42492, Note_on_c, 0, 66, 39
1, 42493, Note_on_c, 0, 59, 60
1, 42493, Note_on_c, 0, 69, 63
1, 42493, Note_on_c, 1, 54, 68
1, 42494, Note_on_c, 0, 62, 60
1, 42495, Note_on_c, 0, 54, 48
1, 42517, Control_c, 0, 64, 127
1, 42550, Note_off_c, 1, 54, 0
1, 42562, Note_on_c, 1, 50, 52
1, 42565, Note_on_c, 9, 38, 71
1, 42586, Note_on_c, 0, 59, 0
1, 42587, Note_on_c, 0, 62, 0
1, 42588, Note_on_c, 1, 50, 0
1, 42589, Note_on_c, 9, 38, 0
1, 42594, Note_on_c, 0, 66, 0
1, 42597, Note_on_c, 0, 69, 0
1, 42605, Note_on_c, 1, 50, 47
1, 42607, Note_on_c, 9, 44, 68
1, 42608, Control_c, 0, 64, 0
1, 42609, Note_off_c, 0, 54, 0
1, 42612, Note_on_c, 0, 67, 45
1, 42613, Note_on_c, 0, 52, 50
1, 42613, Note_on_c, 0, 62, 31
1, 42614, Note_on_c, 0, 59, 27
1, 42614, Note_on_c, 9, 38, 55
1, 42624, Note_on_c, 9, 44, 0
1, 42642, Note_on_c, 9, 38, 0
1, 42646, Control_c, 0, 64, 127
1, 42681, Note_off_c, 9, 59, 0
1, 42687, Note_on_c, 9, 57, 53
1, 42699, Note_on_c, 9, 36, 37
1, 42702, Note_on_c, 9, 57, 0
1, 42715, Note_on_c, 9, 36, 0
1, 42724, Note_on_c, 9, 44, 44
1, 42731, Note_on_c, 0, 52, 0
1, 42751, Note_on_c, 9, 44, 0
1, 42754, Note_on_c, 0, 59, 0
1, 42762, Note_on_c, 0, 62, 0
1, 42770, Note_on_c, 0, 67, 0
1, 42797, Note_on_c, 0, 66, 34
1, 42800, Note_on_c, 1, 50, 0
1, 42802, Note_on_c, 1, 47, 28
1, 42807, Note_on_c, 9, 59, 50
1, 42812, Note_on_c, 9, 38, 48
1, 42816, Note_on_c, 9, 59, 0
1, 42825, Note_on_c, 0, 66, 0
1, 42827, Note_on_c, 1, 47, 0
1, 42833, Note_on_c, 9, 38, 0
1, 42843, Note_on_c, 0, 66, 45
1, 42844, Note_on_c, 1, 50, 61
1, 42845, Note_on_c, 9, 59, 82
1, 42846, Control_c, 0, 64, 0
1, 42848, Note_on_c, 0, 60, 24
1, 42848, Note_on_c, 0, 50, 35
1, 42850, Note_on_c, 0, 57, 29
1, 42850, Note_on_c, 0, 54, 18
1, 42858, Note_on_c, 9, 38, 46
1, 42886, Note_on_c, 9, 38, 0
1, 42902, Note_on_c, 9, 59, 0
1, 42914, Note_on_c, 1, 50, 0
1, 42921, Note_on_c, 1, 54, 84
1, 42924, Note_on_c, 9, 44, 25
1, 42934, Note_on_c, 9, 57, 69
1, 42938, Note_on_c, 9, 38, 70
1, 42942, Note_on_c, 9, 44, 0
1, 42944, Note_on_c, 9, 57, 0
1, 42958, Note_on_c, 1, 54, 0
1, 42962, Note_on_c, 9, 38, 0
1, 42963, Note_on_c, 9, 59, 65
1, 42969, Note_on_c, 1, 50, 52
1, 42981, Control_c, 0, 64, 127
1, 42996, Note_off_c, 0, 57, 0
1, 43003, Note_off_c, 9, 59, 0
1, 43021, Note_off_c, 0, 60, 0
1, 43042, Note_off_c, 0, 66, 0
1, 43046, Note_on_c, 9, 38, 66
1, 43069, Note_on_c, 9, 38, 0
1, 43077, Control_c, 0, 64, 0
1, 43084, Note_on_c, 0, 69, 41
1, 43087, Note_on_c, 0, 66, 32
1, 43088, Note_on_c, 0, 57, 27
1, 43088, Note_on_c, 0, 64, 37
1, 43097, Note_on_c, 9, 57, 46
1, 43107, Note_on_c, 0, 64, 0
1, 43109, Note_on_c, 9, 57, 0
1, 43109, Note_on_c, 0, 66, 0
1, 43109, Note_on_c, 0, 57, 0
1, 43114, Note_on_c, 0, 69, 0
1, 43120, Note_on_c, 0, 50, 0
1, 43120, Note_on_c, 0, 54, 0
1, 43139, Control_c, 0, 64, 127
1, 43153, Note_on_c, 9, 57, 58
1, 43155, Note_on_c, 9, 44, 36
1, 43155, Note_on_c, 9, 59, 50
1, 43164, Note_on_c, 9, 57, 0
1, 43165, Note_on_c, 9, 44, 0
1, 43165, Note_on_c, 9, 38, 94
1, 43169, Note_on_c, 9, 59, 0
1, 43199, Note_on_c, 0, 59, 33
1, 43200, Note_on_c, 0, 71, 37
1, 43201, Note_on_c, 0, 62, 29
1, 43203, Note_on_c, 0, 57, 31
1, 43204, Control_c, 0, 64, 0
1, 43205, Note_on_c, 0, 54, 32
1, 43205, Note_on_c, 9, 59, 50
1, 43207, Note_on_c, 1, 31, 86
1, 43209, Note_on_c, 9, 38, 0
1, 43212, Note_on_c, 1, 50, 0
1, 43251, Control_c, 0, 64, 127
1, 43260, Note_off_c, 9, 59, 0
1, 43381, Note_off_c, 0, 71, 0
1, 43402, Note_on_c, 0, 78, 85
1, 43404, Note_on_c, 9, 59, 43
1, 43416, Note_on_c, 9, 59, 0
1, 43432, Note_on_c, 0, 59, 0
1, 43433, Note_on_c, 0, 62, 0
1, 43438, Note_on_c, 0, 57, 0
1, 43443, Note_on_c, 9, 59, 50
1, 43447, Note_on_c, 0, 54, 0
1, 43455, Note_on_c, 0, 78, 0
1, 43479, Note_on_c, 0, 74, 110
1, 43492, Note_on_c, 9, 59, 0
1, 43510, Note_on_c, 1, 31, 0
1, 43530, Note_on_c, 1, 39, 68
1, 43562, Note_on_c, 0, 62, 47
1, 43563, Note_on_c, 1, 39, 0
1, 43564, Note_on_c, 9, 59, 83
1, 43565, Note_on_c, 0, 59, 44
1, 43567, Control_c, 0, 64, 0
1, 43567, Note_on_c, 0, 66, 34
1, 43567, Note_on_c, 0, 55, 34
1, 43571, Note_on_c, 0, 74, 0
1, 43571, Note_on_c, 0, 71, 54
1, 43579, Note_on_c, 1, 40, 66
1, 43611, Control_c, 0, 64, 127
1, 43614, Note_off_c, 9, 59, 0
1, 43731, Note_off_c, 0, 71, 0
1, 43755, Note_on_c, 0, 78, 86
1, 43763, Note_on_c, 1, 35, 64
1, 43764, Note_on_c, 9, 59, 53
1, 43768, Note_on_c, 1, 40, 0
1, 43779, Note_on_c, 9, 59, 0
1, 43791, Note_on_c, 1, 35, 0
1, 43806, Note_on_c, 0, 62, 0
1, 43807, Note_on_c, 9, 59, 62
1, 43810, Note_on_c, 1, 34, 76
1, 43816, Note_on_c, 0, 55, 0
1, 43818, Note_on_c, 0, 59, 0
1, 43828, Note_on_c, 0, 66, 0
1, 43836, Note_on_c, 0, 78, 0
1, 43840, Note_on_c, 0, 77, 43
1, 43842, Note_on_c, 9, 59, 0
1, 43865, Note_on_c, 0, 76, 44
1, 43872, Note_on_c, 0, 77, 0
1, 43883, Note_on_c, 0, 75, 55
1, 43885, Note_on_c, 0, 76, 0
1, 43905, Note_on_c, 0, 74, 66
1, 43907, Note_on_c, 0, 75, 0
1, 43924, Note_on_c, 0, 74, 0
1, 43927, Note_on_c, 9, 59, 83
1, 43937, Note_on_c, 0, 64, 40
1, 43938, Note_on_c, 0, 71, 40
1, 43942, Note_on_c, 0, 59, 34
1, 43942, Note_on_c, 0, 60, 35
1, 43943, Control_c, 0, 64, 0
1, 43943, Note_on_c, 0, 55, 24
1, 43963, Note_on_c, 9, 59, 0
1, 44012, Control_c, 0, 64, 127
1, 44022, Control_c, 0, 64, 0
1, 44035, Note_on_c, 1, 33, 70
1, 44042, Note_on_c, 1, 34, 0
1, 44046, Note_on_c, 9, 59, 64
1, 44048, Control_c, 0, 64, 127
1, 44052, Note_off_c, 0, 71, 0
1, 44083, Note_off_c, 9, 59, 0
1, 44115, Note_on_c, 0, 78, 78
1, 44136, Note_on_c, 0, 64, 0
1, 44137, Note_on_c, 0, 59, 0
1, 44137, Note_on_c, 0, 60, 0
1, 44143, Note_on_c, 0, 78, 0
1, 44143, Control_c, 0, 64, 0
1, 44144, Note_off_c, 0, 55, 0
1, 44154, Note_on_c, 0, 74, 53
1, 44163, Note_on_c, 1, 45, 84
1, 44167, Note_on_c, 9, 59, 74
1, 44187, Note_on_c, 0, 74, 0
1, 44202, Note_on_c, 9, 59, 0
1, 44230, Note_on_c, 1, 45, 0
1, 44232, Note_on_c, 0, 74, 58
1, 44240, Note_on_c, 1, 37, 29
1, 44247, Note_on_c, 0, 74, 0
1, 44250, Note_on_c, 9, 59, 53
1, 44255, Note_on_c, 1, 33, 0
1, 44263, Note_on_c, 9, 59, 0
1, 44277, Note_on_c, 0, 54, 30
1, 44277, Note_on_c, 0, 64, 30
1, 44280, Note_on_c, 0, 60, 37
1, 44287, Note_on_c, 9, 59, 68
1, 44289, Note_on_c, 1, 38, 65
1, 44298, Note_on_c, 1, 37, 0
1, 44334, Note_on_c, 9, 59, 0
1, 44401, Note_on_c, 9, 59, 83
1, 44407, Control_c, 0, 64, 127
1, 44408, Note_on_c, 1, 50, 89
1, 44452, Note_on_c, 9, 59, 0
1, 44512, Control_c, 0, 64, 0
1, 44518, Note_off_c, 0, 64, 0
1, 44520, Note_on_c, 0, 70, 90
1, 44522, Note_on_c, 0, 71, 82
1, 44526, Note_on_c, 0, 60, 0
1, 44528, Note_on_c, 9, 59, 73
1, 44530, Note_on_c, 0, 70, 0
1, 44532, Note_on_c, 0, 54, 0
1, 44535, Note_on_c, 0, 71, 0
1, 44536, Note_on_c, 1, 38, 0
1, 44558, Note_on_c, 9, 59, 0
1, 44600, Note_on_c, 0, 69, 74
1, 44614, Note_on_c, 9, 59, 57
1, 44631, Note_on_c, 9, 59, 0
1, 44631, Note_on_c, 0, 69, 0
1, 44650, Note_on_c, 1, 43, 51
1, 44653, Note_on_c, 9, 59, 80
1, 44658, Note_on_c, 1, 50, 0
1, 44691, Note_on_c, 9, 59, 0
1, 44731, Note_on_c, 0, 67, 59
1, 44734, Note_on_c, 0, 62, 36
1, 44734, Note_on_c, 0, 57, 37
1, 44735, Note_on_c, 0, 58, 40
1, 44751, Note_on_c, 0, 67, 0
1, 44755, Note_on_c, 0, 62, 0
1, 44757, Note_on_c, 0, 58, 0
1, 44759, Note_on_c, 0, 57, 0
1, 44768, Note_on_c, 9, 59, 101
1, 44821, Note_on_c, 9, 59, 0
1, 44882, Note_on_c, 9, 59, 85
1, 44905, Control_c, 0, 64, 127
1, 44911, Control_c, 0, 64, 0
1, 44934, Note_off_c, 9, 59, 0
1, 44935, Control_c, 0, 64, 127
1, 44937, Note_on_c, 0, 69, 62
1, 44948, Note_on_c, 0, 69, 0
1, 44959, Control_c, 0, 64, 0
1, 44964, Note_on_c, 1, 38, 65
1, 44972, Note_on_c, 0, 71, 74
1, 44974, Note_on_c, 1, 38, 0
1, 44986, Note_on_c, 0, 71, 0
1, 45007, Note_on_c, 1, 31, 80
1, 45009, Note_on_c, 9, 59, 77
1, 45015, Note_on_c, 0, 76, 83
1, 45016, Note_on_c, 0, 65, 96
1, 45017, Note_on_c, 0, 71, 66
1, 45017, Note_on_c, 0, 69, 78
1, 45019, Note_on_c, 0, 74, 58
1, 45019, Note_on_c, 0, 64, 84
1, 45054, Control_c, 0, 64, 127
1, 45055, Note_off_c, 9, 59, 0
1, 45074, Note_off_c, 0, 74, 0
1, 45077, Note_off_c, 0, 64, 0
1, 45083, Note_off_c, 0, 76, 0
1, 45090, Note_off_c, 0, 69, 0
1, 45096, Note_off_c, 0, 65, 0
1, 45103, Note_off_c, 0, 71, 0
1, 45120, Note_on_c, 1, 34, 76
1, 45121, Note_on_c, 1, 43, 0
1, 45124, Note_on_c, 1, 31, 0
1, 45127, Note_on_c, 0, 68, 77
1, 45127, Note_on_c, 0, 74, 75
1, 45128, Note_on_c, 0, 65, 80
1, 45128, Note_on_c, 0, 71, 68
1, 45128, Note_on_c, 0, 62, 71
1, 45130, Control_c, 0, 64, 0
1, 45130, Note_on_c, 9, 59, 94
1, 45131, Note_on_c, 1, 35, 76
1, 45142, Note_on_c, 1, 34, 0
1, 45156, Control_c, 0, 64, 127
1, 45181, Note_off_c, 0, 71, 0
1, 45185, Note_off_c, 0, 74, 0
1, 45186, Note_off_c, 0, 62, 0
1, 45189, Note_off_c, 0, 68, 0
1, 45190, Note_off_c, 0, 65, 0
1, 45207, Note_off_c, 9, 59, 0
1, 45240, Control_c, 0, 64, 0
1, 45245, Note_on_c, 0, 62, 52
1, 45246, Note_on_c, 0, 56, 44
1, 45246, Note_on_c, 1, 36, 93
1, 45247, Note_on_c, 0, 65, 55
1, 45247, Note_on_c, 0, 68, 34
1, 45248, Note_on_c, 0, 71, 37
1, 45258, Note_on_c, 9, 59, 68
1, 45263, Note_on_c, 1, 35, 0
1, 45273, Control_c, 0, 64, 127
1, 45290, Note_off_c, 0, 65, 0
1, 45291, Note_off_c, 9, 59, 0
1, 45292, Note_off_c, 0, 68, 0
1, 45294, Note_off_c, 0, 71, 0
1, 45295, Note_off_c, 0, 56, 0
1, 45298, Note_off_c, 0, 62, 0
1, 45332, Note_on_c, 9, 59, 50
1, 45346, Note_on_c, 9, 59, 0
1, 45361, Control_c, 0, 64, 0
1, 45363, Note_on_c, 0, 62, 40
1, 45363, Note_on_c, 0, 67, 44
1, 45366, Note_on_c, 0, 59, 32
1, 45367, Note_on_c, 0, 64, 38
1, 45368, Note_on_c, 0, 48, 36
1, 45370, Note_on_c, 0, 55, 42
1, 45373, Note_on_c, 9, 59, 74
1, 45418, Note_on_c, 9, 59, 0
1, 45476, Control_c, 0, 64, 127
1, 45485, Note_on_c, 9, 59, 90
1, 45544, Note_on_c, 0, 55, 0
1, 45546, Note_on_c, 9, 59, 0
1, 45572, Note_on_c, 0, 48, 0
1, 45575, Note_on_c, 9, 59, 55
1, 45593, Note_on_c, 9, 59, 0
1, 45604, Note_on_c, 0, 64, 0
1, 45610, Note_on_c, 0, 59, 0
1, 45612, Note_on_c, 0, 62, 0
1, 45613, Note_on_c, 9, 59, 84
1, 45647, Note_on_c, 0, 67, 0
1, 45671, Note_on_c, 9, 59, 0
1, 45708, Control_c, 0, 64, 0
1, 45711, Note_on_c, 0, 41, 38
1, 45712, Note_on_c, 0, 62, 59
1, 45713, Note_on_c, 0, 66, 37
1, 45714, Note_on_c, 0, 57, 60
1, 45714, Note_on_c, 0, 69, 57
1, 45718, Note_on_c, 0, 51, 38
1, 45724, Note_on_c, 9, 59, 101
1, 45725, Note_on_c, 1, 41, 66
1, 45729, Note_on_c, 0, 57, 0
1, 45732, Note_on_c, 0, 66, 0
1, 45732, Note_on_c, 0, 62, 0
1, 45732, Note_on_c, 0, 69, 0
1, 45734, Note_on_c, 0, 51, 0
1, 45738, Note_on_c, 1, 36, 0
1, 45757, Note_on_c, 0, 48, 35
1, 45772, Note_on_c, 0, 41, 0
1, 45789, Note_on_c, 0, 48, 0
1, 45790, Note_on_c, 0, 66, 32
1, 45791, Note_on_c, 9, 59, 0
1, 45791, Note_on_c, 0, 62, 49
1, 45791, Note_on_c, 0, 57, 57
1, 45792, Note_on_c, 0, 69, 54
1, 45793, Note_on_c, 0, 51, 60
1, 45800, Note_on_c, 0, 41, 39
1, 45811, Note_on_c, 9, 59, 66
1, 45827, Note_on_c, 9, 59, 0
1, 45843, Note_on_c, 9, 59, 74
1, 45859, Control_c, 0, 64, 127
1, 45903, Note_off_c, 9, 59, 0
1, 45910, Note_off_c, 0, 41, 0
1, 45917, Note_off_c, 0, 57, 0
1, 45930, Note_off_c, 0, 62, 0
1, 45933, Note_off_c, 0, 51, 0
1, 45960, Note_on_c, 9, 59, 99
1, 45961, Note_on_c, 0, 66, 0
1, 46020, Note_on_c, 9, 59, 0
1, 46050, Note_on_c, 1, 36, 51
1, 46051, Note_on_c, 9, 59, 50
1, 46068, Note_on_c, 1, 41, 0
1, 46072, Note_on_c, 1, 36, 0
1, 46076, Note_on_c, 9, 59, 0
1, 46081, Note_on_c, 0, 61, 31
1, 46082, Note_on_c, 0, 64, 34
1, 46084, Note_on_c, 1, 40, 59
1, 46084, Note_on_c, 9, 59, 66
1, 46085, Note_on_c, 0, 54, 30
1, 46085, Control_c, 0, 64, 0
1, 46087, Note_on_c, 0, 59, 31
1, 46092, Note_on_c, 0, 69, 0
1, 46134, Note_on_c, 9, 59, 0
1, 46200, Note_on_c, 9, 59, 99
1, 46207, Note_on_c, 0, 71, 105
1, 46224, Note_on_c, 0, 64, 0
1, 46229, Note_on_c, 0, 71, 0
1, 46239, Note_on_c, 0, 61, 0
1, 46275, Note_on_c, 0, 59, 0
1, 46284, Note_on_c, 0, 64, 55
1, 46310, Note_on_c, 0, 64, 0
1, 46331, Note_on_c, 0, 63, 33
1, 46335, Note_on_c, 1, 44, 66
1, 46375, Note_on_c, 0, 54, 0
1, 46375, Note_on_c, 9, 59, 0
1, 46394, Note_on_c, 0, 63, 0
1, 46402, Note_on_c, 0, 64, 60
1, 46408, Note_on_c, 9, 59, 49
1, 46428, Note_on_c, 9, 59, 0
1, 46436, Note_on_c, 0, 64, 0
1, 46448, Note_on_c, 0, 71, 61
1, 46449, Note_on_c, 9, 59, 84
1, 46460, Note_on_c, 1, 40, 0
1, 46462, Note_on_c, 0, 71, 0
1, 46517, Note_on_c, 9, 59, 0
1, 46517, Note_on_c, 0, 64, 53
1, 46536, Note_on_c, 1, 37, 52
1, 46545, Note_on_c, 0, 64, 0
1, 46552, Note_on_c, 1, 37, 0
1, 46564, Note_on_c, 1, 44, 0
1, 46569, Note_on_c, 0, 63, 15
1, 46569, Note_on_c, 9, 59, 99
1, 46572, Note_on_c, 1, 49, 76
1, 46627, Control_c, 0, 64, 127
1, 46632, Note_off_c, 0, 63, 0
1, 46635, Note_on_c, 0, 64, 44
1, 46662, Note_on_c, 9, 59, 0
1, 46669, Note_on_c, 0, 64, 0
1, 46670, Control_c, 0, 64, 0
1, 46676, Note_on_c, 0, 59, 51
1, 46677, Note_on_c, 0, 71, 77
1, 46678, Note_on_c, 0, 49, 37
1, 46685, Note_on_c, 0, 59, 0
1, 46689, Note_on_c, 0, 49, 0
1, 46690, Note_on_c, 9, 59, 50
1, 46717, Note_on_c, 9, 59, 0
1, 46731, Note_on_c, 0, 71, 0
1, 46754, Note_on_c, 0, 64, 62
1, 46761, Control_c, 0, 64, 127
1, 46761, Note_on_c, 9, 59, 94
1, 46767, Note_on_c, 1, 39, 54
1, 46787, Note_on_c, 0, 64, 0
1, 46791, Control_c, 0, 64, 0
1, 46794, Note_off_c, 1, 39, 0
1, 46797, Note_on_c, 0, 42, 37
1, 46800, Note_on_c, 0, 63, 34
1, 46802, Note_on_c, 0, 52, 22
1, 46812, Note_on_c, 1, 42, 73
1, 46820, Note_on_c, 1, 49, 0
1, 46829, Note_on_c, 0, 42, 0
1, 46832, Control_c, 0, 64, 127
1, 46840, Note_off_c, 0, 52, 0
1, 46853, Note_off_c, 9, 59, 0
1, 46863, Note_off_c, 0, 63, 0
1, 46875, Note_on_c, 0, 64, 40
1, 46878, Note_on_c, 9, 59, 55
1, 46902, Note_on_c, 9, 59, 0
1, 46903, Note_on_c, 0, 64, 0
1, 46916, Note_on_c, 0, 61, 57
1, 46918, Note_on_c, 0, 71, 81
1, 46919, Note_on_c, 0, 59, 60
1, 46922, Control_c, 0, 64, 0
1, 46924, Note_on_c, 9, 59, 84
1, 46927, Note_on_c, 0, 57, 33
1, 46970, Note_on_c, 0, 57, 0
1, 46970, Note_on_c, 0, 59, 0
1, 46979, Control_c, 0, 64, 127
1, 46989, Note_off_c, 0, 61, 0
1, 46989, Note_off_c, 9, 59, 0
1, 46995, Note_on_c, 0, 64, 70
1, 47023, Note_on_c, 0, 71, 0
1, 47036, Control_c, 0, 64, 0
1, 47040, Note_on_c, 9, 59, 91
1, 47042, Note_on_c, 0, 64, 0
1, 47042, Note_on_c, 1, 42, 0
1, 47047, Note_on_c, 0, 63, 33
1, 47048, Note_on_c, 0, 61, 21
1, 47052, Note_on_c, 0, 57, 31
1, 47052, Note_on_c, 0, 59, 22
1, 47052, Note_on_c, 1, 36, 62
1, 47079, Note_on_c, 0, 59, 0
1, 47079, Control_c, 0, 64, 127
1, 47080, Note_off_c, 0, 57, 0
1, 47083, Note_off_c, 1, 36, 0
1, 47086, Note_off_c, 0, 61, 0
1, 47088, Note_off_c, 9, 59, 0
1, 47106, Note_off_c, 0, 63, 0
1, 47122, Note_on_c, 0, 64, 60
1, 47147, Note_on_c, 0, 64, 0
1, 47157, Note_on_c, 9, 59, 84
1, 47163, Note_on_c, 0, 51, 37
1, 47165, Control_c, 0, 64, 0
1, 47165, Note_on_c, 1, 35, 52
1, 47167, Note_on_c, 0, 62, 59
1, 47169, Note_on_c, 0, 47, 39
1, 47169, Note_on_c, 0, 57, 45
1, 47169, Note_on_c, 0, 71, 48
1, 47170, Note_on_c, 0, 67, 48
1, 47203, Note_on_c, 9, 59, 0
1, 47224, Control_c, 0, 64, 127
1, 47239, Note_off_c, 0, 57, 0
1, 47251, Note_on_c, 9, 59, 77
1, 47256, Note_on_c, 9, 53, 71
1, 47262, Note_on_c, 0, 67, 0
1, 47274, Note_on_c, 0, 62, 0
1, 47283, Note_on_c, 1, 47, 92
1, 47286, Note_on_c, 1, 35, 0
1, 47287, Note_on_c, 0, 62, 17
1, 47288, Note_on_c, 0, 67, 30
1, 47289, Note_on_c, 0, 57, 29
1, 47314, Note_on_c, 9, 59, 0
1, 47338, Note_on_c, 0, 57, 0
1, 47356, Note_on_c, 0, 62, 0
1, 47360, Note_on_c, 9, 53, 0
1, 47364, Note_on_c, 0, 51, 0
1, 47371, Note_on_c, 9, 59, 73
1, 47395, Note_on_c, 9, 59, 0
1, 47400, Note_on_c, 1, 47, 0
1, 47404, Note_on_c, 1, 39, 57
1, 47412, Note_on_c, 0, 57, 36
1, 47414, Note_on_c, 0, 51, 32
1, 47422, Note_on_c, 9, 59, 75
1, 47423, Note_on_c, 9, 53, 84
1, 47425, Note_on_c, 0, 67, 0
1, 47431, Note_on_c, 0, 47, 0
1, 47437, Note_on_c, 0, 71, 0
1, 47444, Note_on_c, 0, 51, 0
1, 47449, Note_on_c, 0, 57, 0
1, 47459, Note_on_c, 0, 69, 76
1, 47486, Note_on_c, 9, 59, 0
1, 47489, Note_on_c, 9, 53, 0
1, 47489, Note_on_c, 0, 69, 0
1, 47495, Note_on_c, 0, 66, 57
1, 47523, Note_on_c, 1, 39, 0
1, 47524, Note_on_c, 9, 59, 57
1, 47526, Note_on_c, 1, 40, 59
1, 47527, Control_c, 0, 64, 0
1, 47528, Note_off_c, 0, 66, 0
1, 47532, Note_on_c, 0, 62, 35
1, 47534, Note_on_c, 0, 52, 34
1, 47535, Note_on_c, 0, 55, 30
1, 47535, Note_on_c, 0, 67, 51
1, 47536, Note_on_c, 0, 59, 17
1, 47559, Note_on_c, 9, 59, 0
1, 47570, Control_c, 0, 64, 127
1, 47601, Note_on_c, 9, 59, 77
1, 47635, Note_on_c, 0, 67, 0
1, 47647, Note_on_c, 0, 52, 0
1, 47648, Note_on_c, 0, 55, 0
1, 47650, Note_on_c, 0, 59, 0
1, 47653, Note_on_c, 9, 59, 0
1, 47656, Note_on_c, 0, 62, 0
1, 47711, Note_on_c, 9, 59, 58
1, 47726, Note_on_c, 9, 59, 0
1, 47756, Note_on_c, 9, 59, 75
1, 47758, Control_c, 0, 64, 0
1, 47764, Note_on_c, 0, 81, 80
1, 47767, Note_on_c, 0, 62, 59
1, 47767, Note_on_c, 0, 76, 70
1, 47769, Note_on_c, 0, 78, 38
1, 47769, Note_on_c, 0, 55, 44
1, 47770, Note_on_c, 0, 59, 54
1, 47771, Note_on_c, 0, 66, 61
1, 47773, Note_on_c, 0, 69, 59
1, 47774, Note_on_c, 0, 79, 31
1, 47781, Note_on_c, 0, 79, 0
1, 47786, Note_on_c, 0, 55, 0
1, 47786, Note_on_c, 0, 78, 0
1, 47789, Note_on_c, 0, 66, 0
1, 47789, Control_c, 0, 64, 127
1, 47790, Note_off_c, 0, 69, 0
1, 47793, Note_off_c, 0, 62, 0
1, 47794, Note_off_c, 0, 59, 0
1, 47797, Note_off_c, 0, 81, 0
1, 47798, Note_off_c, 0, 76, 0
1, 47810, Control_c, 0, 64, 0
1, 47824, Note_off_c, 9, 59, 0
1, 47840, Note_on_c, 0, 83, 62
1, 47840, Note_on_c, 0, 62, 67
1, 47841, Note_on_c, 0, 66, 71
1, 47842, Note_on_c, 0, 76, 59
1, 47842, Note_on_c, 0, 79, 54
1, 47844, Note_on_c, 0, 59, 53
1, 47844, Note_on_c, 0, 71, 52
1, 47845, Note_on_c, 0, 55, 35
1, 47850, Note_on_c, 0, 71, 0
1, 47850, Note_on_c, 1, 44, 63
1, 47852, Note_on_c, 0, 55, 0
1, 47852, Note_on_c, 0, 62, 0
1, 47855, Note_on_c, 0, 66, 0
1, 47856, Note_on_c, 0, 76, 0
1, 47859, Note_on_c, 0, 79, 0
1, 47861, Note_on_c, 0, 59, 0
1, 47864, Note_on_c, 0, 83, 0
1, 47874, Note_on_c, 1, 44, 0
1, 47880, Note_on_c, 1, 40, 0
1, 47881, Note_on_c, 9, 59, 80
1, 47892, Note_on_c, 1, 45, 71
1, 47928, Note_on_c, 0, 93, 82
1, 47928, Note_on_c, 0, 65, 64
1, 47929, Note_on_c, 9, 59, 0
1, 47929, Note_on_c, 0, 61, 45
1, 47929, Note_on_c, 0, 55, 57
1, 47930, Note_on_c, 0, 88, 73
1, 47931, Note_on_c, 0, 60, 50
1, 47931, Note_on_c, 0, 81, 64
1, 47933, Note_on_c, 0, 58, 35
1, 47979, Control_c, 0, 64, 127
1, 47988, Note_off_c, 0, 55, 0
1, 47989, Note_off_c, 0, 65, 0
1, 47989, Note_off_c, 0, 60, 0
1, 47990, Note_off_c, 0, 88, 0
1, 47991, Note_off_c, 0, 81, 0
1, 47991, Note_off_c, 0, 61, 0
1, 47991, Note_off_c, 0, 93, 0
1, 47993, Note_off_c, 0, 58, 0
1, 47999, Note_on_c, 9, 59, 85
1, 48010, Note_on_c, 1, 40, 68
1, 48017, Control_c, 0, 64, 0
1, 48020, Note_on_c, 0, 91, 70
1, 48020, Note_on_c, 0, 65, 68
1, 48021, Note_on_c, 0, 88, 70
1, 48021, Note_on_c, 0, 60, 57
1, 48022, Note_on_c, 0, 61, 50
1, 48022, Note_on_c, 0, 79, 57
1, 48023, Note_on_c, 0, 55, 46
1, 48029, Note_on_c, 0, 55, 0
1, 48029, Note_on_c, 0, 88, 0
1, 48029, Note_on_c, 0, 65, 0
1, 48031, Note_on_c, 0, 61, 0
1, 48031, Note_on_c, 0, 79, 0
1, 48032, Note_on_c, 0, 60, 0
1, 48035, Note_on_c, 0, 91, 0
1, 48060, Note_on_c, 9, 59, 0
1, 48101, Note_on_c, 1, 45, 0
1, 48124, Note_on_c, 1, 40, 0
1, 48126, Note_on_c, 1, 33, 71
1, 48127, Note_on_c, 9, 59, 82
1, 48140, Control_c, 0, 64, 127
1, 48177, Note_off_c, 9, 59, 0
1, 48206, Note_on_c, 0, 61, 36
1, 48207, Note_on_c, 0, 65, 48
1, 48212, Note_on_c, 0, 55, 26
1, 48215, Note_on_c, 9, 59, 55
1, 48221, Note_on_c, 0, 65, 0
1, 48233, Note_on_c, 0, 55, 0
1, 48237, Note_on_c, 9, 59, 0
1, 48237, Note_on_c, 0, 61, 0
1, 48247, Note_on_c, 0, 67, 55
1, 48247, Note_on_c, 0, 76, 40
1, 48249, Note_on_c, 0, 64, 53
1, 48249, Note_on_c, 0, 55, 24
1, 48250, Note_on_c, 0, 60, 58
1, 48250, Control_c, 0, 64, 0
1, 48250, Note_on_c, 0, 72, 44
1, 48251, Note_on_c, 0, 59, 38
1, 48255, Note_on_c, 9, 59, 78
1, 48291, Control_c, 0, 64, 127
1, 48309, Note_off_c, 9, 59, 0
1, 48331, Note_off_c, 0, 72, 0
1, 48338, Note_off_c, 0, 76, 0
1, 48342, Note_off_c, 0, 67, 0
1, 48350, Note_off_c, 0, 64, 0
1, 48363, Note_on_c, 1, 45, 107
1, 48368, Note_on_c, 0, 59, 0
1, 48370, Note_on_c, 9, 59, 96
1, 48374, Note_on_c, 1, 33, 0
1, 48377, Note_on_c, 0, 60, 0
1, 48397, Note_on_c, 0, 55, 0
1, 48481, Note_on_c, 1, 37, 63
1, 48483, Note_on_c, 1, 45, 0
1, 48485, Note_on_c, 0, 64, 56
1, 48488, Note_on_c, 0, 55, 27
1, 48490, Note_on_c, 0, 59, 35
1, 48490, Note_on_c, 0, 60, 31
1, 48503, Note_on_c, 0, 60, 0
1, 48506, Note_on_c, 0, 64, 0
1, 48507, Note_on_c, 0, 59, 0
1, 48524, Note_on_c, 0, 67, 62
1, 48532, Note_on_c, 9, 59, 0
1, 48538, Note_on_c, 0, 67, 0
1, 48544, Note_on_c, 0, 55, 0
1, 48556, Note_on_c, 0, 69, 91
1, 48569, Note_on_c, 9, 59, 57
1, 48576, Note_on_c, 0, 69, 0
1, 48592, Note_on_c, 9, 59, 0
1, 48597, Note_on_c, 0, 70, 74
1, 48597, Note_on_c, 0, 65, 80
1, 48599, Note_on_c, 0, 60, 70
1, 48600, Note_on_c, 0, 54, 55
1, 48602, Control_c, 0, 64, 0
1, 48603, Note_on_c, 0, 62, 33
1, 48609, Note_on_c, 0, 62, 0
1, 48609, Note_on_c, 1, 38, 64
1, 48609, Note_on_c, 9, 59, 81
1, 48611, Note_on_c, 1, 37, 0
1, 48645, Control_c, 0, 64, 127
1, 48663, Note_off_c, 9, 59, 0
1, 48727, Note_on_c, 9, 53, 81
1, 48730, Note_on_c, 9, 52, 79
1, 48741, Note_on_c, 9, 52, 0
1, 48788, Note_on_c, 0, 65, 0
1, 48816, Note_on_c, 0, 70, 0
1, 48829, Note_on_c, 1, 40, 52
1, 48862, Note_on_c, 1, 40, 0
1, 48865, Note_on_c, 1, 38, 0
1, 48881, Note_on_c, 0, 60, 0
1, 48887, Note_on_c, 0, 71, 90
1, 48907, Note_on_c, 0, 54, 0
1, 48912, Note_on_c, 0, 71, 0
1, 48921, Note_on_c, 1, 42, 64
1, 48923, Note_on_c, 0, 72, 95
1, 48930, Note_on_c, 9, 53, 0
1, 48946, Note_on_c, 1, 42, 0
1, 48953, Note_on_c, 0, 72, 0
1, 48955, Control_c, 0, 64, 0
1, 48957, Note_on_c, 0, 59, 37
1, 48958, Note_on_c, 0, 62, 46
1, 48961, Note_on_c, 0, 54, 37
1, 48963, Note_on_c, 0, 74, 72
1, 48964, Note_on_c, 9, 51, 68
1, 48968, Note_on_c, 0, 72, 32
1, 48968, Note_on_c, 1, 43, 74
1, 48974, Note_on_c, 0, 72, 0
1, 48990, Note_on_c, 0, 74, 0
1, 49004, Note_on_c, 0, 71, 43
1, 49014, Control_c, 0, 64, 127
1, 49025, Note_off_c, 0, 71, 0
1, 49032, Note_off_c, 0, 62, 0
1, 49039, Note_on_c, 0, 66, 47
1, 49057, Note_on_c, 9, 51, 0
1, 49066, Control_c, 0, 64, 0
1, 49079, Note_off_c, 0, 66, 0
1, 49081, Note_on_c, 0, 62, 40
1, 49091, Note_on_c, 9, 51, 71
1, 49147, Note_on_c, 9, 51, 0
1, 49157, Note_on_c, 0, 62, 0
1, 49172, Note_on_c, 1, 43, 0
1, 49173, Note_on_c, 0, 62, 47
1, 49201, Note_on_c, 1, 42, 57
1, 49207, Control_c, 0, 64, 127
1, 49215, Note_on_c, 9, 51, 85
1, 49233, Note_on_c, 1, 42, 0
1, 49239, Note_on_c, 0, 59, 0
1, 49245, Note_on_c, 0, 54, 0
1, 49283, Note_on_c, 1, 39, 59
1, 49287, Note_on_c, 9, 51, 0
1, 49291, Note_on_c, 0, 62, 0
1, 49316, Control_c, 0, 64, 0
1, 49319, Note_on_c, 0, 62, 26
1, 49320, Note_on_c, 1, 39, 0
1, 49321, Note_on_c, 0, 59, 24
1, 49321, Note_on_c, 0, 52, 36
1, 49325, Note_on_c, 0, 55, 30
1, 49333, Note_on_c, 1, 40, 64
1, 49339, Note_on_c, 9, 51, 42
1, 49380, Note_on_c, 9, 51, 0
1, 49380, Control_c, 0, 64, 127
1, 49438, Control_c, 0, 64, 0
1, 49448, Note_on_c, 0, 71, 44
1, 49450, Note_on_c, 9, 51, 95
1, 49478, Note_on_c, 0, 71, 0
1, 49483, Note_on_c, 0, 78, 83
1, 49511, Note_on_c, 9, 51, 0
1, 49515, Note_on_c, 0, 78, 0
1, 49522, Note_on_c, 0, 74, 74
1, 49540, Note_on_c, 0, 55, 0
1, 49543, Note_on_c, 0, 59, 0
1, 49544, Note_on_c, 9, 51, 56
1, 49547, Note_on_c, 0, 52, 0
1, 49559, Control_c, 0, 64, 127
1, 49560, Note_off_c, 9, 51, 0
1, 49575, Note_on_c, 9, 51, 77
1, 49586, Note_on_c, 0, 62, 0
1, 49592, Control_c, 0, 64, 0
1, 49599, Note_on_c, 1, 47, 75
1, 49604, Note_on_c, 1, 40, 0
1, 49605, Note_on_c, 0, 74, 0
1, 49606, Control_c, 0, 64, 127
1, 49610, Note_on_c, 0, 71, 49
1, 49617, Note_on_c, 9, 51, 0
1, 49639, Note_on_c, 0, 71, 0
1, 49642, Note_on_c, 0, 78, 74
1, 49680, Control_c, 0, 64, 0
1, 49683, Note_off_c, 0, 78, 0
1, 49684, Note_on_c, 0, 64, 24
1, 49685, Note_on_c, 0, 74, 32
1, 49685, Note_on_c, 0, 60, 32
1, 49685, Note_on_c, 9, 51, 86
1, 49686, Note_on_c, 0, 59, 29
1, 49705, Note_on_c, 0, 74, 0
1, 49720, Note_on_c, 0, 74, 41
1, 49735, Note_on_c, 0, 74, 0
1, 49735, Note_on_c, 0, 55, 1
1, 49805, Note_on_c, 1, 47, 0
1, 49807, Note_on_c, 0, 74, 59
1, 49810, Note_on_c, 1, 45, 72
1, 49817, Note_on_c, 9, 51, 0
1, 49817, Note_on_c, 0, 55, 0
1, 49820, Note_on_c, 0, 59, 0
1, 49821, Note_on_c, 0, 74, 0
1, 49823, Note_on_c, 0, 64, 0
1, 49824, Note_on_c, 0, 60, 0
1, 49840, Note_on_c, 0, 74, 42
1, 49850, Note_on_c, 0, 74, 0
1, 49879, Note_on_c, 9, 51, 68
1, 49899, Note_on_c, 9, 51, 0
1, 49921, Note_on_c, 9, 51, 74
1, 49986, Note_on_c, 0, 74, 79
1, 50002, Note_on_c, 0, 74, 0
1, 50007, Note_on_c, 9, 51, 0
1, 50010, Note_on_c, 1, 37, 41
1, 50017, Note_on_c, 0, 74, 63
1, 50030, Note_on_c, 0, 74, 0
1, 50033, Note_on_c, 1, 45, 0
1, 50044, Note_on_c, 1, 37, 0
1, 50044, Note_on_c, 1, 38, 68
1, 50106, Note_on_c, 9, 51, 62
1, 50119, Note_on_c, 9, 51, 0
1, 50136, Note_on_c, 9, 51, 73
1, 50151, Note_on_c, 0, 74, 95
1, 50153, Note_on_c, 0, 64, 71
1, 50154, Note_on_c, 0, 60, 57
1, 50155, Note_on_c, 0, 54, 49
1, 50156, Note_on_c, 0, 59, 57
1, 50160, Note_on_c, 9, 51, 0
1, 50170, Note_on_c, 0, 74, 0
1, 50171, Note_on_c, 0, 64, 0
1, 50174, Note_on_c, 0, 59, 0
1, 50175, Note_on_c, 0, 60, 0
1, 50176, Note_on_c, 0, 54, 0
1, 50245, Note_on_c, 0, 74, 110
1, 50245, Note_on_c, 0, 64, 82
1, 50245, Note_on_c, 0, 60, 71
1, 50246, Note_on_c, 0, 54, 65
1, 50247, Note_on_c, 0, 59, 69
1, 50247, Note_on_c, 9, 51, 72
1, 50262, Note_on_c, 1, 31, 56
1, 50263, Note_on_c, 1, 38, 0
1, 50266, Note_on_c, 9, 51, 0
1, 50276, Note_on_c, 0, 64, 0
1, 50277, Note_on_c, 0, 54, 0
1, 50277, Note_on_c, 0, 74, 0
1, 50277, Control_c, 0, 64, 127
1, 50280, Note_off_c, 0, 60, 0
1, 50280, Note_off_c, 0, 59, 0
1, 50281, Note_on_c, 9, 51, 71
1, 50291, Note_on_c, 0, 74, 80
1, 50292, Note_on_c, 0, 64, 65
1, 50293, Note_on_c, 0, 54, 52
1, 50297, Note_on_c, 0, 59, 58
1, 50297, Note_on_c, 0, 60, 67
1, 50300, Note_on_c, 9, 51, 0
1, 50315, Note_on_c, 0, 64, 0
1, 50318, Note_on_c, 0, 59, 0
1, 50318, Note_on_c, 0, 60, 0
1, 50319, Note_on_c, 0, 54, 0
1, 50320, Note_on_c, 0, 74, 0
1, 50358, Note_on_c, 9, 51, 71
1, 50360, Control_c, 0, 64, 0
1, 50368, Control_c, 0, 64, 127
1, 50368, Note_on_c, 0, 54, 65
1, 50369, Note_on_c, 0, 64, 65
1, 50371, Note_on_c, 0, 72, 80
1, 50371, Note_on_c, 0, 60, 47
1, 50375, Note_on_c, 9, 51, 0
1, 50380, Note_on_c, 0, 64, 0
1, 50382, Note_on_c, 1, 31, 0
1, 50384, Note_on_c, 0, 60, 0
1, 50386, Note_on_c, 9, 51, 49
1, 50396, Note_on_c, 0, 54, 0
1, 50400, Note_on_c, 0, 72, 0
1, 50402, Note_on_c, 1, 31, 74
1, 50408, Note_on_c, 9, 51, 0
1, 50410, Note_on_c, 0, 62, 48
1, 50411, Note_on_c, 0, 59, 49
1, 50413, Control_c, 0, 64, 0
1, 50413, Note_on_c, 0, 71, 71
1, 50413, Note_on_c, 0, 53, 47
1, 50451, Control_c, 0, 64, 127
1, 50504, Note_on_c, 9, 51, 37
1, 50509, Note_on_c, 0, 62, 0
1, 50514, Note_on_c, 9, 51, 0
1, 50521, Note_on_c, 0, 71, 0
1, 50521, Note_on_c, 0, 62, 37
1, 50526, Note_on_c, 0, 72, 74
1, 50530, Control_c, 0, 64, 0
1, 50530, Note_on_c, 9, 51, 67
1, 50544, Control_c, 0, 64, 127
1, 50549, Note_off_c, 9, 51, 0
1, 50577, Note_off_c, 0, 53, 0
1, 50584, Note_off_c, 0, 62, 0
1, 50604, Note_off_c, 0, 59, 0
1, 50623, Note_off_c, 0, 72, 0
1, 50636, Note_on_c, 0, 59, 38
1, 50637, Note_on_c, 0, 62, 38
1, 50638, Note_on_c, 0, 53, 41
1, 50638, Note_on_c, 9, 51, 86
1, 50639, Note_on_c, 0, 74, 57
1, 50657, Note_on_c, 0, 53, 0
1, 50671, Note_on_c, 0, 62, 0
1, 50672, Note_on_c, 0, 59, 0
1, 50678, Note_on_c, 0, 74, 0
1, 50720, Note_on_c, 9, 51, 0
1, 50725, Note_on_c, 1, 38, 42
1, 50748, Note_on_c, 1, 38, 0
1, 50756, Note_on_c, 1, 31, 0
1, 50756, Note_on_c, 0, 75, 83
1, 50757, Note_on_c, 0, 59, 64
1, 50758, Note_on_c, 0, 53, 71
1, 50758, Note_on_c, 0, 79, 62
1, 50759, Note_on_c, 0, 71, 80
1, 50759, Note_on_c, 0, 64, 74
1, 50759, Note_on_c, 0, 83, 73
1, 50759, Note_on_c, 1, 43, 77
1, 50764, Control_c, 0, 64, 0
1, 50764, Note_on_c, 0, 81, 39
1, 50765, Note_on_c, 9, 51, 42
1, 50771, Note_on_c, 0, 81, 0
1, 50776, Note_on_c, 9, 51, 0
1, 50808, Control_c, 0, 64, 127
1, 50809, Note_off_c, 0, 75, 0
1, 50852, Note_on_c, 9, 51, 62
1, 50867, Note_on_c, 9, 51, 0
1, 50884, Note_on_c, 9, 51, 70
1, 50886, Note_on_c, 0, 71, 0
1, 50892, Note_on_c, 0, 79, 0
1, 50898, Note_on_c, 0, 83, 0
1, 50901, Note_on_c, 0, 64, 0
1, 50906, Note_on_c, 0, 59, 0
1, 50918, Note_on_c, 0, 53, 0
1, 50922, Note_on_c, 9, 51, 0
1, 50984, Note_on_c, 1, 43, 0
1, 50994, Note_on_c, 1, 35, 58
1, 50995, Note_on_c, 9, 51, 68
1, 50998, Note_on_c, 9, 53, 66
1, 51037, Note_on_c, 0, 63, 49
1, 51037, Note_on_c, 0, 53, 53
1, 51038, Note_on_c, 0, 73, 39
1, 51039, Note_on_c, 0, 81, 56
1, 51040, Control_c, 0, 64, 0
1, 51040, Note_on_c, 0, 59, 51
1, 51041, Note_on_c, 0, 69, 44
1, 51041, Note_on_c, 0, 56, 37
1, 51043, Note_on_c, 0, 77, 38
1, 51051, Note_on_c, 0, 63, 0
1, 51054, Note_on_c, 0, 81, 0
1, 51056, Note_on_c, 0, 77, 0
1, 51057, Note_on_c, 0, 69, 0
1, 51059, Note_on_c, 0, 59, 0
1, 51061, Note_on_c, 0, 73, 0
1, 51065, Note_on_c, 9, 51, 0
1, 51070, Note_on_c, 0, 63, 42
1, 51071, Note_on_c, 0, 79, 37
1, 51072, Control_c, 0, 64, 127
1, 51076, Note_off_c, 9, 53, 0
1, 51076, Note_on_c, 0, 59, 24
1, 51085, Note_on_c, 0, 53, 0
1, 51085, Note_on_c, 0, 79, 0
1, 51086, Note_on_c, 0, 63, 0
1, 51088, Note_on_c, 0, 59, 0
1, 51092, Note_on_c, 0, 56, 0
1, 51101, Note_on_c, 1, 35, 0
1, 51109, Control_c, 0, 64, 0
1, 51111, Note_on_c, 0, 62, 45
1, 51111, Note_on_c, 0, 71, 43
1, 51112, Note_on_c, 0, 59, 36
1, 51112, Note_on_c, 1, 36, 63
1, 51113, Note_on_c, 0, 76, 39
1, 51119, Note_on_c, 0, 62, 0
1, 51119, Note_on_c, 0, 52, 24
1, 51122, Note_on_c, 9, 51, 51
1, 51125, Note_on_c, 0, 52, 0
1, 51125, Note_on_c, 0, 71, 0
1, 51126, Note_on_c, 0, 76, 0
1, 51126, Note_on_c, 0, 59, 0
1, 51139, Note_on_c, 9, 51, 0
1, 51192, Note_on_c, 0, 76, 35
1, 51193, Note_on_c, 0, 59, 29
1, 51196, Note_on_c, 0, 67, 53
1, 51197, Control_c, 0, 64, 127
1, 51197, Note_on_c, 0, 71, 47
1, 51198, Note_on_c, 0, 52, 38
1, 51200, Note_on_c, 0, 55, 51
1, 51203, Note_on_c, 0, 54, 25
1, 51203, Note_on_c, 9, 51, 69
1, 51206, Note_on_c, 9, 53, 62
1, 51209, Note_on_c, 0, 54, 0
1, 51222, Control_c, 0, 64, 0
1, 51260, Control_c, 0, 64, 127
1, 51285, Note_off_c, 9, 51, 0
1, 51300, Note_off_c, 9, 53, 0
1, 51326, Note_on_c, 9, 51, 37
1, 51337, Note_on_c, 9, 51, 0
1, 51368, Note_on_c, 0, 59, 0
1, 51369, Note_on_c, 9, 53, 77
1, 51369, Note_on_c, 9, 51, 60
1, 51371, Note_on_c, 0, 55, 0
1, 51382, Note_on_c, 0, 52, 0
1, 51403, Note_on_c, 0, 71, 0
1, 51403, Note_on_c, 0, 76, 0
1, 51404, Note_on_c, 0, 67, 0
1, 51445, Note_on_c, 9, 51, 0
1, 51465, Note_on_c, 9, 53, 0
1, 51475, Note_on_c, 1, 36, 0
1, 51478, Note_on_c, 1, 35, 65
1, 51485, Note_on_c, 9, 51, 56
1, 51508, Note_on_c, 9, 51, 0
1, 51554, Note_on_c, 0, 47, 60
1, 51561, Control_c, 0, 64, 0
1, 51564, Note_on_c, 9, 51, 71
1, 51567, Note_on_c, 9, 53, 69
1, 51597, Control_c, 0, 64, 127
1, 51602, Note_off_c, 9, 51, 0
1, 51605, Note_off_c, 9, 53, 0
1, 51609, Note_on_c, 0, 51, 52
1, 51670, Note_on_c, 1, 35, 0
1, 51675, Note_on_c, 0, 57, 56
1, 51684, Note_on_c, 1, 39, 89
1, 51684, Note_on_c, 9, 51, 52
1, 51696, Note_on_c, 9, 51, 0
1, 51717, Note_on_c, 0, 57, 0
1, 51722, Note_on_c, 9, 51, 62
1, 51726, Note_on_c, 9, 53, 72
1, 51736, Control_c, 0, 64, 0
1, 51738, Note_on_c, 0, 57, 53
1, 51741, Note_on_c, 0, 65, 69
1, 51742, Note_on_c, 0, 69, 60
1, 51743, Note_on_c, 0, 60, 56
1, 51765, Note_on_c, 0, 60, 0
1, 51767, Note_on_c, 0, 69, 0
1, 51770, Note_on_c, 9, 53, 0
1, 51771, Note_on_c, 0, 51, 0
1, 51772, Note_on_c, 9, 51, 0
1, 51773, Control_c, 0, 64, 127
1, 51780, Note_off_c, 0, 65, 0
1, 51786, Control_c, 0, 64, 0
1, 51797, Note_on_c, 0, 72, 71
1, 51799, Note_on_c, 0, 51, 49
1, 51800, Note_on_c, 0, 47, 0
1, 51812, Control_c, 0, 64, 127
1, 51813, Note_off_c, 0, 51, 0
1, 51820, Note_off_c, 0, 72, 0
1, 51846, Note_on_c, 9, 51, 84
1, 51848, Note_on_c, 0, 62, 53
1, 51849, Note_on_c, 0, 71, 45
1, 51849, Note_on_c, 0, 66, 48
1, 51852, Note_on_c, 0, 57, 0
1, 51853, Note_on_c, 1, 39, 0
1, 51854, Control_c, 0, 64, 0
1, 51854, Note_on_c, 0, 52, 40
1, 51857, Note_on_c, 1, 40, 96
1, 51900, Control_c, 0, 64, 127
1, 51912, Note_off_c, 9, 51, 0
1, 51921, Note_off_c, 0, 62, 0
1, 51921, Note_on_c, 0, 59, 48
1, 51935, Note_on_c, 0, 66, 0
1, 51965, Note_on_c, 0, 71, 0
1, 51969, Note_on_c, 0, 67, 58
1, 51970, Note_on_c, 9, 51, 75
1, 51971, Note_on_c, 0, 62, 49
1, 52020, Note_on_c, 9, 51, 0
1, 52024, Note_on_c, 0, 62, 0
1, 52027, Note_on_c, 0, 67, 0
1, 52047, Note_on_c, 0, 62, 61
1, 52089, Note_on_c, 9, 51, 81
1, 52090, Note_on_c, 0, 62, 0
1, 52102, Note_on_c, 0, 52, 0
1, 52103, Note_on_c, 0, 59, 0
1, 52125, Note_on_c, 0, 66, 69
1, 52130, Note_on_c, 9, 51, 0
1, 52149, Note_on_c, 0, 66, 0
1, 52157, Note_on_c, 0, 64, 71
1, 52173, Note_on_c, 1, 40, 0
1, 52175, Note_on_c, 1, 39, 56
1, 52177, Note_on_c, 9, 51, 57
1, 52185, Note_on_c, 0, 64, 0
1, 52194, Control_c, 0, 64, 0
1, 52198, Note_on_c, 0, 62, 52
1, 52199, Note_on_c, 9, 51, 0
1, 52215, Note_on_c, 9, 51, 77
1, 52216, Note_on_c, 1, 42, 81
1, 52233, Note_on_c, 1, 39, 0
1, 52245, Control_c, 0, 64, 127
1, 52261, Note_off_c, 9, 51, 0
1, 52268, Note_on_c, 0, 42, 61
1, 52281, Note_on_c, 0, 42, 0
1, 52331, Note_on_c, 9, 51, 93
1, 52339, Note_on_c, 0, 63, 77
1, 52339, Note_on_c, 0, 52, 72
1, 52340, Note_on_c, 0, 58, 71
1, 52341, Note_on_c, 0, 62, 0
1, 52345, Control_c, 0, 64, 0
1, 52382, Control_c, 0, 64, 127
1, 52397, Note_off_c, 0, 52, 0
1, 52402, Note_off_c, 0, 63, 0
1, 52405, Note_off_c, 0, 58, 0
1, 52416, Note_on_c, 0, 63, 63
1, 52417, Note_on_c, 0, 58, 64
1, 52418, Note_on_c, 0, 52, 65
1, 52421, Control_c, 0, 64, 0
1, 52445, Control_c, 0, 64, 127
1, 52450, Note_off_c, 9, 51, 0
1, 52482, Note_off_c, 0, 52, 0
1, 52491, Note_off_c, 0, 63, 0
1, 52501, Note_off_c, 0, 58, 0
1, 52525, Note_on_c, 1, 39, 46
1, 52526, Note_on_c, 0, 73, 54
1, 52530, Note_on_c, 9, 51, 60
1, 52551, Note_on_c, 9, 51, 0
1, 52557, Note_on_c, 0, 73, 0
1, 52563, Note_on_c, 1, 47, 107
1, 52568, Control_c, 0, 64, 0
1, 52569, Note_on_c, 0, 62, 39
1, 52569, Note_on_c, 0, 66, 37
1, 52571, Note_on_c, 0, 57, 33
1, 52572, Note_on_c, 0, 74, 56
1, 52572, Note_on_c, 9, 51, 71
1, 52584, Note_on_c, 0, 57, 0
1, 52584, Note_on_c, 1, 39, 0
1, 52585, Note_on_c, 0, 66, 0
1, 52587, Note_on_c, 0, 62, 0
1, 52589, Note_on_c, 1, 42, 0
1, 52592, Note_on_c, 0, 74, 0
1, 52633, Note_on_c, 9, 51, 0
1, 52644, Note_on_c, 0, 66, 48
1, 52646, Note_on_c, 0, 76, 54
1, 52647, Note_on_c, 0, 62, 40
1, 52648, Note_on_c, 0, 57, 42
1, 52649, Control_c, 0, 64, 127
1, 52667, Note_off_c, 0, 57, 0
1, 52671, Note_off_c, 0, 66, 0
1, 52677, Note_off_c, 0, 76, 0
1, 52679, Note_off_c, 0, 62, 0
1, 52690, Note_on_c, 0, 66, 43
1, 52691, Note_on_c, 0, 78, 58
1, 52692, Note_on_c, 0, 62, 37
1, 52692, Note_on_c, 0, 57, 40
1, 52760, Note_on_c, 0, 57, 0
1, 52762, Note_on_c, 0, 66, 0
1, 52764, Note_on_c, 9, 51, 60
1, 52765, Note_on_c, 0, 78, 0
1, 52765, Note_on_c, 1, 41, 99
1, 52775, Note_on_c, 0, 62, 0
1, 52775, Note_on_c, 1, 47, 0
1, 52785, Note_on_c, 9, 51, 0
1, 52804, Note_on_c, 9, 51, 72
1, 52864, Note_on_c, 9, 51, 0
1, 52878, Note_on_c, 0, 66, 45
1, 52879, Note_on_c, 0, 78, 50
1, 52884, Note_on_c, 0, 57, 33
1, 52886, Note_on_c, 0, 62, 22
1, 52890, Note_on_c, 1, 39, 54
1, 52894, Note_on_c, 0, 57, 0
1, 52900, Note_on_c, 0, 62, 0
1, 52903, Note_on_c, 1, 41, 0
1, 52909, Note_on_c, 0, 78, 0
1, 52914, Note_on_c, 0, 66, 0
1, 52925, Note_on_c, 9, 51, 83
1, 52927, Note_on_c, 1, 39, 0
1, 52929, Note_on_c, 0, 62, 42
1, 52929, Note_on_c, 0, 78, 40
1, 52930, Note_on_c, 0, 56, 45
1, 52932, Control_c, 0, 64, 0
1, 52934, Note_on_c, 1, 40, 94
1, 52973, Control_c, 0, 64, 127
1, 52981, Note_off_c, 9, 51, 0
1, 52997, Note_off_c, 0, 56, 0
1, 53001, Note_off_c, 0, 62, 0
1, 53047, Note_on_c, 9, 51, 92
1, 53052, Note_on_c, 0, 78, 0
1, 53106, Note_on_c, 9, 51, 0
1, 53107, Note_on_c, 1, 40, 0
1, 53114, Note_on_c, 0, 88, 83
1, 53116, Note_on_c, 0, 84, 74
1, 53116, Note_on_c, 0, 62, 74
1, 53116, Note_on_c, 0, 56, 69
1, 53117, Note_on_c, 0, 67, 78
1, 53118, Note_on_c, 0, 81, 67
1, 53118, Note_on_c, 0, 76, 64
1, 53120, Control_c, 0, 64, 0
1, 53121, Note_on_c, 1, 34, 87
1, 53124, Note_on_c, 0, 86, 24
1, 53144, Note_on_c, 0, 88, 0
1, 53146, Control_c, 0, 64, 127
1, 53147, Note_off_c, 0, 86, 0
1, 53152, Note_off_c, 0, 81, 0
1, 53156, Note_off_c, 0, 76, 0
1, 53158, Note_off_c, 0, 84, 0
1, 53162, Note_off_c, 0, 67, 0
1, 53164, Note_off_c, 0, 62, 0
1, 53166, Note_on_c, 9, 51, 82
1, 53172, Note_on_c, 0, 56, 0
1, 53196, Note_on_c, 0, 86, 71
1, 53199, Note_on_c, 0, 83, 68
1, 53199, Note_on_c, 0, 62, 68
1, 53199, Note_on_c, 0, 56, 60
1, 53201, Note_on_c, 0, 67, 60
1, 53201, Note_on_c, 0, 79, 66
1, 53201, Note_on_c, 0, 74, 73
1, 53205, Control_c, 0, 64, 0
1, 53210, Note_off_c, 9, 51, 0
1, 53212, Control_c, 0, 64, 127
1, 53224, Note_off_c, 0, 67, 0
1, 53229, Note_off_c, 0, 62, 0
1, 53237, Note_off_c, 0, 83, 0
1, 53238, Note_off_c, 0, 86, 0
1, 53239, Note_off_c, 0, 79, 0
1, 53247, Note_off_c, 0, 74, 0
1, 53247, Note_off_c, 0, 56, 0
1, 53254, Note_on_c, 9, 51, 60
1, 53266, Note_on_c, 9, 51, 0
1, 53278, Control_c, 0, 64, 0
1, 53278, Note_on_c, 0, 84, 68
1, 53279, Note_on_c, 1, 34, 0
1, 53281, Note_on_c, 0, 55, 56
1, 53281, Note_on_c, 0, 79, 69
1, 53282, Note_on_c, 0, 57, 60
1, 53283, Note_on_c, 0, 64, 68
1, 53283, Note_on_c, 0, 60, 51
1, 53284, Note_on_c, 0, 72, 72
1, 53286, Note_on_c, 9, 51, 71
1, 53289, Note_on_c, 1, 33, 71
1, 53302, Control_c, 0, 64, 127
1, 53323, Note_off_c, 0, 79, 0
1, 53323, Note_off_c, 0, 84, 0
1, 53326, Note_off_c, 0, 72, 0
1, 53327, Note_off_c, 0, 60, 0
1, 53328, Note_off_c, 0, 55, 0
1, 53329, Note_off_c, 9, 51, 0
1, 53330, Note_off_c, 0, 64, 0
1, 53332, Note_off_c, 0, 57, 0
1, 53365, Note_on_c, 0, 86, 67
1, 53367, Control_c, 0, 64, 0
1, 53367, Note_on_c, 0, 55, 66
1, 53368, Note_on_c, 0, 79, 64
1, 53369, Note_on_c, 0, 57, 58
1, 53369, Note_on_c, 0, 64, 62
1, 53370, Note_on_c, 0, 60, 49
1, 53370, Note_on_c, 0, 83, 50
1, 53371, Note_on_c, 0, 74, 60
1, 53393, Control_c, 0, 64, 127
1, 53401, Note_on_c, 9, 51, 75
1, 53403, Note_on_c, 0, 74, 0
1, 53404, Note_on_c, 0, 79, 0
1, 53410, Note_on_c, 0, 55, 0
1, 53411, Note_on_c, 0, 83, 0
1, 53411, Note_on_c, 0, 86, 0
1, 53412, Note_on_c, 0, 64, 0
1, 53412, Note_on_c, 0, 60, 0
1, 53416, Note_on_c, 0, 57, 0
1, 53448, Note_on_c, 0, 88, 65
1, 53449, Note_on_c, 9, 51, 0
1, 53449, Note_on_c, 0, 55, 62
1, 53450, Control_c, 0, 64, 0
1, 53451, Note_on_c, 0, 57, 58
1, 53451, Note_on_c, 0, 84, 50
1, 53451, Note_on_c, 0, 64, 57
1, 53452, Note_on_c, 0, 81, 55
1, 53452, Note_on_c, 0, 60, 54
1, 53453, Note_on_c, 0, 76, 48
1, 53481, Control_c, 0, 64, 127
1, 53482, Note_on_c, 1, 40, 91
1, 53497, Note_on_c, 0, 81, 0
1, 53498, Note_on_c, 0, 76, 0
1, 53499, Note_on_c, 1, 33, 0
1, 53500, Note_on_c, 0, 55, 0
1, 53501, Note_on_c, 0, 60, 0
1, 53501, Note_on_c, 0, 84, 0
1, 53501, Note_on_c, 0, 64, 0
1, 53502, Note_on_c, 0, 57, 0
1, 53505, Note_on_c, 0, 88, 0
1, 53517, Note_on_c, 9, 51, 60
1, 53527, Note_on_c, 0, 55, 60
1, 53528, Control_c, 0, 64, 0
1, 53528, Note_on_c, 0, 88, 55
1, 53529, Note_on_c, 0, 64, 58
1, 53531, Note_on_c, 0, 84, 53
1, 53531, Note_on_c, 0, 57, 58
1, 53531, Note_on_c, 0, 76, 36
1, 53532, Note_on_c, 0, 81, 51
1, 53532, Note_on_c, 0, 60, 54
1, 53544, Control_c, 0, 64, 127
1, 53553, Note_off_c, 9, 51, 0
1, 53586, Note_off_c, 0, 60, 0
1, 53587, Note_off_c, 0, 64, 0
1, 53588, Note_off_c, 0, 81, 0
1, 53594, Note_off_c, 0, 55, 0
1, 53594, Note_off_c, 0, 57, 0
1, 53596, Note_off_c, 0, 84, 0
1, 53597, Note_off_c, 0, 88, 0
1, 53600, Note_off_c, 0, 76, 0
1, 53617, Note_on_c, 1, 37, 59
1, 53622, Note_on_c, 1, 40, 0
1, 53635, Note_on_c, 9, 59, 75
1, 53638, Note_on_c, 9, 51, 76
1, 53650, Note_on_c, 0, 80, 36
1, 53651, Control_c, 0, 64, 0
1, 53651, Note_on_c, 0, 88, 43
1, 53651, Note_on_c, 0, 76, 32
1, 53652, Note_on_c, 0, 64, 55
1, 53652, Note_on_c, 0, 84, 38
1, 53652, Note_on_c, 0, 60, 45
1, 53655, Note_on_c, 0, 54, 38
1, 53657, Note_on_c, 1, 38, 84
1, 53674, Note_on_c, 1, 37, 0
1, 53712, Note_on_c, 9, 59, 0
1, 53713, Control_c, 0, 64, 127
1, 53717, Note_off_c, 9, 51, 0
1, 53753, Note_off_c, 0, 76, 0
1, 53754, Note_off_c, 0, 88, 0
1, 53760, Note_off_c, 0, 84, 0
1, 53765, Note_on_c, 9, 51, 46
1, 53767, Note_on_c, 0, 80, 0
1, 53768, Note_on_c, 0, 64, 0
1, 53771, Note_on_c, 0, 54, 0
1, 53771, Note_on_c, 0, 60, 0
1, 53796, Note_on_c, 9, 51, 0
1, 53835, Note_on_c, 1, 38, 0
1, 53838, Note_on_c, 0, 60, 54
1, 53838, Note_on_c, 0, 64, 61
1, 53839, Note_on_c, 0, 74, 55
1, 53839, Note_on_c, 9, 51, 76
1, 53840, Note_on_c, 0, 54, 45
1, 53840, Control_c, 0, 64, 0
1, 53840, Note_on_c, 0, 80, 36
1, 53840, Note_on_c, 1, 36, 89
1, 53841, Note_on_c, 0, 83, 33
1, 53841, Note_on_c, 0, 86, 41
1, 53855, Note_on_c, 0, 64, 0
1, 53858, Note_on_c, 0, 83, 0
1, 53860, Note_on_c, 0, 60, 0
1, 53862, Note_on_c, 0, 86, 0
1, 53862, Note_on_c, 0, 74, 0
1, 53863, Note_on_c, 0, 80, 0
1, 53863, Control_c, 0, 64, 127
1, 53867, Note_off_c, 0, 54, 0
1, 53882, Control_c, 0, 64, 0
1, 53912, Note_on_c, 0, 72, 53
1, 53913, Note_on_c, 0, 84, 40
1, 53913, Note_on_c, 0, 81, 50
1, 53915, Note_on_c, 0, 54, 43
1, 53915, Note_on_c, 0, 64, 52
1, 53916, Note_on_c, 0, 60, 47
1, 53918, Note_on_c, 9, 51, 0
1, 53921, Control_c, 0, 64, 127
1, 53927, Note_off_c, 0, 60, 0
1, 53932, Note_off_c, 0, 54, 0
1, 53932, Note_off_c, 0, 64, 0
1, 53935, Note_off_c, 0, 81, 0
1, 53939, Note_off_c, 0, 84, 0
1, 53939, Note_off_c, 0, 72, 0
1, 53961, Note_on_c, 9, 51, 58
1, 53982, Note_on_c, 9, 51, 0
1, 53986, Note_on_c, 1, 36, 0
1, 53999, Note_on_c, 1, 35, 81
1, 54008, Note_on_c, 9, 51, 71
1, 54062, Note_on_c, 0, 83, 82
1, 54063, Control_c, 0, 64, 0
1, 54063, Note_on_c, 0, 79, 83
1, 54064, Note_on_c, 0, 63, 57
1, 54064, Note_on_c, 0, 62, 67
1, 54064, Note_on_c, 0, 74, 87
1, 54065, Note_on_c, 0, 57, 73
1, 54065, Note_on_c, 0, 67, 78
1, 54070, Note_on_c, 9, 51, 0
1, 54070, Note_on_c, 0, 81, 35
1, 54077, Note_on_c, 0, 81, 0
1, 54092, Control_c, 0, 64, 127
1, 54114, Note_off_c, 0, 74, 0
1, 54115, Note_on_c, 9, 51, 56
1, 54116, Note_on_c, 0, 79, 0
1, 54118, Note_on_c, 0, 57, 0
1, 54118, Note_on_c, 0, 62, 0
1, 54119, Note_on_c, 0, 67, 0
1, 54120, Note_on_c, 0, 83, 0
1, 54124, Note_on_c, 0, 63, 0
1, 54138, Note_on_c, 9, 51, 0
1, 54141, Note_on_c, 0, 63, 60
1, 54141, Note_on_c, 0, 84, 78
1, 54142, Note_on_c, 0, 81, 84
1, 54142, Note_on_c, 0, 62, 57
1, 54143, Note_on_c, 0, 67, 67
1, 54143, Note_on_c, 0, 57, 77
1, 54182, Note_on_c, 9, 51, 83
1, 54186, Note_on_c, 0, 81, 0
1, 54190, Note_on_c, 0, 84, 0
1, 54191, Note_on_c, 0, 57, 0
1, 54193, Note_on_c, 0, 62, 0
1, 54196, Note_on_c, 0, 67, 0
1, 54198, Note_on_c, 0, 63, 0
1, 54227, Control_c, 0, 64, 0
1, 54229, Note_on_c, 0, 63, 52
1, 54230, Note_on_c, 0, 86, 64
1, 54230, Note_on_c, 0, 57, 71
1, 54230, Note_on_c, 0, 62, 58
1, 54231, Note_on_c, 0, 67, 56
1, 54231, Note_on_c, 0, 79, 66
1, 54249, Control_c, 0, 64, 127
1, 54255, Note_off_c, 9, 51, 0
1, 54302, Note_on_c, 9, 51, 69
1, 54311, Note_on_c, 0, 62, 0
1, 54318, Note_on_c, 0, 57, 0
1, 54318, Note_on_c, 0, 67, 0
1, 54319, Note_on_c, 1, 37, 38
1, 54320, Note_on_c, 0, 79, 0
1, 54321, Note_on_c, 0, 63, 0
1, 54323, Note_on_c, 0, 86, 0
1, 54324, Note_on_c, 9, 51, 0
1, 54330, Note_on_c, 1, 37, 0
1, 54332, Note_on_c, 1, 36, 60
1, 54347, Note_on_c, 9, 51, 73
1, 54351, Note_on_c, 1, 35, 0
1, 54352, Note_on_c, 1, 36, 0
1, 54367, Note_on_c, 1, 41, 77
1, 54382, Control_c, 0, 64, 0
1, 54385, Note_on_c, 0, 86, 55
1, 54385, Note_on_c, 0, 74, 57
1, 54385, Note_on_c, 0, 63, 48
1, 54386, Note_on_c, 0, 67, 53
1, 54390, Note_on_c, 0, 57, 33
1, 54391, Note_on_c, 1, 41, 0
1, 54392, Note_on_c, 0, 74, 0
1, 54392, Note_on_c, 0, 67, 0
1, 54394, Note_on_c, 0, 63, 0
1, 54395, Note_on_c, 0, 86, 0
1, 54397, Note_on_c, 0, 57, 0
1, 54430, Note_on_c, 9, 51, 0
1, 54437, Control_c, 0, 64, 127
1, 54451, Note_on_c, 1, 38, 66
1, 54474, Note_on_c, 9, 51, 67
1, 54477, Note_on_c, 1, 38, 0
1, 54489, Note_on_c, 1, 40, 81
1, 54495, Note_on_c, 0, 67, 46
1, 54495, Note_on_c, 0, 62, 39
1, 54496, Control_c, 0, 64, 0
1, 54497, Note_on_c, 0, 56, 31
1, 54497, Note_on_c, 0, 84, 44
1, 54499, Note_on_c, 0, 81, 42
1, 54499, Note_on_c, 0, 72, 33
1, 54509, Note_on_c, 9, 51, 0
1, 54536, Control_c, 0, 64, 127
1, 54578, Note_off_c, 0, 67, 0
1, 54587, Note_off_c, 1, 40, 0
1, 54589, Note_off_c, 0, 72, 0
1, 54592, Note_on_c, 9, 51, 72
1, 54597, Note_on_c, 1, 34, 73
1, 54603, Note_on_c, 0, 81, 0
1, 54603, Note_on_c, 0, 84, 0
1, 54608, Note_on_c, 0, 65, 54
1, 54630, Note_on_c, 9, 51, 0
1, 54655, Note_on_c, 0, 65, 0
1, 54662, Note_on_c, 0, 56, 0
1, 54663, Note_on_c, 0, 62, 0
1, 54684, Note_on_c, 0, 62, 60
1, 54685, Note_on_c, 0, 56, 75
1, 54685, Note_on_c, 0, 91, 90
1, 54686, Note_on_c, 0, 65, 83
1, 54686, Note_on_c, 0, 79, 89
1, 54687, Note_on_c, 9, 51, 70
1, 54692, Note_on_c, 0, 89, 41
1, 54699, Note_on_c, 0, 89, 0
1, 54702, Note_on_c, 9, 51, 0
1, 54702, Note_on_c, 1, 34, 0
1, 54706, Note_on_c, 0, 65, 0
1, 54706, Note_on_c, 0, 62, 0
1, 54709, Note_on_c, 1, 33, 77
1, 54716, Note_on_c, 0, 56, 0
1, 54717, Note_on_c, 0, 79, 0
1, 54717, Note_on_c, 0, 91, 0
1, 54721, Note_on_c, 9, 51, 70
1, 54732, Control_c, 0, 64, 0
1, 54732, Note_on_c, 0, 55, 69
1, 54734, Note_on_c, 0, 64, 78
1, 54734, Note_on_c, 0, 91, 67
1, 54735, Note_on_c, 0, 57, 69
1, 54735, Note_on_c, 0, 79, 56
1, 54738, Note_on_c, 0, 60, 60
1, 54760, Control_c, 0, 64, 127
1, 54767, Note_off_c, 9, 51, 0
1, 54786, Note_off_c, 0, 91, 0
1, 54801, Note_off_c, 0, 64, 0
1, 54803, Note_off_c, 0, 55, 0
1, 54803, Note_off_c, 0, 79, 0
1, 54804, Note_off_c, 0, 60, 0
1, 54807, Note_off_c, 0, 57, 0
1, 54842, Note_on_c, 9, 51, 77
1, 54877, Note_on_c, 9, 51, 0
1, 54914, Note_on_c, 0, 55, 54
1, 54915, Note_on_c, 0, 64, 60
1, 54916, Note_on_c, 0, 78, 61
1, 54916, Note_on_c, 0, 90, 57
1, 54916, Note_on_c, 0, 57, 50
1, 54918, Note_on_c, 0, 60, 38
1, 54920, Control_c, 0, 64, 0
1, 54924, Control_c, 0, 64, 127
1, 54940, Note_off_c, 0, 90, 0
1, 54941, Note_off_c, 0, 64, 0
1, 54944, Note_off_c, 0, 55, 0
1, 54945, Note_off_c, 0, 78, 0
1, 54946, Note_off_c, 0, 60, 0
1, 54950, Note_off_c, 0, 57, 0
1, 54961, Note_on_c, 9, 51, 88
1, 54986, Note_on_c, 0, 88, 63
1, 54986, Note_on_c, 0, 55, 58
1, 54988, Note_on_c, 0, 76, 52
1, 54989, Note_on_c, 0, 64, 40
1, 54989, Note_on_c, 0, 60, 49
1, 54996, Note_on_c, 0, 60, 0
1, 54996, Note_on_c, 0, 64, 0
1, 55004, Note_on_c, 0, 88, 0
1, 55005, Note_on_c, 0, 55, 0
1, 55010, Note_on_c, 0, 76, 0
1, 55037, Note_on_c, 9, 51, 0
1, 55068, Note_on_c, 1, 33, 0
1, 55072, Control_c, 0, 64, 0
1, 55073, Note_on_c, 0, 74, 59
1, 55073, Note_on_c, 0, 86, 55
1, 55074, Note_on_c, 0, 59, 43
1, 55075, Note_on_c, 0, 51, 39
1, 55075, Note_on_c, 0, 48, 36
1, 55076, Note_on_c, 0, 79, 42
1, 55076, Note_on_c, 0, 55, 42
1, 55078, Note_on_c, 1, 36, 72
1, 55083, Note_on_c, 9, 51, 56
1, 55100, Control_c, 0, 64, 127
1, 55105, Note_off_c, 9, 51, 0
1, 55112, Note_off_c, 0, 86, 0
1, 55120, Note_off_c, 0, 79, 0
1, 55134, Note_off_c, 0, 74, 0
1, 55153, Note_on_c, 9, 51, 64
1, 55167, Note_on_c, 0, 59, 0
1, 55174, Note_on_c, 9, 51, 0
1, 55194, Note_on_c, 9, 51, 69
1, 55200, Note_on_c, 0, 57, 56
1, 55253, Note_on_c, 9, 51, 0
1, 55318, Note_on_c, 9, 51, 81
1, 55319, Note_on_c, 0, 55, 0
1, 55349, Note_on_c, 0, 57, 0
1, 55363, Note_on_c, 0, 48, 0
1, 55367, Note_on_c, 9, 51, 0
1, 55372, Note_on_c, 0, 51, 0
1, 55397, Note_on_c, 0, 72, 67
1, 55404, Note_on_c, 1, 36, 0
1, 55404, Note_on_c, 1, 34, 64
1, 55424, Note_on_c, 0, 72, 0
1, 55431, Control_c, 0, 64, 0
1, 55437, Note_off_c, 1, 34, 0
1, 55443, Note_on_c, 0, 71, 49
1, 55443, Note_on_c, 0, 47, 39
1, 55444, Note_on_c, 0, 66, 35
1, 55444, Note_on_c, 0, 57, 34
1, 55444, Note_on_c, 0, 62, 37
1, 55444, Note_on_c, 1, 35, 51
1, 55454, Note_on_c, 0, 47, 0
1, 55456, Control_c, 0, 64, 127
1, 55459, Note_off_c, 0, 62, 0
1, 55466, Note_off_c, 0, 66, 0
1, 55468, Note_off_c, 0, 57, 0
1, 55472, Note_off_c, 0, 71, 0
1, 55514, Note_on_c, 9, 51, 56
1, 55530, Note_on_c, 9, 51, 0
1, 55548, Note_on_c, 1, 35, 0
1, 55552, Note_on_c, 1, 47, 94
1, 55559, Note_on_c, 9, 51, 56
1, 55563, Note_on_c, 1, 45, 34
1, 55573, Note_on_c, 1, 45, 0
1, 55590, Note_on_c, 9, 51, 0
1, 55632, Note_on_c, 0, 78, 67
1, 55636, Note_on_c, 0, 74, 72
1, 55638, Note_on_c, 0, 71, 68
1, 55638, Note_on_c, 0, 69, 74
1, 55639, Note_on_c, 0, 66, 63
1, 55639, Note_on_c, 9, 51, 74
1, 55645, Control_c, 0, 64, 0
1, 55663, Control_c, 0, 64, 127
1, 55671, Note_on_c, 1, 39, 78
1, 55672, Note_on_c, 9, 51, 0
1, 55679, Note_on_c, 1, 47, 0
1, 55714, Note_on_c, 0, 66, 0
1, 55718, Note_on_c, 0, 78, 0
1, 55718, Note_on_c, 0, 74, 0
1, 55720, Note_on_c, 0, 71, 0
1, 55728, Control_c, 0, 64, 127
1, 55733, Note_off_c, 0, 69, 0
1, 55760, Note_on_c, 9, 51, 46
1, 55771, Note_on_c, 9, 51, 0
1, 55792, Note_on_c, 1, 39, 0
1, 55794, Note_on_c, 1, 40, 84
1, 55801, Note_on_c, 0, 74, 54
1, 55804, Note_on_c, 0, 62, 46
1, 55804, Note_on_c, 0, 67, 54
1, 55805, Note_on_c, 0, 71, 51
1, 55807, Note_on_c, 9, 51, 80
1, 55808, Control_c, 0, 64, 0
1, 55810, Note_on_c, 0, 56, 37
1, 55813, Control_c, 0, 64, 0
1, 55816, Note_on_c, 0, 64, 46
1, 55818, Note_on_c, 0, 60, 36
1, 55822, Note_on_c, 0, 59, 24
1, 55854, Control_c, 0, 64, 127
1, 55880, Note_off_c, 9, 51, 0
1, 55908, Note_off_c, 0, 67, 0
1, 55911, Note_off_c, 0, 71, 0
1, 55911, Note_off_c, 0, 62, 0
1, 55927, Note_on_c, 9, 51, 47
1, 55940, Note_on_c, 0, 56, 0
1, 55948, Note_on_c, 9, 51, 0
1, 55995, Note_on_c, 9, 51, 80
1, 56034, Note_on_c, 9, 51, 0
1, 56055, Note_on_c, 0, 59, 0
1, 56062, Note_on_c, 0, 64, 0
1, 56062, Note_on_c, 0, 60, 0
1, 56118, Note_on_c, 9, 51, 55
1, 56130, Note_on_c, 0, 74, 0
1, 56133, Note_on_c, 9, 51, 0
1, 56145, Note_on_c, 1, 40, 0
1, 56157, Note_on_c, 1, 33, 84
1, 56163, Control_c, 0, 64, 0
1, 56165, Note_on_c, 0, 59, 34
1, 56165, Note_on_c, 0, 64, 35
1, 56165, Note_on_c, 0, 55, 28
1, 56166, Note_on_c, 9, 51, 75
1, 56167, Note_on_c, 0, 60, 38
1, 56192, Control_c, 0, 64, 127
1, 56215, Note_off_c, 9, 51, 0
1, 56259, Note_on_c, 0, 71, 64
1, 56283, Note_on_c, 9, 51, 71
1, 56287, Note_on_c, 0, 71, 0
1, 56318, Note_on_c, 9, 51, 0
1, 56339, Note_on_c, 0, 78, 80
1, 56360, Note_on_c, 1, 33, 0
1, 56362, Note_on_c, 1, 40, 92
1, 56373, Note_on_c, 9, 51, 59
1, 56385, Note_on_c, 9, 51, 0
1, 56401, Note_on_c, 0, 78, 0
1, 56411, Note_on_c, 0, 74, 96
1, 56412, Note_on_c, 9, 51, 53
1, 56445, Note_on_c, 9, 51, 0
1, 56460, Note_on_c, 0, 74, 0
1, 56471, Control_c, 0, 64, 127
1, 56484, Note_off_c, 0, 55, 0
1, 56484, Note_off_c, 0, 59, 0
1, 56486, Note_off_c, 0, 64, 0
1, 56487, Note_on_c, 0, 74, 96
1, 56491, Note_on_c, 0, 60, 0
1, 56491, Note_on_c, 1, 37, 48
1, 56496, Note_on_c, 1, 40, 0
1, 56526, Note_on_c, 1, 37, 0
1, 56527, Note_on_c, 0, 74, 0
1, 56528, Note_on_c, 0, 74, 48
1, 56529, Control_c, 0, 64, 0
1, 56529, Note_on_c, 0, 60, 36
1, 56529, Note_on_c, 0, 62, 46
1, 56531, Note_on_c, 0, 54, 37
1, 56532, Note_on_c, 1, 38, 85
1, 56533, Note_on_c, 9, 51, 60
1, 56585, Note_on_c, 9, 51, 0
1, 56585, Control_c, 0, 64, 127
1, 56610, Note_off_c, 0, 74, 0
1, 56618, Note_on_c, 0, 81, 89
1, 56662, Note_on_c, 9, 51, 57
1, 56695, Note_on_c, 1, 38, 0
1, 56704, Note_on_c, 9, 51, 0
1, 56725, Note_on_c, 1, 38, 83
1, 56735, Note_on_c, 1, 36, 36
1, 56745, Note_on_c, 1, 36, 0
1, 56766, Note_on_c, 0, 62, 0
1, 56766, Note_on_c, 0, 60, 0
1, 56774, Note_on_c, 0, 54, 0
1, 56786, Note_on_c, 0, 81, 0
1, 56788, Note_on_c, 9, 51, 55
1, 56816, Note_on_c, 9, 51, 0
1, 56846, Note_on_c, 0, 78, 69
1, 56863, Note_on_c, 9, 51, 79
1, 56875, Note_on_c, 1, 38, 0
1, 56885, Note_on_c, 0, 78, 0
1, 56886, Note_on_c, 9, 51, 0
1, 56886, Note_on_c, 1, 37, 87
1, 56893, Control_c, 0, 64, 0
1, 56898, Note_on_c, 9, 51, 92
1, 56901, Note_on_c, 0, 76, 50
1, 56902, Note_on_c, 0, 49, 37
1, 56903, Note_on_c, 0, 59, 24
1, 56904, Note_on_c, 0, 55, 28
1, 56961, Control_c, 0, 64, 127
1, 56971, Note_off_c, 0, 76, 0
1, 56975, Note_off_c, 9, 51, 0
1, 56977, Note_on_c, 0, 83, 80
1, 56982, Control_c, 0, 64, 0
1, 57007, Control_c, 0, 64, 127
1, 57013, Note_on_c, 9, 51, 74
1, 57056, Note_on_c, 1, 37, 0
1, 57071, Note_on_c, 1, 37, 94
1, 57073, Note_on_c, 9, 51, 0
1, 57133, Note_on_c, 0, 55, 0
1, 57136, Note_on_c, 9, 51, 65
1, 57142, Note_on_c, 0, 49, 0
1, 57144, Note_on_c, 0, 59, 0
1, 57167, Note_on_c, 0, 83, 0
1, 57178, Note_on_c, 9, 51, 0
1, 57193, Note_on_c, 0, 79, 68
1, 57213, Note_on_c, 1, 34, 53
1, 57217, Note_on_c, 9, 51, 73
1, 57234, Note_on_c, 1, 37, 0
1, 57236, Note_on_c, 0, 79, 0
1, 57241, Note_on_c, 9, 51, 0
1, 57243, Control_c, 0, 64, 0
1, 57245, Note_on_c, 0, 55, 34
1, 57247, Note_on_c, 1, 34, 0
1, 57248, Note_on_c, 0, 59, 32
1, 57248, Note_on_c, 0, 48, 30
1, 57249, Note_on_c, 0, 52, 46
1, 57252, Note_on_c, 0, 79, 46
1, 57252, Note_on_c, 1, 36, 103
1, 57255, Note_on_c, 9, 51, 82
1, 57270, Control_c, 0, 64, 127
1, 57320, Note_off_c, 0, 79, 0
1, 57334, Note_on_c, 0, 88, 94
1, 57335, Note_on_c, 9, 51, 0
1, 57369, Note_on_c, 9, 51, 48
1, 57396, Note_on_c, 0, 88, 0
1, 57402, Note_on_c, 1, 36, 0
1, 57407, Note_on_c, 1, 34, 29
1, 57418, Note_on_c, 0, 88, 95
1, 57419, Note_on_c, 1, 34, 0
1, 57426, Note_on_c, 9, 51, 0
1, 57429, Note_on_c, 1, 36, 99
1, 57439, Note_on_c, 0, 48, 0
1, 57440, Note_on_c, 0, 59, 0
1, 57444, Note_on_c, 0, 52, 0
1, 57445, Note_on_c, 0, 55, 0
1, 57447, Note_on_c, 9, 51, 63
1, 57474, Note_on_c, 9, 51, 0
1, 57484, Note_on_c, 0, 88, 0
1, 57486, Note_on_c, 9, 51, 65
1, 57490, Note_on_c, 0, 83, 80
1, 57537, Note_on_c, 0, 83, 0
1, 57546, Note_on_c, 9, 51, 0
1, 57556, Note_on_c, 0, 83, 74
1, 57558, Note_on_c, 1, 34, 62
1, 57568, Note_on_c, 9, 51, 59
1, 57572, Note_on_c, 1, 36, 0
1, 57589, Note_on_c, 0, 83, 0
1, 57592, Note_on_c, 9, 51, 0
1, 57593, Note_on_c, 1, 34, 0
1, 57604, Note_on_c, 1, 35, 107
1, 57609, Note_on_c, 9, 51, 83
1, 57610, Note_on_c, 0, 62, 27
1, 57610, Note_on_c, 0, 57, 45
1, 57611, Control_c, 0, 64, 0
1, 57611, Note_on_c, 0, 83, 58
1, 57611, Note_on_c, 0, 65, 53
1, 57641, Control_c, 0, 64, 127
1, 57695, Note_on_c, 0, 90, 79
1, 57696, Note_on_c, 9, 51, 0
1, 57776, Note_on_c, 0, 86, 80
1, 57777, Note_on_c, 0, 83, 0
1, 57780, Note_on_c, 1, 47, 100
1, 57786, Note_on_c, 0, 90, 0
1, 57805, Note_on_c, 9, 51, 82
1, 57830, Note_on_c, 9, 51, 0
1, 57840, Note_on_c, 0, 86, 0
1, 57845, Note_on_c, 9, 51, 80
1, 57850, Note_on_c, 0, 86, 75
1, 57857, Note_on_c, 0, 57, 0
1, 57862, Note_on_c, 0, 65, 0
1, 57862, Note_on_c, 0, 62, 0
1, 57890, Note_on_c, 0, 86, 0
1, 57902, Note_on_c, 9, 51, 0
1, 57916, Note_on_c, 0, 86, 67
1, 57951, Note_on_c, 1, 35, 0
1, 57957, Note_on_c, 1, 47, 0
1, 57957, Note_on_c, 1, 46, 89
1, 57960, Note_on_c, 9, 51, 92
1, 57979, Note_on_c, 0, 86, 0
1, 58004, Note_on_c, 0, 86, 10
1, 58036, Note_on_c, 0, 61, 52
1, 58037, Note_on_c, 0, 82, 80
1, 58038, Note_on_c, 0, 58, 55
1, 58039, Note_on_c, 0, 69, 68
1, 58039, Note_on_c, 0, 64, 66
1, 58044, Control_c, 0, 64, 0
1, 58047, Note_off_c, 0, 86, 0
1, 58068, Control_c, 0, 64, 127
1, 58083, Note_on_c, 1, 34, 24
1, 58094, Note_on_c, 9, 51, 0
1, 58108, Note_on_c, 1, 34, 0
1, 58109, Note_on_c, 0, 82, 0
1, 58125, Note_on_c, 1, 46, 0
1, 58146, Note_on_c, 1, 46, 91
1, 58150, Note_on_c, 0, 96, 90
1, 58151, Note_on_c, 9, 51, 84
1, 58200, Note_on_c, 0, 96, 0
1, 58210, Note_on_c, 0, 64, 0
1, 58211, Note_on_c, 0, 69, 0
1, 58211, Note_on_c, 9, 51, 0
1, 58217, Note_on_c, 0, 61, 0
1, 58220, Note_on_c, 0, 93, 96
1, 58229, Note_on_c, 0, 58, 0
1, 58245, Note_on_c, 9, 51, 76
1, 58274, Note_on_c, 1, 34, 63
1, 58281, Note_on_c, 0, 93, 0
1, 58284, Note_on_c, 9, 51, 0
1, 58292, Note_on_c, 1, 34, 0
1, 58295, Note_on_c, 1, 46, 0
1, 58308, Note_on_c, 0, 55, 61
1, 58310, Note_on_c, 0, 57, 54
1, 58310, Note_on_c, 0, 88, 77
1, 58310, Note_on_c, 0, 60, 47
1, 58311, Control_c, 0, 64, 0
1, 58311, Note_on_c, 0, 64, 42
1, 58318, Note_on_c, 1, 45, 114
1, 58329, Note_on_c, 9, 51, 87
1, 58336, Control_c, 0, 64, 127
1, 58342, Note_off_c, 0, 88, 0
1, 58362, Note_off_c, 0, 55, 0
1, 58364, Note_off_c, 0, 64, 0
1, 58367, Note_off_c, 0, 57, 0
1, 58368, Note_off_c, 0, 60, 0
1, 58393, Note_on_c, 0, 55, 79
1, 58394, Note_on_c, 0, 64, 83
1, 58394, Note_on_c, 0, 98, 92
1, 58394, Note_on_c, 0, 57, 72
1, 58394, Note_on_c, 0, 86, 88
1, 58395, Note_on_c, 0, 60, 78
1, 58401, Control_c, 0, 64, 0
1, 58416, Control_c, 0, 64, 127
1, 58456, Note_off_c, 9, 51, 0
1, 58482, Note_off_c, 0, 98, 0
1, 58486, Note_off_c, 1, 45, 0
1, 58497, Note_off_c, 0, 86, 0
1, 58501, Note_on_c, 9, 51, 72
1, 58509, Note_on_c, 0, 60, 0
1, 58511, Note_on_c, 0, 64, 0
1, 58511, Note_on_c, 1, 45, 103
1, 58516, Note_on_c, 0, 55, 0
1, 58524, Note_on_c, 0, 57, 0
1, 58525, Note_on_c, 9, 51, 0
1, 58550, Note_on_c, 9, 51, 80
1, 58555, Control_c, 0, 64, 0
1, 58557, Note_on_c, 0, 55, 66
1, 58559, Note_on_c, 0, 57, 55
1, 58560, Note_on_c, 0, 95, 85
1, 58560, Note_on_c, 0, 64, 65
1, 58561, Note_on_c, 0, 83, 71
1, 58561, Note_on_c, 0, 88, 75
1, 58562, Note_on_c, 0, 60, 57
1, 58576, Control_c, 0, 64, 127
1, 58594, Note_off_c, 0, 95, 0
1, 58599, Note_off_c, 0, 88, 0
1, 58606, Note_off_c, 0, 55, 0
1, 58606, Note_off_c, 0, 83, 0
1, 58608, Note_off_c, 0, 64, 0
1, 58610, Note_off_c, 0, 57, 0
1, 58610, Note_off_c, 0, 60, 0
1, 58613, Note_off_c, 9, 51, 0
1, 58644, Note_on_c, 1, 32, 60
1, 58658, Note_on_c, 1, 45, 0
1, 58664, Note_on_c, 1, 32, 0
1, 58676, Control_c, 0, 64, 0
1, 58676, Note_on_c, 0, 78, 72
1, 58676, Note_on_c, 0, 90, 71
1, 58677, Note_on_c, 0, 65, 79
1, 58677, Note_on_c, 0, 58, 62
1, 58677, Note_on_c, 0, 54, 65
1, 58678, Note_on_c, 0, 60, 68
1, 58680, Note_on_c, 9, 51, 95
1, 58687, Note_on_c, 1, 44, 96
1, 58698, Control_c, 0, 64, 127
1, 58712, Note_off_c, 0, 78, 0
1, 58718, Note_off_c, 0, 60, 0
1, 58718, Note_off_c, 0, 65, 0
1, 58720, Note_off_c, 0, 90, 0
1, 58722, Note_off_c, 0, 58, 0
1, 58723, Note_off_c, 0, 54, 0
1, 58791, Note_on_c, 0, 101, 91
1, 58792, Note_on_c, 0, 89, 89
1, 58792, Note_on_c, 0, 96, 90
1, 58793, Note_on_c, 0, 58, 72
1, 58793, Note_on_c, 0, 60, 79
1, 58793, Note_on_c, 0, 54, 78
1, 58793, Note_on_c, 0, 65, 91
1, 58795, Control_c, 0, 64, 0
1, 58814, Note_off_c, 9, 51, 0
1, 58818, Control_c, 0, 64, 127
1, 58867, Note_off_c, 0, 101, 0
1, 58870, Note_off_c, 0, 96, 0
1, 58872, Note_off_c, 0, 89, 0
1, 58874, Note_on_c, 9, 51, 90
1, 58876, Note_on_c, 0, 58, 0
1, 58877, Note_on_c, 0, 60, 0
1, 58884, Note_on_c, 0, 65, 0
1, 58884, Note_on_c, 1, 44, 0
1, 58885, Note_on_c, 0, 54, 0
1, 58908, Note_on_c, 1, 44, 89
1, 58926, Note_on_c, 0, 98, 79
1, 58926, Note_on_c, 0, 86, 75
1, 58927, Note_on_c, 0, 65, 81
1, 58927, Note_on_c, 0, 93, 79
1, 58927, Note_on_c, 0, 54, 67
1, 58928, Control_c, 0, 64, 0
1, 58929, Note_on_c, 0, 58, 63
1, 58929, Note_on_c, 0, 60, 69
1, 58952, Control_c, 0, 64, 127
1, 58968, Note_off_c, 0, 65, 0
1, 58968, Note_off_c, 0, 98, 0
1, 58970, Note_off_c, 0, 60, 0
1, 58973, Note_off_c, 0, 93, 0
1, 58975, Note_off_c, 0, 58, 0
1, 58980, Note_off_c, 0, 86, 0
1, 58981, Note_off_c, 0, 54, 0
1, 59024, Note_off_c, 9, 51, 0
1, 59033, Note_off_c, 1, 44, 0
1, 59036, Note_on_c, 1, 31, 109
1, 59054, Note_on_c, 9, 55, 95
1, 59060, Note_on_c, 0, 58, 86
1, 59061, Note_on_c, 0, 62, 81
1, 59062, Note_on_c, 0, 57, 88
1, 59063, Note_on_c, 0, 50, 75
1, 59065, Note_on_c, 0, 43, 72
1, 59068, Control_c, 0, 64, 0
1, 59114, Control_c, 0, 64, 127
1, 59148, Note_off_c, 0, 62, 0
1, 59163, Note_on_c, 0, 62, 48
1, 59184, Note_on_c, 0, 62, 0
1, 59202, Note_on_c, 0, 57, 0
1, 59202, Note_on_c, 0, 62, 36
1, 59218, Note_on_c, 0, 62, 0
1, 59219, Note_on_c, 0, 57, 28
1, 59228, Note_on_c, 0, 58, 0
1, 59230, Note_on_c, 9, 55, 0
1, 59240, Note_on_c, 0, 62, 27
1, 59241, Note_on_c, 0, 57, 0
1, 59248, Note_on_c, 0, 58, 18
1, 59258, Note_on_c, 0, 62, 0
1, 59264, Note_on_c, 0, 57, 43
1, 59268, Note_on_c, 0, 58, 0
1, 59275, Note_on_c, 0, 62, 30
1, 59282, Note_on_c, 0, 57, 0
1, 59293, Note_on_c, 0, 58, 29
1, 59296, Note_on_c, 0, 62, 0
1, 59302, Note_on_c, 0, 57, 45
1, 59309, Note_on_c, 0, 58, 0
1, 59316, Note_on_c, 0, 62, 24
1, 59321, Note_on_c, 0, 57, 0
1, 59334, Note_on_c, 0, 62, 0
1, 59340, Note_on_c, 0, 57, 43
1, 59352, Note_on_c, 0, 62, 26
1, 59357, Note_on_c, 0, 57, 0
1, 59373, Note_on_c, 0, 62, 0
1, 59375, Note_on_c, 0, 58, 14
1, 59381, Note_on_c, 0, 57, 31
1, 59394, Note_on_c, 0, 62, 22
1, 59402, Note_on_c, 0, 57, 0
1, 59410, Note_on_c, 1, 31, 0
1, 59428, Note_on_c, 0, 57, 20
1, 59453, Note_on_c, 0, 57, 0
1, 59458, Note_on_c, 0, 58, 0
1, 59460, Note_on_c, 0, 62, 0
1, 59470, Note_on_c, 0, 43, 0
1, 59472, Note_on_c, 0, 50, 0
1, 59610, Control_c, 0, 64, 0
1, 59610, End_track
0, 0, End_of_file
