0, 0, Header, 0, 1, 120
1, 0, Start_track
1, 0, Title_t, "Estate"
1, 0, Text_t, "dougmck@pipeline.com.au\012"
1, 0, SMPTE_offset, 96, 0, 3, 0, 0
1, 0, Time_signature, 4, 2, 24, 8
1, 0, Key_signature, 0, "major"
1, 0, Tempo, 625000
1, 0, Program_c, 0, 0
1, 385, Control_c, 0, 64, 127
1, 388, Control_c, 0, 64, 0
1, 396, Control_c, 0, 64, 127
1, 423, Note_on_c, 0, 79, 55
1, 473, Control_c, 0, 64, 0
1, 482, Note_on_c, 0, 74, 39
1, 486, Note_on_c, 0, 48, 38
1, 496, Control_c, 0, 64, 127
1, 558, Note_on_c, 0, 55, 17
1, 580, Note_on_c, 0, 48, 0
1, 610, Note_on_c, 0, 67, 39
1, 614, Note_on_c, 0, 55, 0
1, 636, Note_on_c, 0, 62, 5
1, 677, Note_on_c, 0, 63, 48
1, 681, Note_on_c, 0, 62, 0
1, 759, Note_on_c, 0, 67, 0
1, 841, Note_on_c, 0, 63, 0
1, 968, Note_on_c, 0, 48, 35
1, 1028, Note_on_c, 0, 48, 0
1, 1031, Note_on_c, 0, 55, 41
1, 1072, Note_on_c, 0, 55, 0
1, 1098, Note_on_c, 0, 62, 19
1, 1147, Note_on_c, 0, 62, 0
1, 1148, Note_on_c, 0, 63, 47
1, 1264, Note_on_c, 0, 67, 42
1, 1272, Note_on_c, 0, 74, 0
1, 1289, Note_on_c, 0, 79, 0
1, 1311, Note_on_c, 0, 63, 0
1, 1363, Note_on_c, 0, 67, 0
1, 1382, Note_on_c, 0, 67, 41
1, 1427, Note_on_c, 0, 67, 0
1, 1446, Control_c, 0, 64, 0
1, 1447, Note_on_c, 0, 68, 56
1, 1449, Note_on_c, 0, 53, 29
1, 1478, Control_c, 0, 64, 127
1, 1517, Note_on_c, 0, 60, 40
1, 1559, Note_on_c, 0, 68, 0
1, 1635, Note_on_c, 0, 72, 80
1, 1636, Note_on_c, 0, 63, 48
1, 1652, Note_on_c, 0, 60, 0
1, 1689, Note_on_c, 0, 72, 0
1, 1712, Note_on_c, 0, 72, 70
1, 1741, Note_on_c, 0, 53, 0
1, 1767, Note_on_c, 0, 63, 0
1, 1799, Note_on_c, 0, 72, 0
1, 1805, Note_on_c, 0, 75, 62
1, 1889, Note_on_c, 0, 75, 0
1, 1918, Note_on_c, 0, 75, 53
1, 1926, Note_on_c, 0, 67, 50
1, 1929, Control_c, 0, 64, 0
1, 1931, Note_on_c, 0, 63, 34
1, 1932, Note_on_c, 0, 55, 35
1, 1961, Control_c, 0, 64, 127
1, 2030, Note_on_c, 0, 67, 0
1, 2049, Note_on_c, 0, 63, 0
1, 2055, Note_on_c, 0, 67, 37
1, 2067, Note_on_c, 0, 63, 11
1, 2141, Note_on_c, 0, 75, 0
1, 2242, Note_on_c, 0, 74, 62
1, 2258, Note_on_c, 0, 67, 0
1, 2271, Note_on_c, 0, 55, 0
1, 2280, Note_on_c, 0, 63, 0
1, 2316, Note_on_c, 0, 74, 0
1, 2330, Note_on_c, 0, 67, 33
1, 2350, Note_on_c, 0, 67, 0
1, 2405, Note_on_c, 0, 67, 35
1, 2408, Note_on_c, 0, 48, 38
1, 2415, Control_c, 0, 64, 0
1, 2447, Control_c, 0, 64, 127
1, 2476, Note_on_c, 0, 55, 30
1, 2577, Note_on_c, 0, 63, 30
1, 2578, Note_on_c, 0, 62, 37
1, 2649, Note_on_c, 0, 55, 0
1, 2690, Note_on_c, 0, 55, 32
1, 2721, Note_on_c, 0, 62, 0
1, 2729, Note_on_c, 0, 55, 0
1, 2769, Note_on_c, 0, 63, 0
1, 2779, Note_on_c, 0, 67, 0
1, 2820, Note_on_c, 0, 55, 25
1, 2829, Note_on_c, 0, 48, 0
1, 2876, Note_on_c, 0, 77, 65
1, 2881, Note_on_c, 0, 55, 0
1, 2888, Note_on_c, 0, 70, 30
1, 2891, Control_c, 0, 64, 0
1, 2892, Note_on_c, 0, 48, 37
1, 2900, Note_on_c, 0, 75, 47
1, 2901, Note_on_c, 0, 58, 19
1, 2919, Note_on_c, 0, 65, 29
1, 2930, Control_c, 0, 64, 127
1, 2978, Note_on_c, 0, 58, 0
1, 2987, Note_on_c, 0, 77, 0
1, 2994, Note_on_c, 0, 55, 28
1, 2996, Note_on_c, 0, 65, 0
1, 3000, Note_on_c, 0, 75, 0
1, 3001, Note_on_c, 0, 70, 0
1, 3073, Note_on_c, 0, 62, 37
1, 3074, Note_on_c, 0, 63, 25
1, 3079, Note_on_c, 0, 58, 23
1, 3136, Note_on_c, 0, 55, 0
1, 3198, Note_on_c, 0, 55, 33
1, 3229, Note_on_c, 0, 48, 0
1, 3247, Note_on_c, 0, 55, 0
1, 3263, Note_on_c, 0, 58, 0
1, 3268, Note_on_c, 0, 62, 0
1, 3292, Note_on_c, 0, 63, 0
1, 3313, Note_on_c, 0, 67, 47
1, 3361, Note_on_c, 0, 67, 0
1, 3377, Note_on_c, 0, 68, 51
1, 3379, Note_on_c, 0, 53, 33
1, 3380, Control_c, 0, 64, 0
1, 3413, Control_c, 0, 64, 127
1, 3444, Note_on_c, 0, 60, 45
1, 3448, Note_on_c, 0, 68, 0
1, 3526, Note_on_c, 0, 53, 0
1, 3543, Note_on_c, 0, 68, 39
1, 3585, Note_on_c, 0, 68, 0
1, 3616, Note_on_c, 0, 68, 67
1, 3618, Note_on_c, 0, 64, 43
1, 3618, Note_on_c, 0, 72, 74
1, 3674, Note_on_c, 0, 60, 0
1, 3689, Note_on_c, 0, 72, 0
1, 3709, Note_on_c, 0, 72, 60
1, 3726, Note_on_c, 0, 68, 0
1, 3777, Note_on_c, 0, 72, 0
1, 3781, Note_on_c, 0, 64, 0
1, 3783, Note_on_c, 0, 79, 72
1, 3817, Note_on_c, 0, 79, 0
1, 3852, Note_on_c, 0, 79, 47
1, 3856, Note_on_c, 0, 56, 36
1, 3857, Note_on_c, 0, 76, 53
1, 3857, Note_on_c, 0, 62, 27
1, 3858, Control_c, 0, 64, 0
1, 3858, Note_on_c, 0, 72, 34
1, 3860, Note_on_c, 0, 67, 34
1, 3892, Control_c, 0, 64, 127
1, 3967, Note_on_c, 0, 67, 0
1, 3970, Note_on_c, 0, 76, 0
1, 3973, Note_on_c, 0, 72, 0
1, 3987, Note_on_c, 0, 79, 0
1, 3991, Note_on_c, 0, 62, 0
1, 4028, Note_on_c, 0, 56, 0
1, 4088, Note_on_c, 0, 77, 67
1, 4089, Note_on_c, 0, 68, 69
1, 4092, Note_on_c, 0, 72, 66
1, 4092, Note_on_c, 0, 74, 59
1, 4095, Note_on_c, 0, 67, 42
1, 4101, Control_c, 0, 64, 0
1, 4126, Control_c, 0, 64, 127
1, 4153, Note_on_c, 0, 74, 0
1, 4161, Note_on_c, 0, 77, 0
1, 4174, Note_on_c, 0, 72, 0
1, 4176, Note_on_c, 0, 74, 36
1, 4195, Note_on_c, 0, 67, 0
1, 4210, Note_on_c, 0, 68, 0
1, 4245, Note_on_c, 0, 74, 0
1, 4253, Note_on_c, 0, 72, 48
1, 4261, Note_on_c, 0, 72, 0
1, 4329, Note_on_c, 0, 61, 42
1, 4331, Note_on_c, 0, 70, 51
1, 4332, Note_on_c, 0, 65, 53
1, 4340, Note_on_c, 0, 51, 36
1, 4342, Control_c, 0, 64, 0
1, 4389, Control_c, 0, 64, 127
1, 4405, Note_on_c, 0, 61, 0
1, 4437, Note_on_c, 0, 65, 0
1, 4442, Note_on_c, 0, 61, 25
1, 4459, Note_on_c, 0, 61, 0
1, 4517, Note_on_c, 0, 61, 28
1, 4520, Note_on_c, 0, 65, 42
1, 4521, Note_on_c, 0, 58, 27
1, 4560, Note_on_c, 0, 58, 0
1, 4632, Note_on_c, 0, 58, 34
1, 4687, Note_on_c, 0, 61, 0
1, 4723, Note_on_c, 0, 51, 0
1, 4811, Note_on_c, 0, 65, 0
1, 4814, Control_c, 0, 64, 0
1, 4815, Note_on_c, 0, 51, 27
1, 4840, Control_c, 0, 64, 127
1, 4887, Note_on_c, 0, 61, 27
1, 4887, Note_on_c, 0, 63, 44
1, 4937, Note_on_c, 0, 51, 0
1, 4966, Note_on_c, 0, 61, 0
1, 4992, Note_on_c, 0, 51, 38
1, 4998, Note_on_c, 0, 58, 0
1, 5013, Note_on_c, 0, 70, 0
1, 5014, Note_on_c, 0, 51, 0
1, 5025, Note_on_c, 0, 63, 0
1, 5118, Note_on_c, 0, 70, 49
1, 5118, Note_on_c, 0, 61, 48
1, 5121, Note_on_c, 0, 66, 51
1, 5122, Note_on_c, 0, 45, 33
1, 5125, Control_c, 0, 64, 0
1, 5126, Note_on_c, 0, 55, 24
1, 5154, Control_c, 0, 64, 127
1, 5182, Note_on_c, 0, 70, 0
1, 5207, Note_on_c, 0, 45, 0
1, 5207, Note_on_c, 0, 70, 57
1, 5213, Note_on_c, 0, 55, 0
1, 5226, Note_on_c, 0, 66, 0
1, 5235, Note_on_c, 0, 61, 0
1, 5246, Note_on_c, 0, 70, 0
1, 5279, Note_on_c, 0, 72, 44
1, 5281, Note_on_c, 0, 67, 47
1, 5283, Note_on_c, 0, 60, 51
1, 5288, Note_on_c, 0, 51, 20
1, 5288, Note_on_c, 0, 44, 33
1, 5289, Control_c, 0, 64, 0
1, 5321, Control_c, 0, 64, 127
1, 5342, Note_on_c, 0, 60, 0
1, 5355, Note_on_c, 0, 51, 0
1, 5357, Note_on_c, 0, 44, 0
1, 5361, Note_on_c, 0, 67, 0
1, 5363, Note_on_c, 0, 55, 28
1, 5372, Note_on_c, 0, 55, 0
1, 5401, Note_on_c, 0, 72, 0
1, 5455, Note_on_c, 0, 60, 40
1, 5528, Note_on_c, 0, 75, 75
1, 5530, Note_on_c, 0, 63, 49
1, 5535, Note_on_c, 0, 72, 35
1, 5542, Note_on_c, 0, 72, 0
1, 5547, Note_on_c, 0, 60, 0
1, 5601, Note_on_c, 0, 60, 45
1, 5648, Note_on_c, 0, 63, 0
1, 5669, Note_on_c, 0, 60, 0
1, 5683, Note_on_c, 0, 75, 0
1, 5703, Note_on_c, 0, 75, 59
1, 5739, Note_on_c, 0, 75, 0
1, 5774, Note_on_c, 0, 82, 58
1, 5777, Note_on_c, 0, 75, 52
1, 5777, Note_on_c, 0, 63, 33
1, 5779, Note_on_c, 0, 53, 41
1, 5781, Note_on_c, 0, 70, 38
1, 5781, Note_on_c, 0, 79, 44
1, 5781, Control_c, 0, 64, 0
1, 5782, Note_on_c, 0, 59, 30
1, 5809, Note_on_c, 0, 59, 0
1, 5814, Control_c, 0, 64, 127
1, 5868, Note_on_c, 0, 59, 33
1, 5886, Note_on_c, 0, 63, 0
1, 5902, Note_on_c, 0, 70, 0
1, 5910, Note_on_c, 0, 75, 0
1, 5920, Note_on_c, 0, 79, 0
1, 5935, Note_on_c, 0, 82, 0
1, 5965, Note_on_c, 0, 80, 45
1, 5966, Note_on_c, 0, 63, 35
1, 5966, Note_on_c, 0, 75, 51
1, 5970, Note_on_c, 0, 68, 37
1, 6011, Note_on_c, 0, 59, 0
1, 6043, Note_on_c, 0, 75, 0
1, 6086, Note_on_c, 0, 68, 0
1, 6086, Note_on_c, 0, 59, 29
1, 6122, Note_on_c, 0, 80, 0
1, 6143, Note_on_c, 0, 53, 0
1, 6166, Note_on_c, 0, 63, 0
1, 6167, Note_on_c, 0, 59, 0
1, 6252, Note_on_c, 0, 79, 68
1, 6266, Control_c, 0, 64, 0
1, 6299, Control_c, 0, 64, 127
1, 6318, Note_on_c, 0, 67, 35
1, 6374, Note_on_c, 0, 55, 41
1, 6408, Note_on_c, 0, 67, 0
1, 6431, Note_on_c, 0, 68, 37
1, 6433, Note_on_c, 0, 72, 44
1, 6536, Note_on_c, 0, 68, 0
1, 6553, Note_on_c, 0, 72, 0
1, 6567, Note_on_c, 0, 67, 1
1, 6597, Note_on_c, 0, 55, 0
1, 6605, Note_on_c, 0, 68, 31
1, 6667, Note_on_c, 0, 55, 38
1, 6684, Note_on_c, 0, 67, 0
1, 6705, Note_on_c, 0, 68, 0
1, 6787, Note_on_c, 0, 73, 35
1, 6791, Note_on_c, 0, 71, 37
1, 6792, Note_on_c, 0, 68, 21
1, 6792, Note_on_c, 0, 65, 22
1, 6796, Control_c, 0, 64, 0
1, 6844, Control_c, 0, 64, 127
1, 6861, Note_on_c, 0, 55, 0
1, 6901, Note_on_c, 0, 55, 35
1, 6935, Note_on_c, 0, 73, 0
1, 6943, Note_on_c, 0, 68, 0
1, 6951, Note_on_c, 0, 65, 0
1, 6961, Note_on_c, 0, 79, 0
1, 6961, Note_on_c, 0, 71, 0
1, 6971, Note_on_c, 0, 68, 34
1, 6973, Note_on_c, 0, 74, 27
1, 6978, Note_on_c, 0, 71, 11
1, 7009, Note_on_c, 0, 68, 0
1, 7012, Note_on_c, 0, 71, 0
1, 7016, Note_on_c, 0, 74, 0
1, 7113, Note_on_c, 0, 55, 0
1, 7153, Note_on_c, 0, 80, 72
1, 7196, Note_on_c, 0, 80, 0
1, 7211, Note_on_c, 0, 48, 41
1, 7214, Note_on_c, 0, 79, 59
1, 7218, Control_c, 0, 64, 0
1, 7246, Control_c, 0, 64, 127
1, 7278, Note_on_c, 0, 55, 33
1, 7296, Note_on_c, 0, 48, 0
1, 7314, Note_on_c, 0, 55, 0
1, 7337, Note_on_c, 0, 62, 35
1, 7392, Note_on_c, 0, 62, 0
1, 7396, Note_on_c, 0, 67, 30
1, 7401, Note_on_c, 0, 63, 25
1, 7418, Note_on_c, 0, 79, 0
1, 7422, Note_on_c, 0, 67, 0
1, 7453, Note_on_c, 0, 77, 31
1, 7458, Note_on_c, 0, 70, 50
1, 7469, Note_on_c, 0, 67, 13
1, 7527, Note_on_c, 0, 63, 0
1, 7534, Note_on_c, 0, 67, 0
1, 7569, Note_on_c, 0, 77, 0
1, 7573, Note_on_c, 0, 70, 0
1, 7573, Note_on_c, 0, 67, 35
1, 7584, Note_on_c, 0, 67, 0
1, 7627, Note_on_c, 0, 55, 31
1, 7687, Note_on_c, 0, 65, 60
1, 7692, Note_on_c, 0, 55, 0
1, 7694, Note_on_c, 0, 63, 34
1, 7694, Note_on_c, 0, 62, 27
1, 7697, Note_on_c, 0, 48, 30
1, 7698, Note_on_c, 0, 58, 28
1, 7701, Control_c, 0, 64, 0
1, 7737, Control_c, 0, 64, 127
1, 7790, Note_on_c, 0, 62, 0
1, 7791, Note_on_c, 0, 55, 32
1, 7800, Note_on_c, 0, 48, 0
1, 7801, Note_on_c, 0, 58, 0
1, 7809, Note_on_c, 0, 63, 0
1, 7869, Note_on_c, 0, 63, 35
1, 7880, Note_on_c, 0, 55, 0
1, 7880, Note_on_c, 0, 58, 23
1, 7883, Note_on_c, 0, 60, 12
1, 7890, Note_on_c, 0, 48, 1
1, 7929, Note_on_c, 0, 60, 0
1, 7934, Note_on_c, 0, 65, 0
1, 7944, Note_on_c, 0, 63, 0
1, 7991, Note_on_c, 0, 55, 30
1, 8009, Note_on_c, 0, 58, 0
1, 8018, Note_on_c, 0, 48, 0
1, 8040, Note_on_c, 0, 55, 0
1, 8115, Note_on_c, 0, 67, 50
1, 8162, Note_on_c, 0, 67, 0
1, 8177, Note_on_c, 0, 68, 57
1, 8178, Control_c, 0, 64, 0
1, 8178, Note_on_c, 0, 63, 32
1, 8179, Note_on_c, 0, 58, 38
1, 8181, Note_on_c, 0, 53, 27
1, 8220, Control_c, 0, 64, 127
1, 8229, Note_on_c, 0, 68, 0
1, 8241, Note_on_c, 0, 68, 52
1, 8282, Note_on_c, 0, 68, 0
1, 8299, Note_on_c, 0, 72, 84
1, 8303, Note_on_c, 0, 58, 0
1, 8314, Note_on_c, 0, 63, 0
1, 8340, Note_on_c, 0, 72, 0
1, 8359, Note_on_c, 0, 72, 64
1, 8378, Note_on_c, 0, 72, 0
1, 8416, Note_on_c, 0, 75, 58
1, 8419, Note_on_c, 0, 68, 51
1, 8422, Note_on_c, 0, 63, 21
1, 8423, Control_c, 0, 64, 0
1, 8446, Control_c, 0, 64, 127
1, 8459, Note_on_c, 0, 53, 0
1, 8463, Note_on_c, 0, 63, 0
1, 8488, Note_on_c, 0, 60, 27
1, 8496, Note_on_c, 0, 60, 0
1, 8524, Note_on_c, 0, 68, 0
1, 8534, Note_on_c, 0, 63, 57
1, 8559, Note_on_c, 0, 63, 0
1, 8596, Note_on_c, 0, 75, 0
1, 8598, Note_on_c, 0, 67, 56
1, 8599, Note_on_c, 0, 63, 55
1, 8605, Note_on_c, 0, 55, 37
1, 8615, Control_c, 0, 64, 0
1, 8646, Control_c, 0, 64, 127
1, 8676, Note_on_c, 0, 67, 0
1, 8707, Note_on_c, 0, 63, 0
1, 8713, Note_on_c, 0, 43, 34
1, 8726, Note_on_c, 0, 55, 0
1, 8772, Note_on_c, 0, 59, 48
1, 8780, Note_on_c, 0, 59, 0
1, 8835, Note_on_c, 0, 53, 44
1, 8860, Note_on_c, 0, 43, 0
1, 8880, Note_on_c, 0, 53, 0
1, 8968, Note_on_c, 0, 75, 85
1, 9035, Note_on_c, 0, 75, 0
1, 9065, Note_on_c, 0, 72, 35
1, 9084, Note_on_c, 0, 72, 0
1, 9132, Note_on_c, 0, 67, 29
1, 9132, Note_on_c, 0, 48, 33
1, 9134, Control_c, 0, 64, 0
1, 9186, Control_c, 0, 64, 127
1, 9197, Note_on_c, 0, 55, 42
1, 9298, Note_on_c, 0, 65, 39
1, 9301, Note_on_c, 0, 67, 0
1, 9308, Note_on_c, 0, 58, 18
1, 9320, Note_on_c, 0, 65, 0
1, 9333, Note_on_c, 0, 58, 0
1, 9372, Note_on_c, 0, 62, 36
1, 9375, Note_on_c, 0, 63, 35
1, 9384, Note_on_c, 0, 58, 14
1, 9389, Control_c, 0, 64, 0
1, 9423, Control_c, 0, 64, 127
1, 9431, Note_on_c, 0, 55, 0
1, 9476, Note_on_c, 0, 55, 33
1, 9484, Note_on_c, 0, 62, 0
1, 9485, Note_on_c, 0, 58, 0
1, 9494, Note_on_c, 0, 48, 0
1, 9547, Note_on_c, 0, 60, 40
1, 9550, Control_c, 0, 64, 0
1, 9552, Note_on_c, 0, 55, 0
1, 9552, Note_on_c, 0, 48, 36
1, 9562, Control_c, 0, 64, 127
1, 9570, Note_on_c, 0, 60, 0
1, 9577, Note_on_c, 0, 63, 0
1, 9593, Note_on_c, 0, 48, 0
1, 9662, Note_on_c, 0, 79, 72
1, 9687, Note_on_c, 0, 74, 50
1, 9692, Note_on_c, 0, 79, 0
1, 9709, Note_on_c, 0, 74, 0
1, 9723, Note_on_c, 0, 67, 35
1, 9725, Note_on_c, 0, 75, 73
1, 9726, Note_on_c, 0, 62, 27
1, 9729, Note_on_c, 0, 63, 26
1, 9794, Note_on_c, 0, 67, 0
1, 9837, Note_on_c, 0, 67, 34
1, 9851, Note_on_c, 0, 75, 0
1, 9853, Note_on_c, 0, 63, 0
1, 9883, Note_on_c, 0, 67, 0
1, 9897, Note_on_c, 0, 62, 0
1, 9909, Note_on_c, 0, 63, 33
1, 9938, Note_on_c, 0, 63, 0
1, 9971, Note_on_c, 0, 74, 32
1, 9980, Note_on_c, 0, 74, 0
1, 10004, Note_on_c, 0, 84, 85
1, 10037, Note_on_c, 0, 79, 55
1, 10040, Note_on_c, 0, 84, 0
1, 10061, Note_on_c, 0, 79, 0
1, 10075, Note_on_c, 0, 80, 60
1, 10078, Note_on_c, 0, 60, 46
1, 10078, Note_on_c, 0, 53, 48
1, 10081, Control_c, 0, 64, 0
1, 10094, Note_on_c, 0, 63, 9
1, 10109, Note_on_c, 0, 56, 19
1, 10116, Control_c, 0, 64, 127
1, 10135, Note_on_c, 0, 60, 0
1, 10136, Note_on_c, 0, 53, 0
1, 10146, Note_on_c, 0, 56, 0
1, 10154, Note_on_c, 0, 63, 0
1, 10234, Note_on_c, 0, 80, 0
1, 10271, Note_on_c, 0, 67, 26
1, 10276, Note_on_c, 0, 63, 25
1, 10282, Note_on_c, 0, 60, 29
1, 10368, Note_on_c, 0, 84, 58
1, 10377, Note_on_c, 0, 84, 0
1, 10404, Note_on_c, 0, 84, 52
1, 10419, Note_on_c, 0, 84, 0
1, 10423, Note_on_c, 0, 67, 0
1, 10438, Note_on_c, 0, 63, 0
1, 10444, Note_on_c, 0, 94, 81
1, 10456, Note_on_c, 0, 60, 0
1, 10464, Note_on_c, 0, 94, 0
1, 10501, Note_on_c, 0, 94, 84
1, 10544, Note_on_c, 0, 94, 0
1, 10550, Note_on_c, 0, 82, 56
1, 10554, Note_on_c, 0, 62, 31
1, 10555, Note_on_c, 0, 66, 29
1, 10555, Control_c, 0, 64, 0
1, 10557, Note_on_c, 0, 56, 31
1, 10582, Control_c, 0, 64, 127
1, 10583, Note_on_c, 0, 82, 0
1, 10601, Note_on_c, 0, 82, 38
1, 10621, Note_on_c, 0, 82, 0
1, 10641, Note_on_c, 0, 66, 0
1, 10642, Note_on_c, 0, 91, 62
1, 10647, Note_on_c, 0, 62, 0
1, 10663, Note_on_c, 0, 56, 0
1, 10675, Note_on_c, 0, 91, 0
1, 10689, Note_on_c, 0, 91, 51
1, 10719, Note_on_c, 0, 91, 0
1, 10733, Note_on_c, 0, 79, 53
1, 10746, Note_on_c, 0, 79, 0
1, 10774, Note_on_c, 0, 79, 47
1, 10790, Note_on_c, 0, 79, 0
1, 10811, Control_c, 0, 64, 0
1, 10812, Note_on_c, 0, 89, 75
1, 10816, Note_on_c, 0, 46, 32
1, 10819, Control_c, 0, 64, 127
1, 10824, Note_on_c, 0, 46, 0
1, 10836, Note_on_c, 0, 89, 0
1, 10855, Note_on_c, 0, 89, 55
1, 10872, Note_on_c, 0, 89, 0
1, 10905, Note_on_c, 0, 74, 47
1, 10928, Note_on_c, 0, 74, 0
1, 10948, Note_on_c, 0, 74, 38
1, 10973, Note_on_c, 0, 74, 0
1, 10989, Note_on_c, 0, 86, 71
1, 11018, Note_on_c, 0, 86, 0
1, 11031, Note_on_c, 0, 86, 65
1, 11050, Note_on_c, 0, 86, 0
1, 11070, Note_on_c, 0, 61, 42
1, 11070, Note_on_c, 0, 60, 36
1, 11072, Note_on_c, 0, 65, 42
1, 11075, Control_c, 0, 64, 0
1, 11104, Control_c, 0, 64, 127
1, 11139, Note_on_c, 0, 82, 64
1, 11142, Note_on_c, 0, 70, 42
1, 11169, Note_on_c, 0, 70, 0
1, 11218, Note_on_c, 0, 60, 0
1, 11243, Note_on_c, 0, 57, 48
1, 11246, Note_on_c, 0, 65, 0
1, 11261, Note_on_c, 0, 61, 0
1, 11269, Control_c, 0, 64, 0
1, 11296, Control_c, 0, 64, 127
1, 11339, Note_on_c, 0, 61, 5
1, 11349, Note_on_c, 0, 65, 43
1, 11349, Note_on_c, 0, 70, 37
1, 11387, Control_c, 0, 64, 0
1, 11414, Control_c, 0, 64, 127
1, 11447, Note_on_c, 0, 82, 0
1, 11457, Note_on_c, 0, 57, 0
1, 11458, Note_on_c, 0, 70, 0
1, 11469, Note_on_c, 0, 56, 34
1, 11487, Note_on_c, 0, 65, 0
1, 11507, Note_on_c, 0, 56, 0
1, 11527, Control_c, 0, 64, 0
1, 11528, Note_on_c, 0, 67, 40
1, 11530, Note_on_c, 0, 55, 39
1, 11546, Note_on_c, 0, 61, 0
1, 11554, Control_c, 0, 64, 127
1, 11607, Note_on_c, 0, 67, 0
1, 11646, Note_on_c, 0, 61, 37
1, 11651, Note_on_c, 0, 64, 22
1, 11656, Note_on_c, 0, 55, 0
1, 11671, Note_on_c, 0, 64, 0
1, 11685, Note_on_c, 0, 61, 0
1, 11822, Note_on_c, 0, 70, 40
1, 11828, Note_on_c, 0, 66, 46
1, 11830, Note_on_c, 0, 61, 26
1, 11831, Note_on_c, 0, 55, 34
1, 11837, Control_c, 0, 64, 0
1, 11842, Note_on_c, 0, 61, 0
1, 11844, Note_on_c, 0, 55, 0
1, 11845, Note_on_c, 0, 66, 0
1, 11847, Note_on_c, 0, 70, 0
1, 11894, Control_c, 0, 64, 127
1, 11899, Note_on_c, 0, 45, 24
1, 11908, Note_on_c, 0, 45, 0
1, 11956, Note_on_c, 0, 45, 34
1, 11970, Note_on_c, 0, 45, 0
1, 12012, Note_on_c, 0, 63, 33
1, 12014, Control_c, 0, 64, 0
1, 12014, Note_on_c, 0, 60, 48
1, 12016, Note_on_c, 0, 55, 26
1, 12019, Note_on_c, 0, 44, 32
1, 12039, Control_c, 0, 64, 127
1, 12049, Note_on_c, 0, 55, 0
1, 12059, Note_on_c, 0, 60, 0
1, 12068, Note_on_c, 0, 63, 0
1, 12073, Note_on_c, 0, 51, 45
1, 12120, Note_on_c, 0, 51, 0
1, 12124, Note_on_c, 0, 44, 0
1, 12134, Note_on_c, 0, 55, 28
1, 12140, Note_on_c, 0, 55, 0
1, 12194, Note_on_c, 0, 60, 56
1, 12252, Note_on_c, 0, 72, 77
1, 12252, Note_on_c, 0, 63, 50
1, 12276, Note_on_c, 0, 60, 0
1, 12305, Note_on_c, 0, 72, 0
1, 12313, Note_on_c, 0, 75, 67
1, 12325, Note_on_c, 0, 60, 32
1, 12352, Note_on_c, 0, 63, 0
1, 12357, Note_on_c, 0, 75, 0
1, 12365, Note_on_c, 0, 60, 0
1, 12372, Note_on_c, 0, 79, 38
1, 12381, Note_on_c, 0, 79, 0
1, 12420, Control_c, 0, 64, 0
1, 12427, Note_on_c, 0, 82, 56
1, 12427, Note_on_c, 0, 80, 51
1, 12428, Note_on_c, 0, 56, 47
1, 12429, Note_on_c, 0, 70, 46
1, 12430, Note_on_c, 0, 63, 37
1, 12431, Note_on_c, 0, 59, 42
1, 12439, Note_on_c, 0, 70, 0
1, 12446, Note_on_c, 0, 63, 0
1, 12448, Note_on_c, 0, 80, 0
1, 12453, Note_on_c, 0, 82, 0
1, 12454, Note_on_c, 0, 59, 0
1, 12464, Note_on_c, 0, 56, 0
1, 12542, Note_on_c, 0, 63, 39
1, 12544, Note_on_c, 0, 82, 49
1, 12544, Note_on_c, 0, 59, 44
1, 12544, Note_on_c, 0, 75, 52
1, 12545, Note_on_c, 0, 70, 46
1, 12545, Note_on_c, 0, 56, 32
1, 12547, Note_on_c, 0, 79, 43
1, 12550, Note_on_c, 0, 53, 31
1, 12578, Note_on_c, 0, 79, 0
1, 12587, Note_on_c, 0, 70, 0
1, 12588, Note_on_c, 0, 82, 0
1, 12592, Control_c, 0, 64, 127
1, 12597, Note_on_c, 0, 75, 0
1, 12606, Note_on_c, 0, 80, 47
1, 12610, Note_on_c, 0, 68, 35
1, 12615, Note_on_c, 0, 75, 25
1, 12631, Note_on_c, 0, 68, 0
1, 12633, Note_on_c, 0, 53, 0
1, 12633, Note_on_c, 0, 59, 0
1, 12636, Control_c, 0, 64, 0
1, 12637, Note_on_c, 0, 80, 0
1, 12639, Note_on_c, 0, 75, 0
1, 12650, Note_on_c, 0, 63, 0
1, 12663, Note_on_c, 0, 59, 24
1, 12673, Control_c, 0, 64, 127
1, 12691, Note_on_c, 0, 56, 0
1, 12694, Note_on_c, 0, 59, 0
1, 12696, Control_c, 0, 64, 0
1, 12721, Note_on_c, 0, 82, 60
1, 12724, Note_on_c, 0, 63, 42
1, 12724, Note_on_c, 0, 59, 41
1, 12724, Note_on_c, 0, 75, 50
1, 12725, Note_on_c, 0, 70, 46
1, 12726, Control_c, 0, 64, 127
1, 12732, Note_on_c, 0, 56, 23
1, 12743, Note_on_c, 0, 70, 0
1, 12752, Note_on_c, 0, 75, 0
1, 12754, Note_on_c, 0, 63, 0
1, 12768, Note_on_c, 0, 59, 0
1, 12779, Note_on_c, 0, 82, 0
1, 12786, Note_on_c, 0, 77, 53
1, 12791, Note_on_c, 0, 63, 31
1, 12791, Note_on_c, 0, 59, 24
1, 12829, Note_on_c, 0, 77, 0
1, 12840, Note_on_c, 0, 59, 0
1, 12842, Note_on_c, 0, 79, 57
1, 12843, Note_on_c, 0, 63, 0
1, 12845, Note_on_c, 0, 56, 0
1, 12869, Note_on_c, 0, 79, 0
1, 12903, Note_on_c, 0, 80, 67
1, 12930, Note_on_c, 0, 80, 0
1, 12962, Control_c, 0, 64, 0
1, 12964, Note_on_c, 0, 67, 31
1, 12964, Note_on_c, 0, 79, 65
1, 12998, Control_c, 0, 64, 127
1, 13025, Note_on_c, 0, 55, 32
1, 13039, Note_on_c, 0, 67, 0
1, 13082, Note_on_c, 0, 69, 32
1, 13084, Note_on_c, 0, 72, 32
1, 13086, Note_on_c, 0, 67, 34
1, 13108, Note_on_c, 0, 55, 0
1, 13135, Note_on_c, 0, 69, 0
1, 13144, Note_on_c, 0, 72, 0
1, 13146, Note_on_c, 0, 67, 0
1, 13150, Note_on_c, 0, 55, 20
1, 13205, Note_on_c, 0, 72, 35
1, 13208, Note_on_c, 0, 69, 31
1, 13209, Note_on_c, 0, 67, 30
1, 13224, Note_on_c, 0, 55, 0
1, 13268, Note_on_c, 0, 55, 36
1, 13290, Note_on_c, 0, 69, 0
1, 13299, Note_on_c, 0, 67, 0
1, 13329, Note_on_c, 0, 72, 0
1, 13331, Note_on_c, 0, 67, 22
1, 13345, Note_on_c, 0, 67, 0
1, 13387, Note_on_c, 0, 73, 43
1, 13387, Note_on_c, 0, 71, 33
1, 13411, Note_on_c, 0, 67, 4
1, 13436, Note_on_c, 0, 55, 0
1, 13479, Note_on_c, 0, 71, 0
1, 13492, Note_on_c, 0, 67, 0
1, 13494, Note_on_c, 0, 79, 0
1, 13499, Note_on_c, 0, 73, 0
1, 13510, Note_on_c, 0, 55, 35
1, 13571, Note_on_c, 0, 79, 77
1, 13573, Note_on_c, 0, 67, 72
1, 13574, Note_on_c, 0, 65, 35
1, 13618, Note_on_c, 0, 55, 0
1, 13632, Note_on_c, 0, 67, 0
1, 13633, Note_on_c, 0, 79, 0
1, 13639, Note_on_c, 0, 55, 35
1, 13657, Note_on_c, 0, 65, 0
1, 13695, Note_on_c, 0, 81, 89
1, 13695, Note_on_c, 0, 69, 87
1, 13698, Note_on_c, 0, 65, 57
1, 13726, Note_on_c, 0, 55, 0
1, 13757, Note_on_c, 0, 55, 58
1, 13759, Note_on_c, 0, 81, 0
1, 13764, Note_on_c, 0, 69, 0
1, 13798, Note_on_c, 0, 55, 0
1, 13818, Note_on_c, 0, 83, 88
1, 13820, Note_on_c, 0, 71, 81
1, 13870, Note_on_c, 0, 83, 0
1, 13875, Note_on_c, 0, 65, 0
1, 13885, Note_on_c, 0, 55, 32
1, 13894, Note_on_c, 0, 71, 0
1, 13938, Note_on_c, 0, 79, 59
1, 13939, Control_c, 0, 64, 0
1, 13941, Note_on_c, 0, 62, 26
1, 13942, Note_on_c, 0, 74, 48
1, 13943, Note_on_c, 0, 64, 33
1, 13943, Note_on_c, 0, 67, 34
1, 13966, Control_c, 0, 64, 127
1, 13983, Note_on_c, 0, 67, 0
1, 13990, Note_on_c, 0, 55, 0
1, 14009, Note_on_c, 0, 55, 36
1, 14071, Note_on_c, 0, 55, 0
1, 14071, Note_on_c, 0, 74, 0
1, 14071, Note_on_c, 0, 67, 36
1, 14086, Note_on_c, 0, 67, 0
1, 14134, Note_on_c, 0, 55, 30
1, 14161, Note_on_c, 0, 64, 0
1, 14163, Note_on_c, 0, 62, 0
1, 14164, Note_on_c, 0, 79, 0
1, 14188, Note_on_c, 0, 79, 29
1, 14193, Note_on_c, 0, 67, 38
1, 14210, Note_on_c, 0, 55, 0
1, 14251, Note_on_c, 0, 59, 50
1, 14259, Control_c, 0, 64, 0
1, 14276, Note_on_c, 0, 67, 0
1, 14282, Control_c, 0, 64, 127
1, 14351, Note_on_c, 0, 59, 0
1, 14355, Note_on_c, 0, 57, 49
1, 14378, Control_c, 0, 64, 0
1, 14401, Control_c, 0, 64, 127
1, 14438, Note_on_c, 0, 77, 1
1, 14471, Note_on_c, 0, 64, 37
1, 14472, Note_on_c, 0, 72, 51
1, 14473, Note_on_c, 0, 67, 38
1, 14484, Note_on_c, 0, 60, 25
1, 14526, Note_on_c, 0, 57, 0
1, 14580, Note_on_c, 0, 57, 57
1, 14598, Note_on_c, 0, 72, 0
1, 14602, Note_on_c, 0, 57, 0
1, 14616, Note_on_c, 0, 67, 0
1, 14634, Control_c, 0, 64, 0
1, 14641, Note_on_c, 0, 55, 42
1, 14642, Note_on_c, 0, 64, 0
1, 14644, Note_on_c, 0, 60, 0
1, 14668, Control_c, 0, 64, 127
1, 14707, Note_on_c, 0, 67, 41
1, 14708, Note_on_c, 0, 72, 50
1, 14708, Note_on_c, 0, 64, 36
1, 14709, Note_on_c, 0, 60, 40
1, 14713, Control_c, 0, 64, 0
1, 14745, Control_c, 0, 64, 127
1, 14759, Note_on_c, 0, 55, 0
1, 14764, Note_on_c, 0, 79, 0
1, 14774, Note_on_c, 0, 67, 0
1, 14788, Note_on_c, 0, 72, 0
1, 14806, Note_on_c, 0, 77, 0
1, 14818, Note_on_c, 0, 55, 57
1, 14840, Note_on_c, 0, 55, 0
1, 14880, Note_on_c, 0, 60, 0
1, 14880, Note_on_c, 0, 64, 0
1, 14883, Note_on_c, 0, 81, 80
1, 14884, Control_c, 0, 64, 0
1, 14884, Note_on_c, 0, 54, 71
1, 14886, Note_on_c, 0, 69, 78
1, 14911, Control_c, 0, 64, 127
1, 14944, Note_on_c, 0, 69, 0
1, 14950, Note_on_c, 0, 60, 29
1, 14952, Note_on_c, 0, 64, 26
1, 15004, Note_on_c, 0, 81, 0
1, 15010, Note_on_c, 0, 69, 43
1, 15019, Note_on_c, 0, 69, 0
1, 15019, Note_on_c, 0, 64, 0
1, 15035, Note_on_c, 0, 60, 0
1, 15072, Note_on_c, 0, 84, 67
1, 15076, Note_on_c, 0, 72, 47
1, 15076, Note_on_c, 0, 64, 34
1, 15078, Note_on_c, 0, 60, 35
1, 15124, Note_on_c, 0, 64, 0
1, 15126, Note_on_c, 0, 60, 0
1, 15148, Note_on_c, 0, 72, 0
1, 15158, Note_on_c, 0, 84, 0
1, 15190, Note_on_c, 0, 84, 58
1, 15195, Note_on_c, 0, 72, 49
1, 15196, Note_on_c, 0, 60, 31
1, 15196, Note_on_c, 0, 64, 22
1, 15216, Note_on_c, 0, 64, 0
1, 15220, Note_on_c, 0, 60, 0
1, 15229, Note_on_c, 0, 54, 0
1, 15232, Note_on_c, 0, 72, 0
1, 15232, Note_on_c, 0, 84, 0
1, 15300, Control_c, 0, 64, 0
1, 15300, Note_on_c, 0, 47, 45
1, 15307, Note_on_c, 0, 47, 0
1, 15317, Control_c, 0, 64, 127
1, 15362, Note_on_c, 0, 83, 80
1, 15363, Note_on_c, 0, 74, 74
1, 15364, Note_on_c, 0, 51, 53
1, 15364, Note_on_c, 0, 62, 57
1, 15365, Note_on_c, 0, 79, 71
1, 15366, Note_on_c, 0, 57, 53
1, 15369, Control_c, 0, 64, 0
1, 15399, Note_on_c, 0, 62, 0
1, 15400, Note_on_c, 0, 74, 0
1, 15400, Note_on_c, 0, 57, 0
1, 15401, Note_on_c, 0, 51, 0
1, 15402, Note_on_c, 0, 79, 0
1, 15405, Note_on_c, 0, 83, 0
1, 15492, Note_on_c, 0, 83, 55
1, 15492, Note_on_c, 0, 74, 51
1, 15494, Control_c, 0, 64, 127
1, 15495, Note_on_c, 0, 79, 46
1, 15495, Note_on_c, 0, 62, 40
1, 15496, Note_on_c, 0, 51, 37
1, 15498, Note_on_c, 0, 57, 38
1, 15584, Note_on_c, 0, 62, 0
1, 15584, Note_on_c, 0, 74, 0
1, 15617, Note_on_c, 0, 57, 0
1, 15620, Note_on_c, 0, 83, 0
1, 15629, Note_on_c, 0, 79, 0
1, 15667, Note_on_c, 0, 81, 66
1, 15670, Note_on_c, 0, 77, 54
1, 15670, Note_on_c, 0, 62, 35
1, 15671, Note_on_c, 0, 57, 38
1, 15671, Note_on_c, 0, 72, 48
1, 15706, Note_on_c, 0, 51, 0
1, 15727, Note_on_c, 0, 62, 0
1, 15737, Note_on_c, 0, 57, 0
1, 15752, Note_on_c, 0, 81, 0
1, 15765, Note_on_c, 0, 83, 69
1, 15790, Note_on_c, 0, 77, 0
1, 15791, Note_on_c, 0, 83, 0
1, 15798, Note_on_c, 0, 72, 0
1, 15840, Control_c, 0, 64, 0
1, 15841, Note_on_c, 0, 79, 41
1, 15843, Note_on_c, 0, 46, 34
1, 15845, Note_on_c, 0, 72, 47
1, 15869, Control_c, 0, 64, 127
1, 15906, Note_on_c, 0, 46, 0
1, 15906, Note_on_c, 0, 56, 32
1, 15917, Note_on_c, 0, 56, 0
1, 15939, Note_on_c, 0, 72, 0
1, 16027, Note_on_c, 0, 67, 34
1, 16049, Note_on_c, 0, 67, 0
1, 16068, Note_on_c, 0, 79, 0
1, 16090, Note_on_c, 0, 72, 43
1, 16091, Note_on_c, 0, 76, 38
1, 16094, Note_on_c, 0, 67, 22
1, 16131, Note_on_c, 0, 67, 0
1, 16150, Note_on_c, 0, 62, 30
1, 16163, Note_on_c, 0, 62, 0
1, 16199, Note_on_c, 0, 76, 0
1, 16199, Note_on_c, 0, 72, 0
1, 16213, Note_on_c, 0, 67, 24
1, 16220, Note_on_c, 0, 67, 0
1, 16268, Note_on_c, 0, 46, 32
1, 16303, Note_on_c, 0, 46, 0
1, 16331, Note_on_c, 0, 62, 35
1, 16333, Note_on_c, 0, 45, 34
1, 16333, Note_on_c, 0, 59, 32
1, 16334, Note_on_c, 0, 64, 35
1, 16334, Note_on_c, 0, 67, 26
1, 16336, Note_on_c, 0, 55, 28
1, 16338, Control_c, 0, 64, 0
1, 16372, Control_c, 0, 64, 127
1, 16414, Note_on_c, 0, 62, 0
1, 16431, Note_on_c, 0, 59, 0
1, 16443, Note_on_c, 0, 67, 0
1, 16445, Note_on_c, 0, 55, 0
1, 16446, Note_on_c, 0, 64, 0
1, 16446, Note_on_c, 0, 62, 53
1, 16453, Note_on_c, 0, 62, 0
1, 16459, Note_on_c, 0, 45, 0
1, 16517, Note_on_c, 0, 63, 51
1, 16517, Note_on_c, 0, 58, 57
1, 16517, Note_on_c, 0, 61, 47
1, 16519, Control_c, 0, 64, 0
1, 16519, Note_on_c, 0, 55, 56
1, 16519, Note_on_c, 0, 45, 39
1, 16547, Control_c, 0, 64, 127
1, 16554, Note_on_c, 0, 55, 0
1, 16562, Note_on_c, 0, 58, 0
1, 16564, Note_on_c, 0, 61, 0
1, 16572, Note_on_c, 0, 63, 0
1, 16601, Note_on_c, 0, 64, 66
1, 16602, Note_on_c, 0, 58, 61
1, 16602, Control_c, 0, 64, 0
1, 16605, Note_on_c, 0, 61, 56
1, 16614, Control_c, 0, 64, 127
1, 16646, Note_on_c, 0, 61, 0
1, 16652, Note_on_c, 0, 58, 0
1, 16663, Note_on_c, 0, 64, 0
1, 16678, Control_c, 0, 64, 0
1, 16678, Note_on_c, 0, 67, 64
1, 16680, Note_on_c, 0, 61, 64
1, 16682, Note_on_c, 0, 58, 50
1, 16687, Note_on_c, 0, 52, 28
1, 16699, Control_c, 0, 64, 127
1, 16724, Note_on_c, 0, 52, 0
1, 16726, Note_on_c, 0, 45, 0
1, 16742, Note_on_c, 0, 58, 0
1, 16753, Note_on_c, 0, 61, 0
1, 16756, Note_on_c, 0, 67, 0
1, 16803, Note_on_c, 0, 65, 55
1, 16805, Control_c, 0, 64, 0
1, 16805, Note_on_c, 0, 56, 27
1, 16806, Note_on_c, 0, 53, 30
1, 16806, Note_on_c, 0, 63, 37
1, 16807, Note_on_c, 0, 60, 48
1, 16808, Note_on_c, 0, 41, 25
1, 16838, Control_c, 0, 64, 127
1, 16857, Note_on_c, 0, 56, 0
1, 16859, Note_on_c, 0, 60, 0
1, 16876, Note_on_c, 0, 65, 0
1, 16877, Note_on_c, 0, 63, 0
1, 16880, Note_on_c, 0, 53, 0
1, 16894, Note_on_c, 0, 41, 0
1, 16982, Note_on_c, 0, 65, 60
1, 17001, Note_on_c, 0, 65, 0
1, 17040, Note_on_c, 0, 60, 34
1, 17041, Note_on_c, 0, 63, 20
1, 17042, Note_on_c, 0, 56, 33
1, 17108, Note_on_c, 0, 68, 94
1, 17152, Note_on_c, 0, 68, 0
1, 17170, Note_on_c, 0, 68, 79
1, 17177, Note_on_c, 0, 63, 0
1, 17190, Note_on_c, 0, 60, 0
1, 17210, Note_on_c, 0, 68, 0
1, 17211, Note_on_c, 0, 56, 0
1, 17228, Note_on_c, 0, 68, 52
1, 17243, Note_on_c, 0, 68, 0
1, 17296, Note_on_c, 0, 67, 45
1, 17300, Note_on_c, 0, 64, 52
1, 17301, Note_on_c, 0, 59, 46
1, 17304, Note_on_c, 0, 56, 32
1, 17305, Note_on_c, 0, 62, 35
1, 17305, Note_on_c, 0, 46, 33
1, 17309, Control_c, 0, 64, 0
1, 17367, Control_c, 0, 64, 127
1, 17396, Note_on_c, 0, 59, 0
1, 17435, Note_on_c, 0, 46, 0
1, 17473, Note_on_c, 0, 46, 56
1, 17503, Note_on_c, 0, 56, 0
1, 17532, Note_on_c, 0, 62, 0
1, 17535, Note_on_c, 0, 64, 0
1, 17554, Note_on_c, 0, 67, 0
1, 17599, Note_on_c, 0, 65, 68
1, 17599, Note_on_c, 0, 56, 37
1, 17601, Note_on_c, 0, 62, 67
1, 17601, Note_on_c, 0, 59, 63
1, 17640, Note_on_c, 0, 65, 0
1, 17642, Note_on_c, 0, 59, 0
1, 17647, Note_on_c, 0, 62, 0
1, 17658, Note_on_c, 0, 46, 0
1, 17715, Note_on_c, 0, 56, 0
1, 17772, Note_on_c, 0, 61, 55
1, 17773, Note_on_c, 0, 70, 50
1, 17778, Note_on_c, 0, 65, 43
1, 17779, Note_on_c, 0, 60, 47
1, 17779, Note_on_c, 0, 51, 37
1, 17783, Control_c, 0, 64, 0
1, 17833, Control_c, 0, 64, 127
1, 17865, Note_on_c, 0, 61, 0
1, 17873, Note_on_c, 0, 60, 0
1, 17873, Note_on_c, 0, 65, 0
1, 17953, Note_on_c, 0, 61, 35
1, 17956, Note_on_c, 0, 65, 51
1, 17958, Note_on_c, 0, 60, 45
1, 18061, Note_on_c, 0, 60, 0
1, 18069, Note_on_c, 0, 58, 38
1, 18108, Note_on_c, 0, 61, 0
1, 18128, Note_on_c, 0, 65, 0
1, 18167, Note_on_c, 0, 51, 0
1, 18185, Note_on_c, 0, 51, 54
1, 18225, Note_on_c, 0, 58, 0
1, 18303, Note_on_c, 0, 61, 42
1, 18305, Note_on_c, 0, 64, 57
1, 18311, Note_on_c, 0, 58, 27
1, 18318, Control_c, 0, 64, 0
1, 18351, Control_c, 0, 64, 127
1, 18367, Note_on_c, 0, 51, 0
1, 18394, Note_on_c, 0, 64, 0
1, 18395, Note_on_c, 0, 70, 0
1, 18413, Note_on_c, 0, 61, 0
1, 18420, Note_on_c, 0, 51, 37
1, 18423, Note_on_c, 0, 58, 0
1, 18441, Note_on_c, 0, 51, 0
1, 18487, Note_on_c, 0, 63, 34
1, 18491, Note_on_c, 0, 58, 21
1, 18492, Note_on_c, 0, 55, 24
1, 18494, Note_on_c, 0, 61, 32
1, 18495, Control_c, 0, 64, 0
1, 18495, Note_on_c, 0, 45, 40
1, 18498, Note_on_c, 0, 55, 0
1, 18501, Note_on_c, 0, 61, 0
1, 18501, Note_on_c, 0, 58, 0
1, 18503, Note_on_c, 0, 45, 0
1, 18508, Note_on_c, 0, 63, 0
1, 18602, Control_c, 0, 64, 127
1, 18605, Note_on_c, 0, 63, 38
1, 18608, Note_on_c, 0, 55, 38
1, 18609, Note_on_c, 0, 58, 37
1, 18609, Note_on_c, 0, 61, 38
1, 18609, Note_on_c, 0, 45, 32
1, 18640, Note_on_c, 0, 58, 0
1, 18643, Note_on_c, 0, 45, 0
1, 18673, Note_on_c, 0, 55, 0
1, 18692, Note_on_c, 0, 63, 0
1, 18694, Note_on_c, 0, 61, 0
1, 18718, Control_c, 0, 64, 0
1, 18722, Note_on_c, 0, 44, 43
1, 18723, Note_on_c, 0, 60, 51
1, 18735, Control_c, 0, 64, 127
1, 18743, Note_on_c, 0, 60, 0
1, 18786, Note_on_c, 0, 51, 46
1, 18797, Note_on_c, 0, 44, 0
1, 18802, Note_on_c, 0, 51, 0
1, 18850, Note_on_c, 0, 56, 31
1, 18905, Note_on_c, 0, 72, 75
1, 18908, Note_on_c, 0, 60, 49
1, 18940, Note_on_c, 0, 72, 0
1, 18964, Note_on_c, 0, 63, 44
1, 18966, Note_on_c, 0, 60, 0
1, 18968, Note_on_c, 0, 75, 87
1, 19012, Note_on_c, 0, 75, 0
1, 19029, Note_on_c, 0, 75, 63
1, 19070, Note_on_c, 0, 75, 0
1, 19082, Note_on_c, 0, 60, 40
1, 19085, Note_on_c, 0, 79, 68
1, 19094, Note_on_c, 0, 63, 0
1, 19110, Note_on_c, 0, 56, 0
1, 19113, Note_on_c, 0, 79, 0
1, 19132, Note_on_c, 0, 60, 0
1, 19145, Note_on_c, 0, 79, 57
1, 19147, Note_on_c, 0, 56, 34
1, 19172, Note_on_c, 0, 79, 0
1, 19176, Note_on_c, 0, 56, 0
1, 19202, Note_on_c, 0, 75, 52
1, 19203, Note_on_c, 0, 82, 48
1, 19204, Note_on_c, 0, 59, 34
1, 19204, Note_on_c, 0, 79, 32
1, 19205, Note_on_c, 0, 53, 32
1, 19206, Control_c, 0, 64, 0
1, 19207, Note_on_c, 0, 70, 37
1, 19208, Note_on_c, 0, 63, 29
1, 19246, Control_c, 0, 64, 127
1, 19290, Note_on_c, 0, 53, 0
1, 19297, Note_on_c, 0, 63, 0
1, 19299, Note_on_c, 0, 79, 0
1, 19308, Note_on_c, 0, 82, 0
1, 19309, Note_on_c, 0, 70, 0
1, 19329, Note_on_c, 0, 75, 0
1, 19333, Note_on_c, 0, 59, 0
1, 19383, Note_on_c, 0, 80, 48
1, 19384, Note_on_c, 0, 59, 34
1, 19387, Note_on_c, 0, 68, 46
1, 19388, Note_on_c, 0, 75, 52
1, 19388, Note_on_c, 0, 63, 37
1, 19389, Note_on_c, 0, 53, 45
1, 19390, Control_c, 0, 64, 0
1, 19425, Control_c, 0, 64, 127
1, 19460, Note_on_c, 0, 80, 0
1, 19462, Note_on_c, 0, 63, 0
1, 19466, Note_on_c, 0, 73, 1
1, 19478, Note_on_c, 0, 75, 0
1, 19484, Note_on_c, 0, 68, 0
1, 19486, Note_on_c, 0, 53, 0
1, 19488, Note_on_c, 0, 73, 0
1, 19489, Note_on_c, 0, 59, 0
1, 19514, Note_on_c, 0, 53, 19
1, 19526, Note_on_c, 0, 53, 0
1, 19567, Note_on_c, 0, 75, 51
1, 19570, Note_on_c, 0, 68, 27
1, 19610, Note_on_c, 0, 68, 0
1, 19622, Note_on_c, 0, 75, 0
1, 19630, Note_on_c, 0, 77, 51
1, 19670, Note_on_c, 0, 77, 0
1, 19688, Note_on_c, 0, 79, 74
1, 19691, Note_on_c, 0, 67, 51
1, 19698, Control_c, 0, 64, 0
1, 19737, Control_c, 0, 64, 127
1, 19755, Note_on_c, 0, 55, 29
1, 19782, Note_on_c, 0, 67, 0
1, 19816, Note_on_c, 0, 68, 29
1, 19817, Note_on_c, 0, 72, 43
1, 19844, Note_on_c, 0, 72, 0
1, 19845, Note_on_c, 0, 68, 0
1, 19848, Note_on_c, 0, 79, 0
1, 19882, Note_on_c, 0, 67, 20
1, 19937, Note_on_c, 0, 91, 67
1, 19940, Note_on_c, 0, 67, 0
1, 19981, Note_on_c, 0, 91, 0
1, 19995, Note_on_c, 0, 79, 36
1, 20002, Note_on_c, 0, 79, 0
1, 20082, Note_on_c, 0, 55, 0
1, 20107, Note_on_c, 0, 79, 58
1, 20119, Note_on_c, 0, 55, 25
1, 20195, Note_on_c, 0, 55, 0
1, 20223, Note_on_c, 0, 68, 37
1, 20280, Note_on_c, 0, 78, 1
1, 20285, Note_on_c, 0, 55, 31
1, 20289, Note_on_c, 0, 79, 0
1, 20312, Note_on_c, 0, 68, 0
1, 20328, Note_on_c, 0, 78, 0
1, 20345, Note_on_c, 0, 68, 28
1, 20347, Note_on_c, 0, 73, 43
1, 20349, Note_on_c, 0, 65, 25
1, 20351, Note_on_c, 0, 71, 30
1, 20387, Note_on_c, 0, 68, 0
1, 20395, Note_on_c, 0, 71, 0
1, 20400, Note_on_c, 0, 55, 0
1, 20404, Note_on_c, 0, 73, 0
1, 20464, Note_on_c, 0, 55, 43
1, 20494, Note_on_c, 0, 65, 0
1, 20517, Note_on_c, 0, 55, 0
1, 20590, Note_on_c, 0, 80, 72
1, 20605, Note_on_c, 0, 80, 0
1, 20619, Note_on_c, 0, 80, 57
1, 20643, Control_c, 0, 64, 0
1, 20648, Note_on_c, 0, 80, 0
1, 20649, Note_on_c, 0, 48, 36
1, 20650, Note_on_c, 0, 79, 64
1, 20652, Note_on_c, 0, 55, 25
1, 20677, Control_c, 0, 64, 127
1, 20690, Note_on_c, 0, 48, 0
1, 20700, Note_on_c, 0, 55, 0
1, 20721, Note_on_c, 0, 62, 16
1, 20768, Note_on_c, 0, 62, 0
1, 20770, Note_on_c, 0, 63, 34
1, 20827, Note_on_c, 0, 79, 0
1, 20836, Note_on_c, 0, 74, 44
1, 20849, Note_on_c, 0, 67, 6
1, 20867, Note_on_c, 0, 74, 0
1, 20908, Note_on_c, 0, 67, 0
1, 20941, Note_on_c, 0, 77, 57
1, 20943, Note_on_c, 0, 70, 21
1, 20976, Note_on_c, 0, 70, 0
1, 20988, Note_on_c, 0, 75, 51
1, 20996, Note_on_c, 0, 63, 0
1, 21020, Note_on_c, 0, 77, 0
1, 21024, Note_on_c, 0, 75, 0
1, 21042, Note_on_c, 0, 67, 33
1, 21062, Note_on_c, 0, 67, 0
1, 21076, Note_on_c, 0, 74, 66
1, 21104, Note_on_c, 0, 74, 0
1, 21109, Control_c, 0, 64, 0
1, 21115, Note_on_c, 0, 72, 51
1, 21115, Note_on_c, 0, 48, 29
1, 21130, Control_c, 0, 64, 127
1, 21145, Note_on_c, 0, 72, 0
1, 21156, Note_on_c, 0, 67, 32
1, 21173, Note_on_c, 0, 67, 0
1, 21197, Note_on_c, 0, 62, 42
1, 21228, Note_on_c, 0, 62, 0
1, 21239, Note_on_c, 0, 65, 66
1, 21269, Note_on_c, 0, 65, 0
1, 21274, Note_on_c, 0, 63, 63
1, 21302, Note_on_c, 0, 63, 0
1, 21326, Note_on_c, 0, 53, 28
1, 21347, Note_on_c, 0, 53, 0
1, 21350, Note_on_c, 0, 48, 0
1, 21368, Note_on_c, 0, 48, 43
1, 21410, Note_on_c, 0, 55, 64
1, 21419, Note_on_c, 0, 55, 0
1, 21432, Note_on_c, 0, 48, 0
1, 21442, Note_on_c, 0, 57, 55
1, 21469, Note_on_c, 0, 57, 0
1, 21473, Note_on_c, 0, 58, 56
1, 21490, Note_on_c, 0, 58, 0
1, 21502, Note_on_c, 0, 60, 71
1, 21521, Note_on_c, 0, 60, 0
1, 21537, Note_on_c, 0, 63, 78
1, 21573, Note_on_c, 0, 63, 0
1, 21575, Note_on_c, 0, 60, 54
1, 21579, Control_c, 0, 64, 0
1, 21582, Note_on_c, 0, 41, 41
1, 21584, Note_on_c, 0, 51, 26
1, 21613, Control_c, 0, 64, 127
1, 21638, Note_on_c, 0, 41, 0
1, 21657, Note_on_c, 0, 51, 0
1, 21661, Note_on_c, 0, 60, 0
1, 21661, Note_on_c, 0, 62, 54
1, 21680, Note_on_c, 0, 62, 0
1, 21690, Note_on_c, 0, 63, 52
1, 21699, Note_on_c, 0, 63, 0
1, 21719, Note_on_c, 0, 65, 57
1, 21729, Note_on_c, 0, 65, 0
1, 21752, Note_on_c, 0, 68, 65
1, 21763, Control_c, 0, 64, 0
1, 21772, Note_on_c, 0, 68, 0
1, 21818, Note_on_c, 0, 68, 57
1, 21833, Note_on_c, 0, 68, 0
1, 21846, Note_on_c, 0, 70, 67
1, 21860, Note_on_c, 0, 70, 0
1, 21882, Note_on_c, 0, 72, 67
1, 21890, Note_on_c, 0, 72, 0
1, 21923, Note_on_c, 0, 74, 76
1, 21940, Note_on_c, 0, 74, 0
1, 21960, Note_on_c, 0, 75, 69
1, 21963, Note_on_c, 0, 63, 28
1, 21969, Note_on_c, 0, 60, 31
1, 21970, Note_on_c, 0, 56, 30
1, 21981, Control_c, 0, 64, 127
1, 21982, Note_on_c, 0, 75, 0
1, 21999, Note_on_c, 0, 77, 53
1, 22005, Note_on_c, 0, 60, 0
1, 22019, Note_on_c, 0, 56, 0
1, 22021, Note_on_c, 0, 77, 0
1, 22028, Note_on_c, 0, 63, 0
1, 22039, Note_on_c, 0, 79, 64
1, 22064, Note_on_c, 0, 79, 0
1, 22085, Control_c, 0, 64, 0
1, 22085, Note_on_c, 0, 80, 49
1, 22114, Note_on_c, 0, 80, 0
1, 22154, Note_on_c, 0, 82, 59
1, 22156, Note_on_c, 0, 70, 50
1, 22157, Note_on_c, 0, 75, 56
1, 22158, Note_on_c, 0, 63, 43
1, 22158, Note_on_c, 0, 59, 49
1, 22162, Note_on_c, 0, 79, 33
1, 22167, Note_on_c, 0, 70, 0
1, 22172, Note_on_c, 0, 79, 0
1, 22174, Note_on_c, 0, 75, 0
1, 22176, Note_on_c, 0, 63, 0
1, 22179, Note_on_c, 0, 59, 0
1, 22179, Note_on_c, 0, 82, 0
1, 22222, Control_c, 0, 64, 127
1, 22271, Note_on_c, 0, 80, 49
1, 22273, Note_on_c, 0, 68, 52
1, 22273, Note_on_c, 0, 59, 38
1, 22275, Note_on_c, 0, 75, 49
1, 22277, Note_on_c, 0, 63, 26
1, 22299, Note_on_c, 0, 75, 0
1, 22301, Note_on_c, 0, 80, 0
1, 22305, Note_on_c, 0, 63, 0
1, 22310, Note_on_c, 0, 68, 0
1, 22317, Note_on_c, 0, 59, 0
1, 22334, Control_c, 0, 64, 0
1, 22334, Note_on_c, 0, 59, 31
1, 22334, Note_on_c, 0, 75, 51
1, 22336, Note_on_c, 0, 63, 34
1, 22337, Note_on_c, 0, 67, 46
1, 22337, Note_on_c, 0, 79, 51
1, 22343, Note_on_c, 0, 53, 31
1, 22350, Control_c, 0, 64, 127
1, 22389, Note_on_c, 0, 79, 0
1, 22390, Note_on_c, 0, 63, 0
1, 22396, Note_on_c, 0, 59, 0
1, 22401, Note_on_c, 0, 75, 0
1, 22422, Note_on_c, 0, 67, 0
1, 22455, Note_on_c, 0, 63, 20
1, 22455, Note_on_c, 0, 59, 39
1, 22462, Note_on_c, 0, 63, 0
1, 22462, Note_on_c, 0, 71, 41
1, 22464, Note_on_c, 0, 59, 0
1, 22472, Note_on_c, 0, 53, 0
1, 22473, Note_on_c, 0, 71, 0
1, 22496, Note_on_c, 0, 71, 32
1, 22513, Note_on_c, 0, 71, 0
1, 22529, Note_on_c, 0, 77, 75
1, 22546, Note_on_c, 0, 77, 0
1, 22561, Note_on_c, 0, 77, 75
1, 22590, Note_on_c, 0, 55, 32
1, 22590, Note_on_c, 0, 48, 37
1, 22591, Note_on_c, 0, 74, 62
1, 22594, Note_on_c, 0, 77, 0
1, 22594, Control_c, 0, 64, 0
1, 22610, Note_on_c, 0, 74, 0
1, 22626, Control_c, 0, 64, 127
1, 22627, Note_on_c, 0, 74, 47
1, 22642, Note_on_c, 0, 74, 0
1, 22657, Note_on_c, 0, 75, 52
1, 22672, Note_on_c, 0, 75, 0
1, 22687, Note_on_c, 0, 75, 59
1, 22695, Note_on_c, 0, 48, 0
1, 22697, Note_on_c, 0, 55, 0
1, 22717, Note_on_c, 0, 75, 0
1, 22722, Note_on_c, 0, 67, 30
1, 22768, Note_on_c, 0, 67, 0
1, 22769, Note_on_c, 0, 63, 34
1, 22774, Note_on_c, 0, 70, 56
1, 22777, Note_on_c, 0, 58, 34
1, 22778, Control_c, 0, 64, 0
1, 22789, Note_on_c, 0, 53, 5
1, 22808, Control_c, 0, 64, 127
1, 22842, Note_on_c, 0, 53, 0
1, 22854, Note_on_c, 0, 58, 0
1, 22859, Note_on_c, 0, 63, 0
1, 22873, Note_on_c, 0, 70, 0
1, 22888, Note_on_c, 0, 67, 34
1, 22891, Note_on_c, 0, 72, 44
1, 22893, Note_on_c, 0, 60, 37
1, 22894, Note_on_c, 0, 55, 37
1, 22902, Control_c, 0, 64, 0
1, 22913, Control_c, 0, 64, 127
1, 22929, Note_on_c, 0, 60, 0
1, 22930, Note_on_c, 0, 72, 0
1, 22934, Note_on_c, 0, 55, 0
1, 22944, Note_on_c, 0, 67, 0
1, 22993, Note_on_c, 0, 55, 28
1, 23056, Note_on_c, 0, 65, 44
1, 23058, Note_on_c, 0, 62, 28
1, 23061, Control_c, 0, 64, 0
1, 23062, Note_on_c, 0, 55, 0
1, 23062, Note_on_c, 0, 58, 21
1, 23066, Note_on_c, 0, 48, 25
1, 23084, Control_c, 0, 64, 127
1, 23142, Note_on_c, 0, 58, 0
1, 23187, Note_on_c, 0, 62, 0
1, 23226, Note_on_c, 0, 65, 0
1, 23229, Note_on_c, 0, 63, 46
1, 23231, Note_on_c, 0, 60, 42
1, 23231, Note_on_c, 0, 58, 32
1, 23250, Control_c, 0, 64, 0
1, 23262, Note_on_c, 0, 48, 0
1, 23277, Control_c, 0, 64, 127
1, 23280, Note_on_c, 0, 58, 0
1, 23295, Note_on_c, 0, 65, 14
1, 23315, Note_on_c, 0, 65, 0
1, 23322, Note_on_c, 0, 63, 0
1, 23324, Note_on_c, 0, 60, 0
1, 23351, Note_on_c, 0, 48, 40
1, 23388, Note_on_c, 0, 48, 0
1, 23465, Note_on_c, 0, 48, 34
1, 23518, Note_on_c, 0, 48, 0
1, 23521, Control_c, 0, 64, 0
1, 23525, Note_on_c, 0, 41, 44
1, 23543, Control_c, 0, 64, 127
1, 23581, Note_on_c, 0, 41, 0
1, 23702, Note_on_c, 0, 80, 76
1, 23709, Note_on_c, 0, 75, 55
1, 23712, Note_on_c, 0, 72, 61
1, 23714, Note_on_c, 0, 63, 40
1, 23715, Note_on_c, 0, 78, 27
1, 23715, Note_on_c, 0, 56, 35
1, 23717, Note_on_c, 0, 60, 36
1, 23721, Note_on_c, 0, 53, 19
1, 23723, Note_on_c, 0, 78, 0
1, 23725, Note_on_c, 0, 68, 32
1, 23757, Note_on_c, 0, 80, 0
1, 23758, Note_on_c, 0, 63, 0
1, 23761, Note_on_c, 0, 72, 0
1, 23763, Note_on_c, 0, 68, 0
1, 23766, Note_on_c, 0, 75, 0
1, 23768, Note_on_c, 0, 60, 0
1, 23782, Note_on_c, 0, 80, 68
1, 23791, Note_on_c, 0, 75, 56
1, 23791, Note_on_c, 0, 72, 69
1, 23796, Note_on_c, 0, 68, 51
1, 23835, Note_on_c, 0, 72, 0
1, 23843, Note_on_c, 0, 75, 0
1, 23860, Note_on_c, 0, 68, 0
1, 23881, Note_on_c, 0, 80, 0
1, 23885, Note_on_c, 0, 75, 38
1, 23886, Note_on_c, 0, 68, 48
1, 23887, Note_on_c, 0, 63, 30
1, 23889, Note_on_c, 0, 72, 51
1, 23891, Note_on_c, 0, 53, 0
1, 23893, Note_on_c, 0, 60, 24
1, 23903, Note_on_c, 0, 60, 0
1, 23917, Note_on_c, 0, 56, 0
1, 23918, Note_on_c, 0, 72, 0
1, 23923, Note_on_c, 0, 63, 0
1, 23928, Note_on_c, 0, 68, 0
1, 23934, Note_on_c, 0, 75, 0
1, 24008, Note_on_c, 0, 79, 74
1, 24010, Note_on_c, 0, 72, 78
1, 24012, Note_on_c, 0, 68, 74
1, 24012, Note_on_c, 0, 74, 68
1, 24015, Note_on_c, 0, 67, 59
1, 24018, Control_c, 0, 64, 0
1, 24055, Control_c, 0, 64, 127
1, 24128, Note_on_c, 0, 56, 36
1, 24133, Note_on_c, 0, 67, 0
1, 24151, Note_on_c, 0, 68, 0
1, 24155, Note_on_c, 0, 72, 0
1, 24156, Note_on_c, 0, 74, 0
1, 24169, Note_on_c, 0, 79, 0
1, 24202, Note_on_c, 0, 68, 39
1, 24203, Note_on_c, 0, 74, 32
1, 24203, Note_on_c, 0, 71, 49
1, 24205, Note_on_c, 0, 65, 36
1, 24208, Control_c, 0, 64, 0
1, 24234, Control_c, 0, 64, 127
1, 24297, Note_on_c, 0, 56, 0
1, 24318, Note_on_c, 0, 77, 57
1, 24318, Note_on_c, 0, 56, 33
1, 24375, Note_on_c, 0, 74, 0
1, 24384, Note_on_c, 0, 65, 0
1, 24397, Note_on_c, 0, 77, 0
1, 24409, Note_on_c, 0, 71, 0
1, 24413, Note_on_c, 0, 56, 0
1, 24414, Note_on_c, 0, 74, 55
1, 24450, Note_on_c, 0, 68, 0
1, 24476, Note_on_c, 0, 74, 0
1, 24485, Note_on_c, 0, 68, 33
1, 24486, Note_on_c, 0, 61, 33
1, 24486, Note_on_c, 0, 72, 47
1, 24488, Control_c, 0, 64, 0
1, 24488, Note_on_c, 0, 60, 31
1, 24489, Note_on_c, 0, 65, 19
1, 24519, Control_c, 0, 64, 127
1, 24562, Note_on_c, 0, 60, 0
1, 24576, Note_on_c, 0, 57, 41
1, 24593, Note_on_c, 0, 65, 0
1, 24608, Note_on_c, 0, 61, 0
1, 24662, Note_on_c, 0, 61, 32
1, 24667, Note_on_c, 0, 65, 28
1, 24673, Control_c, 0, 64, 0
1, 24681, Control_c, 0, 64, 127
1, 24731, Note_on_c, 0, 57, 0
1, 24737, Note_on_c, 0, 56, 52
1, 24751, Note_on_c, 0, 65, 0
1, 24763, Note_on_c, 0, 61, 0
1, 24794, Control_c, 0, 64, 0
1, 24817, Note_on_c, 0, 65, 31
1, 24819, Note_on_c, 0, 61, 31
1, 24821, Control_c, 0, 64, 127
1, 24873, Note_on_c, 0, 56, 0
1, 24902, Note_on_c, 0, 72, 0
1, 24903, Note_on_c, 0, 55, 34
1, 24905, Control_c, 0, 64, 0
1, 24921, Note_on_c, 0, 68, 0
1, 24927, Note_on_c, 0, 65, 0
1, 24941, Control_c, 0, 64, 127
1, 24943, Note_on_c, 0, 61, 0
1, 25014, Note_on_c, 0, 84, 62
1, 25017, Note_on_c, 0, 72, 47
1, 25019, Note_on_c, 0, 65, 36
1, 25020, Note_on_c, 0, 61, 42
1, 25023, Control_c, 0, 64, 0
1, 25047, Note_on_c, 0, 84, 0
1, 25048, Note_on_c, 0, 72, 0
1, 25061, Note_on_c, 0, 55, 0
1, 25078, Note_on_c, 0, 75, 47
1, 25078, Note_on_c, 0, 55, 49
1, 25079, Note_on_c, 0, 87, 59
1, 25085, Note_on_c, 0, 75, 0
1, 25087, Note_on_c, 0, 55, 0
1, 25089, Note_on_c, 0, 87, 0
1, 25089, Note_on_c, 0, 65, 0
1, 25099, Note_on_c, 0, 61, 0
1, 25148, Control_c, 0, 64, 127
1, 25149, Note_on_c, 0, 91, 71
1, 25150, Note_on_c, 0, 61, 53
1, 25150, Note_on_c, 0, 55, 66
1, 25151, Note_on_c, 0, 64, 56
1, 25151, Note_on_c, 0, 86, 69
1, 25152, Note_on_c, 0, 79, 69
1, 25203, Note_on_c, 0, 55, 0
1, 25204, Note_on_c, 0, 64, 0
1, 25204, Note_on_c, 0, 91, 0
1, 25206, Note_on_c, 0, 79, 0
1, 25208, Note_on_c, 0, 86, 0
1, 25208, Note_on_c, 0, 61, 0
1, 25221, Note_on_c, 0, 91, 40
1, 25221, Note_on_c, 0, 61, 57
1, 25221, Note_on_c, 0, 55, 61
1, 25221, Note_on_c, 0, 86, 67
1, 25223, Note_on_c, 0, 79, 57
1, 25223, Note_on_c, 0, 64, 44
1, 25224, Control_c, 0, 64, 0
1, 25243, Control_c, 0, 64, 127
1, 25254, Note_on_c, 0, 91, 0
1, 25256, Note_on_c, 0, 79, 0
1, 25263, Note_on_c, 0, 86, 0
1, 25277, Note_on_c, 0, 61, 0
1, 25277, Note_on_c, 0, 64, 0
1, 25287, Note_on_c, 0, 55, 0
1, 25322, Control_c, 0, 64, 0
1, 25323, Note_on_c, 0, 94, 60
1, 25325, Note_on_c, 0, 61, 62
1, 25325, Note_on_c, 0, 87, 67
1, 25326, Note_on_c, 0, 55, 65
1, 25328, Note_on_c, 0, 82, 45
1, 25329, Note_on_c, 0, 64, 51
1, 25331, Note_on_c, 0, 91, 29
1, 25339, Control_c, 0, 64, 127
1, 25352, Note_on_c, 0, 55, 0
1, 25358, Note_on_c, 0, 64, 0
1, 25361, Note_on_c, 0, 91, 0
1, 25363, Note_on_c, 0, 87, 0
1, 25367, Note_on_c, 0, 61, 0
1, 25369, Note_on_c, 0, 82, 0
1, 25375, Note_on_c, 0, 94, 0
1, 25444, Note_on_c, 0, 96, 83
1, 25445, Control_c, 0, 64, 0
1, 25445, Note_on_c, 0, 89, 75
1, 25446, Note_on_c, 0, 84, 70
1, 25448, Note_on_c, 0, 63, 58
1, 25449, Note_on_c, 0, 58, 57
1, 25449, Note_on_c, 0, 53, 53
1, 25474, Control_c, 0, 64, 127
1, 25517, Note_on_c, 0, 96, 0
1, 25538, Note_on_c, 0, 89, 0
1, 25544, Note_on_c, 0, 84, 0
1, 25603, Note_on_c, 0, 63, 0
1, 25625, Note_on_c, 0, 58, 0
1, 25678, Note_on_c, 0, 75, 81
1, 25680, Note_on_c, 0, 68, 85
1, 25680, Note_on_c, 0, 72, 75
1, 25682, Note_on_c, 0, 63, 77
1, 25682, Note_on_c, 0, 65, 77
1, 25685, Control_c, 0, 64, 0
1, 25718, Control_c, 0, 64, 127
1, 25730, Note_on_c, 0, 75, 0
1, 25741, Note_on_c, 0, 65, 0
1, 25748, Note_on_c, 0, 72, 0
1, 25751, Note_on_c, 0, 75, 74
1, 25755, Note_on_c, 0, 65, 55
1, 25759, Note_on_c, 0, 53, 0
1, 25783, Note_on_c, 0, 65, 0
1, 25792, Note_on_c, 0, 68, 0
1, 25797, Note_on_c, 0, 75, 0
1, 25804, Note_on_c, 0, 63, 0
1, 25807, Note_on_c, 0, 72, 45
1, 25809, Note_on_c, 0, 60, 50
1, 25814, Note_on_c, 0, 72, 0
1, 25816, Note_on_c, 0, 60, 0
1, 25852, Note_on_c, 0, 78, 31
1, 25859, Note_on_c, 0, 78, 0
1, 25877, Note_on_c, 0, 82, 86
1, 25878, Note_on_c, 0, 75, 78
1, 25880, Note_on_c, 0, 71, 68
1, 25881, Note_on_c, 0, 70, 78
1, 25886, Control_c, 0, 64, 0
1, 25930, Control_c, 0, 64, 127
1, 25964, Note_on_c, 0, 75, 0
1, 25970, Note_on_c, 0, 71, 0
1, 25977, Note_on_c, 0, 82, 0
1, 25988, Note_on_c, 0, 70, 0
1, 25990, Note_on_c, 0, 68, 60
1, 25991, Note_on_c, 0, 80, 57
1, 25992, Note_on_c, 0, 75, 63
1, 25992, Note_on_c, 0, 71, 45
1, 26019, Note_on_c, 0, 68, 0
1, 26023, Note_on_c, 0, 71, 0
1, 26060, Note_on_c, 0, 71, 30
1, 26064, Note_on_c, 0, 80, 0
1, 26072, Note_on_c, 0, 75, 0
1, 26113, Note_on_c, 0, 71, 0
1, 26191, Control_c, 0, 64, 0
1, 26203, Control_c, 0, 64, 127
1, 26239, Note_on_c, 0, 75, 57
1, 26239, Note_on_c, 0, 68, 47
1, 26240, Note_on_c, 0, 63, 42
1, 26244, Note_on_c, 0, 71, 43
1, 26246, Control_c, 0, 64, 0
1, 26276, Control_c, 0, 64, 127
1, 26288, Note_on_c, 0, 71, 0
1, 26288, Note_on_c, 0, 68, 0
1, 26301, Note_on_c, 0, 75, 0
1, 26303, Note_on_c, 0, 63, 0
1, 26320, Note_on_c, 0, 68, 40
1, 26320, Note_on_c, 0, 65, 26
1, 26324, Note_on_c, 0, 77, 40
1, 26325, Note_on_c, 0, 75, 35
1, 26330, Note_on_c, 0, 65, 0
1, 26345, Note_on_c, 0, 68, 0
1, 26353, Note_on_c, 0, 75, 0
1, 26374, Note_on_c, 0, 77, 0
1, 26403, Control_c, 0, 64, 0
1, 26404, Note_on_c, 0, 79, 46
1, 26406, Note_on_c, 0, 72, 38
1, 26410, Note_on_c, 0, 67, 29
1, 26411, Note_on_c, 0, 65, 34
1, 26411, Note_on_c, 0, 50, 30
1, 26438, Control_c, 0, 64, 127
1, 26476, Note_on_c, 0, 56, 37
1, 26479, Note_on_c, 0, 79, 0
1, 26482, Note_on_c, 0, 72, 0
1, 26493, Note_on_c, 0, 67, 0
1, 26499, Note_on_c, 0, 65, 0
1, 26560, Note_on_c, 0, 56, 0
1, 26587, Note_on_c, 0, 60, 30
1, 26589, Note_on_c, 0, 67, 28
1, 26589, Note_on_c, 0, 65, 34
1, 26600, Note_on_c, 0, 56, 25
1, 26623, Note_on_c, 0, 65, 0
1, 26625, Note_on_c, 0, 67, 0
1, 26635, Note_on_c, 0, 56, 0
1, 26635, Note_on_c, 0, 60, 0
1, 26685, Note_on_c, 0, 55, 55
1, 26704, Note_on_c, 0, 55, 0
1, 26713, Note_on_c, 0, 56, 60
1, 26737, Control_c, 0, 64, 0
1, 26752, Note_on_c, 0, 59, 49
1, 26763, Note_on_c, 0, 56, 0
1, 26768, Note_on_c, 0, 59, 0
1, 26786, Note_on_c, 0, 63, 79
1, 26836, Note_on_c, 0, 50, 0
1, 26842, Note_on_c, 0, 63, 0
1, 26851, Note_on_c, 0, 60, 36
1, 26902, Note_on_c, 0, 43, 51
1, 26914, Note_on_c, 0, 43, 0
1, 26958, Note_on_c, 0, 60, 0
1, 26969, Note_on_c, 0, 62, 42
1, 27000, Note_on_c, 0, 62, 0
1, 27019, Note_on_c, 0, 63, 35
1, 27042, Note_on_c, 0, 63, 0
1, 27056, Note_on_c, 0, 65, 50
1, 27082, Note_on_c, 0, 65, 0
1, 27084, Note_on_c, 0, 64, 30
1, 27086, Note_on_c, 0, 59, 34
1, 27092, Note_on_c, 0, 64, 0
1, 27095, Note_on_c, 0, 59, 0
1, 27095, Note_on_c, 0, 67, 54
1, 27114, Note_on_c, 0, 67, 0
1, 27132, Note_on_c, 0, 68, 67
1, 27159, Note_on_c, 0, 68, 0
1, 27169, Control_c, 0, 64, 127
1, 27171, Note_on_c, 0, 70, 55
1, 27190, Note_on_c, 0, 70, 0
1, 27207, Note_on_c, 0, 71, 60
1, 27227, Control_c, 0, 64, 0
1, 27234, Note_on_c, 0, 71, 0
1, 27234, Note_on_c, 0, 43, 33
1, 27245, Note_on_c, 0, 43, 0
1, 27248, Note_on_c, 0, 74, 66
1, 27272, Note_on_c, 0, 74, 0
1, 27285, Note_on_c, 0, 77, 72
1, 27302, Control_c, 0, 64, 127
1, 27307, Note_on_c, 0, 77, 0
1, 27323, Note_on_c, 0, 75, 69
1, 27357, Note_on_c, 0, 75, 0
1, 27358, Note_on_c, 0, 48, 31
1, 27360, Control_c, 0, 64, 0
1, 27362, Note_on_c, 0, 55, 17
1, 27363, Note_on_c, 0, 70, 47
1, 27396, Note_on_c, 0, 70, 0
1, 27404, Note_on_c, 0, 67, 35
1, 27426, Note_on_c, 0, 67, 0
1, 27445, Note_on_c, 0, 65, 46
1, 27472, Note_on_c, 0, 65, 0
1, 27486, Control_c, 0, 64, 127
1, 27489, Note_on_c, 0, 63, 36
1, 27508, Note_on_c, 0, 63, 0
1, 27516, Control_c, 0, 64, 0
1, 27558, Control_c, 0, 64, 127
1, 27562, Note_on_c, 0, 65, 62
1, 27566, Note_on_c, 0, 60, 45
1, 27577, Note_on_c, 0, 60, 0
1, 27586, Note_on_c, 0, 55, 0
1, 27597, Note_on_c, 0, 48, 0
1, 27621, Control_c, 0, 64, 0
1, 27649, Control_c, 0, 64, 127
1, 27693, Note_on_c, 0, 65, 0
1, 27742, Note_on_c, 0, 63, 37
1, 27744, Note_on_c, 0, 62, 29
1, 27747, Note_on_c, 0, 67, 24
1, 27759, Note_on_c, 0, 67, 0
1, 27766, Note_on_c, 0, 62, 0
1, 27766, Note_on_c, 0, 63, 0
1, 27803, Note_on_c, 0, 63, 39
1, 27804, Note_on_c, 0, 67, 24
1, 27811, Note_on_c, 0, 67, 0
1, 27812, Note_on_c, 0, 63, 0
1, 28089, Note_on_c, 0, 63, 40
1, 28149, Note_on_c, 0, 63, 0
1, 28152, Note_on_c, 0, 60, 55
1, 28208, Note_on_c, 0, 68, 57
1, 28208, Note_on_c, 0, 65, 62
1, 28266, Note_on_c, 0, 60, 0
1, 28270, Note_on_c, 0, 65, 0
1, 28271, Note_on_c, 0, 56, 31
1, 28280, Note_on_c, 0, 68, 0
1, 28285, Note_on_c, 0, 56, 0
1, 28328, Control_c, 0, 64, 0
1, 28355, Control_c, 0, 64, 127
1, 28358, Note_on_c, 0, 45, 1
1, 28388, Note_on_c, 0, 63, 60
1, 28390, Note_on_c, 0, 75, 57
1, 28391, Note_on_c, 0, 67, 57
1, 28392, Note_on_c, 0, 71, 51
1, 28397, Control_c, 0, 64, 0
1, 28398, Note_on_c, 0, 45, 0
1, 28435, Control_c, 0, 64, 127
1, 28501, Note_on_c, 0, 55, 33
1, 28508, Note_on_c, 0, 55, 0
1, 28536, Note_on_c, 0, 63, 0
1, 28546, Note_on_c, 0, 67, 0
1, 28546, Note_on_c, 0, 75, 0
1, 28559, Note_on_c, 0, 75, 27
1, 28560, Note_on_c, 0, 63, 38
1, 28563, Note_on_c, 0, 67, 35
1, 28564, Note_on_c, 0, 55, 54
1, 28564, Control_c, 0, 64, 0
1, 28606, Control_c, 0, 64, 127
1, 28656, Note_on_c, 0, 67, 0
1, 28661, Note_on_c, 0, 63, 0
1, 28670, Note_on_c, 0, 71, 0
1, 28684, Note_on_c, 0, 43, 36
1, 28688, Note_on_c, 0, 55, 0
1, 28689, Note_on_c, 0, 75, 0
1, 28692, Note_on_c, 0, 43, 0
1, 28768, Note_on_c, 0, 53, 42
1, 28783, Note_on_c, 0, 79, 50
1, 28784, Note_on_c, 0, 59, 56
1, 28789, Note_on_c, 0, 75, 60
1, 28796, Note_on_c, 0, 71, 68
1, 28798, Control_c, 0, 64, 0
1, 28801, Note_on_c, 0, 63, 54
1, 28808, Note_on_c, 0, 67, 31
1, 28831, Control_c, 0, 64, 127
1, 28834, Note_on_c, 0, 59, 0
1, 28880, Note_on_c, 0, 71, 0
1, 28892, Note_on_c, 0, 67, 0
1, 28911, Note_on_c, 0, 63, 0
1, 28917, Note_on_c, 0, 71, 45
1, 28982, Note_on_c, 0, 63, 47
1, 29029, Note_on_c, 0, 71, 0
1, 29041, Note_on_c, 0, 77, 1
1, 29097, Note_on_c, 0, 77, 0
1, 29097, Note_on_c, 0, 79, 0
1, 29104, Note_on_c, 0, 67, 38
1, 29106, Note_on_c, 0, 59, 31
1, 29107, Note_on_c, 0, 63, 0
1, 29110, Note_on_c, 0, 53, 0
1, 29120, Note_on_c, 0, 59, 0
1, 29159, Note_on_c, 0, 75, 0
1, 29200, Note_on_c, 0, 67, 0
1, 29214, Note_on_c, 0, 79, 40
1, 29261, Note_on_c, 0, 79, 0
1, 29266, Control_c, 0, 64, 0
1, 29275, Note_on_c, 0, 75, 48
1, 29275, Note_on_c, 0, 67, 37
1, 29276, Note_on_c, 0, 48, 37
1, 29277, Note_on_c, 0, 55, 33
1, 29290, Note_on_c, 0, 48, 0
1, 29293, Control_c, 0, 64, 127
1, 29299, Note_on_c, 0, 55, 0
1, 29318, Note_on_c, 0, 67, 0
1, 29347, Note_on_c, 0, 62, 31
1, 29359, Note_on_c, 0, 62, 0
1, 29422, Note_on_c, 0, 63, 38
1, 29425, Note_on_c, 0, 62, 26
1, 29425, Note_on_c, 0, 67, 20
1, 29441, Note_on_c, 0, 62, 0
1, 29443, Note_on_c, 0, 67, 0
1, 29446, Note_on_c, 0, 63, 0
1, 29514, Note_on_c, 0, 63, 40
1, 29517, Note_on_c, 0, 67, 33
1, 29518, Note_on_c, 0, 62, 25
1, 29540, Note_on_c, 0, 62, 0
1, 29541, Note_on_c, 0, 63, 0
1, 29545, Note_on_c, 0, 67, 0
1, 29598, Note_on_c, 0, 63, 45
1, 29599, Note_on_c, 0, 62, 24
1, 29601, Note_on_c, 0, 67, 22
1, 29609, Note_on_c, 0, 67, 0
1, 29612, Note_on_c, 0, 62, 0
1, 29616, Note_on_c, 0, 63, 0
1, 29684, Note_on_c, 0, 48, 44
1, 29686, Note_on_c, 0, 55, 51
1, 29723, Note_on_c, 0, 48, 0
1, 29735, Note_on_c, 0, 55, 0
1, 29763, Note_on_c, 0, 55, 36
1, 29764, Note_on_c, 0, 48, 42
1, 29771, Note_on_c, 0, 48, 0
1, 29775, Note_on_c, 0, 55, 0
1, 29844, Note_on_c, 0, 63, 40
1, 29845, Note_on_c, 0, 67, 46
1, 29845, Note_on_c, 0, 62, 44
1, 29880, Note_on_c, 0, 67, 0
1, 29891, Note_on_c, 0, 62, 0
1, 29897, Note_on_c, 0, 63, 0
1, 29940, Note_on_c, 0, 63, 48
1, 29943, Note_on_c, 0, 67, 42
1, 29947, Note_on_c, 0, 62, 30
1, 29970, Note_on_c, 0, 75, 0
1, 30010, Note_on_c, 0, 67, 0
1, 30010, Note_on_c, 0, 79, 94
1, 30017, Note_on_c, 0, 63, 0
1, 30064, Note_on_c, 0, 79, 0
1, 30079, Note_on_c, 0, 77, 68
1, 30081, Note_on_c, 0, 63, 46
1, 30082, Note_on_c, 0, 67, 32
1, 30099, Note_on_c, 0, 67, 0
1, 30115, Note_on_c, 0, 63, 0
1, 30119, Note_on_c, 0, 62, 0
1, 30130, Note_on_c, 0, 72, 57
1, 30146, Note_on_c, 0, 77, 0
1, 30161, Note_on_c, 0, 72, 0
1, 30177, Note_on_c, 0, 68, 49
1, 30194, Note_on_c, 0, 68, 0
1, 30211, Note_on_c, 0, 67, 54
1, 30231, Control_c, 0, 64, 0
1, 30243, Note_on_c, 0, 67, 0
1, 30249, Note_on_c, 0, 41, 36
1, 30250, Note_on_c, 0, 48, 34
1, 30252, Note_on_c, 0, 70, 73
1, 30254, Control_c, 0, 64, 127
1, 30258, Note_on_c, 0, 41, 0
1, 30266, Note_on_c, 0, 48, 0
1, 30314, Note_on_c, 0, 68, 55
1, 30319, Note_on_c, 0, 63, 29
1, 30322, Note_on_c, 0, 58, 30
1, 30347, Note_on_c, 0, 63, 0
1, 30354, Note_on_c, 0, 58, 0
1, 30395, Note_on_c, 0, 67, 39
1, 30396, Note_on_c, 0, 63, 33
1, 30402, Note_on_c, 0, 58, 31
1, 30432, Note_on_c, 0, 58, 0
1, 30438, Note_on_c, 0, 63, 0
1, 30446, Note_on_c, 0, 67, 0
1, 30478, Note_on_c, 0, 65, 48
1, 30482, Note_on_c, 0, 63, 34
1, 30486, Note_on_c, 0, 53, 28
1, 30488, Note_on_c, 0, 58, 28
1, 30513, Note_on_c, 0, 53, 0
1, 30517, Note_on_c, 0, 63, 0
1, 30522, Note_on_c, 0, 58, 0
1, 30562, Note_on_c, 0, 63, 39
1, 30568, Note_on_c, 0, 58, 33
1, 30587, Note_on_c, 0, 63, 0
1, 30603, Note_on_c, 0, 65, 0
1, 30605, Note_on_c, 0, 68, 0
1, 30610, Note_on_c, 0, 70, 0
1, 30651, Note_on_c, 0, 53, 39
1, 30665, Note_on_c, 0, 53, 0
1, 30681, Note_on_c, 0, 58, 0
1, 30721, Note_on_c, 0, 67, 31
1, 30721, Note_on_c, 0, 62, 32
1, 30721, Note_on_c, 0, 64, 38
1, 30721, Note_on_c, 0, 58, 33
1, 30725, Control_c, 0, 64, 0
1, 30725, Note_on_c, 0, 59, 27
1, 30758, Control_c, 0, 64, 127
1, 30794, Note_on_c, 0, 46, 36
1, 30836, Note_on_c, 0, 58, 0
1, 30840, Note_on_c, 0, 59, 0
1, 30860, Note_on_c, 0, 62, 0
1, 30909, Note_on_c, 0, 67, 0
1, 30911, Note_on_c, 0, 62, 47
1, 30913, Note_on_c, 0, 59, 38
1, 30916, Note_on_c, 0, 58, 29
1, 30921, Note_on_c, 0, 59, 0
1, 30926, Note_on_c, 0, 64, 0
1, 30930, Note_on_c, 0, 46, 0
1, 30932, Note_on_c, 0, 62, 0
1, 30942, Note_on_c, 0, 58, 0
1, 31032, Note_on_c, 0, 79, 71
1, 31036, Note_on_c, 0, 71, 71
1, 31037, Note_on_c, 0, 74, 52
1, 31042, Note_on_c, 0, 68, 43
1, 31042, Note_on_c, 0, 67, 41
1, 31052, Control_c, 0, 64, 0
1, 31056, Control_c, 0, 64, 127
1, 31100, Note_on_c, 0, 79, 0
1, 31105, Note_on_c, 0, 67, 0
1, 31110, Note_on_c, 0, 74, 0
1, 31122, Note_on_c, 0, 77, 61
1, 31128, Note_on_c, 0, 71, 0
1, 31163, Note_on_c, 0, 68, 0
1, 31164, Note_on_c, 0, 77, 0
1, 31198, Note_on_c, 0, 65, 33
1, 31200, Control_c, 0, 64, 0
1, 31201, Note_on_c, 0, 72, 50
1, 31203, Note_on_c, 0, 60, 30
1, 31204, Note_on_c, 0, 61, 25
1, 31227, Control_c, 0, 64, 127
1, 31311, Note_on_c, 0, 72, 0
1, 31312, Note_on_c, 0, 60, 0
1, 31316, Control_c, 0, 64, 0
1, 31316, Note_on_c, 0, 73, 64
1, 31331, Note_on_c, 0, 65, 0
1, 31335, Note_on_c, 0, 73, 0
1, 31349, Note_on_c, 0, 69, 34
1, 31354, Note_on_c, 0, 61, 0
1, 31357, Note_on_c, 0, 69, 0
1, 31387, Note_on_c, 0, 72, 60
1, 31390, Note_on_c, 0, 65, 40
1, 31391, Note_on_c, 0, 61, 30
1, 31392, Note_on_c, 0, 57, 44
1, 31467, Note_on_c, 0, 72, 0
1, 31481, Note_on_c, 0, 65, 0
1, 31505, Note_on_c, 0, 70, 48
1, 31522, Note_on_c, 0, 70, 0
1, 31542, Note_on_c, 0, 72, 47
1, 31544, Note_on_c, 0, 57, 0
1, 31550, Note_on_c, 0, 72, 0
1, 31563, Note_on_c, 0, 56, 28
1, 31567, Note_on_c, 0, 73, 52
1, 31569, Note_on_c, 0, 65, 41
1, 31588, Note_on_c, 0, 73, 0
1, 31599, Note_on_c, 0, 75, 57
1, 31614, Note_on_c, 0, 75, 0
1, 31627, Note_on_c, 0, 65, 0
1, 31628, Note_on_c, 0, 76, 35
1, 31637, Note_on_c, 0, 61, 0
1, 31642, Note_on_c, 0, 76, 0
1, 31656, Note_on_c, 0, 78, 43
1, 31669, Note_on_c, 0, 78, 0
1, 31679, Note_on_c, 0, 79, 51
1, 31694, Note_on_c, 0, 79, 0
1, 31697, Note_on_c, 0, 56, 0
1, 31713, Note_on_c, 0, 81, 53
1, 31720, Note_on_c, 0, 81, 0
1, 31744, Note_on_c, 0, 82, 59
1, 31754, Note_on_c, 0, 82, 0
1, 31757, Note_on_c, 0, 61, 29
1, 31763, Note_on_c, 0, 55, 22
1, 31775, Note_on_c, 0, 55, 0
1, 31775, Note_on_c, 0, 61, 0
1, 31778, Note_on_c, 0, 84, 34
1, 31785, Note_on_c, 0, 84, 0
1, 31803, Note_on_c, 0, 85, 62
1, 31818, Note_on_c, 0, 85, 0
1, 31835, Note_on_c, 0, 87, 59
1, 31850, Note_on_c, 0, 87, 0
1, 31928, Note_on_c, 0, 45, 33
1, 31938, Note_on_c, 0, 45, 0
1, 31986, Note_on_c, 0, 90, 64
1, 32004, Note_on_c, 0, 90, 0
1, 32021, Note_on_c, 0, 91, 55
1, 32035, Note_on_c, 0, 91, 0
1, 32053, Note_on_c, 0, 92, 31
1, 32060, Note_on_c, 0, 92, 0
1, 32087, Note_on_c, 0, 93, 48
1, 32094, Note_on_c, 0, 93, 0
1, 32107, Control_c, 0, 64, 127
1, 32111, Note_on_c, 0, 94, 55
1, 32138, Note_on_c, 0, 94, 0
1, 32140, Control_c, 0, 64, 0
1, 32147, Note_on_c, 0, 95, 40
1, 32158, Note_on_c, 0, 95, 0
1, 32168, Note_on_c, 0, 51, 43
1, 32170, Note_on_c, 0, 44, 33
1, 32172, Note_on_c, 0, 96, 65
1, 32180, Control_c, 0, 64, 127
1, 32188, Note_on_c, 0, 44, 0
1, 32194, Note_on_c, 0, 51, 0
1, 32238, Note_on_c, 0, 84, 40
1, 32239, Note_on_c, 0, 96, 0
1, 32248, Note_on_c, 0, 84, 0
1, 32355, Note_on_c, 0, 63, 64
1, 32416, Note_on_c, 0, 75, 50
1, 32421, Note_on_c, 0, 68, 37
1, 32423, Note_on_c, 0, 72, 38
1, 32424, Note_on_c, 0, 65, 30
1, 32483, Note_on_c, 0, 56, 34
1, 32500, Note_on_c, 0, 65, 0
1, 32505, Note_on_c, 0, 68, 0
1, 32530, Note_on_c, 0, 72, 0
1, 32544, Note_on_c, 0, 68, 27
1, 32545, Note_on_c, 0, 75, 0
1, 32553, Note_on_c, 0, 68, 0
1, 32592, Note_on_c, 0, 63, 0
1, 32613, Note_on_c, 0, 56, 0
1, 32660, Note_on_c, 0, 82, 71
1, 32660, Note_on_c, 0, 75, 77
1, 32661, Note_on_c, 0, 70, 75
1, 32661, Note_on_c, 0, 79, 64
1, 32663, Note_on_c, 0, 71, 72
1, 32665, Control_c, 0, 64, 0
1, 32696, Control_c, 0, 64, 127
1, 32794, Note_on_c, 0, 71, 0
1, 32794, Note_on_c, 0, 79, 0
1, 32799, Note_on_c, 0, 75, 0
1, 32814, Note_on_c, 0, 70, 0
1, 32814, Note_on_c, 0, 82, 0
1, 32832, Note_on_c, 0, 80, 49
1, 32834, Note_on_c, 0, 75, 56
1, 32835, Note_on_c, 0, 68, 44
1, 32837, Note_on_c, 0, 71, 25
1, 32887, Note_on_c, 0, 80, 0
1, 32899, Note_on_c, 0, 75, 0
1, 32917, Note_on_c, 0, 68, 0
1, 32922, Note_on_c, 0, 71, 0
1, 32952, Note_on_c, 0, 75, 51
1, 32996, Note_on_c, 0, 75, 0
1, 33009, Note_on_c, 0, 77, 38
1, 33051, Note_on_c, 0, 77, 0
1, 33065, Note_on_c, 0, 79, 49
1, 33070, Note_on_c, 0, 72, 36
1, 33072, Note_on_c, 0, 67, 36
1, 33081, Control_c, 0, 64, 0
1, 33102, Control_c, 0, 64, 127
1, 33120, Note_on_c, 0, 67, 0
1, 33122, Note_on_c, 0, 55, 38
1, 33166, Note_on_c, 0, 72, 0
1, 33184, Note_on_c, 0, 67, 36
1, 33206, Note_on_c, 0, 67, 0
1, 33233, Note_on_c, 0, 79, 0
1, 33244, Note_on_c, 0, 67, 25
1, 33281, Note_on_c, 0, 55, 0
1, 33299, Note_on_c, 0, 91, 66
1, 33334, Note_on_c, 0, 91, 0
1, 33354, Note_on_c, 0, 67, 0
1, 33356, Note_on_c, 0, 79, 33
1, 33358, Note_on_c, 0, 55, 31
1, 33374, Note_on_c, 0, 79, 0
1, 33419, Note_on_c, 0, 67, 31
1, 33440, Note_on_c, 0, 67, 0
1, 33478, Note_on_c, 0, 79, 43
1, 33479, Note_on_c, 0, 67, 38
1, 33501, Note_on_c, 0, 55, 0
1, 33516, Note_on_c, 0, 67, 0
1, 33536, Note_on_c, 0, 55, 34
1, 33558, Note_on_c, 0, 79, 0
1, 33595, Note_on_c, 0, 79, 36
1, 33596, Control_c, 0, 64, 0
1, 33597, Note_on_c, 0, 68, 34
1, 33598, Note_on_c, 0, 67, 29
1, 33599, Note_on_c, 0, 71, 36
1, 33602, Note_on_c, 0, 74, 32
1, 33620, Note_on_c, 0, 55, 0
1, 33623, Control_c, 0, 64, 127
1, 33642, Note_on_c, 0, 79, 0
1, 33658, Note_on_c, 0, 74, 0
1, 33660, Note_on_c, 0, 71, 0
1, 33665, Note_on_c, 0, 67, 0
1, 33665, Note_on_c, 0, 55, 39
1, 33667, Note_on_c, 0, 68, 0
1, 33694, Note_on_c, 0, 55, 0
1, 33774, Note_on_c, 0, 67, 24
1, 33776, Note_on_c, 0, 55, 41
1, 33785, Note_on_c, 0, 67, 0
1, 33802, Note_on_c, 0, 55, 0
1, 33805, Note_on_c, 0, 69, 64
1, 33814, Note_on_c, 0, 69, 0
1, 33816, Note_on_c, 0, 57, 36
1, 33837, Control_c, 0, 64, 0
1, 33839, Note_on_c, 0, 57, 0
1, 33841, Note_on_c, 0, 59, 73
1, 33841, Note_on_c, 0, 71, 84
1, 33876, Control_c, 0, 64, 127
1, 33962, Note_on_c, 0, 59, 0
1, 34019, Note_on_c, 0, 71, 0
1, 34029, Note_on_c, 0, 69, 43
1, 34054, Note_on_c, 0, 69, 0
1, 34058, Note_on_c, 0, 71, 45
1, 34083, Note_on_c, 0, 71, 0
1, 34091, Note_on_c, 0, 67, 41
1, 34092, Note_on_c, 0, 64, 27
1, 34097, Control_c, 0, 64, 0
1, 34132, Control_c, 0, 64, 127
1, 34176, Note_on_c, 0, 67, 0
1, 34202, Note_on_c, 0, 55, 45
1, 34227, Note_on_c, 0, 64, 0
1, 34275, Note_on_c, 0, 79, 47
1, 34276, Note_on_c, 0, 67, 41
1, 34299, Note_on_c, 0, 55, 0
1, 34376, Note_on_c, 0, 67, 0
1, 34390, Note_on_c, 0, 59, 35
1, 34420, Control_c, 0, 64, 0
1, 34440, Control_c, 0, 64, 127
1, 34453, Note_on_c, 0, 67, 34
1, 34500, Note_on_c, 0, 67, 0
1, 34512, Note_on_c, 0, 59, 0
1, 34516, Note_on_c, 0, 57, 36
1, 34561, Control_c, 0, 64, 0
1, 34574, Note_on_c, 0, 64, 31
1, 34575, Note_on_c, 0, 60, 36
1, 34592, Control_c, 0, 64, 127
1, 34667, Note_on_c, 0, 64, 0
1, 34668, Note_on_c, 0, 60, 0
1, 34692, Note_on_c, 0, 67, 31
1, 34692, Note_on_c, 0, 72, 37
1, 34752, Note_on_c, 0, 72, 0
1, 34756, Note_on_c, 0, 67, 0
1, 34757, Note_on_c, 0, 64, 16
1, 34758, Note_on_c, 0, 60, 20
1, 34861, Note_on_c, 0, 57, 0
1, 34869, Note_on_c, 0, 79, 0
1, 34871, Note_on_c, 0, 72, 46
1, 34874, Note_on_c, 0, 67, 30
1, 34877, Control_c, 0, 64, 0
1, 34879, Note_on_c, 0, 55, 19
1, 34887, Note_on_c, 0, 60, 0
1, 34888, Note_on_c, 0, 64, 0
1, 34902, Control_c, 0, 64, 127
1, 34925, Note_on_c, 0, 67, 0
1, 34932, Note_on_c, 0, 72, 0
1, 34963, Note_on_c, 0, 79, 62
1, 34968, Note_on_c, 0, 67, 60
1, 34968, Note_on_c, 0, 64, 30
1, 34973, Note_on_c, 0, 60, 26
1, 34987, Note_on_c, 0, 67, 0
1, 34998, Note_on_c, 0, 55, 0
1, 34998, Note_on_c, 0, 79, 0
1, 35042, Note_on_c, 0, 64, 0
1, 35044, Control_c, 0, 64, 0
1, 35045, Note_on_c, 0, 81, 80
1, 35050, Note_on_c, 0, 76, 65
1, 35052, Note_on_c, 0, 69, 57
1, 35055, Note_on_c, 0, 60, 0
1, 35055, Note_on_c, 0, 54, 42
1, 35074, Control_c, 0, 64, 127
1, 35120, Note_on_c, 0, 60, 40
1, 35134, Note_on_c, 0, 69, 0
1, 35188, Note_on_c, 0, 54, 0
1, 35207, Note_on_c, 0, 81, 0
1, 35209, Note_on_c, 0, 76, 0
1, 35213, Note_on_c, 0, 69, 44
1, 35218, Note_on_c, 0, 54, 33
1, 35223, Note_on_c, 0, 69, 0
1, 35224, Note_on_c, 0, 60, 0
1, 35289, Note_on_c, 0, 84, 76
1, 35292, Note_on_c, 0, 60, 35
1, 35296, Note_on_c, 0, 72, 74
1, 35297, Note_on_c, 0, 64, 35
1, 35360, Note_on_c, 0, 84, 0
1, 35380, Note_on_c, 0, 84, 65
1, 35387, Note_on_c, 0, 64, 0
1, 35392, Note_on_c, 0, 60, 0
1, 35408, Note_on_c, 0, 54, 0
1, 35423, Note_on_c, 0, 84, 0
1, 35440, Note_on_c, 0, 72, 0
1, 35448, Note_on_c, 0, 84, 58
1, 35469, Note_on_c, 0, 84, 0
1, 35515, Note_on_c, 0, 47, 35
1, 35519, Control_c, 0, 64, 0
1, 35530, Control_c, 0, 64, 127
1, 35592, Note_on_c, 0, 71, 53
1, 35592, Note_on_c, 0, 66, 48
1, 35593, Note_on_c, 0, 59, 37
1, 35594, Note_on_c, 0, 64, 47
1, 35606, Control_c, 0, 64, 0
1, 35635, Control_c, 0, 64, 127
1, 35662, Note_on_c, 0, 64, 0
1, 35665, Note_on_c, 0, 47, 0
1, 35673, Note_on_c, 0, 66, 0
1, 35697, Note_on_c, 0, 66, 31
1, 35699, Note_on_c, 0, 64, 38
1, 35700, Note_on_c, 0, 71, 0
1, 35700, Note_on_c, 0, 47, 31
1, 35710, Note_on_c, 0, 59, 0
1, 35725, Note_on_c, 0, 64, 0
1, 35729, Note_on_c, 0, 66, 0
1, 35774, Note_on_c, 0, 57, 41
1, 35776, Note_on_c, 0, 69, 54
1, 35778, Control_c, 0, 64, 0
1, 35778, Note_on_c, 0, 64, 33
1, 35778, Note_on_c, 0, 66, 38
1, 35780, Note_on_c, 0, 59, 24
1, 35808, Control_c, 0, 64, 127
1, 35838, Note_on_c, 0, 64, 0
1, 35868, Note_on_c, 0, 59, 0
1, 35892, Note_on_c, 0, 59, 40
1, 35893, Control_c, 0, 64, 0
1, 35894, Note_on_c, 0, 63, 46
1, 35907, Control_c, 0, 64, 127
1, 35921, Note_on_c, 0, 47, 0
1, 35938, Note_on_c, 0, 69, 0
1, 35946, Note_on_c, 0, 59, 0
1, 35953, Note_on_c, 0, 47, 36
1, 35954, Note_on_c, 0, 57, 0
1, 35969, Note_on_c, 0, 47, 0
1, 35979, Note_on_c, 0, 66, 0
1, 35990, Note_on_c, 0, 63, 0
1, 36008, Note_on_c, 0, 67, 33
1, 36010, Note_on_c, 0, 64, 45
1, 36013, Control_c, 0, 64, 0
1, 36013, Note_on_c, 0, 60, 28
1, 36015, Note_on_c, 0, 46, 29
1, 36018, Note_on_c, 0, 56, 20
1, 36047, Control_c, 0, 64, 127
1, 36054, Note_on_c, 0, 60, 0
1, 36061, Note_on_c, 0, 64, 0
1, 36064, Note_on_c, 0, 56, 0
1, 36067, Note_on_c, 0, 67, 0
1, 36079, Note_on_c, 0, 56, 33
1, 36099, Note_on_c, 0, 46, 0
1, 36105, Note_on_c, 0, 56, 0
1, 36157, Note_on_c, 0, 72, 68
1, 36158, Note_on_c, 0, 79, 67
1, 36162, Note_on_c, 0, 62, 37
1, 36208, Note_on_c, 0, 72, 0
1, 36224, Note_on_c, 0, 62, 0
1, 36224, Note_on_c, 0, 79, 0
1, 36232, Note_on_c, 0, 76, 47
1, 36234, Note_on_c, 0, 66, 27
1, 36238, Note_on_c, 0, 67, 37
1, 36240, Note_on_c, 0, 66, 0
1, 36240, Note_on_c, 0, 72, 37
1, 36252, Note_on_c, 0, 72, 0
1, 36259, Note_on_c, 0, 76, 0
1, 36263, Note_on_c, 0, 67, 0
1, 36301, Note_on_c, 0, 56, 34
1, 36383, Note_on_c, 0, 60, 49
1, 36384, Note_on_c, 0, 67, 36
1, 36384, Note_on_c, 0, 64, 35
1, 36388, Note_on_c, 0, 46, 33
1, 36405, Note_on_c, 0, 56, 0
1, 36427, Note_on_c, 0, 60, 0
1, 36433, Note_on_c, 0, 67, 0
1, 36440, Note_on_c, 0, 64, 0
1, 36441, Note_on_c, 0, 46, 0
1, 36466, Note_on_c, 0, 59, 48
1, 36467, Note_on_c, 0, 67, 28
1, 36468, Note_on_c, 0, 62, 34
1, 36469, Note_on_c, 0, 64, 33
1, 36472, Note_on_c, 0, 55, 35
1, 36473, Note_on_c, 0, 45, 36
1, 36475, Control_c, 0, 64, 0
1, 36517, Control_c, 0, 64, 127
1, 36553, Note_on_c, 0, 62, 0
1, 36554, Note_on_c, 0, 59, 0
1, 36582, Note_on_c, 0, 64, 0
1, 36585, Note_on_c, 0, 55, 0
1, 36592, Note_on_c, 0, 62, 30
1, 36601, Note_on_c, 0, 59, 20
1, 36604, Note_on_c, 0, 67, 0
1, 36608, Note_on_c, 0, 62, 0
1, 36624, Note_on_c, 0, 45, 0
1, 36624, Note_on_c, 0, 59, 0
1, 36657, Note_on_c, 0, 45, 35
1, 36713, Control_c, 0, 64, 0
1, 36716, Note_on_c, 0, 63, 55
1, 36721, Note_on_c, 0, 58, 46
1, 36722, Note_on_c, 0, 61, 40
1, 36724, Note_on_c, 0, 55, 37
1, 36740, Control_c, 0, 64, 127
1, 36762, Note_on_c, 0, 63, 0
1, 36767, Note_on_c, 0, 61, 0
1, 36768, Note_on_c, 0, 55, 0
1, 36781, Note_on_c, 0, 52, 43
1, 36789, Note_on_c, 0, 58, 0
1, 36835, Note_on_c, 0, 52, 0
1, 36841, Note_on_c, 0, 67, 53
1, 36842, Control_c, 0, 64, 0
1, 36843, Note_on_c, 0, 58, 69
1, 36843, Note_on_c, 0, 55, 47
1, 36843, Note_on_c, 0, 61, 64
1, 36845, Note_on_c, 0, 64, 47
1, 36877, Note_on_c, 0, 45, 0
1, 36887, Control_c, 0, 64, 127
1, 36890, Note_on_c, 0, 55, 0
1, 36895, Note_on_c, 0, 64, 0
1, 36898, Note_on_c, 0, 67, 0
1, 36906, Note_on_c, 0, 52, 48
1, 36917, Note_on_c, 0, 58, 0
1, 36924, Note_on_c, 0, 61, 0
1, 36965, Control_c, 0, 64, 0
1, 36966, Note_on_c, 0, 52, 0
1, 36966, Note_on_c, 0, 56, 57
1, 36967, Note_on_c, 0, 65, 62
1, 36967, Note_on_c, 0, 63, 53
1, 36968, Note_on_c, 0, 60, 68
1, 36969, Note_on_c, 0, 53, 54
1, 37006, Control_c, 0, 64, 127
1, 37039, Note_on_c, 0, 41, 53
1, 37050, Note_on_c, 0, 56, 0
1, 37056, Note_on_c, 0, 60, 0
1, 37057, Note_on_c, 0, 41, 0
1, 37067, Note_on_c, 0, 53, 0
1, 37072, Note_on_c, 0, 63, 0
1, 37073, Note_on_c, 0, 65, 0
1, 37210, Note_on_c, 0, 68, 86
1, 37212, Note_on_c, 0, 63, 67
1, 37212, Note_on_c, 0, 60, 65
1, 37213, Note_on_c, 0, 65, 80
1, 37214, Note_on_c, 0, 53, 48
1, 37214, Note_on_c, 0, 56, 48
1, 37221, Control_c, 0, 64, 0
1, 37236, Control_c, 0, 64, 127
1, 37278, Note_on_c, 0, 68, 0
1, 37288, Note_on_c, 0, 65, 0
1, 37302, Note_on_c, 0, 68, 82
1, 37309, Note_on_c, 0, 63, 0
1, 37326, Note_on_c, 0, 60, 0
1, 37337, Note_on_c, 0, 68, 0
1, 37342, Note_on_c, 0, 53, 0
1, 37347, Note_on_c, 0, 56, 0
1, 37377, Note_on_c, 0, 68, 71
1, 37398, Note_on_c, 0, 68, 0
1, 37453, Note_on_c, 0, 67, 68
1, 37455, Note_on_c, 0, 64, 65
1, 37457, Note_on_c, 0, 46, 39
1, 37457, Note_on_c, 0, 59, 69
1, 37458, Note_on_c, 0, 62, 65
1, 37459, Control_c, 0, 64, 0
1, 37460, Note_on_c, 0, 56, 39
1, 37509, Control_c, 0, 64, 127
1, 37610, Note_on_c, 0, 56, 0
1, 37619, Note_on_c, 0, 59, 0
1, 37626, Note_on_c, 0, 62, 0
1, 37636, Note_on_c, 0, 67, 0
1, 37637, Note_on_c, 0, 64, 0
1, 37680, Note_on_c, 0, 46, 0
1, 37755, Note_on_c, 0, 47, 55
1, 37755, Note_on_c, 0, 56, 47
1, 37756, Note_on_c, 0, 65, 71
1, 37757, Note_on_c, 0, 62, 70
1, 37757, Note_on_c, 0, 59, 70
1, 37762, Control_c, 0, 64, 0
1, 37795, Control_c, 0, 64, 127
1, 37813, Note_on_c, 0, 47, 0
1, 37832, Note_on_c, 0, 56, 0
1, 37833, Note_on_c, 0, 65, 0
1, 37840, Note_on_c, 0, 67, 62
1, 37848, Note_on_c, 0, 59, 0
1, 37858, Note_on_c, 0, 62, 0
1, 37870, Note_on_c, 0, 67, 0
1, 37924, Note_on_c, 0, 61, 55
1, 37924, Note_on_c, 0, 56, 40
1, 37926, Note_on_c, 0, 51, 55
1, 37929, Control_c, 0, 64, 0
1, 37972, Control_c, 0, 64, 127
1, 37999, Note_on_c, 0, 56, 0
1, 38009, Note_on_c, 0, 63, 52
1, 38011, Note_on_c, 0, 61, 0
1, 38024, Note_on_c, 0, 63, 0
1, 38091, Note_on_c, 0, 70, 62
1, 38094, Note_on_c, 0, 61, 42
1, 38097, Note_on_c, 0, 65, 56
1, 38099, Note_on_c, 0, 60, 40
1, 38136, Note_on_c, 0, 70, 0
1, 38170, Note_on_c, 0, 72, 71
1, 38189, Note_on_c, 0, 60, 0
1, 38234, Note_on_c, 0, 61, 0
1, 38246, Note_on_c, 0, 65, 0
1, 38260, Note_on_c, 0, 72, 0
1, 38272, Note_on_c, 0, 61, 44
1, 38272, Note_on_c, 0, 70, 49
1, 38275, Note_on_c, 0, 65, 36
1, 38278, Note_on_c, 0, 60, 40
1, 38299, Note_on_c, 0, 65, 0
1, 38302, Note_on_c, 0, 60, 0
1, 38326, Note_on_c, 0, 61, 0
1, 38352, Note_on_c, 0, 61, 30
1, 38353, Note_on_c, 0, 64, 49
1, 38356, Note_on_c, 0, 67, 31
1, 38356, Note_on_c, 0, 60, 45
1, 38363, Control_c, 0, 64, 0
1, 38403, Control_c, 0, 64, 127
1, 38439, Note_on_c, 0, 51, 0
1, 38466, Note_on_c, 0, 61, 0
1, 38467, Note_on_c, 0, 51, 59
1, 38500, Note_on_c, 0, 67, 0
1, 38512, Note_on_c, 0, 64, 0
1, 38525, Note_on_c, 0, 70, 0
1, 38525, Note_on_c, 0, 51, 0
1, 38533, Note_on_c, 0, 60, 0
1, 38659, Control_c, 0, 64, 0
1, 38708, Note_on_c, 0, 61, 52
1, 38708, Note_on_c, 0, 81, 58
1, 38708, Note_on_c, 0, 73, 49
1, 38709, Note_on_c, 0, 69, 58
1, 38710, Note_on_c, 0, 66, 42
1, 38710, Note_on_c, 0, 55, 51
1, 38711, Note_on_c, 0, 76, 37
1, 38715, Note_on_c, 0, 69, 0
1, 38717, Note_on_c, 0, 66, 0
1, 38717, Note_on_c, 0, 73, 0
1, 38717, Note_on_c, 0, 55, 0
1, 38718, Note_on_c, 0, 81, 0
1, 38718, Note_on_c, 0, 76, 0
1, 38724, Note_on_c, 0, 61, 0
1, 38748, Control_c, 0, 64, 127
1, 38796, Note_on_c, 0, 61, 48
1, 38800, Note_on_c, 0, 73, 39
1, 38800, Note_on_c, 0, 81, 50
1, 38804, Note_on_c, 0, 76, 29
1, 38811, Note_on_c, 0, 76, 0
1, 38811, Note_on_c, 0, 73, 0
1, 38816, Note_on_c, 0, 61, 0
1, 38817, Note_on_c, 0, 81, 0
1, 38869, Control_c, 0, 64, 0
1, 38870, Note_on_c, 0, 84, 50
1, 38873, Note_on_c, 0, 72, 33
1, 38874, Note_on_c, 0, 63, 32
1, 38874, Note_on_c, 0, 77, 44
1, 38875, Note_on_c, 0, 80, 34
1, 38879, Note_on_c, 0, 60, 41
1, 38879, Note_on_c, 0, 58, 33
1, 38880, Note_on_c, 0, 53, 31
1, 38898, Control_c, 0, 64, 127
1, 38976, Note_on_c, 0, 72, 0
1, 38983, Note_on_c, 0, 63, 0
1, 38984, Note_on_c, 0, 77, 0
1, 38986, Note_on_c, 0, 84, 0
1, 38988, Note_on_c, 0, 80, 0
1, 38996, Note_on_c, 0, 60, 0
1, 39014, Note_on_c, 0, 58, 0
1, 39025, Note_on_c, 0, 53, 0
1, 39062, Note_on_c, 0, 85, 63
1, 39063, Note_on_c, 0, 63, 65
1, 39063, Note_on_c, 0, 87, 67
1, 39065, Note_on_c, 0, 75, 58
1, 39065, Note_on_c, 0, 80, 59
1, 39065, Note_on_c, 0, 58, 52
1, 39067, Note_on_c, 0, 53, 43
1, 39078, Note_on_c, 0, 85, 0
1, 39086, Note_on_c, 0, 53, 0
1, 39087, Note_on_c, 0, 75, 0
1, 39092, Note_on_c, 0, 63, 0
1, 39094, Note_on_c, 0, 80, 0
1, 39101, Note_on_c, 0, 87, 0
1, 39103, Note_on_c, 0, 58, 0
1, 39125, Note_on_c, 0, 87, 68
1, 39126, Note_on_c, 0, 63, 69
1, 39127, Note_on_c, 0, 58, 58
1, 39128, Note_on_c, 0, 80, 64
1, 39128, Note_on_c, 0, 53, 60
1, 39129, Control_c, 0, 64, 0
1, 39129, Note_on_c, 0, 75, 56
1, 39131, Note_on_c, 0, 84, 55
1, 39144, Control_c, 0, 64, 127
1, 39183, Note_on_c, 0, 84, 0
1, 39185, Note_on_c, 0, 87, 0
1, 39199, Note_on_c, 0, 53, 0
1, 39200, Note_on_c, 0, 80, 0
1, 39203, Note_on_c, 0, 75, 0
1, 39211, Note_on_c, 0, 63, 0
1, 39219, Note_on_c, 0, 58, 0
1, 39310, Note_on_c, 0, 70, 53
1, 39311, Note_on_c, 0, 43, 44
1, 39311, Note_on_c, 0, 63, 57
1, 39311, Control_c, 0, 64, 0
1, 39313, Note_on_c, 0, 53, 39
1, 39314, Note_on_c, 0, 59, 49
1, 39314, Note_on_c, 0, 67, 36
1, 39321, Note_on_c, 0, 59, 0
1, 39323, Note_on_c, 0, 53, 0
1, 39325, Note_on_c, 0, 63, 0
1, 39326, Note_on_c, 0, 70, 0
1, 39328, Note_on_c, 0, 43, 0
1, 39328, Note_on_c, 0, 67, 0
1, 39378, Note_on_c, 0, 63, 52
1, 39378, Note_on_c, 0, 70, 49
1, 39378, Note_on_c, 0, 67, 37
1, 39381, Note_on_c, 0, 59, 45
1, 39383, Note_on_c, 0, 53, 37
1, 39384, Note_on_c, 0, 43, 33
1, 39394, Control_c, 0, 64, 127
1, 39460, Note_on_c, 0, 53, 0
1, 39496, Note_on_c, 0, 67, 0
1, 39502, Note_on_c, 0, 59, 0
1, 39512, Note_on_c, 0, 63, 0
1, 39521, Note_on_c, 0, 70, 0
1, 39553, Note_on_c, 0, 68, 49
1, 39554, Note_on_c, 0, 63, 48
1, 39556, Note_on_c, 0, 59, 36
1, 39560, Note_on_c, 0, 53, 32
1, 39568, Control_c, 0, 64, 0
1, 39598, Control_c, 0, 64, 127
1, 39631, Note_on_c, 0, 43, 0
1, 39665, Note_on_c, 0, 43, 44
1, 39698, Note_on_c, 0, 59, 0
1, 39702, Note_on_c, 0, 63, 0
1, 39724, Note_on_c, 0, 53, 0
1, 39736, Note_on_c, 0, 63, 26
1, 39763, Note_on_c, 0, 68, 0
1, 39765, Note_on_c, 0, 43, 0
1, 39767, Note_on_c, 0, 63, 0
1, 39784, Note_on_c, 0, 43, 35
1, 39845, Control_c, 0, 64, 0
1, 39846, Note_on_c, 0, 65, 48
1, 39849, Note_on_c, 0, 55, 37
1, 39851, Note_on_c, 0, 60, 48
1, 39852, Note_on_c, 0, 67, 18
1, 39853, Note_on_c, 0, 56, 32
1, 39870, Control_c, 0, 64, 127
1, 39874, Note_on_c, 0, 56, 0
1, 39881, Note_on_c, 0, 60, 0
1, 39889, Note_on_c, 0, 65, 0
1, 39889, Note_on_c, 0, 67, 0
1, 39959, Note_on_c, 0, 55, 0
1, 39959, Note_on_c, 0, 79, 58
1, 40023, Note_on_c, 0, 43, 0
1, 40024, Note_on_c, 0, 55, 29
1, 40031, Note_on_c, 0, 55, 0
1, 40083, Note_on_c, 0, 67, 38
1, 40128, Note_on_c, 0, 79, 0
1, 40146, Note_on_c, 0, 79, 51
1, 40167, Note_on_c, 0, 67, 0
1, 40206, Note_on_c, 0, 67, 32
1, 40226, Note_on_c, 0, 67, 0
1, 40264, Note_on_c, 0, 67, 28
1, 40313, Note_on_c, 0, 67, 0
1, 40317, Note_on_c, 0, 71, 43
1, 40318, Note_on_c, 0, 55, 42
1, 40320, Note_on_c, 0, 73, 35
1, 40379, Note_on_c, 0, 71, 0
1, 40384, Note_on_c, 0, 67, 24
1, 40396, Note_on_c, 0, 73, 0
1, 40404, Note_on_c, 0, 67, 0
1, 40446, Note_on_c, 0, 71, 28
1, 40466, Note_on_c, 0, 71, 0
1, 40507, Note_on_c, 0, 67, 29
1, 40565, Note_on_c, 0, 55, 0
1, 40569, Note_on_c, 0, 67, 0
1, 40607, Note_on_c, 0, 79, 0
1, 40621, Note_on_c, 0, 79, 32
1, 40629, Note_on_c, 0, 71, 24
1, 40712, Note_on_c, 0, 71, 0
1, 40775, Note_on_c, 0, 79, 0
1, 40800, Note_on_c, 0, 63, 47
1, 40800, Control_c, 0, 64, 0
1, 40800, Note_on_c, 0, 62, 29
1, 40802, Note_on_c, 0, 67, 33
1, 40823, Control_c, 0, 64, 127
1, 40824, Note_on_c, 0, 63, 0
1, 40826, Note_on_c, 0, 67, 0
1, 40857, Note_on_c, 0, 62, 0
1, 40858, Note_on_c, 0, 63, 29
1, 40878, Note_on_c, 0, 63, 0
1, 40887, Note_on_c, 0, 62, 29
1, 40905, Note_on_c, 0, 62, 0
1, 40914, Note_on_c, 0, 63, 21
1, 40924, Note_on_c, 0, 63, 0
1, 40988, Note_on_c, 0, 67, 20
1, 40994, Note_on_c, 0, 62, 31
1, 40997, Note_on_c, 0, 67, 0
1, 41024, Note_on_c, 0, 63, 38
1, 41029, Note_on_c, 0, 62, 0
1, 41036, Note_on_c, 0, 63, 0
1, 41044, Note_on_c, 0, 55, 84
1, 41061, Note_on_c, 0, 62, 16
1, 41085, Note_on_c, 0, 62, 0
1, 41104, Note_on_c, 0, 63, 30
1, 41107, Note_on_c, 0, 67, 15
1, 41119, Note_on_c, 0, 67, 0
1, 41122, Note_on_c, 0, 63, 0
1, 41138, Note_on_c, 0, 62, 19
1, 41155, Note_on_c, 0, 62, 0
1, 41166, Note_on_c, 0, 63, 18
1, 41179, Note_on_c, 0, 63, 0
1, 41231, Note_on_c, 0, 63, 28
1, 41254, Note_on_c, 0, 63, 0
1, 41284, Note_on_c, 0, 63, 37
1, 41302, Note_on_c, 0, 63, 0
1, 41344, Note_on_c, 0, 63, 31
1, 41357, Note_on_c, 0, 63, 0
1, 41379, Note_on_c, 0, 62, 33
1, 41397, Note_on_c, 0, 62, 0
1, 41404, Note_on_c, 0, 67, 27
1, 41417, Note_on_c, 0, 67, 0
1, 41438, Note_on_c, 0, 62, 33
1, 41460, Note_on_c, 0, 63, 60
1, 41468, Note_on_c, 0, 62, 0
1, 41468, Note_on_c, 0, 67, 49
1, 41484, Note_on_c, 0, 63, 0
1, 41490, Note_on_c, 0, 62, 47
1, 41496, Note_on_c, 0, 67, 0
1, 41520, Note_on_c, 0, 62, 0
1, 41531, Note_on_c, 0, 67, 18
1, 41543, Note_on_c, 0, 67, 0
1, 41558, Note_on_c, 0, 62, 27
1, 41579, Note_on_c, 0, 63, 33
1, 41582, Note_on_c, 0, 62, 0
1, 41588, Note_on_c, 0, 67, 19
1, 41601, Note_on_c, 0, 63, 0
1, 41602, Note_on_c, 0, 67, 0
1, 41611, Note_on_c, 0, 62, 32
1, 41616, Note_on_c, 0, 63, 25
1, 41625, Note_on_c, 0, 62, 0
1, 41645, Note_on_c, 0, 63, 0
1, 41727, Note_on_c, 0, 55, 0
1, 41749, Note_on_c, 0, 60, 36
1, 41752, Note_on_c, 0, 56, 32
1, 41756, Control_c, 0, 64, 0
1, 41757, Note_on_c, 0, 63, 25
1, 41758, Note_on_c, 0, 67, 20
1, 41788, Control_c, 0, 64, 127
1, 41814, Note_on_c, 0, 67, 0
1, 41823, Note_on_c, 0, 53, 60
1, 41826, Note_on_c, 0, 60, 0
1, 41833, Note_on_c, 0, 56, 0
1, 41844, Note_on_c, 0, 63, 0
1, 41857, Note_on_c, 0, 53, 0
1, 41879, Note_on_c, 0, 56, 51
1, 41912, Note_on_c, 0, 56, 0
1, 41940, Note_on_c, 0, 56, 69
1, 41944, Note_on_c, 0, 63, 39
1, 41945, Note_on_c, 0, 67, 25
1, 41948, Note_on_c, 0, 60, 37
1, 41953, Note_on_c, 0, 67, 0
1, 41954, Note_on_c, 0, 60, 0
1, 41966, Note_on_c, 0, 63, 0
1, 41985, Note_on_c, 0, 56, 0
1, 42004, Note_on_c, 0, 60, 71
1, 42030, Note_on_c, 0, 60, 0
1, 42068, Note_on_c, 0, 60, 65
1, 42073, Note_on_c, 0, 63, 44
1, 42084, Note_on_c, 0, 63, 0
1, 42085, Note_on_c, 0, 60, 0
1, 42128, Note_on_c, 0, 63, 63
1, 42166, Note_on_c, 0, 63, 0
1, 42192, Note_on_c, 0, 59, 48
1, 42193, Note_on_c, 0, 67, 40
1, 42193, Note_on_c, 0, 63, 40
1, 42195, Note_on_c, 0, 61, 46
1, 42196, Note_on_c, 0, 43, 35
1, 42197, Control_c, 0, 64, 0
1, 42198, Note_on_c, 0, 53, 31
1, 42227, Note_on_c, 0, 59, 0
1, 42231, Control_c, 0, 64, 127
1, 42239, Note_on_c, 0, 61, 0
1, 42240, Note_on_c, 0, 63, 0
1, 42241, Note_on_c, 0, 67, 0
1, 42242, Note_on_c, 0, 43, 0
1, 42254, Note_on_c, 0, 53, 0
1, 42310, Note_on_c, 0, 53, 48
1, 42311, Note_on_c, 0, 79, 62
1, 42311, Note_on_c, 0, 75, 59
1, 42312, Note_on_c, 0, 63, 50
1, 42313, Note_on_c, 0, 71, 51
1, 42316, Note_on_c, 0, 59, 42
1, 42322, Control_c, 0, 64, 0
1, 42327, Note_on_c, 0, 59, 0
1, 42328, Note_on_c, 0, 63, 0
1, 42328, Note_on_c, 0, 71, 0
1, 42329, Note_on_c, 0, 53, 0
1, 42334, Note_on_c, 0, 75, 0
1, 42337, Note_on_c, 0, 79, 0
1, 42377, Note_on_c, 0, 80, 28
1, 42391, Note_on_c, 0, 80, 0
1, 42420, Control_c, 0, 64, 127
1, 42425, Note_on_c, 0, 82, 53
1, 42426, Note_on_c, 0, 75, 49
1, 42427, Note_on_c, 0, 59, 34
1, 42428, Note_on_c, 0, 63, 38
1, 42429, Note_on_c, 0, 79, 40
1, 42430, Note_on_c, 0, 71, 43
1, 42431, Note_on_c, 0, 53, 33
1, 42444, Note_on_c, 0, 53, 0
1, 42448, Note_on_c, 0, 63, 0
1, 42451, Note_on_c, 0, 71, 0
1, 42452, Note_on_c, 0, 75, 0
1, 42454, Note_on_c, 0, 79, 0
1, 42465, Note_on_c, 0, 82, 0
1, 42467, Note_on_c, 0, 59, 0
1, 42479, Control_c, 0, 64, 0
1, 42488, Note_on_c, 0, 80, 49
1, 42490, Note_on_c, 0, 59, 44
1, 42490, Note_on_c, 0, 75, 45
1, 42491, Note_on_c, 0, 71, 36
1, 42491, Note_on_c, 0, 63, 30
1, 42509, Control_c, 0, 64, 127
1, 42542, Note_on_c, 0, 63, 0
1, 42543, Note_on_c, 0, 80, 0
1, 42556, Note_on_c, 0, 75, 0
1, 42558, Note_on_c, 0, 71, 0
1, 42567, Note_on_c, 0, 59, 0
1, 42677, Note_on_c, 0, 79, 67
1, 42703, Note_on_c, 0, 79, 0
1, 42715, Note_on_c, 0, 74, 41
1, 42732, Note_on_c, 0, 74, 0
1, 42734, Control_c, 0, 64, 0
1, 42738, Note_on_c, 0, 48, 36
1, 42739, Note_on_c, 0, 55, 22
1, 42747, Note_on_c, 0, 77, 54
1, 42769, Note_on_c, 0, 77, 0
1, 42781, Note_on_c, 0, 75, 48
1, 42801, Note_on_c, 0, 75, 0
1, 42815, Note_on_c, 0, 67, 30
1, 42829, Note_on_c, 0, 67, 0
1, 42845, Note_on_c, 0, 74, 60
1, 42868, Note_on_c, 0, 74, 0
1, 42872, Note_on_c, 0, 48, 0
1, 42883, Note_on_c, 0, 67, 34
1, 42895, Note_on_c, 0, 67, 0
1, 43032, Note_on_c, 0, 48, 48
1, 43040, Control_c, 0, 64, 127
1, 43050, Note_on_c, 0, 55, 0
1, 43097, Note_on_c, 0, 58, 34
1, 43104, Control_c, 0, 64, 0
1, 43104, Note_on_c, 0, 65, 71
1, 43162, Note_on_c, 0, 48, 0
1, 43166, Note_on_c, 0, 62, 28
1, 43186, Note_on_c, 0, 65, 0
1, 43215, Note_on_c, 0, 63, 62
1, 43216, Note_on_c, 0, 62, 0
1, 43268, Note_on_c, 0, 58, 0
1, 43282, Control_c, 0, 64, 127
1, 43327, Note_on_c, 0, 58, 30
1, 43369, Note_on_c, 0, 59, 53
1, 43393, Note_on_c, 0, 63, 0
1, 43394, Note_on_c, 0, 59, 0
1, 43409, Note_on_c, 0, 60, 56
1, 43417, Note_on_c, 0, 58, 0
1, 43437, Note_on_c, 0, 60, 0
1, 43452, Note_on_c, 0, 62, 66
1, 43453, Note_on_c, 0, 58, 33
1, 43488, Note_on_c, 0, 62, 0
1, 43496, Note_on_c, 0, 63, 64
1, 43528, Note_on_c, 0, 63, 0
1, 43532, Note_on_c, 0, 58, 0
1, 43542, Note_on_c, 0, 65, 69
1, 43571, Note_on_c, 0, 65, 0
1, 43583, Note_on_c, 0, 67, 57
1, 43604, Note_on_c, 0, 67, 0
1, 43626, Note_on_c, 0, 68, 78
1, 43637, Control_c, 0, 64, 0
1, 43666, Note_on_c, 0, 68, 0
1, 43666, Control_c, 0, 64, 127
1, 43667, Note_on_c, 0, 70, 74
1, 43670, Note_on_c, 0, 41, 51
1, 43678, Note_on_c, 0, 41, 0
1, 43701, Note_on_c, 0, 70, 0
1, 43719, Note_on_c, 0, 72, 59
1, 43746, Note_on_c, 0, 72, 0
1, 43759, Note_on_c, 0, 74, 76
1, 43764, Note_on_c, 0, 63, 62
1, 43767, Note_on_c, 0, 58, 55
1, 43767, Note_on_c, 0, 53, 43
1, 43777, Control_c, 0, 64, 0
1, 43802, Control_c, 0, 64, 127
1, 43808, Note_on_c, 0, 75, 62
1, 43811, Note_on_c, 0, 74, 0
1, 43835, Note_on_c, 0, 75, 0
1, 43846, Note_on_c, 0, 77, 53
1, 43850, Note_on_c, 0, 53, 0
1, 43864, Note_on_c, 0, 58, 0
1, 43870, Note_on_c, 0, 63, 0
1, 43871, Note_on_c, 0, 77, 0
1, 43890, Note_on_c, 0, 65, 64
1, 43891, Note_on_c, 0, 79, 71
1, 43894, Note_on_c, 0, 60, 48
1, 43895, Note_on_c, 0, 55, 46
1, 43896, Control_c, 0, 64, 0
1, 43931, Control_c, 0, 64, 127
1, 43938, Note_on_c, 0, 80, 62
1, 43944, Note_on_c, 0, 79, 0
1, 43973, Note_on_c, 0, 80, 0
1, 43975, Note_on_c, 0, 82, 63
1, 43979, Note_on_c, 0, 55, 0
1, 43979, Note_on_c, 0, 60, 0
1, 43994, Note_on_c, 0, 65, 0
1, 43997, Note_on_c, 0, 82, 0
1, 44019, Note_on_c, 0, 84, 69
1, 44042, Note_on_c, 0, 84, 0
1, 44060, Note_on_c, 0, 86, 82
1, 44063, Note_on_c, 0, 68, 58
1, 44066, Note_on_c, 0, 63, 42
1, 44069, Note_on_c, 0, 60, 43
1, 44096, Note_on_c, 0, 86, 0
1, 44100, Note_on_c, 0, 87, 61
1, 44117, Note_on_c, 0, 60, 0
1, 44119, Note_on_c, 0, 68, 0
1, 44128, Note_on_c, 0, 87, 0
1, 44136, Note_on_c, 0, 63, 0
1, 44143, Control_c, 0, 64, 0
1, 44145, Note_on_c, 0, 67, 49
1, 44145, Note_on_c, 0, 89, 72
1, 44145, Note_on_c, 0, 62, 42
1, 44147, Note_on_c, 0, 56, 39
1, 44172, Control_c, 0, 64, 127
1, 44189, Note_on_c, 0, 89, 0
1, 44189, Note_on_c, 0, 67, 0
1, 44192, Note_on_c, 0, 91, 56
1, 44193, Note_on_c, 0, 79, 53
1, 44194, Note_on_c, 0, 62, 0
1, 44206, Note_on_c, 0, 56, 0
1, 44209, Note_on_c, 0, 91, 0
1, 44211, Note_on_c, 0, 79, 0
1, 44243, Note_on_c, 0, 92, 65
1, 44243, Control_c, 0, 64, 0
1, 44243, Note_on_c, 0, 80, 48
1, 44257, Control_c, 0, 64, 127
1, 44262, Note_on_c, 0, 80, 0
1, 44263, Note_on_c, 0, 92, 0
1, 44284, Note_on_c, 0, 94, 62
1, 44286, Note_on_c, 0, 82, 49
1, 44302, Note_on_c, 0, 82, 0
1, 44305, Note_on_c, 0, 94, 0
1, 44324, Note_on_c, 0, 94, 49
1, 44324, Note_on_c, 0, 82, 54
1, 44326, Control_c, 0, 64, 0
1, 44329, Note_on_c, 0, 56, 32
1, 44330, Note_on_c, 0, 46, 29
1, 44339, Note_on_c, 0, 95, 49
1, 44341, Note_on_c, 0, 94, 0
1, 44343, Note_on_c, 0, 82, 0
1, 44349, Note_on_c, 0, 83, 38
1, 44356, Control_c, 0, 64, 127
1, 44375, Note_on_c, 0, 46, 0
1, 44385, Note_on_c, 0, 56, 0
1, 44393, Note_on_c, 0, 83, 0
1, 44395, Note_on_c, 0, 95, 0
1, 44465, Note_on_c, 0, 66, 60
1, 44467, Note_on_c, 0, 62, 54
1, 44470, Note_on_c, 0, 56, 42
1, 44487, Control_c, 0, 64, 0
1, 44534, Control_c, 0, 64, 127
1, 44537, Note_on_c, 0, 94, 50
1, 44539, Note_on_c, 0, 82, 39
1, 44557, Note_on_c, 0, 56, 0
1, 44567, Note_on_c, 0, 94, 0
1, 44567, Note_on_c, 0, 82, 0
1, 44590, Note_on_c, 0, 56, 50
1, 44593, Note_on_c, 0, 95, 61
1, 44593, Note_on_c, 0, 83, 62
1, 44604, Note_on_c, 0, 62, 0
1, 44610, Note_on_c, 0, 95, 0
1, 44610, Note_on_c, 0, 83, 0
1, 44619, Note_on_c, 0, 66, 0
1, 44624, Note_on_c, 0, 56, 0
1, 44649, Control_c, 0, 64, 0
1, 44652, Note_on_c, 0, 94, 58
1, 44656, Note_on_c, 0, 61, 38
1, 44656, Note_on_c, 0, 65, 38
1, 44656, Note_on_c, 0, 82, 46
1, 44658, Note_on_c, 0, 60, 32
1, 44663, Note_on_c, 0, 87, 27
1, 44675, Control_c, 0, 64, 127
1, 44707, Note_on_c, 0, 94, 0
1, 44709, Note_on_c, 0, 87, 0
1, 44724, Note_on_c, 0, 82, 0
1, 44735, Note_on_c, 0, 60, 0
1, 44767, Note_on_c, 0, 57, 37
1, 44772, Control_c, 0, 64, 0
1, 44791, Note_on_c, 0, 61, 0
1, 44795, Note_on_c, 0, 65, 0
1, 44808, Control_c, 0, 64, 127
1, 44882, Control_c, 0, 64, 0
1, 44886, Note_on_c, 0, 61, 29
1, 44886, Note_on_c, 0, 65, 30
1, 44894, Note_on_c, 0, 87, 57
1, 44901, Note_on_c, 0, 87, 0
1, 44924, Note_on_c, 0, 89, 55
1, 44938, Note_on_c, 0, 89, 0
1, 44949, Note_on_c, 0, 65, 0
1, 44974, Note_on_c, 0, 84, 66
1, 44976, Note_on_c, 0, 57, 0
1, 44977, Note_on_c, 0, 56, 49
1, 44983, Note_on_c, 0, 84, 0
1, 44985, Note_on_c, 0, 65, 34
1, 45032, Note_on_c, 0, 85, 69
1, 45048, Note_on_c, 0, 85, 0
1, 45094, Note_on_c, 0, 82, 48
1, 45095, Note_on_c, 0, 65, 0
1, 45110, Note_on_c, 0, 82, 0
1, 45111, Note_on_c, 0, 56, 0
1, 45121, Note_on_c, 0, 84, 61
1, 45125, Note_on_c, 0, 64, 30
1, 45126, Note_on_c, 0, 55, 29
1, 45167, Note_on_c, 0, 84, 0
1, 45182, Note_on_c, 0, 82, 54
1, 45201, Note_on_c, 0, 82, 0
1, 45242, Note_on_c, 0, 81, 65
1, 45255, Note_on_c, 0, 55, 0
1, 45257, Note_on_c, 0, 81, 0
1, 45257, Note_on_c, 0, 64, 0
1, 45275, Note_on_c, 0, 82, 46
1, 45286, Note_on_c, 0, 81, 52
1, 45290, Note_on_c, 0, 82, 0
1, 45303, Note_on_c, 0, 79, 32
1, 45315, Note_on_c, 0, 81, 0
1, 45325, Note_on_c, 0, 79, 0
1, 45334, Note_on_c, 0, 61, 0
1, 45342, Note_on_c, 0, 77, 55
1, 45363, Control_c, 0, 64, 127
1, 45365, Note_on_c, 0, 77, 0
1, 45373, Note_on_c, 0, 76, 15
1, 45389, Note_on_c, 0, 76, 0
1, 45403, Note_on_c, 0, 75, 56
1, 45404, Control_c, 0, 64, 0
1, 45414, Note_on_c, 0, 66, 30
1, 45417, Note_on_c, 0, 61, 32
1, 45420, Note_on_c, 0, 55, 34
1, 45421, Note_on_c, 0, 75, 0
1, 45438, Note_on_c, 0, 79, 48
1, 45442, Control_c, 0, 64, 127
1, 45456, Note_on_c, 0, 66, 0
1, 45460, Note_on_c, 0, 79, 0
1, 45460, Control_c, 0, 64, 0
1, 45485, Note_on_c, 0, 75, 63
1, 45489, Control_c, 0, 64, 127
1, 45506, Note_on_c, 0, 75, 0
1, 45521, Control_c, 0, 64, 0
1, 45529, Note_on_c, 0, 73, 60
1, 45537, Note_on_c, 0, 61, 0
1, 45542, Note_on_c, 0, 55, 0
1, 45549, Note_on_c, 0, 73, 0
1, 45549, Control_c, 0, 64, 127
1, 45573, Note_on_c, 0, 70, 64
1, 45603, Note_on_c, 0, 70, 0
1, 45614, Control_c, 0, 64, 0
1, 45618, Note_on_c, 0, 72, 50
1, 45620, Note_on_c, 0, 51, 26
1, 45624, Note_on_c, 0, 44, 38
1, 45665, Note_on_c, 0, 72, 0
1, 45671, Control_c, 0, 64, 127
1, 45671, Note_on_c, 0, 60, 51
1, 45681, Note_on_c, 0, 60, 0
1, 45716, Note_on_c, 0, 60, 52
1, 45728, Note_on_c, 0, 55, 28
1, 45732, Note_on_c, 0, 60, 0
1, 45758, Note_on_c, 0, 60, 43
1, 45759, Note_on_c, 0, 55, 0
1, 45778, Note_on_c, 0, 60, 0
1, 45801, Note_on_c, 0, 51, 0
1, 45880, Control_c, 0, 64, 0
1, 45905, Note_on_c, 0, 51, 21
1, 45912, Note_on_c, 0, 51, 0
1, 45912, Note_on_c, 0, 55, 57
1, 45940, Note_on_c, 0, 55, 0
1, 45943, Note_on_c, 0, 58, 74
1, 45964, Note_on_c, 0, 58, 0
1, 45969, Note_on_c, 0, 55, 68
1, 45978, Note_on_c, 0, 51, 27
1, 45991, Note_on_c, 0, 55, 0
1, 46001, Note_on_c, 0, 56, 49
1, 46023, Note_on_c, 0, 56, 0
1, 46026, Note_on_c, 0, 44, 0
1, 46029, Note_on_c, 0, 58, 34
1, 46032, Note_on_c, 0, 51, 0
1, 46037, Note_on_c, 0, 58, 0
1, 46044, Control_c, 0, 64, 127
1, 46054, Note_on_c, 0, 59, 41
1, 46072, Note_on_c, 0, 59, 0
1, 46079, Control_c, 0, 64, 0
1, 46083, Note_on_c, 0, 61, 61
1, 46108, Control_c, 0, 64, 127
1, 46111, Note_on_c, 0, 61, 0
1, 46119, Note_on_c, 0, 63, 52
1, 46126, Note_on_c, 0, 63, 0
1, 46127, Control_c, 0, 64, 0
1, 46148, Note_on_c, 0, 65, 26
1, 46158, Note_on_c, 0, 65, 0
1, 46176, Control_c, 0, 64, 127
1, 46177, Note_on_c, 0, 67, 30
1, 46188, Note_on_c, 0, 67, 0
1, 46197, Control_c, 0, 64, 0
1, 46205, Note_on_c, 0, 68, 65
1, 46211, Note_on_c, 0, 63, 28
1, 46212, Note_on_c, 0, 59, 24
1, 46214, Note_on_c, 0, 53, 22
1, 46235, Control_c, 0, 64, 127
1, 46237, Note_on_c, 0, 63, 0
1, 46240, Note_on_c, 0, 59, 0
1, 46243, Note_on_c, 0, 53, 0
1, 46245, Note_on_c, 0, 68, 0
1, 46249, Note_on_c, 0, 70, 60
1, 46268, Note_on_c, 0, 70, 0
1, 46287, Control_c, 0, 64, 0
1, 46293, Note_on_c, 0, 71, 49
1, 46316, Note_on_c, 0, 71, 0
1, 46327, Note_on_c, 0, 49, 42
1, 46328, Note_on_c, 0, 73, 72
1, 46329, Note_on_c, 0, 59, 38
1, 46332, Control_c, 0, 64, 127
1, 46344, Note_on_c, 0, 59, 0
1, 46344, Note_on_c, 0, 49, 0
1, 46353, Note_on_c, 0, 73, 0
1, 46361, Control_c, 0, 64, 0
1, 46369, Note_on_c, 0, 75, 57
1, 46391, Note_on_c, 0, 75, 0
1, 46419, Note_on_c, 0, 77, 61
1, 46437, Note_on_c, 0, 77, 0
1, 46449, Note_on_c, 0, 79, 68
1, 46456, Note_on_c, 0, 59, 38
1, 46457, Note_on_c, 0, 63, 26
1, 46460, Control_c, 0, 64, 127
1, 46464, Note_on_c, 0, 59, 0
1, 46466, Control_c, 0, 64, 0
1, 46467, Note_on_c, 0, 63, 0
1, 46472, Note_on_c, 0, 79, 0
1, 46489, Control_c, 0, 64, 127
1, 46553, Control_c, 0, 64, 0
1, 46553, Note_on_c, 0, 79, 62
1, 46563, Note_on_c, 0, 56, 26
1, 46565, Note_on_c, 0, 60, 34
1, 46569, Note_on_c, 0, 50, 22
1, 46572, Note_on_c, 0, 79, 0
1, 46593, Note_on_c, 0, 50, 0
1, 46605, Note_on_c, 0, 56, 0
1, 46608, Note_on_c, 0, 60, 0
1, 46629, Note_on_c, 0, 79, 64
1, 46665, Note_on_c, 0, 79, 0
1, 46683, Note_on_c, 0, 72, 48
1, 46684, Note_on_c, 0, 79, 24
1, 46686, Note_on_c, 0, 68, 48
1, 46747, Note_on_c, 0, 67, 33
1, 46797, Note_on_c, 0, 67, 0
1, 46802, Control_c, 0, 64, 127
1, 46808, Note_on_c, 0, 65, 32
1, 46817, Note_on_c, 0, 65, 0
1, 46824, Note_on_c, 0, 68, 0
1, 46851, Note_on_c, 0, 79, 0
1, 46851, Note_on_c, 0, 72, 0
1, 46861, Note_on_c, 0, 68, 35
1, 46876, Note_on_c, 0, 68, 0
1, 46922, Note_on_c, 0, 44, 35
1, 46945, Note_on_c, 0, 44, 0
1, 46971, Control_c, 0, 64, 0
1, 46978, Note_on_c, 0, 61, 49
1, 46982, Note_on_c, 0, 59, 43
1, 46982, Note_on_c, 0, 43, 32
1, 46983, Note_on_c, 0, 53, 29
1, 47015, Control_c, 0, 64, 127
1, 47043, Note_on_c, 0, 53, 0
1, 47054, Note_on_c, 0, 59, 0
1, 47071, Note_on_c, 0, 61, 0
1, 47094, Note_on_c, 0, 59, 43
1, 47095, Note_on_c, 0, 53, 42
1, 47096, Note_on_c, 0, 62, 42
1, 47144, Note_on_c, 0, 43, 0
1, 47146, Note_on_c, 0, 53, 0
1, 47146, Control_c, 0, 64, 0
1, 47151, Note_on_c, 0, 50, 33
1, 47197, Note_on_c, 0, 50, 0
1, 47206, Note_on_c, 0, 59, 0
1, 47215, Note_on_c, 0, 47, 38
1, 47224, Control_c, 0, 64, 127
1, 47233, Note_on_c, 0, 62, 0
1, 47261, Control_c, 0, 64, 0
1, 47272, Note_on_c, 0, 56, 38
1, 47275, Note_on_c, 0, 65, 41
1, 47276, Note_on_c, 0, 59, 48
1, 47276, Note_on_c, 0, 53, 34
1, 47278, Note_on_c, 0, 62, 32
1, 47293, Note_on_c, 0, 56, 0
1, 47299, Note_on_c, 0, 59, 0
1, 47303, Note_on_c, 0, 53, 0
1, 47303, Note_on_c, 0, 65, 0
1, 47305, Note_on_c, 0, 62, 0
1, 47392, Control_c, 0, 64, 127
1, 47398, Note_on_c, 0, 65, 42
1, 47400, Note_on_c, 0, 62, 33
1, 47402, Note_on_c, 0, 53, 27
1, 47402, Note_on_c, 0, 56, 25
1, 47404, Note_on_c, 0, 59, 32
1, 47405, Note_on_c, 0, 47, 0
1, 47418, Note_on_c, 0, 59, 0
1, 47425, Note_on_c, 0, 56, 0
1, 47428, Note_on_c, 0, 62, 0
1, 47429, Note_on_c, 0, 53, 0
1, 47433, Note_on_c, 0, 65, 0
1, 47511, Control_c, 0, 64, 0
1, 47514, Note_on_c, 0, 65, 50
1, 47516, Note_on_c, 0, 63, 29
1, 47517, Note_on_c, 0, 62, 34
1, 47522, Note_on_c, 0, 48, 30
1, 47540, Control_c, 0, 64, 127
1, 47547, Note_on_c, 0, 62, 0
1, 47555, Note_on_c, 0, 63, 0
1, 47561, Note_on_c, 0, 65, 0
1, 47580, Note_on_c, 0, 55, 32
1, 47607, Note_on_c, 0, 48, 0
1, 47632, Note_on_c, 0, 74, 48
1, 47678, Note_on_c, 0, 74, 0
1, 47690, Note_on_c, 0, 74, 25
1, 47697, Note_on_c, 0, 67, 35
1, 47699, Note_on_c, 0, 63, 30
1, 47702, Note_on_c, 0, 62, 29
1, 47757, Note_on_c, 0, 62, 0
1, 47814, Note_on_c, 0, 62, 31
1, 47817, Note_on_c, 0, 67, 0
1, 47818, Note_on_c, 0, 63, 0
1, 47857, Note_on_c, 0, 62, 0
1, 47862, Note_on_c, 0, 55, 0
1, 47873, Note_on_c, 0, 63, 30
1, 47876, Note_on_c, 0, 67, 28
1, 47903, Note_on_c, 0, 67, 0
1, 47907, Note_on_c, 0, 63, 0
1, 47935, Note_on_c, 0, 55, 26
1, 47994, Note_on_c, 0, 55, 0
1, 48000, Note_on_c, 0, 48, 30
1, 48057, Note_on_c, 0, 55, 26
1, 48089, Note_on_c, 0, 48, 0
1, 48108, Note_on_c, 0, 63, 35
1, 48114, Note_on_c, 0, 67, 26
1, 48155, Note_on_c, 0, 74, 0
1, 48173, Note_on_c, 0, 74, 43
1, 48181, Note_on_c, 0, 59, 43
1, 48248, Note_on_c, 0, 67, 0
1, 48251, Note_on_c, 0, 63, 0
1, 48253, Note_on_c, 0, 55, 0
1, 48294, Note_on_c, 0, 63, 33
1, 48297, Note_on_c, 0, 67, 30
1, 48349, Note_on_c, 0, 63, 0
1, 48394, Note_on_c, 0, 67, 0
1, 48425, Note_on_c, 0, 55, 24
1, 48451, Note_on_c, 0, 74, 0
1, 48462, Note_on_c, 0, 59, 0
1, 48478, Note_on_c, 0, 55, 0
1, 48480, Note_on_c, 0, 74, 38
1, 48481, Control_c, 0, 64, 0
1, 48484, Note_on_c, 0, 48, 42
1, 48514, Control_c, 0, 64, 127
1, 48541, Note_on_c, 0, 55, 34
1, 48584, Note_on_c, 0, 48, 0
1, 48590, Note_on_c, 0, 63, 36
1, 48613, Note_on_c, 0, 63, 0
1, 48655, Note_on_c, 0, 74, 0
1, 48662, Note_on_c, 0, 67, 31
1, 48662, Note_on_c, 0, 63, 25
1, 48664, Note_on_c, 0, 62, 30
1, 48673, Note_on_c, 0, 63, 0
1, 48680, Note_on_c, 0, 67, 0
1, 48705, Note_on_c, 0, 55, 0
1, 48705, Note_on_c, 0, 62, 0
1, 48775, Note_on_c, 0, 77, 46
1, 48777, Note_on_c, 0, 65, 31
1, 48779, Note_on_c, 0, 63, 27
1, 48782, Note_on_c, 0, 58, 34
1, 48782, Note_on_c, 0, 53, 22
1, 48797, Note_on_c, 0, 65, 0
1, 48812, Note_on_c, 0, 77, 0
1, 48843, Note_on_c, 0, 53, 0
1, 48845, Note_on_c, 0, 63, 0
1, 48858, Note_on_c, 0, 58, 0
1, 48904, Note_on_c, 0, 89, 72
1, 48935, Note_on_c, 0, 89, 0
1, 48967, Note_on_c, 0, 48, 57
1, 48968, Control_c, 0, 64, 0
1, 48968, Note_on_c, 0, 81, 53
1, 48992, Control_c, 0, 64, 127
1, 49033, Note_on_c, 0, 57, 31
1, 49078, Note_on_c, 0, 48, 0
1, 49089, Note_on_c, 0, 57, 0
1, 49094, Note_on_c, 0, 86, 41
1, 49103, Note_on_c, 0, 62, 27
1, 49151, Note_on_c, 0, 63, 35
1, 49160, Note_on_c, 0, 62, 0
1, 49239, Note_on_c, 0, 86, 0
1, 49250, Note_on_c, 0, 81, 0
1, 49278, Note_on_c, 0, 67, 28
1, 49330, Note_on_c, 0, 67, 0
1, 49336, Note_on_c, 0, 63, 0
1, 49387, Note_on_c, 0, 86, 52
1, 49444, Control_c, 0, 64, 0
1, 49444, Note_on_c, 0, 79, 33
1, 49446, Note_on_c, 0, 48, 31
1, 49469, Note_on_c, 0, 86, 0
1, 49469, Control_c, 0, 64, 127
1, 49478, Note_on_c, 0, 79, 0
1, 49506, Note_on_c, 0, 55, 38
1, 49565, Note_on_c, 0, 62, 32
1, 49623, Note_on_c, 0, 67, 28
1, 49626, Note_on_c, 0, 63, 27
1, 49663, Note_on_c, 0, 63, 0
1, 49679, Note_on_c, 0, 67, 0
1, 49728, Note_on_c, 0, 74, 36
1, 49742, Note_on_c, 0, 74, 0
1, 49798, Note_on_c, 0, 86, 46
1, 49818, Note_on_c, 0, 55, 0
1, 49856, Note_on_c, 0, 48, 0
1, 49872, Note_on_c, 0, 79, 25
1, 49874, Note_on_c, 0, 74, 18
1, 49897, Note_on_c, 0, 86, 0
1, 49901, Note_on_c, 0, 79, 0
1, 49914, Note_on_c, 0, 74, 0
1, 49930, Note_on_c, 0, 62, 0
1, 49944, Note_on_c, 0, 48, 1
1, 49982, Note_on_c, 0, 55, 36
1, 50035, Note_on_c, 0, 63, 31
1, 50036, Note_on_c, 0, 67, 33
1, 50050, Note_on_c, 0, 63, 0
1, 50056, Note_on_c, 0, 67, 0
1, 50099, Note_on_c, 0, 62, 25
1, 50152, Note_on_c, 0, 62, 0
1, 50227, Note_on_c, 0, 62, 32
1, 50286, Note_on_c, 0, 55, 0
1, 50358, Note_on_c, 0, 55, 24
1, 50361, Note_on_c, 0, 48, 0
1, 50421, Note_on_c, 0, 48, 27
1, 50551, Note_on_c, 0, 48, 0
1, 50591, Note_on_c, 0, 48, 35
1, 50668, Note_on_c, 0, 62, 0
1, 50677, Note_on_c, 0, 55, 0
1, 50694, Note_on_c, 0, 48, 0
1, 50893, Note_on_c, 0, 24, 32
1, 50988, Note_on_c, 0, 24, 0
1, 51242, Control_c, 0, 64, 0
1, 52202, Lyric_t, " "
1, 52202, End_track
0, 0, End_of_file
