0, 0, Header, 1, 4, 960
1, 0, Start_track
1, 0, Title_t, "Exactly Like You"
1, 0, Text_t, "Exactly Like You\012"
1, 0, Text_t, "dougmck@pipeline.com.au\012"
1, 0, Time_signature, 4, 2, 24, 8
1, 0, Key_signature, 0, "major"
1, 0, Tempo, 461538
1, 0, End_track
2, 0, Start_track
2, 0, Title_t, "MIDI 1"
2, 0, Program_c, 1, 32
2, 0, Control_c, 1, 7, 93
2, 29, Note_on_c, 1, 36, 73
2, 610, Note_on_c, 1, 36, 0
2, 691, Note_on_c, 1, 31, 54
2, 792, Note_on_c, 1, 31, 0
2, 967, Note_on_c, 1, 28, 56
2, 1892, Note_on_c, 1, 28, 0
2, 1961, Note_on_c, 1, 29, 60
2, 2670, Note_on_c, 1, 27, 47
2, 2837, Note_on_c, 1, 29, 0
2, 2872, Note_on_c, 1, 27, 0
2, 2887, Note_on_c, 1, 30, 72
2, 3796, Note_on_c, 1, 30, 0
2, 3873, Note_on_c, 1, 31, 67
2, 4784, Note_on_c, 1, 32, 69
2, 4786, Note_on_c, 1, 31, 0
2, 5786, Note_on_c, 1, 32, 0
2, 5799, Note_on_c, 1, 33, 61
2, 6489, Note_on_c, 1, 32, 62
2, 6570, Note_on_c, 1, 33, 0
2, 6706, Note_on_c, 1, 39, 87
2, 6724, Note_on_c, 1, 32, 0
2, 7689, Note_on_c, 1, 38, 83
2, 7777, Note_on_c, 1, 39, 0
2, 8309, Note_on_c, 1, 38, 0
2, 8384, Note_on_c, 1, 33, 71
2, 8661, Note_on_c, 1, 33, 0
2, 8725, Note_on_c, 1, 27, 77
2, 9489, Note_on_c, 1, 27, 0
2, 9592, Note_on_c, 1, 24, 67
2, 10558, Note_on_c, 1, 24, 0
2, 10566, Note_on_c, 1, 25, 77
2, 11460, Note_on_c, 1, 25, 0
2, 11533, Note_on_c, 1, 26, 64
2, 12180, Note_on_c, 1, 25, 63
2, 12376, Note_on_c, 1, 25, 0
2, 12454, Note_on_c, 1, 33, 88
2, 12482, Note_on_c, 1, 26, 0
2, 13222, Note_on_c, 1, 26, 59
2, 13258, Note_on_c, 1, 33, 0
2, 13443, Note_on_c, 1, 26, 0
2, 13455, Note_on_c, 1, 40, 81
2, 14191, Note_on_c, 1, 31, 46
2, 14281, Note_on_c, 1, 40, 0
2, 14304, Note_on_c, 1, 31, 0
2, 14420, Note_on_c, 1, 43, 81
2, 15175, Note_on_c, 1, 31, 56
2, 15225, Note_on_c, 1, 43, 0
2, 15285, Note_on_c, 1, 31, 0
2, 15369, Note_on_c, 1, 43, 82
2, 16261, Note_on_c, 1, 43, 0
2, 16344, Note_on_c, 1, 38, 62
2, 16962, Note_on_c, 1, 38, 0
2, 17002, Note_on_c, 1, 30, 55
2, 17305, Note_on_c, 1, 30, 0
2, 17307, Note_on_c, 1, 31, 58
2, 18337, Note_on_c, 1, 37, 84
2, 18497, Note_on_c, 1, 31, 0
2, 19169, Note_on_c, 1, 37, 0
2, 19211, Note_on_c, 1, 38, 71
2, 20099, Note_on_c, 1, 38, 0
2, 20113, Note_on_c, 1, 30, 60
2, 21076, Note_on_c, 1, 30, 0
2, 21105, Note_on_c, 1, 31, 57
2, 21858, Note_on_c, 1, 30, 58
2, 22029, Note_on_c, 1, 31, 0
2, 22052, Note_on_c, 1, 50, 87
2, 22147, Note_on_c, 1, 30, 0
2, 23002, Note_on_c, 1, 50, 0
2, 23013, Note_on_c, 1, 48, 69
2, 23843, Note_on_c, 1, 48, 0
2, 23992, Note_on_c, 1, 47, 52
2, 24899, Note_on_c, 1, 47, 0
2, 24937, Note_on_c, 1, 45, 61
2, 25604, Note_on_c, 1, 38, 63
2, 25683, Note_on_c, 1, 45, 0
2, 25802, Note_on_c, 1, 38, 0
2, 25908, Note_on_c, 1, 39, 57
2, 26703, Note_on_c, 1, 39, 0
2, 26782, Note_on_c, 1, 40, 57
2, 27520, Note_on_c, 1, 40, 0
2, 27533, Note_on_c, 1, 37, 65
2, 27780, Note_on_c, 1, 37, 0
2, 27813, Note_on_c, 1, 38, 69
2, 28718, Note_on_c, 1, 38, 0
2, 28833, Note_on_c, 1, 31, 61
2, 29536, Note_on_c, 1, 31, 0
2, 29662, Note_on_c, 1, 35, 65
2, 30634, Note_on_c, 1, 35, 0
2, 30653, Note_on_c, 1, 36, 64
2, 31325, Note_on_c, 1, 45, 81
2, 31393, Note_on_c, 1, 36, 0
2, 31568, Note_on_c, 1, 45, 0
2, 31655, Note_on_c, 1, 43, 61
2, 32385, Note_on_c, 1, 35, 43
2, 32543, Note_on_c, 1, 35, 0
2, 32562, Note_on_c, 1, 43, 0
2, 32637, Note_on_c, 1, 40, 56
2, 33315, Note_on_c, 1, 31, 81
2, 33363, Note_on_c, 1, 40, 0
2, 33461, Note_on_c, 1, 31, 0
2, 33652, Note_on_c, 1, 28, 45
2, 34521, Note_on_c, 1, 28, 0
2, 34532, Note_on_c, 1, 29, 66
2, 35503, Note_on_c, 1, 30, 61
2, 35511, Note_on_c, 1, 29, 0
2, 36466, Note_on_c, 1, 30, 0
2, 36472, Note_on_c, 1, 31, 73
2, 37132, Note_on_c, 1, 30, 65
2, 37225, Note_on_c, 1, 31, 0
2, 37425, Note_on_c, 1, 39, 77
2, 37427, Note_on_c, 1, 30, 0
2, 38388, Note_on_c, 1, 39, 0
2, 38401, Note_on_c, 1, 38, 81
2, 39345, Note_on_c, 1, 51, 84
2, 39501, Note_on_c, 1, 38, 0
2, 40337, Note_on_c, 1, 51, 0
2, 40370, Note_on_c, 1, 50, 71
2, 41080, Note_on_c, 1, 42, 46
2, 41192, Note_on_c, 1, 50, 0
2, 41310, Note_on_c, 1, 48, 59
2, 41321, Note_on_c, 1, 42, 0
2, 42205, Note_on_c, 1, 48, 0
2, 42276, Note_on_c, 1, 46, 58
2, 43191, Note_on_c, 1, 45, 70
2, 43291, Note_on_c, 1, 46, 0
2, 43971, Note_on_c, 1, 38, 48
2, 44046, Note_on_c, 1, 45, 0
2, 44073, Note_on_c, 1, 38, 0
2, 44168, Note_on_c, 1, 43, 61
2, 44811, Note_on_c, 1, 38, 54
2, 44930, Note_on_c, 1, 38, 0
2, 44950, Note_on_c, 1, 43, 0
2, 45082, Note_on_c, 1, 42, 55
2, 46045, Note_on_c, 1, 42, 0
2, 46063, Note_on_c, 1, 43, 63
2, 46359, Note_on_c, 1, 43, 0
2, 46746, Note_on_c, 1, 38, 53
2, 46875, Note_on_c, 1, 38, 0
2, 47010, Note_on_c, 1, 30, 55
2, 47956, Note_on_c, 1, 30, 0
2, 48010, Note_on_c, 1, 31, 62
2, 48913, Note_on_c, 1, 33, 70
2, 48917, Note_on_c, 1, 31, 0
2, 49558, Note_on_c, 1, 33, 0
2, 49633, Note_on_c, 1, 34, 68
2, 49886, Note_on_c, 1, 34, 0
2, 49988, Note_on_c, 1, 35, 56
2, 50675, Note_on_c, 1, 33, 46
2, 50714, Note_on_c, 1, 35, 0
2, 50793, Note_on_c, 1, 33, 0
2, 50843, Note_on_c, 1, 40, 79
2, 51702, Note_on_c, 1, 40, 0
2, 51800, Note_on_c, 1, 38, 70
2, 52397, Note_on_c, 1, 38, 0
2, 52461, Note_on_c, 1, 34, 75
2, 52688, Note_on_c, 1, 34, 0
2, 52765, Note_on_c, 1, 35, 62
2, 53339, Note_on_c, 1, 35, 0
2, 53406, Note_on_c, 1, 36, 84
2, 54032, Note_on_c, 1, 36, 0
2, 54048, Note_on_c, 1, 31, 75
2, 54196, Note_on_c, 1, 31, 0
2, 54381, Note_on_c, 1, 27, 84
2, 54604, Note_on_c, 1, 27, 0
2, 54727, Note_on_c, 1, 28, 73
2, 55644, Note_on_c, 1, 28, 0
2, 55658, Note_on_c, 1, 29, 72
2, 56621, Note_on_c, 1, 30, 74
2, 56636, Note_on_c, 1, 29, 0
2, 57589, Note_on_c, 1, 31, 81
2, 57591, Note_on_c, 1, 30, 0
2, 58498, Note_on_c, 1, 31, 0
2, 58523, Note_on_c, 1, 32, 64
2, 59521, Note_on_c, 1, 33, 70
2, 59552, Note_on_c, 1, 32, 0
2, 60083, Note_on_c, 1, 33, 0
2, 60184, Note_on_c, 1, 28, 79
2, 61422, Note_on_c, 1, 29, 72
2, 61424, Note_on_c, 1, 28, 0
2, 62422, Note_on_c, 1, 33, 64
2, 62424, Note_on_c, 1, 29, 0
2, 63209, Note_on_c, 1, 29, 46
2, 63238, Note_on_c, 1, 33, 0
2, 63359, Note_on_c, 1, 29, 0
2, 63388, Note_on_c, 1, 40, 70
2, 64238, Note_on_c, 1, 40, 0
2, 64345, Note_on_c, 1, 35, 71
2, 64367, Note_on_c, 1, 36, 42
2, 64436, Note_on_c, 1, 36, 0
2, 65153, Note_on_c, 1, 35, 0
2, 65251, Note_on_c, 1, 34, 68
2, 66056, Note_on_c, 1, 32, 38
2, 66254, Note_on_c, 1, 46, 84
2, 66287, Note_on_c, 1, 32, 0
2, 66324, Note_on_c, 1, 34, 0
2, 66830, Note_on_c, 1, 34, 57
2, 67086, Note_on_c, 1, 34, 0
2, 67188, Note_on_c, 1, 46, 0
2, 67244, Note_on_c, 1, 41, 38
2, 68090, Note_on_c, 1, 41, 0
2, 68101, Note_on_c, 1, 35, 73
2, 68825, Note_on_c, 1, 34, 44
2, 69087, Note_on_c, 1, 34, 0
2, 69093, Note_on_c, 1, 35, 0
2, 69099, Note_on_c, 1, 36, 62
2, 69752, Note_on_c, 1, 34, 44
2, 70012, Note_on_c, 1, 36, 0
2, 70023, Note_on_c, 1, 38, 46
2, 70048, Note_on_c, 1, 34, 0
2, 70793, Note_on_c, 1, 35, 43
2, 70957, Note_on_c, 1, 38, 0
2, 71003, Note_on_c, 1, 39, 57
2, 71005, Note_on_c, 1, 35, 0
2, 71637, Note_on_c, 1, 40, 69
2, 71649, Note_on_c, 1, 39, 0
2, 71814, Note_on_c, 1, 40, 0
2, 71945, Note_on_c, 1, 34, 77
2, 72854, Note_on_c, 1, 34, 0
2, 72885, Note_on_c, 1, 33, 52
2, 73557, Note_on_c, 1, 32, 51
2, 73684, Note_on_c, 1, 33, 0
2, 73829, Note_on_c, 1, 45, 87
2, 73842, Note_on_c, 1, 32, 0
2, 74838, Note_on_c, 1, 36, 61
2, 74990, Note_on_c, 1, 45, 0
2, 75701, Note_on_c, 1, 36, 0
2, 75751, Note_on_c, 1, 37, 64
2, 76743, Note_on_c, 1, 37, 0
2, 76764, Note_on_c, 1, 38, 73
2, 77588, Note_on_c, 1, 37, 38
2, 77713, Note_on_c, 1, 45, 87
2, 77752, Note_on_c, 1, 38, 0
2, 77771, Note_on_c, 1, 37, 0
2, 78694, Note_on_c, 1, 45, 0
2, 78713, Note_on_c, 1, 41, 60
2, 79443, Note_on_c, 1, 38, 43
2, 79612, Note_on_c, 1, 38, 0
2, 79632, Note_on_c, 1, 41, 0
2, 79689, Note_on_c, 1, 44, 80
2, 80664, Note_on_c, 1, 36, 57
2, 80758, Note_on_c, 1, 44, 0
2, 81506, Note_on_c, 1, 36, 0
2, 81606, Note_on_c, 1, 32, 64
2, 82472, Note_on_c, 1, 32, 0
2, 82553, Note_on_c, 1, 31, 53
2, 83349, Note_on_c, 1, 31, 0
2, 83487, Note_on_c, 1, 35, 62
2, 84192, Note_on_c, 1, 34, 46
2, 84296, Note_on_c, 1, 34, 0
2, 84427, Note_on_c, 1, 35, 0
2, 84456, Note_on_c, 1, 40, 73
2, 85346, Note_on_c, 1, 40, 0
2, 85392, Note_on_c, 1, 28, 57
2, 86376, Note_on_c, 1, 39, 78
2, 86378, Note_on_c, 1, 28, 0
2, 87162, Note_on_c, 1, 39, 0
2, 87312, Note_on_c, 1, 39, 75
2, 88277, Note_on_c, 1, 38, 79
2, 88356, Note_on_c, 1, 39, 0
2, 89180, Note_on_c, 1, 38, 0
2, 89238, Note_on_c, 1, 30, 72
2, 90143, Note_on_c, 1, 30, 0
2, 90172, Note_on_c, 1, 31, 74
2, 90754, Note_on_c, 1, 31, 0
2, 90844, Note_on_c, 1, 33, 70
2, 91139, Note_on_c, 1, 34, 74
2, 91168, Note_on_c, 1, 33, 0
2, 92011, Note_on_c, 1, 34, 0
2, 92063, Note_on_c, 1, 36, 69
2, 93034, Note_on_c, 1, 36, 0
2, 93096, Note_on_c, 1, 38, 88
2, 93964, Note_on_c, 1, 38, 0
2, 94078, Note_on_c, 1, 40, 70
2, 94916, Note_on_c, 1, 40, 0
2, 94979, Note_on_c, 1, 36, 77
2, 95954, Note_on_c, 1, 31, 70
2, 95960, Note_on_c, 1, 36, 0
2, 96996, Note_on_c, 1, 44, 71
2, 97011, Note_on_c, 1, 31, 0
2, 97525, Note_on_c, 1, 44, 0
2, 97577, Note_on_c, 1, 35, 39
2, 97706, Note_on_c, 1, 35, 0
2, 97905, Note_on_c, 1, 43, 69
2, 98822, Note_on_c, 1, 37, 64
2, 98885, Note_on_c, 1, 43, 0
2, 99817, Note_on_c, 1, 38, 69
2, 99850, Note_on_c, 1, 37, 0
2, 100572, Note_on_c, 1, 37, 50
2, 100755, Note_on_c, 1, 38, 0
2, 100796, Note_on_c, 1, 51, 77
2, 100838, Note_on_c, 1, 37, 0
2, 101691, Note_on_c, 1, 51, 0
2, 101743, Note_on_c, 1, 50, 66
2, 102544, Note_on_c, 1, 50, 0
2, 102731, Note_on_c, 1, 48, 56
2, 103683, Note_on_c, 1, 45, 62
2, 103842, Note_on_c, 1, 48, 0
2, 104515, Note_on_c, 1, 45, 0
2, 104594, Note_on_c, 1, 38, 70
2, 105460, Note_on_c, 1, 38, 0
2, 105537, Note_on_c, 1, 33, 60
2, 106383, Note_on_c, 1, 33, 0
2, 106471, Note_on_c, 1, 30, 64
2, 107457, Note_on_c, 1, 30, 0
2, 107490, Note_on_c, 1, 31, 71
2, 108020, Note_on_c, 1, 31, 0
2, 108183, Note_on_c, 1, 31, 71
2, 108665, Note_on_c, 1, 33, 90
2, 108707, Note_on_c, 1, 31, 0
2, 109428, Note_on_c, 1, 33, 0
2, 109435, Note_on_c, 1, 34, 77
2, 110329, Note_on_c, 1, 35, 68
2, 110331, Note_on_c, 1, 34, 0
2, 111076, Note_on_c, 1, 33, 45
2, 111217, Note_on_c, 1, 35, 0
2, 111313, Note_on_c, 1, 38, 73
2, 111344, Note_on_c, 1, 33, 0
2, 112168, Note_on_c, 1, 38, 0
2, 112280, Note_on_c, 1, 35, 61
2, 113127, Note_on_c, 1, 35, 0
2, 113195, Note_on_c, 1, 30, 65
2, 113849, Note_on_c, 1, 30, 0
2, 113874, Note_on_c, 1, 31, 81
2, 114040, Note_on_c, 1, 31, 0
2, 114190, Note_on_c, 1, 38, 84
2, 114880, Note_on_c, 1, 31, 41
2, 114986, Note_on_c, 1, 31, 0
2, 114997, Note_on_c, 1, 38, 0
2, 115157, Note_on_c, 1, 36, 65
2, 115930, Note_on_c, 1, 36, 0
2, 116080, Note_on_c, 1, 28, 64
2, 117006, Note_on_c, 1, 28, 0
2, 117041, Note_on_c, 1, 29, 58
2, 117996, Note_on_c, 1, 29, 0
2, 118008, Note_on_c, 1, 30, 69
2, 118936, Note_on_c, 1, 30, 0
2, 118988, Note_on_c, 1, 31, 67
2, 119868, Note_on_c, 1, 32, 72
2, 119870, Note_on_c, 1, 31, 0
2, 120844, Note_on_c, 1, 33, 63
2, 120846, Note_on_c, 1, 32, 0
2, 121463, Note_on_c, 1, 34, 70
2, 121538, Note_on_c, 1, 33, 0
2, 121690, Note_on_c, 1, 34, 0
2, 121769, Note_on_c, 1, 35, 64
2, 122437, Note_on_c, 1, 34, 34
2, 122666, Note_on_c, 1, 34, 0
2, 122697, Note_on_c, 1, 35, 0
2, 122728, Note_on_c, 1, 36, 80
2, 123641, Note_on_c, 1, 36, 0
2, 123679, Note_on_c, 1, 45, 88
2, 124406, Note_on_c, 1, 35, 43
2, 124575, Note_on_c, 1, 35, 0
2, 124652, Note_on_c, 1, 45, 0
2, 124712, Note_on_c, 1, 43, 62
2, 125544, Note_on_c, 1, 43, 0
2, 125615, Note_on_c, 1, 40, 67
2, 126618, Note_on_c, 1, 31, 63
2, 126632, Note_on_c, 1, 40, 0
2, 127325, Note_on_c, 1, 33, 49
2, 127481, Note_on_c, 1, 33, 0
2, 127566, Note_on_c, 1, 31, 0
2, 127608, Note_on_c, 1, 38, 67
2, 128302, Note_on_c, 1, 31, 45
2, 128450, Note_on_c, 1, 31, 0
2, 128546, Note_on_c, 1, 38, 0
2, 128594, Note_on_c, 1, 36, 66
2, 129428, Note_on_c, 1, 36, 0
2, 129557, Note_on_c, 1, 37, 77
2, 130437, Note_on_c, 1, 37, 0
2, 130518, Note_on_c, 1, 38, 67
2, 131439, Note_on_c, 1, 38, 0
2, 131441, Note_on_c, 1, 33, 64
2, 132286, Note_on_c, 1, 38, 38
2, 132377, Note_on_c, 1, 33, 0
2, 132438, Note_on_c, 1, 38, 0
2, 132473, Note_on_c, 1, 50, 88
2, 133147, Note_on_c, 1, 33, 47
2, 133303, Note_on_c, 1, 50, 0
2, 133384, Note_on_c, 1, 33, 0
2, 133421, Note_on_c, 1, 49, 74
2, 134291, Note_on_c, 1, 49, 0
2, 134384, Note_on_c, 1, 48, 70
2, 135206, Note_on_c, 1, 48, 0
2, 135327, Note_on_c, 1, 45, 73
2, 136019, Note_on_c, 1, 33, 38
2, 136146, Note_on_c, 1, 33, 0
2, 136242, Note_on_c, 1, 45, 0
2, 136311, Note_on_c, 1, 42, 66
2, 136837, Note_on_c, 1, 42, 0
2, 136910, Note_on_c, 1, 41, 71
2, 137047, Note_on_c, 1, 41, 0
2, 137236, Note_on_c, 1, 33, 73
2, 137833, Note_on_c, 1, 33, 0
2, 137870, Note_on_c, 1, 32, 76
2, 138120, Note_on_c, 1, 32, 0
2, 138207, Note_on_c, 1, 31, 54
2, 138842, Note_on_c, 1, 30, 59
2, 138958, Note_on_c, 1, 31, 0
2, 139102, Note_on_c, 1, 30, 0
2, 139118, Note_on_c, 1, 43, 96
2, 140111, Note_on_c, 1, 41, 64
2, 140208, Note_on_c, 1, 43, 0
2, 140747, Note_on_c, 1, 30, 62
2, 140822, Note_on_c, 1, 41, 0
2, 141034, Note_on_c, 1, 30, 0
2, 141067, Note_on_c, 1, 31, 72
2, 141866, Note_on_c, 1, 30, 45
2, 142005, Note_on_c, 1, 31, 0
2, 142043, Note_on_c, 1, 43, 91
2, 142124, Note_on_c, 1, 30, 0
2, 142673, Note_on_c, 1, 30, 46
2, 142881, Note_on_c, 1, 43, 0
2, 142891, Note_on_c, 1, 30, 0
2, 142993, Note_on_c, 1, 42, 69
2, 143613, Note_on_c, 1, 30, 40
2, 143809, Note_on_c, 1, 30, 0
2, 143859, Note_on_c, 1, 42, 0
2, 143940, Note_on_c, 1, 43, 80
2, 144851, Note_on_c, 1, 43, 0
2, 144859, Note_on_c, 1, 31, 66
2, 145523, Note_on_c, 1, 31, 0
2, 145554, Note_on_c, 1, 35, 56
2, 145824, Note_on_c, 1, 35, 0
2, 145918, Note_on_c, 1, 36, 61
2, 146571, Note_on_c, 1, 33, 67
2, 146609, Note_on_c, 1, 36, 0
2, 146648, Note_on_c, 1, 33, 0
2, 146837, Note_on_c, 1, 28, 51
2, 147759, Note_on_c, 1, 28, 0
2, 147775, Note_on_c, 1, 29, 73
2, 148705, Note_on_c, 1, 29, 0
2, 148778, Note_on_c, 1, 30, 73
2, 149645, Note_on_c, 1, 30, 0
2, 149708, Note_on_c, 1, 31, 70
2, 150407, Note_on_c, 1, 30, 48
2, 150525, Note_on_c, 1, 31, 0
2, 150621, Note_on_c, 1, 38, 73
2, 150719, Note_on_c, 1, 30, 0
2, 151465, Note_on_c, 1, 31, 32
2, 151536, Note_on_c, 1, 31, 0
2, 151565, Note_on_c, 1, 38, 0
2, 151626, Note_on_c, 1, 43, 80
2, 152609, Note_on_c, 1, 43, 0
2, 152624, Note_on_c, 1, 31, 68
2, 153506, Note_on_c, 1, 31, 0
2, 153537, Note_on_c, 1, 36, 70
2, 154263, Note_on_c, 1, 32, 42
2, 154502, Note_on_c, 1, 45, 86
2, 154506, Note_on_c, 1, 36, 0
2, 154585, Note_on_c, 1, 32, 0
2, 155388, Note_on_c, 1, 45, 0
2, 155474, Note_on_c, 1, 43, 63
2, 156193, Note_on_c, 1, 38, 57
2, 156349, Note_on_c, 1, 38, 0
2, 156355, Note_on_c, 1, 43, 0
2, 156432, Note_on_c, 1, 50, 78
2, 157318, Note_on_c, 1, 50, 0
2, 157408, Note_on_c, 1, 48, 57
2, 158290, Note_on_c, 1, 48, 0
2, 158352, Note_on_c, 1, 43, 67
2, 159192, Note_on_c, 1, 43, 0
2, 159324, Note_on_c, 1, 40, 45
2, 160243, Note_on_c, 1, 37, 69
2, 160245, Note_on_c, 1, 40, 0
2, 161208, Note_on_c, 1, 37, 0
2, 161256, Note_on_c, 1, 38, 67
2, 162140, Note_on_c, 1, 38, 0
2, 162231, Note_on_c, 1, 26, 62
2, 163049, Note_on_c, 1, 26, 0
2, 163155, Note_on_c, 1, 30, 58
2, 164160, Note_on_c, 1, 42, 82
2, 164274, Note_on_c, 1, 30, 0
2, 165046, Note_on_c, 1, 42, 0
2, 165114, Note_on_c, 1, 45, 67
2, 165913, Note_on_c, 1, 45, 0
2, 166053, Note_on_c, 1, 42, 53
2, 166637, Note_on_c, 1, 33, 52
2, 166907, Note_on_c, 1, 33, 0
2, 166972, Note_on_c, 1, 38, 57
2, 167922, Note_on_c, 1, 42, 0
2, 167939, Note_on_c, 1, 38, 0
2, 167943, Note_on_c, 1, 32, 63
2, 168821, Note_on_c, 1, 32, 0
2, 168987, Note_on_c, 1, 31, 56
2, 169903, Note_on_c, 1, 38, 48
2, 169919, Note_on_c, 1, 40, 42
2, 170032, Note_on_c, 1, 40, 0
2, 170034, Note_on_c, 1, 31, 0
2, 170618, Note_on_c, 1, 31, 59
2, 170797, Note_on_c, 1, 38, 0
2, 170826, Note_on_c, 1, 31, 0
2, 170913, Note_on_c, 1, 37, 66
2, 171643, Note_on_c, 1, 37, 0
2, 171856, Note_on_c, 1, 37, 65
2, 172712, Note_on_c, 1, 37, 0
2, 172804, Note_on_c, 1, 38, 69
2, 173661, Note_on_c, 1, 38, 0
2, 173779, Note_on_c, 1, 32, 68
2, 174591, Note_on_c, 1, 32, 0
2, 174655, Note_on_c, 1, 31, 72
2, 175614, Note_on_c, 1, 35, 77
2, 175637, Note_on_c, 1, 31, 0
2, 176515, Note_on_c, 1, 35, 0
2, 176567, Note_on_c, 1, 36, 71
2, 177201, Note_on_c, 1, 36, 0
2, 177301, Note_on_c, 1, 36, 88
2, 177495, Note_on_c, 1, 36, 0
2, 177630, Note_on_c, 1, 38, 79
2, 178433, Note_on_c, 1, 38, 0
2, 178549, Note_on_c, 1, 40, 71
2, 179179, Note_on_c, 1, 35, 49
2, 179302, Note_on_c, 1, 35, 0
2, 179402, Note_on_c, 1, 40, 0
2, 179479, Note_on_c, 1, 36, 77
2, 180140, Note_on_c, 1, 34, 46
2, 180309, Note_on_c, 1, 36, 0
2, 180363, Note_on_c, 1, 46, 80
2, 180382, Note_on_c, 1, 34, 0
2, 181255, Note_on_c, 1, 46, 0
2, 181374, Note_on_c, 1, 45, 67
2, 182179, Note_on_c, 1, 45, 0
2, 182285, Note_on_c, 1, 43, 73
2, 183271, Note_on_c, 1, 42, 70
2, 183331, Note_on_c, 1, 43, 0
2, 184196, Note_on_c, 1, 42, 0
2, 184309, Note_on_c, 1, 41, 59
2, 184949, Note_on_c, 1, 36, 72
2, 184968, Note_on_c, 1, 41, 0
2, 185143, Note_on_c, 1, 36, 0
2, 185261, Note_on_c, 1, 33, 67
2, 186112, Note_on_c, 1, 33, 0
2, 186201, Note_on_c, 1, 36, 69
2, 187096, Note_on_c, 1, 36, 0
2, 187139, Note_on_c, 1, 35, 67
2, 188028, Note_on_c, 1, 35, 0
2, 188065, Note_on_c, 1, 34, 66
2, 188768, Note_on_c, 1, 38, 66
2, 188953, Note_on_c, 1, 38, 0
2, 189034, Note_on_c, 1, 34, 0
2, 189045, Note_on_c, 1, 43, 92
2, 189947, Note_on_c, 1, 43, 0
2, 190047, Note_on_c, 1, 41, 60
2, 190673, Note_on_c, 1, 34, 67
2, 190709, Note_on_c, 1, 41, 0
2, 190861, Note_on_c, 1, 34, 0
2, 190929, Note_on_c, 1, 35, 67
2, 191659, Note_on_c, 1, 34, 38
2, 191786, Note_on_c, 1, 34, 0
2, 191838, Note_on_c, 1, 35, 0
2, 191857, Note_on_c, 1, 36, 73
2, 192585, Note_on_c, 1, 34, 48
2, 192645, Note_on_c, 1, 36, 0
2, 192830, Note_on_c, 1, 34, 0
2, 192868, Note_on_c, 1, 38, 64
2, 193571, Note_on_c, 1, 35, 44
2, 193789, Note_on_c, 1, 35, 0
2, 193837, Note_on_c, 1, 38, 0
2, 193860, Note_on_c, 1, 40, 64
2, 194754, Note_on_c, 1, 40, 0
2, 194781, Note_on_c, 1, 35, 78
2, 195711, Note_on_c, 1, 35, 0
2, 195794, Note_on_c, 1, 36, 69
2, 196693, Note_on_c, 1, 36, 0
2, 196732, Note_on_c, 1, 37, 80
2, 197681, Note_on_c, 1, 37, 0
2, 197731, Note_on_c, 1, 40, 68
2, 198627, Note_on_c, 1, 40, 0
2, 198683, Note_on_c, 1, 39, 68
2, 199611, Note_on_c, 1, 39, 0
2, 199638, Note_on_c, 1, 38, 73
2, 200395, Note_on_c, 1, 37, 46
2, 200504, Note_on_c, 1, 38, 0
2, 200603, Note_on_c, 1, 45, 96
2, 200643, Note_on_c, 1, 37, 0
2, 201614, Note_on_c, 1, 45, 0
2, 201643, Note_on_c, 1, 41, 69
2, 202342, Note_on_c, 1, 38, 59
2, 202469, Note_on_c, 1, 38, 0
2, 202500, Note_on_c, 1, 41, 0
2, 202596, Note_on_c, 1, 44, 92
2, 203524, Note_on_c, 1, 41, 69
2, 204275, Note_on_c, 1, 41, 0
2, 204385, Note_on_c, 1, 38, 71
2, 205379, Note_on_c, 1, 38, 0
2, 205389, Note_on_c, 1, 32, 66
2, 206234, Note_on_c, 1, 44, 0
2, 206263, Note_on_c, 1, 32, 0
2, 206355, Note_on_c, 1, 31, 63
2, 207001, Note_on_c, 1, 35, 55
2, 207041, Note_on_c, 1, 31, 0
2, 207245, Note_on_c, 1, 35, 0
2, 207297, Note_on_c, 1, 40, 78
2, 208073, Note_on_c, 1, 40, 0
2, 208270, Note_on_c, 1, 40, 69
2, 209108, Note_on_c, 1, 40, 0
2, 209233, Note_on_c, 1, 39, 70
2, 210127, Note_on_c, 1, 39, 0
2, 210219, Note_on_c, 1, 45, 75
2, 211099, Note_on_c, 1, 45, 0
2, 211217, Note_on_c, 1, 38, 59
2, 212014, Note_on_c, 1, 38, 0
2, 212131, Note_on_c, 1, 44, 88
2, 212846, Note_on_c, 1, 34, 38
2, 212938, Note_on_c, 1, 34, 0
2, 212996, Note_on_c, 1, 44, 0
2, 213169, Note_on_c, 1, 43, 63
2, 214053, Note_on_c, 1, 43, 0
2, 214113, Note_on_c, 1, 35, 66
2, 215047, Note_on_c, 1, 35, 0
2, 215095, Note_on_c, 1, 36, 68
2, 215773, Note_on_c, 1, 35, 59
2, 216020, Note_on_c, 1, 50, 86
2, 216076, Note_on_c, 1, 36, 0
2, 216081, Note_on_c, 1, 35, 0
2, 216860, Note_on_c, 1, 50, 0
2, 217012, Note_on_c, 1, 48, 47
2, 217890, Note_on_c, 1, 35, 56
2, 217901, Note_on_c, 1, 48, 0
2, 218899, Note_on_c, 1, 36, 66
2, 218909, Note_on_c, 1, 35, 0
2, 219679, Note_on_c, 1, 35, 49
2, 219714, Note_on_c, 1, 36, 0
2, 219785, Note_on_c, 1, 41, 77
2, 219908, Note_on_c, 1, 35, 0
2, 220694, Note_on_c, 1, 41, 0
2, 220813, Note_on_c, 1, 40, 50
2, 221634, Note_on_c, 1, 40, 0
2, 221690, Note_on_c, 1, 37, 66
2, 222687, Note_on_c, 1, 37, 0
2, 222707, Note_on_c, 1, 38, 65
2, 223356, Note_on_c, 1, 37, 50
2, 223537, Note_on_c, 1, 38, 0
2, 223635, Note_on_c, 1, 43, 83
2, 223679, Note_on_c, 1, 37, 0
2, 224326, Note_on_c, 1, 37, 43
2, 224415, Note_on_c, 1, 37, 0
2, 224480, Note_on_c, 1, 43, 0
2, 224611, Note_on_c, 1, 42, 66
2, 225557, Note_on_c, 1, 37, 68
2, 225592, Note_on_c, 1, 42, 0
2, 226541, Note_on_c, 1, 37, 0
2, 226570, Note_on_c, 1, 38, 73
2, 227234, Note_on_c, 1, 37, 50
2, 227385, Note_on_c, 1, 38, 0
2, 227487, Note_on_c, 1, 47, 88
2, 227529, Note_on_c, 1, 37, 0
2, 228384, Note_on_c, 1, 47, 0
2, 228500, Note_on_c, 1, 45, 75
2, 229197, Note_on_c, 1, 45, 0
2, 229424, Note_on_c, 1, 44, 87
2, 230318, Note_on_c, 1, 44, 0
2, 230412, Note_on_c, 1, 43, 69
2, 231298, Note_on_c, 1, 43, 0
2, 231315, Note_on_c, 1, 31, 60
2, 232249, Note_on_c, 1, 31, 0
2, 232274, Note_on_c, 1, 37, 68
2, 233122, Note_on_c, 1, 37, 0
2, 233266, Note_on_c, 1, 37, 76
2, 234164, Note_on_c, 1, 37, 0
2, 234220, Note_on_c, 1, 38, 67
2, 234959, Note_on_c, 1, 37, 53
2, 235017, Note_on_c, 1, 38, 0
2, 235129, Note_on_c, 1, 37, 0
2, 235150, Note_on_c, 1, 45, 84
2, 236049, Note_on_c, 1, 45, 0
2, 236153, Note_on_c, 1, 43, 75
2, 236797, Note_on_c, 1, 43, 0
2, 236829, Note_on_c, 1, 38, 81
2, 237018, Note_on_c, 1, 38, 0
2, 237116, Note_on_c, 1, 35, 70
2, 238031, Note_on_c, 1, 35, 0
2, 238079, Note_on_c, 1, 36, 72
2, 238468, Note_on_c, 1, 36, 0
2, 238634, Note_on_c, 1, 36, 76
2, 238850, Note_on_c, 1, 36, 0
2, 238896, Note_on_c, 1, 28, 70
2, 239849, Note_on_c, 1, 28, 0
2, 239915, Note_on_c, 1, 29, 70
2, 240882, Note_on_c, 1, 29, 0
2, 240891, Note_on_c, 1, 30, 73
2, 241810, Note_on_c, 1, 30, 0
2, 241868, Note_on_c, 1, 31, 68
2, 242443, Note_on_c, 1, 31, 0
2, 242509, Note_on_c, 1, 33, 56
2, 242788, Note_on_c, 1, 33, 0
2, 242832, Note_on_c, 1, 35, 57
2, 243460, Note_on_c, 1, 35, 0
2, 243470, Note_on_c, 1, 36, 75
2, 247526, Note_on_c, 1, 36, 0
2, 247526, End_track
3, 0, Start_track
3, 0, Title_t, "MIDI 2"
3, 0, Program_c, 0, 0
3, 0, Control_c, 0, 7, 104
3, 83, Note_on_c, 0, 62, 46
3, 116, Note_on_c, 0, 57, 43
3, 149, Note_on_c, 0, 55, 34
3, 164, Note_on_c, 0, 52, 29
3, 349, Note_on_c, 0, 62, 0
3, 378, Note_on_c, 0, 55, 0
3, 391, Note_on_c, 0, 57, 0
3, 397, Note_on_c, 0, 52, 0
3, 1696, Note_on_c, 0, 57, 40
3, 1700, Note_on_c, 0, 62, 28
3, 1725, Note_on_c, 0, 55, 31
3, 1779, Note_on_c, 0, 62, 0
3, 1813, Note_on_c, 0, 57, 0
3, 1838, Note_on_c, 0, 55, 0
3, 1954, Note_on_c, 0, 76, 96
3, 3560, Note_on_c, 0, 71, 60
3, 3587, Note_on_c, 0, 57, 57
3, 3589, Note_on_c, 0, 76, 0
3, 3591, Note_on_c, 0, 55, 58
3, 3676, Note_on_c, 0, 57, 0
3, 3718, Note_on_c, 0, 55, 0
3, 3731, Note_on_c, 0, 71, 0
3, 3903, Note_on_c, 0, 74, 94
3, 4562, Note_on_c, 0, 74, 0
3, 4621, Note_on_c, 0, 71, 36
3, 4725, Note_on_c, 0, 71, 0
3, 4818, Note_on_c, 0, 72, 78
3, 5613, Note_on_c, 0, 72, 0
3, 5742, Note_on_c, 0, 69, 56
3, 6278, Note_on_c, 0, 69, 0
3, 6418, Note_on_c, 0, 69, 53
3, 6509, Note_on_c, 0, 69, 0
3, 7624, Note_on_c, 0, 54, 44
3, 7637, Note_on_c, 0, 60, 53
3, 7643, Note_on_c, 0, 64, 37
3, 7739, Note_on_c, 0, 64, 0
3, 7757, Note_on_c, 0, 60, 0
3, 7782, Note_on_c, 0, 54, 0
3, 8635, Note_on_c, 0, 75, 90
3, 8639, Note_on_c, 0, 87, 83
3, 9186, Note_on_c, 0, 87, 0
3, 9238, Note_on_c, 0, 75, 0
3, 9579, Note_on_c, 0, 64, 34
3, 9586, Note_on_c, 0, 54, 35
3, 9590, Note_on_c, 0, 60, 39
3, 9621, Note_on_c, 0, 76, 75
3, 9629, Note_on_c, 0, 88, 67
3, 9933, Note_on_c, 0, 54, 0
3, 10151, Note_on_c, 0, 88, 0
3, 10158, Note_on_c, 0, 64, 0
3, 10253, Note_on_c, 0, 76, 0
3, 10280, Note_on_c, 0, 84, 55
3, 10488, Note_on_c, 0, 84, 0
3, 10513, Note_on_c, 0, 60, 0
3, 10615, Note_on_c, 0, 81, 28
3, 11118, Note_on_c, 0, 81, 0
3, 11198, Note_on_c, 0, 76, 56
3, 11262, Note_on_c, 0, 60, 44
3, 11293, Note_on_c, 0, 64, 30
3, 11300, Note_on_c, 0, 54, 32
3, 11431, Note_on_c, 0, 64, 0
3, 11435, Note_on_c, 0, 76, 0
3, 11487, Note_on_c, 0, 54, 0
3, 11528, Note_on_c, 0, 60, 0
3, 11634, Note_on_c, 0, 72, 29
3, 12034, Note_on_c, 0, 72, 0
3, 12244, Note_on_c, 0, 72, 32
3, 12325, Note_on_c, 0, 72, 0
3, 13413, Note_on_c, 0, 60, 53
3, 13429, Note_on_c, 0, 64, 41
3, 13448, Note_on_c, 0, 54, 32
3, 13540, Note_on_c, 0, 64, 0
3, 13594, Note_on_c, 0, 60, 0
3, 13621, Note_on_c, 0, 54, 0
3, 14361, Note_on_c, 0, 81, 71
3, 14386, Note_on_c, 0, 79, 66
3, 14436, Note_on_c, 0, 82, 74
3, 14457, Note_on_c, 0, 79, 0
3, 14534, Note_on_c, 0, 81, 0
3, 14648, Note_on_c, 0, 83, 74
3, 14675, Note_on_c, 0, 82, 0
3, 14979, Note_on_c, 0, 83, 0
3, 15029, Note_on_c, 0, 86, 87
3, 15120, Note_on_c, 0, 64, 40
3, 15129, Note_on_c, 0, 59, 44
3, 15191, Note_on_c, 0, 53, 32
3, 15343, Note_on_c, 0, 86, 0
3, 15719, Note_on_c, 0, 81, 61
3, 15757, Note_on_c, 0, 86, 56
3, 15790, Note_on_c, 0, 82, 60
3, 15798, Note_on_c, 0, 59, 0
3, 15978, Note_on_c, 0, 83, 51
3, 16000, Note_on_c, 0, 81, 0
3, 16025, Note_on_c, 0, 82, 0
3, 16208, Note_on_c, 0, 64, 0
3, 16241, Note_on_c, 0, 86, 0
3, 16279, Note_on_c, 0, 83, 0
3, 16385, Note_on_c, 0, 79, 48
3, 16489, Note_on_c, 0, 53, 0
3, 16888, Note_on_c, 0, 79, 0
3, 16972, Note_on_c, 0, 86, 74
3, 16986, Note_on_c, 0, 81, 66
3, 17292, Note_on_c, 0, 81, 0
3, 17319, Note_on_c, 0, 86, 0
3, 17388, Note_on_c, 0, 76, 42
3, 17827, Note_on_c, 0, 76, 0
3, 17939, Note_on_c, 0, 79, 59
3, 17987, Note_on_c, 0, 61, 38
3, 17989, Note_on_c, 0, 64, 40
3, 18009, Note_on_c, 0, 58, 40
3, 18093, Note_on_c, 0, 79, 0
3, 18162, Note_on_c, 0, 64, 0
3, 18278, Note_on_c, 0, 58, 0
3, 18320, Note_on_c, 0, 61, 0
3, 19189, Note_on_c, 0, 64, 36
3, 19199, Note_on_c, 0, 60, 36
3, 19245, Note_on_c, 0, 57, 35
3, 19253, Note_on_c, 0, 53, 22
3, 19501, Note_on_c, 0, 60, 0
3, 19582, Note_on_c, 0, 64, 0
3, 19588, Note_on_c, 0, 53, 0
3, 19595, Note_on_c, 0, 57, 0
3, 20196, Note_on_c, 0, 79, 31
3, 20293, Note_on_c, 0, 79, 0
3, 20499, Note_on_c, 0, 84, 40
3, 20622, Note_on_c, 0, 84, 0
3, 20822, Note_on_c, 0, 88, 92
3, 20839, Note_on_c, 0, 64, 59
3, 20864, Note_on_c, 0, 59, 47
3, 20916, Note_on_c, 0, 53, 37
3, 21055, Note_on_c, 0, 88, 0
3, 21175, Note_on_c, 0, 89, 79
3, 21421, Note_on_c, 0, 59, 0
3, 21427, Note_on_c, 0, 64, 0
3, 21485, Note_on_c, 0, 88, 74
3, 21487, Note_on_c, 0, 89, 0
3, 21494, Note_on_c, 0, 53, 0
3, 21754, Note_on_c, 0, 88, 0
3, 21804, Note_on_c, 0, 84, 71
3, 21831, Note_on_c, 0, 64, 34
3, 21845, Note_on_c, 0, 59, 31
3, 21905, Note_on_c, 0, 53, 22
3, 21964, Note_on_c, 0, 84, 0
3, 22039, Note_on_c, 0, 64, 0
3, 22051, Note_on_c, 0, 59, 0
3, 22116, Note_on_c, 0, 79, 20
3, 22180, Note_on_c, 0, 53, 0
3, 22205, Note_on_c, 0, 79, 0
3, 22388, Note_on_c, 0, 77, 48
3, 22634, Note_on_c, 0, 77, 0
3, 22694, Note_on_c, 0, 72, 47
3, 22796, Note_on_c, 0, 57, 37
3, 22800, Note_on_c, 0, 62, 45
3, 22866, Note_on_c, 0, 72, 0
3, 22919, Note_on_c, 0, 52, 24
3, 22981, Note_on_c, 0, 62, 0
3, 23006, Note_on_c, 0, 75, 56
3, 23031, Note_on_c, 0, 57, 0
3, 23045, Note_on_c, 0, 52, 0
3, 23224, Note_on_c, 0, 75, 0
3, 23360, Note_on_c, 0, 79, 43
3, 23378, Note_on_c, 0, 76, 58
3, 23459, Note_on_c, 0, 79, 0
3, 23495, Note_on_c, 0, 76, 0
3, 23674, Note_on_c, 0, 77, 85
3, 23690, Note_on_c, 0, 81, 76
3, 23765, Note_on_c, 0, 62, 31
3, 23792, Note_on_c, 0, 57, 34
3, 23855, Note_on_c, 0, 81, 0
3, 23861, Note_on_c, 0, 77, 0
3, 23907, Note_on_c, 0, 62, 0
3, 23915, Note_on_c, 0, 57, 0
3, 24046, Note_on_c, 0, 75, 75
3, 24063, Note_on_c, 0, 79, 64
3, 24237, Note_on_c, 0, 75, 0
3, 24362, Note_on_c, 0, 76, 62
3, 24543, Note_on_c, 0, 79, 0
3, 24574, Note_on_c, 0, 76, 0
3, 24649, Note_on_c, 0, 72, 54
3, 24676, Note_on_c, 0, 62, 35
3, 24709, Note_on_c, 0, 57, 36
3, 24780, Note_on_c, 0, 62, 0
3, 24861, Note_on_c, 0, 72, 0
3, 24961, Note_on_c, 0, 57, 0
3, 24982, Note_on_c, 0, 67, 32
3, 25169, Note_on_c, 0, 67, 0
3, 25296, Note_on_c, 0, 65, 35
3, 25527, Note_on_c, 0, 65, 0
3, 25600, Note_on_c, 0, 60, 47
3, 25783, Note_on_c, 0, 60, 0
3, 25868, Note_on_c, 0, 63, 59
3, 26490, Note_on_c, 0, 63, 0
3, 26559, Note_on_c, 0, 64, 71
3, 26987, Note_on_c, 0, 64, 0
3, 27149, Note_on_c, 0, 65, 68
3, 27517, Note_on_c, 0, 57, 28
3, 27642, Note_on_c, 0, 65, 0
3, 27667, Note_on_c, 0, 57, 0
3, 27800, Note_on_c, 0, 66, 77
3, 28362, Note_on_c, 0, 66, 0
3, 28422, Note_on_c, 0, 53, 34
3, 28426, Note_on_c, 0, 59, 40
3, 28432, Note_on_c, 0, 67, 68
3, 28435, Note_on_c, 0, 64, 39
3, 28832, Note_on_c, 0, 53, 0
3, 28849, Note_on_c, 0, 64, 0
3, 28861, Note_on_c, 0, 59, 0
3, 28971, Note_on_c, 0, 67, 0
3, 29017, Note_on_c, 0, 53, 36
3, 29033, Note_on_c, 0, 64, 43
3, 29036, Note_on_c, 0, 68, 65
3, 29042, Note_on_c, 0, 59, 47
3, 29358, Note_on_c, 0, 64, 0
3, 29387, Note_on_c, 0, 53, 0
3, 29502, Note_on_c, 0, 59, 0
3, 29608, Note_on_c, 0, 68, 0
3, 29711, Note_on_c, 0, 53, 49
3, 29732, Note_on_c, 0, 64, 45
3, 29734, Note_on_c, 0, 59, 51
3, 29739, Note_on_c, 0, 70, 72
3, 29938, Note_on_c, 0, 59, 0
3, 29972, Note_on_c, 0, 64, 0
3, 30067, Note_on_c, 0, 53, 0
3, 30342, Note_on_c, 0, 70, 0
3, 30419, Note_on_c, 0, 71, 76
3, 30421, Note_on_c, 0, 57, 53
3, 30425, Note_on_c, 0, 62, 55
3, 30429, Note_on_c, 0, 52, 48
3, 30781, Note_on_c, 0, 71, 0
3, 30993, Note_on_c, 0, 74, 80
3, 31536, Note_on_c, 0, 74, 0
3, 31731, Note_on_c, 0, 72, 53
3, 32141, Note_on_c, 0, 72, 0
3, 32330, Note_on_c, 0, 71, 74
3, 32565, Note_on_c, 0, 62, 0
3, 32578, Note_on_c, 0, 71, 0
3, 32647, Note_on_c, 0, 57, 0
3, 32721, Note_on_c, 0, 67, 51
3, 33079, Note_on_c, 0, 52, 0
3, 33183, Note_on_c, 0, 67, 0
3, 33250, Note_on_c, 0, 64, 51
3, 33458, Note_on_c, 0, 64, 0
3, 33876, Note_on_c, 0, 60, 18
3, 34169, Note_on_c, 0, 60, 0
3, 34284, Note_on_c, 0, 59, 24
3, 34315, Note_on_c, 0, 55, 29
3, 34402, Note_on_c, 0, 59, 0
3, 34431, Note_on_c, 0, 55, 0
3, 34539, Note_on_c, 0, 62, 66
3, 35149, Note_on_c, 0, 62, 0
3, 35538, Note_on_c, 0, 60, 46
3, 36162, Note_on_c, 0, 57, 36
3, 36170, Note_on_c, 0, 55, 33
3, 36270, Note_on_c, 0, 57, 0
3, 36355, Note_on_c, 0, 55, 0
3, 36807, Note_on_c, 0, 62, 47
3, 36832, Note_on_c, 0, 60, 0
3, 36998, Note_on_c, 0, 62, 0
3, 37171, Note_on_c, 0, 63, 38
3, 37275, Note_on_c, 0, 63, 0
3, 37433, Note_on_c, 0, 64, 44
3, 37645, Note_on_c, 0, 64, 0
3, 37772, Note_on_c, 0, 66, 58
3, 37894, Note_on_c, 0, 66, 0
3, 38055, Note_on_c, 0, 68, 70
3, 38096, Note_on_c, 0, 60, 58
3, 38123, Note_on_c, 0, 54, 43
3, 38269, Note_on_c, 0, 68, 0
3, 38298, Note_on_c, 0, 60, 0
3, 38402, Note_on_c, 0, 54, 0
3, 38425, Note_on_c, 0, 70, 52
3, 38577, Note_on_c, 0, 70, 0
3, 38706, Note_on_c, 0, 72, 59
3, 38887, Note_on_c, 0, 72, 0
3, 39020, Note_on_c, 0, 74, 64
3, 39159, Note_on_c, 0, 74, 0
3, 39363, Note_on_c, 0, 76, 48
3, 39544, Note_on_c, 0, 76, 0
3, 39650, Note_on_c, 0, 78, 42
3, 39785, Note_on_c, 0, 78, 0
3, 39935, Note_on_c, 0, 80, 69
3, 40006, Note_on_c, 0, 64, 36
3, 40035, Note_on_c, 0, 60, 27
3, 40039, Note_on_c, 0, 54, 29
3, 40133, Note_on_c, 0, 80, 0
3, 40183, Note_on_c, 0, 60, 0
3, 40185, Note_on_c, 0, 64, 0
3, 40239, Note_on_c, 0, 82, 67
3, 40465, Note_on_c, 0, 82, 0
3, 40497, Note_on_c, 0, 64, 5
3, 40630, Note_on_c, 0, 80, 62
3, 40915, Note_on_c, 0, 80, 0
3, 41054, Note_on_c, 0, 54, 0
3, 41098, Note_on_c, 0, 64, 0
3, 41285, Note_on_c, 0, 80, 64
3, 41304, Note_on_c, 0, 64, 50
3, 41329, Note_on_c, 0, 54, 39
3, 41347, Note_on_c, 0, 60, 50
3, 42057, Note_on_c, 0, 60, 0
3, 42084, Note_on_c, 0, 80, 0
3, 42134, Note_on_c, 0, 54, 0
3, 42136, Note_on_c, 0, 64, 0
3, 43874, Note_on_c, 0, 54, 46
3, 43883, Note_on_c, 0, 64, 36
3, 43887, Note_on_c, 0, 60, 48
3, 43999, Note_on_c, 0, 64, 0
3, 44024, Note_on_c, 0, 60, 0
3, 44132, Note_on_c, 0, 54, 0
3, 44971, Note_on_c, 0, 60, 24
3, 45099, Note_on_c, 0, 60, 0
3, 45703, Note_on_c, 0, 65, 60
3, 45747, Note_on_c, 0, 60, 44
3, 45763, Note_on_c, 0, 57, 40
3, 45846, Note_on_c, 0, 60, 0
3, 45871, Note_on_c, 0, 65, 0
3, 46006, Note_on_c, 0, 57, 0
3, 46088, Note_on_c, 0, 87, 44
3, 46258, Note_on_c, 0, 87, 0
3, 46296, Note_on_c, 0, 88, 53
3, 46529, Note_on_c, 0, 88, 0
3, 46678, Note_on_c, 0, 79, 74
3, 46695, Note_on_c, 0, 91, 82
3, 46759, Note_on_c, 0, 65, 28
3, 46841, Note_on_c, 0, 65, 0
3, 46859, Note_on_c, 0, 57, 18
3, 47132, Note_on_c, 0, 57, 0
3, 47142, Note_on_c, 0, 79, 0
3, 47163, Note_on_c, 0, 91, 0
3, 47733, Note_on_c, 0, 65, 47
3, 47768, Note_on_c, 0, 60, 40
3, 47779, Note_on_c, 0, 58, 33
3, 47814, Note_on_c, 0, 65, 0
3, 47866, Note_on_c, 0, 60, 0
3, 47964, Note_on_c, 0, 58, 0
3, 48654, Note_on_c, 0, 58, 67
3, 48663, Note_on_c, 0, 61, 63
3, 48673, Note_on_c, 0, 64, 66
3, 48692, Note_on_c, 0, 55, 60
3, 49657, Note_on_c, 0, 55, 0
3, 49678, Note_on_c, 0, 64, 0
3, 49753, Note_on_c, 0, 58, 0
3, 49790, Note_on_c, 0, 61, 0
3, 49904, Note_on_c, 0, 65, 58
3, 49919, Note_on_c, 0, 55, 37
3, 49956, Note_on_c, 0, 60, 57
3, 49967, Note_on_c, 0, 57, 44
3, 50518, Note_on_c, 0, 60, 0
3, 50716, Note_on_c, 0, 65, 0
3, 50749, Note_on_c, 0, 60, 30
3, 50892, Note_on_c, 0, 87, 79
3, 50894, Note_on_c, 0, 60, 0
3, 50909, Note_on_c, 0, 79, 72
3, 51100, Note_on_c, 0, 79, 0
3, 51150, Note_on_c, 0, 55, 0
3, 51371, Note_on_c, 0, 57, 0
3, 51429, Note_on_c, 0, 87, 0
3, 51523, Note_on_c, 0, 88, 65
3, 51564, Note_on_c, 0, 59, 68
3, 51570, Note_on_c, 0, 64, 70
3, 51623, Note_on_c, 0, 53, 58
3, 51893, Note_on_c, 0, 88, 0
3, 52045, Note_on_c, 0, 91, 78
3, 52074, Note_on_c, 0, 79, 53
3, 52336, Note_on_c, 0, 91, 0
3, 52498, Note_on_c, 0, 79, 0
3, 52550, Note_on_c, 0, 90, 71
3, 52833, Note_on_c, 0, 90, 0
3, 52854, Note_on_c, 0, 64, 0
3, 52891, Note_on_c, 0, 59, 0
3, 52972, Note_on_c, 0, 89, 58
3, 53192, Note_on_c, 0, 53, 0
3, 53311, Note_on_c, 0, 89, 0
3, 53440, Note_on_c, 0, 62, 51
3, 53457, Note_on_c, 0, 57, 51
3, 53476, Note_on_c, 0, 87, 61
3, 53498, Note_on_c, 0, 52, 37
3, 53729, Note_on_c, 0, 87, 0
3, 53929, Note_on_c, 0, 88, 38
3, 54018, Note_on_c, 0, 88, 0
3, 55036, Note_on_c, 0, 57, 0
3, 55092, Note_on_c, 0, 62, 0
3, 55329, Note_on_c, 0, 62, 30
3, 55367, Note_on_c, 0, 57, 42
3, 55485, Note_on_c, 0, 62, 0
3, 55578, Note_on_c, 0, 57, 0
3, 55676, Note_on_c, 0, 52, 0
3, 55722, Note_on_c, 0, 89, 94
3, 56221, Note_on_c, 0, 89, 0
3, 56315, Note_on_c, 0, 88, 73
3, 56340, Note_on_c, 0, 57, 51
3, 56348, Note_on_c, 0, 58, 49
3, 56350, Note_on_c, 0, 62, 45
3, 56608, Note_on_c, 0, 88, 0
3, 56787, Note_on_c, 0, 89, 87
3, 57120, Note_on_c, 0, 89, 0
3, 57296, Note_on_c, 0, 88, 75
3, 57476, Note_on_c, 0, 62, 0
3, 57486, Note_on_c, 0, 57, 0
3, 57555, Note_on_c, 0, 58, 0
3, 57573, Note_on_c, 0, 88, 0
3, 57684, Note_on_c, 0, 86, 64
3, 58006, Note_on_c, 0, 86, 0
3, 58216, Note_on_c, 0, 58, 42
3, 58224, Note_on_c, 0, 62, 49
3, 58231, Note_on_c, 0, 82, 70
3, 58260, Note_on_c, 0, 52, 36
3, 58586, Note_on_c, 0, 82, 0
3, 58651, Note_on_c, 0, 62, 0
3, 58667, Note_on_c, 0, 76, 41
3, 58757, Note_on_c, 0, 58, 0
3, 59133, Note_on_c, 0, 76, 0
3, 59194, Note_on_c, 0, 75, 55
3, 59264, Note_on_c, 0, 58, 33
3, 59279, Note_on_c, 0, 62, 36
3, 59414, Note_on_c, 0, 62, 0
3, 59503, Note_on_c, 0, 75, 0
3, 59508, Note_on_c, 0, 58, 0
3, 59655, Note_on_c, 0, 73, 28
3, 60104, Note_on_c, 0, 73, 0
3, 60124, Note_on_c, 0, 72, 66
3, 60221, Note_on_c, 0, 58, 35
3, 60269, Note_on_c, 0, 62, 38
3, 60321, Note_on_c, 0, 52, 0
3, 60331, Note_on_c, 0, 72, 0
3, 60454, Note_on_c, 0, 58, 0
3, 60529, Note_on_c, 0, 70, 36
3, 60706, Note_on_c, 0, 62, 0
3, 61076, Note_on_c, 0, 68, 48
3, 61126, Note_on_c, 0, 64, 30
3, 61143, Note_on_c, 0, 57, 34
3, 61172, Note_on_c, 0, 70, 0
3, 61174, Note_on_c, 0, 60, 24
3, 61253, Note_on_c, 0, 64, 0
3, 61363, Note_on_c, 0, 60, 0
3, 61396, Note_on_c, 0, 68, 0
3, 61557, Note_on_c, 0, 69, 29
3, 61667, Note_on_c, 0, 57, 0
3, 61977, Note_on_c, 0, 69, 0
3, 62035, Note_on_c, 0, 76, 58
3, 62066, Note_on_c, 0, 64, 43
3, 62079, Note_on_c, 0, 65, 46
3, 62093, Note_on_c, 0, 69, 33
3, 62258, Note_on_c, 0, 76, 0
3, 62270, Note_on_c, 0, 64, 0
3, 62301, Note_on_c, 0, 65, 0
3, 62305, Note_on_c, 0, 62, 29
3, 62326, Note_on_c, 0, 69, 0
3, 63108, Note_on_c, 0, 60, 32
3, 63281, Note_on_c, 0, 60, 0
3, 63323, Note_on_c, 0, 76, 40
3, 63325, Note_on_c, 0, 62, 0
3, 63335, Note_on_c, 0, 64, 48
3, 63350, Note_on_c, 0, 65, 28
3, 63377, Note_on_c, 0, 72, 30
3, 63393, Note_on_c, 0, 69, 34
3, 63951, Note_on_c, 0, 65, 0
3, 64009, Note_on_c, 0, 69, 0
3, 64055, Note_on_c, 0, 72, 0
3, 64092, Note_on_c, 0, 76, 0
3, 64242, Note_on_c, 0, 64, 0
3, 64281, Note_on_c, 0, 65, 36
3, 64302, Note_on_c, 0, 74, 46
3, 64319, Note_on_c, 0, 69, 31
3, 64329, Note_on_c, 0, 62, 32
3, 64398, Note_on_c, 0, 72, 17
3, 64706, Note_on_c, 0, 65, 0
3, 64722, Note_on_c, 0, 69, 0
3, 64799, Note_on_c, 0, 72, 0
3, 64862, Note_on_c, 0, 74, 0
3, 65024, Note_on_c, 0, 62, 0
3, 65244, Note_on_c, 0, 67, 53
3, 65257, Note_on_c, 0, 56, 46
3, 65261, Note_on_c, 0, 62, 46
3, 65278, Note_on_c, 0, 74, 65
3, 65309, Note_on_c, 0, 75, 46
3, 65328, Note_on_c, 0, 79, 46
3, 65638, Note_on_c, 0, 74, 0
3, 65665, Note_on_c, 0, 62, 0
3, 65669, Note_on_c, 0, 76, 33
3, 65723, Note_on_c, 0, 75, 0
3, 65912, Note_on_c, 0, 79, 0
3, 66066, Note_on_c, 0, 76, 0
3, 66087, Note_on_c, 0, 67, 0
3, 66114, Note_on_c, 0, 56, 0
3, 66266, Note_on_c, 0, 74, 76
3, 66280, Note_on_c, 0, 79, 64
3, 66719, Note_on_c, 0, 79, 0
3, 66763, Note_on_c, 0, 74, 0
3, 67233, Note_on_c, 0, 67, 38
3, 67239, Note_on_c, 0, 56, 35
3, 67291, Note_on_c, 0, 62, 37
3, 67551, Note_on_c, 0, 62, 0
3, 67655, Note_on_c, 0, 67, 0
3, 67688, Note_on_c, 0, 56, 0
3, 68810, Note_on_c, 0, 64, 45
3, 68866, Note_on_c, 0, 60, 35
3, 68997, Note_on_c, 0, 60, 0
3, 69005, Note_on_c, 0, 64, 0
3, 70093, Note_on_c, 0, 89, 95
3, 70598, Note_on_c, 0, 89, 0
3, 70762, Note_on_c, 0, 64, 47
3, 70790, Note_on_c, 0, 60, 42
3, 70804, Note_on_c, 0, 88, 60
3, 70858, Note_on_c, 0, 59, 20
3, 70873, Note_on_c, 0, 64, 0
3, 70892, Note_on_c, 0, 60, 0
3, 70954, Note_on_c, 0, 88, 0
3, 70977, Note_on_c, 0, 59, 0
3, 71156, Note_on_c, 0, 89, 92
3, 71551, Note_on_c, 0, 89, 0
3, 71711, Note_on_c, 0, 88, 68
3, 71954, Note_on_c, 0, 88, 0
3, 72102, Note_on_c, 0, 84, 39
3, 72574, Note_on_c, 0, 84, 0
3, 72645, Note_on_c, 0, 64, 40
3, 72649, Note_on_c, 0, 81, 36
3, 72653, Note_on_c, 0, 56, 36
3, 72666, Note_on_c, 0, 60, 36
3, 72826, Note_on_c, 0, 64, 0
3, 72894, Note_on_c, 0, 60, 0
3, 72901, Note_on_c, 0, 56, 0
3, 72928, Note_on_c, 0, 81, 0
3, 73078, Note_on_c, 0, 80, 39
3, 73485, Note_on_c, 0, 80, 0
3, 73564, Note_on_c, 0, 83, 72
3, 73724, Note_on_c, 0, 60, 32
3, 73845, Note_on_c, 0, 83, 0
3, 73934, Note_on_c, 0, 60, 0
3, 73974, Note_on_c, 0, 81, 47
3, 74438, Note_on_c, 0, 81, 0
3, 74486, Note_on_c, 0, 76, 58
3, 74517, Note_on_c, 0, 64, 55
3, 74567, Note_on_c, 0, 60, 27
3, 74604, Note_on_c, 0, 57, 31
3, 74617, Note_on_c, 0, 64, 0
3, 74754, Note_on_c, 0, 76, 0
3, 74779, Note_on_c, 0, 57, 0
3, 74837, Note_on_c, 0, 60, 0
3, 74895, Note_on_c, 0, 74, 28
3, 75428, Note_on_c, 0, 74, 0
3, 75447, Note_on_c, 0, 72, 54
3, 75530, Note_on_c, 0, 60, 47
3, 75590, Note_on_c, 0, 57, 27
3, 75651, Note_on_c, 0, 72, 0
3, 75707, Note_on_c, 0, 60, 0
3, 75740, Note_on_c, 0, 57, 0
3, 75788, Note_on_c, 0, 71, 35
3, 76403, Note_on_c, 0, 71, 0
3, 76420, Note_on_c, 0, 69, 54
3, 76593, Note_on_c, 0, 69, 0
3, 76666, Note_on_c, 0, 53, 18
3, 76818, Note_on_c, 0, 67, 54
3, 76872, Note_on_c, 0, 53, 0
3, 77468, Note_on_c, 0, 67, 0
3, 77556, Note_on_c, 0, 53, 16
3, 77754, Note_on_c, 0, 53, 0
3, 77783, Note_on_c, 0, 64, 25
3, 77801, Note_on_c, 0, 65, 20
3, 77889, Note_on_c, 0, 65, 0
3, 78271, Note_on_c, 0, 64, 0
3, 78365, Note_on_c, 0, 67, 71
3, 78681, Note_on_c, 0, 67, 0
3, 78868, Note_on_c, 0, 65, 54
3, 79403, Note_on_c, 0, 65, 0
3, 79511, Note_on_c, 0, 60, 45
3, 79665, Note_on_c, 0, 60, 0
3, 80333, Note_on_c, 0, 64, 55
3, 80341, Note_on_c, 0, 56, 39
3, 80352, Note_on_c, 0, 60, 46
3, 80406, Note_on_c, 0, 53, 33
3, 81718, Note_on_c, 0, 60, 0
3, 82022, Note_on_c, 0, 64, 0
3, 82040, Note_on_c, 0, 53, 0
3, 82161, Note_on_c, 0, 56, 0
3, 82211, Note_on_c, 0, 64, 60
3, 82244, Note_on_c, 0, 59, 60
3, 82276, Note_on_c, 0, 53, 26
3, 83128, Note_on_c, 0, 67, 44
3, 83401, Note_on_c, 0, 67, 0
3, 83511, Note_on_c, 0, 64, 0
3, 83528, Note_on_c, 0, 68, 34
3, 83638, Note_on_c, 0, 53, 0
3, 83698, Note_on_c, 0, 59, 0
3, 83709, Note_on_c, 0, 68, 0
3, 84135, Note_on_c, 0, 70, 39
3, 84218, Note_on_c, 0, 70, 0
3, 84457, Note_on_c, 0, 76, 71
3, 84491, Note_on_c, 0, 67, 66
3, 84501, Note_on_c, 0, 72, 61
3, 84503, Note_on_c, 0, 71, 63
3, 84507, Note_on_c, 0, 65, 66
3, 84511, Note_on_c, 0, 56, 76
3, 84526, Note_on_c, 0, 62, 62
3, 84574, Note_on_c, 0, 65, 0
3, 84730, Note_on_c, 0, 71, 0
3, 84859, Note_on_c, 0, 72, 0
3, 84880, Note_on_c, 0, 67, 0
3, 84894, Note_on_c, 0, 62, 0
3, 84936, Note_on_c, 0, 76, 0
3, 84942, Note_on_c, 0, 56, 0
3, 85073, Note_on_c, 0, 72, 60
3, 85077, Note_on_c, 0, 76, 68
3, 85079, Note_on_c, 0, 67, 61
3, 85096, Note_on_c, 0, 56, 69
3, 85121, Note_on_c, 0, 62, 64
3, 85319, Note_on_c, 0, 67, 0
3, 85346, Note_on_c, 0, 62, 0
3, 85350, Note_on_c, 0, 72, 0
3, 85385, Note_on_c, 0, 76, 0
3, 85387, Note_on_c, 0, 56, 0
3, 85499, Note_on_c, 0, 72, 63
3, 85512, Note_on_c, 0, 76, 71
3, 85518, Note_on_c, 0, 62, 50
3, 85520, Note_on_c, 0, 67, 53
3, 85522, Note_on_c, 0, 56, 64
3, 85753, Note_on_c, 0, 67, 0
3, 85774, Note_on_c, 0, 72, 0
3, 85801, Note_on_c, 0, 76, 0
3, 85801, Note_on_c, 0, 56, 0
3, 85862, Note_on_c, 0, 62, 0
3, 86015, Note_on_c, 0, 56, 56
3, 86042, Note_on_c, 0, 76, 51
3, 86055, Note_on_c, 0, 72, 70
3, 86076, Note_on_c, 0, 67, 62
3, 86078, Note_on_c, 0, 62, 37
3, 86165, Note_on_c, 0, 62, 0
3, 86232, Note_on_c, 0, 67, 0
3, 86250, Note_on_c, 0, 72, 0
3, 86311, Note_on_c, 0, 76, 0
3, 86327, Note_on_c, 0, 56, 0
3, 86473, Note_on_c, 0, 77, 60
3, 86479, Note_on_c, 0, 55, 48
3, 86485, Note_on_c, 0, 67, 61
3, 86494, Note_on_c, 0, 61, 48
3, 86531, Note_on_c, 0, 73, 40
3, 86862, Note_on_c, 0, 61, 0
3, 86914, Note_on_c, 0, 73, 0
3, 86924, Note_on_c, 0, 67, 0
3, 86951, Note_on_c, 0, 77, 0
3, 86962, Note_on_c, 0, 55, 0
3, 87303, Note_on_c, 0, 61, 50
3, 87309, Note_on_c, 0, 73, 45
3, 87311, Note_on_c, 0, 77, 52
3, 87317, Note_on_c, 0, 55, 45
3, 87322, Note_on_c, 0, 67, 57
3, 87785, Note_on_c, 0, 77, 0
3, 87796, Note_on_c, 0, 55, 0
3, 87900, Note_on_c, 0, 67, 0
3, 87987, Note_on_c, 0, 73, 0
3, 88029, Note_on_c, 0, 61, 0
3, 88264, Note_on_c, 0, 74, 46
3, 88280, Note_on_c, 0, 65, 37
3, 88289, Note_on_c, 0, 54, 48
3, 88297, Note_on_c, 0, 60, 48
3, 88303, Note_on_c, 0, 69, 45
3, 88742, Note_on_c, 0, 69, 0
3, 88746, Note_on_c, 0, 60, 0
3, 88784, Note_on_c, 0, 65, 0
3, 88815, Note_on_c, 0, 74, 0
3, 88836, Note_on_c, 0, 54, 0
3, 89185, Note_on_c, 0, 54, 47
3, 89227, Note_on_c, 0, 60, 38
3, 89601, Note_on_c, 0, 60, 0
3, 89782, Note_on_c, 0, 54, 0
3, 89868, Note_on_c, 0, 64, 52
3, 89911, Note_on_c, 0, 53, 36
3, 89926, Note_on_c, 0, 59, 51
3, 90481, Note_on_c, 0, 83, 83
3, 90598, Note_on_c, 0, 59, 0
3, 90914, Note_on_c, 0, 83, 0
3, 90980, Note_on_c, 0, 59, 26
3, 91124, Note_on_c, 0, 64, 0
3, 91165, Note_on_c, 0, 81, 77
3, 91184, Note_on_c, 0, 59, 0
3, 91230, Note_on_c, 0, 79, 58
3, 91348, Note_on_c, 0, 79, 0
3, 91361, Note_on_c, 0, 53, 0
3, 91785, Note_on_c, 0, 81, 0
3, 91794, Note_on_c, 0, 62, 40
3, 91796, Note_on_c, 0, 57, 45
3, 91798, Note_on_c, 0, 79, 64
3, 91868, Note_on_c, 0, 52, 30
3, 92879, Note_on_c, 0, 79, 0
3, 93711, Note_on_c, 0, 74, 103
3, 93961, Note_on_c, 0, 62, 0
3, 94104, Note_on_c, 0, 74, 0
3, 94117, Note_on_c, 0, 72, 34
3, 94192, Note_on_c, 0, 57, 0
3, 94215, Note_on_c, 0, 52, 0
3, 94776, Note_on_c, 0, 57, 25
3, 94778, Note_on_c, 0, 72, 0
3, 94966, Note_on_c, 0, 71, 79
3, 94968, Note_on_c, 0, 57, 0
3, 95787, Note_on_c, 0, 71, 0
3, 95976, Note_on_c, 0, 67, 62
3, 96540, Note_on_c, 0, 67, 0
3, 96655, Note_on_c, 0, 57, 29
3, 96677, Note_on_c, 0, 64, 36
3, 96711, Note_on_c, 0, 65, 24
3, 96773, Note_on_c, 0, 64, 0
3, 96775, Note_on_c, 0, 57, 0
3, 96781, Note_on_c, 0, 65, 0
3, 97106, Note_on_c, 0, 59, 13
3, 97624, Note_on_c, 0, 59, 0
3, 97715, Note_on_c, 0, 55, 48
3, 97925, Note_on_c, 0, 55, 0
3, 98034, Note_on_c, 0, 57, 46
3, 98520, Note_on_c, 0, 57, 0
3, 98913, Note_on_c, 0, 58, 67
3, 99525, Note_on_c, 0, 58, 0
3, 99539, Note_on_c, 0, 60, 67
3, 99558, Note_on_c, 0, 26, 36
3, 99579, Note_on_c, 0, 24, 29
3, 99664, Note_on_c, 0, 24, 0
3, 99737, Note_on_c, 0, 26, 0
3, 100114, Note_on_c, 0, 60, 0
3, 100149, Note_on_c, 0, 63, 62
3, 100629, Note_on_c, 0, 63, 0
3, 100746, Note_on_c, 0, 64, 60
3, 101245, Note_on_c, 0, 64, 0
3, 101397, Note_on_c, 0, 54, 47
3, 101401, Note_on_c, 0, 69, 64
3, 101436, Note_on_c, 0, 60, 48
3, 101646, Note_on_c, 0, 69, 0
3, 101888, Note_on_c, 0, 60, 0
3, 102040, Note_on_c, 0, 76, 66
3, 102058, Note_on_c, 0, 69, 71
3, 102108, Note_on_c, 0, 64, 40
3, 102139, Note_on_c, 0, 60, 34
3, 102372, Note_on_c, 0, 64, 0
3, 102456, Note_on_c, 0, 60, 0
3, 102504, Note_on_c, 0, 69, 0
3, 102510, Note_on_c, 0, 76, 0
3, 102560, Note_on_c, 0, 54, 0
3, 102651, Note_on_c, 0, 54, 23
3, 102680, Note_on_c, 0, 64, 47
3, 102682, Note_on_c, 0, 72, 44
3, 102713, Note_on_c, 0, 60, 40
3, 103142, Note_on_c, 0, 64, 0
3, 103175, Note_on_c, 0, 54, 0
3, 103223, Note_on_c, 0, 60, 0
3, 103225, Note_on_c, 0, 72, 0
3, 103348, Note_on_c, 0, 54, 45
3, 103354, Note_on_c, 0, 64, 41
3, 103358, Note_on_c, 0, 76, 47
3, 103367, Note_on_c, 0, 69, 56
3, 103396, Note_on_c, 0, 60, 30
3, 103469, Note_on_c, 0, 69, 0
3, 103494, Note_on_c, 0, 64, 0
3, 103510, Note_on_c, 0, 60, 0
3, 103535, Note_on_c, 0, 76, 0
3, 103585, Note_on_c, 0, 54, 0
3, 105291, Note_on_c, 0, 64, 58
3, 105295, Note_on_c, 0, 54, 51
3, 105299, Note_on_c, 0, 60, 57
3, 105413, Note_on_c, 0, 64, 0
3, 105449, Note_on_c, 0, 60, 0
3, 105522, Note_on_c, 0, 54, 0
3, 106241, Note_on_c, 0, 64, 54
3, 106254, Note_on_c, 0, 60, 53
3, 106264, Note_on_c, 0, 54, 38
3, 106362, Note_on_c, 0, 60, 0
3, 106368, Note_on_c, 0, 64, 0
3, 106370, Note_on_c, 0, 54, 0
3, 106855, Note_on_c, 0, 81, 44
3, 107063, Note_on_c, 0, 81, 0
3, 107200, Note_on_c, 0, 84, 90
3, 107227, Note_on_c, 0, 65, 62
3, 107233, Note_on_c, 0, 57, 61
3, 107238, Note_on_c, 0, 55, 61
3, 107240, Note_on_c, 0, 60, 56
3, 107402, Note_on_c, 0, 65, 0
3, 107435, Note_on_c, 0, 55, 0
3, 107450, Note_on_c, 0, 84, 0
3, 107531, Note_on_c, 0, 55, 29
3, 107547, Note_on_c, 0, 65, 49
3, 107585, Note_on_c, 0, 83, 66
3, 107589, Note_on_c, 0, 84, 49
3, 107768, Note_on_c, 0, 83, 0
3, 108157, Note_on_c, 0, 55, 0
3, 108207, Note_on_c, 0, 65, 0
3, 108219, Note_on_c, 0, 60, 0
3, 108244, Note_on_c, 0, 57, 0
3, 108257, Note_on_c, 0, 84, 0
3, 108475, Note_on_c, 0, 83, 57
3, 108486, Note_on_c, 0, 65, 39
3, 108504, Note_on_c, 0, 55, 40
3, 108521, Note_on_c, 0, 57, 34
3, 108523, Note_on_c, 0, 60, 40
3, 109039, Note_on_c, 0, 60, 0
3, 109041, Note_on_c, 0, 65, 0
3, 109097, Note_on_c, 0, 55, 0
3, 109108, Note_on_c, 0, 83, 0
3, 109124, Note_on_c, 0, 57, 0
3, 110301, Note_on_c, 0, 61, 45
3, 110320, Note_on_c, 0, 58, 45
3, 110324, Note_on_c, 0, 64, 54
3, 110360, Note_on_c, 0, 55, 36
3, 110780, Note_on_c, 0, 55, 0
3, 110880, Note_on_c, 0, 64, 0
3, 111015, Note_on_c, 0, 58, 0
3, 111036, Note_on_c, 0, 61, 0
3, 111271, Note_on_c, 0, 57, 53
3, 111294, Note_on_c, 0, 64, 50
3, 111298, Note_on_c, 0, 60, 38
3, 111354, Note_on_c, 0, 53, 37
3, 112282, Note_on_c, 0, 64, 0
3, 112315, Note_on_c, 0, 84, 90
3, 112325, Note_on_c, 0, 72, 87
3, 112359, Note_on_c, 0, 60, 0
3, 112550, Note_on_c, 0, 57, 0
3, 112591, Note_on_c, 0, 53, 0
3, 112953, Note_on_c, 0, 64, 58
3, 112970, Note_on_c, 0, 59, 58
3, 113022, Note_on_c, 0, 53, 26
3, 113586, Note_on_c, 0, 84, 0
3, 113748, Note_on_c, 0, 72, 0
3, 113906, Note_on_c, 0, 83, 75
3, 113908, Note_on_c, 0, 71, 71
3, 114077, Note_on_c, 0, 64, 0
3, 114218, Note_on_c, 0, 59, 0
3, 114260, Note_on_c, 0, 71, 0
3, 114264, Note_on_c, 0, 83, 0
3, 114370, Note_on_c, 0, 53, 0
3, 114422, Note_on_c, 0, 81, 37
3, 114771, Note_on_c, 0, 81, 0
3, 114877, Note_on_c, 0, 79, 65
3, 114904, Note_on_c, 0, 62, 40
3, 114919, Note_on_c, 0, 57, 36
3, 114940, Note_on_c, 0, 81, 29
3, 114979, Note_on_c, 0, 52, 24
3, 115048, Note_on_c, 0, 81, 0
3, 115119, Note_on_c, 0, 79, 0
3, 115277, Note_on_c, 0, 76, 51
3, 115531, Note_on_c, 0, 57, 0
3, 115788, Note_on_c, 0, 76, 0
3, 115967, Note_on_c, 0, 57, 24
3, 116007, Note_on_c, 0, 62, 0
3, 116105, Note_on_c, 0, 52, 0
3, 116138, Note_on_c, 0, 57, 0
3, 116169, Note_on_c, 0, 76, 74
3, 116801, Note_on_c, 0, 76, 0
3, 117134, Note_on_c, 0, 61, 37
3, 117145, Note_on_c, 0, 64, 40
3, 117163, Note_on_c, 0, 58, 44
3, 117180, Note_on_c, 0, 55, 36
3, 118237, Note_on_c, 0, 55, 0
3, 118420, Note_on_c, 0, 64, 0
3, 118515, Note_on_c, 0, 61, 0
3, 118584, Note_on_c, 0, 58, 0
3, 118746, Note_on_c, 0, 60, 40
3, 118759, Note_on_c, 0, 53, 40
3, 118763, Note_on_c, 0, 64, 41
3, 118765, Note_on_c, 0, 57, 45
3, 119928, Note_on_c, 0, 64, 0
3, 119978, Note_on_c, 0, 89, 89
3, 120065, Note_on_c, 0, 60, 0
3, 120641, Note_on_c, 0, 88, 64
3, 120643, Note_on_c, 0, 89, 0
3, 120660, Note_on_c, 0, 57, 0
3, 120672, Note_on_c, 0, 64, 53
3, 120716, Note_on_c, 0, 59, 48
3, 121484, Note_on_c, 0, 88, 0
3, 121529, Note_on_c, 0, 89, 65
3, 121612, Note_on_c, 0, 64, 0
3, 121779, Note_on_c, 0, 59, 0
3, 121822, Note_on_c, 0, 89, 0
3, 121924, Note_on_c, 0, 53, 0
3, 121966, Note_on_c, 0, 88, 34
3, 122609, Note_on_c, 0, 88, 0
3, 122779, Note_on_c, 0, 57, 27
3, 122800, Note_on_c, 0, 52, 26
3, 122812, Note_on_c, 0, 62, 24
3, 122821, Note_on_c, 0, 89, 70
3, 122840, Note_on_c, 0, 77, 55
3, 122996, Note_on_c, 0, 62, 0
3, 123033, Note_on_c, 0, 52, 0
3, 123096, Note_on_c, 0, 57, 0
3, 123424, Note_on_c, 0, 77, 0
3, 123524, Note_on_c, 0, 89, 0
3, 123778, Note_on_c, 0, 88, 46
3, 124260, Note_on_c, 0, 88, 0
3, 124456, Note_on_c, 0, 89, 55
3, 124499, Note_on_c, 0, 62, 48
3, 124533, Note_on_c, 0, 57, 44
3, 124579, Note_on_c, 0, 62, 0
3, 124676, Note_on_c, 0, 89, 0
3, 124703, Note_on_c, 0, 57, 0
3, 124770, Note_on_c, 0, 88, 26
3, 125321, Note_on_c, 0, 88, 0
3, 125704, Note_on_c, 0, 88, 62
3, 126226, Note_on_c, 0, 88, 0
3, 126342, Note_on_c, 0, 89, 59
3, 126390, Note_on_c, 0, 64, 36
3, 126421, Note_on_c, 0, 60, 42
3, 126480, Note_on_c, 0, 59, 24
3, 126507, Note_on_c, 0, 64, 0
3, 126583, Note_on_c, 0, 89, 0
3, 126658, Note_on_c, 0, 60, 0
3, 126681, Note_on_c, 0, 59, 0
3, 126794, Note_on_c, 0, 88, 37
3, 127249, Note_on_c, 0, 88, 0
3, 127640, Note_on_c, 0, 88, 75
3, 128096, Note_on_c, 0, 88, 0
3, 128254, Note_on_c, 0, 89, 40
3, 128293, Note_on_c, 0, 64, 43
3, 128310, Note_on_c, 0, 88, 59
3, 128341, Note_on_c, 0, 60, 34
3, 128381, Note_on_c, 0, 64, 0
3, 128429, Note_on_c, 0, 89, 0
3, 128549, Note_on_c, 0, 60, 0
3, 128622, Note_on_c, 0, 88, 0
3, 128634, Note_on_c, 0, 86, 36
3, 129092, Note_on_c, 0, 86, 0
3, 129186, Note_on_c, 0, 88, 68
3, 129196, Note_on_c, 0, 64, 56
3, 129252, Note_on_c, 0, 60, 42
3, 129286, Note_on_c, 0, 64, 0
3, 129437, Note_on_c, 0, 60, 0
3, 129454, Note_on_c, 0, 88, 0
3, 129596, Note_on_c, 0, 89, 54
3, 129962, Note_on_c, 0, 89, 0
3, 130136, Note_on_c, 0, 90, 56
3, 130153, Note_on_c, 0, 64, 56
3, 130172, Note_on_c, 0, 60, 43
3, 130176, Note_on_c, 0, 54, 47
3, 130500, Note_on_c, 0, 90, 0
3, 130609, Note_on_c, 0, 64, 0
3, 130661, Note_on_c, 0, 60, 0
3, 130767, Note_on_c, 0, 93, 61
3, 130808, Note_on_c, 0, 64, 37
3, 130831, Note_on_c, 0, 60, 35
3, 131018, Note_on_c, 0, 64, 0
3, 131062, Note_on_c, 0, 54, 0
3, 131068, Note_on_c, 0, 60, 0
3, 131070, Note_on_c, 0, 93, 0
3, 131397, Note_on_c, 0, 54, 62
3, 131403, Note_on_c, 0, 64, 64
3, 131424, Note_on_c, 0, 96, 71
3, 131434, Note_on_c, 0, 60, 60
3, 131449, Note_on_c, 0, 84, 68
3, 131467, Note_on_c, 0, 90, 37
3, 131470, Note_on_c, 0, 93, 47
3, 131565, Note_on_c, 0, 90, 0
3, 131807, Note_on_c, 0, 93, 0
3, 131861, Note_on_c, 0, 54, 0
3, 131877, Note_on_c, 0, 96, 0
3, 131879, Note_on_c, 0, 84, 0
3, 131890, Note_on_c, 0, 64, 0
3, 131965, Note_on_c, 0, 60, 0
3, 132106, Note_on_c, 0, 96, 68
3, 132108, Note_on_c, 0, 64, 64
3, 132112, Note_on_c, 0, 54, 67
3, 132127, Note_on_c, 0, 84, 76
3, 132141, Note_on_c, 0, 60, 53
3, 132158, Note_on_c, 0, 90, 42
3, 132169, Note_on_c, 0, 93, 35
3, 132379, Note_on_c, 0, 96, 0
3, 132393, Note_on_c, 0, 84, 0
3, 132418, Note_on_c, 0, 90, 0
3, 132445, Note_on_c, 0, 54, 0
3, 132462, Note_on_c, 0, 64, 0
3, 132476, Note_on_c, 0, 93, 0
3, 132493, Note_on_c, 0, 60, 0
3, 132647, Note_on_c, 0, 54, 46
3, 132661, Note_on_c, 0, 64, 49
3, 132699, Note_on_c, 0, 96, 64
3, 132720, Note_on_c, 0, 90, 56
3, 132728, Note_on_c, 0, 60, 44
3, 132741, Note_on_c, 0, 84, 65
3, 132988, Note_on_c, 0, 96, 0
3, 133055, Note_on_c, 0, 64, 0
3, 133057, Note_on_c, 0, 84, 0
3, 133084, Note_on_c, 0, 54, 0
3, 133107, Note_on_c, 0, 60, 0
3, 133117, Note_on_c, 0, 90, 0
3, 133333, Note_on_c, 0, 93, 66
3, 133344, Note_on_c, 0, 54, 61
3, 133367, Note_on_c, 0, 64, 49
3, 133375, Note_on_c, 0, 81, 54
3, 133408, Note_on_c, 0, 60, 38
3, 133537, Note_on_c, 0, 93, 0
3, 133600, Note_on_c, 0, 81, 0
3, 133712, Note_on_c, 0, 64, 0
3, 133751, Note_on_c, 0, 54, 0
3, 133805, Note_on_c, 0, 60, 0
3, 134003, Note_on_c, 0, 75, 62
3, 134022, Note_on_c, 0, 87, 48
3, 134024, Note_on_c, 0, 54, 60
3, 134036, Note_on_c, 0, 64, 57
3, 134051, Note_on_c, 0, 60, 52
3, 134113, Note_on_c, 0, 85, 29
3, 134450, Note_on_c, 0, 87, 0
3, 134455, Note_on_c, 0, 75, 0
3, 134486, Note_on_c, 0, 76, 32
3, 134700, Note_on_c, 0, 60, 0
3, 134877, Note_on_c, 0, 76, 0
3, 134976, Note_on_c, 0, 60, 20
3, 134981, Note_on_c, 0, 85, 0
3, 135239, Note_on_c, 0, 64, 0
3, 135291, Note_on_c, 0, 81, 50
3, 135297, Note_on_c, 0, 69, 54
3, 135636, Note_on_c, 0, 69, 0
3, 135661, Note_on_c, 0, 81, 0
3, 135971, Note_on_c, 0, 64, 32
3, 135981, Note_on_c, 0, 84, 76
3, 135985, Note_on_c, 0, 72, 64
3, 136083, Note_on_c, 0, 64, 0
3, 136100, Note_on_c, 0, 72, 0
3, 136118, Note_on_c, 0, 54, 0
3, 136175, Note_on_c, 0, 84, 0
3, 136281, Note_on_c, 0, 60, 0
3, 136925, Note_on_c, 0, 54, 49
3, 136938, Note_on_c, 0, 64, 52
3, 136977, Note_on_c, 0, 58, 44
3, 136992, Note_on_c, 0, 60, 38
3, 137113, Note_on_c, 0, 60, 0
3, 137134, Note_on_c, 0, 64, 0
3, 137146, Note_on_c, 0, 54, 0
3, 137167, Note_on_c, 0, 58, 0
3, 137918, Note_on_c, 0, 55, 41
3, 137928, Note_on_c, 0, 64, 48
3, 137949, Note_on_c, 0, 60, 45
3, 137951, Note_on_c, 0, 57, 41
3, 138669, Note_on_c, 0, 60, 0
3, 138916, Note_on_c, 0, 60, 36
3, 139184, Note_on_c, 0, 89, 95
3, 139211, Note_on_c, 0, 64, 0
3, 139307, Note_on_c, 0, 60, 0
3, 139681, Note_on_c, 0, 89, 0
3, 140199, Note_on_c, 0, 89, 91
3, 140628, Note_on_c, 0, 89, 0
3, 140792, Note_on_c, 0, 88, 68
3, 141071, Note_on_c, 0, 57, 0
3, 141088, Note_on_c, 0, 88, 0
3, 141131, Note_on_c, 0, 55, 0
3, 141248, Note_on_c, 0, 84, 24
3, 141647, Note_on_c, 0, 84, 0
3, 141745, Note_on_c, 0, 61, 44
3, 141772, Note_on_c, 0, 79, 39
3, 141780, Note_on_c, 0, 58, 44
3, 141799, Note_on_c, 0, 64, 41
3, 141824, Note_on_c, 0, 55, 31
3, 142021, Note_on_c, 0, 79, 0
3, 142798, Note_on_c, 0, 64, 0
3, 142845, Note_on_c, 0, 55, 0
3, 142895, Note_on_c, 0, 61, 0
3, 142897, Note_on_c, 0, 58, 0
3, 142939, Note_on_c, 0, 55, 44
3, 142989, Note_on_c, 0, 65, 64
3, 142999, Note_on_c, 0, 60, 64
3, 143018, Note_on_c, 0, 57, 55
3, 144010, Note_on_c, 0, 81, 113
3, 144222, Note_on_c, 0, 60, 0
3, 144230, Note_on_c, 0, 65, 0
3, 144459, Note_on_c, 0, 55, 0
3, 144472, Note_on_c, 0, 57, 0
3, 144617, Note_on_c, 0, 80, 74
3, 144703, Note_on_c, 0, 81, 0
3, 144732, Note_on_c, 0, 53, 40
3, 144754, Note_on_c, 0, 64, 36
3, 144786, Note_on_c, 0, 59, 44
3, 144898, Note_on_c, 0, 80, 0
3, 145040, Note_on_c, 0, 79, 51
3, 145526, Note_on_c, 0, 64, 0
3, 145530, Note_on_c, 0, 59, 0
3, 145603, Note_on_c, 0, 53, 0
3, 145645, Note_on_c, 0, 79, 0
3, 145961, Note_on_c, 0, 77, 48
3, 145976, Note_on_c, 0, 57, 43
3, 146000, Note_on_c, 0, 62, 34
3, 146023, Note_on_c, 0, 52, 19
3, 146364, Note_on_c, 0, 77, 0
3, 146587, Note_on_c, 0, 75, 57
3, 146843, Note_on_c, 0, 75, 0
3, 146959, Note_on_c, 0, 76, 53
3, 147065, Note_on_c, 0, 57, 0
3, 147196, Note_on_c, 0, 52, 0
3, 147257, Note_on_c, 0, 62, 0
3, 147533, Note_on_c, 0, 76, 0
3, 147569, Note_on_c, 0, 72, 61
3, 147810, Note_on_c, 0, 72, 0
3, 147980, Note_on_c, 0, 67, 33
3, 148301, Note_on_c, 0, 67, 0
3, 148773, Note_on_c, 0, 67, 48
3, 148790, Note_on_c, 0, 62, 50
3, 148794, Note_on_c, 0, 56, 42
3, 149156, Note_on_c, 0, 62, 0
3, 149299, Note_on_c, 0, 67, 0
3, 149461, Note_on_c, 0, 56, 0
3, 149753, Note_on_c, 0, 65, 45
3, 149771, Note_on_c, 0, 55, 40
3, 149780, Note_on_c, 0, 61, 51
3, 151082, Note_on_c, 0, 55, 0
3, 151173, Note_on_c, 0, 65, 0
3, 151340, Note_on_c, 0, 61, 0
3, 151411, Note_on_c, 0, 64, 54
3, 151433, Note_on_c, 0, 60, 47
3, 151437, Note_on_c, 0, 54, 46
3, 152055, Note_on_c, 0, 60, 0
3, 152078, Note_on_c, 0, 64, 0
3, 152247, Note_on_c, 0, 54, 0
3, 152372, Note_on_c, 0, 63, 59
3, 152442, Note_on_c, 0, 59, 28
3, 152450, Note_on_c, 0, 53, 28
3, 152987, Note_on_c, 0, 59, 0
3, 153216, Note_on_c, 0, 53, 0
3, 153303, Note_on_c, 0, 63, 0
3, 153395, Note_on_c, 0, 62, 29
3, 153412, Note_on_c, 0, 51, 35
3, 153486, Note_on_c, 0, 51, 0
3, 153553, Note_on_c, 0, 52, 31
3, 153570, Note_on_c, 0, 62, 0
3, 153630, Note_on_c, 0, 74, 84
3, 153981, Note_on_c, 0, 52, 0
3, 154214, Note_on_c, 0, 74, 0
3, 154605, Note_on_c, 0, 74, 71
3, 155055, Note_on_c, 0, 74, 0
3, 155200, Note_on_c, 0, 54, 49
3, 155213, Note_on_c, 0, 71, 67
3, 155234, Note_on_c, 0, 55, 38
3, 155271, Note_on_c, 0, 54, 0
3, 155344, Note_on_c, 0, 55, 0
3, 155498, Note_on_c, 0, 71, 0
3, 155714, Note_on_c, 0, 67, 44
3, 156263, Note_on_c, 0, 36, 46
3, 156952, Note_on_c, 0, 36, 0
3, 157108, Note_on_c, 0, 43, 55
3, 157353, Note_on_c, 0, 43, 0
3, 157474, Note_on_c, 0, 52, 44
3, 157882, Note_on_c, 0, 52, 0
3, 158056, Note_on_c, 0, 55, 44
3, 158108, Note_on_c, 0, 67, 0
3, 158148, Note_on_c, 0, 64, 37
3, 158264, Note_on_c, 0, 64, 0
3, 158308, Note_on_c, 0, 55, 0
3, 158385, Note_on_c, 0, 74, 68
3, 158401, Note_on_c, 0, 59, 49
3, 158408, Note_on_c, 0, 64, 53
3, 158430, Note_on_c, 0, 67, 58
3, 158832, Note_on_c, 0, 74, 0
3, 158911, Note_on_c, 0, 64, 0
3, 158928, Note_on_c, 0, 67, 0
3, 158980, Note_on_c, 0, 59, 0
3, 159067, Note_on_c, 0, 57, 41
3, 159337, Note_on_c, 0, 74, 66
3, 159344, Note_on_c, 0, 57, 0
3, 159356, Note_on_c, 0, 64, 58
3, 159362, Note_on_c, 0, 67, 51
3, 159406, Note_on_c, 0, 59, 41
3, 159695, Note_on_c, 0, 74, 0
3, 159845, Note_on_c, 0, 64, 0
3, 159872, Note_on_c, 0, 59, 0
3, 159961, Note_on_c, 0, 57, 40
3, 159974, Note_on_c, 0, 64, 26
3, 159993, Note_on_c, 0, 74, 31
3, 159999, Note_on_c, 0, 72, 33
3, 160107, Note_on_c, 0, 74, 0
3, 160155, Note_on_c, 0, 64, 0
3, 160169, Note_on_c, 0, 67, 0
3, 160199, Note_on_c, 0, 72, 0
3, 160246, Note_on_c, 0, 57, 0
3, 160253, Note_on_c, 0, 55, 37
3, 160271, Note_on_c, 0, 71, 39
3, 160650, Note_on_c, 0, 71, 0
3, 161112, Note_on_c, 0, 55, 0
3, 161222, Note_on_c, 0, 68, 37
3, 161224, Note_on_c, 0, 71, 49
3, 161232, Note_on_c, 0, 60, 49
3, 161234, Note_on_c, 0, 59, 47
3, 161236, Note_on_c, 0, 64, 51
3, 161632, Note_on_c, 0, 59, 0
3, 161707, Note_on_c, 0, 58, 47
3, 161804, Note_on_c, 0, 60, 0
3, 161827, Note_on_c, 0, 64, 0
3, 161858, Note_on_c, 0, 68, 0
3, 161881, Note_on_c, 0, 58, 0
3, 161912, Note_on_c, 0, 71, 0
3, 161921, Note_on_c, 0, 57, 39
3, 162100, Note_on_c, 0, 56, 71
3, 162145, Note_on_c, 0, 57, 0
3, 162285, Note_on_c, 0, 56, 0
3, 162435, Note_on_c, 0, 55, 71
3, 162495, Note_on_c, 0, 60, 34
3, 162543, Note_on_c, 0, 68, 48
3, 162555, Note_on_c, 0, 64, 34
3, 162611, Note_on_c, 0, 55, 0
3, 162663, Note_on_c, 0, 54, 58
3, 164845, Note_on_c, 0, 60, 0
3, 164899, Note_on_c, 0, 64, 0
3, 164985, Note_on_c, 0, 68, 0
3, 165132, Note_on_c, 0, 60, 47
3, 165134, Note_on_c, 0, 57, 51
3, 165145, Note_on_c, 0, 69, 54
3, 165172, Note_on_c, 0, 64, 33
3, 165569, Note_on_c, 0, 60, 0
3, 165609, Note_on_c, 0, 64, 0
3, 165650, Note_on_c, 0, 69, 0
3, 165769, Note_on_c, 0, 57, 0
3, 165771, Note_on_c, 0, 71, 60
3, 165790, Note_on_c, 0, 60, 49
3, 165792, Note_on_c, 0, 64, 51
3, 165815, Note_on_c, 0, 59, 63
3, 165835, Note_on_c, 0, 68, 32
3, 165875, Note_on_c, 0, 54, 0
3, 165939, Note_on_c, 0, 68, 0
3, 165958, Note_on_c, 0, 60, 0
3, 165977, Note_on_c, 0, 64, 0
3, 166016, Note_on_c, 0, 71, 0
3, 166104, Note_on_c, 0, 59, 0
3, 166185, Note_on_c, 0, 57, 36
3, 166653, Note_on_c, 0, 57, 0
3, 166738, Note_on_c, 0, 71, 64
3, 166748, Note_on_c, 0, 64, 64
3, 166765, Note_on_c, 0, 60, 50
3, 166782, Note_on_c, 0, 57, 46
3, 167497, Note_on_c, 0, 57, 0
3, 167643, Note_on_c, 0, 51, 42
3, 167814, Note_on_c, 0, 51, 0
3, 167836, Note_on_c, 0, 71, 0
3, 167911, Note_on_c, 0, 64, 0
3, 167990, Note_on_c, 0, 54, 46
3, 168007, Note_on_c, 0, 44, 35
3, 168082, Note_on_c, 0, 60, 0
3, 168477, Note_on_c, 0, 54, 0
3, 168506, Note_on_c, 0, 44, 0
3, 168629, Note_on_c, 0, 67, 61
3, 168641, Note_on_c, 0, 62, 60
3, 168660, Note_on_c, 0, 55, 52
3, 168750, Note_on_c, 0, 62, 0
3, 168822, Note_on_c, 0, 55, 0
3, 168828, Note_on_c, 0, 67, 0
3, 169708, Note_on_c, 0, 48, 35
3, 169825, Note_on_c, 0, 48, 0
3, 169850, Note_on_c, 0, 82, 53
3, 169879, Note_on_c, 0, 70, 69
3, 170183, Note_on_c, 0, 82, 0
3, 170214, Note_on_c, 0, 71, 64
3, 170216, Note_on_c, 0, 70, 0
3, 170418, Note_on_c, 0, 71, 0
3, 170505, Note_on_c, 0, 83, 44
3, 170636, Note_on_c, 0, 71, 40
3, 170640, Note_on_c, 0, 83, 0
3, 170930, Note_on_c, 0, 71, 0
3, 170942, Note_on_c, 0, 83, 51
3, 171117, Note_on_c, 0, 83, 0
3, 171121, Note_on_c, 0, 71, 30
3, 171383, Note_on_c, 0, 83, 51
3, 171385, Note_on_c, 0, 71, 0
3, 171578, Note_on_c, 0, 71, 28
3, 171580, Note_on_c, 0, 83, 0
3, 171699, Note_on_c, 0, 65, 55
3, 171745, Note_on_c, 0, 56, 33
3, 171765, Note_on_c, 0, 60, 29
3, 171790, Note_on_c, 0, 65, 0
3, 171824, Note_on_c, 0, 71, 0
3, 171834, Note_on_c, 0, 83, 52
3, 171851, Note_on_c, 0, 60, 0
3, 171963, Note_on_c, 0, 56, 0
3, 172021, Note_on_c, 0, 83, 0
3, 172034, Note_on_c, 0, 71, 41
3, 172258, Note_on_c, 0, 83, 51
3, 172286, Note_on_c, 0, 71, 0
3, 172435, Note_on_c, 0, 71, 33
3, 172471, Note_on_c, 0, 83, 0
3, 172679, Note_on_c, 0, 71, 0
3, 172691, Note_on_c, 0, 83, 52
3, 172874, Note_on_c, 0, 71, 38
3, 172895, Note_on_c, 0, 83, 0
3, 173132, Note_on_c, 0, 83, 46
3, 173140, Note_on_c, 0, 71, 0
3, 173348, Note_on_c, 0, 83, 0
3, 173353, Note_on_c, 0, 71, 40
3, 173438, Note_on_c, 0, 60, 46
3, 173448, Note_on_c, 0, 64, 53
3, 173465, Note_on_c, 0, 57, 41
3, 173523, Note_on_c, 0, 64, 0
3, 173565, Note_on_c, 0, 71, 0
3, 173590, Note_on_c, 0, 83, 54
3, 173592, Note_on_c, 0, 60, 0
3, 173667, Note_on_c, 0, 57, 0
3, 173764, Note_on_c, 0, 71, 36
3, 173785, Note_on_c, 0, 83, 0
3, 173999, Note_on_c, 0, 83, 49
3, 174033, Note_on_c, 0, 71, 0
3, 174201, Note_on_c, 0, 83, 0
3, 174355, Note_on_c, 0, 64, 66
3, 174376, Note_on_c, 0, 53, 45
3, 174378, Note_on_c, 0, 59, 41
3, 175175, Note_on_c, 0, 59, 0
3, 175507, Note_on_c, 0, 64, 0
3, 175684, Note_on_c, 0, 74, 82
3, 175688, Note_on_c, 0, 82, 72
3, 175691, Note_on_c, 0, 86, 81
3, 175740, Note_on_c, 0, 53, 0
3, 176063, Note_on_c, 0, 74, 0
3, 176106, Note_on_c, 0, 86, 0
3, 176183, Note_on_c, 0, 82, 0
3, 176292, Note_on_c, 0, 86, 66
3, 176308, Note_on_c, 0, 74, 67
3, 176329, Note_on_c, 0, 83, 65
3, 176348, Note_on_c, 0, 57, 54
3, 176350, Note_on_c, 0, 52, 44
3, 176354, Note_on_c, 0, 62, 49
3, 176593, Note_on_c, 0, 74, 0
3, 176604, Note_on_c, 0, 86, 0
3, 176649, Note_on_c, 0, 83, 0
3, 176807, Note_on_c, 0, 86, 60
3, 176839, Note_on_c, 0, 79, 67
3, 177132, Note_on_c, 0, 86, 0
3, 177242, Note_on_c, 0, 79, 0
3, 177244, Note_on_c, 0, 57, 0
3, 177317, Note_on_c, 0, 74, 57
3, 177431, Note_on_c, 0, 57, 15
3, 177538, Note_on_c, 0, 74, 0
3, 177556, Note_on_c, 0, 62, 0
3, 177706, Note_on_c, 0, 72, 32
3, 177820, Note_on_c, 0, 57, 0
3, 178195, Note_on_c, 0, 72, 0
3, 178488, Note_on_c, 0, 52, 0
3, 179243, Note_on_c, 0, 58, 63
3, 179253, Note_on_c, 0, 62, 60
3, 179276, Note_on_c, 0, 52, 52
3, 180395, Note_on_c, 0, 62, 0
3, 180426, Note_on_c, 0, 70, 72
3, 180603, Note_on_c, 0, 58, 0
3, 180720, Note_on_c, 0, 70, 0
3, 180801, Note_on_c, 0, 67, 46
3, 180913, Note_on_c, 0, 67, 0
3, 181078, Note_on_c, 0, 69, 52
3, 181279, Note_on_c, 0, 69, 0
3, 181311, Note_on_c, 0, 70, 58
3, 181404, Note_on_c, 0, 52, 0
3, 181479, Note_on_c, 0, 70, 0
3, 181589, Note_on_c, 0, 72, 46
3, 181752, Note_on_c, 0, 72, 0
3, 181866, Note_on_c, 0, 73, 32
3, 181961, Note_on_c, 0, 58, 42
3, 181982, Note_on_c, 0, 73, 0
3, 181986, Note_on_c, 0, 62, 29
3, 182076, Note_on_c, 0, 62, 0
3, 182111, Note_on_c, 0, 75, 46
3, 182168, Note_on_c, 0, 58, 0
3, 182274, Note_on_c, 0, 75, 0
3, 182473, Note_on_c, 0, 76, 40
3, 182594, Note_on_c, 0, 76, 0
3, 182779, Note_on_c, 0, 78, 35
3, 182895, Note_on_c, 0, 78, 0
3, 183033, Note_on_c, 0, 58, 53
3, 183049, Note_on_c, 0, 79, 52
3, 183080, Note_on_c, 0, 62, 38
3, 183193, Note_on_c, 0, 62, 0
3, 183212, Note_on_c, 0, 79, 0
3, 183295, Note_on_c, 0, 58, 0
3, 183301, Note_on_c, 0, 81, 55
3, 183528, Note_on_c, 0, 81, 0
3, 183586, Note_on_c, 0, 82, 61
3, 183726, Note_on_c, 0, 82, 0
3, 183942, Note_on_c, 0, 57, 29
3, 183963, Note_on_c, 0, 85, 49
3, 184143, Note_on_c, 0, 86, 35
3, 184145, Note_on_c, 0, 85, 0
3, 184260, Note_on_c, 0, 57, 0
3, 184302, Note_on_c, 0, 87, 46
3, 184370, Note_on_c, 0, 86, 0
3, 184489, Note_on_c, 0, 87, 0
3, 184495, Note_on_c, 0, 88, 45
3, 184724, Note_on_c, 0, 88, 0
3, 184749, Note_on_c, 0, 91, 70
3, 184957, Note_on_c, 0, 91, 0
3, 185055, Note_on_c, 0, 88, 38
3, 185150, Note_on_c, 0, 88, 0
3, 185256, Note_on_c, 0, 89, 63
3, 185491, Note_on_c, 0, 89, 0
3, 185579, Note_on_c, 0, 84, 54
3, 185660, Note_on_c, 0, 84, 0
3, 185820, Note_on_c, 0, 88, 75
3, 186065, Note_on_c, 0, 88, 0
3, 186119, Note_on_c, 0, 81, 49
3, 186338, Note_on_c, 0, 81, 0
3, 186948, Note_on_c, 0, 60, 41
3, 186972, Note_on_c, 0, 57, 39
3, 187064, Note_on_c, 0, 57, 0
3, 187078, Note_on_c, 0, 60, 0
3, 187879, Note_on_c, 0, 86, 92
3, 187904, Note_on_c, 0, 67, 57
3, 187927, Note_on_c, 0, 56, 50
3, 187938, Note_on_c, 0, 62, 46
3, 187956, Note_on_c, 0, 60, 33
3, 188114, Note_on_c, 0, 86, 0
3, 188272, Note_on_c, 0, 84, 66
3, 188364, Note_on_c, 0, 62, 0
3, 188403, Note_on_c, 0, 67, 0
3, 188445, Note_on_c, 0, 84, 0
3, 188557, Note_on_c, 0, 60, 0
3, 188582, Note_on_c, 0, 86, 53
3, 188771, Note_on_c, 0, 84, 49
3, 188813, Note_on_c, 0, 86, 0
3, 188959, Note_on_c, 0, 84, 0
3, 189003, Note_on_c, 0, 83, 48
3, 189038, Note_on_c, 0, 56, 0
3, 189119, Note_on_c, 0, 83, 0
3, 189256, Note_on_c, 0, 86, 87
3, 189751, Note_on_c, 0, 86, 0
3, 189826, Note_on_c, 0, 67, 29
3, 189861, Note_on_c, 0, 83, 40
3, 189889, Note_on_c, 0, 62, 33
3, 189922, Note_on_c, 0, 67, 0
3, 189972, Note_on_c, 0, 83, 0
3, 190122, Note_on_c, 0, 62, 0
3, 190128, Note_on_c, 0, 84, 82
3, 190710, Note_on_c, 0, 84, 0
3, 190737, Note_on_c, 0, 79, 63
3, 190764, Note_on_c, 0, 56, 45
3, 190766, Note_on_c, 0, 67, 48
3, 190806, Note_on_c, 0, 62, 33
3, 190862, Note_on_c, 0, 67, 0
3, 190901, Note_on_c, 0, 62, 0
3, 190939, Note_on_c, 0, 79, 0
3, 190960, Note_on_c, 0, 56, 0
3, 191160, Note_on_c, 0, 77, 17
3, 191607, Note_on_c, 0, 77, 0
3, 191667, Note_on_c, 0, 72, 54
3, 191744, Note_on_c, 0, 52, 33
3, 191761, Note_on_c, 0, 55, 41
3, 191835, Note_on_c, 0, 62, 14
3, 191862, Note_on_c, 0, 72, 0
3, 192018, Note_on_c, 0, 76, 50
3, 192025, Note_on_c, 0, 62, 0
3, 192056, Note_on_c, 0, 55, 0
3, 192239, Note_on_c, 0, 52, 0
3, 192480, Note_on_c, 0, 76, 0
3, 192630, Note_on_c, 0, 77, 74
3, 192894, Note_on_c, 0, 77, 0
3, 193046, Note_on_c, 0, 76, 46
3, 193445, Note_on_c, 0, 76, 0
3, 193556, Note_on_c, 0, 72, 64
3, 193680, Note_on_c, 0, 55, 26
3, 193820, Note_on_c, 0, 72, 0
3, 193849, Note_on_c, 0, 55, 0
3, 193942, Note_on_c, 0, 67, 34
3, 194423, Note_on_c, 0, 67, 0
3, 194550, Note_on_c, 0, 65, 54
3, 194876, Note_on_c, 0, 65, 0
3, 194947, Note_on_c, 0, 64, 33
3, 195530, Note_on_c, 0, 63, 56
3, 195561, Note_on_c, 0, 64, 0
3, 195631, Note_on_c, 0, 56, 30
3, 195748, Note_on_c, 0, 63, 0
3, 195827, Note_on_c, 0, 65, 68
3, 195883, Note_on_c, 0, 56, 0
3, 196407, Note_on_c, 0, 65, 0
3, 196443, Note_on_c, 0, 63, 37
3, 196680, Note_on_c, 0, 63, 0
3, 196800, Note_on_c, 0, 64, 67
3, 197377, Note_on_c, 0, 64, 0
3, 197445, Note_on_c, 0, 55, 44
3, 197535, Note_on_c, 0, 52, 24
3, 197541, Note_on_c, 0, 55, 0
3, 197716, Note_on_c, 0, 52, 0
3, 197751, Note_on_c, 0, 62, 65
3, 198423, Note_on_c, 0, 62, 0
3, 198485, Note_on_c, 0, 52, 30
3, 198527, Note_on_c, 0, 59, 24
3, 198593, Note_on_c, 0, 52, 0
3, 198660, Note_on_c, 0, 59, 0
3, 198783, Note_on_c, 0, 60, 55
3, 198797, Note_on_c, 0, 61, 35
3, 199242, Note_on_c, 0, 61, 0
3, 199346, Note_on_c, 0, 60, 0
3, 199363, Note_on_c, 0, 38, 49
3, 199380, Note_on_c, 0, 26, 65
3, 199394, Note_on_c, 0, 62, 64
3, 199583, Note_on_c, 0, 26, 0
3, 199758, Note_on_c, 0, 62, 0
3, 199762, Note_on_c, 0, 38, 0
3, 199933, Note_on_c, 0, 64, 54
3, 200405, Note_on_c, 0, 64, 0
3, 200632, Note_on_c, 0, 50, 32
3, 200648, Note_on_c, 0, 52, 26
3, 200651, Note_on_c, 0, 57, 54
3, 200653, Note_on_c, 0, 60, 54
3, 200671, Note_on_c, 0, 65, 50
3, 200740, Note_on_c, 0, 52, 0
3, 200929, Note_on_c, 0, 57, 0
3, 201002, Note_on_c, 0, 65, 0
3, 201023, Note_on_c, 0, 60, 0
3, 201060, Note_on_c, 0, 50, 0
3, 201299, Note_on_c, 0, 69, 65
3, 201306, Note_on_c, 0, 62, 46
3, 201316, Note_on_c, 0, 53, 57
3, 201352, Note_on_c, 0, 59, 34
3, 201356, Note_on_c, 0, 60, 38
3, 201458, Note_on_c, 0, 59, 0
3, 201514, Note_on_c, 0, 60, 0
3, 201547, Note_on_c, 0, 62, 0
3, 201607, Note_on_c, 0, 69, 0
3, 201734, Note_on_c, 0, 53, 0
3, 201871, Note_on_c, 0, 57, 41
3, 201930, Note_on_c, 0, 72, 60
3, 201946, Note_on_c, 0, 62, 44
3, 201969, Note_on_c, 0, 65, 27
3, 202134, Note_on_c, 0, 62, 0
3, 202142, Note_on_c, 0, 65, 0
3, 202242, Note_on_c, 0, 72, 0
3, 202292, Note_on_c, 0, 57, 0
3, 202516, Note_on_c, 0, 60, 56
3, 202543, Note_on_c, 0, 65, 61
3, 202545, Note_on_c, 0, 76, 54
3, 202566, Note_on_c, 0, 69, 46
3, 202572, Note_on_c, 0, 72, 48
3, 202785, Note_on_c, 0, 69, 0
3, 202801, Note_on_c, 0, 65, 0
3, 202816, Note_on_c, 0, 72, 0
3, 202907, Note_on_c, 0, 60, 0
3, 202922, Note_on_c, 0, 76, 0
3, 203201, Note_on_c, 0, 64, 64
3, 203219, Note_on_c, 0, 79, 69
3, 203221, Note_on_c, 0, 72, 57
3, 203232, Note_on_c, 0, 69, 61
3, 203251, Note_on_c, 0, 76, 49
3, 203498, Note_on_c, 0, 76, 0
3, 203517, Note_on_c, 0, 79, 0
3, 203521, Note_on_c, 0, 72, 0
3, 203612, Note_on_c, 0, 69, 0
3, 203706, Note_on_c, 0, 64, 0
3, 203831, Note_on_c, 0, 79, 42
3, 203904, Note_on_c, 0, 64, 54
3, 203927, Note_on_c, 0, 72, 27
3, 203937, Note_on_c, 0, 69, 13
3, 204103, Note_on_c, 0, 72, 0
3, 204182, Note_on_c, 0, 79, 0
3, 204193, Note_on_c, 0, 69, 0
3, 204214, Note_on_c, 0, 64, 0
3, 204469, Note_on_c, 0, 77, 50
3, 204515, Note_on_c, 0, 64, 54
3, 204800, Note_on_c, 0, 64, 0
3, 205023, Note_on_c, 0, 77, 0
3, 205156, Note_on_c, 0, 72, 48
3, 205164, Note_on_c, 0, 67, 62
3, 205168, Note_on_c, 0, 76, 50
3, 205181, Note_on_c, 0, 68, 43
3, 205181, Note_on_c, 0, 79, 53
3, 205202, Note_on_c, 0, 77, 16
3, 205728, Note_on_c, 0, 76, 0
3, 205757, Note_on_c, 0, 77, 0
3, 205765, Note_on_c, 0, 79, 0
3, 205786, Note_on_c, 0, 72, 0
3, 205794, Note_on_c, 0, 68, 0
3, 205967, Note_on_c, 0, 67, 0
3, 206056, Note_on_c, 0, 77, 62
3, 206059, Note_on_c, 0, 68, 62
3, 206077, Note_on_c, 0, 65, 40
3, 206113, Note_on_c, 0, 72, 34
3, 206223, Note_on_c, 0, 72, 0
3, 206231, Note_on_c, 0, 65, 0
3, 206237, Note_on_c, 0, 62, 44
3, 206287, Note_on_c, 0, 68, 0
3, 206466, Note_on_c, 0, 77, 0
3, 206476, Note_on_c, 0, 76, 29
3, 206822, Note_on_c, 0, 76, 0
3, 206880, Note_on_c, 0, 62, 0
3, 206942, Note_on_c, 0, 61, 40
3, 207021, Note_on_c, 0, 78, 47
3, 207036, Note_on_c, 0, 68, 49
3, 207061, Note_on_c, 0, 73, 34
3, 207128, Note_on_c, 0, 63, 59
3, 207136, Note_on_c, 0, 61, 0
3, 207209, Note_on_c, 0, 68, 0
3, 207304, Note_on_c, 0, 73, 0
3, 207334, Note_on_c, 0, 78, 0
3, 207400, Note_on_c, 0, 63, 0
3, 207419, Note_on_c, 0, 79, 41
3, 207444, Note_on_c, 0, 74, 45
3, 207477, Note_on_c, 0, 64, 50
3, 207502, Note_on_c, 0, 69, 17
3, 207924, Note_on_c, 0, 74, 0
3, 208028, Note_on_c, 0, 79, 0
3, 208036, Note_on_c, 0, 69, 0
3, 208122, Note_on_c, 0, 64, 0
3, 208267, Note_on_c, 0, 76, 61
3, 208305, Note_on_c, 0, 67, 55
3, 208309, Note_on_c, 0, 72, 54
3, 208315, Note_on_c, 0, 56, 49
3, 208334, Note_on_c, 0, 62, 49
3, 208796, Note_on_c, 0, 62, 0
3, 208821, Note_on_c, 0, 67, 0
3, 208850, Note_on_c, 0, 72, 0
3, 208933, Note_on_c, 0, 76, 0
3, 208979, Note_on_c, 0, 56, 0
3, 209260, Note_on_c, 0, 73, 46
3, 209262, Note_on_c, 0, 61, 48
3, 209268, Note_on_c, 0, 55, 54
3, 209272, Note_on_c, 0, 77, 57
3, 209280, Note_on_c, 0, 70, 47
3, 209289, Note_on_c, 0, 67, 55
3, 209803, Note_on_c, 0, 67, 0
3, 209817, Note_on_c, 0, 70, 0
3, 209827, Note_on_c, 0, 73, 0
3, 209836, Note_on_c, 0, 55, 0
3, 209842, Note_on_c, 0, 77, 0
3, 209911, Note_on_c, 0, 61, 0
3, 210166, Note_on_c, 0, 61, 50
3, 210175, Note_on_c, 0, 77, 51
3, 210189, Note_on_c, 0, 55, 44
3, 210196, Note_on_c, 0, 70, 49
3, 210200, Note_on_c, 0, 73, 34
3, 210206, Note_on_c, 0, 67, 51
3, 210622, Note_on_c, 0, 77, 0
3, 210624, Note_on_c, 0, 55, 0
3, 210720, Note_on_c, 0, 67, 0
3, 210895, Note_on_c, 0, 70, 0
3, 210899, Note_on_c, 0, 61, 0
3, 210907, Note_on_c, 0, 73, 0
3, 211175, Note_on_c, 0, 74, 54
3, 211179, Note_on_c, 0, 66, 48
3, 211196, Note_on_c, 0, 54, 48
3, 211209, Note_on_c, 0, 60, 52
3, 211238, Note_on_c, 0, 68, 25
3, 211244, Note_on_c, 0, 72, 25
3, 211620, Note_on_c, 0, 68, 0
3, 211654, Note_on_c, 0, 72, 0
3, 211660, Note_on_c, 0, 66, 0
3, 211699, Note_on_c, 0, 60, 0
3, 211741, Note_on_c, 0, 74, 0
3, 211885, Note_on_c, 0, 54, 0
3, 212117, Note_on_c, 0, 75, 62
3, 212142, Note_on_c, 0, 66, 65
3, 212149, Note_on_c, 0, 63, 59
3, 212176, Note_on_c, 0, 68, 46
3, 212238, Note_on_c, 0, 71, 32
3, 212450, Note_on_c, 0, 59, 1
3, 212665, Note_on_c, 0, 68, 0
3, 212714, Note_on_c, 0, 71, 0
3, 212721, Note_on_c, 0, 59, 0
3, 212746, Note_on_c, 0, 66, 0
3, 212777, Note_on_c, 0, 63, 0
3, 212825, Note_on_c, 0, 75, 0
3, 213049, Note_on_c, 0, 76, 61
3, 213070, Note_on_c, 0, 53, 20
3, 213083, Note_on_c, 0, 64, 33
3, 213095, Note_on_c, 0, 65, 60
3, 213101, Note_on_c, 0, 71, 56
3, 213112, Note_on_c, 0, 68, 46
3, 213160, Note_on_c, 0, 59, 29
3, 213176, Note_on_c, 0, 74, 27
3, 213519, Note_on_c, 0, 71, 0
3, 213547, Note_on_c, 0, 53, 0
3, 213561, Note_on_c, 0, 65, 0
3, 213580, Note_on_c, 0, 68, 0
3, 213603, Note_on_c, 0, 74, 0
3, 213609, Note_on_c, 0, 59, 0
3, 213613, Note_on_c, 0, 64, 0
3, 213669, Note_on_c, 0, 76, 0
3, 213750, Note_on_c, 0, 71, 48
3, 213796, Note_on_c, 0, 53, 25
3, 213850, Note_on_c, 0, 59, 34
3, 213879, Note_on_c, 0, 56, 33
3, 214013, Note_on_c, 0, 71, 0
3, 214193, Note_on_c, 0, 67, 29
3, 214222, Note_on_c, 0, 59, 0
3, 214449, Note_on_c, 0, 53, 0
3, 214507, Note_on_c, 0, 56, 0
3, 214649, Note_on_c, 0, 67, 0
3, 214740, Note_on_c, 0, 64, 54
3, 214794, Note_on_c, 0, 52, 34
3, 214805, Note_on_c, 0, 57, 33
3, 214859, Note_on_c, 0, 62, 22
3, 215065, Note_on_c, 0, 64, 0
3, 215238, Note_on_c, 0, 76, 62
3, 215518, Note_on_c, 0, 57, 0
3, 215726, Note_on_c, 0, 57, 27
3, 215864, Note_on_c, 0, 62, 0
3, 215945, Note_on_c, 0, 57, 0
3, 215949, Note_on_c, 0, 76, 0
3, 215963, Note_on_c, 0, 52, 0
3, 215966, Note_on_c, 0, 71, 50
3, 216631, Note_on_c, 0, 71, 0
3, 216664, Note_on_c, 0, 74, 69
3, 216687, Note_on_c, 0, 64, 43
3, 216704, Note_on_c, 0, 60, 51
3, 216783, Note_on_c, 0, 64, 0
3, 216937, Note_on_c, 0, 60, 0
3, 217727, Note_on_c, 0, 59, 25
3, 217833, Note_on_c, 0, 59, 0
3, 217933, Note_on_c, 0, 74, 0
3, 217950, Note_on_c, 0, 69, 49
3, 218528, Note_on_c, 0, 69, 0
3, 218611, Note_on_c, 0, 72, 74
3, 218659, Note_on_c, 0, 62, 43
3, 218680, Note_on_c, 0, 57, 49
3, 218690, Note_on_c, 0, 52, 27
3, 218751, Note_on_c, 0, 62, 0
3, 218823, Note_on_c, 0, 52, 0
3, 218905, Note_on_c, 0, 57, 0
3, 219346, Note_on_c, 0, 71, 51
3, 219437, Note_on_c, 0, 72, 0
3, 219553, Note_on_c, 0, 70, 48
3, 219591, Note_on_c, 0, 71, 0
3, 219757, Note_on_c, 0, 69, 58
3, 219797, Note_on_c, 0, 70, 0
3, 219911, Note_on_c, 0, 69, 0
3, 220042, Note_on_c, 0, 72, 76
3, 220637, Note_on_c, 0, 64, 47
3, 220639, Note_on_c, 0, 60, 55
3, 220720, Note_on_c, 0, 64, 0
3, 220741, Note_on_c, 0, 60, 0
3, 221534, Note_on_c, 0, 62, 62
3, 221544, Note_on_c, 0, 52, 51
3, 221546, Note_on_c, 0, 57, 51
3, 221603, Note_on_c, 0, 62, 0
3, 221634, Note_on_c, 0, 57, 0
3, 221740, Note_on_c, 0, 52, 0
3, 222376, Note_on_c, 0, 38, 74
3, 222524, Note_on_c, 0, 38, 0
3, 223198, Note_on_c, 0, 72, 0
3, 223385, Note_on_c, 0, 64, 57
3, 223391, Note_on_c, 0, 54, 46
3, 223412, Note_on_c, 0, 60, 45
3, 223466, Note_on_c, 0, 64, 0
3, 223562, Note_on_c, 0, 54, 0
3, 223593, Note_on_c, 0, 60, 0
3, 223635, Note_on_c, 0, 88, 68
3, 223653, Note_on_c, 0, 76, 59
3, 224365, Note_on_c, 0, 60, 32
3, 224483, Note_on_c, 0, 60, 0
3, 225155, Note_on_c, 0, 88, 0
3, 225209, Note_on_c, 0, 76, 0
3, 225278, Note_on_c, 0, 54, 48
3, 225296, Note_on_c, 0, 64, 40
3, 225298, Note_on_c, 0, 81, 47
3, 225346, Note_on_c, 0, 60, 30
3, 225457, Note_on_c, 0, 64, 0
3, 225465, Note_on_c, 0, 60, 0
3, 225486, Note_on_c, 0, 81, 0
3, 225575, Note_on_c, 0, 86, 68
3, 225585, Note_on_c, 0, 64, 24
3, 225608, Note_on_c, 0, 74, 51
3, 225637, Note_on_c, 0, 60, 17
3, 225891, Note_on_c, 0, 60, 0
3, 225954, Note_on_c, 0, 54, 0
3, 225993, Note_on_c, 0, 64, 0
3, 226058, Note_on_c, 0, 74, 0
3, 226089, Note_on_c, 0, 86, 0
3, 226524, Note_on_c, 0, 54, 47
3, 226551, Note_on_c, 0, 72, 53
3, 226557, Note_on_c, 0, 64, 34
3, 226561, Note_on_c, 0, 84, 43
3, 226578, Note_on_c, 0, 60, 28
3, 226580, Note_on_c, 0, 83, 52
3, 226992, Note_on_c, 0, 83, 0
3, 227046, Note_on_c, 0, 84, 0
3, 227058, Note_on_c, 0, 60, 0
3, 227064, Note_on_c, 0, 72, 0
3, 227066, Note_on_c, 0, 64, 0
3, 227068, Note_on_c, 0, 54, 0
3, 227468, Note_on_c, 0, 54, 51
3, 227478, Note_on_c, 0, 64, 46
3, 227516, Note_on_c, 0, 84, 62
3, 227520, Note_on_c, 0, 72, 55
3, 227522, Note_on_c, 0, 60, 49
3, 227938, Note_on_c, 0, 72, 0
3, 227949, Note_on_c, 0, 84, 0
3, 228036, Note_on_c, 0, 60, 0
3, 228092, Note_on_c, 0, 64, 0
3, 228106, Note_on_c, 0, 54, 0
3, 229103, Note_on_c, 0, 64, 64
3, 229132, Note_on_c, 0, 54, 45
3, 229149, Note_on_c, 0, 60, 44
3, 229194, Note_on_c, 0, 58, 36
3, 229309, Note_on_c, 0, 64, 0
3, 229359, Note_on_c, 0, 60, 0
3, 229400, Note_on_c, 0, 54, 0
3, 229527, Note_on_c, 0, 58, 0
3, 230022, Note_on_c, 0, 82, 83
3, 230041, Note_on_c, 0, 70, 90
3, 230072, Note_on_c, 0, 64, 75
3, 230085, Note_on_c, 0, 80, 32
3, 230091, Note_on_c, 0, 59, 61
3, 230193, Note_on_c, 0, 59, 0
3, 230228, Note_on_c, 0, 64, 0
3, 230317, Note_on_c, 0, 80, 0
3, 230332, Note_on_c, 0, 70, 0
3, 230361, Note_on_c, 0, 82, 0
3, 230396, Note_on_c, 0, 71, 25
3, 230659, Note_on_c, 0, 71, 0
3, 230706, Note_on_c, 0, 83, 57
3, 231000, Note_on_c, 0, 71, 45
3, 231027, Note_on_c, 0, 83, 0
3, 231389, Note_on_c, 0, 77, 56
3, 231410, Note_on_c, 0, 71, 0
3, 231984, Note_on_c, 0, 77, 0
3, 232277, Note_on_c, 0, 61, 42
3, 232289, Note_on_c, 0, 58, 51
3, 232296, Note_on_c, 0, 64, 46
3, 232298, Note_on_c, 0, 81, 64
3, 232310, Note_on_c, 0, 55, 33
3, 232685, Note_on_c, 0, 81, 0
3, 232716, Note_on_c, 0, 61, 0
3, 232822, Note_on_c, 0, 58, 0
3, 232911, Note_on_c, 0, 64, 0
3, 233113, Note_on_c, 0, 55, 0
3, 233248, Note_on_c, 0, 76, 71
3, 233760, Note_on_c, 0, 76, 0
3, 234247, Note_on_c, 0, 57, 44
3, 234249, Note_on_c, 0, 79, 83
3, 234265, Note_on_c, 0, 64, 26
3, 234288, Note_on_c, 0, 53, 25
3, 234307, Note_on_c, 0, 60, 26
3, 234788, Note_on_c, 0, 79, 0
3, 234927, Note_on_c, 0, 78, 30
3, 234977, Note_on_c, 0, 64, 0
3, 235104, Note_on_c, 0, 78, 0
3, 235106, Note_on_c, 0, 60, 0
3, 235212, Note_on_c, 0, 79, 68
3, 235314, Note_on_c, 0, 53, 0
3, 235370, Note_on_c, 0, 57, 0
3, 235842, Note_on_c, 0, 64, 66
3, 235869, Note_on_c, 0, 59, 50
3, 235882, Note_on_c, 0, 53, 37
3, 236031, Note_on_c, 0, 79, 0
3, 236880, Note_on_c, 0, 67, 62
3, 237069, Note_on_c, 0, 64, 0
3, 237075, Note_on_c, 0, 67, 0
3, 237165, Note_on_c, 0, 59, 0
3, 237242, Note_on_c, 0, 69, 45
3, 237271, Note_on_c, 0, 53, 0
3, 237681, Note_on_c, 0, 69, 0
3, 237806, Note_on_c, 0, 62, 59
3, 237816, Note_on_c, 0, 72, 78
3, 237849, Note_on_c, 0, 57, 50
3, 237872, Note_on_c, 0, 52, 32
3, 237935, Note_on_c, 0, 62, 0
3, 237945, Note_on_c, 0, 57, 0
3, 238039, Note_on_c, 0, 72, 0
3, 238113, Note_on_c, 0, 52, 0
3, 238733, Note_on_c, 0, 52, 60
3, 238741, Note_on_c, 0, 64, 64
3, 239698, Note_on_c, 0, 51, 45
3, 239702, Note_on_c, 0, 52, 0
3, 239802, Note_on_c, 0, 64, 0
3, 239952, Note_on_c, 0, 65, 54
3, 239954, Note_on_c, 0, 51, 0
3, 239985, Note_on_c, 0, 72, 39
3, 239998, Note_on_c, 0, 53, 29
3, 240506, Note_on_c, 0, 65, 0
3, 240578, Note_on_c, 0, 72, 0
3, 240614, Note_on_c, 0, 51, 32
3, 240701, Note_on_c, 0, 53, 0
3, 240901, Note_on_c, 0, 51, 0
3, 240913, Note_on_c, 0, 54, 35
3, 240915, Note_on_c, 0, 66, 45
3, 240957, Note_on_c, 0, 72, 30
3, 241302, Note_on_c, 0, 72, 0
3, 241423, Note_on_c, 0, 66, 0
3, 241772, Note_on_c, 0, 54, 0
3, 241872, Note_on_c, 0, 55, 40
3, 241876, Note_on_c, 0, 72, 48
3, 241905, Note_on_c, 0, 67, 58
3, 241959, Note_on_c, 0, 55, 0
3, 242028, Note_on_c, 0, 72, 0
3, 242061, Note_on_c, 0, 67, 0
3, 242404, Note_on_c, 0, 44, 33
3, 242565, Note_on_c, 0, 44, 0
3, 242800, Note_on_c, 0, 37, 37
3, 242839, Note_on_c, 0, 63, 36
3, 242848, Note_on_c, 0, 44, 13
3, 242879, Note_on_c, 0, 47, 19
3, 242937, Note_on_c, 0, 53, 16
3, 242972, Note_on_c, 0, 56, 17
3, 243197, Note_on_c, 0, 47, 0
3, 243245, Note_on_c, 0, 63, 0
3, 243251, Note_on_c, 0, 53, 0
3, 243372, Note_on_c, 0, 56, 0
3, 243422, Note_on_c, 0, 37, 0
3, 243451, Note_on_c, 0, 44, 0
3, 243530, Note_on_c, 0, 62, 40
3, 243557, Note_on_c, 0, 58, 46
3, 243563, Note_on_c, 0, 52, 26
3, 243586, Note_on_c, 0, 55, 43
3, 243617, Note_on_c, 0, 36, 33
3, 243625, Note_on_c, 0, 43, 31
3, 243717, Control_c, 0, 64, 127
3, 244518, Note_on_c, 0, 43, 0
3, 244626, Note_on_c, 0, 36, 0
3, 246055, Note_on_c, 0, 24, 14
3, 246413, Note_on_c, 0, 24, 0
3, 246864, Note_on_c, 0, 24, 53
3, 247268, Note_on_c, 0, 52, 0
3, 247297, Note_on_c, 0, 55, 0
3, 247424, Note_on_c, 0, 62, 0
3, 247476, Note_on_c, 0, 58, 0
3, 249703, Control_c, 0, 64, 0
3, 251690, Note_on_c, 0, 24, 0
3, 251690, End_track
4, 0, Start_track
4, 0, Title_t, "Drums"
4, 0, Program_c, 9, 0
4, 0, Control_c, 9, 7, 79
4, 0, Note_on_c, 9, 51, 56
4, 0, Note_on_c, 9, 51, 0
4, 58, Note_on_c, 9, 36, 36
4, 97, Note_on_c, 9, 51, 69
4, 224, Note_on_c, 9, 36, 0
4, 681, Note_on_c, 9, 51, 0
4, 1043, Note_on_c, 9, 51, 83
4, 1632, Note_on_c, 9, 51, 0
4, 1994, Note_on_c, 9, 51, 78
4, 2550, Note_on_c, 9, 51, 0
4, 2860, Note_on_c, 9, 51, 74
4, 3417, Note_on_c, 9, 51, 0
4, 3633, Note_on_c, 9, 51, 69
4, 3777, Note_on_c, 9, 51, 0
4, 3885, Note_on_c, 9, 51, 75
4, 4422, Note_on_c, 9, 51, 0
4, 4775, Note_on_c, 9, 51, 76
4, 5333, Note_on_c, 9, 51, 0
4, 5380, Note_on_c, 9, 38, 27
4, 5517, Note_on_c, 9, 38, 0
4, 5768, Note_on_c, 9, 51, 78
4, 6302, Note_on_c, 9, 38, 39
4, 6306, Note_on_c, 9, 51, 0
4, 6482, Note_on_c, 9, 38, 0
4, 6700, Note_on_c, 9, 51, 74
4, 7240, Note_on_c, 9, 51, 0
4, 7298, Note_on_c, 9, 36, 50
4, 7350, Note_on_c, 9, 53, 74
4, 7506, Note_on_c, 9, 36, 0
4, 7619, Note_on_c, 9, 53, 0
4, 7633, Note_on_c, 9, 36, 18
4, 7716, Note_on_c, 9, 51, 32
4, 8019, Note_on_c, 9, 36, 0
4, 8465, Note_on_c, 9, 51, 0
4, 8669, Note_on_c, 9, 51, 64
4, 9191, Note_on_c, 9, 51, 0
4, 9339, Note_on_c, 9, 51, 48
4, 9438, Note_on_c, 9, 36, 38
4, 9528, Note_on_c, 9, 51, 0
4, 9590, Note_on_c, 9, 36, 0
4, 9643, Note_on_c, 9, 51, 73
4, 10346, Note_on_c, 9, 51, 0
4, 10582, Note_on_c, 9, 51, 76
4, 11138, Note_on_c, 9, 51, 0
4, 11150, Note_on_c, 9, 38, 60
4, 11292, Note_on_c, 9, 51, 45
4, 11356, Note_on_c, 9, 38, 0
4, 11398, Note_on_c, 9, 51, 0
4, 11533, Note_on_c, 9, 51, 69
4, 11688, Note_on_c, 9, 36, 20
4, 11818, Note_on_c, 9, 36, 0
4, 12159, Note_on_c, 9, 36, 43
4, 12240, Note_on_c, 9, 51, 0
4, 12367, Note_on_c, 9, 36, 0
4, 12480, Note_on_c, 9, 51, 74
4, 13168, Note_on_c, 9, 51, 0
4, 13507, Note_on_c, 9, 51, 71
4, 14152, Note_on_c, 9, 51, 0
4, 14334, Note_on_c, 9, 44, 43
4, 14341, Note_on_c, 9, 51, 71
4, 14746, Note_on_c, 9, 44, 0
4, 14888, Note_on_c, 9, 51, 0
4, 15057, Note_on_c, 9, 51, 55
4, 15221, Note_on_c, 9, 51, 0
4, 15339, Note_on_c, 9, 51, 69
4, 16011, Note_on_c, 9, 51, 0
4, 16200, Note_on_c, 9, 44, 60
4, 16280, Note_on_c, 9, 51, 73
4, 16612, Note_on_c, 9, 44, 0
4, 16837, Note_on_c, 9, 51, 0
4, 16989, Note_on_c, 9, 51, 55
4, 17151, Note_on_c, 9, 51, 0
4, 17282, Note_on_c, 9, 51, 67
4, 17866, Note_on_c, 9, 38, 69
4, 17983, Note_on_c, 9, 51, 0
4, 18024, Note_on_c, 9, 38, 0
4, 18270, Note_on_c, 9, 51, 75
4, 18753, Note_on_c, 9, 51, 0
4, 18806, Note_on_c, 9, 36, 58
4, 18915, Note_on_c, 9, 51, 48
4, 19016, Note_on_c, 9, 36, 0
4, 19086, Note_on_c, 9, 51, 0
4, 19156, Note_on_c, 9, 36, 28
4, 19202, Note_on_c, 9, 51, 70
4, 19630, Note_on_c, 9, 36, 0
4, 19882, Note_on_c, 9, 51, 0
4, 20157, Note_on_c, 9, 51, 77
4, 20789, Note_on_c, 9, 51, 0
4, 20803, Note_on_c, 9, 36, 53
4, 20967, Note_on_c, 9, 36, 0
4, 21107, Note_on_c, 9, 51, 76
4, 21671, Note_on_c, 9, 51, 0
4, 21718, Note_on_c, 9, 36, 56
4, 21833, Note_on_c, 9, 51, 38
4, 21883, Note_on_c, 9, 36, 0
4, 21925, Note_on_c, 9, 51, 0
4, 22066, Note_on_c, 9, 51, 67
4, 22099, Note_on_c, 9, 36, 32
4, 22303, Note_on_c, 9, 36, 0
4, 22722, Note_on_c, 9, 51, 0
4, 23036, Note_on_c, 9, 51, 74
4, 23599, Note_on_c, 9, 51, 0
4, 23747, Note_on_c, 9, 51, 49
4, 23857, Note_on_c, 9, 51, 0
4, 23990, Note_on_c, 9, 51, 72
4, 24598, Note_on_c, 9, 51, 0
4, 24699, Note_on_c, 9, 36, 37
4, 24815, Note_on_c, 9, 36, 0
4, 24982, Note_on_c, 9, 51, 77
4, 25194, Note_on_c, 9, 44, 33
4, 25444, Note_on_c, 9, 44, 0
4, 25611, Note_on_c, 9, 51, 0
4, 25926, Note_on_c, 9, 44, 42
4, 25937, Note_on_c, 9, 51, 73
4, 26317, Note_on_c, 9, 44, 0
4, 26572, Note_on_c, 9, 51, 0
4, 26596, Note_on_c, 9, 44, 48
4, 26881, Note_on_c, 9, 44, 0
4, 26909, Note_on_c, 9, 51, 55
4, 27259, Note_on_c, 9, 44, 40
4, 27485, Note_on_c, 9, 51, 0
4, 27503, Note_on_c, 9, 44, 0
4, 27539, Note_on_c, 9, 59, 74
4, 27847, Note_on_c, 9, 59, 0
4, 27870, Note_on_c, 9, 51, 29
4, 27937, Note_on_c, 9, 44, 44
4, 28243, Note_on_c, 9, 44, 0
4, 28539, Note_on_c, 9, 44, 43
4, 28600, Note_on_c, 9, 51, 0
4, 28751, Note_on_c, 9, 44, 0
4, 28824, Note_on_c, 9, 51, 73
4, 29113, Note_on_c, 9, 44, 51
4, 29327, Note_on_c, 9, 44, 0
4, 29484, Note_on_c, 9, 51, 0
4, 29745, Note_on_c, 9, 44, 55
4, 29781, Note_on_c, 9, 51, 65
4, 29936, Note_on_c, 9, 44, 0
4, 30164, Note_on_c, 9, 51, 0
4, 30422, Note_on_c, 9, 53, 90
4, 30429, Note_on_c, 9, 38, 80
4, 30659, Note_on_c, 9, 53, 0
4, 30671, Note_on_c, 9, 38, 0
4, 30741, Note_on_c, 9, 36, 74
4, 30773, Note_on_c, 9, 51, 42
4, 31050, Note_on_c, 9, 51, 0
4, 31292, Note_on_c, 9, 36, 0
4, 31776, Note_on_c, 9, 51, 38
4, 32192, Note_on_c, 9, 51, 0
4, 32699, Note_on_c, 9, 51, 44
4, 33246, Note_on_c, 9, 51, 0
4, 33266, Note_on_c, 9, 38, 69
4, 33274, Note_on_c, 9, 53, 105
4, 33431, Note_on_c, 9, 38, 0
4, 33486, Note_on_c, 9, 53, 0
4, 33591, Note_on_c, 9, 57, 58
4, 33610, Note_on_c, 9, 36, 57
4, 33673, Note_on_c, 9, 51, 32
4, 34245, Note_on_c, 9, 51, 0
4, 34592, Note_on_c, 9, 51, 46
4, 34924, Note_on_c, 9, 57, 0
4, 34979, Note_on_c, 9, 51, 0
4, 35464, Note_on_c, 9, 51, 52
4, 35886, Note_on_c, 9, 51, 0
4, 36039, Note_on_c, 9, 36, 0
4, 36152, Note_on_c, 9, 51, 83
4, 36352, Note_on_c, 9, 51, 0
4, 36454, Note_on_c, 9, 51, 63
4, 37063, Note_on_c, 9, 51, 0
4, 37442, Note_on_c, 9, 51, 36
4, 37474, Note_on_c, 9, 38, 22
4, 37566, Note_on_c, 9, 38, 0
4, 37705, Note_on_c, 9, 38, 40
4, 37861, Note_on_c, 9, 38, 0
4, 37997, Note_on_c, 9, 51, 0
4, 38118, Note_on_c, 9, 51, 52
4, 38132, Note_on_c, 9, 36, 38
4, 38254, Note_on_c, 9, 36, 0
4, 38263, Note_on_c, 9, 51, 0
4, 38388, Note_on_c, 9, 51, 74
4, 38498, Note_on_c, 9, 38, 45
4, 38606, Note_on_c, 9, 38, 0
4, 38849, Note_on_c, 9, 38, 36
4, 38945, Note_on_c, 9, 38, 0
4, 39058, Note_on_c, 9, 51, 0
4, 39378, Note_on_c, 9, 51, 73
4, 39977, Note_on_c, 9, 51, 0
4, 40352, Note_on_c, 9, 51, 67
4, 40820, Note_on_c, 9, 51, 0
4, 40900, Note_on_c, 9, 36, 27
4, 40971, Note_on_c, 9, 36, 0
4, 41261, Note_on_c, 9, 51, 69
4, 41561, Note_on_c, 9, 38, 42
4, 41682, Note_on_c, 9, 38, 0
4, 41814, Note_on_c, 9, 51, 0
4, 41898, Note_on_c, 9, 36, 54
4, 41959, Note_on_c, 9, 51, 55
4, 42000, Note_on_c, 9, 36, 0
4, 42116, Note_on_c, 9, 51, 0
4, 42249, Note_on_c, 9, 51, 62
4, 42267, Note_on_c, 9, 38, 40
4, 42466, Note_on_c, 9, 38, 0
4, 42593, Note_on_c, 9, 38, 42
4, 42710, Note_on_c, 9, 38, 0
4, 42785, Note_on_c, 9, 51, 0
4, 43015, Note_on_c, 9, 36, 43
4, 43140, Note_on_c, 9, 36, 0
4, 43191, Note_on_c, 9, 51, 71
4, 43640, Note_on_c, 9, 51, 0
4, 43865, Note_on_c, 9, 51, 42
4, 44008, Note_on_c, 9, 51, 0
4, 44154, Note_on_c, 9, 51, 59
4, 44668, Note_on_c, 9, 51, 0
4, 44748, Note_on_c, 9, 36, 67
4, 44921, Note_on_c, 9, 36, 0
4, 45132, Note_on_c, 9, 51, 74
4, 45660, Note_on_c, 9, 51, 0
4, 46099, Note_on_c, 9, 51, 67
4, 46606, Note_on_c, 9, 51, 0
4, 46745, Note_on_c, 9, 36, 35
4, 46791, Note_on_c, 9, 51, 39
4, 46834, Note_on_c, 9, 36, 0
4, 46954, Note_on_c, 9, 51, 0
4, 47078, Note_on_c, 9, 51, 59
4, 47100, Note_on_c, 9, 38, 22
4, 47508, Note_on_c, 9, 38, 0
4, 47699, Note_on_c, 9, 38, 49
4, 47759, Note_on_c, 9, 51, 0
4, 47853, Note_on_c, 9, 38, 0
4, 48037, Note_on_c, 9, 36, 32
4, 48058, Note_on_c, 9, 51, 74
4, 48217, Note_on_c, 9, 36, 0
4, 48620, Note_on_c, 9, 51, 0
4, 48638, Note_on_c, 9, 36, 57
4, 48818, Note_on_c, 9, 36, 0
4, 48948, Note_on_c, 9, 51, 73
4, 49410, Note_on_c, 9, 51, 0
4, 49603, Note_on_c, 9, 51, 39
4, 49737, Note_on_c, 9, 51, 0
4, 49876, Note_on_c, 9, 51, 63
4, 50419, Note_on_c, 9, 51, 0
4, 50810, Note_on_c, 9, 51, 74
4, 51295, Note_on_c, 9, 51, 0
4, 51536, Note_on_c, 9, 53, 76
4, 51786, Note_on_c, 9, 53, 0
4, 51898, Note_on_c, 9, 51, 33
4, 52305, Note_on_c, 9, 51, 0
4, 52476, Note_on_c, 9, 51, 37
4, 52609, Note_on_c, 9, 51, 0
4, 52765, Note_on_c, 9, 51, 59
4, 52814, Note_on_c, 9, 38, 27
4, 53147, Note_on_c, 9, 38, 0
4, 53417, Note_on_c, 9, 38, 42
4, 53420, Note_on_c, 9, 51, 0
4, 53609, Note_on_c, 9, 38, 0
4, 53728, Note_on_c, 9, 51, 72
4, 54294, Note_on_c, 9, 51, 0
4, 54695, Note_on_c, 9, 51, 64
4, 55313, Note_on_c, 9, 51, 0
4, 55662, Note_on_c, 9, 51, 75
4, 56399, Note_on_c, 9, 51, 0
4, 56646, Note_on_c, 9, 51, 60
4, 56658, Note_on_c, 9, 38, 22
4, 56804, Note_on_c, 9, 38, 0
4, 57218, Note_on_c, 9, 51, 0
4, 57368, Note_on_c, 9, 51, 49
4, 57468, Note_on_c, 9, 51, 0
4, 57611, Note_on_c, 9, 51, 60
4, 58298, Note_on_c, 9, 51, 0
4, 58318, Note_on_c, 9, 38, 42
4, 58416, Note_on_c, 9, 38, 0
4, 58575, Note_on_c, 9, 51, 74
4, 59232, Note_on_c, 9, 51, 0
4, 59281, Note_on_c, 9, 38, 71
4, 59445, Note_on_c, 9, 38, 0
4, 59548, Note_on_c, 9, 51, 67
4, 60201, Note_on_c, 9, 51, 0
4, 60203, Note_on_c, 9, 38, 78
4, 60435, Note_on_c, 9, 38, 0
4, 60484, Note_on_c, 9, 51, 50
4, 60669, Note_on_c, 9, 51, 0
4, 61112, Note_on_c, 9, 57, 79
4, 61120, Note_on_c, 9, 38, 72
4, 61185, Note_on_c, 9, 51, 37
4, 61282, Note_on_c, 9, 38, 0
4, 61426, Note_on_c, 9, 57, 81
4, 61467, Note_on_c, 9, 36, 69
4, 61518, Note_on_c, 9, 51, 0
4, 62036, Note_on_c, 9, 57, 0
4, 62067, Note_on_c, 9, 51, 37
4, 62171, Note_on_c, 9, 51, 0
4, 62352, Note_on_c, 9, 51, 62
4, 62888, Note_on_c, 9, 57, 0
4, 63124, Note_on_c, 9, 51, 0
4, 63315, Note_on_c, 9, 51, 54
4, 63987, Note_on_c, 9, 51, 0
4, 64146, Note_on_c, 9, 36, 0
4, 64338, Note_on_c, 9, 51, 64
4, 64642, Note_on_c, 9, 51, 0
4, 64977, Note_on_c, 9, 51, 57
4, 65110, Note_on_c, 9, 51, 0
4, 65301, Note_on_c, 9, 51, 62
4, 65932, Note_on_c, 9, 51, 0
4, 66225, Note_on_c, 9, 51, 69
4, 66689, Note_on_c, 9, 51, 0
4, 66855, Note_on_c, 9, 51, 40
4, 66947, Note_on_c, 9, 51, 0
4, 67117, Note_on_c, 9, 51, 63
4, 67130, Note_on_c, 9, 53, 64
4, 67814, Note_on_c, 9, 51, 0
4, 67876, Note_on_c, 9, 53, 0
4, 68122, Note_on_c, 9, 51, 52
4, 68127, Note_on_c, 9, 38, 40
4, 68500, Note_on_c, 9, 51, 0
4, 68546, Note_on_c, 9, 38, 0
4, 68749, Note_on_c, 9, 38, 52
4, 68750, Note_on_c, 9, 51, 59
4, 68767, Note_on_c, 9, 53, 61
4, 68936, Note_on_c, 9, 38, 0
4, 69111, Note_on_c, 9, 36, 24
4, 69246, Note_on_c, 9, 36, 0
4, 69341, Note_on_c, 9, 51, 0
4, 69522, Note_on_c, 9, 53, 0
4, 69692, Note_on_c, 9, 51, 50
4, 69698, Note_on_c, 9, 36, 27
4, 69794, Note_on_c, 9, 51, 0
4, 69825, Note_on_c, 9, 36, 0
4, 70083, Note_on_c, 9, 53, 70
4, 70093, Note_on_c, 9, 51, 56
4, 70597, Note_on_c, 9, 51, 0
4, 70638, Note_on_c, 9, 38, 44
4, 70707, Note_on_c, 9, 53, 0
4, 70802, Note_on_c, 9, 38, 0
4, 70993, Note_on_c, 9, 36, 30
4, 71075, Note_on_c, 9, 51, 36
4, 71097, Note_on_c, 9, 36, 0
4, 71321, Note_on_c, 9, 51, 0
4, 71644, Note_on_c, 9, 36, 53
4, 71678, Note_on_c, 9, 51, 71
4, 71699, Note_on_c, 9, 53, 66
4, 71855, Note_on_c, 9, 36, 0
4, 72011, Note_on_c, 9, 36, 34
4, 72128, Note_on_c, 9, 53, 0
4, 72134, Note_on_c, 9, 51, 0
4, 72537, Note_on_c, 9, 36, 0
4, 72606, Note_on_c, 9, 51, 53
4, 72677, Note_on_c, 9, 51, 0
4, 72882, Note_on_c, 9, 36, 49
4, 72883, Note_on_c, 9, 51, 58
4, 73198, Note_on_c, 9, 36, 0
4, 73527, Note_on_c, 9, 51, 0
4, 73883, Note_on_c, 9, 51, 77
4, 74337, Note_on_c, 9, 51, 0
4, 74594, Note_on_c, 9, 36, 45
4, 74615, Note_on_c, 9, 51, 46
4, 74692, Note_on_c, 9, 36, 0
4, 74746, Note_on_c, 9, 51, 0
4, 74882, Note_on_c, 9, 51, 67
4, 75551, Note_on_c, 9, 51, 0
4, 75822, Note_on_c, 9, 51, 74
4, 76361, Note_on_c, 9, 51, 0
4, 76507, Note_on_c, 9, 36, 54
4, 76508, Note_on_c, 9, 51, 49
4, 76591, Note_on_c, 9, 36, 0
4, 76623, Note_on_c, 9, 51, 0
4, 76753, Note_on_c, 9, 51, 70
4, 77473, Note_on_c, 9, 51, 0
4, 77733, Note_on_c, 9, 51, 75
4, 78297, Note_on_c, 9, 51, 0
4, 78478, Note_on_c, 9, 51, 42
4, 78599, Note_on_c, 9, 51, 0
4, 78732, Note_on_c, 9, 51, 68
4, 79398, Note_on_c, 9, 51, 0
4, 79666, Note_on_c, 9, 51, 71
4, 80159, Note_on_c, 9, 51, 0
4, 80342, Note_on_c, 9, 51, 36
4, 80481, Note_on_c, 9, 51, 0
4, 80621, Note_on_c, 9, 51, 60
4, 81297, Note_on_c, 9, 51, 0
4, 81604, Note_on_c, 9, 37, 76
4, 81625, Note_on_c, 9, 51, 74
4, 81999, Note_on_c, 9, 37, 0
4, 82143, Note_on_c, 9, 51, 0
4, 82301, Note_on_c, 9, 51, 40
4, 82411, Note_on_c, 9, 51, 0
4, 82551, Note_on_c, 9, 51, 62
4, 83102, Note_on_c, 9, 51, 0
4, 83207, Note_on_c, 9, 36, 40
4, 83299, Note_on_c, 9, 36, 0
4, 83464, Note_on_c, 9, 51, 70
4, 83487, Note_on_c, 9, 53, 60
4, 83524, Note_on_c, 9, 54, 37
4, 83548, Note_on_c, 9, 38, 41
4, 83595, Note_on_c, 9, 54, 0
4, 83642, Note_on_c, 9, 38, 0
4, 84141, Note_on_c, 9, 38, 74
4, 84159, Note_on_c, 9, 51, 0
4, 84252, Note_on_c, 9, 53, 0
4, 84295, Note_on_c, 9, 38, 0
4, 84456, Note_on_c, 9, 51, 36
4, 84472, Note_on_c, 9, 38, 54
4, 84733, Note_on_c, 9, 51, 0
4, 84765, Note_on_c, 9, 38, 0
4, 85080, Note_on_c, 9, 51, 80
4, 85094, Note_on_c, 9, 36, 66
4, 85097, Note_on_c, 9, 53, 72
4, 85300, Note_on_c, 9, 36, 0
4, 85437, Note_on_c, 9, 36, 46
4, 85628, Note_on_c, 9, 36, 0
4, 85760, Note_on_c, 9, 51, 0
4, 85947, Note_on_c, 9, 53, 0
4, 86019, Note_on_c, 9, 38, 80
4, 86068, Note_on_c, 9, 51, 43
4, 86205, Note_on_c, 9, 51, 0
4, 86225, Note_on_c, 9, 38, 0
4, 86400, Note_on_c, 9, 38, 51
4, 86463, Note_on_c, 9, 51, 74
4, 86476, Note_on_c, 9, 53, 67
4, 86787, Note_on_c, 9, 38, 0
4, 86958, Note_on_c, 9, 51, 0
4, 86997, Note_on_c, 9, 36, 54
4, 87222, Note_on_c, 9, 36, 0
4, 87224, Note_on_c, 9, 53, 0
4, 87451, Note_on_c, 9, 51, 34
4, 87661, Note_on_c, 9, 51, 0
4, 87983, Note_on_c, 9, 38, 78
4, 88023, Note_on_c, 9, 51, 76
4, 88046, Note_on_c, 9, 53, 63
4, 88199, Note_on_c, 9, 38, 0
4, 88299, Note_on_c, 9, 38, 50
4, 88527, Note_on_c, 9, 51, 0
4, 88683, Note_on_c, 9, 53, 0
4, 88717, Note_on_c, 9, 38, 0
4, 88927, Note_on_c, 9, 36, 56
4, 88953, Note_on_c, 9, 51, 79
4, 89108, Note_on_c, 9, 36, 0
4, 89727, Note_on_c, 9, 51, 0
4, 89878, Note_on_c, 9, 38, 78
4, 89947, Note_on_c, 9, 53, 96
4, 89962, Note_on_c, 9, 51, 78
4, 90084, Note_on_c, 9, 38, 0
4, 90663, Note_on_c, 9, 51, 0
4, 90843, Note_on_c, 9, 38, 71
4, 90894, Note_on_c, 9, 53, 0
4, 90985, Note_on_c, 9, 51, 82
4, 91066, Note_on_c, 9, 38, 0
4, 91335, Note_on_c, 9, 53, 33
4, 91586, Note_on_c, 9, 51, 0
4, 91617, Note_on_c, 9, 38, 74
4, 91728, Note_on_c, 9, 53, 0
4, 91760, Note_on_c, 9, 38, 0
4, 91875, Note_on_c, 9, 38, 81
4, 91915, Note_on_c, 9, 51, 76
4, 92054, Note_on_c, 9, 38, 0
4, 92160, Note_on_c, 9, 36, 76
4, 92193, Note_on_c, 9, 57, 70
4, 92216, Note_on_c, 9, 59, 78
4, 92795, Note_on_c, 9, 59, 0
4, 92849, Note_on_c, 9, 51, 0
4, 93119, Note_on_c, 9, 51, 47
4, 93144, Note_on_c, 9, 59, 54
4, 93831, Note_on_c, 9, 59, 0
4, 93856, Note_on_c, 9, 51, 0
4, 94109, Note_on_c, 9, 51, 35
4, 94157, Note_on_c, 9, 59, 32
4, 94354, Note_on_c, 9, 36, 0
4, 94404, Note_on_c, 9, 57, 0
4, 94429, Note_on_c, 9, 38, 65
4, 94504, Note_on_c, 9, 38, 0
4, 94726, Note_on_c, 9, 38, 56
4, 94750, Note_on_c, 9, 59, 0
4, 94792, Note_on_c, 9, 51, 0
4, 94897, Note_on_c, 9, 38, 0
4, 95031, Note_on_c, 9, 51, 39
4, 95049, Note_on_c, 9, 59, 42
4, 95078, Note_on_c, 9, 57, 75
4, 95084, Note_on_c, 9, 36, 75
4, 95705, Note_on_c, 9, 59, 0
4, 95740, Note_on_c, 9, 51, 0
4, 95986, Note_on_c, 9, 51, 42
4, 96010, Note_on_c, 9, 59, 56
4, 96318, Note_on_c, 9, 59, 0
4, 96430, Note_on_c, 9, 51, 0
4, 96613, Note_on_c, 9, 57, 0
4, 96672, Note_on_c, 9, 51, 60
4, 96819, Note_on_c, 9, 51, 0
4, 96934, Note_on_c, 9, 51, 62
4, 97416, Note_on_c, 9, 36, 0
4, 97566, Note_on_c, 9, 51, 0
4, 97836, Note_on_c, 9, 51, 62
4, 98456, Note_on_c, 9, 51, 0
4, 98777, Note_on_c, 9, 51, 67
4, 99396, Note_on_c, 9, 51, 0
4, 99754, Note_on_c, 9, 51, 61
4, 100309, Note_on_c, 9, 38, 50
4, 100396, Note_on_c, 9, 38, 0
4, 100401, Note_on_c, 9, 51, 0
4, 100732, Note_on_c, 9, 51, 67
4, 100758, Note_on_c, 9, 38, 48
4, 100904, Note_on_c, 9, 38, 0
4, 101070, Note_on_c, 9, 38, 49
4, 101160, Note_on_c, 9, 38, 0
4, 101262, Note_on_c, 9, 51, 0
4, 101452, Note_on_c, 9, 51, 52
4, 101614, Note_on_c, 9, 51, 0
4, 101745, Note_on_c, 9, 51, 63
4, 102400, Note_on_c, 9, 51, 0
4, 102710, Note_on_c, 9, 51, 59
4, 103174, Note_on_c, 9, 51, 0
4, 103415, Note_on_c, 9, 51, 63
4, 103580, Note_on_c, 9, 51, 0
4, 103700, Note_on_c, 9, 51, 65
4, 104242, Note_on_c, 9, 40, 55
4, 104285, Note_on_c, 9, 51, 0
4, 104421, Note_on_c, 9, 40, 0
4, 104584, Note_on_c, 9, 51, 69
4, 104633, Note_on_c, 9, 38, 46
4, 104877, Note_on_c, 9, 38, 0
4, 105119, Note_on_c, 9, 51, 0
4, 105249, Note_on_c, 9, 38, 48
4, 105300, Note_on_c, 9, 51, 37
4, 105359, Note_on_c, 9, 38, 0
4, 105447, Note_on_c, 9, 51, 0
4, 105583, Note_on_c, 9, 51, 67
4, 106152, Note_on_c, 9, 36, 48
4, 106155, Note_on_c, 9, 51, 0
4, 106251, Note_on_c, 9, 36, 0
4, 106523, Note_on_c, 9, 51, 70
4, 106555, Note_on_c, 9, 38, 32
4, 106838, Note_on_c, 9, 38, 0
4, 107174, Note_on_c, 9, 51, 0
4, 107198, Note_on_c, 9, 38, 47
4, 107321, Note_on_c, 9, 38, 0
4, 107496, Note_on_c, 9, 51, 69
4, 108065, Note_on_c, 9, 36, 47
4, 108095, Note_on_c, 9, 51, 0
4, 108151, Note_on_c, 9, 36, 0
4, 108392, Note_on_c, 9, 38, 43
4, 108478, Note_on_c, 9, 51, 67
4, 108502, Note_on_c, 9, 38, 0
4, 109037, Note_on_c, 9, 38, 44
4, 109098, Note_on_c, 9, 51, 0
4, 109424, Note_on_c, 9, 38, 0
4, 109431, Note_on_c, 9, 51, 62
4, 109962, Note_on_c, 9, 38, 46
4, 109969, Note_on_c, 9, 51, 0
4, 110088, Note_on_c, 9, 53, 71
4, 110202, Note_on_c, 9, 38, 0
4, 110377, Note_on_c, 9, 53, 0
4, 110408, Note_on_c, 9, 51, 33
4, 111061, Note_on_c, 9, 51, 0
4, 111242, Note_on_c, 9, 36, 32
4, 111332, Note_on_c, 9, 51, 60
4, 111462, Note_on_c, 9, 36, 0
4, 111939, Note_on_c, 9, 51, 0
4, 112262, Note_on_c, 9, 53, 65
4, 112829, Note_on_c, 9, 53, 0
4, 113266, Note_on_c, 9, 51, 53
4, 113778, Note_on_c, 9, 51, 0
4, 113959, Note_on_c, 9, 51, 40
4, 114115, Note_on_c, 9, 51, 0
4, 114195, Note_on_c, 9, 44, 60
4, 114231, Note_on_c, 9, 51, 46
4, 114660, Note_on_c, 9, 51, 0
4, 114776, Note_on_c, 9, 44, 0
4, 114911, Note_on_c, 9, 51, 75
4, 115650, Note_on_c, 9, 51, 0
4, 115862, Note_on_c, 9, 51, 35
4, 115905, Note_on_c, 9, 38, 39
4, 115956, Note_on_c, 9, 51, 0
4, 115997, Note_on_c, 9, 38, 0
4, 116182, Note_on_c, 9, 44, 46
4, 116191, Note_on_c, 9, 51, 56
4, 116313, Note_on_c, 9, 51, 0
4, 116379, Note_on_c, 9, 44, 0
4, 116785, Note_on_c, 9, 38, 57
4, 116792, Note_on_c, 9, 51, 60
4, 116924, Note_on_c, 9, 38, 0
4, 117083, Note_on_c, 9, 51, 0
4, 117164, Note_on_c, 9, 51, 49
4, 117717, Note_on_c, 9, 38, 59
4, 117813, Note_on_c, 9, 51, 0
4, 117891, Note_on_c, 9, 38, 0
4, 118077, Note_on_c, 9, 51, 33
4, 118237, Note_on_c, 9, 51, 0
4, 118684, Note_on_c, 9, 38, 66
4, 118718, Note_on_c, 9, 51, 74
4, 118917, Note_on_c, 9, 38, 0
4, 118924, Note_on_c, 9, 51, 0
4, 119053, Note_on_c, 9, 51, 63
4, 119618, Note_on_c, 9, 38, 78
4, 119865, Note_on_c, 9, 38, 0
4, 120062, Note_on_c, 9, 51, 0
4, 120558, Note_on_c, 9, 38, 88
4, 120658, Note_on_c, 9, 51, 69
4, 120895, Note_on_c, 9, 51, 0
4, 120934, Note_on_c, 9, 38, 0
4, 121035, Note_on_c, 9, 51, 58
4, 121540, Note_on_c, 9, 38, 91
4, 121599, Note_on_c, 9, 51, 0
4, 121941, Note_on_c, 9, 38, 0
4, 122436, Note_on_c, 9, 38, 84
4, 122505, Note_on_c, 9, 57, 75
4, 122643, Note_on_c, 9, 57, 0
4, 122646, Note_on_c, 9, 38, 0
4, 122792, Note_on_c, 9, 36, 76
4, 122896, Note_on_c, 9, 59, 75
4, 123327, Note_on_c, 9, 59, 0
4, 123339, Note_on_c, 9, 36, 0
4, 123697, Note_on_c, 9, 44, 77
4, 123857, Note_on_c, 9, 59, 74
4, 124128, Note_on_c, 9, 44, 0
4, 124204, Note_on_c, 9, 59, 0
4, 124514, Note_on_c, 9, 59, 33
4, 124618, Note_on_c, 9, 59, 0
4, 124763, Note_on_c, 9, 59, 68
4, 125487, Note_on_c, 9, 59, 0
4, 125732, Note_on_c, 9, 44, 74
4, 125733, Note_on_c, 9, 59, 49
4, 125737, Note_on_c, 9, 60, 55
4, 125970, Note_on_c, 9, 60, 0
4, 126114, Note_on_c, 9, 44, 0
4, 126236, Note_on_c, 9, 59, 0
4, 126446, Note_on_c, 9, 59, 58
4, 126565, Note_on_c, 9, 59, 0
4, 126725, Note_on_c, 9, 59, 62
4, 127424, Note_on_c, 9, 59, 0
4, 127622, Note_on_c, 9, 44, 68
4, 127657, Note_on_c, 9, 59, 74
4, 128101, Note_on_c, 9, 44, 0
4, 128158, Note_on_c, 9, 59, 0
4, 128318, Note_on_c, 9, 59, 50
4, 128418, Note_on_c, 9, 59, 0
4, 128588, Note_on_c, 9, 59, 69
4, 129208, Note_on_c, 9, 59, 0
4, 129262, Note_on_c, 9, 52, 78
4, 129412, Note_on_c, 9, 52, 0
4, 129453, Note_on_c, 9, 44, 44
4, 129564, Note_on_c, 9, 59, 46
4, 130291, Note_on_c, 9, 44, 0
4, 130350, Note_on_c, 9, 59, 0
4, 130490, Note_on_c, 9, 59, 69
4, 131170, Note_on_c, 9, 59, 0
4, 131384, Note_on_c, 9, 59, 72
4, 131456, Note_on_c, 9, 44, 71
4, 132014, Note_on_c, 9, 59, 0
4, 132317, Note_on_c, 9, 44, 0
4, 132389, Note_on_c, 9, 59, 71
4, 132961, Note_on_c, 9, 59, 0
4, 133048, Note_on_c, 9, 51, 64
4, 133365, Note_on_c, 9, 44, 69
4, 133397, Note_on_c, 9, 59, 41
4, 133993, Note_on_c, 9, 44, 0
4, 134009, Note_on_c, 9, 59, 0
4, 134304, Note_on_c, 9, 59, 74
4, 134398, Note_on_c, 9, 51, 0
4, 134955, Note_on_c, 9, 59, 0
4, 135225, Note_on_c, 9, 44, 69
4, 135278, Note_on_c, 9, 59, 76
4, 135895, Note_on_c, 9, 59, 0
4, 136027, Note_on_c, 9, 53, 49
4, 136315, Note_on_c, 9, 59, 48
4, 136328, Note_on_c, 9, 53, 0
4, 136785, Note_on_c, 9, 44, 0
4, 136891, Note_on_c, 9, 38, 74
4, 136896, Note_on_c, 9, 59, 0
4, 136948, Note_on_c, 9, 53, 58
4, 137145, Note_on_c, 9, 38, 0
4, 137302, Note_on_c, 9, 59, 47
4, 137358, Note_on_c, 9, 53, 0
4, 137652, Note_on_c, 9, 38, 66
4, 137797, Note_on_c, 9, 59, 0
4, 137810, Note_on_c, 9, 38, 0
4, 137894, Note_on_c, 9, 53, 57
4, 137941, Note_on_c, 9, 38, 66
4, 138088, Note_on_c, 9, 53, 0
4, 138135, Note_on_c, 9, 38, 0
4, 138177, Note_on_c, 9, 59, 66
4, 138247, Note_on_c, 9, 36, 57
4, 138311, Note_on_c, 9, 44, 51
4, 138384, Note_on_c, 9, 44, 0
4, 138862, Note_on_c, 9, 59, 0
4, 139089, Note_on_c, 9, 36, 0
4, 139171, Note_on_c, 9, 59, 83
4, 139206, Note_on_c, 9, 44, 60
4, 139491, Note_on_c, 9, 44, 0
4, 139533, Note_on_c, 9, 59, 0
4, 139858, Note_on_c, 9, 59, 69
4, 140014, Note_on_c, 9, 59, 0
4, 140132, Note_on_c, 9, 59, 78
4, 140717, Note_on_c, 9, 59, 0
4, 141081, Note_on_c, 9, 59, 87
4, 141443, Note_on_c, 9, 59, 0
4, 141776, Note_on_c, 9, 59, 61
4, 141894, Note_on_c, 9, 59, 0
4, 142048, Note_on_c, 9, 59, 73
4, 142633, Note_on_c, 9, 59, 0
4, 142999, Note_on_c, 9, 59, 85
4, 143008, Note_on_c, 9, 46, 30
4, 143419, Note_on_c, 9, 59, 0
4, 143704, Note_on_c, 9, 59, 58
4, 143823, Note_on_c, 9, 59, 0
4, 143890, Note_on_c, 9, 46, 0
4, 143970, Note_on_c, 9, 59, 80
4, 144569, Note_on_c, 9, 59, 0
4, 144918, Note_on_c, 9, 44, 61
4, 144944, Note_on_c, 9, 59, 87
4, 145381, Note_on_c, 9, 44, 0
4, 145451, Note_on_c, 9, 59, 0
4, 145611, Note_on_c, 9, 59, 57
4, 145769, Note_on_c, 9, 59, 0
4, 145900, Note_on_c, 9, 59, 80
4, 146518, Note_on_c, 9, 59, 0
4, 146844, Note_on_c, 9, 44, 55
4, 146847, Note_on_c, 9, 59, 83
4, 147310, Note_on_c, 9, 44, 0
4, 147550, Note_on_c, 9, 59, 0
4, 147833, Note_on_c, 9, 59, 80
4, 148430, Note_on_c, 9, 59, 0
4, 148458, Note_on_c, 9, 38, 62
4, 148705, Note_on_c, 9, 38, 0
4, 148806, Note_on_c, 9, 59, 90
4, 149305, Note_on_c, 9, 59, 0
4, 149400, Note_on_c, 9, 44, 51
4, 149499, Note_on_c, 9, 59, 47
4, 149514, Note_on_c, 9, 44, 0
4, 149601, Note_on_c, 9, 59, 0
4, 149767, Note_on_c, 9, 59, 71
4, 150368, Note_on_c, 9, 59, 0
4, 150705, Note_on_c, 9, 59, 83
4, 151190, Note_on_c, 9, 59, 0
4, 151360, Note_on_c, 9, 59, 59
4, 151523, Note_on_c, 9, 59, 0
4, 151676, Note_on_c, 9, 59, 71
4, 152174, Note_on_c, 9, 59, 0
4, 152338, Note_on_c, 9, 59, 90
4, 152605, Note_on_c, 9, 44, 60
4, 152901, Note_on_c, 9, 44, 0
4, 153126, Note_on_c, 9, 59, 0
4, 153266, Note_on_c, 9, 59, 64
4, 153401, Note_on_c, 9, 59, 0
4, 153575, Note_on_c, 9, 59, 87
4, 154287, Note_on_c, 9, 59, 0
4, 154542, Note_on_c, 9, 44, 60
4, 154572, Note_on_c, 9, 59, 53
4, 154737, Note_on_c, 9, 44, 0
4, 155011, Note_on_c, 9, 59, 0
4, 155227, Note_on_c, 9, 59, 88
4, 155412, Note_on_c, 9, 59, 0
4, 155562, Note_on_c, 9, 59, 50
4, 156002, Note_on_c, 9, 38, 37
4, 156094, Note_on_c, 9, 38, 0
4, 156157, Note_on_c, 9, 59, 0
4, 156254, Note_on_c, 9, 38, 48
4, 156403, Note_on_c, 9, 38, 0
4, 156506, Note_on_c, 9, 59, 57
4, 156581, Note_on_c, 9, 59, 0
4, 157070, Note_on_c, 9, 59, 84
4, 157648, Note_on_c, 9, 59, 0
4, 158371, Note_on_c, 9, 38, 36
4, 158395, Note_on_c, 9, 59, 78
4, 158839, Note_on_c, 9, 38, 0
4, 159041, Note_on_c, 9, 38, 47
4, 159106, Note_on_c, 9, 59, 0
4, 159199, Note_on_c, 9, 38, 0
4, 159319, Note_on_c, 9, 59, 58
4, 159874, Note_on_c, 9, 59, 0
4, 160005, Note_on_c, 9, 59, 58
4, 160029, Note_on_c, 9, 38, 61
4, 160084, Note_on_c, 9, 59, 0
4, 160193, Note_on_c, 9, 38, 0
4, 160313, Note_on_c, 9, 59, 85
4, 160824, Note_on_c, 9, 59, 0
4, 160944, Note_on_c, 9, 38, 63
4, 160949, Note_on_c, 9, 59, 79
4, 161112, Note_on_c, 9, 38, 0
4, 161698, Note_on_c, 9, 59, 0
4, 161875, Note_on_c, 9, 59, 59
4, 162006, Note_on_c, 9, 59, 0
4, 162168, Note_on_c, 9, 59, 83
4, 162207, Note_on_c, 9, 38, 40
4, 162390, Note_on_c, 9, 38, 0
4, 162690, Note_on_c, 9, 59, 0
4, 162810, Note_on_c, 9, 38, 68
4, 162855, Note_on_c, 9, 59, 78
4, 162999, Note_on_c, 9, 38, 0
4, 163044, Note_on_c, 9, 59, 0
4, 163150, Note_on_c, 9, 59, 69
4, 163851, Note_on_c, 9, 59, 0
4, 164009, Note_on_c, 9, 59, 60
4, 164489, Note_on_c, 9, 59, 0
4, 164808, Note_on_c, 9, 59, 75
4, 164955, Note_on_c, 9, 59, 0
4, 165105, Note_on_c, 9, 59, 68
4, 165773, Note_on_c, 9, 59, 0
4, 166097, Note_on_c, 9, 59, 80
4, 166619, Note_on_c, 9, 59, 0
4, 166779, Note_on_c, 9, 59, 51
4, 166902, Note_on_c, 9, 59, 0
4, 167054, Note_on_c, 9, 59, 79
4, 167732, Note_on_c, 9, 59, 0
4, 167966, Note_on_c, 9, 44, 60
4, 167996, Note_on_c, 9, 59, 79
4, 168388, Note_on_c, 9, 44, 0
4, 168516, Note_on_c, 9, 59, 0
4, 168920, Note_on_c, 9, 59, 79
4, 169429, Note_on_c, 9, 59, 0
4, 169872, Note_on_c, 9, 59, 79
4, 169915, Note_on_c, 9, 44, 69
4, 170186, Note_on_c, 9, 44, 0
4, 170403, Note_on_c, 9, 59, 0
4, 170609, Note_on_c, 9, 59, 47
4, 170711, Note_on_c, 9, 59, 0
4, 170852, Note_on_c, 9, 59, 74
4, 171547, Note_on_c, 9, 59, 0
4, 171791, Note_on_c, 9, 44, 56
4, 171809, Note_on_c, 9, 59, 76
4, 171997, Note_on_c, 9, 44, 0
4, 172327, Note_on_c, 9, 59, 0
4, 172426, Note_on_c, 9, 38, 53
4, 172493, Note_on_c, 9, 59, 48
4, 172534, Note_on_c, 9, 38, 0
4, 172620, Note_on_c, 9, 59, 0
4, 172755, Note_on_c, 9, 59, 77
4, 173297, Note_on_c, 9, 44, 52
4, 173390, Note_on_c, 9, 59, 0
4, 173505, Note_on_c, 9, 44, 0
4, 173668, Note_on_c, 9, 59, 80
4, 174199, Note_on_c, 9, 59, 0
4, 174367, Note_on_c, 9, 59, 47
4, 174455, Note_on_c, 9, 59, 0
4, 174636, Note_on_c, 9, 59, 72
4, 175341, Note_on_c, 9, 59, 0
4, 175379, Note_on_c, 9, 38, 25
4, 175494, Note_on_c, 9, 38, 0
4, 175587, Note_on_c, 9, 44, 59
4, 175634, Note_on_c, 9, 59, 79
4, 175916, Note_on_c, 9, 44, 0
4, 176150, Note_on_c, 9, 59, 0
4, 176352, Note_on_c, 9, 59, 32
4, 176478, Note_on_c, 9, 59, 0
4, 176622, Note_on_c, 9, 59, 74
4, 177304, Note_on_c, 9, 59, 0
4, 177571, Note_on_c, 9, 59, 77
4, 178136, Note_on_c, 9, 59, 0
4, 178544, Note_on_c, 9, 59, 74
4, 179132, Note_on_c, 9, 59, 0
4, 179180, Note_on_c, 9, 53, 76
4, 179487, Note_on_c, 9, 44, 59
4, 179991, Note_on_c, 9, 44, 0
4, 180185, Note_on_c, 9, 59, 44
4, 180287, Note_on_c, 9, 59, 0
4, 180374, Note_on_c, 9, 53, 0
4, 180522, Note_on_c, 9, 59, 87
4, 181082, Note_on_c, 9, 53, 67
4, 181104, Note_on_c, 9, 59, 0
4, 181384, Note_on_c, 9, 46, 31
4, 181924, Note_on_c, 9, 53, 0
4, 182301, Note_on_c, 9, 46, 0
4, 182371, Note_on_c, 9, 53, 78
4, 183372, Note_on_c, 9, 53, 0
4, 183973, Note_on_c, 9, 53, 78
4, 183989, Note_on_c, 9, 59, 85
4, 184087, Note_on_c, 9, 53, 0
4, 184353, Note_on_c, 9, 59, 0
4, 184451, Note_on_c, 9, 59, 40
4, 185000, Note_on_c, 9, 59, 0
4, 185224, Note_on_c, 9, 44, 60
4, 185273, Note_on_c, 9, 59, 73
4, 185469, Note_on_c, 9, 44, 0
4, 185924, Note_on_c, 9, 59, 0
4, 186192, Note_on_c, 9, 59, 71
4, 186756, Note_on_c, 9, 59, 0
4, 186833, Note_on_c, 9, 53, 60
4, 186903, Note_on_c, 9, 53, 0
4, 187123, Note_on_c, 9, 44, 59
4, 187161, Note_on_c, 9, 59, 54
4, 187377, Note_on_c, 9, 44, 0
4, 187804, Note_on_c, 9, 59, 0
4, 188097, Note_on_c, 9, 59, 71
4, 188725, Note_on_c, 9, 59, 0
4, 189064, Note_on_c, 9, 44, 59
4, 189079, Note_on_c, 9, 59, 73
4, 189349, Note_on_c, 9, 44, 0
4, 189622, Note_on_c, 9, 59, 0
4, 190080, Note_on_c, 9, 59, 75
4, 190566, Note_on_c, 9, 59, 0
4, 190992, Note_on_c, 9, 44, 62
4, 191020, Note_on_c, 9, 59, 72
4, 191337, Note_on_c, 9, 44, 0
4, 191375, Note_on_c, 9, 59, 0
4, 191629, Note_on_c, 9, 51, 64
4, 191872, Note_on_c, 9, 51, 0
4, 191950, Note_on_c, 9, 59, 57
4, 192551, Note_on_c, 9, 59, 0
4, 192908, Note_on_c, 9, 59, 66
4, 192914, Note_on_c, 9, 44, 59
4, 193332, Note_on_c, 9, 44, 0
4, 193474, Note_on_c, 9, 59, 0
4, 193874, Note_on_c, 9, 59, 68
4, 194419, Note_on_c, 9, 59, 0
4, 194841, Note_on_c, 9, 59, 71
4, 194856, Note_on_c, 9, 44, 64
4, 195197, Note_on_c, 9, 44, 0
4, 195348, Note_on_c, 9, 59, 0
4, 195789, Note_on_c, 9, 59, 68
4, 196311, Note_on_c, 9, 59, 0
4, 196740, Note_on_c, 9, 59, 67
4, 196782, Note_on_c, 9, 44, 59
4, 197132, Note_on_c, 9, 44, 0
4, 197231, Note_on_c, 9, 59, 0
4, 197435, Note_on_c, 9, 59, 46
4, 197564, Note_on_c, 9, 59, 0
4, 197707, Note_on_c, 9, 59, 72
4, 197743, Note_on_c, 9, 38, 66
4, 197868, Note_on_c, 9, 38, 0
4, 198265, Note_on_c, 9, 38, 72
4, 198366, Note_on_c, 9, 59, 0
4, 198424, Note_on_c, 9, 38, 0
4, 198658, Note_on_c, 9, 59, 75
4, 198769, Note_on_c, 9, 38, 68
4, 198891, Note_on_c, 9, 38, 0
4, 198987, Note_on_c, 9, 38, 55
4, 199142, Note_on_c, 9, 59, 0
4, 199199, Note_on_c, 9, 38, 0
4, 199348, Note_on_c, 9, 59, 38
4, 199471, Note_on_c, 9, 59, 0
4, 199623, Note_on_c, 9, 59, 69
4, 200182, Note_on_c, 9, 59, 0
4, 200558, Note_on_c, 9, 44, 57
4, 200563, Note_on_c, 9, 59, 74
4, 200865, Note_on_c, 9, 44, 0
4, 201116, Note_on_c, 9, 59, 0
4, 201580, Note_on_c, 9, 59, 69
4, 202058, Note_on_c, 9, 59, 0
4, 202499, Note_on_c, 9, 46, 20
4, 202520, Note_on_c, 9, 59, 67
4, 202532, Note_on_c, 9, 44, 60
4, 202964, Note_on_c, 9, 44, 0
4, 203140, Note_on_c, 9, 59, 0
4, 203188, Note_on_c, 9, 46, 0
4, 203483, Note_on_c, 9, 59, 58
4, 203485, Note_on_c, 9, 46, 19
4, 204080, Note_on_c, 9, 59, 0
4, 204126, Note_on_c, 9, 46, 0
4, 204410, Note_on_c, 9, 44, 62
4, 204434, Note_on_c, 9, 59, 60
4, 204442, Note_on_c, 9, 46, 21
4, 204826, Note_on_c, 9, 44, 0
4, 205053, Note_on_c, 9, 59, 0
4, 205093, Note_on_c, 9, 46, 0
4, 205355, Note_on_c, 9, 46, 24
4, 205386, Note_on_c, 9, 59, 58
4, 205448, Note_on_c, 9, 38, 47
4, 205543, Note_on_c, 9, 38, 0
4, 205888, Note_on_c, 9, 59, 0
4, 205902, Note_on_c, 9, 46, 0
4, 206022, Note_on_c, 9, 38, 66
4, 206104, Note_on_c, 9, 59, 54
4, 206159, Note_on_c, 9, 38, 0
4, 206222, Note_on_c, 9, 59, 0
4, 206335, Note_on_c, 9, 46, 27
4, 206385, Note_on_c, 9, 59, 65
4, 206427, Note_on_c, 9, 44, 35
4, 206806, Note_on_c, 9, 44, 0
4, 206950, Note_on_c, 9, 46, 0
4, 206996, Note_on_c, 9, 59, 0
4, 207260, Note_on_c, 9, 46, 28
4, 207262, Note_on_c, 9, 59, 63
4, 207776, Note_on_c, 9, 46, 0
4, 207797, Note_on_c, 9, 59, 0
4, 208230, Note_on_c, 9, 46, 23
4, 208253, Note_on_c, 9, 59, 61
4, 208843, Note_on_c, 9, 46, 0
4, 208852, Note_on_c, 9, 59, 0
4, 209180, Note_on_c, 9, 46, 27
4, 209193, Note_on_c, 9, 59, 60
4, 209713, Note_on_c, 9, 59, 0
4, 209777, Note_on_c, 9, 46, 0
4, 209898, Note_on_c, 9, 59, 45
4, 210027, Note_on_c, 9, 59, 0
4, 210162, Note_on_c, 9, 46, 35
4, 210170, Note_on_c, 9, 59, 74
4, 210838, Note_on_c, 9, 59, 0
4, 210857, Note_on_c, 9, 46, 0
4, 211136, Note_on_c, 9, 46, 25
4, 211152, Note_on_c, 9, 59, 63
4, 211672, Note_on_c, 9, 59, 0
4, 211722, Note_on_c, 9, 46, 0
4, 212107, Note_on_c, 9, 46, 26
4, 212119, Note_on_c, 9, 59, 63
4, 212122, Note_on_c, 9, 38, 39
4, 212218, Note_on_c, 9, 38, 0
4, 212633, Note_on_c, 9, 59, 0
4, 212700, Note_on_c, 9, 46, 0
4, 212773, Note_on_c, 9, 38, 53
4, 212791, Note_on_c, 9, 59, 53
4, 212871, Note_on_c, 9, 38, 0
4, 212943, Note_on_c, 9, 59, 0
4, 213043, Note_on_c, 9, 46, 27
4, 213095, Note_on_c, 9, 59, 65
4, 213638, Note_on_c, 9, 46, 0
4, 213648, Note_on_c, 9, 59, 0
4, 213716, Note_on_c, 9, 38, 58
4, 213845, Note_on_c, 9, 38, 0
4, 214045, Note_on_c, 9, 46, 25
4, 214058, Note_on_c, 9, 59, 66
4, 214326, Note_on_c, 9, 46, 0
4, 214461, Note_on_c, 9, 59, 0
4, 214658, Note_on_c, 9, 38, 58
4, 214723, Note_on_c, 9, 59, 80
4, 214755, Note_on_c, 9, 51, 73
4, 214810, Note_on_c, 9, 38, 0
4, 214946, Note_on_c, 9, 59, 0
4, 215062, Note_on_c, 9, 38, 30
4, 215096, Note_on_c, 9, 59, 57
4, 215245, Note_on_c, 9, 38, 0
4, 215678, Note_on_c, 9, 59, 0
4, 215847, Note_on_c, 9, 51, 0
4, 215893, Note_on_c, 9, 44, 51
4, 216013, Note_on_c, 9, 59, 57
4, 216019, Note_on_c, 9, 51, 40
4, 216314, Note_on_c, 9, 44, 0
4, 216631, Note_on_c, 9, 59, 0
4, 216714, Note_on_c, 9, 51, 0
4, 216978, Note_on_c, 9, 51, 44
4, 216980, Note_on_c, 9, 59, 58
4, 217536, Note_on_c, 9, 59, 0
4, 217656, Note_on_c, 9, 51, 0
4, 217929, Note_on_c, 9, 59, 53
4, 217931, Note_on_c, 9, 51, 39
4, 217938, Note_on_c, 9, 38, 46
4, 218059, Note_on_c, 9, 38, 0
4, 218403, Note_on_c, 9, 59, 0
4, 218459, Note_on_c, 9, 51, 0
4, 218583, Note_on_c, 9, 38, 60
4, 218653, Note_on_c, 9, 59, 44
4, 218744, Note_on_c, 9, 59, 0
4, 218764, Note_on_c, 9, 38, 0
4, 218929, Note_on_c, 9, 51, 39
4, 218946, Note_on_c, 9, 59, 56
4, 219003, Note_on_c, 9, 44, 42
4, 219251, Note_on_c, 9, 44, 0
4, 219520, Note_on_c, 9, 59, 0
4, 219597, Note_on_c, 9, 51, 0
4, 219888, Note_on_c, 9, 59, 56
4, 219903, Note_on_c, 9, 51, 42
4, 220429, Note_on_c, 9, 59, 0
4, 220520, Note_on_c, 9, 51, 0
4, 220814, Note_on_c, 9, 51, 40
4, 220818, Note_on_c, 9, 59, 56
4, 221303, Note_on_c, 9, 59, 0
4, 221332, Note_on_c, 9, 51, 0
4, 221657, Note_on_c, 9, 38, 42
4, 221739, Note_on_c, 9, 59, 56
4, 221758, Note_on_c, 9, 51, 38
4, 221934, Note_on_c, 9, 38, 0
4, 222224, Note_on_c, 9, 59, 0
4, 222241, Note_on_c, 9, 51, 0
4, 222715, Note_on_c, 9, 59, 58
4, 222727, Note_on_c, 9, 51, 39
4, 223102, Note_on_c, 9, 59, 0
4, 223147, Note_on_c, 9, 51, 0
4, 223372, Note_on_c, 9, 59, 49
4, 223466, Note_on_c, 9, 59, 0
4, 223548, Note_on_c, 9, 44, 55
4, 223645, Note_on_c, 9, 51, 48
4, 223649, Note_on_c, 9, 59, 61
4, 223835, Note_on_c, 9, 44, 0
4, 224061, Note_on_c, 9, 51, 0
4, 224100, Note_on_c, 9, 59, 0
4, 224572, Note_on_c, 9, 59, 61
4, 224591, Note_on_c, 9, 51, 43
4, 224917, Note_on_c, 9, 59, 0
4, 225155, Note_on_c, 9, 51, 0
4, 225240, Note_on_c, 9, 53, 66
4, 225542, Note_on_c, 9, 53, 0
4, 225565, Note_on_c, 9, 44, 58
4, 225577, Note_on_c, 9, 51, 36
4, 225631, Note_on_c, 9, 59, 22
4, 225959, Note_on_c, 9, 44, 0
4, 226051, Note_on_c, 9, 59, 0
4, 226166, Note_on_c, 9, 51, 0
4, 226521, Note_on_c, 9, 59, 56
4, 226540, Note_on_c, 9, 51, 44
4, 226989, Note_on_c, 9, 51, 0
4, 227006, Note_on_c, 9, 59, 0
4, 227423, Note_on_c, 9, 44, 57
4, 227451, Note_on_c, 9, 59, 61
4, 227459, Note_on_c, 9, 51, 46
4, 227857, Note_on_c, 9, 59, 0
4, 227918, Note_on_c, 9, 44, 0
4, 228073, Note_on_c, 9, 51, 0
4, 228127, Note_on_c, 9, 53, 58
4, 228370, Note_on_c, 9, 53, 0
4, 228437, Note_on_c, 9, 59, 53
4, 228451, Note_on_c, 9, 51, 45
4, 228907, Note_on_c, 9, 59, 0
4, 228965, Note_on_c, 9, 51, 0
4, 229062, Note_on_c, 9, 38, 66
4, 229175, Note_on_c, 9, 59, 67
4, 229207, Note_on_c, 9, 51, 53
4, 229316, Note_on_c, 9, 38, 0
4, 229377, Note_on_c, 9, 59, 0
4, 229756, Note_on_c, 9, 51, 0
4, 230023, Note_on_c, 9, 36, 69
4, 230113, Note_on_c, 9, 51, 50
4, 230138, Note_on_c, 9, 59, 32
4, 230221, Note_on_c, 9, 59, 0
4, 230233, Note_on_c, 9, 36, 0
4, 230276, Note_on_c, 9, 51, 0
4, 230398, Note_on_c, 9, 36, 47
4, 230427, Note_on_c, 9, 59, 71
4, 230436, Note_on_c, 9, 51, 53
4, 230682, Note_on_c, 9, 36, 0
4, 231049, Note_on_c, 9, 51, 0
4, 231074, Note_on_c, 9, 59, 0
4, 231330, Note_on_c, 9, 59, 59
4, 231542, Note_on_c, 9, 59, 0
4, 231985, Note_on_c, 9, 51, 62
4, 232010, Note_on_c, 9, 59, 66
4, 232206, Note_on_c, 9, 59, 0
4, 232351, Note_on_c, 9, 59, 57
4, 232918, Note_on_c, 9, 38, 73
4, 232965, Note_on_c, 9, 59, 0
4, 233015, Note_on_c, 9, 51, 0
4, 233145, Note_on_c, 9, 38, 0
4, 233227, Note_on_c, 9, 59, 60
4, 233334, Note_on_c, 9, 36, 36
4, 233496, Note_on_c, 9, 36, 0
4, 233500, Note_on_c, 9, 59, 0
4, 233864, Note_on_c, 9, 59, 66
4, 233876, Note_on_c, 9, 51, 64
4, 233902, Note_on_c, 9, 36, 66
4, 234055, Note_on_c, 9, 59, 0
4, 234120, Note_on_c, 9, 36, 0
4, 234273, Note_on_c, 9, 59, 51
4, 234675, Note_on_c, 9, 59, 0
4, 234777, Note_on_c, 9, 51, 0
4, 235128, Note_on_c, 9, 51, 49
4, 235143, Note_on_c, 9, 59, 66
4, 235648, Note_on_c, 9, 59, 0
4, 235704, Note_on_c, 9, 51, 0
4, 236125, Note_on_c, 9, 51, 51
4, 236131, Note_on_c, 9, 59, 68
4, 236572, Note_on_c, 9, 59, 0
4, 236774, Note_on_c, 9, 51, 0
4, 236801, Note_on_c, 9, 53, 76
4, 236862, Note_on_c, 9, 38, 46
4, 236945, Note_on_c, 9, 38, 0
4, 237115, Note_on_c, 9, 51, 49
4, 237158, Note_on_c, 9, 53, 0
4, 237169, Note_on_c, 9, 59, 26
4, 237190, Note_on_c, 9, 44, 67
4, 237464, Note_on_c, 9, 59, 0
4, 237532, Note_on_c, 9, 44, 0
4, 237581, Note_on_c, 9, 51, 0
4, 237720, Note_on_c, 9, 59, 36
4, 237778, Note_on_c, 9, 51, 49
4, 237920, Note_on_c, 9, 59, 0
4, 238167, Note_on_c, 9, 59, 39
4, 238404, Note_on_c, 9, 59, 0
4, 238554, Note_on_c, 9, 51, 0
4, 238721, Note_on_c, 9, 38, 69
4, 238727, Note_on_c, 9, 59, 76
4, 238746, Note_on_c, 9, 53, 66
4, 238884, Note_on_c, 9, 38, 0
4, 238953, Note_on_c, 9, 59, 0
4, 239700, Note_on_c, 9, 59, 43
4, 239790, Note_on_c, 9, 53, 0
4, 239806, Note_on_c, 9, 59, 0
4, 240066, Note_on_c, 9, 59, 68
4, 240110, Note_on_c, 9, 53, 53
4, 240470, Note_on_c, 9, 59, 0
4, 240701, Note_on_c, 9, 53, 0
4, 240961, Note_on_c, 9, 59, 49
4, 241121, Note_on_c, 9, 59, 0
4, 241586, Note_on_c, 9, 38, 80
4, 241597, Note_on_c, 9, 59, 78
4, 241622, Note_on_c, 9, 51, 53
4, 241655, Note_on_c, 9, 53, 49
4, 241804, Note_on_c, 9, 38, 0
4, 241935, Note_on_c, 9, 38, 67
4, 242082, Note_on_c, 9, 51, 0
4, 242098, Note_on_c, 9, 38, 0
4, 242182, Note_on_c, 9, 53, 0
4, 242249, Note_on_c, 9, 38, 71
4, 242252, Note_on_c, 9, 59, 0
4, 242424, Note_on_c, 9, 38, 0
4, 242425, Note_on_c, 9, 51, 56
4, 242595, Note_on_c, 9, 38, 65
4, 242734, Note_on_c, 9, 38, 0
4, 242760, Note_on_c, 9, 51, 0
4, 242833, Note_on_c, 9, 53, 54
4, 242907, Note_on_c, 9, 57, 26
4, 242924, Note_on_c, 9, 51, 21
4, 242997, Note_on_c, 9, 57, 0
4, 242999, Note_on_c, 9, 51, 0
4, 242999, Note_on_c, 9, 53, 0
4, 243094, Note_on_c, 9, 36, 50
4, 243096, Note_on_c, 9, 35, 46
4, 243202, Note_on_c, 9, 36, 0
4, 243204, Note_on_c, 9, 35, 0
4, 243471, Note_on_c, 9, 57, 71
4, 243490, Note_on_c, 9, 51, 65
4, 243583, Note_on_c, 9, 36, 77
4, 244549, Note_on_c, 9, 57, 0
4, 244827, Note_on_c, 9, 51, 0
4, 245962, Note_on_c, 9, 36, 0
4, 245962, End_track
0, 0, End_of_file
