0, 0, Header, 1, 6, 960
1, 0, Start_track
1, 0, Title_t, "Falling In Love With Love"
1, 0, Text_t, "Rodgers and Hart\012"
1, 0, Text_t, "dougmck@pipeline.com.au\012"
1, 0, Time_signature, 4, 2, 24, 8
1, 0, Key_signature, 0, "major"
1, 0, Tempo, 413793
1, 0, End_track
2, 0, Start_track
2, 0, End_track
3, 0, Start_track
3, 0, Title_t, "Piano"
3, 0, Control_c, 0, 64, 127
3, 0, Control_c, 0, 64, 0
3, 19, Note_on_c, 0, 79, 53
3, 59, Note_on_c, 0, 76, 65
3, 70, Note_on_c, 0, 61, 39
3, 71, Note_on_c, 0, 73, 47
3, 96, Note_on_c, 0, 53, 38
3, 115, Note_on_c, 0, 69, 45
3, 328, Control_c, 0, 64, 127
3, 569, Note_on_c, 0, 79, 0
3, 657, Note_on_c, 0, 69, 0
3, 664, Note_on_c, 0, 76, 0
3, 745, Note_on_c, 0, 73, 0
3, 756, Note_on_c, 0, 81, 74
3, 1110, Note_on_c, 0, 81, 0
3, 1391, Note_on_c, 0, 81, 83
3, 1733, Note_on_c, 0, 81, 0
3, 1988, Note_on_c, 0, 61, 0
3, 1999, Note_on_c, 0, 81, 58
3, 2029, Note_on_c, 0, 74, 51
3, 2030, Note_on_c, 0, 77, 49
3, 2037, Note_on_c, 0, 62, 52
3, 2044, Note_on_c, 0, 69, 47
3, 2057, Control_c, 0, 64, 0
3, 2850, Control_c, 0, 64, 127
3, 3229, Note_on_c, 0, 53, 0
3, 3311, Note_on_c, 0, 69, 0
3, 3326, Note_on_c, 0, 81, 0
3, 3336, Note_on_c, 0, 62, 0
3, 3437, Note_on_c, 0, 74, 0
3, 3454, Note_on_c, 0, 77, 0
3, 5380, Note_on_c, 0, 81, 99
3, 5671, Note_on_c, 0, 81, 0
3, 5849, Control_c, 0, 64, 0
3, 5902, Note_on_c, 0, 81, 83
3, 5911, Note_on_c, 0, 64, 70
3, 5916, Note_on_c, 0, 60, 40
3, 5927, Note_on_c, 0, 57, 53
3, 5928, Note_on_c, 0, 55, 62
3, 5941, Note_on_c, 0, 72, 83
3, 6150, Control_c, 0, 64, 127
3, 6267, Note_on_c, 0, 81, 0
3, 6291, Note_on_c, 0, 72, 0
3, 6559, Note_on_c, 0, 82, 69
3, 6580, Note_on_c, 0, 70, 70
3, 6812, Note_on_c, 0, 70, 0
3, 6854, Note_on_c, 0, 82, 0
3, 6914, Note_on_c, 0, 64, 0
3, 6963, Note_on_c, 0, 60, 0
3, 7028, Note_on_c, 0, 57, 0
3, 7032, Note_on_c, 0, 55, 0
3, 7127, Note_on_c, 0, 84, 80
3, 7145, Note_on_c, 0, 72, 68
3, 7183, Note_on_c, 0, 74, 54
3, 7247, Note_on_c, 0, 74, 0
3, 7324, Note_on_c, 0, 72, 0
3, 7352, Note_on_c, 0, 84, 0
3, 7667, Control_c, 0, 64, 0
3, 7697, Note_on_c, 0, 72, 69
3, 7715, Note_on_c, 0, 80, 56
3, 7719, Note_on_c, 0, 84, 68
3, 7738, Note_on_c, 0, 57, 43
3, 7741, Note_on_c, 0, 62, 64
3, 7766, Note_on_c, 0, 58, 38
3, 7770, Note_on_c, 0, 53, 40
3, 7898, Note_on_c, 0, 81, 40
3, 7900, Note_on_c, 0, 80, 0
3, 8039, Control_c, 0, 64, 127
3, 8324, Note_on_c, 0, 72, 0
3, 8385, Note_on_c, 0, 84, 0
3, 8461, Note_on_c, 0, 81, 0
3, 8479, Note_on_c, 0, 58, 0
3, 8619, Control_c, 0, 64, 0
3, 8641, Note_on_c, 0, 86, 70
3, 8727, Control_c, 0, 64, 127
3, 8788, Note_on_c, 0, 86, 0
3, 8931, Note_on_c, 0, 62, 0
3, 8945, Note_on_c, 0, 57, 0
3, 9137, Note_on_c, 0, 53, 0
3, 9359, Note_on_c, 0, 67, 45
3, 9364, Note_on_c, 0, 53, 24
3, 9373, Note_on_c, 0, 74, 46
3, 9377, Note_on_c, 0, 62, 45
3, 9382, Note_on_c, 0, 79, 36
3, 9385, Note_on_c, 0, 57, 42
3, 9396, Control_c, 0, 64, 0
3, 9448, Note_on_c, 0, 58, 25
3, 9685, Note_on_c, 0, 58, 0
3, 9686, Note_on_c, 0, 79, 0
3, 9788, Note_on_c, 0, 62, 0
3, 9811, Note_on_c, 0, 57, 0
3, 9813, Note_on_c, 0, 67, 0
3, 9836, Note_on_c, 0, 74, 0
3, 9843, Note_on_c, 0, 53, 0
3, 9975, Note_on_c, 0, 79, 36
3, 10008, Note_on_c, 0, 67, 36
3, 10012, Note_on_c, 0, 74, 51
3, 10024, Note_on_c, 0, 57, 24
3, 10026, Note_on_c, 0, 62, 46
3, 10031, Note_on_c, 0, 53, 22
3, 10174, Note_on_c, 0, 67, 0
3, 10181, Note_on_c, 0, 74, 0
3, 10200, Note_on_c, 0, 79, 0
3, 10204, Note_on_c, 0, 62, 0
3, 10239, Note_on_c, 0, 57, 0
3, 10253, Note_on_c, 0, 53, 0
3, 10594, Note_on_c, 0, 79, 39
3, 10619, Note_on_c, 0, 67, 39
3, 10622, Note_on_c, 0, 62, 42
3, 10638, Note_on_c, 0, 57, 33
3, 10640, Note_on_c, 0, 74, 38
3, 10644, Note_on_c, 0, 53, 26
3, 10799, Note_on_c, 0, 67, 0
3, 10807, Note_on_c, 0, 74, 0
3, 10827, Note_on_c, 0, 62, 0
3, 10853, Note_on_c, 0, 57, 0
3, 10862, Note_on_c, 0, 79, 0
3, 10890, Note_on_c, 0, 53, 0
3, 11246, Note_on_c, 0, 79, 35
3, 11277, Note_on_c, 0, 67, 34
3, 11286, Note_on_c, 0, 74, 40
3, 11298, Note_on_c, 0, 62, 36
3, 11307, Note_on_c, 0, 57, 28
3, 11325, Note_on_c, 0, 53, 25
3, 11371, Note_on_c, 0, 58, 25
3, 11867, Control_c, 0, 64, 127
3, 12500, Note_on_c, 0, 58, 0
3, 12573, Note_on_c, 0, 79, 0
3, 12574, Note_on_c, 0, 74, 0
3, 12599, Note_on_c, 0, 62, 0
3, 12615, Note_on_c, 0, 67, 0
3, 12641, Note_on_c, 0, 53, 0
3, 12687, Note_on_c, 0, 57, 0
3, 15237, Control_c, 0, 64, 0
3, 15300, Note_on_c, 0, 70, 90
3, 15302, Note_on_c, 0, 62, 92
3, 15304, Note_on_c, 0, 65, 89
3, 15330, Note_on_c, 0, 55, 80
3, 15679, Control_c, 0, 64, 127
3, 16554, Note_on_c, 0, 70, 0
3, 16723, Note_on_c, 0, 62, 0
3, 16753, Note_on_c, 0, 65, 0
3, 16948, Control_c, 0, 64, 0
3, 16952, Note_on_c, 0, 72, 69
3, 16955, Note_on_c, 0, 65, 68
3, 16967, Note_on_c, 0, 62, 70
3, 16971, Note_on_c, 0, 57, 69
3, 17013, Note_on_c, 0, 55, 0
3, 17434, Note_on_c, 0, 62, 0
3, 17451, Note_on_c, 0, 57, 0
3, 17462, Note_on_c, 0, 72, 0
3, 17485, Note_on_c, 0, 65, 0
3, 17640, Note_on_c, 0, 57, 56
3, 17643, Note_on_c, 0, 72, 54
3, 17645, Note_on_c, 0, 65, 54
3, 17664, Note_on_c, 0, 62, 53
3, 17849, Control_c, 0, 64, 127
3, 18027, Note_on_c, 0, 57, 0
3, 18081, Note_on_c, 0, 62, 0
3, 18122, Note_on_c, 0, 65, 0
3, 18141, Note_on_c, 0, 72, 0
3, 18219, Control_c, 0, 64, 0
3, 18305, Note_on_c, 0, 72, 47
3, 18310, Note_on_c, 0, 65, 43
3, 18331, Note_on_c, 0, 62, 47
3, 18333, Note_on_c, 0, 57, 57
3, 18502, Control_c, 0, 64, 127
3, 18798, Note_on_c, 0, 62, 0
3, 18803, Note_on_c, 0, 65, 0
3, 19114, Note_on_c, 0, 72, 0
3, 19262, Note_on_c, 0, 64, 54
3, 19266, Note_on_c, 0, 72, 54
3, 19268, Note_on_c, 0, 57, 0
3, 19296, Control_c, 0, 64, 0
3, 19301, Note_on_c, 0, 58, 46
3, 20160, Control_c, 0, 64, 127
3, 20341, Note_on_c, 0, 58, 0
3, 20489, Note_on_c, 0, 64, 0
3, 20788, Note_on_c, 0, 72, 0
3, 21061, Control_c, 0, 64, 0
3, 21108, Note_on_c, 0, 72, 69
3, 21110, Note_on_c, 0, 48, 55
3, 21125, Note_on_c, 0, 65, 79
3, 21140, Note_on_c, 0, 62, 80
3, 21146, Note_on_c, 0, 58, 40
3, 21360, Control_c, 0, 64, 127
3, 21431, Note_on_c, 0, 62, 0
3, 21453, Note_on_c, 0, 72, 0
3, 21511, Note_on_c, 0, 65, 0
3, 21804, Note_on_c, 0, 48, 0
3, 21827, Note_on_c, 0, 74, 80
3, 21964, Note_on_c, 0, 58, 0
3, 22080, Note_on_c, 0, 74, 0
3, 22406, Note_on_c, 0, 77, 64
3, 22409, Note_on_c, 0, 76, 74
3, 22580, Note_on_c, 0, 76, 0
3, 22594, Note_on_c, 0, 77, 0
3, 23053, Control_c, 0, 64, 0
3, 23057, Note_on_c, 0, 81, 65
3, 23066, Note_on_c, 0, 73, 48
3, 23082, Note_on_c, 0, 53, 57
3, 23088, Note_on_c, 0, 61, 44
3, 23460, Control_c, 0, 64, 127
3, 23675, Note_on_c, 0, 73, 0
3, 23771, Note_on_c, 0, 81, 0
3, 23833, Note_on_c, 0, 76, 48
3, 23835, Note_on_c, 0, 69, 55
3, 23851, Note_on_c, 0, 73, 18
3, 23852, Note_on_c, 0, 64, 46
3, 24320, Note_on_c, 0, 64, 0
3, 24324, Note_on_c, 0, 69, 0
3, 24354, Note_on_c, 0, 76, 0
3, 24454, Note_on_c, 0, 73, 0
3, 24481, Note_on_c, 0, 64, 27
3, 24486, Note_on_c, 0, 81, 65
3, 24889, Note_on_c, 0, 64, 0
3, 25010, Note_on_c, 0, 81, 0
3, 25121, Note_on_c, 0, 74, 62
3, 25123, Note_on_c, 0, 61, 0
3, 25150, Note_on_c, 0, 69, 40
3, 25151, Note_on_c, 0, 62, 53
3, 25173, Control_c, 0, 64, 0
3, 25778, Note_on_c, 0, 81, 1
3, 26001, Control_c, 0, 64, 127
3, 26158, Note_on_c, 0, 81, 0
3, 26227, Note_on_c, 0, 74, 0
3, 26357, Note_on_c, 0, 69, 0
3, 26895, Note_on_c, 0, 62, 0
3, 26978, Note_on_c, 0, 65, 34
3, 26982, Note_on_c, 0, 60, 32
3, 26983, Note_on_c, 0, 72, 34
3, 26991, Note_on_c, 0, 69, 38
3, 27024, Control_c, 0, 64, 0
3, 27677, Control_c, 0, 64, 127
3, 28759, Note_on_c, 0, 65, 0
3, 29149, Note_on_c, 0, 69, 0
3, 29516, Note_on_c, 0, 72, 0
3, 29705, Note_on_c, 0, 60, 0
3, 29829, Note_on_c, 0, 53, 0
3, 30709, Note_on_c, 0, 79, 80
3, 30713, Control_c, 0, 64, 0
3, 30734, Note_on_c, 0, 61, 62
3, 30741, Note_on_c, 0, 76, 85
3, 30753, Note_on_c, 0, 73, 62
3, 30755, Note_on_c, 0, 69, 84
3, 30771, Note_on_c, 0, 53, 60
3, 30778, Note_on_c, 0, 77, 36
3, 30785, Note_on_c, 0, 71, 60
3, 30847, Note_on_c, 0, 71, 0
3, 31047, Control_c, 0, 64, 127
3, 31304, Note_on_c, 0, 69, 0
3, 31496, Note_on_c, 0, 73, 0
3, 31521, Note_on_c, 0, 79, 0
3, 31526, Note_on_c, 0, 76, 0
3, 31560, Note_on_c, 0, 77, 0
3, 31725, Note_on_c, 0, 81, 80
3, 31730, Note_on_c, 0, 72, 87
3, 31735, Control_c, 0, 64, 0
3, 31741, Note_on_c, 0, 77, 69
3, 31757, Note_on_c, 0, 61, 0
3, 31772, Note_on_c, 0, 62, 75
3, 32087, Control_c, 0, 64, 127
3, 33238, Note_on_c, 0, 81, 0
3, 33272, Note_on_c, 0, 72, 0
3, 33284, Note_on_c, 0, 77, 0
3, 33376, Note_on_c, 0, 81, 64
3, 33682, Note_on_c, 0, 81, 0
3, 33731, Note_on_c, 0, 62, 0
3, 34015, Note_on_c, 0, 81, 69
3, 34104, Note_on_c, 0, 53, 0
3, 34244, Note_on_c, 0, 81, 0
3, 34648, Note_on_c, 0, 81, 57
3, 34678, Note_on_c, 0, 76, 60
3, 34680, Note_on_c, 0, 69, 44
3, 34685, Control_c, 0, 64, 0
3, 35326, Note_on_c, 0, 65, 36
3, 35618, Control_c, 0, 64, 127
3, 35659, Note_on_c, 0, 69, 0
3, 36035, Note_on_c, 0, 76, 0
3, 36139, Note_on_c, 0, 81, 0
3, 36451, Note_on_c, 0, 65, 0
3, 36545, Note_on_c, 0, 81, 85
3, 36600, Note_on_c, 0, 72, 80
3, 36956, Note_on_c, 0, 81, 0
3, 37005, Note_on_c, 0, 72, 0
3, 37241, Note_on_c, 0, 79, 59
3, 37272, Note_on_c, 0, 71, 61
3, 37471, Note_on_c, 0, 79, 0
3, 37521, Note_on_c, 0, 71, 0
3, 37945, Note_on_c, 0, 77, 37
3, 37961, Note_on_c, 0, 69, 53
3, 38085, Note_on_c, 0, 69, 0
3, 38117, Note_on_c, 0, 77, 0
3, 38547, Control_c, 0, 64, 0
3, 38561, Note_on_c, 0, 67, 35
3, 38585, Note_on_c, 0, 69, 38
3, 38603, Note_on_c, 0, 62, 39
3, 38626, Note_on_c, 0, 52, 32
3, 39129, Control_c, 0, 64, 127
3, 39522, Note_on_c, 0, 69, 0
3, 39666, Note_on_c, 0, 67, 0
3, 39696, Note_on_c, 0, 62, 0
3, 40446, Note_on_c, 0, 69, 73
3, 40453, Control_c, 0, 64, 0
3, 40599, Note_on_c, 0, 69, 0
3, 40611, Note_on_c, 0, 70, 59
3, 40794, Note_on_c, 0, 69, 52
3, 40805, Note_on_c, 0, 52, 0
3, 40826, Note_on_c, 0, 70, 0
3, 40979, Note_on_c, 0, 69, 0
3, 41030, Note_on_c, 0, 67, 44
3, 41188, Note_on_c, 0, 67, 0
3, 41310, Note_on_c, 0, 69, 64
3, 41495, Note_on_c, 0, 69, 0
3, 41982, Note_on_c, 0, 70, 50
3, 42160, Note_on_c, 0, 70, 0
3, 42357, Note_on_c, 0, 69, 31
3, 42799, Control_c, 0, 64, 127
3, 43670, Note_on_c, 0, 69, 0
3, 44210, Control_c, 0, 64, 0
3, 44237, Note_on_c, 0, 66, 38
3, 44246, Note_on_c, 0, 61, 37
3, 44270, Note_on_c, 0, 55, 32
3, 45191, Note_on_c, 0, 70, 38
3, 45235, Control_c, 0, 64, 127
3, 45249, Note_on_c, 0, 55, 0
3, 45281, Note_on_c, 0, 66, 0
3, 45307, Note_on_c, 0, 70, 0
3, 45449, Note_on_c, 0, 73, 37
3, 45453, Note_on_c, 0, 61, 0
3, 45587, Control_c, 0, 64, 0
3, 45599, Note_on_c, 0, 73, 0
3, 45715, Note_on_c, 0, 76, 81
3, 45891, Note_on_c, 0, 76, 0
3, 45941, Control_c, 0, 64, 127
3, 45977, Note_on_c, 0, 79, 87
3, 46169, Control_c, 0, 64, 0
3, 46173, Note_on_c, 0, 79, 0
3, 46241, Note_on_c, 0, 50, 42
3, 46245, Note_on_c, 0, 57, 41
3, 46259, Note_on_c, 0, 77, 66
3, 46699, Control_c, 0, 64, 127
3, 47227, Note_on_c, 0, 65, 33
3, 47415, Note_on_c, 0, 65, 0
3, 47440, Note_on_c, 0, 50, 0
3, 47991, Note_on_c, 0, 77, 0
3, 48710, Control_c, 0, 64, 0
3, 48742, Note_on_c, 0, 61, 72
3, 48744, Note_on_c, 0, 79, 80
3, 48764, Note_on_c, 0, 67, 89
3, 48779, Note_on_c, 0, 73, 50
3, 48885, Note_on_c, 0, 57, 0
3, 49106, Note_on_c, 0, 73, 0
3, 49133, Note_on_c, 0, 67, 0
3, 49186, Note_on_c, 0, 79, 0
3, 49205, Control_c, 0, 64, 127
3, 49409, Note_on_c, 0, 79, 74
3, 49768, Note_on_c, 0, 79, 0
3, 49944, Note_on_c, 0, 61, 0
3, 50078, Note_on_c, 0, 79, 61
3, 50082, Note_on_c, 0, 72, 53
3, 50087, Control_c, 0, 64, 0
3, 50112, Note_on_c, 0, 67, 50
3, 50115, Note_on_c, 0, 60, 34
3, 50492, Control_c, 0, 64, 127
3, 50817, Note_on_c, 0, 79, 0
3, 51256, Note_on_c, 0, 72, 0
3, 51257, Note_on_c, 0, 67, 0
3, 51514, Note_on_c, 0, 60, 0
3, 51618, Note_on_c, 0, 79, 60
3, 51681, Note_on_c, 0, 67, 49
3, 51806, Note_on_c, 0, 67, 0
3, 51840, Note_on_c, 0, 79, 0
3, 52028, Control_c, 0, 64, 0
3, 52069, Note_on_c, 0, 79, 48
3, 52090, Note_on_c, 0, 67, 49
3, 52116, Note_on_c, 0, 59, 37
3, 52398, Control_c, 0, 64, 127
3, 52866, Note_on_c, 0, 59, 0
3, 53058, Note_on_c, 0, 67, 0
3, 53174, Note_on_c, 0, 79, 0
3, 53271, Note_on_c, 0, 77, 56
3, 53529, Note_on_c, 0, 77, 0
3, 53591, Note_on_c, 0, 76, 57
3, 53751, Note_on_c, 0, 76, 0
3, 53929, Note_on_c, 0, 67, 35
3, 53932, Control_c, 0, 64, 0
3, 53948, Note_on_c, 0, 62, 31
3, 53961, Note_on_c, 0, 53, 17
3, 53964, Note_on_c, 0, 57, 27
3, 54031, Note_on_c, 0, 58, 19
3, 54675, Control_c, 0, 64, 127
3, 55712, Note_on_c, 0, 58, 0
3, 55747, Note_on_c, 0, 62, 0
3, 55749, Note_on_c, 0, 57, 0
3, 55804, Note_on_c, 0, 53, 0
3, 55831, Note_on_c, 0, 67, 0
3, 56597, Control_c, 0, 64, 0
3, 56666, Note_on_c, 0, 62, 58
3, 56671, Note_on_c, 0, 54, 29
3, 56687, Note_on_c, 0, 69, 68
3, 56861, Note_on_c, 0, 69, 0
3, 56881, Control_c, 0, 64, 127
3, 57296, Note_on_c, 0, 62, 0
3, 57308, Note_on_c, 0, 77, 101
3, 57505, Note_on_c, 0, 54, 0
3, 57753, Note_on_c, 0, 77, 0
3, 57780, Note_on_c, 0, 62, 38
3, 57797, Control_c, 0, 64, 0
3, 57801, Note_on_c, 0, 57, 30
3, 57819, Note_on_c, 0, 53, 22
3, 57854, Note_on_c, 0, 58, 25
3, 57880, Note_on_c, 0, 74, 66
3, 58285, Note_on_c, 0, 72, 20
3, 58310, Control_c, 0, 64, 127
3, 58356, Note_on_c, 0, 72, 0
3, 58357, Note_on_c, 0, 74, 0
3, 58363, Control_c, 0, 64, 0
3, 58574, Control_c, 0, 64, 127
3, 58605, Note_on_c, 0, 70, 57
3, 58676, Note_on_c, 0, 58, 0
3, 58795, Note_on_c, 0, 62, 0
3, 58815, Note_on_c, 0, 57, 0
3, 58975, Note_on_c, 0, 53, 0
3, 59200, Note_on_c, 0, 70, 0
3, 59237, Note_on_c, 0, 65, 55
3, 59279, Note_on_c, 0, 62, 36
3, 59334, Control_c, 0, 64, 0
3, 59495, Note_on_c, 0, 52, 7
3, 59499, Note_on_c, 0, 58, 3
3, 59676, Note_on_c, 0, 62, 0
3, 59683, Note_on_c, 0, 65, 0
3, 59820, Note_on_c, 0, 62, 48
3, 59844, Control_c, 0, 64, 127
3, 60409, Control_c, 0, 64, 0
3, 60413, Note_on_c, 0, 62, 0
3, 60495, Note_on_c, 0, 52, 0
3, 60518, Note_on_c, 0, 65, 58
3, 60556, Note_on_c, 0, 58, 0
3, 60638, Control_c, 0, 64, 127
3, 61002, Note_on_c, 0, 65, 0
3, 61175, Note_on_c, 0, 57, 45
3, 61185, Control_c, 0, 64, 0
3, 61187, Note_on_c, 0, 64, 54
3, 61194, Note_on_c, 0, 53, 35
3, 61462, Note_on_c, 0, 57, 0
3, 61627, Control_c, 0, 64, 127
3, 61661, Note_on_c, 0, 64, 0
3, 61673, Note_on_c, 0, 53, 0
3, 61750, Note_on_c, 0, 60, 34
3, 62329, Note_on_c, 0, 60, 0
3, 62368, Control_c, 0, 64, 0
3, 62398, Note_on_c, 0, 57, 51
3, 62614, Control_c, 0, 64, 127
3, 62938, Note_on_c, 0, 57, 0
3, 63014, Note_on_c, 0, 55, 68
3, 63197, Control_c, 0, 64, 0
3, 63454, Note_on_c, 0, 55, 0
3, 63577, Note_on_c, 0, 55, 74
3, 64060, Note_on_c, 0, 55, 0
3, 64125, Note_on_c, 0, 57, 85
3, 64174, Note_on_c, 0, 55, 36
3, 64243, Note_on_c, 0, 55, 0
3, 64588, Note_on_c, 0, 57, 0
3, 64706, Note_on_c, 0, 57, 73
3, 65165, Note_on_c, 0, 57, 0
3, 65362, Note_on_c, 0, 57, 52
3, 66196, Control_c, 0, 64, 127
3, 66400, Note_on_c, 0, 57, 0
3, 68690, Note_on_c, 0, 69, 64
3, 68831, Note_on_c, 0, 69, 0
3, 68958, Note_on_c, 0, 70, 83
3, 69141, Note_on_c, 0, 70, 0
3, 69197, Control_c, 0, 64, 0
3, 69252, Note_on_c, 0, 72, 90
3, 69266, Note_on_c, 0, 62, 64
3, 69267, Note_on_c, 0, 57, 55
3, 69283, Note_on_c, 0, 58, 37
3, 69301, Note_on_c, 0, 53, 45
3, 70140, Note_on_c, 0, 72, 0
3, 70163, Note_on_c, 0, 74, 56
3, 70767, Note_on_c, 0, 67, 44
3, 71068, Note_on_c, 0, 67, 0
3, 71256, Note_on_c, 0, 74, 0
3, 71323, Note_on_c, 0, 67, 38
3, 71659, Note_on_c, 0, 67, 0
3, 72043, Note_on_c, 0, 67, 42
3, 72564, Note_on_c, 0, 67, 0
3, 72610, Note_on_c, 0, 58, 0
3, 72671, Note_on_c, 0, 53, 0
3, 72687, Note_on_c, 0, 57, 0
3, 72696, Note_on_c, 0, 62, 0
3, 74873, Note_on_c, 0, 62, 34
3, 74917, Note_on_c, 0, 52, 32
3, 74933, Note_on_c, 0, 58, 25
3, 75200, Note_on_c, 0, 58, 0
3, 75250, Note_on_c, 0, 52, 0
3, 75283, Note_on_c, 0, 62, 0
3, 76756, Note_on_c, 0, 82, 52
3, 76790, Note_on_c, 0, 70, 37
3, 76797, Note_on_c, 0, 62, 57
3, 76819, Note_on_c, 0, 57, 44
3, 76835, Note_on_c, 0, 58, 33
3, 76841, Note_on_c, 0, 53, 33
3, 77569, Note_on_c, 0, 70, 0
3, 77638, Note_on_c, 0, 82, 0
3, 77640, Note_on_c, 0, 58, 0
3, 77721, Note_on_c, 0, 53, 0
3, 77742, Note_on_c, 0, 62, 0
3, 77770, Note_on_c, 0, 57, 0
3, 78720, Note_on_c, 0, 84, 64
3, 78736, Note_on_c, 0, 72, 40
3, 78738, Note_on_c, 0, 62, 44
3, 78757, Note_on_c, 0, 57, 27
3, 78793, Note_on_c, 0, 58, 31
3, 79025, Note_on_c, 0, 58, 0
3, 79060, Note_on_c, 0, 84, 0
3, 79072, Note_on_c, 0, 62, 0
3, 79074, Note_on_c, 0, 57, 0
3, 79085, Note_on_c, 0, 72, 0
3, 79659, Note_on_c, 0, 62, 41
3, 79667, Note_on_c, 0, 84, 54
3, 79681, Note_on_c, 0, 57, 30
3, 79683, Note_on_c, 0, 72, 37
3, 79738, Note_on_c, 0, 58, 30
3, 80002, Note_on_c, 0, 84, 0
3, 80019, Note_on_c, 0, 58, 0
3, 80084, Note_on_c, 0, 72, 0
3, 80137, Note_on_c, 0, 62, 0
3, 80141, Note_on_c, 0, 57, 0
3, 82147, Note_on_c, 0, 78, 71
3, 82152, Note_on_c, 0, 72, 76
3, 82160, Note_on_c, 0, 58, 71
3, 82161, Note_on_c, 0, 84, 80
3, 82163, Note_on_c, 0, 64, 64
3, 82167, Note_on_c, 0, 69, 71
3, 82424, Note_on_c, 0, 69, 0
3, 82441, Note_on_c, 0, 79, 49
3, 82444, Note_on_c, 0, 78, 0
3, 82448, Note_on_c, 0, 72, 0
3, 82467, Note_on_c, 0, 84, 0
3, 82473, Note_on_c, 0, 64, 0
3, 82475, Note_on_c, 0, 58, 0
3, 82515, Note_on_c, 0, 79, 0
3, 83096, Note_on_c, 0, 72, 66
3, 83097, Note_on_c, 0, 78, 59
3, 83104, Note_on_c, 0, 62, 73
3, 83106, Note_on_c, 0, 84, 71
3, 83115, Note_on_c, 0, 52, 66
3, 83117, Note_on_c, 0, 58, 50
3, 83397, Note_on_c, 0, 78, 0
3, 83406, Note_on_c, 0, 79, 36
3, 83450, Note_on_c, 0, 52, 0
3, 83480, Note_on_c, 0, 58, 0
3, 83481, Note_on_c, 0, 72, 0
3, 83497, Note_on_c, 0, 62, 0
3, 83509, Note_on_c, 0, 79, 0
3, 83523, Note_on_c, 0, 84, 0
3, 83872, Note_on_c, 0, 74, 64
3, 83876, Note_on_c, 0, 86, 71
3, 83888, Note_on_c, 0, 58, 44
3, 83902, Note_on_c, 0, 62, 53
3, 83918, Note_on_c, 0, 52, 43
3, 83958, Note_on_c, 0, 74, 0
3, 83967, Note_on_c, 0, 62, 0
3, 83986, Note_on_c, 0, 52, 0
3, 83988, Note_on_c, 0, 58, 0
3, 83997, Note_on_c, 0, 86, 0
3, 84155, Note_on_c, 0, 62, 66
3, 84162, Note_on_c, 0, 52, 33
3, 84164, Note_on_c, 0, 88, 72
3, 84169, Note_on_c, 0, 76, 60
3, 84180, Note_on_c, 0, 58, 33
3, 84236, Note_on_c, 0, 76, 0
3, 84242, Note_on_c, 0, 52, 0
3, 84259, Note_on_c, 0, 58, 0
3, 84303, Note_on_c, 0, 62, 0
3, 84308, Note_on_c, 0, 88, 0
3, 84491, Note_on_c, 0, 64, 82
3, 84502, Note_on_c, 0, 53, 68
3, 84507, Note_on_c, 0, 93, 87
3, 84514, Note_on_c, 0, 60, 47
3, 84516, Note_on_c, 0, 57, 60
3, 84520, Note_on_c, 0, 81, 50
3, 84539, Note_on_c, 0, 83, 54
3, 84564, Note_on_c, 0, 88, 50
3, 84607, Note_on_c, 0, 83, 0
3, 85341, Control_c, 0, 64, 127
3, 85588, Note_on_c, 0, 93, 0
3, 85630, Note_on_c, 0, 88, 0
3, 85734, Note_on_c, 0, 81, 0
3, 86001, Note_on_c, 0, 60, 0
3, 86107, Note_on_c, 0, 64, 0
3, 86258, Control_c, 0, 64, 0
3, 86309, Note_on_c, 0, 69, 43
3, 86317, Note_on_c, 0, 73, 25
3, 86330, Note_on_c, 0, 76, 43
3, 86352, Note_on_c, 0, 61, 34
3, 86450, Note_on_c, 0, 69, 0
3, 86500, Note_on_c, 0, 73, 0
3, 86505, Note_on_c, 0, 76, 0
3, 86614, Note_on_c, 0, 79, 53
3, 86660, Note_on_c, 0, 73, 27
3, 86667, Note_on_c, 0, 69, 49
3, 86707, Note_on_c, 0, 61, 0
3, 86714, Note_on_c, 0, 64, 32
3, 86769, Note_on_c, 0, 69, 0
3, 86783, Note_on_c, 0, 73, 0
3, 86792, Note_on_c, 0, 64, 0
3, 86809, Note_on_c, 0, 79, 0
3, 86850, Note_on_c, 0, 57, 0
3, 87012, Note_on_c, 0, 53, 0
3, 87300, Note_on_c, 0, 77, 53
3, 87307, Note_on_c, 0, 62, 50
3, 87315, Note_on_c, 0, 69, 59
3, 87329, Note_on_c, 0, 74, 47
3, 87330, Note_on_c, 0, 53, 26
3, 87452, Note_on_c, 0, 69, 0
3, 87460, Note_on_c, 0, 74, 0
3, 87469, Note_on_c, 0, 62, 0
3, 87492, Note_on_c, 0, 77, 0
3, 87561, Note_on_c, 0, 53, 0
3, 87990, Note_on_c, 0, 76, 40
3, 88008, Note_on_c, 0, 61, 48
3, 88010, Note_on_c, 0, 65, 38
3, 88020, Note_on_c, 0, 53, 46
3, 88034, Note_on_c, 0, 73, 20
3, 88041, Note_on_c, 0, 69, 40
3, 88122, Note_on_c, 0, 69, 0
3, 88152, Note_on_c, 0, 73, 0
3, 88163, Note_on_c, 0, 65, 0
3, 88191, Note_on_c, 0, 61, 0
3, 88219, Note_on_c, 0, 53, 0
3, 88252, Note_on_c, 0, 76, 0
3, 88659, Note_on_c, 0, 65, 42
3, 88664, Note_on_c, 0, 74, 42
3, 88666, Note_on_c, 0, 53, 48
3, 88682, Note_on_c, 0, 60, 32
3, 88684, Note_on_c, 0, 69, 41
3, 88807, Note_on_c, 0, 69, 0
3, 88863, Note_on_c, 0, 60, 0
3, 88893, Note_on_c, 0, 65, 0
3, 88914, Note_on_c, 0, 74, 0
3, 88918, Note_on_c, 0, 53, 0
3, 89345, Note_on_c, 0, 69, 44
3, 89349, Note_on_c, 0, 65, 36
3, 89351, Note_on_c, 0, 53, 42
3, 89354, Note_on_c, 0, 60, 30
3, 89736, Control_c, 0, 64, 127
3, 91014, Note_on_c, 0, 60, 0
3, 91176, Note_on_c, 0, 69, 0
3, 91192, Note_on_c, 0, 65, 0
3, 91268, Note_on_c, 0, 53, 0
3, 92065, Control_c, 0, 64, 0
3, 92119, Note_on_c, 0, 52, 50
3, 92131, Note_on_c, 0, 61, 56
3, 92147, Note_on_c, 0, 67, 56
3, 92155, Note_on_c, 0, 57, 60
3, 92184, Note_on_c, 0, 64, 36
3, 92577, Control_c, 0, 64, 127
3, 92802, Note_on_c, 0, 57, 0
3, 92881, Note_on_c, 0, 67, 0
3, 92948, Note_on_c, 0, 64, 0
3, 92966, Note_on_c, 0, 51, 45
3, 93001, Note_on_c, 0, 61, 0
3, 93142, Control_c, 0, 64, 0
3, 93147, Note_on_c, 0, 60, 69
3, 93149, Note_on_c, 0, 62, 75
3, 93152, Note_on_c, 0, 65, 69
3, 93154, Note_on_c, 0, 69, 74
3, 93161, Note_on_c, 0, 53, 75
3, 93168, Note_on_c, 0, 52, 0
3, 93223, Note_on_c, 0, 51, 0
3, 93670, Control_c, 0, 64, 127
3, 93902, Note_on_c, 0, 65, 0
3, 93925, Note_on_c, 0, 62, 0
3, 93935, Note_on_c, 0, 60, 0
3, 93981, Note_on_c, 0, 69, 0
3, 94149, Note_on_c, 0, 69, 76
3, 94182, Control_c, 0, 64, 0
3, 94210, Note_on_c, 0, 53, 0
3, 94323, Control_c, 0, 64, 127
3, 94761, Note_on_c, 0, 69, 0
3, 95062, Note_on_c, 0, 57, 48
3, 95079, Note_on_c, 0, 62, 62
3, 95247, Note_on_c, 0, 57, 0
3, 95386, Note_on_c, 0, 62, 0
3, 97429, Control_c, 0, 64, 0
3, 97496, Note_on_c, 0, 81, 77
3, 97503, Note_on_c, 0, 73, 69
3, 97510, Note_on_c, 0, 61, 59
3, 97512, Note_on_c, 0, 53, 62
3, 97524, Note_on_c, 0, 69, 78
3, 97693, Control_c, 0, 64, 127
3, 97855, Note_on_c, 0, 69, 0
3, 97871, Note_on_c, 0, 81, 0
3, 97926, Note_on_c, 0, 73, 0
3, 98012, Control_c, 0, 64, 0
3, 98068, Note_on_c, 0, 81, 74
3, 98073, Note_on_c, 0, 73, 52
3, 98087, Note_on_c, 0, 69, 71
3, 98093, Note_on_c, 0, 64, 66
3, 98364, Control_c, 0, 64, 127
3, 98439, Note_on_c, 0, 64, 0
3, 98492, Note_on_c, 0, 69, 0
3, 98586, Note_on_c, 0, 81, 0
3, 98647, Note_on_c, 0, 73, 0
3, 98707, Note_on_c, 0, 62, 60
3, 98718, Control_c, 0, 64, 0
3, 98726, Note_on_c, 0, 79, 58
3, 98746, Note_on_c, 0, 69, 58
3, 98786, Note_on_c, 0, 61, 0
3, 98816, Note_on_c, 0, 74, 26
3, 98892, Note_on_c, 0, 74, 0
3, 99052, Control_c, 0, 64, 127
3, 99117, Note_on_c, 0, 69, 0
3, 99222, Note_on_c, 0, 79, 0
3, 99235, Note_on_c, 0, 62, 0
3, 99279, Note_on_c, 0, 53, 0
3, 99371, Note_on_c, 0, 77, 54
3, 99434, Note_on_c, 0, 79, 22
3, 99668, Note_on_c, 0, 77, 0
3, 99726, Note_on_c, 0, 79, 0
3, 99883, Control_c, 0, 64, 0
3, 99907, Note_on_c, 0, 81, 54
3, 99918, Note_on_c, 0, 62, 44
3, 99934, Note_on_c, 0, 74, 47
3, 99937, Note_on_c, 0, 69, 44
3, 99941, Note_on_c, 0, 52, 37
3, 99972, Note_on_c, 0, 58, 29
3, 100712, Control_c, 0, 64, 127
3, 100910, Note_on_c, 0, 58, 0
3, 100921, Note_on_c, 0, 52, 0
3, 101078, Note_on_c, 0, 69, 0
3, 101079, Note_on_c, 0, 62, 0
3, 101085, Note_on_c, 0, 74, 0
3, 101268, Note_on_c, 0, 81, 0
3, 101829, Note_on_c, 0, 81, 35
3, 101838, Note_on_c, 0, 73, 21
3, 101857, Control_c, 0, 64, 0
3, 101859, Note_on_c, 0, 55, 42
3, 101862, Note_on_c, 0, 64, 40
3, 101866, Note_on_c, 0, 69, 36
3, 101869, Note_on_c, 0, 61, 42
3, 101885, Note_on_c, 0, 76, 47
3, 102369, Control_c, 0, 64, 127
3, 102607, Note_on_c, 0, 69, 0
3, 102739, Note_on_c, 0, 73, 0
3, 102743, Note_on_c, 0, 55, 0
3, 102788, Note_on_c, 0, 61, 0
3, 102820, Note_on_c, 0, 64, 0
3, 102827, Note_on_c, 0, 76, 0
3, 102929, Note_on_c, 0, 81, 0
3, 103658, Control_c, 0, 64, 0
3, 103668, Note_on_c, 0, 93, 68
3, 103688, Note_on_c, 0, 89, 79
3, 103695, Note_on_c, 0, 60, 51
3, 103707, Note_on_c, 0, 55, 60
3, 103709, Note_on_c, 0, 61, 64
3, 103726, Note_on_c, 0, 81, 78
3, 103732, Note_on_c, 0, 65, 71
3, 103957, Control_c, 0, 64, 127
3, 104036, Note_on_c, 0, 81, 0
3, 104099, Note_on_c, 0, 89, 0
3, 104124, Note_on_c, 0, 93, 0
3, 104231, Note_on_c, 0, 60, 0
3, 104247, Note_on_c, 0, 61, 0
3, 104282, Note_on_c, 0, 55, 0
3, 104293, Note_on_c, 0, 65, 0
3, 104619, Note_on_c, 0, 96, 65
3, 104645, Control_c, 0, 64, 0
3, 104652, Note_on_c, 0, 60, 57
3, 104666, Note_on_c, 0, 61, 61
3, 104668, Note_on_c, 0, 65, 77
3, 104675, Note_on_c, 0, 91, 74
3, 104684, Note_on_c, 0, 55, 64
3, 104693, Note_on_c, 0, 84, 77
3, 104929, Control_c, 0, 64, 127
3, 105076, Note_on_c, 0, 84, 0
3, 105106, Note_on_c, 0, 91, 0
3, 105129, Note_on_c, 0, 60, 0
3, 105163, Note_on_c, 0, 65, 0
3, 105200, Note_on_c, 0, 96, 0
3, 105217, Note_on_c, 0, 55, 0
3, 105261, Note_on_c, 0, 61, 0
3, 105634, Control_c, 0, 64, 0
3, 105636, Note_on_c, 0, 98, 54
3, 105653, Note_on_c, 0, 64, 57
3, 105661, Note_on_c, 0, 54, 37
3, 105671, Note_on_c, 0, 60, 33
3, 105682, Note_on_c, 0, 93, 63
3, 105698, Note_on_c, 0, 86, 59
3, 105933, Control_c, 0, 64, 127
3, 105942, Note_on_c, 0, 86, 0
3, 105979, Note_on_c, 0, 93, 0
3, 106044, Note_on_c, 0, 98, 0
3, 106222, Note_on_c, 0, 60, 0
3, 106240, Note_on_c, 0, 64, 0
3, 106352, Note_on_c, 0, 54, 0
3, 106569, Control_c, 0, 64, 0
3, 106572, Note_on_c, 0, 54, 31
3, 106581, Note_on_c, 0, 64, 53
3, 106587, Note_on_c, 0, 101, 55
3, 106615, Note_on_c, 0, 89, 41
3, 106618, Note_on_c, 0, 96, 44
3, 106625, Note_on_c, 0, 60, 27
3, 106780, Control_c, 0, 64, 127
3, 106799, Note_on_c, 0, 101, 0
3, 106820, Note_on_c, 0, 96, 0
3, 106841, Note_on_c, 0, 60, 0
3, 106870, Note_on_c, 0, 89, 0
3, 106871, Note_on_c, 0, 64, 0
3, 107114, Note_on_c, 0, 54, 0
3, 107486, Control_c, 0, 64, 0
3, 107547, Note_on_c, 0, 94, 57
3, 107549, Note_on_c, 0, 62, 50
3, 107569, Note_on_c, 0, 53, 36
3, 107570, Note_on_c, 0, 82, 37
3, 107572, Note_on_c, 0, 55, 40
3, 107628, Note_on_c, 0, 58, 25
3, 107804, Control_c, 0, 64, 127
3, 107957, Note_on_c, 0, 94, 0
3, 108079, Note_on_c, 0, 82, 0
3, 108163, Note_on_c, 0, 62, 0
3, 108211, Note_on_c, 0, 58, 0
3, 108331, Note_on_c, 0, 53, 0
3, 108332, Note_on_c, 0, 55, 0
3, 110363, Control_c, 0, 64, 0
3, 110610, Control_c, 0, 64, 127
3, 111228, Control_c, 0, 64, 0
3, 111280, Note_on_c, 0, 71, 64
3, 111295, Note_on_c, 0, 68, 57
3, 111302, Note_on_c, 0, 56, 48
3, 111303, Note_on_c, 0, 47, 59
3, 111330, Note_on_c, 0, 62, 43
3, 111398, Note_on_c, 0, 62, 0
3, 111412, Note_on_c, 0, 56, 0
3, 111425, Note_on_c, 0, 68, 0
3, 111472, Note_on_c, 0, 71, 0
3, 111481, Note_on_c, 0, 47, 0
3, 112239, Note_on_c, 0, 68, 77
3, 112252, Note_on_c, 0, 74, 70
3, 112255, Note_on_c, 0, 56, 52
3, 112263, Note_on_c, 0, 64, 71
3, 112264, Note_on_c, 0, 47, 58
3, 112320, Note_on_c, 0, 64, 0
3, 112327, Note_on_c, 0, 47, 0
3, 112351, Note_on_c, 0, 56, 0
3, 112384, Note_on_c, 0, 68, 0
3, 112408, Note_on_c, 0, 74, 0
3, 112905, Control_c, 0, 64, 127
3, 113063, Control_c, 0, 64, 0
3, 113225, Note_on_c, 0, 72, 70
3, 113234, Note_on_c, 0, 58, 56
3, 113238, Note_on_c, 0, 48, 60
3, 113239, Note_on_c, 0, 65, 68
3, 113251, Note_on_c, 0, 62, 66
3, 113473, Control_c, 0, 64, 127
3, 113590, Note_on_c, 0, 72, 0
3, 113611, Note_on_c, 0, 65, 0
3, 113742, Note_on_c, 0, 62, 0
3, 114167, Note_on_c, 0, 58, 0
3, 114426, Note_on_c, 0, 48, 0
3, 114902, Note_on_c, 0, 60, 103
3, 115149, Control_c, 0, 64, 0
3, 115186, Note_on_c, 0, 60, 0
3, 115307, Note_on_c, 0, 60, 64
3, 115314, Note_on_c, 0, 48, 41
3, 115383, Note_on_c, 0, 47, 25
3, 115441, Note_on_c, 0, 47, 0
3, 115735, Note_on_c, 0, 60, 0
3, 115883, Note_on_c, 0, 60, 55
3, 116064, Note_on_c, 0, 60, 0
3, 116191, Note_on_c, 0, 60, 48
3, 116710, Note_on_c, 0, 60, 0
3, 117139, Note_on_c, 0, 60, 53
3, 117555, Note_on_c, 0, 60, 0
3, 117671, Note_on_c, 0, 62, 50
3, 117792, Note_on_c, 0, 60, 26
3, 117864, Note_on_c, 0, 62, 0
3, 117924, Note_on_c, 0, 59, 54
3, 117954, Note_on_c, 0, 60, 0
3, 118065, Note_on_c, 0, 59, 0
3, 118111, Note_on_c, 0, 60, 56
3, 118841, Note_on_c, 0, 60, 0
3, 119083, Note_on_c, 0, 60, 62
3, 119406, Note_on_c, 0, 60, 0
3, 119466, Note_on_c, 0, 62, 46
3, 119559, Note_on_c, 0, 60, 37
3, 119651, Note_on_c, 0, 62, 0
3, 119792, Note_on_c, 0, 60, 0
3, 119795, Note_on_c, 0, 59, 40
3, 119897, Note_on_c, 0, 59, 0
3, 120002, Note_on_c, 0, 60, 54
3, 120689, Note_on_c, 0, 60, 0
3, 120960, Note_on_c, 0, 60, 68
3, 121290, Note_on_c, 0, 60, 0
3, 121379, Note_on_c, 0, 62, 39
3, 121418, Note_on_c, 0, 48, 0
3, 121476, Note_on_c, 0, 60, 25
3, 121564, Note_on_c, 0, 62, 0
3, 121742, Note_on_c, 0, 60, 0
3, 121751, Note_on_c, 0, 59, 58
3, 121893, Note_on_c, 0, 59, 0
3, 121981, Note_on_c, 0, 60, 71
3, 122513, Note_on_c, 0, 60, 0
3, 122548, Note_on_c, 0, 62, 54
3, 122645, Note_on_c, 0, 60, 46
3, 122711, Note_on_c, 0, 62, 0
3, 122870, Note_on_c, 0, 41, 24
3, 122872, Note_on_c, 0, 60, 0
3, 122898, Note_on_c, 0, 59, 50
3, 122963, Note_on_c, 0, 41, 0
3, 123488, Note_on_c, 0, 59, 0
3, 123505, Note_on_c, 0, 60, 48
3, 123667, Note_on_c, 0, 60, 0
3, 123790, Note_on_c, 0, 62, 74
3, 124661, Note_on_c, 0, 62, 0
3, 124741, Note_on_c, 0, 53, 60
3, 125070, Note_on_c, 0, 53, 0
3, 125746, Note_on_c, 0, 46, 55
3, 126144, Note_on_c, 0, 46, 0
3, 128701, Note_on_c, 0, 69, 118
3, 128702, Note_on_c, 0, 62, 67
3, 128717, Note_on_c, 0, 57, 51
3, 128747, Note_on_c, 0, 58, 32
3, 128789, Note_on_c, 0, 57, 0
3, 128827, Note_on_c, 0, 62, 0
3, 128838, Note_on_c, 0, 58, 0
3, 129438, Note_on_c, 0, 69, 0
3, 129445, Note_on_c, 0, 70, 47
3, 129611, Note_on_c, 0, 70, 0
3, 129697, Note_on_c, 0, 72, 66
3, 130313, Note_on_c, 0, 72, 0
3, 130390, Note_on_c, 0, 62, 60
3, 130392, Note_on_c, 0, 69, 60
3, 130454, Note_on_c, 0, 62, 0
3, 130461, Note_on_c, 0, 55, 32
3, 130549, Note_on_c, 0, 69, 0
3, 130575, Note_on_c, 0, 55, 0
3, 130702, Note_on_c, 0, 62, 41
3, 131232, Note_on_c, 0, 62, 0
3, 131329, Note_on_c, 0, 62, 42
3, 131476, Note_on_c, 0, 62, 0
3, 132562, Note_on_c, 0, 62, 54
3, 132629, Note_on_c, 0, 58, 25
3, 132698, Note_on_c, 0, 58, 0
3, 132735, Note_on_c, 0, 62, 0
3, 134433, Note_on_c, 0, 62, 42
3, 134454, Note_on_c, 0, 52, 29
3, 134554, Note_on_c, 0, 52, 0
3, 134560, Note_on_c, 0, 62, 0
3, 135405, Note_on_c, 0, 85, 85
3, 135406, Note_on_c, 0, 73, 74
3, 135979, Note_on_c, 0, 85, 0
3, 135985, Note_on_c, 0, 73, 0
3, 136117, Note_on_c, 0, 74, 37
3, 136137, Note_on_c, 0, 86, 31
3, 136197, Note_on_c, 0, 74, 0
3, 136216, Note_on_c, 0, 86, 0
3, 136388, Note_on_c, 0, 77, 71
3, 136394, Note_on_c, 0, 89, 76
3, 136806, Note_on_c, 0, 89, 0
3, 136809, Note_on_c, 0, 77, 0
3, 137049, Note_on_c, 0, 91, 66
3, 137050, Note_on_c, 0, 62, 68
3, 137061, Note_on_c, 0, 79, 46
3, 137086, Note_on_c, 0, 58, 33
3, 137087, Note_on_c, 0, 57, 42
3, 137108, Note_on_c, 0, 91, 0
3, 137130, Note_on_c, 0, 79, 0
3, 137131, Note_on_c, 0, 62, 0
3, 137142, Note_on_c, 0, 90, 43
3, 137151, Note_on_c, 0, 58, 0
3, 137154, Note_on_c, 0, 57, 0
3, 137201, Note_on_c, 0, 90, 0
3, 137323, Note_on_c, 0, 80, 81
3, 137328, Note_on_c, 0, 92, 87
3, 137365, Note_on_c, 0, 86, 62
3, 137429, Note_on_c, 0, 86, 0
3, 137721, Note_on_c, 0, 81, 35
3, 137722, Note_on_c, 0, 80, 0
3, 137737, Note_on_c, 0, 86, 1
3, 137861, Note_on_c, 0, 86, 0
3, 137885, Note_on_c, 0, 92, 0
3, 137916, Note_on_c, 0, 81, 0
3, 138249, Note_on_c, 0, 89, 38
3, 138289, Note_on_c, 0, 77, 24
3, 138698, Note_on_c, 0, 89, 0
3, 138764, Note_on_c, 0, 77, 0
3, 138904, Note_on_c, 0, 89, 34
3, 138907, Note_on_c, 0, 77, 45
3, 138995, Note_on_c, 0, 89, 0
3, 139014, Note_on_c, 0, 77, 0
3, 140157, Note_on_c, 0, 62, 48
3, 140178, Note_on_c, 0, 57, 37
3, 140333, Note_on_c, 0, 62, 0
3, 140357, Note_on_c, 0, 57, 0
3, 142072, Note_on_c, 0, 62, 59
3, 142093, Note_on_c, 0, 52, 40
3, 142108, Note_on_c, 0, 58, 27
3, 142173, Note_on_c, 0, 62, 0
3, 142175, Note_on_c, 0, 58, 0
3, 142182, Note_on_c, 0, 52, 0
3, 143092, Note_on_c, 0, 84, 94
3, 143094, Note_on_c, 0, 72, 95
3, 143099, Note_on_c, 0, 81, 87
3, 143128, Note_on_c, 0, 83, 51
3, 143191, Note_on_c, 0, 83, 0
3, 143576, Note_on_c, 0, 84, 0
3, 143627, Note_on_c, 0, 72, 0
3, 143662, Note_on_c, 0, 81, 0
3, 143756, Note_on_c, 0, 84, 55
3, 143770, Note_on_c, 0, 72, 62
3, 143791, Note_on_c, 0, 81, 57
3, 143844, Note_on_c, 0, 62, 55
3, 143863, Note_on_c, 0, 58, 32
3, 143913, Note_on_c, 0, 62, 0
3, 143951, Note_on_c, 0, 58, 0
3, 143960, Note_on_c, 0, 84, 0
3, 143997, Note_on_c, 0, 81, 0
3, 144076, Note_on_c, 0, 84, 54
3, 144096, Note_on_c, 0, 81, 36
3, 144479, Note_on_c, 0, 81, 0
3, 144565, Note_on_c, 0, 84, 0
3, 144667, Note_on_c, 0, 72, 0
3, 144733, Note_on_c, 0, 72, 24
3, 144756, Note_on_c, 0, 81, 50
3, 144824, Note_on_c, 0, 72, 0
3, 144857, Note_on_c, 0, 52, 47
3, 144861, Note_on_c, 0, 62, 37
3, 144880, Note_on_c, 0, 81, 0
3, 144926, Note_on_c, 0, 52, 0
3, 144931, Note_on_c, 0, 62, 0
3, 145023, Note_on_c, 0, 82, 67
3, 145029, Note_on_c, 0, 70, 63
3, 145498, Note_on_c, 0, 82, 0
3, 145563, Note_on_c, 0, 70, 0
3, 145712, Note_on_c, 0, 70, 38
3, 145715, Note_on_c, 0, 82, 30
3, 145832, Note_on_c, 0, 70, 0
3, 145852, Note_on_c, 0, 82, 0
3, 145935, Note_on_c, 0, 53, 46
3, 145940, Note_on_c, 0, 64, 39
3, 145964, Note_on_c, 0, 69, 65
3, 145968, Note_on_c, 0, 81, 57
3, 145979, Note_on_c, 0, 61, 40
3, 146160, Note_on_c, 0, 69, 0
3, 146184, Note_on_c, 0, 81, 0
3, 146186, Note_on_c, 0, 64, 0
3, 146278, Note_on_c, 0, 53, 0
3, 146327, Note_on_c, 0, 61, 0
3, 146932, Note_on_c, 0, 76, 54
3, 146957, Note_on_c, 0, 69, 40
3, 147547, Note_on_c, 0, 76, 0
3, 147600, Note_on_c, 0, 79, 63
3, 147673, Note_on_c, 0, 57, 44
3, 147675, Note_on_c, 0, 62, 33
3, 147680, Note_on_c, 0, 53, 29
3, 147709, Note_on_c, 0, 69, 0
3, 147740, Note_on_c, 0, 62, 0
3, 147781, Note_on_c, 0, 57, 0
3, 147799, Note_on_c, 0, 79, 0
3, 147825, Note_on_c, 0, 53, 0
3, 147936, Note_on_c, 0, 77, 42
3, 148527, Note_on_c, 0, 77, 0
3, 148587, Note_on_c, 0, 69, 60
3, 148656, Note_on_c, 0, 69, 0
3, 149805, Note_on_c, 0, 64, 60
3, 149836, Note_on_c, 0, 58, 37
3, 149851, Note_on_c, 0, 53, 33
3, 149965, Note_on_c, 0, 64, 0
3, 149981, Note_on_c, 0, 58, 0
3, 150060, Note_on_c, 0, 53, 0
3, 151438, Note_on_c, 0, 62, 70
3, 151440, Note_on_c, 0, 57, 64
3, 151509, Note_on_c, 0, 62, 0
3, 151533, Note_on_c, 0, 57, 0
3, 152360, Note_on_c, 0, 76, 78
3, 153024, Note_on_c, 0, 77, 64
3, 153121, Note_on_c, 0, 76, 0
3, 153211, Note_on_c, 0, 77, 0
3, 153348, Note_on_c, 0, 78, 76
3, 153376, Note_on_c, 0, 64, 66
3, 153397, Note_on_c, 0, 60, 35
3, 153425, Note_on_c, 0, 57, 38
3, 153437, Note_on_c, 0, 64, 0
3, 153483, Note_on_c, 0, 60, 0
3, 153504, Note_on_c, 0, 57, 0
3, 153538, Note_on_c, 0, 78, 0
3, 153682, Note_on_c, 0, 79, 78
3, 154180, Note_on_c, 0, 79, 0
3, 154295, Note_on_c, 0, 81, 71
3, 154321, Note_on_c, 0, 69, 59
3, 154520, Note_on_c, 0, 81, 0
3, 154534, Note_on_c, 0, 69, 0
3, 154638, Note_on_c, 0, 81, 58
3, 154673, Note_on_c, 0, 69, 31
3, 155173, Note_on_c, 0, 69, 0
3, 155229, Note_on_c, 0, 81, 0
3, 155400, Note_on_c, 0, 79, 32
3, 155446, Note_on_c, 0, 64, 29
3, 155467, Note_on_c, 0, 57, 44
3, 155476, Note_on_c, 0, 79, 0
3, 155509, Note_on_c, 0, 64, 0
3, 155606, Note_on_c, 0, 57, 0
3, 155627, Note_on_c, 0, 81, 63
3, 155654, Note_on_c, 0, 69, 47
3, 155979, Note_on_c, 0, 81, 0
3, 156048, Note_on_c, 0, 69, 0
3, 157567, Note_on_c, 0, 64, 41
3, 157572, Note_on_c, 0, 61, 30
3, 157588, Note_on_c, 0, 53, 24
3, 157748, Note_on_c, 0, 64, 0
3, 157816, Note_on_c, 0, 61, 0
3, 157859, Note_on_c, 0, 53, 0
3, 158504, Note_on_c, 0, 81, 95
3, 159137, Note_on_c, 0, 81, 0
3, 159159, Note_on_c, 0, 80, 36
3, 159313, Note_on_c, 0, 80, 0
3, 159386, Note_on_c, 0, 57, 28
3, 159457, Note_on_c, 0, 60, 22
3, 159469, Note_on_c, 0, 53, 22
3, 159474, Note_on_c, 0, 81, 57
3, 159585, Note_on_c, 0, 53, 0
3, 159587, Note_on_c, 0, 60, 0
3, 159626, Note_on_c, 0, 57, 0
3, 159990, Note_on_c, 0, 81, 0
3, 160127, Note_on_c, 0, 82, 43
3, 160275, Note_on_c, 0, 82, 0
3, 160407, Note_on_c, 0, 84, 82
3, 160977, Note_on_c, 0, 84, 0
3, 161067, Note_on_c, 0, 81, 72
3, 161100, Note_on_c, 0, 62, 63
3, 161132, Note_on_c, 0, 52, 38
3, 161213, Note_on_c, 0, 62, 0
3, 161222, Note_on_c, 0, 52, 0
3, 161689, Note_on_c, 0, 81, 0
3, 161720, Note_on_c, 0, 82, 42
3, 161903, Note_on_c, 0, 82, 0
3, 161917, Note_on_c, 0, 81, 55
3, 162114, Note_on_c, 0, 81, 0
3, 162123, Note_on_c, 0, 79, 54
3, 162199, Note_on_c, 0, 62, 34
3, 162276, Note_on_c, 0, 79, 0
3, 162290, Note_on_c, 0, 62, 0
3, 162391, Note_on_c, 0, 81, 87
3, 162755, Note_on_c, 0, 81, 0
3, 162841, Note_on_c, 0, 82, 36
3, 162954, Note_on_c, 0, 81, 63
3, 163056, Note_on_c, 0, 82, 0
3, 163148, Note_on_c, 0, 79, 62
3, 163160, Note_on_c, 0, 81, 0
3, 163195, Note_on_c, 0, 64, 41
3, 163244, Note_on_c, 0, 61, 20
3, 163274, Note_on_c, 0, 64, 0
3, 163281, Note_on_c, 0, 79, 0
3, 163306, Note_on_c, 0, 61, 0
3, 163374, Note_on_c, 0, 81, 75
3, 163740, Note_on_c, 0, 81, 0
3, 165194, Note_on_c, 0, 64, 48
3, 165216, Note_on_c, 0, 61, 33
3, 165226, Note_on_c, 0, 58, 27
3, 165349, Note_on_c, 0, 64, 0
3, 165385, Note_on_c, 0, 61, 0
3, 165402, Note_on_c, 0, 58, 0
3, 166143, Note_on_c, 0, 79, 79
3, 166157, Note_on_c, 0, 67, 85
3, 166650, Note_on_c, 0, 67, 0
3, 166673, Note_on_c, 0, 79, 0
3, 166822, Note_on_c, 0, 77, 71
3, 166854, Note_on_c, 0, 61, 55
3, 166858, Note_on_c, 0, 64, 63
3, 166882, Note_on_c, 0, 55, 52
3, 166963, Note_on_c, 0, 55, 0
3, 166977, Note_on_c, 0, 64, 0
3, 167065, Note_on_c, 0, 61, 0
3, 167169, Note_on_c, 0, 77, 0
3, 167328, Note_on_c, 0, 76, 61
3, 167671, Note_on_c, 0, 76, 0
3, 167778, Note_on_c, 0, 74, 71
3, 167838, Note_on_c, 0, 61, 54
3, 167905, Note_on_c, 0, 55, 31
3, 167981, Note_on_c, 0, 61, 0
3, 168031, Note_on_c, 0, 55, 0
3, 168039, Note_on_c, 0, 74, 0
3, 168280, Note_on_c, 0, 72, 50
3, 168522, Note_on_c, 0, 72, 0
3, 168785, Note_on_c, 0, 76, 81
3, 168827, Note_on_c, 0, 50, 37
3, 168845, Note_on_c, 0, 57, 48
3, 168922, Note_on_c, 0, 57, 0
3, 168982, Note_on_c, 0, 50, 0
3, 169017, Note_on_c, 0, 76, 0
3, 169181, Note_on_c, 0, 74, 50
3, 169667, Note_on_c, 0, 74, 0
3, 169705, Note_on_c, 0, 69, 62
3, 169836, Note_on_c, 0, 57, 39
3, 169843, Note_on_c, 0, 69, 0
3, 169927, Note_on_c, 0, 57, 0
3, 170029, Note_on_c, 0, 65, 64
3, 170634, Note_on_c, 0, 65, 0
3, 170682, Note_on_c, 0, 62, 50
3, 170837, Note_on_c, 0, 62, 0
3, 170979, Note_on_c, 0, 65, 71
3, 170985, Note_on_c, 0, 61, 55
3, 171280, Note_on_c, 0, 65, 0
3, 171391, Note_on_c, 0, 67, 48
3, 171478, Note_on_c, 0, 65, 52
3, 171541, Note_on_c, 0, 67, 0
3, 171673, Note_on_c, 0, 65, 0
3, 171689, Note_on_c, 0, 64, 37
3, 171821, Note_on_c, 0, 64, 0
3, 171932, Note_on_c, 0, 65, 74
3, 172141, Note_on_c, 0, 61, 0
3, 172540, Note_on_c, 0, 65, 0
3, 172701, Note_on_c, 0, 60, 29
3, 172745, Note_on_c, 0, 50, 32
3, 172752, Note_on_c, 0, 57, 28
3, 172841, Note_on_c, 0, 65, 58
3, 172912, Note_on_c, 0, 60, 0
3, 173366, Note_on_c, 0, 57, 0
3, 173500, Note_on_c, 0, 65, 0
3, 173542, Note_on_c, 0, 62, 64
3, 173755, Note_on_c, 0, 50, 0
3, 174612, Note_on_c, 0, 62, 0
3, 174820, Note_on_c, 0, 62, 60
3, 175425, Note_on_c, 0, 62, 0
3, 175844, Note_on_c, 0, 57, 54
3, 176066, Note_on_c, 0, 57, 0
3, 176147, Note_on_c, 0, 58, 36
3, 176337, Note_on_c, 0, 58, 0
3, 176458, Note_on_c, 0, 60, 53
3, 176689, Note_on_c, 0, 60, 0
3, 177124, Note_on_c, 0, 60, 32
3, 177322, Note_on_c, 0, 60, 0
3, 177419, Note_on_c, 0, 62, 81
3, 177474, Note_on_c, 0, 60, 30
3, 177539, Note_on_c, 0, 60, 0
3, 177648, Note_on_c, 0, 62, 0
3, 177685, Note_on_c, 0, 60, 41
3, 177984, Note_on_c, 0, 60, 0
3, 177986, Note_on_c, 0, 62, 58
3, 178218, Note_on_c, 0, 62, 0
3, 178297, Note_on_c, 0, 64, 77
3, 178514, Note_on_c, 0, 64, 0
3, 178616, Note_on_c, 0, 62, 39
3, 178797, Note_on_c, 0, 62, 0
3, 178871, Note_on_c, 0, 64, 52
3, 179072, Note_on_c, 0, 64, 0
3, 179197, Note_on_c, 0, 65, 70
3, 179324, Note_on_c, 0, 62, 38
3, 179329, Note_on_c, 0, 54, 25
3, 179404, Note_on_c, 0, 65, 0
3, 179424, Note_on_c, 0, 62, 0
3, 179596, Note_on_c, 0, 54, 0
3, 179850, Note_on_c, 0, 65, 56
3, 180028, Note_on_c, 0, 65, 0
3, 180154, Note_on_c, 0, 67, 72
3, 180445, Note_on_c, 0, 67, 0
3, 180515, Note_on_c, 0, 66, 62
3, 180768, Note_on_c, 0, 66, 0
3, 180846, Note_on_c, 0, 69, 68
3, 181096, Note_on_c, 0, 69, 0
3, 181128, Note_on_c, 0, 66, 64
3, 181189, Note_on_c, 0, 62, 29
3, 181260, Note_on_c, 0, 62, 0
3, 181311, Note_on_c, 0, 66, 0
3, 181423, Note_on_c, 0, 67, 43
3, 181636, Note_on_c, 0, 67, 0
3, 181726, Note_on_c, 0, 69, 56
3, 181914, Note_on_c, 0, 69, 0
3, 182044, Note_on_c, 0, 70, 71
3, 182092, Note_on_c, 0, 62, 68
3, 182120, Note_on_c, 0, 57, 47
3, 182189, Note_on_c, 0, 57, 0
3, 182200, Note_on_c, 0, 62, 0
3, 182279, Note_on_c, 0, 70, 0
3, 182388, Note_on_c, 0, 72, 47
3, 182646, Note_on_c, 0, 72, 0
3, 182736, Note_on_c, 0, 73, 45
3, 182963, Note_on_c, 0, 73, 0
3, 183085, Note_on_c, 0, 75, 71
3, 183111, Note_on_c, 0, 62, 69
3, 183113, Note_on_c, 0, 58, 53
3, 183148, Note_on_c, 0, 52, 45
3, 183217, Note_on_c, 0, 52, 0
3, 183254, Note_on_c, 0, 62, 0
3, 183269, Note_on_c, 0, 58, 0
3, 183317, Note_on_c, 0, 75, 0
3, 183454, Note_on_c, 0, 76, 37
3, 183673, Note_on_c, 0, 76, 0
3, 183738, Note_on_c, 0, 77, 46
3, 183931, Note_on_c, 0, 77, 0
3, 184023, Note_on_c, 0, 79, 74
3, 184218, Note_on_c, 0, 79, 0
3, 184319, Note_on_c, 0, 80, 69
3, 184327, Note_on_c, 0, 61, 44
3, 184347, Note_on_c, 0, 64, 55
3, 184371, Note_on_c, 0, 57, 40
3, 184495, Note_on_c, 0, 64, 0
3, 184498, Note_on_c, 0, 80, 0
3, 184574, Note_on_c, 0, 61, 0
3, 184619, Note_on_c, 0, 57, 0
3, 184683, Note_on_c, 0, 82, 76
3, 185132, Note_on_c, 0, 80, 65
3, 185258, Note_on_c, 0, 82, 0
3, 185337, Note_on_c, 0, 80, 0
3, 185464, Note_on_c, 0, 81, 58
3, 185468, Note_on_c, 0, 83, 58
3, 185616, Note_on_c, 0, 83, 0
3, 186072, Note_on_c, 0, 76, 70
3, 186080, Note_on_c, 0, 81, 0
3, 186431, Note_on_c, 0, 76, 0
3, 186432, Note_on_c, 0, 72, 29
3, 189134, Note_on_c, 0, 57, 68
3, 189143, Note_on_c, 0, 64, 72
3, 189151, Note_on_c, 0, 60, 45
3, 189160, Note_on_c, 0, 55, 60
3, 189467, Note_on_c, 0, 60, 0
3, 189479, Note_on_c, 0, 64, 0
3, 189486, Note_on_c, 0, 55, 0
3, 189507, Note_on_c, 0, 72, 0
3, 189510, Note_on_c, 0, 57, 0
3, 190144, Note_on_c, 0, 60, 59
3, 190153, Note_on_c, 0, 65, 79
3, 190160, Note_on_c, 0, 54, 62
3, 190169, Note_on_c, 0, 58, 51
3, 190873, Note_on_c, 0, 80, 58
3, 190874, Note_on_c, 0, 68, 76
3, 190906, Note_on_c, 0, 74, 59
3, 191017, Note_on_c, 0, 68, 0
3, 191026, Note_on_c, 0, 81, 61
3, 191028, Note_on_c, 0, 77, 17
3, 191038, Note_on_c, 0, 69, 65
3, 191040, Note_on_c, 0, 80, 0
3, 191092, Note_on_c, 0, 79, 32
3, 191188, Note_on_c, 0, 69, 0
3, 191260, Note_on_c, 0, 74, 0
3, 191292, Note_on_c, 0, 79, 0
3, 191304, Note_on_c, 0, 81, 0
3, 191315, Note_on_c, 0, 77, 0
3, 191554, Note_on_c, 0, 78, 74
3, 191561, Note_on_c, 0, 84, 85
3, 191565, Note_on_c, 0, 72, 78
3, 191631, Note_on_c, 0, 74, 28
3, 191638, Note_on_c, 0, 81, 32
3, 191682, Note_on_c, 0, 78, 0
3, 191691, Note_on_c, 0, 74, 0
3, 191765, Note_on_c, 0, 65, 0
3, 191820, Note_on_c, 0, 60, 0
3, 191923, Note_on_c, 0, 72, 0
3, 191964, Note_on_c, 0, 84, 0
3, 191971, Note_on_c, 0, 81, 0
3, 192029, Note_on_c, 0, 54, 0
3, 192149, Note_on_c, 0, 57, 48
3, 192152, Note_on_c, 0, 62, 55
3, 192166, Note_on_c, 0, 53, 40
3, 192179, Note_on_c, 0, 80, 59
3, 192182, Note_on_c, 0, 72, 69
3, 192195, Note_on_c, 0, 84, 67
3, 192214, Note_on_c, 0, 78, 38
3, 192295, Note_on_c, 0, 78, 0
3, 192437, Note_on_c, 0, 81, 31
3, 192499, Note_on_c, 0, 80, 0
3, 192534, Note_on_c, 0, 83, 18
3, 192664, Note_on_c, 0, 81, 0
3, 192677, Note_on_c, 0, 84, 0
3, 192701, Note_on_c, 0, 83, 0
3, 192765, Note_on_c, 0, 72, 0
3, 192914, Note_on_c, 0, 58, 0
3, 192969, Note_on_c, 0, 62, 0
3, 193069, Note_on_c, 0, 81, 47
3, 193080, Note_on_c, 0, 74, 40
3, 193081, Note_on_c, 0, 62, 44
3, 193094, Note_on_c, 0, 77, 34
3, 193095, Note_on_c, 0, 69, 44
3, 193150, Note_on_c, 0, 58, 34
3, 193388, Note_on_c, 0, 81, 0
3, 193414, Note_on_c, 0, 77, 0
3, 193439, Note_on_c, 0, 74, 0
3, 193506, Note_on_c, 0, 58, 0
3, 193508, Note_on_c, 0, 69, 0
3, 193518, Note_on_c, 0, 62, 0
3, 193694, Note_on_c, 0, 53, 0
3, 193770, Note_on_c, 0, 77, 37
3, 193779, Note_on_c, 0, 62, 57
3, 193787, Note_on_c, 0, 65, 47
3, 193796, Note_on_c, 0, 74, 37
3, 193928, Note_on_c, 0, 65, 0
3, 193946, Note_on_c, 0, 62, 0
3, 193953, Note_on_c, 0, 74, 0
3, 193991, Note_on_c, 0, 77, 0
3, 194037, Note_on_c, 0, 57, 0
3, 195913, Note_on_c, 0, 62, 40
3, 195931, Note_on_c, 0, 52, 30
3, 196030, Note_on_c, 0, 52, 0
3, 196051, Note_on_c, 0, 62, 0
3, 197603, Note_on_c, 0, 62, 66
3, 197642, Note_on_c, 0, 57, 36
3, 197665, Note_on_c, 0, 62, 0
3, 197714, Note_on_c, 0, 57, 0
3, 197835, Note_on_c, 0, 92, 92
3, 197841, Note_on_c, 0, 80, 91
3, 198390, Note_on_c, 0, 80, 0
3, 198392, Note_on_c, 0, 92, 0
3, 198494, Note_on_c, 0, 81, 37
3, 198532, Note_on_c, 0, 93, 24
3, 198578, Note_on_c, 0, 81, 0
3, 198603, Note_on_c, 0, 93, 0
3, 198751, Note_on_c, 0, 62, 74
3, 198761, Note_on_c, 0, 57, 64
3, 198779, Note_on_c, 0, 58, 48
3, 198786, Note_on_c, 0, 96, 72
3, 198789, Note_on_c, 0, 84, 80
3, 198808, Note_on_c, 0, 95, 60
3, 198868, Note_on_c, 0, 95, 0
3, 199199, Note_on_c, 0, 96, 0
3, 199256, Note_on_c, 0, 84, 0
3, 199268, Note_on_c, 0, 58, 0
3, 199299, Note_on_c, 0, 62, 0
3, 199354, Note_on_c, 0, 57, 0
3, 199433, Note_on_c, 0, 57, 37
3, 199439, Note_on_c, 0, 93, 68
3, 199451, Note_on_c, 0, 62, 68
3, 199474, Note_on_c, 0, 58, 60
3, 199479, Note_on_c, 0, 81, 38
3, 199535, Note_on_c, 0, 83, 30
3, 199595, Note_on_c, 0, 83, 0
3, 199711, Note_on_c, 0, 93, 0
3, 199749, Note_on_c, 0, 62, 0
3, 199754, Note_on_c, 0, 58, 0
3, 199780, Note_on_c, 0, 81, 0
3, 199831, Note_on_c, 0, 57, 0
3, 199986, Note_on_c, 0, 89, 45
3, 200007, Note_on_c, 0, 57, 45
3, 200018, Note_on_c, 0, 62, 55
3, 200032, Note_on_c, 0, 77, 29
3, 200076, Note_on_c, 0, 58, 27
3, 200315, Note_on_c, 0, 58, 0
3, 200375, Note_on_c, 0, 62, 0
3, 200400, Note_on_c, 0, 89, 0
3, 200447, Note_on_c, 0, 57, 0
3, 200454, Note_on_c, 0, 77, 0
3, 200700, Note_on_c, 0, 62, 58
3, 200704, Note_on_c, 0, 89, 57
3, 200716, Note_on_c, 0, 57, 38
3, 200718, Note_on_c, 0, 77, 48
3, 200752, Note_on_c, 0, 58, 35
3, 201033, Note_on_c, 0, 89, 0
3, 201074, Note_on_c, 0, 58, 0
3, 201127, Note_on_c, 0, 62, 0
3, 201140, Note_on_c, 0, 77, 0
3, 201213, Note_on_c, 0, 57, 0
3, 201377, Note_on_c, 0, 86, 45
3, 201410, Note_on_c, 0, 62, 52
3, 201422, Note_on_c, 0, 74, 38
3, 201429, Note_on_c, 0, 57, 35
3, 201473, Note_on_c, 0, 58, 28
3, 201605, Note_on_c, 0, 62, 0
3, 201618, Note_on_c, 0, 58, 0
3, 201663, Note_on_c, 0, 86, 0
3, 201683, Note_on_c, 0, 74, 0
3, 201695, Note_on_c, 0, 57, 0
3, 201936, Note_on_c, 0, 86, 50
3, 201943, Note_on_c, 0, 57, 33
3, 201950, Note_on_c, 0, 62, 48
3, 201952, Note_on_c, 0, 74, 46
3, 201989, Note_on_c, 0, 58, 31
3, 202213, Note_on_c, 0, 86, 0
3, 202214, Note_on_c, 0, 58, 0
3, 202246, Note_on_c, 0, 62, 0
3, 202260, Note_on_c, 0, 74, 0
3, 202295, Note_on_c, 0, 57, 0
3, 202610, Note_on_c, 0, 85, 62
3, 202628, Note_on_c, 0, 62, 51
3, 202635, Note_on_c, 0, 57, 30
3, 202640, Note_on_c, 0, 73, 33
3, 202874, Note_on_c, 0, 62, 0
3, 202967, Note_on_c, 0, 57, 0
3, 203115, Note_on_c, 0, 85, 0
3, 203188, Note_on_c, 0, 73, 0
3, 203318, Note_on_c, 0, 84, 55
3, 203323, Note_on_c, 0, 62, 54
3, 203328, Note_on_c, 0, 72, 45
3, 203372, Note_on_c, 0, 58, 27
3, 203376, Note_on_c, 0, 52, 37
3, 203474, Note_on_c, 0, 84, 0
3, 203488, Note_on_c, 0, 52, 0
3, 203511, Note_on_c, 0, 58, 0
3, 203529, Note_on_c, 0, 62, 0
3, 203566, Note_on_c, 0, 72, 0
3, 205477, Note_on_c, 0, 74, 74
3, 205479, Note_on_c, 0, 68, 74
3, 205485, Note_on_c, 0, 64, 77
3, 205488, Note_on_c, 0, 58, 55
3, 206173, Note_on_c, 0, 74, 0
3, 206206, Note_on_c, 0, 58, 0
3, 206218, Note_on_c, 0, 64, 0
3, 206292, Note_on_c, 0, 68, 0
3, 206438, Note_on_c, 0, 68, 46
3, 206445, Note_on_c, 0, 73, 49
3, 206451, Note_on_c, 0, 64, 50
3, 206463, Note_on_c, 0, 58, 35
3, 207135, Note_on_c, 0, 58, 0
3, 207216, Note_on_c, 0, 64, 0
3, 207220, Note_on_c, 0, 73, 0
3, 207262, Note_on_c, 0, 68, 0
3, 207385, Note_on_c, 0, 72, 53
3, 207417, Note_on_c, 0, 62, 34
3, 207418, Note_on_c, 0, 67, 49
3, 207431, Note_on_c, 0, 57, 34
3, 209988, Note_on_c, 0, 67, 0
3, 209990, Note_on_c, 0, 72, 0
3, 210138, Note_on_c, 0, 62, 0
3, 210449, Note_on_c, 0, 57, 0
3, 210905, Note_on_c, 0, 70, 69
3, 210912, Note_on_c, 0, 65, 74
3, 210916, Note_on_c, 0, 55, 52
3, 210926, Note_on_c, 0, 60, 57
3, 211111, Note_on_c, 0, 65, 0
3, 211122, Note_on_c, 0, 70, 0
3, 211222, Note_on_c, 0, 60, 0
3, 211285, Note_on_c, 0, 55, 0
3, 211517, Note_on_c, 0, 64, 44
3, 211554, Note_on_c, 0, 57, 43
3, 211565, Note_on_c, 0, 52, 40
3, 211595, Note_on_c, 0, 60, 22
3, 212003, Note_on_c, 0, 60, 0
3, 212040, Note_on_c, 0, 57, 0
3, 212207, Note_on_c, 0, 52, 0
3, 212211, Note_on_c, 0, 57, 48
3, 212213, Note_on_c, 0, 60, 30
3, 212229, Note_on_c, 0, 55, 46
3, 212230, Note_on_c, 0, 67, 48
3, 212498, Note_on_c, 0, 64, 0
3, 212625, Note_on_c, 0, 67, 0
3, 212670, Note_on_c, 0, 57, 0
3, 212679, Note_on_c, 0, 60, 0
3, 212692, Note_on_c, 0, 55, 0
3, 212746, Note_on_c, 0, 51, 30
3, 212892, Note_on_c, 0, 57, 55
3, 212896, Note_on_c, 0, 60, 37
3, 212897, Note_on_c, 0, 65, 57
3, 212912, Note_on_c, 0, 51, 0
3, 212934, Note_on_c, 0, 53, 46
3, 213849, Note_on_c, 0, 57, 0
3, 213950, Note_on_c, 0, 60, 0
3, 213985, Note_on_c, 0, 65, 0
3, 214098, Note_on_c, 0, 60, 17
3, 214117, Note_on_c, 0, 57, 32
3, 214142, Note_on_c, 0, 52, 40
3, 214145, Note_on_c, 0, 64, 39
3, 214196, Note_on_c, 0, 53, 0
3, 214479, Note_on_c, 0, 60, 0
3, 214659, Note_on_c, 0, 64, 0
3, 214693, Note_on_c, 0, 57, 0
3, 214832, Note_on_c, 0, 52, 0
3, 215034, Note_on_c, 0, 67, 54
3, 215047, Note_on_c, 0, 61, 42
3, 215050, Note_on_c, 0, 57, 50
3, 215094, Note_on_c, 0, 52, 24
3, 215099, Note_on_c, 0, 64, 36
3, 215710, Note_on_c, 0, 57, 0
3, 215779, Note_on_c, 0, 67, 0
3, 215785, Note_on_c, 0, 64, 0
3, 215882, Note_on_c, 0, 61, 0
3, 216018, Note_on_c, 0, 52, 0
3, 216053, Note_on_c, 0, 53, 36
3, 216062, Note_on_c, 0, 65, 34
3, 216067, Note_on_c, 0, 60, 33
3, 216071, Note_on_c, 0, 69, 49
3, 216093, Note_on_c, 0, 62, 31
3, 216456, Note_on_c, 0, 60, 0
3, 216560, Note_on_c, 0, 62, 0
3, 216611, Note_on_c, 0, 65, 0
3, 216643, Note_on_c, 0, 69, 0
3, 216687, Note_on_c, 0, 53, 0
3, 216778, Note_on_c, 0, 41, 51
3, 216875, Note_on_c, 0, 41, 0
3, 217354, Note_on_c, 0, 81, 60
3, 217635, Note_on_c, 0, 81, 0
3, 217987, Note_on_c, 0, 81, 55
3, 218000, Note_on_c, 0, 61, 38
3, 218008, Note_on_c, 0, 53, 41
3, 218016, Note_on_c, 0, 73, 29
3, 218033, Note_on_c, 0, 69, 35
3, 218051, Note_on_c, 0, 64, 33
3, 218072, Note_on_c, 0, 76, 29
3, 218357, Note_on_c, 0, 69, 0
3, 218364, Note_on_c, 0, 64, 0
3, 218405, Note_on_c, 0, 81, 0
3, 218454, Note_on_c, 0, 76, 0
3, 218489, Note_on_c, 0, 73, 0
3, 218663, Note_on_c, 0, 81, 43
3, 218682, Note_on_c, 0, 62, 56
3, 218695, Note_on_c, 0, 74, 36
3, 218697, Note_on_c, 0, 61, 0
3, 218735, Note_on_c, 0, 77, 24
3, 218783, Note_on_c, 0, 74, 0
3, 218806, Note_on_c, 0, 62, 0
3, 218814, Note_on_c, 0, 77, 0
3, 218835, Note_on_c, 0, 81, 0
3, 218837, Note_on_c, 0, 53, 0
3, 220913, Note_on_c, 0, 81, 99
3, 220941, Note_on_c, 0, 62, 49
3, 221020, Note_on_c, 0, 62, 0
3, 221272, Note_on_c, 0, 81, 0
3, 221296, Note_on_c, 0, 82, 46
3, 221507, Note_on_c, 0, 81, 51
3, 221571, Note_on_c, 0, 82, 0
3, 221708, Note_on_c, 0, 81, 0
3, 221733, Note_on_c, 0, 79, 32
3, 221831, Note_on_c, 0, 79, 0
3, 221959, Note_on_c, 0, 81, 71
3, 222345, Note_on_c, 0, 81, 0
3, 222401, Note_on_c, 0, 82, 32
3, 222558, Note_on_c, 0, 81, 66
3, 222623, Note_on_c, 0, 62, 62
3, 222637, Note_on_c, 0, 82, 0
3, 222643, Note_on_c, 0, 52, 44
3, 222651, Note_on_c, 0, 79, 37
3, 222683, Note_on_c, 0, 81, 0
3, 222697, Note_on_c, 0, 62, 0
3, 222743, Note_on_c, 0, 52, 0
3, 222766, Note_on_c, 0, 79, 0
3, 222893, Note_on_c, 0, 81, 65
3, 223410, Note_on_c, 0, 81, 0
3, 223447, Note_on_c, 0, 82, 42
3, 223565, Note_on_c, 0, 81, 66
3, 223574, Note_on_c, 0, 82, 0
3, 223739, Note_on_c, 0, 81, 0
3, 223781, Note_on_c, 0, 79, 27
3, 223846, Note_on_c, 0, 79, 0
3, 223882, Note_on_c, 0, 81, 68
3, 224244, Note_on_c, 0, 81, 0
3, 224740, Note_on_c, 0, 66, 51
3, 224747, Note_on_c, 0, 61, 52
3, 224793, Note_on_c, 0, 55, 35
3, 225094, Note_on_c, 0, 55, 0
3, 225182, Note_on_c, 0, 66, 0
3, 225458, Note_on_c, 0, 61, 0
3, 226603, Note_on_c, 0, 65, 49
3, 226608, Note_on_c, 0, 61, 37
3, 226616, Note_on_c, 0, 60, 28
3, 226640, Note_on_c, 0, 55, 39
3, 227440, Note_on_c, 0, 65, 0
3, 227572, Note_on_c, 0, 80, 65
3, 227588, Note_on_c, 0, 68, 80
3, 227613, Note_on_c, 0, 74, 63
3, 227641, Note_on_c, 0, 77, 43
3, 227643, Note_on_c, 0, 60, 0
3, 227651, Note_on_c, 0, 61, 0
3, 227759, Note_on_c, 0, 55, 0
3, 228062, Note_on_c, 0, 74, 0
3, 228149, Note_on_c, 0, 68, 0
3, 228160, Note_on_c, 0, 80, 0
3, 228213, Note_on_c, 0, 77, 0
3, 228282, Note_on_c, 0, 74, 48
3, 228285, Note_on_c, 0, 69, 68
3, 228301, Note_on_c, 0, 81, 49
3, 228327, Note_on_c, 0, 54, 46
3, 228334, Note_on_c, 0, 77, 13
3, 228338, Note_on_c, 0, 60, 37
3, 228340, Note_on_c, 0, 64, 57
3, 228385, Note_on_c, 0, 81, 0
3, 228396, Note_on_c, 0, 69, 0
3, 228498, Note_on_c, 0, 74, 0
3, 228505, Note_on_c, 0, 77, 0
3, 228633, Note_on_c, 0, 82, 64
3, 228640, Note_on_c, 0, 70, 51
3, 229009, Note_on_c, 0, 64, 0
3, 229091, Note_on_c, 0, 54, 0
3, 229095, Note_on_c, 0, 70, 0
3, 229126, Note_on_c, 0, 82, 0
3, 229137, Note_on_c, 0, 60, 0
3, 229250, Note_on_c, 0, 54, 18
3, 229255, Note_on_c, 0, 60, 55
3, 229263, Note_on_c, 0, 64, 46
3, 229273, Note_on_c, 0, 71, 29
3, 229299, Note_on_c, 0, 72, 33
3, 229341, Note_on_c, 0, 64, 0
3, 229368, Note_on_c, 0, 71, 0
3, 229380, Note_on_c, 0, 72, 0
3, 229397, Note_on_c, 0, 60, 0
3, 229410, Note_on_c, 0, 54, 0
3, 229506, Note_on_c, 0, 54, 65
3, 229514, Note_on_c, 0, 86, 77
3, 229517, Note_on_c, 0, 60, 66
3, 229522, Note_on_c, 0, 74, 57
3, 229524, Note_on_c, 0, 64, 55
3, 229531, Note_on_c, 0, 72, 55
3, 229544, Note_on_c, 0, 84, 64
3, 229922, Note_on_c, 0, 86, 0
3, 229954, Note_on_c, 0, 84, 0
3, 229964, Note_on_c, 0, 60, 0
3, 230042, Note_on_c, 0, 74, 0
3, 230061, Note_on_c, 0, 72, 0
3, 230109, Note_on_c, 0, 64, 0
3, 230256, Note_on_c, 0, 54, 0
3, 230446, Note_on_c, 0, 62, 62
3, 230448, Note_on_c, 0, 53, 51
3, 230457, Note_on_c, 0, 70, 40
3, 230478, Note_on_c, 0, 82, 25
3, 230494, Note_on_c, 0, 58, 35
3, 230504, Note_on_c, 0, 55, 44
3, 230531, Note_on_c, 0, 77, 32
3, 231578, Note_on_c, 0, 77, 0
3, 231633, Note_on_c, 0, 82, 0
3, 231768, Note_on_c, 0, 70, 0
3, 232090, Note_on_c, 0, 62, 0
3, 232148, Note_on_c, 0, 53, 0
3, 232151, Note_on_c, 0, 55, 0
3, 232189, Note_on_c, 0, 58, 0
3, 232287, Note_on_c, 0, 76, 81
3, 232303, Note_on_c, 0, 68, 67
3, 232305, Note_on_c, 0, 65, 83
3, 232321, Note_on_c, 0, 64, 83
3, 232328, Note_on_c, 0, 72, 51
3, 232330, Note_on_c, 0, 71, 62
3, 232387, Note_on_c, 0, 72, 0
3, 232806, Note_on_c, 0, 64, 0
3, 232836, Note_on_c, 0, 65, 0
3, 232854, Note_on_c, 0, 76, 0
3, 232870, Note_on_c, 0, 71, 0
3, 232884, Note_on_c, 0, 68, 0
3, 232963, Note_on_c, 0, 74, 53
3, 232983, Note_on_c, 0, 65, 58
3, 232998, Note_on_c, 0, 62, 67
3, 233009, Note_on_c, 0, 68, 37
3, 233028, Note_on_c, 0, 71, 46
3, 233213, Note_on_c, 0, 62, 0
3, 233287, Note_on_c, 0, 59, 40
3, 233297, Note_on_c, 0, 74, 0
3, 233609, Note_on_c, 0, 71, 0
3, 233690, Note_on_c, 0, 65, 0
3, 233694, Note_on_c, 0, 68, 0
3, 234061, Note_on_c, 0, 59, 0
3, 234074, Note_on_c, 0, 58, 36
3, 234139, Note_on_c, 0, 58, 0
3, 234248, Note_on_c, 0, 70, 52
3, 234253, Note_on_c, 0, 58, 53
3, 234262, Note_on_c, 0, 62, 37
3, 234276, Note_on_c, 0, 65, 54
3, 234399, Note_on_c, 0, 58, 0
3, 234704, Note_on_c, 0, 65, 0
3, 234755, Note_on_c, 0, 62, 0
3, 234756, Note_on_c, 0, 70, 0
3, 235163, Note_on_c, 0, 48, 51
3, 235487, Note_on_c, 0, 48, 0
3, 235795, Note_on_c, 0, 48, 53
3, 235860, Note_on_c, 0, 48, 0
3, 236117, Note_on_c, 0, 64, 74
3, 236120, Note_on_c, 0, 76, 68
3, 236122, Note_on_c, 0, 68, 57
3, 236131, Note_on_c, 0, 73, 39
3, 236142, Note_on_c, 0, 58, 46
3, 236517, Note_on_c, 0, 64, 0
3, 236527, Note_on_c, 0, 68, 0
3, 236533, Note_on_c, 0, 58, 0
3, 236590, Note_on_c, 0, 73, 0
3, 236594, Note_on_c, 0, 76, 0
3, 236756, Note_on_c, 0, 76, 57
3, 236759, Note_on_c, 0, 58, 57
3, 236770, Note_on_c, 0, 68, 52
3, 236775, Note_on_c, 0, 64, 61
3, 236780, Note_on_c, 0, 73, 32
3, 236860, Note_on_c, 0, 64, 0
3, 236890, Note_on_c, 0, 76, 0
3, 236895, Note_on_c, 0, 68, 0
3, 236897, Note_on_c, 0, 58, 0
3, 236923, Note_on_c, 0, 73, 0
3, 237139, Note_on_c, 0, 48, 54
3, 237589, Note_on_c, 0, 48, 0
3, 237789, Note_on_c, 0, 48, 43
3, 237975, Note_on_c, 0, 48, 0
3, 238065, Note_on_c, 0, 69, 66
3, 238074, Note_on_c, 0, 64, 64
3, 238076, Note_on_c, 0, 72, 57
3, 238090, Note_on_c, 0, 65, 64
3, 238113, Note_on_c, 0, 57, 54
3, 238509, Note_on_c, 0, 57, 0
3, 238525, Note_on_c, 0, 72, 0
3, 238537, Note_on_c, 0, 64, 0
3, 238544, Note_on_c, 0, 65, 0
3, 238583, Note_on_c, 0, 69, 0
3, 238681, Note_on_c, 0, 64, 55
3, 238696, Note_on_c, 0, 72, 33
3, 238701, Note_on_c, 0, 65, 56
3, 238708, Note_on_c, 0, 57, 49
3, 238734, Note_on_c, 0, 69, 50
3, 238771, Note_on_c, 0, 65, 0
3, 238785, Note_on_c, 0, 64, 0
3, 238801, Note_on_c, 0, 69, 0
3, 238875, Note_on_c, 0, 72, 0
3, 238887, Note_on_c, 0, 57, 0
3, 239053, Note_on_c, 0, 48, 55
3, 239706, Note_on_c, 0, 48, 0
3, 239982, Note_on_c, 0, 48, 60
3, 240450, Note_on_c, 0, 48, 0
3, 240934, Note_on_c, 0, 68, 77
3, 240936, Note_on_c, 0, 58, 52
3, 240938, Note_on_c, 0, 72, 64
3, 240943, Note_on_c, 0, 76, 70
3, 240945, Note_on_c, 0, 64, 79
3, 241304, Note_on_c, 0, 58, 0
3, 241374, Note_on_c, 0, 64, 0
3, 241383, Note_on_c, 0, 68, 0
3, 241425, Note_on_c, 0, 72, 0
3, 241444, Note_on_c, 0, 76, 0
3, 241890, Note_on_c, 0, 48, 50
3, 242314, Note_on_c, 0, 48, 0
3, 242544, Note_on_c, 0, 48, 60
3, 242759, Note_on_c, 0, 48, 0
3, 243536, Note_on_c, 0, 68, 62
3, 243546, Note_on_c, 0, 48, 37
3, 243548, Note_on_c, 0, 58, 52
3, 243551, Note_on_c, 0, 76, 60
3, 243553, Note_on_c, 0, 64, 69
3, 243556, Note_on_c, 0, 72, 45
3, 243666, Note_on_c, 0, 64, 0
3, 243692, Note_on_c, 0, 68, 0
3, 243794, Note_on_c, 0, 72, 0
3, 243916, Note_on_c, 0, 76, 0
3, 244201, Note_on_c, 0, 48, 0
3, 244274, Note_on_c, 0, 58, 0
3, 244482, Note_on_c, 0, 58, 56
3, 244495, Note_on_c, 0, 48, 48
3, 244669, Note_on_c, 0, 48, 0
3, 244676, Note_on_c, 0, 58, 0
3, 244855, Note_on_c, 0, 86, 94
3, 245056, Note_on_c, 0, 86, 0
3, 245179, Note_on_c, 0, 84, 74
3, 245406, Note_on_c, 0, 84, 0
3, 245503, Note_on_c, 0, 81, 68
3, 245510, Note_on_c, 0, 60, 32
3, 245528, Note_on_c, 0, 53, 30
3, 245531, Note_on_c, 0, 62, 40
3, 245543, Note_on_c, 0, 57, 39
3, 245602, Note_on_c, 0, 62, 0
3, 245626, Note_on_c, 0, 53, 0
3, 245672, Note_on_c, 0, 60, 0
3, 245760, Note_on_c, 0, 57, 0
3, 245788, Note_on_c, 0, 81, 0
3, 245875, Note_on_c, 0, 77, 33
3, 246133, Note_on_c, 0, 77, 0
3, 246221, Note_on_c, 0, 82, 81
3, 246524, Note_on_c, 0, 82, 0
3, 246547, Note_on_c, 0, 81, 63
3, 246765, Note_on_c, 0, 81, 0
3, 246834, Note_on_c, 0, 77, 60
3, 247076, Note_on_c, 0, 77, 0
3, 247201, Note_on_c, 0, 72, 31
3, 247300, Note_on_c, 0, 72, 0
3, 247325, Note_on_c, 0, 57, 24
3, 247411, Note_on_c, 0, 57, 0
3, 247503, Note_on_c, 0, 79, 61
3, 247506, Note_on_c, 0, 77, 64
3, 247722, Note_on_c, 0, 77, 0
3, 247728, Note_on_c, 0, 79, 0
3, 247824, Note_on_c, 0, 77, 36
3, 248085, Note_on_c, 0, 77, 0
3, 248099, Note_on_c, 0, 74, 43
3, 248314, Note_on_c, 0, 74, 0
3, 248411, Note_on_c, 0, 70, 58
3, 248573, Note_on_c, 0, 67, 43
3, 248603, Note_on_c, 0, 70, 0
3, 248618, Note_on_c, 0, 56, 25
3, 248644, Note_on_c, 0, 62, 32
3, 248764, Note_on_c, 0, 69, 56
3, 248872, Note_on_c, 0, 67, 0
3, 248993, Note_on_c, 0, 62, 0
3, 249324, Note_on_c, 0, 56, 0
3, 249387, Note_on_c, 0, 69, 0
3, 249391, Note_on_c, 0, 76, 58
3, 249595, Note_on_c, 0, 55, 44
3, 249621, Note_on_c, 0, 57, 45
3, 249662, Note_on_c, 0, 60, 29
3, 249671, Note_on_c, 0, 64, 18
3, 249710, Note_on_c, 0, 76, 0
3, 249861, Note_on_c, 0, 67, 38
3, 250301, Note_on_c, 0, 67, 0
3, 250391, Note_on_c, 0, 67, 49
3, 250535, Note_on_c, 0, 67, 0
3, 250753, Note_on_c, 0, 64, 0
3, 250903, Note_on_c, 0, 60, 0
3, 251047, Note_on_c, 0, 55, 0
3, 251100, Note_on_c, 0, 57, 0
3, 251297, Note_on_c, 0, 76, 42
3, 251352, Note_on_c, 0, 54, 47
3, 251353, Note_on_c, 0, 64, 51
3, 251392, Note_on_c, 0, 60, 24
3, 251492, Note_on_c, 0, 60, 0
3, 251505, Note_on_c, 0, 64, 0
3, 251549, Note_on_c, 0, 76, 0
3, 251589, Note_on_c, 0, 54, 0
3, 251756, Note_on_c, 0, 66, 48
3, 252205, Note_on_c, 0, 66, 0
3, 252358, Note_on_c, 0, 66, 52
3, 252487, Note_on_c, 0, 66, 0
3, 253194, Note_on_c, 0, 72, 83
3, 253251, Note_on_c, 0, 62, 65
3, 253293, Note_on_c, 0, 58, 28
3, 253305, Note_on_c, 0, 57, 25
3, 253382, Note_on_c, 0, 57, 0
3, 253384, Note_on_c, 0, 58, 0
3, 253390, Note_on_c, 0, 62, 0
3, 254187, Note_on_c, 0, 72, 0
3, 254236, Note_on_c, 0, 69, 47
3, 254444, Note_on_c, 0, 69, 0
3, 254532, Note_on_c, 0, 65, 48
3, 255128, Note_on_c, 0, 65, 0
3, 255173, Note_on_c, 0, 62, 51
3, 255356, Note_on_c, 0, 62, 0
3, 255444, Note_on_c, 0, 65, 64
3, 256028, Note_on_c, 0, 65, 0
3, 256120, Note_on_c, 0, 62, 28
3, 256178, Note_on_c, 0, 57, 30
3, 256387, Note_on_c, 0, 63, 51
3, 256389, Note_on_c, 0, 62, 0
3, 256549, Note_on_c, 0, 57, 0
3, 257047, Note_on_c, 0, 63, 0
3, 257057, Note_on_c, 0, 62, 51
3, 257077, Note_on_c, 0, 52, 38
3, 257128, Note_on_c, 0, 62, 0
3, 257278, Note_on_c, 0, 52, 0
3, 257313, Note_on_c, 0, 64, 46
3, 257978, Note_on_c, 0, 64, 0
3, 257999, Note_on_c, 0, 36, 44
3, 258033, Note_on_c, 0, 67, 36
3, 258069, Note_on_c, 0, 36, 0
3, 258121, Note_on_c, 0, 67, 0
3, 258283, Note_on_c, 0, 72, 74
3, 258953, Note_on_c, 0, 72, 0
3, 259256, Note_on_c, 0, 72, 57
3, 259775, Note_on_c, 0, 72, 0
3, 260210, Note_on_c, 0, 62, 47
3, 260220, Note_on_c, 0, 57, 34
3, 260248, Note_on_c, 0, 58, 23
3, 260327, Note_on_c, 0, 57, 0
3, 260345, Note_on_c, 0, 62, 0
3, 260375, Note_on_c, 0, 58, 0
3, 261174, Note_on_c, 0, 69, 90
3, 261686, Note_on_c, 0, 69, 0
3, 261783, Note_on_c, 0, 70, 46
3, 261806, Note_on_c, 0, 57, 50
3, 261824, Note_on_c, 0, 62, 42
3, 261887, Note_on_c, 0, 57, 0
3, 261899, Note_on_c, 0, 62, 0
3, 261959, Note_on_c, 0, 70, 0
3, 262087, Note_on_c, 0, 77, 80
3, 262658, Note_on_c, 0, 77, 0
3, 262841, Note_on_c, 0, 77, 81
3, 265018, Note_on_c, 0, 62, 49
3, 265034, Note_on_c, 0, 52, 35
3, 265130, Note_on_c, 0, 62, 0
3, 265138, Note_on_c, 0, 52, 0
3, 265220, Note_on_c, 0, 77, 0
3, 266736, Note_on_c, 0, 61, 75
3, 266801, Note_on_c, 0, 61, 0
3, 266947, Note_on_c, 0, 86, 95
3, 266951, Note_on_c, 0, 79, 91
3, 266952, Note_on_c, 0, 74, 95
3, 267412, Note_on_c, 0, 86, 0
3, 267456, Note_on_c, 0, 74, 0
3, 267484, Note_on_c, 0, 79, 0
3, 267655, Note_on_c, 0, 84, 48
3, 267667, Note_on_c, 0, 72, 39
3, 267688, Note_on_c, 0, 79, 22
3, 267718, Note_on_c, 0, 84, 0
3, 267744, Note_on_c, 0, 72, 0
3, 267790, Note_on_c, 0, 79, 0
3, 267888, Note_on_c, 0, 79, 72
3, 267892, Note_on_c, 0, 86, 80
3, 267901, Note_on_c, 0, 74, 61
3, 268302, Note_on_c, 0, 86, 0
3, 268320, Note_on_c, 0, 79, 0
3, 268359, Note_on_c, 0, 74, 0
3, 268568, Note_on_c, 0, 84, 66
3, 268575, Note_on_c, 0, 64, 60
3, 268577, Note_on_c, 0, 53, 52
3, 268587, Note_on_c, 0, 60, 36
3, 268599, Note_on_c, 0, 72, 45
3, 268599, Note_on_c, 0, 79, 58
3, 268614, Note_on_c, 0, 57, 41
3, 268642, Note_on_c, 0, 64, 0
3, 268703, Note_on_c, 0, 79, 0
3, 268721, Note_on_c, 0, 60, 0
3, 268724, Note_on_c, 0, 84, 0
3, 268761, Note_on_c, 0, 53, 0
3, 268807, Note_on_c, 0, 72, 0
3, 268860, Note_on_c, 0, 57, 0
3, 269177, Note_on_c, 0, 81, 42
3, 269182, Note_on_c, 0, 69, 53
3, 269226, Note_on_c, 0, 73, 25
3, 269369, Note_on_c, 0, 73, 0
3, 269486, Note_on_c, 0, 69, 0
3, 269494, Note_on_c, 0, 81, 0
3, 269826, Note_on_c, 0, 81, 66
3, 269847, Note_on_c, 0, 69, 66
3, 270557, Note_on_c, 0, 61, 51
3, 270567, Note_on_c, 0, 64, 60
3, 270618, Note_on_c, 0, 57, 37
3, 270638, Note_on_c, 0, 64, 0
3, 270727, Note_on_c, 0, 61, 0
3, 270740, Note_on_c, 0, 57, 0
3, 270991, Note_on_c, 0, 69, 0
3, 271025, Note_on_c, 0, 81, 0
3, 271176, Note_on_c, 0, 76, 62
3, 271382, Note_on_c, 0, 76, 0
3, 271447, Note_on_c, 0, 73, 53
3, 271652, Note_on_c, 0, 73, 0
3, 271753, Note_on_c, 0, 69, 47
3, 271891, Note_on_c, 0, 69, 0
3, 272190, Note_on_c, 0, 64, 19
3, 272339, Note_on_c, 0, 64, 0
3, 272408, Note_on_c, 0, 61, 65
3, 272563, Note_on_c, 0, 48, 29
3, 272670, Note_on_c, 0, 48, 0
3, 272695, Note_on_c, 0, 61, 0
3, 273061, Note_on_c, 0, 62, 78
3, 273334, Note_on_c, 0, 62, 0
3, 273420, Note_on_c, 0, 50, 20
3, 273436, Note_on_c, 0, 57, 19
3, 273499, Note_on_c, 0, 50, 0
3, 273564, Note_on_c, 0, 57, 0
3, 273710, Note_on_c, 0, 60, 50
3, 274091, Note_on_c, 0, 60, 0
3, 274209, Note_on_c, 0, 53, 54
3, 274548, Note_on_c, 0, 53, 0
3, 274793, Note_on_c, 0, 53, 58
3, 275068, Note_on_c, 0, 53, 0
3, 275250, Note_on_c, 0, 53, 61
3, 275458, Note_on_c, 0, 53, 0
3, 275522, Note_on_c, 0, 52, 66
3, 275678, Note_on_c, 0, 52, 0
3, 275742, Note_on_c, 0, 53, 53
3, 275986, Note_on_c, 0, 53, 0
3, 276140, Note_on_c, 0, 57, 58
3, 276294, Note_on_c, 0, 57, 0
3, 278153, Note_on_c, 0, 62, 66
3, 278158, Note_on_c, 0, 60, 35
3, 278183, Note_on_c, 0, 53, 30
3, 278211, Note_on_c, 0, 62, 0
3, 278234, Note_on_c, 0, 60, 0
3, 278288, Note_on_c, 0, 53, 0
3, 278428, Note_on_c, 0, 64, 31
3, 278496, Note_on_c, 0, 64, 0
3, 279115, Note_on_c, 0, 64, 90
3, 279286, Note_on_c, 0, 64, 0
3, 279482, Note_on_c, 0, 65, 74
3, 279914, Note_on_c, 0, 65, 0
3, 280036, Note_on_c, 0, 67, 85
3, 280045, Note_on_c, 0, 41, 66
3, 280209, Note_on_c, 0, 41, 0
3, 280247, Note_on_c, 0, 67, 0
3, 280403, Note_on_c, 0, 64, 44
3, 280962, Note_on_c, 0, 64, 0
3, 281027, Note_on_c, 0, 60, 30
3, 281210, Note_on_c, 0, 60, 0
3, 281298, Note_on_c, 0, 62, 62
3, 282016, Note_on_c, 0, 50, 26
3, 282036, Note_on_c, 0, 41, 32
3, 282048, Note_on_c, 0, 62, 0
3, 282078, Note_on_c, 0, 50, 0
3, 282158, Note_on_c, 0, 41, 0
3, 282259, Note_on_c, 0, 57, 48
3, 282792, Note_on_c, 0, 57, 0
3, 282938, Note_on_c, 0, 57, 55
3, 282998, Note_on_c, 0, 57, 0
3, 284137, Note_on_c, 0, 47, 27
3, 284154, Note_on_c, 0, 40, 45
3, 284170, Note_on_c, 0, 55, 60
3, 284369, Note_on_c, 0, 40, 0
3, 284380, Note_on_c, 0, 55, 0
3, 284440, Note_on_c, 0, 47, 0
3, 285122, Note_on_c, 0, 69, 113
3, 285740, Note_on_c, 0, 69, 0
3, 285839, Note_on_c, 0, 67, 33
3, 285939, Note_on_c, 0, 67, 0
3, 286078, Note_on_c, 0, 69, 66
3, 286089, Note_on_c, 0, 61, 47
3, 286096, Note_on_c, 0, 65, 58
3, 286105, Note_on_c, 0, 55, 48
3, 286244, Note_on_c, 0, 65, 0
3, 286289, Note_on_c, 0, 55, 0
3, 286333, Note_on_c, 0, 61, 0
3, 286780, Note_on_c, 0, 69, 0
3, 287048, Note_on_c, 0, 73, 69
3, 287585, Note_on_c, 0, 73, 0
3, 288889, Note_on_c, 0, 57, 57
3, 288921, Note_on_c, 0, 62, 68
3, 288954, Note_on_c, 0, 52, 34
3, 288956, Note_on_c, 0, 58, 40
3, 289241, Note_on_c, 0, 52, 0
3, 289285, Note_on_c, 0, 58, 0
3, 289288, Note_on_c, 0, 57, 0
3, 289404, Note_on_c, 0, 62, 0
3, 289901, Note_on_c, 0, 61, 64
3, 289902, Note_on_c, 0, 58, 49
3, 289904, Note_on_c, 0, 65, 72
3, 289906, Note_on_c, 0, 55, 69
3, 291117, Note_on_c, 0, 65, 0
3, 291180, Note_on_c, 0, 58, 0
3, 291212, Note_on_c, 0, 61, 0
3, 291231, Note_on_c, 0, 55, 0
3, 291316, Note_on_c, 0, 69, 74
3, 291536, Note_on_c, 0, 69, 0
3, 291618, Note_on_c, 0, 70, 76
3, 291680, Note_on_c, 0, 69, 31
3, 291689, Note_on_c, 0, 57, 49
3, 291717, Note_on_c, 0, 50, 32
3, 291740, Note_on_c, 0, 69, 0
3, 291747, Note_on_c, 0, 52, 24
3, 291814, Note_on_c, 0, 52, 0
3, 291854, Note_on_c, 0, 50, 0
3, 291870, Note_on_c, 0, 70, 0
3, 292004, Note_on_c, 0, 76, 77
3, 292006, Note_on_c, 0, 69, 75
3, 292020, Note_on_c, 0, 65, 75
3, 292032, Note_on_c, 0, 61, 67
3, 292384, Note_on_c, 0, 57, 0
3, 292509, Note_on_c, 0, 65, 0
3, 292534, Note_on_c, 0, 69, 0
3, 292549, Note_on_c, 0, 76, 0
3, 292601, Note_on_c, 0, 61, 0
3, 292604, Note_on_c, 0, 74, 57
3, 292609, Note_on_c, 0, 69, 39
3, 292615, Note_on_c, 0, 65, 62
3, 292630, Note_on_c, 0, 60, 43
3, 292903, Note_on_c, 0, 65, 0
3, 292912, Note_on_c, 0, 69, 0
3, 292921, Note_on_c, 0, 60, 0
3, 292967, Note_on_c, 0, 74, 0
3, 293088, Note_on_c, 0, 76, 71
3, 293109, Note_on_c, 0, 69, 66
3, 293113, Note_on_c, 0, 65, 59
3, 293137, Note_on_c, 0, 62, 39
3, 293185, Note_on_c, 0, 60, 24
3, 293269, Note_on_c, 0, 62, 0
3, 293405, Note_on_c, 0, 65, 0
3, 293442, Note_on_c, 0, 69, 0
3, 293477, Note_on_c, 0, 76, 0
3, 293537, Note_on_c, 0, 65, 38
3, 293558, Note_on_c, 0, 74, 58
3, 293558, Note_on_c, 0, 69, 33
3, 293639, Note_on_c, 0, 69, 0
3, 293657, Note_on_c, 0, 61, 38
3, 293688, Note_on_c, 0, 65, 0
3, 293729, Note_on_c, 0, 60, 0
3, 293787, Note_on_c, 0, 74, 0
3, 293931, Note_on_c, 0, 73, 64
3, 293942, Note_on_c, 0, 79, 73
3, 293944, Note_on_c, 0, 69, 77
3, 293956, Note_on_c, 0, 64, 73
3, 293998, Note_on_c, 0, 61, 0
3, 294350, Note_on_c, 0, 73, 0
3, 294382, Note_on_c, 0, 79, 0
3, 294389, Note_on_c, 0, 69, 0
3, 294438, Note_on_c, 0, 77, 52
3, 294484, Note_on_c, 0, 63, 37
3, 294502, Note_on_c, 0, 69, 42
3, 294505, Note_on_c, 0, 64, 0
3, 294669, Note_on_c, 0, 69, 0
3, 294735, Note_on_c, 0, 77, 0
3, 294845, Note_on_c, 0, 73, 47
3, 294847, Note_on_c, 0, 63, 0
3, 294855, Note_on_c, 0, 79, 61
3, 294860, Note_on_c, 0, 64, 61
3, 294862, Note_on_c, 0, 69, 57
3, 295195, Note_on_c, 0, 69, 0
3, 295226, Note_on_c, 0, 79, 0
3, 295267, Note_on_c, 0, 64, 0
3, 295360, Note_on_c, 0, 77, 50
3, 295371, Note_on_c, 0, 62, 49
3, 295409, Note_on_c, 0, 73, 0
3, 295455, Note_on_c, 0, 62, 0
3, 295554, Note_on_c, 0, 77, 0
3, 296687, Note_on_c, 0, 79, 88
3, 296691, Note_on_c, 0, 67, 87
3, 296694, Note_on_c, 0, 72, 79
3, 296696, Note_on_c, 0, 69, 94
3, 296705, Note_on_c, 0, 76, 70
3, 297111, Note_on_c, 0, 69, 0
3, 297175, Note_on_c, 0, 79, 0
3, 297180, Note_on_c, 0, 76, 0
3, 297224, Note_on_c, 0, 72, 0
3, 297270, Note_on_c, 0, 67, 0
3, 297282, Note_on_c, 0, 69, 65
3, 297300, Note_on_c, 0, 77, 62
3, 297303, Note_on_c, 0, 65, 68
3, 297305, Note_on_c, 0, 79, 36
3, 297416, Note_on_c, 0, 69, 0
3, 297479, Note_on_c, 0, 79, 0
3, 297481, Note_on_c, 0, 65, 0
3, 297488, Note_on_c, 0, 77, 0
3, 297738, Note_on_c, 0, 75, 73
3, 297740, Note_on_c, 0, 70, 80
3, 297741, Note_on_c, 0, 82, 77
3, 297761, Note_on_c, 0, 71, 82
3, 297763, Note_on_c, 0, 77, 62
3, 297798, Note_on_c, 0, 78, 23
3, 298146, Note_on_c, 0, 82, 0
3, 298157, Note_on_c, 0, 78, 0
3, 298178, Note_on_c, 0, 71, 0
3, 298180, Note_on_c, 0, 70, 0
3, 298189, Note_on_c, 0, 77, 0
3, 298222, Note_on_c, 0, 75, 0
3, 298275, Note_on_c, 0, 75, 34
3, 298282, Note_on_c, 0, 81, 73
3, 298289, Note_on_c, 0, 71, 64
3, 298324, Note_on_c, 0, 69, 66
3, 298495, Note_on_c, 0, 81, 0
3, 298602, Note_on_c, 0, 75, 0
3, 298675, Note_on_c, 0, 75, 32
3, 298676, Note_on_c, 0, 69, 0
3, 298688, Note_on_c, 0, 68, 52
3, 298915, Note_on_c, 0, 71, 0
3, 298954, Note_on_c, 0, 75, 0
3, 299186, Note_on_c, 0, 68, 0
3, 299247, Note_on_c, 0, 79, 62
3, 299266, Note_on_c, 0, 70, 63
3, 299267, Note_on_c, 0, 74, 66
3, 299278, Note_on_c, 0, 67, 62
3, 299456, Note_on_c, 0, 79, 0
3, 299482, Note_on_c, 0, 74, 0
3, 299484, Note_on_c, 0, 67, 0
3, 299565, Note_on_c, 0, 70, 0
3, 299875, Note_on_c, 0, 77, 60
3, 299882, Note_on_c, 0, 70, 60
3, 299901, Note_on_c, 0, 67, 54
3, 299920, Note_on_c, 0, 65, 59
3, 299968, Note_on_c, 0, 74, 34
3, 300114, Note_on_c, 0, 74, 0
3, 300169, Note_on_c, 0, 77, 0
3, 300213, Note_on_c, 0, 70, 0
3, 300306, Note_on_c, 0, 65, 0
3, 300311, Note_on_c, 0, 67, 0
3, 300524, Note_on_c, 0, 74, 34
3, 300528, Note_on_c, 0, 62, 66
3, 300529, Note_on_c, 0, 70, 37
3, 300535, Note_on_c, 0, 65, 46
3, 300542, Note_on_c, 0, 67, 44
3, 300892, Note_on_c, 0, 70, 0
3, 300908, Note_on_c, 0, 67, 0
3, 300924, Note_on_c, 0, 65, 0
3, 301010, Note_on_c, 0, 62, 0
3, 301070, Note_on_c, 0, 74, 0
3, 301100, Note_on_c, 0, 70, 53
3, 301114, Note_on_c, 0, 65, 58
3, 301168, Note_on_c, 0, 58, 40
3, 301304, Note_on_c, 0, 65, 0
3, 301447, Note_on_c, 0, 70, 0
3, 301540, Note_on_c, 0, 58, 0
3, 301642, Note_on_c, 0, 62, 57
3, 301645, Note_on_c, 0, 66, 46
3, 301652, Note_on_c, 0, 69, 57
3, 301660, Note_on_c, 0, 57, 42
3, 302226, Note_on_c, 0, 66, 0
3, 302247, Note_on_c, 0, 62, 0
3, 302409, Note_on_c, 0, 66, 46
3, 302411, Note_on_c, 0, 69, 0
3, 302425, Note_on_c, 0, 57, 0
3, 302430, Note_on_c, 0, 54, 37
3, 302446, Note_on_c, 0, 62, 50
3, 302914, Note_on_c, 0, 62, 0
3, 303031, Note_on_c, 0, 66, 0
3, 303092, Note_on_c, 0, 70, 56
3, 303126, Note_on_c, 0, 62, 41
3, 303133, Note_on_c, 0, 65, 50
3, 303148, Note_on_c, 0, 54, 0
3, 303161, Note_on_c, 0, 55, 45
3, 303989, Note_on_c, 0, 65, 0
3, 304048, Note_on_c, 0, 62, 0
3, 304116, Note_on_c, 0, 55, 0
3, 304259, Note_on_c, 0, 70, 0
3, 304366, Note_on_c, 0, 74, 80
3, 304371, Note_on_c, 0, 67, 77
3, 304371, Note_on_c, 0, 70, 59
3, 304378, Note_on_c, 0, 64, 58
3, 304380, Note_on_c, 0, 62, 87
3, 304395, Note_on_c, 0, 65, 67
3, 304453, Note_on_c, 0, 65, 0
3, 304869, Note_on_c, 0, 74, 0
3, 304901, Note_on_c, 0, 67, 0
3, 304944, Note_on_c, 0, 64, 0
3, 304950, Note_on_c, 0, 70, 0
3, 304961, Note_on_c, 0, 62, 0
3, 305063, Note_on_c, 0, 58, 33
3, 305252, Note_on_c, 0, 58, 0
3, 305308, Note_on_c, 0, 72, 57
3, 305317, Note_on_c, 0, 64, 60
3, 305334, Note_on_c, 0, 67, 57
3, 305354, Note_on_c, 0, 60, 34
3, 305681, Note_on_c, 0, 72, 0
3, 305767, Note_on_c, 0, 64, 0
3, 305813, Note_on_c, 0, 60, 0
3, 305837, Note_on_c, 0, 67, 0
3, 305950, Note_on_c, 0, 67, 65
3, 305952, Note_on_c, 0, 74, 64
3, 305954, Note_on_c, 0, 64, 56
3, 305975, Note_on_c, 0, 62, 73
3, 306072, Note_on_c, 0, 64, 0
3, 306133, Note_on_c, 0, 67, 0
3, 306149, Note_on_c, 0, 74, 0
3, 306313, Note_on_c, 0, 63, 68
3, 306376, Note_on_c, 0, 68, 45
3, 306380, Note_on_c, 0, 75, 53
3, 306452, Note_on_c, 0, 68, 0
3, 306501, Note_on_c, 0, 62, 0
3, 306663, Note_on_c, 0, 75, 0
3, 306726, Note_on_c, 0, 63, 0
3, 306880, Note_on_c, 0, 76, 66
3, 306911, Note_on_c, 0, 64, 70
3, 306936, Note_on_c, 0, 71, 51
3, 306953, Note_on_c, 0, 69, 33
3, 307006, Note_on_c, 0, 71, 0
3, 307022, Note_on_c, 0, 69, 0
3, 307031, Note_on_c, 0, 76, 0
3, 307168, Note_on_c, 0, 64, 0
3, 307196, Note_on_c, 0, 72, 88
3, 307200, Note_on_c, 0, 79, 84
3, 307208, Note_on_c, 0, 69, 88
3, 307219, Note_on_c, 0, 67, 90
3, 307663, Note_on_c, 0, 79, 0
3, 307701, Note_on_c, 0, 72, 0
3, 307715, Note_on_c, 0, 67, 0
3, 307738, Note_on_c, 0, 69, 0
3, 307869, Note_on_c, 0, 77, 64
3, 307878, Note_on_c, 0, 72, 69
3, 307883, Note_on_c, 0, 65, 67
3, 307884, Note_on_c, 0, 69, 65
3, 308108, Note_on_c, 0, 77, 0
3, 308115, Note_on_c, 0, 65, 0
3, 308120, Note_on_c, 0, 72, 0
3, 308155, Note_on_c, 0, 69, 0
3, 308302, Note_on_c, 0, 64, 55
3, 308347, Note_on_c, 0, 76, 55
3, 308789, Note_on_c, 0, 64, 0
3, 308851, Note_on_c, 0, 65, 57
3, 308861, Note_on_c, 0, 69, 66
3, 308868, Note_on_c, 0, 72, 55
3, 308891, Note_on_c, 0, 60, 39
3, 309094, Note_on_c, 0, 60, 0
3, 309097, Note_on_c, 0, 65, 0
3, 309102, Note_on_c, 0, 76, 0
3, 309127, Note_on_c, 0, 69, 0
3, 309141, Note_on_c, 0, 72, 0
3, 310811, Note_on_c, 0, 67, 83
3, 310813, Note_on_c, 0, 56, 74
3, 310815, Note_on_c, 0, 64, 85
3, 310820, Note_on_c, 0, 60, 74
3, 310824, Note_on_c, 0, 46, 65
3, 310966, Note_on_c, 0, 60, 0
3, 311014, Note_on_c, 0, 64, 0
3, 311017, Note_on_c, 0, 56, 0
3, 311037, Note_on_c, 0, 67, 0
3, 311072, Note_on_c, 0, 46, 0
3, 311331, Note_on_c, 0, 64, 54
3, 311343, Note_on_c, 0, 60, 50
3, 311362, Note_on_c, 0, 55, 60
3, 311380, Note_on_c, 0, 45, 62
3, 311770, Note_on_c, 0, 45, 0
3, 311774, Note_on_c, 0, 55, 0
3, 311785, Note_on_c, 0, 60, 0
3, 311785, Note_on_c, 0, 64, 0
3, 311971, Note_on_c, 0, 60, 39
3, 311983, Note_on_c, 0, 64, 58
3, 311987, Note_on_c, 0, 55, 58
3, 312006, Note_on_c, 0, 45, 44
3, 312242, Note_on_c, 0, 55, 0
3, 312251, Note_on_c, 0, 60, 0
3, 312284, Note_on_c, 0, 45, 0
3, 312290, Note_on_c, 0, 64, 0
3, 312744, Note_on_c, 0, 65, 61
3, 312760, Note_on_c, 0, 54, 57
3, 312761, Note_on_c, 0, 58, 60
3, 312765, Note_on_c, 0, 60, 36
3, 312781, Note_on_c, 0, 50, 44
3, 312990, Note_on_c, 0, 50, 0
3, 313032, Note_on_c, 0, 65, 0
3, 313090, Note_on_c, 0, 58, 0
3, 313101, Note_on_c, 0, 54, 0
3, 313163, Note_on_c, 0, 60, 0
3, 313273, Note_on_c, 0, 54, 33
3, 313282, Note_on_c, 0, 38, 51
3, 313289, Note_on_c, 0, 63, 40
3, 313342, Note_on_c, 0, 58, 31
3, 313585, Note_on_c, 0, 58, 0
3, 313642, Note_on_c, 0, 54, 0
3, 313647, Note_on_c, 0, 38, 0
3, 313668, Note_on_c, 0, 63, 0
3, 313851, Note_on_c, 0, 54, 38
3, 313855, Note_on_c, 0, 63, 50
3, 313858, Note_on_c, 0, 38, 45
3, 313888, Note_on_c, 0, 58, 42
3, 314129, Note_on_c, 0, 58, 0
3, 314254, Note_on_c, 0, 54, 0
3, 314268, Note_on_c, 0, 63, 0
3, 314444, Note_on_c, 0, 38, 0
3, 314504, Note_on_c, 0, 62, 58
3, 314509, Note_on_c, 0, 53, 48
3, 314530, Note_on_c, 0, 58, 31
3, 314534, Note_on_c, 0, 43, 47
3, 314780, Note_on_c, 0, 43, 0
3, 314808, Note_on_c, 0, 58, 0
3, 314849, Note_on_c, 0, 62, 0
3, 314854, Note_on_c, 0, 53, 0
3, 315094, Note_on_c, 0, 43, 47
3, 315108, Note_on_c, 0, 53, 33
3, 315115, Note_on_c, 0, 58, 35
3, 315123, Note_on_c, 0, 62, 40
3, 315303, Note_on_c, 0, 43, 0
3, 315468, Note_on_c, 0, 58, 0
3, 315486, Note_on_c, 0, 53, 0
3, 315597, Note_on_c, 0, 62, 0
3, 315747, Note_on_c, 0, 43, 33
3, 315757, Note_on_c, 0, 53, 41
3, 315787, Note_on_c, 0, 57, 39
3, 316128, Note_on_c, 0, 53, 0
3, 316207, Note_on_c, 0, 57, 0
3, 316410, Note_on_c, 0, 50, 31
3, 316508, Note_on_c, 0, 50, 0
3, 316519, Note_on_c, 0, 53, 57
3, 316531, Note_on_c, 0, 62, 50
3, 316535, Note_on_c, 0, 58, 45
3, 316856, Note_on_c, 0, 58, 0
3, 316889, Note_on_c, 0, 53, 0
3, 317030, Note_on_c, 0, 62, 0
3, 317155, Note_on_c, 0, 58, 43
3, 317156, Note_on_c, 0, 53, 35
3, 317186, Note_on_c, 0, 50, 24
3, 317533, Note_on_c, 0, 50, 0
3, 317582, Note_on_c, 0, 53, 0
3, 317696, Note_on_c, 0, 43, 0
3, 317806, Note_on_c, 0, 53, 35
3, 317836, Note_on_c, 0, 47, 44
3, 318078, Note_on_c, 0, 53, 0
3, 318330, Note_on_c, 0, 58, 0
3, 318462, Note_on_c, 0, 47, 0
3, 318508, Note_on_c, 0, 52, 50
3, 318515, Note_on_c, 0, 55, 50
3, 318527, Note_on_c, 0, 48, 39
3, 318626, Note_on_c, 0, 52, 0
3, 318705, Note_on_c, 0, 55, 0
3, 318719, Note_on_c, 0, 48, 0
3, 319418, Note_on_c, 0, 36, 53
3, 319509, Note_on_c, 0, 36, 0
3, 320713, Note_on_c, 0, 92, 65
3, 320721, Note_on_c, 0, 80, 52
3, 320724, Note_on_c, 0, 62, 52
3, 320729, Note_on_c, 0, 57, 29
3, 320759, Note_on_c, 0, 53, 36
3, 320761, Note_on_c, 0, 58, 28
3, 321151, Note_on_c, 0, 53, 0
3, 321174, Note_on_c, 0, 62, 0
3, 321197, Note_on_c, 0, 58, 0
3, 321227, Note_on_c, 0, 80, 0
3, 321239, Note_on_c, 0, 57, 0
3, 321324, Note_on_c, 0, 92, 0
3, 321371, Note_on_c, 0, 81, 34
3, 321384, Note_on_c, 0, 62, 55
3, 321393, Note_on_c, 0, 93, 29
3, 321398, Note_on_c, 0, 57, 24
3, 321431, Note_on_c, 0, 58, 21
3, 321459, Note_on_c, 0, 81, 0
3, 321463, Note_on_c, 0, 62, 0
3, 321475, Note_on_c, 0, 93, 0
3, 321491, Note_on_c, 0, 58, 0
3, 321495, Note_on_c, 0, 57, 0
3, 321611, Note_on_c, 0, 62, 74
3, 321626, Note_on_c, 0, 53, 57
3, 321628, Note_on_c, 0, 57, 61
3, 321632, Note_on_c, 0, 84, 80
3, 321637, Note_on_c, 0, 96, 76
3, 321639, Note_on_c, 0, 58, 44
3, 322139, Note_on_c, 0, 84, 0
3, 322172, Note_on_c, 0, 53, 0
3, 322186, Note_on_c, 0, 58, 0
3, 322193, Note_on_c, 0, 62, 0
3, 322200, Note_on_c, 0, 96, 0
3, 322221, Note_on_c, 0, 57, 0
3, 322369, Note_on_c, 0, 98, 75
3, 322376, Note_on_c, 0, 57, 64
3, 322378, Note_on_c, 0, 62, 82
3, 322385, Note_on_c, 0, 58, 61
3, 322387, Note_on_c, 0, 86, 48
3, 322403, Note_on_c, 0, 88, 55
3, 322406, Note_on_c, 0, 53, 62
3, 322461, Note_on_c, 0, 88, 0
3, 322625, Note_on_c, 0, 86, 0
3, 322649, Note_on_c, 0, 98, 0
3, 322655, Note_on_c, 0, 62, 0
3, 322660, Note_on_c, 0, 53, 0
3, 322693, Note_on_c, 0, 58, 0
3, 322721, Note_on_c, 0, 57, 0
3, 322820, Note_on_c, 0, 62, 59
3, 322825, Note_on_c, 0, 96, 37
3, 322843, Note_on_c, 0, 53, 36
3, 322852, Note_on_c, 0, 57, 33
3, 322867, Note_on_c, 0, 58, 32
3, 322874, Note_on_c, 0, 84, 40
3, 323121, Note_on_c, 0, 58, 0
3, 323130, Note_on_c, 0, 96, 0
3, 323175, Note_on_c, 0, 62, 0
3, 323193, Note_on_c, 0, 84, 0
3, 323235, Note_on_c, 0, 57, 0
3, 323253, Note_on_c, 0, 53, 0
3, 323538, Note_on_c, 0, 62, 58
3, 323557, Note_on_c, 0, 93, 32
3, 323573, Note_on_c, 0, 57, 35
3, 323580, Note_on_c, 0, 81, 47
3, 323589, Note_on_c, 0, 53, 31
3, 323601, Note_on_c, 0, 58, 33
3, 323929, Note_on_c, 0, 81, 0
3, 323962, Note_on_c, 0, 93, 0
3, 324004, Note_on_c, 0, 53, 0
3, 324008, Note_on_c, 0, 58, 0
3, 324022, Note_on_c, 0, 62, 0
3, 324038, Note_on_c, 0, 57, 0
3, 324258, Note_on_c, 0, 96, 55
3, 324273, Note_on_c, 0, 84, 49
3, 324277, Note_on_c, 0, 62, 58
3, 324312, Note_on_c, 0, 57, 29
3, 324321, Note_on_c, 0, 96, 0
3, 324342, Note_on_c, 0, 84, 0
3, 324346, Note_on_c, 0, 58, 21
3, 324383, Note_on_c, 0, 57, 0
3, 324399, Note_on_c, 0, 62, 0
3, 324406, Note_on_c, 0, 58, 0
3, 326444, Note_on_c, 0, 62, 79
3, 326447, Note_on_c, 0, 80, 75
3, 326449, Note_on_c, 0, 68, 86
3, 326451, Note_on_c, 0, 58, 56
3, 326452, Note_on_c, 0, 52, 74
3, 326868, Note_on_c, 0, 52, 0
3, 326912, Note_on_c, 0, 62, 0
3, 326913, Note_on_c, 0, 58, 0
3, 326968, Note_on_c, 0, 68, 0
3, 327053, Note_on_c, 0, 80, 0
3, 327091, Note_on_c, 0, 69, 62
3, 327123, Note_on_c, 0, 58, 45
3, 327157, Note_on_c, 0, 52, 35
3, 327158, Note_on_c, 0, 69, 0
3, 327207, Note_on_c, 0, 58, 0
3, 327231, Note_on_c, 0, 52, 0
3, 327361, Note_on_c, 0, 52, 58
3, 327370, Note_on_c, 0, 62, 62
3, 327389, Note_on_c, 0, 58, 47
3, 327396, Note_on_c, 0, 72, 63
3, 327403, Note_on_c, 0, 84, 71
3, 327804, Note_on_c, 0, 84, 0
3, 327824, Note_on_c, 0, 52, 0
3, 327827, Note_on_c, 0, 72, 0
3, 327883, Note_on_c, 0, 62, 0
3, 327931, Note_on_c, 0, 58, 0
3, 328059, Note_on_c, 0, 86, 84
3, 328073, Note_on_c, 0, 74, 68
3, 328075, Note_on_c, 0, 62, 74
3, 328077, Note_on_c, 0, 52, 69
3, 328091, Note_on_c, 0, 58, 38
3, 328093, Note_on_c, 0, 79, 55
3, 328241, Note_on_c, 0, 52, 0
3, 328274, Note_on_c, 0, 62, 0
3, 328279, Note_on_c, 0, 86, 0
3, 328283, Note_on_c, 0, 74, 0
3, 328302, Note_on_c, 0, 79, 0
3, 328306, Note_on_c, 0, 58, 0
3, 328413, Note_on_c, 0, 62, 45
3, 328417, Note_on_c, 0, 52, 45
3, 328452, Note_on_c, 0, 84, 62
3, 328455, Note_on_c, 0, 58, 32
3, 328489, Note_on_c, 0, 72, 43
3, 328737, Note_on_c, 0, 84, 0
3, 328853, Note_on_c, 0, 72, 0
3, 328878, Note_on_c, 0, 58, 0
3, 328883, Note_on_c, 0, 52, 0
3, 328888, Note_on_c, 0, 62, 0
3, 329283, Note_on_c, 0, 81, 57
3, 329288, Note_on_c, 0, 52, 47
3, 329302, Note_on_c, 0, 69, 51
3, 329328, Note_on_c, 0, 62, 44
3, 329334, Note_on_c, 0, 58, 27
3, 329575, Note_on_c, 0, 52, 0
3, 329634, Note_on_c, 0, 58, 0
3, 329645, Note_on_c, 0, 69, 0
3, 329728, Note_on_c, 0, 62, 0
3, 329790, Note_on_c, 0, 81, 0
3, 329986, Note_on_c, 0, 53, 46
3, 330008, Note_on_c, 0, 84, 64
3, 330009, Note_on_c, 0, 64, 47
3, 330013, Note_on_c, 0, 72, 57
3, 330027, Note_on_c, 0, 79, 43
3, 330036, Note_on_c, 0, 57, 54
3, 330052, Note_on_c, 0, 60, 31
3, 330103, Note_on_c, 0, 72, 0
3, 330105, Note_on_c, 0, 79, 0
3, 330126, Note_on_c, 0, 84, 0
3, 330150, Note_on_c, 0, 60, 0
3, 330152, Note_on_c, 0, 64, 0
3, 330235, Note_on_c, 0, 57, 0
3, 330301, Note_on_c, 0, 53, 0
3, 331277, Note_on_c, 0, 53, 44
3, 331277, Note_on_c, 0, 80, 76
3, 331279, Note_on_c, 0, 68, 87
3, 331282, Note_on_c, 0, 64, 68
3, 331298, Note_on_c, 0, 73, 46
3, 331300, Note_on_c, 0, 57, 41
3, 331356, Note_on_c, 0, 73, 0
3, 331532, Note_on_c, 0, 64, 0
3, 331599, Note_on_c, 0, 53, 0
3, 331699, Note_on_c, 0, 57, 0
3, 331738, Note_on_c, 0, 68, 0
3, 331769, Note_on_c, 0, 80, 0
3, 331882, Note_on_c, 0, 57, 44
3, 331900, Note_on_c, 0, 69, 59
3, 331901, Note_on_c, 0, 53, 44
3, 331910, Note_on_c, 0, 60, 34
3, 331919, Note_on_c, 0, 81, 34
3, 331979, Note_on_c, 0, 69, 0
3, 331984, Note_on_c, 0, 60, 0
3, 331986, Note_on_c, 0, 53, 0
3, 332017, Note_on_c, 0, 57, 0
3, 332058, Note_on_c, 0, 81, 0
3, 332171, Note_on_c, 0, 53, 46
3, 332201, Note_on_c, 0, 60, 26
3, 332204, Note_on_c, 0, 57, 36
3, 332211, Note_on_c, 0, 84, 76
3, 332218, Note_on_c, 0, 64, 54
3, 332220, Note_on_c, 0, 72, 49
3, 332247, Note_on_c, 0, 74, 44
3, 332317, Note_on_c, 0, 74, 0
3, 332577, Note_on_c, 0, 64, 0
3, 332595, Note_on_c, 0, 84, 0
3, 332613, Note_on_c, 0, 72, 0
3, 332653, Note_on_c, 0, 57, 0
3, 332670, Note_on_c, 0, 60, 0
3, 332674, Note_on_c, 0, 53, 0
3, 332855, Note_on_c, 0, 86, 77
3, 332857, Note_on_c, 0, 53, 56
3, 332861, Note_on_c, 0, 60, 29
3, 332866, Note_on_c, 0, 74, 61
3, 332876, Note_on_c, 0, 64, 51
3, 332883, Note_on_c, 0, 79, 49
3, 332899, Note_on_c, 0, 57, 41
3, 332980, Note_on_c, 0, 64, 0
3, 333039, Note_on_c, 0, 60, 0
3, 333042, Note_on_c, 0, 86, 0
3, 333061, Note_on_c, 0, 74, 0
3, 333061, Note_on_c, 0, 79, 0
3, 333073, Note_on_c, 0, 57, 0
3, 333209, Note_on_c, 0, 84, 54
3, 333216, Note_on_c, 0, 60, 26
3, 333228, Note_on_c, 0, 64, 31
3, 333230, Note_on_c, 0, 57, 36
3, 333234, Note_on_c, 0, 79, 28
3, 333235, Note_on_c, 0, 72, 41
3, 333412, Note_on_c, 0, 84, 0
3, 333419, Note_on_c, 0, 79, 0
3, 333487, Note_on_c, 0, 72, 0
3, 333554, Note_on_c, 0, 64, 0
3, 333617, Note_on_c, 0, 60, 0
3, 333626, Note_on_c, 0, 57, 0
3, 333647, Note_on_c, 0, 53, 0
3, 333825, Note_on_c, 0, 81, 34
3, 333839, Note_on_c, 0, 69, 51
3, 333841, Note_on_c, 0, 53, 49
3, 333846, Note_on_c, 0, 64, 47
3, 333848, Note_on_c, 0, 60, 27
3, 333855, Note_on_c, 0, 79, 35
3, 333869, Note_on_c, 0, 57, 28
3, 333938, Note_on_c, 0, 79, 0
3, 333970, Note_on_c, 0, 69, 0
3, 333985, Note_on_c, 0, 64, 0
3, 334003, Note_on_c, 0, 57, 0
3, 334010, Note_on_c, 0, 60, 0
3, 334022, Note_on_c, 0, 81, 0
3, 334087, Note_on_c, 0, 53, 0
3, 334344, Note_on_c, 0, 84, 62
3, 334359, Note_on_c, 0, 53, 35
3, 334364, Note_on_c, 0, 64, 51
3, 334372, Note_on_c, 0, 60, 33
3, 334374, Note_on_c, 0, 72, 45
3, 334390, Note_on_c, 0, 57, 36
3, 334538, Note_on_c, 0, 64, 0
3, 334562, Note_on_c, 0, 84, 0
3, 334571, Note_on_c, 0, 72, 0
3, 334579, Note_on_c, 0, 60, 0
3, 334608, Note_on_c, 0, 57, 0
3, 334652, Note_on_c, 0, 53, 0
3, 335140, Note_on_c, 0, 53, 38
3, 335143, Note_on_c, 0, 81, 46
3, 335159, Note_on_c, 0, 64, 32
3, 335168, Note_on_c, 0, 69, 42
3, 335374, Note_on_c, 0, 69, 0
3, 335381, Note_on_c, 0, 64, 0
3, 335441, Note_on_c, 0, 81, 0
3, 335497, Note_on_c, 0, 53, 0
3, 335777, Note_on_c, 0, 84, 63
3, 335798, Note_on_c, 0, 60, 33
3, 335800, Note_on_c, 0, 64, 46
3, 335803, Note_on_c, 0, 72, 35
3, 335809, Note_on_c, 0, 53, 33
3, 335840, Note_on_c, 0, 84, 0
3, 335863, Note_on_c, 0, 57, 26
3, 335872, Note_on_c, 0, 64, 0
3, 335886, Note_on_c, 0, 72, 0
3, 335918, Note_on_c, 0, 60, 0
3, 335948, Note_on_c, 0, 57, 0
3, 335974, Note_on_c, 0, 53, 0
3, 337866, Note_on_c, 0, 64, 59
3, 337891, Note_on_c, 0, 73, 45
3, 337903, Note_on_c, 0, 79, 54
3, 337908, Note_on_c, 0, 76, 44
3, 337912, Note_on_c, 0, 69, 68
3, 338387, Note_on_c, 0, 69, 0
3, 338404, Note_on_c, 0, 79, 0
3, 338464, Note_on_c, 0, 73, 0
3, 338500, Note_on_c, 0, 76, 0
3, 338590, Note_on_c, 0, 64, 0
3, 338598, Note_on_c, 0, 65, 71
3, 338604, Note_on_c, 0, 81, 64
3, 338605, Note_on_c, 0, 72, 64
3, 338621, Note_on_c, 0, 74, 52
3, 338623, Note_on_c, 0, 77, 50
3, 338843, Note_on_c, 0, 65, 0
3, 338844, Note_on_c, 0, 72, 0
3, 338855, Note_on_c, 0, 74, 0
3, 338867, Note_on_c, 0, 81, 0
3, 338898, Note_on_c, 0, 77, 0
3, 339006, Note_on_c, 0, 65, 47
3, 339013, Note_on_c, 0, 81, 53
3, 339019, Note_on_c, 0, 72, 38
3, 339044, Note_on_c, 0, 77, 49
3, 339045, Note_on_c, 0, 74, 37
3, 339459, Note_on_c, 0, 74, 0
3, 339474, Note_on_c, 0, 72, 0
3, 339485, Note_on_c, 0, 65, 0
3, 339527, Note_on_c, 0, 81, 0
3, 339543, Note_on_c, 0, 77, 0
3, 339888, Note_on_c, 0, 81, 50
3, 339899, Note_on_c, 0, 65, 48
3, 339901, Note_on_c, 0, 72, 47
3, 339902, Note_on_c, 0, 77, 38
3, 339920, Note_on_c, 0, 74, 40
3, 340295, Note_on_c, 0, 74, 0
3, 340305, Note_on_c, 0, 81, 0
3, 340314, Note_on_c, 0, 77, 0
3, 340330, Note_on_c, 0, 72, 0
3, 340526, Note_on_c, 0, 65, 0
3, 340807, Note_on_c, 0, 79, 37
3, 340810, Note_on_c, 0, 73, 31
3, 340814, Note_on_c, 0, 64, 46
3, 340832, Note_on_c, 0, 76, 42
3, 340849, Note_on_c, 0, 69, 45
3, 341169, Note_on_c, 0, 69, 0
3, 341249, Note_on_c, 0, 79, 0
3, 341281, Note_on_c, 0, 73, 0
3, 341282, Note_on_c, 0, 76, 0
3, 341538, Note_on_c, 0, 63, 29
3, 341585, Note_on_c, 0, 64, 0
3, 341775, Note_on_c, 0, 63, 0
3, 341779, Note_on_c, 0, 65, 55
3, 341780, Note_on_c, 0, 77, 48
3, 341782, Note_on_c, 0, 72, 58
3, 341791, Note_on_c, 0, 81, 54
3, 341798, Note_on_c, 0, 74, 50
3, 342211, Note_on_c, 0, 74, 0
3, 342222, Note_on_c, 0, 81, 0
3, 342236, Note_on_c, 0, 77, 0
3, 342264, Note_on_c, 0, 72, 0
3, 342405, Note_on_c, 0, 65, 0
3, 342739, Note_on_c, 0, 79, 46
3, 342741, Note_on_c, 0, 73, 34
3, 342754, Note_on_c, 0, 76, 46
3, 342766, Note_on_c, 0, 64, 46
3, 342768, Note_on_c, 0, 69, 52
3, 343079, Note_on_c, 0, 69, 0
3, 343157, Note_on_c, 0, 79, 0
3, 343202, Note_on_c, 0, 73, 0
3, 343204, Note_on_c, 0, 76, 0
3, 343282, Note_on_c, 0, 64, 0
3, 343665, Note_on_c, 0, 65, 63
3, 343686, Note_on_c, 0, 81, 55
3, 343694, Note_on_c, 0, 76, 44
3, 343697, Note_on_c, 0, 72, 55
3, 343702, Note_on_c, 0, 74, 50
3, 344031, Note_on_c, 0, 81, 0
3, 344090, Note_on_c, 0, 74, 0
3, 344126, Note_on_c, 0, 72, 0
3, 344212, Note_on_c, 0, 76, 0
3, 344276, Note_on_c, 0, 65, 0
3, 344327, Note_on_c, 0, 79, 40
3, 344331, Note_on_c, 0, 64, 43
3, 344352, Note_on_c, 0, 71, 52
3, 344364, Note_on_c, 0, 74, 39
3, 344422, Note_on_c, 0, 76, 20
3, 344547, Note_on_c, 0, 71, 0
3, 344549, Note_on_c, 0, 76, 0
3, 344563, Note_on_c, 0, 74, 0
3, 344603, Note_on_c, 0, 79, 0
3, 344628, Note_on_c, 0, 64, 0
3, 344681, Note_on_c, 0, 62, 48
3, 344950, Note_on_c, 0, 62, 0
3, 345339, Note_on_c, 0, 74, 62
3, 345346, Note_on_c, 0, 69, 56
3, 345348, Note_on_c, 0, 70, 59
3, 345362, Note_on_c, 0, 81, 49
3, 345374, Note_on_c, 0, 76, 48
3, 345448, Note_on_c, 0, 69, 0
3, 346334, Note_on_c, 0, 62, 52
3, 346337, Note_on_c, 0, 52, 53
3, 346342, Note_on_c, 0, 58, 33
3, 346397, Note_on_c, 0, 62, 0
3, 346402, Note_on_c, 0, 52, 0
3, 346414, Note_on_c, 0, 58, 0
3, 347601, Note_on_c, 0, 61, 56
3, 347608, Note_on_c, 0, 60, 40
3, 347613, Note_on_c, 0, 65, 68
3, 347627, Note_on_c, 0, 55, 63
3, 347742, Note_on_c, 0, 74, 0
3, 347773, Note_on_c, 0, 70, 0
3, 347775, Note_on_c, 0, 81, 0
3, 347898, Note_on_c, 0, 76, 0
3, 349737, Note_on_c, 0, 65, 0
3, 349903, Note_on_c, 0, 60, 0
3, 350010, Note_on_c, 0, 55, 0
3, 350035, Note_on_c, 0, 61, 0
3, 350272, Note_on_c, 0, 83, 82
3, 350274, Note_on_c, 0, 55, 70
3, 350278, Note_on_c, 0, 64, 77
3, 350279, Note_on_c, 0, 94, 51
3, 350281, Note_on_c, 0, 60, 53
3, 350285, Note_on_c, 0, 57, 71
3, 350286, Note_on_c, 0, 95, 80
3, 350436, Note_on_c, 0, 94, 0
3, 350524, Note_on_c, 0, 83, 0
3, 350559, Note_on_c, 0, 64, 0
3, 350578, Note_on_c, 0, 55, 0
3, 350580, Note_on_c, 0, 95, 0
3, 350630, Note_on_c, 0, 57, 0
3, 350642, Note_on_c, 0, 60, 0
3, 350848, Note_on_c, 0, 96, 83
3, 350853, Note_on_c, 0, 84, 87
3, 350858, Note_on_c, 0, 55, 71
3, 350860, Note_on_c, 0, 64, 77
3, 350867, Note_on_c, 0, 60, 32
3, 350899, Note_on_c, 0, 57, 60
3, 350913, Note_on_c, 0, 86, 34
3, 350983, Note_on_c, 0, 86, 0
3, 351214, Note_on_c, 0, 55, 0
3, 351216, Note_on_c, 0, 84, 0
3, 351230, Note_on_c, 0, 96, 0
3, 351249, Note_on_c, 0, 57, 0
3, 351254, Note_on_c, 0, 64, 0
3, 351320, Note_on_c, 0, 60, 0
3, 351460, Note_on_c, 0, 60, 63
3, 351469, Note_on_c, 0, 97, 88
3, 351485, Note_on_c, 0, 85, 69
3, 351487, Note_on_c, 0, 64, 71
3, 351488, Note_on_c, 0, 54, 73
3, 351501, Note_on_c, 0, 91, 61
3, 351877, Note_on_c, 0, 91, 0
3, 351958, Note_on_c, 0, 85, 0
3, 351973, Note_on_c, 0, 64, 0
3, 351993, Note_on_c, 0, 97, 0
3, 352023, Note_on_c, 0, 54, 0
3, 352043, Note_on_c, 0, 60, 0
3, 352117, Note_on_c, 0, 98, 66
3, 352118, Note_on_c, 0, 64, 60
3, 352127, Note_on_c, 0, 54, 58
3, 352136, Note_on_c, 0, 86, 40
3, 352147, Note_on_c, 0, 60, 60
3, 352154, Note_on_c, 0, 91, 47
3, 352208, Note_on_c, 0, 88, 24
3, 352266, Note_on_c, 0, 88, 0
3, 352328, Note_on_c, 0, 98, 0
3, 352347, Note_on_c, 0, 91, 0
3, 352353, Note_on_c, 0, 86, 0
3, 352398, Note_on_c, 0, 64, 0
3, 352467, Note_on_c, 0, 54, 0
3, 352481, Note_on_c, 0, 60, 0
3, 352671, Note_on_c, 0, 54, 43
3, 352673, Note_on_c, 0, 60, 30
3, 352682, Note_on_c, 0, 64, 53
3, 352683, Note_on_c, 0, 81, 60
3, 352691, Note_on_c, 0, 93, 51
3, 352898, Note_on_c, 0, 64, 0
3, 352902, Note_on_c, 0, 60, 0
3, 352916, Note_on_c, 0, 93, 0
3, 352930, Note_on_c, 0, 81, 0
3, 353074, Note_on_c, 0, 54, 0
3, 355212, Note_on_c, 0, 67, 75
3, 355218, Note_on_c, 0, 62, 77
3, 355220, Note_on_c, 0, 56, 52
3, 355226, Note_on_c, 0, 46, 69
3, 355359, Note_on_c, 0, 56, 0
3, 355441, Note_on_c, 0, 62, 0
3, 355445, Note_on_c, 0, 67, 0
3, 355679, Note_on_c, 0, 46, 0
3, 356821, Note_on_c, 0, 69, 68
3, 356842, Note_on_c, 0, 62, 76
3, 356851, Note_on_c, 0, 60, 59
3, 356853, Note_on_c, 0, 47, 61
3, 356869, Note_on_c, 0, 65, 55
3, 356992, Note_on_c, 0, 60, 0
3, 357011, Note_on_c, 0, 69, 0
3, 357018, Note_on_c, 0, 62, 0
3, 357082, Note_on_c, 0, 65, 0
3, 357131, Note_on_c, 0, 47, 0
3, 357436, Note_on_c, 0, 70, 60
3, 357437, Note_on_c, 0, 62, 63
3, 357458, Note_on_c, 0, 58, 35
3, 357466, Note_on_c, 0, 48, 50
3, 357478, Note_on_c, 0, 65, 40
3, 358002, Note_on_c, 0, 36, 57
3, 358025, Note_on_c, 0, 48, 0
3, 358087, Note_on_c, 0, 36, 0
3, 358560, Note_on_c, 0, 70, 0
3, 358564, Note_on_c, 0, 65, 0
3, 358590, Note_on_c, 0, 62, 0
3, 358655, Note_on_c, 0, 58, 0
3, 358907, Note_on_c, 0, 46, 28
3, 359018, Note_on_c, 0, 46, 0
3, 359201, Note_on_c, 0, 56, 39
3, 359204, Note_on_c, 0, 64, 45
3, 359213, Note_on_c, 0, 61, 38
3, 359240, Note_on_c, 0, 52, 28
3, 359771, Note_on_c, 0, 48, 74
3, 359792, Note_on_c, 0, 47, 58
3, 359854, Note_on_c, 0, 47, 0
3, 360044, Note_on_c, 0, 52, 0
3, 360142, Note_on_c, 0, 56, 0
3, 360648, Note_on_c, 0, 64, 0
3, 360713, Note_on_c, 0, 61, 0
3, 361020, Note_on_c, 0, 62, 84
3, 362674, Note_on_c, 0, 64, 69
3, 362749, Note_on_c, 0, 62, 0
3, 362997, Note_on_c, 0, 64, 0
3, 363103, Note_on_c, 0, 65, 50
3, 364074, Control_c, 0, 64, 127
3, 364132, Note_on_c, 0, 48, 0
3, 364197, Control_c, 0, 64, 0
3, 364526, Note_on_c, 0, 67, 71
3, 364550, Note_on_c, 0, 65, 0
3, 364766, Note_on_c, 0, 67, 0
3, 364885, Note_on_c, 0, 69, 58
3, 366306, Note_on_c, 0, 69, 0
3, 366390, Note_on_c, 0, 70, 67
3, 366709, Note_on_c, 0, 70, 0
3, 366772, Note_on_c, 0, 72, 49
3, 367309, Note_on_c, 0, 72, 0
3, 367348, Note_on_c, 0, 74, 58
3, 367622, Note_on_c, 0, 74, 0
3, 367760, Note_on_c, 0, 76, 57
3, 367927, Note_on_c, 0, 76, 0
3, 368316, Note_on_c, 0, 77, 49
3, 368325, Control_c, 0, 64, 127
3, 368571, Note_on_c, 0, 77, 0
3, 368624, Control_c, 0, 64, 0
3, 368742, Note_on_c, 0, 79, 50
3, 368756, Note_on_c, 0, 67, 37
3, 368761, Note_on_c, 0, 53, 19
3, 368770, Note_on_c, 0, 64, 24
3, 368774, Note_on_c, 0, 76, 39
3, 368793, Note_on_c, 0, 60, 24
3, 368977, Control_c, 0, 64, 127
3, 369185, Note_on_c, 0, 60, 0
3, 369231, Note_on_c, 0, 67, 0
3, 369285, Note_on_c, 0, 79, 0
3, 369400, Note_on_c, 0, 64, 0
3, 369479, Note_on_c, 0, 76, 0
3, 369560, Control_c, 0, 64, 0
3, 369641, Note_on_c, 0, 81, 58
3, 369646, Note_on_c, 0, 73, 32
3, 369654, Note_on_c, 0, 61, 30
3, 369655, Note_on_c, 0, 76, 44
3, 369659, Note_on_c, 0, 64, 37
3, 369671, Note_on_c, 0, 69, 41
3, 370009, Note_on_c, 0, 81, 0
3, 370018, Control_c, 0, 64, 127
3, 370048, Note_on_c, 0, 69, 0
3, 370138, Note_on_c, 0, 76, 0
3, 370201, Note_on_c, 0, 73, 0
3, 370225, Note_on_c, 0, 53, 0
3, 370257, Note_on_c, 0, 81, 62
3, 370266, Note_on_c, 0, 61, 0
3, 370275, Note_on_c, 0, 73, 19
3, 370296, Note_on_c, 0, 69, 33
3, 370398, Note_on_c, 0, 64, 0
3, 370410, Note_on_c, 0, 69, 0
3, 370430, Note_on_c, 0, 73, 0
3, 370630, Note_on_c, 0, 81, 0
3, 372064, Control_c, 0, 64, 0
3, 372066, Note_on_c, 0, 81, 75
3, 372098, Note_on_c, 0, 77, 61
3, 372110, Note_on_c, 0, 62, 71
3, 372117, Note_on_c, 0, 74, 64
3, 372135, Note_on_c, 0, 56, 60
3, 372156, Note_on_c, 0, 69, 63
3, 372357, Note_on_c, 0, 62, 0
3, 372401, Control_c, 0, 64, 127
3, 372418, Note_on_c, 0, 74, 0
3, 372440, Note_on_c, 0, 69, 0
3, 372478, Note_on_c, 0, 77, 0
3, 372517, Note_on_c, 0, 56, 0
3, 372659, Note_on_c, 0, 81, 0
3, 372755, Control_c, 0, 64, 0
3, 372760, Note_on_c, 0, 81, 36
3, 372799, Note_on_c, 0, 72, 57
3, 372802, Note_on_c, 0, 76, 71
3, 372811, Note_on_c, 0, 60, 38
3, 372814, Note_on_c, 0, 64, 54
3, 372825, Note_on_c, 0, 55, 47
3, 373071, Control_c, 0, 64, 127
3, 373261, Note_on_c, 0, 55, 0
3, 373265, Note_on_c, 0, 81, 0
3, 373267, Note_on_c, 0, 64, 0
3, 373270, Note_on_c, 0, 72, 0
3, 373295, Note_on_c, 0, 76, 0
3, 373298, Note_on_c, 0, 60, 0
3, 373335, Control_c, 0, 64, 0
3, 373425, Note_on_c, 0, 81, 52
3, 373428, Note_on_c, 0, 60, 48
3, 373434, Note_on_c, 0, 76, 67
3, 373436, Note_on_c, 0, 64, 47
3, 373450, Note_on_c, 0, 55, 51
3, 373453, Note_on_c, 0, 72, 41
3, 373529, Control_c, 0, 64, 127
3, 373679, Note_on_c, 0, 72, 0
3, 373694, Note_on_c, 0, 64, 0
3, 373719, Note_on_c, 0, 76, 0
3, 373728, Note_on_c, 0, 60, 0
3, 373742, Note_on_c, 0, 81, 0
3, 373772, Note_on_c, 0, 55, 0
3, 373956, Note_on_c, 0, 64, 62
3, 373966, Note_on_c, 0, 81, 69
3, 373967, Note_on_c, 0, 55, 53
3, 373974, Note_on_c, 0, 60, 38
3, 374171, Note_on_c, 0, 64, 0
3, 374208, Note_on_c, 0, 55, 0
3, 374270, Note_on_c, 0, 81, 0
3, 374318, Note_on_c, 0, 60, 0
3, 374412, Control_c, 0, 64, 0
3, 374479, Note_on_c, 0, 81, 51
3, 374483, Note_on_c, 0, 60, 43
3, 374492, Note_on_c, 0, 75, 53
3, 374499, Note_on_c, 0, 64, 58
3, 374509, Note_on_c, 0, 69, 51
3, 374516, Note_on_c, 0, 54, 44
3, 374659, Control_c, 0, 64, 127
3, 374875, Note_on_c, 0, 69, 0
3, 374990, Note_on_c, 0, 81, 0
3, 375171, Control_c, 0, 64, 0
3, 375312, Control_c, 0, 64, 127
3, 375410, Note_on_c, 0, 64, 0
3, 375467, Note_on_c, 0, 54, 0
3, 375511, Note_on_c, 0, 60, 0
3, 375513, Note_on_c, 0, 75, 0
3, 375658, Note_on_c, 0, 60, 57
3, 375674, Note_on_c, 0, 82, 59
3, 375681, Note_on_c, 0, 70, 56
3, 375695, Note_on_c, 0, 54, 37
3, 375701, Note_on_c, 0, 64, 41
3, 375775, Note_on_c, 0, 54, 0
3, 375777, Note_on_c, 0, 64, 0
3, 375778, Note_on_c, 0, 60, 0
3, 375798, Note_on_c, 0, 70, 0
3, 375799, Note_on_c, 0, 82, 0
3, 375938, Note_on_c, 0, 60, 58
3, 375940, Note_on_c, 0, 54, 31
3, 375949, Note_on_c, 0, 64, 63
3, 375974, Note_on_c, 0, 72, 73
3, 375975, Note_on_c, 0, 84, 78
3, 376105, Note_on_c, 0, 60, 0
3, 376120, Note_on_c, 0, 64, 0
3, 376122, Note_on_c, 0, 72, 0
3, 376173, Note_on_c, 0, 84, 0
3, 376193, Control_c, 0, 64, 0
3, 376206, Note_on_c, 0, 54, 0
3, 376299, Note_on_c, 0, 84, 71
3, 376311, Note_on_c, 0, 62, 79
3, 376317, Note_on_c, 0, 72, 62
3, 376318, Note_on_c, 0, 57, 68
3, 376323, Note_on_c, 0, 53, 69
3, 376325, Note_on_c, 0, 79, 66
3, 376340, Note_on_c, 0, 58, 53
3, 376495, Control_c, 0, 64, 127
3, 376755, Note_on_c, 0, 84, 0
3, 376759, Note_on_c, 0, 72, 0
3, 376803, Note_on_c, 0, 79, 0
3, 376804, Note_on_c, 0, 58, 0
3, 376826, Note_on_c, 0, 53, 0
3, 376827, Note_on_c, 0, 62, 0
3, 376838, Note_on_c, 0, 57, 0
3, 376987, Control_c, 0, 64, 0
3, 376994, Note_on_c, 0, 86, 73
3, 377003, Note_on_c, 0, 62, 68
3, 377008, Note_on_c, 0, 53, 46
3, 377014, Note_on_c, 0, 58, 52
3, 377019, Note_on_c, 0, 57, 47
3, 377023, Note_on_c, 0, 79, 56
3, 377040, Note_on_c, 0, 74, 50
3, 377271, Control_c, 0, 64, 127
3, 377443, Note_on_c, 0, 86, 0
3, 377550, Note_on_c, 0, 79, 0
3, 377623, Note_on_c, 0, 74, 0
3, 377800, Note_on_c, 0, 58, 0
3, 377955, Note_on_c, 0, 62, 0
3, 378008, Note_on_c, 0, 53, 0
3, 378258, Control_c, 0, 64, 0
3, 378281, Note_on_c, 0, 67, 49
3, 378292, Note_on_c, 0, 79, 33
3, 378297, Note_on_c, 0, 62, 58
3, 378300, Note_on_c, 0, 74, 46
3, 378494, Note_on_c, 0, 53, 11
3, 379305, Note_on_c, 0, 74, 0
3, 379333, Note_on_c, 0, 79, 0
3, 379434, Note_on_c, 0, 58, 1
3, 379515, Note_on_c, 0, 67, 0
3, 379684, Note_on_c, 0, 62, 0
3, 380134, Note_on_c, 0, 58, 0
3, 380148, Note_on_c, 0, 62, 45
3, 380150, Note_on_c, 0, 57, 0
3, 380152, Note_on_c, 0, 70, 39
3, 380164, Note_on_c, 0, 65, 49
3, 380166, Note_on_c, 0, 60, 36
3, 380217, Note_on_c, 0, 53, 0
3, 380289, Note_on_c, 0, 60, 0
3, 380296, Note_on_c, 0, 65, 0
3, 380319, Note_on_c, 0, 70, 0
3, 380321, Note_on_c, 0, 62, 0
3, 381124, Note_on_c, 0, 65, 53
3, 381125, Note_on_c, 0, 58, 39
3, 381129, Note_on_c, 0, 55, 57
3, 381131, Note_on_c, 0, 53, 51
3, 381167, Note_on_c, 0, 62, 49
3, 381855, Note_on_c, 0, 62, 0
3, 381889, Note_on_c, 0, 55, 0
3, 381915, Note_on_c, 0, 58, 0
3, 382035, Note_on_c, 0, 65, 0
3, 382111, Note_on_c, 0, 55, 39
3, 382121, Note_on_c, 0, 62, 34
3, 382155, Note_on_c, 0, 50, 25
3, 382174, Note_on_c, 0, 58, 25
3, 382222, Note_on_c, 0, 53, 0
3, 382600, Note_on_c, 0, 55, 0
3, 382609, Note_on_c, 0, 58, 0
3, 382665, Note_on_c, 0, 62, 0
3, 382746, Note_on_c, 0, 50, 0
3, 382771, Note_on_c, 0, 55, 60
3, 382772, Note_on_c, 0, 53, 36
3, 382788, Note_on_c, 0, 65, 49
3, 382800, Note_on_c, 0, 62, 32
3, 382802, Note_on_c, 0, 58, 39
3, 382922, Note_on_c, 0, 55, 0
3, 382996, Note_on_c, 0, 53, 0
3, 383035, Note_on_c, 0, 50, 30
3, 383082, Note_on_c, 0, 65, 0
3, 383109, Note_on_c, 0, 55, 30
3, 383365, Note_on_c, 0, 62, 0
3, 383492, Note_on_c, 0, 55, 0
3, 383494, Note_on_c, 0, 58, 0
3, 383732, Note_on_c, 0, 55, 60
3, 383733, Note_on_c, 0, 64, 48
3, 383756, Note_on_c, 0, 58, 44
3, 383770, Note_on_c, 0, 52, 48
3, 383798, Note_on_c, 0, 50, 0
3, 383844, Note_on_c, 0, 58, 0
3, 383858, Note_on_c, 0, 55, 0
3, 383897, Note_on_c, 0, 64, 0
3, 383906, Note_on_c, 0, 52, 0
3, 386011, Note_on_c, 0, 62, 57
3, 386016, Note_on_c, 0, 53, 34
3, 386020, Note_on_c, 0, 57, 33
3, 386032, Note_on_c, 0, 58, 25
3, 386036, Note_on_c, 0, 82, 74
3, 386051, Note_on_c, 0, 70, 68
3, 386544, Note_on_c, 0, 70, 0
3, 386548, Note_on_c, 0, 53, 0
3, 386565, Note_on_c, 0, 58, 0
3, 386567, Note_on_c, 0, 62, 0
3, 386572, Note_on_c, 0, 82, 0
3, 386604, Note_on_c, 0, 57, 0
3, 386678, Note_on_c, 0, 62, 58
3, 386683, Note_on_c, 0, 72, 63
3, 386687, Note_on_c, 0, 84, 69
3, 386701, Note_on_c, 0, 53, 53
3, 386708, Note_on_c, 0, 57, 43
3, 386723, Note_on_c, 0, 58, 44
3, 386743, Note_on_c, 0, 74, 36
3, 386816, Note_on_c, 0, 74, 0
3, 386893, Note_on_c, 0, 72, 0
3, 386921, Note_on_c, 0, 84, 0
3, 387012, Note_on_c, 0, 72, 42
3, 387017, Note_on_c, 0, 84, 44
3, 387466, Note_on_c, 0, 62, 0
3, 387473, Note_on_c, 0, 58, 0
3, 387477, Note_on_c, 0, 57, 0
3, 387500, Note_on_c, 0, 84, 0
3, 387514, Note_on_c, 0, 72, 0
3, 387517, Note_on_c, 0, 53, 0
3, 387917, Note_on_c, 0, 62, 68
3, 387933, Note_on_c, 0, 82, 57
3, 387942, Note_on_c, 0, 52, 54
3, 387947, Note_on_c, 0, 70, 51
3, 387973, Note_on_c, 0, 58, 27
3, 388401, Note_on_c, 0, 70, 0
3, 388409, Note_on_c, 0, 52, 0
3, 388445, Note_on_c, 0, 82, 0
3, 388463, Note_on_c, 0, 62, 0
3, 388478, Note_on_c, 0, 58, 0
3, 388571, Note_on_c, 0, 72, 73
3, 388573, Note_on_c, 0, 84, 75
3, 388591, Note_on_c, 0, 58, 61
3, 388593, Note_on_c, 0, 52, 65
3, 388594, Note_on_c, 0, 62, 72
3, 388623, Note_on_c, 0, 83, 48
3, 388691, Note_on_c, 0, 83, 0
3, 388793, Note_on_c, 0, 72, 0
3, 388807, Note_on_c, 0, 84, 0
3, 388899, Note_on_c, 0, 84, 49
3, 388909, Note_on_c, 0, 72, 54
3, 389336, Note_on_c, 0, 58, 0
3, 389394, Note_on_c, 0, 62, 0
3, 389397, Note_on_c, 0, 52, 0
3, 389527, Note_on_c, 0, 84, 0
3, 389547, Note_on_c, 0, 72, 0
3, 389786, Note_on_c, 0, 52, 60
3, 389800, Note_on_c, 0, 62, 57
3, 389816, Note_on_c, 0, 84, 50
3, 389818, Note_on_c, 0, 72, 49
3, 389833, Note_on_c, 0, 58, 38
3, 390173, Note_on_c, 0, 84, 0
3, 390189, Note_on_c, 0, 52, 0
3, 390226, Note_on_c, 0, 72, 0
3, 390281, Note_on_c, 0, 62, 0
3, 390321, Note_on_c, 0, 58, 0
3, 390441, Note_on_c, 0, 74, 57
3, 390444, Note_on_c, 0, 86, 64
3, 390449, Note_on_c, 0, 52, 48
3, 390478, Note_on_c, 0, 62, 37
3, 390502, Note_on_c, 0, 58, 28
3, 390523, Note_on_c, 0, 86, 0
3, 390543, Note_on_c, 0, 52, 0
3, 390571, Note_on_c, 0, 74, 0
3, 390574, Note_on_c, 0, 58, 0
3, 390606, Note_on_c, 0, 62, 0
3, 390717, Note_on_c, 0, 52, 36
3, 390726, Note_on_c, 0, 76, 62
3, 390740, Note_on_c, 0, 88, 57
3, 390747, Note_on_c, 0, 62, 32
3, 390764, Note_on_c, 0, 58, 30
3, 390985, Note_on_c, 0, 52, 0
3, 391029, Note_on_c, 0, 58, 0
3, 391055, Note_on_c, 0, 76, 0
3, 391127, Note_on_c, 0, 88, 0
3, 391229, Note_on_c, 0, 62, 0
3, 391690, Note_on_c, 0, 61, 31
3, 391694, Note_on_c, 0, 93, 61
3, 391697, Note_on_c, 0, 64, 37
3, 391722, Note_on_c, 0, 81, 38
3, 391764, Note_on_c, 0, 53, 17
3, 392143, Note_on_c, 0, 93, 0
3, 392146, Note_on_c, 0, 64, 0
3, 392155, Note_on_c, 0, 81, 0
3, 392180, Note_on_c, 0, 53, 0
3, 392227, Note_on_c, 0, 61, 0
3, 392365, Note_on_c, 0, 93, 51
3, 392370, Note_on_c, 0, 61, 31
3, 392378, Note_on_c, 0, 64, 34
3, 392389, Note_on_c, 0, 81, 39
3, 392431, Note_on_c, 0, 57, 24
3, 392532, Note_on_c, 0, 81, 0
3, 392562, Note_on_c, 0, 93, 0
3, 392574, Note_on_c, 0, 64, 0
3, 392637, Note_on_c, 0, 57, 0
3, 392678, Note_on_c, 0, 61, 0
3, 393667, Note_on_c, 0, 62, 37
3, 393672, Note_on_c, 0, 93, 40
3, 393675, Note_on_c, 0, 53, 25
3, 393699, Note_on_c, 0, 57, 49
3, 393700, Note_on_c, 0, 86, 48
3, 393704, Note_on_c, 0, 81, 29
3, 393908, Note_on_c, 0, 86, 0
3, 394008, Note_on_c, 0, 81, 0
3, 394015, Note_on_c, 0, 93, 0
3, 394132, Note_on_c, 0, 62, 0
3, 394220, Note_on_c, 0, 53, 0
3, 394220, Note_on_c, 0, 57, 0
3, 395516, Note_on_c, 0, 61, 33
3, 395523, Note_on_c, 0, 64, 35
3, 395531, Note_on_c, 0, 73, 28
3, 395539, Note_on_c, 0, 69, 42
3, 395550, Note_on_c, 0, 53, 24
3, 395582, Note_on_c, 0, 57, 30
3, 395925, Note_on_c, 0, 64, 0
3, 395965, Note_on_c, 0, 57, 0
3, 396009, Note_on_c, 0, 69, 0
3, 396011, Note_on_c, 0, 53, 0
3, 396027, Note_on_c, 0, 61, 0
3, 396051, Note_on_c, 0, 73, 0
3, 396185, Note_on_c, 0, 73, 39
3, 396203, Note_on_c, 0, 61, 43
3, 396206, Note_on_c, 0, 64, 51
3, 396215, Note_on_c, 0, 69, 45
3, 396331, Note_on_c, 0, 69, 0
3, 396368, Note_on_c, 0, 64, 0
3, 396376, Note_on_c, 0, 73, 0
3, 396504, Note_on_c, 0, 61, 0
3, 397440, Note_on_c, 0, 53, 19
3, 397451, Note_on_c, 0, 62, 30
3, 397463, Note_on_c, 0, 65, 39
3, 397465, Note_on_c, 0, 60, 30
3, 397481, Note_on_c, 0, 57, 32
3, 397502, Note_on_c, 0, 69, 41
3, 397639, Note_on_c, 0, 65, 0
3, 397644, Note_on_c, 0, 62, 0
3, 397676, Note_on_c, 0, 60, 0
3, 397722, Note_on_c, 0, 69, 0
3, 397746, Note_on_c, 0, 57, 0
3, 398150, Note_on_c, 0, 53, 0
3, 398416, Note_on_c, 0, 61, 48
3, 398417, Note_on_c, 0, 73, 59
3, 398420, Note_on_c, 0, 64, 58
3, 398422, Note_on_c, 0, 53, 56
3, 398426, Note_on_c, 0, 79, 69
3, 398428, Note_on_c, 0, 69, 80
3, 398442, Note_on_c, 0, 76, 58
3, 398943, Note_on_c, 0, 69, 0
3, 398947, Note_on_c, 0, 64, 0
3, 398999, Note_on_c, 0, 79, 0
3, 399024, Note_on_c, 0, 73, 0
3, 399028, Note_on_c, 0, 61, 0
3, 399035, Note_on_c, 0, 76, 0
3, 399121, Note_on_c, 0, 62, 67
3, 399123, Note_on_c, 0, 81, 71
3, 399126, Note_on_c, 0, 72, 70
3, 399137, Note_on_c, 0, 74, 55
3, 399149, Note_on_c, 0, 77, 54
3, 399286, Note_on_c, 0, 72, 0
3, 399297, Note_on_c, 0, 74, 0
3, 399350, Note_on_c, 0, 77, 0
3, 399353, Note_on_c, 0, 81, 0
3, 399383, Note_on_c, 0, 62, 0
3, 399439, Note_on_c, 0, 53, 0
3, 400378, Note_on_c, 0, 61, 51
3, 400402, Note_on_c, 0, 52, 36
3, 400418, Note_on_c, 0, 67, 46
3, 400423, Note_on_c, 0, 57, 32
3, 400833, Note_on_c, 0, 57, 0
3, 400874, Note_on_c, 0, 67, 0
3, 400969, Note_on_c, 0, 61, 0
3, 401061, Note_on_c, 0, 66, 57
3, 401062, Note_on_c, 0, 53, 63
3, 401075, Note_on_c, 0, 52, 0
3, 401135, Note_on_c, 0, 69, 45
3, 401154, Note_on_c, 0, 66, 0
3, 401191, Note_on_c, 0, 53, 0
3, 401217, Note_on_c, 0, 69, 0
3, 402317, Note_on_c, 0, 73, 74
3, 402321, Note_on_c, 0, 76, 83
3, 402322, Note_on_c, 0, 79, 77
3, 402328, Note_on_c, 0, 69, 94
3, 402347, Note_on_c, 0, 65, 81
3, 402398, Note_on_c, 0, 77, 28
3, 402752, Note_on_c, 0, 69, 0
3, 402859, Note_on_c, 0, 73, 0
3, 402887, Note_on_c, 0, 79, 0
3, 402905, Note_on_c, 0, 76, 0
3, 402910, Note_on_c, 0, 77, 0
3, 403026, Note_on_c, 0, 67, 80
3, 403030, Note_on_c, 0, 72, 77
3, 403032, Note_on_c, 0, 81, 73
3, 403035, Note_on_c, 0, 77, 61
3, 403039, Note_on_c, 0, 74, 63
3, 403081, Note_on_c, 0, 65, 0
3, 403132, Note_on_c, 0, 74, 0
3, 403146, Note_on_c, 0, 72, 0
3, 403155, Note_on_c, 0, 67, 0
3, 403211, Note_on_c, 0, 77, 0
3, 403222, Note_on_c, 0, 81, 0
3, 404906, Note_on_c, 0, 52, 51
3, 405262, Note_on_c, 0, 52, 0
3, 405316, Note_on_c, 0, 67, 48
3, 405332, Note_on_c, 0, 57, 36
3, 405345, Note_on_c, 0, 60, 25
3, 405346, Note_on_c, 0, 53, 40
3, 405753, Note_on_c, 0, 60, 0
3, 405756, Note_on_c, 0, 57, 0
3, 405820, Note_on_c, 0, 67, 0
3, 405846, Note_on_c, 0, 53, 0
3, 406087, Note_on_c, 0, 51, 38
3, 406624, Note_on_c, 0, 51, 0
3, 406726, Note_on_c, 0, 52, 43
3, 406740, Note_on_c, 0, 58, 30
3, 406758, Note_on_c, 0, 69, 36
3, 406766, Note_on_c, 0, 62, 43
3, 406798, Note_on_c, 0, 64, 32
3, 407532, Note_on_c, 0, 69, 0
3, 407698, Note_on_c, 0, 64, 0
3, 407708, Note_on_c, 0, 62, 0
3, 407729, Note_on_c, 0, 40, 31
3, 407741, Note_on_c, 0, 58, 0
3, 408572, Note_on_c, 0, 55, 52
3, 408671, Note_on_c, 0, 55, 0
3, 408813, Note_on_c, 0, 57, 46
3, 408931, Note_on_c, 0, 57, 0
3, 408970, Note_on_c, 0, 40, 0
3, 408974, Note_on_c, 0, 58, 48
3, 408988, Note_on_c, 0, 52, 0
3, 409068, Note_on_c, 0, 58, 0
3, 409141, Note_on_c, 0, 60, 56
3, 409264, Note_on_c, 0, 60, 0
3, 409437, Note_on_c, 0, 63, 53
3, 409549, Note_on_c, 0, 63, 0
3, 409598, Note_on_c, 0, 64, 61
3, 409739, Note_on_c, 0, 64, 0
3, 409767, Note_on_c, 0, 66, 59
3, 409845, Note_on_c, 0, 66, 0
3, 409945, Note_on_c, 0, 67, 57
3, 410063, Note_on_c, 0, 67, 0
3, 410097, Note_on_c, 0, 69, 44
3, 410191, Note_on_c, 0, 69, 0
3, 410223, Note_on_c, 0, 70, 55
3, 410283, Note_on_c, 0, 70, 0
3, 410387, Note_on_c, 0, 72, 58
3, 410519, Note_on_c, 0, 72, 0
3, 410522, Note_on_c, 0, 73, 36
3, 410652, Note_on_c, 0, 75, 39
3, 410667, Note_on_c, 0, 73, 0
3, 410811, Note_on_c, 0, 76, 61
3, 410830, Note_on_c, 0, 75, 0
3, 410952, Note_on_c, 0, 76, 0
3, 411010, Note_on_c, 0, 79, 68
3, 411040, Note_on_c, 0, 66, 47
3, 411057, Note_on_c, 0, 61, 45
3, 411087, Note_on_c, 0, 55, 42
3, 411177, Note_on_c, 0, 79, 0
3, 411318, Note_on_c, 0, 77, 57
3, 411473, Note_on_c, 0, 77, 0
3, 411663, Note_on_c, 0, 76, 60
3, 411784, Note_on_c, 0, 76, 0
3, 412008, Note_on_c, 0, 73, 55
3, 412154, Note_on_c, 0, 66, 0
3, 412182, Note_on_c, 0, 73, 0
3, 412277, Note_on_c, 0, 55, 0
3, 412441, Note_on_c, 0, 61, 0
3, 412613, Note_on_c, 0, 72, 69
3, 412629, Note_on_c, 0, 61, 33
3, 412639, Note_on_c, 0, 65, 51
3, 412654, Note_on_c, 0, 55, 43
3, 412750, Note_on_c, 0, 72, 0
3, 412798, Note_on_c, 0, 65, 0
3, 412955, Note_on_c, 0, 70, 64
3, 413123, Note_on_c, 0, 70, 0
3, 413219, Note_on_c, 0, 72, 51
3, 413356, Note_on_c, 0, 70, 46
3, 413407, Note_on_c, 0, 61, 0
3, 413414, Note_on_c, 0, 72, 0
3, 413555, Note_on_c, 0, 70, 0
3, 413583, Note_on_c, 0, 69, 57
3, 413720, Note_on_c, 0, 61, 40
3, 413750, Note_on_c, 0, 69, 0
3, 413872, Note_on_c, 0, 67, 64
3, 413915, Note_on_c, 0, 61, 0
3, 414005, Note_on_c, 0, 55, 0
3, 414445, Note_on_c, 0, 67, 0
3, 414484, Note_on_c, 0, 65, 57
3, 414683, Note_on_c, 0, 50, 25
3, 414709, Note_on_c, 0, 60, 22
3, 414711, Note_on_c, 0, 57, 27
3, 414748, Note_on_c, 0, 65, 0
3, 414849, Note_on_c, 0, 64, 34
3, 415059, Note_on_c, 0, 64, 0
3, 415163, Note_on_c, 0, 67, 62
3, 415225, Note_on_c, 0, 60, 0
3, 415302, Note_on_c, 0, 57, 0
3, 415422, Note_on_c, 0, 67, 0
3, 415489, Note_on_c, 0, 64, 67
3, 415568, Note_on_c, 0, 57, 35
3, 415739, Note_on_c, 0, 64, 0
3, 415794, Note_on_c, 0, 57, 0
3, 415862, Note_on_c, 0, 65, 63
3, 415978, Note_on_c, 0, 50, 0
3, 416079, Note_on_c, 0, 65, 0
3, 416195, Note_on_c, 0, 62, 35
3, 416540, Note_on_c, 0, 62, 0
3, 416804, Note_on_c, 0, 62, 44
3, 417383, Note_on_c, 0, 62, 0
3, 417464, Note_on_c, 0, 61, 54
3, 417492, Note_on_c, 0, 57, 48
3, 417522, Note_on_c, 0, 50, 18
3, 417875, Note_on_c, 0, 64, 24
3, 417937, Note_on_c, 0, 64, 0
3, 418134, Note_on_c, 0, 69, 54
3, 418213, Note_on_c, 0, 69, 0
3, 418289, Note_on_c, 0, 50, 0
3, 418337, Note_on_c, 0, 73, 59
3, 418367, Note_on_c, 0, 61, 0
3, 418490, Note_on_c, 0, 57, 0
3, 418535, Note_on_c, 0, 73, 0
3, 418620, Note_on_c, 0, 76, 80
3, 418740, Note_on_c, 0, 50, 38
3, 418749, Note_on_c, 0, 60, 32
3, 418750, Note_on_c, 0, 57, 32
3, 418770, Note_on_c, 0, 76, 0
3, 418877, Note_on_c, 0, 77, 74
3, 418882, Note_on_c, 0, 79, 77
3, 419122, Note_on_c, 0, 79, 0
3, 419166, Note_on_c, 0, 77, 0
3, 419338, Note_on_c, 0, 76, 80
3, 419641, Note_on_c, 0, 76, 0
3, 419780, Note_on_c, 0, 77, 75
3, 419951, Note_on_c, 0, 57, 0
3, 419989, Note_on_c, 0, 50, 0
3, 420142, Note_on_c, 0, 60, 0
3, 420211, Note_on_c, 0, 77, 0
3, 420273, Note_on_c, 0, 74, 70
3, 420519, Note_on_c, 0, 74, 0
3, 420593, Note_on_c, 0, 64, 24
3, 420628, Note_on_c, 0, 59, 45
3, 420649, Note_on_c, 0, 53, 24
3, 420674, Note_on_c, 0, 71, 46
3, 421095, Note_on_c, 0, 71, 0
3, 421248, Note_on_c, 0, 71, 57
3, 421336, Note_on_c, 0, 71, 0
3, 421591, Note_on_c, 0, 64, 0
3, 421600, Note_on_c, 0, 59, 0
3, 421918, Note_on_c, 0, 53, 0
3, 422135, Note_on_c, 0, 62, 67
3, 422165, Note_on_c, 0, 58, 31
3, 422239, Note_on_c, 0, 62, 0
3, 422268, Note_on_c, 0, 58, 0
3, 422483, Note_on_c, 0, 69, 44
3, 422694, Note_on_c, 0, 69, 0
3, 422765, Note_on_c, 0, 70, 52
3, 422855, Note_on_c, 0, 70, 0
3, 423083, Note_on_c, 0, 74, 59
3, 423219, Note_on_c, 0, 74, 0
3, 423404, Note_on_c, 0, 78, 59
3, 423552, Note_on_c, 0, 78, 0
3, 423691, Note_on_c, 0, 81, 75
3, 423886, Note_on_c, 0, 81, 0
3, 424018, Note_on_c, 0, 78, 64
3, 424154, Note_on_c, 0, 78, 0
3, 424328, Note_on_c, 0, 79, 45
3, 424460, Note_on_c, 0, 79, 0
3, 424648, Note_on_c, 0, 81, 40
3, 424808, Note_on_c, 0, 81, 0
3, 424961, Note_on_c, 0, 82, 53
3, 425088, Note_on_c, 0, 82, 0
3, 425252, Note_on_c, 0, 54, 29
3, 425269, Note_on_c, 0, 62, 30
3, 425338, Note_on_c, 0, 62, 0
3, 425382, Note_on_c, 0, 86, 22
3, 425405, Note_on_c, 0, 54, 0
3, 425440, Note_on_c, 0, 86, 0
3, 425591, Note_on_c, 0, 90, 59
3, 425745, Note_on_c, 0, 90, 0
3, 425917, Note_on_c, 0, 93, 91
3, 426155, Note_on_c, 0, 93, 0
3, 426251, Note_on_c, 0, 62, 72
3, 426260, Note_on_c, 0, 96, 83
3, 426262, Note_on_c, 0, 58, 49
3, 426269, Note_on_c, 0, 57, 54
3, 426278, Note_on_c, 0, 84, 75
3, 426985, Note_on_c, 0, 96, 0
3, 427003, Note_on_c, 0, 62, 0
3, 427008, Note_on_c, 0, 58, 0
3, 427049, Note_on_c, 0, 84, 0
3, 427156, Note_on_c, 0, 57, 0
3, 427269, Note_on_c, 0, 62, 59
3, 427293, Note_on_c, 0, 95, 62
3, 427299, Note_on_c, 0, 83, 56
3, 427316, Note_on_c, 0, 57, 8
3, 427322, Note_on_c, 0, 58, 33
3, 427668, Note_on_c, 0, 95, 0
3, 427702, Note_on_c, 0, 62, 0
3, 427746, Note_on_c, 0, 57, 0
3, 427769, Note_on_c, 0, 83, 0
3, 427825, Note_on_c, 0, 58, 0
3, 428005, Note_on_c, 0, 94, 65
3, 428006, Note_on_c, 0, 82, 61
3, 428029, Note_on_c, 0, 62, 54
3, 428045, Note_on_c, 0, 52, 44
3, 428050, Note_on_c, 0, 58, 28
3, 428652, Note_on_c, 0, 58, 0
3, 428738, Note_on_c, 0, 62, 0
3, 428851, Note_on_c, 0, 94, 0
3, 428925, Note_on_c, 0, 82, 0
3, 429113, Note_on_c, 0, 58, 18
3, 429300, Note_on_c, 0, 92, 69
3, 429307, Note_on_c, 0, 58, 0
3, 429314, Note_on_c, 0, 52, 0
3, 429319, Note_on_c, 0, 62, 63
3, 429323, Note_on_c, 0, 80, 53
3, 429565, Note_on_c, 0, 62, 0
3, 429682, Note_on_c, 0, 92, 0
3, 429815, Note_on_c, 0, 80, 0
3, 429951, Note_on_c, 0, 89, 66
3, 429965, Note_on_c, 0, 77, 51
3, 429977, Note_on_c, 0, 63, 45
3, 429990, Note_on_c, 0, 57, 38
3, 429997, Note_on_c, 0, 67, 37
3, 430722, Note_on_c, 0, 57, 0
3, 430760, Note_on_c, 0, 77, 0
3, 430814, Note_on_c, 0, 89, 0
3, 430899, Note_on_c, 0, 67, 0
3, 430903, Note_on_c, 0, 57, 26
3, 431137, Note_on_c, 0, 67, 57
3, 431144, Note_on_c, 0, 92, 86
3, 431155, Note_on_c, 0, 80, 72
3, 431202, Note_on_c, 0, 82, 37
3, 431260, Note_on_c, 0, 82, 0
3, 431507, Note_on_c, 0, 67, 0
3, 431510, Note_on_c, 0, 57, 0
3, 431542, Note_on_c, 0, 92, 0
3, 431627, Note_on_c, 0, 80, 0
3, 431670, Note_on_c, 0, 63, 0
3, 431781, Note_on_c, 0, 89, 59
3, 431799, Note_on_c, 0, 77, 57
3, 431803, Note_on_c, 0, 67, 65
3, 431811, Note_on_c, 0, 62, 60
3, 431836, Note_on_c, 0, 56, 38
3, 432433, Note_on_c, 0, 62, 0
3, 432556, Note_on_c, 0, 56, 0
3, 432578, Note_on_c, 0, 77, 0
3, 432639, Note_on_c, 0, 89, 0
3, 432714, Note_on_c, 0, 62, 33
3, 432765, Note_on_c, 0, 67, 0
3, 432920, Note_on_c, 0, 62, 0
3, 433011, Note_on_c, 0, 92, 76
3, 433017, Note_on_c, 0, 62, 37
3, 433021, Note_on_c, 0, 82, 68
3, 433024, Note_on_c, 0, 56, 58
3, 433026, Note_on_c, 0, 67, 66
3, 433080, Note_on_c, 0, 93, 43
3, 433145, Note_on_c, 0, 93, 0
3, 433311, Note_on_c, 0, 67, 0
3, 433332, Note_on_c, 0, 62, 0
3, 433427, Note_on_c, 0, 82, 0
3, 433434, Note_on_c, 0, 92, 0
3, 433496, Note_on_c, 0, 56, 0
3, 433652, Note_on_c, 0, 64, 53
3, 433654, Note_on_c, 0, 89, 58
3, 433672, Note_on_c, 0, 57, 49
3, 433680, Note_on_c, 0, 55, 46
3, 433698, Note_on_c, 0, 77, 47
3, 433708, Note_on_c, 0, 60, 43
3, 434236, Note_on_c, 0, 60, 0
3, 434319, Note_on_c, 0, 57, 0
3, 434321, Note_on_c, 0, 55, 0
3, 434478, Note_on_c, 0, 77, 0
3, 434479, Note_on_c, 0, 64, 0
3, 434481, Note_on_c, 0, 89, 0
3, 434622, Note_on_c, 0, 57, 47
3, 434705, Note_on_c, 0, 57, 0
3, 434891, Note_on_c, 0, 92, 77
3, 434904, Note_on_c, 0, 60, 30
3, 434907, Note_on_c, 0, 64, 68
3, 434909, Note_on_c, 0, 80, 65
3, 434925, Note_on_c, 0, 55, 53
3, 434981, Note_on_c, 0, 57, 25
3, 435108, Note_on_c, 0, 55, 0
3, 435132, Control_c, 0, 64, 127
3, 435150, Note_on_c, 0, 64, 0
3, 435189, Note_on_c, 0, 57, 0
3, 435206, Note_on_c, 0, 92, 0
3, 435220, Note_on_c, 0, 60, 0
3, 435266, Note_on_c, 0, 80, 0
3, 435451, Control_c, 0, 64, 0
3, 435514, Note_on_c, 0, 89, 58
3, 435526, Note_on_c, 0, 77, 49
3, 435530, Note_on_c, 0, 54, 49
3, 435532, Note_on_c, 0, 60, 48
3, 435537, Note_on_c, 0, 65, 65
3, 435908, Control_c, 0, 64, 127
3, 436104, Note_on_c, 0, 60, 0
3, 436185, Note_on_c, 0, 65, 0
3, 436262, Note_on_c, 0, 54, 0
3, 436487, Note_on_c, 0, 89, 0
3, 436503, Note_on_c, 0, 54, 50
3, 436505, Note_on_c, 0, 65, 64
3, 436507, Note_on_c, 0, 60, 43
3, 436562, Control_c, 0, 64, 0
3, 436642, Note_on_c, 0, 77, 0
3, 436775, Control_c, 0, 64, 127
3, 436887, Note_on_c, 0, 60, 0
3, 436889, Note_on_c, 0, 65, 0
3, 437163, Note_on_c, 0, 54, 0
3, 437408, Control_c, 0, 64, 0
3, 437447, Note_on_c, 0, 62, 62
3, 437472, Note_on_c, 0, 53, 36
3, 437473, Note_on_c, 0, 79, 101
3, 437477, Note_on_c, 0, 58, 33
3, 437486, Note_on_c, 0, 57, 36
3, 437487, Note_on_c, 0, 86, 87
3, 437832, Note_on_c, 0, 79, 0
3, 437952, Note_on_c, 0, 80, 37
3, 438006, Note_on_c, 0, 58, 0
3, 438124, Note_on_c, 0, 80, 0
3, 438130, Note_on_c, 0, 86, 0
3, 438142, Note_on_c, 0, 79, 47
3, 438197, Note_on_c, 0, 62, 0
3, 438386, Note_on_c, 0, 79, 0
3, 438388, Note_on_c, 0, 77, 51
3, 438515, Note_on_c, 0, 58, 33
3, 438643, Note_on_c, 0, 62, 29
3, 438647, Note_on_c, 0, 77, 0
3, 438689, Note_on_c, 0, 74, 45
3, 438865, Note_on_c, 0, 74, 0
3, 438999, Note_on_c, 0, 58, 0
3, 439052, Note_on_c, 0, 79, 48
3, 439073, Note_on_c, 0, 62, 0
3, 439450, Note_on_c, 0, 79, 0
3, 439543, Note_on_c, 0, 77, 74
3, 439833, Note_on_c, 0, 77, 0
3, 439923, Note_on_c, 0, 57, 0
3, 439971, Note_on_c, 0, 53, 0
3, 439981, Note_on_c, 0, 74, 42
3, 440376, Note_on_c, 0, 74, 0
3, 440414, Note_on_c, 0, 70, 58
3, 440687, Note_on_c, 0, 70, 0
3, 440808, Note_on_c, 0, 69, 42
3, 441176, Note_on_c, 0, 69, 0
3, 441320, Note_on_c, 0, 72, 62
3, 441370, Note_on_c, 0, 62, 41
3, 441449, Note_on_c, 0, 62, 0
3, 441560, Note_on_c, 0, 72, 0
3, 441655, Note_on_c, 0, 70, 52
3, 442273, Note_on_c, 0, 62, 47
3, 442975, Note_on_c, 0, 62, 0
3, 443072, Note_on_c, 0, 70, 0
3, 443169, Note_on_c, 0, 52, 47
3, 443184, Note_on_c, 0, 58, 33
3, 443186, Note_on_c, 0, 62, 34
3, 443869, Note_on_c, 0, 58, 0
3, 443899, Note_on_c, 0, 62, 0
3, 444158, Note_on_c, 0, 62, 45
3, 444238, Note_on_c, 0, 58, 15
3, 444286, Note_on_c, 0, 62, 0
3, 444448, Note_on_c, 0, 96, 80
3, 444487, Note_on_c, 0, 52, 0
3, 444664, Note_on_c, 0, 96, 0
3, 444675, Note_on_c, 0, 58, 0
3, 444747, Note_on_c, 0, 93, 69
3, 444881, Note_on_c, 0, 93, 0
3, 445013, Note_on_c, 0, 94, 72
3, 445131, Note_on_c, 0, 62, 47
3, 445147, Note_on_c, 0, 57, 29
3, 445154, Note_on_c, 0, 53, 24
3, 445261, Note_on_c, 0, 91, 55
3, 445317, Note_on_c, 0, 94, 0
3, 445462, Note_on_c, 0, 91, 0
3, 445536, Note_on_c, 0, 88, 46
3, 445638, Note_on_c, 0, 88, 0
3, 445812, Note_on_c, 0, 86, 51
3, 445837, Note_on_c, 0, 62, 0
3, 446011, Note_on_c, 0, 86, 0
3, 446518, Note_on_c, 0, 57, 0
3, 446669, Note_on_c, 0, 53, 0
3, 446986, Note_on_c, 0, 62, 61
3, 447027, Note_on_c, 0, 57, 30
3, 447053, Note_on_c, 0, 58, 26
3, 447130, Note_on_c, 0, 57, 0
3, 447167, Note_on_c, 0, 62, 0
3, 447217, Note_on_c, 0, 58, 0
3, 447294, Note_on_c, 0, 84, 81
3, 447461, Note_on_c, 0, 84, 0
3, 447581, Note_on_c, 0, 81, 37
3, 447669, Note_on_c, 0, 81, 0
3, 447783, Note_on_c, 0, 82, 61
3, 448000, Note_on_c, 0, 79, 53
3, 448060, Note_on_c, 0, 62, 31
3, 448063, Note_on_c, 0, 82, 0
3, 448149, Note_on_c, 0, 79, 0
3, 448153, Note_on_c, 0, 62, 0
3, 448223, Note_on_c, 0, 76, 51
3, 448347, Note_on_c, 0, 76, 0
3, 448475, Note_on_c, 0, 74, 53
3, 448639, Note_on_c, 0, 74, 0
3, 448697, Note_on_c, 0, 72, 37
3, 448855, Note_on_c, 0, 72, 0
3, 449078, Note_on_c, 0, 69, 58
3, 449145, Note_on_c, 0, 69, 0
3, 449293, Note_on_c, 0, 70, 64
3, 449499, Note_on_c, 0, 70, 0
3, 449617, Note_on_c, 0, 65, 43
3, 449851, Note_on_c, 0, 65, 0
3, 450964, Note_on_c, 0, 63, 92
3, 450972, Note_on_c, 0, 52, 50
3, 450979, Note_on_c, 0, 64, 92
3, 451097, Note_on_c, 0, 63, 0
3, 451148, Note_on_c, 0, 52, 0
3, 451282, Note_on_c, 0, 64, 0
3, 451435, Note_on_c, 0, 62, 77
3, 451743, Note_on_c, 0, 62, 0
3, 451858, Note_on_c, 0, 60, 77
3, 452076, Note_on_c, 0, 60, 0
3, 452261, Note_on_c, 0, 58, 42
3, 452651, Note_on_c, 0, 58, 0
3, 452753, Note_on_c, 0, 55, 45
3, 452760, Note_on_c, 0, 50, 30
3, 452843, Note_on_c, 0, 50, 0
3, 452945, Note_on_c, 0, 55, 0
3, 453104, Note_on_c, 0, 56, 52
3, 453561, Note_on_c, 0, 56, 0
3, 453771, Note_on_c, 0, 57, 55
3, 453776, Note_on_c, 0, 48, 37
3, 453790, Note_on_c, 0, 41, 32
3, 453908, Note_on_c, 0, 48, 0
3, 453961, Note_on_c, 0, 41, 0
3, 453992, Note_on_c, 0, 57, 0
3, 454172, Note_on_c, 0, 60, 24
3, 454649, Note_on_c, 0, 60, 0
3, 454739, Note_on_c, 0, 61, 55
3, 455005, Note_on_c, 0, 61, 0
3, 455105, Note_on_c, 0, 60, 36
3, 455890, Note_on_c, 0, 48, 31
3, 455958, Note_on_c, 0, 48, 0
3, 456757, Note_on_c, 0, 50, 32
3, 456773, Note_on_c, 0, 48, 35
3, 456824, Note_on_c, 0, 50, 0
3, 456842, Note_on_c, 0, 48, 0
3, 456891, Note_on_c, 0, 60, 0
3, 456998, Note_on_c, 0, 57, 57
3, 457526, Note_on_c, 0, 57, 0
3, 457627, Note_on_c, 0, 48, 51
3, 457655, Note_on_c, 0, 60, 40
3, 457806, Note_on_c, 0, 48, 0
3, 457808, Note_on_c, 0, 60, 0
3, 457931, Note_on_c, 0, 49, 75
3, 457942, Note_on_c, 0, 61, 85
3, 457996, Note_on_c, 0, 60, 26
3, 458056, Note_on_c, 0, 60, 0
3, 458528, Note_on_c, 0, 49, 0
3, 458549, Note_on_c, 0, 61, 0
3, 458567, Note_on_c, 0, 62, 68
3, 458598, Note_on_c, 0, 50, 41
3, 458834, Note_on_c, 0, 62, 0
3, 458843, Note_on_c, 0, 50, 0
3, 458890, Note_on_c, 0, 48, 46
3, 458912, Note_on_c, 0, 60, 44
3, 459494, Note_on_c, 0, 60, 0
3, 459514, Note_on_c, 0, 48, 0
3, 459523, Note_on_c, 0, 57, 66
3, 459540, Note_on_c, 0, 45, 55
3, 459660, Note_on_c, 0, 57, 0
3, 459848, Note_on_c, 0, 53, 37
3, 460309, Note_on_c, 0, 53, 0
3, 460413, Note_on_c, 0, 45, 0
3, 460474, Note_on_c, 0, 41, 27
3, 460658, Note_on_c, 0, 41, 0
3, 460783, Note_on_c, 0, 64, 41
3, 460784, Note_on_c, 0, 52, 63
3, 460786, Note_on_c, 0, 67, 59
3, 460790, Note_on_c, 0, 61, 51
3, 460800, Note_on_c, 0, 57, 42
3, 461275, Note_on_c, 0, 57, 0
3, 461379, Note_on_c, 0, 48, 20
3, 461381, Note_on_c, 0, 52, 0
3, 461411, Note_on_c, 0, 67, 0
3, 461481, Note_on_c, 0, 50, 24
3, 461541, Note_on_c, 0, 64, 0
3, 461594, Note_on_c, 0, 61, 0
3, 461638, Note_on_c, 0, 48, 0
3, 461766, Note_on_c, 0, 52, 54
3, 461768, Note_on_c, 0, 53, 58
3, 461775, Note_on_c, 0, 60, 51
3, 461779, Note_on_c, 0, 69, 66
3, 461793, Note_on_c, 0, 65, 53
3, 461809, Note_on_c, 0, 62, 51
3, 461833, Note_on_c, 0, 50, 0
3, 461854, Note_on_c, 0, 52, 0
3, 462295, Note_on_c, 0, 69, 0
3, 462323, Note_on_c, 0, 60, 0
3, 462344, Note_on_c, 0, 62, 0
3, 462354, Note_on_c, 0, 65, 0
3, 462368, Note_on_c, 0, 53, 0
3, 462458, Note_on_c, 0, 60, 48
3, 462483, Note_on_c, 0, 62, 57
3, 462484, Note_on_c, 0, 69, 51
3, 462499, Note_on_c, 0, 65, 62
3, 462521, Note_on_c, 0, 53, 57
3, 462757, Note_on_c, 0, 60, 0
3, 462764, Note_on_c, 0, 69, 0
3, 462799, Note_on_c, 0, 62, 0
3, 462809, Note_on_c, 0, 53, 0
3, 462824, Note_on_c, 0, 65, 0
3, 462965, Note_on_c, 0, 60, 29
3, 462972, Note_on_c, 0, 69, 54
3, 462995, Note_on_c, 0, 62, 40
3, 463000, Note_on_c, 0, 65, 54
3, 463021, Note_on_c, 0, 53, 32
3, 463311, Note_on_c, 0, 53, 0
3, 463336, Note_on_c, 0, 62, 0
3, 463350, Note_on_c, 0, 60, 0
3, 463380, Note_on_c, 0, 65, 0
3, 463391, Note_on_c, 0, 69, 0
3, 463668, Note_on_c, 0, 62, 56
3, 463672, Note_on_c, 0, 69, 47
3, 463678, Note_on_c, 0, 53, 37
3, 463687, Note_on_c, 0, 60, 26
3, 463714, Note_on_c, 0, 65, 36
3, 463759, Note_on_c, 0, 60, 0
3, 463764, Note_on_c, 0, 53, 0
3, 463794, Control_c, 0, 64, 127
3, 463827, Note_on_c, 0, 62, 0
3, 463831, Note_on_c, 0, 65, 0
3, 463921, Note_on_c, 0, 69, 0
3, 464371, Note_on_c, 0, 64, 66
3, 464401, Note_on_c, 0, 60, 30
3, 464410, Control_c, 0, 64, 0
3, 464433, Note_on_c, 0, 64, 0
3, 464436, Note_on_c, 0, 57, 33
3, 464508, Note_on_c, 0, 60, 0
3, 464554, Note_on_c, 0, 57, 0
3, 464676, Control_c, 0, 64, 127
3, 465322, Note_on_c, 0, 60, 58
3, 465325, Note_on_c, 0, 87, 84
3, 465329, Control_c, 0, 64, 0
3, 465332, Note_on_c, 0, 93, 89
3, 465336, Note_on_c, 0, 81, 80
3, 465337, Note_on_c, 0, 64, 78
3, 465345, Note_on_c, 0, 53, 59
3, 465368, Note_on_c, 0, 57, 56
3, 465378, Note_on_c, 0, 90, 30
3, 465439, Note_on_c, 0, 90, 0
3, 465505, Note_on_c, 0, 88, 54
3, 465506, Note_on_c, 0, 87, 0
3, 465691, Note_on_c, 0, 53, 0
3, 465707, Note_on_c, 0, 64, 0
3, 465709, Note_on_c, 0, 88, 0
3, 465710, Note_on_c, 0, 81, 0
3, 465749, Note_on_c, 0, 93, 0
3, 465762, Note_on_c, 0, 60, 0
3, 465763, Note_on_c, 0, 57, 0
3, 465929, Note_on_c, 0, 93, 71
3, 465934, Note_on_c, 0, 60, 48
3, 465939, Note_on_c, 0, 81, 67
3, 465945, Note_on_c, 0, 87, 70
3, 465946, Note_on_c, 0, 53, 73
3, 465955, Note_on_c, 0, 64, 76
3, 465957, Note_on_c, 0, 57, 50
3, 466052, Control_c, 0, 64, 127
3, 466173, Note_on_c, 0, 88, 48
3, 466260, Note_on_c, 0, 87, 0
3, 466291, Note_on_c, 0, 88, 0
3, 466355, Note_on_c, 0, 81, 0
3, 466379, Note_on_c, 0, 53, 0
3, 466381, Note_on_c, 0, 64, 0
3, 466395, Note_on_c, 0, 93, 0
3, 466422, Note_on_c, 0, 57, 0
3, 466443, Note_on_c, 0, 60, 0
3, 466476, Control_c, 0, 64, 0
3, 466636, Note_on_c, 0, 93, 65
3, 466638, Note_on_c, 0, 81, 55
3, 466640, Note_on_c, 0, 87, 57
3, 466647, Note_on_c, 0, 60, 32
3, 466656, Note_on_c, 0, 64, 69
3, 466663, Note_on_c, 0, 53, 60
3, 466675, Note_on_c, 0, 57, 54
3, 466740, Control_c, 0, 64, 127
3, 466886, Note_on_c, 0, 88, 33
3, 466921, Note_on_c, 0, 64, 0
3, 466950, Note_on_c, 0, 87, 0
3, 466974, Note_on_c, 0, 57, 0
3, 466983, Note_on_c, 0, 88, 0
3, 466992, Note_on_c, 0, 60, 0
3, 467004, Note_on_c, 0, 53, 0
3, 467029, Note_on_c, 0, 93, 0
3, 467060, Note_on_c, 0, 81, 0
3, 467270, Control_c, 0, 64, 0
3, 467302, Note_on_c, 0, 91, 54
3, 467305, Note_on_c, 0, 60, 41
3, 467312, Note_on_c, 0, 64, 60
3, 467316, Note_on_c, 0, 79, 51
3, 467323, Note_on_c, 0, 53, 45
3, 467328, Note_on_c, 0, 86, 66
3, 467330, Note_on_c, 0, 57, 49
3, 467419, Note_on_c, 0, 64, 0
3, 467464, Note_on_c, 0, 60, 0
3, 467516, Note_on_c, 0, 53, 0
3, 467518, Note_on_c, 0, 86, 0
3, 467520, Note_on_c, 0, 57, 0
3, 467553, Note_on_c, 0, 91, 0
3, 467587, Control_c, 0, 64, 127
3, 467588, Note_on_c, 0, 79, 0
3, 467826, Note_on_c, 0, 57, 46
3, 467835, Note_on_c, 0, 53, 49
3, 467847, Note_on_c, 0, 77, 50
3, 467851, Note_on_c, 0, 89, 48
3, 467863, Note_on_c, 0, 84, 53
3, 467976, Note_on_c, 0, 57, 0
3, 467991, Note_on_c, 0, 84, 0
3, 468009, Note_on_c, 0, 77, 0
3, 468042, Note_on_c, 0, 53, 0
3, 468053, Note_on_c, 0, 89, 0
3, 468468, Control_c, 0, 64, 0
3, 468477, Note_on_c, 0, 93, 65
3, 468479, Note_on_c, 0, 57, 51
3, 468483, Note_on_c, 0, 62, 59
3, 468486, Note_on_c, 0, 52, 47
3, 468497, Note_on_c, 0, 86, 55
3, 468506, Note_on_c, 0, 81, 36
3, 468542, Note_on_c, 0, 58, 32
3, 468857, Control_c, 0, 64, 127
3, 469338, Note_on_c, 0, 52, 0
3, 469342, Note_on_c, 0, 58, 0
3, 469407, Note_on_c, 0, 57, 0
3, 469465, Note_on_c, 0, 62, 0
3, 469674, Note_on_c, 0, 86, 0
3, 469869, Note_on_c, 0, 93, 0
3, 469931, Note_on_c, 0, 81, 0
3, 470391, Note_on_c, 0, 61, 44
3, 470392, Note_on_c, 0, 93, 52
3, 470400, Note_on_c, 0, 85, 37
3, 470412, Note_on_c, 0, 55, 54
3, 470415, Control_c, 0, 64, 0
3, 470419, Note_on_c, 0, 81, 36
3, 470420, Note_on_c, 0, 88, 40
3, 470426, Note_on_c, 0, 64, 42
3, 470802, Control_c, 0, 64, 127
3, 471064, Note_on_c, 0, 55, 0
3, 471221, Note_on_c, 0, 64, 0
3, 471249, Note_on_c, 0, 61, 0
3, 471339, Note_on_c, 0, 85, 0
3, 471348, Note_on_c, 0, 81, 0
3, 471397, Note_on_c, 0, 88, 0
3, 471496, Note_on_c, 0, 93, 0
3, 472298, Note_on_c, 0, 96, 84
3, 472344, Note_on_c, 0, 93, 82
3, 472354, Control_c, 0, 64, 0
3, 472360, Note_on_c, 0, 60, 58
3, 472362, Note_on_c, 0, 89, 83
3, 472376, Note_on_c, 0, 61, 64
3, 472383, Note_on_c, 0, 65, 80
3, 472388, Note_on_c, 0, 55, 50
3, 472462, Note_on_c, 0, 84, 19
3, 472761, Control_c, 0, 64, 127
3, 473393, Note_on_c, 0, 89, 0
3, 473448, Note_on_c, 0, 84, 0
3, 473448, Note_on_c, 0, 60, 0
3, 473474, Note_on_c, 0, 65, 0
3, 473508, Note_on_c, 0, 96, 0
3, 473527, Note_on_c, 0, 93, 0
3, 473536, Note_on_c, 0, 61, 0
3, 473608, Note_on_c, 0, 55, 0
3, 474005, Note_on_c, 0, 98, 59
3, 474007, Note_on_c, 0, 90, 45
3, 474016, Note_on_c, 0, 86, 58
3, 474023, Note_on_c, 0, 64, 56
3, 474027, Note_on_c, 0, 60, 37
3, 474028, Note_on_c, 0, 54, 46
3, 474030, Note_on_c, 0, 93, 55
3, 474050, Control_c, 0, 64, 0
3, 474403, Control_c, 0, 64, 127
3, 474576, Note_on_c, 0, 98, 0
3, 474695, Note_on_c, 0, 86, 0
3, 474738, Note_on_c, 0, 93, 0
3, 474759, Note_on_c, 0, 90, 0
3, 475136, Note_on_c, 0, 64, 0
3, 475403, Note_on_c, 0, 54, 0
3, 475500, Note_on_c, 0, 60, 0
3, 477140, Control_c, 0, 64, 0
3, 477367, Control_c, 0, 64, 127
3, 477473, Control_c, 0, 64, 0
3, 477777, Note_on_c, 0, 67, 72
3, 477786, Note_on_c, 0, 47, 71
3, 477800, Note_on_c, 0, 56, 69
3, 477802, Note_on_c, 0, 59, 76
3, 477820, Note_on_c, 0, 62, 67
3, 478126, Control_c, 0, 64, 127
3, 478302, Note_on_c, 0, 56, 0
3, 478324, Note_on_c, 0, 59, 0
3, 478381, Note_on_c, 0, 62, 0
3, 478425, Note_on_c, 0, 67, 0
3, 479060, Note_on_c, 0, 47, 0
3, 479115, Control_c, 0, 64, 0
3, 479127, Note_on_c, 0, 48, 51
3, 479141, Note_on_c, 0, 60, 58
3, 479145, Note_on_c, 0, 69, 62
3, 479155, Note_on_c, 0, 64, 62
3, 479203, Note_on_c, 0, 48, 0
3, 479231, Note_on_c, 0, 60, 0
3, 479238, Note_on_c, 0, 64, 0
3, 479280, Note_on_c, 0, 69, 0
3, 479784, Control_c, 0, 64, 127
3, 479960, Control_c, 0, 64, 0
3, 480083, Note_on_c, 0, 70, 57
3, 480090, Note_on_c, 0, 62, 57
3, 480093, Note_on_c, 0, 48, 48
3, 480097, Note_on_c, 0, 65, 53
3, 480130, Note_on_c, 0, 58, 35
3, 480347, Control_c, 0, 64, 127
3, 480810, Note_on_c, 0, 58, 0
3, 480825, Note_on_c, 0, 48, 0
3, 480896, Note_on_c, 0, 65, 0
3, 480924, Note_on_c, 0, 70, 0
3, 480958, Note_on_c, 0, 62, 0
3, 481899, Control_c, 0, 64, 0
3, 481932, Note_on_c, 0, 56, 36
3, 481941, Note_on_c, 0, 61, 45
3, 481973, Note_on_c, 0, 52, 31
3, 481982, Note_on_c, 0, 48, 31
3, 481990, Note_on_c, 0, 36, 35
3, 482040, Note_on_c, 0, 52, 0
3, 482334, Note_on_c, 0, 56, 0
3, 482489, Note_on_c, 0, 48, 0
3, 482494, Note_on_c, 0, 36, 0
3, 482645, Note_on_c, 0, 61, 0
3, 483170, Control_c, 0, 64, 127
3, 484481, Note_on_c, 0, 86, 58
3, 484486, Note_on_c, 0, 77, 43
3, 484488, Note_on_c, 0, 70, 51
3, 484500, Note_on_c, 0, 82, 37
3, 484511, Control_c, 0, 64, 0
3, 484711, Note_on_c, 0, 77, 0
3, 484792, Note_on_c, 0, 86, 0
3, 484808, Note_on_c, 0, 70, 0
3, 484831, Note_on_c, 0, 82, 0
3, 485305, Control_c, 0, 64, 127
3, 485676, Control_c, 0, 64, 0
3, 485796, Note_on_c, 0, 71, 54
3, 485804, Note_on_c, 0, 80, 46
3, 485806, Note_on_c, 0, 89, 62
3, 485833, Note_on_c, 0, 83, 49
3, 485847, Note_on_c, 0, 86, 46
3, 486038, Note_on_c, 0, 86, 0
3, 486042, Note_on_c, 0, 83, 0
3, 486069, Note_on_c, 0, 71, 0
3, 486086, Note_on_c, 0, 80, 0
3, 486088, Note_on_c, 0, 89, 0
3, 486764, Note_on_c, 0, 71, 51
3, 486767, Note_on_c, 0, 86, 57
3, 486787, Note_on_c, 0, 82, 37
3, 486788, Note_on_c, 0, 79, 39
3, 487030, Note_on_c, 0, 71, 0
3, 487035, Note_on_c, 0, 79, 0
3, 487056, Note_on_c, 0, 86, 0
3, 487072, Note_on_c, 0, 82, 0
3, 487299, Control_c, 0, 64, 127
3, 487547, Control_c, 0, 64, 0
3, 487712, Note_on_c, 0, 72, 52
3, 487719, Note_on_c, 0, 88, 51
3, 487721, Note_on_c, 0, 82, 42
3, 487728, Note_on_c, 0, 76, 54
3, 487825, Note_on_c, 0, 72, 0
3, 487881, Control_c, 0, 64, 127
3, 487913, Note_on_c, 0, 88, 0
3, 487960, Note_on_c, 0, 82, 0
3, 487978, Note_on_c, 0, 76, 0
3, 488200, Control_c, 0, 64, 0
3, 488923, Control_c, 0, 64, 127
3, 489152, Control_c, 0, 64, 0
3, 489275, Note_on_c, 0, 72, 44
3, 489321, Note_on_c, 0, 48, 62
3, 489427, Note_on_c, 0, 48, 0
3, 489514, Note_on_c, 0, 72, 0
3, 489914, Note_on_c, 0, 60, 44
3, 489937, Note_on_c, 0, 36, 45
3, 490088, Note_on_c, 0, 60, 0
3, 490104, Note_on_c, 0, 36, 0
3, 490574, Note_on_c, 0, 36, 53
3, 490578, Note_on_c, 0, 60, 42
3, 490747, Note_on_c, 0, 36, 0
3, 490769, Note_on_c, 0, 60, 0
3, 491252, Note_on_c, 0, 60, 57
3, 491260, Note_on_c, 0, 36, 62
3, 491368, Note_on_c, 0, 36, 0
3, 491405, Note_on_c, 0, 60, 0
3, 492133, Control_c, 0, 64, 127
3, 492294, Control_c, 0, 64, 0
3, 493085, Note_on_c, 0, 67, 85
3, 493093, Note_on_c, 0, 58, 88
3, 493103, Note_on_c, 0, 46, 72
3, 493107, Note_on_c, 0, 62, 84
3, 493128, Note_on_c, 0, 55, 83
3, 493721, Control_c, 0, 64, 127
3, 493795, Note_on_c, 0, 67, 0
3, 493828, Note_on_c, 0, 58, 0
3, 493936, Note_on_c, 0, 46, 0
3, 493939, Note_on_c, 0, 55, 0
3, 494039, Note_on_c, 0, 62, 0
3, 494374, Control_c, 0, 64, 0
3, 494379, Note_on_c, 0, 47, 59
3, 494383, Note_on_c, 0, 53, 52
3, 494399, Note_on_c, 0, 69, 57
3, 494402, Note_on_c, 0, 57, 70
3, 494416, Note_on_c, 0, 62, 63
3, 494427, Note_on_c, 0, 65, 55
3, 494554, Note_on_c, 0, 57, 0
3, 494582, Note_on_c, 0, 53, 0
3, 494620, Note_on_c, 0, 47, 0
3, 494627, Note_on_c, 0, 62, 0
3, 494649, Note_on_c, 0, 65, 0
3, 494694, Note_on_c, 0, 69, 0
3, 495379, Note_on_c, 0, 70, 58
3, 495402, Note_on_c, 0, 62, 67
3, 495416, Note_on_c, 0, 58, 50
3, 495417, Note_on_c, 0, 48, 57
3, 495427, Note_on_c, 0, 65, 48
3, 496225, Control_c, 0, 64, 127
3, 496410, Note_on_c, 0, 58, 0
3, 496488, Note_on_c, 0, 48, 0
3, 496507, Note_on_c, 0, 70, 0
3, 496548, Note_on_c, 0, 65, 0
3, 496578, Note_on_c, 0, 62, 0
3, 497329, Note_on_c, 0, 64, 59
3, 497338, Control_c, 0, 64, 0
3, 497368, Note_on_c, 0, 48, 47
3, 497382, Note_on_c, 0, 61, 34
3, 497397, Note_on_c, 0, 58, 35
3, 497429, Note_on_c, 0, 53, 22
3, 497535, Note_on_c, 0, 53, 0
3, 498043, Control_c, 0, 64, 127
3, 498665, Note_on_c, 0, 58, 0
3, 498695, Note_on_c, 0, 61, 0
3, 498705, Note_on_c, 0, 64, 0
3, 498749, Note_on_c, 0, 48, 0
3, 499307, Note_on_c, 0, 64, 64
3, 499314, Control_c, 0, 64, 0
3, 499328, Note_on_c, 0, 60, 58
3, 499355, Note_on_c, 0, 41, 64
3, 499739, Control_c, 0, 64, 127
3, 499819, Note_on_c, 0, 60, 0
3, 499921, Note_on_c, 0, 64, 0
3, 500023, Note_on_c, 0, 48, 60
3, 500126, Note_on_c, 0, 41, 0
3, 500187, Note_on_c, 0, 48, 0
3, 500822, Note_on_c, 0, 79, 74
3, 500824, Note_on_c, 0, 60, 62
3, 500828, Note_on_c, 0, 76, 75
3, 500830, Note_on_c, 0, 73, 60
3, 500831, Note_on_c, 0, 69, 84
3, 501206, Note_on_c, 0, 69, 0
3, 501266, Note_on_c, 0, 79, 0
3, 501333, Note_on_c, 0, 73, 0
3, 501430, Note_on_c, 0, 60, 0
3, 501461, Note_on_c, 0, 76, 0
3, 501562, Note_on_c, 0, 76, 58
3, 501570, Note_on_c, 0, 72, 64
3, 501574, Note_on_c, 0, 81, 75
3, 501585, Note_on_c, 0, 64, 72
3, 501586, Note_on_c, 0, 69, 74
3, 501593, Control_c, 0, 64, 0
3, 501701, Control_c, 0, 64, 127
3, 502007, Note_on_c, 0, 69, 0
3, 502017, Note_on_c, 0, 64, 0
3, 502055, Note_on_c, 0, 72, 0
3, 502074, Note_on_c, 0, 81, 0
3, 502141, Note_on_c, 0, 76, 0
3, 502267, Note_on_c, 0, 81, 62
3, 502271, Note_on_c, 0, 72, 57
3, 502276, Note_on_c, 0, 69, 66
3, 502280, Note_on_c, 0, 64, 53
3, 502283, Note_on_c, 0, 76, 63
3, 502609, Note_on_c, 0, 69, 0
3, 502623, Note_on_c, 0, 64, 0
3, 502632, Note_on_c, 0, 72, 0
3, 502737, Note_on_c, 0, 81, 0
3, 502739, Note_on_c, 0, 76, 0
3, 503019, Note_on_c, 0, 81, 48
3, 503019, Note_on_c, 0, 72, 53
3, 503021, Note_on_c, 0, 76, 47
3, 503031, Note_on_c, 0, 69, 45
3, 503038, Note_on_c, 0, 64, 40
3, 503489, Note_on_c, 0, 64, 0
3, 503494, Note_on_c, 0, 69, 0
3, 503535, Note_on_c, 0, 72, 0
3, 503570, Note_on_c, 0, 81, 0
3, 503631, Note_on_c, 0, 76, 0
3, 503790, Note_on_c, 0, 81, 40
3, 503802, Note_on_c, 0, 64, 37
3, 503806, Note_on_c, 0, 72, 40
3, 503807, Note_on_c, 0, 76, 44
3, 503813, Note_on_c, 0, 69, 41
3, 504126, Note_on_c, 0, 69, 0
3, 504130, Note_on_c, 0, 72, 0
3, 504235, Note_on_c, 0, 81, 0
3, 504248, Note_on_c, 0, 76, 0
3, 504371, Note_on_c, 0, 64, 0
3, 504536, Note_on_c, 0, 81, 40
3, 504545, Control_c, 0, 64, 0
3, 504552, Note_on_c, 0, 53, 35
3, 504556, Note_on_c, 0, 72, 43
3, 504565, Note_on_c, 0, 76, 42
3, 504579, Note_on_c, 0, 69, 36
3, 504846, Control_c, 0, 64, 127
3, 505008, Note_on_c, 0, 81, 0
3, 505027, Note_on_c, 0, 69, 0
3, 505133, Note_on_c, 0, 72, 0
3, 505200, Note_on_c, 0, 60, 25
3, 505202, Note_on_c, 0, 81, 50
3, 505203, Note_on_c, 0, 76, 0
3, 505587, Note_on_c, 0, 81, 0
3, 505805, Note_on_c, 0, 81, 42
3, 505831, Note_on_c, 0, 69, 44
3, 505835, Note_on_c, 0, 64, 26
3, 505921, Note_on_c, 0, 69, 0
3, 506030, Note_on_c, 0, 81, 0
3, 506129, Note_on_c, 0, 64, 0
3, 506395, Note_on_c, 0, 82, 57
3, 506446, Note_on_c, 0, 72, 19
3, 506608, Note_on_c, 0, 72, 0
3, 506683, Note_on_c, 0, 82, 0
3, 506902, Note_on_c, 0, 84, 56
3, 507137, Note_on_c, 0, 84, 0
3, 507224, Note_on_c, 0, 53, 0
3, 507433, Note_on_c, 0, 60, 0
3, 507475, Control_c, 0, 64, 0
3, 507502, Note_on_c, 0, 72, 32
3, 507504, Note_on_c, 0, 84, 40
3, 507512, Note_on_c, 0, 77, 36
3, 507558, Note_on_c, 0, 53, 25
3, 507704, Control_c, 0, 64, 127
3, 507764, Note_on_c, 0, 72, 0
3, 507798, Note_on_c, 0, 84, 0
3, 507847, Note_on_c, 0, 77, 0
3, 508083, Note_on_c, 0, 86, 57
3, 508118, Note_on_c, 0, 62, 40
3, 508221, Note_on_c, 0, 86, 0
3, 508566, Note_on_c, 0, 62, 0
3, 508808, Note_on_c, 0, 70, 48
3, 508827, Note_on_c, 0, 77, 48
3, 508832, Note_on_c, 0, 67, 33
3, 508869, Control_c, 0, 64, 0
3, 508897, Note_on_c, 0, 74, 34
3, 509116, Control_c, 0, 64, 127
3, 509538, Note_on_c, 0, 67, 0
3, 509550, Note_on_c, 0, 74, 0
3, 509572, Note_on_c, 0, 62, 36
3, 509587, Note_on_c, 0, 77, 0
3, 509609, Note_on_c, 0, 70, 0
3, 510323, Note_on_c, 0, 69, 46
3, 510402, Note_on_c, 0, 62, 0
3, 510553, Note_on_c, 0, 53, 0
3, 510919, Note_on_c, 0, 69, 0
3, 510953, Note_on_c, 0, 70, 45
3, 510972, Note_on_c, 0, 53, 32
3, 511419, Note_on_c, 0, 70, 0
3, 511486, Note_on_c, 0, 53, 0
3, 511647, Note_on_c, 0, 70, 35
3, 511659, Note_on_c, 0, 48, 38
3, 511766, Note_on_c, 0, 48, 0
3, 512365, Note_on_c, 0, 41, 24
3, 512366, Note_on_c, 0, 65, 42
3, 512539, Note_on_c, 0, 70, 0
3, 512699, Note_on_c, 0, 65, 0
3, 513097, Note_on_c, 0, 36, 27
3, 515221, Control_c, 0, 64, 0
3, 515246, Note_on_c, 0, 36, 0
3, 515249, Note_on_c, 0, 29, 38
3, 515593, Control_c, 0, 64, 127
3, 516258, Note_on_c, 0, 45, 33
3, 516334, Control_c, 0, 64, 0
3, 516457, Control_c, 0, 64, 127
3, 516838, Note_on_c, 0, 45, 0
3, 517161, Note_on_c, 0, 29, 0
3, 517171, Note_on_c, 0, 41, 0
3, 525440, Control_c, 0, 64, 0
3, 525440, End_track
4, 0, Start_track
4, 0, Title_t, "Drums"
4, 0, Program_c, 9, 0
4, 0, Control_c, 9, 7, 100
4, 0, Note_on_c, 9, 59, 58
4, 960, Note_on_c, 9, 44, 35
4, 1322, Note_on_c, 9, 44, 0
4, 4800, Note_on_c, 9, 44, 41
4, 4945, Note_on_c, 9, 51, 61
4, 4959, Note_on_c, 9, 59, 0
4, 5278, Note_on_c, 9, 44, 0
4, 6849, Note_on_c, 9, 59, 74
4, 7028, Note_on_c, 9, 59, 0
4, 7789, Note_on_c, 9, 59, 73
4, 8055, Note_on_c, 9, 59, 0
4, 8640, Note_on_c, 9, 44, 41
4, 8901, Note_on_c, 9, 51, 0
4, 9158, Note_on_c, 9, 44, 0
4, 9600, Note_on_c, 9, 44, 35
4, 10054, Note_on_c, 9, 44, 0
4, 10611, Note_on_c, 9, 51, 58
4, 12494, Note_on_c, 9, 51, 0
4, 12504, Note_on_c, 9, 59, 68
4, 12683, Note_on_c, 9, 59, 0
4, 13441, Note_on_c, 9, 59, 76
4, 13657, Note_on_c, 9, 59, 0
4, 14400, Note_on_c, 9, 44, 32
4, 14426, Note_on_c, 9, 51, 69
4, 14923, Note_on_c, 9, 44, 0
4, 16320, Note_on_c, 9, 44, 32
4, 16878, Note_on_c, 9, 44, 0
4, 17251, Note_on_c, 9, 51, 0
4, 17320, Note_on_c, 9, 59, 82
4, 17511, Note_on_c, 9, 59, 0
4, 18250, Note_on_c, 9, 59, 75
4, 18595, Note_on_c, 9, 59, 0
4, 19255, Note_on_c, 9, 59, 66
4, 20016, Note_on_c, 9, 59, 0
4, 20160, Note_on_c, 9, 44, 32
4, 20246, Note_on_c, 9, 51, 56
4, 20653, Note_on_c, 9, 51, 0
4, 20656, Note_on_c, 9, 44, 0
4, 21176, Note_on_c, 9, 51, 55
4, 21926, Note_on_c, 9, 51, 0
4, 24000, Note_on_c, 9, 44, 30
4, 24478, Note_on_c, 9, 44, 0
4, 24960, Note_on_c, 9, 44, 30
4, 25378, Note_on_c, 9, 44, 0
4, 26010, Note_on_c, 9, 46, 48
4, 26057, Note_on_c, 9, 59, 66
4, 26236, Note_on_c, 9, 59, 0
4, 26471, Note_on_c, 9, 46, 0
4, 26632, Note_on_c, 9, 59, 71
4, 26878, Note_on_c, 9, 59, 0
4, 27052, Note_on_c, 9, 59, 69
4, 27535, Note_on_c, 9, 59, 0
4, 27947, Note_on_c, 9, 51, 52
4, 28485, Note_on_c, 9, 51, 0
4, 30771, Note_on_c, 9, 53, 64
4, 31555, Note_on_c, 9, 53, 0
4, 31680, Note_on_c, 9, 44, 26
4, 32082, Note_on_c, 9, 44, 0
4, 32530, Note_on_c, 9, 53, 68
4, 32640, Note_on_c, 9, 44, 32
4, 33098, Note_on_c, 9, 53, 0
4, 33117, Note_on_c, 9, 44, 0
4, 34560, Note_on_c, 9, 44, 30
4, 35041, Note_on_c, 9, 44, 0
4, 35520, Note_on_c, 9, 44, 25
4, 35662, Note_on_c, 9, 53, 61
4, 36007, Note_on_c, 9, 53, 0
4, 36076, Note_on_c, 9, 44, 0
4, 36614, Note_on_c, 9, 53, 54
4, 36989, Note_on_c, 9, 53, 0
4, 38593, Note_on_c, 9, 59, 62
4, 38601, Note_on_c, 9, 53, 48
4, 39007, Note_on_c, 9, 59, 0
4, 39166, Note_on_c, 9, 53, 0
4, 40528, Note_on_c, 9, 59, 50
4, 40545, Note_on_c, 9, 53, 41
4, 40885, Note_on_c, 9, 59, 0
4, 41004, Note_on_c, 9, 53, 0
4, 41280, Note_on_c, 9, 44, 26
4, 41672, Note_on_c, 9, 44, 0
4, 43200, Note_on_c, 9, 44, 25
4, 43350, Note_on_c, 9, 59, 55
4, 43365, Note_on_c, 9, 53, 29
4, 43375, Note_on_c, 9, 51, 33
4, 43591, Note_on_c, 9, 53, 0
4, 43598, Note_on_c, 9, 59, 0
4, 43614, Note_on_c, 9, 44, 0
4, 43657, Note_on_c, 9, 51, 0
4, 45130, Note_on_c, 9, 46, 36
4, 45170, Note_on_c, 9, 59, 56
4, 45207, Note_on_c, 9, 53, 32
4, 45215, Note_on_c, 9, 51, 32
4, 45386, Note_on_c, 9, 53, 0
4, 45388, Note_on_c, 9, 59, 0
4, 45451, Note_on_c, 9, 51, 0
4, 45493, Note_on_c, 9, 46, 0
4, 46108, Note_on_c, 9, 59, 57
4, 46135, Note_on_c, 9, 53, 34
4, 46148, Note_on_c, 9, 51, 36
4, 46403, Note_on_c, 9, 53, 0
4, 46408, Note_on_c, 9, 59, 0
4, 46547, Note_on_c, 9, 51, 0
4, 48159, Note_on_c, 9, 59, 54
4, 48181, Note_on_c, 9, 53, 36
4, 48201, Note_on_c, 9, 51, 35
4, 48762, Note_on_c, 9, 59, 0
4, 48796, Note_on_c, 9, 53, 0
4, 48873, Note_on_c, 9, 51, 0
4, 50607, Note_on_c, 9, 42, 42
4, 50842, Note_on_c, 9, 42, 0
4, 51041, Note_on_c, 9, 53, 31
4, 51043, Note_on_c, 9, 51, 35
4, 51045, Note_on_c, 9, 59, 58
4, 51216, Note_on_c, 9, 42, 46
4, 51291, Note_on_c, 9, 59, 0
4, 51329, Note_on_c, 9, 53, 0
4, 51348, Note_on_c, 9, 51, 0
4, 51578, Note_on_c, 9, 42, 0
4, 51931, Note_on_c, 9, 51, 37
4, 51941, Note_on_c, 9, 42, 46
4, 51966, Note_on_c, 9, 53, 30
4, 51968, Note_on_c, 9, 59, 53
4, 52308, Note_on_c, 9, 59, 0
4, 52308, Note_on_c, 9, 42, 0
4, 52387, Note_on_c, 9, 53, 0
4, 52394, Note_on_c, 9, 51, 0
4, 52690, Note_on_c, 9, 42, 49
4, 52950, Note_on_c, 9, 42, 0
4, 53317, Note_on_c, 9, 42, 43
4, 53561, Note_on_c, 9, 42, 0
4, 53885, Note_on_c, 9, 53, 33
4, 53887, Note_on_c, 9, 59, 61
4, 53895, Note_on_c, 9, 51, 38
4, 54121, Note_on_c, 9, 53, 0
4, 54123, Note_on_c, 9, 59, 0
4, 54171, Note_on_c, 9, 51, 0
4, 54860, Note_on_c, 9, 53, 43
4, 54864, Note_on_c, 9, 59, 58
4, 54887, Note_on_c, 9, 51, 42
4, 55172, Note_on_c, 9, 59, 0
4, 55194, Note_on_c, 9, 53, 0
4, 55301, Note_on_c, 9, 51, 0
4, 56640, Note_on_c, 9, 44, 29
4, 56718, Note_on_c, 9, 53, 41
4, 56720, Note_on_c, 9, 59, 62
4, 56744, Note_on_c, 9, 51, 42
4, 57023, Note_on_c, 9, 53, 0
4, 57039, Note_on_c, 9, 59, 0
4, 57054, Note_on_c, 9, 44, 0
4, 57149, Note_on_c, 9, 51, 0
4, 57600, Note_on_c, 9, 44, 31
4, 58005, Note_on_c, 9, 44, 0
4, 59609, Note_on_c, 9, 59, 61
4, 59614, Note_on_c, 9, 53, 41
4, 59616, Note_on_c, 9, 51, 40
4, 59815, Note_on_c, 9, 59, 0
4, 59867, Note_on_c, 9, 53, 0
4, 59904, Note_on_c, 9, 51, 0
4, 60480, Note_on_c, 9, 44, 39
4, 60583, Note_on_c, 9, 53, 45
4, 60594, Note_on_c, 9, 59, 60
4, 60596, Note_on_c, 9, 51, 42
4, 60812, Note_on_c, 9, 44, 0
4, 60884, Note_on_c, 9, 53, 0
4, 60906, Note_on_c, 9, 59, 0
4, 60981, Note_on_c, 9, 51, 0
4, 62400, Note_on_c, 9, 44, 28
4, 62729, Note_on_c, 9, 44, 0
4, 63021, Note_on_c, 9, 59, 33
4, 63166, Note_on_c, 9, 59, 0
4, 63360, Note_on_c, 9, 44, 32
4, 63401, Note_on_c, 9, 59, 50
4, 63716, Note_on_c, 9, 59, 0
4, 63784, Note_on_c, 9, 44, 0
4, 65038, Note_on_c, 9, 59, 36
4, 65167, Note_on_c, 9, 59, 0
4, 65395, Note_on_c, 9, 59, 54
4, 65678, Note_on_c, 9, 59, 0
4, 66240, Note_on_c, 9, 44, 36
4, 66635, Note_on_c, 9, 44, 0
4, 66950, Note_on_c, 9, 59, 45
4, 67091, Note_on_c, 9, 59, 0
4, 67200, Note_on_c, 9, 44, 41
4, 67334, Note_on_c, 9, 59, 52
4, 67624, Note_on_c, 9, 59, 0
4, 67756, Note_on_c, 9, 44, 0
4, 68882, Note_on_c, 9, 59, 41
4, 69016, Note_on_c, 9, 59, 0
4, 69120, Note_on_c, 9, 44, 42
4, 69253, Note_on_c, 9, 59, 50
4, 69499, Note_on_c, 9, 59, 0
4, 69504, Note_on_c, 9, 44, 0
4, 70080, Note_on_c, 9, 44, 41
4, 70137, Note_on_c, 9, 59, 60
4, 70142, Note_on_c, 9, 53, 48
4, 70407, Note_on_c, 9, 59, 0
4, 70417, Note_on_c, 9, 53, 0
4, 70637, Note_on_c, 9, 44, 0
4, 71089, Note_on_c, 9, 53, 40
4, 71092, Note_on_c, 9, 59, 50
4, 71392, Note_on_c, 9, 59, 0
4, 71399, Note_on_c, 9, 53, 0
4, 72000, Note_on_c, 9, 44, 42
4, 72576, Note_on_c, 9, 44, 0
4, 73725, Note_on_c, 9, 59, 56
4, 73839, Note_on_c, 9, 59, 0
4, 73920, Note_on_c, 9, 44, 36
4, 74112, Note_on_c, 9, 59, 50
4, 74327, Note_on_c, 9, 44, 0
4, 74414, Note_on_c, 9, 59, 0
4, 74880, Note_on_c, 9, 44, 35
4, 74980, Note_on_c, 9, 59, 58
4, 75003, Note_on_c, 9, 53, 41
4, 75257, Note_on_c, 9, 44, 0
4, 75380, Note_on_c, 9, 59, 0
4, 75436, Note_on_c, 9, 53, 0
4, 75937, Note_on_c, 9, 59, 57
4, 75955, Note_on_c, 9, 53, 41
4, 76262, Note_on_c, 9, 59, 0
4, 76436, Note_on_c, 9, 53, 0
4, 77760, Note_on_c, 9, 44, 32
4, 78217, Note_on_c, 9, 44, 0
4, 79320, Note_on_c, 9, 59, 38
4, 79441, Note_on_c, 9, 59, 0
4, 79647, Note_on_c, 9, 53, 31
4, 79669, Note_on_c, 9, 59, 56
4, 79680, Note_on_c, 9, 44, 33
4, 80044, Note_on_c, 9, 59, 0
4, 80101, Note_on_c, 9, 53, 0
4, 80136, Note_on_c, 9, 44, 0
4, 80651, Note_on_c, 9, 59, 55
4, 80659, Note_on_c, 9, 53, 40
4, 81091, Note_on_c, 9, 59, 0
4, 81095, Note_on_c, 9, 53, 0
4, 82247, Note_on_c, 9, 59, 55
4, 82417, Note_on_c, 9, 59, 0
4, 82586, Note_on_c, 9, 53, 37
4, 82636, Note_on_c, 9, 59, 62
4, 82988, Note_on_c, 9, 59, 0
4, 83010, Note_on_c, 9, 53, 0
4, 83520, Note_on_c, 9, 44, 37
4, 83588, Note_on_c, 9, 59, 54
4, 83616, Note_on_c, 9, 53, 48
4, 83927, Note_on_c, 9, 44, 0
4, 83940, Note_on_c, 9, 59, 0
4, 84044, Note_on_c, 9, 53, 0
4, 84480, Note_on_c, 9, 44, 37
4, 84963, Note_on_c, 9, 44, 0
4, 86113, Note_on_c, 9, 59, 46
4, 86244, Note_on_c, 9, 59, 0
4, 86440, Note_on_c, 9, 53, 37
4, 86477, Note_on_c, 9, 59, 44
4, 86804, Note_on_c, 9, 53, 0
4, 86820, Note_on_c, 9, 59, 0
4, 87360, Note_on_c, 9, 44, 35
4, 87435, Note_on_c, 9, 59, 55
4, 87437, Note_on_c, 9, 53, 42
4, 87752, Note_on_c, 9, 59, 0
4, 87789, Note_on_c, 9, 53, 0
4, 87802, Note_on_c, 9, 44, 0
4, 89915, Note_on_c, 9, 59, 44
4, 90103, Note_on_c, 9, 59, 0
4, 90225, Note_on_c, 9, 53, 42
4, 90307, Note_on_c, 9, 59, 38
4, 90512, Note_on_c, 9, 53, 0
4, 90619, Note_on_c, 9, 59, 0
4, 91152, Note_on_c, 9, 46, 54
4, 91289, Note_on_c, 9, 53, 53
4, 91294, Note_on_c, 9, 59, 65
4, 91621, Note_on_c, 9, 53, 0
4, 91705, Note_on_c, 9, 59, 0
4, 91713, Note_on_c, 9, 46, 0
4, 93173, Note_on_c, 9, 53, 59
4, 93183, Note_on_c, 9, 59, 76
4, 94803, Note_on_c, 9, 59, 0
4, 95040, Note_on_c, 9, 44, 35
4, 95080, Note_on_c, 9, 53, 0
4, 95475, Note_on_c, 9, 44, 0
4, 95648, Note_on_c, 9, 59, 55
4, 95876, Note_on_c, 9, 59, 0
4, 95968, Note_on_c, 9, 53, 33
4, 96055, Note_on_c, 9, 59, 46
4, 96375, Note_on_c, 9, 59, 0
4, 96514, Note_on_c, 9, 53, 0
4, 97627, Note_on_c, 9, 59, 47
4, 97813, Note_on_c, 9, 59, 0
4, 98032, Note_on_c, 9, 53, 40
4, 98036, Note_on_c, 9, 59, 55
4, 98399, Note_on_c, 9, 53, 0
4, 98458, Note_on_c, 9, 59, 0
4, 98880, Note_on_c, 9, 44, 35
4, 99324, Note_on_c, 9, 44, 0
4, 100795, Note_on_c, 9, 46, 46
4, 100913, Note_on_c, 9, 59, 60
4, 100941, Note_on_c, 9, 53, 48
4, 101216, Note_on_c, 9, 46, 0
4, 101241, Note_on_c, 9, 53, 0
4, 101560, Note_on_c, 9, 59, 0
4, 104640, Note_on_c, 9, 44, 29
4, 104755, Note_on_c, 9, 53, 59
4, 104763, Note_on_c, 9, 59, 64
4, 104881, Note_on_c, 9, 59, 0
4, 104918, Note_on_c, 9, 53, 0
4, 105022, Note_on_c, 9, 44, 0
4, 106377, Note_on_c, 9, 53, 61
4, 106396, Note_on_c, 9, 59, 50
4, 106499, Note_on_c, 9, 59, 0
4, 106572, Note_on_c, 9, 53, 0
4, 106667, Note_on_c, 9, 46, 50
4, 107088, Note_on_c, 9, 46, 0
4, 107332, Note_on_c, 9, 59, 62
4, 107383, Note_on_c, 9, 53, 58
4, 107453, Note_on_c, 9, 59, 0
4, 107483, Note_on_c, 9, 53, 0
4, 107676, Note_on_c, 9, 59, 67
4, 107724, Note_on_c, 9, 53, 55
4, 108009, Note_on_c, 9, 53, 0
4, 108031, Note_on_c, 9, 59, 0
4, 109189, Note_on_c, 9, 59, 44
4, 109315, Note_on_c, 9, 59, 0
4, 109529, Note_on_c, 9, 59, 59
4, 109534, Note_on_c, 9, 53, 50
4, 109791, Note_on_c, 9, 53, 0
4, 109844, Note_on_c, 9, 59, 0
4, 110400, Note_on_c, 9, 44, 30
4, 110747, Note_on_c, 9, 44, 0
4, 111163, Note_on_c, 9, 59, 43
4, 111284, Note_on_c, 9, 59, 0
4, 111498, Note_on_c, 9, 53, 51
4, 111506, Note_on_c, 9, 59, 57
4, 111632, Note_on_c, 9, 53, 0
4, 111769, Note_on_c, 9, 59, 0
4, 113063, Note_on_c, 9, 59, 44
4, 113187, Note_on_c, 9, 59, 0
4, 113387, Note_on_c, 9, 59, 63
4, 113755, Note_on_c, 9, 59, 0
4, 114240, Note_on_c, 9, 44, 41
4, 114629, Note_on_c, 9, 44, 0
4, 114955, Note_on_c, 9, 51, 55
4, 115119, Note_on_c, 9, 51, 0
4, 115337, Note_on_c, 9, 51, 36
4, 115774, Note_on_c, 9, 51, 0
4, 116870, Note_on_c, 9, 51, 54
4, 116954, Note_on_c, 9, 51, 0
4, 117145, Note_on_c, 9, 59, 60
4, 117224, Note_on_c, 9, 51, 59
4, 117587, Note_on_c, 9, 59, 0
4, 117762, Note_on_c, 9, 51, 0
4, 118080, Note_on_c, 9, 44, 39
4, 118474, Note_on_c, 9, 44, 0
4, 118749, Note_on_c, 9, 51, 38
4, 118834, Note_on_c, 9, 51, 0
4, 119097, Note_on_c, 9, 59, 66
4, 119114, Note_on_c, 9, 51, 52
4, 119349, Note_on_c, 9, 51, 0
4, 119354, Note_on_c, 9, 59, 0
4, 120108, Note_on_c, 9, 59, 94
4, 121386, Note_on_c, 9, 59, 0
4, 121688, Note_on_c, 9, 51, 46
4, 121815, Note_on_c, 9, 51, 0
4, 122058, Note_on_c, 9, 59, 82
4, 122467, Note_on_c, 9, 59, 0
4, 123010, Note_on_c, 9, 59, 78
4, 123451, Note_on_c, 9, 59, 0
4, 123840, Note_on_c, 9, 44, 35
4, 123918, Note_on_c, 9, 59, 68
4, 124279, Note_on_c, 9, 44, 0
4, 124339, Note_on_c, 9, 59, 0
4, 124665, Note_on_c, 9, 59, 45
4, 124774, Note_on_c, 9, 59, 0
4, 124905, Note_on_c, 9, 59, 62
4, 125523, Note_on_c, 9, 59, 0
4, 125872, Note_on_c, 9, 59, 71
4, 126430, Note_on_c, 9, 59, 0
4, 126792, Note_on_c, 9, 59, 74
4, 127107, Note_on_c, 9, 59, 0
4, 127680, Note_on_c, 9, 44, 36
4, 127771, Note_on_c, 9, 59, 77
4, 128101, Note_on_c, 9, 59, 0
4, 128160, Note_on_c, 9, 44, 0
4, 128739, Note_on_c, 9, 59, 75
4, 129140, Note_on_c, 9, 59, 0
4, 129416, Note_on_c, 9, 59, 40
4, 129527, Note_on_c, 9, 59, 0
4, 129600, Note_on_c, 9, 44, 39
4, 129692, Note_on_c, 9, 59, 75
4, 130090, Note_on_c, 9, 44, 0
4, 130261, Note_on_c, 9, 59, 0
4, 130626, Note_on_c, 9, 59, 76
4, 131169, Note_on_c, 9, 59, 0
4, 131604, Note_on_c, 9, 59, 76
4, 132045, Note_on_c, 9, 59, 0
4, 132315, Note_on_c, 9, 59, 40
4, 132446, Note_on_c, 9, 59, 0
4, 132605, Note_on_c, 9, 59, 66
4, 133156, Note_on_c, 9, 59, 0
4, 133440, Note_on_c, 9, 44, 42
4, 133518, Note_on_c, 9, 59, 81
4, 133930, Note_on_c, 9, 44, 0
4, 134125, Note_on_c, 9, 59, 0
4, 134587, Note_on_c, 9, 59, 32
4, 134679, Note_on_c, 9, 59, 0
4, 135140, Note_on_c, 9, 59, 65
4, 135226, Note_on_c, 9, 59, 0
4, 135383, Note_on_c, 9, 59, 81
4, 136045, Note_on_c, 9, 59, 0
4, 136375, Note_on_c, 9, 59, 69
4, 136910, Note_on_c, 9, 59, 0
4, 137005, Note_on_c, 9, 53, 62
4, 137201, Note_on_c, 9, 53, 0
4, 137280, Note_on_c, 9, 44, 38
4, 137357, Note_on_c, 9, 59, 25
4, 137773, Note_on_c, 9, 59, 0
4, 137781, Note_on_c, 9, 44, 0
4, 138326, Note_on_c, 9, 59, 64
4, 138905, Note_on_c, 9, 59, 0
4, 139200, Note_on_c, 9, 44, 40
4, 139239, Note_on_c, 9, 59, 71
4, 139605, Note_on_c, 9, 44, 0
4, 139676, Note_on_c, 9, 59, 0
4, 140254, Note_on_c, 9, 59, 71
4, 140804, Note_on_c, 9, 59, 0
4, 141796, Note_on_c, 9, 59, 87
4, 142099, Note_on_c, 9, 59, 0
4, 142287, Note_on_c, 9, 59, 56
4, 142753, Note_on_c, 9, 59, 0
4, 143040, Note_on_c, 9, 44, 38
4, 143118, Note_on_c, 9, 59, 76
4, 143556, Note_on_c, 9, 44, 0
4, 143686, Note_on_c, 9, 59, 0
4, 144075, Note_on_c, 9, 59, 50
4, 144172, Note_on_c, 9, 59, 0
4, 144725, Note_on_c, 9, 59, 57
4, 144854, Note_on_c, 9, 59, 0
4, 145079, Note_on_c, 9, 59, 80
4, 145699, Note_on_c, 9, 59, 0
4, 146000, Note_on_c, 9, 59, 71
4, 146555, Note_on_c, 9, 59, 0
4, 146915, Note_on_c, 9, 59, 73
4, 147292, Note_on_c, 9, 59, 0
4, 147619, Note_on_c, 9, 59, 48
4, 147738, Note_on_c, 9, 59, 0
4, 147902, Note_on_c, 9, 59, 80
4, 148626, Note_on_c, 9, 59, 0
4, 148800, Note_on_c, 9, 44, 39
4, 148913, Note_on_c, 9, 59, 73
4, 149209, Note_on_c, 9, 44, 0
4, 149449, Note_on_c, 9, 59, 0
4, 149829, Note_on_c, 9, 59, 78
4, 150273, Note_on_c, 9, 59, 0
4, 150720, Note_on_c, 9, 44, 35
4, 150779, Note_on_c, 9, 59, 92
4, 151174, Note_on_c, 9, 44, 0
4, 151245, Note_on_c, 9, 59, 0
4, 151491, Note_on_c, 9, 59, 46
4, 151599, Note_on_c, 9, 59, 0
4, 151760, Note_on_c, 9, 59, 77
4, 152386, Note_on_c, 9, 59, 0
4, 152686, Note_on_c, 9, 59, 85
4, 153247, Note_on_c, 9, 59, 0
4, 153452, Note_on_c, 9, 59, 47
4, 153579, Note_on_c, 9, 59, 0
4, 153723, Note_on_c, 9, 59, 80
4, 154337, Note_on_c, 9, 59, 0
4, 154560, Note_on_c, 9, 44, 37
4, 154645, Note_on_c, 9, 59, 80
4, 154988, Note_on_c, 9, 44, 0
4, 155334, Note_on_c, 9, 59, 0
4, 155657, Note_on_c, 9, 59, 75
4, 156143, Note_on_c, 9, 59, 0
4, 156361, Note_on_c, 9, 59, 33
4, 156480, Note_on_c, 9, 59, 0
4, 156624, Note_on_c, 9, 59, 80
4, 157274, Note_on_c, 9, 59, 0
4, 157541, Note_on_c, 9, 59, 70
4, 158077, Note_on_c, 9, 59, 0
4, 158536, Note_on_c, 9, 59, 84
4, 158955, Note_on_c, 9, 59, 0
4, 159171, Note_on_c, 9, 59, 50
4, 159295, Note_on_c, 9, 59, 0
4, 159468, Note_on_c, 9, 59, 74
4, 160047, Note_on_c, 9, 59, 0
4, 160399, Note_on_c, 9, 59, 83
4, 161068, Note_on_c, 9, 59, 0
4, 161378, Note_on_c, 9, 59, 68
4, 161648, Note_on_c, 9, 59, 0
4, 162361, Note_on_c, 9, 59, 90
4, 162923, Note_on_c, 9, 59, 0
4, 163312, Note_on_c, 9, 59, 56
4, 163424, Note_on_c, 9, 59, 0
4, 163912, Note_on_c, 9, 59, 48
4, 164030, Note_on_c, 9, 59, 0
4, 164210, Note_on_c, 9, 59, 79
4, 164863, Note_on_c, 9, 59, 0
4, 165200, Note_on_c, 9, 59, 80
4, 165765, Note_on_c, 9, 59, 0
4, 166080, Note_on_c, 9, 44, 37
4, 166190, Note_on_c, 9, 59, 79
4, 166618, Note_on_c, 9, 59, 0
4, 166715, Note_on_c, 9, 44, 0
4, 166909, Note_on_c, 9, 59, 49
4, 167030, Note_on_c, 9, 59, 0
4, 167186, Note_on_c, 9, 59, 71
4, 167784, Note_on_c, 9, 59, 0
4, 168000, Note_on_c, 9, 44, 32
4, 168099, Note_on_c, 9, 59, 79
4, 168551, Note_on_c, 9, 44, 0
4, 168615, Note_on_c, 9, 59, 0
4, 169061, Note_on_c, 9, 59, 77
4, 169540, Note_on_c, 9, 59, 0
4, 170034, Note_on_c, 9, 59, 79
4, 170440, Note_on_c, 9, 59, 0
4, 170780, Note_on_c, 9, 59, 51
4, 170884, Note_on_c, 9, 59, 0
4, 171047, Note_on_c, 9, 59, 74
4, 171569, Note_on_c, 9, 59, 0
4, 171840, Note_on_c, 9, 44, 35
4, 171955, Note_on_c, 9, 59, 78
4, 172346, Note_on_c, 9, 44, 0
4, 172427, Note_on_c, 9, 59, 0
4, 172910, Note_on_c, 9, 59, 77
4, 173327, Note_on_c, 9, 59, 0
4, 173760, Note_on_c, 9, 44, 33
4, 173858, Note_on_c, 9, 59, 88
4, 174293, Note_on_c, 9, 44, 0
4, 174319, Note_on_c, 9, 59, 0
4, 174818, Note_on_c, 9, 59, 80
4, 175301, Note_on_c, 9, 59, 0
4, 175802, Note_on_c, 9, 59, 76
4, 176270, Note_on_c, 9, 59, 0
4, 176469, Note_on_c, 9, 53, 63
4, 176650, Note_on_c, 9, 53, 0
4, 176764, Note_on_c, 9, 59, 53
4, 177329, Note_on_c, 9, 59, 0
4, 177600, Note_on_c, 9, 44, 35
4, 177741, Note_on_c, 9, 59, 66
4, 178024, Note_on_c, 9, 44, 0
4, 178207, Note_on_c, 9, 59, 0
4, 178678, Note_on_c, 9, 59, 68
4, 179226, Note_on_c, 9, 59, 0
4, 179282, Note_on_c, 9, 53, 67
4, 179502, Note_on_c, 9, 46, 48
4, 179902, Note_on_c, 9, 46, 0
4, 180429, Note_on_c, 9, 53, 0
4, 180598, Note_on_c, 9, 59, 71
4, 181154, Note_on_c, 9, 59, 0
4, 181164, Note_on_c, 9, 53, 62
4, 181401, Note_on_c, 9, 46, 50
4, 181836, Note_on_c, 9, 46, 0
4, 181948, Note_on_c, 9, 53, 0
4, 182138, Note_on_c, 9, 53, 69
4, 182346, Note_on_c, 9, 53, 0
4, 182560, Note_on_c, 9, 59, 78
4, 183257, Note_on_c, 9, 59, 0
4, 183341, Note_on_c, 9, 46, 51
4, 183467, Note_on_c, 9, 53, 63
4, 183743, Note_on_c, 9, 46, 0
4, 183971, Note_on_c, 9, 53, 0
4, 184043, Note_on_c, 9, 59, 74
4, 184670, Note_on_c, 9, 59, 0
4, 184990, Note_on_c, 9, 53, 44
4, 185094, Note_on_c, 9, 53, 0
4, 185280, Note_on_c, 9, 44, 35
4, 185340, Note_on_c, 9, 59, 80
4, 185794, Note_on_c, 9, 44, 0
4, 186024, Note_on_c, 9, 59, 0
4, 186362, Note_on_c, 9, 59, 74
4, 186821, Note_on_c, 9, 59, 0
4, 187272, Note_on_c, 9, 53, 74
4, 187275, Note_on_c, 9, 59, 88
4, 187993, Note_on_c, 9, 59, 0
4, 188192, Note_on_c, 9, 53, 0
4, 189120, Note_on_c, 9, 44, 38
4, 189159, Note_on_c, 9, 59, 57
4, 189372, Note_on_c, 9, 59, 0
4, 189614, Note_on_c, 9, 44, 0
4, 189856, Note_on_c, 9, 59, 42
4, 189972, Note_on_c, 9, 59, 0
4, 190144, Note_on_c, 9, 59, 61
4, 190690, Note_on_c, 9, 59, 0
4, 191706, Note_on_c, 9, 59, 57
4, 191822, Note_on_c, 9, 59, 0
4, 192075, Note_on_c, 9, 59, 63
4, 192607, Note_on_c, 9, 59, 0
4, 192960, Note_on_c, 9, 44, 39
4, 193038, Note_on_c, 9, 59, 79
4, 193357, Note_on_c, 9, 44, 0
4, 193713, Note_on_c, 9, 59, 0
4, 194548, Note_on_c, 9, 59, 49
4, 194665, Note_on_c, 9, 59, 0
4, 194880, Note_on_c, 9, 44, 39
4, 194911, Note_on_c, 9, 59, 68
4, 195355, Note_on_c, 9, 44, 0
4, 195444, Note_on_c, 9, 59, 0
4, 195960, Note_on_c, 9, 59, 80
4, 196237, Note_on_c, 9, 59, 0
4, 196865, Note_on_c, 9, 59, 77
4, 197185, Note_on_c, 9, 59, 0
4, 197864, Note_on_c, 9, 59, 68
4, 198206, Note_on_c, 9, 59, 0
4, 198720, Note_on_c, 9, 44, 41
4, 198844, Note_on_c, 9, 59, 90
4, 199107, Note_on_c, 9, 44, 0
4, 199295, Note_on_c, 9, 59, 0
4, 199680, Note_on_c, 9, 44, 38
4, 199704, Note_on_c, 9, 59, 40
4, 199885, Note_on_c, 9, 59, 0
4, 200156, Note_on_c, 9, 44, 0
4, 200689, Note_on_c, 9, 59, 64
4, 201080, Note_on_c, 9, 59, 0
4, 201592, Note_on_c, 9, 59, 54
4, 201810, Note_on_c, 9, 59, 0
4, 202560, Note_on_c, 9, 44, 44
4, 202620, Note_on_c, 9, 59, 72
4, 202928, Note_on_c, 9, 59, 0
4, 202929, Note_on_c, 9, 44, 0
4, 203605, Note_on_c, 9, 59, 42
4, 203895, Note_on_c, 9, 59, 0
4, 204533, Note_on_c, 9, 59, 60
4, 204890, Note_on_c, 9, 59, 0
4, 205440, Note_on_c, 9, 44, 44
4, 205485, Note_on_c, 9, 59, 44
4, 205837, Note_on_c, 9, 59, 0
4, 205869, Note_on_c, 9, 44, 0
4, 206390, Note_on_c, 9, 59, 60
4, 206400, Note_on_c, 9, 44, 42
4, 206737, Note_on_c, 9, 59, 0
4, 206859, Note_on_c, 9, 44, 0
4, 207426, Note_on_c, 9, 59, 55
4, 207782, Note_on_c, 9, 59, 0
4, 208320, Note_on_c, 9, 44, 44
4, 208354, Note_on_c, 9, 59, 81
4, 208732, Note_on_c, 9, 44, 0
4, 208823, Note_on_c, 9, 59, 0
4, 209314, Note_on_c, 9, 59, 55
4, 209661, Note_on_c, 9, 59, 0
4, 210264, Note_on_c, 9, 59, 89
4, 210827, Note_on_c, 9, 59, 0
4, 211300, Note_on_c, 9, 59, 32
4, 211630, Note_on_c, 9, 59, 0
4, 212160, Note_on_c, 9, 44, 43
4, 212174, Note_on_c, 9, 59, 39
4, 212607, Note_on_c, 9, 44, 0
4, 212699, Note_on_c, 9, 59, 0
4, 213160, Note_on_c, 9, 59, 50
4, 213483, Note_on_c, 9, 59, 0
4, 214080, Note_on_c, 9, 44, 46
4, 214158, Note_on_c, 9, 59, 80
4, 214432, Note_on_c, 9, 44, 0
4, 214602, Note_on_c, 9, 59, 0
4, 214798, Note_on_c, 9, 59, 49
4, 214919, Note_on_c, 9, 59, 0
4, 215124, Note_on_c, 9, 59, 62
4, 215609, Note_on_c, 9, 59, 0
4, 216000, Note_on_c, 9, 44, 44
4, 216062, Note_on_c, 9, 59, 64
4, 216342, Note_on_c, 9, 44, 0
4, 216379, Note_on_c, 9, 59, 0
4, 216796, Note_on_c, 9, 59, 47
4, 216898, Note_on_c, 9, 59, 0
4, 217062, Note_on_c, 9, 59, 68
4, 217337, Note_on_c, 9, 59, 0
4, 217920, Note_on_c, 9, 44, 46
4, 217945, Note_on_c, 9, 59, 80
4, 218292, Note_on_c, 9, 44, 0
4, 218356, Note_on_c, 9, 59, 0
4, 218934, Note_on_c, 9, 59, 68
4, 219361, Note_on_c, 9, 59, 0
4, 219539, Note_on_c, 9, 53, 41
4, 219774, Note_on_c, 9, 53, 0
4, 219840, Note_on_c, 9, 44, 46
4, 220057, Note_on_c, 9, 59, 45
4, 220177, Note_on_c, 9, 59, 0
4, 220197, Note_on_c, 9, 44, 0
4, 220938, Note_on_c, 9, 59, 67
4, 221285, Note_on_c, 9, 59, 0
4, 221486, Note_on_c, 9, 53, 55
4, 221760, Note_on_c, 9, 44, 44
4, 221778, Note_on_c, 9, 53, 0
4, 221855, Note_on_c, 9, 59, 48
4, 222156, Note_on_c, 9, 44, 0
4, 222202, Note_on_c, 9, 59, 0
4, 222502, Note_on_c, 9, 53, 66
4, 222751, Note_on_c, 9, 53, 0
4, 223056, Note_on_c, 9, 59, 35
4, 223232, Note_on_c, 9, 59, 0
4, 223680, Note_on_c, 9, 44, 43
4, 223820, Note_on_c, 9, 59, 59
4, 224059, Note_on_c, 9, 44, 0
4, 224160, Note_on_c, 9, 59, 0
4, 224782, Note_on_c, 9, 59, 57
4, 225345, Note_on_c, 9, 59, 0
4, 225385, Note_on_c, 9, 53, 59
4, 225600, Note_on_c, 9, 44, 47
4, 225669, Note_on_c, 9, 53, 0
4, 225774, Note_on_c, 9, 59, 40
4, 225985, Note_on_c, 9, 44, 0
4, 226141, Note_on_c, 9, 59, 0
4, 226729, Note_on_c, 9, 59, 58
4, 227108, Note_on_c, 9, 59, 0
4, 227520, Note_on_c, 9, 44, 44
4, 227616, Note_on_c, 9, 59, 65
4, 227907, Note_on_c, 9, 44, 0
4, 228030, Note_on_c, 9, 59, 0
4, 228562, Note_on_c, 9, 59, 70
4, 228934, Note_on_c, 9, 59, 0
4, 229231, Note_on_c, 9, 59, 46
4, 229343, Note_on_c, 9, 59, 0
4, 229440, Note_on_c, 9, 44, 43
4, 229524, Note_on_c, 9, 59, 68
4, 229918, Note_on_c, 9, 44, 0
4, 229997, Note_on_c, 9, 59, 0
4, 230436, Note_on_c, 9, 59, 66
4, 230885, Note_on_c, 9, 59, 0
4, 231360, Note_on_c, 9, 44, 39
4, 231381, Note_on_c, 9, 59, 64
4, 231796, Note_on_c, 9, 59, 0
4, 231869, Note_on_c, 9, 44, 0
4, 232083, Note_on_c, 9, 59, 48
4, 232220, Note_on_c, 9, 59, 0
4, 232320, Note_on_c, 9, 44, 40
4, 232381, Note_on_c, 9, 59, 58
4, 232824, Note_on_c, 9, 44, 0
4, 232897, Note_on_c, 9, 59, 0
4, 233330, Note_on_c, 9, 59, 78
4, 233799, Note_on_c, 9, 59, 0
4, 234003, Note_on_c, 9, 59, 43
4, 234137, Note_on_c, 9, 59, 0
4, 234295, Note_on_c, 9, 59, 63
4, 234781, Note_on_c, 9, 59, 0
4, 235200, Note_on_c, 9, 44, 41
4, 235235, Note_on_c, 9, 59, 85
4, 235696, Note_on_c, 9, 44, 0
4, 235820, Note_on_c, 9, 59, 0
4, 236180, Note_on_c, 9, 59, 66
4, 236475, Note_on_c, 9, 59, 0
4, 236904, Note_on_c, 9, 59, 38
4, 237026, Note_on_c, 9, 59, 0
4, 237120, Note_on_c, 9, 44, 41
4, 237132, Note_on_c, 9, 59, 59
4, 237529, Note_on_c, 9, 44, 0
4, 237790, Note_on_c, 9, 59, 0
4, 238080, Note_on_c, 9, 44, 38
4, 238149, Note_on_c, 9, 59, 74
4, 238601, Note_on_c, 9, 59, 0
4, 238606, Note_on_c, 9, 44, 0
4, 238779, Note_on_c, 9, 59, 60
4, 238937, Note_on_c, 9, 59, 0
4, 239113, Note_on_c, 9, 59, 78
4, 239711, Note_on_c, 9, 59, 0
4, 240000, Note_on_c, 9, 44, 46
4, 240032, Note_on_c, 9, 59, 68
4, 240374, Note_on_c, 9, 44, 0
4, 240475, Note_on_c, 9, 59, 0
4, 240960, Note_on_c, 9, 44, 47
4, 240994, Note_on_c, 9, 59, 71
4, 241420, Note_on_c, 9, 59, 0
4, 241431, Note_on_c, 9, 44, 0
4, 241705, Note_on_c, 9, 59, 27
4, 241842, Note_on_c, 9, 59, 0
4, 241931, Note_on_c, 9, 59, 37
4, 242419, Note_on_c, 9, 59, 0
4, 242871, Note_on_c, 9, 59, 87
4, 242880, Note_on_c, 9, 44, 46
4, 243276, Note_on_c, 9, 44, 0
4, 243362, Note_on_c, 9, 59, 0
4, 243610, Note_on_c, 9, 59, 42
4, 243754, Note_on_c, 9, 59, 0
4, 243915, Note_on_c, 9, 59, 66
4, 244408, Note_on_c, 9, 59, 0
4, 244800, Note_on_c, 9, 44, 40
4, 244842, Note_on_c, 9, 59, 81
4, 245207, Note_on_c, 9, 44, 0
4, 245251, Note_on_c, 9, 59, 0
4, 245517, Note_on_c, 9, 51, 86
4, 245760, Note_on_c, 9, 44, 19
4, 246199, Note_on_c, 9, 44, 0
4, 246527, Note_on_c, 9, 51, 0
4, 246720, Note_on_c, 9, 44, 30
4, 246749, Note_on_c, 9, 51, 62
4, 247197, Note_on_c, 9, 44, 0
4, 247337, Note_on_c, 9, 51, 0
4, 247680, Note_on_c, 9, 44, 23
4, 247734, Note_on_c, 9, 51, 74
4, 248294, Note_on_c, 9, 51, 0
4, 248406, Note_on_c, 9, 44, 0
4, 248640, Note_on_c, 9, 44, 37
4, 248681, Note_on_c, 9, 51, 72
4, 249113, Note_on_c, 9, 51, 0
4, 249131, Note_on_c, 9, 44, 0
4, 249381, Note_on_c, 9, 51, 39
4, 249495, Note_on_c, 9, 51, 0
4, 249600, Note_on_c, 9, 44, 23
4, 249642, Note_on_c, 9, 51, 65
4, 250081, Note_on_c, 9, 44, 0
4, 250269, Note_on_c, 9, 51, 0
4, 250560, Note_on_c, 9, 44, 42
4, 250636, Note_on_c, 9, 51, 75
4, 250987, Note_on_c, 9, 44, 0
4, 251159, Note_on_c, 9, 51, 0
4, 251520, Note_on_c, 9, 44, 21
4, 251613, Note_on_c, 9, 51, 72
4, 251878, Note_on_c, 9, 44, 0
4, 252059, Note_on_c, 9, 51, 0
4, 252480, Note_on_c, 9, 44, 44
4, 252566, Note_on_c, 9, 51, 72
4, 252937, Note_on_c, 9, 44, 0
4, 253036, Note_on_c, 9, 51, 0
4, 253440, Note_on_c, 9, 44, 19
4, 253491, Note_on_c, 9, 51, 70
4, 253910, Note_on_c, 9, 51, 0
4, 253919, Note_on_c, 9, 44, 0
4, 254400, Note_on_c, 9, 44, 27
4, 254453, Note_on_c, 9, 51, 71
4, 254743, Note_on_c, 9, 51, 0
4, 254901, Note_on_c, 9, 44, 0
4, 255109, Note_on_c, 9, 51, 56
4, 255294, Note_on_c, 9, 51, 0
4, 255360, Note_on_c, 9, 44, 21
4, 255432, Note_on_c, 9, 51, 69
4, 255843, Note_on_c, 9, 44, 0
4, 255869, Note_on_c, 9, 51, 0
4, 256320, Note_on_c, 9, 44, 24
4, 256370, Note_on_c, 9, 51, 74
4, 256777, Note_on_c, 9, 51, 0
4, 256824, Note_on_c, 9, 44, 0
4, 257067, Note_on_c, 9, 51, 42
4, 257156, Note_on_c, 9, 51, 0
4, 257280, Note_on_c, 9, 44, 21
4, 257332, Note_on_c, 9, 51, 49
4, 257741, Note_on_c, 9, 51, 0
4, 257846, Note_on_c, 9, 44, 0
4, 258240, Note_on_c, 9, 44, 35
4, 258324, Note_on_c, 9, 51, 75
4, 258714, Note_on_c, 9, 44, 0
4, 258829, Note_on_c, 9, 51, 0
4, 259200, Note_on_c, 9, 44, 29
4, 259284, Note_on_c, 9, 51, 69
4, 259698, Note_on_c, 9, 44, 0
4, 259725, Note_on_c, 9, 51, 0
4, 260160, Note_on_c, 9, 44, 42
4, 260231, Note_on_c, 9, 51, 65
4, 260586, Note_on_c, 9, 44, 0
4, 260611, Note_on_c, 9, 51, 0
4, 260848, Note_on_c, 9, 51, 43
4, 260898, Note_on_c, 9, 53, 58
4, 261120, Note_on_c, 9, 44, 25
4, 261573, Note_on_c, 9, 51, 0
4, 261595, Note_on_c, 9, 44, 0
4, 261751, Note_on_c, 9, 53, 0
4, 261860, Note_on_c, 9, 51, 30
4, 261994, Note_on_c, 9, 51, 0
4, 262080, Note_on_c, 9, 44, 42
4, 262240, Note_on_c, 9, 53, 64
4, 262242, Note_on_c, 9, 51, 58
4, 262564, Note_on_c, 9, 44, 0
4, 262845, Note_on_c, 9, 51, 0
4, 262983, Note_on_c, 9, 53, 0
4, 263040, Note_on_c, 9, 44, 32
4, 263132, Note_on_c, 9, 51, 36
4, 263393, Note_on_c, 9, 51, 0
4, 263449, Note_on_c, 9, 44, 0
4, 263763, Note_on_c, 9, 53, 64
4, 263778, Note_on_c, 9, 51, 55
4, 264000, Note_on_c, 9, 44, 42
4, 264268, Note_on_c, 9, 51, 0
4, 264467, Note_on_c, 9, 53, 0
4, 264536, Note_on_c, 9, 44, 0
4, 264710, Note_on_c, 9, 51, 37
4, 264861, Note_on_c, 9, 51, 0
4, 264960, Note_on_c, 9, 44, 30
4, 265087, Note_on_c, 9, 53, 65
4, 265090, Note_on_c, 9, 51, 56
4, 265448, Note_on_c, 9, 44, 0
4, 265617, Note_on_c, 9, 53, 0
4, 265672, Note_on_c, 9, 51, 0
4, 265920, Note_on_c, 9, 44, 39
4, 266119, Note_on_c, 9, 51, 19
4, 266416, Note_on_c, 9, 44, 0
4, 266426, Note_on_c, 9, 51, 0
4, 266641, Note_on_c, 9, 51, 55
4, 266828, Note_on_c, 9, 51, 0
4, 266880, Note_on_c, 9, 44, 36
4, 267016, Note_on_c, 9, 51, 36
4, 267428, Note_on_c, 9, 44, 0
4, 267633, Note_on_c, 9, 51, 0
4, 267840, Note_on_c, 9, 44, 48
4, 267914, Note_on_c, 9, 51, 69
4, 268464, Note_on_c, 9, 51, 0
4, 268492, Note_on_c, 9, 44, 0
4, 268800, Note_on_c, 9, 44, 39
4, 268873, Note_on_c, 9, 51, 57
4, 269250, Note_on_c, 9, 51, 0
4, 269373, Note_on_c, 9, 44, 0
4, 269487, Note_on_c, 9, 51, 46
4, 269501, Note_on_c, 9, 53, 60
4, 269760, Note_on_c, 9, 44, 35
4, 270079, Note_on_c, 9, 51, 0
4, 270236, Note_on_c, 9, 53, 0
4, 270284, Note_on_c, 9, 44, 0
4, 270451, Note_on_c, 9, 51, 29
4, 270615, Note_on_c, 9, 51, 0
4, 270720, Note_on_c, 9, 44, 26
4, 270841, Note_on_c, 9, 53, 59
4, 270853, Note_on_c, 9, 51, 47
4, 271308, Note_on_c, 9, 44, 0
4, 271324, Note_on_c, 9, 51, 0
4, 271461, Note_on_c, 9, 53, 0
4, 271680, Note_on_c, 9, 44, 25
4, 271758, Note_on_c, 9, 51, 38
4, 271939, Note_on_c, 9, 51, 0
4, 272179, Note_on_c, 9, 44, 0
4, 272343, Note_on_c, 9, 51, 77
4, 272640, Note_on_c, 9, 44, 32
4, 272889, Note_on_c, 9, 51, 0
4, 273169, Note_on_c, 9, 44, 0
4, 273385, Note_on_c, 9, 51, 36
4, 273551, Note_on_c, 9, 51, 0
4, 273600, Note_on_c, 9, 44, 25
4, 273725, Note_on_c, 9, 51, 64
4, 273750, Note_on_c, 9, 53, 74
4, 274121, Note_on_c, 9, 44, 0
4, 274178, Note_on_c, 9, 51, 0
4, 274385, Note_on_c, 9, 53, 0
4, 274560, Note_on_c, 9, 44, 30
4, 274672, Note_on_c, 9, 51, 47
4, 274972, Note_on_c, 9, 51, 0
4, 275055, Note_on_c, 9, 44, 0
4, 275207, Note_on_c, 9, 51, 79
4, 275520, Note_on_c, 9, 44, 35
4, 275654, Note_on_c, 9, 51, 0
4, 276071, Note_on_c, 9, 44, 0
4, 276214, Note_on_c, 9, 51, 46
4, 276393, Note_on_c, 9, 51, 0
4, 276480, Note_on_c, 9, 44, 24
4, 276547, Note_on_c, 9, 51, 62
4, 277050, Note_on_c, 9, 44, 0
4, 277112, Note_on_c, 9, 51, 0
4, 277440, Note_on_c, 9, 44, 51
4, 277512, Note_on_c, 9, 51, 75
4, 277901, Note_on_c, 9, 51, 0
4, 277983, Note_on_c, 9, 44, 0
4, 278231, Note_on_c, 9, 51, 46
4, 278335, Note_on_c, 9, 51, 0
4, 278400, Note_on_c, 9, 44, 27
4, 278471, Note_on_c, 9, 51, 69
4, 278985, Note_on_c, 9, 44, 0
4, 278992, Note_on_c, 9, 51, 0
4, 279360, Note_on_c, 9, 44, 44
4, 279409, Note_on_c, 9, 51, 76
4, 279865, Note_on_c, 9, 51, 0
4, 279903, Note_on_c, 9, 44, 0
4, 280320, Note_on_c, 9, 44, 24
4, 280361, Note_on_c, 9, 51, 73
4, 280810, Note_on_c, 9, 51, 0
4, 280843, Note_on_c, 9, 44, 0
4, 281280, Note_on_c, 9, 44, 42
4, 281335, Note_on_c, 9, 51, 74
4, 281733, Note_on_c, 9, 51, 0
4, 281785, Note_on_c, 9, 44, 0
4, 282240, Note_on_c, 9, 44, 25
4, 282246, Note_on_c, 9, 51, 62
4, 282662, Note_on_c, 9, 51, 0
4, 282790, Note_on_c, 9, 44, 0
4, 283193, Note_on_c, 9, 51, 77
4, 283200, Note_on_c, 9, 44, 30
4, 283575, Note_on_c, 9, 51, 0
4, 283659, Note_on_c, 9, 44, 0
4, 283846, Note_on_c, 9, 51, 39
4, 283957, Note_on_c, 9, 51, 0
4, 284148, Note_on_c, 9, 51, 49
4, 284160, Note_on_c, 9, 44, 26
4, 284611, Note_on_c, 9, 44, 0
4, 284657, Note_on_c, 9, 51, 0
4, 285120, Note_on_c, 9, 44, 35
4, 285132, Note_on_c, 9, 51, 75
4, 285561, Note_on_c, 9, 51, 0
4, 285562, Note_on_c, 9, 44, 0
4, 285904, Note_on_c, 9, 51, 35
4, 285993, Note_on_c, 9, 51, 0
4, 286080, Note_on_c, 9, 44, 28
4, 286162, Note_on_c, 9, 51, 42
4, 286412, Note_on_c, 9, 51, 0
4, 286497, Note_on_c, 9, 44, 0
4, 286837, Note_on_c, 9, 51, 42
4, 286920, Note_on_c, 9, 51, 0
4, 287040, Note_on_c, 9, 44, 35
4, 287092, Note_on_c, 9, 51, 46
4, 287462, Note_on_c, 9, 44, 0
4, 287674, Note_on_c, 9, 51, 0
4, 288000, Note_on_c, 9, 44, 28
4, 288391, Note_on_c, 9, 44, 0
4, 288689, Note_on_c, 9, 51, 39
4, 288780, Note_on_c, 9, 51, 0
4, 288944, Note_on_c, 9, 51, 39
4, 288960, Note_on_c, 9, 44, 40
4, 289483, Note_on_c, 9, 44, 0
4, 289500, Note_on_c, 9, 51, 0
4, 289920, Note_on_c, 9, 44, 34
4, 290033, Note_on_c, 9, 51, 62
4, 290199, Note_on_c, 9, 51, 0
4, 290339, Note_on_c, 9, 44, 0
4, 290616, Note_on_c, 9, 51, 67
4, 290826, Note_on_c, 9, 51, 0
4, 290880, Note_on_c, 9, 44, 35
4, 291361, Note_on_c, 9, 44, 0
4, 291568, Note_on_c, 9, 51, 54
4, 291702, Note_on_c, 9, 51, 0
4, 291840, Note_on_c, 9, 44, 35
4, 291883, Note_on_c, 9, 51, 59
4, 292269, Note_on_c, 9, 44, 0
4, 292443, Note_on_c, 9, 51, 0
4, 292800, Note_on_c, 9, 44, 37
4, 292848, Note_on_c, 9, 51, 71
4, 293180, Note_on_c, 9, 51, 0
4, 293286, Note_on_c, 9, 44, 0
4, 293468, Note_on_c, 9, 51, 67
4, 293760, Note_on_c, 9, 44, 18
4, 293845, Note_on_c, 9, 51, 0
4, 294165, Note_on_c, 9, 44, 0
4, 294477, Note_on_c, 9, 51, 36
4, 294572, Note_on_c, 9, 51, 0
4, 294720, Note_on_c, 9, 44, 36
4, 294817, Note_on_c, 9, 51, 69
4, 295176, Note_on_c, 9, 44, 0
4, 295367, Note_on_c, 9, 51, 0
4, 295675, Note_on_c, 9, 51, 37
4, 295680, Note_on_c, 9, 44, 27
4, 295779, Note_on_c, 9, 51, 0
4, 296116, Note_on_c, 9, 44, 0
4, 296404, Note_on_c, 9, 51, 74
4, 296640, Note_on_c, 9, 44, 42
4, 296962, Note_on_c, 9, 51, 0
4, 297126, Note_on_c, 9, 44, 0
4, 297600, Note_on_c, 9, 44, 26
4, 297696, Note_on_c, 9, 51, 76
4, 298047, Note_on_c, 9, 44, 0
4, 298157, Note_on_c, 9, 51, 0
4, 298560, Note_on_c, 9, 44, 38
4, 298629, Note_on_c, 9, 51, 44
4, 298721, Note_on_c, 9, 51, 0
4, 299006, Note_on_c, 9, 44, 0
4, 299259, Note_on_c, 9, 51, 77
4, 299520, Note_on_c, 9, 44, 32
4, 299623, Note_on_c, 9, 51, 0
4, 299986, Note_on_c, 9, 44, 0
4, 300206, Note_on_c, 9, 51, 34
4, 300298, Note_on_c, 9, 51, 0
4, 300480, Note_on_c, 9, 44, 32
4, 300593, Note_on_c, 9, 51, 79
4, 300917, Note_on_c, 9, 44, 0
4, 301074, Note_on_c, 9, 51, 0
4, 301440, Note_on_c, 9, 44, 32
4, 301495, Note_on_c, 9, 51, 39
4, 301614, Note_on_c, 9, 51, 0
4, 301885, Note_on_c, 9, 44, 0
4, 302086, Note_on_c, 9, 51, 61
4, 302133, Note_on_c, 9, 53, 45
4, 302400, Note_on_c, 9, 44, 32
4, 302478, Note_on_c, 9, 51, 0
4, 302671, Note_on_c, 9, 53, 0
4, 302939, Note_on_c, 9, 44, 0
4, 303001, Note_on_c, 9, 51, 46
4, 303120, Note_on_c, 9, 51, 0
4, 303360, Note_on_c, 9, 44, 32
4, 303465, Note_on_c, 9, 51, 64
4, 303507, Note_on_c, 9, 53, 62
4, 303797, Note_on_c, 9, 44, 0
4, 303993, Note_on_c, 9, 51, 0
4, 304154, Note_on_c, 9, 53, 0
4, 304320, Note_on_c, 9, 44, 37
4, 304365, Note_on_c, 9, 51, 47
4, 304571, Note_on_c, 9, 51, 0
4, 304803, Note_on_c, 9, 44, 0
4, 304931, Note_on_c, 9, 51, 68
4, 304951, Note_on_c, 9, 53, 66
4, 305280, Note_on_c, 9, 44, 34
4, 305342, Note_on_c, 9, 51, 0
4, 305563, Note_on_c, 9, 53, 0
4, 305750, Note_on_c, 9, 44, 0
4, 305910, Note_on_c, 9, 51, 42
4, 306047, Note_on_c, 9, 51, 0
4, 306240, Note_on_c, 9, 44, 48
4, 306285, Note_on_c, 9, 53, 72
4, 306287, Note_on_c, 9, 51, 69
4, 306803, Note_on_c, 9, 51, 0
4, 306840, Note_on_c, 9, 53, 0
4, 306892, Note_on_c, 9, 44, 0
4, 307200, Note_on_c, 9, 44, 32
4, 307207, Note_on_c, 9, 51, 36
4, 307457, Note_on_c, 9, 51, 0
4, 307655, Note_on_c, 9, 44, 0
4, 307822, Note_on_c, 9, 53, 68
4, 307827, Note_on_c, 9, 51, 64
4, 308160, Note_on_c, 9, 44, 37
4, 308184, Note_on_c, 9, 53, 0
4, 308288, Note_on_c, 9, 51, 0
4, 308734, Note_on_c, 9, 44, 0
4, 308752, Note_on_c, 9, 51, 47
4, 308916, Note_on_c, 9, 51, 0
4, 309120, Note_on_c, 9, 44, 31
4, 309191, Note_on_c, 9, 51, 72
4, 309597, Note_on_c, 9, 44, 0
4, 309702, Note_on_c, 9, 51, 0
4, 310080, Note_on_c, 9, 44, 31
4, 310143, Note_on_c, 9, 51, 43
4, 310436, Note_on_c, 9, 51, 0
4, 310624, Note_on_c, 9, 44, 0
4, 310746, Note_on_c, 9, 51, 76
4, 311040, Note_on_c, 9, 44, 25
4, 311289, Note_on_c, 9, 51, 0
4, 311691, Note_on_c, 9, 51, 43
4, 311720, Note_on_c, 9, 44, 0
4, 311887, Note_on_c, 9, 51, 0
4, 312000, Note_on_c, 9, 44, 43
4, 312078, Note_on_c, 9, 51, 52
4, 312516, Note_on_c, 9, 51, 0
4, 312598, Note_on_c, 9, 44, 0
4, 312960, Note_on_c, 9, 44, 29
4, 313012, Note_on_c, 9, 51, 65
4, 313382, Note_on_c, 9, 44, 0
4, 313462, Note_on_c, 9, 51, 0
4, 313900, Note_on_c, 9, 51, 68
4, 313920, Note_on_c, 9, 44, 37
4, 314201, Note_on_c, 9, 51, 0
4, 314393, Note_on_c, 9, 44, 0
4, 314620, Note_on_c, 9, 51, 49
4, 314748, Note_on_c, 9, 51, 0
4, 314880, Note_on_c, 9, 44, 36
4, 314913, Note_on_c, 9, 51, 65
4, 315396, Note_on_c, 9, 44, 0
4, 315492, Note_on_c, 9, 51, 0
4, 315840, Note_on_c, 9, 44, 34
4, 315897, Note_on_c, 9, 51, 74
4, 316279, Note_on_c, 9, 44, 0
4, 316356, Note_on_c, 9, 51, 0
4, 316514, Note_on_c, 9, 51, 45
4, 316683, Note_on_c, 9, 51, 0
4, 316800, Note_on_c, 9, 44, 33
4, 316899, Note_on_c, 9, 51, 36
4, 317144, Note_on_c, 9, 51, 0
4, 317191, Note_on_c, 9, 44, 0
4, 317760, Note_on_c, 9, 44, 38
4, 317796, Note_on_c, 9, 51, 90
4, 318249, Note_on_c, 9, 44, 0
4, 318397, Note_on_c, 9, 51, 0
4, 318720, Note_on_c, 9, 44, 30
4, 318788, Note_on_c, 9, 51, 40
4, 319015, Note_on_c, 9, 51, 0
4, 319151, Note_on_c, 9, 44, 0
4, 319676, Note_on_c, 9, 51, 69
4, 319680, Note_on_c, 9, 44, 34
4, 320086, Note_on_c, 9, 51, 0
4, 320107, Note_on_c, 9, 44, 0
4, 320309, Note_on_c, 9, 51, 34
4, 320480, Note_on_c, 9, 51, 0
4, 320624, Note_on_c, 9, 51, 62
4, 320640, Note_on_c, 9, 44, 32
4, 321055, Note_on_c, 9, 44, 0
4, 321206, Note_on_c, 9, 51, 0
4, 321600, Note_on_c, 9, 44, 39
4, 321635, Note_on_c, 9, 51, 74
4, 321986, Note_on_c, 9, 44, 0
4, 322072, Note_on_c, 9, 51, 0
4, 322360, Note_on_c, 9, 51, 37
4, 322471, Note_on_c, 9, 51, 0
4, 322560, Note_on_c, 9, 44, 39
4, 322625, Note_on_c, 9, 51, 61
4, 322976, Note_on_c, 9, 44, 0
4, 323029, Note_on_c, 9, 51, 0
4, 323520, Note_on_c, 9, 44, 36
4, 323595, Note_on_c, 9, 51, 71
4, 323887, Note_on_c, 9, 44, 0
4, 323999, Note_on_c, 9, 51, 0
4, 324244, Note_on_c, 9, 51, 34
4, 324349, Note_on_c, 9, 51, 0
4, 324480, Note_on_c, 9, 44, 32
4, 324515, Note_on_c, 9, 51, 51
4, 324873, Note_on_c, 9, 44, 0
4, 324977, Note_on_c, 9, 51, 0
4, 325440, Note_on_c, 9, 44, 32
4, 325502, Note_on_c, 9, 51, 70
4, 325827, Note_on_c, 9, 44, 0
4, 326026, Note_on_c, 9, 51, 0
4, 326400, Note_on_c, 9, 44, 35
4, 326472, Note_on_c, 9, 51, 69
4, 326772, Note_on_c, 9, 44, 0
4, 326881, Note_on_c, 9, 51, 0
4, 327360, Note_on_c, 9, 44, 33
4, 327419, Note_on_c, 9, 51, 68
4, 327715, Note_on_c, 9, 44, 0
4, 327779, Note_on_c, 9, 51, 0
4, 328094, Note_on_c, 9, 51, 37
4, 328183, Note_on_c, 9, 51, 0
4, 328320, Note_on_c, 9, 44, 29
4, 328326, Note_on_c, 9, 51, 60
4, 328680, Note_on_c, 9, 44, 0
4, 328746, Note_on_c, 9, 51, 0
4, 329280, Note_on_c, 9, 44, 34
4, 329338, Note_on_c, 9, 51, 74
4, 329672, Note_on_c, 9, 44, 0
4, 329772, Note_on_c, 9, 51, 0
4, 329988, Note_on_c, 9, 51, 26
4, 330103, Note_on_c, 9, 51, 0
4, 330240, Note_on_c, 9, 44, 31
4, 330243, Note_on_c, 9, 51, 60
4, 330570, Note_on_c, 9, 44, 0
4, 330757, Note_on_c, 9, 51, 0
4, 331200, Note_on_c, 9, 44, 35
4, 331256, Note_on_c, 9, 51, 76
4, 331604, Note_on_c, 9, 44, 0
4, 331642, Note_on_c, 9, 51, 0
4, 332160, Note_on_c, 9, 44, 23
4, 332203, Note_on_c, 9, 51, 64
4, 332508, Note_on_c, 9, 44, 0
4, 332630, Note_on_c, 9, 51, 0
4, 333120, Note_on_c, 9, 44, 35
4, 333195, Note_on_c, 9, 51, 71
4, 333549, Note_on_c, 9, 51, 0
4, 333564, Note_on_c, 9, 44, 0
4, 333906, Note_on_c, 9, 51, 25
4, 333991, Note_on_c, 9, 51, 0
4, 334080, Note_on_c, 9, 44, 27
4, 334120, Note_on_c, 9, 51, 68
4, 334486, Note_on_c, 9, 44, 0
4, 334566, Note_on_c, 9, 51, 0
4, 335040, Note_on_c, 9, 44, 35
4, 335102, Note_on_c, 9, 51, 77
4, 335432, Note_on_c, 9, 44, 0
4, 335631, Note_on_c, 9, 51, 0
4, 336000, Note_on_c, 9, 44, 32
4, 336116, Note_on_c, 9, 51, 71
4, 336340, Note_on_c, 9, 44, 0
4, 336511, Note_on_c, 9, 51, 0
4, 336960, Note_on_c, 9, 44, 32
4, 337005, Note_on_c, 9, 51, 67
4, 337366, Note_on_c, 9, 44, 0
4, 337476, Note_on_c, 9, 51, 0
4, 337693, Note_on_c, 9, 51, 35
4, 337850, Note_on_c, 9, 51, 0
4, 337920, Note_on_c, 9, 44, 25
4, 337977, Note_on_c, 9, 51, 60
4, 338293, Note_on_c, 9, 44, 0
4, 338494, Note_on_c, 9, 51, 0
4, 338880, Note_on_c, 9, 44, 35
4, 338936, Note_on_c, 9, 51, 72
4, 339277, Note_on_c, 9, 44, 0
4, 339497, Note_on_c, 9, 51, 0
4, 339840, Note_on_c, 9, 44, 23
4, 339926, Note_on_c, 9, 51, 67
4, 340207, Note_on_c, 9, 44, 0
4, 340345, Note_on_c, 9, 51, 0
4, 340800, Note_on_c, 9, 44, 35
4, 340920, Note_on_c, 9, 51, 74
4, 341267, Note_on_c, 9, 44, 0
4, 341354, Note_on_c, 9, 51, 0
4, 341760, Note_on_c, 9, 44, 31
4, 341845, Note_on_c, 9, 51, 67
4, 342145, Note_on_c, 9, 44, 0
4, 342165, Note_on_c, 9, 51, 0
4, 342720, Note_on_c, 9, 44, 34
4, 342743, Note_on_c, 9, 51, 70
4, 343063, Note_on_c, 9, 51, 0
4, 343111, Note_on_c, 9, 44, 0
4, 343445, Note_on_c, 9, 51, 34
4, 343547, Note_on_c, 9, 51, 0
4, 343680, Note_on_c, 9, 44, 31
4, 343705, Note_on_c, 9, 51, 59
4, 344123, Note_on_c, 9, 44, 0
4, 344124, Note_on_c, 9, 51, 0
4, 344640, Note_on_c, 9, 44, 38
4, 344697, Note_on_c, 9, 51, 74
4, 345082, Note_on_c, 9, 44, 0
4, 345129, Note_on_c, 9, 51, 0
4, 345434, Note_on_c, 9, 51, 35
4, 345518, Note_on_c, 9, 51, 0
4, 345600, Note_on_c, 9, 44, 27
4, 345650, Note_on_c, 9, 51, 60
4, 345982, Note_on_c, 9, 44, 0
4, 346027, Note_on_c, 9, 51, 0
4, 346560, Note_on_c, 9, 44, 35
4, 346592, Note_on_c, 9, 51, 74
4, 347026, Note_on_c, 9, 44, 0
4, 347058, Note_on_c, 9, 51, 0
4, 347520, Note_on_c, 9, 44, 30
4, 347599, Note_on_c, 9, 51, 73
4, 347835, Note_on_c, 9, 44, 0
4, 347899, Note_on_c, 9, 51, 0
4, 348480, Note_on_c, 9, 44, 34
4, 348499, Note_on_c, 9, 51, 82
4, 348881, Note_on_c, 9, 44, 0
4, 348958, Note_on_c, 9, 51, 0
4, 349440, Note_on_c, 9, 44, 27
4, 349474, Note_on_c, 9, 51, 67
4, 349810, Note_on_c, 9, 44, 0
4, 349900, Note_on_c, 9, 51, 0
4, 350400, Note_on_c, 9, 44, 35
4, 350446, Note_on_c, 9, 51, 78
4, 350746, Note_on_c, 9, 44, 0
4, 350838, Note_on_c, 9, 51, 0
4, 351162, Note_on_c, 9, 51, 47
4, 351261, Note_on_c, 9, 51, 0
4, 351360, Note_on_c, 9, 44, 32
4, 351433, Note_on_c, 9, 51, 65
4, 351716, Note_on_c, 9, 51, 0
4, 351806, Note_on_c, 9, 44, 0
4, 352320, Note_on_c, 9, 44, 40
4, 352375, Note_on_c, 9, 51, 81
4, 352797, Note_on_c, 9, 44, 0
4, 352854, Note_on_c, 9, 51, 0
4, 353055, Note_on_c, 9, 51, 32
4, 353174, Note_on_c, 9, 51, 0
4, 353280, Note_on_c, 9, 44, 30
4, 353320, Note_on_c, 9, 51, 59
4, 353552, Note_on_c, 9, 44, 0
4, 353761, Note_on_c, 9, 51, 0
4, 354240, Note_on_c, 9, 44, 37
4, 354295, Note_on_c, 9, 51, 77
4, 354694, Note_on_c, 9, 51, 0
4, 354694, Note_on_c, 9, 44, 0
4, 355046, Note_on_c, 9, 51, 32
4, 355155, Note_on_c, 9, 51, 0
4, 355200, Note_on_c, 9, 44, 21
4, 355297, Note_on_c, 9, 51, 53
4, 355637, Note_on_c, 9, 44, 0
4, 355787, Note_on_c, 9, 51, 0
4, 356160, Note_on_c, 9, 44, 38
4, 356221, Note_on_c, 9, 51, 74
4, 356678, Note_on_c, 9, 51, 0
4, 356696, Note_on_c, 9, 44, 0
4, 357120, Note_on_c, 9, 44, 28
4, 357223, Note_on_c, 9, 51, 73
4, 357613, Note_on_c, 9, 51, 0
4, 357628, Note_on_c, 9, 44, 0
4, 358080, Note_on_c, 9, 44, 38
4, 358179, Note_on_c, 9, 51, 71
4, 358522, Note_on_c, 9, 44, 0
4, 358711, Note_on_c, 9, 51, 0
4, 359040, Note_on_c, 9, 44, 28
4, 359148, Note_on_c, 9, 51, 61
4, 359501, Note_on_c, 9, 44, 0
4, 359543, Note_on_c, 9, 51, 0
4, 359855, Note_on_c, 9, 51, 48
4, 359947, Note_on_c, 9, 51, 0
4, 360000, Note_on_c, 9, 44, 32
4, 360085, Note_on_c, 9, 51, 65
4, 360486, Note_on_c, 9, 44, 0
4, 360490, Note_on_c, 9, 51, 0
4, 360960, Note_on_c, 9, 44, 19
4, 361023, Note_on_c, 9, 51, 74
4, 361322, Note_on_c, 9, 44, 0
4, 361378, Note_on_c, 9, 51, 0
4, 361920, Note_on_c, 9, 44, 26
4, 361973, Note_on_c, 9, 51, 69
4, 362317, Note_on_c, 9, 51, 0
4, 362493, Note_on_c, 9, 44, 0
4, 362674, Note_on_c, 9, 51, 51
4, 362813, Note_on_c, 9, 51, 0
4, 362880, Note_on_c, 9, 44, 22
4, 362958, Note_on_c, 9, 51, 69
4, 363348, Note_on_c, 9, 44, 0
4, 363424, Note_on_c, 9, 51, 0
4, 363840, Note_on_c, 9, 44, 32
4, 363905, Note_on_c, 9, 51, 76
4, 364272, Note_on_c, 9, 51, 0
4, 364307, Note_on_c, 9, 44, 0
4, 364562, Note_on_c, 9, 51, 42
4, 364669, Note_on_c, 9, 51, 0
4, 364800, Note_on_c, 9, 44, 26
4, 364823, Note_on_c, 9, 51, 60
4, 365212, Note_on_c, 9, 44, 0
4, 365293, Note_on_c, 9, 51, 0
4, 365760, Note_on_c, 9, 44, 38
4, 365804, Note_on_c, 9, 51, 78
4, 366303, Note_on_c, 9, 51, 0
4, 366325, Note_on_c, 9, 44, 0
4, 366720, Note_on_c, 9, 44, 26
4, 366777, Note_on_c, 9, 51, 71
4, 367233, Note_on_c, 9, 44, 0
4, 367307, Note_on_c, 9, 51, 0
4, 367680, Note_on_c, 9, 44, 36
4, 367773, Note_on_c, 9, 51, 61
4, 368237, Note_on_c, 9, 51, 0
4, 368380, Note_on_c, 9, 44, 0
4, 368666, Note_on_c, 9, 51, 55
4, 368689, Note_on_c, 9, 59, 47
4, 369046, Note_on_c, 9, 51, 0
4, 369073, Note_on_c, 9, 59, 0
4, 369600, Note_on_c, 9, 44, 30
4, 369602, Note_on_c, 9, 59, 74
4, 369629, Note_on_c, 9, 51, 51
4, 369976, Note_on_c, 9, 51, 0
4, 370055, Note_on_c, 9, 59, 0
4, 370096, Note_on_c, 9, 44, 0
4, 370584, Note_on_c, 9, 59, 55
4, 371010, Note_on_c, 9, 59, 0
4, 371520, Note_on_c, 9, 44, 31
4, 371590, Note_on_c, 9, 59, 83
4, 372060, Note_on_c, 9, 44, 0
4, 372072, Note_on_c, 9, 59, 0
4, 372530, Note_on_c, 9, 59, 64
4, 372815, Note_on_c, 9, 59, 0
4, 373440, Note_on_c, 9, 44, 33
4, 373513, Note_on_c, 9, 59, 75
4, 373899, Note_on_c, 9, 59, 0
4, 374008, Note_on_c, 9, 44, 0
4, 374187, Note_on_c, 9, 59, 46
4, 374311, Note_on_c, 9, 59, 0
4, 374490, Note_on_c, 9, 59, 78
4, 374928, Note_on_c, 9, 59, 0
4, 375360, Note_on_c, 9, 44, 37
4, 375494, Note_on_c, 9, 59, 77
4, 375804, Note_on_c, 9, 59, 0
4, 375834, Note_on_c, 9, 44, 0
4, 376174, Note_on_c, 9, 59, 48
4, 376270, Note_on_c, 9, 59, 0
4, 376419, Note_on_c, 9, 59, 71
4, 376828, Note_on_c, 9, 59, 0
4, 377280, Note_on_c, 9, 44, 35
4, 377359, Note_on_c, 9, 59, 83
4, 377724, Note_on_c, 9, 44, 0
4, 377939, Note_on_c, 9, 59, 0
4, 378240, Note_on_c, 9, 44, 34
4, 378321, Note_on_c, 9, 59, 74
4, 378656, Note_on_c, 9, 59, 0
4, 378805, Note_on_c, 9, 44, 0
4, 379236, Note_on_c, 9, 59, 78
4, 379618, Note_on_c, 9, 59, 0
4, 380160, Note_on_c, 9, 44, 38
4, 380238, Note_on_c, 9, 59, 71
4, 380575, Note_on_c, 9, 59, 0
4, 380612, Note_on_c, 9, 44, 0
4, 381120, Note_on_c, 9, 44, 36
4, 381203, Note_on_c, 9, 59, 69
4, 381590, Note_on_c, 9, 59, 0
4, 381682, Note_on_c, 9, 44, 0
4, 382142, Note_on_c, 9, 59, 70
4, 382537, Note_on_c, 9, 59, 0
4, 383040, Note_on_c, 9, 44, 42
4, 383137, Note_on_c, 9, 59, 70
4, 383462, Note_on_c, 9, 44, 0
4, 383536, Note_on_c, 9, 59, 0
4, 384000, Note_on_c, 9, 44, 40
4, 384094, Note_on_c, 9, 59, 70
4, 384429, Note_on_c, 9, 44, 0
4, 384439, Note_on_c, 9, 59, 0
4, 384759, Note_on_c, 9, 59, 53
4, 384873, Note_on_c, 9, 59, 0
4, 385042, Note_on_c, 9, 59, 75
4, 385541, Note_on_c, 9, 59, 0
4, 385920, Note_on_c, 9, 44, 38
4, 385997, Note_on_c, 9, 59, 69
4, 386340, Note_on_c, 9, 44, 0
4, 386409, Note_on_c, 9, 59, 0
4, 386616, Note_on_c, 9, 59, 38
4, 386756, Note_on_c, 9, 59, 0
4, 386880, Note_on_c, 9, 44, 42
4, 386914, Note_on_c, 9, 59, 78
4, 387461, Note_on_c, 9, 44, 0
4, 387489, Note_on_c, 9, 59, 0
4, 387899, Note_on_c, 9, 59, 71
4, 388370, Note_on_c, 9, 59, 0
4, 388800, Note_on_c, 9, 44, 39
4, 388832, Note_on_c, 9, 59, 68
4, 389218, Note_on_c, 9, 59, 0
4, 389369, Note_on_c, 9, 44, 0
4, 389463, Note_on_c, 9, 59, 50
4, 389642, Note_on_c, 9, 59, 0
4, 389814, Note_on_c, 9, 59, 77
4, 390317, Note_on_c, 9, 59, 0
4, 390758, Note_on_c, 9, 59, 72
4, 391155, Note_on_c, 9, 59, 0
4, 391745, Note_on_c, 9, 59, 71
4, 392191, Note_on_c, 9, 59, 0
4, 392390, Note_on_c, 9, 59, 53
4, 392536, Note_on_c, 9, 59, 0
4, 392640, Note_on_c, 9, 44, 41
4, 392707, Note_on_c, 9, 59, 81
4, 393196, Note_on_c, 9, 44, 0
4, 393209, Note_on_c, 9, 59, 0
4, 393620, Note_on_c, 9, 59, 73
4, 394012, Note_on_c, 9, 59, 0
4, 394295, Note_on_c, 9, 59, 48
4, 394414, Note_on_c, 9, 59, 0
4, 394617, Note_on_c, 9, 59, 73
4, 395086, Note_on_c, 9, 59, 0
4, 396148, Note_on_c, 9, 59, 79
4, 396480, Note_on_c, 9, 44, 38
4, 396812, Note_on_c, 9, 59, 0
4, 396962, Note_on_c, 9, 44, 0
4, 397474, Note_on_c, 9, 59, 74
4, 397891, Note_on_c, 9, 59, 0
4, 398119, Note_on_c, 9, 59, 56
4, 398322, Note_on_c, 9, 59, 0
4, 398504, Note_on_c, 9, 59, 61
4, 398613, Note_on_c, 9, 59, 0
4, 399138, Note_on_c, 9, 59, 85
4, 400038, Note_on_c, 9, 59, 0
4, 400320, Note_on_c, 9, 44, 41
4, 400408, Note_on_c, 9, 59, 50
4, 400574, Note_on_c, 9, 59, 0
4, 400898, Note_on_c, 9, 44, 0
4, 400996, Note_on_c, 9, 59, 82
4, 401477, Note_on_c, 9, 59, 0
4, 402030, Note_on_c, 9, 59, 27
4, 402114, Note_on_c, 9, 59, 0
4, 402240, Note_on_c, 9, 44, 42
4, 402395, Note_on_c, 9, 59, 91
4, 402857, Note_on_c, 9, 44, 0
4, 402994, Note_on_c, 9, 59, 0
4, 403297, Note_on_c, 9, 59, 30
4, 403478, Note_on_c, 9, 59, 0
4, 403912, Note_on_c, 9, 59, 92
4, 404805, Note_on_c, 9, 59, 0
4, 405204, Note_on_c, 9, 59, 80
4, 405869, Note_on_c, 9, 59, 0
4, 406080, Note_on_c, 9, 44, 44
4, 406134, Note_on_c, 9, 59, 53
4, 406273, Note_on_c, 9, 59, 0
4, 406638, Note_on_c, 9, 44, 0
4, 406771, Note_on_c, 9, 59, 51
4, 406873, Note_on_c, 9, 59, 0
4, 407057, Note_on_c, 9, 59, 62
4, 407624, Note_on_c, 9, 59, 0
4, 408044, Note_on_c, 9, 59, 70
4, 408431, Note_on_c, 9, 59, 0
4, 408676, Note_on_c, 9, 59, 45
4, 408802, Note_on_c, 9, 59, 0
4, 409061, Note_on_c, 9, 59, 44
4, 409187, Note_on_c, 9, 59, 0
4, 409629, Note_on_c, 9, 59, 103
4, 409920, Note_on_c, 9, 44, 41
4, 410459, Note_on_c, 9, 44, 0
4, 410621, Note_on_c, 9, 59, 0
4, 410950, Note_on_c, 9, 59, 88
4, 411690, Note_on_c, 9, 59, 0
4, 411840, Note_on_c, 9, 44, 41
4, 412314, Note_on_c, 9, 44, 0
4, 412555, Note_on_c, 9, 59, 49
4, 412659, Note_on_c, 9, 59, 0
4, 412892, Note_on_c, 9, 59, 56
4, 413410, Note_on_c, 9, 59, 0
4, 413760, Note_on_c, 9, 44, 38
4, 413827, Note_on_c, 9, 59, 75
4, 414214, Note_on_c, 9, 44, 0
4, 414276, Note_on_c, 9, 59, 0
4, 414472, Note_on_c, 9, 59, 44
4, 414593, Note_on_c, 9, 59, 0
4, 414720, Note_on_c, 9, 44, 44
4, 414769, Note_on_c, 9, 59, 68
4, 415223, Note_on_c, 9, 44, 0
4, 415273, Note_on_c, 9, 59, 0
4, 415756, Note_on_c, 9, 59, 81
4, 416282, Note_on_c, 9, 59, 0
4, 416717, Note_on_c, 9, 59, 66
4, 417014, Note_on_c, 9, 59, 0
4, 417600, Note_on_c, 9, 44, 42
4, 417709, Note_on_c, 9, 59, 89
4, 418047, Note_on_c, 9, 44, 0
4, 418110, Note_on_c, 9, 59, 0
4, 418393, Note_on_c, 9, 59, 46
4, 418500, Note_on_c, 9, 59, 0
4, 418675, Note_on_c, 9, 59, 65
4, 419040, Note_on_c, 9, 59, 0
4, 419520, Note_on_c, 9, 44, 46
4, 419593, Note_on_c, 9, 59, 87
4, 419914, Note_on_c, 9, 44, 0
4, 420047, Note_on_c, 9, 59, 0
4, 420545, Note_on_c, 9, 59, 69
4, 420947, Note_on_c, 9, 59, 0
4, 421148, Note_on_c, 9, 59, 47
4, 421267, Note_on_c, 9, 59, 0
4, 421461, Note_on_c, 9, 59, 67
4, 421657, Note_on_c, 9, 59, 0
4, 422115, Note_on_c, 9, 59, 91
4, 422809, Note_on_c, 9, 59, 0
4, 423155, Note_on_c, 9, 59, 38
4, 423266, Note_on_c, 9, 59, 0
4, 423360, Note_on_c, 9, 44, 49
4, 423444, Note_on_c, 9, 59, 78
4, 423796, Note_on_c, 9, 44, 0
4, 423873, Note_on_c, 9, 59, 0
4, 424330, Note_on_c, 9, 59, 78
4, 424808, Note_on_c, 9, 59, 0
4, 425280, Note_on_c, 9, 59, 74
4, 425280, Note_on_c, 9, 44, 48
4, 425585, Note_on_c, 9, 59, 0
4, 425721, Note_on_c, 9, 44, 0
4, 426242, Note_on_c, 9, 59, 76
4, 426631, Note_on_c, 9, 59, 0
4, 427187, Note_on_c, 9, 59, 71
4, 427200, Note_on_c, 9, 44, 43
4, 427551, Note_on_c, 9, 59, 0
4, 427673, Note_on_c, 9, 44, 0
4, 428149, Note_on_c, 9, 59, 74
4, 428477, Note_on_c, 9, 59, 0
4, 429120, Note_on_c, 9, 44, 45
4, 429151, Note_on_c, 9, 59, 74
4, 429563, Note_on_c, 9, 59, 0
4, 429690, Note_on_c, 9, 44, 0
4, 429798, Note_on_c, 9, 59, 48
4, 430004, Note_on_c, 9, 59, 0
4, 430131, Note_on_c, 9, 59, 55
4, 430384, Note_on_c, 9, 59, 0
4, 430812, Note_on_c, 9, 59, 89
4, 431040, Note_on_c, 9, 44, 41
4, 431491, Note_on_c, 9, 44, 0
4, 431554, Note_on_c, 9, 59, 0
4, 431783, Note_on_c, 9, 59, 48
4, 431939, Note_on_c, 9, 59, 0
4, 432127, Note_on_c, 9, 59, 78
4, 432675, Note_on_c, 9, 59, 0
4, 432960, Note_on_c, 9, 44, 42
4, 433072, Note_on_c, 9, 59, 74
4, 433453, Note_on_c, 9, 44, 0
4, 433521, Note_on_c, 9, 59, 0
4, 433990, Note_on_c, 9, 59, 75
4, 434347, Note_on_c, 9, 59, 0
4, 434880, Note_on_c, 9, 44, 39
4, 434904, Note_on_c, 9, 59, 78
4, 435192, Note_on_c, 9, 59, 0
4, 435341, Note_on_c, 9, 44, 0
4, 435800, Note_on_c, 9, 59, 77
4, 436147, Note_on_c, 9, 59, 0
4, 436792, Note_on_c, 9, 59, 75
4, 436800, Note_on_c, 9, 44, 41
4, 437079, Note_on_c, 9, 59, 0
4, 437207, Note_on_c, 9, 44, 0
4, 437697, Note_on_c, 9, 59, 72
4, 437988, Note_on_c, 9, 59, 0
4, 438672, Note_on_c, 9, 59, 68
4, 438720, Note_on_c, 9, 44, 44
4, 438997, Note_on_c, 9, 59, 0
4, 439182, Note_on_c, 9, 44, 0
4, 439369, Note_on_c, 9, 59, 52
4, 439485, Note_on_c, 9, 59, 0
4, 439699, Note_on_c, 9, 59, 66
4, 440098, Note_on_c, 9, 59, 0
4, 440640, Note_on_c, 9, 44, 46
4, 440658, Note_on_c, 9, 59, 76
4, 441062, Note_on_c, 9, 59, 0
4, 441071, Note_on_c, 9, 44, 0
4, 441274, Note_on_c, 9, 59, 47
4, 441447, Note_on_c, 9, 59, 0
4, 441600, Note_on_c, 9, 59, 70
4, 441951, Note_on_c, 9, 59, 0
4, 442560, Note_on_c, 9, 44, 43
4, 442563, Note_on_c, 9, 59, 79
4, 442900, Note_on_c, 9, 59, 0
4, 443026, Note_on_c, 9, 44, 0
4, 443493, Note_on_c, 9, 59, 74
4, 443716, Note_on_c, 9, 59, 0
4, 444395, Note_on_c, 9, 59, 87
4, 444480, Note_on_c, 9, 44, 46
4, 444857, Note_on_c, 9, 59, 0
4, 444927, Note_on_c, 9, 44, 0
4, 445113, Note_on_c, 9, 59, 53
4, 445263, Note_on_c, 9, 59, 0
4, 445418, Note_on_c, 9, 59, 65
4, 445811, Note_on_c, 9, 59, 0
4, 446315, Note_on_c, 9, 59, 78
4, 446652, Note_on_c, 9, 59, 0
4, 447079, Note_on_c, 9, 59, 35
4, 447183, Note_on_c, 9, 59, 0
4, 447304, Note_on_c, 9, 59, 64
4, 447709, Note_on_c, 9, 59, 0
4, 448250, Note_on_c, 9, 59, 80
4, 448320, Note_on_c, 9, 44, 40
4, 448676, Note_on_c, 9, 59, 0
4, 448796, Note_on_c, 9, 44, 0
4, 448902, Note_on_c, 9, 59, 44
4, 449095, Note_on_c, 9, 59, 0
4, 449249, Note_on_c, 9, 59, 62
4, 449566, Note_on_c, 9, 59, 0
4, 450219, Note_on_c, 9, 59, 81
4, 450240, Note_on_c, 9, 44, 40
4, 450703, Note_on_c, 9, 44, 0
4, 450710, Note_on_c, 9, 59, 0
4, 451196, Note_on_c, 9, 59, 72
4, 451605, Note_on_c, 9, 59, 0
4, 451813, Note_on_c, 9, 59, 44
4, 451974, Note_on_c, 9, 59, 0
4, 452091, Note_on_c, 9, 59, 53
4, 452542, Note_on_c, 9, 59, 0
4, 452756, Note_on_c, 9, 59, 63
4, 453220, Note_on_c, 9, 59, 0
4, 453755, Note_on_c, 9, 59, 50
4, 453865, Note_on_c, 9, 59, 0
4, 454050, Note_on_c, 9, 59, 69
4, 454080, Note_on_c, 9, 44, 47
4, 454454, Note_on_c, 9, 44, 0
4, 454645, Note_on_c, 9, 59, 0
4, 455040, Note_on_c, 9, 44, 46
4, 455062, Note_on_c, 9, 59, 73
4, 455469, Note_on_c, 9, 44, 0
4, 455560, Note_on_c, 9, 59, 0
4, 456015, Note_on_c, 9, 59, 74
4, 456542, Note_on_c, 9, 59, 0
4, 456942, Note_on_c, 9, 59, 71
4, 457405, Note_on_c, 9, 59, 0
4, 457703, Note_on_c, 9, 59, 34
4, 457812, Note_on_c, 9, 59, 0
4, 457961, Note_on_c, 9, 59, 66
4, 458303, Note_on_c, 9, 59, 0
4, 458631, Note_on_c, 9, 59, 82
4, 458880, Note_on_c, 9, 44, 39
4, 459285, Note_on_c, 9, 44, 0
4, 459335, Note_on_c, 9, 59, 0
4, 459616, Note_on_c, 9, 59, 42
4, 459732, Note_on_c, 9, 59, 0
4, 459840, Note_on_c, 9, 44, 44
4, 459898, Note_on_c, 9, 59, 78
4, 460341, Note_on_c, 9, 44, 0
4, 460494, Note_on_c, 9, 59, 0
4, 460838, Note_on_c, 9, 59, 62
4, 461024, Note_on_c, 9, 59, 0
4, 461760, Note_on_c, 9, 44, 43
4, 461823, Note_on_c, 9, 59, 90
4, 462322, Note_on_c, 9, 44, 0
4, 462346, Note_on_c, 9, 59, 0
4, 462792, Note_on_c, 9, 59, 31
4, 462939, Note_on_c, 9, 59, 0
4, 463680, Note_on_c, 9, 44, 41
4, 463712, Note_on_c, 9, 59, 76
4, 464104, Note_on_c, 9, 59, 0
4, 464152, Note_on_c, 9, 44, 0
4, 464414, Note_on_c, 9, 59, 37
4, 464529, Note_on_c, 9, 59, 0
4, 464699, Note_on_c, 9, 59, 66
4, 465304, Note_on_c, 9, 59, 0
4, 465600, Note_on_c, 9, 44, 42
4, 465642, Note_on_c, 9, 59, 76
4, 466074, Note_on_c, 9, 59, 0
4, 466084, Note_on_c, 9, 44, 0
4, 466328, Note_on_c, 9, 59, 32
4, 466497, Note_on_c, 9, 59, 0
4, 466604, Note_on_c, 9, 59, 39
4, 467199, Note_on_c, 9, 59, 0
4, 467520, Note_on_c, 9, 44, 46
4, 467606, Note_on_c, 9, 59, 75
4, 468021, Note_on_c, 9, 44, 0
4, 468047, Note_on_c, 9, 59, 0
4, 468256, Note_on_c, 9, 59, 40
4, 468422, Note_on_c, 9, 59, 0
4, 468538, Note_on_c, 9, 59, 42
4, 469089, Note_on_c, 9, 59, 0
4, 469440, Note_on_c, 9, 44, 43
4, 469521, Note_on_c, 9, 59, 73
4, 469935, Note_on_c, 9, 59, 0
4, 469946, Note_on_c, 9, 44, 0
4, 470140, Note_on_c, 9, 59, 44
4, 470344, Note_on_c, 9, 59, 0
4, 470461, Note_on_c, 9, 59, 44
4, 471061, Note_on_c, 9, 59, 0
4, 471477, Note_on_c, 9, 59, 73
4, 471877, Note_on_c, 9, 59, 0
4, 472122, Note_on_c, 9, 59, 47
4, 472256, Note_on_c, 9, 59, 0
4, 472398, Note_on_c, 9, 59, 50
4, 472928, Note_on_c, 9, 59, 0
4, 473280, Note_on_c, 9, 44, 39
4, 473320, Note_on_c, 9, 59, 74
4, 473707, Note_on_c, 9, 59, 0
4, 473714, Note_on_c, 9, 44, 0
4, 473920, Note_on_c, 9, 59, 44
4, 474101, Note_on_c, 9, 59, 0
4, 474233, Note_on_c, 9, 59, 57
4, 474741, Note_on_c, 9, 59, 0
4, 475197, Note_on_c, 9, 59, 81
4, 475200, Note_on_c, 9, 44, 42
4, 475614, Note_on_c, 9, 59, 0
4, 475654, Note_on_c, 9, 44, 0
4, 475817, Note_on_c, 9, 59, 44
4, 476005, Note_on_c, 9, 59, 0
4, 476130, Note_on_c, 9, 59, 54
4, 476683, Note_on_c, 9, 59, 0
4, 477120, Note_on_c, 9, 44, 46
4, 477134, Note_on_c, 9, 59, 76
4, 477560, Note_on_c, 9, 59, 0
4, 477610, Note_on_c, 9, 44, 0
4, 477764, Note_on_c, 9, 59, 44
4, 477950, Note_on_c, 9, 59, 0
4, 478066, Note_on_c, 9, 59, 53
4, 478657, Note_on_c, 9, 59, 0
4, 479040, Note_on_c, 9, 44, 39
4, 479073, Note_on_c, 9, 59, 77
4, 479470, Note_on_c, 9, 44, 0
4, 479475, Note_on_c, 9, 59, 0
4, 479701, Note_on_c, 9, 59, 42
4, 479897, Note_on_c, 9, 59, 0
4, 480040, Note_on_c, 9, 59, 60
4, 480507, Note_on_c, 9, 59, 0
4, 480960, Note_on_c, 9, 44, 49
4, 481020, Note_on_c, 9, 59, 85
4, 481372, Note_on_c, 9, 44, 0
4, 481469, Note_on_c, 9, 59, 0
4, 481660, Note_on_c, 9, 59, 55
4, 481806, Note_on_c, 9, 59, 0
4, 481920, Note_on_c, 9, 44, 44
4, 481990, Note_on_c, 9, 59, 64
4, 482213, Note_on_c, 9, 59, 0
4, 482530, Note_on_c, 9, 44, 0
4, 482890, Note_on_c, 9, 59, 92
4, 483448, Note_on_c, 9, 59, 0
4, 483674, Note_on_c, 9, 59, 45
4, 483820, Note_on_c, 9, 59, 0
4, 484499, Note_on_c, 9, 59, 81
4, 484765, Note_on_c, 9, 59, 0
4, 484800, Note_on_c, 9, 44, 41
4, 485428, Note_on_c, 9, 44, 0
4, 485481, Note_on_c, 9, 59, 54
4, 485586, Note_on_c, 9, 59, 0
4, 485799, Note_on_c, 9, 59, 73
4, 486243, Note_on_c, 9, 59, 0
4, 486720, Note_on_c, 9, 44, 38
4, 486734, Note_on_c, 9, 59, 49
4, 486831, Note_on_c, 9, 59, 0
4, 487246, Note_on_c, 9, 44, 0
4, 487299, Note_on_c, 9, 59, 89
4, 487778, Note_on_c, 9, 59, 0
4, 488286, Note_on_c, 9, 59, 35
4, 488398, Note_on_c, 9, 59, 0
4, 488621, Note_on_c, 9, 59, 69
4, 488629, Note_on_c, 9, 53, 60
4, 488640, Note_on_c, 9, 44, 42
4, 489018, Note_on_c, 9, 59, 0
4, 489144, Note_on_c, 9, 44, 0
4, 489278, Note_on_c, 9, 53, 0
4, 489611, Note_on_c, 9, 59, 49
4, 489740, Note_on_c, 9, 59, 0
4, 490253, Note_on_c, 9, 59, 74
4, 490268, Note_on_c, 9, 53, 62
4, 490675, Note_on_c, 9, 59, 0
4, 490769, Note_on_c, 9, 53, 0
4, 491176, Note_on_c, 9, 59, 46
4, 491283, Note_on_c, 9, 59, 0
4, 491530, Note_on_c, 9, 53, 66
4, 491555, Note_on_c, 9, 59, 75
4, 491979, Note_on_c, 9, 59, 0
4, 492042, Note_on_c, 9, 53, 0
4, 492480, Note_on_c, 9, 44, 44
4, 492554, Note_on_c, 9, 59, 47
4, 492763, Note_on_c, 9, 59, 0
4, 493014, Note_on_c, 9, 44, 0
4, 493091, Note_on_c, 9, 59, 80
4, 493093, Note_on_c, 9, 53, 73
4, 493594, Note_on_c, 9, 59, 0
4, 493807, Note_on_c, 9, 53, 0
4, 494087, Note_on_c, 9, 59, 34
4, 494194, Note_on_c, 9, 59, 0
4, 494400, Note_on_c, 9, 44, 41
4, 494415, Note_on_c, 9, 53, 74
4, 494447, Note_on_c, 9, 59, 75
4, 494858, Note_on_c, 9, 59, 0
4, 494909, Note_on_c, 9, 44, 0
4, 495220, Note_on_c, 9, 53, 0
4, 495419, Note_on_c, 9, 59, 55
4, 495533, Note_on_c, 9, 59, 0
4, 495959, Note_on_c, 9, 53, 66
4, 495967, Note_on_c, 9, 59, 79
4, 496312, Note_on_c, 9, 59, 0
4, 496320, Note_on_c, 9, 44, 42
4, 496408, Note_on_c, 9, 53, 0
4, 496784, Note_on_c, 9, 44, 0
4, 497260, Note_on_c, 9, 53, 62
4, 497274, Note_on_c, 9, 59, 74
4, 497681, Note_on_c, 9, 59, 0
4, 498152, Note_on_c, 9, 53, 0
4, 498240, Note_on_c, 9, 44, 47
4, 498253, Note_on_c, 9, 59, 45
4, 498363, Note_on_c, 9, 59, 0
4, 498713, Note_on_c, 9, 44, 0
4, 498876, Note_on_c, 9, 59, 54
4, 498975, Note_on_c, 9, 59, 0
4, 499112, Note_on_c, 9, 53, 69
4, 499167, Note_on_c, 9, 59, 77
4, 499546, Note_on_c, 9, 53, 0
4, 499558, Note_on_c, 9, 59, 0
4, 499558, End_track
5, 0, Start_track
5, 0, Title_t, "Bass"
5, 0, Program_c, 1, 32
5, 0, Control_c, 1, 10, 65
5, 0, Note_on_c, 1, 48, 64
5, 2880, Note_on_c, 1, 36, 67
5, 2890, Note_on_c, 1, 48, 0
5, 8500, Note_on_c, 1, 36, 0
5, 8640, Note_on_c, 1, 48, 89
5, 11200, Note_on_c, 1, 62, 101
5, 11588, Note_on_c, 1, 48, 0
5, 11606, Note_on_c, 1, 62, 0
5, 11840, Note_on_c, 1, 60, 82
5, 14080, Note_on_c, 1, 48, 60
5, 14388, Note_on_c, 1, 60, 0
5, 14720, Note_on_c, 1, 36, 62
5, 18045, Note_on_c, 1, 48, 0
5, 20160, Note_on_c, 1, 48, 65
5, 20736, Note_on_c, 1, 48, 0
5, 20800, Note_on_c, 1, 48, 64
5, 20898, Note_on_c, 1, 48, 0
5, 21120, Note_on_c, 1, 48, 53
5, 23871, Note_on_c, 1, 36, 0
5, 26560, Note_on_c, 1, 62, 96
5, 26888, Note_on_c, 1, 48, 0
5, 26910, Note_on_c, 1, 62, 0
5, 27200, Note_on_c, 1, 60, 61
5, 29440, Note_on_c, 1, 57, 67
5, 29645, Note_on_c, 1, 60, 0
5, 29679, Note_on_c, 1, 57, 0
5, 30080, Note_on_c, 1, 55, 47
5, 30851, Note_on_c, 1, 55, 0
5, 31040, Note_on_c, 1, 53, 61
5, 33280, Note_on_c, 1, 52, 56
5, 33507, Note_on_c, 1, 52, 0
5, 33553, Note_on_c, 1, 53, 0
5, 33600, Note_on_c, 1, 50, 51
5, 34457, Note_on_c, 1, 50, 0
5, 34560, Note_on_c, 1, 48, 48
5, 36145, Note_on_c, 1, 48, 0
5, 36160, Note_on_c, 1, 46, 50
5, 36436, Note_on_c, 1, 46, 0
5, 36800, Note_on_c, 1, 45, 54
5, 38077, Note_on_c, 1, 45, 0
5, 38080, Note_on_c, 1, 43, 51
5, 38359, Note_on_c, 1, 43, 0
5, 38400, Note_on_c, 1, 41, 71
5, 38626, Note_on_c, 1, 41, 0
5, 38720, Note_on_c, 1, 40, 66
5, 40606, Note_on_c, 1, 40, 0
5, 40640, Note_on_c, 1, 45, 66
5, 43200, Note_on_c, 1, 57, 75
5, 45070, Note_on_c, 1, 57, 0
5, 45120, Note_on_c, 1, 64, 78
5, 45282, Note_on_c, 1, 45, 0
5, 45973, Note_on_c, 1, 64, 0
5, 46080, Note_on_c, 1, 62, 68
5, 47040, Note_on_c, 1, 50, 65
5, 47070, Note_on_c, 1, 62, 0
5, 49030, Note_on_c, 1, 50, 0
5, 49280, Note_on_c, 1, 49, 71
5, 51080, Note_on_c, 1, 49, 0
5, 51200, Note_on_c, 1, 48, 58
5, 52055, Note_on_c, 1, 48, 0
5, 52160, Note_on_c, 1, 47, 50
5, 53760, Note_on_c, 1, 46, 53
5, 53909, Note_on_c, 1, 47, 0
5, 56643, Note_on_c, 1, 46, 0
5, 56960, Note_on_c, 1, 45, 45
5, 57837, Note_on_c, 1, 45, 0
5, 57920, Note_on_c, 1, 46, 57
5, 59200, Note_on_c, 1, 47, 52
5, 59333, Note_on_c, 1, 46, 0
5, 59518, Note_on_c, 1, 47, 0
5, 59520, Note_on_c, 1, 48, 54
5, 62400, Note_on_c, 1, 53, 69
5, 63201, Note_on_c, 1, 48, 0
5, 64320, Note_on_c, 1, 62, 83
5, 64321, Note_on_c, 1, 53, 0
5, 65209, Note_on_c, 1, 62, 0
5, 65280, Note_on_c, 1, 60, 51
5, 66406, Note_on_c, 1, 60, 0
5, 66560, Note_on_c, 1, 52, 57
5, 67410, Note_on_c, 1, 52, 0
5, 67520, Note_on_c, 1, 54, 59
5, 68373, Note_on_c, 1, 54, 0
5, 68480, Note_on_c, 1, 43, 60
5, 71040, Note_on_c, 1, 57, 70
5, 71380, Note_on_c, 1, 43, 0
5, 71882, Note_on_c, 1, 57, 0
5, 72000, Note_on_c, 1, 55, 70
5, 75840, Note_on_c, 1, 43, 55
5, 76108, Note_on_c, 1, 43, 0
5, 76480, Note_on_c, 1, 38, 67
5, 76692, Note_on_c, 1, 38, 0
5, 76800, Note_on_c, 1, 40, 59
5, 77655, Note_on_c, 1, 40, 0
5, 77687, Note_on_c, 1, 55, 0
5, 77760, Note_on_c, 1, 36, 57
5, 80640, Note_on_c, 1, 48, 66
5, 81698, Note_on_c, 1, 36, 0
5, 83200, Note_on_c, 1, 43, 48
5, 83298, Note_on_c, 1, 43, 0
5, 83335, Note_on_c, 1, 48, 0
5, 83520, Note_on_c, 1, 40, 47
5, 84480, Note_on_c, 1, 41, 62
5, 84489, Note_on_c, 1, 40, 0
5, 87360, Note_on_c, 1, 50, 86
5, 87472, Note_on_c, 1, 41, 0
5, 88960, Note_on_c, 1, 41, 26
5, 89051, Note_on_c, 1, 41, 0
5, 89220, Note_on_c, 1, 50, 0
5, 89280, Note_on_c, 1, 48, 78
5, 90880, Note_on_c, 1, 41, 42
5, 90996, Note_on_c, 1, 41, 0
5, 91140, Note_on_c, 1, 48, 0
5, 91200, Note_on_c, 1, 46, 67
5, 92099, Note_on_c, 1, 46, 0
5, 92160, Note_on_c, 1, 45, 65
5, 92525, Note_on_c, 1, 45, 0
5, 93120, Note_on_c, 1, 43, 45
5, 93923, Note_on_c, 1, 43, 0
5, 94080, Note_on_c, 1, 41, 55
5, 98770, Note_on_c, 1, 41, 0
5, 98880, Note_on_c, 1, 53, 79
5, 99692, Note_on_c, 1, 53, 0
5, 99840, Note_on_c, 1, 52, 71
5, 101688, Note_on_c, 1, 52, 0
5, 101760, Note_on_c, 1, 45, 47
5, 103578, Note_on_c, 1, 45, 0
5, 103680, Note_on_c, 1, 51, 69
5, 105548, Note_on_c, 1, 51, 0
5, 105600, Note_on_c, 1, 50, 58
5, 107455, Note_on_c, 1, 50, 0
5, 107520, Note_on_c, 1, 46, 56
5, 109328, Note_on_c, 1, 46, 0
5, 109440, Note_on_c, 1, 47, 60
5, 111360, Note_on_c, 1, 48, 58
5, 111366, Note_on_c, 1, 47, 0
5, 113280, Note_on_c, 1, 60, 64
5, 114638, Note_on_c, 1, 48, 0
5, 116831, Note_on_c, 1, 60, 0
5, 117120, Note_on_c, 1, 60, 54
5, 117490, Note_on_c, 1, 60, 0
5, 118080, Note_on_c, 1, 60, 73
5, 119629, Note_on_c, 1, 60, 0
5, 120000, Note_on_c, 1, 60, 55
5, 120192, Note_on_c, 1, 60, 0
5, 120960, Note_on_c, 1, 60, 72
5, 122002, Note_on_c, 1, 60, 0
5, 123520, Note_on_c, 1, 36, 64
5, 123717, Note_on_c, 1, 36, 0
5, 123840, Note_on_c, 1, 33, 47
5, 124721, Note_on_c, 1, 33, 0
5, 124800, Note_on_c, 1, 36, 59
5, 125735, Note_on_c, 1, 36, 0
5, 125760, Note_on_c, 1, 35, 67
5, 126659, Note_on_c, 1, 35, 0
5, 126720, Note_on_c, 1, 33, 59
5, 127629, Note_on_c, 1, 33, 0
5, 127680, Note_on_c, 1, 39, 82
5, 128495, Note_on_c, 1, 39, 0
5, 128640, Note_on_c, 1, 38, 65
5, 129486, Note_on_c, 1, 38, 0
5, 129600, Note_on_c, 1, 32, 69
5, 130560, Note_on_c, 1, 31, 68
5, 130580, Note_on_c, 1, 32, 0
5, 131200, Note_on_c, 1, 32, 61
5, 131404, Note_on_c, 1, 32, 0
5, 131520, Note_on_c, 1, 31, 0
5, 131520, Note_on_c, 1, 50, 102
5, 132291, Note_on_c, 1, 50, 0
5, 132480, Note_on_c, 1, 49, 76
5, 133440, Note_on_c, 1, 48, 76
5, 133900, Note_on_c, 1, 49, 0
5, 134292, Note_on_c, 1, 48, 0
5, 134400, Note_on_c, 1, 47, 69
5, 134400, Note_on_c, 1, 43, 34
5, 134503, Note_on_c, 1, 43, 0
5, 135040, Note_on_c, 1, 43, 40
5, 135147, Note_on_c, 1, 43, 0
5, 135250, Note_on_c, 1, 47, 0
5, 135360, Note_on_c, 1, 46, 76
5, 136174, Note_on_c, 1, 46, 0
5, 136320, Note_on_c, 1, 45, 61
5, 137151, Note_on_c, 1, 45, 0
5, 137280, Note_on_c, 1, 44, 70
5, 138192, Note_on_c, 1, 44, 0
5, 138240, Note_on_c, 1, 43, 44
5, 139070, Note_on_c, 1, 43, 0
5, 139200, Note_on_c, 1, 35, 74
5, 140160, Note_on_c, 1, 36, 64
5, 140217, Note_on_c, 1, 35, 0
5, 141120, Note_on_c, 1, 50, 102
5, 141148, Note_on_c, 1, 36, 0
5, 141983, Note_on_c, 1, 50, 0
5, 142080, Note_on_c, 1, 48, 74
5, 143040, Note_on_c, 1, 35, 74
5, 143071, Note_on_c, 1, 48, 0
5, 143945, Note_on_c, 1, 35, 0
5, 144000, Note_on_c, 1, 36, 62
5, 144803, Note_on_c, 1, 36, 0
5, 144960, Note_on_c, 1, 43, 89
5, 145818, Note_on_c, 1, 43, 0
5, 145920, Note_on_c, 1, 41, 74
5, 146560, Note_on_c, 1, 36, 91
5, 146582, Note_on_c, 1, 41, 0
5, 146880, Note_on_c, 1, 33, 74
5, 146903, Note_on_c, 1, 36, 0
5, 147820, Note_on_c, 1, 33, 0
5, 147840, Note_on_c, 1, 34, 74
5, 148707, Note_on_c, 1, 34, 0
5, 148800, Note_on_c, 1, 35, 64
5, 149732, Note_on_c, 1, 35, 0
5, 149760, Note_on_c, 1, 36, 66
5, 150400, Note_on_c, 1, 34, 59
5, 150580, Note_on_c, 1, 36, 0
5, 150594, Note_on_c, 1, 34, 0
5, 150720, Note_on_c, 1, 37, 68
5, 151595, Note_on_c, 1, 37, 0
5, 151680, Note_on_c, 1, 38, 60
5, 152435, Note_on_c, 1, 38, 0
5, 152640, Note_on_c, 1, 40, 64
5, 153487, Note_on_c, 1, 40, 0
5, 153600, Note_on_c, 1, 41, 56
5, 154307, Note_on_c, 1, 41, 0
5, 154560, Note_on_c, 1, 46, 78
5, 155431, Note_on_c, 1, 46, 0
5, 155520, Note_on_c, 1, 45, 65
5, 156480, Note_on_c, 1, 43, 71
5, 156524, Note_on_c, 1, 45, 0
5, 157362, Note_on_c, 1, 43, 0
5, 157440, Note_on_c, 1, 41, 68
5, 158185, Note_on_c, 1, 41, 0
5, 158400, Note_on_c, 1, 40, 57
5, 159360, Note_on_c, 1, 38, 66
5, 159411, Note_on_c, 1, 40, 0
5, 160074, Note_on_c, 1, 38, 0
5, 160320, Note_on_c, 1, 39, 76
5, 161242, Note_on_c, 1, 39, 0
5, 161280, Note_on_c, 1, 40, 67
5, 162122, Note_on_c, 1, 40, 0
5, 162240, Note_on_c, 1, 34, 67
5, 163174, Note_on_c, 1, 34, 0
5, 163200, Note_on_c, 1, 33, 62
5, 164160, Note_on_c, 1, 45, 63
5, 164258, Note_on_c, 1, 33, 0
5, 165043, Note_on_c, 1, 45, 0
5, 165120, Note_on_c, 1, 52, 83
5, 166014, Note_on_c, 1, 52, 0
5, 166080, Note_on_c, 1, 45, 61
5, 166899, Note_on_c, 1, 45, 0
5, 167040, Note_on_c, 1, 57, 73
5, 167836, Note_on_c, 1, 57, 0
5, 168000, Note_on_c, 1, 55, 68
5, 168960, Note_on_c, 1, 53, 53
5, 168972, Note_on_c, 1, 55, 0
5, 169872, Note_on_c, 1, 53, 0
5, 169920, Note_on_c, 1, 52, 62
5, 170775, Note_on_c, 1, 52, 0
5, 170880, Note_on_c, 1, 50, 62
5, 171651, Note_on_c, 1, 50, 0
5, 171840, Note_on_c, 1, 49, 65
5, 172678, Note_on_c, 1, 49, 0
5, 172800, Note_on_c, 1, 52, 76
5, 173432, Note_on_c, 1, 52, 0
5, 173440, Note_on_c, 1, 49, 57
5, 173663, Note_on_c, 1, 49, 0
5, 173760, Note_on_c, 1, 50, 75
5, 174469, Note_on_c, 1, 50, 0
5, 175040, Note_on_c, 1, 45, 21
5, 175579, Note_on_c, 1, 45, 0
5, 175680, Note_on_c, 1, 42, 63
5, 176640, Note_on_c, 1, 43, 42
5, 176661, Note_on_c, 1, 42, 0
5, 177458, Note_on_c, 1, 43, 0
5, 177600, Note_on_c, 1, 43, 81
5, 178534, Note_on_c, 1, 43, 0
5, 178560, Note_on_c, 1, 45, 102
5, 179344, Note_on_c, 1, 45, 0
5, 179520, Note_on_c, 1, 45, 83
5, 180357, Note_on_c, 1, 45, 0
5, 180480, Note_on_c, 1, 46, 69
5, 181440, Note_on_c, 1, 35, 78
5, 181474, Note_on_c, 1, 46, 0
5, 182400, Note_on_c, 1, 36, 67
5, 182423, Note_on_c, 1, 35, 0
5, 183240, Note_on_c, 1, 36, 0
5, 183360, Note_on_c, 1, 43, 102
5, 184286, Note_on_c, 1, 43, 0
5, 184320, Note_on_c, 1, 41, 77
5, 185216, Note_on_c, 1, 41, 0
5, 185280, Note_on_c, 1, 35, 80
5, 186127, Note_on_c, 1, 35, 0
5, 186240, Note_on_c, 1, 36, 83
5, 187098, Note_on_c, 1, 36, 0
5, 187200, Note_on_c, 1, 34, 80
5, 188083, Note_on_c, 1, 34, 0
5, 188160, Note_on_c, 1, 33, 64
5, 188800, Note_on_c, 1, 34, 68
5, 188972, Note_on_c, 1, 33, 0
5, 189081, Note_on_c, 1, 34, 0
5, 189120, Note_on_c, 1, 45, 86
5, 189967, Note_on_c, 1, 45, 0
5, 190080, Note_on_c, 1, 50, 75
5, 190922, Note_on_c, 1, 50, 0
5, 191040, Note_on_c, 1, 38, 66
5, 191941, Note_on_c, 1, 38, 0
5, 192000, Note_on_c, 1, 43, 69
5, 192834, Note_on_c, 1, 43, 0
5, 192960, Note_on_c, 1, 35, 67
5, 193892, Note_on_c, 1, 35, 0
5, 193920, Note_on_c, 1, 36, 61
5, 194880, Note_on_c, 1, 55, 89
5, 194988, Note_on_c, 1, 36, 0
5, 195676, Note_on_c, 1, 55, 0
5, 195840, Note_on_c, 1, 53, 65
5, 196649, Note_on_c, 1, 53, 0
5, 196800, Note_on_c, 1, 50, 55
5, 197538, Note_on_c, 1, 50, 0
5, 197760, Note_on_c, 1, 52, 72
5, 198583, Note_on_c, 1, 52, 0
5, 198720, Note_on_c, 1, 49, 65
5, 199680, Note_on_c, 1, 48, 71
5, 199718, Note_on_c, 1, 49, 0
5, 200508, Note_on_c, 1, 48, 0
5, 200640, Note_on_c, 1, 46, 67
5, 201600, Note_on_c, 1, 45, 69
5, 201787, Note_on_c, 1, 46, 0
5, 202412, Note_on_c, 1, 45, 0
5, 202560, Note_on_c, 1, 44, 74
5, 203446, Note_on_c, 1, 44, 0
5, 203520, Note_on_c, 1, 43, 59
5, 204480, Note_on_c, 1, 31, 70
5, 205407, Note_on_c, 1, 31, 0
5, 205440, Note_on_c, 1, 36, 69
5, 206175, Note_on_c, 1, 36, 0
5, 206380, Note_on_c, 1, 43, 0
5, 206400, Note_on_c, 1, 30, 78
5, 207291, Note_on_c, 1, 30, 0
5, 207360, Note_on_c, 1, 29, 61
5, 208089, Note_on_c, 1, 29, 0
5, 208320, Note_on_c, 1, 29, 70
5, 209201, Note_on_c, 1, 29, 0
5, 209280, Note_on_c, 1, 33, 61
5, 210084, Note_on_c, 1, 33, 0
5, 210240, Note_on_c, 1, 33, 71
5, 211151, Note_on_c, 1, 33, 0
5, 211200, Note_on_c, 1, 38, 75
5, 212050, Note_on_c, 1, 38, 0
5, 212160, Note_on_c, 1, 37, 54
5, 213037, Note_on_c, 1, 37, 0
5, 213120, Note_on_c, 1, 36, 54
5, 213760, Note_on_c, 1, 34, 39
5, 213988, Note_on_c, 1, 36, 0
5, 214080, Note_on_c, 1, 43, 81
5, 214162, Note_on_c, 1, 34, 0
5, 214994, Note_on_c, 1, 43, 0
5, 215040, Note_on_c, 1, 41, 70
5, 215752, Note_on_c, 1, 41, 0
5, 216000, Note_on_c, 1, 41, 63
5, 216960, Note_on_c, 1, 38, 49
5, 217675, Note_on_c, 1, 38, 0
5, 217818, Note_on_c, 1, 41, 0
5, 217920, Note_on_c, 1, 37, 62
5, 218754, Note_on_c, 1, 37, 0
5, 218880, Note_on_c, 1, 36, 58
5, 219719, Note_on_c, 1, 36, 0
5, 219840, Note_on_c, 1, 43, 92
5, 220730, Note_on_c, 1, 43, 0
5, 220800, Note_on_c, 1, 41, 76
5, 221621, Note_on_c, 1, 41, 0
5, 221760, Note_on_c, 1, 39, 71
5, 222613, Note_on_c, 1, 39, 0
5, 222720, Note_on_c, 1, 40, 70
5, 223680, Note_on_c, 1, 45, 96
5, 223860, Note_on_c, 1, 40, 0
5, 224510, Note_on_c, 1, 45, 0
5, 224640, Note_on_c, 1, 34, 65
5, 225508, Note_on_c, 1, 34, 0
5, 225600, Note_on_c, 1, 33, 54
5, 226452, Note_on_c, 1, 33, 0
5, 226560, Note_on_c, 1, 39, 60
5, 227520, Note_on_c, 1, 55, 83
5, 228080, Note_on_c, 1, 39, 0
5, 228329, Note_on_c, 1, 55, 0
5, 228480, Note_on_c, 1, 54, 60
5, 229412, Note_on_c, 1, 54, 0
5, 229440, Note_on_c, 1, 38, 65
5, 230400, Note_on_c, 1, 46, 81
5, 230436, Note_on_c, 1, 38, 0
5, 232000, Note_on_c, 1, 34, 57
5, 232166, Note_on_c, 1, 46, 0
5, 232197, Note_on_c, 1, 34, 0
5, 232320, Note_on_c, 1, 47, 85
5, 233920, Note_on_c, 1, 34, 45
5, 234007, Note_on_c, 1, 34, 0
5, 234095, Note_on_c, 1, 47, 0
5, 234240, Note_on_c, 1, 48, 73
5, 234880, Note_on_c, 1, 36, 77
5, 235415, Note_on_c, 1, 48, 0
5, 235889, Note_on_c, 1, 36, 0
5, 236160, Note_on_c, 1, 36, 76
5, 237120, Note_on_c, 1, 48, 97
5, 237556, Note_on_c, 1, 48, 0
5, 237760, Note_on_c, 1, 48, 78
5, 237976, Note_on_c, 1, 48, 0
5, 238080, Note_on_c, 1, 48, 74
5, 238557, Note_on_c, 1, 48, 0
5, 238720, Note_on_c, 1, 48, 80
5, 238904, Note_on_c, 1, 48, 0
5, 240000, Note_on_c, 1, 48, 98
5, 240202, Note_on_c, 1, 36, 0
5, 240960, Note_on_c, 1, 36, 78
5, 241428, Note_on_c, 1, 36, 0
5, 241442, Note_on_c, 1, 48, 0
5, 241600, Note_on_c, 1, 36, 91
5, 242560, Note_on_c, 1, 34, 41
5, 242648, Note_on_c, 1, 36, 0
5, 242778, Note_on_c, 1, 34, 0
5, 242880, Note_on_c, 1, 48, 98
5, 244480, Note_on_c, 1, 36, 67
5, 244690, Note_on_c, 1, 36, 0
5, 244800, Note_on_c, 1, 30, 71
5, 245630, Note_on_c, 1, 48, 0
5, 245755, Note_on_c, 1, 30, 0
5, 245760, Note_on_c, 1, 29, 60
5, 246562, Note_on_c, 1, 29, 0
5, 246720, Note_on_c, 1, 29, 53
5, 247680, Note_on_c, 1, 34, 75
5, 247729, Note_on_c, 1, 29, 0
5, 248486, Note_on_c, 1, 34, 0
5, 248640, Note_on_c, 1, 34, 67
5, 249529, Note_on_c, 1, 34, 0
5, 249600, Note_on_c, 1, 33, 62
5, 250422, Note_on_c, 1, 38, 53
5, 250441, Note_on_c, 1, 33, 0
5, 250535, Note_on_c, 1, 38, 0
5, 250560, Note_on_c, 1, 45, 78
5, 251433, Note_on_c, 1, 45, 0
5, 251520, Note_on_c, 1, 50, 65
5, 252480, Note_on_c, 1, 38, 66
5, 252482, Note_on_c, 1, 50, 0
5, 253412, Note_on_c, 1, 38, 0
5, 253458, Note_on_c, 1, 43, 51
5, 254249, Note_on_c, 1, 43, 0
5, 254400, Note_on_c, 1, 34, 62
5, 255360, Note_on_c, 1, 38, 54
5, 255367, Note_on_c, 1, 34, 0
5, 256222, Note_on_c, 1, 38, 0
5, 256320, Note_on_c, 1, 37, 54
5, 257262, Note_on_c, 1, 37, 0
5, 257280, Note_on_c, 1, 36, 64
5, 258240, Note_on_c, 1, 50, 87
5, 258252, Note_on_c, 1, 36, 0
5, 259072, Note_on_c, 1, 50, 0
5, 259200, Note_on_c, 1, 49, 68
5, 259994, Note_on_c, 1, 49, 0
5, 260160, Note_on_c, 1, 47, 66
5, 261005, Note_on_c, 1, 47, 0
5, 261120, Note_on_c, 1, 48, 71
5, 262080, Note_on_c, 1, 36, 52
5, 262126, Note_on_c, 1, 48, 0
5, 263040, Note_on_c, 1, 62, 86
5, 263847, Note_on_c, 1, 62, 0
5, 263856, Note_on_c, 1, 36, 0
5, 264000, Note_on_c, 1, 61, 79
5, 264893, Note_on_c, 1, 61, 0
5, 264960, Note_on_c, 1, 60, 52
5, 265800, Note_on_c, 1, 60, 0
5, 265920, Note_on_c, 1, 55, 70
5, 266757, Note_on_c, 1, 55, 0
5, 266880, Note_on_c, 1, 52, 58
5, 267520, Note_on_c, 1, 44, 34
5, 267617, Note_on_c, 1, 44, 0
5, 267676, Note_on_c, 1, 52, 0
5, 267840, Note_on_c, 1, 48, 50
5, 268480, Note_on_c, 1, 44, 32
5, 268593, Note_on_c, 1, 48, 0
5, 268606, Note_on_c, 1, 44, 0
5, 268800, Note_on_c, 1, 53, 78
5, 269613, Note_on_c, 1, 53, 0
5, 269760, Note_on_c, 1, 48, 81
5, 270600, Note_on_c, 1, 48, 0
5, 270720, Note_on_c, 1, 45, 73
5, 271360, Note_on_c, 1, 42, 25
5, 271486, Note_on_c, 1, 42, 0
5, 271552, Note_on_c, 1, 45, 0
5, 271680, Note_on_c, 1, 46, 62
5, 272640, Note_on_c, 1, 47, 63
5, 272776, Note_on_c, 1, 46, 0
5, 273355, Note_on_c, 1, 47, 0
5, 273600, Note_on_c, 1, 48, 61
5, 274560, Note_on_c, 1, 45, 55
5, 274573, Note_on_c, 1, 48, 0
5, 275344, Note_on_c, 1, 45, 0
5, 275520, Note_on_c, 1, 40, 65
5, 276370, Note_on_c, 1, 40, 0
5, 276480, Note_on_c, 1, 41, 64
5, 277299, Note_on_c, 1, 41, 0
5, 277440, Note_on_c, 1, 36, 69
5, 278233, Note_on_c, 1, 36, 0
5, 278400, Note_on_c, 1, 33, 61
5, 279271, Note_on_c, 1, 33, 0
5, 279360, Note_on_c, 1, 38, 77
5, 280320, Note_on_c, 1, 36, 72
5, 280359, Note_on_c, 1, 38, 0
5, 281086, Note_on_c, 1, 36, 0
5, 281280, Note_on_c, 1, 33, 60
5, 282199, Note_on_c, 1, 33, 0
5, 282240, Note_on_c, 1, 31, 65
5, 283064, Note_on_c, 1, 31, 0
5, 283200, Note_on_c, 1, 39, 78
5, 284037, Note_on_c, 1, 39, 0
5, 284160, Note_on_c, 1, 40, 66
5, 285120, Note_on_c, 1, 43, 81
5, 285252, Note_on_c, 1, 40, 0
5, 286033, Note_on_c, 1, 43, 0
5, 286080, Note_on_c, 1, 45, 69
5, 286741, Note_on_c, 1, 45, 0
5, 287040, Note_on_c, 1, 52, 71
5, 287927, Note_on_c, 1, 52, 0
5, 288000, Note_on_c, 1, 47, 40
5, 288780, Note_on_c, 1, 47, 0
5, 288960, Note_on_c, 1, 43, 47
5, 289752, Note_on_c, 1, 43, 0
5, 289920, Note_on_c, 1, 45, 67
5, 290839, Note_on_c, 1, 45, 0
5, 290880, Note_on_c, 1, 37, 60
5, 291785, Note_on_c, 1, 37, 0
5, 291840, Note_on_c, 1, 38, 64
5, 292798, Note_on_c, 1, 38, 0
5, 292800, Note_on_c, 1, 50, 87
5, 293647, Note_on_c, 1, 50, 0
5, 293760, Note_on_c, 1, 49, 65
5, 294720, Note_on_c, 1, 37, 57
5, 294792, Note_on_c, 1, 49, 0
5, 295573, Note_on_c, 1, 37, 0
5, 295680, Note_on_c, 1, 36, 87
5, 296640, Note_on_c, 1, 48, 79
5, 297377, Note_on_c, 1, 48, 0
5, 297395, Note_on_c, 1, 36, 0
5, 297600, Note_on_c, 1, 47, 78
5, 298293, Note_on_c, 1, 47, 0
5, 298560, Note_on_c, 1, 47, 68
5, 299381, Note_on_c, 1, 47, 0
5, 299520, Note_on_c, 1, 43, 67
5, 300270, Note_on_c, 1, 43, 0
5, 300480, Note_on_c, 1, 43, 68
5, 301333, Note_on_c, 1, 43, 0
5, 301440, Note_on_c, 1, 45, 76
5, 302225, Note_on_c, 1, 45, 0
5, 302400, Note_on_c, 1, 45, 75
5, 303160, Note_on_c, 1, 45, 0
5, 303360, Note_on_c, 1, 46, 66
5, 304320, Note_on_c, 1, 36, 62
5, 304351, Note_on_c, 1, 46, 0
5, 305280, Note_on_c, 1, 50, 84
5, 305438, Note_on_c, 1, 36, 0
5, 306041, Note_on_c, 1, 50, 0
5, 306240, Note_on_c, 1, 49, 78
5, 307105, Note_on_c, 1, 49, 0
5, 307200, Note_on_c, 1, 48, 64
5, 307893, Note_on_c, 1, 48, 0
5, 307953, Note_on_c, 1, 50, 81
5, 308160, Note_on_c, 1, 52, 89
5, 308245, Note_on_c, 1, 52, 0
5, 308780, Note_on_c, 1, 50, 0
5, 309120, Note_on_c, 1, 49, 66
5, 309960, Note_on_c, 1, 49, 0
5, 310080, Note_on_c, 1, 48, 65
5, 310870, Note_on_c, 1, 48, 0
5, 311040, Note_on_c, 1, 46, 62
5, 311872, Note_on_c, 1, 46, 0
5, 312000, Note_on_c, 1, 45, 61
5, 312722, Note_on_c, 1, 45, 0
5, 312960, Note_on_c, 1, 38, 57
5, 313920, Note_on_c, 1, 45, 74
5, 314008, Note_on_c, 1, 38, 0
5, 314434, Note_on_c, 1, 45, 0
5, 314560, Note_on_c, 1, 38, 73
5, 314701, Note_on_c, 1, 38, 0
5, 314880, Note_on_c, 1, 43, 75
5, 315771, Note_on_c, 1, 43, 0
5, 315840, Note_on_c, 1, 38, 65
5, 316534, Note_on_c, 1, 38, 0
5, 316800, Note_on_c, 1, 34, 56
5, 317552, Note_on_c, 1, 34, 0
5, 317760, Note_on_c, 1, 35, 52
5, 318620, Note_on_c, 1, 35, 0
5, 318720, Note_on_c, 1, 36, 48
5, 319642, Note_on_c, 1, 36, 0
5, 319680, Note_on_c, 1, 34, 36
5, 319680, Note_on_c, 1, 37, 61
5, 319949, Note_on_c, 1, 34, 0
5, 320320, Note_on_c, 1, 34, 32
5, 320505, Note_on_c, 1, 34, 0
5, 320541, Note_on_c, 1, 37, 0
5, 320640, Note_on_c, 1, 38, 60
5, 321548, Note_on_c, 1, 38, 0
5, 321600, Note_on_c, 1, 34, 37
5, 321600, Note_on_c, 1, 42, 78
5, 321897, Note_on_c, 1, 34, 0
5, 322240, Note_on_c, 1, 34, 33
5, 322486, Note_on_c, 1, 34, 0
5, 322494, Note_on_c, 1, 42, 0
5, 322560, Note_on_c, 1, 43, 58
5, 323445, Note_on_c, 1, 43, 0
5, 323520, Note_on_c, 1, 34, 66
5, 324480, Note_on_c, 1, 34, 0
5, 324480, Note_on_c, 1, 38, 62
5, 325369, Note_on_c, 1, 38, 0
5, 325440, Note_on_c, 1, 37, 63
5, 326400, Note_on_c, 1, 36, 64
5, 326422, Note_on_c, 1, 37, 0
5, 327360, Note_on_c, 1, 50, 90
5, 327372, Note_on_c, 1, 36, 0
5, 328175, Note_on_c, 1, 50, 0
5, 328320, Note_on_c, 1, 48, 60
5, 329162, Note_on_c, 1, 48, 0
5, 329280, Note_on_c, 1, 46, 69
5, 330109, Note_on_c, 1, 46, 0
5, 330240, Note_on_c, 1, 45, 57
5, 331157, Note_on_c, 1, 45, 0
5, 331200, Note_on_c, 1, 43, 62
5, 332073, Note_on_c, 1, 43, 0
5, 332160, Note_on_c, 1, 41, 50
5, 333021, Note_on_c, 1, 41, 0
5, 333120, Note_on_c, 1, 39, 69
5, 333562, Note_on_c, 1, 39, 0
5, 333760, Note_on_c, 1, 40, 22
5, 334080, Note_on_c, 1, 38, 85
5, 334088, Note_on_c, 1, 40, 0
5, 334769, Note_on_c, 1, 38, 0
5, 335040, Note_on_c, 1, 36, 47
5, 335729, Note_on_c, 1, 36, 0
5, 336000, Note_on_c, 1, 33, 61
5, 336735, Note_on_c, 1, 33, 0
5, 336960, Note_on_c, 1, 31, 69
5, 337853, Note_on_c, 1, 31, 0
5, 337920, Note_on_c, 1, 29, 65
5, 338880, Note_on_c, 1, 43, 79
5, 339205, Note_on_c, 1, 29, 0
5, 339733, Note_on_c, 1, 43, 0
5, 339840, Note_on_c, 1, 41, 69
5, 340593, Note_on_c, 1, 41, 0
5, 340800, Note_on_c, 1, 36, 58
5, 341440, Note_on_c, 1, 34, 33
5, 341537, Note_on_c, 1, 34, 0
5, 341760, Note_on_c, 1, 43, 94
5, 341796, Note_on_c, 1, 36, 0
5, 342539, Note_on_c, 1, 43, 0
5, 342720, Note_on_c, 1, 42, 72
5, 343475, Note_on_c, 1, 42, 0
5, 343680, Note_on_c, 1, 41, 64
5, 344633, Note_on_c, 1, 41, 0
5, 344640, Note_on_c, 1, 39, 61
5, 345597, Note_on_c, 1, 39, 0
5, 345600, Note_on_c, 1, 40, 61
5, 346473, Note_on_c, 1, 40, 0
5, 346560, Note_on_c, 1, 45, 95
5, 347328, Note_on_c, 1, 45, 0
5, 347520, Note_on_c, 1, 34, 40
5, 347686, Note_on_c, 1, 34, 0
5, 348480, Note_on_c, 1, 33, 63
5, 349356, Note_on_c, 1, 33, 0
5, 349440, Note_on_c, 1, 51, 78
5, 350400, Note_on_c, 1, 39, 64
5, 350426, Note_on_c, 1, 51, 0
5, 351240, Note_on_c, 1, 39, 0
5, 351360, Note_on_c, 1, 38, 57
5, 352320, Note_on_c, 1, 50, 92
5, 352399, Note_on_c, 1, 38, 0
5, 353154, Note_on_c, 1, 50, 0
5, 353280, Note_on_c, 1, 46, 74
5, 354157, Note_on_c, 1, 46, 0
5, 354240, Note_on_c, 1, 34, 64
5, 355102, Note_on_c, 1, 34, 0
5, 355200, Note_on_c, 1, 35, 69
5, 356003, Note_on_c, 1, 35, 0
5, 356160, Note_on_c, 1, 35, 65
5, 357010, Note_on_c, 1, 35, 0
5, 357120, Note_on_c, 1, 36, 67
5, 358022, Note_on_c, 1, 36, 0
5, 358080, Note_on_c, 1, 36, 62
5, 358971, Note_on_c, 1, 36, 0
5, 359040, Note_on_c, 1, 48, 106
5, 359870, Note_on_c, 1, 48, 0
5, 360000, Note_on_c, 1, 48, 97
5, 361032, Note_on_c, 1, 48, 0
5, 361920, Note_on_c, 1, 36, 78
5, 362880, Note_on_c, 1, 48, 102
5, 363666, Note_on_c, 1, 48, 0
5, 363840, Note_on_c, 1, 48, 95
5, 363930, Note_on_c, 1, 36, 0
5, 364800, Note_on_c, 1, 36, 64
5, 365509, Note_on_c, 1, 36, 0
5, 365735, Note_on_c, 1, 48, 0
5, 365760, Note_on_c, 1, 36, 72
5, 366720, Note_on_c, 1, 48, 81
5, 367007, Note_on_c, 1, 48, 0
5, 367335, Note_on_c, 1, 36, 0
5, 367360, Note_on_c, 1, 27, 64
5, 367584, Note_on_c, 1, 27, 0
5, 367680, Note_on_c, 1, 28, 60
5, 368618, Note_on_c, 1, 28, 0
5, 368640, Note_on_c, 1, 29, 55
5, 369468, Note_on_c, 1, 29, 0
5, 369600, Note_on_c, 1, 27, 36
5, 369600, Note_on_c, 1, 29, 64
5, 369725, Note_on_c, 1, 27, 0
5, 370452, Note_on_c, 1, 29, 0
5, 370560, Note_on_c, 1, 34, 78
5, 371372, Note_on_c, 1, 34, 0
5, 371520, Note_on_c, 1, 34, 71
5, 372449, Note_on_c, 1, 34, 0
5, 372480, Note_on_c, 1, 33, 59
5, 373345, Note_on_c, 1, 33, 0
5, 373440, Note_on_c, 1, 32, 45
5, 373440, Note_on_c, 1, 45, 82
5, 373584, Note_on_c, 1, 32, 0
5, 374080, Note_on_c, 1, 38, 39
5, 374206, Note_on_c, 1, 38, 0
5, 374303, Note_on_c, 1, 45, 0
5, 374400, Note_on_c, 1, 50, 70
5, 375314, Note_on_c, 1, 50, 0
5, 375360, Note_on_c, 1, 38, 62
5, 376320, Note_on_c, 1, 43, 70
5, 376368, Note_on_c, 1, 38, 0
5, 377226, Note_on_c, 1, 43, 0
5, 377280, Note_on_c, 1, 34, 61
5, 378225, Note_on_c, 1, 34, 0
5, 378240, Note_on_c, 1, 38, 61
5, 379187, Note_on_c, 1, 38, 0
5, 379200, Note_on_c, 1, 37, 55
5, 380073, Note_on_c, 1, 37, 0
5, 380160, Note_on_c, 1, 36, 67
5, 380941, Note_on_c, 1, 36, 0
5, 381120, Note_on_c, 1, 29, 61
5, 381984, Note_on_c, 1, 29, 0
5, 382080, Note_on_c, 1, 35, 81
5, 382917, Note_on_c, 1, 35, 0
5, 383040, Note_on_c, 1, 30, 69
5, 383889, Note_on_c, 1, 30, 0
5, 384000, Note_on_c, 1, 31, 67
5, 384945, Note_on_c, 1, 31, 0
5, 384960, Note_on_c, 1, 45, 108
5, 385766, Note_on_c, 1, 45, 0
5, 385920, Note_on_c, 1, 43, 63
5, 386779, Note_on_c, 1, 43, 0
5, 386880, Note_on_c, 1, 50, 75
5, 387732, Note_on_c, 1, 50, 0
5, 387840, Note_on_c, 1, 48, 65
5, 388701, Note_on_c, 1, 48, 0
5, 388800, Note_on_c, 1, 43, 64
5, 389670, Note_on_c, 1, 43, 0
5, 389760, Note_on_c, 1, 36, 71
5, 390672, Note_on_c, 1, 36, 0
5, 390720, Note_on_c, 1, 43, 69
5, 391516, Note_on_c, 1, 43, 0
5, 391680, Note_on_c, 1, 41, 70
5, 392446, Note_on_c, 1, 41, 0
5, 392640, Note_on_c, 1, 41, 75
5, 393492, Note_on_c, 1, 41, 0
5, 393600, Note_on_c, 1, 43, 54
5, 394373, Note_on_c, 1, 43, 0
5, 394560, Note_on_c, 1, 43, 74
5, 395453, Note_on_c, 1, 43, 0
5, 395520, Note_on_c, 1, 45, 81
5, 396160, Note_on_c, 1, 43, 27
5, 396346, Note_on_c, 1, 45, 0
5, 396434, Note_on_c, 1, 43, 0
5, 396480, Note_on_c, 1, 45, 75
5, 397261, Note_on_c, 1, 45, 0
5, 397440, Note_on_c, 1, 46, 67
5, 398228, Note_on_c, 1, 46, 0
5, 398400, Note_on_c, 1, 47, 75
5, 399295, Note_on_c, 1, 47, 0
5, 399360, Note_on_c, 1, 48, 71
5, 400069, Note_on_c, 1, 48, 0
5, 400320, Note_on_c, 1, 40, 62
5, 401159, Note_on_c, 1, 40, 0
5, 401280, Note_on_c, 1, 41, 69
5, 402112, Note_on_c, 1, 41, 0
5, 402240, Note_on_c, 1, 35, 59
5, 403024, Note_on_c, 1, 35, 0
5, 403200, Note_on_c, 1, 36, 57
5, 404091, Note_on_c, 1, 36, 0
5, 404160, Note_on_c, 1, 28, 54
5, 404953, Note_on_c, 1, 28, 0
5, 405120, Note_on_c, 1, 29, 49
5, 405736, Note_on_c, 1, 29, 0
5, 406080, Note_on_c, 1, 39, 71
5, 406963, Note_on_c, 1, 39, 0
5, 407040, Note_on_c, 1, 40, 62
5, 407895, Note_on_c, 1, 40, 0
5, 408000, Note_on_c, 1, 34, 63
5, 408898, Note_on_c, 1, 34, 0
5, 408960, Note_on_c, 1, 31, 63
5, 409831, Note_on_c, 1, 31, 0
5, 409920, Note_on_c, 1, 32, 64
5, 410839, Note_on_c, 1, 32, 0
5, 410880, Note_on_c, 1, 33, 63
5, 411782, Note_on_c, 1, 33, 0
5, 411840, Note_on_c, 1, 35, 67
5, 412756, Note_on_c, 1, 35, 0
5, 412800, Note_on_c, 1, 36, 61
5, 413760, Note_on_c, 1, 37, 54
5, 413789, Note_on_c, 1, 36, 0
5, 414720, Note_on_c, 1, 34, 25
5, 414822, Note_on_c, 1, 37, 0
5, 415040, Note_on_c, 1, 38, 72
5, 415208, Note_on_c, 1, 34, 0
5, 415680, Note_on_c, 1, 50, 90
5, 416460, Note_on_c, 1, 50, 0
5, 416640, Note_on_c, 1, 50, 80
5, 417112, Note_on_c, 1, 38, 0
5, 417505, Note_on_c, 1, 50, 0
5, 417600, Note_on_c, 1, 49, 84
5, 418304, Note_on_c, 1, 49, 0
5, 418560, Note_on_c, 1, 49, 82
5, 419374, Note_on_c, 1, 49, 0
5, 419520, Note_on_c, 1, 48, 53
5, 420170, Note_on_c, 1, 48, 0
5, 420480, Note_on_c, 1, 48, 67
5, 421278, Note_on_c, 1, 48, 0
5, 421440, Note_on_c, 1, 47, 69
5, 422080, Note_on_c, 1, 43, 34
5, 422157, Note_on_c, 1, 47, 0
5, 422231, Note_on_c, 1, 43, 0
5, 422400, Note_on_c, 1, 47, 64
5, 423155, Note_on_c, 1, 47, 0
5, 423360, Note_on_c, 1, 46, 57
5, 424039, Note_on_c, 1, 46, 0
5, 424320, Note_on_c, 1, 46, 70
5, 425188, Note_on_c, 1, 46, 0
5, 425280, Note_on_c, 1, 45, 62
5, 426082, Note_on_c, 1, 45, 0
5, 426240, Note_on_c, 1, 46, 67
5, 427110, Note_on_c, 1, 46, 0
5, 427200, Note_on_c, 1, 35, 67
5, 428088, Note_on_c, 1, 35, 0
5, 428160, Note_on_c, 1, 36, 60
5, 429056, Note_on_c, 1, 36, 0
5, 429120, Note_on_c, 1, 48, 95
5, 431040, Note_on_c, 1, 36, 88
5, 431180, Note_on_c, 1, 48, 0
5, 432943, Note_on_c, 1, 36, 0
5, 432960, Note_on_c, 1, 46, 87
5, 434560, Note_on_c, 1, 33, 76
5, 434604, Note_on_c, 1, 46, 0
5, 435840, Note_on_c, 1, 38, 70
5, 435852, Note_on_c, 1, 33, 0
5, 436611, Note_on_c, 1, 38, 0
5, 436800, Note_on_c, 1, 32, 66
5, 437650, Note_on_c, 1, 32, 0
5, 437760, Note_on_c, 1, 31, 71
5, 438720, Note_on_c, 1, 50, 101
5, 438741, Note_on_c, 1, 31, 0
5, 440095, Note_on_c, 1, 50, 0
5, 440320, Note_on_c, 1, 48, 81
5, 441280, Note_on_c, 1, 35, 65
5, 441397, Note_on_c, 1, 48, 0
5, 441600, Note_on_c, 1, 36, 64
5, 441605, Note_on_c, 1, 35, 0
5, 443200, Note_on_c, 1, 34, 59
5, 443220, Note_on_c, 1, 36, 0
5, 443448, Note_on_c, 1, 34, 0
5, 443520, Note_on_c, 1, 50, 99
5, 444029, Note_on_c, 1, 50, 0
5, 444160, Note_on_c, 1, 36, 56
5, 444285, Note_on_c, 1, 36, 0
5, 444480, Note_on_c, 1, 49, 93
5, 445440, Note_on_c, 1, 34, 33
5, 445542, Note_on_c, 1, 34, 0
5, 445837, Note_on_c, 1, 49, 0
5, 446080, Note_on_c, 1, 48, 81
5, 446285, Note_on_c, 1, 48, 0
5, 446400, Note_on_c, 1, 36, 61
5, 447294, Note_on_c, 1, 36, 0
5, 447360, Note_on_c, 1, 34, 53
5, 448187, Note_on_c, 1, 34, 0
5, 448320, Note_on_c, 1, 35, 70
5, 449255, Note_on_c, 1, 35, 0
5, 449280, Note_on_c, 1, 36, 58
5, 450240, Note_on_c, 1, 48, 89
5, 450611, Note_on_c, 1, 48, 0
5, 450880, Note_on_c, 1, 48, 70
5, 451105, Note_on_c, 1, 48, 0
5, 451200, Note_on_c, 1, 48, 59
5, 451547, Note_on_c, 1, 36, 0
5, 451619, Note_on_c, 1, 48, 0
5, 451840, Note_on_c, 1, 48, 83
5, 452751, Note_on_c, 1, 48, 0
5, 452800, Note_on_c, 1, 38, 46
5, 453000, Note_on_c, 1, 38, 0
5, 453120, Note_on_c, 1, 48, 92
5, 454080, Note_on_c, 1, 36, 62
5, 454733, Note_on_c, 1, 36, 0
5, 454967, Note_on_c, 1, 48, 0
5, 455040, Note_on_c, 1, 36, 68
5, 456000, Note_on_c, 1, 48, 91
5, 456448, Note_on_c, 1, 48, 0
5, 456960, Note_on_c, 1, 48, 91
5, 457106, Note_on_c, 1, 36, 0
5, 457920, Note_on_c, 1, 36, 67
5, 458314, Note_on_c, 1, 36, 0
5, 458880, Note_on_c, 1, 39, 69
5, 459630, Note_on_c, 1, 39, 0
5, 459832, Note_on_c, 1, 48, 0
5, 459840, Note_on_c, 1, 40, 60
5, 460780, Note_on_c, 1, 40, 0
5, 460800, Note_on_c, 1, 41, 69
5, 462720, Note_on_c, 1, 33, 67
5, 462745, Note_on_c, 1, 41, 0
5, 464622, Note_on_c, 1, 33, 0
5, 464640, Note_on_c, 1, 41, 83
5, 466373, Note_on_c, 1, 41, 0
5, 466560, Note_on_c, 1, 38, 66
5, 467356, Note_on_c, 1, 38, 0
5, 467520, Note_on_c, 1, 39, 64
5, 468367, Note_on_c, 1, 39, 0
5, 468480, Note_on_c, 1, 40, 61
5, 470400, Note_on_c, 1, 33, 62
5, 470446, Note_on_c, 1, 40, 0
5, 472207, Note_on_c, 1, 33, 0
5, 472320, Note_on_c, 1, 39, 66
5, 472320, Note_on_c, 1, 55, 97
5, 473867, Note_on_c, 1, 55, 0
5, 473887, Note_on_c, 1, 39, 0
5, 473920, Note_on_c, 1, 38, 53
5, 473920, Note_on_c, 1, 54, 66
5, 475904, Note_on_c, 1, 54, 0
5, 476631, Note_on_c, 1, 38, 0
5, 476800, Note_on_c, 1, 34, 90
5, 478062, Note_on_c, 1, 34, 0
5, 478080, Note_on_c, 1, 35, 75
5, 479560, Note_on_c, 1, 35, 0
5, 479680, Note_on_c, 1, 36, 62
5, 480856, Note_on_c, 1, 36, 0
5, 480960, Note_on_c, 1, 48, 102
5, 480960, Note_on_c, 1, 34, 28
5, 481300, Note_on_c, 1, 34, 0
5, 481655, Note_on_c, 1, 48, 0
5, 482560, Note_on_c, 1, 48, 91
5, 483271, Note_on_c, 1, 48, 0
5, 484480, Note_on_c, 1, 34, 80
5, 484480, Note_on_c, 1, 50, 99
5, 485650, Note_on_c, 1, 50, 0
5, 485752, Note_on_c, 1, 34, 0
5, 485760, Note_on_c, 1, 51, 68
5, 485760, Note_on_c, 1, 35, 71
5, 487062, Note_on_c, 1, 51, 0
5, 487209, Note_on_c, 1, 35, 0
5, 487360, Note_on_c, 1, 36, 53
5, 487360, Note_on_c, 1, 52, 64
5, 488482, Note_on_c, 1, 36, 0
5, 488546, Note_on_c, 1, 52, 0
5, 488640, Note_on_c, 1, 36, 42
5, 488640, Note_on_c, 1, 48, 50
5, 488853, Note_on_c, 1, 48, 0
5, 488868, Note_on_c, 1, 36, 0
5, 492160, Note_on_c, 1, 34, 99
5, 493440, Note_on_c, 1, 35, 81
5, 493463, Note_on_c, 1, 34, 0
5, 494892, Note_on_c, 1, 35, 0
5, 495040, Note_on_c, 1, 36, 87
5, 498098, Note_on_c, 1, 36, 0
5, 498240, Note_on_c, 1, 40, 43
5, 498858, Note_on_c, 1, 40, 0
5, 498880, Note_on_c, 1, 41, 66
5, 503458, Note_on_c, 1, 41, 0
5, 503458, End_track
6, 0, Start_track
6, 0, Title_t, "Drums 2"
6, 4965, Note_on_c, 9, 37, 45
6, 5317, Note_on_c, 9, 37, 0
6, 5983, Note_on_c, 9, 37, 32
6, 6426, Note_on_c, 9, 37, 0
6, 27043, Note_on_c, 9, 37, 28
6, 27259, Note_on_c, 9, 37, 0
6, 27584, Note_on_c, 9, 37, 25
6, 27796, Note_on_c, 9, 37, 0
6, 28034, Note_on_c, 9, 37, 27
6, 28564, Note_on_c, 9, 37, 0
6, 30013, Note_on_c, 9, 37, 36
6, 30335, Note_on_c, 9, 37, 0
6, 45859, Note_on_c, 9, 37, 35
6, 46040, Note_on_c, 9, 37, 0
6, 46239, Note_on_c, 9, 37, 28
6, 46664, Note_on_c, 9, 37, 0
6, 48131, Note_on_c, 9, 36, 27
6, 48547, Note_on_c, 9, 36, 0
6, 56879, Note_on_c, 9, 38, 17
6, 57283, Note_on_c, 9, 38, 0
6, 57575, Note_on_c, 9, 36, 20
6, 57739, Note_on_c, 9, 36, 0
6, 58489, Note_on_c, 9, 38, 21
6, 58725, Note_on_c, 9, 38, 0
6, 58985, Note_on_c, 9, 36, 19
6, 59297, Note_on_c, 9, 36, 0
6, 59477, Note_on_c, 9, 38, 18
6, 59693, Note_on_c, 9, 38, 0
6, 59946, Note_on_c, 9, 36, 31
6, 60208, Note_on_c, 9, 36, 0
6, 60449, Note_on_c, 9, 38, 25
6, 60609, Note_on_c, 9, 38, 0
6, 60863, Note_on_c, 9, 36, 19
6, 61106, Note_on_c, 9, 36, 0
6, 61375, Note_on_c, 9, 38, 24
6, 61509, Note_on_c, 9, 38, 0
6, 61704, Note_on_c, 9, 36, 44
6, 62273, Note_on_c, 9, 36, 0
6, 72047, Note_on_c, 9, 37, 34
6, 72321, Note_on_c, 9, 37, 0
6, 75824, Note_on_c, 9, 37, 28
6, 76149, Note_on_c, 9, 37, 0
6, 77850, Note_on_c, 9, 36, 22
6, 78123, Note_on_c, 9, 36, 0
6, 78830, Note_on_c, 9, 36, 24
6, 79051, Note_on_c, 9, 36, 0
6, 79754, Note_on_c, 9, 37, 36
6, 80141, Note_on_c, 9, 37, 0
6, 80819, Note_on_c, 9, 36, 13
6, 81009, Note_on_c, 9, 36, 0
6, 81622, Note_on_c, 9, 36, 32
6, 81988, Note_on_c, 9, 36, 0
6, 82605, Note_on_c, 9, 37, 39
6, 83033, Note_on_c, 9, 37, 0
6, 83528, Note_on_c, 9, 36, 47
6, 84028, Note_on_c, 9, 36, 0
6, 84489, Note_on_c, 9, 36, 52
6, 85002, Note_on_c, 9, 36, 0
6, 85466, Note_on_c, 9, 37, 59
6, 85967, Note_on_c, 9, 37, 0
6, 86449, Note_on_c, 9, 36, 44
6, 86749, Note_on_c, 9, 36, 0
6, 87354, Note_on_c, 9, 36, 50
6, 87765, Note_on_c, 9, 36, 0
6, 91224, Note_on_c, 9, 38, 14
6, 91509, Note_on_c, 9, 38, 0
6, 91760, Note_on_c, 9, 36, 33
6, 91987, Note_on_c, 9, 36, 0
6, 92196, Note_on_c, 9, 36, 30
6, 92595, Note_on_c, 9, 36, 0
6, 92867, Note_on_c, 9, 36, 46
6, 93045, Note_on_c, 9, 36, 0
6, 94242, Note_on_c, 9, 36, 26
6, 94521, Note_on_c, 9, 36, 0
6, 101423, Note_on_c, 9, 36, 42
6, 101624, Note_on_c, 9, 36, 0
6, 101906, Note_on_c, 9, 36, 37
6, 102369, Note_on_c, 9, 36, 0
6, 103392, Note_on_c, 9, 36, 32
6, 103562, Note_on_c, 9, 36, 0
6, 103861, Note_on_c, 9, 36, 27
6, 104309, Note_on_c, 9, 36, 0
6, 105255, Note_on_c, 9, 36, 33
6, 105427, Note_on_c, 9, 36, 0
6, 105718, Note_on_c, 9, 36, 34
6, 105996, Note_on_c, 9, 36, 0
6, 110469, Note_on_c, 9, 44, 47
6, 110714, Note_on_c, 9, 44, 0
6, 110965, Note_on_c, 9, 38, 19
6, 111069, Note_on_c, 9, 38, 0
6, 111968, Note_on_c, 9, 36, 30
6, 112104, Note_on_c, 9, 36, 0
6, 114170, Note_on_c, 9, 44, 54
6, 114534, Note_on_c, 9, 44, 0
6, 115089, Note_on_c, 9, 44, 48
6, 115569, Note_on_c, 9, 44, 0
6, 115873, Note_on_c, 9, 38, 27
6, 116030, Note_on_c, 9, 38, 0
6, 116262, Note_on_c, 9, 36, 28
6, 116382, Note_on_c, 9, 36, 0
6, 116830, Note_on_c, 9, 36, 54
6, 117006, Note_on_c, 9, 36, 0
6, 117102, Note_on_c, 9, 44, 69
6, 117513, Note_on_c, 9, 44, 0
6, 118030, Note_on_c, 9, 44, 67
6, 118624, Note_on_c, 9, 44, 0
6, 119694, Note_on_c, 9, 45, 30
6, 119753, Note_on_c, 9, 45, 0
6, 120056, Note_on_c, 9, 44, 77
6, 120464, Note_on_c, 9, 44, 0
6, 120696, Note_on_c, 9, 45, 44
6, 120760, Note_on_c, 9, 45, 0
6, 121582, Note_on_c, 9, 40, 70
6, 121717, Note_on_c, 9, 40, 0
6, 122225, Note_on_c, 9, 40, 51
6, 122446, Note_on_c, 9, 40, 0
6, 122545, Note_on_c, 9, 38, 40
6, 122641, Note_on_c, 9, 38, 0
6, 122928, Note_on_c, 9, 36, 73
6, 125280, Note_on_c, 9, 36, 0
6, 125366, Note_on_c, 9, 40, 55
6, 125441, Note_on_c, 9, 40, 0
6, 125678, Note_on_c, 9, 57, 85
6, 125710, Note_on_c, 9, 36, 80
6, 125770, Note_on_c, 9, 44, 64
6, 125847, Note_on_c, 9, 57, 0
6, 126222, Note_on_c, 9, 44, 0
6, 127414, Note_on_c, 9, 36, 0
6, 129649, Note_on_c, 9, 44, 56
6, 130069, Note_on_c, 9, 44, 0
6, 130317, Note_on_c, 9, 38, 26
6, 130370, Note_on_c, 9, 38, 0
6, 130625, Note_on_c, 9, 38, 26
6, 131113, Note_on_c, 9, 38, 0
6, 131248, Note_on_c, 9, 36, 49
6, 131430, Note_on_c, 9, 36, 0
6, 131579, Note_on_c, 9, 36, 41
6, 132011, Note_on_c, 9, 36, 0
6, 132209, Note_on_c, 9, 36, 45
6, 132369, Note_on_c, 9, 36, 0
6, 133472, Note_on_c, 9, 44, 63
6, 133814, Note_on_c, 9, 44, 0
6, 134436, Note_on_c, 9, 44, 67
6, 134924, Note_on_c, 9, 44, 0
6, 135976, Note_on_c, 9, 38, 27
6, 136033, Note_on_c, 9, 38, 0
6, 136937, Note_on_c, 9, 38, 28
6, 137022, Note_on_c, 9, 38, 0
6, 137258, Note_on_c, 9, 44, 67
6, 137813, Note_on_c, 9, 44, 0
6, 137923, Note_on_c, 9, 38, 23
6, 138037, Note_on_c, 9, 38, 0
6, 138309, Note_on_c, 9, 36, 26
6, 138447, Note_on_c, 9, 36, 0
6, 138846, Note_on_c, 9, 36, 47
6, 138974, Note_on_c, 9, 36, 0
6, 139160, Note_on_c, 9, 36, 48
6, 139334, Note_on_c, 9, 36, 0
6, 141126, Note_on_c, 9, 44, 77
6, 141129, Note_on_c, 9, 38, 14
6, 141273, Note_on_c, 9, 38, 0
6, 141372, Note_on_c, 9, 38, 14
6, 141527, Note_on_c, 9, 38, 0
6, 141841, Note_on_c, 9, 44, 0
6, 141884, Note_on_c, 9, 38, 22
6, 142021, Note_on_c, 9, 38, 0
6, 142101, Note_on_c, 9, 38, 27
6, 142158, Note_on_c, 9, 38, 0
6, 142496, Note_on_c, 9, 36, 58
6, 142673, Note_on_c, 9, 36, 0
6, 143049, Note_on_c, 9, 44, 77
6, 143123, Note_on_c, 9, 36, 56
6, 143462, Note_on_c, 9, 36, 0
6, 143650, Note_on_c, 9, 44, 0
6, 144999, Note_on_c, 9, 44, 73
6, 145602, Note_on_c, 9, 44, 0
6, 146921, Note_on_c, 9, 44, 74
6, 147520, Note_on_c, 9, 44, 0
6, 147528, Note_on_c, 9, 38, 27
6, 147614, Note_on_c, 9, 38, 0
6, 148470, Note_on_c, 9, 38, 28
6, 148619, Note_on_c, 9, 38, 0
6, 149441, Note_on_c, 9, 36, 34
6, 149539, Note_on_c, 9, 36, 0
6, 149782, Note_on_c, 9, 36, 34
6, 149882, Note_on_c, 9, 36, 0
6, 150684, Note_on_c, 9, 44, 72
6, 151181, Note_on_c, 9, 44, 0
6, 151315, Note_on_c, 9, 38, 33
6, 151398, Note_on_c, 9, 38, 0
6, 152240, Note_on_c, 9, 38, 25
6, 152304, Note_on_c, 9, 44, 71
6, 152318, Note_on_c, 9, 38, 0
6, 152515, Note_on_c, 9, 44, 0
6, 152598, Note_on_c, 9, 57, 54
6, 152641, Note_on_c, 9, 36, 51
6, 152658, Note_on_c, 9, 44, 74
6, 153072, Note_on_c, 9, 44, 0
6, 154147, Note_on_c, 9, 57, 0
6, 154548, Note_on_c, 9, 44, 65
6, 154960, Note_on_c, 9, 36, 0
6, 155091, Note_on_c, 9, 44, 0
6, 156566, Note_on_c, 9, 44, 72
6, 157081, Note_on_c, 9, 44, 0
6, 157150, Note_on_c, 9, 36, 42
6, 157217, Note_on_c, 9, 36, 0
6, 158489, Note_on_c, 9, 44, 64
6, 158844, Note_on_c, 9, 44, 0
6, 160382, Note_on_c, 9, 46, 46
6, 160716, Note_on_c, 9, 46, 0
6, 161019, Note_on_c, 9, 36, 45
6, 161089, Note_on_c, 9, 36, 0
6, 162293, Note_on_c, 9, 44, 48
6, 162705, Note_on_c, 9, 44, 0
6, 166098, Note_on_c, 9, 44, 69
6, 166381, Note_on_c, 9, 44, 0
6, 167615, Note_on_c, 9, 38, 18
6, 167730, Note_on_c, 9, 38, 0
6, 168075, Note_on_c, 9, 46, 55
6, 168439, Note_on_c, 9, 46, 0
6, 168660, Note_on_c, 9, 38, 15
6, 168769, Note_on_c, 9, 38, 0
6, 169632, Note_on_c, 9, 38, 15
6, 169721, Note_on_c, 9, 38, 0
6, 169904, Note_on_c, 9, 44, 60
6, 170244, Note_on_c, 9, 44, 0
6, 170606, Note_on_c, 9, 36, 24
6, 170683, Note_on_c, 9, 36, 0
6, 170971, Note_on_c, 9, 36, 32
6, 171385, Note_on_c, 9, 36, 0
6, 171563, Note_on_c, 9, 36, 49
6, 171785, Note_on_c, 9, 36, 0
6, 171889, Note_on_c, 9, 44, 63
6, 171904, Note_on_c, 9, 36, 47
6, 172332, Note_on_c, 9, 44, 0
6, 172446, Note_on_c, 9, 36, 0
6, 175798, Note_on_c, 9, 44, 57
6, 176167, Note_on_c, 9, 44, 0
6, 176761, Note_on_c, 9, 44, 65
6, 177213, Note_on_c, 9, 44, 0
6, 178921, Note_on_c, 9, 45, 37
6, 179000, Note_on_c, 9, 45, 0
6, 179205, Note_on_c, 9, 45, 53
6, 179323, Note_on_c, 9, 45, 0
6, 179594, Note_on_c, 9, 44, 67
6, 179942, Note_on_c, 9, 44, 0
6, 180515, Note_on_c, 9, 44, 69
6, 180969, Note_on_c, 9, 44, 0
6, 181773, Note_on_c, 9, 45, 37
6, 181841, Note_on_c, 9, 45, 0
6, 182081, Note_on_c, 9, 45, 58
6, 182157, Note_on_c, 9, 45, 0
6, 182408, Note_on_c, 9, 44, 68
6, 182742, Note_on_c, 9, 43, 49
6, 182822, Note_on_c, 9, 43, 0
6, 182824, Note_on_c, 9, 44, 0
6, 183068, Note_on_c, 9, 43, 70
6, 183155, Note_on_c, 9, 43, 0
6, 183338, Note_on_c, 9, 44, 69
6, 183672, Note_on_c, 9, 44, 0
6, 183688, Note_on_c, 9, 40, 55
6, 183744, Note_on_c, 9, 40, 0
6, 184013, Note_on_c, 9, 38, 30
6, 184168, Note_on_c, 9, 38, 0
6, 184353, Note_on_c, 9, 57, 82
6, 184374, Note_on_c, 9, 36, 82
6, 185827, Note_on_c, 9, 57, 0
6, 187360, Note_on_c, 9, 36, 0
6, 188784, Note_on_c, 9, 38, 19
6, 188864, Note_on_c, 9, 38, 0
6, 189126, Note_on_c, 9, 36, 50
6, 189159, Note_on_c, 9, 46, 42
6, 189229, Note_on_c, 9, 36, 0
6, 189602, Note_on_c, 9, 46, 0
6, 189745, Note_on_c, 9, 36, 59
6, 189981, Note_on_c, 9, 36, 0
6, 191113, Note_on_c, 9, 44, 48
6, 191551, Note_on_c, 9, 44, 0
6, 192949, Note_on_c, 9, 38, 16
6, 193022, Note_on_c, 9, 44, 57
6, 193256, Note_on_c, 9, 38, 0
6, 193535, Note_on_c, 9, 44, 0
6, 194910, Note_on_c, 9, 44, 53
6, 195421, Note_on_c, 9, 44, 0
6, 196809, Note_on_c, 9, 38, 25
6, 197243, Note_on_c, 9, 38, 0
6, 198390, Note_on_c, 9, 38, 18
6, 198569, Note_on_c, 9, 38, 0
6, 198728, Note_on_c, 9, 38, 16
6, 198750, Note_on_c, 9, 44, 77
6, 199072, Note_on_c, 9, 44, 0
6, 199185, Note_on_c, 9, 38, 0
6, 199400, Note_on_c, 9, 38, 19
6, 199547, Note_on_c, 9, 38, 0
6, 200304, Note_on_c, 9, 36, 38
6, 200536, Note_on_c, 9, 36, 0
6, 200653, Note_on_c, 9, 44, 75
6, 200729, Note_on_c, 9, 36, 38
6, 200905, Note_on_c, 9, 36, 0
6, 200982, Note_on_c, 9, 44, 0
6, 202627, Note_on_c, 9, 44, 75
6, 203073, Note_on_c, 9, 44, 0
6, 203219, Note_on_c, 9, 38, 24
6, 203526, Note_on_c, 9, 38, 0
6, 203784, Note_on_c, 9, 38, 20
6, 204142, Note_on_c, 9, 38, 0
6, 204471, Note_on_c, 9, 38, 20
6, 204504, Note_on_c, 9, 44, 71
6, 204878, Note_on_c, 9, 38, 0
6, 204930, Note_on_c, 9, 44, 0
6, 205098, Note_on_c, 9, 38, 22
6, 205390, Note_on_c, 9, 38, 0
6, 205737, Note_on_c, 9, 36, 39
6, 205979, Note_on_c, 9, 36, 0
6, 208005, Note_on_c, 9, 38, 14
6, 208078, Note_on_c, 9, 38, 0
6, 208301, Note_on_c, 9, 44, 60
6, 208670, Note_on_c, 9, 44, 0
6, 208968, Note_on_c, 9, 36, 38
6, 209135, Note_on_c, 9, 36, 0
6, 209242, Note_on_c, 9, 44, 56
6, 209737, Note_on_c, 9, 44, 0
6, 211206, Note_on_c, 9, 40, 33
6, 211271, Note_on_c, 9, 40, 0
6, 211772, Note_on_c, 9, 40, 71
6, 211827, Note_on_c, 9, 40, 0
6, 212190, Note_on_c, 9, 44, 69
6, 212736, Note_on_c, 9, 44, 0
6, 212862, Note_on_c, 9, 36, 35
6, 212934, Note_on_c, 9, 36, 0
6, 213205, Note_on_c, 9, 36, 45
6, 213424, Note_on_c, 9, 36, 0
6, 214111, Note_on_c, 9, 44, 74
6, 214700, Note_on_c, 9, 44, 0
6, 216053, Note_on_c, 9, 44, 71
6, 216557, Note_on_c, 9, 44, 0
6, 216702, Note_on_c, 9, 36, 39
6, 216781, Note_on_c, 9, 36, 0
6, 217653, Note_on_c, 9, 36, 49
6, 217799, Note_on_c, 9, 36, 0
6, 217963, Note_on_c, 9, 44, 73
6, 218391, Note_on_c, 9, 44, 0
6, 219830, Note_on_c, 9, 53, 43
6, 219921, Note_on_c, 9, 53, 0
6, 220537, Note_on_c, 9, 53, 67
6, 220605, Note_on_c, 9, 53, 0
6, 221168, Note_on_c, 9, 53, 70
6, 221350, Note_on_c, 9, 53, 0
6, 221755, Note_on_c, 9, 44, 74
6, 221904, Note_on_c, 9, 36, 36
6, 222072, Note_on_c, 9, 36, 0
6, 222235, Note_on_c, 9, 44, 0
6, 222459, Note_on_c, 9, 36, 62
6, 222662, Note_on_c, 9, 36, 0
6, 222841, Note_on_c, 9, 36, 48
6, 223062, Note_on_c, 9, 36, 0
6, 225646, Note_on_c, 9, 44, 76
6, 226242, Note_on_c, 9, 44, 0
6, 226518, Note_on_c, 9, 38, 22
6, 226641, Note_on_c, 9, 38, 0
6, 226794, Note_on_c, 9, 38, 27
6, 226905, Note_on_c, 9, 38, 0
6, 229455, Note_on_c, 9, 44, 75
6, 229475, Note_on_c, 9, 37, 79
6, 230037, Note_on_c, 9, 44, 0
6, 230061, Note_on_c, 9, 37, 0
6, 231064, Note_on_c, 9, 36, 47
6, 231219, Note_on_c, 9, 36, 0
6, 231392, Note_on_c, 9, 36, 49
6, 231833, Note_on_c, 9, 36, 0
6, 233255, Note_on_c, 9, 44, 73
6, 233780, Note_on_c, 9, 44, 0
6, 233905, Note_on_c, 9, 36, 45
6, 234100, Note_on_c, 9, 36, 0
6, 235225, Note_on_c, 9, 44, 60
6, 235638, Note_on_c, 9, 44, 0
6, 235833, Note_on_c, 9, 36, 60
6, 236014, Note_on_c, 9, 36, 0
6, 236167, Note_on_c, 9, 44, 69
6, 236777, Note_on_c, 9, 44, 0
6, 236778, Note_on_c, 9, 36, 61
6, 236969, Note_on_c, 9, 36, 0
6, 239041, Note_on_c, 9, 44, 74
6, 239619, Note_on_c, 9, 44, 0
6, 240925, Note_on_c, 9, 44, 73
6, 241475, Note_on_c, 9, 44, 0
6, 243576, Note_on_c, 9, 38, 17
6, 243697, Note_on_c, 9, 38, 0
6, 243917, Note_on_c, 9, 38, 15
6, 244030, Note_on_c, 9, 38, 0
6, 244528, Note_on_c, 9, 38, 22
6, 244716, Note_on_c, 9, 38, 0
6, 244895, Note_on_c, 9, 44, 78
6, 245470, Note_on_c, 9, 44, 0
6, 245482, Note_on_c, 9, 38, 26
6, 245557, Note_on_c, 9, 38, 0
6, 245813, Note_on_c, 9, 57, 37
6, 245820, Note_on_c, 9, 36, 54
6, 245881, Note_on_c, 9, 57, 0
6, 246070, Note_on_c, 9, 36, 0
6, 246721, Note_on_c, 9, 44, 73
6, 247270, Note_on_c, 9, 44, 0
6, 248651, Note_on_c, 9, 44, 73
6, 249094, Note_on_c, 9, 38, 16
6, 249110, Note_on_c, 9, 44, 0
6, 249192, Note_on_c, 9, 38, 0
6, 249386, Note_on_c, 9, 36, 51
6, 249562, Note_on_c, 9, 36, 0
6, 250281, Note_on_c, 9, 38, 18
6, 250431, Note_on_c, 9, 38, 0
6, 250645, Note_on_c, 9, 36, 26
6, 250990, Note_on_c, 9, 36, 0
6, 251598, Note_on_c, 9, 38, 13
6, 251680, Note_on_c, 9, 38, 0
6, 251888, Note_on_c, 9, 38, 19
6, 252024, Note_on_c, 9, 38, 0
6, 252219, Note_on_c, 9, 36, 37
6, 252320, Note_on_c, 9, 36, 0
6, 252558, Note_on_c, 9, 44, 74
6, 252845, Note_on_c, 9, 38, 19
6, 252936, Note_on_c, 9, 38, 0
6, 253008, Note_on_c, 9, 44, 0
6, 253116, Note_on_c, 9, 38, 19
6, 253262, Note_on_c, 9, 38, 0
6, 254423, Note_on_c, 9, 44, 77
6, 254850, Note_on_c, 9, 44, 0
6, 257724, Note_on_c, 9, 38, 14
6, 257824, Note_on_c, 9, 38, 0
6, 258009, Note_on_c, 9, 38, 23
6, 258082, Note_on_c, 9, 38, 0
6, 258260, Note_on_c, 9, 44, 77
6, 258857, Note_on_c, 9, 44, 0
6, 259872, Note_on_c, 9, 38, 16
6, 260025, Note_on_c, 9, 38, 0
6, 260142, Note_on_c, 9, 44, 77
6, 260199, Note_on_c, 9, 38, 25
6, 260688, Note_on_c, 9, 44, 0
6, 260736, Note_on_c, 9, 38, 0
6, 260806, Note_on_c, 9, 36, 54
6, 261028, Note_on_c, 9, 36, 0
6, 261189, Note_on_c, 9, 36, 49
6, 261624, Note_on_c, 9, 36, 0
6, 262114, Note_on_c, 9, 44, 72
6, 262633, Note_on_c, 9, 44, 0
6, 266014, Note_on_c, 9, 44, 78
6, 266515, Note_on_c, 9, 44, 0
6, 266528, Note_on_c, 9, 38, 14
6, 266723, Note_on_c, 9, 38, 0
6, 267441, Note_on_c, 9, 38, 21
6, 267598, Note_on_c, 9, 38, 0
6, 267821, Note_on_c, 9, 36, 24
6, 267884, Note_on_c, 9, 44, 77
6, 268258, Note_on_c, 9, 36, 0
6, 268278, Note_on_c, 9, 44, 0
6, 269443, Note_on_c, 9, 38, 19
6, 269632, Note_on_c, 9, 38, 0
6, 270413, Note_on_c, 9, 36, 37
6, 270598, Note_on_c, 9, 36, 0
6, 270809, Note_on_c, 9, 36, 31
6, 271028, Note_on_c, 9, 36, 0
6, 271688, Note_on_c, 9, 44, 70
6, 272085, Note_on_c, 9, 44, 0
6, 273617, Note_on_c, 9, 44, 72
6, 274141, Note_on_c, 9, 44, 0
6, 275561, Note_on_c, 9, 44, 73
6, 276018, Note_on_c, 9, 44, 0
6, 279389, Note_on_c, 9, 44, 76
6, 279398, Note_on_c, 9, 37, 71
6, 279783, Note_on_c, 9, 37, 0
6, 279813, Note_on_c, 9, 44, 0
6, 280065, Note_on_c, 9, 36, 35
6, 280250, Note_on_c, 9, 36, 0
6, 280450, Note_on_c, 9, 36, 27
6, 280681, Note_on_c, 9, 36, 0
6, 281282, Note_on_c, 9, 44, 69
6, 281783, Note_on_c, 9, 44, 0
6, 283288, Note_on_c, 9, 37, 38
6, 283529, Note_on_c, 9, 37, 0
6, 285147, Note_on_c, 9, 44, 69
6, 285686, Note_on_c, 9, 44, 0
6, 286746, Note_on_c, 9, 37, 34
6, 286868, Note_on_c, 9, 37, 0
6, 287027, Note_on_c, 9, 44, 70
6, 287377, Note_on_c, 9, 37, 51
6, 287511, Note_on_c, 9, 44, 0
6, 287678, Note_on_c, 9, 37, 0
6, 288020, Note_on_c, 9, 37, 52
6, 288390, Note_on_c, 9, 37, 0
6, 288641, Note_on_c, 9, 37, 40
6, 288950, Note_on_c, 9, 37, 0
6, 289273, Note_on_c, 9, 37, 31
6, 289591, Note_on_c, 9, 37, 0
6, 289921, Note_on_c, 9, 37, 31
6, 290185, Note_on_c, 9, 37, 0
6, 290597, Note_on_c, 9, 37, 25
6, 290742, Note_on_c, 9, 37, 0
6, 290857, Note_on_c, 9, 44, 73
6, 291202, Note_on_c, 9, 44, 0
6, 291849, Note_on_c, 9, 36, 29
6, 292286, Note_on_c, 9, 36, 0
6, 292893, Note_on_c, 9, 44, 70
6, 293270, Note_on_c, 9, 44, 0
6, 296694, Note_on_c, 9, 44, 67
6, 297069, Note_on_c, 9, 44, 0
6, 298282, Note_on_c, 9, 53, 54
6, 298398, Note_on_c, 9, 53, 0
6, 298591, Note_on_c, 9, 44, 65
6, 298649, Note_on_c, 9, 53, 40
6, 298873, Note_on_c, 9, 53, 0
6, 299004, Note_on_c, 9, 44, 0
6, 299213, Note_on_c, 9, 36, 42
6, 299403, Note_on_c, 9, 36, 0
6, 299587, Note_on_c, 9, 36, 46
6, 299795, Note_on_c, 9, 36, 0
6, 302447, Note_on_c, 9, 44, 64
6, 302477, Note_on_c, 9, 38, 21
6, 302872, Note_on_c, 9, 44, 0
6, 302891, Note_on_c, 9, 38, 0
6, 303105, Note_on_c, 9, 38, 24
6, 303514, Note_on_c, 9, 38, 0
6, 304060, Note_on_c, 9, 36, 30
6, 304169, Note_on_c, 9, 36, 0
6, 304363, Note_on_c, 9, 44, 69
6, 304869, Note_on_c, 9, 44, 0
6, 305029, Note_on_c, 9, 40, 51
6, 305192, Note_on_c, 9, 40, 0
6, 305377, Note_on_c, 9, 40, 36
6, 305825, Note_on_c, 9, 40, 0
6, 305969, Note_on_c, 9, 36, 47
6, 306078, Note_on_c, 9, 36, 0
6, 306275, Note_on_c, 9, 40, 70
6, 306278, Note_on_c, 9, 44, 68
6, 306620, Note_on_c, 9, 40, 0
6, 306848, Note_on_c, 9, 44, 0
6, 306897, Note_on_c, 9, 36, 36
6, 306986, Note_on_c, 9, 36, 0
6, 307230, Note_on_c, 9, 57, 71
6, 307251, Note_on_c, 9, 36, 64
6, 308199, Note_on_c, 9, 44, 70
6, 308665, Note_on_c, 9, 44, 0
6, 310018, Note_on_c, 9, 57, 0
6, 310092, Note_on_c, 9, 44, 64
6, 310211, Note_on_c, 9, 36, 0
6, 310609, Note_on_c, 9, 44, 0
6, 310758, Note_on_c, 9, 38, 24
6, 311014, Note_on_c, 9, 38, 0
6, 311672, Note_on_c, 9, 38, 30
6, 311902, Note_on_c, 9, 38, 0
6, 311964, Note_on_c, 9, 44, 69
6, 312088, Note_on_c, 9, 36, 33
6, 312360, Note_on_c, 9, 44, 0
6, 312480, Note_on_c, 9, 36, 0
6, 312999, Note_on_c, 9, 36, 30
6, 313483, Note_on_c, 9, 36, 0
6, 313887, Note_on_c, 9, 44, 62
6, 314305, Note_on_c, 9, 44, 0
6, 315734, Note_on_c, 9, 44, 67
6, 316038, Note_on_c, 9, 38, 11
6, 316124, Note_on_c, 9, 38, 0
6, 316149, Note_on_c, 9, 44, 0
6, 316538, Note_on_c, 9, 38, 14
6, 316633, Note_on_c, 9, 38, 0
6, 317158, Note_on_c, 9, 38, 18
6, 317400, Note_on_c, 9, 38, 0
6, 317683, Note_on_c, 9, 44, 64
6, 317736, Note_on_c, 9, 38, 14
6, 318008, Note_on_c, 9, 38, 0
6, 318200, Note_on_c, 9, 44, 0
6, 318393, Note_on_c, 9, 38, 16
6, 318688, Note_on_c, 9, 38, 0
6, 318979, Note_on_c, 9, 38, 19
6, 319209, Note_on_c, 9, 38, 0
6, 319601, Note_on_c, 9, 38, 18
6, 319627, Note_on_c, 9, 44, 64
6, 319922, Note_on_c, 9, 38, 0
6, 320098, Note_on_c, 9, 44, 0
6, 321270, Note_on_c, 9, 38, 30
6, 321417, Note_on_c, 9, 38, 0
6, 321578, Note_on_c, 9, 44, 72
6, 321653, Note_on_c, 9, 36, 35
6, 321840, Note_on_c, 9, 36, 0
6, 322012, Note_on_c, 9, 44, 0
6, 322269, Note_on_c, 9, 36, 38
6, 322447, Note_on_c, 9, 36, 0
6, 322625, Note_on_c, 9, 36, 34
6, 322822, Note_on_c, 9, 36, 0
6, 323524, Note_on_c, 9, 44, 69
6, 323882, Note_on_c, 9, 44, 0
6, 325133, Note_on_c, 9, 38, 21
6, 325275, Note_on_c, 9, 38, 0
6, 325459, Note_on_c, 9, 44, 68
6, 325503, Note_on_c, 9, 38, 14
6, 325870, Note_on_c, 9, 44, 0
6, 326001, Note_on_c, 9, 38, 0
6, 326153, Note_on_c, 9, 36, 37
6, 326320, Note_on_c, 9, 36, 0
6, 326507, Note_on_c, 9, 38, 13
6, 326997, Note_on_c, 9, 38, 0
6, 327368, Note_on_c, 9, 44, 73
6, 327867, Note_on_c, 9, 44, 0
6, 331924, Note_on_c, 9, 36, 41
6, 332030, Note_on_c, 9, 36, 0
6, 333116, Note_on_c, 9, 44, 48
6, 333601, Note_on_c, 9, 44, 0
6, 335110, Note_on_c, 9, 44, 39
6, 335508, Note_on_c, 9, 44, 0
6, 337031, Note_on_c, 9, 44, 60
6, 337600, Note_on_c, 9, 44, 0
6, 337656, Note_on_c, 9, 36, 32
6, 337814, Note_on_c, 9, 36, 0
6, 338046, Note_on_c, 9, 36, 26
6, 338430, Note_on_c, 9, 36, 0
6, 338620, Note_on_c, 9, 36, 39
6, 338784, Note_on_c, 9, 36, 0
6, 338909, Note_on_c, 9, 44, 62
6, 339333, Note_on_c, 9, 44, 0
6, 340841, Note_on_c, 9, 46, 52
6, 341170, Note_on_c, 9, 46, 0
6, 342730, Note_on_c, 9, 44, 57
6, 343073, Note_on_c, 9, 44, 0
6, 344641, Note_on_c, 9, 44, 58
6, 344665, Note_on_c, 9, 44, 38
6, 344919, Note_on_c, 9, 44, 0
6, 345093, Note_on_c, 9, 44, 0
6, 346593, Note_on_c, 9, 36, 34
6, 346608, Note_on_c, 9, 46, 55
6, 346753, Note_on_c, 9, 36, 0
6, 346898, Note_on_c, 9, 46, 0
6, 348523, Note_on_c, 9, 44, 64
6, 348842, Note_on_c, 9, 44, 0
6, 350124, Note_on_c, 9, 38, 19
6, 350327, Note_on_c, 9, 38, 0
6, 350469, Note_on_c, 9, 44, 67
6, 350796, Note_on_c, 9, 44, 0
6, 351051, Note_on_c, 9, 38, 24
6, 351283, Note_on_c, 9, 38, 0
6, 352040, Note_on_c, 9, 38, 30
6, 352353, Note_on_c, 9, 46, 65
6, 352419, Note_on_c, 9, 38, 0
6, 352775, Note_on_c, 9, 46, 0
6, 352971, Note_on_c, 9, 38, 24
6, 353275, Note_on_c, 9, 57, 34
6, 353299, Note_on_c, 9, 38, 0
6, 353326, Note_on_c, 9, 36, 34
6, 353637, Note_on_c, 9, 36, 0
6, 353765, Note_on_c, 9, 57, 0
6, 354265, Note_on_c, 9, 44, 63
6, 354569, Note_on_c, 9, 44, 0
6, 354885, Note_on_c, 9, 38, 24
6, 355105, Note_on_c, 9, 38, 0
6, 355288, Note_on_c, 9, 38, 19
6, 355752, Note_on_c, 9, 38, 0
6, 355905, Note_on_c, 9, 36, 34
6, 356014, Note_on_c, 9, 36, 0
6, 356146, Note_on_c, 9, 44, 74
6, 356283, Note_on_c, 9, 36, 28
6, 356432, Note_on_c, 9, 44, 0
6, 356682, Note_on_c, 9, 36, 0
6, 356887, Note_on_c, 9, 36, 47
6, 357059, Note_on_c, 9, 36, 0
6, 358107, Note_on_c, 9, 46, 64
6, 358415, Note_on_c, 9, 46, 0
6, 359981, Note_on_c, 9, 44, 68
6, 360297, Note_on_c, 9, 44, 0
6, 361950, Note_on_c, 9, 44, 70
6, 362296, Note_on_c, 9, 44, 0
6, 362643, Note_on_c, 9, 38, 30
6, 362850, Note_on_c, 9, 38, 0
6, 362968, Note_on_c, 9, 38, 28
6, 363562, Note_on_c, 9, 38, 0
6, 363613, Note_on_c, 9, 36, 47
6, 363881, Note_on_c, 9, 44, 67
6, 364042, Note_on_c, 9, 36, 0
6, 364226, Note_on_c, 9, 44, 0
6, 365737, Note_on_c, 9, 46, 69
6, 366119, Note_on_c, 9, 46, 0
6, 366761, Note_on_c, 9, 38, 48
6, 366968, Note_on_c, 9, 38, 0
6, 367424, Note_on_c, 9, 38, 46
6, 367565, Note_on_c, 9, 38, 0
6, 367639, Note_on_c, 9, 44, 71
6, 367867, Note_on_c, 9, 44, 0
6, 368099, Note_on_c, 9, 45, 78
6, 368215, Note_on_c, 9, 45, 0
6, 368393, Note_on_c, 9, 38, 37
6, 368560, Note_on_c, 9, 38, 0
6, 368726, Note_on_c, 9, 57, 71
6, 368741, Note_on_c, 9, 36, 71
6, 369695, Note_on_c, 9, 44, 70
6, 369985, Note_on_c, 9, 44, 0
6, 371507, Note_on_c, 9, 57, 0
6, 371557, Note_on_c, 9, 44, 68
6, 371881, Note_on_c, 9, 36, 0
6, 371918, Note_on_c, 9, 44, 0
6, 373509, Note_on_c, 9, 38, 21
6, 373652, Note_on_c, 9, 38, 0
6, 375419, Note_on_c, 9, 44, 74
6, 375833, Note_on_c, 9, 44, 0
6, 377337, Note_on_c, 9, 44, 64
6, 377687, Note_on_c, 9, 44, 0
6, 377930, Note_on_c, 9, 38, 19
6, 378095, Note_on_c, 9, 38, 0
6, 378917, Note_on_c, 9, 36, 22
6, 378990, Note_on_c, 9, 36, 0
6, 379244, Note_on_c, 9, 44, 62
6, 379633, Note_on_c, 9, 44, 0
6, 379849, Note_on_c, 9, 38, 15
6, 379978, Note_on_c, 9, 38, 0
6, 380808, Note_on_c, 9, 38, 15
6, 380964, Note_on_c, 9, 38, 0
6, 381105, Note_on_c, 9, 44, 67
6, 381591, Note_on_c, 9, 44, 0
6, 381805, Note_on_c, 9, 36, 24
6, 381878, Note_on_c, 9, 36, 0
6, 382748, Note_on_c, 9, 36, 32
6, 382853, Note_on_c, 9, 36, 0
6, 383088, Note_on_c, 9, 44, 58
6, 383543, Note_on_c, 9, 44, 0
6, 385058, Note_on_c, 9, 44, 73
6, 385510, Note_on_c, 9, 44, 0
6, 386925, Note_on_c, 9, 44, 72
6, 387340, Note_on_c, 9, 44, 0
6, 388821, Note_on_c, 9, 44, 70
6, 389203, Note_on_c, 9, 44, 0
6, 390428, Note_on_c, 9, 38, 14
6, 390514, Note_on_c, 9, 38, 0
6, 390707, Note_on_c, 9, 44, 71
6, 391148, Note_on_c, 9, 44, 0
6, 391382, Note_on_c, 9, 38, 24
6, 391522, Note_on_c, 9, 38, 0
6, 392628, Note_on_c, 9, 44, 69
6, 392969, Note_on_c, 9, 44, 0
6, 393243, Note_on_c, 9, 38, 19
6, 393411, Note_on_c, 9, 38, 0
6, 394250, Note_on_c, 9, 36, 29
6, 394351, Note_on_c, 9, 36, 0
6, 394553, Note_on_c, 9, 44, 74
6, 395080, Note_on_c, 9, 44, 0
6, 396163, Note_on_c, 9, 38, 12
6, 396316, Note_on_c, 9, 38, 0
6, 396481, Note_on_c, 9, 44, 69
6, 396885, Note_on_c, 9, 44, 0
6, 397165, Note_on_c, 9, 36, 24
6, 397237, Note_on_c, 9, 36, 0
6, 397476, Note_on_c, 9, 40, 47
6, 397544, Note_on_c, 9, 40, 0
6, 398333, Note_on_c, 9, 44, 70
6, 398415, Note_on_c, 9, 40, 53
6, 398757, Note_on_c, 9, 44, 0
6, 398792, Note_on_c, 9, 40, 0
6, 399040, Note_on_c, 9, 36, 47
6, 399182, Note_on_c, 9, 36, 0
6, 399385, Note_on_c, 9, 36, 57
6, 399762, Note_on_c, 9, 36, 0
6, 400247, Note_on_c, 9, 44, 69
6, 400649, Note_on_c, 9, 44, 0
6, 401941, Note_on_c, 9, 40, 48
6, 402099, Note_on_c, 9, 40, 0
6, 402205, Note_on_c, 9, 44, 74
6, 402269, Note_on_c, 9, 40, 36
6, 402569, Note_on_c, 9, 44, 0
6, 402753, Note_on_c, 9, 40, 0
6, 402920, Note_on_c, 9, 40, 61
6, 403428, Note_on_c, 9, 40, 0
6, 403885, Note_on_c, 9, 36, 49
6, 404074, Note_on_c, 9, 36, 0
6, 404209, Note_on_c, 9, 44, 62
6, 404248, Note_on_c, 9, 36, 57
6, 404634, Note_on_c, 9, 44, 0
6, 404704, Note_on_c, 9, 36, 0
6, 404817, Note_on_c, 9, 36, 78
6, 405321, Note_on_c, 9, 36, 0
6, 406088, Note_on_c, 9, 44, 67
6, 406487, Note_on_c, 9, 44, 0
6, 407970, Note_on_c, 9, 44, 63
6, 408422, Note_on_c, 9, 44, 0
6, 409903, Note_on_c, 9, 44, 64
6, 410281, Note_on_c, 9, 44, 0
6, 410629, Note_on_c, 9, 38, 21
6, 410737, Note_on_c, 9, 38, 0
6, 411569, Note_on_c, 9, 38, 21
6, 411750, Note_on_c, 9, 38, 0
6, 411843, Note_on_c, 9, 44, 67
6, 412243, Note_on_c, 9, 44, 0
6, 412585, Note_on_c, 9, 36, 26
6, 412663, Note_on_c, 9, 36, 0
6, 413270, Note_on_c, 9, 38, 15
6, 413405, Note_on_c, 9, 38, 0
6, 413518, Note_on_c, 9, 38, 19
6, 413578, Note_on_c, 9, 38, 0
6, 413710, Note_on_c, 9, 44, 69
6, 414097, Note_on_c, 9, 44, 0
6, 414187, Note_on_c, 9, 38, 24
6, 414256, Note_on_c, 9, 38, 0
6, 414433, Note_on_c, 9, 38, 32
6, 414563, Note_on_c, 9, 38, 0
6, 414836, Note_on_c, 9, 36, 32
6, 414986, Note_on_c, 9, 36, 0
6, 415398, Note_on_c, 9, 36, 45
6, 415652, Note_on_c, 9, 44, 69
6, 415654, Note_on_c, 9, 36, 0
6, 416040, Note_on_c, 9, 44, 0
6, 419543, Note_on_c, 9, 44, 73
6, 419960, Note_on_c, 9, 44, 0
6, 421431, Note_on_c, 9, 44, 74
6, 421826, Note_on_c, 9, 44, 0
6, 423073, Note_on_c, 9, 38, 15
6, 423194, Note_on_c, 9, 38, 0
6, 423345, Note_on_c, 9, 44, 71
6, 423799, Note_on_c, 9, 44, 0
6, 424035, Note_on_c, 9, 36, 27
6, 424150, Note_on_c, 9, 36, 0
6, 424390, Note_on_c, 9, 36, 30
6, 424906, Note_on_c, 9, 36, 0
6, 425061, Note_on_c, 9, 36, 29
6, 425163, Note_on_c, 9, 36, 0
6, 425259, Note_on_c, 9, 44, 71
6, 425721, Note_on_c, 9, 44, 0
6, 427177, Note_on_c, 9, 44, 64
6, 427604, Note_on_c, 9, 44, 0
6, 429103, Note_on_c, 9, 46, 67
6, 429506, Note_on_c, 9, 46, 0
6, 431028, Note_on_c, 9, 44, 61
6, 431145, Note_on_c, 9, 36, 57
6, 431472, Note_on_c, 9, 44, 0
6, 431569, Note_on_c, 9, 36, 0
6, 431729, Note_on_c, 9, 36, 54
6, 432004, Note_on_c, 9, 36, 0
6, 432996, Note_on_c, 9, 44, 69
6, 433075, Note_on_c, 9, 38, 20
6, 433173, Note_on_c, 9, 38, 0
6, 433509, Note_on_c, 9, 44, 0
6, 433643, Note_on_c, 9, 36, 64
6, 434064, Note_on_c, 9, 36, 0
6, 434944, Note_on_c, 9, 38, 22
6, 435493, Note_on_c, 9, 38, 0
6, 435526, Note_on_c, 9, 36, 74
6, 435809, Note_on_c, 9, 36, 0
6, 435926, Note_on_c, 9, 36, 63
6, 436336, Note_on_c, 9, 36, 0
6, 436458, Note_on_c, 9, 38, 33
6, 436657, Note_on_c, 9, 38, 0
6, 436803, Note_on_c, 9, 44, 68
6, 437401, Note_on_c, 9, 36, 70
6, 437469, Note_on_c, 9, 44, 0
6, 437617, Note_on_c, 9, 36, 0
6, 437751, Note_on_c, 9, 36, 62
6, 438122, Note_on_c, 9, 36, 0
6, 438670, Note_on_c, 9, 44, 63
6, 439144, Note_on_c, 9, 44, 0
6, 440601, Note_on_c, 9, 44, 68
6, 441100, Note_on_c, 9, 44, 0
6, 443149, Note_on_c, 9, 38, 19
6, 443299, Note_on_c, 9, 38, 0
6, 443515, Note_on_c, 9, 38, 20
6, 444078, Note_on_c, 9, 38, 0
6, 444176, Note_on_c, 9, 36, 29
6, 444273, Note_on_c, 9, 36, 0
6, 444424, Note_on_c, 9, 44, 71
6, 444501, Note_on_c, 9, 38, 19
6, 444856, Note_on_c, 9, 44, 0
6, 444976, Note_on_c, 9, 38, 0
6, 445099, Note_on_c, 9, 36, 24
6, 445216, Note_on_c, 9, 36, 0
6, 446371, Note_on_c, 9, 44, 73
6, 446381, Note_on_c, 9, 38, 22
6, 446590, Note_on_c, 9, 38, 0
6, 446758, Note_on_c, 9, 44, 0
6, 447008, Note_on_c, 9, 38, 25
6, 447249, Note_on_c, 9, 38, 0
6, 447772, Note_on_c, 9, 38, 11
6, 447910, Note_on_c, 9, 38, 0
6, 448043, Note_on_c, 9, 38, 20
6, 448104, Note_on_c, 9, 38, 0
6, 448278, Note_on_c, 9, 44, 67
6, 448374, Note_on_c, 9, 38, 24
6, 448557, Note_on_c, 9, 38, 0
6, 448698, Note_on_c, 9, 44, 0
6, 448973, Note_on_c, 9, 36, 53
6, 449048, Note_on_c, 9, 36, 0
6, 450182, Note_on_c, 9, 44, 73
6, 450625, Note_on_c, 9, 44, 0
6, 450915, Note_on_c, 9, 36, 24
6, 450981, Note_on_c, 9, 36, 0
6, 451577, Note_on_c, 9, 38, 16
6, 451641, Note_on_c, 9, 38, 0
6, 451951, Note_on_c, 9, 40, 34
6, 452043, Note_on_c, 9, 40, 0
6, 452104, Note_on_c, 9, 44, 67
6, 452642, Note_on_c, 9, 44, 0
6, 452757, Note_on_c, 9, 36, 36
6, 452844, Note_on_c, 9, 36, 0
6, 453969, Note_on_c, 9, 44, 62
6, 454296, Note_on_c, 9, 44, 0
6, 455969, Note_on_c, 9, 44, 57
6, 456302, Note_on_c, 9, 44, 0
6, 456625, Note_on_c, 9, 37, 31
6, 456731, Note_on_c, 9, 37, 0
6, 457209, Note_on_c, 9, 37, 38
6, 457545, Note_on_c, 9, 37, 0
6, 457894, Note_on_c, 9, 37, 50
6, 457922, Note_on_c, 9, 46, 55
6, 458219, Note_on_c, 9, 46, 0
6, 458275, Note_on_c, 9, 37, 0
6, 458586, Note_on_c, 9, 37, 48
6, 458790, Note_on_c, 9, 37, 0
6, 459160, Note_on_c, 9, 38, 21
6, 459523, Note_on_c, 9, 38, 0
6, 459741, Note_on_c, 9, 44, 61
6, 459806, Note_on_c, 9, 38, 23
6, 460207, Note_on_c, 9, 44, 0
6, 460337, Note_on_c, 9, 38, 0
6, 460467, Note_on_c, 9, 36, 31
6, 460585, Note_on_c, 9, 36, 0
6, 460832, Note_on_c, 9, 36, 32
6, 460840, Note_on_c, 9, 57, 31
6, 461738, Note_on_c, 9, 44, 70
6, 462075, Note_on_c, 9, 44, 0
6, 463358, Note_on_c, 9, 38, 27
6, 463360, Note_on_c, 9, 36, 0
6, 463393, Note_on_c, 9, 57, 0
6, 463518, Note_on_c, 9, 38, 0
6, 463699, Note_on_c, 9, 44, 59
6, 463781, Note_on_c, 9, 36, 18
6, 464043, Note_on_c, 9, 36, 0
6, 464051, Note_on_c, 9, 44, 0
6, 464324, Note_on_c, 9, 36, 52
6, 464587, Note_on_c, 9, 36, 0
6, 465629, Note_on_c, 9, 44, 62
6, 466023, Note_on_c, 9, 44, 0
6, 467243, Note_on_c, 9, 38, 21
6, 467298, Note_on_c, 9, 38, 0
6, 467541, Note_on_c, 9, 44, 64
6, 467991, Note_on_c, 9, 44, 0
6, 468158, Note_on_c, 9, 36, 38
6, 468293, Note_on_c, 9, 36, 0
6, 468512, Note_on_c, 9, 36, 44
6, 469203, Note_on_c, 9, 36, 0
6, 469410, Note_on_c, 9, 44, 62
6, 469916, Note_on_c, 9, 44, 0
6, 471121, Note_on_c, 9, 38, 16
6, 471232, Note_on_c, 9, 38, 0
6, 471379, Note_on_c, 9, 44, 70
6, 471764, Note_on_c, 9, 44, 0
6, 472040, Note_on_c, 9, 38, 19
6, 472281, Note_on_c, 9, 38, 0
6, 472979, Note_on_c, 9, 38, 21
6, 473128, Note_on_c, 9, 38, 0
6, 473927, Note_on_c, 9, 38, 23
6, 474217, Note_on_c, 9, 38, 0
6, 474865, Note_on_c, 9, 38, 27
6, 475120, Note_on_c, 9, 38, 0
6, 475187, Note_on_c, 9, 44, 71
6, 475705, Note_on_c, 9, 44, 0
6, 475829, Note_on_c, 9, 36, 51
6, 476012, Note_on_c, 9, 36, 0
6, 476192, Note_on_c, 9, 36, 36
6, 476552, Note_on_c, 9, 36, 0
6, 477097, Note_on_c, 9, 44, 64
6, 477653, Note_on_c, 9, 44, 0
6, 477742, Note_on_c, 9, 38, 16
6, 477872, Note_on_c, 9, 38, 0
6, 478106, Note_on_c, 9, 38, 15
6, 478651, Note_on_c, 9, 38, 0
6, 478734, Note_on_c, 9, 36, 63
6, 479053, Note_on_c, 9, 44, 69
6, 479101, Note_on_c, 9, 36, 0
6, 479442, Note_on_c, 9, 44, 0
6, 480696, Note_on_c, 9, 38, 32
6, 480911, Note_on_c, 9, 38, 0
6, 480990, Note_on_c, 9, 44, 65
6, 481370, Note_on_c, 9, 44, 0
6, 481588, Note_on_c, 9, 36, 51
6, 481736, Note_on_c, 9, 36, 0
6, 481952, Note_on_c, 9, 36, 29
6, 482130, Note_on_c, 9, 36, 0
6, 483497, Note_on_c, 9, 38, 21
6, 483604, Note_on_c, 9, 38, 0
6, 484425, Note_on_c, 9, 38, 26
6, 484662, Note_on_c, 9, 38, 0
6, 484739, Note_on_c, 9, 44, 69
6, 485210, Note_on_c, 9, 44, 0
6, 485754, Note_on_c, 9, 38, 25
6, 486328, Note_on_c, 9, 38, 0
6, 486462, Note_on_c, 9, 36, 24
6, 486531, Note_on_c, 9, 36, 0
6, 486678, Note_on_c, 9, 44, 71
6, 487107, Note_on_c, 9, 44, 0
6, 487381, Note_on_c, 9, 38, 33
6, 488232, Note_on_c, 9, 38, 0
6, 488302, Note_on_c, 9, 36, 53
6, 488451, Note_on_c, 9, 36, 0
6, 488623, Note_on_c, 9, 44, 68
6, 488956, Note_on_c, 9, 44, 0
6, 489206, Note_on_c, 9, 38, 37
6, 489379, Note_on_c, 9, 38, 0
6, 490142, Note_on_c, 9, 36, 75
6, 490378, Note_on_c, 9, 36, 0
6, 490453, Note_on_c, 9, 46, 60
6, 490539, Note_on_c, 9, 38, 18
6, 490600, Note_on_c, 9, 38, 0
6, 490926, Note_on_c, 9, 46, 0
6, 491081, Note_on_c, 9, 36, 64
6, 491224, Note_on_c, 9, 36, 0
6, 491468, Note_on_c, 9, 36, 53
6, 491534, Note_on_c, 9, 36, 0
6, 492125, Note_on_c, 9, 57, 62
6, 492158, Note_on_c, 9, 36, 54
6, 492423, Note_on_c, 9, 44, 65
6, 492838, Note_on_c, 9, 44, 0
6, 493037, Note_on_c, 9, 36, 0
6, 493137, Note_on_c, 9, 57, 0
6, 493538, Note_on_c, 9, 57, 44
6, 493553, Note_on_c, 9, 36, 45
6, 494169, Note_on_c, 9, 57, 0
6, 494414, Note_on_c, 9, 44, 72
6, 494718, Note_on_c, 9, 36, 0
6, 494761, Note_on_c, 9, 44, 0
6, 495021, Note_on_c, 9, 38, 28
6, 495261, Note_on_c, 9, 38, 0
6, 495400, Note_on_c, 9, 36, 42
6, 495561, Note_on_c, 9, 36, 0
6, 496017, Note_on_c, 9, 36, 68
6, 496224, Note_on_c, 9, 36, 0
6, 496304, Note_on_c, 9, 44, 68
6, 496711, Note_on_c, 9, 44, 0
6, 497313, Note_on_c, 9, 57, 35
6, 497337, Note_on_c, 9, 36, 38
6, 497377, Note_on_c, 9, 57, 0
6, 497411, Note_on_c, 9, 36, 0
6, 498236, Note_on_c, 9, 44, 60
6, 498307, Note_on_c, 9, 38, 19
6, 498428, Note_on_c, 9, 38, 0
6, 498590, Note_on_c, 9, 44, 0
6, 498872, Note_on_c, 9, 36, 77
6, 499541, Note_on_c, 9, 36, 0
6, 518829, Note_on_c, 9, 38, 16
6, 518931, Note_on_c, 9, 38, 0
6, 519214, Note_on_c, 9, 38, 26
6, 519395, Note_on_c, 9, 38, 0
6, 519685, Note_on_c, 9, 57, 37
6, 519689, Note_on_c, 9, 36, 42
6, 520926, Note_on_c, 9, 57, 0
6, 521357, Note_on_c, 9, 36, 0
6, 521357, End_track
0, 0, End_of_file
