0, 0, Header, 0, 1, 120
1, 0, Start_track
1, 0, Title_t, "Falling Grace"
1, 0, Text_t, "Steve Swallow\012"
1, 0, Text_t, "Sequenced by Doug McKenzie (dougmck@pipeline.com.au)\012"
1, 0, Text_t, "New Real Book Vol 2\012"
1, 0, Time_signature, 4, 2, 24, 8
1, 0, Key_signature, 0, "major"
1, 0, Tempo, 375000
1, 0, Marker_t, "'Falling Grace' - a tune often played by Bill Evans, Chick Corea, Gary Burton"
1, 0, Program_c, 0, 0
1, 0, Program_c, 1, 32
1, 0, Program_c, 9, 32
1, 0, Program_c, 9, 32
1, 160, Control_c, 0, 64, 127
1, 251, Note_on_c, 0, 75, 82
1, 256, Note_on_c, 0, 44, 51
1, 258, Control_c, 0, 64, 0
1, 305, Control_c, 0, 64, 127
1, 361, Note_on_c, 0, 51, 38
1, 374, Note_on_c, 0, 44, 0
1, 385, Note_on_c, 0, 51, 0
1, 476, Note_on_c, 0, 58, 37
1, 572, Note_on_c, 0, 60, 36
1, 711, Note_on_c, 0, 67, 35
1, 713, Note_on_c, 0, 70, 33
1, 717, Note_on_c, 0, 63, 30
1, 956, Note_on_c, 0, 75, 0
1, 965, Note_on_c, 0, 67, 0
1, 988, Note_on_c, 0, 70, 0
1, 1012, Note_on_c, 0, 74, 84
1, 1063, Note_on_c, 0, 63, 0
1, 1068, Note_on_c, 0, 72, 66
1, 1073, Note_on_c, 0, 74, 0
1, 1097, Note_on_c, 0, 72, 0
1, 1122, Control_c, 0, 64, 0
1, 1123, Note_on_c, 0, 60, 0
1, 1125, Note_on_c, 0, 54, 37
1, 1126, Note_on_c, 0, 58, 0
1, 1126, Note_on_c, 0, 74, 77
1, 1190, Control_c, 0, 64, 127
1, 1236, Note_on_c, 0, 62, 30
1, 1252, Note_on_c, 0, 66, 34
1, 1255, Note_on_c, 0, 69, 38
1, 1542, Note_on_c, 0, 74, 0
1, 1549, Note_on_c, 0, 72, 53
1, 1559, Note_on_c, 0, 66, 0
1, 1560, Note_on_c, 0, 69, 0
1, 1588, Note_on_c, 0, 54, 0
1, 1622, Note_on_c, 0, 72, 0
1, 1635, Note_on_c, 0, 62, 0
1, 1640, Note_on_c, 0, 74, 38
1, 1649, Control_c, 0, 64, 0
1, 1650, Note_on_c, 0, 53, 25
1, 1743, Control_c, 0, 64, 127
1, 1780, Note_on_c, 0, 70, 37
1, 1780, Note_on_c, 0, 65, 36
1, 1792, Note_on_c, 0, 58, 25
1, 1798, Note_on_c, 0, 62, 15
1, 1945, Note_on_c, 0, 74, 0
1, 2149, Note_on_c, 0, 70, 0
1, 2152, Note_on_c, 0, 62, 0
1, 2154, Note_on_c, 0, 72, 48
1, 2169, Note_on_c, 0, 65, 0
1, 2185, Note_on_c, 0, 53, 0
1, 2187, Note_on_c, 0, 58, 0
1, 2247, Note_on_c, 0, 72, 0
1, 2279, Note_on_c, 0, 68, 59
1, 2280, Note_on_c, 0, 74, 58
1, 2282, Control_c, 0, 64, 0
1, 2284, Note_on_c, 0, 64, 54
1, 2287, Note_on_c, 0, 58, 39
1, 2316, Control_c, 0, 64, 127
1, 2346, Note_on_c, 0, 74, 0
1, 2357, Note_on_c, 0, 64, 0
1, 2381, Note_on_c, 0, 68, 0
1, 2396, Control_c, 0, 64, 0
1, 2397, Note_on_c, 0, 72, 58
1, 2399, Note_on_c, 0, 62, 48
1, 2400, Note_on_c, 0, 67, 56
1, 2401, Note_on_c, 0, 56, 36
1, 2402, Note_on_c, 0, 58, 0
1, 2423, Control_c, 0, 64, 127
1, 2436, Note_on_c, 0, 67, 0
1, 2437, Note_on_c, 0, 56, 0
1, 2454, Note_on_c, 0, 62, 0
1, 2469, Note_on_c, 0, 72, 0
1, 2535, Note_on_c, 0, 70, 51
1, 2535, Note_on_c, 0, 62, 42
1, 2542, Note_on_c, 0, 46, 36
1, 2544, Control_c, 0, 64, 0
1, 2545, Note_on_c, 0, 65, 53
1, 2547, Note_on_c, 0, 56, 25
1, 2637, Control_c, 0, 64, 127
1, 2666, Note_on_c, 0, 65, 0
1, 2673, Note_on_c, 0, 62, 0
1, 2706, Note_on_c, 0, 65, 38
1, 2711, Note_on_c, 0, 53, 22
1, 2712, Note_on_c, 0, 62, 31
1, 2783, Note_on_c, 0, 70, 0
1, 2790, Note_on_c, 0, 65, 0
1, 2791, Note_on_c, 0, 56, 0
1, 2795, Note_on_c, 0, 53, 0
1, 2812, Note_on_c, 0, 62, 0
1, 2820, Note_on_c, 0, 46, 0
1, 2940, Note_on_c, 0, 62, 44
1, 2941, Note_on_c, 0, 58, 44
1, 2944, Note_on_c, 0, 55, 45
1, 2945, Note_on_c, 0, 39, 37
1, 2946, Control_c, 0, 64, 0
1, 2972, Note_on_c, 0, 55, 0
1, 2982, Control_c, 0, 64, 127
1, 2987, Note_on_c, 0, 62, 0
1, 2991, Note_on_c, 0, 58, 0
1, 3065, Note_on_c, 0, 39, 0
1, 3100, Note_on_c, 0, 62, 79
1, 3100, Note_on_c, 0, 72, 81
1, 3101, Note_on_c, 0, 67, 80
1, 3104, Note_on_c, 0, 46, 62
1, 3295, Note_on_c, 0, 55, 72
1, 3388, Note_on_c, 0, 72, 0
1, 3413, Note_on_c, 0, 46, 0
1, 3415, Note_on_c, 0, 70, 77
1, 3455, Note_on_c, 0, 55, 0
1, 3472, Note_on_c, 0, 62, 0
1, 3476, Note_on_c, 0, 70, 0
1, 3480, Note_on_c, 0, 67, 0
1, 3491, Note_on_c, 0, 72, 82
1, 3498, Note_on_c, 0, 70, 67
1, 3538, Note_on_c, 0, 72, 0
1, 3553, Note_on_c, 0, 70, 0
1, 3581, Note_on_c, 0, 66, 60
1, 3583, Note_on_c, 0, 54, 60
1, 3586, Note_on_c, 0, 74, 75
1, 3588, Control_c, 0, 64, 0
1, 3649, Control_c, 0, 64, 127
1, 3691, Note_on_c, 0, 74, 0
1, 3709, Note_on_c, 0, 66, 0
1, 3711, Note_on_c, 0, 60, 31
1, 3712, Note_on_c, 0, 72, 65
1, 3778, Note_on_c, 0, 54, 0
1, 3780, Note_on_c, 0, 60, 0
1, 3786, Note_on_c, 0, 70, 53
1, 3838, Note_on_c, 0, 72, 0
1, 3866, Note_on_c, 0, 70, 0
1, 3907, Note_on_c, 0, 53, 18
1, 3910, Note_on_c, 0, 69, 43
1, 3917, Control_c, 0, 64, 0
1, 4001, Control_c, 0, 64, 127
1, 4043, Note_on_c, 0, 58, 28
1, 4046, Note_on_c, 0, 62, 25
1, 4229, Note_on_c, 0, 67, 38
1, 4232, Note_on_c, 0, 69, 0
1, 4396, Note_on_c, 0, 62, 0
1, 4404, Note_on_c, 0, 58, 0
1, 4485, Note_on_c, 0, 74, 49
1, 4495, Note_on_c, 0, 62, 18
1, 4496, Note_on_c, 0, 58, 21
1, 4549, Note_on_c, 0, 74, 0
1, 4555, Note_on_c, 0, 53, 0
1, 4599, Note_on_c, 0, 62, 0
1, 4610, Note_on_c, 0, 58, 0
1, 4618, Note_on_c, 0, 67, 0
1, 4626, Note_on_c, 0, 72, 42
1, 4639, Note_on_c, 0, 52, 36
1, 4643, Control_c, 0, 64, 0
1, 4701, Control_c, 0, 64, 127
1, 4721, Note_on_c, 0, 72, 0
1, 4740, Note_on_c, 0, 60, 33
1, 4851, Note_on_c, 0, 79, 49
1, 4852, Note_on_c, 0, 72, 56
1, 4857, Note_on_c, 0, 67, 42
1, 4862, Note_on_c, 0, 64, 36
1, 4881, Note_on_c, 0, 60, 0
1, 5242, Note_on_c, 0, 52, 0
1, 5247, Note_on_c, 0, 72, 0
1, 5252, Note_on_c, 0, 67, 0
1, 5272, Note_on_c, 0, 79, 0
1, 5317, Note_on_c, 0, 64, 0
1, 5409, Note_on_c, 0, 72, 62
1, 5423, Note_on_c, 0, 53, 25
1, 5428, Note_on_c, 0, 69, 46
1, 5431, Control_c, 0, 64, 0
1, 5436, Note_on_c, 0, 67, 49
1, 5505, Control_c, 0, 64, 127
1, 5555, Note_on_c, 0, 60, 44
1, 5565, Note_on_c, 0, 69, 0
1, 5566, Note_on_c, 0, 67, 0
1, 5575, Note_on_c, 0, 72, 0
1, 5675, Note_on_c, 0, 77, 84
1, 5684, Note_on_c, 0, 65, 60
1, 5689, Note_on_c, 0, 69, 77
1, 5762, Note_on_c, 0, 77, 0
1, 5783, Note_on_c, 0, 69, 0
1, 5794, Note_on_c, 0, 65, 0
1, 5811, Note_on_c, 0, 76, 85
1, 5867, Note_on_c, 0, 53, 0
1, 5887, Note_on_c, 0, 76, 0
1, 5898, Note_on_c, 0, 74, 74
1, 5972, Note_on_c, 0, 74, 0
1, 5986, Note_on_c, 0, 60, 0
1, 6003, Note_on_c, 0, 69, 40
1, 6005, Note_on_c, 0, 64, 36
1, 6005, Note_on_c, 0, 72, 57
1, 6007, Note_on_c, 0, 54, 35
1, 6007, Control_c, 0, 64, 0
1, 6077, Control_c, 0, 64, 127
1, 6126, Note_on_c, 0, 60, 44
1, 6140, Note_on_c, 0, 64, 0
1, 6151, Note_on_c, 0, 72, 0
1, 6207, Note_on_c, 0, 69, 0
1, 6230, Note_on_c, 0, 64, 55
1, 6233, Note_on_c, 0, 71, 63
1, 6236, Note_on_c, 0, 67, 72
1, 6313, Note_on_c, 0, 67, 0
1, 6322, Note_on_c, 0, 71, 0
1, 6325, Note_on_c, 0, 64, 0
1, 6328, Note_on_c, 0, 72, 71
1, 6349, Note_on_c, 0, 60, 0
1, 6361, Note_on_c, 0, 54, 0
1, 6432, Note_on_c, 0, 72, 0
1, 6485, Note_on_c, 0, 71, 47
1, 6486, Note_on_c, 0, 62, 41
1, 6489, Note_on_c, 0, 67, 45
1, 6492, Control_c, 0, 64, 0
1, 6494, Note_on_c, 0, 57, 36
1, 6496, Note_on_c, 0, 47, 35
1, 6546, Control_c, 0, 64, 127
1, 6555, Note_on_c, 0, 47, 0
1, 6560, Note_on_c, 0, 62, 0
1, 6582, Note_on_c, 0, 67, 0
1, 6585, Note_on_c, 0, 57, 0
1, 6594, Note_on_c, 0, 71, 0
1, 6785, Note_on_c, 0, 79, 85
1, 6857, Note_on_c, 0, 79, 0
1, 7057, Note_on_c, 0, 67, 52
1, 7060, Note_on_c, 0, 79, 51
1, 7062, Note_on_c, 0, 72, 49
1, 7063, Note_on_c, 0, 76, 50
1, 7066, Note_on_c, 0, 51, 31
1, 7068, Note_on_c, 0, 57, 28
1, 7089, Control_c, 0, 64, 0
1, 7152, Control_c, 0, 64, 127
1, 7300, Note_on_c, 0, 76, 0
1, 7301, Note_on_c, 0, 79, 0
1, 7375, Note_on_c, 0, 72, 0
1, 7377, Note_on_c, 0, 67, 0
1, 7381, Note_on_c, 0, 78, 56
1, 7388, Note_on_c, 0, 47, 29
1, 7438, Note_on_c, 0, 47, 0
1, 7455, Note_on_c, 0, 51, 0
1, 7469, Note_on_c, 0, 78, 0
1, 7539, Note_on_c, 0, 71, 43
1, 7540, Note_on_c, 0, 52, 48
1, 7551, Control_c, 0, 64, 0
1, 7554, Note_on_c, 0, 57, 0
1, 7604, Control_c, 0, 64, 127
1, 7620, Note_on_c, 0, 71, 0
1, 7647, Note_on_c, 0, 59, 54
1, 7728, Note_on_c, 0, 52, 0
1, 7737, Note_on_c, 0, 83, 76
1, 7738, Note_on_c, 0, 76, 80
1, 7745, Note_on_c, 0, 59, 0
1, 7747, Note_on_c, 0, 64, 63
1, 7827, Note_on_c, 0, 83, 0
1, 7830, Note_on_c, 0, 76, 0
1, 7843, Note_on_c, 0, 78, 35
1, 7846, Note_on_c, 0, 64, 0
1, 7848, Note_on_c, 0, 66, 39
1, 7852, Note_on_c, 0, 71, 46
1, 7924, Note_on_c, 0, 71, 0
1, 7940, Note_on_c, 0, 78, 0
1, 7968, Note_on_c, 0, 81, 55
1, 7970, Note_on_c, 0, 74, 50
1, 7976, Note_on_c, 0, 69, 35
1, 7983, Note_on_c, 0, 66, 0
1, 8265, Note_on_c, 0, 69, 0
1, 8325, Note_on_c, 0, 81, 0
1, 8346, Note_on_c, 0, 74, 0
1, 8375, Note_on_c, 0, 79, 54
1, 8446, Note_on_c, 0, 78, 54
1, 8509, Control_c, 0, 64, 0
1, 8520, Note_on_c, 0, 45, 40
1, 8529, Note_on_c, 0, 71, 47
1, 8536, Note_on_c, 0, 78, 0
1, 8549, Note_on_c, 0, 45, 0
1, 8556, Control_c, 0, 64, 127
1, 8646, Note_on_c, 0, 79, 0
1, 8696, Note_on_c, 0, 64, 33
1, 8701, Note_on_c, 0, 60, 30
1, 8701, Note_on_c, 0, 59, 22
1, 8792, Note_on_c, 0, 71, 0
1, 8806, Note_on_c, 0, 69, 71
1, 8893, Note_on_c, 0, 59, 0
1, 8913, Note_on_c, 0, 69, 0
1, 8927, Note_on_c, 0, 64, 0
1, 8927, Note_on_c, 0, 76, 81
1, 8930, Note_on_c, 0, 60, 0
1, 8930, Note_on_c, 0, 54, 58
1, 8938, Control_c, 0, 64, 0
1, 9001, Control_c, 0, 64, 127
1, 9054, Note_on_c, 0, 60, 35
1, 9066, Note_on_c, 0, 64, 35
1, 9077, Note_on_c, 0, 76, 0
1, 9214, Note_on_c, 0, 64, 0
1, 9235, Note_on_c, 0, 60, 0
1, 9240, Note_on_c, 0, 74, 64
1, 9254, Note_on_c, 0, 54, 0
1, 9281, Note_on_c, 0, 74, 0
1, 9412, Note_on_c, 0, 71, 33
1, 9414, Note_on_c, 0, 66, 35
1, 9424, Note_on_c, 0, 43, 36
1, 9425, Note_on_c, 0, 59, 24
1, 9428, Note_on_c, 0, 54, 25
1, 9433, Control_c, 0, 64, 0
1, 9517, Control_c, 0, 64, 127
1, 9598, Note_on_c, 0, 66, 0
1, 9601, Note_on_c, 0, 50, 34
1, 9620, Note_on_c, 0, 54, 0
1, 9627, Note_on_c, 0, 59, 0
1, 9765, Note_on_c, 0, 71, 0
1, 9779, Note_on_c, 0, 66, 34
1, 9789, Note_on_c, 0, 59, 36
1, 9791, Note_on_c, 0, 54, 23
1, 9868, Note_on_c, 0, 59, 0
1, 9878, Note_on_c, 0, 66, 0
1, 9919, Note_on_c, 0, 50, 0
1, 9922, Note_on_c, 0, 43, 0
1, 9976, Note_on_c, 0, 54, 0
1, 10017, Note_on_c, 0, 72, 62
1, 10052, Note_on_c, 0, 72, 0
1, 10148, Note_on_c, 0, 74, 49
1, 10166, Note_on_c, 0, 67, 53
1, 10174, Control_c, 0, 64, 0
1, 10181, Note_on_c, 0, 48, 27
1, 10185, Note_on_c, 0, 58, 13
1, 10202, Note_on_c, 0, 63, 6
1, 10237, Control_c, 0, 64, 127
1, 10250, Note_on_c, 0, 48, 0
1, 10277, Note_on_c, 0, 58, 0
1, 10322, Note_on_c, 0, 62, 51
1, 10349, Note_on_c, 0, 67, 0
1, 10381, Note_on_c, 0, 63, 0
1, 10419, Note_on_c, 0, 74, 0
1, 10431, Note_on_c, 0, 63, 57
1, 10435, Note_on_c, 0, 67, 66
1, 10532, Note_on_c, 0, 63, 0
1, 10547, Note_on_c, 0, 74, 80
1, 10630, Note_on_c, 0, 74, 0
1, 10670, Note_on_c, 0, 74, 66
1, 10746, Note_on_c, 0, 74, 0
1, 10804, Note_on_c, 0, 74, 62
1, 10856, Note_on_c, 0, 67, 0
1, 10906, Note_on_c, 0, 74, 0
1, 11021, Note_on_c, 0, 76, 24
1, 11025, Note_on_c, 0, 62, 0
1, 11026, Note_on_c, 0, 67, 36
1, 11031, Note_on_c, 0, 73, 21
1, 11032, Note_on_c, 0, 70, 35
1, 11033, Note_on_c, 0, 61, 30
1, 11041, Control_c, 0, 64, 0
1, 11111, Control_c, 0, 64, 127
1, 11177, Note_on_c, 0, 67, 0
1, 11210, Note_on_c, 0, 70, 0
1, 11216, Note_on_c, 0, 73, 0
1, 11231, Note_on_c, 0, 76, 0
1, 11233, Note_on_c, 0, 69, 74
1, 11236, Note_on_c, 0, 64, 31
1, 11328, Note_on_c, 0, 64, 0
1, 11333, Note_on_c, 0, 69, 0
1, 11402, Note_on_c, 0, 72, 90
1, 11479, Note_on_c, 0, 72, 0
1, 11505, Note_on_c, 0, 70, 83
1, 11534, Note_on_c, 0, 61, 0
1, 11572, Note_on_c, 0, 70, 0
1, 11591, Note_on_c, 0, 69, 65
1, 11651, Note_on_c, 0, 69, 0
1, 11672, Note_on_c, 0, 70, 57
1, 11741, Note_on_c, 0, 70, 0
1, 11771, Note_on_c, 0, 72, 55
1, 11776, Note_on_c, 0, 65, 47
1, 11777, Note_on_c, 0, 62, 35
1, 11779, Note_on_c, 0, 50, 37
1, 11781, Note_on_c, 0, 58, 25
1, 11788, Control_c, 0, 64, 0
1, 11849, Note_on_c, 0, 72, 0
1, 11852, Control_c, 0, 64, 127
1, 11855, Note_on_c, 0, 58, 0
1, 11865, Note_on_c, 0, 62, 0
1, 11873, Note_on_c, 0, 65, 0
1, 11874, Note_on_c, 0, 58, 20
1, 11876, Note_on_c, 0, 70, 57
1, 11898, Note_on_c, 0, 70, 0
1, 11990, Note_on_c, 0, 77, 66
1, 11994, Note_on_c, 0, 62, 37
1, 12038, Note_on_c, 0, 50, 0
1, 12052, Note_on_c, 0, 62, 0
1, 12092, Note_on_c, 0, 50, 32
1, 12142, Note_on_c, 0, 50, 0
1, 12217, Note_on_c, 0, 70, 40
1, 12220, Note_on_c, 0, 67, 40
1, 12221, Note_on_c, 0, 65, 52
1, 12226, Note_on_c, 0, 58, 0
1, 12230, Control_c, 0, 64, 0
1, 12231, Note_on_c, 0, 51, 33
1, 12300, Control_c, 0, 64, 127
1, 12312, Note_on_c, 0, 77, 0
1, 12341, Note_on_c, 0, 58, 43
1, 12344, Note_on_c, 0, 75, 82
1, 12431, Note_on_c, 0, 75, 0
1, 12439, Note_on_c, 0, 65, 0
1, 12440, Note_on_c, 0, 67, 0
1, 12451, Note_on_c, 0, 70, 0
1, 12478, Note_on_c, 0, 74, 74
1, 12478, Note_on_c, 0, 70, 62
1, 12479, Note_on_c, 0, 65, 60
1, 12481, Note_on_c, 0, 62, 40
1, 12482, Control_c, 0, 64, 0
1, 12482, Note_on_c, 0, 67, 48
1, 12515, Control_c, 0, 64, 127
1, 12576, Note_on_c, 0, 67, 0
1, 12581, Note_on_c, 0, 74, 0
1, 12586, Note_on_c, 0, 70, 0
1, 12590, Note_on_c, 0, 72, 69
1, 12629, Note_on_c, 0, 65, 0
1, 12642, Note_on_c, 0, 62, 0
1, 12652, Note_on_c, 0, 72, 0
1, 12675, Note_on_c, 0, 70, 68
1, 12679, Note_on_c, 0, 51, 0
1, 12707, Note_on_c, 0, 70, 0
1, 12767, Note_on_c, 0, 58, 0
1, 12793, Note_on_c, 0, 69, 64
1, 12793, Note_on_c, 0, 52, 36
1, 12796, Control_c, 0, 64, 0
1, 12843, Control_c, 0, 64, 127
1, 12916, Note_on_c, 0, 58, 42
1, 12999, Note_on_c, 0, 69, 0
1, 13044, Note_on_c, 0, 67, 62
1, 13047, Note_on_c, 0, 62, 37
1, 13077, Control_c, 0, 64, 0
1, 13089, Note_on_c, 0, 67, 0
1, 13108, Note_on_c, 0, 69, 62
1, 13144, Note_on_c, 0, 69, 0
1, 13159, Note_on_c, 0, 70, 70
1, 13182, Note_on_c, 0, 70, 0
1, 13215, Note_on_c, 0, 74, 74
1, 13250, Note_on_c, 0, 74, 0
1, 13256, Note_on_c, 0, 52, 0
1, 13273, Note_on_c, 0, 78, 77
1, 13277, Note_on_c, 0, 58, 0
1, 13314, Note_on_c, 0, 78, 0
1, 13328, Note_on_c, 0, 81, 73
1, 13376, Note_on_c, 0, 81, 0
1, 13384, Note_on_c, 0, 78, 61
1, 13395, Note_on_c, 0, 62, 0
1, 13421, Note_on_c, 0, 78, 0
1, 13434, Note_on_c, 0, 79, 54
1, 13475, Note_on_c, 0, 79, 0
1, 13476, Note_on_c, 0, 81, 57
1, 13520, Note_on_c, 0, 82, 48
1, 13526, Note_on_c, 0, 81, 0
1, 13556, Note_on_c, 0, 82, 0
1, 13558, Note_on_c, 0, 83, 55
1, 13570, Control_c, 0, 64, 127
1, 13587, Note_on_c, 0, 83, 0
1, 13590, Control_c, 0, 64, 0
1, 13603, Note_on_c, 0, 61, 33
1, 13606, Note_on_c, 0, 66, 25
1, 13611, Note_on_c, 0, 55, 45
1, 13616, Note_on_c, 0, 84, 45
1, 13711, Control_c, 0, 64, 127
1, 13737, Note_on_c, 0, 84, 0
1, 13744, Note_on_c, 0, 81, 48
1, 13820, Note_on_c, 0, 73, 33
1, 13824, Note_on_c, 0, 81, 0
1, 13883, Note_on_c, 0, 73, 0
1, 13900, Note_on_c, 0, 72, 38
1, 13965, Note_on_c, 0, 66, 0
1, 13972, Note_on_c, 0, 72, 0
1, 13999, Note_on_c, 0, 70, 45
1, 14013, Note_on_c, 0, 65, 25
1, 14171, Note_on_c, 0, 70, 0
1, 14192, Note_on_c, 0, 69, 67
1, 14197, Note_on_c, 0, 65, 0
1, 14284, Note_on_c, 0, 69, 0
1, 14330, Control_c, 0, 64, 0
1, 14331, Note_on_c, 0, 77, 85
1, 14334, Note_on_c, 0, 65, 50
1, 14391, Control_c, 0, 64, 127
1, 14449, Note_on_c, 0, 77, 0
1, 14478, Note_on_c, 0, 77, 62
1, 14505, Note_on_c, 0, 65, 0
1, 14525, Note_on_c, 0, 77, 0
1, 14551, Note_on_c, 0, 61, 0
1, 14558, Note_on_c, 0, 55, 0
1, 14578, Note_on_c, 0, 76, 63
1, 14619, Note_on_c, 0, 76, 0
1, 14652, Note_on_c, 0, 76, 36
1, 14770, Note_on_c, 0, 69, 57
1, 14782, Note_on_c, 0, 50, 24
1, 14786, Note_on_c, 0, 60, 22
1, 14789, Control_c, 0, 64, 0
1, 14880, Control_c, 0, 64, 127
1, 14887, Note_on_c, 0, 76, 0
1, 14899, Note_on_c, 0, 69, 0
1, 14900, Note_on_c, 0, 57, 36
1, 14956, Note_on_c, 0, 60, 0
1, 15004, Note_on_c, 0, 65, 58
1, 15006, Note_on_c, 0, 64, 48
1, 15017, Note_on_c, 0, 60, 29
1, 15078, Note_on_c, 0, 64, 0
1, 15097, Note_on_c, 0, 69, 64
1, 15100, Note_on_c, 0, 60, 0
1, 15118, Note_on_c, 0, 57, 0
1, 15122, Note_on_c, 0, 65, 0
1, 15126, Note_on_c, 0, 50, 0
1, 15147, Note_on_c, 0, 69, 0
1, 15209, Note_on_c, 0, 68, 39
1, 15220, Note_on_c, 0, 49, 32
1, 15231, Control_c, 0, 64, 0
1, 15294, Note_on_c, 0, 56, 39
1, 15318, Control_c, 0, 64, 127
1, 15370, Note_on_c, 0, 63, 44
1, 15375, Note_on_c, 0, 59, 44
1, 15398, Note_on_c, 0, 68, 0
1, 15418, Note_on_c, 0, 49, 0
1, 15436, Note_on_c, 0, 59, 0
1, 15447, Note_on_c, 0, 68, 56
1, 15454, Note_on_c, 0, 49, 34
1, 15496, Note_on_c, 0, 68, 0
1, 15498, Note_on_c, 0, 63, 0
1, 15519, Note_on_c, 0, 49, 0
1, 15532, Note_on_c, 0, 56, 0
1, 15553, Note_on_c, 0, 63, 37
1, 15553, Note_on_c, 0, 62, 29
1, 15557, Note_on_c, 0, 67, 40
1, 15562, Note_on_c, 0, 48, 39
1, 15563, Control_c, 0, 64, 0
1, 15565, Note_on_c, 0, 58, 23
1, 15643, Control_c, 0, 64, 127
1, 15683, Note_on_c, 0, 55, 39
1, 15687, Note_on_c, 0, 63, 0
1, 15693, Note_on_c, 0, 67, 0
1, 15751, Note_on_c, 0, 58, 0
1, 15753, Note_on_c, 0, 62, 0
1, 15809, Note_on_c, 0, 58, 46
1, 15897, Note_on_c, 0, 55, 0
1, 15902, Note_on_c, 0, 48, 0
1, 15905, Note_on_c, 0, 58, 0
1, 15929, Note_on_c, 0, 69, 61
1, 15968, Note_on_c, 0, 69, 0
1, 16072, Control_c, 0, 64, 0
1, 16075, Note_on_c, 0, 29, 49
1, 16104, Note_on_c, 0, 29, 0
1, 16116, Control_c, 0, 64, 127
1, 16252, Note_on_c, 0, 62, 40
1, 16258, Note_on_c, 0, 51, 29
1, 16262, Note_on_c, 0, 66, 37
1, 16287, Note_on_c, 0, 69, 39
1, 16288, Note_on_c, 0, 57, 24
1, 16293, Note_on_c, 0, 74, 68
1, 16430, Note_on_c, 0, 74, 0
1, 16451, Note_on_c, 0, 57, 0
1, 16454, Note_on_c, 0, 66, 0
1, 16457, Note_on_c, 0, 69, 0
1, 16459, Note_on_c, 0, 62, 0
1, 16515, Note_on_c, 0, 62, 32
1, 16517, Note_on_c, 0, 66, 31
1, 16522, Note_on_c, 0, 72, 48
1, 16525, Note_on_c, 0, 69, 40
1, 16528, Note_on_c, 0, 57, 24
1, 16622, Note_on_c, 0, 72, 0
1, 16670, Note_on_c, 0, 69, 0
1, 16683, Note_on_c, 0, 57, 0
1, 16684, Note_on_c, 0, 72, 65
1, 16714, Note_on_c, 0, 72, 0
1, 16715, Note_on_c, 0, 62, 0
1, 16715, Note_on_c, 0, 66, 0
1, 16837, Note_on_c, 0, 51, 0
1, 16861, Note_on_c, 0, 61, 35
1, 16862, Note_on_c, 0, 69, 54
1, 16868, Note_on_c, 0, 64, 50
1, 16868, Note_on_c, 0, 57, 40
1, 16870, Note_on_c, 0, 46, 31
1, 16876, Control_c, 0, 64, 0
1, 16877, Note_on_c, 0, 53, 33
1, 16936, Control_c, 0, 64, 127
1, 16967, Note_on_c, 0, 53, 0
1, 16984, Note_on_c, 0, 64, 0
1, 17004, Note_on_c, 0, 57, 0
1, 17043, Note_on_c, 0, 61, 0
1, 17069, Note_on_c, 0, 62, 39
1, 17075, Note_on_c, 0, 65, 44
1, 17075, Note_on_c, 0, 57, 24
1, 17077, Note_on_c, 0, 53, 28
1, 17090, Control_c, 0, 64, 0
1, 17184, Control_c, 0, 64, 127
1, 17207, Note_on_c, 0, 53, 0
1, 17270, Note_on_c, 0, 57, 0
1, 17278, Note_on_c, 0, 53, 30
1, 17321, Note_on_c, 0, 65, 0
1, 17325, Note_on_c, 0, 62, 0
1, 17342, Note_on_c, 0, 69, 0
1, 17438, Note_on_c, 0, 70, 74
1, 17439, Note_on_c, 0, 57, 28
1, 17455, Note_on_c, 0, 57, 0
1, 17459, Note_on_c, 0, 46, 0
1, 17471, Note_on_c, 0, 53, 0
1, 17493, Note_on_c, 0, 70, 0
1, 17511, Note_on_c, 0, 72, 76
1, 17564, Note_on_c, 0, 72, 0
1, 17613, Note_on_c, 0, 74, 79
1, 17613, Note_on_c, 0, 66, 75
1, 17617, Note_on_c, 0, 62, 75
1, 17618, Note_on_c, 0, 69, 67
1, 17619, Note_on_c, 0, 39, 69
1, 17626, Control_c, 0, 64, 0
1, 17703, Control_c, 0, 64, 127
1, 17752, Note_on_c, 0, 46, 74
1, 17763, Note_on_c, 0, 39, 0
1, 17782, Note_on_c, 0, 69, 0
1, 17850, Note_on_c, 0, 66, 0
1, 17851, Note_on_c, 0, 62, 0
1, 17899, Note_on_c, 0, 74, 0
1, 17922, Note_on_c, 0, 70, 59
1, 17923, Note_on_c, 0, 67, 67
1, 17923, Note_on_c, 0, 62, 57
1, 17932, Note_on_c, 0, 55, 64
1, 18133, Note_on_c, 0, 62, 0
1, 18543, Note_on_c, 0, 70, 0
1, 18550, Note_on_c, 0, 55, 0
1, 18555, Note_on_c, 0, 75, 60
1, 18555, Note_on_c, 0, 63, 49
1, 18556, Note_on_c, 0, 51, 57
1, 18566, Note_on_c, 0, 67, 0
1, 18571, Control_c, 0, 64, 0
1, 18617, Control_c, 0, 64, 127
1, 18691, Note_on_c, 0, 46, 0
1, 18713, Note_on_c, 0, 75, 0
1, 18722, Note_on_c, 0, 63, 0
1, 18940, Note_on_c, 0, 77, 38
1, 18943, Note_on_c, 0, 51, 0
1, 18947, Note_on_c, 0, 65, 39
1, 18953, Note_on_c, 0, 53, 40
1, 18955, Control_c, 0, 64, 0
1, 19050, Control_c, 0, 64, 127
1, 19147, Note_on_c, 0, 65, 0
1, 19152, Note_on_c, 0, 77, 0
1, 19165, Note_on_c, 0, 53, 0
1, 19191, Note_on_c, 9, 51, 100
1, 19200, Note_on_c, 0, 63, 60
1, 19200, Note_on_c, 0, 75, 50
1, 19201, Note_on_c, 1, 39, 86
1, 19206, Note_on_c, 9, 51, 0
1, 19223, Control_c, 0, 64, 0
1, 19311, Control_c, 0, 64, 127
1, 19320, Note_on_c, 0, 63, 0
1, 19320, Note_on_c, 0, 75, 0
1, 19655, Note_on_c, 9, 59, 69
1, 19663, Note_on_c, 9, 59, 0
1, 19767, Note_on_c, 9, 59, 77
1, 19777, Note_on_c, 9, 59, 0
1, 19894, Note_on_c, 9, 59, 46
1, 19904, Note_on_c, 9, 59, 0
1, 19941, Note_on_c, 9, 59, 70
1, 19999, Note_on_c, 1, 50, 108
1, 20015, Note_on_c, 9, 59, 0
1, 20067, Note_on_c, 1, 50, 0
1, 20076, Note_on_c, 1, 48, 90
1, 20136, Note_on_c, 1, 48, 0
1, 20155, Note_on_c, 1, 50, 103
1, 20185, Note_on_c, 1, 39, 0
1, 20194, Control_c, 0, 64, 0
1, 20238, Note_on_c, 0, 78, 51
1, 20241, Note_on_c, 0, 86, 49
1, 20242, Note_on_c, 0, 62, 40
1, 20242, Note_on_c, 9, 59, 51
1, 20246, Note_on_c, 0, 54, 26
1, 20251, Note_on_c, 9, 59, 0
1, 20252, Note_on_c, 0, 86, 0
1, 20253, Note_on_c, 0, 62, 0
1, 20256, Note_on_c, 0, 78, 0
1, 20258, Note_on_c, 0, 54, 0
1, 20289, Note_on_c, 9, 59, 65
1, 20340, Note_on_c, 9, 59, 0
1, 20363, Note_on_c, 9, 59, 96
1, 20400, Note_on_c, 0, 78, 48
1, 20403, Note_on_c, 0, 86, 44
1, 20406, Note_on_c, 0, 62, 38
1, 20409, Note_on_c, 0, 54, 38
1, 20446, Control_c, 0, 64, 127
1, 20474, Note_on_c, 1, 50, 0
1, 20479, Note_on_c, 1, 48, 85
1, 20487, Note_on_c, 9, 59, 0
1, 20488, Note_on_c, 9, 36, 18
1, 20500, Note_on_c, 9, 36, 0
1, 20532, Note_on_c, 9, 36, 25
1, 20537, Note_on_c, 0, 78, 0
1, 20545, Note_on_c, 0, 86, 0
1, 20546, Note_on_c, 0, 62, 0
1, 20550, Note_on_c, 9, 36, 0
1, 20564, Note_on_c, 0, 54, 0
1, 20600, Note_on_c, 1, 48, 0
1, 20603, Note_on_c, 1, 50, 80
1, 20606, Note_on_c, 9, 36, 29
1, 20617, Control_c, 0, 64, 0
1, 20619, Note_on_c, 9, 36, 0
1, 20724, Note_on_c, 0, 86, 51
1, 20725, Note_on_c, 0, 74, 46
1, 20726, Note_on_c, 0, 58, 43
1, 20726, Note_on_c, 0, 62, 48
1, 20727, Note_on_c, 9, 59, 44
1, 20729, Note_on_c, 0, 53, 43
1, 20729, Note_on_c, 0, 79, 34
1, 20736, Note_on_c, 0, 74, 0
1, 20737, Note_on_c, 0, 62, 0
1, 20738, Note_on_c, 9, 59, 0
1, 20739, Note_on_c, 0, 86, 0
1, 20739, Note_on_c, 0, 79, 0
1, 20739, Note_on_c, 0, 53, 0
1, 20747, Note_on_c, 0, 58, 0
1, 20779, Note_on_c, 9, 59, 37
1, 20794, Note_on_c, 9, 59, 0
1, 20844, Note_on_c, 9, 59, 115
1, 20886, Note_on_c, 0, 86, 49
1, 20887, Note_on_c, 0, 74, 40
1, 20887, Note_on_c, 0, 62, 44
1, 20889, Note_on_c, 0, 58, 32
1, 20890, Note_on_c, 0, 79, 35
1, 20891, Control_c, 0, 64, 127
1, 20891, Note_on_c, 0, 53, 38
1, 20910, Note_on_c, 9, 59, 0
1, 20920, Note_on_c, 1, 50, 0
1, 20960, Note_on_c, 1, 48, 96
1, 20962, Note_on_c, 9, 44, 22
1, 20972, Note_on_c, 9, 44, 0
1, 20982, Note_on_c, 0, 86, 0
1, 20997, Note_on_c, 0, 79, 0
1, 21001, Note_on_c, 0, 62, 0
1, 21002, Note_on_c, 0, 74, 0
1, 21008, Note_on_c, 9, 44, 35
1, 21016, Note_on_c, 0, 53, 0
1, 21018, Note_on_c, 0, 58, 0
1, 21030, Note_on_c, 9, 44, 0
1, 21081, Note_on_c, 9, 36, 30
1, 21102, Note_on_c, 9, 36, 0
1, 21103, Control_c, 0, 64, 0
1, 21106, Note_on_c, 1, 48, 0
1, 21135, Note_on_c, 1, 50, 103
1, 21181, Control_c, 0, 64, 127
1, 21193, Control_c, 0, 64, 0
1, 21209, Note_on_c, 1, 50, 0
1, 21210, Note_on_c, 0, 75, 58
1, 21211, Note_on_c, 0, 68, 58
1, 21212, Note_on_c, 0, 63, 56
1, 21214, Note_on_c, 0, 65, 57
1, 21215, Note_on_c, 0, 72, 47
1, 21216, Note_on_c, 9, 59, 38
1, 21220, Note_on_c, 1, 48, 85
1, 21224, Note_on_c, 0, 65, 0
1, 21225, Note_on_c, 0, 72, 0
1, 21227, Note_on_c, 9, 59, 0
1, 21228, Note_on_c, 0, 68, 0
1, 21234, Note_on_c, 0, 75, 0
1, 21234, Note_on_c, 0, 63, 0
1, 21284, Note_on_c, 1, 48, 0
1, 21289, Note_on_c, 1, 46, 75
1, 21339, Note_on_c, 9, 59, 74
1, 21353, Note_on_c, 9, 59, 0
1, 21383, Note_on_c, 0, 71, 45
1, 21383, Note_on_c, 0, 62, 44
1, 21383, Note_on_c, 0, 67, 44
1, 21387, Note_on_c, 0, 56, 34
1, 21409, Note_on_c, 9, 59, 74
1, 21426, Note_on_c, 9, 59, 0
1, 21495, Note_on_c, 9, 59, 68
1, 21506, Note_on_c, 9, 59, 0
1, 21513, Control_c, 0, 64, 127
1, 21556, Note_on_c, 0, 71, 0
1, 21565, Note_on_c, 1, 46, 0
1, 21566, Note_on_c, 0, 62, 0
1, 21573, Note_on_c, 9, 59, 68
1, 21579, Note_on_c, 0, 67, 0
1, 21582, Note_on_c, 9, 38, 39
1, 21601, Note_on_c, 1, 48, 95
1, 21605, Note_on_c, 9, 38, 0
1, 21617, Note_on_c, 9, 59, 0
1, 21619, Note_on_c, 0, 56, 0
1, 21619, Control_c, 0, 64, 0
1, 21623, Note_on_c, 0, 70, 36
1, 21625, Note_on_c, 0, 62, 37
1, 21627, Note_on_c, 0, 67, 36
1, 21627, Note_on_c, 9, 38, 33
1, 21636, Note_on_c, 0, 55, 35
1, 21651, Note_on_c, 9, 38, 0
1, 21671, Note_on_c, 9, 38, 36
1, 21680, Note_on_c, 9, 38, 0
1, 21756, Control_c, 0, 64, 127
1, 21761, Note_on_c, 1, 48, 0
1, 21766, Note_on_c, 1, 46, 58
1, 21787, Note_on_c, 1, 46, 0
1, 21801, Note_on_c, 1, 48, 72
1, 21822, Note_on_c, 1, 48, 0
1, 21841, Note_on_c, 1, 50, 83
1, 21863, Note_on_c, 0, 62, 0
1, 21864, Note_on_c, 0, 67, 0
1, 21876, Pitch_bend_c, 1, 8192
1, 21880, Pitch_bend_c, 1, 8192
1, 21887, Pitch_bend_c, 1, 8192
1, 21890, Note_on_c, 0, 70, 0
1, 21890, Pitch_bend_c, 1, 8192
1, 21892, Pitch_bend_c, 1, 7552
1, 21895, Pitch_bend_c, 1, 7296
1, 21896, Pitch_bend_c, 1, 7040
1, 21897, Pitch_bend_c, 1, 6912
1, 21898, Pitch_bend_c, 1, 6784
1, 21899, Pitch_bend_c, 1, 6528
1, 21901, Pitch_bend_c, 1, 6400
1, 21902, Pitch_bend_c, 1, 6272
1, 21903, Pitch_bend_c, 1, 6016
1, 21904, Pitch_bend_c, 1, 5888
1, 21905, Pitch_bend_c, 1, 5760
1, 21907, Pitch_bend_c, 1, 5632
1, 21908, Pitch_bend_c, 1, 5504
1, 21909, Pitch_bend_c, 1, 5376
1, 21912, Pitch_bend_c, 1, 5120
1, 21913, Note_on_c, 1, 50, 0
1, 21914, Pitch_bend_c, 1, 4864
1, 21917, Pitch_bend_c, 1, 4736
1, 21918, Pitch_bend_c, 1, 5120
1, 21920, Pitch_bend_c, 1, 6528
1, 21921, Pitch_bend_c, 1, 7424
1, 21922, Pitch_bend_c, 1, 8192
1, 21923, Pitch_bend_c, 1, 8192
1, 21942, Note_on_c, 0, 66, 46
1, 21943, Note_on_c, 0, 60, 51
1, 21945, Note_on_c, 0, 69, 46
1, 21950, Note_on_c, 0, 54, 42
1, 21952, Note_on_c, 0, 55, 0
1, 21955, Control_c, 0, 64, 0
1, 21967, Note_on_c, 1, 48, 81
1, 22017, Note_on_c, 1, 48, 0
1, 22023, Control_c, 0, 64, 127
1, 22035, Note_on_c, 1, 46, 76
1, 22059, Note_on_c, 0, 60, 0
1, 22079, Note_on_c, 1, 46, 0
1, 22081, Note_on_c, 0, 69, 0
1, 22082, Note_on_c, 0, 54, 0
1, 22084, Note_on_c, 0, 66, 0
1, 22087, Note_on_c, 1, 45, 75
1, 22095, Control_c, 0, 64, 0
1, 22099, Note_on_c, 0, 62, 32
1, 22100, Note_on_c, 0, 70, 32
1, 22105, Note_on_c, 0, 55, 23
1, 22106, Note_on_c, 0, 65, 37
1, 22117, Note_on_c, 0, 55, 0
1, 22223, Note_on_c, 9, 59, 33
1, 22234, Note_on_c, 9, 59, 0
1, 22254, Note_on_c, 9, 59, 50
1, 22265, Note_on_c, 1, 45, 0
1, 22271, Note_on_c, 1, 43, 78
1, 22275, Note_on_c, 9, 59, 0
1, 22291, Note_on_c, 9, 59, 76
1, 22334, Note_on_c, 1, 43, 0
1, 22344, Note_on_c, 9, 59, 0
1, 22352, Note_on_c, 1, 43, 72
1, 22356, Control_c, 0, 64, 127
1, 22375, Note_on_c, 9, 59, 30
1, 22391, Note_on_c, 9, 59, 0
1, 22405, Note_on_c, 9, 59, 57
1, 22407, Note_on_c, 0, 62, 0
1, 22425, Note_on_c, 9, 59, 0
1, 22427, Note_on_c, 0, 65, 0
1, 22449, Note_on_c, 0, 70, 0
1, 22449, Note_on_c, 9, 59, 84
1, 22502, Note_on_c, 1, 50, 79
1, 22514, Note_on_c, 1, 43, 0
1, 22522, Note_on_c, 9, 59, 0
1, 22530, Note_on_c, 9, 38, 27
1, 22549, Note_on_c, 9, 38, 0
1, 22556, Note_on_c, 9, 59, 45
1, 22560, Note_on_c, 1, 50, 0
1, 22564, Control_c, 0, 64, 0
1, 22566, Note_on_c, 1, 48, 72
1, 22567, Note_on_c, 9, 59, 0
1, 22567, Note_on_c, 0, 79, 57
1, 22569, Note_on_c, 0, 72, 63
1, 22571, Note_on_c, 0, 64, 40
1, 22583, Note_on_c, 9, 38, 23
1, 22596, Note_on_c, 9, 59, 48
1, 22612, Note_on_c, 9, 59, 0
1, 22614, Control_c, 0, 64, 127
1, 22627, Note_on_c, 9, 38, 0
1, 22631, Note_on_c, 0, 79, 0
1, 22634, Note_on_c, 9, 59, 78
1, 22644, Note_on_c, 0, 72, 0
1, 22647, Note_on_c, 0, 64, 0
1, 22648, Control_c, 0, 64, 0
1, 22653, Note_on_c, 0, 76, 39
1, 22658, Note_on_c, 0, 67, 42
1, 22659, Note_on_c, 0, 60, 25
1, 22660, Note_on_c, 9, 38, 18
1, 22675, Note_on_c, 9, 38, 0
1, 22691, Control_c, 0, 64, 127
1, 22692, Note_on_c, 9, 59, 0
1, 22698, Note_on_c, 0, 76, 0
1, 22721, Note_on_c, 0, 67, 0
1, 22753, Note_on_c, 1, 43, 74
1, 22755, Note_on_c, 1, 48, 0
1, 22782, Control_c, 0, 64, 0
1, 22795, Note_on_c, 0, 64, 34
1, 22796, Note_on_c, 0, 67, 30
1, 22798, Note_on_c, 0, 72, 28
1, 22804, Note_on_c, 0, 52, 21
1, 22831, Control_c, 0, 64, 127
1, 22835, Note_on_c, 1, 55, 78
1, 22838, Note_on_c, 1, 43, 0
1, 22844, Note_on_c, 0, 64, 0
1, 22850, Note_on_c, 0, 60, 0
1, 22870, Note_on_c, 9, 38, 24
1, 22873, Note_on_c, 0, 67, 0
1, 22876, Note_on_c, 0, 72, 0
1, 22876, Note_on_c, 9, 59, 44
1, 22879, Note_on_c, 0, 64, 37
1, 22888, Note_on_c, 9, 59, 0
1, 22888, Note_on_c, 9, 38, 0
1, 22894, Note_on_c, 0, 52, 0
1, 22906, Note_on_c, 0, 64, 0
1, 22914, Note_on_c, 9, 59, 53
1, 22916, Note_on_c, 9, 36, 21
1, 22927, Note_on_c, 9, 59, 0
1, 22938, Note_on_c, 9, 36, 0
1, 22988, Note_on_c, 9, 36, 41
1, 22993, Note_on_c, 9, 59, 84
1, 23008, Note_on_c, 9, 59, 0
1, 23013, Note_on_c, 9, 36, 0
1, 23024, Control_c, 0, 64, 0
1, 23043, Note_on_c, 0, 57, 42
1, 23043, Note_on_c, 0, 67, 35
1, 23046, Note_on_c, 0, 52, 38
1, 23050, Note_on_c, 0, 60, 40
1, 23050, Note_on_c, 9, 59, 82
1, 23064, Note_on_c, 9, 59, 0
1, 23126, Note_on_c, 9, 59, 77
1, 23140, Note_on_c, 9, 59, 0
1, 23208, Note_on_c, 9, 59, 68
1, 23224, Note_on_c, 9, 59, 0
1, 23227, Note_on_c, 1, 55, 0
1, 23239, Note_on_c, 1, 53, 85
1, 23279, Control_c, 0, 64, 127
1, 23301, Note_on_c, 9, 59, 55
1, 23320, Note_on_c, 0, 57, 0
1, 23329, Note_on_c, 0, 60, 0
1, 23336, Note_on_c, 0, 52, 0
1, 23378, Note_on_c, 9, 59, 0
1, 23380, Note_on_c, 0, 67, 0
1, 23451, Note_on_c, 1, 52, 74
1, 23482, Note_on_c, 1, 53, 0
1, 23487, Note_on_c, 1, 52, 0
1, 23489, Note_on_c, 1, 50, 69
1, 23518, Control_c, 0, 64, 0
1, 23524, Note_on_c, 1, 50, 0
1, 23526, Note_on_c, 0, 72, 58
1, 23526, Note_on_c, 0, 69, 62
1, 23527, Note_on_c, 0, 60, 30
1, 23527, Note_on_c, 0, 64, 42
1, 23531, Note_on_c, 0, 54, 27
1, 23531, Note_on_c, 9, 59, 76
1, 23531, Note_on_c, 9, 53, 44
1, 23532, Note_on_c, 1, 48, 74
1, 23560, Note_on_c, 9, 53, 0
1, 23561, Note_on_c, 9, 59, 0
1, 23655, Control_c, 0, 64, 127
1, 23718, Note_on_c, 9, 53, 48
1, 23723, Note_on_c, 9, 59, 71
1, 23726, Note_on_c, 0, 72, 0
1, 23730, Note_on_c, 0, 71, 35
1, 23732, Note_on_c, 0, 64, 0
1, 23732, Note_on_c, 0, 67, 23
1, 23738, Note_on_c, 0, 69, 0
1, 23739, Note_on_c, 0, 60, 0
1, 23746, Note_on_c, 9, 53, 0
1, 23751, Note_on_c, 9, 59, 0
1, 23755, Note_on_c, 0, 54, 0
1, 23755, Control_c, 0, 64, 0
1, 23760, Note_on_c, 0, 67, 0
1, 23764, Note_on_c, 0, 71, 0
1, 23786, Note_on_c, 0, 69, 39
1, 23789, Note_on_c, 0, 72, 34
1, 23789, Note_on_c, 0, 64, 35
1, 23792, Note_on_c, 0, 54, 18
1, 23794, Note_on_c, 0, 60, 25
1, 23813, Note_on_c, 9, 59, 71
1, 23836, Note_on_c, 1, 48, 0
1, 23836, Note_on_c, 1, 47, 80
1, 23844, Note_on_c, 9, 59, 0
1, 23895, Note_on_c, 9, 53, 63
1, 23904, Note_on_c, 9, 59, 72
1, 23907, Note_on_c, 0, 64, 0
1, 23907, Control_c, 0, 64, 127
1, 23909, Note_on_c, 0, 60, 0
1, 23909, Note_on_c, 1, 47, 0
1, 23917, Note_on_c, 1, 48, 74
1, 23922, Note_on_c, 1, 47, 31
1, 23926, Note_on_c, 9, 53, 0
1, 23929, Note_on_c, 1, 47, 0
1, 23936, Note_on_c, 0, 69, 0
1, 23939, Note_on_c, 0, 54, 0
1, 23939, Note_on_c, 9, 59, 0
1, 23947, Control_c, 0, 64, 0
1, 23957, Note_on_c, 0, 72, 0
1, 23969, Note_on_c, 9, 38, 25
1, 23981, Note_on_c, 9, 59, 64
1, 23987, Note_on_c, 1, 48, 0
1, 23988, Note_on_c, 9, 38, 0
1, 23998, Note_on_c, 1, 47, 71
1, 24007, Note_on_c, 9, 59, 0
1, 24019, Note_on_c, 9, 36, 23
1, 24060, Note_on_c, 9, 53, 63
1, 24065, Note_on_c, 9, 36, 0
1, 24067, Note_on_c, 9, 59, 71
1, 24083, Note_on_c, 0, 62, 44
1, 24085, Note_on_c, 0, 71, 39
1, 24086, Note_on_c, 0, 67, 35
1, 24087, Note_on_c, 0, 51, 34
1, 24088, Note_on_c, 0, 57, 34
1, 24093, Note_on_c, 9, 53, 0
1, 24095, Note_on_c, 0, 62, 0
1, 24095, Note_on_c, 9, 36, 28
1, 24097, Note_on_c, 0, 67, 0
1, 24099, Note_on_c, 0, 57, 0
1, 24101, Note_on_c, 0, 71, 0
1, 24103, Note_on_c, 9, 59, 0
1, 24109, Note_on_c, 0, 51, 0
1, 24114, Note_on_c, 9, 36, 0
1, 24131, Note_on_c, 1, 47, 0
1, 24147, Note_on_c, 9, 59, 68
1, 24168, Note_on_c, 0, 71, 42
1, 24169, Note_on_c, 0, 62, 38
1, 24174, Note_on_c, 0, 67, 21
1, 24175, Note_on_c, 0, 51, 33
1, 24176, Note_on_c, 9, 59, 0
1, 24179, Note_on_c, 0, 57, 19
1, 24181, Note_on_c, 0, 62, 0
1, 24184, Note_on_c, 0, 71, 0
1, 24185, Note_on_c, 1, 47, 70
1, 24186, Note_on_c, 0, 67, 0
1, 24187, Note_on_c, 0, 51, 0
1, 24190, Note_on_c, 0, 57, 0
1, 24226, Note_on_c, 1, 47, 0
1, 24233, Note_on_c, 9, 59, 70
1, 24242, Note_on_c, 1, 55, 85
1, 24255, Note_on_c, 0, 62, 38
1, 24257, Note_on_c, 0, 71, 35
1, 24257, Note_on_c, 0, 67, 28
1, 24257, Note_on_c, 0, 51, 32
1, 24260, Note_on_c, 0, 57, 28
1, 24292, Note_on_c, 9, 59, 0
1, 24305, Note_on_c, 1, 55, 0
1, 24319, Note_on_c, 1, 54, 77
1, 24346, Note_on_c, 0, 62, 0
1, 24359, Note_on_c, 0, 67, 0
1, 24365, Note_on_c, 0, 71, 0
1, 24367, Control_c, 0, 64, 127
1, 24370, Note_on_c, 0, 57, 0
1, 24411, Note_on_c, 1, 54, 0
1, 24412, Note_on_c, 1, 47, 59
1, 24445, Note_on_c, 1, 47, 0
1, 24445, Control_c, 0, 64, 0
1, 24447, Note_on_c, 1, 46, 53
1, 24468, Note_on_c, 0, 51, 0
1, 24476, Note_on_c, 1, 46, 0
1, 24476, Note_on_c, 0, 62, 37
1, 24478, Note_on_c, 0, 69, 34
1, 24478, Note_on_c, 0, 59, 34
1, 24479, Note_on_c, 0, 66, 25
1, 24480, Note_on_c, 0, 57, 30
1, 24484, Note_on_c, 1, 47, 63
1, 24495, Note_on_c, 0, 66, 0
1, 24495, Note_on_c, 0, 59, 0
1, 24496, Note_on_c, 0, 62, 0
1, 24502, Note_on_c, 0, 69, 0
1, 24516, Note_on_c, 0, 57, 0
1, 24530, Pitch_bend_c, 1, 8192
1, 24533, Pitch_bend_c, 1, 8192
1, 24536, Pitch_bend_c, 1, 8192
1, 24541, Pitch_bend_c, 1, 8192
1, 24545, Pitch_bend_c, 1, 7680
1, 24546, Note_on_c, 9, 44, 28
1, 24547, Pitch_bend_c, 1, 7552
1, 24550, Pitch_bend_c, 1, 7424
1, 24552, Pitch_bend_c, 1, 7296
1, 24553, Pitch_bend_c, 1, 7168
1, 24556, Pitch_bend_c, 1, 7040
1, 24557, Note_on_c, 9, 44, 0
1, 24559, Note_on_c, 0, 55, 23
1, 24559, Pitch_bend_c, 1, 6912
1, 24560, Pitch_bend_c, 1, 6784
1, 24561, Pitch_bend_c, 1, 6656
1, 24564, Pitch_bend_c, 1, 6400
1, 24565, Pitch_bend_c, 1, 6272
1, 24566, Pitch_bend_c, 1, 6144
1, 24568, Pitch_bend_c, 1, 5888
1, 24571, Pitch_bend_c, 1, 5632
1, 24574, Pitch_bend_c, 1, 5504
1, 24576, Note_on_c, 0, 55, 0
1, 24577, Pitch_bend_c, 1, 5120
1, 24579, Pitch_bend_c, 1, 4992
1, 24580, Pitch_bend_c, 1, 4864
1, 24583, Pitch_bend_c, 1, 4736
1, 24586, Pitch_bend_c, 1, 4608
1, 24589, Pitch_bend_c, 1, 4352
1, 24591, Pitch_bend_c, 1, 4224
1, 24593, Pitch_bend_c, 1, 4096
1, 24593, Note_on_c, 9, 44, 36
1, 24596, Note_on_c, 0, 69, 30
1, 24596, Note_on_c, 0, 59, 28
1, 24597, Pitch_bend_c, 1, 3968
1, 24599, Note_on_c, 0, 62, 29
1, 24600, Note_on_c, 0, 66, 23
1, 24600, Note_on_c, 0, 57, 28
1, 24601, Note_on_c, 1, 47, 0
1, 24610, Pitch_bend_c, 1, 4096
1, 24611, Pitch_bend_c, 1, 4352
1, 24612, Pitch_bend_c, 1, 4608
1, 24613, Note_on_c, 9, 44, 0
1, 24613, Pitch_bend_c, 1, 4864
1, 24615, Pitch_bend_c, 1, 5120
1, 24616, Pitch_bend_c, 1, 5632
1, 24617, Pitch_bend_c, 1, 6016
1, 24618, Pitch_bend_c, 1, 6400
1, 24620, Pitch_bend_c, 1, 6784
1, 24621, Pitch_bend_c, 1, 7040
1, 24622, Pitch_bend_c, 1, 7296
1, 24623, Pitch_bend_c, 1, 7552
1, 24625, Pitch_bend_c, 1, 7680
1, 24626, Pitch_bend_c, 1, 8192
1, 24626, Pitch_bend_c, 1, 8192
1, 24627, Pitch_bend_c, 1, 8192
1, 24628, Pitch_bend_c, 1, 8192
1, 24667, Note_on_c, 9, 36, 36
1, 24676, Note_on_c, 0, 59, 0
1, 24681, Note_on_c, 9, 36, 0
1, 24683, Note_on_c, 0, 62, 0
1, 24692, Note_on_c, 0, 69, 0
1, 24692, Note_on_c, 0, 66, 0
1, 24711, Note_on_c, 0, 57, 0
1, 24715, Note_on_c, 0, 67, 27
1, 24715, Note_on_c, 9, 44, 30
1, 24718, Note_on_c, 0, 59, 21
1, 24722, Note_on_c, 0, 62, 20
1, 24728, Note_on_c, 9, 44, 0
1, 24728, Note_on_c, 0, 55, 21
1, 24749, Note_on_c, 0, 62, 0
1, 24752, Note_on_c, 0, 55, 0
1, 24758, Note_on_c, 0, 59, 0
1, 24777, Note_on_c, 0, 67, 0
1, 24789, Note_on_c, 9, 44, 45
1, 24798, Note_on_c, 9, 44, 0
1, 24907, Note_on_c, 9, 44, 34
1, 24917, Note_on_c, 9, 44, 0
1, 24927, Note_on_c, 1, 45, 47
1, 24927, Note_on_c, 9, 59, 54
1, 24938, Note_on_c, 9, 59, 0
1, 24940, Note_on_c, 1, 45, 0
1, 24951, Note_on_c, 9, 44, 39
1, 24968, Note_on_c, 9, 44, 0
1, 24972, Note_on_c, 1, 47, 84
1, 24972, Note_on_c, 9, 59, 50
1, 24976, Control_c, 0, 64, 127
1, 24992, Note_on_c, 9, 59, 0
1, 25009, Note_on_c, 9, 59, 56
1, 25018, Note_on_c, 9, 59, 0
1, 25034, Note_on_c, 1, 47, 0
1, 25041, Control_c, 0, 64, 0
1, 25043, Note_on_c, 1, 45, 51
1, 25047, Note_on_c, 0, 64, 49
1, 25050, Note_on_c, 0, 71, 47
1, 25050, Note_on_c, 0, 60, 43
1, 25051, Note_on_c, 0, 83, 39
1, 25052, Note_on_c, 0, 59, 30
1, 25058, Note_on_c, 0, 81, 25
1, 25059, Note_on_c, 1, 45, 0
1, 25061, Note_on_c, 0, 60, 0
1, 25061, Note_on_c, 0, 71, 0
1, 25062, Note_on_c, 0, 64, 0
1, 25064, Note_on_c, 0, 59, 0
1, 25070, Note_on_c, 0, 81, 0
1, 25072, Note_on_c, 0, 83, 0
1, 25074, Note_on_c, 9, 44, 36
1, 25095, Note_on_c, 1, 52, 92
1, 25096, Note_on_c, 9, 44, 0
1, 25150, Note_on_c, 9, 44, 41
1, 25166, Note_on_c, 9, 44, 0
1, 25206, Note_on_c, 9, 59, 43
1, 25213, Note_on_c, 0, 86, 59
1, 25213, Note_on_c, 0, 64, 56
1, 25214, Note_on_c, 0, 74, 64
1, 25214, Note_on_c, 0, 60, 46
1, 25215, Note_on_c, 0, 54, 49
1, 25216, Note_on_c, 9, 59, 0
1, 25216, Note_on_c, 0, 81, 56
1, 25241, Note_on_c, 9, 59, 64
1, 25244, Control_c, 0, 64, 127
1, 25259, Note_on_c, 9, 59, 0
1, 25309, Note_on_c, 0, 86, 0
1, 25316, Note_on_c, 0, 81, 0
1, 25324, Note_on_c, 1, 52, 0
1, 25329, Note_on_c, 1, 50, 59
1, 25334, Note_on_c, 0, 74, 0
1, 25336, Note_on_c, 0, 60, 0
1, 25340, Note_on_c, 0, 64, 0
1, 25361, Note_on_c, 0, 54, 0
1, 25407, Note_on_c, 1, 47, 66
1, 25411, Note_on_c, 1, 50, 0
1, 25412, Control_c, 0, 64, 0
1, 25415, Note_on_c, 0, 62, 39
1, 25417, Note_on_c, 0, 59, 39
1, 25417, Note_on_c, 0, 78, 42
1, 25418, Note_on_c, 0, 83, 45
1, 25420, Note_on_c, 0, 71, 43
1, 25424, Note_on_c, 0, 54, 31
1, 25526, Note_on_c, 9, 59, 36
1, 25536, Note_on_c, 9, 59, 0
1, 25568, Control_c, 0, 64, 127
1, 25575, Note_on_c, 9, 59, 39
1, 25586, Note_on_c, 9, 59, 0
1, 25645, Note_on_c, 9, 51, 68
1, 25648, Note_on_c, 9, 53, 64
1, 25656, Note_on_c, 9, 36, 21
1, 25657, Note_on_c, 9, 53, 0
1, 25666, Note_on_c, 9, 51, 0
1, 25671, Note_on_c, 9, 36, 0
1, 25692, Note_on_c, 9, 51, 46
1, 25696, Note_on_c, 9, 53, 48
1, 25703, Note_on_c, 9, 36, 18
1, 25710, Note_on_c, 0, 83, 0
1, 25719, Note_on_c, 0, 62, 0
1, 25722, Note_on_c, 9, 53, 0
1, 25724, Note_on_c, 0, 59, 0
1, 25729, Note_on_c, 9, 51, 0
1, 25741, Note_on_c, 0, 78, 0
1, 25744, Note_on_c, 0, 71, 0
1, 25746, Note_on_c, 9, 36, 0
1, 25753, Note_on_c, 0, 54, 0
1, 25766, Note_on_c, 9, 59, 58
1, 25777, Note_on_c, 9, 36, 34
1, 25782, Note_on_c, 9, 59, 0
1, 25788, Note_on_c, 9, 36, 0
1, 25814, Note_on_c, 9, 59, 58
1, 25830, Note_on_c, 9, 59, 0
1, 25836, Note_on_c, 1, 47, 0
1, 25844, Note_on_c, 1, 48, 75
1, 25865, Note_on_c, 1, 48, 0
1, 25877, Note_on_c, 1, 49, 79
1, 25878, Note_on_c, 9, 51, 64
1, 25880, Note_on_c, 9, 53, 65
1, 25893, Note_on_c, 9, 53, 0
1, 25902, Note_on_c, 9, 51, 0
1, 25904, Note_on_c, 1, 49, 0
1, 25916, Note_on_c, 0, 74, 54
1, 25920, Note_on_c, 1, 50, 79
1, 25921, Note_on_c, 0, 67, 56
1, 25922, Control_c, 0, 64, 0
1, 25923, Note_on_c, 0, 58, 44
1, 25924, Note_on_c, 0, 63, 46
1, 25936, Note_on_c, 1, 50, 0
1, 26031, Control_c, 0, 64, 127
1, 26118, Note_on_c, 1, 50, 99
1, 26121, Note_on_c, 9, 38, 33
1, 26137, Note_on_c, 9, 38, 0
1, 26170, Note_on_c, 9, 36, 24
1, 26174, Note_on_c, 0, 72, 46
1, 26181, Note_on_c, 0, 74, 0
1, 26205, Note_on_c, 0, 58, 0
1, 26205, Note_on_c, 9, 36, 0
1, 26246, Note_on_c, 9, 36, 23
1, 26257, Note_on_c, 9, 36, 0
1, 26266, Note_on_c, 0, 70, 11
1, 26269, Note_on_c, 0, 67, 0
1, 26272, Note_on_c, 0, 63, 0
1, 26300, Note_on_c, 0, 70, 0
1, 26301, Note_on_c, 0, 72, 0
1, 26413, Note_on_c, 0, 79, 53
1, 26416, Note_on_c, 0, 70, 52
1, 26417, Note_on_c, 0, 73, 39
1, 26423, Note_on_c, 0, 64, 47
1, 26426, Control_c, 0, 64, 0
1, 26491, Control_c, 0, 64, 127
1, 26549, Note_on_c, 0, 79, 0
1, 26558, Note_on_c, 0, 70, 0
1, 26576, Note_on_c, 0, 73, 0
1, 26592, Note_on_c, 1, 45, 81
1, 26593, Note_on_c, 9, 59, 66
1, 26601, Note_on_c, 9, 59, 0
1, 26610, Note_on_c, 9, 38, 37
1, 26627, Note_on_c, 1, 45, 0
1, 26628, Note_on_c, 1, 50, 0
1, 26634, Note_on_c, 9, 38, 0
1, 26645, Note_on_c, 1, 48, 95
1, 26655, Note_on_c, 0, 76, 41
1, 26656, Note_on_c, 0, 64, 0
1, 26659, Note_on_c, 0, 70, 41
1, 26660, Note_on_c, 0, 67, 38
1, 26660, Note_on_c, 9, 36, 18
1, 26664, Note_on_c, 0, 61, 30
1, 26665, Control_c, 0, 64, 0
1, 26676, Note_on_c, 9, 59, 82
1, 26690, Note_on_c, 9, 36, 0
1, 26695, Note_on_c, 9, 59, 0
1, 26706, Control_c, 0, 64, 127
1, 26710, Note_on_c, 1, 48, 0
1, 26716, Note_on_c, 1, 46, 87
1, 26735, Note_on_c, 9, 36, 24
1, 26747, Note_on_c, 9, 36, 0
1, 26761, Note_on_c, 0, 67, 0
1, 26762, Note_on_c, 1, 46, 0
1, 26763, Note_on_c, 0, 76, 0
1, 26770, Note_on_c, 1, 45, 56
1, 26771, Note_on_c, 9, 59, 80
1, 26777, Note_on_c, 0, 70, 0
1, 26789, Note_on_c, 9, 59, 0
1, 26825, Note_on_c, 1, 45, 0
1, 26834, Note_on_c, 1, 46, 85
1, 26851, Note_on_c, 9, 59, 78
1, 26869, Note_on_c, 9, 59, 0
1, 26876, Note_on_c, 1, 46, 0
1, 26884, Note_on_c, 0, 61, 0
1, 26888, Note_on_c, 1, 48, 83
1, 26889, Note_on_c, 0, 62, 30
1, 26889, Control_c, 0, 64, 0
1, 26890, Note_on_c, 0, 77, 46
1, 26892, Note_on_c, 0, 65, 48
1, 26892, Note_on_c, 0, 70, 42
1, 26929, Note_on_c, 9, 59, 64
1, 26946, Note_on_c, 9, 59, 0
1, 26951, Note_on_c, 1, 48, 0
1, 26955, Note_on_c, 1, 46, 71
1, 26964, Note_on_c, 9, 59, 72
1, 26971, Note_on_c, 9, 38, 30
1, 26974, Note_on_c, 9, 59, 0
1, 26979, Control_c, 0, 64, 127
1, 26982, Note_on_c, 9, 38, 0
1, 27013, Note_on_c, 1, 46, 0
1, 27024, Note_on_c, 1, 53, 92
1, 27034, Note_on_c, 9, 59, 70
1, 27045, Note_on_c, 0, 77, 0
1, 27054, Note_on_c, 9, 59, 0
1, 27057, Note_on_c, 0, 65, 0
1, 27069, Note_on_c, 0, 70, 0
1, 27081, Note_on_c, 1, 53, 0
1, 27084, Note_on_c, 9, 38, 26
1, 27094, Note_on_c, 1, 53, 78
1, 27107, Note_on_c, 0, 62, 0
1, 27108, Note_on_c, 9, 59, 71
1, 27112, Note_on_c, 9, 38, 0
1, 27120, Note_on_c, 9, 59, 0
1, 27124, Note_on_c, 0, 74, 35
1, 27127, Note_on_c, 0, 70, 29
1, 27128, Note_on_c, 0, 65, 35
1, 27131, Control_c, 0, 64, 0
1, 27134, Note_on_c, 0, 58, 25
1, 27138, Note_on_c, 9, 38, 34
1, 27142, Pitch_bend_c, 1, 8192
1, 27144, Pitch_bend_c, 1, 8192
1, 27149, Pitch_bend_c, 1, 8192
1, 27151, Note_on_c, 9, 38, 0
1, 27153, Pitch_bend_c, 1, 8192
1, 27156, Pitch_bend_c, 1, 7680
1, 27160, Pitch_bend_c, 1, 7552
1, 27164, Pitch_bend_c, 1, 7424
1, 27169, Pitch_bend_c, 1, 7296
1, 27173, Pitch_bend_c, 1, 7168
1, 27175, Pitch_bend_c, 1, 7040
1, 27178, Pitch_bend_c, 1, 6912
1, 27179, Note_on_c, 9, 59, 66
1, 27181, Pitch_bend_c, 1, 6784
1, 27184, Pitch_bend_c, 1, 6656
1, 27186, Pitch_bend_c, 1, 6528
1, 27187, Control_c, 0, 64, 127
1, 27187, Pitch_bend_c, 1, 6400
1, 27191, Pitch_bend_c, 1, 6272
1, 27192, Note_on_c, 9, 59, 0
1, 27192, Note_on_c, 1, 53, 0
1, 27193, Pitch_bend_c, 1, 6016
1, 27199, Pitch_bend_c, 1, 5888
1, 27202, Pitch_bend_c, 1, 5760
1, 27204, Note_on_c, 9, 36, 37
1, 27206, Pitch_bend_c, 1, 5632
1, 27210, Pitch_bend_c, 1, 5504
1, 27211, Note_on_c, 9, 59, 76
1, 27216, Pitch_bend_c, 1, 5376
1, 27224, Note_on_c, 9, 36, 0
1, 27227, Pitch_bend_c, 1, 5504
1, 27229, Pitch_bend_c, 1, 5632
1, 27230, Note_on_c, 9, 59, 0
1, 27230, Pitch_bend_c, 1, 5760
1, 27231, Pitch_bend_c, 1, 6016
1, 27232, Pitch_bend_c, 1, 6272
1, 27234, Pitch_bend_c, 1, 6528
1, 27235, Pitch_bend_c, 1, 6784
1, 27236, Pitch_bend_c, 1, 7040
1, 27237, Pitch_bend_c, 1, 7424
1, 27238, Note_on_c, 0, 65, 0
1, 27238, Pitch_bend_c, 1, 7680
1, 27240, Pitch_bend_c, 1, 8192
1, 27240, Pitch_bend_c, 1, 8192
1, 27241, Pitch_bend_c, 1, 8192
1, 27244, Note_on_c, 0, 70, 0
1, 27249, Note_on_c, 0, 74, 0
1, 27251, Note_on_c, 9, 36, 37
1, 27255, Note_on_c, 9, 59, 76
1, 27260, Note_on_c, 0, 58, 0
1, 27278, Note_on_c, 9, 59, 0
1, 27303, Note_on_c, 9, 36, 0
1, 27321, Note_on_c, 9, 36, 51
1, 27326, Note_on_c, 9, 59, 96
1, 27350, Note_on_c, 9, 59, 0
1, 27357, Note_on_c, 9, 36, 0
1, 27366, Note_on_c, 0, 67, 30
1, 27367, Note_on_c, 0, 62, 24
1, 27369, Note_on_c, 0, 58, 23
1, 27372, Note_on_c, 0, 51, 23
1, 27374, Control_c, 0, 64, 0
1, 27498, Note_on_c, 1, 51, 59
1, 27509, Note_on_c, 1, 51, 0
1, 27520, Control_c, 0, 64, 127
1, 27569, Note_on_c, 1, 50, 108
1, 27610, Note_on_c, 1, 50, 0
1, 27658, Note_on_c, 0, 58, 0
1, 27660, Note_on_c, 1, 48, 92
1, 27663, Note_on_c, 0, 67, 0
1, 27668, Note_on_c, 0, 51, 0
1, 27681, Note_on_c, 0, 62, 0
1, 27686, Note_on_c, 9, 51, 56
1, 27688, Note_on_c, 9, 53, 69
1, 27711, Note_on_c, 9, 51, 0
1, 27711, Note_on_c, 1, 48, 0
1, 27722, Note_on_c, 9, 53, 0
1, 27726, Note_on_c, 1, 46, 82
1, 27784, Control_c, 0, 64, 0
1, 27792, Note_on_c, 1, 46, 0
1, 27798, Note_on_c, 1, 45, 80
1, 27812, Note_on_c, 9, 53, 49
1, 27833, Note_on_c, 9, 53, 0
1, 27880, Note_on_c, 9, 51, 62
1, 27882, Note_on_c, 9, 53, 74
1, 27902, Note_on_c, 1, 46, 57
1, 27906, Note_on_c, 1, 45, 0
1, 27920, Note_on_c, 9, 51, 0
1, 27924, Note_on_c, 1, 45, 44
1, 27933, Note_on_c, 1, 46, 0
1, 27935, Note_on_c, 9, 53, 0
1, 27935, Note_on_c, 9, 44, 38
1, 27945, Note_on_c, 1, 45, 0
1, 27952, Note_on_c, 9, 44, 0
1, 27955, Note_on_c, 1, 43, 38
1, 27963, Note_on_c, 9, 59, 64
1, 27978, Note_on_c, 1, 43, 0
1, 27980, Note_on_c, 0, 58, 59
1, 27982, Note_on_c, 9, 59, 0
1, 27983, Note_on_c, 0, 69, 58
1, 27983, Note_on_c, 0, 62, 53
1, 27984, Note_on_c, 0, 57, 56
1, 27990, Note_on_c, 1, 45, 64
1, 27993, Note_on_c, 9, 44, 40
1, 27993, Note_on_c, 9, 46, 37
1, 28026, Note_on_c, 9, 44, 0
1, 28037, Note_on_c, 0, 69, 0
1, 28038, Note_on_c, 9, 59, 73
1, 28045, Note_on_c, 9, 46, 0
1, 28046, Note_on_c, 0, 62, 0
1, 28048, Note_on_c, 0, 58, 0
1, 28060, Note_on_c, 0, 57, 0
1, 28064, Note_on_c, 9, 59, 0
1, 28066, Note_on_c, 0, 55, 45
1, 28096, Note_on_c, 0, 55, 0
1, 28103, Note_on_c, 0, 69, 51
1, 28103, Note_on_c, 0, 58, 42
1, 28105, Note_on_c, 0, 62, 49
1, 28108, Note_on_c, 0, 57, 52
1, 28162, Note_on_c, 0, 58, 0
1, 28164, Note_on_c, 0, 69, 0
1, 28166, Note_on_c, 0, 62, 0
1, 28183, Note_on_c, 9, 38, 36
1, 28188, Note_on_c, 0, 67, 43
1, 28188, Note_on_c, 0, 58, 39
1, 28190, Note_on_c, 0, 57, 0
1, 28192, Note_on_c, 0, 55, 37
1, 28194, Note_on_c, 9, 38, 0
1, 28194, Note_on_c, 0, 62, 28
1, 28202, Note_on_c, 0, 55, 0
1, 28205, Note_on_c, 0, 62, 0
1, 28210, Note_on_c, 0, 58, 0
1, 28211, Note_on_c, 0, 67, 0
1, 28331, Note_on_c, 1, 45, 0
1, 28401, Note_on_c, 9, 59, 60
1, 28407, Note_on_c, 0, 64, 39
1, 28409, Note_on_c, 0, 58, 25
1, 28409, Note_on_c, 0, 61, 25
1, 28410, Note_on_c, 9, 59, 0
1, 28411, Note_on_c, 0, 55, 30
1, 28412, Note_on_c, 0, 52, 41
1, 28421, Note_on_c, 0, 64, 0
1, 28422, Note_on_c, 0, 55, 0
1, 28423, Note_on_c, 0, 52, 0
1, 28423, Note_on_c, 0, 58, 0
1, 28430, Note_on_c, 0, 61, 0
1, 28457, Note_on_c, 9, 59, 80
1, 28489, Note_on_c, 1, 45, 75
1, 28502, Note_on_c, 1, 45, 0
1, 28522, Note_on_c, 9, 59, 0
1, 28524, Note_on_c, 1, 45, 82
1, 28537, Note_on_c, 1, 45, 0
1, 28569, Note_on_c, 1, 53, 82
1, 28604, Pitch_bend_c, 1, 8192
1, 28604, Pitch_bend_c, 1, 8192
1, 28607, Pitch_bend_c, 1, 8192
1, 28609, Pitch_bend_c, 1, 8192
1, 28611, Pitch_bend_c, 1, 7552
1, 28613, Pitch_bend_c, 1, 7424
1, 28616, Pitch_bend_c, 1, 7168
1, 28617, Pitch_bend_c, 1, 7040
1, 28618, Pitch_bend_c, 1, 6912
1, 28619, Pitch_bend_c, 1, 6784
1, 28621, Pitch_bend_c, 1, 6656
1, 28622, Pitch_bend_c, 1, 6528
1, 28623, Pitch_bend_c, 1, 6400
1, 28624, Pitch_bend_c, 1, 6144
1, 28625, Pitch_bend_c, 1, 6016
1, 28627, Pitch_bend_c, 1, 5888
1, 28628, Note_on_c, 1, 53, 0
1, 28628, Pitch_bend_c, 1, 5760
1, 28629, Pitch_bend_c, 1, 5632
1, 28630, Pitch_bend_c, 1, 5504
1, 28632, Pitch_bend_c, 1, 5376
1, 28633, Pitch_bend_c, 1, 5120
1, 28634, Pitch_bend_c, 1, 4992
1, 28635, Pitch_bend_c, 1, 4864
1, 28637, Pitch_bend_c, 1, 4736
1, 28639, Pitch_bend_c, 1, 4608
1, 28639, Note_on_c, 9, 59, 57
1, 28641, Pitch_bend_c, 1, 4480
1, 28643, Note_on_c, 9, 44, 37
1, 28650, Note_on_c, 9, 59, 0
1, 28650, Pitch_bend_c, 1, 4608
1, 28651, Pitch_bend_c, 1, 4864
1, 28652, Pitch_bend_c, 1, 5120
1, 28653, Pitch_bend_c, 1, 5632
1, 28655, Pitch_bend_c, 1, 6016
1, 28656, Pitch_bend_c, 1, 6656
1, 28657, Pitch_bend_c, 1, 7296
1, 28658, Pitch_bend_c, 1, 8192
1, 28659, Pitch_bend_c, 1, 8192
1, 28660, Note_on_c, 9, 44, 0
1, 28682, Note_on_c, 0, 49, 32
1, 28683, Note_on_c, 0, 58, 32
1, 28683, Note_on_c, 0, 61, 30
1, 28685, Note_on_c, 0, 55, 30
1, 28685, Note_on_c, 1, 52, 85
1, 28689, Note_on_c, 9, 44, 32
1, 28691, Note_on_c, 9, 59, 84
1, 28693, Note_on_c, 9, 46, 29
1, 28697, Note_on_c, 0, 55, 0
1, 28707, Note_on_c, 9, 44, 0
1, 28710, Note_on_c, 0, 58, 0
1, 28711, Note_on_c, 0, 49, 0
1, 28716, Note_on_c, 0, 61, 0
1, 28729, Note_on_c, 9, 46, 0
1, 28734, Pitch_bend_c, 1, 8192
1, 28736, Pitch_bend_c, 1, 8192
1, 28738, Pitch_bend_c, 1, 8192
1, 28740, Pitch_bend_c, 1, 7680
1, 28741, Pitch_bend_c, 1, 7552
1, 28743, Pitch_bend_c, 1, 7424
1, 28744, Pitch_bend_c, 1, 7168
1, 28745, Pitch_bend_c, 1, 7040
1, 28746, Note_on_c, 1, 52, 0
1, 28746, Pitch_bend_c, 1, 6912
1, 28748, Pitch_bend_c, 1, 6784
1, 28749, Pitch_bend_c, 1, 6656
1, 28750, Pitch_bend_c, 1, 6528
1, 28751, Pitch_bend_c, 1, 6400
1, 28752, Note_on_c, 9, 59, 0
1, 28752, Pitch_bend_c, 1, 6272
1, 28754, Pitch_bend_c, 1, 6144
1, 28755, Pitch_bend_c, 1, 6016
1, 28756, Pitch_bend_c, 1, 5888
1, 28757, Pitch_bend_c, 1, 5632
1, 28760, Pitch_bend_c, 1, 5504
1, 28762, Pitch_bend_c, 1, 5120
1, 28765, Pitch_bend_c, 1, 4992
1, 28765, Note_on_c, 9, 44, 40
1, 28768, Pitch_bend_c, 1, 4864
1, 28776, Pitch_bend_c, 1, 5376
1, 28778, Pitch_bend_c, 1, 5632
1, 28779, Pitch_bend_c, 1, 5888
1, 28780, Note_on_c, 9, 44, 0
1, 28780, Pitch_bend_c, 1, 6400
1, 28781, Pitch_bend_c, 1, 6784
1, 28783, Pitch_bend_c, 1, 7552
1, 28784, Pitch_bend_c, 1, 8192
1, 28803, Note_on_c, 1, 45, 79
1, 28875, Note_on_c, 9, 44, 31
1, 28885, Note_on_c, 9, 44, 0
1, 28889, Note_on_c, 0, 60, 49
1, 28889, Note_on_c, 0, 69, 46
1, 28891, Note_on_c, 0, 65, 42
1, 28893, Note_on_c, 0, 57, 39
1, 28909, Note_on_c, 0, 60, 0
1, 28911, Note_on_c, 0, 65, 0
1, 28915, Note_on_c, 0, 69, 0
1, 28920, Note_on_c, 9, 44, 42
1, 28923, Note_on_c, 9, 46, 28
1, 28924, Note_on_c, 0, 57, 0
1, 28954, Note_on_c, 9, 44, 0
1, 28974, Note_on_c, 9, 46, 0
1, 28982, Note_on_c, 0, 55, 37
1, 29005, Note_on_c, 9, 59, 60
1, 29005, Note_on_c, 9, 44, 31
1, 29016, Note_on_c, 9, 59, 0
1, 29020, Note_on_c, 9, 44, 0
1, 29040, Note_on_c, 0, 55, 0
1, 29052, Note_on_c, 9, 59, 71
1, 29062, Note_on_c, 0, 65, 51
1, 29062, Note_on_c, 0, 57, 37
1, 29066, Note_on_c, 0, 69, 35
1, 29066, Note_on_c, 0, 60, 39
1, 29081, Note_on_c, 0, 60, 0
1, 29087, Note_on_c, 0, 69, 0
1, 29088, Note_on_c, 0, 65, 0
1, 29106, Note_on_c, 0, 57, 0
1, 29108, Note_on_c, 9, 44, 33
1, 29109, Note_on_c, 9, 59, 0
1, 29129, Note_on_c, 9, 44, 0
1, 29132, Note_on_c, 9, 53, 73
1, 29139, Note_on_c, 0, 68, 51
1, 29142, Note_on_c, 0, 59, 46
1, 29142, Note_on_c, 0, 63, 43
1, 29150, Note_on_c, 0, 56, 28
1, 29150, Note_on_c, 0, 49, 31
1, 29155, Note_on_c, 9, 44, 36
1, 29158, Note_on_c, 9, 46, 33
1, 29163, Note_on_c, 9, 53, 0
1, 29176, Note_on_c, 9, 44, 0
1, 29180, Note_on_c, 9, 46, 0
1, 29182, Note_on_c, 9, 59, 54
1, 29209, Note_on_c, 9, 59, 0
1, 29236, Note_on_c, 0, 59, 0
1, 29258, Note_on_c, 0, 63, 0
1, 29259, Note_on_c, 0, 68, 0
1, 29262, Note_on_c, 0, 49, 0
1, 29275, Note_on_c, 0, 56, 0
1, 29287, Note_on_c, 0, 63, 33
1, 29288, Note_on_c, 0, 67, 39
1, 29290, Note_on_c, 0, 58, 37
1, 29292, Note_on_c, 0, 55, 31
1, 29294, Note_on_c, 0, 48, 25
1, 29295, Note_on_c, 1, 45, 0
1, 29437, Note_on_c, 1, 44, 73
1, 29461, Note_on_c, 1, 44, 0
1, 29469, Note_on_c, 0, 55, 0
1, 29473, Note_on_c, 1, 45, 84
1, 29485, Note_on_c, 0, 67, 0
1, 29488, Note_on_c, 0, 58, 0
1, 29495, Note_on_c, 0, 48, 0
1, 29498, Note_on_c, 1, 45, 0
1, 29517, Note_on_c, 1, 50, 92
1, 29525, Note_on_c, 0, 63, 0
1, 29556, Note_on_c, 9, 59, 58
1, 29576, Note_on_c, 9, 59, 0
1, 29593, Note_on_c, 0, 65, 43
1, 29595, Note_on_c, 0, 57, 46
1, 29596, Note_on_c, 0, 63, 31
1, 29596, Note_on_c, 0, 54, 39
1, 29597, Note_on_c, 0, 61, 26
1, 29597, Note_on_c, 9, 38, 25
1, 29599, Note_on_c, 9, 53, 49
1, 29605, Note_on_c, 0, 57, 0
1, 29608, Note_on_c, 9, 38, 0
1, 29609, Note_on_c, 0, 61, 0
1, 29611, Note_on_c, 0, 63, 0
1, 29611, Note_on_c, 0, 65, 0
1, 29613, Note_on_c, 1, 50, 0
1, 29620, Note_on_c, 0, 54, 0
1, 29622, Note_on_c, 9, 53, 0
1, 29629, Note_on_c, 1, 48, 89
1, 29647, Note_on_c, 9, 59, 58
1, 29666, Note_on_c, 9, 59, 0
1, 29693, Note_on_c, 9, 53, 30
1, 29702, Note_on_c, 9, 53, 0
1, 29707, Note_on_c, 1, 48, 0
1, 29708, Note_on_c, 1, 45, 90
1, 29711, Note_on_c, 9, 44, 21
1, 29718, Note_on_c, 9, 59, 83
1, 29719, Note_on_c, 9, 44, 0
1, 29754, Note_on_c, 0, 62, 37
1, 29756, Note_on_c, 0, 57, 34
1, 29759, Note_on_c, 0, 53, 23
1, 29760, Note_on_c, 0, 46, 24
1, 29761, Note_on_c, 1, 45, 0
1, 29765, Note_on_c, 9, 59, 0
1, 29772, Note_on_c, 1, 45, 76
1, 29818, Control_c, 0, 64, 127
1, 29839, Note_on_c, 9, 38, 18
1, 29849, Note_on_c, 9, 38, 0
1, 29853, Note_on_c, 0, 57, 0
1, 29869, Note_on_c, 0, 62, 0
1, 29881, Note_on_c, 9, 38, 35
1, 29889, Note_on_c, 0, 53, 0
1, 29916, Note_on_c, 9, 38, 0
1, 29958, Note_on_c, 9, 38, 49
1, 29964, Note_on_c, 9, 53, 48
1, 29966, Note_on_c, 9, 51, 33
1, 29980, Note_on_c, 9, 53, 0
1, 29985, Note_on_c, 9, 51, 0
1, 29986, Note_on_c, 9, 38, 0
1, 29992, Control_c, 0, 64, 0
1, 30001, Note_on_c, 0, 65, 80
1, 30001, Note_on_c, 0, 72, 66
1, 30006, Note_on_c, 0, 57, 47
1, 30017, Note_on_c, 9, 53, 34
1, 30017, Note_on_c, 9, 51, 31
1, 30023, Control_c, 0, 64, 127
1, 30037, Note_on_c, 9, 53, 0
1, 30047, Note_on_c, 9, 51, 0
1, 30048, Note_on_c, 0, 46, 0
1, 30088, Note_on_c, 0, 57, 0
1, 30093, Note_on_c, 1, 46, 83
1, 30103, Note_on_c, 1, 45, 0
1, 30104, Note_on_c, 0, 65, 0
1, 30114, Note_on_c, 0, 72, 0
1, 30164, Note_on_c, 1, 46, 0
1, 30165, Note_on_c, 1, 48, 88
1, 30198, Note_on_c, 9, 59, 51
1, 30212, Note_on_c, 9, 59, 0
1, 30226, Note_on_c, 1, 48, 0
1, 30237, Note_on_c, 1, 50, 90
1, 30245, Note_on_c, 0, 74, 63
1, 30246, Note_on_c, 0, 67, 72
1, 30247, Note_on_c, 9, 59, 79
1, 30250, Control_c, 0, 64, 0
1, 30251, Note_on_c, 0, 62, 49
1, 30251, Note_on_c, 0, 58, 40
1, 30252, Note_on_c, 0, 55, 46
1, 30303, Control_c, 0, 64, 127
1, 30314, Note_on_c, 9, 59, 0
1, 30362, Note_on_c, 0, 55, 0
1, 30365, Note_on_c, 0, 67, 0
1, 30369, Note_on_c, 9, 38, 30
1, 30375, Note_on_c, 0, 74, 0
1, 30378, Note_on_c, 0, 62, 0
1, 30402, Note_on_c, 9, 38, 0
1, 30406, Note_on_c, 0, 58, 0
1, 30442, Note_on_c, 9, 59, 46
1, 30451, Note_on_c, 9, 38, 46
1, 30452, Note_on_c, 9, 59, 0
1, 30452, Note_on_c, 9, 36, 45
1, 30482, Note_on_c, 9, 59, 67
1, 30488, Note_on_c, 9, 38, 0
1, 30492, Note_on_c, 0, 79, 56
1, 30495, Note_on_c, 9, 36, 0
1, 30495, Note_on_c, 0, 62, 52
1, 30496, Control_c, 0, 64, 0
1, 30497, Note_on_c, 0, 58, 42
1, 30497, Note_on_c, 0, 67, 54
1, 30497, Note_on_c, 0, 74, 58
1, 30498, Note_on_c, 0, 55, 49
1, 30534, Note_on_c, 9, 59, 0
1, 30555, Note_on_c, 1, 50, 0
1, 30560, Note_on_c, 1, 51, 91
1, 30608, Note_on_c, 0, 67, 0
1, 30616, Note_on_c, 0, 74, 0
1, 30617, Note_on_c, 0, 62, 0
1, 30619, Note_on_c, 0, 55, 0
1, 30621, Note_on_c, 0, 58, 0
1, 30621, Note_on_c, 0, 79, 0
1, 30634, Note_on_c, 1, 51, 0
1, 30642, Note_on_c, 1, 53, 80
1, 30680, Note_on_c, 9, 59, 60
1, 30692, Note_on_c, 9, 38, 56
1, 30694, Note_on_c, 9, 57, 61
1, 30696, Note_on_c, 9, 59, 0
1, 30707, Note_on_c, 1, 53, 0
1, 30709, Note_on_c, 9, 38, 0
1, 30714, Note_on_c, 9, 57, 0
1, 30720, Control_c, 0, 64, 127
1, 30720, Note_on_c, 9, 59, 58
1, 30720, Note_on_c, 9, 59, 0
1, 30721, Note_on_c, 9, 59, 68
1, 30726, Control_c, 0, 64, 0
1, 30726, Note_on_c, 0, 75, 72
1, 30727, Note_on_c, 0, 70, 71
1, 30728, Note_on_c, 0, 63, 52
1, 30729, Note_on_c, 0, 72, 69
1, 30730, Note_on_c, 0, 65, 70
1, 30730, Note_on_c, 0, 60, 53
1, 30730, Note_on_c, 9, 59, 66
1, 30734, Note_on_c, 0, 58, 37
1, 30735, Note_on_c, 1, 44, 58
1, 30741, Note_on_c, 9, 59, 0
1, 30750, Note_on_c, 9, 59, 0
1, 30786, Control_c, 0, 64, 127
1, 30925, Note_on_c, 9, 59, 83
1, 30934, Note_on_c, 9, 59, 0
1, 30969, Note_on_c, 1, 51, 87
1, 30984, Note_on_c, 1, 44, 0
1, 31091, Note_on_c, 0, 60, 0
1, 31096, Note_on_c, 9, 44, 56
1, 31097, Note_on_c, 0, 63, 0
1, 31100, Note_on_c, 0, 65, 0
1, 31104, Note_on_c, 0, 58, 0
1, 31113, Note_on_c, 9, 44, 0
1, 31149, Note_on_c, 0, 70, 0
1, 31151, Note_on_c, 0, 72, 0
1, 31174, Note_on_c, 1, 49, 51
1, 31180, Note_on_c, 9, 59, 58
1, 31185, Note_on_c, 1, 51, 0
1, 31191, Note_on_c, 9, 59, 0
1, 31199, Note_on_c, 1, 49, 0
1, 31207, Note_on_c, 0, 70, 42
1, 31214, Note_on_c, 1, 48, 63
1, 31216, Note_on_c, 0, 63, 18
1, 31217, Note_on_c, 0, 60, 36
1, 31218, Note_on_c, 0, 65, 29
1, 31219, Note_on_c, 9, 59, 67
1, 31221, Note_on_c, 0, 58, 25
1, 31222, Note_on_c, 0, 67, 19
1, 31242, Note_on_c, 9, 59, 0
1, 31302, Note_on_c, 0, 67, 0
1, 31304, Note_on_c, 0, 65, 0
1, 31308, Note_on_c, 0, 63, 0
1, 31308, Note_on_c, 0, 60, 0
1, 31326, Note_on_c, 0, 75, 0
1, 31329, Note_on_c, 0, 58, 0
1, 31332, Note_on_c, 0, 70, 0
1, 31343, Note_on_c, 9, 44, 33
1, 31350, Note_on_c, 9, 44, 0
1, 31402, Note_on_c, 1, 48, 0
1, 31406, Note_on_c, 1, 46, 67
1, 31436, Note_on_c, 1, 46, 0
1, 31458, Note_on_c, 1, 44, 48
1, 31531, Note_on_c, 0, 74, 94
1, 31532, Note_on_c, 0, 80, 84
1, 31532, Note_on_c, 0, 86, 88
1, 31532, Note_on_c, 9, 59, 77
1, 31533, Note_on_c, 0, 63, 69
1, 31536, Note_on_c, 0, 60, 68
1, 31536, Control_c, 0, 64, 0
1, 31537, Note_on_c, 0, 58, 55
1, 31546, Note_on_c, 9, 59, 0
1, 31571, Note_on_c, 0, 80, 0
1, 31571, Note_on_c, 0, 81, 53
1, 31573, Note_on_c, 9, 59, 99
1, 31576, Note_on_c, 1, 39, 51
1, 31582, Control_c, 0, 64, 127
1, 31586, Note_on_c, 0, 63, 0
1, 31588, Note_on_c, 0, 74, 0
1, 31589, Note_on_c, 0, 60, 0
1, 31591, Note_on_c, 0, 86, 0
1, 31593, Note_on_c, 0, 81, 0
1, 31594, Note_on_c, 0, 58, 0
1, 31605, Note_on_c, 1, 44, 0
1, 31606, Control_c, 0, 64, 0
1, 31614, Note_on_c, 9, 59, 0
1, 31617, Note_on_c, 0, 63, 61
1, 31619, Note_on_c, 0, 84, 71
1, 31623, Note_on_c, 0, 58, 40
1, 31623, Note_on_c, 0, 60, 49
1, 31623, Note_on_c, 0, 72, 71
1, 31638, Control_c, 0, 64, 127
1, 31649, Note_on_c, 0, 72, 0
1, 31649, Note_on_c, 9, 59, 108
1, 31656, Note_on_c, 0, 58, 0
1, 31658, Note_on_c, 0, 84, 0
1, 31661, Note_on_c, 0, 60, 0
1, 31666, Note_on_c, 0, 63, 0
1, 31696, Note_on_c, 1, 42, 76
1, 31697, Note_on_c, 1, 39, 0
1, 31706, Note_on_c, 0, 86, 60
1, 31706, Note_on_c, 0, 62, 49
1, 31708, Note_on_c, 0, 74, 55
1, 31710, Control_c, 0, 64, 0
1, 31711, Note_on_c, 0, 57, 50
1, 31711, Note_on_c, 0, 81, 53
1, 31712, Note_on_c, 0, 54, 35
1, 31772, Note_on_c, 9, 59, 0
1, 31776, Note_on_c, 9, 44, 42
1, 31785, Note_on_c, 9, 44, 0
1, 31797, Note_on_c, 1, 42, 0
1, 31811, Note_on_c, 1, 30, 71
1, 31828, Control_c, 0, 64, 127
1, 31891, Note_on_c, 9, 44, 38
1, 31898, Note_on_c, 9, 59, 63
1, 31901, Note_on_c, 9, 44, 0
1, 31908, Note_on_c, 9, 59, 0
1, 31938, Note_on_c, 9, 59, 69
1, 31956, Note_on_c, 0, 62, 0
1, 31957, Note_on_c, 0, 86, 0
1, 31959, Note_on_c, 0, 54, 0
1, 31964, Note_on_c, 0, 81, 0
1, 31992, Note_on_c, 0, 57, 0
1, 31998, Note_on_c, 0, 74, 0
1, 32038, Control_c, 0, 64, 0
1, 32038, Note_on_c, 0, 84, 37
1, 32038, Note_on_c, 0, 54, 43
1, 32039, Note_on_c, 0, 72, 45
1, 32040, Note_on_c, 0, 62, 39
1, 32042, Note_on_c, 0, 79, 44
1, 32045, Note_on_c, 0, 57, 28
1, 32047, Control_c, 0, 64, 127
1, 32064, Note_on_c, 0, 57, 0
1, 32066, Note_on_c, 0, 62, 0
1, 32067, Note_on_c, 0, 72, 0
1, 32071, Note_on_c, 0, 79, 0
1, 32081, Note_on_c, 0, 84, 0
1, 32090, Note_on_c, 9, 59, 0
1, 32093, Note_on_c, 0, 54, 0
1, 32124, Note_on_c, 0, 86, 56
1, 32125, Note_on_c, 0, 74, 53
1, 32127, Control_c, 0, 64, 0
1, 32130, Note_on_c, 0, 62, 42
1, 32130, Note_on_c, 0, 53, 38
1, 32131, Note_on_c, 0, 79, 42
1, 32131, Note_on_c, 0, 58, 40
1, 32153, Note_on_c, 1, 30, 0
1, 32164, Note_on_c, 9, 59, 82
1, 32171, Note_on_c, 1, 31, 66
1, 32180, Note_on_c, 9, 59, 0
1, 32204, Control_c, 0, 64, 127
1, 32262, Control_c, 0, 64, 0
1, 32287, Note_on_c, 9, 59, 108
1, 32288, Note_on_c, 1, 45, 99
1, 32291, Note_on_c, 1, 31, 0
1, 32293, Control_c, 0, 64, 127
1, 32345, Note_on_c, 9, 59, 0
1, 32367, Note_on_c, 1, 31, 49
1, 32375, Note_on_c, 1, 45, 0
1, 32379, Note_on_c, 0, 53, 0
1, 32380, Note_on_c, 0, 62, 0
1, 32386, Note_on_c, 0, 58, 0
1, 32396, Note_on_c, 1, 31, 0
1, 32404, Note_on_c, 0, 86, 0
1, 32414, Note_on_c, 1, 43, 62
1, 32418, Note_on_c, 9, 59, 46
1, 32422, Note_on_c, 0, 74, 0
1, 32429, Note_on_c, 9, 59, 0
1, 32466, Note_on_c, 0, 79, 0
1, 32491, Note_on_c, 9, 59, 62
1, 32501, Note_on_c, 9, 59, 0
1, 32534, Note_on_c, 9, 59, 92
1, 32577, Control_c, 0, 64, 0
1, 32601, Note_on_c, 0, 58, 78
1, 32602, Note_on_c, 0, 84, 85
1, 32602, Note_on_c, 0, 78, 78
1, 32603, Note_on_c, 0, 72, 90
1, 32603, Note_on_c, 0, 53, 79
1, 32603, Note_on_c, 0, 62, 85
1, 32613, Control_c, 0, 64, 127
1, 32618, Note_on_c, 0, 62, 0
1, 32620, Note_on_c, 1, 41, 80
1, 32622, Note_on_c, 1, 43, 0
1, 32625, Note_on_c, 9, 59, 0
1, 32626, Note_on_c, 0, 53, 0
1, 32629, Note_on_c, 0, 78, 0
1, 32631, Note_on_c, 0, 79, 34
1, 32633, Note_on_c, 0, 72, 0
1, 32639, Note_on_c, 0, 58, 0
1, 32641, Note_on_c, 0, 79, 0
1, 32644, Note_on_c, 0, 84, 0
1, 32661, Control_c, 0, 64, 0
1, 32675, Note_on_c, 0, 86, 80
1, 32676, Note_on_c, 0, 74, 81
1, 32677, Note_on_c, 0, 53, 64
1, 32679, Note_on_c, 0, 82, 62
1, 32679, Note_on_c, 0, 63, 68
1, 32681, Note_on_c, 0, 80, 51
1, 32682, Note_on_c, 0, 60, 68
1, 32682, Note_on_c, 0, 56, 49
1, 32689, Note_on_c, 0, 80, 0
1, 32700, Control_c, 0, 64, 127
1, 32722, Note_on_c, 0, 86, 0
1, 32726, Note_on_c, 0, 53, 0
1, 32727, Note_on_c, 0, 63, 0
1, 32730, Note_on_c, 0, 74, 0
1, 32731, Note_on_c, 9, 59, 51
1, 32733, Note_on_c, 0, 56, 0
1, 32736, Note_on_c, 0, 60, 0
1, 32737, Note_on_c, 0, 82, 0
1, 32747, Note_on_c, 9, 59, 0
1, 32753, Control_c, 0, 64, 0
1, 32775, Note_on_c, 0, 63, 51
1, 32775, Note_on_c, 9, 59, 84
1, 32777, Note_on_c, 0, 84, 60
1, 32777, Note_on_c, 0, 72, 68
1, 32778, Note_on_c, 0, 80, 56
1, 32784, Note_on_c, 0, 56, 26
1, 32786, Control_c, 0, 64, 127
1, 32789, Note_on_c, 0, 84, 0
1, 32793, Note_on_c, 0, 63, 0
1, 32793, Note_on_c, 0, 80, 0
1, 32794, Note_on_c, 0, 72, 0
1, 32794, Note_on_c, 0, 56, 0
1, 32813, Control_c, 0, 64, 0
1, 32849, Note_on_c, 9, 59, 0
1, 32858, Note_on_c, 0, 67, 42
1, 32858, Note_on_c, 0, 82, 55
1, 32859, Note_on_c, 0, 70, 46
1, 32859, Note_on_c, 0, 56, 31
1, 32860, Note_on_c, 0, 62, 40
1, 32862, Note_on_c, 0, 60, 36
1, 32862, Note_on_c, 0, 77, 50
1, 32895, Control_c, 0, 64, 127
1, 32901, Note_on_c, 1, 34, 79
1, 32915, Note_on_c, 1, 41, 0
1, 32980, Note_on_c, 9, 59, 68
1, 32997, Note_on_c, 9, 59, 0
1, 33027, Note_on_c, 0, 67, 0
1, 33030, Note_on_c, 0, 70, 0
1, 33037, Note_on_c, 0, 62, 0
1, 33040, Note_on_c, 0, 60, 0
1, 33041, Note_on_c, 0, 77, 0
1, 33058, Note_on_c, 0, 56, 0
1, 33058, Note_on_c, 0, 82, 0
1, 33099, Note_on_c, 1, 36, 54
1, 33118, Note_on_c, 0, 55, 58
1, 33125, Note_on_c, 0, 60, 53
1, 33128, Note_on_c, 1, 36, 0
1, 33129, Note_on_c, 0, 58, 33
1, 33134, Note_on_c, 1, 43, 108
1, 33135, Control_c, 0, 64, 0
1, 33136, Note_on_c, 0, 62, 51
1, 33138, Note_on_c, 0, 74, 88
1, 33139, Note_on_c, 0, 78, 80
1, 33139, Note_on_c, 0, 84, 88
1, 33142, Note_on_c, 0, 65, 80
1, 33145, Note_on_c, 1, 34, 0
1, 33158, Note_on_c, 0, 79, 53
1, 33159, Note_on_c, 0, 78, 0
1, 33183, Control_c, 0, 64, 127
1, 33250, Note_on_c, 9, 53, 47
1, 33253, Note_on_c, 9, 59, 80
1, 33262, Note_on_c, 9, 53, 0
1, 33281, Note_on_c, 9, 59, 0
1, 33297, Note_on_c, 0, 84, 0
1, 33298, Note_on_c, 0, 65, 0
1, 33305, Note_on_c, 0, 74, 0
1, 33306, Note_on_c, 0, 62, 0
1, 33315, Note_on_c, 0, 60, 0
1, 33322, Note_on_c, 0, 79, 0
1, 33337, Note_on_c, 1, 39, 37
1, 33345, Note_on_c, 1, 43, 0
1, 33351, Note_on_c, 1, 39, 0
1, 33360, Note_on_c, 9, 53, 60
1, 33373, Note_on_c, 9, 59, 71
1, 33375, Note_on_c, 1, 42, 91
1, 33383, Note_on_c, 9, 53, 0
1, 33395, Note_on_c, 0, 55, 0
1, 33395, Note_on_c, 0, 58, 0
1, 33410, Note_on_c, 0, 82, 68
1, 33433, Note_on_c, 0, 82, 0
1, 33434, Note_on_c, 9, 59, 0
1, 33451, Note_on_c, 0, 84, 70
1, 33471, Note_on_c, 0, 84, 0
1, 33481, Note_on_c, 9, 53, 66
1, 33493, Note_on_c, 9, 59, 71
1, 33494, Control_c, 0, 64, 0
1, 33495, Note_on_c, 0, 78, 74
1, 33495, Note_on_c, 0, 54, 64
1, 33496, Note_on_c, 0, 74, 80
1, 33496, Note_on_c, 0, 86, 82
1, 33498, Note_on_c, 9, 53, 0
1, 33498, Note_on_c, 0, 64, 50
1, 33499, Note_on_c, 0, 60, 51
1, 33501, Note_on_c, 0, 62, 53
1, 33506, Note_on_c, 0, 85, 33
1, 33514, Note_on_c, 0, 85, 0
1, 33520, Note_on_c, 0, 64, 0
1, 33532, Control_c, 0, 64, 127
1, 33575, Note_on_c, 0, 86, 0
1, 33577, Note_on_c, 9, 59, 0
1, 33580, Note_on_c, 0, 74, 0
1, 33597, Note_on_c, 0, 84, 54
1, 33601, Note_on_c, 1, 42, 0
1, 33605, Note_on_c, 0, 60, 0
1, 33613, Note_on_c, 0, 78, 0
1, 33615, Note_on_c, 1, 41, 72
1, 33616, Note_on_c, 0, 62, 0
1, 33619, Note_on_c, 0, 84, 0
1, 33626, Note_on_c, 0, 54, 0
1, 33631, Note_on_c, 0, 82, 63
1, 33662, Note_on_c, 0, 82, 0
1, 33670, Control_c, 0, 64, 0
1, 33693, Note_on_c, 0, 84, 79
1, 33698, Note_on_c, 0, 62, 58
1, 33700, Note_on_c, 0, 58, 43
1, 33704, Note_on_c, 0, 55, 43
1, 33706, Note_on_c, 0, 53, 43
1, 33711, Note_on_c, 9, 59, 48
1, 33720, Note_on_c, 9, 59, 0
1, 33758, Note_on_c, 9, 59, 71
1, 33775, Note_on_c, 9, 59, 0
1, 33792, Note_on_c, 0, 81, 73
1, 33797, Note_on_c, 0, 83, 58
1, 33801, Note_on_c, 0, 84, 0
1, 33813, Note_on_c, 0, 83, 0
1, 33828, Note_on_c, 9, 59, 85
1, 33838, Control_c, 0, 64, 127
1, 33848, Note_on_c, 9, 59, 0
1, 33850, Note_on_c, 0, 81, 0
1, 33869, Note_on_c, 0, 79, 66
1, 33940, Note_on_c, 1, 36, 47
1, 33951, Note_on_c, 1, 36, 0
1, 33954, Note_on_c, 1, 41, 0
1, 33981, Note_on_c, 1, 39, 58
1, 34027, Note_on_c, 9, 38, 40
1, 34035, Note_on_c, 9, 38, 0
1, 34036, Note_on_c, 0, 79, 0
1, 34044, Note_on_c, 0, 62, 0
1, 34046, Note_on_c, 0, 55, 0
1, 34048, Note_on_c, 0, 53, 0
1, 34049, Note_on_c, 9, 59, 51
1, 34050, Note_on_c, 0, 86, 68
1, 34055, Note_on_c, 9, 38, 46
1, 34058, Note_on_c, 0, 79, 24
1, 34059, Note_on_c, 9, 59, 0
1, 34067, Note_on_c, 9, 38, 0
1, 34070, Note_on_c, 0, 58, 0
1, 34070, Note_on_c, 0, 79, 0
1, 34072, Note_on_c, 1, 39, 0
1, 34089, Note_on_c, 9, 36, 35
1, 34090, Note_on_c, 0, 86, 0
1, 34091, Note_on_c, 1, 40, 66
1, 34092, Note_on_c, 9, 59, 58
1, 34102, Note_on_c, 9, 59, 0
1, 34115, Control_c, 0, 64, 0
1, 34118, Note_on_c, 9, 36, 0
1, 34157, Note_on_c, 0, 84, 68
1, 34167, Note_on_c, 0, 60, 44
1, 34170, Note_on_c, 9, 36, 43
1, 34172, Note_on_c, 9, 59, 37
1, 34173, Note_on_c, 0, 52, 26
1, 34182, Note_on_c, 9, 59, 0
1, 34185, Note_on_c, 9, 36, 0
1, 34211, Control_c, 0, 64, 127
1, 34211, Note_on_c, 9, 59, 36
1, 34221, Note_on_c, 9, 59, 0
1, 34256, Note_on_c, 0, 84, 0
1, 34284, Note_on_c, 9, 59, 66
1, 34291, Note_on_c, 0, 60, 0
1, 34293, Note_on_c, 9, 59, 0
1, 34293, Note_on_c, 1, 52, 68
1, 34320, Note_on_c, 1, 40, 0
1, 34323, Note_on_c, 1, 52, 0
1, 34326, Note_on_c, 0, 79, 34
1, 34329, Control_c, 0, 64, 0
1, 34330, Note_on_c, 0, 67, 36
1, 34332, Note_on_c, 0, 60, 38
1, 34349, Note_on_c, 1, 48, 35
1, 34363, Control_c, 0, 64, 127
1, 34368, Note_on_c, 9, 59, 45
1, 34379, Note_on_c, 9, 59, 0
1, 34383, Note_on_c, 0, 79, 0
1, 34399, Note_on_c, 9, 59, 60
1, 34409, Note_on_c, 0, 67, 0
1, 34419, Note_on_c, 9, 59, 0
1, 34445, Note_on_c, 9, 59, 77
1, 34458, Note_on_c, 1, 45, 57
1, 34464, Note_on_c, 1, 48, 0
1, 34489, Note_on_c, 1, 45, 0
1, 34499, Note_on_c, 0, 52, 0
1, 34500, Note_on_c, 0, 60, 0
1, 34513, Note_on_c, 9, 59, 0
1, 34525, Note_on_c, 9, 36, 42
1, 34527, Note_on_c, 1, 40, 51
1, 34538, Note_on_c, 0, 79, 77
1, 34550, Note_on_c, 1, 40, 0
1, 34550, Note_on_c, 9, 36, 0
1, 34569, Note_on_c, 0, 79, 0
1, 34571, Note_on_c, 9, 36, 34
1, 34574, Note_on_c, 1, 41, 54
1, 34590, Note_on_c, 9, 36, 0
1, 34591, Control_c, 0, 64, 0
1, 34595, Note_on_c, 0, 79, 40
1, 34600, Note_on_c, 0, 53, 19
1, 34601, Note_on_c, 0, 60, 31
1, 34601, Note_on_c, 0, 64, 33
1, 34602, Note_on_c, 0, 72, 43
1, 34602, Note_on_c, 0, 69, 34
1, 34605, Note_on_c, 0, 57, 31
1, 34654, Control_c, 0, 64, 127
1, 34654, Note_on_c, 9, 59, 35
1, 34665, Note_on_c, 9, 59, 0
1, 34734, Note_on_c, 0, 64, 0
1, 34738, Note_on_c, 0, 79, 0
1, 34740, Note_on_c, 0, 69, 0
1, 34753, Note_on_c, 0, 72, 0
1, 34760, Note_on_c, 0, 60, 0
1, 34800, Note_on_c, 1, 41, 0
1, 34809, Note_on_c, 1, 36, 57
1, 34811, Note_on_c, 0, 77, 88
1, 34812, Note_on_c, 0, 69, 96
1, 34869, Note_on_c, 0, 77, 0
1, 34870, Note_on_c, 9, 59, 60
1, 34878, Note_on_c, 0, 69, 0
1, 34881, Note_on_c, 9, 59, 0
1, 34899, Control_c, 0, 64, 0
1, 34900, Note_on_c, 0, 76, 76
1, 34900, Note_on_c, 9, 59, 71
1, 34905, Note_on_c, 0, 67, 75
1, 34915, Note_on_c, 9, 59, 0
1, 34924, Control_c, 0, 64, 127
1, 34928, Note_on_c, 0, 57, 0
1, 34937, Note_on_c, 0, 76, 0
1, 34938, Note_on_c, 9, 59, 70
1, 34943, Note_on_c, 0, 67, 0
1, 34951, Note_on_c, 0, 53, 0
1, 34955, Note_on_c, 9, 59, 0
1, 34978, Note_on_c, 0, 74, 68
1, 34983, Note_on_c, 0, 65, 56
1, 35004, Note_on_c, 0, 65, 0
1, 35007, Note_on_c, 0, 74, 0
1, 35013, Note_on_c, 9, 59, 76
1, 35020, Note_on_c, 1, 30, 74
1, 35022, Note_on_c, 9, 59, 0
1, 35026, Note_on_c, 1, 36, 0
1, 35053, Note_on_c, 0, 72, 60
1, 35055, Note_on_c, 0, 64, 56
1, 35056, Control_c, 0, 64, 0
1, 35058, Note_on_c, 0, 69, 60
1, 35059, Note_on_c, 0, 54, 39
1, 35061, Note_on_c, 0, 60, 33
1, 35070, Note_on_c, 9, 59, 70
1, 35089, Note_on_c, 9, 59, 0
1, 35104, Control_c, 0, 64, 127
1, 35123, Control_c, 0, 64, 0
1, 35129, Note_on_c, 9, 44, 42
1, 35139, Note_on_c, 9, 44, 0
1, 35148, Note_on_c, 1, 45, 95
1, 35154, Control_c, 0, 64, 127
1, 35165, Note_on_c, 9, 59, 71
1, 35190, Note_on_c, 9, 59, 0
1, 35228, Note_on_c, 0, 64, 0
1, 35244, Note_on_c, 9, 44, 44
1, 35254, Note_on_c, 9, 44, 0
1, 35261, Note_on_c, 0, 72, 0
1, 35263, Note_on_c, 0, 69, 0
1, 35270, Note_on_c, 0, 60, 0
1, 35290, Note_on_c, 0, 54, 0
1, 35343, Note_on_c, 1, 30, 0
1, 35358, Note_on_c, 0, 71, 90
1, 35359, Note_on_c, 0, 67, 90
1, 35362, Control_c, 0, 64, 0
1, 35363, Note_on_c, 0, 54, 52
1, 35363, Note_on_c, 0, 64, 64
1, 35364, Note_on_c, 9, 44, 37
1, 35366, Note_on_c, 0, 60, 50
1, 35366, Note_on_c, 1, 33, 46
1, 35366, Note_on_c, 9, 59, 57
1, 35372, Note_on_c, 9, 44, 0
1, 35375, Note_on_c, 9, 59, 0
1, 35393, Note_on_c, 1, 33, 0
1, 35393, Control_c, 0, 64, 127
1, 35400, Note_on_c, 1, 45, 0
1, 35404, Note_on_c, 9, 59, 61
1, 35405, Note_on_c, 0, 64, 0
1, 35409, Note_on_c, 0, 67, 0
1, 35410, Note_on_c, 1, 34, 64
1, 35414, Note_on_c, 9, 59, 0
1, 35415, Note_on_c, 0, 60, 0
1, 35419, Note_on_c, 0, 71, 0
1, 35424, Note_on_c, 0, 54, 0
1, 35438, Note_on_c, 0, 72, 84
1, 35440, Note_on_c, 0, 69, 84
1, 35460, Note_on_c, 0, 69, 0
1, 35466, Note_on_c, 0, 72, 0
1, 35472, Note_on_c, 1, 34, 0
1, 35477, Note_on_c, 9, 44, 48
1, 35480, Note_on_c, 9, 59, 80
1, 35487, Note_on_c, 9, 44, 0
1, 35487, Note_on_c, 1, 35, 88
1, 35490, Note_on_c, 9, 59, 0
1, 35530, Control_c, 0, 64, 0
1, 35531, Note_on_c, 0, 63, 62
1, 35531, Note_on_c, 0, 71, 60
1, 35533, Note_on_c, 0, 66, 60
1, 35536, Note_on_c, 0, 57, 50
1, 35537, Note_on_c, 0, 59, 47
1, 35537, Note_on_c, 0, 47, 53
1, 35540, Note_on_c, 9, 59, 85
1, 35544, Note_on_c, 0, 63, 0
1, 35551, Note_on_c, 0, 64, 25
1, 35559, Note_on_c, 0, 64, 0
1, 35583, Control_c, 0, 64, 127
1, 35600, Note_on_c, 0, 59, 0
1, 35603, Note_on_c, 9, 44, 37
1, 35606, Note_on_c, 0, 66, 0
1, 35611, Note_on_c, 9, 44, 0
1, 35616, Note_on_c, 0, 66, 23
1, 35617, Control_c, 0, 64, 0
1, 35621, Note_on_c, 0, 64, 41
1, 35621, Note_on_c, 0, 51, 46
1, 35622, Note_on_c, 0, 71, 0
1, 35624, Note_on_c, 0, 59, 36
1, 35634, Note_on_c, 0, 59, 0
1, 35636, Note_on_c, 0, 64, 0
1, 35639, Note_on_c, 0, 57, 0
1, 35642, Note_on_c, 0, 47, 0
1, 35643, Note_on_c, 0, 66, 0
1, 35643, Control_c, 0, 64, 127
1, 35649, Note_on_c, 0, 51, 0
1, 35683, Note_on_c, 0, 75, 39
1, 35703, Note_on_c, 0, 75, 0
1, 35709, Note_on_c, 9, 59, 0
1, 35718, Note_on_c, 9, 44, 39
1, 35719, Note_on_c, 9, 46, 40
1, 35724, Note_on_c, 0, 79, 77
1, 35726, Note_on_c, 9, 46, 0
1, 35726, Note_on_c, 0, 71, 62
1, 35726, Note_on_c, 0, 67, 73
1, 35727, Note_on_c, 9, 44, 0
1, 35727, Note_on_c, 0, 51, 43
1, 35727, Note_on_c, 9, 59, 60
1, 35728, Note_on_c, 0, 62, 62
1, 35728, Note_on_c, 0, 74, 58
1, 35730, Note_on_c, 0, 77, 45
1, 35732, Control_c, 0, 64, 0
1, 35732, Note_on_c, 0, 57, 58
1, 35735, Note_on_c, 0, 69, 35
1, 35740, Note_on_c, 9, 59, 0
1, 35742, Note_on_c, 0, 69, 0
1, 35766, Note_on_c, 1, 51, 92
1, 35780, Control_c, 0, 64, 127
1, 35794, Note_on_c, 1, 35, 0
1, 35795, Note_on_c, 0, 79, 0
1, 35803, Note_on_c, 0, 77, 0
1, 35816, Note_on_c, 0, 67, 0
1, 35816, Note_on_c, 0, 62, 0
1, 35817, Note_on_c, 9, 59, 61
1, 35826, Note_on_c, 9, 59, 0
1, 35826, Note_on_c, 0, 57, 0
1, 35831, Note_on_c, 0, 71, 0
1, 35831, Note_on_c, 0, 74, 0
1, 35843, Note_on_c, 0, 78, 77
1, 35850, Note_on_c, 0, 71, 46
1, 35852, Note_on_c, 0, 57, 55
1, 35853, Note_on_c, 0, 62, 42
1, 35855, Control_c, 0, 64, 0
1, 35858, Note_on_c, 0, 67, 19
1, 35874, Note_on_c, 0, 71, 0
1, 35881, Control_c, 0, 64, 127
1, 35896, Note_on_c, 9, 59, 83
1, 35898, Note_on_c, 0, 62, 0
1, 35904, Note_on_c, 0, 67, 0
1, 35906, Note_on_c, 0, 78, 0
1, 35910, Note_on_c, 9, 59, 0
1, 35928, Note_on_c, 0, 71, 44
1, 35955, Note_on_c, 0, 71, 0
1, 35961, Note_on_c, 0, 57, 0
1, 35963, Note_on_c, 1, 35, 58
1, 35967, Note_on_c, 0, 76, 81
1, 35970, Note_on_c, 0, 62, 12
1, 35971, Note_on_c, 1, 51, 0
1, 35972, Note_on_c, 9, 59, 87
1, 35979, Note_on_c, 0, 51, 0
1, 35988, Note_on_c, 0, 62, 0
1, 35993, Note_on_c, 9, 59, 0
1, 35993, Note_on_c, 1, 35, 0
1, 36001, Note_on_c, 0, 76, 0
1, 36008, Note_on_c, 1, 52, 81
1, 36011, Control_c, 0, 64, 0
1, 36014, Note_on_c, 0, 74, 62
1, 36019, Note_on_c, 9, 59, 53
1, 36022, Note_on_c, 0, 59, 35
1, 36023, Note_on_c, 0, 62, 22
1, 36023, Note_on_c, 0, 55, 43
1, 36025, Note_on_c, 0, 52, 27
1, 36064, Note_on_c, 9, 59, 0
1, 36083, Note_on_c, 0, 67, 56
1, 36084, Note_on_c, 0, 71, 55
1, 36101, Note_on_c, 0, 67, 0
1, 36104, Note_on_c, 0, 74, 0
1, 36120, Note_on_c, 0, 71, 0
1, 36122, Note_on_c, 0, 62, 0
1, 36129, Note_on_c, 0, 59, 0
1, 36150, Note_on_c, 0, 67, 35
1, 36158, Note_on_c, 0, 59, 24
1, 36163, Note_on_c, 0, 64, 25
1, 36171, Note_on_c, 0, 64, 0
1, 36187, Control_c, 0, 64, 127
1, 36192, Note_on_c, 0, 67, 0
1, 36195, Note_on_c, 0, 59, 0
1, 36206, Note_on_c, 1, 47, 52
1, 36217, Note_on_c, 1, 52, 0
1, 36228, Control_c, 0, 64, 0
1, 36237, Note_on_c, 1, 47, 0
1, 36253, Note_on_c, 0, 66, 42
1, 36255, Note_on_c, 0, 59, 18
1, 36257, Note_on_c, 1, 43, 48
1, 36258, Note_on_c, 0, 62, 29
1, 36271, Control_c, 0, 64, 127
1, 36286, Note_on_c, 9, 59, 71
1, 36296, Note_on_c, 9, 53, 50
1, 36305, Note_on_c, 9, 53, 0
1, 36306, Note_on_c, 0, 62, 0
1, 36310, Note_on_c, 9, 59, 0
1, 36327, Note_on_c, 0, 62, 38
1, 36329, Note_on_c, 0, 67, 44
1, 36336, Control_c, 0, 64, 0
1, 36340, Note_on_c, 0, 66, 0
1, 36346, Note_on_c, 1, 43, 0
1, 36346, Note_on_c, 0, 62, 0
1, 36350, Note_on_c, 0, 67, 0
1, 36354, Note_on_c, 0, 55, 0
1, 36357, Note_on_c, 0, 59, 0
1, 36362, Note_on_c, 1, 46, 78
1, 36369, Note_on_c, 0, 52, 0
1, 36381, Note_on_c, 0, 64, 27
1, 36389, Note_on_c, 9, 59, 68
1, 36393, Note_on_c, 0, 64, 0
1, 36405, Note_on_c, 9, 59, 0
1, 36411, Control_c, 0, 64, 127
1, 36444, Control_c, 0, 64, 0
1, 36461, Note_on_c, 9, 59, 79
1, 36465, Note_on_c, 9, 53, 53
1, 36475, Note_on_c, 9, 53, 0
1, 36486, Control_c, 0, 64, 127
1, 36490, Note_on_c, 9, 59, 0
1, 36536, Note_on_c, 9, 59, 70
1, 36543, Note_on_c, 1, 46, 0
1, 36549, Note_on_c, 1, 45, 71
1, 36555, Note_on_c, 0, 78, 71
1, 36557, Note_on_c, 0, 75, 71
1, 36558, Note_on_c, 9, 59, 0
1, 36558, Note_on_c, 0, 71, 71
1, 36558, Control_c, 0, 64, 0
1, 36560, Note_on_c, 0, 64, 65
1, 36560, Note_on_c, 0, 55, 60
1, 36560, Note_on_c, 0, 60, 64
1, 36561, Note_on_c, 0, 83, 68
1, 36561, Note_on_c, 0, 59, 54
1, 36562, Note_on_c, 1, 45, 0
1, 36565, Note_on_c, 0, 75, 0
1, 36571, Note_on_c, 0, 64, 0
1, 36579, Note_on_c, 0, 81, 18
1, 36585, Note_on_c, 0, 55, 0
1, 36587, Note_on_c, 0, 59, 0
1, 36588, Note_on_c, 0, 71, 0
1, 36588, Note_on_c, 0, 60, 0
1, 36590, Note_on_c, 0, 81, 0
1, 36594, Note_on_c, 0, 78, 0
1, 36596, Note_on_c, 0, 83, 0
1, 36598, Note_on_c, 1, 40, 68
1, 36610, Note_on_c, 9, 53, 61
1, 36614, Note_on_c, 1, 40, 0
1, 36615, Note_on_c, 9, 59, 74
1, 36619, Note_on_c, 9, 53, 0
1, 36630, Note_on_c, 0, 69, 71
1, 36631, Note_on_c, 0, 81, 64
1, 36633, Control_c, 0, 64, 127
1, 36634, Note_on_c, 0, 64, 50
1, 36635, Note_on_c, 0, 55, 54
1, 36635, Note_on_c, 0, 60, 45
1, 36638, Note_on_c, 1, 37, 71
1, 36639, Note_on_c, 0, 69, 0
1, 36640, Note_on_c, 0, 59, 27
1, 36644, Note_on_c, 0, 64, 0
1, 36648, Note_on_c, 9, 59, 0
1, 36648, Note_on_c, 0, 60, 0
1, 36649, Note_on_c, 0, 59, 0
1, 36652, Note_on_c, 0, 81, 0
1, 36662, Note_on_c, 0, 55, 0
1, 36687, Note_on_c, 9, 59, 68
1, 36705, Control_c, 0, 64, 0
1, 36707, Note_on_c, 9, 59, 0
1, 36732, Note_on_c, 1, 37, 0
1, 36734, Control_c, 0, 64, 127
1, 36740, Note_on_c, 1, 38, 70
1, 36759, Note_on_c, 9, 53, 69
1, 36762, Note_on_c, 9, 59, 75
1, 36772, Note_on_c, 9, 53, 0
1, 36793, Note_on_c, 0, 88, 77
1, 36794, Note_on_c, 0, 76, 67
1, 36794, Control_c, 0, 64, 0
1, 36795, Note_on_c, 0, 54, 56
1, 36795, Note_on_c, 0, 64, 68
1, 36797, Note_on_c, 0, 81, 58
1, 36797, Note_on_c, 0, 84, 48
1, 36797, Note_on_c, 0, 60, 51
1, 36802, Note_on_c, 0, 86, 32
1, 36806, Note_on_c, 0, 84, 0
1, 36806, Note_on_c, 0, 81, 0
1, 36807, Note_on_c, 0, 64, 0
1, 36807, Note_on_c, 9, 59, 0
1, 36808, Note_on_c, 0, 60, 0
1, 36811, Note_on_c, 0, 76, 0
1, 36811, Note_on_c, 0, 86, 0
1, 36814, Note_on_c, 0, 88, 0
1, 36817, Note_on_c, 0, 54, 0
1, 36837, Control_c, 0, 64, 127
1, 36845, Note_on_c, 9, 59, 73
1, 36869, Control_c, 0, 64, 0
1, 36881, Note_on_c, 9, 59, 0
1, 36884, Note_on_c, 0, 64, 63
1, 36885, Note_on_c, 0, 86, 68
1, 36885, Note_on_c, 0, 74, 74
1, 36885, Note_on_c, 0, 60, 54
1, 36888, Note_on_c, 0, 54, 32
1, 36892, Note_on_c, 0, 64, 0
1, 36895, Note_on_c, 0, 84, 26
1, 36898, Note_on_c, 0, 60, 0
1, 36900, Note_on_c, 0, 54, 0
1, 36900, Control_c, 0, 64, 127
1, 36901, Note_on_c, 0, 74, 0
1, 36901, Note_on_c, 0, 86, 0
1, 36903, Note_on_c, 0, 84, 0
1, 36921, Note_on_c, 9, 59, 76
1, 36923, Note_on_c, 0, 84, 57
1, 36926, Note_on_c, 1, 33, 46
1, 36928, Note_on_c, 0, 72, 60
1, 36931, Note_on_c, 0, 54, 34
1, 36936, Note_on_c, 0, 72, 0
1, 36943, Note_on_c, 1, 33, 0
1, 36943, Note_on_c, 0, 84, 0
1, 36943, Note_on_c, 9, 59, 0
1, 36945, Note_on_c, 1, 38, 0
1, 36950, Note_on_c, 0, 54, 0
1, 36967, Control_c, 0, 64, 0
1, 36970, Note_on_c, 1, 31, 67
1, 36972, Note_on_c, 9, 59, 66
1, 36974, Note_on_c, 0, 83, 69
1, 36974, Note_on_c, 0, 62, 53
1, 36977, Note_on_c, 0, 71, 53
1, 36978, Note_on_c, 0, 59, 47
1, 36979, Note_on_c, 0, 78, 37
1, 36980, Note_on_c, 0, 54, 26
1, 37023, Control_c, 0, 64, 127
1, 37038, Note_on_c, 9, 59, 0
1, 37116, Note_on_c, 0, 62, 0
1, 37125, Note_on_c, 0, 59, 0
1, 37125, Note_on_c, 0, 78, 0
1, 37164, Note_on_c, 9, 59, 54
1, 37172, Note_on_c, 0, 71, 0
1, 37174, Note_on_c, 0, 54, 0
1, 37175, Note_on_c, 9, 59, 0
1, 37179, Note_on_c, 1, 38, 48
1, 37190, Note_on_c, 1, 38, 0
1, 37197, Note_on_c, 1, 31, 0
1, 37197, Note_on_c, 0, 62, 42
1, 37199, Note_on_c, 0, 83, 0
1, 37200, Note_on_c, 0, 59, 44
1, 37201, Note_on_c, 0, 54, 30
1, 37207, Note_on_c, 9, 59, 67
1, 37208, Note_on_c, 1, 47, 74
1, 37237, Note_on_c, 0, 62, 0
1, 37246, Note_on_c, 0, 59, 0
1, 37249, Note_on_c, 0, 54, 0
1, 37290, Note_on_c, 1, 38, 31
1, 37296, Note_on_c, 1, 47, 0
1, 37298, Note_on_c, 9, 59, 0
1, 37302, Note_on_c, 1, 38, 0
1, 37323, Note_on_c, 1, 42, 62
1, 37400, Note_on_c, 0, 84, 77
1, 37405, Note_on_c, 9, 36, 58
1, 37407, Note_on_c, 9, 59, 54
1, 37408, Note_on_c, 1, 34, 43
1, 37410, Note_on_c, 1, 42, 0
1, 37418, Note_on_c, 9, 59, 0
1, 37421, Note_on_c, 9, 36, 0
1, 37429, Note_on_c, 0, 84, 0
1, 37443, Note_on_c, 1, 34, 0
1, 37445, Note_on_c, 9, 59, 65
1, 37446, Note_on_c, 1, 36, 38
1, 37448, Note_on_c, 9, 36, 30
1, 37454, Note_on_c, 0, 86, 80
1, 37458, Control_c, 0, 64, 0
1, 37459, Note_on_c, 0, 58, 45
1, 37460, Note_on_c, 0, 62, 42
1, 37462, Note_on_c, 0, 67, 57
1, 37462, Note_on_c, 0, 63, 29
1, 37463, Note_on_c, 0, 82, 51
1, 37471, Note_on_c, 0, 74, 61
1, 37471, Note_on_c, 0, 79, 34
1, 37487, Note_on_c, 9, 36, 0
1, 37516, Control_c, 0, 64, 127
1, 37520, Note_on_c, 9, 59, 0
1, 37545, Note_on_c, 0, 62, 0
1, 37560, Note_on_c, 0, 67, 0
1, 37583, Note_on_c, 0, 79, 0
1, 37587, Note_on_c, 0, 63, 0
1, 37599, Note_on_c, 0, 82, 0
1, 37600, Note_on_c, 0, 74, 0
1, 37602, Note_on_c, 0, 58, 0
1, 37637, Note_on_c, 9, 59, 38
1, 37638, Note_on_c, 1, 34, 30
1, 37648, Note_on_c, 9, 59, 0
1, 37667, Note_on_c, 0, 58, 35
1, 37670, Note_on_c, 0, 63, 29
1, 37671, Note_on_c, 0, 62, 33
1, 37672, Note_on_c, 0, 67, 33
1, 37680, Note_on_c, 1, 48, 78
1, 37684, Note_on_c, 1, 34, 0
1, 37729, Note_on_c, 9, 59, 50
1, 37738, Note_on_c, 9, 59, 0
1, 37740, Note_on_c, 0, 62, 0
1, 37742, Note_on_c, 0, 67, 0
1, 37752, Note_on_c, 0, 63, 0
1, 37753, Note_on_c, 9, 38, 36
1, 37760, Note_on_c, 9, 59, 60
1, 37763, Note_on_c, 1, 48, 0
1, 37774, Note_on_c, 9, 38, 0
1, 37775, Note_on_c, 0, 58, 0
1, 37781, Note_on_c, 9, 59, 0
1, 37784, Note_on_c, 0, 86, 0
1, 37786, Note_on_c, 1, 36, 0
1, 37803, Note_on_c, 1, 49, 83
1, 37806, Note_on_c, 9, 36, 18
1, 37807, Note_on_c, 9, 59, 80
1, 37823, Note_on_c, 9, 36, 0
1, 37862, Note_on_c, 9, 59, 0
1, 37880, Note_on_c, 9, 36, 19
1, 37886, Note_on_c, 9, 36, 0
1, 37925, Note_on_c, 0, 61, 36
1, 37926, Note_on_c, 0, 64, 47
1, 37926, Note_on_c, 0, 58, 38
1, 37930, Control_c, 0, 64, 0
1, 37931, Note_on_c, 0, 55, 39
1, 37996, Note_on_c, 9, 59, 57
1, 38005, Note_on_c, 9, 59, 0
1, 38036, Control_c, 0, 64, 127
1, 38042, Note_on_c, 1, 49, 0
1, 38045, Note_on_c, 1, 37, 85
1, 38054, Note_on_c, 0, 64, 0
1, 38068, Note_on_c, 0, 58, 0
1, 38072, Note_on_c, 0, 61, 0
1, 38091, Note_on_c, 9, 59, 68
1, 38107, Note_on_c, 9, 59, 0
1, 38117, Note_on_c, 0, 69, 82
1, 38126, Note_on_c, 9, 59, 68
1, 38131, Note_on_c, 0, 64, 44
1, 38132, Note_on_c, 0, 61, 35
1, 38134, Note_on_c, 0, 58, 33
1, 38144, Control_c, 0, 64, 0
1, 38147, Note_on_c, 9, 59, 0
1, 38149, Note_on_c, 0, 69, 0
1, 38166, Note_on_c, 9, 38, 46
1, 38172, Note_on_c, 9, 59, 92
1, 38177, Note_on_c, 9, 38, 0
1, 38192, Control_c, 0, 64, 127
1, 38196, Note_on_c, 0, 72, 113
1, 38202, Note_on_c, 1, 37, 0
1, 38212, Note_on_c, 9, 59, 0
1, 38241, Note_on_c, 1, 36, 51
1, 38244, Note_on_c, 0, 72, 0
1, 38248, Note_on_c, 9, 59, 92
1, 38258, Note_on_c, 0, 64, 0
1, 38261, Note_on_c, 0, 70, 82
1, 38264, Note_on_c, 1, 36, 0
1, 38280, Note_on_c, 9, 59, 0
1, 38284, Note_on_c, 1, 37, 67
1, 38286, Control_c, 0, 64, 0
1, 38293, Note_on_c, 0, 70, 0
1, 38296, Note_on_c, 0, 61, 0
1, 38308, Note_on_c, 0, 55, 0
1, 38313, Note_on_c, 0, 58, 0
1, 38318, Note_on_c, 0, 69, 72
1, 38322, Note_on_c, 9, 59, 66
1, 38326, Note_on_c, 9, 38, 47
1, 38334, Note_on_c, 9, 38, 0
1, 38341, Note_on_c, 9, 59, 0
1, 38342, Control_c, 0, 64, 127
1, 38346, Note_on_c, 0, 69, 0
1, 38352, Note_on_c, 9, 59, 72
1, 38359, Note_on_c, 9, 38, 44
1, 38371, Note_on_c, 9, 59, 0
1, 38375, Note_on_c, 9, 38, 0
1, 38377, Note_on_c, 0, 70, 60
1, 38384, Note_on_c, 1, 37, 0
1, 38395, Note_on_c, 9, 59, 88
1, 38398, Note_on_c, 1, 38, 84
1, 38399, Note_on_c, 0, 70, 0
1, 38421, Control_c, 0, 64, 0
1, 38429, Note_on_c, 0, 71, 73
1, 38429, Note_on_c, 0, 58, 34
1, 38434, Note_on_c, 0, 50, 39
1, 38455, Note_on_c, 9, 59, 0
1, 38457, Note_on_c, 0, 71, 0
1, 38458, Note_on_c, 0, 72, 63
1, 38484, Note_on_c, 9, 59, 74
1, 38512, Note_on_c, 9, 59, 0
1, 38514, Note_on_c, 0, 58, 0
1, 38517, Note_on_c, 0, 72, 0
1, 38532, Control_c, 0, 64, 127
1, 38535, Note_on_c, 0, 70, 47
1, 38558, Note_on_c, 1, 37, 33
1, 38569, Note_on_c, 9, 59, 73
1, 38579, Note_on_c, 0, 70, 0
1, 38590, Note_on_c, 1, 37, 0
1, 38591, Note_on_c, 9, 59, 0
1, 38597, Note_on_c, 1, 50, 96
1, 38607, Note_on_c, 0, 58, 29
1, 38609, Note_on_c, 0, 77, 66
1, 38611, Note_on_c, 0, 62, 45
1, 38611, Note_on_c, 0, 65, 64
1, 38616, Control_c, 0, 64, 0
1, 38650, Note_on_c, 9, 59, 72
1, 38657, Control_c, 0, 64, 127
1, 38674, Note_on_c, 9, 59, 0
1, 38675, Note_on_c, 9, 38, 55
1, 38687, Note_on_c, 9, 38, 0
1, 38713, Note_on_c, 1, 50, 0
1, 38713, Note_on_c, 1, 37, 38
1, 38713, Note_on_c, 9, 38, 51
1, 38727, Note_on_c, 9, 38, 0
1, 38728, Note_on_c, 1, 37, 0
1, 38728, Note_on_c, 1, 49, 25
1, 38735, Note_on_c, 9, 59, 64
1, 38742, Note_on_c, 1, 49, 0
1, 38742, Note_on_c, 0, 50, 0
1, 38747, Note_on_c, 9, 36, 45
1, 38757, Note_on_c, 9, 59, 0
1, 38763, Note_on_c, 1, 50, 77
1, 38766, Note_on_c, 9, 36, 0
1, 38771, Note_on_c, 0, 62, 0
1, 38786, Note_on_c, 9, 36, 64
1, 38791, Note_on_c, 0, 58, 0
1, 38802, Note_on_c, 1, 38, 0
1, 38825, Note_on_c, 0, 65, 0
1, 38828, Note_on_c, 9, 59, 57
1, 38831, Note_on_c, 9, 36, 0
1, 38842, Note_on_c, 9, 59, 0
1, 38859, Note_on_c, 1, 37, 20
1, 38869, Note_on_c, 1, 37, 0
1, 38874, Note_on_c, 0, 51, 27
1, 38874, Note_on_c, 0, 62, 30
1, 38874, Control_c, 0, 64, 0
1, 38876, Note_on_c, 0, 58, 33
1, 38882, Note_on_c, 0, 55, 35
1, 38895, Note_on_c, 9, 59, 77
1, 38898, Note_on_c, 9, 53, 51
1, 38900, Note_on_c, 0, 77, 0
1, 38926, Note_on_c, 9, 53, 0
1, 38929, Note_on_c, 9, 59, 0
1, 38931, Note_on_c, 1, 50, 0
1, 38954, Note_on_c, 1, 51, 81
1, 38981, Note_on_c, 9, 59, 65
1, 39001, Control_c, 0, 64, 127
1, 39002, Note_on_c, 9, 59, 0
1, 39027, Note_on_c, 0, 62, 0
1, 39040, Note_on_c, 0, 58, 0
1, 39075, Note_on_c, 9, 59, 78
1, 39076, Note_on_c, 0, 75, 92
1, 39076, Note_on_c, 9, 53, 65
1, 39078, Note_on_c, 0, 62, 53
1, 39078, Note_on_c, 0, 58, 49
1, 39085, Note_on_c, 0, 76, 64
1, 39086, Note_on_c, 0, 73, 31
1, 39096, Note_on_c, 0, 73, 0
1, 39097, Note_on_c, 9, 53, 0
1, 39097, Note_on_c, 9, 59, 0
1, 39107, Control_c, 0, 64, 0
1, 39110, Note_on_c, 0, 76, 0
1, 39111, Note_on_c, 0, 75, 0
1, 39131, Note_on_c, 0, 62, 0
1, 39138, Note_on_c, 0, 74, 77
1, 39148, Note_on_c, 0, 58, 0
1, 39150, Note_on_c, 9, 59, 64
1, 39165, Control_c, 0, 64, 127
1, 39174, Note_on_c, 0, 74, 0
1, 39184, Note_on_c, 9, 59, 0
1, 39206, Control_c, 0, 64, 0
1, 39210, Note_on_c, 0, 72, 80
1, 39213, Note_on_c, 1, 38, 48
1, 39215, Note_on_c, 0, 62, 38
1, 39218, Note_on_c, 0, 58, 31
1, 39231, Note_on_c, 0, 62, 0
1, 39234, Note_on_c, 0, 55, 0
1, 39234, Note_on_c, 0, 72, 0
1, 39242, Note_on_c, 1, 38, 0
1, 39244, Note_on_c, 9, 59, 55
1, 39247, Note_on_c, 1, 39, 76
1, 39248, Note_on_c, 0, 51, 0
1, 39256, Note_on_c, 1, 51, 0
1, 39259, Control_c, 0, 64, 127
1, 39264, Note_on_c, 0, 58, 0
1, 39270, Note_on_c, 9, 59, 0
1, 39280, Note_on_c, 0, 70, 68
1, 39318, Note_on_c, 0, 70, 0
1, 39321, Note_on_c, 9, 59, 60
1, 39345, Note_on_c, 9, 59, 0
1, 39348, Control_c, 0, 64, 0
1, 39356, Note_on_c, 0, 69, 70
1, 39360, Note_on_c, 0, 58, 28
1, 39360, Note_on_c, 0, 62, 33
1, 39361, Note_on_c, 0, 52, 44
1, 39365, Note_on_c, 1, 39, 0
1, 39367, Note_on_c, 1, 40, 76
1, 39374, Note_on_c, 9, 59, 54
1, 39374, Note_on_c, 9, 57, 27
1, 39432, Note_on_c, 9, 57, 0
1, 39436, Note_on_c, 9, 59, 0
1, 39485, Control_c, 0, 64, 127
1, 39487, Note_on_c, 9, 44, 62
1, 39501, Note_on_c, 9, 44, 0
1, 39557, Note_on_c, 9, 59, 56
1, 39564, Note_on_c, 1, 52, 81
1, 39575, Note_on_c, 1, 40, 0
1, 39577, Note_on_c, 9, 59, 0
1, 39597, Note_on_c, 1, 52, 0
1, 39613, Note_on_c, 1, 46, 57
1, 39616, Note_on_c, 9, 59, 59
1, 39619, Note_on_c, 0, 62, 0
1, 39622, Note_on_c, 0, 52, 0
1, 39629, Note_on_c, 0, 69, 0
1, 39634, Note_on_c, 0, 58, 0
1, 39669, Note_on_c, 1, 46, 0
1, 39673, Note_on_c, 9, 59, 0
1, 39682, Note_on_c, 9, 38, 41
1, 39690, Note_on_c, 1, 39, 33
1, 39695, Note_on_c, 9, 38, 0
1, 39701, Note_on_c, 1, 39, 0
1, 39726, Note_on_c, 9, 36, 35
1, 39728, Note_on_c, 1, 44, 75
1, 39748, Note_on_c, 9, 36, 0
1, 39801, Note_on_c, 1, 44, 0
1, 39803, Note_on_c, 9, 59, 65
1, 39815, Note_on_c, 9, 59, 0
1, 39834, Control_c, 0, 64, 0
1, 39842, Note_on_c, 1, 45, 89
1, 39846, Note_on_c, 0, 61, 43
1, 39847, Note_on_c, 0, 65, 60
1, 39847, Note_on_c, 9, 59, 77
1, 39848, Note_on_c, 0, 55, 57
1, 39848, Note_on_c, 0, 60, 33
1, 39850, Note_on_c, 0, 58, 33
1, 39861, Note_on_c, 0, 60, 0
1, 39862, Note_on_c, 0, 65, 0
1, 39870, Note_on_c, 0, 61, 0
1, 39874, Note_on_c, 0, 55, 0
1, 39879, Note_on_c, 0, 58, 0
1, 39910, Note_on_c, 1, 45, 0
1, 39912, Note_on_c, 9, 59, 0
1, 39923, Note_on_c, 1, 40, 68
1, 39948, Note_on_c, 1, 40, 0
1, 39969, Note_on_c, 0, 71, 78
1, 39970, Note_on_c, 1, 37, 74
1, 39989, Note_on_c, 0, 71, 0
1, 40055, Note_on_c, 0, 77, 84
1, 40059, Note_on_c, 0, 61, 37
1, 40063, Note_on_c, 0, 65, 35
1, 40064, Note_on_c, 0, 60, 26
1, 40072, Note_on_c, 0, 65, 0
1, 40072, Note_on_c, 0, 61, 0
1, 40073, Note_on_c, 0, 60, 0
1, 40078, Note_on_c, 0, 77, 0
1, 40128, Control_c, 0, 64, 127
1, 40135, Note_on_c, 0, 77, 81
1, 40140, Note_on_c, 1, 37, 0
1, 40158, Note_on_c, 1, 33, 73
1, 40162, Note_on_c, 9, 59, 75
1, 40173, Note_on_c, 9, 59, 0
1, 40178, Note_on_c, 0, 77, 0
1, 40183, Note_on_c, 0, 65, 51
1, 40184, Note_on_c, 0, 61, 37
1, 40188, Control_c, 0, 64, 0
1, 40192, Note_on_c, 0, 65, 0
1, 40202, Note_on_c, 0, 61, 0
1, 40207, Note_on_c, 0, 76, 70
1, 40212, Control_c, 0, 64, 127
1, 40234, Note_on_c, 0, 76, 0
1, 40248, Note_on_c, 9, 59, 94
1, 40259, Note_on_c, 1, 33, 0
1, 40264, Note_on_c, 9, 59, 0
1, 40277, Note_on_c, 0, 65, 54
1, 40278, Note_on_c, 0, 50, 30
1, 40278, Note_on_c, 1, 37, 54
1, 40278, Note_on_c, 9, 38, 52
1, 40279, Note_on_c, 0, 69, 48
1, 40281, Note_on_c, 0, 60, 34
1, 40284, Note_on_c, 0, 57, 35
1, 40289, Control_c, 0, 64, 0
1, 40299, Note_on_c, 9, 38, 0
1, 40309, Note_on_c, 1, 37, 0
1, 40324, Note_on_c, 1, 38, 76
1, 40329, Note_on_c, 9, 59, 103
1, 40335, Control_c, 0, 64, 127
1, 40354, Note_on_c, 9, 59, 0
1, 40399, Note_on_c, 9, 36, 41
1, 40410, Note_on_c, 9, 59, 84
1, 40426, Note_on_c, 9, 36, 0
1, 40428, Note_on_c, 9, 59, 0
1, 40430, Note_on_c, 0, 60, 0
1, 40434, Note_on_c, 0, 57, 0
1, 40441, Note_on_c, 0, 69, 0
1, 40446, Note_on_c, 9, 36, 36
1, 40449, Note_on_c, 0, 65, 0
1, 40457, Note_on_c, 0, 50, 0
1, 40459, Note_on_c, 9, 36, 0
1, 40491, Note_on_c, 9, 59, 55
1, 40500, Note_on_c, 9, 59, 0
1, 40500, Note_on_c, 1, 38, 0
1, 40518, Note_on_c, 1, 38, 32
1, 40518, Note_on_c, 1, 53, 58
1, 40524, Note_on_c, 9, 59, 69
1, 40541, Note_on_c, 1, 53, 0
1, 40542, Note_on_c, 9, 59, 0
1, 40566, Note_on_c, 9, 59, 80
1, 40579, Note_on_c, 1, 37, 78
1, 40580, Note_on_c, 1, 38, 0
1, 40593, Note_on_c, 1, 53, 66
1, 40601, Note_on_c, 9, 59, 0
1, 40647, Note_on_c, 9, 38, 47
1, 40652, Note_on_c, 9, 59, 74
1, 40655, Control_c, 0, 64, 0
1, 40662, Note_on_c, 9, 38, 0
1, 40672, Note_on_c, 9, 59, 0
1, 40696, Control_c, 0, 64, 127
1, 40699, Note_on_c, 9, 38, 55
1, 40712, Note_on_c, 9, 38, 0
1, 40748, Note_on_c, 9, 53, 63
1, 40748, Note_on_c, 9, 59, 70
1, 40759, Note_on_c, 9, 53, 0
1, 40767, Note_on_c, 0, 56, 38
1, 40768, Note_on_c, 0, 68, 68
1, 40769, Note_on_c, 9, 59, 0
1, 40770, Note_on_c, 9, 36, 63
1, 40771, Note_on_c, 0, 59, 28
1, 40771, Note_on_c, 0, 64, 66
1, 40771, Note_on_c, 0, 49, 34
1, 40776, Note_on_c, 1, 34, 33
1, 40781, Note_on_c, 0, 59, 0
1, 40781, Note_on_c, 1, 53, 0
1, 40790, Note_on_c, 0, 64, 0
1, 40794, Note_on_c, 9, 36, 0
1, 40796, Note_on_c, 1, 37, 0
1, 40806, Note_on_c, 1, 34, 0
1, 40807, Note_on_c, 0, 49, 0
1, 40807, Note_on_c, 0, 56, 0
1, 40808, Note_on_c, 0, 68, 0
1, 40811, Note_on_c, 1, 51, 64
1, 40811, Note_on_c, 1, 36, 67
1, 40813, Control_c, 0, 64, 0
1, 40817, Note_on_c, 9, 36, 45
1, 40826, Note_on_c, 9, 59, 71
1, 40834, Note_on_c, 0, 67, 53
1, 40835, Note_on_c, 0, 55, 46
1, 40836, Note_on_c, 0, 58, 36
1, 40836, Note_on_c, 0, 63, 35
1, 40837, Note_on_c, 9, 36, 0
1, 40842, Note_on_c, 0, 48, 28
1, 40850, Note_on_c, 9, 59, 0
1, 40854, Control_c, 0, 64, 127
1, 40875, Note_on_c, 0, 67, 0
1, 40878, Note_on_c, 0, 63, 0
1, 40905, Note_on_c, 9, 53, 60
1, 40907, Note_on_c, 9, 59, 79
1, 40915, Note_on_c, 9, 53, 0
1, 40922, Note_on_c, 0, 55, 0
1, 40926, Note_on_c, 0, 48, 0
1, 40939, Note_on_c, 0, 69, 75
1, 40942, Note_on_c, 0, 58, 0
1, 40947, Note_on_c, 9, 59, 0
1, 40956, Note_on_c, 0, 69, 0
1, 40965, Control_c, 0, 64, 0
1, 40990, Note_on_c, 9, 59, 66
1, 40992, Control_c, 0, 64, 127
1, 41014, Note_on_c, 9, 59, 0
1, 41016, Note_on_c, 0, 74, 103
1, 41019, Note_on_c, 1, 51, 0
1, 41022, Note_on_c, 0, 73, 47
1, 41030, Note_on_c, 0, 73, 0
1, 41039, Note_on_c, 0, 74, 0
1, 41043, Note_on_c, 1, 36, 0
1, 41050, Note_on_c, 1, 29, 44
1, 41061, Control_c, 0, 64, 0
1, 41065, Note_on_c, 9, 53, 68
1, 41070, Note_on_c, 9, 59, 79
1, 41080, Note_on_c, 0, 74, 87
1, 41082, Note_on_c, 0, 63, 37
1, 41084, Note_on_c, 0, 57, 45
1, 41086, Note_on_c, 9, 53, 0
1, 41087, Note_on_c, 0, 67, 31
1, 41100, Control_c, 0, 64, 127
1, 41108, Note_on_c, 9, 59, 0
1, 41131, Note_on_c, 1, 53, 73
1, 41141, Note_on_c, 0, 74, 0
1, 41151, Note_on_c, 9, 59, 69
1, 41154, Note_on_c, 1, 53, 0
1, 41160, Control_c, 0, 64, 0
1, 41174, Note_on_c, 9, 59, 0
1, 41189, Control_c, 0, 64, 127
1, 41191, Note_on_c, 0, 67, 0
1, 41218, Note_on_c, 0, 57, 0
1, 41224, Note_on_c, 9, 53, 76
1, 41226, Note_on_c, 9, 59, 82
1, 41234, Note_on_c, 0, 63, 0
1, 41235, Note_on_c, 1, 29, 0
1, 41241, Note_on_c, 9, 53, 0
1, 41241, Note_on_c, 0, 72, 101
1, 41242, Control_c, 0, 64, 0
1, 41248, Note_on_c, 0, 62, 46
1, 41248, Note_on_c, 0, 65, 60
1, 41249, Note_on_c, 1, 33, 49
1, 41258, Note_on_c, 0, 65, 0
1, 41260, Note_on_c, 0, 60, 22
1, 41261, Note_on_c, 9, 59, 0
1, 41263, Note_on_c, 0, 55, 20
1, 41266, Note_on_c, 1, 33, 0
1, 41291, Note_on_c, 1, 34, 67
1, 41299, Note_on_c, 9, 59, 87
1, 41313, Note_on_c, 0, 71, 44
1, 41316, Control_c, 0, 64, 127
1, 41326, Note_on_c, 0, 72, 0
1, 41337, Note_on_c, 0, 70, 60
1, 41344, Note_on_c, 0, 71, 0
1, 41348, Control_c, 0, 64, 0
1, 41350, Note_on_c, 9, 59, 0
1, 41365, Note_on_c, 0, 62, 0
1, 41371, Note_on_c, 0, 69, 52
1, 41372, Note_on_c, 0, 70, 0
1, 41394, Note_on_c, 0, 60, 0
1, 41403, Note_on_c, 1, 32, 25
1, 41412, Note_on_c, 0, 69, 0
1, 41456, Control_c, 0, 64, 127
1, 41471, Control_c, 0, 64, 0
1, 41472, Note_on_c, 0, 55, 0
1, 41479, Note_on_c, 9, 53, 55
1, 41484, Note_on_c, 9, 59, 60
1, 41488, Note_on_c, 9, 53, 0
1, 41489, Note_on_c, 1, 38, 36
1, 41500, Note_on_c, 9, 59, 0
1, 41507, Note_on_c, 1, 38, 0
1, 41516, Note_on_c, 1, 32, 0
1, 41519, Control_c, 0, 64, 127
1, 41520, Note_on_c, 1, 34, 0
1, 41521, Note_on_c, 1, 43, 62
1, 41538, Note_on_c, 9, 59, 63
1, 41594, Note_on_c, 9, 59, 0
1, 41602, Note_on_c, 0, 65, 62
1, 41604, Note_on_c, 0, 62, 44
1, 41604, Note_on_c, 1, 34, 21
1, 41606, Note_on_c, 0, 60, 44
1, 41608, Control_c, 0, 64, 0
1, 41610, Note_on_c, 0, 65, 0
1, 41616, Note_on_c, 0, 62, 0
1, 41617, Note_on_c, 0, 60, 0
1, 41629, Note_on_c, 1, 43, 0
1, 41641, Note_on_c, 1, 34, 0
1, 41646, Control_c, 0, 64, 127
1, 41646, Note_on_c, 1, 41, 70
1, 41683, Note_on_c, 0, 70, 68
1, 41704, Note_on_c, 0, 70, 0
1, 41717, Note_on_c, 9, 38, 34
1, 41718, Note_on_c, 9, 59, 51
1, 41722, Note_on_c, 0, 72, 74
1, 41727, Note_on_c, 9, 38, 0
1, 41730, Note_on_c, 9, 59, 0
1, 41747, Note_on_c, 0, 72, 0
1, 41754, Control_c, 0, 64, 0
1, 41760, Note_on_c, 9, 59, 67
1, 41762, Note_on_c, 9, 38, 38
1, 41764, Note_on_c, 1, 41, 0
1, 41764, Note_on_c, 0, 51, 40
1, 41765, Note_on_c, 0, 62, 55
1, 41765, Note_on_c, 1, 39, 78
1, 41766, Note_on_c, 0, 58, 46
1, 41768, Note_on_c, 0, 55, 58
1, 41769, Note_on_c, 0, 74, 95
1, 41776, Note_on_c, 9, 38, 0
1, 41800, Control_c, 0, 64, 127
1, 41838, Note_on_c, 9, 38, 47
1, 41849, Note_on_c, 9, 38, 0
1, 41865, Note_on_c, 0, 55, 0
1, 41870, Note_on_c, 0, 62, 0
1, 41886, Note_on_c, 0, 51, 0
1, 41891, Note_on_c, 0, 58, 0
1, 41896, Note_on_c, 0, 74, 0
1, 41926, Note_on_c, 9, 59, 0
1, 41949, Note_on_c, 1, 39, 0
1, 41958, Note_on_c, 1, 37, 38
1, 41969, Note_on_c, 9, 59, 59
1, 41981, Note_on_c, 9, 59, 0
1, 41992, Note_on_c, 1, 37, 0
1, 41994, Note_on_c, 1, 46, 75
1, 42010, Note_on_c, 9, 59, 66
1, 42060, Control_c, 0, 64, 0
1, 42080, Note_on_c, 0, 75, 65
1, 42080, Note_on_c, 0, 62, 49
1, 42081, Note_on_c, 0, 58, 51
1, 42081, Note_on_c, 0, 87, 62
1, 42089, Note_on_c, 0, 62, 0
1, 42094, Note_on_c, 0, 75, 0
1, 42096, Note_on_c, 0, 87, 0
1, 42102, Note_on_c, 0, 58, 0
1, 42103, Note_on_c, 9, 59, 0
1, 42188, Note_on_c, 9, 38, 45
1, 42197, Note_on_c, 0, 88, 67
1, 42198, Note_on_c, 9, 51, 73
1, 42201, Note_on_c, 0, 76, 37
1, 42204, Note_on_c, 9, 38, 0
1, 42207, Note_on_c, 1, 43, 55
1, 42212, Note_on_c, 9, 51, 0
1, 42216, Note_on_c, 1, 43, 0
1, 42219, Note_on_c, 1, 46, 0
1, 42219, Note_on_c, 0, 76, 0
1, 42222, Note_on_c, 0, 88, 0
1, 42237, Note_on_c, 9, 36, 60
1, 42238, Note_on_c, 9, 46, 62
1, 42240, Note_on_c, 9, 51, 73
1, 42244, Note_on_c, 9, 53, 56
1, 42249, Note_on_c, 1, 32, 65
1, 42259, Note_on_c, 9, 46, 0
1, 42276, Note_on_c, 9, 36, 0
1, 42285, Note_on_c, 0, 87, 64
1, 42286, Note_on_c, 0, 75, 54
1, 42287, Note_on_c, 0, 63, 29
1, 42291, Note_on_c, 0, 58, 29
1, 42293, Note_on_c, 0, 60, 36
1, 42315, Note_on_c, 9, 53, 0
1, 42316, Note_on_c, 9, 51, 0
1, 42348, Note_on_c, 1, 32, 0
1, 42356, Note_on_c, 9, 51, 77
1, 42373, Note_on_c, 1, 36, 55
1, 42417, Note_on_c, 0, 87, 0
1, 42427, Note_on_c, 0, 75, 0
1, 42451, Note_on_c, 9, 51, 0
1, 42466, Note_on_c, 1, 36, 0
1, 42469, Note_on_c, 1, 39, 39
1, 42482, Note_on_c, 0, 63, 0
1, 42485, Note_on_c, 9, 51, 87
1, 42486, Note_on_c, 1, 39, 0
1, 42486, Note_on_c, 0, 84, 84
1, 42498, Note_on_c, 1, 44, 59
1, 42503, Note_on_c, 0, 60, 0
1, 42510, Note_on_c, 0, 58, 0
1, 42511, Note_on_c, 0, 84, 0
1, 42558, Note_on_c, 9, 51, 0
1, 42567, Note_on_c, 0, 82, 60
1, 42591, Note_on_c, 0, 82, 0
1, 42594, Note_on_c, 1, 44, 0
1, 42605, Note_on_c, 9, 51, 88
1, 42614, Note_on_c, 1, 43, 53
1, 42617, Note_on_c, 0, 79, 36
1, 42642, Note_on_c, 0, 79, 0
1, 42664, Note_on_c, 9, 51, 0
1, 42688, Note_on_c, 0, 63, 52
1, 42689, Note_on_c, 0, 75, 73
1, 42697, Note_on_c, 0, 60, 37
1, 42698, Note_on_c, 9, 51, 69
1, 42703, Note_on_c, 0, 58, 28
1, 42706, Note_on_c, 1, 36, 41
1, 42708, Note_on_c, 0, 63, 0
1, 42709, Note_on_c, 0, 75, 0
1, 42711, Note_on_c, 0, 60, 0
1, 42713, Note_on_c, 9, 51, 0
1, 42713, Note_on_c, 1, 43, 0
1, 42718, Note_on_c, 1, 36, 0
1, 42730, Note_on_c, 9, 51, 77
1, 42733, Note_on_c, 1, 46, 78
1, 42742, Note_on_c, 0, 72, 38
1, 42783, Note_on_c, 0, 58, 0
1, 42784, Note_on_c, 0, 72, 0
1, 42815, Note_on_c, 9, 51, 0
1, 42820, Note_on_c, 0, 72, 53
1, 42834, Note_on_c, 1, 46, 0
1, 42841, Note_on_c, 0, 72, 0
1, 42846, Note_on_c, 9, 51, 91
1, 42855, Note_on_c, 1, 44, 57
1, 42861, Note_on_c, 9, 38, 40
1, 42868, Note_on_c, 9, 38, 0
1, 42872, Note_on_c, 1, 46, 19
1, 42894, Note_on_c, 9, 38, 47
1, 42901, Note_on_c, 9, 38, 0
1, 42905, Note_on_c, 9, 51, 0
1, 42935, Note_on_c, 9, 51, 64
1, 42937, Note_on_c, 0, 70, 65
1, 42937, Note_on_c, 0, 63, 50
1, 42939, Note_on_c, 0, 60, 49
1, 42947, Note_on_c, 0, 58, 33
1, 42948, Note_on_c, 0, 60, 0
1, 42949, Note_on_c, 0, 63, 0
1, 42950, Note_on_c, 9, 51, 0
1, 42959, Note_on_c, 1, 44, 0
1, 42966, Note_on_c, 0, 70, 0
1, 42966, Note_on_c, 9, 51, 81
1, 42973, Note_on_c, 1, 43, 54
1, 42985, Note_on_c, 0, 67, 44
1, 43005, Note_on_c, 0, 58, 0
1, 43028, Note_on_c, 0, 67, 0
1, 43047, Note_on_c, 9, 51, 0
1, 43061, Note_on_c, 0, 67, 45
1, 43062, Note_on_c, 0, 58, 31
1, 43075, Note_on_c, 0, 67, 0
1, 43080, Note_on_c, 1, 43, 0
1, 43085, Note_on_c, 9, 51, 88
1, 43089, Note_on_c, 9, 38, 50
1, 43095, Note_on_c, 9, 38, 0
1, 43095, Note_on_c, 1, 41, 56
1, 43099, Note_on_c, 0, 58, 0
1, 43106, Note_on_c, 0, 63, 52
1, 43124, Note_on_c, 9, 38, 55
1, 43129, Note_on_c, 0, 63, 0
1, 43133, Note_on_c, 9, 38, 0
1, 43145, Note_on_c, 9, 51, 0
1, 43167, Note_on_c, 9, 36, 61
1, 43174, Note_on_c, 9, 51, 52
1, 43176, Note_on_c, 0, 63, 49
1, 43182, Note_on_c, 1, 46, 0
1, 43184, Note_on_c, 9, 51, 0
1, 43194, Note_on_c, 1, 41, 0
1, 43202, Note_on_c, 9, 36, 0
1, 43206, Note_on_c, 0, 63, 0
1, 43207, Note_on_c, 1, 42, 71
1, 43207, Note_on_c, 9, 51, 81
1, 43218, Note_on_c, 0, 57, 26
1, 43219, Note_on_c, 0, 62, 66
1, 43259, Note_on_c, 0, 57, 0
1, 43275, Note_on_c, 9, 51, 0
1, 43297, Note_on_c, 0, 62, 0
1, 43297, Note_on_c, 0, 63, 48
1, 43318, Note_on_c, 0, 63, 0
1, 43320, Note_on_c, 0, 64, 63
1, 43323, Note_on_c, 9, 51, 79
1, 43323, Note_on_c, 9, 53, 74
1, 43328, Note_on_c, 1, 38, 68
1, 43338, Note_on_c, 0, 64, 0
1, 43347, Note_on_c, 0, 65, 80
1, 43350, Note_on_c, 1, 42, 0
1, 43412, Note_on_c, 9, 51, 0
1, 43416, Note_on_c, 0, 65, 0
1, 43422, Note_on_c, 1, 34, 37
1, 43425, Note_on_c, 0, 66, 84
1, 43426, Note_on_c, 9, 53, 0
1, 43451, Note_on_c, 9, 51, 78
1, 43452, Note_on_c, 1, 45, 108
1, 43454, Note_on_c, 1, 38, 0
1, 43455, Note_on_c, 1, 34, 0
1, 43522, Note_on_c, 1, 34, 31
1, 43543, Note_on_c, 1, 45, 0
1, 43548, Note_on_c, 9, 51, 0
1, 43563, Note_on_c, 1, 42, 60
1, 43565, Note_on_c, 1, 34, 0
1, 43574, Note_on_c, 0, 66, 0
1, 43574, Note_on_c, 9, 51, 81
1, 43576, Note_on_c, 0, 62, 50
1, 43629, Note_on_c, 1, 42, 0
1, 43642, Note_on_c, 0, 62, 0
1, 43642, Note_on_c, 1, 43, 77
1, 43650, Note_on_c, 9, 51, 0
1, 43656, Note_on_c, 0, 69, 85
1, 43661, Note_on_c, 0, 62, 67
1, 43662, Note_on_c, 0, 58, 48
1, 43664, Note_on_c, 0, 55, 56
1, 43673, Note_on_c, 0, 55, 0
1, 43673, Note_on_c, 0, 62, 0
1, 43685, Note_on_c, 9, 51, 78
1, 43690, Note_on_c, 0, 58, 0
1, 43758, Note_on_c, 1, 43, 0
1, 43758, Note_on_c, 0, 69, 0
1, 43764, Note_on_c, 1, 38, 48
1, 43768, Note_on_c, 9, 38, 40
1, 43769, Note_on_c, 0, 66, 61
1, 43772, Note_on_c, 9, 51, 0
1, 43782, Note_on_c, 1, 38, 0
1, 43783, Note_on_c, 9, 38, 0
1, 43794, Note_on_c, 0, 66, 0
1, 43804, Note_on_c, 9, 51, 72
1, 43804, Note_on_c, 9, 53, 66
1, 43806, Note_on_c, 1, 34, 71
1, 43814, Note_on_c, 9, 38, 34
1, 43816, Note_on_c, 0, 67, 59
1, 43830, Note_on_c, 9, 38, 0
1, 43863, Note_on_c, 0, 67, 0
1, 43884, Note_on_c, 0, 69, 76
1, 43886, Note_on_c, 0, 58, 50
1, 43886, Note_on_c, 0, 62, 59
1, 43888, Note_on_c, 0, 57, 51
1, 43895, Note_on_c, 0, 62, 0
1, 43896, Note_on_c, 9, 51, 0
1, 43897, Note_on_c, 0, 57, 0
1, 43900, Note_on_c, 9, 53, 0
1, 43904, Note_on_c, 0, 58, 0
1, 43915, Note_on_c, 0, 69, 0
1, 43923, Note_on_c, 1, 34, 0
1, 43924, Note_on_c, 9, 51, 67
1, 43928, Note_on_c, 1, 33, 64
1, 43935, Note_on_c, 0, 70, 50
1, 43986, Note_on_c, 0, 70, 0
1, 44001, Note_on_c, 9, 38, 45
1, 44003, Note_on_c, 0, 74, 68
1, 44014, Note_on_c, 9, 38, 0
1, 44022, Note_on_c, 9, 51, 0
1, 44034, Note_on_c, 1, 33, 0
1, 44034, Note_on_c, 0, 74, 0
1, 44040, Note_on_c, 1, 31, 64
1, 44044, Note_on_c, 9, 51, 57
1, 44047, Note_on_c, 0, 78, 42
1, 44087, Note_on_c, 1, 31, 0
1, 44108, Note_on_c, 0, 78, 0
1, 44115, Note_on_c, 9, 36, 35
1, 44120, Note_on_c, 1, 31, 37
1, 44123, Note_on_c, 9, 36, 0
1, 44125, Note_on_c, 0, 67, 68
1, 44125, Note_on_c, 0, 63, 56
1, 44127, Note_on_c, 0, 56, 40
1, 44127, Note_on_c, 0, 81, 70
1, 44128, Note_on_c, 0, 60, 58
1, 44133, Note_on_c, 0, 65, 36
1, 44135, Note_on_c, 9, 51, 0
1, 44137, Note_on_c, 0, 60, 0
1, 44139, Note_on_c, 0, 67, 0
1, 44140, Note_on_c, 1, 31, 0
1, 44141, Note_on_c, 0, 65, 0
1, 44143, Note_on_c, 0, 56, 0
1, 44150, Note_on_c, 0, 81, 0
1, 44154, Note_on_c, 0, 63, 0
1, 44156, Note_on_c, 1, 29, 68
1, 44162, Note_on_c, 9, 51, 47
1, 44168, Note_on_c, 0, 80, 68
1, 44172, Note_on_c, 0, 84, 78
1, 44174, Note_on_c, 0, 81, 71
1, 44177, Note_on_c, 0, 80, 0
1, 44212, Note_on_c, 9, 38, 40
1, 44214, Note_on_c, 9, 51, 0
1, 44225, Note_on_c, 9, 38, 0
1, 44251, Note_on_c, 0, 81, 0
1, 44252, Note_on_c, 0, 84, 0
1, 44252, Note_on_c, 9, 51, 51
1, 44275, Note_on_c, 9, 51, 0
1, 44279, Note_on_c, 1, 41, 68
1, 44284, Note_on_c, 0, 82, 67
1, 44286, Note_on_c, 0, 79, 64
1, 44292, Note_on_c, 9, 51, 56
1, 44327, Note_on_c, 9, 51, 0
1, 44346, Note_on_c, 9, 51, 50
1, 44350, Note_on_c, 0, 79, 0
1, 44357, Note_on_c, 0, 82, 0
1, 44366, Note_on_c, 1, 29, 0
1, 44366, Note_on_c, 0, 80, 53
1, 44367, Note_on_c, 0, 77, 56
1, 44370, Note_on_c, 0, 67, 72
1, 44372, Note_on_c, 9, 51, 0
1, 44373, Note_on_c, 0, 82, 30
1, 44374, Note_on_c, 0, 56, 40
1, 44377, Note_on_c, 0, 62, 44
1, 44390, Note_on_c, 0, 67, 0
1, 44394, Note_on_c, 1, 41, 0
1, 44396, Note_on_c, 0, 77, 0
1, 44401, Note_on_c, 0, 56, 0
1, 44402, Note_on_c, 0, 62, 0
1, 44404, Note_on_c, 1, 36, 44
1, 44411, Note_on_c, 0, 82, 0
1, 44415, Note_on_c, 0, 80, 0
1, 44444, Note_on_c, 0, 75, 44
1, 44446, Note_on_c, 0, 79, 49
1, 44471, Note_on_c, 9, 44, 38
1, 44477, Note_on_c, 9, 51, 65
1, 44478, Note_on_c, 9, 44, 0
1, 44491, Note_on_c, 0, 75, 0
1, 44495, Note_on_c, 9, 51, 0
1, 44507, Note_on_c, 0, 79, 0
1, 44509, Note_on_c, 1, 36, 0
1, 44518, Note_on_c, 9, 51, 59
1, 44523, Note_on_c, 1, 34, 74
1, 44528, Note_on_c, 0, 66, 46
1, 44529, Note_on_c, 0, 56, 42
1, 44530, Note_on_c, 0, 77, 44
1, 44531, Note_on_c, 0, 74, 43
1, 44531, Note_on_c, 0, 62, 30
1, 44573, Note_on_c, 0, 77, 0
1, 44580, Note_on_c, 0, 74, 0
1, 44583, Note_on_c, 0, 66, 0
1, 44588, Note_on_c, 0, 62, 0
1, 44590, Note_on_c, 9, 44, 57
1, 44594, Note_on_c, 9, 51, 0
1, 44596, Note_on_c, 9, 44, 0
1, 44604, Note_on_c, 0, 56, 0
1, 44609, Note_on_c, 0, 65, 53
1, 44614, Note_on_c, 0, 62, 33
1, 44615, Note_on_c, 0, 74, 55
1, 44619, Note_on_c, 0, 55, 44
1, 44622, Note_on_c, 0, 60, 24
1, 44625, Note_on_c, 1, 34, 0
1, 44639, Note_on_c, 1, 46, 67
1, 44641, Note_on_c, 9, 51, 57
1, 44675, Note_on_c, 9, 51, 0
1, 44691, Note_on_c, 9, 38, 35
1, 44701, Note_on_c, 9, 38, 0
1, 44708, Note_on_c, 9, 44, 69
1, 44719, Note_on_c, 9, 44, 0
1, 44739, Note_on_c, 9, 38, 39
1, 44743, Note_on_c, 1, 38, 36
1, 44748, Note_on_c, 9, 38, 0
1, 44756, Note_on_c, 0, 74, 0
1, 44756, Note_on_c, 1, 46, 0
1, 44757, Note_on_c, 1, 38, 0
1, 44757, Note_on_c, 0, 65, 0
1, 44768, Note_on_c, 1, 43, 58
1, 44774, Note_on_c, 0, 70, 39
1, 44775, Note_on_c, 0, 74, 22
1, 44782, Note_on_c, 9, 51, 67
1, 44801, Note_on_c, 0, 60, 0
1, 44804, Note_on_c, 0, 62, 0
1, 44827, Note_on_c, 9, 44, 70
1, 44838, Note_on_c, 9, 44, 0
1, 44844, Note_on_c, 9, 51, 0
1, 44844, Note_on_c, 0, 55, 0
1, 44856, Note_on_c, 0, 67, 58
1, 44858, Note_on_c, 1, 43, 0
1, 44861, Note_on_c, 0, 74, 0
1, 44870, Note_on_c, 0, 67, 0
1, 44874, Note_on_c, 0, 70, 0
1, 44889, Note_on_c, 1, 43, 60
1, 44896, Note_on_c, 9, 51, 68
1, 44917, Note_on_c, 9, 51, 0
1, 44951, Note_on_c, 9, 38, 40
1, 44965, Note_on_c, 9, 38, 0
1, 44968, Note_on_c, 9, 44, 56
1, 44975, Note_on_c, 9, 44, 0
1, 44982, Note_on_c, 0, 62, 58
1, 44984, Note_on_c, 1, 38, 34
1, 44986, Note_on_c, 0, 57, 47
1, 44987, Note_on_c, 0, 54, 34
1, 44992, Note_on_c, 1, 43, 0
1, 44997, Note_on_c, 1, 38, 0
1, 45002, Note_on_c, 1, 42, 71
1, 45071, Note_on_c, 9, 51, 59
1, 45077, Note_on_c, 9, 44, 71
1, 45078, Note_on_c, 9, 46, 57
1, 45084, Note_on_c, 9, 46, 0
1, 45086, Note_on_c, 9, 44, 0
1, 45090, Note_on_c, 9, 51, 0
1, 45093, Note_on_c, 0, 57, 0
1, 45102, Note_on_c, 0, 62, 0
1, 45113, Note_on_c, 1, 42, 0
1, 45113, Note_on_c, 9, 51, 65
1, 45118, Note_on_c, 0, 54, 0
1, 45124, Note_on_c, 1, 41, 70
1, 45132, Note_on_c, 0, 62, 39
1, 45137, Note_on_c, 0, 53, 33
1, 45141, Note_on_c, 0, 55, 54
1, 45142, Note_on_c, 0, 58, 37
1, 45197, Note_on_c, 9, 51, 0
1, 45236, Note_on_c, 9, 53, 71
1, 45238, Note_on_c, 9, 51, 64
1, 45251, Note_on_c, 1, 53, 68
1, 45298, Note_on_c, 0, 58, 0
1, 45324, Note_on_c, 9, 51, 0
1, 45329, Note_on_c, 9, 53, 0
1, 45338, Note_on_c, 0, 58, 40
1, 45357, Note_on_c, 1, 53, 0
1, 45357, Note_on_c, 0, 62, 0
1, 45361, Note_on_c, 9, 51, 72
1, 45381, Note_on_c, 1, 50, 34
1, 45385, Note_on_c, 0, 69, 80
1, 45387, Note_on_c, 1, 41, 0
1, 45398, Note_on_c, 0, 58, 0
1, 45403, Note_on_c, 0, 69, 0
1, 45406, Note_on_c, 0, 70, 56
1, 45432, Note_on_c, 0, 69, 50
1, 45441, Note_on_c, 1, 41, 39
1, 45443, Note_on_c, 9, 51, 0
1, 45446, Note_on_c, 0, 70, 0
1, 45457, Note_on_c, 0, 69, 0
1, 45461, Note_on_c, 1, 41, 0
1, 45461, Note_on_c, 0, 67, 57
1, 45481, Note_on_c, 9, 51, 77
1, 45483, Note_on_c, 0, 62, 22
1, 45486, Note_on_c, 0, 58, 29
1, 45487, Note_on_c, 1, 48, 56
1, 45490, Note_on_c, 0, 67, 0
1, 45504, Note_on_c, 0, 62, 0
1, 45513, Note_on_c, 0, 66, 49
1, 45565, Note_on_c, 9, 51, 0
1, 45565, Note_on_c, 0, 53, 0
1, 45570, Note_on_c, 0, 55, 0
1, 45574, Note_on_c, 0, 66, 0
1, 45581, Note_on_c, 0, 69, 83
1, 45588, Note_on_c, 1, 50, 0
1, 45589, Note_on_c, 0, 58, 0
1, 45599, Note_on_c, 1, 48, 0
1, 45600, Note_on_c, 9, 51, 77
1, 45605, Note_on_c, 1, 40, 83
1, 45616, Note_on_c, 0, 60, 28
1, 45620, Note_on_c, 0, 69, 0
1, 45620, Note_on_c, 0, 52, 52
1, 45636, Note_on_c, 0, 67, 56
1, 45676, Note_on_c, 0, 60, 0
1, 45677, Note_on_c, 9, 51, 0
1, 45686, Note_on_c, 0, 67, 0
1, 45700, Note_on_c, 0, 64, 62
1, 45721, Note_on_c, 0, 64, 0
1, 45723, Note_on_c, 1, 52, 99
1, 45725, Note_on_c, 9, 51, 79
1, 45736, Note_on_c, 1, 40, 0
1, 45749, Note_on_c, 0, 60, 39
1, 45770, Note_on_c, 0, 52, 0
1, 45782, Note_on_c, 9, 51, 0
1, 45790, Note_on_c, 0, 60, 0
1, 45815, Note_on_c, 0, 55, 77
1, 45819, Note_on_c, 9, 51, 68
1, 45839, Note_on_c, 9, 51, 0
1, 45849, Note_on_c, 0, 55, 0
1, 45852, Note_on_c, 9, 51, 72
1, 45862, Note_on_c, 0, 52, 66
1, 45904, Note_on_c, 1, 52, 0
1, 45916, Note_on_c, 1, 48, 58
1, 45925, Note_on_c, 9, 51, 0
1, 45939, Note_on_c, 1, 48, 0
1, 45956, Note_on_c, 0, 52, 0
1, 45963, Note_on_c, 1, 43, 43
1, 45969, Note_on_c, 9, 51, 79
1, 46018, Note_on_c, 9, 51, 0
1, 46025, Note_on_c, 1, 43, 0
1, 46035, Note_on_c, 1, 40, 55
1, 46047, Note_on_c, 1, 40, 0
1, 46048, Note_on_c, 9, 51, 76
1, 46049, Note_on_c, 9, 53, 74
1, 46078, Note_on_c, 9, 51, 0
1, 46080, Note_on_c, 1, 41, 70
1, 46084, Note_on_c, 9, 53, 0
1, 46097, Note_on_c, 9, 51, 44
1, 46159, Note_on_c, 0, 64, 70
1, 46161, Note_on_c, 9, 38, 37
1, 46163, Note_on_c, 0, 57, 60
1, 46164, Note_on_c, 0, 60, 48
1, 46167, Note_on_c, 0, 64, 0
1, 46169, Note_on_c, 9, 38, 0
1, 46172, Note_on_c, 1, 41, 0
1, 46174, Note_on_c, 0, 60, 0
1, 46178, Note_on_c, 9, 51, 0
1, 46194, Note_on_c, 0, 57, 0
1, 46200, Note_on_c, 1, 36, 47
1, 46206, Note_on_c, 9, 51, 71
1, 46212, Note_on_c, 0, 79, 90
1, 46248, Note_on_c, 0, 79, 0
1, 46250, Note_on_c, 0, 76, 72
1, 46279, Note_on_c, 0, 76, 0
1, 46285, Note_on_c, 9, 51, 0
1, 46292, Note_on_c, 0, 72, 72
1, 46314, Note_on_c, 0, 72, 0
1, 46323, Note_on_c, 1, 36, 0
1, 46323, Note_on_c, 1, 29, 38
1, 46326, Note_on_c, 9, 51, 81
1, 46331, Note_on_c, 0, 67, 44
1, 46354, Note_on_c, 0, 67, 0
1, 46374, Note_on_c, 0, 64, 52
1, 46398, Note_on_c, 0, 64, 0
1, 46409, Note_on_c, 9, 51, 0
1, 46415, Note_on_c, 0, 60, 54
1, 46428, Note_on_c, 1, 29, 0
1, 46439, Note_on_c, 0, 60, 0
1, 46441, Note_on_c, 9, 51, 75
1, 46443, Note_on_c, 9, 38, 49
1, 46446, Note_on_c, 1, 41, 56
1, 46451, Note_on_c, 9, 38, 0
1, 46482, Note_on_c, 9, 38, 36
1, 46496, Note_on_c, 9, 38, 0
1, 46498, Note_on_c, 1, 41, 0
1, 46509, Note_on_c, 9, 51, 0
1, 46521, Note_on_c, 9, 38, 73
1, 46527, Note_on_c, 1, 36, 37
1, 46532, Note_on_c, 9, 51, 52
1, 46545, Note_on_c, 9, 51, 0
1, 46545, Note_on_c, 1, 36, 0
1, 46549, Note_on_c, 9, 38, 0
1, 46562, Note_on_c, 0, 54, 40
1, 46562, Note_on_c, 1, 42, 57
1, 46563, Note_on_c, 0, 64, 57
1, 46563, Note_on_c, 9, 51, 69
1, 46564, Note_on_c, 9, 38, 46
1, 46569, Note_on_c, 0, 60, 34
1, 46570, Note_on_c, 0, 57, 38
1, 46578, Note_on_c, 9, 38, 0
1, 46581, Note_on_c, 0, 64, 0
1, 46581, Note_on_c, 0, 60, 0
1, 46583, Note_on_c, 0, 57, 0
1, 46594, Note_on_c, 0, 54, 0
1, 46603, Note_on_c, 9, 36, 51
1, 46616, Note_on_c, 0, 84, 99
1, 46630, Note_on_c, 9, 36, 0
1, 46643, Note_on_c, 9, 36, 73
1, 46645, Note_on_c, 0, 84, 0
1, 46652, Note_on_c, 9, 51, 0
1, 46658, Note_on_c, 0, 81, 84
1, 46664, Note_on_c, 1, 42, 0
1, 46665, Note_on_c, 0, 83, 41
1, 46673, Note_on_c, 9, 36, 0
1, 46674, Note_on_c, 0, 83, 0
1, 46680, Note_on_c, 9, 51, 82
1, 46684, Note_on_c, 0, 81, 0
1, 46686, Note_on_c, 9, 36, 74
1, 46695, Note_on_c, 1, 43, 64
1, 46700, Note_on_c, 0, 76, 57
1, 46722, Note_on_c, 9, 36, 0
1, 46729, Note_on_c, 0, 76, 0
1, 46750, Note_on_c, 9, 51, 0
1, 46750, Note_on_c, 0, 71, 29
1, 46764, Note_on_c, 0, 71, 0
1, 46779, Note_on_c, 9, 51, 39
1, 46787, Note_on_c, 9, 51, 0
1, 46791, Note_on_c, 1, 43, 0
1, 46805, Note_on_c, 9, 51, 70
1, 46809, Note_on_c, 1, 45, 75
1, 46836, Note_on_c, 0, 64, 38
1, 46849, Note_on_c, 0, 64, 0
1, 46889, Note_on_c, 9, 51, 0
1, 46895, Note_on_c, 1, 36, 38
1, 46899, Note_on_c, 0, 54, 25
1, 46900, Note_on_c, 1, 45, 0
1, 46900, Note_on_c, 0, 57, 35
1, 46908, Note_on_c, 9, 38, 64
1, 46911, Note_on_c, 1, 36, 0
1, 46914, Note_on_c, 0, 57, 0
1, 46922, Note_on_c, 9, 51, 84
1, 46923, Note_on_c, 1, 46, 82
1, 46924, Note_on_c, 9, 38, 0
1, 46933, Note_on_c, 0, 54, 0
1, 46988, Note_on_c, 9, 38, 68
1, 46995, Note_on_c, 9, 51, 0
1, 47010, Note_on_c, 9, 38, 0
1, 47011, Note_on_c, 9, 51, 63
1, 47025, Note_on_c, 1, 46, 0
1, 47030, Note_on_c, 9, 51, 0
1, 47045, Note_on_c, 1, 47, 78
1, 47046, Note_on_c, 9, 51, 74
1, 47048, Note_on_c, 9, 53, 79
1, 47107, Note_on_c, 9, 51, 0
1, 47116, Note_on_c, 9, 53, 0
1, 47131, Note_on_c, 9, 51, 63
1, 47155, Note_on_c, 9, 51, 0
1, 47163, Note_on_c, 1, 42, 62
1, 47172, Note_on_c, 9, 51, 47
1, 47219, Note_on_c, 9, 51, 0
1, 47248, Note_on_c, 1, 47, 0
1, 47250, Note_on_c, 1, 42, 0
1, 47250, Note_on_c, 9, 51, 85
1, 47251, Note_on_c, 9, 53, 79
1, 47280, Note_on_c, 0, 63, 35
1, 47282, Note_on_c, 0, 65, 96
1, 47284, Note_on_c, 1, 39, 71
1, 47287, Note_on_c, 0, 63, 0
1, 47322, Note_on_c, 0, 67, 66
1, 47326, Note_on_c, 0, 65, 0
1, 47327, Note_on_c, 9, 38, 46
1, 47334, Note_on_c, 9, 38, 0
1, 47343, Note_on_c, 9, 51, 0
1, 47348, Note_on_c, 0, 67, 0
1, 47358, Note_on_c, 9, 53, 0
1, 47363, Note_on_c, 0, 69, 84
1, 47363, Note_on_c, 9, 36, 38
1, 47370, Note_on_c, 0, 63, 39
1, 47370, Note_on_c, 9, 51, 43
1, 47372, Note_on_c, 9, 36, 0
1, 47380, Note_on_c, 9, 51, 0
1, 47387, Note_on_c, 0, 63, 0
1, 47389, Note_on_c, 1, 39, 0
1, 47392, Note_on_c, 0, 69, 0
1, 47400, Note_on_c, 9, 38, 54
1, 47407, Note_on_c, 1, 39, 74
1, 47409, Note_on_c, 0, 71, 58
1, 47410, Note_on_c, 9, 51, 82
1, 47412, Note_on_c, 9, 38, 0
1, 47414, Note_on_c, 9, 53, 74
1, 47438, Note_on_c, 0, 71, 0
1, 47438, Note_on_c, 9, 38, 46
1, 47453, Note_on_c, 9, 38, 0
1, 47479, Note_on_c, 9, 51, 0
1, 47482, Note_on_c, 9, 36, 45
1, 47492, Note_on_c, 0, 69, 63
1, 47497, Note_on_c, 9, 36, 0
1, 47505, Note_on_c, 9, 53, 0
1, 47516, Note_on_c, 0, 62, 41
1, 47519, Note_on_c, 1, 39, 0
1, 47522, Note_on_c, 0, 69, 0
1, 47525, Note_on_c, 0, 62, 0
1, 47527, Note_on_c, 9, 51, 40
1, 47528, Note_on_c, 1, 40, 67
1, 47550, Note_on_c, 0, 67, 56
1, 47552, Note_on_c, 9, 51, 0
1, 47590, Note_on_c, 0, 67, 0
1, 47606, Note_on_c, 9, 51, 52
1, 47608, Note_on_c, 9, 53, 53
1, 47614, Note_on_c, 9, 40, 58
1, 47618, Note_on_c, 1, 39, 43
1, 47619, Note_on_c, 0, 66, 64
1, 47621, Note_on_c, 9, 53, 0
1, 47623, Note_on_c, 9, 40, 0
1, 47624, Note_on_c, 9, 51, 0
1, 47640, Note_on_c, 1, 40, 0
1, 47649, Note_on_c, 1, 39, 0
1, 47649, Note_on_c, 0, 66, 0
1, 47650, Note_on_c, 1, 47, 90
1, 47655, Note_on_c, 9, 53, 44
1, 47655, Note_on_c, 9, 51, 45
1, 47665, Note_on_c, 0, 69, 76
1, 47707, Note_on_c, 9, 51, 0
1, 47734, Note_on_c, 9, 51, 39
1, 47737, Note_on_c, 9, 53, 0
1, 47738, Note_on_c, 0, 66, 61
1, 47739, Note_on_c, 0, 62, 58
1, 47740, Note_on_c, 0, 69, 0
1, 47741, Note_on_c, 1, 39, 31
1, 47748, Note_on_c, 0, 62, 0
1, 47748, Note_on_c, 0, 59, 30
1, 47751, Note_on_c, 1, 47, 0
1, 47754, Note_on_c, 9, 51, 0
1, 47759, Note_on_c, 0, 66, 0
1, 47759, Note_on_c, 0, 59, 0
1, 47767, Note_on_c, 1, 39, 0
1, 47770, Note_on_c, 1, 44, 60
1, 47777, Note_on_c, 9, 51, 58
1, 47783, Note_on_c, 9, 53, 65
1, 47786, Note_on_c, 0, 67, 67
1, 47830, Note_on_c, 9, 51, 0
1, 47840, Note_on_c, 9, 53, 0
1, 47847, Note_on_c, 9, 38, 46
1, 47855, Note_on_c, 0, 64, 66
1, 47858, Note_on_c, 9, 51, 64
1, 47860, Note_on_c, 9, 38, 0
1, 47861, Note_on_c, 9, 53, 50
1, 47866, Note_on_c, 1, 39, 20
1, 47872, Note_on_c, 1, 44, 0
1, 47873, Note_on_c, 0, 67, 0
1, 47881, Note_on_c, 9, 51, 0
1, 47884, Note_on_c, 0, 64, 0
1, 47885, Note_on_c, 1, 39, 0
1, 47889, Note_on_c, 9, 53, 0
1, 47895, Note_on_c, 1, 46, 43
1, 47899, Note_on_c, 1, 45, 73
1, 47904, Note_on_c, 0, 59, 26
1, 47907, Note_on_c, 9, 53, 34
1, 47909, Note_on_c, 9, 51, 39
1, 47933, Note_on_c, 1, 45, 0
1, 47946, Note_on_c, 9, 51, 0
1, 47957, Note_on_c, 0, 59, 0
1, 47960, Note_on_c, 9, 53, 0
1, 47966, Note_on_c, 1, 46, 0
1, 47967, Note_on_c, 1, 39, 39
1, 47974, Note_on_c, 9, 51, 48
1, 47976, Note_on_c, 9, 38, 56
1, 47984, Note_on_c, 0, 59, 57
1, 47989, Note_on_c, 9, 51, 0
1, 47990, Note_on_c, 1, 39, 0
1, 47997, Note_on_c, 9, 38, 0
1, 48004, Note_on_c, 0, 59, 0
1, 48011, Note_on_c, 1, 45, 77
1, 48016, Note_on_c, 9, 51, 40
1, 48021, Note_on_c, 9, 53, 36
1, 48033, Note_on_c, 0, 60, 56
1, 48054, Note_on_c, 0, 60, 0
1, 48069, Note_on_c, 9, 51, 0
1, 48071, Note_on_c, 0, 64, 66
1, 48082, Note_on_c, 9, 53, 0
1, 48095, Note_on_c, 9, 51, 49
1, 48099, Note_on_c, 1, 39, 34
1, 48100, Note_on_c, 1, 45, 0
1, 48102, Note_on_c, 0, 64, 0
1, 48110, Note_on_c, 1, 39, 0
1, 48110, Note_on_c, 0, 67, 63
1, 48115, Note_on_c, 9, 51, 0
1, 48125, Note_on_c, 0, 67, 0
1, 48125, Note_on_c, 1, 45, 71
1, 48135, Note_on_c, 9, 51, 59
1, 48136, Note_on_c, 9, 53, 71
1, 48152, Note_on_c, 0, 71, 57
1, 48172, Note_on_c, 0, 71, 0
1, 48193, Note_on_c, 0, 76, 68
1, 48215, Note_on_c, 9, 51, 0
1, 48220, Note_on_c, 9, 53, 0
1, 48230, Note_on_c, 0, 76, 0
1, 48236, Note_on_c, 0, 64, 55
1, 48237, Note_on_c, 0, 60, 55
1, 48238, Note_on_c, 1, 45, 0
1, 48239, Note_on_c, 0, 59, 48
1, 48240, Note_on_c, 0, 71, 61
1, 48244, Note_on_c, 0, 55, 34
1, 48249, Note_on_c, 9, 51, 57
1, 48251, Note_on_c, 1, 38, 54
1, 48252, Note_on_c, 9, 53, 48
1, 48255, Note_on_c, 0, 64, 0
1, 48256, Note_on_c, 0, 71, 0
1, 48262, Note_on_c, 0, 60, 0
1, 48268, Note_on_c, 0, 59, 0
1, 48280, Note_on_c, 0, 55, 0
1, 48284, Note_on_c, 0, 72, 69
1, 48304, Note_on_c, 0, 72, 0
1, 48306, Note_on_c, 9, 51, 0
1, 48312, Note_on_c, 9, 53, 0
1, 48320, Note_on_c, 0, 76, 74
1, 48326, Note_on_c, 1, 37, 51
1, 48338, Note_on_c, 9, 51, 44
1, 48344, Note_on_c, 0, 76, 0
1, 48346, Note_on_c, 9, 51, 0
1, 48359, Note_on_c, 1, 37, 0
1, 48363, Note_on_c, 0, 78, 64
1, 48364, Note_on_c, 1, 38, 0
1, 48365, Note_on_c, 9, 51, 55
1, 48366, Note_on_c, 0, 60, 49
1, 48367, Note_on_c, 0, 64, 56
1, 48368, Note_on_c, 9, 53, 57
1, 48369, Note_on_c, 0, 79, 60
1, 48369, Note_on_c, 1, 50, 80
1, 48372, Note_on_c, 0, 54, 35
1, 48375, Note_on_c, 9, 38, 16
1, 48377, Note_on_c, 0, 79, 0
1, 48385, Note_on_c, 9, 38, 0
1, 48391, Note_on_c, 0, 64, 0
1, 48393, Note_on_c, 0, 78, 0
1, 48400, Note_on_c, 0, 60, 0
1, 48405, Note_on_c, 9, 38, 40
1, 48417, Note_on_c, 9, 38, 0
1, 48417, Note_on_c, 0, 81, 82
1, 48442, Note_on_c, 9, 36, 52
1, 48444, Note_on_c, 1, 38, 33
1, 48449, Note_on_c, 9, 36, 0
1, 48453, Note_on_c, 0, 54, 0
1, 48457, Note_on_c, 0, 81, 0
1, 48460, Note_on_c, 9, 51, 0
1, 48466, Note_on_c, 9, 53, 0
1, 48468, Note_on_c, 1, 38, 0
1, 48475, Note_on_c, 0, 79, 64
1, 48482, Note_on_c, 0, 59, 41
1, 48484, Note_on_c, 0, 62, 46
1, 48484, Note_on_c, 9, 51, 71
1, 48486, Note_on_c, 0, 54, 35
1, 48488, Note_on_c, 1, 50, 0
1, 48488, Note_on_c, 1, 42, 71
1, 48510, Note_on_c, 0, 79, 0
1, 48515, Note_on_c, 1, 42, 0
1, 48525, Note_on_c, 1, 43, 30
1, 48532, Note_on_c, 0, 78, 50
1, 48573, Note_on_c, 9, 51, 0
1, 48582, Note_on_c, 0, 78, 0
1, 48584, Note_on_c, 1, 43, 0
1, 48588, Note_on_c, 1, 38, 26
1, 48603, Note_on_c, 9, 51, 77
1, 48605, Note_on_c, 1, 38, 0
1, 48610, Note_on_c, 1, 43, 64
1, 48614, Note_on_c, 0, 74, 46
1, 48634, Note_on_c, 0, 62, 0
1, 48654, Note_on_c, 0, 59, 0
1, 48670, Note_on_c, 9, 51, 0
1, 48692, Note_on_c, 0, 74, 0
1, 48692, Note_on_c, 0, 62, 39
1, 48695, Note_on_c, 9, 51, 48
1, 48696, Note_on_c, 0, 71, 60
1, 48696, Note_on_c, 0, 59, 39
1, 48708, Note_on_c, 1, 38, 35
1, 48714, Note_on_c, 9, 51, 0
1, 48715, Note_on_c, 1, 43, 0
1, 48721, Note_on_c, 1, 38, 0
1, 48725, Note_on_c, 1, 50, 71
1, 48729, Note_on_c, 9, 51, 71
1, 48815, Note_on_c, 1, 50, 0
1, 48818, Note_on_c, 9, 51, 0
1, 48829, Note_on_c, 1, 47, 77
1, 48841, Note_on_c, 0, 59, 0
1, 48845, Control_c, 0, 64, 127
1, 48849, Note_on_c, 9, 51, 84
1, 48850, Note_on_c, 0, 54, 0
1, 48855, Note_on_c, 0, 62, 0
1, 48861, Note_on_c, 1, 47, 0
1, 48903, Note_on_c, 0, 71, 0
1, 48914, Note_on_c, 9, 51, 0
1, 48935, Note_on_c, 9, 38, 55
1, 48936, Note_on_c, 9, 51, 46
1, 48938, Note_on_c, 1, 48, 105
1, 48950, Note_on_c, 9, 51, 0
1, 48953, Note_on_c, 9, 38, 0
1, 48956, Control_c, 0, 64, 0
1, 48965, Note_on_c, 9, 51, 72
1, 48970, Control_c, 0, 64, 127
1, 48978, Note_on_c, 9, 38, 35
1, 48997, Note_on_c, 9, 38, 0
1, 49048, Note_on_c, 0, 62, 72
1, 49048, Note_on_c, 0, 74, 80
1, 49050, Note_on_c, 0, 63, 71
1, 49050, Note_on_c, 0, 67, 69
1, 49051, Note_on_c, 9, 36, 51
1, 49054, Note_on_c, 0, 70, 47
1, 49056, Note_on_c, 9, 51, 0
1, 49056, Note_on_c, 1, 38, 55
1, 49058, Note_on_c, 1, 48, 0
1, 49064, Control_c, 0, 64, 0
1, 49072, Note_on_c, 1, 38, 0
1, 49072, Note_on_c, 9, 36, 0
1, 49075, Note_on_c, 0, 67, 0
1, 49077, Note_on_c, 0, 70, 0
1, 49078, Note_on_c, 0, 63, 0
1, 49079, Note_on_c, 0, 74, 0
1, 49080, Note_on_c, 0, 62, 0
1, 49086, Note_on_c, 1, 46, 68
1, 49087, Note_on_c, 9, 51, 78
1, 49094, Note_on_c, 9, 36, 42
1, 49103, Note_on_c, 0, 60, 45
1, 49109, Note_on_c, 0, 72, 35
1, 49127, Note_on_c, 9, 36, 0
1, 49139, Control_c, 0, 64, 127
1, 49140, Note_on_c, 0, 72, 0
1, 49151, Note_on_c, 9, 51, 0
1, 49170, Note_on_c, 0, 74, 68
1, 49170, Note_on_c, 0, 63, 69
1, 49172, Control_c, 0, 64, 0
1, 49173, Note_on_c, 0, 70, 59
1, 49173, Note_on_c, 0, 67, 62
1, 49173, Note_on_c, 1, 38, 34
1, 49176, Note_on_c, 0, 62, 59
1, 49178, Note_on_c, 9, 51, 52
1, 49186, Note_on_c, 1, 38, 0
1, 49193, Note_on_c, 0, 60, 0
1, 49193, Note_on_c, 1, 46, 0
1, 49194, Note_on_c, 9, 51, 0
1, 49198, Note_on_c, 0, 67, 0
1, 49199, Note_on_c, 0, 63, 0
1, 49199, Note_on_c, 0, 62, 0
1, 49200, Note_on_c, 0, 74, 0
1, 49208, Note_on_c, 1, 43, 58
1, 49208, Note_on_c, 9, 51, 71
1, 49209, Note_on_c, 0, 70, 0
1, 49222, Note_on_c, 0, 74, 62
1, 49225, Note_on_c, 0, 62, 53
1, 49227, Note_on_c, 0, 70, 52
1, 49228, Note_on_c, 0, 63, 60
1, 49231, Note_on_c, 0, 67, 44
1, 49259, Control_c, 0, 64, 127
1, 49286, Note_on_c, 9, 51, 0
1, 49305, Note_on_c, 0, 63, 0
1, 49305, Control_c, 0, 64, 0
1, 49311, Note_on_c, 0, 67, 0
1, 49314, Note_on_c, 1, 43, 0
1, 49314, Note_on_c, 0, 74, 0
1, 49317, Note_on_c, 0, 70, 0
1, 49327, Note_on_c, 9, 51, 79
1, 49328, Note_on_c, 0, 63, 37
1, 49329, Note_on_c, 1, 36, 66
1, 49331, Note_on_c, 0, 72, 58
1, 49331, Note_on_c, 0, 70, 15
1, 49332, Note_on_c, 0, 60, 44
1, 49336, Note_on_c, 0, 63, 0
1, 49336, Control_c, 0, 64, 127
1, 49340, Note_on_c, 0, 62, 0
1, 49345, Note_on_c, 0, 60, 0
1, 49355, Note_on_c, 0, 70, 0
1, 49356, Note_on_c, 0, 72, 0
1, 49410, Note_on_c, 9, 51, 0
1, 49410, Note_on_c, 0, 76, 45
1, 49411, Note_on_c, 0, 58, 39
1, 49412, Note_on_c, 0, 67, 37
1, 49412, Note_on_c, 0, 70, 53
1, 49412, Note_on_c, 0, 73, 29
1, 49415, Control_c, 0, 64, 0
1, 49416, Note_on_c, 0, 61, 39
1, 49416, Note_on_c, 0, 64, 44
1, 49438, Note_on_c, 1, 36, 0
1, 49449, Note_on_c, 9, 51, 80
1, 49450, Note_on_c, 1, 37, 64
1, 49468, Control_c, 0, 64, 127
1, 49476, Note_on_c, 9, 51, 0
1, 49530, Note_on_c, 9, 51, 86
1, 49542, Note_on_c, 9, 53, 40
1, 49561, Note_on_c, 0, 64, 0
1, 49572, Note_on_c, 1, 49, 71
1, 49578, Note_on_c, 0, 61, 0
1, 49582, Note_on_c, 1, 37, 0
1, 49588, Note_on_c, 0, 58, 0
1, 49634, Note_on_c, 9, 51, 0
1, 49644, Note_on_c, 0, 67, 0
1, 49645, Note_on_c, 9, 53, 0
1, 49655, Note_on_c, 9, 51, 52
1, 49656, Note_on_c, 9, 38, 45
1, 49659, Note_on_c, 1, 37, 23
1, 49664, Note_on_c, 9, 38, 0
1, 49668, Note_on_c, 0, 70, 0
1, 49673, Note_on_c, 9, 51, 0
1, 49680, Note_on_c, 0, 76, 0
1, 49681, Note_on_c, 0, 73, 0
1, 49681, Note_on_c, 1, 49, 0
1, 49682, Control_c, 0, 64, 0
1, 49683, Note_on_c, 1, 37, 0
1, 49690, Note_on_c, 1, 52, 75
1, 49692, Note_on_c, 0, 64, 57
1, 49693, Note_on_c, 0, 61, 38
1, 49694, Note_on_c, 0, 58, 46
1, 49699, Note_on_c, 9, 53, 74
1, 49699, Note_on_c, 9, 51, 80
1, 49701, Note_on_c, 9, 38, 44
1, 49703, Note_on_c, 0, 64, 0
1, 49710, Note_on_c, 9, 38, 0
1, 49711, Note_on_c, 0, 61, 0
1, 49721, Note_on_c, 0, 58, 0
1, 49761, Note_on_c, 9, 51, 0
1, 49765, Note_on_c, 1, 52, 0
1, 49769, Note_on_c, 9, 38, 60
1, 49770, Note_on_c, 0, 76, 61
1, 49783, Note_on_c, 9, 38, 0
1, 49783, Note_on_c, 1, 37, 25
1, 49791, Note_on_c, 9, 53, 0
1, 49794, Note_on_c, 1, 37, 0
1, 49796, Note_on_c, 0, 76, 0
1, 49810, Note_on_c, 1, 37, 69
1, 49811, Note_on_c, 9, 51, 59
1, 49824, Note_on_c, 0, 79, 55
1, 49845, Note_on_c, 0, 79, 0
1, 49849, Note_on_c, 9, 51, 0
1, 49886, Note_on_c, 9, 51, 83
1, 49887, Note_on_c, 9, 38, 58
1, 49888, Note_on_c, 9, 53, 76
1, 49891, Note_on_c, 0, 82, 80
1, 49893, Note_on_c, 1, 37, 0
1, 49894, Note_on_c, 1, 38, 84
1, 49896, Note_on_c, 9, 38, 0
1, 49925, Note_on_c, 0, 82, 0
1, 49929, Note_on_c, 9, 57, 45
1, 49939, Note_on_c, 9, 57, 0
1, 49945, Note_on_c, 0, 81, 62
1, 49975, Note_on_c, 9, 51, 0
1, 49981, Note_on_c, 0, 81, 0
1, 49991, Note_on_c, 0, 82, 57
1, 49997, Note_on_c, 9, 53, 0
1, 49997, Note_on_c, 1, 38, 0
1, 50008, Note_on_c, 1, 38, 32
1, 50010, Note_on_c, 1, 36, 32
1, 50015, Note_on_c, 9, 51, 46
1, 50019, Note_on_c, 0, 82, 0
1, 50025, Note_on_c, 9, 51, 0
1, 50028, Note_on_c, 1, 36, 0
1, 50048, Note_on_c, 1, 50, 84
1, 50054, Note_on_c, 9, 51, 77
1, 50057, Note_on_c, 9, 53, 69
1, 50069, Note_on_c, 1, 38, 0
1, 50127, Note_on_c, 1, 38, 26
1, 50129, Note_on_c, 9, 38, 38
1, 50136, Note_on_c, 9, 38, 0
1, 50137, Note_on_c, 9, 51, 0
1, 50137, Note_on_c, 0, 65, 53
1, 50138, Note_on_c, 0, 62, 46
1, 50142, Note_on_c, 9, 53, 0
1, 50145, Note_on_c, 0, 60, 33
1, 50147, Note_on_c, 0, 65, 0
1, 50152, Note_on_c, 1, 50, 0
1, 50158, Note_on_c, 0, 60, 0
1, 50161, Note_on_c, 1, 38, 0
1, 50166, Note_on_c, 0, 62, 0
1, 50170, Note_on_c, 9, 51, 55
1, 50171, Note_on_c, 1, 53, 71
1, 50181, Note_on_c, 0, 81, 80
1, 50194, Note_on_c, 9, 51, 0
1, 50209, Note_on_c, 0, 82, 50
1, 50224, Note_on_c, 0, 81, 0
1, 50230, Note_on_c, 0, 83, 64
1, 50239, Note_on_c, 0, 82, 0
1, 50242, Note_on_c, 9, 51, 57
1, 50245, Note_on_c, 9, 38, 50
1, 50246, Note_on_c, 9, 53, 65
1, 50251, Note_on_c, 9, 38, 0
1, 50254, Note_on_c, 1, 53, 0
1, 50256, Note_on_c, 0, 83, 0
1, 50261, Note_on_c, 0, 84, 76
1, 50267, Note_on_c, 9, 51, 0
1, 50275, Note_on_c, 0, 65, 40
1, 50280, Note_on_c, 0, 62, 32
1, 50284, Note_on_c, 0, 65, 0
1, 50288, Note_on_c, 0, 84, 0
1, 50291, Note_on_c, 1, 38, 70
1, 50292, Note_on_c, 9, 53, 0
1, 50293, Note_on_c, 9, 51, 60
1, 50294, Note_on_c, 0, 62, 0
1, 50313, Note_on_c, 0, 77, 63
1, 50328, Note_on_c, 9, 53, 19
1, 50343, Note_on_c, 9, 51, 0
1, 50349, Note_on_c, 9, 53, 0
1, 50363, Note_on_c, 0, 77, 0
1, 50363, Note_on_c, 9, 38, 38
1, 50366, Note_on_c, 1, 38, 0
1, 50371, Note_on_c, 9, 38, 0
1, 50373, Note_on_c, 1, 39, 85
1, 50397, Note_on_c, 9, 51, 23
1, 50404, Note_on_c, 9, 53, 33
1, 50449, Note_on_c, 9, 51, 0
1, 50456, Note_on_c, 9, 38, 44
1, 50463, Note_on_c, 9, 38, 0
1, 50464, Note_on_c, 9, 53, 0
1, 50479, Note_on_c, 9, 51, 71
1, 50487, Note_on_c, 9, 53, 41
1, 50488, Note_on_c, 1, 37, 52
1, 50493, Note_on_c, 1, 39, 0
1, 50493, Note_on_c, 9, 38, 34
1, 50496, Note_on_c, 0, 62, 51
1, 50499, Note_on_c, 0, 51, 33
1, 50500, Note_on_c, 0, 58, 38
1, 50505, Note_on_c, 0, 55, 45
1, 50508, Note_on_c, 0, 62, 0
1, 50509, Note_on_c, 9, 51, 0
1, 50509, Note_on_c, 0, 51, 0
1, 50509, Note_on_c, 9, 53, 0
1, 50510, Note_on_c, 9, 38, 0
1, 50515, Note_on_c, 0, 55, 0
1, 50515, Note_on_c, 1, 39, 23
1, 50524, Note_on_c, 1, 51, 86
1, 50528, Note_on_c, 9, 51, 42
1, 50529, Note_on_c, 0, 58, 0
1, 50529, Note_on_c, 9, 53, 71
1, 50535, Note_on_c, 0, 74, 75
1, 50535, Note_on_c, 9, 38, 50
1, 50541, Note_on_c, 9, 38, 0
1, 50543, Note_on_c, 1, 37, 0
1, 50567, Note_on_c, 0, 75, 65
1, 50568, Note_on_c, 1, 39, 0
1, 50572, Note_on_c, 9, 36, 43
1, 50580, Note_on_c, 0, 74, 0
1, 50583, Note_on_c, 9, 36, 0
1, 50586, Note_on_c, 0, 76, 62
1, 50594, Note_on_c, 0, 75, 0
1, 50601, Note_on_c, 1, 39, 17
1, 50605, Note_on_c, 9, 36, 66
1, 50606, Note_on_c, 9, 51, 0
1, 50607, Note_on_c, 9, 53, 0
1, 50607, Note_on_c, 9, 38, 31
1, 50615, Note_on_c, 9, 38, 0
1, 50615, Note_on_c, 0, 76, 0
1, 50616, Note_on_c, 1, 51, 0
1, 50617, Note_on_c, 0, 77, 74
1, 50646, Note_on_c, 0, 77, 0
1, 50648, Note_on_c, 1, 39, 0
1, 50649, Note_on_c, 1, 55, 89
1, 50651, Note_on_c, 9, 51, 35
1, 50652, Note_on_c, 9, 36, 0
1, 50655, Note_on_c, 9, 53, 38
1, 50667, Note_on_c, 0, 74, 80
1, 50691, Note_on_c, 0, 74, 0
1, 50702, Note_on_c, 9, 51, 0
1, 50707, Note_on_c, 9, 53, 0
1, 50725, Note_on_c, 1, 55, 0
1, 50725, Note_on_c, 9, 51, 67
1, 50727, Note_on_c, 0, 70, 73
1, 50727, Note_on_c, 9, 53, 78
1, 50730, Note_on_c, 1, 38, 49
1, 50731, Note_on_c, 0, 62, 45
1, 50736, Note_on_c, 0, 58, 28
1, 50737, Note_on_c, 0, 55, 39
1, 50740, Note_on_c, 0, 62, 0
1, 50755, Note_on_c, 9, 53, 0
1, 50756, Note_on_c, 9, 51, 0
1, 50756, Note_on_c, 1, 38, 0
1, 50756, Note_on_c, 0, 70, 0
1, 50762, Note_on_c, 0, 58, 0
1, 50770, Note_on_c, 1, 39, 57
1, 50778, Note_on_c, 9, 38, 52
1, 50780, Note_on_c, 0, 67, 40
1, 50799, Note_on_c, 0, 55, 0
1, 50820, Note_on_c, 9, 38, 0
1, 50824, Note_on_c, 0, 67, 0
1, 50848, Note_on_c, 0, 63, 56
1, 50850, Note_on_c, 1, 40, 90
1, 50851, Note_on_c, 9, 51, 67
1, 50851, Note_on_c, 9, 53, 73
1, 50854, Note_on_c, 0, 58, 47
1, 50863, Note_on_c, 1, 39, 0
1, 50872, Note_on_c, 0, 58, 0
1, 50881, Note_on_c, 0, 63, 0
1, 50882, Note_on_c, 9, 51, 0
1, 50885, Note_on_c, 9, 53, 0
1, 50898, Note_on_c, 0, 62, 44
1, 50898, Note_on_c, 9, 51, 58
1, 50902, Note_on_c, 9, 53, 74
1, 50964, Note_on_c, 9, 53, 0
1, 50964, Note_on_c, 9, 51, 0
1, 50964, Note_on_c, 0, 62, 0
1, 50965, Note_on_c, 9, 38, 60
1, 50973, Note_on_c, 1, 39, 54
1, 50990, Note_on_c, 9, 38, 0
1, 51001, Note_on_c, 1, 55, 94
1, 51003, Note_on_c, 1, 39, 0
1, 51005, Note_on_c, 1, 40, 0
1, 51014, Note_on_c, 9, 51, 42
1, 51015, Note_on_c, 9, 53, 44
1, 51065, Note_on_c, 9, 51, 0
1, 51068, Note_on_c, 9, 53, 0
1, 51075, Note_on_c, 1, 39, 35
1, 51084, Note_on_c, 0, 55, 71
1, 51084, Note_on_c, 9, 51, 64
1, 51086, Note_on_c, 9, 53, 74
1, 51089, Note_on_c, 1, 55, 0
1, 51108, Note_on_c, 0, 55, 0
1, 51109, Note_on_c, 9, 53, 0
1, 51110, Note_on_c, 1, 39, 0
1, 51112, Note_on_c, 9, 51, 0
1, 51125, Note_on_c, 1, 58, 84
1, 51130, Note_on_c, 9, 51, 52
1, 51131, Note_on_c, 0, 57, 59
1, 51131, Note_on_c, 9, 53, 62
1, 51164, Note_on_c, 0, 57, 0
1, 51168, Note_on_c, 0, 58, 69
1, 51170, Note_on_c, 9, 44, 47
1, 51176, Note_on_c, 9, 44, 0
1, 51188, Note_on_c, 0, 58, 0
1, 51198, Note_on_c, 9, 53, 0
1, 51198, Note_on_c, 9, 38, 48
1, 51199, Note_on_c, 1, 55, 64
1, 51200, Note_on_c, 9, 51, 0
1, 51201, Note_on_c, 9, 44, 71
1, 51206, Note_on_c, 0, 62, 72
1, 51209, Note_on_c, 1, 39, 25
1, 51215, Note_on_c, 9, 38, 0
1, 51216, Note_on_c, 9, 44, 0
1, 51221, Note_on_c, 1, 58, 0
1, 51221, Note_on_c, 1, 39, 0
1, 51230, Note_on_c, 0, 58, 25
1, 51233, Note_on_c, 0, 62, 0
1, 51240, Note_on_c, 1, 55, 0
1, 51241, Note_on_c, 1, 52, 55
1, 51243, Note_on_c, 0, 66, 62
1, 51245, Note_on_c, 9, 51, 49
1, 51248, Note_on_c, 9, 53, 50
1, 51260, Note_on_c, 0, 66, 0
1, 51261, Note_on_c, 0, 58, 0
1, 51278, Note_on_c, 0, 69, 78
1, 51282, Note_on_c, 9, 44, 50
1, 51284, Note_on_c, 1, 52, 0
1, 51290, Note_on_c, 9, 44, 0
1, 51297, Note_on_c, 9, 51, 0
1, 51303, Note_on_c, 9, 53, 0
1, 51310, Note_on_c, 0, 69, 0
1, 51312, Note_on_c, 1, 44, 56
1, 51314, Note_on_c, 0, 66, 55
1, 51316, Note_on_c, 9, 44, 50
1, 51319, Note_on_c, 9, 51, 63
1, 51321, Note_on_c, 9, 53, 79
1, 51326, Note_on_c, 9, 44, 0
1, 51335, Note_on_c, 0, 66, 0
1, 51346, Note_on_c, 0, 67, 74
1, 51350, Note_on_c, 9, 51, 0
1, 51352, Note_on_c, 1, 44, 0
1, 51353, Note_on_c, 9, 53, 0
1, 51361, Note_on_c, 9, 38, 32
1, 51364, Note_on_c, 9, 38, 39
1, 51365, Note_on_c, 1, 45, 62
1, 51370, Note_on_c, 9, 38, 0
1, 51372, Note_on_c, 0, 67, 0
1, 51383, Note_on_c, 0, 69, 65
1, 51405, Note_on_c, 9, 38, 0
1, 51411, Note_on_c, 0, 69, 0
1, 51419, Note_on_c, 0, 70, 59
1, 51429, Note_on_c, 0, 70, 0
1, 51436, Note_on_c, 9, 38, 79
1, 51441, Note_on_c, 9, 51, 59
1, 51442, Note_on_c, 9, 53, 68
1, 51446, Note_on_c, 0, 72, 75
1, 51461, Note_on_c, 1, 45, 0
1, 51470, Note_on_c, 0, 66, 34
1, 51471, Note_on_c, 9, 51, 0
1, 51472, Note_on_c, 0, 61, 30
1, 51474, Note_on_c, 9, 53, 0
1, 51474, Note_on_c, 1, 33, 59
1, 51475, Note_on_c, 9, 38, 0
1, 51476, Note_on_c, 0, 72, 0
1, 51480, Note_on_c, 0, 77, 48
1, 51480, Note_on_c, 0, 76, 51
1, 51483, Note_on_c, 0, 66, 0
1, 51487, Note_on_c, 9, 51, 59
1, 51490, Note_on_c, 9, 53, 56
1, 51503, Note_on_c, 0, 76, 0
1, 51511, Note_on_c, 0, 82, 64
1, 51513, Note_on_c, 0, 77, 0
1, 51527, Note_on_c, 0, 61, 0
1, 51528, Note_on_c, 0, 82, 0
1, 51545, Note_on_c, 0, 84, 78
1, 51553, Note_on_c, 9, 53, 0
1, 51556, Note_on_c, 9, 51, 0
1, 51559, Note_on_c, 9, 38, 45
1, 51576, Note_on_c, 0, 89, 68
1, 51578, Note_on_c, 9, 38, 0
1, 51583, Note_on_c, 0, 84, 0
1, 51596, Note_on_c, 1, 40, 64
1, 51598, Note_on_c, 0, 66, 39
1, 51602, Note_on_c, 0, 61, 30
1, 51603, Note_on_c, 1, 33, 0
1, 51605, Note_on_c, 9, 51, 43
1, 51607, Note_on_c, 9, 53, 43
1, 51609, Note_on_c, 0, 94, 56
1, 51613, Note_on_c, 0, 66, 0
1, 51614, Note_on_c, 0, 89, 0
1, 51639, Note_on_c, 0, 94, 0
1, 51649, Note_on_c, 0, 96, 80
1, 51653, Note_on_c, 0, 84, 63
1, 51655, Note_on_c, 0, 61, 0
1, 51659, Note_on_c, 9, 51, 0
1, 51664, Note_on_c, 9, 53, 0
1, 51678, Note_on_c, 9, 51, 57
1, 51679, Note_on_c, 9, 53, 73
1, 51680, Note_on_c, 9, 38, 33
1, 51689, Note_on_c, 9, 38, 0
1, 51691, Note_on_c, 0, 84, 0
1, 51691, Note_on_c, 0, 96, 0
1, 51703, Note_on_c, 9, 53, 0
1, 51704, Note_on_c, 1, 40, 0
1, 51706, Note_on_c, 9, 51, 0
1, 51718, Note_on_c, 1, 37, 72
1, 51725, Note_on_c, 9, 44, 31
1, 51726, Note_on_c, 0, 96, 83
1, 51727, Note_on_c, 0, 66, 60
1, 51728, Note_on_c, 0, 61, 49
1, 51730, Note_on_c, 0, 84, 72
1, 51732, Note_on_c, 9, 44, 0
1, 51732, Note_on_c, 0, 55, 49
1, 51758, Note_on_c, 9, 46, 69
1, 51775, Note_on_c, 0, 55, 0
1, 51776, Note_on_c, 9, 46, 0
1, 51779, Note_on_c, 0, 66, 0
1, 51780, Note_on_c, 0, 96, 0
1, 51791, Note_on_c, 0, 84, 0
1, 51801, Note_on_c, 0, 61, 0
1, 51805, Note_on_c, 9, 51, 38
1, 51807, Note_on_c, 9, 53, 42
1, 51808, Note_on_c, 0, 94, 77
1, 51815, Note_on_c, 1, 34, 28
1, 51816, Note_on_c, 9, 53, 0
1, 51816, Note_on_c, 9, 51, 0
1, 51817, Note_on_c, 0, 84, 34
1, 51828, Note_on_c, 1, 37, 0
1, 51831, Note_on_c, 0, 84, 0
1, 51832, Note_on_c, 1, 34, 0
1, 51840, Note_on_c, 0, 94, 0
1, 51841, Note_on_c, 9, 53, 62
1, 51842, Note_on_c, 1, 38, 67
1, 51842, Note_on_c, 9, 51, 68
1, 51845, Note_on_c, 9, 44, 48
1, 51853, Note_on_c, 9, 44, 0
1, 51858, Note_on_c, 0, 84, 32
1, 51859, Note_on_c, 0, 93, 73
1, 51884, Note_on_c, 9, 46, 68
1, 51895, Note_on_c, 9, 46, 0
1, 51898, Note_on_c, 9, 51, 0
1, 51899, Note_on_c, 0, 84, 0
1, 51911, Note_on_c, 0, 93, 0
1, 51926, Note_on_c, 0, 60, 62
1, 51927, Note_on_c, 0, 57, 55
1, 51929, Note_on_c, 0, 53, 51
1, 51934, Note_on_c, 0, 60, 0
1, 51935, Note_on_c, 0, 50, 22
1, 51940, Note_on_c, 1, 38, 0
1, 51946, Note_on_c, 0, 50, 0
1, 51947, Note_on_c, 9, 53, 0
1, 51950, Note_on_c, 0, 57, 0
1, 51958, Note_on_c, 1, 53, 83
1, 51961, Note_on_c, 0, 53, 0
1, 51964, Note_on_c, 1, 38, 68
1, 51971, Note_on_c, 9, 51, 74
1, 51975, Note_on_c, 9, 38, 55
1, 51987, Note_on_c, 9, 38, 0
1, 52046, Note_on_c, 9, 38, 70
1, 52058, Note_on_c, 1, 38, 0
1, 52064, Note_on_c, 9, 51, 0
1, 52066, Note_on_c, 9, 38, 0
1, 52077, Note_on_c, 1, 37, 61
1, 52083, Note_on_c, 1, 52, 60
1, 52088, Note_on_c, 9, 51, 70
1, 52095, Note_on_c, 1, 52, 0
1, 52157, Note_on_c, 9, 51, 0
1, 52169, Note_on_c, 0, 59, 58
1, 52177, Note_on_c, 0, 59, 0
1, 52182, Note_on_c, 1, 37, 0
1, 52200, Note_on_c, 9, 51, 94
1, 52202, Note_on_c, 1, 37, 67
1, 52205, Note_on_c, 0, 80, 70
1, 52206, Note_on_c, 0, 94, 78
1, 52208, Note_on_c, 0, 87, 71
1, 52216, Note_on_c, 1, 53, 0
1, 52232, Note_on_c, 0, 80, 0
1, 52232, Note_on_c, 0, 87, 0
1, 52236, Note_on_c, 0, 94, 0
1, 52268, Note_on_c, 9, 51, 0
1, 52283, Note_on_c, 9, 38, 67
1, 52285, Note_on_c, 0, 58, 75
1, 52287, Note_on_c, 0, 67, 75
1, 52287, Note_on_c, 0, 94, 78
1, 52287, Note_on_c, 0, 63, 58
1, 52289, Note_on_c, 9, 51, 55
1, 52291, Note_on_c, 0, 87, 74
1, 52292, Note_on_c, 0, 80, 46
1, 52292, Note_on_c, 0, 82, 45
1, 52302, Note_on_c, 1, 34, 20
1, 52306, Note_on_c, 9, 51, 0
1, 52306, Note_on_c, 1, 37, 0
1, 52310, Note_on_c, 0, 82, 0
1, 52313, Note_on_c, 9, 38, 0
1, 52314, Note_on_c, 1, 34, 0
1, 52317, Note_on_c, 0, 80, 0
1, 52318, Note_on_c, 0, 87, 0
1, 52319, Note_on_c, 9, 51, 81
1, 52324, Note_on_c, 1, 36, 70
1, 52326, Note_on_c, 0, 94, 0
1, 52333, Note_on_c, 9, 38, 43
1, 52347, Note_on_c, 0, 93, 54
1, 52348, Note_on_c, 0, 87, 45
1, 52349, Note_on_c, 0, 81, 50
1, 52381, Note_on_c, 0, 81, 0
1, 52382, Note_on_c, 0, 93, 0
1, 52383, Note_on_c, 0, 87, 0
1, 52388, Note_on_c, 9, 38, 0
1, 52396, Note_on_c, 0, 67, 0
1, 52397, Note_on_c, 0, 63, 0
1, 52404, Note_on_c, 9, 38, 48
1, 52407, Note_on_c, 9, 51, 0
1, 52415, Note_on_c, 0, 87, 67
1, 52416, Note_on_c, 0, 93, 67
1, 52416, Note_on_c, 0, 67, 36
1, 52417, Note_on_c, 0, 81, 56
1, 52423, Note_on_c, 9, 38, 0
1, 52423, Note_on_c, 0, 63, 30
1, 52425, Note_on_c, 0, 93, 0
1, 52427, Note_on_c, 1, 37, 44
1, 52430, Note_on_c, 0, 81, 0
1, 52440, Note_on_c, 9, 51, 85
1, 52443, Note_on_c, 1, 36, 0
1, 52443, Note_on_c, 0, 87, 0
1, 52445, Note_on_c, 1, 51, 74
1, 52447, Note_on_c, 0, 67, 0
1, 52449, Note_on_c, 9, 36, 56
1, 52450, Note_on_c, 1, 37, 0
1, 52465, Note_on_c, 0, 92, 46
1, 52469, Note_on_c, 0, 80, 37
1, 52470, Note_on_c, 0, 87, 45
1, 52484, Note_on_c, 0, 80, 0
1, 52485, Note_on_c, 0, 92, 0
1, 52490, Note_on_c, 0, 87, 0
1, 52501, Note_on_c, 9, 36, 0
1, 52508, Note_on_c, 0, 58, 0
1, 52511, Note_on_c, 9, 51, 0
1, 52516, Note_on_c, 0, 63, 0
1, 52519, Note_on_c, 1, 39, 42
1, 52526, Note_on_c, 9, 36, 80
1, 52532, Note_on_c, 9, 51, 59
1, 52535, Note_on_c, 0, 66, 65
1, 52536, Note_on_c, 0, 63, 46
1, 52537, Note_on_c, 0, 80, 71
1, 52537, Note_on_c, 0, 92, 75
1, 52539, Note_on_c, 1, 39, 0
1, 52540, Note_on_c, 0, 87, 64
1, 52541, Note_on_c, 1, 51, 0
1, 52541, Note_on_c, 0, 61, 37
1, 52541, Note_on_c, 0, 57, 52
1, 52549, Note_on_c, 9, 51, 0
1, 52561, Note_on_c, 0, 80, 0
1, 52561, Note_on_c, 1, 53, 66
1, 52563, Note_on_c, 0, 92, 0
1, 52563, Note_on_c, 9, 36, 0
1, 52567, Note_on_c, 0, 66, 0
1, 52567, Note_on_c, 9, 51, 67
1, 52568, Note_on_c, 0, 87, 0
1, 52586, Note_on_c, 0, 66, 38
1, 52590, Note_on_c, 0, 90, 37
1, 52595, Note_on_c, 0, 78, 28
1, 52599, Note_on_c, 0, 85, 46
1, 52638, Note_on_c, 0, 85, 0
1, 52638, Note_on_c, 0, 57, 0
1, 52641, Note_on_c, 0, 66, 0
1, 52642, Note_on_c, 0, 61, 0
1, 52642, Note_on_c, 0, 78, 0
1, 52642, Note_on_c, 0, 90, 0
1, 52644, Note_on_c, 1, 39, 35
1, 52654, Note_on_c, 1, 39, 0
1, 52654, Note_on_c, 0, 63, 0
1, 52655, Note_on_c, 9, 51, 0
1, 52673, Note_on_c, 1, 53, 0
1, 52686, Note_on_c, 1, 48, 48
1, 52687, Note_on_c, 9, 51, 86
1, 52688, Note_on_c, 0, 87, 52
1, 52689, Note_on_c, 0, 66, 56
1, 52692, Note_on_c, 0, 56, 53
1, 52692, Note_on_c, 0, 63, 37
1, 52692, Note_on_c, 0, 75, 50
1, 52693, Note_on_c, 0, 61, 35
1, 52706, Note_on_c, 0, 82, 21
1, 52746, Note_on_c, 0, 82, 0
1, 52746, Note_on_c, 0, 87, 0
1, 52749, Note_on_c, 0, 56, 0
1, 52751, Note_on_c, 0, 66, 0
1, 52754, Note_on_c, 0, 75, 0
1, 52755, Note_on_c, 0, 61, 0
1, 52759, Note_on_c, 0, 63, 0
1, 52759, Note_on_c, 1, 48, 0
1, 52763, Note_on_c, 9, 51, 0
1, 52773, Note_on_c, 0, 86, 55
1, 52773, Note_on_c, 0, 62, 40
1, 52774, Note_on_c, 0, 65, 48
1, 52775, Note_on_c, 0, 74, 48
1, 52776, Note_on_c, 0, 81, 50
1, 52777, Note_on_c, 1, 41, 65
1, 52780, Note_on_c, 0, 60, 36
1, 52783, Note_on_c, 0, 55, 48
1, 52795, Note_on_c, 1, 41, 0
1, 52806, Note_on_c, 9, 51, 86
1, 52809, Note_on_c, 1, 46, 59
1, 52813, Note_on_c, 9, 36, 34
1, 52824, Note_on_c, 9, 36, 0
1, 52874, Note_on_c, 9, 51, 0
1, 52891, Note_on_c, 1, 46, 0
1, 52894, Note_on_c, 9, 38, 36
1, 52897, Note_on_c, 9, 51, 60
1, 52904, Note_on_c, 9, 38, 0
1, 52913, Note_on_c, 9, 51, 0
1, 52923, Note_on_c, 1, 46, 64
1, 52931, Note_on_c, 0, 81, 0
1, 52933, Note_on_c, 0, 86, 0
1, 52934, Control_c, 0, 64, 127
1, 52934, Note_on_c, 9, 38, 34
1, 52935, Note_on_c, 9, 51, 78
1, 52952, Note_on_c, 9, 38, 0
1, 52955, Note_on_c, 0, 74, 0
1, 52957, Note_on_c, 0, 65, 0
1, 52962, Note_on_c, 0, 62, 0
1, 52968, Note_on_c, 0, 60, 0
1, 52969, Note_on_c, 9, 38, 42
1, 52978, Note_on_c, 9, 38, 0
1, 52994, Note_on_c, 0, 55, 0
1, 53003, Note_on_c, 9, 36, 45
1, 53020, Note_on_c, 9, 36, 0
1, 53021, Note_on_c, 9, 51, 0
1, 53040, Note_on_c, 1, 41, 65
1, 53048, Note_on_c, 1, 46, 0
1, 53048, Note_on_c, 9, 51, 83
1, 53125, Note_on_c, 1, 41, 0
1, 53128, Note_on_c, 9, 51, 0
1, 53128, Note_on_c, 0, 57, 74
1, 53130, Note_on_c, 0, 69, 66
1, 53132, Note_on_c, 0, 62, 68
1, 53132, Note_on_c, 0, 65, 70
1, 53150, Note_on_c, 0, 62, 0
1, 53152, Note_on_c, 0, 65, 0
1, 53158, Control_c, 0, 64, 0
1, 53160, Note_on_c, 0, 69, 0
1, 53164, Note_on_c, 1, 41, 74
1, 53166, Note_on_c, 9, 51, 88
1, 53168, Note_on_c, 0, 57, 0
1, 53171, Note_on_c, 9, 38, 40
1, 53174, Note_on_c, 0, 72, 83
1, 53174, Note_on_c, 0, 60, 88
1, 53175, Note_on_c, 0, 65, 80
1, 53175, Note_on_c, 0, 62, 71
1, 53175, Note_on_c, 0, 69, 79
1, 53180, Note_on_c, 9, 38, 0
1, 53199, Note_on_c, 9, 38, 32
1, 53211, Note_on_c, 9, 38, 0
1, 53215, Note_on_c, 9, 51, 0
1, 53227, Note_on_c, 9, 38, 46
1, 53228, Note_on_c, 0, 62, 0
1, 53229, Note_on_c, 0, 69, 0
1, 53230, Note_on_c, 0, 65, 0
1, 53232, Control_c, 0, 64, 127
1, 53242, Note_on_c, 9, 38, 0
1, 53244, Note_on_c, 0, 72, 0
1, 53249, Note_on_c, 0, 60, 0
1, 53255, Note_on_c, 9, 38, 65
1, 53256, Note_on_c, 9, 51, 87
1, 53257, Note_on_c, 9, 53, 82
1, 53261, Note_on_c, 0, 57, 54
1, 53265, Note_on_c, 1, 41, 0
1, 53270, Note_on_c, 9, 38, 0
1, 53278, Control_c, 0, 64, 0
1, 53280, Note_on_c, 0, 57, 0
1, 53281, Note_on_c, 9, 36, 45
1, 53283, Note_on_c, 1, 39, 78
1, 53299, Note_on_c, 0, 74, 84
1, 53301, Note_on_c, 0, 70, 69
1, 53302, Note_on_c, 0, 67, 88
1, 53302, Note_on_c, 0, 65, 99
1, 53303, Note_on_c, 0, 62, 81
1, 53310, Note_on_c, 0, 71, 34
1, 53313, Note_on_c, 9, 36, 0
1, 53318, Note_on_c, 0, 71, 0
1, 53355, Control_c, 0, 64, 127
1, 53358, Note_on_c, 9, 51, 0
1, 53363, Note_on_c, 1, 39, 0
1, 53365, Control_c, 0, 64, 0
1, 53371, Note_on_c, 9, 53, 0
1, 53380, Note_on_c, 9, 51, 61
1, 53398, Note_on_c, 9, 51, 0
1, 53409, Note_on_c, 1, 39, 84
1, 53424, Note_on_c, 9, 51, 85
1, 53425, Control_c, 0, 64, 127
1, 53428, Note_on_c, 9, 38, 46
1, 53445, Note_on_c, 9, 38, 0
1, 53449, Note_on_c, 0, 67, 0
1, 53458, Note_on_c, 9, 38, 37
1, 53463, Note_on_c, 0, 74, 0
1, 53464, Note_on_c, 0, 70, 0
1, 53474, Note_on_c, 9, 38, 0
1, 53482, Note_on_c, 9, 51, 0
1, 53482, Note_on_c, 0, 65, 0
1, 53488, Note_on_c, 9, 38, 62
1, 53501, Note_on_c, 9, 51, 88
1, 53505, Note_on_c, 9, 38, 0
1, 53516, Note_on_c, 9, 38, 76
1, 53526, Note_on_c, 1, 39, 0
1, 53526, Control_c, 0, 64, 0
1, 53526, Note_on_c, 1, 46, 92
1, 53535, Note_on_c, 9, 38, 0
1, 53539, Note_on_c, 0, 75, 69
1, 53540, Note_on_c, 0, 70, 65
1, 53540, Note_on_c, 9, 36, 62
1, 53542, Note_on_c, 0, 65, 62
1, 53542, Note_on_c, 0, 63, 64
1, 53543, Control_c, 0, 64, 127
1, 53555, Note_on_c, 0, 62, 0
1, 53568, Note_on_c, 0, 65, 0
1, 53581, Note_on_c, 9, 36, 0
1, 53583, Note_on_c, 0, 70, 0
1, 53586, Note_on_c, 0, 75, 0
1, 53600, Note_on_c, 9, 38, 46
1, 53601, Note_on_c, 1, 39, 62
1, 53605, Note_on_c, 9, 51, 0
1, 53607, Note_on_c, 9, 38, 0
1, 53611, Note_on_c, 1, 46, 0
1, 53618, Control_c, 0, 64, 0
1, 53621, Note_on_c, 0, 67, 64
1, 53622, Note_on_c, 0, 77, 59
1, 53623, Note_on_c, 9, 51, 56
1, 53624, Note_on_c, 0, 72, 61
1, 53625, Note_on_c, 0, 65, 43
1, 53634, Note_on_c, 1, 39, 0
1, 53635, Note_on_c, 0, 65, 0
1, 53640, Note_on_c, 9, 51, 0
1, 53648, Note_on_c, 0, 63, 0
1, 53650, Note_on_c, 0, 67, 0
1, 53652, Note_on_c, 0, 72, 0
1, 53653, Note_on_c, 1, 45, 69
1, 53653, Note_on_c, 9, 38, 73
1, 53656, Control_c, 0, 64, 127
1, 53657, Note_on_c, 9, 51, 72
1, 53659, Note_on_c, 0, 77, 0
1, 53685, Note_on_c, 9, 38, 0
1, 53716, Control_c, 0, 64, 0
1, 53730, Note_on_c, 0, 63, 55
1, 53730, Note_on_c, 0, 75, 68
1, 53730, Note_on_c, 1, 39, 37
1, 53732, Note_on_c, 0, 70, 65
1, 53733, Note_on_c, 0, 65, 64
1, 53734, Note_on_c, 9, 51, 0
1, 53735, Note_on_c, 0, 58, 51
1, 53736, Note_on_c, 0, 53, 40
1, 53751, Note_on_c, 1, 39, 0
1, 53752, Note_on_c, 1, 45, 0
1, 53764, Note_on_c, 1, 44, 69
1, 53767, Note_on_c, 9, 51, 86
1, 53804, Note_on_c, 0, 65, 0
1, 53823, Note_on_c, 0, 70, 0
1, 53836, Note_on_c, 0, 75, 0
1, 53845, Note_on_c, 9, 51, 0
1, 53859, Note_on_c, 1, 39, 42
1, 53864, Note_on_c, 1, 44, 0
1, 53886, Note_on_c, 9, 51, 90
1, 53887, Note_on_c, 1, 39, 0
1, 53888, Note_on_c, 1, 51, 75
1, 53944, Note_on_c, 9, 51, 0
1, 53954, Note_on_c, 0, 58, 0
1, 53968, Note_on_c, 1, 39, 31
1, 53973, Note_on_c, 1, 42, 29
1, 53974, Note_on_c, 9, 51, 55
1, 53979, Note_on_c, 9, 36, 30
1, 53982, Note_on_c, 1, 39, 0
1, 53984, Note_on_c, 9, 51, 0
1, 53985, Note_on_c, 1, 42, 0
1, 53985, Note_on_c, 0, 58, 35
1, 53989, Note_on_c, 9, 36, 0
1, 53994, Note_on_c, 0, 63, 0
1, 54006, Note_on_c, 1, 51, 0
1, 54007, Note_on_c, 0, 53, 0
1, 54010, Note_on_c, 0, 87, 76
1, 54010, Note_on_c, 9, 51, 86
1, 54013, Note_on_c, 1, 48, 59
1, 54033, Note_on_c, 0, 87, 0
1, 54046, Note_on_c, 0, 89, 80
1, 54065, Note_on_c, 0, 58, 0
1, 54081, Note_on_c, 0, 89, 0
1, 54089, Note_on_c, 9, 51, 0
1, 54108, Note_on_c, 1, 48, 0
1, 54110, Note_on_c, 0, 58, 32
1, 54123, Note_on_c, 9, 51, 85
1, 54127, Note_on_c, 1, 44, 53
1, 54134, Note_on_c, 0, 82, 67
1, 54161, Note_on_c, 0, 82, 0
1, 54172, Note_on_c, 0, 87, 71
1, 54187, Note_on_c, 0, 58, 0
1, 54203, Note_on_c, 0, 87, 0
1, 54205, Note_on_c, 9, 51, 0
1, 54217, Note_on_c, 0, 63, 46
1, 54224, Note_on_c, 0, 58, 32
1, 54228, Note_on_c, 0, 63, 0
1, 54235, Note_on_c, 1, 44, 0
1, 54241, Note_on_c, 9, 51, 80
1, 54252, Note_on_c, 1, 39, 52
1, 54264, Note_on_c, 0, 76, 28
1, 54284, Note_on_c, 0, 76, 0
1, 54302, Note_on_c, 0, 82, 59
1, 54321, Note_on_c, 0, 58, 0
1, 54324, Note_on_c, 9, 51, 0
1, 54325, Note_on_c, 0, 82, 0
1, 54342, Note_on_c, 0, 63, 33
1, 54350, Note_on_c, 0, 63, 0
1, 54352, Note_on_c, 0, 58, 26
1, 54357, Note_on_c, 1, 39, 0
1, 54361, Note_on_c, 9, 51, 91
1, 54371, Note_on_c, 1, 36, 59
1, 54377, Note_on_c, 0, 75, 67
1, 54404, Note_on_c, 0, 75, 0
1, 54416, Note_on_c, 0, 77, 57
1, 54436, Note_on_c, 0, 58, 0
1, 54441, Note_on_c, 9, 51, 0
1, 54443, Note_on_c, 0, 77, 0
1, 54456, Note_on_c, 0, 63, 50
1, 54456, Note_on_c, 9, 51, 73
1, 54464, Note_on_c, 0, 58, 32
1, 54468, Note_on_c, 0, 63, 0
1, 54475, Note_on_c, 9, 51, 0
1, 54481, Note_on_c, 1, 36, 0
1, 54484, Note_on_c, 9, 51, 76
1, 54495, Note_on_c, 1, 32, 44
1, 54496, Note_on_c, 0, 70, 64
1, 54501, Note_on_c, 9, 44, 34
1, 54508, Note_on_c, 9, 44, 0
1, 54522, Note_on_c, 0, 70, 0
1, 54535, Note_on_c, 9, 44, 51
1, 54538, Note_on_c, 0, 75, 70
1, 54541, Note_on_c, 9, 44, 0
1, 54549, Note_on_c, 0, 58, 0
1, 54567, Note_on_c, 0, 75, 0
1, 54575, Note_on_c, 0, 63, 59
1, 54575, Note_on_c, 9, 38, 25
1, 54576, Note_on_c, 9, 51, 0
1, 54582, Note_on_c, 0, 58, 34
1, 54586, Note_on_c, 1, 32, 0
1, 54591, Note_on_c, 0, 63, 0
1, 54593, Note_on_c, 9, 38, 0
1, 54603, Note_on_c, 9, 51, 90
1, 54614, Note_on_c, 9, 44, 38
1, 54615, Note_on_c, 1, 32, 69
1, 54624, Note_on_c, 9, 44, 0
1, 54624, Note_on_c, 0, 65, 24
1, 54637, Note_on_c, 0, 65, 0
1, 54653, Note_on_c, 0, 58, 0
1, 54654, Note_on_c, 9, 44, 48
1, 54658, Note_on_c, 0, 70, 69
1, 54660, Note_on_c, 9, 44, 0
1, 54672, Note_on_c, 9, 51, 0
1, 54689, Note_on_c, 0, 70, 0
1, 54692, Note_on_c, 9, 51, 53
1, 54695, Note_on_c, 9, 38, 54
1, 54706, Note_on_c, 9, 38, 0
1, 54708, Note_on_c, 0, 69, 74
1, 54710, Note_on_c, 0, 62, 44
1, 54711, Note_on_c, 0, 54, 34
1, 54712, Note_on_c, 9, 51, 0
1, 54715, Note_on_c, 0, 57, 34
1, 54724, Note_on_c, 9, 51, 82
1, 54726, Note_on_c, 1, 32, 0
1, 54733, Note_on_c, 1, 42, 71
1, 54746, Note_on_c, 9, 36, 41
1, 54755, Note_on_c, 9, 36, 0
1, 54769, Note_on_c, 0, 62, 0
1, 54804, Note_on_c, 0, 69, 0
1, 54804, Note_on_c, 0, 62, 54
1, 54813, Note_on_c, 9, 36, 33
1, 54815, Note_on_c, 9, 51, 0
1, 54822, Note_on_c, 1, 39, 39
1, 54824, Note_on_c, 0, 62, 0
1, 54827, Note_on_c, 9, 36, 0
1, 54846, Note_on_c, 9, 51, 87
1, 54847, Note_on_c, 0, 66, 53
1, 54866, Note_on_c, 0, 66, 0
1, 54867, Note_on_c, 1, 51, 74
1, 54878, Note_on_c, 1, 39, 0
1, 54881, Note_on_c, 0, 57, 0
1, 54901, Note_on_c, 0, 71, 53
1, 54913, Note_on_c, 0, 71, 0
1, 54923, Note_on_c, 0, 54, 0
1, 54928, Note_on_c, 9, 51, 0
1, 54937, Note_on_c, 0, 74, 75
1, 54947, Note_on_c, 1, 42, 0
1, 54961, Note_on_c, 1, 51, 0
1, 54966, Note_on_c, 9, 51, 87
1, 54973, Note_on_c, 0, 74, 0
1, 54976, Note_on_c, 0, 78, 69
1, 54979, Note_on_c, 1, 50, 74
1, 55003, Note_on_c, 0, 78, 0
1, 55018, Note_on_c, 0, 81, 79
1, 55052, Note_on_c, 9, 51, 0
1, 55059, Note_on_c, 0, 81, 0
1, 55085, Note_on_c, 0, 78, 67
1, 55088, Note_on_c, 9, 51, 86
1, 55089, Note_on_c, 1, 50, 0
1, 55095, Note_on_c, 1, 45, 67
1, 55112, Note_on_c, 0, 78, 0
1, 55152, Note_on_c, 9, 51, 0
1, 55169, Note_on_c, 1, 42, 60
1, 55170, Note_on_c, 1, 45, 0
1, 55179, Note_on_c, 9, 51, 72
1, 55180, Note_on_c, 9, 53, 73
1, 55197, Note_on_c, 0, 62, 60
1, 55198, Note_on_c, 1, 42, 0
1, 55200, Note_on_c, 0, 58, 43
1, 55205, Note_on_c, 0, 62, 0
1, 55205, Note_on_c, 0, 57, 34
1, 55206, Note_on_c, 0, 55, 50
1, 55210, Note_on_c, 1, 43, 59
1, 55215, Note_on_c, 0, 57, 0
1, 55217, Note_on_c, 0, 58, 0
1, 55226, Note_on_c, 0, 55, 0
1, 55236, Note_on_c, 0, 79, 62
1, 55273, Note_on_c, 9, 51, 0
1, 55283, Note_on_c, 9, 53, 0
1, 55295, Note_on_c, 1, 42, 59
1, 55296, Note_on_c, 9, 51, 64
1, 55301, Note_on_c, 0, 79, 0
1, 55318, Note_on_c, 9, 51, 0
1, 55327, Note_on_c, 1, 43, 0
1, 55330, Note_on_c, 1, 42, 0
1, 55333, Note_on_c, 1, 57, 95
1, 55334, Note_on_c, 9, 51, 77
1, 55338, Note_on_c, 0, 74, 74
1, 55345, Note_on_c, 9, 53, 53
1, 55405, Note_on_c, 0, 74, 0
1, 55417, Note_on_c, 0, 70, 62
1, 55420, Note_on_c, 0, 58, 39
1, 55422, Note_on_c, 0, 62, 45
1, 55425, Note_on_c, 0, 57, 45
1, 55426, Note_on_c, 9, 53, 0
1, 55426, Note_on_c, 0, 55, 42
1, 55428, Note_on_c, 1, 57, 0
1, 55428, Note_on_c, 9, 51, 0
1, 55440, Note_on_c, 0, 70, 0
1, 55440, Note_on_c, 1, 55, 69
1, 55451, Note_on_c, 9, 51, 70
1, 55465, Note_on_c, 9, 44, 50
1, 55470, Note_on_c, 0, 69, 48
1, 55471, Note_on_c, 9, 44, 0
1, 55512, Note_on_c, 9, 51, 0
1, 55524, Note_on_c, 0, 69, 0
1, 55530, Note_on_c, 9, 51, 77
1, 55534, Note_on_c, 9, 44, 69
1, 55537, Note_on_c, 1, 55, 0
1, 55539, Note_on_c, 1, 43, 30
1, 55542, Note_on_c, 9, 44, 0
1, 55554, Note_on_c, 1, 43, 0
1, 55560, Note_on_c, 1, 54, 73
1, 55578, Note_on_c, 0, 57, 0
1, 55578, Note_on_c, 9, 44, 67
1, 55584, Note_on_c, 9, 44, 0
1, 55601, Note_on_c, 0, 58, 0
1, 55603, Note_on_c, 0, 55, 0
1, 55608, Note_on_c, 0, 62, 0
1, 55614, Note_on_c, 9, 38, 40
1, 55621, Note_on_c, 9, 38, 0
1, 55628, Note_on_c, 9, 51, 0
1, 55651, Note_on_c, 9, 36, 47
1, 55657, Note_on_c, 9, 51, 47
1, 55659, Note_on_c, 9, 36, 0
1, 55664, Note_on_c, 1, 54, 0
1, 55671, Note_on_c, 9, 51, 0
1, 55678, Note_on_c, 0, 63, 42
1, 55684, Note_on_c, 0, 60, 46
1, 55686, Note_on_c, 0, 56, 25
1, 55688, Note_on_c, 1, 53, 63
1, 55691, Note_on_c, 9, 51, 72
1, 55692, Note_on_c, 0, 53, 24
1, 55694, Note_on_c, 9, 53, 73
1, 55779, Note_on_c, 0, 63, 0
1, 55783, Note_on_c, 9, 51, 0
1, 55789, Note_on_c, 9, 53, 0
1, 55796, Note_on_c, 0, 53, 0
1, 55800, Note_on_c, 1, 53, 0
1, 55810, Note_on_c, 1, 48, 57
1, 55812, Note_on_c, 9, 51, 80
1, 55816, Note_on_c, 0, 60, 0
1, 55817, Note_on_c, 0, 82, 86
1, 55829, Note_on_c, 0, 56, 0
1, 55830, Note_on_c, 9, 44, 52
1, 55842, Note_on_c, 9, 44, 0
1, 55863, Note_on_c, 9, 38, 62
1, 55870, Note_on_c, 0, 82, 0
1, 55874, Note_on_c, 9, 51, 0
1, 55882, Note_on_c, 9, 38, 0
1, 55899, Note_on_c, 9, 36, 72
1, 55900, Note_on_c, 0, 80, 77
1, 55904, Note_on_c, 9, 51, 62
1, 55906, Note_on_c, 0, 67, 59
1, 55908, Note_on_c, 0, 63, 43
1, 55909, Note_on_c, 0, 60, 44
1, 55913, Note_on_c, 0, 56, 20
1, 55915, Note_on_c, 1, 48, 0
1, 55916, Note_on_c, 9, 51, 0
1, 55917, Note_on_c, 0, 67, 0
1, 55929, Note_on_c, 0, 56, 0
1, 55930, Note_on_c, 0, 80, 0
1, 55932, Note_on_c, 9, 51, 77
1, 55937, Note_on_c, 1, 46, 48
1, 55941, Note_on_c, 9, 36, 0
1, 55950, Note_on_c, 0, 63, 0
1, 55950, Note_on_c, 0, 79, 68
1, 55969, Note_on_c, 0, 60, 0
1, 55991, Note_on_c, 0, 79, 0
1, 55993, Note_on_c, 0, 80, 43
1, 56017, Note_on_c, 0, 79, 32
1, 56022, Note_on_c, 9, 51, 0
1, 56032, Note_on_c, 0, 80, 0
1, 56035, Note_on_c, 1, 46, 0
1, 56043, Note_on_c, 0, 77, 60
1, 56043, Note_on_c, 0, 62, 22
1, 56046, Note_on_c, 0, 79, 0
1, 56050, Note_on_c, 9, 51, 85
1, 56055, Note_on_c, 1, 41, 57
1, 56058, Note_on_c, 0, 62, 0
1, 56066, Note_on_c, 9, 44, 46
1, 56072, Note_on_c, 9, 44, 0
1, 56072, Note_on_c, 0, 77, 0
1, 56073, Note_on_c, 0, 66, 46
1, 56074, Note_on_c, 0, 62, 14
1, 56076, Note_on_c, 0, 56, 44
1, 56082, Note_on_c, 0, 75, 56
1, 56104, Note_on_c, 9, 38, 34
1, 56120, Note_on_c, 9, 38, 0
1, 56130, Note_on_c, 0, 66, 0
1, 56133, Note_on_c, 9, 51, 0
1, 56136, Note_on_c, 0, 62, 0
1, 56138, Note_on_c, 9, 36, 88
1, 56140, Note_on_c, 0, 75, 0
1, 56154, Note_on_c, 0, 74, 71
1, 56157, Note_on_c, 0, 65, 37
1, 56158, Note_on_c, 1, 41, 0
1, 56158, Note_on_c, 0, 62, 30
1, 56159, Note_on_c, 0, 56, 0
1, 56161, Note_on_c, 0, 55, 45
1, 56169, Note_on_c, 0, 60, 26
1, 56175, Note_on_c, 9, 51, 80
1, 56176, Note_on_c, 1, 43, 50
1, 56181, Note_on_c, 0, 74, 0
1, 56189, Note_on_c, 9, 36, 0
1, 56208, Note_on_c, 0, 75, 81
1, 56219, Note_on_c, 0, 75, 0
1, 56219, Note_on_c, 0, 76, 71
1, 56223, Note_on_c, 0, 65, 0
1, 56225, Note_on_c, 0, 62, 0
1, 56231, Note_on_c, 0, 60, 0
1, 56241, Note_on_c, 0, 77, 75
1, 56244, Note_on_c, 0, 76, 0
1, 56267, Note_on_c, 9, 51, 0
1, 56283, Note_on_c, 1, 43, 0
1, 56288, Note_on_c, 0, 77, 0
1, 56292, Note_on_c, 1, 38, 57
1, 56292, Note_on_c, 9, 51, 79
1, 56302, Note_on_c, 0, 55, 0
1, 56305, Note_on_c, 0, 74, 71
1, 56349, Note_on_c, 0, 74, 0
1, 56380, Note_on_c, 0, 70, 71
1, 56381, Note_on_c, 9, 51, 0
1, 56399, Note_on_c, 1, 38, 0
1, 56413, Note_on_c, 1, 42, 75
1, 56413, Note_on_c, 9, 51, 70
1, 56420, Note_on_c, 0, 70, 0
1, 56442, Note_on_c, 0, 67, 48
1, 56477, Note_on_c, 9, 51, 0
1, 56492, Note_on_c, 0, 67, 0
1, 56502, Note_on_c, 0, 66, 60
1, 56504, Note_on_c, 0, 62, 47
1, 56504, Note_on_c, 9, 51, 51
1, 56506, Note_on_c, 0, 54, 38
1, 56513, Note_on_c, 9, 51, 0
1, 56515, Note_on_c, 1, 42, 0
1, 56515, Note_on_c, 0, 57, 30
1, 56535, Note_on_c, 0, 62, 0
1, 56535, Note_on_c, 1, 38, 58
1, 56536, Note_on_c, 9, 51, 83
1, 56537, Note_on_c, 0, 66, 0
1, 56555, Note_on_c, 0, 57, 0
1, 56555, Note_on_c, 0, 72, 79
1, 56584, Note_on_c, 0, 54, 0
1, 56612, Note_on_c, 0, 72, 0
1, 56623, Note_on_c, 9, 51, 0
1, 56624, Note_on_c, 0, 69, 61
1, 56631, Note_on_c, 0, 58, 28
1, 56633, Note_on_c, 0, 55, 32
1, 56646, Note_on_c, 1, 38, 0
1, 56649, Note_on_c, 0, 69, 0
1, 56651, Note_on_c, 9, 51, 76
1, 56657, Note_on_c, 1, 41, 85
1, 56668, Note_on_c, 0, 70, 77
1, 56677, Note_on_c, 0, 55, 0
1, 56688, Note_on_c, 0, 58, 0
1, 56724, Note_on_c, 9, 51, 0
1, 56738, Note_on_c, 0, 70, 0
1, 56742, Note_on_c, 0, 62, 64
1, 56743, Note_on_c, 9, 51, 58
1, 56759, Note_on_c, 1, 41, 0
1, 56760, Note_on_c, 9, 51, 0
1, 56770, Note_on_c, 1, 38, 74
1, 56773, Note_on_c, 0, 62, 0
1, 56773, Note_on_c, 9, 51, 78
1, 56794, Note_on_c, 0, 65, 80
1, 56856, Note_on_c, 9, 51, 0
1, 56883, Note_on_c, 1, 38, 0
1, 56894, Note_on_c, 9, 51, 69
1, 56896, Note_on_c, 1, 34, 59
1, 56896, Note_on_c, 9, 53, 61
1, 56977, Note_on_c, 0, 62, 61
1, 56982, Note_on_c, 9, 51, 0
1, 56983, Note_on_c, 0, 58, 29
1, 56985, Note_on_c, 0, 62, 0
1, 56986, Note_on_c, 1, 34, 0
1, 56987, Note_on_c, 0, 56, 20
1, 56989, Note_on_c, 9, 53, 0
1, 56997, Note_on_c, 0, 58, 0
1, 57000, Note_on_c, 0, 56, 0
1, 57009, Note_on_c, 9, 51, 64
1, 57015, Note_on_c, 1, 39, 77
1, 57064, Note_on_c, 9, 51, 0
1, 57091, Note_on_c, 9, 38, 72
1, 57092, Note_on_c, 9, 51, 81
1, 57093, Note_on_c, 9, 53, 77
1, 57102, Note_on_c, 0, 60, 34
1, 57105, Note_on_c, 9, 38, 0
1, 57105, Note_on_c, 0, 55, 53
1, 57111, Note_on_c, 0, 60, 0
1, 57113, Note_on_c, 0, 55, 0
1, 57118, Note_on_c, 0, 65, 0
1, 57120, Note_on_c, 1, 39, 0
1, 57129, Note_on_c, 1, 40, 75
1, 57142, Note_on_c, 0, 69, 95
1, 57197, Note_on_c, 9, 51, 0
1, 57209, Note_on_c, 9, 53, 0
1, 57209, Note_on_c, 9, 38, 67
1, 57214, Note_on_c, 0, 69, 0
1, 57217, Note_on_c, 9, 51, 56
1, 57222, Note_on_c, 0, 60, 35
1, 57227, Note_on_c, 9, 38, 0
1, 57231, Note_on_c, 0, 60, 0
1, 57237, Note_on_c, 9, 51, 0
1, 57247, Note_on_c, 1, 40, 0
1, 57252, Note_on_c, 1, 36, 71
1, 57258, Note_on_c, 9, 51, 75
1, 57277, Note_on_c, 0, 67, 71
1, 57332, Note_on_c, 9, 38, 48
1, 57338, Note_on_c, 9, 38, 0
1, 57344, Note_on_c, 1, 40, 60
1, 57346, Note_on_c, 1, 36, 0
1, 57347, Note_on_c, 9, 51, 0
1, 57352, Note_on_c, 0, 55, 30
1, 57363, Note_on_c, 0, 55, 0
1, 57368, Note_on_c, 1, 40, 0
1, 57372, Note_on_c, 1, 52, 99
1, 57375, Note_on_c, 9, 51, 80
1, 57450, Note_on_c, 0, 60, 59
1, 57457, Note_on_c, 0, 55, 47
1, 57457, Note_on_c, 0, 64, 66
1, 57458, Note_on_c, 0, 60, 0
1, 57460, Note_on_c, 9, 51, 0
1, 57468, Note_on_c, 0, 55, 0
1, 57479, Note_on_c, 1, 52, 0
1, 57489, Note_on_c, 0, 64, 0
1, 57490, Note_on_c, 9, 51, 83
1, 57492, Note_on_c, 1, 48, 62
1, 57506, Note_on_c, 0, 60, 31
1, 57552, Note_on_c, 9, 51, 0
1, 57564, Note_on_c, 1, 48, 0
1, 57568, Note_on_c, 1, 40, 54
1, 57575, Note_on_c, 0, 60, 0
1, 57580, Note_on_c, 9, 51, 64
1, 57581, Note_on_c, 0, 48, 53
1, 57586, Note_on_c, 0, 67, 0
1, 57598, Note_on_c, 1, 40, 0
1, 57600, Note_on_c, 9, 51, 0
1, 57600, Note_on_c, 0, 48, 0
1, 57612, Note_on_c, 9, 51, 83
1, 57613, Note_on_c, 1, 41, 68
1, 57618, Note_on_c, 0, 64, 60
1, 57676, Note_on_c, 0, 64, 0
1, 57695, Note_on_c, 9, 38, 39
1, 57704, Note_on_c, 9, 38, 0
1, 57704, Note_on_c, 1, 40, 45
1, 57708, Note_on_c, 9, 51, 0
1, 57723, Note_on_c, 1, 40, 0
1, 57731, Note_on_c, 9, 51, 80
1, 57732, Note_on_c, 1, 41, 0
1, 57734, Note_on_c, 1, 50, 84
1, 57736, Note_on_c, 0, 60, 49
1, 57744, Note_on_c, 9, 36, 17
1, 57759, Note_on_c, 9, 36, 0
1, 57805, Note_on_c, 0, 60, 0
1, 57810, Note_on_c, 9, 36, 54
1, 57816, Note_on_c, 9, 51, 0
1, 57816, Note_on_c, 0, 48, 57
1, 57822, Note_on_c, 0, 41, 28
1, 57829, Note_on_c, 0, 41, 0
1, 57829, Note_on_c, 0, 48, 0
1, 57834, Note_on_c, 9, 36, 0
1, 57836, Note_on_c, 1, 50, 0
1, 57849, Note_on_c, 1, 48, 71
1, 57849, Note_on_c, 9, 51, 81
1, 57854, Note_on_c, 9, 36, 44
1, 57904, Note_on_c, 9, 36, 0
1, 57918, Note_on_c, 9, 51, 0
1, 57923, Note_on_c, 9, 36, 34
1, 57934, Note_on_c, 9, 36, 0
1, 57936, Note_on_c, 0, 60, 36
1, 57936, Note_on_c, 9, 51, 60
1, 57938, Note_on_c, 0, 57, 44
1, 57952, Note_on_c, 0, 60, 0
1, 57954, Note_on_c, 9, 51, 0
1, 57960, Note_on_c, 0, 57, 0
1, 57971, Note_on_c, 1, 45, 64
1, 57971, Note_on_c, 9, 51, 75
1, 58041, Note_on_c, 9, 51, 0
1, 58073, Note_on_c, 1, 48, 0
1, 58080, Note_on_c, 1, 45, 0
1, 58087, Note_on_c, 0, 64, 40
1, 58087, Note_on_c, 9, 51, 74
1, 58090, Note_on_c, 1, 42, 84
1, 58090, Note_on_c, 9, 53, 71
1, 58093, Note_on_c, 0, 54, 26
1, 58094, Note_on_c, 0, 57, 32
1, 58095, Note_on_c, 0, 60, 36
1, 58155, Note_on_c, 0, 60, 0
1, 58167, Note_on_c, 9, 53, 0
1, 58172, Note_on_c, 0, 60, 24
1, 58181, Note_on_c, 9, 51, 0
1, 58192, Note_on_c, 0, 64, 0
1, 58204, Note_on_c, 1, 42, 0
1, 58209, Note_on_c, 1, 43, 76
1, 58211, Note_on_c, 9, 51, 58
1, 58212, Note_on_c, 0, 84, 96
1, 58213, Note_on_c, 0, 72, 105
1, 58216, Note_on_c, 9, 38, 24
1, 58223, Note_on_c, 9, 38, 0
1, 58226, Note_on_c, 0, 60, 0
1, 58251, Note_on_c, 9, 38, 24
1, 58258, Note_on_c, 9, 38, 0
1, 58259, Note_on_c, 9, 51, 0
1, 58268, Note_on_c, 0, 84, 0
1, 58268, Note_on_c, 0, 72, 0
1, 58289, Note_on_c, 9, 38, 49
1, 58290, Note_on_c, 9, 51, 85
1, 58294, Note_on_c, 0, 84, 64
1, 58296, Note_on_c, 0, 72, 71
1, 58299, Note_on_c, 0, 64, 43
1, 58300, Note_on_c, 0, 60, 45
1, 58307, Note_on_c, 9, 38, 0
1, 58310, Note_on_c, 1, 43, 0
1, 58311, Note_on_c, 0, 64, 0
1, 58323, Note_on_c, 0, 84, 0
1, 58327, Note_on_c, 0, 72, 0
1, 58328, Note_on_c, 1, 45, 72
1, 58328, Note_on_c, 9, 38, 35
1, 58343, Note_on_c, 9, 38, 0
1, 58344, Note_on_c, 0, 84, 65
1, 58349, Note_on_c, 0, 72, 56
1, 58370, Note_on_c, 0, 60, 0
1, 58372, Note_on_c, 0, 54, 0
1, 58378, Note_on_c, 0, 84, 0
1, 58385, Note_on_c, 0, 72, 0
1, 58388, Note_on_c, 9, 51, 0
1, 58395, Note_on_c, 0, 57, 0
1, 58407, Note_on_c, 9, 38, 61
1, 58412, Note_on_c, 9, 51, 47
1, 58414, Note_on_c, 0, 64, 50
1, 58415, Note_on_c, 0, 83, 48
1, 58421, Note_on_c, 9, 38, 0
1, 58421, Note_on_c, 0, 71, 37
1, 58423, Note_on_c, 1, 45, 0
1, 58423, Note_on_c, 0, 54, 18
1, 58425, Note_on_c, 0, 64, 0
1, 58427, Note_on_c, 9, 51, 0
1, 58430, Note_on_c, 0, 71, 0
1, 58434, Note_on_c, 0, 83, 0
1, 58449, Note_on_c, 9, 51, 79
1, 58451, Note_on_c, 1, 46, 82
1, 58456, Note_on_c, 0, 84, 71
1, 58457, Note_on_c, 0, 72, 66
1, 58458, Note_on_c, 0, 64, 32
1, 58467, Note_on_c, 0, 60, 25
1, 58474, Note_on_c, 0, 64, 0
1, 58477, Note_on_c, 0, 60, 0
1, 58481, Note_on_c, 9, 38, 36
1, 58491, Note_on_c, 9, 38, 0
1, 58499, Note_on_c, 0, 54, 0
1, 58509, Note_on_c, 0, 84, 0
1, 58520, Note_on_c, 9, 38, 53
1, 58529, Note_on_c, 0, 72, 0
1, 58533, Note_on_c, 1, 42, 35
1, 58536, Note_on_c, 9, 51, 0
1, 58540, Note_on_c, 9, 38, 0
1, 58554, Note_on_c, 1, 46, 0
1, 58557, Note_on_c, 1, 42, 0
1, 58568, Note_on_c, 9, 51, 83
1, 58569, Note_on_c, 1, 47, 81
1, 58581, Note_on_c, 0, 83, 71
1, 58585, Note_on_c, 0, 71, 63
1, 58645, Note_on_c, 9, 51, 0
1, 58654, Note_on_c, 0, 57, 46
1, 58656, Note_on_c, 0, 63, 33
1, 58656, Note_on_c, 0, 62, 48
1, 58656, Note_on_c, 0, 67, 45
1, 58675, Note_on_c, 1, 47, 0
1, 58689, Note_on_c, 1, 42, 71
1, 58691, Note_on_c, 9, 51, 95
1, 58748, Note_on_c, 9, 51, 0
1, 58782, Note_on_c, 9, 51, 80
1, 58792, Note_on_c, 1, 42, 0
1, 58796, Note_on_c, 9, 51, 0
1, 58806, Note_on_c, 0, 83, 0
1, 58809, Control_c, 0, 64, 127
1, 58809, Note_on_c, 9, 38, 36
1, 58810, Note_on_c, 1, 35, 54
1, 58812, Note_on_c, 9, 51, 82
1, 58815, Note_on_c, 0, 62, 0
1, 58816, Note_on_c, 0, 67, 0
1, 58818, Note_on_c, 0, 71, 0
1, 58822, Note_on_c, 0, 63, 0
1, 58822, Note_on_c, 9, 38, 0
1, 58840, Note_on_c, 9, 38, 37
1, 58849, Note_on_c, 0, 57, 0
1, 58855, Note_on_c, 9, 38, 0
1, 58868, Note_on_c, 9, 38, 66
1, 58876, Note_on_c, 1, 35, 0
1, 58889, Note_on_c, 9, 38, 0
1, 58889, Note_on_c, 1, 38, 64
1, 58891, Note_on_c, 9, 51, 0
1, 58898, Note_on_c, 9, 38, 82
1, 58908, Control_c, 0, 64, 0
1, 58915, Note_on_c, 1, 38, 0
1, 58920, Note_on_c, 9, 38, 0
1, 58922, Note_on_c, 0, 69, 83
1, 58925, Note_on_c, 0, 67, 83
1, 58925, Note_on_c, 0, 63, 82
1, 58925, Note_on_c, 9, 38, 55
1, 58926, Note_on_c, 0, 65, 85
1, 58931, Note_on_c, 9, 51, 90
1, 58932, Note_on_c, 1, 39, 69
1, 58947, Note_on_c, 9, 51, 0
1, 58958, Note_on_c, 9, 38, 0
1, 58968, Control_c, 0, 64, 127
1, 58990, Note_on_c, 0, 65, 0
1, 58992, Control_c, 0, 64, 0
1, 59004, Note_on_c, 0, 67, 0
1, 59005, Note_on_c, 0, 69, 0
1, 59006, Note_on_c, 0, 71, 69
1, 59009, Note_on_c, 9, 51, 92
1, 59010, Note_on_c, 0, 63, 0
1, 59010, Note_on_c, 0, 65, 36
1, 59020, Note_on_c, 0, 65, 0
1, 59036, Note_on_c, 1, 39, 0
1, 59040, Note_on_c, 0, 71, 0
1, 59041, Note_on_c, 1, 40, 74
1, 59072, Note_on_c, 9, 51, 0
1, 59090, Note_on_c, 0, 66, 58
1, 59094, Note_on_c, 0, 64, 68
1, 59094, Note_on_c, 0, 69, 47
1, 59101, Note_on_c, 0, 52, 38
1, 59114, Note_on_c, 9, 36, 45
1, 59128, Note_on_c, 9, 51, 76
1, 59129, Note_on_c, 9, 36, 0
1, 59132, Note_on_c, 1, 39, 30
1, 59140, Note_on_c, 9, 51, 0
1, 59156, Note_on_c, 1, 40, 0
1, 59156, Note_on_c, 9, 36, 47
1, 59162, Note_on_c, 0, 64, 0
1, 59164, Note_on_c, 1, 52, 90
1, 59166, Note_on_c, 1, 39, 0
1, 59173, Note_on_c, 9, 51, 90
1, 59174, Note_on_c, 0, 66, 0
1, 59176, Note_on_c, 0, 69, 0
1, 59178, Note_on_c, 9, 36, 0
1, 59183, Note_on_c, 0, 59, 46
1, 59184, Note_on_c, 0, 67, 57
1, 59186, Note_on_c, 0, 64, 45
1, 59224, Note_on_c, 0, 59, 0
1, 59228, Note_on_c, 0, 64, 0
1, 59247, Note_on_c, 9, 51, 0
1, 59250, Note_on_c, 0, 67, 0
1, 59255, Note_on_c, 1, 39, 23
1, 59262, Note_on_c, 0, 66, 46
1, 59268, Note_on_c, 0, 59, 34
1, 59268, Note_on_c, 0, 64, 57
1, 59277, Note_on_c, 1, 52, 0
1, 59284, Note_on_c, 9, 51, 68
1, 59292, Note_on_c, 1, 39, 0
1, 59300, Note_on_c, 9, 51, 0
1, 59306, Note_on_c, 1, 47, 48
1, 59318, Note_on_c, 0, 52, 0
1, 59364, Note_on_c, 9, 51, 97
1, 59373, Note_on_c, 0, 52, 41
1, 59376, Note_on_c, 0, 64, 0
1, 59382, Note_on_c, 0, 52, 0
1, 59383, Note_on_c, 0, 59, 0
1, 59393, Note_on_c, 0, 66, 0
1, 59397, Note_on_c, 1, 47, 0
1, 59403, Note_on_c, 1, 46, 34
1, 59418, Note_on_c, 1, 43, 62
1, 59435, Note_on_c, 1, 46, 0
1, 59461, Note_on_c, 9, 51, 0
1, 59484, Note_on_c, 9, 51, 77
1, 59501, Note_on_c, 1, 39, 34
1, 59505, Note_on_c, 0, 64, 45
1, 59507, Note_on_c, 0, 60, 44
1, 59508, Note_on_c, 1, 43, 0
1, 59511, Note_on_c, 0, 59, 32
1, 59514, Note_on_c, 0, 64, 0
1, 59515, Note_on_c, 0, 60, 0
1, 59521, Note_on_c, 0, 59, 0
1, 59532, Note_on_c, 1, 45, 73
1, 59536, Note_on_c, 1, 39, 0
1, 59542, Note_on_c, 0, 85, 49
1, 59545, Note_on_c, 0, 73, 67
1, 59574, Note_on_c, 9, 51, 0
1, 59576, Note_on_c, 0, 86, 37
1, 59580, Note_on_c, 0, 85, 0
1, 59584, Note_on_c, 0, 84, 16
1, 59586, Note_on_c, 0, 73, 0
1, 59587, Note_on_c, 0, 74, 60
1, 59616, Note_on_c, 0, 84, 0
1, 59619, Note_on_c, 0, 74, 0
1, 59620, Note_on_c, 9, 51, 37
1, 59621, Note_on_c, 0, 86, 0
1, 59623, Note_on_c, 1, 39, 21
1, 59628, Note_on_c, 9, 51, 0
1, 59634, Note_on_c, 0, 64, 53
1, 59642, Note_on_c, 1, 45, 0
1, 59643, Note_on_c, 0, 64, 0
1, 59643, Note_on_c, 0, 59, 29
1, 59644, Note_on_c, 0, 60, 28
1, 59650, Note_on_c, 1, 52, 70
1, 59652, Note_on_c, 1, 39, 0
1, 59653, Note_on_c, 0, 60, 0
1, 59654, Note_on_c, 9, 51, 87
1, 59657, Note_on_c, 0, 59, 0
1, 59657, Note_on_c, 0, 83, 51
1, 59659, Note_on_c, 0, 71, 58
1, 59687, Note_on_c, 0, 71, 0
1, 59695, Note_on_c, 0, 83, 0
1, 59740, Note_on_c, 0, 74, 76
1, 59741, Note_on_c, 0, 86, 73
1, 59742, Note_on_c, 9, 51, 0
1, 59742, Note_on_c, 0, 64, 63
1, 59743, Note_on_c, 0, 54, 46
1, 59748, Note_on_c, 0, 60, 41
1, 59751, Note_on_c, 1, 52, 0
1, 59751, Note_on_c, 0, 84, 29
1, 59755, Note_on_c, 0, 64, 0
1, 59759, Note_on_c, 0, 60, 0
1, 59765, Note_on_c, 0, 74, 0
1, 59765, Note_on_c, 0, 84, 0
1, 59768, Note_on_c, 0, 86, 0
1, 59770, Note_on_c, 0, 54, 0
1, 59773, Note_on_c, 9, 51, 81
1, 59774, Note_on_c, 1, 50, 56
1, 59808, Note_on_c, 0, 88, 72
1, 59809, Note_on_c, 0, 76, 58
1, 59811, Note_on_c, 0, 62, 47
1, 59813, Note_on_c, 0, 54, 39
1, 59813, Note_on_c, 0, 60, 40
1, 59815, Note_on_c, 0, 81, 40
1, 59824, Note_on_c, 9, 51, 0
1, 59851, Note_on_c, 0, 88, 0
1, 59852, Note_on_c, 9, 51, 83
1, 59854, Note_on_c, 0, 81, 0
1, 59857, Note_on_c, 0, 76, 0
1, 59858, Note_on_c, 0, 62, 0
1, 59862, Note_on_c, 0, 54, 0
1, 59869, Note_on_c, 0, 60, 0
1, 59882, Note_on_c, 1, 50, 0
1, 59891, Note_on_c, 0, 84, 56
1, 59891, Note_on_c, 1, 42, 65
1, 59893, Note_on_c, 0, 54, 48
1, 59895, Note_on_c, 0, 62, 38
1, 59896, Note_on_c, 0, 72, 64
1, 59901, Note_on_c, 0, 60, 30
1, 59911, Note_on_c, 0, 60, 0
1, 59917, Note_on_c, 0, 62, 0
1, 59921, Note_on_c, 0, 84, 0
1, 59928, Note_on_c, 0, 72, 0
1, 59942, Note_on_c, 9, 51, 0
1, 59942, Note_on_c, 0, 54, 0
1, 59972, Note_on_c, 9, 38, 35
1, 59974, Note_on_c, 0, 82, 50
1, 59974, Note_on_c, 9, 51, 65
1, 59981, Note_on_c, 0, 58, 35
1, 59981, Note_on_c, 0, 55, 34
1, 59981, Note_on_c, 0, 62, 35
1, 59982, Note_on_c, 0, 71, 56
1, 59985, Note_on_c, 0, 83, 35
1, 59986, Note_on_c, 0, 80, 26
1, 59991, Note_on_c, 9, 51, 0
1, 59991, Note_on_c, 1, 42, 0
1, 60000, Note_on_c, 9, 38, 0
1, 60004, Note_on_c, 0, 82, 0
1, 60007, Note_on_c, 1, 43, 57
1, 60013, Note_on_c, 9, 51, 82
1, 60018, Note_on_c, 9, 38, 28
1, 60049, Note_on_c, 9, 38, 0
1, 60095, Note_on_c, 9, 51, 0
1, 60096, Note_on_c, 0, 71, 0
1, 60103, Note_on_c, 0, 83, 0
1, 60104, Note_on_c, 0, 80, 0
1, 60119, Note_on_c, 1, 43, 0
1, 60124, Note_on_c, 1, 38, 63
1, 60129, Note_on_c, 9, 51, 79
1, 60132, Note_on_c, 0, 62, 0
1, 60136, Note_on_c, 0, 78, 60
1, 60140, Note_on_c, 0, 83, 58
1, 60144, Note_on_c, 0, 55, 0
1, 60147, Note_on_c, 0, 58, 0
1, 60180, Note_on_c, 0, 83, 0
1, 60187, Note_on_c, 0, 78, 0
1, 60197, Note_on_c, 9, 51, 0
1, 60209, Note_on_c, 0, 78, 39
1, 60212, Note_on_c, 0, 74, 65
1, 60213, Note_on_c, 9, 38, 39
1, 60216, Note_on_c, 0, 54, 50
1, 60216, Note_on_c, 0, 62, 54
1, 60220, Note_on_c, 9, 38, 0
1, 60220, Note_on_c, 0, 59, 35
1, 60223, Note_on_c, 9, 51, 62
1, 60239, Note_on_c, 1, 38, 0
1, 60240, Note_on_c, 9, 51, 0
1, 60247, Note_on_c, 1, 35, 56
1, 60254, Note_on_c, 9, 51, 77
1, 60257, Note_on_c, 0, 74, 0
1, 60271, Note_on_c, 0, 62, 0
1, 60279, Note_on_c, 0, 78, 0
1, 60281, Note_on_c, 0, 71, 37
1, 60303, Note_on_c, 0, 59, 0
1, 60336, Note_on_c, 1, 35, 0
1, 60336, Note_on_c, 9, 51, 0
1, 60336, Note_on_c, 0, 71, 0
1, 60339, Note_on_c, 0, 62, 24
1, 60348, Note_on_c, 0, 62, 0
1, 60348, Note_on_c, 0, 59, 24
1, 60356, Note_on_c, 0, 54, 0
1, 60362, Note_on_c, 0, 59, 0
1, 60369, Note_on_c, 1, 35, 55
1, 60369, Note_on_c, 9, 51, 83
1, 60429, Note_on_c, 9, 51, 0
1, 60449, Note_on_c, 9, 38, 37
1, 60457, Note_on_c, 9, 51, 57
1, 60459, Note_on_c, 9, 38, 0
1, 60470, Note_on_c, 9, 51, 0
1, 60474, Note_on_c, 1, 35, 0
1, 60488, Note_on_c, 9, 51, 74
1, 60492, Note_on_c, 1, 36, 56
1, 60574, Note_on_c, 0, 62, 64
1, 60575, Note_on_c, 0, 74, 74
1, 60578, Note_on_c, 0, 63, 64
1, 60579, Note_on_c, 9, 51, 0
1, 60581, Note_on_c, 0, 67, 47
1, 60582, Note_on_c, 0, 70, 37
1, 60592, Note_on_c, 0, 67, 0
1, 60594, Note_on_c, 0, 70, 0
1, 60595, Note_on_c, 0, 62, 0
1, 60599, Note_on_c, 0, 63, 0
1, 60600, Note_on_c, 1, 36, 0
1, 60602, Note_on_c, 0, 74, 0
1, 60608, Note_on_c, 9, 51, 72
1, 60614, Note_on_c, 1, 36, 80
1, 60626, Note_on_c, 0, 60, 36
1, 60675, Note_on_c, 9, 51, 0
1, 60690, Note_on_c, 0, 60, 0
1, 60694, Note_on_c, 0, 63, 63
1, 60694, Note_on_c, 0, 74, 60
1, 60697, Note_on_c, 0, 70, 51
1, 60699, Note_on_c, 0, 67, 40
1, 60701, Note_on_c, 0, 62, 58
1, 60703, Note_on_c, 9, 51, 62
1, 60707, Note_on_c, 0, 67, 0
1, 60711, Note_on_c, 0, 63, 0
1, 60715, Note_on_c, 0, 62, 0
1, 60716, Note_on_c, 0, 74, 0
1, 60720, Note_on_c, 0, 70, 0
1, 60722, Note_on_c, 9, 51, 0
1, 60726, Note_on_c, 1, 48, 115
1, 60737, Note_on_c, 9, 51, 69
1, 60738, Note_on_c, 1, 36, 0
1, 60745, Note_on_c, 0, 76, 69
1, 60747, Note_on_c, 0, 70, 53
1, 60748, Note_on_c, 0, 73, 32
1, 60750, Note_on_c, 0, 64, 67
1, 60750, Note_on_c, 0, 67, 58
1, 60760, Note_on_c, 0, 67, 0
1, 60775, Note_on_c, 0, 67, 17
1, 60802, Note_on_c, 0, 70, 0
1, 60802, Note_on_c, 0, 73, 0
1, 60803, Note_on_c, 0, 76, 0
1, 60803, Note_on_c, 0, 67, 0
1, 60806, Note_on_c, 9, 38, 28
1, 60817, Note_on_c, 0, 64, 0
1, 60823, Note_on_c, 9, 38, 0
1, 60826, Note_on_c, 9, 51, 0
1, 60841, Note_on_c, 1, 48, 0
1, 60847, Note_on_c, 1, 36, 66
1, 60847, Note_on_c, 9, 51, 69
1, 60854, Note_on_c, 9, 38, 28
1, 60869, Note_on_c, 9, 38, 0
1, 60915, Note_on_c, 9, 51, 0
1, 60921, Note_on_c, 9, 38, 44
1, 60924, Note_on_c, 1, 36, 0
1, 60937, Note_on_c, 0, 61, 36
1, 60941, Note_on_c, 9, 51, 48
1, 60957, Note_on_c, 9, 51, 0
1, 60959, Note_on_c, 9, 38, 0
1, 60965, Note_on_c, 0, 61, 0
1, 60966, Note_on_c, 1, 49, 93
1, 60967, Note_on_c, 0, 76, 62
1, 60969, Note_on_c, 0, 70, 71
1, 60971, Note_on_c, 0, 67, 71
1, 60973, Note_on_c, 0, 73, 26
1, 60974, Note_on_c, 0, 64, 56
1, 60975, Note_on_c, 9, 51, 74
1, 60985, Note_on_c, 0, 67, 0
1, 60989, Note_on_c, 0, 76, 0
1, 60990, Note_on_c, 0, 73, 0
1, 60991, Note_on_c, 0, 70, 0
1, 61009, Note_on_c, 0, 64, 0
1, 61044, Pitch_bend_c, 1, 8192
1, 61045, Note_on_c, 9, 38, 27
1, 61047, Pitch_bend_c, 1, 8192
1, 61050, Note_on_c, 9, 51, 0
1, 61051, Note_on_c, 0, 79, 55
1, 61051, Pitch_bend_c, 1, 7680
1, 61054, Pitch_bend_c, 1, 7552
1, 61055, Note_on_c, 9, 38, 0
1, 61056, Note_on_c, 0, 70, 67
1, 61056, Pitch_bend_c, 1, 7296
1, 61058, Note_on_c, 0, 67, 65
1, 61058, Pitch_bend_c, 1, 7168
1, 61059, Note_on_c, 0, 73, 31
1, 61060, Pitch_bend_c, 1, 7040
1, 61062, Pitch_bend_c, 1, 6784
1, 61064, Pitch_bend_c, 1, 6656
1, 61067, Pitch_bend_c, 1, 6400
1, 61069, Note_on_c, 0, 73, 0
1, 61069, Note_on_c, 0, 70, 0
1, 61069, Pitch_bend_c, 1, 6144
1, 61071, Pitch_bend_c, 1, 5888
1, 61073, Note_on_c, 0, 79, 0
1, 61073, Pitch_bend_c, 1, 5632
1, 61074, Note_on_c, 0, 67, 0
1, 61075, Pitch_bend_c, 1, 5376
1, 61077, Note_on_c, 1, 49, 0
1, 61077, Pitch_bend_c, 1, 4992
1, 61080, Pitch_bend_c, 1, 4736
1, 61082, Pitch_bend_c, 1, 4480
1, 61084, Pitch_bend_c, 1, 4096
1, 61086, Pitch_bend_c, 1, 3840
1, 61088, Pitch_bend_c, 1, 3584
1, 61090, Pitch_bend_c, 1, 3456
1, 61090, Note_on_c, 9, 51, 83
1, 61091, Note_on_c, 9, 38, 34
1, 61093, Pitch_bend_c, 1, 3200
1, 61095, Note_on_c, 0, 67, 68
1, 61095, Pitch_bend_c, 1, 2944
1, 61097, Note_on_c, 0, 73, 64
1, 61097, Pitch_bend_c, 1, 2688
1, 61098, Note_on_c, 0, 82, 86
1, 61099, Pitch_bend_c, 1, 2432
1, 61101, Pitch_bend_c, 1, 2176
1, 61103, Pitch_bend_c, 1, 1920
1, 61105, Pitch_bend_c, 1, 1792
1, 61107, Note_on_c, 9, 38, 0
1, 61108, Pitch_bend_c, 1, 1664
1, 61110, Pitch_bend_c, 1, 1408
1, 61112, Pitch_bend_c, 1, 1280
1, 61114, Pitch_bend_c, 1, 1152
1, 61116, Pitch_bend_c, 1, 1024
1, 61118, Pitch_bend_c, 1, 896
1, 61130, Pitch_bend_c, 1, 1408
1, 61132, Pitch_bend_c, 1, 2176
1, 61134, Pitch_bend_c, 1, 3072
1, 61137, Pitch_bend_c, 1, 4096
1, 61139, Pitch_bend_c, 1, 5504
1, 61140, Note_on_c, 0, 82, 0
1, 61141, Note_on_c, 0, 67, 0
1, 61141, Pitch_bend_c, 1, 6912
1, 61143, Pitch_bend_c, 1, 8192
1, 61144, Pitch_bend_c, 1, 8192
1, 61147, Note_on_c, 9, 51, 0
1, 61148, Note_on_c, 0, 73, 0
1, 61163, Note_on_c, 9, 36, 73
1, 61165, Note_on_c, 9, 38, 40
1, 61166, Note_on_c, 1, 49, 90
1, 61172, Note_on_c, 9, 51, 88
1, 61174, Note_on_c, 0, 82, 74
1, 61177, Note_on_c, 0, 73, 64
1, 61178, Note_on_c, 0, 67, 75
1, 61182, Note_on_c, 0, 76, 51
1, 61184, Note_on_c, 9, 36, 0
1, 61197, Note_on_c, 0, 76, 0
1, 61201, Note_on_c, 0, 67, 0
1, 61204, Note_on_c, 9, 38, 0
1, 61209, Note_on_c, 0, 73, 0
1, 61213, Note_on_c, 0, 82, 0
1, 61230, Note_on_c, 0, 67, 42
1, 61232, Pitch_bend_c, 1, 8192
1, 61234, Note_on_c, 9, 51, 0
1, 61236, Note_on_c, 0, 73, 40
1, 61236, Note_on_c, 0, 81, 63
1, 61238, Pitch_bend_c, 1, 8192
1, 61243, Note_on_c, 9, 36, 59
1, 61244, Note_on_c, 9, 38, 49
1, 61245, Note_on_c, 0, 67, 0
1, 61245, Pitch_bend_c, 1, 8192
1, 61250, Pitch_bend_c, 1, 8192
1, 61255, Note_on_c, 0, 65, 50
1, 61255, Pitch_bend_c, 1, 7552
1, 61257, Pitch_bend_c, 1, 7424
1, 61259, Pitch_bend_c, 1, 7296
1, 61261, Pitch_bend_c, 1, 7040
1, 61263, Pitch_bend_c, 1, 6912
1, 61266, Note_on_c, 9, 36, 0
1, 61266, Pitch_bend_c, 1, 6656
1, 61268, Pitch_bend_c, 1, 6400
1, 61269, Note_on_c, 0, 81, 0
1, 61270, Pitch_bend_c, 1, 6144
1, 61272, Pitch_bend_c, 1, 5888
1, 61274, Pitch_bend_c, 1, 5632
1, 61276, Pitch_bend_c, 1, 5120
1, 61277, Note_on_c, 9, 38, 0
1, 61278, Pitch_bend_c, 1, 4864
1, 61281, Pitch_bend_c, 1, 4608
1, 61282, Note_on_c, 0, 73, 0
1, 61283, Pitch_bend_c, 1, 4352
1, 61285, Pitch_bend_c, 1, 3968
1, 61287, Pitch_bend_c, 1, 3712
1, 61289, Pitch_bend_c, 1, 3456
1, 61291, Pitch_bend_c, 1, 3200
1, 61293, Pitch_bend_c, 1, 2816
1, 61296, Pitch_bend_c, 1, 2560
1, 61297, Note_on_c, 0, 65, 0
1, 61298, Pitch_bend_c, 1, 2304
1, 61298, Note_on_c, 9, 51, 62
1, 61300, Pitch_bend_c, 1, 1920
1, 61302, Pitch_bend_c, 1, 1664
1, 61303, Note_on_c, 1, 49, 0
1, 61305, Pitch_bend_c, 1, 1280
1, 61307, Pitch_bend_c, 1, 1024
1, 61309, Note_on_c, 9, 51, 0
1, 61309, Pitch_bend_c, 1, 768
1, 61311, Pitch_bend_c, 1, 512
1, 61313, Pitch_bend_c, 1, 384
1, 61315, Pitch_bend_c, 1, 128
1, 61317, Pitch_bend_c, 1, 0
1, 61320, Pitch_bend_c, 1, 256
1, 61322, Pitch_bend_c, 1, 896
1, 61324, Pitch_bend_c, 1, 2176
1, 61326, Pitch_bend_c, 1, 3712
1, 61328, Pitch_bend_c, 1, 6016
1, 61330, Pitch_bend_c, 1, 8192
1, 61332, Note_on_c, 0, 79, 66
1, 61332, Pitch_bend_c, 1, 8192
1, 61334, Note_on_c, 0, 64, 66
1, 61334, Note_on_c, 0, 70, 61
1, 61335, Note_on_c, 9, 51, 86
1, 61336, Note_on_c, 1, 49, 87
1, 61337, Note_on_c, 0, 73, 38
1, 61383, Note_on_c, 0, 73, 0
1, 61384, Note_on_c, 0, 70, 0
1, 61392, Note_on_c, 0, 79, 0
1, 61401, Note_on_c, 0, 64, 0
1, 61408, Note_on_c, 9, 51, 0
1, 61412, Note_on_c, 9, 38, 42
1, 61413, Note_on_c, 0, 70, 68
1, 61415, Note_on_c, 0, 76, 49
1, 61416, Note_on_c, 0, 73, 34
1, 61417, Note_on_c, 0, 61, 48
1, 61420, Note_on_c, 9, 38, 0
1, 61440, Note_on_c, 0, 76, 0
1, 61442, Note_on_c, 0, 70, 0
1, 61449, Note_on_c, 0, 61, 0
1, 61450, Note_on_c, 0, 73, 0
1, 61451, Note_on_c, 9, 51, 70
1, 61453, Note_on_c, 9, 53, 70
1, 61456, Note_on_c, 9, 38, 48
1, 61490, Note_on_c, 0, 62, 51
1, 61493, Note_on_c, 0, 70, 54
1, 61495, Note_on_c, 0, 74, 53
1, 61496, Note_on_c, 0, 77, 56
1, 61501, Note_on_c, 9, 38, 0
1, 61502, Note_on_c, 0, 65, 56
1, 61512, Note_on_c, 9, 51, 0
1, 61514, Note_on_c, 1, 49, 0
1, 61520, Note_on_c, 9, 53, 0
1, 61525, Note_on_c, 1, 50, 84
1, 61527, Note_on_c, 9, 38, 47
1, 61528, Note_on_c, 0, 62, 0
1, 61530, Note_on_c, 0, 74, 0
1, 61532, Note_on_c, 9, 51, 69
1, 61540, Note_on_c, 0, 65, 0
1, 61542, Note_on_c, 0, 77, 0
1, 61543, Note_on_c, 9, 38, 0
1, 61544, Note_on_c, 0, 70, 0
1, 61572, Note_on_c, 0, 74, 60
1, 61575, Note_on_c, 0, 58, 49
1, 61576, Note_on_c, 0, 65, 48
1, 61604, Note_on_c, 0, 65, 0
1, 61611, Note_on_c, 9, 51, 0
1, 61619, Note_on_c, 0, 74, 0
1, 61624, Note_on_c, 0, 58, 0
1, 61646, Note_on_c, 0, 66, 33
1, 61648, Note_on_c, 1, 38, 45
1, 61651, Note_on_c, 9, 51, 64
1, 61652, Note_on_c, 0, 58, 45
1, 61652, Note_on_c, 0, 70, 56
1, 61654, Note_on_c, 0, 62, 46
1, 61658, Note_on_c, 0, 50, 47
1, 61659, Note_on_c, 1, 38, 0
1, 61661, Note_on_c, 0, 65, 59
1, 61664, Note_on_c, 0, 66, 0
1, 61668, Note_on_c, 9, 51, 0
1, 61690, Note_on_c, 1, 45, 69
1, 61694, Note_on_c, 9, 51, 72
1, 61697, Note_on_c, 9, 53, 72
1, 61702, Note_on_c, 1, 50, 0
1, 61743, Note_on_c, 1, 45, 0
1, 61774, Note_on_c, 1, 38, 63
1, 61777, Note_on_c, 9, 51, 0
1, 61784, Note_on_c, 9, 53, 0
1, 61790, Note_on_c, 0, 50, 0
1, 61808, Note_on_c, 0, 58, 0
1, 61812, Note_on_c, 1, 45, 71
1, 61813, Note_on_c, 9, 51, 54
1, 61838, Note_on_c, 9, 51, 0
1, 61843, Note_on_c, 0, 62, 0
1, 61868, Note_on_c, 0, 65, 0
1, 61869, Note_on_c, 1, 45, 0
1, 61873, Note_on_c, 1, 38, 0
1, 61888, Note_on_c, 9, 38, 58
1, 61891, Note_on_c, 9, 51, 92
1, 61895, Note_on_c, 0, 70, 0
1, 61907, Note_on_c, 9, 38, 0
1, 61918, Note_on_c, 1, 51, 88
1, 61921, Note_on_c, 0, 62, 43
1, 61924, Note_on_c, 0, 58, 35
1, 61924, Note_on_c, 0, 51, 36
1, 61929, Note_on_c, 0, 55, 45
1, 61933, Note_on_c, 9, 38, 38
1, 61955, Note_on_c, 9, 38, 0
1, 61989, Pitch_bend_c, 1, 8192
1, 61990, Pitch_bend_c, 1, 8192
1, 61991, Pitch_bend_c, 1, 8192
1, 61993, Note_on_c, 9, 51, 0
1, 61993, Pitch_bend_c, 1, 7680
1, 61995, Pitch_bend_c, 1, 7424
1, 61998, Pitch_bend_c, 1, 7168
1, 62000, Pitch_bend_c, 1, 6912
1, 62002, Pitch_bend_c, 1, 6656
1, 62004, Pitch_bend_c, 1, 6272
1, 62006, Pitch_bend_c, 1, 5888
1, 62008, Pitch_bend_c, 1, 5504
1, 62010, Pitch_bend_c, 1, 5120
1, 62010, Note_on_c, 9, 51, 45
1, 62013, Pitch_bend_c, 1, 4864
1, 62015, Pitch_bend_c, 1, 4480
1, 62017, Pitch_bend_c, 1, 4224
1, 62019, Pitch_bend_c, 1, 3968
1, 62021, Pitch_bend_c, 1, 3712
1, 62023, Pitch_bend_c, 1, 3456
1, 62025, Pitch_bend_c, 1, 3328
1, 62028, Pitch_bend_c, 1, 3072
1, 62030, Note_on_c, 9, 51, 0
1, 62030, Pitch_bend_c, 1, 2816
1, 62032, Pitch_bend_c, 1, 2688
1, 62034, Pitch_bend_c, 1, 2560
1, 62036, Pitch_bend_c, 1, 2304
1, 62038, Pitch_bend_c, 1, 2176
1, 62040, Pitch_bend_c, 1, 1920
1, 62043, Pitch_bend_c, 1, 1792
1, 62045, Pitch_bend_c, 1, 1664
1, 62047, Pitch_bend_c, 1, 1408
1, 62049, Note_on_c, 1, 51, 0
1, 62049, Pitch_bend_c, 1, 1280
1, 62049, Note_on_c, 9, 51, 62
1, 62051, Pitch_bend_c, 1, 1152
1, 62052, Note_on_c, 0, 74, 72
1, 62054, Pitch_bend_c, 1, 896
1, 62055, Pitch_bend_c, 1, 768
1, 62058, Pitch_bend_c, 1, 640
1, 62063, Pitch_bend_c, 1, 512
1, 62071, Note_on_c, 0, 62, 0
1, 62074, Pitch_bend_c, 1, 768
1, 62076, Pitch_bend_c, 1, 896
1, 62078, Pitch_bend_c, 1, 1408
1, 62080, Note_on_c, 0, 75, 48
1, 62080, Pitch_bend_c, 1, 2432
1, 62082, Pitch_bend_c, 1, 3584
1, 62084, Pitch_bend_c, 1, 5120
1, 62086, Pitch_bend_c, 1, 7040
1, 62088, Pitch_bend_c, 1, 8192
1, 62089, Note_on_c, 0, 58, 0
1, 62090, Note_on_c, 0, 55, 0
1, 62091, Note_on_c, 0, 76, 66
1, 62092, Note_on_c, 0, 74, 0
1, 62100, Note_on_c, 9, 51, 0
1, 62105, Note_on_c, 0, 75, 0
1, 62109, Note_on_c, 1, 51, 87
1, 62115, Note_on_c, 0, 51, 0
1, 62122, Note_on_c, 0, 76, 0
1, 62124, Note_on_c, 0, 77, 54
1, 62124, Note_on_c, 9, 38, 42
1, 62129, Note_on_c, 9, 51, 78
1, 62132, Note_on_c, 9, 38, 0
1, 62147, Note_on_c, 0, 77, 0
1, 62166, Note_on_c, 9, 44, 34
1, 62177, Note_on_c, 9, 44, 0
1, 62196, Pitch_bend_c, 1, 8192
1, 62201, Note_on_c, 0, 70, 69
1, 62201, Pitch_bend_c, 1, 8192
1, 62204, Pitch_bend_c, 1, 8192
1, 62207, Note_on_c, 9, 44, 46
1, 62208, Pitch_bend_c, 1, 7680
1, 62210, Note_on_c, 0, 70, 0
1, 62210, Pitch_bend_c, 1, 7552
1, 62212, Pitch_bend_c, 1, 7424
1, 62214, Pitch_bend_c, 1, 7168
1, 62217, Note_on_c, 9, 44, 0
1, 62217, Pitch_bend_c, 1, 6912
1, 62219, Pitch_bend_c, 1, 6784
1, 62221, Pitch_bend_c, 1, 6528
1, 62223, Pitch_bend_c, 1, 6272
1, 62225, Pitch_bend_c, 1, 6016
1, 62227, Pitch_bend_c, 1, 5760
1, 62229, Pitch_bend_c, 1, 5504
1, 62231, Note_on_c, 9, 51, 0
1, 62232, Pitch_bend_c, 1, 5376
1, 62234, Pitch_bend_c, 1, 4992
1, 62236, Pitch_bend_c, 1, 4736
1, 62238, Pitch_bend_c, 1, 4480
1, 62240, Pitch_bend_c, 1, 4352
1, 62241, Note_on_c, 9, 38, 38
1, 62242, Pitch_bend_c, 1, 4096
1, 62244, Pitch_bend_c, 1, 3840
1, 62247, Note_on_c, 1, 51, 0
1, 62247, Pitch_bend_c, 1, 3712
1, 62248, Note_on_c, 9, 38, 21
1, 62249, Pitch_bend_c, 1, 3584
1, 62250, Note_on_c, 9, 38, 0
1, 62251, Pitch_bend_c, 1, 3456
1, 62253, Pitch_bend_c, 1, 3200
1, 62255, Note_on_c, 0, 70, 73
1, 62256, Pitch_bend_c, 1, 3072
1, 62257, Note_on_c, 9, 38, 0
1, 62258, Pitch_bend_c, 1, 2944
1, 62262, Pitch_bend_c, 1, 2816
1, 62268, Pitch_bend_c, 1, 2944
1, 62271, Pitch_bend_c, 1, 3584
1, 62273, Note_on_c, 0, 70, 0
1, 62273, Pitch_bend_c, 1, 4480
1, 62275, Pitch_bend_c, 1, 5760
1, 62277, Pitch_bend_c, 1, 7424
1, 62279, Note_on_c, 0, 62, 22
1, 62279, Pitch_bend_c, 1, 8192
1, 62279, Note_on_c, 9, 44, 30
1, 62281, Note_on_c, 1, 51, 78
1, 62286, Note_on_c, 0, 70, 28
1, 62287, Note_on_c, 9, 51, 36
1, 62291, Note_on_c, 9, 44, 0
1, 62292, Note_on_c, 0, 62, 0
1, 62292, Note_on_c, 0, 58, 18
1, 62313, Note_on_c, 0, 72, 64
1, 62319, Note_on_c, 9, 44, 64
1, 62330, Note_on_c, 9, 44, 0
1, 62330, Note_on_c, 0, 70, 0
1, 62338, Note_on_c, 9, 51, 0
1, 62340, Note_on_c, 0, 74, 64
1, 62341, Note_on_c, 0, 58, 0
1, 62345, Note_on_c, 0, 72, 0
1, 62358, Note_on_c, 9, 38, 37
1, 62362, Note_on_c, 9, 51, 67
1, 62366, Note_on_c, 9, 38, 0
1, 62368, Note_on_c, 0, 74, 0
1, 62385, Note_on_c, 9, 51, 0
1, 62389, Note_on_c, 1, 51, 0
1, 62395, Note_on_c, 0, 67, 75
1, 62397, Note_on_c, 9, 44, 42
1, 62404, Note_on_c, 9, 51, 57
1, 62407, Note_on_c, 9, 44, 0
1, 62409, Note_on_c, 1, 52, 62
1, 62411, Note_on_c, 0, 67, 0
1, 62413, Note_on_c, 1, 53, 44
1, 62423, Note_on_c, 1, 53, 0
1, 62436, Note_on_c, 9, 44, 49
1, 62443, Note_on_c, 9, 44, 0
1, 62443, Note_on_c, 0, 67, 55
1, 62462, Note_on_c, 1, 52, 0
1, 62473, Note_on_c, 0, 68, 23
1, 62476, Note_on_c, 9, 38, 38
1, 62478, Note_on_c, 9, 51, 0
1, 62480, Note_on_c, 1, 46, 71
1, 62481, Note_on_c, 0, 67, 0
1, 62482, Note_on_c, 9, 38, 36
1, 62485, Note_on_c, 9, 38, 0
1, 62486, Note_on_c, 0, 68, 0
1, 62489, Note_on_c, 0, 69, 67
1, 62491, Note_on_c, 9, 38, 0
1, 62508, Note_on_c, 0, 70, 75
1, 62511, Note_on_c, 0, 69, 0
1, 62516, Note_on_c, 9, 51, 52
1, 62517, Note_on_c, 9, 38, 49
1, 62531, Note_on_c, 1, 43, 49
1, 62533, Note_on_c, 0, 70, 0
1, 62539, Note_on_c, 9, 38, 0
1, 62550, Note_on_c, 1, 46, 0
1, 62552, Note_on_c, 0, 64, 79
1, 62569, Note_on_c, 0, 64, 0
1, 62572, Note_on_c, 9, 51, 0
1, 62596, Note_on_c, 9, 38, 49
1, 62602, Note_on_c, 0, 64, 71
1, 62614, Note_on_c, 9, 38, 0
1, 62615, Note_on_c, 0, 64, 0
1, 62615, Note_on_c, 1, 43, 0
1, 62640, Note_on_c, 0, 64, 71
1, 62641, Note_on_c, 1, 40, 62
1, 62648, Note_on_c, 0, 58, 33
1, 62653, Note_on_c, 9, 51, 57
1, 62655, Note_on_c, 0, 65, 60
1, 62657, Note_on_c, 0, 64, 0
1, 62667, Note_on_c, 0, 58, 0
1, 62672, Note_on_c, 9, 51, 0
1, 62674, Note_on_c, 0, 66, 49
1, 62685, Note_on_c, 0, 65, 0
1, 62695, Note_on_c, 0, 66, 0
1, 62699, Note_on_c, 0, 67, 60
1, 62722, Note_on_c, 9, 38, 36
1, 62724, Note_on_c, 0, 67, 0
1, 62730, Note_on_c, 9, 38, 0
1, 62753, Note_on_c, 1, 40, 0
1, 62761, Note_on_c, 1, 34, 60
1, 62765, Note_on_c, 9, 51, 56
1, 62775, Note_on_c, 9, 51, 0
1, 62830, Note_on_c, 0, 61, 74
1, 62841, Note_on_c, 9, 38, 40
1, 62842, Note_on_c, 9, 51, 69
1, 62846, Note_on_c, 0, 61, 0
1, 62856, Note_on_c, 9, 38, 0
1, 62858, Note_on_c, 9, 51, 0
1, 62874, Note_on_c, 1, 34, 0
1, 62876, Note_on_c, 1, 33, 64
1, 62880, Note_on_c, 0, 61, 65
1, 62886, Note_on_c, 9, 51, 57
1, 62888, Note_on_c, 9, 38, 47
1, 62899, Note_on_c, 0, 55, 32
1, 62901, Note_on_c, 9, 38, 0
1, 62904, Note_on_c, 0, 62, 60
1, 62909, Note_on_c, 0, 61, 0
1, 62910, Note_on_c, 0, 55, 0
1, 62920, Note_on_c, 0, 63, 52
1, 62932, Note_on_c, 0, 62, 0
1, 62947, Note_on_c, 9, 51, 0
1, 62950, Note_on_c, 0, 64, 68
1, 62955, Note_on_c, 9, 38, 33
1, 62956, Note_on_c, 0, 63, 0
1, 62956, Note_on_c, 9, 38, 45
1, 62963, Note_on_c, 9, 38, 0
1, 62963, Note_on_c, 9, 38, 0
1, 62971, Note_on_c, 0, 64, 0
1, 62993, Note_on_c, 1, 33, 0
1, 62998, Note_on_c, 9, 51, 59
1, 62999, Note_on_c, 9, 38, 50
1, 63002, Note_on_c, 0, 57, 66
1, 63004, Note_on_c, 0, 61, 30
1, 63007, Note_on_c, 9, 38, 0
1, 63011, Note_on_c, 1, 36, 69
1, 63013, Note_on_c, 0, 61, 0
1, 63013, Note_on_c, 0, 57, 0
1, 63014, Note_on_c, 9, 51, 0
1, 63035, Note_on_c, 9, 38, 42
1, 63047, Note_on_c, 9, 38, 0
1, 63052, Note_on_c, 0, 57, 62
1, 63064, Note_on_c, 0, 58, 49
1, 63074, Note_on_c, 9, 38, 54
1, 63078, Note_on_c, 0, 57, 0
1, 63081, Note_on_c, 9, 38, 41
1, 63082, Note_on_c, 0, 59, 56
1, 63089, Note_on_c, 9, 38, 0
1, 63093, Note_on_c, 0, 58, 0
1, 63101, Note_on_c, 9, 38, 0
1, 63103, Note_on_c, 0, 59, 0
1, 63103, Note_on_c, 0, 60, 60
1, 63122, Note_on_c, 0, 60, 0
1, 63122, Note_on_c, 1, 36, 0
1, 63130, Note_on_c, 1, 37, 72
1, 63131, Note_on_c, 9, 51, 51
1, 63163, Note_on_c, 9, 51, 0
1, 63167, Note_on_c, 0, 60, 80
1, 63173, Note_on_c, 9, 38, 44
1, 63184, Note_on_c, 9, 38, 0
1, 63186, Note_on_c, 0, 60, 0
1, 63199, Note_on_c, 9, 51, 65
1, 63208, Note_on_c, 9, 38, 41
1, 63220, Note_on_c, 0, 60, 60
1, 63223, Note_on_c, 9, 51, 0
1, 63225, Note_on_c, 1, 37, 0
1, 63226, Note_on_c, 9, 38, 0
1, 63240, Note_on_c, 9, 51, 71
1, 63241, Note_on_c, 0, 59, 53
1, 63245, Note_on_c, 0, 60, 0
1, 63246, Note_on_c, 9, 38, 54
1, 63247, Note_on_c, 1, 40, 75
1, 63255, Note_on_c, 9, 38, 0
1, 63260, Note_on_c, 0, 58, 58
1, 63264, Note_on_c, 0, 59, 0
1, 63283, Note_on_c, 9, 38, 51
1, 63285, Note_on_c, 0, 57, 56
1, 63292, Note_on_c, 9, 38, 0
1, 63295, Note_on_c, 0, 58, 0
1, 63317, Note_on_c, 9, 51, 0
1, 63321, Note_on_c, 0, 57, 0
1, 63327, Note_on_c, 9, 36, 50
1, 63330, Note_on_c, 1, 37, 46
1, 63331, Note_on_c, 1, 40, 0
1, 63336, Note_on_c, 9, 36, 0
1, 63356, Note_on_c, 9, 51, 69
1, 63359, Note_on_c, 9, 53, 66
1, 63370, Note_on_c, 9, 57, 68
1, 63370, Note_on_c, 9, 36, 62
1, 63371, Note_on_c, 1, 38, 67
1, 63372, Note_on_c, 9, 38, 36
1, 63375, Note_on_c, 1, 37, 0
1, 63385, Note_on_c, 9, 57, 0
1, 63389, Note_on_c, 9, 36, 0
1, 63393, Note_on_c, 9, 38, 0
1, 63451, Note_on_c, 0, 38, 62
1, 63452, Note_on_c, 9, 51, 0
1, 63460, Note_on_c, 0, 38, 0
1, 63460, Note_on_c, 9, 53, 0
1, 63476, Note_on_c, 1, 38, 0
1, 63485, Note_on_c, 9, 51, 62
1, 63492, Note_on_c, 1, 38, 83
1, 63500, Note_on_c, 0, 57, 48
1, 63509, Note_on_c, 0, 57, 0
1, 63538, Note_on_c, 0, 60, 60
1, 63548, Note_on_c, 0, 60, 0
1, 63550, Note_on_c, 9, 51, 0
1, 63570, Note_on_c, 9, 38, 52
1, 63574, Note_on_c, 9, 51, 76
1, 63577, Note_on_c, 0, 64, 84
1, 63587, Note_on_c, 9, 38, 0
1, 63591, Note_on_c, 1, 38, 0
1, 63597, Note_on_c, 9, 51, 0
1, 63601, Note_on_c, 0, 64, 0
1, 63609, Note_on_c, 1, 37, 72
1, 63614, Note_on_c, 9, 51, 64
1, 63615, Note_on_c, 9, 38, 40
1, 63620, Note_on_c, 0, 67, 75
1, 63647, Note_on_c, 9, 38, 0
1, 63686, Note_on_c, 0, 67, 0
1, 63690, Note_on_c, 9, 38, 45
1, 63698, Note_on_c, 0, 64, 40
1, 63699, Note_on_c, 9, 51, 0
1, 63707, Note_on_c, 9, 38, 0
1, 63709, Note_on_c, 1, 37, 0
1, 63714, Note_on_c, 0, 64, 0
1, 63727, Note_on_c, 1, 37, 75
1, 63729, Note_on_c, 9, 51, 86
1, 63736, Note_on_c, 0, 65, 67
1, 63738, Note_on_c, 0, 49, 38
1, 63741, Note_on_c, 0, 56, 26
1, 63741, Note_on_c, 0, 59, 24
1, 63792, Note_on_c, 9, 51, 0
1, 63799, Note_on_c, 0, 59, 0
1, 63821, Note_on_c, 0, 56, 0
1, 63821, Note_on_c, 9, 51, 69
1, 63827, Note_on_c, 0, 65, 0
1, 63829, Note_on_c, 0, 49, 0
1, 63835, Note_on_c, 9, 51, 0
1, 63840, Note_on_c, 1, 36, 72
1, 63844, Note_on_c, 1, 37, 0
1, 63850, Note_on_c, 0, 58, 54
1, 63850, Note_on_c, 0, 63, 54
1, 63851, Note_on_c, 9, 51, 72
1, 63853, Note_on_c, 0, 48, 53
1, 63938, Note_on_c, 1, 36, 0
1, 63942, Note_on_c, 9, 51, 0
1, 63958, Note_on_c, 1, 48, 92
1, 63962, Note_on_c, 0, 60, 40
1, 63965, Note_on_c, 0, 58, 0
1, 63967, Control_c, 0, 64, 127
1, 63970, Note_on_c, 9, 51, 90
1, 63982, Note_on_c, 0, 60, 0
1, 63992, Note_on_c, 0, 63, 0
1, 64028, Note_on_c, 0, 48, 0
1, 64029, Note_on_c, 9, 51, 0
1, 64041, Note_on_c, 0, 51, 46
1, 64043, Note_on_c, 0, 66, 42
1, 64044, Note_on_c, 0, 62, 62
1, 64046, Control_c, 0, 64, 0
1, 64047, Note_on_c, 0, 69, 47
1, 64047, Note_on_c, 0, 57, 44
1, 64047, Note_on_c, 1, 40, 55
1, 64052, Note_on_c, 9, 51, 51
1, 64059, Note_on_c, 1, 48, 0
1, 64069, Note_on_c, 9, 51, 0
1, 64077, Note_on_c, 1, 40, 0
1, 64085, Control_c, 0, 64, 127
1, 64085, Note_on_c, 9, 51, 76
1, 64088, Note_on_c, 1, 41, 65
1, 64114, Note_on_c, 0, 62, 0
1, 64115, Note_on_c, 0, 69, 0
1, 64127, Note_on_c, 0, 66, 0
1, 64134, Note_on_c, 0, 51, 0
1, 64139, Note_on_c, 0, 57, 0
1, 64163, Note_on_c, 0, 51, 35
1, 64163, Note_on_c, 0, 72, 81
1, 64164, Note_on_c, 9, 51, 0
1, 64169, Note_on_c, 0, 57, 37
1, 64179, Note_on_c, 1, 39, 30
1, 64181, Control_c, 0, 64, 0
1, 64184, Note_on_c, 0, 57, 0
1, 64204, Note_on_c, 1, 41, 0
1, 64204, Note_on_c, 9, 51, 86
1, 64205, Note_on_c, 0, 72, 0
1, 64205, Note_on_c, 1, 53, 91
1, 64215, Note_on_c, 1, 39, 0
1, 64215, Control_c, 0, 64, 127
1, 64259, Note_on_c, 9, 51, 0
1, 64288, Note_on_c, 0, 51, 0
1, 64290, Note_on_c, 0, 69, 68
1, 64290, Note_on_c, 0, 62, 63
1, 64291, Note_on_c, 0, 65, 66
1, 64294, Control_c, 0, 64, 0
1, 64296, Note_on_c, 9, 51, 71
1, 64297, Note_on_c, 1, 53, 0
1, 64297, Note_on_c, 0, 57, 51
1, 64298, Note_on_c, 0, 53, 35
1, 64300, Note_on_c, 0, 46, 37
1, 64310, Note_on_c, 9, 51, 0
1, 64321, Note_on_c, 1, 46, 71
1, 64326, Note_on_c, 9, 51, 82
1, 64345, Control_c, 0, 64, 127
1, 64361, Note_on_c, 0, 62, 0
1, 64387, Note_on_c, 0, 53, 0
1, 64395, Note_on_c, 0, 46, 0
1, 64397, Note_on_c, 0, 65, 0
1, 64398, Note_on_c, 9, 51, 0
1, 64408, Note_on_c, 0, 57, 0
1, 64412, Note_on_c, 0, 69, 0
1, 64422, Note_on_c, 1, 46, 0
1, 64444, Note_on_c, 1, 46, 68
1, 64446, Note_on_c, 9, 51, 93
1, 64495, Note_on_c, 9, 51, 0
1, 64524, Note_on_c, 9, 38, 35
1, 64533, Note_on_c, 9, 51, 56
1, 64534, Note_on_c, 9, 38, 0
1, 64541, Note_on_c, 9, 51, 0
1, 64550, Note_on_c, 1, 46, 0
1, 64567, Note_on_c, 1, 41, 66
1, 64569, Note_on_c, 9, 51, 60
1, 64582, Note_on_c, 9, 51, 0
1, 64644, Note_on_c, 0, 82, 73
1, 64645, Note_on_c, 9, 51, 95
1, 64646, Note_on_c, 0, 70, 78
1, 64647, Note_on_c, 0, 62, 53
1, 64648, Note_on_c, 0, 65, 63
1, 64652, Note_on_c, 0, 60, 36
1, 64656, Note_on_c, 0, 65, 0
1, 64661, Note_on_c, 0, 60, 0
1, 64663, Note_on_c, 9, 51, 0
1, 64664, Note_on_c, 0, 70, 0
1, 64665, Note_on_c, 0, 62, 0
1, 64668, Note_on_c, 0, 82, 0
1, 64668, Note_on_c, 1, 41, 0
1, 64672, Control_c, 0, 64, 0
1, 64686, Note_on_c, 1, 40, 75
1, 64687, Note_on_c, 0, 65, 49
1, 64688, Note_on_c, 0, 62, 57
1, 64688, Note_on_c, 0, 60, 50
1, 64688, Note_on_c, 9, 51, 81
1, 64692, Note_on_c, 0, 84, 68
1, 64694, Control_c, 0, 64, 127
1, 64696, Note_on_c, 0, 72, 52
1, 64696, Note_on_c, 0, 83, 32
1, 64704, Note_on_c, 9, 51, 0
1, 64704, Note_on_c, 0, 65, 0
1, 64705, Note_on_c, 0, 83, 0
1, 64705, Note_on_c, 0, 72, 0
1, 64707, Note_on_c, 0, 62, 0
1, 64714, Note_on_c, 0, 60, 0
1, 64719, Note_on_c, 0, 84, 0
1, 64763, Note_on_c, 9, 51, 108
1, 64766, Note_on_c, 0, 82, 74
1, 64766, Note_on_c, 0, 86, 81
1, 64767, Note_on_c, 0, 62, 66
1, 64767, Note_on_c, 0, 74, 89
1, 64767, Note_on_c, 0, 79, 79
1, 64768, Note_on_c, 0, 60, 67
1, 64770, Note_on_c, 0, 65, 80
1, 64770, Note_on_c, 0, 55, 79
1, 64773, Control_c, 0, 64, 0
1, 64773, Note_on_c, 0, 58, 46
1, 64782, Note_on_c, 1, 40, 0
1, 64806, Note_on_c, 1, 39, 83
1, 64826, Control_c, 0, 64, 127
1, 64860, Note_on_c, 9, 51, 0
1, 64886, Note_on_c, 9, 51, 57
1, 64891, Note_on_c, 9, 38, 29
1, 64898, Note_on_c, 9, 38, 0
1, 64899, Note_on_c, 9, 51, 0
1, 64914, Note_on_c, 1, 39, 0
1, 64930, Note_on_c, 1, 39, 83
1, 64930, Note_on_c, 9, 51, 71
1, 64936, Note_on_c, 9, 38, 33
1, 64943, Note_on_c, 9, 38, 0
1, 64946, Note_on_c, 0, 65, 0
1, 64950, Note_on_c, 9, 51, 0
1, 64955, Note_on_c, 0, 62, 0
1, 64965, Note_on_c, 0, 60, 0
1, 64969, Note_on_c, 0, 55, 0
1, 64979, Note_on_c, 0, 58, 0
1, 65003, Note_on_c, 0, 74, 0
1, 65004, Note_on_c, 9, 38, 84
1, 65005, Note_on_c, 0, 79, 0
1, 65009, Note_on_c, 9, 51, 90
1, 65011, Note_on_c, 9, 53, 81
1, 65019, Note_on_c, 0, 86, 0
1, 65019, Note_on_c, 9, 38, 0
1, 65027, Note_on_c, 0, 82, 0
1, 65069, Note_on_c, 9, 51, 0
1, 65082, Note_on_c, 9, 53, 0
1, 65124, Note_on_c, 0, 87, 74
1, 65126, Note_on_c, 0, 75, 77
1, 65129, Note_on_c, 0, 82, 60
1, 65131, Note_on_c, 9, 38, 29
1, 65134, Note_on_c, 9, 53, 43
1, 65137, Note_on_c, 9, 38, 0
1, 65143, Note_on_c, 9, 53, 0
1, 65149, Note_on_c, 0, 75, 0
1, 65156, Note_on_c, 0, 82, 0
1, 65165, Note_on_c, 0, 87, 0
1, 65186, Note_on_c, 9, 53, 29
1, 65194, Note_on_c, 0, 89, 71
1, 65195, Note_on_c, 9, 53, 0
1, 65196, Note_on_c, 0, 77, 59
1, 65203, Note_on_c, 1, 39, 0
1, 65225, Note_on_c, 0, 77, 0
1, 65231, Note_on_c, 0, 89, 0
1, 65255, Note_on_c, 9, 57, 39
1, 65258, Note_on_c, 9, 51, 69
1, 65261, Note_on_c, 9, 53, 68
1, 65281, Control_c, 0, 64, 0
1, 65289, Note_on_c, 0, 44, 84
1, 65289, Note_on_c, 0, 79, 92
1, 65290, Note_on_c, 0, 91, 95
1, 65290, Note_on_c, 0, 87, 81
1, 65290, Note_on_c, 0, 84, 88
1, 65291, Note_on_c, 0, 51, 85
1, 65292, Note_on_c, 9, 57, 44
1, 65297, Note_on_c, 0, 89, 45
1, 65297, Note_on_c, 9, 38, 37
1, 65298, Note_on_c, 9, 57, 0
1, 65304, Note_on_c, 9, 38, 0
1, 65306, Note_on_c, 0, 89, 0
1, 65318, Control_c, 0, 64, 127
1, 65337, Note_on_c, 0, 44, 0
1, 65341, Note_on_c, 9, 57, 0
1, 65345, Note_on_c, 0, 51, 0
1, 65347, Note_on_c, 9, 53, 0
1, 65348, Note_on_c, 9, 51, 0
1, 65381, Note_on_c, 9, 51, 64
1, 65407, Note_on_c, 9, 51, 0
1, 65441, Note_on_c, 0, 63, 77
1, 65442, Note_on_c, 0, 58, 67
1, 65442, Note_on_c, 0, 60, 79
1, 65442, Note_on_c, 9, 51, 58
1, 65444, Note_on_c, 0, 53, 71
1, 65477, Note_on_c, 9, 51, 0
1, 65484, Note_on_c, 0, 84, 0
1, 65487, Note_on_c, 0, 79, 0
1, 65491, Note_on_c, 0, 91, 0
1, 65494, Note_on_c, 0, 87, 0
1, 65499, Note_on_c, 0, 53, 0
1, 65503, Note_on_c, 0, 60, 0
1, 65508, Note_on_c, 0, 63, 0
1, 65524, Note_on_c, 0, 58, 0
1, 65598, Note_on_c, 0, 92, 91
1, 65599, Note_on_c, 0, 60, 81
1, 65600, Note_on_c, 0, 58, 69
1, 65600, Note_on_c, 0, 63, 82
1, 65601, Note_on_c, 0, 87, 91
1, 65601, Note_on_c, 0, 80, 86
1, 65602, Note_on_c, 0, 53, 77
1, 65604, Note_on_c, 9, 51, 63
1, 65604, Note_on_c, 9, 57, 39
1, 65610, Note_on_c, 9, 53, 64
1, 65663, Note_on_c, 0, 63, 0
1, 65674, Note_on_c, 0, 53, 0
1, 65681, Note_on_c, 0, 80, 0
1, 65684, Note_on_c, 0, 60, 0
1, 65688, Note_on_c, 0, 92, 0
1, 65692, Note_on_c, 0, 58, 0
1, 65695, Note_on_c, 0, 87, 0
1, 65738, Note_on_c, 9, 57, 0
1, 65747, Note_on_c, 9, 51, 0
1, 65749, Note_on_c, 9, 53, 0
1, 65770, Note_on_c, 0, 87, 90
1, 65770, Note_on_c, 0, 94, 84
1, 65771, Note_on_c, 0, 60, 79
1, 65771, Note_on_c, 0, 82, 80
1, 65771, Note_on_c, 9, 57, 35
1, 65772, Note_on_c, 0, 58, 56
1, 65772, Note_on_c, 0, 63, 78
1, 65772, Note_on_c, 9, 51, 65
1, 65773, Note_on_c, 9, 53, 64
1, 65776, Note_on_c, 0, 53, 62
1, 65803, Note_on_c, 0, 63, 0
1, 65810, Note_on_c, 0, 60, 0
1, 65814, Note_on_c, 0, 53, 0
1, 65820, Note_on_c, 0, 58, 0
1, 65824, Note_on_c, 0, 87, 0
1, 65831, Note_on_c, 0, 82, 0
1, 65834, Note_on_c, 0, 94, 0
1, 65871, Note_on_c, 9, 57, 0
1, 65876, Note_on_c, 9, 53, 0
1, 65877, Note_on_c, 9, 51, 0
1, 65964, Note_on_c, 9, 57, 46
1, 65968, Note_on_c, 0, 37, 93
1, 65969, Note_on_c, 0, 25, 85
1, 65969, Note_on_c, 0, 92, 93
1, 65969, Note_on_c, 9, 53, 68
1, 65970, Note_on_c, 0, 84, 105
1, 65970, Note_on_c, 0, 89, 95
1, 65970, Note_on_c, 0, 96, 103
1, 65973, Note_on_c, 9, 50, 64
1, 65980, Control_c, 0, 64, 0
1, 66004, Note_on_c, 9, 51, 1
1, 66023, Control_c, 0, 64, 127
1, 66026, Note_on_c, 9, 50, 0
1, 66042, Note_on_c, 0, 25, 0
1, 66045, Note_on_c, 0, 96, 0
1, 66052, Note_on_c, 0, 89, 0
1, 66054, Note_on_c, 0, 37, 0
1, 66056, Note_on_c, 0, 92, 0
1, 66060, Note_on_c, 0, 84, 0
1, 66106, Note_on_c, 9, 53, 0
1, 66117, Note_on_c, 9, 51, 0
1, 66124, Note_on_c, 9, 57, 0
1, 66147, Note_on_c, 9, 51, 55
1, 66151, Note_on_c, 9, 53, 57
1, 66161, Note_on_c, 0, 75, 69
1, 66163, Note_on_c, 0, 68, 79
1, 66164, Note_on_c, 0, 63, 72
1, 66165, Note_on_c, 0, 72, 74
1, 66166, Note_on_c, 0, 65, 80
1, 66204, Note_on_c, 0, 65, 0
1, 66218, Note_on_c, 0, 68, 0
1, 66219, Note_on_c, 0, 72, 0
1, 66226, Note_on_c, 0, 63, 0
1, 66230, Note_on_c, 0, 75, 0
1, 66309, Note_on_c, 9, 53, 0
1, 66311, Note_on_c, 9, 51, 0
1, 66336, Note_on_c, 0, 87, 83
1, 66339, Note_on_c, 0, 80, 72
1, 66339, Note_on_c, 0, 77, 69
1, 66340, Note_on_c, 0, 84, 68
1, 66344, Note_on_c, 0, 72, 71
1, 66358, Note_on_c, 9, 51, 60
1, 66363, Note_on_c, 9, 53, 63
1, 66388, Note_on_c, 0, 84, 0
1, 66390, Note_on_c, 0, 87, 0
1, 66395, Note_on_c, 0, 80, 0
1, 66403, Note_on_c, 0, 77, 0
1, 66410, Note_on_c, 0, 72, 0
1, 66448, Note_on_c, 0, 84, 64
1, 66449, Note_on_c, 0, 80, 59
1, 66450, Note_on_c, 0, 77, 63
1, 66450, Note_on_c, 0, 68, 61
1, 66452, Note_on_c, 0, 72, 61
1, 66469, Note_on_c, 0, 84, 0
1, 66476, Note_on_c, 0, 77, 0
1, 66478, Note_on_c, 0, 80, 0
1, 66489, Note_on_c, 0, 72, 0
1, 66496, Note_on_c, 0, 68, 0
1, 66497, Note_on_c, 9, 53, 0
1, 66503, Note_on_c, 9, 51, 0
1, 66527, Note_on_c, 0, 80, 54
1, 66531, Note_on_c, 0, 75, 64
1, 66533, Note_on_c, 0, 72, 61
1, 66539, Note_on_c, 0, 65, 61
1, 66543, Note_on_c, 9, 51, 57
1, 66544, Note_on_c, 9, 53, 58
1, 66554, Note_on_c, 0, 80, 0
1, 66556, Note_on_c, 0, 75, 0
1, 66559, Note_on_c, 0, 72, 0
1, 66573, Note_on_c, 0, 65, 0
1, 66601, Note_on_c, 0, 77, 56
1, 66604, Note_on_c, 0, 72, 48
1, 66606, Note_on_c, 0, 61, 50
1, 66612, Note_on_c, 0, 67, 34
1, 66615, Note_on_c, 0, 72, 0
1, 66622, Note_on_c, 0, 77, 0
1, 66624, Note_on_c, 0, 67, 0
1, 66647, Note_on_c, 0, 61, 0
1, 66679, Note_on_c, 0, 75, 55
1, 66685, Note_on_c, 0, 68, 47
1, 66685, Note_on_c, 0, 56, 33
1, 66685, Note_on_c, 0, 65, 60
1, 66692, Note_on_c, 0, 72, 27
1, 66693, Note_on_c, 9, 53, 0
1, 66697, Note_on_c, 9, 51, 0
1, 66700, Note_on_c, 0, 72, 0
1, 66703, Note_on_c, 0, 75, 0
1, 66703, Note_on_c, 0, 68, 0
1, 66706, Note_on_c, 0, 65, 0
1, 66736, Note_on_c, 9, 51, 56
1, 66738, Note_on_c, 9, 53, 42
1, 66741, Note_on_c, 0, 56, 0
1, 66758, Note_on_c, 0, 72, 42
1, 66762, Note_on_c, 0, 60, 48
1, 66762, Note_on_c, 0, 68, 30
1, 66762, Note_on_c, 0, 65, 62
1, 66768, Note_on_c, 0, 72, 0
1, 66768, Note_on_c, 0, 53, 29
1, 66774, Note_on_c, 0, 68, 0
1, 66775, Note_on_c, 0, 65, 0
1, 66782, Note_on_c, 0, 60, 0
1, 66808, Control_c, 9, 64, 127
1, 66815, Note_on_c, 0, 53, 0
1, 66837, Note_on_c, 0, 68, 39
1, 66842, Note_on_c, 0, 60, 52
1, 66846, Note_on_c, 0, 49, 42
1, 66852, Note_on_c, 0, 60, 0
1, 66854, Note_on_c, 0, 68, 0
1, 66856, Note_on_c, 9, 51, 0
1, 66874, Note_on_c, 9, 53, 0
1, 66903, Note_on_c, 0, 49, 0
1, 66917, Note_on_c, 0, 65, 59
1, 66920, Note_on_c, 0, 46, 44
1, 66921, Note_on_c, 0, 60, 51
1, 66923, Note_on_c, 0, 55, 45
1, 66929, Note_on_c, 0, 60, 0
1, 66931, Note_on_c, 0, 46, 0
1, 66932, Note_on_c, 0, 65, 0
1, 66934, Note_on_c, 9, 51, 48
1, 66936, Note_on_c, 9, 53, 43
1, 66941, Note_on_c, 0, 55, 0
1, 67012, Note_on_c, 0, 63, 45
1, 67016, Note_on_c, 0, 37, 46
1, 67016, Note_on_c, 0, 56, 52
1, 67018, Note_on_c, 0, 60, 59
1, 67018, Note_on_c, 0, 53, 44
1, 67029, Control_c, 0, 64, 0
1, 67059, Note_on_c, 9, 51, 0
1, 67063, Control_c, 0, 64, 127
1, 67065, Note_on_c, 9, 53, 0
1, 67101, Note_on_c, 0, 53, 0
1, 67107, Note_on_c, 0, 60, 0
1, 67116, Note_on_c, 0, 56, 0
1, 67132, Note_on_c, 0, 25, 37
1, 67133, Note_on_c, 0, 53, 36
1, 67136, Note_on_c, 0, 56, 28
1, 67136, Note_on_c, 0, 60, 53
1, 67156, Note_on_c, 9, 53, 44
1, 67157, Note_on_c, 9, 51, 34
1, 67188, Note_on_c, 9, 53, 0
1, 67188, Note_on_c, 0, 53, 0
1, 67189, Note_on_c, 9, 51, 0
1, 67195, Note_on_c, 0, 60, 0
1, 67207, Note_on_c, 0, 56, 0
1, 67214, Note_on_c, 0, 37, 0
1, 67220, Note_on_c, 0, 63, 0
1, 67252, Note_on_c, 0, 63, 44
1, 67257, Note_on_c, 0, 56, 34
1, 67259, Note_on_c, 0, 53, 33
1, 67261, Note_on_c, 0, 60, 46
1, 67262, Note_on_c, 0, 37, 33
1, 67332, Note_on_c, 0, 60, 0
1, 67334, Note_on_c, 0, 53, 0
1, 67338, Note_on_c, 0, 25, 0
1, 67343, Note_on_c, 0, 56, 0
1, 67381, Note_on_c, 0, 53, 35
1, 67381, Note_on_c, 0, 56, 29
1, 67383, Note_on_c, 0, 60, 44
1, 67383, Note_on_c, 0, 25, 33
1, 67472, Note_on_c, 0, 53, 0
1, 67480, Note_on_c, 0, 60, 0
1, 67481, Note_on_c, 0, 56, 0
1, 67492, Note_on_c, 0, 63, 0
1, 67505, Note_on_c, 0, 25, 0
1, 67514, Note_on_c, 0, 37, 0
1, 67718, Note_on_c, 9, 38, 44
1, 67725, Control_c, 9, 64, 0
1, 67727, Note_on_c, 9, 38, 0
1, 67760, Note_on_c, 9, 38, 47
1, 67779, Note_on_c, 9, 38, 0
1, 67807, Control_c, 0, 64, 0
1, 67810, Note_on_c, 9, 57, 40
1, 67811, Note_on_c, 9, 36, 55
1, 67943, Note_on_c, 9, 57, 0
1, 67954, Control_c, 9, 64, 127
1, 68035, Note_on_c, 9, 36, 0
1, 68035, End_track
0, 0, End_of_file
