0, 0, Header, 0, 1, 384
1, 0, Start_track
1, 0, Title_t, "Far Away Places"
1, 0, Text_t, "Alex Kramer and Joan Whitney\012"
1, 0, Text_t, "This is a really nice melody - lots of opportunity for sparse playing - and also of whole tone stuff, fourthy chord voicings, to try to echo the 'far away' title. Nice words too!\012"
1, 0, System_exclusive, 5, 126, 127, 9, 1, 247
1, 1, System_exclusive, 8, 67, 16, 76, 0, 0, 126, 0, 247
1, 1, System_exclusive, 8, 67, 16, 76, 8, 15, 0, 1, 247
1, 1, System_exclusive, 8, 67, 16, 76, 8, 14, 0, 1, 247
1, 1, System_exclusive, 8, 67, 16, 76, 8, 13, 0, 1, 247
1, 1, System_exclusive, 8, 67, 16, 76, 8, 12, 0, 1, 247
1, 1, System_exclusive, 8, 67, 16, 76, 8, 11, 0, 1, 247
1, 1, System_exclusive, 8, 67, 16, 76, 8, 10, 0, 1, 247
1, 1, System_exclusive, 8, 67, 16, 76, 8, 9, 0, 0, 247
1, 1, System_exclusive, 8, 67, 16, 76, 8, 8, 0, 1, 247
1, 1, System_exclusive, 8, 67, 16, 76, 8, 7, 0, 1, 247
1, 1, System_exclusive, 8, 67, 16, 76, 8, 6, 0, 1, 247
1, 1, System_exclusive, 8, 67, 16, 76, 8, 5, 0, 1, 247
1, 1, System_exclusive, 8, 67, 16, 76, 8, 4, 0, 2, 247
1, 1, System_exclusive, 8, 67, 16, 76, 8, 3, 0, 2, 247
1, 1, System_exclusive, 8, 67, 16, 76, 8, 2, 0, 4, 247
1, 1, System_exclusive, 8, 67, 16, 76, 8, 1, 0, 4, 247
1, 1, System_exclusive, 8, 67, 16, 76, 8, 0, 0, 8, 247
1, 1, System_exclusive, 8, 67, 16, 76, 8, 0, 7, 0, 247
1, 1, System_exclusive, 8, 67, 16, 76, 8, 1, 7, 0, 247
1, 1, System_exclusive, 8, 67, 16, 76, 8, 2, 7, 0, 247
1, 1, System_exclusive, 8, 67, 16, 76, 8, 3, 7, 0, 247
1, 1, System_exclusive, 8, 67, 16, 76, 8, 4, 7, 0, 247
1, 1, System_exclusive, 8, 67, 16, 76, 8, 5, 7, 0, 247
1, 1, System_exclusive, 8, 67, 16, 76, 8, 6, 7, 0, 247
1, 1, System_exclusive, 8, 67, 16, 76, 8, 7, 7, 0, 247
1, 1, System_exclusive, 8, 67, 16, 76, 8, 8, 7, 0, 247
1, 1, System_exclusive, 8, 67, 16, 76, 8, 9, 7, 2, 247
1, 1, System_exclusive, 8, 67, 16, 76, 8, 10, 7, 0, 247
1, 1, System_exclusive, 8, 67, 16, 76, 8, 11, 7, 0, 247
1, 1, System_exclusive, 8, 67, 16, 76, 8, 12, 7, 0, 247
1, 1, System_exclusive, 8, 67, 16, 76, 8, 13, 7, 0, 247
1, 1, System_exclusive, 8, 67, 16, 76, 8, 14, 7, 0, 247
1, 1, System_exclusive, 8, 67, 16, 76, 8, 15, 7, 0, 247
1, 1, System_exclusive, 9, 67, 16, 76, 2, 1, 0, 1, 19, 247
1, 1, System_exclusive, 9, 67, 16, 76, 2, 1, 32, 65, 8, 247
1, 1, System_exclusive, 9, 67, 16, 76, 2, 1, 64, 5, 0, 247
1, 1, System_exclusive, 9, 67, 16, 76, 3, 0, 0, 3, 18, 247
1, 1, System_exclusive, 8, 67, 16, 76, 3, 0, 11, 1, 247
1, 1, System_exclusive, 8, 67, 16, 76, 3, 0, 12, 0, 247
1, 1, System_exclusive, 8, 67, 16, 76, 8, 0, 114, 64, 247
1, 1, System_exclusive, 8, 67, 16, 76, 8, 0, 115, 95, 247
1, 1, System_exclusive, 8, 67, 16, 76, 8, 0, 119, 46, 247
1, 1, System_exclusive, 8, 67, 16, 76, 8, 0, 12, 65, 247
1, 1, System_exclusive, 8, 67, 16, 76, 8, 0, 13, 61, 247
1, 1, Time_signature, 4, 2, 24, 8
1, 1, Key_signature, -1, "major"
1, 1, Tempo, 600000
1, 1, Tempo, 500000
1, 1, Sequencer_specific, 21, 67, 115, 10, 0, 5, 75, 79, 79, 79, 79, 79, 79, 79, 79, 79, 79, 79, 79, 79, 79, 79
1, 1, Sequencer_specific, 6, 67, 115, 10, 0, 4, 1
1, 1, Sequencer_specific, 9, 67, 123, 0, 88, 70, 48, 50, 0, 0
1, 1, Control_c, 0, 11, 127
1, 1, Control_c, 0, 94, 0
1, 1, Control_c, 0, 101, 0
1, 2, Control_c, 0, 100, 1
1, 3, Control_c, 0, 6, 64
1, 4, Control_c, 0, 38, 0
1, 5, Control_c, 0, 74, 53
1, 5, Control_c, 0, 64, 127
1, 385, Control_c, 0, 0, 0
1, 385, Control_c, 0, 32, 122
1, 385, Program_c, 0, 0
1, 386, Control_c, 0, 7, 115
1, 386, Control_c, 0, 10, 64
1, 386, Control_c, 0, 91, 10
1, 386, Control_c, 0, 93, 0
1, 2305, Note_on_c, 0, 81, 60
1, 2329, Note_on_c, 0, 72, 50
1, 2349, Note_on_c, 0, 48, 39
1, 2365, Note_on_c, 0, 57, 24
1, 2657, Note_on_c, 0, 57, 0
1, 2821, Note_on_c, 0, 81, 0
1, 2849, Note_on_c, 0, 72, 0
1, 3033, Note_on_c, 0, 57, 36
1, 3325, Note_on_c, 0, 56, 20
1, 3385, Note_on_c, 0, 57, 0
1, 3421, Note_on_c, 0, 56, 0
1, 3501, Note_on_c, 0, 58, 48
1, 3521, Note_on_c, 0, 70, 76
1, 3545, Note_on_c, 0, 62, 59
1, 3793, Note_on_c, 0, 62, 0
1, 3829, Note_on_c, 0, 58, 0
1, 3857, Note_on_c, 0, 70, 0
1, 3941, Note_on_c, 0, 60, 60
1, 3941, Note_on_c, 0, 69, 68
1, 3953, Note_on_c, 0, 57, 42
1, 4061, Note_on_c, 0, 57, 0
1, 4069, Note_on_c, 0, 69, 0
1, 4089, Note_on_c, 0, 48, 0
1, 4161, Note_on_c, 0, 60, 0
1, 4569, Control_c, 0, 64, 0
1, 4573, Note_on_c, 0, 65, 51
1, 4585, Note_on_c, 0, 55, 40
1, 4585, Note_on_c, 0, 62, 53
1, 4585, Note_on_c, 0, 58, 42
1, 4601, Note_on_c, 0, 48, 39
1, 4605, Note_on_c, 0, 36, 42
1, 4797, Control_c, 0, 64, 127
1, 5201, Note_on_c, 0, 58, 0
1, 5281, Note_on_c, 0, 55, 0
1, 5309, Note_on_c, 0, 62, 0
1, 5345, Note_on_c, 0, 65, 0
1, 5361, Note_on_c, 0, 60, 51
1, 5425, Note_on_c, 0, 60, 0
1, 5593, Note_on_c, 0, 36, 0
1, 5737, Note_on_c, 0, 48, 0
1, 6577, Note_on_c, 0, 77, 67
1, 6601, Note_on_c, 0, 74, 64
1, 6609, Note_on_c, 0, 70, 56
1, 6629, Note_on_c, 0, 58, 41
1, 6637, Note_on_c, 0, 65, 42
1, 6637, Note_on_c, 0, 64, 35
1, 6845, Note_on_c, 0, 64, 0
1, 7097, Note_on_c, 0, 65, 0
1, 7213, Note_on_c, 0, 58, 0
1, 7225, Note_on_c, 0, 74, 0
1, 7277, Note_on_c, 0, 70, 0
1, 7377, Note_on_c, 0, 77, 0
1, 8425, Note_on_c, 0, 81, 75
1, 8445, Control_c, 0, 64, 24
1, 8449, Control_c, 0, 64, 0
1, 8465, Note_on_c, 0, 48, 49
1, 8465, Note_on_c, 0, 72, 64
1, 8617, Control_c, 0, 64, 127
1, 8829, Note_on_c, 0, 72, 0
1, 8829, Note_on_c, 0, 57, 50
1, 8837, Note_on_c, 0, 81, 0
1, 9161, Note_on_c, 0, 82, 87
1, 9177, Note_on_c, 0, 74, 70
1, 9189, Note_on_c, 0, 60, 44
1, 9245, Note_on_c, 0, 57, 0
1, 9389, Note_on_c, 0, 74, 0
1, 9425, Note_on_c, 0, 82, 0
1, 9561, Note_on_c, 0, 60, 0
1, 9597, Note_on_c, 0, 81, 62
1, 9605, Note_on_c, 0, 72, 50
1, 9625, Note_on_c, 0, 57, 38
1, 9713, Note_on_c, 0, 81, 0
1, 9733, Note_on_c, 0, 57, 0
1, 9749, Note_on_c, 0, 72, 0
1, 9817, Note_on_c, 0, 48, 0
1, 10121, Note_on_c, 0, 77, 54
1, 10125, Control_c, 0, 64, 0
1, 10137, Note_on_c, 0, 67, 40
1, 10137, Note_on_c, 0, 27, 47
1, 10145, Note_on_c, 0, 72, 54
1, 10145, Note_on_c, 0, 39, 35
1, 10269, Control_c, 0, 64, 127
1, 10297, Note_on_c, 0, 27, 0
1, 10333, Note_on_c, 0, 39, 0
1, 10553, Note_on_c, 0, 72, 0
1, 10613, Note_on_c, 0, 67, 0
1, 10613, Note_on_c, 0, 77, 0
1, 10685, Note_on_c, 0, 61, 44
1, 10953, Note_on_c, 0, 65, 53
1, 11113, Note_on_c, 0, 69, 57
1, 11213, Note_on_c, 0, 69, 0
1, 11269, Note_on_c, 0, 72, 68
1, 11389, Note_on_c, 0, 72, 0
1, 11421, Note_on_c, 0, 73, 80
1, 11485, Note_on_c, 0, 73, 0
1, 11569, Note_on_c, 0, 77, 73
1, 11681, Note_on_c, 0, 77, 0
1, 11689, Note_on_c, 0, 82, 81
1, 11781, Note_on_c, 0, 82, 0
1, 11829, Note_on_c, 0, 84, 83
1, 11953, Note_on_c, 0, 84, 0
1, 11953, Note_on_c, 0, 89, 93
1, 12097, Note_on_c, 0, 94, 93
1, 12113, Note_on_c, 0, 89, 0
1, 12229, Note_on_c, 0, 94, 0
1, 12253, Note_on_c, 0, 96, 99
1, 12417, Note_on_c, 0, 96, 0
1, 12445, Note_on_c, 0, 94, 85
1, 12653, Note_on_c, 0, 96, 74
1, 12677, Note_on_c, 0, 94, 0
1, 12817, Note_on_c, 0, 96, 0
1, 12869, Note_on_c, 0, 94, 68
1, 12909, Note_on_c, 0, 65, 0
1, 12933, Note_on_c, 0, 61, 0
1, 13093, Note_on_c, 0, 94, 0
1, 13105, Note_on_c, 0, 96, 64
1, 13309, Note_on_c, 0, 96, 0
1, 13361, Note_on_c, 0, 94, 64
1, 13629, Note_on_c, 0, 94, 0
1, 13637, Note_on_c, 0, 96, 58
1, 13889, Note_on_c, 0, 96, 0
1, 13925, Note_on_c, 0, 94, 55
1, 14193, Note_on_c, 0, 94, 0
1, 14205, Note_on_c, 0, 96, 48
1, 14509, Note_on_c, 0, 93, 61
1, 14513, Note_on_c, 0, 96, 0
1, 14521, Control_c, 0, 64, 0
1, 14533, Note_on_c, 0, 48, 45
1, 14561, Note_on_c, 0, 57, 22
1, 14629, Control_c, 0, 64, 127
1, 14825, Note_on_c, 0, 57, 0
1, 14837, Note_on_c, 0, 93, 0
1, 14985, Note_on_c, 0, 57, 42
1, 15325, Note_on_c, 0, 70, 76
1, 15373, Note_on_c, 0, 62, 56
1, 15557, Note_on_c, 0, 70, 0
1, 15569, Note_on_c, 0, 48, 0
1, 15589, Note_on_c, 0, 62, 0
1, 15697, Note_on_c, 0, 69, 71
1, 15709, Note_on_c, 0, 60, 50
1, 15709, Note_on_c, 0, 48, 43
1, 15713, Note_on_c, 0, 57, 0
1, 15785, Note_on_c, 0, 69, 0
1, 15813, Note_on_c, 0, 48, 0
1, 15857, Note_on_c, 0, 60, 0
1, 16077, Control_c, 0, 64, 0
1, 16121, Note_on_c, 0, 65, 61
1, 16129, Note_on_c, 0, 55, 52
1, 16141, Note_on_c, 0, 60, 61
1, 16153, Note_on_c, 0, 45, 40
1, 16229, Control_c, 0, 64, 127
1, 16333, Note_on_c, 0, 45, 0
1, 16433, Note_on_c, 0, 60, 0
1, 16497, Note_on_c, 0, 55, 0
1, 17157, Note_on_c, 0, 65, 0
1, 17213, Control_c, 0, 64, 0
1, 17217, Note_on_c, 0, 54, 40
1, 17229, Note_on_c, 0, 60, 50
1, 17241, Note_on_c, 0, 26, 42
1, 17241, Note_on_c, 0, 58, 43
1, 17241, Note_on_c, 0, 38, 35
1, 17425, Control_c, 0, 64, 127
1, 17669, Note_on_c, 0, 54, 0
1, 17717, Note_on_c, 0, 60, 0
1, 17757, Note_on_c, 0, 58, 0
1, 18073, Note_on_c, 0, 26, 0
1, 18169, Note_on_c, 0, 38, 0
1, 18565, Note_on_c, 0, 69, 62
1, 18669, Note_on_c, 0, 69, 0
1, 18957, Control_c, 0, 64, 0
1, 18969, Note_on_c, 0, 58, 49
1, 18973, Note_on_c, 0, 67, 61
1, 18981, Note_on_c, 0, 63, 50
1, 18985, Note_on_c, 0, 49, 43
1, 18985, Note_on_c, 0, 53, 48
1, 19009, Note_on_c, 0, 59, 35
1, 19189, Control_c, 0, 64, 127
1, 19577, Note_on_c, 0, 59, 0
1, 19609, Note_on_c, 0, 53, 0
1, 19633, Note_on_c, 0, 49, 0
1, 20873, Control_c, 0, 64, 0
1, 20889, Note_on_c, 0, 37, 45
1, 20897, Note_on_c, 0, 44, 45
1, 20917, Control_c, 0, 64, 127
1, 21013, Note_on_c, 0, 37, 0
1, 21025, Note_on_c, 0, 44, 0
1, 21029, Note_on_c, 0, 58, 0
1, 21125, Note_on_c, 0, 63, 0
1, 21161, Note_on_c, 0, 67, 0
1, 21237, Control_c, 0, 64, 0
1, 21261, Note_on_c, 0, 58, 43
1, 21269, Note_on_c, 0, 67, 23
1, 21273, Note_on_c, 0, 36, 53
1, 21301, Note_on_c, 0, 64, 43
1, 21369, Control_c, 0, 64, 127
1, 21401, Note_on_c, 0, 58, 0
1, 21413, Note_on_c, 0, 64, 0
1, 21421, Note_on_c, 0, 67, 0
1, 21465, Note_on_c, 0, 36, 0
1, 21801, Note_on_c, 0, 72, 55
1, 21821, Note_on_c, 0, 60, 55
1, 21829, Note_on_c, 0, 84, 51
1, 21837, Note_on_c, 0, 72, 0
1, 21861, Note_on_c, 0, 60, 0
1, 21957, Note_on_c, 0, 84, 0
1, 22289, Note_on_c, 0, 84, 43
1, 22317, Note_on_c, 0, 72, 41
1, 22329, Note_on_c, 0, 96, 50
1, 22533, Note_on_c, 0, 72, 0
1, 22561, Note_on_c, 0, 96, 0
1, 22577, Note_on_c, 0, 84, 0
1, 23689, Note_on_c, 0, 72, 63
1, 24041, Note_on_c, 0, 74, 70
1, 24049, Note_on_c, 0, 72, 0
1, 24133, Note_on_c, 0, 72, 65
1, 24153, Note_on_c, 0, 74, 0
1, 24277, Note_on_c, 0, 71, 85
1, 24297, Note_on_c, 0, 72, 0
1, 24485, Note_on_c, 0, 71, 0
1, 24501, Note_on_c, 0, 72, 84
1, 24809, Note_on_c, 0, 72, 0
1, 24989, Note_on_c, 0, 82, 72
1, 25277, Note_on_c, 0, 82, 0
1, 25513, Control_c, 0, 64, 0
1, 25517, Note_on_c, 0, 81, 56
1, 25545, Note_on_c, 0, 48, 43
1, 25561, Note_on_c, 0, 57, 25
1, 25681, Control_c, 0, 64, 127
1, 25857, Note_on_c, 0, 57, 0
1, 25961, Note_on_c, 0, 57, 43
1, 25981, Note_on_c, 0, 81, 0
1, 26309, Note_on_c, 0, 82, 76
1, 26337, Note_on_c, 0, 74, 60
1, 26341, Note_on_c, 0, 60, 50
1, 26425, Note_on_c, 0, 57, 0
1, 26749, Note_on_c, 0, 74, 0
1, 26765, Note_on_c, 0, 57, 53
1, 26813, Note_on_c, 0, 60, 0
1, 27085, Note_on_c, 0, 82, 0
1, 27189, Note_on_c, 0, 81, 64
1, 27189, Note_on_c, 0, 60, 46
1, 27205, Note_on_c, 0, 72, 27
1, 27305, Note_on_c, 0, 60, 0
1, 27337, Note_on_c, 0, 81, 0
1, 27349, Note_on_c, 0, 48, 0
1, 27389, Note_on_c, 0, 72, 0
1, 27557, Note_on_c, 0, 48, 57
1, 27617, Note_on_c, 0, 57, 0
1, 27677, Note_on_c, 0, 48, 0
1, 28021, Note_on_c, 0, 56, 62
1, 28021, Note_on_c, 0, 65, 67
1, 28025, Control_c, 0, 64, 0
1, 28033, Note_on_c, 0, 61, 53
1, 28033, Note_on_c, 0, 47, 54
1, 28033, Note_on_c, 0, 51, 47
1, 28033, Note_on_c, 0, 57, 41
1, 28245, Control_c, 0, 64, 127
1, 28625, Note_on_c, 0, 57, 0
1, 28785, Note_on_c, 0, 61, 0
1, 28913, Note_on_c, 0, 57, 40
1, 28917, Note_on_c, 0, 60, 65
1, 28953, Note_on_c, 0, 56, 0
1, 28977, Note_on_c, 0, 65, 0
1, 29121, Note_on_c, 0, 51, 0
1, 29361, Note_on_c, 0, 60, 0
1, 29893, Note_on_c, 0, 65, 86
1, 29989, Note_on_c, 0, 65, 0
1, 30161, Note_on_c, 0, 69, 90
1, 30181, Note_on_c, 0, 57, 0
1, 30197, Note_on_c, 0, 47, 0
1, 30273, Note_on_c, 0, 69, 0
1, 30429, Control_c, 0, 64, 0
1, 30453, Note_on_c, 0, 72, 86
1, 30461, Note_on_c, 0, 65, 76
1, 30465, Note_on_c, 0, 62, 75
1, 30469, Note_on_c, 0, 57, 58
1, 30469, Note_on_c, 0, 46, 57
1, 30589, Control_c, 0, 64, 127
1, 30729, Note_on_c, 0, 57, 0
1, 30761, Note_on_c, 0, 62, 0
1, 30789, Note_on_c, 0, 65, 0
1, 30825, Note_on_c, 0, 72, 0
1, 30877, Control_c, 0, 64, 0
1, 30889, Note_on_c, 0, 70, 78
1, 30889, Note_on_c, 0, 56, 64
1, 30901, Note_on_c, 0, 65, 62
1, 30905, Note_on_c, 0, 62, 55
1, 30985, Control_c, 0, 64, 127
1, 31133, Note_on_c, 0, 62, 0
1, 31169, Note_on_c, 0, 65, 0
1, 31181, Note_on_c, 0, 56, 0
1, 31193, Note_on_c, 0, 70, 0
1, 31325, Note_on_c, 0, 69, 62
1, 31333, Note_on_c, 0, 62, 52
1, 31333, Note_on_c, 0, 55, 50
1, 31333, Note_on_c, 0, 65, 58
1, 31381, Note_on_c, 0, 55, 0
1, 31393, Note_on_c, 0, 69, 0
1, 31409, Note_on_c, 0, 65, 0
1, 31413, Note_on_c, 0, 62, 0
1, 31449, Note_on_c, 0, 46, 0
1, 31805, Control_c, 0, 64, 0
1, 31809, Note_on_c, 0, 67, 60
1, 31825, Note_on_c, 0, 61, 57
1, 31837, Note_on_c, 0, 55, 42
1, 31845, Note_on_c, 0, 27, 46
1, 31849, Note_on_c, 0, 39, 41
1, 31965, Control_c, 0, 64, 127
1, 32257, Note_on_c, 0, 55, 0
1, 32477, Note_on_c, 0, 61, 0
1, 32541, Note_on_c, 0, 55, 46
1, 32669, Note_on_c, 0, 27, 0
1, 32721, Note_on_c, 0, 39, 0
1, 32749, Note_on_c, 0, 55, 0
1, 32749, Note_on_c, 0, 61, 1
1, 32913, Note_on_c, 0, 67, 0
1, 32917, Note_on_c, 0, 61, 0
1, 33365, Control_c, 0, 64, 0
1, 33401, Note_on_c, 0, 70, 60
1, 33401, Note_on_c, 0, 67, 52
1, 33401, Note_on_c, 0, 63, 47
1, 33409, Note_on_c, 0, 59, 45
1, 33429, Note_on_c, 0, 37, 39
1, 33429, Note_on_c, 0, 44, 40
1, 33497, Control_c, 0, 64, 127
1, 33605, Note_on_c, 0, 37, 0
1, 33621, Note_on_c, 0, 44, 0
1, 33721, Note_on_c, 0, 59, 0
1, 33785, Note_on_c, 0, 63, 0
1, 33841, Note_on_c, 0, 67, 0
1, 33857, Note_on_c, 0, 70, 0
1, 34109, Control_c, 0, 64, 0
1, 34169, Note_on_c, 0, 69, 60
1, 34181, Note_on_c, 0, 60, 37
1, 34189, Note_on_c, 0, 65, 46
1, 34201, Note_on_c, 0, 48, 41
1, 34209, Note_on_c, 0, 57, 27
1, 34233, Control_c, 0, 64, 127
1, 34325, Note_on_c, 0, 60, 0
1, 34385, Note_on_c, 0, 65, 0
1, 34401, Note_on_c, 0, 69, 0
1, 34405, Note_on_c, 0, 57, 0
1, 34745, Note_on_c, 0, 84, 69
1, 34785, Note_on_c, 0, 72, 67
1, 34809, Note_on_c, 0, 60, 30
1, 34837, Note_on_c, 0, 57, 26
1, 35105, Note_on_c, 0, 57, 0
1, 35565, Note_on_c, 0, 57, 36
1, 35729, Note_on_c, 0, 84, 0
1, 35825, Note_on_c, 0, 72, 0
1, 35833, Note_on_c, 0, 48, 0
1, 36005, Note_on_c, 0, 48, 44
1, 36117, Note_on_c, 0, 57, 0
1, 36149, Note_on_c, 0, 60, 0
1, 36437, Note_on_c, 0, 58, 52
1, 36521, Note_on_c, 0, 67, 56
1, 36553, Note_on_c, 0, 70, 73
1, 36565, Note_on_c, 0, 62, 43
1, 36589, Control_c, 0, 64, 0
1, 36629, Note_on_c, 0, 79, 70
1, 36725, Control_c, 0, 64, 127
1, 37069, Note_on_c, 0, 58, 0
1, 37125, Note_on_c, 0, 48, 0
1, 37193, Note_on_c, 0, 79, 0
1, 37297, Note_on_c, 0, 70, 0
1, 37357, Note_on_c, 0, 67, 0
1, 37517, Note_on_c, 0, 62, 0
1, 37577, Note_on_c, 0, 48, 54
1, 38541, Note_on_c, 0, 72, 53
1, 38549, Note_on_c, 0, 70, 46
1, 38561, Note_on_c, 0, 62, 38
1, 38561, Note_on_c, 0, 65, 41
1, 38569, Note_on_c, 0, 58, 35
1, 38845, Note_on_c, 0, 48, 0
1, 38861, Note_on_c, 0, 62, 0
1, 38869, Note_on_c, 0, 65, 0
1, 39013, Note_on_c, 0, 48, 56
1, 39033, Note_on_c, 0, 70, 0
1, 39049, Note_on_c, 0, 72, 0
1, 39081, Note_on_c, 0, 58, 0
1, 39421, Note_on_c, 0, 57, 50
1, 39433, Note_on_c, 0, 65, 48
1, 39441, Control_c, 0, 64, 0
1, 39441, Note_on_c, 0, 69, 64
1, 39465, Note_on_c, 0, 72, 65
1, 39473, Note_on_c, 0, 60, 61
1, 39485, Note_on_c, 0, 77, 93
1, 39589, Control_c, 0, 64, 127
1, 39713, Note_on_c, 0, 48, 0
1, 39797, Note_on_c, 0, 48, 68
1, 39829, Note_on_c, 0, 77, 0
1, 39857, Note_on_c, 0, 72, 0
1, 39869, Note_on_c, 0, 69, 0
1, 39901, Note_on_c, 0, 65, 0
1, 39981, Note_on_c, 0, 57, 0
1, 40033, Note_on_c, 0, 60, 0
1, 40145, Note_on_c, 0, 72, 79
1, 40153, Note_on_c, 0, 69, 86
1, 40157, Note_on_c, 0, 57, 64
1, 40165, Note_on_c, 0, 65, 67
1, 40517, Note_on_c, 0, 60, 67
1, 40633, Note_on_c, 0, 65, 0
1, 40733, Note_on_c, 0, 60, 0
1, 40837, Note_on_c, 0, 57, 0
1, 40881, Note_on_c, 0, 69, 0
1, 40897, Note_on_c, 0, 48, 0
1, 40933, Note_on_c, 0, 65, 59
1, 40945, Note_on_c, 0, 60, 52
1, 40949, Note_on_c, 0, 72, 0
1, 41029, Note_on_c, 0, 65, 0
1, 41117, Note_on_c, 0, 60, 0
1, 41177, Marker_t, "On turnaround, a series of 2nd inversion triads on a C pedal (Db,D,Eb,E) to F"
1, 41329, Note_on_c, 0, 36, 55
1, 41721, Control_c, 0, 64, 0
1, 41777, Note_on_c, 0, 61, 61
1, 41781, Note_on_c, 0, 56, 59
1, 41781, Note_on_c, 0, 53, 56
1, 41781, Note_on_c, 0, 48, 53
1, 41881, Control_c, 0, 64, 127
1, 42029, Note_on_c, 0, 53, 0
1, 42129, Note_on_c, 0, 48, 0
1, 42221, Note_on_c, 0, 56, 0
1, 42833, Note_on_c, 0, 36, 0
1, 42873, Note_on_c, 0, 61, 0
1, 43665, Note_on_c, 0, 54, 53
1, 43673, Control_c, 0, 64, 0
1, 43673, Note_on_c, 0, 62, 51
1, 43685, Note_on_c, 0, 57, 53
1, 43689, Note_on_c, 0, 48, 42
1, 43809, Control_c, 0, 64, 127
1, 43893, Note_on_c, 0, 62, 0
1, 43905, Note_on_c, 0, 57, 0
1, 43933, Note_on_c, 0, 54, 0
1, 44069, Control_c, 0, 64, 0
1, 44089, Note_on_c, 0, 55, 59
1, 44097, Note_on_c, 0, 36, 42
1, 44101, Note_on_c, 0, 63, 50
1, 44105, Note_on_c, 0, 58, 54
1, 44201, Control_c, 0, 64, 127
1, 44309, Note_on_c, 0, 55, 0
1, 44369, Note_on_c, 0, 48, 0
1, 44389, Note_on_c, 0, 63, 0
1, 44417, Note_on_c, 0, 58, 0
1, 44553, Note_on_c, 0, 56, 42
1, 44565, Note_on_c, 0, 64, 53
1, 44577, Note_on_c, 0, 59, 55
1, 44589, Note_on_c, 0, 48, 40
1, 44621, Note_on_c, 0, 36, 0
1, 44729, Note_on_c, 0, 64, 0
1, 44773, Note_on_c, 0, 59, 0
1, 44781, Note_on_c, 0, 56, 0
1, 44829, Note_on_c, 0, 48, 0
1, 45001, Control_c, 0, 64, 0
1, 45053, Note_on_c, 0, 65, 44
1, 45053, Note_on_c, 0, 57, 37
1, 45061, Note_on_c, 0, 60, 48
1, 45061, Note_on_c, 0, 41, 46
1, 45081, Note_on_c, 0, 48, 32
1, 45165, Control_c, 0, 64, 127
1, 45221, Note_on_c, 0, 57, 0
1, 45237, Note_on_c, 0, 60, 0
1, 45253, Note_on_c, 0, 65, 0
1, 45437, Note_on_c, 0, 41, 0
1, 45509, Note_on_c, 0, 69, 57
1, 45521, Note_on_c, 0, 60, 45
1, 45529, Note_on_c, 0, 64, 57
1, 45533, Note_on_c, 0, 48, 0
1, 45549, Note_on_c, 0, 57, 37
1, 45689, Note_on_c, 0, 60, 0
1, 45741, Note_on_c, 0, 69, 0
1, 45745, Note_on_c, 0, 57, 0
1, 45749, Note_on_c, 0, 64, 0
1, 45921, Note_on_c, 0, 57, 66
1, 46325, Note_on_c, 0, 57, 0
1, 46329, Note_on_c, 0, 62, 70
1, 46333, Note_on_c, 0, 70, 70
1, 46345, Note_on_c, 0, 65, 73
1, 46353, Note_on_c, 0, 53, 51
1, 46357, Control_c, 0, 64, 0
1, 46437, Control_c, 0, 64, 127
1, 46573, Note_on_c, 0, 53, 0
1, 46765, Note_on_c, 0, 48, 53
1, 46969, Note_on_c, 0, 65, 0
1, 46997, Note_on_c, 0, 62, 0
1, 47033, Note_on_c, 0, 70, 0
1, 47121, Note_on_c, 0, 69, 68
1, 47125, Note_on_c, 0, 60, 55
1, 47129, Note_on_c, 0, 64, 62
1, 47257, Note_on_c, 0, 48, 0
1, 47261, Note_on_c, 0, 64, 0
1, 47341, Note_on_c, 0, 60, 0
1, 47381, Note_on_c, 0, 69, 0
1, 47745, Note_on_c, 0, 65, 62
1, 47753, Note_on_c, 0, 55, 50
1, 47757, Control_c, 0, 64, 0
1, 47761, Note_on_c, 0, 61, 56
1, 47761, Note_on_c, 0, 39, 62
1, 47949, Control_c, 0, 64, 127
1, 48017, Note_on_c, 0, 55, 0
1, 48057, Note_on_c, 0, 39, 0
1, 48057, Note_on_c, 0, 46, 65
1, 48085, Note_on_c, 0, 61, 0
1, 48085, Note_on_c, 0, 65, 0
1, 48277, Note_on_c, 0, 46, 0
1, 48321, Note_on_c, 0, 55, 62
1, 48573, Note_on_c, 0, 55, 0
1, 48605, Note_on_c, 0, 58, 68
1, 48909, Note_on_c, 0, 60, 58
1, 48913, Note_on_c, 0, 72, 62
1, 49169, Note_on_c, 0, 72, 0
1, 49177, Note_on_c, 0, 65, 61
1, 49193, Note_on_c, 0, 77, 78
1, 49205, Note_on_c, 0, 65, 0
1, 49257, Note_on_c, 0, 60, 0
1, 49269, Note_on_c, 0, 58, 0
1, 49441, Note_on_c, 0, 77, 0
1, 49477, Control_c, 0, 64, 0
1, 49493, Note_on_c, 0, 81, 79
1, 49501, Note_on_c, 0, 48, 53
1, 49513, Note_on_c, 0, 77, 58
1, 49517, Note_on_c, 0, 72, 38
1, 49521, Note_on_c, 0, 57, 40
1, 49629, Control_c, 0, 64, 127
1, 49733, Note_on_c, 0, 57, 0
1, 49853, Note_on_c, 0, 57, 50
1, 50077, Note_on_c, 0, 72, 0
1, 50121, Note_on_c, 0, 77, 0
1, 50153, Note_on_c, 0, 57, 0
1, 50177, Note_on_c, 0, 81, 0
1, 50229, Note_on_c, 0, 82, 69
1, 50233, Note_on_c, 0, 72, 58
1, 50237, Note_on_c, 0, 77, 59
1, 50261, Note_on_c, 0, 58, 40
1, 50589, Note_on_c, 0, 58, 0
1, 50765, Note_on_c, 0, 72, 0
1, 50769, Note_on_c, 0, 77, 0
1, 50893, Note_on_c, 0, 82, 0
1, 50937, Note_on_c, 0, 81, 58
1, 50941, Note_on_c, 0, 72, 41
1, 50957, Note_on_c, 0, 77, 55
1, 50957, Note_on_c, 0, 57, 38
1, 51073, Note_on_c, 0, 48, 0
1, 51085, Note_on_c, 0, 81, 0
1, 51125, Note_on_c, 0, 77, 0
1, 51201, Note_on_c, 0, 72, 0
1, 51293, Note_on_c, 0, 57, 0
1, 51293, Note_on_c, 0, 48, 48
1, 51393, Note_on_c, 0, 48, 0
1, 51673, Control_c, 0, 64, 0
1, 51689, Note_on_c, 0, 77, 58
1, 51705, Note_on_c, 0, 67, 47
1, 51705, Note_on_c, 0, 73, 50
1, 51705, Note_on_c, 0, 27, 51
1, 51789, Control_c, 0, 64, 127
1, 51813, Note_on_c, 0, 27, 0
1, 52145, Note_on_c, 0, 67, 0
1, 52193, Note_on_c, 0, 61, 44
1, 52253, Note_on_c, 0, 73, 0
1, 52269, Note_on_c, 0, 77, 0
1, 52557, Note_on_c, 0, 84, 51
1, 52569, Note_on_c, 0, 65, 37
1, 52589, Note_on_c, 0, 72, 55
1, 52633, Note_on_c, 0, 72, 0
1, 52701, Note_on_c, 0, 84, 0
1, 52953, Note_on_c, 0, 96, 73
1, 52989, Note_on_c, 0, 84, 50
1, 53261, Note_on_c, 0, 84, 0
1, 53309, Note_on_c, 0, 96, 0
1, 53429, Note_on_c, 0, 96, 54
1, 53481, Note_on_c, 0, 84, 31
1, 53713, Note_on_c, 0, 96, 0
1, 53837, Note_on_c, 0, 84, 0
1, 53889, Note_on_c, 0, 65, 0
1, 54229, Note_on_c, 0, 61, 0
1, 54401, Note_on_c, 0, 74, 70
1, 54517, Note_on_c, 0, 74, 0
1, 54625, Note_on_c, 0, 72, 63
1, 54641, Note_on_c, 0, 62, 45
1, 54645, Note_on_c, 0, 67, 53
1, 54657, Note_on_c, 0, 57, 45
1, 54657, Note_on_c, 0, 48, 44
1, 54661, Control_c, 0, 64, 0
1, 54841, Control_c, 0, 64, 127
1, 55285, Note_on_c, 0, 62, 0
1, 55541, Note_on_c, 0, 67, 0
1, 55633, Note_on_c, 0, 72, 0
1, 55981, Note_on_c, 0, 70, 81
1, 56073, Note_on_c, 0, 70, 0
1, 56097, Note_on_c, 0, 57, 0
1, 56117, Note_on_c, 0, 72, 44
1, 56141, Note_on_c, 0, 48, 0
1, 56233, Note_on_c, 0, 70, 70
1, 56265, Note_on_c, 0, 72, 0
1, 56349, Note_on_c, 0, 69, 57
1, 56353, Note_on_c, 0, 70, 0
1, 56461, Note_on_c, 0, 69, 0
1, 56521, Note_on_c, 0, 70, 79
1, 56689, Note_on_c, 0, 70, 0
1, 56705, Note_on_c, 0, 72, 67
1, 56889, Note_on_c, 0, 72, 0
1, 56893, Control_c, 0, 64, 0
1, 56925, Note_on_c, 0, 69, 60
1, 56933, Note_on_c, 0, 55, 36
1, 56949, Note_on_c, 0, 45, 36
1, 57053, Control_c, 0, 64, 127
1, 57181, Note_on_c, 0, 64, 56
1, 57337, Note_on_c, 0, 69, 0
1, 57357, Note_on_c, 0, 64, 0
1, 57421, Note_on_c, 0, 60, 42
1, 57469, Note_on_c, 0, 55, 0
1, 57573, Note_on_c, 0, 60, 0
1, 57597, Note_on_c, 0, 45, 0
1, 57649, Note_on_c, 0, 55, 63
1, 57937, Note_on_c, 0, 55, 0
1, 57949, Note_on_c, 0, 26, 51
1, 57953, Control_c, 0, 64, 0
1, 57953, Note_on_c, 0, 54, 53
1, 57981, Note_on_c, 0, 38, 37
1, 58145, Control_c, 0, 64, 127
1, 58289, Note_on_c, 0, 54, 0
1, 58481, Note_on_c, 0, 26, 0
1, 58597, Note_on_c, 0, 38, 0
1, 58669, Note_on_c, 0, 60, 60
1, 58965, Note_on_c, 0, 69, 88
1, 59189, Note_on_c, 0, 69, 0
1, 59265, Note_on_c, 0, 69, 64
1, 59281, Note_on_c, 0, 60, 0
1, 59441, Note_on_c, 0, 69, 0
1, 59991, Marker_t, "'Wholetone' chord clusters (B,C#,D#,F,G) over the Db7#11"
1, 60021, Control_c, 0, 64, 0
1, 60053, Note_on_c, 0, 65, 55
1, 60061, Note_on_c, 0, 67, 45
1, 60061, Note_on_c, 0, 49, 43
1, 60061, Note_on_c, 0, 63, 55
1, 60065, Note_on_c, 0, 61, 49
1, 60069, Note_on_c, 0, 59, 25
1, 60093, Note_on_c, 0, 53, 45
1, 60149, Note_on_c, 0, 59, 0
1, 60161, Note_on_c, 0, 61, 0
1, 60161, Note_on_c, 0, 53, 0
1, 60177, Note_on_c, 0, 63, 0
1, 60181, Note_on_c, 0, 67, 0
1, 60185, Note_on_c, 0, 49, 0
1, 60193, Note_on_c, 0, 65, 0
1, 60413, Note_on_c, 0, 49, 44
1, 60421, Note_on_c, 0, 65, 37
1, 60425, Note_on_c, 0, 67, 43
1, 60429, Note_on_c, 0, 59, 34
1, 60437, Note_on_c, 0, 61, 44
1, 60437, Note_on_c, 0, 63, 48
1, 60449, Note_on_c, 0, 53, 35
1, 60521, Note_on_c, 0, 53, 0
1, 60533, Note_on_c, 0, 61, 0
1, 60557, Note_on_c, 0, 63, 0
1, 60561, Note_on_c, 0, 59, 0
1, 60565, Note_on_c, 0, 49, 0
1, 60589, Note_on_c, 0, 67, 0
1, 60605, Note_on_c, 0, 65, 0
1, 60777, Control_c, 0, 64, 127
1, 60805, Note_on_c, 0, 67, 46
1, 60809, Note_on_c, 0, 63, 56
1, 60817, Note_on_c, 0, 59, 32
1, 60817, Note_on_c, 0, 49, 40
1, 60837, Note_on_c, 0, 53, 43
1, 61085, Note_on_c, 0, 53, 0
1, 61173, Note_on_c, 0, 53, 47
1, 61233, Note_on_c, 0, 59, 0
1, 61433, Note_on_c, 0, 53, 0
1, 61449, Note_on_c, 0, 59, 56
1, 61469, Note_on_c, 0, 63, 0
1, 61485, Note_on_c, 0, 49, 0
1, 61689, Note_on_c, 0, 63, 60
1, 61745, Note_on_c, 0, 59, 0
1, 61905, Note_on_c, 0, 67, 0
1, 61949, Note_on_c, 0, 63, 0
1, 61981, Note_on_c, 0, 58, 55
1, 61985, Control_c, 0, 64, 40
1, 61985, Control_c, 0, 64, 0
1, 61997, Note_on_c, 0, 62, 51
1, 62017, Note_on_c, 0, 52, 29
1, 62021, Note_on_c, 0, 67, 7
1, 62229, Note_on_c, 0, 52, 0
1, 62269, Note_on_c, 0, 43, 57
1, 62281, Control_c, 0, 64, 127
1, 62353, Note_on_c, 0, 62, 0
1, 62477, Note_on_c, 0, 58, 0
1, 62585, Control_c, 0, 64, 0
1, 62613, Note_on_c, 0, 60, 57
1, 62613, Note_on_c, 0, 58, 47
1, 62629, Note_on_c, 0, 67, 0
1, 62945, Note_on_c, 0, 48, 62
1, 62965, Note_on_c, 0, 67, 1
1, 63009, Note_on_c, 0, 43, 0
1, 63101, Control_c, 0, 64, 127
1, 63293, Note_on_c, 0, 58, 0
1, 63293, Note_on_c, 0, 60, 0
1, 63317, Note_on_c, 0, 36, 58
1, 63329, Note_on_c, 0, 67, 0
1, 63589, Note_on_c, 0, 36, 0
1, 63645, Note_on_c, 0, 48, 0
1, 63677, Note_on_c, 0, 60, 73
1, 63781, Note_on_c, 0, 60, 0
1, 64041, Control_c, 0, 64, 0
1, 64077, Note_on_c, 0, 69, 88
1, 64085, Note_on_c, 0, 64, 87
1, 64089, Note_on_c, 0, 60, 83
1, 64097, Note_on_c, 0, 57, 62
1, 64105, Note_on_c, 0, 48, 53
1, 64189, Control_c, 0, 64, 127
1, 64357, Note_on_c, 0, 60, 0
1, 64377, Note_on_c, 0, 69, 0
1, 64393, Note_on_c, 0, 57, 0
1, 64401, Note_on_c, 0, 64, 0
1, 64533, Note_on_c, 0, 70, 98
1, 64541, Note_on_c, 0, 62, 85
1, 64541, Note_on_c, 0, 65, 85
1, 64541, Note_on_c, 0, 58, 80
1, 64545, Control_c, 0, 64, 0
1, 64677, Control_c, 0, 64, 127
1, 64813, Note_on_c, 0, 58, 0
1, 64837, Note_on_c, 0, 65, 0
1, 64845, Note_on_c, 0, 62, 0
1, 64857, Note_on_c, 0, 70, 0
1, 64961, Note_on_c, 0, 69, 84
1, 64965, Note_on_c, 0, 64, 80
1, 64965, Note_on_c, 0, 57, 64
1, 64969, Note_on_c, 0, 60, 73
1, 65081, Note_on_c, 0, 69, 0
1, 65089, Note_on_c, 0, 48, 0
1, 65125, Note_on_c, 0, 64, 0
1, 65129, Note_on_c, 0, 57, 0
1, 65165, Note_on_c, 0, 60, 0
1, 65453, Note_on_c, 0, 65, 71
1, 65457, Note_on_c, 0, 56, 64
1, 65457, Control_c, 0, 64, 0
1, 65461, Note_on_c, 0, 61, 64
1, 65465, Note_on_c, 0, 47, 50
1, 65481, Note_on_c, 0, 51, 51
1, 65661, Control_c, 0, 64, 127
1, 65925, Note_on_c, 0, 56, 0
1, 65961, Note_on_c, 0, 60, 73
1, 65965, Note_on_c, 0, 57, 46
1, 65977, Note_on_c, 0, 65, 0
1, 66177, Note_on_c, 0, 60, 0
1, 66189, Note_on_c, 0, 61, 0
1, 66457, Note_on_c, 0, 65, 70
1, 66569, Note_on_c, 0, 57, 0
1, 66597, Note_on_c, 0, 47, 0
1, 66725, Note_on_c, 0, 69, 80
1, 66733, Note_on_c, 0, 51, 0
1, 66765, Note_on_c, 0, 65, 0
1, 66849, Note_on_c, 0, 69, 0
1, 67017, Control_c, 0, 64, 0
1, 67057, Note_on_c, 0, 65, 57
1, 67057, Note_on_c, 0, 72, 66
1, 67057, Note_on_c, 0, 46, 46
1, 67065, Note_on_c, 0, 62, 51
1, 67069, Note_on_c, 0, 57, 44
1, 67169, Control_c, 0, 64, 127
1, 67321, Note_on_c, 0, 57, 0
1, 67353, Note_on_c, 0, 65, 0
1, 67353, Note_on_c, 0, 62, 0
1, 67441, Note_on_c, 0, 72, 0
1, 67501, Control_c, 0, 64, 0
1, 67533, Note_on_c, 0, 70, 65
1, 67541, Note_on_c, 0, 56, 32
1, 67541, Note_on_c, 0, 62, 45
1, 67549, Note_on_c, 0, 65, 48
1, 67593, Control_c, 0, 64, 127
1, 67741, Note_on_c, 0, 65, 0
1, 67749, Note_on_c, 0, 56, 0
1, 67749, Note_on_c, 0, 62, 0
1, 67781, Note_on_c, 0, 70, 0
1, 67957, Note_on_c, 0, 69, 51
1, 67961, Note_on_c, 0, 55, 43
1, 67969, Note_on_c, 0, 62, 38
1, 67969, Note_on_c, 0, 65, 46
1, 68001, Note_on_c, 0, 55, 0
1, 68021, Note_on_c, 0, 69, 0
1, 68049, Note_on_c, 0, 65, 0
1, 68069, Note_on_c, 0, 62, 0
1, 68077, Note_on_c, 0, 46, 0
1, 68473, Control_c, 0, 64, 0
1, 68501, Note_on_c, 0, 67, 46
1, 68509, Note_on_c, 0, 61, 54
1, 68521, Note_on_c, 0, 27, 44
1, 68521, Note_on_c, 0, 55, 41
1, 68557, Note_on_c, 0, 39, 27
1, 68613, Control_c, 0, 64, 127
1, 69405, Note_on_c, 0, 55, 0
1, 69433, Note_on_c, 0, 61, 0
1, 69433, Note_on_c, 0, 39, 0
1, 69485, Note_on_c, 0, 27, 0
1, 69889, Control_c, 0, 64, 0
1, 69889, Note_on_c, 0, 59, 50
1, 69897, Note_on_c, 0, 55, 33
1, 69901, Note_on_c, 0, 25, 42
1, 69913, Note_on_c, 0, 37, 33
1, 70041, Control_c, 0, 64, 127
1, 70205, Note_on_c, 0, 55, 0
1, 70237, Note_on_c, 0, 59, 0
1, 70345, Note_on_c, 0, 67, 0
1, 70457, Note_on_c, 0, 25, 0
1, 70521, Note_on_c, 0, 37, 0
1, 70693, Note_on_c, 0, 69, 92
1, 70905, Note_on_c, 0, 69, 0
1, 70949, Note_on_c, 0, 70, 92
1, 71189, Note_on_c, 0, 70, 0
1, 71233, Control_c, 0, 64, 0
1, 71273, Note_on_c, 0, 65, 60
1, 71273, Note_on_c, 0, 69, 67
1, 71301, Note_on_c, 0, 48, 45
1, 71301, Note_on_c, 0, 57, 36
1, 71377, Control_c, 0, 64, 127
1, 71545, Note_on_c, 0, 65, 0
1, 71577, Note_on_c, 0, 69, 0
1, 71681, Note_on_c, 0, 74, 86
1, 71893, Note_on_c, 0, 57, 0
1, 71969, Note_on_c, 0, 74, 0
1, 72013, Note_on_c, 0, 72, 88
1, 72033, Note_on_c, 0, 57, 53
1, 72249, Note_on_c, 0, 72, 0
1, 72289, Note_on_c, 0, 69, 83
1, 72529, Note_on_c, 0, 48, 0
1, 72545, Note_on_c, 0, 65, 74
1, 72613, Note_on_c, 0, 69, 0
1, 72761, Note_on_c, 0, 57, 0
1, 72829, Note_on_c, 0, 60, 49
1, 72857, Note_on_c, 0, 65, 0
1, 72945, Note_on_c, 0, 60, 0
1, 73161, Note_on_c, 0, 67, 52
1, 73165, Control_c, 0, 64, 0
1, 73165, Note_on_c, 0, 58, 45
1, 73169, Note_on_c, 0, 65, 51
1, 73169, Note_on_c, 0, 62, 44
1, 73189, Note_on_c, 0, 48, 42
1, 73373, Control_c, 0, 64, 127
1, 73545, Note_on_c, 0, 55, 44
1, 73625, Note_on_c, 0, 58, 0
1, 73717, Note_on_c, 0, 62, 0
1, 73861, Note_on_c, 0, 65, 0
1, 73889, Control_c, 0, 64, 0
1, 73909, Note_on_c, 0, 60, 41
1, 73909, Note_on_c, 0, 64, 50
1, 73909, Note_on_c, 0, 58, 43
1, 74017, Control_c, 0, 64, 127
1, 74093, Note_on_c, 0, 67, 0
1, 74101, Note_on_c, 0, 64, 0
1, 74141, Note_on_c, 0, 60, 0
1, 74249, Note_on_c, 0, 58, 0
1, 74281, Note_on_c, 0, 60, 62
1, 74549, Note_on_c, 0, 60, 0
1, 74557, Note_on_c, 0, 55, 0
1, 74613, Note_on_c, 0, 48, 0
1, 74653, Note_on_c, 0, 60, 59
1, 74841, Note_on_c, 0, 60, 0
1, 74977, Note_on_c, 0, 60, 46
1, 75101, Note_on_c, 0, 60, 0
1, 75253, Control_c, 0, 64, 0
1, 75341, Note_on_c, 0, 39, 46
1, 75345, Note_on_c, 0, 65, 48
1, 75353, Note_on_c, 0, 60, 55
1, 75357, Note_on_c, 0, 55, 40
1, 75365, Note_on_c, 0, 46, 42
1, 75377, Control_c, 0, 64, 127
1, 75517, Note_on_c, 0, 55, 0
1, 75549, Note_on_c, 0, 39, 0
1, 75557, Note_on_c, 0, 46, 0
1, 75657, Note_on_c, 0, 65, 0
1, 75669, Control_c, 0, 64, 0
1, 75673, Note_on_c, 0, 60, 0
1, 75713, Note_on_c, 0, 56, 49
1, 75729, Note_on_c, 0, 40, 40
1, 75733, Note_on_c, 0, 65, 17
1, 75733, Note_on_c, 0, 61, 50
1, 75741, Note_on_c, 0, 47, 42
1, 75777, Control_c, 0, 64, 127
1, 75857, Note_on_c, 0, 40, 0
1, 75877, Note_on_c, 0, 47, 0
1, 75961, Note_on_c, 0, 65, 0
1, 75965, Note_on_c, 0, 56, 0
1, 76001, Note_on_c, 0, 61, 0
1, 76073, Control_c, 0, 64, 0
1, 76129, Note_on_c, 0, 65, 46
1, 76129, Note_on_c, 0, 57, 48
1, 76141, Note_on_c, 0, 62, 52
1, 76145, Note_on_c, 0, 41, 42
1, 76149, Note_on_c, 0, 48, 40
1, 76229, Control_c, 0, 64, 127
1, 76661, Note_on_c, 0, 65, 0
1, 76673, Note_on_c, 0, 41, 0
1, 76773, Note_on_c, 0, 48, 0
1, 76805, Note_on_c, 0, 57, 0
1, 76961, Note_on_c, 0, 65, 62
1, 77001, Note_on_c, 0, 62, 0
1, 77121, Note_on_c, 0, 65, 0
1, 77317, Note_on_c, 0, 65, 56
1, 77461, Note_on_c, 0, 65, 0
1, 77669, Control_c, 0, 64, 0
1, 77701, Note_on_c, 0, 65, 51
1, 77709, Note_on_c, 0, 61, 60
1, 77717, Note_on_c, 0, 59, 24
1, 77725, Note_on_c, 0, 47, 43
1, 77737, Note_on_c, 0, 57, 33
1, 77785, Note_on_c, 0, 59, 0
1, 77797, Control_c, 0, 64, 127
1, 77845, Note_on_c, 0, 61, 0
1, 77849, Note_on_c, 0, 65, 0
1, 78041, Note_on_c, 0, 57, 0
1, 78041, Note_on_c, 0, 77, 73
1, 78081, Note_on_c, 0, 51, 36
1, 78273, Note_on_c, 0, 47, 0
1, 78301, Note_on_c, 0, 77, 0
1, 78321, Note_on_c, 0, 51, 0
1, 78591, Marker_t, "More wholetone type devices - augmented triads descend in wholetones"
1, 78653, Note_on_c, 0, 79, 54
1, 78657, Note_on_c, 0, 75, 61
1, 78661, Note_on_c, 0, 63, 51
1, 78669, Note_on_c, 0, 71, 48
1, 78929, Note_on_c, 0, 71, 0
1, 78997, Note_on_c, 0, 75, 0
1, 79017, Note_on_c, 0, 79, 0
1, 79069, Note_on_c, 0, 77, 56
1, 79073, Note_on_c, 0, 73, 54
1, 79089, Note_on_c, 0, 63, 0
1, 79089, Note_on_c, 0, 69, 41
1, 79101, Note_on_c, 0, 61, 50
1, 79173, Note_on_c, 0, 77, 0
1, 79209, Note_on_c, 0, 73, 0
1, 79241, Note_on_c, 0, 69, 0
1, 79441, Note_on_c, 0, 61, 0
1, 79481, Note_on_c, 0, 75, 54
1, 79497, Note_on_c, 0, 59, 41
1, 79505, Note_on_c, 0, 67, 44
1, 79533, Note_on_c, 0, 75, 0
1, 79549, Note_on_c, 0, 59, 0
1, 79597, Note_on_c, 0, 67, 0
1, 79865, Note_on_c, 0, 63, 45
1, 79881, Note_on_c, 0, 67, 49
1, 79881, Note_on_c, 0, 57, 43
1, 79893, Note_on_c, 0, 71, 51
1, 79949, Note_on_c, 0, 57, 0
1, 80017, Note_on_c, 0, 67, 0
1, 80021, Note_on_c, 0, 71, 0
1, 80077, Note_on_c, 0, 63, 0
1, 80261, Note_on_c, 0, 70, 55
1, 80269, Control_c, 0, 64, 0
1, 80281, Note_on_c, 0, 62, 46
1, 80293, Note_on_c, 0, 65, 50
1, 80305, Note_on_c, 0, 57, 34
1, 80305, Note_on_c, 0, 46, 37
1, 80453, Control_c, 0, 64, 127
1, 80581, Note_on_c, 0, 57, 0
1, 80661, Note_on_c, 0, 53, 53
1, 80977, Note_on_c, 0, 53, 0
1, 81001, Note_on_c, 0, 55, 65
1, 81041, Note_on_c, 0, 46, 0
1, 81289, Note_on_c, 0, 55, 0
1, 81309, Note_on_c, 0, 57, 84
1, 81321, Note_on_c, 0, 65, 0
1, 81357, Note_on_c, 0, 62, 0
1, 81625, Note_on_c, 0, 58, 74
1, 81629, Note_on_c, 0, 62, 60
1, 81633, Note_on_c, 0, 57, 0
1, 81633, Note_on_c, 0, 65, 61
1, 81793, Note_on_c, 0, 62, 0
1, 81889, Note_on_c, 0, 58, 0
1, 81961, Note_on_c, 0, 60, 77
1, 81993, Note_on_c, 0, 58, 29
1, 82013, Note_on_c, 0, 65, 0
1, 82077, Note_on_c, 0, 70, 0
1, 82189, Note_on_c, 0, 60, 0
1, 82249, Note_on_c, 0, 58, 0
1, 82301, Note_on_c, 0, 61, 79
1, 82313, Note_on_c, 0, 65, 80
1, 82313, Note_on_c, 0, 70, 70
1, 82325, Control_c, 0, 64, 0
1, 82497, Control_c, 0, 64, 127
1, 82661, Note_on_c, 0, 60, 65
1, 82677, Control_c, 0, 64, 0
1, 82697, Control_c, 0, 64, 127
1, 82909, Note_on_c, 0, 61, 0
1, 82929, Note_on_c, 0, 65, 0
1, 82997, Control_c, 0, 64, 0
1, 83013, Note_on_c, 0, 60, 0
1, 83021, Note_on_c, 0, 61, 55
1, 83025, Note_on_c, 0, 65, 47
1, 83029, Note_on_c, 0, 58, 53
1, 83121, Control_c, 0, 64, 127
1, 83397, Note_on_c, 0, 58, 0
1, 83401, Note_on_c, 0, 57, 52
1, 83609, Note_on_c, 0, 65, 0
1, 83633, Note_on_c, 0, 61, 0
1, 83733, Note_on_c, 0, 70, 0
1, 83765, Note_on_c, 0, 61, 53
1, 83777, Note_on_c, 0, 57, 0
1, 83777, Note_on_c, 0, 72, 51
1, 83785, Note_on_c, 0, 58, 52
1, 83789, Note_on_c, 0, 65, 50
1, 84189, Note_on_c, 0, 58, 0
1, 84305, Note_on_c, 0, 72, 0
1, 84333, Note_on_c, 0, 70, 70
1, 84409, Note_on_c, 0, 65, 0
1, 84449, Note_on_c, 0, 61, 0
1, 84489, Note_on_c, 0, 70, 0
1, 84553, Control_c, 0, 64, 0
1, 84613, Note_on_c, 0, 70, 64
1, 84617, Note_on_c, 0, 48, 50
1, 84625, Note_on_c, 0, 65, 58
1, 84697, Control_c, 0, 64, 127
1, 84893, Note_on_c, 0, 65, 0
1, 84945, Note_on_c, 0, 70, 0
1, 85017, Note_on_c, 0, 69, 68
1, 85021, Note_on_c, 0, 65, 56
1, 85021, Note_on_c, 0, 60, 54
1, 85041, Note_on_c, 0, 57, 38
1, 85213, Note_on_c, 0, 69, 0
1, 85261, Note_on_c, 0, 65, 0
1, 85309, Note_on_c, 0, 60, 0
1, 85357, Note_on_c, 0, 57, 0
1, 85373, Note_on_c, 0, 68, 62
1, 85381, Note_on_c, 0, 56, 48
1, 85385, Note_on_c, 0, 60, 53
1, 85393, Note_on_c, 0, 64, 60
1, 85593, Note_on_c, 0, 64, 0
1, 85637, Note_on_c, 0, 68, 0
1, 85661, Note_on_c, 0, 60, 0
1, 85717, Control_c, 0, 64, 0
1, 85769, Note_on_c, 0, 60, 55
1, 85773, Note_on_c, 0, 65, 62
1, 85777, Note_on_c, 0, 69, 64
1, 85785, Note_on_c, 0, 57, 38
1, 85881, Control_c, 0, 64, 127
1, 86005, Note_on_c, 0, 48, 0
1, 86281, Note_on_c, 0, 48, 62
1, 86357, Note_on_c, 0, 69, 0
1, 86941, Note_on_c, 0, 60, 0
1, 86953, Note_on_c, 0, 68, 79
1, 86997, Note_on_c, 0, 56, 0
1, 87005, Note_on_c, 0, 57, 0
1, 87057, Note_on_c, 0, 48, 0
1, 87193, Note_on_c, 0, 65, 0
1, 87201, Note_on_c, 0, 68, 0
1, 87393, Control_c, 0, 64, 0
1, 87433, Note_on_c, 0, 67, 74
1, 87441, Note_on_c, 0, 65, 67
1, 87449, Note_on_c, 0, 58, 58
1, 87461, Note_on_c, 0, 48, 49
1, 87473, Note_on_c, 0, 55, 44
1, 87473, Note_on_c, 0, 62, 45
1, 87541, Control_c, 0, 64, 127
1, 87549, Note_on_c, 0, 55, 0
1, 87613, Note_on_c, 0, 48, 0
1, 87985, Note_on_c, 0, 58, 0
1, 87985, Note_on_c, 0, 24, 62
1, 87993, Note_on_c, 0, 67, 0
1, 87993, Note_on_c, 0, 62, 0
1, 88017, Note_on_c, 0, 65, 0
1, 88029, Note_on_c, 0, 24, 0
1, 88829, Note_on_c, 0, 84, 73
1, 88853, Note_on_c, 0, 72, 56
1, 88865, Note_on_c, 0, 64, 35
1, 88889, Note_on_c, 0, 60, 36
1, 89069, Note_on_c, 0, 64, 0
1, 89093, Note_on_c, 0, 60, 0
1, 89133, Note_on_c, 0, 84, 0
1, 89193, Note_on_c, 0, 72, 0
1, 89821, Note_on_c, 0, 79, 93
1, 89841, Note_on_c, 0, 73, 80
1, 89857, Control_c, 0, 64, 0
1, 89885, Note_on_c, 0, 48, 48
1, 90021, Control_c, 0, 64, 127
1, 90101, Note_on_c, 0, 48, 0
1, 90381, Note_on_c, 0, 58, 50
1, 90505, Note_on_c, 0, 73, 0
1, 90841, Note_on_c, 0, 79, 0
1, 90993, Note_on_c, 0, 67, 52
1, 90993, Note_on_c, 0, 70, 51
1, 91025, Note_on_c, 0, 64, 36
1, 91337, Note_on_c, 0, 70, 0
1, 91621, Note_on_c, 0, 64, 0
1, 91653, Note_on_c, 0, 67, 0
1, 91781, Note_on_c, 0, 58, 0
1, 91841, Note_on_c, 0, 72, 54
1, 91997, Note_on_c, 0, 72, 0
1, 92325, Control_c, 0, 64, 0
1, 92357, Note_on_c, 0, 81, 70
1, 92369, Note_on_c, 0, 69, 45
1, 92389, Note_on_c, 0, 48, 48
1, 92397, Note_on_c, 0, 57, 24
1, 92445, Control_c, 0, 64, 127
1, 92609, Note_on_c, 0, 57, 0
1, 92821, Note_on_c, 0, 81, 0
1, 92873, Note_on_c, 0, 69, 0
1, 92873, Note_on_c, 0, 57, 42
1, 93249, Note_on_c, 0, 58, 63
1, 93265, Note_on_c, 0, 57, 0
1, 93529, Note_on_c, 0, 57, 58
1, 93541, Note_on_c, 0, 58, 0
1, 93681, Note_on_c, 0, 57, 0
1, 93813, Note_on_c, 0, 69, 68
1, 93981, Note_on_c, 0, 69, 0
1, 94137, Note_on_c, 0, 70, 76
1, 94145, Note_on_c, 0, 57, 46
1, 94417, Note_on_c, 0, 70, 0
1, 94445, Note_on_c, 0, 72, 77
1, 94481, Note_on_c, 0, 48, 0
1, 94493, Note_on_c, 0, 57, 0
1, 94829, Note_on_c, 0, 61, 52
1, 94845, Control_c, 0, 64, 0
1, 94849, Note_on_c, 0, 65, 56
1, 94861, Note_on_c, 0, 57, 39
1, 94869, Note_on_c, 0, 47, 42
1, 95029, Control_c, 0, 64, 127
1, 95273, Note_on_c, 0, 51, 51
1, 95313, Note_on_c, 0, 57, 0
1, 95401, Note_on_c, 0, 61, 0
1, 95661, Note_on_c, 0, 57, 52
1, 95901, Note_on_c, 0, 65, 0
1, 96049, Note_on_c, 0, 72, 0
1, 96101, Note_on_c, 0, 65, 60
1, 96141, Note_on_c, 0, 47, 0
1, 96473, Note_on_c, 0, 65, 0
1, 96633, Control_c, 0, 64, 0
1, 96681, Note_on_c, 0, 70, 70
1, 96681, Note_on_c, 0, 46, 48
1, 96701, Note_on_c, 0, 57, 0
1, 96749, Note_on_c, 0, 51, 0
1, 96769, Control_c, 0, 64, 127
1, 96857, Note_on_c, 0, 46, 0
1, 96997, Note_on_c, 0, 70, 0
1, 97013, Note_on_c, 0, 72, 60
1, 97093, Note_on_c, 0, 70, 68
1, 97125, Note_on_c, 0, 72, 0
1, 97213, Note_on_c, 0, 69, 89
1, 97221, Note_on_c, 0, 70, 0
1, 97405, Note_on_c, 0, 69, 0
1, 97417, Note_on_c, 0, 70, 98
1, 97593, Note_on_c, 0, 70, 0
1, 97633, Note_on_c, 0, 65, 53
1, 97637, Note_on_c, 0, 74, 89
1, 97641, Note_on_c, 0, 62, 53
1, 97661, Note_on_c, 0, 60, 49
1, 97813, Note_on_c, 0, 74, 0
1, 97853, Note_on_c, 0, 77, 92
1, 98037, Note_on_c, 0, 77, 0
1, 98053, Note_on_c, 0, 65, 0
1, 98069, Note_on_c, 0, 81, 93
1, 98109, Note_on_c, 0, 62, 0
1, 98113, Note_on_c, 0, 60, 0
1, 98249, Note_on_c, 0, 81, 0
1, 98297, Note_on_c, 0, 82, 99
1, 98501, Note_on_c, 0, 82, 0
1, 98509, Control_c, 0, 64, 0
1, 98545, Note_on_c, 0, 27, 60
1, 98557, Note_on_c, 0, 82, 89
1, 98621, Control_c, 0, 64, 127
1, 98669, Note_on_c, 0, 27, 0
1, 98821, Note_on_c, 0, 82, 0
1, 98845, Note_on_c, 0, 84, 76
1, 98957, Note_on_c, 0, 84, 0
1, 99181, Note_on_c, 0, 84, 65
1, 99205, Note_on_c, 0, 61, 40
1, 99209, Note_on_c, 0, 77, 54
1, 99213, Note_on_c, 0, 73, 39
1, 99221, Note_on_c, 0, 65, 38
1, 99237, Note_on_c, 0, 55, 40
1, 99517, Note_on_c, 0, 61, 0
1, 99533, Note_on_c, 0, 65, 0
1, 99605, Note_on_c, 0, 73, 0
1, 99829, Note_on_c, 0, 84, 0
1, 99841, Note_on_c, 0, 77, 0
1, 100029, Note_on_c, 0, 55, 0
1, 100425, Note_on_c, 0, 82, 64
1, 100525, Note_on_c, 0, 82, 0
1, 100777, Control_c, 0, 64, 0
1, 100833, Note_on_c, 0, 82, 68
1, 100845, Note_on_c, 0, 74, 51
1, 100845, Note_on_c, 0, 48, 48
1, 100849, Note_on_c, 0, 57, 41
1, 100877, Control_c, 0, 64, 127
1, 101005, Note_on_c, 0, 48, 0
1, 101009, Note_on_c, 0, 82, 0
1, 101009, Note_on_c, 0, 74, 0
1, 101017, Note_on_c, 0, 57, 0
1, 101313, Control_c, 0, 64, 0
1, 101317, Note_on_c, 0, 81, 72
1, 101325, Note_on_c, 0, 73, 56
1, 101337, Note_on_c, 0, 69, 51
1, 101353, Note_on_c, 0, 49, 47
1, 101365, Note_on_c, 0, 57, 42
1, 101477, Control_c, 0, 64, 127
1, 101645, Note_on_c, 0, 49, 0
1, 101965, Note_on_c, 0, 61, 54
1, 101973, Note_on_c, 0, 57, 0
1, 102341, Note_on_c, 0, 64, 51
1, 102353, Note_on_c, 0, 81, 0
1, 102641, Note_on_c, 0, 64, 0
1, 102681, Note_on_c, 0, 61, 0
1, 102745, Note_on_c, 0, 80, 61
1, 102961, Note_on_c, 0, 69, 0
1, 102977, Note_on_c, 0, 80, 0
1, 103037, Note_on_c, 0, 73, 0
1, 103037, Control_c, 0, 64, 0
1, 103057, Note_on_c, 0, 81, 64
1, 103073, Note_on_c, 0, 50, 47
1, 103157, Control_c, 0, 64, 127
1, 103309, Note_on_c, 0, 81, 0
1, 103353, Note_on_c, 0, 50, 0
1, 103405, Note_on_c, 0, 57, 37
1, 103749, Note_on_c, 0, 76, 60
1, 103777, Note_on_c, 0, 69, 44
1, 103785, Note_on_c, 0, 64, 41
1, 103997, Note_on_c, 0, 64, 0
1, 104137, Note_on_c, 0, 62, 43
1, 104321, Note_on_c, 0, 62, 0
1, 104417, Note_on_c, 0, 69, 0
1, 104557, Note_on_c, 0, 69, 50
1, 104565, Note_on_c, 0, 65, 37
1, 104569, Note_on_c, 0, 61, 36
1, 104721, Note_on_c, 0, 76, 0
1, 104793, Note_on_c, 0, 65, 0
1, 104813, Note_on_c, 0, 61, 0
1, 104817, Note_on_c, 0, 69, 0
1, 104953, Note_on_c, 0, 71, 65
1, 104965, Note_on_c, 0, 60, 44
1, 105009, Note_on_c, 0, 71, 0
1, 105021, Note_on_c, 0, 60, 0
1, 105069, Note_on_c, 0, 57, 0
1, 105345, Note_on_c, 0, 63, 57
1, 105357, Note_on_c, 0, 59, 47
1, 105365, Note_on_c, 0, 71, 50
1, 105385, Control_c, 0, 64, 0
1, 105389, Note_on_c, 0, 53, 41
1, 105389, Note_on_c, 0, 43, 42
1, 105401, Note_on_c, 0, 63, 0
1, 105425, Note_on_c, 0, 64, 51
1, 105565, Control_c, 0, 64, 127
1, 105629, Note_on_c, 0, 53, 0
1, 105677, Note_on_c, 0, 64, 0
1, 105749, Control_c, 0, 64, 0
1, 105761, Note_on_c, 0, 54, 55
1, 105761, Note_on_c, 0, 63, 62
1, 105829, Control_c, 0, 64, 127
1, 105905, Note_on_c, 0, 71, 0
1, 106013, Note_on_c, 0, 54, 0
1, 106145, Note_on_c, 0, 63, 0
1, 106145, Control_c, 0, 64, 0
1, 106173, Note_on_c, 0, 62, 63
1, 106205, Note_on_c, 0, 53, 47
1, 106241, Control_c, 0, 64, 127
1, 106521, Note_on_c, 0, 59, 0
1, 106601, Note_on_c, 0, 59, 58
1, 106673, Note_on_c, 0, 62, 0
1, 106789, Note_on_c, 0, 59, 0
1, 106801, Note_on_c, 0, 53, 0
1, 106917, Control_c, 0, 64, 0
1, 106941, Note_on_c, 0, 53, 64
1, 106941, Note_on_c, 0, 59, 78
1, 106945, Note_on_c, 0, 64, 74
1, 106945, Note_on_c, 0, 69, 76
1, 106961, Note_on_c, 0, 43, 0
1, 107045, Control_c, 0, 64, 127
1, 107189, Note_on_c, 0, 69, 0
1, 107233, Note_on_c, 0, 53, 0
1, 107233, Note_on_c, 0, 67, 73
1, 107241, Note_on_c, 0, 59, 0
1, 107253, Note_on_c, 0, 52, 48
1, 107281, Note_on_c, 0, 52, 0
1, 107289, Note_on_c, 0, 64, 0
1, 107325, Note_on_c, 0, 67, 0
1, 107637, Note_on_c, 0, 58, 65
1, 107653, Note_on_c, 0, 65, 79
1, 107657, Note_on_c, 0, 74, 87
1, 107661, Note_on_c, 0, 69, 80
1, 107665, Control_c, 0, 64, 0
1, 107801, Control_c, 0, 64, 127
1, 108009, Note_on_c, 0, 58, 0
1, 108033, Note_on_c, 0, 59, 76
1, 108069, Control_c, 0, 64, 0
1, 108105, Control_c, 0, 64, 127
1, 108121, Note_on_c, 0, 69, 0
1, 108165, Note_on_c, 0, 74, 0
1, 108205, Note_on_c, 0, 65, 0
1, 108441, Note_on_c, 0, 69, 65
1, 108445, Control_c, 0, 64, 0
1, 108453, Note_on_c, 0, 62, 47
1, 108453, Note_on_c, 0, 65, 44
1, 108461, Note_on_c, 0, 59, 0
1, 108465, Note_on_c, 0, 55, 57
1, 108557, Control_c, 0, 64, 127
1, 108633, Note_on_c, 0, 55, 0
1, 108829, Note_on_c, 0, 50, 54
1, 108933, Note_on_c, 0, 62, 0
1, 108985, Note_on_c, 0, 65, 0
1, 109157, Note_on_c, 0, 69, 0
1, 109229, Control_c, 0, 64, 0
1, 109269, Note_on_c, 0, 71, 51
1, 109277, Note_on_c, 0, 65, 51
1, 109277, Note_on_c, 0, 59, 38
1, 109277, Note_on_c, 0, 53, 51
1, 109305, Note_on_c, 0, 50, 0
1, 109381, Control_c, 0, 64, 127
1, 109677, Note_on_c, 0, 59, 0
1, 109685, Note_on_c, 0, 43, 47
1, 109693, Note_on_c, 0, 53, 0
1, 109737, Note_on_c, 0, 43, 0
1, 109817, Note_on_c, 0, 65, 0
1, 109873, Note_on_c, 0, 71, 0
1, 110357, Control_c, 0, 64, 0
1, 110377, Note_on_c, 0, 72, 56
1, 110381, Note_on_c, 0, 65, 50
1, 110389, Note_on_c, 0, 62, 40
1, 110401, Note_on_c, 0, 36, 42
1, 110405, Note_on_c, 0, 24, 44
1, 110477, Control_c, 0, 64, 127
1, 110525, Note_on_c, 0, 62, 0
1, 110553, Note_on_c, 0, 24, 0
1, 110565, Note_on_c, 0, 65, 0
1, 110609, Note_on_c, 0, 36, 0
1, 110613, Note_on_c, 0, 72, 0
1, 110881, Note_on_c, 0, 84, 64
1, 110937, Note_on_c, 0, 84, 0
1, 111297, Note_on_c, 0, 65, 48
1, 111313, Note_on_c, 0, 62, 44
1, 111329, Note_on_c, 0, 60, 45
1, 111461, Note_on_c, 0, 60, 0
1, 111717, Note_on_c, 0, 60, 52
1, 111885, Note_on_c, 0, 60, 0
1, 112145, Note_on_c, 0, 60, 51
1, 112201, Note_on_c, 0, 60, 0
1, 112273, Note_on_c, 0, 62, 0
1, 112305, Note_on_c, 0, 65, 0
1, 113689, Control_c, 0, 64, 0
1, 113719, Marker_t, "2nd inversion triads ascend chromatically - from dominant (C) - over C pedal tone in bass"
1, 113745, Control_c, 0, 64, 127
1, 113745, Note_on_c, 0, 64, 46
1, 113753, Note_on_c, 0, 60, 46
1, 113753, Note_on_c, 0, 55, 35
1, 113761, Note_on_c, 0, 24, 36
1, 113769, Note_on_c, 0, 36, 25
1, 113873, Note_on_c, 0, 64, 0
1, 113889, Note_on_c, 0, 60, 0
1, 113889, Note_on_c, 0, 55, 0
1, 113921, Note_on_c, 0, 36, 0
1, 113933, Note_on_c, 0, 24, 0
1, 114073, Control_c, 0, 64, 0
1, 114089, Note_on_c, 0, 65, 60
1, 114093, Note_on_c, 0, 56, 60
1, 114101, Note_on_c, 0, 61, 58
1, 114109, Note_on_c, 0, 24, 38
1, 114109, Note_on_c, 0, 36, 40
1, 114149, Control_c, 0, 64, 127
1, 114205, Note_on_c, 0, 36, 0
1, 114205, Note_on_c, 0, 65, 0
1, 114229, Note_on_c, 0, 24, 0
1, 114317, Note_on_c, 0, 56, 0
1, 114321, Note_on_c, 0, 61, 0
1, 114365, Control_c, 0, 64, 0
1, 114397, Note_on_c, 0, 66, 65
1, 114409, Note_on_c, 0, 57, 58
1, 114413, Note_on_c, 0, 24, 46
1, 114413, Note_on_c, 0, 36, 40
1, 114421, Note_on_c, 0, 62, 57
1, 114485, Control_c, 0, 64, 127
1, 114585, Note_on_c, 0, 57, 0
1, 114593, Note_on_c, 0, 62, 0
1, 114609, Note_on_c, 0, 36, 0
1, 114621, Note_on_c, 0, 24, 0
1, 114661, Note_on_c, 0, 66, 0
1, 114737, Control_c, 0, 64, 0
1, 114753, Note_on_c, 0, 58, 58
1, 114761, Note_on_c, 0, 67, 54
1, 114777, Note_on_c, 0, 63, 56
1, 114781, Note_on_c, 0, 24, 41
1, 114785, Note_on_c, 0, 36, 39
1, 114881, Control_c, 0, 64, 127
1, 115241, Note_on_c, 0, 36, 0
1, 115357, Note_on_c, 0, 24, 0
1, 115517, Note_on_c, 0, 58, 0
1, 115557, Note_on_c, 0, 67, 0
1, 115713, Note_on_c, 0, 63, 0
1, 116149, Note_on_c, 0, 59, 51
1, 116153, Note_on_c, 0, 68, 53
1, 116157, Note_on_c, 0, 24, 45
1, 116161, Note_on_c, 0, 64, 53
1, 116337, Note_on_c, 0, 59, 0
1, 116365, Note_on_c, 0, 64, 0
1, 116413, Note_on_c, 0, 68, 0
1, 116621, Note_on_c, 0, 69, 48
1, 116629, Note_on_c, 0, 65, 44
1, 116633, Note_on_c, 0, 60, 40
1, 116637, Note_on_c, 0, 36, 37
1, 116745, Note_on_c, 0, 69, 0
1, 116757, Note_on_c, 0, 36, 0
1, 116781, Note_on_c, 0, 60, 0
1, 116801, Note_on_c, 0, 65, 0
1, 116825, Note_on_c, 0, 24, 0
1, 117097, Note_on_c, 0, 70, 53
1, 117109, Note_on_c, 0, 61, 42
1, 117109, Note_on_c, 0, 36, 39
1, 117113, Note_on_c, 0, 66, 51
1, 117153, Note_on_c, 0, 36, 0
1, 117501, Note_on_c, 0, 61, 0
1, 117525, Note_on_c, 0, 66, 0
1, 117921, Note_on_c, 0, 70, 0
1, 118117, Control_c, 0, 64, 0
1, 118145, Note_on_c, 0, 69, 56
1, 118149, Note_on_c, 0, 60, 48
1, 118153, Note_on_c, 0, 65, 52
1, 118161, Note_on_c, 0, 57, 48
1, 118181, Note_on_c, 0, 48, 45
1, 118265, Control_c, 0, 64, 127
1, 118521, Note_on_c, 0, 57, 0
1, 118621, Note_on_c, 0, 57, 57
1, 118757, Note_on_c, 0, 60, 0
1, 118845, Note_on_c, 0, 65, 0
1, 118921, Note_on_c, 0, 69, 0
1, 118925, Note_on_c, 0, 57, 0
1, 118953, Note_on_c, 0, 58, 47
1, 118977, Note_on_c, 0, 70, 75
1, 118981, Note_on_c, 0, 62, 69
1, 118985, Note_on_c, 0, 65, 59
1, 119237, Note_on_c, 0, 62, 0
1, 119269, Note_on_c, 0, 65, 0
1, 119309, Note_on_c, 0, 70, 0
1, 119333, Note_on_c, 0, 58, 0
1, 119345, Note_on_c, 0, 57, 63
1, 119345, Note_on_c, 0, 69, 76
1, 119357, Note_on_c, 0, 65, 57
1, 119361, Note_on_c, 0, 60, 56
1, 119401, Note_on_c, 0, 48, 0
1, 119497, Note_on_c, 0, 65, 0
1, 119501, Note_on_c, 0, 69, 0
1, 119521, Note_on_c, 0, 60, 0
1, 119529, Note_on_c, 0, 57, 0
1, 119761, Note_on_c, 0, 65, 54
1, 119761, Note_on_c, 0, 62, 62
1, 119765, Note_on_c, 0, 58, 58
1, 119773, Control_c, 0, 64, 0
1, 119781, Note_on_c, 0, 48, 52
1, 119945, Control_c, 0, 64, 127
1, 120169, Note_on_c, 0, 60, 69
1, 120177, Note_on_c, 0, 55, 45
1, 120225, Note_on_c, 0, 62, 0
1, 120269, Note_on_c, 0, 58, 0
1, 120353, Note_on_c, 0, 65, 0
1, 120381, Note_on_c, 0, 60, 0
1, 120513, Note_on_c, 0, 58, 57
1, 120517, Note_on_c, 0, 65, 76
1, 120533, Note_on_c, 0, 60, 57
1, 120573, Note_on_c, 0, 48, 0
1, 120657, Note_on_c, 0, 58, 0
1, 120709, Note_on_c, 0, 60, 0
1, 120729, Note_on_c, 0, 65, 0
1, 120837, Control_c, 0, 64, 0
1, 120865, Note_on_c, 0, 65, 76
1, 120869, Note_on_c, 0, 69, 76
1, 120873, Note_on_c, 0, 60, 76
1, 120885, Note_on_c, 0, 55, 0
1, 120885, Note_on_c, 0, 57, 67
1, 120885, Note_on_c, 0, 48, 55
1, 120977, Control_c, 0, 64, 127
1, 121073, Note_on_c, 0, 60, 0
1, 121073, Note_on_c, 0, 69, 0
1, 121105, Note_on_c, 0, 65, 0
1, 121113, Note_on_c, 0, 57, 0
1, 121237, Control_c, 0, 64, 0
1, 121237, Note_on_c, 0, 70, 82
1, 121245, Note_on_c, 0, 65, 73
1, 121245, Note_on_c, 0, 62, 76
1, 121249, Note_on_c, 0, 58, 69
1, 121293, Control_c, 0, 64, 127
1, 121401, Note_on_c, 0, 65, 0
1, 121433, Note_on_c, 0, 70, 0
1, 121441, Note_on_c, 0, 58, 0
1, 121441, Note_on_c, 0, 62, 0
1, 121481, Note_on_c, 0, 48, 0
1, 121613, Note_on_c, 0, 69, 76
1, 121621, Note_on_c, 0, 48, 60
1, 121625, Note_on_c, 0, 64, 71
1, 121629, Note_on_c, 0, 57, 54
1, 121637, Note_on_c, 0, 60, 56
1, 121657, Note_on_c, 0, 57, 0
1, 121725, Note_on_c, 0, 48, 0
1, 121725, Note_on_c, 0, 69, 0
1, 121733, Note_on_c, 0, 64, 0
1, 121789, Note_on_c, 0, 60, 0
1, 122001, Control_c, 0, 64, 0
1, 122043, Marker_t, "On EbMaj7, 4th arpeggio (C,F,Bb) in RH over sustained Rb in Bass"
1, 122057, Note_on_c, 0, 65, 71
1, 122069, Note_on_c, 0, 60, 67
1, 122069, Note_on_c, 0, 55, 67
1, 122073, Note_on_c, 0, 27, 62
1, 122083, Control_c, 0, 64, 127
1, 122089, Note_on_c, 0, 39, 45
1, 122193, Note_on_c, 0, 27, 0
1, 122225, Note_on_c, 0, 55, 0
1, 122229, Note_on_c, 0, 39, 0
1, 122321, Note_on_c, 0, 60, 0
1, 122325, Note_on_c, 0, 65, 0
1, 122469, Note_on_c, 0, 60, 64
1, 122621, Note_on_c, 0, 65, 76
1, 122729, Note_on_c, 0, 65, 0
1, 122773, Note_on_c, 0, 70, 85
1, 122849, Note_on_c, 0, 70, 0
1, 122901, Note_on_c, 0, 72, 87
1, 123009, Note_on_c, 0, 72, 0
1, 123033, Note_on_c, 0, 77, 92
1, 123165, Note_on_c, 0, 77, 0
1, 123165, Note_on_c, 0, 82, 87
1, 123249, Note_on_c, 0, 82, 0
1, 123301, Note_on_c, 0, 84, 81
1, 123461, Note_on_c, 0, 89, 85
1, 123541, Note_on_c, 0, 65, 30
1, 123577, Note_on_c, 0, 55, 46
1, 123597, Note_on_c, 0, 94, 90
1, 123785, Note_on_c, 0, 94, 0
1, 123797, Note_on_c, 0, 96, 87
1, 123973, Note_on_c, 0, 89, 0
1, 123977, Note_on_c, 0, 96, 0
1, 124017, Note_on_c, 0, 94, 76
1, 124217, Note_on_c, 0, 94, 0
1, 124249, Note_on_c, 0, 65, 0
1, 124253, Note_on_c, 0, 84, 0
1, 124269, Note_on_c, 0, 89, 66
1, 124285, Note_on_c, 0, 60, 0
1, 124473, Note_on_c, 0, 55, 0
1, 124517, Note_on_c, 0, 94, 70
1, 124721, Note_on_c, 0, 94, 0
1, 124761, Control_c, 0, 64, 0
1, 124773, Note_on_c, 0, 93, 74
1, 124777, Note_on_c, 0, 89, 0
1, 124777, Note_on_c, 0, 48, 55
1, 124897, Control_c, 0, 64, 127
1, 124969, Note_on_c, 0, 93, 0
1, 125085, Note_on_c, 0, 57, 57
1, 125093, Note_on_c, 0, 48, 0
1, 125165, Note_on_c, 0, 57, 0
1, 125401, Note_on_c, 0, 60, 53
1, 125737, Note_on_c, 0, 69, 51
1, 125745, Note_on_c, 0, 65, 44
1, 126081, Note_on_c, 0, 69, 0
1, 126349, Note_on_c, 0, 65, 0
1, 126361, Note_on_c, 0, 82, 85
1, 126405, Note_on_c, 0, 60, 0
1, 126501, Note_on_c, 0, 82, 0
1, 126549, Note_on_c, 0, 81, 89
1, 126621, Note_on_c, 0, 81, 0
1, 126809, Control_c, 0, 64, 0
1, 126825, Note_on_c, 0, 77, 72
1, 126841, Note_on_c, 0, 65, 40
1, 126841, Note_on_c, 0, 55, 40
1, 126841, Note_on_c, 0, 72, 62
1, 126861, Note_on_c, 0, 45, 39
1, 126861, Note_on_c, 0, 52, 47
1, 126937, Control_c, 0, 64, 127
1, 127069, Note_on_c, 0, 77, 0
1, 127085, Note_on_c, 0, 52, 0
1, 127093, Note_on_c, 0, 72, 0
1, 127101, Note_on_c, 0, 55, 0
1, 127121, Note_on_c, 0, 45, 0
1, 127145, Note_on_c, 0, 65, 0
1, 127569, Control_c, 0, 64, 0
1, 127593, Note_on_c, 0, 65, 49
1, 127593, Note_on_c, 0, 54, 42
1, 127617, Note_on_c, 0, 58, 47
1, 127625, Note_on_c, 0, 26, 43
1, 127629, Note_on_c, 0, 38, 39
1, 127629, Note_on_c, 0, 60, 35
1, 127757, Control_c, 0, 64, 127
1, 128085, Note_on_c, 0, 54, 0
1, 128093, Note_on_c, 0, 60, 0
1, 128161, Note_on_c, 0, 58, 0
1, 128185, Note_on_c, 0, 65, 0
1, 128225, Note_on_c, 0, 26, 0
1, 128313, Note_on_c, 0, 38, 0
1, 128797, Note_on_c, 0, 69, 64
1, 128937, Note_on_c, 0, 69, 0
1, 128965, Control_c, 0, 64, 0
1, 129013, Note_on_c, 0, 67, 60
1, 129029, Note_on_c, 0, 49, 33
1, 129033, Note_on_c, 0, 63, 45
1, 129057, Note_on_c, 0, 59, 22
1, 129061, Note_on_c, 0, 53, 41
1, 129121, Control_c, 0, 64, 127
1, 129201, Note_on_c, 0, 59, 0
1, 129281, Note_on_c, 0, 63, 0
1, 129281, Note_on_c, 0, 67, 0
1, 129457, Note_on_c, 0, 79, 68
1, 129461, Note_on_c, 0, 53, 0
1, 129485, Note_on_c, 0, 49, 0
1, 129685, Note_on_c, 0, 79, 0
1, 129777, Note_on_c, 0, 79, 61
1, 129809, Note_on_c, 0, 59, 39
1, 129813, Note_on_c, 0, 63, 43
1, 129821, Note_on_c, 0, 67, 34
1, 129865, Note_on_c, 0, 53, 21
1, 130029, Note_on_c, 0, 53, 0
1, 130073, Note_on_c, 0, 63, 0
1, 130097, Note_on_c, 0, 79, 0
1, 130109, Note_on_c, 0, 59, 0
1, 130145, Note_on_c, 0, 67, 0
1, 130833, Note_on_c, 0, 53, 52
1, 130861, Note_on_c, 0, 53, 0
1, 130917, Note_on_c, 0, 55, 46
1, 130949, Note_on_c, 0, 55, 0
1, 131009, Note_on_c, 0, 55, 66
1, 131073, Note_on_c, 0, 53, 65
1, 131081, Note_on_c, 0, 55, 0
1, 131165, Note_on_c, 0, 53, 0
1, 131201, Note_on_c, 0, 50, 39
1, 131257, Note_on_c, 0, 50, 0
1, 131301, Note_on_c, 0, 51, 65
1, 131333, Control_c, 0, 64, 0
1, 131381, Note_on_c, 0, 51, 0
1, 131405, Note_on_c, 0, 52, 63
1, 131433, Note_on_c, 0, 24, 39
1, 131437, Note_on_c, 0, 36, 35
1, 131529, Control_c, 0, 64, 127
1, 131637, Note_on_c, 0, 52, 0
1, 131685, Note_on_c, 0, 55, 61
1, 131701, Note_on_c, 0, 24, 0
1, 131713, Note_on_c, 0, 55, 0
1, 131733, Note_on_c, 0, 36, 0
1, 132409, Note_on_c, 0, 58, 50
1, 132769, Note_on_c, 0, 64, 51
1, 132773, Note_on_c, 0, 68, 55
1, 132777, Note_on_c, 0, 72, 56
1, 133077, Note_on_c, 0, 64, 0
1, 133113, Note_on_c, 0, 58, 0
1, 133117, Note_on_c, 0, 75, 76
1, 133141, Note_on_c, 0, 72, 0
1, 133253, Note_on_c, 0, 75, 0
1, 133417, Note_on_c, 0, 68, 0
1, 133493, Control_c, 0, 64, 0
1, 133493, Note_on_c, 0, 67, 58
1, 133497, Note_on_c, 0, 72, 58
1, 133501, Note_on_c, 0, 62, 56
1, 133505, Note_on_c, 0, 48, 47
1, 133513, Note_on_c, 0, 57, 48
1, 133677, Control_c, 0, 64, 127
1, 133821, Note_on_c, 0, 62, 0
1, 133921, Note_on_c, 0, 62, 47
1, 133933, Note_on_c, 0, 67, 0
1, 133937, Note_on_c, 0, 72, 0
1, 134101, Note_on_c, 0, 62, 0
1, 134157, Note_on_c, 0, 57, 0
1, 134269, Note_on_c, 0, 69, 81
1, 134269, Note_on_c, 0, 60, 81
1, 134273, Note_on_c, 0, 64, 76
1, 134289, Note_on_c, 0, 57, 48
1, 134441, Note_on_c, 0, 69, 0
1, 134465, Note_on_c, 0, 60, 0
1, 134541, Note_on_c, 0, 64, 0
1, 134593, Note_on_c, 0, 57, 0
1, 134725, Note_on_c, 0, 70, 81
1, 134733, Note_on_c, 0, 62, 68
1, 134737, Note_on_c, 0, 57, 58
1, 134737, Note_on_c, 0, 64, 73
1, 134885, Note_on_c, 0, 62, 0
1, 134905, Note_on_c, 0, 64, 0
1, 134913, Note_on_c, 0, 70, 0
1, 134921, Note_on_c, 0, 57, 0
1, 135041, Note_on_c, 0, 57, 51
1, 135045, Note_on_c, 0, 69, 75
1, 135049, Note_on_c, 0, 64, 65
1, 135049, Note_on_c, 0, 60, 48
1, 135077, Note_on_c, 0, 62, 33
1, 135113, Note_on_c, 0, 62, 0
1, 135225, Note_on_c, 0, 48, 0
1, 135493, Note_on_c, 0, 57, 0
1, 135509, Note_on_c, 0, 48, 49
1, 135517, Note_on_c, 0, 64, 0
1, 135533, Note_on_c, 0, 69, 0
1, 135601, Note_on_c, 0, 60, 0
1, 135793, Control_c, 0, 64, 0
1, 135809, Note_on_c, 0, 48, 0
1, 135837, Note_on_c, 0, 65, 65
1, 135845, Note_on_c, 0, 60, 65
1, 135845, Note_on_c, 0, 51, 57
1, 135845, Note_on_c, 0, 57, 53
1, 135977, Control_c, 0, 64, 127
1, 136309, Note_on_c, 0, 57, 0
1, 136353, Note_on_c, 0, 60, 0
1, 136573, Note_on_c, 0, 65, 0
1, 136621, Note_on_c, 0, 60, 64
1, 136713, Note_on_c, 0, 51, 0
1, 137385, Note_on_c, 0, 60, 0
1, 137405, Note_on_c, 0, 51, 77
1, 137709, Note_on_c, 0, 65, 89
1, 137793, Note_on_c, 0, 65, 0
1, 137917, Note_on_c, 0, 69, 109
1, 138021, Note_on_c, 0, 69, 0
1, 138157, Control_c, 0, 64, 0
1, 138177, Note_on_c, 0, 51, 0
1, 138185, Note_on_c, 0, 72, 105
1, 138185, Note_on_c, 0, 65, 95
1, 138189, Note_on_c, 0, 50, 62
1, 138193, Note_on_c, 0, 62, 92
1, 138197, Note_on_c, 0, 57, 67
1, 138337, Control_c, 0, 64, 127
1, 138533, Note_on_c, 0, 57, 0
1, 138617, Note_on_c, 0, 62, 0
1, 138673, Note_on_c, 0, 65, 0
1, 138741, Note_on_c, 0, 72, 0
1, 139017, Note_on_c, 0, 70, 66
1, 139017, Note_on_c, 0, 62, 60
1, 139021, Note_on_c, 0, 65, 61
1, 139029, Note_on_c, 0, 57, 49
1, 139269, Note_on_c, 0, 57, 0
1, 139329, Note_on_c, 0, 50, 0
1, 139341, Note_on_c, 0, 62, 0
1, 139345, Note_on_c, 0, 65, 0
1, 139477, Note_on_c, 0, 70, 0
1, 139885, Note_on_c, 0, 62, 51
1, 139889, Note_on_c, 0, 69, 60
1, 139905, Note_on_c, 0, 65, 53
1, 139917, Note_on_c, 0, 50, 42
1, 140117, Note_on_c, 0, 69, 0
1, 140129, Note_on_c, 0, 65, 0
1, 140133, Note_on_c, 0, 62, 0
1, 140145, Note_on_c, 0, 50, 0
1, 140709, Control_c, 0, 64, 0
1, 140749, Note_on_c, 0, 58, 41
1, 140753, Note_on_c, 0, 67, 48
1, 140765, Note_on_c, 0, 49, 35
1, 140769, Note_on_c, 0, 61, 48
1, 140773, Note_on_c, 0, 37, 36
1, 140893, Control_c, 0, 64, 104
1, 140897, Control_c, 0, 64, 127
1, 141105, Note_on_c, 0, 37, 0
1, 141181, Note_on_c, 0, 49, 0
1, 141313, Note_on_c, 0, 61, 0
1, 141373, Note_on_c, 0, 53, 42
1, 141557, Note_on_c, 0, 58, 0
1, 141737, Note_on_c, 0, 53, 0
1, 141745, Note_on_c, 0, 58, 50
1, 141757, Note_on_c, 0, 61, 56
1, 141777, Note_on_c, 0, 55, 45
1, 142193, Note_on_c, 0, 55, 0
1, 142205, Note_on_c, 0, 56, 56
1, 142601, Note_on_c, 0, 56, 0
1, 142657, Note_on_c, 0, 55, 48
1, 143029, Note_on_c, 0, 67, 0
1, 143153, Note_on_c, 0, 67, 47
1, 143193, Note_on_c, 0, 55, 0
1, 143237, Note_on_c, 0, 58, 0
1, 143273, Note_on_c, 0, 67, 0
1, 143321, Note_on_c, 0, 61, 0
1, 143597, Control_c, 0, 64, 0
1, 143657, Note_on_c, 0, 69, 58
1, 143665, Note_on_c, 0, 60, 48
1, 143677, Note_on_c, 0, 57, 31
1, 143677, Note_on_c, 0, 48, 41
1, 143741, Control_c, 0, 64, 127
1, 143821, Note_on_c, 0, 57, 0
1, 143873, Note_on_c, 0, 48, 0
1, 144197, Note_on_c, 0, 24, 46
1, 144309, Note_on_c, 0, 69, 0
1, 144381, Note_on_c, 0, 60, 0
1, 145033, Note_on_c, 0, 24, 0
1, 145189, Note_on_c, 0, 24, 46
1, 145957, Note_on_c, 0, 24, 0
1, 146209, Note_on_c, 0, 60, 51
1, 146213, Note_on_c, 0, 53, 47
1, 146237, Note_on_c, 0, 57, 39
1, 146237, Note_on_c, 0, 24, 40
1, 146373, Note_on_c, 0, 53, 0
1, 146385, Note_on_c, 0, 57, 0
1, 146397, Note_on_c, 0, 60, 0
1, 146669, Control_c, 0, 64, 0
1, 146701, Note_on_c, 0, 67, 60
1, 146713, Note_on_c, 0, 58, 48
1, 146721, Note_on_c, 0, 65, 51
1, 146729, Note_on_c, 0, 36, 40
1, 146737, Note_on_c, 0, 62, 48
1, 146833, Control_c, 0, 64, 127
1, 147029, Note_on_c, 0, 24, 0
1, 147153, Note_on_c, 0, 24, 44
1, 147305, Note_on_c, 0, 65, 0
1, 147393, Note_on_c, 0, 62, 0
1, 147409, Note_on_c, 0, 58, 0
1, 147417, Note_on_c, 0, 67, 0
1, 147697, Note_on_c, 0, 24, 0
1, 148137, Note_on_c, 0, 24, 44
1, 148397, Note_on_c, 0, 36, 0
1, 148701, Note_on_c, 0, 58, 51
1, 148709, Note_on_c, 0, 60, 52
1, 148713, Note_on_c, 0, 52, 28
1, 148741, Note_on_c, 0, 36, 30
1, 149137, Note_on_c, 0, 24, 0
1, 149149, Note_on_c, 0, 52, 0
1, 149165, Note_on_c, 0, 36, 0
1, 149189, Note_on_c, 0, 60, 0
1, 149401, Note_on_c, 0, 58, 0
1, 150137, Note_on_c, 0, 60, 44
1, 151593, Note_on_c, 0, 60, 0
1, 151813, Control_c, 0, 64, 0
1, 151829, Note_on_c, 0, 41, 53
1, 151969, Control_c, 0, 64, 127
1, 152281, Note_on_c, 0, 48, 44
1, 152713, Note_on_c, 0, 55, 52
1, 153117, Note_on_c, 0, 57, 54
1, 153425, Note_on_c, 0, 57, 0
1, 153489, Note_on_c, 0, 60, 65
1, 153581, Note_on_c, 0, 60, 0
1, 153749, Note_on_c, 0, 55, 0
1, 153797, Note_on_c, 0, 41, 0
1, 153821, Note_on_c, 0, 65, 62
1, 153949, Note_on_c, 0, 48, 0
1, 154101, Control_c, 0, 64, 0
1, 154113, Note_on_c, 0, 69, 69
1, 154137, Note_on_c, 0, 65, 0
1, 154149, Note_on_c, 0, 39, 45
1, 154257, Control_c, 0, 64, 127
1, 154377, Note_on_c, 0, 69, 0
1, 154393, Note_on_c, 0, 72, 64
1, 154421, Note_on_c, 0, 39, 0
1, 154421, Note_on_c, 0, 46, 51
1, 154465, Note_on_c, 0, 72, 0
1, 154629, Note_on_c, 0, 46, 0
1, 154681, Note_on_c, 0, 77, 56
1, 154689, Note_on_c, 0, 53, 49
1, 154949, Note_on_c, 0, 77, 0
1, 154961, Note_on_c, 0, 53, 0
1, 154969, Note_on_c, 0, 82, 58
1, 155033, Note_on_c, 0, 58, 21
1, 155189, Note_on_c, 0, 82, 0
1, 155253, Note_on_c, 0, 58, 0
1, 155253, Note_on_c, 0, 60, 43
1, 155273, Note_on_c, 0, 84, 60
1, 155561, Note_on_c, 0, 65, 47
1, 155585, Note_on_c, 0, 89, 62
1, 155593, Note_on_c, 0, 65, 0
1, 155629, Note_on_c, 0, 60, 0
1, 155821, Note_on_c, 0, 84, 0
1, 155881, Note_on_c, 0, 89, 0
1, 155901, Control_c, 0, 64, 0
1, 155921, Note_on_c, 0, 92, 62
1, 155941, Note_on_c, 0, 37, 55
1, 156061, Control_c, 0, 64, 127
1, 156177, Note_on_c, 0, 92, 0
1, 156201, Note_on_c, 0, 37, 0
1, 156225, Note_on_c, 0, 44, 57
1, 156253, Note_on_c, 0, 97, 52
1, 156365, Note_on_c, 0, 44, 0
1, 156389, Note_on_c, 0, 97, 0
1, 156421, Note_on_c, 0, 44, 16
1, 156537, Note_on_c, 0, 44, 0
1, 156577, Note_on_c, 0, 53, 52
1, 156577, Note_on_c, 0, 99, 63
1, 156681, Note_on_c, 0, 99, 0
1, 156905, Note_on_c, 0, 53, 0
1, 156917, Note_on_c, 0, 56, 44
1, 156925, Note_on_c, 0, 101, 48
1, 157009, Note_on_c, 0, 101, 0
1, 157253, Note_on_c, 0, 104, 56
1, 157285, Note_on_c, 0, 60, 40
1, 157517, Note_on_c, 0, 60, 0
1, 157561, Note_on_c, 0, 104, 0
1, 157573, Note_on_c, 0, 56, 0
1, 157593, Note_on_c, 0, 63, 43
1, 157613, Note_on_c, 0, 106, 56
1, 157629, Note_on_c, 0, 63, 0
1, 158069, Note_on_c, 0, 106, 0
1, 158077, Note_on_c, 0, 108, 64
1, 158093, Control_c, 0, 64, 0
1, 158097, Note_on_c, 0, 24, 57
1, 158233, Control_c, 0, 64, 127
1, 158373, Note_on_c, 0, 108, 0
1, 158501, Note_on_c, 0, 24, 0
1, 158501, Note_on_c, 0, 36, 54
1, 158537, Note_on_c, 0, 36, 0
1, 158933, Note_on_c, 0, 58, 49
1, 159241, Note_on_c, 0, 61, 48
1, 159469, Note_on_c, 0, 64, 41
1, 159633, Note_on_c, 0, 67, 56
1, 159697, Note_on_c, 0, 67, 0
1, 159821, Note_on_c, 0, 70, 54
1, 159929, Note_on_c, 0, 70, 0
1, 159989, Note_on_c, 0, 73, 60
1, 160093, Note_on_c, 0, 73, 0
1, 160153, Note_on_c, 0, 76, 62
1, 160253, Note_on_c, 0, 76, 0
1, 160333, Note_on_c, 0, 79, 53
1, 160445, Note_on_c, 0, 79, 0
1, 160493, Note_on_c, 0, 82, 65
1, 160593, Note_on_c, 0, 82, 0
1, 160657, Note_on_c, 0, 84, 51
1, 160781, Note_on_c, 0, 84, 0
1, 160833, Note_on_c, 0, 85, 56
1, 160913, Note_on_c, 0, 85, 0
1, 160981, Note_on_c, 0, 87, 60
1, 161009, Note_on_c, 0, 87, 0
1, 161061, Note_on_c, 0, 88, 61
1, 161133, Note_on_c, 0, 88, 0
1, 161173, Note_on_c, 0, 90, 67
1, 161197, Note_on_c, 0, 90, 0
1, 161245, Note_on_c, 0, 91, 68
1, 161321, Note_on_c, 0, 93, 85
1, 161329, Note_on_c, 0, 91, 0
1, 161349, Note_on_c, 0, 64, 0
1, 161409, Note_on_c, 0, 93, 0
1, 161421, Note_on_c, 0, 94, 84
1, 161453, Note_on_c, 0, 94, 0
1, 161485, Note_on_c, 0, 96, 81
1, 161565, Note_on_c, 0, 96, 0
1, 161577, Note_on_c, 0, 97, 92
1, 161657, Note_on_c, 0, 97, 0
1, 161661, Note_on_c, 0, 99, 81
1, 161709, Note_on_c, 0, 99, 0
1, 161729, Note_on_c, 0, 100, 68
1, 161821, Note_on_c, 0, 101, 70
1, 161825, Note_on_c, 0, 100, 0
1, 161897, Note_on_c, 0, 101, 0
1, 161897, Note_on_c, 0, 102, 79
1, 161969, Note_on_c, 0, 102, 0
1, 161989, Note_on_c, 0, 103, 68
1, 162273, Note_on_c, 0, 103, 0
1, 162273, Note_on_c, 0, 108, 60
1, 162325, Note_on_c, 0, 61, 0
1, 162361, Note_on_c, 0, 58, 0
1, 162529, Note_on_c, 0, 108, 0
1, 162601, Note_on_c, 0, 108, 72
1, 162893, Note_on_c, 0, 108, 0
1, 162965, Note_on_c, 0, 108, 58
1, 163161, Note_on_c, 0, 108, 0
1, 163865, Note_on_c, 0, 108, 55
1, 163869, Control_c, 0, 64, 0
1, 163889, Note_on_c, 0, 29, 53
1, 164061, Control_c, 0, 64, 127
1, 164269, Note_on_c, 0, 108, 0
1, 164325, Note_on_c, 0, 29, 0
1, 165929, Note_on_c, 0, 65, 47
1, 166001, Note_on_c, 0, 86, 53
1, 166073, Note_on_c, 0, 91, 62
1, 166085, Note_on_c, 0, 72, 36
1, 166085, Note_on_c, 0, 69, 20
1, 166089, Note_on_c, 0, 86, 0
1, 166133, Note_on_c, 0, 76, 41
1, 166133, Note_on_c, 0, 95, 54
1, 166169, Note_on_c, 0, 95, 0
1, 166177, Note_on_c, 0, 91, 0
1, 166201, Note_on_c, 0, 98, 72
1, 166249, Note_on_c, 0, 98, 0
1, 166301, Note_on_c, 0, 103, 83
1, 166373, Note_on_c, 0, 103, 0
1, 166417, Note_on_c, 0, 107, 80
1, 166805, Note_on_c, 0, 107, 0
1, 166821, Note_on_c, 0, 76, 0
1, 166873, Note_on_c, 0, 72, 0
1, 166905, Note_on_c, 0, 69, 0
1, 166929, Note_on_c, 0, 65, 0
1, 168865, Control_c, 0, 64, 0
1, 169253, System_exclusive, 9, 67, 16, 76, 3, 0, 0, 64, 0, 247
1, 169253, System_exclusive, 8, 67, 16, 76, 3, 0, 12, 127, 247
1, 169253, End_track
0, 0, End_of_file
