0, 0, Header, 0, 1, 120
1, 0, Start_track
1, 0, Title_t, "For Sentimental Reasons"
1, 0, Copyright_t, "Copyright © 1997 by Doug McKenzie"
1, 0, Text_t, "Doug McKenzie\012"
1, 0, Time_signature, 4, 2, 24, 8
1, 0, Key_signature, 0, "major"
1, 0, Tempo, 800000
1, 0, Program_c, 0, 0
1, 0, Control_c, 0, 7, 100
1, 0, Control_c, 0, 64, 127
1, 2, Note_on_c, 0, 67, 38
1, 2, Note_on_c, 0, 36, 24
1, 5, Control_c, 0, 64, 0
1, 5, Note_on_c, 0, 43, 22
1, 7, Note_on_c, 0, 62, 31
1, 7, Note_on_c, 0, 59, 36
1, 8, Note_on_c, 0, 57, 36
1, 10, Note_on_c, 0, 52, 41
1, 30, Control_c, 0, 64, 127
1, 63, Note_on_c, 0, 67, 0
1, 86, Note_on_c, 0, 67, 51
1, 132, Note_on_c, 0, 59, 0
1, 132, Note_on_c, 0, 57, 0
1, 135, Note_on_c, 0, 36, 0
1, 139, Note_on_c, 0, 43, 0
1, 141, Note_on_c, 0, 62, 0
1, 146, Note_on_c, 0, 67, 0
1, 149, Note_on_c, 0, 52, 0
1, 196, Note_on_c, 0, 72, 94
1, 235, Note_on_c, 0, 72, 0
1, 241, Note_on_c, 0, 70, 50
1, 242, Note_on_c, 0, 61, 43
1, 242, Note_on_c, 0, 66, 46
1, 244, Note_on_c, 0, 55, 35
1, 245, Control_c, 0, 64, 0
1, 248, Note_on_c, 0, 45, 29
1, 272, Control_c, 0, 64, 127
1, 371, Note_on_c, 0, 45, 0
1, 387, Note_on_c, 0, 55, 0
1, 392, Note_on_c, 0, 61, 0
1, 414, Note_on_c, 0, 66, 0
1, 425, Note_on_c, 0, 70, 0
1, 491, Note_on_c, 0, 60, 33
1, 491, Note_on_c, 0, 67, 35
1, 492, Note_on_c, 0, 64, 37
1, 494, Control_c, 0, 64, 0
1, 495, Note_on_c, 0, 55, 32
1, 496, Note_on_c, 0, 50, 24
1, 496, Note_on_c, 0, 57, 26
1, 497, Note_on_c, 0, 53, 33
1, 527, Control_c, 0, 64, 127
1, 549, Note_on_c, 0, 60, 0
1, 558, Note_on_c, 0, 64, 0
1, 562, Note_on_c, 0, 67, 0
1, 647, Note_on_c, 0, 55, 0
1, 648, Note_on_c, 0, 50, 0
1, 652, Note_on_c, 0, 53, 0
1, 653, Note_on_c, 0, 57, 0
1, 683, Note_on_c, 0, 79, 99
1, 699, Note_on_c, 0, 79, 0
1, 730, Note_on_c, 0, 77, 68
1, 730, Note_on_c, 0, 74, 59
1, 731, Note_on_c, 0, 67, 48
1, 731, Note_on_c, 0, 68, 59
1, 732, Note_on_c, 0, 71, 66
1, 732, Control_c, 0, 64, 0
1, 758, Control_c, 0, 64, 127
1, 795, Note_on_c, 0, 77, 0
1, 797, Note_on_c, 0, 74, 0
1, 798, Note_on_c, 0, 76, 66
1, 831, Note_on_c, 0, 71, 0
1, 845, Note_on_c, 0, 67, 0
1, 878, Note_on_c, 0, 68, 0
1, 895, Note_on_c, 0, 74, 55
1, 902, Note_on_c, 0, 76, 0
1, 925, Note_on_c, 0, 74, 0
1, 927, Note_on_c, 0, 72, 48
1, 943, Note_on_c, 0, 72, 0
1, 963, Note_on_c, 0, 76, 50
1, 963, Note_on_c, 0, 67, 37
1, 966, Control_c, 0, 64, 0
1, 966, Note_on_c, 0, 72, 37
1, 966, Note_on_c, 0, 62, 27
1, 969, Note_on_c, 0, 56, 30
1, 1009, Control_c, 0, 64, 127
1, 1016, Note_on_c, 0, 76, 0
1, 1028, Note_on_c, 0, 76, 57
1, 1074, Note_on_c, 0, 76, 0
1, 1085, Note_on_c, 0, 76, 44
1, 1109, Note_on_c, 0, 67, 0
1, 1110, Note_on_c, 0, 72, 0
1, 1112, Note_on_c, 0, 76, 0
1, 1148, Note_on_c, 0, 62, 0
1, 1148, Note_on_c, 0, 76, 41
1, 1158, Note_on_c, 0, 76, 0
1, 1159, Note_on_c, 0, 56, 0
1, 1197, Note_on_c, 0, 55, 30
1, 1199, Note_on_c, 0, 60, 29
1, 1199, Note_on_c, 0, 84, 75
1, 1204, Note_on_c, 0, 81, 58
1, 1205, Note_on_c, 0, 61, 51
1, 1207, Control_c, 0, 64, 0
1, 1208, Note_on_c, 0, 77, 47
1, 1209, Note_on_c, 0, 65, 53
1, 1234, Control_c, 0, 64, 127
1, 1268, Note_on_c, 0, 84, 0
1, 1280, Note_on_c, 0, 84, 49
1, 1306, Note_on_c, 0, 84, 0
1, 1336, Note_on_c, 0, 84, 61
1, 1366, Note_on_c, 0, 84, 0
1, 1374, Note_on_c, 0, 65, 0
1, 1379, Note_on_c, 0, 60, 0
1, 1381, Note_on_c, 0, 61, 0
1, 1388, Note_on_c, 0, 55, 0
1, 1389, Note_on_c, 0, 81, 0
1, 1395, Note_on_c, 0, 77, 0
1, 1404, Note_on_c, 0, 84, 53
1, 1409, Note_on_c, 0, 84, 0
1, 1448, Note_on_c, 0, 76, 50
1, 1450, Note_on_c, 0, 61, 38
1, 1452, Note_on_c, 0, 65, 25
1, 1452, Note_on_c, 0, 69, 37
1, 1454, Control_c, 0, 64, 0
1, 1484, Control_c, 0, 64, 127
1, 1519, Note_on_c, 0, 65, 0
1, 1520, Note_on_c, 0, 76, 0
1, 1530, Note_on_c, 0, 69, 0
1, 1534, Note_on_c, 0, 61, 0
1, 1566, Note_on_c, 0, 77, 77
1, 1567, Note_on_c, 0, 69, 74
1, 1568, Note_on_c, 0, 72, 70
1, 1568, Note_on_c, 0, 65, 69
1, 1570, Note_on_c, 0, 60, 64
1, 1572, Control_c, 0, 64, 0
1, 1590, Control_c, 0, 64, 127
1, 1627, Note_on_c, 0, 77, 0
1, 1635, Note_on_c, 0, 72, 0
1, 1636, Note_on_c, 0, 65, 0
1, 1637, Note_on_c, 0, 60, 0
1, 1637, Note_on_c, 0, 69, 0
1, 1692, Note_on_c, 0, 68, 53
1, 1692, Note_on_c, 0, 76, 64
1, 1694, Note_on_c, 0, 71, 57
1, 1694, Note_on_c, 0, 59, 46
1, 1694, Control_c, 0, 64, 0
1, 1694, Note_on_c, 0, 65, 46
1, 1719, Control_c, 0, 64, 127
1, 1749, Note_on_c, 0, 76, 0
1, 1752, Note_on_c, 0, 71, 0
1, 1756, Note_on_c, 0, 74, 61
1, 1790, Note_on_c, 0, 65, 0
1, 1790, Note_on_c, 0, 68, 0
1, 1803, Note_on_c, 0, 74, 0
1, 1816, Note_on_c, 0, 72, 62
1, 1846, Note_on_c, 0, 59, 0
1, 1902, Note_on_c, 0, 72, 0
1, 1903, Note_on_c, 0, 71, 64
1, 1911, Note_on_c, 0, 71, 0
1, 1928, Note_on_c, 0, 34, 37
1, 1930, Note_on_c, 0, 72, 54
1, 1932, Control_c, 0, 64, 0
1, 1947, Control_c, 0, 64, 127
1, 1948, Note_on_c, 0, 34, 0
1, 2000, Note_on_c, 0, 72, 0
1, 2001, Note_on_c, 0, 56, 39
1, 2028, Note_on_c, 0, 62, 48
1, 2060, Note_on_c, 0, 67, 53
1, 2114, Note_on_c, 0, 72, 34
1, 2120, Note_on_c, 0, 62, 0
1, 2121, Note_on_c, 0, 67, 0
1, 2126, Note_on_c, 0, 72, 0
1, 2137, Note_on_c, 0, 76, 45
1, 2138, Note_on_c, 0, 56, 0
1, 2149, Note_on_c, 0, 76, 0
1, 2157, Note_on_c, 0, 84, 85
1, 2176, Note_on_c, 0, 61, 40
1, 2177, Note_on_c, 0, 65, 31
1, 2178, Note_on_c, 0, 60, 26
1, 2180, Note_on_c, 0, 55, 34
1, 2182, Note_on_c, 0, 81, 53
1, 2183, Control_c, 0, 64, 0
1, 2215, Control_c, 0, 64, 127
1, 2273, Note_on_c, 0, 65, 0
1, 2301, Note_on_c, 0, 84, 0
1, 2304, Note_on_c, 0, 81, 0
1, 2357, Note_on_c, 0, 69, 39
1, 2365, Note_on_c, 0, 69, 0
1, 2380, Note_on_c, 0, 60, 0
1, 2380, Note_on_c, 0, 69, 41
1, 2390, Note_on_c, 0, 69, 0
1, 2407, Note_on_c, 0, 61, 0
1, 2410, Note_on_c, 0, 76, 50
1, 2412, Note_on_c, 0, 68, 44
1, 2412, Note_on_c, 0, 66, 34
1, 2412, Note_on_c, 0, 64, 38
1, 2414, Note_on_c, 0, 72, 38
1, 2415, Control_c, 0, 64, 0
1, 2426, Note_on_c, 0, 55, 0
1, 2445, Control_c, 0, 64, 127
1, 2565, Note_on_c, 0, 64, 0
1, 2591, Note_on_c, 0, 76, 0
1, 2591, Note_on_c, 0, 72, 0
1, 2593, Note_on_c, 0, 68, 0
1, 2595, Note_on_c, 0, 66, 0
1, 2648, Note_on_c, 0, 74, 53
1, 2649, Note_on_c, 0, 65, 43
1, 2649, Note_on_c, 0, 69, 47
1, 2650, Note_on_c, 0, 64, 36
1, 2654, Control_c, 0, 64, 0
1, 2677, Control_c, 0, 64, 127
1, 2720, Note_on_c, 0, 74, 0
1, 2725, Note_on_c, 0, 64, 0
1, 2729, Note_on_c, 0, 72, 36
1, 2730, Note_on_c, 0, 65, 0
1, 2733, Note_on_c, 0, 69, 0
1, 2746, Note_on_c, 0, 72, 0
1, 2760, Note_on_c, 0, 65, 30
1, 2760, Note_on_c, 0, 74, 45
1, 2767, Control_c, 0, 64, 0
1, 2777, Control_c, 0, 64, 127
1, 2794, Note_on_c, 0, 65, 0
1, 2810, Note_on_c, 0, 74, 0
1, 2880, Note_on_c, 0, 56, 47
1, 2885, Note_on_c, 0, 76, 38
1, 2888, Note_on_c, 0, 67, 20
1, 2890, Note_on_c, 0, 52, 30
1, 2890, Note_on_c, 0, 60, 31
1, 2892, Control_c, 0, 64, 0
1, 2919, Control_c, 0, 64, 127
1, 2971, Note_on_c, 0, 76, 0
1, 2972, Note_on_c, 0, 67, 0
1, 3017, Note_on_c, 0, 67, 50
1, 3027, Note_on_c, 0, 60, 0
1, 3029, Note_on_c, 0, 52, 0
1, 3046, Note_on_c, 0, 67, 0
1, 3052, Note_on_c, 0, 72, 77
1, 3088, Note_on_c, 0, 69, 81
1, 3092, Note_on_c, 0, 72, 0
1, 3120, Note_on_c, 0, 56, 0
1, 3128, Note_on_c, 0, 60, 34
1, 3129, Note_on_c, 0, 65, 36
1, 3130, Note_on_c, 0, 61, 35
1, 3131, Note_on_c, 0, 55, 35
1, 3134, Control_c, 0, 64, 0
1, 3178, Note_on_c, 0, 70, 77
1, 3182, Note_on_c, 0, 69, 0
1, 3183, Control_c, 0, 64, 127
1, 3205, Note_on_c, 0, 70, 0
1, 3216, Note_on_c, 0, 72, 68
1, 3255, Note_on_c, 0, 79, 76
1, 3258, Control_c, 0, 64, 0
1, 3278, Control_c, 0, 64, 127
1, 3292, Note_on_c, 0, 79, 0
1, 3294, Note_on_c, 0, 76, 54
1, 3319, Note_on_c, 0, 65, 0
1, 3322, Note_on_c, 0, 60, 0
1, 3328, Note_on_c, 0, 76, 0
1, 3330, Note_on_c, 0, 61, 0
1, 3331, Note_on_c, 0, 55, 0
1, 3333, Note_on_c, 0, 77, 71
1, 3368, Note_on_c, 0, 72, 0
1, 3370, Note_on_c, 0, 64, 30
1, 3370, Note_on_c, 0, 57, 37
1, 3372, Control_c, 0, 64, 0
1, 3372, Note_on_c, 0, 60, 36
1, 3400, Control_c, 0, 64, 127
1, 3412, Note_on_c, 0, 67, 41
1, 3416, Note_on_c, 0, 77, 0
1, 3459, Note_on_c, 0, 72, 18
1, 3507, Note_on_c, 0, 64, 0
1, 3516, Note_on_c, 0, 60, 0
1, 3524, Note_on_c, 0, 57, 0
1, 3531, Note_on_c, 0, 76, 48
1, 3553, Note_on_c, 0, 67, 0
1, 3557, Note_on_c, 0, 76, 0
1, 3563, Note_on_c, 0, 72, 0
1, 3569, Note_on_c, 0, 79, 54
1, 3608, Control_c, 0, 64, 0
1, 3608, Note_on_c, 0, 71, 36
1, 3609, Note_on_c, 0, 75, 35
1, 3609, Note_on_c, 0, 43, 36
1, 3621, Note_on_c, 0, 43, 0
1, 3622, Control_c, 0, 64, 127
1, 3659, Note_on_c, 0, 71, 0
1, 3661, Note_on_c, 0, 79, 0
1, 3664, Note_on_c, 0, 75, 0
1, 3735, Note_on_c, 0, 63, 25
1, 3739, Note_on_c, 0, 59, 32
1, 3747, Note_on_c, 0, 59, 0
1, 3752, Note_on_c, 0, 63, 0
1, 3817, Note_on_c, 0, 75, 45
1, 3818, Note_on_c, 0, 83, 53
1, 3819, Note_on_c, 0, 71, 50
1, 3820, Note_on_c, 0, 79, 34
1, 3828, Note_on_c, 0, 79, 0
1, 3831, Note_on_c, 0, 83, 0
1, 3833, Note_on_c, 0, 71, 0
1, 3839, Note_on_c, 0, 75, 0
1, 3855, Note_on_c, 0, 36, 26
1, 3856, Note_on_c, 0, 43, 24
1, 3858, Control_c, 0, 64, 0
1, 3859, Note_on_c, 0, 69, 44
1, 3860, Note_on_c, 0, 79, 36
1, 3860, Note_on_c, 0, 74, 43
1, 3876, Control_c, 0, 64, 127
1, 3882, Note_on_c, 0, 36, 0
1, 3887, Note_on_c, 0, 52, 1
1, 3888, Note_on_c, 0, 43, 0
1, 3895, Note_on_c, 0, 52, 0
1, 3915, Note_on_c, 0, 69, 0
1, 3919, Note_on_c, 0, 74, 0
1, 3921, Note_on_c, 0, 79, 0
1, 3935, Note_on_c, 0, 79, 34
1, 3937, Note_on_c, 0, 74, 38
1, 3938, Note_on_c, 0, 69, 36
1, 3938, Note_on_c, 0, 64, 32
1, 3940, Note_on_c, 0, 60, 33
1, 3941, Note_on_c, 0, 59, 28
1, 3996, Note_on_c, 0, 60, 0
1, 3996, Note_on_c, 0, 64, 0
1, 3997, Note_on_c, 0, 79, 0
1, 3998, Note_on_c, 0, 59, 0
1, 4001, Note_on_c, 0, 74, 0
1, 4005, Note_on_c, 0, 69, 0
1, 4054, Note_on_c, 0, 52, 39
1, 4077, Control_c, 0, 64, 0
1, 4090, Note_on_c, 0, 45, 41
1, 4093, Note_on_c, 0, 52, 0
1, 4095, Control_c, 0, 64, 127
1, 4096, Note_on_c, 0, 45, 0
1, 4164, Note_on_c, 0, 64, 29
1, 4164, Note_on_c, 0, 60, 34
1, 4165, Note_on_c, 0, 59, 32
1, 4169, Note_on_c, 0, 55, 34
1, 4255, Note_on_c, 0, 60, 0
1, 4259, Note_on_c, 0, 59, 0
1, 4262, Note_on_c, 0, 64, 0
1, 4262, Note_on_c, 0, 55, 0
1, 4287, Note_on_c, 0, 72, 44
1, 4298, Note_on_c, 0, 72, 0
1, 4325, Note_on_c, 0, 79, 78
1, 4326, Note_on_c, 0, 72, 61
1, 4327, Note_on_c, 0, 69, 60
1, 4328, Control_c, 0, 64, 0
1, 4329, Note_on_c, 0, 64, 50
1, 4348, Control_c, 0, 64, 127
1, 4404, Note_on_c, 0, 79, 0
1, 4408, Note_on_c, 0, 69, 0
1, 4411, Note_on_c, 0, 64, 0
1, 4415, Note_on_c, 0, 72, 0
1, 4448, Note_on_c, 0, 77, 69
1, 4448, Note_on_c, 0, 69, 65
1, 4450, Note_on_c, 0, 72, 60
1, 4451, Note_on_c, 0, 62, 36
1, 4452, Control_c, 0, 64, 0
1, 4468, Control_c, 0, 64, 127
1, 4500, Note_on_c, 0, 77, 0
1, 4503, Note_on_c, 0, 72, 0
1, 4509, Note_on_c, 0, 69, 0
1, 4521, Note_on_c, 0, 62, 0
1, 4564, Control_c, 0, 64, 0
1, 4565, Note_on_c, 0, 76, 56
1, 4567, Note_on_c, 0, 71, 43
1, 4567, Note_on_c, 0, 68, 43
1, 4568, Note_on_c, 0, 65, 35
1, 4570, Note_on_c, 0, 60, 45
1, 4585, Control_c, 0, 64, 127
1, 4625, Note_on_c, 0, 76, 0
1, 4637, Note_on_c, 0, 71, 0
1, 4642, Note_on_c, 0, 74, 58
1, 4709, Note_on_c, 0, 60, 0
1, 4736, Note_on_c, 0, 74, 0
1, 4750, Note_on_c, 0, 72, 43
1, 4760, Note_on_c, 0, 68, 0
1, 4766, Note_on_c, 0, 65, 0
1, 4773, Note_on_c, 0, 72, 0
1, 4800, Note_on_c, 0, 71, 48
1, 4813, Control_c, 0, 64, 0
1, 4818, Note_on_c, 0, 48, 26
1, 4837, Note_on_c, 0, 71, 0
1, 4844, Control_c, 0, 64, 127
1, 4890, Note_on_c, 0, 76, 38
1, 4890, Note_on_c, 0, 67, 35
1, 4892, Note_on_c, 0, 64, 26
1, 4893, Note_on_c, 0, 59, 29
1, 4928, Note_on_c, 0, 64, 0
1, 4929, Note_on_c, 0, 76, 0
1, 4932, Note_on_c, 0, 67, 0
1, 4966, Note_on_c, 0, 76, 74
1, 4982, Note_on_c, 0, 48, 0
1, 4987, Note_on_c, 0, 76, 0
1, 4994, Note_on_c, 0, 59, 0
1, 5004, Note_on_c, 0, 76, 72
1, 5025, Note_on_c, 0, 76, 0
1, 5041, Note_on_c, 0, 76, 61
1, 5044, Note_on_c, 0, 65, 51
1, 5045, Note_on_c, 0, 67, 46
1, 5046, Note_on_c, 0, 70, 57
1, 5048, Control_c, 0, 64, 0
1, 5071, Control_c, 0, 64, 127
1, 5081, Note_on_c, 0, 65, 0
1, 5094, Note_on_c, 0, 64, 73
1, 5106, Control_c, 0, 64, 0
1, 5117, Control_c, 0, 64, 127
1, 5138, Note_on_c, 0, 70, 0
1, 5144, Note_on_c, 0, 67, 0
1, 5162, Note_on_c, 0, 70, 50
1, 5164, Note_on_c, 0, 67, 37
1, 5187, Note_on_c, 0, 64, 0
1, 5204, Note_on_c, 0, 51, 55
1, 5219, Note_on_c, 0, 67, 0
1, 5253, Note_on_c, 0, 70, 0
1, 5260, Note_on_c, 0, 51, 0
1, 5273, Note_on_c, 0, 76, 0
1, 5276, Note_on_c, 0, 69, 48
1, 5278, Note_on_c, 0, 60, 36
1, 5278, Control_c, 0, 64, 0
1, 5279, Note_on_c, 0, 65, 29
1, 5279, Note_on_c, 0, 50, 37
1, 5299, Control_c, 0, 64, 127
1, 5327, Note_on_c, 0, 69, 0
1, 5334, Note_on_c, 0, 65, 0
1, 5339, Note_on_c, 0, 60, 0
1, 5404, Note_on_c, 0, 65, 85
1, 5405, Note_on_c, 0, 57, 88
1, 5407, Note_on_c, 0, 50, 0
1, 5473, Note_on_c, 0, 43, 71
1, 5476, Note_on_c, 0, 65, 0
1, 5502, Note_on_c, 0, 57, 0
1, 5528, Note_on_c, 0, 64, 74
1, 5528, Note_on_c, 0, 59, 71
1, 5530, Note_on_c, 0, 56, 68
1, 5531, Note_on_c, 0, 55, 48
1, 5532, Control_c, 0, 64, 0
1, 5552, Control_c, 0, 64, 127
1, 5553, Note_on_c, 0, 55, 0
1, 5556, Note_on_c, 0, 43, 0
1, 5582, Note_on_c, 0, 64, 0
1, 5587, Note_on_c, 0, 59, 0
1, 5594, Note_on_c, 0, 62, 58
1, 5597, Note_on_c, 0, 56, 0
1, 5604, Note_on_c, 0, 62, 0
1, 5651, Control_c, 0, 64, 0
1, 5653, Note_on_c, 0, 41, 61
1, 5654, Note_on_c, 0, 74, 80
1, 5657, Note_on_c, 0, 62, 63
1, 5657, Note_on_c, 0, 53, 38
1, 5660, Note_on_c, 0, 67, 28
1, 5677, Control_c, 0, 64, 127
1, 5687, Note_on_c, 0, 41, 0
1, 5700, Note_on_c, 0, 53, 0
1, 5700, Note_on_c, 0, 71, 55
1, 5707, Note_on_c, 0, 62, 0
1, 5708, Note_on_c, 0, 74, 0
1, 5709, Note_on_c, 0, 67, 0
1, 5760, Note_on_c, 0, 71, 0
1, 5760, Note_on_c, 0, 67, 38
1, 5771, Note_on_c, 0, 40, 47
1, 5774, Note_on_c, 0, 64, 47
1, 5775, Control_c, 0, 64, 0
1, 5776, Note_on_c, 0, 60, 31
1, 5777, Note_on_c, 0, 55, 37
1, 5800, Control_c, 0, 64, 127
1, 5809, Note_on_c, 0, 40, 0
1, 5820, Note_on_c, 0, 67, 0
1, 5822, Note_on_c, 0, 60, 0
1, 5824, Note_on_c, 0, 55, 0
1, 5833, Note_on_c, 0, 64, 0
1, 5894, Note_on_c, 0, 64, 39
1, 5907, Note_on_c, 0, 64, 0
1, 5921, Note_on_c, 0, 67, 53
1, 5937, Note_on_c, 0, 67, 0
1, 5947, Note_on_c, 0, 72, 68
1, 5957, Note_on_c, 0, 72, 0
1, 5976, Note_on_c, 0, 76, 80
1, 5993, Note_on_c, 0, 76, 0
1, 6007, Control_c, 0, 64, 0
1, 6007, Note_on_c, 0, 67, 57
1, 6007, Note_on_c, 0, 79, 71
1, 6007, Note_on_c, 0, 62, 54
1, 6008, Note_on_c, 0, 72, 74
1, 6009, Note_on_c, 0, 56, 46
1, 6025, Control_c, 0, 64, 127
1, 6041, Note_on_c, 0, 72, 0
1, 6044, Note_on_c, 0, 79, 0
1, 6046, Note_on_c, 0, 62, 0
1, 6047, Note_on_c, 0, 67, 0
1, 6060, Note_on_c, 0, 56, 0
1, 6075, Note_on_c, 0, 84, 84
1, 6076, Note_on_c, 0, 78, 32
1, 6076, Note_on_c, 0, 61, 56
1, 6077, Note_on_c, 0, 77, 78
1, 6078, Note_on_c, 0, 55, 62
1, 6078, Note_on_c, 0, 60, 54
1, 6078, Note_on_c, 0, 65, 64
1, 6081, Control_c, 0, 64, 0
1, 6105, Control_c, 0, 64, 127
1, 6171, Note_on_c, 0, 84, 0
1, 6173, Note_on_c, 0, 78, 0
1, 6176, Note_on_c, 0, 77, 0
1, 6192, Note_on_c, 0, 65, 0
1, 6198, Note_on_c, 0, 60, 0
1, 6204, Note_on_c, 0, 61, 0
1, 6212, Note_on_c, 0, 55, 0
1, 6246, Note_on_c, 0, 69, 51
1, 6247, Note_on_c, 0, 65, 32
1, 6248, Note_on_c, 0, 64, 32
1, 6252, Control_c, 0, 64, 0
1, 6277, Control_c, 0, 64, 127
1, 6322, Note_on_c, 0, 55, 37
1, 6334, Note_on_c, 0, 65, 0
1, 6335, Note_on_c, 0, 69, 0
1, 6347, Note_on_c, 0, 64, 0
1, 6367, Note_on_c, 0, 76, 61
1, 6369, Note_on_c, 0, 69, 62
1, 6370, Note_on_c, 0, 65, 33
1, 6372, Note_on_c, 0, 64, 33
1, 6420, Note_on_c, 0, 64, 0
1, 6432, Note_on_c, 0, 65, 0
1, 6433, Note_on_c, 0, 69, 0
1, 6433, Note_on_c, 0, 76, 0
1, 6484, Note_on_c, 0, 65, 34
1, 6484, Note_on_c, 0, 74, 36
1, 6484, Note_on_c, 0, 71, 36
1, 6485, Note_on_c, 0, 68, 45
1, 6488, Control_c, 0, 64, 0
1, 6488, Note_on_c, 0, 62, 24
1, 6507, Control_c, 0, 64, 127
1, 6549, Note_on_c, 0, 74, 0
1, 6555, Note_on_c, 0, 71, 0
1, 6555, Note_on_c, 0, 62, 0
1, 6560, Note_on_c, 0, 68, 0
1, 6565, Note_on_c, 0, 72, 54
1, 6637, Note_on_c, 0, 72, 0
1, 6637, Note_on_c, 0, 55, 0
1, 6646, Note_on_c, 0, 71, 35
1, 6661, Note_on_c, 0, 65, 0
1, 6668, Note_on_c, 0, 71, 0
1, 6720, Note_on_c, 0, 48, 28
1, 6720, Note_on_c, 0, 72, 37
1, 6720, Note_on_c, 0, 64, 39
1, 6724, Control_c, 0, 64, 0
1, 6743, Control_c, 0, 64, 127
1, 6767, Note_on_c, 0, 72, 0
1, 6770, Note_on_c, 0, 48, 0
1, 6775, Note_on_c, 0, 64, 0
1, 6892, Control_c, 0, 64, 0
1, 6899, Note_on_c, 0, 53, 62
1, 6900, Note_on_c, 0, 38, 50
1, 6902, Note_on_c, 0, 60, 47
1, 6917, Note_on_c, 0, 53, 0
1, 6919, Note_on_c, 0, 60, 0
1, 6931, Control_c, 0, 64, 127
1, 6932, Note_on_c, 0, 60, 62
1, 6932, Note_on_c, 0, 40, 66
1, 6932, Note_on_c, 0, 55, 77
1, 6938, Note_on_c, 0, 38, 0
1, 6955, Note_on_c, 0, 60, 0
1, 6958, Note_on_c, 0, 55, 0
1, 6961, Control_c, 0, 64, 0
1, 6966, Note_on_c, 0, 40, 0
1, 6966, Note_on_c, 0, 60, 63
1, 6966, Note_on_c, 0, 57, 83
1, 6967, Note_on_c, 0, 41, 81
1, 7062, Control_c, 0, 64, 127
1, 7069, Note_on_c, 0, 57, 0
1, 7074, Note_on_c, 0, 41, 0
1, 7076, Note_on_c, 0, 37, 31
1, 7084, Control_c, 0, 64, 0
1, 7085, Note_on_c, 0, 54, 40
1, 7086, Note_on_c, 0, 37, 0
1, 7089, Note_on_c, 0, 54, 0
1, 7090, Note_on_c, 0, 40, 42
1, 7093, Note_on_c, 0, 55, 47
1, 7106, Note_on_c, 0, 60, 0
1, 7108, Note_on_c, 0, 40, 0
1, 7110, Note_on_c, 0, 55, 0
1, 7128, Note_on_c, 0, 60, 38
1, 7129, Note_on_c, 0, 53, 30
1, 7132, Note_on_c, 0, 38, 32
1, 7140, Note_on_c, 0, 38, 0
1, 7140, Note_on_c, 0, 53, 0
1, 7140, Note_on_c, 0, 60, 0
1, 7163, Note_on_c, 0, 60, 41
1, 7164, Note_on_c, 0, 36, 48
1, 7165, Note_on_c, 0, 52, 45
1, 7205, Control_c, 0, 64, 127
1, 7209, Note_on_c, 0, 52, 0
1, 7230, Note_on_c, 0, 60, 0
1, 7237, Note_on_c, 0, 24, 50
1, 7250, Note_on_c, 0, 24, 0
1, 7250, Note_on_c, 0, 36, 0
1, 7325, Note_on_c, 0, 72, 44
1, 7326, Note_on_c, 0, 58, 53
1, 7327, Note_on_c, 0, 68, 40
1, 7328, Note_on_c, 0, 63, 26
1, 7355, Note_on_c, 0, 63, 0
1, 7358, Note_on_c, 0, 72, 0
1, 7360, Note_on_c, 0, 75, 65
1, 7362, Note_on_c, 0, 68, 0
1, 7369, Note_on_c, 0, 75, 0
1, 7399, Note_on_c, 0, 87, 75
1, 7413, Note_on_c, 0, 87, 0
1, 7478, Note_on_c, 0, 99, 50
1, 7483, Note_on_c, 0, 87, 35
1, 7489, Note_on_c, 0, 87, 0
1, 7495, Note_on_c, 0, 99, 0
1, 7587, Note_on_c, 0, 58, 0
1, 7688, Note_on_c, 0, 60, 35
1, 7691, Note_on_c, 0, 57, 25
1, 7691, Control_c, 0, 64, 0
1, 7693, Note_on_c, 0, 48, 20
1, 7693, Note_on_c, 0, 41, 24
1, 7711, Note_on_c, 0, 57, 0
1, 7711, Note_on_c, 0, 60, 0
1, 7713, Note_on_c, 0, 41, 0
1, 7714, Note_on_c, 0, 48, 0
1, 7759, Control_c, 0, 64, 127
1, 7810, Note_on_c, 0, 69, 41
1, 7812, Control_c, 0, 64, 0
1, 7812, Note_on_c, 0, 60, 30
1, 7813, Note_on_c, 0, 65, 36
1, 7814, Note_on_c, 0, 57, 19
1, 7830, Note_on_c, 0, 65, 0
1, 7830, Note_on_c, 0, 60, 0
1, 7834, Note_on_c, 0, 57, 0
1, 7836, Note_on_c, 0, 69, 0
1, 7887, Control_c, 0, 64, 127
1, 7931, Control_c, 0, 64, 0
1, 7934, Note_on_c, 0, 71, 31
1, 7935, Note_on_c, 0, 66, 29
1, 7935, Note_on_c, 0, 63, 27
1, 7936, Note_on_c, 0, 60, 24
1, 7938, Note_on_c, 0, 54, 25
1, 7940, Note_on_c, 0, 57, 24
1, 7952, Note_on_c, 0, 63, 0
1, 7954, Note_on_c, 0, 66, 0
1, 7957, Note_on_c, 0, 60, 0
1, 7957, Note_on_c, 0, 57, 0
1, 7958, Note_on_c, 0, 71, 0
1, 7960, Note_on_c, 0, 54, 0
1, 8035, Control_c, 0, 64, 127
1, 8038, Control_c, 0, 64, 0
1, 8049, Note_on_c, 0, 63, 20
1, 8051, Note_on_c, 0, 60, 27
1, 8054, Note_on_c, 0, 54, 19
1, 8067, Note_on_c, 0, 60, 0
1, 8072, Note_on_c, 0, 63, 0
1, 8074, Note_on_c, 0, 54, 0
1, 8133, Note_on_c, 0, 76, 53
1, 8133, Note_on_c, 0, 81, 58
1, 8134, Note_on_c, 0, 69, 42
1, 8139, Control_c, 0, 64, 127
1, 8151, Note_on_c, 0, 81, 0
1, 8153, Note_on_c, 0, 76, 0
1, 8157, Note_on_c, 0, 69, 0
1, 8167, Note_on_c, 0, 55, 33
1, 8168, Control_c, 0, 64, 0
1, 8170, Note_on_c, 0, 64, 20
1, 8171, Note_on_c, 0, 60, 24
1, 8176, Note_on_c, 0, 60, 0
1, 8178, Note_on_c, 0, 64, 0
1, 8178, Note_on_c, 0, 55, 0
1, 8187, Note_on_c, 0, 75, 40
1, 8188, Note_on_c, 0, 67, 32
1, 8189, Note_on_c, 0, 79, 35
1, 8202, Note_on_c, 0, 67, 0
1, 8206, Note_on_c, 0, 75, 0
1, 8211, Note_on_c, 0, 76, 48
1, 8212, Note_on_c, 0, 67, 24
1, 8223, Note_on_c, 0, 67, 0
1, 8224, Note_on_c, 0, 79, 0
1, 8225, Note_on_c, 0, 76, 0
1, 8237, Note_on_c, 0, 79, 44
1, 8238, Note_on_c, 0, 67, 44
1, 8238, Note_on_c, 0, 76, 47
1, 8247, Note_on_c, 0, 67, 0
1, 8248, Note_on_c, 0, 76, 0
1, 8248, Note_on_c, 0, 79, 0
1, 8261, Note_on_c, 0, 79, 55
1, 8262, Note_on_c, 0, 67, 36
1, 8262, Control_c, 0, 64, 127
1, 8262, Note_on_c, 0, 76, 40
1, 8271, Note_on_c, 0, 67, 0
1, 8272, Note_on_c, 0, 76, 0
1, 8273, Note_on_c, 0, 79, 0
1, 8276, Control_c, 0, 64, 0
1, 8286, Note_on_c, 0, 79, 46
1, 8286, Note_on_c, 0, 62, 30
1, 8287, Note_on_c, 0, 56, 25
1, 8288, Note_on_c, 0, 67, 26
1, 8289, Note_on_c, 0, 74, 44
1, 8293, Note_on_c, 0, 59, 24
1, 8297, Note_on_c, 0, 67, 0
1, 8298, Note_on_c, 0, 74, 0
1, 8302, Note_on_c, 0, 79, 0
1, 8308, Note_on_c, 0, 59, 0
1, 8312, Note_on_c, 0, 56, 0
1, 8314, Note_on_c, 0, 62, 0
1, 8349, Control_c, 0, 64, 127
1, 8392, Control_c, 0, 64, 0
1, 8400, Note_on_c, 0, 64, 14
1, 8400, Note_on_c, 0, 57, 39
1, 8409, Note_on_c, 0, 61, 26
1, 8428, Note_on_c, 0, 64, 0
1, 8434, Note_on_c, 0, 61, 0
1, 8455, Note_on_c, 0, 57, 0
1, 8480, Note_on_c, 0, 56, 39
1, 8499, Control_c, 0, 64, 127
1, 8513, Control_c, 0, 64, 0
1, 8523, Note_on_c, 0, 55, 36
1, 8525, Note_on_c, 0, 61, 32
1, 8527, Note_on_c, 0, 64, 22
1, 8535, Note_on_c, 0, 56, 0
1, 8552, Note_on_c, 0, 64, 0
1, 8553, Note_on_c, 0, 55, 0
1, 8554, Note_on_c, 0, 61, 0
1, 8622, Control_c, 0, 64, 127
1, 8626, Control_c, 0, 64, 0
1, 8646, Note_on_c, 0, 57, 27
1, 8646, Note_on_c, 0, 60, 34
1, 8647, Note_on_c, 0, 64, 18
1, 8647, Note_on_c, 0, 53, 20
1, 8662, Note_on_c, 0, 60, 0
1, 8664, Note_on_c, 0, 64, 0
1, 8668, Note_on_c, 0, 57, 0
1, 8668, Note_on_c, 0, 53, 0
1, 8726, Note_on_c, 0, 89, 80
1, 8727, Note_on_c, 0, 77, 68
1, 8727, Note_on_c, 0, 84, 73
1, 8753, Note_on_c, 0, 77, 0
1, 8756, Note_on_c, 0, 84, 0
1, 8757, Note_on_c, 0, 89, 0
1, 8766, Note_on_c, 0, 57, 32
1, 8768, Note_on_c, 0, 60, 29
1, 8768, Note_on_c, 0, 64, 16
1, 8769, Note_on_c, 0, 53, 18
1, 8771, Note_on_c, 0, 89, 41
1, 8773, Note_on_c, 0, 84, 53
1, 8773, Note_on_c, 0, 77, 36
1, 8783, Note_on_c, 0, 60, 0
1, 8784, Note_on_c, 0, 77, 0
1, 8785, Note_on_c, 0, 57, 0
1, 8787, Note_on_c, 0, 53, 0
1, 8787, Note_on_c, 0, 84, 0
1, 8788, Note_on_c, 0, 64, 0
1, 8790, Note_on_c, 0, 89, 0
1, 8846, Note_on_c, 0, 81, 68
1, 8846, Note_on_c, 0, 93, 74
1, 8847, Note_on_c, 0, 88, 63
1, 8848, Note_on_c, 0, 85, 68
1, 8852, Note_on_c, 0, 91, 35
1, 8856, Control_c, 0, 64, 127
1, 8858, Note_on_c, 0, 91, 0
1, 8868, Note_on_c, 0, 85, 0
1, 8870, Note_on_c, 0, 81, 0
1, 8871, Note_on_c, 0, 93, 0
1, 8875, Note_on_c, 0, 88, 0
1, 8883, Control_c, 0, 64, 0
1, 8890, Note_on_c, 0, 59, 32
1, 8890, Note_on_c, 0, 81, 47
1, 8890, Note_on_c, 0, 64, 34
1, 8891, Note_on_c, 0, 93, 49
1, 8891, Note_on_c, 0, 53, 36
1, 8892, Note_on_c, 0, 88, 45
1, 8892, Note_on_c, 0, 85, 44
1, 8916, Control_c, 0, 64, 127
1, 8936, Note_on_c, 0, 93, 0
1, 8938, Note_on_c, 0, 81, 0
1, 8940, Note_on_c, 0, 85, 0
1, 8950, Note_on_c, 0, 88, 0
1, 8961, Note_on_c, 0, 64, 0
1, 8966, Note_on_c, 0, 53, 0
1, 8966, Note_on_c, 0, 91, 43
1, 8969, Note_on_c, 0, 86, 44
1, 8970, Note_on_c, 0, 79, 24
1, 8975, Note_on_c, 0, 59, 0
1, 8982, Note_on_c, 0, 91, 0
1, 8984, Note_on_c, 0, 86, 0
1, 8991, Note_on_c, 0, 79, 0
1, 9006, Note_on_c, 0, 59, 33
1, 9007, Note_on_c, 0, 53, 40
1, 9007, Control_c, 0, 64, 0
1, 9007, Note_on_c, 0, 62, 31
1, 9031, Control_c, 0, 64, 127
1, 9062, Note_on_c, 0, 53, 0
1, 9079, Note_on_c, 0, 59, 0
1, 9083, Note_on_c, 0, 62, 0
1, 9083, Note_on_c, 0, 53, 46
1, 9095, Note_on_c, 0, 53, 0
1, 9120, Note_on_c, 0, 76, 36
1, 9126, Control_c, 0, 64, 0
1, 9130, Note_on_c, 0, 57, 35
1, 9130, Note_on_c, 0, 64, 28
1, 9130, Note_on_c, 0, 60, 31
1, 9130, Note_on_c, 0, 67, 35
1, 9132, Note_on_c, 0, 69, 43
1, 9132, Note_on_c, 0, 52, 28
1, 9132, Note_on_c, 0, 55, 36
1, 9155, Control_c, 0, 64, 127
1, 9181, Note_on_c, 0, 76, 0
1, 9185, Note_on_c, 0, 64, 0
1, 9187, Note_on_c, 0, 69, 0
1, 9188, Note_on_c, 0, 67, 0
1, 9196, Note_on_c, 0, 60, 0
1, 9196, Note_on_c, 0, 55, 0
1, 9198, Note_on_c, 0, 57, 0
1, 9251, Note_on_c, 0, 74, 79
1, 9252, Control_c, 0, 64, 0
1, 9253, Note_on_c, 0, 58, 63
1, 9253, Note_on_c, 0, 69, 78
1, 9253, Note_on_c, 0, 64, 69
1, 9272, Control_c, 0, 64, 127
1, 9295, Note_on_c, 0, 74, 0
1, 9298, Note_on_c, 0, 69, 0
1, 9302, Note_on_c, 0, 64, 0
1, 9305, Note_on_c, 0, 58, 0
1, 9325, Control_c, 0, 64, 0
1, 9325, Note_on_c, 0, 72, 43
1, 9327, Note_on_c, 0, 62, 44
1, 9328, Note_on_c, 0, 67, 48
1, 9330, Note_on_c, 0, 57, 45
1, 9344, Control_c, 0, 64, 127
1, 9346, Note_on_c, 0, 72, 0
1, 9351, Note_on_c, 0, 67, 0
1, 9356, Note_on_c, 0, 62, 0
1, 9358, Note_on_c, 0, 52, 0
1, 9358, Note_on_c, 0, 57, 0
1, 9403, Note_on_c, 0, 67, 46
1, 9403, Note_on_c, 0, 62, 53
1, 9403, Note_on_c, 0, 57, 50
1, 9404, Control_c, 0, 64, 0
1, 9407, Note_on_c, 0, 52, 38
1, 9423, Control_c, 0, 64, 127
1, 9436, Note_on_c, 0, 62, 0
1, 9438, Note_on_c, 0, 67, 0
1, 9447, Note_on_c, 0, 57, 0
1, 9478, Control_c, 0, 64, 0
1, 9480, Note_on_c, 0, 59, 45
1, 9481, Note_on_c, 0, 64, 44
1, 9482, Note_on_c, 0, 55, 34
1, 9482, Note_on_c, 0, 48, 40
1, 9484, Note_on_c, 0, 52, 0
1, 9484, Note_on_c, 0, 60, 31
1, 9495, Control_c, 0, 64, 127
1, 9510, Note_on_c, 0, 55, 0
1, 9517, Note_on_c, 0, 60, 0
1, 9519, Note_on_c, 0, 59, 0
1, 9523, Note_on_c, 0, 64, 0
1, 9532, Note_on_c, 0, 48, 0
1, 9604, Control_c, 0, 64, 0
1, 9605, Note_on_c, 0, 74, 25
1, 9606, Note_on_c, 0, 62, 30
1, 9608, Note_on_c, 0, 69, 34
1, 9608, Note_on_c, 0, 57, 31
1, 9609, Note_on_c, 0, 47, 31
1, 9617, Note_on_c, 0, 69, 0
1, 9617, Note_on_c, 0, 62, 0
1, 9621, Note_on_c, 0, 47, 0
1, 9621, Note_on_c, 0, 57, 0
1, 9622, Note_on_c, 0, 74, 0
1, 9727, Note_on_c, 0, 57, 31
1, 9730, Note_on_c, 0, 65, 27
1, 9732, Note_on_c, 0, 62, 24
1, 9740, Note_on_c, 0, 62, 0
1, 9741, Note_on_c, 0, 65, 0
1, 9741, Note_on_c, 0, 57, 0
1, 9814, Note_on_c, 0, 86, 71
1, 9815, Note_on_c, 0, 74, 65
1, 9815, Note_on_c, 0, 81, 70
1, 9822, Control_c, 0, 64, 127
1, 9831, Note_on_c, 0, 74, 0
1, 9836, Note_on_c, 0, 86, 0
1, 9837, Note_on_c, 0, 81, 0
1, 9849, Note_on_c, 0, 67, 35
1, 9851, Note_on_c, 0, 56, 27
1, 9851, Note_on_c, 0, 62, 33
1, 9853, Control_c, 0, 64, 0
1, 9882, Note_on_c, 0, 77, 64
1, 9882, Note_on_c, 0, 89, 66
1, 9884, Note_on_c, 0, 86, 45
1, 9885, Note_on_c, 0, 82, 50
1, 9893, Note_on_c, 0, 82, 0
1, 9894, Note_on_c, 0, 77, 0
1, 9897, Note_on_c, 0, 86, 0
1, 9898, Note_on_c, 0, 89, 0
1, 9899, Note_on_c, 0, 67, 0
1, 9912, Note_on_c, 0, 56, 0
1, 9919, Note_on_c, 0, 89, 61
1, 9920, Note_on_c, 0, 77, 60
1, 9922, Note_on_c, 0, 62, 0
1, 9922, Note_on_c, 0, 86, 49
1, 9922, Note_on_c, 0, 82, 49
1, 9934, Note_on_c, 0, 77, 0
1, 9936, Note_on_c, 0, 89, 0
1, 9936, Control_c, 0, 64, 127
1, 9937, Note_on_c, 0, 82, 0
1, 9938, Note_on_c, 0, 86, 0
1, 9957, Control_c, 0, 64, 0
1, 9958, Note_on_c, 0, 88, 53
1, 9959, Note_on_c, 0, 82, 50
1, 9959, Note_on_c, 0, 76, 46
1, 9962, Note_on_c, 0, 65, 35
1, 9962, Note_on_c, 0, 62, 29
1, 9966, Note_on_c, 0, 56, 28
1, 9970, Note_on_c, 0, 76, 0
1, 9973, Note_on_c, 0, 88, 0
1, 9973, Note_on_c, 0, 82, 0
1, 9992, Note_on_c, 0, 82, 44
1, 9993, Note_on_c, 0, 88, 49
1, 9993, Note_on_c, 0, 76, 49
1, 10004, Note_on_c, 0, 76, 0
1, 10004, Note_on_c, 0, 88, 0
1, 10007, Note_on_c, 0, 62, 0
1, 10010, Note_on_c, 0, 65, 0
1, 10011, Note_on_c, 0, 82, 0
1, 10021, Note_on_c, 0, 86, 52
1, 10024, Note_on_c, 0, 74, 29
1, 10025, Note_on_c, 0, 81, 46
1, 10028, Note_on_c, 0, 56, 0
1, 10031, Note_on_c, 0, 81, 0
1, 10033, Control_c, 0, 64, 127
1, 10035, Note_on_c, 0, 74, 0
1, 10037, Note_on_c, 0, 86, 0
1, 10053, Note_on_c, 0, 86, 55
1, 10054, Note_on_c, 0, 74, 43
1, 10055, Note_on_c, 0, 81, 52
1, 10070, Note_on_c, 0, 74, 0
1, 10070, Note_on_c, 0, 86, 0
1, 10071, Note_on_c, 0, 81, 0
1, 10075, Note_on_c, 0, 57, 31
1, 10077, Control_c, 0, 64, 0
1, 10078, Note_on_c, 0, 59, 24
1, 10078, Note_on_c, 0, 64, 17
1, 10080, Note_on_c, 0, 60, 25
1, 10098, Note_on_c, 0, 86, 48
1, 10099, Note_on_c, 0, 81, 52
1, 10099, Note_on_c, 0, 74, 46
1, 10108, Note_on_c, 0, 74, 0
1, 10109, Note_on_c, 0, 86, 0
1, 10112, Note_on_c, 0, 81, 0
1, 10125, Note_on_c, 0, 59, 0
1, 10132, Note_on_c, 0, 85, 35
1, 10132, Note_on_c, 0, 80, 29
1, 10137, Note_on_c, 0, 85, 0
1, 10138, Note_on_c, 0, 64, 0
1, 10138, Note_on_c, 0, 80, 0
1, 10141, Control_c, 0, 64, 127
1, 10156, Note_on_c, 0, 60, 0
1, 10161, Note_on_c, 0, 84, 62
1, 10161, Note_on_c, 0, 79, 49
1, 10163, Note_on_c, 0, 72, 30
1, 10166, Note_on_c, 0, 57, 0
1, 10192, Control_c, 0, 64, 0
1, 10198, Note_on_c, 0, 64, 36
1, 10198, Note_on_c, 0, 55, 33
1, 10199, Note_on_c, 0, 60, 40
1, 10216, Control_c, 0, 64, 127
1, 10266, Note_on_c, 0, 60, 0
1, 10272, Note_on_c, 0, 55, 0
1, 10287, Note_on_c, 0, 64, 0
1, 10320, Note_on_c, 0, 65, 55
1, 10320, Note_on_c, 0, 60, 48
1, 10321, Note_on_c, 0, 61, 44
1, 10321, Control_c, 0, 64, 0
1, 10323, Note_on_c, 0, 56, 27
1, 10344, Control_c, 0, 64, 127
1, 10380, Note_on_c, 0, 60, 0
1, 10388, Note_on_c, 0, 65, 0
1, 10397, Note_on_c, 0, 56, 0
1, 10399, Note_on_c, 0, 72, 0
1, 10402, Note_on_c, 0, 61, 0
1, 10437, Control_c, 0, 64, 0
1, 10440, Note_on_c, 0, 55, 49
1, 10442, Note_on_c, 0, 61, 35
1, 10443, Note_on_c, 0, 79, 0
1, 10444, Note_on_c, 0, 64, 31
1, 10445, Note_on_c, 0, 84, 0
1, 10454, Control_c, 0, 64, 127
1, 10490, Note_on_c, 0, 55, 0
1, 10525, Note_on_c, 0, 55, 44
1, 10539, Note_on_c, 0, 64, 0
1, 10540, Note_on_c, 0, 55, 0
1, 10546, Note_on_c, 0, 61, 0
1, 10560, Control_c, 0, 64, 0
1, 10561, Note_on_c, 0, 55, 44
1, 10562, Note_on_c, 0, 93, 73
1, 10562, Note_on_c, 0, 81, 66
1, 10563, Note_on_c, 0, 57, 54
1, 10563, Note_on_c, 0, 64, 39
1, 10564, Note_on_c, 0, 60, 50
1, 10566, Note_on_c, 0, 89, 30
1, 10571, Note_on_c, 0, 89, 0
1, 10587, Control_c, 0, 64, 127
1, 10599, Note_on_c, 0, 81, 0
1, 10600, Note_on_c, 0, 93, 0
1, 10600, Note_on_c, 0, 60, 0
1, 10602, Note_on_c, 0, 55, 0
1, 10605, Note_on_c, 0, 64, 0
1, 10607, Note_on_c, 0, 57, 0
1, 10639, Note_on_c, 0, 93, 78
1, 10639, Note_on_c, 0, 55, 68
1, 10640, Note_on_c, 0, 64, 63
1, 10640, Note_on_c, 0, 57, 57
1, 10640, Note_on_c, 0, 88, 58
1, 10641, Note_on_c, 0, 60, 64
1, 10642, Note_on_c, 0, 81, 50
1, 10642, Note_on_c, 0, 84, 59
1, 10643, Note_on_c, 0, 86, 35
1, 10648, Note_on_c, 0, 86, 0
1, 10665, Note_on_c, 0, 84, 0
1, 10666, Note_on_c, 0, 81, 0
1, 10667, Note_on_c, 0, 93, 0
1, 10667, Note_on_c, 0, 55, 0
1, 10668, Note_on_c, 0, 64, 0
1, 10670, Note_on_c, 0, 57, 0
1, 10670, Note_on_c, 0, 60, 0
1, 10671, Note_on_c, 0, 88, 0
1, 10682, Note_on_c, 0, 55, 63
1, 10683, Note_on_c, 0, 60, 58
1, 10684, Note_on_c, 0, 64, 62
1, 10684, Note_on_c, 0, 93, 72
1, 10685, Note_on_c, 0, 88, 54
1, 10685, Note_on_c, 0, 81, 56
1, 10685, Note_on_c, 0, 84, 68
1, 10686, Note_on_c, 0, 57, 53
1, 10717, Note_on_c, 0, 84, 0
1, 10717, Note_on_c, 0, 93, 0
1, 10718, Note_on_c, 0, 60, 0
1, 10718, Note_on_c, 0, 81, 0
1, 10719, Note_on_c, 0, 57, 0
1, 10720, Note_on_c, 0, 55, 0
1, 10720, Note_on_c, 0, 64, 0
1, 10720, Note_on_c, 0, 88, 0
1, 10758, Note_on_c, 0, 55, 68
1, 10760, Note_on_c, 0, 88, 70
1, 10761, Note_on_c, 0, 93, 77
1, 10761, Note_on_c, 0, 57, 55
1, 10762, Note_on_c, 0, 64, 53
1, 10762, Note_on_c, 0, 60, 52
1, 10762, Note_on_c, 0, 81, 54
1, 10764, Note_on_c, 0, 84, 41
1, 10767, Note_on_c, 0, 86, 26
1, 10771, Note_on_c, 0, 86, 0
1, 10771, Note_on_c, 0, 64, 0
1, 10775, Note_on_c, 0, 84, 0
1, 10779, Note_on_c, 0, 57, 0
1, 10779, Note_on_c, 0, 55, 0
1, 10780, Note_on_c, 0, 81, 0
1, 10781, Note_on_c, 0, 93, 0
1, 10783, Note_on_c, 0, 88, 0
1, 10786, Note_on_c, 0, 60, 0
1, 10804, Control_c, 0, 64, 0
1, 10805, Note_on_c, 0, 60, 84
1, 10806, Note_on_c, 0, 54, 87
1, 10806, Note_on_c, 0, 93, 88
1, 10806, Note_on_c, 0, 64, 85
1, 10807, Note_on_c, 0, 81, 75
1, 10807, Note_on_c, 0, 88, 75
1, 10807, Note_on_c, 0, 84, 78
1, 10824, Control_c, 0, 64, 127
1, 10855, Note_on_c, 0, 81, 0
1, 10858, Note_on_c, 0, 93, 0
1, 10859, Note_on_c, 0, 84, 0
1, 10861, Note_on_c, 0, 64, 0
1, 10862, Note_on_c, 0, 54, 0
1, 10864, Note_on_c, 0, 60, 0
1, 10866, Note_on_c, 0, 88, 0
1, 10879, Note_on_c, 0, 91, 73
1, 10880, Note_on_c, 0, 54, 74
1, 10881, Note_on_c, 0, 60, 62
1, 10881, Note_on_c, 0, 64, 68
1, 10882, Note_on_c, 0, 84, 66
1, 10882, Note_on_c, 0, 79, 57
1, 10883, Note_on_c, 0, 88, 48
1, 10887, Note_on_c, 0, 89, 46
1, 10898, Note_on_c, 0, 79, 0
1, 10903, Note_on_c, 0, 91, 0
1, 10908, Note_on_c, 0, 89, 0
1, 10908, Note_on_c, 0, 84, 0
1, 10908, Note_on_c, 0, 64, 0
1, 10908, Note_on_c, 0, 54, 0
1, 10910, Note_on_c, 0, 88, 0
1, 10915, Note_on_c, 0, 60, 0
1, 10925, Note_on_c, 0, 90, 64
1, 10927, Note_on_c, 0, 54, 63
1, 10927, Note_on_c, 0, 84, 62
1, 10927, Note_on_c, 0, 64, 62
1, 10928, Note_on_c, 0, 78, 50
1, 10928, Note_on_c, 0, 60, 62
1, 10947, Note_on_c, 0, 64, 0
1, 10951, Note_on_c, 0, 60, 0
1, 10957, Note_on_c, 0, 54, 0
1, 10960, Note_on_c, 0, 84, 0
1, 10965, Note_on_c, 0, 78, 0
1, 10967, Note_on_c, 0, 90, 0
1, 11044, Control_c, 0, 64, 0
1, 11045, Note_on_c, 0, 32, 71
1, 11046, Note_on_c, 0, 44, 81
1, 11046, Note_on_c, 0, 91, 89
1, 11047, Note_on_c, 0, 84, 95
1, 11047, Note_on_c, 0, 79, 85
1, 11058, Note_on_c, 0, 32, 0
1, 11062, Control_c, 0, 64, 127
1, 11064, Note_on_c, 0, 44, 0
1, 11071, Note_on_c, 0, 91, 0
1, 11076, Note_on_c, 0, 84, 0
1, 11080, Note_on_c, 0, 79, 0
1, 11097, Note_on_c, 0, 54, 58
1, 11128, Note_on_c, 0, 60, 71
1, 11164, Note_on_c, 0, 65, 64
1, 11164, Note_on_c, 0, 68, 77
1, 11191, Note_on_c, 0, 68, 0
1, 11196, Note_on_c, 0, 68, 33
1, 11197, Note_on_c, 0, 70, 73
1, 11204, Note_on_c, 0, 68, 0
1, 11217, Note_on_c, 0, 70, 0
1, 11218, Note_on_c, 0, 65, 0
1, 11226, Note_on_c, 0, 60, 0
1, 11226, Note_on_c, 0, 72, 52
1, 11234, Note_on_c, 0, 54, 0
1, 11237, Note_on_c, 0, 72, 0
1, 11253, Note_on_c, 0, 75, 61
1, 11268, Note_on_c, 0, 75, 0
1, 11287, Control_c, 0, 64, 0
1, 11308, Control_c, 0, 64, 127
1, 11323, Note_on_c, 0, 71, 66
1, 11325, Control_c, 0, 64, 0
1, 11325, Note_on_c, 0, 81, 37
1, 11326, Note_on_c, 0, 63, 62
1, 11326, Note_on_c, 0, 79, 32
1, 11344, Note_on_c, 0, 81, 0
1, 11344, Control_c, 0, 64, 127
1, 11346, Note_on_c, 0, 79, 0
1, 11354, Note_on_c, 0, 71, 0
1, 11360, Note_on_c, 0, 63, 0
1, 11366, Note_on_c, 0, 79, 27
1, 11368, Note_on_c, 0, 59, 49
1, 11373, Note_on_c, 0, 79, 0
1, 11404, Note_on_c, 0, 75, 57
1, 11406, Note_on_c, 0, 67, 51
1, 11407, Note_on_c, 0, 71, 44
1, 11409, Note_on_c, 0, 55, 47
1, 11410, Note_on_c, 0, 59, 0
1, 11412, Note_on_c, 0, 71, 0
1, 11415, Note_on_c, 0, 75, 0
1, 11418, Note_on_c, 0, 67, 0
1, 11422, Note_on_c, 0, 55, 0
1, 11445, Note_on_c, 0, 63, 48
1, 11446, Note_on_c, 0, 67, 48
1, 11449, Note_on_c, 0, 71, 34
1, 11468, Note_on_c, 0, 71, 0
1, 11469, Note_on_c, 0, 67, 0
1, 11475, Note_on_c, 0, 63, 0
1, 11485, Note_on_c, 0, 49, 33
1, 11500, Note_on_c, 0, 49, 0
1, 11524, Note_on_c, 0, 67, 39
1, 11525, Note_on_c, 0, 59, 32
1, 11526, Note_on_c, 0, 64, 36
1, 11526, Note_on_c, 0, 55, 26
1, 11528, Note_on_c, 0, 48, 35
1, 11529, Note_on_c, 0, 62, 27
1, 11530, Control_c, 0, 64, 0
1, 11579, Control_c, 0, 64, 127
1, 11603, Note_on_c, 0, 55, 0
1, 11604, Note_on_c, 0, 59, 0
1, 11615, Note_on_c, 0, 64, 0
1, 11615, Note_on_c, 0, 62, 0
1, 11633, Note_on_c, 0, 67, 0
1, 11653, Note_on_c, 0, 59, 45
1, 11654, Note_on_c, 0, 67, 29
1, 11656, Note_on_c, 0, 64, 41
1, 11656, Note_on_c, 0, 62, 32
1, 11694, Note_on_c, 0, 48, 0
1, 11770, Note_on_c, 0, 62, 0
1, 11772, Note_on_c, 0, 33, 24
1, 11773, Note_on_c, 0, 64, 0
1, 11774, Note_on_c, 0, 59, 0
1, 11775, Control_c, 0, 64, 0
1, 11781, Note_on_c, 0, 67, 0
1, 11785, Control_c, 0, 64, 127
1, 11854, Note_on_c, 0, 58, 37
1, 11854, Note_on_c, 0, 64, 35
1, 11854, Note_on_c, 0, 61, 34
1, 11855, Note_on_c, 0, 45, 31
1, 11855, Note_on_c, 0, 55, 34
1, 11871, Control_c, 0, 64, 0
1, 11895, Control_c, 0, 64, 127
1, 11910, Note_on_c, 0, 33, 0
1, 11929, Note_on_c, 0, 45, 0
1, 11972, Note_on_c, 0, 45, 57
1, 11980, Note_on_c, 0, 55, 0
1, 11983, Note_on_c, 0, 64, 0
1, 11986, Note_on_c, 0, 58, 0
1, 11987, Note_on_c, 0, 61, 0
1, 12002, Control_c, 0, 64, 0
1, 12008, Note_on_c, 0, 45, 0
1, 12013, Note_on_c, 0, 38, 57
1, 12019, Control_c, 0, 64, 127
1, 12022, Note_on_c, 0, 38, 0
1, 12090, Note_on_c, 0, 60, 34
1, 12091, Note_on_c, 0, 53, 26
1, 12092, Note_on_c, 0, 64, 28
1, 12093, Note_on_c, 0, 57, 35
1, 12114, Note_on_c, 0, 64, 0
1, 12115, Note_on_c, 0, 60, 0
1, 12119, Note_on_c, 0, 57, 0
1, 12127, Note_on_c, 0, 53, 0
1, 12139, Note_on_c, 0, 79, 79
1, 12140, Note_on_c, 0, 67, 69
1, 12141, Note_on_c, 0, 76, 67
1, 12141, Note_on_c, 0, 72, 67
1, 12165, Note_on_c, 0, 76, 0
1, 12167, Note_on_c, 0, 67, 0
1, 12168, Note_on_c, 0, 79, 0
1, 12168, Note_on_c, 0, 72, 0
1, 12211, Note_on_c, 0, 31, 58
1, 12216, Note_on_c, 0, 31, 0
1, 12257, Note_on_c, 0, 77, 73
1, 12259, Note_on_c, 0, 68, 78
1, 12260, Note_on_c, 0, 74, 69
1, 12260, Note_on_c, 0, 71, 79
1, 12264, Control_c, 0, 64, 0
1, 12281, Control_c, 0, 64, 127
1, 12304, Note_on_c, 0, 74, 0
1, 12304, Note_on_c, 0, 77, 0
1, 12320, Note_on_c, 0, 71, 0
1, 12324, Note_on_c, 0, 68, 0
1, 12415, Note_on_c, 0, 76, 66
1, 12439, Note_on_c, 0, 76, 0
1, 12447, Note_on_c, 0, 74, 42
1, 12468, Note_on_c, 0, 74, 0
1, 12473, Note_on_c, 0, 72, 40
1, 12485, Note_on_c, 0, 72, 0
1, 12498, Note_on_c, 0, 76, 60
1, 12501, Control_c, 0, 64, 0
1, 12518, Control_c, 0, 64, 127
1, 12527, Control_c, 0, 64, 0
1, 12544, Control_c, 0, 64, 127
1, 12575, Note_on_c, 0, 76, 0
1, 12619, Note_on_c, 0, 66, 25
1, 12624, Note_on_c, 0, 66, 0
1, 12647, Note_on_c, 0, 67, 37
1, 12650, Note_on_c, 0, 64, 35
1, 12650, Note_on_c, 0, 46, 30
1, 12650, Note_on_c, 0, 56, 23
1, 12651, Control_c, 0, 64, 0
1, 12651, Note_on_c, 0, 60, 26
1, 12664, Control_c, 0, 64, 127
1, 12671, Note_on_c, 0, 64, 0
1, 12674, Note_on_c, 0, 60, 0
1, 12677, Note_on_c, 0, 67, 0
1, 12683, Note_on_c, 0, 56, 0
1, 12690, Note_on_c, 0, 46, 0
1, 12720, Note_on_c, 0, 70, 45
1, 12721, Control_c, 0, 64, 0
1, 12722, Note_on_c, 0, 66, 36
1, 12723, Note_on_c, 0, 61, 23
1, 12724, Note_on_c, 0, 45, 31
1, 12724, Note_on_c, 0, 55, 31
1, 12743, Control_c, 0, 64, 127
1, 12771, Note_on_c, 0, 70, 0
1, 12776, Note_on_c, 0, 72, 61
1, 12799, Note_on_c, 0, 72, 0
1, 12804, Note_on_c, 0, 66, 0
1, 12808, Note_on_c, 0, 61, 0
1, 12836, Note_on_c, 0, 69, 54
1, 12841, Note_on_c, 0, 60, 25
1, 12853, Note_on_c, 0, 69, 0
1, 12856, Note_on_c, 0, 55, 0
1, 12862, Note_on_c, 0, 60, 0
1, 12865, Note_on_c, 0, 45, 0
1, 12891, Note_on_c, 0, 57, 50
1, 12911, Note_on_c, 0, 57, 0
1, 12952, Note_on_c, 0, 64, 43
1, 12952, Note_on_c, 0, 54, 37
1, 12954, Note_on_c, 0, 56, 45
1, 12954, Note_on_c, 0, 60, 53
1, 12961, Control_c, 0, 64, 0
1, 13017, Note_on_c, 0, 52, 79
1, 13039, Control_c, 0, 64, 127
1, 13051, Note_on_c, 0, 60, 0
1, 13061, Note_on_c, 0, 56, 0
1, 13061, Note_on_c, 0, 54, 0
1, 13070, Control_c, 0, 64, 0
1, 13074, Note_on_c, 0, 64, 0
1, 13077, Note_on_c, 0, 54, 32
1, 13077, Note_on_c, 0, 56, 37
1, 13077, Note_on_c, 0, 60, 50
1, 13089, Control_c, 0, 64, 127
1, 13106, Note_on_c, 0, 60, 0
1, 13107, Note_on_c, 0, 56, 0
1, 13112, Note_on_c, 0, 54, 0
1, 13134, Note_on_c, 0, 52, 0
1, 13135, Note_on_c, 0, 65, 72
1, 13135, Control_c, 0, 64, 0
1, 13136, Note_on_c, 0, 50, 53
1, 13142, Control_c, 0, 64, 127
1, 13154, Note_on_c, 0, 65, 0
1, 13195, Note_on_c, 0, 64, 48
1, 13196, Control_c, 0, 64, 0
1, 13196, Note_on_c, 0, 53, 29
1, 13196, Note_on_c, 0, 59, 46
1, 13197, Note_on_c, 0, 56, 35
1, 13197, Note_on_c, 0, 43, 36
1, 13200, Note_on_c, 0, 50, 0
1, 13231, Control_c, 0, 64, 127
1, 13251, Note_on_c, 0, 64, 0
1, 13252, Note_on_c, 0, 59, 0
1, 13257, Note_on_c, 0, 62, 52
1, 13276, Note_on_c, 0, 53, 0
1, 13280, Note_on_c, 0, 56, 0
1, 13305, Note_on_c, 0, 62, 0
1, 13318, Note_on_c, 0, 60, 64
1, 13362, Note_on_c, 0, 43, 0
1, 13384, Note_on_c, 0, 59, 47
1, 13385, Note_on_c, 0, 60, 0
1, 13396, Note_on_c, 0, 59, 0
1, 13441, Note_on_c, 0, 40, 40
1, 13442, Control_c, 0, 64, 0
1, 13443, Note_on_c, 0, 60, 50
1, 13448, Note_on_c, 0, 55, 30
1, 13464, Control_c, 0, 64, 127
1, 13465, Note_on_c, 0, 60, 0
1, 13485, Note_on_c, 0, 55, 0
1, 13494, Note_on_c, 0, 47, 36
1, 13511, Note_on_c, 0, 40, 0
1, 13516, Note_on_c, 0, 47, 0
1, 13523, Note_on_c, 0, 55, 60
1, 13531, Note_on_c, 0, 55, 0
1, 13550, Note_on_c, 0, 59, 68
1, 13579, Note_on_c, 0, 67, 70
1, 13580, Note_on_c, 0, 62, 65
1, 13606, Note_on_c, 0, 67, 0
1, 13607, Note_on_c, 0, 72, 67
1, 13615, Note_on_c, 0, 72, 0
1, 13625, Note_on_c, 0, 59, 0
1, 13632, Note_on_c, 0, 79, 77
1, 13647, Note_on_c, 0, 62, 0
1, 13653, Note_on_c, 0, 79, 0
1, 13656, Note_on_c, 0, 84, 84
1, 13680, Note_on_c, 0, 65, 44
1, 13681, Note_on_c, 0, 60, 30
1, 13682, Control_c, 0, 64, 0
1, 13684, Note_on_c, 0, 61, 42
1, 13684, Note_on_c, 0, 77, 61
1, 13685, Note_on_c, 0, 55, 44
1, 13687, Note_on_c, 0, 81, 50
1, 13687, Note_on_c, 0, 58, 25
1, 13698, Note_on_c, 0, 84, 0
1, 13709, Control_c, 0, 64, 127
1, 13761, Note_on_c, 0, 77, 0
1, 13766, Note_on_c, 0, 65, 0
1, 13769, Note_on_c, 0, 60, 0
1, 13771, Note_on_c, 0, 81, 0
1, 13792, Note_on_c, 0, 61, 0
1, 13808, Note_on_c, 0, 73, 36
1, 13811, Note_on_c, 0, 77, 42
1, 13814, Note_on_c, 0, 58, 0
1, 13814, Note_on_c, 0, 65, 33
1, 13831, Note_on_c, 0, 77, 0
1, 13840, Note_on_c, 0, 73, 0
1, 13849, Note_on_c, 0, 55, 0
1, 13851, Note_on_c, 0, 65, 0
1, 13923, Note_on_c, 0, 72, 40
1, 13924, Note_on_c, 0, 68, 37
1, 13926, Note_on_c, 0, 66, 33
1, 13930, Note_on_c, 0, 60, 24
1, 13931, Control_c, 0, 64, 0
1, 13933, Note_on_c, 0, 54, 18
1, 13958, Control_c, 0, 64, 127
1, 13997, Note_on_c, 0, 60, 0
1, 14003, Note_on_c, 0, 66, 0
1, 14003, Note_on_c, 0, 68, 0
1, 14005, Note_on_c, 0, 72, 0
1, 14040, Note_on_c, 0, 54, 0
1, 14045, Note_on_c, 0, 54, 19
1, 14049, Note_on_c, 0, 44, 34
1, 14050, Note_on_c, 0, 76, 51
1, 14051, Note_on_c, 0, 64, 52
1, 14052, Control_c, 0, 64, 0
1, 14053, Note_on_c, 0, 72, 36
1, 14071, Note_on_c, 0, 72, 0
1, 14073, Note_on_c, 0, 76, 0
1, 14073, Note_on_c, 0, 64, 0
1, 14088, Control_c, 0, 64, 127
1, 14150, Note_on_c, 0, 54, 0
1, 14156, Note_on_c, 0, 44, 0
1, 14171, Note_on_c, 0, 74, 28
1, 14173, Note_on_c, 0, 43, 34
1, 14173, Note_on_c, 0, 68, 31
1, 14174, Note_on_c, 0, 62, 18
1, 14175, Note_on_c, 0, 71, 24
1, 14178, Control_c, 0, 64, 0
1, 14192, Note_on_c, 0, 71, 0
1, 14196, Note_on_c, 0, 74, 0
1, 14199, Note_on_c, 0, 62, 0
1, 14200, Note_on_c, 0, 68, 0
1, 14200, Note_on_c, 0, 43, 0
1, 14253, Note_on_c, 0, 72, 22
1, 14254, Note_on_c, 0, 60, 37
1, 14256, Note_on_c, 0, 67, 30
1, 14262, Control_c, 0, 64, 127
1, 14267, Note_on_c, 0, 72, 0
1, 14274, Note_on_c, 0, 67, 0
1, 14278, Note_on_c, 0, 60, 0
1, 14293, Control_c, 0, 64, 0
1, 14294, Note_on_c, 0, 43, 26
1, 14298, Note_on_c, 0, 53, 17
1, 14300, Note_on_c, 0, 59, 31
1, 14323, Note_on_c, 0, 59, 0
1, 14335, Note_on_c, 0, 53, 0
1, 14372, Note_on_c, 0, 72, 36
1, 14373, Note_on_c, 0, 62, 29
1, 14373, Note_on_c, 0, 67, 32
1, 14373, Note_on_c, 0, 64, 33
1, 14394, Control_c, 0, 64, 127
1, 14396, Control_c, 0, 64, 0
1, 14430, Control_c, 0, 64, 127
1, 14492, Note_on_c, 0, 55, 53
1, 14500, Note_on_c, 0, 43, 0
1, 14533, Note_on_c, 0, 43, 35
1, 14536, Note_on_c, 0, 72, 0
1, 14554, Note_on_c, 0, 67, 0
1, 14556, Note_on_c, 0, 64, 0
1, 14558, Note_on_c, 0, 62, 0
1, 14575, Note_on_c, 0, 43, 0
1, 14610, Note_on_c, 0, 43, 35
1, 14614, Note_on_c, 0, 55, 0
1, 14651, Note_on_c, 0, 64, 35
1, 14652, Note_on_c, 0, 61, 38
1, 14652, Note_on_c, 0, 58, 37
1, 14652, Note_on_c, 0, 55, 30
1, 14654, Control_c, 0, 64, 0
1, 14686, Control_c, 0, 64, 127
1, 14704, Note_on_c, 0, 55, 0
1, 14732, Note_on_c, 0, 55, 85
1, 14747, Note_on_c, 0, 43, 0
1, 14759, Note_on_c, 0, 58, 0
1, 14765, Control_c, 0, 64, 0
1, 14772, Note_on_c, 0, 43, 35
1, 14778, Note_on_c, 0, 61, 0
1, 14780, Control_c, 0, 64, 127
1, 14822, Note_on_c, 0, 43, 0
1, 14826, Note_on_c, 0, 64, 0
1, 14846, Note_on_c, 0, 43, 27
1, 14847, Note_on_c, 0, 55, 0
1, 14886, Control_c, 0, 64, 0
1, 14887, Note_on_c, 0, 54, 36
1, 14887, Note_on_c, 0, 60, 42
1, 14889, Note_on_c, 0, 56, 37
1, 14890, Note_on_c, 0, 62, 32
1, 14922, Control_c, 0, 64, 127
1, 14965, Note_on_c, 0, 55, 62
1, 14974, Note_on_c, 0, 43, 0
1, 14984, Control_c, 0, 64, 0
1, 15002, Note_on_c, 0, 43, 37
1, 15006, Control_c, 0, 64, 127
1, 15048, Note_on_c, 0, 43, 0
1, 15078, Note_on_c, 0, 55, 0
1, 15078, Note_on_c, 0, 54, 0
1, 15080, Note_on_c, 0, 62, 0
1, 15083, Note_on_c, 0, 60, 0
1, 15088, Note_on_c, 0, 43, 30
1, 15104, Note_on_c, 0, 56, 0
1, 15127, Note_on_c, 0, 61, 33
1, 15127, Control_c, 0, 64, 0
1, 15128, Note_on_c, 0, 53, 33
1, 15128, Note_on_c, 0, 56, 33
1, 15133, Note_on_c, 0, 59, 33
1, 15150, Control_c, 0, 64, 127
1, 15205, Note_on_c, 0, 53, 0
1, 15207, Note_on_c, 0, 59, 0
1, 15210, Note_on_c, 0, 56, 0
1, 15214, Note_on_c, 0, 61, 0
1, 15253, Note_on_c, 0, 53, 34
1, 15259, Note_on_c, 0, 53, 0
1, 15272, Note_on_c, 0, 43, 0
1, 15330, Note_on_c, 0, 35, 34
1, 15363, Note_on_c, 0, 35, 0
1, 15368, Control_c, 0, 64, 0
1, 15368, Note_on_c, 0, 36, 33
1, 15369, Note_on_c, 0, 67, 41
1, 15385, Note_on_c, 0, 67, 0
1, 15484, Note_on_c, 0, 36, 0
1, 15486, Note_on_c, 0, 63, 60
1, 15489, Note_on_c, 0, 67, 39
1, 15489, Note_on_c, 0, 34, 33
1, 15496, Note_on_c, 0, 63, 0
1, 15498, Note_on_c, 0, 62, 50
1, 15573, Note_on_c, 0, 60, 41
1, 15575, Note_on_c, 0, 62, 0
1, 15586, Note_on_c, 0, 60, 0
1, 15588, Note_on_c, 0, 57, 40
1, 15595, Note_on_c, 0, 67, 0
1, 15598, Note_on_c, 0, 57, 0
1, 15603, Note_on_c, 0, 34, 0
1, 15607, Note_on_c, 0, 33, 38
1, 15610, Note_on_c, 0, 67, 32
1, 15610, Note_on_c, 0, 60, 45
1, 15640, Note_on_c, 0, 60, 0
1, 15645, Note_on_c, 0, 67, 0
1, 15692, Note_on_c, 0, 33, 0
1, 15694, Note_on_c, 0, 34, 44
1, 15715, Note_on_c, 0, 34, 0
1, 15727, Note_on_c, 0, 39, 71
1, 15814, Note_on_c, 0, 37, 34
1, 15818, Note_on_c, 0, 39, 0
1, 15849, Note_on_c, 0, 37, 0
1, 15851, Note_on_c, 0, 38, 38
1, 15852, Note_on_c, 0, 57, 24
1, 15853, Note_on_c, 0, 60, 33
1, 15867, Note_on_c, 0, 57, 0
1, 15871, Note_on_c, 0, 60, 0
1, 15921, Note_on_c, 0, 38, 0
1, 15928, Note_on_c, 0, 42, 45
1, 15928, Note_on_c, 0, 67, 66
1, 15930, Note_on_c, 0, 57, 68
1, 15930, Note_on_c, 0, 64, 60
1, 15930, Note_on_c, 0, 60, 70
1, 15954, Note_on_c, 0, 44, 29
1, 15963, Note_on_c, 0, 42, 0
1, 15970, Note_on_c, 0, 44, 0
1, 15972, Note_on_c, 0, 45, 48
1, 16000, Note_on_c, 0, 57, 0
1, 16010, Note_on_c, 0, 60, 0
1, 16018, Note_on_c, 0, 64, 0
1, 16019, Note_on_c, 0, 67, 0
1, 16050, Note_on_c, 0, 42, 32
1, 16060, Note_on_c, 0, 45, 0
1, 16087, Note_on_c, 0, 42, 0
1, 16088, Note_on_c, 0, 43, 51
1, 16130, Note_on_c, 0, 81, 88
1, 16131, Note_on_c, 0, 77, 78
1, 16147, Note_on_c, 0, 77, 0
1, 16150, Note_on_c, 0, 81, 0
1, 16170, Note_on_c, 0, 81, 71
1, 16170, Note_on_c, 0, 79, 68
1, 16170, Note_on_c, 0, 76, 79
1, 16194, Note_on_c, 0, 76, 0
1, 16195, Note_on_c, 0, 81, 0
1, 16201, Note_on_c, 0, 79, 0
1, 16201, Note_on_c, 0, 43, 0
1, 16205, Note_on_c, 0, 41, 33
1, 16211, Note_on_c, 0, 67, 47
1, 16237, Note_on_c, 0, 67, 0
1, 16246, Note_on_c, 0, 65, 44
1, 16261, Note_on_c, 0, 65, 0
1, 16281, Note_on_c, 0, 63, 45
1, 16286, Note_on_c, 0, 63, 0
1, 16286, Note_on_c, 0, 41, 0
1, 16286, Note_on_c, 0, 39, 42
1, 16289, Note_on_c, 0, 72, 60
1, 16289, Note_on_c, 0, 64, 34
1, 16296, Note_on_c, 0, 70, 23
1, 16319, Note_on_c, 0, 39, 0
1, 16322, Note_on_c, 0, 60, 43
1, 16326, Note_on_c, 0, 40, 24
1, 16327, Note_on_c, 0, 64, 0
1, 16351, Note_on_c, 0, 60, 0
1, 16365, Note_on_c, 0, 60, 54
1, 16392, Note_on_c, 0, 40, 0
1, 16398, Note_on_c, 0, 42, 33
1, 16407, Control_c, 0, 64, 127
1, 16414, Note_on_c, 0, 42, 0
1, 16431, Control_c, 0, 64, 0
1, 16438, Note_on_c, 0, 47, 65
1, 16462, Note_on_c, 0, 72, 0
1, 16469, Note_on_c, 0, 70, 0
1, 16478, Note_on_c, 0, 47, 0
1, 16481, Note_on_c, 0, 46, 49
1, 16484, Note_on_c, 0, 60, 0
1, 16518, Note_on_c, 0, 61, 51
1, 16518, Note_on_c, 0, 58, 52
1, 16519, Note_on_c, 0, 69, 62
1, 16520, Note_on_c, 0, 46, 0
1, 16520, Note_on_c, 0, 64, 51
1, 16522, Note_on_c, 0, 45, 58
1, 16558, Control_c, 0, 64, 127
1, 16584, Control_c, 0, 64, 0
1, 16599, Note_on_c, 0, 40, 32
1, 16620, Note_on_c, 0, 40, 0
1, 16639, Note_on_c, 0, 33, 31
1, 16640, Control_c, 0, 64, 127
1, 16643, Note_on_c, 0, 45, 0
1, 16651, Note_on_c, 0, 64, 0
1, 16651, Note_on_c, 0, 69, 0
1, 16656, Note_on_c, 0, 61, 0
1, 16658, Note_on_c, 0, 33, 0
1, 16659, Note_on_c, 0, 58, 0
1, 16679, Note_on_c, 0, 46, 59
1, 16681, Control_c, 0, 64, 0
1, 16746, Note_on_c, 0, 46, 0
1, 16748, Control_c, 0, 64, 127
1, 16755, Note_on_c, 0, 39, 45
1, 16791, Control_c, 0, 64, 0
1, 16795, Note_on_c, 0, 39, 0
1, 16798, Note_on_c, 0, 60, 39
1, 16798, Note_on_c, 0, 53, 25
1, 16798, Note_on_c, 0, 65, 31
1, 16799, Note_on_c, 0, 38, 33
1, 16814, Note_on_c, 0, 53, 0
1, 16827, Note_on_c, 0, 60, 0
1, 16831, Note_on_c, 0, 65, 0
1, 16862, Note_on_c, 0, 67, 52
1, 16874, Note_on_c, 0, 68, 40
1, 16884, Note_on_c, 0, 68, 0
1, 16884, Note_on_c, 0, 67, 0
1, 16886, Note_on_c, 0, 69, 64
1, 16898, Note_on_c, 0, 69, 0
1, 16905, Note_on_c, 0, 72, 69
1, 16907, Note_on_c, 0, 60, 69
1, 16911, Control_c, 0, 64, 127
1, 16915, Control_c, 0, 64, 0
1, 16917, Note_on_c, 0, 60, 0
1, 16922, Note_on_c, 0, 72, 0
1, 16933, Note_on_c, 0, 45, 35
1, 16936, Note_on_c, 0, 74, 75
1, 16938, Note_on_c, 0, 62, 65
1, 16939, Note_on_c, 0, 38, 0
1, 16949, Note_on_c, 0, 62, 0
1, 16952, Note_on_c, 0, 74, 0
1, 16968, Note_on_c, 0, 60, 41
1, 16973, Note_on_c, 0, 60, 0
1, 16992, Note_on_c, 0, 45, 0
1, 16993, Note_on_c, 0, 69, 60
1, 16996, Note_on_c, 0, 44, 40
1, 17010, Note_on_c, 0, 69, 0
1, 17018, Note_on_c, 0, 72, 73
1, 17019, Note_on_c, 0, 60, 67
1, 17021, Control_c, 0, 64, 127
1, 17031, Note_on_c, 0, 60, 0
1, 17035, Note_on_c, 0, 72, 0
1, 17039, Note_on_c, 0, 44, 0
1, 17040, Control_c, 0, 64, 0
1, 17045, Note_on_c, 0, 43, 43
1, 17049, Note_on_c, 0, 69, 47
1, 17062, Note_on_c, 0, 69, 0
1, 17079, Note_on_c, 0, 59, 43
1, 17108, Note_on_c, 0, 31, 45
1, 17112, Note_on_c, 0, 43, 0
1, 17118, Note_on_c, 0, 31, 0
1, 17137, Note_on_c, 0, 59, 0
1, 17140, Note_on_c, 0, 38, 46
1, 17143, Control_c, 0, 64, 127
1, 17156, Note_on_c, 0, 38, 0
1, 17158, Control_c, 0, 64, 0
1, 17167, Note_on_c, 0, 41, 61
1, 17239, Note_on_c, 0, 41, 74
1, 17249, Note_on_c, 0, 41, 0
1, 17259, Note_on_c, 0, 41, 0
1, 17283, Note_on_c, 0, 40, 52
1, 17320, Note_on_c, 0, 40, 0
1, 17360, Note_on_c, 0, 55, 62
1, 17384, Note_on_c, 0, 55, 0
1, 17397, Note_on_c, 0, 62, 67
1, 17398, Control_c, 0, 64, 0
1, 17433, Note_on_c, 0, 67, 62
1, 17451, Note_on_c, 0, 62, 0
1, 17473, Note_on_c, 0, 46, 51
1, 17503, Note_on_c, 0, 67, 0
1, 17510, Note_on_c, 0, 46, 0
1, 17515, Note_on_c, 0, 64, 37
1, 17515, Note_on_c, 0, 58, 32
1, 17518, Note_on_c, 0, 61, 35
1, 17520, Control_c, 0, 64, 0
1, 17522, Note_on_c, 0, 47, 19
1, 17523, Note_on_c, 0, 45, 19
1, 17530, Note_on_c, 0, 45, 0
1, 17530, Note_on_c, 0, 47, 0
1, 17541, Note_on_c, 0, 45, 15
1, 17602, Note_on_c, 0, 45, 0
1, 17603, Note_on_c, 0, 61, 0
1, 17604, Note_on_c, 0, 58, 0
1, 17604, Note_on_c, 0, 37, 36
1, 17631, Note_on_c, 0, 64, 0
1, 17638, Note_on_c, 0, 37, 0
1, 17646, Note_on_c, 0, 61, 32
1, 17647, Note_on_c, 0, 39, 36
1, 17648, Note_on_c, 0, 58, 34
1, 17649, Note_on_c, 0, 55, 30
1, 17689, Note_on_c, 0, 55, 0
1, 17729, Note_on_c, 0, 58, 0
1, 17729, Note_on_c, 0, 37, 43
1, 17735, Note_on_c, 0, 39, 0
1, 17736, Note_on_c, 0, 61, 0
1, 17769, Note_on_c, 0, 37, 0
1, 17772, Note_on_c, 0, 38, 56
1, 17813, Note_on_c, 0, 75, 47
1, 17838, Note_on_c, 0, 75, 0
1, 17852, Note_on_c, 0, 76, 49
1, 17881, Note_on_c, 0, 38, 0
1, 17884, Note_on_c, 0, 76, 0
1, 17891, Note_on_c, 0, 44, 39
1, 17892, Note_on_c, 0, 81, 81
1, 17910, Note_on_c, 0, 81, 0
1, 17930, Note_on_c, 0, 75, 57
1, 17954, Note_on_c, 0, 75, 0
1, 17970, Note_on_c, 0, 74, 89
1, 18004, Note_on_c, 0, 44, 0
1, 18007, Note_on_c, 0, 43, 42
1, 18046, Note_on_c, 0, 72, 56
1, 18049, Note_on_c, 0, 74, 0
1, 18074, Note_on_c, 0, 72, 0
1, 18084, Note_on_c, 0, 67, 44
1, 18115, Note_on_c, 0, 67, 0
1, 18128, Note_on_c, 0, 65, 62
1, 18160, Note_on_c, 0, 65, 0
1, 18170, Note_on_c, 0, 62, 25
1, 18195, Note_on_c, 0, 62, 0
1, 18204, Note_on_c, 0, 63, 56
1, 18227, Note_on_c, 0, 43, 0
1, 18239, Note_on_c, 0, 63, 0
1, 18244, Note_on_c, 0, 64, 50
1, 18247, Note_on_c, 0, 40, 45
1, 18276, Note_on_c, 0, 64, 0
1, 18284, Note_on_c, 0, 67, 39
1, 18296, Note_on_c, 0, 67, 0
1, 18327, Note_on_c, 0, 69, 83
1, 18345, Note_on_c, 0, 69, 0
1, 18366, Note_on_c, 0, 69, 66
1, 18388, Note_on_c, 0, 40, 0
1, 18400, Note_on_c, 0, 69, 0
1, 18408, Note_on_c, 0, 67, 46
1, 18420, Note_on_c, 0, 67, 0
1, 18446, Note_on_c, 0, 70, 64
1, 18447, Note_on_c, 0, 61, 59
1, 18448, Note_on_c, 0, 66, 53
1, 18449, Note_on_c, 0, 45, 34
1, 18469, Control_c, 0, 64, 127
1, 18513, Note_on_c, 0, 70, 0
1, 18522, Note_on_c, 0, 72, 66
1, 18528, Note_on_c, 0, 70, 28
1, 18536, Note_on_c, 0, 45, 0
1, 18570, Note_on_c, 0, 72, 0
1, 18573, Note_on_c, 0, 61, 0
1, 18575, Note_on_c, 0, 66, 0
1, 18576, Note_on_c, 0, 70, 0
1, 18606, Note_on_c, 0, 69, 62
1, 18622, Note_on_c, 0, 69, 0
1, 18683, Note_on_c, 0, 76, 76
1, 18694, Note_on_c, 0, 76, 0
1, 18727, Control_c, 0, 64, 0
1, 18727, Note_on_c, 0, 79, 69
1, 18729, Note_on_c, 0, 73, 62
1, 18729, Note_on_c, 0, 64, 55
1, 18730, Note_on_c, 0, 69, 62
1, 18759, Note_on_c, 0, 79, 0
1, 18761, Note_on_c, 0, 69, 0
1, 18764, Note_on_c, 0, 73, 0
1, 18766, Note_on_c, 0, 64, 0
1, 18768, Note_on_c, 0, 63, 43
1, 18806, Note_on_c, 0, 63, 0
1, 18806, Note_on_c, 0, 77, 63
1, 18807, Note_on_c, 0, 62, 46
1, 18808, Note_on_c, 0, 69, 48
1, 18809, Note_on_c, 0, 72, 47
1, 18810, Note_on_c, 0, 73, 29
1, 18816, Note_on_c, 0, 73, 0
1, 18821, Control_c, 0, 64, 127
1, 18835, Control_c, 0, 64, 0
1, 18838, Note_on_c, 0, 77, 0
1, 18839, Note_on_c, 0, 72, 0
1, 18845, Note_on_c, 0, 69, 0
1, 18845, Note_on_c, 0, 61, 39
1, 18846, Note_on_c, 0, 62, 0
1, 18847, Control_c, 0, 64, 127
1, 18882, Note_on_c, 0, 61, 0
1, 18883, Note_on_c, 0, 76, 58
1, 18885, Note_on_c, 0, 69, 63
1, 18885, Note_on_c, 0, 65, 47
1, 18886, Note_on_c, 0, 60, 53
1, 18926, Note_on_c, 0, 69, 0
1, 18927, Note_on_c, 0, 76, 0
1, 18931, Note_on_c, 0, 65, 0
1, 18954, Note_on_c, 0, 60, 0
1, 18959, Control_c, 0, 64, 0
1, 18962, Note_on_c, 0, 68, 62
1, 18962, Note_on_c, 0, 71, 55
1, 18963, Note_on_c, 0, 74, 49
1, 18963, Note_on_c, 0, 59, 49
1, 18978, Control_c, 0, 64, 127
1, 18992, Note_on_c, 0, 71, 0
1, 18993, Note_on_c, 0, 74, 0
1, 18996, Note_on_c, 0, 68, 0
1, 18996, Note_on_c, 0, 59, 0
1, 19076, Control_c, 0, 64, 0
1, 19079, Note_on_c, 0, 68, 32
1, 19080, Note_on_c, 0, 63, 42
1, 19080, Note_on_c, 0, 71, 44
1, 19080, Note_on_c, 0, 59, 34
1, 19081, Note_on_c, 0, 53, 35
1, 19093, Control_c, 0, 64, 127
1, 19101, Note_on_c, 0, 53, 0
1, 19134, Note_on_c, 0, 59, 0
1, 19135, Note_on_c, 0, 71, 0
1, 19143, Note_on_c, 0, 63, 0
1, 19149, Note_on_c, 0, 68, 0
1, 19164, Note_on_c, 0, 59, 42
1, 19176, Note_on_c, 0, 59, 0
1, 19208, Note_on_c, 0, 59, 48
1, 19208, Note_on_c, 0, 67, 39
1, 19210, Note_on_c, 0, 62, 40
1, 19210, Control_c, 0, 64, 0
1, 19211, Note_on_c, 0, 36, 31
1, 19211, Note_on_c, 0, 64, 32
1, 19222, Note_on_c, 0, 59, 0
1, 19223, Note_on_c, 0, 62, 0
1, 19225, Note_on_c, 0, 64, 0
1, 19227, Note_on_c, 0, 67, 0
1, 19288, Note_on_c, 0, 67, 26
1, 19288, Note_on_c, 0, 59, 30
1, 19289, Note_on_c, 0, 43, 31
1, 19291, Note_on_c, 0, 62, 27
1, 19293, Note_on_c, 0, 64, 25
1, 19305, Note_on_c, 0, 62, 0
1, 19307, Note_on_c, 0, 64, 0
1, 19309, Note_on_c, 0, 67, 0
1, 19310, Note_on_c, 0, 59, 0
1, 19335, Note_on_c, 0, 43, 0
1, 19335, Note_on_c, 0, 59, 38
1, 19337, Note_on_c, 0, 62, 27
1, 19338, Note_on_c, 0, 45, 39
1, 19340, Note_on_c, 0, 64, 22
1, 19345, Note_on_c, 0, 62, 0
1, 19346, Note_on_c, 0, 64, 0
1, 19347, Note_on_c, 0, 59, 0
1, 19412, Note_on_c, 0, 67, 30
1, 19412, Note_on_c, 0, 59, 43
1, 19413, Note_on_c, 0, 43, 42
1, 19413, Note_on_c, 0, 62, 36
1, 19415, Note_on_c, 0, 64, 29
1, 19418, Note_on_c, 0, 36, 0
1, 19421, Note_on_c, 0, 62, 0
1, 19425, Note_on_c, 0, 59, 0
1, 19426, Note_on_c, 0, 64, 0
1, 19431, Note_on_c, 0, 67, 0
1, 19438, Note_on_c, 0, 45, 0
1, 19459, Note_on_c, 0, 37, 38
1, 19460, Note_on_c, 0, 61, 35
1, 19461, Note_on_c, 0, 43, 0
1, 19461, Note_on_c, 0, 58, 23
1, 19463, Note_on_c, 0, 64, 30
1, 19477, Note_on_c, 0, 64, 0
1, 19478, Note_on_c, 0, 61, 0
1, 19481, Note_on_c, 0, 58, 0
1, 19532, Note_on_c, 0, 43, 31
1, 19533, Note_on_c, 0, 67, 34
1, 19534, Note_on_c, 0, 58, 36
1, 19535, Note_on_c, 0, 61, 37
1, 19537, Note_on_c, 0, 64, 33
1, 19572, Note_on_c, 0, 43, 0
1, 19581, Note_on_c, 0, 45, 47
1, 19654, Note_on_c, 0, 43, 44
1, 19657, Note_on_c, 0, 64, 0
1, 19665, Note_on_c, 0, 58, 0
1, 19665, Note_on_c, 0, 37, 0
1, 19674, Note_on_c, 0, 67, 0
1, 19677, Note_on_c, 0, 61, 0
1, 19689, Note_on_c, 0, 43, 0
1, 19693, Note_on_c, 0, 45, 0
1, 19695, Note_on_c, 0, 65, 45
1, 19695, Note_on_c, 0, 67, 29
1, 19695, Note_on_c, 0, 57, 37
1, 19696, Note_on_c, 0, 60, 49
1, 19696, Note_on_c, 0, 38, 46
1, 19773, Note_on_c, 0, 43, 81
1, 19777, Control_c, 0, 64, 127
1, 19781, Note_on_c, 0, 57, 0
1, 19781, Note_on_c, 0, 67, 0
1, 19782, Note_on_c, 0, 60, 0
1, 19789, Note_on_c, 0, 65, 0
1, 19802, Control_c, 0, 64, 0
1, 19814, Note_on_c, 0, 45, 88
1, 19815, Note_on_c, 0, 67, 79
1, 19815, Note_on_c, 0, 57, 94
1, 19815, Note_on_c, 0, 60, 90
1, 19815, Note_on_c, 0, 65, 78
1, 19819, Note_on_c, 0, 43, 0
1, 19836, Control_c, 0, 64, 127
1, 19874, Note_on_c, 0, 38, 0
1, 19886, Note_on_c, 0, 45, 0
1, 19889, Note_on_c, 0, 67, 0
1, 19894, Note_on_c, 0, 65, 0
1, 19897, Note_on_c, 0, 60, 0
1, 19897, Note_on_c, 0, 43, 56
1, 19904, Note_on_c, 0, 43, 0
1, 19904, Note_on_c, 0, 57, 0
1, 19934, Note_on_c, 0, 65, 77
1, 19934, Note_on_c, 0, 43, 61
1, 19934, Note_on_c, 0, 56, 73
1, 19934, Note_on_c, 0, 59, 79
1, 19935, Note_on_c, 0, 62, 69
1, 19936, Control_c, 0, 64, 0
1, 19982, Control_c, 0, 64, 127
1, 20000, Note_on_c, 0, 65, 0
1, 20007, Note_on_c, 0, 62, 0
1, 20008, Note_on_c, 0, 43, 0
1, 20011, Note_on_c, 0, 64, 71
1, 20015, Note_on_c, 0, 59, 0
1, 20027, Note_on_c, 0, 56, 0
1, 20043, Note_on_c, 0, 64, 0
1, 20048, Control_c, 0, 64, 0
1, 20051, Note_on_c, 0, 62, 62
1, 20052, Note_on_c, 0, 41, 58
1, 20052, Note_on_c, 0, 55, 60
1, 20067, Note_on_c, 0, 41, 0
1, 20070, Control_c, 0, 64, 127
1, 20078, Note_on_c, 0, 55, 0
1, 20095, Note_on_c, 0, 60, 36
1, 20110, Note_on_c, 0, 60, 0
1, 20111, Note_on_c, 0, 62, 0
1, 20129, Note_on_c, 0, 64, 73
1, 20130, Note_on_c, 0, 60, 71
1, 20162, Control_c, 0, 64, 0
1, 20168, Note_on_c, 0, 40, 45
1, 20172, Note_on_c, 0, 55, 54
1, 20178, Note_on_c, 0, 60, 0
1, 20181, Control_c, 0, 64, 127
1, 20185, Note_on_c, 0, 64, 0
1, 20185, Note_on_c, 0, 40, 0
1, 20195, Note_on_c, 0, 55, 0
1, 20248, Note_on_c, 0, 72, 81
1, 20248, Note_on_c, 0, 67, 80
1, 20248, Note_on_c, 0, 62, 84
1, 20249, Note_on_c, 0, 55, 64
1, 20249, Note_on_c, 0, 59, 63
1, 20250, Note_on_c, 0, 52, 56
1, 20266, Note_on_c, 0, 62, 0
1, 20276, Note_on_c, 0, 67, 0
1, 20281, Note_on_c, 0, 72, 0
1, 20285, Note_on_c, 0, 55, 0
1, 20285, Note_on_c, 0, 59, 0
1, 20286, Note_on_c, 0, 52, 0
1, 20323, Note_on_c, 0, 84, 88
1, 20323, Note_on_c, 0, 77, 83
1, 20323, Note_on_c, 0, 81, 76
1, 20324, Note_on_c, 0, 72, 82
1, 20325, Note_on_c, 0, 59, 66
1, 20325, Note_on_c, 0, 52, 64
1, 20325, Note_on_c, 0, 55, 64
1, 20329, Control_c, 0, 64, 0
1, 20334, Control_c, 0, 64, 127
1, 20348, Note_on_c, 0, 52, 0
1, 20351, Note_on_c, 0, 55, 0
1, 20354, Note_on_c, 0, 59, 0
1, 20362, Note_on_c, 0, 72, 0
1, 20370, Note_on_c, 0, 84, 0
1, 20372, Note_on_c, 0, 77, 0
1, 20375, Note_on_c, 0, 81, 0
1, 20396, Note_on_c, 0, 61, 43
1, 20397, Note_on_c, 0, 60, 50
1, 20398, Control_c, 0, 64, 0
1, 20398, Note_on_c, 0, 65, 47
1, 20398, Note_on_c, 0, 55, 52
1, 20399, Note_on_c, 0, 81, 60
1, 20399, Note_on_c, 0, 77, 58
1, 20400, Note_on_c, 0, 72, 46
1, 20421, Control_c, 0, 64, 127
1, 20436, Note_on_c, 0, 81, 0
1, 20442, Note_on_c, 0, 77, 0
1, 20449, Note_on_c, 0, 72, 0
1, 20458, Note_on_c, 0, 65, 0
1, 20459, Note_on_c, 0, 60, 0
1, 20462, Note_on_c, 0, 61, 0
1, 20466, Note_on_c, 0, 55, 0
1, 20530, Note_on_c, 0, 64, 26
1, 20530, Note_on_c, 0, 61, 31
1, 20531, Note_on_c, 0, 55, 30
1, 20531, Note_on_c, 0, 70, 30
1, 20532, Note_on_c, 0, 76, 20
1, 20533, Note_on_c, 0, 73, 33
1, 20537, Control_c, 0, 64, 0
1, 20539, Note_on_c, 0, 73, 0
1, 20540, Note_on_c, 0, 64, 0
1, 20540, Note_on_c, 0, 55, 0
1, 20540, Note_on_c, 0, 70, 0
1, 20541, Note_on_c, 0, 61, 0
1, 20541, Note_on_c, 0, 76, 0
1, 20626, Control_c, 0, 64, 127
1, 20631, Control_c, 0, 64, 0
1, 20652, Note_on_c, 0, 60, 20
1, 20653, Note_on_c, 0, 65, 27
1, 20654, Note_on_c, 0, 69, 24
1, 20654, Note_on_c, 0, 57, 24
1, 20654, Note_on_c, 0, 50, 24
1, 20654, Note_on_c, 0, 64, 19
1, 20666, Note_on_c, 0, 57, 0
1, 20666, Note_on_c, 0, 65, 0
1, 20666, Note_on_c, 0, 60, 0
1, 20668, Note_on_c, 0, 69, 0
1, 20673, Note_on_c, 0, 64, 0
1, 20675, Note_on_c, 0, 50, 0
1, 20769, Note_on_c, 0, 53, 25
1, 20770, Note_on_c, 0, 60, 28
1, 20771, Note_on_c, 0, 65, 27
1, 20771, Note_on_c, 0, 57, 16
1, 20784, Note_on_c, 0, 65, 0
1, 20785, Note_on_c, 0, 60, 0
1, 20787, Note_on_c, 0, 57, 0
1, 20788, Note_on_c, 0, 53, 0
1, 20845, Note_on_c, 0, 43, 46
1, 20849, Control_c, 0, 64, 127
1, 20868, Note_on_c, 0, 43, 0
1, 20880, Control_c, 0, 64, 0
1, 20885, Note_on_c, 0, 56, 42
1, 20887, Note_on_c, 0, 53, 41
1, 20888, Note_on_c, 0, 59, 46
1, 20889, Note_on_c, 0, 64, 32
1, 20891, Note_on_c, 0, 53, 0
1, 20894, Note_on_c, 0, 59, 0
1, 20895, Note_on_c, 0, 56, 0
1, 20898, Note_on_c, 0, 64, 0
1, 20958, Control_c, 0, 64, 127
1, 20962, Note_on_c, 0, 74, 83
1, 20963, Note_on_c, 0, 67, 83
1, 20989, Note_on_c, 0, 67, 0
1, 20991, Note_on_c, 0, 74, 0
1, 21001, Control_c, 0, 64, 0
1, 21004, Note_on_c, 0, 41, 26
1, 21005, Note_on_c, 0, 71, 58
1, 21006, Note_on_c, 0, 62, 43
1, 21007, Note_on_c, 0, 57, 30
1, 21008, Note_on_c, 0, 67, 44
1, 21023, Control_c, 0, 64, 127
1, 21027, Note_on_c, 0, 71, 0
1, 21028, Note_on_c, 0, 57, 0
1, 21029, Note_on_c, 0, 41, 0
1, 21029, Note_on_c, 0, 67, 0
1, 21032, Control_c, 0, 64, 0
1, 21034, Note_on_c, 0, 62, 0
1, 21064, Control_c, 0, 64, 127
1, 21113, Control_c, 0, 64, 0
1, 21124, Note_on_c, 0, 55, 34
1, 21125, Note_on_c, 0, 40, 41
1, 21126, Note_on_c, 0, 60, 36
1, 21131, Control_c, 0, 64, 127
1, 21133, Note_on_c, 0, 55, 0
1, 21136, Note_on_c, 0, 60, 0
1, 21136, Note_on_c, 0, 40, 0
1, 21201, Note_on_c, 0, 72, 72
1, 21202, Note_on_c, 0, 64, 63
1, 21203, Note_on_c, 0, 67, 57
1, 21204, Note_on_c, 0, 56, 50
1, 21204, Note_on_c, 0, 62, 60
1, 21210, Note_on_c, 0, 64, 0
1, 21214, Note_on_c, 0, 67, 0
1, 21215, Note_on_c, 0, 72, 0
1, 21222, Note_on_c, 0, 56, 0
1, 21228, Note_on_c, 0, 62, 0
1, 21282, Note_on_c, 0, 76, 69
1, 21284, Note_on_c, 0, 56, 58
1, 21284, Note_on_c, 0, 62, 54
1, 21285, Note_on_c, 0, 72, 60
1, 21285, Note_on_c, 0, 67, 47
1, 21303, Note_on_c, 0, 76, 0
1, 21304, Note_on_c, 0, 72, 0
1, 21304, Note_on_c, 0, 62, 0
1, 21310, Note_on_c, 0, 67, 0
1, 21315, Note_on_c, 0, 56, 0
1, 21355, Note_on_c, 0, 72, 57
1, 21356, Control_c, 0, 64, 0
1, 21356, Note_on_c, 0, 65, 56
1, 21356, Note_on_c, 0, 55, 55
1, 21356, Note_on_c, 0, 69, 58
1, 21357, Note_on_c, 0, 61, 36
1, 21379, Control_c, 0, 64, 127
1, 21442, Note_on_c, 0, 69, 0
1, 21448, Note_on_c, 0, 65, 0
1, 21449, Note_on_c, 0, 61, 0
1, 21454, Note_on_c, 0, 55, 0
1, 21454, Note_on_c, 0, 72, 0
1, 21474, Note_on_c, 0, 70, 53
1, 21474, Note_on_c, 0, 61, 39
1, 21476, Note_on_c, 0, 65, 48
1, 21476, Note_on_c, 0, 55, 48
1, 21478, Control_c, 0, 64, 0
1, 21488, Control_c, 0, 64, 127
1, 21500, Note_on_c, 0, 55, 0
1, 21535, Note_on_c, 0, 65, 0
1, 21537, Note_on_c, 0, 61, 0
1, 21546, Note_on_c, 0, 70, 0
1, 21595, Note_on_c, 0, 60, 32
1, 21595, Note_on_c, 0, 65, 41
1, 21595, Note_on_c, 0, 50, 33
1, 21596, Note_on_c, 0, 69, 44
1, 21597, Control_c, 0, 64, 0
1, 21597, Note_on_c, 0, 57, 24
1, 21619, Control_c, 0, 64, 127
1, 21625, Note_on_c, 0, 60, 0
1, 21632, Note_on_c, 0, 50, 0
1, 21635, Note_on_c, 0, 65, 0
1, 21638, Note_on_c, 0, 69, 0
1, 21640, Note_on_c, 0, 57, 0
1, 21717, Note_on_c, 0, 76, 84
1, 21718, Note_on_c, 0, 69, 84
1, 21719, Note_on_c, 0, 65, 76
1, 21720, Note_on_c, 0, 64, 66
1, 21726, Control_c, 0, 64, 0
1, 21743, Control_c, 0, 64, 127
1, 21769, Note_on_c, 0, 64, 0
1, 21787, Note_on_c, 0, 76, 0
1, 21788, Note_on_c, 0, 65, 0
1, 21800, Note_on_c, 0, 69, 0
1, 21831, Note_on_c, 0, 59, 46
1, 21839, Note_on_c, 0, 74, 57
1, 21840, Control_c, 0, 64, 0
1, 21841, Note_on_c, 0, 64, 40
1, 21841, Note_on_c, 0, 69, 50
1, 21843, Note_on_c, 0, 69, 35
1, 21861, Control_c, 0, 64, 127
1, 21865, Note_on_c, 0, 74, 0
1, 21869, Note_on_c, 0, 69, 0
1, 21874, Note_on_c, 0, 64, 0
1, 21891, Note_on_c, 0, 59, 0
1, 21893, Note_on_c, 0, 69, 0
1, 21903, Control_c, 0, 64, 0
1, 21903, Note_on_c, 0, 72, 42
1, 21904, Note_on_c, 0, 62, 35
1, 21904, Note_on_c, 0, 67, 45
1, 21906, Note_on_c, 0, 57, 32
1, 21907, Control_c, 0, 64, 127
1, 21916, Note_on_c, 0, 72, 0
1, 21917, Note_on_c, 0, 67, 0
1, 21923, Note_on_c, 0, 62, 0
1, 21958, Note_on_c, 0, 57, 0
1, 21963, Control_c, 0, 64, 0
1, 21966, Note_on_c, 0, 59, 41
1, 21967, Note_on_c, 0, 71, 42
1, 21967, Note_on_c, 0, 68, 42
1, 21967, Note_on_c, 0, 64, 50
1, 21969, Note_on_c, 0, 55, 32
1, 21981, Control_c, 0, 64, 127
1, 21987, Note_on_c, 0, 59, 0
1, 21989, Note_on_c, 0, 64, 0
1, 21991, Note_on_c, 0, 71, 0
1, 21993, Note_on_c, 0, 68, 0
1, 22027, Note_on_c, 0, 55, 0
1, 22028, Note_on_c, 0, 74, 62
1, 22045, Note_on_c, 0, 74, 0
1, 22090, Control_c, 0, 64, 0
1, 22090, Note_on_c, 0, 67, 38
1, 22090, Note_on_c, 0, 72, 44
1, 22092, Note_on_c, 0, 62, 20
1, 22093, Note_on_c, 0, 48, 32
1, 22121, Control_c, 0, 64, 127
1, 22139, Note_on_c, 0, 67, 0
1, 22141, Note_on_c, 0, 62, 0
1, 22148, Note_on_c, 0, 55, 36
1, 22205, Note_on_c, 0, 55, 0
1, 22243, Note_on_c, 0, 48, 0
1, 22264, Note_on_c, 0, 48, 49
1, 22306, Note_on_c, 0, 72, 0
1, 22323, Note_on_c, 0, 69, 45
1, 22323, Note_on_c, 0, 65, 38
1, 22323, Note_on_c, 0, 60, 30
1, 22324, Note_on_c, 0, 57, 31
1, 22324, Control_c, 0, 64, 0
1, 22358, Control_c, 0, 64, 127
1, 22369, Note_on_c, 0, 48, 0
1, 22384, Note_on_c, 0, 48, 47
1, 22422, Note_on_c, 0, 60, 0
1, 22466, Note_on_c, 0, 48, 0
1, 22467, Note_on_c, 0, 69, 0
1, 22492, Note_on_c, 0, 65, 0
1, 22506, Note_on_c, 0, 48, 49
1, 22523, Note_on_c, 0, 57, 0
1, 22565, Note_on_c, 0, 60, 31
1, 22565, Note_on_c, 0, 55, 38
1, 22565, Note_on_c, 0, 67, 38
1, 22565, Note_on_c, 0, 64, 41
1, 22565, Control_c, 0, 64, 0
1, 22596, Note_on_c, 0, 48, 0
1, 22602, Control_c, 0, 64, 127
1, 22628, Note_on_c, 0, 48, 64
1, 22651, Note_on_c, 0, 60, 0
1, 22653, Note_on_c, 0, 64, 0
1, 22654, Note_on_c, 0, 55, 0
1, 22659, Note_on_c, 0, 48, 0
1, 22681, Note_on_c, 0, 67, 0
1, 22690, Note_on_c, 0, 60, 61
1, 22702, Note_on_c, 0, 60, 0
1, 22726, Note_on_c, 0, 46, 70
1, 22747, Control_c, 0, 64, 0
1, 22752, Note_on_c, 0, 46, 0
1, 22757, Note_on_c, 0, 45, 45
1, 22778, Control_c, 0, 64, 127
1, 22779, Note_on_c, 0, 44, 37
1, 22780, Note_on_c, 0, 45, 0
1, 22794, Note_on_c, 0, 44, 0
1, 22795, Note_on_c, 0, 43, 54
1, 22811, Note_on_c, 0, 43, 0
1, 22812, Note_on_c, 0, 42, 59
1, 22813, Control_c, 0, 64, 0
1, 22814, Note_on_c, 0, 52, 52
1, 22815, Note_on_c, 0, 56, 51
1, 22815, Note_on_c, 0, 60, 55
1, 22816, Note_on_c, 0, 63, 25
1, 22870, Control_c, 0, 64, 127
1, 22895, Note_on_c, 0, 60, 0
1, 22900, Note_on_c, 0, 52, 0
1, 22908, Note_on_c, 0, 56, 0
1, 22920, Note_on_c, 0, 63, 0
1, 22925, Note_on_c, 0, 60, 44
1, 22926, Note_on_c, 0, 56, 23
1, 22926, Note_on_c, 0, 52, 31
1, 22931, Note_on_c, 0, 42, 0
1, 22935, Note_on_c, 0, 52, 0
1, 22943, Note_on_c, 0, 60, 0
1, 22947, Note_on_c, 0, 56, 0
1, 23043, Note_on_c, 0, 69, 43
1, 23043, Note_on_c, 0, 41, 31
1, 23044, Note_on_c, 0, 65, 44
1, 23046, Note_on_c, 0, 48, 24
1, 23046, Note_on_c, 0, 60, 20
1, 23051, Note_on_c, 0, 60, 0
1, 23051, Control_c, 0, 64, 0
1, 23057, Note_on_c, 0, 65, 0
1, 23057, Note_on_c, 0, 69, 0
1, 23060, Note_on_c, 0, 48, 0
1, 23069, Note_on_c, 0, 41, 0
1, 23167, Note_on_c, 0, 48, 22
1, 23168, Note_on_c, 0, 57, 24
1, 23181, Note_on_c, 0, 57, 0
1, 23184, Note_on_c, 0, 48, 0
1, 23239, Control_c, 0, 64, 127
1, 23248, Note_on_c, 0, 69, 33
1, 23250, Note_on_c, 0, 65, 24
1, 23255, Note_on_c, 0, 65, 0
1, 23255, Note_on_c, 0, 69, 0
1, 23285, Control_c, 0, 64, 0
1, 23286, Note_on_c, 0, 39, 30
1, 23290, Note_on_c, 0, 63, 30
1, 23291, Note_on_c, 0, 54, 25
1, 23292, Note_on_c, 0, 71, 17
1, 23292, Note_on_c, 0, 66, 30
1, 23292, Note_on_c, 0, 60, 20
1, 23316, Note_on_c, 0, 60, 0
1, 23316, Note_on_c, 0, 63, 0
1, 23317, Note_on_c, 0, 54, 0
1, 23318, Note_on_c, 0, 66, 0
1, 23318, Note_on_c, 0, 39, 0
1, 23320, Note_on_c, 0, 71, 0
1, 23400, Note_on_c, 0, 39, 19
1, 23404, Note_on_c, 0, 66, 35
1, 23404, Note_on_c, 0, 54, 27
1, 23405, Note_on_c, 0, 63, 29
1, 23405, Note_on_c, 0, 60, 31
1, 23419, Note_on_c, 0, 39, 0
1, 23434, Note_on_c, 0, 54, 0
1, 23436, Note_on_c, 0, 66, 0
1, 23436, Note_on_c, 0, 63, 0
1, 23437, Note_on_c, 0, 60, 0
1, 23483, Control_c, 0, 64, 127
1, 23488, Note_on_c, 0, 44, 34
1, 23506, Note_on_c, 0, 44, 0
1, 23510, Control_c, 0, 64, 0
1, 23525, Note_on_c, 0, 52, 36
1, 23525, Note_on_c, 0, 60, 37
1, 23525, Note_on_c, 0, 67, 24
1, 23526, Note_on_c, 0, 55, 35
1, 23527, Note_on_c, 0, 43, 33
1, 23527, Note_on_c, 0, 64, 30
1, 23537, Control_c, 0, 64, 127
1, 23543, Note_on_c, 0, 55, 0
1, 23545, Note_on_c, 0, 60, 0
1, 23547, Note_on_c, 0, 43, 0
1, 23547, Note_on_c, 0, 64, 0
1, 23552, Note_on_c, 0, 52, 0
1, 23572, Note_on_c, 0, 67, 0
1, 23684, Note_on_c, 0, 68, 93
1, 23698, Note_on_c, 0, 68, 0
1, 23721, Note_on_c, 0, 74, 96
1, 23758, Note_on_c, 0, 60, 37
1, 23760, Note_on_c, 0, 65, 34
1, 23761, Note_on_c, 0, 61, 35
1, 23762, Control_c, 0, 64, 0
1, 23763, Note_on_c, 0, 55, 29
1, 23806, Note_on_c, 0, 74, 0
1, 23806, Note_on_c, 0, 72, 64
1, 23823, Control_c, 0, 64, 127
1, 23856, Note_on_c, 0, 65, 0
1, 23864, Note_on_c, 0, 60, 0
1, 23868, Note_on_c, 0, 72, 0
1, 23872, Control_c, 0, 64, 0
1, 23875, Note_on_c, 0, 73, 50
1, 23876, Note_on_c, 0, 64, 35
1, 23905, Note_on_c, 0, 73, 0
1, 23908, Note_on_c, 0, 74, 34
1, 23916, Control_c, 0, 64, 127
1, 23920, Control_c, 0, 64, 0
1, 23928, Note_on_c, 0, 74, 0
1, 23937, Note_on_c, 0, 76, 49
1, 23940, Note_on_c, 0, 55, 0
1, 23942, Note_on_c, 0, 64, 0
1, 23943, Note_on_c, 0, 61, 0
1, 23948, Control_c, 0, 64, 127
1, 23960, Note_on_c, 0, 76, 0
1, 23966, Note_on_c, 0, 77, 74
1, 23988, Note_on_c, 0, 77, 0
1, 23990, Control_c, 0, 64, 0
1, 23994, Note_on_c, 0, 60, 33
1, 23996, Note_on_c, 0, 57, 30
1, 23996, Note_on_c, 0, 53, 37
1, 23997, Note_on_c, 0, 50, 24
1, 24000, Note_on_c, 0, 79, 61
1, 24046, Control_c, 0, 64, 127
1, 24062, Note_on_c, 0, 53, 0
1, 24064, Note_on_c, 0, 50, 0
1, 24064, Note_on_c, 0, 57, 0
1, 24073, Note_on_c, 0, 60, 0
1, 24120, Note_on_c, 0, 65, 44
1, 24120, Control_c, 0, 64, 0
1, 24121, Note_on_c, 0, 77, 64
1, 24122, Note_on_c, 0, 79, 0
1, 24122, Note_on_c, 0, 60, 38
1, 24123, Note_on_c, 0, 54, 37
1, 24145, Control_c, 0, 64, 127
1, 24188, Note_on_c, 0, 60, 0
1, 24192, Note_on_c, 0, 65, 0
1, 24199, Note_on_c, 0, 54, 0
1, 24227, Note_on_c, 0, 77, 0
1, 24237, Note_on_c, 0, 75, 42
1, 24239, Control_c, 0, 64, 0
1, 24241, Note_on_c, 0, 59, 39
1, 24241, Note_on_c, 0, 64, 38
1, 24244, Note_on_c, 0, 53, 28
1, 24244, Note_on_c, 0, 76, 58
1, 24249, Note_on_c, 0, 75, 0
1, 24263, Note_on_c, 0, 64, 0
1, 24263, Control_c, 0, 64, 127
1, 24264, Note_on_c, 0, 59, 0
1, 24271, Note_on_c, 0, 53, 0
1, 24284, Note_on_c, 0, 67, 51
1, 24285, Note_on_c, 0, 76, 0
1, 24321, Note_on_c, 0, 43, 47
1, 24324, Note_on_c, 0, 67, 0
1, 24399, Note_on_c, 0, 68, 50
1, 24401, Note_on_c, 0, 63, 56
1, 24402, Note_on_c, 0, 59, 44
1, 24403, Control_c, 0, 64, 0
1, 24432, Control_c, 0, 64, 127
1, 24437, Note_on_c, 0, 68, 0
1, 24438, Note_on_c, 0, 51, 32
1, 24445, Note_on_c, 0, 59, 0
1, 24454, Note_on_c, 0, 63, 0
1, 24476, Note_on_c, 0, 51, 0
1, 24478, Note_on_c, 0, 67, 34
1, 24479, Note_on_c, 0, 52, 40
1, 24479, Note_on_c, 0, 62, 36
1, 24480, Control_c, 0, 64, 0
1, 24481, Note_on_c, 0, 57, 33
1, 24494, Note_on_c, 0, 43, 0
1, 24521, Note_on_c, 0, 43, 42
1, 24544, Control_c, 0, 64, 127
1, 24558, Note_on_c, 0, 57, 0
1, 24561, Note_on_c, 0, 62, 0
1, 24605, Note_on_c, 0, 62, 32
1, 24607, Note_on_c, 0, 57, 32
1, 24623, Note_on_c, 0, 43, 0
1, 24632, Note_on_c, 0, 57, 0
1, 24649, Note_on_c, 0, 62, 0
1, 24652, Note_on_c, 0, 67, 0
1, 24658, Note_on_c, 0, 43, 50
1, 24660, Note_on_c, 0, 52, 0
1, 24664, Note_on_c, 0, 43, 0
1, 24694, Note_on_c, 0, 68, 68
1, 24695, Note_on_c, 0, 56, 60
1, 24696, Note_on_c, 0, 60, 50
1, 24697, Note_on_c, 0, 64, 47
1, 24703, Note_on_c, 0, 64, 0
1, 24704, Note_on_c, 0, 60, 0
1, 24713, Note_on_c, 0, 68, 0
1, 24725, Control_c, 0, 64, 0
1, 24731, Note_on_c, 0, 59, 77
1, 24731, Note_on_c, 0, 74, 87
1, 24732, Note_on_c, 0, 64, 67
1, 24736, Note_on_c, 0, 65, 49
1, 24737, Note_on_c, 0, 56, 0
1, 24740, Note_on_c, 0, 65, 0
1, 24747, Control_c, 0, 64, 127
1, 24752, Note_on_c, 0, 74, 0
1, 24763, Note_on_c, 0, 59, 0
1, 24763, Note_on_c, 0, 64, 0
1, 24773, Note_on_c, 0, 72, 60
1, 24775, Note_on_c, 0, 64, 55
1, 24776, Note_on_c, 0, 67, 57
1, 24777, Note_on_c, 0, 57, 57
1, 24777, Control_c, 0, 64, 0
1, 24801, Control_c, 0, 64, 127
1, 24810, Note_on_c, 0, 67, 0
1, 24811, Note_on_c, 0, 72, 0
1, 24816, Note_on_c, 0, 64, 0
1, 24827, Note_on_c, 0, 57, 0
1, 24846, Control_c, 0, 64, 0
1, 24848, Note_on_c, 0, 71, 49
1, 24849, Note_on_c, 0, 64, 55
1, 24850, Note_on_c, 0, 60, 36
1, 24851, Note_on_c, 0, 55, 46
1, 24852, Control_c, 0, 64, 127
1, 24859, Note_on_c, 0, 64, 0
1, 24860, Note_on_c, 0, 71, 0
1, 24862, Note_on_c, 0, 60, 0
1, 24888, Note_on_c, 0, 55, 0
1, 24891, Note_on_c, 0, 67, 35
1, 24891, Note_on_c, 0, 62, 39
1, 24894, Note_on_c, 0, 52, 38
1, 24894, Note_on_c, 0, 64, 36
1, 24895, Note_on_c, 0, 57, 24
1, 24908, Note_on_c, 0, 52, 0
1, 24915, Note_on_c, 0, 57, 0
1, 24926, Note_on_c, 0, 62, 0
1, 24939, Note_on_c, 0, 64, 0
1, 24949, Note_on_c, 0, 67, 0
1, 24960, Note_on_c, 0, 62, 45
1, 24961, Control_c, 0, 64, 0
1, 24962, Note_on_c, 0, 57, 38
1, 24964, Note_on_c, 0, 47, 46
1, 24978, Note_on_c, 0, 57, 0
1, 24979, Control_c, 0, 64, 127
1, 24982, Note_on_c, 0, 47, 0
1, 25004, Note_on_c, 0, 62, 0
1, 25080, Note_on_c, 0, 65, 34
1, 25082, Note_on_c, 0, 57, 32
1, 25083, Note_on_c, 0, 62, 30
1, 25164, Note_on_c, 0, 57, 0
1, 25169, Note_on_c, 0, 62, 0
1, 25170, Note_on_c, 0, 65, 0
1, 25208, Note_on_c, 0, 67, 26
1, 25209, Note_on_c, 0, 56, 29
1, 25209, Note_on_c, 0, 62, 35
1, 25211, Control_c, 0, 64, 0
1, 25232, Control_c, 0, 64, 127
1, 25245, Note_on_c, 0, 79, 73
1, 25247, Note_on_c, 0, 72, 80
1, 25252, Note_on_c, 0, 67, 0
1, 25258, Note_on_c, 0, 62, 0
1, 25270, Note_on_c, 0, 56, 0
1, 25271, Note_on_c, 0, 72, 0
1, 25273, Note_on_c, 0, 79, 0
1, 25282, Note_on_c, 0, 76, 53
1, 25285, Note_on_c, 0, 67, 57
1, 25301, Note_on_c, 0, 76, 0
1, 25305, Note_on_c, 0, 67, 0
1, 25324, Note_on_c, 0, 56, 37
1, 25325, Note_on_c, 0, 68, 31
1, 25327, Note_on_c, 0, 71, 55
1, 25330, Note_on_c, 0, 64, 17
1, 25331, Control_c, 0, 64, 0
1, 25356, Note_on_c, 0, 64, 0
1, 25356, Control_c, 0, 64, 127
1, 25359, Note_on_c, 0, 56, 0
1, 25362, Note_on_c, 0, 74, 58
1, 25364, Note_on_c, 0, 58, 37
1, 25365, Note_on_c, 0, 64, 32
1, 25380, Note_on_c, 0, 74, 0
1, 25380, Note_on_c, 0, 71, 0
1, 25381, Note_on_c, 0, 64, 0
1, 25390, Note_on_c, 0, 68, 0
1, 25395, Note_on_c, 0, 58, 0
1, 25405, Note_on_c, 0, 67, 33
1, 25407, Note_on_c, 0, 72, 31
1, 25408, Note_on_c, 0, 57, 45
1, 25408, Control_c, 0, 64, 0
1, 25409, Note_on_c, 0, 60, 32
1, 25432, Control_c, 0, 64, 127
1, 25437, Note_on_c, 0, 67, 0
1, 25438, Note_on_c, 0, 72, 0
1, 25451, Note_on_c, 0, 60, 0
1, 25471, Note_on_c, 0, 57, 0
1, 25478, Note_on_c, 0, 45, 30
1, 25479, Note_on_c, 0, 64, 44
1, 25481, Note_on_c, 0, 60, 22
1, 25498, Note_on_c, 0, 64, 0
1, 25500, Note_on_c, 0, 60, 0
1, 25514, Control_c, 0, 64, 0
1, 25518, Note_on_c, 0, 71, 68
1, 25518, Note_on_c, 0, 56, 57
1, 25519, Note_on_c, 0, 60, 60
1, 25520, Note_on_c, 0, 64, 64
1, 25525, Control_c, 0, 64, 127
1, 25545, Note_on_c, 0, 64, 0
1, 25547, Note_on_c, 0, 56, 0
1, 25547, Note_on_c, 0, 60, 0
1, 25553, Note_on_c, 0, 71, 0
1, 25557, Control_c, 0, 64, 0
1, 25560, Note_on_c, 0, 60, 53
1, 25561, Note_on_c, 0, 69, 67
1, 25562, Note_on_c, 0, 64, 48
1, 25562, Note_on_c, 0, 55, 54
1, 25563, Note_on_c, 0, 45, 0
1, 25570, Control_c, 0, 64, 127
1, 25572, Note_on_c, 0, 64, 0
1, 25577, Note_on_c, 0, 60, 0
1, 25595, Note_on_c, 0, 69, 0
1, 25602, Note_on_c, 0, 45, 56
1, 25612, Note_on_c, 0, 55, 0
1, 25617, Note_on_c, 0, 45, 0
1, 25684, Note_on_c, 0, 65, 63
1, 25686, Note_on_c, 0, 54, 55
1, 25686, Note_on_c, 0, 58, 57
1, 25687, Note_on_c, 0, 61, 56
1, 25692, Control_c, 0, 64, 0
1, 25716, Control_c, 0, 64, 127
1, 25744, Note_on_c, 0, 27, 46
1, 25749, Note_on_c, 0, 27, 0
1, 25763, Note_on_c, 0, 61, 0
1, 25766, Note_on_c, 0, 58, 0
1, 25775, Note_on_c, 0, 54, 0
1, 25790, Note_on_c, 0, 65, 0
1, 25801, Note_on_c, 0, 65, 39
1, 25802, Note_on_c, 0, 62, 43
1, 25804, Note_on_c, 0, 57, 65
1, 25804, Note_on_c, 0, 54, 43
1, 25805, Note_on_c, 0, 58, 10
1, 25807, Control_c, 0, 64, 0
1, 25842, Control_c, 0, 64, 127
1, 25863, Note_on_c, 0, 44, 63
1, 25879, Note_on_c, 0, 44, 0
1, 25880, Note_on_c, 0, 57, 0
1, 25886, Note_on_c, 0, 62, 0
1, 25891, Note_on_c, 0, 58, 0
1, 25892, Note_on_c, 0, 54, 0
1, 25907, Note_on_c, 0, 65, 0
1, 25917, Note_on_c, 0, 64, 40
1, 25919, Note_on_c, 0, 55, 59
1, 25920, Note_on_c, 0, 60, 64
1, 25922, Control_c, 0, 64, 0
1, 25922, Note_on_c, 0, 45, 50
1, 25940, Note_on_c, 0, 55, 0
1, 25942, Control_c, 0, 64, 127
1, 25946, Note_on_c, 0, 60, 0
1, 25948, Note_on_c, 0, 64, 0
1, 25948, Note_on_c, 0, 45, 0
1, 25981, Note_on_c, 0, 71, 79
1, 25982, Note_on_c, 0, 64, 81
1, 25983, Note_on_c, 0, 60, 74
1, 26009, Note_on_c, 0, 64, 0
1, 26017, Note_on_c, 0, 60, 0
1, 26029, Note_on_c, 0, 71, 0
1, 26044, Note_on_c, 0, 69, 79
1, 26045, Note_on_c, 0, 60, 69
1, 26046, Note_on_c, 0, 63, 60
1, 26049, Note_on_c, 0, 66, 35
1, 26053, Control_c, 0, 64, 0
1, 26054, Note_on_c, 0, 66, 0
1, 26074, Control_c, 0, 64, 127
1, 26103, Note_on_c, 0, 50, 46
1, 26127, Note_on_c, 0, 69, 0
1, 26130, Note_on_c, 0, 60, 0
1, 26135, Note_on_c, 0, 63, 0
1, 26163, Note_on_c, 0, 68, 57
1, 26164, Control_c, 0, 64, 0
1, 26166, Note_on_c, 0, 66, 39
1, 26166, Note_on_c, 0, 60, 50
1, 26166, Note_on_c, 0, 63, 44
1, 26167, Note_on_c, 0, 57, 40
1, 26184, Control_c, 0, 64, 127
1, 26208, Note_on_c, 0, 50, 0
1, 26216, Note_on_c, 0, 68, 0
1, 26217, Note_on_c, 0, 60, 0
1, 26218, Note_on_c, 0, 66, 0
1, 26226, Note_on_c, 0, 69, 64
1, 26226, Note_on_c, 0, 50, 41
1, 26228, Note_on_c, 0, 66, 23
1, 26229, Note_on_c, 0, 60, 33
1, 26231, Note_on_c, 0, 57, 0
1, 26232, Note_on_c, 0, 68, 25
1, 26236, Note_on_c, 0, 68, 0
1, 26238, Note_on_c, 0, 60, 0
1, 26240, Note_on_c, 0, 50, 0
1, 26242, Note_on_c, 0, 63, 0
1, 26243, Note_on_c, 0, 69, 0
1, 26245, Note_on_c, 0, 66, 0
1, 26288, Note_on_c, 0, 70, 62
1, 26288, Note_on_c, 0, 65, 59
1, 26289, Note_on_c, 0, 60, 48
1, 26290, Note_on_c, 0, 54, 39
1, 26292, Control_c, 0, 64, 0
1, 26319, Control_c, 0, 64, 127
1, 26350, Note_on_c, 0, 44, 40
1, 26351, Note_on_c, 0, 65, 0
1, 26356, Note_on_c, 0, 70, 0
1, 26359, Note_on_c, 0, 60, 0
1, 26368, Note_on_c, 0, 54, 0
1, 26377, Note_on_c, 0, 44, 0
1, 26414, Note_on_c, 0, 67, 40
1, 26414, Note_on_c, 0, 65, 41
1, 26414, Note_on_c, 0, 60, 40
1, 26415, Note_on_c, 0, 57, 40
1, 26416, Control_c, 0, 64, 0
1, 26416, Note_on_c, 0, 43, 36
1, 26442, Control_c, 0, 64, 127
1, 26447, Note_on_c, 0, 57, 0
1, 26447, Note_on_c, 0, 60, 0
1, 26452, Note_on_c, 0, 65, 0
1, 26461, Note_on_c, 0, 43, 0
1, 26465, Note_on_c, 0, 67, 0
1, 26533, Note_on_c, 0, 65, 71
1, 26533, Note_on_c, 0, 54, 57
1, 26534, Note_on_c, 0, 58, 55
1, 26534, Note_on_c, 0, 60, 64
1, 26537, Control_c, 0, 64, 0
1, 26552, Control_c, 0, 64, 127
1, 26594, Note_on_c, 0, 92, 80
1, 26595, Note_on_c, 0, 80, 74
1, 26595, Note_on_c, 0, 87, 81
1, 26611, Note_on_c, 0, 60, 0
1, 26618, Note_on_c, 0, 65, 0
1, 26629, Note_on_c, 0, 92, 0
1, 26630, Note_on_c, 0, 80, 0
1, 26631, Note_on_c, 0, 87, 0
1, 26635, Note_on_c, 0, 54, 0
1, 26637, Note_on_c, 0, 58, 0
1, 26653, Control_c, 0, 64, 0
1, 26654, Note_on_c, 0, 91, 70
1, 26654, Note_on_c, 0, 86, 68
1, 26655, Note_on_c, 0, 79, 60
1, 26655, Note_on_c, 0, 59, 54
1, 26656, Note_on_c, 0, 64, 53
1, 26658, Note_on_c, 0, 53, 34
1, 26666, Control_c, 0, 64, 127
1, 26669, Note_on_c, 0, 91, 0
1, 26670, Note_on_c, 0, 64, 0
1, 26672, Note_on_c, 0, 59, 0
1, 26674, Note_on_c, 0, 86, 0
1, 26676, Note_on_c, 0, 53, 0
1, 26679, Note_on_c, 0, 79, 0
1, 26718, Note_on_c, 0, 43, 57
1, 26770, Control_c, 0, 64, 0
1, 26771, Note_on_c, 0, 67, 78
1, 26772, Note_on_c, 0, 61, 83
1, 26772, Note_on_c, 0, 59, 88
1, 26773, Note_on_c, 0, 63, 67
1, 26774, Note_on_c, 0, 53, 60
1, 26774, Note_on_c, 0, 66, 51
1, 26778, Note_on_c, 0, 66, 0
1, 26806, Note_on_c, 0, 67, 0
1, 26822, Note_on_c, 0, 67, 71
1, 26842, Note_on_c, 0, 67, 0
1, 26843, Note_on_c, 0, 43, 0
1, 26853, Note_on_c, 0, 59, 0
1, 26857, Note_on_c, 0, 43, 46
1, 26857, Note_on_c, 0, 67, 63
1, 26864, Note_on_c, 0, 53, 0
1, 26874, Note_on_c, 0, 61, 0
1, 26878, Note_on_c, 0, 67, 0
1, 26886, Note_on_c, 0, 63, 0
1, 26897, Note_on_c, 0, 67, 47
1, 26897, Note_on_c, 0, 64, 53
1, 26898, Note_on_c, 0, 48, 44
1, 26898, Note_on_c, 0, 59, 44
1, 26899, Note_on_c, 0, 62, 46
1, 26993, Note_on_c, 0, 59, 0
1, 26993, Note_on_c, 0, 43, 0
1, 26999, Note_on_c, 0, 62, 0
1, 27003, Note_on_c, 0, 67, 0
1, 27007, Note_on_c, 0, 62, 51
1, 27008, Note_on_c, 0, 59, 46
1, 27011, Control_c, 0, 64, 127
1, 27050, Note_on_c, 0, 59, 0
1, 27054, Note_on_c, 0, 62, 0
1, 27057, Note_on_c, 0, 64, 0
1, 27078, Note_on_c, 0, 72, 95
1, 27080, Note_on_c, 0, 48, 0
1, 27113, Note_on_c, 0, 72, 0
1, 27119, Note_on_c, 0, 70, 68
1, 27120, Note_on_c, 0, 61, 51
1, 27121, Control_c, 0, 64, 0
1, 27122, Note_on_c, 0, 66, 59
1, 27122, Note_on_c, 0, 55, 55
1, 27124, Note_on_c, 0, 45, 37
1, 27169, Control_c, 0, 64, 127
1, 27192, Note_on_c, 0, 55, 0
1, 27201, Note_on_c, 0, 66, 0
1, 27207, Note_on_c, 0, 61, 0
1, 27224, Note_on_c, 0, 70, 0
1, 27231, Note_on_c, 0, 61, 29
1, 27233, Note_on_c, 0, 65, 32
1, 27234, Note_on_c, 0, 55, 31
1, 27247, Note_on_c, 0, 61, 0
1, 27250, Note_on_c, 0, 65, 0
1, 27276, Note_on_c, 0, 45, 0
1, 27288, Note_on_c, 0, 69, 75
1, 27289, Note_on_c, 0, 55, 0
1, 27298, Note_on_c, 0, 69, 0
1, 27315, Note_on_c, 0, 79, 96
1, 27332, Note_on_c, 0, 79, 0
1, 27350, Note_on_c, 0, 73, 39
1, 27351, Note_on_c, 0, 61, 51
1, 27351, Note_on_c, 0, 69, 50
1, 27355, Control_c, 0, 64, 0
1, 27377, Control_c, 0, 64, 127
1, 27381, Note_on_c, 0, 69, 0
1, 27384, Note_on_c, 0, 77, 58
1, 27386, Note_on_c, 0, 73, 0
1, 27394, Note_on_c, 0, 77, 0
1, 27404, Note_on_c, 0, 61, 0
1, 27420, Note_on_c, 0, 76, 50
1, 27423, Note_on_c, 0, 69, 53
1, 27425, Note_on_c, 0, 65, 29
1, 27426, Note_on_c, 0, 60, 43
1, 27427, Control_c, 0, 64, 0
1, 27446, Control_c, 0, 64, 127
1, 27451, Note_on_c, 0, 65, 0
1, 27452, Note_on_c, 0, 69, 0
1, 27456, Note_on_c, 0, 76, 0
1, 27521, Note_on_c, 0, 79, 95
1, 27524, Note_on_c, 0, 60, 0
1, 27550, Note_on_c, 0, 79, 0
1, 27595, Note_on_c, 0, 77, 71
1, 27600, Note_on_c, 0, 68, 67
1, 27600, Note_on_c, 0, 71, 51
1, 27602, Control_c, 0, 64, 0
1, 27603, Note_on_c, 0, 72, 24
1, 27606, Note_on_c, 0, 72, 0
1, 27613, Note_on_c, 0, 67, 4
1, 27628, Control_c, 0, 64, 127
1, 27647, Note_on_c, 0, 67, 0
1, 27655, Note_on_c, 0, 77, 0
1, 27657, Note_on_c, 0, 76, 64
1, 27676, Note_on_c, 0, 71, 0
1, 27680, Note_on_c, 0, 68, 0
1, 27694, Note_on_c, 0, 76, 0
1, 27716, Note_on_c, 0, 68, 42
1, 27717, Note_on_c, 0, 62, 30
1, 27718, Note_on_c, 0, 74, 39
1, 27730, Note_on_c, 0, 62, 0
1, 27752, Note_on_c, 0, 68, 0
1, 27789, Note_on_c, 0, 74, 0
1, 27815, Note_on_c, 0, 72, 35
1, 27823, Note_on_c, 0, 72, 0
1, 27840, Note_on_c, 0, 47, 27
1, 27840, Note_on_c, 0, 40, 36
1, 27840, Note_on_c, 0, 55, 35
1, 27845, Note_on_c, 0, 76, 34
1, 27846, Control_c, 0, 64, 0
1, 27872, Control_c, 0, 64, 127
1, 27876, Note_on_c, 0, 67, 41
1, 27881, Note_on_c, 0, 40, 0
1, 27882, Note_on_c, 0, 47, 0
1, 27887, Note_on_c, 0, 55, 0
1, 27963, Note_on_c, 0, 64, 27
1, 27964, Note_on_c, 0, 59, 32
1, 27964, Note_on_c, 0, 60, 32
1, 28028, Note_on_c, 0, 64, 0
1, 28030, Note_on_c, 0, 67, 0
1, 28031, Note_on_c, 0, 60, 0
1, 28031, Note_on_c, 0, 59, 0
1, 28036, Note_on_c, 0, 76, 0
1, 28079, Note_on_c, 0, 79, 77
1, 28079, Note_on_c, 0, 72, 78
1, 28081, Note_on_c, 0, 62, 51
1, 28081, Note_on_c, 0, 56, 48
1, 28081, Note_on_c, 0, 67, 71
1, 28084, Note_on_c, 0, 76, 27
1, 28085, Control_c, 0, 64, 0
1, 28087, Note_on_c, 0, 76, 0
1, 28111, Control_c, 0, 64, 127
1, 28129, Note_on_c, 0, 79, 0
1, 28132, Note_on_c, 0, 62, 0
1, 28138, Note_on_c, 0, 72, 0
1, 28139, Note_on_c, 0, 56, 0
1, 28142, Note_on_c, 0, 67, 0
1, 28198, Note_on_c, 0, 70, 52
1, 28198, Note_on_c, 0, 61, 44
1, 28200, Note_on_c, 0, 56, 25
1, 28200, Note_on_c, 0, 66, 47
1, 28202, Note_on_c, 0, 46, 25
1, 28203, Control_c, 0, 64, 0
1, 28224, Control_c, 0, 64, 127
1, 28263, Note_on_c, 0, 46, 0
1, 28266, Note_on_c, 0, 56, 0
1, 28277, Note_on_c, 0, 61, 0
1, 28284, Note_on_c, 0, 66, 0
1, 28285, Note_on_c, 0, 70, 0
1, 28323, Note_on_c, 0, 69, 46
1, 28324, Note_on_c, 0, 57, 24
1, 28325, Note_on_c, 0, 60, 29
1, 28325, Note_on_c, 0, 65, 38
1, 28326, Note_on_c, 0, 50, 32
1, 28331, Control_c, 0, 64, 0
1, 28360, Control_c, 0, 64, 127
1, 28384, Note_on_c, 0, 57, 0
1, 28388, Note_on_c, 0, 65, 0
1, 28391, Note_on_c, 0, 69, 0
1, 28394, Note_on_c, 0, 60, 0
1, 28443, Note_on_c, 0, 65, 73
1, 28444, Note_on_c, 0, 62, 64
1, 28444, Note_on_c, 0, 57, 70
1, 28445, Note_on_c, 0, 60, 69
1, 28451, Note_on_c, 0, 50, 0
1, 28504, Note_on_c, 0, 43, 91
1, 28504, Control_c, 0, 64, 0
1, 28509, Note_on_c, 0, 62, 0
1, 28511, Note_on_c, 0, 65, 0
1, 28512, Control_c, 0, 64, 127
1, 28516, Note_on_c, 0, 60, 0
1, 28520, Note_on_c, 0, 57, 0
1, 28559, Note_on_c, 0, 64, 63
1, 28560, Note_on_c, 0, 59, 62
1, 28561, Note_on_c, 0, 56, 56
1, 28561, Note_on_c, 0, 55, 57
1, 28567, Control_c, 0, 64, 0
1, 28590, Control_c, 0, 64, 127
1, 28613, Note_on_c, 0, 64, 0
1, 28620, Note_on_c, 0, 59, 0
1, 28621, Note_on_c, 0, 55, 0
1, 28624, Note_on_c, 0, 62, 64
1, 28631, Note_on_c, 0, 43, 0
1, 28632, Note_on_c, 0, 56, 0
1, 28656, Note_on_c, 0, 62, 0
1, 28675, Control_c, 0, 64, 0
1, 28677, Note_on_c, 0, 55, 37
1, 28677, Note_on_c, 0, 60, 55
1, 28677, Note_on_c, 0, 41, 51
1, 28678, Note_on_c, 0, 57, 42
1, 28683, Note_on_c, 0, 55, 0
1, 28689, Note_on_c, 0, 57, 0
1, 28690, Control_c, 0, 64, 127
1, 28693, Note_on_c, 0, 60, 0
1, 28711, Note_on_c, 0, 41, 0
1, 28740, Note_on_c, 0, 74, 81
1, 28741, Note_on_c, 0, 67, 80
1, 28760, Note_on_c, 0, 74, 0
1, 28765, Note_on_c, 0, 67, 0
1, 28796, Note_on_c, 0, 47, 19
1, 28798, Note_on_c, 0, 40, 35
1, 28798, Note_on_c, 0, 72, 37
1, 28799, Note_on_c, 0, 67, 38
1, 28800, Note_on_c, 0, 60, 39
1, 28800, Control_c, 0, 64, 0
1, 28802, Note_on_c, 0, 55, 32
1, 28846, Control_c, 0, 64, 127
1, 28853, Note_on_c, 0, 60, 0
1, 28865, Note_on_c, 0, 67, 0
1, 28866, Note_on_c, 0, 55, 0
1, 28871, Note_on_c, 0, 72, 0
1, 28929, Note_on_c, 0, 55, 30
1, 28929, Note_on_c, 0, 60, 33
1, 28929, Note_on_c, 0, 64, 30
1, 28937, Note_on_c, 0, 60, 0
1, 28943, Note_on_c, 0, 64, 0
1, 28961, Note_on_c, 0, 40, 0
1, 28966, Note_on_c, 0, 47, 0
1, 28973, Note_on_c, 0, 55, 0
1, 28988, Note_on_c, 0, 72, 51
1, 29000, Note_on_c, 0, 72, 0
1, 29012, Note_on_c, 0, 84, 84
1, 29029, Note_on_c, 0, 84, 0
1, 29036, Note_on_c, 0, 82, 74
1, 29053, Note_on_c, 0, 82, 0
1, 29058, Note_on_c, 0, 73, 54
1, 29058, Note_on_c, 0, 60, 27
1, 29059, Note_on_c, 0, 65, 29
1, 29059, Note_on_c, 0, 61, 34
1, 29061, Control_c, 0, 64, 0
1, 29062, Note_on_c, 0, 55, 37
1, 29078, Note_on_c, 0, 73, 0
1, 29083, Note_on_c, 0, 72, 36
1, 29101, Note_on_c, 0, 72, 0
1, 29105, Note_on_c, 0, 70, 50
1, 29126, Control_c, 0, 64, 127
1, 29152, Note_on_c, 0, 65, 0
1, 29159, Note_on_c, 0, 61, 0
1, 29162, Note_on_c, 0, 60, 0
1, 29175, Note_on_c, 0, 65, 35
1, 29175, Note_on_c, 0, 60, 13
1, 29179, Note_on_c, 0, 61, 10
1, 29209, Note_on_c, 0, 70, 0
1, 29223, Note_on_c, 0, 65, 0
1, 29233, Note_on_c, 0, 60, 0
1, 29237, Note_on_c, 0, 61, 0
1, 29238, Note_on_c, 0, 69, 38
1, 29242, Note_on_c, 0, 55, 0
1, 29247, Note_on_c, 0, 69, 0
1, 29256, Note_on_c, 0, 70, 51
1, 29268, Note_on_c, 0, 70, 0
1, 29272, Note_on_c, 0, 71, 47
1, 29284, Note_on_c, 0, 71, 0
1, 29288, Note_on_c, 0, 72, 65
1, 29295, Note_on_c, 0, 64, 28
1, 29295, Note_on_c, 0, 60, 24
1, 29296, Control_c, 0, 64, 0
1, 29297, Note_on_c, 0, 54, 33
1, 29310, Note_on_c, 0, 68, 27
1, 29318, Note_on_c, 0, 64, 0
1, 29319, Control_c, 0, 64, 127
1, 29326, Note_on_c, 0, 60, 0
1, 29332, Note_on_c, 0, 72, 0
1, 29336, Note_on_c, 0, 68, 0
1, 29337, Note_on_c, 0, 54, 0
1, 29343, Note_on_c, 0, 60, 26
1, 29402, Note_on_c, 0, 60, 0
1, 29407, Note_on_c, 0, 44, 31
1, 29472, Note_on_c, 0, 64, 35
1, 29473, Note_on_c, 0, 54, 27
1, 29487, Note_on_c, 0, 44, 0
1, 29502, Note_on_c, 0, 54, 0
1, 29502, Note_on_c, 0, 64, 0
1, 29520, Note_on_c, 0, 43, 43
1, 29524, Note_on_c, 0, 62, 27
1, 29524, Note_on_c, 0, 60, 25
1, 29528, Control_c, 0, 64, 0
1, 29529, Note_on_c, 0, 60, 0
1, 29536, Note_on_c, 0, 62, 0
1, 29536, Note_on_c, 0, 43, 0
1, 29601, Note_on_c, 0, 60, 47
1, 29612, Control_c, 0, 64, 127
1, 29613, Note_on_c, 0, 60, 0
1, 29637, Control_c, 0, 64, 0
1, 29641, Note_on_c, 0, 43, 36
1, 29643, Note_on_c, 0, 52, 19
1, 29643, Note_on_c, 0, 56, 28
1, 29643, Note_on_c, 0, 59, 32
1, 29656, Note_on_c, 0, 52, 0
1, 29656, Note_on_c, 0, 43, 0
1, 29658, Note_on_c, 0, 59, 0
1, 29659, Note_on_c, 0, 56, 0
1, 29687, Control_c, 0, 64, 127
1, 29702, Control_c, 0, 64, 0
1, 29712, Note_on_c, 0, 43, 37
1, 29714, Control_c, 0, 64, 127
1, 29735, Note_on_c, 0, 43, 0
1, 29753, Control_c, 0, 64, 0
1, 29753, Note_on_c, 0, 36, 34
1, 29755, Note_on_c, 0, 60, 22
1, 29758, Note_on_c, 0, 55, 26
1, 29780, Note_on_c, 0, 52, 1
1, 29795, Note_on_c, 0, 55, 0
1, 29833, Note_on_c, 0, 43, 25
1, 29869, Note_on_c, 0, 43, 0
1, 29877, Note_on_c, 0, 45, 22
1, 29954, Note_on_c, 0, 43, 29
1, 29964, Note_on_c, 0, 36, 0
1, 29996, Note_on_c, 0, 52, 0
1, 29998, Note_on_c, 0, 37, 33
1, 30001, Note_on_c, 0, 43, 0
1, 30007, Note_on_c, 0, 45, 0
1, 30016, Note_on_c, 0, 60, 0
1, 30072, Note_on_c, 0, 43, 33
1, 30117, Note_on_c, 0, 61, 37
1, 30117, Note_on_c, 0, 64, 45
1, 30118, Note_on_c, 0, 55, 45
1, 30118, Note_on_c, 0, 58, 38
1, 30119, Note_on_c, 0, 43, 0
1, 30120, Note_on_c, 0, 45, 35
1, 30127, Note_on_c, 0, 55, 0
1, 30129, Note_on_c, 0, 64, 0
1, 30129, Note_on_c, 0, 58, 0
1, 30130, Note_on_c, 0, 61, 0
1, 30158, Note_on_c, 0, 64, 35
1, 30158, Note_on_c, 0, 61, 38
1, 30158, Note_on_c, 0, 58, 42
1, 30161, Note_on_c, 0, 55, 24
1, 30164, Note_on_c, 0, 55, 0
1, 30166, Note_on_c, 0, 64, 0
1, 30168, Note_on_c, 0, 58, 0
1, 30170, Note_on_c, 0, 61, 0
1, 30198, Note_on_c, 0, 43, 28
1, 30209, Note_on_c, 0, 37, 0
1, 30235, Note_on_c, 0, 43, 0
1, 30237, Note_on_c, 0, 64, 37
1, 30237, Note_on_c, 0, 57, 44
1, 30238, Note_on_c, 0, 60, 39
1, 30238, Note_on_c, 0, 38, 48
1, 30239, Note_on_c, 0, 45, 0
1, 30239, Note_on_c, 0, 53, 19
1, 30318, Note_on_c, 0, 43, 26
1, 30361, Note_on_c, 0, 43, 0
1, 30362, Note_on_c, 0, 45, 47
1, 30396, Control_c, 0, 64, 127
1, 30432, Note_on_c, 0, 45, 0
1, 30435, Note_on_c, 0, 43, 46
1, 30437, Note_on_c, 0, 38, 0
1, 30447, Note_on_c, 0, 43, 0
1, 30475, Note_on_c, 0, 31, 65
1, 30476, Control_c, 0, 64, 0
1, 30495, Control_c, 0, 64, 127
1, 30506, Note_on_c, 0, 31, 0
1, 30555, Note_on_c, 0, 43, 43
1, 30562, Note_on_c, 0, 53, 0
1, 30563, Note_on_c, 0, 57, 0
1, 30566, Note_on_c, 0, 60, 0
1, 30574, Note_on_c, 0, 64, 0
1, 30598, Note_on_c, 0, 64, 55
1, 30599, Note_on_c, 0, 56, 50
1, 30600, Note_on_c, 0, 43, 0
1, 30600, Control_c, 0, 64, 0
1, 30600, Note_on_c, 0, 53, 47
1, 30600, Note_on_c, 0, 59, 57
1, 30601, Note_on_c, 0, 45, 36
1, 30605, Note_on_c, 0, 53, 0
1, 30611, Note_on_c, 0, 56, 0
1, 30613, Note_on_c, 0, 64, 0
1, 30613, Note_on_c, 0, 59, 0
1, 30638, Note_on_c, 0, 56, 37
1, 30638, Note_on_c, 0, 64, 36
1, 30639, Note_on_c, 0, 59, 50
1, 30640, Control_c, 0, 64, 127
1, 30649, Note_on_c, 0, 64, 0
1, 30651, Note_on_c, 0, 59, 0
1, 30651, Note_on_c, 0, 56, 0
1, 30661, Control_c, 0, 64, 0
1, 30664, Control_c, 0, 64, 127
1, 30672, Note_on_c, 0, 45, 0
1, 30673, Note_on_c, 0, 43, 35
1, 30717, Note_on_c, 0, 43, 0
1, 30717, Control_c, 0, 64, 0
1, 30717, Note_on_c, 0, 64, 28
1, 30717, Note_on_c, 0, 60, 46
1, 30719, Note_on_c, 0, 36, 37
1, 30719, Note_on_c, 0, 55, 22
1, 30794, Note_on_c, 0, 43, 39
1, 30820, Control_c, 0, 64, 127
1, 30832, Control_c, 0, 64, 0
1, 30836, Note_on_c, 0, 43, 0
1, 30837, Note_on_c, 0, 45, 66
1, 30878, Control_c, 0, 64, 127
1, 30914, Note_on_c, 0, 64, 0
1, 30915, Note_on_c, 0, 43, 46
1, 30916, Note_on_c, 0, 55, 0
1, 30917, Note_on_c, 0, 36, 0
1, 30918, Note_on_c, 0, 60, 0
1, 30942, Note_on_c, 0, 45, 0
1, 30957, Control_c, 0, 64, 0
1, 30958, Note_on_c, 0, 64, 35
1, 30959, Note_on_c, 0, 43, 0
1, 30959, Note_on_c, 0, 58, 35
1, 30959, Note_on_c, 0, 37, 37
1, 30961, Note_on_c, 0, 55, 22
1, 31032, Note_on_c, 0, 55, 0
1, 31038, Note_on_c, 0, 58, 0
1, 31038, Note_on_c, 0, 43, 35
1, 31044, Note_on_c, 0, 64, 0
1, 31047, Control_c, 0, 64, 127
1, 31080, Note_on_c, 0, 75, 67
1, 31081, Note_on_c, 0, 43, 0
1, 31083, Control_c, 0, 64, 0
1, 31083, Note_on_c, 0, 45, 38
1, 31088, Note_on_c, 0, 75, 0
1, 31090, Note_on_c, 0, 76, 54
1, 31107, Note_on_c, 0, 76, 0
1, 31121, Note_on_c, 0, 77, 90
1, 31147, Note_on_c, 0, 77, 0
1, 31147, Control_c, 0, 64, 127
1, 31155, Note_on_c, 0, 76, 82
1, 31158, Note_on_c, 0, 43, 51
1, 31158, Note_on_c, 0, 77, 31
1, 31172, Note_on_c, 0, 37, 0
1, 31184, Note_on_c, 0, 77, 0
1, 31189, Note_on_c, 0, 76, 0
1, 31195, Note_on_c, 0, 43, 0
1, 31197, Note_on_c, 0, 67, 32
1, 31197, Control_c, 0, 64, 0
1, 31199, Note_on_c, 0, 38, 41
1, 31207, Note_on_c, 0, 45, 0
1, 31229, Note_on_c, 0, 67, 0
1, 31241, Note_on_c, 0, 67, 43
1, 31245, Note_on_c, 0, 67, 0
1, 31278, Note_on_c, 0, 43, 32
1, 31298, Control_c, 0, 64, 127
1, 31314, Control_c, 0, 64, 0
1, 31317, Note_on_c, 0, 45, 70
1, 31319, Note_on_c, 0, 43, 0
1, 31336, Control_c, 0, 64, 127
1, 31370, Note_on_c, 0, 38, 0
1, 31394, Note_on_c, 0, 45, 0
1, 31397, Note_on_c, 0, 43, 34
1, 31402, Note_on_c, 0, 43, 0
1, 31438, Control_c, 0, 64, 0
1, 31440, Note_on_c, 0, 31, 51
1, 31441, Note_on_c, 0, 63, 37
1, 31442, Note_on_c, 0, 59, 36
1, 31442, Note_on_c, 0, 67, 28
1, 31458, Note_on_c, 0, 59, 0
1, 31458, Note_on_c, 0, 31, 0
1, 31459, Note_on_c, 0, 67, 0
1, 31463, Note_on_c, 0, 63, 0
1, 31519, Control_c, 0, 64, 127
1, 31522, Note_on_c, 0, 31, 38
1, 31548, Control_c, 0, 64, 0
1, 31564, Note_on_c, 0, 67, 43
1, 31565, Note_on_c, 0, 63, 44
1, 31565, Note_on_c, 0, 59, 44
1, 31568, Note_on_c, 0, 31, 0
1, 31570, Note_on_c, 0, 59, 0
1, 31574, Note_on_c, 0, 63, 0
1, 31574, Note_on_c, 0, 67, 0
1, 31599, Note_on_c, 0, 47, 60
1, 31611, Note_on_c, 0, 47, 0
1, 31630, Control_c, 0, 64, 127
1, 31640, Note_on_c, 0, 41, 55
1, 31640, Note_on_c, 0, 53, 54
1, 31657, Note_on_c, 0, 53, 0
1, 31659, Note_on_c, 0, 41, 0
1, 31660, Control_c, 0, 64, 0
1, 31680, Note_on_c, 0, 52, 35
1, 31680, Note_on_c, 0, 40, 46
1, 31722, Note_on_c, 0, 40, 0
1, 31740, Note_on_c, 0, 52, 0
1, 31841, Note_on_c, 0, 67, 71
1, 31841, Note_on_c, 0, 62, 79
1, 31843, Note_on_c, 0, 40, 71
1, 31843, Note_on_c, 0, 55, 73
1, 31845, Control_c, 0, 64, 0
1, 31849, Control_c, 0, 64, 127
1, 31856, Note_on_c, 0, 55, 0
1, 31858, Note_on_c, 0, 40, 0
1, 31863, Note_on_c, 0, 62, 0
1, 31865, Note_on_c, 0, 67, 0
1, 31917, Note_on_c, 0, 70, 86
1, 31918, Note_on_c, 0, 61, 90
1, 31918, Note_on_c, 0, 66, 87
1, 31918, Note_on_c, 0, 45, 84
1, 31918, Note_on_c, 0, 55, 89
1, 31922, Control_c, 0, 64, 0
1, 31945, Control_c, 0, 64, 127
1, 31981, Note_on_c, 0, 55, 0
1, 31984, Note_on_c, 0, 61, 0
1, 31988, Note_on_c, 0, 70, 0
1, 31989, Note_on_c, 0, 66, 0
1, 31994, Note_on_c, 0, 72, 77
1, 31998, Note_on_c, 0, 55, 56
1, 32020, Note_on_c, 0, 72, 0
1, 32027, Note_on_c, 0, 55, 0
1, 32037, Note_on_c, 0, 70, 67
1, 32038, Note_on_c, 0, 61, 42
1, 32038, Note_on_c, 0, 66, 60
1, 32040, Control_c, 0, 64, 0
1, 32040, Note_on_c, 0, 52, 38
1, 32045, Control_c, 0, 64, 127
1, 32065, Note_on_c, 0, 52, 0
1, 32070, Note_on_c, 0, 45, 0
1, 32085, Note_on_c, 0, 61, 0
1, 32105, Note_on_c, 0, 66, 0
1, 32106, Note_on_c, 0, 70, 0
1, 32157, Note_on_c, 0, 38, 43
1, 32158, Note_on_c, 0, 26, 43
1, 32158, Note_on_c, 0, 69, 46
1, 32160, Note_on_c, 0, 60, 27
1, 32161, Note_on_c, 0, 65, 32
1, 32165, Control_c, 0, 64, 0
1, 32168, Note_on_c, 0, 65, 0
1, 32168, Note_on_c, 0, 60, 0
1, 32170, Note_on_c, 0, 69, 0
1, 32174, Note_on_c, 0, 26, 0
1, 32181, Note_on_c, 0, 38, 0
1, 32238, Note_on_c, 0, 28, 35
1, 32239, Note_on_c, 0, 40, 32
1, 32251, Note_on_c, 0, 28, 0
1, 32258, Control_c, 0, 64, 127
1, 32259, Note_on_c, 0, 40, 0
1, 32278, Control_c, 0, 64, 0
1, 32281, Note_on_c, 0, 41, 38
1, 32282, Note_on_c, 0, 77, 62
1, 32283, Note_on_c, 0, 29, 24
1, 32301, Note_on_c, 0, 29, 0
1, 32303, Note_on_c, 0, 77, 0
1, 32308, Note_on_c, 0, 41, 0
1, 32319, Note_on_c, 0, 76, 45
1, 32327, Note_on_c, 0, 76, 0
1, 32356, Note_on_c, 0, 42, 25
1, 32356, Note_on_c, 0, 67, 30
1, 32359, Note_on_c, 0, 30, 25
1, 32360, Control_c, 0, 64, 127
1, 32372, Note_on_c, 0, 67, 0
1, 32374, Note_on_c, 0, 30, 0
1, 32379, Note_on_c, 0, 42, 0
1, 32393, Control_c, 0, 64, 0
1, 32394, Note_on_c, 0, 72, 71
1, 32394, Note_on_c, 0, 43, 35
1, 32395, Note_on_c, 0, 31, 35
1, 32427, Note_on_c, 0, 31, 0
1, 32428, Note_on_c, 0, 43, 0
1, 32429, Note_on_c, 0, 72, 0
1, 32519, Control_c, 0, 64, 127
1, 32603, Note_on_c, 0, 83, 57
1, 32603, Note_on_c, 0, 78, 48
1, 32603, Note_on_c, 0, 68, 51
1, 32604, Note_on_c, 0, 71, 44
1, 32604, Note_on_c, 0, 57, 36
1, 32606, Note_on_c, 0, 63, 25
1, 32611, Note_on_c, 0, 57, 0
1, 32616, Note_on_c, 0, 63, 0
1, 32619, Note_on_c, 0, 71, 0
1, 32622, Note_on_c, 0, 68, 0
1, 32626, Note_on_c, 0, 83, 0
1, 32631, Note_on_c, 0, 78, 0
1, 32648, Control_c, 0, 64, 0
1, 32648, Note_on_c, 0, 69, 34
1, 32648, Note_on_c, 0, 84, 48
1, 32649, Note_on_c, 0, 79, 43
1, 32650, Note_on_c, 0, 72, 28
1, 32650, Note_on_c, 0, 58, 27
1, 32651, Note_on_c, 0, 64, 49
1, 32664, Control_c, 0, 64, 127
1, 32716, Note_on_c, 0, 69, 0
1, 32721, Note_on_c, 0, 72, 0
1, 32721, Note_on_c, 0, 64, 0
1, 32725, Note_on_c, 0, 58, 0
1, 32726, Note_on_c, 0, 79, 0
1, 32737, Note_on_c, 0, 84, 0
1, 32881, Note_on_c, 0, 103, 42
1, 32883, Note_on_c, 0, 102, 28
1, 32883, Note_on_c, 0, 43, 32
1, 32886, Control_c, 0, 64, 0
1, 32895, Note_on_c, 0, 102, 0
1, 32897, Note_on_c, 0, 103, 0
1, 32906, Note_on_c, 0, 43, 0
1, 32999, Note_on_c, 0, 31, 34
1, 33000, Note_on_c, 0, 102, 28
1, 33001, Note_on_c, 0, 103, 36
1, 33002, Note_on_c, 0, 30, 13
1, 33008, Note_on_c, 0, 30, 0
1, 33016, Note_on_c, 0, 102, 0
1, 33019, Note_on_c, 0, 103, 0
1, 33026, Note_on_c, 0, 31, 0
1, 33076, Note_on_c, 0, 108, 56
1, 33078, Note_on_c, 0, 24, 38
1, 33362, Note_on_c, 0, 108, 0
1, 33500, Note_on_c, 0, 24, 0
1, 34038, Lyric_t, " "
1, 34038, End_track
0, 0, End_of_file
