0, 0, Header, 1, 6, 120
1, 0, Start_track
1, 0, Title_t, "MyFunnyValentine"
1, 0, Text_t, "Doug McKenzie dougmck@pipeline.com.au\012"
1, 0, SMPTE_offset, 96, 0, 3, 0, 0
1, 0, Time_signature, 4, 2, 24, 8
1, 0, Key_signature, -3, "major"
1, 0, Tempo, 1000000
1, 0, Marker_t, "Intro - C harmonic minor (C D Eb  F G Ab B )"
1, 3591, Marker_t, "Theme begins"
1, 25096, Marker_t, "Interlude - improvisation on C harmonic Minor "
1, 26818, Marker_t, "Head played again"
1, 46865, Marker_t, "Ends on Cm - using C harmonic minor scale fragments, arpeggios etc."
1, 46865, End_track
2, 0, Start_track
2, 0, Title_t, "Played in real time "
2, 0, Program_c, 0, 0
2, 0, Note_on_c, 0, 60, 0
2, 0, Note_on_c, 0, 60, 0
2, 0, Note_on_c, 0, 60, 0
2, 0, Note_on_c, 0, 60, 0
2, 0, Note_on_c, 0, 60, 0
2, 0, Note_on_c, 0, 60, 0
2, 0, Note_on_c, 0, 60, 0
2, 0, Note_on_c, 0, 60, 0
2, 120, Note_on_c, 0, 60, 0
2, 120, Note_on_c, 0, 60, 0
2, 120, Note_on_c, 0, 60, 0
2, 120, Note_on_c, 0, 60, 0
2, 120, Note_on_c, 0, 60, 0
2, 120, Note_on_c, 0, 60, 0
2, 120, Note_on_c, 0, 60, 0
2, 120, Note_on_c, 0, 60, 0
2, 260, Note_on_c, 0, 72, 24
2, 260, Note_on_c, 0, 48, 33
2, 299, Control_c, 0, 64, 127
2, 321, Note_on_c, 0, 72, 0
2, 322, Note_on_c, 0, 74, 44
2, 325, Note_on_c, 0, 48, 0
2, 325, Note_on_c, 0, 50, 33
2, 384, Note_on_c, 0, 50, 0
2, 384, Control_c, 0, 64, 0
2, 384, Note_on_c, 0, 51, 48
2, 385, Note_on_c, 0, 75, 63
2, 390, Note_on_c, 0, 74, 0
2, 406, Control_c, 0, 64, 127
2, 438, Note_on_c, 0, 51, 0
2, 440, Note_on_c, 0, 53, 55
2, 441, Note_on_c, 0, 75, 0
2, 441, Note_on_c, 0, 77, 64
2, 444, Control_c, 0, 64, 0
2, 486, Note_on_c, 0, 51, 48
2, 489, Note_on_c, 0, 75, 56
2, 490, Note_on_c, 0, 53, 0
2, 491, Note_on_c, 0, 77, 0
2, 512, Note_on_c, 0, 75, 0
2, 515, Note_on_c, 0, 74, 50
2, 518, Note_on_c, 0, 50, 41
2, 521, Control_c, 0, 64, 127
2, 525, Note_on_c, 0, 51, 0
2, 526, Control_c, 0, 64, 0
2, 535, Note_on_c, 0, 50, 0
2, 536, Note_on_c, 0, 74, 0
2, 541, Note_on_c, 0, 72, 39
2, 542, Note_on_c, 0, 48, 34
2, 556, Control_c, 0, 64, 127
2, 652, Note_on_c, 0, 72, 0
2, 654, Note_on_c, 0, 79, 70
2, 655, Note_on_c, 0, 55, 48
2, 658, Note_on_c, 0, 48, 0
2, 659, Control_c, 0, 64, 0
2, 677, Control_c, 0, 64, 127
2, 702, Note_on_c, 0, 55, 0
2, 702, Note_on_c, 0, 79, 0
2, 705, Control_c, 0, 64, 0
2, 705, Note_on_c, 0, 53, 47
2, 706, Note_on_c, 0, 77, 68
2, 712, Control_c, 0, 64, 127
2, 749, Note_on_c, 0, 77, 0
2, 750, Control_c, 0, 64, 0
2, 754, Note_on_c, 0, 51, 56
2, 755, Note_on_c, 0, 53, 0
2, 755, Note_on_c, 0, 75, 67
2, 770, Control_c, 0, 64, 127
2, 810, Note_on_c, 0, 75, 0
2, 812, Note_on_c, 0, 51, 0
2, 816, Control_c, 0, 64, 0
2, 817, Note_on_c, 0, 50, 37
2, 818, Note_on_c, 0, 74, 41
2, 840, Control_c, 0, 64, 127
2, 887, Note_on_c, 0, 74, 0
2, 890, Note_on_c, 0, 50, 0
2, 890, Note_on_c, 0, 72, 35
2, 890, Note_on_c, 0, 48, 41
2, 967, Note_on_c, 0, 72, 0
2, 973, Note_on_c, 0, 48, 0
2, 978, Note_on_c, 0, 71, 32
2, 979, Control_c, 0, 64, 0
2, 980, Note_on_c, 0, 47, 27
2, 995, Control_c, 0, 64, 127
2, 1030, Note_on_c, 0, 71, 0
2, 1060, Note_on_c, 0, 47, 0
2, 1060, Note_on_c, 0, 68, 33
2, 1064, Note_on_c, 0, 44, 32
2, 1135, Note_on_c, 0, 68, 0
2, 1219, Note_on_c, 0, 44, 0
2, 1278, Note_on_c, 0, 67, 26
2, 1279, Note_on_c, 0, 59, 32
2, 1280, Note_on_c, 0, 62, 24
2, 1280, Note_on_c, 0, 55, 32
2, 1281, Note_on_c, 0, 43, 28
2, 1286, Note_on_c, 0, 50, 19
2, 1288, Control_c, 0, 64, 0
2, 1314, Control_c, 0, 64, 127
2, 1333, Note_on_c, 0, 55, 0
2, 1339, Note_on_c, 0, 62, 0
2, 1339, Note_on_c, 0, 59, 0
2, 1352, Note_on_c, 0, 67, 0
2, 1360, Note_on_c, 0, 50, 0
2, 1364, Note_on_c, 0, 43, 0
2, 1367, Note_on_c, 0, 55, 35
2, 1414, Note_on_c, 0, 55, 0
2, 1427, Note_on_c, 0, 62, 35
2, 1427, Note_on_c, 0, 79, 47
2, 1481, Note_on_c, 0, 67, 29
2, 1520, Note_on_c, 0, 67, 0
2, 1528, Note_on_c, 0, 71, 35
2, 1541, Note_on_c, 0, 71, 0
2, 1542, Note_on_c, 0, 79, 0
2, 1572, Note_on_c, 0, 86, 64
2, 1576, Note_on_c, 0, 67, 20
2, 1595, Note_on_c, 0, 62, 0
2, 1609, Note_on_c, 0, 74, 38
2, 1636, Note_on_c, 0, 86, 0
2, 1645, Note_on_c, 0, 62, 41
2, 1667, Note_on_c, 0, 67, 0
2, 1681, Note_on_c, 0, 79, 63
2, 1688, Note_on_c, 0, 62, 0
2, 1720, Note_on_c, 0, 86, 71
2, 1722, Note_on_c, 0, 62, 22
2, 1743, Note_on_c, 0, 86, 0
2, 1761, Note_on_c, 0, 55, 49
2, 1762, Note_on_c, 0, 86, 60
2, 1785, Note_on_c, 0, 86, 0
2, 1809, Note_on_c, 0, 86, 57
2, 1825, Note_on_c, 0, 79, 0
2, 1836, Note_on_c, 0, 86, 0
2, 1840, Note_on_c, 0, 74, 0
2, 1853, Note_on_c, 0, 86, 51
2, 1856, Note_on_c, 0, 67, 25
2, 1889, Note_on_c, 0, 55, 0
2, 1903, Note_on_c, 0, 74, 31
2, 1917, Note_on_c, 0, 86, 0
2, 1932, Note_on_c, 0, 74, 0
2, 1953, Note_on_c, 0, 87, 74
2, 1956, Note_on_c, 0, 67, 0
2, 1960, Note_on_c, 0, 62, 0
2, 1962, Note_on_c, 0, 55, 33
2, 1966, Control_c, 0, 64, 0
2, 1984, Control_c, 0, 64, 127
2, 2001, Note_on_c, 0, 80, 43
2, 2003, Note_on_c, 0, 75, 31
2, 2003, Note_on_c, 0, 63, 31
2, 2019, Note_on_c, 0, 55, 0
2, 2051, Note_on_c, 0, 68, 43
2, 2070, Note_on_c, 0, 63, 0
2, 2079, Note_on_c, 0, 68, 0
2, 2094, Note_on_c, 0, 75, 0
2, 2097, Note_on_c, 0, 80, 0
2, 2106, Note_on_c, 0, 75, 30
2, 2109, Note_on_c, 0, 80, 25
2, 2110, Note_on_c, 0, 72, 36
2, 2149, Note_on_c, 0, 75, 0
2, 2153, Note_on_c, 0, 80, 0
2, 2177, Note_on_c, 0, 75, 34
2, 2181, Note_on_c, 0, 80, 29
2, 2232, Note_on_c, 0, 72, 0
2, 2363, Note_on_c, 0, 75, 0
2, 2442, Note_on_c, 0, 80, 0
2, 2442, Note_on_c, 0, 75, 35
2, 2475, Note_on_c, 0, 87, 0
2, 2477, Note_on_c, 0, 80, 48
2, 2514, Note_on_c, 0, 87, 80
2, 2542, Note_on_c, 0, 87, 0
2, 2556, Note_on_c, 0, 87, 73
2, 2588, Note_on_c, 0, 87, 0
2, 2602, Note_on_c, 0, 87, 59
2, 2623, Note_on_c, 0, 87, 0
2, 2640, Note_on_c, 0, 87, 55
2, 2664, Note_on_c, 0, 87, 0
2, 2694, Note_on_c, 0, 87, 59
2, 2694, Note_on_c, 0, 55, 33
2, 2757, Note_on_c, 0, 80, 0
2, 2757, Note_on_c, 0, 75, 0
2, 2760, Note_on_c, 0, 62, 27
2, 2764, Note_on_c, 0, 87, 0
2, 2764, Note_on_c, 0, 86, 73
2, 2819, Note_on_c, 0, 83, 53
2, 2823, Note_on_c, 0, 74, 29
2, 2823, Note_on_c, 0, 67, 27
2, 2825, Note_on_c, 0, 86, 0
2, 2850, Note_on_c, 0, 62, 0
2, 2870, Note_on_c, 0, 83, 0
2, 2876, Note_on_c, 0, 62, 30
2, 2877, Note_on_c, 0, 67, 0
2, 2914, Note_on_c, 0, 74, 0
2, 2933, Note_on_c, 0, 74, 24
2, 2936, Note_on_c, 0, 67, 24
2, 2937, Note_on_c, 0, 79, 27
2, 2978, Note_on_c, 0, 62, 0
2, 3011, Note_on_c, 0, 67, 0
2, 3011, Note_on_c, 0, 62, 22
2, 3122, Note_on_c, 0, 71, 24
2, 3126, Note_on_c, 0, 67, 18
2, 3260, Note_on_c, 0, 79, 0
2, 3261, Note_on_c, 0, 74, 0
2, 3286, Note_on_c, 0, 71, 0
2, 3427, Note_on_c, 0, 86, 39
2, 3521, Note_on_c, 0, 67, 0
2, 3527, Note_on_c, 0, 62, 0
2, 3535, Note_on_c, 0, 86, 0
2, 3536, Note_on_c, 0, 55, 0
2, 3626, Note_on_c, 0, 84, 43
2, 3626, Note_on_c, 0, 48, 25
2, 3630, Control_c, 0, 64, 0
2, 3642, Control_c, 0, 64, 127
2, 3690, Note_on_c, 0, 48, 0
2, 3702, Note_on_c, 0, 60, 36
2, 3764, Note_on_c, 0, 60, 0
2, 3765, Note_on_c, 0, 72, 27
2, 3768, Note_on_c, 0, 63, 28
2, 3769, Note_on_c, 0, 84, 0
2, 3823, Note_on_c, 0, 72, 0
2, 3825, Note_on_c, 0, 74, 60
2, 3832, Note_on_c, 0, 67, 18
2, 3908, Note_on_c, 0, 67, 0
2, 3944, Note_on_c, 0, 67, 24
2, 3971, Note_on_c, 0, 63, 0
2, 3992, Note_on_c, 0, 75, 76
2, 3998, Note_on_c, 0, 74, 0
2, 4038, Note_on_c, 0, 63, 30
2, 4093, Note_on_c, 0, 75, 0
2, 4093, Note_on_c, 0, 67, 0
2, 4094, Note_on_c, 0, 59, 38
2, 4094, Note_on_c, 0, 74, 48
2, 4095, Note_on_c, 0, 63, 0
2, 4106, Control_c, 0, 64, 0
2, 4128, Control_c, 0, 64, 127
2, 4152, Note_on_c, 0, 75, 49
2, 4156, Note_on_c, 0, 65, 27
2, 4160, Note_on_c, 0, 74, 0
2, 4214, Note_on_c, 0, 75, 0
2, 4218, Note_on_c, 0, 74, 32
2, 4219, Note_on_c, 0, 65, 0
2, 4224, Note_on_c, 0, 68, 26
2, 4241, Note_on_c, 0, 74, 0
2, 4298, Note_on_c, 0, 59, 0
2, 4305, Note_on_c, 0, 68, 0
2, 4395, Note_on_c, 0, 92, 58
2, 4413, Note_on_c, 0, 92, 0
2, 4418, Note_on_c, 0, 83, 44
2, 4441, Note_on_c, 0, 71, 42
2, 4461, Note_on_c, 0, 83, 0
2, 4464, Note_on_c, 0, 71, 0
2, 4465, Note_on_c, 0, 89, 58
2, 4482, Note_on_c, 0, 89, 0
2, 4488, Note_on_c, 0, 80, 35
2, 4516, Note_on_c, 0, 80, 0
2, 4532, Note_on_c, 0, 86, 55
2, 4562, Note_on_c, 0, 86, 0
2, 4570, Note_on_c, 0, 65, 31
2, 4604, Note_on_c, 0, 65, 0
2, 4607, Note_on_c, 0, 80, 42
2, 4647, Note_on_c, 0, 59, 30
2, 4660, Note_on_c, 0, 80, 0
2, 4694, Note_on_c, 0, 68, 36
2, 4734, Note_on_c, 0, 59, 0
2, 4736, Note_on_c, 0, 77, 49
2, 4739, Note_on_c, 0, 68, 0
2, 4768, Note_on_c, 0, 77, 0
2, 4789, Note_on_c, 0, 65, 35
2, 4829, Note_on_c, 0, 74, 41
2, 4830, Note_on_c, 0, 65, 0
2, 4850, Note_on_c, 0, 74, 0
2, 4865, Note_on_c, 0, 62, 19
2, 4891, Note_on_c, 0, 46, 35
2, 4894, Note_on_c, 0, 62, 0
2, 4926, Note_on_c, 0, 55, 30
2, 4962, Note_on_c, 0, 62, 33
2, 4984, Note_on_c, 0, 62, 0
2, 5008, Note_on_c, 0, 74, 49
2, 5019, Note_on_c, 0, 55, 0
2, 5076, Note_on_c, 0, 62, 30
2, 5096, Note_on_c, 0, 74, 0
2, 5111, Note_on_c, 0, 62, 0
2, 5149, Note_on_c, 0, 72, 50
2, 5154, Note_on_c, 0, 60, 34
2, 5154, Note_on_c, 0, 55, 20
2, 5176, Note_on_c, 0, 72, 0
2, 5182, Note_on_c, 0, 60, 0
2, 5195, Note_on_c, 0, 74, 45
2, 5195, Note_on_c, 0, 62, 56
2, 5212, Note_on_c, 0, 74, 0
2, 5214, Note_on_c, 0, 62, 0
2, 5233, Note_on_c, 0, 63, 53
2, 5233, Note_on_c, 0, 75, 67
2, 5256, Note_on_c, 0, 75, 0
2, 5262, Note_on_c, 0, 63, 0
2, 5270, Note_on_c, 0, 46, 0
2, 5271, Note_on_c, 0, 55, 0
2, 5274, Note_on_c, 0, 74, 48
2, 5275, Note_on_c, 0, 62, 44
2, 5277, Note_on_c, 0, 45, 41
2, 5279, Control_c, 0, 64, 0
2, 5297, Note_on_c, 0, 62, 0
2, 5297, Note_on_c, 0, 74, 0
2, 5297, Control_c, 0, 64, 127
2, 5316, Note_on_c, 0, 63, 46
2, 5316, Note_on_c, 0, 75, 45
2, 5336, Note_on_c, 0, 75, 0
2, 5336, Note_on_c, 0, 63, 0
2, 5371, Note_on_c, 0, 74, 28
2, 5373, Note_on_c, 0, 62, 35
2, 5374, Note_on_c, 0, 60, 38
2, 5376, Note_on_c, 0, 67, 31
2, 5382, Note_on_c, 0, 55, 17
2, 5474, Note_on_c, 0, 55, 0
2, 5484, Note_on_c, 0, 60, 0
2, 5487, Note_on_c, 0, 62, 0
2, 5488, Note_on_c, 0, 67, 0
2, 5495, Note_on_c, 0, 74, 0
2, 5537, Note_on_c, 0, 45, 0
2, 5540, Note_on_c, 0, 74, 47
2, 5565, Note_on_c, 0, 74, 0
2, 5622, Note_on_c, 0, 74, 53
2, 5626, Note_on_c, 0, 45, 29
2, 5627, Note_on_c, 0, 67, 40
2, 5630, Note_on_c, 0, 62, 39
2, 5631, Note_on_c, 0, 60, 45
2, 5633, Note_on_c, 0, 55, 36
2, 5638, Control_c, 0, 64, 0
2, 5659, Control_c, 0, 64, 127
2, 5700, Note_on_c, 0, 74, 0
2, 5712, Note_on_c, 0, 74, 51
2, 5762, Note_on_c, 0, 74, 0
2, 5811, Note_on_c, 0, 74, 36
2, 5870, Note_on_c, 0, 55, 0
2, 5873, Note_on_c, 0, 45, 0
2, 5883, Note_on_c, 0, 60, 0
2, 5886, Note_on_c, 0, 74, 0
2, 5895, Note_on_c, 0, 62, 0
2, 5925, Note_on_c, 0, 72, 48
2, 5947, Note_on_c, 0, 67, 0
2, 5959, Note_on_c, 0, 72, 0
2, 6083, Note_on_c, 0, 72, 31
2, 6085, Note_on_c, 0, 67, 33
2, 6086, Note_on_c, 0, 62, 35
2, 6086, Note_on_c, 0, 60, 39
2, 6088, Note_on_c, 0, 44, 31
2, 6088, Note_on_c, 0, 51, 32
2, 6094, Control_c, 0, 64, 0
2, 6124, Control_c, 0, 64, 127
2, 6255, Note_on_c, 0, 72, 0
2, 6270, Note_on_c, 0, 60, 0
2, 6274, Note_on_c, 0, 62, 0
2, 6285, Note_on_c, 0, 67, 0
2, 6309, Note_on_c, 0, 74, 52
2, 6337, Note_on_c, 0, 74, 0
2, 6363, Note_on_c, 0, 75, 56
2, 6395, Note_on_c, 0, 75, 0
2, 6410, Note_on_c, 0, 51, 0
2, 6422, Note_on_c, 0, 44, 0
2, 6635, Note_on_c, 0, 41, 38
2, 6648, Note_on_c, 0, 48, 36
2, 6652, Note_on_c, 0, 56, 36
2, 6660, Note_on_c, 0, 63, 46
2, 6666, Note_on_c, 0, 55, 37
2, 6676, Note_on_c, 0, 70, 40
2, 6680, Control_c, 0, 64, 0
2, 6719, Control_c, 0, 64, 127
2, 6785, Note_on_c, 0, 68, 64
2, 6797, Note_on_c, 0, 70, 0
2, 6892, Note_on_c, 0, 68, 0
2, 7023, Note_on_c, 0, 55, 0
2, 7033, Note_on_c, 0, 56, 0
2, 7069, Note_on_c, 0, 63, 0
2, 7072, Note_on_c, 0, 67, 32
2, 7079, Note_on_c, 0, 67, 0
2, 7086, Note_on_c, 0, 41, 0
2, 7092, Note_on_c, 0, 48, 0
2, 7181, Note_on_c, 0, 65, 32
2, 7182, Note_on_c, 0, 60, 27
2, 7183, Control_c, 0, 64, 0
2, 7187, Note_on_c, 0, 50, 35
2, 7205, Control_c, 0, 64, 127
2, 7217, Note_on_c, 0, 60, 0
2, 7221, Note_on_c, 0, 65, 0
2, 7232, Note_on_c, 0, 56, 36
2, 7273, Note_on_c, 0, 70, 37
2, 7275, Note_on_c, 0, 77, 55
2, 7276, Note_on_c, 0, 56, 0
2, 7279, Note_on_c, 0, 60, 19
2, 7290, Note_on_c, 0, 50, 0
2, 7312, Note_on_c, 0, 60, 0
2, 7321, Note_on_c, 0, 77, 0
2, 7325, Note_on_c, 0, 74, 34
2, 7326, Note_on_c, 0, 65, 44
2, 7328, Note_on_c, 0, 60, 35
2, 7343, Note_on_c, 0, 65, 0
2, 7349, Note_on_c, 0, 70, 0
2, 7352, Note_on_c, 0, 74, 0
2, 7387, Note_on_c, 0, 89, 58
2, 7387, Note_on_c, 0, 82, 52
2, 7387, Note_on_c, 0, 65, 33
2, 7431, Note_on_c, 0, 82, 0
2, 7434, Note_on_c, 0, 65, 0
2, 7434, Note_on_c, 0, 89, 0
2, 7440, Note_on_c, 0, 86, 55
2, 7442, Note_on_c, 0, 54, 58
2, 7443, Note_on_c, 0, 77, 45
2, 7444, Note_on_c, 0, 60, 0
2, 7462, Note_on_c, 0, 86, 0
2, 7472, Note_on_c, 0, 77, 0
2, 7512, Note_on_c, 0, 74, 34
2, 7514, Note_on_c, 0, 70, 26
2, 7515, Note_on_c, 0, 60, 42
2, 7515, Note_on_c, 0, 65, 32
2, 7614, Note_on_c, 0, 74, 0
2, 7629, Note_on_c, 0, 70, 0
2, 7637, Note_on_c, 0, 60, 0
2, 7640, Note_on_c, 0, 65, 0
2, 7679, Note_on_c, 0, 54, 0
2, 7707, Note_on_c, 0, 65, 49
2, 7863, Note_on_c, 0, 59, 33
2, 7864, Note_on_c, 0, 61, 44
2, 7869, Note_on_c, 0, 43, 41
2, 7872, Note_on_c, 0, 53, 32
2, 7875, Control_c, 0, 64, 0
2, 7916, Control_c, 0, 64, 127
2, 7943, Note_on_c, 0, 59, 0
2, 7944, Note_on_c, 0, 53, 0
2, 7953, Note_on_c, 0, 61, 0
2, 7974, Note_on_c, 0, 65, 0
2, 7978, Note_on_c, 0, 62, 41
2, 7979, Note_on_c, 0, 59, 50
2, 7980, Note_on_c, 0, 53, 37
2, 7986, Control_c, 0, 64, 0
2, 8002, Control_c, 0, 64, 127
2, 8028, Note_on_c, 0, 59, 0
2, 8034, Note_on_c, 0, 43, 0
2, 8038, Note_on_c, 0, 53, 0
2, 8045, Note_on_c, 0, 62, 0
2, 8139, Note_on_c, 0, 63, 29
2, 8139, Note_on_c, 0, 56, 27
2, 8139, Note_on_c, 0, 43, 32
2, 8140, Note_on_c, 0, 59, 37
2, 8142, Control_c, 0, 64, 0
2, 8143, Note_on_c, 0, 53, 24
2, 8177, Control_c, 0, 64, 127
2, 8221, Note_on_c, 0, 53, 0
2, 8233, Note_on_c, 0, 43, 0
2, 8237, Note_on_c, 0, 59, 0
2, 8241, Note_on_c, 0, 56, 0
2, 8264, Note_on_c, 0, 63, 0
2, 8364, Note_on_c, 0, 65, 27
2, 8364, Note_on_c, 0, 43, 25
2, 8365, Note_on_c, 0, 56, 21
2, 8367, Note_on_c, 0, 59, 40
2, 8369, Note_on_c, 0, 62, 25
2, 8370, Note_on_c, 0, 53, 25
2, 8370, Control_c, 0, 64, 0
2, 8410, Control_c, 0, 64, 127
2, 8461, Note_on_c, 0, 56, 0
2, 8462, Note_on_c, 0, 62, 0
2, 8462, Note_on_c, 0, 59, 0
2, 8475, Note_on_c, 0, 65, 0
2, 8525, Note_on_c, 0, 43, 0
2, 8532, Note_on_c, 0, 53, 0
2, 8648, Note_on_c, 0, 86, 37
2, 8655, Note_on_c, 0, 74, 31
2, 8673, Note_on_c, 0, 86, 0
2, 8679, Note_on_c, 0, 74, 0
2, 8701, Note_on_c, 0, 87, 49
2, 8701, Note_on_c, 0, 75, 32
2, 8704, Note_on_c, 0, 48, 30
2, 8708, Control_c, 0, 64, 0
2, 8733, Control_c, 0, 64, 127
2, 8757, Note_on_c, 0, 48, 0
2, 8769, Note_on_c, 0, 60, 32
2, 8823, Note_on_c, 0, 60, 0
2, 8827, Note_on_c, 0, 63, 35
2, 8830, Note_on_c, 0, 75, 0
2, 8834, Note_on_c, 0, 87, 0
2, 8883, Note_on_c, 0, 89, 59
2, 8885, Note_on_c, 0, 77, 36
2, 8889, Note_on_c, 0, 67, 24
2, 8989, Note_on_c, 0, 74, 36
2, 9026, Note_on_c, 0, 67, 0
2, 9045, Note_on_c, 0, 67, 26
2, 9053, Note_on_c, 0, 74, 0
2, 9054, Note_on_c, 0, 89, 0
2, 9064, Note_on_c, 0, 77, 0
2, 9123, Note_on_c, 0, 91, 55
2, 9124, Note_on_c, 0, 79, 48
2, 9126, Note_on_c, 0, 72, 28
2, 9132, Note_on_c, 0, 67, 0
2, 9205, Note_on_c, 0, 72, 0
2, 9268, Note_on_c, 0, 67, 32
2, 9361, Note_on_c, 0, 91, 0
2, 9375, Note_on_c, 0, 79, 0
2, 9379, Note_on_c, 0, 63, 0
2, 9425, Note_on_c, 0, 59, 41
2, 9426, Note_on_c, 0, 89, 50
2, 9428, Note_on_c, 0, 77, 34
2, 9429, Note_on_c, 0, 67, 0
2, 9437, Control_c, 0, 64, 0
2, 9449, Control_c, 0, 64, 127
2, 9468, Note_on_c, 0, 89, 0
2, 9485, Note_on_c, 0, 77, 0
2, 9503, Note_on_c, 0, 91, 42
2, 9503, Note_on_c, 0, 79, 33
2, 9506, Note_on_c, 0, 65, 40
2, 9536, Note_on_c, 0, 91, 0
2, 9541, Note_on_c, 0, 79, 0
2, 9555, Note_on_c, 0, 65, 0
2, 9557, Note_on_c, 0, 89, 48
2, 9558, Note_on_c, 0, 68, 38
2, 9560, Note_on_c, 0, 77, 29
2, 9580, Note_on_c, 0, 68, 0
2, 9610, Note_on_c, 0, 89, 0
2, 9614, Note_on_c, 0, 71, 48
2, 9621, Note_on_c, 0, 77, 0
2, 9672, Note_on_c, 0, 74, 41
2, 9693, Note_on_c, 0, 74, 0
2, 9730, Note_on_c, 0, 86, 54
2, 9747, Note_on_c, 0, 86, 0
2, 9753, Note_on_c, 0, 71, 0
2, 9795, Note_on_c, 0, 71, 33
2, 9845, Note_on_c, 0, 59, 0
2, 9986, Note_on_c, 0, 77, 32
2, 10101, Note_on_c, 0, 71, 0
2, 10107, Note_on_c, 0, 58, 31
2, 10107, Note_on_c, 0, 75, 43
2, 10114, Control_c, 0, 64, 0
2, 10116, Note_on_c, 0, 77, 0
2, 10129, Control_c, 0, 64, 127
2, 10162, Note_on_c, 0, 67, 35
2, 10176, Note_on_c, 0, 75, 0
2, 10178, Note_on_c, 0, 67, 0
2, 10211, Note_on_c, 0, 67, 32
2, 10253, Note_on_c, 0, 77, 77
2, 10285, Note_on_c, 0, 67, 0
2, 10292, Note_on_c, 0, 77, 0
2, 10304, Note_on_c, 0, 67, 35
2, 10305, Note_on_c, 0, 77, 70
2, 10353, Note_on_c, 0, 77, 0
2, 10358, Note_on_c, 0, 79, 79
2, 10397, Note_on_c, 0, 79, 0
2, 10397, Note_on_c, 0, 67, 0
2, 10418, Note_on_c, 0, 79, 63
2, 10421, Note_on_c, 0, 67, 30
2, 10426, Note_on_c, 0, 72, 24
2, 10444, Note_on_c, 0, 58, 0
2, 10503, Note_on_c, 0, 58, 26
2, 10532, Note_on_c, 0, 72, 0
2, 10536, Note_on_c, 0, 79, 0
2, 10543, Note_on_c, 0, 77, 50
2, 10570, Note_on_c, 0, 75, 38
2, 10575, Note_on_c, 0, 77, 0
2, 10592, Note_on_c, 0, 58, 0
2, 10594, Note_on_c, 0, 67, 0
2, 10599, Note_on_c, 0, 77, 69
2, 10602, Note_on_c, 0, 75, 0
2, 10603, Control_c, 0, 64, 0
2, 10605, Note_on_c, 0, 57, 24
2, 10627, Control_c, 0, 64, 127
2, 10649, Note_on_c, 0, 77, 0
2, 10650, Note_on_c, 0, 79, 70
2, 10652, Note_on_c, 0, 63, 31
2, 10695, Note_on_c, 0, 79, 0
2, 10700, Note_on_c, 0, 77, 34
2, 10701, Note_on_c, 0, 63, 0
2, 10703, Note_on_c, 0, 72, 31
2, 10705, Note_on_c, 0, 67, 29
2, 10766, Note_on_c, 0, 63, 25
2, 10785, Note_on_c, 0, 72, 0
2, 10794, Note_on_c, 0, 67, 0
2, 10835, Note_on_c, 0, 67, 26
2, 10836, Note_on_c, 0, 72, 30
2, 10860, Note_on_c, 0, 57, 0
2, 10901, Note_on_c, 0, 72, 0
2, 10905, Note_on_c, 0, 77, 0
2, 10905, Note_on_c, 0, 57, 30
2, 10932, Note_on_c, 0, 67, 0
2, 10933, Note_on_c, 0, 63, 0
2, 10940, Note_on_c, 0, 57, 0
2, 10971, Note_on_c, 0, 67, 39
2, 11044, Note_on_c, 0, 55, 27
2, 11045, Note_on_c, 0, 60, 44
2, 11047, Note_on_c, 0, 45, 24
2, 11072, Note_on_c, 0, 67, 0
2, 11073, Note_on_c, 0, 45, 0
2, 11075, Note_on_c, 0, 60, 0
2, 11080, Note_on_c, 0, 55, 0
2, 11182, Note_on_c, 0, 63, 19
2, 11184, Note_on_c, 0, 58, 33
2, 11185, Note_on_c, 0, 32, 36
2, 11186, Note_on_c, 0, 60, 42
2, 11186, Note_on_c, 0, 53, 31
2, 11186, Note_on_c, 0, 55, 30
2, 11190, Note_on_c, 0, 44, 19
2, 11199, Control_c, 0, 64, 0
2, 11246, Control_c, 0, 64, 127
2, 11318, Note_on_c, 0, 55, 0
2, 11318, Note_on_c, 0, 53, 0
2, 11322, Note_on_c, 0, 60, 0
2, 11328, Note_on_c, 0, 58, 0
2, 11337, Note_on_c, 0, 63, 0
2, 11396, Note_on_c, 0, 75, 77
2, 11403, Note_on_c, 0, 32, 0
2, 11417, Note_on_c, 0, 44, 0
2, 11445, Note_on_c, 0, 77, 73
2, 11448, Note_on_c, 0, 75, 0
2, 11498, Note_on_c, 0, 77, 0
2, 11505, Note_on_c, 0, 79, 60
2, 11553, Note_on_c, 0, 79, 0
2, 11695, Note_on_c, 0, 86, 51
2, 11697, Note_on_c, 0, 53, 30
2, 11699, Note_on_c, 0, 80, 39
2, 11699, Note_on_c, 0, 72, 25
2, 11701, Control_c, 0, 64, 0
2, 11724, Control_c, 0, 64, 127
2, 11752, Note_on_c, 0, 72, 0
2, 11759, Note_on_c, 0, 86, 0
2, 11765, Note_on_c, 0, 80, 0
2, 11773, Note_on_c, 0, 60, 38
2, 11774, Note_on_c, 0, 86, 62
2, 11807, Note_on_c, 0, 86, 0
2, 11828, Note_on_c, 0, 53, 0
2, 11856, Note_on_c, 0, 65, 35
2, 11857, Note_on_c, 0, 86, 48
2, 11861, Note_on_c, 0, 60, 0
2, 11928, Note_on_c, 0, 67, 26
2, 11929, Note_on_c, 0, 65, 0
2, 11954, Note_on_c, 0, 67, 0
2, 12007, Note_on_c, 0, 68, 30
2, 12007, Note_on_c, 0, 80, 35
2, 12008, Note_on_c, 0, 86, 0
2, 12008, Note_on_c, 0, 72, 34
2, 12085, Note_on_c, 0, 84, 68
2, 12129, Note_on_c, 0, 84, 0
2, 12140, Note_on_c, 0, 82, 69
2, 12153, Note_on_c, 0, 80, 0
2, 12208, Note_on_c, 0, 72, 0
2, 12221, Note_on_c, 0, 68, 0
2, 12321, Note_on_c, 0, 82, 0
2, 12326, Note_on_c, 0, 81, 54
2, 12383, Note_on_c, 0, 81, 0
2, 12470, Note_on_c, 0, 68, 37
2, 12472, Note_on_c, 0, 61, 32
2, 12474, Note_on_c, 0, 51, 26
2, 12474, Note_on_c, 0, 65, 49
2, 12476, Note_on_c, 0, 57, 32
2, 12478, Note_on_c, 0, 47, 44
2, 12481, Control_c, 0, 64, 0
2, 12513, Control_c, 0, 64, 127
2, 12531, Note_on_c, 0, 68, 0
2, 12544, Note_on_c, 0, 68, 55
2, 12572, Note_on_c, 0, 68, 0
2, 12585, Note_on_c, 0, 57, 0
2, 12615, Note_on_c, 0, 68, 44
2, 12658, Note_on_c, 0, 68, 0
2, 12684, Note_on_c, 0, 68, 42
2, 12745, Note_on_c, 0, 65, 0
2, 12746, Note_on_c, 0, 61, 0
2, 12750, Note_on_c, 0, 68, 0
2, 12768, Note_on_c, 0, 68, 43
2, 12774, Note_on_c, 0, 57, 28
2, 12951, Note_on_c, 0, 68, 0
2, 12988, Note_on_c, 0, 57, 0
2, 13001, Note_on_c, 0, 47, 0
2, 13018, Note_on_c, 0, 68, 46
2, 13035, Note_on_c, 0, 51, 0
2, 13045, Note_on_c, 0, 68, 0
2, 13126, Control_c, 0, 64, 0
2, 13127, Note_on_c, 0, 68, 37
2, 13131, Note_on_c, 0, 56, 32
2, 13131, Note_on_c, 0, 60, 31
2, 13132, Note_on_c, 0, 46, 31
2, 13132, Note_on_c, 0, 63, 35
2, 13147, Control_c, 0, 64, 127
2, 13170, Note_on_c, 0, 60, 0
2, 13174, Note_on_c, 0, 63, 0
2, 13178, Note_on_c, 0, 68, 0
2, 13226, Note_on_c, 0, 80, 33
2, 13227, Note_on_c, 0, 68, 36
2, 13246, Note_on_c, 0, 68, 0
2, 13258, Note_on_c, 0, 80, 0
2, 13324, Note_on_c, 0, 92, 44
2, 13328, Note_on_c, 0, 80, 23
2, 13357, Note_on_c, 0, 92, 0
2, 13365, Note_on_c, 0, 80, 0
2, 13443, Note_on_c, 0, 68, 42
2, 13486, Note_on_c, 0, 46, 0
2, 13494, Note_on_c, 0, 68, 0
2, 13495, Note_on_c, 0, 56, 0
2, 13630, Note_on_c, 0, 46, 23
2, 13631, Note_on_c, 0, 67, 38
2, 13636, Note_on_c, 0, 56, 32
2, 13639, Note_on_c, 0, 62, 39
2, 13639, Note_on_c, 0, 64, 30
2, 13641, Note_on_c, 0, 59, 38
2, 13646, Control_c, 0, 64, 0
2, 13692, Control_c, 0, 64, 127
2, 13776, Note_on_c, 0, 65, 40
2, 13785, Note_on_c, 0, 64, 0
2, 13793, Note_on_c, 0, 65, 0
2, 13803, Control_c, 0, 64, 0
2, 13805, Note_on_c, 0, 70, 47
2, 13806, Note_on_c, 0, 39, 23
2, 13806, Note_on_c, 0, 46, 31
2, 13820, Control_c, 0, 64, 127
2, 13838, Note_on_c, 0, 39, 0
2, 13838, Note_on_c, 0, 59, 0
2, 13840, Note_on_c, 0, 46, 0
2, 13843, Note_on_c, 0, 62, 0
2, 13860, Note_on_c, 0, 67, 0
2, 13922, Note_on_c, 0, 70, 0
2, 13928, Note_on_c, 0, 56, 0
2, 13934, Note_on_c, 0, 46, 0
2, 13936, Note_on_c, 0, 65, 20
2, 13938, Note_on_c, 0, 58, 29
2, 13940, Note_on_c, 0, 60, 22
2, 13998, Note_on_c, 0, 60, 0
2, 14010, Note_on_c, 0, 58, 0
2, 14012, Note_on_c, 0, 65, 0
2, 14019, Note_on_c, 0, 75, 47
2, 14025, Note_on_c, 0, 75, 0
2, 14028, Note_on_c, 0, 77, 52
2, 14039, Note_on_c, 0, 77, 0
2, 14039, Note_on_c, 0, 75, 52
2, 14046, Note_on_c, 0, 75, 0
2, 14051, Note_on_c, 0, 77, 35
2, 14057, Note_on_c, 0, 77, 0
2, 14058, Note_on_c, 0, 75, 39
2, 14064, Note_on_c, 0, 75, 0
2, 14070, Note_on_c, 0, 77, 36
2, 14077, Note_on_c, 0, 75, 38
2, 14080, Note_on_c, 0, 77, 0
2, 14091, Note_on_c, 0, 75, 0
2, 14093, Note_on_c, 0, 74, 51
2, 14099, Note_on_c, 0, 58, 21
2, 14099, Note_on_c, 0, 68, 23
2, 14100, Note_on_c, 0, 63, 36
2, 14101, Control_c, 0, 64, 0
2, 14102, Note_on_c, 0, 60, 42
2, 14103, Note_on_c, 0, 74, 0
2, 14106, Note_on_c, 0, 75, 60
2, 14134, Control_c, 0, 64, 127
2, 14178, Note_on_c, 0, 60, 0
2, 14193, Note_on_c, 0, 63, 0
2, 14194, Note_on_c, 0, 68, 0
2, 14263, Note_on_c, 0, 58, 0
2, 14340, Note_on_c, 0, 75, 0
2, 14340, Note_on_c, 0, 74, 26
2, 14409, Note_on_c, 0, 74, 0
2, 14413, Note_on_c, 0, 75, 50
2, 14414, Note_on_c, 0, 39, 32
2, 14414, Note_on_c, 0, 46, 33
2, 14415, Control_c, 0, 64, 0
2, 14432, Control_c, 0, 64, 127
2, 14452, Note_on_c, 0, 39, 0
2, 14455, Note_on_c, 0, 46, 0
2, 14562, Note_on_c, 0, 55, 38
2, 14563, Note_on_c, 0, 65, 24
2, 14563, Note_on_c, 0, 62, 26
2, 14564, Note_on_c, 0, 60, 32
2, 14616, Note_on_c, 0, 55, 0
2, 14622, Note_on_c, 0, 62, 0
2, 14622, Note_on_c, 0, 60, 0
2, 14628, Note_on_c, 0, 65, 0
2, 14711, Note_on_c, 0, 68, 34
2, 14713, Note_on_c, 0, 63, 36
2, 14715, Note_on_c, 0, 58, 25
2, 14716, Note_on_c, 0, 60, 36
2, 14717, Control_c, 0, 64, 0
2, 14732, Control_c, 0, 64, 127
2, 14756, Note_on_c, 0, 75, 0
2, 14790, Note_on_c, 0, 77, 20
2, 14799, Note_on_c, 0, 77, 0
2, 14805, Note_on_c, 0, 80, 55
2, 14824, Note_on_c, 0, 80, 0
2, 14824, Note_on_c, 0, 82, 71
2, 14832, Note_on_c, 0, 82, 0
2, 14842, Note_on_c, 0, 84, 72
2, 14854, Note_on_c, 0, 84, 0
2, 14856, Note_on_c, 0, 87, 59
2, 14864, Note_on_c, 0, 68, 0
2, 14869, Note_on_c, 0, 60, 0
2, 14869, Note_on_c, 0, 87, 0
2, 14869, Note_on_c, 0, 63, 0
2, 14874, Note_on_c, 0, 58, 0
2, 14879, Note_on_c, 0, 89, 62
2, 14892, Note_on_c, 0, 89, 0
2, 14897, Note_on_c, 0, 92, 69
2, 14918, Note_on_c, 0, 94, 63
2, 14919, Note_on_c, 0, 92, 0
2, 14927, Note_on_c, 0, 94, 0
2, 14940, Note_on_c, 0, 96, 64
2, 14954, Note_on_c, 0, 96, 0
2, 14959, Note_on_c, 0, 99, 53
2, 14974, Note_on_c, 0, 99, 0
2, 14982, Note_on_c, 0, 101, 57
2, 15004, Note_on_c, 0, 101, 0
2, 15014, Note_on_c, 0, 102, 61
2, 15039, Note_on_c, 0, 102, 0
2, 15043, Note_on_c, 0, 103, 49
2, 15043, Note_on_c, 0, 39, 28
2, 15044, Note_on_c, 0, 46, 34
2, 15051, Control_c, 0, 64, 0
2, 15063, Note_on_c, 0, 103, 0
2, 15070, Control_c, 0, 64, 127
2, 15077, Note_on_c, 0, 103, 53
2, 15097, Note_on_c, 0, 39, 0
2, 15100, Note_on_c, 0, 103, 0
2, 15100, Note_on_c, 0, 46, 0
2, 15110, Note_on_c, 0, 103, 46
2, 15140, Note_on_c, 0, 98, 50
2, 15157, Note_on_c, 0, 103, 0
2, 15158, Note_on_c, 0, 98, 0
2, 15187, Note_on_c, 0, 65, 35
2, 15188, Note_on_c, 0, 62, 29
2, 15189, Note_on_c, 0, 58, 28
2, 15266, Note_on_c, 0, 62, 0
2, 15268, Note_on_c, 0, 58, 0
2, 15277, Note_on_c, 0, 65, 0
2, 15334, Note_on_c, 0, 68, 36
2, 15335, Note_on_c, 0, 63, 34
2, 15337, Note_on_c, 0, 60, 39
2, 15339, Note_on_c, 0, 58, 20
2, 15342, Control_c, 0, 64, 0
2, 15357, Control_c, 0, 64, 127
2, 15378, Note_on_c, 0, 80, 65
2, 15397, Note_on_c, 0, 80, 0
2, 15400, Note_on_c, 0, 72, 61
2, 15415, Note_on_c, 0, 72, 0
2, 15420, Note_on_c, 0, 84, 88
2, 15435, Note_on_c, 0, 84, 0
2, 15455, Note_on_c, 0, 75, 67
2, 15476, Note_on_c, 0, 68, 0
2, 15488, Note_on_c, 0, 75, 0
2, 15495, Note_on_c, 0, 72, 48
2, 15501, Note_on_c, 0, 72, 0
2, 15504, Note_on_c, 0, 60, 0
2, 15511, Note_on_c, 0, 63, 0
2, 15518, Note_on_c, 0, 58, 0
2, 15533, Note_on_c, 0, 68, 49
2, 15553, Note_on_c, 0, 68, 0
2, 15583, Note_on_c, 0, 72, 76
2, 15619, Note_on_c, 0, 72, 0
2, 15623, Note_on_c, 0, 39, 38
2, 15624, Note_on_c, 0, 70, 50
2, 15627, Note_on_c, 0, 46, 28
2, 15630, Control_c, 0, 64, 0
2, 15653, Control_c, 0, 64, 127
2, 15661, Note_on_c, 0, 39, 0
2, 15661, Note_on_c, 0, 62, 30
2, 15672, Note_on_c, 0, 70, 0
2, 15712, Note_on_c, 0, 55, 33
2, 15827, Note_on_c, 0, 46, 0
2, 15855, Note_on_c, 0, 55, 0
2, 15862, Note_on_c, 0, 46, 30
2, 15865, Note_on_c, 0, 62, 0
2, 15881, Note_on_c, 0, 46, 0
2, 15921, Note_on_c, 0, 56, 32
2, 15923, Note_on_c, 0, 60, 50
2, 15924, Note_on_c, 0, 46, 32
2, 15931, Control_c, 0, 64, 0
2, 15953, Control_c, 0, 64, 127
2, 15985, Note_on_c, 0, 56, 0
2, 16002, Note_on_c, 0, 60, 0
2, 16068, Note_on_c, 0, 56, 33
2, 16142, Note_on_c, 0, 56, 0
2, 16174, Note_on_c, 0, 63, 36
2, 16182, Note_on_c, 0, 63, 0
2, 16182, Note_on_c, 0, 46, 0
2, 16195, Note_on_c, 0, 72, 67
2, 16212, Note_on_c, 0, 72, 0
2, 16223, Note_on_c, 0, 70, 55
2, 16224, Note_on_c, 0, 39, 34
2, 16226, Control_c, 0, 64, 0
2, 16249, Control_c, 0, 64, 127
2, 16256, Note_on_c, 0, 46, 33
2, 16258, Note_on_c, 0, 39, 0
2, 16279, Note_on_c, 0, 46, 0
2, 16293, Note_on_c, 0, 55, 22
2, 16321, Note_on_c, 0, 55, 0
2, 16326, Note_on_c, 0, 58, 33
2, 16362, Note_on_c, 0, 65, 39
2, 16364, Note_on_c, 0, 60, 32
2, 16442, Note_on_c, 0, 58, 0
2, 16458, Note_on_c, 0, 60, 0
2, 16459, Note_on_c, 0, 65, 0
2, 16479, Note_on_c, 0, 70, 0
2, 16511, Note_on_c, 0, 60, 32
2, 16512, Note_on_c, 0, 65, 40
2, 16513, Note_on_c, 0, 50, 36
2, 16514, Note_on_c, 0, 56, 25
2, 16519, Control_c, 0, 64, 0
2, 16539, Control_c, 0, 64, 127
2, 16550, Note_on_c, 0, 60, 0
2, 16554, Note_on_c, 0, 65, 0
2, 16595, Note_on_c, 0, 77, 83
2, 16608, Note_on_c, 0, 50, 0
2, 16629, Note_on_c, 0, 77, 0
2, 16631, Note_on_c, 0, 56, 0
2, 16661, Note_on_c, 0, 77, 78
2, 16664, Note_on_c, 0, 74, 67
2, 16664, Note_on_c, 0, 70, 80
2, 16664, Control_c, 0, 64, 0
2, 16665, Note_on_c, 0, 54, 51
2, 16666, Note_on_c, 0, 60, 55
2, 16667, Note_on_c, 0, 65, 69
2, 16683, Control_c, 0, 64, 127
2, 16710, Note_on_c, 0, 74, 0
2, 16713, Note_on_c, 0, 60, 0
2, 16715, Note_on_c, 0, 54, 0
2, 16719, Note_on_c, 0, 77, 0
2, 16724, Note_on_c, 0, 65, 0
2, 16725, Note_on_c, 0, 70, 0
2, 16774, Note_on_c, 0, 70, 47
2, 16775, Note_on_c, 0, 63, 53
2, 16776, Note_on_c, 0, 58, 42
2, 16778, Note_on_c, 0, 67, 37
2, 16778, Note_on_c, 0, 43, 31
2, 16781, Control_c, 0, 64, 0
2, 16783, Note_on_c, 0, 53, 17
2, 16800, Control_c, 0, 64, 127
2, 16809, Note_on_c, 0, 43, 0
2, 16812, Note_on_c, 0, 67, 0
2, 16818, Note_on_c, 0, 58, 0
2, 16818, Note_on_c, 0, 53, 0
2, 16822, Note_on_c, 0, 63, 0
2, 16824, Note_on_c, 0, 70, 0
2, 16847, Note_on_c, 0, 62, 30
2, 16848, Note_on_c, 0, 65, 45
2, 16850, Note_on_c, 0, 58, 39
2, 16855, Note_on_c, 0, 48, 27
2, 16855, Control_c, 0, 64, 0
2, 16872, Control_c, 0, 64, 127
2, 16886, Note_on_c, 0, 62, 0
2, 16896, Note_on_c, 0, 65, 0
2, 16904, Note_on_c, 0, 63, 28
2, 16908, Note_on_c, 0, 59, 27
2, 16911, Control_c, 0, 64, 0
2, 16913, Note_on_c, 0, 55, 16
2, 16935, Control_c, 0, 64, 127
2, 16965, Note_on_c, 0, 58, 0
2, 16973, Note_on_c, 0, 59, 0
2, 16989, Note_on_c, 0, 63, 0
2, 17000, Note_on_c, 0, 62, 36
2, 17004, Note_on_c, 0, 59, 29
2, 17007, Note_on_c, 0, 58, 19
2, 17023, Note_on_c, 0, 48, 0
2, 17030, Note_on_c, 0, 58, 0
2, 17049, Note_on_c, 0, 55, 0
2, 17055, Note_on_c, 0, 59, 0
2, 17066, Note_on_c, 0, 62, 0
2, 17107, Note_on_c, 0, 57, 51
2, 17108, Note_on_c, 0, 65, 54
2, 17110, Note_on_c, 0, 47, 39
2, 17111, Note_on_c, 0, 62, 40
2, 17113, Control_c, 0, 64, 0
2, 17125, Control_c, 0, 64, 127
2, 17128, Note_on_c, 0, 47, 0
2, 17129, Note_on_c, 0, 62, 0
2, 17132, Note_on_c, 0, 57, 0
2, 17138, Note_on_c, 0, 65, 0
2, 17163, Note_on_c, 0, 56, 44
2, 17164, Note_on_c, 0, 65, 53
2, 17164, Note_on_c, 0, 61, 49
2, 17165, Note_on_c, 0, 34, 33
2, 17165, Note_on_c, 0, 46, 27
2, 17167, Control_c, 0, 64, 0
2, 17190, Control_c, 0, 64, 127
2, 17254, Note_on_c, 0, 34, 0
2, 17254, Note_on_c, 0, 65, 0
2, 17255, Note_on_c, 0, 46, 0
2, 17259, Note_on_c, 0, 56, 0
2, 17270, Note_on_c, 0, 61, 0
2, 17398, Note_on_c, 0, 63, 40
2, 17398, Note_on_c, 0, 60, 50
2, 17398, Note_on_c, 0, 55, 33
2, 17399, Note_on_c, 0, 45, 30
2, 17400, Note_on_c, 0, 33, 37
2, 17404, Control_c, 0, 64, 0
2, 17416, Note_on_c, 0, 33, 0
2, 17418, Note_on_c, 0, 60, 0
2, 17420, Note_on_c, 0, 45, 0
2, 17421, Control_c, 0, 64, 127
2, 17423, Note_on_c, 0, 55, 0
2, 17425, Note_on_c, 0, 63, 0
2, 17467, Note_on_c, 0, 63, 34
2, 17468, Note_on_c, 0, 32, 33
2, 17469, Note_on_c, 0, 44, 25
2, 17469, Note_on_c, 0, 60, 36
2, 17471, Note_on_c, 0, 58, 37
2, 17471, Note_on_c, 0, 55, 31
2, 17471, Note_on_c, 0, 53, 31
2, 17474, Control_c, 0, 64, 0
2, 17496, Control_c, 0, 64, 127
2, 17497, Note_on_c, 0, 53, 0
2, 17498, Note_on_c, 0, 55, 0
2, 17502, Note_on_c, 0, 60, 0
2, 17505, Note_on_c, 0, 58, 0
2, 17511, Note_on_c, 0, 63, 0
2, 17512, Note_on_c, 0, 32, 0
2, 17521, Note_on_c, 0, 44, 0
2, 17532, Note_on_c, 0, 75, 64
2, 17616, Note_on_c, 0, 63, 31
2, 17617, Note_on_c, 0, 68, 36
2, 17618, Note_on_c, 0, 60, 35
2, 17618, Note_on_c, 0, 65, 36
2, 17673, Note_on_c, 0, 56, 37
2, 17713, Note_on_c, 0, 65, 0
2, 17721, Note_on_c, 0, 68, 0
2, 17726, Note_on_c, 0, 63, 0
2, 17758, Note_on_c, 0, 68, 36
2, 17760, Note_on_c, 0, 63, 30
2, 17760, Note_on_c, 0, 65, 31
2, 17809, Note_on_c, 0, 63, 0
2, 17824, Note_on_c, 0, 68, 0
2, 17824, Note_on_c, 0, 75, 0
2, 17825, Note_on_c, 0, 65, 0
2, 17834, Note_on_c, 0, 60, 0
2, 17895, Note_on_c, 0, 65, 31
2, 17895, Note_on_c, 0, 63, 34
2, 17895, Note_on_c, 0, 60, 35
2, 17918, Note_on_c, 0, 56, 0
2, 17966, Note_on_c, 0, 56, 48
2, 18001, Note_on_c, 0, 56, 0
2, 18002, Note_on_c, 0, 65, 0
2, 18008, Note_on_c, 0, 60, 0
2, 18009, Note_on_c, 0, 63, 0
2, 18186, Note_on_c, 0, 77, 77
2, 18191, Note_on_c, 0, 50, 35
2, 18191, Note_on_c, 0, 74, 50
2, 18191, Note_on_c, 0, 70, 71
2, 18192, Note_on_c, 0, 54, 48
2, 18193, Note_on_c, 0, 60, 53
2, 18194, Note_on_c, 0, 65, 67
2, 18195, Control_c, 0, 64, 0
2, 18222, Control_c, 0, 64, 127
2, 18246, Note_on_c, 0, 77, 0
2, 18258, Note_on_c, 0, 65, 0
2, 18262, Note_on_c, 0, 77, 73
2, 18280, Note_on_c, 0, 74, 0
2, 18303, Note_on_c, 0, 77, 0
2, 18305, Note_on_c, 0, 50, 0
2, 18308, Note_on_c, 0, 60, 0
2, 18312, Note_on_c, 0, 75, 61
2, 18313, Note_on_c, 0, 54, 0
2, 18322, Note_on_c, 0, 70, 0
2, 18326, Note_on_c, 0, 75, 0
2, 18364, Note_on_c, 0, 70, 46
2, 18366, Note_on_c, 0, 63, 36
2, 18367, Note_on_c, 0, 43, 33
2, 18367, Note_on_c, 0, 67, 34
2, 18368, Note_on_c, 0, 59, 31
2, 18369, Note_on_c, 0, 53, 29
2, 18373, Control_c, 0, 64, 0
2, 18407, Control_c, 0, 64, 127
2, 18512, Note_on_c, 0, 67, 0
2, 18545, Note_on_c, 0, 68, 59
2, 18546, Note_on_c, 0, 63, 0
2, 18555, Note_on_c, 0, 70, 0
2, 18565, Note_on_c, 0, 59, 0
2, 18565, Note_on_c, 0, 68, 0
2, 18571, Note_on_c, 0, 43, 0
2, 18576, Note_on_c, 0, 62, 47
2, 18603, Note_on_c, 0, 62, 0
2, 18612, Note_on_c, 0, 65, 74
2, 18648, Note_on_c, 0, 53, 0
2, 18663, Note_on_c, 0, 63, 48
2, 18668, Note_on_c, 0, 48, 50
2, 18678, Control_c, 0, 64, 0
2, 18702, Note_on_c, 0, 59, 46
2, 18710, Control_c, 0, 64, 127
2, 18726, Note_on_c, 0, 63, 0
2, 18729, Note_on_c, 0, 59, 0
2, 18736, Control_c, 0, 64, 0
2, 18737, Note_on_c, 0, 62, 44
2, 18751, Control_c, 0, 64, 127
2, 18758, Note_on_c, 0, 65, 0
2, 18766, Note_on_c, 0, 62, 0
2, 18771, Note_on_c, 0, 60, 33
2, 18789, Note_on_c, 0, 60, 0
2, 18808, Note_on_c, 0, 74, 51
2, 18817, Note_on_c, 0, 60, 24
2, 18851, Note_on_c, 0, 74, 0
2, 18852, Note_on_c, 0, 72, 51
2, 18861, Note_on_c, 0, 60, 0
2, 18952, Note_on_c, 0, 67, 20
2, 18953, Note_on_c, 0, 60, 20
2, 18996, Note_on_c, 0, 60, 0
2, 19009, Note_on_c, 0, 55, 40
2, 19051, Note_on_c, 0, 62, 32
2, 19058, Note_on_c, 0, 72, 0
2, 19068, Note_on_c, 0, 67, 0
2, 19103, Note_on_c, 0, 55, 0
2, 19105, Note_on_c, 0, 62, 0
2, 19111, Note_on_c, 0, 74, 71
2, 19145, Note_on_c, 0, 74, 0
2, 19155, Note_on_c, 0, 55, 46
2, 19190, Note_on_c, 0, 48, 0
2, 19221, Note_on_c, 0, 48, 46
2, 19222, Note_on_c, 0, 75, 71
2, 19224, Note_on_c, 0, 63, 49
2, 19231, Note_on_c, 0, 48, 0
2, 19250, Note_on_c, 0, 75, 0
2, 19257, Note_on_c, 0, 63, 0
2, 19264, Note_on_c, 0, 47, 54
2, 19265, Note_on_c, 0, 74, 64
2, 19266, Control_c, 0, 64, 0
2, 19267, Note_on_c, 0, 55, 0
2, 19267, Note_on_c, 0, 62, 58
2, 19279, Note_on_c, 0, 74, 0
2, 19283, Note_on_c, 0, 62, 0
2, 19285, Control_c, 0, 64, 127
2, 19302, Note_on_c, 0, 63, 48
2, 19303, Note_on_c, 0, 75, 59
2, 19305, Note_on_c, 0, 56, 32
2, 19316, Note_on_c, 0, 75, 0
2, 19322, Note_on_c, 0, 63, 0
2, 19338, Note_on_c, 0, 74, 46
2, 19339, Note_on_c, 0, 62, 53
2, 19350, Note_on_c, 0, 56, 0
2, 19365, Note_on_c, 0, 62, 0
2, 19375, Note_on_c, 0, 56, 36
2, 19380, Note_on_c, 0, 74, 0
2, 19416, Note_on_c, 0, 77, 53
2, 19419, Note_on_c, 0, 65, 39
2, 19429, Note_on_c, 0, 56, 0
2, 19449, Note_on_c, 0, 65, 0
2, 19463, Note_on_c, 0, 77, 0
2, 19466, Note_on_c, 0, 56, 11
2, 19493, Note_on_c, 0, 56, 0
2, 19515, Note_on_c, 0, 86, 61
2, 19535, Note_on_c, 0, 86, 0
2, 19575, Note_on_c, 0, 59, 5
2, 19602, Note_on_c, 0, 47, 0
2, 19610, Note_on_c, 0, 59, 0
2, 19611, Note_on_c, 0, 47, 36
2, 19697, Note_on_c, 0, 56, 36
2, 19701, Note_on_c, 0, 59, 40
2, 19701, Note_on_c, 0, 62, 35
2, 19738, Note_on_c, 0, 56, 0
2, 19742, Note_on_c, 0, 47, 0
2, 19752, Note_on_c, 0, 47, 64
2, 19765, Note_on_c, 0, 47, 0
2, 19810, Note_on_c, 0, 47, 42
2, 19818, Note_on_c, 0, 47, 0
2, 19834, Note_on_c, 0, 47, 47
2, 19840, Note_on_c, 0, 59, 0
2, 19847, Note_on_c, 0, 47, 0
2, 19868, Note_on_c, 0, 46, 42
2, 19874, Control_c, 0, 64, 0
2, 19876, Note_on_c, 0, 62, 0
2, 19893, Control_c, 0, 64, 127
2, 19920, Note_on_c, 0, 63, 42
2, 19920, Note_on_c, 0, 55, 27
2, 19920, Note_on_c, 0, 58, 34
2, 19972, Note_on_c, 0, 67, 50
2, 19982, Note_on_c, 0, 58, 0
2, 19987, Note_on_c, 0, 63, 0
2, 19992, Note_on_c, 0, 67, 0
2, 19994, Note_on_c, 0, 55, 0
2, 20030, Note_on_c, 0, 55, 34
2, 20095, Note_on_c, 0, 55, 0
2, 20101, Note_on_c, 0, 75, 68
2, 20103, Note_on_c, 0, 63, 58
2, 20121, Note_on_c, 0, 75, 0
2, 20136, Note_on_c, 0, 63, 0
2, 20156, Note_on_c, 0, 75, 73
2, 20156, Note_on_c, 0, 63, 72
2, 20184, Note_on_c, 0, 75, 0
2, 20185, Note_on_c, 0, 63, 0
2, 20200, Note_on_c, 0, 75, 79
2, 20201, Note_on_c, 0, 63, 77
2, 20203, Note_on_c, 0, 55, 53
2, 20203, Control_c, 0, 64, 0
2, 20221, Control_c, 0, 64, 127
2, 20241, Note_on_c, 0, 63, 0
2, 20246, Note_on_c, 0, 75, 0
2, 20259, Note_on_c, 0, 77, 69
2, 20261, Note_on_c, 0, 65, 65
2, 20302, Note_on_c, 0, 65, 0
2, 20303, Note_on_c, 0, 77, 0
2, 20303, Note_on_c, 0, 46, 0
2, 20304, Note_on_c, 0, 55, 0
2, 20322, Note_on_c, 0, 77, 56
2, 20325, Note_on_c, 0, 65, 65
2, 20338, Control_c, 0, 64, 0
2, 20346, Note_on_c, 0, 46, 35
2, 20347, Note_on_c, 0, 55, 45
2, 20349, Note_on_c, 0, 65, 0
2, 20351, Note_on_c, 0, 77, 0
2, 20360, Control_c, 0, 64, 127
2, 20364, Note_on_c, 0, 77, 51
2, 20367, Note_on_c, 0, 65, 51
2, 20386, Note_on_c, 0, 65, 0
2, 20390, Note_on_c, 0, 77, 0
2, 20409, Note_on_c, 0, 79, 55
2, 20411, Note_on_c, 0, 67, 38
2, 20444, Note_on_c, 0, 46, 0
2, 20454, Note_on_c, 0, 79, 0
2, 20464, Note_on_c, 0, 67, 0
2, 20481, Note_on_c, 0, 46, 31
2, 20493, Note_on_c, 0, 55, 0
2, 20501, Note_on_c, 0, 46, 0
2, 20513, Note_on_c, 0, 77, 52
2, 20516, Note_on_c, 0, 65, 28
2, 20516, Control_c, 0, 64, 0
2, 20519, Note_on_c, 0, 45, 32
2, 20538, Control_c, 0, 64, 127
2, 20552, Note_on_c, 0, 77, 0
2, 20565, Note_on_c, 0, 65, 0
2, 20577, Note_on_c, 0, 79, 44
2, 20583, Note_on_c, 0, 67, 29
2, 20601, Note_on_c, 0, 67, 0
2, 20607, Note_on_c, 0, 79, 0
2, 20622, Note_on_c, 0, 65, 42
2, 20622, Note_on_c, 0, 77, 47
2, 20652, Note_on_c, 0, 65, 0
2, 20654, Note_on_c, 0, 77, 0
2, 20667, Note_on_c, 0, 77, 42
2, 20668, Note_on_c, 0, 45, 0
2, 20670, Note_on_c, 0, 65, 36
2, 20673, Note_on_c, 0, 57, 39
2, 20790, Note_on_c, 0, 59, 44
2, 20796, Note_on_c, 0, 57, 0
2, 20859, Note_on_c, 0, 77, 0
2, 20862, Note_on_c, 0, 65, 0
2, 20868, Note_on_c, 0, 60, 45
2, 20913, Note_on_c, 0, 62, 55
2, 20944, Note_on_c, 0, 62, 0
2, 20952, Note_on_c, 0, 63, 64
2, 20984, Note_on_c, 0, 63, 0
2, 20994, Note_on_c, 0, 65, 60
2, 21030, Note_on_c, 0, 65, 0
2, 21034, Note_on_c, 0, 67, 44
2, 21035, Note_on_c, 0, 60, 0
2, 21041, Note_on_c, 0, 59, 0
2, 21066, Note_on_c, 0, 67, 0
2, 21072, Note_on_c, 0, 70, 56
2, 21093, Note_on_c, 0, 70, 0
2, 21102, Note_on_c, 0, 72, 61
2, 21120, Note_on_c, 0, 72, 0
2, 21125, Note_on_c, 0, 77, 69
2, 21143, Control_c, 0, 64, 0
2, 21148, Note_on_c, 0, 51, 46
2, 21149, Note_on_c, 0, 44, 38
2, 21149, Note_on_c, 0, 82, 55
2, 21151, Note_on_c, 0, 77, 0
2, 21158, Control_c, 0, 64, 127
2, 21164, Note_on_c, 0, 82, 0
2, 21177, Note_on_c, 0, 84, 63
2, 21190, Note_on_c, 0, 44, 0
2, 21192, Note_on_c, 0, 51, 0
2, 21194, Note_on_c, 0, 84, 0
2, 21200, Note_on_c, 0, 89, 63
2, 21227, Note_on_c, 0, 94, 51
2, 21232, Note_on_c, 0, 89, 0
2, 21246, Note_on_c, 0, 94, 0
2, 21252, Note_on_c, 0, 96, 67
2, 21267, Note_on_c, 0, 96, 0
2, 21280, Note_on_c, 0, 94, 48
2, 21313, Note_on_c, 0, 94, 0
2, 21315, Note_on_c, 0, 63, 21
2, 21318, Note_on_c, 0, 60, 43
2, 21321, Note_on_c, 0, 58, 29
2, 21426, Note_on_c, 0, 63, 0
2, 21495, Note_on_c, 0, 63, 31
2, 21542, Note_on_c, 0, 63, 0
2, 21583, Note_on_c, 0, 83, 67
2, 21585, Note_on_c, 0, 71, 51
2, 21613, Note_on_c, 0, 71, 0
2, 21618, Note_on_c, 0, 83, 0
2, 21637, Note_on_c, 0, 60, 0
2, 21654, Note_on_c, 0, 84, 85
2, 21655, Note_on_c, 0, 72, 82
2, 21656, Note_on_c, 0, 63, 42
2, 21656, Note_on_c, 0, 60, 54
2, 21687, Note_on_c, 0, 72, 0
2, 21690, Note_on_c, 0, 84, 0
2, 21709, Note_on_c, 0, 86, 78
2, 21710, Note_on_c, 0, 74, 79
2, 21725, Note_on_c, 0, 63, 0
2, 21733, Note_on_c, 0, 86, 0
2, 21734, Note_on_c, 0, 74, 0
2, 21752, Note_on_c, 0, 60, 0
2, 21759, Note_on_c, 0, 87, 72
2, 21760, Note_on_c, 0, 58, 0
2, 21760, Note_on_c, 0, 75, 64
2, 21786, Note_on_c, 0, 75, 0
2, 21786, Note_on_c, 0, 87, 0
2, 21811, Note_on_c, 0, 86, 50
2, 21813, Note_on_c, 0, 56, 30
2, 21813, Note_on_c, 0, 60, 37
2, 21813, Note_on_c, 0, 74, 41
2, 21815, Control_c, 0, 64, 0
2, 21816, Note_on_c, 0, 50, 37
2, 21834, Control_c, 0, 64, 127
2, 21840, Note_on_c, 0, 86, 0
2, 21841, Note_on_c, 0, 74, 0
2, 21858, Note_on_c, 0, 87, 51
2, 21858, Note_on_c, 0, 75, 34
2, 21872, Note_on_c, 0, 75, 0
2, 21872, Note_on_c, 0, 87, 0
2, 21873, Note_on_c, 0, 60, 0
2, 21888, Note_on_c, 0, 86, 55
2, 21889, Note_on_c, 0, 74, 34
2, 21915, Note_on_c, 0, 56, 0
2, 21918, Note_on_c, 0, 86, 0
2, 21933, Note_on_c, 0, 74, 0
2, 22047, Note_on_c, 0, 50, 0
2, 22165, Note_on_c, 0, 43, 49
2, 22168, Control_c, 0, 64, 0
2, 22176, Control_c, 0, 64, 127
2, 22197, Note_on_c, 0, 43, 0
2, 22224, Note_on_c, 0, 53, 33
2, 22271, Note_on_c, 0, 53, 0
2, 22280, Note_on_c, 0, 56, 51
2, 22282, Note_on_c, 0, 68, 35
2, 22282, Note_on_c, 0, 59, 51
2, 22283, Note_on_c, 0, 63, 36
2, 22287, Note_on_c, 0, 67, 30
2, 22288, Note_on_c, 0, 68, 0
2, 22289, Control_c, 0, 64, 0
2, 22299, Control_c, 0, 64, 127
2, 22326, Note_on_c, 0, 63, 0
2, 22327, Note_on_c, 0, 56, 0
2, 22327, Note_on_c, 0, 59, 0
2, 22332, Note_on_c, 0, 67, 0
2, 22336, Note_on_c, 0, 58, 49
2, 22338, Note_on_c, 0, 59, 64
2, 22338, Note_on_c, 0, 63, 42
2, 22338, Note_on_c, 0, 70, 59
2, 22338, Note_on_c, 0, 67, 22
2, 22348, Control_c, 0, 64, 0
2, 22362, Control_c, 0, 64, 127
2, 22382, Note_on_c, 0, 67, 0
2, 22384, Note_on_c, 0, 63, 0
2, 22385, Note_on_c, 0, 59, 0
2, 22392, Note_on_c, 0, 70, 0
2, 22402, Note_on_c, 0, 63, 57
2, 22402, Note_on_c, 0, 68, 44
2, 22403, Note_on_c, 0, 59, 33
2, 22405, Note_on_c, 0, 56, 28
2, 22408, Note_on_c, 0, 58, 0
2, 22413, Note_on_c, 0, 59, 0
2, 22418, Note_on_c, 0, 68, 0
2, 22419, Note_on_c, 0, 63, 0
2, 22434, Note_on_c, 0, 49, 27
2, 22448, Note_on_c, 0, 49, 0
2, 22451, Note_on_c, 0, 56, 0
2, 22465, Note_on_c, 0, 58, 28
2, 22466, Note_on_c, 0, 65, 38
2, 22466, Note_on_c, 0, 48, 43
2, 22467, Note_on_c, 0, 62, 31
2, 22472, Control_c, 0, 64, 0
2, 22493, Control_c, 0, 64, 127
2, 22527, Note_on_c, 0, 62, 0
2, 22529, Note_on_c, 0, 65, 0
2, 22536, Note_on_c, 0, 63, 62
2, 22540, Note_on_c, 0, 60, 24
2, 22567, Note_on_c, 0, 60, 0
2, 22568, Note_on_c, 0, 48, 0
2, 22574, Note_on_c, 0, 63, 0
2, 22582, Note_on_c, 0, 58, 0
2, 22717, Note_on_c, 0, 77, 81
2, 22718, Note_on_c, 0, 74, 74
2, 22718, Note_on_c, 0, 70, 83
2, 22720, Note_on_c, 0, 67, 69
2, 22720, Note_on_c, 0, 63, 59
2, 22720, Note_on_c, 0, 65, 66
2, 22725, Control_c, 0, 64, 0
2, 22736, Control_c, 0, 64, 127
2, 22753, Note_on_c, 0, 65, 0
2, 22756, Note_on_c, 0, 67, 0
2, 22757, Note_on_c, 0, 70, 0
2, 22761, Note_on_c, 0, 74, 0
2, 22764, Note_on_c, 0, 63, 0
2, 22766, Note_on_c, 0, 77, 0
2, 22788, Note_on_c, 0, 76, 60
2, 22788, Note_on_c, 0, 66, 60
2, 22790, Note_on_c, 0, 64, 52
2, 22791, Note_on_c, 0, 69, 60
2, 22791, Note_on_c, 0, 73, 55
2, 22793, Note_on_c, 0, 62, 39
2, 22795, Control_c, 0, 64, 0
2, 22807, Control_c, 0, 64, 127
2, 22814, Note_on_c, 0, 64, 0
2, 22816, Note_on_c, 0, 62, 0
2, 22817, Note_on_c, 0, 76, 0
2, 22818, Note_on_c, 0, 69, 0
2, 22822, Note_on_c, 0, 66, 0
2, 22829, Note_on_c, 0, 73, 0
2, 22856, Note_on_c, 0, 75, 47
2, 22858, Note_on_c, 0, 68, 36
2, 22859, Note_on_c, 0, 63, 35
2, 22859, Note_on_c, 0, 65, 34
2, 22860, Control_c, 0, 64, 0
2, 22860, Note_on_c, 0, 61, 33
2, 22860, Note_on_c, 0, 72, 48
2, 22878, Control_c, 0, 64, 127
2, 22905, Note_on_c, 0, 75, 0
2, 22925, Note_on_c, 0, 75, 40
2, 22933, Note_on_c, 0, 65, 0
2, 22933, Note_on_c, 0, 72, 0
2, 22939, Note_on_c, 0, 63, 0
2, 22943, Note_on_c, 0, 61, 0
2, 22946, Note_on_c, 0, 75, 0
2, 22951, Note_on_c, 0, 68, 0
2, 22978, Note_on_c, 0, 75, 39
2, 23006, Note_on_c, 0, 75, 0
2, 23046, Note_on_c, 0, 75, 36
2, 23048, Note_on_c, 0, 61, 29
2, 23049, Note_on_c, 0, 67, 30
2, 23051, Note_on_c, 0, 45, 29
2, 23051, Note_on_c, 0, 55, 22
2, 23056, Control_c, 0, 64, 0
2, 23079, Control_c, 0, 64, 127
2, 23107, Note_on_c, 0, 75, 0
2, 23127, Note_on_c, 0, 75, 45
2, 23179, Note_on_c, 0, 75, 0
2, 23206, Note_on_c, 0, 75, 37
2, 23220, Note_on_c, 0, 55, 0
2, 23227, Note_on_c, 0, 45, 0
2, 23231, Note_on_c, 0, 67, 0
2, 23235, Note_on_c, 0, 61, 0
2, 23260, Note_on_c, 0, 75, 0
2, 23371, Note_on_c, 0, 75, 36
2, 23374, Note_on_c, 0, 67, 33
2, 23374, Note_on_c, 0, 44, 27
2, 23383, Control_c, 0, 64, 0
2, 23406, Control_c, 0, 64, 127
2, 23419, Note_on_c, 0, 51, 38
2, 23461, Note_on_c, 0, 51, 0
2, 23462, Note_on_c, 0, 44, 0
2, 23462, Note_on_c, 0, 56, 34
2, 23471, Note_on_c, 0, 67, 0
2, 23497, Note_on_c, 0, 56, 0
2, 23509, Note_on_c, 0, 60, 48
2, 23565, Note_on_c, 0, 63, 25
2, 23566, Note_on_c, 0, 67, 39
2, 23566, Note_on_c, 0, 68, 24
2, 23593, Note_on_c, 0, 75, 0
2, 23647, Note_on_c, 0, 67, 0
2, 23654, Note_on_c, 0, 68, 0
2, 23655, Note_on_c, 0, 72, 67
2, 23707, Note_on_c, 0, 63, 0
2, 23718, Note_on_c, 0, 68, 50
2, 23766, Note_on_c, 0, 72, 0
2, 23901, Note_on_c, 0, 68, 0
2, 23908, Note_on_c, 0, 60, 0
2, 23991, Note_on_c, 0, 67, 44
2, 24022, Note_on_c, 0, 67, 0
2, 24133, Note_on_c, 0, 67, 28
2, 24136, Note_on_c, 0, 46, 28
2, 24137, Note_on_c, 0, 62, 31
2, 24138, Note_on_c, 0, 59, 24
2, 24138, Note_on_c, 0, 56, 25
2, 24139, Note_on_c, 0, 64, 25
2, 24141, Control_c, 0, 64, 0
2, 24162, Control_c, 0, 64, 127
2, 24176, Note_on_c, 0, 56, 0
2, 24184, Note_on_c, 0, 46, 0
2, 24252, Note_on_c, 0, 22, 35
2, 24289, Note_on_c, 0, 22, 0
2, 24409, Note_on_c, 0, 67, 0
2, 24424, Note_on_c, 0, 59, 0
2, 24436, Note_on_c, 0, 67, 44
2, 24439, Note_on_c, 0, 62, 0
2, 24445, Note_on_c, 0, 64, 0
2, 24470, Note_on_c, 0, 67, 0
2, 24593, Note_on_c, 0, 67, 28
2, 24594, Note_on_c, 0, 59, 32
2, 24594, Note_on_c, 0, 63, 42
2, 24596, Note_on_c, 0, 46, 31
2, 24596, Note_on_c, 0, 56, 30
2, 24609, Control_c, 0, 64, 0
2, 24633, Control_c, 0, 64, 127
2, 24705, Note_on_c, 0, 59, 0
2, 24711, Note_on_c, 0, 63, 0
2, 24712, Note_on_c, 0, 46, 0
2, 24717, Note_on_c, 0, 67, 0
2, 24718, Note_on_c, 0, 56, 0
2, 24834, Note_on_c, 0, 65, 22
2, 24835, Note_on_c, 0, 62, 28
2, 24836, Note_on_c, 0, 46, 27
2, 24838, Note_on_c, 0, 59, 18
2, 24840, Note_on_c, 0, 56, 18
2, 24850, Control_c, 0, 64, 0
2, 24879, Control_c, 0, 64, 127
2, 24953, Note_on_c, 0, 46, 0
2, 24957, Note_on_c, 0, 59, 0
2, 24965, Note_on_c, 0, 56, 0
2, 24983, Note_on_c, 0, 62, 0
2, 25033, Note_on_c, 0, 65, 0
2, 25102, Note_on_c, 0, 63, 35
2, 25105, Note_on_c, 0, 48, 25
2, 25106, Note_on_c, 0, 60, 27
2, 25107, Note_on_c, 0, 55, 28
2, 25110, Control_c, 0, 64, 0
2, 25131, Control_c, 0, 64, 127
2, 25147, Note_on_c, 0, 60, 0
2, 25158, Note_on_c, 0, 63, 0
2, 25267, Note_on_c, 0, 48, 0
2, 25278, Note_on_c, 0, 55, 0
2, 25297, Note_on_c, 0, 48, 36
2, 25300, Note_on_c, 0, 72, 24
2, 25316, Note_on_c, 0, 72, 0
2, 25316, Note_on_c, 0, 48, 0
2, 25338, Note_on_c, 0, 74, 49
2, 25341, Note_on_c, 0, 50, 38
2, 25347, Note_on_c, 0, 74, 0
2, 25357, Note_on_c, 0, 50, 0
2, 25378, Note_on_c, 0, 51, 50
2, 25380, Note_on_c, 0, 75, 63
2, 25388, Note_on_c, 0, 75, 0
2, 25413, Note_on_c, 0, 51, 0
2, 25422, Note_on_c, 0, 77, 66
2, 25424, Note_on_c, 0, 53, 47
2, 25436, Note_on_c, 0, 77, 0
2, 25464, Note_on_c, 0, 51, 37
2, 25464, Control_c, 0, 64, 0
2, 25466, Note_on_c, 0, 53, 0
2, 25467, Note_on_c, 0, 75, 50
2, 25484, Note_on_c, 0, 75, 0
2, 25493, Note_on_c, 0, 74, 33
2, 25498, Note_on_c, 0, 51, 0
2, 25514, Note_on_c, 0, 74, 0
2, 25520, Note_on_c, 0, 72, 36
2, 25523, Note_on_c, 0, 48, 30
2, 25524, Control_c, 0, 64, 127
2, 25555, Note_on_c, 0, 72, 0
2, 25579, Note_on_c, 0, 59, 36
2, 25582, Note_on_c, 0, 83, 59
2, 25593, Control_c, 0, 64, 0
2, 25597, Control_c, 0, 64, 127
2, 25650, Note_on_c, 0, 80, 43
2, 25651, Note_on_c, 0, 59, 0
2, 25652, Note_on_c, 0, 83, 0
2, 25653, Note_on_c, 0, 56, 29
2, 25675, Note_on_c, 0, 48, 0
2, 25683, Note_on_c, 0, 80, 0
2, 25723, Note_on_c, 0, 62, 34
2, 25724, Note_on_c, 0, 89, 57
2, 25849, Note_on_c, 0, 62, 0
2, 25920, Note_on_c, 0, 89, 0
2, 25922, Note_on_c, 0, 86, 66
2, 25926, Note_on_c, 0, 59, 39
2, 25932, Note_on_c, 0, 56, 0
2, 25978, Note_on_c, 0, 59, 0
2, 25979, Note_on_c, 0, 86, 0
2, 25980, Note_on_c, 0, 83, 62
2, 25981, Note_on_c, 0, 56, 40
2, 25998, Note_on_c, 0, 83, 0
2, 26030, Note_on_c, 0, 56, 0
2, 26034, Note_on_c, 0, 80, 49
2, 26036, Note_on_c, 0, 53, 36
2, 26086, Note_on_c, 0, 53, 0
2, 26086, Note_on_c, 0, 80, 0
2, 26087, Note_on_c, 0, 77, 40
2, 26091, Note_on_c, 0, 50, 34
2, 26142, Note_on_c, 0, 77, 0
2, 26151, Note_on_c, 0, 50, 0
2, 26155, Note_on_c, 0, 74, 32
2, 26156, Note_on_c, 0, 47, 26
2, 26345, Note_on_c, 0, 47, 0
2, 26349, Note_on_c, 0, 44, 33
2, 26353, Note_on_c, 0, 71, 31
2, 26354, Note_on_c, 0, 74, 0
2, 26490, Note_on_c, 0, 71, 0
2, 26590, Note_on_c, 0, 44, 0
2, 26592, Note_on_c, 0, 74, 30
2, 26594, Note_on_c, 0, 43, 33
2, 26596, Note_on_c, 0, 67, 31
2, 26606, Control_c, 0, 64, 0
2, 26629, Control_c, 0, 64, 127
2, 26726, Note_on_c, 0, 74, 0
2, 26731, Note_on_c, 0, 71, 46
2, 26734, Note_on_c, 0, 67, 0
2, 26748, Note_on_c, 0, 43, 0
2, 26806, Note_on_c, 0, 72, 55
2, 26807, Note_on_c, 0, 48, 29
2, 26809, Note_on_c, 0, 71, 0
2, 26814, Control_c, 0, 64, 0
2, 26836, Control_c, 0, 64, 127
2, 26854, Note_on_c, 0, 55, 34
2, 26866, Note_on_c, 0, 48, 0
2, 26891, Note_on_c, 0, 62, 42
2, 26918, Note_on_c, 0, 63, 52
2, 26945, Note_on_c, 0, 72, 0
2, 26946, Note_on_c, 0, 67, 46
2, 26974, Note_on_c, 0, 63, 0
2, 26976, Note_on_c, 0, 75, 74
2, 27001, Note_on_c, 0, 67, 0
2, 27003, Note_on_c, 0, 63, 47
2, 27026, Note_on_c, 0, 55, 0
2, 27028, Note_on_c, 0, 75, 0
2, 27035, Note_on_c, 0, 67, 36
2, 27065, Note_on_c, 0, 63, 0
2, 27065, Note_on_c, 0, 74, 48
2, 27094, Note_on_c, 0, 67, 0
2, 27095, Note_on_c, 0, 63, 33
2, 27105, Note_on_c, 0, 62, 0
2, 27119, Note_on_c, 0, 74, 0
2, 27130, Note_on_c, 0, 67, 24
2, 27162, Note_on_c, 0, 63, 0
2, 27162, Note_on_c, 0, 74, 33
2, 27194, Note_on_c, 0, 67, 0
2, 27195, Note_on_c, 0, 63, 30
2, 27212, Note_on_c, 0, 74, 0
2, 27226, Note_on_c, 0, 67, 30
2, 27241, Note_on_c, 0, 63, 0
2, 27254, Note_on_c, 0, 67, 0
2, 27257, Note_on_c, 0, 74, 55
2, 27260, Note_on_c, 0, 48, 29
2, 27287, Control_c, 0, 64, 0
2, 27289, Note_on_c, 0, 68, 48
2, 27298, Note_on_c, 0, 56, 23
2, 27309, Control_c, 0, 64, 127
2, 27326, Note_on_c, 0, 74, 0
2, 27326, Note_on_c, 0, 65, 22
2, 27327, Note_on_c, 0, 48, 0
2, 27330, Note_on_c, 0, 56, 0
2, 27332, Note_on_c, 0, 68, 0
2, 27332, Note_on_c, 0, 59, 32
2, 27360, Note_on_c, 0, 59, 0
2, 27362, Note_on_c, 0, 62, 48
2, 27375, Note_on_c, 0, 65, 0
2, 27396, Note_on_c, 0, 77, 53
2, 27400, Note_on_c, 0, 65, 43
2, 27401, Note_on_c, 0, 71, 20
2, 27406, Note_on_c, 0, 71, 0
2, 27406, Note_on_c, 0, 62, 0
2, 27414, Note_on_c, 0, 77, 0
2, 27432, Note_on_c, 0, 62, 38
2, 27433, Note_on_c, 0, 65, 0
2, 27458, Note_on_c, 0, 86, 74
2, 27460, Note_on_c, 0, 62, 0
2, 27462, Note_on_c, 0, 65, 42
2, 27478, Note_on_c, 0, 86, 0
2, 27491, Note_on_c, 0, 65, 0
2, 27497, Note_on_c, 0, 62, 18
2, 27528, Note_on_c, 0, 80, 59
2, 27530, Note_on_c, 0, 65, 31
2, 27531, Note_on_c, 0, 62, 0
2, 27554, Note_on_c, 0, 80, 0
2, 27563, Note_on_c, 0, 65, 0
2, 27566, Note_on_c, 0, 62, 22
2, 27576, Note_on_c, 0, 62, 0
2, 27598, Note_on_c, 0, 68, 26
2, 27621, Note_on_c, 0, 68, 0
2, 27626, Note_on_c, 0, 77, 52
2, 27666, Note_on_c, 0, 74, 28
2, 27706, Note_on_c, 0, 68, 21
2, 27713, Note_on_c, 0, 74, 0
2, 27731, Note_on_c, 0, 68, 0
2, 27747, Note_on_c, 0, 68, 33
2, 27772, Note_on_c, 0, 77, 0
2, 27790, Note_on_c, 0, 77, 41
2, 27830, Note_on_c, 0, 77, 0
2, 27833, Note_on_c, 0, 68, 0
2, 27839, Note_on_c, 0, 75, 45
2, 27840, Note_on_c, 0, 46, 28
2, 27848, Control_c, 0, 64, 0
2, 27866, Control_c, 0, 64, 127
2, 27879, Note_on_c, 0, 46, 0
2, 27881, Note_on_c, 0, 55, 32
2, 27920, Note_on_c, 0, 55, 0
2, 27923, Note_on_c, 0, 58, 32
2, 27959, Note_on_c, 0, 72, 58
2, 27965, Note_on_c, 0, 63, 19
2, 27974, Note_on_c, 0, 75, 0
2, 27997, Note_on_c, 0, 67, 31
2, 27998, Note_on_c, 0, 72, 0
2, 27999, Note_on_c, 0, 74, 63
2, 28018, Note_on_c, 0, 63, 0
2, 28034, Note_on_c, 0, 74, 0
2, 28036, Note_on_c, 0, 75, 81
2, 28040, Note_on_c, 0, 67, 0
2, 28040, Note_on_c, 0, 63, 31
2, 28054, Note_on_c, 0, 58, 0
2, 28070, Note_on_c, 0, 75, 0
2, 28076, Note_on_c, 0, 58, 40
2, 28077, Note_on_c, 0, 63, 0
2, 28077, Note_on_c, 0, 74, 55
2, 28086, Note_on_c, 0, 58, 0
2, 28110, Note_on_c, 0, 74, 0
2, 28111, Note_on_c, 0, 75, 64
2, 28119, Note_on_c, 0, 45, 42
2, 28139, Control_c, 0, 64, 0
2, 28148, Note_on_c, 0, 74, 36
2, 28149, Note_on_c, 0, 75, 0
2, 28157, Control_c, 0, 64, 127
2, 28185, Note_on_c, 0, 45, 0
2, 28186, Note_on_c, 0, 57, 34
2, 28228, Note_on_c, 0, 57, 0
2, 28230, Note_on_c, 0, 67, 43
2, 28231, Note_on_c, 0, 63, 37
2, 28231, Note_on_c, 0, 60, 38
2, 28267, Note_on_c, 0, 63, 0
2, 28275, Note_on_c, 0, 60, 0
2, 28277, Note_on_c, 0, 62, 48
2, 28301, Note_on_c, 0, 67, 0
2, 28317, Note_on_c, 0, 62, 0
2, 28323, Note_on_c, 0, 63, 50
2, 28326, Note_on_c, 0, 67, 42
2, 28333, Note_on_c, 0, 63, 0
2, 28371, Note_on_c, 0, 63, 46
2, 28418, Note_on_c, 0, 51, 37
2, 28447, Note_on_c, 0, 74, 0
2, 28448, Note_on_c, 0, 67, 0
2, 28460, Note_on_c, 0, 63, 0
2, 28464, Note_on_c, 0, 45, 30
2, 28470, Note_on_c, 0, 51, 0
2, 28483, Note_on_c, 0, 45, 0
2, 28513, Note_on_c, 0, 63, 35
2, 28514, Note_on_c, 0, 60, 35
2, 28516, Note_on_c, 0, 44, 33
2, 28519, Control_c, 0, 64, 0
2, 28545, Control_c, 0, 64, 127
2, 28555, Note_on_c, 0, 51, 38
2, 28562, Note_on_c, 0, 63, 0
2, 28566, Note_on_c, 0, 60, 0
2, 28580, Note_on_c, 0, 44, 0
2, 28596, Note_on_c, 0, 51, 0
2, 28596, Note_on_c, 0, 67, 35
2, 28598, Note_on_c, 0, 58, 25
2, 28598, Note_on_c, 0, 63, 26
2, 28614, Note_on_c, 0, 58, 0
2, 28617, Note_on_c, 0, 67, 0
2, 28619, Note_on_c, 0, 63, 0
2, 28637, Note_on_c, 0, 60, 49
2, 28675, Note_on_c, 0, 60, 0
2, 28677, Note_on_c, 0, 63, 45
2, 28677, Note_on_c, 0, 82, 74
2, 28680, Note_on_c, 0, 75, 75
2, 28681, Note_on_c, 0, 70, 77
2, 28721, Note_on_c, 0, 63, 0
2, 28723, Note_on_c, 0, 60, 52
2, 28726, Note_on_c, 0, 82, 0
2, 28726, Note_on_c, 0, 75, 0
2, 28727, Note_on_c, 0, 70, 0
2, 28763, Note_on_c, 0, 75, 62
2, 28764, Note_on_c, 0, 79, 58
2, 28765, Note_on_c, 0, 60, 0
2, 28765, Note_on_c, 0, 67, 53
2, 28765, Note_on_c, 0, 56, 46
2, 28775, Note_on_c, 0, 56, 0
2, 28781, Note_on_c, 0, 79, 0
2, 28786, Note_on_c, 0, 75, 0
2, 28794, Note_on_c, 0, 67, 0
2, 28804, Note_on_c, 0, 42, 43
2, 28831, Note_on_c, 0, 42, 0
2, 28849, Note_on_c, 0, 41, 46
2, 28850, Note_on_c, 0, 60, 36
2, 28851, Note_on_c, 0, 56, 26
2, 28851, Control_c, 0, 64, 0
2, 28852, Note_on_c, 0, 67, 29
2, 28852, Note_on_c, 0, 63, 25
2, 28878, Control_c, 0, 64, 127
2, 28881, Note_on_c, 0, 56, 0
2, 28883, Note_on_c, 0, 60, 0
2, 28887, Note_on_c, 0, 67, 0
2, 28887, Note_on_c, 0, 48, 48
2, 28890, Note_on_c, 0, 63, 0
2, 28903, Note_on_c, 0, 41, 0
2, 28913, Note_on_c, 0, 48, 0
2, 28920, Note_on_c, 0, 55, 58
2, 28960, Note_on_c, 0, 56, 34
2, 28961, Note_on_c, 0, 55, 0
2, 28993, Note_on_c, 0, 60, 46
2, 28996, Note_on_c, 0, 82, 67
2, 28997, Note_on_c, 0, 75, 67
2, 28998, Note_on_c, 0, 68, 49
2, 29000, Control_c, 0, 64, 0
2, 29024, Control_c, 0, 64, 127
2, 29037, Note_on_c, 0, 63, 40
2, 29042, Note_on_c, 0, 60, 0
2, 29061, Note_on_c, 0, 75, 0
2, 29062, Note_on_c, 0, 68, 0
2, 29074, Note_on_c, 0, 82, 0
2, 29084, Note_on_c, 0, 80, 25
2, 29086, Note_on_c, 0, 68, 31
2, 29088, Note_on_c, 0, 63, 0
2, 29088, Note_on_c, 0, 75, 33
2, 29089, Note_on_c, 0, 60, 49
2, 29097, Note_on_c, 0, 56, 0
2, 29114, Note_on_c, 0, 80, 0
2, 29120, Note_on_c, 0, 75, 0
2, 29130, Note_on_c, 0, 68, 0
2, 29135, Note_on_c, 0, 56, 32
2, 29136, Note_on_c, 0, 60, 0
2, 29155, Note_on_c, 0, 56, 0
2, 29277, Note_on_c, 0, 50, 51
2, 29289, Control_c, 0, 64, 0
2, 29309, Control_c, 0, 64, 127
2, 29316, Note_on_c, 0, 56, 46
2, 29327, Note_on_c, 0, 50, 0
2, 29344, Note_on_c, 0, 56, 0
2, 29352, Note_on_c, 0, 56, 49
2, 29355, Note_on_c, 0, 60, 57
2, 29359, Note_on_c, 0, 60, 0
2, 29393, Note_on_c, 0, 77, 75
2, 29429, Note_on_c, 0, 56, 0
2, 29442, Note_on_c, 0, 68, 40
2, 29444, Note_on_c, 0, 72, 53
2, 29455, Note_on_c, 0, 67, 31
2, 29486, Note_on_c, 0, 68, 0
2, 29496, Note_on_c, 0, 72, 0
2, 29496, Note_on_c, 0, 68, 36
2, 29517, Note_on_c, 0, 67, 0
2, 29532, Note_on_c, 0, 68, 0
2, 29548, Note_on_c, 0, 68, 32
2, 29550, Note_on_c, 0, 72, 53
2, 29553, Note_on_c, 0, 65, 27
2, 29610, Note_on_c, 0, 65, 0
2, 29613, Note_on_c, 0, 62, 33
2, 29628, Note_on_c, 0, 77, 0
2, 29633, Note_on_c, 0, 72, 0
2, 29641, Note_on_c, 0, 62, 0
2, 29650, Note_on_c, 0, 68, 0
2, 29770, Note_on_c, 0, 50, 32
2, 29772, Note_on_c, 0, 59, 68
2, 29775, Note_on_c, 0, 53, 44
2, 29775, Note_on_c, 0, 43, 43
2, 29776, Note_on_c, 0, 61, 34
2, 29778, Control_c, 0, 64, 0
2, 29782, Note_on_c, 0, 50, 0
2, 29785, Note_on_c, 0, 59, 0
2, 29796, Note_on_c, 0, 59, 26
2, 29797, Note_on_c, 0, 61, 0
2, 29802, Control_c, 0, 64, 127
2, 29807, Note_on_c, 0, 59, 0
2, 29809, Note_on_c, 0, 61, 27
2, 29821, Note_on_c, 0, 59, 25
2, 29826, Note_on_c, 0, 61, 0
2, 29836, Note_on_c, 0, 59, 0
2, 29838, Note_on_c, 0, 61, 23
2, 29850, Note_on_c, 0, 59, 22
2, 29853, Note_on_c, 0, 61, 0
2, 29864, Note_on_c, 0, 59, 0
2, 29866, Note_on_c, 0, 61, 33
2, 29878, Note_on_c, 0, 61, 0
2, 29879, Note_on_c, 0, 59, 29
2, 29892, Note_on_c, 0, 59, 0
2, 29893, Note_on_c, 0, 61, 30
2, 29902, Note_on_c, 0, 61, 0
2, 29905, Note_on_c, 0, 59, 24
2, 29916, Note_on_c, 0, 59, 0
2, 29920, Note_on_c, 0, 61, 23
2, 29925, Note_on_c, 0, 61, 0
2, 29930, Note_on_c, 0, 59, 27
2, 29940, Note_on_c, 0, 59, 0
2, 29943, Note_on_c, 0, 61, 29
2, 29949, Note_on_c, 0, 61, 0
2, 29954, Note_on_c, 0, 59, 31
2, 29965, Note_on_c, 0, 59, 0
2, 29967, Note_on_c, 0, 61, 33
2, 29974, Note_on_c, 0, 53, 0
2, 29977, Note_on_c, 0, 61, 0
2, 29980, Note_on_c, 0, 59, 34
2, 29989, Note_on_c, 0, 59, 0
2, 29992, Note_on_c, 0, 61, 35
2, 30001, Note_on_c, 0, 61, 0
2, 30005, Note_on_c, 0, 59, 31
2, 30013, Note_on_c, 0, 59, 0
2, 30016, Note_on_c, 0, 61, 29
2, 30026, Note_on_c, 0, 61, 0
2, 30028, Note_on_c, 0, 59, 38
2, 30038, Note_on_c, 0, 59, 0
2, 30041, Note_on_c, 0, 61, 35
2, 30044, Note_on_c, 0, 50, 17
2, 30053, Note_on_c, 0, 50, 0
2, 30053, Note_on_c, 0, 59, 51
2, 30054, Note_on_c, 0, 61, 0
2, 30061, Note_on_c, 0, 53, 34
2, 30063, Note_on_c, 0, 62, 53
2, 30064, Note_on_c, 0, 59, 0
2, 30070, Control_c, 0, 64, 0
2, 30077, Note_on_c, 0, 62, 0
2, 30077, Note_on_c, 0, 59, 34
2, 30086, Note_on_c, 0, 59, 0
2, 30088, Note_on_c, 0, 62, 43
2, 30092, Control_c, 0, 64, 127
2, 30096, Note_on_c, 0, 62, 0
2, 30098, Note_on_c, 0, 59, 22
2, 30108, Note_on_c, 0, 59, 0
2, 30111, Note_on_c, 0, 62, 40
2, 30122, Note_on_c, 0, 62, 0
2, 30125, Note_on_c, 0, 59, 44
2, 30135, Note_on_c, 0, 59, 0
2, 30138, Note_on_c, 0, 62, 26
2, 30148, Note_on_c, 0, 62, 0
2, 30157, Note_on_c, 0, 59, 28
2, 30164, Note_on_c, 0, 53, 0
2, 30165, Note_on_c, 0, 59, 0
2, 30174, Note_on_c, 0, 62, 31
2, 30180, Note_on_c, 0, 65, 45
2, 30184, Note_on_c, 0, 53, 35
2, 30261, Note_on_c, 0, 43, 0
2, 30292, Note_on_c, 0, 62, 0
2, 30338, Note_on_c, 0, 65, 0
2, 30344, Note_on_c, 0, 63, 35
2, 30345, Note_on_c, 0, 60, 36
2, 30347, Note_on_c, 0, 53, 0
2, 30351, Note_on_c, 0, 55, 25
2, 30351, Control_c, 0, 64, 0
2, 30351, Note_on_c, 0, 48, 31
2, 30371, Control_c, 0, 64, 127
2, 30376, Note_on_c, 0, 60, 0
2, 30389, Note_on_c, 0, 63, 0
2, 30457, Note_on_c, 0, 75, 43
2, 30461, Note_on_c, 0, 60, 33
2, 30510, Note_on_c, 0, 63, 42
2, 30516, Note_on_c, 0, 75, 0
2, 30532, Note_on_c, 0, 63, 0
2, 30546, Note_on_c, 0, 77, 56
2, 30565, Note_on_c, 0, 77, 0
2, 30606, Note_on_c, 0, 79, 70
2, 30627, Note_on_c, 0, 55, 0
2, 30628, Note_on_c, 0, 79, 0
2, 30660, Note_on_c, 0, 60, 0
2, 30660, Note_on_c, 0, 55, 1
2, 30662, Note_on_c, 0, 48, 0
2, 30679, Note_on_c, 0, 77, 47
2, 30682, Control_c, 0, 64, 0
2, 30693, Note_on_c, 0, 47, 24
2, 30696, Note_on_c, 0, 77, 0
2, 30700, Control_c, 0, 64, 127
2, 30701, Note_on_c, 0, 55, 0
2, 30714, Note_on_c, 0, 79, 48
2, 30726, Note_on_c, 0, 79, 0
2, 30744, Note_on_c, 0, 56, 26
2, 30744, Note_on_c, 0, 77, 57
2, 30764, Note_on_c, 0, 77, 0
2, 30779, Note_on_c, 0, 59, 28
2, 30805, Note_on_c, 0, 59, 0
2, 30811, Note_on_c, 0, 62, 36
2, 30831, Note_on_c, 0, 62, 0
2, 30833, Note_on_c, 0, 56, 0
2, 30851, Note_on_c, 0, 59, 14
2, 30875, Note_on_c, 0, 47, 0
2, 30912, Note_on_c, 0, 59, 0
2, 30915, Note_on_c, 0, 47, 15
2, 30924, Note_on_c, 0, 47, 0
2, 30953, Note_on_c, 0, 46, 32
2, 30955, Control_c, 0, 64, 0
2, 30973, Control_c, 0, 64, 127
2, 30990, Note_on_c, 0, 55, 31
2, 30991, Note_on_c, 0, 46, 0
2, 31023, Note_on_c, 0, 55, 0
2, 31024, Note_on_c, 0, 75, 44
2, 31055, Note_on_c, 0, 75, 0
2, 31093, Note_on_c, 0, 77, 53
2, 31094, Note_on_c, 0, 65, 49
2, 31098, Note_on_c, 0, 62, 22
2, 31114, Note_on_c, 0, 62, 0
2, 31128, Note_on_c, 0, 65, 0
2, 31129, Note_on_c, 0, 77, 0
2, 31161, Note_on_c, 0, 79, 61
2, 31164, Note_on_c, 0, 67, 44
2, 31165, Note_on_c, 0, 72, 48
2, 31195, Note_on_c, 0, 46, 48
2, 31198, Note_on_c, 0, 67, 0
2, 31214, Note_on_c, 0, 79, 0
2, 31215, Note_on_c, 0, 72, 0
2, 31222, Note_on_c, 0, 46, 0
2, 31237, Note_on_c, 0, 45, 47
2, 31238, Control_c, 0, 64, 0
2, 31239, Note_on_c, 0, 65, 40
2, 31239, Note_on_c, 0, 77, 49
2, 31258, Control_c, 0, 64, 127
2, 31259, Note_on_c, 0, 77, 0
2, 31262, Note_on_c, 0, 65, 0
2, 31275, Note_on_c, 0, 45, 0
2, 31282, Note_on_c, 0, 57, 37
2, 31283, Note_on_c, 0, 79, 49
2, 31284, Note_on_c, 0, 67, 33
2, 31294, Note_on_c, 0, 57, 0
2, 31300, Note_on_c, 0, 79, 0
2, 31310, Note_on_c, 0, 67, 0
2, 31328, Note_on_c, 0, 77, 44
2, 31329, Note_on_c, 0, 60, 49
2, 31332, Note_on_c, 0, 65, 35
2, 31344, Note_on_c, 0, 60, 0
2, 31383, Note_on_c, 0, 60, 47
2, 31403, Note_on_c, 0, 60, 0
2, 31419, Note_on_c, 0, 65, 0
2, 31444, Note_on_c, 0, 61, 51
2, 31480, Note_on_c, 0, 61, 0
2, 31518, Note_on_c, 0, 61, 55
2, 31563, Note_on_c, 0, 61, 0
2, 31596, Note_on_c, 0, 62, 31
2, 31650, Note_on_c, 0, 62, 0
2, 31692, Note_on_c, 0, 62, 30
2, 31722, Note_on_c, 0, 62, 0
2, 31773, Note_on_c, 0, 77, 0
2, 31796, Note_on_c, 0, 75, 47
2, 31798, Note_on_c, 0, 44, 34
2, 31800, Note_on_c, 0, 65, 25
2, 31800, Note_on_c, 0, 70, 32
2, 31806, Control_c, 0, 64, 0
2, 31830, Control_c, 0, 64, 127
2, 31844, Note_on_c, 0, 44, 0
2, 31880, Note_on_c, 0, 55, 40
2, 31887, Note_on_c, 0, 55, 0
2, 31931, Note_on_c, 0, 56, 36
2, 31971, Note_on_c, 0, 65, 0
2, 31975, Note_on_c, 0, 60, 46
2, 31978, Note_on_c, 0, 70, 0
2, 31995, Note_on_c, 0, 56, 0
2, 32010, Note_on_c, 0, 65, 44
2, 32021, Note_on_c, 0, 75, 0
2, 32033, Note_on_c, 0, 65, 0
2, 32034, Note_on_c, 0, 60, 0
2, 32034, Note_on_c, 0, 70, 60
2, 32034, Note_on_c, 0, 63, 36
2, 32057, Note_on_c, 0, 75, 68
2, 32060, Note_on_c, 0, 70, 0
2, 32070, Note_on_c, 0, 75, 0
2, 32082, Note_on_c, 0, 65, 54
2, 32083, Note_on_c, 0, 63, 0
2, 32083, Note_on_c, 0, 77, 72
2, 32087, Note_on_c, 0, 65, 0
2, 32108, Note_on_c, 0, 82, 71
2, 32119, Note_on_c, 0, 77, 0
2, 32130, Note_on_c, 0, 82, 0
2, 32134, Note_on_c, 0, 87, 74
2, 32135, Note_on_c, 0, 82, 28
2, 32146, Note_on_c, 0, 82, 0
2, 32158, Note_on_c, 0, 87, 0
2, 32165, Note_on_c, 0, 89, 60
2, 32182, Note_on_c, 0, 89, 0
2, 32200, Note_on_c, 0, 84, 50
2, 32200, Note_on_c, 0, 91, 48
2, 32201, Note_on_c, 0, 53, 38
2, 32204, Control_c, 0, 64, 0
2, 32224, Control_c, 0, 64, 127
2, 32243, Note_on_c, 0, 60, 31
2, 32263, Note_on_c, 0, 91, 0
2, 32267, Note_on_c, 0, 84, 0
2, 32280, Note_on_c, 0, 89, 43
2, 32281, Note_on_c, 0, 80, 25
2, 32282, Note_on_c, 0, 63, 28
2, 32282, Note_on_c, 0, 84, 40
2, 32288, Note_on_c, 0, 60, 0
2, 32296, Note_on_c, 0, 89, 0
2, 32298, Note_on_c, 0, 84, 0
2, 32308, Note_on_c, 0, 80, 0
2, 32324, Note_on_c, 0, 63, 0
2, 32326, Note_on_c, 0, 60, 36
2, 32348, Note_on_c, 0, 60, 0
2, 32399, Note_on_c, 0, 53, 0
2, 32421, Note_on_c, 0, 53, 41
2, 32454, Note_on_c, 0, 53, 0
2, 32477, Note_on_c, 0, 53, 49
2, 32523, Note_on_c, 0, 53, 0
2, 32538, Note_on_c, 0, 67, 27
2, 32561, Note_on_c, 0, 67, 0
2, 32721, Note_on_c, 0, 70, 43
2, 32722, Note_on_c, 0, 63, 30
2, 32724, Note_on_c, 0, 67, 33
2, 32726, Note_on_c, 0, 56, 28
2, 32727, Note_on_c, 0, 60, 34
2, 32727, Note_on_c, 0, 58, 29
2, 32730, Control_c, 0, 64, 0
2, 32750, Control_c, 0, 64, 127
2, 32759, Note_on_c, 0, 70, 0
2, 32780, Note_on_c, 0, 70, 51
2, 32781, Note_on_c, 0, 63, 0
2, 32783, Note_on_c, 0, 67, 0
2, 32790, Note_on_c, 0, 70, 0
2, 32834, Note_on_c, 0, 82, 67
2, 32843, Note_on_c, 0, 82, 0
2, 32888, Note_on_c, 0, 82, 60
2, 32898, Note_on_c, 0, 82, 0
2, 32904, Note_on_c, 0, 58, 0
2, 32906, Note_on_c, 0, 60, 0
2, 32947, Note_on_c, 0, 58, 31
2, 32949, Note_on_c, 0, 70, 46
2, 32952, Note_on_c, 0, 60, 25
2, 32982, Note_on_c, 0, 70, 0
2, 33006, Note_on_c, 0, 70, 52
2, 33009, Note_on_c, 0, 60, 0
2, 33019, Note_on_c, 0, 56, 0
2, 33020, Note_on_c, 0, 58, 0
2, 33021, Note_on_c, 0, 70, 0
2, 33066, Note_on_c, 0, 70, 43
2, 33068, Note_on_c, 0, 63, 25
2, 33070, Note_on_c, 0, 67, 30
2, 33070, Note_on_c, 0, 60, 30
2, 33070, Note_on_c, 0, 58, 23
2, 33071, Note_on_c, 0, 56, 27
2, 33107, Note_on_c, 0, 70, 0
2, 33223, Note_on_c, 0, 60, 0
2, 33242, Note_on_c, 0, 58, 0
2, 33251, Note_on_c, 0, 70, 44
2, 33257, Note_on_c, 0, 56, 0
2, 33271, Note_on_c, 0, 67, 0
2, 33273, Note_on_c, 0, 63, 0
2, 33289, Note_on_c, 0, 70, 0
2, 33477, Note_on_c, 0, 73, 37
2, 33477, Note_on_c, 0, 56, 27
2, 33477, Note_on_c, 0, 46, 29
2, 33478, Note_on_c, 0, 70, 42
2, 33480, Note_on_c, 0, 66, 37
2, 33480, Note_on_c, 0, 50, 48
2, 33481, Note_on_c, 0, 61, 18
2, 33483, Control_c, 0, 64, 0
2, 33517, Control_c, 0, 64, 127
2, 33570, Note_on_c, 0, 61, 0
2, 33572, Note_on_c, 0, 66, 0
2, 33577, Note_on_c, 0, 70, 0
2, 33582, Note_on_c, 0, 73, 0
2, 33610, Note_on_c, 0, 78, 44
2, 33613, Note_on_c, 0, 66, 28
2, 33621, Note_on_c, 0, 66, 0
2, 33626, Note_on_c, 0, 78, 0
2, 33660, Note_on_c, 0, 85, 70
2, 33661, Note_on_c, 0, 73, 53
2, 33676, Note_on_c, 0, 73, 0
2, 33678, Note_on_c, 0, 85, 0
2, 33694, Note_on_c, 0, 70, 39
2, 33694, Note_on_c, 0, 82, 32
2, 33699, Note_on_c, 0, 70, 0
2, 33702, Note_on_c, 0, 82, 0
2, 33729, Note_on_c, 0, 90, 60
2, 33730, Note_on_c, 0, 78, 45
2, 33743, Note_on_c, 0, 78, 0
2, 33744, Note_on_c, 0, 90, 0
2, 33765, Note_on_c, 0, 73, 37
2, 33769, Note_on_c, 0, 73, 0
2, 33805, Note_on_c, 0, 94, 50
2, 33811, Note_on_c, 0, 82, 39
2, 33825, Note_on_c, 0, 82, 0
2, 33825, Note_on_c, 0, 94, 0
2, 33844, Note_on_c, 0, 78, 35
2, 33850, Note_on_c, 0, 78, 0
2, 33885, Note_on_c, 0, 97, 51
2, 33886, Note_on_c, 0, 85, 38
2, 33928, Note_on_c, 0, 97, 0
2, 33939, Note_on_c, 0, 85, 0
2, 34013, Note_on_c, 0, 77, 51
2, 34088, Note_on_c, 0, 56, 0
2, 34093, Note_on_c, 0, 50, 0
2, 34132, Note_on_c, 0, 46, 0
2, 34152, Note_on_c, 0, 77, 0
2, 34158, Note_on_c, 0, 79, 53
2, 34202, Note_on_c, 0, 79, 0
2, 34215, Note_on_c, 0, 80, 49
2, 34253, Note_on_c, 0, 80, 0
2, 34292, Note_on_c, 0, 81, 53
2, 34327, Note_on_c, 0, 81, 0
2, 34329, Note_on_c, 0, 84, 66
2, 34353, Note_on_c, 0, 84, 0
2, 34361, Note_on_c, 0, 82, 57
2, 34361, Note_on_c, 0, 39, 40
2, 34367, Control_c, 0, 64, 0
2, 34386, Control_c, 0, 64, 127
2, 34389, Note_on_c, 0, 39, 0
2, 34392, Note_on_c, 0, 46, 37
2, 34415, Note_on_c, 0, 46, 0
2, 34424, Note_on_c, 0, 55, 37
2, 34456, Note_on_c, 0, 55, 0
2, 34459, Note_on_c, 0, 58, 31
2, 34466, Note_on_c, 0, 75, 15
2, 34474, Note_on_c, 0, 75, 0
2, 34488, Note_on_c, 0, 82, 0
2, 34506, Note_on_c, 0, 63, 42
2, 34508, Note_on_c, 0, 75, 56
2, 34548, Note_on_c, 0, 67, 27
2, 34574, Note_on_c, 0, 75, 0
2, 34577, Note_on_c, 0, 77, 39
2, 34587, Note_on_c, 0, 58, 0
2, 34589, Note_on_c, 0, 67, 0
2, 34591, Note_on_c, 0, 75, 50
2, 34592, Note_on_c, 0, 77, 0
2, 34612, Note_on_c, 0, 75, 0
2, 34612, Note_on_c, 0, 74, 32
2, 34618, Note_on_c, 0, 63, 0
2, 34627, Note_on_c, 0, 74, 0
2, 34634, Note_on_c, 0, 75, 60
2, 34642, Note_on_c, 0, 68, 36
2, 34642, Note_on_c, 0, 60, 35
2, 34644, Note_on_c, 0, 63, 32
2, 34650, Control_c, 0, 64, 0
2, 34669, Control_c, 0, 64, 127
2, 34685, Note_on_c, 0, 58, 35
2, 34686, Note_on_c, 0, 77, 49
2, 34690, Note_on_c, 0, 60, 0
2, 34691, Note_on_c, 0, 75, 0
2, 34694, Note_on_c, 0, 63, 0
2, 34694, Note_on_c, 0, 68, 0
2, 34702, Note_on_c, 0, 58, 0
2, 34745, Note_on_c, 0, 46, 31
2, 34766, Note_on_c, 0, 77, 0
2, 34811, Note_on_c, 0, 34, 19
2, 34818, Note_on_c, 0, 34, 0
2, 34841, Note_on_c, 0, 46, 0
2, 34912, Note_on_c, 0, 75, 45
2, 34932, Note_on_c, 0, 75, 0
2, 34981, Note_on_c, 0, 81, 66
2, 34985, Note_on_c, 0, 74, 57
2, 34989, Note_on_c, 0, 69, 42
2, 34990, Note_on_c, 0, 67, 49
2, 34991, Note_on_c, 0, 39, 39
2, 34993, Control_c, 0, 64, 0
2, 35016, Control_c, 0, 64, 127
2, 35028, Note_on_c, 0, 39, 0
2, 35029, Note_on_c, 0, 46, 36
2, 35050, Note_on_c, 0, 46, 0
2, 35051, Note_on_c, 0, 67, 0
2, 35052, Note_on_c, 0, 69, 0
2, 35060, Note_on_c, 0, 81, 0
2, 35062, Note_on_c, 0, 55, 35
2, 35063, Note_on_c, 0, 79, 44
2, 35067, Note_on_c, 0, 69, 24
2, 35067, Note_on_c, 0, 67, 29
2, 35089, Note_on_c, 0, 79, 0
2, 35091, Note_on_c, 0, 74, 0
2, 35097, Note_on_c, 0, 58, 37
2, 35098, Note_on_c, 0, 69, 0
2, 35099, Note_on_c, 0, 55, 0
2, 35102, Note_on_c, 0, 67, 0
2, 35129, Note_on_c, 0, 62, 31
2, 35130, Note_on_c, 0, 70, 37
2, 35132, Note_on_c, 0, 65, 31
2, 35132, Note_on_c, 0, 74, 28
2, 35143, Note_on_c, 0, 65, 0
2, 35157, Note_on_c, 0, 62, 0
2, 35168, Note_on_c, 0, 67, 28
2, 35170, Note_on_c, 0, 70, 0
2, 35196, Note_on_c, 0, 67, 0
2, 35203, Note_on_c, 0, 74, 0
2, 35207, Note_on_c, 0, 70, 43
2, 35207, Note_on_c, 0, 62, 32
2, 35221, Note_on_c, 0, 58, 0
2, 35250, Note_on_c, 0, 74, 48
2, 35253, Note_on_c, 0, 58, 27
2, 35261, Note_on_c, 0, 58, 0
2, 35262, Note_on_c, 0, 62, 0
2, 35291, Note_on_c, 0, 70, 0
2, 35292, Note_on_c, 0, 74, 0
2, 35296, Note_on_c, 0, 72, 49
2, 35298, Note_on_c, 0, 63, 32
2, 35302, Note_on_c, 0, 68, 18
2, 35304, Note_on_c, 0, 60, 24
2, 35307, Control_c, 0, 64, 0
2, 35328, Control_c, 0, 64, 127
2, 35340, Note_on_c, 0, 58, 44
2, 35348, Note_on_c, 0, 60, 0
2, 35348, Note_on_c, 0, 68, 0
2, 35386, Note_on_c, 0, 68, 53
2, 35412, Note_on_c, 0, 58, 0
2, 35435, Note_on_c, 0, 63, 0
2, 35435, Note_on_c, 0, 65, 51
2, 35435, Note_on_c, 0, 58, 34
2, 35450, Note_on_c, 0, 58, 0
2, 35558, Note_on_c, 0, 46, 48
2, 35567, Note_on_c, 0, 72, 0
2, 35570, Note_on_c, 0, 68, 0
2, 35572, Note_on_c, 0, 65, 0
2, 35592, Note_on_c, 0, 46, 0
2, 35622, Note_on_c, 0, 67, 37
2, 35623, Note_on_c, 0, 59, 43
2, 35624, Note_on_c, 0, 62, 36
2, 35624, Note_on_c, 0, 46, 34
2, 35626, Note_on_c, 0, 64, 26
2, 35627, Note_on_c, 0, 56, 25
2, 35634, Control_c, 0, 64, 0
2, 35652, Control_c, 0, 64, 127
2, 35670, Note_on_c, 0, 59, 0
2, 35672, Note_on_c, 0, 62, 0
2, 35673, Note_on_c, 0, 64, 0
2, 35674, Note_on_c, 0, 67, 0
2, 35690, Note_on_c, 0, 72, 69
2, 35694, Note_on_c, 0, 56, 0
2, 35707, Note_on_c, 0, 46, 0
2, 35734, Note_on_c, 0, 72, 0
2, 35739, Note_on_c, 0, 70, 55
2, 35742, Note_on_c, 0, 62, 34
2, 35743, Note_on_c, 0, 67, 36
2, 35745, Note_on_c, 0, 39, 40
2, 35750, Control_c, 0, 64, 0
2, 35771, Control_c, 0, 64, 127
2, 35772, Note_on_c, 0, 39, 0
2, 35773, Note_on_c, 0, 46, 49
2, 35796, Note_on_c, 0, 62, 0
2, 35798, Note_on_c, 0, 67, 0
2, 35805, Note_on_c, 0, 55, 59
2, 35814, Note_on_c, 0, 70, 0
2, 35877, Note_on_c, 0, 63, 74
2, 35903, Note_on_c, 0, 46, 0
2, 35926, Note_on_c, 0, 55, 0
2, 35933, Note_on_c, 0, 63, 0
2, 35939, Note_on_c, 0, 46, 31
2, 35939, Note_on_c, 0, 60, 67
2, 35940, Note_on_c, 0, 63, 61
2, 35943, Note_on_c, 0, 56, 25
2, 35949, Control_c, 0, 64, 0
2, 35972, Control_c, 0, 64, 127
2, 35985, Note_on_c, 0, 60, 0
2, 35988, Note_on_c, 0, 62, 66
2, 35990, Note_on_c, 0, 65, 71
2, 35994, Note_on_c, 0, 63, 0
2, 36022, Note_on_c, 0, 56, 0
2, 36030, Note_on_c, 0, 65, 0
2, 36040, Note_on_c, 0, 63, 56
2, 36041, Note_on_c, 0, 56, 44
2, 36041, Note_on_c, 0, 67, 65
2, 36049, Note_on_c, 0, 62, 0
2, 36052, Note_on_c, 0, 63, 0
2, 36057, Note_on_c, 0, 67, 0
2, 36096, Note_on_c, 0, 46, 0
2, 36112, Note_on_c, 0, 74, 79
2, 36114, Note_on_c, 0, 67, 77
2, 36123, Note_on_c, 0, 56, 0
2, 36151, Note_on_c, 0, 67, 0
2, 36153, Note_on_c, 0, 74, 0
2, 36165, Note_on_c, 0, 70, 58
2, 36166, Note_on_c, 0, 62, 53
2, 36167, Control_c, 0, 64, 0
2, 36168, Note_on_c, 0, 39, 47
2, 36168, Note_on_c, 0, 67, 32
2, 36184, Control_c, 0, 64, 127
2, 36187, Note_on_c, 0, 67, 0
2, 36188, Note_on_c, 0, 62, 0
2, 36196, Note_on_c, 0, 70, 0
2, 36210, Note_on_c, 0, 77, 66
2, 36210, Note_on_c, 0, 70, 67
2, 36211, Note_on_c, 0, 46, 46
2, 36213, Note_on_c, 0, 39, 0
2, 36251, Note_on_c, 0, 70, 0
2, 36253, Note_on_c, 0, 77, 0
2, 36254, Note_on_c, 0, 46, 0
2, 36257, Note_on_c, 0, 70, 18
2, 36258, Note_on_c, 0, 55, 60
2, 36260, Note_on_c, 0, 74, 40
2, 36261, Note_on_c, 0, 65, 50
2, 36267, Note_on_c, 0, 65, 0
2, 36271, Note_on_c, 0, 70, 0
2, 36274, Note_on_c, 0, 74, 0
2, 36311, Note_on_c, 0, 82, 65
2, 36312, Note_on_c, 0, 55, 0
2, 36313, Note_on_c, 0, 58, 37
2, 36331, Note_on_c, 0, 58, 0
2, 36422, Note_on_c, 0, 78, 51
2, 36423, Note_on_c, 0, 68, 37
2, 36423, Note_on_c, 0, 73, 46
2, 36424, Note_on_c, 0, 58, 37
2, 36425, Note_on_c, 0, 82, 0
2, 36425, Note_on_c, 0, 62, 30
2, 36432, Control_c, 0, 64, 0
2, 36451, Control_c, 0, 64, 127
2, 36468, Note_on_c, 0, 78, 0
2, 36486, Note_on_c, 0, 85, 64
2, 36525, Note_on_c, 0, 68, 0
2, 36532, Note_on_c, 0, 73, 0
2, 36555, Note_on_c, 0, 85, 0
2, 36557, Note_on_c, 0, 82, 37
2, 36558, Note_on_c, 0, 78, 34
2, 36558, Note_on_c, 0, 73, 32
2, 36561, Note_on_c, 0, 68, 21
2, 36588, Note_on_c, 0, 73, 0
2, 36589, Note_on_c, 0, 78, 0
2, 36594, Note_on_c, 0, 82, 0
2, 36623, Note_on_c, 0, 68, 0
2, 36630, Note_on_c, 0, 90, 48
2, 36631, Note_on_c, 0, 78, 30
2, 36634, Note_on_c, 0, 62, 0
2, 36644, Note_on_c, 0, 58, 0
2, 36662, Note_on_c, 0, 78, 0
2, 36666, Note_on_c, 0, 90, 0
2, 36792, Note_on_c, 0, 89, 46
2, 36793, Note_on_c, 0, 81, 32
2, 36795, Note_on_c, 0, 39, 39
2, 36805, Control_c, 0, 64, 0
2, 36811, Note_on_c, 0, 79, 1
2, 36830, Control_c, 0, 64, 127
2, 36837, Note_on_c, 0, 46, 44
2, 36839, Note_on_c, 0, 39, 0
2, 36863, Note_on_c, 0, 46, 0
2, 36865, Note_on_c, 0, 81, 0
2, 36867, Note_on_c, 0, 79, 0
2, 36875, Note_on_c, 0, 55, 45
2, 36877, Note_on_c, 0, 79, 26
2, 36878, Note_on_c, 0, 81, 27
2, 36879, Note_on_c, 0, 89, 0
2, 36896, Note_on_c, 0, 81, 0
2, 36904, Note_on_c, 0, 79, 0
2, 36915, Note_on_c, 0, 58, 44
2, 36919, Note_on_c, 0, 55, 0
2, 36956, Note_on_c, 0, 62, 31
2, 37003, Note_on_c, 0, 67, 26
2, 37006, Note_on_c, 0, 86, 37
2, 37011, Note_on_c, 0, 74, 23
2, 37013, Note_on_c, 0, 62, 0
2, 37030, Note_on_c, 0, 86, 0
2, 37038, Note_on_c, 0, 74, 0
2, 37045, Note_on_c, 0, 67, 0
2, 37058, Note_on_c, 0, 62, 37
2, 37075, Note_on_c, 0, 58, 0
2, 37138, Note_on_c, 0, 62, 0
2, 37138, Note_on_c, 0, 67, 35
2, 37143, Note_on_c, 0, 58, 28
2, 37205, Note_on_c, 0, 67, 0
2, 37216, Note_on_c, 0, 62, 47
2, 37217, Note_on_c, 0, 60, 41
2, 37221, Note_on_c, 0, 50, 42
2, 37226, Control_c, 0, 64, 0
2, 37249, Control_c, 0, 64, 127
2, 37257, Note_on_c, 0, 58, 0
2, 37262, Note_on_c, 0, 60, 0
2, 37270, Note_on_c, 0, 56, 32
2, 37272, Note_on_c, 0, 65, 60
2, 37273, Note_on_c, 0, 62, 0
2, 37284, Note_on_c, 0, 65, 0
2, 37315, Note_on_c, 0, 68, 71
2, 37322, Note_on_c, 0, 60, 30
2, 37340, Note_on_c, 0, 68, 0
2, 37365, Note_on_c, 0, 79, 79
2, 37372, Note_on_c, 0, 60, 0
2, 37374, Note_on_c, 0, 50, 0
2, 37374, Note_on_c, 0, 56, 0
2, 37416, Note_on_c, 0, 79, 0
2, 37440, Note_on_c, 0, 80, 59
2, 37443, Note_on_c, 0, 43, 37
2, 37449, Control_c, 0, 64, 0
2, 37468, Control_c, 0, 64, 127
2, 37488, Note_on_c, 0, 43, 0
2, 37495, Note_on_c, 0, 82, 61
2, 37496, Note_on_c, 0, 80, 0
2, 37523, Note_on_c, 0, 82, 0
2, 37529, Note_on_c, 0, 68, 45
2, 37648, Note_on_c, 0, 62, 27
2, 37650, Note_on_c, 0, 59, 25
2, 37754, Note_on_c, 0, 68, 0
2, 37773, Note_on_c, 0, 79, 46
2, 37790, Note_on_c, 0, 79, 0
2, 37815, Note_on_c, 0, 86, 68
2, 37827, Note_on_c, 0, 62, 0
2, 37829, Note_on_c, 0, 59, 0
2, 37841, Note_on_c, 0, 86, 0
2, 37843, Note_on_c, 0, 79, 51
2, 37868, Note_on_c, 0, 79, 0
2, 37878, Note_on_c, 0, 87, 69
2, 37883, Note_on_c, 0, 48, 42
2, 37885, Control_c, 0, 64, 0
2, 37902, Control_c, 0, 64, 127
2, 37915, Note_on_c, 0, 48, 0
2, 37921, Note_on_c, 0, 75, 33
2, 37933, Note_on_c, 0, 87, 0
2, 37951, Note_on_c, 0, 63, 39
2, 37976, Note_on_c, 0, 75, 0
2, 38009, Note_on_c, 0, 74, 45
2, 38035, Note_on_c, 0, 86, 58
2, 38037, Note_on_c, 0, 63, 0
2, 38054, Note_on_c, 0, 86, 0
2, 38064, Note_on_c, 0, 74, 0
2, 38075, Note_on_c, 0, 47, 37
2, 38085, Control_c, 0, 64, 0
2, 38092, Note_on_c, 0, 83, 6
2, 38104, Control_c, 0, 64, 127
2, 38106, Note_on_c, 0, 83, 0
2, 38121, Note_on_c, 0, 56, 11
2, 38154, Note_on_c, 0, 59, 24
2, 38157, Note_on_c, 0, 62, 18
2, 38173, Note_on_c, 0, 56, 0
2, 38179, Note_on_c, 0, 59, 0
2, 38186, Note_on_c, 0, 74, 44
2, 38192, Note_on_c, 0, 47, 0
2, 38198, Note_on_c, 0, 74, 0
2, 38220, Note_on_c, 0, 62, 0
2, 38224, Note_on_c, 0, 73, 47
2, 38224, Note_on_c, 0, 46, 43
2, 38228, Note_on_c, 0, 56, 23
2, 38235, Control_c, 0, 64, 0
2, 38257, Note_on_c, 0, 73, 0
2, 38257, Control_c, 0, 64, 127
2, 38268, Note_on_c, 0, 56, 0
2, 38270, Note_on_c, 0, 53, 30
2, 38270, Note_on_c, 0, 61, 18
2, 38272, Note_on_c, 0, 75, 56
2, 38308, Note_on_c, 0, 61, 0
2, 38311, Note_on_c, 0, 75, 0
2, 38326, Note_on_c, 0, 75, 39
2, 38328, Note_on_c, 0, 61, 26
2, 38330, Note_on_c, 0, 56, 27
2, 38350, Note_on_c, 0, 46, 0
2, 38358, Note_on_c, 0, 75, 0
2, 38367, Note_on_c, 0, 61, 0
2, 38381, Note_on_c, 0, 46, 33
2, 38381, Note_on_c, 0, 75, 42
2, 38382, Note_on_c, 0, 53, 0
2, 38384, Note_on_c, 0, 61, 13
2, 38399, Note_on_c, 0, 56, 0
2, 38400, Note_on_c, 0, 75, 0
2, 38401, Note_on_c, 0, 61, 0
2, 38411, Note_on_c, 0, 46, 0
2, 38476, Note_on_c, 0, 45, 34
2, 38478, Note_on_c, 0, 75, 43
2, 38478, Note_on_c, 0, 55, 32
2, 38481, Note_on_c, 0, 67, 33
2, 38488, Note_on_c, 0, 61, 4
2, 38587, Note_on_c, 0, 55, 0
2, 38598, Note_on_c, 0, 75, 0
2, 38600, Note_on_c, 0, 67, 0
2, 38603, Note_on_c, 0, 45, 0
2, 38611, Note_on_c, 0, 61, 0
2, 38692, Note_on_c, 0, 72, 42
2, 38695, Note_on_c, 0, 60, 32
2, 38696, Note_on_c, 0, 44, 36
2, 38697, Note_on_c, 0, 67, 18
2, 38699, Control_c, 0, 64, 0
2, 38721, Control_c, 0, 64, 127
2, 38725, Note_on_c, 0, 67, 0
2, 38726, Note_on_c, 0, 72, 0
2, 38728, Note_on_c, 0, 51, 43
2, 38739, Note_on_c, 0, 60, 0
2, 38770, Note_on_c, 0, 55, 58
2, 38810, Note_on_c, 0, 60, 72
2, 38852, Note_on_c, 0, 60, 0
2, 38858, Note_on_c, 0, 63, 69
2, 38861, Note_on_c, 0, 60, 29
2, 38866, Note_on_c, 0, 60, 0
2, 38892, Note_on_c, 0, 63, 0
2, 38907, Note_on_c, 0, 65, 60
2, 38927, Note_on_c, 0, 65, 0
2, 38959, Note_on_c, 0, 65, 59
2, 38969, Note_on_c, 0, 44, 0
2, 38975, Note_on_c, 0, 51, 0
2, 39003, Note_on_c, 0, 65, 0
2, 39011, Note_on_c, 0, 67, 46
2, 39044, Note_on_c, 0, 67, 0
2, 39072, Note_on_c, 0, 55, 0
2, 39092, Note_on_c, 0, 67, 50
2, 39095, Note_on_c, 0, 50, 38
2, 39095, Note_on_c, 0, 60, 55
2, 39096, Note_on_c, 0, 56, 37
2, 39104, Control_c, 0, 64, 0
2, 39133, Control_c, 0, 64, 127
2, 39145, Note_on_c, 0, 67, 0
2, 39164, Note_on_c, 0, 68, 62
2, 39196, Note_on_c, 0, 68, 0
2, 39216, Note_on_c, 0, 56, 0
2, 39228, Note_on_c, 0, 68, 55
2, 39234, Note_on_c, 0, 60, 0
2, 39249, Note_on_c, 0, 68, 0
2, 39265, Note_on_c, 0, 50, 0
2, 39292, Note_on_c, 0, 70, 35
2, 39339, Note_on_c, 0, 70, 0
2, 39449, Note_on_c, 0, 63, 32
2, 39449, Note_on_c, 0, 68, 39
2, 39449, Note_on_c, 0, 71, 30
2, 39450, Note_on_c, 0, 59, 36
2, 39453, Note_on_c, 0, 43, 35
2, 39454, Control_c, 0, 64, 0
2, 39456, Note_on_c, 0, 53, 26
2, 39481, Control_c, 0, 64, 127
2, 39540, Note_on_c, 0, 53, 0
2, 39548, Note_on_c, 0, 68, 0
2, 39548, Note_on_c, 0, 59, 0
2, 39550, Note_on_c, 0, 71, 0
2, 39558, Note_on_c, 0, 63, 0
2, 39627, Note_on_c, 0, 43, 0
2, 39713, Note_on_c, 0, 68, 42
2, 39716, Note_on_c, 0, 62, 26
2, 39717, Note_on_c, 0, 59, 25
2, 39718, Note_on_c, 0, 43, 24
2, 39718, Note_on_c, 0, 65, 33
2, 39720, Note_on_c, 0, 53, 17
2, 39740, Note_on_c, 0, 43, 0
2, 39746, Note_on_c, 0, 59, 0
2, 39749, Note_on_c, 0, 62, 0
2, 39750, Note_on_c, 0, 53, 0
2, 39752, Note_on_c, 0, 68, 0
2, 39760, Note_on_c, 0, 65, 0
2, 39785, Note_on_c, 0, 67, 37
2, 39786, Note_on_c, 0, 63, 36
2, 39787, Note_on_c, 0, 48, 32
2, 39787, Note_on_c, 0, 58, 27
2, 39790, Control_c, 0, 64, 0
2, 39810, Control_c, 0, 64, 127
2, 39818, Note_on_c, 0, 58, 0
2, 39825, Note_on_c, 0, 67, 0
2, 39826, Note_on_c, 0, 63, 0
2, 39833, Note_on_c, 0, 55, 29
2, 39882, Note_on_c, 0, 72, 47
2, 39884, Note_on_c, 0, 60, 36
2, 39920, Note_on_c, 0, 55, 0
2, 39963, Note_on_c, 0, 60, 0
2, 39963, Note_on_c, 0, 55, 25
2, 40006, Note_on_c, 0, 48, 0
2, 40033, Note_on_c, 0, 72, 0
2, 40037, Note_on_c, 0, 74, 51
2, 40040, Note_on_c, 0, 62, 32
2, 40056, Note_on_c, 0, 55, 0
2, 40077, Note_on_c, 0, 62, 0
2, 40077, Note_on_c, 0, 55, 27
2, 40121, Note_on_c, 0, 75, 69
2, 40125, Note_on_c, 0, 60, 41
2, 40125, Note_on_c, 0, 63, 32
2, 40145, Note_on_c, 0, 55, 0
2, 40179, Note_on_c, 0, 55, 36
2, 40181, Note_on_c, 0, 60, 0
2, 40198, Note_on_c, 0, 74, 0
2, 40223, Note_on_c, 0, 75, 0
2, 40227, Note_on_c, 0, 63, 0
2, 40236, Note_on_c, 0, 47, 43
2, 40237, Note_on_c, 0, 74, 54
2, 40237, Note_on_c, 0, 62, 53
2, 40238, Note_on_c, 0, 55, 0
2, 40240, Control_c, 0, 64, 0
2, 40259, Control_c, 0, 64, 127
2, 40275, Note_on_c, 0, 74, 0
2, 40276, Note_on_c, 0, 62, 0
2, 40294, Note_on_c, 0, 56, 36
2, 40296, Note_on_c, 0, 75, 57
2, 40298, Note_on_c, 0, 63, 32
2, 40334, Note_on_c, 0, 75, 0
2, 40335, Note_on_c, 0, 63, 0
2, 40350, Note_on_c, 0, 56, 0
2, 40351, Note_on_c, 0, 74, 51
2, 40352, Note_on_c, 0, 59, 26
2, 40353, Note_on_c, 0, 62, 46
2, 40385, Note_on_c, 0, 59, 0
2, 40405, Note_on_c, 0, 62, 0
2, 40419, Note_on_c, 0, 59, 26
2, 40440, Note_on_c, 0, 47, 0
2, 40453, Note_on_c, 0, 59, 0
2, 40484, Note_on_c, 0, 62, 41
2, 40536, Note_on_c, 0, 59, 30
2, 40537, Note_on_c, 0, 62, 0
2, 40549, Note_on_c, 0, 59, 0
2, 40577, Note_on_c, 0, 74, 0
2, 40583, Note_on_c, 0, 65, 36
2, 40627, Note_on_c, 0, 77, 72
2, 40663, Note_on_c, 0, 77, 0
2, 40672, Note_on_c, 0, 65, 0
2, 40675, Note_on_c, 0, 46, 34
2, 40675, Note_on_c, 0, 75, 64
2, 40678, Control_c, 0, 64, 0
2, 40697, Control_c, 0, 64, 127
2, 40721, Note_on_c, 0, 46, 0
2, 40721, Note_on_c, 0, 63, 37
2, 40722, Note_on_c, 0, 55, 32
2, 40757, Note_on_c, 0, 55, 0
2, 40766, Note_on_c, 0, 58, 34
2, 40774, Note_on_c, 0, 63, 0
2, 40808, Note_on_c, 0, 75, 0
2, 40808, Note_on_c, 0, 63, 30
2, 40855, Note_on_c, 0, 67, 31
2, 40856, Note_on_c, 0, 75, 60
2, 40858, Note_on_c, 0, 63, 0
2, 40878, Note_on_c, 0, 67, 0
2, 40899, Note_on_c, 0, 63, 37
2, 40913, Note_on_c, 0, 58, 0
2, 40939, Note_on_c, 0, 75, 0
2, 40945, Note_on_c, 0, 77, 55
2, 40945, Note_on_c, 0, 58, 38
2, 40946, Note_on_c, 0, 63, 0
2, 40948, Note_on_c, 0, 65, 48
2, 40956, Note_on_c, 0, 58, 0
2, 40964, Note_on_c, 0, 65, 0
2, 40967, Note_on_c, 0, 77, 0
2, 40991, Note_on_c, 0, 46, 37
2, 40993, Note_on_c, 0, 79, 50
2, 40996, Note_on_c, 0, 67, 25
2, 41012, Note_on_c, 0, 67, 0
2, 41030, Note_on_c, 0, 79, 0
2, 41038, Note_on_c, 0, 46, 0
2, 41121, Note_on_c, 0, 77, 45
2, 41123, Note_on_c, 0, 65, 34
2, 41124, Note_on_c, 0, 67, 33
2, 41124, Note_on_c, 0, 45, 35
2, 41132, Control_c, 0, 64, 0
2, 41155, Control_c, 0, 64, 127
2, 41162, Note_on_c, 0, 77, 0
2, 41176, Note_on_c, 0, 45, 0
2, 41178, Note_on_c, 0, 55, 40
2, 41179, Note_on_c, 0, 79, 55
2, 41185, Note_on_c, 0, 55, 0
2, 41200, Note_on_c, 0, 65, 0
2, 41204, Note_on_c, 0, 67, 0
2, 41239, Note_on_c, 0, 77, 40
2, 41245, Note_on_c, 0, 79, 0
2, 41247, Note_on_c, 0, 65, 19
2, 41247, Note_on_c, 0, 67, 17
2, 41305, Note_on_c, 0, 60, 38
2, 41315, Note_on_c, 0, 65, 0
2, 41318, Note_on_c, 0, 67, 0
2, 41376, Note_on_c, 0, 60, 0
2, 41426, Note_on_c, 0, 60, 44
2, 41501, Note_on_c, 0, 67, 29
2, 41501, Note_on_c, 0, 65, 32
2, 41502, Note_on_c, 0, 63, 27
2, 41550, Note_on_c, 0, 60, 0
2, 41580, Note_on_c, 0, 63, 0
2, 41618, Note_on_c, 0, 65, 0
2, 41620, Note_on_c, 0, 60, 33
2, 41634, Note_on_c, 0, 67, 0
2, 41637, Note_on_c, 0, 60, 0
2, 41715, Note_on_c, 0, 67, 29
2, 41717, Note_on_c, 0, 72, 44
2, 41721, Note_on_c, 0, 44, 31
2, 41727, Control_c, 0, 64, 0
2, 41747, Control_c, 0, 64, 127
2, 41767, Note_on_c, 0, 51, 40
2, 41774, Note_on_c, 0, 44, 0
2, 41777, Note_on_c, 0, 51, 0
2, 41819, Note_on_c, 0, 56, 38
2, 41846, Note_on_c, 0, 67, 0
2, 41851, Note_on_c, 0, 72, 0
2, 41854, Note_on_c, 0, 77, 0
2, 41873, Note_on_c, 0, 60, 32
2, 41918, Note_on_c, 0, 60, 0
2, 41927, Note_on_c, 0, 63, 31
2, 41927, Note_on_c, 0, 84, 57
2, 41929, Note_on_c, 0, 72, 38
2, 41990, Note_on_c, 0, 72, 0
2, 41991, Note_on_c, 0, 60, 36
2, 41992, Note_on_c, 0, 63, 0
2, 41994, Note_on_c, 0, 84, 0
2, 42047, Note_on_c, 0, 63, 38
2, 42047, Note_on_c, 0, 86, 70
2, 42048, Note_on_c, 0, 74, 66
2, 42056, Note_on_c, 0, 56, 0
2, 42081, Note_on_c, 0, 86, 0
2, 42081, Note_on_c, 0, 63, 0
2, 42091, Note_on_c, 0, 74, 0
2, 42127, Note_on_c, 0, 56, 31
2, 42132, Note_on_c, 0, 60, 0
2, 42192, Note_on_c, 0, 75, 39
2, 42193, Note_on_c, 0, 87, 47
2, 42195, Note_on_c, 0, 56, 0
2, 42255, Note_on_c, 0, 87, 0
2, 42262, Note_on_c, 0, 75, 0
2, 42275, Note_on_c, 0, 86, 52
2, 42275, Note_on_c, 0, 41, 37
2, 42277, Note_on_c, 0, 74, 40
2, 42281, Control_c, 0, 64, 0
2, 42298, Control_c, 0, 64, 127
2, 42311, Note_on_c, 0, 41, 0
2, 42334, Note_on_c, 0, 55, 72
2, 42388, Note_on_c, 0, 55, 0
2, 42392, Note_on_c, 0, 56, 48
2, 42401, Note_on_c, 0, 86, 0
2, 42415, Note_on_c, 0, 74, 0
2, 42463, Note_on_c, 0, 60, 37
2, 42463, Note_on_c, 0, 87, 60
2, 42465, Note_on_c, 0, 75, 47
2, 42495, Note_on_c, 0, 60, 0
2, 42505, Note_on_c, 0, 56, 0
2, 42532, Note_on_c, 0, 87, 0
2, 42533, Note_on_c, 0, 75, 0
2, 42543, Note_on_c, 0, 86, 54
2, 42543, Note_on_c, 0, 60, 43
2, 42543, Note_on_c, 0, 74, 40
2, 42543, Note_on_c, 0, 50, 40
2, 42547, Control_c, 0, 64, 0
2, 42565, Control_c, 0, 64, 127
2, 42614, Note_on_c, 0, 60, 0
2, 42626, Note_on_c, 0, 56, 33
2, 42628, Note_on_c, 0, 86, 0
2, 42641, Note_on_c, 0, 74, 0
2, 42650, Note_on_c, 0, 50, 0
2, 42656, Note_on_c, 0, 56, 0
2, 42811, Note_on_c, 0, 63, 31
2, 42812, Note_on_c, 0, 67, 31
2, 42812, Note_on_c, 0, 59, 31
2, 42816, Note_on_c, 0, 53, 31
2, 42817, Note_on_c, 0, 43, 27
2, 42829, Control_c, 0, 64, 0
2, 42866, Control_c, 0, 64, 127
2, 42913, Note_on_c, 0, 59, 0
2, 42923, Note_on_c, 0, 67, 0
2, 42924, Note_on_c, 0, 63, 0
2, 43035, Note_on_c, 0, 77, 53
2, 43044, Note_on_c, 0, 43, 0
2, 43077, Note_on_c, 0, 77, 0
2, 43115, Note_on_c, 0, 53, 0
2, 43123, Note_on_c, 0, 75, 52
2, 43124, Note_on_c, 0, 48, 34
2, 43128, Control_c, 0, 64, 0
2, 43144, Control_c, 0, 64, 127
2, 43160, Note_on_c, 0, 48, 0
2, 43170, Note_on_c, 0, 55, 34
2, 43203, Note_on_c, 0, 62, 39
2, 43229, Note_on_c, 0, 63, 51
2, 43244, Note_on_c, 0, 75, 0
2, 43257, Note_on_c, 0, 67, 38
2, 43287, Note_on_c, 0, 75, 75
2, 43305, Note_on_c, 0, 75, 0
2, 43330, Note_on_c, 0, 75, 69
2, 43357, Note_on_c, 0, 75, 0
2, 43383, Note_on_c, 0, 75, 57
2, 43405, Note_on_c, 0, 75, 0
2, 43429, Note_on_c, 0, 62, 0
2, 43431, Note_on_c, 0, 75, 47
2, 43452, Note_on_c, 0, 55, 0
2, 43455, Note_on_c, 0, 75, 0
2, 43478, Note_on_c, 0, 75, 49
2, 43493, Note_on_c, 0, 67, 0
2, 43511, Note_on_c, 0, 64, 27
2, 43514, Note_on_c, 0, 63, 0
2, 43522, Note_on_c, 0, 73, 50
2, 43524, Note_on_c, 0, 62, 27
2, 43524, Note_on_c, 0, 76, 33
2, 43525, Note_on_c, 0, 66, 35
2, 43525, Note_on_c, 0, 47, 37
2, 43529, Note_on_c, 0, 75, 0
2, 43533, Note_on_c, 0, 69, 50
2, 43545, Control_c, 0, 64, 0
2, 43581, Control_c, 0, 64, 127
2, 43623, Note_on_c, 0, 64, 0
2, 43636, Note_on_c, 0, 62, 0
2, 43638, Note_on_c, 0, 73, 0
2, 43643, Note_on_c, 0, 76, 0
2, 43646, Note_on_c, 0, 66, 0
2, 43653, Note_on_c, 0, 69, 0
2, 43666, Note_on_c, 0, 47, 0
2, 43680, Note_on_c, 0, 54, 32
2, 43688, Note_on_c, 0, 54, 0
2, 43774, Note_on_c, 0, 66, 33
2, 43774, Note_on_c, 0, 64, 42
2, 43774, Note_on_c, 0, 69, 38
2, 43774, Note_on_c, 0, 76, 40
2, 43775, Note_on_c, 0, 73, 43
2, 43777, Note_on_c, 0, 62, 36
2, 43815, Note_on_c, 0, 76, 0
2, 43824, Note_on_c, 0, 66, 0
2, 43832, Note_on_c, 0, 64, 0
2, 43833, Note_on_c, 0, 62, 0
2, 43838, Note_on_c, 0, 76, 47
2, 43855, Note_on_c, 0, 69, 0
2, 43856, Note_on_c, 0, 76, 0
2, 43867, Note_on_c, 0, 73, 0
2, 43907, Note_on_c, 0, 77, 56
2, 43910, Note_on_c, 0, 70, 36
2, 43911, Note_on_c, 0, 56, 25
2, 43911, Note_on_c, 0, 65, 31
2, 43911, Control_c, 0, 64, 0
2, 43911, Note_on_c, 0, 46, 26
2, 43931, Control_c, 0, 64, 127
2, 43942, Note_on_c, 0, 46, 0
2, 43950, Note_on_c, 0, 56, 0
2, 43961, Note_on_c, 0, 77, 0
2, 43971, Note_on_c, 0, 65, 0
2, 43978, Note_on_c, 0, 70, 0
2, 43979, Note_on_c, 0, 61, 61
2, 43979, Note_on_c, 0, 77, 60
2, 44015, Note_on_c, 0, 61, 0
2, 44019, Note_on_c, 0, 77, 0
2, 44041, Note_on_c, 0, 61, 35
2, 44044, Note_on_c, 0, 77, 58
2, 44045, Note_on_c, 0, 65, 40
2, 44050, Note_on_c, 0, 60, 29
2, 44094, Note_on_c, 0, 77, 0
2, 44103, Note_on_c, 0, 65, 0
2, 44110, Note_on_c, 0, 60, 0
2, 44123, Note_on_c, 0, 77, 48
2, 44125, Note_on_c, 0, 58, 29
2, 44131, Note_on_c, 0, 61, 0
2, 44157, Note_on_c, 0, 58, 0
2, 44249, Note_on_c, 0, 77, 0
2, 44321, Control_c, 0, 64, 0
2, 44327, Control_c, 0, 64, 127
2, 44328, Note_on_c, 0, 45, 36
2, 44337, Note_on_c, 0, 45, 0
2, 44394, Note_on_c, 0, 55, 30
2, 44400, Note_on_c, 0, 60, 18
2, 44412, Note_on_c, 0, 72, 40
2, 44415, Note_on_c, 0, 65, 32
2, 44417, Note_on_c, 0, 61, 19
2, 44422, Note_on_c, 0, 84, 58
2, 44454, Note_on_c, 0, 72, 0
2, 44460, Note_on_c, 0, 84, 0
2, 44512, Note_on_c, 0, 84, 53
2, 44519, Note_on_c, 0, 96, 55
2, 44582, Note_on_c, 0, 96, 0
2, 44588, Note_on_c, 0, 84, 0
2, 44641, Note_on_c, 0, 82, 35
2, 44642, Note_on_c, 0, 94, 36
2, 44654, Note_on_c, 0, 65, 0
2, 44660, Note_on_c, 0, 61, 0
2, 44663, Note_on_c, 0, 60, 0
2, 44666, Note_on_c, 0, 55, 0
2, 44668, Note_on_c, 0, 94, 0
2, 44675, Note_on_c, 0, 82, 0
2, 44766, Note_on_c, 0, 79, 36
2, 44768, Note_on_c, 0, 51, 35
2, 44769, Note_on_c, 0, 84, 39
2, 44770, Note_on_c, 0, 44, 27
2, 44773, Control_c, 0, 64, 0
2, 44791, Control_c, 0, 64, 127
2, 44810, Note_on_c, 0, 84, 0
2, 44818, Note_on_c, 0, 79, 0
2, 44900, Note_on_c, 0, 44, 0
2, 44903, Note_on_c, 0, 51, 0
2, 44968, Note_on_c, 0, 75, 59
2, 44972, Note_on_c, 0, 68, 52
2, 44973, Note_on_c, 0, 65, 47
2, 44973, Note_on_c, 0, 60, 54
2, 44974, Note_on_c, 0, 72, 46
2, 44975, Control_c, 0, 64, 0
2, 44990, Control_c, 0, 64, 127
2, 45007, Note_on_c, 0, 72, 0
2, 45009, Note_on_c, 0, 75, 0
2, 45017, Note_on_c, 0, 65, 0
2, 45020, Note_on_c, 0, 68, 0
2, 45048, Note_on_c, 0, 60, 0
2, 45053, Note_on_c, 0, 63, 42
2, 45054, Note_on_c, 0, 72, 50
2, 45055, Note_on_c, 0, 56, 42
2, 45055, Note_on_c, 0, 68, 52
2, 45058, Control_c, 0, 64, 0
2, 45074, Control_c, 0, 64, 127
2, 45093, Note_on_c, 0, 72, 0
2, 45098, Note_on_c, 0, 68, 0
2, 45100, Note_on_c, 0, 63, 0
2, 45106, Note_on_c, 0, 56, 0
2, 45147, Note_on_c, 0, 68, 48
2, 45149, Note_on_c, 0, 60, 36
2, 45149, Note_on_c, 0, 63, 35
2, 45154, Note_on_c, 0, 53, 24
2, 45165, Control_c, 0, 64, 0
2, 45188, Control_c, 0, 64, 127
2, 45240, Note_on_c, 0, 53, 0
2, 45253, Note_on_c, 0, 68, 0
2, 45254, Note_on_c, 0, 60, 0
2, 45261, Note_on_c, 0, 63, 0
2, 45359, Note_on_c, 0, 56, 27
2, 45359, Note_on_c, 0, 67, 35
2, 45359, Note_on_c, 0, 46, 37
2, 45360, Note_on_c, 0, 63, 33
2, 45361, Note_on_c, 0, 60, 50
2, 45366, Control_c, 0, 64, 0
2, 45392, Control_c, 0, 64, 127
2, 45411, Note_on_c, 0, 46, 0
2, 45535, Note_on_c, 0, 22, 40
2, 45551, Note_on_c, 0, 22, 0
2, 45702, Note_on_c, 0, 63, 0
2, 45764, Note_on_c, 0, 60, 0
2, 45907, Note_on_c, 0, 67, 0
2, 45919, Note_on_c, 0, 65, 40
2, 45944, Note_on_c, 0, 56, 0
2, 45954, Note_on_c, 0, 65, 0
2, 46062, Note_on_c, 0, 64, 27
2, 46063, Note_on_c, 0, 67, 34
2, 46063, Note_on_c, 0, 57, 36
2, 46064, Note_on_c, 0, 22, 29
2, 46064, Note_on_c, 0, 62, 36
2, 46064, Note_on_c, 0, 59, 48
2, 46065, Note_on_c, 0, 34, 27
2, 46075, Control_c, 0, 64, 0
2, 46136, Control_c, 0, 64, 127
2, 46165, Note_on_c, 0, 22, 0
2, 46173, Note_on_c, 0, 34, 0
2, 46189, Note_on_c, 0, 57, 0
2, 46193, Note_on_c, 0, 59, 0
2, 46197, Note_on_c, 0, 62, 0
2, 46203, Note_on_c, 0, 64, 0
2, 46206, Note_on_c, 0, 67, 0
2, 46228, Note_on_c, 0, 67, 35
2, 46271, Note_on_c, 0, 67, 0
2, 46400, Note_on_c, 0, 67, 24
2, 46402, Note_on_c, 0, 62, 35
2, 46403, Note_on_c, 0, 46, 32
2, 46403, Note_on_c, 0, 56, 29
2, 46403, Note_on_c, 0, 59, 30
2, 46404, Note_on_c, 0, 64, 28
2, 46410, Control_c, 0, 64, 0
2, 46431, Control_c, 0, 64, 127
2, 46618, Note_on_c, 0, 67, 0
2, 46662, Note_on_c, 0, 67, 34
2, 46754, Note_on_c, 0, 56, 0
2, 46754, Note_on_c, 0, 46, 0
2, 46778, Note_on_c, 0, 59, 0
2, 46790, Note_on_c, 0, 64, 0
2, 46804, Note_on_c, 0, 62, 0
2, 46868, Note_on_c, 0, 67, 0
2, 46901, Note_on_c, 0, 63, 32
2, 46901, Note_on_c, 0, 60, 29
2, 46902, Note_on_c, 0, 48, 39
2, 46905, Control_c, 0, 64, 0
2, 46905, Note_on_c, 0, 55, 20
2, 46932, Control_c, 0, 64, 127
2, 46946, Note_on_c, 0, 60, 0
2, 46957, Note_on_c, 0, 63, 0
2, 47054, Note_on_c, 0, 55, 0
2, 47201, Note_on_c, 0, 60, 45
2, 47202, Note_on_c, 0, 96, 62
2, 47364, Note_on_c, 0, 55, 42
2, 47364, Note_on_c, 0, 91, 43
2, 47366, Note_on_c, 0, 96, 0
2, 47367, Note_on_c, 0, 60, 0
2, 47384, Note_on_c, 0, 48, 0
2, 47397, Note_on_c, 0, 55, 0
2, 47488, Note_on_c, 0, 91, 0
2, 47852, Note_on_c, 0, 56, 33
2, 47852, Note_on_c, 0, 92, 43
2, 47853, Note_on_c, 0, 63, 30
2, 47857, Note_on_c, 0, 55, 27
2, 47864, Control_c, 0, 64, 0
2, 47886, Control_c, 0, 64, 127
2, 47919, Note_on_c, 0, 92, 0
2, 47923, Note_on_c, 0, 91, 44
2, 47967, Note_on_c, 0, 87, 56
2, 48006, Note_on_c, 0, 87, 0
2, 48006, Note_on_c, 0, 91, 0
2, 48006, Note_on_c, 0, 84, 44
2, 48025, Note_on_c, 0, 84, 0
2, 48051, Note_on_c, 0, 80, 48
2, 48094, Note_on_c, 0, 80, 0
2, 48099, Note_on_c, 0, 79, 32
2, 48119, Note_on_c, 0, 79, 0
2, 48147, Note_on_c, 0, 75, 45
2, 48188, Note_on_c, 0, 55, 0
2, 48198, Note_on_c, 0, 72, 33
2, 48220, Note_on_c, 0, 63, 0
2, 48226, Note_on_c, 0, 72, 0
2, 48229, Note_on_c, 0, 56, 0
2, 48237, Note_on_c, 0, 75, 0
2, 48266, Note_on_c, 0, 74, 34
2, 48268, Note_on_c, 0, 71, 25
2, 48268, Note_on_c, 0, 55, 29
2, 48269, Note_on_c, 0, 62, 27
2, 48270, Note_on_c, 0, 65, 24
2, 48276, Control_c, 0, 64, 0
2, 48300, Control_c, 0, 64, 127
2, 48337, Note_on_c, 0, 79, 38
2, 48342, Note_on_c, 0, 74, 0
2, 48345, Note_on_c, 0, 71, 0
2, 48352, Note_on_c, 0, 79, 0
2, 48385, Note_on_c, 0, 86, 69
2, 48439, Note_on_c, 0, 86, 0
2, 48442, Note_on_c, 0, 83, 39
2, 48458, Note_on_c, 0, 65, 0
2, 48482, Note_on_c, 0, 83, 0
2, 48512, Note_on_c, 0, 89, 66
2, 48565, Note_on_c, 0, 77, 40
2, 48613, Note_on_c, 0, 89, 0
2, 48618, Note_on_c, 0, 83, 43
2, 48621, Note_on_c, 0, 65, 20
2, 48646, Note_on_c, 0, 55, 0
2, 48656, Note_on_c, 0, 89, 51
2, 48694, Note_on_c, 0, 89, 0
2, 48698, Note_on_c, 0, 65, 0
2, 48707, Note_on_c, 0, 62, 0
2, 48711, Note_on_c, 0, 55, 31
2, 48711, Note_on_c, 0, 87, 40
2, 48716, Note_on_c, 0, 83, 0
2, 48718, Control_c, 0, 64, 0
2, 48721, Note_on_c, 0, 77, 0
2, 48736, Control_c, 0, 64, 127
2, 48808, Note_on_c, 0, 60, 29
2, 48845, Note_on_c, 0, 60, 0
2, 48852, Note_on_c, 0, 63, 36
2, 48855, Note_on_c, 0, 79, 46
2, 48896, Note_on_c, 0, 79, 0
2, 48897, Note_on_c, 0, 87, 0
2, 48898, Note_on_c, 0, 67, 34
2, 48929, Note_on_c, 0, 63, 0
2, 48945, Note_on_c, 0, 72, 46
2, 48984, Note_on_c, 0, 67, 0
2, 48985, Note_on_c, 0, 63, 38
2, 48990, Note_on_c, 0, 72, 0
2, 49030, Note_on_c, 0, 72, 54
2, 49031, Note_on_c, 0, 63, 0
2, 49031, Note_on_c, 0, 79, 57
2, 49073, Note_on_c, 0, 63, 33
2, 49080, Note_on_c, 0, 79, 0
2, 49088, Note_on_c, 0, 55, 0
2, 49097, Note_on_c, 0, 72, 0
2, 49118, Note_on_c, 0, 77, 54
2, 49120, Note_on_c, 0, 55, 52
2, 49121, Note_on_c, 0, 71, 37
2, 49122, Note_on_c, 0, 63, 0
2, 49127, Control_c, 0, 64, 0
2, 49150, Control_c, 0, 64, 127
2, 49163, Note_on_c, 0, 62, 39
2, 49194, Note_on_c, 0, 71, 0
2, 49199, Note_on_c, 0, 77, 0
2, 49200, Note_on_c, 0, 74, 45
2, 49205, Note_on_c, 0, 67, 36
2, 49232, Note_on_c, 0, 74, 0
2, 49235, Note_on_c, 0, 62, 0
2, 49241, Note_on_c, 0, 65, 31
2, 49247, Note_on_c, 0, 67, 0
2, 49254, Note_on_c, 0, 65, 0
2, 49292, Note_on_c, 0, 72, 33
2, 49294, Note_on_c, 0, 63, 50
2, 49296, Note_on_c, 0, 68, 57
2, 49316, Note_on_c, 0, 55, 0
2, 49341, Note_on_c, 0, 72, 0
2, 49342, Note_on_c, 0, 55, 44
2, 49344, Note_on_c, 0, 68, 0
2, 49347, Note_on_c, 0, 63, 0
2, 49387, Note_on_c, 0, 55, 0
2, 49388, Note_on_c, 0, 68, 52
2, 49389, Note_on_c, 0, 63, 43
2, 49391, Note_on_c, 0, 60, 43
2, 49440, Note_on_c, 0, 55, 34
2, 49461, Note_on_c, 0, 60, 0
2, 49484, Note_on_c, 0, 68, 0
2, 49499, Note_on_c, 0, 63, 0
2, 49584, Note_on_c, 0, 67, 32
2, 49584, Note_on_c, 0, 63, 35
2, 49584, Note_on_c, 0, 43, 38
2, 49585, Note_on_c, 0, 60, 28
2, 49590, Control_c, 0, 64, 0
2, 49623, Control_c, 0, 64, 127
2, 49631, Note_on_c, 0, 55, 0
2, 49654, Note_on_c, 0, 55, 32
2, 49666, Note_on_c, 0, 60, 0
2, 49676, Note_on_c, 0, 63, 0
2, 49683, Note_on_c, 0, 55, 0
2, 49719, Note_on_c, 0, 63, 35
2, 49721, Note_on_c, 0, 60, 26
2, 49725, Note_on_c, 0, 55, 24
2, 49760, Note_on_c, 0, 43, 0
2, 49790, Note_on_c, 0, 43, 38
2, 49822, Note_on_c, 0, 55, 0
2, 49835, Note_on_c, 0, 67, 0
2, 49836, Note_on_c, 0, 43, 0
2, 49837, Note_on_c, 0, 60, 0
2, 49845, Note_on_c, 0, 63, 0
2, 50018, Note_on_c, 0, 65, 29
2, 50020, Note_on_c, 0, 59, 36
2, 50021, Note_on_c, 0, 62, 40
2, 50021, Note_on_c, 0, 43, 31
2, 50028, Control_c, 0, 64, 0
2, 50051, Control_c, 0, 64, 127
2, 50070, Note_on_c, 0, 43, 0
2, 50117, Note_on_c, 0, 31, 26
2, 50160, Note_on_c, 0, 31, 0
2, 50199, Note_on_c, 0, 62, 0
2, 50206, Note_on_c, 0, 59, 0
2, 50231, Note_on_c, 0, 65, 0
2, 50240, Note_on_c, 0, 62, 32
2, 50241, Note_on_c, 0, 56, 20
2, 50242, Note_on_c, 0, 59, 35
2, 50244, Note_on_c, 0, 31, 24
2, 50291, Note_on_c, 0, 31, 0
2, 50328, Note_on_c, 0, 62, 0
2, 50363, Note_on_c, 0, 59, 0
2, 50369, Note_on_c, 0, 62, 31
2, 50421, Note_on_c, 0, 56, 0
2, 50453, Note_on_c, 0, 62, 0
2, 50563, Note_on_c, 0, 63, 36
2, 50564, Note_on_c, 0, 24, 44
2, 50565, Note_on_c, 0, 55, 32
2, 50565, Note_on_c, 0, 36, 24
2, 50565, Note_on_c, 0, 60, 44
2, 50577, Control_c, 0, 64, 0
2, 50614, Control_c, 0, 64, 127
2, 50647, Note_on_c, 0, 55, 0
2, 50657, Note_on_c, 0, 60, 0
2, 50677, Note_on_c, 0, 63, 0
2, 50679, Note_on_c, 0, 24, 0
2, 50684, Note_on_c, 0, 36, 0
2, 50935, Note_on_c, 0, 108, 45
2, 50936, Note_on_c, 0, 60, 34
2, 50941, Note_on_c, 0, 108, 0
2, 50944, Note_on_c, 0, 60, 0
2, 51177, Note_on_c, 0, 24, 30
2, 51177, Note_on_c, 0, 108, 39
2, 51192, Note_on_c, 0, 108, 0
2, 51194, Note_on_c, 0, 24, 0
2, 51477, Control_c, 0, 64, 0
2, 51477, End_track
3, 0, Start_track
3, 0, Title_t, "Intro, interlude and ending use C harmonic Minor scale"
3, 0, End_track
4, 0, Start_track
4, 0, Title_t, "dougmck@pipeline.com.au"
4, 0, End_track
5, 0, Start_track
5, 0, Title_t, "My Funny Valentine"
5, 0, End_track
6, 0, Start_track
6, 0, End_track
0, 0, End_of_file
