0, 0, Header, 1, 4, 384
1, 0, Start_track
1, 0, Title_t, "Gaviota"
1, 0, Text_t, "  dougmck@pipeline.com.au\012"
1, 0, Text_t, " 'Gaviota'  by Clare Fischer. Lead sheet is in New Real  Book Volume 1 - page 109  published by Sher Music.\012"
1, 0, System_exclusive, 5, 126, 127, 9, 1, 247
1, 0, System_exclusive, 8, 67, 115, 1, 17, 15, 89, 0, 247
1, 0, Time_signature, 4, 2, 24, 8
1, 0, Key_signature, 0, "major"
1, 0, Tempo, 545455
1, 0, End_track
2, 0, Start_track
2, 0, Title_t, "Piano"
2, 0, Control_c, 0, 7, 127
2, 560, Note_on_c, 0, 61, 85
2, 566, Note_on_c, 0, 53, 79
2, 568, Note_on_c, 0, 55, 83
2, 656, Note_on_c, 0, 53, 0
2, 668, Note_on_c, 0, 55, 0
2, 678, Note_on_c, 0, 61, 0
2, 952, Note_on_c, 0, 56, 71
2, 954, Note_on_c, 0, 54, 69
2, 956, Note_on_c, 0, 62, 81
2, 1062, Note_on_c, 0, 62, 0
2, 1066, Note_on_c, 0, 54, 0
2, 1072, Note_on_c, 0, 56, 0
2, 1340, Note_on_c, 0, 63, 59
2, 1348, Note_on_c, 0, 57, 68
2, 1354, Note_on_c, 0, 55, 67
2, 2354, Note_on_c, 0, 55, 0
2, 2384, Note_on_c, 0, 57, 0
2, 2440, Note_on_c, 0, 63, 0
2, 2474, Note_on_c, 0, 58, 79
2, 2474, Note_on_c, 0, 64, 84
2, 2476, Note_on_c, 0, 56, 67
2, 2612, Note_on_c, 0, 64, 0
2, 2620, Note_on_c, 0, 56, 0
2, 2672, Note_on_c, 0, 65, 71
2, 2692, Note_on_c, 0, 57, 54
2, 2694, Note_on_c, 0, 58, 0
2, 2716, Note_on_c, 0, 57, 0
2, 2718, Note_on_c, 0, 65, 0
2, 3816, Note_on_c, 0, 61, 73
2, 3816, Note_on_c, 0, 55, 80
2, 3824, Note_on_c, 0, 53, 58
2, 3846, Note_on_c, 0, 53, 0
2, 3850, Note_on_c, 0, 61, 0
2, 3866, Note_on_c, 0, 55, 0
2, 4060, Note_on_c, 0, 56, 74
2, 4064, Note_on_c, 0, 62, 79
2, 4072, Note_on_c, 0, 54, 53
2, 4114, Note_on_c, 0, 62, 0
2, 4126, Note_on_c, 0, 54, 0
2, 4150, Note_on_c, 0, 56, 0
2, 4434, Note_on_c, 0, 57, 76
2, 4438, Note_on_c, 0, 63, 74
2, 4446, Note_on_c, 0, 55, 78
2, 5160, Note_on_c, 0, 79, 56
2, 5186, Note_on_c, 0, 79, 0
2, 5276, Note_on_c, 0, 79, 58
2, 5300, Note_on_c, 0, 79, 0
2, 5366, Note_on_c, 0, 91, 83
2, 5408, Note_on_c, 0, 91, 0
2, 5552, Note_on_c, 0, 91, 80
2, 5582, Note_on_c, 0, 91, 0
2, 5706, Note_on_c, 0, 55, 0
2, 5720, Note_on_c, 0, 57, 0
2, 5730, Note_on_c, 0, 63, 0
2, 5746, Note_on_c, 0, 91, 80
2, 5790, Note_on_c, 0, 91, 0
2, 5936, Note_on_c, 0, 91, 78
2, 5958, Note_on_c, 0, 91, 0
2, 6686, Note_on_c, 0, 61, 81
2, 6692, Note_on_c, 0, 55, 81
2, 6694, Note_on_c, 0, 53, 69
2, 6716, Note_on_c, 0, 53, 0
2, 6744, Note_on_c, 0, 61, 0
2, 6780, Note_on_c, 0, 55, 0
2, 7102, Note_on_c, 0, 56, 71
2, 7108, Note_on_c, 0, 62, 75
2, 7110, Note_on_c, 0, 54, 58
2, 7158, Note_on_c, 0, 62, 0
2, 7166, Note_on_c, 0, 54, 0
2, 7192, Note_on_c, 0, 56, 0
2, 7488, Note_on_c, 0, 63, 61
2, 7492, Note_on_c, 0, 57, 68
2, 7494, Note_on_c, 0, 55, 64
2, 8208, Note_on_c, 0, 55, 0
2, 8228, Note_on_c, 0, 57, 0
2, 8240, Note_on_c, 0, 63, 0
2, 8270, Note_on_c, 0, 56, 85
2, 8272, Note_on_c, 0, 65, 73
2, 8276, Note_on_c, 0, 64, 80
2, 8290, Note_on_c, 0, 59, 57
2, 8294, Note_on_c, 0, 65, 0
2, 8358, Note_on_c, 0, 59, 0
2, 8446, Note_on_c, 0, 56, 0
2, 8456, Note_on_c, 0, 64, 0
2, 8648, Note_on_c, 0, 63, 63
2, 8650, Note_on_c, 0, 55, 73
2, 8656, Note_on_c, 0, 60, 64
2, 8668, Note_on_c, 0, 57, 44
2, 8678, Note_on_c, 0, 60, 0
2, 8692, Note_on_c, 0, 63, 0
2, 8694, Note_on_c, 0, 57, 0
2, 8706, Note_on_c, 0, 55, 0
2, 9780, Note_on_c, 0, 54, 67
2, 9788, Note_on_c, 0, 60, 74
2, 9788, Note_on_c, 0, 53, 65
2, 9808, Note_on_c, 0, 60, 0
2, 9810, Note_on_c, 0, 53, 0
2, 9834, Note_on_c, 0, 54, 0
2, 10184, Note_on_c, 0, 54, 59
2, 10188, Note_on_c, 0, 61, 69
2, 10206, Note_on_c, 0, 55, 45
2, 10218, Note_on_c, 0, 61, 0
2, 10230, Note_on_c, 0, 55, 0
2, 10248, Note_on_c, 0, 54, 0
2, 12196, Note_on_c, 0, 72, 45
2, 12224, Note_on_c, 0, 72, 0
2, 12284, Note_on_c, 0, 79, 68
2, 12290, Note_on_c, 0, 63, 36
2, 12296, Note_on_c, 0, 67, 34
2, 12300, Note_on_c, 0, 60, 33
2, 12324, Note_on_c, 0, 62, 29
2, 12328, Note_on_c, 0, 79, 0
2, 12410, Note_on_c, 0, 79, 78
2, 12472, Note_on_c, 0, 79, 0
2, 12508, Note_on_c, 0, 75, 27
2, 12530, Note_on_c, 0, 75, 0
2, 12682, Note_on_c, 0, 79, 63
2, 12728, Note_on_c, 0, 79, 0
2, 12848, Note_on_c, 0, 67, 0
2, 12892, Note_on_c, 0, 67, 33
2, 12918, Note_on_c, 0, 67, 0
2, 12918, Note_on_c, 0, 62, 0
2, 12956, Note_on_c, 0, 63, 0
2, 13004, Note_on_c, 0, 60, 0
2, 13692, Control_c, 0, 64, 127
2, 13770, Control_c, 0, 64, 0
2, 13998, Note_on_c, 0, 67, 58
2, 14000, Note_on_c, 0, 58, 50
2, 14000, Note_on_c, 0, 63, 48
2, 14010, Note_on_c, 0, 60, 53
2, 14238, Control_c, 0, 64, 127
2, 14592, Note_on_c, 0, 80, 85
2, 14596, Note_on_c, 0, 77, 83
2, 14762, Note_on_c, 0, 67, 0
2, 14794, Note_on_c, 0, 77, 0
2, 14956, Note_on_c, 0, 80, 0
2, 14982, Note_on_c, 0, 63, 0
2, 14986, Note_on_c, 0, 60, 0
2, 15012, Note_on_c, 0, 58, 0
2, 15014, Note_on_c, 0, 75, 31
2, 15048, Note_on_c, 0, 75, 0
2, 15174, Note_on_c, 0, 74, 79
2, 15178, Note_on_c, 0, 77, 67
2, 15190, Note_on_c, 0, 56, 55
2, 15194, Note_on_c, 0, 67, 47
2, 15200, Control_c, 0, 64, 0
2, 15342, Control_c, 0, 64, 127
2, 15710, Note_on_c, 0, 67, 0
2, 15746, Note_on_c, 0, 74, 0
2, 15884, Note_on_c, 0, 56, 0
2, 15960, Note_on_c, 0, 56, 25
2, 16124, Note_on_c, 0, 77, 0
2, 16264, Note_on_c, 0, 56, 0
2, 16320, Note_on_c, 0, 72, 48
2, 16320, Note_on_c, 0, 67, 49
2, 16322, Note_on_c, 0, 68, 40
2, 16330, Note_on_c, 0, 56, 35
2, 16338, Note_on_c, 0, 65, 42
2, 16484, Note_on_c, 0, 56, 0
2, 16500, Note_on_c, 0, 72, 0
2, 16512, Note_on_c, 0, 65, 0
2, 16530, Note_on_c, 0, 68, 0
2, 16534, Note_on_c, 0, 67, 0
2, 16710, Note_on_c, 0, 65, 58
2, 16720, Note_on_c, 0, 60, 59
2, 16728, Note_on_c, 0, 56, 38
2, 16736, Note_on_c, 0, 50, 40
2, 16748, Control_c, 0, 64, 0
2, 16888, Control_c, 0, 64, 127
2, 17236, Note_on_c, 0, 60, 0
2, 17264, Note_on_c, 0, 50, 0
2, 17284, Note_on_c, 0, 56, 0
2, 17294, Note_on_c, 0, 65, 0
2, 17480, Note_on_c, 0, 53, 34
2, 17482, Note_on_c, 0, 64, 44
2, 17498, Note_on_c, 0, 60, 24
2, 17498, Note_on_c, 0, 59, 24
2, 17498, Control_c, 0, 64, 0
2, 17600, Control_c, 0, 64, 127
2, 17602, Note_on_c, 0, 60, 0
2, 17728, Note_on_c, 0, 64, 0
2, 18018, Note_on_c, 0, 53, 0
2, 18036, Note_on_c, 0, 59, 0
2, 18252, Note_on_c, 0, 67, 44
2, 18278, Note_on_c, 0, 67, 0
2, 18384, Control_c, 0, 64, 0
2, 18628, Note_on_c, 0, 71, 80
2, 18628, Note_on_c, 0, 79, 78
2, 18630, Note_on_c, 0, 68, 84
2, 18638, Note_on_c, 0, 74, 68
2, 18640, Note_on_c, 0, 67, 87
2, 18762, Note_on_c, 0, 79, 0
2, 18772, Note_on_c, 0, 68, 0
2, 18784, Note_on_c, 0, 74, 0
2, 18802, Note_on_c, 0, 71, 0
2, 18816, Note_on_c, 0, 67, 0
2, 18820, Note_on_c, 0, 65, 54
2, 18834, Note_on_c, 0, 74, 22
2, 18836, Note_on_c, 0, 68, 36
2, 18846, Note_on_c, 0, 71, 31
2, 18890, Note_on_c, 0, 74, 0
2, 18892, Note_on_c, 0, 65, 0
2, 18914, Note_on_c, 0, 68, 0
2, 18928, Note_on_c, 0, 71, 0
2, 19016, Note_on_c, 0, 71, 57
2, 19018, Note_on_c, 0, 76, 71
2, 19018, Note_on_c, 0, 67, 71
2, 19024, Note_on_c, 0, 64, 58
2, 19068, Note_on_c, 0, 67, 0
2, 19078, Note_on_c, 0, 64, 0
2, 19078, Note_on_c, 0, 71, 0
2, 19088, Note_on_c, 0, 76, 0
2, 19402, Note_on_c, 0, 57, 50
2, 19408, Note_on_c, 0, 72, 44
2, 19408, Note_on_c, 0, 67, 57
2, 19410, Note_on_c, 0, 62, 50
2, 19462, Control_c, 0, 64, 127
2, 19564, Note_on_c, 0, 62, 0
2, 19572, Note_on_c, 0, 57, 0
2, 19626, Note_on_c, 0, 67, 0
2, 19658, Note_on_c, 0, 72, 0
2, 19764, Control_c, 0, 64, 0
2, 19776, Note_on_c, 0, 64, 43
2, 19780, Note_on_c, 0, 67, 60
2, 19784, Note_on_c, 0, 62, 48
2, 19786, Note_on_c, 0, 56, 33
2, 19794, Note_on_c, 0, 52, 41
2, 19866, Control_c, 0, 64, 127
2, 19924, Note_on_c, 0, 64, 0
2, 19942, Note_on_c, 0, 52, 0
2, 19950, Note_on_c, 0, 67, 0
2, 19958, Note_on_c, 0, 56, 0
2, 19990, Note_on_c, 0, 62, 0
2, 20196, Note_on_c, 0, 76, 46
2, 20198, Note_on_c, 0, 79, 44
2, 20198, Note_on_c, 0, 67, 41
2, 20200, Note_on_c, 0, 62, 51
2, 20200, Note_on_c, 0, 72, 35
2, 20214, Note_on_c, 0, 56, 34
2, 20238, Control_c, 0, 64, 0
2, 20282, Control_c, 0, 64, 127
2, 20350, Note_on_c, 0, 67, 0
2, 20380, Note_on_c, 0, 72, 0
2, 20422, Note_on_c, 0, 79, 0
2, 20422, Note_on_c, 0, 56, 0
2, 20428, Note_on_c, 0, 62, 0
2, 20428, Note_on_c, 0, 76, 0
2, 20578, Note_on_c, 0, 56, 45
2, 20622, Note_on_c, 0, 56, 0
2, 20740, Control_c, 0, 64, 0
2, 20744, Note_on_c, 0, 56, 80
2, 20746, Note_on_c, 0, 67, 91
2, 20746, Note_on_c, 0, 62, 81
2, 20746, Note_on_c, 0, 91, 83
2, 20750, Note_on_c, 0, 79, 85
2, 20752, Note_on_c, 0, 87, 83
2, 20762, Note_on_c, 0, 85, 57
2, 20784, Note_on_c, 0, 85, 0
2, 20850, Note_on_c, 0, 88, 66
2, 20868, Note_on_c, 0, 87, 0
2, 20936, Note_on_c, 0, 88, 0
2, 20942, Note_on_c, 0, 79, 0
2, 20968, Note_on_c, 0, 91, 0
2, 20974, Note_on_c, 0, 67, 0
2, 20978, Note_on_c, 0, 56, 0
2, 20998, Note_on_c, 0, 62, 0
2, 21018, Note_on_c, 0, 89, 68
2, 21026, Note_on_c, 0, 67, 76
2, 21028, Note_on_c, 0, 86, 83
2, 21028, Note_on_c, 0, 56, 67
2, 21030, Note_on_c, 0, 62, 58
2, 21030, Note_on_c, 0, 77, 72
2, 21158, Control_c, 0, 64, 127
2, 21160, Note_on_c, 0, 86, 0
2, 21176, Note_on_c, 0, 89, 0
2, 21192, Note_on_c, 0, 56, 0
2, 21194, Note_on_c, 0, 67, 0
2, 21196, Note_on_c, 0, 77, 0
2, 21264, Note_on_c, 0, 88, 64
2, 21266, Note_on_c, 0, 56, 69
2, 21266, Note_on_c, 0, 67, 66
2, 21276, Note_on_c, 0, 84, 71
2, 21278, Note_on_c, 0, 76, 66
2, 21356, Note_on_c, 0, 67, 0
2, 21364, Note_on_c, 0, 62, 0
2, 21366, Note_on_c, 0, 88, 0
2, 21370, Note_on_c, 0, 84, 0
2, 21418, Note_on_c, 0, 76, 0
2, 21436, Note_on_c, 0, 56, 0
2, 21498, Control_c, 0, 64, 0
2, 21510, Note_on_c, 0, 83, 58
2, 21518, Note_on_c, 0, 57, 54
2, 21518, Note_on_c, 0, 86, 53
2, 21520, Note_on_c, 0, 74, 42
2, 21520, Note_on_c, 0, 60, 60
2, 21522, Note_on_c, 0, 64, 45
2, 21534, Note_on_c, 0, 59, 50
2, 21670, Control_c, 0, 64, 127
2, 22374, Note_on_c, 0, 59, 0
2, 22420, Note_on_c, 0, 86, 0
2, 22432, Note_on_c, 0, 83, 0
2, 22462, Note_on_c, 0, 84, 74
2, 22648, Note_on_c, 0, 64, 0
2, 22650, Note_on_c, 0, 60, 0
2, 22692, Note_on_c, 0, 84, 0
2, 22698, Note_on_c, 0, 57, 0
2, 22722, Note_on_c, 0, 74, 0
2, 23012, Note_on_c, 0, 71, 83
2, 23012, Note_on_c, 0, 61, 79
2, 23012, Note_on_c, 0, 68, 80
2, 23014, Note_on_c, 0, 64, 84
2, 23016, Note_on_c, 0, 59, 77
2, 23020, Note_on_c, 0, 57, 71
2, 23034, Control_c, 0, 64, 0
2, 23342, Control_c, 0, 64, 127
2, 23470, Note_on_c, 0, 57, 0
2, 23486, Note_on_c, 0, 59, 0
2, 23538, Note_on_c, 0, 61, 0
2, 23546, Note_on_c, 0, 64, 0
2, 23688, Note_on_c, 0, 68, 0
2, 23784, Note_on_c, 0, 71, 0
2, 23810, Control_c, 0, 64, 0
2, 23842, Control_c, 0, 64, 127
2, 23994, Note_on_c, 0, 70, 85
2, 23996, Note_on_c, 0, 63, 86
2, 23996, Note_on_c, 0, 67, 90
2, 24000, Note_on_c, 0, 58, 81
2, 24000, Note_on_c, 0, 56, 78
2, 24002, Note_on_c, 0, 60, 90
2, 24042, Control_c, 0, 64, 0
2, 24182, Control_c, 0, 64, 127
2, 24420, Note_on_c, 0, 58, 0
2, 24438, Note_on_c, 0, 60, 0
2, 24448, Note_on_c, 0, 67, 0
2, 24460, Note_on_c, 0, 63, 0
2, 24488, Note_on_c, 0, 56, 0
2, 24536, Note_on_c, 0, 70, 0
2, 24560, Control_c, 0, 64, 0
2, 24576, Note_on_c, 0, 67, 60
2, 24582, Note_on_c, 0, 62, 45
2, 24584, Note_on_c, 0, 52, 51
2, 24598, Note_on_c, 0, 59, 36
2, 24640, Note_on_c, 0, 67, 0
2, 24642, Note_on_c, 0, 62, 0
2, 24654, Note_on_c, 0, 59, 0
2, 24764, Note_on_c, 0, 74, 54
2, 24770, Note_on_c, 0, 62, 38
2, 24778, Note_on_c, 0, 67, 28
2, 24800, Note_on_c, 0, 67, 0
2, 24800, Note_on_c, 0, 62, 0
2, 24814, Note_on_c, 0, 74, 0
2, 24822, Note_on_c, 0, 52, 0
2, 24976, Note_on_c, 0, 75, 68
2, 25030, Note_on_c, 0, 75, 0
2, 25164, Note_on_c, 0, 76, 84
2, 25220, Note_on_c, 0, 76, 0
2, 25348, Note_on_c, 0, 67, 62
2, 25390, Note_on_c, 0, 67, 0
2, 25546, Note_on_c, 0, 62, 51
2, 25550, Note_on_c, 0, 67, 66
2, 25552, Note_on_c, 0, 52, 44
2, 25572, Note_on_c, 0, 67, 0
2, 25574, Note_on_c, 0, 62, 0
2, 25578, Note_on_c, 0, 52, 0
2, 25906, Note_on_c, 0, 75, 56
2, 25912, Note_on_c, 0, 66, 61
2, 25916, Note_on_c, 0, 55, 68
2, 25916, Note_on_c, 0, 61, 55
2, 25918, Note_on_c, 0, 76, 68
2, 25974, Note_on_c, 0, 75, 0
2, 26012, Note_on_c, 0, 66, 0
2, 26014, Note_on_c, 0, 55, 0
2, 26018, Note_on_c, 0, 76, 0
2, 26032, Note_on_c, 0, 61, 0
2, 26150, Note_on_c, 0, 66, 55
2, 26152, Note_on_c, 0, 61, 50
2, 26156, Note_on_c, 0, 75, 45
2, 26160, Note_on_c, 0, 55, 63
2, 26168, Note_on_c, 0, 76, 61
2, 26234, Note_on_c, 0, 75, 0
2, 26302, Note_on_c, 0, 76, 0
2, 26302, Note_on_c, 0, 66, 0
2, 26304, Note_on_c, 0, 55, 0
2, 26312, Note_on_c, 0, 61, 0
2, 26696, Note_on_c, 0, 66, 58
2, 26700, Note_on_c, 0, 61, 46
2, 26714, Note_on_c, 0, 55, 31
2, 26748, Note_on_c, 0, 55, 0
2, 26760, Note_on_c, 0, 66, 0
2, 26762, Note_on_c, 0, 61, 0
2, 26930, Note_on_c, 0, 66, 56
2, 26936, Note_on_c, 0, 61, 48
2, 26944, Note_on_c, 0, 55, 50
2, 27016, Note_on_c, 0, 55, 0
2, 27018, Note_on_c, 0, 61, 0
2, 27022, Note_on_c, 0, 66, 0
2, 27218, Note_on_c, 0, 66, 51
2, 27220, Note_on_c, 0, 61, 46
2, 27224, Note_on_c, 0, 55, 55
2, 27304, Note_on_c, 0, 55, 0
2, 27328, Note_on_c, 0, 66, 0
2, 27338, Note_on_c, 0, 61, 0
2, 27472, Note_on_c, 0, 65, 41
2, 27478, Note_on_c, 0, 54, 27
2, 27488, Note_on_c, 0, 60, 49
2, 27750, Note_on_c, 0, 65, 0
2, 27796, Note_on_c, 0, 67, 53
2, 27832, Note_on_c, 0, 67, 0
2, 27920, Note_on_c, 0, 67, 60
2, 27950, Note_on_c, 0, 67, 0
2, 27982, Note_on_c, 0, 60, 0
2, 28052, Note_on_c, 0, 74, 74
2, 28052, Note_on_c, 0, 65, 46
2, 28054, Note_on_c, 0, 60, 46
2, 28106, Note_on_c, 0, 65, 0
2, 28108, Note_on_c, 0, 74, 0
2, 28138, Note_on_c, 0, 60, 0
2, 28178, Note_on_c, 0, 54, 0
2, 28240, Note_on_c, 0, 54, 57
2, 28242, Note_on_c, 0, 75, 75
2, 28252, Note_on_c, 0, 60, 58
2, 28252, Note_on_c, 0, 65, 46
2, 28284, Note_on_c, 0, 65, 0
2, 28306, Note_on_c, 0, 75, 0
2, 28308, Note_on_c, 0, 60, 0
2, 28336, Note_on_c, 0, 54, 0
2, 28438, Note_on_c, 0, 76, 78
2, 28440, Note_on_c, 0, 54, 47
2, 28442, Note_on_c, 0, 65, 49
2, 28450, Note_on_c, 0, 60, 46
2, 28534, Control_c, 0, 64, 127
2, 28572, Note_on_c, 0, 65, 0
2, 28582, Note_on_c, 0, 60, 0
2, 28622, Note_on_c, 0, 67, 53
2, 28632, Note_on_c, 0, 60, 34
2, 28670, Note_on_c, 0, 67, 0
2, 28676, Note_on_c, 0, 76, 0
2, 28682, Control_c, 0, 64, 0
2, 28688, Note_on_c, 0, 60, 0
2, 28714, Note_on_c, 0, 54, 0
2, 28806, Note_on_c, 0, 67, 40
2, 28812, Note_on_c, 0, 54, 40
2, 28814, Note_on_c, 0, 60, 46
2, 28844, Note_on_c, 0, 60, 0
2, 28844, Note_on_c, 0, 67, 0
2, 28920, Note_on_c, 0, 54, 0
2, 28990, Note_on_c, 0, 53, 55
2, 28994, Note_on_c, 0, 76, 68
2, 28998, Note_on_c, 0, 71, 67
2, 28998, Note_on_c, 0, 64, 57
2, 29002, Note_on_c, 0, 65, 62
2, 29002, Note_on_c, 0, 68, 45
2, 29004, Note_on_c, 0, 59, 51
2, 29118, Control_c, 0, 64, 127
2, 29318, Note_on_c, 0, 64, 0
2, 29324, Note_on_c, 0, 76, 0
2, 29344, Note_on_c, 0, 71, 0
2, 29368, Note_on_c, 0, 74, 73
2, 29370, Note_on_c, 0, 71, 38
2, 29374, Note_on_c, 0, 62, 75
2, 29382, Control_c, 0, 64, 0
2, 29382, Note_on_c, 0, 73, 44
2, 29488, Note_on_c, 0, 73, 0
2, 29490, Control_c, 0, 64, 127
2, 29720, Note_on_c, 0, 71, 0
2, 29724, Note_on_c, 0, 59, 0
2, 29740, Note_on_c, 0, 62, 0
2, 29790, Note_on_c, 0, 74, 0
2, 29794, Note_on_c, 0, 65, 0
2, 29818, Note_on_c, 0, 68, 0
2, 29966, Note_on_c, 0, 72, 63
2, 29970, Note_on_c, 0, 63, 60
2, 29972, Control_c, 0, 64, 0
2, 29978, Note_on_c, 0, 67, 57
2, 29992, Note_on_c, 0, 63, 0
2, 29998, Note_on_c, 0, 67, 0
2, 30012, Note_on_c, 0, 53, 0
2, 30020, Note_on_c, 0, 72, 0
2, 30182, Note_on_c, 0, 71, 64
2, 30184, Note_on_c, 0, 59, 55
2, 30188, Note_on_c, 0, 63, 48
2, 30196, Note_on_c, 0, 67, 48
2, 30210, Note_on_c, 0, 63, 0
2, 30210, Note_on_c, 0, 59, 0
2, 30220, Note_on_c, 0, 67, 0
2, 30250, Note_on_c, 0, 71, 0
2, 30300, Control_c, 0, 64, 127
2, 30522, Note_on_c, 0, 81, 73
2, 30526, Note_on_c, 0, 74, 68
2, 30528, Note_on_c, 0, 67, 66
2, 30528, Note_on_c, 0, 69, 64
2, 30530, Note_on_c, 0, 52, 64
2, 30536, Note_on_c, 0, 58, 53
2, 30538, Note_on_c, 0, 62, 57
2, 30550, Control_c, 0, 64, 0
2, 30826, Control_c, 0, 64, 127
2, 31200, Note_on_c, 0, 52, 0
2, 31258, Note_on_c, 0, 52, 35
2, 31420, Note_on_c, 0, 81, 0
2, 31524, Note_on_c, 0, 52, 0
2, 31526, Note_on_c, 0, 62, 0
2, 31564, Note_on_c, 0, 58, 0
2, 31594, Note_on_c, 0, 69, 0
2, 31598, Note_on_c, 0, 67, 0
2, 31630, Note_on_c, 0, 74, 0
2, 31680, Note_on_c, 0, 79, 73
2, 31846, Note_on_c, 0, 79, 0
2, 32062, Note_on_c, 0, 70, 64
2, 32064, Note_on_c, 0, 66, 56
2, 32078, Note_on_c, 0, 55, 62
2, 32078, Note_on_c, 0, 61, 56
2, 32110, Control_c, 0, 64, 0
2, 32378, Control_c, 0, 64, 127
2, 32764, Note_on_c, 0, 55, 0
2, 32846, Note_on_c, 0, 55, 36
2, 32906, Note_on_c, 0, 70, 0
2, 32928, Note_on_c, 0, 66, 0
2, 33028, Note_on_c, 0, 71, 101
2, 33202, Note_on_c, 0, 71, 0
2, 33228, Note_on_c, 0, 55, 0
2, 33268, Note_on_c, 0, 55, 35
2, 33270, Note_on_c, 0, 66, 62
2, 33276, Note_on_c, 0, 72, 99
2, 33308, Control_c, 0, 64, 0
2, 33386, Control_c, 0, 64, 127
2, 33456, Note_on_c, 0, 66, 0
2, 33470, Note_on_c, 0, 55, 0
2, 33546, Note_on_c, 0, 61, 0
2, 33568, Note_on_c, 0, 72, 0
2, 33772, Note_on_c, 0, 71, 77
2, 33772, Note_on_c, 0, 64, 71
2, 33776, Note_on_c, 0, 67, 71
2, 33778, Control_c, 0, 64, 0
2, 33782, Note_on_c, 0, 60, 54
2, 33794, Note_on_c, 0, 64, 0
2, 33798, Note_on_c, 0, 67, 0
2, 33804, Note_on_c, 0, 60, 0
2, 33826, Note_on_c, 0, 71, 0
2, 34038, Note_on_c, 0, 57, 57
2, 34040, Note_on_c, 0, 55, 55
2, 34042, Note_on_c, 0, 67, 66
2, 34042, Note_on_c, 0, 60, 64
2, 34044, Note_on_c, 0, 64, 65
2, 34048, Note_on_c, 0, 53, 47
2, 34068, Note_on_c, 0, 60, 0
2, 34070, Note_on_c, 0, 64, 0
2, 34078, Note_on_c, 0, 55, 0
2, 34080, Note_on_c, 0, 57, 0
2, 34090, Note_on_c, 0, 53, 0
2, 34094, Note_on_c, 0, 67, 0
2, 34354, Control_c, 0, 64, 127
2, 34356, Note_on_c, 0, 67, 45
2, 34356, Note_on_c, 0, 64, 55
2, 34362, Note_on_c, 0, 60, 37
2, 34366, Note_on_c, 0, 57, 43
2, 34366, Note_on_c, 0, 55, 47
2, 34372, Note_on_c, 0, 53, 34
2, 34646, Note_on_c, 0, 60, 0
2, 34648, Note_on_c, 0, 64, 0
2, 34662, Note_on_c, 0, 57, 0
2, 34664, Note_on_c, 0, 67, 0
2, 34690, Note_on_c, 0, 55, 0
2, 34730, Note_on_c, 0, 64, 84
2, 34734, Note_on_c, 0, 67, 76
2, 34736, Note_on_c, 0, 57, 59
2, 34738, Note_on_c, 0, 60, 80
2, 34740, Note_on_c, 0, 55, 55
2, 34836, Note_on_c, 0, 64, 0
2, 34864, Note_on_c, 0, 57, 0
2, 34886, Note_on_c, 0, 60, 0
2, 34890, Note_on_c, 0, 67, 0
2, 34908, Note_on_c, 0, 55, 0
2, 34924, Note_on_c, 0, 66, 51
2, 34938, Note_on_c, 0, 60, 33
2, 34952, Note_on_c, 0, 57, 36
2, 34984, Note_on_c, 0, 57, 0
2, 34998, Note_on_c, 0, 53, 0
2, 35044, Note_on_c, 0, 66, 0
2, 35046, Note_on_c, 0, 60, 0
2, 35120, Note_on_c, 0, 67, 63
2, 35152, Note_on_c, 0, 67, 0
2, 35304, Control_c, 0, 64, 0
2, 35318, Note_on_c, 0, 79, 58
2, 35320, Note_on_c, 0, 74, 75
2, 35324, Note_on_c, 0, 64, 60
2, 35330, Note_on_c, 0, 69, 62
2, 35400, Control_c, 0, 64, 127
2, 35472, Note_on_c, 0, 69, 0
2, 35480, Note_on_c, 0, 79, 0
2, 35508, Note_on_c, 0, 77, 15
2, 35632, Note_on_c, 0, 74, 0
2, 35680, Note_on_c, 0, 77, 0
2, 35704, Control_c, 0, 64, 0
2, 35718, Note_on_c, 0, 78, 55
2, 35726, Note_on_c, 0, 73, 44
2, 35728, Note_on_c, 0, 68, 38
2, 35736, Note_on_c, 0, 64, 0
2, 35736, Note_on_c, 0, 63, 48
2, 35786, Control_c, 0, 64, 127
2, 35860, Note_on_c, 0, 78, 0
2, 35894, Note_on_c, 0, 68, 0
2, 35916, Note_on_c, 0, 73, 0
2, 35928, Note_on_c, 0, 78, 33
2, 35946, Note_on_c, 0, 68, 35
2, 35962, Note_on_c, 0, 62, 50
2, 35964, Note_on_c, 0, 71, 34
2, 35964, Note_on_c, 0, 63, 0
2, 35966, Control_c, 0, 64, 0
2, 35970, Note_on_c, 0, 72, 35
2, 35994, Note_on_c, 0, 72, 0
2, 36082, Control_c, 0, 64, 127
2, 36090, Note_on_c, 0, 78, 0
2, 36220, Note_on_c, 0, 68, 0
2, 36252, Note_on_c, 0, 71, 0
2, 36302, Note_on_c, 0, 71, 43
2, 36302, Note_on_c, 0, 68, 34
2, 36304, Note_on_c, 0, 76, 58
2, 36312, Note_on_c, 0, 59, 49
2, 36332, Control_c, 0, 64, 0
2, 36340, Note_on_c, 0, 62, 0
2, 36358, Control_c, 0, 64, 127
2, 36454, Note_on_c, 0, 59, 0
2, 36556, Note_on_c, 0, 68, 0
2, 36572, Note_on_c, 0, 71, 0
2, 36584, Note_on_c, 0, 76, 0
2, 36838, Control_c, 0, 64, 0
2, 36856, Note_on_c, 0, 87, 61
2, 36864, Note_on_c, 0, 75, 39
2, 36866, Note_on_c, 0, 57, 42
2, 36868, Note_on_c, 0, 62, 48
2, 36872, Note_on_c, 0, 51, 28
2, 36890, Note_on_c, 0, 55, 48
2, 37162, Note_on_c, 0, 75, 0
2, 37186, Note_on_c, 0, 87, 0
2, 37192, Control_c, 0, 64, 127
2, 37322, Note_on_c, 0, 62, 0
2, 37328, Note_on_c, 0, 55, 0
2, 37352, Note_on_c, 0, 57, 0
2, 37386, Note_on_c, 0, 51, 0
2, 37438, Note_on_c, 0, 51, 18
2, 37444, Note_on_c, 0, 62, 32
2, 37454, Note_on_c, 0, 57, 22
2, 37472, Note_on_c, 0, 62, 0
2, 37480, Note_on_c, 0, 57, 0
2, 37520, Note_on_c, 0, 51, 0
2, 37584, Control_c, 0, 64, 0
2, 37616, Note_on_c, 0, 62, 55
2, 37622, Note_on_c, 0, 51, 32
2, 37624, Note_on_c, 0, 57, 43
2, 37626, Note_on_c, 0, 55, 40
2, 37630, Note_on_c, 0, 77, 30
2, 37630, Note_on_c, 0, 91, 44
2, 37638, Note_on_c, 0, 62, 0
2, 37650, Note_on_c, 0, 57, 0
2, 37652, Note_on_c, 0, 55, 0
2, 37654, Note_on_c, 0, 51, 0
2, 37654, Note_on_c, 0, 91, 0
2, 37658, Note_on_c, 0, 77, 0
2, 37824, Note_on_c, 0, 91, 76
2, 37826, Note_on_c, 0, 62, 67
2, 37828, Note_on_c, 0, 79, 71
2, 37830, Note_on_c, 0, 51, 40
2, 37836, Note_on_c, 0, 57, 52
2, 37842, Note_on_c, 0, 55, 49
2, 37846, Note_on_c, 0, 62, 0
2, 37860, Note_on_c, 0, 79, 0
2, 37860, Note_on_c, 0, 57, 0
2, 37868, Note_on_c, 0, 55, 0
2, 37874, Note_on_c, 0, 91, 0
2, 37900, Note_on_c, 0, 51, 0
2, 38014, Note_on_c, 0, 75, 28
2, 38014, Note_on_c, 0, 87, 31
2, 38036, Note_on_c, 0, 75, 0
2, 38038, Note_on_c, 0, 87, 0
2, 38200, Note_on_c, 0, 58, 59
2, 38218, Note_on_c, 0, 91, 70
2, 38222, Note_on_c, 0, 63, 34
2, 38224, Note_on_c, 0, 79, 62
2, 38224, Note_on_c, 0, 67, 24
2, 38232, Note_on_c, 0, 90, 36
2, 38262, Note_on_c, 0, 90, 0
2, 38334, Control_c, 0, 64, 127
2, 38848, Note_on_c, 0, 67, 0
2, 38850, Note_on_c, 0, 58, 0
2, 38860, Note_on_c, 0, 63, 0
2, 38924, Note_on_c, 0, 79, 0
2, 38978, Note_on_c, 0, 67, 54
2, 38992, Note_on_c, 0, 60, 47
2, 38992, Note_on_c, 0, 63, 33
2, 39002, Note_on_c, 0, 91, 0
2, 39004, Note_on_c, 0, 58, 23
2, 39272, Note_on_c, 0, 67, 0
2, 39286, Note_on_c, 0, 58, 0
2, 39304, Note_on_c, 0, 60, 0
2, 39308, Note_on_c, 0, 63, 0
2, 39360, Note_on_c, 0, 92, 93
2, 39360, Note_on_c, 0, 60, 72
2, 39360, Note_on_c, 0, 58, 79
2, 39362, Note_on_c, 0, 67, 81
2, 39366, Note_on_c, 0, 63, 60
2, 39498, Note_on_c, 0, 92, 0
2, 39560, Note_on_c, 0, 87, 54
2, 39668, Note_on_c, 0, 67, 0
2, 39686, Note_on_c, 0, 60, 0
2, 39706, Note_on_c, 0, 58, 0
2, 39712, Note_on_c, 0, 63, 0
2, 39716, Note_on_c, 0, 87, 0
2, 39742, Control_c, 0, 64, 0
2, 39746, Note_on_c, 0, 89, 75
2, 40028, Note_on_c, 0, 89, 0
2, 40116, Note_on_c, 0, 67, 66
2, 40128, Note_on_c, 0, 60, 57
2, 40130, Note_on_c, 0, 63, 35
2, 40160, Note_on_c, 0, 60, 0
2, 40168, Note_on_c, 0, 63, 0
2, 40168, Note_on_c, 0, 67, 0
2, 40500, Note_on_c, 0, 67, 64
2, 40502, Note_on_c, 0, 63, 42
2, 40510, Note_on_c, 0, 56, 35
2, 40524, Note_on_c, 0, 67, 0
2, 40542, Note_on_c, 0, 63, 0
2, 40562, Note_on_c, 0, 56, 0
2, 40710, Note_on_c, 0, 63, 55
2, 40716, Note_on_c, 0, 56, 37
2, 40718, Note_on_c, 0, 60, 56
2, 40722, Note_on_c, 0, 53, 33
2, 40800, Control_c, 0, 64, 127
2, 41018, Note_on_c, 0, 53, 0
2, 41040, Note_on_c, 0, 56, 0
2, 41050, Note_on_c, 0, 60, 0
2, 41070, Note_on_c, 0, 63, 0
2, 41274, Note_on_c, 0, 65, 67
2, 41274, Note_on_c, 0, 56, 46
2, 41280, Note_on_c, 0, 60, 63
2, 41284, Note_on_c, 0, 55, 59
2, 41372, Control_c, 0, 64, 0
2, 41474, Note_on_c, 0, 67, 57
2, 41512, Note_on_c, 0, 67, 0
2, 41576, Note_on_c, 0, 68, 56
2, 41614, Note_on_c, 0, 68, 0
2, 41674, Note_on_c, 0, 72, 67
2, 41726, Note_on_c, 0, 72, 0
2, 41776, Note_on_c, 0, 76, 79
2, 41830, Note_on_c, 0, 76, 0
2, 41874, Note_on_c, 0, 79, 88
2, 41900, Note_on_c, 0, 65, 0
2, 41908, Note_on_c, 0, 60, 0
2, 41912, Note_on_c, 0, 55, 0
2, 41972, Note_on_c, 0, 77, 73
2, 41994, Note_on_c, 0, 79, 0
2, 42018, Note_on_c, 0, 56, 0
2, 42068, Note_on_c, 0, 72, 62
2, 42102, Note_on_c, 0, 77, 0
2, 42154, Note_on_c, 0, 72, 0
2, 42166, Note_on_c, 0, 59, 22
2, 42178, Note_on_c, 0, 53, 22
2, 42180, Note_on_c, 0, 68, 37
2, 42258, Note_on_c, 0, 68, 0
2, 42296, Note_on_c, 0, 67, 33
2, 42336, Note_on_c, 0, 53, 0
2, 42336, Note_on_c, 0, 67, 0
2, 42372, Note_on_c, 0, 70, 78
2, 42432, Note_on_c, 0, 59, 0
2, 42440, Note_on_c, 0, 70, 0
2, 42476, Note_on_c, 0, 68, 77
2, 42534, Note_on_c, 0, 68, 0
2, 42596, Note_on_c, 0, 70, 60
2, 42610, Note_on_c, 0, 59, 24
2, 42612, Note_on_c, 0, 68, 62
2, 42616, Note_on_c, 0, 53, 20
2, 42630, Note_on_c, 0, 56, 21
2, 42658, Note_on_c, 0, 70, 0
2, 42684, Note_on_c, 0, 67, 44
2, 42706, Note_on_c, 0, 68, 0
2, 42748, Note_on_c, 0, 59, 0
2, 42756, Note_on_c, 0, 67, 0
2, 42770, Note_on_c, 0, 56, 0
2, 42802, Note_on_c, 0, 66, 71
2, 42822, Note_on_c, 0, 53, 0
2, 42866, Note_on_c, 0, 66, 0
2, 42878, Note_on_c, 0, 65, 54
2, 42952, Note_on_c, 0, 65, 0
2, 43034, Note_on_c, 0, 55, 35
2, 43066, Note_on_c, 0, 55, 0
2, 43090, Note_on_c, 0, 65, 60
2, 43220, Note_on_c, 0, 65, 0
2, 43294, Note_on_c, 0, 65, 74
2, 43328, Note_on_c, 0, 55, 20
2, 43352, Note_on_c, 0, 55, 0
2, 43438, Note_on_c, 0, 65, 0
2, 43458, Note_on_c, 0, 62, 41
2, 43492, Note_on_c, 0, 62, 0
2, 43584, Note_on_c, 0, 64, 71
2, 43664, Note_on_c, 0, 64, 0
2, 43734, Note_on_c, 0, 64, 55
2, 43834, Note_on_c, 0, 64, 0
2, 43922, Note_on_c, 0, 55, 45
2, 43950, Note_on_c, 0, 55, 0
2, 44320, Note_on_c, 0, 62, 58
2, 44326, Note_on_c, 0, 57, 44
2, 44342, Note_on_c, 0, 62, 0
2, 44350, Note_on_c, 0, 57, 0
2, 44518, Note_on_c, 0, 67, 61
2, 44518, Note_on_c, 0, 74, 61
2, 44520, Note_on_c, 0, 79, 54
2, 44522, Note_on_c, 0, 62, 60
2, 44532, Note_on_c, 0, 56, 35
2, 44538, Note_on_c, 0, 67, 0
2, 44546, Note_on_c, 0, 74, 0
2, 44568, Note_on_c, 0, 62, 0
2, 44572, Note_on_c, 0, 79, 0
2, 44588, Note_on_c, 0, 56, 0
2, 44736, Note_on_c, 0, 91, 64
2, 44742, Note_on_c, 0, 56, 56
2, 44742, Note_on_c, 0, 77, 37
2, 44744, Note_on_c, 0, 89, 61
2, 44746, Note_on_c, 0, 79, 38
2, 44746, Note_on_c, 0, 62, 60
2, 44746, Note_on_c, 0, 67, 57
2, 44766, Note_on_c, 0, 89, 0
2, 44770, Note_on_c, 0, 79, 0
2, 44774, Note_on_c, 0, 77, 0
2, 44774, Note_on_c, 0, 67, 0
2, 44776, Note_on_c, 0, 91, 0
2, 44790, Note_on_c, 0, 62, 0
2, 44808, Note_on_c, 0, 56, 0
2, 45106, Note_on_c, 0, 92, 63
2, 45110, Note_on_c, 0, 67, 68
2, 45110, Note_on_c, 0, 96, 63
2, 45112, Note_on_c, 0, 62, 61
2, 45112, Note_on_c, 0, 56, 51
2, 45114, Note_on_c, 0, 84, 54
2, 45186, Note_on_c, 0, 92, 0
2, 45204, Note_on_c, 0, 93, 34
2, 45236, Control_c, 0, 64, 127
2, 45288, Note_on_c, 0, 93, 0
2, 45288, Note_on_c, 0, 96, 0
2, 45302, Note_on_c, 0, 84, 0
2, 45378, Note_on_c, 0, 56, 0
2, 45460, Note_on_c, 0, 67, 0
2, 45462, Note_on_c, 0, 62, 0
2, 45510, Note_on_c, 0, 56, 71
2, 45512, Note_on_c, 0, 91, 92
2, 45512, Note_on_c, 0, 89, 90
2, 45512, Note_on_c, 0, 62, 64
2, 45514, Note_on_c, 0, 67, 69
2, 45640, Note_on_c, 0, 67, 0
2, 45670, Note_on_c, 0, 89, 0
2, 45676, Note_on_c, 0, 91, 0
2, 45698, Note_on_c, 0, 89, 50
2, 45706, Note_on_c, 0, 86, 64
2, 45712, Note_on_c, 0, 67, 53
2, 45754, Note_on_c, 0, 67, 0
2, 45764, Note_on_c, 0, 62, 0
2, 45838, Note_on_c, 0, 56, 0
2, 45852, Note_on_c, 0, 86, 0
2, 45864, Note_on_c, 0, 89, 0
2, 45878, Control_c, 0, 64, 0
2, 45890, Note_on_c, 0, 84, 62
2, 45894, Note_on_c, 0, 88, 68
2, 45894, Note_on_c, 0, 64, 61
2, 45900, Note_on_c, 0, 60, 59
2, 45902, Note_on_c, 0, 59, 60
2, 45906, Note_on_c, 0, 57, 40
2, 45920, Note_on_c, 0, 89, 31
2, 45944, Note_on_c, 0, 89, 0
2, 46080, Note_on_c, 0, 84, 0
2, 46092, Note_on_c, 0, 64, 0
2, 46098, Note_on_c, 0, 60, 0
2, 46098, Note_on_c, 0, 59, 0
2, 46110, Note_on_c, 0, 57, 0
2, 46126, Note_on_c, 0, 88, 0
2, 46136, Note_on_c, 0, 83, 55
2, 46138, Note_on_c, 0, 86, 71
2, 46150, Note_on_c, 0, 64, 44
2, 46160, Note_on_c, 0, 57, 36
2, 46168, Note_on_c, 0, 59, 48
2, 46170, Note_on_c, 0, 60, 55
2, 46216, Control_c, 0, 64, 127
2, 46372, Note_on_c, 0, 64, 0
2, 46376, Note_on_c, 0, 83, 0
2, 46402, Note_on_c, 0, 59, 0
2, 46402, Note_on_c, 0, 60, 0
2, 46430, Note_on_c, 0, 86, 0
2, 46448, Control_c, 0, 64, 0
2, 46450, Note_on_c, 0, 81, 51
2, 46450, Note_on_c, 0, 84, 63
2, 46456, Note_on_c, 0, 64, 48
2, 46472, Note_on_c, 0, 60, 31
2, 46662, Note_on_c, 0, 57, 0
2, 46664, Note_on_c, 0, 55, 71
2, 46794, Control_c, 0, 64, 127
2, 46932, Note_on_c, 0, 55, 0
2, 47046, Note_on_c, 0, 55, 68
2, 47092, Note_on_c, 0, 81, 0
2, 47126, Note_on_c, 0, 84, 0
2, 47128, Note_on_c, 0, 64, 0
2, 47132, Note_on_c, 0, 55, 0
2, 47138, Note_on_c, 0, 60, 0
2, 47421, Note_on_c, 0, 71, 100
2, 47426, Note_on_c, 0, 66, 77
2, 47428, Note_on_c, 0, 57, 76
2, 47430, Note_on_c, 0, 64, 73
2, 47434, Note_on_c, 0, 60, 61
2, 47482, Control_c, 0, 64, 0
2, 47668, Control_c, 0, 64, 127
2, 47805, Note_on_c, 0, 71, 0
2, 47884, Note_on_c, 0, 66, 0
2, 47900, Note_on_c, 0, 64, 0
2, 47908, Note_on_c, 0, 57, 0
2, 47908, Note_on_c, 0, 60, 0
2, 47982, Control_c, 0, 64, 0
2, 48034, Control_c, 0, 64, 127
2, 48188, Control_c, 0, 64, 0
2, 48196, Note_on_c, 0, 83, 82
2, 48198, Note_on_c, 0, 67, 86
2, 48200, Note_on_c, 0, 71, 87
2, 48200, Note_on_c, 0, 63, 68
2, 48202, Note_on_c, 0, 60, 67
2, 48202, Note_on_c, 0, 57, 73
2, 48342, Control_c, 0, 64, 127
2, 48626, Note_on_c, 0, 57, 0
2, 48630, Note_on_c, 0, 60, 0
2, 48636, Note_on_c, 0, 83, 0
2, 48644, Note_on_c, 0, 63, 0
2, 48646, Note_on_c, 0, 67, 0
2, 48718, Note_on_c, 0, 71, 0
2, 48930, Note_on_c, 0, 75, 69
2, 48932, Note_on_c, 0, 81, 68
2, 48932, Note_on_c, 0, 69, 74
2, 49014, Note_on_c, 0, 81, 0
2, 49062, Note_on_c, 0, 69, 0
2, 49098, Control_c, 0, 64, 0
2, 49100, Note_on_c, 0, 75, 0
2, 49128, Note_on_c, 0, 62, 54
2, 49134, Note_on_c, 0, 79, 48
2, 49136, Note_on_c, 0, 67, 53
2, 49140, Note_on_c, 0, 55, 48
2, 49144, Note_on_c, 0, 74, 40
2, 49146, Note_on_c, 0, 59, 27
2, 49146, Note_on_c, 0, 52, 26
2, 49154, Note_on_c, 0, 62, 0
2, 49160, Note_on_c, 0, 67, 0
2, 49166, Note_on_c, 0, 55, 0
2, 49170, Note_on_c, 0, 59, 0
2, 49172, Note_on_c, 0, 74, 0
2, 49174, Note_on_c, 0, 79, 0
2, 49176, Note_on_c, 0, 52, 0
2, 49334, Note_on_c, 0, 62, 59
2, 49338, Note_on_c, 0, 52, 50
2, 49338, Note_on_c, 0, 55, 55
2, 49338, Note_on_c, 0, 59, 43
2, 49340, Note_on_c, 0, 79, 63
2, 49344, Note_on_c, 0, 67, 62
2, 49346, Note_on_c, 0, 74, 51
2, 49366, Note_on_c, 0, 59, 0
2, 49368, Note_on_c, 0, 62, 0
2, 49378, Note_on_c, 0, 67, 0
2, 49382, Note_on_c, 0, 55, 0
2, 49384, Note_on_c, 0, 74, 0
2, 49394, Note_on_c, 0, 52, 0
2, 49402, Note_on_c, 0, 79, 0
2, 49728, Note_on_c, 0, 79, 50
2, 49728, Note_on_c, 0, 74, 47
2, 49730, Note_on_c, 0, 67, 53
2, 49730, Note_on_c, 0, 62, 49
2, 49732, Note_on_c, 0, 55, 55
2, 49736, Note_on_c, 0, 59, 36
2, 49736, Note_on_c, 0, 52, 40
2, 49850, Control_c, 0, 64, 127
2, 50112, Note_on_c, 0, 52, 0
2, 50114, Note_on_c, 0, 74, 0
2, 50154, Note_on_c, 0, 67, 0
2, 50158, Note_on_c, 0, 62, 0
2, 50158, Note_on_c, 0, 55, 0
2, 50160, Note_on_c, 0, 59, 0
2, 50234, Note_on_c, 0, 79, 0
2, 50288, Note_on_c, 0, 74, 36
2, 50336, Note_on_c, 0, 74, 0
2, 50480, Control_c, 0, 64, 0
2, 50484, Note_on_c, 0, 76, 88
2, 50484, Note_on_c, 0, 66, 81
2, 50484, Note_on_c, 0, 61, 73
2, 50486, Note_on_c, 0, 55, 85
2, 50490, Note_on_c, 0, 79, 69
2, 50492, Note_on_c, 0, 72, 80
2, 50878, Control_c, 0, 64, 127
2, 51252, Note_on_c, 0, 72, 0
2, 51362, Note_on_c, 0, 76, 0
2, 51440, Note_on_c, 0, 66, 0
2, 51568, Note_on_c, 0, 79, 0
2, 51674, Note_on_c, 0, 67, 57
2, 51840, Note_on_c, 0, 55, 0
2, 51878, Note_on_c, 0, 67, 0
2, 51934, Note_on_c, 0, 61, 0
2, 52244, Control_c, 0, 64, 0
2, 52444, Note_on_c, 0, 79, 67
2, 52444, Note_on_c, 0, 75, 68
2, 52444, Note_on_c, 0, 70, 72
2, 52454, Note_on_c, 0, 54, 57
2, 52458, Note_on_c, 0, 64, 64
2, 52460, Note_on_c, 0, 60, 57
2, 52466, Note_on_c, 0, 70, 0
2, 52468, Note_on_c, 0, 79, 0
2, 52480, Note_on_c, 0, 64, 0
2, 52484, Note_on_c, 0, 60, 0
2, 52490, Note_on_c, 0, 75, 0
2, 52516, Note_on_c, 0, 54, 0
2, 52988, Control_c, 0, 64, 127
2, 53162, Note_on_c, 0, 77, 64
2, 53166, Note_on_c, 0, 70, 56
2, 53166, Note_on_c, 0, 54, 61
2, 53172, Note_on_c, 0, 64, 55
2, 53176, Note_on_c, 0, 60, 54
2, 53220, Control_c, 0, 64, 0
2, 53290, Note_on_c, 0, 70, 0
2, 53322, Note_on_c, 0, 54, 0
2, 53322, Note_on_c, 0, 64, 0
2, 53328, Note_on_c, 0, 60, 0
2, 53330, Note_on_c, 0, 77, 0
2, 53378, Note_on_c, 0, 54, 40
2, 53506, Note_on_c, 0, 54, 0
2, 53568, Note_on_c, 0, 68, 54
2, 53572, Note_on_c, 0, 79, 58
2, 53574, Note_on_c, 0, 71, 58
2, 53576, Note_on_c, 0, 53, 60
2, 53578, Note_on_c, 0, 63, 62
2, 53580, Note_on_c, 0, 74, 55
2, 53582, Note_on_c, 0, 59, 62
2, 53714, Control_c, 0, 64, 127
2, 54036, Note_on_c, 0, 79, 0
2, 54082, Note_on_c, 0, 63, 0
2, 54094, Note_on_c, 0, 68, 0
2, 54150, Note_on_c, 0, 53, 0
2, 54150, Note_on_c, 0, 74, 0
2, 54160, Note_on_c, 0, 71, 0
2, 54202, Note_on_c, 0, 59, 0
2, 54332, Note_on_c, 0, 78, 74
2, 54336, Note_on_c, 0, 74, 75
2, 54338, Note_on_c, 0, 69, 79
2, 54340, Note_on_c, 0, 63, 67
2, 54342, Note_on_c, 0, 53, 60
2, 54346, Note_on_c, 0, 59, 60
2, 54356, Control_c, 0, 64, 0
2, 54452, Note_on_c, 0, 69, 0
2, 54482, Note_on_c, 0, 78, 0
2, 54488, Note_on_c, 0, 74, 0
2, 54502, Note_on_c, 0, 63, 0
2, 54502, Note_on_c, 0, 53, 0
2, 54548, Note_on_c, 0, 59, 0
2, 54594, Note_on_c, 0, 74, 63
2, 54596, Note_on_c, 0, 68, 60
2, 54600, Control_c, 0, 64, 127
2, 54600, Note_on_c, 0, 77, 58
2, 54602, Note_on_c, 0, 63, 53
2, 54604, Note_on_c, 0, 59, 55
2, 54608, Note_on_c, 0, 53, 58
2, 54708, Note_on_c, 0, 63, 0
2, 54752, Note_on_c, 0, 53, 0
2, 54760, Note_on_c, 0, 68, 0
2, 54786, Note_on_c, 0, 74, 0
2, 54798, Note_on_c, 0, 59, 0
2, 54822, Note_on_c, 0, 77, 0
2, 54868, Control_c, 0, 64, 0
2, 54888, Note_on_c, 0, 63, 56
2, 54900, Note_on_c, 0, 53, 34
2, 54902, Note_on_c, 0, 76, 57
2, 54902, Note_on_c, 0, 67, 46
2, 54906, Note_on_c, 0, 72, 48
2, 54908, Control_c, 0, 64, 127
2, 54932, Note_on_c, 0, 53, 0
2, 54960, Note_on_c, 0, 67, 0
2, 54976, Note_on_c, 0, 63, 0
2, 55024, Note_on_c, 0, 72, 0
2, 55040, Note_on_c, 0, 76, 0
2, 55138, Note_on_c, 0, 72, 80
2, 55140, Note_on_c, 0, 76, 80
2, 55142, Note_on_c, 0, 56, 62
2, 55146, Note_on_c, 0, 62, 68
2, 55148, Note_on_c, 0, 67, 64
2, 55158, Control_c, 0, 64, 0
2, 55312, Control_c, 0, 64, 127
2, 55490, Note_on_c, 0, 67, 0
2, 55658, Control_c, 0, 64, 0
2, 55666, Note_on_c, 0, 56, 0
2, 55668, Note_on_c, 0, 67, 47
2, 55690, Note_on_c, 0, 62, 0
2, 55698, Note_on_c, 0, 72, 0
2, 55702, Control_c, 0, 64, 127
2, 55800, Note_on_c, 0, 76, 0
2, 55806, Note_on_c, 0, 67, 0
2, 55894, Note_on_c, 0, 72, 61
2, 55898, Note_on_c, 0, 67, 57
2, 55900, Note_on_c, 0, 76, 59
2, 55900, Note_on_c, 0, 62, 55
2, 55900, Note_on_c, 0, 56, 37
2, 55922, Control_c, 0, 64, 0
2, 56134, Control_c, 0, 64, 127
2, 56342, Note_on_c, 0, 67, 0
2, 56368, Note_on_c, 0, 62, 0
2, 56422, Note_on_c, 0, 72, 0
2, 56470, Note_on_c, 0, 56, 0
2, 56510, Note_on_c, 0, 76, 0
2, 56650, Note_on_c, 0, 66, 62
2, 56652, Note_on_c, 0, 61, 57
2, 56654, Note_on_c, 0, 76, 68
2, 56656, Note_on_c, 0, 55, 68
2, 56672, Control_c, 0, 64, 0
2, 56954, Control_c, 0, 64, 127
2, 57174, Note_on_c, 0, 76, 0
2, 57412, Note_on_c, 0, 78, 76
2, 57412, Note_on_c, 0, 79, 89
2, 57432, Note_on_c, 0, 78, 0
2, 57456, Control_c, 0, 64, 0
2, 57526, Control_c, 0, 64, 127
2, 57596, Control_c, 0, 64, 0
2, 57630, Note_on_c, 0, 79, 0
2, 57680, Control_c, 0, 64, 127
2, 57728, Note_on_c, 0, 77, 75
2, 57882, Note_on_c, 0, 77, 0
2, 57986, Note_on_c, 0, 77, 74
2, 58014, Control_c, 0, 64, 0
2, 58118, Note_on_c, 0, 77, 0
2, 58130, Note_on_c, 0, 66, 0
2, 58152, Note_on_c, 0, 55, 0
2, 58168, Control_c, 0, 64, 127
2, 58176, Note_on_c, 0, 76, 74
2, 58278, Note_on_c, 0, 61, 0
2, 58304, Note_on_c, 0, 76, 0
2, 58314, Control_c, 0, 64, 0
2, 58352, Note_on_c, 0, 54, 37
2, 58354, Note_on_c, 0, 74, 69
2, 58356, Note_on_c, 0, 65, 44
2, 58360, Note_on_c, 0, 60, 55
2, 58514, Control_c, 0, 64, 127
2, 58800, Note_on_c, 0, 65, 0
2, 58858, Note_on_c, 0, 54, 0
2, 58866, Note_on_c, 0, 60, 0
2, 58876, Note_on_c, 0, 74, 0
2, 58952, Note_on_c, 0, 72, 80
2, 58956, Note_on_c, 0, 69, 78
2, 58960, Note_on_c, 0, 54, 68
2, 58966, Note_on_c, 0, 65, 68
2, 58966, Note_on_c, 0, 60, 70
2, 59040, Note_on_c, 0, 69, 0
2, 59086, Note_on_c, 0, 65, 0
2, 59118, Control_c, 0, 64, 0
2, 59118, Note_on_c, 0, 60, 0
2, 59128, Note_on_c, 0, 72, 0
2, 59156, Note_on_c, 0, 68, 57
2, 59156, Note_on_c, 0, 71, 63
2, 59160, Note_on_c, 0, 60, 54
2, 59162, Note_on_c, 0, 65, 47
2, 59226, Note_on_c, 0, 65, 0
2, 59298, Note_on_c, 0, 54, 0
2, 59318, Note_on_c, 0, 68, 0
2, 59328, Note_on_c, 0, 60, 0
2, 59330, Note_on_c, 0, 71, 0
2, 59350, Note_on_c, 0, 72, 64
2, 59358, Note_on_c, 0, 60, 30
2, 59358, Note_on_c, 0, 54, 53
2, 59366, Note_on_c, 0, 69, 46
2, 59394, Note_on_c, 0, 69, 0
2, 59418, Note_on_c, 0, 60, 0
2, 59426, Note_on_c, 0, 72, 0
2, 59468, Note_on_c, 0, 54, 0
2, 59712, Note_on_c, 0, 74, 74
2, 59722, Note_on_c, 0, 65, 62
2, 59722, Note_on_c, 0, 59, 68
2, 59722, Note_on_c, 0, 64, 71
2, 59724, Note_on_c, 0, 69, 61
2, 59726, Note_on_c, 0, 53, 65
2, 59744, Note_on_c, 0, 64, 0
2, 59744, Note_on_c, 0, 65, 0
2, 59746, Note_on_c, 0, 69, 0
2, 59748, Note_on_c, 0, 59, 0
2, 59764, Note_on_c, 0, 53, 0
2, 59774, Note_on_c, 0, 74, 0
2, 60268, Note_on_c, 0, 75, 70
2, 60272, Note_on_c, 0, 53, 59
2, 60274, Note_on_c, 0, 63, 57
2, 60274, Note_on_c, 0, 71, 72
2, 60276, Note_on_c, 0, 68, 57
2, 60276, Note_on_c, 0, 65, 71
2, 60278, Note_on_c, 0, 59, 61
2, 60670, Control_c, 0, 64, 127
2, 60720, Note_on_c, 0, 65, 0
2, 60920, Note_on_c, 0, 53, 0
2, 60932, Note_on_c, 0, 59, 0
2, 60934, Note_on_c, 0, 63, 0
2, 61028, Note_on_c, 0, 71, 0
2, 61044, Control_c, 0, 64, 0
2, 61054, Note_on_c, 0, 67, 50
2, 61098, Note_on_c, 0, 68, 0
2, 61172, Note_on_c, 0, 75, 0
2, 61254, Note_on_c, 0, 67, 0
2, 61256, Note_on_c, 0, 72, 70
2, 61582, Note_on_c, 0, 72, 0
2, 61994, Note_on_c, 0, 61, 84
2, 61996, Note_on_c, 0, 53, 78
2, 61998, Note_on_c, 0, 55, 83
2, 62098, Note_on_c, 0, 53, 0
2, 62114, Note_on_c, 0, 55, 0
2, 62124, Note_on_c, 0, 61, 0
2, 62382, Note_on_c, 0, 56, 62
2, 62384, Note_on_c, 0, 62, 74
2, 62384, Note_on_c, 0, 54, 62
2, 62524, Note_on_c, 0, 62, 0
2, 62532, Note_on_c, 0, 54, 0
2, 62552, Note_on_c, 0, 56, 0
2, 62792, Note_on_c, 0, 63, 55
2, 62794, Note_on_c, 0, 57, 54
2, 62804, Note_on_c, 0, 55, 68
2, 63742, Note_on_c, 0, 55, 0
2, 63748, Note_on_c, 0, 57, 0
2, 63794, Note_on_c, 0, 63, 0
2, 63900, Note_on_c, 0, 58, 60
2, 63902, Note_on_c, 0, 64, 62
2, 63910, Note_on_c, 0, 56, 52
2, 64000, Note_on_c, 0, 64, 0
2, 64014, Note_on_c, 0, 56, 0
2, 64118, Note_on_c, 0, 59, 24
2, 64134, Note_on_c, 0, 58, 0
2, 64140, Note_on_c, 0, 59, 0
2, 64490, Note_on_c, 0, 62, 50
2, 64498, Note_on_c, 0, 51, 32
2, 64500, Note_on_c, 0, 55, 60
2, 64524, Note_on_c, 0, 51, 0
2, 64530, Note_on_c, 0, 55, 0
2, 64542, Note_on_c, 0, 62, 0
2, 65056, Note_on_c, 0, 62, 69
2, 65070, Note_on_c, 0, 55, 54
2, 65072, Note_on_c, 0, 51, 25
2, 65078, Note_on_c, 0, 57, 34
2, 65092, Note_on_c, 0, 62, 0
2, 65096, Note_on_c, 0, 55, 0
2, 65100, Note_on_c, 0, 51, 0
2, 65106, Note_on_c, 0, 57, 0
2, 65280, Note_on_c, 0, 72, 29
2, 65304, Note_on_c, 0, 72, 0
2, 65456, Note_on_c, 0, 75, 88
2, 65498, Note_on_c, 0, 75, 0
2, 65650, Note_on_c, 0, 77, 110
2, 65762, Note_on_c, 0, 77, 0
2, 65768, Note_on_c, 0, 78, 50
2, 65824, Note_on_c, 0, 78, 0
2, 65830, Note_on_c, 0, 77, 15
2, 65910, Note_on_c, 0, 77, 0
2, 66244, Note_on_c, 0, 63, 52
2, 66250, Note_on_c, 0, 65, 49
2, 66260, Note_on_c, 0, 57, 35
2, 66274, Note_on_c, 0, 65, 0
2, 66288, Note_on_c, 0, 57, 0
2, 66292, Note_on_c, 0, 63, 0
2, 66790, Note_on_c, 0, 63, 64
2, 66794, Note_on_c, 0, 53, 58
2, 66804, Note_on_c, 0, 58, 50
2, 66832, Note_on_c, 0, 53, 0
2, 66834, Note_on_c, 0, 63, 0
2, 66840, Note_on_c, 0, 58, 0
2, 67090, Note_on_c, 0, 63, 69
2, 67096, Note_on_c, 0, 53, 51
2, 67110, Note_on_c, 0, 58, 37
2, 67122, Note_on_c, 0, 53, 0
2, 67130, Note_on_c, 0, 63, 0
2, 67174, Note_on_c, 0, 58, 0
2, 67184, Note_on_c, 0, 95, 73
2, 67200, Note_on_c, 0, 93, 37
2, 67222, Note_on_c, 0, 93, 0
2, 67244, Note_on_c, 0, 95, 0
2, 67276, Note_on_c, 0, 98, 87
2, 67352, Note_on_c, 0, 98, 0
2, 67376, Note_on_c, 0, 96, 74
2, 67456, Note_on_c, 0, 96, 0
2, 67472, Note_on_c, 0, 91, 75
2, 67482, Note_on_c, 0, 62, 64
2, 67488, Note_on_c, 0, 51, 46
2, 67500, Note_on_c, 0, 57, 44
2, 67524, Note_on_c, 0, 62, 0
2, 67530, Note_on_c, 0, 57, 0
2, 67536, Note_on_c, 0, 51, 0
2, 67548, Note_on_c, 0, 91, 0
2, 67570, Note_on_c, 0, 89, 56
2, 67630, Note_on_c, 0, 89, 0
2, 67674, Note_on_c, 0, 87, 60
2, 67756, Note_on_c, 0, 87, 0
2, 67774, Note_on_c, 0, 86, 44
2, 67826, Note_on_c, 0, 86, 0
2, 67862, Note_on_c, 0, 89, 74
2, 67892, Note_on_c, 0, 62, 41
2, 67918, Note_on_c, 0, 62, 0
2, 67952, Note_on_c, 0, 89, 0
2, 67978, Note_on_c, 0, 79, 62
2, 68004, Note_on_c, 0, 79, 0
2, 68148, Note_on_c, 0, 79, 57
2, 68176, Note_on_c, 0, 79, 0
2, 68430, Note_on_c, 0, 62, 54
2, 68434, Note_on_c, 0, 57, 50
2, 68454, Note_on_c, 0, 62, 0
2, 68480, Note_on_c, 0, 57, 0
2, 68708, Note_on_c, 0, 51, 53
2, 68708, Note_on_c, 0, 62, 61
2, 68716, Note_on_c, 0, 57, 47
2, 68742, Note_on_c, 0, 62, 0
2, 68746, Note_on_c, 0, 57, 0
2, 68768, Note_on_c, 0, 51, 0
2, 69008, Note_on_c, 0, 53, 57
2, 69008, Note_on_c, 0, 63, 64
2, 69020, Note_on_c, 0, 58, 46
2, 69042, Note_on_c, 0, 53, 0
2, 69060, Note_on_c, 0, 63, 0
2, 69090, Note_on_c, 0, 58, 0
2, 69300, Note_on_c, 0, 54, 51
2, 69304, Note_on_c, 0, 64, 56
2, 69310, Note_on_c, 0, 59, 61
2, 69744, Note_on_c, 0, 59, 0
2, 69790, Note_on_c, 0, 54, 0
2, 69792, Note_on_c, 0, 64, 0
2, 69854, Note_on_c, 0, 86, 110
2, 69858, Note_on_c, 0, 55, 62
2, 69862, Note_on_c, 0, 65, 55
2, 69866, Note_on_c, 0, 60, 62
2, 69914, Note_on_c, 0, 86, 0
2, 69958, Note_on_c, 0, 89, 73
2, 70018, Note_on_c, 0, 65, 0
2, 70044, Note_on_c, 0, 89, 0
2, 70048, Note_on_c, 0, 86, 58
2, 70070, Note_on_c, 0, 60, 0
2, 70118, Note_on_c, 0, 86, 0
2, 70162, Note_on_c, 0, 87, 61
2, 70194, Note_on_c, 0, 60, 39
2, 70204, Note_on_c, 0, 87, 0
2, 70318, Note_on_c, 0, 60, 0
2, 70360, Note_on_c, 0, 95, 70
2, 70362, Note_on_c, 0, 55, 0
2, 70400, Note_on_c, 0, 95, 0
2, 70438, Note_on_c, 0, 98, 80
2, 70444, Note_on_c, 0, 96, 78
2, 70466, Note_on_c, 0, 96, 0
2, 70502, Note_on_c, 0, 98, 0
2, 70554, Note_on_c, 0, 98, 80
2, 70624, Note_on_c, 0, 98, 0
2, 70630, Note_on_c, 0, 62, 51
2, 70642, Note_on_c, 0, 91, 72
2, 70644, Note_on_c, 0, 51, 28
2, 70654, Note_on_c, 0, 57, 29
2, 70660, Note_on_c, 0, 62, 0
2, 70678, Note_on_c, 0, 51, 0
2, 70688, Note_on_c, 0, 57, 0
2, 70688, Note_on_c, 0, 91, 0
2, 70744, Note_on_c, 0, 91, 59
2, 70792, Note_on_c, 0, 91, 0
2, 70824, Note_on_c, 0, 96, 76
2, 70880, Note_on_c, 0, 96, 0
2, 70932, Note_on_c, 0, 96, 71
2, 70964, Note_on_c, 0, 51, 30
2, 70964, Note_on_c, 0, 62, 29
2, 70990, Note_on_c, 0, 62, 0
2, 70990, Note_on_c, 0, 51, 0
2, 71012, Note_on_c, 0, 96, 0
2, 71024, Note_on_c, 0, 86, 44
2, 71060, Note_on_c, 0, 86, 0
2, 71128, Note_on_c, 0, 86, 59
2, 71164, Note_on_c, 0, 86, 0
2, 71200, Note_on_c, 0, 91, 76
2, 71270, Note_on_c, 0, 91, 0
2, 71306, Note_on_c, 0, 91, 73
2, 71348, Note_on_c, 0, 62, 28
2, 71354, Note_on_c, 0, 57, 33
2, 71356, Note_on_c, 0, 51, 21
2, 71376, Note_on_c, 0, 62, 0
2, 71384, Note_on_c, 0, 51, 0
2, 71386, Note_on_c, 0, 91, 0
2, 71400, Note_on_c, 0, 57, 0
2, 71418, Note_on_c, 0, 81, 18
2, 71456, Note_on_c, 0, 81, 0
2, 71506, Note_on_c, 0, 81, 33
2, 71566, Note_on_c, 0, 81, 0
2, 71576, Note_on_c, 0, 89, 80
2, 71656, Note_on_c, 0, 89, 0
2, 71698, Note_on_c, 0, 89, 66
2, 71738, Note_on_c, 0, 88, 43
2, 71740, Note_on_c, 0, 57, 39
2, 71744, Note_on_c, 0, 89, 0
2, 71774, Note_on_c, 0, 88, 0
2, 71780, Note_on_c, 0, 57, 0
2, 71812, Note_on_c, 0, 79, 40
2, 71854, Note_on_c, 0, 79, 0
2, 71916, Note_on_c, 0, 79, 47
2, 71966, Note_on_c, 0, 79, 0
2, 72006, Note_on_c, 0, 87, 59
2, 72068, Note_on_c, 0, 87, 0
2, 72138, Note_on_c, 0, 63, 52
2, 72138, Note_on_c, 0, 53, 56
2, 72152, Note_on_c, 0, 58, 44
2, 72548, Note_on_c, 0, 86, 91
2, 72604, Note_on_c, 0, 86, 0
2, 72654, Note_on_c, 0, 85, 57
2, 72730, Note_on_c, 0, 85, 0
2, 72736, Note_on_c, 0, 53, 0
2, 72788, Note_on_c, 0, 63, 0
2, 72812, Note_on_c, 0, 58, 0
2, 72896, Note_on_c, 0, 54, 36
2, 72910, Note_on_c, 0, 64, 26
2, 72912, Note_on_c, 0, 59, 50
2, 73098, Note_on_c, 0, 59, 0
2, 73128, Note_on_c, 0, 59, 17
2, 73134, Note_on_c, 0, 84, 90
2, 73210, Note_on_c, 0, 84, 0
2, 73236, Note_on_c, 0, 64, 0
2, 73286, Note_on_c, 0, 59, 0
2, 73364, Note_on_c, 0, 54, 0
2, 73424, Note_on_c, 0, 83, 81
2, 73434, Note_on_c, 0, 63, 53
2, 73434, Note_on_c, 0, 53, 55
2, 73474, Note_on_c, 0, 63, 0
2, 73492, Note_on_c, 0, 83, 0
2, 73506, Note_on_c, 0, 53, 0
2, 73526, Note_on_c, 0, 82, 62
2, 73614, Note_on_c, 0, 82, 0
2, 73712, Note_on_c, 0, 62, 48
2, 73718, Note_on_c, 0, 81, 72
2, 73718, Note_on_c, 0, 51, 29
2, 73732, Note_on_c, 0, 57, 47
2, 73774, Note_on_c, 0, 62, 0
2, 73798, Note_on_c, 0, 51, 0
2, 73800, Note_on_c, 0, 57, 0
2, 73814, Note_on_c, 0, 81, 0
2, 73902, Note_on_c, 0, 75, 58
2, 73982, Note_on_c, 0, 75, 0
2, 74270, Note_on_c, 0, 61, 75
2, 74272, Note_on_c, 0, 53, 69
2, 74276, Note_on_c, 0, 56, 59
2, 74364, Note_on_c, 0, 61, 0
2, 74366, Note_on_c, 0, 56, 0
2, 74370, Note_on_c, 0, 53, 0
2, 74634, Note_on_c, 0, 56, 61
2, 74636, Note_on_c, 0, 62, 76
2, 74638, Note_on_c, 0, 54, 59
2, 74748, Note_on_c, 0, 62, 0
2, 74762, Note_on_c, 0, 54, 0
2, 74768, Note_on_c, 0, 56, 0
2, 75060, Note_on_c, 0, 63, 56
2, 75070, Note_on_c, 0, 57, 59
2, 75072, Note_on_c, 0, 55, 58
2, 75258, Note_on_c, 0, 69, 44
2, 75294, Note_on_c, 0, 69, 0
2, 75378, Note_on_c, 0, 72, 57
2, 75428, Note_on_c, 0, 72, 0
2, 75466, Note_on_c, 0, 75, 77
2, 75562, Note_on_c, 0, 71, 56
2, 75568, Note_on_c, 0, 75, 0
2, 75602, Note_on_c, 0, 71, 0
2, 75652, Note_on_c, 0, 72, 51
2, 75722, Note_on_c, 0, 72, 0
2, 75760, Note_on_c, 0, 74, 64
2, 75816, Note_on_c, 0, 74, 0
2, 75840, Note_on_c, 0, 75, 55
2, 75892, Note_on_c, 0, 75, 0
2, 75910, Note_on_c, 0, 55, 0
2, 75920, Note_on_c, 0, 57, 0
2, 75938, Note_on_c, 0, 77, 63
2, 75962, Note_on_c, 0, 63, 0
2, 76014, Note_on_c, 0, 77, 0
2, 76032, Note_on_c, 0, 78, 45
2, 76136, Note_on_c, 0, 58, 63
2, 76136, Note_on_c, 0, 80, 65
2, 76138, Note_on_c, 0, 65, 62
2, 76152, Note_on_c, 0, 61, 35
2, 76160, Note_on_c, 0, 65, 0
2, 76160, Note_on_c, 0, 78, 0
2, 76174, Note_on_c, 0, 61, 0
2, 76200, Note_on_c, 0, 58, 0
2, 76202, Note_on_c, 0, 80, 0
2, 76224, Note_on_c, 0, 81, 71
2, 76288, Note_on_c, 0, 81, 0
2, 76326, Note_on_c, 0, 82, 52
2, 76400, Note_on_c, 0, 82, 0
2, 76402, Note_on_c, 0, 63, 55
2, 76408, Note_on_c, 0, 83, 60
2, 76420, Note_on_c, 0, 58, 42
2, 76424, Note_on_c, 0, 53, 48
2, 76490, Note_on_c, 0, 83, 0
2, 76516, Note_on_c, 0, 86, 89
2, 76596, Note_on_c, 0, 53, 0
2, 76600, Note_on_c, 0, 86, 0
2, 76604, Note_on_c, 0, 83, 43
2, 76610, Note_on_c, 0, 63, 0
2, 76672, Note_on_c, 0, 83, 0
2, 76702, Note_on_c, 0, 58, 0
2, 76702, Note_on_c, 0, 84, 80
2, 76730, Note_on_c, 0, 62, 60
2, 76744, Note_on_c, 0, 51, 31
2, 76750, Note_on_c, 0, 57, 43
2, 76770, Note_on_c, 0, 62, 0
2, 76780, Note_on_c, 0, 57, 0
2, 76786, Note_on_c, 0, 79, 49
2, 76792, Note_on_c, 0, 84, 0
2, 76796, Note_on_c, 0, 51, 0
2, 76870, Note_on_c, 0, 79, 0
2, 76890, Note_on_c, 0, 77, 57
2, 76948, Note_on_c, 0, 77, 0
2, 76974, Note_on_c, 0, 75, 42
2, 77068, Note_on_c, 0, 75, 0
2, 77068, Note_on_c, 0, 72, 49
2, 77116, Note_on_c, 0, 72, 0
2, 77168, Note_on_c, 0, 74, 70
2, 77174, Note_on_c, 0, 77, 53
2, 77252, Note_on_c, 0, 74, 0
2, 77270, Note_on_c, 0, 48, 62
2, 77282, Note_on_c, 0, 36, 54
2, 77286, Note_on_c, 0, 67, 53
2, 77302, Note_on_c, 0, 77, 0
2, 77304, Note_on_c, 0, 36, 0
2, 77320, Note_on_c, 0, 48, 0
2, 77336, Note_on_c, 0, 67, 0
2, 77430, Note_on_c, 0, 67, 65
2, 77482, Note_on_c, 0, 67, 0
2, 77538, Note_on_c, 0, 67, 64
2, 77592, Note_on_c, 0, 67, 0
2, 77744, Note_on_c, 0, 63, 70
2, 77746, Note_on_c, 0, 53, 64
2, 77748, Note_on_c, 0, 58, 55
2, 77782, Note_on_c, 0, 63, 0
2, 77800, Note_on_c, 0, 53, 0
2, 77810, Note_on_c, 0, 58, 0
2, 77932, Note_on_c, 0, 54, 56
2, 77938, Note_on_c, 0, 64, 49
2, 77944, Note_on_c, 0, 59, 48
2, 77988, Note_on_c, 0, 64, 0
2, 77988, Note_on_c, 0, 59, 0
2, 78006, Note_on_c, 0, 54, 0
2, 78142, Note_on_c, 0, 57, 76
2, 78144, Note_on_c, 0, 67, 82
2, 78144, Note_on_c, 0, 63, 67
2, 78146, Note_on_c, 0, 61, 55
2, 78168, Note_on_c, 0, 61, 0
2, 78566, Note_on_c, 0, 67, 0
2, 78584, Note_on_c, 0, 63, 0
2, 78638, Note_on_c, 0, 63, 37
2, 78714, Note_on_c, 0, 74, 99
2, 78716, Note_on_c, 0, 77, 79
2, 78732, Note_on_c, 0, 63, 0
2, 78762, Note_on_c, 0, 74, 0
2, 78776, Note_on_c, 0, 77, 0
2, 78812, Note_on_c, 0, 63, 13
2, 78822, Note_on_c, 0, 74, 71
2, 78824, Note_on_c, 0, 77, 65
2, 78898, Note_on_c, 0, 74, 0
2, 78902, Note_on_c, 0, 77, 0
2, 78906, Note_on_c, 0, 63, 0
2, 78928, Note_on_c, 0, 57, 0
2, 78996, Note_on_c, 0, 72, 57
2, 79018, Note_on_c, 0, 72, 0
2, 79082, Note_on_c, 0, 77, 70
2, 79084, Note_on_c, 0, 74, 80
2, 79092, Note_on_c, 0, 63, 52
2, 79096, Note_on_c, 0, 67, 54
2, 79102, Note_on_c, 0, 57, 50
2, 79130, Note_on_c, 0, 74, 0
2, 79134, Note_on_c, 0, 67, 0
2, 79148, Note_on_c, 0, 77, 0
2, 79200, Note_on_c, 0, 74, 65
2, 79202, Note_on_c, 0, 77, 68
2, 79254, Note_on_c, 0, 74, 0
2, 79268, Note_on_c, 0, 77, 0
2, 79278, Note_on_c, 0, 57, 0
2, 79286, Note_on_c, 0, 63, 0
2, 79358, Note_on_c, 0, 75, 52
2, 79360, Note_on_c, 0, 72, 58
2, 79394, Note_on_c, 0, 72, 0
2, 79394, Note_on_c, 0, 75, 0
2, 79408, Note_on_c, 0, 63, 31
2, 79448, Note_on_c, 0, 74, 51
2, 79458, Note_on_c, 0, 63, 0
2, 79460, Note_on_c, 0, 77, 45
2, 79500, Note_on_c, 0, 74, 0
2, 79540, Note_on_c, 0, 77, 0
2, 79574, Note_on_c, 0, 63, 56
2, 79584, Note_on_c, 0, 57, 51
2, 79584, Note_on_c, 0, 67, 35
2, 79610, Note_on_c, 0, 67, 0
2, 79632, Note_on_c, 0, 63, 0
2, 79638, Note_on_c, 0, 77, 79
2, 79644, Note_on_c, 0, 84, 79
2, 79644, Note_on_c, 0, 78, 68
2, 79648, Note_on_c, 0, 57, 0
2, 79738, Note_on_c, 0, 77, 0
2, 79750, Note_on_c, 0, 79, 54
2, 79754, Note_on_c, 0, 78, 0
2, 79798, Note_on_c, 0, 79, 0
2, 79802, Note_on_c, 0, 84, 0
2, 79986, Note_on_c, 0, 62, 55
2, 79992, Note_on_c, 0, 57, 58
2, 79996, Note_on_c, 0, 51, 30
2, 80012, Note_on_c, 0, 62, 0
2, 80022, Note_on_c, 0, 57, 0
2, 80040, Note_on_c, 0, 51, 0
2, 80252, Note_on_c, 0, 62, 67
2, 80258, Note_on_c, 0, 57, 58
2, 80260, Note_on_c, 0, 51, 37
2, 80274, Note_on_c, 0, 62, 0
2, 80282, Note_on_c, 0, 51, 0
2, 80298, Note_on_c, 0, 57, 0
2, 80514, Note_on_c, 0, 62, 62
2, 80522, Note_on_c, 0, 51, 33
2, 80530, Note_on_c, 0, 57, 40
2, 80542, Note_on_c, 0, 62, 0
2, 80556, Note_on_c, 0, 51, 0
2, 80558, Note_on_c, 0, 57, 0
2, 80806, Note_on_c, 0, 62, 71
2, 80808, Note_on_c, 0, 51, 53
2, 80822, Note_on_c, 0, 57, 48
2, 80826, Note_on_c, 0, 62, 0
2, 80838, Note_on_c, 0, 51, 0
2, 80860, Note_on_c, 0, 57, 0
2, 81004, Note_on_c, 0, 91, 89
2, 81008, Note_on_c, 0, 79, 90
2, 81064, Note_on_c, 0, 79, 0
2, 81088, Note_on_c, 0, 91, 0
2, 81542, Note_on_c, 0, 62, 56
2, 81546, Note_on_c, 0, 51, 53
2, 81550, Note_on_c, 0, 57, 54
2, 81564, Note_on_c, 0, 62, 0
2, 81572, Note_on_c, 0, 57, 0
2, 81572, Note_on_c, 0, 51, 0
2, 81878, Note_on_c, 0, 62, 68
2, 81880, Note_on_c, 0, 51, 54
2, 81884, Note_on_c, 0, 57, 56
2, 81902, Note_on_c, 0, 62, 0
2, 81910, Note_on_c, 0, 57, 0
2, 81940, Note_on_c, 0, 51, 0
2, 82080, Note_on_c, 0, 51, 46
2, 82084, Note_on_c, 0, 62, 36
2, 82086, Note_on_c, 0, 57, 44
2, 82106, Note_on_c, 0, 51, 0
2, 82110, Note_on_c, 0, 57, 0
2, 82112, Note_on_c, 0, 62, 0
2, 82166, Note_on_c, 0, 87, 88
2, 82226, Note_on_c, 0, 87, 0
2, 82266, Note_on_c, 0, 88, 74
2, 82354, Note_on_c, 0, 85, 54
2, 82354, Note_on_c, 0, 88, 0
2, 82438, Note_on_c, 0, 85, 0
2, 82456, Note_on_c, 0, 83, 62
2, 82508, Note_on_c, 0, 57, 24
2, 82512, Note_on_c, 0, 83, 0
2, 82532, Note_on_c, 0, 57, 0
2, 82636, Note_on_c, 0, 78, 53
2, 82642, Note_on_c, 0, 51, 39
2, 82648, Note_on_c, 0, 57, 51
2, 82656, Note_on_c, 0, 62, 27
2, 82714, Note_on_c, 0, 78, 0
2, 82730, Note_on_c, 0, 62, 0
2, 82740, Note_on_c, 0, 57, 0
2, 82846, Note_on_c, 0, 57, 38
2, 82856, Note_on_c, 0, 51, 0
2, 82860, Note_on_c, 0, 74, 41
2, 82888, Note_on_c, 0, 74, 0
2, 82922, Note_on_c, 0, 78, 69
2, 82924, Note_on_c, 0, 57, 0
2, 83024, Note_on_c, 0, 78, 0
2, 83042, Note_on_c, 0, 57, 30
2, 83060, Note_on_c, 0, 74, 31
2, 83086, Note_on_c, 0, 74, 0
2, 83090, Note_on_c, 0, 57, 0
2, 83120, Note_on_c, 0, 77, 68
2, 83206, Note_on_c, 0, 77, 0
2, 83214, Note_on_c, 0, 75, 46
2, 83236, Note_on_c, 0, 74, 59
2, 83244, Note_on_c, 0, 75, 0
2, 83288, Note_on_c, 0, 74, 0
2, 83310, Note_on_c, 0, 67, 34
2, 83416, Note_on_c, 0, 67, 0
2, 83502, Note_on_c, 0, 67, 59
2, 83630, Note_on_c, 0, 67, 0
2, 83690, Note_on_c, 0, 67, 47
2, 83790, Note_on_c, 0, 67, 0
2, 83870, Note_on_c, 0, 67, 65
2, 83966, Note_on_c, 0, 67, 0
2, 83988, Note_on_c, 0, 66, 35
2, 84074, Note_on_c, 0, 67, 49
2, 84080, Note_on_c, 0, 66, 0
2, 84146, Note_on_c, 0, 67, 0
2, 84184, Note_on_c, 0, 75, 67
2, 84190, Note_on_c, 0, 53, 61
2, 84194, Note_on_c, 0, 63, 55
2, 84212, Note_on_c, 0, 58, 44
2, 84390, Note_on_c, 0, 53, 0
2, 84426, Note_on_c, 0, 75, 0
2, 84432, Note_on_c, 0, 63, 0
2, 84446, Note_on_c, 0, 58, 0
2, 84484, Note_on_c, 0, 64, 58
2, 84486, Note_on_c, 0, 59, 56
2, 84488, Note_on_c, 0, 54, 38
2, 84708, Note_on_c, 0, 54, 0
2, 84708, Note_on_c, 0, 64, 0
2, 84716, Note_on_c, 0, 59, 0
2, 84768, Note_on_c, 0, 54, 52
2, 84774, Note_on_c, 0, 64, 46
2, 84776, Note_on_c, 0, 59, 45
2, 84920, Note_on_c, 0, 59, 0
2, 84946, Note_on_c, 0, 54, 0
2, 84954, Note_on_c, 0, 64, 0
2, 85014, Note_on_c, 0, 65, 65
2, 85028, Note_on_c, 0, 60, 54
2, 85032, Note_on_c, 0, 55, 43
2, 85042, Note_on_c, 0, 65, 0
2, 85054, Note_on_c, 0, 60, 0
2, 85064, Note_on_c, 0, 55, 0
2, 85226, Note_on_c, 0, 67, 51
2, 85296, Note_on_c, 0, 67, 0
2, 85340, Note_on_c, 0, 68, 43
2, 85390, Note_on_c, 0, 68, 0
2, 85416, Note_on_c, 0, 69, 60
2, 85454, Note_on_c, 0, 69, 0
2, 85520, Note_on_c, 0, 74, 80
2, 85548, Note_on_c, 0, 63, 31
2, 85554, Note_on_c, 0, 65, 24
2, 85576, Note_on_c, 0, 65, 0
2, 85586, Note_on_c, 0, 63, 0
2, 85678, Note_on_c, 0, 74, 0
2, 85948, Note_on_c, 0, 62, 57
2, 85954, Note_on_c, 0, 51, 37
2, 85964, Note_on_c, 0, 57, 32
2, 85970, Note_on_c, 0, 62, 0
2, 85976, Note_on_c, 0, 51, 0
2, 85992, Note_on_c, 0, 57, 0
2, 86000, Note_on_c, 0, 66, 44
2, 86096, Note_on_c, 0, 66, 0
2, 86116, Note_on_c, 0, 67, 55
2, 86190, Note_on_c, 0, 68, 39
2, 86198, Note_on_c, 0, 67, 0
2, 86276, Note_on_c, 0, 68, 0
2, 86306, Note_on_c, 0, 74, 80
2, 86422, Note_on_c, 0, 74, 0
2, 86518, Note_on_c, 0, 57, 19
2, 86560, Note_on_c, 0, 57, 0
2, 86570, Note_on_c, 0, 74, 69
2, 86652, Note_on_c, 0, 74, 0
2, 86704, Note_on_c, 0, 57, 28
2, 86736, Note_on_c, 0, 57, 0
2, 86798, Note_on_c, 0, 68, 32
2, 86822, Note_on_c, 0, 68, 0
2, 87122, Note_on_c, 0, 53, 54
2, 87126, Note_on_c, 0, 63, 56
2, 87168, Note_on_c, 0, 53, 0
2, 87178, Note_on_c, 0, 63, 0
2, 87454, Note_on_c, 0, 58, 38
2, 87460, Note_on_c, 0, 53, 44
2, 87462, Note_on_c, 0, 64, 50
2, 87474, Note_on_c, 0, 59, 52
2, 87476, Note_on_c, 0, 58, 0
2, 87486, Note_on_c, 0, 64, 0
2, 87496, Note_on_c, 0, 53, 0
2, 87498, Note_on_c, 0, 59, 0
2, 87674, Note_on_c, 0, 59, 32
2, 87698, Note_on_c, 0, 59, 0
2, 87742, Note_on_c, 0, 69, 82
2, 87824, Note_on_c, 0, 69, 0
2, 87876, Note_on_c, 0, 65, 24
2, 87906, Note_on_c, 0, 65, 0
2, 87952, Note_on_c, 0, 66, 19
2, 88030, Note_on_c, 0, 68, 59
2, 88042, Note_on_c, 0, 66, 0
2, 88076, Note_on_c, 0, 68, 0
2, 88104, Note_on_c, 0, 69, 54
2, 88182, Note_on_c, 0, 69, 0
2, 88202, Note_on_c, 0, 71, 61
2, 88226, Note_on_c, 0, 63, 33
2, 88256, Note_on_c, 0, 63, 0
2, 88294, Note_on_c, 0, 71, 0
2, 88314, Note_on_c, 0, 72, 31
2, 88368, Note_on_c, 0, 72, 0
2, 88390, Note_on_c, 0, 74, 66
2, 88426, Note_on_c, 0, 63, 42
2, 88432, Note_on_c, 0, 65, 37
2, 88432, Note_on_c, 0, 74, 0
2, 88458, Note_on_c, 0, 65, 0
2, 88470, Note_on_c, 0, 75, 55
2, 88480, Note_on_c, 0, 63, 0
2, 88554, Note_on_c, 0, 75, 0
2, 88586, Note_on_c, 0, 77, 57
2, 88620, Note_on_c, 0, 63, 42
2, 88642, Note_on_c, 0, 63, 0
2, 88672, Note_on_c, 0, 77, 0
2, 88680, Note_on_c, 0, 78, 31
2, 88784, Note_on_c, 0, 78, 0
2, 88786, Note_on_c, 0, 80, 48
2, 88836, Note_on_c, 0, 80, 0
2, 88870, Note_on_c, 0, 81, 33
2, 88960, Note_on_c, 0, 81, 0
2, 88972, Note_on_c, 0, 82, 25
2, 89024, Note_on_c, 0, 62, 52
2, 89040, Note_on_c, 0, 57, 36
2, 89046, Note_on_c, 0, 62, 0
2, 89058, Note_on_c, 0, 55, 32
2, 89064, Note_on_c, 0, 82, 0
2, 89072, Note_on_c, 0, 57, 0
2, 89080, Note_on_c, 0, 83, 41
2, 89090, Note_on_c, 0, 55, 0
2, 89142, Note_on_c, 0, 83, 0
2, 89176, Note_on_c, 0, 86, 71
2, 89180, Note_on_c, 0, 74, 48
2, 89226, Note_on_c, 0, 86, 0
2, 89232, Note_on_c, 0, 74, 0
2, 89264, Note_on_c, 0, 86, 64
2, 89268, Note_on_c, 0, 74, 36
2, 89314, Note_on_c, 0, 86, 0
2, 89326, Note_on_c, 0, 74, 0
2, 89368, Note_on_c, 0, 86, 64
2, 89382, Note_on_c, 0, 74, 38
2, 89386, Note_on_c, 0, 62, 39
2, 89414, Note_on_c, 0, 62, 0
2, 89424, Note_on_c, 0, 74, 0
2, 89470, Note_on_c, 0, 74, 35
2, 89574, Note_on_c, 0, 62, 51
2, 89600, Note_on_c, 0, 62, 0
2, 89626, Note_on_c, 0, 86, 0
2, 89640, Note_on_c, 0, 74, 0
2, 89648, Note_on_c, 0, 83, 44
2, 89698, Note_on_c, 0, 83, 0
2, 89756, Note_on_c, 0, 86, 80
2, 89764, Note_on_c, 0, 74, 50
2, 89804, Note_on_c, 0, 86, 0
2, 89806, Note_on_c, 0, 74, 0
2, 89808, Note_on_c, 0, 57, 24
2, 89830, Note_on_c, 0, 57, 0
2, 89836, Note_on_c, 0, 86, 62
2, 89850, Note_on_c, 0, 74, 33
2, 89968, Note_on_c, 0, 62, 45
2, 89982, Note_on_c, 0, 74, 0
2, 89986, Note_on_c, 0, 86, 0
2, 89992, Note_on_c, 0, 62, 0
2, 90000, Note_on_c, 0, 57, 27
2, 90018, Note_on_c, 0, 83, 50
2, 90028, Note_on_c, 0, 57, 0
2, 90090, Note_on_c, 0, 83, 0
2, 90130, Note_on_c, 0, 86, 80
2, 90140, Note_on_c, 0, 74, 53
2, 90186, Note_on_c, 0, 86, 0
2, 90190, Note_on_c, 0, 74, 0
2, 90210, Note_on_c, 0, 86, 56
2, 90226, Note_on_c, 0, 74, 44
2, 90326, Note_on_c, 0, 62, 59
2, 90344, Note_on_c, 0, 74, 0
2, 90350, Note_on_c, 0, 62, 0
2, 90354, Note_on_c, 0, 57, 24
2, 90366, Note_on_c, 0, 86, 0
2, 90378, Note_on_c, 0, 57, 0
2, 90406, Note_on_c, 0, 83, 48
2, 90482, Note_on_c, 0, 83, 0
2, 90514, Note_on_c, 0, 86, 80
2, 90520, Note_on_c, 0, 74, 59
2, 90534, Note_on_c, 0, 65, 63
2, 90538, Note_on_c, 0, 63, 49
2, 90542, Note_on_c, 0, 57, 50
2, 90556, Note_on_c, 0, 65, 0
2, 90562, Note_on_c, 0, 86, 0
2, 90568, Note_on_c, 0, 57, 0
2, 90572, Note_on_c, 0, 74, 0
2, 90576, Note_on_c, 0, 63, 0
2, 90608, Note_on_c, 0, 86, 68
2, 90622, Note_on_c, 0, 74, 56
2, 90754, Note_on_c, 0, 86, 0
2, 90756, Note_on_c, 0, 74, 0
2, 90792, Note_on_c, 0, 83, 46
2, 90864, Note_on_c, 0, 83, 0
2, 90908, Note_on_c, 0, 86, 81
2, 90920, Note_on_c, 0, 74, 48
2, 90952, Note_on_c, 0, 74, 0
2, 90978, Note_on_c, 0, 86, 0
2, 90990, Note_on_c, 0, 63, 46
2, 91002, Note_on_c, 0, 53, 46
2, 91008, Note_on_c, 0, 58, 60
2, 91020, Note_on_c, 0, 85, 58
2, 91138, Note_on_c, 0, 85, 0
2, 91150, Note_on_c, 0, 53, 0
2, 91152, Note_on_c, 0, 58, 0
2, 91158, Note_on_c, 0, 63, 0
2, 91186, Note_on_c, 0, 82, 32
2, 91266, Note_on_c, 0, 82, 0
2, 91528, Note_on_c, 0, 64, 68
2, 91532, Note_on_c, 0, 59, 44
2, 91538, Note_on_c, 0, 54, 28
2, 91654, Note_on_c, 0, 64, 0
2, 91664, Note_on_c, 0, 54, 0
2, 91680, Note_on_c, 0, 59, 0
2, 91742, Note_on_c, 0, 83, 84
2, 91812, Note_on_c, 0, 83, 0
2, 91852, Note_on_c, 0, 86, 87
2, 91870, Note_on_c, 0, 65, 51
2, 91874, Note_on_c, 0, 60, 62
2, 91896, Note_on_c, 0, 65, 0
2, 91914, Note_on_c, 0, 60, 0
2, 91918, Note_on_c, 0, 86, 0
2, 91956, Note_on_c, 0, 85, 69
2, 92054, Note_on_c, 0, 85, 0
2, 92068, Note_on_c, 0, 82, 55
2, 92138, Note_on_c, 0, 62, 49
2, 92144, Note_on_c, 0, 51, 31
2, 92150, Note_on_c, 0, 57, 46
2, 92168, Note_on_c, 0, 82, 0
2, 92350, Note_on_c, 0, 84, 78
2, 92352, Note_on_c, 0, 62, 0
2, 92364, Note_on_c, 0, 57, 0
2, 92386, Note_on_c, 0, 51, 0
2, 92414, Note_on_c, 0, 84, 0
2, 92502, Note_on_c, 0, 57, 45
2, 92530, Note_on_c, 0, 57, 0
2, 92536, Note_on_c, 0, 83, 76
2, 92648, Note_on_c, 0, 83, 0
2, 92658, Note_on_c, 0, 80, 53
2, 92744, Note_on_c, 0, 79, 41
2, 92752, Note_on_c, 0, 80, 0
2, 92846, Note_on_c, 0, 79, 0
2, 92912, Note_on_c, 0, 82, 77
2, 93026, Note_on_c, 0, 82, 0
2, 93110, Note_on_c, 0, 81, 70
2, 93216, Note_on_c, 0, 81, 0
2, 93230, Note_on_c, 0, 78, 54
2, 93314, Note_on_c, 0, 78, 0
2, 93320, Note_on_c, 0, 77, 42
2, 93424, Note_on_c, 0, 77, 0
2, 93464, Note_on_c, 0, 58, 23
2, 93482, Note_on_c, 0, 80, 74
2, 93498, Note_on_c, 0, 58, 0
2, 93592, Note_on_c, 0, 80, 0
2, 93684, Note_on_c, 0, 79, 57
2, 93764, Note_on_c, 0, 79, 0
2, 93798, Note_on_c, 0, 78, 53
2, 93862, Note_on_c, 0, 78, 0
2, 93894, Note_on_c, 0, 77, 41
2, 93994, Note_on_c, 0, 77, 0
2, 94008, Note_on_c, 0, 75, 51
2, 94052, Note_on_c, 0, 75, 0
2, 94086, Note_on_c, 0, 77, 74
2, 94102, Note_on_c, 0, 65, 35
2, 94120, Note_on_c, 0, 57, 29
2, 94124, Note_on_c, 0, 63, 23
2, 94130, Note_on_c, 0, 65, 0
2, 94156, Note_on_c, 0, 63, 0
2, 94194, Note_on_c, 0, 57, 0
2, 94232, Note_on_c, 0, 77, 0
2, 94256, Note_on_c, 0, 74, 63
2, 94312, Note_on_c, 0, 74, 0
2, 94366, Note_on_c, 0, 75, 75
2, 94390, Note_on_c, 0, 59, 40
2, 94392, Note_on_c, 0, 63, 29
2, 94414, Note_on_c, 0, 63, 0
2, 94420, Note_on_c, 0, 59, 0
2, 94458, Note_on_c, 0, 75, 0
2, 94554, Note_on_c, 0, 71, 50
2, 94582, Note_on_c, 0, 59, 45
2, 94600, Note_on_c, 0, 71, 0
2, 94606, Note_on_c, 0, 59, 0
2, 94650, Note_on_c, 0, 74, 58
2, 94744, Note_on_c, 0, 73, 52
2, 94748, Note_on_c, 0, 74, 0
2, 94756, Note_on_c, 0, 59, 38
2, 94766, Note_on_c, 0, 56, 25
2, 94782, Note_on_c, 0, 59, 0
2, 94814, Note_on_c, 0, 56, 0
2, 94820, Note_on_c, 0, 73, 0
2, 94832, Note_on_c, 0, 72, 58
2, 94904, Note_on_c, 0, 72, 0
2, 94942, Note_on_c, 0, 67, 72
2, 94968, Note_on_c, 0, 57, 68
2, 94970, Note_on_c, 0, 62, 67
2, 94970, Note_on_c, 0, 51, 60
2, 95134, Note_on_c, 0, 67, 0
2, 95156, Note_on_c, 0, 62, 0
2, 95182, Note_on_c, 0, 51, 0
2, 95186, Note_on_c, 0, 57, 0
2, 95214, Note_on_c, 0, 51, 64
2, 95214, Note_on_c, 0, 65, 80
2, 95216, Note_on_c, 0, 62, 78
2, 95216, Note_on_c, 0, 66, 59
2, 95218, Note_on_c, 0, 57, 65
2, 95232, Note_on_c, 0, 64, 36
2, 95254, Note_on_c, 0, 64, 0
2, 95432, Note_on_c, 0, 66, 0
2, 95454, Note_on_c, 0, 65, 0
2, 95458, Note_on_c, 0, 62, 0
2, 95474, Note_on_c, 0, 51, 0
2, 95484, Note_on_c, 0, 57, 0
2, 95512, Note_on_c, 0, 63, 63
2, 95518, Note_on_c, 0, 60, 61
2, 95526, Note_on_c, 0, 51, 34
2, 95530, Note_on_c, 0, 57, 51
2, 95540, Note_on_c, 0, 60, 0
2, 95558, Note_on_c, 0, 57, 0
2, 95564, Note_on_c, 0, 63, 0
2, 95604, Note_on_c, 0, 51, 0
2, 95726, Note_on_c, 0, 51, 47
2, 95728, Note_on_c, 0, 57, 65
2, 95766, Note_on_c, 0, 51, 0
2, 95768, Note_on_c, 0, 57, 0
2, 95814, Note_on_c, 0, 65, 87
2, 95816, Note_on_c, 0, 51, 71
2, 95816, Note_on_c, 0, 57, 68
2, 95818, Note_on_c, 0, 62, 85
2, 96066, Note_on_c, 0, 57, 0
2, 96068, Note_on_c, 0, 62, 0
2, 96076, Note_on_c, 0, 51, 0
2, 96106, Note_on_c, 0, 65, 0
2, 96116, Note_on_c, 0, 51, 43
2, 96118, Note_on_c, 0, 63, 53
2, 96122, Note_on_c, 0, 60, 68
2, 96122, Note_on_c, 0, 57, 47
2, 96144, Note_on_c, 0, 60, 0
2, 96164, Note_on_c, 0, 57, 0
2, 96166, Note_on_c, 0, 63, 0
2, 96198, Note_on_c, 0, 51, 0
2, 96352, Note_on_c, 0, 57, 60
2, 96374, Note_on_c, 0, 57, 0
2, 96394, Note_on_c, 0, 57, 41
2, 96402, Note_on_c, 0, 51, 69
2, 96406, Note_on_c, 0, 65, 90
2, 96406, Note_on_c, 0, 62, 89
2, 96622, Note_on_c, 0, 57, 0
2, 96646, Note_on_c, 0, 62, 0
2, 96650, Note_on_c, 0, 51, 0
2, 96696, Note_on_c, 0, 65, 0
2, 96696, Note_on_c, 0, 63, 59
2, 96698, Note_on_c, 0, 60, 60
2, 96722, Note_on_c, 0, 60, 0
2, 96742, Note_on_c, 0, 63, 0
2, 96870, Note_on_c, 0, 51, 40
2, 96938, Note_on_c, 0, 51, 0
2, 96964, Note_on_c, 0, 58, 80
2, 96964, Note_on_c, 0, 65, 78
2, 96966, Note_on_c, 0, 62, 76
2, 96980, Note_on_c, 0, 57, 60
2, 96980, Note_on_c, 0, 55, 70
2, 97124, Note_on_c, 0, 55, 0
2, 97132, Note_on_c, 0, 57, 0
2, 97190, Note_on_c, 0, 65, 0
2, 97200, Note_on_c, 0, 58, 0
2, 97234, Note_on_c, 0, 58, 51
2, 97240, Note_on_c, 0, 63, 68
2, 97240, Note_on_c, 0, 55, 60
2, 97264, Note_on_c, 0, 55, 0
2, 97270, Note_on_c, 0, 62, 0
2, 97280, Note_on_c, 0, 58, 0
2, 97332, Note_on_c, 0, 63, 0
2, 97446, Note_on_c, 0, 48, 49
2, 97530, Note_on_c, 0, 65, 73
2, 97532, Note_on_c, 0, 48, 0
2, 97532, Note_on_c, 0, 62, 71
2, 97532, Note_on_c, 0, 58, 65
2, 97538, Note_on_c, 0, 57, 69
2, 97546, Note_on_c, 0, 51, 60
2, 97740, Note_on_c, 0, 65, 0
2, 97750, Note_on_c, 0, 57, 0
2, 97762, Note_on_c, 0, 51, 0
2, 97762, Note_on_c, 0, 62, 0
2, 97776, Note_on_c, 0, 58, 0
2, 97804, Note_on_c, 0, 58, 57
2, 97806, Note_on_c, 0, 63, 68
2, 97812, Note_on_c, 0, 57, 57
2, 97834, Note_on_c, 0, 57, 0
2, 97860, Note_on_c, 0, 58, 0
2, 97898, Note_on_c, 0, 63, 0
2, 98016, Note_on_c, 0, 41, 47
2, 98040, Note_on_c, 0, 41, 0
2, 98040, Note_on_c, 0, 48, 39
2, 98066, Note_on_c, 0, 48, 0
2, 98090, Note_on_c, 0, 65, 72
2, 98092, Note_on_c, 0, 58, 77
2, 98092, Note_on_c, 0, 62, 78
2, 98096, Note_on_c, 0, 57, 83
2, 98312, Note_on_c, 0, 57, 0
2, 98314, Note_on_c, 0, 65, 0
2, 98344, Note_on_c, 0, 58, 0
2, 98346, Note_on_c, 0, 62, 0
2, 98380, Note_on_c, 0, 63, 62
2, 98384, Note_on_c, 0, 58, 69
2, 98388, Note_on_c, 0, 55, 66
2, 98410, Note_on_c, 0, 55, 0
2, 98414, Note_on_c, 0, 48, 54
2, 98438, Note_on_c, 0, 58, 0
2, 98444, Note_on_c, 0, 48, 0
2, 98470, Note_on_c, 0, 63, 0
2, 98610, Note_on_c, 0, 36, 50
2, 98612, Note_on_c, 0, 38, 60
2, 98632, Note_on_c, 0, 38, 0
2, 98632, Note_on_c, 0, 36, 0
2, 98672, Note_on_c, 0, 86, 88
2, 98672, Note_on_c, 0, 80, 76
2, 98678, Note_on_c, 0, 74, 77
2, 98844, Note_on_c, 0, 80, 0
2, 98894, Note_on_c, 0, 86, 0
2, 98906, Note_on_c, 0, 74, 0
2, 98968, Note_on_c, 0, 72, 55
2, 98970, Note_on_c, 0, 84, 60
2, 98978, Note_on_c, 0, 79, 51
2, 98978, Note_on_c, 0, 62, 62
2, 98982, Note_on_c, 0, 51, 40
2, 98990, Note_on_c, 0, 57, 39
2, 99008, Note_on_c, 0, 62, 0
2, 99014, Note_on_c, 0, 55, 24
2, 99016, Note_on_c, 0, 57, 0
2, 99018, Note_on_c, 0, 51, 0
2, 99026, Note_on_c, 0, 72, 0
2, 99038, Note_on_c, 0, 55, 0
2, 99060, Note_on_c, 0, 79, 0
2, 99060, Note_on_c, 0, 84, 0
2, 99212, Note_on_c, 0, 57, 44
2, 99254, Note_on_c, 0, 51, 55
2, 99256, Note_on_c, 0, 91, 74
2, 99258, Note_on_c, 0, 85, 72
2, 99262, Note_on_c, 0, 79, 62
2, 99268, Note_on_c, 0, 62, 64
2, 99278, Note_on_c, 0, 55, 47
2, 99376, Note_on_c, 0, 85, 0
2, 99380, Note_on_c, 0, 86, 58
2, 99452, Control_c, 0, 64, 127
2, 99458, Control_c, 0, 64, 0
2, 99460, Note_on_c, 0, 86, 0
2, 99464, Note_on_c, 0, 79, 0
2, 99468, Note_on_c, 0, 91, 0
2, 99482, Note_on_c, 0, 62, 0
2, 99494, Note_on_c, 0, 55, 0
2, 99496, Note_on_c, 0, 51, 0
2, 99496, Note_on_c, 0, 57, 0
2, 99510, Control_c, 0, 64, 127
2, 99550, Note_on_c, 0, 89, 58
2, 99554, Note_on_c, 0, 77, 59
2, 99558, Note_on_c, 0, 62, 68
2, 99558, Note_on_c, 0, 51, 44
2, 99568, Note_on_c, 0, 84, 56
2, 99568, Note_on_c, 0, 57, 48
2, 99574, Control_c, 0, 64, 0
2, 99580, Note_on_c, 0, 51, 0
2, 99594, Note_on_c, 0, 57, 0
2, 99598, Note_on_c, 0, 77, 0
2, 99600, Note_on_c, 0, 84, 0
2, 99614, Note_on_c, 0, 62, 0
2, 99630, Note_on_c, 0, 89, 0
2, 99820, Note_on_c, 0, 94, 71
2, 99820, Note_on_c, 0, 98, 75
2, 99822, Note_on_c, 0, 86, 83
2, 99824, Note_on_c, 0, 65, 68
2, 99828, Note_on_c, 0, 63, 50
2, 99830, Note_on_c, 0, 57, 64
2, 99888, Control_c, 0, 64, 127
2, 99926, Note_on_c, 0, 95, 40
2, 99928, Note_on_c, 0, 94, 0
2, 99976, Note_on_c, 0, 95, 0
2, 99978, Note_on_c, 0, 98, 0
2, 100004, Note_on_c, 0, 86, 0
2, 100008, Note_on_c, 0, 57, 0
2, 100008, Note_on_c, 0, 65, 0
2, 100052, Note_on_c, 0, 63, 0
2, 100102, Note_on_c, 0, 95, 66
2, 100102, Note_on_c, 0, 90, 67
2, 100106, Note_on_c, 0, 83, 60
2, 100112, Control_c, 0, 64, 0
2, 100114, Note_on_c, 0, 63, 45
2, 100116, Note_on_c, 0, 65, 57
2, 100120, Note_on_c, 0, 57, 51
2, 100140, Note_on_c, 0, 65, 0
2, 100148, Note_on_c, 0, 57, 0
2, 100164, Note_on_c, 0, 63, 0
2, 100176, Note_on_c, 0, 83, 0
2, 100176, Note_on_c, 0, 90, 0
2, 100184, Note_on_c, 0, 91, 42
2, 100206, Note_on_c, 0, 95, 0
2, 100216, Note_on_c, 0, 91, 0
2, 100394, Note_on_c, 0, 63, 43
2, 100396, Note_on_c, 0, 65, 56
2, 100402, Note_on_c, 0, 57, 47
2, 100420, Note_on_c, 0, 65, 0
2, 100430, Note_on_c, 0, 57, 0
2, 100448, Note_on_c, 0, 63, 0
2, 100602, Note_on_c, 0, 98, 79
2, 100660, Note_on_c, 0, 98, 0
2, 100706, Note_on_c, 0, 101, 78
2, 100740, Note_on_c, 0, 63, 28
2, 100744, Note_on_c, 0, 65, 27
2, 100766, Note_on_c, 0, 65, 0
2, 100772, Note_on_c, 0, 63, 0
2, 100786, Note_on_c, 0, 95, 67
2, 100798, Note_on_c, 0, 101, 0
2, 100838, Note_on_c, 0, 95, 0
2, 100902, Note_on_c, 0, 63, 44
2, 100942, Note_on_c, 0, 63, 0
2, 100972, Note_on_c, 0, 95, 71
2, 101050, Note_on_c, 0, 95, 0
2, 101078, Note_on_c, 0, 98, 62
2, 101162, Note_on_c, 0, 98, 0
2, 101172, Note_on_c, 0, 91, 44
2, 101256, Note_on_c, 0, 91, 0
2, 101314, Note_on_c, 0, 57, 33
2, 101324, Note_on_c, 0, 55, 26
2, 101354, Note_on_c, 0, 57, 0
2, 101362, Note_on_c, 0, 91, 51
2, 101366, Note_on_c, 0, 55, 0
2, 101440, Note_on_c, 0, 91, 0
2, 101476, Note_on_c, 0, 96, 68
2, 101544, Note_on_c, 0, 96, 0
2, 101562, Note_on_c, 0, 86, 48
2, 101658, Note_on_c, 0, 86, 0
2, 101666, Note_on_c, 0, 62, 47
2, 101696, Note_on_c, 0, 62, 0
2, 101702, Note_on_c, 0, 57, 25
2, 101734, Note_on_c, 0, 57, 0
2, 101744, Note_on_c, 0, 86, 59
2, 101822, Note_on_c, 0, 86, 0
2, 101864, Note_on_c, 0, 89, 60
2, 101928, Note_on_c, 0, 89, 0
2, 101952, Note_on_c, 0, 87, 56
2, 102030, Note_on_c, 0, 87, 0
2, 102076, Note_on_c, 0, 62, 42
2, 102106, Note_on_c, 0, 62, 0
2, 102132, Note_on_c, 0, 79, 44
2, 102164, Note_on_c, 0, 79, 0
2, 102414, Note_on_c, 0, 51, 56
2, 102424, Note_on_c, 0, 62, 38
2, 102432, Note_on_c, 0, 57, 41
2, 102450, Note_on_c, 0, 55, 25
2, 102470, Note_on_c, 0, 57, 0
2, 102474, Note_on_c, 0, 62, 0
2, 102480, Note_on_c, 0, 55, 0
2, 102486, Note_on_c, 0, 51, 0
2, 102704, Note_on_c, 0, 57, 59
2, 102704, Note_on_c, 0, 51, 55
2, 102704, Note_on_c, 0, 62, 55
2, 102728, Note_on_c, 0, 51, 0
2, 102734, Note_on_c, 0, 62, 0
2, 102752, Note_on_c, 0, 57, 0
2, 103000, Note_on_c, 0, 58, 53
2, 103010, Note_on_c, 0, 62, 48
2, 103016, Note_on_c, 0, 55, 35
2, 103038, Note_on_c, 0, 62, 0
2, 103044, Note_on_c, 0, 58, 0
2, 103048, Note_on_c, 0, 55, 0
2, 103272, Note_on_c, 0, 59, 69
2, 103280, Note_on_c, 0, 62, 71
2, 103284, Note_on_c, 0, 51, 58
2, 103288, Note_on_c, 0, 55, 60
2, 103526, Note_on_c, 0, 59, 0
2, 103570, Note_on_c, 0, 59, 25
2, 103606, Note_on_c, 0, 62, 0
2, 103654, Note_on_c, 0, 95, 80
2, 103712, Note_on_c, 0, 95, 0
2, 103766, Note_on_c, 0, 86, 70
2, 103766, Note_on_c, 0, 98, 75
2, 103776, Note_on_c, 0, 88, 58
2, 103782, Note_on_c, 0, 51, 0
2, 103798, Note_on_c, 0, 88, 0
2, 103810, Note_on_c, 0, 86, 0
2, 103812, Note_on_c, 0, 98, 0
2, 103814, Note_on_c, 0, 55, 0
2, 103852, Note_on_c, 0, 59, 0
2, 103860, Note_on_c, 0, 98, 63
2, 103866, Note_on_c, 0, 86, 67
2, 103910, Note_on_c, 0, 86, 0
2, 103918, Note_on_c, 0, 98, 0
2, 103938, Note_on_c, 0, 59, 29
2, 103962, Note_on_c, 0, 55, 36
2, 103964, Note_on_c, 0, 98, 58
2, 103972, Note_on_c, 0, 86, 64
2, 103996, Note_on_c, 0, 55, 0
2, 104006, Note_on_c, 0, 59, 0
2, 104016, Note_on_c, 0, 86, 0
2, 104022, Note_on_c, 0, 98, 0
2, 104056, Note_on_c, 0, 98, 60
2, 104064, Note_on_c, 0, 86, 61
2, 104114, Note_on_c, 0, 86, 0
2, 104122, Note_on_c, 0, 98, 0
2, 104140, Note_on_c, 0, 62, 35
2, 104142, Note_on_c, 0, 59, 33
2, 104158, Note_on_c, 0, 55, 43
2, 104168, Note_on_c, 0, 62, 0
2, 104178, Note_on_c, 0, 98, 66
2, 104184, Note_on_c, 0, 86, 75
2, 104198, Note_on_c, 0, 55, 0
2, 104202, Note_on_c, 0, 59, 0
2, 104226, Note_on_c, 0, 86, 0
2, 104230, Note_on_c, 0, 98, 0
2, 104278, Note_on_c, 0, 98, 62
2, 104282, Note_on_c, 0, 86, 58
2, 104322, Note_on_c, 0, 98, 0
2, 104324, Note_on_c, 0, 86, 0
2, 104378, Note_on_c, 0, 98, 63
2, 104382, Note_on_c, 0, 86, 69
2, 104396, Note_on_c, 0, 51, 38
2, 104426, Note_on_c, 0, 55, 35
2, 104428, Note_on_c, 0, 86, 0
2, 104430, Note_on_c, 0, 57, 36
2, 104442, Note_on_c, 0, 98, 0
2, 104544, Note_on_c, 0, 97, 60
2, 104546, Note_on_c, 0, 51, 0
2, 104548, Note_on_c, 0, 85, 61
2, 104588, Note_on_c, 0, 57, 0
2, 104608, Note_on_c, 0, 55, 0
2, 104612, Note_on_c, 0, 98, 51
2, 104624, Note_on_c, 0, 97, 0
2, 104630, Note_on_c, 0, 85, 0
2, 104640, Note_on_c, 0, 86, 71
2, 104674, Note_on_c, 0, 86, 0
2, 104674, Note_on_c, 0, 98, 0
2, 104700, Note_on_c, 0, 57, 34
2, 104728, Note_on_c, 0, 57, 0
2, 104732, Note_on_c, 0, 98, 32
2, 104742, Note_on_c, 0, 86, 70
2, 104790, Note_on_c, 0, 86, 0
2, 104790, Note_on_c, 0, 98, 0
2, 104848, Note_on_c, 0, 98, 60
2, 104850, Note_on_c, 0, 86, 75
2, 104864, Note_on_c, 0, 96, 48
2, 104890, Note_on_c, 0, 62, 38
2, 104892, Note_on_c, 0, 96, 0
2, 104894, Note_on_c, 0, 98, 0
2, 104896, Note_on_c, 0, 86, 0
2, 104896, Note_on_c, 0, 57, 49
2, 104896, Note_on_c, 0, 51, 30
2, 104918, Note_on_c, 0, 62, 0
2, 104918, Note_on_c, 0, 51, 0
2, 104926, Note_on_c, 0, 55, 19
2, 104936, Note_on_c, 0, 57, 0
2, 104950, Note_on_c, 0, 55, 0
2, 104978, Note_on_c, 0, 97, 47
2, 104978, Note_on_c, 0, 85, 65
2, 105008, Note_on_c, 0, 98, 25
2, 105038, Note_on_c, 0, 97, 0
2, 105046, Note_on_c, 0, 85, 0
2, 105048, Note_on_c, 0, 86, 80
2, 105092, Note_on_c, 0, 57, 34
2, 105094, Note_on_c, 0, 98, 0
2, 105112, Note_on_c, 0, 86, 0
2, 105122, Note_on_c, 0, 57, 0
2, 105144, Note_on_c, 0, 98, 54
2, 105154, Note_on_c, 0, 86, 61
2, 105208, Note_on_c, 0, 86, 0
2, 105212, Note_on_c, 0, 98, 0
2, 105266, Note_on_c, 0, 98, 59
2, 105270, Note_on_c, 0, 86, 68
2, 105322, Note_on_c, 0, 86, 0
2, 105332, Note_on_c, 0, 98, 0
2, 105402, Note_on_c, 0, 98, 64
2, 105412, Note_on_c, 0, 86, 74
2, 105470, Note_on_c, 0, 86, 0
2, 105486, Note_on_c, 0, 98, 0
2, 105524, Note_on_c, 0, 98, 70
2, 105530, Note_on_c, 0, 51, 40
2, 105530, Note_on_c, 0, 86, 60
2, 105530, Note_on_c, 0, 62, 47
2, 105552, Note_on_c, 0, 57, 42
2, 105560, Note_on_c, 0, 55, 37
2, 105592, Note_on_c, 0, 86, 0
2, 105612, Note_on_c, 0, 98, 0
2, 105622, Note_on_c, 0, 62, 0
2, 105630, Note_on_c, 0, 57, 0
2, 105640, Note_on_c, 0, 55, 0
2, 105658, Note_on_c, 0, 98, 62
2, 105660, Note_on_c, 0, 62, 44
2, 105668, Note_on_c, 0, 86, 72
2, 105674, Note_on_c, 0, 57, 32
2, 105686, Note_on_c, 0, 55, 14
2, 105788, Note_on_c, 0, 86, 0
2, 105810, Note_on_c, 0, 97, 76
2, 105832, Note_on_c, 0, 98, 0
2, 105872, Note_on_c, 0, 55, 0
2, 105874, Note_on_c, 0, 57, 0
2, 105886, Note_on_c, 0, 62, 0
2, 105910, Note_on_c, 0, 51, 0
2, 105910, Note_on_c, 0, 97, 0
2, 106174, Note_on_c, 0, 63, 74
2, 106176, Note_on_c, 0, 53, 70
2, 106184, Note_on_c, 0, 58, 60
2, 106612, Note_on_c, 0, 53, 0
2, 106672, Note_on_c, 0, 63, 0
2, 106684, Note_on_c, 0, 58, 0
2, 106718, Note_on_c, 0, 54, 51
2, 106720, Note_on_c, 0, 64, 59
2, 106720, Note_on_c, 0, 59, 59
2, 106840, Note_on_c, 0, 59, 0
2, 106870, Note_on_c, 0, 54, 0
2, 106876, Note_on_c, 0, 64, 0
2, 107022, Note_on_c, 0, 59, 39
2, 107062, Note_on_c, 0, 59, 0
2, 107108, Note_on_c, 0, 97, 71
2, 107168, Note_on_c, 0, 97, 0
2, 107214, Note_on_c, 0, 98, 79
2, 107280, Note_on_c, 0, 98, 0
2, 107302, Note_on_c, 0, 95, 73
2, 107372, Note_on_c, 0, 95, 0
2, 107418, Note_on_c, 0, 96, 77
2, 107430, Note_on_c, 0, 63, 53
2, 107440, Note_on_c, 0, 53, 32
2, 107458, Note_on_c, 0, 58, 23
2, 107478, Note_on_c, 0, 53, 0
2, 107480, Note_on_c, 0, 63, 0
2, 107520, Note_on_c, 0, 58, 0
2, 107530, Note_on_c, 0, 96, 0
2, 107892, Note_on_c, 0, 62, 24
2, 107914, Note_on_c, 0, 62, 0
2, 108230, Note_on_c, 0, 63, 54
2, 108268, Note_on_c, 0, 97, 85
2, 108270, Note_on_c, 0, 58, 19
2, 108288, Note_on_c, 0, 63, 0
2, 108326, Note_on_c, 0, 97, 0
2, 108370, Note_on_c, 0, 98, 70
2, 108402, Note_on_c, 0, 58, 0
2, 108448, Note_on_c, 0, 98, 0
2, 108466, Note_on_c, 0, 95, 35
2, 108516, Note_on_c, 0, 95, 0
2, 108560, Note_on_c, 0, 96, 77
2, 108574, Note_on_c, 0, 63, 45
2, 108626, Note_on_c, 0, 63, 0
2, 108650, Note_on_c, 0, 96, 0
2, 108658, Note_on_c, 0, 95, 61
2, 108712, Note_on_c, 0, 95, 0
2, 108842, Note_on_c, 0, 91, 58
2, 108846, Note_on_c, 0, 89, 45
2, 108870, Note_on_c, 0, 89, 0
2, 108872, Note_on_c, 0, 91, 0
2, 109140, Note_on_c, 0, 63, 74
2, 109148, Note_on_c, 0, 53, 58
2, 109150, Note_on_c, 0, 58, 56
2, 109176, Note_on_c, 0, 53, 0
2, 109212, Note_on_c, 0, 63, 0
2, 109262, Note_on_c, 0, 58, 0
2, 109412, Note_on_c, 0, 54, 64
2, 109412, Note_on_c, 0, 59, 73
2, 109418, Note_on_c, 0, 64, 63
2, 109642, Note_on_c, 0, 64, 0
2, 109652, Note_on_c, 0, 59, 0
2, 109664, Note_on_c, 0, 54, 0
2, 109724, Note_on_c, 0, 94, 88
2, 109728, Note_on_c, 0, 82, 85
2, 109738, Note_on_c, 0, 60, 79
2, 109738, Note_on_c, 0, 55, 80
2, 109742, Note_on_c, 0, 65, 72
2, 109884, Note_on_c, 0, 94, 0
2, 109912, Note_on_c, 0, 82, 0
2, 109932, Note_on_c, 0, 65, 0
2, 109940, Note_on_c, 0, 60, 0
2, 109990, Note_on_c, 0, 92, 82
2, 109992, Note_on_c, 0, 80, 81
2, 110000, Note_on_c, 0, 65, 66
2, 110002, Note_on_c, 0, 60, 60
2, 110010, Note_on_c, 0, 86, 57
2, 110014, Note_on_c, 0, 93, 60
2, 110038, Note_on_c, 0, 86, 0
2, 110042, Note_on_c, 0, 91, 19
2, 110076, Note_on_c, 0, 86, 17
2, 110086, Note_on_c, 0, 81, 51
2, 110138, Note_on_c, 0, 91, 0
2, 110142, Note_on_c, 0, 80, 0
2, 110150, Note_on_c, 0, 92, 0
2, 110170, Control_c, 0, 64, 127
2, 110172, Note_on_c, 0, 93, 0
2, 110176, Control_c, 0, 64, 0
2, 110194, Note_on_c, 0, 86, 0
2, 110202, Note_on_c, 0, 81, 0
2, 110208, Note_on_c, 0, 65, 0
2, 110224, Note_on_c, 0, 55, 0
2, 110244, Note_on_c, 0, 60, 0
2, 110274, Note_on_c, 0, 79, 71
2, 110276, Note_on_c, 0, 87, 72
2, 110278, Note_on_c, 0, 91, 71
2, 110280, Note_on_c, 0, 55, 63
2, 110282, Note_on_c, 0, 85, 59
2, 110292, Note_on_c, 0, 65, 70
2, 110292, Note_on_c, 0, 60, 67
2, 110330, Control_c, 0, 64, 127
2, 110350, Note_on_c, 0, 85, 0
2, 110414, Note_on_c, 0, 60, 0
2, 110422, Note_on_c, 0, 55, 0
2, 110422, Note_on_c, 0, 88, 46
2, 110442, Note_on_c, 0, 87, 0
2, 110452, Note_on_c, 0, 88, 0
2, 110482, Note_on_c, 0, 91, 0
2, 110484, Note_on_c, 0, 65, 0
2, 110486, Note_on_c, 0, 79, 0
2, 110548, Control_c, 0, 64, 0
2, 110566, Note_on_c, 0, 85, 74
2, 110568, Note_on_c, 0, 89, 67
2, 110568, Note_on_c, 0, 77, 72
2, 110570, Note_on_c, 0, 67, 66
2, 110574, Note_on_c, 0, 60, 55
2, 110576, Note_on_c, 0, 63, 52
2, 110582, Note_on_c, 0, 58, 58
2, 110588, Note_on_c, 0, 88, 30
2, 110610, Note_on_c, 0, 88, 0
2, 110664, Control_c, 0, 64, 127
2, 110680, Note_on_c, 0, 85, 0
2, 110682, Note_on_c, 0, 86, 71
2, 110742, Note_on_c, 0, 86, 0
2, 110752, Note_on_c, 0, 89, 0
2, 110766, Note_on_c, 0, 77, 0
2, 110796, Note_on_c, 0, 58, 0
2, 110796, Note_on_c, 0, 67, 0
2, 110808, Note_on_c, 0, 60, 0
2, 110820, Note_on_c, 0, 63, 0
2, 110854, Note_on_c, 0, 74, 76
2, 110856, Control_c, 0, 64, 0
2, 110856, Note_on_c, 0, 86, 75
2, 110860, Note_on_c, 0, 82, 62
2, 110874, Note_on_c, 0, 63, 47
2, 110876, Note_on_c, 0, 58, 52
2, 110876, Note_on_c, 0, 67, 58
2, 110878, Note_on_c, 0, 60, 54
2, 110952, Control_c, 0, 64, 127
2, 111006, Note_on_c, 0, 83, 34
2, 111028, Note_on_c, 0, 82, 0
2, 111056, Note_on_c, 0, 83, 0
2, 111060, Note_on_c, 0, 86, 0
2, 111080, Note_on_c, 0, 74, 0
2, 111080, Note_on_c, 0, 67, 0
2, 111090, Note_on_c, 0, 58, 0
2, 111092, Note_on_c, 0, 60, 0
2, 111106, Note_on_c, 0, 63, 0
2, 111126, Control_c, 0, 64, 0
2, 111148, Note_on_c, 0, 58, 60
2, 111154, Note_on_c, 0, 84, 59
2, 111156, Note_on_c, 0, 72, 58
2, 111156, Note_on_c, 0, 67, 56
2, 111156, Note_on_c, 0, 80, 50
2, 111158, Note_on_c, 0, 63, 53
2, 111162, Note_on_c, 0, 60, 51
2, 111176, Note_on_c, 0, 78, 32
2, 111212, Note_on_c, 0, 78, 0
2, 111292, Control_c, 0, 64, 127
2, 111298, Note_on_c, 0, 80, 0
2, 111302, Note_on_c, 0, 81, 24
2, 111892, Note_on_c, 0, 67, 0
2, 111910, Note_on_c, 0, 63, 0
2, 111918, Note_on_c, 0, 60, 0
2, 111934, Note_on_c, 0, 58, 0
2, 111994, Control_c, 0, 64, 0
2, 112166, Note_on_c, 0, 72, 0
2, 112184, Note_on_c, 0, 81, 0
2, 112188, Note_on_c, 0, 84, 0
2, 112880, Note_on_c, 0, 80, 95
2, 112882, Note_on_c, 0, 86, 96
2, 113136, Note_on_c, 0, 60, 15
2, 113174, Note_on_c, 0, 86, 0
2, 113272, Note_on_c, 0, 80, 0
2, 113282, Note_on_c, 0, 75, 64
2, 113338, Note_on_c, 0, 60, 0
2, 113346, Note_on_c, 0, 75, 0
2, 113468, Note_on_c, 0, 77, 55
2, 113520, Note_on_c, 0, 77, 0
2, 113654, Note_on_c, 0, 79, 73
2, 113820, Control_c, 0, 64, 127
2, 113978, Control_c, 0, 64, 0
2, 114036, Note_on_c, 0, 65, 55
2, 114060, Note_on_c, 0, 65, 0
2, 114060, Note_on_c, 0, 60, 32
2, 114060, Note_on_c, 0, 56, 27
2, 114082, Note_on_c, 0, 60, 0
2, 114106, Note_on_c, 0, 56, 0
2, 114354, Note_on_c, 0, 56, 42
2, 114358, Note_on_c, 0, 60, 44
2, 114358, Note_on_c, 0, 53, 24
2, 114386, Note_on_c, 0, 60, 0
2, 114416, Note_on_c, 0, 53, 0
2, 114418, Note_on_c, 0, 79, 0
2, 114426, Note_on_c, 0, 56, 0
2, 114626, Note_on_c, 0, 56, 35
2, 114626, Note_on_c, 0, 53, 40
2, 114636, Note_on_c, 0, 60, 41
2, 114802, Note_on_c, 0, 60, 0
2, 114822, Note_on_c, 0, 67, 64
2, 114826, Note_on_c, 0, 53, 0
2, 114836, Note_on_c, 0, 56, 0
2, 114894, Note_on_c, 0, 67, 0
2, 114916, Note_on_c, 0, 68, 44
2, 114950, Note_on_c, 0, 68, 0
2, 115010, Note_on_c, 0, 72, 58
2, 115066, Note_on_c, 0, 72, 0
2, 115110, Note_on_c, 0, 76, 73
2, 115156, Note_on_c, 0, 76, 0
2, 115202, Note_on_c, 0, 79, 83
2, 115268, Note_on_c, 0, 79, 0
2, 115324, Note_on_c, 0, 77, 71
2, 115392, Note_on_c, 0, 77, 0
2, 115480, Note_on_c, 0, 74, 74
2, 115544, Note_on_c, 0, 74, 0
2, 115612, Note_on_c, 0, 71, 54
2, 115704, Note_on_c, 0, 71, 0
2, 115760, Note_on_c, 0, 68, 39
2, 115840, Note_on_c, 0, 68, 0
2, 115880, Note_on_c, 0, 67, 48
2, 115910, Note_on_c, 0, 63, 32
2, 115912, Note_on_c, 0, 59, 32
2, 115926, Note_on_c, 0, 53, 22
2, 115980, Note_on_c, 0, 67, 0
2, 115996, Note_on_c, 0, 59, 0
2, 116028, Note_on_c, 0, 63, 0
2, 116064, Note_on_c, 0, 65, 54
2, 116122, Note_on_c, 0, 65, 0
2, 116154, Note_on_c, 0, 53, 0
2, 116158, Note_on_c, 0, 64, 26
2, 116268, Note_on_c, 0, 64, 0
2, 116288, Note_on_c, 0, 53, 14
2, 116336, Note_on_c, 0, 63, 57
2, 116340, Note_on_c, 0, 53, 0
2, 116476, Note_on_c, 0, 63, 0
2, 116516, Note_on_c, 0, 62, 46
2, 116688, Note_on_c, 0, 62, 0
2, 116704, Note_on_c, 0, 43, 31
2, 116722, Note_on_c, 0, 53, 24
2, 116728, Note_on_c, 0, 59, 52
2, 116752, Note_on_c, 0, 43, 0
2, 116844, Note_on_c, 0, 53, 0
2, 116886, Note_on_c, 0, 59, 0
2, 116890, Note_on_c, 0, 50, 20
2, 116916, Note_on_c, 0, 50, 0
2, 116918, Note_on_c, 0, 56, 58
2, 117064, Note_on_c, 0, 50, 32
2, 117080, Note_on_c, 0, 56, 0
2, 117096, Note_on_c, 0, 50, 0
2, 117108, Note_on_c, 0, 53, 38
2, 117244, Note_on_c, 0, 53, 0
2, 117294, Note_on_c, 0, 55, 78
2, 117590, Note_on_c, 0, 55, 0
2, 117624, Note_on_c, 0, 59, 70
2, 117670, Note_on_c, 0, 59, 0
2, 117712, Note_on_c, 0, 62, 74
2, 117814, Note_on_c, 0, 62, 0
2, 117814, Note_on_c, 0, 59, 64
2, 117846, Note_on_c, 0, 50, 28
2, 117856, Note_on_c, 0, 59, 0
2, 117878, Note_on_c, 0, 50, 0
2, 117904, Note_on_c, 0, 60, 37
2, 117976, Note_on_c, 0, 60, 0
2, 118000, Note_on_c, 0, 61, 64
2, 118040, Note_on_c, 0, 61, 0
2, 118094, Note_on_c, 0, 65, 46
2, 118170, Note_on_c, 0, 65, 0
2, 118198, Note_on_c, 0, 71, 67
2, 118260, Note_on_c, 0, 71, 0
2, 118282, Note_on_c, 0, 74, 92
2, 118390, Note_on_c, 0, 71, 37
2, 118402, Note_on_c, 0, 74, 0
2, 118430, Note_on_c, 0, 56, 34
2, 118434, Note_on_c, 0, 62, 39
2, 118434, Note_on_c, 0, 67, 28
2, 118452, Note_on_c, 0, 72, 62
2, 118458, Note_on_c, 0, 71, 0
2, 118562, Note_on_c, 0, 72, 0
2, 118566, Note_on_c, 0, 74, 60
2, 118570, Control_c, 0, 64, 127
2, 118620, Note_on_c, 0, 67, 0
2, 118624, Note_on_c, 0, 74, 0
2, 118648, Note_on_c, 0, 75, 53
2, 118670, Note_on_c, 0, 62, 0
2, 118686, Note_on_c, 0, 75, 0
2, 118702, Note_on_c, 0, 56, 0
2, 118748, Note_on_c, 0, 79, 55
2, 118760, Note_on_c, 0, 62, 24
2, 118800, Note_on_c, 0, 62, 0
2, 118824, Note_on_c, 0, 79, 0
2, 118860, Note_on_c, 0, 82, 21
2, 118958, Note_on_c, 0, 83, 57
2, 118960, Note_on_c, 0, 82, 0
2, 118980, Note_on_c, 0, 83, 0
2, 119018, Control_c, 0, 64, 0
2, 119024, Note_on_c, 0, 62, 36
2, 119026, Note_on_c, 0, 67, 53
2, 119028, Note_on_c, 0, 86, 85
2, 119030, Note_on_c, 0, 74, 75
2, 119034, Note_on_c, 0, 56, 37
2, 119102, Note_on_c, 0, 86, 0
2, 119106, Note_on_c, 0, 74, 0
2, 119122, Note_on_c, 0, 67, 0
2, 119152, Note_on_c, 0, 86, 74
2, 119160, Note_on_c, 0, 74, 66
2, 119168, Note_on_c, 0, 67, 40
2, 119226, Note_on_c, 0, 74, 0
2, 119228, Note_on_c, 0, 86, 0
2, 119230, Note_on_c, 0, 67, 0
2, 119260, Note_on_c, 0, 56, 0
2, 119280, Note_on_c, 0, 62, 0
2, 119304, Note_on_c, 0, 86, 61
2, 119308, Note_on_c, 0, 56, 34
2, 119310, Note_on_c, 0, 74, 66
2, 119312, Note_on_c, 0, 62, 29
2, 119318, Note_on_c, 0, 67, 43
2, 119364, Note_on_c, 0, 67, 0
2, 119368, Note_on_c, 0, 86, 0
2, 119372, Note_on_c, 0, 74, 0
2, 119424, Note_on_c, 0, 86, 67
2, 119428, Note_on_c, 0, 74, 50
2, 119438, Note_on_c, 0, 67, 49
2, 119526, Control_c, 0, 64, 127
2, 119528, Note_on_c, 0, 67, 0
2, 119546, Note_on_c, 0, 62, 0
2, 119568, Note_on_c, 0, 86, 0
2, 119568, Note_on_c, 0, 74, 0
2, 119604, Note_on_c, 0, 56, 0
2, 119606, Note_on_c, 0, 84, 51
2, 119660, Control_c, 0, 64, 0
2, 119662, Note_on_c, 0, 84, 0
2, 119722, Note_on_c, 0, 86, 85
2, 119724, Note_on_c, 0, 74, 73
2, 119728, Note_on_c, 0, 64, 39
2, 119738, Note_on_c, 0, 59, 35
2, 119738, Note_on_c, 0, 57, 44
2, 119744, Note_on_c, 0, 60, 48
2, 119786, Note_on_c, 0, 74, 0
2, 119786, Note_on_c, 0, 86, 0
2, 119840, Note_on_c, 0, 86, 64
2, 119850, Note_on_c, 0, 74, 44
2, 119972, Note_on_c, 0, 74, 0
2, 119972, Note_on_c, 0, 86, 0
2, 120006, Note_on_c, 0, 84, 57
2, 120060, Note_on_c, 0, 84, 0
2, 120072, Note_on_c, 0, 59, 0
2, 120082, Note_on_c, 0, 60, 0
2, 120096, Note_on_c, 0, 64, 0
2, 120186, Note_on_c, 0, 86, 80
2, 120196, Note_on_c, 0, 74, 53
2, 120230, Note_on_c, 0, 74, 0
2, 120250, Note_on_c, 0, 86, 0
2, 120374, Note_on_c, 0, 84, 45
2, 120386, Note_on_c, 0, 57, 0
2, 120398, Note_on_c, 0, 84, 0
2, 120574, Note_on_c, 0, 60, 33
2, 120584, Note_on_c, 0, 55, 20
2, 120606, Note_on_c, 0, 55, 0
2, 120608, Note_on_c, 0, 60, 0
2, 120828, Note_on_c, 0, 64, 41
2, 120828, Note_on_c, 0, 55, 48
2, 120842, Note_on_c, 0, 60, 49
2, 120854, Control_c, 0, 64, 127
2, 120880, Control_c, 0, 64, 0
2, 120884, Note_on_c, 0, 60, 0
2, 120894, Note_on_c, 0, 64, 0
2, 120894, Note_on_c, 0, 55, 0
2, 121318, Note_on_c, 0, 64, 55
2, 121328, Note_on_c, 0, 54, 28
2, 121338, Note_on_c, 0, 57, 40
2, 121340, Note_on_c, 0, 60, 40
2, 121350, Note_on_c, 0, 64, 0
2, 121370, Note_on_c, 0, 60, 0
2, 121380, Note_on_c, 0, 57, 0
2, 121380, Note_on_c, 0, 54, 0
2, 121624, Note_on_c, 0, 54, 40
2, 121626, Note_on_c, 0, 64, 58
2, 121640, Note_on_c, 0, 60, 42
2, 121646, Note_on_c, 0, 57, 34
2, 121648, Note_on_c, 0, 64, 0
2, 121660, Note_on_c, 0, 54, 0
2, 121670, Note_on_c, 0, 60, 0
2, 121700, Note_on_c, 0, 57, 0
2, 121716, Note_on_c, 0, 71, 95
2, 121802, Note_on_c, 0, 71, 0
2, 121812, Note_on_c, 0, 74, 80
2, 121898, Note_on_c, 0, 72, 57
2, 121924, Note_on_c, 0, 74, 0
2, 121964, Note_on_c, 0, 72, 0
2, 122006, Note_on_c, 0, 70, 78
2, 122040, Note_on_c, 0, 63, 45
2, 122052, Note_on_c, 0, 60, 40
2, 122074, Note_on_c, 0, 56, 29
2, 122094, Note_on_c, 0, 70, 0
2, 122106, Note_on_c, 0, 68, 57
2, 122110, Note_on_c, 0, 53, 4
2, 122112, Note_on_c, 0, 63, 0
2, 122142, Note_on_c, 0, 60, 0
2, 122218, Note_on_c, 0, 68, 0
2, 122286, Note_on_c, 0, 67, 64
2, 122294, Note_on_c, 0, 53, 0
2, 122296, Note_on_c, 0, 56, 0
2, 122424, Note_on_c, 0, 63, 31
2, 122426, Note_on_c, 0, 67, 0
2, 122448, Note_on_c, 0, 63, 0
2, 122464, Note_on_c, 0, 56, 25
2, 122466, Note_on_c, 0, 53, 15
2, 122488, Note_on_c, 0, 65, 55
2, 122614, Note_on_c, 0, 65, 0
2, 122614, Note_on_c, 0, 53, 0
2, 122626, Note_on_c, 0, 56, 0
2, 122674, Note_on_c, 0, 64, 48
2, 122816, Note_on_c, 0, 62, 46
2, 122826, Note_on_c, 0, 64, 0
2, 122834, Note_on_c, 0, 59, 37
2, 122840, Note_on_c, 0, 62, 0
2, 122848, Note_on_c, 0, 55, 44
2, 122870, Note_on_c, 0, 67, 64
2, 122874, Note_on_c, 0, 59, 0
2, 122878, Note_on_c, 0, 55, 0
2, 122966, Note_on_c, 0, 67, 0
2, 123044, Note_on_c, 0, 55, 60
2, 123386, Note_on_c, 0, 55, 0
2, 123402, Note_on_c, 0, 52, 29
2, 123430, Note_on_c, 0, 52, 0
2, 123448, Note_on_c, 0, 57, 82
2, 123752, Note_on_c, 0, 57, 0
2, 123834, Note_on_c, 0, 59, 95
2, 124142, Note_on_c, 0, 53, 36
2, 124170, Note_on_c, 0, 53, 0
2, 124194, Note_on_c, 0, 59, 0
2, 124230, Note_on_c, 0, 60, 103
2, 124326, Control_c, 0, 64, 127
2, 124494, Note_on_c, 0, 60, 0
2, 124518, Control_c, 0, 64, 0
2, 124522, Note_on_c, 0, 61, 85
2, 124540, Note_on_c, 0, 55, 44
2, 124546, Note_on_c, 0, 57, 51
2, 124602, Control_c, 0, 64, 127
2, 124614, Note_on_c, 0, 57, 0
2, 124652, Note_on_c, 0, 55, 0
2, 124752, Note_on_c, 0, 61, 0
2, 124774, Note_on_c, 0, 55, 74
2, 124782, Control_c, 0, 64, 0
2, 124782, Note_on_c, 0, 63, 83
2, 124786, Note_on_c, 0, 58, 59
2, 124800, Note_on_c, 0, 61, 30
2, 124822, Note_on_c, 0, 61, 0
2, 124870, Control_c, 0, 64, 127
2, 124880, Note_on_c, 0, 55, 0
2, 124920, Note_on_c, 0, 58, 0
2, 125030, Note_on_c, 0, 63, 0
2, 125050, Note_on_c, 0, 55, 61
2, 125054, Note_on_c, 0, 64, 82
2, 125058, Control_c, 0, 64, 0
2, 125060, Note_on_c, 0, 61, 53
2, 125084, Note_on_c, 0, 58, 26
2, 125128, Control_c, 0, 64, 127
2, 125190, Note_on_c, 0, 55, 0
2, 125198, Note_on_c, 0, 58, 0
2, 125264, Note_on_c, 0, 61, 0
2, 125290, Note_on_c, 0, 64, 0
2, 125334, Control_c, 0, 64, 0
2, 125342, Note_on_c, 0, 55, 72
2, 125346, Note_on_c, 0, 66, 83
2, 125348, Note_on_c, 0, 61, 61
2, 125362, Note_on_c, 0, 67, 80
2, 125362, Note_on_c, 0, 58, 40
2, 125436, Control_c, 0, 64, 127
2, 125532, Note_on_c, 0, 55, 0
2, 125564, Note_on_c, 0, 58, 0
2, 125566, Note_on_c, 0, 67, 0
2, 125570, Note_on_c, 0, 66, 0
2, 125586, Note_on_c, 0, 61, 0
2, 125616, Control_c, 0, 64, 0
2, 125632, Note_on_c, 0, 67, 78
2, 125634, Note_on_c, 0, 61, 62
2, 125640, Note_on_c, 0, 55, 72
2, 125644, Note_on_c, 0, 58, 59
2, 125694, Control_c, 0, 64, 127
2, 125802, Note_on_c, 0, 55, 0
2, 125878, Note_on_c, 0, 58, 0
2, 125878, Note_on_c, 0, 67, 0
2, 125886, Note_on_c, 0, 61, 0
2, 125898, Control_c, 0, 64, 0
2, 125918, Note_on_c, 0, 54, 70
2, 125920, Note_on_c, 0, 68, 74
2, 125922, Note_on_c, 0, 65, 72
2, 125926, Note_on_c, 0, 60, 68
2, 126006, Control_c, 0, 64, 127
2, 126134, Note_on_c, 0, 65, 0
2, 126150, Note_on_c, 0, 54, 0
2, 126162, Note_on_c, 0, 60, 0
2, 126198, Note_on_c, 0, 68, 0
2, 126206, Note_on_c, 0, 69, 85
2, 126214, Note_on_c, 0, 54, 71
2, 126216, Note_on_c, 0, 65, 76
2, 126218, Note_on_c, 0, 60, 67
2, 126232, Control_c, 0, 64, 0
2, 126272, Control_c, 0, 64, 127
2, 126406, Note_on_c, 0, 65, 0
2, 126430, Note_on_c, 0, 54, 0
2, 126436, Note_on_c, 0, 69, 0
2, 126440, Note_on_c, 0, 60, 0
2, 126502, Control_c, 0, 64, 0
2, 126502, Note_on_c, 0, 71, 90
2, 126506, Note_on_c, 0, 54, 74
2, 126506, Note_on_c, 0, 64, 77
2, 126516, Note_on_c, 0, 60, 71
2, 126604, Control_c, 0, 64, 127
2, 126722, Note_on_c, 0, 64, 0
2, 126744, Note_on_c, 0, 54, 0
2, 126748, Note_on_c, 0, 60, 0
2, 126764, Note_on_c, 0, 71, 0
2, 126784, Control_c, 0, 64, 0
2, 126788, Note_on_c, 0, 72, 81
2, 126796, Note_on_c, 0, 54, 74
2, 126798, Note_on_c, 0, 64, 81
2, 126800, Note_on_c, 0, 60, 71
2, 126848, Control_c, 0, 64, 127
2, 126980, Note_on_c, 0, 64, 0
2, 127012, Note_on_c, 0, 60, 0
2, 127016, Note_on_c, 0, 54, 0
2, 127032, Note_on_c, 0, 72, 0
2, 127040, Control_c, 0, 64, 0
2, 127064, Note_on_c, 0, 54, 71
2, 127068, Note_on_c, 0, 74, 79
2, 127080, Note_on_c, 0, 64, 58
2, 127080, Note_on_c, 0, 60, 62
2, 127098, Control_c, 0, 64, 127
2, 127102, Note_on_c, 0, 64, 0
2, 127158, Note_on_c, 0, 70, 34
2, 127182, Note_on_c, 0, 70, 0
2, 127238, Note_on_c, 0, 60, 0
2, 127276, Note_on_c, 0, 54, 0
2, 127300, Note_on_c, 0, 74, 0
2, 127362, Note_on_c, 0, 53, 58
2, 127368, Note_on_c, 0, 59, 60
2, 127368, Note_on_c, 0, 63, 72
2, 127370, Note_on_c, 0, 75, 74
2, 127380, Control_c, 0, 64, 0
2, 127452, Control_c, 0, 64, 127
2, 127566, Note_on_c, 0, 53, 0
2, 127580, Note_on_c, 0, 63, 0
2, 127586, Note_on_c, 0, 59, 0
2, 127594, Note_on_c, 0, 75, 0
2, 127664, Control_c, 0, 64, 0
2, 127670, Note_on_c, 0, 59, 71
2, 127672, Note_on_c, 0, 53, 76
2, 127678, Note_on_c, 0, 77, 71
2, 127680, Note_on_c, 0, 65, 79
2, 127760, Control_c, 0, 64, 127
2, 127878, Note_on_c, 0, 53, 0
2, 127880, Note_on_c, 0, 65, 0
2, 127888, Note_on_c, 0, 77, 0
2, 127894, Note_on_c, 0, 59, 0
2, 127958, Note_on_c, 0, 59, 69
2, 127960, Note_on_c, 0, 67, 83
2, 127960, Note_on_c, 0, 79, 74
2, 127966, Control_c, 0, 64, 0
2, 127966, Note_on_c, 0, 53, 74
2, 127998, Control_c, 0, 64, 127
2, 128130, Note_on_c, 0, 79, 0
2, 128132, Note_on_c, 0, 67, 0
2, 128136, Note_on_c, 0, 53, 0
2, 128176, Note_on_c, 0, 59, 0
2, 128240, Control_c, 0, 64, 0
2, 128246, Note_on_c, 0, 59, 64
2, 128248, Note_on_c, 0, 53, 71
2, 128248, Note_on_c, 0, 68, 77
2, 128248, Note_on_c, 0, 63, 71
2, 128250, Note_on_c, 0, 80, 74
2, 128338, Control_c, 0, 64, 127
2, 128422, Note_on_c, 0, 80, 0
2, 128422, Note_on_c, 0, 68, 0
2, 128452, Note_on_c, 0, 63, 0
2, 128462, Note_on_c, 0, 53, 0
2, 128504, Control_c, 0, 64, 0
2, 128534, Note_on_c, 0, 53, 67
2, 128534, Note_on_c, 0, 82, 73
2, 128536, Note_on_c, 0, 70, 71
2, 128538, Note_on_c, 0, 63, 63
2, 128582, Control_c, 0, 64, 127
2, 128680, Note_on_c, 0, 59, 0
2, 128682, Note_on_c, 0, 63, 0
2, 128710, Note_on_c, 0, 82, 0
2, 128714, Note_on_c, 0, 70, 0
2, 128768, Note_on_c, 0, 63, 38
2, 128774, Note_on_c, 0, 59, 38
2, 128808, Note_on_c, 0, 59, 0
2, 128818, Note_on_c, 0, 53, 0
2, 128822, Note_on_c, 0, 63, 0
2, 128826, Note_on_c, 0, 83, 66
2, 128830, Note_on_c, 0, 71, 68
2, 128848, Note_on_c, 0, 82, 33
2, 128872, Note_on_c, 0, 82, 0
2, 128882, Note_on_c, 0, 71, 0
2, 128906, Note_on_c, 0, 83, 0
2, 129006, Control_c, 0, 64, 0
2, 129024, Note_on_c, 0, 56, 50
2, 129026, Note_on_c, 0, 86, 78
2, 129028, Note_on_c, 0, 79, 60
2, 129030, Note_on_c, 0, 52, 57
2, 129030, Note_on_c, 0, 62, 62
2, 129034, Note_on_c, 0, 74, 56
2, 129040, Note_on_c, 0, 82, 40
2, 129120, Control_c, 0, 64, 127
2, 129184, Note_on_c, 0, 52, 0
2, 129210, Note_on_c, 0, 56, 0
2, 129238, Note_on_c, 0, 62, 0
2, 129304, Note_on_c, 0, 74, 0
2, 129338, Note_on_c, 0, 79, 0
2, 129364, Note_on_c, 0, 82, 0
2, 129376, Note_on_c, 0, 86, 0
2, 129416, Note_on_c, 0, 67, 69
2, 129418, Note_on_c, 0, 56, 51
2, 129420, Note_on_c, 0, 62, 58
2, 129610, Note_on_c, 0, 56, 0
2, 129616, Note_on_c, 0, 67, 0
2, 129636, Note_on_c, 0, 62, 0
2, 129774, Note_on_c, 0, 98, 84
2, 129776, Note_on_c, 0, 86, 91
2, 129778, Note_on_c, 0, 67, 82
2, 129778, Note_on_c, 0, 91, 74
2, 129778, Note_on_c, 0, 62, 79
2, 129780, Note_on_c, 0, 56, 73
2, 129792, Note_on_c, 0, 94, 26
2, 129794, Control_c, 0, 64, 0
2, 129796, Note_on_c, 0, 86, 0
2, 129798, Note_on_c, 0, 91, 0
2, 129804, Note_on_c, 0, 62, 0
2, 129812, Note_on_c, 0, 67, 0
2, 129814, Note_on_c, 0, 94, 0
2, 129820, Note_on_c, 0, 56, 0
2, 129822, Note_on_c, 0, 98, 0
2, 129980, Note_on_c, 0, 56, 83
2, 129980, Note_on_c, 0, 62, 82
2, 129982, Note_on_c, 0, 67, 85
2, 129982, Note_on_c, 0, 98, 89
2, 129984, Note_on_c, 0, 91, 87
2, 129984, Note_on_c, 0, 86, 96
2, 129994, Note_on_c, 0, 94, 49
2, 130016, Note_on_c, 0, 94, 0
2, 130082, Control_c, 0, 64, 127
2, 130164, Note_on_c, 0, 98, 0
2, 130214, Note_on_c, 0, 91, 0
2, 130220, Note_on_c, 0, 86, 0
2, 130240, Note_on_c, 0, 62, 0
2, 130258, Note_on_c, 0, 67, 0
2, 130318, Note_on_c, 0, 56, 0
2, 130398, Note_on_c, 0, 66, 90
2, 130400, Note_on_c, 0, 61, 79
2, 130402, Note_on_c, 0, 55, 83
2, 130456, Control_c, 0, 64, 0
2, 130784, Note_on_c, 0, 96, 108
2, 130878, Note_on_c, 0, 97, 61
2, 130882, Note_on_c, 0, 96, 0
2, 130952, Note_on_c, 0, 96, 58
2, 130960, Note_on_c, 0, 97, 0
2, 131024, Note_on_c, 0, 96, 0
2, 131122, Note_on_c, 0, 66, 0
2, 131128, Note_on_c, 0, 91, 70
2, 131242, Note_on_c, 0, 92, 71
2, 131260, Note_on_c, 0, 91, 0
2, 131304, Note_on_c, 0, 55, 0
2, 131334, Note_on_c, 0, 92, 0
2, 131340, Note_on_c, 0, 91, 59
2, 131392, Note_on_c, 0, 91, 0
2, 131450, Note_on_c, 0, 61, 0
2, 131502, Note_on_c, 0, 66, 55
2, 131506, Note_on_c, 0, 61, 49
2, 131514, Note_on_c, 0, 55, 55
2, 131586, Note_on_c, 0, 55, 0
2, 131586, Note_on_c, 0, 66, 0
2, 131708, Note_on_c, 0, 84, 88
2, 131710, Note_on_c, 0, 61, 0
2, 131786, Note_on_c, 0, 84, 0
2, 131814, Note_on_c, 0, 61, 57
2, 131816, Note_on_c, 0, 66, 60
2, 131820, Note_on_c, 0, 87, 78
2, 131824, Note_on_c, 0, 55, 56
2, 131898, Note_on_c, 0, 87, 0
2, 131910, Note_on_c, 0, 86, 66
2, 131930, Note_on_c, 0, 55, 0
2, 131932, Note_on_c, 0, 66, 0
2, 132026, Note_on_c, 0, 61, 0
2, 132050, Note_on_c, 0, 86, 0
2, 132072, Note_on_c, 0, 60, 50
2, 132078, Note_on_c, 0, 64, 45
2, 132080, Note_on_c, 0, 53, 39
2, 132082, Note_on_c, 0, 84, 70
2, 132084, Note_on_c, 0, 57, 47
2, 132154, Note_on_c, 0, 84, 0
2, 132280, Note_on_c, 0, 81, 55
2, 132304, Note_on_c, 0, 64, 0
2, 132384, Note_on_c, 0, 81, 0
2, 132458, Note_on_c, 0, 77, 54
2, 132492, Note_on_c, 0, 60, 0
2, 132534, Note_on_c, 0, 57, 0
2, 132592, Note_on_c, 0, 77, 0
2, 132604, Note_on_c, 0, 57, 31
2, 132642, Note_on_c, 0, 72, 47
2, 132682, Note_on_c, 0, 57, 0
2, 132774, Note_on_c, 0, 72, 0
2, 132814, Note_on_c, 0, 57, 28
2, 132848, Note_on_c, 0, 69, 61
2, 132862, Note_on_c, 0, 57, 0
2, 132910, Note_on_c, 0, 53, 0
2, 132996, Note_on_c, 0, 69, 0
2, 133010, Note_on_c, 0, 57, 16
2, 133044, Note_on_c, 0, 65, 55
2, 133048, Note_on_c, 0, 57, 0
2, 133078, Note_on_c, 0, 65, 0
2, 133242, Note_on_c, 0, 53, 58
2, 133244, Note_on_c, 0, 69, 108
2, 133250, Note_on_c, 0, 64, 51
2, 133252, Note_on_c, 0, 60, 57
2, 133256, Note_on_c, 0, 57, 48
2, 133294, Note_on_c, 0, 69, 0
2, 133424, Note_on_c, 0, 72, 105
2, 133442, Note_on_c, 0, 60, 0
2, 133494, Note_on_c, 0, 64, 0
2, 133510, Note_on_c, 0, 53, 0
2, 133526, Note_on_c, 0, 57, 0
2, 133538, Note_on_c, 0, 72, 0
2, 133612, Note_on_c, 0, 70, 83
2, 133618, Note_on_c, 0, 53, 60
2, 133622, Note_on_c, 0, 64, 62
2, 133622, Note_on_c, 0, 59, 66
2, 133626, Note_on_c, 0, 71, 81
2, 133664, Note_on_c, 0, 70, 0
2, 133796, Note_on_c, 0, 71, 0
2, 133814, Note_on_c, 0, 70, 77
2, 133960, Note_on_c, 0, 70, 0
2, 134008, Note_on_c, 0, 68, 67
2, 134248, Control_c, 0, 64, 127
2, 134290, Note_on_c, 0, 64, 0
2, 134300, Note_on_c, 0, 53, 0
2, 134334, Note_on_c, 0, 59, 0
2, 134344, Control_c, 0, 64, 0
2, 134350, Note_on_c, 0, 68, 0
2, 134388, Note_on_c, 0, 64, 31
2, 134390, Note_on_c, 0, 53, 36
2, 134392, Note_on_c, 0, 67, 62
2, 134392, Note_on_c, 0, 59, 57
2, 134428, Note_on_c, 0, 64, 0
2, 134460, Note_on_c, 0, 59, 0
2, 134540, Note_on_c, 0, 67, 0
2, 134546, Note_on_c, 0, 59, 24
2, 134576, Note_on_c, 0, 62, 41
2, 134614, Note_on_c, 0, 59, 0
2, 134616, Note_on_c, 0, 53, 0
2, 134694, Note_on_c, 0, 62, 0
2, 134762, Note_on_c, 0, 65, 57
2, 134778, Note_on_c, 0, 59, 33
2, 134778, Note_on_c, 0, 53, 35
2, 134816, Note_on_c, 0, 59, 0
2, 134820, Note_on_c, 0, 65, 0
2, 134822, Note_on_c, 0, 53, 0
2, 134946, Note_on_c, 0, 53, 44
2, 134950, Note_on_c, 0, 72, 53
2, 135000, Note_on_c, 0, 53, 0
2, 135014, Note_on_c, 0, 72, 0
2, 135142, Note_on_c, 0, 75, 71
2, 135154, Note_on_c, 0, 62, 57
2, 135166, Note_on_c, 0, 51, 30
2, 135168, Note_on_c, 0, 57, 46
2, 135188, Note_on_c, 0, 55, 47
2, 135738, Note_on_c, 0, 75, 0
2, 135740, Note_on_c, 0, 72, 37
2, 135780, Note_on_c, 0, 72, 0
2, 135862, Note_on_c, 0, 72, 34
2, 135892, Note_on_c, 0, 72, 0
2, 135944, Note_on_c, 0, 62, 0
2, 135956, Note_on_c, 0, 79, 57
2, 135958, Note_on_c, 0, 75, 39
2, 135998, Note_on_c, 0, 57, 0
2, 136000, Note_on_c, 0, 75, 0
2, 136006, Note_on_c, 0, 79, 0
2, 136138, Note_on_c, 0, 75, 63
2, 136138, Note_on_c, 0, 79, 63
2, 136162, Note_on_c, 0, 62, 33
2, 136190, Note_on_c, 0, 79, 0
2, 136190, Note_on_c, 0, 75, 0
2, 136194, Note_on_c, 0, 62, 0
2, 136306, Note_on_c, 0, 55, 0
2, 136324, Note_on_c, 0, 67, 44
2, 136340, Note_on_c, 0, 51, 0
2, 136350, Note_on_c, 0, 67, 0
2, 136510, Note_on_c, 0, 79, 55
2, 136512, Note_on_c, 0, 75, 44
2, 136516, Note_on_c, 0, 67, 51
2, 136536, Note_on_c, 0, 79, 0
2, 136542, Note_on_c, 0, 67, 0
2, 136550, Note_on_c, 0, 75, 0
2, 136874, Note_on_c, 0, 67, 45
2, 136880, Note_on_c, 0, 63, 35
2, 136894, Note_on_c, 0, 60, 29
2, 136906, Note_on_c, 0, 67, 0
2, 136918, Note_on_c, 0, 60, 0
2, 136934, Note_on_c, 0, 63, 0
2, 137272, Note_on_c, 0, 67, 53
2, 137278, Note_on_c, 0, 63, 43
2, 137282, Note_on_c, 0, 60, 53
2, 137290, Note_on_c, 0, 58, 33
2, 137468, Note_on_c, 0, 92, 93
2, 137472, Note_on_c, 0, 84, 87
2, 137572, Control_c, 0, 64, 127
2, 137760, Note_on_c, 0, 67, 0
2, 137784, Note_on_c, 0, 60, 0
2, 137796, Note_on_c, 0, 84, 0
2, 137800, Note_on_c, 0, 63, 0
2, 137848, Note_on_c, 0, 67, 33
2, 137850, Note_on_c, 0, 63, 25
2, 137882, Note_on_c, 0, 67, 0
2, 137920, Note_on_c, 0, 63, 0
2, 137920, Note_on_c, 0, 58, 0
2, 138008, Note_on_c, 0, 92, 0
2, 138238, Note_on_c, 0, 89, 64
2, 138240, Control_c, 0, 64, 0
2, 138248, Note_on_c, 0, 77, 51
2, 138248, Note_on_c, 0, 65, 45
2, 138262, Note_on_c, 0, 54, 21
2, 138270, Note_on_c, 0, 58, 28
2, 138270, Note_on_c, 0, 60, 37
2, 138362, Control_c, 0, 64, 127
2, 138652, Note_on_c, 0, 89, 0
2, 138660, Note_on_c, 0, 77, 0
2, 138662, Note_on_c, 0, 65, 0
2, 138666, Note_on_c, 0, 54, 0
2, 138668, Note_on_c, 0, 60, 0
2, 138684, Note_on_c, 0, 58, 0
2, 139178, Control_c, 0, 64, 0
2, 139186, Note_on_c, 0, 92, 85
2, 139186, Note_on_c, 0, 84, 92
2, 139188, Note_on_c, 0, 58, 81
2, 139190, Note_on_c, 0, 96, 83
2, 139192, Note_on_c, 0, 54, 79
2, 139192, Note_on_c, 0, 60, 82
2, 139192, Note_on_c, 0, 65, 91
2, 139192, Note_on_c, 0, 90, 63
2, 139196, Control_c, 0, 64, 127
2, 139216, Note_on_c, 0, 90, 0
2, 139294, Note_on_c, 0, 84, 0
2, 139324, Note_on_c, 0, 92, 0
2, 139336, Note_on_c, 0, 96, 0
2, 139348, Note_on_c, 0, 65, 0
2, 139364, Note_on_c, 0, 60, 0
2, 139366, Note_on_c, 0, 54, 0
2, 139380, Note_on_c, 0, 58, 0
2, 139450, Note_on_c, 0, 54, 73
2, 139450, Note_on_c, 0, 58, 74
2, 139456, Note_on_c, 0, 103, 82
2, 139456, Note_on_c, 0, 65, 79
2, 139458, Note_on_c, 0, 91, 80
2, 139460, Note_on_c, 0, 60, 71
2, 139462, Note_on_c, 0, 98, 79
2, 139634, Note_on_c, 0, 65, 0
2, 139640, Note_on_c, 0, 58, 0
2, 139642, Note_on_c, 0, 60, 0
2, 139646, Note_on_c, 0, 103, 0
2, 139652, Note_on_c, 0, 54, 0
2, 139662, Note_on_c, 0, 98, 0
2, 139664, Note_on_c, 0, 91, 0
2, 139730, Control_c, 0, 64, 0
2, 139730, Note_on_c, 0, 56, 68
2, 139730, Note_on_c, 0, 60, 76
2, 139732, Note_on_c, 0, 65, 82
2, 139734, Note_on_c, 0, 55, 76
2, 139742, Note_on_c, 0, 101, 73
2, 139750, Note_on_c, 0, 89, 55
2, 139750, Note_on_c, 0, 96, 70
2, 139774, Note_on_c, 0, 91, 24
2, 139796, Note_on_c, 0, 91, 0
2, 139838, Control_c, 0, 64, 127
2, 139850, Note_on_c, 0, 101, 0
2, 139864, Note_on_c, 0, 96, 0
2, 139896, Note_on_c, 0, 89, 0
2, 139936, Note_on_c, 0, 55, 0
2, 139948, Note_on_c, 0, 65, 0
2, 139960, Note_on_c, 0, 60, 0
2, 139962, Note_on_c, 0, 56, 0
2, 140012, Control_c, 0, 64, 0
2, 140020, Note_on_c, 0, 96, 65
2, 140022, Note_on_c, 0, 84, 66
2, 140026, Note_on_c, 0, 55, 66
2, 140028, Note_on_c, 0, 65, 68
2, 140028, Note_on_c, 0, 56, 50
2, 140028, Note_on_c, 0, 60, 61
2, 140102, Control_c, 0, 64, 127
2, 140234, Note_on_c, 0, 96, 0
2, 140254, Note_on_c, 0, 84, 0
2, 140344, Note_on_c, 0, 60, 0
2, 140392, Note_on_c, 0, 65, 0
2, 140442, Note_on_c, 0, 55, 0
2, 140480, Note_on_c, 0, 56, 0
2, 140520, Note_on_c, 0, 94, 86
2, 140526, Note_on_c, 0, 82, 75
2, 140528, Note_on_c, 0, 53, 74
2, 140530, Note_on_c, 0, 59, 71
2, 140532, Note_on_c, 0, 64, 68
2, 140534, Control_c, 0, 64, 0
2, 140634, Note_on_c, 0, 82, 0
2, 140638, Note_on_c, 0, 92, 62
2, 140646, Note_on_c, 0, 94, 0
2, 140724, Note_on_c, 0, 87, 56
2, 140746, Note_on_c, 0, 92, 0
2, 140808, Note_on_c, 0, 87, 0
2, 140820, Note_on_c, 0, 83, 48
2, 140844, Note_on_c, 0, 64, 0
2, 140896, Note_on_c, 0, 53, 0
2, 140896, Note_on_c, 0, 83, 0
2, 140968, Note_on_c, 0, 59, 0
2, 141120, Note_on_c, 0, 63, 53
2, 141132, Note_on_c, 0, 53, 32
2, 141132, Note_on_c, 0, 59, 44
2, 141136, Note_on_c, 0, 56, 33
2, 141174, Note_on_c, 0, 59, 0
2, 141204, Note_on_c, 0, 63, 0
2, 141208, Note_on_c, 0, 53, 0
2, 141240, Note_on_c, 0, 56, 0
2, 141326, Note_on_c, 0, 51, 47
2, 141334, Note_on_c, 0, 62, 27
2, 141368, Note_on_c, 0, 62, 0
2, 141384, Note_on_c, 0, 51, 0
2, 141604, Note_on_c, 0, 62, 47
2, 141610, Note_on_c, 0, 51, 36
2, 141612, Note_on_c, 0, 57, 44
2, 141630, Note_on_c, 0, 51, 0
2, 141632, Note_on_c, 0, 62, 0
2, 141652, Note_on_c, 0, 57, 0
2, 141700, Note_on_c, 0, 89, 75
2, 141704, Note_on_c, 0, 77, 74
2, 141750, Note_on_c, 0, 89, 0
2, 141758, Note_on_c, 0, 77, 0
2, 141804, Note_on_c, 0, 57, 43
2, 141812, Note_on_c, 0, 89, 67
2, 141828, Note_on_c, 0, 77, 41
2, 141838, Note_on_c, 0, 57, 0
2, 141862, Note_on_c, 0, 77, 0
2, 141896, Note_on_c, 0, 89, 0
2, 141980, Note_on_c, 0, 86, 71
2, 142002, Note_on_c, 0, 86, 0
2, 142012, Note_on_c, 0, 62, 45
2, 142020, Note_on_c, 0, 52, 38
2, 142022, Note_on_c, 0, 57, 35
2, 142038, Note_on_c, 0, 62, 0
2, 142054, Note_on_c, 0, 57, 0
2, 142054, Note_on_c, 0, 52, 0
2, 142084, Note_on_c, 0, 87, 73
2, 142092, Note_on_c, 0, 75, 71
2, 142200, Note_on_c, 0, 87, 0
2, 142206, Note_on_c, 0, 75, 0
2, 142288, Note_on_c, 0, 88, 64
2, 142294, Note_on_c, 0, 76, 40
2, 142372, Note_on_c, 0, 88, 0
2, 142382, Note_on_c, 0, 76, 0
2, 142560, Note_on_c, 0, 62, 66
2, 142560, Note_on_c, 0, 57, 62
2, 142566, Note_on_c, 0, 52, 44
2, 142592, Note_on_c, 0, 62, 0
2, 142594, Note_on_c, 0, 52, 0
2, 142594, Note_on_c, 0, 57, 0
2, 142848, Note_on_c, 0, 67, 71
2, 142852, Note_on_c, 0, 62, 62
2, 142862, Note_on_c, 0, 56, 30
2, 142872, Note_on_c, 0, 67, 0
2, 142888, Note_on_c, 0, 56, 0
2, 142890, Note_on_c, 0, 62, 0
2, 143122, Note_on_c, 0, 67, 66
2, 143126, Note_on_c, 0, 56, 42
2, 143136, Note_on_c, 0, 62, 40
2, 143156, Note_on_c, 0, 67, 0
2, 143158, Note_on_c, 0, 56, 0
2, 143164, Note_on_c, 0, 62, 0
2, 143396, Note_on_c, 0, 67, 79
2, 143396, Note_on_c, 0, 56, 68
2, 143398, Note_on_c, 0, 62, 67
2, 143480, Note_on_c, 0, 67, 0
2, 143496, Note_on_c, 0, 56, 0
2, 143600, Note_on_c, 0, 88, 96
2, 143604, Note_on_c, 0, 62, 0
2, 143604, Note_on_c, 0, 91, 84
2, 143686, Note_on_c, 0, 88, 0
2, 143696, Note_on_c, 0, 91, 0
2, 143714, Note_on_c, 0, 89, 55
2, 143722, Note_on_c, 0, 86, 64
2, 143798, Note_on_c, 0, 86, 0
2, 143808, Note_on_c, 0, 89, 0
2, 143906, Note_on_c, 0, 88, 74
2, 143910, Note_on_c, 0, 62, 61
2, 143910, Note_on_c, 0, 56, 55
2, 143910, Note_on_c, 0, 67, 62
2, 143912, Note_on_c, 0, 84, 72
2, 143952, Note_on_c, 0, 88, 0
2, 143954, Note_on_c, 0, 84, 0
2, 143996, Note_on_c, 0, 67, 0
2, 144012, Note_on_c, 0, 83, 52
2, 144016, Note_on_c, 0, 86, 69
2, 144044, Note_on_c, 0, 62, 0
2, 144132, Note_on_c, 0, 86, 0
2, 144136, Note_on_c, 0, 56, 0
2, 144138, Note_on_c, 0, 83, 0
2, 144194, Note_on_c, 0, 83, 44
2, 144194, Note_on_c, 0, 86, 53
2, 144198, Note_on_c, 0, 64, 40
2, 144208, Note_on_c, 0, 59, 34
2, 144212, Note_on_c, 0, 57, 40
2, 144234, Note_on_c, 0, 60, 27
2, 144326, Note_on_c, 0, 86, 0
2, 144334, Note_on_c, 0, 83, 0
2, 144360, Note_on_c, 0, 60, 0
2, 144372, Note_on_c, 0, 59, 0
2, 144376, Note_on_c, 0, 57, 0
2, 144380, Note_on_c, 0, 64, 0
2, 144506, Note_on_c, 0, 64, 46
2, 144518, Note_on_c, 0, 60, 48
2, 144518, Note_on_c, 0, 57, 37
2, 144532, Note_on_c, 0, 59, 35
2, 144560, Note_on_c, 0, 59, 0
2, 144566, Note_on_c, 0, 64, 0
2, 144576, Note_on_c, 0, 57, 0
2, 144578, Note_on_c, 0, 60, 0
2, 144678, Note_on_c, 0, 64, 43
2, 144688, Note_on_c, 0, 60, 40
2, 144690, Note_on_c, 0, 57, 35
2, 144706, Note_on_c, 0, 64, 0
2, 144758, Note_on_c, 0, 88, 92
2, 144764, Note_on_c, 0, 91, 79
2, 144768, Note_on_c, 0, 60, 0
2, 144790, Note_on_c, 0, 57, 0
2, 144832, Note_on_c, 0, 91, 0
2, 144834, Note_on_c, 0, 88, 0
2, 144870, Note_on_c, 0, 89, 59
2, 144874, Note_on_c, 0, 86, 73
2, 144886, Note_on_c, 0, 57, 25
2, 144930, Note_on_c, 0, 57, 0
2, 144944, Note_on_c, 0, 86, 0
2, 144950, Note_on_c, 0, 89, 0
2, 145054, Note_on_c, 0, 88, 67
2, 145060, Note_on_c, 0, 84, 57
2, 145084, Note_on_c, 0, 84, 0
2, 145094, Note_on_c, 0, 88, 0
2, 145150, Note_on_c, 0, 64, 24
2, 145152, Note_on_c, 0, 83, 53
2, 145152, Note_on_c, 0, 60, 36
2, 145152, Note_on_c, 0, 55, 39
2, 145162, Note_on_c, 0, 86, 64
2, 145228, Note_on_c, 0, 86, 0
2, 145236, Note_on_c, 0, 83, 0
2, 145312, Note_on_c, 0, 64, 0
2, 145338, Note_on_c, 0, 60, 0
2, 145342, Note_on_c, 0, 55, 0
2, 145348, Note_on_c, 0, 86, 71
2, 145350, Note_on_c, 0, 83, 55
2, 145408, Note_on_c, 0, 86, 0
2, 145416, Note_on_c, 0, 83, 0
2, 145498, Note_on_c, 0, 60, 41
2, 145536, Note_on_c, 0, 60, 0
2, 145632, Note_on_c, 0, 64, 59
2, 145634, Note_on_c, 0, 60, 60
2, 145634, Note_on_c, 0, 55, 64
2, 145658, Note_on_c, 0, 64, 0
2, 145662, Note_on_c, 0, 55, 0
2, 145672, Note_on_c, 0, 60, 0
2, 145916, Note_on_c, 0, 64, 50
2, 145916, Note_on_c, 0, 66, 45
2, 145916, Note_on_c, 0, 71, 51
2, 145920, Note_on_c, 0, 60, 49
2, 146172, Note_on_c, 0, 60, 0
2, 146188, Note_on_c, 0, 71, 0
2, 146210, Note_on_c, 0, 64, 0
2, 146212, Note_on_c, 0, 66, 0
2, 146256, Note_on_c, 0, 66, 57
2, 146262, Note_on_c, 0, 86, 88
2, 146264, Note_on_c, 0, 74, 81
2, 146266, Note_on_c, 0, 63, 44
2, 146270, Note_on_c, 0, 61, 42
2, 146272, Note_on_c, 0, 57, 41
2, 146298, Note_on_c, 0, 57, 0
2, 146300, Note_on_c, 0, 66, 0
2, 146302, Note_on_c, 0, 61, 0
2, 146304, Note_on_c, 0, 74, 0
2, 146304, Note_on_c, 0, 86, 0
2, 146310, Note_on_c, 0, 63, 0
2, 146464, Note_on_c, 0, 66, 67
2, 146470, Note_on_c, 0, 57, 62
2, 146470, Note_on_c, 0, 61, 46
2, 146476, Note_on_c, 0, 63, 44
2, 146476, Note_on_c, 0, 86, 91
2, 146478, Note_on_c, 0, 74, 85
2, 146630, Control_c, 0, 64, 127
2, 146760, Note_on_c, 0, 57, 0
2, 146778, Note_on_c, 0, 86, 0
2, 146812, Note_on_c, 0, 74, 0
2, 146822, Note_on_c, 0, 66, 0
2, 146822, Note_on_c, 0, 63, 0
2, 146832, Note_on_c, 0, 61, 0
2, 146884, Note_on_c, 0, 84, 82
2, 146890, Note_on_c, 0, 72, 75
2, 146890, Note_on_c, 0, 67, 77
2, 146892, Note_on_c, 0, 62, 72
2, 146894, Note_on_c, 0, 56, 60
2, 146938, Control_c, 0, 64, 0
2, 147022, Control_c, 0, 64, 127
2, 147066, Note_on_c, 0, 67, 0
2, 147088, Note_on_c, 0, 62, 0
2, 147096, Note_on_c, 0, 84, 0
2, 147126, Note_on_c, 0, 56, 0
2, 147132, Note_on_c, 0, 72, 0
2, 147414, Control_c, 0, 64, 0
2, 147416, Note_on_c, 0, 79, 60
2, 147422, Note_on_c, 0, 67, 59
2, 147424, Note_on_c, 0, 74, 60
2, 147432, Note_on_c, 0, 62, 37
2, 147434, Note_on_c, 0, 52, 37
2, 147434, Note_on_c, 0, 59, 41
2, 147452, Note_on_c, 0, 55, 34
2, 147760, Control_c, 0, 64, 127
2, 147868, Note_on_c, 0, 67, 0
2, 147872, Note_on_c, 0, 79, 0
2, 147892, Note_on_c, 0, 52, 0
2, 147908, Note_on_c, 0, 62, 0
2, 147912, Note_on_c, 0, 55, 0
2, 147918, Note_on_c, 0, 59, 0
2, 147922, Note_on_c, 0, 74, 0
2, 148030, Note_on_c, 0, 78, 67
2, 148030, Note_on_c, 0, 66, 79
2, 148034, Note_on_c, 0, 62, 73
2, 148034, Note_on_c, 0, 59, 68
2, 148034, Note_on_c, 0, 52, 67
2, 148036, Note_on_c, 0, 74, 70
2, 148042, Note_on_c, 0, 55, 67
2, 148062, Control_c, 0, 64, 0
2, 148132, Control_c, 0, 64, 127
2, 148148, Note_on_c, 0, 66, 0
2, 148164, Note_on_c, 0, 79, 63
2, 148164, Note_on_c, 0, 67, 62
2, 148168, Note_on_c, 0, 78, 0
2, 148212, Note_on_c, 0, 67, 0
2, 148232, Note_on_c, 0, 74, 0
2, 148242, Control_c, 0, 64, 0
2, 148244, Note_on_c, 0, 79, 0
2, 148246, Note_on_c, 0, 52, 0
2, 148246, Note_on_c, 0, 62, 0
2, 148250, Note_on_c, 0, 59, 0
2, 148262, Note_on_c, 0, 55, 0
2, 148346, Note_on_c, 0, 62, 62
2, 148348, Note_on_c, 0, 59, 58
2, 148348, Note_on_c, 0, 71, 81
2, 148350, Note_on_c, 0, 83, 76
2, 148358, Note_on_c, 0, 55, 44
2, 148358, Note_on_c, 0, 52, 33
2, 148368, Note_on_c, 0, 62, 0
2, 148372, Note_on_c, 0, 71, 0
2, 148384, Note_on_c, 0, 59, 0
2, 148384, Note_on_c, 0, 55, 0
2, 148386, Note_on_c, 0, 52, 0
2, 148400, Note_on_c, 0, 83, 0
2, 148486, Note_on_c, 0, 59, 65
2, 148492, Note_on_c, 0, 86, 90
2, 148492, Note_on_c, 0, 74, 80
2, 148492, Note_on_c, 0, 62, 56
2, 148494, Note_on_c, 0, 52, 44
2, 148496, Note_on_c, 0, 55, 51
2, 148514, Note_on_c, 0, 62, 0
2, 148522, Note_on_c, 0, 52, 0
2, 148522, Note_on_c, 0, 74, 0
2, 148522, Note_on_c, 0, 55, 0
2, 148528, Note_on_c, 0, 59, 0
2, 148538, Note_on_c, 0, 86, 0
2, 148614, Note_on_c, 0, 59, 64
2, 148616, Note_on_c, 0, 62, 60
2, 148620, Note_on_c, 0, 88, 82
2, 148620, Note_on_c, 0, 76, 75
2, 148622, Note_on_c, 0, 52, 32
2, 148624, Note_on_c, 0, 55, 49
2, 148640, Note_on_c, 0, 62, 0
2, 148652, Note_on_c, 0, 52, 0
2, 148660, Note_on_c, 0, 76, 0
2, 148662, Note_on_c, 0, 55, 0
2, 148664, Note_on_c, 0, 88, 0
2, 148676, Note_on_c, 0, 59, 0
2, 148758, Note_on_c, 0, 91, 80
2, 148758, Note_on_c, 0, 79, 72
2, 148790, Note_on_c, 0, 79, 0
2, 148802, Note_on_c, 0, 91, 0
2, 148904, Note_on_c, 0, 81, 77
2, 148904, Note_on_c, 0, 93, 83
2, 148920, Note_on_c, 0, 61, 44
2, 148942, Note_on_c, 0, 61, 0
2, 148944, Note_on_c, 0, 93, 0
2, 148950, Note_on_c, 0, 81, 0
2, 149018, Note_on_c, 0, 66, 88
2, 149024, Note_on_c, 0, 61, 78
2, 149028, Note_on_c, 0, 55, 92
2, 149038, Note_on_c, 0, 84, 89
2, 149040, Note_on_c, 0, 92, 83
2, 149040, Note_on_c, 0, 96, 87
2, 149042, Note_on_c, 0, 90, 69
2, 149064, Note_on_c, 0, 90, 0
2, 149130, Note_on_c, 0, 93, 48
2, 149152, Note_on_c, 0, 92, 0
2, 149190, Note_on_c, 0, 84, 0
2, 149190, Note_on_c, 0, 55, 0
2, 149202, Note_on_c, 0, 93, 0
2, 149204, Note_on_c, 0, 96, 0
2, 149210, Note_on_c, 0, 66, 0
2, 149222, Note_on_c, 0, 61, 0
2, 149280, Note_on_c, 0, 96, 85
2, 149282, Note_on_c, 0, 84, 89
2, 149282, Note_on_c, 0, 92, 83
2, 149284, Note_on_c, 0, 66, 93
2, 149288, Note_on_c, 0, 61, 75
2, 149290, Note_on_c, 0, 55, 94
2, 149294, Note_on_c, 0, 90, 61
2, 149316, Note_on_c, 0, 90, 0
2, 149424, Note_on_c, 0, 93, 64
2, 149440, Note_on_c, 0, 92, 0
2, 149446, Note_on_c, 0, 93, 0
2, 149466, Note_on_c, 0, 96, 0
2, 149476, Note_on_c, 0, 84, 0
2, 149478, Note_on_c, 0, 55, 0
2, 149502, Note_on_c, 0, 66, 0
2, 149586, Note_on_c, 0, 61, 0
2, 149926, Note_on_c, 0, 85, 79
2, 149930, Note_on_c, 0, 66, 91
2, 149930, Note_on_c, 0, 55, 91
2, 149934, Note_on_c, 0, 61, 81
2, 149936, Note_on_c, 0, 80, 74
2, 149936, Note_on_c, 0, 76, 85
2, 149938, Note_on_c, 0, 88, 81
2, 149942, Note_on_c, 0, 87, 49
2, 149988, Note_on_c, 0, 87, 0
2, 150006, Note_on_c, 0, 81, 10
2, 150032, Note_on_c, 0, 85, 0
2, 150032, Note_on_c, 0, 84, 32
2, 150060, Note_on_c, 0, 84, 0
2, 150088, Note_on_c, 0, 80, 0
2, 150128, Note_on_c, 0, 55, 0
2, 150144, Note_on_c, 0, 66, 0
2, 150144, Note_on_c, 0, 76, 0
2, 150144, Note_on_c, 0, 81, 0
2, 150172, Note_on_c, 0, 61, 0
2, 150176, Note_on_c, 0, 88, 0
2, 150212, Note_on_c, 0, 55, 75
2, 150214, Note_on_c, 0, 66, 71
2, 150216, Note_on_c, 0, 61, 72
2, 150222, Note_on_c, 0, 84, 71
2, 150224, Note_on_c, 0, 76, 61
2, 150236, Note_on_c, 0, 81, 47
2, 150252, Control_c, 0, 64, 127
2, 150320, Note_on_c, 0, 76, 0
2, 150324, Note_on_c, 0, 81, 0
2, 150372, Note_on_c, 0, 84, 0
2, 150382, Note_on_c, 0, 55, 0
2, 150394, Note_on_c, 0, 66, 0
2, 150450, Control_c, 0, 64, 0
2, 150460, Note_on_c, 0, 61, 0
2, 150488, Note_on_c, 0, 58, 69
2, 150490, Note_on_c, 0, 65, 82
2, 150490, Note_on_c, 0, 54, 72
2, 150496, Note_on_c, 0, 77, 89
2, 150496, Note_on_c, 0, 86, 90
2, 150498, Note_on_c, 0, 89, 80
2, 150504, Note_on_c, 0, 60, 66
2, 150510, Note_on_c, 0, 59, 50
2, 150532, Note_on_c, 0, 59, 0
2, 150644, Control_c, 0, 64, 127
2, 150778, Note_on_c, 0, 89, 0
2, 150788, Note_on_c, 0, 77, 0
2, 150792, Note_on_c, 0, 65, 0
2, 150800, Note_on_c, 0, 86, 0
2, 150800, Note_on_c, 0, 54, 0
2, 150810, Note_on_c, 0, 60, 0
2, 150818, Note_on_c, 0, 58, 0
2, 150830, Control_c, 0, 64, 0
2, 150836, Note_on_c, 0, 65, 72
2, 150840, Note_on_c, 0, 91, 77
2, 150840, Note_on_c, 0, 79, 66
2, 150844, Note_on_c, 0, 54, 53
2, 150848, Note_on_c, 0, 58, 28
2, 150850, Note_on_c, 0, 60, 63
2, 150868, Note_on_c, 0, 79, 0
2, 150880, Note_on_c, 0, 60, 0
2, 150882, Note_on_c, 0, 65, 0
2, 150886, Note_on_c, 0, 91, 0
2, 150908, Note_on_c, 0, 54, 0
2, 150912, Note_on_c, 0, 58, 0
2, 151090, Note_on_c, 0, 65, 81
2, 151090, Note_on_c, 0, 58, 71
2, 151092, Note_on_c, 0, 54, 69
2, 151094, Note_on_c, 0, 91, 81
2, 151094, Note_on_c, 0, 60, 72
2, 151094, Note_on_c, 0, 88, 80
2, 151094, Note_on_c, 0, 79, 84
2, 151226, Control_c, 0, 64, 127
2, 151384, Note_on_c, 0, 91, 0
2, 151386, Note_on_c, 0, 79, 0
2, 151408, Note_on_c, 0, 88, 0
2, 151416, Note_on_c, 0, 65, 0
2, 151426, Note_on_c, 0, 54, 0
2, 151430, Note_on_c, 0, 60, 0
2, 151440, Note_on_c, 0, 58, 0
2, 151468, Note_on_c, 0, 65, 69
2, 151472, Note_on_c, 0, 54, 62
2, 151474, Note_on_c, 0, 92, 83
2, 151476, Note_on_c, 0, 80, 68
2, 151476, Note_on_c, 0, 58, 53
2, 151478, Note_on_c, 0, 87, 74
2, 151482, Note_on_c, 0, 60, 74
2, 151668, Note_on_c, 0, 60, 0
2, 151700, Note_on_c, 0, 65, 0
2, 151722, Note_on_c, 0, 80, 0
2, 151722, Note_on_c, 0, 92, 0
2, 151750, Note_on_c, 0, 87, 0
2, 151842, Note_on_c, 0, 54, 0
2, 151846, Note_on_c, 0, 58, 0
2, 151862, Control_c, 0, 64, 0
2, 151868, Note_on_c, 0, 91, 85
2, 151870, Note_on_c, 0, 53, 78
2, 151870, Note_on_c, 0, 64, 81
2, 151870, Note_on_c, 0, 59, 81
2, 151872, Note_on_c, 0, 86, 94
2, 151872, Note_on_c, 0, 79, 80
2, 151896, Note_on_c, 0, 89, 24
2, 151920, Note_on_c, 0, 89, 0
2, 152048, Control_c, 0, 64, 127
2, 152138, Note_on_c, 0, 79, 0
2, 152164, Note_on_c, 0, 91, 0
2, 152178, Note_on_c, 0, 86, 0
2, 152190, Note_on_c, 0, 64, 0
2, 152192, Note_on_c, 0, 53, 0
2, 152212, Note_on_c, 0, 59, 0
2, 152264, Note_on_c, 0, 90, 83
2, 152268, Note_on_c, 0, 86, 94
2, 152268, Note_on_c, 0, 81, 82
2, 152270, Note_on_c, 0, 59, 78
2, 152270, Note_on_c, 0, 64, 82
2, 152272, Note_on_c, 0, 53, 80
2, 152292, Control_c, 0, 64, 0
2, 152396, Control_c, 0, 64, 127
2, 152490, Note_on_c, 0, 86, 0
2, 152508, Note_on_c, 0, 90, 0
2, 152528, Note_on_c, 0, 81, 0
2, 152538, Note_on_c, 0, 64, 0
2, 152544, Note_on_c, 0, 53, 0
2, 152562, Note_on_c, 0, 59, 0
2, 152634, Control_c, 0, 64, 0
2, 152636, Note_on_c, 0, 89, 78
2, 152640, Note_on_c, 0, 85, 78
2, 152640, Note_on_c, 0, 59, 80
2, 152640, Note_on_c, 0, 53, 77
2, 152642, Note_on_c, 0, 64, 76
2, 152644, Note_on_c, 0, 81, 68
2, 152814, Control_c, 0, 64, 127
2, 152818, Note_on_c, 0, 89, 0
2, 152854, Note_on_c, 0, 81, 0
2, 152878, Note_on_c, 0, 85, 0
2, 152886, Note_on_c, 0, 64, 0
2, 152896, Note_on_c, 0, 53, 0
2, 152912, Note_on_c, 0, 59, 0
2, 153010, Note_on_c, 0, 88, 80
2, 153012, Note_on_c, 0, 59, 78
2, 153016, Note_on_c, 0, 79, 68
2, 153018, Note_on_c, 0, 53, 74
2, 153018, Note_on_c, 0, 84, 74
2, 153020, Note_on_c, 0, 64, 74
2, 153036, Control_c, 0, 64, 0
2, 153120, Control_c, 0, 64, 127
2, 153188, Note_on_c, 0, 59, 0
2, 153194, Note_on_c, 0, 84, 0
2, 153198, Note_on_c, 0, 53, 0
2, 153202, Note_on_c, 0, 64, 0
2, 153206, Note_on_c, 0, 88, 0
2, 153222, Note_on_c, 0, 79, 0
2, 153396, Control_c, 0, 64, 0
2, 153398, Note_on_c, 0, 62, 87
2, 153398, Note_on_c, 0, 56, 87
2, 153398, Note_on_c, 0, 67, 94
2, 153400, Note_on_c, 0, 84, 94
2, 153402, Note_on_c, 0, 79, 92
2, 153404, Note_on_c, 0, 88, 90
2, 153590, Control_c, 0, 64, 127
2, 153704, Note_on_c, 0, 67, 0
2, 153706, Note_on_c, 0, 56, 0
2, 153708, Note_on_c, 0, 88, 0
2, 153712, Note_on_c, 0, 79, 0
2, 153722, Note_on_c, 0, 62, 0
2, 153726, Note_on_c, 0, 84, 0
2, 153782, Control_c, 0, 64, 0
2, 153788, Note_on_c, 0, 56, 81
2, 153788, Note_on_c, 0, 62, 79
2, 153788, Note_on_c, 0, 67, 88
2, 153790, Note_on_c, 0, 84, 79
2, 153792, Note_on_c, 0, 88, 82
2, 153794, Note_on_c, 0, 79, 78
2, 153936, Note_on_c, 0, 84, 0
2, 153960, Note_on_c, 0, 88, 0
2, 153962, Note_on_c, 0, 79, 0
2, 154040, Note_on_c, 0, 84, 15
2, 154102, Note_on_c, 0, 84, 0
2, 154128, Note_on_c, 0, 67, 0
2, 154132, Note_on_c, 0, 56, 0
2, 154156, Note_on_c, 0, 62, 0
2, 154180, Note_on_c, 0, 84, 91
2, 154182, Note_on_c, 0, 67, 85
2, 154182, Note_on_c, 0, 56, 80
2, 154182, Note_on_c, 0, 88, 87
2, 154184, Note_on_c, 0, 79, 84
2, 154186, Note_on_c, 0, 62, 80
2, 154438, Note_on_c, 0, 67, 0
2, 154460, Note_on_c, 0, 88, 0
2, 154460, Note_on_c, 0, 84, 0
2, 154464, Note_on_c, 0, 79, 0
2, 154464, Note_on_c, 0, 56, 0
2, 154484, Note_on_c, 0, 62, 0
2, 154538, Note_on_c, 0, 62, 84
2, 154538, Note_on_c, 0, 67, 89
2, 154540, Note_on_c, 0, 56, 78
2, 154542, Note_on_c, 0, 88, 79
2, 154542, Note_on_c, 0, 84, 79
2, 154544, Note_on_c, 0, 79, 75
2, 154712, Control_c, 0, 64, 127
2, 154786, Note_on_c, 0, 79, 0
2, 154788, Note_on_c, 0, 84, 0
2, 154804, Note_on_c, 0, 62, 0
2, 154804, Note_on_c, 0, 67, 0
2, 154818, Note_on_c, 0, 88, 0
2, 154866, Note_on_c, 0, 56, 0
2, 154936, Control_c, 0, 64, 0
2, 154938, Note_on_c, 0, 88, 88
2, 154938, Note_on_c, 0, 61, 76
2, 154938, Note_on_c, 0, 66, 82
2, 154940, Note_on_c, 0, 76, 84
2, 154940, Note_on_c, 0, 55, 80
2, 155130, Control_c, 0, 64, 127
2, 155232, Note_on_c, 0, 55, 0
2, 155278, Note_on_c, 0, 66, 0
2, 155292, Note_on_c, 0, 61, 0
2, 155304, Note_on_c, 0, 76, 0
2, 155328, Note_on_c, 0, 61, 19
2, 155330, Note_on_c, 0, 55, 68
2, 155336, Note_on_c, 0, 88, 0
2, 155380, Note_on_c, 0, 55, 0
2, 155414, Note_on_c, 0, 61, 0
2, 155462, Control_c, 0, 64, 0
2, 155484, Note_on_c, 0, 66, 86
2, 155484, Note_on_c, 0, 61, 75
2, 155486, Note_on_c, 0, 91, 81
2, 155488, Note_on_c, 0, 79, 80
2, 155490, Note_on_c, 0, 55, 89
2, 155496, Note_on_c, 0, 87, 53
2, 155504, Note_on_c, 0, 81, 45
2, 155526, Note_on_c, 0, 81, 0
2, 155606, Note_on_c, 0, 88, 31
2, 155636, Note_on_c, 0, 79, 0
2, 155640, Note_on_c, 0, 87, 0
2, 155654, Note_on_c, 0, 66, 0
2, 155656, Note_on_c, 0, 61, 0
2, 155658, Note_on_c, 0, 88, 0
2, 155662, Note_on_c, 0, 91, 0
2, 155662, Note_on_c, 0, 55, 0
2, 156062, Note_on_c, 0, 66, 74
2, 156062, Note_on_c, 0, 61, 64
2, 156066, Note_on_c, 0, 55, 77
2, 156068, Note_on_c, 0, 89, 82
2, 156070, Note_on_c, 0, 77, 85
2, 156186, Note_on_c, 0, 89, 0
2, 156200, Note_on_c, 0, 55, 0
2, 156204, Note_on_c, 0, 66, 0
2, 156218, Note_on_c, 0, 77, 0
2, 156252, Note_on_c, 0, 66, 44
2, 156256, Note_on_c, 0, 88, 55
2, 156258, Note_on_c, 0, 55, 55
2, 156270, Note_on_c, 0, 76, 49
2, 156330, Note_on_c, 0, 55, 0
2, 156336, Note_on_c, 0, 88, 0
2, 156364, Note_on_c, 0, 66, 0
2, 156376, Note_on_c, 0, 76, 0
2, 156416, Note_on_c, 0, 61, 0
2, 156452, Note_on_c, 0, 86, 79
2, 156456, Note_on_c, 0, 54, 52
2, 156456, Note_on_c, 0, 74, 66
2, 156458, Note_on_c, 0, 65, 62
2, 156462, Note_on_c, 0, 60, 61
2, 156646, Control_c, 0, 64, 127
2, 156770, Note_on_c, 0, 54, 0
2, 156852, Note_on_c, 0, 54, 60
2, 156860, Note_on_c, 0, 74, 0
2, 156864, Note_on_c, 0, 86, 0
2, 156912, Note_on_c, 0, 65, 0
2, 156970, Note_on_c, 0, 60, 0
2, 156972, Control_c, 0, 64, 0
2, 157024, Note_on_c, 0, 81, 95
2, 157024, Note_on_c, 0, 84, 85
2, 157024, Note_on_c, 0, 65, 64
2, 157034, Note_on_c, 0, 60, 65
2, 157182, Note_on_c, 0, 54, 0
2, 157218, Note_on_c, 0, 54, 48
2, 157302, Note_on_c, 0, 65, 0
2, 157372, Note_on_c, 0, 84, 0
2, 157374, Note_on_c, 0, 60, 0
2, 157392, Note_on_c, 0, 81, 0
2, 157404, Note_on_c, 0, 80, 56
2, 157406, Note_on_c, 0, 83, 46
2, 157408, Note_on_c, 0, 60, 32
2, 157410, Note_on_c, 0, 65, 58
2, 157460, Control_c, 0, 64, 127
2, 157512, Note_on_c, 0, 65, 0
2, 157566, Note_on_c, 0, 54, 0
2, 157566, Note_on_c, 0, 80, 0
2, 157572, Note_on_c, 0, 83, 0
2, 157612, Note_on_c, 0, 54, 65
2, 157620, Note_on_c, 0, 65, 62
2, 157624, Note_on_c, 0, 84, 62
2, 157630, Note_on_c, 0, 81, 50
2, 157738, Note_on_c, 0, 65, 0
2, 157750, Note_on_c, 0, 60, 0
2, 157884, Note_on_c, 0, 81, 0
2, 157896, Note_on_c, 0, 54, 0
2, 157928, Note_on_c, 0, 84, 0
2, 157992, Note_on_c, 0, 53, 71
2, 157994, Note_on_c, 0, 86, 80
2, 157996, Note_on_c, 0, 64, 67
2, 157998, Note_on_c, 0, 77, 60
2, 158000, Note_on_c, 0, 59, 66
2, 158002, Note_on_c, 0, 81, 62
2, 158012, Control_c, 0, 64, 0
2, 158046, Note_on_c, 0, 64, 0
2, 158070, Note_on_c, 0, 59, 0
2, 158070, Control_c, 0, 64, 127
2, 158112, Note_on_c, 0, 53, 0
2, 158302, Note_on_c, 0, 86, 0
2, 158318, Note_on_c, 0, 77, 0
2, 158322, Note_on_c, 0, 81, 0
2, 158366, Note_on_c, 0, 43, 91
2, 158368, Note_on_c, 0, 31, 95
2, 158390, Control_c, 0, 64, 0
2, 158462, Control_c, 0, 64, 127
2, 158546, Note_on_c, 0, 31, 0
2, 158588, Note_on_c, 0, 43, 0
2, 158966, Note_on_c, 0, 75, 83
2, 158970, Note_on_c, 0, 68, 83
2, 158970, Note_on_c, 0, 71, 84
2, 158970, Note_on_c, 0, 65, 95
2, 158974, Note_on_c, 0, 64, 69
2, 158982, Control_c, 0, 64, 0
2, 158994, Note_on_c, 0, 62, 31
2, 159016, Note_on_c, 0, 62, 0
2, 159300, Note_on_c, 0, 64, 0
2, 159724, Note_on_c, 0, 75, 0
2, 159742, Note_on_c, 0, 65, 0
2, 159744, Note_on_c, 0, 68, 0
2, 159756, Note_on_c, 0, 71, 0
2, 160282, Note_on_c, 0, 53, 71
2, 160284, Note_on_c, 0, 61, 81
2, 160290, Note_on_c, 0, 56, 62
2, 160300, Note_on_c, 0, 55, 68
2, 160322, Note_on_c, 0, 55, 0
2, 160410, Note_on_c, 0, 53, 0
2, 160420, Note_on_c, 0, 61, 0
2, 160424, Note_on_c, 0, 56, 0
2, 160666, Note_on_c, 0, 56, 76
2, 160668, Note_on_c, 0, 54, 68
2, 160668, Note_on_c, 0, 62, 77
2, 160800, Note_on_c, 0, 62, 0
2, 160810, Note_on_c, 0, 54, 0
2, 160832, Note_on_c, 0, 56, 0
2, 161072, Note_on_c, 0, 63, 60
2, 161082, Note_on_c, 0, 57, 64
2, 161086, Note_on_c, 0, 55, 62
2, 161276, Note_on_c, 0, 86, 70
2, 161334, Note_on_c, 0, 86, 0
2, 161384, Note_on_c, 0, 89, 80
2, 161488, Note_on_c, 0, 87, 64
2, 161502, Note_on_c, 0, 89, 0
2, 161514, Note_on_c, 0, 88, 34
2, 161538, Note_on_c, 0, 88, 0
2, 161550, Note_on_c, 0, 57, 0
2, 161552, Note_on_c, 0, 63, 0
2, 161558, Note_on_c, 0, 87, 0
2, 161560, Note_on_c, 0, 55, 0
2, 161858, Note_on_c, 0, 63, 53
2, 161864, Note_on_c, 0, 57, 55
2, 161876, Note_on_c, 0, 55, 36
2, 161900, Note_on_c, 0, 55, 0
2, 161908, Note_on_c, 0, 63, 0
2, 161910, Note_on_c, 0, 57, 0
2, 162214, Note_on_c, 0, 63, 61
2, 162220, Note_on_c, 0, 57, 62
2, 162224, Note_on_c, 0, 55, 60
2, 162246, Note_on_c, 0, 55, 0
2, 162258, Note_on_c, 0, 57, 0
2, 162262, Note_on_c, 0, 63, 0
2, 162420, Note_on_c, 0, 51, 64
2, 162422, Note_on_c, 0, 62, 72
2, 162424, Note_on_c, 0, 57, 64
2, 162466, Note_on_c, 0, 57, 0
2, 162468, Note_on_c, 0, 62, 0
2, 162472, Note_on_c, 0, 51, 0
2, 162606, Note_on_c, 0, 62, 73
2, 162606, Note_on_c, 0, 51, 64
2, 162610, Note_on_c, 0, 57, 66
2, 162656, Note_on_c, 0, 62, 0
2, 162672, Note_on_c, 0, 57, 0
2, 162676, Note_on_c, 0, 51, 0
2, 162882, Note_on_c, 0, 62, 75
2, 162884, Note_on_c, 0, 51, 60
2, 162888, Note_on_c, 0, 57, 61
2, 162920, Note_on_c, 0, 57, 0
2, 162930, Note_on_c, 0, 51, 0
2, 162932, Note_on_c, 0, 62, 0
2, 163172, Note_on_c, 0, 62, 69
2, 163174, Note_on_c, 0, 51, 67
2, 163186, Note_on_c, 0, 57, 59
2, 163210, Note_on_c, 0, 57, 0
2, 163222, Note_on_c, 0, 62, 0
2, 163236, Note_on_c, 0, 51, 0
2, 163490, Note_on_c, 0, 62, 71
2, 163494, Note_on_c, 0, 51, 65
2, 163494, Note_on_c, 0, 57, 62
2, 163520, Note_on_c, 0, 62, 0
2, 163536, Note_on_c, 0, 57, 0
2, 163546, Note_on_c, 0, 51, 0
2, 163586, Note_on_c, 0, 89, 90
2, 163586, Note_on_c, 0, 96, 83
2, 163624, Note_on_c, 0, 89, 0
2, 163626, Note_on_c, 0, 96, 0
2, 163678, Note_on_c, 0, 96, 57
2, 163686, Note_on_c, 0, 89, 55
2, 163714, Note_on_c, 0, 57, 31
2, 163742, Note_on_c, 0, 57, 0
2, 163756, Note_on_c, 0, 89, 0
2, 163758, Note_on_c, 0, 96, 0
2, 163772, Note_on_c, 0, 86, 62
2, 163804, Note_on_c, 0, 86, 0
2, 163894, Note_on_c, 0, 62, 48
2, 163896, Note_on_c, 0, 51, 36
2, 163904, Note_on_c, 0, 57, 36
2, 163926, Note_on_c, 0, 62, 0
2, 163934, Note_on_c, 0, 57, 0
2, 163938, Note_on_c, 0, 51, 0
2, 164330, Note_on_c, 0, 63, 67
2, 164332, Note_on_c, 0, 53, 61
2, 164356, Note_on_c, 0, 58, 30
2, 164356, Note_on_c, 0, 53, 0
2, 164364, Note_on_c, 0, 63, 0
2, 164382, Note_on_c, 0, 58, 0
2, 164624, Note_on_c, 0, 53, 68
2, 164624, Note_on_c, 0, 63, 71
2, 164638, Note_on_c, 0, 58, 50
2, 164698, Note_on_c, 0, 53, 0
2, 164700, Note_on_c, 0, 63, 0
2, 164720, Note_on_c, 0, 58, 0
2, 164896, Note_on_c, 0, 64, 64
2, 164898, Note_on_c, 0, 54, 52
2, 164904, Note_on_c, 0, 59, 64
2, 165026, Note_on_c, 0, 59, 0
2, 165044, Note_on_c, 0, 54, 0
2, 165092, Note_on_c, 0, 64, 0
2, 165094, Note_on_c, 0, 95, 44
2, 165132, Note_on_c, 0, 95, 0
2, 165210, Note_on_c, 0, 98, 45
2, 165232, Note_on_c, 0, 98, 0
2, 165390, Note_on_c, 0, 103, 66
2, 165400, Note_on_c, 0, 65, 48
2, 165414, Note_on_c, 0, 60, 43
2, 165424, Note_on_c, 0, 65, 0
2, 165426, Note_on_c, 0, 103, 0
2, 165454, Note_on_c, 0, 60, 0
2, 165490, Note_on_c, 0, 107, 81
2, 165544, Note_on_c, 0, 107, 0
2, 165674, Note_on_c, 0, 107, 55
2, 165678, Note_on_c, 0, 105, 67
2, 165700, Note_on_c, 0, 105, 0
2, 165714, Note_on_c, 0, 107, 0
2, 165860, Note_on_c, 0, 62, 58
2, 165862, Note_on_c, 0, 51, 47
2, 165870, Note_on_c, 0, 57, 50
2, 165892, Note_on_c, 0, 62, 0
2, 165912, Note_on_c, 0, 51, 0
2, 165940, Note_on_c, 0, 57, 0
2, 166052, Note_on_c, 0, 108, 66
2, 166058, Note_on_c, 0, 96, 47
2, 166086, Note_on_c, 0, 96, 0
2, 166100, Note_on_c, 0, 108, 0
2, 166158, Note_on_c, 0, 108, 54
2, 166206, Note_on_c, 0, 108, 0
2, 166344, Note_on_c, 0, 51, 44
2, 166346, Note_on_c, 0, 62, 45
2, 166354, Note_on_c, 0, 57, 36
2, 166368, Note_on_c, 0, 51, 0
2, 166374, Note_on_c, 0, 62, 0
2, 166384, Note_on_c, 0, 57, 0
2, 166480, Note_on_c, 0, 108, 75
2, 166480, Note_on_c, 0, 57, 50
2, 166492, Note_on_c, 0, 96, 48
2, 166504, Note_on_c, 0, 57, 0
2, 166508, Note_on_c, 0, 98, 34
2, 166526, Note_on_c, 0, 96, 0
2, 166536, Note_on_c, 0, 98, 0
2, 166560, Note_on_c, 0, 108, 0
2, 166620, Note_on_c, 0, 108, 58
2, 166630, Note_on_c, 0, 96, 54
2, 166672, Note_on_c, 0, 96, 0
2, 166674, Note_on_c, 0, 108, 0
2, 166770, Note_on_c, 0, 62, 55
2, 166780, Note_on_c, 0, 57, 47
2, 166788, Note_on_c, 0, 51, 27
2, 166798, Note_on_c, 0, 62, 0
2, 166808, Note_on_c, 0, 57, 0
2, 166810, Note_on_c, 0, 51, 0
2, 166976, Note_on_c, 0, 108, 65
2, 166976, Note_on_c, 0, 96, 56
2, 167010, Note_on_c, 0, 96, 0
2, 167014, Note_on_c, 0, 108, 0
2, 167070, Note_on_c, 0, 108, 57
2, 167076, Note_on_c, 0, 96, 40
2, 167104, Note_on_c, 0, 96, 0
2, 167120, Note_on_c, 0, 108, 0
2, 167336, Note_on_c, 0, 63, 64
2, 167338, Note_on_c, 0, 53, 63
2, 167352, Note_on_c, 0, 58, 40
2, 167370, Note_on_c, 0, 53, 0
2, 167376, Note_on_c, 0, 63, 0
2, 167384, Note_on_c, 0, 58, 0
2, 167596, Note_on_c, 0, 63, 71
2, 167598, Note_on_c, 0, 53, 66
2, 167620, Note_on_c, 0, 58, 33
2, 167626, Note_on_c, 0, 53, 0
2, 167640, Note_on_c, 0, 63, 0
2, 167656, Note_on_c, 0, 58, 0
2, 167792, Note_on_c, 0, 64, 66
2, 167798, Note_on_c, 0, 54, 39
2, 167800, Note_on_c, 0, 59, 60
2, 167844, Note_on_c, 0, 64, 0
2, 167846, Note_on_c, 0, 59, 0
2, 167862, Note_on_c, 0, 54, 0
2, 168054, Note_on_c, 0, 65, 58
2, 168066, Note_on_c, 0, 60, 51
2, 168078, Note_on_c, 0, 55, 36
2, 168078, Note_on_c, 0, 65, 0
2, 168094, Note_on_c, 0, 60, 0
2, 168112, Note_on_c, 0, 55, 0
2, 168164, Note_on_c, 0, 108, 68
2, 168170, Note_on_c, 0, 96, 57
2, 168208, Note_on_c, 0, 96, 0
2, 168212, Note_on_c, 0, 108, 0
2, 168264, Note_on_c, 0, 108, 62
2, 168352, Note_on_c, 0, 108, 0
2, 168362, Note_on_c, 0, 107, 71
2, 168430, Note_on_c, 0, 107, 0
2, 168480, Note_on_c, 0, 103, 58
2, 168538, Note_on_c, 0, 103, 0
2, 168588, Note_on_c, 0, 98, 62
2, 168608, Note_on_c, 0, 53, 1
2, 168628, Note_on_c, 0, 59, 27
2, 168630, Note_on_c, 0, 98, 0
2, 168672, Note_on_c, 0, 59, 0
2, 168686, Note_on_c, 0, 53, 0
2, 168930, Note_on_c, 0, 51, 62
2, 168932, Note_on_c, 0, 62, 65
2, 168940, Note_on_c, 0, 57, 56
2, 168946, Note_on_c, 0, 108, 84
2, 168990, Note_on_c, 0, 62, 0
2, 169004, Note_on_c, 0, 108, 0
2, 169008, Note_on_c, 0, 51, 0
2, 169046, Note_on_c, 0, 108, 68
2, 169096, Note_on_c, 0, 57, 0
2, 169130, Note_on_c, 0, 108, 0
2, 169132, Note_on_c, 0, 107, 62
2, 169244, Note_on_c, 0, 103, 63
2, 169256, Note_on_c, 0, 51, 20
2, 169258, Note_on_c, 0, 57, 36
2, 169264, Note_on_c, 0, 107, 0
2, 169314, Note_on_c, 0, 57, 0
2, 169316, Note_on_c, 0, 103, 0
2, 169332, Note_on_c, 0, 98, 35
2, 169358, Note_on_c, 0, 51, 0
2, 169388, Note_on_c, 0, 98, 0
2, 169420, Note_on_c, 0, 57, 41
2, 169420, Note_on_c, 0, 62, 27
2, 169444, Note_on_c, 0, 62, 0
2, 169456, Note_on_c, 0, 106, 75
2, 169478, Note_on_c, 0, 57, 0
2, 169548, Note_on_c, 0, 106, 0
2, 169552, Note_on_c, 0, 102, 53
2, 169594, Note_on_c, 0, 102, 0
2, 169618, Note_on_c, 0, 57, 32
2, 169660, Note_on_c, 0, 57, 0
2, 169860, Note_on_c, 0, 63, 68
2, 169860, Note_on_c, 0, 53, 64
2, 169874, Note_on_c, 0, 58, 42
2, 169906, Note_on_c, 0, 63, 0
2, 169922, Note_on_c, 0, 53, 0
2, 169934, Note_on_c, 0, 58, 0
2, 170088, Note_on_c, 0, 105, 91
2, 170096, Note_on_c, 0, 59, 51
2, 170096, Note_on_c, 0, 64, 34
2, 170126, Note_on_c, 0, 64, 0
2, 170128, Note_on_c, 0, 59, 0
2, 170158, Note_on_c, 0, 105, 0
2, 170196, Note_on_c, 0, 101, 57
2, 170250, Note_on_c, 0, 101, 0
2, 170304, Note_on_c, 0, 104, 72
2, 170328, Note_on_c, 0, 59, 55
2, 170332, Note_on_c, 0, 64, 38
2, 170360, Note_on_c, 0, 64, 0
2, 170378, Note_on_c, 0, 104, 0
2, 170390, Note_on_c, 0, 59, 0
2, 170426, Note_on_c, 0, 100, 48
2, 170460, Note_on_c, 0, 100, 0
2, 170502, Note_on_c, 0, 103, 66
2, 170566, Note_on_c, 0, 58, 35
2, 170584, Note_on_c, 0, 102, 59
2, 170588, Note_on_c, 0, 103, 0
2, 170632, Note_on_c, 0, 58, 0
2, 170644, Note_on_c, 0, 102, 0
2, 170700, Note_on_c, 0, 98, 49
2, 170736, Note_on_c, 0, 98, 0
2, 170800, Note_on_c, 0, 101, 76
2, 170878, Note_on_c, 0, 101, 0
2, 170898, Note_on_c, 0, 99, 56
2, 170950, Note_on_c, 0, 99, 0
2, 170986, Note_on_c, 0, 95, 35
2, 171022, Note_on_c, 0, 95, 0
2, 171060, Note_on_c, 0, 98, 54
2, 171068, Note_on_c, 0, 100, 47
2, 171114, Note_on_c, 0, 100, 0
2, 171156, Note_on_c, 0, 97, 74
2, 171170, Note_on_c, 0, 98, 0
2, 171228, Note_on_c, 0, 97, 0
2, 171274, Note_on_c, 0, 98, 34
2, 171276, Note_on_c, 0, 96, 35
2, 171308, Note_on_c, 0, 96, 0
2, 171310, Note_on_c, 0, 98, 0
2, 171342, Note_on_c, 0, 91, 70
2, 171374, Note_on_c, 0, 59, 30
2, 171408, Note_on_c, 0, 59, 0
2, 171408, Note_on_c, 0, 91, 0
2, 171420, Note_on_c, 0, 90, 49
2, 171526, Note_on_c, 0, 90, 0
2, 171532, Note_on_c, 0, 89, 59
2, 171534, Note_on_c, 0, 54, 33
2, 171556, Note_on_c, 0, 59, 35
2, 171584, Note_on_c, 0, 89, 0
2, 171600, Note_on_c, 0, 59, 0
2, 171616, Note_on_c, 0, 87, 44
2, 171642, Note_on_c, 0, 54, 0
2, 171708, Note_on_c, 0, 87, 0
2, 171734, Note_on_c, 0, 84, 40
2, 171776, Note_on_c, 0, 84, 0
2, 171788, Note_on_c, 0, 57, 24
2, 171804, Note_on_c, 0, 89, 65
2, 171816, Note_on_c, 0, 57, 0
2, 171906, Note_on_c, 0, 89, 0
2, 171908, Note_on_c, 0, 86, 46
2, 171940, Note_on_c, 0, 86, 0
2, 171990, Note_on_c, 0, 87, 59
2, 172074, Note_on_c, 0, 87, 0
2, 172094, Note_on_c, 0, 79, 48
2, 172128, Note_on_c, 0, 79, 0
2, 172192, Note_on_c, 0, 79, 30
2, 172232, Note_on_c, 0, 79, 0
2, 172324, Note_on_c, 0, 57, 24
2, 172354, Note_on_c, 0, 57, 0
2, 172380, Note_on_c, 0, 79, 33
2, 172460, Note_on_c, 0, 79, 0
2, 172584, Note_on_c, 0, 80, 57
2, 172670, Note_on_c, 0, 80, 0
2, 172776, Note_on_c, 0, 53, 56
2, 172782, Note_on_c, 0, 63, 49
2, 172794, Note_on_c, 0, 58, 38
2, 172868, Note_on_c, 0, 63, 0
2, 172876, Note_on_c, 0, 53, 0
2, 172884, Note_on_c, 0, 58, 0
2, 173038, Note_on_c, 0, 54, 38
2, 173046, Note_on_c, 0, 64, 38
2, 173058, Note_on_c, 0, 59, 48
2, 173344, Note_on_c, 0, 54, 0
2, 173344, Note_on_c, 0, 68, 63
2, 173356, Note_on_c, 0, 59, 0
2, 173378, Note_on_c, 0, 64, 0
2, 173404, Note_on_c, 0, 68, 0
2, 173464, Note_on_c, 0, 70, 55
2, 173530, Note_on_c, 0, 70, 0
2, 173554, Note_on_c, 0, 67, 36
2, 173602, Note_on_c, 0, 67, 0
2, 173660, Note_on_c, 0, 69, 65
2, 173738, Note_on_c, 0, 69, 0
2, 173770, Note_on_c, 0, 70, 43
2, 173834, Note_on_c, 0, 70, 0
2, 173864, Note_on_c, 0, 71, 55
2, 173912, Note_on_c, 0, 71, 0
2, 173938, Note_on_c, 0, 74, 66
2, 174016, Note_on_c, 0, 74, 0
2, 174034, Note_on_c, 0, 71, 50
2, 174094, Note_on_c, 0, 71, 0
2, 174142, Note_on_c, 0, 72, 28
2, 174222, Note_on_c, 0, 72, 0
2, 174240, Note_on_c, 0, 74, 62
2, 174288, Note_on_c, 0, 53, 36
2, 174290, Note_on_c, 0, 63, 32
2, 174304, Note_on_c, 0, 58, 28
2, 174306, Note_on_c, 0, 74, 0
2, 174340, Note_on_c, 0, 75, 47
2, 174384, Note_on_c, 0, 75, 0
2, 174420, Note_on_c, 0, 77, 44
2, 174438, Note_on_c, 0, 53, 0
2, 174472, Note_on_c, 0, 63, 0
2, 174502, Note_on_c, 0, 58, 0
2, 174504, Note_on_c, 0, 77, 0
2, 174516, Note_on_c, 0, 78, 30
2, 174588, Note_on_c, 0, 78, 0
2, 174620, Note_on_c, 0, 80, 55
2, 174652, Note_on_c, 0, 54, 30
2, 174654, Note_on_c, 0, 64, 31
2, 174662, Note_on_c, 0, 80, 0
2, 174662, Note_on_c, 0, 59, 44
2, 174726, Note_on_c, 0, 83, 43
2, 174792, Note_on_c, 0, 83, 0
2, 174820, Note_on_c, 0, 85, 51
2, 174822, Note_on_c, 0, 64, 0
2, 174824, Note_on_c, 0, 59, 0
2, 174858, Note_on_c, 0, 85, 0
2, 174882, Note_on_c, 0, 54, 0
2, 174892, Note_on_c, 0, 88, 50
2, 174980, Note_on_c, 0, 88, 0
2, 174996, Note_on_c, 0, 90, 59
2, 175010, Note_on_c, 0, 62, 53
2, 175020, Note_on_c, 0, 51, 34
2, 175030, Note_on_c, 0, 57, 44
2, 175032, Note_on_c, 0, 62, 0
2, 175050, Note_on_c, 0, 51, 0
2, 175058, Note_on_c, 0, 57, 0
2, 175084, Note_on_c, 0, 90, 0
2, 175098, Note_on_c, 0, 92, 53
2, 175154, Note_on_c, 0, 92, 0
2, 175212, Note_on_c, 0, 95, 48
2, 175318, Note_on_c, 0, 95, 0
2, 175338, Note_on_c, 0, 98, 22
2, 175420, Note_on_c, 0, 95, 61
2, 175428, Note_on_c, 0, 98, 0
2, 175432, Note_on_c, 0, 57, 41
2, 175464, Note_on_c, 0, 57, 0
2, 175472, Note_on_c, 0, 95, 0
2, 175510, Note_on_c, 0, 96, 58
2, 175590, Note_on_c, 0, 96, 0
2, 175600, Note_on_c, 0, 98, 62
2, 175658, Note_on_c, 0, 98, 0
2, 175716, Note_on_c, 0, 99, 34
2, 175808, Note_on_c, 0, 99, 0
2, 175826, Note_on_c, 0, 63, 40
2, 175828, Note_on_c, 0, 53, 42
2, 175832, Note_on_c, 0, 101, 62
2, 175842, Note_on_c, 0, 58, 37
2, 175844, Note_on_c, 0, 89, 60
2, 175894, Note_on_c, 0, 89, 0
2, 175906, Note_on_c, 0, 101, 0
2, 175954, Note_on_c, 0, 63, 0
2, 175982, Note_on_c, 0, 101, 57
2, 175990, Note_on_c, 0, 89, 53
2, 176018, Note_on_c, 0, 53, 0
2, 176048, Note_on_c, 0, 58, 0
2, 176048, Note_on_c, 0, 101, 0
2, 176052, Note_on_c, 0, 89, 0
2, 176116, Note_on_c, 0, 101, 62
2, 176122, Note_on_c, 0, 89, 47
2, 176144, Note_on_c, 0, 53, 42
2, 176146, Note_on_c, 0, 63, 30
2, 176162, Note_on_c, 0, 58, 30
2, 176176, Note_on_c, 0, 101, 0
2, 176178, Note_on_c, 0, 89, 0
2, 176194, Note_on_c, 0, 63, 0
2, 176224, Note_on_c, 0, 101, 51
2, 176228, Note_on_c, 0, 89, 36
2, 176270, Note_on_c, 0, 53, 0
2, 176312, Note_on_c, 0, 99, 55
2, 176314, Note_on_c, 0, 101, 0
2, 176334, Note_on_c, 0, 89, 0
2, 176378, Note_on_c, 0, 99, 0
2, 176406, Note_on_c, 0, 89, 61
2, 176406, Note_on_c, 0, 101, 72
2, 176420, Note_on_c, 0, 58, 0
2, 176472, Note_on_c, 0, 101, 0
2, 176478, Note_on_c, 0, 89, 0
2, 176538, Note_on_c, 0, 101, 57
2, 176550, Note_on_c, 0, 62, 48
2, 176552, Note_on_c, 0, 89, 41
2, 176566, Note_on_c, 0, 57, 45
2, 176570, Note_on_c, 0, 51, 19
2, 176596, Note_on_c, 0, 62, 0
2, 176598, Note_on_c, 0, 57, 0
2, 176602, Note_on_c, 0, 101, 0
2, 176610, Note_on_c, 0, 89, 0
2, 176612, Note_on_c, 0, 51, 0
2, 176652, Note_on_c, 0, 99, 68
2, 176706, Note_on_c, 0, 99, 0
2, 176736, Note_on_c, 0, 101, 68
2, 176736, Note_on_c, 0, 89, 64
2, 176796, Note_on_c, 0, 101, 0
2, 176798, Note_on_c, 0, 89, 0
2, 176872, Note_on_c, 0, 101, 66
2, 176874, Note_on_c, 0, 89, 62
2, 176926, Note_on_c, 0, 89, 0
2, 176928, Note_on_c, 0, 101, 0
2, 177002, Note_on_c, 0, 101, 62
2, 177008, Note_on_c, 0, 89, 56
2, 177020, Note_on_c, 0, 51, 38
2, 177026, Note_on_c, 0, 62, 27
2, 177040, Note_on_c, 0, 57, 32
2, 177074, Note_on_c, 0, 57, 0
2, 177074, Note_on_c, 0, 62, 0
2, 177076, Note_on_c, 0, 101, 0
2, 177078, Note_on_c, 0, 89, 0
2, 177094, Note_on_c, 0, 99, 33
2, 177100, Note_on_c, 0, 51, 0
2, 177118, Note_on_c, 0, 99, 0
2, 177168, Note_on_c, 0, 101, 66
2, 177178, Note_on_c, 0, 89, 39
2, 177236, Note_on_c, 0, 101, 0
2, 177242, Note_on_c, 0, 89, 0
2, 177304, Note_on_c, 0, 62, 45
2, 177306, Note_on_c, 0, 51, 35
2, 177308, Note_on_c, 0, 57, 58
2, 177332, Note_on_c, 0, 99, 43
2, 177354, Note_on_c, 0, 62, 0
2, 177354, Note_on_c, 0, 99, 0
2, 177366, Note_on_c, 0, 57, 0
2, 177368, Note_on_c, 0, 51, 0
2, 177414, Note_on_c, 0, 101, 67
2, 177418, Note_on_c, 0, 89, 67
2, 177462, Note_on_c, 0, 89, 0
2, 177472, Note_on_c, 0, 101, 0
2, 177560, Note_on_c, 0, 101, 64
2, 177560, Note_on_c, 0, 89, 68
2, 177576, Note_on_c, 0, 62, 58
2, 177584, Note_on_c, 0, 51, 39
2, 177584, Note_on_c, 0, 57, 55
2, 177610, Note_on_c, 0, 89, 0
2, 177612, Note_on_c, 0, 101, 0
2, 177616, Note_on_c, 0, 62, 0
2, 177620, Note_on_c, 0, 57, 0
2, 177648, Note_on_c, 0, 51, 0
2, 177760, Note_on_c, 0, 101, 70
2, 177764, Note_on_c, 0, 89, 68
2, 177776, Note_on_c, 0, 62, 39
2, 177780, Note_on_c, 0, 51, 28
2, 177780, Note_on_c, 0, 57, 55
2, 177794, Note_on_c, 0, 89, 0
2, 177810, Note_on_c, 0, 101, 0
2, 177828, Note_on_c, 0, 62, 0
2, 177866, Note_on_c, 0, 51, 0
2, 177870, Note_on_c, 0, 102, 74
2, 177872, Note_on_c, 0, 90, 71
2, 177914, Note_on_c, 0, 57, 0
2, 177926, Note_on_c, 0, 102, 0
2, 177928, Note_on_c, 0, 90, 0
2, 177940, Note_on_c, 0, 101, 49
2, 177948, Note_on_c, 0, 89, 36
2, 178012, Note_on_c, 0, 89, 0
2, 178012, Note_on_c, 0, 101, 0
2, 178080, Note_on_c, 0, 99, 36
2, 178080, Note_on_c, 0, 57, 44
2, 178082, Note_on_c, 0, 87, 65
2, 178128, Note_on_c, 0, 87, 0
2, 178146, Note_on_c, 0, 57, 0
2, 178152, Note_on_c, 0, 99, 0
2, 178192, Note_on_c, 0, 96, 53
2, 178204, Note_on_c, 0, 84, 38
2, 178240, Note_on_c, 0, 84, 0
2, 178284, Note_on_c, 0, 96, 0
2, 178324, Note_on_c, 0, 57, 30
2, 178368, Note_on_c, 0, 96, 44
2, 178374, Note_on_c, 0, 57, 0
2, 178386, Note_on_c, 0, 84, 36
2, 178410, Note_on_c, 0, 84, 0
2, 178436, Note_on_c, 0, 96, 0
2, 178532, Note_on_c, 0, 62, 51
2, 178548, Note_on_c, 0, 57, 48
2, 178550, Note_on_c, 0, 51, 23
2, 178568, Note_on_c, 0, 62, 0
2, 178576, Note_on_c, 0, 51, 0
2, 178580, Note_on_c, 0, 57, 0
2, 178834, Note_on_c, 0, 62, 63
2, 178836, Note_on_c, 0, 51, 63
2, 178844, Note_on_c, 0, 57, 62
2, 178872, Note_on_c, 0, 62, 0
2, 178872, Note_on_c, 0, 57, 0
2, 178886, Note_on_c, 0, 51, 0
2, 179116, Note_on_c, 0, 62, 60
2, 179116, Note_on_c, 0, 51, 60
2, 179118, Note_on_c, 0, 57, 60
2, 179142, Note_on_c, 0, 62, 0
2, 179160, Note_on_c, 0, 57, 0
2, 179164, Note_on_c, 0, 51, 0
2, 179414, Note_on_c, 0, 62, 56
2, 179414, Note_on_c, 0, 51, 56
2, 179422, Note_on_c, 0, 57, 56
2, 179430, Note_on_c, 0, 55, 56
2, 179452, Note_on_c, 0, 57, 0
2, 179456, Note_on_c, 0, 62, 0
2, 179460, Note_on_c, 0, 55, 0
2, 179472, Note_on_c, 0, 51, 0
2, 179690, Note_on_c, 0, 62, 54
2, 179696, Note_on_c, 0, 51, 54
2, 179702, Note_on_c, 0, 57, 54
2, 179704, Note_on_c, 0, 55, 54
2, 179718, Note_on_c, 0, 62, 0
2, 179724, Note_on_c, 0, 51, 0
2, 179730, Note_on_c, 0, 55, 0
2, 179732, Note_on_c, 0, 57, 0
2, 179974, Note_on_c, 0, 51, 50
2, 179978, Note_on_c, 0, 62, 50
2, 179984, Note_on_c, 0, 57, 50
2, 179998, Note_on_c, 0, 55, 50
2, 180004, Note_on_c, 0, 62, 0
2, 180010, Note_on_c, 0, 51, 0
2, 180034, Note_on_c, 0, 55, 0
2, 180050, Note_on_c, 0, 57, 0
2, 180076, Note_on_c, 0, 98, 48
2, 180080, Note_on_c, 0, 101, 48
2, 180124, Note_on_c, 0, 98, 0
2, 180130, Note_on_c, 0, 101, 0
2, 180168, Note_on_c, 0, 98, 47
2, 180176, Note_on_c, 0, 101, 47
2, 180268, Note_on_c, 0, 101, 0
2, 180278, Note_on_c, 0, 99, 45
2, 180288, Note_on_c, 0, 98, 0
2, 180292, Note_on_c, 0, 96, 45
2, 180336, Note_on_c, 0, 99, 0
2, 180344, Note_on_c, 0, 96, 0
2, 180368, Note_on_c, 0, 62, 44
2, 180368, Note_on_c, 0, 51, 44
2, 180388, Note_on_c, 0, 57, 44
2, 180390, Note_on_c, 0, 51, 0
2, 180396, Note_on_c, 0, 98, 44
2, 180398, Note_on_c, 0, 62, 0
2, 180400, Note_on_c, 0, 101, 44
2, 180420, Note_on_c, 0, 57, 0
2, 180430, Note_on_c, 0, 101, 0
2, 180438, Note_on_c, 0, 98, 0
2, 180478, Note_on_c, 0, 98, 43
2, 180482, Note_on_c, 0, 101, 43
2, 180534, Note_on_c, 0, 98, 0
2, 180540, Note_on_c, 0, 101, 0
2, 180568, Note_on_c, 0, 57, 41
2, 180594, Note_on_c, 0, 57, 0
2, 180754, Note_on_c, 0, 62, 37
2, 180764, Note_on_c, 0, 51, 37
2, 180764, Note_on_c, 0, 57, 37
2, 180770, Note_on_c, 0, 55, 37
2, 180788, Note_on_c, 0, 62, 0
2, 180790, Note_on_c, 0, 51, 0
2, 180796, Note_on_c, 0, 57, 0
2, 180798, Note_on_c, 0, 55, 0
2, 180944, Note_on_c, 0, 62, 34
2, 180952, Note_on_c, 0, 57, 34
2, 180956, Note_on_c, 0, 51, 34
2, 180966, Note_on_c, 0, 55, 34
2, 180968, Note_on_c, 0, 62, 0
2, 180978, Note_on_c, 0, 51, 0
2, 180996, Note_on_c, 0, 55, 0
2, 181000, Note_on_c, 0, 57, 0
2, 181024, Note_on_c, 0, 98, 33
2, 181028, Note_on_c, 0, 101, 33
2, 181058, Note_on_c, 0, 101, 0
2, 181064, Note_on_c, 0, 98, 0
2, 181134, Note_on_c, 0, 98, 32
2, 181134, Note_on_c, 0, 101, 32
2, 181152, Note_on_c, 0, 57, 31
2, 181180, Note_on_c, 0, 101, 0
2, 181180, Note_on_c, 0, 98, 0
2, 181180, Note_on_c, 0, 55, 31
2, 181194, Note_on_c, 0, 57, 0
2, 181248, Note_on_c, 0, 55, 0
2, 181248, Note_on_c, 0, 98, 30
2, 181248, Note_on_c, 0, 101, 30
2, 181274, Note_on_c, 0, 98, 0
2, 181278, Note_on_c, 0, 101, 0
2, 181338, Note_on_c, 0, 98, 29
2, 181346, Note_on_c, 0, 101, 29
2, 181358, Note_on_c, 0, 52, 28
2, 181372, Note_on_c, 0, 101, 0
2, 181380, Note_on_c, 0, 98, 0
2, 181382, Note_on_c, 0, 52, 0
2, 181422, Note_on_c, 0, 98, 28
2, 181426, Note_on_c, 0, 101, 28
2, 181494, Note_on_c, 0, 101, 0
2, 181494, Note_on_c, 0, 98, 0
2, 181516, Note_on_c, 0, 58, 26
2, 181550, Note_on_c, 0, 96, 26
2, 181554, Note_on_c, 0, 58, 0
2, 181582, Note_on_c, 0, 96, 0
2, 181630, Note_on_c, 0, 101, 25
2, 181664, Note_on_c, 0, 98, 24
2, 181682, Note_on_c, 0, 101, 0
2, 181686, Note_on_c, 0, 98, 0
2, 181720, Note_on_c, 0, 58, 23
2, 181758, Note_on_c, 0, 58, 0
2, 181900, Note_on_c, 0, 98, 21
2, 181906, Note_on_c, 0, 101, 21
2, 181916, Note_on_c, 0, 58, 21
2, 181918, Note_on_c, 0, 62, 21
2, 181928, Note_on_c, 0, 101, 0
2, 181936, Note_on_c, 0, 98, 0
2, 181946, Note_on_c, 0, 62, 0
2, 181958, Note_on_c, 0, 58, 0
2, 181990, Note_on_c, 0, 98, 19
2, 181992, Note_on_c, 0, 101, 19
2, 182030, Note_on_c, 0, 101, 0
2, 182030, Note_on_c, 0, 98, 0
2, 182088, Note_on_c, 0, 62, 18
2, 182094, Note_on_c, 0, 98, 18
2, 182098, Note_on_c, 0, 101, 18
2, 182100, Note_on_c, 0, 58, 18
2, 182114, Note_on_c, 0, 62, 0
2, 182128, Note_on_c, 0, 101, 0
2, 182134, Note_on_c, 0, 98, 0
2, 182148, Note_on_c, 0, 58, 0
2, 182196, Note_on_c, 0, 98, 17
2, 182198, Note_on_c, 0, 99, 17
2, 182222, Note_on_c, 0, 98, 0
2, 182240, Note_on_c, 0, 99, 0
2, 182298, Note_on_c, 0, 58, 16
2, 182298, Note_on_c, 0, 62, 16
2, 182306, Note_on_c, 0, 98, 16
2, 182322, Note_on_c, 0, 101, 16
2, 182328, Note_on_c, 0, 62, 0
2, 182342, Note_on_c, 0, 58, 0
2, 182458, Note_on_c, 0, 101, 0
2, 182464, Note_on_c, 0, 98, 0
2, 182558, Note_on_c, 0, 98, 13
2, 182564, Note_on_c, 0, 101, 13
2, 182618, Note_on_c, 0, 98, 0
2, 182626, Note_on_c, 0, 101, 0
2, 182760, Note_on_c, 0, 62, 12
2, 182768, Note_on_c, 0, 51, 11
2, 182772, Note_on_c, 0, 57, 11
2, 182818, Note_on_c, 0, 57, 0
2, 182820, Note_on_c, 0, 62, 0
2, 182856, Note_on_c, 0, 51, 0
2, 182952, Note_on_c, 0, 51, 9
2, 182966, Note_on_c, 0, 57, 9
2, 182966, Note_on_c, 0, 62, 9
2, 183180, Note_on_c, 0, 62, 0
2, 183182, Note_on_c, 0, 57, 0
2, 183190, Note_on_c, 0, 51, 0
2, 183220, Note_on_c, 0, 51, 7
2, 183224, Note_on_c, 0, 62, 7
2, 183228, Note_on_c, 0, 57, 7
2, 183280, Note_on_c, 0, 62, 0
2, 183300, Note_on_c, 0, 57, 0
2, 183368, Note_on_c, 0, 57, 6
2, 183418, Note_on_c, 0, 57, 0
2, 183420, Note_on_c, 0, 51, 0
2, 183516, Note_on_c, 0, 51, 5
2, 183516, Note_on_c, 0, 62, 5
2, 183528, Note_on_c, 0, 57, 5
2, 183532, Note_on_c, 0, 55, 5
2, 183554, Note_on_c, 0, 57, 0
2, 183572, Note_on_c, 0, 62, 0
2, 183580, Note_on_c, 0, 55, 0
2, 183598, Note_on_c, 0, 51, 0
2, 183816, Note_on_c, 0, 51, 4
2, 183818, Note_on_c, 0, 62, 4
2, 183820, Note_on_c, 0, 55, 4
2, 183830, Note_on_c, 0, 57, 4
2, 183850, Note_on_c, 0, 51, 0
2, 183856, Note_on_c, 0, 62, 0
2, 183856, Note_on_c, 0, 57, 0
2, 183860, Note_on_c, 0, 55, 0
2, 183908, Note_on_c, 0, 51, 4
2, 183912, Note_on_c, 0, 62, 4
2, 183920, Note_on_c, 0, 55, 4
2, 183922, Note_on_c, 0, 57, 4
2, 183966, Note_on_c, 0, 57, 0
2, 183978, Note_on_c, 0, 62, 0
2, 183998, Note_on_c, 0, 55, 0
2, 184008, Note_on_c, 0, 51, 0
2, 184090, Note_on_c, 0, 51, 3
2, 184094, Note_on_c, 0, 62, 3
2, 184110, Note_on_c, 0, 55, 2
2, 184116, Note_on_c, 0, 57, 2
2, 184144, Note_on_c, 0, 57, 0
2, 184158, Note_on_c, 0, 51, 0
2, 184168, Note_on_c, 0, 62, 0
2, 184178, Note_on_c, 0, 55, 0
2, 184268, Note_on_c, 0, 62, 1
2, 184274, Note_on_c, 0, 58, 1
2, 184278, Note_on_c, 0, 52, 1
2, 184314, Note_on_c, 0, 52, 0
2, 184324, Note_on_c, 0, 62, 0
2, 184334, Note_on_c, 0, 58, 0
2, 184334, End_track
3, 0, Start_track
3, 0, Title_t, "Bass"
3, 0, Program_c, 1, 36
3, 0, Control_c, 1, 7, 121
3, 0, Note_on_c, 1, 36, 112
3, 176, Note_on_c, 1, 36, 0
3, 188, Note_on_c, 1, 43, 112
3, 288, Note_on_c, 1, 43, 0
3, 372, Note_on_c, 1, 48, 109
3, 548, Note_on_c, 1, 48, 0
3, 560, Note_on_c, 1, 39, 109
3, 908, Note_on_c, 1, 39, 0
3, 932, Note_on_c, 1, 40, 113
3, 1304, Note_on_c, 1, 40, 0
3, 1336, Note_on_c, 1, 41, 115
3, 1686, Note_on_c, 1, 41, 0
3, 1720, Note_on_c, 1, 48, 113
3, 1758, Note_on_c, 1, 48, 0
3, 1908, Note_on_c, 1, 51, 111
3, 2040, Note_on_c, 1, 51, 0
3, 2096, Note_on_c, 1, 40, 101
3, 2280, Note_on_c, 1, 40, 0
3, 2280, Note_on_c, 1, 41, 112
3, 2478, Note_on_c, 1, 41, 0
3, 2478, Note_on_c, 1, 42, 106
3, 2672, Note_on_c, 1, 42, 0
3, 2672, Note_on_c, 1, 43, 112
3, 2844, Note_on_c, 1, 43, 0
3, 2870, Note_on_c, 1, 36, 101
3, 3224, Note_on_c, 1, 36, 0
3, 3252, Note_on_c, 1, 43, 109
3, 3388, Note_on_c, 1, 43, 0
3, 3432, Note_on_c, 1, 48, 119
3, 3606, Note_on_c, 1, 48, 0
3, 3632, Note_on_c, 1, 39, 109
3, 4016, Note_on_c, 1, 39, 0
3, 4016, Note_on_c, 1, 40, 112
3, 4400, Note_on_c, 1, 40, 0
3, 4400, Note_on_c, 1, 41, 112
3, 4424, Note_on_c, 1, 41, 0
3, 4424, Note_on_c, 1, 37, 112
3, 4448, Note_on_c, 1, 37, 0
3, 4772, Note_on_c, 1, 48, 112
3, 4910, Note_on_c, 1, 48, 0
3, 4968, Note_on_c, 1, 51, 110
3, 5108, Note_on_c, 1, 51, 0
3, 5156, Note_on_c, 1, 40, 110
3, 5340, Note_on_c, 1, 40, 0
3, 5340, Note_on_c, 1, 41, 113
3, 5528, Note_on_c, 1, 41, 0
3, 5528, Note_on_c, 1, 42, 105
3, 5720, Note_on_c, 1, 42, 0
3, 5720, Note_on_c, 1, 43, 112
3, 5892, Note_on_c, 1, 43, 0
3, 5926, Note_on_c, 1, 36, 108
3, 6282, Note_on_c, 1, 36, 0
3, 6314, Note_on_c, 1, 43, 103
3, 6464, Note_on_c, 1, 43, 0
3, 6494, Note_on_c, 1, 48, 118
3, 6704, Note_on_c, 1, 48, 0
3, 6704, Note_on_c, 1, 39, 107
3, 7020, Note_on_c, 1, 39, 0
3, 7080, Note_on_c, 1, 40, 112
3, 7484, Note_on_c, 1, 40, 0
3, 7484, Note_on_c, 1, 41, 111
3, 7860, Note_on_c, 1, 41, 0
3, 7860, Note_on_c, 1, 48, 111
3, 8002, Note_on_c, 1, 48, 0
3, 8046, Note_on_c, 1, 51, 104
3, 8210, Note_on_c, 1, 51, 0
3, 8232, Note_on_c, 1, 40, 109
3, 8432, Note_on_c, 1, 40, 0
3, 8432, Note_on_c, 1, 41, 111
3, 8628, Note_on_c, 1, 41, 0
3, 8628, Note_on_c, 1, 42, 112
3, 8804, Note_on_c, 1, 42, 0
3, 8804, Note_on_c, 1, 43, 104
3, 8970, Note_on_c, 1, 43, 0
3, 9004, Note_on_c, 1, 36, 107
3, 9372, Note_on_c, 1, 36, 0
3, 9392, Note_on_c, 1, 43, 110
3, 9548, Note_on_c, 1, 43, 0
3, 9586, Note_on_c, 1, 48, 110
3, 9776, Note_on_c, 1, 48, 0
3, 9790, Note_on_c, 1, 39, 109
3, 10176, Note_on_c, 1, 39, 0
3, 10176, Note_on_c, 1, 40, 112
3, 10544, Note_on_c, 1, 40, 0
3, 10544, Note_on_c, 1, 41, 107
3, 12158, Note_on_c, 1, 41, 0
3, 12276, Note_on_c, 1, 48, 117
3, 12846, Note_on_c, 1, 48, 0
3, 12846, Note_on_c, 1, 36, 98
3, 13232, Note_on_c, 1, 36, 0
3, 13232, Note_on_c, 1, 48, 116
3, 13480, Note_on_c, 1, 48, 0
3, 13620, Note_on_c, 1, 46, 107
3, 14246, Note_on_c, 1, 46, 0
3, 14392, Note_on_c, 1, 34, 102
3, 14588, Note_on_c, 1, 34, 0
3, 14588, Note_on_c, 1, 46, 110
3, 14722, Note_on_c, 1, 46, 0
3, 14774, Note_on_c, 1, 46, 116
3, 14894, Note_on_c, 1, 46, 0
3, 14954, Note_on_c, 1, 45, 103
3, 15156, Note_on_c, 1, 45, 0
3, 15156, Note_on_c, 1, 44, 109
3, 16054, Note_on_c, 1, 44, 0
3, 16112, Note_on_c, 1, 41, 109
3, 16864, Note_on_c, 1, 41, 0
3, 16864, Note_on_c, 1, 38, 109
3, 17396, Note_on_c, 1, 38, 0
3, 17456, Note_on_c, 1, 43, 110
3, 18222, Note_on_c, 1, 43, 0
3, 18412, Note_on_c, 1, 48, 111
3, 19374, Note_on_c, 1, 48, 0
3, 19374, Note_on_c, 1, 37, 107
3, 19436, Note_on_c, 1, 37, 0
3, 19554, Note_on_c, 1, 39, 112
3, 19592, Note_on_c, 1, 39, 0
3, 19764, Note_on_c, 1, 40, 107
3, 21198, Note_on_c, 1, 40, 0
3, 21492, Note_on_c, 1, 45, 112
3, 22164, Note_on_c, 1, 45, 0
3, 22164, Note_on_c, 1, 39, 113
3, 22208, Note_on_c, 1, 39, 0
3, 22240, Note_on_c, 1, 43, 111
3, 22944, Note_on_c, 1, 43, 0
3, 23016, Note_on_c, 1, 42, 111
3, 23502, Note_on_c, 1, 42, 0
3, 23608, Note_on_c, 1, 41, 108
3, 24560, Note_on_c, 1, 41, 0
3, 24560, Note_on_c, 1, 40, 102
3, 25804, Note_on_c, 1, 40, 0
3, 25912, Note_on_c, 1, 45, 108
3, 27068, Note_on_c, 1, 45, 0
3, 27068, Note_on_c, 1, 40, 111
3, 27108, Note_on_c, 1, 40, 0
3, 27232, Note_on_c, 1, 33, 109
3, 27258, Note_on_c, 1, 33, 0
3, 27444, Note_on_c, 1, 38, 109
3, 28740, Note_on_c, 1, 38, 0
3, 28988, Note_on_c, 1, 43, 111
3, 29764, Note_on_c, 1, 43, 0
3, 29764, Note_on_c, 1, 41, 110
3, 30548, Note_on_c, 1, 41, 0
3, 30564, Note_on_c, 1, 40, 110
3, 32052, Note_on_c, 1, 40, 0
3, 32052, Note_on_c, 1, 45, 113
3, 32702, Note_on_c, 1, 45, 0
3, 32832, Note_on_c, 1, 43, 111
3, 33596, Note_on_c, 1, 43, 0
3, 33596, Note_on_c, 1, 38, 109
3, 34978, Note_on_c, 1, 38, 0
3, 35136, Note_on_c, 1, 43, 111
3, 35892, Note_on_c, 1, 43, 0
3, 35892, Note_on_c, 1, 31, 111
3, 35934, Note_on_c, 1, 31, 0
3, 36056, Note_on_c, 1, 31, 104
3, 36472, Note_on_c, 1, 31, 0
3, 36472, Note_on_c, 1, 43, 119
3, 36510, Note_on_c, 1, 43, 0
3, 36864, Note_on_c, 1, 48, 115
3, 37390, Note_on_c, 1, 48, 0
3, 37390, Note_on_c, 1, 36, 103
3, 38126, Note_on_c, 1, 36, 0
3, 38176, Note_on_c, 1, 48, 114
3, 38352, Note_on_c, 1, 48, 0
3, 38364, Note_on_c, 1, 46, 109
3, 39054, Note_on_c, 1, 46, 0
3, 39152, Note_on_c, 1, 34, 109
3, 39908, Note_on_c, 1, 34, 0
3, 39908, Note_on_c, 1, 44, 111
3, 40624, Note_on_c, 1, 44, 0
3, 40684, Note_on_c, 1, 41, 110
3, 41338, Note_on_c, 1, 41, 0
3, 41452, Note_on_c, 1, 38, 108
3, 42014, Note_on_c, 1, 38, 0
3, 42014, Note_on_c, 1, 31, 101
3, 42120, Note_on_c, 1, 31, 0
3, 42216, Note_on_c, 1, 31, 112
3, 42610, Note_on_c, 1, 31, 0
3, 42610, Note_on_c, 1, 43, 127
3, 42874, Note_on_c, 1, 43, 0
3, 42984, Note_on_c, 1, 36, 109
3, 43766, Note_on_c, 1, 36, 0
3, 43944, Note_on_c, 1, 37, 112
3, 44128, Note_on_c, 1, 37, 0
3, 44128, Note_on_c, 1, 38, 106
3, 44304, Note_on_c, 1, 38, 0
3, 44304, Note_on_c, 1, 39, 111
3, 44494, Note_on_c, 1, 39, 0
3, 44494, Note_on_c, 1, 40, 103
3, 45902, Note_on_c, 1, 40, 0
3, 46060, Note_on_c, 1, 33, 109
3, 46256, Note_on_c, 1, 33, 0
3, 46256, Note_on_c, 1, 48, 108
3, 46780, Note_on_c, 1, 48, 0
3, 46824, Note_on_c, 1, 31, 108
3, 47010, Note_on_c, 1, 31, 0
3, 47026, Note_on_c, 1, 43, 109
3, 47520, Note_on_c, 1, 43, 0
3, 47576, Note_on_c, 1, 30, 112
3, 47582, Note_on_c, 1, 30, 0
3, 47584, Note_on_c, 1, 42, 118
3, 48072, Note_on_c, 1, 42, 0
3, 48172, Note_on_c, 1, 29, 104
3, 48924, Note_on_c, 1, 29, 0
3, 48924, Note_on_c, 1, 41, 116
3, 49028, Note_on_c, 1, 41, 0
3, 49118, Note_on_c, 1, 40, 101
3, 50324, Note_on_c, 1, 40, 0
3, 50476, Note_on_c, 1, 33, 109
3, 52200, Note_on_c, 1, 33, 0
3, 52200, Note_on_c, 1, 38, 110
3, 53728, Note_on_c, 1, 38, 0
3, 53728, Note_on_c, 1, 31, 111
3, 55092, Note_on_c, 1, 31, 0
3, 55264, Note_on_c, 1, 40, 110
3, 56804, Note_on_c, 1, 40, 0
3, 56804, Note_on_c, 1, 33, 106
3, 57370, Note_on_c, 1, 33, 0
3, 57370, Note_on_c, 1, 45, 109
3, 57414, Note_on_c, 1, 45, 0
3, 57572, Note_on_c, 1, 45, 119
3, 57944, Note_on_c, 1, 45, 0
3, 58144, Note_on_c, 1, 37, 107
3, 58324, Note_on_c, 1, 37, 0
3, 58340, Note_on_c, 1, 38, 109
3, 59876, Note_on_c, 1, 38, 0
3, 59876, Note_on_c, 1, 31, 108
3, 60842, Note_on_c, 1, 31, 0
3, 60842, Note_on_c, 1, 43, 104
3, 60976, Note_on_c, 1, 43, 0
3, 61020, Note_on_c, 1, 35, 109
3, 61384, Note_on_c, 1, 35, 0
3, 61424, Note_on_c, 1, 36, 113
3, 61608, Note_on_c, 1, 36, 0
3, 61608, Note_on_c, 1, 43, 110
3, 61782, Note_on_c, 1, 43, 0
3, 61796, Note_on_c, 1, 48, 115
3, 61976, Note_on_c, 1, 48, 0
3, 61986, Note_on_c, 1, 39, 102
3, 62330, Note_on_c, 1, 39, 0
3, 62354, Note_on_c, 1, 40, 105
3, 62732, Note_on_c, 1, 40, 0
3, 62762, Note_on_c, 1, 41, 112
3, 63114, Note_on_c, 1, 41, 0
3, 63140, Note_on_c, 1, 48, 116
3, 63324, Note_on_c, 1, 48, 0
3, 63332, Note_on_c, 1, 51, 104
3, 63482, Note_on_c, 1, 51, 0
3, 63504, Note_on_c, 1, 40, 107
3, 63706, Note_on_c, 1, 40, 0
3, 63706, Note_on_c, 1, 41, 107
3, 63888, Note_on_c, 1, 41, 0
3, 63888, Note_on_c, 1, 42, 112
3, 64098, Note_on_c, 1, 42, 0
3, 64098, Note_on_c, 1, 43, 108
3, 64168, Note_on_c, 1, 43, 0
3, 64202, Note_on_c, 1, 34, 111
3, 64250, Note_on_c, 1, 34, 0
3, 64282, Note_on_c, 1, 35, 113
3, 64468, Note_on_c, 1, 35, 0
3, 64496, Note_on_c, 1, 36, 109
3, 64616, Note_on_c, 1, 36, 0
3, 64692, Note_on_c, 1, 43, 117
3, 64872, Note_on_c, 1, 43, 0
3, 64872, Note_on_c, 1, 48, 107
3, 64914, Note_on_c, 1, 48, 0
3, 65064, Note_on_c, 1, 39, 108
3, 65422, Note_on_c, 1, 39, 0
3, 65452, Note_on_c, 1, 40, 113
3, 65806, Note_on_c, 1, 40, 0
3, 65842, Note_on_c, 1, 41, 115
3, 66184, Note_on_c, 1, 41, 0
3, 66224, Note_on_c, 1, 48, 113
3, 66366, Note_on_c, 1, 48, 0
3, 66412, Note_on_c, 1, 51, 112
3, 66576, Note_on_c, 1, 51, 0
3, 66584, Note_on_c, 1, 40, 101
3, 66788, Note_on_c, 1, 40, 0
3, 66788, Note_on_c, 1, 41, 113
3, 66974, Note_on_c, 1, 41, 0
3, 66974, Note_on_c, 1, 42, 106
3, 67176, Note_on_c, 1, 42, 0
3, 67176, Note_on_c, 1, 43, 111
3, 67276, Note_on_c, 1, 43, 0
3, 67284, Note_on_c, 1, 34, 103
3, 67320, Note_on_c, 1, 34, 0
3, 67358, Note_on_c, 1, 35, 105
3, 67540, Note_on_c, 1, 35, 0
3, 67562, Note_on_c, 1, 36, 113
3, 67690, Note_on_c, 1, 36, 0
3, 67768, Note_on_c, 1, 43, 117
3, 68078, Note_on_c, 1, 43, 0
3, 68136, Note_on_c, 1, 48, 110
3, 68256, Note_on_c, 1, 48, 0
3, 68316, Note_on_c, 1, 39, 102
3, 68484, Note_on_c, 1, 39, 0
3, 68500, Note_on_c, 1, 40, 111
3, 68888, Note_on_c, 1, 40, 0
3, 68920, Note_on_c, 1, 41, 113
3, 69284, Note_on_c, 1, 41, 0
3, 69290, Note_on_c, 1, 48, 118
3, 69474, Note_on_c, 1, 48, 0
3, 69480, Note_on_c, 1, 51, 109
3, 69604, Note_on_c, 1, 51, 0
3, 69656, Note_on_c, 1, 40, 109
3, 69856, Note_on_c, 1, 40, 0
3, 69856, Note_on_c, 1, 41, 114
3, 70036, Note_on_c, 1, 41, 0
3, 70036, Note_on_c, 1, 42, 105
3, 70238, Note_on_c, 1, 42, 0
3, 70238, Note_on_c, 1, 43, 112
3, 70412, Note_on_c, 1, 43, 0
3, 70422, Note_on_c, 1, 36, 102
3, 70784, Note_on_c, 1, 36, 0
3, 70814, Note_on_c, 1, 43, 103
3, 70914, Note_on_c, 1, 43, 0
3, 70922, Note_on_c, 1, 36, 112
3, 70990, Note_on_c, 1, 36, 0
3, 71014, Note_on_c, 1, 48, 123
3, 71140, Note_on_c, 1, 48, 0
3, 71194, Note_on_c, 1, 39, 108
3, 71546, Note_on_c, 1, 39, 0
3, 71576, Note_on_c, 1, 40, 112
3, 71968, Note_on_c, 1, 40, 0
3, 71968, Note_on_c, 1, 41, 111
3, 72344, Note_on_c, 1, 41, 0
3, 72344, Note_on_c, 1, 48, 117
3, 72524, Note_on_c, 1, 48, 0
3, 72542, Note_on_c, 1, 51, 105
3, 72584, Note_on_c, 1, 51, 0
3, 72650, Note_on_c, 1, 51, 117
3, 72682, Note_on_c, 1, 51, 0
3, 72732, Note_on_c, 1, 40, 109
3, 72928, Note_on_c, 1, 40, 0
3, 72944, Note_on_c, 1, 41, 113
3, 73002, Note_on_c, 1, 41, 0
3, 73036, Note_on_c, 1, 42, 119
3, 73074, Note_on_c, 1, 42, 0
3, 73120, Note_on_c, 1, 43, 112
3, 73304, Note_on_c, 1, 43, 0
3, 73312, Note_on_c, 1, 31, 108
3, 73382, Note_on_c, 1, 31, 0
3, 73412, Note_on_c, 1, 34, 108
3, 73454, Note_on_c, 1, 34, 0
3, 73500, Note_on_c, 1, 35, 111
3, 73686, Note_on_c, 1, 35, 0
3, 73706, Note_on_c, 1, 36, 112
3, 73876, Note_on_c, 1, 36, 0
3, 73896, Note_on_c, 1, 43, 117
3, 74074, Note_on_c, 1, 43, 0
3, 74086, Note_on_c, 1, 48, 104
3, 74244, Note_on_c, 1, 48, 0
3, 74264, Note_on_c, 1, 39, 109
3, 74632, Note_on_c, 1, 39, 0
3, 74660, Note_on_c, 1, 40, 113
3, 75052, Note_on_c, 1, 40, 0
3, 75052, Note_on_c, 1, 41, 112
3, 75428, Note_on_c, 1, 41, 0
3, 75428, Note_on_c, 1, 48, 119
3, 75606, Note_on_c, 1, 48, 0
3, 75616, Note_on_c, 1, 51, 103
3, 75764, Note_on_c, 1, 51, 0
3, 75804, Note_on_c, 1, 40, 110
3, 76004, Note_on_c, 1, 40, 0
3, 76004, Note_on_c, 1, 41, 111
3, 76192, Note_on_c, 1, 41, 0
3, 76192, Note_on_c, 1, 42, 114
3, 76392, Note_on_c, 1, 42, 0
3, 76392, Note_on_c, 1, 43, 114
3, 76464, Note_on_c, 1, 43, 0
3, 76500, Note_on_c, 1, 38, 104
3, 76522, Note_on_c, 1, 38, 0
3, 76584, Note_on_c, 1, 35, 102
3, 76744, Note_on_c, 1, 35, 0
3, 76778, Note_on_c, 1, 36, 111
3, 76974, Note_on_c, 1, 36, 0
3, 76974, Note_on_c, 1, 43, 110
3, 77086, Note_on_c, 1, 43, 0
3, 77160, Note_on_c, 1, 48, 111
3, 77188, Note_on_c, 1, 48, 0
3, 77342, Note_on_c, 1, 39, 102
3, 77704, Note_on_c, 1, 39, 0
3, 77740, Note_on_c, 1, 40, 111
3, 78070, Note_on_c, 1, 40, 0
3, 78128, Note_on_c, 1, 41, 112
3, 78508, Note_on_c, 1, 41, 0
3, 78508, Note_on_c, 1, 48, 113
3, 78544, Note_on_c, 1, 48, 0
3, 78706, Note_on_c, 1, 51, 109
3, 78730, Note_on_c, 1, 51, 0
3, 78880, Note_on_c, 1, 40, 107
3, 79066, Note_on_c, 1, 40, 0
3, 79080, Note_on_c, 1, 41, 106
3, 79260, Note_on_c, 1, 41, 0
3, 79276, Note_on_c, 1, 42, 111
3, 79284, Note_on_c, 1, 42, 0
3, 79284, Note_on_c, 1, 58, 116
3, 79456, Note_on_c, 1, 58, 0
3, 79464, Note_on_c, 1, 59, 108
3, 79628, Note_on_c, 1, 59, 0
3, 79644, Note_on_c, 1, 35, 111
3, 79806, Note_on_c, 1, 35, 0
3, 79848, Note_on_c, 1, 36, 112
3, 80040, Note_on_c, 1, 36, 0
3, 80040, Note_on_c, 1, 43, 104
3, 80074, Note_on_c, 1, 43, 0
3, 80232, Note_on_c, 1, 48, 109
3, 80252, Note_on_c, 1, 48, 0
3, 80414, Note_on_c, 1, 39, 103
3, 80772, Note_on_c, 1, 39, 0
3, 80800, Note_on_c, 1, 40, 106
3, 81172, Note_on_c, 1, 40, 0
3, 81204, Note_on_c, 1, 41, 111
3, 81530, Note_on_c, 1, 41, 0
3, 81584, Note_on_c, 1, 48, 116
3, 81764, Note_on_c, 1, 48, 0
3, 81776, Note_on_c, 1, 51, 103
3, 81806, Note_on_c, 1, 51, 0
3, 81952, Note_on_c, 1, 40, 108
3, 82154, Note_on_c, 1, 40, 0
3, 82154, Note_on_c, 1, 41, 106
3, 82336, Note_on_c, 1, 41, 0
3, 82336, Note_on_c, 1, 42, 113
3, 82538, Note_on_c, 1, 42, 0
3, 82538, Note_on_c, 1, 43, 105
3, 82904, Note_on_c, 1, 43, 0
3, 82936, Note_on_c, 1, 36, 110
3, 83098, Note_on_c, 1, 36, 0
3, 83124, Note_on_c, 1, 43, 110
3, 83160, Note_on_c, 1, 43, 0
3, 83320, Note_on_c, 1, 48, 104
3, 83336, Note_on_c, 1, 48, 0
3, 83488, Note_on_c, 1, 39, 109
3, 83622, Note_on_c, 1, 39, 0
3, 83864, Note_on_c, 1, 40, 111
3, 84264, Note_on_c, 1, 40, 0
3, 84288, Note_on_c, 1, 41, 113
3, 84640, Note_on_c, 1, 41, 0
3, 84640, Note_on_c, 1, 48, 117
3, 84818, Note_on_c, 1, 48, 0
3, 84840, Note_on_c, 1, 51, 111
3, 84996, Note_on_c, 1, 51, 0
3, 85032, Note_on_c, 1, 40, 101
3, 85220, Note_on_c, 1, 40, 0
3, 85220, Note_on_c, 1, 41, 112
3, 85394, Note_on_c, 1, 41, 0
3, 85394, Note_on_c, 1, 42, 106
3, 85608, Note_on_c, 1, 42, 0
3, 85608, Note_on_c, 1, 43, 114
3, 85788, Note_on_c, 1, 43, 0
3, 85790, Note_on_c, 1, 36, 101
3, 86146, Note_on_c, 1, 36, 0
3, 86184, Note_on_c, 1, 43, 109
3, 86342, Note_on_c, 1, 43, 0
3, 86380, Note_on_c, 1, 48, 117
3, 86568, Note_on_c, 1, 48, 0
3, 86568, Note_on_c, 1, 39, 101
3, 86950, Note_on_c, 1, 39, 0
3, 86950, Note_on_c, 1, 41, 106
3, 87152, Note_on_c, 1, 41, 0
3, 87152, Note_on_c, 1, 40, 110
3, 87334, Note_on_c, 1, 40, 0
3, 87334, Note_on_c, 1, 41, 105
3, 87676, Note_on_c, 1, 41, 0
3, 87710, Note_on_c, 1, 48, 115
3, 87884, Note_on_c, 1, 48, 0
3, 87908, Note_on_c, 1, 51, 112
3, 88036, Note_on_c, 1, 51, 0
3, 88088, Note_on_c, 1, 40, 109
3, 88288, Note_on_c, 1, 40, 0
3, 88288, Note_on_c, 1, 41, 105
3, 88460, Note_on_c, 1, 41, 0
3, 88460, Note_on_c, 1, 42, 112
3, 88670, Note_on_c, 1, 42, 0
3, 88670, Note_on_c, 1, 43, 112
3, 88852, Note_on_c, 1, 43, 0
3, 88864, Note_on_c, 1, 35, 110
3, 89038, Note_on_c, 1, 35, 0
3, 89062, Note_on_c, 1, 36, 105
3, 89242, Note_on_c, 1, 36, 0
3, 89254, Note_on_c, 1, 43, 112
3, 89286, Note_on_c, 1, 43, 0
3, 89460, Note_on_c, 1, 48, 109
3, 89478, Note_on_c, 1, 48, 0
3, 89632, Note_on_c, 1, 39, 110
3, 89740, Note_on_c, 1, 39, 0
3, 90016, Note_on_c, 1, 40, 111
3, 90404, Note_on_c, 1, 40, 0
3, 90404, Note_on_c, 1, 41, 113
3, 90792, Note_on_c, 1, 41, 0
3, 90800, Note_on_c, 1, 48, 118
3, 91000, Note_on_c, 1, 48, 0
3, 91000, Note_on_c, 1, 51, 112
3, 91062, Note_on_c, 1, 51, 0
3, 91176, Note_on_c, 1, 40, 109
3, 91344, Note_on_c, 1, 40, 0
3, 91360, Note_on_c, 1, 41, 105
3, 91542, Note_on_c, 1, 41, 0
3, 91556, Note_on_c, 1, 42, 110
3, 91570, Note_on_c, 1, 42, 0
3, 91570, Note_on_c, 1, 40, 110
3, 91582, Note_on_c, 1, 40, 0
3, 91742, Note_on_c, 1, 43, 106
3, 91924, Note_on_c, 1, 43, 0
3, 91940, Note_on_c, 1, 36, 108
3, 92308, Note_on_c, 1, 36, 0
3, 92338, Note_on_c, 1, 43, 119
3, 92510, Note_on_c, 1, 43, 0
3, 92520, Note_on_c, 1, 48, 109
3, 92686, Note_on_c, 1, 48, 0
3, 92716, Note_on_c, 1, 39, 108
3, 93096, Note_on_c, 1, 39, 0
3, 93096, Note_on_c, 1, 40, 111
3, 93464, Note_on_c, 1, 40, 0
3, 93492, Note_on_c, 1, 41, 113
3, 93852, Note_on_c, 1, 41, 0
3, 93858, Note_on_c, 1, 48, 117
3, 94036, Note_on_c, 1, 48, 0
3, 94054, Note_on_c, 1, 51, 109
3, 94178, Note_on_c, 1, 51, 0
3, 94252, Note_on_c, 1, 40, 108
3, 94436, Note_on_c, 1, 40, 0
3, 94436, Note_on_c, 1, 41, 106
3, 94632, Note_on_c, 1, 41, 0
3, 94632, Note_on_c, 1, 42, 111
3, 94838, Note_on_c, 1, 42, 0
3, 94838, Note_on_c, 1, 43, 110
3, 94984, Note_on_c, 1, 43, 0
3, 95016, Note_on_c, 1, 36, 108
3, 95368, Note_on_c, 1, 36, 0
3, 95402, Note_on_c, 1, 43, 117
3, 95582, Note_on_c, 1, 43, 0
3, 95608, Note_on_c, 1, 48, 109
3, 95752, Note_on_c, 1, 48, 0
3, 95784, Note_on_c, 1, 39, 109
3, 96090, Note_on_c, 1, 39, 0
3, 96156, Note_on_c, 1, 40, 112
3, 96566, Note_on_c, 1, 40, 0
3, 96566, Note_on_c, 1, 41, 111
3, 96932, Note_on_c, 1, 41, 0
3, 96932, Note_on_c, 1, 48, 116
3, 97100, Note_on_c, 1, 48, 0
3, 97130, Note_on_c, 1, 51, 104
3, 97142, Note_on_c, 1, 51, 0
3, 97314, Note_on_c, 1, 40, 109
3, 97512, Note_on_c, 1, 40, 0
3, 97512, Note_on_c, 1, 41, 110
3, 97696, Note_on_c, 1, 41, 0
3, 97696, Note_on_c, 1, 42, 113
3, 97896, Note_on_c, 1, 42, 0
3, 97896, Note_on_c, 1, 43, 103
3, 98050, Note_on_c, 1, 43, 0
3, 98064, Note_on_c, 1, 36, 108
3, 98444, Note_on_c, 1, 36, 0
3, 98476, Note_on_c, 1, 43, 119
3, 98668, Note_on_c, 1, 43, 0
3, 98670, Note_on_c, 1, 48, 103
3, 98828, Note_on_c, 1, 48, 0
3, 98848, Note_on_c, 1, 40, 110
3, 99220, Note_on_c, 1, 40, 0
3, 99220, Note_on_c, 1, 39, 110
3, 99404, Note_on_c, 1, 39, 0
3, 99404, Note_on_c, 1, 40, 113
3, 99612, Note_on_c, 1, 40, 0
3, 99612, Note_on_c, 1, 41, 105
3, 99980, Note_on_c, 1, 41, 0
3, 100006, Note_on_c, 1, 48, 115
3, 100184, Note_on_c, 1, 48, 0
3, 100200, Note_on_c, 1, 51, 114
3, 100380, Note_on_c, 1, 51, 0
3, 100382, Note_on_c, 1, 41, 101
3, 100552, Note_on_c, 1, 41, 0
3, 100574, Note_on_c, 1, 42, 114
3, 100758, Note_on_c, 1, 42, 0
3, 100760, Note_on_c, 1, 43, 111
3, 100940, Note_on_c, 1, 43, 0
3, 100972, Note_on_c, 1, 34, 108
3, 101008, Note_on_c, 1, 34, 0
3, 101080, Note_on_c, 1, 34, 110
3, 101114, Note_on_c, 1, 34, 0
3, 101152, Note_on_c, 1, 35, 105
3, 101328, Note_on_c, 1, 35, 0
3, 101352, Note_on_c, 1, 36, 113
3, 101532, Note_on_c, 1, 36, 0
3, 101542, Note_on_c, 1, 43, 104
3, 101710, Note_on_c, 1, 43, 0
3, 101740, Note_on_c, 1, 48, 118
3, 101778, Note_on_c, 1, 48, 0
3, 101908, Note_on_c, 1, 39, 101
3, 102284, Note_on_c, 1, 39, 0
3, 102320, Note_on_c, 1, 40, 112
3, 102650, Note_on_c, 1, 40, 0
3, 102708, Note_on_c, 1, 41, 114
3, 103090, Note_on_c, 1, 41, 0
3, 103090, Note_on_c, 1, 48, 111
3, 103248, Note_on_c, 1, 48, 0
3, 103278, Note_on_c, 1, 51, 104
3, 103382, Note_on_c, 1, 51, 0
3, 103448, Note_on_c, 1, 40, 109
3, 103646, Note_on_c, 1, 40, 0
3, 103646, Note_on_c, 1, 41, 105
3, 103834, Note_on_c, 1, 41, 0
3, 103834, Note_on_c, 1, 42, 115
3, 104030, Note_on_c, 1, 42, 0
3, 104030, Note_on_c, 1, 43, 110
3, 104194, Note_on_c, 1, 43, 0
3, 104212, Note_on_c, 1, 36, 111
3, 104540, Note_on_c, 1, 36, 0
3, 104624, Note_on_c, 1, 43, 118
3, 104796, Note_on_c, 1, 43, 0
3, 104804, Note_on_c, 1, 48, 110
3, 104972, Note_on_c, 1, 48, 0
3, 104996, Note_on_c, 1, 39, 108
3, 105372, Note_on_c, 1, 39, 0
3, 105396, Note_on_c, 1, 40, 114
3, 105770, Note_on_c, 1, 40, 0
3, 105776, Note_on_c, 1, 41, 114
3, 106140, Note_on_c, 1, 41, 0
3, 106140, Note_on_c, 1, 48, 112
3, 106160, Note_on_c, 1, 48, 0
3, 106344, Note_on_c, 1, 51, 112
3, 106512, Note_on_c, 1, 51, 0
3, 106532, Note_on_c, 1, 40, 101
3, 106554, Note_on_c, 1, 40, 0
3, 106640, Note_on_c, 1, 40, 109
3, 106682, Note_on_c, 1, 40, 0
3, 106728, Note_on_c, 1, 41, 111
3, 106910, Note_on_c, 1, 41, 0
3, 106910, Note_on_c, 1, 42, 107
3, 107088, Note_on_c, 1, 42, 0
3, 107120, Note_on_c, 1, 43, 115
3, 107182, Note_on_c, 1, 43, 0
3, 107220, Note_on_c, 1, 38, 101
3, 107252, Note_on_c, 1, 38, 0
3, 107302, Note_on_c, 1, 34, 108
3, 107370, Note_on_c, 1, 34, 0
3, 107414, Note_on_c, 1, 35, 115
3, 107454, Note_on_c, 1, 35, 0
3, 107504, Note_on_c, 1, 36, 111
3, 107644, Note_on_c, 1, 36, 0
3, 107692, Note_on_c, 1, 43, 109
3, 107850, Note_on_c, 1, 43, 0
3, 107880, Note_on_c, 1, 48, 112
3, 108040, Note_on_c, 1, 48, 0
3, 108060, Note_on_c, 1, 39, 101
3, 108416, Note_on_c, 1, 39, 0
3, 108446, Note_on_c, 1, 40, 106
3, 108790, Note_on_c, 1, 40, 0
3, 108824, Note_on_c, 1, 41, 101
3, 109876, Note_on_c, 1, 41, 0
3, 109996, Note_on_c, 1, 53, 108
3, 110032, Note_on_c, 1, 53, 0
3, 110380, Note_on_c, 1, 53, 118
3, 110394, Note_on_c, 1, 53, 0
3, 110578, Note_on_c, 1, 48, 109
3, 111120, Note_on_c, 1, 48, 0
3, 111156, Note_on_c, 1, 36, 107
3, 111536, Note_on_c, 1, 36, 0
3, 111536, Note_on_c, 1, 48, 123
3, 111808, Note_on_c, 1, 48, 0
3, 111922, Note_on_c, 1, 46, 109
3, 112694, Note_on_c, 1, 46, 0
3, 112694, Note_on_c, 1, 34, 104
3, 112892, Note_on_c, 1, 34, 0
3, 112892, Note_on_c, 1, 46, 111
3, 113022, Note_on_c, 1, 46, 0
3, 113080, Note_on_c, 1, 46, 118
3, 113198, Note_on_c, 1, 46, 0
3, 113260, Note_on_c, 1, 45, 102
3, 113460, Note_on_c, 1, 45, 0
3, 113460, Note_on_c, 1, 44, 109
3, 114362, Note_on_c, 1, 44, 0
3, 114418, Note_on_c, 1, 41, 107
3, 115114, Note_on_c, 1, 41, 0
3, 115168, Note_on_c, 1, 38, 109
3, 115762, Note_on_c, 1, 38, 0
3, 115762, Note_on_c, 1, 43, 111
3, 116626, Note_on_c, 1, 43, 0
3, 116716, Note_on_c, 1, 48, 111
3, 117682, Note_on_c, 1, 48, 0
3, 117682, Note_on_c, 1, 37, 107
3, 117742, Note_on_c, 1, 37, 0
3, 117860, Note_on_c, 1, 39, 112
3, 117896, Note_on_c, 1, 39, 0
3, 118068, Note_on_c, 1, 40, 107
3, 119520, Note_on_c, 1, 40, 0
3, 119800, Note_on_c, 1, 45, 112
3, 120466, Note_on_c, 1, 45, 0
3, 120466, Note_on_c, 1, 39, 113
3, 120512, Note_on_c, 1, 39, 0
3, 120544, Note_on_c, 1, 43, 111
3, 121266, Note_on_c, 1, 43, 0
3, 121324, Note_on_c, 1, 42, 111
3, 121832, Note_on_c, 1, 42, 0
3, 121916, Note_on_c, 1, 41, 109
3, 122866, Note_on_c, 1, 41, 0
3, 122866, Note_on_c, 1, 40, 101
3, 124094, Note_on_c, 1, 40, 0
3, 124212, Note_on_c, 1, 45, 109
3, 125366, Note_on_c, 1, 45, 0
3, 125366, Note_on_c, 1, 40, 113
3, 125406, Note_on_c, 1, 40, 0
3, 125538, Note_on_c, 1, 33, 110
3, 125558, Note_on_c, 1, 33, 0
3, 125744, Note_on_c, 1, 38, 111
3, 127056, Note_on_c, 1, 38, 0
3, 127292, Note_on_c, 1, 43, 110
3, 128068, Note_on_c, 1, 43, 0
3, 128068, Note_on_c, 1, 41, 109
3, 128854, Note_on_c, 1, 41, 0
3, 128868, Note_on_c, 1, 40, 109
3, 130360, Note_on_c, 1, 40, 0
3, 130360, Note_on_c, 1, 45, 112
3, 131010, Note_on_c, 1, 45, 0
3, 131140, Note_on_c, 1, 43, 112
3, 131900, Note_on_c, 1, 43, 0
3, 131900, Note_on_c, 1, 38, 109
3, 133326, Note_on_c, 1, 38, 0
3, 133440, Note_on_c, 1, 43, 110
3, 134196, Note_on_c, 1, 43, 0
3, 134196, Note_on_c, 1, 31, 110
3, 134236, Note_on_c, 1, 31, 0
3, 134358, Note_on_c, 1, 31, 106
3, 134770, Note_on_c, 1, 31, 0
3, 134770, Note_on_c, 1, 43, 117
3, 134808, Note_on_c, 1, 43, 0
3, 135168, Note_on_c, 1, 48, 118
3, 135694, Note_on_c, 1, 48, 0
3, 135694, Note_on_c, 1, 36, 102
3, 136426, Note_on_c, 1, 36, 0
3, 136478, Note_on_c, 1, 48, 114
3, 136652, Note_on_c, 1, 48, 0
3, 136664, Note_on_c, 1, 46, 110
3, 137356, Note_on_c, 1, 46, 0
3, 137460, Note_on_c, 1, 34, 110
3, 138212, Note_on_c, 1, 34, 0
3, 138212, Note_on_c, 1, 44, 111
3, 138926, Note_on_c, 1, 44, 0
3, 138988, Note_on_c, 1, 41, 111
3, 139636, Note_on_c, 1, 41, 0
3, 139756, Note_on_c, 1, 38, 109
3, 140318, Note_on_c, 1, 38, 0
3, 140318, Note_on_c, 1, 31, 101
3, 140424, Note_on_c, 1, 31, 0
3, 140516, Note_on_c, 1, 31, 111
3, 140920, Note_on_c, 1, 31, 0
3, 140920, Note_on_c, 1, 43, 127
3, 141170, Note_on_c, 1, 43, 0
3, 141288, Note_on_c, 1, 36, 110
3, 142126, Note_on_c, 1, 36, 0
3, 142248, Note_on_c, 1, 37, 114
3, 142432, Note_on_c, 1, 37, 0
3, 142432, Note_on_c, 1, 38, 105
3, 142608, Note_on_c, 1, 38, 0
3, 142608, Note_on_c, 1, 39, 112
3, 142798, Note_on_c, 1, 39, 0
3, 142798, Note_on_c, 1, 40, 102
3, 144242, Note_on_c, 1, 40, 0
3, 144364, Note_on_c, 1, 33, 110
3, 144560, Note_on_c, 1, 33, 0
3, 144560, Note_on_c, 1, 45, 108
3, 145086, Note_on_c, 1, 45, 0
3, 145132, Note_on_c, 1, 31, 111
3, 145328, Note_on_c, 1, 31, 0
3, 145330, Note_on_c, 1, 43, 108
3, 145822, Note_on_c, 1, 43, 0
3, 145880, Note_on_c, 1, 30, 113
3, 145886, Note_on_c, 1, 30, 0
3, 145888, Note_on_c, 1, 42, 118
3, 146372, Note_on_c, 1, 42, 0
3, 146476, Note_on_c, 1, 29, 103
3, 147228, Note_on_c, 1, 29, 0
3, 147228, Note_on_c, 1, 41, 116
3, 147334, Note_on_c, 1, 41, 0
3, 147428, Note_on_c, 1, 40, 102
3, 148644, Note_on_c, 1, 40, 0
3, 148780, Note_on_c, 1, 33, 108
3, 150508, Note_on_c, 1, 33, 0
3, 150508, Note_on_c, 1, 38, 110
3, 152032, Note_on_c, 1, 38, 0
3, 152032, Note_on_c, 1, 31, 111
3, 153354, Note_on_c, 1, 31, 0
3, 153568, Note_on_c, 1, 40, 108
3, 155104, Note_on_c, 1, 40, 0
3, 155104, Note_on_c, 1, 33, 105
3, 155674, Note_on_c, 1, 33, 0
3, 155674, Note_on_c, 1, 45, 111
3, 155720, Note_on_c, 1, 45, 0
3, 155876, Note_on_c, 1, 45, 119
3, 156248, Note_on_c, 1, 45, 0
3, 156448, Note_on_c, 1, 37, 107
3, 156620, Note_on_c, 1, 37, 0
3, 156648, Note_on_c, 1, 38, 108
3, 158176, Note_on_c, 1, 38, 0
3, 158176, Note_on_c, 1, 31, 109
3, 159002, Note_on_c, 1, 31, 0
3, 159144, Note_on_c, 1, 43, 110
3, 159300, Note_on_c, 1, 43, 0
3, 159324, Note_on_c, 1, 35, 102
3, 159700, Note_on_c, 1, 35, 0
3, 159730, Note_on_c, 1, 36, 110
3, 159896, Note_on_c, 1, 36, 0
3, 159912, Note_on_c, 1, 43, 116
3, 160092, Note_on_c, 1, 43, 0
3, 160100, Note_on_c, 1, 48, 110
3, 160270, Note_on_c, 1, 48, 0
3, 160288, Note_on_c, 1, 39, 109
3, 160622, Note_on_c, 1, 39, 0
3, 160660, Note_on_c, 1, 40, 113
3, 160998, Note_on_c, 1, 40, 0
3, 161068, Note_on_c, 1, 41, 112
3, 161448, Note_on_c, 1, 41, 0
3, 161448, Note_on_c, 1, 48, 114
3, 161618, Note_on_c, 1, 48, 0
3, 161634, Note_on_c, 1, 51, 105
3, 161784, Note_on_c, 1, 51, 0
3, 161808, Note_on_c, 1, 40, 108
3, 162008, Note_on_c, 1, 40, 0
3, 162008, Note_on_c, 1, 41, 106
3, 162196, Note_on_c, 1, 41, 0
3, 162196, Note_on_c, 1, 42, 113
3, 162400, Note_on_c, 1, 42, 0
3, 162400, Note_on_c, 1, 43, 109
3, 162498, Note_on_c, 1, 43, 0
3, 162504, Note_on_c, 1, 34, 119
3, 162538, Note_on_c, 1, 34, 0
3, 162588, Note_on_c, 1, 35, 113
3, 162770, Note_on_c, 1, 35, 0
3, 162796, Note_on_c, 1, 36, 111
3, 162948, Note_on_c, 1, 36, 0
3, 162996, Note_on_c, 1, 43, 109
3, 163166, Note_on_c, 1, 43, 0
3, 163180, Note_on_c, 1, 48, 114
3, 163224, Note_on_c, 1, 48, 0
3, 163362, Note_on_c, 1, 39, 102
3, 163722, Note_on_c, 1, 39, 0
3, 163754, Note_on_c, 1, 40, 105
3, 164110, Note_on_c, 1, 40, 0
3, 164148, Note_on_c, 1, 41, 111
3, 164466, Note_on_c, 1, 41, 0
3, 164528, Note_on_c, 1, 48, 116
3, 164696, Note_on_c, 1, 48, 0
3, 164716, Note_on_c, 1, 51, 104
3, 164870, Note_on_c, 1, 51, 0
3, 164888, Note_on_c, 1, 40, 107
3, 165090, Note_on_c, 1, 40, 0
3, 165090, Note_on_c, 1, 41, 107
3, 165280, Note_on_c, 1, 41, 0
3, 165280, Note_on_c, 1, 42, 112
3, 165478, Note_on_c, 1, 42, 0
3, 165478, Note_on_c, 1, 43, 104
3, 165578, Note_on_c, 1, 43, 0
3, 165586, Note_on_c, 1, 34, 116
3, 165624, Note_on_c, 1, 34, 0
3, 165662, Note_on_c, 1, 35, 113
3, 165846, Note_on_c, 1, 35, 0
3, 165862, Note_on_c, 1, 36, 109
3, 166000, Note_on_c, 1, 36, 0
3, 166072, Note_on_c, 1, 43, 117
3, 166436, Note_on_c, 1, 43, 0
3, 166436, Note_on_c, 1, 48, 110
3, 166554, Note_on_c, 1, 48, 0
3, 166614, Note_on_c, 1, 39, 102
3, 166792, Note_on_c, 1, 39, 0
3, 166804, Note_on_c, 1, 40, 112
3, 167196, Note_on_c, 1, 40, 0
3, 167220, Note_on_c, 1, 41, 114
3, 167570, Note_on_c, 1, 41, 0
3, 167596, Note_on_c, 1, 48, 112
3, 167758, Note_on_c, 1, 48, 0
3, 167788, Note_on_c, 1, 51, 110
3, 167940, Note_on_c, 1, 51, 0
3, 167956, Note_on_c, 1, 40, 102
3, 168164, Note_on_c, 1, 40, 0
3, 168164, Note_on_c, 1, 41, 111
3, 168342, Note_on_c, 1, 41, 0
3, 168342, Note_on_c, 1, 42, 107
3, 168544, Note_on_c, 1, 42, 0
3, 168544, Note_on_c, 1, 43, 112
3, 168714, Note_on_c, 1, 43, 0
3, 168728, Note_on_c, 1, 36, 102
3, 169086, Note_on_c, 1, 36, 0
3, 169120, Note_on_c, 1, 43, 109
3, 169216, Note_on_c, 1, 43, 0
3, 169224, Note_on_c, 1, 36, 115
3, 169294, Note_on_c, 1, 36, 0
3, 169316, Note_on_c, 1, 48, 121
3, 169426, Note_on_c, 1, 48, 0
3, 169496, Note_on_c, 1, 39, 110
3, 169884, Note_on_c, 1, 39, 0
3, 169884, Note_on_c, 1, 40, 112
3, 170272, Note_on_c, 1, 40, 0
3, 170272, Note_on_c, 1, 41, 115
3, 170642, Note_on_c, 1, 41, 0
3, 170648, Note_on_c, 1, 48, 118
3, 170832, Note_on_c, 1, 48, 0
3, 170848, Note_on_c, 1, 51, 110
3, 170890, Note_on_c, 1, 51, 0
3, 170956, Note_on_c, 1, 51, 125
3, 170988, Note_on_c, 1, 51, 0
3, 171032, Note_on_c, 1, 40, 109
3, 171232, Note_on_c, 1, 40, 0
3, 171252, Note_on_c, 1, 41, 107
3, 171312, Note_on_c, 1, 41, 0
3, 171340, Note_on_c, 1, 42, 107
3, 171382, Note_on_c, 1, 42, 0
3, 171426, Note_on_c, 1, 43, 112
3, 171608, Note_on_c, 1, 43, 0
3, 171614, Note_on_c, 1, 31, 115
3, 171680, Note_on_c, 1, 31, 0
3, 171712, Note_on_c, 1, 34, 116
3, 171756, Note_on_c, 1, 34, 0
3, 171804, Note_on_c, 1, 35, 114
3, 171996, Note_on_c, 1, 35, 0
3, 172010, Note_on_c, 1, 36, 103
3, 172170, Note_on_c, 1, 36, 0
3, 172198, Note_on_c, 1, 43, 118
3, 172378, Note_on_c, 1, 43, 0
3, 172388, Note_on_c, 1, 48, 110
3, 172526, Note_on_c, 1, 48, 0
3, 172568, Note_on_c, 1, 39, 108
3, 172962, Note_on_c, 1, 39, 0
3, 172962, Note_on_c, 1, 40, 111
3, 173352, Note_on_c, 1, 40, 0
3, 173352, Note_on_c, 1, 41, 113
3, 173720, Note_on_c, 1, 41, 0
3, 173726, Note_on_c, 1, 48, 116
3, 173910, Note_on_c, 1, 48, 0
3, 173920, Note_on_c, 1, 51, 109
3, 174050, Note_on_c, 1, 51, 0
3, 174104, Note_on_c, 1, 40, 108
3, 174312, Note_on_c, 1, 40, 0
3, 174312, Note_on_c, 1, 41, 106
3, 174494, Note_on_c, 1, 41, 0
3, 174494, Note_on_c, 1, 42, 111
3, 174694, Note_on_c, 1, 42, 0
3, 174694, Note_on_c, 1, 43, 113
3, 174760, Note_on_c, 1, 43, 0
3, 174804, Note_on_c, 1, 38, 111
3, 174826, Note_on_c, 1, 38, 0
3, 174884, Note_on_c, 1, 35, 109
3, 175058, Note_on_c, 1, 35, 0
3, 175082, Note_on_c, 1, 36, 106
3, 175264, Note_on_c, 1, 36, 0
3, 175278, Note_on_c, 1, 43, 111
3, 175398, Note_on_c, 1, 43, 0
3, 175464, Note_on_c, 1, 48, 109
3, 175484, Note_on_c, 1, 48, 0
3, 175652, Note_on_c, 1, 39, 110
3, 176042, Note_on_c, 1, 39, 0
3, 176042, Note_on_c, 1, 40, 113
3, 176432, Note_on_c, 1, 40, 0
3, 176432, Note_on_c, 1, 41, 115
3, 176806, Note_on_c, 1, 41, 0
3, 176810, Note_on_c, 1, 48, 118
3, 176850, Note_on_c, 1, 48, 0
3, 177016, Note_on_c, 1, 51, 111
3, 177032, Note_on_c, 1, 51, 0
3, 177188, Note_on_c, 1, 40, 107
3, 177388, Note_on_c, 1, 40, 0
3, 177388, Note_on_c, 1, 41, 105
3, 177568, Note_on_c, 1, 41, 0
3, 177580, Note_on_c, 1, 42, 103
3, 177588, Note_on_c, 1, 42, 0
3, 177588, Note_on_c, 1, 58, 103
3, 177760, Note_on_c, 1, 58, 0
3, 177762, Note_on_c, 1, 43, 101
3, 177918, Note_on_c, 1, 43, 0
3, 177948, Note_on_c, 1, 35, 96
3, 178122, Note_on_c, 1, 35, 0
3, 178146, Note_on_c, 1, 36, 92
3, 178328, Note_on_c, 1, 36, 0
3, 178344, Note_on_c, 1, 43, 88
3, 178380, Note_on_c, 1, 43, 0
3, 178536, Note_on_c, 1, 48, 85
3, 178550, Note_on_c, 1, 48, 0
3, 178724, Note_on_c, 1, 39, 82
3, 179104, Note_on_c, 1, 39, 0
3, 179104, Note_on_c, 1, 40, 78
3, 179486, Note_on_c, 1, 40, 0
3, 179508, Note_on_c, 1, 41, 75
3, 179888, Note_on_c, 1, 41, 0
3, 179892, Note_on_c, 1, 48, 71
3, 180068, Note_on_c, 1, 48, 0
3, 180088, Note_on_c, 1, 51, 68
3, 180108, Note_on_c, 1, 51, 0
3, 180260, Note_on_c, 1, 40, 65
3, 180460, Note_on_c, 1, 40, 0
3, 180460, Note_on_c, 1, 41, 61
3, 180644, Note_on_c, 1, 41, 0
3, 180644, Note_on_c, 1, 42, 58
3, 180842, Note_on_c, 1, 42, 0
3, 180842, Note_on_c, 1, 43, 56
3, 181206, Note_on_c, 1, 43, 0
3, 181242, Note_on_c, 1, 36, 49
3, 181408, Note_on_c, 1, 36, 0
3, 181428, Note_on_c, 1, 43, 45
3, 181464, Note_on_c, 1, 43, 0
3, 181620, Note_on_c, 1, 48, 41
3, 181636, Note_on_c, 1, 48, 0
3, 181796, Note_on_c, 1, 39, 36
3, 181932, Note_on_c, 1, 39, 0
3, 182168, Note_on_c, 1, 40, 32
3, 182558, Note_on_c, 1, 40, 0
3, 182592, Note_on_c, 1, 41, 28
3, 182940, Note_on_c, 1, 41, 0
3, 182946, Note_on_c, 1, 48, 19
3, 183118, Note_on_c, 1, 48, 0
3, 183140, Note_on_c, 1, 51, 14
3, 183272, Note_on_c, 1, 51, 0
3, 183332, Note_on_c, 1, 40, 10
3, 183524, Note_on_c, 1, 40, 0
3, 183524, Note_on_c, 1, 41, 7
3, 183700, Note_on_c, 1, 41, 0
3, 183700, Note_on_c, 1, 42, 4
3, 183910, Note_on_c, 1, 42, 0
3, 183910, Note_on_c, 1, 43, 2
3, 184076, Note_on_c, 1, 43, 0
3, 184096, Note_on_c, 1, 36, 1
3, 184446, Note_on_c, 1, 36, 0
3, 184446, End_track
4, 0, Start_track
4, 0, Title_t, "Drums"
4, 0, Program_c, 9, 0
4, 0, Control_c, 9, 7, 79
4, 0, Note_on_c, 9, 42, 75
4, 0, Note_on_c, 9, 36, 78
4, 48, Note_on_c, 9, 36, 0
4, 48, Note_on_c, 9, 42, 0
4, 176, Note_on_c, 9, 42, 80
4, 224, Note_on_c, 9, 42, 0
4, 272, Note_on_c, 9, 42, 76
4, 320, Note_on_c, 9, 42, 0
4, 368, Note_on_c, 9, 37, 78
4, 368, Note_on_c, 9, 42, 127
4, 416, Note_on_c, 9, 42, 0
4, 416, Note_on_c, 9, 37, 0
4, 560, Note_on_c, 9, 42, 84
4, 608, Note_on_c, 9, 42, 0
4, 752, Note_on_c, 9, 42, 78
4, 800, Note_on_c, 9, 42, 0
4, 944, Note_on_c, 9, 47, 78
4, 944, Note_on_c, 9, 42, 127
4, 992, Note_on_c, 9, 42, 0
4, 992, Note_on_c, 9, 47, 0
4, 1136, Note_on_c, 9, 50, 78
4, 1136, Note_on_c, 9, 42, 127
4, 1184, Note_on_c, 9, 42, 0
4, 1184, Note_on_c, 9, 50, 0
4, 1328, Note_on_c, 9, 47, 78
4, 1328, Note_on_c, 9, 42, 127
4, 1376, Note_on_c, 9, 42, 0
4, 1376, Note_on_c, 9, 47, 0
4, 1520, Note_on_c, 9, 36, 78
4, 1520, Note_on_c, 9, 42, 75
4, 1568, Note_on_c, 9, 42, 0
4, 1568, Note_on_c, 9, 36, 0
4, 1712, Note_on_c, 9, 42, 80
4, 1760, Note_on_c, 9, 42, 0
4, 1808, Note_on_c, 9, 42, 76
4, 1856, Note_on_c, 9, 42, 0
4, 1904, Note_on_c, 9, 37, 78
4, 1904, Note_on_c, 9, 42, 127
4, 1952, Note_on_c, 9, 42, 0
4, 1952, Note_on_c, 9, 37, 0
4, 2096, Note_on_c, 9, 42, 84
4, 2144, Note_on_c, 9, 42, 0
4, 2288, Note_on_c, 9, 42, 78
4, 2336, Note_on_c, 9, 42, 0
4, 2480, Note_on_c, 9, 47, 78
4, 2480, Note_on_c, 9, 42, 127
4, 2528, Note_on_c, 9, 42, 0
4, 2528, Note_on_c, 9, 47, 0
4, 2672, Note_on_c, 9, 50, 78
4, 2672, Note_on_c, 9, 42, 127
4, 2720, Note_on_c, 9, 42, 0
4, 2720, Note_on_c, 9, 50, 0
4, 2864, Note_on_c, 9, 47, 78
4, 2864, Note_on_c, 9, 42, 127
4, 2912, Note_on_c, 9, 42, 0
4, 2912, Note_on_c, 9, 47, 0
4, 3056, Note_on_c, 9, 36, 78
4, 3056, Note_on_c, 9, 42, 75
4, 3104, Note_on_c, 9, 42, 0
4, 3104, Note_on_c, 9, 36, 0
4, 3248, Note_on_c, 9, 42, 80
4, 3296, Note_on_c, 9, 42, 0
4, 3344, Note_on_c, 9, 42, 76
4, 3392, Note_on_c, 9, 42, 0
4, 3440, Note_on_c, 9, 37, 78
4, 3440, Note_on_c, 9, 42, 127
4, 3488, Note_on_c, 9, 42, 0
4, 3488, Note_on_c, 9, 37, 0
4, 3632, Note_on_c, 9, 42, 84
4, 3680, Note_on_c, 9, 42, 0
4, 3824, Note_on_c, 9, 42, 78
4, 3872, Note_on_c, 9, 42, 0
4, 4016, Note_on_c, 9, 47, 78
4, 4016, Note_on_c, 9, 42, 127
4, 4064, Note_on_c, 9, 42, 0
4, 4064, Note_on_c, 9, 47, 0
4, 4208, Note_on_c, 9, 50, 78
4, 4208, Note_on_c, 9, 42, 127
4, 4256, Note_on_c, 9, 42, 0
4, 4256, Note_on_c, 9, 50, 0
4, 4400, Note_on_c, 9, 47, 78
4, 4400, Note_on_c, 9, 42, 127
4, 4448, Note_on_c, 9, 42, 0
4, 4448, Note_on_c, 9, 47, 0
4, 4592, Note_on_c, 9, 36, 78
4, 4592, Note_on_c, 9, 42, 75
4, 4640, Note_on_c, 9, 42, 0
4, 4640, Note_on_c, 9, 36, 0
4, 4784, Note_on_c, 9, 42, 80
4, 4832, Note_on_c, 9, 42, 0
4, 4880, Note_on_c, 9, 42, 76
4, 4928, Note_on_c, 9, 42, 0
4, 4976, Note_on_c, 9, 37, 78
4, 4976, Note_on_c, 9, 42, 127
4, 5024, Note_on_c, 9, 42, 0
4, 5024, Note_on_c, 9, 37, 0
4, 5168, Note_on_c, 9, 42, 84
4, 5216, Note_on_c, 9, 42, 0
4, 5360, Note_on_c, 9, 42, 78
4, 5408, Note_on_c, 9, 42, 0
4, 5552, Note_on_c, 9, 47, 78
4, 5552, Note_on_c, 9, 42, 127
4, 5600, Note_on_c, 9, 42, 0
4, 5600, Note_on_c, 9, 47, 0
4, 5744, Note_on_c, 9, 50, 78
4, 5744, Note_on_c, 9, 42, 127
4, 5792, Note_on_c, 9, 42, 0
4, 5792, Note_on_c, 9, 50, 0
4, 5936, Note_on_c, 9, 47, 78
4, 5936, Note_on_c, 9, 42, 127
4, 5984, Note_on_c, 9, 42, 0
4, 5984, Note_on_c, 9, 47, 0
4, 6128, Note_on_c, 9, 36, 78
4, 6128, Note_on_c, 9, 42, 75
4, 6176, Note_on_c, 9, 42, 0
4, 6176, Note_on_c, 9, 36, 0
4, 6320, Note_on_c, 9, 42, 80
4, 6368, Note_on_c, 9, 42, 0
4, 6416, Note_on_c, 9, 42, 76
4, 6464, Note_on_c, 9, 42, 0
4, 6512, Note_on_c, 9, 37, 78
4, 6512, Note_on_c, 9, 42, 127
4, 6560, Note_on_c, 9, 42, 0
4, 6560, Note_on_c, 9, 37, 0
4, 6704, Note_on_c, 9, 42, 84
4, 6752, Note_on_c, 9, 42, 0
4, 6896, Note_on_c, 9, 42, 78
4, 6944, Note_on_c, 9, 42, 0
4, 7088, Note_on_c, 9, 47, 78
4, 7088, Note_on_c, 9, 42, 127
4, 7136, Note_on_c, 9, 42, 0
4, 7136, Note_on_c, 9, 47, 0
4, 7280, Note_on_c, 9, 50, 78
4, 7280, Note_on_c, 9, 42, 127
4, 7328, Note_on_c, 9, 42, 0
4, 7328, Note_on_c, 9, 50, 0
4, 7472, Note_on_c, 9, 47, 78
4, 7472, Note_on_c, 9, 42, 127
4, 7520, Note_on_c, 9, 42, 0
4, 7520, Note_on_c, 9, 47, 0
4, 7664, Note_on_c, 9, 36, 78
4, 7664, Note_on_c, 9, 42, 75
4, 7712, Note_on_c, 9, 42, 0
4, 7712, Note_on_c, 9, 36, 0
4, 7856, Note_on_c, 9, 42, 80
4, 7904, Note_on_c, 9, 42, 0
4, 7952, Note_on_c, 9, 42, 76
4, 8000, Note_on_c, 9, 42, 0
4, 8048, Note_on_c, 9, 37, 78
4, 8048, Note_on_c, 9, 42, 127
4, 8096, Note_on_c, 9, 42, 0
4, 8096, Note_on_c, 9, 37, 0
4, 8240, Note_on_c, 9, 42, 84
4, 8288, Note_on_c, 9, 42, 0
4, 8432, Note_on_c, 9, 42, 78
4, 8480, Note_on_c, 9, 42, 0
4, 8624, Note_on_c, 9, 47, 78
4, 8624, Note_on_c, 9, 42, 127
4, 8672, Note_on_c, 9, 42, 0
4, 8672, Note_on_c, 9, 47, 0
4, 8816, Note_on_c, 9, 50, 78
4, 8816, Note_on_c, 9, 42, 127
4, 8864, Note_on_c, 9, 42, 0
4, 8864, Note_on_c, 9, 50, 0
4, 9008, Note_on_c, 9, 47, 78
4, 9008, Note_on_c, 9, 42, 127
4, 9056, Note_on_c, 9, 42, 0
4, 9056, Note_on_c, 9, 47, 0
4, 9200, Note_on_c, 9, 36, 78
4, 9200, Note_on_c, 9, 42, 75
4, 9248, Note_on_c, 9, 42, 0
4, 9248, Note_on_c, 9, 36, 0
4, 9392, Note_on_c, 9, 42, 80
4, 9440, Note_on_c, 9, 42, 0
4, 9488, Note_on_c, 9, 42, 76
4, 9536, Note_on_c, 9, 42, 0
4, 9584, Note_on_c, 9, 37, 78
4, 9584, Note_on_c, 9, 42, 127
4, 9632, Note_on_c, 9, 42, 0
4, 9632, Note_on_c, 9, 37, 0
4, 9776, Note_on_c, 9, 42, 84
4, 9824, Note_on_c, 9, 42, 0
4, 9968, Note_on_c, 9, 42, 78
4, 10016, Note_on_c, 9, 42, 0
4, 10160, Note_on_c, 9, 47, 78
4, 10160, Note_on_c, 9, 42, 127
4, 10208, Note_on_c, 9, 42, 0
4, 10208, Note_on_c, 9, 47, 0
4, 10352, Note_on_c, 9, 50, 78
4, 10352, Note_on_c, 9, 42, 127
4, 10400, Note_on_c, 9, 42, 0
4, 10400, Note_on_c, 9, 50, 0
4, 10544, Note_on_c, 9, 47, 78
4, 10544, Note_on_c, 9, 42, 127
4, 10592, Note_on_c, 9, 42, 0
4, 10592, Note_on_c, 9, 47, 0
4, 10736, Note_on_c, 9, 36, 78
4, 10736, Note_on_c, 9, 42, 75
4, 10784, Note_on_c, 9, 42, 0
4, 10784, Note_on_c, 9, 36, 0
4, 10928, Note_on_c, 9, 42, 80
4, 10976, Note_on_c, 9, 42, 0
4, 11024, Note_on_c, 9, 42, 76
4, 11072, Note_on_c, 9, 42, 0
4, 11120, Note_on_c, 9, 37, 78
4, 11120, Note_on_c, 9, 42, 127
4, 11168, Note_on_c, 9, 42, 0
4, 11168, Note_on_c, 9, 37, 0
4, 11312, Note_on_c, 9, 42, 84
4, 11360, Note_on_c, 9, 42, 0
4, 11504, Note_on_c, 9, 42, 78
4, 11552, Note_on_c, 9, 42, 0
4, 11696, Note_on_c, 9, 47, 78
4, 11696, Note_on_c, 9, 42, 127
4, 11744, Note_on_c, 9, 42, 0
4, 11744, Note_on_c, 9, 47, 0
4, 11888, Note_on_c, 9, 50, 78
4, 11888, Note_on_c, 9, 42, 127
4, 11936, Note_on_c, 9, 42, 0
4, 11936, Note_on_c, 9, 50, 0
4, 12080, Note_on_c, 9, 47, 78
4, 12080, Note_on_c, 9, 42, 127
4, 12128, Note_on_c, 9, 42, 0
4, 12128, Note_on_c, 9, 47, 0
4, 12272, Note_on_c, 9, 36, 78
4, 12272, Note_on_c, 9, 42, 75
4, 12276, Note_on_c, 9, 75, 127
4, 12320, Note_on_c, 9, 42, 0
4, 12320, Note_on_c, 9, 36, 0
4, 12352, Note_on_c, 9, 75, 0
4, 12464, Note_on_c, 9, 42, 80
4, 12512, Note_on_c, 9, 42, 0
4, 12560, Note_on_c, 9, 63, 101
4, 12560, Note_on_c, 9, 42, 76
4, 12560, Note_on_c, 9, 62, 125
4, 12608, Note_on_c, 9, 42, 0
4, 12656, Note_on_c, 9, 62, 0
4, 12656, Note_on_c, 9, 63, 0
4, 12656, Note_on_c, 9, 42, 127
4, 12656, Note_on_c, 9, 37, 78
4, 12660, Note_on_c, 9, 62, 111
4, 12704, Note_on_c, 9, 37, 0
4, 12704, Note_on_c, 9, 42, 0
4, 12752, Note_on_c, 9, 62, 0
4, 12848, Note_on_c, 9, 42, 84
4, 12848, Note_on_c, 9, 62, 127
4, 12848, Note_on_c, 9, 75, 127
4, 12896, Note_on_c, 9, 42, 0
4, 12944, Note_on_c, 9, 75, 0
4, 12944, Note_on_c, 9, 62, 0
4, 13040, Note_on_c, 9, 42, 78
4, 13088, Note_on_c, 9, 42, 0
4, 13232, Note_on_c, 9, 42, 127
4, 13232, Note_on_c, 9, 47, 78
4, 13236, Note_on_c, 9, 62, 127
4, 13280, Note_on_c, 9, 47, 0
4, 13280, Note_on_c, 9, 42, 0
4, 13328, Note_on_c, 9, 62, 0
4, 13424, Note_on_c, 9, 42, 127
4, 13424, Note_on_c, 9, 50, 78
4, 13428, Note_on_c, 9, 75, 127
4, 13428, Note_on_c, 9, 64, 127
4, 13432, Note_on_c, 9, 64, 127
4, 13472, Note_on_c, 9, 50, 0
4, 13472, Note_on_c, 9, 42, 0
4, 13520, Note_on_c, 9, 64, 0
4, 13520, Note_on_c, 9, 75, 0
4, 13524, Note_on_c, 9, 64, 0
4, 13616, Note_on_c, 9, 64, 127
4, 13616, Note_on_c, 9, 42, 127
4, 13616, Note_on_c, 9, 47, 78
4, 13664, Note_on_c, 9, 47, 0
4, 13664, Note_on_c, 9, 42, 0
4, 13712, Note_on_c, 9, 64, 0
4, 13808, Note_on_c, 9, 36, 78
4, 13808, Note_on_c, 9, 42, 75
4, 13856, Note_on_c, 9, 42, 0
4, 13856, Note_on_c, 9, 36, 0
4, 14000, Note_on_c, 9, 64, 66
4, 14000, Note_on_c, 9, 63, 98
4, 14000, Note_on_c, 9, 42, 80
4, 14048, Note_on_c, 9, 42, 0
4, 14096, Note_on_c, 9, 63, 0
4, 14096, Note_on_c, 9, 64, 0
4, 14096, Note_on_c, 9, 42, 76
4, 14096, Note_on_c, 9, 62, 111
4, 14100, Note_on_c, 9, 62, 127
4, 14144, Note_on_c, 9, 42, 0
4, 14192, Note_on_c, 9, 62, 0
4, 14192, Note_on_c, 9, 62, 0
4, 14192, Note_on_c, 9, 37, 78
4, 14196, Note_on_c, 9, 75, 127
4, 14196, Note_on_c, 9, 42, 127
4, 14240, Note_on_c, 9, 42, 0
4, 14240, Note_on_c, 9, 37, 0
4, 14288, Note_on_c, 9, 75, 0
4, 14384, Note_on_c, 9, 42, 84
4, 14384, Note_on_c, 9, 62, 127
4, 14432, Note_on_c, 9, 42, 0
4, 14480, Note_on_c, 9, 62, 0
4, 14576, Note_on_c, 9, 75, 127
4, 14576, Note_on_c, 9, 42, 78
4, 14580, Note_on_c, 9, 62, 127
4, 14624, Note_on_c, 9, 42, 0
4, 14672, Note_on_c, 9, 62, 0
4, 14672, Note_on_c, 9, 75, 0
4, 14768, Note_on_c, 9, 47, 78
4, 14768, Note_on_c, 9, 42, 127
4, 14772, Note_on_c, 9, 62, 127
4, 14816, Note_on_c, 9, 42, 0
4, 14816, Note_on_c, 9, 47, 0
4, 14864, Note_on_c, 9, 62, 0
4, 14960, Note_on_c, 9, 42, 127
4, 14960, Note_on_c, 9, 50, 78
4, 14964, Note_on_c, 9, 64, 127
4, 15008, Note_on_c, 9, 50, 0
4, 15008, Note_on_c, 9, 42, 0
4, 15056, Note_on_c, 9, 64, 0
4, 15152, Note_on_c, 9, 64, 127
4, 15152, Note_on_c, 9, 42, 127
4, 15152, Note_on_c, 9, 47, 78
4, 15200, Note_on_c, 9, 47, 0
4, 15200, Note_on_c, 9, 42, 0
4, 15248, Note_on_c, 9, 64, 0
4, 15344, Note_on_c, 9, 36, 78
4, 15344, Note_on_c, 9, 42, 75
4, 15348, Note_on_c, 9, 75, 127
4, 15392, Note_on_c, 9, 42, 0
4, 15392, Note_on_c, 9, 36, 0
4, 15440, Note_on_c, 9, 75, 0
4, 15536, Note_on_c, 9, 42, 80
4, 15584, Note_on_c, 9, 42, 0
4, 15632, Note_on_c, 9, 42, 76
4, 15680, Note_on_c, 9, 42, 0
4, 15728, Note_on_c, 9, 37, 78
4, 15728, Note_on_c, 9, 42, 127
4, 15732, Note_on_c, 9, 62, 127
4, 15776, Note_on_c, 9, 42, 0
4, 15776, Note_on_c, 9, 37, 0
4, 15824, Note_on_c, 9, 62, 0
4, 15920, Note_on_c, 9, 75, 127
4, 15920, Note_on_c, 9, 42, 84
4, 15920, Note_on_c, 9, 62, 127
4, 15968, Note_on_c, 9, 42, 0
4, 16016, Note_on_c, 9, 62, 0
4, 16016, Note_on_c, 9, 75, 0
4, 16112, Note_on_c, 9, 42, 78
4, 16160, Note_on_c, 9, 42, 0
4, 16304, Note_on_c, 9, 62, 127
4, 16304, Note_on_c, 9, 42, 127
4, 16304, Note_on_c, 9, 47, 78
4, 16352, Note_on_c, 9, 47, 0
4, 16352, Note_on_c, 9, 42, 0
4, 16400, Note_on_c, 9, 62, 0
4, 16496, Note_on_c, 9, 42, 127
4, 16496, Note_on_c, 9, 50, 78
4, 16500, Note_on_c, 9, 64, 127
4, 16500, Note_on_c, 9, 75, 127
4, 16544, Note_on_c, 9, 50, 0
4, 16544, Note_on_c, 9, 42, 0
4, 16592, Note_on_c, 9, 64, 0
4, 16592, Note_on_c, 9, 75, 0
4, 16688, Note_on_c, 9, 64, 127
4, 16688, Note_on_c, 9, 47, 78
4, 16688, Note_on_c, 9, 42, 127
4, 16736, Note_on_c, 9, 42, 0
4, 16736, Note_on_c, 9, 47, 0
4, 16784, Note_on_c, 9, 64, 0
4, 16880, Note_on_c, 9, 36, 78
4, 16880, Note_on_c, 9, 42, 75
4, 16928, Note_on_c, 9, 42, 0
4, 16928, Note_on_c, 9, 36, 0
4, 17072, Note_on_c, 9, 42, 80
4, 17072, Note_on_c, 9, 63, 98
4, 17120, Note_on_c, 9, 42, 0
4, 17168, Note_on_c, 9, 63, 0
4, 17168, Note_on_c, 9, 62, 122
4, 17168, Note_on_c, 9, 42, 76
4, 17216, Note_on_c, 9, 42, 0
4, 17264, Note_on_c, 9, 62, 0
4, 17264, Note_on_c, 9, 37, 78
4, 17264, Note_on_c, 9, 42, 127
4, 17268, Note_on_c, 9, 75, 127
4, 17268, Note_on_c, 9, 62, 125
4, 17312, Note_on_c, 9, 42, 0
4, 17312, Note_on_c, 9, 37, 0
4, 17360, Note_on_c, 9, 75, 0
4, 17360, Note_on_c, 9, 62, 0
4, 17456, Note_on_c, 9, 62, 127
4, 17456, Note_on_c, 9, 42, 84
4, 17504, Note_on_c, 9, 42, 0
4, 17552, Note_on_c, 9, 62, 0
4, 17648, Note_on_c, 9, 75, 127
4, 17648, Note_on_c, 9, 42, 78
4, 17652, Note_on_c, 9, 62, 118
4, 17696, Note_on_c, 9, 42, 0
4, 17744, Note_on_c, 9, 62, 0
4, 17744, Note_on_c, 9, 75, 0
4, 17840, Note_on_c, 9, 47, 78
4, 17840, Note_on_c, 9, 42, 127
4, 17844, Note_on_c, 9, 65, 108
4, 17844, Note_on_c, 9, 62, 127
4, 17844, Note_on_c, 9, 66, 107
4, 17844, Note_on_c, 9, 65, 108
4, 17888, Note_on_c, 9, 42, 0
4, 17888, Note_on_c, 9, 47, 0
4, 17936, Note_on_c, 9, 66, 0
4, 17936, Note_on_c, 9, 62, 0
4, 17936, Note_on_c, 9, 65, 0
4, 17940, Note_on_c, 9, 65, 0
4, 18032, Note_on_c, 9, 50, 78
4, 18032, Note_on_c, 9, 42, 127
4, 18032, Note_on_c, 9, 64, 127
4, 18040, Note_on_c, 9, 66, 107
4, 18080, Note_on_c, 9, 42, 0
4, 18080, Note_on_c, 9, 50, 0
4, 18128, Note_on_c, 9, 64, 0
4, 18128, Note_on_c, 9, 66, 0
4, 18224, Note_on_c, 9, 64, 127
4, 18224, Note_on_c, 9, 42, 127
4, 18224, Note_on_c, 9, 47, 78
4, 18272, Note_on_c, 9, 47, 0
4, 18272, Note_on_c, 9, 42, 0
4, 18320, Note_on_c, 9, 64, 0
4, 18416, Note_on_c, 9, 36, 78
4, 18416, Note_on_c, 9, 42, 75
4, 18420, Note_on_c, 9, 75, 127
4, 18464, Note_on_c, 9, 42, 0
4, 18464, Note_on_c, 9, 36, 0
4, 18512, Note_on_c, 9, 75, 0
4, 18608, Note_on_c, 9, 42, 80
4, 18656, Note_on_c, 9, 42, 0
4, 18704, Note_on_c, 9, 63, 101
4, 18704, Note_on_c, 9, 42, 76
4, 18704, Note_on_c, 9, 62, 125
4, 18752, Note_on_c, 9, 42, 0
4, 18800, Note_on_c, 9, 62, 0
4, 18800, Note_on_c, 9, 63, 0
4, 18800, Note_on_c, 9, 37, 78
4, 18804, Note_on_c, 9, 42, 127
4, 18804, Note_on_c, 9, 62, 111
4, 18848, Note_on_c, 9, 42, 0
4, 18848, Note_on_c, 9, 37, 0
4, 18896, Note_on_c, 9, 62, 0
4, 18992, Note_on_c, 9, 42, 84
4, 18992, Note_on_c, 9, 62, 127
4, 18992, Note_on_c, 9, 75, 127
4, 19040, Note_on_c, 9, 42, 0
4, 19088, Note_on_c, 9, 75, 0
4, 19088, Note_on_c, 9, 62, 0
4, 19184, Note_on_c, 9, 42, 78
4, 19232, Note_on_c, 9, 42, 0
4, 19376, Note_on_c, 9, 47, 78
4, 19376, Note_on_c, 9, 42, 127
4, 19376, Note_on_c, 9, 62, 127
4, 19424, Note_on_c, 9, 42, 0
4, 19424, Note_on_c, 9, 47, 0
4, 19472, Note_on_c, 9, 62, 0
4, 19568, Note_on_c, 9, 50, 78
4, 19568, Note_on_c, 9, 42, 127
4, 19572, Note_on_c, 9, 64, 127
4, 19572, Note_on_c, 9, 75, 127
4, 19576, Note_on_c, 9, 64, 127
4, 19616, Note_on_c, 9, 42, 0
4, 19616, Note_on_c, 9, 50, 0
4, 19664, Note_on_c, 9, 75, 0
4, 19664, Note_on_c, 9, 64, 0
4, 19668, Note_on_c, 9, 64, 0
4, 19760, Note_on_c, 9, 64, 127
4, 19760, Note_on_c, 9, 47, 78
4, 19760, Note_on_c, 9, 42, 127
4, 19808, Note_on_c, 9, 42, 0
4, 19808, Note_on_c, 9, 47, 0
4, 19856, Note_on_c, 9, 64, 0
4, 19952, Note_on_c, 9, 36, 78
4, 19952, Note_on_c, 9, 42, 75
4, 20000, Note_on_c, 9, 42, 0
4, 20000, Note_on_c, 9, 36, 0
4, 20144, Note_on_c, 9, 42, 80
4, 20144, Note_on_c, 9, 63, 98
4, 20144, Note_on_c, 9, 64, 66
4, 20192, Note_on_c, 9, 42, 0
4, 20240, Note_on_c, 9, 64, 0
4, 20240, Note_on_c, 9, 63, 0
4, 20240, Note_on_c, 9, 42, 76
4, 20244, Note_on_c, 9, 62, 127
4, 20244, Note_on_c, 9, 62, 111
4, 20288, Note_on_c, 9, 42, 0
4, 20336, Note_on_c, 9, 62, 0
4, 20336, Note_on_c, 9, 62, 0
4, 20336, Note_on_c, 9, 37, 78
4, 20340, Note_on_c, 9, 75, 127
4, 20340, Note_on_c, 9, 42, 127
4, 20384, Note_on_c, 9, 42, 0
4, 20384, Note_on_c, 9, 37, 0
4, 20432, Note_on_c, 9, 75, 0
4, 20528, Note_on_c, 9, 42, 84
4, 20528, Note_on_c, 9, 62, 127
4, 20576, Note_on_c, 9, 42, 0
4, 20624, Note_on_c, 9, 62, 0
4, 20720, Note_on_c, 9, 42, 78
4, 20720, Note_on_c, 9, 75, 127
4, 20724, Note_on_c, 9, 62, 127
4, 20768, Note_on_c, 9, 42, 0
4, 20816, Note_on_c, 9, 62, 0
4, 20816, Note_on_c, 9, 75, 0
4, 20912, Note_on_c, 9, 47, 78
4, 20912, Note_on_c, 9, 42, 127
4, 20912, Note_on_c, 9, 62, 127
4, 20960, Note_on_c, 9, 42, 0
4, 20960, Note_on_c, 9, 47, 0
4, 21008, Note_on_c, 9, 62, 0
4, 21104, Note_on_c, 9, 50, 78
4, 21104, Note_on_c, 9, 64, 127
4, 21104, Note_on_c, 9, 42, 127
4, 21152, Note_on_c, 9, 42, 0
4, 21152, Note_on_c, 9, 50, 0
4, 21200, Note_on_c, 9, 64, 0
4, 21296, Note_on_c, 9, 64, 127
4, 21296, Note_on_c, 9, 42, 127
4, 21296, Note_on_c, 9, 47, 78
4, 21344, Note_on_c, 9, 47, 0
4, 21344, Note_on_c, 9, 42, 0
4, 21392, Note_on_c, 9, 64, 0
4, 21488, Note_on_c, 9, 42, 75
4, 21488, Note_on_c, 9, 36, 78
4, 21488, Note_on_c, 9, 75, 127
4, 21536, Note_on_c, 9, 36, 0
4, 21536, Note_on_c, 9, 42, 0
4, 21584, Note_on_c, 9, 75, 0
4, 21680, Note_on_c, 9, 42, 80
4, 21728, Note_on_c, 9, 42, 0
4, 21776, Note_on_c, 9, 42, 76
4, 21824, Note_on_c, 9, 42, 0
4, 21872, Note_on_c, 9, 37, 78
4, 21872, Note_on_c, 9, 42, 127
4, 21876, Note_on_c, 9, 62, 127
4, 21920, Note_on_c, 9, 42, 0
4, 21920, Note_on_c, 9, 37, 0
4, 21968, Note_on_c, 9, 62, 0
4, 22064, Note_on_c, 9, 42, 84
4, 22064, Note_on_c, 9, 62, 127
4, 22064, Note_on_c, 9, 75, 127
4, 22112, Note_on_c, 9, 42, 0
4, 22160, Note_on_c, 9, 75, 0
4, 22160, Note_on_c, 9, 62, 0
4, 22256, Note_on_c, 9, 42, 78
4, 22304, Note_on_c, 9, 42, 0
4, 22448, Note_on_c, 9, 62, 127
4, 22448, Note_on_c, 9, 42, 127
4, 22448, Note_on_c, 9, 47, 78
4, 22496, Note_on_c, 9, 47, 0
4, 22496, Note_on_c, 9, 42, 0
4, 22544, Note_on_c, 9, 62, 0
4, 22640, Note_on_c, 9, 50, 78
4, 22640, Note_on_c, 9, 42, 127
4, 22644, Note_on_c, 9, 75, 127
4, 22644, Note_on_c, 9, 64, 127
4, 22688, Note_on_c, 9, 42, 0
4, 22688, Note_on_c, 9, 50, 0
4, 22736, Note_on_c, 9, 75, 0
4, 22736, Note_on_c, 9, 64, 0
4, 22832, Note_on_c, 9, 42, 127
4, 22832, Note_on_c, 9, 64, 127
4, 22832, Note_on_c, 9, 47, 78
4, 22880, Note_on_c, 9, 47, 0
4, 22880, Note_on_c, 9, 42, 0
4, 22928, Note_on_c, 9, 64, 0
4, 23024, Note_on_c, 9, 36, 78
4, 23024, Note_on_c, 9, 42, 75
4, 23072, Note_on_c, 9, 42, 0
4, 23072, Note_on_c, 9, 36, 0
4, 23216, Note_on_c, 9, 63, 98
4, 23216, Note_on_c, 9, 42, 80
4, 23264, Note_on_c, 9, 42, 0
4, 23312, Note_on_c, 9, 63, 0
4, 23312, Note_on_c, 9, 42, 76
4, 23312, Note_on_c, 9, 62, 122
4, 23360, Note_on_c, 9, 42, 0
4, 23408, Note_on_c, 9, 62, 0
4, 23408, Note_on_c, 9, 42, 127
4, 23408, Note_on_c, 9, 37, 78
4, 23412, Note_on_c, 9, 75, 127
4, 23416, Note_on_c, 9, 62, 125
4, 23416, Note_on_c, 9, 65, 108
4, 23416, Note_on_c, 9, 66, 99
4, 23456, Note_on_c, 9, 37, 0
4, 23456, Note_on_c, 9, 42, 0
4, 23504, Note_on_c, 9, 65, 0
4, 23504, Note_on_c, 9, 75, 0
4, 23504, Note_on_c, 9, 66, 0
4, 23508, Note_on_c, 9, 62, 0
4, 23600, Note_on_c, 9, 42, 84
4, 23600, Note_on_c, 9, 65, 108
4, 23600, Note_on_c, 9, 62, 127
4, 23648, Note_on_c, 9, 42, 0
4, 23696, Note_on_c, 9, 62, 0
4, 23696, Note_on_c, 9, 65, 0
4, 23792, Note_on_c, 9, 42, 78
4, 23792, Note_on_c, 9, 62, 118
4, 23792, Note_on_c, 9, 75, 127
4, 23800, Note_on_c, 9, 65, 108
4, 23840, Note_on_c, 9, 42, 0
4, 23888, Note_on_c, 9, 62, 0
4, 23888, Note_on_c, 9, 75, 0
4, 23892, Note_on_c, 9, 65, 0
4, 23984, Note_on_c, 9, 47, 78
4, 23984, Note_on_c, 9, 62, 127
4, 23984, Note_on_c, 9, 42, 127
4, 23988, Note_on_c, 9, 65, 108
4, 24032, Note_on_c, 9, 42, 0
4, 24032, Note_on_c, 9, 47, 0
4, 24080, Note_on_c, 9, 62, 0
4, 24080, Note_on_c, 9, 65, 0
4, 24176, Note_on_c, 9, 42, 127
4, 24176, Note_on_c, 9, 50, 78
4, 24180, Note_on_c, 9, 65, 108
4, 24180, Note_on_c, 9, 64, 127
4, 24184, Note_on_c, 9, 65, 108
4, 24224, Note_on_c, 9, 50, 0
4, 24224, Note_on_c, 9, 42, 0
4, 24272, Note_on_c, 9, 64, 0
4, 24272, Note_on_c, 9, 65, 0
4, 24272, Note_on_c, 9, 65, 0
4, 24368, Note_on_c, 9, 47, 78
4, 24368, Note_on_c, 9, 42, 127
4, 24368, Note_on_c, 9, 64, 127
4, 24416, Note_on_c, 9, 42, 0
4, 24416, Note_on_c, 9, 47, 0
4, 24464, Note_on_c, 9, 64, 0
4, 24560, Note_on_c, 9, 42, 75
4, 24560, Note_on_c, 9, 36, 78
4, 24564, Note_on_c, 9, 75, 127
4, 24608, Note_on_c, 9, 36, 0
4, 24608, Note_on_c, 9, 42, 0
4, 24656, Note_on_c, 9, 75, 0
4, 24752, Note_on_c, 9, 42, 80
4, 24800, Note_on_c, 9, 42, 0
4, 24848, Note_on_c, 9, 63, 101
4, 24848, Note_on_c, 9, 62, 125
4, 24848, Note_on_c, 9, 42, 76
4, 24896, Note_on_c, 9, 42, 0
4, 24944, Note_on_c, 9, 62, 0
4, 24944, Note_on_c, 9, 63, 0
4, 24944, Note_on_c, 9, 37, 78
4, 24948, Note_on_c, 9, 62, 111
4, 24948, Note_on_c, 9, 42, 127
4, 24992, Note_on_c, 9, 42, 0
4, 24992, Note_on_c, 9, 37, 0
4, 25040, Note_on_c, 9, 62, 0
4, 25136, Note_on_c, 9, 42, 84
4, 25136, Note_on_c, 9, 75, 127
4, 25136, Note_on_c, 9, 62, 127
4, 25184, Note_on_c, 9, 42, 0
4, 25232, Note_on_c, 9, 62, 0
4, 25232, Note_on_c, 9, 75, 0
4, 25328, Note_on_c, 9, 42, 78
4, 25376, Note_on_c, 9, 42, 0
4, 25520, Note_on_c, 9, 47, 78
4, 25520, Note_on_c, 9, 42, 127
4, 25520, Note_on_c, 9, 62, 127
4, 25568, Note_on_c, 9, 42, 0
4, 25568, Note_on_c, 9, 47, 0
4, 25616, Note_on_c, 9, 62, 0
4, 25712, Note_on_c, 9, 50, 78
4, 25712, Note_on_c, 9, 42, 127
4, 25712, Note_on_c, 9, 75, 127
4, 25716, Note_on_c, 9, 64, 127
4, 25720, Note_on_c, 9, 64, 127
4, 25760, Note_on_c, 9, 42, 0
4, 25760, Note_on_c, 9, 50, 0
4, 25808, Note_on_c, 9, 64, 0
4, 25808, Note_on_c, 9, 75, 0
4, 25812, Note_on_c, 9, 64, 0
4, 25904, Note_on_c, 9, 47, 78
4, 25904, Note_on_c, 9, 64, 127
4, 25904, Note_on_c, 9, 42, 127
4, 25952, Note_on_c, 9, 42, 0
4, 25952, Note_on_c, 9, 47, 0
4, 26000, Note_on_c, 9, 64, 0
4, 26096, Note_on_c, 9, 36, 78
4, 26096, Note_on_c, 9, 42, 75
4, 26144, Note_on_c, 9, 42, 0
4, 26144, Note_on_c, 9, 36, 0
4, 26288, Note_on_c, 9, 63, 98
4, 26288, Note_on_c, 9, 42, 80
4, 26288, Note_on_c, 9, 64, 66
4, 26336, Note_on_c, 9, 42, 0
4, 26384, Note_on_c, 9, 64, 0
4, 26384, Note_on_c, 9, 63, 0
4, 26384, Note_on_c, 9, 62, 111
4, 26384, Note_on_c, 9, 42, 76
4, 26388, Note_on_c, 9, 62, 127
4, 26432, Note_on_c, 9, 42, 0
4, 26480, Note_on_c, 9, 62, 0
4, 26480, Note_on_c, 9, 62, 0
4, 26480, Note_on_c, 9, 37, 78
4, 26480, Note_on_c, 9, 42, 127
4, 26484, Note_on_c, 9, 75, 127
4, 26528, Note_on_c, 9, 42, 0
4, 26528, Note_on_c, 9, 37, 0
4, 26576, Note_on_c, 9, 75, 0
4, 26672, Note_on_c, 9, 62, 127
4, 26672, Note_on_c, 9, 42, 84
4, 26720, Note_on_c, 9, 42, 0
4, 26768, Note_on_c, 9, 62, 0
4, 26864, Note_on_c, 9, 75, 127
4, 26864, Note_on_c, 9, 42, 78
4, 26868, Note_on_c, 9, 62, 127
4, 26912, Note_on_c, 9, 42, 0
4, 26960, Note_on_c, 9, 62, 0
4, 26960, Note_on_c, 9, 75, 0
4, 27056, Note_on_c, 9, 47, 78
4, 27056, Note_on_c, 9, 42, 127
4, 27060, Note_on_c, 9, 62, 127
4, 27104, Note_on_c, 9, 42, 0
4, 27104, Note_on_c, 9, 47, 0
4, 27152, Note_on_c, 9, 62, 0
4, 27248, Note_on_c, 9, 50, 78
4, 27248, Note_on_c, 9, 42, 127
4, 27252, Note_on_c, 9, 64, 127
4, 27296, Note_on_c, 9, 42, 0
4, 27296, Note_on_c, 9, 50, 0
4, 27344, Note_on_c, 9, 64, 0
4, 27440, Note_on_c, 9, 47, 78
4, 27440, Note_on_c, 9, 64, 127
4, 27440, Note_on_c, 9, 42, 127
4, 27488, Note_on_c, 9, 42, 0
4, 27488, Note_on_c, 9, 47, 0
4, 27536, Note_on_c, 9, 64, 0
4, 27632, Note_on_c, 9, 42, 75
4, 27632, Note_on_c, 9, 75, 127
4, 27632, Note_on_c, 9, 36, 78
4, 27680, Note_on_c, 9, 36, 0
4, 27680, Note_on_c, 9, 42, 0
4, 27728, Note_on_c, 9, 75, 0
4, 27824, Note_on_c, 9, 42, 80
4, 27872, Note_on_c, 9, 42, 0
4, 27920, Note_on_c, 9, 42, 76
4, 27968, Note_on_c, 9, 42, 0
4, 28016, Note_on_c, 9, 42, 127
4, 28016, Note_on_c, 9, 37, 78
4, 28016, Note_on_c, 9, 62, 127
4, 28064, Note_on_c, 9, 37, 0
4, 28064, Note_on_c, 9, 42, 0
4, 28112, Note_on_c, 9, 62, 0
4, 28208, Note_on_c, 9, 42, 84
4, 28208, Note_on_c, 9, 75, 127
4, 28208, Note_on_c, 9, 62, 127
4, 28256, Note_on_c, 9, 42, 0
4, 28304, Note_on_c, 9, 62, 0
4, 28304, Note_on_c, 9, 75, 0
4, 28400, Note_on_c, 9, 42, 78
4, 28448, Note_on_c, 9, 42, 0
4, 28592, Note_on_c, 9, 47, 78
4, 28592, Note_on_c, 9, 62, 127
4, 28592, Note_on_c, 9, 42, 127
4, 28640, Note_on_c, 9, 42, 0
4, 28640, Note_on_c, 9, 47, 0
4, 28688, Note_on_c, 9, 62, 0
4, 28784, Note_on_c, 9, 50, 78
4, 28784, Note_on_c, 9, 42, 127
4, 28784, Note_on_c, 9, 75, 127
4, 28792, Note_on_c, 9, 64, 127
4, 28832, Note_on_c, 9, 42, 0
4, 28832, Note_on_c, 9, 50, 0
4, 28880, Note_on_c, 9, 75, 0
4, 28880, Note_on_c, 9, 64, 0
4, 28976, Note_on_c, 9, 42, 127
4, 28976, Note_on_c, 9, 64, 127
4, 28976, Note_on_c, 9, 47, 78
4, 29024, Note_on_c, 9, 47, 0
4, 29024, Note_on_c, 9, 42, 0
4, 29072, Note_on_c, 9, 64, 0
4, 29168, Note_on_c, 9, 36, 78
4, 29168, Note_on_c, 9, 42, 75
4, 29216, Note_on_c, 9, 42, 0
4, 29216, Note_on_c, 9, 36, 0
4, 29360, Note_on_c, 9, 63, 98
4, 29360, Note_on_c, 9, 42, 80
4, 29408, Note_on_c, 9, 42, 0
4, 29456, Note_on_c, 9, 63, 0
4, 29456, Note_on_c, 9, 62, 122
4, 29456, Note_on_c, 9, 42, 76
4, 29504, Note_on_c, 9, 42, 0
4, 29552, Note_on_c, 9, 62, 0
4, 29552, Note_on_c, 9, 37, 78
4, 29552, Note_on_c, 9, 42, 127
4, 29556, Note_on_c, 9, 62, 125
4, 29556, Note_on_c, 9, 75, 127
4, 29556, Note_on_c, 9, 65, 108
4, 29600, Note_on_c, 9, 42, 0
4, 29600, Note_on_c, 9, 37, 0
4, 29648, Note_on_c, 9, 75, 0
4, 29648, Note_on_c, 9, 62, 0
4, 29648, Note_on_c, 9, 65, 0
4, 29744, Note_on_c, 9, 62, 127
4, 29744, Note_on_c, 9, 42, 84
4, 29792, Note_on_c, 9, 42, 0
4, 29840, Note_on_c, 9, 62, 0
4, 29936, Note_on_c, 9, 42, 78
4, 29936, Note_on_c, 9, 75, 127
4, 29940, Note_on_c, 9, 62, 118
4, 29944, Note_on_c, 9, 65, 108
4, 29984, Note_on_c, 9, 42, 0
4, 30032, Note_on_c, 9, 75, 0
4, 30032, Note_on_c, 9, 62, 0
4, 30032, Note_on_c, 9, 65, 0
4, 30128, Note_on_c, 9, 42, 127
4, 30128, Note_on_c, 9, 65, 108
4, 30128, Note_on_c, 9, 62, 127
4, 30128, Note_on_c, 9, 47, 78
4, 30176, Note_on_c, 9, 47, 0
4, 30176, Note_on_c, 9, 42, 0
4, 30224, Note_on_c, 9, 62, 0
4, 30224, Note_on_c, 9, 65, 0
4, 30320, Note_on_c, 9, 42, 127
4, 30320, Note_on_c, 9, 50, 78
4, 30324, Note_on_c, 9, 65, 108
4, 30324, Note_on_c, 9, 64, 127
4, 30368, Note_on_c, 9, 50, 0
4, 30368, Note_on_c, 9, 42, 0
4, 30416, Note_on_c, 9, 65, 0
4, 30416, Note_on_c, 9, 64, 0
4, 30512, Note_on_c, 9, 47, 78
4, 30512, Note_on_c, 9, 64, 127
4, 30512, Note_on_c, 9, 42, 127
4, 30560, Note_on_c, 9, 42, 0
4, 30560, Note_on_c, 9, 47, 0
4, 30608, Note_on_c, 9, 64, 0
4, 30704, Note_on_c, 9, 36, 78
4, 30704, Note_on_c, 9, 42, 75
4, 30708, Note_on_c, 9, 75, 127
4, 30752, Note_on_c, 9, 42, 0
4, 30752, Note_on_c, 9, 36, 0
4, 30800, Note_on_c, 9, 75, 0
4, 30896, Note_on_c, 9, 42, 80
4, 30944, Note_on_c, 9, 42, 0
4, 30992, Note_on_c, 9, 63, 101
4, 30992, Note_on_c, 9, 42, 76
4, 30992, Note_on_c, 9, 62, 125
4, 31040, Note_on_c, 9, 42, 0
4, 31088, Note_on_c, 9, 62, 0
4, 31088, Note_on_c, 9, 63, 0
4, 31088, Note_on_c, 9, 37, 78
4, 31088, Note_on_c, 9, 42, 127
4, 31092, Note_on_c, 9, 62, 111
4, 31136, Note_on_c, 9, 42, 0
4, 31136, Note_on_c, 9, 37, 0
4, 31184, Note_on_c, 9, 62, 0
4, 31280, Note_on_c, 9, 75, 127
4, 31280, Note_on_c, 9, 62, 127
4, 31280, Note_on_c, 9, 42, 84
4, 31328, Note_on_c, 9, 42, 0
4, 31376, Note_on_c, 9, 62, 0
4, 31376, Note_on_c, 9, 75, 0
4, 31472, Note_on_c, 9, 42, 78
4, 31520, Note_on_c, 9, 42, 0
4, 31664, Note_on_c, 9, 42, 127
4, 31664, Note_on_c, 9, 47, 78
4, 31664, Note_on_c, 9, 62, 127
4, 31712, Note_on_c, 9, 47, 0
4, 31712, Note_on_c, 9, 42, 0
4, 31760, Note_on_c, 9, 62, 0
4, 31856, Note_on_c, 9, 42, 127
4, 31856, Note_on_c, 9, 50, 78
4, 31860, Note_on_c, 9, 64, 127
4, 31860, Note_on_c, 9, 64, 127
4, 31860, Note_on_c, 9, 75, 127
4, 31904, Note_on_c, 9, 50, 0
4, 31904, Note_on_c, 9, 42, 0
4, 31952, Note_on_c, 9, 75, 0
4, 31952, Note_on_c, 9, 64, 0
4, 31956, Note_on_c, 9, 64, 0
4, 32048, Note_on_c, 9, 47, 78
4, 32048, Note_on_c, 9, 42, 127
4, 32048, Note_on_c, 9, 64, 127
4, 32096, Note_on_c, 9, 42, 0
4, 32096, Note_on_c, 9, 47, 0
4, 32144, Note_on_c, 9, 64, 0
4, 32240, Note_on_c, 9, 42, 75
4, 32240, Note_on_c, 9, 36, 78
4, 32288, Note_on_c, 9, 36, 0
4, 32288, Note_on_c, 9, 42, 0
4, 32432, Note_on_c, 9, 64, 66
4, 32432, Note_on_c, 9, 42, 80
4, 32432, Note_on_c, 9, 63, 98
4, 32480, Note_on_c, 9, 42, 0
4, 32528, Note_on_c, 9, 63, 0
4, 32528, Note_on_c, 9, 64, 0
4, 32528, Note_on_c, 9, 62, 111
4, 32528, Note_on_c, 9, 42, 76
4, 32532, Note_on_c, 9, 62, 127
4, 32576, Note_on_c, 9, 42, 0
4, 32624, Note_on_c, 9, 62, 0
4, 32624, Note_on_c, 9, 62, 0
4, 32624, Note_on_c, 9, 42, 127
4, 32624, Note_on_c, 9, 37, 78
4, 32628, Note_on_c, 9, 75, 127
4, 32672, Note_on_c, 9, 37, 0
4, 32672, Note_on_c, 9, 42, 0
4, 32720, Note_on_c, 9, 75, 0
4, 32816, Note_on_c, 9, 62, 127
4, 32816, Note_on_c, 9, 42, 84
4, 32864, Note_on_c, 9, 42, 0
4, 32912, Note_on_c, 9, 62, 0
4, 33008, Note_on_c, 9, 75, 127
4, 33008, Note_on_c, 9, 62, 127
4, 33008, Note_on_c, 9, 42, 78
4, 33056, Note_on_c, 9, 42, 0
4, 33104, Note_on_c, 9, 62, 0
4, 33104, Note_on_c, 9, 75, 0
4, 33200, Note_on_c, 9, 47, 78
4, 33200, Note_on_c, 9, 42, 127
4, 33204, Note_on_c, 9, 62, 127
4, 33248, Note_on_c, 9, 42, 0
4, 33248, Note_on_c, 9, 47, 0
4, 33296, Note_on_c, 9, 62, 0
4, 33392, Note_on_c, 9, 42, 127
4, 33392, Note_on_c, 9, 50, 78
4, 33396, Note_on_c, 9, 64, 127
4, 33440, Note_on_c, 9, 50, 0
4, 33440, Note_on_c, 9, 42, 0
4, 33488, Note_on_c, 9, 64, 0
4, 33584, Note_on_c, 9, 64, 127
4, 33584, Note_on_c, 9, 47, 78
4, 33584, Note_on_c, 9, 42, 127
4, 33632, Note_on_c, 9, 42, 0
4, 33632, Note_on_c, 9, 47, 0
4, 33680, Note_on_c, 9, 64, 0
4, 33776, Note_on_c, 9, 36, 78
4, 33776, Note_on_c, 9, 42, 75
4, 33780, Note_on_c, 9, 75, 127
4, 33824, Note_on_c, 9, 42, 0
4, 33824, Note_on_c, 9, 36, 0
4, 33872, Note_on_c, 9, 75, 0
4, 33968, Note_on_c, 9, 42, 80
4, 34016, Note_on_c, 9, 42, 0
4, 34064, Note_on_c, 9, 42, 76
4, 34112, Note_on_c, 9, 42, 0
4, 34160, Note_on_c, 9, 37, 78
4, 34160, Note_on_c, 9, 62, 127
4, 34160, Note_on_c, 9, 42, 127
4, 34208, Note_on_c, 9, 42, 0
4, 34208, Note_on_c, 9, 37, 0
4, 34256, Note_on_c, 9, 62, 0
4, 34352, Note_on_c, 9, 42, 84
4, 34352, Note_on_c, 9, 75, 127
4, 34352, Note_on_c, 9, 62, 127
4, 34400, Note_on_c, 9, 42, 0
4, 34448, Note_on_c, 9, 62, 0
4, 34448, Note_on_c, 9, 75, 0
4, 34544, Note_on_c, 9, 42, 78
4, 34592, Note_on_c, 9, 42, 0
4, 34736, Note_on_c, 9, 42, 127
4, 34736, Note_on_c, 9, 62, 127
4, 34736, Note_on_c, 9, 47, 78
4, 34784, Note_on_c, 9, 47, 0
4, 34784, Note_on_c, 9, 42, 0
4, 34832, Note_on_c, 9, 62, 0
4, 34928, Note_on_c, 9, 50, 78
4, 34928, Note_on_c, 9, 42, 127
4, 34932, Note_on_c, 9, 75, 127
4, 34932, Note_on_c, 9, 64, 127
4, 34976, Note_on_c, 9, 42, 0
4, 34976, Note_on_c, 9, 50, 0
4, 35024, Note_on_c, 9, 75, 0
4, 35024, Note_on_c, 9, 64, 0
4, 35120, Note_on_c, 9, 47, 78
4, 35124, Note_on_c, 9, 64, 127
4, 35124, Note_on_c, 9, 42, 127
4, 35168, Note_on_c, 9, 42, 0
4, 35168, Note_on_c, 9, 47, 0
4, 35216, Note_on_c, 9, 64, 0
4, 35312, Note_on_c, 9, 36, 78
4, 35312, Note_on_c, 9, 42, 75
4, 35360, Note_on_c, 9, 42, 0
4, 35360, Note_on_c, 9, 36, 0
4, 35504, Note_on_c, 9, 42, 80
4, 35504, Note_on_c, 9, 63, 98
4, 35552, Note_on_c, 9, 42, 0
4, 35600, Note_on_c, 9, 63, 0
4, 35600, Note_on_c, 9, 42, 76
4, 35600, Note_on_c, 9, 62, 122
4, 35648, Note_on_c, 9, 42, 0
4, 35696, Note_on_c, 9, 62, 0
4, 35696, Note_on_c, 9, 42, 127
4, 35696, Note_on_c, 9, 37, 78
4, 35704, Note_on_c, 9, 75, 127
4, 35704, Note_on_c, 9, 65, 108
4, 35704, Note_on_c, 9, 65, 108
4, 35704, Note_on_c, 9, 66, 107
4, 35704, Note_on_c, 9, 62, 125
4, 35744, Note_on_c, 9, 37, 0
4, 35744, Note_on_c, 9, 42, 0
4, 35792, Note_on_c, 9, 66, 0
4, 35792, Note_on_c, 9, 65, 0
4, 35792, Note_on_c, 9, 62, 0
4, 35796, Note_on_c, 9, 75, 0
4, 35796, Note_on_c, 9, 65, 0
4, 35888, Note_on_c, 9, 42, 84
4, 35888, Note_on_c, 9, 62, 127
4, 35888, Note_on_c, 9, 65, 108
4, 35936, Note_on_c, 9, 42, 0
4, 35984, Note_on_c, 9, 65, 0
4, 35984, Note_on_c, 9, 62, 0
4, 36080, Note_on_c, 9, 75, 127
4, 36080, Note_on_c, 9, 42, 78
4, 36084, Note_on_c, 9, 62, 118
4, 36088, Note_on_c, 9, 65, 108
4, 36128, Note_on_c, 9, 42, 0
4, 36176, Note_on_c, 9, 75, 0
4, 36176, Note_on_c, 9, 62, 0
4, 36176, Note_on_c, 9, 65, 0
4, 36272, Note_on_c, 9, 47, 78
4, 36272, Note_on_c, 9, 42, 127
4, 36276, Note_on_c, 9, 65, 108
4, 36276, Note_on_c, 9, 62, 127
4, 36320, Note_on_c, 9, 42, 0
4, 36320, Note_on_c, 9, 47, 0
4, 36368, Note_on_c, 9, 65, 0
4, 36368, Note_on_c, 9, 62, 0
4, 36464, Note_on_c, 9, 50, 78
4, 36464, Note_on_c, 9, 42, 127
4, 36468, Note_on_c, 9, 64, 127
4, 36468, Note_on_c, 9, 65, 108
4, 36512, Note_on_c, 9, 42, 0
4, 36512, Note_on_c, 9, 50, 0
4, 36560, Note_on_c, 9, 64, 0
4, 36560, Note_on_c, 9, 65, 0
4, 36656, Note_on_c, 9, 42, 127
4, 36656, Note_on_c, 9, 47, 78
4, 36656, Note_on_c, 9, 64, 127
4, 36704, Note_on_c, 9, 47, 0
4, 36704, Note_on_c, 9, 42, 0
4, 36752, Note_on_c, 9, 64, 0
4, 36848, Note_on_c, 9, 42, 75
4, 36848, Note_on_c, 9, 36, 78
4, 36896, Note_on_c, 9, 36, 0
4, 36896, Note_on_c, 9, 42, 0
4, 37040, Note_on_c, 9, 42, 80
4, 37088, Note_on_c, 9, 42, 0
4, 37136, Note_on_c, 9, 42, 76
4, 37136, Note_on_c, 9, 62, 125
4, 37136, Note_on_c, 9, 63, 101
4, 37184, Note_on_c, 9, 42, 0
4, 37232, Note_on_c, 9, 63, 0
4, 37232, Note_on_c, 9, 62, 0
4, 37232, Note_on_c, 9, 37, 78
4, 37236, Note_on_c, 9, 62, 111
4, 37236, Note_on_c, 9, 42, 127
4, 37280, Note_on_c, 9, 42, 0
4, 37280, Note_on_c, 9, 37, 0
4, 37328, Note_on_c, 9, 62, 0
4, 37424, Note_on_c, 9, 42, 84
4, 37424, Note_on_c, 9, 62, 127
4, 37472, Note_on_c, 9, 42, 0
4, 37520, Note_on_c, 9, 62, 0
4, 37616, Note_on_c, 9, 42, 78
4, 37664, Note_on_c, 9, 42, 0
4, 37808, Note_on_c, 9, 47, 78
4, 37808, Note_on_c, 9, 42, 127
4, 37812, Note_on_c, 9, 62, 127
4, 37856, Note_on_c, 9, 42, 0
4, 37856, Note_on_c, 9, 47, 0
4, 37904, Note_on_c, 9, 62, 0
4, 38000, Note_on_c, 9, 42, 127
4, 38000, Note_on_c, 9, 64, 127
4, 38000, Note_on_c, 9, 50, 78
4, 38008, Note_on_c, 9, 64, 127
4, 38048, Note_on_c, 9, 50, 0
4, 38048, Note_on_c, 9, 42, 0
4, 38096, Note_on_c, 9, 64, 0
4, 38096, Note_on_c, 9, 64, 0
4, 38192, Note_on_c, 9, 42, 127
4, 38192, Note_on_c, 9, 64, 127
4, 38192, Note_on_c, 9, 47, 78
4, 38240, Note_on_c, 9, 47, 0
4, 38240, Note_on_c, 9, 42, 0
4, 38288, Note_on_c, 9, 64, 0
4, 38384, Note_on_c, 9, 42, 75
4, 38384, Note_on_c, 9, 36, 78
4, 38432, Note_on_c, 9, 36, 0
4, 38432, Note_on_c, 9, 42, 0
4, 38576, Note_on_c, 9, 64, 66
4, 38576, Note_on_c, 9, 42, 80
4, 38576, Note_on_c, 9, 63, 98
4, 38624, Note_on_c, 9, 42, 0
4, 38672, Note_on_c, 9, 63, 0
4, 38672, Note_on_c, 9, 64, 0
4, 38672, Note_on_c, 9, 42, 76
4, 38676, Note_on_c, 9, 62, 111
4, 38676, Note_on_c, 9, 62, 127
4, 38720, Note_on_c, 9, 42, 0
4, 38768, Note_on_c, 9, 62, 0
4, 38768, Note_on_c, 9, 62, 0
4, 38768, Note_on_c, 9, 37, 78
4, 38772, Note_on_c, 9, 42, 127
4, 38816, Note_on_c, 9, 42, 0
4, 38816, Note_on_c, 9, 37, 0
4, 38960, Note_on_c, 9, 62, 127
4, 38960, Note_on_c, 9, 42, 84
4, 39008, Note_on_c, 9, 42, 0
4, 39056, Note_on_c, 9, 62, 0
4, 39152, Note_on_c, 9, 62, 127
4, 39152, Note_on_c, 9, 42, 78
4, 39200, Note_on_c, 9, 42, 0
4, 39248, Note_on_c, 9, 62, 0
4, 39344, Note_on_c, 9, 62, 127
4, 39344, Note_on_c, 9, 42, 127
4, 39344, Note_on_c, 9, 47, 78
4, 39392, Note_on_c, 9, 47, 0
4, 39392, Note_on_c, 9, 42, 0
4, 39440, Note_on_c, 9, 62, 0
4, 39536, Note_on_c, 9, 50, 78
4, 39536, Note_on_c, 9, 42, 127
4, 39540, Note_on_c, 9, 64, 127
4, 39584, Note_on_c, 9, 42, 0
4, 39584, Note_on_c, 9, 50, 0
4, 39632, Note_on_c, 9, 64, 0
4, 39728, Note_on_c, 9, 42, 127
4, 39728, Note_on_c, 9, 47, 78
4, 39732, Note_on_c, 9, 64, 127
4, 39776, Note_on_c, 9, 47, 0
4, 39776, Note_on_c, 9, 42, 0
4, 39824, Note_on_c, 9, 64, 0
4, 39920, Note_on_c, 9, 42, 75
4, 39920, Note_on_c, 9, 36, 78
4, 39968, Note_on_c, 9, 36, 0
4, 39968, Note_on_c, 9, 42, 0
4, 40112, Note_on_c, 9, 42, 80
4, 40160, Note_on_c, 9, 42, 0
4, 40208, Note_on_c, 9, 42, 76
4, 40256, Note_on_c, 9, 42, 0
4, 40304, Note_on_c, 9, 42, 127
4, 40304, Note_on_c, 9, 37, 78
4, 40308, Note_on_c, 9, 62, 127
4, 40352, Note_on_c, 9, 37, 0
4, 40352, Note_on_c, 9, 42, 0
4, 40400, Note_on_c, 9, 62, 0
4, 40496, Note_on_c, 9, 42, 84
4, 40496, Note_on_c, 9, 62, 127
4, 40544, Note_on_c, 9, 42, 0
4, 40592, Note_on_c, 9, 62, 0
4, 40688, Note_on_c, 9, 42, 78
4, 40736, Note_on_c, 9, 42, 0
4, 40880, Note_on_c, 9, 62, 127
4, 40880, Note_on_c, 9, 47, 78
4, 40880, Note_on_c, 9, 42, 127
4, 40928, Note_on_c, 9, 42, 0
4, 40928, Note_on_c, 9, 47, 0
4, 40976, Note_on_c, 9, 62, 0
4, 41072, Note_on_c, 9, 42, 127
4, 41072, Note_on_c, 9, 50, 78
4, 41076, Note_on_c, 9, 64, 127
4, 41120, Note_on_c, 9, 50, 0
4, 41120, Note_on_c, 9, 42, 0
4, 41168, Note_on_c, 9, 64, 0
4, 41264, Note_on_c, 9, 64, 127
4, 41264, Note_on_c, 9, 47, 78
4, 41264, Note_on_c, 9, 42, 127
4, 41312, Note_on_c, 9, 42, 0
4, 41312, Note_on_c, 9, 47, 0
4, 41360, Note_on_c, 9, 64, 0
4, 41456, Note_on_c, 9, 42, 75
4, 41456, Note_on_c, 9, 36, 78
4, 41504, Note_on_c, 9, 36, 0
4, 41504, Note_on_c, 9, 42, 0
4, 41648, Note_on_c, 9, 42, 80
4, 41648, Note_on_c, 9, 63, 98
4, 41696, Note_on_c, 9, 42, 0
4, 41744, Note_on_c, 9, 63, 0
4, 41744, Note_on_c, 9, 42, 76
4, 41744, Note_on_c, 9, 62, 122
4, 41792, Note_on_c, 9, 42, 0
4, 41840, Note_on_c, 9, 62, 0
4, 41840, Note_on_c, 9, 42, 127
4, 41840, Note_on_c, 9, 37, 78
4, 41844, Note_on_c, 9, 62, 125
4, 41888, Note_on_c, 9, 37, 0
4, 41888, Note_on_c, 9, 42, 0
4, 41936, Note_on_c, 9, 62, 0
4, 42032, Note_on_c, 9, 62, 127
4, 42032, Note_on_c, 9, 42, 84
4, 42080, Note_on_c, 9, 42, 0
4, 42128, Note_on_c, 9, 62, 0
4, 42224, Note_on_c, 9, 42, 78
4, 42224, Note_on_c, 9, 62, 118
4, 42272, Note_on_c, 9, 42, 0
4, 42320, Note_on_c, 9, 62, 0
4, 42416, Note_on_c, 9, 42, 127
4, 42416, Note_on_c, 9, 47, 78
4, 42420, Note_on_c, 9, 62, 127
4, 42420, Note_on_c, 9, 66, 91
4, 42464, Note_on_c, 9, 47, 0
4, 42464, Note_on_c, 9, 42, 0
4, 42512, Note_on_c, 9, 62, 0
4, 42512, Note_on_c, 9, 66, 0
4, 42512, Note_on_c, 9, 65, 108
4, 42512, Note_on_c, 9, 65, 108
4, 42608, Note_on_c, 9, 65, 0
4, 42608, Note_on_c, 9, 65, 0
4, 42608, Note_on_c, 9, 50, 78
4, 42612, Note_on_c, 9, 55, 127
4, 42612, Note_on_c, 9, 43, 127
4, 42612, Note_on_c, 9, 64, 127
4, 42612, Note_on_c, 9, 42, 127
4, 42656, Note_on_c, 9, 42, 0
4, 42656, Note_on_c, 9, 50, 0
4, 42704, Note_on_c, 9, 64, 0
4, 42800, Note_on_c, 9, 47, 78
4, 42800, Note_on_c, 9, 64, 127
4, 42800, Note_on_c, 9, 42, 127
4, 42848, Note_on_c, 9, 42, 0
4, 42848, Note_on_c, 9, 47, 0
4, 42896, Note_on_c, 9, 64, 0
4, 42992, Note_on_c, 9, 43, 0
4, 42992, Note_on_c, 9, 55, 0
4, 42992, Note_on_c, 9, 36, 78
4, 42996, Note_on_c, 9, 42, 75
4, 43040, Note_on_c, 9, 42, 0
4, 43040, Note_on_c, 9, 36, 0
4, 43184, Note_on_c, 9, 42, 80
4, 43232, Note_on_c, 9, 42, 0
4, 43280, Note_on_c, 9, 42, 76
4, 43280, Note_on_c, 9, 62, 125
4, 43284, Note_on_c, 9, 63, 101
4, 43328, Note_on_c, 9, 42, 0
4, 43376, Note_on_c, 9, 63, 0
4, 43376, Note_on_c, 9, 62, 0
4, 43376, Note_on_c, 9, 42, 127
4, 43376, Note_on_c, 9, 37, 78
4, 43384, Note_on_c, 9, 62, 111
4, 43424, Note_on_c, 9, 37, 0
4, 43424, Note_on_c, 9, 42, 0
4, 43472, Note_on_c, 9, 62, 0
4, 43568, Note_on_c, 9, 62, 127
4, 43568, Note_on_c, 9, 42, 84
4, 43616, Note_on_c, 9, 42, 0
4, 43664, Note_on_c, 9, 62, 0
4, 43760, Note_on_c, 9, 42, 78
4, 43808, Note_on_c, 9, 42, 0
4, 43952, Note_on_c, 9, 47, 78
4, 43952, Note_on_c, 9, 42, 127
4, 43956, Note_on_c, 9, 62, 127
4, 44000, Note_on_c, 9, 42, 0
4, 44000, Note_on_c, 9, 47, 0
4, 44048, Note_on_c, 9, 62, 0
4, 44144, Note_on_c, 9, 50, 78
4, 44144, Note_on_c, 9, 42, 127
4, 44148, Note_on_c, 9, 64, 127
4, 44148, Note_on_c, 9, 64, 127
4, 44192, Note_on_c, 9, 42, 0
4, 44192, Note_on_c, 9, 50, 0
4, 44240, Note_on_c, 9, 64, 0
4, 44240, Note_on_c, 9, 64, 0
4, 44336, Note_on_c, 9, 42, 127
4, 44336, Note_on_c, 9, 47, 78
4, 44336, Note_on_c, 9, 64, 127
4, 44384, Note_on_c, 9, 47, 0
4, 44384, Note_on_c, 9, 42, 0
4, 44432, Note_on_c, 9, 64, 0
4, 44528, Note_on_c, 9, 36, 78
4, 44528, Note_on_c, 9, 42, 75
4, 44576, Note_on_c, 9, 42, 0
4, 44576, Note_on_c, 9, 36, 0
4, 44720, Note_on_c, 9, 64, 66
4, 44720, Note_on_c, 9, 63, 98
4, 44720, Note_on_c, 9, 42, 80
4, 44768, Note_on_c, 9, 42, 0
4, 44816, Note_on_c, 9, 63, 0
4, 44816, Note_on_c, 9, 64, 0
4, 44816, Note_on_c, 9, 62, 111
4, 44816, Note_on_c, 9, 42, 76
4, 44820, Note_on_c, 9, 62, 127
4, 44864, Note_on_c, 9, 42, 0
4, 44912, Note_on_c, 9, 62, 0
4, 44912, Note_on_c, 9, 62, 0
4, 44912, Note_on_c, 9, 42, 127
4, 44912, Note_on_c, 9, 37, 78
4, 44960, Note_on_c, 9, 37, 0
4, 44960, Note_on_c, 9, 42, 0
4, 45104, Note_on_c, 9, 62, 127
4, 45104, Note_on_c, 9, 42, 84
4, 45152, Note_on_c, 9, 42, 0
4, 45200, Note_on_c, 9, 62, 0
4, 45296, Note_on_c, 9, 62, 127
4, 45296, Note_on_c, 9, 42, 78
4, 45344, Note_on_c, 9, 42, 0
4, 45392, Note_on_c, 9, 62, 0
4, 45488, Note_on_c, 9, 42, 127
4, 45488, Note_on_c, 9, 47, 78
4, 45492, Note_on_c, 9, 62, 127
4, 45536, Note_on_c, 9, 47, 0
4, 45536, Note_on_c, 9, 42, 0
4, 45584, Note_on_c, 9, 62, 0
4, 45680, Note_on_c, 9, 42, 127
4, 45680, Note_on_c, 9, 50, 78
4, 45684, Note_on_c, 9, 64, 127
4, 45728, Note_on_c, 9, 50, 0
4, 45728, Note_on_c, 9, 42, 0
4, 45776, Note_on_c, 9, 64, 0
4, 45872, Note_on_c, 9, 47, 78
4, 45872, Note_on_c, 9, 64, 127
4, 45872, Note_on_c, 9, 42, 127
4, 45920, Note_on_c, 9, 42, 0
4, 45920, Note_on_c, 9, 47, 0
4, 45968, Note_on_c, 9, 64, 0
4, 46064, Note_on_c, 9, 36, 78
4, 46064, Note_on_c, 9, 42, 75
4, 46112, Note_on_c, 9, 42, 0
4, 46112, Note_on_c, 9, 36, 0
4, 46256, Note_on_c, 9, 42, 80
4, 46304, Note_on_c, 9, 42, 0
4, 46352, Note_on_c, 9, 42, 76
4, 46400, Note_on_c, 9, 42, 0
4, 46448, Note_on_c, 9, 37, 78
4, 46448, Note_on_c, 9, 42, 127
4, 46448, Note_on_c, 9, 62, 127
4, 46496, Note_on_c, 9, 42, 0
4, 46496, Note_on_c, 9, 37, 0
4, 46544, Note_on_c, 9, 62, 0
4, 46640, Note_on_c, 9, 62, 127
4, 46640, Note_on_c, 9, 42, 84
4, 46688, Note_on_c, 9, 42, 0
4, 46736, Note_on_c, 9, 62, 0
4, 46832, Note_on_c, 9, 42, 78
4, 46880, Note_on_c, 9, 42, 0
4, 47024, Note_on_c, 9, 47, 78
4, 47024, Note_on_c, 9, 62, 127
4, 47024, Note_on_c, 9, 42, 127
4, 47072, Note_on_c, 9, 42, 0
4, 47072, Note_on_c, 9, 47, 0
4, 47120, Note_on_c, 9, 62, 0
4, 47216, Note_on_c, 9, 50, 78
4, 47216, Note_on_c, 9, 42, 127
4, 47220, Note_on_c, 9, 64, 127
4, 47264, Note_on_c, 9, 42, 0
4, 47264, Note_on_c, 9, 50, 0
4, 47312, Note_on_c, 9, 64, 0
4, 47408, Note_on_c, 9, 42, 127
4, 47408, Note_on_c, 9, 47, 78
4, 47408, Note_on_c, 9, 64, 127
4, 47456, Note_on_c, 9, 47, 0
4, 47456, Note_on_c, 9, 42, 0
4, 47504, Note_on_c, 9, 64, 0
4, 47600, Note_on_c, 9, 36, 78
4, 47600, Note_on_c, 9, 42, 75
4, 47648, Note_on_c, 9, 42, 0
4, 47648, Note_on_c, 9, 36, 0
4, 47792, Note_on_c, 9, 42, 80
4, 47792, Note_on_c, 9, 63, 98
4, 47840, Note_on_c, 9, 42, 0
4, 47888, Note_on_c, 9, 63, 0
4, 47888, Note_on_c, 9, 62, 122
4, 47888, Note_on_c, 9, 42, 76
4, 47936, Note_on_c, 9, 42, 0
4, 47984, Note_on_c, 9, 62, 0
4, 47984, Note_on_c, 9, 42, 127
4, 47984, Note_on_c, 9, 37, 78
4, 47984, Note_on_c, 9, 62, 125
4, 48032, Note_on_c, 9, 37, 0
4, 48032, Note_on_c, 9, 42, 0
4, 48080, Note_on_c, 9, 62, 0
4, 48176, Note_on_c, 9, 42, 84
4, 48176, Note_on_c, 9, 62, 127
4, 48224, Note_on_c, 9, 42, 0
4, 48272, Note_on_c, 9, 62, 0
4, 48368, Note_on_c, 9, 62, 118
4, 48368, Note_on_c, 9, 42, 78
4, 48416, Note_on_c, 9, 42, 0
4, 48464, Note_on_c, 9, 62, 0
4, 48560, Note_on_c, 9, 62, 127
4, 48560, Note_on_c, 9, 42, 127
4, 48560, Note_on_c, 9, 47, 78
4, 48608, Note_on_c, 9, 47, 0
4, 48608, Note_on_c, 9, 42, 0
4, 48656, Note_on_c, 9, 62, 0
4, 48752, Note_on_c, 9, 50, 78
4, 48752, Note_on_c, 9, 42, 127
4, 48756, Note_on_c, 9, 64, 127
4, 48800, Note_on_c, 9, 42, 0
4, 48800, Note_on_c, 9, 50, 0
4, 48848, Note_on_c, 9, 64, 0
4, 48944, Note_on_c, 9, 47, 78
4, 48944, Note_on_c, 9, 42, 127
4, 48944, Note_on_c, 9, 64, 127
4, 48992, Note_on_c, 9, 42, 0
4, 48992, Note_on_c, 9, 47, 0
4, 49040, Note_on_c, 9, 64, 0
4, 49136, Note_on_c, 9, 36, 78
4, 49136, Note_on_c, 9, 42, 75
4, 49140, Note_on_c, 9, 75, 127
4, 49184, Note_on_c, 9, 42, 0
4, 49184, Note_on_c, 9, 36, 0
4, 49232, Note_on_c, 9, 75, 0
4, 49328, Note_on_c, 9, 42, 80
4, 49376, Note_on_c, 9, 42, 0
4, 49424, Note_on_c, 9, 63, 101
4, 49424, Note_on_c, 9, 42, 76
4, 49424, Note_on_c, 9, 62, 125
4, 49472, Note_on_c, 9, 42, 0
4, 49520, Note_on_c, 9, 62, 0
4, 49520, Note_on_c, 9, 63, 0
4, 49520, Note_on_c, 9, 37, 78
4, 49520, Note_on_c, 9, 42, 127
4, 49524, Note_on_c, 9, 62, 111
4, 49568, Note_on_c, 9, 42, 0
4, 49568, Note_on_c, 9, 37, 0
4, 49616, Note_on_c, 9, 62, 0
4, 49712, Note_on_c, 9, 62, 127
4, 49712, Note_on_c, 9, 75, 127
4, 49712, Note_on_c, 9, 42, 84
4, 49760, Note_on_c, 9, 42, 0
4, 49808, Note_on_c, 9, 75, 0
4, 49808, Note_on_c, 9, 62, 0
4, 49904, Note_on_c, 9, 42, 78
4, 49952, Note_on_c, 9, 42, 0
4, 50096, Note_on_c, 9, 42, 127
4, 50096, Note_on_c, 9, 47, 78
4, 50100, Note_on_c, 9, 62, 127
4, 50144, Note_on_c, 9, 47, 0
4, 50144, Note_on_c, 9, 42, 0
4, 50192, Note_on_c, 9, 62, 0
4, 50288, Note_on_c, 9, 50, 78
4, 50292, Note_on_c, 9, 64, 127
4, 50292, Note_on_c, 9, 42, 127
4, 50292, Note_on_c, 9, 75, 127
4, 50292, Note_on_c, 9, 64, 127
4, 50336, Note_on_c, 9, 42, 0
4, 50336, Note_on_c, 9, 50, 0
4, 50384, Note_on_c, 9, 64, 0
4, 50384, Note_on_c, 9, 75, 0
4, 50384, Note_on_c, 9, 64, 0
4, 50480, Note_on_c, 9, 47, 78
4, 50480, Note_on_c, 9, 42, 127
4, 50480, Note_on_c, 9, 64, 127
4, 50528, Note_on_c, 9, 42, 0
4, 50528, Note_on_c, 9, 47, 0
4, 50576, Note_on_c, 9, 64, 0
4, 50672, Note_on_c, 9, 42, 75
4, 50672, Note_on_c, 9, 36, 78
4, 50720, Note_on_c, 9, 36, 0
4, 50720, Note_on_c, 9, 42, 0
4, 50864, Note_on_c, 9, 42, 80
4, 50864, Note_on_c, 9, 63, 98
4, 50864, Note_on_c, 9, 64, 66
4, 50912, Note_on_c, 9, 42, 0
4, 50960, Note_on_c, 9, 64, 0
4, 50960, Note_on_c, 9, 63, 0
4, 50960, Note_on_c, 9, 42, 76
4, 50960, Note_on_c, 9, 62, 111
4, 50964, Note_on_c, 9, 62, 127
4, 51008, Note_on_c, 9, 42, 0
4, 51056, Note_on_c, 9, 62, 0
4, 51056, Note_on_c, 9, 62, 0
4, 51056, Note_on_c, 9, 37, 78
4, 51060, Note_on_c, 9, 42, 127
4, 51060, Note_on_c, 9, 75, 127
4, 51104, Note_on_c, 9, 42, 0
4, 51104, Note_on_c, 9, 37, 0
4, 51152, Note_on_c, 9, 75, 0
4, 51248, Note_on_c, 9, 62, 127
4, 51248, Note_on_c, 9, 42, 84
4, 51296, Note_on_c, 9, 42, 0
4, 51344, Note_on_c, 9, 62, 0
4, 51440, Note_on_c, 9, 42, 78
4, 51440, Note_on_c, 9, 62, 127
4, 51440, Note_on_c, 9, 75, 127
4, 51488, Note_on_c, 9, 42, 0
4, 51536, Note_on_c, 9, 75, 0
4, 51536, Note_on_c, 9, 62, 0
4, 51632, Note_on_c, 9, 47, 78
4, 51632, Note_on_c, 9, 42, 127
4, 51636, Note_on_c, 9, 62, 127
4, 51680, Note_on_c, 9, 42, 0
4, 51680, Note_on_c, 9, 47, 0
4, 51728, Note_on_c, 9, 62, 0
4, 51824, Note_on_c, 9, 50, 78
4, 51824, Note_on_c, 9, 42, 127
4, 51828, Note_on_c, 9, 64, 127
4, 51872, Note_on_c, 9, 42, 0
4, 51872, Note_on_c, 9, 50, 0
4, 51920, Note_on_c, 9, 64, 0
4, 52016, Note_on_c, 9, 42, 127
4, 52016, Note_on_c, 9, 64, 127
4, 52016, Note_on_c, 9, 47, 78
4, 52064, Note_on_c, 9, 47, 0
4, 52064, Note_on_c, 9, 42, 0
4, 52112, Note_on_c, 9, 64, 0
4, 52208, Note_on_c, 9, 42, 75
4, 52208, Note_on_c, 9, 36, 78
4, 52212, Note_on_c, 9, 75, 127
4, 52256, Note_on_c, 9, 36, 0
4, 52256, Note_on_c, 9, 42, 0
4, 52304, Note_on_c, 9, 75, 0
4, 52400, Note_on_c, 9, 42, 80
4, 52448, Note_on_c, 9, 42, 0
4, 52496, Note_on_c, 9, 42, 76
4, 52544, Note_on_c, 9, 42, 0
4, 52592, Note_on_c, 9, 37, 78
4, 52592, Note_on_c, 9, 42, 127
4, 52596, Note_on_c, 9, 62, 127
4, 52640, Note_on_c, 9, 42, 0
4, 52640, Note_on_c, 9, 37, 0
4, 52688, Note_on_c, 9, 62, 0
4, 52784, Note_on_c, 9, 75, 127
4, 52784, Note_on_c, 9, 62, 127
4, 52784, Note_on_c, 9, 42, 84
4, 52832, Note_on_c, 9, 42, 0
4, 52880, Note_on_c, 9, 62, 0
4, 52880, Note_on_c, 9, 75, 0
4, 52976, Note_on_c, 9, 42, 78
4, 53024, Note_on_c, 9, 42, 0
4, 53168, Note_on_c, 9, 47, 78
4, 53168, Note_on_c, 9, 42, 127
4, 53172, Note_on_c, 9, 62, 127
4, 53216, Note_on_c, 9, 42, 0
4, 53216, Note_on_c, 9, 47, 0
4, 53264, Note_on_c, 9, 62, 0
4, 53360, Note_on_c, 9, 42, 127
4, 53360, Note_on_c, 9, 75, 127
4, 53360, Note_on_c, 9, 50, 78
4, 53368, Note_on_c, 9, 64, 127
4, 53408, Note_on_c, 9, 50, 0
4, 53408, Note_on_c, 9, 42, 0
4, 53456, Note_on_c, 9, 75, 0
4, 53456, Note_on_c, 9, 64, 0
4, 53552, Note_on_c, 9, 47, 78
4, 53552, Note_on_c, 9, 64, 127
4, 53552, Note_on_c, 9, 42, 127
4, 53600, Note_on_c, 9, 42, 0
4, 53600, Note_on_c, 9, 47, 0
4, 53648, Note_on_c, 9, 64, 0
4, 53744, Note_on_c, 9, 42, 75
4, 53744, Note_on_c, 9, 36, 78
4, 53792, Note_on_c, 9, 36, 0
4, 53792, Note_on_c, 9, 42, 0
4, 53936, Note_on_c, 9, 42, 80
4, 53936, Note_on_c, 9, 63, 98
4, 53984, Note_on_c, 9, 42, 0
4, 54032, Note_on_c, 9, 63, 0
4, 54032, Note_on_c, 9, 42, 76
4, 54036, Note_on_c, 9, 62, 122
4, 54080, Note_on_c, 9, 42, 0
4, 54128, Note_on_c, 9, 62, 0
4, 54128, Note_on_c, 9, 42, 127
4, 54128, Note_on_c, 9, 37, 78
4, 54136, Note_on_c, 9, 62, 125
4, 54136, Note_on_c, 9, 75, 127
4, 54136, Note_on_c, 9, 65, 108
4, 54176, Note_on_c, 9, 37, 0
4, 54176, Note_on_c, 9, 42, 0
4, 54224, Note_on_c, 9, 75, 0
4, 54224, Note_on_c, 9, 62, 0
4, 54224, Note_on_c, 9, 65, 0
4, 54320, Note_on_c, 9, 62, 127
4, 54320, Note_on_c, 9, 42, 84
4, 54368, Note_on_c, 9, 42, 0
4, 54416, Note_on_c, 9, 62, 0
4, 54512, Note_on_c, 9, 42, 78
4, 54516, Note_on_c, 9, 62, 118
4, 54516, Note_on_c, 9, 65, 108
4, 54516, Note_on_c, 9, 75, 127
4, 54560, Note_on_c, 9, 42, 0
4, 54608, Note_on_c, 9, 62, 0
4, 54608, Note_on_c, 9, 65, 0
4, 54608, Note_on_c, 9, 75, 0
4, 54704, Note_on_c, 9, 47, 78
4, 54704, Note_on_c, 9, 62, 127
4, 54704, Note_on_c, 9, 42, 127
4, 54708, Note_on_c, 9, 65, 108
4, 54752, Note_on_c, 9, 42, 0
4, 54752, Note_on_c, 9, 47, 0
4, 54800, Note_on_c, 9, 62, 0
4, 54800, Note_on_c, 9, 65, 0
4, 54896, Note_on_c, 9, 50, 78
4, 54896, Note_on_c, 9, 42, 127
4, 54900, Note_on_c, 9, 65, 108
4, 54900, Note_on_c, 9, 64, 127
4, 54944, Note_on_c, 9, 42, 0
4, 54944, Note_on_c, 9, 50, 0
4, 54992, Note_on_c, 9, 65, 0
4, 54992, Note_on_c, 9, 64, 0
4, 55088, Note_on_c, 9, 42, 127
4, 55088, Note_on_c, 9, 47, 78
4, 55088, Note_on_c, 9, 64, 127
4, 55136, Note_on_c, 9, 47, 0
4, 55136, Note_on_c, 9, 42, 0
4, 55184, Note_on_c, 9, 64, 0
4, 55280, Note_on_c, 9, 36, 78
4, 55280, Note_on_c, 9, 42, 75
4, 55284, Note_on_c, 9, 75, 127
4, 55328, Note_on_c, 9, 42, 0
4, 55328, Note_on_c, 9, 36, 0
4, 55376, Note_on_c, 9, 75, 0
4, 55472, Note_on_c, 9, 42, 80
4, 55520, Note_on_c, 9, 42, 0
4, 55568, Note_on_c, 9, 62, 125
4, 55568, Note_on_c, 9, 63, 101
4, 55568, Note_on_c, 9, 42, 76
4, 55616, Note_on_c, 9, 42, 0
4, 55664, Note_on_c, 9, 63, 0
4, 55664, Note_on_c, 9, 62, 0
4, 55664, Note_on_c, 9, 37, 78
4, 55668, Note_on_c, 9, 42, 127
4, 55668, Note_on_c, 9, 62, 111
4, 55712, Note_on_c, 9, 42, 0
4, 55712, Note_on_c, 9, 37, 0
4, 55760, Note_on_c, 9, 62, 0
4, 55856, Note_on_c, 9, 62, 127
4, 55856, Note_on_c, 9, 75, 127
4, 55856, Note_on_c, 9, 42, 84
4, 55904, Note_on_c, 9, 42, 0
4, 55952, Note_on_c, 9, 75, 0
4, 55952, Note_on_c, 9, 62, 0
4, 56048, Note_on_c, 9, 42, 78
4, 56096, Note_on_c, 9, 42, 0
4, 56240, Note_on_c, 9, 47, 78
4, 56240, Note_on_c, 9, 62, 127
4, 56240, Note_on_c, 9, 42, 127
4, 56288, Note_on_c, 9, 42, 0
4, 56288, Note_on_c, 9, 47, 0
4, 56336, Note_on_c, 9, 62, 0
4, 56432, Note_on_c, 9, 42, 127
4, 56432, Note_on_c, 9, 50, 78
4, 56436, Note_on_c, 9, 64, 127
4, 56436, Note_on_c, 9, 75, 127
4, 56440, Note_on_c, 9, 64, 127
4, 56480, Note_on_c, 9, 50, 0
4, 56480, Note_on_c, 9, 42, 0
4, 56528, Note_on_c, 9, 75, 0
4, 56528, Note_on_c, 9, 64, 0
4, 56528, Note_on_c, 9, 64, 0
4, 56624, Note_on_c, 9, 47, 78
4, 56624, Note_on_c, 9, 42, 127
4, 56628, Note_on_c, 9, 64, 127
4, 56672, Note_on_c, 9, 42, 0
4, 56672, Note_on_c, 9, 47, 0
4, 56720, Note_on_c, 9, 64, 0
4, 56816, Note_on_c, 9, 42, 75
4, 56816, Note_on_c, 9, 36, 78
4, 56864, Note_on_c, 9, 36, 0
4, 56864, Note_on_c, 9, 42, 0
4, 57008, Note_on_c, 9, 42, 80
4, 57008, Note_on_c, 9, 63, 98
4, 57012, Note_on_c, 9, 64, 66
4, 57056, Note_on_c, 9, 42, 0
4, 57104, Note_on_c, 9, 64, 0
4, 57104, Note_on_c, 9, 63, 0
4, 57104, Note_on_c, 9, 42, 76
4, 57104, Note_on_c, 9, 62, 111
4, 57108, Note_on_c, 9, 62, 127
4, 57152, Note_on_c, 9, 42, 0
4, 57200, Note_on_c, 9, 62, 0
4, 57200, Note_on_c, 9, 62, 0
4, 57200, Note_on_c, 9, 42, 127
4, 57200, Note_on_c, 9, 37, 78
4, 57204, Note_on_c, 9, 75, 127
4, 57248, Note_on_c, 9, 37, 0
4, 57248, Note_on_c, 9, 42, 0
4, 57296, Note_on_c, 9, 75, 0
4, 57392, Note_on_c, 9, 42, 84
4, 57392, Note_on_c, 9, 62, 127
4, 57440, Note_on_c, 9, 42, 0
4, 57488, Note_on_c, 9, 62, 0
4, 57584, Note_on_c, 9, 42, 78
4, 57584, Note_on_c, 9, 75, 127
4, 57588, Note_on_c, 9, 62, 127
4, 57632, Note_on_c, 9, 42, 0
4, 57680, Note_on_c, 9, 62, 0
4, 57680, Note_on_c, 9, 75, 0
4, 57776, Note_on_c, 9, 42, 127
4, 57776, Note_on_c, 9, 47, 78
4, 57776, Note_on_c, 9, 62, 127
4, 57824, Note_on_c, 9, 47, 0
4, 57824, Note_on_c, 9, 42, 0
4, 57872, Note_on_c, 9, 62, 0
4, 57968, Note_on_c, 9, 50, 78
4, 57968, Note_on_c, 9, 42, 127
4, 57972, Note_on_c, 9, 64, 127
4, 58016, Note_on_c, 9, 42, 0
4, 58016, Note_on_c, 9, 50, 0
4, 58064, Note_on_c, 9, 64, 0
4, 58160, Note_on_c, 9, 42, 127
4, 58160, Note_on_c, 9, 64, 127
4, 58160, Note_on_c, 9, 47, 78
4, 58208, Note_on_c, 9, 47, 0
4, 58208, Note_on_c, 9, 42, 0
4, 58256, Note_on_c, 9, 64, 0
4, 58352, Note_on_c, 9, 36, 78
4, 58352, Note_on_c, 9, 42, 75
4, 58356, Note_on_c, 9, 75, 127
4, 58400, Note_on_c, 9, 42, 0
4, 58400, Note_on_c, 9, 36, 0
4, 58448, Note_on_c, 9, 75, 0
4, 58544, Note_on_c, 9, 42, 80
4, 58592, Note_on_c, 9, 42, 0
4, 58640, Note_on_c, 9, 42, 76
4, 58688, Note_on_c, 9, 42, 0
4, 58736, Note_on_c, 9, 42, 127
4, 58736, Note_on_c, 9, 37, 78
4, 58740, Note_on_c, 9, 62, 127
4, 58784, Note_on_c, 9, 37, 0
4, 58784, Note_on_c, 9, 42, 0
4, 58832, Note_on_c, 9, 62, 0
4, 58928, Note_on_c, 9, 75, 127
4, 58928, Note_on_c, 9, 62, 127
4, 58928, Note_on_c, 9, 42, 84
4, 58976, Note_on_c, 9, 42, 0
4, 59024, Note_on_c, 9, 62, 0
4, 59024, Note_on_c, 9, 75, 0
4, 59120, Note_on_c, 9, 42, 78
4, 59168, Note_on_c, 9, 42, 0
4, 59312, Note_on_c, 9, 47, 78
4, 59312, Note_on_c, 9, 42, 127
4, 59312, Note_on_c, 9, 62, 127
4, 59360, Note_on_c, 9, 42, 0
4, 59360, Note_on_c, 9, 47, 0
4, 59408, Note_on_c, 9, 62, 0
4, 59504, Note_on_c, 9, 50, 78
4, 59504, Note_on_c, 9, 75, 127
4, 59504, Note_on_c, 9, 42, 127
4, 59512, Note_on_c, 9, 64, 127
4, 59552, Note_on_c, 9, 42, 0
4, 59552, Note_on_c, 9, 50, 0
4, 59600, Note_on_c, 9, 75, 0
4, 59600, Note_on_c, 9, 64, 0
4, 59696, Note_on_c, 9, 47, 78
4, 59696, Note_on_c, 9, 64, 127
4, 59696, Note_on_c, 9, 42, 127
4, 59744, Note_on_c, 9, 42, 0
4, 59744, Note_on_c, 9, 47, 0
4, 59792, Note_on_c, 9, 64, 0
4, 59888, Note_on_c, 9, 42, 75
4, 59888, Note_on_c, 9, 36, 78
4, 59936, Note_on_c, 9, 36, 0
4, 59936, Note_on_c, 9, 42, 0
4, 60080, Note_on_c, 9, 63, 98
4, 60080, Note_on_c, 9, 42, 80
4, 60128, Note_on_c, 9, 42, 0
4, 60176, Note_on_c, 9, 63, 0
4, 60176, Note_on_c, 9, 62, 122
4, 60176, Note_on_c, 9, 42, 76
4, 60224, Note_on_c, 9, 42, 0
4, 60272, Note_on_c, 9, 62, 0
4, 60272, Note_on_c, 9, 37, 78
4, 60272, Note_on_c, 9, 42, 127
4, 60280, Note_on_c, 9, 62, 125
4, 60280, Note_on_c, 9, 65, 108
4, 60280, Note_on_c, 9, 66, 107
4, 60280, Note_on_c, 9, 65, 108
4, 60280, Note_on_c, 9, 75, 127
4, 60320, Note_on_c, 9, 42, 0
4, 60320, Note_on_c, 9, 37, 0
4, 60368, Note_on_c, 9, 65, 0
4, 60368, Note_on_c, 9, 66, 0
4, 60368, Note_on_c, 9, 62, 0
4, 60372, Note_on_c, 9, 75, 0
4, 60372, Note_on_c, 9, 65, 0
4, 60464, Note_on_c, 9, 42, 84
4, 60464, Note_on_c, 9, 65, 108
4, 60464, Note_on_c, 9, 62, 127
4, 60512, Note_on_c, 9, 42, 0
4, 60560, Note_on_c, 9, 62, 0
4, 60560, Note_on_c, 9, 65, 0
4, 60656, Note_on_c, 9, 42, 78
4, 60656, Note_on_c, 9, 75, 127
4, 60660, Note_on_c, 9, 65, 108
4, 60660, Note_on_c, 9, 62, 118
4, 60704, Note_on_c, 9, 42, 0
4, 60752, Note_on_c, 9, 75, 0
4, 60752, Note_on_c, 9, 65, 0
4, 60752, Note_on_c, 9, 62, 0
4, 60848, Note_on_c, 9, 47, 78
4, 60848, Note_on_c, 9, 62, 127
4, 60848, Note_on_c, 9, 42, 127
4, 60852, Note_on_c, 9, 65, 108
4, 60896, Note_on_c, 9, 42, 0
4, 60896, Note_on_c, 9, 47, 0
4, 60944, Note_on_c, 9, 62, 0
4, 60944, Note_on_c, 9, 65, 0
4, 61040, Note_on_c, 9, 50, 78
4, 61040, Note_on_c, 9, 42, 127
4, 61044, Note_on_c, 9, 65, 108
4, 61044, Note_on_c, 9, 64, 127
4, 61088, Note_on_c, 9, 42, 0
4, 61088, Note_on_c, 9, 50, 0
4, 61136, Note_on_c, 9, 65, 0
4, 61136, Note_on_c, 9, 64, 0
4, 61232, Note_on_c, 9, 64, 127
4, 61232, Note_on_c, 9, 47, 78
4, 61232, Note_on_c, 9, 42, 127
4, 61280, Note_on_c, 9, 42, 0
4, 61280, Note_on_c, 9, 47, 0
4, 61328, Note_on_c, 9, 64, 0
4, 61424, Note_on_c, 9, 56, 127
4, 61428, Note_on_c, 9, 42, 127
4, 61520, Note_on_c, 9, 42, 0
4, 61520, Note_on_c, 9, 56, 0
4, 61616, Note_on_c, 9, 42, 111
4, 61712, Note_on_c, 9, 42, 0
4, 61712, Note_on_c, 9, 62, 125
4, 61712, Note_on_c, 9, 63, 101
4, 61808, Note_on_c, 9, 63, 0
4, 61808, Note_on_c, 9, 62, 0
4, 61808, Note_on_c, 9, 62, 111
4, 61812, Note_on_c, 9, 56, 127
4, 61812, Note_on_c, 9, 42, 118
4, 61812, Note_on_c, 9, 36, 127
4, 61904, Note_on_c, 9, 36, 0
4, 61904, Note_on_c, 9, 62, 0
4, 61904, Note_on_c, 9, 56, 0
4, 61908, Note_on_c, 9, 42, 0
4, 62000, Note_on_c, 9, 42, 125
4, 62000, Note_on_c, 9, 62, 127
4, 62000, Note_on_c, 9, 36, 127
4, 62096, Note_on_c, 9, 36, 0
4, 62096, Note_on_c, 9, 62, 0
4, 62096, Note_on_c, 9, 42, 0
4, 62192, Note_on_c, 9, 56, 127
4, 62196, Note_on_c, 9, 42, 127
4, 62288, Note_on_c, 9, 42, 0
4, 62288, Note_on_c, 9, 56, 0
4, 62384, Note_on_c, 9, 62, 127
4, 62384, Note_on_c, 9, 42, 118
4, 62480, Note_on_c, 9, 42, 0
4, 62480, Note_on_c, 9, 62, 0
4, 62576, Note_on_c, 9, 64, 127
4, 62576, Note_on_c, 9, 64, 127
4, 62584, Note_on_c, 9, 42, 127
4, 62584, Note_on_c, 9, 56, 127
4, 62584, Note_on_c, 9, 36, 127
4, 62672, Note_on_c, 9, 36, 0
4, 62672, Note_on_c, 9, 64, 0
4, 62672, Note_on_c, 9, 56, 0
4, 62676, Note_on_c, 9, 42, 0
4, 62676, Note_on_c, 9, 64, 0
4, 62768, Note_on_c, 9, 36, 127
4, 62768, Note_on_c, 9, 42, 127
4, 62772, Note_on_c, 9, 64, 127
4, 62864, Note_on_c, 9, 64, 0
4, 62864, Note_on_c, 9, 42, 0
4, 62864, Note_on_c, 9, 36, 0
4, 62960, Note_on_c, 9, 56, 127
4, 62960, Note_on_c, 9, 42, 127
4, 63056, Note_on_c, 9, 42, 0
4, 63056, Note_on_c, 9, 56, 0
4, 63152, Note_on_c, 9, 63, 98
4, 63152, Note_on_c, 9, 42, 127
4, 63152, Note_on_c, 9, 64, 66
4, 63248, Note_on_c, 9, 64, 0
4, 63248, Note_on_c, 9, 42, 0
4, 63248, Note_on_c, 9, 63, 0
4, 63252, Note_on_c, 9, 62, 111
4, 63252, Note_on_c, 9, 62, 127
4, 63344, Note_on_c, 9, 62, 0
4, 63344, Note_on_c, 9, 62, 0
4, 63348, Note_on_c, 9, 56, 127
4, 63348, Note_on_c, 9, 42, 127
4, 63348, Note_on_c, 9, 36, 127
4, 63440, Note_on_c, 9, 36, 0
4, 63440, Note_on_c, 9, 42, 0
4, 63440, Note_on_c, 9, 56, 0
4, 63536, Note_on_c, 9, 36, 127
4, 63536, Note_on_c, 9, 42, 127
4, 63536, Note_on_c, 9, 62, 127
4, 63632, Note_on_c, 9, 62, 0
4, 63632, Note_on_c, 9, 42, 0
4, 63632, Note_on_c, 9, 36, 0
4, 63728, Note_on_c, 9, 62, 127
4, 63732, Note_on_c, 9, 56, 127
4, 63732, Note_on_c, 9, 42, 127
4, 63824, Note_on_c, 9, 42, 0
4, 63824, Note_on_c, 9, 56, 0
4, 63824, Note_on_c, 9, 62, 0
4, 63920, Note_on_c, 9, 42, 127
4, 63920, Note_on_c, 9, 62, 127
4, 64016, Note_on_c, 9, 62, 0
4, 64016, Note_on_c, 9, 42, 0
4, 64112, Note_on_c, 9, 56, 127
4, 64112, Note_on_c, 9, 64, 127
4, 64116, Note_on_c, 9, 36, 127
4, 64116, Note_on_c, 9, 42, 127
4, 64208, Note_on_c, 9, 36, 0
4, 64208, Note_on_c, 9, 56, 0
4, 64208, Note_on_c, 9, 64, 0
4, 64212, Note_on_c, 9, 42, 0
4, 64304, Note_on_c, 9, 46, 127
4, 64304, Note_on_c, 9, 64, 127
4, 64304, Note_on_c, 9, 36, 127
4, 64400, Note_on_c, 9, 36, 0
4, 64400, Note_on_c, 9, 64, 0
4, 64400, Note_on_c, 9, 46, 0
4, 64496, Note_on_c, 9, 56, 127
4, 64500, Note_on_c, 9, 42, 127
4, 64592, Note_on_c, 9, 42, 0
4, 64592, Note_on_c, 9, 56, 0
4, 64688, Note_on_c, 9, 42, 127
4, 64784, Note_on_c, 9, 42, 0
4, 64880, Note_on_c, 9, 36, 127
4, 64880, Note_on_c, 9, 42, 127
4, 64880, Note_on_c, 9, 62, 127
4, 64880, Note_on_c, 9, 56, 127
4, 64976, Note_on_c, 9, 56, 0
4, 64976, Note_on_c, 9, 62, 0
4, 64976, Note_on_c, 9, 36, 0
4, 64980, Note_on_c, 9, 42, 0
4, 65072, Note_on_c, 9, 62, 127
4, 65072, Note_on_c, 9, 42, 127
4, 65076, Note_on_c, 9, 36, 127
4, 65168, Note_on_c, 9, 36, 0
4, 65168, Note_on_c, 9, 42, 0
4, 65168, Note_on_c, 9, 62, 0
4, 65264, Note_on_c, 9, 56, 127
4, 65264, Note_on_c, 9, 42, 127
4, 65360, Note_on_c, 9, 42, 0
4, 65360, Note_on_c, 9, 56, 0
4, 65456, Note_on_c, 9, 42, 127
4, 65456, Note_on_c, 9, 62, 127
4, 65552, Note_on_c, 9, 62, 0
4, 65552, Note_on_c, 9, 42, 0
4, 65648, Note_on_c, 9, 56, 127
4, 65648, Note_on_c, 9, 64, 127
4, 65652, Note_on_c, 9, 36, 127
4, 65652, Note_on_c, 9, 42, 127
4, 65744, Note_on_c, 9, 36, 0
4, 65744, Note_on_c, 9, 56, 0
4, 65744, Note_on_c, 9, 64, 0
4, 65748, Note_on_c, 9, 42, 0
4, 65840, Note_on_c, 9, 36, 127
4, 65840, Note_on_c, 9, 42, 127
4, 65840, Note_on_c, 9, 64, 127
4, 65936, Note_on_c, 9, 64, 0
4, 65936, Note_on_c, 9, 42, 0
4, 65936, Note_on_c, 9, 36, 0
4, 66032, Note_on_c, 9, 56, 127
4, 66032, Note_on_c, 9, 42, 127
4, 66128, Note_on_c, 9, 42, 0
4, 66128, Note_on_c, 9, 56, 0
4, 66224, Note_on_c, 9, 63, 98
4, 66224, Note_on_c, 9, 42, 127
4, 66320, Note_on_c, 9, 42, 0
4, 66320, Note_on_c, 9, 63, 0
4, 66320, Note_on_c, 9, 62, 122
4, 66416, Note_on_c, 9, 62, 0
4, 66416, Note_on_c, 9, 56, 127
4, 66416, Note_on_c, 9, 62, 125
4, 66420, Note_on_c, 9, 42, 127
4, 66424, Note_on_c, 9, 36, 127
4, 66512, Note_on_c, 9, 36, 0
4, 66512, Note_on_c, 9, 62, 0
4, 66516, Note_on_c, 9, 42, 0
4, 66516, Note_on_c, 9, 56, 0
4, 66608, Note_on_c, 9, 42, 127
4, 66608, Note_on_c, 9, 36, 127
4, 66608, Note_on_c, 9, 62, 127
4, 66704, Note_on_c, 9, 62, 0
4, 66704, Note_on_c, 9, 36, 0
4, 66704, Note_on_c, 9, 42, 0
4, 66800, Note_on_c, 9, 62, 118
4, 66800, Note_on_c, 9, 56, 127
4, 66808, Note_on_c, 9, 42, 127
4, 66896, Note_on_c, 9, 42, 0
4, 66896, Note_on_c, 9, 56, 0
4, 66896, Note_on_c, 9, 62, 0
4, 66992, Note_on_c, 9, 42, 127
4, 66992, Note_on_c, 9, 62, 127
4, 67088, Note_on_c, 9, 62, 0
4, 67088, Note_on_c, 9, 42, 0
4, 67184, Note_on_c, 9, 64, 127
4, 67188, Note_on_c, 9, 36, 127
4, 67188, Note_on_c, 9, 42, 127
4, 67188, Note_on_c, 9, 56, 127
4, 67280, Note_on_c, 9, 56, 0
4, 67280, Note_on_c, 9, 64, 0
4, 67280, Note_on_c, 9, 36, 0
4, 67284, Note_on_c, 9, 42, 0
4, 67376, Note_on_c, 9, 36, 127
4, 67376, Note_on_c, 9, 64, 127
4, 67376, Note_on_c, 9, 46, 127
4, 67472, Note_on_c, 9, 64, 0
4, 67472, Note_on_c, 9, 36, 0
4, 67568, Note_on_c, 9, 46, 0
4, 67568, Note_on_c, 9, 56, 127
4, 67572, Note_on_c, 9, 42, 127
4, 67664, Note_on_c, 9, 42, 0
4, 67664, Note_on_c, 9, 56, 0
4, 67760, Note_on_c, 9, 42, 111
4, 67856, Note_on_c, 9, 42, 0
4, 67856, Note_on_c, 9, 63, 101
4, 67856, Note_on_c, 9, 62, 125
4, 67952, Note_on_c, 9, 62, 0
4, 67952, Note_on_c, 9, 63, 0
4, 67952, Note_on_c, 9, 62, 111
4, 67956, Note_on_c, 9, 56, 127
4, 67956, Note_on_c, 9, 36, 127
4, 67956, Note_on_c, 9, 42, 118
4, 68048, Note_on_c, 9, 42, 0
4, 68048, Note_on_c, 9, 62, 0
4, 68048, Note_on_c, 9, 56, 0
4, 68048, Note_on_c, 9, 36, 0
4, 68144, Note_on_c, 9, 62, 127
4, 68144, Note_on_c, 9, 42, 125
4, 68144, Note_on_c, 9, 36, 127
4, 68240, Note_on_c, 9, 36, 0
4, 68240, Note_on_c, 9, 42, 0
4, 68240, Note_on_c, 9, 62, 0
4, 68336, Note_on_c, 9, 56, 127
4, 68340, Note_on_c, 9, 42, 127
4, 68432, Note_on_c, 9, 42, 0
4, 68432, Note_on_c, 9, 56, 0
4, 68528, Note_on_c, 9, 42, 118
4, 68528, Note_on_c, 9, 62, 127
4, 68624, Note_on_c, 9, 62, 0
4, 68624, Note_on_c, 9, 42, 0
4, 68720, Note_on_c, 9, 64, 127
4, 68724, Note_on_c, 9, 36, 127
4, 68724, Note_on_c, 9, 64, 127
4, 68724, Note_on_c, 9, 56, 127
4, 68724, Note_on_c, 9, 42, 127
4, 68816, Note_on_c, 9, 56, 0
4, 68816, Note_on_c, 9, 64, 0
4, 68816, Note_on_c, 9, 64, 0
4, 68816, Note_on_c, 9, 36, 0
4, 68820, Note_on_c, 9, 42, 0
4, 68912, Note_on_c, 9, 42, 127
4, 68912, Note_on_c, 9, 64, 127
4, 68912, Note_on_c, 9, 36, 127
4, 69008, Note_on_c, 9, 36, 0
4, 69008, Note_on_c, 9, 64, 0
4, 69008, Note_on_c, 9, 42, 0
4, 69104, Note_on_c, 9, 42, 127
4, 69104, Note_on_c, 9, 56, 127
4, 69200, Note_on_c, 9, 56, 0
4, 69200, Note_on_c, 9, 42, 0
4, 69296, Note_on_c, 9, 42, 127
4, 69296, Note_on_c, 9, 63, 98
4, 69296, Note_on_c, 9, 64, 66
4, 69392, Note_on_c, 9, 64, 0
4, 69392, Note_on_c, 9, 63, 0
4, 69392, Note_on_c, 9, 42, 0
4, 69392, Note_on_c, 9, 62, 111
4, 69396, Note_on_c, 9, 62, 127
4, 69488, Note_on_c, 9, 62, 0
4, 69488, Note_on_c, 9, 62, 0
4, 69488, Note_on_c, 9, 56, 127
4, 69492, Note_on_c, 9, 42, 127
4, 69492, Note_on_c, 9, 36, 127
4, 69584, Note_on_c, 9, 36, 0
4, 69584, Note_on_c, 9, 42, 0
4, 69584, Note_on_c, 9, 56, 0
4, 69680, Note_on_c, 9, 42, 127
4, 69680, Note_on_c, 9, 36, 127
4, 69680, Note_on_c, 9, 62, 127
4, 69776, Note_on_c, 9, 62, 0
4, 69776, Note_on_c, 9, 36, 0
4, 69776, Note_on_c, 9, 42, 0
4, 69872, Note_on_c, 9, 62, 127
4, 69876, Note_on_c, 9, 56, 127
4, 69876, Note_on_c, 9, 42, 127
4, 69968, Note_on_c, 9, 42, 0
4, 69968, Note_on_c, 9, 62, 0
4, 69972, Note_on_c, 9, 56, 0
4, 70064, Note_on_c, 9, 42, 127
4, 70064, Note_on_c, 9, 62, 127
4, 70160, Note_on_c, 9, 62, 0
4, 70160, Note_on_c, 9, 42, 0
4, 70256, Note_on_c, 9, 64, 127
4, 70256, Note_on_c, 9, 56, 127
4, 70256, Note_on_c, 9, 42, 127
4, 70260, Note_on_c, 9, 36, 127
4, 70352, Note_on_c, 9, 36, 0
4, 70352, Note_on_c, 9, 64, 0
4, 70356, Note_on_c, 9, 42, 0
4, 70356, Note_on_c, 9, 56, 0
4, 70448, Note_on_c, 9, 64, 127
4, 70448, Note_on_c, 9, 46, 127
4, 70452, Note_on_c, 9, 36, 127
4, 70544, Note_on_c, 9, 36, 0
4, 70544, Note_on_c, 9, 46, 0
4, 70544, Note_on_c, 9, 64, 0
4, 70640, Note_on_c, 9, 42, 127
4, 70640, Note_on_c, 9, 56, 127
4, 70736, Note_on_c, 9, 56, 0
4, 70736, Note_on_c, 9, 42, 0
4, 70832, Note_on_c, 9, 42, 127
4, 70928, Note_on_c, 9, 42, 0
4, 71024, Note_on_c, 9, 56, 127
4, 71024, Note_on_c, 9, 62, 127
4, 71028, Note_on_c, 9, 42, 127
4, 71028, Note_on_c, 9, 36, 127
4, 71120, Note_on_c, 9, 62, 0
4, 71120, Note_on_c, 9, 56, 0
4, 71124, Note_on_c, 9, 42, 0
4, 71124, Note_on_c, 9, 36, 0
4, 71216, Note_on_c, 9, 42, 127
4, 71216, Note_on_c, 9, 36, 127
4, 71216, Note_on_c, 9, 62, 127
4, 71312, Note_on_c, 9, 62, 0
4, 71312, Note_on_c, 9, 36, 0
4, 71312, Note_on_c, 9, 42, 0
4, 71408, Note_on_c, 9, 56, 127
4, 71412, Note_on_c, 9, 42, 127
4, 71504, Note_on_c, 9, 42, 0
4, 71504, Note_on_c, 9, 56, 0
4, 71600, Note_on_c, 9, 42, 127
4, 71600, Note_on_c, 9, 62, 127
4, 71696, Note_on_c, 9, 62, 0
4, 71696, Note_on_c, 9, 42, 0
4, 71792, Note_on_c, 9, 56, 127
4, 71792, Note_on_c, 9, 64, 127
4, 71796, Note_on_c, 9, 42, 127
4, 71796, Note_on_c, 9, 36, 127
4, 71888, Note_on_c, 9, 36, 0
4, 71888, Note_on_c, 9, 56, 0
4, 71888, Note_on_c, 9, 64, 0
4, 71892, Note_on_c, 9, 42, 0
4, 71984, Note_on_c, 9, 36, 127
4, 71984, Note_on_c, 9, 42, 127
4, 71984, Note_on_c, 9, 64, 127
4, 72080, Note_on_c, 9, 64, 0
4, 72080, Note_on_c, 9, 42, 0
4, 72080, Note_on_c, 9, 36, 0
4, 72176, Note_on_c, 9, 36, 127
4, 72176, Note_on_c, 9, 56, 127
4, 72176, Note_on_c, 9, 42, 127
4, 72176, Note_on_c, 9, 65, 127
4, 72272, Note_on_c, 9, 65, 0
4, 72272, Note_on_c, 9, 36, 0
4, 72272, Note_on_c, 9, 56, 0
4, 72276, Note_on_c, 9, 42, 0
4, 72276, Note_on_c, 9, 65, 127
4, 72368, Note_on_c, 9, 65, 0
4, 72464, Note_on_c, 9, 65, 127
4, 72464, Note_on_c, 9, 36, 127
4, 72560, Note_on_c, 9, 36, 0
4, 72560, Note_on_c, 9, 65, 0
4, 72560, Note_on_c, 9, 54, 127
4, 72560, Note_on_c, 9, 65, 127
4, 72656, Note_on_c, 9, 65, 0
4, 72656, Note_on_c, 9, 54, 0
4, 72752, Note_on_c, 9, 43, 127
4, 72752, Note_on_c, 9, 55, 127
4, 72752, Note_on_c, 9, 36, 127
4, 72752, Note_on_c, 9, 36, 127
4, 72760, Note_on_c, 9, 65, 127
4, 72848, Note_on_c, 9, 65, 0
4, 72848, Note_on_c, 9, 36, 0
4, 72848, Note_on_c, 9, 43, 0
4, 72848, Note_on_c, 9, 55, 0
4, 72848, Note_on_c, 9, 36, 0
4, 72944, Note_on_c, 9, 62, 118
4, 72948, Note_on_c, 9, 42, 127
4, 72948, Note_on_c, 9, 56, 127
4, 73040, Note_on_c, 9, 56, 0
4, 73040, Note_on_c, 9, 42, 0
4, 73040, Note_on_c, 9, 62, 0
4, 73136, Note_on_c, 9, 42, 127
4, 73136, Note_on_c, 9, 62, 127
4, 73140, Note_on_c, 9, 66, 105
4, 73232, Note_on_c, 9, 66, 0
4, 73232, Note_on_c, 9, 62, 0
4, 73232, Note_on_c, 9, 42, 0
4, 73236, Note_on_c, 9, 65, 127
4, 73236, Note_on_c, 9, 65, 127
4, 73328, Note_on_c, 9, 65, 0
4, 73328, Note_on_c, 9, 65, 0
4, 73328, Note_on_c, 9, 64, 127
4, 73332, Note_on_c, 9, 36, 127
4, 73332, Note_on_c, 9, 56, 127
4, 73332, Note_on_c, 9, 42, 127
4, 73424, Note_on_c, 9, 42, 0
4, 73424, Note_on_c, 9, 56, 0
4, 73424, Note_on_c, 9, 64, 0
4, 73428, Note_on_c, 9, 36, 0
4, 73520, Note_on_c, 9, 64, 127
4, 73520, Note_on_c, 9, 46, 127
4, 73616, Note_on_c, 9, 64, 0
4, 73712, Note_on_c, 9, 46, 0
4, 73712, Note_on_c, 9, 56, 127
4, 73716, Note_on_c, 9, 42, 127
4, 73808, Note_on_c, 9, 42, 0
4, 73808, Note_on_c, 9, 56, 0
4, 73904, Note_on_c, 9, 42, 111
4, 74000, Note_on_c, 9, 42, 0
4, 74000, Note_on_c, 9, 62, 125
4, 74000, Note_on_c, 9, 63, 101
4, 74096, Note_on_c, 9, 63, 0
4, 74096, Note_on_c, 9, 62, 0
4, 74096, Note_on_c, 9, 62, 111
4, 74100, Note_on_c, 9, 36, 127
4, 74100, Note_on_c, 9, 56, 127
4, 74100, Note_on_c, 9, 42, 118
4, 74192, Note_on_c, 9, 36, 0
4, 74192, Note_on_c, 9, 62, 0
4, 74196, Note_on_c, 9, 56, 0
4, 74196, Note_on_c, 9, 42, 0
4, 74288, Note_on_c, 9, 36, 127
4, 74288, Note_on_c, 9, 42, 125
4, 74292, Note_on_c, 9, 62, 127
4, 74384, Note_on_c, 9, 62, 0
4, 74384, Note_on_c, 9, 42, 0
4, 74384, Note_on_c, 9, 36, 0
4, 74480, Note_on_c, 9, 56, 127
4, 74484, Note_on_c, 9, 42, 127
4, 74576, Note_on_c, 9, 42, 0
4, 74576, Note_on_c, 9, 56, 0
4, 74672, Note_on_c, 9, 42, 118
4, 74672, Note_on_c, 9, 62, 127
4, 74768, Note_on_c, 9, 62, 0
4, 74768, Note_on_c, 9, 42, 0
4, 74864, Note_on_c, 9, 64, 127
4, 74864, Note_on_c, 9, 64, 127
4, 74868, Note_on_c, 9, 42, 127
4, 74868, Note_on_c, 9, 56, 127
4, 74872, Note_on_c, 9, 36, 127
4, 74960, Note_on_c, 9, 36, 0
4, 74960, Note_on_c, 9, 64, 0
4, 74960, Note_on_c, 9, 56, 0
4, 74964, Note_on_c, 9, 42, 0
4, 74964, Note_on_c, 9, 64, 0
4, 75056, Note_on_c, 9, 42, 127
4, 75056, Note_on_c, 9, 64, 127
4, 75056, Note_on_c, 9, 36, 127
4, 75152, Note_on_c, 9, 36, 0
4, 75152, Note_on_c, 9, 64, 0
4, 75152, Note_on_c, 9, 42, 0
4, 75248, Note_on_c, 9, 56, 127
4, 75248, Note_on_c, 9, 42, 127
4, 75344, Note_on_c, 9, 42, 0
4, 75344, Note_on_c, 9, 56, 0
4, 75440, Note_on_c, 9, 42, 127
4, 75440, Note_on_c, 9, 63, 98
4, 75440, Note_on_c, 9, 64, 66
4, 75536, Note_on_c, 9, 64, 0
4, 75536, Note_on_c, 9, 63, 0
4, 75536, Note_on_c, 9, 42, 0
4, 75540, Note_on_c, 9, 62, 111
4, 75540, Note_on_c, 9, 62, 127
4, 75632, Note_on_c, 9, 62, 0
4, 75632, Note_on_c, 9, 62, 0
4, 75636, Note_on_c, 9, 42, 127
4, 75636, Note_on_c, 9, 36, 127
4, 75636, Note_on_c, 9, 56, 127
4, 75728, Note_on_c, 9, 56, 0
4, 75728, Note_on_c, 9, 36, 0
4, 75728, Note_on_c, 9, 42, 0
4, 75824, Note_on_c, 9, 62, 127
4, 75824, Note_on_c, 9, 42, 127
4, 75824, Note_on_c, 9, 36, 127
4, 75920, Note_on_c, 9, 36, 0
4, 75920, Note_on_c, 9, 42, 0
4, 75920, Note_on_c, 9, 62, 0
4, 76016, Note_on_c, 9, 62, 127
4, 76020, Note_on_c, 9, 56, 127
4, 76020, Note_on_c, 9, 42, 127
4, 76112, Note_on_c, 9, 42, 0
4, 76112, Note_on_c, 9, 56, 0
4, 76112, Note_on_c, 9, 62, 0
4, 76208, Note_on_c, 9, 62, 127
4, 76208, Note_on_c, 9, 42, 127
4, 76304, Note_on_c, 9, 42, 0
4, 76304, Note_on_c, 9, 62, 0
4, 76400, Note_on_c, 9, 64, 127
4, 76404, Note_on_c, 9, 56, 127
4, 76404, Note_on_c, 9, 36, 127
4, 76404, Note_on_c, 9, 42, 127
4, 76496, Note_on_c, 9, 56, 0
4, 76496, Note_on_c, 9, 64, 0
4, 76500, Note_on_c, 9, 36, 0
4, 76500, Note_on_c, 9, 42, 0
4, 76592, Note_on_c, 9, 46, 127
4, 76592, Note_on_c, 9, 36, 127
4, 76592, Note_on_c, 9, 64, 127
4, 76688, Note_on_c, 9, 64, 0
4, 76688, Note_on_c, 9, 36, 0
4, 76688, Note_on_c, 9, 46, 0
4, 76784, Note_on_c, 9, 56, 127
4, 76788, Note_on_c, 9, 42, 127
4, 76880, Note_on_c, 9, 42, 0
4, 76880, Note_on_c, 9, 56, 0
4, 76976, Note_on_c, 9, 42, 127
4, 77072, Note_on_c, 9, 42, 0
4, 77168, Note_on_c, 9, 36, 127
4, 77168, Note_on_c, 9, 56, 127
4, 77168, Note_on_c, 9, 42, 127
4, 77168, Note_on_c, 9, 62, 127
4, 77264, Note_on_c, 9, 62, 0
4, 77264, Note_on_c, 9, 42, 0
4, 77268, Note_on_c, 9, 56, 0
4, 77268, Note_on_c, 9, 36, 0
4, 77360, Note_on_c, 9, 42, 127
4, 77360, Note_on_c, 9, 62, 127
4, 77360, Note_on_c, 9, 36, 127
4, 77456, Note_on_c, 9, 36, 0
4, 77456, Note_on_c, 9, 62, 0
4, 77456, Note_on_c, 9, 42, 0
4, 77552, Note_on_c, 9, 56, 127
4, 77556, Note_on_c, 9, 42, 127
4, 77648, Note_on_c, 9, 42, 0
4, 77648, Note_on_c, 9, 56, 0
4, 77744, Note_on_c, 9, 62, 127
4, 77744, Note_on_c, 9, 42, 127
4, 77840, Note_on_c, 9, 42, 0
4, 77840, Note_on_c, 9, 62, 0
4, 77936, Note_on_c, 9, 64, 127
4, 77936, Note_on_c, 9, 56, 127
4, 77940, Note_on_c, 9, 36, 127
4, 77940, Note_on_c, 9, 42, 127
4, 78032, Note_on_c, 9, 36, 0
4, 78032, Note_on_c, 9, 64, 0
4, 78032, Note_on_c, 9, 56, 0
4, 78036, Note_on_c, 9, 42, 0
4, 78128, Note_on_c, 9, 36, 127
4, 78128, Note_on_c, 9, 42, 127
4, 78132, Note_on_c, 9, 64, 127
4, 78224, Note_on_c, 9, 64, 0
4, 78224, Note_on_c, 9, 42, 0
4, 78224, Note_on_c, 9, 36, 0
4, 78320, Note_on_c, 9, 56, 127
4, 78320, Note_on_c, 9, 42, 127
4, 78416, Note_on_c, 9, 42, 0
4, 78416, Note_on_c, 9, 56, 0
4, 78512, Note_on_c, 9, 42, 127
4, 78512, Note_on_c, 9, 63, 98
4, 78608, Note_on_c, 9, 63, 0
4, 78608, Note_on_c, 9, 42, 0
4, 78608, Note_on_c, 9, 62, 122
4, 78704, Note_on_c, 9, 62, 0
4, 78704, Note_on_c, 9, 62, 125
4, 78708, Note_on_c, 9, 36, 127
4, 78708, Note_on_c, 9, 42, 127
4, 78708, Note_on_c, 9, 56, 127
4, 78800, Note_on_c, 9, 56, 0
4, 78800, Note_on_c, 9, 42, 0
4, 78800, Note_on_c, 9, 62, 0
4, 78804, Note_on_c, 9, 36, 0
4, 78896, Note_on_c, 9, 36, 127
4, 78896, Note_on_c, 9, 42, 127
4, 78896, Note_on_c, 9, 62, 127
4, 78992, Note_on_c, 9, 62, 0
4, 78992, Note_on_c, 9, 42, 0
4, 78992, Note_on_c, 9, 36, 0
4, 79088, Note_on_c, 9, 56, 127
4, 79088, Note_on_c, 9, 62, 118
4, 79096, Note_on_c, 9, 42, 127
4, 79184, Note_on_c, 9, 42, 0
4, 79184, Note_on_c, 9, 62, 0
4, 79188, Note_on_c, 9, 56, 0
4, 79280, Note_on_c, 9, 42, 127
4, 79280, Note_on_c, 9, 62, 127
4, 79376, Note_on_c, 9, 62, 0
4, 79376, Note_on_c, 9, 42, 0
4, 79472, Note_on_c, 9, 64, 127
4, 79476, Note_on_c, 9, 42, 127
4, 79476, Note_on_c, 9, 56, 127
4, 79476, Note_on_c, 9, 36, 127
4, 79568, Note_on_c, 9, 36, 0
4, 79568, Note_on_c, 9, 56, 0
4, 79568, Note_on_c, 9, 64, 0
4, 79572, Note_on_c, 9, 42, 0
4, 79664, Note_on_c, 9, 64, 127
4, 79664, Note_on_c, 9, 46, 127
4, 79664, Note_on_c, 9, 36, 127
4, 79760, Note_on_c, 9, 36, 0
4, 79760, Note_on_c, 9, 64, 0
4, 79856, Note_on_c, 9, 46, 0
4, 79856, Note_on_c, 9, 56, 127
4, 79856, Note_on_c, 9, 42, 127
4, 79952, Note_on_c, 9, 42, 0
4, 79952, Note_on_c, 9, 56, 0
4, 80048, Note_on_c, 9, 42, 111
4, 80144, Note_on_c, 9, 42, 0
4, 80144, Note_on_c, 9, 62, 125
4, 80144, Note_on_c, 9, 63, 101
4, 80240, Note_on_c, 9, 63, 0
4, 80240, Note_on_c, 9, 62, 0
4, 80240, Note_on_c, 9, 62, 111
4, 80244, Note_on_c, 9, 42, 118
4, 80244, Note_on_c, 9, 56, 127
4, 80248, Note_on_c, 9, 36, 127
4, 80336, Note_on_c, 9, 42, 0
4, 80336, Note_on_c, 9, 62, 0
4, 80340, Note_on_c, 9, 56, 0
4, 80340, Note_on_c, 9, 36, 0
4, 80432, Note_on_c, 9, 36, 127
4, 80432, Note_on_c, 9, 62, 127
4, 80432, Note_on_c, 9, 42, 125
4, 80528, Note_on_c, 9, 42, 0
4, 80528, Note_on_c, 9, 62, 0
4, 80528, Note_on_c, 9, 36, 0
4, 80628, Note_on_c, 9, 42, 127
4, 80628, Note_on_c, 9, 56, 127
4, 80720, Note_on_c, 9, 56, 0
4, 80720, Note_on_c, 9, 42, 0
4, 80816, Note_on_c, 9, 62, 127
4, 80816, Note_on_c, 9, 42, 118
4, 80912, Note_on_c, 9, 42, 0
4, 80912, Note_on_c, 9, 62, 0
4, 81008, Note_on_c, 9, 64, 127
4, 81008, Note_on_c, 9, 64, 127
4, 81012, Note_on_c, 9, 56, 127
4, 81012, Note_on_c, 9, 42, 127
4, 81012, Note_on_c, 9, 36, 127
4, 81104, Note_on_c, 9, 36, 0
4, 81104, Note_on_c, 9, 64, 0
4, 81104, Note_on_c, 9, 56, 0
4, 81104, Note_on_c, 9, 64, 0
4, 81108, Note_on_c, 9, 42, 0
4, 81200, Note_on_c, 9, 64, 127
4, 81200, Note_on_c, 9, 36, 127
4, 81200, Note_on_c, 9, 42, 127
4, 81296, Note_on_c, 9, 42, 0
4, 81296, Note_on_c, 9, 36, 0
4, 81296, Note_on_c, 9, 64, 0
4, 81392, Note_on_c, 9, 56, 127
4, 81392, Note_on_c, 9, 42, 127
4, 81488, Note_on_c, 9, 42, 0
4, 81488, Note_on_c, 9, 56, 0
4, 81584, Note_on_c, 9, 64, 66
4, 81584, Note_on_c, 9, 42, 127
4, 81588, Note_on_c, 9, 63, 98
4, 81680, Note_on_c, 9, 63, 0
4, 81680, Note_on_c, 9, 42, 0
4, 81680, Note_on_c, 9, 64, 0
4, 81680, Note_on_c, 9, 62, 111
4, 81684, Note_on_c, 9, 62, 127
4, 81776, Note_on_c, 9, 62, 0
4, 81776, Note_on_c, 9, 62, 0
4, 81780, Note_on_c, 9, 56, 127
4, 81780, Note_on_c, 9, 36, 127
4, 81780, Note_on_c, 9, 42, 127
4, 81872, Note_on_c, 9, 42, 0
4, 81872, Note_on_c, 9, 56, 0
4, 81876, Note_on_c, 9, 36, 0
4, 81968, Note_on_c, 9, 42, 127
4, 81968, Note_on_c, 9, 62, 127
4, 81972, Note_on_c, 9, 36, 127
4, 82064, Note_on_c, 9, 36, 0
4, 82064, Note_on_c, 9, 62, 0
4, 82064, Note_on_c, 9, 42, 0
4, 82160, Note_on_c, 9, 62, 127
4, 82164, Note_on_c, 9, 42, 127
4, 82164, Note_on_c, 9, 56, 127
4, 82256, Note_on_c, 9, 56, 0
4, 82256, Note_on_c, 9, 42, 0
4, 82256, Note_on_c, 9, 62, 0
4, 82352, Note_on_c, 9, 42, 127
4, 82352, Note_on_c, 9, 62, 127
4, 82448, Note_on_c, 9, 62, 0
4, 82448, Note_on_c, 9, 42, 0
4, 82544, Note_on_c, 9, 56, 127
4, 82544, Note_on_c, 9, 42, 127
4, 82544, Note_on_c, 9, 64, 127
4, 82544, Note_on_c, 9, 36, 127
4, 82640, Note_on_c, 9, 36, 0
4, 82640, Note_on_c, 9, 64, 0
4, 82640, Note_on_c, 9, 56, 0
4, 82644, Note_on_c, 9, 42, 0
4, 82736, Note_on_c, 9, 64, 127
4, 82736, Note_on_c, 9, 46, 127
4, 82736, Note_on_c, 9, 36, 127
4, 82832, Note_on_c, 9, 36, 0
4, 82832, Note_on_c, 9, 46, 0
4, 82832, Note_on_c, 9, 64, 0
4, 82928, Note_on_c, 9, 56, 127
4, 82928, Note_on_c, 9, 42, 127
4, 83024, Note_on_c, 9, 42, 0
4, 83024, Note_on_c, 9, 56, 0
4, 83120, Note_on_c, 9, 42, 127
4, 83216, Note_on_c, 9, 42, 0
4, 83312, Note_on_c, 9, 62, 127
4, 83312, Note_on_c, 9, 42, 127
4, 83312, Note_on_c, 9, 56, 127
4, 83320, Note_on_c, 9, 36, 127
4, 83408, Note_on_c, 9, 42, 0
4, 83408, Note_on_c, 9, 62, 0
4, 83412, Note_on_c, 9, 56, 0
4, 83412, Note_on_c, 9, 36, 0
4, 83504, Note_on_c, 9, 42, 127
4, 83504, Note_on_c, 9, 36, 127
4, 83504, Note_on_c, 9, 62, 127
4, 83600, Note_on_c, 9, 62, 0
4, 83600, Note_on_c, 9, 36, 0
4, 83600, Note_on_c, 9, 42, 0
4, 83696, Note_on_c, 9, 56, 127
4, 83700, Note_on_c, 9, 42, 127
4, 83792, Note_on_c, 9, 42, 0
4, 83792, Note_on_c, 9, 56, 0
4, 83888, Note_on_c, 9, 62, 127
4, 83888, Note_on_c, 9, 42, 127
4, 83984, Note_on_c, 9, 42, 0
4, 83984, Note_on_c, 9, 62, 0
4, 84080, Note_on_c, 9, 56, 127
4, 84080, Note_on_c, 9, 42, 127
4, 84080, Note_on_c, 9, 64, 127
4, 84084, Note_on_c, 9, 36, 127
4, 84176, Note_on_c, 9, 36, 0
4, 84176, Note_on_c, 9, 64, 0
4, 84180, Note_on_c, 9, 42, 0
4, 84180, Note_on_c, 9, 56, 0
4, 84272, Note_on_c, 9, 42, 127
4, 84272, Note_on_c, 9, 64, 127
4, 84272, Note_on_c, 9, 36, 127
4, 84368, Note_on_c, 9, 36, 0
4, 84368, Note_on_c, 9, 64, 0
4, 84368, Note_on_c, 9, 42, 0
4, 84464, Note_on_c, 9, 42, 127
4, 84464, Note_on_c, 9, 56, 127
4, 84560, Note_on_c, 9, 56, 0
4, 84560, Note_on_c, 9, 42, 0
4, 84656, Note_on_c, 9, 63, 98
4, 84656, Note_on_c, 9, 42, 127
4, 84752, Note_on_c, 9, 42, 0
4, 84752, Note_on_c, 9, 63, 0
4, 84752, Note_on_c, 9, 62, 122
4, 84848, Note_on_c, 9, 62, 0
4, 84848, Note_on_c, 9, 62, 125
4, 84848, Note_on_c, 9, 56, 127
4, 84852, Note_on_c, 9, 36, 127
4, 84852, Note_on_c, 9, 42, 127
4, 84944, Note_on_c, 9, 36, 0
4, 84944, Note_on_c, 9, 62, 0
4, 84944, Note_on_c, 9, 56, 0
4, 84948, Note_on_c, 9, 42, 0
4, 85040, Note_on_c, 9, 62, 127
4, 85040, Note_on_c, 9, 42, 127
4, 85136, Note_on_c, 9, 42, 0
4, 85136, Note_on_c, 9, 62, 0
4, 85232, Note_on_c, 9, 62, 118
4, 85236, Note_on_c, 9, 56, 127
4, 85236, Note_on_c, 9, 42, 127
4, 85328, Note_on_c, 9, 42, 0
4, 85328, Note_on_c, 9, 56, 0
4, 85328, Note_on_c, 9, 62, 0
4, 85424, Note_on_c, 9, 36, 127
4, 85424, Note_on_c, 9, 42, 127
4, 85424, Note_on_c, 9, 62, 127
4, 85520, Note_on_c, 9, 62, 0
4, 85520, Note_on_c, 9, 42, 0
4, 85520, Note_on_c, 9, 36, 0
4, 85616, Note_on_c, 9, 56, 127
4, 85616, Note_on_c, 9, 64, 127
4, 85624, Note_on_c, 9, 36, 127
4, 85624, Note_on_c, 9, 42, 127
4, 85712, Note_on_c, 9, 42, 0
4, 85712, Note_on_c, 9, 56, 0
4, 85712, Note_on_c, 9, 64, 0
4, 85712, Note_on_c, 9, 36, 0
4, 85808, Note_on_c, 9, 64, 127
4, 85808, Note_on_c, 9, 46, 127
4, 85904, Note_on_c, 9, 64, 0
4, 86000, Note_on_c, 9, 46, 0
4, 86000, Note_on_c, 9, 56, 127
4, 86004, Note_on_c, 9, 42, 127
4, 86096, Note_on_c, 9, 42, 0
4, 86096, Note_on_c, 9, 56, 0
4, 86192, Note_on_c, 9, 42, 111
4, 86288, Note_on_c, 9, 42, 0
4, 86288, Note_on_c, 9, 62, 125
4, 86288, Note_on_c, 9, 63, 101
4, 86384, Note_on_c, 9, 63, 0
4, 86384, Note_on_c, 9, 62, 0
4, 86384, Note_on_c, 9, 62, 111
4, 86388, Note_on_c, 9, 56, 127
4, 86388, Note_on_c, 9, 36, 127
4, 86388, Note_on_c, 9, 42, 118
4, 86480, Note_on_c, 9, 42, 0
4, 86480, Note_on_c, 9, 62, 0
4, 86484, Note_on_c, 9, 36, 0
4, 86484, Note_on_c, 9, 56, 0
4, 86576, Note_on_c, 9, 42, 125
4, 86576, Note_on_c, 9, 62, 127
4, 86576, Note_on_c, 9, 36, 127
4, 86672, Note_on_c, 9, 36, 0
4, 86672, Note_on_c, 9, 62, 0
4, 86672, Note_on_c, 9, 42, 0
4, 86768, Note_on_c, 9, 56, 127
4, 86772, Note_on_c, 9, 42, 127
4, 86864, Note_on_c, 9, 42, 0
4, 86864, Note_on_c, 9, 56, 0
4, 86960, Note_on_c, 9, 62, 127
4, 86960, Note_on_c, 9, 42, 118
4, 87056, Note_on_c, 9, 42, 0
4, 87056, Note_on_c, 9, 62, 0
4, 87152, Note_on_c, 9, 64, 127
4, 87152, Note_on_c, 9, 64, 127
4, 87156, Note_on_c, 9, 42, 127
4, 87156, Note_on_c, 9, 56, 127
4, 87160, Note_on_c, 9, 36, 127
4, 87248, Note_on_c, 9, 36, 0
4, 87248, Note_on_c, 9, 64, 0
4, 87248, Note_on_c, 9, 56, 0
4, 87252, Note_on_c, 9, 42, 0
4, 87252, Note_on_c, 9, 64, 0
4, 87344, Note_on_c, 9, 36, 127
4, 87344, Note_on_c, 9, 64, 127
4, 87344, Note_on_c, 9, 42, 127
4, 87440, Note_on_c, 9, 42, 0
4, 87440, Note_on_c, 9, 64, 0
4, 87440, Note_on_c, 9, 36, 0
4, 87536, Note_on_c, 9, 42, 127
4, 87536, Note_on_c, 9, 56, 127
4, 87632, Note_on_c, 9, 56, 0
4, 87632, Note_on_c, 9, 42, 0
4, 87728, Note_on_c, 9, 64, 66
4, 87728, Note_on_c, 9, 63, 98
4, 87728, Note_on_c, 9, 42, 127
4, 87824, Note_on_c, 9, 42, 0
4, 87824, Note_on_c, 9, 63, 0
4, 87824, Note_on_c, 9, 64, 0
4, 87824, Note_on_c, 9, 62, 127
4, 87824, Note_on_c, 9, 62, 111
4, 87920, Note_on_c, 9, 62, 0
4, 87920, Note_on_c, 9, 62, 0
4, 87920, Note_on_c, 9, 56, 127
4, 87924, Note_on_c, 9, 36, 127
4, 87924, Note_on_c, 9, 42, 127
4, 88016, Note_on_c, 9, 42, 0
4, 88016, Note_on_c, 9, 36, 0
4, 88016, Note_on_c, 9, 56, 0
4, 88112, Note_on_c, 9, 36, 127
4, 88112, Note_on_c, 9, 62, 127
4, 88112, Note_on_c, 9, 42, 127
4, 88208, Note_on_c, 9, 42, 0
4, 88208, Note_on_c, 9, 62, 0
4, 88208, Note_on_c, 9, 36, 0
4, 88304, Note_on_c, 9, 62, 127
4, 88308, Note_on_c, 9, 56, 127
4, 88308, Note_on_c, 9, 42, 127
4, 88400, Note_on_c, 9, 42, 0
4, 88400, Note_on_c, 9, 62, 0
4, 88404, Note_on_c, 9, 56, 0
4, 88496, Note_on_c, 9, 42, 127
4, 88496, Note_on_c, 9, 62, 127
4, 88592, Note_on_c, 9, 62, 0
4, 88592, Note_on_c, 9, 42, 0
4, 88688, Note_on_c, 9, 64, 127
4, 88692, Note_on_c, 9, 42, 127
4, 88692, Note_on_c, 9, 36, 127
4, 88692, Note_on_c, 9, 56, 127
4, 88784, Note_on_c, 9, 56, 0
4, 88784, Note_on_c, 9, 36, 0
4, 88784, Note_on_c, 9, 64, 0
4, 88788, Note_on_c, 9, 42, 0
4, 88880, Note_on_c, 9, 46, 127
4, 88880, Note_on_c, 9, 64, 127
4, 88880, Note_on_c, 9, 36, 127
4, 88976, Note_on_c, 9, 36, 0
4, 88976, Note_on_c, 9, 64, 0
4, 88976, Note_on_c, 9, 46, 0
4, 89072, Note_on_c, 9, 56, 127
4, 89072, Note_on_c, 9, 42, 127
4, 89168, Note_on_c, 9, 42, 0
4, 89168, Note_on_c, 9, 56, 0
4, 89264, Note_on_c, 9, 42, 127
4, 89360, Note_on_c, 9, 42, 0
4, 89456, Note_on_c, 9, 56, 127
4, 89456, Note_on_c, 9, 62, 127
4, 89460, Note_on_c, 9, 42, 127
4, 89460, Note_on_c, 9, 36, 127
4, 89552, Note_on_c, 9, 42, 0
4, 89552, Note_on_c, 9, 62, 0
4, 89556, Note_on_c, 9, 56, 0
4, 89556, Note_on_c, 9, 36, 0
4, 89648, Note_on_c, 9, 42, 127
4, 89648, Note_on_c, 9, 36, 127
4, 89648, Note_on_c, 9, 62, 127
4, 89744, Note_on_c, 9, 62, 0
4, 89744, Note_on_c, 9, 36, 0
4, 89744, Note_on_c, 9, 42, 0
4, 89840, Note_on_c, 9, 56, 127
4, 89844, Note_on_c, 9, 42, 127
4, 89936, Note_on_c, 9, 42, 0
4, 89936, Note_on_c, 9, 56, 0
4, 90032, Note_on_c, 9, 62, 127
4, 90032, Note_on_c, 9, 42, 127
4, 90128, Note_on_c, 9, 42, 0
4, 90128, Note_on_c, 9, 62, 0
4, 90224, Note_on_c, 9, 56, 127
4, 90224, Note_on_c, 9, 64, 127
4, 90228, Note_on_c, 9, 42, 127
4, 90228, Note_on_c, 9, 36, 127
4, 90320, Note_on_c, 9, 36, 0
4, 90320, Note_on_c, 9, 56, 0
4, 90320, Note_on_c, 9, 64, 0
4, 90324, Note_on_c, 9, 42, 0
4, 90416, Note_on_c, 9, 36, 127
4, 90416, Note_on_c, 9, 64, 127
4, 90416, Note_on_c, 9, 42, 127
4, 90512, Note_on_c, 9, 42, 0
4, 90512, Note_on_c, 9, 64, 0
4, 90512, Note_on_c, 9, 36, 0
4, 90608, Note_on_c, 9, 42, 127
4, 90608, Note_on_c, 9, 56, 127
4, 90704, Note_on_c, 9, 56, 0
4, 90704, Note_on_c, 9, 42, 0
4, 90800, Note_on_c, 9, 42, 127
4, 90800, Note_on_c, 9, 63, 98
4, 90896, Note_on_c, 9, 63, 0
4, 90896, Note_on_c, 9, 42, 0
4, 90896, Note_on_c, 9, 62, 122
4, 90992, Note_on_c, 9, 62, 0
4, 90992, Note_on_c, 9, 62, 125
4, 90992, Note_on_c, 9, 56, 127
4, 91000, Note_on_c, 9, 36, 127
4, 91000, Note_on_c, 9, 42, 127
4, 91088, Note_on_c, 9, 42, 0
4, 91088, Note_on_c, 9, 62, 0
4, 91088, Note_on_c, 9, 56, 0
4, 91092, Note_on_c, 9, 36, 0
4, 91184, Note_on_c, 9, 42, 127
4, 91184, Note_on_c, 9, 36, 127
4, 91184, Note_on_c, 9, 62, 127
4, 91280, Note_on_c, 9, 62, 0
4, 91280, Note_on_c, 9, 36, 0
4, 91280, Note_on_c, 9, 42, 0
4, 91376, Note_on_c, 9, 56, 127
4, 91376, Note_on_c, 9, 62, 118
4, 91384, Note_on_c, 9, 42, 127
4, 91472, Note_on_c, 9, 42, 0
4, 91472, Note_on_c, 9, 62, 0
4, 91476, Note_on_c, 9, 56, 0
4, 91568, Note_on_c, 9, 66, 111
4, 91568, Note_on_c, 9, 62, 127
4, 91568, Note_on_c, 9, 42, 127
4, 91664, Note_on_c, 9, 42, 0
4, 91664, Note_on_c, 9, 62, 0
4, 91664, Note_on_c, 9, 66, 0
4, 91668, Note_on_c, 9, 65, 127
4, 91668, Note_on_c, 9, 65, 127
4, 91760, Note_on_c, 9, 65, 0
4, 91760, Note_on_c, 9, 65, 0
4, 91764, Note_on_c, 9, 64, 127
4, 91764, Note_on_c, 9, 43, 127
4, 91764, Note_on_c, 9, 55, 127
4, 91764, Note_on_c, 9, 56, 127
4, 91764, Note_on_c, 9, 42, 127
4, 91768, Note_on_c, 9, 36, 127
4, 91856, Note_on_c, 9, 36, 0
4, 91856, Note_on_c, 9, 42, 0
4, 91860, Note_on_c, 9, 64, 0
4, 91860, Note_on_c, 9, 56, 0
4, 91952, Note_on_c, 9, 64, 127
4, 91952, Note_on_c, 9, 46, 127
4, 91952, Note_on_c, 9, 36, 127
4, 92048, Note_on_c, 9, 36, 0
4, 92048, Note_on_c, 9, 64, 0
4, 92144, Note_on_c, 9, 43, 0
4, 92144, Note_on_c, 9, 55, 0
4, 92144, Note_on_c, 9, 46, 0
4, 92148, Note_on_c, 9, 42, 127
4, 92148, Note_on_c, 9, 56, 127
4, 92240, Note_on_c, 9, 56, 0
4, 92240, Note_on_c, 9, 42, 0
4, 92336, Note_on_c, 9, 42, 111
4, 92432, Note_on_c, 9, 42, 0
4, 92432, Note_on_c, 9, 62, 125
4, 92432, Note_on_c, 9, 63, 101
4, 92528, Note_on_c, 9, 63, 0
4, 92528, Note_on_c, 9, 62, 0
4, 92528, Note_on_c, 9, 62, 111
4, 92532, Note_on_c, 9, 36, 127
4, 92532, Note_on_c, 9, 56, 127
4, 92532, Note_on_c, 9, 42, 118
4, 92624, Note_on_c, 9, 42, 0
4, 92624, Note_on_c, 9, 62, 0
4, 92628, Note_on_c, 9, 56, 0
4, 92628, Note_on_c, 9, 36, 0
4, 92720, Note_on_c, 9, 36, 127
4, 92720, Note_on_c, 9, 62, 127
4, 92720, Note_on_c, 9, 42, 125
4, 92816, Note_on_c, 9, 42, 0
4, 92816, Note_on_c, 9, 62, 0
4, 92816, Note_on_c, 9, 36, 0
4, 92916, Note_on_c, 9, 42, 127
4, 92916, Note_on_c, 9, 56, 127
4, 93008, Note_on_c, 9, 56, 0
4, 93008, Note_on_c, 9, 42, 0
4, 93104, Note_on_c, 9, 42, 118
4, 93104, Note_on_c, 9, 62, 127
4, 93200, Note_on_c, 9, 62, 0
4, 93200, Note_on_c, 9, 42, 0
4, 93296, Note_on_c, 9, 64, 127
4, 93296, Note_on_c, 9, 64, 127
4, 93296, Note_on_c, 9, 56, 127
4, 93304, Note_on_c, 9, 42, 127
4, 93304, Note_on_c, 9, 36, 127
4, 93392, Note_on_c, 9, 36, 0
4, 93392, Note_on_c, 9, 64, 0
4, 93392, Note_on_c, 9, 56, 0
4, 93392, Note_on_c, 9, 64, 0
4, 93396, Note_on_c, 9, 42, 0
4, 93488, Note_on_c, 9, 36, 127
4, 93488, Note_on_c, 9, 42, 127
4, 93488, Note_on_c, 9, 64, 127
4, 93584, Note_on_c, 9, 64, 0
4, 93584, Note_on_c, 9, 42, 0
4, 93584, Note_on_c, 9, 36, 0
4, 93680, Note_on_c, 9, 56, 127
4, 93680, Note_on_c, 9, 42, 127
4, 93776, Note_on_c, 9, 42, 0
4, 93776, Note_on_c, 9, 56, 0
4, 93872, Note_on_c, 9, 42, 127
4, 93872, Note_on_c, 9, 63, 98
4, 93872, Note_on_c, 9, 64, 66
4, 93968, Note_on_c, 9, 64, 0
4, 93968, Note_on_c, 9, 63, 0
4, 93968, Note_on_c, 9, 42, 0
4, 93972, Note_on_c, 9, 62, 111
4, 93972, Note_on_c, 9, 62, 127
4, 94064, Note_on_c, 9, 62, 0
4, 94064, Note_on_c, 9, 62, 0
4, 94068, Note_on_c, 9, 56, 127
4, 94068, Note_on_c, 9, 42, 127
4, 94068, Note_on_c, 9, 36, 127
4, 94160, Note_on_c, 9, 36, 0
4, 94160, Note_on_c, 9, 42, 0
4, 94160, Note_on_c, 9, 56, 0
4, 94256, Note_on_c, 9, 62, 127
4, 94256, Note_on_c, 9, 42, 127
4, 94256, Note_on_c, 9, 36, 127
4, 94352, Note_on_c, 9, 36, 0
4, 94352, Note_on_c, 9, 42, 0
4, 94352, Note_on_c, 9, 62, 0
4, 94448, Note_on_c, 9, 56, 127
4, 94448, Note_on_c, 9, 62, 127
4, 94456, Note_on_c, 9, 42, 127
4, 94544, Note_on_c, 9, 42, 0
4, 94544, Note_on_c, 9, 62, 0
4, 94544, Note_on_c, 9, 56, 0
4, 94640, Note_on_c, 9, 62, 127
4, 94640, Note_on_c, 9, 42, 127
4, 94736, Note_on_c, 9, 42, 0
4, 94736, Note_on_c, 9, 62, 0
4, 94832, Note_on_c, 9, 56, 127
4, 94832, Note_on_c, 9, 64, 127
4, 94836, Note_on_c, 9, 42, 127
4, 94840, Note_on_c, 9, 36, 127
4, 94928, Note_on_c, 9, 36, 0
4, 94928, Note_on_c, 9, 42, 0
4, 94928, Note_on_c, 9, 56, 0
4, 94932, Note_on_c, 9, 64, 0
4, 95024, Note_on_c, 9, 64, 127
4, 95024, Note_on_c, 9, 46, 127
4, 95024, Note_on_c, 9, 36, 127
4, 95120, Note_on_c, 9, 36, 0
4, 95120, Note_on_c, 9, 46, 0
4, 95120, Note_on_c, 9, 64, 0
4, 95216, Note_on_c, 9, 56, 127
4, 95216, Note_on_c, 9, 42, 127
4, 95312, Note_on_c, 9, 42, 0
4, 95312, Note_on_c, 9, 56, 0
4, 95408, Note_on_c, 9, 42, 127
4, 95504, Note_on_c, 9, 42, 0
4, 95600, Note_on_c, 9, 62, 127
4, 95600, Note_on_c, 9, 56, 127
4, 95604, Note_on_c, 9, 36, 127
4, 95604, Note_on_c, 9, 42, 127
4, 95696, Note_on_c, 9, 42, 0
4, 95696, Note_on_c, 9, 62, 0
4, 95696, Note_on_c, 9, 56, 0
4, 95700, Note_on_c, 9, 36, 0
4, 95792, Note_on_c, 9, 36, 127
4, 95792, Note_on_c, 9, 62, 127
4, 95792, Note_on_c, 9, 42, 127
4, 95888, Note_on_c, 9, 42, 0
4, 95888, Note_on_c, 9, 62, 0
4, 95888, Note_on_c, 9, 36, 0
4, 95988, Note_on_c, 9, 56, 127
4, 95988, Note_on_c, 9, 42, 127
4, 96080, Note_on_c, 9, 42, 0
4, 96080, Note_on_c, 9, 56, 0
4, 96176, Note_on_c, 9, 42, 127
4, 96176, Note_on_c, 9, 62, 127
4, 96272, Note_on_c, 9, 62, 0
4, 96272, Note_on_c, 9, 42, 0
4, 96368, Note_on_c, 9, 64, 127
4, 96368, Note_on_c, 9, 56, 127
4, 96372, Note_on_c, 9, 36, 127
4, 96372, Note_on_c, 9, 42, 127
4, 96464, Note_on_c, 9, 36, 0
4, 96464, Note_on_c, 9, 64, 0
4, 96464, Note_on_c, 9, 56, 0
4, 96468, Note_on_c, 9, 42, 0
4, 96560, Note_on_c, 9, 64, 127
4, 96560, Note_on_c, 9, 42, 127
4, 96560, Note_on_c, 9, 36, 127
4, 96656, Note_on_c, 9, 36, 0
4, 96656, Note_on_c, 9, 42, 0
4, 96656, Note_on_c, 9, 64, 0
4, 96752, Note_on_c, 9, 56, 127
4, 96752, Note_on_c, 9, 42, 127
4, 96848, Note_on_c, 9, 42, 0
4, 96848, Note_on_c, 9, 56, 0
4, 96944, Note_on_c, 9, 63, 98
4, 96944, Note_on_c, 9, 42, 127
4, 97040, Note_on_c, 9, 42, 0
4, 97040, Note_on_c, 9, 63, 0
4, 97040, Note_on_c, 9, 62, 122
4, 97136, Note_on_c, 9, 62, 0
4, 97136, Note_on_c, 9, 62, 125
4, 97140, Note_on_c, 9, 42, 127
4, 97140, Note_on_c, 9, 36, 127
4, 97140, Note_on_c, 9, 56, 127
4, 97232, Note_on_c, 9, 56, 0
4, 97232, Note_on_c, 9, 62, 0
4, 97232, Note_on_c, 9, 42, 0
4, 97236, Note_on_c, 9, 36, 0
4, 97328, Note_on_c, 9, 36, 127
4, 97328, Note_on_c, 9, 42, 127
4, 97328, Note_on_c, 9, 62, 127
4, 97424, Note_on_c, 9, 62, 0
4, 97424, Note_on_c, 9, 42, 0
4, 97424, Note_on_c, 9, 36, 0
4, 97520, Note_on_c, 9, 62, 118
4, 97520, Note_on_c, 9, 81, 127
4, 97524, Note_on_c, 9, 42, 127
4, 97524, Note_on_c, 9, 56, 127
4, 97616, Note_on_c, 9, 56, 0
4, 97616, Note_on_c, 9, 42, 0
4, 97616, Note_on_c, 9, 62, 0
4, 97712, Note_on_c, 9, 62, 127
4, 97712, Note_on_c, 9, 42, 127
4, 97808, Note_on_c, 9, 42, 0
4, 97808, Note_on_c, 9, 62, 0
4, 97904, Note_on_c, 9, 64, 127
4, 97908, Note_on_c, 9, 42, 127
4, 97908, Note_on_c, 9, 56, 127
4, 98000, Note_on_c, 9, 42, 0
4, 98000, Note_on_c, 9, 64, 0
4, 98004, Note_on_c, 9, 56, 0
4, 98096, Note_on_c, 9, 46, 127
4, 98096, Note_on_c, 9, 64, 127
4, 98192, Note_on_c, 9, 64, 0
4, 98288, Note_on_c, 9, 46, 0
4, 98288, Note_on_c, 9, 81, 0
4, 98288, Note_on_c, 9, 56, 127
4, 98292, Note_on_c, 9, 42, 127
4, 98384, Note_on_c, 9, 42, 0
4, 98384, Note_on_c, 9, 56, 0
4, 98480, Note_on_c, 9, 42, 111
4, 98576, Note_on_c, 9, 42, 0
4, 98576, Note_on_c, 9, 63, 101
4, 98576, Note_on_c, 9, 62, 125
4, 98672, Note_on_c, 9, 62, 0
4, 98672, Note_on_c, 9, 63, 0
4, 98672, Note_on_c, 9, 62, 111
4, 98676, Note_on_c, 9, 36, 127
4, 98676, Note_on_c, 9, 56, 127
4, 98676, Note_on_c, 9, 42, 118
4, 98768, Note_on_c, 9, 56, 0
4, 98768, Note_on_c, 9, 36, 0
4, 98772, Note_on_c, 9, 62, 0
4, 98772, Note_on_c, 9, 42, 0
4, 98864, Note_on_c, 9, 42, 125
4, 98864, Note_on_c, 9, 36, 127
4, 98864, Note_on_c, 9, 62, 127
4, 98960, Note_on_c, 9, 62, 0
4, 98960, Note_on_c, 9, 36, 0
4, 98960, Note_on_c, 9, 42, 0
4, 99056, Note_on_c, 9, 56, 127
4, 99060, Note_on_c, 9, 42, 127
4, 99152, Note_on_c, 9, 42, 0
4, 99152, Note_on_c, 9, 56, 0
4, 99248, Note_on_c, 9, 42, 118
4, 99248, Note_on_c, 9, 62, 127
4, 99344, Note_on_c, 9, 62, 0
4, 99344, Note_on_c, 9, 42, 0
4, 99440, Note_on_c, 9, 64, 127
4, 99440, Note_on_c, 9, 64, 127
4, 99444, Note_on_c, 9, 42, 127
4, 99444, Note_on_c, 9, 56, 127
4, 99444, Note_on_c, 9, 36, 127
4, 99536, Note_on_c, 9, 36, 0
4, 99536, Note_on_c, 9, 64, 0
4, 99536, Note_on_c, 9, 56, 0
4, 99540, Note_on_c, 9, 42, 0
4, 99540, Note_on_c, 9, 64, 0
4, 99632, Note_on_c, 9, 42, 127
4, 99632, Note_on_c, 9, 36, 127
4, 99636, Note_on_c, 9, 64, 127
4, 99728, Note_on_c, 9, 64, 0
4, 99728, Note_on_c, 9, 36, 0
4, 99728, Note_on_c, 9, 42, 0
4, 99824, Note_on_c, 9, 56, 127
4, 99824, Note_on_c, 9, 42, 127
4, 99920, Note_on_c, 9, 42, 0
4, 99920, Note_on_c, 9, 56, 0
4, 100016, Note_on_c, 9, 63, 98
4, 100016, Note_on_c, 9, 64, 66
4, 100016, Note_on_c, 9, 42, 127
4, 100112, Note_on_c, 9, 42, 0
4, 100112, Note_on_c, 9, 64, 0
4, 100112, Note_on_c, 9, 63, 0
4, 100116, Note_on_c, 9, 62, 111
4, 100116, Note_on_c, 9, 62, 127
4, 100208, Note_on_c, 9, 62, 0
4, 100208, Note_on_c, 9, 62, 0
4, 100212, Note_on_c, 9, 42, 127
4, 100212, Note_on_c, 9, 36, 127
4, 100212, Note_on_c, 9, 56, 127
4, 100304, Note_on_c, 9, 56, 0
4, 100304, Note_on_c, 9, 36, 0
4, 100304, Note_on_c, 9, 42, 0
4, 100400, Note_on_c, 9, 62, 127
4, 100400, Note_on_c, 9, 36, 127
4, 100400, Note_on_c, 9, 42, 127
4, 100496, Note_on_c, 9, 42, 0
4, 100496, Note_on_c, 9, 36, 0
4, 100496, Note_on_c, 9, 62, 0
4, 100592, Note_on_c, 9, 62, 127
4, 100596, Note_on_c, 9, 56, 127
4, 100596, Note_on_c, 9, 42, 127
4, 100688, Note_on_c, 9, 42, 0
4, 100688, Note_on_c, 9, 56, 0
4, 100688, Note_on_c, 9, 62, 0
4, 100784, Note_on_c, 9, 42, 127
4, 100784, Note_on_c, 9, 62, 127
4, 100880, Note_on_c, 9, 62, 0
4, 100880, Note_on_c, 9, 42, 0
4, 100976, Note_on_c, 9, 56, 127
4, 100976, Note_on_c, 9, 36, 127
4, 100976, Note_on_c, 9, 64, 127
4, 100976, Note_on_c, 9, 42, 127
4, 101072, Note_on_c, 9, 42, 0
4, 101072, Note_on_c, 9, 64, 0
4, 101072, Note_on_c, 9, 56, 0
4, 101076, Note_on_c, 9, 36, 0
4, 101168, Note_on_c, 9, 46, 127
4, 101168, Note_on_c, 9, 64, 127
4, 101168, Note_on_c, 9, 36, 127
4, 101264, Note_on_c, 9, 36, 0
4, 101264, Note_on_c, 9, 64, 0
4, 101264, Note_on_c, 9, 46, 0
4, 101360, Note_on_c, 9, 42, 127
4, 101360, Note_on_c, 9, 56, 127
4, 101456, Note_on_c, 9, 56, 0
4, 101456, Note_on_c, 9, 42, 0
4, 101552, Note_on_c, 9, 42, 127
4, 101648, Note_on_c, 9, 42, 0
4, 101744, Note_on_c, 9, 56, 127
4, 101744, Note_on_c, 9, 42, 127
4, 101744, Note_on_c, 9, 62, 127
4, 101748, Note_on_c, 9, 36, 127
4, 101840, Note_on_c, 9, 36, 0
4, 101840, Note_on_c, 9, 62, 0
4, 101840, Note_on_c, 9, 56, 0
4, 101844, Note_on_c, 9, 42, 0
4, 101936, Note_on_c, 9, 36, 127
4, 101936, Note_on_c, 9, 62, 127
4, 101936, Note_on_c, 9, 42, 127
4, 102032, Note_on_c, 9, 42, 0
4, 102032, Note_on_c, 9, 62, 0
4, 102032, Note_on_c, 9, 36, 0
4, 102128, Note_on_c, 9, 56, 127
4, 102128, Note_on_c, 9, 42, 127
4, 102224, Note_on_c, 9, 42, 0
4, 102224, Note_on_c, 9, 56, 0
4, 102320, Note_on_c, 9, 62, 127
4, 102320, Note_on_c, 9, 42, 127
4, 102416, Note_on_c, 9, 42, 0
4, 102416, Note_on_c, 9, 62, 0
4, 102512, Note_on_c, 9, 64, 127
4, 102512, Note_on_c, 9, 42, 127
4, 102512, Note_on_c, 9, 56, 127
4, 102516, Note_on_c, 9, 36, 127
4, 102608, Note_on_c, 9, 36, 0
4, 102608, Note_on_c, 9, 56, 0
4, 102608, Note_on_c, 9, 64, 0
4, 102612, Note_on_c, 9, 42, 0
4, 102704, Note_on_c, 9, 64, 127
4, 102704, Note_on_c, 9, 42, 127
4, 102704, Note_on_c, 9, 36, 127
4, 102800, Note_on_c, 9, 36, 0
4, 102800, Note_on_c, 9, 42, 0
4, 102800, Note_on_c, 9, 64, 0
4, 102896, Note_on_c, 9, 42, 127
4, 102896, Note_on_c, 9, 56, 127
4, 102992, Note_on_c, 9, 56, 0
4, 102992, Note_on_c, 9, 42, 0
4, 103088, Note_on_c, 9, 63, 98
4, 103088, Note_on_c, 9, 42, 127
4, 103184, Note_on_c, 9, 42, 0
4, 103184, Note_on_c, 9, 63, 0
4, 103184, Note_on_c, 9, 62, 122
4, 103280, Note_on_c, 9, 62, 0
4, 103280, Note_on_c, 9, 62, 125
4, 103284, Note_on_c, 9, 42, 127
4, 103284, Note_on_c, 9, 56, 127
4, 103288, Note_on_c, 9, 36, 127
4, 103376, Note_on_c, 9, 36, 0
4, 103376, Note_on_c, 9, 62, 0
4, 103380, Note_on_c, 9, 56, 0
4, 103380, Note_on_c, 9, 42, 0
4, 103472, Note_on_c, 9, 42, 127
4, 103472, Note_on_c, 9, 36, 127
4, 103472, Note_on_c, 9, 62, 127
4, 103568, Note_on_c, 9, 62, 0
4, 103568, Note_on_c, 9, 36, 0
4, 103568, Note_on_c, 9, 42, 0
4, 103664, Note_on_c, 9, 62, 118
4, 103668, Note_on_c, 9, 42, 127
4, 103668, Note_on_c, 9, 56, 127
4, 103760, Note_on_c, 9, 56, 0
4, 103760, Note_on_c, 9, 42, 0
4, 103760, Note_on_c, 9, 62, 0
4, 103856, Note_on_c, 9, 62, 127
4, 103856, Note_on_c, 9, 42, 127
4, 103952, Note_on_c, 9, 42, 0
4, 103952, Note_on_c, 9, 62, 0
4, 104048, Note_on_c, 9, 56, 127
4, 104048, Note_on_c, 9, 64, 127
4, 104056, Note_on_c, 9, 36, 127
4, 104056, Note_on_c, 9, 42, 127
4, 104144, Note_on_c, 9, 42, 0
4, 104144, Note_on_c, 9, 56, 0
4, 104144, Note_on_c, 9, 64, 0
4, 104144, Note_on_c, 9, 36, 0
4, 104240, Note_on_c, 9, 46, 127
4, 104240, Note_on_c, 9, 64, 127
4, 104240, Note_on_c, 9, 36, 127
4, 104336, Note_on_c, 9, 36, 0
4, 104336, Note_on_c, 9, 64, 0
4, 104432, Note_on_c, 9, 46, 0
4, 104432, Note_on_c, 9, 56, 127
4, 104436, Note_on_c, 9, 42, 127
4, 104528, Note_on_c, 9, 42, 0
4, 104528, Note_on_c, 9, 56, 0
4, 104624, Note_on_c, 9, 42, 111
4, 104720, Note_on_c, 9, 42, 0
4, 104720, Note_on_c, 9, 63, 101
4, 104720, Note_on_c, 9, 62, 125
4, 104816, Note_on_c, 9, 62, 0
4, 104816, Note_on_c, 9, 63, 0
4, 104816, Note_on_c, 9, 56, 127
4, 104816, Note_on_c, 9, 62, 111
4, 104820, Note_on_c, 9, 36, 127
4, 104820, Note_on_c, 9, 42, 118
4, 104912, Note_on_c, 9, 42, 0
4, 104912, Note_on_c, 9, 56, 0
4, 104912, Note_on_c, 9, 62, 0
4, 104916, Note_on_c, 9, 36, 0
4, 105008, Note_on_c, 9, 36, 127
4, 105008, Note_on_c, 9, 62, 127
4, 105008, Note_on_c, 9, 42, 125
4, 105104, Note_on_c, 9, 42, 0
4, 105104, Note_on_c, 9, 62, 0
4, 105104, Note_on_c, 9, 36, 0
4, 105204, Note_on_c, 9, 56, 127
4, 105204, Note_on_c, 9, 42, 127
4, 105296, Note_on_c, 9, 42, 0
4, 105296, Note_on_c, 9, 56, 0
4, 105392, Note_on_c, 9, 62, 127
4, 105392, Note_on_c, 9, 42, 118
4, 105488, Note_on_c, 9, 42, 0
4, 105488, Note_on_c, 9, 62, 0
4, 105584, Note_on_c, 9, 64, 127
4, 105584, Note_on_c, 9, 64, 127
4, 105588, Note_on_c, 9, 56, 127
4, 105588, Note_on_c, 9, 42, 127
4, 105588, Note_on_c, 9, 36, 127
4, 105680, Note_on_c, 9, 36, 0
4, 105680, Note_on_c, 9, 64, 0
4, 105680, Note_on_c, 9, 56, 0
4, 105680, Note_on_c, 9, 64, 0
4, 105684, Note_on_c, 9, 42, 0
4, 105776, Note_on_c, 9, 36, 127
4, 105776, Note_on_c, 9, 42, 127
4, 105780, Note_on_c, 9, 64, 127
4, 105872, Note_on_c, 9, 64, 0
4, 105872, Note_on_c, 9, 42, 0
4, 105872, Note_on_c, 9, 36, 0
4, 105968, Note_on_c, 9, 56, 127
4, 105968, Note_on_c, 9, 42, 127
4, 106064, Note_on_c, 9, 42, 0
4, 106064, Note_on_c, 9, 56, 0
4, 106160, Note_on_c, 9, 63, 98
4, 106160, Note_on_c, 9, 42, 127
4, 106160, Note_on_c, 9, 64, 66
4, 106256, Note_on_c, 9, 64, 0
4, 106256, Note_on_c, 9, 42, 0
4, 106256, Note_on_c, 9, 63, 0
4, 106256, Note_on_c, 9, 62, 111
4, 106260, Note_on_c, 9, 62, 127
4, 106352, Note_on_c, 9, 62, 0
4, 106352, Note_on_c, 9, 62, 0
4, 106352, Note_on_c, 9, 56, 127
4, 106352, Note_on_c, 9, 42, 127
4, 106356, Note_on_c, 9, 36, 127
4, 106448, Note_on_c, 9, 36, 0
4, 106448, Note_on_c, 9, 42, 0
4, 106448, Note_on_c, 9, 56, 0
4, 106544, Note_on_c, 9, 62, 127
4, 106544, Note_on_c, 9, 36, 127
4, 106544, Note_on_c, 9, 42, 127
4, 106640, Note_on_c, 9, 42, 0
4, 106640, Note_on_c, 9, 36, 0
4, 106640, Note_on_c, 9, 62, 0
4, 106736, Note_on_c, 9, 56, 127
4, 106736, Note_on_c, 9, 62, 127
4, 106740, Note_on_c, 9, 42, 127
4, 106832, Note_on_c, 9, 42, 0
4, 106832, Note_on_c, 9, 62, 0
4, 106836, Note_on_c, 9, 56, 0
4, 106928, Note_on_c, 9, 42, 127
4, 106928, Note_on_c, 9, 62, 127
4, 107024, Note_on_c, 9, 62, 0
4, 107024, Note_on_c, 9, 42, 0
4, 107120, Note_on_c, 9, 64, 127
4, 107124, Note_on_c, 9, 56, 127
4, 107124, Note_on_c, 9, 42, 127
4, 107124, Note_on_c, 9, 36, 127
4, 107216, Note_on_c, 9, 36, 0
4, 107216, Note_on_c, 9, 64, 0
4, 107216, Note_on_c, 9, 56, 0
4, 107220, Note_on_c, 9, 42, 0
4, 107312, Note_on_c, 9, 46, 127
4, 107312, Note_on_c, 9, 64, 127
4, 107312, Note_on_c, 9, 36, 127
4, 107408, Note_on_c, 9, 36, 0
4, 107408, Note_on_c, 9, 64, 0
4, 107408, Note_on_c, 9, 46, 0
4, 107504, Note_on_c, 9, 56, 127
4, 107504, Note_on_c, 9, 42, 127
4, 107600, Note_on_c, 9, 42, 0
4, 107600, Note_on_c, 9, 56, 0
4, 107696, Note_on_c, 9, 42, 127
4, 107792, Note_on_c, 9, 42, 0
4, 107888, Note_on_c, 9, 62, 127
4, 107888, Note_on_c, 9, 42, 127
4, 107888, Note_on_c, 9, 56, 127
4, 107892, Note_on_c, 9, 36, 127
4, 107984, Note_on_c, 9, 36, 0
4, 107984, Note_on_c, 9, 62, 0
4, 107984, Note_on_c, 9, 42, 0
4, 107984, Note_on_c, 9, 56, 0
4, 108080, Note_on_c, 9, 36, 127
4, 108080, Note_on_c, 9, 62, 127
4, 108080, Note_on_c, 9, 42, 127
4, 108176, Note_on_c, 9, 42, 0
4, 108176, Note_on_c, 9, 62, 0
4, 108176, Note_on_c, 9, 36, 0
4, 108272, Note_on_c, 9, 56, 127
4, 108276, Note_on_c, 9, 42, 127
4, 108368, Note_on_c, 9, 42, 0
4, 108368, Note_on_c, 9, 56, 0
4, 108464, Note_on_c, 9, 62, 127
4, 108464, Note_on_c, 9, 42, 127
4, 108560, Note_on_c, 9, 42, 0
4, 108560, Note_on_c, 9, 62, 0
4, 108656, Note_on_c, 9, 56, 127
4, 108656, Note_on_c, 9, 64, 127
4, 108660, Note_on_c, 9, 42, 127
4, 108660, Note_on_c, 9, 36, 127
4, 108752, Note_on_c, 9, 36, 0
4, 108752, Note_on_c, 9, 56, 0
4, 108752, Note_on_c, 9, 64, 0
4, 108756, Note_on_c, 9, 42, 0
4, 108848, Note_on_c, 9, 42, 127
4, 108848, Note_on_c, 9, 36, 127
4, 108848, Note_on_c, 9, 64, 127
4, 108944, Note_on_c, 9, 64, 0
4, 108944, Note_on_c, 9, 36, 0
4, 108944, Note_on_c, 9, 42, 0
4, 109040, Note_on_c, 9, 36, 127
4, 109040, Note_on_c, 9, 56, 127
4, 109044, Note_on_c, 9, 65, 127
4, 109044, Note_on_c, 9, 42, 127
4, 109136, Note_on_c, 9, 65, 0
4, 109136, Note_on_c, 9, 36, 0
4, 109136, Note_on_c, 9, 56, 0
4, 109140, Note_on_c, 9, 42, 0
4, 109140, Note_on_c, 9, 65, 127
4, 109232, Note_on_c, 9, 65, 0
4, 109328, Note_on_c, 9, 65, 127
4, 109328, Note_on_c, 9, 36, 127
4, 109424, Note_on_c, 9, 36, 0
4, 109424, Note_on_c, 9, 65, 0
4, 109424, Note_on_c, 9, 65, 127
4, 109424, Note_on_c, 9, 54, 127
4, 109520, Note_on_c, 9, 54, 0
4, 109520, Note_on_c, 9, 65, 0
4, 109616, Note_on_c, 9, 36, 127
4, 109616, Note_on_c, 9, 43, 127
4, 109616, Note_on_c, 9, 55, 127
4, 109616, Note_on_c, 9, 36, 127
4, 109624, Note_on_c, 9, 65, 127
4, 109712, Note_on_c, 9, 65, 0
4, 109712, Note_on_c, 9, 36, 0
4, 109712, Note_on_c, 9, 55, 0
4, 109712, Note_on_c, 9, 43, 0
4, 109716, Note_on_c, 9, 36, 0
4, 109808, Note_on_c, 9, 62, 118
4, 109808, Note_on_c, 9, 56, 127
4, 109816, Note_on_c, 9, 42, 127
4, 109904, Note_on_c, 9, 42, 0
4, 109904, Note_on_c, 9, 56, 0
4, 109904, Note_on_c, 9, 62, 0
4, 110000, Note_on_c, 9, 62, 127
4, 110000, Note_on_c, 9, 66, 105
4, 110000, Note_on_c, 9, 42, 127
4, 110096, Note_on_c, 9, 42, 0
4, 110096, Note_on_c, 9, 66, 0
4, 110096, Note_on_c, 9, 62, 0
4, 110096, Note_on_c, 9, 65, 127
4, 110100, Note_on_c, 9, 65, 127
4, 110192, Note_on_c, 9, 65, 0
4, 110192, Note_on_c, 9, 65, 0
4, 110192, Note_on_c, 9, 64, 127
4, 110196, Note_on_c, 9, 42, 127
4, 110196, Note_on_c, 9, 56, 127
4, 110200, Note_on_c, 9, 36, 127
4, 110288, Note_on_c, 9, 36, 0
4, 110288, Note_on_c, 9, 64, 0
4, 110292, Note_on_c, 9, 56, 0
4, 110292, Note_on_c, 9, 42, 0
4, 110384, Note_on_c, 9, 64, 127
4, 110384, Note_on_c, 9, 46, 127
4, 110480, Note_on_c, 9, 64, 0
4, 110576, Note_on_c, 9, 46, 0
4, 110576, Note_on_c, 9, 56, 127
4, 110580, Note_on_c, 9, 42, 127
4, 110672, Note_on_c, 9, 42, 0
4, 110672, Note_on_c, 9, 56, 0
4, 110768, Note_on_c, 9, 42, 111
4, 110864, Note_on_c, 9, 42, 0
4, 110864, Note_on_c, 9, 63, 101
4, 110864, Note_on_c, 9, 62, 125
4, 110960, Note_on_c, 9, 62, 0
4, 110960, Note_on_c, 9, 63, 0
4, 110960, Note_on_c, 9, 62, 111
4, 110964, Note_on_c, 9, 56, 127
4, 110964, Note_on_c, 9, 42, 118
4, 110964, Note_on_c, 9, 36, 127
4, 111056, Note_on_c, 9, 36, 0
4, 111056, Note_on_c, 9, 62, 0
4, 111056, Note_on_c, 9, 56, 0
4, 111060, Note_on_c, 9, 42, 0
4, 111152, Note_on_c, 9, 42, 125
4, 111152, Note_on_c, 9, 36, 127
4, 111156, Note_on_c, 9, 62, 127
4, 111248, Note_on_c, 9, 62, 0
4, 111248, Note_on_c, 9, 36, 0
4, 111248, Note_on_c, 9, 42, 0
4, 111344, Note_on_c, 9, 56, 127
4, 111348, Note_on_c, 9, 42, 127
4, 111440, Note_on_c, 9, 42, 0
4, 111440, Note_on_c, 9, 56, 0
4, 111536, Note_on_c, 9, 42, 118
4, 111536, Note_on_c, 9, 62, 127
4, 111632, Note_on_c, 9, 62, 0
4, 111632, Note_on_c, 9, 42, 0
4, 111728, Note_on_c, 9, 64, 127
4, 111728, Note_on_c, 9, 64, 127
4, 111732, Note_on_c, 9, 56, 127
4, 111732, Note_on_c, 9, 42, 127
4, 111732, Note_on_c, 9, 36, 127
4, 111824, Note_on_c, 9, 36, 0
4, 111824, Note_on_c, 9, 64, 0
4, 111824, Note_on_c, 9, 56, 0
4, 111824, Note_on_c, 9, 64, 0
4, 111828, Note_on_c, 9, 42, 0
4, 111920, Note_on_c, 9, 42, 127
4, 111920, Note_on_c, 9, 36, 127
4, 111924, Note_on_c, 9, 64, 127
4, 112016, Note_on_c, 9, 64, 0
4, 112016, Note_on_c, 9, 36, 0
4, 112016, Note_on_c, 9, 42, 0
4, 112112, Note_on_c, 9, 42, 127
4, 112112, Note_on_c, 9, 56, 127
4, 112208, Note_on_c, 9, 56, 0
4, 112208, Note_on_c, 9, 42, 0
4, 112304, Note_on_c, 9, 63, 98
4, 112304, Note_on_c, 9, 42, 127
4, 112304, Note_on_c, 9, 64, 66
4, 112400, Note_on_c, 9, 64, 0
4, 112400, Note_on_c, 9, 42, 0
4, 112400, Note_on_c, 9, 63, 0
4, 112400, Note_on_c, 9, 62, 111
4, 112404, Note_on_c, 9, 62, 127
4, 112496, Note_on_c, 9, 62, 0
4, 112496, Note_on_c, 9, 62, 0
4, 112500, Note_on_c, 9, 56, 127
4, 112500, Note_on_c, 9, 42, 127
4, 112500, Note_on_c, 9, 36, 127
4, 112592, Note_on_c, 9, 36, 0
4, 112592, Note_on_c, 9, 42, 0
4, 112592, Note_on_c, 9, 56, 0
4, 112688, Note_on_c, 9, 36, 127
4, 112688, Note_on_c, 9, 42, 127
4, 112688, Note_on_c, 9, 62, 127
4, 112784, Note_on_c, 9, 62, 0
4, 112784, Note_on_c, 9, 42, 0
4, 112784, Note_on_c, 9, 36, 0
4, 112880, Note_on_c, 9, 62, 127
4, 112884, Note_on_c, 9, 56, 127
4, 112884, Note_on_c, 9, 42, 127
4, 112976, Note_on_c, 9, 42, 0
4, 112976, Note_on_c, 9, 56, 0
4, 112976, Note_on_c, 9, 62, 0
4, 113072, Note_on_c, 9, 42, 127
4, 113072, Note_on_c, 9, 62, 127
4, 113168, Note_on_c, 9, 62, 0
4, 113168, Note_on_c, 9, 42, 0
4, 113264, Note_on_c, 9, 42, 127
4, 113264, Note_on_c, 9, 64, 127
4, 113264, Note_on_c, 9, 56, 127
4, 113272, Note_on_c, 9, 36, 127
4, 113360, Note_on_c, 9, 36, 0
4, 113360, Note_on_c, 9, 56, 0
4, 113360, Note_on_c, 9, 64, 0
4, 113364, Note_on_c, 9, 42, 0
4, 113456, Note_on_c, 9, 64, 127
4, 113456, Note_on_c, 9, 36, 127
4, 113456, Note_on_c, 9, 46, 127
4, 113552, Note_on_c, 9, 46, 0
4, 113552, Note_on_c, 9, 36, 0
4, 113552, Note_on_c, 9, 64, 0
4, 113648, Note_on_c, 9, 56, 127
4, 113648, Note_on_c, 9, 42, 127
4, 113744, Note_on_c, 9, 42, 0
4, 113744, Note_on_c, 9, 56, 0
4, 113840, Note_on_c, 9, 42, 127
4, 113936, Note_on_c, 9, 42, 0
4, 114032, Note_on_c, 9, 62, 127
4, 114032, Note_on_c, 9, 56, 127
4, 114032, Note_on_c, 9, 42, 127
4, 114036, Note_on_c, 9, 36, 127
4, 114128, Note_on_c, 9, 36, 0
4, 114128, Note_on_c, 9, 62, 0
4, 114128, Note_on_c, 9, 56, 0
4, 114132, Note_on_c, 9, 42, 0
4, 114224, Note_on_c, 9, 36, 127
4, 114224, Note_on_c, 9, 42, 127
4, 114224, Note_on_c, 9, 62, 127
4, 114320, Note_on_c, 9, 62, 0
4, 114320, Note_on_c, 9, 42, 0
4, 114320, Note_on_c, 9, 36, 0
4, 114420, Note_on_c, 9, 56, 127
4, 114420, Note_on_c, 9, 42, 127
4, 114512, Note_on_c, 9, 42, 0
4, 114512, Note_on_c, 9, 56, 0
4, 114608, Note_on_c, 9, 42, 127
4, 114608, Note_on_c, 9, 62, 127
4, 114704, Note_on_c, 9, 62, 0
4, 114704, Note_on_c, 9, 42, 0
4, 114800, Note_on_c, 9, 64, 127
4, 114804, Note_on_c, 9, 56, 127
4, 114804, Note_on_c, 9, 36, 127
4, 114804, Note_on_c, 9, 42, 127
4, 114896, Note_on_c, 9, 36, 0
4, 114896, Note_on_c, 9, 64, 0
4, 114896, Note_on_c, 9, 56, 0
4, 114900, Note_on_c, 9, 42, 0
4, 114992, Note_on_c, 9, 36, 127
4, 114992, Note_on_c, 9, 42, 127
4, 114992, Note_on_c, 9, 64, 127
4, 115088, Note_on_c, 9, 64, 0
4, 115088, Note_on_c, 9, 42, 0
4, 115088, Note_on_c, 9, 36, 0
4, 115184, Note_on_c, 9, 56, 127
4, 115184, Note_on_c, 9, 42, 127
4, 115280, Note_on_c, 9, 42, 0
4, 115280, Note_on_c, 9, 56, 0
4, 115376, Note_on_c, 9, 42, 127
4, 115376, Note_on_c, 9, 63, 98
4, 115472, Note_on_c, 9, 63, 0
4, 115472, Note_on_c, 9, 42, 0
4, 115472, Note_on_c, 9, 62, 122
4, 115568, Note_on_c, 9, 62, 0
4, 115568, Note_on_c, 9, 62, 125
4, 115572, Note_on_c, 9, 42, 127
4, 115572, Note_on_c, 9, 56, 127
4, 115572, Note_on_c, 9, 36, 127
4, 115664, Note_on_c, 9, 36, 0
4, 115664, Note_on_c, 9, 62, 0
4, 115668, Note_on_c, 9, 56, 0
4, 115668, Note_on_c, 9, 42, 0
4, 115760, Note_on_c, 9, 62, 127
4, 115760, Note_on_c, 9, 42, 127
4, 115764, Note_on_c, 9, 36, 127
4, 115856, Note_on_c, 9, 36, 0
4, 115856, Note_on_c, 9, 42, 0
4, 115856, Note_on_c, 9, 62, 0
4, 115952, Note_on_c, 9, 62, 118
4, 115956, Note_on_c, 9, 56, 127
4, 115956, Note_on_c, 9, 42, 127
4, 116048, Note_on_c, 9, 42, 0
4, 116048, Note_on_c, 9, 56, 0
4, 116048, Note_on_c, 9, 62, 0
4, 116144, Note_on_c, 9, 42, 127
4, 116144, Note_on_c, 9, 62, 127
4, 116240, Note_on_c, 9, 62, 0
4, 116240, Note_on_c, 9, 42, 0
4, 116336, Note_on_c, 9, 56, 127
4, 116336, Note_on_c, 9, 64, 127
4, 116340, Note_on_c, 9, 42, 127
4, 116340, Note_on_c, 9, 36, 127
4, 116432, Note_on_c, 9, 36, 0
4, 116432, Note_on_c, 9, 56, 0
4, 116432, Note_on_c, 9, 64, 0
4, 116436, Note_on_c, 9, 42, 0
4, 116528, Note_on_c, 9, 46, 127
4, 116528, Note_on_c, 9, 64, 127
4, 116532, Note_on_c, 9, 36, 127
4, 116624, Note_on_c, 9, 36, 0
4, 116624, Note_on_c, 9, 64, 0
4, 116720, Note_on_c, 9, 46, 0
4, 116720, Note_on_c, 9, 56, 127
4, 116720, Note_on_c, 9, 42, 127
4, 116816, Note_on_c, 9, 42, 0
4, 116816, Note_on_c, 9, 56, 0
4, 116912, Note_on_c, 9, 42, 111
4, 117008, Note_on_c, 9, 42, 0
4, 117008, Note_on_c, 9, 63, 101
4, 117008, Note_on_c, 9, 62, 125
4, 117104, Note_on_c, 9, 62, 0
4, 117104, Note_on_c, 9, 63, 0
4, 117104, Note_on_c, 9, 62, 111
4, 117108, Note_on_c, 9, 56, 127
4, 117108, Note_on_c, 9, 42, 118
4, 117108, Note_on_c, 9, 36, 127
4, 117200, Note_on_c, 9, 36, 0
4, 117200, Note_on_c, 9, 62, 0
4, 117200, Note_on_c, 9, 56, 0
4, 117200, Note_on_c, 9, 42, 0
4, 117296, Note_on_c, 9, 36, 127
4, 117296, Note_on_c, 9, 62, 127
4, 117296, Note_on_c, 9, 42, 125
4, 117392, Note_on_c, 9, 42, 0
4, 117392, Note_on_c, 9, 62, 0
4, 117392, Note_on_c, 9, 36, 0
4, 117488, Note_on_c, 9, 42, 127
4, 117488, Note_on_c, 9, 56, 127
4, 117584, Note_on_c, 9, 56, 0
4, 117584, Note_on_c, 9, 42, 0
4, 117680, Note_on_c, 9, 62, 127
4, 117680, Note_on_c, 9, 42, 118
4, 117776, Note_on_c, 9, 42, 0
4, 117776, Note_on_c, 9, 62, 0
4, 117872, Note_on_c, 9, 64, 127
4, 117872, Note_on_c, 9, 64, 127
4, 117876, Note_on_c, 9, 42, 127
4, 117876, Note_on_c, 9, 36, 127
4, 117876, Note_on_c, 9, 56, 127
4, 117968, Note_on_c, 9, 56, 0
4, 117968, Note_on_c, 9, 64, 0
4, 117972, Note_on_c, 9, 64, 0
4, 117972, Note_on_c, 9, 42, 0
4, 117972, Note_on_c, 9, 36, 0
4, 118064, Note_on_c, 9, 64, 127
4, 118064, Note_on_c, 9, 42, 127
4, 118064, Note_on_c, 9, 36, 127
4, 118160, Note_on_c, 9, 36, 0
4, 118160, Note_on_c, 9, 42, 0
4, 118160, Note_on_c, 9, 64, 0
4, 118256, Note_on_c, 9, 56, 127
4, 118260, Note_on_c, 9, 42, 127
4, 118352, Note_on_c, 9, 42, 0
4, 118352, Note_on_c, 9, 56, 0
4, 118448, Note_on_c, 9, 63, 98
4, 118448, Note_on_c, 9, 64, 66
4, 118448, Note_on_c, 9, 42, 127
4, 118544, Note_on_c, 9, 42, 0
4, 118544, Note_on_c, 9, 64, 0
4, 118544, Note_on_c, 9, 63, 0
4, 118544, Note_on_c, 9, 62, 111
4, 118544, Note_on_c, 9, 62, 127
4, 118640, Note_on_c, 9, 62, 0
4, 118640, Note_on_c, 9, 62, 0
4, 118640, Note_on_c, 9, 56, 127
4, 118640, Note_on_c, 9, 42, 127
4, 118644, Note_on_c, 9, 36, 127
4, 118736, Note_on_c, 9, 36, 0
4, 118736, Note_on_c, 9, 42, 0
4, 118736, Note_on_c, 9, 56, 0
4, 118832, Note_on_c, 9, 36, 127
4, 118832, Note_on_c, 9, 42, 127
4, 118832, Note_on_c, 9, 62, 127
4, 118928, Note_on_c, 9, 62, 0
4, 118928, Note_on_c, 9, 42, 0
4, 118928, Note_on_c, 9, 36, 0
4, 119024, Note_on_c, 9, 62, 127
4, 119024, Note_on_c, 9, 56, 127
4, 119028, Note_on_c, 9, 42, 127
4, 119120, Note_on_c, 9, 42, 0
4, 119120, Note_on_c, 9, 62, 0
4, 119124, Note_on_c, 9, 56, 0
4, 119216, Note_on_c, 9, 42, 127
4, 119216, Note_on_c, 9, 62, 127
4, 119312, Note_on_c, 9, 62, 0
4, 119312, Note_on_c, 9, 42, 0
4, 119408, Note_on_c, 9, 64, 127
4, 119408, Note_on_c, 9, 56, 127
4, 119412, Note_on_c, 9, 36, 127
4, 119412, Note_on_c, 9, 42, 127
4, 119504, Note_on_c, 9, 36, 0
4, 119504, Note_on_c, 9, 64, 0
4, 119504, Note_on_c, 9, 56, 0
4, 119508, Note_on_c, 9, 42, 0
4, 119600, Note_on_c, 9, 36, 127
4, 119600, Note_on_c, 9, 46, 127
4, 119600, Note_on_c, 9, 64, 127
4, 119696, Note_on_c, 9, 64, 0
4, 119696, Note_on_c, 9, 46, 0
4, 119696, Note_on_c, 9, 36, 0
4, 119792, Note_on_c, 9, 56, 127
4, 119792, Note_on_c, 9, 42, 127
4, 119888, Note_on_c, 9, 42, 0
4, 119888, Note_on_c, 9, 56, 0
4, 119984, Note_on_c, 9, 42, 127
4, 120080, Note_on_c, 9, 42, 0
4, 120176, Note_on_c, 9, 62, 127
4, 120176, Note_on_c, 9, 56, 127
4, 120176, Note_on_c, 9, 42, 127
4, 120180, Note_on_c, 9, 36, 127
4, 120272, Note_on_c, 9, 36, 0
4, 120272, Note_on_c, 9, 62, 0
4, 120272, Note_on_c, 9, 56, 0
4, 120276, Note_on_c, 9, 42, 0
4, 120368, Note_on_c, 9, 42, 127
4, 120368, Note_on_c, 9, 36, 127
4, 120368, Note_on_c, 9, 62, 127
4, 120464, Note_on_c, 9, 62, 0
4, 120464, Note_on_c, 9, 36, 0
4, 120464, Note_on_c, 9, 42, 0
4, 120564, Note_on_c, 9, 56, 127
4, 120564, Note_on_c, 9, 42, 127
4, 120656, Note_on_c, 9, 42, 0
4, 120656, Note_on_c, 9, 56, 0
4, 120752, Note_on_c, 9, 62, 127
4, 120752, Note_on_c, 9, 42, 127
4, 120848, Note_on_c, 9, 42, 0
4, 120848, Note_on_c, 9, 62, 0
4, 120944, Note_on_c, 9, 64, 127
4, 120944, Note_on_c, 9, 56, 127
4, 120948, Note_on_c, 9, 36, 127
4, 120948, Note_on_c, 9, 42, 127
4, 121040, Note_on_c, 9, 36, 0
4, 121040, Note_on_c, 9, 64, 0
4, 121040, Note_on_c, 9, 56, 0
4, 121044, Note_on_c, 9, 42, 0
4, 121136, Note_on_c, 9, 36, 127
4, 121136, Note_on_c, 9, 42, 127
4, 121136, Note_on_c, 9, 64, 127
4, 121232, Note_on_c, 9, 64, 0
4, 121232, Note_on_c, 9, 42, 0
4, 121232, Note_on_c, 9, 36, 0
4, 121328, Note_on_c, 9, 56, 127
4, 121328, Note_on_c, 9, 42, 127
4, 121424, Note_on_c, 9, 42, 0
4, 121424, Note_on_c, 9, 56, 0
4, 121520, Note_on_c, 9, 63, 98
4, 121520, Note_on_c, 9, 42, 127
4, 121616, Note_on_c, 9, 42, 0
4, 121616, Note_on_c, 9, 63, 0
4, 121616, Note_on_c, 9, 62, 122
4, 121712, Note_on_c, 9, 62, 0
4, 121712, Note_on_c, 9, 62, 125
4, 121712, Note_on_c, 9, 42, 127
4, 121712, Note_on_c, 9, 56, 127
4, 121716, Note_on_c, 9, 36, 127
4, 121808, Note_on_c, 9, 36, 0
4, 121808, Note_on_c, 9, 62, 0
4, 121808, Note_on_c, 9, 42, 0
4, 121808, Note_on_c, 9, 56, 0
4, 121904, Note_on_c, 9, 62, 127
4, 121904, Note_on_c, 9, 42, 127
4, 122000, Note_on_c, 9, 42, 0
4, 122000, Note_on_c, 9, 62, 0
4, 122096, Note_on_c, 9, 42, 127
4, 122096, Note_on_c, 9, 56, 127
4, 122096, Note_on_c, 9, 62, 118
4, 122192, Note_on_c, 9, 62, 0
4, 122192, Note_on_c, 9, 56, 0
4, 122192, Note_on_c, 9, 42, 0
4, 122288, Note_on_c, 9, 62, 127
4, 122288, Note_on_c, 9, 36, 127
4, 122288, Note_on_c, 9, 42, 127
4, 122384, Note_on_c, 9, 42, 0
4, 122384, Note_on_c, 9, 36, 0
4, 122384, Note_on_c, 9, 62, 0
4, 122480, Note_on_c, 9, 64, 127
4, 122484, Note_on_c, 9, 56, 127
4, 122484, Note_on_c, 9, 42, 127
4, 122484, Note_on_c, 9, 36, 127
4, 122576, Note_on_c, 9, 36, 0
4, 122576, Note_on_c, 9, 64, 0
4, 122580, Note_on_c, 9, 42, 0
4, 122580, Note_on_c, 9, 56, 0
4, 122672, Note_on_c, 9, 64, 127
4, 122672, Note_on_c, 9, 46, 127
4, 122768, Note_on_c, 9, 64, 0
4, 122864, Note_on_c, 9, 46, 0
4, 122864, Note_on_c, 9, 56, 127
4, 122868, Note_on_c, 9, 42, 127
4, 122960, Note_on_c, 9, 42, 0
4, 122960, Note_on_c, 9, 56, 0
4, 123056, Note_on_c, 9, 42, 111
4, 123152, Note_on_c, 9, 42, 0
4, 123152, Note_on_c, 9, 62, 125
4, 123152, Note_on_c, 9, 63, 101
4, 123248, Note_on_c, 9, 63, 0
4, 123248, Note_on_c, 9, 62, 0
4, 123248, Note_on_c, 9, 62, 111
4, 123252, Note_on_c, 9, 36, 127
4, 123252, Note_on_c, 9, 42, 118
4, 123252, Note_on_c, 9, 56, 127
4, 123344, Note_on_c, 9, 56, 0
4, 123344, Note_on_c, 9, 62, 0
4, 123344, Note_on_c, 9, 36, 0
4, 123348, Note_on_c, 9, 42, 0
4, 123440, Note_on_c, 9, 62, 127
4, 123440, Note_on_c, 9, 42, 125
4, 123440, Note_on_c, 9, 36, 127
4, 123536, Note_on_c, 9, 36, 0
4, 123536, Note_on_c, 9, 42, 0
4, 123536, Note_on_c, 9, 62, 0
4, 123632, Note_on_c, 9, 56, 127
4, 123636, Note_on_c, 9, 42, 127
4, 123728, Note_on_c, 9, 42, 0
4, 123728, Note_on_c, 9, 56, 0
4, 123824, Note_on_c, 9, 42, 118
4, 123824, Note_on_c, 9, 62, 127
4, 123920, Note_on_c, 9, 62, 0
4, 123920, Note_on_c, 9, 42, 0
4, 124016, Note_on_c, 9, 64, 127
4, 124020, Note_on_c, 9, 42, 127
4, 124020, Note_on_c, 9, 56, 127
4, 124020, Note_on_c, 9, 64, 127
4, 124020, Note_on_c, 9, 36, 127
4, 124112, Note_on_c, 9, 36, 0
4, 124112, Note_on_c, 9, 56, 0
4, 124112, Note_on_c, 9, 64, 0
4, 124116, Note_on_c, 9, 42, 0
4, 124116, Note_on_c, 9, 64, 0
4, 124208, Note_on_c, 9, 36, 127
4, 124208, Note_on_c, 9, 42, 127
4, 124208, Note_on_c, 9, 64, 127
4, 124304, Note_on_c, 9, 64, 0
4, 124304, Note_on_c, 9, 42, 0
4, 124304, Note_on_c, 9, 36, 0
4, 124400, Note_on_c, 9, 56, 127
4, 124400, Note_on_c, 9, 42, 127
4, 124496, Note_on_c, 9, 42, 0
4, 124496, Note_on_c, 9, 56, 0
4, 124592, Note_on_c, 9, 42, 127
4, 124592, Note_on_c, 9, 64, 66
4, 124592, Note_on_c, 9, 63, 98
4, 124688, Note_on_c, 9, 63, 0
4, 124688, Note_on_c, 9, 64, 0
4, 124688, Note_on_c, 9, 42, 0
4, 124688, Note_on_c, 9, 62, 111
4, 124692, Note_on_c, 9, 62, 127
4, 124784, Note_on_c, 9, 62, 0
4, 124784, Note_on_c, 9, 62, 0
4, 124784, Note_on_c, 9, 56, 127
4, 124784, Note_on_c, 9, 42, 127
4, 124788, Note_on_c, 9, 36, 127
4, 124880, Note_on_c, 9, 36, 0
4, 124880, Note_on_c, 9, 42, 0
4, 124880, Note_on_c, 9, 56, 0
4, 124976, Note_on_c, 9, 62, 127
4, 124976, Note_on_c, 9, 36, 127
4, 124976, Note_on_c, 9, 42, 127
4, 125072, Note_on_c, 9, 42, 0
4, 125072, Note_on_c, 9, 36, 0
4, 125072, Note_on_c, 9, 62, 0
4, 125168, Note_on_c, 9, 62, 127
4, 125172, Note_on_c, 9, 56, 127
4, 125172, Note_on_c, 9, 42, 127
4, 125264, Note_on_c, 9, 42, 0
4, 125264, Note_on_c, 9, 56, 0
4, 125264, Note_on_c, 9, 62, 0
4, 125360, Note_on_c, 9, 42, 127
4, 125360, Note_on_c, 9, 62, 127
4, 125456, Note_on_c, 9, 62, 0
4, 125456, Note_on_c, 9, 42, 0
4, 125552, Note_on_c, 9, 64, 127
4, 125552, Note_on_c, 9, 56, 127
4, 125556, Note_on_c, 9, 42, 127
4, 125556, Note_on_c, 9, 36, 127
4, 125648, Note_on_c, 9, 36, 0
4, 125648, Note_on_c, 9, 64, 0
4, 125648, Note_on_c, 9, 56, 0
4, 125648, Note_on_c, 9, 42, 0
4, 125744, Note_on_c, 9, 64, 127
4, 125744, Note_on_c, 9, 36, 127
4, 125744, Note_on_c, 9, 46, 127
4, 125840, Note_on_c, 9, 46, 0
4, 125840, Note_on_c, 9, 36, 0
4, 125840, Note_on_c, 9, 64, 0
4, 125936, Note_on_c, 9, 56, 127
4, 125936, Note_on_c, 9, 42, 127
4, 126032, Note_on_c, 9, 42, 0
4, 126032, Note_on_c, 9, 56, 0
4, 126128, Note_on_c, 9, 42, 127
4, 126224, Note_on_c, 9, 42, 0
4, 126320, Note_on_c, 9, 56, 127
4, 126320, Note_on_c, 9, 62, 127
4, 126324, Note_on_c, 9, 36, 127
4, 126324, Note_on_c, 9, 42, 127
4, 126416, Note_on_c, 9, 36, 0
4, 126416, Note_on_c, 9, 62, 0
4, 126420, Note_on_c, 9, 56, 0
4, 126420, Note_on_c, 9, 42, 0
4, 126512, Note_on_c, 9, 62, 127
4, 126512, Note_on_c, 9, 36, 127
4, 126512, Note_on_c, 9, 42, 127
4, 126608, Note_on_c, 9, 42, 0
4, 126608, Note_on_c, 9, 36, 0
4, 126608, Note_on_c, 9, 62, 0
4, 126704, Note_on_c, 9, 56, 127
4, 126708, Note_on_c, 9, 42, 127
4, 126800, Note_on_c, 9, 42, 0
4, 126800, Note_on_c, 9, 56, 0
4, 126896, Note_on_c, 9, 62, 127
4, 126896, Note_on_c, 9, 42, 127
4, 126992, Note_on_c, 9, 42, 0
4, 126992, Note_on_c, 9, 62, 0
4, 127088, Note_on_c, 9, 42, 127
4, 127088, Note_on_c, 9, 64, 127
4, 127088, Note_on_c, 9, 56, 127
4, 127096, Note_on_c, 9, 36, 127
4, 127184, Note_on_c, 9, 36, 0
4, 127184, Note_on_c, 9, 64, 0
4, 127188, Note_on_c, 9, 56, 0
4, 127188, Note_on_c, 9, 42, 0
4, 127280, Note_on_c, 9, 36, 127
4, 127280, Note_on_c, 9, 42, 127
4, 127284, Note_on_c, 9, 64, 127
4, 127376, Note_on_c, 9, 64, 0
4, 127376, Note_on_c, 9, 42, 0
4, 127376, Note_on_c, 9, 36, 0
4, 127472, Note_on_c, 9, 42, 127
4, 127472, Note_on_c, 9, 56, 127
4, 127568, Note_on_c, 9, 56, 0
4, 127568, Note_on_c, 9, 42, 0
4, 127664, Note_on_c, 9, 63, 98
4, 127664, Note_on_c, 9, 42, 127
4, 127760, Note_on_c, 9, 42, 0
4, 127760, Note_on_c, 9, 63, 0
4, 127760, Note_on_c, 9, 62, 122
4, 127856, Note_on_c, 9, 62, 0
4, 127856, Note_on_c, 9, 62, 125
4, 127856, Note_on_c, 9, 56, 127
4, 127860, Note_on_c, 9, 42, 127
4, 127860, Note_on_c, 9, 36, 127
4, 127952, Note_on_c, 9, 36, 0
4, 127952, Note_on_c, 9, 62, 0
4, 127956, Note_on_c, 9, 42, 0
4, 127956, Note_on_c, 9, 56, 0
4, 128048, Note_on_c, 9, 42, 127
4, 128048, Note_on_c, 9, 36, 127
4, 128048, Note_on_c, 9, 62, 127
4, 128144, Note_on_c, 9, 62, 0
4, 128144, Note_on_c, 9, 36, 0
4, 128144, Note_on_c, 9, 42, 0
4, 128240, Note_on_c, 9, 62, 118
4, 128244, Note_on_c, 9, 56, 127
4, 128244, Note_on_c, 9, 42, 127
4, 128336, Note_on_c, 9, 42, 0
4, 128336, Note_on_c, 9, 56, 0
4, 128336, Note_on_c, 9, 62, 0
4, 128432, Note_on_c, 9, 42, 127
4, 128432, Note_on_c, 9, 62, 127
4, 128432, Note_on_c, 9, 66, 111
4, 128528, Note_on_c, 9, 66, 0
4, 128528, Note_on_c, 9, 62, 0
4, 128528, Note_on_c, 9, 42, 0
4, 128528, Note_on_c, 9, 65, 127
4, 128532, Note_on_c, 9, 65, 127
4, 128624, Note_on_c, 9, 65, 0
4, 128624, Note_on_c, 9, 65, 0
4, 128624, Note_on_c, 9, 64, 127
4, 128628, Note_on_c, 9, 55, 127
4, 128628, Note_on_c, 9, 43, 127
4, 128632, Note_on_c, 9, 36, 127
4, 128632, Note_on_c, 9, 56, 127
4, 128632, Note_on_c, 9, 42, 127
4, 128720, Note_on_c, 9, 42, 0
4, 128720, Note_on_c, 9, 64, 0
4, 128720, Note_on_c, 9, 36, 0
4, 128724, Note_on_c, 9, 56, 0
4, 128816, Note_on_c, 9, 46, 127
4, 128816, Note_on_c, 9, 36, 127
4, 128816, Note_on_c, 9, 64, 127
4, 128912, Note_on_c, 9, 64, 0
4, 128912, Note_on_c, 9, 36, 0
4, 129008, Note_on_c, 9, 55, 0
4, 129008, Note_on_c, 9, 43, 0
4, 129008, Note_on_c, 9, 46, 0
4, 129012, Note_on_c, 9, 42, 127
4, 129012, Note_on_c, 9, 56, 127
4, 129104, Note_on_c, 9, 56, 0
4, 129104, Note_on_c, 9, 42, 0
4, 129200, Note_on_c, 9, 42, 111
4, 129296, Note_on_c, 9, 42, 0
4, 129296, Note_on_c, 9, 62, 125
4, 129296, Note_on_c, 9, 63, 101
4, 129392, Note_on_c, 9, 63, 0
4, 129392, Note_on_c, 9, 62, 0
4, 129392, Note_on_c, 9, 62, 111
4, 129396, Note_on_c, 9, 36, 127
4, 129396, Note_on_c, 9, 56, 127
4, 129396, Note_on_c, 9, 42, 118
4, 129488, Note_on_c, 9, 36, 0
4, 129488, Note_on_c, 9, 62, 0
4, 129492, Note_on_c, 9, 56, 0
4, 129492, Note_on_c, 9, 42, 0
4, 129584, Note_on_c, 9, 36, 127
4, 129584, Note_on_c, 9, 62, 127
4, 129584, Note_on_c, 9, 42, 125
4, 129680, Note_on_c, 9, 42, 0
4, 129680, Note_on_c, 9, 62, 0
4, 129680, Note_on_c, 9, 36, 0
4, 129776, Note_on_c, 9, 56, 127
4, 129780, Note_on_c, 9, 42, 127
4, 129872, Note_on_c, 9, 42, 0
4, 129872, Note_on_c, 9, 56, 0
4, 129968, Note_on_c, 9, 42, 118
4, 129968, Note_on_c, 9, 62, 127
4, 130064, Note_on_c, 9, 62, 0
4, 130064, Note_on_c, 9, 42, 0
4, 130160, Note_on_c, 9, 64, 127
4, 130160, Note_on_c, 9, 64, 127
4, 130168, Note_on_c, 9, 42, 127
4, 130168, Note_on_c, 9, 36, 127
4, 130168, Note_on_c, 9, 56, 127
4, 130256, Note_on_c, 9, 56, 0
4, 130256, Note_on_c, 9, 64, 0
4, 130256, Note_on_c, 9, 36, 0
4, 130260, Note_on_c, 9, 42, 0
4, 130260, Note_on_c, 9, 64, 0
4, 130352, Note_on_c, 9, 42, 127
4, 130352, Note_on_c, 9, 64, 127
4, 130352, Note_on_c, 9, 36, 127
4, 130448, Note_on_c, 9, 36, 0
4, 130448, Note_on_c, 9, 64, 0
4, 130448, Note_on_c, 9, 42, 0
4, 130544, Note_on_c, 9, 56, 127
4, 130548, Note_on_c, 9, 42, 127
4, 130640, Note_on_c, 9, 42, 0
4, 130640, Note_on_c, 9, 56, 0
4, 130736, Note_on_c, 9, 42, 127
4, 130736, Note_on_c, 9, 64, 66
4, 130736, Note_on_c, 9, 63, 98
4, 130832, Note_on_c, 9, 63, 0
4, 130832, Note_on_c, 9, 64, 0
4, 130832, Note_on_c, 9, 42, 0
4, 130832, Note_on_c, 9, 62, 111
4, 130836, Note_on_c, 9, 62, 127
4, 130928, Note_on_c, 9, 62, 0
4, 130928, Note_on_c, 9, 62, 0
4, 130928, Note_on_c, 9, 56, 127
4, 130932, Note_on_c, 9, 42, 127
4, 130932, Note_on_c, 9, 36, 127
4, 131024, Note_on_c, 9, 36, 0
4, 131024, Note_on_c, 9, 42, 0
4, 131024, Note_on_c, 9, 56, 0
4, 131120, Note_on_c, 9, 62, 127
4, 131120, Note_on_c, 9, 42, 127
4, 131120, Note_on_c, 9, 36, 127
4, 131216, Note_on_c, 9, 36, 0
4, 131216, Note_on_c, 9, 42, 0
4, 131216, Note_on_c, 9, 62, 0
4, 131312, Note_on_c, 9, 62, 127
4, 131316, Note_on_c, 9, 42, 127
4, 131316, Note_on_c, 9, 56, 127
4, 131408, Note_on_c, 9, 56, 0
4, 131408, Note_on_c, 9, 42, 0
4, 131408, Note_on_c, 9, 62, 0
4, 131504, Note_on_c, 9, 42, 127
4, 131504, Note_on_c, 9, 62, 127
4, 131600, Note_on_c, 9, 62, 0
4, 131600, Note_on_c, 9, 42, 0
4, 131696, Note_on_c, 9, 64, 127
4, 131700, Note_on_c, 9, 56, 127
4, 131700, Note_on_c, 9, 36, 127
4, 131700, Note_on_c, 9, 42, 127
4, 131792, Note_on_c, 9, 36, 0
4, 131792, Note_on_c, 9, 64, 0
4, 131792, Note_on_c, 9, 56, 0
4, 131796, Note_on_c, 9, 42, 0
4, 131888, Note_on_c, 9, 36, 127
4, 131888, Note_on_c, 9, 46, 127
4, 131888, Note_on_c, 9, 64, 127
4, 131984, Note_on_c, 9, 64, 0
4, 131984, Note_on_c, 9, 46, 0
4, 131984, Note_on_c, 9, 36, 0
4, 132080, Note_on_c, 9, 56, 127
4, 132080, Note_on_c, 9, 42, 127
4, 132176, Note_on_c, 9, 42, 0
4, 132176, Note_on_c, 9, 56, 0
4, 132272, Note_on_c, 9, 42, 127
4, 132368, Note_on_c, 9, 42, 0
4, 132464, Note_on_c, 9, 62, 127
4, 132464, Note_on_c, 9, 56, 127
4, 132464, Note_on_c, 9, 42, 127
4, 132472, Note_on_c, 9, 36, 127
4, 132560, Note_on_c, 9, 36, 0
4, 132560, Note_on_c, 9, 62, 0
4, 132560, Note_on_c, 9, 56, 0
4, 132564, Note_on_c, 9, 42, 0
4, 132656, Note_on_c, 9, 62, 127
4, 132656, Note_on_c, 9, 42, 127
4, 132656, Note_on_c, 9, 36, 127
4, 132752, Note_on_c, 9, 36, 0
4, 132752, Note_on_c, 9, 42, 0
4, 132752, Note_on_c, 9, 62, 0
4, 132848, Note_on_c, 9, 56, 127
4, 132848, Note_on_c, 9, 42, 127
4, 132944, Note_on_c, 9, 42, 0
4, 132944, Note_on_c, 9, 56, 0
4, 133040, Note_on_c, 9, 42, 127
4, 133040, Note_on_c, 9, 62, 127
4, 133136, Note_on_c, 9, 62, 0
4, 133136, Note_on_c, 9, 42, 0
4, 133232, Note_on_c, 9, 56, 127
4, 133232, Note_on_c, 9, 64, 127
4, 133232, Note_on_c, 9, 42, 127
4, 133240, Note_on_c, 9, 36, 127
4, 133328, Note_on_c, 9, 36, 0
4, 133328, Note_on_c, 9, 64, 0
4, 133332, Note_on_c, 9, 42, 0
4, 133332, Note_on_c, 9, 56, 0
4, 133424, Note_on_c, 9, 36, 127
4, 133424, Note_on_c, 9, 42, 127
4, 133428, Note_on_c, 9, 64, 127
4, 133520, Note_on_c, 9, 64, 0
4, 133520, Note_on_c, 9, 42, 0
4, 133520, Note_on_c, 9, 36, 0
4, 133616, Note_on_c, 9, 42, 127
4, 133616, Note_on_c, 9, 56, 127
4, 133712, Note_on_c, 9, 56, 0
4, 133712, Note_on_c, 9, 42, 0
4, 133808, Note_on_c, 9, 63, 98
4, 133808, Note_on_c, 9, 42, 127
4, 133904, Note_on_c, 9, 42, 0
4, 133904, Note_on_c, 9, 63, 0
4, 133904, Note_on_c, 9, 62, 122
4, 134000, Note_on_c, 9, 62, 0
4, 134000, Note_on_c, 9, 62, 125
4, 134004, Note_on_c, 9, 36, 127
4, 134004, Note_on_c, 9, 42, 127
4, 134004, Note_on_c, 9, 56, 127
4, 134096, Note_on_c, 9, 36, 0
4, 134096, Note_on_c, 9, 62, 0
4, 134100, Note_on_c, 9, 42, 0
4, 134100, Note_on_c, 9, 56, 0
4, 134192, Note_on_c, 9, 62, 127
4, 134192, Note_on_c, 9, 42, 127
4, 134192, Note_on_c, 9, 36, 127
4, 134288, Note_on_c, 9, 36, 0
4, 134288, Note_on_c, 9, 42, 0
4, 134288, Note_on_c, 9, 62, 0
4, 134384, Note_on_c, 9, 62, 118
4, 134388, Note_on_c, 9, 42, 127
4, 134388, Note_on_c, 9, 56, 127
4, 134480, Note_on_c, 9, 42, 0
4, 134480, Note_on_c, 9, 62, 0
4, 134484, Note_on_c, 9, 56, 0
4, 134576, Note_on_c, 9, 62, 127
4, 134576, Note_on_c, 9, 42, 127
4, 134672, Note_on_c, 9, 42, 0
4, 134672, Note_on_c, 9, 62, 0
4, 134768, Note_on_c, 9, 64, 127
4, 134772, Note_on_c, 9, 42, 127
4, 134772, Note_on_c, 9, 56, 127
4, 134772, Note_on_c, 9, 36, 127
4, 134864, Note_on_c, 9, 36, 0
4, 134864, Note_on_c, 9, 56, 0
4, 134864, Note_on_c, 9, 64, 0
4, 134868, Note_on_c, 9, 42, 0
4, 134960, Note_on_c, 9, 46, 127
4, 134960, Note_on_c, 9, 64, 127
4, 135056, Note_on_c, 9, 64, 0
4, 135152, Note_on_c, 9, 46, 0
4, 135152, Note_on_c, 9, 75, 127
4, 135156, Note_on_c, 9, 56, 127
4, 135156, Note_on_c, 9, 42, 127
4, 135248, Note_on_c, 9, 42, 0
4, 135248, Note_on_c, 9, 56, 0
4, 135248, Note_on_c, 9, 75, 0
4, 135344, Note_on_c, 9, 42, 111
4, 135440, Note_on_c, 9, 42, 0
4, 135440, Note_on_c, 9, 62, 125
4, 135440, Note_on_c, 9, 63, 101
4, 135536, Note_on_c, 9, 63, 0
4, 135536, Note_on_c, 9, 62, 0
4, 135536, Note_on_c, 9, 62, 111
4, 135536, Note_on_c, 9, 56, 127
4, 135540, Note_on_c, 9, 42, 118
4, 135544, Note_on_c, 9, 36, 127
4, 135632, Note_on_c, 9, 36, 0
4, 135632, Note_on_c, 9, 62, 0
4, 135632, Note_on_c, 9, 56, 0
4, 135632, Note_on_c, 9, 42, 0
4, 135728, Note_on_c, 9, 62, 127
4, 135728, Note_on_c, 9, 75, 127
4, 135728, Note_on_c, 9, 42, 125
4, 135728, Note_on_c, 9, 36, 127
4, 135824, Note_on_c, 9, 36, 0
4, 135824, Note_on_c, 9, 62, 0
4, 135824, Note_on_c, 9, 75, 0
4, 135824, Note_on_c, 9, 42, 0
4, 135920, Note_on_c, 9, 56, 127
4, 135920, Note_on_c, 9, 42, 127
4, 136016, Note_on_c, 9, 42, 0
4, 136016, Note_on_c, 9, 56, 0
4, 136112, Note_on_c, 9, 62, 127
4, 136112, Note_on_c, 9, 42, 118
4, 136208, Note_on_c, 9, 42, 0
4, 136208, Note_on_c, 9, 62, 0
4, 136304, Note_on_c, 9, 64, 127
4, 136304, Note_on_c, 9, 64, 127
4, 136308, Note_on_c, 9, 42, 127
4, 136308, Note_on_c, 9, 75, 127
4, 136308, Note_on_c, 9, 56, 127
4, 136312, Note_on_c, 9, 36, 127
4, 136400, Note_on_c, 9, 36, 0
4, 136400, Note_on_c, 9, 75, 0
4, 136404, Note_on_c, 9, 42, 0
4, 136404, Note_on_c, 9, 64, 0
4, 136404, Note_on_c, 9, 64, 0
4, 136404, Note_on_c, 9, 56, 0
4, 136496, Note_on_c, 9, 42, 127
4, 136496, Note_on_c, 9, 36, 127
4, 136496, Note_on_c, 9, 64, 127
4, 136592, Note_on_c, 9, 64, 0
4, 136592, Note_on_c, 9, 36, 0
4, 136592, Note_on_c, 9, 42, 0
4, 136688, Note_on_c, 9, 56, 127
4, 136692, Note_on_c, 9, 42, 127
4, 136784, Note_on_c, 9, 42, 0
4, 136784, Note_on_c, 9, 56, 0
4, 136880, Note_on_c, 9, 64, 66
4, 136880, Note_on_c, 9, 42, 127
4, 136880, Note_on_c, 9, 63, 98
4, 136976, Note_on_c, 9, 63, 0
4, 136976, Note_on_c, 9, 42, 0
4, 136976, Note_on_c, 9, 64, 0
4, 136976, Note_on_c, 9, 62, 111
4, 136976, Note_on_c, 9, 62, 127
4, 137072, Note_on_c, 9, 62, 0
4, 137072, Note_on_c, 9, 62, 0
4, 137072, Note_on_c, 9, 75, 127
4, 137072, Note_on_c, 9, 56, 127
4, 137076, Note_on_c, 9, 42, 127
4, 137080, Note_on_c, 9, 36, 127
4, 137168, Note_on_c, 9, 36, 0
4, 137168, Note_on_c, 9, 75, 0
4, 137172, Note_on_c, 9, 42, 0
4, 137172, Note_on_c, 9, 56, 0
4, 137264, Note_on_c, 9, 42, 127
4, 137264, Note_on_c, 9, 62, 127
4, 137268, Note_on_c, 9, 36, 127
4, 137360, Note_on_c, 9, 36, 0
4, 137360, Note_on_c, 9, 62, 0
4, 137360, Note_on_c, 9, 42, 0
4, 137456, Note_on_c, 9, 62, 127
4, 137456, Note_on_c, 9, 75, 127
4, 137460, Note_on_c, 9, 42, 127
4, 137460, Note_on_c, 9, 56, 127
4, 137552, Note_on_c, 9, 56, 0
4, 137552, Note_on_c, 9, 75, 0
4, 137556, Note_on_c, 9, 42, 0
4, 137556, Note_on_c, 9, 62, 0
4, 137648, Note_on_c, 9, 62, 127
4, 137648, Note_on_c, 9, 42, 127
4, 137744, Note_on_c, 9, 42, 0
4, 137744, Note_on_c, 9, 62, 0
4, 137840, Note_on_c, 9, 56, 127
4, 137840, Note_on_c, 9, 64, 127
4, 137844, Note_on_c, 9, 36, 127
4, 137844, Note_on_c, 9, 42, 127
4, 137936, Note_on_c, 9, 36, 0
4, 137936, Note_on_c, 9, 64, 0
4, 137940, Note_on_c, 9, 56, 0
4, 137940, Note_on_c, 9, 42, 0
4, 138032, Note_on_c, 9, 36, 127
4, 138032, Note_on_c, 9, 64, 127
4, 138032, Note_on_c, 9, 46, 127
4, 138128, Note_on_c, 9, 46, 0
4, 138128, Note_on_c, 9, 64, 0
4, 138128, Note_on_c, 9, 36, 0
4, 138224, Note_on_c, 9, 56, 127
4, 138224, Note_on_c, 9, 75, 127
4, 138228, Note_on_c, 9, 42, 127
4, 138320, Note_on_c, 9, 42, 0
4, 138320, Note_on_c, 9, 75, 0
4, 138320, Note_on_c, 9, 56, 0
4, 138416, Note_on_c, 9, 42, 127
4, 138512, Note_on_c, 9, 42, 0
4, 138608, Note_on_c, 9, 56, 127
4, 138608, Note_on_c, 9, 62, 127
4, 138612, Note_on_c, 9, 42, 127
4, 138612, Note_on_c, 9, 36, 127
4, 138704, Note_on_c, 9, 36, 0
4, 138704, Note_on_c, 9, 56, 0
4, 138704, Note_on_c, 9, 62, 0
4, 138708, Note_on_c, 9, 42, 0
4, 138800, Note_on_c, 9, 75, 127
4, 138800, Note_on_c, 9, 62, 127
4, 138804, Note_on_c, 9, 36, 127
4, 138804, Note_on_c, 9, 42, 127
4, 138896, Note_on_c, 9, 42, 0
4, 138896, Note_on_c, 9, 75, 0
4, 138896, Note_on_c, 9, 62, 0
4, 138896, Note_on_c, 9, 36, 0
4, 138992, Note_on_c, 9, 56, 127
4, 138996, Note_on_c, 9, 42, 127
4, 139088, Note_on_c, 9, 42, 0
4, 139088, Note_on_c, 9, 56, 0
4, 139184, Note_on_c, 9, 62, 127
4, 139184, Note_on_c, 9, 42, 127
4, 139280, Note_on_c, 9, 42, 0
4, 139280, Note_on_c, 9, 62, 0
4, 139376, Note_on_c, 9, 64, 127
4, 139376, Note_on_c, 9, 75, 127
4, 139380, Note_on_c, 9, 56, 127
4, 139380, Note_on_c, 9, 42, 127
4, 139384, Note_on_c, 9, 36, 127
4, 139472, Note_on_c, 9, 36, 0
4, 139472, Note_on_c, 9, 56, 0
4, 139472, Note_on_c, 9, 64, 0
4, 139476, Note_on_c, 9, 75, 0
4, 139476, Note_on_c, 9, 42, 0
4, 139568, Note_on_c, 9, 36, 127
4, 139568, Note_on_c, 9, 42, 127
4, 139568, Note_on_c, 9, 64, 127
4, 139664, Note_on_c, 9, 64, 0
4, 139664, Note_on_c, 9, 42, 0
4, 139664, Note_on_c, 9, 36, 0
4, 139760, Note_on_c, 9, 56, 127
4, 139764, Note_on_c, 9, 42, 127
4, 139856, Note_on_c, 9, 42, 0
4, 139856, Note_on_c, 9, 56, 0
4, 139952, Note_on_c, 9, 63, 98
4, 139952, Note_on_c, 9, 42, 127
4, 140048, Note_on_c, 9, 42, 0
4, 140048, Note_on_c, 9, 63, 0
4, 140048, Note_on_c, 9, 62, 122
4, 140144, Note_on_c, 9, 62, 0
4, 140144, Note_on_c, 9, 62, 125
4, 140144, Note_on_c, 9, 75, 127
4, 140148, Note_on_c, 9, 56, 127
4, 140148, Note_on_c, 9, 65, 127
4, 140152, Note_on_c, 9, 36, 127
4, 140152, Note_on_c, 9, 42, 127
4, 140240, Note_on_c, 9, 42, 0
4, 140240, Note_on_c, 9, 65, 0
4, 140240, Note_on_c, 9, 36, 0
4, 140244, Note_on_c, 9, 62, 0
4, 140244, Note_on_c, 9, 56, 0
4, 140244, Note_on_c, 9, 75, 0
4, 140336, Note_on_c, 9, 42, 127
4, 140336, Note_on_c, 9, 62, 127
4, 140340, Note_on_c, 9, 36, 127
4, 140432, Note_on_c, 9, 36, 0
4, 140432, Note_on_c, 9, 62, 0
4, 140432, Note_on_c, 9, 42, 0
4, 140528, Note_on_c, 9, 75, 127
4, 140528, Note_on_c, 9, 62, 118
4, 140532, Note_on_c, 9, 65, 127
4, 140532, Note_on_c, 9, 42, 127
4, 140532, Note_on_c, 9, 56, 127
4, 140624, Note_on_c, 9, 42, 0
4, 140624, Note_on_c, 9, 75, 0
4, 140628, Note_on_c, 9, 62, 0
4, 140628, Note_on_c, 9, 65, 0
4, 140628, Note_on_c, 9, 56, 0
4, 140720, Note_on_c, 9, 42, 127
4, 140720, Note_on_c, 9, 65, 127
4, 140720, Note_on_c, 9, 62, 127
4, 140816, Note_on_c, 9, 62, 0
4, 140816, Note_on_c, 9, 65, 0
4, 140816, Note_on_c, 9, 42, 0
4, 140912, Note_on_c, 9, 64, 127
4, 140912, Note_on_c, 9, 65, 127
4, 140920, Note_on_c, 9, 56, 127
4, 140920, Note_on_c, 9, 42, 127
4, 140920, Note_on_c, 9, 36, 127
4, 141008, Note_on_c, 9, 36, 0
4, 141008, Note_on_c, 9, 64, 0
4, 141008, Note_on_c, 9, 56, 0
4, 141008, Note_on_c, 9, 65, 0
4, 141012, Note_on_c, 9, 42, 0
4, 141104, Note_on_c, 9, 64, 127
4, 141104, Note_on_c, 9, 46, 127
4, 141104, Note_on_c, 9, 36, 127
4, 141200, Note_on_c, 9, 36, 0
4, 141200, Note_on_c, 9, 64, 0
4, 141296, Note_on_c, 9, 46, 0
4, 141296, Note_on_c, 9, 75, 127
4, 141300, Note_on_c, 9, 56, 127
4, 141300, Note_on_c, 9, 42, 127
4, 141392, Note_on_c, 9, 56, 0
4, 141392, Note_on_c, 9, 75, 0
4, 141396, Note_on_c, 9, 42, 0
4, 141488, Note_on_c, 9, 42, 111
4, 141584, Note_on_c, 9, 42, 0
4, 141584, Note_on_c, 9, 62, 125
4, 141584, Note_on_c, 9, 63, 101
4, 141680, Note_on_c, 9, 63, 0
4, 141680, Note_on_c, 9, 62, 0
4, 141680, Note_on_c, 9, 62, 111
4, 141680, Note_on_c, 9, 56, 127
4, 141684, Note_on_c, 9, 36, 127
4, 141684, Note_on_c, 9, 42, 118
4, 141776, Note_on_c, 9, 36, 0
4, 141776, Note_on_c, 9, 62, 0
4, 141780, Note_on_c, 9, 56, 0
4, 141780, Note_on_c, 9, 42, 0
4, 141872, Note_on_c, 9, 42, 125
4, 141872, Note_on_c, 9, 62, 127
4, 141872, Note_on_c, 9, 75, 127
4, 141872, Note_on_c, 9, 36, 127
4, 141968, Note_on_c, 9, 36, 0
4, 141968, Note_on_c, 9, 42, 0
4, 141968, Note_on_c, 9, 62, 0
4, 141968, Note_on_c, 9, 75, 0
4, 142064, Note_on_c, 9, 56, 127
4, 142068, Note_on_c, 9, 42, 127
4, 142160, Note_on_c, 9, 42, 0
4, 142160, Note_on_c, 9, 56, 0
4, 142256, Note_on_c, 9, 42, 118
4, 142256, Note_on_c, 9, 62, 127
4, 142352, Note_on_c, 9, 62, 0
4, 142352, Note_on_c, 9, 42, 0
4, 142448, Note_on_c, 9, 64, 127
4, 142448, Note_on_c, 9, 64, 127
4, 142448, Note_on_c, 9, 75, 127
4, 142452, Note_on_c, 9, 56, 127
4, 142460, Note_on_c, 9, 42, 127
4, 142460, Note_on_c, 9, 36, 127
4, 142544, Note_on_c, 9, 36, 0
4, 142544, Note_on_c, 9, 42, 0
4, 142548, Note_on_c, 9, 75, 0
4, 142548, Note_on_c, 9, 64, 0
4, 142548, Note_on_c, 9, 64, 0
4, 142548, Note_on_c, 9, 56, 0
4, 142640, Note_on_c, 9, 42, 127
4, 142640, Note_on_c, 9, 64, 127
4, 142640, Note_on_c, 9, 36, 127
4, 142736, Note_on_c, 9, 36, 0
4, 142736, Note_on_c, 9, 64, 0
4, 142736, Note_on_c, 9, 42, 0
4, 142832, Note_on_c, 9, 42, 127
4, 142832, Note_on_c, 9, 56, 127
4, 142928, Note_on_c, 9, 56, 0
4, 142928, Note_on_c, 9, 42, 0
4, 143024, Note_on_c, 9, 42, 127
4, 143024, Note_on_c, 9, 64, 66
4, 143024, Note_on_c, 9, 63, 98
4, 143120, Note_on_c, 9, 63, 0
4, 143120, Note_on_c, 9, 64, 0
4, 143120, Note_on_c, 9, 42, 0
4, 143120, Note_on_c, 9, 62, 127
4, 143120, Note_on_c, 9, 62, 111
4, 143216, Note_on_c, 9, 62, 0
4, 143216, Note_on_c, 9, 62, 0
4, 143216, Note_on_c, 9, 75, 127
4, 143220, Note_on_c, 9, 36, 127
4, 143220, Note_on_c, 9, 42, 127
4, 143220, Note_on_c, 9, 56, 127
4, 143312, Note_on_c, 9, 36, 0
4, 143312, Note_on_c, 9, 75, 0
4, 143316, Note_on_c, 9, 42, 0
4, 143316, Note_on_c, 9, 56, 0
4, 143408, Note_on_c, 9, 36, 127
4, 143408, Note_on_c, 9, 42, 127
4, 143408, Note_on_c, 9, 62, 127
4, 143504, Note_on_c, 9, 62, 0
4, 143504, Note_on_c, 9, 42, 0
4, 143504, Note_on_c, 9, 36, 0
4, 143600, Note_on_c, 9, 75, 127
4, 143600, Note_on_c, 9, 62, 127
4, 143604, Note_on_c, 9, 42, 127
4, 143604, Note_on_c, 9, 56, 127
4, 143696, Note_on_c, 9, 42, 0
4, 143696, Note_on_c, 9, 75, 0
4, 143696, Note_on_c, 9, 62, 0
4, 143700, Note_on_c, 9, 56, 0
4, 143792, Note_on_c, 9, 42, 127
4, 143792, Note_on_c, 9, 62, 127
4, 143888, Note_on_c, 9, 62, 0
4, 143888, Note_on_c, 9, 42, 0
4, 143984, Note_on_c, 9, 42, 127
4, 143984, Note_on_c, 9, 64, 127
4, 143984, Note_on_c, 9, 56, 127
4, 143992, Note_on_c, 9, 36, 127
4, 144080, Note_on_c, 9, 36, 0
4, 144080, Note_on_c, 9, 56, 0
4, 144080, Note_on_c, 9, 64, 0
4, 144084, Note_on_c, 9, 42, 0
4, 144176, Note_on_c, 9, 64, 127
4, 144176, Note_on_c, 9, 36, 127
4, 144176, Note_on_c, 9, 46, 127
4, 144272, Note_on_c, 9, 46, 0
4, 144272, Note_on_c, 9, 36, 0
4, 144272, Note_on_c, 9, 64, 0
4, 144368, Note_on_c, 9, 75, 127
4, 144368, Note_on_c, 9, 56, 127
4, 144372, Note_on_c, 9, 42, 127
4, 144464, Note_on_c, 9, 42, 0
4, 144464, Note_on_c, 9, 56, 0
4, 144464, Note_on_c, 9, 75, 0
4, 144560, Note_on_c, 9, 42, 127
4, 144656, Note_on_c, 9, 42, 0
4, 144752, Note_on_c, 9, 56, 127
4, 144752, Note_on_c, 9, 62, 127
4, 144756, Note_on_c, 9, 36, 127
4, 144756, Note_on_c, 9, 42, 127
4, 144848, Note_on_c, 9, 36, 0
4, 144848, Note_on_c, 9, 56, 0
4, 144848, Note_on_c, 9, 62, 0
4, 144852, Note_on_c, 9, 42, 0
4, 144944, Note_on_c, 9, 75, 127
4, 144944, Note_on_c, 9, 62, 127
4, 144944, Note_on_c, 9, 42, 127
4, 144948, Note_on_c, 9, 36, 127
4, 145040, Note_on_c, 9, 36, 0
4, 145040, Note_on_c, 9, 75, 0
4, 145040, Note_on_c, 9, 62, 0
4, 145040, Note_on_c, 9, 42, 0
4, 145136, Note_on_c, 9, 56, 127
4, 145140, Note_on_c, 9, 42, 127
4, 145232, Note_on_c, 9, 42, 0
4, 145232, Note_on_c, 9, 56, 0
4, 145328, Note_on_c, 9, 42, 127
4, 145328, Note_on_c, 9, 62, 127
4, 145424, Note_on_c, 9, 62, 0
4, 145424, Note_on_c, 9, 42, 0
4, 145520, Note_on_c, 9, 75, 127
4, 145520, Note_on_c, 9, 64, 127
4, 145524, Note_on_c, 9, 36, 127
4, 145524, Note_on_c, 9, 42, 127
4, 145524, Note_on_c, 9, 56, 127
4, 145616, Note_on_c, 9, 42, 0
4, 145616, Note_on_c, 9, 36, 0
4, 145620, Note_on_c, 9, 75, 0
4, 145620, Note_on_c, 9, 64, 0
4, 145620, Note_on_c, 9, 56, 0
4, 145712, Note_on_c, 9, 42, 127
4, 145712, Note_on_c, 9, 36, 127
4, 145712, Note_on_c, 9, 64, 127
4, 145808, Note_on_c, 9, 64, 0
4, 145808, Note_on_c, 9, 36, 0
4, 145808, Note_on_c, 9, 42, 0
4, 145904, Note_on_c, 9, 42, 127
4, 145904, Note_on_c, 9, 56, 127
4, 146000, Note_on_c, 9, 56, 0
4, 146000, Note_on_c, 9, 42, 0
4, 146096, Note_on_c, 9, 42, 127
4, 146096, Note_on_c, 9, 63, 98
4, 146192, Note_on_c, 9, 63, 0
4, 146192, Note_on_c, 9, 42, 0
4, 146192, Note_on_c, 9, 62, 122
4, 146288, Note_on_c, 9, 62, 0
4, 146288, Note_on_c, 9, 75, 127
4, 146288, Note_on_c, 9, 62, 125
4, 146292, Note_on_c, 9, 65, 127
4, 146292, Note_on_c, 9, 65, 127
4, 146292, Note_on_c, 9, 66, 127
4, 146292, Note_on_c, 9, 56, 127
4, 146296, Note_on_c, 9, 42, 127
4, 146296, Note_on_c, 9, 36, 127
4, 146384, Note_on_c, 9, 36, 0
4, 146384, Note_on_c, 9, 56, 0
4, 146384, Note_on_c, 9, 75, 0
4, 146388, Note_on_c, 9, 65, 0
4, 146388, Note_on_c, 9, 65, 0
4, 146388, Note_on_c, 9, 66, 0
4, 146388, Note_on_c, 9, 42, 0
4, 146388, Note_on_c, 9, 62, 0
4, 146480, Note_on_c, 9, 42, 127
4, 146480, Note_on_c, 9, 65, 127
4, 146480, Note_on_c, 9, 62, 127
4, 146484, Note_on_c, 9, 36, 127
4, 146576, Note_on_c, 9, 62, 0
4, 146576, Note_on_c, 9, 42, 0
4, 146576, Note_on_c, 9, 65, 0
4, 146580, Note_on_c, 9, 36, 0
4, 146672, Note_on_c, 9, 62, 118
4, 146672, Note_on_c, 9, 75, 127
4, 146676, Note_on_c, 9, 56, 127
4, 146676, Note_on_c, 9, 65, 127
4, 146676, Note_on_c, 9, 42, 127
4, 146768, Note_on_c, 9, 42, 0
4, 146768, Note_on_c, 9, 56, 0
4, 146772, Note_on_c, 9, 62, 0
4, 146772, Note_on_c, 9, 75, 0
4, 146772, Note_on_c, 9, 65, 0
4, 146864, Note_on_c, 9, 62, 127
4, 146864, Note_on_c, 9, 65, 127
4, 146864, Note_on_c, 9, 42, 127
4, 146960, Note_on_c, 9, 42, 0
4, 146960, Note_on_c, 9, 65, 0
4, 146960, Note_on_c, 9, 62, 0
4, 147056, Note_on_c, 9, 64, 127
4, 147060, Note_on_c, 9, 42, 127
4, 147060, Note_on_c, 9, 65, 127
4, 147060, Note_on_c, 9, 56, 127
4, 147064, Note_on_c, 9, 36, 127
4, 147152, Note_on_c, 9, 36, 0
4, 147152, Note_on_c, 9, 64, 0
4, 147152, Note_on_c, 9, 56, 0
4, 147156, Note_on_c, 9, 65, 0
4, 147156, Note_on_c, 9, 42, 0
4, 147248, Note_on_c, 9, 46, 127
4, 147248, Note_on_c, 9, 64, 127
4, 147248, Note_on_c, 9, 36, 127
4, 147344, Note_on_c, 9, 36, 0
4, 147344, Note_on_c, 9, 64, 0
4, 147440, Note_on_c, 9, 46, 0
4, 147440, Note_on_c, 9, 42, 127
4, 147440, Note_on_c, 9, 56, 127
4, 147536, Note_on_c, 9, 56, 0
4, 147536, Note_on_c, 9, 42, 0
4, 147632, Note_on_c, 9, 42, 111
4, 147728, Note_on_c, 9, 42, 0
4, 147728, Note_on_c, 9, 62, 125
4, 147728, Note_on_c, 9, 63, 101
4, 147824, Note_on_c, 9, 63, 0
4, 147824, Note_on_c, 9, 62, 0
4, 147824, Note_on_c, 9, 62, 111
4, 147828, Note_on_c, 9, 56, 127
4, 147828, Note_on_c, 9, 36, 127
4, 147828, Note_on_c, 9, 42, 118
4, 147920, Note_on_c, 9, 36, 0
4, 147920, Note_on_c, 9, 62, 0
4, 147920, Note_on_c, 9, 56, 0
4, 147924, Note_on_c, 9, 42, 0
4, 148016, Note_on_c, 9, 36, 127
4, 148016, Note_on_c, 9, 42, 125
4, 148016, Note_on_c, 9, 62, 127
4, 148112, Note_on_c, 9, 62, 0
4, 148112, Note_on_c, 9, 42, 0
4, 148112, Note_on_c, 9, 36, 0
4, 148208, Note_on_c, 9, 42, 127
4, 148208, Note_on_c, 9, 56, 127
4, 148304, Note_on_c, 9, 56, 0
4, 148304, Note_on_c, 9, 42, 0
4, 148400, Note_on_c, 9, 62, 127
4, 148400, Note_on_c, 9, 42, 118
4, 148496, Note_on_c, 9, 42, 0
4, 148496, Note_on_c, 9, 62, 0
4, 148592, Note_on_c, 9, 64, 127
4, 148592, Note_on_c, 9, 64, 127
4, 148596, Note_on_c, 9, 56, 127
4, 148596, Note_on_c, 9, 36, 127
4, 148596, Note_on_c, 9, 42, 127
4, 148688, Note_on_c, 9, 36, 0
4, 148688, Note_on_c, 9, 56, 0
4, 148688, Note_on_c, 9, 64, 0
4, 148692, Note_on_c, 9, 64, 0
4, 148692, Note_on_c, 9, 42, 0
4, 148784, Note_on_c, 9, 36, 127
4, 148784, Note_on_c, 9, 42, 127
4, 148788, Note_on_c, 9, 64, 127
4, 148880, Note_on_c, 9, 64, 0
4, 148880, Note_on_c, 9, 42, 0
4, 148880, Note_on_c, 9, 36, 0
4, 148976, Note_on_c, 9, 56, 127
4, 148976, Note_on_c, 9, 42, 127
4, 149072, Note_on_c, 9, 42, 0
4, 149072, Note_on_c, 9, 56, 0
4, 149168, Note_on_c, 9, 64, 66
4, 149168, Note_on_c, 9, 42, 127
4, 149168, Note_on_c, 9, 63, 98
4, 149264, Note_on_c, 9, 63, 0
4, 149264, Note_on_c, 9, 42, 0
4, 149264, Note_on_c, 9, 64, 0
4, 149264, Note_on_c, 9, 62, 127
4, 149264, Note_on_c, 9, 62, 111
4, 149360, Note_on_c, 9, 62, 0
4, 149360, Note_on_c, 9, 62, 0
4, 149360, Note_on_c, 9, 56, 127
4, 149364, Note_on_c, 9, 42, 127
4, 149364, Note_on_c, 9, 36, 127
4, 149456, Note_on_c, 9, 36, 0
4, 149456, Note_on_c, 9, 42, 0
4, 149456, Note_on_c, 9, 56, 0
4, 149552, Note_on_c, 9, 62, 127
4, 149552, Note_on_c, 9, 36, 127
4, 149552, Note_on_c, 9, 42, 127
4, 149648, Note_on_c, 9, 42, 0
4, 149648, Note_on_c, 9, 36, 0
4, 149648, Note_on_c, 9, 62, 0
4, 149744, Note_on_c, 9, 56, 127
4, 149744, Note_on_c, 9, 62, 127
4, 149752, Note_on_c, 9, 42, 127
4, 149840, Note_on_c, 9, 42, 0
4, 149840, Note_on_c, 9, 62, 0
4, 149840, Note_on_c, 9, 56, 0
4, 149936, Note_on_c, 9, 62, 127
4, 149936, Note_on_c, 9, 42, 127
4, 150032, Note_on_c, 9, 42, 0
4, 150032, Note_on_c, 9, 62, 0
4, 150128, Note_on_c, 9, 64, 127
4, 150128, Note_on_c, 9, 56, 127
4, 150132, Note_on_c, 9, 42, 127
4, 150132, Note_on_c, 9, 36, 127
4, 150224, Note_on_c, 9, 36, 0
4, 150224, Note_on_c, 9, 64, 0
4, 150228, Note_on_c, 9, 42, 0
4, 150228, Note_on_c, 9, 56, 0
4, 150320, Note_on_c, 9, 36, 127
4, 150320, Note_on_c, 9, 64, 127
4, 150320, Note_on_c, 9, 46, 127
4, 150416, Note_on_c, 9, 46, 0
4, 150416, Note_on_c, 9, 64, 0
4, 150416, Note_on_c, 9, 36, 0
4, 150512, Note_on_c, 9, 56, 127
4, 150512, Note_on_c, 9, 42, 127
4, 150608, Note_on_c, 9, 42, 0
4, 150608, Note_on_c, 9, 56, 0
4, 150704, Note_on_c, 9, 42, 127
4, 150800, Note_on_c, 9, 42, 0
4, 150896, Note_on_c, 9, 62, 127
4, 150896, Note_on_c, 9, 56, 127
4, 150896, Note_on_c, 9, 42, 127
4, 150904, Note_on_c, 9, 36, 127
4, 150992, Note_on_c, 9, 36, 0
4, 150992, Note_on_c, 9, 62, 0
4, 150996, Note_on_c, 9, 42, 0
4, 150996, Note_on_c, 9, 56, 0
4, 151088, Note_on_c, 9, 36, 127
4, 151088, Note_on_c, 9, 42, 127
4, 151088, Note_on_c, 9, 62, 127
4, 151184, Note_on_c, 9, 62, 0
4, 151184, Note_on_c, 9, 42, 0
4, 151184, Note_on_c, 9, 36, 0
4, 151280, Note_on_c, 9, 56, 127
4, 151284, Note_on_c, 9, 42, 127
4, 151376, Note_on_c, 9, 42, 0
4, 151376, Note_on_c, 9, 56, 0
4, 151472, Note_on_c, 9, 62, 127
4, 151472, Note_on_c, 9, 42, 127
4, 151568, Note_on_c, 9, 42, 0
4, 151568, Note_on_c, 9, 62, 0
4, 151664, Note_on_c, 9, 64, 127
4, 151664, Note_on_c, 9, 56, 127
4, 151664, Note_on_c, 9, 42, 127
4, 151668, Note_on_c, 9, 36, 127
4, 151760, Note_on_c, 9, 36, 0
4, 151760, Note_on_c, 9, 64, 0
4, 151764, Note_on_c, 9, 42, 0
4, 151764, Note_on_c, 9, 56, 0
4, 151856, Note_on_c, 9, 42, 127
4, 151856, Note_on_c, 9, 64, 127
4, 151856, Note_on_c, 9, 36, 127
4, 151952, Note_on_c, 9, 36, 0
4, 151952, Note_on_c, 9, 64, 0
4, 151952, Note_on_c, 9, 42, 0
4, 152052, Note_on_c, 9, 42, 127
4, 152052, Note_on_c, 9, 56, 127
4, 152144, Note_on_c, 9, 56, 0
4, 152144, Note_on_c, 9, 42, 0
4, 152240, Note_on_c, 9, 42, 127
4, 152240, Note_on_c, 9, 63, 98
4, 152336, Note_on_c, 9, 63, 0
4, 152336, Note_on_c, 9, 42, 0
4, 152336, Note_on_c, 9, 62, 122
4, 152432, Note_on_c, 9, 62, 0
4, 152432, Note_on_c, 9, 62, 125
4, 152432, Note_on_c, 9, 56, 127
4, 152436, Note_on_c, 9, 42, 127
4, 152440, Note_on_c, 9, 36, 127
4, 152528, Note_on_c, 9, 36, 0
4, 152528, Note_on_c, 9, 62, 0
4, 152528, Note_on_c, 9, 56, 0
4, 152532, Note_on_c, 9, 42, 0
4, 152624, Note_on_c, 9, 42, 127
4, 152624, Note_on_c, 9, 36, 127
4, 152624, Note_on_c, 9, 62, 127
4, 152720, Note_on_c, 9, 62, 0
4, 152720, Note_on_c, 9, 36, 0
4, 152720, Note_on_c, 9, 42, 0
4, 152816, Note_on_c, 9, 62, 118
4, 152820, Note_on_c, 9, 56, 127
4, 152820, Note_on_c, 9, 42, 127
4, 152912, Note_on_c, 9, 42, 0
4, 152912, Note_on_c, 9, 56, 0
4, 152912, Note_on_c, 9, 62, 0
4, 153008, Note_on_c, 9, 42, 127
4, 153008, Note_on_c, 9, 62, 127
4, 153104, Note_on_c, 9, 62, 0
4, 153104, Note_on_c, 9, 42, 0
4, 153200, Note_on_c, 9, 64, 127
4, 153204, Note_on_c, 9, 36, 127
4, 153204, Note_on_c, 9, 56, 127
4, 153204, Note_on_c, 9, 42, 127
4, 153296, Note_on_c, 9, 56, 0
4, 153296, Note_on_c, 9, 64, 0
4, 153296, Note_on_c, 9, 36, 0
4, 153300, Note_on_c, 9, 42, 0
4, 153392, Note_on_c, 9, 46, 127
4, 153392, Note_on_c, 9, 64, 127
4, 153396, Note_on_c, 9, 36, 127
4, 153488, Note_on_c, 9, 36, 0
4, 153488, Note_on_c, 9, 64, 0
4, 153584, Note_on_c, 9, 46, 0
4, 153584, Note_on_c, 9, 56, 127
4, 153588, Note_on_c, 9, 42, 127
4, 153680, Note_on_c, 9, 42, 0
4, 153680, Note_on_c, 9, 56, 0
4, 153776, Note_on_c, 9, 42, 111
4, 153872, Note_on_c, 9, 42, 0
4, 153872, Note_on_c, 9, 63, 101
4, 153872, Note_on_c, 9, 62, 125
4, 153968, Note_on_c, 9, 62, 0
4, 153968, Note_on_c, 9, 63, 0
4, 153968, Note_on_c, 9, 62, 111
4, 153972, Note_on_c, 9, 36, 127
4, 153972, Note_on_c, 9, 42, 118
4, 153972, Note_on_c, 9, 56, 127
4, 154064, Note_on_c, 9, 56, 0
4, 154064, Note_on_c, 9, 62, 0
4, 154064, Note_on_c, 9, 36, 0
4, 154068, Note_on_c, 9, 42, 0
4, 154160, Note_on_c, 9, 42, 125
4, 154160, Note_on_c, 9, 36, 127
4, 154164, Note_on_c, 9, 62, 127
4, 154256, Note_on_c, 9, 62, 0
4, 154256, Note_on_c, 9, 36, 0
4, 154256, Note_on_c, 9, 42, 0
4, 154352, Note_on_c, 9, 56, 127
4, 154356, Note_on_c, 9, 42, 127
4, 154448, Note_on_c, 9, 42, 0
4, 154448, Note_on_c, 9, 56, 0
4, 154544, Note_on_c, 9, 62, 127
4, 154544, Note_on_c, 9, 42, 118
4, 154640, Note_on_c, 9, 42, 0
4, 154640, Note_on_c, 9, 62, 0
4, 154736, Note_on_c, 9, 64, 127
4, 154736, Note_on_c, 9, 64, 127
4, 154740, Note_on_c, 9, 36, 127
4, 154740, Note_on_c, 9, 56, 127
4, 154740, Note_on_c, 9, 42, 127
4, 154832, Note_on_c, 9, 56, 0
4, 154832, Note_on_c, 9, 36, 0
4, 154832, Note_on_c, 9, 64, 0
4, 154832, Note_on_c, 9, 64, 0
4, 154836, Note_on_c, 9, 42, 0
4, 154928, Note_on_c, 9, 42, 127
4, 154928, Note_on_c, 9, 36, 127
4, 154928, Note_on_c, 9, 64, 127
4, 155024, Note_on_c, 9, 64, 0
4, 155024, Note_on_c, 9, 36, 0
4, 155024, Note_on_c, 9, 42, 0
4, 155120, Note_on_c, 9, 42, 127
4, 155120, Note_on_c, 9, 56, 127
4, 155216, Note_on_c, 9, 56, 0
4, 155216, Note_on_c, 9, 42, 0
4, 155312, Note_on_c, 9, 64, 66
4, 155312, Note_on_c, 9, 63, 98
4, 155312, Note_on_c, 9, 42, 127
4, 155408, Note_on_c, 9, 42, 0
4, 155408, Note_on_c, 9, 63, 0
4, 155408, Note_on_c, 9, 64, 0
4, 155412, Note_on_c, 9, 62, 111
4, 155412, Note_on_c, 9, 62, 127
4, 155504, Note_on_c, 9, 62, 0
4, 155504, Note_on_c, 9, 62, 0
4, 155504, Note_on_c, 9, 56, 127
4, 155508, Note_on_c, 9, 36, 127
4, 155508, Note_on_c, 9, 42, 127
4, 155600, Note_on_c, 9, 42, 0
4, 155600, Note_on_c, 9, 36, 0
4, 155600, Note_on_c, 9, 56, 0
4, 155696, Note_on_c, 9, 42, 127
4, 155696, Note_on_c, 9, 36, 127
4, 155696, Note_on_c, 9, 62, 127
4, 155792, Note_on_c, 9, 62, 0
4, 155792, Note_on_c, 9, 36, 0
4, 155792, Note_on_c, 9, 42, 0
4, 155888, Note_on_c, 9, 62, 127
4, 155888, Note_on_c, 9, 56, 127
4, 155888, Note_on_c, 9, 42, 127
4, 155984, Note_on_c, 9, 42, 0
4, 155984, Note_on_c, 9, 56, 0
4, 155984, Note_on_c, 9, 62, 0
4, 156080, Note_on_c, 9, 42, 127
4, 156080, Note_on_c, 9, 62, 127
4, 156176, Note_on_c, 9, 62, 0
4, 156176, Note_on_c, 9, 42, 0
4, 156272, Note_on_c, 9, 64, 127
4, 156276, Note_on_c, 9, 56, 127
4, 156276, Note_on_c, 9, 36, 127
4, 156276, Note_on_c, 9, 42, 127
4, 156368, Note_on_c, 9, 36, 0
4, 156368, Note_on_c, 9, 64, 0
4, 156372, Note_on_c, 9, 56, 0
4, 156372, Note_on_c, 9, 42, 0
4, 156464, Note_on_c, 9, 36, 127
4, 156464, Note_on_c, 9, 64, 127
4, 156464, Note_on_c, 9, 46, 127
4, 156560, Note_on_c, 9, 46, 0
4, 156560, Note_on_c, 9, 64, 0
4, 156560, Note_on_c, 9, 36, 0
4, 156656, Note_on_c, 9, 56, 127
4, 156656, Note_on_c, 9, 42, 127
4, 156752, Note_on_c, 9, 42, 0
4, 156752, Note_on_c, 9, 56, 0
4, 156848, Note_on_c, 9, 42, 127
4, 156944, Note_on_c, 9, 42, 0
4, 157040, Note_on_c, 9, 42, 127
4, 157040, Note_on_c, 9, 62, 127
4, 157040, Note_on_c, 9, 56, 127
4, 157048, Note_on_c, 9, 36, 127
4, 157136, Note_on_c, 9, 36, 0
4, 157136, Note_on_c, 9, 56, 0
4, 157136, Note_on_c, 9, 62, 0
4, 157140, Note_on_c, 9, 42, 0
4, 157232, Note_on_c, 9, 62, 127
4, 157232, Note_on_c, 9, 42, 127
4, 157236, Note_on_c, 9, 36, 127
4, 157328, Note_on_c, 9, 36, 0
4, 157328, Note_on_c, 9, 42, 0
4, 157328, Note_on_c, 9, 62, 0
4, 157424, Note_on_c, 9, 56, 127
4, 157424, Note_on_c, 9, 42, 127
4, 157520, Note_on_c, 9, 42, 0
4, 157520, Note_on_c, 9, 56, 0
4, 157616, Note_on_c, 9, 42, 127
4, 157616, Note_on_c, 9, 62, 127
4, 157712, Note_on_c, 9, 62, 0
4, 157712, Note_on_c, 9, 42, 0
4, 157808, Note_on_c, 9, 64, 127
4, 157812, Note_on_c, 9, 56, 127
4, 157812, Note_on_c, 9, 42, 127
4, 157812, Note_on_c, 9, 36, 127
4, 157904, Note_on_c, 9, 36, 0
4, 157904, Note_on_c, 9, 64, 0
4, 157904, Note_on_c, 9, 56, 0
4, 157908, Note_on_c, 9, 42, 0
4, 158000, Note_on_c, 9, 36, 127
4, 158000, Note_on_c, 9, 42, 127
4, 158000, Note_on_c, 9, 64, 127
4, 158096, Note_on_c, 9, 64, 0
4, 158096, Note_on_c, 9, 42, 0
4, 158096, Note_on_c, 9, 36, 0
4, 158192, Note_on_c, 9, 36, 127
4, 158192, Note_on_c, 9, 56, 127
4, 158192, Note_on_c, 9, 42, 127
4, 158200, Note_on_c, 9, 65, 127
4, 158288, Note_on_c, 9, 42, 0
4, 158288, Note_on_c, 9, 36, 0
4, 158292, Note_on_c, 9, 56, 0
4, 158292, Note_on_c, 9, 65, 0
4, 158292, Note_on_c, 9, 65, 127
4, 158384, Note_on_c, 9, 65, 0
4, 158480, Note_on_c, 9, 36, 127
4, 158480, Note_on_c, 9, 65, 127
4, 158576, Note_on_c, 9, 65, 0
4, 158576, Note_on_c, 9, 36, 0
4, 158576, Note_on_c, 9, 54, 127
4, 158576, Note_on_c, 9, 36, 127
4, 158576, Note_on_c, 9, 65, 127
4, 158672, Note_on_c, 9, 65, 0
4, 158672, Note_on_c, 9, 36, 0
4, 158672, Note_on_c, 9, 54, 0
4, 158768, Note_on_c, 9, 55, 127
4, 158768, Note_on_c, 9, 36, 127
4, 158768, Note_on_c, 9, 43, 127
4, 158772, Note_on_c, 9, 65, 127
4, 158772, Note_on_c, 9, 36, 127
4, 158864, Note_on_c, 9, 36, 0
4, 158864, Note_on_c, 9, 43, 0
4, 158864, Note_on_c, 9, 55, 0
4, 158864, Note_on_c, 9, 36, 0
4, 158864, Note_on_c, 9, 65, 0
4, 158960, Note_on_c, 9, 62, 118
4, 158964, Note_on_c, 9, 56, 127
4, 158964, Note_on_c, 9, 42, 127
4, 159056, Note_on_c, 9, 42, 0
4, 159056, Note_on_c, 9, 62, 0
4, 159060, Note_on_c, 9, 56, 0
4, 159152, Note_on_c, 9, 42, 127
4, 159152, Note_on_c, 9, 62, 127
4, 159156, Note_on_c, 9, 66, 105
4, 159248, Note_on_c, 9, 66, 0
4, 159248, Note_on_c, 9, 62, 0
4, 159248, Note_on_c, 9, 42, 0
4, 159248, Note_on_c, 9, 65, 127
4, 159252, Note_on_c, 9, 65, 127
4, 159344, Note_on_c, 9, 65, 0
4, 159344, Note_on_c, 9, 65, 0
4, 159344, Note_on_c, 9, 64, 127
4, 159348, Note_on_c, 9, 56, 127
4, 159352, Note_on_c, 9, 42, 127
4, 159440, Note_on_c, 9, 42, 0
4, 159440, Note_on_c, 9, 56, 0
4, 159440, Note_on_c, 9, 64, 0
4, 159536, Note_on_c, 9, 46, 127
4, 159536, Note_on_c, 9, 64, 127
4, 159632, Note_on_c, 9, 64, 0
4, 159728, Note_on_c, 9, 46, 0
4, 159728, Note_on_c, 9, 56, 127
4, 159732, Note_on_c, 9, 42, 127
4, 159824, Note_on_c, 9, 42, 0
4, 159824, Note_on_c, 9, 56, 0
4, 159920, Note_on_c, 9, 42, 111
4, 160016, Note_on_c, 9, 42, 0
4, 160016, Note_on_c, 9, 62, 125
4, 160016, Note_on_c, 9, 63, 101
4, 160112, Note_on_c, 9, 63, 0
4, 160112, Note_on_c, 9, 62, 0
4, 160112, Note_on_c, 9, 56, 127
4, 160112, Note_on_c, 9, 62, 111
4, 160116, Note_on_c, 9, 42, 118
4, 160120, Note_on_c, 9, 36, 127
4, 160208, Note_on_c, 9, 36, 0
4, 160208, Note_on_c, 9, 56, 0
4, 160208, Note_on_c, 9, 62, 0
4, 160212, Note_on_c, 9, 42, 0
4, 160304, Note_on_c, 9, 36, 127
4, 160304, Note_on_c, 9, 62, 127
4, 160304, Note_on_c, 9, 42, 125
4, 160400, Note_on_c, 9, 42, 0
4, 160400, Note_on_c, 9, 62, 0
4, 160400, Note_on_c, 9, 36, 0
4, 160496, Note_on_c, 9, 56, 127
4, 160500, Note_on_c, 9, 42, 127
4, 160592, Note_on_c, 9, 42, 0
4, 160592, Note_on_c, 9, 56, 0
4, 160688, Note_on_c, 9, 62, 127
4, 160688, Note_on_c, 9, 42, 118
4, 160784, Note_on_c, 9, 42, 0
4, 160784, Note_on_c, 9, 62, 0
4, 160880, Note_on_c, 9, 64, 127
4, 160880, Note_on_c, 9, 64, 127
4, 160884, Note_on_c, 9, 56, 127
4, 160884, Note_on_c, 9, 42, 127
4, 160884, Note_on_c, 9, 36, 127
4, 160976, Note_on_c, 9, 36, 0
4, 160976, Note_on_c, 9, 56, 0
4, 160976, Note_on_c, 9, 64, 0
4, 160980, Note_on_c, 9, 64, 0
4, 160980, Note_on_c, 9, 42, 0
4, 161072, Note_on_c, 9, 36, 127
4, 161072, Note_on_c, 9, 64, 127
4, 161072, Note_on_c, 9, 42, 127
4, 161168, Note_on_c, 9, 42, 0
4, 161168, Note_on_c, 9, 64, 0
4, 161168, Note_on_c, 9, 36, 0
4, 161264, Note_on_c, 9, 42, 127
4, 161264, Note_on_c, 9, 56, 127
4, 161360, Note_on_c, 9, 56, 0
4, 161360, Note_on_c, 9, 42, 0
4, 161456, Note_on_c, 9, 63, 98
4, 161456, Note_on_c, 9, 42, 127
4, 161456, Note_on_c, 9, 64, 66
4, 161552, Note_on_c, 9, 64, 0
4, 161552, Note_on_c, 9, 42, 0
4, 161552, Note_on_c, 9, 63, 0
4, 161556, Note_on_c, 9, 62, 127
4, 161556, Note_on_c, 9, 62, 111
4, 161648, Note_on_c, 9, 62, 0
4, 161648, Note_on_c, 9, 62, 0
4, 161652, Note_on_c, 9, 36, 127
4, 161652, Note_on_c, 9, 56, 127
4, 161652, Note_on_c, 9, 42, 127
4, 161744, Note_on_c, 9, 42, 0
4, 161744, Note_on_c, 9, 56, 0
4, 161744, Note_on_c, 9, 36, 0
4, 161840, Note_on_c, 9, 42, 127
4, 161840, Note_on_c, 9, 62, 127
4, 161936, Note_on_c, 9, 62, 0
4, 161936, Note_on_c, 9, 42, 0
4, 162032, Note_on_c, 9, 62, 127
4, 162032, Note_on_c, 9, 56, 127
4, 162036, Note_on_c, 9, 42, 127
4, 162128, Note_on_c, 9, 42, 0
4, 162128, Note_on_c, 9, 56, 0
4, 162128, Note_on_c, 9, 62, 0
4, 162224, Note_on_c, 9, 42, 127
4, 162224, Note_on_c, 9, 62, 127
4, 162320, Note_on_c, 9, 62, 0
4, 162320, Note_on_c, 9, 42, 0
4, 162416, Note_on_c, 9, 56, 127
4, 162416, Note_on_c, 9, 42, 127
4, 162416, Note_on_c, 9, 64, 127
4, 162424, Note_on_c, 9, 36, 127
4, 162512, Note_on_c, 9, 36, 0
4, 162512, Note_on_c, 9, 64, 0
4, 162512, Note_on_c, 9, 56, 0
4, 162516, Note_on_c, 9, 42, 0
4, 162608, Note_on_c, 9, 46, 127
4, 162608, Note_on_c, 9, 36, 127
4, 162608, Note_on_c, 9, 64, 127
4, 162704, Note_on_c, 9, 64, 0
4, 162704, Note_on_c, 9, 36, 0
4, 162704, Note_on_c, 9, 46, 0
4, 162800, Note_on_c, 9, 42, 127
4, 162800, Note_on_c, 9, 56, 127
4, 162896, Note_on_c, 9, 56, 0
4, 162896, Note_on_c, 9, 42, 0
4, 162992, Note_on_c, 9, 42, 127
4, 163088, Note_on_c, 9, 42, 0
4, 163184, Note_on_c, 9, 62, 127
4, 163184, Note_on_c, 9, 56, 127
4, 163188, Note_on_c, 9, 36, 127
4, 163188, Note_on_c, 9, 42, 127
4, 163280, Note_on_c, 9, 36, 0
4, 163280, Note_on_c, 9, 62, 0
4, 163280, Note_on_c, 9, 56, 0
4, 163284, Note_on_c, 9, 42, 0
4, 163376, Note_on_c, 9, 36, 127
4, 163376, Note_on_c, 9, 62, 127
4, 163376, Note_on_c, 9, 42, 127
4, 163472, Note_on_c, 9, 42, 0
4, 163472, Note_on_c, 9, 62, 0
4, 163472, Note_on_c, 9, 36, 0
4, 163568, Note_on_c, 9, 42, 127
4, 163568, Note_on_c, 9, 56, 127
4, 163664, Note_on_c, 9, 56, 0
4, 163664, Note_on_c, 9, 42, 0
4, 163760, Note_on_c, 9, 62, 127
4, 163760, Note_on_c, 9, 42, 127
4, 163856, Note_on_c, 9, 42, 0
4, 163856, Note_on_c, 9, 62, 0
4, 163952, Note_on_c, 9, 56, 127
4, 163952, Note_on_c, 9, 64, 127
4, 163956, Note_on_c, 9, 36, 127
4, 163956, Note_on_c, 9, 42, 127
4, 164048, Note_on_c, 9, 36, 0
4, 164048, Note_on_c, 9, 56, 0
4, 164048, Note_on_c, 9, 64, 0
4, 164052, Note_on_c, 9, 42, 0
4, 164144, Note_on_c, 9, 64, 127
4, 164144, Note_on_c, 9, 36, 127
4, 164144, Note_on_c, 9, 42, 127
4, 164240, Note_on_c, 9, 42, 0
4, 164240, Note_on_c, 9, 36, 0
4, 164240, Note_on_c, 9, 64, 0
4, 164336, Note_on_c, 9, 56, 127
4, 164340, Note_on_c, 9, 42, 127
4, 164432, Note_on_c, 9, 42, 0
4, 164432, Note_on_c, 9, 56, 0
4, 164528, Note_on_c, 9, 63, 98
4, 164528, Note_on_c, 9, 42, 127
4, 164624, Note_on_c, 9, 42, 0
4, 164624, Note_on_c, 9, 63, 0
4, 164624, Note_on_c, 9, 62, 122
4, 164720, Note_on_c, 9, 62, 0
4, 164720, Note_on_c, 9, 62, 125
4, 164720, Note_on_c, 9, 56, 127
4, 164724, Note_on_c, 9, 36, 127
4, 164724, Note_on_c, 9, 42, 127
4, 164816, Note_on_c, 9, 36, 0
4, 164816, Note_on_c, 9, 62, 0
4, 164816, Note_on_c, 9, 56, 0
4, 164820, Note_on_c, 9, 42, 0
4, 164912, Note_on_c, 9, 36, 127
4, 164912, Note_on_c, 9, 62, 127
4, 164912, Note_on_c, 9, 42, 127
4, 165008, Note_on_c, 9, 42, 0
4, 165008, Note_on_c, 9, 62, 0
4, 165008, Note_on_c, 9, 36, 0
4, 165104, Note_on_c, 9, 62, 118
4, 165108, Note_on_c, 9, 56, 127
4, 165108, Note_on_c, 9, 42, 127
4, 165200, Note_on_c, 9, 42, 0
4, 165200, Note_on_c, 9, 56, 0
4, 165200, Note_on_c, 9, 62, 0
4, 165296, Note_on_c, 9, 62, 127
4, 165296, Note_on_c, 9, 42, 127
4, 165392, Note_on_c, 9, 42, 0
4, 165392, Note_on_c, 9, 62, 0
4, 165488, Note_on_c, 9, 56, 127
4, 165488, Note_on_c, 9, 64, 127
4, 165492, Note_on_c, 9, 42, 127
4, 165496, Note_on_c, 9, 36, 127
4, 165584, Note_on_c, 9, 36, 0
4, 165584, Note_on_c, 9, 64, 0
4, 165588, Note_on_c, 9, 42, 0
4, 165588, Note_on_c, 9, 56, 0
4, 165680, Note_on_c, 9, 36, 127
4, 165680, Note_on_c, 9, 64, 127
4, 165680, Note_on_c, 9, 46, 127
4, 165776, Note_on_c, 9, 64, 0
4, 165776, Note_on_c, 9, 36, 0
4, 165872, Note_on_c, 9, 46, 0
4, 165872, Note_on_c, 9, 56, 127
4, 165876, Note_on_c, 9, 42, 127
4, 165968, Note_on_c, 9, 42, 0
4, 165968, Note_on_c, 9, 56, 0
4, 166064, Note_on_c, 9, 42, 111
4, 166160, Note_on_c, 9, 42, 0
4, 166160, Note_on_c, 9, 63, 101
4, 166160, Note_on_c, 9, 62, 125
4, 166256, Note_on_c, 9, 62, 0
4, 166256, Note_on_c, 9, 63, 0
4, 166256, Note_on_c, 9, 62, 111
4, 166260, Note_on_c, 9, 36, 127
4, 166260, Note_on_c, 9, 56, 127
4, 166260, Note_on_c, 9, 42, 118
4, 166352, Note_on_c, 9, 56, 0
4, 166352, Note_on_c, 9, 62, 0
4, 166352, Note_on_c, 9, 36, 0
4, 166356, Note_on_c, 9, 42, 0
4, 166448, Note_on_c, 9, 36, 127
4, 166448, Note_on_c, 9, 42, 125
4, 166452, Note_on_c, 9, 62, 127
4, 166544, Note_on_c, 9, 62, 0
4, 166544, Note_on_c, 9, 42, 0
4, 166544, Note_on_c, 9, 36, 0
4, 166640, Note_on_c, 9, 56, 127
4, 166644, Note_on_c, 9, 42, 127
4, 166736, Note_on_c, 9, 42, 0
4, 166736, Note_on_c, 9, 56, 0
4, 166832, Note_on_c, 9, 62, 127
4, 166832, Note_on_c, 9, 42, 118
4, 166928, Note_on_c, 9, 42, 0
4, 166928, Note_on_c, 9, 62, 0
4, 167024, Note_on_c, 9, 64, 127
4, 167024, Note_on_c, 9, 64, 127
4, 167028, Note_on_c, 9, 42, 127
4, 167028, Note_on_c, 9, 56, 127
4, 167028, Note_on_c, 9, 36, 127
4, 167120, Note_on_c, 9, 36, 0
4, 167120, Note_on_c, 9, 64, 0
4, 167120, Note_on_c, 9, 56, 0
4, 167124, Note_on_c, 9, 42, 0
4, 167124, Note_on_c, 9, 64, 0
4, 167216, Note_on_c, 9, 42, 127
4, 167216, Note_on_c, 9, 64, 127
4, 167216, Note_on_c, 9, 36, 127
4, 167312, Note_on_c, 9, 36, 0
4, 167312, Note_on_c, 9, 64, 0
4, 167312, Note_on_c, 9, 42, 0
4, 167408, Note_on_c, 9, 56, 127
4, 167408, Note_on_c, 9, 42, 127
4, 167504, Note_on_c, 9, 42, 0
4, 167504, Note_on_c, 9, 56, 0
4, 167600, Note_on_c, 9, 42, 127
4, 167600, Note_on_c, 9, 64, 66
4, 167600, Note_on_c, 9, 63, 98
4, 167696, Note_on_c, 9, 63, 0
4, 167696, Note_on_c, 9, 64, 0
4, 167696, Note_on_c, 9, 42, 0
4, 167696, Note_on_c, 9, 62, 111
4, 167700, Note_on_c, 9, 62, 127
4, 167792, Note_on_c, 9, 62, 0
4, 167792, Note_on_c, 9, 62, 0
4, 167792, Note_on_c, 9, 56, 127
4, 167796, Note_on_c, 9, 42, 127
4, 167796, Note_on_c, 9, 36, 127
4, 167888, Note_on_c, 9, 36, 0
4, 167888, Note_on_c, 9, 42, 0
4, 167888, Note_on_c, 9, 56, 0
4, 167984, Note_on_c, 9, 36, 127
4, 167984, Note_on_c, 9, 42, 127
4, 167984, Note_on_c, 9, 62, 127
4, 168080, Note_on_c, 9, 62, 0
4, 168080, Note_on_c, 9, 42, 0
4, 168080, Note_on_c, 9, 36, 0
4, 168176, Note_on_c, 9, 62, 127
4, 168176, Note_on_c, 9, 56, 127
4, 168180, Note_on_c, 9, 42, 127
4, 168272, Note_on_c, 9, 42, 0
4, 168272, Note_on_c, 9, 56, 0
4, 168272, Note_on_c, 9, 62, 0
4, 168368, Note_on_c, 9, 62, 127
4, 168368, Note_on_c, 9, 42, 127
4, 168464, Note_on_c, 9, 42, 0
4, 168464, Note_on_c, 9, 62, 0
4, 168560, Note_on_c, 9, 56, 127
4, 168560, Note_on_c, 9, 64, 127
4, 168564, Note_on_c, 9, 42, 127
4, 168564, Note_on_c, 9, 36, 127
4, 168656, Note_on_c, 9, 36, 0
4, 168656, Note_on_c, 9, 64, 0
4, 168660, Note_on_c, 9, 42, 0
4, 168660, Note_on_c, 9, 56, 0
4, 168752, Note_on_c, 9, 64, 127
4, 168752, Note_on_c, 9, 46, 127
4, 168752, Note_on_c, 9, 36, 127
4, 168848, Note_on_c, 9, 36, 0
4, 168848, Note_on_c, 9, 46, 0
4, 168848, Note_on_c, 9, 64, 0
4, 168944, Note_on_c, 9, 56, 127
4, 168944, Note_on_c, 9, 42, 127
4, 169040, Note_on_c, 9, 42, 0
4, 169040, Note_on_c, 9, 56, 0
4, 169136, Note_on_c, 9, 42, 127
4, 169232, Note_on_c, 9, 42, 0
4, 169328, Note_on_c, 9, 56, 127
4, 169328, Note_on_c, 9, 62, 127
4, 169332, Note_on_c, 9, 36, 127
4, 169332, Note_on_c, 9, 42, 127
4, 169424, Note_on_c, 9, 62, 0
4, 169424, Note_on_c, 9, 56, 0
4, 169428, Note_on_c, 9, 36, 0
4, 169428, Note_on_c, 9, 42, 0
4, 169520, Note_on_c, 9, 42, 127
4, 169520, Note_on_c, 9, 36, 127
4, 169520, Note_on_c, 9, 62, 127
4, 169616, Note_on_c, 9, 62, 0
4, 169616, Note_on_c, 9, 36, 0
4, 169616, Note_on_c, 9, 42, 0
4, 169712, Note_on_c, 9, 56, 127
4, 169716, Note_on_c, 9, 42, 127
4, 169808, Note_on_c, 9, 42, 0
4, 169808, Note_on_c, 9, 56, 0
4, 169904, Note_on_c, 9, 42, 127
4, 169904, Note_on_c, 9, 62, 127
4, 170000, Note_on_c, 9, 62, 0
4, 170000, Note_on_c, 9, 42, 0
4, 170096, Note_on_c, 9, 64, 127
4, 170096, Note_on_c, 9, 56, 127
4, 170100, Note_on_c, 9, 36, 127
4, 170100, Note_on_c, 9, 42, 127
4, 170192, Note_on_c, 9, 36, 0
4, 170192, Note_on_c, 9, 64, 0
4, 170192, Note_on_c, 9, 56, 0
4, 170196, Note_on_c, 9, 42, 0
4, 170288, Note_on_c, 9, 64, 127
4, 170288, Note_on_c, 9, 42, 127
4, 170288, Note_on_c, 9, 36, 127
4, 170384, Note_on_c, 9, 36, 0
4, 170384, Note_on_c, 9, 42, 0
4, 170384, Note_on_c, 9, 64, 0
4, 170480, Note_on_c, 9, 56, 127
4, 170480, Note_on_c, 9, 42, 127
4, 170576, Note_on_c, 9, 42, 0
4, 170576, Note_on_c, 9, 56, 0
4, 170672, Note_on_c, 9, 42, 127
4, 170672, Note_on_c, 9, 63, 98
4, 170768, Note_on_c, 9, 63, 0
4, 170768, Note_on_c, 9, 42, 0
4, 170768, Note_on_c, 9, 62, 122
4, 170864, Note_on_c, 9, 62, 0
4, 170864, Note_on_c, 9, 62, 125
4, 170864, Note_on_c, 9, 56, 127
4, 170872, Note_on_c, 9, 42, 127
4, 170872, Note_on_c, 9, 36, 127
4, 170960, Note_on_c, 9, 42, 0
4, 170960, Note_on_c, 9, 56, 0
4, 170964, Note_on_c, 9, 62, 0
4, 170964, Note_on_c, 9, 36, 0
4, 171056, Note_on_c, 9, 42, 127
4, 171056, Note_on_c, 9, 62, 127
4, 171056, Note_on_c, 9, 36, 127
4, 171152, Note_on_c, 9, 36, 0
4, 171152, Note_on_c, 9, 62, 0
4, 171152, Note_on_c, 9, 42, 0
4, 171248, Note_on_c, 9, 62, 118
4, 171252, Note_on_c, 9, 42, 127
4, 171252, Note_on_c, 9, 56, 127
4, 171344, Note_on_c, 9, 56, 0
4, 171344, Note_on_c, 9, 42, 0
4, 171344, Note_on_c, 9, 62, 0
4, 171440, Note_on_c, 9, 42, 127
4, 171440, Note_on_c, 9, 62, 127
4, 171536, Note_on_c, 9, 62, 0
4, 171536, Note_on_c, 9, 42, 0
4, 171632, Note_on_c, 9, 64, 127
4, 171636, Note_on_c, 9, 42, 127
4, 171636, Note_on_c, 9, 36, 127
4, 171636, Note_on_c, 9, 56, 127
4, 171728, Note_on_c, 9, 56, 0
4, 171728, Note_on_c, 9, 64, 0
4, 171728, Note_on_c, 9, 42, 0
4, 171732, Note_on_c, 9, 36, 0
4, 171824, Note_on_c, 9, 64, 127
4, 171824, Note_on_c, 9, 46, 127
4, 171920, Note_on_c, 9, 64, 0
4, 172016, Note_on_c, 9, 46, 0
4, 172016, Note_on_c, 9, 56, 127
4, 172016, Note_on_c, 9, 42, 127
4, 172112, Note_on_c, 9, 42, 0
4, 172112, Note_on_c, 9, 56, 0
4, 172208, Note_on_c, 9, 42, 111
4, 172304, Note_on_c, 9, 42, 0
4, 172304, Note_on_c, 9, 62, 125
4, 172304, Note_on_c, 9, 63, 101
4, 172400, Note_on_c, 9, 63, 0
4, 172400, Note_on_c, 9, 62, 0
4, 172400, Note_on_c, 9, 62, 111
4, 172404, Note_on_c, 9, 42, 118
4, 172404, Note_on_c, 9, 56, 127
4, 172404, Note_on_c, 9, 36, 127
4, 172496, Note_on_c, 9, 36, 0
4, 172496, Note_on_c, 9, 56, 0
4, 172496, Note_on_c, 9, 62, 0
4, 172500, Note_on_c, 9, 42, 0
4, 172592, Note_on_c, 9, 36, 127
4, 172592, Note_on_c, 9, 62, 127
4, 172592, Note_on_c, 9, 42, 125
4, 172688, Note_on_c, 9, 42, 0
4, 172688, Note_on_c, 9, 62, 0
4, 172688, Note_on_c, 9, 36, 0
4, 172788, Note_on_c, 9, 56, 127
4, 172788, Note_on_c, 9, 42, 127
4, 172880, Note_on_c, 9, 42, 0
4, 172884, Note_on_c, 9, 56, 0
4, 172976, Note_on_c, 9, 62, 127
4, 172976, Note_on_c, 9, 42, 118
4, 173072, Note_on_c, 9, 42, 0
4, 173072, Note_on_c, 9, 62, 0
4, 173168, Note_on_c, 9, 64, 127
4, 173168, Note_on_c, 9, 64, 127
4, 173172, Note_on_c, 9, 42, 127
4, 173172, Note_on_c, 9, 56, 127
4, 173176, Note_on_c, 9, 36, 127
4, 173264, Note_on_c, 9, 36, 0
4, 173264, Note_on_c, 9, 64, 0
4, 173264, Note_on_c, 9, 56, 0
4, 173268, Note_on_c, 9, 42, 0
4, 173268, Note_on_c, 9, 64, 0
4, 173360, Note_on_c, 9, 42, 127
4, 173360, Note_on_c, 9, 36, 127
4, 173360, Note_on_c, 9, 64, 127
4, 173456, Note_on_c, 9, 64, 0
4, 173456, Note_on_c, 9, 36, 0
4, 173456, Note_on_c, 9, 42, 0
4, 173552, Note_on_c, 9, 56, 127
4, 173552, Note_on_c, 9, 42, 127
4, 173648, Note_on_c, 9, 42, 0
4, 173648, Note_on_c, 9, 56, 0
4, 173744, Note_on_c, 9, 42, 127
4, 173744, Note_on_c, 9, 64, 66
4, 173744, Note_on_c, 9, 63, 98
4, 173840, Note_on_c, 9, 63, 0
4, 173840, Note_on_c, 9, 64, 0
4, 173840, Note_on_c, 9, 42, 0
4, 173840, Note_on_c, 9, 62, 111
4, 173840, Note_on_c, 9, 62, 127
4, 173936, Note_on_c, 9, 62, 0
4, 173936, Note_on_c, 9, 62, 0
4, 173940, Note_on_c, 9, 36, 127
4, 173940, Note_on_c, 9, 56, 127
4, 173940, Note_on_c, 9, 42, 127
4, 174032, Note_on_c, 9, 42, 0
4, 174032, Note_on_c, 9, 56, 0
4, 174032, Note_on_c, 9, 36, 0
4, 174128, Note_on_c, 9, 42, 127
4, 174128, Note_on_c, 9, 62, 127
4, 174128, Note_on_c, 9, 36, 127
4, 174224, Note_on_c, 9, 36, 0
4, 174224, Note_on_c, 9, 62, 0
4, 174224, Note_on_c, 9, 42, 0
4, 174320, Note_on_c, 9, 62, 127
4, 174324, Note_on_c, 9, 56, 127
4, 174328, Note_on_c, 9, 42, 127
4, 174416, Note_on_c, 9, 42, 0
4, 174416, Note_on_c, 9, 62, 0
4, 174420, Note_on_c, 9, 56, 0
4, 174512, Note_on_c, 9, 62, 127
4, 174512, Note_on_c, 9, 42, 127
4, 174608, Note_on_c, 9, 42, 0
4, 174608, Note_on_c, 9, 62, 0
4, 174704, Note_on_c, 9, 64, 127
4, 174704, Note_on_c, 9, 56, 127
4, 174708, Note_on_c, 9, 36, 127
4, 174708, Note_on_c, 9, 42, 127
4, 174800, Note_on_c, 9, 36, 0
4, 174800, Note_on_c, 9, 64, 0
4, 174800, Note_on_c, 9, 56, 0
4, 174804, Note_on_c, 9, 42, 0
4, 174896, Note_on_c, 9, 36, 127
4, 174896, Note_on_c, 9, 46, 127
4, 174896, Note_on_c, 9, 64, 127
4, 174992, Note_on_c, 9, 64, 0
4, 174992, Note_on_c, 9, 46, 0
4, 174992, Note_on_c, 9, 36, 0
4, 175088, Note_on_c, 9, 42, 127
4, 175088, Note_on_c, 9, 56, 127
4, 175184, Note_on_c, 9, 56, 0
4, 175184, Note_on_c, 9, 42, 0
4, 175280, Note_on_c, 9, 42, 127
4, 175376, Note_on_c, 9, 42, 0
4, 175472, Note_on_c, 9, 62, 127
4, 175472, Note_on_c, 9, 56, 127
4, 175476, Note_on_c, 9, 36, 127
4, 175476, Note_on_c, 9, 42, 127
4, 175568, Note_on_c, 9, 42, 0
4, 175568, Note_on_c, 9, 62, 0
4, 175568, Note_on_c, 9, 56, 0
4, 175568, Note_on_c, 9, 36, 0
4, 175664, Note_on_c, 9, 42, 127
4, 175664, Note_on_c, 9, 36, 127
4, 175664, Note_on_c, 9, 62, 127
4, 175760, Note_on_c, 9, 62, 0
4, 175760, Note_on_c, 9, 36, 0
4, 175760, Note_on_c, 9, 42, 0
4, 175860, Note_on_c, 9, 42, 127
4, 175860, Note_on_c, 9, 56, 127
4, 175952, Note_on_c, 9, 42, 0
4, 175956, Note_on_c, 9, 56, 0
4, 176048, Note_on_c, 9, 62, 127
4, 176048, Note_on_c, 9, 42, 127
4, 176144, Note_on_c, 9, 42, 0
4, 176144, Note_on_c, 9, 62, 0
4, 176240, Note_on_c, 9, 64, 127
4, 176240, Note_on_c, 9, 36, 127
4, 176240, Note_on_c, 9, 56, 127
4, 176240, Note_on_c, 9, 42, 127
4, 176336, Note_on_c, 9, 56, 0
4, 176336, Note_on_c, 9, 64, 0
4, 176336, Note_on_c, 9, 36, 0
4, 176340, Note_on_c, 9, 42, 0
4, 176432, Note_on_c, 9, 64, 127
4, 176432, Note_on_c, 9, 42, 127
4, 176432, Note_on_c, 9, 36, 127
4, 176528, Note_on_c, 9, 36, 0
4, 176528, Note_on_c, 9, 42, 0
4, 176528, Note_on_c, 9, 64, 0
4, 176624, Note_on_c, 9, 56, 127
4, 176628, Note_on_c, 9, 42, 127
4, 176720, Note_on_c, 9, 42, 0
4, 176720, Note_on_c, 9, 56, 0
4, 176816, Note_on_c, 9, 63, 98
4, 176816, Note_on_c, 9, 42, 127
4, 176912, Note_on_c, 9, 42, 0
4, 176912, Note_on_c, 9, 63, 0
4, 176912, Note_on_c, 9, 62, 122
4, 177008, Note_on_c, 9, 62, 0
4, 177008, Note_on_c, 9, 62, 125
4, 177008, Note_on_c, 9, 56, 127
4, 177012, Note_on_c, 9, 42, 127
4, 177016, Note_on_c, 9, 36, 127
4, 177104, Note_on_c, 9, 42, 0
4, 177104, Note_on_c, 9, 62, 0
4, 177108, Note_on_c, 9, 56, 0
4, 177108, Note_on_c, 9, 36, 0
4, 177200, Note_on_c, 9, 42, 127
4, 177200, Note_on_c, 9, 36, 127
4, 177200, Note_on_c, 9, 62, 127
4, 177296, Note_on_c, 9, 62, 0
4, 177296, Note_on_c, 9, 36, 0
4, 177296, Note_on_c, 9, 42, 0
4, 177392, Note_on_c, 9, 62, 118
4, 177396, Note_on_c, 9, 56, 127
4, 177396, Note_on_c, 9, 42, 127
4, 177488, Note_on_c, 9, 42, 0
4, 177488, Note_on_c, 9, 62, 0
4, 177492, Note_on_c, 9, 56, 0
4, 177584, Note_on_c, 9, 42, 127
4, 177584, Note_on_c, 9, 62, 127
4, 177584, Note_on_c, 9, 66, 111
4, 177680, Note_on_c, 9, 66, 0
4, 177680, Note_on_c, 9, 62, 0
4, 177680, Note_on_c, 9, 42, 0
4, 177680, Note_on_c, 9, 65, 127
4, 177684, Note_on_c, 9, 65, 127
4, 177776, Note_on_c, 9, 65, 0
4, 177776, Note_on_c, 9, 65, 0
4, 177776, Note_on_c, 9, 64, 127
4, 177780, Note_on_c, 9, 55, 127
4, 177780, Note_on_c, 9, 56, 127
4, 177780, Note_on_c, 9, 43, 127
4, 177784, Note_on_c, 9, 42, 127
4, 177784, Note_on_c, 9, 36, 127
4, 177872, Note_on_c, 9, 36, 0
4, 177872, Note_on_c, 9, 56, 0
4, 177872, Note_on_c, 9, 42, 0
4, 177876, Note_on_c, 9, 64, 0
4, 177968, Note_on_c, 9, 46, 127
4, 177968, Note_on_c, 9, 64, 127
4, 177968, Note_on_c, 9, 36, 127
4, 178064, Note_on_c, 9, 36, 0
4, 178064, Note_on_c, 9, 64, 0
4, 178160, Note_on_c, 9, 55, 0
4, 178160, Note_on_c, 9, 43, 0
4, 178160, Note_on_c, 9, 46, 0
4, 178164, Note_on_c, 9, 42, 127
4, 178164, Note_on_c, 9, 56, 127
4, 178256, Note_on_c, 9, 56, 0
4, 178256, Note_on_c, 9, 42, 0
4, 178352, Note_on_c, 9, 42, 121
4, 178448, Note_on_c, 9, 42, 0
4, 178448, Note_on_c, 9, 63, 121
4, 178448, Note_on_c, 9, 62, 121
4, 178544, Note_on_c, 9, 62, 0
4, 178544, Note_on_c, 9, 63, 0
4, 178544, Note_on_c, 9, 62, 119
4, 178548, Note_on_c, 9, 56, 119
4, 178548, Note_on_c, 9, 42, 119
4, 178548, Note_on_c, 9, 36, 119
4, 178640, Note_on_c, 9, 42, 0
4, 178640, Note_on_c, 9, 62, 0
4, 178640, Note_on_c, 9, 56, 0
4, 178644, Note_on_c, 9, 36, 0
4, 178736, Note_on_c, 9, 36, 116
4, 178736, Note_on_c, 9, 42, 116
4, 178736, Note_on_c, 9, 62, 116
4, 178832, Note_on_c, 9, 62, 0
4, 178832, Note_on_c, 9, 42, 0
4, 178832, Note_on_c, 9, 36, 0
4, 178932, Note_on_c, 9, 56, 110
4, 178932, Note_on_c, 9, 42, 110
4, 179024, Note_on_c, 9, 42, 0
4, 179024, Note_on_c, 9, 56, 0
4, 179120, Note_on_c, 9, 42, 106
4, 179120, Note_on_c, 9, 62, 106
4, 179216, Note_on_c, 9, 62, 0
4, 179216, Note_on_c, 9, 42, 0
4, 179312, Note_on_c, 9, 64, 102
4, 179312, Note_on_c, 9, 64, 102
4, 179316, Note_on_c, 9, 42, 102
4, 179316, Note_on_c, 9, 56, 102
4, 179320, Note_on_c, 9, 36, 102
4, 179408, Note_on_c, 9, 36, 0
4, 179408, Note_on_c, 9, 64, 0
4, 179408, Note_on_c, 9, 56, 0
4, 179412, Note_on_c, 9, 42, 0
4, 179412, Note_on_c, 9, 64, 0
4, 179504, Note_on_c, 9, 64, 100
4, 179504, Note_on_c, 9, 42, 100
4, 179504, Note_on_c, 9, 36, 100
4, 179600, Note_on_c, 9, 36, 0
4, 179600, Note_on_c, 9, 42, 0
4, 179600, Note_on_c, 9, 64, 0
4, 179696, Note_on_c, 9, 42, 96
4, 179696, Note_on_c, 9, 56, 96
4, 179792, Note_on_c, 9, 56, 0
4, 179792, Note_on_c, 9, 42, 0
4, 179888, Note_on_c, 9, 64, 93
4, 179888, Note_on_c, 9, 63, 93
4, 179888, Note_on_c, 9, 42, 93
4, 179984, Note_on_c, 9, 42, 0
4, 179984, Note_on_c, 9, 63, 0
4, 179984, Note_on_c, 9, 64, 0
4, 179984, Note_on_c, 9, 62, 90
4, 179988, Note_on_c, 9, 62, 90
4, 180080, Note_on_c, 9, 62, 0
4, 180080, Note_on_c, 9, 62, 0
4, 180080, Note_on_c, 9, 56, 89
4, 180084, Note_on_c, 9, 42, 89
4, 180084, Note_on_c, 9, 36, 89
4, 180176, Note_on_c, 9, 36, 0
4, 180176, Note_on_c, 9, 42, 0
4, 180176, Note_on_c, 9, 56, 0
4, 180272, Note_on_c, 9, 36, 85
4, 180272, Note_on_c, 9, 62, 85
4, 180272, Note_on_c, 9, 42, 85
4, 180368, Note_on_c, 9, 42, 0
4, 180368, Note_on_c, 9, 62, 0
4, 180368, Note_on_c, 9, 36, 0
4, 180464, Note_on_c, 9, 62, 78
4, 180464, Note_on_c, 9, 56, 78
4, 180468, Note_on_c, 9, 42, 78
4, 180560, Note_on_c, 9, 42, 0
4, 180560, Note_on_c, 9, 62, 0
4, 180564, Note_on_c, 9, 56, 0
4, 180656, Note_on_c, 9, 62, 71
4, 180656, Note_on_c, 9, 42, 71
4, 180752, Note_on_c, 9, 42, 0
4, 180752, Note_on_c, 9, 62, 0
4, 180848, Note_on_c, 9, 64, 66
4, 180852, Note_on_c, 9, 56, 66
4, 180852, Note_on_c, 9, 36, 66
4, 180852, Note_on_c, 9, 42, 66
4, 180944, Note_on_c, 9, 36, 0
4, 180944, Note_on_c, 9, 64, 0
4, 180948, Note_on_c, 9, 56, 0
4, 180948, Note_on_c, 9, 42, 0
4, 181040, Note_on_c, 9, 36, 62
4, 181040, Note_on_c, 9, 46, 62
4, 181040, Note_on_c, 9, 64, 62
4, 181136, Note_on_c, 9, 64, 0
4, 181136, Note_on_c, 9, 46, 0
4, 181136, Note_on_c, 9, 36, 0
4, 181232, Note_on_c, 9, 56, 59
4, 181232, Note_on_c, 9, 42, 59
4, 181328, Note_on_c, 9, 42, 0
4, 181328, Note_on_c, 9, 56, 0
4, 181424, Note_on_c, 9, 42, 57
4, 181520, Note_on_c, 9, 42, 0
4, 181616, Note_on_c, 9, 62, 54
4, 181620, Note_on_c, 9, 42, 54
4, 181620, Note_on_c, 9, 36, 54
4, 181620, Note_on_c, 9, 56, 54
4, 181712, Note_on_c, 9, 56, 0
4, 181712, Note_on_c, 9, 62, 0
4, 181712, Note_on_c, 9, 42, 0
4, 181716, Note_on_c, 9, 36, 0
4, 181808, Note_on_c, 9, 42, 51
4, 181808, Note_on_c, 9, 62, 51
4, 181808, Note_on_c, 9, 36, 51
4, 181904, Note_on_c, 9, 36, 0
4, 181904, Note_on_c, 9, 62, 0
4, 181904, Note_on_c, 9, 42, 0
4, 182004, Note_on_c, 9, 42, 47
4, 182004, Note_on_c, 9, 56, 47
4, 182096, Note_on_c, 9, 56, 0
4, 182096, Note_on_c, 9, 42, 0
4, 182192, Note_on_c, 9, 62, 44
4, 182192, Note_on_c, 9, 42, 44
4, 182288, Note_on_c, 9, 42, 0
4, 182288, Note_on_c, 9, 62, 0
4, 182384, Note_on_c, 9, 64, 38
4, 182384, Note_on_c, 9, 56, 38
4, 182388, Note_on_c, 9, 36, 38
4, 182388, Note_on_c, 9, 42, 38
4, 182480, Note_on_c, 9, 36, 0
4, 182480, Note_on_c, 9, 64, 0
4, 182484, Note_on_c, 9, 56, 0
4, 182484, Note_on_c, 9, 42, 0
4, 182576, Note_on_c, 9, 42, 34
4, 182576, Note_on_c, 9, 36, 34
4, 182580, Note_on_c, 9, 64, 34
4, 182672, Note_on_c, 9, 64, 0
4, 182672, Note_on_c, 9, 36, 0
4, 182672, Note_on_c, 9, 42, 0
4, 182768, Note_on_c, 9, 56, 31
4, 182772, Note_on_c, 9, 42, 31
4, 182864, Note_on_c, 9, 42, 0
4, 182864, Note_on_c, 9, 56, 0
4, 182960, Note_on_c, 9, 42, 28
4, 182960, Note_on_c, 9, 63, 28
4, 183056, Note_on_c, 9, 63, 0
4, 183056, Note_on_c, 9, 42, 0
4, 183056, Note_on_c, 9, 62, 28
4, 183152, Note_on_c, 9, 62, 0
4, 183152, Note_on_c, 9, 62, 25
4, 183152, Note_on_c, 9, 56, 25
4, 183156, Note_on_c, 9, 42, 25
4, 183156, Note_on_c, 9, 36, 25
4, 183248, Note_on_c, 9, 36, 0
4, 183248, Note_on_c, 9, 62, 0
4, 183248, Note_on_c, 9, 56, 0
4, 183252, Note_on_c, 9, 42, 0
4, 183344, Note_on_c, 9, 62, 23
4, 183344, Note_on_c, 9, 42, 23
4, 183348, Note_on_c, 9, 36, 23
4, 183440, Note_on_c, 9, 36, 0
4, 183440, Note_on_c, 9, 42, 0
4, 183440, Note_on_c, 9, 62, 0
4, 183536, Note_on_c, 9, 62, 18
4, 183540, Note_on_c, 9, 56, 18
4, 183540, Note_on_c, 9, 42, 18
4, 183632, Note_on_c, 9, 42, 0
4, 183632, Note_on_c, 9, 56, 0
4, 183632, Note_on_c, 9, 62, 0
4, 183728, Note_on_c, 9, 42, 13
4, 183728, Note_on_c, 9, 62, 13
4, 183824, Note_on_c, 9, 62, 0
4, 183824, Note_on_c, 9, 42, 0
4, 183920, Note_on_c, 9, 64, 9
4, 183920, Note_on_c, 9, 56, 9
4, 183924, Note_on_c, 9, 42, 9
4, 184016, Note_on_c, 9, 42, 0
4, 184016, Note_on_c, 9, 56, 0
4, 184016, Note_on_c, 9, 64, 0
4, 184112, Note_on_c, 9, 46, 5
4, 184112, Note_on_c, 9, 64, 5
4, 184208, Note_on_c, 9, 64, 0
4, 184304, Note_on_c, 9, 46, 0
4, 184304, Note_on_c, 9, 56, 2
4, 184304, Note_on_c, 9, 75, 2
4, 184308, Note_on_c, 9, 42, 2
4, 184400, Note_on_c, 9, 42, 0
4, 184400, Note_on_c, 9, 56, 0
4, 184592, Note_on_c, 9, 75, 0
4, 184592, End_track
0, 0, End_of_file
