0, 0, Header, 0, 1, 384
1, 0, Start_track
1, 0, Title_t, "untitled"
1, 0, System_exclusive, 5, 126, 127, 9, 1, 247
1, 0, Time_signature, 4, 2, 24, 8
1, 0, Key_signature, -1, "major"
1, 0, Tempo, 1159869
1, 0, Sequencer_specific, 21, 67, 115, 10, 0, 5, 75, 79, 79, 79, 79, 79, 79, 79, 79, 79, 79, 79, 79, 79, 79, 79
1, 0, Sequencer_specific, 6, 67, 115, 10, 0, 4, 1
1, 0, Sequencer_specific, 9, 67, 123, 0, 88, 70, 48, 50, 0, 0
1, 385, Control_c, 0, 7, 107
1, 385, Control_c, 0, 10, 64
1, 385, Control_c, 0, 91, 10
1, 385, Control_c, 0, 93, 0
1, 1536, Note_on_c, 0, 68, 71
1, 1536, Note_on_c, 0, 80, 51
1, 1536, Note_on_c, 0, 41, 49
1, 1546, Note_on_c, 0, 48, 33
1, 1550, Note_on_c, 0, 80, 0
1, 1554, Note_on_c, 0, 57, 48
1, 1554, Control_c, 0, 11, 127
1, 1554, Control_c, 0, 94, 0
1, 1554, Control_c, 0, 101, 0
1, 1555, Control_c, 0, 100, 1
1, 1556, Control_c, 0, 6, 64
1, 1557, Control_c, 0, 38, 0
1, 1558, Note_on_c, 0, 68, 0
1, 1558, Pitch_bend_c, 0, 8192
1, 1558, Control_c, 0, 71, 43
1, 1558, Control_c, 0, 74, 46
1, 1558, Control_c, 0, 64, 0
1, 1558, Control_c, 0, 1, 0
1, 1558, Note_on_c, 0, 81, 39
1, 1560, Control_c, 0, 64, 127
1, 1560, Note_on_c, 0, 69, 54
1, 1668, Note_on_c, 0, 69, 0
1, 1670, Note_on_c, 0, 41, 0
1, 1682, Note_on_c, 0, 48, 0
1, 1684, Note_on_c, 0, 81, 0
1, 1702, Note_on_c, 0, 57, 0
1, 1788, Note_on_c, 0, 84, 80
1, 1790, Note_on_c, 0, 72, 66
1, 1908, Note_on_c, 0, 64, 33
1, 1910, Note_on_c, 0, 60, 42
1, 1914, Note_on_c, 0, 53, 39
1, 1922, Note_on_c, 0, 57, 31
1, 1970, Note_on_c, 0, 84, 0
1, 1986, Note_on_c, 0, 60, 0
1, 1992, Note_on_c, 0, 72, 0
1, 1992, Note_on_c, 0, 64, 0
1, 1994, Note_on_c, 0, 57, 0
1, 2034, Note_on_c, 0, 53, 0
1, 2288, Note_on_c, 0, 68, 87
1, 2290, Note_on_c, 0, 64, 86
1, 2290, Control_c, 0, 64, 0
1, 2290, Note_on_c, 0, 74, 86
1, 2298, Note_on_c, 0, 58, 72
1, 2344, Control_c, 0, 64, 127
1, 2412, Note_on_c, 0, 74, 0
1, 2436, Note_on_c, 0, 64, 0
1, 2454, Note_on_c, 0, 68, 0
1, 2458, Note_on_c, 0, 58, 0
1, 2534, Note_on_c, 0, 72, 61
1, 2536, Note_on_c, 0, 62, 64
1, 2540, Note_on_c, 0, 57, 60
1, 2542, Note_on_c, 0, 67, 55
1, 2576, Note_on_c, 0, 67, 0
1, 2576, Note_on_c, 0, 72, 0
1, 2604, Note_on_c, 0, 62, 0
1, 2662, Control_c, 0, 64, 0
1, 2676, Note_on_c, 0, 57, 0
1, 2684, Note_on_c, 0, 60, 48
1, 2686, Note_on_c, 0, 69, 49
1, 2686, Note_on_c, 0, 64, 57
1, 2690, Note_on_c, 0, 53, 50
1, 2734, Control_c, 0, 64, 127
1, 2774, Note_on_c, 0, 53, 0
1, 2848, Note_on_c, 0, 60, 0
1, 2916, Note_on_c, 0, 64, 0
1, 2924, Note_on_c, 0, 60, 55
1, 2926, Note_on_c, 0, 69, 0
1, 2952, Note_on_c, 0, 60, 0
1, 3050, Control_c, 0, 64, 0
1, 3056, Note_on_c, 0, 40, 48
1, 3056, Note_on_c, 0, 58, 46
1, 3062, Note_on_c, 0, 67, 42
1, 3064, Note_on_c, 0, 55, 43
1, 3068, Note_on_c, 0, 62, 46
1, 3100, Control_c, 0, 64, 127
1, 3136, Note_on_c, 0, 58, 0
1, 3150, Note_on_c, 0, 62, 0
1, 3152, Note_on_c, 0, 40, 0
1, 3168, Note_on_c, 0, 67, 0
1, 3196, Note_on_c, 0, 55, 0
1, 3432, Note_on_c, 0, 58, 39
1, 3436, Note_on_c, 0, 62, 41
1, 3436, Control_c, 0, 64, 0
1, 3450, Note_on_c, 0, 52, 40
1, 3486, Control_c, 0, 64, 127
1, 3572, Note_on_c, 0, 69, 61
1, 3590, Note_on_c, 0, 52, 0
1, 3606, Note_on_c, 0, 58, 0
1, 3626, Note_on_c, 0, 70, 68
1, 3630, Note_on_c, 0, 69, 0
1, 3638, Note_on_c, 0, 62, 0
1, 3658, Note_on_c, 0, 70, 0
1, 3684, Note_on_c, 0, 74, 84
1, 3722, Note_on_c, 0, 74, 0
1, 3738, Note_on_c, 0, 77, 90
1, 3790, Note_on_c, 0, 81, 82
1, 3806, Note_on_c, 0, 77, 0
1, 3816, Control_c, 0, 64, 0
1, 3836, Note_on_c, 0, 81, 0
1, 3836, Note_on_c, 0, 65, 51
1, 3836, Note_on_c, 0, 61, 49
1, 3840, Tempo, 1142639
1, 3842, Note_on_c, 0, 55, 46
1, 3842, Note_on_c, 0, 78, 29
1, 3850, Note_on_c, 0, 82, 80
1, 3872, Note_on_c, 0, 78, 0
1, 3900, Note_on_c, 0, 82, 0
1, 3922, Note_on_c, 0, 84, 84
1, 3958, Note_on_c, 0, 84, 0
1, 4002, Note_on_c, 0, 73, 60
1, 4032, Note_on_c, 0, 73, 0
1, 4088, Note_on_c, 0, 72, 41
1, 4100, Note_on_c, 0, 65, 0
1, 4124, Note_on_c, 0, 72, 0
1, 4132, Note_on_c, 0, 61, 0
1, 4154, Control_c, 0, 64, 127
1, 4170, Control_c, 0, 64, 0
1, 4224, Tempo, 1113999
1, 4224, Note_on_c, 0, 65, 39
1, 4228, Control_c, 0, 64, 127
1, 4232, Note_on_c, 0, 61, 36
1, 4302, Note_on_c, 0, 65, 0
1, 4320, Note_on_c, 0, 70, 66
1, 4330, Note_on_c, 0, 61, 0
1, 4356, Note_on_c, 0, 55, 0
1, 4374, Note_on_c, 0, 70, 0
1, 4390, Note_on_c, 0, 69, 66
1, 4418, Note_on_c, 0, 69, 0
1, 4426, Note_on_c, 0, 67, 49
1, 4454, Note_on_c, 0, 67, 0
1, 4482, Note_on_c, 0, 65, 31
1, 4526, Note_on_c, 0, 65, 0
1, 4534, Note_on_c, 0, 64, 50
1, 4552, Note_on_c, 0, 64, 0
1, 4572, Note_on_c, 0, 67, 81
1, 4594, Control_c, 0, 64, 0
1, 4608, Tempo, 1168224
1, 4612, Note_on_c, 0, 64, 64
1, 4620, Note_on_c, 0, 67, 0
1, 4622, Note_on_c, 0, 50, 40
1, 4626, Note_on_c, 0, 57, 39
1, 4638, Note_on_c, 0, 64, 0
1, 4656, Note_on_c, 0, 65, 68
1, 4692, Control_c, 0, 64, 127
1, 4724, Note_on_c, 0, 62, 54
1, 4740, Note_on_c, 0, 65, 0
1, 4754, Note_on_c, 0, 62, 0
1, 4794, Note_on_c, 0, 62, 54
1, 4832, Note_on_c, 0, 62, 0
1, 4842, Note_on_c, 0, 57, 0
1, 4862, Note_on_c, 0, 62, 60
1, 4892, Note_on_c, 0, 62, 0
1, 4924, Note_on_c, 0, 62, 63
1, 4958, Note_on_c, 0, 62, 0
1, 4992, Tempo, 1071811
1, 4996, Note_on_c, 0, 57, 39
1, 5004, Note_on_c, 0, 62, 92
1, 5088, Note_on_c, 0, 62, 0
1, 5092, Note_on_c, 0, 64, 66
1, 5138, Note_on_c, 0, 62, 58
1, 5140, Note_on_c, 0, 64, 0
1, 5162, Note_on_c, 0, 57, 0
1, 5172, Note_on_c, 0, 50, 0
1, 5180, Note_on_c, 0, 64, 48
1, 5182, Note_on_c, 0, 62, 0
1, 5214, Note_on_c, 0, 62, 49
1, 5218, Note_on_c, 0, 64, 0
1, 5244, Note_on_c, 0, 62, 0
1, 5250, Note_on_c, 0, 64, 56
1, 5270, Note_on_c, 0, 64, 0
1, 5280, Note_on_c, 0, 62, 40
1, 5294, Note_on_c, 0, 62, 0
1, 5306, Note_on_c, 0, 64, 56
1, 5326, Note_on_c, 0, 62, 53
1, 5342, Note_on_c, 0, 64, 0
1, 5360, Note_on_c, 0, 61, 62
1, 5362, Note_on_c, 0, 62, 0
1, 5376, Tempo, 1111935
1, 5390, Note_on_c, 0, 61, 0
1, 5392, Control_c, 0, 64, 0
1, 5394, Note_on_c, 0, 57, 39
1, 5398, Note_on_c, 0, 62, 63
1, 5398, Note_on_c, 0, 48, 44
1, 5500, Control_c, 0, 64, 127
1, 5516, Note_on_c, 0, 57, 0
1, 5550, Note_on_c, 0, 66, 1
1, 5566, Note_on_c, 0, 62, 0
1, 5614, Note_on_c, 0, 57, 68
1, 5676, Note_on_c, 0, 57, 0
1, 5704, Note_on_c, 0, 66, 0
1, 5746, Note_on_c, 0, 57, 56
1, 5760, Tempo, 1068186
1, 5806, Note_on_c, 0, 57, 0
1, 5870, Note_on_c, 0, 62, 57
1, 5880, Note_on_c, 0, 48, 0
1, 5986, Note_on_c, 0, 62, 0
1, 5988, Note_on_c, 0, 69, 58
1, 5990, Note_on_c, 0, 48, 37
1, 6022, Note_on_c, 0, 69, 0
1, 6030, Note_on_c, 0, 48, 0
1, 6116, Control_c, 0, 64, 0
1, 6120, Note_on_c, 0, 71, 53
1, 6124, Note_on_c, 0, 67, 49
1, 6128, Note_on_c, 0, 62, 38
1, 6132, Note_on_c, 0, 47, 36
1, 6138, Note_on_c, 0, 57, 19
1, 6144, Tempo, 1224990
1, 6160, Control_c, 0, 64, 127
1, 6172, Note_on_c, 0, 67, 0
1, 6174, Note_on_c, 0, 62, 0
1, 6182, Note_on_c, 0, 47, 0
1, 6186, Note_on_c, 0, 71, 0
1, 6204, Note_on_c, 0, 57, 0
1, 6276, Note_on_c, 0, 73, 62
1, 6278, Control_c, 0, 64, 0
1, 6282, Note_on_c, 0, 70, 65
1, 6290, Note_on_c, 0, 58, 54
1, 6308, Control_c, 0, 64, 127
1, 6372, Note_on_c, 0, 73, 0
1, 6380, Note_on_c, 0, 70, 0
1, 6398, Note_on_c, 0, 74, 68
1, 6400, Note_on_c, 0, 58, 0
1, 6408, Note_on_c, 0, 67, 61
1, 6410, Note_on_c, 0, 59, 55
1, 6412, Note_on_c, 0, 62, 56
1, 6442, Note_on_c, 0, 67, 0
1, 6446, Note_on_c, 0, 74, 0
1, 6482, Note_on_c, 0, 62, 0
1, 6514, Note_on_c, 0, 59, 0
1, 6528, Tempo, 1141770
1, 6540, Note_on_c, 0, 71, 63
1, 6544, Note_on_c, 0, 62, 61
1, 6546, Note_on_c, 0, 55, 51
1, 6556, Note_on_c, 0, 71, 0
1, 6562, Note_on_c, 0, 55, 0
1, 6562, Note_on_c, 0, 62, 0
1, 6640, Control_c, 0, 64, 0
1, 6660, Note_on_c, 0, 67, 57
1, 6664, Note_on_c, 0, 59, 49
1, 6664, Note_on_c, 0, 55, 48
1, 6666, Control_c, 0, 64, 127
1, 6666, Note_on_c, 0, 62, 55
1, 6696, Control_c, 0, 64, 0
1, 6746, Note_on_c, 0, 59, 0
1, 6754, Note_on_c, 0, 55, 0
1, 6760, Note_on_c, 0, 67, 0
1, 6762, Note_on_c, 0, 62, 0
1, 6766, Control_c, 0, 64, 127
1, 6776, Note_on_c, 0, 47, 46
1, 6800, Note_on_c, 0, 47, 0
1, 6890, Control_c, 0, 64, 0
1, 6902, Note_on_c, 0, 64, 56
1, 6902, Note_on_c, 0, 55, 54
1, 6902, Note_on_c, 0, 34, 49
1, 6906, Note_on_c, 0, 46, 41
1, 6908, Note_on_c, 0, 60, 56
1, 6912, Tempo, 1220256
1, 6926, Control_c, 0, 64, 127
1, 6932, Note_on_c, 0, 55, 0
1, 6942, Note_on_c, 0, 60, 0
1, 6952, Note_on_c, 0, 64, 0
1, 6990, Note_on_c, 0, 34, 0
1, 6992, Note_on_c, 0, 46, 0
1, 7034, Note_on_c, 0, 76, 82
1, 7064, Note_on_c, 0, 76, 0
1, 7296, Tempo, 1094891
1, 7304, Control_c, 0, 64, 0
1, 7308, Note_on_c, 0, 56, 107
1, 7308, Note_on_c, 0, 65, 99
1, 7310, Note_on_c, 0, 51, 96
1, 7310, Note_on_c, 0, 39, 87
1, 7310, Note_on_c, 0, 61, 83
1, 7356, Control_c, 0, 64, 127
1, 7406, Note_on_c, 0, 65, 0
1, 7406, Note_on_c, 0, 56, 0
1, 7412, Note_on_c, 0, 51, 0
1, 7416, Note_on_c, 0, 61, 0
1, 7418, Note_on_c, 0, 39, 0
1, 7432, Note_on_c, 0, 56, 61
1, 7434, Note_on_c, 0, 65, 57
1, 7434, Note_on_c, 0, 51, 60
1, 7436, Note_on_c, 0, 39, 52
1, 7436, Note_on_c, 0, 61, 55
1, 7456, Note_on_c, 0, 65, 0
1, 7460, Note_on_c, 0, 56, 0
1, 7476, Note_on_c, 0, 61, 0
1, 7476, Note_on_c, 0, 51, 0
1, 7490, Note_on_c, 0, 39, 0
1, 7544, Control_c, 0, 64, 0
1, 7554, Note_on_c, 0, 49, 78
1, 7554, Note_on_c, 0, 37, 76
1, 7554, Note_on_c, 0, 58, 85
1, 7554, Note_on_c, 0, 67, 73
1, 7558, Note_on_c, 0, 63, 65
1, 7584, Control_c, 0, 64, 127
1, 7594, Note_on_c, 0, 67, 0
1, 7626, Note_on_c, 0, 58, 0
1, 7630, Note_on_c, 0, 63, 0
1, 7640, Note_on_c, 0, 49, 0
1, 7648, Note_on_c, 0, 37, 0
1, 7680, Tempo, 1036986
1, 7690, Control_c, 0, 64, 0
1, 7690, Note_on_c, 0, 48, 87
1, 7690, Note_on_c, 0, 65, 78
1, 7690, Note_on_c, 0, 69, 81
1, 7690, Note_on_c, 0, 60, 84
1, 7694, Note_on_c, 0, 36, 76
1, 7750, Control_c, 0, 64, 127
1, 7824, Note_on_c, 0, 36, 0
1, 7882, Note_on_c, 0, 65, 0
1, 7884, Note_on_c, 0, 60, 0
1, 7890, Note_on_c, 0, 69, 0
1, 7918, Note_on_c, 0, 36, 61
1, 7946, Note_on_c, 0, 48, 0
1, 7962, Note_on_c, 0, 36, 0
1, 8064, Tempo, 1170275
1, 8064, Control_c, 0, 64, 0
1, 8068, Note_on_c, 0, 72, 57
1, 8070, Note_on_c, 0, 46, 50
1, 8072, Note_on_c, 0, 34, 52
1, 8076, Note_on_c, 0, 64, 45
1, 8076, Note_on_c, 0, 60, 51
1, 8076, Note_on_c, 0, 67, 55
1, 8128, Control_c, 0, 64, 127
1, 8196, Note_on_c, 0, 60, 0
1, 8226, Note_on_c, 0, 34, 0
1, 8242, Note_on_c, 0, 64, 0
1, 8268, Note_on_c, 0, 67, 0
1, 8316, Note_on_c, 0, 34, 56
1, 8316, Note_on_c, 0, 72, 0
1, 8378, Note_on_c, 0, 46, 0
1, 8398, Note_on_c, 0, 34, 0
1, 8432, Control_c, 0, 64, 0
1, 8448, Tempo, 1071811
1, 8456, Note_on_c, 0, 33, 53
1, 8472, Note_on_c, 0, 33, 0
1, 8474, Control_c, 0, 64, 127
1, 8660, Note_on_c, 0, 60, 30
1, 8676, Note_on_c, 0, 63, 55
1, 8678, Note_on_c, 0, 60, 0
1, 8682, Note_on_c, 0, 68, 67
1, 8684, Note_on_c, 0, 66, 57
1, 8688, Note_on_c, 0, 64, 62
1, 8688, Note_on_c, 0, 76, 60
1, 8690, Control_c, 0, 64, 0
1, 8694, Note_on_c, 0, 72, 45
1, 8718, Note_on_c, 0, 68, 0
1, 8718, Note_on_c, 0, 63, 0
1, 8726, Note_on_c, 0, 69, 48
1, 8760, Control_c, 0, 64, 127
1, 8794, Note_on_c, 0, 69, 0
1, 8806, Note_on_c, 0, 66, 0
1, 8810, Note_on_c, 0, 72, 0
1, 8810, Note_on_c, 0, 76, 0
1, 8818, Note_on_c, 0, 64, 0
1, 8832, Tempo, 1160991
1, 8848, Control_c, 0, 64, 0
1, 8854, Note_on_c, 0, 66, 52
1, 8854, Note_on_c, 0, 68, 60
1, 8860, Note_on_c, 0, 76, 51
1, 8868, Note_on_c, 0, 64, 47
1, 8872, Note_on_c, 0, 72, 39
1, 8882, Note_on_c, 0, 68, 0
1, 8886, Note_on_c, 0, 69, 42
1, 8896, Control_c, 0, 64, 127
1, 8960, Note_on_c, 0, 64, 0
1, 8994, Note_on_c, 0, 69, 0
1, 9002, Note_on_c, 0, 66, 0
1, 9004, Note_on_c, 0, 76, 0
1, 9018, Note_on_c, 0, 72, 0
1, 9064, Note_on_c, 0, 66, 60
1, 9068, Note_on_c, 0, 74, 58
1, 9078, Note_on_c, 0, 69, 42
1, 9090, Note_on_c, 0, 69, 0
1, 9096, Note_on_c, 0, 74, 0
1, 9104, Note_on_c, 0, 66, 0
1, 9216, Tempo, 1218769
1, 9222, Note_on_c, 0, 43, 46
1, 9232, Note_on_c, 0, 65, 60
1, 9234, Control_c, 0, 64, 0
1, 9236, Note_on_c, 0, 72, 31
1, 9236, Note_on_c, 0, 50, 48
1, 9242, Note_on_c, 0, 70, 32
1, 9268, Note_on_c, 0, 58, 13
1, 9304, Control_c, 0, 64, 127
1, 9362, Note_on_c, 0, 43, 0
1, 9372, Note_on_c, 0, 50, 0
1, 9376, Note_on_c, 0, 65, 0
1, 9378, Note_on_c, 0, 58, 0
1, 9396, Note_on_c, 0, 72, 0
1, 9426, Note_on_c, 0, 70, 0
1, 9600, Tempo, 1190004
1, 9608, Note_on_c, 0, 58, 43
1, 9612, Note_on_c, 0, 57, 42
1, 9612, Note_on_c, 0, 62, 38
1, 9614, Note_on_c, 0, 53, 28
1, 9796, Note_on_c, 0, 53, 0
1, 9800, Note_on_c, 0, 58, 0
1, 9806, Note_on_c, 0, 57, 0
1, 9808, Note_on_c, 0, 62, 0
1, 9844, Note_on_c, 0, 84, 122
1, 9968, Note_on_c, 0, 69, 50
1, 9972, Note_on_c, 0, 58, 46
1, 9974, Note_on_c, 0, 64, 52
1, 9974, Control_c, 0, 64, 0
1, 9984, Tempo, 1180173
1, 10046, Control_c, 0, 64, 127
1, 10122, Note_on_c, 0, 82, 83
1, 10140, Note_on_c, 0, 84, 0
1, 10156, Note_on_c, 0, 69, 0
1, 10164, Note_on_c, 0, 64, 0
1, 10212, Note_on_c, 0, 58, 0
1, 10342, Note_on_c, 0, 82, 0
1, 10360, Control_c, 0, 64, 0
1, 10364, Note_on_c, 0, 81, 82
1, 10368, Tempo, 1186944
1, 10370, Note_on_c, 0, 46, 61
1, 10376, Note_on_c, 0, 56, 35
1, 10408, Control_c, 0, 64, 127
1, 10570, Note_on_c, 0, 56, 0
1, 10596, Note_on_c, 0, 46, 0
1, 10608, Note_on_c, 0, 52, 50
1, 10610, Note_on_c, 0, 79, 57
1, 10628, Note_on_c, 0, 81, 0
1, 10638, Note_on_c, 0, 79, 0
1, 10722, Control_c, 0, 64, 0
1, 10726, Note_on_c, 0, 52, 0
1, 10740, Note_on_c, 0, 84, 81
1, 10742, Note_on_c, 0, 72, 75
1, 10744, Note_on_c, 0, 45, 48
1, 10744, Note_on_c, 0, 80, 72
1, 10744, Note_on_c, 0, 55, 47
1, 10752, Tempo, 1176009
1, 10794, Control_c, 0, 64, 127
1, 10798, Note_on_c, 0, 80, 0
1, 10806, Note_on_c, 0, 81, 48
1, 10880, Note_on_c, 0, 45, 0
1, 10906, Note_on_c, 0, 55, 0
1, 11080, Note_on_c, 0, 72, 0
1, 11132, Note_on_c, 0, 61, 44
1, 11134, Note_on_c, 0, 65, 41
1, 11136, Tempo, 1216052
1, 11136, Note_on_c, 0, 60, 42
1, 11140, Note_on_c, 0, 55, 41
1, 11158, Note_on_c, 0, 84, 0
1, 11160, Note_on_c, 0, 81, 0
1, 11328, Note_on_c, 0, 89, 122
1, 11380, Note_on_c, 0, 65, 0
1, 11390, Note_on_c, 0, 55, 0
1, 11392, Note_on_c, 0, 60, 0
1, 11412, Note_on_c, 0, 61, 0
1, 11510, Control_c, 0, 64, 0
1, 11516, Note_on_c, 0, 65, 54
1, 11518, Note_on_c, 0, 60, 52
1, 11518, Note_on_c, 0, 54, 50
1, 11520, Tempo, 1112966
1, 11596, Control_c, 0, 64, 127
1, 11610, Control_c, 0, 64, 0
1, 11626, Note_on_c, 0, 89, 0
1, 11640, Note_on_c, 0, 85, 63
1, 11650, Note_on_c, 0, 86, 78
1, 11670, Note_on_c, 0, 85, 0
1, 11682, Control_c, 0, 64, 127
1, 11778, Note_on_c, 0, 65, 0
1, 11790, Note_on_c, 0, 60, 0
1, 11790, Note_on_c, 0, 86, 0
1, 11818, Note_on_c, 0, 54, 0
1, 11876, Note_on_c, 0, 80, 77
1, 11876, Note_on_c, 0, 86, 80
1, 11884, Control_c, 0, 64, 0
1, 11886, Note_on_c, 0, 60, 45
1, 11890, Note_on_c, 0, 50, 42
1, 11904, Tempo, 1207729
1, 11912, Note_on_c, 0, 80, 0
1, 11928, Note_on_c, 0, 81, 39
1, 11970, Note_on_c, 0, 81, 0
1, 11978, Note_on_c, 0, 86, 0
1, 12004, Control_c, 0, 64, 127
1, 12018, Note_on_c, 0, 74, 57
1, 12120, Note_on_c, 0, 50, 0
1, 12136, Note_on_c, 0, 74, 0
1, 12148, Note_on_c, 0, 60, 0
1, 12152, Note_on_c, 0, 77, 81
1, 12274, Note_on_c, 0, 77, 0
1, 12276, Control_c, 0, 64, 0
1, 12288, Tempo, 1137010
1, 12288, Note_on_c, 0, 58, 45
1, 12288, Note_on_c, 0, 70, 63
1, 12290, Note_on_c, 0, 62, 41
1, 12294, Note_on_c, 0, 53, 27
1, 12298, Note_on_c, 0, 57, 41
1, 12336, Control_c, 0, 64, 127
1, 12404, Note_on_c, 0, 70, 0
1, 12416, Note_on_c, 0, 77, 69
1, 12450, Note_on_c, 0, 62, 0
1, 12474, Note_on_c, 0, 77, 0
1, 12482, Note_on_c, 0, 58, 0
1, 12540, Note_on_c, 0, 65, 57
1, 12672, Tempo, 1181800
1, 12676, Note_on_c, 0, 62, 50
1, 12678, Note_on_c, 0, 58, 48
1, 12682, Note_on_c, 0, 53, 0
1, 12690, Note_on_c, 0, 62, 0
1, 12698, Note_on_c, 0, 57, 0
1, 12704, Note_on_c, 0, 58, 0
1, 12814, Note_on_c, 0, 70, 58
1, 12906, Note_on_c, 0, 70, 0
1, 13056, Tempo, 1170275
1, 13056, Control_c, 0, 64, 0
1, 13066, Note_on_c, 0, 36, 52
1, 13080, Note_on_c, 0, 65, 0
1, 13100, Control_c, 0, 64, 127
1, 13110, Note_on_c, 0, 36, 0
1, 13306, Note_on_c, 0, 76, 82
1, 13306, Note_on_c, 0, 64, 81
1, 13306, Note_on_c, 0, 68, 80
1, 13308, Note_on_c, 0, 73, 63
1, 13308, Note_on_c, 0, 63, 69
1, 13314, Control_c, 0, 64, 0
1, 13336, Control_c, 0, 64, 127
1, 13428, Note_on_c, 0, 76, 0
1, 13438, Note_on_c, 0, 73, 0
1, 13440, Tempo, 1087942
1, 13446, Note_on_c, 0, 63, 0
1, 13456, Note_on_c, 0, 62, 65
1, 13456, Note_on_c, 0, 74, 68
1, 13532, Note_on_c, 0, 68, 0
1, 13538, Note_on_c, 0, 64, 0
1, 13550, Note_on_c, 0, 74, 0
1, 13576, Note_on_c, 0, 62, 0
1, 13576, Note_on_c, 0, 73, 55
1, 13578, Note_on_c, 0, 61, 51
1, 13578, Note_on_c, 0, 68, 57
1, 13580, Note_on_c, 0, 64, 48
1, 13608, Note_on_c, 0, 73, 0
1, 13610, Note_on_c, 0, 61, 0
1, 13610, Note_on_c, 0, 64, 0
1, 13622, Note_on_c, 0, 68, 0
1, 13696, Control_c, 0, 64, 0
1, 13696, Note_on_c, 0, 68, 55
1, 13698, Note_on_c, 0, 60, 61
1, 13702, Note_on_c, 0, 56, 63
1, 13712, Note_on_c, 0, 66, 33
1, 13726, Control_c, 0, 64, 127
1, 13778, Note_on_c, 0, 60, 0
1, 13788, Note_on_c, 0, 54, 35
1, 13790, Control_c, 0, 64, 0
1, 13790, Note_on_c, 0, 68, 0
1, 13792, Note_on_c, 0, 66, 0
1, 13804, Note_on_c, 0, 54, 0
1, 13812, Note_on_c, 0, 60, 56
1, 13818, Note_on_c, 0, 69, 55
1, 13820, Note_on_c, 0, 56, 0
1, 13820, Note_on_c, 0, 65, 39
1, 13822, Note_on_c, 0, 62, 57
1, 13824, Tempo, 1132717
1, 13824, Note_on_c, 0, 57, 53
1, 13832, Control_c, 0, 64, 127
1, 13842, Note_on_c, 0, 62, 0
1, 13842, Note_on_c, 0, 60, 0
1, 13846, Note_on_c, 0, 65, 0
1, 13854, Note_on_c, 0, 69, 0
1, 13876, Note_on_c, 0, 57, 0
1, 13916, Control_c, 0, 64, 0
1, 13938, Note_on_c, 0, 72, 80
1, 13942, Note_on_c, 0, 67, 80
1, 13942, Note_on_c, 0, 62, 74
1, 13946, Note_on_c, 0, 60, 75
1, 13958, Control_c, 0, 64, 127
1, 14006, Note_on_c, 0, 62, 0
1, 14016, Note_on_c, 0, 67, 0
1, 14028, Note_on_c, 0, 72, 0
1, 14028, Note_on_c, 0, 58, 46
1, 14032, Note_on_c, 0, 60, 0
1, 14040, Control_c, 0, 64, 0
1, 14042, Note_on_c, 0, 58, 0
1, 14064, Note_on_c, 0, 62, 82
1, 14066, Note_on_c, 0, 74, 99
1, 14066, Note_on_c, 0, 69, 94
1, 14066, Note_on_c, 0, 65, 92
1, 14086, Control_c, 0, 64, 127
1, 14126, Note_on_c, 0, 69, 0
1, 14128, Note_on_c, 0, 74, 0
1, 14142, Note_on_c, 0, 65, 0
1, 14178, Note_on_c, 0, 62, 0
1, 14178, Control_c, 0, 64, 0
1, 14190, Note_on_c, 0, 72, 75
1, 14190, Note_on_c, 0, 60, 69
1, 14198, Note_on_c, 0, 64, 68
1, 14202, Note_on_c, 0, 60, 0
1, 14202, Note_on_c, 0, 67, 54
1, 14202, Note_on_c, 0, 69, 49
1, 14208, Tempo, 1190004
1, 14210, Note_on_c, 0, 64, 0
1, 14214, Note_on_c, 0, 69, 0
1, 14214, Note_on_c, 0, 67, 0
1, 14228, Note_on_c, 0, 72, 0
1, 14324, Note_on_c, 0, 69, 57
1, 14324, Note_on_c, 0, 60, 62
1, 14326, Control_c, 0, 64, 127
1, 14328, Note_on_c, 0, 48, 50
1, 14338, Note_on_c, 0, 69, 0
1, 14342, Note_on_c, 0, 48, 0
1, 14344, Note_on_c, 0, 60, 0
1, 14376, Control_c, 0, 64, 0
1, 14446, Note_on_c, 0, 58, 56
1, 14450, Note_on_c, 0, 49, 50
1, 14456, Note_on_c, 0, 65, 36
1, 14456, Control_c, 0, 64, 127
1, 14458, Note_on_c, 0, 50, 46
1, 14458, Note_on_c, 0, 42, 48
1, 14464, Note_on_c, 0, 55, 29
1, 14474, Note_on_c, 0, 63, 31
1, 14486, Note_on_c, 0, 55, 0
1, 14520, Note_on_c, 0, 63, 0
1, 14522, Note_on_c, 0, 65, 0
1, 14524, Note_on_c, 0, 50, 0
1, 14524, Note_on_c, 0, 58, 0
1, 14540, Note_on_c, 0, 42, 0
1, 14550, Control_c, 0, 64, 56
1, 14552, Control_c, 0, 64, 0
1, 14566, Note_on_c, 0, 49, 0
1, 14568, Note_on_c, 0, 56, 57
1, 14580, Note_on_c, 0, 65, 50
1, 14592, Tempo, 1195934
1, 14592, Note_on_c, 0, 48, 48
1, 14594, Note_on_c, 0, 41, 45
1, 14598, Note_on_c, 0, 56, 0
1, 14608, Note_on_c, 0, 57, 41
1, 14624, Control_c, 0, 64, 127
1, 14724, Note_on_c, 0, 48, 0
1, 14732, Note_on_c, 0, 57, 0
1, 14954, Note_on_c, 0, 48, 48
1, 14960, Note_on_c, 0, 57, 41
1, 14964, Note_on_c, 0, 60, 51
1, 14976, Tempo, 1232286
1, 15020, Note_on_c, 0, 57, 0
1, 15022, Note_on_c, 0, 41, 0
1, 15068, Note_on_c, 0, 60, 0
1, 15116, Note_on_c, 0, 65, 0
1, 15182, Note_on_c, 0, 48, 0
1, 15194, Note_on_c, 0, 41, 46
1, 15232, Note_on_c, 0, 41, 0
1, 15338, Note_on_c, 0, 40, 54
1, 15340, Control_c, 0, 64, 0
1, 15350, Note_on_c, 0, 55, 46
1, 15360, Tempo, 1084991
1, 15394, Control_c, 0, 64, 127
1, 15434, Note_on_c, 0, 40, 0
1, 15484, Note_on_c, 0, 55, 0
1, 15594, Note_on_c, 0, 69, 45
1, 15640, Note_on_c, 0, 69, 0
1, 15640, Note_on_c, 0, 70, 66
1, 15684, Note_on_c, 0, 69, 61
1, 15690, Note_on_c, 0, 70, 0
1, 15718, Note_on_c, 0, 69, 0
1, 15720, Control_c, 0, 64, 0
1, 15726, Note_on_c, 0, 62, 39
1, 15726, Note_on_c, 0, 67, 60
1, 15728, Note_on_c, 0, 58, 41
1, 15730, Note_on_c, 0, 57, 27
1, 15736, Note_on_c, 0, 52, 36
1, 15744, Tempo, 1085973
1, 15758, Note_on_c, 0, 67, 0
1, 15778, Note_on_c, 0, 69, 57
1, 15792, Note_on_c, 0, 69, 0
1, 15812, Note_on_c, 0, 70, 50
1, 15826, Note_on_c, 0, 70, 0
1, 15854, Note_on_c, 0, 74, 70
1, 15884, Note_on_c, 0, 74, 0
1, 15888, Note_on_c, 0, 78, 72
1, 15898, Note_on_c, 0, 52, 0
1, 15908, Note_on_c, 0, 57, 0
1, 15916, Note_on_c, 0, 58, 0
1, 15924, Note_on_c, 0, 78, 0
1, 15942, Note_on_c, 0, 81, 75
1, 15952, Note_on_c, 0, 62, 0
1, 15984, Note_on_c, 0, 81, 0
1, 16122, Note_on_c, 0, 65, 38
1, 16126, Note_on_c, 0, 61, 37
1, 16128, Tempo, 1146789
1, 16138, Note_on_c, 0, 55, 36
1, 16224, Note_on_c, 0, 72, 57
1, 16244, Note_on_c, 0, 72, 0
1, 16270, Note_on_c, 0, 73, 66
1, 16304, Note_on_c, 0, 73, 0
1, 16308, Note_on_c, 0, 75, 60
1, 16314, Note_on_c, 0, 55, 0
1, 16314, Note_on_c, 0, 65, 0
1, 16320, Note_on_c, 0, 75, 0
1, 16340, Note_on_c, 0, 76, 74
1, 16354, Note_on_c, 0, 61, 0
1, 16366, Note_on_c, 0, 76, 0
1, 16386, Note_on_c, 0, 78, 33
1, 16402, Note_on_c, 0, 78, 0
1, 16406, Note_on_c, 0, 79, 68
1, 16426, Note_on_c, 0, 79, 0
1, 16450, Note_on_c, 0, 81, 54
1, 16466, Note_on_c, 0, 82, 78
1, 16482, Note_on_c, 0, 81, 0
1, 16494, Note_on_c, 0, 82, 0
1, 16512, Tempo, 1098901
1, 16516, Note_on_c, 0, 84, 99
1, 16536, Note_on_c, 0, 64, 46
1, 16540, Note_on_c, 0, 61, 47
1, 16546, Note_on_c, 0, 55, 36
1, 16572, Note_on_c, 0, 84, 0
1, 16586, Note_on_c, 0, 73, 65
1, 16588, Note_on_c, 0, 75, 52
1, 16600, Note_on_c, 0, 75, 0
1, 16602, Note_on_c, 0, 73, 0
1, 16614, Note_on_c, 0, 64, 0
1, 16658, Note_on_c, 0, 61, 0
1, 16664, Note_on_c, 0, 73, 66
1, 16670, Control_c, 0, 64, 127
1, 16708, Note_on_c, 0, 73, 0
1, 16758, Note_on_c, 0, 55, 0
1, 16768, Note_on_c, 0, 72, 77
1, 16810, Note_on_c, 0, 72, 0
1, 16864, Control_c, 0, 64, 0
1, 16872, Note_on_c, 0, 79, 82
1, 16872, Note_on_c, 0, 69, 75
1, 16872, Note_on_c, 0, 64, 60
1, 16874, Note_on_c, 0, 72, 74
1, 16896, Tempo, 1094291
1, 16974, Note_on_c, 0, 72, 0
1, 16974, Note_on_c, 0, 79, 0
1, 16978, Note_on_c, 0, 63, 58
1, 16978, Note_on_c, 0, 64, 0
1, 16982, Note_on_c, 0, 69, 0
1, 16998, Control_c, 0, 64, 127
1, 17038, Control_c, 0, 64, 0
1, 17114, Note_on_c, 0, 63, 0
1, 17114, Note_on_c, 0, 69, 68
1, 17118, Note_on_c, 0, 77, 66
1, 17118, Note_on_c, 0, 72, 63
1, 17120, Control_c, 0, 64, 127
1, 17124, Note_on_c, 0, 62, 51
1, 17246, Note_on_c, 0, 72, 0
1, 17250, Note_on_c, 0, 77, 0
1, 17252, Note_on_c, 0, 61, 63
1, 17262, Note_on_c, 0, 62, 0
1, 17276, Note_on_c, 0, 69, 0
1, 17280, Tempo, 1068757
1, 17346, Control_c, 0, 64, 0
1, 17366, Note_on_c, 0, 76, 68
1, 17368, Control_c, 0, 64, 127
1, 17368, Note_on_c, 0, 69, 63
1, 17370, Note_on_c, 0, 65, 52
1, 17374, Note_on_c, 0, 60, 56
1, 17378, Note_on_c, 0, 61, 0
1, 17504, Note_on_c, 0, 65, 0
1, 17524, Note_on_c, 0, 69, 0
1, 17548, Note_on_c, 0, 60, 0
1, 17596, Note_on_c, 0, 76, 0
1, 17614, Note_on_c, 0, 65, 57
1, 17618, Control_c, 0, 64, 0
1, 17618, Note_on_c, 0, 48, 45
1, 17618, Note_on_c, 0, 72, 50
1, 17618, Note_on_c, 0, 57, 45
1, 17618, Note_on_c, 0, 69, 54
1, 17664, Tempo, 1103144
1, 17666, Control_c, 0, 64, 127
1, 17766, Note_on_c, 0, 65, 0
1, 17780, Note_on_c, 0, 57, 0
1, 17788, Note_on_c, 0, 69, 0
1, 17850, Note_on_c, 0, 72, 0
1, 17880, Note_on_c, 0, 69, 60
1, 17916, Note_on_c, 0, 69, 0
1, 18036, Note_on_c, 0, 65, 53
1, 18040, Note_on_c, 0, 62, 37
1, 18046, Note_on_c, 0, 57, 41
1, 18048, Tempo, 1133787
1, 18124, Note_on_c, 0, 48, 0
1, 18176, Note_on_c, 0, 62, 0
1, 18278, Note_on_c, 0, 48, 46
1, 18298, Note_on_c, 0, 65, 0
1, 18322, Note_on_c, 0, 57, 0
1, 18332, Note_on_c, 0, 48, 0
1, 18424, Control_c, 0, 64, 0
1, 18432, Tempo, 1048951
1, 18432, Note_on_c, 0, 67, 54
1, 18436, Note_on_c, 0, 62, 52
1, 18442, Note_on_c, 0, 59, 33
1, 18442, Note_on_c, 0, 47, 43
1, 18444, Note_on_c, 0, 55, 30
1, 18474, Control_c, 0, 64, 127
1, 18616, Note_on_c, 0, 47, 0
1, 18642, Note_on_c, 0, 59, 0
1, 18674, Note_on_c, 0, 62, 0
1, 18674, Note_on_c, 0, 47, 50
1, 18682, Note_on_c, 0, 67, 0
1, 18706, Note_on_c, 0, 55, 0
1, 18810, Note_on_c, 0, 74, 94
1, 18810, Note_on_c, 0, 67, 89
1, 18812, Control_c, 0, 64, 0
1, 18814, Note_on_c, 0, 55, 62
1, 18816, Tempo, 1139168
1, 18844, Control_c, 0, 64, 127
1, 18886, Note_on_c, 0, 74, 0
1, 18912, Note_on_c, 0, 67, 0
1, 18934, Note_on_c, 0, 62, 57
1, 18934, Note_on_c, 0, 71, 59
1, 18938, Note_on_c, 0, 47, 0
1, 18942, Note_on_c, 0, 67, 19
1, 19032, Note_on_c, 0, 67, 0
1, 19034, Note_on_c, 0, 71, 0
1, 19060, Note_on_c, 0, 47, 49
1, 19096, Note_on_c, 0, 55, 0
1, 19098, Note_on_c, 0, 47, 0
1, 19104, Note_on_c, 0, 62, 0
1, 19186, Control_c, 0, 64, 0
1, 19194, Note_on_c, 0, 67, 55
1, 19194, Note_on_c, 0, 64, 52
1, 19194, Note_on_c, 0, 46, 55
1, 19194, Note_on_c, 0, 60, 52
1, 19200, Tempo, 1018157
1, 19202, Note_on_c, 0, 56, 44
1, 19240, Control_c, 0, 64, 127
1, 19298, Note_on_c, 0, 46, 0
1, 19322, Note_on_c, 0, 46, 75
1, 19344, Note_on_c, 0, 56, 0
1, 19362, Note_on_c, 0, 60, 0
1, 19396, Note_on_c, 0, 64, 0
1, 19398, Note_on_c, 0, 67, 0
1, 19564, Note_on_c, 0, 56, 63
1, 19568, Note_on_c, 0, 72, 111
1, 19572, Note_on_c, 0, 64, 92
1, 19582, Note_on_c, 0, 68, 35
1, 19584, Tempo, 1103144
1, 19600, Note_on_c, 0, 68, 0
1, 19656, Note_on_c, 0, 46, 0
1, 19672, Note_on_c, 0, 72, 0
1, 19710, Note_on_c, 0, 67, 56
1, 19714, Note_on_c, 0, 60, 56
1, 19814, Note_on_c, 0, 67, 0
1, 19824, Note_on_c, 0, 64, 0
1, 19830, Note_on_c, 0, 46, 57
1, 19842, Note_on_c, 0, 56, 0
1, 19846, Note_on_c, 0, 60, 0
1, 19950, Note_on_c, 0, 46, 0
1, 19968, Tempo, 1161890
1, 19980, Note_on_c, 0, 45, 75
1, 19996, Control_c, 0, 64, 0
1, 20064, Control_c, 0, 64, 127
1, 20184, Note_on_c, 0, 45, 0
1, 20212, Note_on_c, 0, 45, 68
1, 20308, Note_on_c, 0, 45, 0
1, 20324, Control_c, 0, 64, 0
1, 20348, Note_on_c, 0, 56, 58
1, 20348, Note_on_c, 0, 54, 59
1, 20352, Tempo, 1105787
1, 20362, Note_on_c, 0, 60, 38
1, 20368, Note_on_c, 0, 64, 37
1, 20380, Note_on_c, 0, 56, 0
1, 20394, Note_on_c, 0, 57, 42
1, 20410, Note_on_c, 0, 54, 0
1, 20428, Note_on_c, 0, 64, 0
1, 20430, Note_on_c, 0, 57, 0
1, 20444, Note_on_c, 0, 60, 0
1, 20476, Note_on_c, 0, 27, 57
1, 20548, Control_c, 0, 64, 127
1, 20572, Note_on_c, 0, 27, 0
1, 20598, Note_on_c, 0, 26, 74
1, 20614, Control_c, 0, 64, 0
1, 20736, Tempo, 1097896
1, 20738, Note_on_c, 0, 38, 78
1, 20750, Control_c, 0, 64, 127
1, 20760, Control_c, 0, 64, 0
1, 20772, Control_c, 0, 64, 127
1, 20784, Note_on_c, 0, 26, 0
1, 20802, Note_on_c, 0, 38, 0
1, 20994, Note_on_c, 0, 54, 75
1, 20994, Note_on_c, 0, 72, 89
1, 20996, Note_on_c, 0, 68, 85
1, 20996, Note_on_c, 0, 64, 85
1, 20998, Note_on_c, 0, 60, 74
1, 21014, Control_c, 0, 64, 0
1, 21022, Note_on_c, 0, 69, 41
1, 21086, Control_c, 0, 64, 127
1, 21098, Note_on_c, 0, 68, 0
1, 21120, Tempo, 1082251
1, 21138, Note_on_c, 0, 60, 0
1, 21140, Note_on_c, 0, 69, 0
1, 21144, Note_on_c, 0, 64, 0
1, 21156, Note_on_c, 0, 72, 0
1, 21156, Note_on_c, 0, 54, 0
1, 21240, Note_on_c, 0, 44, 58
1, 21242, Note_on_c, 0, 69, 66
1, 21244, Control_c, 0, 64, 0
1, 21246, Note_on_c, 0, 54, 42
1, 21250, Note_on_c, 0, 60, 50
1, 21250, Note_on_c, 0, 65, 52
1, 21252, Note_on_c, 0, 62, 54
1, 21290, Control_c, 0, 64, 127
1, 21336, Note_on_c, 0, 69, 0
1, 21342, Note_on_c, 0, 65, 0
1, 21344, Note_on_c, 0, 60, 0
1, 21346, Note_on_c, 0, 62, 0
1, 21354, Note_on_c, 0, 54, 0
1, 21376, Note_on_c, 0, 44, 0
1, 21466, Control_c, 0, 64, 0
1, 21476, Note_on_c, 0, 58, 54
1, 21480, Note_on_c, 0, 57, 55
1, 21480, Note_on_c, 0, 43, 48
1, 21482, Note_on_c, 0, 62, 56
1, 21488, Note_on_c, 0, 53, 36
1, 21504, Tempo, 1168679
1, 21548, Control_c, 0, 64, 127
1, 21690, Note_on_c, 0, 53, 0
1, 21718, Note_on_c, 0, 57, 0
1, 21740, Note_on_c, 0, 50, 55
1, 21772, Note_on_c, 0, 62, 0
1, 21774, Note_on_c, 0, 58, 0
1, 21878, Control_c, 0, 64, 0
1, 21882, Note_on_c, 0, 53, 71
1, 21882, Note_on_c, 0, 58, 75
1, 21884, Note_on_c, 0, 65, 71
1, 21886, Note_on_c, 0, 55, 71
1, 21886, Note_on_c, 0, 62, 63
1, 21888, Tempo, 1119194
1, 21888, Note_on_c, 0, 50, 0
1, 21920, Control_c, 0, 64, 127
1, 21978, Note_on_c, 0, 55, 0
1, 21978, Note_on_c, 0, 62, 0
1, 21996, Note_on_c, 0, 65, 0
1, 21996, Note_on_c, 0, 53, 0
1, 22002, Note_on_c, 0, 58, 0
1, 22014, Note_on_c, 0, 50, 33
1, 22106, Control_c, 0, 64, 0
1, 22132, Note_on_c, 0, 53, 55
1, 22136, Note_on_c, 0, 58, 73
1, 22136, Note_on_c, 0, 65, 68
1, 22138, Control_c, 0, 64, 127
1, 22140, Note_on_c, 0, 50, 0
1, 22140, Note_on_c, 0, 62, 60
1, 22140, Note_on_c, 0, 55, 67
1, 22150, Note_on_c, 0, 53, 0
1, 22172, Note_on_c, 0, 55, 0
1, 22206, Note_on_c, 0, 62, 0
1, 22206, Note_on_c, 0, 58, 0
1, 22218, Note_on_c, 0, 65, 0
1, 22228, Note_on_c, 0, 43, 0
1, 22272, Tempo, 1173939
1, 22284, Note_on_c, 0, 47, 66
1, 22284, Control_c, 0, 64, 0
1, 22286, Note_on_c, 0, 48, 59
1, 22290, Note_on_c, 0, 70, 82
1, 22316, Note_on_c, 0, 47, 0
1, 22336, Note_on_c, 0, 70, 0
1, 22340, Note_on_c, 0, 71, 56
1, 22370, Note_on_c, 0, 70, 48
1, 22382, Note_on_c, 0, 71, 0
1, 22402, Note_on_c, 0, 68, 50
1, 22410, Note_on_c, 0, 70, 0
1, 22438, Note_on_c, 0, 65, 55
1, 22444, Note_on_c, 0, 68, 0
1, 22452, Note_on_c, 0, 43, 22
1, 22468, Note_on_c, 0, 65, 0
1, 22478, Note_on_c, 0, 43, 0
1, 22484, Note_on_c, 0, 70, 90
1, 22554, Note_on_c, 0, 70, 0
1, 22574, Note_on_c, 0, 68, 71
1, 22584, Note_on_c, 0, 70, 46
1, 22600, Note_on_c, 0, 70, 0
1, 22614, Note_on_c, 0, 68, 0
1, 22634, Note_on_c, 0, 36, 58
1, 22656, Tempo, 1126126
1, 22658, Note_on_c, 0, 65, 63
1, 22682, Note_on_c, 0, 65, 0
1, 22748, Note_on_c, 0, 58, 75
1, 22752, Note_on_c, 0, 65, 56
1, 22782, Note_on_c, 0, 58, 0
1, 22792, Note_on_c, 0, 59, 42
1, 22816, Note_on_c, 0, 59, 0
1, 22840, Note_on_c, 0, 62, 49
1, 22852, Note_on_c, 0, 65, 0
1, 22858, Note_on_c, 0, 59, 41
1, 22876, Note_on_c, 0, 62, 0
1, 22882, Note_on_c, 0, 59, 0
1, 22898, Note_on_c, 0, 53, 52
1, 22910, Note_on_c, 0, 53, 0
1, 22932, Note_on_c, 0, 58, 66
1, 22934, Note_on_c, 0, 62, 63
1, 22942, Note_on_c, 0, 48, 0
1, 22964, Note_on_c, 0, 36, 0
1, 22996, Note_on_c, 0, 39, 49
1, 23002, Note_on_c, 0, 58, 0
1, 23006, Note_on_c, 0, 53, 48
1, 23010, Note_on_c, 0, 62, 0
1, 23022, Note_on_c, 0, 53, 0
1, 23040, Tempo, 1061947
1, 23054, Note_on_c, 0, 39, 0
1, 23056, Note_on_c, 0, 56, 64
1, 23058, Note_on_c, 0, 40, 50
1, 23060, Note_on_c, 0, 60, 56
1, 23070, Note_on_c, 0, 40, 0
1, 23074, Note_on_c, 0, 41, 59
1, 23098, Note_on_c, 0, 56, 0
1, 23104, Note_on_c, 0, 57, 47
1, 23134, Note_on_c, 0, 60, 0
1, 23146, Note_on_c, 0, 57, 0
1, 23158, Note_on_c, 0, 29, 59
1, 23158, Note_on_c, 0, 53, 72
1, 23238, Control_c, 0, 64, 127
1, 23424, Tempo, 1084991
1, 23476, Note_on_c, 0, 53, 0
1, 23536, Note_on_c, 0, 29, 0
1, 23674, Note_on_c, 0, 29, 52
1, 23698, Note_on_c, 0, 41, 0
1, 23704, Note_on_c, 0, 29, 0
1, 23816, Control_c, 0, 64, 0
1, 23824, Note_on_c, 0, 27, 45
1, 23824, Note_on_c, 0, 39, 39
1, 23824, Note_on_c, 0, 75, 69
1, 23828, Note_on_c, 0, 61, 60
1, 23892, Control_c, 0, 64, 127
1, 23972, Note_on_c, 0, 27, 0
1, 24048, Note_on_c, 0, 27, 45
1, 24048, Note_on_c, 0, 61, 0
1, 24084, Note_on_c, 0, 75, 0
1, 24120, Note_on_c, 0, 39, 0
1, 24128, Note_on_c, 0, 27, 0
1, 24160, Control_c, 0, 64, 0
1, 24180, Note_on_c, 0, 28, 46
1, 24188, Note_on_c, 0, 40, 39
1, 24188, Note_on_c, 0, 76, 41
1, 24190, Note_on_c, 0, 62, 36
1, 24192, Tempo, 1006205
1, 24202, Note_on_c, 0, 73, 22
1, 24226, Control_c, 0, 64, 127
1, 24260, Note_on_c, 0, 76, 0
1, 24292, Note_on_c, 0, 73, 0
1, 24304, Note_on_c, 0, 62, 0
1, 24306, Note_on_c, 0, 28, 0
1, 24416, Note_on_c, 0, 28, 48
1, 24446, Note_on_c, 0, 40, 0
1, 24452, Note_on_c, 0, 28, 0
1, 24536, Control_c, 0, 64, 0
1, 24560, Note_on_c, 0, 65, 41
1, 24562, Note_on_c, 0, 29, 40
1, 24564, Note_on_c, 0, 41, 39
1, 24572, Note_on_c, 0, 60, 39
1, 24574, Note_on_c, 0, 57, 26
1, 24574, Note_on_c, 0, 62, 27
1, 24576, Tempo, 1139601
1, 24606, Note_on_c, 0, 57, 0
1, 24608, Note_on_c, 0, 62, 0
1, 24610, Control_c, 0, 64, 127
1, 24614, Note_on_c, 0, 60, 0
1, 24638, Note_on_c, 0, 65, 0
1, 24646, Note_on_c, 0, 29, 0
1, 24680, Note_on_c, 0, 41, 0
1, 24802, Note_on_c, 0, 72, 48
1, 24816, Note_on_c, 0, 73, 56
1, 24828, Note_on_c, 0, 73, 0
1, 24838, Note_on_c, 0, 72, 0
1, 24840, Note_on_c, 0, 74, 61
1, 24882, Note_on_c, 0, 74, 0
1, 24924, Control_c, 0, 64, 0
1, 24960, Tempo, 1122334
1, 24960, Note_on_c, 0, 77, 122
1, 24960, Note_on_c, 0, 62, 52
1, 24964, Note_on_c, 0, 60, 42
1, 24972, Note_on_c, 0, 53, 39
1, 24974, Note_on_c, 0, 57, 40
1, 25000, Control_c, 0, 64, 127
1, 25072, Note_on_c, 0, 77, 0
1, 25086, Note_on_c, 0, 79, 89
1, 25188, Note_on_c, 0, 79, 0
1, 25208, Note_on_c, 0, 62, 0
1, 25214, Note_on_c, 0, 60, 0
1, 25218, Note_on_c, 0, 77, 90
1, 25228, Note_on_c, 0, 57, 0
1, 25266, Note_on_c, 0, 53, 0
1, 25344, Tempo, 1216545
1, 25388, Note_on_c, 0, 77, 0
1, 25562, Note_on_c, 0, 62, 66
1, 25562, Note_on_c, 0, 74, 81
1, 25564, Note_on_c, 0, 58, 57
1, 25578, Note_on_c, 0, 52, 36
1, 25592, Control_c, 0, 64, 0
1, 25662, Control_c, 0, 64, 127
1, 25682, Note_on_c, 0, 62, 0
1, 25692, Note_on_c, 0, 58, 0
1, 25700, Note_on_c, 0, 52, 0
1, 25728, Tempo, 1108238
1, 25752, Note_on_c, 0, 74, 0
1, 25866, Control_c, 0, 64, 0
1, 25886, Note_on_c, 0, 76, 66
1, 25888, Note_on_c, 0, 49, 57
1, 25888, Note_on_c, 0, 57, 56
1, 25888, Note_on_c, 0, 73, 49
1, 25888, Note_on_c, 0, 69, 57
1, 25890, Note_on_c, 0, 64, 54
1, 25934, Control_c, 0, 64, 127
1, 25980, Note_on_c, 0, 64, 0
1, 25986, Note_on_c, 0, 57, 0
1, 25986, Note_on_c, 0, 69, 0
1, 25988, Note_on_c, 0, 49, 0
1, 26026, Note_on_c, 0, 73, 0
1, 26034, Note_on_c, 0, 76, 0
1, 26082, Control_c, 0, 64, 0
1, 26088, Note_on_c, 0, 65, 58
1, 26090, Note_on_c, 0, 69, 61
1, 26090, Note_on_c, 0, 62, 54
1, 26112, Tempo, 1065719
1, 26160, Control_c, 0, 64, 127
1, 26272, Note_on_c, 0, 65, 0
1, 26298, Note_on_c, 0, 69, 0
1, 26332, Note_on_c, 0, 50, 52
1, 26368, Note_on_c, 0, 62, 0
1, 26496, Tempo, 1082251
1, 26496, Note_on_c, 0, 62, 68
1, 26748, Note_on_c, 0, 50, 0
1, 26868, Control_c, 0, 64, 0
1, 26868, Note_on_c, 0, 48, 48
1, 26872, Note_on_c, 0, 57, 44
1, 26880, Tempo, 1083815
1, 26918, Note_on_c, 0, 62, 0
1, 26926, Control_c, 0, 64, 127
1, 27094, Note_on_c, 0, 65, 122
1, 27132, Note_on_c, 0, 57, 0
1, 27162, Note_on_c, 0, 65, 0
1, 27212, Note_on_c, 0, 48, 0
1, 27234, Control_c, 0, 64, 0
1, 27244, Note_on_c, 0, 67, 122
1, 27246, Note_on_c, 0, 57, 54
1, 27250, Note_on_c, 0, 48, 53
1, 27264, Tempo, 1161890
1, 27282, Control_c, 0, 64, 127
1, 27426, Note_on_c, 0, 57, 0
1, 27468, Note_on_c, 0, 67, 0
1, 27474, Note_on_c, 0, 48, 0
1, 27482, Note_on_c, 0, 69, 75
1, 27602, Note_on_c, 0, 69, 0
1, 27606, Control_c, 0, 64, 0
1, 27626, Note_on_c, 0, 65, 62
1, 27626, Note_on_c, 0, 55, 48
1, 27630, Note_on_c, 0, 47, 48
1, 27648, Tempo, 1034840
1, 27694, Control_c, 0, 64, 127
1, 27868, Note_on_c, 0, 65, 0
1, 27874, Note_on_c, 0, 62, 56
1, 27886, Note_on_c, 0, 55, 0
1, 27950, Note_on_c, 0, 62, 0
1, 28016, Note_on_c, 0, 65, 72
1, 28020, Control_c, 0, 64, 0
1, 28022, Note_on_c, 0, 55, 45
1, 28032, Tempo, 1148985
1, 28090, Note_on_c, 0, 65, 0
1, 28108, Note_on_c, 0, 67, 46
1, 28124, Note_on_c, 0, 65, 54
1, 28134, Note_on_c, 0, 67, 0
1, 28172, Note_on_c, 0, 62, 54
1, 28176, Note_on_c, 0, 65, 0
1, 28190, Note_on_c, 0, 62, 0
1, 28220, Note_on_c, 0, 65, 89
1, 28294, Note_on_c, 0, 67, 68
1, 28296, Note_on_c, 0, 65, 0
1, 28304, Control_c, 0, 64, 127
1, 28312, Note_on_c, 0, 47, 0
1, 28312, Note_on_c, 0, 55, 0
1, 28350, Note_on_c, 0, 67, 0
1, 28356, Control_c, 0, 64, 0
1, 28364, Note_on_c, 0, 65, 68
1, 28380, Note_on_c, 0, 46, 43
1, 28380, Note_on_c, 0, 55, 43
1, 28416, Tempo, 1125070
1, 28420, Control_c, 0, 64, 127
1, 28496, Note_on_c, 0, 46, 0
1, 28544, Note_on_c, 0, 55, 0
1, 28630, Note_on_c, 0, 57, 69
1, 28708, Note_on_c, 0, 65, 0
1, 28792, Note_on_c, 0, 65, 52
1, 28792, Note_on_c, 0, 62, 53
1, 28800, Tempo, 1106195
1, 28918, Note_on_c, 0, 56, 78
1, 28924, Control_c, 0, 64, 0
1, 28950, Note_on_c, 0, 57, 0
1, 28956, Control_c, 0, 64, 127
1, 29044, Note_on_c, 0, 49, 73
1, 29082, Note_on_c, 0, 62, 0
1, 29088, Note_on_c, 0, 65, 0
1, 29146, Note_on_c, 0, 49, 0
1, 29156, Control_c, 0, 64, 0
1, 29166, Note_on_c, 0, 56, 0
1, 29178, Note_on_c, 0, 62, 66
1, 29180, Note_on_c, 0, 65, 56
1, 29182, Note_on_c, 0, 50, 60
1, 29182, Note_on_c, 0, 57, 61
1, 29184, Tempo, 1115034
1, 29224, Control_c, 0, 64, 127
1, 29258, Note_on_c, 0, 62, 0
1, 29270, Note_on_c, 0, 65, 0
1, 29318, Note_on_c, 0, 62, 61
1, 29438, Note_on_c, 0, 74, 82
1, 29440, Note_on_c, 0, 65, 79
1, 29444, Note_on_c, 0, 69, 74
1, 29448, Note_on_c, 0, 62, 0
1, 29518, Note_on_c, 0, 65, 0
1, 29534, Note_on_c, 0, 74, 0
1, 29534, Note_on_c, 0, 69, 0
1, 29568, Tempo, 1128668
1, 29572, Note_on_c, 0, 74, 79
1, 29576, Note_on_c, 0, 62, 72
1, 29576, Note_on_c, 0, 69, 82
1, 29578, Note_on_c, 0, 65, 77
1, 29678, Note_on_c, 0, 50, 0
1, 29686, Note_on_c, 0, 65, 0
1, 29690, Note_on_c, 0, 62, 0
1, 29690, Note_on_c, 0, 74, 0
1, 29704, Note_on_c, 0, 69, 0
1, 29816, Note_on_c, 0, 77, 107
1, 29820, Note_on_c, 0, 50, 68
1, 29876, Note_on_c, 0, 50, 0
1, 29894, Note_on_c, 0, 57, 0
1, 29898, Note_on_c, 0, 77, 0
1, 29952, Tempo, 985383
1, 29964, Control_c, 0, 64, 0
1, 29970, Note_on_c, 0, 79, 76
1, 29972, Note_on_c, 0, 67, 60
1, 29974, Note_on_c, 0, 57, 72
1, 29974, Note_on_c, 0, 73, 57
1, 29978, Note_on_c, 0, 76, 58
1, 29978, Note_on_c, 0, 49, 57
1, 30040, Control_c, 0, 64, 127
1, 30160, Note_on_c, 0, 49, 0
1, 30198, Note_on_c, 0, 49, 57
1, 30216, Note_on_c, 0, 67, 0
1, 30228, Note_on_c, 0, 79, 0
1, 30252, Note_on_c, 0, 76, 0
1, 30260, Note_on_c, 0, 73, 0
1, 30272, Note_on_c, 0, 57, 0
1, 30336, Tempo, 1101119
1, 30354, Control_c, 0, 64, 0
1, 30354, Note_on_c, 0, 73, 62
1, 30356, Note_on_c, 0, 81, 63
1, 30358, Note_on_c, 0, 69, 63
1, 30360, Note_on_c, 0, 76, 58
1, 30360, Note_on_c, 0, 57, 56
1, 30394, Control_c, 0, 64, 127
1, 30456, Note_on_c, 0, 69, 0
1, 30478, Note_on_c, 0, 73, 0
1, 30484, Note_on_c, 0, 49, 0
1, 30486, Note_on_c, 0, 76, 0
1, 30520, Note_on_c, 0, 81, 0
1, 30582, Note_on_c, 0, 49, 50
1, 30634, Note_on_c, 0, 57, 0
1, 30668, Note_on_c, 0, 49, 0
1, 30712, Control_c, 0, 64, 0
1, 30720, Tempo, 1101524
1, 30720, Note_on_c, 0, 84, 98
1, 30724, Note_on_c, 0, 57, 45
1, 30724, Note_on_c, 0, 72, 75
1, 30724, Note_on_c, 0, 77, 82
1, 30728, Note_on_c, 0, 48, 45
1, 30746, Note_on_c, 0, 72, 0
1, 30780, Note_on_c, 0, 77, 0
1, 30782, Control_c, 0, 64, 127
1, 30796, Note_on_c, 0, 84, 0
1, 30808, Note_on_c, 0, 72, 51
1, 30828, Note_on_c, 0, 72, 0
1, 30844, Note_on_c, 0, 84, 42
1, 30884, Note_on_c, 0, 84, 0
1, 30890, Note_on_c, 0, 72, 39
1, 30894, Note_on_c, 0, 57, 0
1, 30936, Note_on_c, 0, 72, 0
1, 30946, Note_on_c, 0, 84, 39
1, 30976, Note_on_c, 0, 84, 0
1, 30988, Note_on_c, 0, 72, 39
1, 31036, Note_on_c, 0, 84, 51
1, 31038, Note_on_c, 0, 72, 0
1, 31076, Note_on_c, 0, 84, 0
1, 31088, Note_on_c, 0, 72, 39
1, 31104, Tempo, 1093294
1, 31126, Note_on_c, 0, 84, 39
1, 31130, Note_on_c, 0, 72, 0
1, 31136, Note_on_c, 0, 57, 43
1, 31164, Note_on_c, 0, 84, 0
1, 31176, Note_on_c, 0, 72, 39
1, 31218, Note_on_c, 0, 84, 45
1, 31222, Note_on_c, 0, 72, 0
1, 31262, Note_on_c, 0, 84, 0
1, 31280, Note_on_c, 0, 72, 37
1, 31290, Note_on_c, 0, 57, 0
1, 31306, Note_on_c, 0, 72, 0
1, 31312, Note_on_c, 0, 84, 22
1, 31350, Note_on_c, 0, 84, 0
1, 31354, Note_on_c, 0, 81, 65
1, 31374, Note_on_c, 0, 48, 0
1, 31458, Note_on_c, 0, 81, 0
1, 31476, Control_c, 0, 64, 0
1, 31482, Note_on_c, 0, 83, 63
1, 31488, Tempo, 1112966
1, 31490, Note_on_c, 0, 71, 45
1, 31492, Note_on_c, 0, 47, 36
1, 31492, Note_on_c, 0, 55, 28
1, 31524, Control_c, 0, 64, 127
1, 31558, Note_on_c, 0, 83, 0
1, 31576, Note_on_c, 0, 55, 0
1, 31584, Note_on_c, 0, 71, 0
1, 31868, Control_c, 0, 64, 0
1, 31872, Tempo, 1169819
1, 31872, Note_on_c, 0, 74, 59
1, 31874, Note_on_c, 0, 62, 50
1, 31874, Note_on_c, 0, 67, 50
1, 31878, Note_on_c, 0, 59, 48
1, 31916, Control_c, 0, 64, 127
1, 31996, Note_on_c, 0, 55, 63
1, 32000, Note_on_c, 0, 59, 0
1, 32032, Note_on_c, 0, 47, 0
1, 32050, Note_on_c, 0, 74, 0
1, 32060, Note_on_c, 0, 67, 0
1, 32086, Note_on_c, 0, 62, 0
1, 32112, Note_on_c, 0, 47, 48
1, 32142, Note_on_c, 0, 47, 0
1, 32158, Note_on_c, 0, 55, 0
1, 32230, Control_c, 0, 64, 0
1, 32236, Note_on_c, 0, 62, 60
1, 32240, Note_on_c, 0, 50, 39
1, 32256, Tempo, 1047486
1, 32256, Note_on_c, 0, 57, 39
1, 32306, Control_c, 0, 64, 127
1, 32418, Note_on_c, 0, 50, 0
1, 32486, Note_on_c, 0, 50, 65
1, 32494, Note_on_c, 0, 62, 0
1, 32526, Note_on_c, 0, 57, 0
1, 32632, Control_c, 0, 64, 0
1, 32634, Note_on_c, 0, 62, 65
1, 32638, Note_on_c, 0, 57, 41
1, 32640, Tempo, 1135933
1, 32664, Note_on_c, 0, 62, 0
1, 32674, Note_on_c, 0, 64, 57
1, 32706, Note_on_c, 0, 62, 48
1, 32718, Note_on_c, 0, 64, 0
1, 32754, Note_on_c, 0, 61, 57
1, 32766, Note_on_c, 0, 62, 0
1, 32784, Note_on_c, 0, 61, 0
1, 32814, Note_on_c, 0, 62, 82
1, 32834, Control_c, 0, 64, 127
1, 32906, Note_on_c, 0, 50, 0
1, 32916, Note_on_c, 0, 64, 85
1, 32938, Note_on_c, 0, 62, 0
1, 32948, Note_on_c, 0, 57, 0
1, 32998, Control_c, 0, 64, 0
1, 33006, Note_on_c, 0, 64, 0
1, 33016, Note_on_c, 0, 65, 82
1, 33016, Note_on_c, 0, 49, 57
1, 33018, Note_on_c, 0, 57, 50
1, 33024, Tempo, 1158749
1, 33056, Control_c, 0, 64, 127
1, 33208, Note_on_c, 0, 65, 0
1, 33326, Note_on_c, 0, 57, 0
1, 33408, Tempo, 1175088
1, 33410, Note_on_c, 0, 57, 49
1, 33564, Note_on_c, 0, 49, 0
1, 33586, Note_on_c, 0, 57, 0
1, 33618, Note_on_c, 0, 67, 76
1, 33626, Note_on_c, 0, 49, 50
1, 33630, Note_on_c, 0, 57, 33
1, 33702, Note_on_c, 0, 57, 0
1, 33734, Note_on_c, 0, 49, 0
1, 33740, Note_on_c, 0, 67, 0
1, 33768, Control_c, 0, 64, 0
1, 33772, Note_on_c, 0, 69, 73
1, 33774, Note_on_c, 0, 57, 49
1, 33780, Note_on_c, 0, 48, 48
1, 33792, Tempo, 1122965
1, 33828, Control_c, 0, 64, 127
1, 33926, Note_on_c, 0, 69, 0
1, 33946, Note_on_c, 0, 57, 0
1, 34018, Note_on_c, 0, 72, 102
1, 34114, Note_on_c, 0, 72, 0
1, 34168, Note_on_c, 0, 57, 55
1, 34172, Note_on_c, 0, 72, 75
1, 34176, Tempo, 1077006
1, 34258, Note_on_c, 0, 72, 0
1, 34270, Note_on_c, 0, 48, 0
1, 34398, Note_on_c, 0, 48, 44
1, 34404, Note_on_c, 0, 74, 68
1, 34440, Note_on_c, 0, 74, 0
1, 34440, Note_on_c, 0, 48, 0
1, 34484, Note_on_c, 0, 57, 0
1, 34532, Control_c, 0, 64, 0
1, 34538, Note_on_c, 0, 76, 63
1, 34544, Note_on_c, 0, 47, 50
1, 34544, Note_on_c, 0, 57, 42
1, 34560, Tempo, 1138088
1, 34572, Note_on_c, 0, 76, 0
1, 34580, Control_c, 0, 64, 127
1, 34580, Note_on_c, 0, 57, 0
1, 34582, Note_on_c, 0, 47, 0
1, 34678, Note_on_c, 0, 96, 36
1, 34684, Note_on_c, 0, 95, 60
1, 34696, Note_on_c, 0, 96, 0
1, 34702, Note_on_c, 0, 100, 41
1, 34712, Note_on_c, 0, 93, 47
1, 34716, Note_on_c, 0, 100, 0
1, 34724, Note_on_c, 0, 98, 54
1, 34728, Note_on_c, 0, 95, 0
1, 34730, Note_on_c, 0, 91, 61
1, 34736, Note_on_c, 0, 98, 0
1, 34738, Note_on_c, 0, 96, 57
1, 34744, Note_on_c, 0, 93, 0
1, 34748, Note_on_c, 0, 89, 62
1, 34750, Note_on_c, 0, 96, 0
1, 34758, Note_on_c, 0, 95, 58
1, 34762, Note_on_c, 0, 91, 0
1, 34766, Note_on_c, 0, 88, 63
1, 34770, Note_on_c, 0, 95, 0
1, 34774, Note_on_c, 0, 93, 63
1, 34778, Note_on_c, 0, 89, 0
1, 34784, Note_on_c, 0, 86, 58
1, 34784, Note_on_c, 0, 93, 0
1, 34792, Note_on_c, 0, 91, 67
1, 34794, Note_on_c, 0, 88, 0
1, 34800, Note_on_c, 0, 84, 48
1, 34804, Note_on_c, 0, 91, 0
1, 34806, Note_on_c, 0, 89, 63
1, 34808, Note_on_c, 0, 86, 0
1, 34816, Note_on_c, 0, 83, 49
1, 34818, Note_on_c, 0, 89, 0
1, 34824, Note_on_c, 0, 88, 60
1, 34828, Note_on_c, 0, 84, 0
1, 34830, Note_on_c, 0, 81, 48
1, 34840, Control_c, 0, 64, 0
1, 34840, Note_on_c, 0, 86, 58
1, 34842, Note_on_c, 0, 88, 0
1, 34846, Note_on_c, 0, 83, 0
1, 34848, Note_on_c, 0, 79, 50
1, 34850, Note_on_c, 0, 86, 0
1, 34858, Note_on_c, 0, 84, 57
1, 34864, Note_on_c, 0, 81, 0
1, 34868, Note_on_c, 0, 77, 47
1, 34872, Note_on_c, 0, 84, 0
1, 34876, Note_on_c, 0, 83, 54
1, 34882, Note_on_c, 0, 79, 0
1, 34882, Note_on_c, 0, 76, 51
1, 34890, Note_on_c, 0, 83, 0
1, 34894, Note_on_c, 0, 81, 52
1, 34898, Note_on_c, 0, 77, 0
1, 34906, Note_on_c, 0, 81, 0
1, 34906, Note_on_c, 0, 74, 42
1, 34914, Note_on_c, 0, 79, 55
1, 34916, Note_on_c, 0, 76, 0
1, 34922, Note_on_c, 0, 72, 46
1, 34926, Note_on_c, 0, 79, 0
1, 34932, Note_on_c, 0, 77, 51
1, 34934, Note_on_c, 0, 74, 0
1, 34938, Note_on_c, 0, 71, 48
1, 34942, Note_on_c, 0, 77, 0
1, 34944, Tempo, 1118777
1, 34948, Note_on_c, 0, 76, 56
1, 34950, Note_on_c, 0, 72, 0
1, 34958, Note_on_c, 0, 69, 43
1, 34960, Note_on_c, 0, 76, 0
1, 34968, Note_on_c, 0, 74, 49
1, 34970, Note_on_c, 0, 71, 0
1, 34978, Note_on_c, 0, 67, 43
1, 34980, Note_on_c, 0, 74, 0
1, 34988, Note_on_c, 0, 69, 0
1, 34988, Note_on_c, 0, 72, 46
1, 34998, Note_on_c, 0, 65, 39
1, 35000, Note_on_c, 0, 72, 0
1, 35008, Note_on_c, 0, 71, 48
1, 35010, Note_on_c, 0, 67, 0
1, 35020, Note_on_c, 0, 71, 0
1, 35020, Note_on_c, 0, 64, 36
1, 35030, Note_on_c, 0, 69, 45
1, 35032, Note_on_c, 0, 65, 0
1, 35042, Note_on_c, 0, 69, 0
1, 35044, Note_on_c, 0, 62, 33
1, 35052, Note_on_c, 0, 67, 46
1, 35058, Note_on_c, 0, 64, 0
1, 35066, Note_on_c, 0, 67, 0
1, 35068, Note_on_c, 0, 60, 33
1, 35082, Note_on_c, 0, 62, 0
1, 35084, Note_on_c, 0, 65, 31
1, 35096, Note_on_c, 0, 59, 31
1, 35100, Note_on_c, 0, 65, 0
1, 35102, Note_on_c, 0, 64, 39
1, 35108, Note_on_c, 0, 60, 0
1, 35118, Note_on_c, 0, 64, 0
1, 35124, Note_on_c, 0, 57, 26
1, 35138, Note_on_c, 0, 59, 0
1, 35142, Note_on_c, 0, 62, 29
1, 35158, Note_on_c, 0, 55, 31
1, 35160, Note_on_c, 0, 62, 0
1, 35168, Note_on_c, 0, 57, 0
1, 35182, Note_on_c, 0, 53, 51
1, 35188, Note_on_c, 0, 59, 1
1, 35194, Note_on_c, 0, 55, 0
1, 35236, Note_on_c, 0, 59, 0
1, 35242, Note_on_c, 0, 52, 4
1, 35252, Note_on_c, 0, 53, 0
1, 35258, Note_on_c, 0, 40, 78
1, 35260, Note_on_c, 0, 52, 0
1, 35328, Tempo, 1107215
1, 35376, Note_on_c, 0, 40, 0
1, 35376, Note_on_c, 0, 33, 86
1, 35452, Control_c, 0, 64, 127
1, 35506, Note_on_c, 0, 33, 0
1, 35712, Tempo, 1112966
1, 35724, Note_on_c, 0, 61, 78
1, 35726, Note_on_c, 0, 72, 83
1, 35728, Note_on_c, 0, 69, 81
1, 35728, Note_on_c, 0, 65, 86
1, 35730, Note_on_c, 0, 55, 66
1, 35928, Note_on_c, 0, 65, 0
1, 35978, Note_on_c, 0, 55, 0
1, 35994, Note_on_c, 0, 69, 0
1, 36004, Note_on_c, 0, 72, 0
1, 36050, Note_on_c, 0, 61, 0
1, 36096, Tempo, 1090116
1, 36114, Control_c, 0, 64, 0
1, 36116, Note_on_c, 0, 74, 78
1, 36120, Note_on_c, 0, 60, 63
1, 36120, Note_on_c, 0, 64, 72
1, 36120, Note_on_c, 0, 68, 65
1, 36122, Note_on_c, 0, 71, 63
1, 36126, Note_on_c, 0, 54, 57
1, 36206, Control_c, 0, 64, 127
1, 36282, Note_on_c, 0, 60, 0
1, 36302, Note_on_c, 0, 54, 0
1, 36480, Tempo, 1076619
1, 36498, Note_on_c, 0, 38, 85
1, 36498, Note_on_c, 0, 26, 85
1, 36506, Control_c, 0, 64, 0
1, 36570, Control_c, 0, 64, 127
1, 36688, Note_on_c, 0, 26, 0
1, 36696, Note_on_c, 0, 38, 0
1, 36698, Note_on_c, 0, 64, 0
1, 36712, Note_on_c, 0, 71, 0
1, 36718, Note_on_c, 0, 68, 0
1, 36718, Note_on_c, 0, 74, 0
1, 36864, Tempo, 1244297
1, 36874, Control_c, 0, 64, 0
1, 36882, Note_on_c, 0, 62, 82
1, 36882, Note_on_c, 0, 58, 89
1, 36884, Note_on_c, 0, 57, 85
1, 36884, Note_on_c, 0, 43, 73
1, 36884, Note_on_c, 0, 53, 75
1, 36930, Control_c, 0, 64, 127
1, 37044, Note_on_c, 0, 57, 0
1, 37050, Note_on_c, 0, 43, 0
1, 37066, Note_on_c, 0, 53, 0
1, 37082, Note_on_c, 0, 58, 0
1, 37102, Note_on_c, 0, 62, 0
1, 37248, Tempo, 1202164
1, 37268, Note_on_c, 0, 62, 46
1, 37270, Note_on_c, 0, 58, 48
1, 37270, Note_on_c, 0, 57, 43
1, 37358, Note_on_c, 0, 72, 49
1, 37372, Note_on_c, 0, 72, 0
1, 37380, Control_c, 0, 64, 0
1, 37390, Note_on_c, 0, 62, 0
1, 37404, Note_on_c, 0, 58, 0
1, 37414, Note_on_c, 0, 57, 0
1, 37420, Note_on_c, 0, 81, 92
1, 37450, Note_on_c, 0, 81, 0
1, 37466, Note_on_c, 0, 84, 77
1, 37504, Note_on_c, 0, 81, 47
1, 37514, Note_on_c, 0, 84, 0
1, 37520, Note_on_c, 0, 81, 0
1, 37526, Note_on_c, 0, 77, 64
1, 37536, Note_on_c, 0, 77, 0
1, 37556, Note_on_c, 0, 72, 60
1, 37568, Note_on_c, 0, 72, 0
1, 37594, Note_on_c, 0, 71, 68
1, 37598, Note_on_c, 0, 46, 27
1, 37612, Note_on_c, 0, 46, 0
1, 37624, Note_on_c, 0, 71, 0
1, 37624, Note_on_c, 0, 47, 25
1, 37624, Note_on_c, 0, 48, 48
1, 37632, Tempo, 1213101
1, 37638, Note_on_c, 0, 47, 0
1, 37642, Note_on_c, 0, 65, 66
1, 37664, Note_on_c, 0, 65, 0
1, 37684, Note_on_c, 0, 70, 74
1, 37686, Note_on_c, 0, 74, 72
1, 37730, Note_on_c, 0, 74, 0
1, 37736, Note_on_c, 0, 70, 0
1, 37758, Note_on_c, 0, 65, 71
1, 37786, Note_on_c, 0, 65, 0
1, 37814, Note_on_c, 0, 68, 63
1, 37824, Note_on_c, 0, 72, 53
1, 37858, Note_on_c, 0, 68, 0
1, 37858, Note_on_c, 0, 69, 60
1, 37888, Note_on_c, 0, 72, 0
1, 37892, Note_on_c, 0, 65, 50
1, 37892, Note_on_c, 0, 69, 0
1, 37906, Note_on_c, 0, 65, 0
1, 37926, Note_on_c, 0, 60, 67
1, 37932, Note_on_c, 0, 43, 37
1, 37952, Note_on_c, 0, 60, 0
1, 37968, Note_on_c, 0, 59, 61
1, 37980, Note_on_c, 0, 65, 75
1, 37992, Note_on_c, 0, 43, 0
1, 37994, Note_on_c, 0, 36, 56
1, 38004, Note_on_c, 0, 59, 0
1, 38016, Tempo, 1258917
1, 38042, Note_on_c, 0, 65, 0
1, 38064, Note_on_c, 0, 53, 61
1, 38076, Note_on_c, 0, 53, 0
1, 38112, Note_on_c, 0, 36, 0
1, 38114, Note_on_c, 0, 58, 81
1, 38120, Note_on_c, 0, 65, 59
1, 38124, Note_on_c, 0, 39, 61
1, 38152, Note_on_c, 0, 48, 0
1, 38156, Note_on_c, 0, 65, 0
1, 38192, Note_on_c, 0, 58, 0
1, 38204, Note_on_c, 0, 53, 61
1, 38218, Note_on_c, 0, 53, 0
1, 38254, Note_on_c, 0, 56, 72
1, 38260, Note_on_c, 0, 62, 58
1, 38262, Note_on_c, 0, 39, 0
1, 38264, Note_on_c, 0, 40, 58
1, 38306, Note_on_c, 0, 62, 0
1, 38314, Note_on_c, 0, 56, 0
1, 38334, Note_on_c, 0, 56, 82
1, 38338, Note_on_c, 0, 62, 72
1, 38368, Note_on_c, 0, 62, 0
1, 38388, Note_on_c, 0, 62, 36
1, 38400, Tempo, 1222992
1, 38406, Note_on_c, 0, 41, 52
1, 38410, Note_on_c, 0, 40, 0
1, 38422, Note_on_c, 0, 56, 0
1, 38422, Note_on_c, 0, 57, 65
1, 38510, Note_on_c, 0, 29, 52
1, 38518, Note_on_c, 0, 57, 0
1, 38518, Note_on_c, 0, 53, 57
1, 38526, Control_c, 0, 64, 127
1, 38530, Note_on_c, 0, 62, 0
1, 38606, Note_on_c, 0, 29, 0
1, 38630, Note_on_c, 0, 41, 0
1, 38692, Note_on_c, 0, 53, 0
1, 38756, Note_on_c, 0, 48, 51
1, 38776, Control_c, 0, 64, 0
1, 38782, Note_on_c, 0, 48, 0
1, 38782, Note_on_c, 0, 58, 70
1, 38784, Tempo, 1180173
1, 38784, Note_on_c, 0, 65, 60
1, 38784, Note_on_c, 0, 41, 49
1, 38786, Note_on_c, 0, 50, 53
1, 38930, Control_c, 0, 64, 127
1, 38952, Note_on_c, 0, 65, 0
1, 38982, Control_c, 0, 64, 0
1, 38986, Note_on_c, 0, 41, 0
1, 38988, Note_on_c, 0, 58, 0
1, 39000, Note_on_c, 0, 50, 0
1, 39006, Note_on_c, 0, 57, 56
1, 39008, Note_on_c, 0, 41, 38
1, 39010, Note_on_c, 0, 65, 42
1, 39014, Note_on_c, 0, 48, 49
1, 39036, Control_c, 0, 64, 127
1, 39102, Note_on_c, 0, 57, 0
1, 39106, Note_on_c, 0, 48, 0
1, 39118, Note_on_c, 0, 65, 0
1, 39154, Note_on_c, 0, 48, 50
1, 39168, Tempo, 1200961
1, 39180, Note_on_c, 0, 41, 0
1, 39198, Note_on_c, 0, 48, 0
1, 39410, Note_on_c, 0, 68, 66
1, 39410, Note_on_c, 0, 72, 61
1, 39416, Note_on_c, 0, 65, 37
1, 39422, Note_on_c, 0, 60, 48
1, 39436, Note_on_c, 0, 69, 56
1, 39438, Note_on_c, 0, 68, 0
1, 39444, Note_on_c, 0, 60, 0
1, 39478, Note_on_c, 0, 69, 0
1, 39490, Note_on_c, 0, 65, 0
1, 39494, Note_on_c, 0, 72, 0
1, 39514, Control_c, 0, 64, 0
1, 39534, Note_on_c, 0, 58, 64
1, 39538, Note_on_c, 0, 70, 77
1, 39538, Note_on_c, 0, 74, 81
1, 39540, Note_on_c, 0, 65, 75
1, 39552, Tempo, 1084991
1, 39588, Control_c, 0, 64, 127
1, 39608, Note_on_c, 0, 74, 0
1, 39632, Note_on_c, 0, 65, 0
1, 39634, Note_on_c, 0, 70, 0
1, 39644, Note_on_c, 0, 58, 0
1, 39654, Control_c, 0, 64, 0
1, 39658, Note_on_c, 0, 72, 66
1, 39664, Note_on_c, 0, 57, 62
1, 39730, Control_c, 0, 64, 127
1, 39746, Note_on_c, 0, 72, 0
1, 39768, Note_on_c, 0, 57, 0
1, 39774, Note_on_c, 0, 53, 59
1, 39782, Note_on_c, 0, 65, 61
1, 39784, Note_on_c, 0, 69, 52
1, 39784, Note_on_c, 0, 53, 0
1, 39784, Note_on_c, 0, 60, 52
1, 39810, Note_on_c, 0, 69, 0
1, 39820, Note_on_c, 0, 65, 0
1, 39832, Note_on_c, 0, 60, 0
1, 39936, Tempo, 1153181
1, 40046, Control_c, 0, 64, 0
1, 40052, Note_on_c, 0, 45, 71
1, 40120, Control_c, 0, 64, 127
1, 40174, Note_on_c, 0, 55, 66
1, 40186, Note_on_c, 0, 45, 0
1, 40204, Note_on_c, 0, 55, 0
1, 40304, Note_on_c, 0, 60, 66
1, 40308, Note_on_c, 0, 61, 68
1, 40308, Note_on_c, 0, 65, 73
1, 40310, Note_on_c, 0, 69, 69
1, 40320, Tempo, 1130795
1, 40424, Note_on_c, 0, 72, 81
1, 40434, Note_on_c, 0, 58, 64
1, 40436, Note_on_c, 0, 60, 0
1, 40454, Note_on_c, 0, 69, 0
1, 40506, Note_on_c, 0, 65, 0
1, 40508, Note_on_c, 0, 72, 0
1, 40528, Note_on_c, 0, 61, 0
1, 40556, Note_on_c, 0, 61, 82
1, 40560, Control_c, 0, 64, 0
1, 40560, Note_on_c, 0, 70, 77
1, 40564, Note_on_c, 0, 58, 0
1, 40566, Note_on_c, 0, 64, 74
1, 40566, Note_on_c, 0, 57, 58
1, 40638, Control_c, 0, 64, 127
1, 40704, Tempo, 1132289
1, 40760, Note_on_c, 0, 70, 0
1, 40774, Note_on_c, 0, 64, 0
1, 40792, Note_on_c, 0, 57, 0
1, 40792, Note_on_c, 0, 45, 71
1, 40886, Note_on_c, 0, 45, 0
1, 40936, Note_on_c, 0, 45, 65
1, 40942, Note_on_c, 0, 61, 0
1, 41054, Control_c, 0, 64, 0
1, 41060, Note_on_c, 0, 58, 70
1, 41062, Note_on_c, 0, 67, 66
1, 41062, Note_on_c, 0, 61, 60
1, 41064, Note_on_c, 0, 55, 71
1, 41078, Note_on_c, 0, 64, 38
1, 41088, Tempo, 1116695
1, 41104, Note_on_c, 0, 45, 0
1, 41140, Control_c, 0, 64, 127
1, 41198, Note_on_c, 0, 55, 0
1, 41202, Note_on_c, 0, 45, 50
1, 41220, Note_on_c, 0, 64, 0
1, 41232, Note_on_c, 0, 45, 0
1, 41272, Note_on_c, 0, 67, 0
1, 41286, Note_on_c, 0, 58, 0
1, 41308, Note_on_c, 0, 61, 0
1, 41312, Control_c, 0, 64, 0
1, 41314, Note_on_c, 0, 39, 57
1, 41354, Control_c, 0, 64, 127
1, 41406, Note_on_c, 0, 39, 0
1, 41434, Control_c, 0, 64, 0
1, 41456, Note_on_c, 0, 60, 57
1, 41458, Note_on_c, 0, 53, 41
1, 41458, Note_on_c, 0, 45, 43
1, 41460, Note_on_c, 0, 38, 51
1, 41460, Note_on_c, 0, 65, 46
1, 41472, Tempo, 1078167
1, 41488, Control_c, 0, 64, 127
1, 41520, Note_on_c, 0, 53, 0
1, 41548, Note_on_c, 0, 60, 0
1, 41564, Note_on_c, 0, 65, 0
1, 41580, Note_on_c, 0, 38, 0
1, 41590, Note_on_c, 0, 45, 0
1, 41854, Note_on_c, 0, 62, 39
1, 41856, Tempo, 1064018
1, 41856, Note_on_c, 0, 50, 36
1, 41858, Note_on_c, 0, 57, 43
1, 41966, Note_on_c, 0, 69, 52
1, 41976, Note_on_c, 0, 62, 0
1, 41980, Note_on_c, 0, 69, 0
1, 42036, Note_on_c, 0, 57, 0
1, 42056, Note_on_c, 0, 74, 73
1, 42066, Note_on_c, 0, 50, 0
1, 42078, Note_on_c, 0, 74, 0
1, 42112, Note_on_c, 0, 76, 83
1, 42146, Note_on_c, 0, 76, 0
1, 42174, Note_on_c, 0, 77, 85
1, 42208, Note_on_c, 0, 77, 0
1, 42226, Control_c, 0, 64, 0
1, 42238, Note_on_c, 0, 79, 85
1, 42240, Tempo, 1028101
1, 42256, Note_on_c, 0, 57, 48
1, 42260, Note_on_c, 0, 48, 43
1, 42280, Note_on_c, 0, 79, 0
1, 42330, Note_on_c, 0, 79, 56
1, 42360, Note_on_c, 0, 80, 64
1, 42370, Note_on_c, 0, 80, 0
1, 42378, Note_on_c, 0, 81, 74
1, 42396, Note_on_c, 0, 79, 0
1, 42418, Note_on_c, 0, 81, 0
1, 42444, Note_on_c, 0, 86, 98
1, 42520, Control_c, 0, 64, 127
1, 42540, Note_on_c, 0, 86, 0
1, 42570, Note_on_c, 0, 57, 0
1, 42624, Tempo, 1059883
1, 42630, Control_c, 0, 64, 0
1, 42654, Note_on_c, 0, 81, 66
1, 42660, Note_on_c, 0, 57, 37
1, 42680, Control_c, 0, 64, 127
1, 42780, Note_on_c, 0, 48, 0
1, 42882, Note_on_c, 0, 48, 47
1, 42930, Note_on_c, 0, 57, 0
1, 42944, Note_on_c, 0, 48, 0
1, 43008, Tempo, 1166181
1, 43018, Control_c, 0, 64, 0
1, 43024, Note_on_c, 0, 55, 39
1, 43028, Note_on_c, 0, 47, 39
1, 43038, Note_on_c, 0, 81, 0
1, 43258, Note_on_c, 0, 69, 46
1, 43290, Control_c, 0, 64, 127
1, 43314, Note_on_c, 0, 55, 0
1, 43322, Note_on_c, 0, 69, 0
1, 43354, Note_on_c, 0, 74, 63
1, 43392, Tempo, 1089522
1, 43394, Note_on_c, 0, 74, 0
1, 43408, Control_c, 0, 64, 0
1, 43420, Note_on_c, 0, 76, 81
1, 43422, Note_on_c, 0, 55, 45
1, 43474, Note_on_c, 0, 76, 0
1, 43490, Note_on_c, 0, 77, 81
1, 43540, Note_on_c, 0, 77, 0
1, 43562, Note_on_c, 0, 79, 82
1, 43618, Note_on_c, 0, 79, 0
1, 43620, Control_c, 0, 64, 127
1, 43638, Note_on_c, 0, 47, 0
1, 43638, Note_on_c, 0, 81, 81
1, 43674, Note_on_c, 0, 55, 0
1, 43690, Note_on_c, 0, 81, 0
1, 43732, Note_on_c, 0, 84, 96
1, 43764, Control_c, 0, 64, 0
1, 43776, Tempo, 1045296
1, 43804, Note_on_c, 0, 46, 51
1, 43806, Note_on_c, 0, 57, 48
1, 43822, Note_on_c, 0, 84, 0
1, 43858, Note_on_c, 0, 81, 73
1, 43912, Control_c, 0, 64, 127
1, 43926, Note_on_c, 0, 81, 0
1, 43934, Note_on_c, 0, 57, 0
1, 43942, Note_on_c, 0, 77, 64
1, 43972, Note_on_c, 0, 77, 0
1, 44036, Note_on_c, 0, 74, 61
1, 44076, Note_on_c, 0, 74, 0
1, 44114, Note_on_c, 0, 70, 77
1, 44150, Note_on_c, 0, 70, 0
1, 44160, Tempo, 1155624
1, 44182, Control_c, 0, 64, 0
1, 44188, Note_on_c, 0, 57, 46
1, 44206, Note_on_c, 0, 69, 81
1, 44268, Note_on_c, 0, 69, 0
1, 44294, Note_on_c, 0, 72, 71
1, 44340, Note_on_c, 0, 46, 0
1, 44346, Note_on_c, 0, 72, 0
1, 44386, Note_on_c, 0, 69, 77
1, 44394, Control_c, 0, 64, 127
1, 44396, Control_c, 0, 64, 127
1, 44428, Note_on_c, 0, 57, 0
1, 44438, Note_on_c, 0, 69, 0
1, 44478, Note_on_c, 0, 46, 48
1, 44484, Note_on_c, 0, 61, 49
1, 44542, Control_c, 0, 64, 0
1, 44544, Tempo, 1145257
1, 44550, Note_on_c, 0, 46, 0
1, 44574, Note_on_c, 0, 61, 0
1, 44584, Note_on_c, 0, 45, 39
1, 44584, Note_on_c, 0, 55, 32
1, 44586, Note_on_c, 0, 60, 46
1, 44660, Note_on_c, 0, 60, 0
1, 44680, Note_on_c, 0, 58, 52
1, 44754, Note_on_c, 0, 58, 0
1, 44764, Control_c, 0, 64, 127
1, 44766, Note_on_c, 0, 57, 57
1, 44804, Note_on_c, 0, 55, 0
1, 44846, Note_on_c, 0, 57, 0
1, 44864, Note_on_c, 0, 57, 61
1, 44924, Note_on_c, 0, 57, 0
1, 44928, Tempo, 1168679
1, 44956, Control_c, 0, 64, 0
1, 44958, Note_on_c, 0, 55, 39
1, 44958, Note_on_c, 0, 57, 58
1, 44968, Control_c, 0, 64, 127
1, 45036, Note_on_c, 0, 55, 0
1, 45040, Note_on_c, 0, 57, 0
1, 45052, Note_on_c, 0, 58, 66
1, 45094, Note_on_c, 0, 45, 0
1, 45102, Note_on_c, 0, 58, 0
1, 45134, Note_on_c, 0, 59, 64
1, 45198, Note_on_c, 0, 59, 0
1, 45220, Note_on_c, 0, 60, 63
1, 45280, Note_on_c, 0, 60, 0
1, 45300, Control_c, 0, 64, 0
1, 45310, Note_on_c, 0, 64, 60
1, 45312, Tempo, 1191185
1, 45312, Note_on_c, 0, 26, 57
1, 45314, Note_on_c, 0, 54, 57
1, 45314, Note_on_c, 0, 60, 54
1, 45322, Note_on_c, 0, 57, 56
1, 45324, Note_on_c, 0, 38, 42
1, 45368, Note_on_c, 0, 26, 0
1, 45380, Note_on_c, 0, 38, 0
1, 45380, Control_c, 0, 64, 127
1, 45398, Control_c, 0, 64, 0
1, 45434, Note_on_c, 0, 52, 78
1, 45526, Note_on_c, 0, 52, 0
1, 45544, Note_on_c, 0, 51, 74
1, 45590, Note_on_c, 0, 60, 0
1, 45592, Control_c, 0, 64, 127
1, 45594, Note_on_c, 0, 57, 0
1, 45602, Note_on_c, 0, 54, 0
1, 45612, Note_on_c, 0, 64, 0
1, 45626, Control_c, 0, 64, 0
1, 45654, Note_on_c, 0, 51, 0
1, 45664, Note_on_c, 0, 54, 61
1, 45666, Note_on_c, 0, 50, 57
1, 45668, Note_on_c, 0, 57, 62
1, 45668, Note_on_c, 0, 60, 57
1, 45696, Tempo, 1090116
1, 45758, Note_on_c, 0, 50, 0
1, 45792, Note_on_c, 0, 45, 71
1, 45838, Note_on_c, 0, 45, 0
1, 45892, Note_on_c, 0, 57, 0
1, 45910, Note_on_c, 0, 54, 0
1, 45914, Note_on_c, 0, 44, 74
1, 45916, Note_on_c, 0, 32, 63
1, 45932, Control_c, 0, 64, 127
1, 45966, Note_on_c, 0, 60, 0
1, 45986, Note_on_c, 0, 44, 0
1, 46008, Note_on_c, 0, 32, 0
1, 46020, Control_c, 0, 64, 0
1, 46054, Note_on_c, 0, 43, 70
1, 46056, Note_on_c, 0, 58, 66
1, 46058, Note_on_c, 0, 53, 63
1, 46058, Note_on_c, 0, 31, 66
1, 46060, Note_on_c, 0, 62, 61
1, 46068, Note_on_c, 0, 53, 0
1, 46080, Tempo, 1179709
1, 46084, Control_c, 0, 64, 127
1, 46092, Note_on_c, 0, 58, 0
1, 46098, Note_on_c, 0, 62, 0
1, 46190, Note_on_c, 0, 43, 0
1, 46194, Note_on_c, 0, 31, 0
1, 46280, Control_c, 0, 64, 0
1, 46314, Note_on_c, 0, 45, 89
1, 46314, Note_on_c, 0, 82, 99
1, 46316, Note_on_c, 0, 70, 111
1, 46316, Note_on_c, 0, 33, 84
1, 46318, Note_on_c, 0, 77, 88
1, 46330, Note_on_c, 0, 77, 0
1, 46344, Note_on_c, 0, 77, 36
1, 46384, Note_on_c, 0, 77, 0
1, 46392, Control_c, 0, 64, 127
1, 46400, Note_on_c, 0, 33, 0
1, 46404, Note_on_c, 0, 70, 0
1, 46412, Note_on_c, 0, 82, 0
1, 46416, Note_on_c, 0, 45, 0
1, 46428, Control_c, 0, 64, 0
1, 46450, Note_on_c, 0, 81, 81
1, 46452, Note_on_c, 0, 34, 75
1, 46454, Note_on_c, 0, 46, 75
1, 46458, Note_on_c, 0, 69, 57
1, 46464, Tempo, 1228250
1, 46526, Note_on_c, 0, 81, 0
1, 46534, Note_on_c, 0, 69, 0
1, 46560, Note_on_c, 0, 34, 0
1, 46562, Note_on_c, 0, 46, 0
1, 46588, Note_on_c, 0, 77, 85
1, 46588, Control_c, 0, 64, 127
1, 46598, Note_on_c, 0, 65, 62
1, 46610, Note_on_c, 0, 65, 0
1, 46632, Control_c, 0, 64, 0
1, 46672, Note_on_c, 0, 77, 0
1, 46692, Note_on_c, 0, 35, 51
1, 46696, Note_on_c, 0, 47, 49
1, 46698, Note_on_c, 0, 74, 61
1, 46708, Control_c, 0, 64, 127
1, 46746, Note_on_c, 0, 35, 0
1, 46766, Note_on_c, 0, 74, 0
1, 46780, Control_c, 0, 64, 0
1, 46782, Note_on_c, 0, 47, 0
1, 46836, Note_on_c, 0, 48, 51
1, 46836, Control_c, 0, 64, 127
1, 46836, Note_on_c, 0, 65, 53
1, 46838, Note_on_c, 0, 70, 46
1, 46838, Note_on_c, 0, 36, 46
1, 46840, Note_on_c, 0, 74, 60
1, 46840, Note_on_c, 0, 77, 52
1, 46848, Tempo, 1160991
1, 46894, Note_on_c, 0, 36, 0
1, 46916, Note_on_c, 0, 48, 0
1, 46984, Note_on_c, 0, 65, 0
1, 47076, Note_on_c, 0, 74, 0
1, 47086, Note_on_c, 0, 65, 52
1, 47098, Note_on_c, 0, 77, 0
1, 47108, Note_on_c, 0, 65, 0
1, 47122, Note_on_c, 0, 70, 0
1, 47210, Control_c, 0, 64, 0
1, 47216, Note_on_c, 0, 73, 57
1, 47222, Note_on_c, 0, 64, 36
1, 47226, Note_on_c, 0, 73, 0
1, 47232, Tempo, 1046938
1, 47240, Note_on_c, 0, 64, 0
1, 47242, Note_on_c, 0, 74, 50
1, 47254, Control_c, 0, 64, 127
1, 47356, Note_on_c, 0, 77, 59
1, 47368, Note_on_c, 0, 74, 0
1, 47404, Note_on_c, 0, 77, 0
1, 47484, Note_on_c, 0, 79, 60
1, 47522, Note_on_c, 0, 79, 0
1, 47596, Control_c, 0, 64, 0
1, 47612, Note_on_c, 0, 48, 38
1, 47614, Note_on_c, 0, 77, 51
1, 47616, Tempo, 1075076
1, 47616, Note_on_c, 0, 41, 39
1, 47624, Note_on_c, 0, 57, 34
1, 47626, Note_on_c, 0, 65, 24
1, 47626, Note_on_c, 0, 72, 36
1, 47650, Control_c, 0, 64, 127
1, 47698, Note_on_c, 0, 77, 0
1, 47710, Note_on_c, 0, 72, 0
1, 47740, Note_on_c, 0, 65, 0
1, 47746, Note_on_c, 0, 57, 0
1, 47748, Note_on_c, 0, 48, 0
1, 47864, Note_on_c, 0, 48, 43
1, 47874, Note_on_c, 0, 41, 0
1, 47986, Note_on_c, 0, 48, 0
1, 47994, Note_on_c, 0, 65, 50
1, 48000, Tempo, 1076040
1, 48002, Note_on_c, 0, 57, 34
1, 48004, Note_on_c, 0, 60, 39
1, 48006, Note_on_c, 0, 62, 34
1, 48014, Control_c, 0, 64, 0
1, 48116, Note_on_c, 0, 53, 63
1, 48288, Note_on_c, 0, 53, 0
1, 48310, Note_on_c, 0, 52, 32
1, 48312, Note_on_c, 0, 57, 0
1, 48326, Note_on_c, 0, 65, 0
1, 48334, Note_on_c, 0, 52, 0
1, 48336, Note_on_c, 0, 60, 0
1, 48338, Note_on_c, 0, 51, 60
1, 48344, Note_on_c, 0, 62, 0
1, 48384, Tempo, 1129093
1, 48386, Note_on_c, 0, 51, 0
1, 48402, Note_on_c, 0, 50, 47
1, 48406, Note_on_c, 0, 65, 46
1, 48406, Note_on_c, 0, 60, 57
1, 48410, Note_on_c, 0, 54, 42
1, 48480, Note_on_c, 0, 50, 0
1, 48498, Note_on_c, 0, 45, 46
1, 48520, Note_on_c, 0, 45, 0
1, 48618, Note_on_c, 0, 38, 57
1, 48634, Control_c, 0, 64, 72
1, 48636, Control_c, 0, 64, 127
1, 48768, Tempo, 1078167
1, 48768, Note_on_c, 0, 38, 0
1, 48868, Note_on_c, 0, 33, 64
1, 48872, Control_c, 0, 64, 0
1, 48976, Note_on_c, 0, 33, 0
1, 48982, Note_on_c, 0, 54, 0
1, 48988, Note_on_c, 0, 60, 0
1, 48996, Note_on_c, 0, 32, 60
1, 49000, Note_on_c, 0, 65, 0
1, 49028, Control_c, 0, 64, 127
1, 49098, Control_c, 0, 64, 0
1, 49116, Note_on_c, 0, 32, 0
1, 49138, Note_on_c, 0, 58, 60
1, 49140, Note_on_c, 0, 31, 61
1, 49142, Note_on_c, 0, 53, 48
1, 49144, Note_on_c, 0, 62, 57
1, 49152, Tempo, 1145913
1, 49160, Control_c, 0, 64, 127
1, 49198, Note_on_c, 0, 31, 0
1, 49202, Note_on_c, 0, 53, 0
1, 49242, Note_on_c, 0, 62, 0
1, 49264, Note_on_c, 0, 58, 0
1, 49370, Control_c, 0, 64, 0
1, 49372, Note_on_c, 0, 49, 72
1, 49378, Note_on_c, 0, 58, 66
1, 49386, Note_on_c, 0, 62, 72
1, 49406, Note_on_c, 0, 49, 0
1, 49410, Note_on_c, 0, 50, 66
1, 49460, Note_on_c, 0, 58, 0
1, 49490, Note_on_c, 0, 62, 0
1, 49496, Control_c, 0, 64, 127
1, 49510, Note_on_c, 0, 65, 81
1, 49512, Note_on_c, 0, 58, 75
1, 49518, Note_on_c, 0, 55, 74
1, 49520, Note_on_c, 0, 53, 84
1, 49524, Note_on_c, 0, 62, 56
1, 49534, Note_on_c, 0, 50, 0
1, 49536, Tempo, 1132717
1, 49554, Note_on_c, 0, 55, 0
1, 49570, Note_on_c, 0, 53, 0
1, 49574, Note_on_c, 0, 62, 0
1, 49576, Note_on_c, 0, 58, 0
1, 49580, Note_on_c, 0, 65, 0
1, 49748, Note_on_c, 0, 58, 86
1, 49750, Note_on_c, 0, 69, 67
1, 49750, Note_on_c, 0, 62, 78
1, 49750, Note_on_c, 0, 57, 82
1, 49756, Note_on_c, 0, 65, 60
1, 49780, Note_on_c, 0, 58, 0
1, 49782, Note_on_c, 0, 57, 0
1, 49790, Note_on_c, 0, 62, 0
1, 49798, Note_on_c, 0, 65, 0
1, 49804, Note_on_c, 0, 69, 0
1, 49892, Control_c, 0, 64, 0
1, 49900, Note_on_c, 0, 75, 102
1, 49902, Note_on_c, 0, 63, 90
1, 49902, Note_on_c, 0, 70, 84
1, 49902, Note_on_c, 0, 67, 85
1, 49904, Note_on_c, 0, 64, 87
1, 49920, Tempo, 1148545
1, 49998, Note_on_c, 0, 63, 0
1, 50008, Note_on_c, 0, 67, 0
1, 50012, Note_on_c, 0, 75, 0
1, 50024, Note_on_c, 0, 70, 0
1, 50032, Note_on_c, 0, 62, 40
1, 50036, Note_on_c, 0, 64, 0
1, 50040, Control_c, 0, 64, 127
1, 50048, Control_c, 0, 64, 0
1, 50048, Note_on_c, 0, 61, 59
1, 50050, Note_on_c, 0, 62, 0
1, 50092, Note_on_c, 0, 72, 77
1, 50094, Note_on_c, 0, 67, 73
1, 50098, Note_on_c, 0, 61, 0
1, 50098, Note_on_c, 0, 64, 67
1, 50100, Note_on_c, 0, 60, 78
1, 50118, Control_c, 0, 64, 127
1, 50164, Note_on_c, 0, 72, 0
1, 50166, Note_on_c, 0, 67, 0
1, 50176, Note_on_c, 0, 60, 0
1, 50194, Note_on_c, 0, 64, 0
1, 50290, Note_on_c, 0, 69, 73
1, 50290, Note_on_c, 0, 58, 72
1, 50294, Note_on_c, 0, 61, 60
1, 50300, Note_on_c, 0, 55, 55
1, 50302, Note_on_c, 0, 64, 50
1, 50304, Tempo, 1061008
1, 50540, Note_on_c, 0, 69, 0
1, 50552, Note_on_c, 0, 64, 0
1, 50564, Note_on_c, 0, 58, 0
1, 50566, Note_on_c, 0, 61, 0
1, 50580, Note_on_c, 0, 55, 0
1, 50688, Tempo, 1093693
1, 50696, Control_c, 0, 64, 0
1, 50708, Note_on_c, 0, 48, 59
1, 50718, Control_c, 0, 0, 0
1, 50718, Control_c, 0, 32, 122
1, 50718, Control_c, 0, 0, 0
1, 50718, Control_c, 0, 32, 122
1, 50718, Control_c, 0, 0, 0
1, 50718, Control_c, 0, 32, 122
1, 50718, Control_c, 0, 0, 0
1, 50718, Control_c, 0, 32, 122
1, 50718, Control_c, 0, 0, 0
1, 50718, Control_c, 0, 32, 122
1, 50718, Program_c, 0, 0
1, 50718, Control_c, 0, 7, 99
1, 50718, Control_c, 0, 10, 64
1, 50718, Control_c, 0, 11, 127
1, 50718, Control_c, 0, 91, 10
1, 50718, Control_c, 0, 93, 0
1, 50718, Control_c, 0, 94, 0
1, 50718, Control_c, 0, 101, 0
1, 50719, Control_c, 0, 100, 1
1, 50720, Control_c, 0, 6, 64
1, 50721, Control_c, 0, 38, 0
1, 50721, Pitch_bend_c, 0, 8192
1, 50721, Note_on_c, 0, 41, 46
1, 50721, Note_on_c, 0, 57, 54
1, 50721, Note_on_c, 0, 48, 49
1, 50721, Note_on_c, 0, 81, 82
1, 50721, Note_on_c, 0, 80, 39
1, 50734, Note_on_c, 0, 80, 0
1, 50758, Note_on_c, 0, 57, 0
1, 50766, Note_on_c, 0, 48, 0
1, 50768, Note_on_c, 0, 41, 0
1, 50770, Note_on_c, 0, 81, 0
1, 50778, Note_on_c, 0, 48, 0
1, 50850, Note_on_c, 0, 84, 66
1, 50872, Note_on_c, 0, 84, 0
1, 50902, Note_on_c, 0, 86, 102
1, 51014, Note_on_c, 0, 86, 0
1, 51072, Tempo, 1066098
1, 51076, Note_on_c, 0, 84, 87
1, 51082, Note_on_c, 0, 64, 74
1, 51084, Note_on_c, 0, 53, 58
1, 51084, Note_on_c, 0, 60, 60
1, 51088, Note_on_c, 0, 57, 62
1, 51160, Note_on_c, 0, 60, 0
1, 51160, Note_on_c, 0, 64, 0
1, 51172, Note_on_c, 0, 53, 0
1, 51174, Note_on_c, 0, 57, 0
1, 51180, Note_on_c, 0, 84, 0
1, 51212, Note_on_c, 0, 72, 59
1, 51324, Note_on_c, 0, 72, 0
1, 51376, Note_on_c, 0, 72, 54
1, 51440, Note_on_c, 0, 41, 42
1, 51444, Note_on_c, 0, 72, 0
1, 51446, Note_on_c, 0, 48, 39
1, 51456, Tempo, 1030220
1, 51456, Note_on_c, 0, 57, 41
1, 51622, Note_on_c, 0, 57, 0
1, 51636, Note_on_c, 0, 60, 63
1, 51726, Note_on_c, 0, 60, 0
1, 51768, Note_on_c, 0, 62, 49
1, 51772, Note_on_c, 0, 41, 0
1, 51792, Note_on_c, 0, 62, 0
1, 51826, Note_on_c, 0, 65, 84
1, 51828, Note_on_c, 0, 57, 68
1, 51834, Note_on_c, 0, 60, 75
1, 51840, Tempo, 1007895
1, 51846, Note_on_c, 0, 62, 34
1, 51880, Note_on_c, 0, 48, 0
1, 51916, Note_on_c, 0, 60, 0
1, 51938, Note_on_c, 0, 65, 0
1, 51958, Note_on_c, 0, 67, 78
1, 51958, Note_on_c, 0, 60, 72
1, 51984, Note_on_c, 0, 62, 0
1, 52002, Note_on_c, 0, 60, 0
1, 52004, Control_c, 0, 64, 127
1, 52004, Note_on_c, 0, 57, 0
1, 52018, Note_on_c, 0, 65, 61
1, 52024, Note_on_c, 0, 48, 54
1, 52062, Note_on_c, 0, 65, 0
1, 52130, Note_on_c, 0, 67, 0
1, 52138, Control_c, 0, 64, 0
1, 52152, Note_on_c, 0, 58, 81
1, 52156, Note_on_c, 0, 62, 72
1, 52156, Note_on_c, 0, 69, 82
1, 52160, Note_on_c, 0, 64, 68
1, 52164, Note_on_c, 0, 52, 63
1, 52166, Note_on_c, 0, 48, 0
1, 52222, Control_c, 0, 64, 127
1, 52224, Tempo, 1200961
1, 52364, Note_on_c, 0, 69, 0
1, 52392, Note_on_c, 0, 52, 0
1, 52398, Note_on_c, 0, 58, 0
1, 52408, Note_on_c, 0, 64, 0
1, 52422, Note_on_c, 0, 67, 63
1, 52426, Note_on_c, 0, 62, 0
1, 52426, Note_on_c, 0, 58, 36
1, 52444, Note_on_c, 0, 58, 0
1, 52470, Note_on_c, 0, 67, 0
1, 52608, Tempo, 1131222
1, 52610, Note_on_c, 0, 72, 81
1, 52610, Note_on_c, 0, 65, 83
1, 52610, Note_on_c, 0, 61, 88
1, 52612, Control_c, 0, 64, 0
1, 52612, Note_on_c, 0, 60, 87
1, 52622, Note_on_c, 0, 67, 45
1, 52718, Control_c, 0, 64, 127
1, 52754, Note_on_c, 0, 72, 0
1, 52774, Note_on_c, 0, 67, 0
1, 52792, Note_on_c, 0, 58, 64
1, 52792, Note_on_c, 0, 70, 71
1, 52802, Note_on_c, 0, 60, 0
1, 52828, Note_on_c, 0, 58, 0
1, 52844, Note_on_c, 0, 65, 0
1, 52852, Note_on_c, 0, 70, 0
1, 52868, Note_on_c, 0, 61, 0
1, 52988, Note_on_c, 0, 61, 58
1, 52988, Note_on_c, 0, 58, 58
1, 52992, Tempo, 1078167
1, 52992, Note_on_c, 0, 69, 57
1, 52992, Control_c, 0, 64, 0
1, 52998, Note_on_c, 0, 64, 54
1, 52998, Note_on_c, 0, 55, 52
1, 53004, Note_on_c, 0, 45, 39
1, 53096, Control_c, 0, 64, 127
1, 53142, Note_on_c, 0, 69, 0
1, 53172, Note_on_c, 0, 45, 0
1, 53174, Note_on_c, 0, 64, 0
1, 53182, Note_on_c, 0, 58, 0
1, 53192, Note_on_c, 0, 67, 49
1, 53196, Note_on_c, 0, 55, 0
1, 53202, Note_on_c, 0, 61, 0
1, 53250, Note_on_c, 0, 67, 0
1, 53376, Tempo, 1024940
1, 53396, Note_on_c, 0, 64, 68
1, 53400, Note_on_c, 0, 61, 48
1, 53402, Note_on_c, 0, 58, 45
1, 53408, Note_on_c, 0, 64, 0
1, 53412, Control_c, 0, 64, 0
1, 53414, Note_on_c, 0, 61, 0
1, 53422, Note_on_c, 0, 58, 0
1, 53514, Note_on_c, 0, 75, 85
1, 53554, Note_on_c, 0, 75, 0
1, 53578, Note_on_c, 0, 76, 81
1, 53622, Control_c, 0, 64, 127
1, 53630, Note_on_c, 0, 77, 72
1, 53642, Note_on_c, 0, 76, 0
1, 53674, Note_on_c, 0, 77, 0
1, 53690, Note_on_c, 0, 79, 117
1, 53714, Control_c, 0, 64, 0
1, 53734, Note_on_c, 0, 79, 0
1, 53748, Note_on_c, 0, 38, 48
1, 53752, Note_on_c, 0, 77, 76
1, 53756, Note_on_c, 0, 45, 39
1, 53758, Note_on_c, 0, 53, 45
1, 53760, Tempo, 1063076
1, 53766, Control_c, 0, 64, 127
1, 53816, Note_on_c, 0, 38, 0
1, 53844, Note_on_c, 0, 45, 0
1, 53862, Note_on_c, 0, 77, 0
1, 53874, Note_on_c, 0, 53, 0
1, 53874, Note_on_c, 0, 69, 64
1, 53910, Note_on_c, 0, 69, 0
1, 54064, Note_on_c, 0, 65, 61
1, 54076, Note_on_c, 0, 65, 0
1, 54128, Control_c, 0, 64, 0
1, 54128, Note_on_c, 0, 67, 102
1, 54132, Note_on_c, 0, 74, 86
1, 54132, Note_on_c, 0, 62, 57
1, 54144, Tempo, 1084991
1, 54182, Note_on_c, 0, 67, 0
1, 54186, Note_on_c, 0, 68, 58
1, 54200, Note_on_c, 0, 62, 0
1, 54216, Note_on_c, 0, 67, 48
1, 54246, Note_on_c, 0, 74, 0
1, 54248, Note_on_c, 0, 68, 0
1, 54268, Note_on_c, 0, 67, 0
1, 54270, Note_on_c, 0, 65, 63
1, 54304, Note_on_c, 0, 65, 0
1, 54320, Control_c, 0, 64, 127
1, 54324, Note_on_c, 0, 67, 81
1, 54324, Note_on_c, 0, 74, 82
1, 54418, Note_on_c, 0, 67, 0
1, 54462, Note_on_c, 0, 74, 0
1, 54514, Control_c, 0, 64, 0
1, 54520, Note_on_c, 0, 67, 77
1, 54520, Note_on_c, 0, 74, 51
1, 54524, Note_on_c, 0, 57, 51
1, 54528, Tempo, 1090116
1, 54532, Note_on_c, 0, 48, 45
1, 54610, Note_on_c, 0, 74, 0
1, 54646, Control_c, 0, 64, 127
1, 54660, Note_on_c, 0, 62, 53
1, 54668, Note_on_c, 0, 67, 0
1, 54804, Note_on_c, 0, 57, 0
1, 54812, Note_on_c, 0, 62, 0
1, 54846, Note_on_c, 0, 65, 68
1, 54904, Control_c, 0, 64, 0
1, 54912, Tempo, 1126549
1, 54920, Note_on_c, 0, 57, 40
1, 54954, Note_on_c, 0, 65, 0
1, 55038, Note_on_c, 0, 48, 0
1, 55088, Control_c, 0, 64, 127
1, 55104, Note_on_c, 0, 48, 68
1, 55124, Control_c, 0, 64, 0
1, 55184, Control_c, 0, 64, 127
1, 55258, Note_on_c, 0, 48, 0
1, 55258, Note_on_c, 0, 57, 0
1, 55280, Control_c, 0, 64, 0
1, 55286, Note_on_c, 0, 85, 99
1, 55292, Note_on_c, 0, 82, 90
1, 55296, Tempo, 1078167
1, 55296, Note_on_c, 0, 55, 63
1, 55302, Note_on_c, 0, 47, 57
1, 55336, Note_on_c, 0, 85, 0
1, 55340, Note_on_c, 0, 82, 0
1, 55356, Note_on_c, 0, 86, 67
1, 55364, Note_on_c, 0, 83, 60
1, 55366, Note_on_c, 0, 84, 51
1, 55380, Note_on_c, 0, 84, 0
1, 55384, Note_on_c, 0, 86, 0
1, 55384, Note_on_c, 0, 83, 0
1, 55424, Note_on_c, 0, 82, 74
1, 55428, Note_on_c, 0, 78, 74
1, 55440, Note_on_c, 0, 78, 0
1, 55458, Note_on_c, 0, 82, 0
1, 55490, Note_on_c, 0, 79, 71
1, 55490, Note_on_c, 0, 83, 57
1, 55502, Note_on_c, 0, 55, 0
1, 55504, Note_on_c, 0, 83, 0
1, 55512, Note_on_c, 0, 79, 0
1, 55544, Note_on_c, 0, 74, 66
1, 55568, Note_on_c, 0, 74, 0
1, 55598, Note_on_c, 0, 73, 81
1, 55602, Note_on_c, 0, 79, 63
1, 55612, Note_on_c, 0, 79, 0
1, 55632, Note_on_c, 0, 73, 0
1, 55654, Note_on_c, 0, 79, 61
1, 55666, Note_on_c, 0, 74, 63
1, 55674, Note_on_c, 0, 55, 47
1, 55680, Tempo, 1034304
1, 55694, Note_on_c, 0, 79, 0
1, 55702, Note_on_c, 0, 74, 0
1, 55734, Note_on_c, 0, 71, 46
1, 55754, Note_on_c, 0, 71, 0
1, 55792, Note_on_c, 0, 70, 67
1, 55794, Note_on_c, 0, 73, 60
1, 55824, Note_on_c, 0, 73, 0
1, 55830, Note_on_c, 0, 70, 0
1, 55832, Note_on_c, 0, 55, 0
1, 55868, Note_on_c, 0, 74, 58
1, 55874, Note_on_c, 0, 47, 0
1, 55874, Note_on_c, 0, 71, 50
1, 55902, Note_on_c, 0, 71, 0
1, 55902, Note_on_c, 0, 74, 0
1, 55942, Note_on_c, 0, 64, 37
1, 55962, Note_on_c, 0, 64, 0
1, 55970, Control_c, 0, 64, 127
1, 55988, Note_on_c, 0, 70, 66
1, 55990, Note_on_c, 0, 66, 69
1, 55996, Note_on_c, 0, 55, 36
1, 56004, Note_on_c, 0, 47, 24
1, 56020, Note_on_c, 0, 47, 0
1, 56022, Note_on_c, 0, 55, 0
1, 56028, Note_on_c, 0, 70, 0
1, 56034, Note_on_c, 0, 66, 0
1, 56044, Control_c, 0, 64, 0
1, 56064, Tempo, 1053556
1, 56072, Note_on_c, 0, 71, 58
1, 56074, Note_on_c, 0, 46, 49
1, 56076, Note_on_c, 0, 67, 60
1, 56078, Note_on_c, 0, 55, 37
1, 56110, Note_on_c, 0, 67, 0
1, 56116, Note_on_c, 0, 71, 0
1, 56196, Note_on_c, 0, 67, 68
1, 56196, Note_on_c, 0, 64, 72
1, 56218, Note_on_c, 0, 60, 28
1, 56236, Note_on_c, 0, 60, 0
1, 56284, Note_on_c, 0, 60, 44
1, 56296, Note_on_c, 0, 67, 0
1, 56296, Control_c, 0, 64, 127
1, 56364, Note_on_c, 0, 46, 0
1, 56400, Note_on_c, 0, 60, 0
1, 56406, Note_on_c, 0, 64, 0
1, 56412, Note_on_c, 0, 46, 52
1, 56424, Note_on_c, 0, 55, 0
1, 56448, Tempo, 1111935
1, 56464, Control_c, 0, 64, 0
1, 56478, Note_on_c, 0, 64, 85
1, 56478, Note_on_c, 0, 60, 87
1, 56480, Note_on_c, 0, 67, 82
1, 56482, Note_on_c, 0, 56, 81
1, 56562, Control_c, 0, 64, 127
1, 56568, Note_on_c, 0, 46, 0
1, 56654, Note_on_c, 0, 46, 81
1, 56686, Note_on_c, 0, 67, 0
1, 56696, Note_on_c, 0, 64, 0
1, 56714, Note_on_c, 0, 56, 0
1, 56716, Note_on_c, 0, 60, 0
1, 56790, Note_on_c, 0, 46, 0
1, 56820, Control_c, 0, 64, 0
1, 56830, Note_on_c, 0, 45, 89
1, 56832, Tempo, 1096892
1, 56868, Control_c, 0, 64, 127
1, 56980, Note_on_c, 0, 45, 0
1, 57216, Tempo, 1018157
1, 57228, Note_on_c, 0, 57, 80
1, 57228, Note_on_c, 0, 65, 82
1, 57256, Control_c, 0, 64, 0
1, 57358, Note_on_c, 0, 81, 122
1, 57358, Note_on_c, 0, 72, 117
1, 57368, Control_c, 0, 64, 127
1, 57368, Note_on_c, 0, 80, 49
1, 57380, Note_on_c, 0, 80, 0
1, 57386, Note_on_c, 0, 72, 0
1, 57388, Note_on_c, 0, 81, 0
1, 57396, Note_on_c, 0, 65, 0
1, 57416, Note_on_c, 0, 57, 0
1, 57434, Control_c, 0, 64, 0
1, 57488, Note_on_c, 0, 76, 84
1, 57490, Note_on_c, 0, 51, 57
1, 57492, Note_on_c, 0, 69, 72
1, 57492, Control_c, 0, 64, 127
1, 57504, Note_on_c, 0, 61, 42
1, 57558, Note_on_c, 0, 76, 0
1, 57574, Note_on_c, 0, 61, 0
1, 57574, Note_on_c, 0, 69, 0
1, 57586, Note_on_c, 0, 51, 0
1, 57586, Control_c, 0, 64, 0
1, 57600, Tempo, 1081861
1, 57616, Note_on_c, 0, 66, 49
1, 57618, Note_on_c, 0, 72, 66
1, 57620, Note_on_c, 0, 50, 43
1, 57622, Note_on_c, 0, 60, 45
1, 57656, Control_c, 0, 64, 127
1, 57728, Note_on_c, 0, 72, 0
1, 57736, Note_on_c, 0, 60, 0
1, 57742, Note_on_c, 0, 66, 0
1, 57748, Note_on_c, 0, 54, 60
1, 57876, Control_c, 0, 64, 0
1, 57876, Note_on_c, 0, 68, 66
1, 57878, Note_on_c, 0, 56, 57
1, 57882, Note_on_c, 0, 60, 55
1, 57882, Note_on_c, 0, 63, 57
1, 57886, Note_on_c, 0, 54, 0
1, 57890, Control_c, 0, 64, 127
1, 57894, Note_on_c, 0, 66, 41
1, 57960, Note_on_c, 0, 63, 0
1, 57972, Control_c, 0, 64, 0
1, 57974, Note_on_c, 0, 60, 0
1, 57982, Note_on_c, 0, 68, 0
1, 57984, Tempo, 1189061
1, 57988, Note_on_c, 0, 66, 0
1, 58002, Note_on_c, 0, 50, 0
1, 58006, Note_on_c, 0, 66, 28
1, 58006, Note_on_c, 0, 60, 53
1, 58006, Note_on_c, 0, 57, 64
1, 58006, Note_on_c, 0, 63, 46
1, 58008, Note_on_c, 0, 69, 57
1, 58010, Note_on_c, 0, 56, 0
1, 58020, Control_c, 0, 64, 127
1, 58048, Note_on_c, 0, 57, 0
1, 58092, Note_on_c, 0, 60, 0
1, 58116, Note_on_c, 0, 69, 0
1, 58124, Note_on_c, 0, 44, 75
1, 58128, Note_on_c, 0, 54, 66
1, 58130, Note_on_c, 0, 59, 74
1, 58132, Control_c, 0, 64, 0
1, 58152, Note_on_c, 0, 63, 0
1, 58178, Control_c, 0, 64, 127
1, 58198, Note_on_c, 0, 66, 0
1, 58292, Note_on_c, 0, 59, 0
1, 58304, Note_on_c, 0, 54, 0
1, 58330, Note_on_c, 0, 44, 0
1, 58352, Control_c, 0, 64, 0
1, 58362, Note_on_c, 0, 43, 49
1, 58364, Note_on_c, 0, 58, 68
1, 58368, Tempo, 1129093
1, 58368, Note_on_c, 0, 53, 41
1, 58400, Note_on_c, 0, 58, 0
1, 58416, Note_on_c, 0, 60, 43
1, 58436, Note_on_c, 0, 58, 48
1, 58440, Note_on_c, 0, 60, 0
1, 58478, Note_on_c, 0, 58, 0
1, 58484, Note_on_c, 0, 57, 53
1, 58498, Note_on_c, 0, 57, 0
1, 58508, Note_on_c, 0, 43, 0
1, 58512, Note_on_c, 0, 58, 46
1, 58542, Note_on_c, 0, 58, 0
1, 58556, Note_on_c, 0, 53, 0
1, 58566, Note_on_c, 0, 62, 60
1, 58582, Note_on_c, 0, 62, 0
1, 58610, Note_on_c, 0, 66, 54
1, 58642, Note_on_c, 0, 66, 0
1, 58660, Note_on_c, 0, 69, 59
1, 58692, Note_on_c, 0, 66, 69
1, 58698, Note_on_c, 0, 69, 0
1, 58726, Note_on_c, 0, 66, 0
1, 58732, Note_on_c, 0, 62, 50
1, 58736, Note_on_c, 0, 58, 49
1, 58738, Note_on_c, 0, 67, 63
1, 58742, Note_on_c, 0, 57, 26
1, 58746, Note_on_c, 0, 62, 0
1, 58752, Tempo, 1119194
1, 58758, Note_on_c, 0, 57, 0
1, 58764, Note_on_c, 0, 58, 0
1, 58772, Note_on_c, 0, 67, 0
1, 58792, Note_on_c, 0, 69, 46
1, 58824, Note_on_c, 0, 69, 0
1, 58830, Note_on_c, 0, 70, 63
1, 58852, Note_on_c, 0, 70, 0
1, 58878, Note_on_c, 0, 72, 58
1, 58894, Note_on_c, 0, 72, 0
1, 58908, Note_on_c, 0, 73, 55
1, 58922, Note_on_c, 0, 73, 0
1, 58948, Note_on_c, 0, 75, 54
1, 58960, Note_on_c, 0, 75, 0
1, 58980, Note_on_c, 0, 76, 56
1, 58996, Note_on_c, 0, 76, 0
1, 59014, Note_on_c, 0, 78, 42
1, 59030, Note_on_c, 0, 78, 0
1, 59048, Note_on_c, 0, 79, 59
1, 59060, Note_on_c, 0, 79, 0
1, 59074, Note_on_c, 0, 80, 30
1, 59088, Note_on_c, 0, 80, 0
1, 59092, Note_on_c, 0, 81, 45
1, 59102, Note_on_c, 0, 82, 73
1, 59110, Note_on_c, 0, 81, 0
1, 59114, Note_on_c, 0, 36, 42
1, 59128, Note_on_c, 0, 82, 0
1, 59130, Note_on_c, 0, 52, 36
1, 59132, Note_on_c, 0, 83, 49
1, 59136, Tempo, 1148985
1, 59146, Note_on_c, 0, 83, 0
1, 59160, Note_on_c, 0, 84, 82
1, 59222, Note_on_c, 0, 84, 0
1, 59236, Note_on_c, 0, 72, 61
1, 59238, Note_on_c, 0, 36, 0
1, 59266, Note_on_c, 0, 72, 0
1, 59272, Note_on_c, 0, 52, 0
1, 59286, Control_c, 0, 64, 127
1, 59304, Note_on_c, 0, 72, 56
1, 59340, Note_on_c, 0, 72, 0
1, 59380, Note_on_c, 0, 72, 49
1, 59408, Note_on_c, 0, 72, 0
1, 59438, Note_on_c, 0, 72, 61
1, 59466, Note_on_c, 0, 72, 0
1, 59492, Note_on_c, 0, 72, 68
1, 59518, Note_on_c, 0, 72, 0
1, 59520, Tempo, 1165728
1, 59544, Control_c, 0, 64, 0
1, 59550, Note_on_c, 0, 72, 74
1, 59550, Note_on_c, 0, 69, 57
1, 59552, Note_on_c, 0, 64, 55
1, 59556, Note_on_c, 0, 58, 46
1, 59572, Control_c, 0, 64, 127
1, 59578, Note_on_c, 0, 69, 0
1, 59588, Note_on_c, 0, 64, 0
1, 59600, Note_on_c, 0, 58, 0
1, 59692, Note_on_c, 0, 72, 0
1, 59718, Note_on_c, 0, 56, 86
1, 59720, Note_on_c, 0, 46, 83
1, 59726, Control_c, 0, 64, 0
1, 59766, Control_c, 0, 64, 127
1, 59830, Note_on_c, 0, 56, 0
1, 59844, Note_on_c, 0, 46, 0
1, 59868, Control_c, 0, 64, 0
1, 59902, Note_on_c, 0, 55, 82
1, 59904, Tempo, 1115034
1, 59904, Note_on_c, 0, 49, 74
1, 59904, Note_on_c, 0, 45, 69
1, 59912, Control_c, 0, 64, 127
1, 60004, Note_on_c, 0, 49, 0
1, 60036, Note_on_c, 0, 45, 0
1, 60106, Note_on_c, 0, 45, 81
1, 60126, Note_on_c, 0, 55, 0
1, 60132, Note_on_c, 0, 45, 0
1, 60288, Tempo, 1071811
1, 60290, Note_on_c, 0, 84, 86
1, 60290, Note_on_c, 0, 72, 107
1, 60290, Note_on_c, 0, 81, 89
1, 60290, Note_on_c, 0, 65, 96
1, 60290, Note_on_c, 0, 77, 94
1, 60290, Note_on_c, 0, 60, 75
1, 60290, Note_on_c, 0, 61, 72
1, 60296, Note_on_c, 0, 55, 76
1, 60296, Note_on_c, 0, 86, 57
1, 60298, Control_c, 0, 64, 0
1, 60298, Note_on_c, 0, 58, 58
1, 60308, Note_on_c, 0, 86, 0
1, 60308, Note_on_c, 0, 58, 0
1, 60354, Control_c, 0, 64, 127
1, 60382, Note_on_c, 0, 72, 0
1, 60384, Note_on_c, 0, 84, 0
1, 60388, Note_on_c, 0, 77, 0
1, 60398, Note_on_c, 0, 81, 0
1, 60424, Note_on_c, 0, 84, 77
1, 60426, Note_on_c, 0, 81, 76
1, 60426, Note_on_c, 0, 72, 75
1, 60426, Note_on_c, 0, 77, 72
1, 60440, Note_on_c, 0, 65, 0
1, 60452, Note_on_c, 0, 61, 0
1, 60452, Note_on_c, 0, 60, 0
1, 60472, Note_on_c, 0, 55, 0
1, 60492, Note_on_c, 0, 72, 0
1, 60496, Note_on_c, 0, 77, 0
1, 60504, Note_on_c, 0, 84, 0
1, 60516, Note_on_c, 0, 81, 0
1, 60554, Note_on_c, 0, 84, 75
1, 60558, Note_on_c, 0, 72, 63
1, 60564, Note_on_c, 0, 81, 49
1, 60564, Note_on_c, 0, 77, 53
1, 60576, Note_on_c, 0, 77, 0
1, 60592, Note_on_c, 0, 72, 0
1, 60598, Note_on_c, 0, 81, 0
1, 60604, Note_on_c, 0, 84, 0
1, 60662, Control_c, 0, 64, 0
1, 60672, Tempo, 1186005
1, 60676, Note_on_c, 0, 26, 59
1, 60680, Note_on_c, 0, 85, 71
1, 60680, Note_on_c, 0, 73, 73
1, 60682, Note_on_c, 0, 38, 39
1, 60692, Note_on_c, 0, 82, 37
1, 60710, Note_on_c, 0, 82, 0
1, 60720, Control_c, 0, 64, 127
1, 60764, Note_on_c, 0, 85, 0
1, 60766, Note_on_c, 0, 73, 0
1, 60786, Note_on_c, 0, 74, 64
1, 60786, Note_on_c, 0, 86, 63
1, 60810, Note_on_c, 0, 26, 0
1, 60836, Note_on_c, 0, 38, 0
1, 60928, Note_on_c, 0, 74, 0
1, 60996, Note_on_c, 0, 86, 0
1, 61056, Tempo, 1237624
1, 61058, Note_on_c, 0, 65, 54
1, 61064, Note_on_c, 0, 54, 43
1, 61070, Note_on_c, 0, 60, 45
1, 61194, Note_on_c, 0, 89, 111
1, 61214, Control_c, 0, 64, 0
1, 61242, Note_on_c, 0, 89, 0
1, 61264, Note_on_c, 0, 84, 45
1, 61284, Note_on_c, 0, 85, 48
1, 61302, Note_on_c, 0, 60, 0
1, 61306, Note_on_c, 0, 84, 0
1, 61312, Note_on_c, 0, 85, 0
1, 61316, Note_on_c, 0, 86, 54
1, 61330, Note_on_c, 0, 86, 0
1, 61336, Note_on_c, 0, 65, 0
1, 61400, Note_on_c, 0, 80, 82
1, 61410, Note_on_c, 0, 86, 61
1, 61430, Note_on_c, 0, 54, 0
1, 61434, Note_on_c, 0, 80, 0
1, 61440, Tempo, 1207729
1, 61444, Note_on_c, 0, 81, 46
1, 61470, Note_on_c, 0, 64, 33
1, 61472, Note_on_c, 0, 81, 0
1, 61476, Note_on_c, 0, 53, 35
1, 61476, Note_on_c, 0, 59, 42
1, 61486, Note_on_c, 0, 86, 0
1, 61496, Note_on_c, 0, 77, 60
1, 61538, Note_on_c, 0, 77, 0
1, 61600, Note_on_c, 0, 74, 37
1, 61616, Note_on_c, 0, 74, 0
1, 61650, Note_on_c, 0, 77, 79
1, 61690, Note_on_c, 0, 64, 0
1, 61708, Note_on_c, 0, 59, 0
1, 61726, Note_on_c, 0, 77, 0
1, 61750, Note_on_c, 0, 74, 56
1, 61770, Note_on_c, 0, 74, 0
1, 61808, Note_on_c, 0, 64, 38
1, 61810, Note_on_c, 0, 77, 70
1, 61812, Note_on_c, 0, 59, 47
1, 61824, Tempo, 1188119
1, 61842, Note_on_c, 0, 77, 0
1, 61868, Note_on_c, 0, 79, 58
1, 61892, Note_on_c, 0, 64, 0
1, 61894, Note_on_c, 0, 59, 0
1, 61902, Note_on_c, 0, 79, 0
1, 61914, Note_on_c, 0, 77, 68
1, 61918, Note_on_c, 0, 53, 0
1, 61954, Note_on_c, 0, 77, 0
1, 61974, Note_on_c, 0, 74, 58
1, 62000, Note_on_c, 0, 74, 0
1, 62026, Note_on_c, 0, 77, 84
1, 62052, Control_c, 0, 64, 127
1, 62096, Note_on_c, 0, 77, 0
1, 62132, Note_on_c, 0, 79, 82
1, 62170, Control_c, 0, 64, 0
1, 62180, Note_on_c, 0, 79, 0
1, 62200, Note_on_c, 0, 64, 54
1, 62202, Note_on_c, 0, 77, 63
1, 62206, Note_on_c, 0, 58, 48
1, 62208, Tempo, 1192606
1, 62210, Control_c, 0, 64, 127
1, 62236, Note_on_c, 0, 64, 0
1, 62250, Note_on_c, 0, 58, 0
1, 62256, Note_on_c, 0, 77, 0
1, 62328, Note_on_c, 0, 48, 68
1, 62570, Control_c, 0, 64, 0
1, 62584, Note_on_c, 0, 73, 72
1, 62588, Note_on_c, 0, 68, 71
1, 62590, Note_on_c, 0, 58, 56
1, 62592, Tempo, 1115034
1, 62592, Note_on_c, 0, 64, 56
1, 62610, Note_on_c, 0, 64, 0
1, 62630, Note_on_c, 0, 48, 0
1, 62640, Note_on_c, 0, 64, 12
1, 62668, Control_c, 0, 64, 127
1, 62684, Note_on_c, 0, 64, 0
1, 62700, Note_on_c, 0, 58, 0
1, 62702, Note_on_c, 0, 68, 0
1, 62704, Note_on_c, 0, 73, 0
1, 62708, Note_on_c, 0, 48, 63
1, 62724, Control_c, 0, 64, 0
1, 62768, Note_on_c, 0, 48, 0
1, 62776, Note_on_c, 0, 74, 107
1, 62776, Control_c, 0, 64, 127
1, 62800, Control_c, 0, 64, 88
1, 62802, Control_c, 0, 64, 0
1, 62848, Note_on_c, 0, 74, 0
1, 62860, Control_c, 0, 64, 127
1, 62906, Note_on_c, 0, 72, 79
1, 62940, Control_c, 0, 64, 0
1, 62948, Note_on_c, 0, 72, 0
1, 62956, Note_on_c, 0, 41, 45
1, 62976, Tempo, 1325967
1, 62980, Note_on_c, 0, 69, 52
1, 62988, Note_on_c, 0, 57, 36
1, 63020, Note_on_c, 0, 41, 0
1, 63036, Note_on_c, 0, 69, 0
1, 63058, Note_on_c, 0, 57, 0
1, 63100, Note_on_c, 0, 60, 34
1, 63140, Note_on_c, 0, 60, 0
1, 63142, Control_c, 0, 64, 127
1, 63162, Note_on_c, 0, 65, 51
1, 63248, Note_on_c, 0, 65, 0
1, 63280, Note_on_c, 0, 60, 56
1, 63292, Note_on_c, 0, 48, 42
1, 63316, Note_on_c, 0, 60, 0
1, 63340, Note_on_c, 0, 48, 0
1, 63346, Note_on_c, 0, 58, 66
1, 63348, Control_c, 0, 64, 0
1, 63352, Note_on_c, 0, 50, 44
1, 63352, Note_on_c, 0, 65, 50
1, 63360, Tempo, 1171875
1, 63440, Note_on_c, 0, 65, 0
1, 63440, Note_on_c, 0, 58, 0
1, 63484, Note_on_c, 0, 50, 0
1, 63520, Note_on_c, 0, 49, 24
1, 63524, Note_on_c, 0, 56, 50
1, 63528, Note_on_c, 0, 42, 46
1, 63538, Note_on_c, 0, 65, 46
1, 63592, Note_on_c, 0, 56, 0
1, 63604, Note_on_c, 0, 57, 31
1, 63656, Note_on_c, 0, 65, 0
1, 63658, Note_on_c, 0, 57, 0
1, 63664, Note_on_c, 0, 42, 0
1, 63676, Note_on_c, 0, 49, 0
1, 63714, Note_on_c, 0, 65, 49
1, 63714, Note_on_c, 0, 48, 34
1, 63718, Note_on_c, 0, 41, 38
1, 63718, Note_on_c, 0, 57, 48
1, 63744, Tempo, 1178088
1, 63808, Note_on_c, 0, 65, 0
1, 63824, Note_on_c, 0, 57, 0
1, 63842, Note_on_c, 0, 50, 61
1, 63846, Note_on_c, 0, 48, 0
1, 63848, Note_on_c, 0, 65, 54
1, 63848, Note_on_c, 0, 58, 60
1, 63902, Note_on_c, 0, 58, 0
1, 63914, Note_on_c, 0, 56, 56
1, 63914, Note_on_c, 0, 48, 43
1, 63922, Note_on_c, 0, 50, 0
1, 64056, Note_on_c, 0, 48, 0
1, 64080, Note_on_c, 0, 65, 0
1, 64094, Note_on_c, 0, 56, 0
1, 64114, Note_on_c, 0, 48, 48
1, 64118, Note_on_c, 0, 65, 52
1, 64124, Note_on_c, 0, 57, 46
1, 64128, Tempo, 1098901
1, 64138, Note_on_c, 0, 41, 0
1, 64182, Control_c, 0, 64, 127
1, 64208, Control_c, 0, 64, 0
1, 64250, Control_c, 0, 64, 127
1, 64252, Note_on_c, 0, 41, 54
1, 64278, Note_on_c, 0, 41, 0
1, 64282, Note_on_c, 0, 48, 0
1, 64322, Note_on_c, 0, 57, 0
1, 64408, Note_on_c, 0, 65, 0
1, 64498, Control_c, 0, 64, 0
1, 64502, Note_on_c, 0, 40, 48
1, 64512, Tempo, 1129093
1, 64514, Note_on_c, 0, 55, 43
1, 64566, Control_c, 0, 64, 127
1, 64634, Note_on_c, 0, 40, 0
1, 64642, Note_on_c, 0, 67, 54
1, 64662, Note_on_c, 0, 67, 0
1, 64664, Note_on_c, 0, 55, 0
1, 64678, Control_c, 0, 64, 0
1, 64700, Note_on_c, 0, 69, 57
1, 64720, Note_on_c, 0, 69, 0
1, 64816, Note_on_c, 0, 70, 63
1, 64848, Note_on_c, 0, 70, 0
1, 64888, Note_on_c, 0, 58, 39
1, 64890, Note_on_c, 0, 62, 37
1, 64896, Tempo, 1103144
1, 64904, Note_on_c, 0, 52, 32
1, 64908, Note_on_c, 0, 84, 72
1, 64934, Note_on_c, 0, 84, 0
1, 65018, Note_on_c, 0, 84, 72
1, 65048, Note_on_c, 0, 58, 0
1, 65050, Note_on_c, 0, 84, 0
1, 65056, Note_on_c, 0, 52, 0
1, 65092, Note_on_c, 0, 73, 58
1, 65096, Note_on_c, 0, 62, 0
1, 65110, Note_on_c, 0, 73, 0
1, 65206, Note_on_c, 0, 73, 54
1, 65246, Note_on_c, 0, 73, 0
1, 65268, Control_c, 0, 64, 127
1, 65276, Note_on_c, 0, 72, 48
1, 65278, Note_on_c, 0, 61, 37
1, 65280, Tempo, 1076040
1, 65280, Note_on_c, 0, 65, 32
1, 65294, Note_on_c, 0, 55, 34
1, 65302, Control_c, 0, 64, 0
1, 65318, Note_on_c, 0, 72, 0
1, 65356, Note_on_c, 0, 65, 0
1, 65376, Note_on_c, 0, 61, 0
1, 65392, Note_on_c, 0, 72, 63
1, 65406, Note_on_c, 0, 55, 0
1, 65422, Note_on_c, 0, 72, 0
1, 65446, Control_c, 0, 64, 127
1, 65462, Note_on_c, 0, 70, 60
1, 65480, Control_c, 0, 64, 0
1, 65490, Control_c, 0, 64, 127
1, 65492, Note_on_c, 0, 70, 0
1, 65570, Note_on_c, 0, 70, 68
1, 65608, Note_on_c, 0, 70, 0
1, 65618, Control_c, 0, 64, 0
1, 65648, Note_on_c, 0, 55, 40
1, 65652, Note_on_c, 0, 69, 66
1, 65658, Note_on_c, 0, 45, 32
1, 65664, Tempo, 1093693
1, 65678, Note_on_c, 0, 69, 0
1, 65684, Note_on_c, 0, 70, 58
1, 65714, Note_on_c, 0, 69, 49
1, 65728, Note_on_c, 0, 70, 0
1, 65752, Note_on_c, 0, 69, 0
1, 65754, Note_on_c, 0, 67, 52
1, 65788, Note_on_c, 0, 67, 0
1, 65810, Note_on_c, 0, 65, 62
1, 65856, Note_on_c, 0, 65, 0
1, 65858, Note_on_c, 0, 64, 47
1, 65884, Note_on_c, 0, 45, 0
1, 65954, Note_on_c, 0, 64, 0
1, 65954, Control_c, 0, 64, 127
1, 65968, Note_on_c, 0, 67, 72
1, 66012, Control_c, 0, 64, 0
1, 66016, Note_on_c, 0, 67, 0
1, 66038, Note_on_c, 0, 55, 0
1, 66038, Note_on_c, 0, 65, 66
1, 66048, Tempo, 1141118
1, 66048, Note_on_c, 0, 50, 41
1, 66050, Note_on_c, 0, 57, 41
1, 66076, Control_c, 0, 64, 127
1, 66130, Note_on_c, 0, 65, 0
1, 66132, Note_on_c, 0, 57, 0
1, 66164, Note_on_c, 0, 57, 61
1, 66196, Note_on_c, 0, 57, 0
1, 66332, Note_on_c, 0, 67, 43
1, 66368, Note_on_c, 0, 67, 0
1, 66432, Tempo, 1094891
1, 66434, Note_on_c, 0, 62, 58
1, 66438, Control_c, 0, 64, 0
1, 66440, Note_on_c, 0, 69, 76
1, 66444, Note_on_c, 0, 57, 47
1, 66480, Note_on_c, 0, 69, 0
1, 66506, Control_c, 0, 64, 127
1, 66520, Note_on_c, 0, 62, 0
1, 66552, Note_on_c, 0, 74, 117
1, 66590, Note_on_c, 0, 74, 0
1, 66642, Note_on_c, 0, 50, 0
1, 66662, Note_on_c, 0, 76, 122
1, 66718, Note_on_c, 0, 76, 0
1, 66752, Note_on_c, 0, 57, 0
1, 66764, Control_c, 0, 64, 0
1, 66784, Note_on_c, 0, 57, 58
1, 66792, Note_on_c, 0, 77, 122
1, 66802, Note_on_c, 0, 48, 44
1, 66816, Tempo, 1063076
1, 66830, Control_c, 0, 64, 127
1, 66854, Note_on_c, 0, 77, 0
1, 66928, Note_on_c, 0, 65, 56
1, 66966, Note_on_c, 0, 65, 0
1, 67024, Note_on_c, 0, 57, 0
1, 67042, Note_on_c, 0, 74, 78
1, 67056, Note_on_c, 0, 69, 50
1, 67088, Note_on_c, 0, 69, 0
1, 67096, Note_on_c, 0, 74, 0
1, 67188, Control_c, 0, 64, 0
1, 67194, Note_on_c, 0, 57, 30
1, 67196, Note_on_c, 0, 62, 33
1, 67200, Tempo, 1099908
1, 67250, Control_c, 0, 64, 127
1, 67280, Note_on_c, 0, 48, 0
1, 67290, Note_on_c, 0, 62, 0
1, 67314, Note_on_c, 0, 65, 45
1, 67404, Note_on_c, 0, 65, 0
1, 67428, Note_on_c, 0, 48, 37
1, 67434, Note_on_c, 0, 67, 47
1, 67478, Note_on_c, 0, 57, 0
1, 67486, Note_on_c, 0, 48, 0
1, 67576, Note_on_c, 0, 47, 68
1, 67584, Tempo, 1105176
1, 67588, Control_c, 0, 64, 0
1, 67664, Control_c, 0, 64, 127
1, 67706, Note_on_c, 0, 67, 0
1, 67906, Control_c, 0, 64, 0
1, 67942, Note_on_c, 0, 59, 42
1, 67942, Note_on_c, 0, 62, 51
1, 67944, Note_on_c, 0, 55, 35
1, 67968, Tempo, 1137010
1, 67972, Control_c, 0, 64, 127
1, 67994, Note_on_c, 0, 59, 0
1, 68006, Note_on_c, 0, 62, 0
1, 68128, Note_on_c, 0, 55, 0
1, 68130, Note_on_c, 0, 47, 0
1, 68176, Note_on_c, 0, 55, 23
1, 68178, Note_on_c, 0, 47, 44
1, 68180, Note_on_c, 0, 62, 57
1, 68182, Note_on_c, 0, 71, 53
1, 68190, Note_on_c, 0, 67, 41
1, 68198, Note_on_c, 0, 62, 0
1, 68206, Note_on_c, 0, 71, 0
1, 68214, Note_on_c, 0, 47, 0
1, 68216, Note_on_c, 0, 55, 0
1, 68220, Note_on_c, 0, 67, 0
1, 68300, Control_c, 0, 64, 0
1, 68322, Note_on_c, 0, 46, 56
1, 68328, Note_on_c, 0, 56, 45
1, 68330, Note_on_c, 0, 72, 51
1, 68330, Note_on_c, 0, 64, 57
1, 68330, Note_on_c, 0, 67, 56
1, 68350, Control_c, 0, 64, 127
1, 68352, Tempo, 1087942
1, 68392, Note_on_c, 0, 64, 0
1, 68398, Note_on_c, 0, 67, 0
1, 68410, Note_on_c, 0, 72, 0
1, 68458, Note_on_c, 0, 46, 0
1, 68472, Note_on_c, 0, 56, 0
1, 68580, Note_on_c, 0, 46, 75
1, 68582, Note_on_c, 0, 56, 72
1, 68582, Note_on_c, 0, 76, 94
1, 68582, Note_on_c, 0, 72, 85
1, 68582, Note_on_c, 0, 67, 98
1, 68598, Note_on_c, 0, 74, 37
1, 68616, Note_on_c, 0, 74, 0
1, 68680, Note_on_c, 0, 72, 0
1, 68688, Note_on_c, 0, 76, 0
1, 68692, Note_on_c, 0, 67, 0
1, 68722, Note_on_c, 0, 56, 0
1, 68736, Tempo, 1112966
1, 68746, Note_on_c, 0, 46, 0
1, 68844, Note_on_c, 0, 46, 54
1, 68846, Note_on_c, 0, 56, 46
1, 68848, Note_on_c, 0, 72, 57
1, 68850, Note_on_c, 0, 67, 58
1, 68850, Note_on_c, 0, 64, 54
1, 68894, Note_on_c, 0, 72, 0
1, 68900, Note_on_c, 0, 46, 0
1, 68906, Note_on_c, 0, 67, 0
1, 68918, Note_on_c, 0, 64, 0
1, 68922, Note_on_c, 0, 56, 0
1, 68968, Note_on_c, 0, 46, 44
1, 69040, Note_on_c, 0, 46, 0
1, 69084, Control_c, 0, 64, 0
1, 69094, Note_on_c, 0, 60, 57
1, 69096, Note_on_c, 0, 57, 40
1, 69100, Note_on_c, 0, 45, 40
1, 69100, Note_on_c, 0, 53, 31
1, 69120, Tempo, 1182732
1, 69148, Control_c, 0, 64, 127
1, 69200, Note_on_c, 0, 57, 0
1, 69216, Note_on_c, 0, 60, 0
1, 69224, Note_on_c, 0, 45, 0
1, 69242, Note_on_c, 0, 53, 0
1, 69456, Note_on_c, 0, 65, 39
1, 69458, Note_on_c, 0, 57, 39
1, 69458, Control_c, 0, 64, 0
1, 69462, Note_on_c, 0, 60, 44
1, 69480, Note_on_c, 0, 65, 0
1, 69482, Note_on_c, 0, 60, 0
1, 69504, Tempo, 1104159
1, 69514, Note_on_c, 0, 68, 59
1, 69544, Note_on_c, 0, 68, 0
1, 69548, Note_on_c, 0, 69, 56
1, 69580, Note_on_c, 0, 69, 0
1, 69618, Note_on_c, 0, 72, 86
1, 69632, Note_on_c, 0, 57, 0
1, 69660, Note_on_c, 0, 72, 0
1, 69710, Note_on_c, 0, 74, 99
1, 69752, Control_c, 0, 64, 127
1, 69756, Note_on_c, 0, 74, 0
1, 69790, Note_on_c, 0, 72, 54
1, 69814, Control_c, 0, 64, 0
1, 69836, Note_on_c, 0, 65, 46
1, 69840, Note_on_c, 0, 72, 0
1, 69840, Note_on_c, 0, 54, 43
1, 69840, Note_on_c, 0, 60, 46
1, 69888, Tempo, 1081861
1, 69934, Note_on_c, 0, 77, 115
1, 69980, Control_c, 0, 64, 127
1, 69982, Note_on_c, 0, 77, 0
1, 70022, Note_on_c, 0, 77, 81
1, 70042, Note_on_c, 0, 65, 0
1, 70048, Note_on_c, 0, 60, 0
1, 70074, Note_on_c, 0, 77, 0
1, 70088, Note_on_c, 0, 54, 0
1, 70102, Note_on_c, 0, 74, 75
1, 70138, Note_on_c, 0, 74, 0
1, 70172, Note_on_c, 0, 74, 62
1, 70202, Note_on_c, 0, 74, 0
1, 70220, Control_c, 0, 64, 0
1, 70226, Note_on_c, 0, 54, 41
1, 70228, Note_on_c, 0, 60, 35
1, 70234, Note_on_c, 0, 50, 35
1, 70256, Note_on_c, 0, 68, 63
1, 70258, Note_on_c, 0, 74, 52
1, 70272, Tempo, 1110905
1, 70292, Note_on_c, 0, 68, 0
1, 70300, Note_on_c, 0, 69, 44
1, 70320, Note_on_c, 0, 74, 0
1, 70326, Note_on_c, 0, 69, 0
1, 70338, Note_on_c, 0, 60, 0
1, 70370, Note_on_c, 0, 62, 58
1, 70410, Note_on_c, 0, 62, 0
1, 70438, Note_on_c, 0, 54, 0
1, 70446, Note_on_c, 0, 50, 0
1, 70462, Note_on_c, 0, 65, 68
1, 70502, Control_c, 0, 64, 127
1, 70608, Control_c, 0, 64, 0
1, 70630, Note_on_c, 0, 43, 43
1, 70634, Note_on_c, 0, 53, 37
1, 70656, Tempo, 1164144
1, 70698, Control_c, 0, 64, 127
1, 70798, Note_on_c, 0, 53, 0
1, 70858, Note_on_c, 0, 65, 0
1, 70866, Note_on_c, 0, 62, 57
1, 70900, Note_on_c, 0, 62, 0
1, 71008, Control_c, 0, 64, 0
1, 71010, Note_on_c, 0, 70, 96
1, 71012, Note_on_c, 0, 53, 45
1, 71040, Tempo, 1061008
1, 71124, Control_c, 0, 64, 127
1, 71134, Note_on_c, 0, 71, 74
1, 71142, Note_on_c, 0, 43, 0
1, 71146, Note_on_c, 0, 70, 0
1, 71146, Control_c, 0, 64, 0
1, 71156, Note_on_c, 0, 53, 0
1, 71212, Note_on_c, 0, 71, 0
1, 71248, Note_on_c, 0, 70, 84
1, 71284, Control_c, 0, 64, 127
1, 71312, Note_on_c, 0, 70, 0
1, 71332, Note_on_c, 0, 68, 58
1, 71382, Control_c, 0, 64, 24
1, 71384, Control_c, 0, 64, 0
1, 71394, Note_on_c, 0, 68, 0
1, 71398, Note_on_c, 0, 36, 36
1, 71402, Note_on_c, 0, 65, 48
1, 71410, Note_on_c, 0, 52, 31
1, 71424, Tempo, 1096291
1, 71426, Note_on_c, 0, 65, 0
1, 71458, Note_on_c, 0, 63, 56
1, 71498, Note_on_c, 0, 63, 0
1, 71508, Note_on_c, 0, 60, 52
1, 71532, Note_on_c, 0, 60, 0
1, 71556, Note_on_c, 0, 59, 50
1, 71558, Note_on_c, 0, 52, 0
1, 71576, Note_on_c, 0, 65, 45
1, 71596, Note_on_c, 0, 59, 0
1, 71614, Note_on_c, 0, 62, 43
1, 71618, Note_on_c, 0, 65, 0
1, 71632, Note_on_c, 0, 62, 0
1, 71666, Note_on_c, 0, 53, 37
1, 71682, Note_on_c, 0, 53, 0
1, 71696, Note_on_c, 0, 58, 63
1, 71706, Note_on_c, 0, 62, 66
1, 71756, Note_on_c, 0, 62, 0
1, 71768, Note_on_c, 0, 53, 55
1, 71772, Note_on_c, 0, 58, 0
1, 71782, Note_on_c, 0, 53, 0
1, 71796, Note_on_c, 0, 43, 37
1, 71808, Tempo, 1050053
1, 71816, Note_on_c, 0, 56, 62
1, 71826, Note_on_c, 0, 43, 0
1, 71828, Note_on_c, 0, 60, 46
1, 71858, Note_on_c, 0, 56, 0
1, 71866, Note_on_c, 0, 57, 48
1, 71906, Note_on_c, 0, 60, 0
1, 71910, Note_on_c, 0, 57, 0
1, 71928, Note_on_c, 0, 36, 0
1, 71930, Note_on_c, 0, 53, 55
1, 71954, Note_on_c, 0, 41, 50
1, 71972, Note_on_c, 0, 53, 0
1, 71990, Note_on_c, 0, 41, 0
1, 72000, Note_on_c, 0, 51, 52
1, 72060, Note_on_c, 0, 48, 57
1, 72066, Note_on_c, 0, 51, 0
1, 72078, Note_on_c, 0, 48, 0
1, 72110, Note_on_c, 0, 30, 56
1, 72112, Note_on_c, 0, 51, 54
1, 72156, Note_on_c, 0, 51, 0
1, 72170, Note_on_c, 0, 52, 60
1, 72192, Tempo, 1093693
1, 72202, Note_on_c, 0, 30, 0
1, 72212, Note_on_c, 0, 52, 0
1, 72226, Note_on_c, 0, 53, 75
1, 72244, Note_on_c, 0, 29, 49
1, 72268, Note_on_c, 0, 53, 0
1, 72280, Control_c, 0, 64, 127
1, 72294, Note_on_c, 0, 53, 75
1, 72350, Note_on_c, 0, 53, 0
1, 72390, Note_on_c, 0, 29, 0
1, 72510, Note_on_c, 0, 53, 58
1, 72574, Note_on_c, 0, 53, 0
1, 72576, Tempo, 1028101
1, 72628, Note_on_c, 0, 60, 69
1, 72628, Note_on_c, 0, 48, 48
1, 72630, Note_on_c, 0, 41, 39
1, 72720, Note_on_c, 0, 65, 72
1, 72722, Note_on_c, 0, 60, 0
1, 72736, Note_on_c, 0, 41, 0
1, 72746, Note_on_c, 0, 65, 0
1, 72752, Note_on_c, 0, 48, 0
1, 72782, Note_on_c, 0, 69, 78
1, 72812, Note_on_c, 0, 69, 0
1, 72836, Note_on_c, 0, 70, 80
1, 72876, Note_on_c, 0, 70, 0
1, 72878, Note_on_c, 0, 71, 68
1, 72908, Note_on_c, 0, 71, 0
1, 72926, Note_on_c, 0, 72, 85
1, 72956, Note_on_c, 0, 72, 0
1, 72960, Tempo, 1135933
1, 72968, Control_c, 0, 64, 0
1, 72978, Note_on_c, 0, 72, 87
1, 72984, Note_on_c, 0, 66, 66
1, 72990, Note_on_c, 0, 39, 66
1, 72994, Note_on_c, 0, 66, 0
1, 73032, Control_c, 0, 64, 127
1, 73068, Note_on_c, 0, 46, 71
1, 73080, Note_on_c, 0, 39, 0
1, 73138, Note_on_c, 0, 46, 0
1, 73146, Note_on_c, 0, 55, 65
1, 73206, Note_on_c, 0, 55, 0
1, 73230, Note_on_c, 0, 58, 63
1, 73290, Note_on_c, 0, 72, 0
1, 73328, Note_on_c, 0, 61, 52
1, 73328, Note_on_c, 0, 65, 63
1, 73330, Note_on_c, 0, 60, 57
1, 73334, Note_on_c, 0, 69, 50
1, 73344, Tempo, 1019714
1, 73372, Note_on_c, 0, 58, 0
1, 73374, Note_on_c, 0, 60, 0
1, 73460, Note_on_c, 0, 72, 63
1, 73472, Note_on_c, 0, 65, 0
1, 73478, Note_on_c, 0, 61, 0
1, 73480, Note_on_c, 0, 69, 0
1, 73508, Note_on_c, 0, 72, 0
1, 73578, Note_on_c, 0, 73, 60
1, 73582, Note_on_c, 0, 63, 52
1, 73584, Note_on_c, 0, 68, 59
1, 73654, Note_on_c, 0, 73, 0
1, 73664, Note_on_c, 0, 68, 0
1, 73672, Note_on_c, 0, 63, 0
1, 73690, Control_c, 0, 64, 0
1, 73702, Note_on_c, 0, 41, 47
1, 73704, Note_on_c, 0, 72, 53
1, 73706, Note_on_c, 0, 62, 47
1, 73708, Note_on_c, 0, 67, 52
1, 73710, Note_on_c, 0, 57, 39
1, 73728, Tempo, 1144165
1, 73758, Control_c, 0, 64, 24
1, 73758, Control_c, 0, 64, 127
1, 73890, Note_on_c, 0, 67, 0
1, 73912, Note_on_c, 0, 72, 0
1, 73934, Note_on_c, 0, 57, 0
1, 73938, Note_on_c, 0, 48, 51
1, 73958, Note_on_c, 0, 62, 0
1, 74074, Note_on_c, 0, 69, 57
1, 74076, Note_on_c, 0, 60, 57
1, 74076, Note_on_c, 0, 57, 50
1, 74078, Note_on_c, 0, 65, 49
1, 74084, Note_on_c, 0, 62, 45
1, 74088, Note_on_c, 0, 41, 0
1, 74112, Tempo, 1334816
1, 74138, Note_on_c, 0, 57, 0
1, 74298, Note_on_c, 0, 48, 0
1, 74310, Note_on_c, 0, 60, 0
1, 74310, Note_on_c, 0, 69, 0
1, 74312, Note_on_c, 0, 41, 49
1, 74330, Note_on_c, 0, 65, 0
1, 74342, Note_on_c, 0, 62, 0
1, 74348, Note_on_c, 0, 41, 0
1, 74468, Control_c, 0, 64, 0
1, 74478, Note_on_c, 0, 58, 72
1, 74482, Note_on_c, 0, 67, 63
1, 74482, Note_on_c, 0, 40, 54
1, 74484, Note_on_c, 0, 64, 53
1, 74484, Note_on_c, 0, 62, 57
1, 74486, Note_on_c, 0, 52, 50
1, 74496, Tempo, 1224990
1, 74532, Control_c, 0, 64, 127
1, 74638, Note_on_c, 0, 40, 0
1, 74674, Note_on_c, 0, 52, 0
1, 74682, Note_on_c, 0, 67, 0
1, 74704, Note_on_c, 0, 62, 0
1, 74716, Note_on_c, 0, 64, 0
1, 74726, Note_on_c, 0, 58, 0
1, 74868, Control_c, 0, 64, 0
1, 74880, Tempo, 1164144
1, 74888, Note_on_c, 0, 58, 52
1, 74890, Note_on_c, 0, 61, 49
1, 74890, Note_on_c, 0, 64, 47
1, 74890, Note_on_c, 0, 55, 41
1, 74892, Note_on_c, 0, 49, 41
1, 74898, Note_on_c, 0, 45, 39
1, 74928, Note_on_c, 0, 55, 0
1, 74936, Control_c, 0, 64, 127
1, 74952, Note_on_c, 0, 58, 0
1, 74960, Note_on_c, 0, 64, 0
1, 74964, Note_on_c, 0, 61, 0
1, 75114, Note_on_c, 0, 45, 0
1, 75130, Note_on_c, 0, 69, 111
1, 75132, Note_on_c, 0, 49, 0
1, 75182, Note_on_c, 0, 69, 0
1, 75272, Control_c, 0, 64, 0
1, 75276, Note_on_c, 0, 77, 127
1, 75282, Note_on_c, 0, 57, 49
1, 75282, Note_on_c, 0, 50, 54
1, 75366, Control_c, 0, 64, 127
1, 75442, Note_on_c, 0, 77, 0
1, 75502, Note_on_c, 0, 76, 92
1, 75630, Note_on_c, 0, 50, 0
1, 75646, Note_on_c, 0, 74, 74
1, 75648, Tempo, 1018676
1, 75648, Note_on_c, 0, 65, 65
1, 75648, Note_on_c, 0, 64, 46
1, 75664, Control_c, 0, 64, 0
1, 75664, Note_on_c, 0, 76, 0
1, 75734, Control_c, 0, 64, 127
1, 75758, Note_on_c, 0, 64, 0
1, 75780, Note_on_c, 0, 65, 0
1, 75868, Note_on_c, 0, 74, 0
1, 75880, Note_on_c, 0, 69, 60
1, 75884, Note_on_c, 0, 65, 44
1, 75894, Note_on_c, 0, 50, 38
1, 75924, Note_on_c, 0, 57, 0
1, 75948, Note_on_c, 0, 50, 0
1, 75962, Note_on_c, 0, 69, 0
1, 75980, Note_on_c, 0, 65, 0
1, 76032, Tempo, 1154068
1, 76032, Note_on_c, 0, 48, 45
1, 76036, Note_on_c, 0, 67, 68
1, 76036, Note_on_c, 0, 57, 39
1, 76040, Control_c, 0, 64, 0
1, 76138, Note_on_c, 0, 67, 0
1, 76152, Note_on_c, 0, 69, 56
1, 76172, Note_on_c, 0, 67, 52
1, 76182, Note_on_c, 0, 69, 0
1, 76208, Note_on_c, 0, 65, 49
1, 76214, Note_on_c, 0, 67, 0
1, 76244, Note_on_c, 0, 65, 0
1, 76260, Note_on_c, 0, 62, 56
1, 76340, Note_on_c, 0, 57, 0
1, 76396, Note_on_c, 0, 62, 0
1, 76416, Tempo, 1169819
1, 76432, Note_on_c, 0, 57, 39
1, 76432, Note_on_c, 0, 62, 41
1, 76482, Control_c, 0, 64, 127
1, 76524, Note_on_c, 0, 48, 0
1, 76656, Note_on_c, 0, 48, 54
1, 76718, Note_on_c, 0, 48, 0
1, 76784, Note_on_c, 0, 57, 0
1, 76788, Note_on_c, 0, 62, 0
1, 76800, Tempo, 1127184
1, 76800, Control_c, 0, 64, 0
1, 76800, Note_on_c, 0, 47, 61
1, 76866, Control_c, 0, 64, 127
1, 77022, Note_on_c, 0, 65, 102
1, 77022, Note_on_c, 0, 62, 115
1, 77024, Control_c, 0, 64, 0
1, 77026, Note_on_c, 0, 57, 71
1, 77042, Control_c, 0, 64, 127
1, 77126, Note_on_c, 0, 62, 0
1, 77128, Note_on_c, 0, 57, 0
1, 77136, Note_on_c, 0, 65, 0
1, 77168, Note_on_c, 0, 57, 57
1, 77168, Note_on_c, 0, 65, 82
1, 77170, Note_on_c, 0, 62, 88
1, 77184, Tempo, 1135933
1, 77276, Note_on_c, 0, 47, 0
1, 77300, Note_on_c, 0, 62, 0
1, 77394, Note_on_c, 0, 65, 0
1, 77402, Note_on_c, 0, 57, 0
1, 77402, Note_on_c, 0, 62, 60
1, 77402, Note_on_c, 0, 47, 41
1, 77428, Note_on_c, 0, 47, 0
1, 77462, Note_on_c, 0, 62, 0
1, 77534, Control_c, 0, 64, 0
1, 77550, Note_on_c, 0, 62, 54
1, 77552, Note_on_c, 0, 60, 48
1, 77554, Note_on_c, 0, 57, 49
1, 77554, Note_on_c, 0, 46, 43
1, 77562, Note_on_c, 0, 65, 43
1, 77568, Tempo, 1124016
1, 77568, Note_on_c, 0, 60, 0
1, 77592, Note_on_c, 0, 62, 0
1, 77612, Note_on_c, 0, 65, 0
1, 77672, Note_on_c, 0, 67, 60
1, 77680, Note_on_c, 0, 68, 66
1, 77692, Note_on_c, 0, 68, 0
1, 77704, Note_on_c, 0, 69, 56
1, 77708, Note_on_c, 0, 67, 0
1, 77734, Note_on_c, 0, 69, 0
1, 77766, Note_on_c, 0, 57, 0
1, 77794, Note_on_c, 0, 74, 63
1, 77794, Note_on_c, 0, 72, 64
1, 77818, Note_on_c, 0, 72, 0
1, 77824, Note_on_c, 0, 74, 0
1, 77918, Note_on_c, 0, 57, 55
1, 77952, Tempo, 1136364
1, 77974, Control_c, 0, 64, 127
1, 78020, Note_on_c, 0, 77, 75
1, 78050, Note_on_c, 0, 46, 0
1, 78060, Note_on_c, 0, 77, 0
1, 78114, Note_on_c, 0, 81, 87
1, 78124, Note_on_c, 0, 57, 0
1, 78154, Note_on_c, 0, 81, 0
1, 78212, Note_on_c, 0, 84, 98
1, 78262, Note_on_c, 0, 84, 0
1, 78320, Control_c, 0, 64, 0
1, 78324, Note_on_c, 0, 86, 99
1, 78330, Note_on_c, 0, 57, 56
1, 78334, Note_on_c, 0, 50, 54
1, 78336, Tempo, 1111935
1, 78388, Note_on_c, 0, 86, 0
1, 78448, Note_on_c, 0, 91, 122
1, 78516, Note_on_c, 0, 91, 0
1, 78544, Control_c, 0, 64, 127
1, 78562, Note_on_c, 0, 89, 117
1, 78622, Note_on_c, 0, 89, 0
1, 78634, Note_on_c, 0, 57, 0
1, 78648, Note_on_c, 0, 85, 92
1, 78708, Control_c, 0, 64, 0
1, 78710, Note_on_c, 0, 85, 0
1, 78720, Tempo, 1095890
1, 78728, Note_on_c, 0, 88, 88
1, 78728, Note_on_c, 0, 62, 48
1, 78732, Note_on_c, 0, 57, 49
1, 78754, Note_on_c, 0, 62, 0
1, 78784, Note_on_c, 0, 88, 0
1, 78806, Note_on_c, 0, 86, 83
1, 78812, Control_c, 0, 64, 127
1, 78818, Note_on_c, 0, 88, 40
1, 78838, Note_on_c, 0, 88, 0
1, 78866, Note_on_c, 0, 86, 0
1, 78882, Note_on_c, 0, 57, 0
1, 78884, Note_on_c, 0, 81, 68
1, 78918, Note_on_c, 0, 81, 0
1, 78966, Note_on_c, 0, 79, 96
1, 78968, Note_on_c, 0, 50, 0
1, 78974, Note_on_c, 0, 86, 69
1, 79020, Note_on_c, 0, 79, 0
1, 79034, Note_on_c, 0, 81, 69
1, 79052, Note_on_c, 0, 86, 0
1, 79068, Note_on_c, 0, 79, 63
1, 79076, Note_on_c, 0, 81, 0
1, 79104, Tempo, 1107829
1, 79114, Note_on_c, 0, 77, 65
1, 79116, Note_on_c, 0, 79, 0
1, 79124, Control_c, 0, 64, 0
1, 79138, Note_on_c, 0, 49, 42
1, 79140, Note_on_c, 0, 57, 42
1, 79148, Note_on_c, 0, 77, 0
1, 79172, Note_on_c, 0, 76, 63
1, 79234, Note_on_c, 0, 76, 0
1, 79246, Note_on_c, 0, 79, 81
1, 79298, Note_on_c, 0, 79, 0
1, 79336, Note_on_c, 0, 57, 0
1, 79338, Note_on_c, 0, 77, 83
1, 79340, Control_c, 0, 64, 127
1, 79376, Note_on_c, 0, 77, 0
1, 79440, Note_on_c, 0, 76, 89
1, 79478, Note_on_c, 0, 76, 0
1, 79488, Tempo, 1002004
1, 79524, Control_c, 0, 64, 0
1, 79524, Note_on_c, 0, 73, 79
1, 79526, Note_on_c, 0, 57, 45
1, 79572, Note_on_c, 0, 73, 0
1, 79596, Note_on_c, 0, 69, 57
1, 79622, Note_on_c, 0, 69, 0
1, 79640, Control_c, 0, 64, 127
1, 79664, Note_on_c, 0, 64, 56
1, 79688, Note_on_c, 0, 57, 0
1, 79690, Note_on_c, 0, 64, 0
1, 79718, Note_on_c, 0, 61, 63
1, 79728, Note_on_c, 0, 49, 0
1, 79746, Note_on_c, 0, 61, 0
1, 79772, Note_on_c, 0, 49, 48
1, 79796, Note_on_c, 0, 57, 50
1, 79806, Note_on_c, 0, 57, 0
1, 79832, Note_on_c, 0, 49, 0
1, 79850, Control_c, 0, 64, 0
1, 79866, Note_on_c, 0, 48, 54
1, 79872, Tempo, 1070855
1, 79878, Note_on_c, 0, 57, 42
1, 79928, Control_c, 0, 64, 127
1, 79976, Note_on_c, 0, 57, 0
1, 80106, Note_on_c, 0, 57, 60
1, 80122, Note_on_c, 0, 57, 0
1, 80240, Note_on_c, 0, 62, 68
1, 80244, Note_on_c, 0, 57, 42
1, 80256, Tempo, 1092100
1, 80324, Note_on_c, 0, 48, 0
1, 80342, Note_on_c, 0, 62, 0
1, 80358, Note_on_c, 0, 64, 66
1, 80460, Note_on_c, 0, 64, 0
1, 80478, Note_on_c, 0, 48, 47
1, 80478, Note_on_c, 0, 62, 55
1, 80490, Note_on_c, 0, 57, 0
1, 80512, Note_on_c, 0, 62, 0
1, 80526, Note_on_c, 0, 48, 0
1, 80586, Control_c, 0, 64, 0
1, 80606, Note_on_c, 0, 65, 55
1, 80610, Note_on_c, 0, 62, 54
1, 80614, Note_on_c, 0, 59, 45
1, 80620, Note_on_c, 0, 47, 36
1, 80624, Note_on_c, 0, 55, 33
1, 80640, Tempo, 1157854
1, 80652, Control_c, 0, 64, 127
1, 80752, Note_on_c, 0, 59, 0
1, 80758, Note_on_c, 0, 62, 0
1, 80786, Note_on_c, 0, 47, 0
1, 80798, Note_on_c, 0, 65, 0
1, 80824, Note_on_c, 0, 55, 0
1, 80864, Note_on_c, 0, 47, 49
1, 80866, Control_c, 0, 64, 0
1, 80868, Note_on_c, 0, 62, 66
1, 80876, Note_on_c, 0, 55, 39
1, 80880, Note_on_c, 0, 59, 45
1, 80894, Control_c, 0, 64, 104
1, 80896, Control_c, 0, 64, 127
1, 80910, Note_on_c, 0, 55, 0
1, 80954, Note_on_c, 0, 59, 0
1, 80970, Note_on_c, 0, 62, 0
1, 81008, Note_on_c, 0, 55, 66
1, 81024, Tempo, 1221250
1, 81038, Note_on_c, 0, 47, 0
1, 81044, Note_on_c, 0, 55, 0
1, 81132, Note_on_c, 0, 76, 96
1, 81132, Note_on_c, 0, 65, 85
1, 81132, Note_on_c, 0, 69, 79
1, 81136, Note_on_c, 0, 64, 81
1, 81136, Control_c, 0, 64, 0
1, 81138, Note_on_c, 0, 73, 52
1, 81154, Note_on_c, 0, 73, 0
1, 81212, Note_on_c, 0, 65, 0
1, 81226, Note_on_c, 0, 76, 0
1, 81226, Note_on_c, 0, 69, 0
1, 81236, Note_on_c, 0, 64, 0
1, 81240, Control_c, 0, 64, 127
1, 81248, Note_on_c, 0, 74, 67
1, 81250, Note_on_c, 0, 62, 71
1, 81252, Note_on_c, 0, 65, 30
1, 81260, Note_on_c, 0, 69, 36
1, 81268, Note_on_c, 0, 65, 0
1, 81280, Note_on_c, 0, 69, 0
1, 81294, Note_on_c, 0, 74, 0
1, 81364, Note_on_c, 0, 62, 0
1, 81370, Control_c, 0, 64, 0
1, 81382, Note_on_c, 0, 79, 84
1, 81384, Note_on_c, 0, 64, 68
1, 81384, Note_on_c, 0, 73, 80
1, 81386, Note_on_c, 0, 69, 74
1, 81408, Tempo, 1150969
1, 81442, Control_c, 0, 64, 127
1, 81500, Note_on_c, 0, 79, 0
1, 81518, Note_on_c, 0, 69, 0
1, 81522, Note_on_c, 0, 73, 0
1, 81584, Note_on_c, 0, 64, 0
1, 81590, Control_c, 0, 64, 0
1, 81604, Note_on_c, 0, 77, 82
1, 81608, Note_on_c, 0, 72, 79
1, 81612, Note_on_c, 0, 62, 58
1, 81632, Control_c, 0, 64, 127
1, 81664, Note_on_c, 0, 72, 0
1, 81668, Note_on_c, 0, 77, 0
1, 81746, Control_c, 0, 64, 0
1, 81756, Note_on_c, 0, 76, 65
1, 81758, Note_on_c, 0, 69, 61
1, 81758, Note_on_c, 0, 65, 54
1, 81760, Note_on_c, 0, 62, 0
1, 81762, Note_on_c, 0, 73, 58
1, 81762, Note_on_c, 0, 61, 57
1, 81792, Tempo, 1106807
1, 81800, Control_c, 0, 64, 127
1, 81846, Note_on_c, 0, 73, 0
1, 81874, Note_on_c, 0, 65, 0
1, 81876, Note_on_c, 0, 69, 0
1, 81904, Note_on_c, 0, 76, 0
1, 81908, Note_on_c, 0, 61, 0
1, 81994, Control_c, 0, 64, 0
1, 81994, Note_on_c, 0, 74, 71
1, 81996, Note_on_c, 0, 69, 72
1, 82000, Note_on_c, 0, 65, 62
1, 82000, Note_on_c, 0, 60, 60
1, 82060, Control_c, 0, 64, 127
1, 82112, Note_on_c, 0, 60, 0
1, 82152, Note_on_c, 0, 74, 0
1, 82152, Note_on_c, 0, 69, 0
1, 82176, Tempo, 1078167
1, 82182, Note_on_c, 0, 65, 0
1, 82364, Note_on_c, 0, 49, 66
1, 82486, Note_on_c, 0, 49, 0
1, 82508, Note_on_c, 0, 61, 63
1, 82510, Note_on_c, 0, 49, 42
1, 82512, Note_on_c, 0, 64, 63
1, 82514, Note_on_c, 0, 57, 57
1, 82516, Control_c, 0, 64, 0
1, 82560, Tempo, 1080692
1, 82572, Control_c, 0, 64, 127
1, 82666, Note_on_c, 0, 49, 0
1, 82746, Note_on_c, 0, 64, 0
1, 82748, Note_on_c, 0, 61, 0
1, 82766, Note_on_c, 0, 49, 51
1, 82804, Note_on_c, 0, 57, 0
1, 82864, Note_on_c, 0, 49, 0
1, 82902, Control_c, 0, 64, 88
1, 82904, Control_c, 0, 64, 0
1, 82930, Note_on_c, 0, 57, 50
1, 82932, Note_on_c, 0, 60, 54
1, 82932, Note_on_c, 0, 65, 61
1, 82936, Note_on_c, 0, 48, 47
1, 82944, Tempo, 1093294
1, 82984, Control_c, 0, 64, 127
1, 83108, Note_on_c, 0, 60, 0
1, 83166, Note_on_c, 0, 57, 0
1, 83170, Note_on_c, 0, 65, 0
1, 83186, Note_on_c, 0, 60, 59
1, 83204, Note_on_c, 0, 60, 0
1, 83314, Note_on_c, 0, 71, 94
1, 83324, Note_on_c, 0, 57, 46
1, 83328, Tempo, 1030220
1, 83402, Note_on_c, 0, 71, 0
1, 83432, Note_on_c, 0, 72, 80
1, 83470, Note_on_c, 0, 57, 0
1, 83476, Note_on_c, 0, 48, 0
1, 83498, Note_on_c, 0, 72, 0
1, 83524, Note_on_c, 0, 70, 78
1, 83596, Note_on_c, 0, 70, 0
1, 83606, Note_on_c, 0, 71, 64
1, 83678, Note_on_c, 0, 71, 0
1, 83688, Note_on_c, 0, 62, 40
1, 83692, Note_on_c, 0, 56, 49
1, 83696, Control_c, 0, 64, 0
1, 83698, Note_on_c, 0, 52, 32
1, 83704, Note_on_c, 0, 72, 39
1, 83712, Tempo, 1040583
1, 83756, Note_on_c, 0, 72, 0
1, 83810, Note_on_c, 0, 75, 72
1, 83866, Note_on_c, 0, 75, 0
1, 83882, Note_on_c, 0, 76, 73
1, 83912, Note_on_c, 0, 52, 0
1, 83916, Note_on_c, 0, 76, 0
1, 83918, Note_on_c, 0, 56, 0
1, 83942, Note_on_c, 0, 77, 72
1, 83952, Note_on_c, 0, 62, 0
1, 83970, Note_on_c, 0, 77, 0
1, 84000, Note_on_c, 0, 80, 77
1, 84006, Control_c, 0, 64, 127
1, 84030, Note_on_c, 0, 80, 0
1, 84046, Control_c, 0, 64, 0
1, 84064, Note_on_c, 0, 83, 71
1, 84080, Note_on_c, 0, 67, 52
1, 84082, Note_on_c, 0, 62, 46
1, 84082, Note_on_c, 0, 56, 46
1, 84096, Tempo, 987980
1, 84102, Note_on_c, 0, 83, 0
1, 84144, Note_on_c, 0, 86, 87
1, 84208, Note_on_c, 0, 86, 0
1, 84220, Control_c, 0, 64, 127
1, 84222, Note_on_c, 0, 83, 61
1, 84240, Note_on_c, 0, 83, 0
1, 84250, Note_on_c, 0, 67, 0
1, 84252, Note_on_c, 0, 62, 0
1, 84254, Control_c, 0, 64, 0
1, 84266, Control_c, 0, 64, 127
1, 84274, Note_on_c, 0, 84, 70
1, 84294, Note_on_c, 0, 56, 0
1, 84322, Note_on_c, 0, 86, 61
1, 84326, Note_on_c, 0, 84, 0
1, 84352, Note_on_c, 0, 86, 0
1, 84360, Note_on_c, 0, 87, 60
1, 84370, Note_on_c, 0, 87, 0
1, 84406, Note_on_c, 0, 88, 57
1, 84444, Note_on_c, 0, 88, 0
1, 84456, Note_on_c, 0, 93, 70
1, 84458, Control_c, 0, 64, 0
1, 84480, Tempo, 1080302
1, 84486, Note_on_c, 0, 93, 0
1, 84502, Note_on_c, 0, 55, 49
1, 84508, Note_on_c, 0, 96, 111
1, 84508, Note_on_c, 0, 45, 45
1, 84508, Note_on_c, 0, 52, 41
1, 84552, Control_c, 0, 64, 127
1, 84598, Note_on_c, 0, 93, 80
1, 84604, Note_on_c, 0, 45, 0
1, 84610, Note_on_c, 0, 52, 0
1, 84616, Note_on_c, 0, 96, 0
1, 84628, Note_on_c, 0, 55, 0
1, 84650, Note_on_c, 0, 93, 0
1, 84682, Note_on_c, 0, 85, 66
1, 84728, Note_on_c, 0, 85, 0
1, 84772, Note_on_c, 0, 85, 68
1, 84810, Note_on_c, 0, 85, 0
1, 84864, Tempo, 1024940
1, 84878, Note_on_c, 0, 65, 44
1, 84880, Note_on_c, 0, 85, 65
1, 84882, Note_on_c, 0, 61, 39
1, 84884, Control_c, 0, 64, 0
1, 84890, Note_on_c, 0, 55, 39
1, 84890, Note_on_c, 0, 60, 27
1, 84914, Control_c, 0, 64, 127
1, 84926, Note_on_c, 0, 85, 0
1, 84978, Note_on_c, 0, 65, 0
1, 84992, Note_on_c, 0, 61, 0
1, 84994, Note_on_c, 0, 60, 0
1, 85016, Note_on_c, 0, 55, 0
1, 85248, Tempo, 1042753
1, 85254, Control_c, 0, 64, 0
1, 85266, Note_on_c, 0, 38, 63
1, 85294, Control_c, 0, 64, 127
1, 85374, Note_on_c, 0, 38, 0
1, 85392, Note_on_c, 0, 96, 82
1, 85394, Note_on_c, 0, 87, 82
1, 85396, Note_on_c, 0, 92, 72
1, 85430, Note_on_c, 0, 92, 0
1, 85432, Note_on_c, 0, 87, 0
1, 85434, Note_on_c, 0, 96, 0
1, 85468, Note_on_c, 0, 89, 94
1, 85468, Note_on_c, 0, 98, 90
1, 85468, Note_on_c, 0, 94, 80
1, 85510, Note_on_c, 0, 89, 0
1, 85520, Note_on_c, 0, 94, 0
1, 85522, Note_on_c, 0, 98, 0
1, 85556, Note_on_c, 0, 98, 83
1, 85560, Note_on_c, 0, 89, 72
1, 85560, Note_on_c, 0, 94, 80
1, 85580, Note_on_c, 0, 89, 0
1, 85588, Note_on_c, 0, 98, 0
1, 85600, Note_on_c, 0, 94, 0
1, 85622, Control_c, 0, 64, 0
1, 85624, Note_on_c, 0, 65, 45
1, 85626, Note_on_c, 0, 96, 63
1, 85626, Note_on_c, 0, 92, 61
1, 85626, Note_on_c, 0, 60, 48
1, 85626, Note_on_c, 0, 54, 39
1, 85630, Note_on_c, 0, 87, 56
1, 85632, Tempo, 1099908
1, 85664, Note_on_c, 0, 87, 0
1, 85668, Control_c, 0, 64, 127
1, 85682, Note_on_c, 0, 96, 0
1, 85684, Note_on_c, 0, 92, 0
1, 85706, Note_on_c, 0, 65, 0
1, 85734, Note_on_c, 0, 54, 0
1, 85736, Note_on_c, 0, 60, 0
1, 85742, Note_on_c, 0, 87, 54
1, 85746, Note_on_c, 0, 92, 56
1, 85746, Note_on_c, 0, 96, 45
1, 85772, Note_on_c, 0, 87, 0
1, 85790, Note_on_c, 0, 96, 0
1, 85790, Note_on_c, 0, 92, 0
1, 85820, Note_on_c, 0, 94, 63
1, 85820, Note_on_c, 0, 98, 71
1, 85820, Note_on_c, 0, 89, 61
1, 85866, Note_on_c, 0, 89, 0
1, 85880, Note_on_c, 0, 94, 0
1, 85882, Note_on_c, 0, 98, 0
1, 85940, Note_on_c, 0, 98, 68
1, 85942, Note_on_c, 0, 94, 59
1, 85944, Note_on_c, 0, 89, 63
1, 85958, Note_on_c, 0, 89, 0
1, 85976, Note_on_c, 0, 98, 0
1, 85982, Note_on_c, 0, 94, 0
1, 86016, Tempo, 1192132
1, 86026, Note_on_c, 0, 43, 48
1, 86030, Note_on_c, 0, 31, 58
1, 86032, Control_c, 0, 64, 0
1, 86074, Control_c, 0, 64, 127
1, 86136, Note_on_c, 0, 31, 0
1, 86154, Note_on_c, 0, 43, 0
1, 86222, Note_on_c, 0, 85, 96
1, 86222, Note_on_c, 0, 80, 92
1, 86222, Note_on_c, 0, 77, 88
1, 86268, Note_on_c, 0, 77, 0
1, 86294, Note_on_c, 0, 80, 0
1, 86296, Note_on_c, 0, 85, 0
1, 86338, Note_on_c, 0, 85, 75
1, 86340, Note_on_c, 0, 80, 68
1, 86344, Note_on_c, 0, 77, 58
1, 86354, Note_on_c, 0, 77, 0
1, 86372, Note_on_c, 0, 80, 0
1, 86380, Note_on_c, 0, 85, 0
1, 86400, Tempo, 1168679
1, 86410, Control_c, 0, 64, 0
1, 86410, Note_on_c, 0, 63, 57
1, 86410, Note_on_c, 0, 59, 57
1, 86410, Note_on_c, 0, 87, 82
1, 86414, Note_on_c, 0, 82, 81
1, 86414, Note_on_c, 0, 79, 73
1, 86420, Note_on_c, 0, 53, 48
1, 86468, Note_on_c, 0, 79, 0
1, 86472, Note_on_c, 0, 87, 0
1, 86474, Control_c, 0, 64, 127
1, 86494, Note_on_c, 0, 82, 0
1, 86520, Note_on_c, 0, 87, 74
1, 86552, Note_on_c, 0, 87, 0
1, 86566, Note_on_c, 0, 63, 0
1, 86596, Note_on_c, 0, 75, 48
1, 86598, Note_on_c, 0, 79, 50
1, 86598, Note_on_c, 0, 63, 50
1, 86602, Note_on_c, 0, 84, 48
1, 86644, Note_on_c, 0, 53, 0
1, 86646, Note_on_c, 0, 75, 0
1, 86648, Note_on_c, 0, 63, 0
1, 86654, Note_on_c, 0, 84, 0
1, 86658, Note_on_c, 0, 79, 0
1, 86680, Note_on_c, 0, 59, 0
1, 86784, Tempo, 1252087
1, 87062, Control_c, 0, 64, 0
1, 87078, Note_on_c, 0, 58, 85
1, 87080, Note_on_c, 0, 62, 78
1, 87080, Note_on_c, 0, 69, 72
1, 87082, Note_on_c, 0, 65, 65
1, 87088, Note_on_c, 0, 57, 73
1, 87134, Note_on_c, 0, 69, 0
1, 87138, Note_on_c, 0, 58, 0
1, 87140, Note_on_c, 0, 65, 0
1, 87142, Note_on_c, 0, 62, 0
1, 87152, Note_on_c, 0, 57, 0
1, 87168, Tempo, 1053186
1, 87176, Note_on_c, 0, 62, 57
1, 87178, Note_on_c, 0, 55, 53
1, 87178, Note_on_c, 0, 58, 58
1, 87178, Note_on_c, 0, 67, 60
1, 87204, Note_on_c, 0, 58, 0
1, 87210, Note_on_c, 0, 62, 0
1, 87218, Note_on_c, 0, 55, 0
1, 87224, Note_on_c, 0, 67, 0
1, 87238, Control_c, 0, 64, 127
1, 87270, Control_c, 0, 64, 0
1, 87292, Note_on_c, 0, 75, 82
1, 87296, Note_on_c, 0, 58, 70
1, 87296, Note_on_c, 0, 64, 72
1, 87296, Note_on_c, 0, 68, 68
1, 87342, Control_c, 0, 64, 127
1, 87352, Note_on_c, 0, 75, 0
1, 87354, Note_on_c, 0, 68, 0
1, 87354, Note_on_c, 0, 64, 0
1, 87358, Note_on_c, 0, 58, 0
1, 87360, Control_c, 0, 64, 0
1, 87394, Control_c, 0, 64, 127
1, 87410, Note_on_c, 0, 56, 57
1, 87412, Note_on_c, 0, 73, 62
1, 87414, Note_on_c, 0, 68, 68
1, 87420, Note_on_c, 0, 64, 57
1, 87422, Note_on_c, 0, 56, 0
1, 87454, Note_on_c, 0, 64, 0
1, 87466, Note_on_c, 0, 73, 0
1, 87480, Note_on_c, 0, 68, 0
1, 87508, Control_c, 0, 64, 0
1, 87528, Note_on_c, 0, 41, 56
1, 87528, Note_on_c, 0, 72, 59
1, 87528, Note_on_c, 0, 62, 51
1, 87528, Note_on_c, 0, 67, 53
1, 87528, Note_on_c, 0, 48, 58
1, 87552, Tempo, 1215067
1, 87574, Control_c, 0, 64, 127
1, 87594, Note_on_c, 0, 62, 0
1, 87636, Note_on_c, 0, 67, 0
1, 87646, Note_on_c, 0, 41, 0
1, 87658, Note_on_c, 0, 72, 0
1, 87756, Note_on_c, 0, 48, 0
1, 87774, Note_on_c, 0, 41, 68
1, 87806, Note_on_c, 0, 41, 0
1, 87914, Control_c, 0, 64, 0
1, 87916, Note_on_c, 0, 68, 75
1, 87918, Note_on_c, 0, 67, 58
1, 87924, Note_on_c, 0, 64, 65
1, 87926, Note_on_c, 0, 53, 50
1, 87926, Note_on_c, 0, 60, 53
1, 87930, Note_on_c, 0, 57, 48
1, 87936, Tempo, 1159869
1, 87936, Note_on_c, 0, 68, 0
1, 87938, Note_on_c, 0, 69, 71
1, 87946, Note_on_c, 0, 67, 0
1, 87988, Control_c, 0, 64, 127
1, 88000, Note_on_c, 0, 69, 0
1, 88028, Note_on_c, 0, 64, 0
1, 88042, Note_on_c, 0, 60, 0
1, 88046, Note_on_c, 0, 57, 0
1, 88052, Note_on_c, 0, 72, 122
1, 88068, Note_on_c, 0, 53, 0
1, 88118, Note_on_c, 0, 72, 0
1, 88178, Note_on_c, 0, 74, 122
1, 88264, Note_on_c, 0, 74, 0
1, 88294, Control_c, 0, 64, 0
1, 88308, Note_on_c, 0, 72, 87
1, 88312, Note_on_c, 0, 50, 55
1, 88320, Tempo, 1206273
1, 88338, Note_on_c, 0, 72, 0
1, 88444, Note_on_c, 0, 41, 48
1, 88456, Note_on_c, 0, 50, 0
1, 88480, Control_c, 0, 64, 127
1, 88548, Control_c, 0, 64, 0
1, 88560, Note_on_c, 0, 58, 63
1, 88564, Note_on_c, 0, 65, 56
1, 88570, Note_on_c, 0, 50, 48
1, 88580, Note_on_c, 0, 49, 46
1, 88588, Control_c, 0, 64, 127
1, 88644, Note_on_c, 0, 65, 0
1, 88660, Note_on_c, 0, 41, 0
1, 88662, Control_c, 0, 64, 0
1, 88674, Note_on_c, 0, 58, 0
1, 88678, Note_on_c, 0, 50, 0
1, 88686, Note_on_c, 0, 49, 0
1, 88694, Note_on_c, 0, 65, 41
1, 88694, Note_on_c, 0, 41, 52
1, 88702, Note_on_c, 0, 57, 57
1, 88704, Tempo, 1193792
1, 88704, Note_on_c, 0, 48, 52
1, 88724, Control_c, 0, 64, 127
1, 88804, Note_on_c, 0, 41, 0
1, 88916, Note_on_c, 0, 57, 0
1, 88940, Note_on_c, 0, 41, 56
1, 88964, Note_on_c, 0, 48, 0
1, 88980, Note_on_c, 0, 41, 0
1, 88994, Note_on_c, 0, 65, 0
1, 89042, Control_c, 0, 64, 0
1, 89072, Note_on_c, 0, 58, 50
1, 89076, Note_on_c, 0, 55, 45
1, 89076, Note_on_c, 0, 62, 51
1, 89076, Note_on_c, 0, 40, 43
1, 89084, Note_on_c, 0, 50, 41
1, 89088, Tempo, 1119821
1, 89100, Control_c, 0, 64, 127
1, 89110, Note_on_c, 0, 55, 0
1, 89136, Note_on_c, 0, 58, 0
1, 89138, Note_on_c, 0, 62, 0
1, 89176, Note_on_c, 0, 40, 0
1, 89202, Note_on_c, 0, 50, 0
1, 89216, Note_on_c, 0, 62, 69
1, 89260, Note_on_c, 0, 62, 0
1, 89328, Note_on_c, 0, 67, 81
1, 89414, Note_on_c, 0, 67, 0
1, 89450, Control_c, 0, 64, 0
1, 89452, Note_on_c, 0, 70, 71
1, 89456, Note_on_c, 0, 62, 48
1, 89456, Note_on_c, 0, 58, 44
1, 89468, Note_on_c, 0, 52, 37
1, 89472, Tempo, 1086366
1, 89532, Control_c, 0, 64, 127
1, 89552, Note_on_c, 0, 70, 0
1, 89582, Note_on_c, 0, 67, 63
1, 89644, Note_on_c, 0, 67, 0
1, 89658, Note_on_c, 0, 52, 0
1, 89662, Note_on_c, 0, 58, 0
1, 89706, Note_on_c, 0, 69, 115
1, 89710, Note_on_c, 0, 62, 0
1, 89774, Note_on_c, 0, 69, 0
1, 89822, Control_c, 0, 64, 0
1, 89828, Note_on_c, 0, 70, 98
1, 89836, Note_on_c, 0, 61, 57
1, 89840, Note_on_c, 0, 65, 56
1, 89844, Note_on_c, 0, 55, 48
1, 89856, Tempo, 1132717
1, 89908, Control_c, 0, 64, 127
1, 89922, Note_on_c, 0, 65, 0
1, 89934, Note_on_c, 0, 70, 0
1, 89960, Note_on_c, 0, 61, 0
1, 89962, Note_on_c, 0, 72, 64
1, 89972, Note_on_c, 0, 55, 0
1, 89978, Note_on_c, 0, 70, 37
1, 89996, Note_on_c, 0, 70, 0
1, 90004, Note_on_c, 0, 72, 0
1, 90086, Note_on_c, 0, 61, 63
1, 90178, Note_on_c, 0, 61, 0
1, 90190, Control_c, 0, 64, 0
1, 90208, Note_on_c, 0, 55, 41
1, 90216, Note_on_c, 0, 45, 39
1, 90218, Note_on_c, 0, 63, 57
1, 90240, Tempo, 1120867
1, 90258, Control_c, 0, 64, 127
1, 90282, Note_on_c, 0, 55, 0
1, 90334, Note_on_c, 0, 63, 0
1, 90340, Note_on_c, 0, 55, 72
1, 90372, Note_on_c, 0, 45, 0
1, 90424, Note_on_c, 0, 55, 0
1, 90464, Note_on_c, 0, 57, 86
1, 90570, Note_on_c, 0, 57, 0
1, 90590, Note_on_c, 0, 26, 75
1, 90596, Control_c, 0, 64, 0
1, 90624, Tempo, 1097896
1, 90678, Control_c, 0, 64, 127
1, 90826, Note_on_c, 0, 26, 0
1, 91008, Tempo, 1053186
1, 91012, Note_on_c, 0, 69, 48
1, 91012, Note_on_c, 0, 65, 43
1, 91016, Note_on_c, 0, 62, 52
1, 91076, Note_on_c, 0, 69, 0
1, 91166, Note_on_c, 0, 65, 0
1, 91210, Note_on_c, 0, 62, 0
1, 91264, Note_on_c, 0, 76, 70
1, 91306, Note_on_c, 0, 76, 0
1, 91392, Tempo, 1031282
1, 91396, Control_c, 0, 64, 0
1, 91406, Note_on_c, 0, 76, 59
1, 91406, Note_on_c, 0, 61, 46
1, 91410, Note_on_c, 0, 69, 49
1, 91410, Note_on_c, 0, 65, 36
1, 91480, Control_c, 0, 64, 127
1, 91534, Note_on_c, 0, 65, 0
1, 91538, Note_on_c, 0, 76, 0
1, 91552, Note_on_c, 0, 69, 0
1, 91618, Note_on_c, 0, 61, 0
1, 91636, Note_on_c, 0, 76, 67
1, 91722, Note_on_c, 0, 76, 0
1, 91758, Control_c, 0, 64, 0
1, 91776, Tempo, 1061947
1, 91778, Note_on_c, 0, 74, 57
1, 91778, Note_on_c, 0, 65, 38
1, 91782, Note_on_c, 0, 69, 42
1, 91784, Note_on_c, 0, 60, 39
1, 91808, Control_c, 0, 64, 127
1, 91872, Note_on_c, 0, 60, 0
1, 91894, Note_on_c, 0, 65, 0
1, 91916, Note_on_c, 0, 69, 0
1, 91958, Note_on_c, 0, 74, 0
1, 92018, Note_on_c, 0, 65, 52
1, 92032, Note_on_c, 0, 65, 0
1, 92154, Control_c, 0, 64, 0
1, 92158, Note_on_c, 0, 62, 39
1, 92160, Tempo, 1128668
1, 92162, Note_on_c, 0, 55, 36
1, 92164, Note_on_c, 0, 65, 49
1, 92164, Note_on_c, 0, 47, 39
1, 92246, Note_on_c, 0, 65, 0
1, 92246, Note_on_c, 0, 62, 0
1, 92250, Note_on_c, 0, 55, 0
1, 92252, Note_on_c, 0, 47, 0
1, 92304, Note_on_c, 0, 62, 43
1, 92304, Note_on_c, 0, 65, 39
1, 92310, Note_on_c, 0, 55, 29
1, 92312, Note_on_c, 0, 47, 28
1, 92330, Note_on_c, 0, 62, 0
1, 92332, Note_on_c, 0, 65, 0
1, 92332, Note_on_c, 0, 55, 0
1, 92334, Note_on_c, 0, 47, 0
1, 92544, Tempo, 1120239
1, 92548, Note_on_c, 0, 62, 37
1, 92548, Note_on_c, 0, 65, 40
1, 92550, Note_on_c, 0, 55, 26
1, 92552, Note_on_c, 0, 47, 33
1, 92564, Control_c, 0, 64, 127
1, 92626, Note_on_c, 0, 47, 0
1, 92636, Note_on_c, 0, 55, 0
1, 92640, Note_on_c, 0, 62, 0
1, 92646, Note_on_c, 0, 65, 0
1, 92696, Note_on_c, 0, 62, 60
1, 92698, Note_on_c, 0, 55, 57
1, 92698, Note_on_c, 0, 65, 57
1, 92700, Note_on_c, 0, 47, 50
1, 92710, Note_on_c, 0, 65, 0
1, 92714, Note_on_c, 0, 62, 0
1, 92716, Control_c, 0, 64, 0
1, 92718, Note_on_c, 0, 47, 0
1, 92722, Note_on_c, 0, 55, 0
1, 92928, Tempo, 1143729
1, 92950, Note_on_c, 0, 56, 43
1, 92952, Note_on_c, 0, 46, 41
1, 92956, Note_on_c, 0, 65, 39
1, 92962, Note_on_c, 0, 64, 46
1, 92962, Note_on_c, 0, 60, 26
1, 93010, Note_on_c, 0, 64, 0
1, 93046, Note_on_c, 0, 65, 0
1, 93052, Note_on_c, 0, 60, 0
1, 93052, Note_on_c, 0, 46, 0
1, 93060, Note_on_c, 0, 56, 0
1, 93094, Note_on_c, 0, 56, 47
1, 93096, Note_on_c, 0, 65, 59
1, 93096, Note_on_c, 0, 46, 42
1, 93102, Note_on_c, 0, 60, 28
1, 93116, Note_on_c, 0, 60, 0
1, 93116, Note_on_c, 0, 46, 0
1, 93118, Note_on_c, 0, 56, 0
1, 93128, Note_on_c, 0, 65, 0
1, 93312, Tempo, 1092100
1, 93336, Note_on_c, 0, 46, 41
1, 93336, Note_on_c, 0, 56, 42
1, 93340, Note_on_c, 0, 65, 39
1, 93344, Note_on_c, 0, 58, 38
1, 93348, Note_on_c, 0, 64, 46
1, 93356, Note_on_c, 0, 60, 40
1, 93422, Note_on_c, 0, 60, 0
1, 93422, Note_on_c, 0, 46, 0
1, 93424, Note_on_c, 0, 58, 0
1, 93430, Note_on_c, 0, 65, 0
1, 93432, Note_on_c, 0, 56, 0
1, 93432, Note_on_c, 0, 64, 0
1, 93470, Note_on_c, 0, 58, 63
1, 93470, Note_on_c, 0, 56, 49
1, 93472, Note_on_c, 0, 46, 55
1, 93472, Note_on_c, 0, 65, 45
1, 93472, Note_on_c, 0, 60, 52
1, 93478, Note_on_c, 0, 58, 0
1, 93484, Note_on_c, 0, 60, 0
1, 93490, Note_on_c, 0, 56, 0
1, 93502, Note_on_c, 0, 65, 0
1, 93504, Note_on_c, 0, 46, 0
1, 93628, Control_c, 0, 64, 127
1, 93656, Note_on_c, 0, 46, 38
1, 93666, Control_c, 0, 64, 0
1, 93678, Note_on_c, 0, 46, 0
1, 93696, Tempo, 1097896
1, 93706, Note_on_c, 0, 67, 64
1, 93708, Note_on_c, 0, 60, 51
1, 93708, Note_on_c, 0, 64, 56
1, 93716, Note_on_c, 0, 55, 51
1, 93722, Note_on_c, 0, 45, 43
1, 93742, Control_c, 0, 64, 127
1, 93870, Note_on_c, 0, 64, 0
1, 93872, Note_on_c, 0, 60, 0
1, 93898, Note_on_c, 0, 55, 0
1, 93912, Note_on_c, 0, 67, 0
1, 93938, Note_on_c, 0, 69, 72
1, 93938, Note_on_c, 0, 60, 77
1, 93940, Note_on_c, 0, 65, 63
1, 93942, Note_on_c, 0, 62, 77
1, 93988, Note_on_c, 0, 60, 0
1, 93996, Note_on_c, 0, 62, 0
1, 94000, Note_on_c, 0, 65, 0
1, 94012, Note_on_c, 0, 69, 0
1, 94076, Note_on_c, 0, 72, 80
1, 94078, Control_c, 0, 64, 0
1, 94080, Tempo, 1107215
1, 94080, Note_on_c, 0, 45, 0
1, 94080, Note_on_c, 0, 67, 77
1, 94080, Note_on_c, 0, 64, 78
1, 94082, Note_on_c, 0, 69, 71
1, 94082, Note_on_c, 0, 57, 75
1, 94120, Control_c, 0, 64, 127
1, 94144, Note_on_c, 0, 64, 0
1, 94148, Note_on_c, 0, 57, 0
1, 94160, Note_on_c, 0, 69, 0
1, 94164, Note_on_c, 0, 67, 0
1, 94170, Note_on_c, 0, 72, 0
1, 94302, Note_on_c, 0, 74, 80
1, 94304, Note_on_c, 0, 69, 75
1, 94304, Note_on_c, 0, 60, 62
1, 94304, Note_on_c, 0, 67, 68
1, 94334, Note_on_c, 0, 60, 0
1, 94336, Note_on_c, 0, 67, 0
1, 94348, Note_on_c, 0, 74, 0
1, 94352, Note_on_c, 0, 69, 0
1, 94440, Control_c, 0, 64, 24
1, 94442, Control_c, 0, 64, 0
1, 94450, Note_on_c, 0, 66, 78
1, 94456, Note_on_c, 0, 72, 58
1, 94460, Note_on_c, 0, 60, 57
1, 94464, Tempo, 1151631
1, 94468, Note_on_c, 0, 50, 48
1, 94538, Control_c, 0, 64, 127
1, 94582, Note_on_c, 0, 66, 0
1, 94602, Note_on_c, 0, 66, 48
1, 94604, Note_on_c, 0, 76, 82
1, 94702, Note_on_c, 0, 60, 0
1, 94766, Note_on_c, 0, 72, 0
1, 94768, Note_on_c, 0, 66, 0
1, 94776, Note_on_c, 0, 76, 0
1, 94848, Tempo, 1207243
1, 94858, Note_on_c, 0, 60, 55
1, 94892, Note_on_c, 0, 60, 0
1, 94922, Note_on_c, 0, 50, 0
1, 95092, Note_on_c, 0, 66, 63
1, 95100, Note_on_c, 0, 74, 56
1, 95102, Note_on_c, 0, 50, 48
1, 95126, Note_on_c, 0, 74, 0
1, 95140, Note_on_c, 0, 66, 0
1, 95232, Tempo, 1154734
1, 95236, Note_on_c, 0, 50, 0
1, 95250, Note_on_c, 0, 77, 65
1, 95250, Note_on_c, 0, 65, 63
1, 95250, Note_on_c, 0, 70, 61
1, 95250, Note_on_c, 0, 74, 68
1, 95250, Note_on_c, 0, 43, 54
1, 95258, Control_c, 0, 64, 0
1, 95262, Note_on_c, 0, 53, 29
1, 95300, Control_c, 0, 64, 127
1, 95442, Note_on_c, 0, 43, 0
1, 95456, Note_on_c, 0, 74, 0
1, 95458, Note_on_c, 0, 77, 0
1, 95470, Note_on_c, 0, 70, 0
1, 95476, Note_on_c, 0, 65, 0
1, 95520, Note_on_c, 0, 53, 0
1, 95616, Tempo, 1117110
1, 95628, Note_on_c, 0, 53, 49
1, 95634, Note_on_c, 0, 43, 45
1, 95714, Note_on_c, 0, 53, 0
1, 95752, Note_on_c, 0, 60, 42
1, 95758, Note_on_c, 0, 43, 0
1, 95762, Note_on_c, 0, 61, 63
1, 95774, Note_on_c, 0, 60, 0
1, 95790, Note_on_c, 0, 61, 0
1, 95796, Note_on_c, 0, 62, 52
1, 95828, Note_on_c, 0, 62, 0
1, 95874, Note_on_c, 0, 65, 122
1, 95950, Note_on_c, 0, 65, 0
1, 96000, Tempo, 1071811
1, 96000, Control_c, 0, 64, 0
1, 96004, Note_on_c, 0, 65, 75
1, 96006, Note_on_c, 0, 36, 54
1, 96008, Note_on_c, 0, 24, 49
1, 96010, Note_on_c, 0, 62, 66
1, 96012, Note_on_c, 0, 58, 61
1, 96046, Control_c, 0, 64, 127
1, 96074, Note_on_c, 0, 24, 0
1, 96102, Note_on_c, 0, 36, 0
1, 96144, Note_on_c, 0, 58, 0
1, 96152, Note_on_c, 0, 62, 0
1, 96170, Note_on_c, 0, 65, 0
1, 96246, Note_on_c, 0, 64, 81
1, 96286, Note_on_c, 0, 64, 0
1, 96384, Tempo, 1165049
1, 96398, Note_on_c, 0, 46, 70
1, 96398, Note_on_c, 0, 72, 96
1, 96400, Note_on_c, 0, 56, 63
1, 96400, Note_on_c, 0, 64, 96
1, 96402, Control_c, 0, 64, 0
1, 96412, Note_on_c, 0, 70, 45
1, 96426, Note_on_c, 0, 70, 0
1, 96474, Control_c, 0, 64, 127
1, 96586, Note_on_c, 0, 72, 0
1, 96606, Note_on_c, 0, 64, 0
1, 96638, Note_on_c, 0, 70, 76
1, 96672, Note_on_c, 0, 56, 0
1, 96686, Note_on_c, 0, 70, 0
1, 96708, Note_on_c, 0, 46, 0
1, 96768, Tempo, 1220753
1, 96770, Control_c, 0, 64, 0
1, 96782, Note_on_c, 0, 69, 61
1, 96782, Note_on_c, 0, 61, 57
1, 96782, Note_on_c, 0, 65, 61
1, 96790, Note_on_c, 0, 55, 56
1, 96796, Note_on_c, 0, 45, 40
1, 96814, Control_c, 0, 64, 40
1, 96816, Control_c, 0, 64, 127
1, 96908, Note_on_c, 0, 61, 0
1, 96910, Note_on_c, 0, 45, 0
1, 96912, Note_on_c, 0, 65, 0
1, 96922, Note_on_c, 0, 69, 0
1, 96926, Note_on_c, 0, 55, 0
1, 97152, Tempo, 1172333
1, 97162, Note_on_c, 0, 65, 45
1, 97166, Note_on_c, 0, 60, 46
1, 97170, Note_on_c, 0, 61, 43
1, 97172, Note_on_c, 0, 55, 44
1, 97296, Note_on_c, 0, 81, 120
1, 97358, Note_on_c, 0, 81, 0
1, 97376, Note_on_c, 0, 55, 0
1, 97384, Note_on_c, 0, 65, 0
1, 97386, Note_on_c, 0, 61, 0
1, 97386, Note_on_c, 0, 60, 0
1, 97410, Note_on_c, 0, 82, 98
1, 97500, Note_on_c, 0, 82, 0
1, 97528, Control_c, 0, 64, 0
1, 97536, Tempo, 1167770
1, 97536, Note_on_c, 0, 84, 76
1, 97538, Note_on_c, 0, 77, 75
1, 97540, Note_on_c, 0, 73, 72
1, 97542, Note_on_c, 0, 81, 57
1, 97542, Note_on_c, 0, 65, 60
1, 97546, Note_on_c, 0, 61, 52
1, 97614, Control_c, 0, 64, 127
1, 97626, Note_on_c, 0, 84, 0
1, 97636, Note_on_c, 0, 81, 0
1, 97636, Note_on_c, 0, 77, 0
1, 97644, Note_on_c, 0, 65, 0
1, 97650, Note_on_c, 0, 55, 61
1, 97654, Note_on_c, 0, 73, 0
1, 97666, Note_on_c, 0, 61, 0
1, 97680, Note_on_c, 0, 55, 0
1, 97772, Control_c, 0, 64, 0
1, 97776, Note_on_c, 0, 51, 57
1, 97824, Control_c, 0, 64, 127
1, 97866, Note_on_c, 0, 51, 0
1, 97890, Control_c, 0, 64, 0
1, 97890, Note_on_c, 0, 46, 49
1, 97904, Note_on_c, 0, 61, 57
1, 97906, Note_on_c, 0, 65, 57
1, 97908, Note_on_c, 0, 72, 39
1, 97916, Note_on_c, 0, 61, 0
1, 97916, Note_on_c, 0, 69, 43
1, 97918, Note_on_c, 0, 65, 0
1, 97920, Tempo, 1230265
1, 97924, Note_on_c, 0, 72, 0
1, 97928, Note_on_c, 0, 69, 0
1, 98006, Note_on_c, 0, 46, 0
1, 98022, Note_on_c, 0, 39, 44
1, 98042, Note_on_c, 0, 39, 0
1, 98098, Control_c, 0, 64, 127
1, 98104, Control_c, 0, 64, 0
1, 98156, Control_c, 0, 64, 127
1, 98162, Note_on_c, 0, 55, 59
1, 98164, Note_on_c, 0, 27, 48
1, 98224, Note_on_c, 0, 27, 0
1, 98260, Control_c, 0, 64, 0
1, 98276, Note_on_c, 0, 55, 0
1, 98302, Note_on_c, 0, 54, 63
1, 98302, Note_on_c, 0, 26, 46
1, 98302, Note_on_c, 0, 38, 46
1, 98304, Tempo, 1194743
1, 98326, Control_c, 0, 64, 127
1, 98430, Note_on_c, 0, 54, 0
1, 98434, Note_on_c, 0, 62, 76
1, 98532, Note_on_c, 0, 26, 0
1, 98556, Note_on_c, 0, 54, 51
1, 98558, Note_on_c, 0, 26, 39
1, 98564, Note_on_c, 0, 62, 0
1, 98608, Note_on_c, 0, 26, 0
1, 98664, Note_on_c, 0, 38, 0
1, 98664, Note_on_c, 0, 54, 0
1, 98684, Note_on_c, 0, 55, 57
1, 98684, Control_c, 0, 64, 0
1, 98686, Note_on_c, 0, 40, 53
1, 98688, Tempo, 1199041
1, 98690, Note_on_c, 0, 28, 49
1, 98740, Control_c, 0, 64, 127
1, 98810, Note_on_c, 0, 62, 57
1, 98834, Note_on_c, 0, 55, 0
1, 98844, Note_on_c, 0, 28, 0
1, 98886, Note_on_c, 0, 62, 0
1, 98926, Note_on_c, 0, 28, 54
1, 98928, Note_on_c, 0, 55, 52
1, 98978, Note_on_c, 0, 28, 0
1, 98996, Note_on_c, 0, 55, 0
1, 99000, Note_on_c, 0, 40, 0
1, 99038, Control_c, 0, 64, 0
1, 99058, Note_on_c, 0, 56, 66
1, 99058, Note_on_c, 0, 41, 56
1, 99060, Note_on_c, 0, 29, 52
1, 99072, Tempo, 1191185
1, 99092, Control_c, 0, 64, 127
1, 99186, Note_on_c, 0, 56, 0
1, 99206, Note_on_c, 0, 53, 33
1, 99220, Note_on_c, 0, 53, 0
1, 99234, Note_on_c, 0, 29, 0
1, 99312, Note_on_c, 0, 29, 47
1, 99320, Note_on_c, 0, 62, 57
1, 99344, Note_on_c, 0, 29, 0
1, 99352, Note_on_c, 0, 41, 0
1, 99378, Note_on_c, 0, 62, 0
1, 99436, Control_c, 0, 64, 0
1, 99446, Note_on_c, 0, 57, 72
1, 99456, Tempo, 1104159
1, 99564, Note_on_c, 0, 42, 77
1, 99670, Note_on_c, 0, 57, 0
1, 99686, Control_c, 0, 64, 127
1, 99690, Note_on_c, 0, 30, 66
1, 99756, Note_on_c, 0, 30, 0
1, 99762, Note_on_c, 0, 42, 0
1, 99806, Control_c, 0, 64, 0
1, 99828, Note_on_c, 0, 43, 79
1, 99830, Note_on_c, 0, 31, 77
1, 99840, Tempo, 1143729
1, 99868, Control_c, 0, 64, 127
1, 100044, Note_on_c, 0, 31, 0
1, 100046, Note_on_c, 0, 43, 0
1, 100082, Note_on_c, 0, 31, 76
1, 100140, Note_on_c, 0, 31, 0
1, 100204, Control_c, 0, 64, 0
1, 100214, Note_on_c, 0, 82, 84
1, 100216, Note_on_c, 0, 70, 92
1, 100216, Note_on_c, 0, 45, 84
1, 100216, Note_on_c, 0, 33, 89
1, 100216, Note_on_c, 0, 74, 81
1, 100220, Note_on_c, 0, 77, 67
1, 100224, Tempo, 1158301
1, 100292, Control_c, 0, 64, 127
1, 100358, Note_on_c, 0, 33, 0
1, 100368, Note_on_c, 0, 74, 0
1, 100372, Note_on_c, 0, 45, 0
1, 100376, Note_on_c, 0, 82, 0
1, 100376, Note_on_c, 0, 77, 0
1, 100378, Note_on_c, 0, 70, 0
1, 100440, Control_c, 0, 64, 0
1, 100452, Note_on_c, 0, 34, 83
1, 100452, Note_on_c, 0, 46, 81
1, 100456, Note_on_c, 0, 74, 85
1, 100458, Note_on_c, 0, 81, 82
1, 100460, Note_on_c, 0, 77, 75
1, 100460, Note_on_c, 0, 69, 70
1, 100508, Control_c, 0, 64, 127
1, 100584, Note_on_c, 0, 81, 0
1, 100586, Note_on_c, 0, 77, 0
1, 100590, Note_on_c, 0, 74, 0
1, 100604, Note_on_c, 0, 69, 0
1, 100608, Tempo, 1158749
1, 100608, Note_on_c, 0, 34, 0
1, 100620, Note_on_c, 0, 46, 0
1, 100686, Control_c, 0, 64, 0
1, 100700, Note_on_c, 0, 47, 72
1, 100700, Note_on_c, 0, 70, 64
1, 100700, Note_on_c, 0, 77, 66
1, 100700, Note_on_c, 0, 35, 72
1, 100700, Note_on_c, 0, 74, 68
1, 100700, Note_on_c, 0, 65, 56
1, 100754, Control_c, 0, 64, 127
1, 100812, Note_on_c, 0, 65, 0
1, 100822, Note_on_c, 0, 70, 0
1, 100828, Note_on_c, 0, 74, 0
1, 100830, Note_on_c, 0, 77, 0
1, 100840, Note_on_c, 0, 47, 0
1, 100842, Note_on_c, 0, 35, 0
1, 100898, Control_c, 0, 64, 0
1, 100920, Note_on_c, 0, 35, 57
1, 100920, Note_on_c, 0, 70, 63
1, 100924, Note_on_c, 0, 47, 50
1, 100926, Note_on_c, 0, 77, 54
1, 100928, Note_on_c, 0, 65, 51
1, 100938, Note_on_c, 0, 74, 36
1, 100940, Control_c, 0, 64, 127
1, 100984, Note_on_c, 0, 74, 0
1, 100992, Tempo, 1122965
1, 101030, Note_on_c, 0, 65, 0
1, 101044, Note_on_c, 0, 47, 0
1, 101060, Note_on_c, 0, 35, 0
1, 101060, Note_on_c, 0, 70, 0
1, 101104, Note_on_c, 0, 77, 0
1, 101176, Note_on_c, 0, 74, 53
1, 101176, Note_on_c, 0, 35, 39
1, 101182, Note_on_c, 0, 47, 37
1, 101216, Note_on_c, 0, 74, 0
1, 101218, Note_on_c, 0, 35, 0
1, 101236, Note_on_c, 0, 47, 0
1, 101342, Note_on_c, 0, 70, 49
1, 101346, Note_on_c, 0, 36, 45
1, 101346, Note_on_c, 0, 48, 44
1, 101346, Note_on_c, 0, 74, 50
1, 101348, Control_c, 0, 64, 0
1, 101352, Note_on_c, 0, 77, 41
1, 101376, Tempo, 1191185
1, 101386, Note_on_c, 0, 74, 0
1, 101388, Note_on_c, 0, 48, 0
1, 101388, Note_on_c, 0, 36, 0
1, 101388, Note_on_c, 0, 70, 0
1, 101420, Note_on_c, 0, 77, 0
1, 101586, Note_on_c, 0, 59, 48
1, 101586, Note_on_c, 0, 84, 61
1, 101592, Note_on_c, 0, 60, 45
1, 101594, Note_on_c, 0, 82, 30
1, 101602, Note_on_c, 0, 59, 0
1, 101616, Note_on_c, 0, 82, 0
1, 101624, Note_on_c, 0, 60, 0
1, 101630, Note_on_c, 0, 84, 0
1, 101726, Note_on_c, 0, 87, 68
1, 101728, Note_on_c, 0, 63, 57
1, 101748, Note_on_c, 0, 63, 0
1, 101760, Tempo, 1147886
1, 101760, Note_on_c, 0, 87, 0
1, 101842, Note_on_c, 0, 84, 70
1, 101854, Note_on_c, 0, 60, 50
1, 102022, Note_on_c, 0, 48, 48
1, 102030, Note_on_c, 0, 84, 0
1, 102040, Note_on_c, 0, 60, 0
1, 102062, Note_on_c, 0, 48, 0
1, 102144, Tempo, 1144820
1, 102264, Note_on_c, 0, 82, 78
1, 102266, Note_on_c, 0, 58, 69
1, 102268, Note_on_c, 0, 83, 77
1, 102272, Note_on_c, 0, 59, 58
1, 102292, Note_on_c, 0, 82, 0
1, 102296, Note_on_c, 0, 58, 0
1, 102324, Note_on_c, 0, 83, 0
1, 102366, Note_on_c, 0, 59, 0
1, 102392, Note_on_c, 0, 82, 77
1, 102394, Note_on_c, 0, 58, 54
1, 102438, Note_on_c, 0, 82, 0
1, 102488, Note_on_c, 0, 58, 0
1, 102516, Note_on_c, 0, 80, 62
1, 102528, Tempo, 1031282
1, 102528, Note_on_c, 0, 56, 43
1, 102604, Note_on_c, 0, 80, 0
1, 102614, Note_on_c, 0, 56, 0
1, 102634, Note_on_c, 0, 81, 57
1, 102636, Note_on_c, 0, 57, 46
1, 102666, Note_on_c, 0, 57, 0
1, 102674, Control_c, 0, 64, 127
1, 102698, Control_c, 0, 64, 0
1, 102710, Note_on_c, 0, 81, 0
1, 102756, Control_c, 0, 64, 127
1, 102854, Control_c, 0, 64, 0
1, 102884, Note_on_c, 0, 29, 36
1, 102890, Note_on_c, 0, 77, 52
1, 102912, Tempo, 1103550
1, 102916, Note_on_c, 0, 41, 3
1, 102916, Control_c, 0, 64, 127
1, 102962, Note_on_c, 0, 77, 0
1, 102980, Note_on_c, 0, 29, 0
1, 102986, Note_on_c, 0, 41, 0
1, 103138, Note_on_c, 0, 77, 47
1, 103140, Note_on_c, 0, 41, 31
1, 103154, Note_on_c, 0, 77, 0
1, 103164, Note_on_c, 0, 41, 0
1, 103240, Control_c, 0, 64, 0
1, 103268, Note_on_c, 0, 80, 48
1, 103278, Note_on_c, 0, 75, 48
1, 103280, Note_on_c, 0, 69, 31
1, 103282, Note_on_c, 0, 45, 27
1, 103296, Tempo, 1092100
1, 103324, Note_on_c, 0, 69, 0
1, 103330, Note_on_c, 0, 80, 0
1, 103334, Note_on_c, 0, 75, 0
1, 103394, Control_c, 0, 64, 127
1, 103398, Note_on_c, 0, 33, 41
1, 103508, Note_on_c, 0, 33, 0
1, 103520, Note_on_c, 0, 45, 0
1, 103642, Control_c, 0, 64, 0
1, 103654, Note_on_c, 0, 34, 39
1, 103654, Note_on_c, 0, 46, 38
1, 103662, Note_on_c, 0, 58, 46
1, 103664, Note_on_c, 0, 62, 46
1, 103668, Note_on_c, 0, 53, 30
1, 103680, Tempo, 1119194
1, 103690, Control_c, 0, 64, 127
1, 103768, Note_on_c, 0, 53, 0
1, 103780, Note_on_c, 0, 62, 0
1, 103782, Note_on_c, 0, 34, 0
1, 103790, Note_on_c, 0, 58, 0
1, 103806, Note_on_c, 0, 46, 0
1, 103896, Note_on_c, 0, 58, 49
1, 103900, Note_on_c, 0, 46, 39
1, 103900, Note_on_c, 0, 34, 43
1, 103910, Note_on_c, 0, 58, 0
1, 103960, Note_on_c, 0, 46, 0
1, 103964, Note_on_c, 0, 34, 0
1, 104032, Control_c, 0, 64, 0
1, 104046, Note_on_c, 0, 47, 31
1, 104048, Note_on_c, 0, 68, 33
1, 104050, Note_on_c, 0, 35, 36
1, 104054, Note_on_c, 0, 62, 45
1, 104056, Note_on_c, 0, 65, 48
1, 104064, Tempo, 1167770
1, 104074, Note_on_c, 0, 65, 0
1, 104078, Note_on_c, 0, 68, 0
1, 104078, Note_on_c, 0, 62, 0
1, 104082, Note_on_c, 0, 47, 0
1, 104090, Note_on_c, 0, 35, 0
1, 104126, Control_c, 0, 64, 127
1, 104288, Note_on_c, 0, 68, 41
1, 104294, Note_on_c, 0, 35, 39
1, 104304, Note_on_c, 0, 68, 0
1, 104326, Note_on_c, 0, 35, 0
1, 104428, Control_c, 0, 64, 0
1, 104448, Tempo, 1142204
1, 104450, Note_on_c, 0, 48, 39
1, 104454, Note_on_c, 0, 36, 36
1, 104466, Note_on_c, 0, 60, 36
1, 104466, Note_on_c, 0, 65, 31
1, 104470, Note_on_c, 0, 62, 34
1, 104486, Note_on_c, 0, 57, 17
1, 104492, Control_c, 0, 64, 127
1, 104540, Note_on_c, 0, 48, 0
1, 104556, Note_on_c, 0, 36, 0
1, 104608, Note_on_c, 0, 57, 0
1, 104620, Note_on_c, 0, 62, 0
1, 104624, Note_on_c, 0, 65, 0
1, 104628, Note_on_c, 0, 60, 0
1, 104678, Note_on_c, 0, 36, 54
1, 104706, Note_on_c, 0, 36, 0
1, 104832, Tempo, 1139168
1, 104860, Control_c, 0, 64, 0
1, 104862, Note_on_c, 0, 30, 56
1, 104864, Note_on_c, 0, 63, 44
1, 104866, Note_on_c, 0, 56, 49
1, 104866, Note_on_c, 0, 60, 57
1, 104866, Note_on_c, 0, 52, 33
1, 104868, Note_on_c, 0, 61, 36
1, 104902, Control_c, 0, 64, 127
1, 104948, Note_on_c, 0, 63, 0
1, 104952, Note_on_c, 0, 61, 0
1, 104978, Note_on_c, 0, 30, 0
1, 104980, Note_on_c, 0, 52, 0
1, 104992, Note_on_c, 0, 63, 46
1, 105036, Note_on_c, 0, 60, 0
1, 105046, Note_on_c, 0, 63, 0
1, 105066, Note_on_c, 0, 56, 0
1, 105148, Note_on_c, 0, 29, 35
1, 105172, Note_on_c, 0, 51, 43
1, 105180, Note_on_c, 0, 41, 37
1, 105180, Control_c, 0, 64, 0
1, 105184, Note_on_c, 0, 55, 51
1, 105192, Note_on_c, 0, 57, 43
1, 105200, Note_on_c, 0, 62, 60
1, 105216, Tempo, 1101119
1, 105218, Control_c, 0, 64, 127
1, 105248, Note_on_c, 0, 51, 0
1, 105252, Note_on_c, 0, 55, 0
1, 105256, Note_on_c, 0, 57, 0
1, 105260, Note_on_c, 0, 62, 0
1, 105268, Note_on_c, 0, 29, 0
1, 105276, Note_on_c, 0, 41, 0
1, 105518, Note_on_c, 0, 75, 45
1, 105526, Note_on_c, 0, 75, 0
1, 105536, Note_on_c, 0, 74, 52
1, 105552, Note_on_c, 0, 74, 0
1, 105552, Note_on_c, 0, 79, 43
1, 105574, Note_on_c, 0, 86, 61
1, 105576, Note_on_c, 0, 79, 0
1, 105592, Note_on_c, 0, 86, 0
1, 105592, Note_on_c, 0, 87, 65
1, 105600, Tempo, 1121915
1, 105608, Note_on_c, 0, 87, 0
1, 105610, Note_on_c, 0, 86, 40
1, 105628, Note_on_c, 0, 91, 57
1, 105642, Note_on_c, 0, 98, 54
1, 105984, Tempo, 1374885
1, 106134, Note_on_c, 0, 86, 0
1, 106140, Note_on_c, 0, 91, 0
1, 106144, Note_on_c, 0, 98, 0
1, 106368, Tempo, 2713704
1, 106752, Tempo, 2014099
1, 106752, End_track
0, 0, End_of_file
