0, 0, Header, 1, 8, 120
1, 0, Start_track
1, 0, Title_t, "Girl Talk"
1, 0, Text_t, "Neal Hefti\012"
1, 0, Text_t, "In the Peterson style\012"
1, 0, Text_t, "dougmck@tpg.com.au\012"
1, 0, System_exclusive, 10, 65, 16, 66, 18, 64, 0, 127, 0, 65, 247
1, 0, Time_signature, 4, 2, 24, 8
1, 0, Key_signature, -2, "major"
1, 0, Tempo, 750000
1, 1038, Marker_t, "Big 2 handed chords - RH and LH phrased together"
1, 1205, Marker_t, "Often, the RH plays Octaves with perfect 5th between - LH plays rootless voicings"
1, 9464, Marker_t, "ascending white note glissando"
1, 10427, Marker_t, "Melodic phrase - LH &RH in unison - then chord"
1, 12480, Marker_t, "Begin 'bluesy' improvisation."
1, 12708, Marker_t, "Common bluesy phrae"
1, 13184, Marker_t, "Another 'cliche' blues prase"
1, 14908, Marker_t, "'Cry me a River' lick on G7alt - stars on minor 3rd"
1, 15435, Marker_t, "Red Garland style -RH octaves with perfect 5th in middle & LH plays LH rootless voicings"
1, 21200, Marker_t, "On A7 alt a fragment of half whole dim scale"
1, 24070, Marker_t, "'Locked Hands' style block chords"
1, 29760, Marker_t, "More 'Locked Hands' style"
1, 30550, Marker_t, "Lhand plays chromatic grace notes before chord"
1, 32176, Marker_t, "LH plays descending chromatic grace notes before chord"
1, 35314, Marker_t, "Cliche blues lick"
1, 39404, Marker_t, "2 handed lick on G7b9- RH plays Black notes, RH plays white"
1, 40361, Marker_t, "Note crescendo on this ascending 2 handed chordal phrase"
1, 41280, Tempo, 750000
1, 41287, Marker_t, "Back to Head"
1, 46571, Marker_t, "Tremolo on RH chord"
1, 55020, Marker_t, "Cliche blues phrase to end"
1, 55020, End_track
2, 0, Start_track
2, 0, Title_t, "Track 1"
2, 120, Control_c, 0, 7, 101
2, 120, Control_c, 0, 10, 64
2, 120, End_track
3, 0, Start_track
3, 0, Title_t, "Track 2"
3, 120, Control_c, 0, 7, 101
3, 120, Control_c, 0, 10, 64
3, 120, End_track
4, 0, Start_track
4, 0, Title_t, "Track 3"
4, 0, Control_c, 0, 64, 127
4, 0, Control_c, 0, 64, 0
4, 0, Control_c, 0, 64, 127
4, 0, Control_c, 0, 64, 0
4, 41, Control_c, 0, 64, 127
4, 120, Program_c, 0, 0
4, 122, Program_c, 0, 0
4, 122, Program_c, 0, 0
4, 1047, Note_on_c, 0, 63, 77
4, 1047, Note_on_c, 0, 62, 84
4, 1048, Note_on_c, 0, 67, 85
4, 1048, Note_on_c, 0, 93, 90
4, 1048, Note_on_c, 0, 81, 84
4, 1048, Note_on_c, 0, 88, 84
4, 1049, Note_on_c, 0, 57, 76
4, 1051, Control_c, 0, 64, 0
4, 1080, Control_c, 0, 64, 127
4, 1136, Note_on_c, 0, 62, 0
4, 1138, Note_on_c, 0, 67, 0
4, 1139, Note_on_c, 0, 57, 0
4, 1147, Note_on_c, 0, 63, 0
4, 1162, Note_on_c, 0, 93, 0
4, 1167, Note_on_c, 0, 88, 0
4, 1167, Note_on_c, 0, 81, 0
4, 1201, Control_c, 0, 64, 0
4, 1209, Note_on_c, 0, 66, 55
4, 1210, Note_on_c, 0, 81, 51
4, 1211, Note_on_c, 0, 93, 59
4, 1212, Note_on_c, 0, 88, 51
4, 1213, Note_on_c, 0, 63, 48
4, 1213, Note_on_c, 0, 57, 51
4, 1214, Note_on_c, 0, 61, 46
4, 1219, Note_on_c, 0, 88, 0
4, 1221, Note_on_c, 0, 93, 0
4, 1224, Note_on_c, 0, 81, 0
4, 1225, Note_on_c, 0, 66, 0
4, 1225, Note_on_c, 0, 57, 0
4, 1228, Note_on_c, 0, 61, 0
4, 1229, Note_on_c, 0, 63, 0
4, 1259, Control_c, 0, 64, 127
4, 1289, Note_on_c, 0, 66, 53
4, 1291, Control_c, 0, 64, 0
4, 1291, Note_on_c, 0, 93, 55
4, 1291, Note_on_c, 0, 57, 54
4, 1292, Note_on_c, 0, 81, 38
4, 1292, Note_on_c, 0, 63, 48
4, 1292, Note_on_c, 0, 88, 50
4, 1292, Note_on_c, 0, 61, 43
4, 1323, Control_c, 0, 64, 127
4, 1366, Note_on_c, 0, 57, 0
4, 1369, Note_on_c, 0, 61, 0
4, 1372, Note_on_c, 0, 63, 0
4, 1373, Note_on_c, 0, 66, 0
4, 1378, Note_on_c, 0, 81, 0
4, 1379, Note_on_c, 0, 88, 0
4, 1379, Note_on_c, 0, 93, 0
4, 1396, Note_on_c, 0, 66, 38
4, 1400, Note_on_c, 0, 63, 34
4, 1401, Note_on_c, 0, 61, 29
4, 1409, Note_on_c, 0, 66, 0
4, 1416, Note_on_c, 0, 63, 0
4, 1417, Note_on_c, 0, 61, 0
4, 1442, Note_on_c, 0, 62, 70
4, 1442, Note_on_c, 0, 65, 79
4, 1443, Note_on_c, 0, 93, 78
4, 1444, Note_on_c, 0, 86, 71
4, 1444, Note_on_c, 0, 81, 65
4, 1444, Note_on_c, 0, 60, 69
4, 1445, Note_on_c, 0, 89, 57
4, 1445, Control_c, 0, 64, 0
4, 1446, Note_on_c, 0, 55, 55
4, 1450, Note_on_c, 0, 89, 0
4, 1452, Note_on_c, 0, 55, 0
4, 1453, Note_on_c, 0, 65, 0
4, 1453, Note_on_c, 0, 93, 0
4, 1454, Note_on_c, 0, 86, 0
4, 1454, Note_on_c, 0, 81, 0
4, 1454, Note_on_c, 0, 62, 0
4, 1455, Note_on_c, 0, 60, 0
4, 1468, Control_c, 0, 64, 127
4, 1476, Control_c, 0, 64, 0
4, 1492, Control_c, 0, 64, 127
4, 1551, Control_c, 0, 64, 0
4, 1556, Note_on_c, 0, 50, 74
4, 1556, Note_on_c, 0, 62, 74
4, 1558, Note_on_c, 0, 58, 69
4, 1558, Note_on_c, 0, 53, 61
4, 1590, Note_on_c, 0, 50, 0
4, 1595, Note_on_c, 0, 53, 0
4, 1598, Note_on_c, 0, 58, 0
4, 1599, Control_c, 0, 64, 127
4, 1601, Note_on_c, 0, 62, 0
4, 1604, Control_c, 0, 64, 0
4, 1639, Note_on_c, 0, 50, 84
4, 1639, Control_c, 0, 64, 127
4, 1640, Note_on_c, 0, 58, 72
4, 1640, Note_on_c, 0, 62, 72
4, 1640, Note_on_c, 0, 53, 72
4, 1655, Note_on_c, 0, 62, 0
4, 1662, Note_on_c, 0, 53, 0
4, 1663, Note_on_c, 0, 50, 0
4, 1663, Note_on_c, 0, 51, 36
4, 1666, Note_on_c, 0, 58, 0
4, 1679, Note_on_c, 0, 51, 0
4, 1682, Note_on_c, 0, 52, 50
4, 1683, Note_on_c, 0, 58, 53
4, 1684, Control_c, 0, 64, 0
4, 1685, Note_on_c, 0, 62, 62
4, 1685, Note_on_c, 0, 55, 65
4, 1687, Note_on_c, 0, 52, 0
4, 1687, Note_on_c, 0, 65, 48
4, 1688, Note_on_c, 0, 53, 55
4, 1714, Note_on_c, 0, 55, 0
4, 1715, Note_on_c, 0, 62, 0
4, 1716, Control_c, 0, 64, 127
4, 1718, Note_on_c, 0, 65, 0
4, 1720, Note_on_c, 0, 58, 0
4, 1740, Note_on_c, 0, 53, 0
4, 1763, Note_on_c, 0, 58, 67
4, 1764, Note_on_c, 0, 60, 71
4, 1764, Note_on_c, 0, 55, 71
4, 1764, Note_on_c, 0, 67, 51
4, 1766, Note_on_c, 0, 64, 50
4, 1771, Note_on_c, 0, 65, 38
4, 1776, Control_c, 0, 64, 0
4, 1781, Note_on_c, 0, 65, 0
4, 1784, Note_on_c, 0, 67, 0
4, 1786, Note_on_c, 0, 64, 0
4, 1787, Note_on_c, 0, 55, 0
4, 1787, Note_on_c, 0, 58, 0
4, 1788, Note_on_c, 0, 60, 0
4, 1922, Control_c, 0, 64, 127
4, 1988, Note_on_c, 0, 77, 74
4, 1988, Note_on_c, 0, 81, 74
4, 1988, Note_on_c, 0, 60, 78
4, 1988, Note_on_c, 0, 69, 82
4, 1989, Note_on_c, 0, 61, 57
4, 1989, Note_on_c, 0, 65, 78
4, 1991, Note_on_c, 0, 55, 65
4, 1993, Note_on_c, 0, 58, 35
4, 2000, Control_c, 0, 64, 0
4, 2029, Control_c, 0, 64, 127
4, 2087, Note_on_c, 0, 77, 0
4, 2089, Note_on_c, 0, 65, 0
4, 2093, Note_on_c, 0, 69, 0
4, 2094, Note_on_c, 0, 55, 0
4, 2096, Note_on_c, 0, 61, 0
4, 2096, Note_on_c, 0, 60, 0
4, 2097, Note_on_c, 0, 81, 0
4, 2099, Note_on_c, 0, 58, 0
4, 2107, Note_on_c, 0, 65, 58
4, 2108, Note_on_c, 0, 61, 35
4, 2109, Note_on_c, 0, 81, 65
4, 2109, Note_on_c, 0, 55, 41
4, 2110, Note_on_c, 0, 60, 55
4, 2113, Note_on_c, 0, 58, 28
4, 2114, Note_on_c, 0, 69, 44
4, 2121, Note_on_c, 0, 69, 0
4, 2124, Note_on_c, 0, 65, 0
4, 2124, Note_on_c, 0, 61, 0
4, 2126, Note_on_c, 0, 55, 0
4, 2127, Note_on_c, 0, 81, 0
4, 2129, Note_on_c, 0, 60, 0
4, 2134, Note_on_c, 0, 58, 0
4, 2152, Control_c, 0, 64, 0
4, 2162, Note_on_c, 0, 81, 47
4, 2163, Note_on_c, 0, 64, 38
4, 2163, Note_on_c, 0, 54, 36
4, 2164, Note_on_c, 0, 69, 33
4, 2165, Note_on_c, 0, 78, 23
4, 2166, Note_on_c, 0, 60, 33
4, 2202, Control_c, 0, 64, 127
4, 2212, Note_on_c, 0, 78, 0
4, 2212, Note_on_c, 0, 81, 0
4, 2213, Note_on_c, 0, 69, 0
4, 2214, Note_on_c, 0, 64, 0
4, 2217, Note_on_c, 0, 54, 0
4, 2219, Note_on_c, 0, 60, 0
4, 2232, Note_on_c, 0, 54, 52
4, 2233, Note_on_c, 0, 81, 51
4, 2234, Note_on_c, 0, 69, 57
4, 2235, Note_on_c, 0, 64, 53
4, 2235, Note_on_c, 0, 60, 49
4, 2236, Note_on_c, 0, 78, 33
4, 2249, Control_c, 0, 64, 0
4, 2252, Note_on_c, 0, 69, 0
4, 2255, Note_on_c, 0, 64, 0
4, 2255, Note_on_c, 0, 78, 0
4, 2257, Note_on_c, 0, 81, 0
4, 2257, Note_on_c, 0, 60, 0
4, 2260, Note_on_c, 0, 54, 0
4, 2315, Control_c, 0, 64, 127
4, 2353, Note_on_c, 0, 54, 45
4, 2358, Note_on_c, 0, 81, 40
4, 2361, Note_on_c, 0, 60, 24
4, 2363, Note_on_c, 0, 78, 34
4, 2367, Note_on_c, 0, 81, 0
4, 2369, Note_on_c, 0, 60, 0
4, 2382, Note_on_c, 0, 78, 0
4, 2385, Note_on_c, 0, 54, 0
4, 2395, Control_c, 0, 64, 0
4, 2403, Note_on_c, 0, 53, 28
4, 2403, Note_on_c, 0, 62, 31
4, 2404, Note_on_c, 0, 58, 31
4, 2406, Note_on_c, 0, 55, 45
4, 2424, Note_on_c, 0, 55, 0
4, 2426, Note_on_c, 0, 53, 0
4, 2426, Note_on_c, 0, 62, 0
4, 2427, Note_on_c, 0, 58, 0
4, 2427, Control_c, 0, 64, 127
4, 2477, Note_on_c, 0, 78, 60
4, 2477, Note_on_c, 0, 58, 69
4, 2478, Note_on_c, 0, 53, 74
4, 2478, Note_on_c, 0, 62, 75
4, 2480, Note_on_c, 0, 70, 80
4, 2480, Note_on_c, 0, 55, 68
4, 2482, Note_on_c, 0, 81, 67
4, 2484, Note_on_c, 0, 80, 44
4, 2488, Note_on_c, 0, 79, 30
4, 2498, Note_on_c, 0, 55, 0
4, 2501, Note_on_c, 0, 53, 0
4, 2502, Note_on_c, 0, 79, 0
4, 2505, Note_on_c, 0, 81, 0
4, 2507, Note_on_c, 0, 62, 0
4, 2509, Note_on_c, 0, 78, 0
4, 2512, Note_on_c, 0, 58, 0
4, 2512, Note_on_c, 0, 70, 0
4, 2515, Note_on_c, 0, 80, 0
4, 2525, Control_c, 0, 64, 0
4, 2528, Note_on_c, 0, 55, 58
4, 2529, Note_on_c, 0, 81, 50
4, 2529, Note_on_c, 0, 64, 50
4, 2531, Note_on_c, 0, 57, 55
4, 2533, Note_on_c, 0, 60, 58
4, 2534, Note_on_c, 0, 69, 43
4, 2555, Control_c, 0, 64, 127
4, 2571, Note_on_c, 0, 81, 0
4, 2571, Note_on_c, 0, 55, 0
4, 2572, Note_on_c, 0, 64, 0
4, 2573, Note_on_c, 0, 69, 0
4, 2574, Note_on_c, 0, 60, 0
4, 2575, Note_on_c, 0, 57, 0
4, 2601, Note_on_c, 0, 55, 69
4, 2603, Note_on_c, 0, 64, 53
4, 2603, Note_on_c, 0, 60, 55
4, 2603, Note_on_c, 0, 81, 62
4, 2605, Note_on_c, 0, 69, 70
4, 2609, Note_on_c, 0, 60, 0
4, 2609, Note_on_c, 0, 57, 24
4, 2610, Note_on_c, 0, 64, 0
4, 2611, Note_on_c, 0, 81, 0
4, 2615, Note_on_c, 0, 57, 0
4, 2617, Note_on_c, 0, 69, 0
4, 2617, Note_on_c, 0, 55, 0
4, 2642, Control_c, 0, 64, 0
4, 2648, Note_on_c, 0, 53, 52
4, 2650, Note_on_c, 0, 77, 54
4, 2650, Note_on_c, 0, 62, 52
4, 2651, Note_on_c, 0, 55, 53
4, 2652, Note_on_c, 0, 58, 50
4, 2653, Note_on_c, 0, 65, 36
4, 2653, Note_on_c, 0, 70, 34
4, 2654, Note_on_c, 0, 74, 39
4, 2666, Note_on_c, 0, 74, 0
4, 2666, Control_c, 0, 64, 127
4, 2667, Note_on_c, 0, 65, 0
4, 2669, Note_on_c, 0, 70, 0
4, 2674, Note_on_c, 0, 77, 0
4, 2674, Note_on_c, 0, 62, 0
4, 2676, Note_on_c, 0, 58, 0
4, 2677, Note_on_c, 0, 55, 0
4, 2681, Note_on_c, 0, 53, 0
4, 2721, Note_on_c, 0, 62, 53
4, 2722, Note_on_c, 0, 53, 43
4, 2724, Note_on_c, 0, 77, 27
4, 2724, Note_on_c, 0, 65, 56
4, 2729, Note_on_c, 0, 55, 30
4, 2731, Note_on_c, 0, 77, 0
4, 2735, Note_on_c, 0, 65, 0
4, 2740, Note_on_c, 0, 62, 0
4, 2742, Note_on_c, 0, 53, 0
4, 2744, Note_on_c, 0, 55, 0
4, 2767, Control_c, 0, 64, 0
4, 2767, Note_on_c, 0, 74, 60
4, 2768, Note_on_c, 0, 58, 55
4, 2770, Note_on_c, 0, 62, 37
4, 2770, Note_on_c, 0, 70, 36
4, 2771, Note_on_c, 0, 67, 45
4, 2779, Note_on_c, 0, 67, 0
4, 2779, Note_on_c, 0, 62, 0
4, 2783, Note_on_c, 0, 70, 0
4, 2783, Note_on_c, 0, 74, 0
4, 2784, Note_on_c, 0, 58, 0
4, 2880, Control_c, 0, 64, 127
4, 2951, Note_on_c, 0, 68, 80
4, 2952, Note_on_c, 0, 63, 78
4, 2952, Note_on_c, 0, 65, 74
4, 2952, Note_on_c, 0, 60, 84
4, 2953, Note_on_c, 0, 56, 86
4, 2965, Control_c, 0, 64, 0
4, 2989, Control_c, 0, 64, 127
4, 3039, Note_on_c, 0, 56, 0
4, 3046, Note_on_c, 0, 60, 0
4, 3061, Note_on_c, 0, 63, 0
4, 3064, Note_on_c, 0, 65, 0
4, 3078, Note_on_c, 0, 68, 0
4, 3112, Control_c, 0, 64, 0
4, 3117, Note_on_c, 0, 68, 36
4, 3120, Note_on_c, 0, 61, 36
4, 3120, Note_on_c, 0, 58, 27
4, 3121, Note_on_c, 0, 46, 29
4, 3126, Note_on_c, 0, 65, 31
4, 3128, Note_on_c, 0, 53, 22
4, 3151, Control_c, 0, 64, 127
4, 3169, Note_on_c, 0, 65, 0
4, 3169, Note_on_c, 0, 68, 0
4, 3171, Note_on_c, 0, 46, 0
4, 3171, Note_on_c, 0, 61, 0
4, 3171, Note_on_c, 0, 58, 0
4, 3177, Note_on_c, 0, 53, 0
4, 3194, Note_on_c, 0, 68, 37
4, 3196, Note_on_c, 0, 46, 36
4, 3196, Note_on_c, 0, 58, 33
4, 3197, Note_on_c, 0, 61, 36
4, 3199, Note_on_c, 0, 65, 38
4, 3200, Note_on_c, 0, 53, 36
4, 3249, Note_on_c, 0, 53, 0
4, 3262, Note_on_c, 0, 61, 0
4, 3265, Note_on_c, 0, 46, 0
4, 3273, Note_on_c, 0, 65, 0
4, 3276, Note_on_c, 0, 58, 0
4, 3314, Note_on_c, 0, 68, 0
4, 3337, Note_on_c, 0, 48, 18
4, 3340, Note_on_c, 0, 50, 56
4, 3344, Note_on_c, 0, 51, 44
4, 3345, Note_on_c, 0, 48, 0
4, 3356, Note_on_c, 0, 52, 73
4, 3358, Note_on_c, 0, 51, 0
4, 3358, Note_on_c, 0, 50, 0
4, 3361, Control_c, 0, 64, 0
4, 3363, Note_on_c, 0, 63, 68
4, 3363, Note_on_c, 0, 68, 64
4, 3364, Note_on_c, 0, 59, 69
4, 3365, Note_on_c, 0, 65, 71
4, 3366, Note_on_c, 0, 53, 57
4, 3374, Note_on_c, 0, 52, 0
4, 3401, Control_c, 0, 64, 127
4, 3451, Note_on_c, 0, 63, 0
4, 3452, Note_on_c, 0, 59, 0
4, 3460, Note_on_c, 0, 65, 0
4, 3474, Note_on_c, 0, 68, 0
4, 3476, Control_c, 0, 64, 0
4, 3478, Note_on_c, 0, 53, 0
4, 3481, Note_on_c, 0, 62, 44
4, 3481, Note_on_c, 0, 50, 42
4, 3483, Note_on_c, 0, 59, 45
4, 3500, Control_c, 0, 64, 127
4, 3525, Note_on_c, 0, 62, 0
4, 3544, Note_on_c, 0, 50, 0
4, 3545, Note_on_c, 0, 59, 0
4, 3584, Note_on_c, 0, 46, 12
4, 3595, Control_c, 0, 64, 0
4, 3598, Note_on_c, 0, 65, 39
4, 3599, Note_on_c, 0, 46, 0
4, 3599, Note_on_c, 0, 58, 35
4, 3600, Note_on_c, 0, 62, 34
4, 3601, Note_on_c, 0, 55, 33
4, 3617, Note_on_c, 0, 65, 0
4, 3619, Note_on_c, 0, 62, 0
4, 3624, Note_on_c, 0, 55, 0
4, 3627, Note_on_c, 0, 58, 0
4, 3634, Control_c, 0, 64, 127
4, 3674, Note_on_c, 0, 67, 44
4, 3675, Note_on_c, 0, 58, 35
4, 3676, Note_on_c, 0, 60, 48
4, 3676, Note_on_c, 0, 48, 50
4, 3677, Note_on_c, 0, 64, 44
4, 3678, Control_c, 0, 64, 0
4, 3706, Control_c, 0, 64, 127
4, 3721, Note_on_c, 0, 64, 0
4, 3722, Note_on_c, 0, 60, 0
4, 3726, Note_on_c, 0, 58, 0
4, 3727, Note_on_c, 0, 48, 0
4, 3731, Note_on_c, 0, 67, 0
4, 3907, Note_on_c, 0, 77, 85
4, 3907, Note_on_c, 0, 61, 84
4, 3907, Note_on_c, 0, 81, 87
4, 3907, Note_on_c, 0, 72, 92
4, 3907, Note_on_c, 0, 65, 95
4, 3908, Note_on_c, 0, 60, 84
4, 3908, Control_c, 0, 64, 0
4, 3908, Note_on_c, 0, 55, 88
4, 3910, Note_on_c, 0, 58, 50
4, 3916, Note_on_c, 0, 58, 0
4, 3942, Control_c, 0, 64, 127
4, 4013, Note_on_c, 0, 77, 0
4, 4017, Note_on_c, 0, 55, 0
4, 4020, Note_on_c, 0, 60, 0
4, 4021, Note_on_c, 0, 65, 0
4, 4032, Note_on_c, 0, 72, 0
4, 4033, Note_on_c, 0, 81, 0
4, 4035, Note_on_c, 0, 61, 0
4, 4062, Control_c, 0, 64, 0
4, 4079, Note_on_c, 0, 72, 43
4, 4080, Note_on_c, 0, 81, 45
4, 4081, Note_on_c, 0, 64, 47
4, 4081, Note_on_c, 0, 54, 45
4, 4081, Note_on_c, 0, 78, 31
4, 4085, Note_on_c, 0, 60, 39
4, 4099, Note_on_c, 0, 72, 0
4, 4103, Note_on_c, 0, 81, 0
4, 4104, Note_on_c, 0, 78, 0
4, 4105, Note_on_c, 0, 64, 0
4, 4105, Note_on_c, 0, 60, 0
4, 4107, Note_on_c, 0, 54, 0
4, 4157, Note_on_c, 0, 54, 54
4, 4158, Note_on_c, 0, 81, 40
4, 4158, Note_on_c, 0, 78, 36
4, 4159, Note_on_c, 0, 72, 39
4, 4160, Note_on_c, 0, 64, 39
4, 4160, Note_on_c, 0, 60, 48
4, 4172, Note_on_c, 0, 64, 0
4, 4172, Note_on_c, 0, 72, 0
4, 4175, Note_on_c, 0, 81, 0
4, 4176, Note_on_c, 0, 78, 0
4, 4176, Note_on_c, 0, 60, 0
4, 4179, Note_on_c, 0, 54, 0
4, 4199, Note_on_c, 0, 54, 38
4, 4202, Control_c, 0, 64, 127
4, 4202, Note_on_c, 0, 78, 33
4, 4204, Note_on_c, 0, 72, 33
4, 4204, Note_on_c, 0, 60, 33
4, 4213, Note_on_c, 0, 72, 0
4, 4214, Note_on_c, 0, 60, 0
4, 4217, Note_on_c, 0, 78, 0
4, 4218, Note_on_c, 0, 54, 0
4, 4273, Note_on_c, 0, 54, 48
4, 4274, Note_on_c, 0, 60, 54
4, 4275, Note_on_c, 0, 78, 53
4, 4278, Note_on_c, 0, 81, 40
4, 4280, Note_on_c, 0, 72, 33
4, 4286, Note_on_c, 0, 81, 0
4, 4287, Note_on_c, 0, 72, 0
4, 4289, Note_on_c, 0, 54, 0
4, 4290, Note_on_c, 0, 78, 0
4, 4299, Note_on_c, 0, 60, 0
4, 4314, Control_c, 0, 64, 0
4, 4321, Note_on_c, 0, 84, 51
4, 4322, Note_on_c, 0, 72, 47
4, 4322, Note_on_c, 0, 60, 43
4, 4322, Note_on_c, 0, 55, 51
4, 4323, Note_on_c, 0, 64, 38
4, 4324, Note_on_c, 0, 79, 38
4, 4335, Note_on_c, 0, 64, 0
4, 4335, Note_on_c, 0, 84, 0
4, 4336, Note_on_c, 0, 55, 0
4, 4336, Note_on_c, 0, 72, 0
4, 4336, Note_on_c, 0, 60, 0
4, 4337, Note_on_c, 0, 79, 0
4, 4362, Control_c, 0, 64, 127
4, 4377, Control_c, 0, 64, 0
4, 4394, Note_on_c, 0, 64, 56
4, 4394, Note_on_c, 0, 84, 76
4, 4395, Note_on_c, 0, 60, 48
4, 4395, Note_on_c, 0, 72, 69
4, 4395, Note_on_c, 0, 55, 56
4, 4395, Note_on_c, 0, 79, 60
4, 4396, Control_c, 0, 64, 127
4, 4421, Note_on_c, 0, 84, 0
4, 4424, Note_on_c, 0, 79, 0
4, 4430, Note_on_c, 0, 60, 0
4, 4432, Note_on_c, 0, 72, 0
4, 4440, Note_on_c, 0, 82, 51
4, 4446, Note_on_c, 0, 64, 0
4, 4446, Note_on_c, 0, 72, 14
4, 4453, Note_on_c, 0, 72, 0
4, 4453, Note_on_c, 0, 55, 0
4, 4459, Note_on_c, 0, 82, 0
4, 4475, Note_on_c, 0, 55, 50
4, 4476, Note_on_c, 0, 84, 64
4, 4482, Note_on_c, 0, 60, 25
4, 4488, Note_on_c, 0, 60, 0
4, 4489, Note_on_c, 0, 84, 0
4, 4489, Note_on_c, 0, 55, 0
4, 4518, Note_on_c, 0, 54, 64
4, 4519, Note_on_c, 0, 81, 70
4, 4519, Note_on_c, 0, 64, 58
4, 4520, Note_on_c, 0, 60, 55
4, 4520, Note_on_c, 0, 72, 57
4, 4523, Control_c, 0, 64, 0
4, 4532, Note_on_c, 0, 64, 0
4, 4533, Note_on_c, 0, 60, 0
4, 4535, Note_on_c, 0, 72, 0
4, 4540, Note_on_c, 0, 81, 0
4, 4543, Note_on_c, 0, 54, 0
4, 4599, Note_on_c, 0, 56, 62
4, 4600, Note_on_c, 0, 80, 75
4, 4600, Note_on_c, 0, 57, 69
4, 4602, Note_on_c, 0, 81, 79
4, 4612, Note_on_c, 0, 57, 0
4, 4612, Note_on_c, 0, 80, 0
4, 4617, Note_on_c, 0, 81, 0
4, 4629, Note_on_c, 0, 56, 0
4, 4637, Note_on_c, 0, 56, 28
4, 4639, Note_on_c, 0, 81, 73
4, 4640, Note_on_c, 0, 80, 59
4, 4642, Control_c, 0, 64, 127
4, 4643, Note_on_c, 0, 57, 50
4, 4648, Note_on_c, 0, 57, 0
4, 4652, Note_on_c, 0, 81, 0
4, 4656, Note_on_c, 0, 80, 0
4, 4658, Control_c, 0, 64, 0
4, 4672, Note_on_c, 0, 56, 0
4, 4674, Note_on_c, 0, 57, 64
4, 4676, Note_on_c, 0, 81, 75
4, 4692, Note_on_c, 0, 57, 0
4, 4693, Note_on_c, 0, 81, 0
4, 4701, Note_on_c, 0, 49, 25
4, 4707, Note_on_c, 0, 49, 0
4, 4712, Control_c, 0, 64, 127
4, 4715, Note_on_c, 0, 74, 49
4, 4728, Note_on_c, 0, 74, 0
4, 4734, Note_on_c, 0, 50, 9
4, 4743, Note_on_c, 0, 50, 0
4, 4749, Control_c, 0, 64, 0
4, 4753, Note_on_c, 0, 77, 79
4, 4753, Note_on_c, 0, 53, 68
4, 4788, Note_on_c, 0, 77, 0
4, 4788, Control_c, 0, 64, 127
4, 4863, Note_on_c, 0, 53, 0
4, 4871, Note_on_c, 0, 61, 78
4, 4871, Note_on_c, 0, 64, 79
4, 4872, Note_on_c, 0, 57, 81
4, 4873, Note_on_c, 0, 43, 77
4, 4889, Control_c, 0, 64, 0
4, 4916, Control_c, 0, 64, 127
4, 4932, Note_on_c, 0, 43, 0
4, 4941, Note_on_c, 0, 57, 0
4, 4950, Note_on_c, 0, 61, 0
4, 4960, Note_on_c, 0, 64, 0
4, 5040, Control_c, 0, 64, 0
4, 5044, Note_on_c, 0, 69, 82
4, 5045, Note_on_c, 0, 57, 69
4, 5107, Note_on_c, 0, 57, 0
4, 5117, Note_on_c, 0, 50, 45
4, 5121, Control_c, 0, 64, 127
4, 5123, Note_on_c, 0, 62, 43
4, 5133, Note_on_c, 0, 62, 0
4, 5142, Note_on_c, 0, 69, 0
4, 5151, Note_on_c, 0, 50, 0
4, 5152, Control_c, 0, 64, 0
4, 5161, Note_on_c, 0, 53, 52
4, 5163, Note_on_c, 0, 65, 72
4, 5177, Control_c, 0, 64, 127
4, 5248, Note_on_c, 0, 53, 0
4, 5274, Note_on_c, 0, 65, 0
4, 5343, Control_c, 0, 64, 0
4, 5350, Note_on_c, 0, 45, 67
4, 5352, Note_on_c, 0, 64, 83
4, 5352, Note_on_c, 0, 69, 80
4, 5353, Note_on_c, 0, 60, 74
4, 5354, Note_on_c, 0, 55, 56
4, 5360, Note_on_c, 0, 55, 0
4, 5360, Note_on_c, 0, 45, 0
4, 5360, Note_on_c, 0, 60, 0
4, 5363, Note_on_c, 0, 64, 0
4, 5366, Note_on_c, 0, 69, 0
4, 5381, Control_c, 0, 64, 127
4, 5394, Control_c, 0, 64, 0
4, 5402, Note_on_c, 0, 62, 70
4, 5404, Note_on_c, 0, 46, 64
4, 5408, Note_on_c, 0, 58, 36
4, 5408, Note_on_c, 0, 55, 39
4, 5413, Note_on_c, 0, 58, 0
4, 5415, Note_on_c, 0, 55, 0
4, 5416, Note_on_c, 0, 62, 0
4, 5425, Note_on_c, 0, 46, 0
4, 5465, Control_c, 0, 64, 127
4, 5511, Control_c, 0, 64, 0
4, 5524, Note_on_c, 0, 47, 54
4, 5527, Note_on_c, 0, 65, 62
4, 5528, Note_on_c, 0, 62, 60
4, 5530, Note_on_c, 0, 57, 58
4, 5537, Control_c, 0, 64, 127
4, 5545, Note_on_c, 0, 47, 0
4, 5566, Note_on_c, 0, 57, 0
4, 5592, Note_on_c, 0, 62, 0
4, 5624, Note_on_c, 0, 65, 0
4, 5649, Control_c, 0, 64, 0
4, 5655, Note_on_c, 0, 67, 68
4, 5656, Note_on_c, 0, 62, 57
4, 5658, Note_on_c, 0, 58, 52
4, 5680, Control_c, 0, 64, 127
4, 5688, Note_on_c, 0, 58, 0
4, 5691, Note_on_c, 0, 62, 0
4, 5694, Note_on_c, 0, 67, 0
4, 5724, Note_on_c, 0, 65, 65
4, 5731, Note_on_c, 0, 65, 0
4, 5731, Control_c, 0, 64, 0
4, 5771, Control_c, 0, 64, 127
4, 5841, Note_on_c, 0, 81, 71
4, 5841, Note_on_c, 0, 61, 62
4, 5842, Note_on_c, 0, 96, 78
4, 5842, Note_on_c, 0, 88, 68
4, 5842, Note_on_c, 0, 60, 64
4, 5842, Note_on_c, 0, 65, 77
4, 5844, Note_on_c, 0, 55, 70
4, 5847, Control_c, 0, 64, 0
4, 5848, Note_on_c, 0, 58, 31
4, 5872, Control_c, 0, 64, 127
4, 5958, Note_on_c, 0, 65, 0
4, 5960, Note_on_c, 0, 81, 0
4, 5961, Note_on_c, 0, 55, 0
4, 5964, Note_on_c, 0, 60, 0
4, 5964, Note_on_c, 0, 88, 0
4, 5966, Note_on_c, 0, 96, 0
4, 5967, Note_on_c, 0, 61, 0
4, 5971, Note_on_c, 0, 58, 0
4, 6073, Note_on_c, 0, 93, 72
4, 6074, Note_on_c, 0, 64, 64
4, 6074, Note_on_c, 0, 54, 63
4, 6074, Note_on_c, 0, 81, 62
4, 6075, Note_on_c, 0, 60, 63
4, 6075, Note_on_c, 0, 88, 63
4, 6076, Control_c, 0, 64, 0
4, 6100, Control_c, 0, 64, 127
4, 6174, Note_on_c, 0, 93, 0
4, 6175, Note_on_c, 0, 88, 0
4, 6177, Note_on_c, 0, 60, 0
4, 6178, Note_on_c, 0, 64, 0
4, 6178, Note_on_c, 0, 81, 0
4, 6198, Note_on_c, 0, 54, 0
4, 6249, Control_c, 0, 64, 0
4, 6267, Control_c, 0, 64, 127
4, 6307, Note_on_c, 0, 77, 62
4, 6307, Note_on_c, 0, 89, 62
4, 6308, Note_on_c, 0, 82, 42
4, 6308, Note_on_c, 0, 62, 59
4, 6308, Note_on_c, 0, 58, 46
4, 6308, Note_on_c, 0, 86, 47
4, 6308, Note_on_c, 0, 57, 48
4, 6309, Note_on_c, 0, 53, 55
4, 6317, Control_c, 0, 64, 0
4, 6344, Control_c, 0, 64, 127
4, 6396, Note_on_c, 0, 86, 0
4, 6398, Note_on_c, 0, 89, 0
4, 6403, Note_on_c, 0, 57, 0
4, 6409, Note_on_c, 0, 77, 0
4, 6409, Note_on_c, 0, 82, 0
4, 6410, Note_on_c, 0, 53, 0
4, 6410, Note_on_c, 0, 62, 0
4, 6417, Note_on_c, 0, 58, 0
4, 6476, Control_c, 0, 64, 0
4, 6476, Note_on_c, 0, 74, 62
4, 6476, Note_on_c, 0, 86, 67
4, 6477, Note_on_c, 0, 61, 59
4, 6477, Note_on_c, 0, 82, 44
4, 6477, Note_on_c, 0, 64, 62
4, 6478, Note_on_c, 0, 79, 46
4, 6478, Note_on_c, 0, 58, 58
4, 6483, Note_on_c, 0, 64, 0
4, 6483, Note_on_c, 0, 86, 0
4, 6483, Note_on_c, 0, 74, 0
4, 6484, Note_on_c, 0, 82, 0
4, 6484, Note_on_c, 0, 79, 0
4, 6487, Note_on_c, 0, 61, 0
4, 6489, Note_on_c, 0, 58, 0
4, 6535, Control_c, 0, 64, 127
4, 6555, Note_on_c, 0, 36, 66
4, 6591, Note_on_c, 0, 36, 0
4, 6770, Note_on_c, 0, 51, 18
4, 6777, Note_on_c, 0, 51, 0
4, 6780, Note_on_c, 0, 52, 54
4, 6787, Note_on_c, 0, 52, 0
4, 6787, Note_on_c, 0, 69, 71
4, 6787, Note_on_c, 0, 53, 57
4, 6787, Note_on_c, 0, 64, 66
4, 6787, Note_on_c, 0, 60, 67
4, 6791, Control_c, 0, 64, 0
4, 6821, Control_c, 0, 64, 127
4, 6857, Note_on_c, 0, 53, 0
4, 6863, Note_on_c, 0, 60, 0
4, 6864, Note_on_c, 0, 64, 0
4, 6877, Note_on_c, 0, 69, 0
4, 6943, Control_c, 0, 64, 0
4, 6956, Note_on_c, 0, 69, 28
4, 6956, Note_on_c, 0, 51, 29
4, 6956, Note_on_c, 0, 57, 32
4, 6956, Note_on_c, 0, 47, 34
4, 6957, Note_on_c, 0, 63, 32
4, 6958, Note_on_c, 0, 65, 33
4, 6990, Note_on_c, 0, 47, 0
4, 6995, Note_on_c, 0, 57, 0
4, 6997, Note_on_c, 0, 63, 0
4, 6998, Note_on_c, 0, 69, 0
4, 6999, Note_on_c, 0, 51, 0
4, 6999, Note_on_c, 0, 65, 0
4, 7014, Control_c, 0, 64, 127
4, 7035, Note_on_c, 0, 57, 63
4, 7035, Note_on_c, 0, 51, 46
4, 7036, Note_on_c, 0, 63, 46
4, 7037, Note_on_c, 0, 65, 45
4, 7037, Note_on_c, 0, 47, 47
4, 7038, Note_on_c, 0, 69, 37
4, 7052, Note_on_c, 0, 57, 0
4, 7054, Note_on_c, 0, 47, 0
4, 7054, Note_on_c, 0, 69, 0
4, 7055, Note_on_c, 0, 63, 0
4, 7056, Note_on_c, 0, 65, 0
4, 7058, Note_on_c, 0, 51, 0
4, 7071, Control_c, 0, 64, 0
4, 7156, Control_c, 0, 64, 127
4, 7160, Note_on_c, 0, 57, 44
4, 7160, Note_on_c, 0, 51, 34
4, 7161, Note_on_c, 0, 63, 47
4, 7161, Note_on_c, 0, 47, 34
4, 7164, Note_on_c, 0, 65, 35
4, 7174, Note_on_c, 0, 47, 0
4, 7183, Note_on_c, 0, 57, 0
4, 7189, Note_on_c, 0, 65, 0
4, 7194, Note_on_c, 0, 63, 0
4, 7197, Note_on_c, 0, 51, 0
4, 7200, Control_c, 0, 64, 0
4, 7209, Note_on_c, 0, 62, 51
4, 7209, Note_on_c, 0, 53, 37
4, 7210, Note_on_c, 0, 46, 35
4, 7210, Note_on_c, 0, 69, 43
4, 7210, Note_on_c, 0, 65, 24
4, 7212, Note_on_c, 0, 57, 34
4, 7221, Note_on_c, 0, 57, 0
4, 7225, Note_on_c, 0, 62, 0
4, 7226, Note_on_c, 0, 65, 0
4, 7228, Note_on_c, 0, 69, 0
4, 7231, Note_on_c, 0, 53, 0
4, 7233, Note_on_c, 0, 46, 0
4, 7234, Control_c, 0, 64, 127
4, 7257, Control_c, 0, 64, 0
4, 7274, Control_c, 0, 64, 127
4, 7281, Note_on_c, 0, 46, 60
4, 7283, Note_on_c, 0, 62, 72
4, 7284, Note_on_c, 0, 53, 62
4, 7284, Note_on_c, 0, 69, 58
4, 7285, Note_on_c, 0, 65, 43
4, 7287, Note_on_c, 0, 57, 38
4, 7292, Note_on_c, 0, 53, 0
4, 7293, Note_on_c, 0, 65, 0
4, 7294, Note_on_c, 0, 69, 0
4, 7297, Note_on_c, 0, 62, 0
4, 7302, Note_on_c, 0, 57, 0
4, 7304, Note_on_c, 0, 46, 0
4, 7329, Control_c, 0, 64, 0
4, 7330, Note_on_c, 0, 50, 48
4, 7331, Note_on_c, 0, 62, 48
4, 7333, Note_on_c, 0, 58, 38
4, 7336, Note_on_c, 0, 55, 24
4, 7366, Note_on_c, 0, 55, 0
4, 7369, Note_on_c, 0, 50, 0
4, 7373, Note_on_c, 0, 62, 0
4, 7375, Note_on_c, 0, 58, 0
4, 7388, Control_c, 0, 64, 127
4, 7395, Note_on_c, 0, 50, 51
4, 7399, Note_on_c, 0, 62, 69
4, 7400, Note_on_c, 0, 58, 56
4, 7401, Note_on_c, 0, 55, 64
4, 7419, Note_on_c, 0, 55, 0
4, 7420, Note_on_c, 0, 50, 0
4, 7423, Note_on_c, 0, 58, 0
4, 7423, Note_on_c, 0, 62, 0
4, 7431, Note_on_c, 0, 51, 26
4, 7436, Control_c, 0, 64, 0
4, 7442, Note_on_c, 0, 58, 56
4, 7443, Note_on_c, 0, 62, 57
4, 7444, Note_on_c, 0, 55, 62
4, 7444, Note_on_c, 0, 65, 51
4, 7445, Note_on_c, 0, 52, 50
4, 7447, Note_on_c, 0, 51, 0
4, 7451, Note_on_c, 0, 52, 0
4, 7469, Note_on_c, 0, 62, 0
4, 7470, Control_c, 0, 64, 127
4, 7472, Note_on_c, 0, 55, 0
4, 7473, Note_on_c, 0, 65, 0
4, 7474, Note_on_c, 0, 58, 0
4, 7509, Note_on_c, 0, 53, 38
4, 7517, Note_on_c, 0, 67, 62
4, 7519, Note_on_c, 0, 58, 53
4, 7520, Note_on_c, 0, 55, 59
4, 7520, Note_on_c, 0, 62, 59
4, 7521, Note_on_c, 0, 64, 55
4, 7523, Note_on_c, 0, 53, 0
4, 7531, Control_c, 0, 64, 0
4, 7560, Control_c, 0, 64, 127
4, 7575, Note_on_c, 0, 58, 0
4, 7576, Note_on_c, 0, 67, 0
4, 7576, Note_on_c, 0, 64, 0
4, 7579, Note_on_c, 0, 62, 0
4, 7581, Note_on_c, 0, 55, 0
4, 7659, Control_c, 0, 64, 0
4, 7675, Control_c, 0, 64, 127
4, 7756, Note_on_c, 0, 60, 82
4, 7757, Note_on_c, 0, 87, 86
4, 7757, Note_on_c, 0, 61, 75
4, 7757, Note_on_c, 0, 81, 83
4, 7758, Note_on_c, 0, 93, 88
4, 7758, Note_on_c, 0, 65, 81
4, 7759, Note_on_c, 0, 55, 82
4, 7759, Note_on_c, 0, 58, 60
4, 7760, Control_c, 0, 64, 0
4, 7779, Note_on_c, 0, 87, 0
4, 7779, Note_on_c, 0, 88, 42
4, 7786, Control_c, 0, 64, 127
4, 7861, Note_on_c, 0, 65, 0
4, 7864, Note_on_c, 0, 60, 0
4, 7865, Note_on_c, 0, 55, 0
4, 7871, Note_on_c, 0, 61, 0
4, 7876, Note_on_c, 0, 58, 0
4, 7877, Note_on_c, 0, 88, 0
4, 7880, Note_on_c, 0, 93, 0
4, 7881, Note_on_c, 0, 81, 0
4, 7915, Control_c, 0, 64, 0
4, 7923, Note_on_c, 0, 81, 36
4, 7923, Note_on_c, 0, 93, 43
4, 7924, Note_on_c, 0, 54, 39
4, 7924, Note_on_c, 0, 64, 37
4, 7925, Note_on_c, 0, 60, 36
4, 7926, Note_on_c, 0, 88, 44
4, 7948, Control_c, 0, 64, 127
4, 7955, Note_on_c, 0, 88, 0
4, 7956, Note_on_c, 0, 81, 0
4, 7956, Note_on_c, 0, 93, 0
4, 7960, Note_on_c, 0, 60, 0
4, 7961, Note_on_c, 0, 64, 0
4, 7961, Control_c, 0, 64, 0
4, 7962, Note_on_c, 0, 54, 0
4, 7987, Control_c, 0, 64, 127
4, 7994, Note_on_c, 0, 92, 51
4, 7996, Note_on_c, 0, 80, 34
4, 7997, Note_on_c, 0, 87, 46
4, 7998, Note_on_c, 0, 54, 55
4, 7999, Note_on_c, 0, 64, 46
4, 7999, Note_on_c, 0, 60, 46
4, 8016, Note_on_c, 0, 64, 0
4, 8020, Note_on_c, 0, 80, 0
4, 8022, Note_on_c, 0, 92, 0
4, 8023, Note_on_c, 0, 60, 0
4, 8025, Note_on_c, 0, 54, 0
4, 8026, Note_on_c, 0, 87, 0
4, 8028, Control_c, 0, 64, 0
4, 8038, Note_on_c, 0, 54, 34
4, 8039, Note_on_c, 0, 93, 55
4, 8040, Note_on_c, 0, 81, 40
4, 8040, Note_on_c, 0, 64, 33
4, 8040, Note_on_c, 0, 60, 47
4, 8041, Note_on_c, 0, 88, 48
4, 8049, Note_on_c, 0, 88, 0
4, 8053, Note_on_c, 0, 93, 0
4, 8053, Note_on_c, 0, 81, 0
4, 8056, Note_on_c, 0, 60, 0
4, 8056, Note_on_c, 0, 64, 0
4, 8059, Note_on_c, 0, 54, 0
4, 8112, Control_c, 0, 64, 127
4, 8114, Note_on_c, 0, 54, 56
4, 8116, Note_on_c, 0, 64, 40
4, 8116, Note_on_c, 0, 60, 46
4, 8119, Note_on_c, 0, 93, 71
4, 8120, Note_on_c, 0, 81, 61
4, 8120, Note_on_c, 0, 88, 65
4, 8126, Note_on_c, 0, 64, 0
4, 8127, Note_on_c, 0, 81, 0
4, 8127, Note_on_c, 0, 60, 0
4, 8129, Note_on_c, 0, 88, 0
4, 8131, Note_on_c, 0, 93, 0
4, 8138, Note_on_c, 0, 54, 0
4, 8155, Control_c, 0, 64, 0
4, 8158, Note_on_c, 0, 62, 63
4, 8158, Note_on_c, 0, 58, 52
4, 8159, Note_on_c, 0, 94, 64
4, 8159, Note_on_c, 0, 82, 54
4, 8161, Note_on_c, 0, 53, 39
4, 8162, Note_on_c, 0, 89, 46
4, 8162, Note_on_c, 0, 55, 45
4, 8164, Note_on_c, 0, 94, 0
4, 8166, Note_on_c, 0, 82, 0
4, 8168, Note_on_c, 0, 62, 0
4, 8168, Note_on_c, 0, 89, 0
4, 8168, Note_on_c, 0, 55, 0
4, 8169, Note_on_c, 0, 53, 0
4, 8173, Note_on_c, 0, 58, 0
4, 8195, Note_on_c, 0, 94, 69
4, 8195, Note_on_c, 0, 62, 57
4, 8196, Note_on_c, 0, 82, 57
4, 8198, Note_on_c, 0, 58, 39
4, 8198, Note_on_c, 0, 89, 54
4, 8198, Note_on_c, 0, 53, 36
4, 8200, Note_on_c, 0, 55, 34
4, 8208, Control_c, 0, 64, 127
4, 8241, Note_on_c, 0, 89, 0
4, 8244, Note_on_c, 0, 53, 0
4, 8244, Note_on_c, 0, 55, 0
4, 8245, Note_on_c, 0, 82, 0
4, 8248, Note_on_c, 0, 94, 0
4, 8253, Note_on_c, 0, 62, 0
4, 8255, Note_on_c, 0, 58, 0
4, 8269, Control_c, 0, 64, 0
4, 8275, Note_on_c, 0, 64, 71
4, 8276, Note_on_c, 0, 60, 63
4, 8276, Note_on_c, 0, 55, 60
4, 8277, Note_on_c, 0, 88, 60
4, 8278, Note_on_c, 0, 57, 55
4, 8278, Note_on_c, 0, 81, 54
4, 8278, Note_on_c, 0, 93, 69
4, 8293, Control_c, 0, 64, 127
4, 8330, Note_on_c, 0, 93, 0
4, 8330, Note_on_c, 0, 88, 0
4, 8334, Note_on_c, 0, 60, 0
4, 8335, Note_on_c, 0, 64, 0
4, 8336, Note_on_c, 0, 57, 0
4, 8337, Note_on_c, 0, 55, 0
4, 8342, Note_on_c, 0, 81, 0
4, 8386, Control_c, 0, 64, 0
4, 8395, Note_on_c, 0, 62, 42
4, 8396, Note_on_c, 0, 89, 55
4, 8396, Note_on_c, 0, 53, 34
4, 8397, Note_on_c, 0, 86, 43
4, 8397, Note_on_c, 0, 55, 39
4, 8398, Note_on_c, 0, 58, 49
4, 8398, Note_on_c, 0, 77, 42
4, 8399, Note_on_c, 0, 82, 33
4, 8407, Control_c, 0, 64, 127
4, 8419, Note_on_c, 0, 86, 0
4, 8423, Note_on_c, 0, 89, 0
4, 8431, Note_on_c, 0, 82, 0
4, 8432, Note_on_c, 0, 77, 0
4, 8435, Note_on_c, 0, 62, 0
4, 8438, Note_on_c, 0, 55, 0
4, 8440, Note_on_c, 0, 53, 0
4, 8441, Note_on_c, 0, 58, 0
4, 8511, Control_c, 0, 64, 0
4, 8514, Note_on_c, 0, 86, 45
4, 8514, Note_on_c, 0, 62, 28
4, 8514, Note_on_c, 0, 74, 40
4, 8515, Note_on_c, 0, 58, 38
4, 8516, Note_on_c, 0, 52, 34
4, 8516, Note_on_c, 0, 82, 25
4, 8517, Note_on_c, 0, 79, 38
4, 8526, Control_c, 0, 64, 127
4, 8536, Note_on_c, 0, 86, 0
4, 8539, Note_on_c, 0, 79, 0
4, 8543, Note_on_c, 0, 82, 0
4, 8549, Note_on_c, 0, 62, 0
4, 8549, Note_on_c, 0, 74, 0
4, 8556, Note_on_c, 0, 58, 0
4, 8562, Note_on_c, 0, 52, 0
4, 8619, Note_on_c, 0, 54, 59
4, 8621, Note_on_c, 0, 52, 36
4, 8627, Note_on_c, 0, 52, 0
4, 8632, Note_on_c, 0, 54, 0
4, 8633, Note_on_c, 0, 68, 55
4, 8633, Note_on_c, 0, 63, 64
4, 8634, Note_on_c, 0, 65, 70
4, 8634, Note_on_c, 0, 60, 60
4, 8635, Note_on_c, 0, 55, 54
4, 8636, Note_on_c, 0, 56, 83
4, 8638, Control_c, 0, 64, 0
4, 8641, Note_on_c, 0, 55, 0
4, 8694, Control_c, 0, 64, 127
4, 8699, Note_on_c, 0, 60, 0
4, 8699, Note_on_c, 0, 56, 0
4, 8700, Note_on_c, 0, 68, 0
4, 8701, Note_on_c, 0, 65, 0
4, 8703, Note_on_c, 0, 63, 0
4, 8713, Note_on_c, 0, 68, 50
4, 8714, Note_on_c, 0, 63, 57
4, 8716, Note_on_c, 0, 65, 62
4, 8716, Note_on_c, 0, 56, 74
4, 8716, Note_on_c, 0, 60, 73
4, 8719, Note_on_c, 0, 55, 53
4, 8723, Control_c, 0, 64, 0
4, 8724, Note_on_c, 0, 55, 0
4, 8755, Control_c, 0, 64, 127
4, 8813, Note_on_c, 0, 60, 0
4, 8818, Note_on_c, 0, 68, 0
4, 8820, Note_on_c, 0, 56, 0
4, 8824, Note_on_c, 0, 65, 0
4, 8824, Note_on_c, 0, 63, 0
4, 8869, Control_c, 0, 64, 0
4, 8875, Note_on_c, 0, 68, 33
4, 8875, Note_on_c, 0, 61, 39
4, 8876, Note_on_c, 0, 46, 36
4, 8878, Note_on_c, 0, 65, 44
4, 8879, Note_on_c, 0, 56, 23
4, 8901, Control_c, 0, 64, 127
4, 8923, Note_on_c, 0, 65, 0
4, 8924, Note_on_c, 0, 61, 0
4, 8925, Note_on_c, 0, 56, 0
4, 8929, Note_on_c, 0, 46, 0
4, 8931, Note_on_c, 0, 68, 0
4, 8956, Note_on_c, 0, 46, 35
4, 8956, Note_on_c, 0, 56, 37
4, 8956, Note_on_c, 0, 61, 48
4, 8957, Note_on_c, 0, 68, 30
4, 8959, Note_on_c, 0, 65, 44
4, 8972, Control_c, 0, 64, 0
4, 8986, Control_c, 0, 64, 127
4, 9023, Note_on_c, 0, 46, 0
4, 9034, Note_on_c, 0, 56, 0
4, 9040, Note_on_c, 0, 65, 0
4, 9040, Note_on_c, 0, 61, 0
4, 9075, Note_on_c, 0, 68, 0
4, 9081, Note_on_c, 0, 51, 26
4, 9103, Note_on_c, 0, 51, 0
4, 9103, Note_on_c, 0, 52, 44
4, 9107, Control_c, 0, 64, 0
4, 9113, Note_on_c, 0, 68, 38
4, 9115, Note_on_c, 0, 63, 45
4, 9116, Note_on_c, 0, 59, 40
4, 9118, Note_on_c, 0, 65, 42
4, 9120, Note_on_c, 0, 53, 41
4, 9121, Note_on_c, 0, 52, 0
4, 9128, Note_on_c, 0, 59, 0
4, 9133, Note_on_c, 0, 65, 0
4, 9138, Note_on_c, 0, 63, 0
4, 9140, Note_on_c, 0, 68, 0
4, 9153, Note_on_c, 0, 53, 0
4, 9192, Note_on_c, 0, 53, 58
4, 9192, Note_on_c, 0, 68, 49
4, 9193, Note_on_c, 0, 63, 46
4, 9194, Note_on_c, 0, 59, 51
4, 9196, Control_c, 0, 64, 127
4, 9197, Note_on_c, 0, 65, 40
4, 9215, Note_on_c, 0, 59, 0
4, 9216, Note_on_c, 0, 65, 0
4, 9219, Note_on_c, 0, 63, 0
4, 9226, Note_on_c, 0, 68, 0
4, 9228, Control_c, 0, 64, 0
4, 9231, Note_on_c, 0, 53, 0
4, 9236, Note_on_c, 0, 50, 37
4, 9239, Note_on_c, 0, 62, 47
4, 9242, Note_on_c, 0, 59, 33
4, 9254, Control_c, 0, 64, 127
4, 9266, Note_on_c, 0, 50, 0
4, 9267, Note_on_c, 0, 59, 0
4, 9270, Note_on_c, 0, 62, 0
4, 9313, Note_on_c, 0, 62, 63
4, 9317, Note_on_c, 0, 50, 53
4, 9319, Note_on_c, 0, 59, 54
4, 9327, Note_on_c, 0, 62, 0
4, 9332, Note_on_c, 0, 59, 0
4, 9339, Note_on_c, 0, 50, 0
4, 9355, Control_c, 0, 64, 0
4, 9359, Note_on_c, 0, 65, 46
4, 9360, Note_on_c, 0, 62, 51
4, 9360, Note_on_c, 0, 48, 32
4, 9361, Note_on_c, 0, 58, 45
4, 9366, Note_on_c, 0, 55, 30
4, 9373, Note_on_c, 0, 55, 0
4, 9379, Control_c, 0, 64, 127
4, 9380, Note_on_c, 0, 48, 0
4, 9380, Note_on_c, 0, 65, 0
4, 9380, Note_on_c, 0, 62, 0
4, 9380, Note_on_c, 0, 58, 0
4, 9427, Note_on_c, 0, 48, 57
4, 9427, Note_on_c, 0, 67, 49
4, 9428, Note_on_c, 0, 36, 51
4, 9430, Note_on_c, 0, 60, 61
4, 9431, Note_on_c, 0, 58, 31
4, 9435, Note_on_c, 0, 67, 0
4, 9436, Note_on_c, 0, 60, 0
4, 9437, Note_on_c, 0, 48, 0
4, 9439, Note_on_c, 0, 36, 0
4, 9442, Control_c, 0, 64, 0
4, 9443, Note_on_c, 0, 58, 0
4, 9487, Note_on_c, 0, 52, 46
4, 9493, Note_on_c, 0, 52, 0
4, 9497, Note_on_c, 0, 53, 54
4, 9503, Note_on_c, 0, 53, 0
4, 9506, Note_on_c, 0, 55, 54
4, 9512, Note_on_c, 0, 55, 0
4, 9518, Note_on_c, 0, 57, 42
4, 9524, Note_on_c, 0, 57, 0
4, 9528, Note_on_c, 0, 59, 43
4, 9534, Note_on_c, 0, 59, 0
4, 9539, Note_on_c, 0, 60, 36
4, 9545, Note_on_c, 0, 60, 0
4, 9547, Note_on_c, 0, 62, 47
4, 9553, Note_on_c, 0, 62, 0
4, 9557, Note_on_c, 0, 64, 38
4, 9564, Note_on_c, 0, 64, 0
4, 9570, Note_on_c, 0, 65, 40
4, 9576, Note_on_c, 0, 65, 0
4, 9579, Note_on_c, 0, 67, 44
4, 9585, Note_on_c, 0, 67, 0
4, 9592, Note_on_c, 0, 69, 36
4, 9598, Note_on_c, 0, 69, 0
4, 9602, Note_on_c, 0, 71, 38
4, 9608, Note_on_c, 0, 71, 0
4, 9667, Note_on_c, 0, 61, 74
4, 9667, Note_on_c, 0, 55, 80
4, 9667, Note_on_c, 0, 81, 108
4, 9669, Note_on_c, 0, 66, 85
4, 9705, Control_c, 0, 64, 127
4, 9778, Note_on_c, 0, 55, 0
4, 9798, Note_on_c, 0, 55, 35
4, 9800, Note_on_c, 0, 81, 0
4, 9811, Note_on_c, 0, 66, 0
4, 9815, Note_on_c, 0, 55, 0
4, 9835, Note_on_c, 0, 61, 0
4, 9837, Control_c, 0, 64, 0
4, 9846, Note_on_c, 0, 81, 35
4, 9847, Note_on_c, 0, 54, 29
4, 9849, Note_on_c, 0, 60, 46
4, 9851, Note_on_c, 0, 65, 17
4, 9874, Control_c, 0, 64, 127
4, 9897, Note_on_c, 0, 54, 0
4, 9899, Note_on_c, 0, 65, 0
4, 9903, Note_on_c, 0, 60, 0
4, 9903, Note_on_c, 0, 81, 0
4, 9920, Note_on_c, 0, 81, 54
4, 9920, Note_on_c, 0, 54, 57
4, 9921, Note_on_c, 0, 65, 55
4, 9922, Note_on_c, 0, 60, 54
4, 9944, Note_on_c, 0, 65, 0
4, 9947, Note_on_c, 0, 60, 0
4, 9947, Note_on_c, 0, 81, 0
4, 9948, Note_on_c, 0, 54, 0
4, 9967, Note_on_c, 0, 65, 37
4, 9967, Note_on_c, 0, 81, 44
4, 9968, Note_on_c, 0, 54, 33
4, 9968, Note_on_c, 0, 60, 49
4, 9988, Note_on_c, 0, 60, 0
4, 9990, Note_on_c, 0, 81, 0
4, 9996, Note_on_c, 0, 65, 0
4, 10007, Note_on_c, 0, 54, 0
4, 10040, Note_on_c, 0, 54, 52
4, 10045, Note_on_c, 0, 81, 61
4, 10047, Note_on_c, 0, 60, 48
4, 10059, Note_on_c, 0, 81, 0
4, 10060, Note_on_c, 0, 60, 0
4, 10068, Note_on_c, 0, 54, 0
4, 10084, Control_c, 0, 64, 0
4, 10087, Note_on_c, 0, 64, 44
4, 10089, Note_on_c, 0, 55, 39
4, 10091, Note_on_c, 0, 60, 41
4, 10092, Note_on_c, 0, 78, 25
4, 10092, Note_on_c, 0, 72, 36
4, 10096, Note_on_c, 0, 84, 17
4, 10100, Note_on_c, 0, 60, 0
4, 10101, Note_on_c, 0, 72, 0
4, 10102, Note_on_c, 0, 78, 0
4, 10102, Note_on_c, 0, 64, 0
4, 10102, Note_on_c, 0, 55, 0
4, 10106, Note_on_c, 0, 84, 0
4, 10162, Note_on_c, 0, 64, 45
4, 10162, Note_on_c, 0, 84, 69
4, 10162, Note_on_c, 0, 55, 57
4, 10164, Note_on_c, 0, 72, 55
4, 10164, Note_on_c, 0, 60, 46
4, 10164, Note_on_c, 0, 79, 52
4, 10168, Control_c, 0, 64, 127
4, 10190, Note_on_c, 0, 84, 0
4, 10196, Note_on_c, 0, 60, 0
4, 10196, Note_on_c, 0, 72, 0
4, 10197, Note_on_c, 0, 79, 0
4, 10210, Note_on_c, 0, 82, 33
4, 10216, Note_on_c, 0, 64, 0
4, 10217, Note_on_c, 0, 55, 0
4, 10230, Note_on_c, 0, 82, 0
4, 10243, Note_on_c, 0, 84, 58
4, 10248, Note_on_c, 0, 55, 36
4, 10259, Note_on_c, 0, 84, 0
4, 10266, Note_on_c, 0, 55, 0
4, 10285, Control_c, 0, 64, 0
4, 10286, Note_on_c, 0, 81, 74
4, 10287, Note_on_c, 0, 54, 59
4, 10287, Note_on_c, 0, 72, 64
4, 10288, Note_on_c, 0, 60, 51
4, 10288, Note_on_c, 0, 64, 52
4, 10318, Note_on_c, 0, 64, 0
4, 10320, Control_c, 0, 64, 127
4, 10321, Note_on_c, 0, 60, 0
4, 10324, Note_on_c, 0, 72, 0
4, 10331, Note_on_c, 0, 81, 0
4, 10334, Note_on_c, 0, 54, 0
4, 10348, Note_on_c, 0, 58, 31
4, 10355, Note_on_c, 0, 58, 0
4, 10444, Control_c, 0, 64, 0
4, 10447, Note_on_c, 0, 57, 64
4, 10448, Note_on_c, 0, 81, 65
4, 10475, Note_on_c, 0, 81, 0
4, 10480, Note_on_c, 0, 50, 53
4, 10480, Note_on_c, 0, 74, 44
4, 10481, Note_on_c, 0, 57, 0
4, 10484, Control_c, 0, 64, 127
4, 10491, Note_on_c, 0, 74, 0
4, 10507, Note_on_c, 0, 50, 0
4, 10519, Control_c, 0, 64, 0
4, 10524, Note_on_c, 0, 77, 71
4, 10527, Note_on_c, 0, 53, 54
4, 10538, Note_on_c, 0, 77, 0
4, 10544, Note_on_c, 0, 53, 0
4, 10559, Control_c, 0, 64, 127
4, 10629, Note_on_c, 0, 61, 40
4, 10631, Note_on_c, 0, 43, 46
4, 10631, Note_on_c, 0, 57, 39
4, 10632, Note_on_c, 0, 53, 36
4, 10633, Note_on_c, 0, 64, 46
4, 10636, Control_c, 0, 64, 0
4, 10663, Control_c, 0, 64, 127
4, 10667, Note_on_c, 0, 57, 0
4, 10667, Note_on_c, 0, 43, 0
4, 10671, Note_on_c, 0, 64, 0
4, 10676, Note_on_c, 0, 61, 0
4, 10679, Note_on_c, 0, 53, 0
4, 10760, Note_on_c, 0, 57, 64
4, 10761, Note_on_c, 0, 69, 85
4, 10774, Note_on_c, 0, 57, 0
4, 10777, Note_on_c, 0, 69, 0
4, 10782, Control_c, 0, 64, 0
4, 10800, Note_on_c, 0, 57, 38
4, 10807, Note_on_c, 0, 69, 35
4, 10827, Note_on_c, 0, 69, 0
4, 10827, Note_on_c, 0, 57, 0
4, 10830, Control_c, 0, 64, 127
4, 10834, Note_on_c, 0, 62, 36
4, 10835, Note_on_c, 0, 50, 39
4, 10855, Note_on_c, 0, 62, 0
4, 10868, Note_on_c, 0, 50, 0
4, 10875, Note_on_c, 0, 65, 73
4, 10877, Note_on_c, 0, 53, 62
4, 10926, Note_on_c, 0, 53, 0
4, 10954, Note_on_c, 0, 65, 0
4, 10993, Note_on_c, 0, 64, 63
4, 10994, Note_on_c, 0, 60, 50
4, 10995, Note_on_c, 0, 55, 67
4, 10996, Note_on_c, 0, 45, 63
4, 11002, Control_c, 0, 64, 0
4, 11003, Note_on_c, 0, 60, 0
4, 11008, Note_on_c, 0, 55, 0
4, 11012, Note_on_c, 0, 45, 0
4, 11015, Note_on_c, 0, 64, 0
4, 11121, Note_on_c, 0, 62, 76
4, 11121, Note_on_c, 0, 69, 78
4, 11124, Note_on_c, 0, 56, 68
4, 11124, Note_on_c, 0, 46, 67
4, 11144, Note_on_c, 0, 56, 0
4, 11146, Note_on_c, 0, 69, 0
4, 11148, Note_on_c, 0, 62, 0
4, 11149, Note_on_c, 0, 46, 0
4, 11173, Note_on_c, 0, 62, 45
4, 11196, Note_on_c, 0, 62, 0
4, 11244, Note_on_c, 0, 65, 71
4, 11245, Note_on_c, 0, 57, 74
4, 11245, Note_on_c, 0, 62, 68
4, 11247, Note_on_c, 0, 47, 71
4, 11265, Note_on_c, 0, 57, 0
4, 11269, Note_on_c, 0, 65, 0
4, 11270, Note_on_c, 0, 47, 0
4, 11272, Note_on_c, 0, 62, 0
4, 11360, Note_on_c, 0, 47, 61
4, 11362, Note_on_c, 0, 48, 79
4, 11363, Note_on_c, 0, 62, 79
4, 11363, Note_on_c, 0, 67, 80
4, 11363, Note_on_c, 0, 58, 78
4, 11365, Note_on_c, 0, 47, 0
4, 11402, Note_on_c, 0, 67, 0
4, 11405, Control_c, 0, 64, 127
4, 11412, Note_on_c, 0, 48, 0
4, 11413, Note_on_c, 0, 65, 58
4, 11416, Note_on_c, 0, 58, 0
4, 11438, Note_on_c, 0, 62, 0
4, 11449, Note_on_c, 0, 65, 0
4, 11478, Note_on_c, 0, 46, 55
4, 11496, Note_on_c, 0, 46, 0
4, 11504, Control_c, 0, 64, 0
4, 11522, Note_on_c, 0, 45, 52
4, 11528, Note_on_c, 0, 45, 0
4, 11531, Control_c, 0, 64, 127
4, 11609, Note_on_c, 0, 61, 58
4, 11610, Note_on_c, 0, 65, 68
4, 11610, Note_on_c, 0, 60, 66
4, 11611, Note_on_c, 0, 83, 35
4, 11612, Note_on_c, 0, 96, 56
4, 11612, Note_on_c, 0, 55, 65
4, 11613, Note_on_c, 0, 95, 52
4, 11615, Note_on_c, 0, 84, 33
4, 11618, Control_c, 0, 64, 0
4, 11619, Note_on_c, 0, 58, 25
4, 11635, Note_on_c, 0, 95, 0
4, 11635, Note_on_c, 0, 83, 0
4, 11648, Control_c, 0, 64, 127
4, 11711, Note_on_c, 0, 96, 0
4, 11712, Note_on_c, 0, 55, 0
4, 11717, Note_on_c, 0, 60, 0
4, 11718, Note_on_c, 0, 65, 0
4, 11719, Note_on_c, 0, 61, 0
4, 11721, Note_on_c, 0, 84, 0
4, 11724, Note_on_c, 0, 58, 0
4, 11842, Note_on_c, 0, 64, 74
4, 11844, Note_on_c, 0, 60, 66
4, 11844, Note_on_c, 0, 88, 72
4, 11844, Note_on_c, 0, 81, 68
4, 11844, Note_on_c, 0, 59, 39
4, 11844, Note_on_c, 0, 93, 79
4, 11846, Note_on_c, 0, 54, 38
4, 11850, Note_on_c, 0, 59, 0
4, 11850, Control_c, 0, 64, 0
4, 11883, Control_c, 0, 64, 127
4, 11952, Note_on_c, 0, 88, 0
4, 11952, Note_on_c, 0, 60, 0
4, 11953, Note_on_c, 0, 93, 0
4, 11955, Note_on_c, 0, 64, 0
4, 11957, Note_on_c, 0, 81, 0
4, 11970, Note_on_c, 0, 54, 0
4, 11992, Control_c, 0, 64, 0
4, 12001, Note_on_c, 0, 62, 52
4, 12001, Note_on_c, 0, 53, 42
4, 12002, Note_on_c, 0, 89, 44
4, 12002, Note_on_c, 0, 77, 36
4, 12004, Note_on_c, 0, 58, 40
4, 12009, Note_on_c, 0, 55, 35
4, 12021, Note_on_c, 0, 55, 0
4, 12022, Note_on_c, 0, 53, 0
4, 12026, Note_on_c, 0, 89, 0
4, 12028, Note_on_c, 0, 58, 0
4, 12030, Note_on_c, 0, 62, 0
4, 12031, Note_on_c, 0, 77, 0
4, 12066, Control_c, 0, 64, 127
4, 12081, Note_on_c, 0, 62, 42
4, 12082, Note_on_c, 0, 86, 47
4, 12083, Note_on_c, 0, 53, 34
4, 12084, Note_on_c, 0, 74, 34
4, 12084, Control_c, 0, 64, 0
4, 12084, Note_on_c, 0, 58, 42
4, 12085, Note_on_c, 0, 55, 37
4, 12110, Control_c, 0, 64, 127
4, 12139, Note_on_c, 0, 86, 0
4, 12148, Note_on_c, 0, 74, 0
4, 12151, Note_on_c, 0, 62, 0
4, 12159, Note_on_c, 0, 58, 0
4, 12164, Note_on_c, 0, 55, 0
4, 12164, Note_on_c, 0, 53, 0
4, 12238, Control_c, 0, 64, 0
4, 12242, Note_on_c, 0, 74, 58
4, 12243, Note_on_c, 0, 70, 49
4, 12244, Note_on_c, 0, 64, 41
4, 12244, Note_on_c, 0, 58, 31
4, 12245, Note_on_c, 0, 60, 33
4, 12246, Note_on_c, 0, 52, 29
4, 12251, Note_on_c, 0, 64, 0
4, 12253, Note_on_c, 0, 60, 0
4, 12255, Note_on_c, 0, 70, 0
4, 12255, Note_on_c, 0, 52, 0
4, 12256, Note_on_c, 0, 74, 0
4, 12257, Note_on_c, 0, 58, 0
4, 12334, Control_c, 0, 64, 127
4, 12350, Control_c, 0, 64, 0
4, 12371, Control_c, 0, 64, 127
4, 12382, Note_on_c, 0, 65, 63
4, 12390, Control_c, 0, 64, 0
4, 12396, Note_on_c, 0, 65, 0
4, 12420, Note_on_c, 0, 74, 76
4, 12420, Note_on_c, 0, 70, 83
4, 12435, Note_on_c, 0, 69, 37
4, 12438, Note_on_c, 0, 70, 0
4, 12442, Note_on_c, 0, 69, 0
4, 12450, Note_on_c, 0, 74, 0
4, 12464, Note_on_c, 0, 68, 70
4, 12465, Note_on_c, 0, 72, 62
4, 12468, Note_on_c, 0, 63, 37
4, 12475, Note_on_c, 0, 57, 24
4, 12480, Note_on_c, 0, 68, 0
4, 12482, Note_on_c, 0, 69, 51
4, 12504, Note_on_c, 0, 69, 0
4, 12505, Note_on_c, 0, 72, 0
4, 12507, Note_on_c, 0, 65, 54
4, 12539, Note_on_c, 0, 65, 0
4, 12590, Note_on_c, 0, 65, 50
4, 12597, Note_on_c, 0, 63, 0
4, 12606, Note_on_c, 0, 57, 0
4, 12695, Note_on_c, 0, 65, 0
4, 12724, Note_on_c, 0, 68, 83
4, 12727, Note_on_c, 0, 74, 58
4, 12741, Note_on_c, 0, 68, 0
4, 12754, Note_on_c, 0, 72, 33
4, 12757, Note_on_c, 0, 68, 45
4, 12766, Note_on_c, 0, 74, 0
4, 12773, Note_on_c, 0, 65, 52
4, 12774, Note_on_c, 0, 72, 0
4, 12775, Note_on_c, 0, 68, 0
4, 12780, Note_on_c, 0, 65, 0
4, 12789, Note_on_c, 0, 74, 68
4, 12790, Note_on_c, 0, 67, 71
4, 12810, Note_on_c, 0, 74, 0
4, 12817, Note_on_c, 0, 67, 0
4, 12825, Note_on_c, 0, 62, 44
4, 12837, Note_on_c, 0, 62, 0
4, 12845, Note_on_c, 0, 65, 65
4, 12889, Note_on_c, 0, 65, 0
4, 12891, Note_on_c, 0, 67, 66
4, 12955, Note_on_c, 0, 67, 0
4, 12956, Note_on_c, 0, 65, 51
4, 12964, Note_on_c, 0, 46, 27
4, 12965, Note_on_c, 0, 57, 35
4, 12968, Note_on_c, 0, 53, 27
4, 13036, Note_on_c, 0, 62, 36
4, 13085, Control_c, 0, 64, 127
4, 13092, Note_on_c, 0, 57, 0
4, 13094, Note_on_c, 0, 53, 0
4, 13102, Note_on_c, 0, 65, 0
4, 13105, Note_on_c, 0, 46, 0
4, 13128, Note_on_c, 0, 62, 0
4, 13170, Note_on_c, 0, 43, 29
4, 13177, Note_on_c, 0, 43, 0
4, 13192, Control_c, 0, 64, 0
4, 13201, Note_on_c, 0, 60, 88
4, 13209, Note_on_c, 0, 61, 52
4, 13217, Note_on_c, 0, 60, 0
4, 13223, Note_on_c, 0, 62, 69
4, 13224, Note_on_c, 0, 61, 0
4, 13243, Note_on_c, 0, 62, 0
4, 13250, Note_on_c, 0, 58, 73
4, 13252, Note_on_c, 0, 62, 51
4, 13253, Note_on_c, 0, 65, 68
4, 13253, Note_on_c, 0, 48, 60
4, 13253, Note_on_c, 0, 53, 53
4, 13254, Note_on_c, 0, 55, 61
4, 13289, Control_c, 0, 64, 127
4, 13302, Note_on_c, 0, 55, 0
4, 13305, Note_on_c, 0, 53, 0
4, 13311, Note_on_c, 0, 62, 0
4, 13312, Note_on_c, 0, 58, 0
4, 13312, Note_on_c, 0, 48, 0
4, 13313, Note_on_c, 0, 65, 0
4, 13318, Control_c, 0, 64, 0
4, 13326, Note_on_c, 0, 58, 59
4, 13327, Note_on_c, 0, 65, 57
4, 13328, Note_on_c, 0, 62, 57
4, 13328, Note_on_c, 0, 48, 49
4, 13329, Note_on_c, 0, 53, 62
4, 13345, Control_c, 0, 64, 127
4, 13347, Note_on_c, 0, 48, 0
4, 13360, Note_on_c, 0, 62, 0
4, 13372, Note_on_c, 0, 53, 0
4, 13382, Note_on_c, 0, 58, 0
4, 13388, Note_on_c, 0, 65, 0
4, 13404, Note_on_c, 0, 52, 34
4, 13424, Note_on_c, 0, 52, 0
4, 13427, Control_c, 0, 64, 0
4, 13440, Note_on_c, 0, 55, 53
4, 13442, Note_on_c, 0, 60, 45
4, 13442, Note_on_c, 0, 69, 45
4, 13442, Note_on_c, 0, 64, 46
4, 13448, Note_on_c, 0, 60, 0
4, 13451, Control_c, 0, 64, 127
4, 13452, Note_on_c, 0, 64, 0
4, 13454, Note_on_c, 0, 55, 0
4, 13459, Note_on_c, 0, 69, 0
4, 13519, Note_on_c, 0, 60, 74
4, 13520, Note_on_c, 0, 61, 53
4, 13520, Note_on_c, 0, 55, 68
4, 13522, Note_on_c, 0, 65, 62
4, 13541, Control_c, 0, 64, 0
4, 13568, Note_on_c, 0, 72, 44
4, 13571, Control_c, 0, 64, 127
4, 13576, Note_on_c, 0, 72, 0
4, 13584, Note_on_c, 0, 55, 0
4, 13597, Control_c, 0, 64, 0
4, 13599, Note_on_c, 0, 77, 76
4, 13605, Note_on_c, 0, 65, 0
4, 13608, Note_on_c, 0, 60, 0
4, 13611, Note_on_c, 0, 77, 0
4, 13620, Note_on_c, 0, 61, 0
4, 13625, Note_on_c, 0, 81, 88
4, 13629, Control_c, 0, 64, 127
4, 13631, Note_on_c, 0, 65, 44
4, 13631, Note_on_c, 0, 60, 48
4, 13633, Note_on_c, 0, 61, 21
4, 13636, Note_on_c, 0, 55, 33
4, 13645, Note_on_c, 0, 81, 0
4, 13651, Note_on_c, 0, 60, 0
4, 13654, Note_on_c, 0, 84, 88
4, 13655, Note_on_c, 0, 55, 0
4, 13656, Note_on_c, 0, 65, 0
4, 13664, Note_on_c, 0, 61, 0
4, 13672, Note_on_c, 0, 84, 0
4, 13672, Control_c, 0, 64, 0
4, 13682, Note_on_c, 0, 65, 47
4, 13683, Note_on_c, 0, 82, 70
4, 13683, Note_on_c, 0, 54, 45
4, 13685, Note_on_c, 0, 60, 40
4, 13711, Note_on_c, 0, 82, 0
4, 13713, Note_on_c, 0, 78, 40
4, 13734, Note_on_c, 0, 78, 0
4, 13745, Note_on_c, 0, 65, 0
4, 13745, Note_on_c, 0, 77, 34
4, 13761, Note_on_c, 0, 77, 0
4, 13772, Note_on_c, 0, 75, 60
4, 13775, Note_on_c, 0, 60, 0
4, 13795, Note_on_c, 0, 75, 0
4, 13797, Note_on_c, 0, 60, 32
4, 13799, Note_on_c, 0, 65, 22
4, 13804, Note_on_c, 0, 74, 35
4, 13826, Note_on_c, 0, 74, 0
4, 13827, Note_on_c, 0, 65, 0
4, 13831, Note_on_c, 0, 73, 40
4, 13838, Note_on_c, 0, 60, 0
4, 13850, Note_on_c, 0, 73, 0
4, 13860, Note_on_c, 0, 72, 32
4, 13867, Note_on_c, 0, 54, 0
4, 13885, Note_on_c, 0, 72, 0
4, 13893, Note_on_c, 0, 69, 35
4, 13908, Note_on_c, 0, 69, 0
4, 13916, Note_on_c, 0, 70, 43
4, 13918, Note_on_c, 0, 58, 33
4, 13918, Note_on_c, 0, 62, 20
4, 13920, Note_on_c, 0, 53, 18
4, 13920, Note_on_c, 0, 57, 24
4, 13952, Note_on_c, 0, 70, 0
4, 13957, Note_on_c, 0, 67, 33
4, 13964, Note_on_c, 0, 67, 0
4, 13981, Note_on_c, 0, 69, 66
4, 13997, Note_on_c, 0, 53, 0
4, 13998, Note_on_c, 0, 57, 0
4, 14006, Note_on_c, 0, 69, 0
4, 14009, Note_on_c, 0, 58, 0
4, 14013, Note_on_c, 0, 70, 67
4, 14021, Note_on_c, 0, 62, 0
4, 14034, Note_on_c, 0, 70, 0
4, 14036, Note_on_c, 0, 71, 74
4, 14048, Note_on_c, 0, 55, 33
4, 14049, Note_on_c, 0, 64, 32
4, 14050, Note_on_c, 0, 57, 43
4, 14052, Note_on_c, 0, 60, 51
4, 14056, Note_on_c, 0, 72, 70
4, 14060, Note_on_c, 0, 71, 0
4, 14101, Note_on_c, 0, 69, 58
4, 14108, Note_on_c, 0, 60, 0
4, 14112, Note_on_c, 0, 57, 0
4, 14113, Note_on_c, 0, 55, 0
4, 14119, Note_on_c, 0, 72, 0
4, 14131, Note_on_c, 0, 64, 0
4, 14162, Note_on_c, 0, 65, 41
4, 14163, Note_on_c, 0, 70, 49
4, 14165, Note_on_c, 0, 69, 0
4, 14166, Note_on_c, 0, 56, 23
4, 14166, Note_on_c, 0, 61, 33
4, 14168, Note_on_c, 0, 60, 30
4, 14226, Note_on_c, 0, 65, 0
4, 14227, Note_on_c, 0, 60, 0
4, 14230, Note_on_c, 0, 61, 0
4, 14242, Note_on_c, 0, 56, 0
4, 14287, Note_on_c, 0, 62, 35
4, 14287, Note_on_c, 0, 52, 36
4, 14288, Note_on_c, 0, 58, 34
4, 14289, Note_on_c, 0, 70, 0
4, 14359, Note_on_c, 0, 52, 0
4, 14361, Note_on_c, 0, 84, 101
4, 14365, Note_on_c, 0, 58, 0
4, 14372, Note_on_c, 0, 62, 0
4, 14388, Note_on_c, 0, 84, 0
4, 14403, Note_on_c, 0, 82, 74
4, 14404, Note_on_c, 0, 56, 30
4, 14404, Note_on_c, 0, 60, 49
4, 14405, Note_on_c, 0, 63, 38
4, 14424, Note_on_c, 0, 82, 0
4, 14446, Note_on_c, 0, 80, 80
4, 14463, Note_on_c, 0, 80, 0
4, 14474, Note_on_c, 0, 63, 0
4, 14475, Note_on_c, 0, 82, 47
4, 14479, Note_on_c, 0, 60, 0
4, 14481, Note_on_c, 0, 80, 42
4, 14498, Note_on_c, 0, 82, 0
4, 14502, Note_on_c, 0, 79, 56
4, 14509, Note_on_c, 0, 80, 0
4, 14511, Note_on_c, 0, 67, 37
4, 14513, Note_on_c, 0, 63, 32
4, 14519, Note_on_c, 0, 79, 0
4, 14534, Note_on_c, 0, 78, 69
4, 14541, Note_on_c, 0, 67, 0
4, 14548, Note_on_c, 0, 63, 0
4, 14556, Note_on_c, 0, 78, 0
4, 14561, Note_on_c, 0, 77, 46
4, 14574, Note_on_c, 0, 56, 0
4, 14575, Note_on_c, 0, 77, 0
4, 14586, Note_on_c, 0, 75, 53
4, 14605, Note_on_c, 0, 75, 0
4, 14614, Note_on_c, 0, 73, 48
4, 14638, Note_on_c, 0, 61, 35
4, 14639, Note_on_c, 0, 65, 26
4, 14640, Note_on_c, 0, 72, 60
4, 14646, Note_on_c, 0, 73, 0
4, 14667, Note_on_c, 0, 72, 0
4, 14674, Note_on_c, 0, 73, 31
4, 14684, Note_on_c, 0, 60, 1
4, 14684, Note_on_c, 0, 72, 31
4, 14692, Note_on_c, 0, 73, 0
4, 14693, Note_on_c, 0, 65, 0
4, 14699, Note_on_c, 0, 72, 0
4, 14706, Note_on_c, 0, 67, 51
4, 14719, Note_on_c, 0, 61, 0
4, 14732, Note_on_c, 0, 60, 0
4, 14756, Note_on_c, 0, 61, 40
4, 14758, Note_on_c, 0, 65, 31
4, 14768, Note_on_c, 0, 65, 0
4, 14776, Note_on_c, 0, 61, 0
4, 14791, Note_on_c, 0, 68, 57
4, 14797, Note_on_c, 0, 67, 0
4, 14818, Note_on_c, 0, 68, 0
4, 14825, Note_on_c, 0, 70, 64
4, 14862, Note_on_c, 0, 70, 0
4, 14866, Note_on_c, 0, 63, 42
4, 14866, Note_on_c, 0, 59, 44
4, 14868, Note_on_c, 0, 71, 61
4, 14869, Note_on_c, 0, 53, 33
4, 14918, Note_on_c, 0, 71, 0
4, 14923, Note_on_c, 0, 82, 72
4, 14949, Note_on_c, 0, 82, 0
4, 14961, Note_on_c, 0, 63, 0
4, 14964, Note_on_c, 0, 80, 74
4, 14965, Note_on_c, 0, 59, 0
4, 14989, Note_on_c, 0, 63, 36
4, 14991, Note_on_c, 0, 59, 38
4, 14991, Note_on_c, 0, 75, 59
4, 14992, Note_on_c, 0, 80, 0
4, 15005, Note_on_c, 0, 63, 0
4, 15013, Note_on_c, 0, 75, 0
4, 15021, Note_on_c, 0, 71, 47
4, 15045, Note_on_c, 0, 71, 0
4, 15048, Note_on_c, 0, 59, 0
4, 15052, Note_on_c, 0, 70, 32
4, 15057, Note_on_c, 0, 53, 0
4, 15079, Note_on_c, 0, 70, 0
4, 15116, Note_on_c, 0, 69, 67
4, 15137, Note_on_c, 0, 69, 0
4, 15151, Note_on_c, 0, 62, 40
4, 15172, Note_on_c, 0, 62, 0
4, 15182, Note_on_c, 0, 65, 60
4, 15205, Note_on_c, 0, 65, 0
4, 15216, Note_on_c, 0, 67, 77
4, 15239, Note_on_c, 0, 67, 0
4, 15255, Note_on_c, 0, 64, 64
4, 15271, Note_on_c, 0, 64, 0
4, 15293, Note_on_c, 0, 60, 68
4, 15294, Note_on_c, 0, 46, 62
4, 15294, Note_on_c, 0, 56, 57
4, 15345, Note_on_c, 0, 56, 0
4, 15345, Note_on_c, 0, 60, 0
4, 15351, Note_on_c, 0, 46, 0
4, 15362, Control_c, 0, 64, 127
4, 15365, Note_on_c, 0, 45, 57
4, 15366, Note_on_c, 0, 55, 54
4, 15372, Note_on_c, 0, 45, 0
4, 15376, Note_on_c, 0, 55, 0
4, 15445, Note_on_c, 0, 72, 96
4, 15446, Note_on_c, 0, 84, 92
4, 15446, Note_on_c, 0, 60, 76
4, 15446, Note_on_c, 0, 79, 83
4, 15446, Note_on_c, 0, 61, 65
4, 15446, Note_on_c, 0, 65, 80
4, 15447, Note_on_c, 0, 55, 76
4, 15449, Note_on_c, 0, 58, 48
4, 15465, Note_on_c, 0, 72, 0
4, 15468, Note_on_c, 0, 79, 0
4, 15471, Note_on_c, 0, 55, 0
4, 15472, Note_on_c, 0, 84, 0
4, 15473, Note_on_c, 0, 58, 0
4, 15473, Note_on_c, 0, 65, 0
4, 15478, Note_on_c, 0, 60, 0
4, 15479, Note_on_c, 0, 61, 0
4, 15483, Control_c, 0, 64, 0
4, 15488, Note_on_c, 0, 61, 76
4, 15488, Note_on_c, 0, 60, 81
4, 15490, Note_on_c, 0, 65, 77
4, 15490, Note_on_c, 0, 89, 85
4, 15491, Note_on_c, 0, 77, 83
4, 15491, Note_on_c, 0, 55, 79
4, 15491, Note_on_c, 0, 84, 89
4, 15493, Note_on_c, 0, 58, 52
4, 15502, Control_c, 0, 64, 127
4, 15512, Note_on_c, 0, 58, 0
4, 15513, Note_on_c, 0, 55, 0
4, 15513, Note_on_c, 0, 89, 0
4, 15513, Note_on_c, 0, 77, 0
4, 15515, Note_on_c, 0, 65, 0
4, 15515, Note_on_c, 0, 84, 0
4, 15525, Note_on_c, 0, 55, 64
4, 15525, Note_on_c, 0, 65, 67
4, 15526, Note_on_c, 0, 89, 58
4, 15528, Note_on_c, 0, 84, 62
4, 15529, Note_on_c, 0, 77, 50
4, 15536, Note_on_c, 0, 77, 0
4, 15539, Note_on_c, 0, 84, 0
4, 15541, Note_on_c, 0, 55, 0
4, 15543, Note_on_c, 0, 89, 0
4, 15544, Note_on_c, 0, 65, 0
4, 15544, Control_c, 0, 64, 0
4, 15550, Note_on_c, 0, 60, 0
4, 15550, Note_on_c, 0, 61, 0
4, 15563, Note_on_c, 0, 61, 60
4, 15564, Note_on_c, 0, 60, 68
4, 15564, Note_on_c, 0, 65, 71
4, 15566, Note_on_c, 0, 55, 66
4, 15566, Note_on_c, 0, 93, 89
4, 15566, Note_on_c, 0, 98, 87
4, 15566, Note_on_c, 0, 86, 82
4, 15591, Note_on_c, 0, 55, 0
4, 15591, Note_on_c, 0, 65, 0
4, 15591, Note_on_c, 0, 60, 0
4, 15593, Note_on_c, 0, 98, 0
4, 15594, Note_on_c, 0, 93, 0
4, 15596, Note_on_c, 0, 86, 0
4, 15598, Note_on_c, 0, 61, 0
4, 15609, Note_on_c, 0, 65, 59
4, 15610, Note_on_c, 0, 54, 62
4, 15610, Note_on_c, 0, 96, 71
4, 15611, Note_on_c, 0, 60, 54
4, 15612, Note_on_c, 0, 91, 64
4, 15613, Note_on_c, 0, 84, 52
4, 15657, Note_on_c, 0, 96, 0
4, 15658, Note_on_c, 0, 91, 0
4, 15665, Note_on_c, 0, 84, 0
4, 15669, Note_on_c, 0, 65, 0
4, 15674, Note_on_c, 0, 54, 0
4, 15678, Note_on_c, 0, 60, 0
4, 15684, Note_on_c, 0, 80, 46
4, 15684, Note_on_c, 0, 92, 50
4, 15684, Note_on_c, 0, 54, 45
4, 15686, Note_on_c, 0, 64, 55
4, 15687, Note_on_c, 0, 60, 27
4, 15701, Note_on_c, 0, 86, 12
4, 15706, Note_on_c, 0, 81, 25
4, 15709, Note_on_c, 0, 92, 0
4, 15710, Note_on_c, 0, 80, 0
4, 15711, Note_on_c, 0, 81, 0
4, 15715, Note_on_c, 0, 86, 0
4, 15716, Note_on_c, 0, 64, 0
4, 15728, Note_on_c, 0, 89, 47
4, 15731, Note_on_c, 0, 64, 48
4, 15731, Note_on_c, 0, 77, 45
4, 15769, Note_on_c, 0, 89, 0
4, 15773, Note_on_c, 0, 77, 0
4, 15779, Note_on_c, 0, 64, 0
4, 15788, Note_on_c, 0, 54, 0
4, 15793, Note_on_c, 0, 60, 0
4, 15801, Note_on_c, 0, 54, 34
4, 15806, Note_on_c, 0, 64, 35
4, 15808, Note_on_c, 0, 60, 29
4, 15820, Note_on_c, 0, 64, 0
4, 15821, Note_on_c, 0, 60, 0
4, 15824, Note_on_c, 0, 54, 0
4, 15841, Note_on_c, 0, 75, 65
4, 15842, Note_on_c, 0, 87, 67
4, 15842, Note_on_c, 0, 64, 45
4, 15844, Note_on_c, 0, 55, 51
4, 15846, Note_on_c, 0, 60, 37
4, 15859, Note_on_c, 0, 75, 0
4, 15862, Note_on_c, 0, 81, 11
4, 15865, Note_on_c, 0, 76, 25
4, 15866, Note_on_c, 0, 88, 25
4, 15868, Note_on_c, 0, 87, 0
4, 15889, Note_on_c, 0, 88, 0
4, 15899, Note_on_c, 0, 81, 0
4, 15900, Note_on_c, 0, 76, 0
4, 15903, Note_on_c, 0, 64, 0
4, 15905, Note_on_c, 0, 60, 0
4, 15905, Note_on_c, 0, 55, 0
4, 15917, Note_on_c, 0, 55, 35
4, 15919, Note_on_c, 0, 84, 57
4, 15919, Note_on_c, 0, 64, 27
4, 15921, Note_on_c, 0, 72, 47
4, 15923, Note_on_c, 0, 60, 35
4, 15960, Note_on_c, 0, 72, 0
4, 15961, Note_on_c, 0, 84, 0
4, 15967, Note_on_c, 0, 81, 38
4, 15968, Control_c, 0, 64, 127
4, 15994, Note_on_c, 0, 55, 0
4, 16013, Note_on_c, 0, 81, 0
4, 16014, Note_on_c, 0, 60, 0
4, 16032, Note_on_c, 0, 64, 0
4, 16038, Note_on_c, 0, 55, 38
4, 16042, Note_on_c, 0, 72, 26
4, 16047, Note_on_c, 0, 72, 0
4, 16047, Note_on_c, 0, 55, 0
4, 16059, Control_c, 0, 64, 0
4, 16073, Note_on_c, 0, 54, 55
4, 16077, Note_on_c, 0, 65, 34
4, 16080, Note_on_c, 0, 60, 29
4, 16094, Note_on_c, 0, 65, 0
4, 16139, Note_on_c, 0, 90, 62
4, 16151, Note_on_c, 0, 90, 0
4, 16152, Note_on_c, 0, 94, 60
4, 16162, Note_on_c, 0, 90, 39
4, 16165, Note_on_c, 0, 60, 0
4, 16174, Note_on_c, 0, 94, 0
4, 16178, Note_on_c, 0, 54, 0
4, 16181, Note_on_c, 0, 90, 0
4, 16184, Note_on_c, 0, 88, 41
4, 16195, Note_on_c, 0, 88, 0
4, 16199, Note_on_c, 0, 87, 62
4, 16204, Note_on_c, 0, 54, 28
4, 16207, Note_on_c, 0, 64, 24
4, 16207, Note_on_c, 0, 60, 29
4, 16210, Note_on_c, 0, 87, 0
4, 16217, Note_on_c, 0, 86, 44
4, 16234, Note_on_c, 0, 86, 0
4, 16239, Note_on_c, 0, 85, 49
4, 16251, Note_on_c, 0, 85, 0
4, 16255, Note_on_c, 0, 84, 44
4, 16268, Note_on_c, 0, 84, 0
4, 16269, Note_on_c, 0, 60, 0
4, 16271, Note_on_c, 0, 83, 48
4, 16272, Note_on_c, 0, 64, 0
4, 16286, Note_on_c, 0, 83, 0
4, 16312, Note_on_c, 0, 54, 0
4, 16332, Note_on_c, 0, 64, 53
4, 16334, Note_on_c, 0, 59, 53
4, 16335, Note_on_c, 0, 53, 36
4, 16386, Note_on_c, 0, 81, 56
4, 16388, Note_on_c, 0, 83, 62
4, 16394, Note_on_c, 0, 83, 0
4, 16398, Note_on_c, 0, 81, 0
4, 16406, Note_on_c, 0, 64, 0
4, 16406, Note_on_c, 0, 85, 59
4, 16421, Note_on_c, 0, 81, 55
4, 16427, Note_on_c, 0, 85, 0
4, 16435, Note_on_c, 0, 81, 0
4, 16436, Note_on_c, 0, 59, 0
4, 16437, Note_on_c, 0, 76, 50
4, 16440, Note_on_c, 0, 53, 0
4, 16447, Note_on_c, 0, 76, 0
4, 16460, Note_on_c, 0, 59, 36
4, 16461, Note_on_c, 0, 73, 45
4, 16461, Note_on_c, 0, 64, 29
4, 16476, Note_on_c, 0, 73, 0
4, 16479, Note_on_c, 0, 53, 3
4, 16480, Note_on_c, 0, 64, 0
4, 16492, Note_on_c, 0, 69, 48
4, 16503, Note_on_c, 0, 69, 0
4, 16511, Note_on_c, 0, 59, 0
4, 16521, Note_on_c, 0, 65, 57
4, 16534, Note_on_c, 0, 65, 0
4, 16551, Note_on_c, 0, 62, 58
4, 16568, Note_on_c, 0, 62, 0
4, 16574, Note_on_c, 0, 53, 0
4, 16581, Note_on_c, 0, 61, 42
4, 16584, Note_on_c, 0, 69, 50
4, 16607, Note_on_c, 0, 61, 0
4, 16608, Note_on_c, 0, 69, 0
4, 16648, Note_on_c, 0, 45, 55
4, 16648, Note_on_c, 0, 64, 51
4, 16649, Note_on_c, 0, 60, 73
4, 16689, Note_on_c, 0, 55, 62
4, 16709, Control_c, 0, 64, 127
4, 16725, Note_on_c, 0, 60, 0
4, 16734, Note_on_c, 0, 45, 0
4, 16742, Note_on_c, 0, 64, 0
4, 16746, Note_on_c, 0, 55, 0
4, 16761, Note_on_c, 0, 60, 70
4, 16762, Note_on_c, 0, 45, 48
4, 16766, Note_on_c, 0, 55, 44
4, 16777, Note_on_c, 0, 55, 0
4, 16777, Note_on_c, 0, 45, 0
4, 16784, Note_on_c, 0, 60, 0
4, 16788, Control_c, 0, 64, 0
4, 16798, Note_on_c, 0, 60, 38
4, 16800, Note_on_c, 0, 38, 51
4, 16800, Note_on_c, 0, 38, 0
4, 16802, Note_on_c, 0, 61, 60
4, 16803, Note_on_c, 0, 46, 37
4, 16811, Note_on_c, 0, 61, 0
4, 16812, Note_on_c, 0, 62, 59
4, 16816, Note_on_c, 0, 60, 0
4, 16833, Note_on_c, 0, 62, 0
4, 16839, Note_on_c, 0, 65, 75
4, 16859, Note_on_c, 0, 65, 0
4, 16874, Control_c, 0, 64, 127
4, 16875, Note_on_c, 0, 65, 74
4, 16896, Note_on_c, 0, 65, 0
4, 16903, Note_on_c, 0, 46, 0
4, 16912, Note_on_c, 0, 62, 77
4, 16918, Note_on_c, 0, 47, 51
4, 16929, Control_c, 0, 64, 0
4, 16952, Note_on_c, 0, 65, 68
4, 16954, Note_on_c, 0, 56, 43
4, 16954, Note_on_c, 0, 59, 54
4, 16966, Control_c, 0, 64, 127
4, 16973, Note_on_c, 0, 47, 0
4, 16985, Note_on_c, 0, 59, 0
4, 16995, Note_on_c, 0, 56, 0
4, 17008, Note_on_c, 0, 62, 0
4, 17011, Note_on_c, 0, 65, 0
4, 17011, Note_on_c, 0, 46, 26
4, 17027, Control_c, 0, 64, 0
4, 17028, Note_on_c, 0, 47, 42
4, 17032, Note_on_c, 0, 46, 0
4, 17032, Note_on_c, 0, 48, 57
4, 17035, Note_on_c, 0, 62, 58
4, 17035, Note_on_c, 0, 65, 54
4, 17036, Note_on_c, 0, 58, 51
4, 17036, Note_on_c, 0, 55, 60
4, 17039, Note_on_c, 0, 47, 0
4, 17075, Control_c, 0, 64, 127
4, 17117, Note_on_c, 0, 62, 0
4, 17128, Note_on_c, 0, 58, 0
4, 17128, Note_on_c, 0, 55, 0
4, 17132, Note_on_c, 0, 65, 0
4, 17151, Note_on_c, 0, 48, 0
4, 17158, Control_c, 0, 64, 0
4, 17161, Note_on_c, 0, 61, 42
4, 17162, Note_on_c, 0, 46, 38
4, 17162, Note_on_c, 0, 58, 38
4, 17162, Note_on_c, 0, 55, 44
4, 17173, Control_c, 0, 64, 127
4, 17176, Note_on_c, 0, 55, 0
4, 17182, Note_on_c, 0, 46, 0
4, 17184, Note_on_c, 0, 58, 0
4, 17194, Note_on_c, 0, 61, 0
4, 17272, Control_c, 0, 64, 0
4, 17280, Note_on_c, 0, 61, 49
4, 17281, Note_on_c, 0, 60, 49
4, 17281, Note_on_c, 0, 65, 60
4, 17282, Note_on_c, 0, 55, 54
4, 17285, Note_on_c, 0, 72, 87
4, 17286, Note_on_c, 0, 84, 88
4, 17312, Note_on_c, 0, 84, 0
4, 17312, Note_on_c, 0, 72, 0
4, 17326, Note_on_c, 0, 60, 0
4, 17326, Note_on_c, 0, 55, 0
4, 17327, Note_on_c, 0, 81, 34
4, 17330, Note_on_c, 0, 65, 0
4, 17334, Note_on_c, 0, 61, 0
4, 17337, Note_on_c, 0, 81, 0
4, 17348, Note_on_c, 0, 61, 51
4, 17350, Note_on_c, 0, 65, 66
4, 17350, Note_on_c, 0, 84, 87
4, 17350, Note_on_c, 0, 55, 64
4, 17351, Note_on_c, 0, 60, 68
4, 17351, Note_on_c, 0, 72, 84
4, 17399, Note_on_c, 0, 72, 0
4, 17400, Note_on_c, 0, 84, 0
4, 17401, Note_on_c, 0, 55, 0
4, 17401, Note_on_c, 0, 65, 0
4, 17404, Note_on_c, 0, 61, 0
4, 17406, Note_on_c, 0, 60, 0
4, 17412, Note_on_c, 0, 86, 79
4, 17412, Note_on_c, 0, 55, 52
4, 17412, Note_on_c, 0, 74, 65
4, 17412, Note_on_c, 0, 65, 65
4, 17413, Note_on_c, 0, 60, 37
4, 17413, Note_on_c, 0, 61, 48
4, 17447, Control_c, 0, 64, 127
4, 17479, Note_on_c, 0, 55, 0
4, 17483, Note_on_c, 0, 65, 0
4, 17484, Note_on_c, 0, 74, 0
4, 17486, Note_on_c, 0, 60, 0
4, 17492, Note_on_c, 0, 86, 0
4, 17499, Note_on_c, 0, 55, 27
4, 17504, Note_on_c, 0, 61, 0
4, 17506, Note_on_c, 0, 55, 0
4, 17531, Control_c, 0, 64, 0
4, 17534, Note_on_c, 0, 60, 62
4, 17534, Note_on_c, 0, 77, 52
4, 17535, Note_on_c, 0, 50, 51
4, 17535, Note_on_c, 0, 57, 42
4, 17535, Note_on_c, 0, 89, 64
4, 17537, Note_on_c, 0, 84, 49
4, 17566, Control_c, 0, 64, 127
4, 17594, Note_on_c, 0, 60, 0
4, 17595, Note_on_c, 0, 50, 0
4, 17595, Note_on_c, 0, 84, 0
4, 17596, Note_on_c, 0, 89, 0
4, 17596, Note_on_c, 0, 57, 0
4, 17598, Note_on_c, 0, 77, 0
4, 17613, Note_on_c, 0, 50, 42
4, 17613, Note_on_c, 0, 89, 53
4, 17614, Note_on_c, 0, 60, 48
4, 17615, Note_on_c, 0, 77, 38
4, 17616, Note_on_c, 0, 84, 58
4, 17616, Note_on_c, 0, 57, 44
4, 17628, Control_c, 0, 64, 0
4, 17656, Control_c, 0, 64, 127
4, 17660, Note_on_c, 0, 89, 0
4, 17662, Note_on_c, 0, 84, 0
4, 17685, Note_on_c, 0, 77, 0
4, 17699, Note_on_c, 0, 60, 0
4, 17700, Note_on_c, 0, 50, 0
4, 17706, Note_on_c, 0, 57, 0
4, 17730, Note_on_c, 0, 60, 44
4, 17740, Note_on_c, 0, 60, 0
4, 17754, Control_c, 0, 64, 0
4, 17769, Note_on_c, 0, 53, 31
4, 17769, Note_on_c, 0, 62, 37
4, 17771, Note_on_c, 0, 57, 44
4, 17772, Note_on_c, 0, 58, 48
4, 17809, Note_on_c, 0, 81, 74
4, 17825, Note_on_c, 0, 81, 0
4, 17846, Note_on_c, 0, 84, 91
4, 17860, Note_on_c, 0, 62, 0
4, 17864, Note_on_c, 0, 58, 0
4, 17868, Note_on_c, 0, 84, 0
4, 17884, Note_on_c, 0, 81, 64
4, 17888, Note_on_c, 0, 62, 42
4, 17890, Note_on_c, 0, 58, 33
4, 17909, Note_on_c, 0, 81, 0
4, 17918, Note_on_c, 0, 77, 65
4, 17941, Note_on_c, 0, 77, 0
4, 17942, Note_on_c, 0, 62, 0
4, 17951, Note_on_c, 0, 72, 32
4, 17958, Note_on_c, 0, 72, 0
4, 17978, Note_on_c, 0, 67, 57
4, 17982, Note_on_c, 0, 57, 0
4, 17987, Note_on_c, 0, 67, 0
4, 17988, Note_on_c, 0, 58, 0
4, 17991, Note_on_c, 0, 53, 0
4, 18002, Note_on_c, 0, 70, 44
4, 18004, Note_on_c, 0, 71, 83
4, 18006, Note_on_c, 0, 62, 35
4, 18008, Note_on_c, 0, 70, 0
4, 18010, Note_on_c, 0, 72, 60
4, 18016, Note_on_c, 0, 58, 14
4, 18019, Note_on_c, 0, 71, 0
4, 18026, Note_on_c, 0, 72, 0
4, 18043, Note_on_c, 0, 74, 79
4, 18057, Note_on_c, 0, 74, 0
4, 18083, Note_on_c, 0, 62, 0
4, 18084, Note_on_c, 0, 72, 85
4, 18111, Note_on_c, 0, 71, 71
4, 18113, Note_on_c, 0, 58, 0
4, 18120, Note_on_c, 0, 70, 55
4, 18121, Note_on_c, 0, 72, 0
4, 18129, Note_on_c, 0, 62, 29
4, 18129, Note_on_c, 0, 68, 50
4, 18130, Note_on_c, 0, 58, 25
4, 18132, Note_on_c, 0, 52, 31
4, 18134, Note_on_c, 0, 71, 0
4, 18137, Note_on_c, 0, 62, 0
4, 18142, Note_on_c, 0, 70, 0
4, 18143, Note_on_c, 0, 65, 51
4, 18146, Note_on_c, 0, 68, 0
4, 18147, Note_on_c, 0, 58, 0
4, 18156, Note_on_c, 0, 65, 0
4, 18167, Note_on_c, 0, 52, 0
4, 18174, Note_on_c, 0, 63, 65
4, 18192, Note_on_c, 0, 63, 0
4, 18229, Note_on_c, 0, 58, 59
4, 18241, Note_on_c, 0, 48, 31
4, 18245, Note_on_c, 0, 58, 0
4, 18258, Note_on_c, 0, 56, 48
4, 18258, Note_on_c, 0, 41, 39
4, 18260, Note_on_c, 0, 65, 37
4, 18284, Note_on_c, 0, 56, 0
4, 18286, Note_on_c, 0, 57, 56
4, 18300, Note_on_c, 0, 57, 0
4, 18316, Note_on_c, 0, 53, 56
4, 18353, Note_on_c, 0, 53, 0
4, 18372, Note_on_c, 0, 53, 51
4, 18408, Note_on_c, 0, 41, 0
4, 18415, Note_on_c, 0, 53, 0
4, 18419, Note_on_c, 0, 48, 0
4, 18436, Note_on_c, 0, 53, 50
4, 18457, Note_on_c, 0, 65, 0
4, 18460, Note_on_c, 0, 53, 0
4, 18470, Note_on_c, 0, 51, 25
4, 18478, Note_on_c, 0, 52, 32
4, 18484, Note_on_c, 0, 52, 0
4, 18488, Note_on_c, 0, 51, 0
4, 18494, Note_on_c, 0, 68, 69
4, 18495, Note_on_c, 0, 57, 68
4, 18497, Note_on_c, 0, 58, 35
4, 18514, Note_on_c, 0, 56, 2
4, 18517, Note_on_c, 0, 58, 0
4, 18531, Note_on_c, 0, 56, 0
4, 18532, Note_on_c, 0, 57, 0
4, 18534, Note_on_c, 0, 68, 0
4, 18547, Note_on_c, 0, 54, 26
4, 18552, Note_on_c, 0, 68, 57
4, 18554, Note_on_c, 0, 57, 46
4, 18556, Note_on_c, 0, 61, 45
4, 18556, Note_on_c, 0, 63, 38
4, 18557, Note_on_c, 0, 54, 0
4, 18557, Note_on_c, 0, 56, 40
4, 18590, Note_on_c, 0, 57, 0
4, 18592, Note_on_c, 0, 56, 0
4, 18593, Note_on_c, 0, 68, 0
4, 18593, Note_on_c, 0, 61, 0
4, 18596, Note_on_c, 0, 63, 0
4, 18596, Note_on_c, 0, 54, 42
4, 18618, Note_on_c, 0, 54, 0
4, 18619, Note_on_c, 0, 68, 44
4, 18620, Note_on_c, 0, 61, 36
4, 18620, Note_on_c, 0, 57, 48
4, 18620, Note_on_c, 0, 56, 35
4, 18621, Note_on_c, 0, 63, 34
4, 18646, Note_on_c, 0, 63, 0
4, 18648, Note_on_c, 0, 61, 0
4, 18649, Note_on_c, 0, 57, 0
4, 18653, Note_on_c, 0, 68, 0
4, 18659, Note_on_c, 0, 61, 35
4, 18660, Note_on_c, 0, 66, 50
4, 18661, Note_on_c, 0, 57, 28
4, 18661, Note_on_c, 0, 63, 33
4, 18666, Note_on_c, 0, 54, 27
4, 18685, Note_on_c, 0, 56, 0
4, 18704, Note_on_c, 0, 54, 0
4, 18707, Note_on_c, 0, 66, 0
4, 18710, Note_on_c, 0, 57, 0
4, 18713, Note_on_c, 0, 61, 0
4, 18714, Note_on_c, 0, 63, 0
4, 18725, Note_on_c, 0, 46, 35
4, 18726, Note_on_c, 0, 56, 35
4, 18727, Note_on_c, 0, 61, 39
4, 18728, Note_on_c, 0, 65, 44
4, 18745, Note_on_c, 0, 61, 0
4, 18791, Control_c, 0, 64, 127
4, 18806, Note_on_c, 0, 56, 0
4, 18821, Note_on_c, 0, 46, 0
4, 18843, Note_on_c, 0, 60, 53
4, 18844, Note_on_c, 0, 45, 46
4, 18845, Control_c, 0, 64, 0
4, 18847, Note_on_c, 0, 55, 40
4, 18876, Control_c, 0, 64, 127
4, 18881, Note_on_c, 0, 65, 0
4, 18902, Note_on_c, 0, 45, 0
4, 18912, Note_on_c, 0, 60, 0
4, 18920, Note_on_c, 0, 55, 0
4, 18961, Control_c, 0, 64, 0
4, 18965, Note_on_c, 0, 43, 37
4, 18965, Note_on_c, 0, 50, 31
4, 18966, Note_on_c, 0, 58, 39
4, 18968, Note_on_c, 0, 53, 26
4, 18975, Note_on_c, 0, 53, 0
4, 18983, Note_on_c, 0, 58, 0
4, 19005, Note_on_c, 0, 60, 62
4, 19026, Note_on_c, 0, 60, 0
4, 19041, Note_on_c, 0, 61, 87
4, 19054, Note_on_c, 0, 43, 0
4, 19064, Note_on_c, 0, 50, 0
4, 19073, Note_on_c, 0, 61, 0
4, 19079, Note_on_c, 0, 62, 57
4, 19112, Note_on_c, 0, 62, 0
4, 19123, Note_on_c, 0, 65, 56
4, 19142, Note_on_c, 0, 65, 0
4, 19160, Note_on_c, 0, 67, 65
4, 19178, Note_on_c, 0, 67, 0
4, 19202, Note_on_c, 0, 67, 40
4, 19212, Note_on_c, 0, 68, 52
4, 19216, Note_on_c, 0, 67, 0
4, 19223, Note_on_c, 0, 68, 0
4, 19228, Note_on_c, 0, 69, 31
4, 19234, Note_on_c, 0, 69, 0
4, 19250, Note_on_c, 0, 72, 60
4, 19269, Note_on_c, 0, 72, 0
4, 19284, Note_on_c, 0, 74, 74
4, 19304, Note_on_c, 0, 74, 0
4, 19326, Note_on_c, 0, 74, 85
4, 19333, Note_on_c, 0, 81, 47
4, 19339, Note_on_c, 0, 75, 13
4, 19348, Note_on_c, 0, 74, 0
4, 19365, Note_on_c, 0, 74, 34
4, 19368, Note_on_c, 0, 81, 0
4, 19369, Note_on_c, 0, 75, 0
4, 19380, Note_on_c, 0, 72, 50
4, 19381, Note_on_c, 0, 74, 0
4, 19388, Note_on_c, 0, 72, 0
4, 19393, Note_on_c, 0, 74, 51
4, 19396, Note_on_c, 0, 81, 70
4, 19417, Note_on_c, 0, 81, 0
4, 19425, Note_on_c, 0, 74, 0
4, 19435, Note_on_c, 0, 69, 46
4, 19442, Note_on_c, 0, 69, 0
4, 19449, Note_on_c, 0, 54, 25
4, 19451, Note_on_c, 0, 60, 36
4, 19453, Note_on_c, 0, 64, 13
4, 19455, Note_on_c, 0, 72, 49
4, 19535, Note_on_c, 0, 64, 0
4, 19549, Note_on_c, 0, 60, 0
4, 19573, Note_on_c, 0, 72, 0
4, 19573, Note_on_c, 0, 62, 31
4, 19576, Note_on_c, 0, 60, 24
4, 19633, Note_on_c, 0, 60, 0
4, 19654, Note_on_c, 0, 62, 0
4, 19675, Note_on_c, 0, 54, 0
4, 19684, Note_on_c, 0, 62, 40
4, 19687, Note_on_c, 0, 58, 43
4, 19688, Note_on_c, 0, 70, 82
4, 19689, Note_on_c, 0, 74, 74
4, 19726, Note_on_c, 0, 74, 0
4, 19727, Note_on_c, 0, 65, 36
4, 19730, Note_on_c, 0, 70, 0
4, 19744, Note_on_c, 0, 65, 0
4, 19752, Note_on_c, 0, 58, 0
4, 19764, Note_on_c, 0, 72, 68
4, 19764, Note_on_c, 0, 67, 80
4, 19774, Note_on_c, 0, 62, 0
4, 19794, Note_on_c, 0, 67, 0
4, 19797, Note_on_c, 0, 68, 64
4, 19800, Note_on_c, 0, 67, 19
4, 19806, Note_on_c, 0, 67, 0
4, 19818, Note_on_c, 0, 72, 0
4, 19822, Note_on_c, 0, 68, 0
4, 19826, Note_on_c, 0, 69, 67
4, 19827, Note_on_c, 0, 72, 30
4, 19846, Note_on_c, 0, 72, 0
4, 19853, Note_on_c, 0, 69, 0
4, 19892, Note_on_c, 0, 60, 8
4, 19914, Note_on_c, 0, 60, 0
4, 19937, Note_on_c, 0, 65, 58
4, 19937, Note_on_c, 0, 58, 64
4, 19940, Note_on_c, 0, 46, 25
4, 19964, Note_on_c, 0, 46, 0
4, 19967, Note_on_c, 0, 58, 0
4, 19970, Note_on_c, 0, 65, 0
4, 19970, Note_on_c, 0, 57, 38
4, 19981, Note_on_c, 0, 57, 0
4, 20034, Note_on_c, 0, 62, 71
4, 20050, Note_on_c, 0, 62, 0
4, 20055, Note_on_c, 0, 48, 51
4, 20057, Note_on_c, 0, 58, 29
4, 20064, Note_on_c, 0, 60, 49
4, 20066, Note_on_c, 0, 58, 0
4, 20081, Note_on_c, 0, 60, 0
4, 20084, Note_on_c, 0, 62, 36
4, 20101, Note_on_c, 0, 62, 0
4, 20106, Note_on_c, 0, 48, 0
4, 20113, Note_on_c, 0, 53, 47
4, 20160, Note_on_c, 0, 48, 29
4, 20169, Note_on_c, 0, 48, 0
4, 20172, Note_on_c, 0, 53, 0
4, 20182, Note_on_c, 0, 41, 31
4, 20186, Note_on_c, 0, 51, 18
4, 20186, Note_on_c, 0, 56, 48
4, 20197, Note_on_c, 0, 56, 0
4, 20197, Note_on_c, 0, 51, 0
4, 20206, Note_on_c, 0, 58, 50
4, 20222, Note_on_c, 0, 58, 0
4, 20224, Note_on_c, 0, 56, 25
4, 20235, Note_on_c, 0, 56, 0
4, 20236, Note_on_c, 0, 55, 44
4, 20243, Note_on_c, 0, 55, 0
4, 20258, Note_on_c, 0, 58, 46
4, 20264, Note_on_c, 0, 58, 0
4, 20274, Note_on_c, 0, 60, 44
4, 20288, Note_on_c, 0, 60, 0
4, 20292, Note_on_c, 0, 62, 38
4, 20292, Note_on_c, 0, 51, 28
4, 20302, Note_on_c, 0, 63, 55
4, 20303, Note_on_c, 0, 62, 0
4, 20307, Note_on_c, 0, 41, 0
4, 20312, Note_on_c, 0, 63, 0
4, 20313, Note_on_c, 0, 51, 0
4, 20319, Note_on_c, 0, 65, 57
4, 20335, Note_on_c, 0, 65, 0
4, 20336, Note_on_c, 0, 67, 54
4, 20344, Note_on_c, 0, 68, 35
4, 20352, Note_on_c, 0, 67, 0
4, 20356, Note_on_c, 0, 70, 43
4, 20357, Note_on_c, 0, 68, 0
4, 20363, Note_on_c, 0, 70, 0
4, 20372, Note_on_c, 0, 72, 46
4, 20383, Note_on_c, 0, 72, 0
4, 20387, Note_on_c, 0, 73, 34
4, 20401, Note_on_c, 0, 73, 0
4, 20405, Note_on_c, 0, 75, 26
4, 20410, Note_on_c, 0, 75, 0
4, 20416, Note_on_c, 0, 77, 47
4, 20435, Note_on_c, 0, 79, 57
4, 20436, Note_on_c, 0, 77, 0
4, 20447, Note_on_c, 0, 79, 0
4, 20458, Note_on_c, 0, 80, 64
4, 20470, Note_on_c, 0, 80, 0
4, 20481, Note_on_c, 0, 82, 63
4, 20495, Note_on_c, 0, 82, 0
4, 20505, Note_on_c, 0, 84, 76
4, 20522, Note_on_c, 0, 84, 0
4, 20528, Note_on_c, 0, 79, 70
4, 20532, Note_on_c, 0, 65, 29
4, 20532, Note_on_c, 0, 61, 31
4, 20534, Note_on_c, 0, 56, 25
4, 20540, Note_on_c, 0, 60, 24
4, 20544, Note_on_c, 0, 79, 0
4, 20559, Note_on_c, 0, 82, 68
4, 20578, Note_on_c, 0, 82, 0
4, 20586, Note_on_c, 0, 80, 57
4, 20599, Note_on_c, 0, 65, 0
4, 20600, Note_on_c, 0, 60, 0
4, 20604, Note_on_c, 0, 80, 0
4, 20604, Note_on_c, 0, 61, 0
4, 20611, Note_on_c, 0, 77, 55
4, 20616, Note_on_c, 0, 56, 0
4, 20627, Note_on_c, 0, 77, 0
4, 20638, Note_on_c, 0, 75, 49
4, 20644, Note_on_c, 0, 64, 27
4, 20646, Note_on_c, 0, 59, 37
4, 20648, Note_on_c, 0, 53, 28
4, 20659, Note_on_c, 0, 75, 0
4, 20669, Note_on_c, 0, 82, 64
4, 20684, Note_on_c, 0, 82, 0
4, 20684, Note_on_c, 0, 64, 0
4, 20696, Note_on_c, 0, 80, 47
4, 20705, Note_on_c, 0, 53, 0
4, 20715, Note_on_c, 0, 75, 56
4, 20719, Note_on_c, 0, 80, 0
4, 20723, Note_on_c, 0, 59, 0
4, 20730, Note_on_c, 0, 75, 0
4, 20736, Note_on_c, 0, 71, 55
4, 20752, Note_on_c, 0, 71, 0
4, 20754, Note_on_c, 0, 70, 44
4, 20758, Note_on_c, 0, 59, 40
4, 20759, Note_on_c, 0, 63, 34
4, 20771, Note_on_c, 0, 70, 0
4, 20772, Note_on_c, 0, 63, 0
4, 20773, Note_on_c, 0, 53, 11
4, 20775, Note_on_c, 0, 69, 56
4, 20786, Note_on_c, 0, 59, 0
4, 20791, Note_on_c, 0, 69, 0
4, 20797, Note_on_c, 0, 68, 42
4, 20801, Note_on_c, 0, 53, 0
4, 20812, Note_on_c, 0, 68, 0
4, 20820, Note_on_c, 0, 67, 30
4, 20828, Note_on_c, 0, 67, 0
4, 20829, Note_on_c, 0, 65, 54
4, 20843, Note_on_c, 0, 65, 0
4, 20849, Note_on_c, 0, 66, 47
4, 20865, Note_on_c, 0, 66, 0
4, 20888, Note_on_c, 0, 62, 41
4, 20892, Note_on_c, 0, 58, 27
4, 20895, Note_on_c, 0, 48, 28
4, 20896, Note_on_c, 0, 62, 0
4, 20908, Note_on_c, 0, 65, 76
4, 20930, Note_on_c, 0, 65, 0
4, 20939, Note_on_c, 0, 62, 50
4, 20944, Note_on_c, 0, 58, 0
4, 20946, Note_on_c, 0, 62, 0
4, 20959, Note_on_c, 0, 64, 73
4, 20978, Note_on_c, 0, 64, 0
4, 20984, Note_on_c, 0, 48, 0
4, 21008, Note_on_c, 0, 58, 45
4, 21008, Note_on_c, 0, 48, 43
4, 21012, Note_on_c, 0, 62, 74
4, 21021, Note_on_c, 0, 58, 0
4, 21030, Note_on_c, 0, 48, 0
4, 21036, Note_on_c, 0, 62, 0
4, 21066, Note_on_c, 0, 61, 67
4, 21066, Note_on_c, 0, 46, 57
4, 21105, Note_on_c, 0, 46, 0
4, 21107, Note_on_c, 0, 61, 0
4, 21123, Note_on_c, 0, 45, 50
4, 21125, Note_on_c, 0, 60, 60
4, 21136, Control_c, 0, 64, 127
4, 21138, Note_on_c, 0, 45, 0
4, 21153, Note_on_c, 0, 60, 0
4, 21209, Note_on_c, 0, 61, 57
4, 21225, Note_on_c, 0, 61, 0
4, 21225, Control_c, 0, 64, 0
4, 21227, Note_on_c, 0, 63, 50
4, 21233, Note_on_c, 0, 63, 0
4, 21238, Note_on_c, 0, 64, 59
4, 21248, Note_on_c, 0, 61, 30
4, 21250, Note_on_c, 0, 55, 34
4, 21251, Note_on_c, 0, 64, 0
4, 21251, Note_on_c, 0, 60, 40
4, 21256, Note_on_c, 0, 66, 50
4, 21262, Note_on_c, 0, 66, 0
4, 21271, Note_on_c, 0, 67, 64
4, 21285, Note_on_c, 0, 67, 0
4, 21289, Note_on_c, 0, 69, 44
4, 21304, Note_on_c, 0, 69, 0
4, 21305, Note_on_c, 0, 70, 54
4, 21313, Note_on_c, 0, 70, 0
4, 21318, Note_on_c, 0, 71, 32
4, 21328, Note_on_c, 0, 71, 0
4, 21339, Note_on_c, 0, 61, 0
4, 21347, Note_on_c, 0, 60, 0
4, 21348, Note_on_c, 0, 55, 0
4, 21374, Note_on_c, 0, 64, 60
4, 21378, Note_on_c, 0, 54, 34
4, 21380, Note_on_c, 0, 60, 35
4, 21413, Note_on_c, 0, 72, 82
4, 21429, Note_on_c, 0, 72, 0
4, 21446, Note_on_c, 0, 64, 0
4, 21447, Note_on_c, 0, 72, 67
4, 21468, Note_on_c, 0, 72, 0
4, 21468, Note_on_c, 0, 60, 0
4, 21468, Note_on_c, 0, 54, 0
4, 21488, Note_on_c, 0, 72, 71
4, 21489, Note_on_c, 0, 54, 40
4, 21491, Note_on_c, 0, 64, 34
4, 21491, Note_on_c, 0, 60, 41
4, 21492, Note_on_c, 0, 73, 50
4, 21502, Note_on_c, 0, 73, 0
4, 21504, Note_on_c, 0, 72, 0
4, 21504, Note_on_c, 0, 74, 48
4, 21525, Note_on_c, 0, 74, 0
4, 21529, Note_on_c, 0, 77, 65
4, 21533, Note_on_c, 0, 64, 0
4, 21540, Note_on_c, 0, 54, 0
4, 21548, Note_on_c, 0, 77, 0
4, 21551, Note_on_c, 0, 60, 0
4, 21561, Note_on_c, 0, 54, 51
4, 21564, Note_on_c, 0, 79, 69
4, 21566, Note_on_c, 0, 64, 39
4, 21566, Note_on_c, 0, 60, 32
4, 21582, Note_on_c, 0, 64, 0
4, 21582, Note_on_c, 0, 79, 0
4, 21586, Note_on_c, 0, 54, 0
4, 21586, Note_on_c, 0, 60, 0
4, 21605, Note_on_c, 0, 55, 58
4, 21606, Note_on_c, 0, 64, 50
4, 21606, Note_on_c, 0, 57, 56
4, 21606, Note_on_c, 0, 72, 80
4, 21606, Note_on_c, 0, 60, 46
4, 21607, Note_on_c, 0, 84, 77
4, 21644, Control_c, 0, 64, 127
4, 21662, Note_on_c, 0, 60, 0
4, 21662, Note_on_c, 0, 64, 0
4, 21663, Note_on_c, 0, 55, 0
4, 21664, Note_on_c, 0, 84, 0
4, 21665, Note_on_c, 0, 57, 0
4, 21666, Note_on_c, 0, 72, 0
4, 21679, Note_on_c, 0, 64, 48
4, 21680, Note_on_c, 0, 57, 48
4, 21680, Note_on_c, 0, 55, 47
4, 21681, Note_on_c, 0, 84, 70
4, 21681, Note_on_c, 0, 60, 51
4, 21683, Note_on_c, 0, 72, 64
4, 21698, Note_on_c, 0, 55, 0
4, 21700, Note_on_c, 0, 84, 0
4, 21702, Note_on_c, 0, 72, 0
4, 21703, Note_on_c, 0, 64, 0
4, 21703, Note_on_c, 0, 60, 0
4, 21707, Note_on_c, 0, 57, 0
4, 21724, Control_c, 0, 64, 0
4, 21726, Note_on_c, 0, 55, 38
4, 21726, Note_on_c, 0, 64, 34
4, 21727, Note_on_c, 0, 82, 44
4, 21727, Note_on_c, 0, 57, 35
4, 21728, Note_on_c, 0, 60, 42
4, 21730, Note_on_c, 0, 70, 31
4, 21736, Note_on_c, 0, 70, 0
4, 21736, Note_on_c, 0, 64, 0
4, 21737, Note_on_c, 0, 55, 0
4, 21740, Note_on_c, 0, 82, 0
4, 21741, Note_on_c, 0, 60, 0
4, 21748, Note_on_c, 0, 57, 0
4, 21759, Control_c, 0, 64, 127
4, 21772, Control_c, 0, 64, 0
4, 21796, Control_c, 0, 64, 127
4, 21801, Note_on_c, 0, 55, 57
4, 21803, Note_on_c, 0, 82, 67
4, 21805, Note_on_c, 0, 70, 67
4, 21805, Note_on_c, 0, 64, 39
4, 21809, Note_on_c, 0, 60, 36
4, 21815, Note_on_c, 0, 64, 0
4, 21817, Note_on_c, 0, 70, 0
4, 21817, Note_on_c, 0, 82, 0
4, 21819, Note_on_c, 0, 55, 0
4, 21821, Note_on_c, 0, 60, 0
4, 21839, Control_c, 0, 64, 0
4, 21846, Note_on_c, 0, 80, 52
4, 21846, Note_on_c, 0, 68, 54
4, 21849, Note_on_c, 0, 54, 57
4, 21850, Note_on_c, 0, 74, 53
4, 21850, Note_on_c, 0, 64, 51
4, 21851, Note_on_c, 0, 60, 43
4, 21854, Note_on_c, 0, 81, 42
4, 21856, Note_on_c, 0, 68, 0
4, 21856, Note_on_c, 0, 80, 0
4, 21862, Control_c, 0, 64, 127
4, 21873, Note_on_c, 0, 74, 0
4, 21875, Note_on_c, 0, 64, 0
4, 21882, Note_on_c, 0, 81, 0
4, 21885, Note_on_c, 0, 54, 0
4, 21902, Note_on_c, 0, 60, 0
4, 21926, Note_on_c, 0, 54, 74
4, 21926, Note_on_c, 0, 84, 82
4, 21926, Note_on_c, 0, 79, 74
4, 21926, Note_on_c, 0, 72, 81
4, 21927, Note_on_c, 0, 60, 75
4, 21927, Note_on_c, 0, 64, 72
4, 21938, Note_on_c, 0, 72, 0
4, 21942, Note_on_c, 0, 64, 0
4, 21944, Note_on_c, 0, 79, 0
4, 21947, Note_on_c, 0, 84, 0
4, 21950, Note_on_c, 0, 54, 0
4, 21951, Note_on_c, 0, 60, 0
4, 21965, Control_c, 0, 64, 0
4, 21970, Note_on_c, 0, 77, 88
4, 21970, Note_on_c, 0, 54, 81
4, 21970, Note_on_c, 0, 89, 85
4, 21970, Note_on_c, 0, 84, 87
4, 21971, Note_on_c, 0, 60, 79
4, 21971, Note_on_c, 0, 64, 80
4, 21981, Control_c, 0, 64, 127
4, 21997, Note_on_c, 0, 77, 0
4, 21999, Note_on_c, 0, 84, 0
4, 22003, Note_on_c, 0, 89, 0
4, 22012, Note_on_c, 0, 64, 0
4, 22016, Note_on_c, 0, 54, 0
4, 22019, Note_on_c, 0, 60, 0
4, 22046, Note_on_c, 0, 54, 69
4, 22048, Note_on_c, 0, 64, 63
4, 22049, Note_on_c, 0, 60, 60
4, 22050, Note_on_c, 0, 93, 74
4, 22056, Note_on_c, 0, 93, 0
4, 22057, Note_on_c, 0, 60, 0
4, 22062, Note_on_c, 0, 64, 0
4, 22074, Note_on_c, 0, 54, 0
4, 22089, Control_c, 0, 64, 0
4, 22093, Note_on_c, 0, 59, 79
4, 22093, Note_on_c, 0, 64, 81
4, 22093, Note_on_c, 0, 53, 83
4, 22095, Note_on_c, 0, 97, 83
4, 22096, Note_on_c, 0, 85, 84
4, 22116, Control_c, 0, 64, 127
4, 22121, Note_on_c, 0, 97, 0
4, 22122, Note_on_c, 0, 85, 0
4, 22123, Note_on_c, 0, 64, 0
4, 22125, Note_on_c, 0, 53, 0
4, 22130, Note_on_c, 0, 59, 0
4, 22135, Note_on_c, 0, 59, 34
4, 22135, Note_on_c, 0, 85, 55
4, 22135, Note_on_c, 0, 64, 62
4, 22136, Note_on_c, 0, 53, 60
4, 22136, Note_on_c, 0, 97, 53
4, 22147, Note_on_c, 0, 85, 0
4, 22148, Note_on_c, 0, 97, 0
4, 22150, Note_on_c, 0, 64, 0
4, 22153, Note_on_c, 0, 53, 0
4, 22159, Note_on_c, 0, 59, 0
4, 22159, Control_c, 0, 64, 0
4, 22170, Note_on_c, 0, 59, 71
4, 22170, Note_on_c, 0, 53, 76
4, 22171, Note_on_c, 0, 64, 74
4, 22172, Note_on_c, 0, 88, 79
4, 22172, Note_on_c, 0, 100, 82
4, 22177, Note_on_c, 0, 94, 26
4, 22182, Control_c, 0, 64, 127
4, 22183, Note_on_c, 0, 94, 0
4, 22196, Note_on_c, 0, 100, 0
4, 22199, Note_on_c, 0, 53, 0
4, 22199, Note_on_c, 0, 88, 0
4, 22200, Note_on_c, 0, 64, 0
4, 22205, Note_on_c, 0, 59, 0
4, 22211, Note_on_c, 0, 59, 30
4, 22212, Note_on_c, 0, 53, 62
4, 22213, Note_on_c, 0, 64, 62
4, 22214, Note_on_c, 0, 100, 71
4, 22215, Note_on_c, 0, 88, 63
4, 22219, Note_on_c, 0, 94, 27
4, 22224, Note_on_c, 0, 94, 0
4, 22228, Note_on_c, 0, 64, 0
4, 22231, Note_on_c, 0, 100, 0
4, 22231, Note_on_c, 0, 88, 0
4, 22231, Note_on_c, 0, 53, 0
4, 22234, Note_on_c, 0, 59, 0
4, 22238, Control_c, 0, 64, 0
4, 22247, Note_on_c, 0, 59, 62
4, 22248, Note_on_c, 0, 53, 63
4, 22249, Note_on_c, 0, 64, 65
4, 22251, Control_c, 0, 64, 127
4, 22251, Note_on_c, 0, 98, 69
4, 22253, Note_on_c, 0, 86, 60
4, 22268, Note_on_c, 0, 86, 0
4, 22268, Note_on_c, 0, 98, 0
4, 22269, Note_on_c, 0, 64, 0
4, 22269, Note_on_c, 0, 53, 0
4, 22276, Note_on_c, 0, 59, 0
4, 22286, Note_on_c, 0, 86, 68
4, 22287, Note_on_c, 0, 98, 44
4, 22288, Note_on_c, 0, 59, 68
4, 22288, Note_on_c, 0, 53, 55
4, 22289, Note_on_c, 0, 64, 52
4, 22294, Note_on_c, 0, 98, 0
4, 22298, Note_on_c, 0, 86, 0
4, 22298, Note_on_c, 0, 64, 0
4, 22304, Note_on_c, 0, 53, 0
4, 22308, Note_on_c, 0, 59, 0
4, 22318, Control_c, 0, 64, 0
4, 22327, Note_on_c, 0, 59, 60
4, 22327, Note_on_c, 0, 53, 60
4, 22328, Note_on_c, 0, 64, 46
4, 22331, Note_on_c, 0, 80, 32
4, 22333, Note_on_c, 0, 85, 21
4, 22335, Note_on_c, 0, 87, 25
4, 22337, Note_on_c, 0, 91, 38
4, 22343, Note_on_c, 0, 90, 5
4, 22344, Note_on_c, 0, 91, 0
4, 22347, Note_on_c, 0, 87, 0
4, 22347, Control_c, 0, 64, 127
4, 22351, Note_on_c, 0, 80, 0
4, 22352, Note_on_c, 0, 85, 0
4, 22354, Note_on_c, 0, 90, 0
4, 22354, Note_on_c, 0, 81, 38
4, 22359, Note_on_c, 0, 64, 0
4, 22359, Note_on_c, 0, 53, 0
4, 22362, Note_on_c, 0, 59, 0
4, 22366, Note_on_c, 0, 81, 0
4, 22376, Control_c, 0, 64, 0
4, 22400, Note_on_c, 0, 55, 53
4, 22401, Note_on_c, 0, 77, 56
4, 22401, Note_on_c, 0, 60, 51
4, 22402, Note_on_c, 0, 64, 41
4, 22403, Note_on_c, 0, 89, 47
4, 22434, Control_c, 0, 64, 127
4, 22442, Note_on_c, 0, 89, 0
4, 22458, Note_on_c, 0, 77, 0
4, 22464, Note_on_c, 0, 55, 0
4, 22465, Note_on_c, 0, 64, 0
4, 22490, Note_on_c, 0, 60, 0
4, 22519, Note_on_c, 0, 55, 64
4, 22527, Note_on_c, 0, 55, 0
4, 22556, Control_c, 0, 64, 0
4, 22560, Note_on_c, 0, 70, 60
4, 22562, Note_on_c, 0, 62, 61
4, 22563, Note_on_c, 0, 65, 62
4, 22565, Note_on_c, 0, 55, 62
4, 22565, Note_on_c, 0, 46, 42
4, 22583, Control_c, 0, 64, 127
4, 22611, Note_on_c, 0, 65, 0
4, 22613, Note_on_c, 0, 70, 0
4, 22617, Note_on_c, 0, 46, 0
4, 22622, Note_on_c, 0, 62, 0
4, 22640, Note_on_c, 0, 46, 43
4, 22656, Note_on_c, 0, 55, 0
4, 22657, Note_on_c, 0, 46, 0
4, 22681, Control_c, 0, 64, 0
4, 22684, Note_on_c, 0, 47, 49
4, 22692, Note_on_c, 0, 62, 43
4, 22698, Note_on_c, 0, 47, 0
4, 22714, Note_on_c, 0, 62, 0
4, 22720, Note_on_c, 0, 65, 87
4, 22722, Note_on_c, 0, 50, 74
4, 22723, Note_on_c, 0, 48, 78
4, 22728, Note_on_c, 0, 64, 38
4, 22738, Note_on_c, 0, 64, 0
4, 22747, Control_c, 0, 64, 127
4, 22760, Note_on_c, 0, 48, 0
4, 22761, Note_on_c, 0, 50, 0
4, 22783, Note_on_c, 0, 65, 0
4, 22784, Control_c, 0, 64, 0
4, 22790, Note_on_c, 0, 46, 38
4, 22796, Note_on_c, 0, 45, 27
4, 22801, Note_on_c, 0, 65, 55
4, 22802, Note_on_c, 0, 45, 0
4, 22803, Note_on_c, 0, 58, 51
4, 22804, Note_on_c, 0, 46, 0
4, 22804, Note_on_c, 0, 62, 58
4, 22806, Note_on_c, 0, 47, 31
4, 22806, Note_on_c, 0, 48, 44
4, 22806, Note_on_c, 0, 53, 38
4, 22812, Note_on_c, 0, 47, 0
4, 22839, Control_c, 0, 64, 127
4, 22872, Note_on_c, 0, 53, 0
4, 22873, Note_on_c, 0, 62, 0
4, 22879, Note_on_c, 0, 36, 42
4, 22882, Note_on_c, 0, 58, 0
4, 22886, Note_on_c, 0, 36, 0
4, 22890, Note_on_c, 0, 65, 0
4, 22903, Note_on_c, 0, 48, 0
4, 22909, Control_c, 0, 64, 0
4, 22916, Note_on_c, 0, 62, 61
4, 22919, Control_c, 0, 64, 127
4, 22920, Note_on_c, 0, 58, 36
4, 22921, Note_on_c, 0, 53, 31
4, 22938, Note_on_c, 0, 53, 0
4, 22951, Note_on_c, 0, 62, 0
4, 22954, Note_on_c, 0, 58, 0
4, 22956, Note_on_c, 0, 65, 54
4, 22984, Note_on_c, 0, 65, 0
4, 23004, Note_on_c, 0, 52, 38
4, 23024, Control_c, 0, 64, 0
4, 23026, Note_on_c, 0, 52, 0
4, 23038, Note_on_c, 0, 57, 46
4, 23038, Note_on_c, 0, 65, 50
4, 23041, Note_on_c, 0, 60, 51
4, 23045, Note_on_c, 0, 45, 27
4, 23050, Control_c, 0, 64, 127
4, 23053, Note_on_c, 0, 57, 0
4, 23054, Note_on_c, 0, 45, 0
4, 23068, Note_on_c, 0, 60, 0
4, 23072, Note_on_c, 0, 65, 0
4, 23088, Note_on_c, 0, 60, 56
4, 23110, Note_on_c, 0, 60, 0
4, 23110, Control_c, 0, 64, 0
4, 23122, Note_on_c, 0, 61, 75
4, 23126, Control_c, 0, 64, 127
4, 23137, Note_on_c, 0, 61, 0
4, 23162, Note_on_c, 0, 65, 76
4, 23179, Control_c, 0, 64, 0
4, 23185, Note_on_c, 0, 65, 0
4, 23198, Note_on_c, 0, 70, 69
4, 23198, Note_on_c, 0, 65, 54
4, 23199, Note_on_c, 0, 61, 51
4, 23200, Note_on_c, 0, 60, 57
4, 23201, Note_on_c, 0, 55, 58
4, 23216, Note_on_c, 0, 70, 0
4, 23236, Note_on_c, 0, 72, 64
4, 23240, Control_c, 0, 64, 127
4, 23256, Note_on_c, 0, 65, 0
4, 23257, Note_on_c, 0, 60, 0
4, 23258, Note_on_c, 0, 72, 0
4, 23259, Note_on_c, 0, 55, 0
4, 23266, Note_on_c, 0, 61, 0
4, 23278, Note_on_c, 0, 77, 88
4, 23288, Control_c, 0, 64, 0
4, 23307, Note_on_c, 0, 77, 0
4, 23313, Control_c, 0, 64, 127
4, 23315, Note_on_c, 0, 82, 71
4, 23334, Control_c, 0, 64, 0
4, 23340, Note_on_c, 0, 82, 0
4, 23352, Note_on_c, 0, 54, 63
4, 23354, Note_on_c, 0, 65, 58
4, 23354, Note_on_c, 0, 60, 59
4, 23355, Note_on_c, 0, 84, 75
4, 23377, Note_on_c, 0, 84, 0
4, 23398, Note_on_c, 0, 86, 81
4, 23418, Note_on_c, 0, 86, 0
4, 23427, Note_on_c, 0, 54, 0
4, 23428, Note_on_c, 0, 65, 0
4, 23437, Note_on_c, 0, 86, 75
4, 23438, Note_on_c, 0, 80, 73
4, 23438, Note_on_c, 0, 65, 36
4, 23439, Note_on_c, 0, 54, 61
4, 23458, Note_on_c, 0, 80, 0
4, 23461, Note_on_c, 0, 81, 30
4, 23473, Note_on_c, 0, 81, 0
4, 23473, Note_on_c, 0, 86, 0
4, 23474, Note_on_c, 0, 60, 0
4, 23475, Note_on_c, 0, 65, 0
4, 23479, Note_on_c, 0, 74, 53
4, 23496, Note_on_c, 0, 54, 0
4, 23502, Note_on_c, 0, 74, 0
4, 23508, Note_on_c, 0, 62, 40
4, 23509, Note_on_c, 0, 53, 29
4, 23510, Note_on_c, 0, 58, 37
4, 23513, Note_on_c, 0, 57, 47
4, 23514, Note_on_c, 0, 77, 56
4, 23560, Note_on_c, 0, 77, 0
4, 23563, Note_on_c, 0, 79, 45
4, 23573, Note_on_c, 0, 77, 37
4, 23580, Note_on_c, 0, 79, 0
4, 23590, Note_on_c, 0, 74, 46
4, 23595, Note_on_c, 0, 58, 0
4, 23600, Note_on_c, 0, 62, 0
4, 23606, Note_on_c, 0, 77, 0
4, 23615, Note_on_c, 0, 74, 0
4, 23642, Note_on_c, 0, 62, 46
4, 23643, Note_on_c, 0, 77, 72
4, 23644, Note_on_c, 0, 58, 40
4, 23665, Note_on_c, 0, 53, 0
4, 23706, Note_on_c, 0, 77, 0
4, 23714, Note_on_c, 0, 57, 0
4, 23722, Note_on_c, 0, 53, 37
4, 23725, Note_on_c, 0, 74, 45
4, 23732, Note_on_c, 0, 62, 0
4, 23736, Note_on_c, 0, 74, 0
4, 23741, Note_on_c, 0, 53, 0
4, 23744, Note_on_c, 0, 58, 0
4, 23766, Note_on_c, 0, 62, 51
4, 23767, Note_on_c, 0, 52, 52
4, 23768, Note_on_c, 0, 80, 80
4, 23768, Note_on_c, 0, 58, 36
4, 23769, Note_on_c, 0, 86, 73
4, 23786, Note_on_c, 0, 86, 0
4, 23788, Note_on_c, 0, 80, 0
4, 23788, Note_on_c, 0, 62, 0
4, 23795, Note_on_c, 0, 58, 0
4, 23808, Note_on_c, 0, 80, 50
4, 23809, Note_on_c, 0, 86, 54
4, 23820, Note_on_c, 0, 86, 0
4, 23834, Note_on_c, 0, 80, 0
4, 23846, Note_on_c, 0, 74, 42
4, 23868, Note_on_c, 0, 74, 0
4, 23886, Note_on_c, 0, 77, 66
4, 23887, Note_on_c, 0, 58, 33
4, 23888, Note_on_c, 0, 62, 39
4, 23904, Note_on_c, 0, 52, 0
4, 23913, Note_on_c, 0, 62, 0
4, 23913, Note_on_c, 0, 58, 0
4, 23917, Control_c, 0, 64, 127
4, 23920, Note_on_c, 0, 77, 0
4, 23926, Note_on_c, 0, 74, 46
4, 23934, Note_on_c, 0, 74, 0
4, 23964, Note_on_c, 0, 77, 79
4, 23965, Note_on_c, 0, 53, 55
4, 23966, Note_on_c, 0, 64, 55
4, 23967, Note_on_c, 0, 57, 60
4, 23968, Control_c, 0, 64, 0
4, 23968, Note_on_c, 0, 60, 50
4, 24000, Control_c, 0, 64, 127
4, 24013, Note_on_c, 0, 77, 0
4, 24014, Note_on_c, 0, 64, 0
4, 24017, Note_on_c, 0, 60, 0
4, 24024, Note_on_c, 0, 57, 0
4, 24044, Note_on_c, 0, 53, 0
4, 24083, Note_on_c, 0, 62, 90
4, 24083, Note_on_c, 0, 68, 74
4, 24084, Note_on_c, 0, 56, 76
4, 24085, Note_on_c, 0, 65, 71
4, 24085, Note_on_c, 0, 59, 82
4, 24088, Control_c, 0, 64, 0
4, 24125, Control_c, 0, 64, 127
4, 24156, Note_on_c, 0, 65, 0
4, 24166, Note_on_c, 0, 62, 0
4, 24175, Note_on_c, 0, 59, 0
4, 24177, Note_on_c, 0, 65, 46
4, 24190, Note_on_c, 0, 56, 0
4, 24190, Note_on_c, 0, 62, 34
4, 24191, Note_on_c, 0, 68, 0
4, 24199, Note_on_c, 0, 65, 0
4, 24207, Note_on_c, 0, 62, 0
4, 24207, Note_on_c, 0, 52, 24
4, 24216, Note_on_c, 0, 52, 0
4, 24221, Note_on_c, 0, 53, 24
4, 24228, Note_on_c, 0, 53, 0
4, 24230, Control_c, 0, 64, 0
4, 24234, Note_on_c, 0, 58, 64
4, 24234, Note_on_c, 0, 55, 64
4, 24235, Note_on_c, 0, 67, 55
4, 24235, Note_on_c, 0, 62, 62
4, 24247, Note_on_c, 0, 67, 0
4, 24251, Note_on_c, 0, 62, 0
4, 24251, Note_on_c, 0, 58, 0
4, 24253, Note_on_c, 0, 55, 0
4, 24273, Note_on_c, 0, 65, 49
4, 24273, Note_on_c, 0, 57, 52
4, 24275, Note_on_c, 0, 53, 47
4, 24277, Note_on_c, 0, 60, 41
4, 24277, Note_on_c, 0, 62, 34
4, 24295, Note_on_c, 0, 53, 0
4, 24296, Note_on_c, 0, 60, 0
4, 24297, Note_on_c, 0, 62, 0
4, 24299, Note_on_c, 0, 65, 0
4, 24303, Note_on_c, 0, 57, 0
4, 24370, Note_on_c, 0, 59, 51
4, 24370, Note_on_c, 0, 56, 33
4, 24371, Note_on_c, 0, 53, 36
4, 24372, Note_on_c, 0, 62, 51
4, 24400, Control_c, 0, 64, 127
4, 24406, Control_c, 0, 64, 0
4, 24418, Note_on_c, 0, 56, 0
4, 24420, Note_on_c, 0, 59, 0
4, 24422, Note_on_c, 0, 53, 0
4, 24426, Note_on_c, 0, 62, 0
4, 24438, Control_c, 0, 64, 127
4, 24453, Note_on_c, 0, 53, 36
4, 24465, Note_on_c, 0, 53, 0
4, 24481, Control_c, 0, 64, 0
4, 24487, Note_on_c, 0, 46, 38
4, 24487, Note_on_c, 0, 58, 39
4, 24488, Note_on_c, 0, 62, 42
4, 24488, Note_on_c, 0, 65, 51
4, 24489, Note_on_c, 0, 53, 40
4, 24517, Control_c, 0, 64, 127
4, 24547, Note_on_c, 0, 53, 0
4, 24555, Note_on_c, 0, 58, 0
4, 24564, Note_on_c, 0, 46, 0
4, 24576, Note_on_c, 0, 62, 0
4, 24606, Note_on_c, 0, 55, 41
4, 24607, Note_on_c, 0, 60, 48
4, 24607, Control_c, 0, 64, 0
4, 24608, Note_on_c, 0, 45, 35
4, 24634, Control_c, 0, 64, 127
4, 24656, Note_on_c, 0, 45, 0
4, 24667, Note_on_c, 0, 60, 0
4, 24670, Note_on_c, 0, 55, 0
4, 24683, Note_on_c, 0, 65, 0
4, 24726, Control_c, 0, 64, 0
4, 24729, Note_on_c, 0, 58, 51
4, 24731, Note_on_c, 0, 43, 42
4, 24731, Note_on_c, 0, 50, 25
4, 24740, Note_on_c, 0, 58, 0
4, 24771, Note_on_c, 0, 72, 83
4, 24778, Note_on_c, 0, 43, 0
4, 24788, Note_on_c, 0, 50, 0
4, 24799, Note_on_c, 0, 72, 0
4, 24807, Note_on_c, 0, 73, 69
4, 24808, Note_on_c, 0, 72, 61
4, 24818, Note_on_c, 0, 72, 0
4, 24839, Note_on_c, 0, 73, 0
4, 24847, Note_on_c, 0, 62, 37
4, 24848, Note_on_c, 0, 52, 30
4, 24849, Note_on_c, 0, 58, 25
4, 24850, Note_on_c, 0, 74, 56
4, 24865, Note_on_c, 0, 62, 0
4, 24881, Note_on_c, 0, 74, 0
4, 24890, Note_on_c, 0, 77, 50
4, 24892, Note_on_c, 0, 70, 34
4, 24892, Note_on_c, 0, 65, 42
4, 24899, Note_on_c, 0, 65, 0
4, 24904, Note_on_c, 0, 77, 0
4, 24905, Note_on_c, 0, 58, 0
4, 24909, Note_on_c, 0, 70, 0
4, 24913, Note_on_c, 0, 52, 0
4, 24932, Note_on_c, 0, 73, 51
4, 24932, Note_on_c, 0, 58, 65
4, 24932, Note_on_c, 0, 63, 69
4, 24932, Note_on_c, 0, 68, 65
4, 24960, Note_on_c, 0, 68, 0
4, 24962, Note_on_c, 0, 63, 0
4, 24962, Note_on_c, 0, 73, 0
4, 24968, Note_on_c, 0, 58, 0
4, 24976, Note_on_c, 0, 72, 39
4, 24978, Note_on_c, 0, 67, 43
4, 24978, Note_on_c, 0, 57, 41
4, 24986, Note_on_c, 0, 60, 24
4, 25024, Note_on_c, 0, 72, 0
4, 25026, Note_on_c, 0, 60, 0
4, 25031, Note_on_c, 0, 57, 0
4, 25031, Note_on_c, 0, 67, 0
4, 25045, Note_on_c, 0, 67, 50
4, 25047, Note_on_c, 0, 72, 38
4, 25048, Note_on_c, 0, 57, 42
4, 25048, Note_on_c, 0, 60, 41
4, 25089, Note_on_c, 0, 60, 0
4, 25092, Control_c, 0, 64, 127
4, 25104, Note_on_c, 0, 67, 0
4, 25114, Note_on_c, 0, 72, 0
4, 25146, Note_on_c, 0, 57, 0
4, 25194, Control_c, 0, 64, 0
4, 25204, Note_on_c, 0, 54, 37
4, 25207, Note_on_c, 0, 64, 31
4, 25209, Note_on_c, 0, 60, 33
4, 25215, Note_on_c, 0, 90, 54
4, 25222, Note_on_c, 0, 90, 0
4, 25227, Note_on_c, 0, 94, 60
4, 25241, Note_on_c, 0, 90, 37
4, 25247, Note_on_c, 0, 94, 0
4, 25249, Note_on_c, 0, 64, 0
4, 25252, Note_on_c, 0, 90, 0
4, 25273, Note_on_c, 0, 87, 56
4, 25284, Note_on_c, 0, 87, 0
4, 25287, Note_on_c, 0, 86, 52
4, 25300, Note_on_c, 0, 54, 0
4, 25301, Note_on_c, 0, 86, 0
4, 25305, Note_on_c, 0, 60, 0
4, 25311, Note_on_c, 0, 84, 46
4, 25316, Note_on_c, 0, 84, 0
4, 25328, Note_on_c, 0, 82, 47
4, 25339, Note_on_c, 0, 54, 25
4, 25342, Note_on_c, 0, 78, 44
4, 25344, Note_on_c, 0, 60, 22
4, 25349, Note_on_c, 0, 82, 0
4, 25359, Note_on_c, 0, 78, 0
4, 25362, Note_on_c, 0, 77, 39
4, 25372, Note_on_c, 0, 77, 0
4, 25381, Note_on_c, 0, 75, 47
4, 25387, Note_on_c, 0, 60, 0
4, 25396, Note_on_c, 0, 75, 0
4, 25412, Note_on_c, 0, 74, 34
4, 25418, Note_on_c, 0, 74, 0
4, 25418, Note_on_c, 0, 54, 0
4, 25445, Note_on_c, 0, 72, 60
4, 25451, Note_on_c, 0, 62, 28
4, 25453, Note_on_c, 0, 58, 28
4, 25458, Note_on_c, 0, 72, 0
4, 25458, Note_on_c, 0, 57, 30
4, 25459, Note_on_c, 0, 53, 24
4, 25464, Note_on_c, 0, 70, 40
4, 25497, Note_on_c, 0, 70, 0
4, 25503, Note_on_c, 0, 72, 66
4, 25527, Note_on_c, 0, 62, 0
4, 25529, Note_on_c, 0, 70, 59
4, 25537, Note_on_c, 0, 72, 0
4, 25538, Note_on_c, 0, 58, 0
4, 25549, Note_on_c, 0, 69, 67
4, 25552, Note_on_c, 0, 57, 0
4, 25555, Note_on_c, 0, 70, 0
4, 25564, Note_on_c, 0, 67, 45
4, 25566, Note_on_c, 0, 69, 0
4, 25573, Note_on_c, 0, 62, 36
4, 25575, Note_on_c, 0, 58, 36
4, 25577, Note_on_c, 0, 57, 15
4, 25590, Note_on_c, 0, 62, 0
4, 25597, Note_on_c, 0, 67, 0
4, 25601, Note_on_c, 0, 69, 62
4, 25604, Note_on_c, 0, 58, 0
4, 25609, Note_on_c, 0, 57, 0
4, 25622, Note_on_c, 0, 69, 0
4, 25623, Note_on_c, 0, 53, 0
4, 25636, Note_on_c, 0, 72, 75
4, 25663, Note_on_c, 0, 72, 0
4, 25670, Note_on_c, 0, 60, 59
4, 25693, Note_on_c, 0, 60, 0
4, 25741, Note_on_c, 0, 62, 65
4, 25745, Note_on_c, 0, 46, 42
4, 25746, Note_on_c, 0, 57, 37
4, 25756, Note_on_c, 0, 62, 0
4, 25757, Note_on_c, 0, 57, 0
4, 25762, Note_on_c, 0, 46, 0
4, 25775, Note_on_c, 0, 65, 41
4, 25789, Note_on_c, 0, 65, 0
4, 25818, Note_on_c, 0, 58, 42
4, 25820, Note_on_c, 0, 48, 38
4, 25861, Note_on_c, 0, 60, 42
4, 25869, Note_on_c, 0, 60, 0
4, 25874, Note_on_c, 0, 48, 0
4, 25875, Note_on_c, 0, 58, 0
4, 25892, Note_on_c, 0, 73, 64
4, 25892, Note_on_c, 0, 63, 73
4, 25894, Note_on_c, 0, 68, 63
4, 25894, Note_on_c, 0, 56, 51
4, 25921, Note_on_c, 0, 63, 0
4, 25922, Note_on_c, 0, 68, 0
4, 25924, Note_on_c, 0, 73, 0
4, 25924, Note_on_c, 0, 56, 0
4, 25939, Note_on_c, 0, 60, 64
4, 25939, Note_on_c, 0, 70, 54
4, 25944, Note_on_c, 0, 58, 40
4, 25950, Note_on_c, 0, 58, 0
4, 25952, Note_on_c, 0, 60, 0
4, 25960, Note_on_c, 0, 70, 0
4, 26011, Note_on_c, 0, 70, 53
4, 26011, Note_on_c, 0, 58, 65
4, 26013, Note_on_c, 0, 63, 50
4, 26014, Note_on_c, 0, 60, 65
4, 26015, Note_on_c, 0, 67, 36
4, 26019, Control_c, 0, 64, 127
4, 26023, Note_on_c, 0, 67, 0
4, 26034, Note_on_c, 0, 60, 0
4, 26040, Note_on_c, 0, 63, 0
4, 26042, Note_on_c, 0, 58, 0
4, 26043, Note_on_c, 0, 70, 0
4, 26045, Control_c, 0, 64, 0
4, 26055, Note_on_c, 0, 63, 39
4, 26056, Note_on_c, 0, 56, 42
4, 26056, Note_on_c, 0, 67, 49
4, 26058, Note_on_c, 0, 60, 30
4, 26066, Control_c, 0, 64, 127
4, 26079, Note_on_c, 0, 56, 0
4, 26083, Note_on_c, 0, 67, 0
4, 26102, Note_on_c, 0, 63, 0
4, 26102, Note_on_c, 0, 60, 0
4, 26128, Note_on_c, 0, 53, 35
4, 26144, Note_on_c, 0, 53, 0
4, 26164, Control_c, 0, 64, 0
4, 26167, Note_on_c, 0, 68, 37
4, 26168, Note_on_c, 0, 58, 40
4, 26169, Note_on_c, 0, 61, 43
4, 26170, Note_on_c, 0, 53, 41
4, 26171, Note_on_c, 0, 65, 46
4, 26174, Note_on_c, 0, 46, 28
4, 26194, Control_c, 0, 64, 127
4, 26243, Note_on_c, 0, 65, 0
4, 26248, Note_on_c, 0, 53, 0
4, 26254, Note_on_c, 0, 61, 0
4, 26256, Note_on_c, 0, 58, 0
4, 26270, Note_on_c, 0, 46, 0
4, 26278, Note_on_c, 0, 68, 0
4, 26288, Note_on_c, 0, 46, 20
4, 26289, Note_on_c, 0, 58, 36
4, 26290, Note_on_c, 0, 61, 35
4, 26291, Note_on_c, 0, 65, 38
4, 26292, Note_on_c, 0, 53, 33
4, 26308, Note_on_c, 0, 58, 0
4, 26309, Note_on_c, 0, 46, 0
4, 26311, Note_on_c, 0, 53, 0
4, 26316, Note_on_c, 0, 61, 0
4, 26317, Note_on_c, 0, 65, 0
4, 26401, Control_c, 0, 64, 0
4, 26408, Note_on_c, 0, 59, 65
4, 26408, Note_on_c, 0, 80, 68
4, 26408, Note_on_c, 0, 92, 74
4, 26408, Note_on_c, 0, 53, 64
4, 26409, Note_on_c, 0, 64, 65
4, 26409, Note_on_c, 0, 87, 63
4, 26431, Note_on_c, 0, 92, 0
4, 26432, Note_on_c, 0, 80, 0
4, 26436, Note_on_c, 0, 64, 0
4, 26436, Note_on_c, 0, 87, 0
4, 26438, Note_on_c, 0, 53, 0
4, 26442, Note_on_c, 0, 59, 0
4, 26446, Note_on_c, 0, 94, 65
4, 26447, Note_on_c, 0, 82, 42
4, 26447, Note_on_c, 0, 53, 44
4, 26448, Note_on_c, 0, 59, 28
4, 26448, Note_on_c, 0, 87, 44
4, 26449, Note_on_c, 0, 64, 55
4, 26457, Note_on_c, 0, 82, 0
4, 26458, Note_on_c, 0, 94, 0
4, 26464, Note_on_c, 0, 64, 0
4, 26468, Note_on_c, 0, 53, 0
4, 26468, Note_on_c, 0, 87, 0
4, 26472, Note_on_c, 0, 80, 35
4, 26475, Note_on_c, 0, 53, 25
4, 26476, Note_on_c, 0, 92, 27
4, 26477, Note_on_c, 0, 64, 40
4, 26479, Note_on_c, 0, 87, 27
4, 26483, Note_on_c, 0, 92, 0
4, 26486, Note_on_c, 0, 80, 0
4, 26487, Note_on_c, 0, 87, 0
4, 26490, Note_on_c, 0, 64, 0
4, 26492, Note_on_c, 0, 53, 0
4, 26494, Note_on_c, 0, 59, 0
4, 26501, Note_on_c, 0, 94, 69
4, 26503, Note_on_c, 0, 82, 48
4, 26504, Note_on_c, 0, 87, 54
4, 26504, Note_on_c, 0, 59, 46
4, 26504, Note_on_c, 0, 53, 46
4, 26504, Note_on_c, 0, 64, 48
4, 26513, Note_on_c, 0, 82, 0
4, 26516, Note_on_c, 0, 94, 0
4, 26518, Note_on_c, 0, 64, 0
4, 26522, Note_on_c, 0, 87, 0
4, 26531, Note_on_c, 0, 80, 33
4, 26531, Note_on_c, 0, 92, 30
4, 26532, Note_on_c, 0, 64, 44
4, 26536, Note_on_c, 0, 87, 39
4, 26545, Note_on_c, 0, 80, 0
4, 26546, Note_on_c, 0, 64, 0
4, 26546, Note_on_c, 0, 92, 0
4, 26549, Note_on_c, 0, 87, 0
4, 26550, Note_on_c, 0, 59, 0
4, 26551, Note_on_c, 0, 53, 0
4, 26560, Note_on_c, 0, 53, 29
4, 26560, Note_on_c, 0, 59, 38
4, 26561, Note_on_c, 0, 94, 72
4, 26561, Note_on_c, 0, 64, 45
4, 26562, Note_on_c, 0, 82, 53
4, 26564, Note_on_c, 0, 87, 43
4, 26570, Note_on_c, 0, 64, 0
4, 26573, Note_on_c, 0, 82, 0
4, 26574, Note_on_c, 0, 94, 0
4, 26577, Note_on_c, 0, 87, 0
4, 26590, Note_on_c, 0, 92, 54
4, 26592, Note_on_c, 0, 80, 37
4, 26597, Note_on_c, 0, 87, 26
4, 26602, Note_on_c, 0, 80, 0
4, 26603, Note_on_c, 0, 92, 0
4, 26603, Note_on_c, 0, 53, 0
4, 26604, Note_on_c, 0, 87, 0
4, 26609, Note_on_c, 0, 59, 0
4, 26615, Note_on_c, 0, 59, 19
4, 26616, Note_on_c, 0, 53, 42
4, 26620, Note_on_c, 0, 64, 36
4, 26620, Note_on_c, 0, 94, 55
4, 26622, Note_on_c, 0, 87, 35
4, 26625, Note_on_c, 0, 94, 0
4, 26627, Note_on_c, 0, 64, 0
4, 26630, Note_on_c, 0, 59, 0
4, 26632, Note_on_c, 0, 87, 0
4, 26646, Note_on_c, 0, 85, 59
4, 26647, Note_on_c, 0, 62, 58
4, 26648, Note_on_c, 0, 91, 49
4, 26648, Note_on_c, 0, 57, 52
4, 26652, Note_on_c, 0, 79, 30
4, 26667, Note_on_c, 0, 85, 0
4, 26670, Note_on_c, 0, 86, 53
4, 26684, Note_on_c, 0, 79, 0
4, 26685, Note_on_c, 0, 62, 0
4, 26685, Note_on_c, 0, 86, 0
4, 26686, Note_on_c, 0, 91, 0
4, 26689, Note_on_c, 0, 57, 0
4, 26690, Note_on_c, 0, 53, 0
4, 26761, Note_on_c, 0, 62, 68
4, 26761, Note_on_c, 0, 52, 72
4, 26762, Note_on_c, 0, 77, 74
4, 26762, Note_on_c, 0, 89, 74
4, 26762, Note_on_c, 0, 85, 70
4, 26763, Note_on_c, 0, 58, 56
4, 26780, Note_on_c, 0, 85, 0
4, 26781, Note_on_c, 0, 86, 39
4, 26789, Note_on_c, 0, 86, 0
4, 26793, Note_on_c, 0, 77, 0
4, 26794, Note_on_c, 0, 89, 0
4, 26802, Note_on_c, 0, 58, 0
4, 26804, Note_on_c, 0, 62, 0
4, 26804, Note_on_c, 0, 52, 0
4, 26849, Note_on_c, 0, 62, 53
4, 26849, Note_on_c, 0, 58, 45
4, 26863, Note_on_c, 0, 58, 0
4, 26864, Note_on_c, 0, 62, 0
4, 26885, Note_on_c, 0, 65, 70
4, 26886, Note_on_c, 0, 84, 74
4, 26886, Note_on_c, 0, 72, 66
4, 26887, Note_on_c, 0, 55, 64
4, 26887, Note_on_c, 0, 61, 47
4, 26888, Note_on_c, 0, 60, 66
4, 26890, Note_on_c, 0, 81, 47
4, 26910, Control_c, 0, 64, 127
4, 26974, Note_on_c, 0, 60, 0
4, 26977, Note_on_c, 0, 55, 0
4, 26980, Note_on_c, 0, 65, 0
4, 26987, Note_on_c, 0, 61, 0
4, 27010, Note_on_c, 0, 61, 45
4, 27010, Note_on_c, 0, 65, 54
4, 27012, Note_on_c, 0, 55, 41
4, 27013, Note_on_c, 0, 60, 52
4, 27066, Note_on_c, 0, 84, 0
4, 27075, Note_on_c, 0, 81, 0
4, 27076, Note_on_c, 0, 65, 0
4, 27078, Note_on_c, 0, 72, 0
4, 27079, Note_on_c, 0, 60, 0
4, 27085, Note_on_c, 0, 55, 0
4, 27100, Note_on_c, 0, 61, 0
4, 27129, Note_on_c, 0, 54, 50
4, 27132, Note_on_c, 0, 60, 31
4, 27138, Note_on_c, 0, 60, 0
4, 27149, Control_c, 0, 64, 0
4, 27158, Note_on_c, 0, 60, 61
4, 27175, Note_on_c, 0, 60, 0
4, 27181, Note_on_c, 0, 61, 57
4, 27200, Note_on_c, 0, 61, 0
4, 27206, Note_on_c, 0, 62, 62
4, 27226, Note_on_c, 0, 62, 0
4, 27232, Note_on_c, 0, 63, 59
4, 27239, Note_on_c, 0, 54, 0
4, 27248, Note_on_c, 0, 63, 0
4, 27259, Note_on_c, 0, 54, 44
4, 27260, Note_on_c, 0, 65, 63
4, 27269, Note_on_c, 0, 60, 30
4, 27280, Note_on_c, 0, 65, 0
4, 27288, Note_on_c, 0, 66, 61
4, 27306, Note_on_c, 0, 66, 0
4, 27312, Note_on_c, 0, 60, 0
4, 27316, Note_on_c, 0, 67, 69
4, 27331, Note_on_c, 0, 54, 0
4, 27333, Note_on_c, 0, 67, 0
4, 27341, Note_on_c, 0, 68, 56
4, 27362, Note_on_c, 0, 68, 0
4, 27365, Note_on_c, 0, 69, 64
4, 27371, Note_on_c, 0, 59, 36
4, 27373, Note_on_c, 0, 53, 22
4, 27383, Note_on_c, 0, 69, 0
4, 27395, Note_on_c, 0, 74, 67
4, 27414, Note_on_c, 0, 74, 0
4, 27428, Note_on_c, 0, 67, 58
4, 27432, Note_on_c, 0, 59, 0
4, 27433, Note_on_c, 0, 68, 58
4, 27438, Note_on_c, 0, 67, 0
4, 27438, Note_on_c, 0, 53, 0
4, 27439, Note_on_c, 0, 74, 19
4, 27449, Note_on_c, 0, 68, 0
4, 27449, Note_on_c, 0, 69, 57
4, 27466, Note_on_c, 0, 74, 0
4, 27472, Note_on_c, 0, 69, 0
4, 27488, Note_on_c, 0, 65, 64
4, 27492, Note_on_c, 0, 59, 44
4, 27494, Note_on_c, 0, 53, 36
4, 27501, Note_on_c, 0, 59, 0
4, 27512, Note_on_c, 0, 65, 0
4, 27516, Note_on_c, 0, 53, 0
4, 27525, Note_on_c, 0, 62, 34
4, 27547, Note_on_c, 0, 62, 0
4, 27561, Note_on_c, 0, 65, 60
4, 27596, Note_on_c, 0, 65, 0
4, 27605, Note_on_c, 0, 66, 52
4, 27607, Note_on_c, 0, 50, 36
4, 27607, Note_on_c, 0, 60, 55
4, 27608, Note_on_c, 0, 49, 14
4, 27622, Note_on_c, 0, 49, 0
4, 27639, Control_c, 0, 64, 127
4, 27676, Note_on_c, 0, 60, 0
4, 27685, Note_on_c, 0, 38, 46
4, 27690, Note_on_c, 0, 38, 0
4, 27697, Note_on_c, 0, 50, 0
4, 27722, Control_c, 0, 64, 0
4, 27723, Note_on_c, 0, 66, 0
4, 27728, Note_on_c, 0, 44, 45
4, 27731, Note_on_c, 0, 59, 40
4, 27740, Note_on_c, 0, 59, 0
4, 27741, Control_c, 0, 64, 127
4, 27747, Note_on_c, 0, 44, 0
4, 27808, Note_on_c, 0, 50, 44
4, 27816, Note_on_c, 0, 50, 0
4, 27843, Control_c, 0, 64, 0
4, 27849, Note_on_c, 0, 43, 55
4, 27857, Note_on_c, 0, 43, 0
4, 27865, Control_c, 0, 64, 127
4, 27893, Note_on_c, 0, 64, 63
4, 27906, Note_on_c, 0, 64, 0
4, 27929, Note_on_c, 0, 69, 91
4, 27931, Note_on_c, 0, 53, 66
4, 27932, Note_on_c, 0, 59, 69
4, 27933, Note_on_c, 0, 64, 62
4, 27953, Note_on_c, 0, 64, 0
4, 27956, Note_on_c, 0, 69, 0
4, 27956, Note_on_c, 0, 53, 0
4, 27961, Note_on_c, 0, 59, 0
4, 27970, Note_on_c, 0, 53, 74
4, 27971, Control_c, 0, 64, 0
4, 27971, Note_on_c, 0, 72, 83
4, 27972, Note_on_c, 0, 59, 79
4, 27972, Note_on_c, 0, 69, 80
4, 27972, Note_on_c, 0, 64, 73
4, 27997, Note_on_c, 0, 64, 0
4, 27998, Note_on_c, 0, 53, 0
4, 27998, Note_on_c, 0, 69, 0
4, 27999, Note_on_c, 0, 72, 0
4, 28000, Control_c, 0, 64, 127
4, 28003, Note_on_c, 0, 59, 0
4, 28009, Note_on_c, 0, 76, 81
4, 28009, Note_on_c, 0, 53, 68
4, 28009, Note_on_c, 0, 64, 70
4, 28009, Note_on_c, 0, 69, 71
4, 28010, Note_on_c, 0, 59, 59
4, 28036, Note_on_c, 0, 64, 0
4, 28036, Note_on_c, 0, 53, 0
4, 28041, Note_on_c, 0, 76, 0
4, 28042, Note_on_c, 0, 59, 0
4, 28043, Note_on_c, 0, 69, 0
4, 28045, Control_c, 0, 64, 0
4, 28050, Note_on_c, 0, 73, 60
4, 28051, Note_on_c, 0, 53, 68
4, 28052, Note_on_c, 0, 64, 63
4, 28053, Note_on_c, 0, 59, 75
4, 28082, Control_c, 0, 64, 127
4, 28116, Note_on_c, 0, 64, 0
4, 28182, Note_on_c, 0, 59, 0
4, 28182, Note_on_c, 0, 53, 0
4, 28203, Note_on_c, 0, 73, 0
4, 28211, Note_on_c, 0, 59, 39
4, 28212, Control_c, 0, 64, 0
4, 28212, Note_on_c, 0, 69, 43
4, 28212, Note_on_c, 0, 53, 43
4, 28213, Note_on_c, 0, 64, 37
4, 28226, Control_c, 0, 64, 127
4, 28250, Note_on_c, 0, 59, 0
4, 28253, Note_on_c, 0, 69, 0
4, 28261, Note_on_c, 0, 53, 0
4, 28263, Note_on_c, 0, 64, 0
4, 28325, Control_c, 0, 64, 0
4, 28327, Note_on_c, 0, 46, 30
4, 28328, Note_on_c, 0, 57, 37
4, 28331, Note_on_c, 0, 58, 33
4, 28331, Note_on_c, 0, 62, 44
4, 28332, Note_on_c, 0, 53, 32
4, 28332, Note_on_c, 0, 65, 46
4, 28354, Control_c, 0, 64, 127
4, 28376, Note_on_c, 0, 65, 0
4, 28378, Note_on_c, 0, 62, 0
4, 28382, Note_on_c, 0, 57, 0
4, 28388, Note_on_c, 0, 46, 0
4, 28394, Note_on_c, 0, 58, 0
4, 28396, Note_on_c, 0, 53, 0
4, 28443, Control_c, 0, 64, 0
4, 28447, Note_on_c, 0, 62, 49
4, 28447, Note_on_c, 0, 56, 28
4, 28448, Note_on_c, 0, 47, 32
4, 28448, Note_on_c, 0, 59, 45
4, 28449, Note_on_c, 0, 53, 22
4, 28468, Control_c, 0, 64, 127
4, 28478, Note_on_c, 0, 59, 0
4, 28482, Note_on_c, 0, 47, 0
4, 28490, Note_on_c, 0, 56, 0
4, 28492, Note_on_c, 0, 53, 0
4, 28499, Note_on_c, 0, 62, 0
4, 28567, Note_on_c, 0, 65, 58
4, 28568, Note_on_c, 0, 48, 35
4, 28569, Note_on_c, 0, 55, 29
4, 28569, Control_c, 0, 64, 0
4, 28570, Note_on_c, 0, 57, 33
4, 28577, Note_on_c, 0, 57, 0
4, 28586, Note_on_c, 0, 65, 0
4, 28605, Note_on_c, 0, 60, 73
4, 28622, Note_on_c, 0, 60, 0
4, 28641, Note_on_c, 0, 60, 74
4, 28665, Note_on_c, 0, 60, 0
4, 28681, Note_on_c, 0, 60, 60
4, 28686, Note_on_c, 0, 55, 0
4, 28686, Note_on_c, 0, 61, 71
4, 28696, Note_on_c, 0, 60, 0
4, 28696, Note_on_c, 0, 48, 0
4, 28699, Note_on_c, 0, 61, 0
4, 28700, Note_on_c, 0, 62, 47
4, 28729, Note_on_c, 0, 65, 54
4, 28730, Note_on_c, 0, 62, 0
4, 28752, Note_on_c, 0, 65, 0
4, 28757, Control_c, 0, 64, 127
4, 28768, Note_on_c, 0, 46, 33
4, 28768, Note_on_c, 0, 65, 33
4, 28776, Note_on_c, 0, 56, 17
4, 28778, Note_on_c, 0, 65, 0
4, 28787, Note_on_c, 0, 56, 0
4, 28807, Control_c, 0, 64, 0
4, 28808, Note_on_c, 0, 61, 39
4, 28811, Note_on_c, 0, 46, 0
4, 28811, Note_on_c, 0, 55, 49
4, 28814, Note_on_c, 0, 64, 37
4, 28815, Note_on_c, 0, 52, 33
4, 28816, Note_on_c, 0, 45, 41
4, 28825, Note_on_c, 0, 61, 0
4, 28841, Control_c, 0, 64, 127
4, 28881, Note_on_c, 0, 45, 0
4, 28890, Note_on_c, 0, 55, 0
4, 28907, Note_on_c, 0, 52, 0
4, 28977, Note_on_c, 0, 64, 0
4, 29008, Control_c, 0, 64, 0
4, 29009, Note_on_c, 0, 38, 55
4, 29009, Note_on_c, 0, 50, 55
4, 29010, Note_on_c, 0, 54, 45
4, 29011, Note_on_c, 0, 65, 48
4, 29014, Note_on_c, 0, 60, 41
4, 29019, Note_on_c, 0, 54, 0
4, 29025, Note_on_c, 0, 60, 0
4, 29025, Note_on_c, 0, 38, 0
4, 29028, Note_on_c, 0, 50, 0
4, 29030, Control_c, 0, 64, 127
4, 29034, Note_on_c, 0, 65, 0
4, 29093, Note_on_c, 0, 54, 49
4, 29094, Note_on_c, 0, 77, 69
4, 29095, Note_on_c, 0, 72, 73
4, 29095, Note_on_c, 0, 65, 58
4, 29099, Note_on_c, 0, 60, 45
4, 29141, Note_on_c, 0, 60, 0
4, 29147, Note_on_c, 0, 65, 0
4, 29149, Note_on_c, 0, 72, 0
4, 29151, Note_on_c, 0, 54, 0
4, 29153, Note_on_c, 0, 77, 0
4, 29174, Note_on_c, 0, 54, 48
4, 29175, Note_on_c, 0, 65, 49
4, 29175, Note_on_c, 0, 77, 50
4, 29176, Note_on_c, 0, 72, 58
4, 29180, Note_on_c, 0, 60, 39
4, 29195, Note_on_c, 0, 65, 0
4, 29199, Note_on_c, 0, 60, 0
4, 29202, Note_on_c, 0, 72, 0
4, 29204, Note_on_c, 0, 77, 0
4, 29222, Note_on_c, 0, 54, 0
4, 29248, Note_on_c, 0, 81, 62
4, 29249, Note_on_c, 0, 53, 49
4, 29249, Note_on_c, 0, 74, 53
4, 29251, Note_on_c, 0, 59, 49
4, 29251, Note_on_c, 0, 64, 42
4, 29253, Note_on_c, 0, 69, 45
4, 29253, Control_c, 0, 64, 0
4, 29254, Note_on_c, 0, 77, 27
4, 29266, Note_on_c, 0, 77, 0
4, 29282, Control_c, 0, 64, 127
4, 29335, Note_on_c, 0, 64, 0
4, 29335, Note_on_c, 0, 69, 0
4, 29336, Note_on_c, 0, 59, 0
4, 29337, Note_on_c, 0, 74, 0
4, 29338, Note_on_c, 0, 53, 0
4, 29346, Note_on_c, 0, 81, 0
4, 29363, Note_on_c, 0, 81, 50
4, 29366, Note_on_c, 0, 64, 41
4, 29367, Note_on_c, 0, 53, 31
4, 29367, Note_on_c, 0, 74, 37
4, 29367, Note_on_c, 0, 59, 46
4, 29368, Note_on_c, 0, 69, 32
4, 29373, Note_on_c, 0, 77, 25
4, 29377, Control_c, 0, 64, 0
4, 29385, Control_c, 0, 64, 127
4, 29401, Note_on_c, 0, 64, 0
4, 29404, Note_on_c, 0, 59, 0
4, 29411, Note_on_c, 0, 81, 0
4, 29412, Note_on_c, 0, 69, 0
4, 29413, Note_on_c, 0, 74, 0
4, 29415, Note_on_c, 0, 77, 0
4, 29421, Note_on_c, 0, 53, 0
4, 29484, Note_on_c, 0, 79, 48
4, 29485, Note_on_c, 0, 73, 30
4, 29487, Note_on_c, 0, 62, 37
4, 29487, Note_on_c, 0, 76, 44
4, 29487, Note_on_c, 0, 52, 38
4, 29488, Note_on_c, 0, 58, 35
4, 29488, Note_on_c, 0, 67, 32
4, 29496, Control_c, 0, 64, 0
4, 29523, Control_c, 0, 64, 127
4, 29555, Note_on_c, 0, 67, 0
4, 29560, Note_on_c, 0, 52, 0
4, 29562, Note_on_c, 0, 58, 0
4, 29563, Note_on_c, 0, 73, 0
4, 29564, Note_on_c, 0, 62, 0
4, 29571, Note_on_c, 0, 76, 0
4, 29574, Note_on_c, 0, 79, 0
4, 29610, Note_on_c, 0, 52, 28
4, 29620, Note_on_c, 0, 52, 0
4, 29746, Note_on_c, 0, 54, 29
4, 29762, Note_on_c, 0, 54, 0
4, 29764, Note_on_c, 0, 68, 56
4, 29765, Note_on_c, 0, 56, 53
4, 29765, Note_on_c, 0, 60, 61
4, 29766, Note_on_c, 0, 65, 48
4, 29766, Note_on_c, 0, 63, 48
4, 29769, Control_c, 0, 64, 0
4, 29810, Note_on_c, 0, 60, 0
4, 29813, Note_on_c, 0, 65, 0
4, 29815, Note_on_c, 0, 56, 0
4, 29816, Note_on_c, 0, 68, 0
4, 29821, Note_on_c, 0, 63, 0
4, 29838, Control_c, 0, 64, 127
4, 29842, Note_on_c, 0, 54, 34
4, 29847, Note_on_c, 0, 54, 0
4, 29859, Note_on_c, 0, 55, 31
4, 29869, Note_on_c, 0, 55, 0
4, 29875, Control_c, 0, 64, 0
4, 29883, Note_on_c, 0, 69, 57
4, 29883, Note_on_c, 0, 60, 51
4, 29884, Note_on_c, 0, 64, 58
4, 29885, Note_on_c, 0, 65, 51
4, 29885, Note_on_c, 0, 57, 53
4, 29915, Control_c, 0, 64, 127
4, 29916, Control_c, 0, 64, 0
4, 29925, Note_on_c, 0, 69, 0
4, 29927, Note_on_c, 0, 65, 0
4, 29929, Note_on_c, 0, 60, 0
4, 29929, Note_on_c, 0, 64, 0
4, 29930, Note_on_c, 0, 57, 0
4, 29952, Control_c, 0, 64, 127
4, 29960, Note_on_c, 0, 51, 46
4, 29984, Note_on_c, 0, 51, 0
4, 29987, Control_c, 0, 64, 0
4, 29999, Note_on_c, 0, 61, 58
4, 30001, Note_on_c, 0, 68, 57
4, 30002, Note_on_c, 0, 63, 43
4, 30002, Note_on_c, 0, 56, 52
4, 30002, Note_on_c, 0, 57, 49
4, 30017, Control_c, 0, 64, 127
4, 30050, Control_c, 0, 64, 0
4, 30059, Note_on_c, 0, 57, 0
4, 30061, Control_c, 0, 64, 127
4, 30071, Note_on_c, 0, 56, 0
4, 30075, Note_on_c, 0, 61, 0
4, 30081, Note_on_c, 0, 63, 0
4, 30084, Note_on_c, 0, 68, 0
4, 30085, Note_on_c, 0, 51, 39
4, 30118, Note_on_c, 0, 51, 0
4, 30120, Control_c, 0, 64, 0
4, 30124, Note_on_c, 0, 57, 52
4, 30125, Note_on_c, 0, 53, 53
4, 30125, Note_on_c, 0, 61, 42
4, 30126, Note_on_c, 0, 65, 44
4, 30127, Note_on_c, 0, 63, 35
4, 30143, Control_c, 0, 64, 127
4, 30168, Note_on_c, 0, 53, 0
4, 30173, Note_on_c, 0, 61, 0
4, 30177, Note_on_c, 0, 65, 0
4, 30178, Note_on_c, 0, 63, 0
4, 30178, Note_on_c, 0, 57, 0
4, 30205, Note_on_c, 0, 58, 44
4, 30205, Note_on_c, 0, 62, 48
4, 30206, Note_on_c, 0, 46, 38
4, 30206, Note_on_c, 0, 57, 33
4, 30207, Note_on_c, 0, 53, 29
4, 30218, Control_c, 0, 64, 0
4, 30247, Control_c, 0, 64, 127
4, 30297, Note_on_c, 0, 57, 0
4, 30299, Note_on_c, 0, 62, 0
4, 30301, Note_on_c, 0, 46, 0
4, 30302, Note_on_c, 0, 58, 0
4, 30305, Note_on_c, 0, 53, 0
4, 30327, Note_on_c, 0, 46, 34
4, 30329, Note_on_c, 0, 58, 34
4, 30330, Note_on_c, 0, 62, 43
4, 30331, Note_on_c, 0, 57, 42
4, 30337, Note_on_c, 0, 62, 0
4, 30343, Note_on_c, 0, 58, 0
4, 30345, Note_on_c, 0, 57, 0
4, 30360, Note_on_c, 0, 46, 0
4, 30375, Control_c, 0, 64, 0
4, 30383, Control_c, 0, 64, 127
4, 30443, Control_c, 0, 64, 0
4, 30446, Note_on_c, 0, 58, 67
4, 30450, Note_on_c, 0, 46, 53
4, 30451, Control_c, 0, 64, 127
4, 30451, Note_on_c, 0, 53, 59
4, 30471, Note_on_c, 0, 53, 0
4, 30476, Control_c, 0, 64, 0
4, 30478, Note_on_c, 0, 58, 0
4, 30482, Note_on_c, 0, 46, 0
4, 30490, Note_on_c, 0, 50, 72
4, 30523, Note_on_c, 0, 50, 0
4, 30530, Note_on_c, 0, 65, 64
4, 30531, Note_on_c, 0, 58, 49
4, 30531, Note_on_c, 0, 53, 64
4, 30532, Note_on_c, 0, 55, 44
4, 30532, Note_on_c, 0, 62, 51
4, 30538, Note_on_c, 0, 55, 0
4, 30538, Control_c, 0, 64, 127
4, 30539, Note_on_c, 0, 58, 0
4, 30539, Note_on_c, 0, 62, 0
4, 30546, Note_on_c, 0, 65, 0
4, 30547, Note_on_c, 0, 53, 0
4, 30552, Control_c, 0, 64, 0
4, 30560, Note_on_c, 0, 57, 62
4, 30568, Note_on_c, 0, 65, 36
4, 30574, Note_on_c, 0, 66, 50
4, 30577, Note_on_c, 0, 65, 0
4, 30584, Note_on_c, 0, 67, 50
4, 30589, Note_on_c, 0, 66, 0
4, 30590, Note_on_c, 0, 57, 0
4, 30591, Note_on_c, 0, 68, 40
4, 30591, Control_c, 0, 64, 127
4, 30597, Note_on_c, 0, 69, 28
4, 30599, Note_on_c, 0, 67, 0
4, 30602, Note_on_c, 0, 69, 0
4, 30606, Note_on_c, 0, 68, 0
4, 30609, Note_on_c, 0, 59, 33
4, 30612, Control_c, 0, 64, 0
4, 30616, Note_on_c, 0, 59, 0
4, 30622, Note_on_c, 0, 72, 67
4, 30622, Note_on_c, 0, 62, 68
4, 30622, Note_on_c, 0, 60, 74
4, 30624, Note_on_c, 0, 65, 55
4, 30628, Note_on_c, 0, 69, 27
4, 30638, Note_on_c, 0, 60, 0
4, 30639, Note_on_c, 0, 65, 0
4, 30640, Note_on_c, 0, 62, 0
4, 30642, Note_on_c, 0, 69, 0
4, 30644, Note_on_c, 0, 72, 0
4, 30664, Note_on_c, 0, 75, 62
4, 30665, Note_on_c, 0, 64, 46
4, 30665, Note_on_c, 0, 63, 79
4, 30668, Note_on_c, 0, 70, 33
4, 30669, Note_on_c, 0, 67, 53
4, 30681, Note_on_c, 0, 63, 0
4, 30681, Note_on_c, 0, 64, 0
4, 30684, Note_on_c, 0, 70, 0
4, 30686, Note_on_c, 0, 75, 0
4, 30688, Note_on_c, 0, 67, 0
4, 30702, Note_on_c, 0, 73, 48
4, 30706, Note_on_c, 0, 64, 51
4, 30708, Note_on_c, 0, 67, 35
4, 30712, Note_on_c, 0, 59, 30
4, 30713, Note_on_c, 0, 70, 20
4, 30718, Note_on_c, 0, 59, 0
4, 30720, Note_on_c, 0, 70, 0
4, 30721, Note_on_c, 0, 67, 0
4, 30722, Note_on_c, 0, 64, 0
4, 30727, Note_on_c, 0, 73, 0
4, 30744, Note_on_c, 0, 57, 47
4, 30744, Note_on_c, 0, 67, 55
4, 30746, Note_on_c, 0, 72, 44
4, 30776, Note_on_c, 0, 72, 0
4, 30776, Note_on_c, 0, 67, 0
4, 30784, Note_on_c, 0, 60, 52
4, 30786, Note_on_c, 0, 45, 58
4, 30800, Note_on_c, 0, 45, 0
4, 30805, Note_on_c, 0, 57, 0
4, 30812, Control_c, 0, 64, 127
4, 30834, Note_on_c, 0, 60, 0
4, 30863, Control_c, 0, 64, 0
4, 30872, Control_c, 0, 64, 127
4, 30902, Control_c, 0, 64, 0
4, 30914, Note_on_c, 0, 72, 57
4, 30915, Note_on_c, 0, 65, 64
4, 30916, Note_on_c, 0, 61, 55
4, 30917, Note_on_c, 0, 60, 29
4, 30918, Note_on_c, 0, 55, 55
4, 30918, Control_c, 0, 64, 127
4, 30925, Note_on_c, 0, 60, 0
4, 30925, Note_on_c, 0, 65, 0
4, 30929, Note_on_c, 0, 55, 0
4, 30931, Note_on_c, 0, 61, 0
4, 30931, Note_on_c, 0, 72, 0
4, 30945, Control_c, 0, 64, 0
4, 30954, Note_on_c, 0, 60, 73
4, 30954, Note_on_c, 0, 54, 72
4, 30954, Note_on_c, 0, 70, 85
4, 30955, Note_on_c, 0, 77, 78
4, 30956, Note_on_c, 0, 65, 88
4, 30958, Note_on_c, 0, 74, 54
4, 30982, Control_c, 0, 64, 127
4, 30984, Note_on_c, 0, 65, 0
4, 30986, Note_on_c, 0, 70, 0
4, 30986, Note_on_c, 0, 54, 0
4, 30987, Note_on_c, 0, 60, 0
4, 30988, Note_on_c, 0, 74, 0
4, 30996, Note_on_c, 0, 54, 49
4, 30996, Note_on_c, 0, 70, 67
4, 30999, Note_on_c, 0, 60, 51
4, 30999, Note_on_c, 0, 65, 51
4, 31010, Note_on_c, 0, 70, 0
4, 31010, Note_on_c, 0, 77, 0
4, 31012, Note_on_c, 0, 65, 0
4, 31012, Note_on_c, 0, 60, 0
4, 31017, Control_c, 0, 64, 0
4, 31022, Note_on_c, 0, 60, 40
4, 31022, Note_on_c, 0, 65, 65
4, 31024, Note_on_c, 0, 74, 44
4, 31024, Note_on_c, 0, 76, 44
4, 31034, Note_on_c, 0, 76, 0
4, 31041, Note_on_c, 0, 65, 0
4, 31042, Note_on_c, 0, 74, 0
4, 31042, Note_on_c, 0, 60, 0
4, 31043, Control_c, 0, 64, 127
4, 31044, Note_on_c, 0, 54, 0
4, 31053, Note_on_c, 0, 74, 54
4, 31056, Note_on_c, 0, 65, 56
4, 31057, Note_on_c, 0, 54, 52
4, 31059, Note_on_c, 0, 60, 49
4, 31067, Note_on_c, 0, 74, 0
4, 31068, Note_on_c, 0, 65, 0
4, 31071, Note_on_c, 0, 60, 0
4, 31074, Note_on_c, 0, 54, 0
4, 31075, Control_c, 0, 64, 0
4, 31083, Note_on_c, 0, 72, 42
4, 31083, Note_on_c, 0, 54, 32
4, 31087, Note_on_c, 0, 70, 39
4, 31088, Note_on_c, 0, 71, 26
4, 31089, Note_on_c, 0, 60, 27
4, 31094, Note_on_c, 0, 70, 0
4, 31096, Note_on_c, 0, 67, 29
4, 31103, Note_on_c, 0, 67, 0
4, 31109, Note_on_c, 0, 54, 0
4, 31112, Control_c, 0, 64, 127
4, 31115, Note_on_c, 0, 72, 0
4, 31119, Note_on_c, 0, 54, 33
4, 31122, Note_on_c, 0, 71, 0
4, 31123, Note_on_c, 0, 62, 30
4, 31130, Note_on_c, 0, 60, 0
4, 31147, Note_on_c, 0, 54, 0
4, 31148, Note_on_c, 0, 62, 0
4, 31172, Note_on_c, 0, 55, 42
4, 31172, Note_on_c, 0, 65, 59
4, 31172, Note_on_c, 0, 58, 46
4, 31173, Note_on_c, 0, 62, 36
4, 31176, Control_c, 0, 64, 0
4, 31215, Control_c, 0, 64, 127
4, 31254, Note_on_c, 0, 55, 0
4, 31265, Note_on_c, 0, 58, 0
4, 31270, Note_on_c, 0, 62, 0
4, 31286, Note_on_c, 0, 55, 28
4, 31289, Note_on_c, 0, 65, 0
4, 31298, Note_on_c, 0, 55, 0
4, 31323, Note_on_c, 0, 67, 53
4, 31323, Note_on_c, 0, 64, 63
4, 31324, Note_on_c, 0, 60, 60
4, 31327, Control_c, 0, 64, 0
4, 31334, Note_on_c, 0, 57, 20
4, 31354, Control_c, 0, 64, 127
4, 31364, Note_on_c, 0, 67, 0
4, 31369, Note_on_c, 0, 64, 0
4, 31370, Note_on_c, 0, 57, 0
4, 31381, Note_on_c, 0, 60, 0
4, 31402, Note_on_c, 0, 53, 45
4, 31411, Note_on_c, 0, 53, 0
4, 31436, Control_c, 0, 64, 0
4, 31442, Note_on_c, 0, 46, 43
4, 31442, Note_on_c, 0, 58, 39
4, 31442, Note_on_c, 0, 62, 37
4, 31444, Note_on_c, 0, 65, 46
4, 31457, Control_c, 0, 64, 127
4, 31458, Note_on_c, 0, 62, 0
4, 31462, Note_on_c, 0, 58, 0
4, 31463, Note_on_c, 0, 46, 0
4, 31464, Note_on_c, 0, 65, 0
4, 31520, Note_on_c, 0, 60, 83
4, 31536, Note_on_c, 0, 60, 0
4, 31554, Note_on_c, 0, 60, 32
4, 31556, Note_on_c, 0, 61, 60
4, 31557, Control_c, 0, 64, 0
4, 31557, Note_on_c, 0, 48, 49
4, 31564, Note_on_c, 0, 60, 0
4, 31566, Note_on_c, 0, 48, 0
4, 31571, Note_on_c, 0, 62, 53
4, 31576, Note_on_c, 0, 61, 0
4, 31598, Note_on_c, 0, 65, 55
4, 31600, Note_on_c, 0, 62, 0
4, 31612, Note_on_c, 0, 65, 0
4, 31618, Control_c, 0, 64, 127
4, 31675, Note_on_c, 0, 67, 68
4, 31676, Note_on_c, 0, 56, 62
4, 31676, Note_on_c, 0, 55, 56
4, 31677, Control_c, 0, 64, 0
4, 31677, Note_on_c, 0, 60, 66
4, 31679, Note_on_c, 0, 63, 40
4, 31698, Note_on_c, 0, 56, 0
4, 31700, Note_on_c, 0, 67, 0
4, 31701, Note_on_c, 0, 55, 0
4, 31703, Note_on_c, 0, 60, 0
4, 31706, Note_on_c, 0, 63, 0
4, 31715, Note_on_c, 0, 53, 36
4, 31731, Note_on_c, 0, 53, 0
4, 31738, Note_on_c, 0, 65, 58
4, 31739, Note_on_c, 0, 56, 51
4, 31740, Note_on_c, 0, 60, 60
4, 31743, Note_on_c, 0, 53, 40
4, 31769, Note_on_c, 0, 60, 0
4, 31770, Control_c, 0, 64, 127
4, 31772, Note_on_c, 0, 65, 0
4, 31776, Note_on_c, 0, 56, 0
4, 31795, Note_on_c, 0, 53, 0
4, 31799, Note_on_c, 0, 63, 47
4, 31800, Control_c, 0, 64, 0
4, 31801, Note_on_c, 0, 51, 46
4, 31803, Note_on_c, 0, 53, 39
4, 31805, Note_on_c, 0, 56, 26
4, 31809, Note_on_c, 0, 60, 29
4, 31826, Note_on_c, 0, 60, 0
4, 31828, Note_on_c, 0, 51, 0
4, 31829, Control_c, 0, 64, 127
4, 31830, Note_on_c, 0, 53, 0
4, 31841, Note_on_c, 0, 63, 0
4, 31841, Note_on_c, 0, 51, 35
4, 31841, Note_on_c, 0, 60, 55
4, 31849, Note_on_c, 0, 56, 0
4, 31853, Note_on_c, 0, 60, 0
4, 31872, Note_on_c, 0, 51, 0
4, 31923, Control_c, 0, 64, 0
4, 31923, Note_on_c, 0, 65, 54
4, 31924, Note_on_c, 0, 56, 32
4, 31924, Note_on_c, 0, 46, 32
4, 31924, Note_on_c, 0, 61, 43
4, 31925, Note_on_c, 0, 72, 46
4, 31956, Control_c, 0, 64, 127
4, 32001, Note_on_c, 0, 56, 0
4, 32006, Note_on_c, 0, 65, 0
4, 32009, Note_on_c, 0, 61, 0
4, 32016, Note_on_c, 0, 72, 0
4, 32038, Control_c, 0, 64, 0
4, 32043, Note_on_c, 0, 70, 46
4, 32043, Note_on_c, 0, 56, 30
4, 32043, Note_on_c, 0, 61, 37
4, 32047, Note_on_c, 0, 65, 39
4, 32057, Control_c, 0, 64, 127
4, 32096, Note_on_c, 0, 61, 0
4, 32097, Note_on_c, 0, 65, 0
4, 32102, Note_on_c, 0, 46, 0
4, 32103, Note_on_c, 0, 70, 0
4, 32106, Note_on_c, 0, 56, 0
4, 32162, Note_on_c, 0, 70, 74
4, 32162, Note_on_c, 0, 63, 77
4, 32162, Note_on_c, 0, 58, 80
4, 32164, Note_on_c, 0, 59, 87
4, 32165, Control_c, 0, 64, 0
4, 32165, Note_on_c, 0, 67, 66
4, 32181, Note_on_c, 0, 67, 0
4, 32186, Note_on_c, 0, 70, 0
4, 32188, Note_on_c, 0, 63, 0
4, 32197, Note_on_c, 0, 58, 0
4, 32198, Control_c, 0, 64, 127
4, 32200, Note_on_c, 0, 57, 42
4, 32201, Note_on_c, 0, 59, 0
4, 32206, Note_on_c, 0, 57, 0
4, 32207, Note_on_c, 0, 56, 54
4, 32221, Note_on_c, 0, 54, 30
4, 32225, Note_on_c, 0, 56, 0
4, 32227, Control_c, 0, 64, 0
4, 32229, Note_on_c, 0, 54, 0
4, 32232, Note_on_c, 0, 67, 69
4, 32232, Note_on_c, 0, 59, 62
4, 32233, Note_on_c, 0, 56, 52
4, 32234, Note_on_c, 0, 55, 55
4, 32236, Note_on_c, 0, 62, 42
4, 32281, Note_on_c, 0, 55, 0
4, 32287, Control_c, 0, 64, 127
4, 32314, Note_on_c, 0, 62, 0
4, 32316, Note_on_c, 0, 59, 0
4, 32320, Note_on_c, 0, 56, 0
4, 32324, Note_on_c, 0, 67, 0
4, 32345, Note_on_c, 0, 62, 41
4, 32354, Note_on_c, 0, 62, 0
4, 32410, Control_c, 0, 64, 0
4, 32415, Note_on_c, 0, 65, 71
4, 32416, Note_on_c, 0, 70, 67
4, 32416, Note_on_c, 0, 77, 61
4, 32416, Note_on_c, 0, 67, 79
4, 32417, Note_on_c, 0, 74, 58
4, 32424, Note_on_c, 0, 67, 0
4, 32425, Note_on_c, 0, 70, 0
4, 32426, Note_on_c, 0, 74, 0
4, 32428, Note_on_c, 0, 65, 0
4, 32430, Note_on_c, 0, 77, 0
4, 32466, Note_on_c, 0, 65, 62
4, 32466, Note_on_c, 0, 70, 70
4, 32466, Note_on_c, 0, 77, 64
4, 32466, Note_on_c, 0, 74, 59
4, 32467, Note_on_c, 0, 67, 75
4, 32490, Note_on_c, 0, 74, 0
4, 32496, Note_on_c, 0, 65, 0
4, 32503, Note_on_c, 0, 77, 0
4, 32503, Note_on_c, 0, 62, 41
4, 32504, Note_on_c, 0, 74, 31
4, 32514, Note_on_c, 0, 74, 0
4, 32515, Note_on_c, 0, 67, 0
4, 32520, Note_on_c, 0, 70, 0
4, 32534, Note_on_c, 0, 62, 0
4, 32558, Note_on_c, 0, 76, 64
4, 32560, Note_on_c, 0, 73, 38
4, 32560, Note_on_c, 0, 67, 64
4, 32561, Note_on_c, 0, 64, 55
4, 32569, Note_on_c, 0, 73, 0
4, 32575, Note_on_c, 0, 67, 0
4, 32578, Note_on_c, 0, 76, 0
4, 32589, Note_on_c, 0, 64, 0
4, 32591, Note_on_c, 0, 75, 69
4, 32593, Note_on_c, 0, 63, 52
4, 32594, Note_on_c, 0, 67, 53
4, 32595, Note_on_c, 0, 70, 53
4, 32606, Note_on_c, 0, 67, 0
4, 32609, Note_on_c, 0, 75, 0
4, 32611, Note_on_c, 0, 70, 0
4, 32613, Note_on_c, 0, 63, 0
4, 32620, Note_on_c, 0, 62, 41
4, 32622, Note_on_c, 0, 74, 55
4, 32624, Note_on_c, 0, 67, 38
4, 32628, Note_on_c, 0, 73, 23
4, 32634, Note_on_c, 0, 73, 0
4, 32634, Note_on_c, 0, 67, 0
4, 32634, Note_on_c, 0, 74, 0
4, 32640, Note_on_c, 0, 62, 0
4, 32647, Note_on_c, 0, 73, 42
4, 32649, Note_on_c, 0, 61, 50
4, 32649, Note_on_c, 0, 68, 52
4, 32665, Note_on_c, 0, 73, 0
4, 32667, Note_on_c, 0, 68, 0
4, 32667, Note_on_c, 0, 61, 0
4, 32677, Note_on_c, 0, 72, 45
4, 32677, Note_on_c, 0, 60, 40
4, 32680, Note_on_c, 0, 67, 53
4, 32695, Note_on_c, 0, 67, 0
4, 32700, Note_on_c, 0, 72, 0
4, 32702, Note_on_c, 0, 60, 0
4, 32716, Note_on_c, 0, 69, 59
4, 32718, Note_on_c, 0, 60, 53
4, 32719, Note_on_c, 0, 57, 46
4, 32749, Control_c, 0, 64, 127
4, 32752, Note_on_c, 0, 60, 0
4, 32754, Note_on_c, 0, 57, 0
4, 32769, Note_on_c, 0, 57, 40
4, 32771, Note_on_c, 0, 65, 65
4, 32787, Note_on_c, 0, 57, 0
4, 32794, Note_on_c, 0, 69, 0
4, 32800, Note_on_c, 0, 65, 0
4, 32851, Note_on_c, 0, 60, 63
4, 32852, Note_on_c, 0, 54, 56
4, 32855, Note_on_c, 0, 64, 30
4, 32858, Note_on_c, 0, 70, 25
4, 32861, Note_on_c, 0, 64, 0
4, 32861, Control_c, 0, 64, 0
4, 32864, Note_on_c, 0, 70, 0
4, 32892, Control_c, 0, 64, 127
4, 32929, Note_on_c, 0, 60, 0
4, 32934, Note_on_c, 0, 54, 0
4, 32969, Note_on_c, 0, 54, 43
4, 32970, Note_on_c, 0, 60, 48
4, 32971, Note_on_c, 0, 65, 51
4, 32984, Control_c, 0, 64, 0
4, 33004, Control_c, 0, 64, 127
4, 33030, Note_on_c, 0, 65, 0
4, 33040, Note_on_c, 0, 60, 0
4, 33045, Note_on_c, 0, 54, 0
4, 33082, Note_on_c, 0, 54, 49
4, 33097, Note_on_c, 0, 54, 0
4, 33110, Control_c, 0, 64, 0
4, 33125, Note_on_c, 0, 55, 50
4, 33125, Note_on_c, 0, 72, 59
4, 33126, Note_on_c, 0, 64, 45
4, 33126, Note_on_c, 0, 84, 57
4, 33127, Note_on_c, 0, 79, 41
4, 33128, Control_c, 0, 64, 127
4, 33128, Note_on_c, 0, 57, 47
4, 33128, Note_on_c, 0, 60, 42
4, 33138, Note_on_c, 0, 72, 0
4, 33142, Note_on_c, 0, 64, 0
4, 33143, Note_on_c, 0, 79, 0
4, 33145, Note_on_c, 0, 55, 0
4, 33147, Note_on_c, 0, 84, 0
4, 33148, Note_on_c, 0, 60, 0
4, 33165, Note_on_c, 0, 57, 0
4, 33208, Note_on_c, 0, 88, 85
4, 33208, Note_on_c, 0, 76, 84
4, 33208, Note_on_c, 0, 57, 78
4, 33209, Note_on_c, 0, 83, 80
4, 33209, Note_on_c, 0, 64, 83
4, 33209, Note_on_c, 0, 55, 80
4, 33210, Note_on_c, 0, 60, 71
4, 33219, Note_on_c, 0, 76, 0
4, 33224, Note_on_c, 0, 55, 0
4, 33225, Note_on_c, 0, 83, 0
4, 33228, Note_on_c, 0, 64, 0
4, 33229, Note_on_c, 0, 88, 0
4, 33232, Note_on_c, 0, 60, 0
4, 33232, Note_on_c, 0, 57, 0
4, 33240, Control_c, 0, 64, 0
4, 33246, Note_on_c, 0, 55, 73
4, 33247, Note_on_c, 0, 64, 73
4, 33248, Note_on_c, 0, 57, 60
4, 33248, Note_on_c, 0, 60, 60
4, 33249, Note_on_c, 0, 91, 80
4, 33250, Note_on_c, 0, 79, 67
4, 33250, Note_on_c, 0, 86, 75
4, 33257, Note_on_c, 0, 79, 0
4, 33259, Note_on_c, 0, 55, 0
4, 33259, Note_on_c, 0, 60, 0
4, 33260, Note_on_c, 0, 64, 0
4, 33261, Note_on_c, 0, 86, 0
4, 33263, Note_on_c, 0, 57, 0
4, 33264, Note_on_c, 0, 91, 0
4, 33287, Note_on_c, 0, 95, 76
4, 33287, Note_on_c, 0, 83, 66
4, 33288, Note_on_c, 0, 60, 43
4, 33288, Note_on_c, 0, 64, 42
4, 33288, Note_on_c, 0, 57, 42
4, 33289, Note_on_c, 0, 55, 45
4, 33289, Note_on_c, 0, 89, 51
4, 33293, Note_on_c, 0, 83, 0
4, 33293, Control_c, 0, 64, 127
4, 33295, Note_on_c, 0, 55, 0
4, 33295, Note_on_c, 0, 60, 0
4, 33295, Note_on_c, 0, 64, 0
4, 33295, Note_on_c, 0, 57, 0
4, 33295, Note_on_c, 0, 89, 0
4, 33296, Note_on_c, 0, 95, 0
4, 33304, Control_c, 0, 64, 0
4, 33324, Note_on_c, 0, 55, 82
4, 33325, Note_on_c, 0, 85, 94
4, 33326, Note_on_c, 0, 97, 86
4, 33327, Note_on_c, 0, 60, 74
4, 33327, Note_on_c, 0, 64, 74
4, 33329, Note_on_c, 0, 91, 57
4, 33335, Note_on_c, 0, 91, 0
4, 33338, Control_c, 0, 64, 127
4, 33339, Note_on_c, 0, 64, 0
4, 33342, Note_on_c, 0, 85, 0
4, 33343, Note_on_c, 0, 60, 0
4, 33346, Note_on_c, 0, 55, 0
4, 33347, Note_on_c, 0, 97, 0
4, 33357, Control_c, 0, 64, 0
4, 33366, Note_on_c, 0, 94, 71
4, 33366, Note_on_c, 0, 54, 72
4, 33366, Note_on_c, 0, 64, 74
4, 33367, Note_on_c, 0, 60, 68
4, 33368, Note_on_c, 0, 91, 65
4, 33368, Note_on_c, 0, 98, 75
4, 33368, Note_on_c, 0, 86, 67
4, 33377, Note_on_c, 0, 94, 0
4, 33378, Control_c, 0, 64, 127
4, 33379, Note_on_c, 0, 91, 0
4, 33379, Note_on_c, 0, 86, 0
4, 33380, Note_on_c, 0, 98, 0
4, 33381, Note_on_c, 0, 64, 0
4, 33382, Note_on_c, 0, 60, 0
4, 33387, Note_on_c, 0, 54, 0
4, 33397, Control_c, 0, 64, 0
4, 33403, Note_on_c, 0, 92, 76
4, 33403, Note_on_c, 0, 80, 68
4, 33404, Note_on_c, 0, 54, 69
4, 33404, Note_on_c, 0, 64, 71
4, 33405, Note_on_c, 0, 60, 64
4, 33409, Note_on_c, 0, 90, 35
4, 33410, Note_on_c, 0, 86, 44
4, 33414, Note_on_c, 0, 90, 0
4, 33417, Note_on_c, 0, 93, 59
4, 33423, Note_on_c, 0, 80, 0
4, 33424, Note_on_c, 0, 81, 45
4, 33428, Note_on_c, 0, 92, 0
4, 33428, Control_c, 0, 64, 127
4, 33437, Note_on_c, 0, 88, 1
4, 33438, Note_on_c, 0, 93, 0
4, 33447, Note_on_c, 0, 88, 0
4, 33448, Note_on_c, 0, 81, 0
4, 33449, Note_on_c, 0, 86, 0
4, 33459, Note_on_c, 0, 64, 0
4, 33464, Note_on_c, 0, 54, 0
4, 33464, Note_on_c, 0, 60, 0
4, 33479, Control_c, 0, 64, 0
4, 33485, Note_on_c, 0, 89, 71
4, 33486, Note_on_c, 0, 54, 59
4, 33486, Note_on_c, 0, 77, 55
4, 33488, Note_on_c, 0, 60, 50
4, 33488, Note_on_c, 0, 64, 47
4, 33488, Note_on_c, 0, 84, 58
4, 33494, Control_c, 0, 64, 127
4, 33495, Note_on_c, 0, 84, 0
4, 33498, Note_on_c, 0, 89, 0
4, 33500, Note_on_c, 0, 64, 0
4, 33502, Note_on_c, 0, 77, 0
4, 33506, Note_on_c, 0, 54, 0
4, 33506, Note_on_c, 0, 60, 0
4, 33525, Note_on_c, 0, 54, 51
4, 33529, Note_on_c, 0, 86, 38
4, 33532, Note_on_c, 0, 84, 28
4, 33536, Note_on_c, 0, 86, 0
4, 33537, Note_on_c, 0, 84, 0
4, 33546, Note_on_c, 0, 54, 0
4, 33561, Note_on_c, 0, 89, 75
4, 33563, Note_on_c, 0, 77, 62
4, 33563, Note_on_c, 0, 64, 60
4, 33564, Note_on_c, 0, 59, 57
4, 33565, Note_on_c, 0, 53, 54
4, 33566, Note_on_c, 0, 84, 53
4, 33566, Control_c, 0, 64, 0
4, 33572, Note_on_c, 0, 84, 0
4, 33580, Note_on_c, 0, 77, 0
4, 33581, Note_on_c, 0, 89, 0
4, 33582, Note_on_c, 0, 53, 0
4, 33582, Note_on_c, 0, 64, 0
4, 33587, Note_on_c, 0, 59, 0
4, 33592, Control_c, 0, 64, 127
4, 33611, Control_c, 0, 64, 0
4, 33635, Note_on_c, 0, 75, 61
4, 33635, Note_on_c, 0, 80, 59
4, 33636, Note_on_c, 0, 59, 57
4, 33636, Note_on_c, 0, 64, 53
4, 33636, Note_on_c, 0, 53, 55
4, 33637, Note_on_c, 0, 87, 61
4, 33644, Note_on_c, 0, 80, 0
4, 33648, Note_on_c, 0, 75, 0
4, 33648, Note_on_c, 0, 88, 54
4, 33649, Note_on_c, 0, 87, 0
4, 33651, Control_c, 0, 64, 127
4, 33652, Note_on_c, 0, 76, 33
4, 33662, Note_on_c, 0, 88, 0
4, 33669, Note_on_c, 0, 76, 0
4, 33684, Note_on_c, 0, 64, 0
4, 33684, Note_on_c, 0, 53, 0
4, 33685, Note_on_c, 0, 59, 0
4, 33701, Control_c, 0, 64, 0
4, 33720, Note_on_c, 0, 53, 46
4, 33720, Note_on_c, 0, 73, 35
4, 33720, Note_on_c, 0, 85, 59
4, 33720, Note_on_c, 0, 59, 49
4, 33721, Note_on_c, 0, 64, 39
4, 33726, Control_c, 0, 64, 127
4, 33738, Note_on_c, 0, 73, 0
4, 33739, Note_on_c, 0, 85, 0
4, 33740, Note_on_c, 0, 64, 0
4, 33745, Note_on_c, 0, 59, 0
4, 33749, Note_on_c, 0, 53, 0
4, 33806, Note_on_c, 0, 81, 59
4, 33807, Note_on_c, 0, 59, 44
4, 33807, Note_on_c, 0, 53, 38
4, 33807, Note_on_c, 0, 64, 48
4, 33807, Note_on_c, 0, 69, 56
4, 33813, Control_c, 0, 64, 0
4, 33844, Note_on_c, 0, 69, 0
4, 33847, Note_on_c, 0, 81, 0
4, 33855, Note_on_c, 0, 76, 36
4, 33868, Note_on_c, 0, 76, 0
4, 33884, Note_on_c, 0, 73, 44
4, 33889, Note_on_c, 0, 64, 0
4, 33905, Note_on_c, 0, 73, 0
4, 33914, Note_on_c, 0, 69, 46
4, 33925, Note_on_c, 0, 69, 0
4, 33949, Note_on_c, 0, 53, 0
4, 33958, Note_on_c, 0, 59, 0
4, 33974, Note_on_c, 0, 59, 30
4, 33976, Note_on_c, 0, 53, 27
4, 34014, Note_on_c, 0, 59, 0
4, 34017, Note_on_c, 0, 61, 74
4, 34032, Note_on_c, 0, 61, 0
4, 34034, Note_on_c, 0, 53, 0
4, 34055, Note_on_c, 0, 61, 49
4, 34075, Note_on_c, 0, 57, 42
4, 34079, Note_on_c, 0, 61, 0
4, 34084, Note_on_c, 0, 57, 0
4, 34097, Note_on_c, 0, 60, 70
4, 34104, Note_on_c, 0, 53, 16
4, 34119, Note_on_c, 0, 60, 0
4, 34121, Note_on_c, 0, 53, 0
4, 34126, Note_on_c, 0, 57, 44
4, 34136, Note_on_c, 0, 57, 0
4, 34136, Note_on_c, 0, 53, 8
4, 34153, Note_on_c, 0, 58, 27
4, 34165, Note_on_c, 0, 58, 0
4, 34174, Note_on_c, 0, 59, 30
4, 34192, Note_on_c, 0, 59, 0
4, 34196, Note_on_c, 0, 62, 70
4, 34210, Note_on_c, 0, 53, 0
4, 34218, Note_on_c, 0, 62, 0
4, 34222, Note_on_c, 0, 65, 41
4, 34223, Note_on_c, 0, 47, 37
4, 34224, Note_on_c, 0, 56, 21
4, 34229, Note_on_c, 0, 65, 0
4, 34250, Note_on_c, 0, 68, 34
4, 34264, Note_on_c, 0, 68, 0
4, 34274, Note_on_c, 0, 71, 49
4, 34281, Note_on_c, 0, 71, 0
4, 34290, Note_on_c, 0, 74, 85
4, 34309, Note_on_c, 0, 47, 0
4, 34314, Note_on_c, 0, 74, 0
4, 34317, Note_on_c, 0, 71, 60
4, 34327, Note_on_c, 0, 56, 0
4, 34331, Note_on_c, 0, 71, 0
4, 34339, Note_on_c, 0, 72, 71
4, 34342, Note_on_c, 0, 58, 46
4, 34342, Note_on_c, 0, 48, 49
4, 34359, Note_on_c, 0, 72, 0
4, 34371, Note_on_c, 0, 67, 58
4, 34386, Note_on_c, 0, 67, 0
4, 34401, Note_on_c, 0, 60, 24
4, 34416, Note_on_c, 0, 58, 0
4, 34418, Note_on_c, 0, 60, 0
4, 34422, Note_on_c, 0, 48, 0
4, 34452, Note_on_c, 0, 46, 47
4, 34453, Note_on_c, 0, 56, 34
4, 34531, Note_on_c, 0, 56, 0
4, 34533, Note_on_c, 0, 52, 46
4, 34552, Note_on_c, 0, 46, 0
4, 34561, Note_on_c, 0, 52, 0
4, 34575, Note_on_c, 0, 55, 33
4, 34575, Note_on_c, 0, 45, 37
4, 34584, Note_on_c, 0, 60, 51
4, 34593, Note_on_c, 0, 60, 0
4, 34598, Note_on_c, 0, 61, 47
4, 34608, Note_on_c, 0, 61, 0
4, 34619, Note_on_c, 0, 55, 0
4, 34621, Note_on_c, 0, 65, 56
4, 34633, Note_on_c, 0, 45, 0
4, 34636, Note_on_c, 0, 65, 0
4, 34640, Note_on_c, 0, 66, 43
4, 34656, Note_on_c, 0, 66, 0
4, 34692, Note_on_c, 0, 61, 36
4, 34694, Note_on_c, 0, 65, 40
4, 34695, Note_on_c, 0, 60, 43
4, 34696, Note_on_c, 0, 55, 44
4, 34731, Note_on_c, 0, 72, 44
4, 34741, Note_on_c, 0, 72, 0
4, 34750, Note_on_c, 0, 77, 28
4, 34751, Note_on_c, 0, 65, 0
4, 34763, Note_on_c, 0, 82, 62
4, 34764, Note_on_c, 0, 60, 0
4, 34769, Note_on_c, 0, 77, 0
4, 34769, Note_on_c, 0, 55, 0
4, 34771, Note_on_c, 0, 61, 0
4, 34776, Note_on_c, 0, 82, 0
4, 34786, Note_on_c, 0, 84, 87
4, 34802, Note_on_c, 0, 84, 0
4, 34814, Note_on_c, 0, 64, 49
4, 34816, Note_on_c, 0, 78, 71
4, 34817, Note_on_c, 0, 54, 30
4, 34817, Note_on_c, 0, 60, 41
4, 34830, Note_on_c, 0, 78, 0
4, 34834, Note_on_c, 0, 64, 0
4, 34840, Note_on_c, 0, 82, 67
4, 34855, Note_on_c, 0, 78, 25
4, 34861, Note_on_c, 0, 82, 0
4, 34866, Note_on_c, 0, 78, 0
4, 34870, Note_on_c, 0, 76, 28
4, 34871, Note_on_c, 0, 77, 24
4, 34879, Note_on_c, 0, 76, 0
4, 34880, Note_on_c, 0, 77, 0
4, 34889, Note_on_c, 0, 60, 0
4, 34890, Note_on_c, 0, 54, 0
4, 34892, Note_on_c, 0, 75, 72
4, 34900, Note_on_c, 0, 74, 48
4, 34907, Note_on_c, 0, 74, 0
4, 34908, Note_on_c, 0, 75, 0
4, 34918, Note_on_c, 0, 74, 59
4, 34919, Note_on_c, 0, 54, 39
4, 34921, Note_on_c, 0, 60, 32
4, 34923, Note_on_c, 0, 62, 33
4, 34945, Note_on_c, 0, 74, 0
4, 34948, Note_on_c, 0, 72, 71
4, 34959, Note_on_c, 0, 60, 0
4, 34963, Note_on_c, 0, 72, 0
4, 34973, Note_on_c, 0, 70, 47
4, 34994, Note_on_c, 0, 62, 0
4, 35004, Note_on_c, 0, 70, 0
4, 35023, Note_on_c, 0, 54, 0
4, 35031, Note_on_c, 0, 62, 34
4, 35033, Note_on_c, 0, 70, 72
4, 35033, Note_on_c, 0, 59, 46
4, 35034, Note_on_c, 0, 53, 38
4, 35034, Note_on_c, 0, 74, 50
4, 35053, Note_on_c, 0, 74, 0
4, 35056, Note_on_c, 0, 70, 0
4, 35060, Note_on_c, 0, 62, 0
4, 35066, Note_on_c, 0, 71, 71
4, 35068, Note_on_c, 0, 74, 32
4, 35080, Note_on_c, 0, 74, 0
4, 35085, Note_on_c, 0, 71, 0
4, 35099, Note_on_c, 0, 67, 31
4, 35106, Note_on_c, 0, 53, 0
4, 35108, Note_on_c, 0, 59, 0
4, 35120, Note_on_c, 0, 67, 0
4, 35137, Note_on_c, 0, 62, 28
4, 35144, Note_on_c, 0, 62, 0
4, 35146, Note_on_c, 0, 53, 32
4, 35156, Note_on_c, 0, 69, 71
4, 35157, Note_on_c, 0, 65, 59
4, 35159, Note_on_c, 0, 64, 58
4, 35165, Note_on_c, 0, 64, 0
4, 35165, Note_on_c, 0, 53, 0
4, 35179, Note_on_c, 0, 65, 0
4, 35180, Note_on_c, 0, 69, 0
4, 35214, Note_on_c, 0, 63, 57
4, 35236, Note_on_c, 0, 63, 0
4, 35254, Note_on_c, 0, 67, 71
4, 35255, Note_on_c, 0, 62, 62
4, 35258, Note_on_c, 0, 47, 35
4, 35259, Note_on_c, 0, 66, 32
4, 35269, Note_on_c, 0, 62, 0
4, 35271, Note_on_c, 0, 66, 0
4, 35278, Note_on_c, 0, 47, 0
4, 35280, Note_on_c, 0, 67, 0
4, 35293, Note_on_c, 0, 48, 54
4, 35307, Note_on_c, 0, 48, 0
4, 35321, Note_on_c, 0, 70, 65
4, 35323, Note_on_c, 0, 71, 75
4, 35331, Note_on_c, 0, 70, 0
4, 35337, Note_on_c, 0, 71, 0
4, 35348, Note_on_c, 0, 72, 71
4, 35363, Note_on_c, 0, 72, 0
4, 35385, Note_on_c, 0, 75, 75
4, 35387, Note_on_c, 0, 36, 60
4, 35391, Note_on_c, 0, 76, 41
4, 35392, Note_on_c, 0, 48, 13
4, 35397, Note_on_c, 0, 76, 0
4, 35404, Note_on_c, 0, 75, 0
4, 35405, Note_on_c, 0, 36, 0
4, 35416, Note_on_c, 0, 48, 0
4, 35421, Note_on_c, 0, 72, 78
4, 35434, Note_on_c, 0, 71, 44
4, 35442, Note_on_c, 0, 70, 49
4, 35451, Note_on_c, 0, 72, 0
4, 35456, Note_on_c, 0, 71, 0
4, 35462, Note_on_c, 0, 70, 0
4, 35465, Note_on_c, 0, 68, 18
4, 35478, Note_on_c, 0, 65, 48
4, 35479, Note_on_c, 0, 68, 0
4, 35484, Note_on_c, 0, 65, 0
4, 35498, Note_on_c, 0, 70, 83
4, 35528, Note_on_c, 0, 70, 0
4, 35528, Note_on_c, 0, 62, 24
4, 35531, Note_on_c, 0, 68, 49
4, 35532, Note_on_c, 0, 57, 30
4, 35533, Note_on_c, 0, 53, 15
4, 35533, Note_on_c, 0, 60, 29
4, 35544, Note_on_c, 0, 68, 0
4, 35546, Note_on_c, 0, 62, 0
4, 35555, Note_on_c, 0, 69, 74
4, 35559, Note_on_c, 0, 60, 0
4, 35573, Note_on_c, 0, 57, 0
4, 35574, Note_on_c, 0, 69, 0
4, 35587, Note_on_c, 0, 60, 60
4, 35628, Note_on_c, 0, 60, 0
4, 35638, Note_on_c, 0, 53, 0
4, 35644, Note_on_c, 0, 53, 19
4, 35646, Note_on_c, 0, 60, 62
4, 35680, Note_on_c, 0, 53, 0
4, 35686, Note_on_c, 0, 60, 0
4, 35712, Note_on_c, 0, 54, 18
4, 35719, Note_on_c, 0, 62, 85
4, 35720, Note_on_c, 0, 54, 0
4, 35720, Note_on_c, 0, 68, 68
4, 35720, Note_on_c, 0, 55, 52
4, 35720, Note_on_c, 0, 65, 71
4, 35722, Note_on_c, 0, 59, 80
4, 35723, Note_on_c, 0, 56, 81
4, 35726, Note_on_c, 0, 55, 0
4, 35813, Note_on_c, 0, 68, 0
4, 35815, Note_on_c, 0, 59, 0
4, 35816, Note_on_c, 0, 65, 0
4, 35817, Note_on_c, 0, 56, 0
4, 35818, Note_on_c, 0, 62, 0
4, 35820, Note_on_c, 0, 53, 44
4, 35836, Note_on_c, 0, 53, 0
4, 35840, Note_on_c, 0, 67, 73
4, 35841, Note_on_c, 0, 62, 71
4, 35842, Note_on_c, 0, 59, 61
4, 35844, Note_on_c, 0, 55, 60
4, 35857, Note_on_c, 0, 59, 0
4, 35857, Note_on_c, 0, 67, 0
4, 35861, Note_on_c, 0, 62, 0
4, 35876, Note_on_c, 0, 55, 0
4, 35877, Note_on_c, 0, 66, 65
4, 35879, Note_on_c, 0, 58, 54
4, 35880, Note_on_c, 0, 54, 60
4, 35880, Note_on_c, 0, 61, 55
4, 35893, Note_on_c, 0, 61, 0
4, 35893, Note_on_c, 0, 66, 0
4, 35895, Note_on_c, 0, 58, 0
4, 35906, Note_on_c, 0, 54, 0
4, 35907, Note_on_c, 0, 65, 42
4, 35910, Note_on_c, 0, 53, 40
4, 35910, Note_on_c, 0, 60, 28
4, 35914, Note_on_c, 0, 57, 22
4, 35929, Note_on_c, 0, 57, 0
4, 35938, Note_on_c, 0, 60, 0
4, 35938, Note_on_c, 0, 65, 0
4, 35946, Note_on_c, 0, 53, 0
4, 35948, Note_on_c, 0, 50, 51
4, 35948, Note_on_c, 0, 60, 22
4, 35949, Note_on_c, 0, 57, 44
4, 35966, Note_on_c, 0, 57, 0
4, 35966, Note_on_c, 0, 50, 0
4, 35975, Note_on_c, 0, 60, 0
4, 36017, Note_on_c, 0, 46, 35
4, 36018, Note_on_c, 0, 65, 38
4, 36018, Note_on_c, 0, 62, 44
4, 36019, Note_on_c, 0, 58, 46
4, 36070, Note_on_c, 0, 58, 0
4, 36072, Note_on_c, 0, 62, 0
4, 36087, Note_on_c, 0, 62, 38
4, 36088, Note_on_c, 0, 57, 43
4, 36089, Note_on_c, 0, 58, 33
4, 36093, Note_on_c, 0, 53, 29
4, 36100, Note_on_c, 0, 65, 0
4, 36136, Control_c, 0, 64, 127
4, 36169, Note_on_c, 0, 46, 0
4, 36182, Note_on_c, 0, 57, 0
4, 36193, Note_on_c, 0, 53, 0
4, 36198, Note_on_c, 0, 58, 0
4, 36200, Note_on_c, 0, 62, 0
4, 36202, Note_on_c, 0, 46, 27
4, 36206, Note_on_c, 0, 57, 35
4, 36214, Note_on_c, 0, 57, 0
4, 36222, Note_on_c, 0, 46, 0
4, 36236, Control_c, 0, 64, 0
4, 36245, Note_on_c, 0, 55, 62
4, 36245, Note_on_c, 0, 58, 46
4, 36247, Note_on_c, 0, 53, 34
4, 36248, Note_on_c, 0, 62, 40
4, 36248, Note_on_c, 0, 65, 40
4, 36262, Note_on_c, 0, 55, 0
4, 36273, Note_on_c, 0, 58, 0
4, 36278, Note_on_c, 0, 62, 0
4, 36280, Note_on_c, 0, 65, 0
4, 36309, Note_on_c, 0, 69, 72
4, 36323, Note_on_c, 0, 69, 0
4, 36327, Note_on_c, 0, 72, 48
4, 36329, Note_on_c, 0, 53, 0
4, 36344, Note_on_c, 0, 69, 29
4, 36350, Note_on_c, 0, 65, 61
4, 36351, Note_on_c, 0, 72, 0
4, 36355, Note_on_c, 0, 69, 0
4, 36364, Note_on_c, 0, 65, 0
4, 36365, Note_on_c, 0, 60, 61
4, 36374, Note_on_c, 0, 60, 0
4, 36388, Note_on_c, 0, 59, 80
4, 36389, Note_on_c, 0, 65, 62
4, 36409, Note_on_c, 0, 65, 0
4, 36410, Note_on_c, 0, 59, 0
4, 36420, Note_on_c, 0, 53, 36
4, 36429, Note_on_c, 0, 53, 0
4, 36437, Note_on_c, 0, 58, 70
4, 36438, Note_on_c, 0, 62, 68
4, 36461, Note_on_c, 0, 62, 0
4, 36464, Note_on_c, 0, 58, 0
4, 36471, Note_on_c, 0, 53, 44
4, 36480, Note_on_c, 0, 53, 0
4, 36492, Note_on_c, 0, 56, 58
4, 36494, Note_on_c, 0, 48, 25
4, 36496, Note_on_c, 0, 41, 33
4, 36499, Note_on_c, 0, 60, 43
4, 36514, Note_on_c, 0, 60, 0
4, 36514, Note_on_c, 0, 56, 0
4, 36517, Note_on_c, 0, 48, 0
4, 36529, Note_on_c, 0, 57, 58
4, 36532, Note_on_c, 0, 60, 31
4, 36545, Note_on_c, 0, 57, 0
4, 36552, Note_on_c, 0, 60, 0
4, 36556, Note_on_c, 0, 53, 51
4, 36577, Note_on_c, 0, 53, 0
4, 36578, Note_on_c, 0, 41, 0
4, 36589, Note_on_c, 0, 53, 54
4, 36603, Note_on_c, 0, 53, 0
4, 36618, Note_on_c, 0, 53, 44
4, 36632, Control_c, 0, 64, 127
4, 36641, Note_on_c, 0, 53, 0
4, 36683, Note_on_c, 0, 53, 49
4, 36692, Note_on_c, 0, 53, 0
4, 36714, Control_c, 0, 64, 0
4, 36726, Note_on_c, 0, 54, 53
4, 36735, Note_on_c, 0, 60, 24
4, 36792, Note_on_c, 0, 60, 0
4, 36792, Note_on_c, 0, 54, 0
4, 36800, Note_on_c, 0, 54, 47
4, 36802, Note_on_c, 0, 72, 57
4, 36802, Note_on_c, 0, 64, 48
4, 36805, Note_on_c, 0, 84, 33
4, 36806, Note_on_c, 0, 60, 36
4, 36816, Note_on_c, 0, 72, 0
4, 36819, Note_on_c, 0, 64, 0
4, 36820, Note_on_c, 0, 84, 0
4, 36825, Note_on_c, 0, 54, 0
4, 36827, Note_on_c, 0, 60, 0
4, 36840, Note_on_c, 0, 54, 36
4, 36843, Note_on_c, 0, 64, 30
4, 36844, Note_on_c, 0, 89, 60
4, 36850, Note_on_c, 0, 89, 0
4, 36850, Note_on_c, 0, 64, 0
4, 36855, Note_on_c, 0, 54, 0
4, 36881, Note_on_c, 0, 54, 59
4, 36883, Note_on_c, 0, 81, 62
4, 36883, Note_on_c, 0, 93, 75
4, 36884, Note_on_c, 0, 60, 43
4, 36885, Note_on_c, 0, 64, 31
4, 36888, Note_on_c, 0, 81, 0
4, 36889, Note_on_c, 0, 93, 0
4, 36891, Note_on_c, 0, 64, 0
4, 36892, Note_on_c, 0, 60, 0
4, 36896, Note_on_c, 0, 54, 0
4, 36919, Note_on_c, 0, 54, 69
4, 36919, Note_on_c, 0, 64, 70
4, 36920, Note_on_c, 0, 96, 84
4, 36921, Note_on_c, 0, 60, 58
4, 36921, Note_on_c, 0, 84, 83
4, 36930, Note_on_c, 0, 96, 0
4, 36932, Note_on_c, 0, 84, 0
4, 36933, Note_on_c, 0, 60, 0
4, 36933, Note_on_c, 0, 64, 0
4, 36942, Note_on_c, 0, 54, 0
4, 36961, Note_on_c, 0, 92, 82
4, 36961, Note_on_c, 0, 80, 79
4, 36961, Note_on_c, 0, 62, 71
4, 36962, Note_on_c, 0, 53, 64
4, 36962, Note_on_c, 0, 58, 54
4, 36963, Note_on_c, 0, 57, 55
4, 36972, Note_on_c, 0, 93, 48
4, 36973, Note_on_c, 0, 80, 0
4, 36976, Note_on_c, 0, 81, 44
4, 36982, Note_on_c, 0, 86, 29
4, 36995, Note_on_c, 0, 88, 4
4, 36996, Note_on_c, 0, 92, 0
4, 37002, Note_on_c, 0, 93, 0
4, 37010, Note_on_c, 0, 81, 0
4, 37012, Note_on_c, 0, 88, 0
4, 37012, Note_on_c, 0, 86, 0
4, 37026, Note_on_c, 0, 62, 0
4, 37026, Note_on_c, 0, 53, 0
4, 37029, Note_on_c, 0, 57, 0
4, 37030, Note_on_c, 0, 58, 0
4, 37046, Note_on_c, 0, 62, 33
4, 37046, Note_on_c, 0, 58, 38
4, 37048, Note_on_c, 0, 74, 36
4, 37049, Note_on_c, 0, 53, 24
4, 37051, Note_on_c, 0, 57, 33
4, 37058, Note_on_c, 0, 74, 0
4, 37059, Note_on_c, 0, 57, 0
4, 37062, Note_on_c, 0, 53, 0
4, 37062, Note_on_c, 0, 62, 0
4, 37067, Note_on_c, 0, 58, 0
4, 37088, Note_on_c, 0, 62, 50
4, 37088, Note_on_c, 0, 77, 36
4, 37089, Note_on_c, 0, 58, 39
4, 37089, Note_on_c, 0, 89, 48
4, 37096, Note_on_c, 0, 89, 0
4, 37099, Note_on_c, 0, 62, 0
4, 37100, Note_on_c, 0, 77, 0
4, 37103, Note_on_c, 0, 58, 0
4, 37168, Note_on_c, 0, 62, 57
4, 37169, Note_on_c, 0, 77, 56
4, 37169, Note_on_c, 0, 89, 59
4, 37169, Note_on_c, 0, 58, 45
4, 37172, Note_on_c, 0, 57, 37
4, 37181, Note_on_c, 0, 57, 0
4, 37185, Note_on_c, 0, 62, 0
4, 37186, Note_on_c, 0, 77, 0
4, 37190, Note_on_c, 0, 89, 0
4, 37192, Note_on_c, 0, 58, 0
4, 37249, Note_on_c, 0, 57, 49
4, 37251, Note_on_c, 0, 62, 46
4, 37251, Note_on_c, 0, 93, 60
4, 37251, Note_on_c, 0, 81, 51
4, 37252, Note_on_c, 0, 58, 32
4, 37253, Note_on_c, 0, 89, 38
4, 37258, Note_on_c, 0, 81, 0
4, 37258, Note_on_c, 0, 62, 0
4, 37259, Note_on_c, 0, 57, 0
4, 37260, Note_on_c, 0, 89, 0
4, 37262, Note_on_c, 0, 58, 0
4, 37266, Note_on_c, 0, 93, 0
4, 37286, Note_on_c, 0, 58, 48
4, 37287, Note_on_c, 0, 62, 49
4, 37288, Note_on_c, 0, 57, 42
4, 37289, Note_on_c, 0, 53, 35
4, 37293, Note_on_c, 0, 62, 0
4, 37294, Note_on_c, 0, 57, 0
4, 37299, Note_on_c, 0, 58, 0
4, 37300, Note_on_c, 0, 53, 0
4, 37327, Note_on_c, 0, 98, 77
4, 37328, Note_on_c, 0, 92, 82
4, 37328, Note_on_c, 0, 58, 81
4, 37328, Note_on_c, 0, 86, 76
4, 37328, Note_on_c, 0, 62, 85
4, 37330, Note_on_c, 0, 52, 81
4, 37354, Note_on_c, 0, 92, 0
4, 37356, Note_on_c, 0, 93, 39
4, 37364, Note_on_c, 0, 93, 0
4, 37365, Note_on_c, 0, 86, 0
4, 37367, Note_on_c, 0, 52, 0
4, 37368, Note_on_c, 0, 62, 0
4, 37369, Note_on_c, 0, 58, 0
4, 37369, Note_on_c, 0, 98, 0
4, 37403, Note_on_c, 0, 62, 68
4, 37404, Note_on_c, 0, 58, 57
4, 37405, Note_on_c, 0, 52, 49
4, 37406, Note_on_c, 0, 96, 65
4, 37407, Note_on_c, 0, 84, 42
4, 37409, Note_on_c, 0, 91, 34
4, 37412, Note_on_c, 0, 52, 0
4, 37417, Note_on_c, 0, 96, 0
4, 37417, Note_on_c, 0, 91, 0
4, 37418, Note_on_c, 0, 84, 0
4, 37419, Note_on_c, 0, 62, 0
4, 37420, Note_on_c, 0, 58, 0
4, 37448, Note_on_c, 0, 53, 62
4, 37448, Note_on_c, 0, 63, 51
4, 37452, Note_on_c, 0, 60, 44
4, 37453, Note_on_c, 0, 56, 38
4, 37503, Note_on_c, 0, 94, 81
4, 37522, Note_on_c, 0, 94, 0
4, 37543, Note_on_c, 0, 92, 76
4, 37564, Note_on_c, 0, 92, 0
4, 37573, Note_on_c, 0, 87, 67
4, 37594, Note_on_c, 0, 53, 0
4, 37597, Note_on_c, 0, 60, 0
4, 37598, Note_on_c, 0, 87, 0
4, 37605, Note_on_c, 0, 84, 35
4, 37612, Note_on_c, 0, 63, 0
4, 37613, Note_on_c, 0, 56, 0
4, 37622, Note_on_c, 0, 84, 0
4, 37630, Note_on_c, 0, 91, 74
4, 37649, Note_on_c, 0, 91, 0
4, 37660, Note_on_c, 0, 90, 68
4, 37684, Note_on_c, 0, 90, 0
4, 37685, Note_on_c, 0, 56, 31
4, 37686, Note_on_c, 0, 65, 40
4, 37687, Note_on_c, 0, 89, 62
4, 37688, Note_on_c, 0, 61, 37
4, 37713, Note_on_c, 0, 89, 0
4, 37718, Note_on_c, 0, 85, 67
4, 37741, Note_on_c, 0, 85, 0
4, 37745, Note_on_c, 0, 84, 43
4, 37757, Note_on_c, 0, 84, 0
4, 37759, Note_on_c, 0, 65, 0
4, 37770, Note_on_c, 0, 61, 0
4, 37796, Note_on_c, 0, 65, 43
4, 37798, Note_on_c, 0, 61, 23
4, 37799, Note_on_c, 0, 60, 1
4, 37801, Note_on_c, 0, 82, 59
4, 37824, Note_on_c, 0, 82, 0
4, 37839, Note_on_c, 0, 84, 25
4, 37847, Note_on_c, 0, 82, 43
4, 37852, Note_on_c, 0, 84, 0
4, 37852, Note_on_c, 0, 60, 0
4, 37853, Note_on_c, 0, 65, 0
4, 37862, Note_on_c, 0, 61, 0
4, 37863, Note_on_c, 0, 56, 0
4, 37864, Note_on_c, 0, 81, 53
4, 37865, Note_on_c, 0, 82, 0
4, 37881, Note_on_c, 0, 81, 0
4, 37900, Note_on_c, 0, 82, 69
4, 37905, Note_on_c, 0, 63, 44
4, 37905, Note_on_c, 0, 59, 50
4, 37911, Note_on_c, 0, 53, 24
4, 37926, Note_on_c, 0, 82, 0
4, 37946, Note_on_c, 0, 80, 56
4, 37948, Note_on_c, 0, 63, 0
4, 37962, Note_on_c, 0, 75, 51
4, 37964, Note_on_c, 0, 80, 0
4, 37984, Note_on_c, 0, 75, 0
4, 37990, Note_on_c, 0, 71, 28
4, 38001, Note_on_c, 0, 53, 0
4, 38007, Note_on_c, 0, 70, 47
4, 38009, Note_on_c, 0, 71, 0
4, 38009, Note_on_c, 0, 59, 0
4, 38023, Note_on_c, 0, 70, 0
4, 38028, Note_on_c, 0, 68, 56
4, 38032, Note_on_c, 0, 63, 33
4, 38033, Note_on_c, 0, 59, 18
4, 38056, Note_on_c, 0, 68, 0
4, 38059, Note_on_c, 0, 67, 51
4, 38072, Note_on_c, 0, 63, 0
4, 38082, Note_on_c, 0, 67, 0
4, 38086, Note_on_c, 0, 59, 0
4, 38143, Note_on_c, 0, 51, 25
4, 38157, Note_on_c, 0, 65, 51
4, 38158, Note_on_c, 0, 52, 42
4, 38159, Note_on_c, 0, 51, 0
4, 38159, Note_on_c, 0, 58, 51
4, 38159, Note_on_c, 0, 62, 52
4, 38161, Note_on_c, 0, 55, 49
4, 38164, Note_on_c, 0, 52, 0
4, 38164, Note_on_c, 0, 53, 50
4, 38224, Note_on_c, 0, 55, 0
4, 38238, Note_on_c, 0, 53, 0
4, 38242, Note_on_c, 0, 62, 0
4, 38244, Note_on_c, 0, 51, 33
4, 38246, Note_on_c, 0, 58, 0
4, 38247, Note_on_c, 0, 55, 29
4, 38258, Note_on_c, 0, 55, 0
4, 38260, Note_on_c, 0, 65, 0
4, 38281, Note_on_c, 0, 55, 45
4, 38282, Note_on_c, 0, 58, 35
4, 38283, Note_on_c, 0, 64, 44
4, 38284, Note_on_c, 0, 52, 44
4, 38289, Note_on_c, 0, 51, 0
4, 38314, Control_c, 0, 64, 127
4, 38350, Note_on_c, 0, 55, 0
4, 38353, Note_on_c, 0, 58, 0
4, 38364, Note_on_c, 0, 46, 36
4, 38372, Note_on_c, 0, 52, 0
4, 38387, Note_on_c, 0, 46, 0
4, 38393, Note_on_c, 0, 64, 0
4, 38393, Control_c, 0, 64, 0
4, 38401, Note_on_c, 0, 55, 40
4, 38403, Note_on_c, 0, 45, 46
4, 38404, Note_on_c, 0, 60, 38
4, 38406, Note_on_c, 0, 52, 29
4, 38426, Note_on_c, 0, 55, 0
4, 38441, Note_on_c, 0, 60, 0
4, 38453, Note_on_c, 0, 62, 37
4, 38458, Note_on_c, 0, 60, 44
4, 38472, Note_on_c, 0, 62, 0
4, 38474, Note_on_c, 0, 59, 38
4, 38481, Note_on_c, 0, 60, 0
4, 38501, Note_on_c, 0, 59, 0
4, 38516, Note_on_c, 0, 60, 68
4, 38526, Note_on_c, 0, 52, 0
4, 38527, Note_on_c, 0, 55, 28
4, 38552, Note_on_c, 0, 62, 39
4, 38560, Note_on_c, 0, 60, 0
4, 38579, Note_on_c, 0, 45, 0
4, 38591, Note_on_c, 0, 62, 0
4, 38596, Note_on_c, 0, 63, 63
4, 38618, Note_on_c, 0, 55, 0
4, 38620, Note_on_c, 0, 63, 0
4, 38630, Note_on_c, 0, 65, 77
4, 38655, Note_on_c, 0, 54, 40
4, 38657, Note_on_c, 0, 50, 36
4, 38660, Note_on_c, 0, 60, 33
4, 38669, Note_on_c, 0, 66, 45
4, 38675, Note_on_c, 0, 65, 0
4, 38702, Note_on_c, 0, 66, 0
4, 38706, Note_on_c, 0, 68, 54
4, 38728, Note_on_c, 0, 68, 0
4, 38739, Note_on_c, 0, 69, 60
4, 38741, Note_on_c, 0, 60, 0
4, 38756, Note_on_c, 0, 69, 0
4, 38757, Note_on_c, 0, 54, 0
4, 38765, Note_on_c, 0, 71, 68
4, 38784, Note_on_c, 0, 71, 0
4, 38787, Note_on_c, 0, 54, 34
4, 38791, Note_on_c, 0, 60, 36
4, 38793, Note_on_c, 0, 72, 58
4, 38817, Note_on_c, 0, 72, 0
4, 38824, Note_on_c, 0, 74, 55
4, 38838, Note_on_c, 0, 50, 0
4, 38847, Note_on_c, 0, 54, 0
4, 38847, Note_on_c, 0, 74, 0
4, 38852, Note_on_c, 0, 75, 42
4, 38856, Note_on_c, 0, 60, 0
4, 38872, Note_on_c, 0, 75, 0
4, 38881, Note_on_c, 0, 76, 55
4, 38904, Note_on_c, 0, 76, 0
4, 38914, Note_on_c, 0, 79, 63
4, 38916, Note_on_c, 0, 64, 24
4, 38916, Note_on_c, 0, 57, 30
4, 38918, Note_on_c, 0, 60, 35
4, 38940, Note_on_c, 0, 79, 0
4, 38950, Note_on_c, 0, 76, 28
4, 38963, Note_on_c, 0, 76, 0
4, 38973, Note_on_c, 0, 77, 62
4, 39009, Note_on_c, 0, 64, 0
4, 39011, Note_on_c, 0, 60, 0
4, 39018, Note_on_c, 0, 57, 0
4, 39028, Note_on_c, 0, 72, 54
4, 39030, Note_on_c, 0, 64, 33
4, 39031, Note_on_c, 0, 55, 35
4, 39033, Note_on_c, 0, 57, 29
4, 39035, Note_on_c, 0, 60, 26
4, 39036, Note_on_c, 0, 77, 0
4, 39092, Note_on_c, 0, 72, 0
4, 39093, Note_on_c, 0, 64, 0
4, 39100, Note_on_c, 0, 67, 58
4, 39110, Note_on_c, 0, 55, 0
4, 39110, Note_on_c, 0, 57, 0
4, 39117, Note_on_c, 0, 60, 0
4, 39139, Note_on_c, 0, 54, 43
4, 39140, Note_on_c, 0, 67, 0
4, 39140, Note_on_c, 0, 66, 46
4, 39140, Note_on_c, 0, 60, 15
4, 39142, Note_on_c, 0, 64, 26
4, 39160, Note_on_c, 0, 64, 0
4, 39206, Note_on_c, 0, 66, 0
4, 39208, Note_on_c, 0, 60, 0
4, 39210, Note_on_c, 0, 74, 59
4, 39223, Note_on_c, 0, 54, 0
4, 39240, Note_on_c, 0, 74, 0
4, 39246, Note_on_c, 0, 54, 33
4, 39254, Note_on_c, 0, 62, 43
4, 39260, Note_on_c, 0, 60, 17
4, 39298, Note_on_c, 0, 54, 0
4, 39323, Note_on_c, 0, 62, 0
4, 39325, Note_on_c, 0, 54, 39
4, 39332, Note_on_c, 0, 60, 0
4, 39359, Note_on_c, 0, 54, 0
4, 39420, Note_on_c, 0, 56, 46
4, 39431, Note_on_c, 0, 56, 0
4, 39442, Note_on_c, 0, 59, 62
4, 39455, Note_on_c, 0, 59, 0
4, 39457, Note_on_c, 0, 62, 50
4, 39471, Note_on_c, 0, 62, 0
4, 39471, Note_on_c, 0, 63, 58
4, 39479, Note_on_c, 0, 63, 0
4, 39486, Note_on_c, 0, 62, 41
4, 39488, Note_on_c, 0, 64, 40
4, 39494, Note_on_c, 0, 62, 0
4, 39499, Note_on_c, 0, 65, 65
4, 39500, Note_on_c, 0, 64, 0
4, 39513, Note_on_c, 0, 65, 0
4, 39521, Note_on_c, 0, 68, 35
4, 39526, Note_on_c, 0, 68, 0
4, 39534, Note_on_c, 0, 67, 58
4, 39548, Note_on_c, 0, 67, 0
4, 39550, Note_on_c, 0, 71, 48
4, 39560, Note_on_c, 0, 71, 0
4, 39561, Note_on_c, 0, 73, 43
4, 39569, Note_on_c, 0, 73, 0
4, 39585, Note_on_c, 0, 77, 50
4, 39607, Note_on_c, 0, 74, 57
4, 39613, Note_on_c, 0, 77, 0
4, 39622, Note_on_c, 0, 74, 0
4, 39652, Note_on_c, 0, 71, 63
4, 39667, Note_on_c, 0, 71, 0
4, 39694, Note_on_c, 0, 67, 50
4, 39713, Note_on_c, 0, 67, 0
4, 39734, Note_on_c, 0, 64, 54
4, 39754, Note_on_c, 0, 64, 0
4, 39765, Note_on_c, 0, 62, 51
4, 39786, Note_on_c, 0, 62, 0
4, 39801, Note_on_c, 0, 44, 51
4, 39802, Note_on_c, 0, 63, 50
4, 39804, Note_on_c, 0, 65, 62
4, 39807, Note_on_c, 0, 50, 40
4, 39808, Note_on_c, 0, 63, 0
4, 39808, Note_on_c, 0, 62, 69
4, 39860, Note_on_c, 0, 50, 0
4, 39864, Control_c, 0, 64, 127
4, 39866, Note_on_c, 0, 44, 0
4, 39919, Note_on_c, 0, 62, 0
4, 39919, Note_on_c, 0, 58, 52
4, 39920, Note_on_c, 0, 65, 0
4, 39935, Note_on_c, 0, 58, 0
4, 39961, Note_on_c, 0, 62, 55
4, 39963, Note_on_c, 0, 59, 54
4, 39963, Note_on_c, 0, 47, 47
4, 39964, Note_on_c, 0, 56, 42
4, 39967, Control_c, 0, 64, 0
4, 39985, Note_on_c, 0, 56, 0
4, 40000, Note_on_c, 0, 65, 66
4, 40002, Note_on_c, 0, 56, 50
4, 40008, Note_on_c, 0, 47, 0
4, 40008, Note_on_c, 0, 62, 0
4, 40014, Control_c, 0, 64, 127
4, 40024, Note_on_c, 0, 56, 0
4, 40025, Note_on_c, 0, 59, 0
4, 40028, Note_on_c, 0, 65, 0
4, 40035, Note_on_c, 0, 47, 45
4, 40067, Control_c, 0, 64, 0
4, 40073, Note_on_c, 0, 47, 0
4, 40079, Note_on_c, 0, 48, 47
4, 40079, Note_on_c, 0, 55, 54
4, 40089, Note_on_c, 0, 55, 0
4, 40152, Control_c, 0, 64, 127
4, 40158, Note_on_c, 0, 36, 50
4, 40167, Note_on_c, 0, 48, 0
4, 40169, Note_on_c, 0, 36, 0
4, 40198, Control_c, 0, 64, 0
4, 40203, Note_on_c, 0, 46, 73
4, 40232, Control_c, 0, 64, 127
4, 40259, Control_c, 0, 64, 0
4, 40267, Note_on_c, 0, 46, 0
4, 40270, Control_c, 0, 64, 127
4, 40282, Note_on_c, 0, 34, 50
4, 40298, Note_on_c, 0, 34, 0
4, 40307, Control_c, 0, 64, 0
4, 40320, Note_on_c, 0, 33, 41
4, 40323, Note_on_c, 0, 45, 43
4, 40327, Note_on_c, 0, 33, 0
4, 40330, Note_on_c, 0, 45, 0
4, 40330, Control_c, 0, 64, 127
4, 40365, Note_on_c, 0, 69, 53
4, 40365, Note_on_c, 0, 65, 54
4, 40367, Note_on_c, 0, 72, 34
4, 40371, Note_on_c, 0, 65, 0
4, 40376, Note_on_c, 0, 69, 0
4, 40379, Note_on_c, 0, 72, 0
4, 40397, Note_on_c, 0, 61, 58
4, 40398, Note_on_c, 0, 77, 74
4, 40398, Note_on_c, 0, 65, 85
4, 40398, Note_on_c, 0, 60, 46
4, 40399, Note_on_c, 0, 71, 67
4, 40400, Note_on_c, 0, 74, 58
4, 40401, Note_on_c, 0, 55, 53
4, 40403, Note_on_c, 0, 58, 35
4, 40409, Note_on_c, 0, 65, 0
4, 40410, Note_on_c, 0, 55, 0
4, 40411, Note_on_c, 0, 71, 0
4, 40414, Note_on_c, 0, 58, 0
4, 40415, Note_on_c, 0, 60, 0
4, 40415, Note_on_c, 0, 74, 0
4, 40418, Note_on_c, 0, 61, 0
4, 40419, Note_on_c, 0, 77, 0
4, 40436, Note_on_c, 0, 61, 63
4, 40437, Note_on_c, 0, 60, 60
4, 40437, Note_on_c, 0, 55, 74
4, 40437, Note_on_c, 0, 65, 72
4, 40438, Note_on_c, 0, 74, 81
4, 40439, Note_on_c, 0, 69, 91
4, 40439, Note_on_c, 0, 81, 82
4, 40440, Note_on_c, 0, 77, 68
4, 40440, Note_on_c, 0, 58, 43
4, 40454, Note_on_c, 0, 69, 0
4, 40455, Note_on_c, 0, 74, 0
4, 40457, Note_on_c, 0, 65, 0
4, 40457, Note_on_c, 0, 55, 0
4, 40460, Note_on_c, 0, 58, 0
4, 40461, Note_on_c, 0, 81, 0
4, 40461, Note_on_c, 0, 77, 0
4, 40463, Note_on_c, 0, 60, 0
4, 40466, Note_on_c, 0, 61, 0
4, 40476, Note_on_c, 0, 60, 74
4, 40476, Note_on_c, 0, 61, 71
4, 40477, Note_on_c, 0, 84, 78
4, 40477, Note_on_c, 0, 65, 74
4, 40478, Note_on_c, 0, 77, 71
4, 40478, Note_on_c, 0, 72, 84
4, 40478, Note_on_c, 0, 55, 71
4, 40479, Note_on_c, 0, 80, 36
4, 40479, Note_on_c, 0, 83, 65
4, 40480, Note_on_c, 0, 58, 52
4, 40480, Note_on_c, 0, 81, 57
4, 40491, Note_on_c, 0, 65, 0
4, 40493, Note_on_c, 0, 55, 0
4, 40494, Note_on_c, 0, 83, 0
4, 40494, Note_on_c, 0, 72, 0
4, 40496, Note_on_c, 0, 58, 0
4, 40497, Note_on_c, 0, 80, 0
4, 40498, Note_on_c, 0, 77, 0
4, 40499, Note_on_c, 0, 84, 0
4, 40499, Note_on_c, 0, 81, 0
4, 40500, Note_on_c, 0, 61, 0
4, 40501, Note_on_c, 0, 60, 0
4, 40512, Note_on_c, 0, 61, 63
4, 40512, Note_on_c, 0, 60, 75
4, 40513, Note_on_c, 0, 86, 84
4, 40513, Note_on_c, 0, 65, 72
4, 40513, Note_on_c, 0, 74, 80
4, 40514, Note_on_c, 0, 55, 64
4, 40515, Note_on_c, 0, 79, 61
4, 40517, Note_on_c, 0, 83, 54
4, 40517, Note_on_c, 0, 76, 61
4, 40517, Note_on_c, 0, 58, 48
4, 40522, Note_on_c, 0, 76, 0
4, 40529, Note_on_c, 0, 79, 0
4, 40530, Note_on_c, 0, 74, 0
4, 40531, Note_on_c, 0, 65, 0
4, 40534, Note_on_c, 0, 83, 0
4, 40534, Note_on_c, 0, 55, 0
4, 40536, Note_on_c, 0, 86, 0
4, 40536, Note_on_c, 0, 60, 0
4, 40538, Note_on_c, 0, 58, 0
4, 40541, Note_on_c, 0, 61, 0
4, 40544, Control_c, 0, 64, 0
4, 40555, Note_on_c, 0, 89, 77
4, 40555, Note_on_c, 0, 77, 79
4, 40555, Note_on_c, 0, 54, 78
4, 40556, Note_on_c, 0, 65, 74
4, 40558, Note_on_c, 0, 83, 54
4, 40558, Note_on_c, 0, 60, 66
4, 40561, Note_on_c, 0, 86, 35
4, 40562, Note_on_c, 0, 64, 30
4, 40567, Note_on_c, 0, 64, 0
4, 40568, Note_on_c, 0, 86, 0
4, 40576, Note_on_c, 0, 83, 0
4, 40576, Control_c, 0, 64, 127
4, 40612, Note_on_c, 0, 89, 0
4, 40621, Note_on_c, 0, 77, 0
4, 40621, Note_on_c, 0, 60, 0
4, 40624, Note_on_c, 0, 65, 0
4, 40651, Note_on_c, 0, 54, 0
4, 40674, Control_c, 0, 64, 0
4, 40678, Note_on_c, 0, 54, 50
4, 40681, Note_on_c, 0, 86, 64
4, 40682, Note_on_c, 0, 80, 55
4, 40683, Note_on_c, 0, 65, 40
4, 40683, Note_on_c, 0, 74, 50
4, 40686, Note_on_c, 0, 60, 38
4, 40700, Control_c, 0, 64, 127
4, 40715, Note_on_c, 0, 81, 20
4, 40717, Note_on_c, 0, 80, 0
4, 40724, Note_on_c, 0, 86, 0
4, 40727, Note_on_c, 0, 81, 0
4, 40735, Note_on_c, 0, 74, 0
4, 40742, Note_on_c, 0, 54, 0
4, 40744, Note_on_c, 0, 65, 0
4, 40752, Note_on_c, 0, 60, 0
4, 40764, Note_on_c, 0, 54, 48
4, 40784, Note_on_c, 0, 54, 0
4, 40798, Control_c, 0, 64, 0
4, 40802, Note_on_c, 0, 73, 42
4, 40805, Note_on_c, 0, 69, 52
4, 40805, Note_on_c, 0, 58, 35
4, 40805, Note_on_c, 0, 53, 32
4, 40806, Note_on_c, 0, 81, 38
4, 40806, Note_on_c, 0, 77, 38
4, 40807, Note_on_c, 0, 62, 22
4, 40808, Note_on_c, 0, 57, 37
4, 40826, Note_on_c, 0, 73, 0
4, 40827, Control_c, 0, 64, 127
4, 40833, Note_on_c, 0, 74, 18
4, 40876, Note_on_c, 0, 74, 0
4, 40877, Note_on_c, 0, 69, 0
4, 40877, Note_on_c, 0, 58, 0
4, 40879, Note_on_c, 0, 77, 0
4, 40879, Note_on_c, 0, 62, 0
4, 40882, Note_on_c, 0, 53, 0
4, 40883, Note_on_c, 0, 57, 0
4, 40899, Note_on_c, 0, 81, 0
4, 40920, Note_on_c, 0, 77, 39
4, 40921, Note_on_c, 0, 62, 33
4, 40921, Note_on_c, 0, 53, 31
4, 40926, Note_on_c, 0, 58, 33
4, 40926, Note_on_c, 0, 69, 31
4, 40927, Note_on_c, 0, 74, 31
4, 40950, Note_on_c, 0, 74, 0
4, 40952, Note_on_c, 0, 77, 0
4, 40956, Note_on_c, 0, 62, 0
4, 40959, Note_on_c, 0, 69, 0
4, 40972, Note_on_c, 0, 53, 0
4, 40974, Note_on_c, 0, 58, 0
4, 41069, Control_c, 0, 64, 0
4, 41087, Note_on_c, 0, 73, 52
4, 41087, Note_on_c, 0, 68, 62
4, 41088, Note_on_c, 0, 70, 57
4, 41089, Note_on_c, 0, 64, 60
4, 41089, Note_on_c, 0, 61, 69
4, 41123, Note_on_c, 0, 61, 0
4, 41125, Note_on_c, 0, 58, 37
4, 41126, Note_on_c, 0, 64, 0
4, 41128, Note_on_c, 0, 70, 0
4, 41129, Note_on_c, 0, 68, 0
4, 41131, Note_on_c, 0, 73, 0
4, 41161, Note_on_c, 0, 58, 0
4, 41163, Note_on_c, 0, 72, 60
4, 41164, Note_on_c, 0, 64, 55
4, 41165, Note_on_c, 0, 67, 60
4, 41165, Note_on_c, 0, 60, 54
4, 41183, Note_on_c, 0, 67, 0
4, 41186, Note_on_c, 0, 72, 0
4, 41191, Note_on_c, 0, 64, 0
4, 41202, Note_on_c, 0, 60, 0
4, 41207, Note_on_c, 0, 64, 42
4, 41208, Note_on_c, 0, 70, 44
4, 41208, Note_on_c, 0, 66, 37
4, 41210, Note_on_c, 0, 58, 42
4, 41223, Note_on_c, 0, 66, 0
4, 41225, Note_on_c, 0, 64, 0
4, 41227, Note_on_c, 0, 70, 0
4, 41244, Note_on_c, 0, 58, 0
4, 41248, Note_on_c, 0, 69, 58
4, 41251, Note_on_c, 0, 57, 50
4, 41252, Note_on_c, 0, 65, 44
4, 41253, Note_on_c, 0, 60, 40
4, 41274, Note_on_c, 0, 69, 0
4, 41275, Note_on_c, 0, 65, 0
4, 41276, Note_on_c, 0, 60, 0
4, 41277, Note_on_c, 0, 57, 0
4, 41282, Note_on_c, 0, 62, 48
4, 41288, Note_on_c, 0, 62, 0
4, 41367, Note_on_c, 0, 62, 78
4, 41368, Note_on_c, 0, 57, 80
4, 41368, Note_on_c, 0, 63, 67
4, 41368, Note_on_c, 0, 67, 90
4, 41370, Note_on_c, 0, 81, 74
4, 41371, Note_on_c, 0, 89, 70
4, 41371, Note_on_c, 0, 93, 87
4, 41371, Note_on_c, 0, 83, 76
4, 41371, Note_on_c, 0, 90, 59
4, 41372, Note_on_c, 0, 88, 78
4, 41388, Note_on_c, 0, 83, 0
4, 41391, Note_on_c, 0, 90, 0
4, 41392, Note_on_c, 0, 89, 0
4, 41411, Control_c, 0, 64, 127
4, 41463, Note_on_c, 0, 62, 0
4, 41467, Note_on_c, 0, 67, 0
4, 41468, Note_on_c, 0, 57, 0
4, 41468, Note_on_c, 0, 89, 15
4, 41475, Note_on_c, 0, 63, 0
4, 41476, Note_on_c, 0, 91, 17
4, 41479, Note_on_c, 0, 93, 0
4, 41481, Note_on_c, 0, 81, 0
4, 41493, Note_on_c, 0, 91, 0
4, 41499, Note_on_c, 0, 88, 0
4, 41500, Note_on_c, 0, 89, 0
4, 41514, Control_c, 0, 64, 0
4, 41537, Note_on_c, 0, 66, 55
4, 41539, Note_on_c, 0, 93, 57
4, 41540, Note_on_c, 0, 81, 52
4, 41540, Note_on_c, 0, 61, 48
4, 41541, Note_on_c, 0, 57, 49
4, 41541, Note_on_c, 0, 63, 46
4, 41541, Note_on_c, 0, 88, 44
4, 41550, Note_on_c, 0, 88, 0
4, 41553, Note_on_c, 0, 66, 0
4, 41553, Note_on_c, 0, 81, 0
4, 41554, Note_on_c, 0, 93, 0
4, 41554, Note_on_c, 0, 57, 0
4, 41557, Note_on_c, 0, 63, 0
4, 41573, Note_on_c, 0, 61, 0
4, 41616, Note_on_c, 0, 66, 57
4, 41617, Note_on_c, 0, 93, 65
4, 41618, Note_on_c, 0, 57, 55
4, 41618, Note_on_c, 0, 61, 46
4, 41619, Note_on_c, 0, 81, 49
4, 41619, Note_on_c, 0, 63, 50
4, 41620, Note_on_c, 0, 88, 53
4, 41660, Control_c, 0, 64, 127
4, 41694, Note_on_c, 0, 57, 0
4, 41708, Note_on_c, 0, 61, 0
4, 41709, Note_on_c, 0, 66, 0
4, 41715, Note_on_c, 0, 63, 0
4, 41731, Note_on_c, 0, 88, 0
4, 41733, Note_on_c, 0, 66, 32
4, 41735, Note_on_c, 0, 81, 0
4, 41735, Note_on_c, 0, 63, 32
4, 41741, Note_on_c, 0, 61, 29
4, 41744, Note_on_c, 0, 93, 0
4, 41749, Note_on_c, 0, 66, 0
4, 41760, Note_on_c, 0, 61, 0
4, 41761, Note_on_c, 0, 63, 0
4, 41771, Control_c, 0, 64, 0
4, 41774, Note_on_c, 0, 65, 60
4, 41774, Note_on_c, 0, 62, 57
4, 41778, Note_on_c, 0, 93, 58
4, 41779, Note_on_c, 0, 60, 48
4, 41779, Note_on_c, 0, 81, 44
4, 41780, Note_on_c, 0, 88, 50
4, 41781, Note_on_c, 0, 55, 54
4, 41795, Control_c, 0, 64, 127
4, 41808, Note_on_c, 0, 93, 0
4, 41810, Note_on_c, 0, 88, 0
4, 41813, Note_on_c, 0, 81, 0
4, 41828, Note_on_c, 0, 55, 0
4, 41829, Note_on_c, 0, 65, 0
4, 41830, Note_on_c, 0, 60, 0
4, 41836, Note_on_c, 0, 62, 0
4, 41853, Note_on_c, 0, 74, 57
4, 41854, Note_on_c, 0, 65, 62
4, 41855, Note_on_c, 0, 86, 46
4, 41856, Note_on_c, 0, 62, 55
4, 41857, Note_on_c, 0, 55, 53
4, 41858, Note_on_c, 0, 60, 58
4, 41859, Note_on_c, 0, 81, 33
4, 41861, Control_c, 0, 64, 0
4, 41866, Note_on_c, 0, 60, 0
4, 41866, Note_on_c, 0, 74, 0
4, 41867, Note_on_c, 0, 65, 0
4, 41867, Note_on_c, 0, 81, 0
4, 41869, Note_on_c, 0, 62, 0
4, 41873, Note_on_c, 0, 86, 0
4, 41875, Note_on_c, 0, 55, 0
4, 41933, Control_c, 0, 64, 127
4, 41946, Control_c, 0, 64, 0
4, 41963, Note_on_c, 0, 57, 45
4, 41963, Note_on_c, 0, 62, 60
4, 41965, Note_on_c, 0, 58, 53
4, 41965, Note_on_c, 0, 53, 54
4, 41966, Note_on_c, 0, 77, 66
4, 41966, Note_on_c, 0, 89, 66
4, 41969, Note_on_c, 0, 84, 51
4, 41977, Note_on_c, 0, 84, 0
4, 41980, Note_on_c, 0, 77, 0
4, 41981, Note_on_c, 0, 89, 0
4, 41984, Note_on_c, 0, 62, 0
4, 41988, Note_on_c, 0, 57, 0
4, 41989, Note_on_c, 0, 53, 0
4, 41994, Note_on_c, 0, 58, 0
4, 42040, Control_c, 0, 64, 127
4, 42056, Control_c, 0, 64, 0
4, 42082, Note_on_c, 0, 58, 53
4, 42082, Note_on_c, 0, 62, 64
4, 42084, Note_on_c, 0, 52, 62
4, 42084, Note_on_c, 0, 91, 67
4, 42085, Note_on_c, 0, 79, 57
4, 42086, Note_on_c, 0, 86, 68
4, 42125, Control_c, 0, 64, 127
4, 42144, Note_on_c, 0, 91, 0
4, 42146, Note_on_c, 0, 86, 0
4, 42162, Control_c, 0, 64, 0
4, 42164, Note_on_c, 0, 79, 0
4, 42234, Note_on_c, 0, 52, 0
4, 42242, Note_on_c, 0, 62, 0
4, 42243, Control_c, 0, 64, 127
4, 42248, Note_on_c, 0, 58, 0
4, 42311, Note_on_c, 0, 61, 90
4, 42312, Note_on_c, 0, 60, 90
4, 42312, Note_on_c, 0, 65, 96
4, 42312, Note_on_c, 0, 81, 94
4, 42313, Note_on_c, 0, 76, 96
4, 42313, Note_on_c, 0, 55, 89
4, 42313, Note_on_c, 0, 69, 101
4, 42315, Note_on_c, 0, 58, 53
4, 42318, Control_c, 0, 64, 0
4, 42341, Control_c, 0, 64, 127
4, 42424, Note_on_c, 0, 65, 0
4, 42427, Note_on_c, 0, 55, 0
4, 42427, Note_on_c, 0, 60, 0
4, 42432, Note_on_c, 0, 76, 0
4, 42432, Note_on_c, 0, 69, 0
4, 42441, Note_on_c, 0, 81, 0
4, 42442, Note_on_c, 0, 58, 0
4, 42452, Note_on_c, 0, 61, 0
4, 42469, Control_c, 0, 64, 0
4, 42475, Note_on_c, 0, 81, 57
4, 42476, Note_on_c, 0, 54, 53
4, 42476, Note_on_c, 0, 60, 53
4, 42477, Note_on_c, 0, 64, 50
4, 42479, Note_on_c, 0, 78, 33
4, 42479, Note_on_c, 0, 69, 41
4, 42479, Note_on_c, 0, 74, 49
4, 42513, Control_c, 0, 64, 127
4, 42534, Note_on_c, 0, 69, 0
4, 42537, Note_on_c, 0, 64, 0
4, 42538, Note_on_c, 0, 74, 0
4, 42541, Note_on_c, 0, 54, 0
4, 42542, Note_on_c, 0, 81, 0
4, 42542, Note_on_c, 0, 78, 0
4, 42546, Note_on_c, 0, 60, 0
4, 42563, Note_on_c, 0, 54, 64
4, 42564, Note_on_c, 0, 78, 36
4, 42564, Note_on_c, 0, 81, 60
4, 42564, Note_on_c, 0, 74, 53
4, 42564, Note_on_c, 0, 69, 57
4, 42565, Note_on_c, 0, 64, 52
4, 42566, Note_on_c, 0, 60, 61
4, 42590, Note_on_c, 0, 64, 0
4, 42590, Control_c, 0, 64, 0
4, 42591, Note_on_c, 0, 69, 0
4, 42592, Note_on_c, 0, 74, 0
4, 42595, Note_on_c, 0, 60, 0
4, 42597, Note_on_c, 0, 78, 0
4, 42597, Note_on_c, 0, 81, 0
4, 42608, Note_on_c, 0, 69, 53
4, 42609, Note_on_c, 0, 60, 47
4, 42609, Note_on_c, 0, 81, 34
4, 42610, Note_on_c, 0, 64, 36
4, 42610, Note_on_c, 0, 74, 45
4, 42611, Note_on_c, 0, 78, 34
4, 42611, Control_c, 0, 64, 127
4, 42627, Note_on_c, 0, 64, 0
4, 42631, Note_on_c, 0, 69, 0
4, 42632, Note_on_c, 0, 60, 0
4, 42632, Note_on_c, 0, 74, 0
4, 42636, Note_on_c, 0, 78, 0
4, 42639, Note_on_c, 0, 81, 0
4, 42640, Note_on_c, 0, 54, 0
4, 42653, Control_c, 0, 64, 0
4, 42669, Control_c, 0, 64, 127
4, 42680, Note_on_c, 0, 54, 60
4, 42681, Note_on_c, 0, 58, 46
4, 42682, Note_on_c, 0, 74, 69
4, 42682, Note_on_c, 0, 64, 44
4, 42682, Note_on_c, 0, 81, 57
4, 42683, Note_on_c, 0, 78, 39
4, 42684, Note_on_c, 0, 69, 59
4, 42686, Note_on_c, 0, 60, 26
4, 42689, Note_on_c, 0, 64, 0
4, 42690, Note_on_c, 0, 69, 0
4, 42691, Note_on_c, 0, 60, 0
4, 42693, Note_on_c, 0, 78, 0
4, 42694, Note_on_c, 0, 58, 0
4, 42696, Note_on_c, 0, 74, 0
4, 42697, Note_on_c, 0, 81, 0
4, 42703, Note_on_c, 0, 54, 0
4, 42714, Control_c, 0, 64, 0
4, 42724, Note_on_c, 0, 53, 51
4, 42724, Note_on_c, 0, 62, 58
4, 42725, Note_on_c, 0, 55, 60
4, 42725, Note_on_c, 0, 82, 60
4, 42726, Note_on_c, 0, 70, 56
4, 42726, Note_on_c, 0, 58, 42
4, 42728, Note_on_c, 0, 74, 55
4, 42728, Note_on_c, 0, 78, 35
4, 42750, Note_on_c, 0, 74, 0
4, 42752, Note_on_c, 0, 78, 0
4, 42752, Note_on_c, 0, 70, 0
4, 42754, Note_on_c, 0, 82, 0
4, 42755, Note_on_c, 0, 55, 0
4, 42758, Note_on_c, 0, 53, 0
4, 42761, Note_on_c, 0, 58, 0
4, 42762, Note_on_c, 0, 62, 0
4, 42772, Control_c, 0, 64, 127
4, 42806, Note_on_c, 0, 74, 76
4, 42807, Note_on_c, 0, 81, 66
4, 42807, Control_c, 0, 64, 0
4, 42807, Note_on_c, 0, 55, 71
4, 42808, Note_on_c, 0, 77, 60
4, 42808, Note_on_c, 0, 64, 71
4, 42808, Note_on_c, 0, 69, 69
4, 42809, Note_on_c, 0, 57, 63
4, 42809, Note_on_c, 0, 60, 71
4, 42836, Note_on_c, 0, 64, 0
4, 42837, Note_on_c, 0, 69, 0
4, 42838, Note_on_c, 0, 60, 0
4, 42838, Note_on_c, 0, 55, 0
4, 42840, Note_on_c, 0, 77, 0
4, 42840, Note_on_c, 0, 74, 0
4, 42842, Note_on_c, 0, 81, 0
4, 42844, Note_on_c, 0, 57, 0
4, 42924, Note_on_c, 0, 73, 60
4, 42925, Note_on_c, 0, 77, 66
4, 42926, Note_on_c, 0, 65, 70
4, 42926, Note_on_c, 0, 55, 70
4, 42926, Note_on_c, 0, 62, 74
4, 42927, Note_on_c, 0, 58, 59
4, 42927, Note_on_c, 0, 53, 59
4, 42930, Note_on_c, 0, 67, 31
4, 42936, Note_on_c, 0, 67, 0
4, 42949, Note_on_c, 0, 74, 51
4, 42950, Note_on_c, 0, 65, 0
4, 42952, Note_on_c, 0, 62, 0
4, 42953, Note_on_c, 0, 73, 0
4, 42954, Note_on_c, 0, 53, 0
4, 42958, Note_on_c, 0, 55, 0
4, 42960, Note_on_c, 0, 74, 0
4, 42964, Note_on_c, 0, 58, 0
4, 42964, Note_on_c, 0, 77, 0
4, 43036, Note_on_c, 0, 70, 52
4, 43037, Note_on_c, 0, 74, 58
4, 43038, Note_on_c, 0, 62, 52
4, 43038, Note_on_c, 0, 67, 60
4, 43039, Note_on_c, 0, 58, 50
4, 43040, Note_on_c, 0, 52, 62
4, 43041, Note_on_c, 0, 60, 55
4, 43079, Control_c, 0, 64, 127
4, 43113, Note_on_c, 0, 60, 0
4, 43119, Note_on_c, 0, 58, 0
4, 43125, Note_on_c, 0, 52, 0
4, 43129, Note_on_c, 0, 74, 0
4, 43134, Note_on_c, 0, 67, 0
4, 43138, Note_on_c, 0, 62, 0
4, 43139, Note_on_c, 0, 70, 0
4, 43271, Note_on_c, 0, 68, 81
4, 43271, Note_on_c, 0, 65, 82
4, 43272, Note_on_c, 0, 63, 77
4, 43272, Note_on_c, 0, 56, 86
4, 43272, Note_on_c, 0, 60, 87
4, 43278, Control_c, 0, 64, 0
4, 43307, Control_c, 0, 64, 127
4, 43363, Note_on_c, 0, 60, 0
4, 43366, Note_on_c, 0, 56, 0
4, 43372, Note_on_c, 0, 63, 0
4, 43392, Note_on_c, 0, 68, 0
4, 43393, Note_on_c, 0, 65, 0
4, 43424, Control_c, 0, 64, 0
4, 43432, Note_on_c, 0, 68, 38
4, 43433, Note_on_c, 0, 46, 36
4, 43434, Note_on_c, 0, 61, 39
4, 43435, Note_on_c, 0, 58, 30
4, 43435, Note_on_c, 0, 65, 43
4, 43436, Note_on_c, 0, 53, 32
4, 43461, Control_c, 0, 64, 127
4, 43491, Note_on_c, 0, 65, 0
4, 43492, Note_on_c, 0, 58, 0
4, 43492, Note_on_c, 0, 61, 0
4, 43493, Note_on_c, 0, 46, 0
4, 43496, Note_on_c, 0, 68, 0
4, 43503, Note_on_c, 0, 53, 0
4, 43516, Note_on_c, 0, 68, 48
4, 43517, Note_on_c, 0, 46, 42
4, 43517, Note_on_c, 0, 61, 60
4, 43517, Note_on_c, 0, 58, 61
4, 43519, Note_on_c, 0, 53, 46
4, 43519, Note_on_c, 0, 65, 58
4, 43531, Control_c, 0, 64, 0
4, 43556, Control_c, 0, 64, 127
4, 43571, Note_on_c, 0, 58, 0
4, 43581, Note_on_c, 0, 61, 0
4, 43583, Note_on_c, 0, 53, 0
4, 43584, Note_on_c, 0, 46, 0
4, 43584, Note_on_c, 0, 65, 0
4, 43592, Note_on_c, 0, 68, 0
4, 43642, Note_on_c, 0, 59, 38
4, 43649, Note_on_c, 0, 59, 0
4, 43655, Control_c, 0, 64, 0
4, 43681, Note_on_c, 0, 53, 36
4, 43681, Note_on_c, 0, 59, 53
4, 43682, Note_on_c, 0, 92, 60
4, 43682, Note_on_c, 0, 64, 41
4, 43683, Note_on_c, 0, 80, 38
4, 43683, Note_on_c, 0, 87, 55
4, 43687, Note_on_c, 0, 92, 0
4, 43688, Note_on_c, 0, 80, 0
4, 43688, Note_on_c, 0, 87, 0
4, 43689, Note_on_c, 0, 64, 0
4, 43692, Note_on_c, 0, 59, 0
4, 43695, Note_on_c, 0, 53, 0
4, 43758, Note_on_c, 0, 92, 69
4, 43758, Note_on_c, 0, 59, 60
4, 43758, Note_on_c, 0, 53, 58
4, 43759, Note_on_c, 0, 80, 58
4, 43759, Note_on_c, 0, 64, 46
4, 43761, Note_on_c, 0, 87, 46
4, 43766, Note_on_c, 0, 87, 0
4, 43768, Note_on_c, 0, 80, 0
4, 43768, Note_on_c, 0, 92, 0
4, 43768, Note_on_c, 0, 64, 0
4, 43770, Note_on_c, 0, 53, 0
4, 43772, Note_on_c, 0, 59, 0
4, 43800, Note_on_c, 0, 73, 42
4, 43801, Note_on_c, 0, 59, 58
4, 43801, Note_on_c, 0, 85, 48
4, 43808, Note_on_c, 0, 85, 0
4, 43808, Note_on_c, 0, 73, 0
4, 43812, Note_on_c, 0, 59, 0
4, 43832, Note_on_c, 0, 73, 38
4, 43833, Note_on_c, 0, 85, 55
4, 43836, Note_on_c, 0, 59, 46
4, 43842, Note_on_c, 0, 73, 0
4, 43844, Note_on_c, 0, 59, 0
4, 43848, Note_on_c, 0, 85, 0
4, 43919, Note_on_c, 0, 57, 66
4, 43919, Note_on_c, 0, 62, 64
4, 43920, Note_on_c, 0, 77, 67
4, 43920, Note_on_c, 0, 58, 51
4, 43920, Note_on_c, 0, 89, 64
4, 43923, Note_on_c, 0, 84, 44
4, 43927, Note_on_c, 0, 52, 22
4, 43928, Note_on_c, 0, 84, 0
4, 43930, Note_on_c, 0, 57, 0
4, 43930, Note_on_c, 0, 62, 0
4, 43931, Note_on_c, 0, 89, 0
4, 43932, Note_on_c, 0, 52, 0
4, 43932, Note_on_c, 0, 77, 0
4, 43934, Note_on_c, 0, 58, 0
4, 43954, Note_on_c, 0, 89, 57
4, 43954, Note_on_c, 0, 58, 48
4, 43954, Note_on_c, 0, 77, 46
4, 43955, Note_on_c, 0, 62, 53
4, 43955, Note_on_c, 0, 84, 58
4, 43956, Note_on_c, 0, 57, 36
4, 43960, Note_on_c, 0, 84, 0
4, 43962, Note_on_c, 0, 77, 0
4, 43962, Note_on_c, 0, 89, 0
4, 43963, Note_on_c, 0, 57, 0
4, 43963, Note_on_c, 0, 62, 0
4, 43970, Note_on_c, 0, 58, 0
4, 44109, Note_on_c, 0, 64, 79
4, 44109, Note_on_c, 0, 58, 84
4, 44110, Note_on_c, 0, 69, 89
4, 44111, Note_on_c, 0, 91, 87
4, 44112, Note_on_c, 0, 86, 92
4, 44112, Note_on_c, 0, 79, 88
4, 44122, Note_on_c, 0, 79, 0
4, 44124, Note_on_c, 0, 69, 0
4, 44130, Note_on_c, 0, 86, 0
4, 44130, Control_c, 0, 64, 127
4, 44131, Note_on_c, 0, 64, 0
4, 44132, Note_on_c, 0, 91, 0
4, 44140, Note_on_c, 0, 58, 0
4, 44141, Control_c, 0, 64, 0
4, 44193, Note_on_c, 0, 60, 92
4, 44193, Note_on_c, 0, 61, 80
4, 44193, Note_on_c, 0, 93, 89
4, 44193, Note_on_c, 0, 89, 87
4, 44194, Note_on_c, 0, 65, 87
4, 44194, Note_on_c, 0, 81, 94
4, 44194, Note_on_c, 0, 55, 83
4, 44195, Note_on_c, 0, 58, 59
4, 44228, Note_on_c, 0, 81, 0
4, 44230, Note_on_c, 0, 89, 0
4, 44230, Note_on_c, 0, 65, 0
4, 44230, Note_on_c, 0, 93, 0
4, 44230, Note_on_c, 0, 55, 0
4, 44231, Note_on_c, 0, 61, 0
4, 44232, Note_on_c, 0, 60, 0
4, 44234, Note_on_c, 0, 58, 0
4, 44265, Note_on_c, 0, 61, 83
4, 44266, Note_on_c, 0, 60, 91
4, 44266, Note_on_c, 0, 65, 89
4, 44267, Note_on_c, 0, 55, 85
4, 44268, Note_on_c, 0, 93, 90
4, 44268, Note_on_c, 0, 58, 53
4, 44269, Note_on_c, 0, 89, 88
4, 44269, Note_on_c, 0, 81, 92
4, 44287, Control_c, 0, 64, 127
4, 44305, Note_on_c, 0, 81, 0
4, 44306, Note_on_c, 0, 65, 0
4, 44308, Note_on_c, 0, 93, 0
4, 44308, Note_on_c, 0, 89, 0
4, 44309, Note_on_c, 0, 60, 0
4, 44311, Note_on_c, 0, 61, 0
4, 44312, Note_on_c, 0, 55, 0
4, 44316, Note_on_c, 0, 58, 0
4, 44343, Note_on_c, 0, 54, 86
4, 44344, Note_on_c, 0, 93, 92
4, 44344, Note_on_c, 0, 60, 88
4, 44344, Note_on_c, 0, 64, 94
4, 44344, Note_on_c, 0, 81, 91
4, 44344, Note_on_c, 0, 88, 85
4, 44346, Control_c, 0, 64, 0
4, 44385, Control_c, 0, 64, 127
4, 44476, Note_on_c, 0, 60, 0
4, 44480, Note_on_c, 0, 64, 0
4, 44483, Note_on_c, 0, 81, 0
4, 44483, Note_on_c, 0, 54, 0
4, 44484, Note_on_c, 0, 88, 0
4, 44490, Note_on_c, 0, 93, 0
4, 44510, Control_c, 0, 64, 0
4, 44518, Note_on_c, 0, 54, 60
4, 44519, Note_on_c, 0, 93, 58
4, 44520, Note_on_c, 0, 64, 55
4, 44521, Note_on_c, 0, 81, 53
4, 44521, Note_on_c, 0, 88, 56
4, 44522, Note_on_c, 0, 60, 58
4, 44534, Control_c, 0, 64, 127
4, 44558, Note_on_c, 0, 81, 0
4, 44562, Note_on_c, 0, 64, 0
4, 44564, Note_on_c, 0, 88, 0
4, 44564, Note_on_c, 0, 60, 0
4, 44566, Note_on_c, 0, 54, 0
4, 44566, Note_on_c, 0, 93, 0
4, 44601, Note_on_c, 0, 54, 56
4, 44622, Note_on_c, 0, 54, 0
4, 44632, Control_c, 0, 64, 0
4, 44642, Note_on_c, 0, 64, 80
4, 44643, Note_on_c, 0, 55, 80
4, 44643, Note_on_c, 0, 96, 81
4, 44643, Note_on_c, 0, 60, 73
4, 44644, Note_on_c, 0, 91, 81
4, 44644, Note_on_c, 0, 84, 82
4, 44649, Note_on_c, 0, 84, 0
4, 44650, Note_on_c, 0, 91, 0
4, 44652, Note_on_c, 0, 60, 0
4, 44653, Note_on_c, 0, 64, 0
4, 44654, Note_on_c, 0, 96, 0
4, 44655, Note_on_c, 0, 55, 0
4, 44687, Control_c, 0, 64, 127
4, 44721, Note_on_c, 0, 64, 68
4, 44722, Note_on_c, 0, 55, 69
4, 44722, Note_on_c, 0, 60, 66
4, 44722, Note_on_c, 0, 96, 81
4, 44723, Note_on_c, 0, 91, 80
4, 44723, Note_on_c, 0, 84, 78
4, 44747, Note_on_c, 0, 96, 0
4, 44750, Note_on_c, 0, 60, 0
4, 44751, Note_on_c, 0, 91, 0
4, 44751, Note_on_c, 0, 84, 0
4, 44753, Note_on_c, 0, 64, 0
4, 44753, Note_on_c, 0, 55, 0
4, 44768, Note_on_c, 0, 58, 67
4, 44768, Note_on_c, 0, 94, 64
4, 44768, Note_on_c, 0, 84, 39
4, 44770, Note_on_c, 0, 91, 32
4, 44787, Note_on_c, 0, 91, 0
4, 44793, Note_on_c, 0, 84, 0
4, 44797, Note_on_c, 0, 94, 0
4, 44801, Note_on_c, 0, 58, 0
4, 44804, Note_on_c, 0, 60, 67
4, 44804, Note_on_c, 0, 96, 59
4, 44821, Note_on_c, 0, 96, 0
4, 44823, Note_on_c, 0, 60, 0
4, 44846, Note_on_c, 0, 93, 105
4, 44846, Note_on_c, 0, 57, 99
4, 44849, Control_c, 0, 64, 0
4, 44850, Note_on_c, 0, 91, 35
4, 44856, Note_on_c, 0, 91, 0
4, 44875, Control_c, 0, 64, 127
4, 44891, Note_on_c, 0, 93, 0
4, 44912, Note_on_c, 0, 57, 0
4, 44955, Note_on_c, 0, 81, 94
4, 44958, Note_on_c, 0, 57, 84
4, 44974, Note_on_c, 0, 81, 0
4, 44976, Note_on_c, 0, 57, 0
4, 44995, Note_on_c, 0, 81, 77
4, 44996, Note_on_c, 0, 57, 64
4, 45002, Control_c, 0, 64, 0
4, 45023, Note_on_c, 0, 57, 0
4, 45024, Control_c, 0, 64, 127
4, 45025, Note_on_c, 0, 81, 0
4, 45030, Note_on_c, 0, 50, 41
4, 45032, Note_on_c, 0, 74, 47
4, 45044, Note_on_c, 0, 74, 0
4, 45057, Note_on_c, 0, 50, 0
4, 45068, Control_c, 0, 64, 0
4, 45068, Note_on_c, 0, 77, 87
4, 45070, Note_on_c, 0, 53, 88
4, 45070, Note_on_c, 0, 76, 72
4, 45076, Note_on_c, 0, 76, 0
4, 45095, Control_c, 0, 64, 127
4, 45098, Note_on_c, 0, 77, 0
4, 45106, Note_on_c, 0, 53, 0
4, 45181, Note_on_c, 0, 61, 92
4, 45181, Note_on_c, 0, 64, 90
4, 45183, Note_on_c, 0, 57, 91
4, 45183, Note_on_c, 0, 50, 99
4, 45183, Note_on_c, 0, 43, 83
4, 45186, Note_on_c, 0, 45, 54
4, 45192, Note_on_c, 0, 45, 0
4, 45201, Control_c, 0, 64, 0
4, 45223, Control_c, 0, 64, 127
4, 45257, Note_on_c, 0, 57, 0
4, 45259, Note_on_c, 0, 43, 0
4, 45264, Note_on_c, 0, 50, 0
4, 45272, Note_on_c, 0, 61, 0
4, 45277, Note_on_c, 0, 64, 0
4, 45286, Note_on_c, 0, 62, 64
4, 45296, Note_on_c, 0, 50, 27
4, 45307, Note_on_c, 0, 50, 0
4, 45311, Note_on_c, 0, 62, 0
4, 45321, Note_on_c, 0, 53, 74
4, 45321, Note_on_c, 0, 65, 72
4, 45326, Note_on_c, 0, 62, 37
4, 45333, Note_on_c, 0, 62, 0
4, 45348, Note_on_c, 0, 65, 0
4, 45356, Control_c, 0, 64, 0
4, 45358, Note_on_c, 0, 53, 0
4, 45360, Note_on_c, 0, 57, 75
4, 45362, Note_on_c, 0, 69, 74
4, 45364, Note_on_c, 0, 62, 53
4, 45371, Note_on_c, 0, 62, 0
4, 45375, Note_on_c, 0, 69, 0
4, 45376, Note_on_c, 0, 57, 0
4, 45391, Note_on_c, 0, 62, 60
4, 45399, Note_on_c, 0, 52, 46
4, 45402, Note_on_c, 0, 62, 0
4, 45406, Note_on_c, 0, 52, 0
4, 45411, Control_c, 0, 64, 127
4, 45429, Note_on_c, 0, 64, 90
4, 45431, Note_on_c, 0, 60, 85
4, 45431, Note_on_c, 0, 45, 88
4, 45432, Note_on_c, 0, 55, 83
4, 45434, Control_c, 0, 64, 0
4, 45438, Note_on_c, 0, 52, 31
4, 45444, Note_on_c, 0, 52, 0
4, 45475, Control_c, 0, 64, 127
4, 45518, Note_on_c, 0, 60, 0
4, 45520, Note_on_c, 0, 45, 0
4, 45543, Note_on_c, 0, 55, 0
4, 45545, Note_on_c, 0, 64, 0
4, 45561, Note_on_c, 0, 46, 74
4, 45562, Note_on_c, 0, 62, 88
4, 45562, Note_on_c, 0, 65, 80
4, 45562, Note_on_c, 0, 58, 85
4, 45564, Note_on_c, 0, 55, 79
4, 45570, Control_c, 0, 64, 0
4, 45576, Note_on_c, 0, 55, 0
4, 45583, Note_on_c, 0, 55, 35
4, 45604, Control_c, 0, 64, 127
4, 45649, Note_on_c, 0, 62, 0
4, 45663, Note_on_c, 0, 65, 0
4, 45664, Note_on_c, 0, 58, 0
4, 45668, Note_on_c, 0, 46, 0
4, 45682, Note_on_c, 0, 55, 0
4, 45729, Control_c, 0, 64, 0
4, 45731, Note_on_c, 0, 69, 95
4, 45745, Note_on_c, 0, 55, 28
4, 45754, Note_on_c, 0, 55, 0
4, 45767, Note_on_c, 0, 69, 0
4, 45767, Note_on_c, 0, 62, 68
4, 45783, Note_on_c, 0, 62, 0
4, 45793, Control_c, 0, 64, 127
4, 45806, Note_on_c, 0, 62, 80
4, 45807, Note_on_c, 0, 65, 78
4, 45811, Control_c, 0, 64, 0
4, 45812, Note_on_c, 0, 47, 63
4, 45827, Note_on_c, 0, 47, 0
4, 45846, Control_c, 0, 64, 127
4, 45916, Note_on_c, 0, 65, 0
4, 45921, Note_on_c, 0, 48, 90
4, 45924, Note_on_c, 0, 47, 74
4, 45925, Note_on_c, 0, 62, 0
4, 45934, Note_on_c, 0, 47, 0
4, 45953, Control_c, 0, 64, 0
4, 45966, Note_on_c, 0, 65, 84
4, 45971, Note_on_c, 0, 48, 0
4, 45987, Note_on_c, 0, 65, 0
4, 46000, Note_on_c, 0, 67, 66
4, 46019, Note_on_c, 0, 67, 0
4, 46024, Control_c, 0, 64, 127
4, 46037, Note_on_c, 0, 65, 54
4, 46038, Note_on_c, 0, 46, 51
4, 46041, Note_on_c, 0, 56, 31
4, 46046, Note_on_c, 0, 56, 0
4, 46047, Note_on_c, 0, 65, 0
4, 46058, Control_c, 0, 64, 0
4, 46063, Note_on_c, 0, 46, 0
4, 46079, Note_on_c, 0, 72, 62
4, 46080, Note_on_c, 0, 45, 54
4, 46082, Note_on_c, 0, 55, 50
4, 46083, Control_c, 0, 64, 127
4, 46085, Note_on_c, 0, 45, 0
4, 46088, Note_on_c, 0, 55, 0
4, 46098, Note_on_c, 0, 72, 0
4, 46161, Note_on_c, 0, 61, 44
4, 46162, Note_on_c, 0, 69, 60
4, 46162, Note_on_c, 0, 65, 52
4, 46162, Note_on_c, 0, 81, 55
4, 46163, Note_on_c, 0, 60, 41
4, 46169, Note_on_c, 0, 55, 25
4, 46175, Note_on_c, 0, 69, 0
4, 46179, Note_on_c, 0, 65, 0
4, 46181, Note_on_c, 0, 55, 0
4, 46182, Note_on_c, 0, 60, 0
4, 46182, Note_on_c, 0, 81, 0
4, 46185, Note_on_c, 0, 61, 0
4, 46203, Note_on_c, 0, 61, 56
4, 46204, Note_on_c, 0, 84, 75
4, 46205, Note_on_c, 0, 72, 66
4, 46205, Note_on_c, 0, 65, 62
4, 46205, Note_on_c, 0, 60, 63
4, 46206, Note_on_c, 0, 55, 56
4, 46210, Note_on_c, 0, 58, 31
4, 46224, Note_on_c, 0, 72, 0
4, 46231, Note_on_c, 0, 55, 0
4, 46232, Note_on_c, 0, 84, 0
4, 46233, Note_on_c, 0, 65, 0
4, 46234, Note_on_c, 0, 60, 0
4, 46236, Note_on_c, 0, 61, 0
4, 46241, Note_on_c, 0, 58, 0
4, 46272, Note_on_c, 0, 61, 49
4, 46275, Note_on_c, 0, 55, 51
4, 46277, Note_on_c, 0, 77, 67
4, 46277, Note_on_c, 0, 65, 37
4, 46277, Note_on_c, 0, 89, 68
4, 46284, Note_on_c, 0, 65, 0
4, 46289, Note_on_c, 0, 77, 0
4, 46289, Note_on_c, 0, 55, 0
4, 46292, Note_on_c, 0, 89, 0
4, 46295, Note_on_c, 0, 61, 0
4, 46295, Control_c, 0, 64, 0
4, 46316, Note_on_c, 0, 54, 63
4, 46318, Note_on_c, 0, 64, 48
4, 46321, Note_on_c, 0, 60, 45
4, 46321, Note_on_c, 0, 80, 46
4, 46322, Note_on_c, 0, 92, 55
4, 46334, Note_on_c, 0, 90, 19
4, 46337, Note_on_c, 0, 92, 0
4, 46337, Note_on_c, 0, 80, 0
4, 46343, Note_on_c, 0, 81, 27
4, 46345, Note_on_c, 0, 93, 20
4, 46346, Note_on_c, 0, 90, 0
4, 46349, Note_on_c, 0, 81, 0
4, 46351, Note_on_c, 0, 93, 0
4, 46372, Note_on_c, 0, 60, 0
4, 46372, Note_on_c, 0, 64, 0
4, 46376, Note_on_c, 0, 54, 0
4, 46397, Note_on_c, 0, 54, 69
4, 46398, Note_on_c, 0, 64, 64
4, 46400, Note_on_c, 0, 60, 63
4, 46401, Note_on_c, 0, 96, 73
4, 46402, Note_on_c, 0, 84, 67
4, 46404, Note_on_c, 0, 91, 51
4, 46410, Note_on_c, 0, 91, 0
4, 46413, Note_on_c, 0, 96, 0
4, 46415, Note_on_c, 0, 64, 0
4, 46416, Note_on_c, 0, 84, 0
4, 46416, Note_on_c, 0, 60, 0
4, 46423, Note_on_c, 0, 54, 0
4, 46444, Note_on_c, 0, 92, 67
4, 46445, Note_on_c, 0, 80, 55
4, 46445, Note_on_c, 0, 54, 59
4, 46448, Note_on_c, 0, 64, 49
4, 46448, Note_on_c, 0, 60, 49
4, 46458, Note_on_c, 0, 80, 0
4, 46463, Note_on_c, 0, 92, 0
4, 46463, Note_on_c, 0, 81, 28
4, 46465, Note_on_c, 0, 86, 22
4, 46471, Note_on_c, 0, 81, 0
4, 46472, Note_on_c, 0, 86, 0
4, 46479, Note_on_c, 0, 64, 0
4, 46484, Note_on_c, 0, 60, 0
4, 46490, Note_on_c, 0, 54, 0
4, 46520, Note_on_c, 0, 54, 53
4, 46521, Note_on_c, 0, 64, 48
4, 46523, Note_on_c, 0, 74, 49
4, 46523, Note_on_c, 0, 86, 64
4, 46529, Note_on_c, 0, 64, 0
4, 46530, Note_on_c, 0, 74, 0
4, 46537, Note_on_c, 0, 86, 0
4, 46539, Note_on_c, 0, 54, 0
4, 46556, Note_on_c, 0, 62, 54
4, 46557, Note_on_c, 0, 77, 64
4, 46558, Note_on_c, 0, 57, 47
4, 46558, Note_on_c, 0, 89, 64
4, 46558, Note_on_c, 0, 58, 58
4, 46560, Note_on_c, 0, 53, 33
4, 46564, Note_on_c, 0, 86, 26
4, 46565, Note_on_c, 0, 57, 0
4, 46569, Note_on_c, 0, 77, 0
4, 46572, Note_on_c, 0, 62, 0
4, 46576, Note_on_c, 0, 58, 0
4, 46576, Note_on_c, 0, 86, 0
4, 46578, Note_on_c, 0, 89, 0
4, 46582, Control_c, 0, 64, 127
4, 46583, Note_on_c, 0, 77, 50
4, 46593, Note_on_c, 0, 62, 48
4, 46595, Note_on_c, 0, 53, 0
4, 46596, Note_on_c, 0, 86, 44
4, 46597, Note_on_c, 0, 89, 28
4, 46597, Note_on_c, 0, 58, 26
4, 46599, Note_on_c, 0, 77, 0
4, 46605, Note_on_c, 0, 58, 0
4, 46609, Note_on_c, 0, 89, 0
4, 46610, Note_on_c, 0, 86, 0
4, 46611, Note_on_c, 0, 77, 43
4, 46614, Note_on_c, 0, 62, 0
4, 46618, Note_on_c, 0, 53, 24
4, 46619, Note_on_c, 0, 57, 44
4, 46624, Note_on_c, 0, 89, 27
4, 46625, Note_on_c, 0, 77, 0
4, 46626, Note_on_c, 0, 57, 0
4, 46627, Note_on_c, 0, 86, 51
4, 46628, Note_on_c, 0, 53, 0
4, 46629, Note_on_c, 0, 58, 29
4, 46632, Note_on_c, 0, 62, 30
4, 46641, Note_on_c, 0, 58, 0
4, 46642, Note_on_c, 0, 77, 48
4, 46644, Note_on_c, 0, 86, 0
4, 46649, Note_on_c, 0, 62, 0
4, 46656, Note_on_c, 0, 89, 0
4, 46662, Note_on_c, 0, 77, 0
4, 46672, Control_c, 0, 64, 0
4, 46674, Note_on_c, 0, 62, 62
4, 46676, Note_on_c, 0, 72, 49
4, 46677, Note_on_c, 0, 57, 60
4, 46678, Note_on_c, 0, 86, 45
4, 46678, Note_on_c, 0, 58, 25
4, 46683, Note_on_c, 0, 53, 31
4, 46698, Note_on_c, 0, 72, 0
4, 46698, Control_c, 0, 64, 127
4, 46705, Note_on_c, 0, 86, 0
4, 46719, Note_on_c, 0, 58, 0
4, 46723, Note_on_c, 0, 62, 0
4, 46726, Note_on_c, 0, 53, 0
4, 46729, Note_on_c, 0, 57, 0
4, 46753, Note_on_c, 0, 62, 60
4, 46754, Note_on_c, 0, 89, 77
4, 46755, Note_on_c, 0, 58, 46
4, 46755, Note_on_c, 0, 77, 63
4, 46755, Note_on_c, 0, 53, 39
4, 46757, Note_on_c, 0, 84, 53
4, 46768, Note_on_c, 0, 62, 0
4, 46770, Note_on_c, 0, 53, 0
4, 46773, Note_on_c, 0, 89, 0
4, 46774, Note_on_c, 0, 84, 0
4, 46777, Note_on_c, 0, 77, 0
4, 46779, Note_on_c, 0, 58, 0
4, 46792, Note_on_c, 0, 62, 50
4, 46793, Control_c, 0, 64, 0
4, 46793, Note_on_c, 0, 88, 48
4, 46794, Note_on_c, 0, 58, 38
4, 46796, Note_on_c, 0, 52, 46
4, 46797, Note_on_c, 0, 76, 33
4, 46797, Note_on_c, 0, 83, 32
4, 46817, Control_c, 0, 64, 127
4, 46833, Note_on_c, 0, 88, 0
4, 46840, Note_on_c, 0, 83, 0
4, 46844, Note_on_c, 0, 52, 0
4, 46847, Note_on_c, 0, 58, 0
4, 46849, Note_on_c, 0, 62, 0
4, 46853, Note_on_c, 0, 76, 0
4, 46875, Note_on_c, 0, 62, 58
4, 46876, Note_on_c, 0, 58, 54
4, 46877, Note_on_c, 0, 52, 51
4, 46892, Note_on_c, 0, 62, 0
4, 46904, Note_on_c, 0, 58, 0
4, 46913, Note_on_c, 0, 60, 56
4, 46916, Note_on_c, 0, 61, 59
4, 46923, Note_on_c, 0, 52, 0
4, 46926, Note_on_c, 0, 60, 0
4, 46927, Control_c, 0, 64, 0
4, 46930, Note_on_c, 0, 61, 0
4, 46933, Note_on_c, 0, 62, 57
4, 46948, Note_on_c, 0, 62, 0
4, 46956, Note_on_c, 0, 65, 75
4, 46979, Note_on_c, 0, 65, 0
4, 46991, Note_on_c, 0, 67, 105
4, 47024, Note_on_c, 0, 67, 0
4, 47032, Note_on_c, 0, 65, 77
4, 47045, Note_on_c, 0, 65, 0
4, 47113, Note_on_c, 0, 63, 80
4, 47114, Note_on_c, 0, 57, 88
4, 47114, Note_on_c, 0, 81, 88
4, 47114, Note_on_c, 0, 93, 85
4, 47115, Note_on_c, 0, 67, 85
4, 47115, Note_on_c, 0, 88, 81
4, 47117, Note_on_c, 0, 87, 30
4, 47123, Note_on_c, 0, 87, 0
4, 47151, Control_c, 0, 64, 127
4, 47223, Note_on_c, 0, 67, 0
4, 47226, Note_on_c, 0, 57, 0
4, 47233, Note_on_c, 0, 63, 0
4, 47246, Note_on_c, 0, 88, 0
4, 47248, Note_on_c, 0, 93, 0
4, 47249, Note_on_c, 0, 81, 0
4, 47276, Control_c, 0, 64, 0
4, 47282, Note_on_c, 0, 66, 53
4, 47283, Note_on_c, 0, 93, 54
4, 47284, Note_on_c, 0, 81, 44
4, 47284, Note_on_c, 0, 63, 42
4, 47285, Note_on_c, 0, 61, 40
4, 47286, Note_on_c, 0, 57, 40
4, 47286, Note_on_c, 0, 88, 40
4, 47306, Control_c, 0, 64, 127
4, 47330, Note_on_c, 0, 57, 0
4, 47333, Note_on_c, 0, 66, 0
4, 47334, Note_on_c, 0, 61, 0
4, 47336, Note_on_c, 0, 81, 0
4, 47337, Note_on_c, 0, 63, 0
4, 47339, Note_on_c, 0, 88, 0
4, 47343, Control_c, 0, 64, 0
4, 47344, Note_on_c, 0, 93, 0
4, 47406, Note_on_c, 0, 66, 46
4, 47406, Note_on_c, 0, 63, 38
4, 47407, Note_on_c, 0, 57, 39
4, 47408, Note_on_c, 0, 61, 35
4, 47408, Note_on_c, 0, 93, 49
4, 47409, Note_on_c, 0, 88, 47
4, 47410, Note_on_c, 0, 81, 43
4, 47422, Control_c, 0, 64, 127
4, 47441, Note_on_c, 0, 57, 0
4, 47442, Note_on_c, 0, 93, 0
4, 47444, Note_on_c, 0, 81, 0
4, 47445, Note_on_c, 0, 88, 0
4, 47447, Note_on_c, 0, 66, 0
4, 47455, Note_on_c, 0, 63, 0
4, 47465, Note_on_c, 0, 61, 0
4, 47502, Control_c, 0, 64, 0
4, 47525, Control_c, 0, 64, 127
4, 47527, Note_on_c, 0, 62, 47
4, 47527, Note_on_c, 0, 65, 50
4, 47528, Note_on_c, 0, 60, 57
4, 47529, Note_on_c, 0, 93, 66
4, 47531, Note_on_c, 0, 88, 53
4, 47531, Note_on_c, 0, 81, 37
4, 47532, Note_on_c, 0, 55, 32
4, 47549, Note_on_c, 0, 93, 0
4, 47552, Note_on_c, 0, 88, 0
4, 47552, Note_on_c, 0, 65, 0
4, 47556, Note_on_c, 0, 81, 0
4, 47558, Note_on_c, 0, 55, 0
4, 47561, Note_on_c, 0, 60, 0
4, 47562, Note_on_c, 0, 62, 0
4, 47627, Control_c, 0, 64, 0
4, 47643, Control_c, 0, 64, 127
4, 47646, Note_on_c, 0, 60, 43
4, 47647, Note_on_c, 0, 86, 50
4, 47647, Note_on_c, 0, 65, 30
4, 47647, Note_on_c, 0, 74, 40
4, 47648, Note_on_c, 0, 62, 31
4, 47649, Note_on_c, 0, 55, 33
4, 47650, Note_on_c, 0, 81, 41
4, 47661, Note_on_c, 0, 65, 0
4, 47663, Note_on_c, 0, 62, 0
4, 47669, Note_on_c, 0, 60, 0
4, 47674, Note_on_c, 0, 74, 0
4, 47676, Note_on_c, 0, 55, 0
4, 47684, Note_on_c, 0, 86, 0
4, 47684, Note_on_c, 0, 81, 0
4, 47746, Control_c, 0, 64, 0
4, 47762, Control_c, 0, 64, 127
4, 47764, Note_on_c, 0, 62, 34
4, 47764, Note_on_c, 0, 89, 45
4, 47764, Note_on_c, 0, 53, 33
4, 47765, Note_on_c, 0, 55, 35
4, 47766, Note_on_c, 0, 77, 32
4, 47769, Note_on_c, 0, 84, 41
4, 47770, Note_on_c, 0, 58, 33
4, 47787, Note_on_c, 0, 62, 0
4, 47792, Note_on_c, 0, 84, 0
4, 47794, Note_on_c, 0, 53, 0
4, 47795, Note_on_c, 0, 55, 0
4, 47796, Note_on_c, 0, 77, 0
4, 47797, Note_on_c, 0, 58, 0
4, 47801, Note_on_c, 0, 89, 0
4, 47842, Note_on_c, 0, 91, 64
4, 47842, Note_on_c, 0, 58, 52
4, 47842, Note_on_c, 0, 62, 64
4, 47843, Note_on_c, 0, 86, 64
4, 47843, Note_on_c, 0, 79, 48
4, 47844, Note_on_c, 0, 52, 54
4, 47849, Control_c, 0, 64, 0
4, 47851, Note_on_c, 0, 79, 0
4, 47851, Note_on_c, 0, 86, 0
4, 47853, Note_on_c, 0, 91, 0
4, 47855, Note_on_c, 0, 62, 0
4, 47858, Note_on_c, 0, 58, 0
4, 47859, Note_on_c, 0, 52, 0
4, 47886, Control_c, 0, 64, 127
4, 47888, Control_c, 0, 64, 0
4, 47955, Note_on_c, 0, 45, 99
4, 47960, Note_on_c, 0, 43, 36
4, 47966, Note_on_c, 0, 43, 0
4, 47969, Note_on_c, 0, 45, 0
4, 47989, Control_c, 0, 64, 127
4, 48072, Note_on_c, 0, 61, 69
4, 48072, Note_on_c, 0, 60, 79
4, 48072, Note_on_c, 0, 65, 83
4, 48073, Note_on_c, 0, 84, 88
4, 48073, Note_on_c, 0, 79, 88
4, 48073, Note_on_c, 0, 55, 80
4, 48073, Note_on_c, 0, 72, 94
4, 48076, Note_on_c, 0, 58, 35
4, 48080, Control_c, 0, 64, 0
4, 48108, Control_c, 0, 64, 127
4, 48158, Note_on_c, 0, 72, 0
4, 48165, Note_on_c, 0, 79, 0
4, 48169, Note_on_c, 0, 84, 0
4, 48170, Note_on_c, 0, 65, 0
4, 48174, Note_on_c, 0, 60, 0
4, 48180, Note_on_c, 0, 55, 0
4, 48183, Note_on_c, 0, 61, 0
4, 48187, Note_on_c, 0, 58, 0
4, 48249, Control_c, 0, 64, 0
4, 48251, Note_on_c, 0, 54, 74
4, 48252, Note_on_c, 0, 96, 71
4, 48252, Note_on_c, 0, 64, 71
4, 48254, Note_on_c, 0, 60, 58
4, 48255, Note_on_c, 0, 84, 54
4, 48255, Note_on_c, 0, 91, 53
4, 48262, Note_on_c, 0, 91, 0
4, 48282, Control_c, 0, 64, 127
4, 48302, Note_on_c, 0, 96, 0
4, 48309, Note_on_c, 0, 84, 0
4, 48326, Note_on_c, 0, 60, 0
4, 48332, Note_on_c, 0, 64, 0
4, 48341, Note_on_c, 0, 54, 0
4, 48361, Control_c, 0, 64, 0
4, 48370, Note_on_c, 0, 54, 57
4, 48371, Note_on_c, 0, 64, 57
4, 48373, Note_on_c, 0, 93, 66
4, 48374, Note_on_c, 0, 60, 57
4, 48374, Note_on_c, 0, 89, 51
4, 48374, Note_on_c, 0, 86, 57
4, 48375, Note_on_c, 0, 81, 48
4, 48384, Control_c, 0, 64, 127
4, 48414, Note_on_c, 0, 64, 0
4, 48415, Note_on_c, 0, 60, 0
4, 48417, Note_on_c, 0, 93, 0
4, 48418, Note_on_c, 0, 81, 0
4, 48419, Note_on_c, 0, 86, 0
4, 48420, Note_on_c, 0, 89, 0
4, 48432, Note_on_c, 0, 54, 0
4, 48475, Control_c, 0, 64, 0
4, 48486, Note_on_c, 0, 58, 73
4, 48486, Note_on_c, 0, 62, 82
4, 48487, Note_on_c, 0, 86, 78
4, 48487, Note_on_c, 0, 94, 77
4, 48488, Note_on_c, 0, 55, 72
4, 48488, Note_on_c, 0, 82, 69
4, 48488, Note_on_c, 0, 53, 67
4, 48491, Note_on_c, 0, 89, 52
4, 48492, Note_on_c, 0, 92, 42
4, 48504, Control_c, 0, 64, 127
4, 48528, Note_on_c, 0, 82, 0
4, 48528, Note_on_c, 0, 94, 0
4, 48529, Note_on_c, 0, 89, 0
4, 48529, Note_on_c, 0, 62, 0
4, 48530, Note_on_c, 0, 86, 0
4, 48532, Note_on_c, 0, 55, 0
4, 48533, Note_on_c, 0, 53, 0
4, 48533, Note_on_c, 0, 92, 0
4, 48539, Note_on_c, 0, 58, 0
4, 48563, Note_on_c, 0, 58, 64
4, 48563, Note_on_c, 0, 62, 65
4, 48563, Note_on_c, 0, 94, 71
4, 48564, Note_on_c, 0, 82, 67
4, 48564, Note_on_c, 0, 53, 46
4, 48565, Note_on_c, 0, 86, 68
4, 48567, Note_on_c, 0, 89, 51
4, 48568, Note_on_c, 0, 55, 36
4, 48569, Note_on_c, 0, 92, 33
4, 48573, Note_on_c, 0, 53, 0
4, 48575, Note_on_c, 0, 55, 0
4, 48583, Note_on_c, 0, 62, 0
4, 48587, Note_on_c, 0, 58, 0
4, 48588, Note_on_c, 0, 94, 0
4, 48588, Note_on_c, 0, 82, 0
4, 48588, Note_on_c, 0, 86, 0
4, 48590, Note_on_c, 0, 89, 0
4, 48594, Control_c, 0, 64, 0
4, 48595, Note_on_c, 0, 92, 0
4, 48602, Note_on_c, 0, 64, 56
4, 48605, Note_on_c, 0, 55, 43
4, 48605, Note_on_c, 0, 57, 44
4, 48607, Note_on_c, 0, 86, 59
4, 48608, Note_on_c, 0, 93, 60
4, 48608, Note_on_c, 0, 60, 50
4, 48610, Note_on_c, 0, 89, 36
4, 48610, Note_on_c, 0, 81, 44
4, 48623, Note_on_c, 0, 81, 0
4, 48626, Note_on_c, 0, 89, 0
4, 48629, Note_on_c, 0, 86, 0
4, 48630, Note_on_c, 0, 64, 0
4, 48630, Note_on_c, 0, 55, 0
4, 48630, Note_on_c, 0, 93, 0
4, 48631, Note_on_c, 0, 60, 0
4, 48632, Control_c, 0, 64, 127
4, 48634, Note_on_c, 0, 57, 0
4, 48645, Control_c, 0, 64, 0
4, 48663, Control_c, 0, 64, 127
4, 48674, Note_on_c, 0, 64, 49
4, 48675, Note_on_c, 0, 55, 58
4, 48677, Note_on_c, 0, 93, 71
4, 48679, Note_on_c, 0, 86, 71
4, 48679, Note_on_c, 0, 57, 42
4, 48680, Note_on_c, 0, 81, 52
4, 48685, Note_on_c, 0, 64, 0
4, 48687, Note_on_c, 0, 86, 0
4, 48688, Note_on_c, 0, 57, 0
4, 48690, Note_on_c, 0, 93, 0
4, 48692, Note_on_c, 0, 55, 0
4, 48697, Note_on_c, 0, 81, 0
4, 48703, Control_c, 0, 64, 0
4, 48718, Note_on_c, 0, 89, 48
4, 48721, Note_on_c, 0, 62, 50
4, 48721, Note_on_c, 0, 58, 40
4, 48722, Note_on_c, 0, 53, 35
4, 48722, Note_on_c, 0, 77, 53
4, 48725, Note_on_c, 0, 82, 33
4, 48730, Control_c, 0, 64, 127
4, 48735, Note_on_c, 0, 62, 0
4, 48739, Note_on_c, 0, 89, 0
4, 48739, Note_on_c, 0, 82, 0
4, 48741, Note_on_c, 0, 53, 0
4, 48741, Note_on_c, 0, 77, 0
4, 48746, Note_on_c, 0, 58, 0
4, 48796, Note_on_c, 0, 86, 57
4, 48797, Note_on_c, 0, 74, 49
4, 48797, Control_c, 0, 64, 0
4, 48798, Note_on_c, 0, 82, 33
4, 48798, Note_on_c, 0, 62, 51
4, 48799, Note_on_c, 0, 58, 43
4, 48799, Note_on_c, 0, 52, 47
4, 48801, Note_on_c, 0, 79, 40
4, 48831, Control_c, 0, 64, 127
4, 48847, Note_on_c, 0, 86, 0
4, 48852, Note_on_c, 0, 79, 0
4, 48856, Note_on_c, 0, 82, 0
4, 48859, Note_on_c, 0, 74, 0
4, 48873, Note_on_c, 0, 62, 0
4, 48889, Note_on_c, 0, 58, 0
4, 48913, Note_on_c, 0, 52, 0
4, 48940, Note_on_c, 0, 54, 32
4, 48946, Note_on_c, 0, 56, 55
4, 48958, Note_on_c, 0, 54, 0
4, 48967, Note_on_c, 0, 63, 73
4, 48967, Note_on_c, 0, 68, 67
4, 48968, Note_on_c, 0, 65, 71
4, 48969, Note_on_c, 0, 60, 68
4, 48974, Control_c, 0, 64, 0
4, 49019, Control_c, 0, 64, 127
4, 49161, Note_on_c, 0, 60, 0
4, 49163, Note_on_c, 0, 56, 0
4, 49168, Note_on_c, 0, 53, 41
4, 49171, Note_on_c, 0, 65, 0
4, 49172, Note_on_c, 0, 63, 0
4, 49172, Note_on_c, 0, 68, 0
4, 49204, Note_on_c, 0, 53, 0
4, 49210, Note_on_c, 0, 68, 43
4, 49211, Control_c, 0, 64, 0
4, 49212, Note_on_c, 0, 56, 46
4, 49212, Note_on_c, 0, 61, 43
4, 49213, Note_on_c, 0, 58, 31
4, 49213, Note_on_c, 0, 65, 48
4, 49246, Control_c, 0, 64, 127
4, 49259, Note_on_c, 0, 58, 0
4, 49261, Note_on_c, 0, 65, 0
4, 49262, Note_on_c, 0, 61, 0
4, 49262, Note_on_c, 0, 68, 0
4, 49282, Note_on_c, 0, 46, 45
4, 49283, Note_on_c, 0, 68, 33
4, 49284, Note_on_c, 0, 58, 39
4, 49284, Note_on_c, 0, 61, 42
4, 49285, Note_on_c, 0, 65, 42
4, 49292, Control_c, 0, 64, 0
4, 49308, Control_c, 0, 64, 127
4, 49359, Note_on_c, 0, 56, 0
4, 49371, Note_on_c, 0, 61, 0
4, 49381, Note_on_c, 0, 58, 0
4, 49386, Note_on_c, 0, 65, 0
4, 49391, Note_on_c, 0, 46, 0
4, 49403, Note_on_c, 0, 68, 0
4, 49422, Note_on_c, 0, 52, 25
4, 49434, Note_on_c, 0, 52, 0
4, 49435, Control_c, 0, 64, 0
4, 49441, Note_on_c, 0, 63, 51
4, 49441, Note_on_c, 0, 68, 50
4, 49441, Note_on_c, 0, 59, 55
4, 49443, Note_on_c, 0, 53, 45
4, 49444, Note_on_c, 0, 65, 49
4, 49467, Control_c, 0, 64, 127
4, 49491, Note_on_c, 0, 59, 0
4, 49506, Note_on_c, 0, 65, 0
4, 49508, Note_on_c, 0, 43, 62
4, 49514, Note_on_c, 0, 63, 0
4, 49518, Note_on_c, 0, 53, 0
4, 49520, Note_on_c, 0, 68, 0
4, 49521, Note_on_c, 0, 43, 0
4, 49628, Note_on_c, 0, 64, 32
4, 49628, Note_on_c, 0, 53, 36
4, 49629, Note_on_c, 0, 59, 37
4, 49632, Note_on_c, 0, 86, 69
4, 49632, Note_on_c, 0, 74, 48
4, 49634, Note_on_c, 0, 64, 0
4, 49636, Note_on_c, 0, 59, 0
4, 49639, Note_on_c, 0, 74, 0
4, 49643, Note_on_c, 0, 86, 0
4, 49645, Note_on_c, 0, 53, 0
4, 49669, Control_c, 0, 64, 0
4, 49673, Note_on_c, 0, 89, 57
4, 49675, Note_on_c, 0, 58, 57
4, 49675, Note_on_c, 0, 62, 62
4, 49675, Note_on_c, 0, 77, 45
4, 49675, Note_on_c, 0, 52, 62
4, 49676, Note_on_c, 0, 84, 51
4, 49680, Note_on_c, 0, 52, 0
4, 49682, Note_on_c, 0, 62, 0
4, 49682, Note_on_c, 0, 84, 0
4, 49685, Note_on_c, 0, 77, 0
4, 49687, Note_on_c, 0, 89, 0
4, 49689, Note_on_c, 0, 58, 0
4, 49706, Control_c, 0, 64, 127
4, 49749, Control_c, 0, 64, 0
4, 49753, Note_on_c, 0, 58, 83
4, 49753, Note_on_c, 0, 64, 80
4, 49753, Note_on_c, 0, 91, 83
4, 49754, Note_on_c, 0, 79, 83
4, 49754, Note_on_c, 0, 69, 88
4, 49755, Note_on_c, 0, 88, 71
4, 49755, Note_on_c, 0, 84, 74
4, 49777, Control_c, 0, 64, 127
4, 49831, Note_on_c, 0, 69, 0
4, 49832, Note_on_c, 0, 64, 0
4, 49850, Note_on_c, 0, 58, 0
4, 49878, Note_on_c, 0, 79, 0
4, 49880, Note_on_c, 0, 84, 0
4, 49884, Control_c, 0, 64, 0
4, 49886, Note_on_c, 0, 91, 0
4, 49888, Note_on_c, 0, 88, 0
4, 50001, Note_on_c, 0, 87, 80
4, 50002, Note_on_c, 0, 93, 84
4, 50002, Note_on_c, 0, 61, 67
4, 50002, Note_on_c, 0, 60, 73
4, 50003, Note_on_c, 0, 81, 74
4, 50003, Note_on_c, 0, 65, 78
4, 50003, Note_on_c, 0, 55, 76
4, 50005, Note_on_c, 0, 58, 40
4, 50006, Note_on_c, 0, 90, 31
4, 50011, Note_on_c, 0, 90, 0
4, 50026, Note_on_c, 0, 87, 0
4, 50026, Note_on_c, 0, 88, 44
4, 50040, Control_c, 0, 64, 127
4, 50106, Note_on_c, 0, 65, 0
4, 50108, Note_on_c, 0, 60, 0
4, 50111, Note_on_c, 0, 55, 0
4, 50113, Note_on_c, 0, 88, 0
4, 50113, Note_on_c, 0, 61, 0
4, 50124, Note_on_c, 0, 58, 0
4, 50124, Note_on_c, 0, 93, 0
4, 50134, Note_on_c, 0, 81, 0
4, 50165, Control_c, 0, 64, 0
4, 50167, Note_on_c, 0, 93, 54
4, 50167, Note_on_c, 0, 54, 46
4, 50169, Note_on_c, 0, 60, 37
4, 50170, Note_on_c, 0, 86, 47
4, 50170, Note_on_c, 0, 64, 32
4, 50171, Note_on_c, 0, 81, 27
4, 50180, Note_on_c, 0, 86, 0
4, 50181, Note_on_c, 0, 81, 0
4, 50183, Note_on_c, 0, 93, 0
4, 50184, Note_on_c, 0, 64, 0
4, 50187, Note_on_c, 0, 60, 0
4, 50189, Note_on_c, 0, 54, 0
4, 50219, Control_c, 0, 64, 127
4, 50238, Note_on_c, 0, 54, 57
4, 50240, Note_on_c, 0, 93, 57
4, 50241, Note_on_c, 0, 64, 46
4, 50243, Note_on_c, 0, 86, 47
4, 50243, Note_on_c, 0, 60, 51
4, 50244, Control_c, 0, 64, 0
4, 50245, Note_on_c, 0, 81, 24
4, 50267, Control_c, 0, 64, 127
4, 50313, Note_on_c, 0, 81, 0
4, 50313, Note_on_c, 0, 64, 0
4, 50315, Note_on_c, 0, 86, 0
4, 50321, Note_on_c, 0, 60, 0
4, 50325, Note_on_c, 0, 93, 0
4, 50326, Note_on_c, 0, 54, 0
4, 50368, Note_on_c, 0, 60, 39
4, 50382, Note_on_c, 0, 60, 0
4, 50395, Control_c, 0, 64, 0
4, 50406, Note_on_c, 0, 64, 66
4, 50407, Note_on_c, 0, 60, 66
4, 50408, Note_on_c, 0, 96, 74
4, 50408, Note_on_c, 0, 55, 58
4, 50409, Note_on_c, 0, 91, 70
4, 50409, Note_on_c, 0, 84, 68
4, 50415, Note_on_c, 0, 84, 0
4, 50415, Note_on_c, 0, 91, 0
4, 50416, Note_on_c, 0, 55, 0
4, 50419, Note_on_c, 0, 64, 0
4, 50419, Note_on_c, 0, 60, 0
4, 50419, Note_on_c, 0, 96, 0
4, 50430, Control_c, 0, 64, 127
4, 50483, Note_on_c, 0, 96, 80
4, 50484, Note_on_c, 0, 55, 74
4, 50484, Note_on_c, 0, 64, 62
4, 50484, Note_on_c, 0, 60, 62
4, 50486, Note_on_c, 0, 84, 74
4, 50488, Note_on_c, 0, 91, 53
4, 50494, Note_on_c, 0, 91, 0
4, 50507, Note_on_c, 0, 96, 0
4, 50510, Note_on_c, 0, 84, 0
4, 50510, Note_on_c, 0, 64, 0
4, 50511, Note_on_c, 0, 55, 0
4, 50518, Note_on_c, 0, 60, 0
4, 50527, Note_on_c, 0, 94, 68
4, 50530, Note_on_c, 0, 84, 24
4, 50536, Note_on_c, 0, 84, 0
4, 50549, Note_on_c, 0, 94, 0
4, 50560, Note_on_c, 0, 96, 70
4, 50580, Note_on_c, 0, 96, 0
4, 50603, Note_on_c, 0, 93, 96
4, 50604, Note_on_c, 0, 64, 59
4, 50604, Note_on_c, 0, 60, 67
4, 50604, Control_c, 0, 64, 0
4, 50610, Note_on_c, 0, 55, 35
4, 50621, Note_on_c, 0, 64, 0
4, 50625, Note_on_c, 0, 55, 0
4, 50625, Note_on_c, 0, 60, 0
4, 50631, Note_on_c, 0, 93, 0
4, 50632, Control_c, 0, 64, 127
4, 50695, Control_c, 0, 64, 0
4, 50707, Note_on_c, 0, 57, 85
4, 50707, Note_on_c, 0, 56, 64
4, 50709, Note_on_c, 0, 92, 91
4, 50710, Note_on_c, 0, 93, 85
4, 50714, Control_c, 0, 64, 127
4, 50720, Note_on_c, 0, 92, 0
4, 50722, Note_on_c, 0, 57, 0
4, 50724, Note_on_c, 0, 93, 0
4, 50739, Note_on_c, 0, 56, 0
4, 50753, Control_c, 0, 64, 0
4, 50764, Note_on_c, 0, 57, 76
4, 50765, Note_on_c, 0, 93, 85
4, 50766, Note_on_c, 0, 92, 70
4, 50773, Note_on_c, 0, 92, 0
4, 50785, Control_c, 0, 64, 127
4, 50787, Note_on_c, 0, 93, 0
4, 50793, Note_on_c, 0, 57, 0
4, 50798, Note_on_c, 0, 50, 50
4, 50801, Note_on_c, 0, 86, 40
4, 50810, Note_on_c, 0, 86, 0
4, 50827, Note_on_c, 0, 50, 0
4, 50840, Note_on_c, 0, 53, 77
4, 50843, Note_on_c, 0, 89, 92
4, 50844, Control_c, 0, 64, 0
4, 50866, Note_on_c, 0, 89, 0
4, 50870, Control_c, 0, 64, 127
4, 50872, Note_on_c, 0, 53, 0
4, 50948, Note_on_c, 0, 61, 74
4, 50948, Note_on_c, 0, 64, 75
4, 50949, Note_on_c, 0, 57, 77
4, 50949, Note_on_c, 0, 50, 80
4, 50950, Note_on_c, 0, 43, 79
4, 50961, Control_c, 0, 64, 0
4, 50986, Control_c, 0, 64, 127
4, 51036, Note_on_c, 0, 50, 0
4, 51052, Note_on_c, 0, 57, 0
4, 51054, Note_on_c, 0, 43, 0
4, 51058, Note_on_c, 0, 64, 0
4, 51063, Note_on_c, 0, 61, 0
4, 51128, Note_on_c, 0, 69, 99
4, 51128, Control_c, 0, 64, 0
4, 51128, Note_on_c, 0, 57, 71
4, 51130, Note_on_c, 0, 68, 55
4, 51136, Note_on_c, 0, 68, 0
4, 51155, Note_on_c, 0, 57, 0
4, 51156, Note_on_c, 0, 69, 0
4, 51158, Note_on_c, 0, 50, 57
4, 51164, Control_c, 0, 64, 127
4, 51165, Note_on_c, 0, 62, 54
4, 51179, Note_on_c, 0, 62, 0
4, 51184, Note_on_c, 0, 50, 0
4, 51188, Control_c, 0, 64, 0
4, 51201, Note_on_c, 0, 65, 85
4, 51205, Control_c, 0, 64, 127
4, 51222, Note_on_c, 0, 67, 8
4, 51227, Note_on_c, 0, 67, 0
4, 51247, Note_on_c, 0, 65, 0
4, 51251, Note_on_c, 0, 46, 70
4, 51253, Note_on_c, 0, 64, 72
4, 51253, Note_on_c, 0, 60, 71
4, 51254, Note_on_c, 0, 55, 77
4, 51258, Control_c, 0, 64, 0
4, 51276, Control_c, 0, 64, 127
4, 51291, Note_on_c, 0, 60, 0
4, 51302, Note_on_c, 0, 55, 0
4, 51305, Note_on_c, 0, 46, 0
4, 51316, Note_on_c, 0, 64, 0
4, 51322, Note_on_c, 0, 62, 80
4, 51323, Note_on_c, 0, 46, 69
4, 51324, Note_on_c, 0, 58, 78
4, 51332, Control_c, 0, 64, 0
4, 51361, Control_c, 0, 64, 127
4, 51418, Note_on_c, 0, 58, 0
4, 51420, Note_on_c, 0, 46, 0
4, 51421, Note_on_c, 0, 62, 0
4, 51444, Note_on_c, 0, 47, 73
4, 51445, Note_on_c, 0, 62, 84
4, 51445, Note_on_c, 0, 56, 71
4, 51445, Note_on_c, 0, 58, 83
4, 51446, Note_on_c, 0, 69, 79
4, 51447, Note_on_c, 0, 65, 71
4, 51451, Control_c, 0, 64, 0
4, 51480, Control_c, 0, 64, 127
4, 51522, Note_on_c, 0, 56, 0
4, 51526, Note_on_c, 0, 69, 0
4, 51530, Note_on_c, 0, 65, 0
4, 51531, Note_on_c, 0, 47, 0
4, 51532, Note_on_c, 0, 58, 0
4, 51532, Note_on_c, 0, 62, 0
4, 51575, Note_on_c, 0, 43, 24
4, 51584, Note_on_c, 0, 46, 45
4, 51586, Note_on_c, 0, 45, 34
4, 51588, Note_on_c, 0, 43, 0
4, 51598, Note_on_c, 0, 46, 0
4, 51599, Note_on_c, 0, 47, 29
4, 51601, Note_on_c, 0, 45, 0
4, 51603, Control_c, 0, 64, 0
4, 51604, Note_on_c, 0, 58, 73
4, 51605, Note_on_c, 0, 65, 68
4, 51605, Note_on_c, 0, 62, 68
4, 51605, Note_on_c, 0, 48, 71
4, 51607, Note_on_c, 0, 55, 70
4, 51609, Note_on_c, 0, 47, 0
4, 51639, Control_c, 0, 64, 127
4, 51667, Note_on_c, 0, 48, 0
4, 51668, Note_on_c, 0, 55, 0
4, 51671, Note_on_c, 0, 65, 0
4, 51678, Note_on_c, 0, 62, 0
4, 51678, Note_on_c, 0, 58, 0
4, 51680, Note_on_c, 0, 48, 73
4, 51722, Note_on_c, 0, 67, 73
4, 51731, Note_on_c, 0, 48, 0
4, 51745, Note_on_c, 0, 67, 0
4, 51758, Note_on_c, 0, 65, 62
4, 51765, Note_on_c, 0, 65, 0
4, 51803, Note_on_c, 0, 72, 79
4, 51805, Note_on_c, 0, 60, 80
4, 51805, Note_on_c, 0, 67, 83
4, 51807, Note_on_c, 0, 55, 78
4, 51814, Control_c, 0, 64, 0
4, 51857, Control_c, 0, 64, 127
4, 51914, Note_on_c, 0, 45, 72
4, 51937, Note_on_c, 0, 60, 0
4, 51981, Note_on_c, 0, 45, 0
4, 52001, Note_on_c, 0, 55, 0
4, 52027, Note_on_c, 0, 67, 0
4, 52035, Note_on_c, 0, 57, 43
4, 52065, Note_on_c, 0, 57, 0
4, 52067, Control_c, 0, 64, 0
4, 52072, Note_on_c, 0, 72, 0
4, 52081, Note_on_c, 0, 50, 54
4, 52089, Control_c, 0, 64, 127
4, 52149, Note_on_c, 0, 65, 57
4, 52151, Note_on_c, 0, 60, 47
4, 52152, Note_on_c, 0, 57, 50
4, 52212, Note_on_c, 0, 57, 0
4, 52222, Note_on_c, 0, 50, 0
4, 52231, Note_on_c, 0, 65, 0
4, 52244, Note_on_c, 0, 60, 0
4, 52272, Note_on_c, 0, 50, 31
4, 52312, Note_on_c, 0, 50, 0
4, 52314, Control_c, 0, 64, 0
4, 52316, Note_on_c, 0, 58, 37
4, 52316, Note_on_c, 0, 53, 48
4, 52316, Note_on_c, 0, 62, 53
4, 52317, Note_on_c, 0, 43, 44
4, 52323, Note_on_c, 0, 55, 20
4, 52351, Control_c, 0, 64, 127
4, 52370, Note_on_c, 0, 55, 0
4, 52392, Note_on_c, 0, 62, 0
4, 52394, Note_on_c, 0, 55, 51
4, 52400, Note_on_c, 0, 55, 0
4, 52404, Note_on_c, 0, 43, 0
4, 52408, Note_on_c, 0, 58, 0
4, 52414, Note_on_c, 0, 53, 0
4, 52512, Note_on_c, 0, 62, 58
4, 52512, Note_on_c, 0, 79, 50
4, 52513, Note_on_c, 0, 67, 58
4, 52513, Note_on_c, 0, 58, 49
4, 52513, Note_on_c, 0, 52, 57
4, 52515, Note_on_c, 0, 76, 50
4, 52517, Note_on_c, 0, 72, 37
4, 52518, Control_c, 0, 64, 0
4, 52544, Control_c, 0, 64, 127
4, 52559, Note_on_c, 0, 67, 0
4, 52567, Note_on_c, 0, 62, 0
4, 52568, Note_on_c, 0, 72, 0
4, 52571, Note_on_c, 0, 52, 0
4, 52576, Note_on_c, 0, 79, 0
4, 52578, Note_on_c, 0, 76, 0
4, 52586, Note_on_c, 0, 58, 0
4, 52636, Note_on_c, 0, 62, 65
4, 52636, Note_on_c, 0, 58, 60
4, 52637, Note_on_c, 0, 60, 73
4, 52638, Note_on_c, 0, 52, 66
4, 52643, Note_on_c, 0, 60, 0
4, 52648, Note_on_c, 0, 62, 0
4, 52653, Note_on_c, 0, 52, 0
4, 52666, Note_on_c, 0, 58, 0
4, 52676, Control_c, 0, 64, 0
4, 52687, Control_c, 0, 64, 127
4, 52756, Note_on_c, 0, 86, 84
4, 52757, Note_on_c, 0, 74, 85
4, 52757, Note_on_c, 0, 81, 84
4, 52772, Note_on_c, 0, 74, 0
4, 52776, Note_on_c, 0, 81, 0
4, 52777, Note_on_c, 0, 86, 0
4, 52800, Note_on_c, 0, 62, 54
4, 52800, Note_on_c, 0, 65, 57
4, 52802, Note_on_c, 0, 84, 73
4, 52803, Note_on_c, 0, 57, 43
4, 52803, Note_on_c, 0, 79, 61
4, 52803, Note_on_c, 0, 72, 57
4, 52804, Control_c, 0, 64, 0
4, 52805, Note_on_c, 0, 60, 50
4, 52838, Control_c, 0, 64, 127
4, 52862, Note_on_c, 0, 65, 0
4, 52864, Note_on_c, 0, 62, 0
4, 52864, Note_on_c, 0, 72, 0
4, 52866, Note_on_c, 0, 60, 0
4, 52870, Note_on_c, 0, 79, 0
4, 52871, Note_on_c, 0, 84, 0
4, 52872, Note_on_c, 0, 57, 0
4, 53119, Note_on_c, 0, 68, 79
4, 53119, Note_on_c, 0, 57, 78
4, 53120, Note_on_c, 0, 63, 69
4, 53120, Note_on_c, 0, 61, 67
4, 53121, Note_on_c, 0, 89, 87
4, 53121, Note_on_c, 0, 77, 91
4, 53122, Note_on_c, 0, 84, 84
4, 53123, Control_c, 0, 64, 0
4, 53152, Control_c, 0, 64, 127
4, 53216, Note_on_c, 0, 57, 0
4, 53219, Note_on_c, 0, 89, 0
4, 53223, Note_on_c, 0, 68, 0
4, 53224, Note_on_c, 0, 84, 0
4, 53225, Note_on_c, 0, 61, 0
4, 53228, Note_on_c, 0, 63, 0
4, 53232, Note_on_c, 0, 77, 0
4, 53257, Note_on_c, 0, 63, 36
4, 53257, Note_on_c, 0, 68, 30
4, 53261, Note_on_c, 0, 61, 28
4, 53265, Note_on_c, 0, 68, 0
4, 53276, Note_on_c, 0, 61, 0
4, 53281, Note_on_c, 0, 63, 0
4, 53290, Control_c, 0, 64, 0
4, 53292, Note_on_c, 0, 86, 66
4, 53292, Note_on_c, 0, 80, 56
4, 53293, Note_on_c, 0, 62, 64
4, 53293, Note_on_c, 0, 74, 52
4, 53295, Note_on_c, 0, 65, 60
4, 53300, Note_on_c, 0, 55, 43
4, 53304, Note_on_c, 0, 60, 26
4, 53320, Note_on_c, 0, 80, 0
4, 53320, Control_c, 0, 64, 127
4, 53321, Note_on_c, 0, 81, 24
4, 53356, Note_on_c, 0, 65, 0
4, 53358, Note_on_c, 0, 86, 0
4, 53358, Note_on_c, 0, 62, 0
4, 53360, Note_on_c, 0, 60, 0
4, 53360, Note_on_c, 0, 74, 0
4, 53360, Note_on_c, 0, 81, 0
4, 53382, Note_on_c, 0, 55, 0
4, 53409, Control_c, 0, 64, 0
4, 53411, Note_on_c, 0, 64, 78
4, 53411, Note_on_c, 0, 57, 65
4, 53411, Note_on_c, 0, 79, 83
4, 53411, Note_on_c, 0, 60, 73
4, 53412, Note_on_c, 0, 84, 82
4, 53412, Note_on_c, 0, 55, 74
4, 53412, Note_on_c, 0, 72, 83
4, 53431, Control_c, 0, 64, 127
4, 53451, Note_on_c, 0, 64, 0
4, 53454, Note_on_c, 0, 60, 0
4, 53456, Note_on_c, 0, 84, 0
4, 53461, Note_on_c, 0, 79, 0
4, 53464, Note_on_c, 0, 55, 0
4, 53465, Note_on_c, 0, 57, 0
4, 53476, Note_on_c, 0, 72, 0
4, 53524, Control_c, 0, 64, 0
4, 53533, Note_on_c, 0, 82, 57
4, 53534, Note_on_c, 0, 62, 53
4, 53535, Note_on_c, 0, 55, 51
4, 53535, Note_on_c, 0, 74, 53
4, 53536, Note_on_c, 0, 53, 49
4, 53536, Note_on_c, 0, 58, 47
4, 53536, Note_on_c, 0, 70, 42
4, 53538, Note_on_c, 0, 77, 38
4, 53539, Control_c, 0, 64, 127
4, 53556, Note_on_c, 0, 82, 0
4, 53561, Note_on_c, 0, 74, 0
4, 53562, Note_on_c, 0, 62, 0
4, 53563, Note_on_c, 0, 70, 0
4, 53564, Note_on_c, 0, 77, 0
4, 53573, Note_on_c, 0, 53, 0
4, 53574, Note_on_c, 0, 55, 0
4, 53584, Note_on_c, 0, 58, 0
4, 53615, Note_on_c, 0, 77, 57
4, 53616, Note_on_c, 0, 74, 53
4, 53616, Note_on_c, 0, 70, 50
4, 53617, Note_on_c, 0, 65, 51
4, 53617, Note_on_c, 0, 58, 44
4, 53617, Note_on_c, 0, 62, 53
4, 53618, Note_on_c, 0, 52, 53
4, 53621, Control_c, 0, 64, 0
4, 53646, Control_c, 0, 64, 127
4, 53656, Note_on_c, 0, 74, 0
4, 53659, Note_on_c, 0, 77, 0
4, 53664, Note_on_c, 0, 62, 0
4, 53668, Note_on_c, 0, 70, 0
4, 53672, Note_on_c, 0, 65, 0
4, 53673, Note_on_c, 0, 58, 0
4, 53679, Note_on_c, 0, 52, 0
4, 53764, Note_on_c, 0, 67, 71
4, 53766, Note_on_c, 0, 60, 74
4, 53766, Note_on_c, 0, 57, 73
4, 53766, Note_on_c, 0, 64, 55
4, 53766, Note_on_c, 0, 55, 80
4, 53773, Control_c, 0, 64, 0
4, 53786, Note_on_c, 0, 57, 0
4, 53787, Note_on_c, 0, 60, 0
4, 53791, Note_on_c, 0, 55, 0
4, 53792, Note_on_c, 0, 64, 0
4, 53792, Note_on_c, 0, 67, 0
4, 53807, Note_on_c, 0, 53, 32
4, 53828, Note_on_c, 0, 53, 0
4, 53831, Note_on_c, 0, 67, 58
4, 53832, Control_c, 0, 64, 127
4, 53833, Note_on_c, 0, 57, 58
4, 53833, Note_on_c, 0, 60, 57
4, 53833, Note_on_c, 0, 55, 62
4, 53833, Note_on_c, 0, 64, 53
4, 53854, Note_on_c, 0, 60, 0
4, 53854, Note_on_c, 0, 57, 0
4, 53858, Note_on_c, 0, 64, 0
4, 53860, Note_on_c, 0, 55, 0
4, 53860, Note_on_c, 0, 67, 0
4, 53869, Note_on_c, 0, 53, 40
4, 53876, Control_c, 0, 64, 0
4, 53890, Note_on_c, 0, 53, 0
4, 53894, Note_on_c, 0, 67, 67
4, 53896, Note_on_c, 0, 57, 60
4, 53896, Note_on_c, 0, 55, 63
4, 53896, Note_on_c, 0, 60, 54
4, 53899, Note_on_c, 0, 64, 44
4, 53916, Note_on_c, 0, 57, 0
4, 53920, Note_on_c, 0, 64, 0
4, 53922, Note_on_c, 0, 60, 0
4, 53923, Note_on_c, 0, 67, 0
4, 53925, Note_on_c, 0, 55, 0
4, 53932, Note_on_c, 0, 60, 26
4, 53932, Note_on_c, 0, 57, 49
4, 53933, Note_on_c, 0, 53, 58
4, 53934, Note_on_c, 0, 65, 50
4, 53940, Control_c, 0, 64, 127
4, 53959, Note_on_c, 0, 60, 0
4, 53965, Note_on_c, 0, 57, 0
4, 53965, Note_on_c, 0, 65, 0
4, 53982, Note_on_c, 0, 51, 36
4, 53986, Note_on_c, 0, 53, 0
4, 53998, Control_c, 0, 64, 0
4, 53999, Note_on_c, 0, 56, 58
4, 54000, Note_on_c, 0, 68, 64
4, 54001, Note_on_c, 0, 51, 0
4, 54001, Note_on_c, 0, 61, 68
4, 54001, Note_on_c, 0, 57, 71
4, 54004, Note_on_c, 0, 63, 45
4, 54013, Note_on_c, 0, 57, 0
4, 54016, Note_on_c, 0, 63, 0
4, 54022, Note_on_c, 0, 61, 0
4, 54024, Note_on_c, 0, 68, 0
4, 54026, Note_on_c, 0, 56, 0
4, 54035, Note_on_c, 0, 54, 44
4, 54039, Control_c, 0, 64, 127
4, 54047, Control_c, 0, 64, 0
4, 54062, Note_on_c, 0, 68, 64
4, 54064, Note_on_c, 0, 61, 56
4, 54064, Note_on_c, 0, 63, 51
4, 54064, Note_on_c, 0, 57, 55
4, 54066, Note_on_c, 0, 56, 56
4, 54067, Note_on_c, 0, 54, 0
4, 54088, Note_on_c, 0, 57, 0
4, 54088, Control_c, 0, 64, 127
4, 54090, Note_on_c, 0, 61, 0
4, 54091, Note_on_c, 0, 68, 0
4, 54091, Note_on_c, 0, 63, 0
4, 54093, Note_on_c, 0, 56, 0
4, 54100, Control_c, 0, 64, 0
4, 54102, Note_on_c, 0, 54, 50
4, 54122, Note_on_c, 0, 68, 67
4, 54123, Note_on_c, 0, 57, 64
4, 54124, Note_on_c, 0, 63, 47
4, 54124, Note_on_c, 0, 61, 46
4, 54124, Note_on_c, 0, 56, 56
4, 54125, Note_on_c, 0, 54, 0
4, 54133, Control_c, 0, 64, 127
4, 54148, Note_on_c, 0, 63, 0
4, 54149, Note_on_c, 0, 57, 0
4, 54158, Note_on_c, 0, 57, 42
4, 54159, Note_on_c, 0, 56, 0
4, 54160, Note_on_c, 0, 63, 36
4, 54161, Note_on_c, 0, 54, 52
4, 54161, Note_on_c, 0, 66, 57
4, 54176, Note_on_c, 0, 57, 0
4, 54181, Note_on_c, 0, 68, 0
4, 54188, Note_on_c, 0, 63, 0
4, 54188, Note_on_c, 0, 66, 0
4, 54189, Note_on_c, 0, 61, 0
4, 54191, Note_on_c, 0, 54, 0
4, 54231, Control_c, 0, 64, 0
4, 54239, Note_on_c, 0, 46, 74
4, 54239, Note_on_c, 0, 70, 74
4, 54240, Note_on_c, 0, 62, 85
4, 54240, Note_on_c, 0, 53, 79
4, 54242, Note_on_c, 0, 58, 81
4, 54242, Note_on_c, 0, 65, 70
4, 54250, Note_on_c, 0, 68, 21
4, 54258, Control_c, 0, 64, 127
4, 54269, Note_on_c, 0, 53, 0
4, 54286, Note_on_c, 0, 46, 0
4, 54291, Note_on_c, 0, 62, 0
4, 54296, Note_on_c, 0, 58, 0
4, 54301, Note_on_c, 0, 65, 0
4, 54306, Note_on_c, 0, 68, 0
4, 54308, Note_on_c, 0, 70, 0
4, 54360, Control_c, 0, 64, 0
4, 54364, Note_on_c, 0, 69, 83
4, 54365, Note_on_c, 0, 64, 83
4, 54365, Note_on_c, 0, 45, 82
4, 54366, Note_on_c, 0, 33, 80
4, 54366, Note_on_c, 0, 60, 81
4, 54387, Control_c, 0, 64, 127
4, 54418, Note_on_c, 0, 69, 0
4, 54422, Note_on_c, 0, 45, 0
4, 54424, Note_on_c, 0, 33, 0
4, 54426, Note_on_c, 0, 64, 0
4, 54432, Note_on_c, 0, 60, 0
4, 54480, Control_c, 0, 64, 0
4, 54491, Note_on_c, 0, 67, 79
4, 54491, Note_on_c, 0, 43, 74
4, 54491, Note_on_c, 0, 62, 72
4, 54492, Note_on_c, 0, 31, 69
4, 54492, Note_on_c, 0, 58, 67
4, 54503, Control_c, 0, 64, 127
4, 54520, Note_on_c, 0, 43, 0
4, 54527, Note_on_c, 0, 67, 0
4, 54528, Note_on_c, 0, 31, 0
4, 54532, Note_on_c, 0, 58, 0
4, 54533, Note_on_c, 0, 62, 0
4, 54611, Control_c, 0, 64, 0
4, 54612, Note_on_c, 0, 24, 74
4, 54612, Note_on_c, 0, 58, 83
4, 54613, Note_on_c, 0, 62, 73
4, 54614, Note_on_c, 0, 65, 71
4, 54614, Note_on_c, 0, 53, 82
4, 54615, Note_on_c, 0, 36, 66
4, 54631, Note_on_c, 0, 24, 0
4, 54636, Control_c, 0, 64, 127
4, 54637, Note_on_c, 0, 36, 0
4, 54660, Note_on_c, 0, 53, 0
4, 54678, Note_on_c, 0, 58, 0
4, 54678, Note_on_c, 0, 62, 0
4, 54679, Note_on_c, 0, 65, 0
4, 54753, Note_on_c, 0, 41, 88
4, 54754, Note_on_c, 0, 63, 88
4, 54754, Note_on_c, 0, 68, 83
4, 54755, Note_on_c, 0, 53, 82
4, 54755, Note_on_c, 0, 57, 95
4, 54760, Control_c, 0, 64, 0
4, 54805, Control_c, 0, 64, 127
4, 54914, Note_on_c, 0, 57, 0
4, 54936, Note_on_c, 0, 63, 0
4, 54938, Note_on_c, 0, 68, 0
4, 54940, Note_on_c, 0, 41, 0
4, 54941, Note_on_c, 0, 53, 0
4, 55047, Note_on_c, 0, 84, 37
4, 55056, Note_on_c, 0, 85, 60
4, 55060, Note_on_c, 0, 84, 0
4, 55074, Note_on_c, 0, 85, 0
4, 55078, Note_on_c, 0, 86, 45
4, 55097, Note_on_c, 0, 86, 0
4, 55099, Note_on_c, 0, 89, 63
4, 55117, Note_on_c, 0, 89, 0
4, 55126, Note_on_c, 0, 91, 78
4, 55149, Note_on_c, 0, 91, 0
4, 55156, Note_on_c, 0, 86, 64
4, 55170, Note_on_c, 0, 86, 0
4, 55188, Note_on_c, 0, 89, 75
4, 55206, Note_on_c, 0, 89, 0
4, 55213, Note_on_c, 0, 91, 64
4, 55233, Note_on_c, 0, 91, 0
4, 55244, Note_on_c, 0, 67, 49
4, 55245, Note_on_c, 0, 89, 67
4, 55245, Note_on_c, 0, 63, 43
4, 55246, Note_on_c, 0, 57, 44
4, 55246, Note_on_c, 0, 62, 49
4, 55257, Control_c, 0, 64, 0
4, 55278, Control_c, 0, 64, 127
4, 55335, Note_on_c, 0, 89, 0
4, 55482, Control_c, 0, 64, 0
4, 55505, Note_on_c, 0, 57, 0
4, 55514, Note_on_c, 0, 62, 0
4, 55514, Note_on_c, 0, 63, 0
4, 55519, Note_on_c, 0, 67, 0
4, 55519, End_track
5, 0, Start_track
5, 0, Title_t, "Track 4"
5, 120, Program_c, 1, 32
5, 1044, Note_on_c, 1, 41, 101
5, 1203, Note_on_c, 1, 41, 0
5, 1208, Note_on_c, 1, 35, 94
5, 1349, Note_on_c, 1, 35, 0
5, 1402, Note_on_c, 1, 35, 73
5, 1420, Note_on_c, 1, 35, 0
5, 1448, Note_on_c, 1, 34, 75
5, 1454, Note_on_c, 1, 33, 33
5, 1460, Note_on_c, 1, 33, 0
5, 1564, Note_on_c, 1, 34, 0
5, 1571, Note_on_c, 1, 33, 88
5, 1692, Note_on_c, 1, 43, 108
5, 1693, Note_on_c, 1, 33, 0
5, 1867, Note_on_c, 1, 36, 90
5, 1870, Note_on_c, 1, 43, 0
5, 1897, Note_on_c, 1, 36, 0
5, 1990, Note_on_c, 1, 45, 118
5, 2116, Note_on_c, 1, 45, 0
5, 2118, Note_on_c, 1, 37, 56
5, 2152, Note_on_c, 1, 37, 0
5, 2157, Note_on_c, 1, 38, 74
5, 2330, Note_on_c, 1, 38, 0
5, 2365, Note_on_c, 1, 33, 74
5, 2378, Note_on_c, 1, 33, 0
5, 2404, Note_on_c, 1, 31, 92
5, 2472, Note_on_c, 1, 31, 0
5, 2481, Note_on_c, 1, 31, 87
5, 2518, Note_on_c, 1, 31, 0
5, 2523, Note_on_c, 1, 33, 90
5, 2525, Note_on_c, 1, 31, 36
5, 2532, Note_on_c, 1, 31, 0
5, 2640, Note_on_c, 1, 33, 0
5, 2643, Note_on_c, 1, 34, 83
5, 2759, Note_on_c, 1, 34, 0
5, 2762, Note_on_c, 1, 36, 84
5, 2828, Note_on_c, 1, 36, 0
5, 2959, Note_on_c, 1, 41, 101
5, 3072, Note_on_c, 1, 41, 0
5, 3080, Note_on_c, 1, 36, 66
5, 3110, Note_on_c, 1, 36, 0
5, 3120, Note_on_c, 1, 34, 75
5, 3283, Note_on_c, 1, 46, 60
5, 3304, Note_on_c, 1, 46, 0
5, 3314, Note_on_c, 1, 44, 86
5, 3315, Note_on_c, 1, 34, 0
5, 3348, Note_on_c, 1, 44, 0
5, 3357, Note_on_c, 1, 43, 94
5, 3550, Note_on_c, 1, 38, 60
5, 3565, Note_on_c, 1, 38, 0
5, 3595, Note_on_c, 1, 35, 73
5, 3601, Note_on_c, 1, 43, 0
5, 3611, Note_on_c, 1, 35, 0
5, 3676, Note_on_c, 1, 36, 91
5, 3786, Note_on_c, 1, 36, 0
5, 3905, Note_on_c, 1, 45, 123
5, 4031, Note_on_c, 1, 37, 74
5, 4033, Note_on_c, 1, 45, 0
5, 4072, Note_on_c, 1, 37, 0
5, 4074, Note_on_c, 1, 38, 89
5, 4234, Note_on_c, 1, 33, 61
5, 4241, Note_on_c, 1, 38, 0
5, 4249, Note_on_c, 1, 33, 0
5, 4269, Note_on_c, 1, 32, 81
5, 4303, Note_on_c, 1, 32, 0
5, 4315, Note_on_c, 1, 33, 89
5, 4475, Note_on_c, 1, 33, 0
5, 4477, Note_on_c, 1, 40, 66
5, 4497, Note_on_c, 1, 40, 0
5, 4512, Note_on_c, 1, 39, 69
5, 4545, Note_on_c, 1, 39, 0
5, 4555, Note_on_c, 1, 38, 87
5, 4752, Note_on_c, 1, 38, 0
5, 4879, Note_on_c, 1, 31, 99
5, 5225, Note_on_c, 1, 31, 0
5, 5230, Note_on_c, 1, 33, 89
5, 5356, Note_on_c, 1, 33, 0
5, 5360, Note_on_c, 1, 34, 90
5, 5478, Note_on_c, 1, 34, 0
5, 5485, Note_on_c, 1, 35, 99
5, 5609, Note_on_c, 1, 36, 101
5, 5617, Note_on_c, 1, 32, 26
5, 5618, Note_on_c, 1, 35, 0
5, 5622, Note_on_c, 1, 32, 0
5, 5707, Note_on_c, 1, 36, 0
5, 5723, Note_on_c, 1, 34, 83
5, 5730, Note_on_c, 1, 33, 33
5, 5748, Note_on_c, 1, 33, 0
5, 5750, Note_on_c, 1, 34, 0
5, 5767, Note_on_c, 1, 33, 88
5, 5792, Note_on_c, 1, 33, 0
5, 5844, Note_on_c, 1, 33, 105
5, 6033, Note_on_c, 1, 33, 0
5, 6083, Note_on_c, 1, 38, 96
5, 6236, Note_on_c, 1, 38, 0
5, 6316, Note_on_c, 1, 43, 113
5, 6465, Note_on_c, 1, 43, 0
5, 6544, Note_on_c, 1, 36, 108
5, 6659, Note_on_c, 1, 36, 0
5, 6790, Note_on_c, 1, 41, 123
5, 6955, Note_on_c, 1, 41, 0
5, 6956, Note_on_c, 1, 35, 91
5, 7202, Note_on_c, 1, 35, 0
5, 7207, Note_on_c, 1, 34, 83
5, 7285, Note_on_c, 1, 46, 92
5, 7317, Note_on_c, 1, 46, 0
5, 7320, Note_on_c, 1, 34, 0
5, 7326, Note_on_c, 1, 45, 96
5, 7407, Note_on_c, 1, 34, 53
5, 7415, Note_on_c, 1, 34, 0
5, 7436, Note_on_c, 1, 45, 0
5, 7446, Note_on_c, 1, 43, 72
5, 7562, Note_on_c, 1, 43, 0
5, 7566, Note_on_c, 1, 36, 91
5, 7655, Note_on_c, 1, 36, 0
5, 7758, Note_on_c, 1, 45, 123
5, 7914, Note_on_c, 1, 45, 0
5, 7919, Note_on_c, 1, 38, 83
5, 8086, Note_on_c, 1, 38, 0
5, 8092, Note_on_c, 1, 33, 75
5, 8108, Note_on_c, 1, 33, 0
5, 8125, Note_on_c, 1, 32, 83
5, 8147, Note_on_c, 1, 32, 0
5, 8164, Note_on_c, 1, 31, 87
5, 8272, Note_on_c, 1, 31, 0
5, 8278, Note_on_c, 1, 33, 80
5, 8305, Note_on_c, 1, 33, 0
5, 8356, Note_on_c, 1, 33, 73
5, 8388, Note_on_c, 1, 33, 0
5, 8398, Note_on_c, 1, 34, 71
5, 8445, Note_on_c, 1, 34, 0
5, 8476, Note_on_c, 1, 34, 71
5, 8500, Note_on_c, 1, 34, 0
5, 8518, Note_on_c, 1, 36, 87
5, 8607, Note_on_c, 1, 36, 0
5, 8722, Note_on_c, 1, 41, 113
5, 8840, Note_on_c, 1, 36, 65
5, 8849, Note_on_c, 1, 41, 0
5, 8858, Note_on_c, 1, 36, 0
5, 8882, Note_on_c, 1, 34, 76
5, 9040, Note_on_c, 1, 44, 75
5, 9055, Note_on_c, 1, 34, 0
5, 9064, Note_on_c, 1, 44, 0
5, 9077, Note_on_c, 1, 42, 58
5, 9102, Note_on_c, 1, 42, 0
5, 9118, Note_on_c, 1, 43, 91
5, 9303, Note_on_c, 1, 38, 67
5, 9323, Note_on_c, 1, 38, 0
5, 9346, Note_on_c, 1, 36, 70
5, 9349, Note_on_c, 1, 43, 0
5, 9478, Note_on_c, 1, 36, 0
5, 9667, Note_on_c, 1, 45, 115
5, 9699, Note_on_c, 1, 45, 0
5, 9712, Note_on_c, 1, 33, 79
5, 9836, Note_on_c, 1, 33, 0
5, 9838, Note_on_c, 1, 38, 88
5, 10013, Note_on_c, 1, 33, 68
5, 10018, Note_on_c, 1, 33, 0
5, 10021, Note_on_c, 1, 38, 0
5, 10042, Note_on_c, 1, 32, 77
5, 10059, Note_on_c, 1, 32, 0
5, 10079, Note_on_c, 1, 33, 81
5, 10244, Note_on_c, 1, 40, 69
5, 10252, Note_on_c, 1, 33, 0
5, 10268, Note_on_c, 1, 40, 0
5, 10280, Note_on_c, 1, 39, 83
5, 10304, Note_on_c, 1, 39, 0
5, 10322, Note_on_c, 1, 38, 99
5, 10478, Note_on_c, 1, 45, 57
5, 10483, Note_on_c, 1, 38, 0
5, 10484, Note_on_c, 1, 45, 0
5, 10635, Note_on_c, 1, 43, 118
5, 11012, Note_on_c, 1, 33, 99
5, 11020, Note_on_c, 1, 43, 0
5, 11129, Note_on_c, 1, 33, 0
5, 11135, Note_on_c, 1, 34, 91
5, 11140, Note_on_c, 1, 33, 42
5, 11146, Note_on_c, 1, 33, 0
5, 11240, Note_on_c, 1, 34, 0
5, 11247, Note_on_c, 1, 35, 95
5, 11348, Note_on_c, 1, 35, 0
5, 11358, Note_on_c, 1, 35, 81
5, 11397, Note_on_c, 1, 35, 0
5, 11408, Note_on_c, 1, 36, 90
5, 11467, Note_on_c, 1, 36, 0
5, 11597, Note_on_c, 1, 45, 113
5, 11782, Note_on_c, 1, 45, 0
5, 11844, Note_on_c, 1, 38, 96
5, 11997, Note_on_c, 1, 38, 0
5, 12079, Note_on_c, 1, 43, 115
5, 12269, Note_on_c, 1, 43, 0
5, 12315, Note_on_c, 1, 36, 96
5, 12344, Note_on_c, 1, 36, 0
5, 12358, Note_on_c, 1, 34, 83
5, 12361, Note_on_c, 1, 35, 85
5, 12364, Note_on_c, 1, 36, 54
5, 12370, Note_on_c, 1, 36, 0
5, 12377, Note_on_c, 1, 35, 0
5, 12378, Note_on_c, 1, 34, 0
5, 12432, Note_on_c, 1, 28, 77
5, 12458, Note_on_c, 1, 28, 0
5, 12472, Note_on_c, 1, 29, 88
5, 12573, Note_on_c, 1, 29, 0
5, 12644, Note_on_c, 1, 36, 54
5, 12660, Note_on_c, 1, 36, 0
5, 12678, Note_on_c, 1, 34, 56
5, 12715, Note_on_c, 1, 34, 0
5, 12720, Note_on_c, 1, 35, 61
5, 12800, Note_on_c, 1, 47, 88
5, 12894, Note_on_c, 1, 35, 0
5, 12913, Note_on_c, 1, 47, 0
5, 12914, Note_on_c, 1, 45, 57
5, 12949, Note_on_c, 1, 45, 0
5, 12957, Note_on_c, 1, 46, 60
5, 13047, Note_on_c, 1, 39, 33
5, 13052, Note_on_c, 1, 39, 0
5, 13080, Note_on_c, 1, 46, 0
5, 13083, Note_on_c, 1, 45, 65
5, 13170, Note_on_c, 1, 39, 30
5, 13176, Note_on_c, 1, 39, 0
5, 13197, Note_on_c, 1, 45, 0
5, 13203, Note_on_c, 1, 43, 53
5, 13282, Note_on_c, 1, 40, 53
5, 13292, Note_on_c, 1, 40, 0
5, 13323, Note_on_c, 1, 36, 57
5, 13329, Note_on_c, 1, 36, 0
5, 13399, Note_on_c, 1, 34, 79
5, 13403, Note_on_c, 1, 43, 0
5, 13432, Note_on_c, 1, 34, 0
5, 13441, Note_on_c, 1, 33, 75
5, 13600, Note_on_c, 1, 51, 84
5, 13634, Note_on_c, 1, 49, 38
5, 13653, Note_on_c, 1, 51, 0
5, 13656, Note_on_c, 1, 33, 0
5, 13661, Note_on_c, 1, 49, 0
5, 13673, Note_on_c, 1, 50, 62
5, 13713, Note_on_c, 1, 37, 53
5, 13724, Note_on_c, 1, 50, 0
5, 13748, Note_on_c, 1, 37, 0
5, 13752, Note_on_c, 1, 38, 75
5, 13845, Note_on_c, 1, 33, 53
5, 13851, Note_on_c, 1, 38, 0
5, 13860, Note_on_c, 1, 33, 0
5, 13877, Note_on_c, 1, 32, 80
5, 13909, Note_on_c, 1, 32, 0
5, 13920, Note_on_c, 1, 31, 94
5, 14046, Note_on_c, 1, 31, 0
5, 14047, Note_on_c, 1, 33, 87
5, 14160, Note_on_c, 1, 33, 0
5, 14167, Note_on_c, 1, 34, 77
5, 14201, Note_on_c, 1, 34, 0
5, 14243, Note_on_c, 1, 35, 76
5, 14281, Note_on_c, 1, 35, 0
5, 14285, Note_on_c, 1, 36, 62
5, 14355, Note_on_c, 1, 40, 105
5, 14387, Note_on_c, 1, 40, 0
5, 14390, Note_on_c, 1, 36, 0
5, 14398, Note_on_c, 1, 41, 91
5, 14559, Note_on_c, 1, 36, 48
5, 14567, Note_on_c, 1, 36, 0
5, 14592, Note_on_c, 1, 33, 44
5, 14620, Note_on_c, 1, 33, 0
5, 14632, Note_on_c, 1, 34, 69
5, 14633, Note_on_c, 1, 41, 0
5, 14756, Note_on_c, 1, 46, 72
5, 14792, Note_on_c, 1, 34, 0
5, 14840, Note_on_c, 1, 43, 77
5, 14848, Note_on_c, 1, 46, 0
5, 15043, Note_on_c, 1, 38, 57
5, 15058, Note_on_c, 1, 38, 0
5, 15079, Note_on_c, 1, 35, 56
5, 15108, Note_on_c, 1, 35, 0
5, 15115, Note_on_c, 1, 43, 0
5, 15118, Note_on_c, 1, 36, 81
5, 15186, Note_on_c, 1, 36, 0
5, 15196, Note_on_c, 1, 36, 68
5, 15234, Note_on_c, 1, 36, 0
5, 15242, Note_on_c, 1, 34, 72
5, 15352, Note_on_c, 1, 34, 0
5, 15362, Note_on_c, 1, 33, 64
5, 15523, Note_on_c, 1, 40, 50
5, 15525, Note_on_c, 1, 33, 0
5, 15531, Note_on_c, 1, 40, 0
5, 15556, Note_on_c, 1, 39, 77
5, 15590, Note_on_c, 1, 39, 0
5, 15599, Note_on_c, 1, 38, 76
5, 15760, Note_on_c, 1, 49, 59
5, 15778, Note_on_c, 1, 49, 0
5, 15794, Note_on_c, 1, 46, 65
5, 15825, Note_on_c, 1, 46, 0
5, 15831, Note_on_c, 1, 38, 0
5, 15832, Note_on_c, 1, 45, 78
5, 15920, Note_on_c, 1, 40, 66
5, 15930, Note_on_c, 1, 40, 0
5, 15960, Note_on_c, 1, 36, 68
5, 15967, Note_on_c, 1, 45, 0
5, 16028, Note_on_c, 1, 36, 0
5, 16037, Note_on_c, 1, 37, 82
5, 16074, Note_on_c, 1, 37, 0
5, 16078, Note_on_c, 1, 38, 87
5, 16147, Note_on_c, 1, 38, 0
5, 16158, Note_on_c, 1, 38, 77
5, 16201, Note_on_c, 1, 44, 87
5, 16212, Note_on_c, 1, 38, 0
5, 16279, Note_on_c, 1, 38, 63
5, 16292, Note_on_c, 1, 38, 0
5, 16299, Note_on_c, 1, 44, 0
5, 16319, Note_on_c, 1, 43, 79
5, 16482, Note_on_c, 1, 38, 58
5, 16501, Note_on_c, 1, 38, 0
5, 16516, Note_on_c, 1, 31, 76
5, 16551, Note_on_c, 1, 31, 0
5, 16559, Note_on_c, 1, 33, 92
5, 16562, Note_on_c, 1, 43, 0
5, 16717, Note_on_c, 1, 33, 0
5, 16723, Note_on_c, 1, 32, 60
5, 16742, Note_on_c, 1, 32, 0
5, 16757, Note_on_c, 1, 33, 74
5, 16793, Note_on_c, 1, 33, 0
5, 16798, Note_on_c, 1, 34, 83
5, 16873, Note_on_c, 1, 34, 0
5, 16883, Note_on_c, 1, 34, 69
5, 16918, Note_on_c, 1, 34, 0
5, 16924, Note_on_c, 1, 35, 77
5, 16980, Note_on_c, 1, 35, 0
5, 17004, Note_on_c, 1, 35, 75
5, 17034, Note_on_c, 1, 35, 0
5, 17042, Note_on_c, 1, 36, 87
5, 17200, Note_on_c, 1, 35, 66
5, 17203, Note_on_c, 1, 36, 0
5, 17216, Note_on_c, 1, 35, 0
5, 17233, Note_on_c, 1, 34, 71
5, 17264, Note_on_c, 1, 34, 0
5, 17276, Note_on_c, 1, 33, 67
5, 17363, Note_on_c, 1, 45, 110
5, 17409, Note_on_c, 1, 33, 0
5, 17457, Note_on_c, 1, 36, 39
5, 17474, Note_on_c, 1, 36, 0
5, 17486, Note_on_c, 1, 37, 63
5, 17510, Note_on_c, 1, 45, 0
5, 17520, Note_on_c, 1, 37, 0
5, 17528, Note_on_c, 1, 38, 72
5, 17740, Note_on_c, 1, 37, 40
5, 17752, Note_on_c, 1, 38, 0
5, 17761, Note_on_c, 1, 37, 0
5, 17767, Note_on_c, 1, 43, 94
5, 17922, Note_on_c, 1, 34, 52
5, 17940, Note_on_c, 1, 34, 0
5, 17953, Note_on_c, 1, 43, 0
5, 17957, Note_on_c, 1, 35, 71
5, 17982, Note_on_c, 1, 35, 0
5, 18000, Note_on_c, 1, 36, 70
5, 18078, Note_on_c, 1, 39, 85
5, 18111, Note_on_c, 1, 39, 0
5, 18121, Note_on_c, 1, 40, 72
5, 18135, Note_on_c, 1, 36, 0
5, 18206, Note_on_c, 1, 36, 63
5, 18216, Note_on_c, 1, 36, 0
5, 18239, Note_on_c, 1, 40, 0
5, 18246, Note_on_c, 1, 41, 71
5, 18330, Note_on_c, 1, 36, 45
5, 18345, Note_on_c, 1, 36, 0
5, 18373, Note_on_c, 1, 34, 62
5, 18469, Note_on_c, 1, 41, 0
5, 18493, Note_on_c, 1, 34, 0
5, 18494, Note_on_c, 1, 35, 75
5, 18606, Note_on_c, 1, 47, 99
5, 18613, Note_on_c, 1, 35, 0
5, 18693, Note_on_c, 1, 35, 55
5, 18711, Note_on_c, 1, 35, 0
5, 18716, Note_on_c, 1, 47, 0
5, 18728, Note_on_c, 1, 46, 84
5, 18848, Note_on_c, 1, 45, 89
5, 18858, Note_on_c, 1, 46, 0
5, 18961, Note_on_c, 1, 45, 0
5, 18967, Note_on_c, 1, 43, 67
5, 19048, Note_on_c, 1, 35, 73
5, 19061, Note_on_c, 1, 43, 0
5, 19076, Note_on_c, 1, 35, 0
5, 19088, Note_on_c, 1, 36, 89
5, 19164, Note_on_c, 1, 36, 0
5, 19164, Note_on_c, 1, 33, 83
5, 19293, Note_on_c, 1, 40, 28
5, 19306, Note_on_c, 1, 40, 0
5, 19328, Note_on_c, 1, 45, 77
5, 19332, Note_on_c, 1, 33, 0
5, 19411, Note_on_c, 1, 38, 74
5, 19427, Note_on_c, 1, 38, 0
5, 19513, Note_on_c, 1, 45, 0
5, 19528, Note_on_c, 1, 38, 71
5, 19610, Note_on_c, 1, 54, 74
5, 19612, Note_on_c, 1, 38, 0
5, 19633, Note_on_c, 1, 54, 0
5, 19644, Note_on_c, 1, 42, 57
5, 19666, Note_on_c, 1, 42, 0
5, 19684, Note_on_c, 1, 55, 83
5, 19761, Note_on_c, 1, 42, 48
5, 19769, Note_on_c, 1, 55, 0
5, 19797, Note_on_c, 1, 42, 0
5, 19807, Note_on_c, 1, 43, 64
5, 19875, Note_on_c, 1, 43, 0
5, 19882, Note_on_c, 1, 45, 105
5, 19923, Note_on_c, 1, 45, 0
5, 19929, Note_on_c, 1, 46, 68
5, 19930, Note_on_c, 1, 45, 35
5, 19942, Note_on_c, 1, 45, 0
5, 20005, Note_on_c, 1, 43, 60
5, 20013, Note_on_c, 1, 43, 0
5, 20038, Note_on_c, 1, 46, 0
5, 20046, Note_on_c, 1, 48, 72
5, 20165, Note_on_c, 1, 48, 0
5, 20169, Note_on_c, 1, 41, 78
5, 20322, Note_on_c, 1, 36, 64
5, 20329, Note_on_c, 1, 41, 0
5, 20338, Note_on_c, 1, 36, 0
5, 20356, Note_on_c, 1, 35, 68
5, 20387, Note_on_c, 1, 35, 0
5, 20398, Note_on_c, 1, 34, 67
5, 20479, Note_on_c, 1, 38, 20
5, 20496, Note_on_c, 1, 38, 0
5, 20517, Note_on_c, 1, 46, 83
5, 20557, Note_on_c, 1, 34, 0
5, 20602, Note_on_c, 1, 34, 33
5, 20610, Note_on_c, 1, 34, 0
5, 20640, Note_on_c, 1, 46, 0
5, 20640, Note_on_c, 1, 43, 66
5, 20765, Note_on_c, 1, 37, 83
5, 20775, Note_on_c, 1, 43, 0
5, 20846, Note_on_c, 1, 34, 36
5, 20852, Note_on_c, 1, 37, 0
5, 20879, Note_on_c, 1, 34, 0
5, 20883, Note_on_c, 1, 36, 89
5, 21001, Note_on_c, 1, 36, 0
5, 21003, Note_on_c, 1, 34, 85
5, 21116, Note_on_c, 1, 34, 0
5, 21124, Note_on_c, 1, 33, 73
5, 21280, Note_on_c, 1, 33, 0
5, 21283, Note_on_c, 1, 39, 67
5, 21309, Note_on_c, 1, 39, 0
5, 21317, Note_on_c, 1, 37, 65
5, 21348, Note_on_c, 1, 37, 0
5, 21358, Note_on_c, 1, 38, 75
5, 21517, Note_on_c, 1, 46, 84
5, 21532, Note_on_c, 1, 38, 0
5, 21543, Note_on_c, 1, 45, 57
5, 21554, Note_on_c, 1, 38, 63
5, 21556, Note_on_c, 1, 45, 0
5, 21575, Note_on_c, 1, 38, 0
5, 21586, Note_on_c, 1, 46, 0
5, 21592, Note_on_c, 1, 45, 87
5, 21694, Note_on_c, 1, 37, 20
5, 21705, Note_on_c, 1, 37, 0
5, 21712, Note_on_c, 1, 45, 0
5, 21720, Note_on_c, 1, 51, 77
5, 21802, Note_on_c, 1, 38, 55
5, 21809, Note_on_c, 1, 38, 0
5, 21825, Note_on_c, 1, 51, 0
5, 21841, Note_on_c, 1, 50, 68
5, 21923, Note_on_c, 1, 38, 51
5, 21929, Note_on_c, 1, 38, 0
5, 21962, Note_on_c, 1, 42, 71
5, 22040, Note_on_c, 1, 50, 0
5, 22043, Note_on_c, 1, 38, 33
5, 22049, Note_on_c, 1, 38, 0
5, 22068, Note_on_c, 1, 42, 0
5, 22086, Note_on_c, 1, 43, 71
5, 22154, Note_on_c, 1, 43, 0
5, 22165, Note_on_c, 1, 43, 71
5, 22244, Note_on_c, 1, 38, 58
5, 22261, Note_on_c, 1, 38, 0
5, 22281, Note_on_c, 1, 31, 68
5, 22315, Note_on_c, 1, 31, 0
5, 22320, Note_on_c, 1, 43, 0
5, 22324, Note_on_c, 1, 33, 95
5, 22385, Note_on_c, 1, 33, 0
5, 22404, Note_on_c, 1, 33, 92
5, 22486, Note_on_c, 1, 32, 56
5, 22490, Note_on_c, 1, 33, 0
5, 22501, Note_on_c, 1, 32, 0
5, 22520, Note_on_c, 1, 33, 75
5, 22549, Note_on_c, 1, 33, 0
5, 22559, Note_on_c, 1, 34, 74
5, 22629, Note_on_c, 1, 34, 0
5, 22640, Note_on_c, 1, 34, 69
5, 22676, Note_on_c, 1, 34, 0
5, 22679, Note_on_c, 1, 35, 77
5, 22741, Note_on_c, 1, 35, 0
5, 22760, Note_on_c, 1, 35, 72
5, 22792, Note_on_c, 1, 35, 0
5, 22798, Note_on_c, 1, 36, 81
5, 22863, Note_on_c, 1, 36, 0
5, 22879, Note_on_c, 1, 36, 94
5, 22883, Note_on_c, 1, 29, 61
5, 22888, Note_on_c, 1, 29, 0
5, 22967, Note_on_c, 1, 35, 68
5, 22970, Note_on_c, 1, 36, 0
5, 22984, Note_on_c, 1, 35, 0
5, 22999, Note_on_c, 1, 34, 77
5, 23028, Note_on_c, 1, 34, 0
5, 23040, Note_on_c, 1, 33, 74
5, 23202, Note_on_c, 1, 33, 0
5, 23203, Note_on_c, 1, 40, 52
5, 23221, Note_on_c, 1, 40, 0
5, 23237, Note_on_c, 1, 39, 71
5, 23271, Note_on_c, 1, 39, 0
5, 23280, Note_on_c, 1, 38, 70
5, 23318, Note_on_c, 1, 45, 82
5, 23331, Note_on_c, 1, 38, 0
5, 23402, Note_on_c, 1, 45, 0
5, 23404, Note_on_c, 1, 41, 70
5, 23482, Note_on_c, 1, 38, 43
5, 23483, Note_on_c, 1, 42, 67
5, 23486, Note_on_c, 1, 41, 0
5, 23490, Note_on_c, 1, 38, 0
5, 23517, Note_on_c, 1, 42, 0
5, 23526, Note_on_c, 1, 43, 71
5, 23545, Note_on_c, 1, 43, 0
5, 23604, Note_on_c, 1, 38, 70
5, 23637, Note_on_c, 1, 38, 0
5, 23643, Note_on_c, 1, 34, 73
5, 23716, Note_on_c, 1, 34, 0
5, 23722, Note_on_c, 1, 35, 69
5, 23760, Note_on_c, 1, 35, 0
5, 23764, Note_on_c, 1, 36, 68
5, 23818, Note_on_c, 1, 36, 0
5, 23837, Note_on_c, 1, 36, 74
5, 23870, Note_on_c, 1, 36, 0
5, 23880, Note_on_c, 1, 30, 83
5, 23996, Note_on_c, 1, 30, 0
5, 24004, Note_on_c, 1, 29, 74
5, 24097, Note_on_c, 1, 36, 27
5, 24111, Note_on_c, 1, 36, 0
5, 24123, Note_on_c, 1, 29, 0
5, 24125, Note_on_c, 1, 41, 90
5, 24239, Note_on_c, 1, 41, 0
5, 24247, Note_on_c, 1, 35, 87
5, 24321, Note_on_c, 1, 41, 32
5, 24340, Note_on_c, 1, 41, 0
5, 24361, Note_on_c, 1, 47, 96
5, 24375, Note_on_c, 1, 35, 0
5, 24444, Note_on_c, 1, 35, 48
5, 24458, Note_on_c, 1, 35, 0
5, 24476, Note_on_c, 1, 47, 0
5, 24481, Note_on_c, 1, 46, 83
5, 24599, Note_on_c, 1, 46, 0
5, 24603, Note_on_c, 1, 45, 85
5, 24719, Note_on_c, 1, 45, 0
5, 24724, Note_on_c, 1, 43, 74
5, 24737, Note_on_c, 1, 43, 0
5, 24768, Note_on_c, 1, 40, 30
5, 24768, Note_on_c, 1, 38, 28
5, 24775, Note_on_c, 1, 40, 0
5, 24778, Note_on_c, 1, 38, 0
5, 24799, Note_on_c, 1, 34, 60
5, 24838, Note_on_c, 1, 34, 0
5, 24844, Note_on_c, 1, 36, 66
5, 24909, Note_on_c, 1, 36, 0
5, 24920, Note_on_c, 1, 34, 74
5, 24954, Note_on_c, 1, 34, 0
5, 24963, Note_on_c, 1, 33, 69
5, 25038, Note_on_c, 1, 33, 0
5, 25044, Note_on_c, 1, 33, 37
5, 25073, Note_on_c, 1, 33, 0
5, 25082, Note_on_c, 1, 45, 96
5, 25163, Note_on_c, 1, 37, 39
5, 25195, Note_on_c, 1, 37, 0
5, 25205, Note_on_c, 1, 38, 65
5, 25209, Note_on_c, 1, 45, 0
5, 25288, Note_on_c, 1, 37, 31
5, 25316, Note_on_c, 1, 38, 0
5, 25325, Note_on_c, 1, 44, 93
5, 25331, Note_on_c, 1, 37, 0
5, 25406, Note_on_c, 1, 37, 45
5, 25423, Note_on_c, 1, 37, 0
5, 25434, Note_on_c, 1, 44, 0
5, 25442, Note_on_c, 1, 43, 60
5, 25525, Note_on_c, 1, 38, 60
5, 25543, Note_on_c, 1, 38, 0
5, 25565, Note_on_c, 1, 43, 0
5, 25567, Note_on_c, 1, 31, 85
5, 25640, Note_on_c, 1, 31, 0
5, 25645, Note_on_c, 1, 33, 91
5, 25654, Note_on_c, 1, 31, 26
5, 25659, Note_on_c, 1, 31, 0
5, 25710, Note_on_c, 1, 33, 0
5, 25723, Note_on_c, 1, 34, 83
5, 25799, Note_on_c, 1, 34, 0
5, 25807, Note_on_c, 1, 36, 88
5, 25868, Note_on_c, 1, 36, 0
5, 25886, Note_on_c, 1, 36, 71
5, 25907, Note_on_c, 1, 36, 0
5, 25927, Note_on_c, 1, 41, 85
5, 26045, Note_on_c, 1, 35, 80
5, 26050, Note_on_c, 1, 41, 0
5, 26158, Note_on_c, 1, 35, 0
5, 26165, Note_on_c, 1, 34, 74
5, 26240, Note_on_c, 1, 34, 0
5, 26249, Note_on_c, 1, 34, 69
5, 26284, Note_on_c, 1, 46, 90
5, 26308, Note_on_c, 1, 34, 0
5, 26367, Note_on_c, 1, 34, 56
5, 26382, Note_on_c, 1, 34, 0
5, 26397, Note_on_c, 1, 46, 0
5, 26399, Note_on_c, 1, 43, 79
5, 26523, Note_on_c, 1, 43, 0
5, 26524, Note_on_c, 1, 31, 79
5, 26640, Note_on_c, 1, 31, 0
5, 26643, Note_on_c, 1, 36, 89
5, 26704, Note_on_c, 1, 36, 0
5, 26723, Note_on_c, 1, 36, 66
5, 26753, Note_on_c, 1, 36, 0
5, 26761, Note_on_c, 1, 34, 71
5, 26871, Note_on_c, 1, 34, 0
5, 26882, Note_on_c, 1, 33, 66
5, 26994, Note_on_c, 1, 33, 0
5, 27004, Note_on_c, 1, 39, 76
5, 27084, Note_on_c, 1, 37, 53
5, 27090, Note_on_c, 1, 39, 0
5, 27119, Note_on_c, 1, 37, 0
5, 27125, Note_on_c, 1, 38, 80
5, 27203, Note_on_c, 1, 37, 36
5, 27241, Note_on_c, 1, 44, 87
5, 27250, Note_on_c, 1, 37, 0
5, 27263, Note_on_c, 1, 38, 0
5, 27327, Note_on_c, 1, 38, 57
5, 27346, Note_on_c, 1, 38, 0
5, 27351, Note_on_c, 1, 44, 0
5, 27364, Note_on_c, 1, 43, 68
5, 27364, Note_on_c, 1, 45, 71
5, 27394, Note_on_c, 1, 43, 0
5, 27484, Note_on_c, 1, 37, 77
5, 27496, Note_on_c, 1, 45, 0
5, 27601, Note_on_c, 1, 37, 0
5, 27607, Note_on_c, 1, 38, 74
5, 27723, Note_on_c, 1, 38, 0
5, 27727, Note_on_c, 1, 30, 83
5, 27841, Note_on_c, 1, 30, 0
5, 27846, Note_on_c, 1, 31, 87
5, 27933, Note_on_c, 1, 30, 42
5, 27949, Note_on_c, 1, 30, 0
5, 27965, Note_on_c, 1, 43, 103
5, 27983, Note_on_c, 1, 31, 0
5, 28050, Note_on_c, 1, 31, 50
5, 28074, Note_on_c, 1, 31, 0
5, 28075, Note_on_c, 1, 43, 0
5, 28086, Note_on_c, 1, 45, 94
5, 28170, Note_on_c, 1, 31, 62
5, 28183, Note_on_c, 1, 31, 0
5, 28204, Note_on_c, 1, 33, 91
5, 28311, Note_on_c, 1, 33, 0
5, 28319, Note_on_c, 1, 34, 76
5, 28327, Note_on_c, 1, 45, 0
5, 28392, Note_on_c, 1, 34, 0
5, 28401, Note_on_c, 1, 34, 75
5, 28435, Note_on_c, 1, 34, 0
5, 28439, Note_on_c, 1, 35, 89
5, 28526, Note_on_c, 1, 34, 46
5, 28534, Note_on_c, 1, 35, 0
5, 28555, Note_on_c, 1, 34, 0
5, 28559, Note_on_c, 1, 36, 85
5, 28676, Note_on_c, 1, 36, 0
5, 28680, Note_on_c, 1, 34, 82
5, 28794, Note_on_c, 1, 34, 0
5, 28803, Note_on_c, 1, 33, 71
5, 28888, Note_on_c, 1, 48, 105
5, 28923, Note_on_c, 1, 48, 0
5, 28924, Note_on_c, 1, 33, 0
5, 28932, Note_on_c, 1, 45, 71
5, 29008, Note_on_c, 1, 37, 62
5, 29028, Note_on_c, 1, 45, 0
5, 29038, Note_on_c, 1, 37, 0
5, 29046, Note_on_c, 1, 38, 77
5, 29123, Note_on_c, 1, 50, 105
5, 29207, Note_on_c, 1, 38, 0
5, 29208, Note_on_c, 1, 45, 58
5, 29216, Note_on_c, 1, 50, 0
5, 29227, Note_on_c, 1, 45, 0
5, 29243, Note_on_c, 1, 41, 62
5, 29276, Note_on_c, 1, 41, 0
5, 29284, Note_on_c, 1, 43, 75
5, 29365, Note_on_c, 1, 35, 89
5, 29371, Note_on_c, 1, 43, 0
5, 29483, Note_on_c, 1, 36, 99
5, 29492, Note_on_c, 1, 35, 0
5, 29592, Note_on_c, 1, 36, 0
5, 29603, Note_on_c, 1, 36, 81
5, 29638, Note_on_c, 1, 36, 0
5, 29643, Note_on_c, 1, 30, 85
5, 29708, Note_on_c, 1, 30, 0
5, 29720, Note_on_c, 1, 30, 72
5, 29750, Note_on_c, 1, 30, 0
5, 29759, Note_on_c, 1, 29, 81
5, 29826, Note_on_c, 1, 29, 0
5, 29841, Note_on_c, 1, 29, 62
5, 29873, Note_on_c, 1, 29, 0
5, 29880, Note_on_c, 1, 36, 95
5, 29949, Note_on_c, 1, 36, 0
5, 29962, Note_on_c, 1, 36, 72
5, 29996, Note_on_c, 1, 36, 0
5, 30003, Note_on_c, 1, 35, 90
5, 30086, Note_on_c, 1, 34, 36
5, 30118, Note_on_c, 1, 34, 0
5, 30120, Note_on_c, 1, 47, 108
5, 30148, Note_on_c, 1, 35, 0
5, 30207, Note_on_c, 1, 35, 50
5, 30235, Note_on_c, 1, 35, 0
5, 30238, Note_on_c, 1, 47, 0
5, 30244, Note_on_c, 1, 46, 84
5, 30330, Note_on_c, 1, 35, 45
5, 30337, Note_on_c, 1, 35, 0
5, 30355, Note_on_c, 1, 46, 0
5, 30360, Note_on_c, 1, 45, 84
5, 30366, Note_on_c, 1, 46, 32
5, 30371, Note_on_c, 1, 46, 0
5, 30472, Note_on_c, 1, 45, 0
5, 30480, Note_on_c, 1, 43, 64
5, 30484, Note_on_c, 1, 45, 45
5, 30491, Note_on_c, 1, 45, 0
5, 30601, Note_on_c, 1, 43, 0
5, 30601, Note_on_c, 1, 34, 83
5, 30712, Note_on_c, 1, 34, 0
5, 30718, Note_on_c, 1, 33, 84
5, 30834, Note_on_c, 1, 48, 99
5, 30851, Note_on_c, 1, 33, 0
5, 30917, Note_on_c, 1, 33, 60
5, 30936, Note_on_c, 1, 33, 0
5, 30950, Note_on_c, 1, 48, 0
5, 30955, Note_on_c, 1, 50, 80
5, 31078, Note_on_c, 1, 38, 87
5, 31096, Note_on_c, 1, 50, 0
5, 31157, Note_on_c, 1, 37, 26
5, 31181, Note_on_c, 1, 37, 0
5, 31199, Note_on_c, 1, 55, 110
5, 31212, Note_on_c, 1, 38, 0
5, 31282, Note_on_c, 1, 38, 48
5, 31309, Note_on_c, 1, 38, 0
5, 31395, Note_on_c, 1, 55, 0
5, 31395, Note_on_c, 1, 45, 90
5, 31437, Note_on_c, 1, 46, 83
5, 31450, Note_on_c, 1, 45, 0
5, 31523, Note_on_c, 1, 45, 59
5, 31528, Note_on_c, 1, 45, 0
5, 31549, Note_on_c, 1, 46, 0
5, 31558, Note_on_c, 1, 48, 74
5, 31642, Note_on_c, 1, 40, 62
5, 31654, Note_on_c, 1, 48, 0
5, 31675, Note_on_c, 1, 40, 0
5, 31682, Note_on_c, 1, 41, 76
5, 31759, Note_on_c, 1, 55, 105
5, 31800, Note_on_c, 1, 55, 0
5, 31804, Note_on_c, 1, 53, 66
5, 31817, Note_on_c, 1, 41, 0
5, 31882, Note_on_c, 1, 47, 78
5, 31887, Note_on_c, 1, 53, 0
5, 31920, Note_on_c, 1, 47, 0
5, 31926, Note_on_c, 1, 46, 71
5, 32051, Note_on_c, 1, 41, 85
5, 32118, Note_on_c, 1, 41, 0
5, 32129, Note_on_c, 1, 42, 57
5, 32163, Note_on_c, 1, 42, 0
5, 32169, Note_on_c, 1, 43, 74
5, 32248, Note_on_c, 1, 46, 0
5, 32286, Note_on_c, 1, 34, 75
5, 32290, Note_on_c, 1, 43, 0
5, 32356, Note_on_c, 1, 34, 0
5, 32364, Note_on_c, 1, 35, 71
5, 32405, Note_on_c, 1, 36, 73
5, 32408, Note_on_c, 1, 35, 0
5, 32480, Note_on_c, 1, 48, 118
5, 32522, Note_on_c, 1, 48, 0
5, 32523, Note_on_c, 1, 46, 77
5, 32525, Note_on_c, 1, 36, 0
5, 32588, Note_on_c, 1, 46, 0
5, 32599, Note_on_c, 1, 46, 86
5, 32605, Note_on_c, 1, 34, 36
5, 32618, Note_on_c, 1, 34, 0
5, 32635, Note_on_c, 1, 46, 0
5, 32642, Note_on_c, 1, 45, 74
5, 32712, Note_on_c, 1, 45, 0
5, 32722, Note_on_c, 1, 45, 74
5, 32758, Note_on_c, 1, 45, 0
5, 32765, Note_on_c, 1, 51, 83
5, 32847, Note_on_c, 1, 45, 47
5, 32854, Note_on_c, 1, 45, 0
5, 32881, Note_on_c, 1, 51, 0
5, 32883, Note_on_c, 1, 50, 75
5, 32953, Note_on_c, 1, 45, 34
5, 32969, Note_on_c, 1, 45, 0
5, 33082, Note_on_c, 1, 56, 84
5, 33109, Note_on_c, 1, 50, 0
5, 33118, Note_on_c, 1, 56, 0
5, 33129, Note_on_c, 1, 57, 79
5, 33207, Note_on_c, 1, 45, 88
5, 33228, Note_on_c, 1, 57, 0
5, 33249, Note_on_c, 1, 45, 0
5, 33254, Note_on_c, 1, 46, 74
5, 33321, Note_on_c, 1, 46, 0
5, 33328, Note_on_c, 1, 46, 68
5, 33440, Note_on_c, 1, 46, 0
5, 33446, Note_on_c, 1, 48, 88
5, 33477, Note_on_c, 1, 48, 0
5, 33493, Note_on_c, 1, 50, 90
5, 33556, Note_on_c, 1, 50, 0
5, 33566, Note_on_c, 1, 45, 67
5, 33600, Note_on_c, 1, 45, 0
5, 33610, Note_on_c, 1, 43, 73
5, 33682, Note_on_c, 1, 43, 0
5, 33691, Note_on_c, 1, 43, 78
5, 33733, Note_on_c, 1, 55, 105
5, 33777, Note_on_c, 1, 43, 0
5, 33805, Note_on_c, 1, 43, 51
5, 33840, Note_on_c, 1, 43, 0
5, 33850, Note_on_c, 1, 45, 88
5, 33856, Note_on_c, 1, 55, 0
5, 33930, Note_on_c, 1, 33, 84
5, 33939, Note_on_c, 1, 45, 0
5, 34041, Note_on_c, 1, 33, 0
5, 34051, Note_on_c, 1, 33, 66
5, 34077, Note_on_c, 1, 33, 0
5, 34089, Note_on_c, 1, 34, 71
5, 34200, Note_on_c, 1, 34, 0
5, 34208, Note_on_c, 1, 35, 87
5, 34295, Note_on_c, 1, 34, 35
5, 34317, Note_on_c, 1, 35, 0
5, 34329, Note_on_c, 1, 34, 0
5, 34330, Note_on_c, 1, 36, 90
5, 34420, Note_on_c, 1, 34, 37
5, 34439, Note_on_c, 1, 36, 0
5, 34447, Note_on_c, 1, 46, 79
5, 34450, Note_on_c, 1, 47, 78
5, 34453, Note_on_c, 1, 49, 32
5, 34456, Note_on_c, 1, 48, 34
5, 34461, Note_on_c, 1, 48, 0
5, 34462, Note_on_c, 1, 34, 0
5, 34488, Note_on_c, 1, 49, 0
5, 34529, Note_on_c, 1, 34, 26
5, 34548, Note_on_c, 1, 34, 0
5, 34556, Note_on_c, 1, 47, 0
5, 34559, Note_on_c, 1, 46, 0
5, 34564, Note_on_c, 1, 45, 78
5, 34681, Note_on_c, 1, 39, 83
5, 34685, Note_on_c, 1, 45, 0
5, 34770, Note_on_c, 1, 37, 31
5, 34791, Note_on_c, 1, 39, 0
5, 34796, Note_on_c, 1, 37, 0
5, 34800, Note_on_c, 1, 38, 78
5, 34890, Note_on_c, 1, 37, 31
5, 34908, Note_on_c, 1, 38, 0
5, 34918, Note_on_c, 1, 44, 91
5, 34926, Note_on_c, 1, 37, 0
5, 35001, Note_on_c, 1, 38, 60
5, 35010, Note_on_c, 1, 38, 0
5, 35032, Note_on_c, 1, 44, 0
5, 35037, Note_on_c, 1, 43, 80
5, 35121, Note_on_c, 1, 34, 75
5, 35133, Note_on_c, 1, 43, 0
5, 35151, Note_on_c, 1, 34, 0
5, 35159, Note_on_c, 1, 35, 81
5, 35224, Note_on_c, 1, 35, 0
5, 35242, Note_on_c, 1, 35, 66
5, 35279, Note_on_c, 1, 35, 0
5, 35282, Note_on_c, 1, 36, 81
5, 35382, Note_on_c, 1, 34, 62
5, 35396, Note_on_c, 1, 36, 0
5, 35401, Note_on_c, 1, 34, 0
5, 35401, Note_on_c, 1, 50, 105
5, 35479, Note_on_c, 1, 40, 60
5, 35486, Note_on_c, 1, 50, 0
5, 35513, Note_on_c, 1, 40, 0
5, 35517, Note_on_c, 1, 41, 89
5, 35588, Note_on_c, 1, 41, 0
5, 35599, Note_on_c, 1, 41, 71
5, 35633, Note_on_c, 1, 41, 0
5, 35639, Note_on_c, 1, 36, 87
5, 35759, Note_on_c, 1, 36, 0
5, 35768, Note_on_c, 1, 35, 73
5, 35924, Note_on_c, 1, 41, 62
5, 35929, Note_on_c, 1, 35, 0
5, 35944, Note_on_c, 1, 41, 0
5, 35961, Note_on_c, 1, 35, 74
5, 35986, Note_on_c, 1, 35, 0
5, 36000, Note_on_c, 1, 34, 80
5, 36162, Note_on_c, 1, 41, 71
5, 36170, Note_on_c, 1, 34, 0
5, 36197, Note_on_c, 1, 34, 72
5, 36210, Note_on_c, 1, 41, 0
5, 36227, Note_on_c, 1, 34, 0
5, 36236, Note_on_c, 1, 31, 76
5, 36238, Note_on_c, 1, 41, 22
5, 36250, Note_on_c, 1, 41, 0
5, 36302, Note_on_c, 1, 31, 0
5, 36320, Note_on_c, 1, 36, 88
5, 36431, Note_on_c, 1, 36, 0
5, 36442, Note_on_c, 1, 44, 90
5, 36447, Note_on_c, 1, 34, 52
5, 36453, Note_on_c, 1, 34, 0
5, 36475, Note_on_c, 1, 44, 0
5, 36484, Note_on_c, 1, 45, 84
5, 36560, Note_on_c, 1, 45, 0
5, 36562, Note_on_c, 1, 39, 86
5, 36646, Note_on_c, 1, 39, 0
5, 36648, Note_on_c, 1, 36, 38
5, 36666, Note_on_c, 1, 36, 0
5, 36681, Note_on_c, 1, 37, 73
5, 36715, Note_on_c, 1, 37, 0
5, 36723, Note_on_c, 1, 38, 76
5, 36847, Note_on_c, 1, 44, 87
5, 36864, Note_on_c, 1, 38, 0
5, 36928, Note_on_c, 1, 38, 62
5, 36942, Note_on_c, 1, 38, 0
5, 36957, Note_on_c, 1, 44, 0
5, 36964, Note_on_c, 1, 43, 60
5, 37082, Note_on_c, 1, 33, 80
5, 37171, Note_on_c, 1, 43, 0
5, 37181, Note_on_c, 1, 32, 29
5, 37184, Note_on_c, 1, 33, 0
5, 37190, Note_on_c, 1, 32, 0
5, 37200, Note_on_c, 1, 34, 78
5, 37321, Note_on_c, 1, 36, 76
5, 37329, Note_on_c, 1, 34, 0
5, 37415, Note_on_c, 1, 34, 35
5, 37429, Note_on_c, 1, 36, 0
5, 37440, Note_on_c, 1, 41, 90
5, 37445, Note_on_c, 1, 34, 0
5, 37602, Note_on_c, 1, 47, 61
5, 37607, Note_on_c, 1, 41, 0
5, 37640, Note_on_c, 1, 41, 52
5, 37650, Note_on_c, 1, 47, 0
5, 37668, Note_on_c, 1, 41, 0
5, 37680, Note_on_c, 1, 46, 75
5, 37869, Note_on_c, 1, 46, 0
5, 37879, Note_on_c, 1, 44, 85
5, 37912, Note_on_c, 1, 44, 0
5, 37920, Note_on_c, 1, 43, 73
5, 38001, Note_on_c, 1, 38, 60
5, 38015, Note_on_c, 1, 38, 0
5, 38038, Note_on_c, 1, 35, 80
5, 38129, Note_on_c, 1, 43, 0
5, 38148, Note_on_c, 1, 34, 23
5, 38159, Note_on_c, 1, 34, 0
5, 38159, Note_on_c, 1, 35, 0
5, 38163, Note_on_c, 1, 36, 92
5, 38236, Note_on_c, 1, 36, 0
5, 38247, Note_on_c, 1, 36, 69
5, 38270, Note_on_c, 1, 36, 0
5, 38282, Note_on_c, 1, 34, 80
5, 38392, Note_on_c, 1, 34, 0
5, 38400, Note_on_c, 1, 33, 80
5, 38561, Note_on_c, 1, 33, 0
5, 38561, Note_on_c, 1, 39, 67
5, 38587, Note_on_c, 1, 39, 0
5, 38598, Note_on_c, 1, 37, 59
5, 38627, Note_on_c, 1, 37, 0
5, 38636, Note_on_c, 1, 38, 62
5, 38676, Note_on_c, 1, 44, 74
5, 38797, Note_on_c, 1, 46, 62
5, 38803, Note_on_c, 1, 44, 0
5, 38833, Note_on_c, 1, 46, 0
5, 38833, Note_on_c, 1, 44, 62
5, 38870, Note_on_c, 1, 44, 0
5, 38871, Note_on_c, 1, 38, 0
5, 38875, Note_on_c, 1, 45, 80
5, 39004, Note_on_c, 1, 39, 83
5, 39007, Note_on_c, 1, 45, 0
5, 39103, Note_on_c, 1, 37, 25
5, 39118, Note_on_c, 1, 37, 0
5, 39121, Note_on_c, 1, 39, 0
5, 39124, Note_on_c, 1, 38, 78
5, 39280, Note_on_c, 1, 32, 65
5, 39288, Note_on_c, 1, 38, 0
5, 39300, Note_on_c, 1, 32, 0
5, 39315, Note_on_c, 1, 30, 64
5, 39346, Note_on_c, 1, 30, 0
5, 39356, Note_on_c, 1, 31, 76
5, 39518, Note_on_c, 1, 43, 61
5, 39523, Note_on_c, 1, 31, 0
5, 39553, Note_on_c, 1, 31, 63
5, 39560, Note_on_c, 1, 43, 0
5, 39595, Note_on_c, 1, 45, 108
5, 39607, Note_on_c, 1, 31, 0
5, 39676, Note_on_c, 1, 33, 88
5, 39830, Note_on_c, 1, 45, 0
5, 39839, Note_on_c, 1, 33, 0
5, 39842, Note_on_c, 1, 34, 82
5, 40034, Note_on_c, 1, 34, 0
5, 40039, Note_on_c, 1, 35, 83
5, 40085, Note_on_c, 1, 35, 0
5, 40085, Note_on_c, 1, 36, 89
5, 40154, Note_on_c, 1, 36, 0
5, 40164, Note_on_c, 1, 36, 74
5, 40198, Note_on_c, 1, 36, 0
5, 40204, Note_on_c, 1, 34, 70
5, 40273, Note_on_c, 1, 34, 0
5, 40282, Note_on_c, 1, 34, 75
5, 40315, Note_on_c, 1, 34, 0
5, 40323, Note_on_c, 1, 33, 75
5, 40559, Note_on_c, 1, 33, 0
5, 40562, Note_on_c, 1, 38, 85
5, 40723, Note_on_c, 1, 45, 88
5, 40750, Note_on_c, 1, 45, 0
5, 40755, Note_on_c, 1, 44, 81
5, 40789, Note_on_c, 1, 44, 0
5, 40798, Note_on_c, 1, 43, 82
5, 40800, Note_on_c, 1, 38, 0
5, 40961, Note_on_c, 1, 38, 65
5, 40979, Note_on_c, 1, 43, 0
5, 40980, Note_on_c, 1, 38, 0
5, 40990, Note_on_c, 1, 35, 76
5, 41026, Note_on_c, 1, 35, 0
5, 41032, Note_on_c, 1, 36, 84
5, 41179, Note_on_c, 1, 36, 0
5, 41368, Note_on_c, 1, 41, 94
5, 41372, Note_on_c, 1, 40, 43
5, 41377, Note_on_c, 1, 40, 0
5, 41519, Note_on_c, 1, 41, 0
5, 41528, Note_on_c, 1, 35, 80
5, 41727, Note_on_c, 1, 35, 0
5, 41762, Note_on_c, 1, 34, 84
5, 41831, Note_on_c, 1, 34, 0
5, 41842, Note_on_c, 1, 34, 64
5, 41877, Note_on_c, 1, 34, 0
5, 41883, Note_on_c, 1, 33, 80
5, 41996, Note_on_c, 1, 33, 0
5, 42006, Note_on_c, 1, 31, 71
5, 42082, Note_on_c, 1, 31, 0
5, 42089, Note_on_c, 1, 36, 85
5, 42175, Note_on_c, 1, 36, 0
5, 42325, Note_on_c, 1, 45, 105
5, 42483, Note_on_c, 1, 45, 0
5, 42490, Note_on_c, 1, 38, 88
5, 42723, Note_on_c, 1, 38, 0
5, 42728, Note_on_c, 1, 43, 91
5, 42838, Note_on_c, 1, 43, 0
5, 42844, Note_on_c, 1, 45, 84
5, 42953, Note_on_c, 1, 45, 0
5, 42961, Note_on_c, 1, 46, 76
5, 43080, Note_on_c, 1, 46, 0
5, 43081, Note_on_c, 1, 48, 94
5, 43184, Note_on_c, 1, 48, 0
5, 43278, Note_on_c, 1, 41, 99
5, 43432, Note_on_c, 1, 41, 0
5, 43440, Note_on_c, 1, 34, 81
5, 43630, Note_on_c, 1, 34, 0
5, 43638, Note_on_c, 1, 44, 83
5, 43673, Note_on_c, 1, 44, 0
5, 43683, Note_on_c, 1, 43, 81
5, 43863, Note_on_c, 1, 43, 0
5, 43875, Note_on_c, 1, 35, 64
5, 43910, Note_on_c, 1, 35, 0
5, 43919, Note_on_c, 1, 36, 72
5, 43980, Note_on_c, 1, 36, 0
5, 43996, Note_on_c, 1, 34, 82
5, 44089, Note_on_c, 1, 34, 0
5, 44233, Note_on_c, 1, 33, 96
5, 44392, Note_on_c, 1, 33, 0
5, 44399, Note_on_c, 1, 38, 90
5, 44585, Note_on_c, 1, 38, 0
5, 44598, Note_on_c, 1, 34, 54
5, 44610, Note_on_c, 1, 34, 0
5, 44639, Note_on_c, 1, 45, 90
5, 44697, Note_on_c, 1, 45, 0
5, 44717, Note_on_c, 1, 45, 77
5, 44746, Note_on_c, 1, 45, 0
5, 44762, Note_on_c, 1, 46, 76
5, 44784, Note_on_c, 1, 46, 0
5, 44837, Note_on_c, 1, 38, 89
5, 45104, Note_on_c, 1, 38, 0
5, 45192, Note_on_c, 1, 45, 94
5, 45193, Note_on_c, 1, 43, 94
5, 45218, Note_on_c, 1, 43, 0
5, 45290, Note_on_c, 1, 45, 0
5, 45438, Note_on_c, 1, 45, 108
5, 45595, Note_on_c, 1, 45, 0
5, 45605, Note_on_c, 1, 46, 81
5, 45673, Note_on_c, 1, 46, 0
5, 45685, Note_on_c, 1, 47, 96
5, 45789, Note_on_c, 1, 47, 0
5, 45799, Note_on_c, 1, 48, 101
5, 46029, Note_on_c, 1, 48, 0
5, 46037, Note_on_c, 1, 46, 70
5, 46075, Note_on_c, 1, 46, 0
5, 46082, Note_on_c, 1, 45, 92
5, 46275, Note_on_c, 1, 45, 0
5, 46278, Note_on_c, 1, 38, 91
5, 46520, Note_on_c, 1, 45, 88
5, 46533, Note_on_c, 1, 38, 0
5, 46550, Note_on_c, 1, 45, 0
5, 46562, Note_on_c, 1, 43, 80
5, 46752, Note_on_c, 1, 43, 0
5, 46754, Note_on_c, 1, 35, 74
5, 46792, Note_on_c, 1, 35, 0
5, 46798, Note_on_c, 1, 36, 89
5, 47047, Note_on_c, 1, 36, 0
5, 47119, Note_on_c, 1, 41, 94
5, 47277, Note_on_c, 1, 41, 0
5, 47285, Note_on_c, 1, 35, 71
5, 47460, Note_on_c, 1, 35, 0
5, 47480, Note_on_c, 1, 35, 69
5, 47504, Note_on_c, 1, 35, 0
5, 47523, Note_on_c, 1, 34, 67
5, 47637, Note_on_c, 1, 34, 0
5, 47644, Note_on_c, 1, 33, 81
5, 47750, Note_on_c, 1, 33, 0
5, 47759, Note_on_c, 1, 31, 71
5, 47831, Note_on_c, 1, 31, 0
5, 47832, Note_on_c, 1, 36, 71
5, 47943, Note_on_c, 1, 36, 0
5, 48082, Note_on_c, 1, 45, 105
5, 48089, Note_on_c, 1, 40, 54
5, 48090, Note_on_c, 1, 41, 53
5, 48095, Note_on_c, 1, 41, 0
5, 48095, Note_on_c, 1, 40, 0
5, 48243, Note_on_c, 1, 45, 0
5, 48248, Note_on_c, 1, 38, 84
5, 48419, Note_on_c, 1, 38, 0
5, 48444, Note_on_c, 1, 44, 86
5, 48451, Note_on_c, 1, 37, 30
5, 48456, Note_on_c, 1, 37, 0
5, 48475, Note_on_c, 1, 44, 0
5, 48485, Note_on_c, 1, 43, 84
5, 48544, Note_on_c, 1, 43, 0
5, 48562, Note_on_c, 1, 43, 76
5, 48597, Note_on_c, 1, 43, 0
5, 48604, Note_on_c, 1, 45, 80
5, 48706, Note_on_c, 1, 45, 0
5, 48723, Note_on_c, 1, 46, 73
5, 48793, Note_on_c, 1, 46, 0
5, 48801, Note_on_c, 1, 46, 20
5, 48843, Note_on_c, 1, 46, 0
5, 48845, Note_on_c, 1, 48, 82
5, 48970, Note_on_c, 1, 48, 0
5, 49043, Note_on_c, 1, 41, 96
5, 49202, Note_on_c, 1, 41, 0
5, 49204, Note_on_c, 1, 34, 83
5, 49384, Note_on_c, 1, 34, 0
5, 49395, Note_on_c, 1, 42, 73
5, 49432, Note_on_c, 1, 42, 0
5, 49436, Note_on_c, 1, 43, 87
5, 49623, Note_on_c, 1, 43, 0
5, 49636, Note_on_c, 1, 35, 69
5, 49667, Note_on_c, 1, 35, 0
5, 49677, Note_on_c, 1, 36, 84
5, 49745, Note_on_c, 1, 36, 0
5, 49758, Note_on_c, 1, 34, 83
5, 49891, Note_on_c, 1, 34, 0
5, 50001, Note_on_c, 1, 45, 92
5, 50036, Note_on_c, 1, 45, 0
5, 50048, Note_on_c, 1, 33, 64
5, 50116, Note_on_c, 1, 33, 0
5, 50125, Note_on_c, 1, 38, 92
5, 50329, Note_on_c, 1, 38, 0
5, 50361, Note_on_c, 1, 46, 85
5, 50398, Note_on_c, 1, 46, 0
5, 50404, Note_on_c, 1, 45, 83
5, 50598, Note_on_c, 1, 45, 0
5, 50604, Note_on_c, 1, 39, 81
5, 50634, Note_on_c, 1, 39, 0
5, 50643, Note_on_c, 1, 38, 92
5, 50694, Note_on_c, 1, 38, 0
5, 50718, Note_on_c, 1, 38, 96
5, 50759, Note_on_c, 1, 38, 0
5, 50963, Note_on_c, 1, 43, 105
5, 51178, Note_on_c, 1, 43, 0
5, 51203, Note_on_c, 1, 45, 105
5, 51370, Note_on_c, 1, 46, 93
5, 51379, Note_on_c, 1, 45, 0
5, 51480, Note_on_c, 1, 46, 0
5, 51484, Note_on_c, 1, 47, 90
5, 51547, Note_on_c, 1, 46, 18
5, 51548, Note_on_c, 1, 47, 0
5, 51554, Note_on_c, 1, 46, 0
5, 51561, Note_on_c, 1, 48, 95
5, 51669, Note_on_c, 1, 48, 0
5, 51675, Note_on_c, 1, 36, 99
5, 51836, Note_on_c, 1, 36, 0
5, 51840, Note_on_c, 1, 45, 99
5, 52033, Note_on_c, 1, 45, 0
5, 52039, Note_on_c, 1, 39, 80
5, 52071, Note_on_c, 1, 39, 0
5, 52078, Note_on_c, 1, 38, 74
5, 52276, Note_on_c, 1, 45, 79
5, 52277, Note_on_c, 1, 47, 70
5, 52290, Note_on_c, 1, 47, 0
5, 52298, Note_on_c, 1, 45, 0
5, 52312, Note_on_c, 1, 38, 0
5, 52315, Note_on_c, 1, 43, 80
5, 52336, Note_on_c, 1, 43, 0
5, 52397, Note_on_c, 1, 35, 83
5, 52430, Note_on_c, 1, 35, 0
5, 52436, Note_on_c, 1, 36, 96
5, 52630, Note_on_c, 1, 36, 0
5, 52635, Note_on_c, 1, 27, 63
5, 52666, Note_on_c, 1, 27, 0
5, 52672, Note_on_c, 1, 33, 100
5, 52674, Note_on_c, 1, 28, 80
5, 52760, Note_on_c, 1, 28, 0
5, 52792, Note_on_c, 1, 33, 0
5, 52797, Note_on_c, 1, 45, 96
5, 53040, Note_on_c, 1, 45, 0
5, 53043, Note_on_c, 1, 35, 87
5, 53283, Note_on_c, 1, 35, 0
5, 53288, Note_on_c, 1, 34, 83
5, 53401, Note_on_c, 1, 34, 0
5, 53408, Note_on_c, 1, 33, 83
5, 53520, Note_on_c, 1, 33, 0
5, 53525, Note_on_c, 1, 31, 80
5, 53591, Note_on_c, 1, 31, 0
5, 53605, Note_on_c, 1, 31, 67
5, 53635, Note_on_c, 1, 31, 0
5, 53646, Note_on_c, 1, 36, 87
5, 53758, Note_on_c, 1, 36, 0
5, 53761, Note_on_c, 1, 41, 92
5, 53829, Note_on_c, 1, 41, 0
5, 53839, Note_on_c, 1, 41, 88
5, 53947, Note_on_c, 1, 41, 0
5, 53955, Note_on_c, 1, 41, 87
5, 53995, Note_on_c, 1, 41, 0
5, 53997, Note_on_c, 1, 47, 95
5, 54068, Note_on_c, 1, 47, 0
5, 54075, Note_on_c, 1, 47, 88
5, 54200, Note_on_c, 1, 41, 63
5, 54206, Note_on_c, 1, 41, 0
5, 54236, Note_on_c, 1, 47, 0
5, 54242, Note_on_c, 1, 46, 87
5, 54279, Note_on_c, 1, 46, 0
5, 54325, Note_on_c, 1, 46, 80
5, 54363, Note_on_c, 1, 46, 0
5, 54370, Note_on_c, 1, 45, 90
5, 54427, Note_on_c, 1, 45, 0
5, 54447, Note_on_c, 1, 45, 83
5, 54476, Note_on_c, 1, 45, 0
5, 54488, Note_on_c, 1, 43, 79
5, 54549, Note_on_c, 1, 43, 0
5, 54565, Note_on_c, 1, 43, 67
5, 54616, Note_on_c, 1, 43, 0
5, 54619, Note_on_c, 1, 36, 101
5, 54754, Note_on_c, 1, 41, 123
5, 54767, Note_on_c, 1, 36, 0
5, 55062, Note_on_c, 1, 29, 87
5, 55116, Note_on_c, 1, 41, 0
5, 55425, Note_on_c, 1, 29, 0
5, 55425, End_track
6, 0, Start_track
6, 0, Title_t, "Track 5"
6, 125, Control_c, 9, 0, 0
6, 125, Program_c, 9, 0
6, 126, Control_c, 9, 7, 84
6, 914, Note_on_c, 9, 36, 40
6, 950, Note_on_c, 9, 36, 0
6, 962, Note_on_c, 9, 36, 45
6, 968, Note_on_c, 9, 51, 41
6, 1019, Note_on_c, 9, 36, 0
6, 1023, Note_on_c, 9, 51, 0
6, 1039, Note_on_c, 9, 46, 59
6, 1087, Note_on_c, 9, 51, 35
6, 1167, Note_on_c, 9, 46, 0
6, 1205, Note_on_c, 9, 46, 26
6, 1211, Note_on_c, 9, 46, 0
6, 1234, Note_on_c, 9, 51, 0
6, 1281, Note_on_c, 9, 51, 34
6, 1298, Note_on_c, 9, 51, 0
6, 1327, Note_on_c, 9, 51, 34
6, 1421, Note_on_c, 9, 51, 0
6, 1448, Note_on_c, 9, 51, 40
6, 1542, Note_on_c, 9, 51, 0
6, 1570, Note_on_c, 9, 51, 44
6, 1658, Note_on_c, 9, 51, 0
6, 1686, Note_on_c, 9, 51, 43
6, 1752, Note_on_c, 9, 51, 0
6, 1757, Note_on_c, 9, 53, 63
6, 1768, Note_on_c, 9, 53, 0
6, 1798, Note_on_c, 9, 51, 37
6, 1844, Note_on_c, 9, 36, 30
6, 1852, Note_on_c, 9, 51, 0
6, 1863, Note_on_c, 9, 36, 0
6, 1877, Note_on_c, 9, 51, 46
6, 1879, Note_on_c, 9, 36, 27
6, 1889, Note_on_c, 9, 51, 0
6, 1908, Note_on_c, 9, 36, 0
6, 1919, Note_on_c, 9, 51, 43
6, 1920, Note_on_c, 9, 36, 53
6, 1934, Note_on_c, 9, 51, 0
6, 1975, Note_on_c, 9, 36, 0
6, 1980, Note_on_c, 9, 46, 62
6, 2038, Note_on_c, 9, 51, 46
6, 2056, Note_on_c, 9, 51, 0
6, 2113, Note_on_c, 9, 36, 36
6, 2118, Note_on_c, 9, 46, 0
6, 2138, Note_on_c, 9, 36, 0
6, 2151, Note_on_c, 9, 36, 38
6, 2158, Note_on_c, 9, 51, 47
6, 2167, Note_on_c, 9, 51, 0
6, 2214, Note_on_c, 9, 36, 0
6, 2353, Note_on_c, 9, 36, 41
6, 2361, Note_on_c, 9, 51, 41
6, 2366, Note_on_c, 9, 36, 0
6, 2370, Note_on_c, 9, 51, 0
6, 2478, Note_on_c, 9, 51, 50
6, 2520, Note_on_c, 9, 51, 0
6, 2524, Note_on_c, 9, 53, 33
6, 2592, Note_on_c, 9, 53, 0
6, 2599, Note_on_c, 9, 51, 40
6, 2610, Note_on_c, 9, 51, 0
6, 2643, Note_on_c, 9, 51, 41
6, 2739, Note_on_c, 9, 51, 0
6, 2767, Note_on_c, 9, 51, 37
6, 2835, Note_on_c, 9, 36, 72
6, 2839, Note_on_c, 9, 53, 72
6, 2841, Note_on_c, 9, 51, 0
6, 2854, Note_on_c, 9, 53, 0
6, 2871, Note_on_c, 9, 36, 0
6, 2879, Note_on_c, 9, 51, 34
6, 2883, Note_on_c, 9, 36, 65
6, 2930, Note_on_c, 9, 36, 0
6, 2942, Note_on_c, 9, 51, 0
6, 2953, Note_on_c, 9, 46, 63
6, 2960, Note_on_c, 9, 51, 38
6, 2974, Note_on_c, 9, 51, 0
6, 3001, Note_on_c, 9, 51, 38
6, 3064, Note_on_c, 9, 51, 0
6, 3074, Note_on_c, 9, 53, 57
6, 3074, Note_on_c, 9, 36, 69
6, 3085, Note_on_c, 9, 53, 0
6, 3102, Note_on_c, 9, 36, 0
6, 3110, Note_on_c, 9, 46, 0
6, 3112, Note_on_c, 9, 51, 30
6, 3194, Note_on_c, 9, 53, 64
6, 3195, Note_on_c, 9, 51, 0
6, 3206, Note_on_c, 9, 53, 0
6, 3236, Note_on_c, 9, 51, 27
6, 3284, Note_on_c, 9, 51, 0
6, 3315, Note_on_c, 9, 51, 36
6, 3334, Note_on_c, 9, 51, 0
6, 3356, Note_on_c, 9, 36, 22
6, 3359, Note_on_c, 9, 51, 32
6, 3393, Note_on_c, 9, 36, 0
6, 3429, Note_on_c, 9, 36, 37
6, 3464, Note_on_c, 9, 36, 0
6, 3468, Note_on_c, 9, 51, 0
6, 3486, Note_on_c, 9, 51, 41
6, 3585, Note_on_c, 9, 51, 0
6, 3601, Note_on_c, 9, 51, 38
6, 3707, Note_on_c, 9, 51, 0
6, 3723, Note_on_c, 9, 51, 38
6, 3758, Note_on_c, 9, 36, 22
6, 3780, Note_on_c, 9, 36, 0
6, 3791, Note_on_c, 9, 51, 0
6, 3791, Note_on_c, 9, 53, 63
6, 3796, Note_on_c, 9, 36, 50
6, 3802, Note_on_c, 9, 53, 0
6, 3827, Note_on_c, 9, 36, 0
6, 3832, Note_on_c, 9, 51, 35
6, 3834, Note_on_c, 9, 36, 60
6, 3875, Note_on_c, 9, 36, 0
6, 3889, Note_on_c, 9, 51, 0
6, 3904, Note_on_c, 9, 46, 62
6, 3905, Note_on_c, 9, 51, 70
6, 3947, Note_on_c, 9, 51, 0
6, 3952, Note_on_c, 9, 51, 26
6, 4013, Note_on_c, 9, 51, 0
6, 4031, Note_on_c, 9, 51, 44
6, 4032, Note_on_c, 9, 36, 67
6, 4049, Note_on_c, 9, 51, 0
6, 4054, Note_on_c, 9, 46, 0
6, 4063, Note_on_c, 9, 36, 0
6, 4073, Note_on_c, 9, 53, 45
6, 4076, Note_on_c, 9, 51, 44
6, 4080, Note_on_c, 9, 53, 0
6, 4131, Note_on_c, 9, 51, 0
6, 4155, Note_on_c, 9, 51, 32
6, 4192, Note_on_c, 9, 51, 0
6, 4200, Note_on_c, 9, 53, 43
6, 4213, Note_on_c, 9, 53, 0
6, 4237, Note_on_c, 9, 51, 48
6, 4275, Note_on_c, 9, 53, 49
6, 4287, Note_on_c, 9, 53, 0
6, 4296, Note_on_c, 9, 51, 0
6, 4315, Note_on_c, 9, 51, 25
6, 4380, Note_on_c, 9, 51, 0
6, 4389, Note_on_c, 9, 36, 35
6, 4395, Note_on_c, 9, 51, 63
6, 4411, Note_on_c, 9, 36, 0
6, 4438, Note_on_c, 9, 36, 37
6, 4489, Note_on_c, 9, 36, 0
6, 4510, Note_on_c, 9, 53, 54
6, 4520, Note_on_c, 9, 51, 0
6, 4524, Note_on_c, 9, 53, 0
6, 4555, Note_on_c, 9, 51, 24
6, 4634, Note_on_c, 9, 53, 46
6, 4643, Note_on_c, 9, 51, 0
6, 4649, Note_on_c, 9, 53, 0
6, 4679, Note_on_c, 9, 51, 26
6, 4705, Note_on_c, 9, 36, 54
6, 4722, Note_on_c, 9, 36, 0
6, 4747, Note_on_c, 9, 36, 43
6, 4748, Note_on_c, 9, 46, 62
6, 4750, Note_on_c, 9, 51, 0
6, 4751, Note_on_c, 9, 53, 57
6, 4759, Note_on_c, 9, 53, 0
6, 4773, Note_on_c, 9, 36, 0
6, 4791, Note_on_c, 9, 36, 68
6, 4796, Note_on_c, 9, 51, 26
6, 4815, Note_on_c, 9, 51, 0
6, 4824, Note_on_c, 9, 36, 0
6, 4856, Note_on_c, 9, 46, 0
6, 4872, Note_on_c, 9, 51, 65
6, 4896, Note_on_c, 9, 51, 0
6, 4915, Note_on_c, 9, 51, 40
6, 4996, Note_on_c, 9, 46, 60
6, 4996, Note_on_c, 9, 36, 44
6, 5001, Note_on_c, 9, 53, 68
6, 5006, Note_on_c, 9, 51, 0
6, 5013, Note_on_c, 9, 53, 0
6, 5029, Note_on_c, 9, 36, 0
6, 5033, Note_on_c, 9, 46, 0
6, 5043, Note_on_c, 9, 46, 53
6, 5045, Note_on_c, 9, 36, 55
6, 5047, Note_on_c, 9, 51, 26
6, 5059, Note_on_c, 9, 51, 0
6, 5079, Note_on_c, 9, 46, 0
6, 5097, Note_on_c, 9, 36, 0
6, 5120, Note_on_c, 9, 51, 51
6, 5134, Note_on_c, 9, 51, 0
6, 5167, Note_on_c, 9, 51, 50
6, 5234, Note_on_c, 9, 36, 46
6, 5235, Note_on_c, 9, 46, 63
6, 5236, Note_on_c, 9, 53, 63
6, 5237, Note_on_c, 9, 51, 0
6, 5251, Note_on_c, 9, 53, 0
6, 5268, Note_on_c, 9, 36, 0
6, 5279, Note_on_c, 9, 51, 35
6, 5280, Note_on_c, 9, 46, 0
6, 5284, Note_on_c, 9, 36, 54
6, 5338, Note_on_c, 9, 36, 0
6, 5358, Note_on_c, 9, 46, 62
6, 5362, Note_on_c, 9, 53, 57
6, 5364, Note_on_c, 9, 51, 0
6, 5373, Note_on_c, 9, 53, 0
6, 5386, Note_on_c, 9, 46, 0
6, 5402, Note_on_c, 9, 51, 38
6, 5476, Note_on_c, 9, 36, 68
6, 5477, Note_on_c, 9, 51, 0
6, 5482, Note_on_c, 9, 53, 51
6, 5483, Note_on_c, 9, 46, 63
6, 5488, Note_on_c, 9, 53, 0
6, 5511, Note_on_c, 9, 46, 0
6, 5525, Note_on_c, 9, 36, 0
6, 5525, Note_on_c, 9, 51, 28
6, 5593, Note_on_c, 9, 51, 0
6, 5597, Note_on_c, 9, 46, 58
6, 5604, Note_on_c, 9, 51, 53
6, 5626, Note_on_c, 9, 51, 0
6, 5692, Note_on_c, 9, 46, 0
6, 5724, Note_on_c, 9, 51, 29
6, 5731, Note_on_c, 9, 51, 0
6, 5764, Note_on_c, 9, 51, 44
6, 5814, Note_on_c, 9, 51, 0
6, 5837, Note_on_c, 9, 36, 38
6, 5838, Note_on_c, 9, 46, 62
6, 5867, Note_on_c, 9, 36, 0
6, 5877, Note_on_c, 9, 51, 36
6, 5882, Note_on_c, 9, 36, 37
6, 5895, Note_on_c, 9, 51, 0
6, 5947, Note_on_c, 9, 36, 0
6, 5957, Note_on_c, 9, 53, 52
6, 5958, Note_on_c, 9, 51, 38
6, 5962, Note_on_c, 9, 46, 0
6, 5964, Note_on_c, 9, 53, 0
6, 5970, Note_on_c, 9, 51, 0
6, 5999, Note_on_c, 9, 53, 50
6, 6005, Note_on_c, 9, 53, 0
6, 6005, Note_on_c, 9, 51, 31
6, 6005, Note_on_c, 9, 36, 41
6, 6042, Note_on_c, 9, 51, 0
6, 6051, Note_on_c, 9, 36, 0
6, 6074, Note_on_c, 9, 36, 57
6, 6081, Note_on_c, 9, 46, 55
6, 6106, Note_on_c, 9, 36, 0
6, 6118, Note_on_c, 9, 53, 45
6, 6120, Note_on_c, 9, 51, 37
6, 6130, Note_on_c, 9, 53, 0
6, 6136, Note_on_c, 9, 51, 0
6, 6190, Note_on_c, 9, 53, 59
6, 6192, Note_on_c, 9, 51, 71
6, 6197, Note_on_c, 9, 53, 0
6, 6208, Note_on_c, 9, 51, 0
6, 6221, Note_on_c, 9, 46, 0
6, 6353, Note_on_c, 9, 51, 25
6, 6357, Note_on_c, 9, 46, 35
6, 6363, Note_on_c, 9, 51, 0
6, 6378, Note_on_c, 9, 46, 0
6, 6429, Note_on_c, 9, 51, 49
6, 6466, Note_on_c, 9, 51, 0
6, 6473, Note_on_c, 9, 53, 42
6, 6482, Note_on_c, 9, 53, 0
6, 6512, Note_on_c, 9, 53, 58
6, 6513, Note_on_c, 9, 36, 30
6, 6519, Note_on_c, 9, 53, 0
6, 6533, Note_on_c, 9, 36, 0
6, 6550, Note_on_c, 9, 36, 44
6, 6551, Note_on_c, 9, 51, 46
6, 6567, Note_on_c, 9, 51, 0
6, 6582, Note_on_c, 9, 36, 0
6, 6592, Note_on_c, 9, 36, 67
6, 6593, Note_on_c, 9, 53, 59
6, 6604, Note_on_c, 9, 53, 0
6, 6648, Note_on_c, 9, 36, 0
6, 6669, Note_on_c, 9, 36, 88
6, 6670, Note_on_c, 9, 51, 37
6, 6676, Note_on_c, 9, 51, 0
6, 6711, Note_on_c, 9, 57, 35
6, 6712, Note_on_c, 9, 51, 58
6, 6715, Note_on_c, 9, 36, 0
6, 6716, Note_on_c, 9, 57, 0
6, 6718, Note_on_c, 9, 51, 0
6, 6790, Note_on_c, 9, 46, 62
6, 6839, Note_on_c, 9, 51, 28
6, 6845, Note_on_c, 9, 51, 0
6, 6908, Note_on_c, 9, 36, 47
6, 6928, Note_on_c, 9, 46, 0
6, 6931, Note_on_c, 9, 36, 0
6, 6959, Note_on_c, 9, 51, 53
6, 6959, Note_on_c, 9, 36, 44
6, 6989, Note_on_c, 9, 36, 0
6, 7018, Note_on_c, 9, 51, 0
6, 7043, Note_on_c, 9, 51, 53
6, 7056, Note_on_c, 9, 51, 0
6, 7156, Note_on_c, 9, 36, 36
6, 7166, Note_on_c, 9, 36, 0
6, 7207, Note_on_c, 9, 51, 46
6, 7316, Note_on_c, 9, 51, 0
6, 7327, Note_on_c, 9, 51, 38
6, 7433, Note_on_c, 9, 51, 0
6, 7445, Note_on_c, 9, 51, 47
6, 7548, Note_on_c, 9, 51, 0
6, 7560, Note_on_c, 9, 51, 40
6, 7602, Note_on_c, 9, 36, 38
6, 7615, Note_on_c, 9, 36, 0
6, 7640, Note_on_c, 9, 36, 44
6, 7669, Note_on_c, 9, 51, 0
6, 7669, Note_on_c, 9, 36, 0
6, 7681, Note_on_c, 9, 51, 47
6, 7683, Note_on_c, 9, 36, 58
6, 7716, Note_on_c, 9, 36, 0
6, 7745, Note_on_c, 9, 46, 62
6, 7783, Note_on_c, 9, 51, 0
6, 7799, Note_on_c, 9, 51, 39
6, 7859, Note_on_c, 9, 46, 0
6, 7875, Note_on_c, 9, 36, 64
6, 7881, Note_on_c, 9, 51, 0
6, 7898, Note_on_c, 9, 36, 0
6, 7916, Note_on_c, 9, 51, 30
6, 7918, Note_on_c, 9, 36, 58
6, 7956, Note_on_c, 9, 36, 0
6, 7997, Note_on_c, 9, 46, 58
6, 8015, Note_on_c, 9, 51, 0
6, 8040, Note_on_c, 9, 51, 75
6, 8068, Note_on_c, 9, 51, 0
6, 8112, Note_on_c, 9, 36, 35
6, 8130, Note_on_c, 9, 36, 0
6, 8145, Note_on_c, 9, 46, 0
6, 8156, Note_on_c, 9, 51, 60
6, 8174, Note_on_c, 9, 51, 0
6, 8280, Note_on_c, 9, 51, 36
6, 8294, Note_on_c, 9, 51, 0
6, 8404, Note_on_c, 9, 51, 50
6, 8486, Note_on_c, 9, 51, 0
6, 8516, Note_on_c, 9, 51, 1
6, 8539, Note_on_c, 9, 51, 0
6, 8590, Note_on_c, 9, 36, 48
6, 8621, Note_on_c, 9, 36, 0
6, 8635, Note_on_c, 9, 36, 60
6, 8637, Note_on_c, 9, 51, 52
6, 8650, Note_on_c, 9, 51, 0
6, 8672, Note_on_c, 9, 36, 0
6, 8708, Note_on_c, 9, 46, 62
6, 8755, Note_on_c, 9, 51, 51
6, 8773, Note_on_c, 9, 51, 0
6, 8820, Note_on_c, 9, 46, 0
6, 8837, Note_on_c, 9, 36, 34
6, 8864, Note_on_c, 9, 36, 0
6, 8880, Note_on_c, 9, 36, 55
6, 8881, Note_on_c, 9, 51, 51
6, 8922, Note_on_c, 9, 36, 0
6, 8946, Note_on_c, 9, 51, 0
6, 8962, Note_on_c, 9, 46, 53
6, 9007, Note_on_c, 9, 51, 36
6, 9062, Note_on_c, 9, 46, 0
6, 9069, Note_on_c, 9, 36, 74
6, 9079, Note_on_c, 9, 51, 0
6, 9095, Note_on_c, 9, 36, 0
6, 9120, Note_on_c, 9, 51, 47
6, 9159, Note_on_c, 9, 53, 47
6, 9165, Note_on_c, 9, 51, 0
6, 9168, Note_on_c, 9, 53, 0
6, 9198, Note_on_c, 9, 51, 54
6, 9225, Note_on_c, 9, 51, 0
6, 9239, Note_on_c, 9, 51, 54
6, 9340, Note_on_c, 9, 51, 0
6, 9356, Note_on_c, 9, 51, 43
6, 9454, Note_on_c, 9, 51, 0
6, 9473, Note_on_c, 9, 51, 48
6, 9544, Note_on_c, 9, 51, 0
6, 9552, Note_on_c, 9, 36, 55
6, 9577, Note_on_c, 9, 36, 0
6, 9590, Note_on_c, 9, 36, 58
6, 9594, Note_on_c, 9, 51, 36
6, 9642, Note_on_c, 9, 36, 0
6, 9656, Note_on_c, 9, 51, 0
6, 9670, Note_on_c, 9, 51, 58
6, 9676, Note_on_c, 9, 59, 79
6, 9676, Note_on_c, 9, 46, 53
6, 9695, Note_on_c, 9, 51, 0
6, 9713, Note_on_c, 9, 51, 51
6, 9756, Note_on_c, 9, 59, 0
6, 9778, Note_on_c, 9, 46, 0
6, 9792, Note_on_c, 9, 36, 59
6, 9800, Note_on_c, 9, 51, 0
6, 9829, Note_on_c, 9, 36, 0
6, 9836, Note_on_c, 9, 51, 43
6, 9921, Note_on_c, 9, 46, 61
6, 9952, Note_on_c, 9, 51, 0
6, 9969, Note_on_c, 9, 51, 54
6, 10035, Note_on_c, 9, 36, 60
6, 10044, Note_on_c, 9, 46, 0
6, 10067, Note_on_c, 9, 51, 0
6, 10068, Note_on_c, 9, 36, 0
6, 10084, Note_on_c, 9, 51, 44
6, 10087, Note_on_c, 9, 36, 53
6, 10132, Note_on_c, 9, 36, 0
6, 10157, Note_on_c, 9, 36, 66
6, 10188, Note_on_c, 9, 51, 0
6, 10204, Note_on_c, 9, 51, 37
6, 10209, Note_on_c, 9, 36, 0
6, 10277, Note_on_c, 9, 36, 50
6, 10297, Note_on_c, 9, 51, 0
6, 10315, Note_on_c, 9, 36, 0
6, 10316, Note_on_c, 9, 51, 47
6, 10400, Note_on_c, 9, 51, 0
6, 10441, Note_on_c, 9, 51, 38
6, 10495, Note_on_c, 9, 51, 0
6, 10512, Note_on_c, 9, 51, 64
6, 10601, Note_on_c, 9, 36, 25
6, 10620, Note_on_c, 9, 36, 0
6, 10631, Note_on_c, 9, 51, 0
6, 10639, Note_on_c, 9, 36, 48
6, 10640, Note_on_c, 9, 59, 96
6, 10670, Note_on_c, 9, 36, 0
6, 10680, Note_on_c, 9, 51, 34
6, 10682, Note_on_c, 9, 36, 69
6, 10702, Note_on_c, 9, 51, 0
6, 10735, Note_on_c, 9, 59, 0
6, 10750, Note_on_c, 9, 36, 0
6, 10755, Note_on_c, 9, 59, 62
6, 10756, Note_on_c, 9, 51, 48
6, 10765, Note_on_c, 9, 46, 36
6, 10772, Note_on_c, 9, 59, 0
6, 10780, Note_on_c, 9, 46, 0
6, 10785, Note_on_c, 9, 51, 0
6, 10796, Note_on_c, 9, 59, 66
6, 10803, Note_on_c, 9, 51, 47
6, 10807, Note_on_c, 9, 59, 0
6, 10811, Note_on_c, 9, 46, 37
6, 10824, Note_on_c, 9, 46, 0
6, 10825, Note_on_c, 9, 51, 0
6, 10840, Note_on_c, 9, 36, 44
6, 10850, Note_on_c, 9, 36, 0
6, 10875, Note_on_c, 9, 36, 52
6, 10881, Note_on_c, 9, 51, 40
6, 10887, Note_on_c, 9, 51, 0
6, 10887, Note_on_c, 9, 59, 75
6, 10897, Note_on_c, 9, 59, 0
6, 10904, Note_on_c, 9, 36, 0
6, 10920, Note_on_c, 9, 36, 58
6, 10925, Note_on_c, 9, 51, 67
6, 10953, Note_on_c, 9, 36, 0
6, 10997, Note_on_c, 9, 46, 27
6, 10999, Note_on_c, 9, 51, 0
6, 11008, Note_on_c, 9, 46, 0
6, 11046, Note_on_c, 9, 46, 39
6, 11047, Note_on_c, 9, 51, 57
6, 11059, Note_on_c, 9, 46, 0
6, 11117, Note_on_c, 9, 36, 51
6, 11146, Note_on_c, 9, 36, 0
6, 11150, Note_on_c, 9, 51, 0
6, 11164, Note_on_c, 9, 51, 50
6, 11169, Note_on_c, 9, 36, 40
6, 11201, Note_on_c, 9, 36, 0
6, 11241, Note_on_c, 9, 59, 76
6, 11245, Note_on_c, 9, 46, 34
6, 11247, Note_on_c, 9, 59, 0
6, 11254, Note_on_c, 9, 46, 0
6, 11265, Note_on_c, 9, 51, 0
6, 11281, Note_on_c, 9, 51, 50
6, 11358, Note_on_c, 9, 59, 80
6, 11359, Note_on_c, 9, 46, 44
6, 11359, Note_on_c, 9, 36, 52
6, 11368, Note_on_c, 9, 59, 0
6, 11374, Note_on_c, 9, 46, 0
6, 11377, Note_on_c, 9, 51, 0
6, 11385, Note_on_c, 9, 36, 0
6, 11398, Note_on_c, 9, 51, 52
6, 11405, Note_on_c, 9, 36, 36
6, 11440, Note_on_c, 9, 36, 0
6, 11484, Note_on_c, 9, 51, 0
6, 11512, Note_on_c, 9, 51, 53
6, 11589, Note_on_c, 9, 36, 43
6, 11594, Note_on_c, 9, 59, 78
6, 11609, Note_on_c, 9, 51, 0
6, 11612, Note_on_c, 9, 59, 0
6, 11616, Note_on_c, 9, 36, 0
6, 11632, Note_on_c, 9, 51, 54
6, 11636, Note_on_c, 9, 59, 61
6, 11636, Note_on_c, 9, 36, 48
6, 11650, Note_on_c, 9, 59, 0
6, 11684, Note_on_c, 9, 36, 0
6, 11729, Note_on_c, 9, 51, 0
6, 11752, Note_on_c, 9, 51, 50
6, 11757, Note_on_c, 9, 36, 54
6, 11792, Note_on_c, 9, 36, 0
6, 11830, Note_on_c, 9, 36, 62
6, 11834, Note_on_c, 9, 59, 68
6, 11840, Note_on_c, 9, 59, 0
6, 11861, Note_on_c, 9, 36, 0
6, 11864, Note_on_c, 9, 51, 0
6, 11876, Note_on_c, 9, 51, 44
6, 11880, Note_on_c, 9, 44, 59
6, 11915, Note_on_c, 9, 44, 0
6, 11952, Note_on_c, 9, 51, 0
6, 11952, Note_on_c, 9, 36, 58
6, 11985, Note_on_c, 9, 36, 0
6, 11995, Note_on_c, 9, 51, 41
6, 12002, Note_on_c, 9, 36, 58
6, 12037, Note_on_c, 9, 36, 0
6, 12075, Note_on_c, 9, 46, 59
6, 12080, Note_on_c, 9, 51, 0
6, 12111, Note_on_c, 9, 51, 56
6, 12120, Note_on_c, 9, 44, 45
6, 12122, Note_on_c, 9, 51, 46
6, 12166, Note_on_c, 9, 44, 0
6, 12172, Note_on_c, 9, 51, 0
6, 12184, Note_on_c, 9, 46, 0
6, 12194, Note_on_c, 9, 51, 51
6, 12197, Note_on_c, 9, 36, 60
6, 12212, Note_on_c, 9, 51, 0
6, 12222, Note_on_c, 9, 51, 0
6, 12223, Note_on_c, 9, 36, 0
6, 12237, Note_on_c, 9, 46, 58
6, 12237, Note_on_c, 9, 51, 50
6, 12242, Note_on_c, 9, 51, 45
6, 12296, Note_on_c, 9, 46, 0
6, 12314, Note_on_c, 9, 46, 54
6, 12316, Note_on_c, 9, 53, 85
6, 12319, Note_on_c, 9, 51, 0
6, 12336, Note_on_c, 9, 46, 0
6, 12338, Note_on_c, 9, 51, 0
6, 12339, Note_on_c, 9, 53, 0
6, 12356, Note_on_c, 9, 51, 43
6, 12357, Note_on_c, 9, 51, 24
6, 12360, Note_on_c, 9, 44, 40
6, 12365, Note_on_c, 9, 51, 0
6, 12378, Note_on_c, 9, 53, 27
6, 12387, Note_on_c, 9, 53, 0
6, 12404, Note_on_c, 9, 44, 0
6, 12406, Note_on_c, 9, 53, 70
6, 12421, Note_on_c, 9, 53, 0
6, 12444, Note_on_c, 9, 51, 40
6, 12446, Note_on_c, 9, 51, 0
6, 12451, Note_on_c, 9, 51, 0
6, 12472, Note_on_c, 9, 51, 48
6, 12478, Note_on_c, 9, 51, 54
6, 12509, Note_on_c, 9, 51, 0
6, 12511, Note_on_c, 9, 51, 0
6, 12585, Note_on_c, 9, 51, 44
6, 12600, Note_on_c, 9, 44, 46
6, 12631, Note_on_c, 9, 44, 0
6, 12691, Note_on_c, 9, 51, 0
6, 12709, Note_on_c, 9, 51, 36
6, 12823, Note_on_c, 9, 51, 0
6, 12839, Note_on_c, 9, 51, 51
6, 12840, Note_on_c, 9, 46, 36
6, 12870, Note_on_c, 9, 46, 0
6, 12944, Note_on_c, 9, 51, 0
6, 12962, Note_on_c, 9, 51, 42
6, 13041, Note_on_c, 9, 36, 37
6, 13060, Note_on_c, 9, 51, 0
6, 13076, Note_on_c, 9, 36, 0
6, 13080, Note_on_c, 9, 44, 48
6, 13081, Note_on_c, 9, 51, 51
6, 13106, Note_on_c, 9, 44, 0
6, 13137, Note_on_c, 9, 51, 0
6, 13159, Note_on_c, 9, 51, 62
6, 13189, Note_on_c, 9, 51, 0
6, 13200, Note_on_c, 9, 51, 62
6, 13298, Note_on_c, 9, 51, 0
6, 13320, Note_on_c, 9, 44, 51
6, 13322, Note_on_c, 9, 51, 48
6, 13343, Note_on_c, 9, 44, 0
6, 13366, Note_on_c, 9, 51, 53
6, 13383, Note_on_c, 9, 51, 0
6, 13387, Note_on_c, 9, 51, 0
6, 13400, Note_on_c, 9, 36, 49
6, 13402, Note_on_c, 9, 51, 53
6, 13423, Note_on_c, 9, 36, 0
6, 13428, Note_on_c, 9, 51, 0
6, 13444, Note_on_c, 9, 36, 51
6, 13445, Note_on_c, 9, 51, 42
6, 13484, Note_on_c, 9, 36, 0
6, 13518, Note_on_c, 9, 36, 36
6, 13532, Note_on_c, 9, 36, 0
6, 13541, Note_on_c, 9, 51, 0
6, 13560, Note_on_c, 9, 46, 32
6, 13561, Note_on_c, 9, 51, 40
6, 13592, Note_on_c, 9, 46, 0
6, 13657, Note_on_c, 9, 51, 0
6, 13680, Note_on_c, 9, 51, 39
6, 13753, Note_on_c, 9, 51, 0
6, 13753, Note_on_c, 9, 53, 60
6, 13765, Note_on_c, 9, 53, 0
6, 13790, Note_on_c, 9, 51, 44
6, 13800, Note_on_c, 9, 44, 44
6, 13827, Note_on_c, 9, 44, 0
6, 13884, Note_on_c, 9, 51, 0
6, 13908, Note_on_c, 9, 51, 41
6, 14015, Note_on_c, 9, 51, 0
6, 14036, Note_on_c, 9, 51, 36
6, 14040, Note_on_c, 9, 46, 32
6, 14073, Note_on_c, 9, 46, 0
6, 14075, Note_on_c, 9, 53, 64
6, 14083, Note_on_c, 9, 51, 0
6, 14087, Note_on_c, 9, 53, 0
6, 14120, Note_on_c, 9, 51, 43
6, 14161, Note_on_c, 9, 53, 51
6, 14168, Note_on_c, 9, 51, 0
6, 14191, Note_on_c, 9, 53, 0
6, 14207, Note_on_c, 9, 51, 30
6, 14230, Note_on_c, 9, 51, 0
6, 14250, Note_on_c, 9, 51, 44
6, 14280, Note_on_c, 9, 51, 0
6, 14280, Note_on_c, 9, 44, 86
6, 14280, Note_on_c, 9, 44, 42
6, 14292, Note_on_c, 9, 51, 30
6, 14300, Note_on_c, 9, 44, 0
6, 14300, Note_on_c, 9, 44, 0
6, 14360, Note_on_c, 9, 53, 52
6, 14377, Note_on_c, 9, 51, 0
6, 14386, Note_on_c, 9, 53, 0
6, 14404, Note_on_c, 9, 51, 32
6, 14406, Note_on_c, 9, 36, 28
6, 14424, Note_on_c, 9, 36, 0
6, 14474, Note_on_c, 9, 36, 63
6, 14481, Note_on_c, 9, 51, 0
6, 14507, Note_on_c, 9, 36, 0
6, 14514, Note_on_c, 9, 51, 46
6, 14520, Note_on_c, 9, 44, 71
6, 14520, Note_on_c, 9, 46, 32
6, 14521, Note_on_c, 9, 36, 57
6, 14533, Note_on_c, 9, 44, 0
6, 14553, Note_on_c, 9, 46, 0
6, 14566, Note_on_c, 9, 51, 0
6, 14576, Note_on_c, 9, 36, 0
6, 14588, Note_on_c, 9, 51, 41
6, 14608, Note_on_c, 9, 51, 0
6, 14628, Note_on_c, 9, 51, 30
6, 14705, Note_on_c, 9, 51, 0
6, 14752, Note_on_c, 9, 51, 49
6, 14760, Note_on_c, 9, 44, 63
6, 14760, Note_on_c, 9, 44, 45
6, 14773, Note_on_c, 9, 44, 0
6, 14784, Note_on_c, 9, 44, 0
6, 14840, Note_on_c, 9, 51, 0
6, 14876, Note_on_c, 9, 51, 36
6, 14950, Note_on_c, 9, 53, 65
6, 14952, Note_on_c, 9, 51, 0
6, 14961, Note_on_c, 9, 53, 0
6, 14987, Note_on_c, 9, 51, 39
6, 15000, Note_on_c, 9, 44, 71
6, 15000, Note_on_c, 9, 44, 45
6, 15013, Note_on_c, 9, 44, 0
6, 15020, Note_on_c, 9, 44, 0
6, 15071, Note_on_c, 9, 53, 63
6, 15074, Note_on_c, 9, 51, 0
6, 15081, Note_on_c, 9, 53, 0
6, 15111, Note_on_c, 9, 51, 41
6, 15220, Note_on_c, 9, 51, 0
6, 15236, Note_on_c, 9, 51, 41
6, 15240, Note_on_c, 9, 44, 60
6, 15240, Note_on_c, 9, 44, 46
6, 15251, Note_on_c, 9, 44, 0
6, 15260, Note_on_c, 9, 44, 0
6, 15318, Note_on_c, 9, 36, 41
6, 15338, Note_on_c, 9, 51, 0
6, 15341, Note_on_c, 9, 36, 0
6, 15357, Note_on_c, 9, 51, 40
6, 15366, Note_on_c, 9, 36, 34
6, 15408, Note_on_c, 9, 36, 0
6, 15457, Note_on_c, 9, 51, 0
6, 15479, Note_on_c, 9, 51, 36
6, 15480, Note_on_c, 9, 44, 67
6, 15480, Note_on_c, 9, 44, 52
6, 15493, Note_on_c, 9, 44, 0
6, 15500, Note_on_c, 9, 44, 0
6, 15573, Note_on_c, 9, 51, 0
6, 15601, Note_on_c, 9, 51, 37
6, 15680, Note_on_c, 9, 53, 59
6, 15681, Note_on_c, 9, 51, 0
6, 15691, Note_on_c, 9, 53, 0
6, 15720, Note_on_c, 9, 44, 60
6, 15720, Note_on_c, 9, 44, 52
6, 15722, Note_on_c, 9, 51, 32
6, 15731, Note_on_c, 9, 44, 0
6, 15737, Note_on_c, 9, 44, 0
6, 15799, Note_on_c, 9, 53, 59
6, 15801, Note_on_c, 9, 51, 0
6, 15804, Note_on_c, 9, 53, 0
6, 15805, Note_on_c, 9, 36, 42
6, 15827, Note_on_c, 9, 36, 0
6, 15841, Note_on_c, 9, 51, 33
6, 15850, Note_on_c, 9, 36, 43
6, 15897, Note_on_c, 9, 51, 0
6, 15897, Note_on_c, 9, 36, 0
6, 15919, Note_on_c, 9, 51, 32
6, 15921, Note_on_c, 9, 36, 58
6, 15940, Note_on_c, 9, 51, 0
6, 15960, Note_on_c, 9, 44, 55
6, 15962, Note_on_c, 9, 51, 41
6, 15968, Note_on_c, 9, 44, 0
6, 15977, Note_on_c, 9, 36, 0
6, 16036, Note_on_c, 9, 53, 52
6, 16037, Note_on_c, 9, 51, 0
6, 16055, Note_on_c, 9, 53, 0
6, 16076, Note_on_c, 9, 51, 31
6, 16154, Note_on_c, 9, 53, 48
6, 16157, Note_on_c, 9, 51, 0
6, 16157, Note_on_c, 9, 36, 55
6, 16159, Note_on_c, 9, 53, 0
6, 16193, Note_on_c, 9, 51, 35
6, 16200, Note_on_c, 9, 44, 36
6, 16207, Note_on_c, 9, 44, 0
6, 16217, Note_on_c, 9, 36, 0
6, 16221, Note_on_c, 9, 51, 0
6, 16228, Note_on_c, 9, 53, 42
6, 16236, Note_on_c, 9, 53, 0
6, 16269, Note_on_c, 9, 51, 50
6, 16286, Note_on_c, 9, 51, 0
6, 16312, Note_on_c, 9, 51, 36
6, 16410, Note_on_c, 9, 36, 28
6, 16413, Note_on_c, 9, 51, 0
6, 16425, Note_on_c, 9, 36, 0
6, 16441, Note_on_c, 9, 51, 28
6, 16541, Note_on_c, 9, 51, 0
6, 16564, Note_on_c, 9, 51, 31
6, 16639, Note_on_c, 9, 51, 0
6, 16640, Note_on_c, 9, 53, 42
6, 16655, Note_on_c, 9, 53, 0
6, 16678, Note_on_c, 9, 51, 37
6, 16680, Note_on_c, 9, 44, 63
6, 16692, Note_on_c, 9, 44, 0
6, 16769, Note_on_c, 9, 51, 0
6, 16805, Note_on_c, 9, 51, 40
6, 16885, Note_on_c, 9, 51, 0
6, 16920, Note_on_c, 9, 44, 59
6, 16921, Note_on_c, 9, 51, 38
6, 16930, Note_on_c, 9, 44, 0
6, 16954, Note_on_c, 9, 51, 0
6, 16956, Note_on_c, 9, 53, 47
6, 16968, Note_on_c, 9, 53, 0
6, 16997, Note_on_c, 9, 51, 45
6, 17031, Note_on_c, 9, 51, 0
6, 17034, Note_on_c, 9, 53, 44
6, 17049, Note_on_c, 9, 53, 0
6, 17079, Note_on_c, 9, 51, 39
6, 17091, Note_on_c, 9, 51, 0
6, 17115, Note_on_c, 9, 51, 48
6, 17146, Note_on_c, 9, 51, 0
6, 17151, Note_on_c, 9, 53, 48
6, 17160, Note_on_c, 9, 51, 50
6, 17160, Note_on_c, 9, 44, 69
6, 17173, Note_on_c, 9, 44, 0
6, 17211, Note_on_c, 9, 51, 0
6, 17216, Note_on_c, 9, 53, 0
6, 17235, Note_on_c, 9, 53, 46
6, 17249, Note_on_c, 9, 53, 0
6, 17273, Note_on_c, 9, 51, 36
6, 17352, Note_on_c, 9, 51, 0
6, 17357, Note_on_c, 9, 53, 35
6, 17357, Note_on_c, 9, 36, 31
6, 17360, Note_on_c, 9, 44, 61
6, 17364, Note_on_c, 9, 53, 0
6, 17373, Note_on_c, 9, 44, 0
6, 17375, Note_on_c, 9, 36, 0
6, 17397, Note_on_c, 9, 51, 34
6, 17400, Note_on_c, 9, 44, 60
6, 17402, Note_on_c, 9, 36, 32
6, 17415, Note_on_c, 9, 44, 0
6, 17446, Note_on_c, 9, 51, 0
6, 17447, Note_on_c, 9, 36, 0
6, 17477, Note_on_c, 9, 51, 55
6, 17480, Note_on_c, 9, 36, 45
6, 17501, Note_on_c, 9, 51, 0
6, 17519, Note_on_c, 9, 51, 42
6, 17521, Note_on_c, 9, 36, 0
6, 17600, Note_on_c, 9, 44, 62
6, 17614, Note_on_c, 9, 44, 0
6, 17640, Note_on_c, 9, 44, 53
6, 17653, Note_on_c, 9, 44, 0
6, 17654, Note_on_c, 9, 53, 45
6, 17679, Note_on_c, 9, 51, 0
6, 17724, Note_on_c, 9, 53, 0
6, 17724, Note_on_c, 9, 51, 43
6, 17755, Note_on_c, 9, 51, 0
6, 17774, Note_on_c, 9, 51, 42
6, 17880, Note_on_c, 9, 44, 64
6, 17886, Note_on_c, 9, 53, 55
6, 17892, Note_on_c, 9, 44, 0
6, 17900, Note_on_c, 9, 53, 0
6, 17940, Note_on_c, 9, 51, 0
6, 17959, Note_on_c, 9, 51, 48
6, 17988, Note_on_c, 9, 51, 0
6, 18002, Note_on_c, 9, 51, 53
6, 18120, Note_on_c, 9, 59, 85
6, 18194, Note_on_c, 9, 51, 0
6, 18198, Note_on_c, 9, 36, 36
6, 18200, Note_on_c, 9, 59, 0
6, 18202, Note_on_c, 9, 51, 22
6, 18229, Note_on_c, 9, 36, 0
6, 18240, Note_on_c, 9, 59, 118
6, 18243, Note_on_c, 9, 36, 52
6, 18261, Note_on_c, 9, 51, 0
6, 18309, Note_on_c, 9, 36, 0
6, 18321, Note_on_c, 9, 36, 66
6, 18345, Note_on_c, 9, 59, 0
6, 18360, Note_on_c, 9, 44, 61
6, 18367, Note_on_c, 9, 59, 95
6, 18371, Note_on_c, 9, 44, 0
6, 18375, Note_on_c, 9, 36, 0
6, 18444, Note_on_c, 9, 36, 68
6, 18452, Note_on_c, 9, 51, 56
6, 18461, Note_on_c, 9, 59, 0
6, 18469, Note_on_c, 9, 51, 0
6, 18485, Note_on_c, 9, 59, 91
6, 18486, Note_on_c, 9, 36, 0
6, 18494, Note_on_c, 9, 51, 7
6, 18501, Note_on_c, 9, 51, 0
6, 18575, Note_on_c, 9, 59, 0
6, 18600, Note_on_c, 9, 44, 81
6, 18604, Note_on_c, 9, 59, 90
6, 18614, Note_on_c, 9, 44, 0
6, 18670, Note_on_c, 9, 59, 0
6, 18692, Note_on_c, 9, 59, 60
6, 18706, Note_on_c, 9, 59, 0
6, 18719, Note_on_c, 9, 59, 80
6, 18805, Note_on_c, 9, 59, 0
6, 18839, Note_on_c, 9, 46, 65
6, 18840, Note_on_c, 9, 59, 95
6, 18854, Note_on_c, 9, 46, 0
6, 18908, Note_on_c, 9, 59, 0
6, 18932, Note_on_c, 9, 59, 54
6, 18947, Note_on_c, 9, 59, 0
6, 18959, Note_on_c, 9, 59, 78
6, 19005, Note_on_c, 9, 51, 25
6, 19012, Note_on_c, 9, 51, 0
6, 19042, Note_on_c, 9, 51, 15
6, 19043, Note_on_c, 9, 59, 0
6, 19054, Note_on_c, 9, 51, 0
6, 19078, Note_on_c, 9, 59, 96
6, 19080, Note_on_c, 9, 51, 31
6, 19080, Note_on_c, 9, 44, 76
6, 19088, Note_on_c, 9, 51, 0
6, 19104, Note_on_c, 9, 59, 0
6, 19110, Note_on_c, 9, 44, 0
6, 19115, Note_on_c, 9, 59, 69
6, 19128, Note_on_c, 9, 59, 0
6, 19155, Note_on_c, 9, 59, 95
6, 19158, Note_on_c, 9, 36, 42
6, 19184, Note_on_c, 9, 36, 0
6, 19202, Note_on_c, 9, 36, 42
6, 19235, Note_on_c, 9, 59, 0
6, 19242, Note_on_c, 9, 59, 53
6, 19257, Note_on_c, 9, 59, 0
6, 19264, Note_on_c, 9, 36, 0
6, 19274, Note_on_c, 9, 59, 92
6, 19279, Note_on_c, 9, 36, 53
6, 19303, Note_on_c, 9, 59, 0
6, 19318, Note_on_c, 9, 59, 95
6, 19320, Note_on_c, 9, 44, 59
6, 19320, Note_on_c, 9, 36, 0
6, 19337, Note_on_c, 9, 44, 0
6, 19359, Note_on_c, 9, 37, 30
6, 19365, Note_on_c, 9, 37, 0
6, 19400, Note_on_c, 9, 59, 0
6, 19438, Note_on_c, 9, 59, 96
6, 19511, Note_on_c, 9, 59, 0
6, 19560, Note_on_c, 9, 59, 85
6, 19565, Note_on_c, 9, 60, 26
6, 19570, Note_on_c, 9, 60, 0
6, 19631, Note_on_c, 9, 59, 0
6, 19642, Note_on_c, 9, 40, 33
6, 19648, Note_on_c, 9, 40, 0
6, 19649, Note_on_c, 9, 36, 57
6, 19674, Note_on_c, 9, 36, 0
6, 19682, Note_on_c, 9, 59, 89
6, 19689, Note_on_c, 9, 36, 53
6, 19726, Note_on_c, 9, 36, 0
6, 19758, Note_on_c, 9, 59, 0
6, 19800, Note_on_c, 9, 44, 81
6, 19804, Note_on_c, 9, 59, 92
6, 19830, Note_on_c, 9, 44, 0
6, 19858, Note_on_c, 9, 59, 0
6, 19887, Note_on_c, 9, 59, 53
6, 19899, Note_on_c, 9, 59, 0
6, 19918, Note_on_c, 9, 59, 91
6, 20001, Note_on_c, 9, 59, 0
6, 20007, Note_on_c, 9, 40, 43
6, 20018, Note_on_c, 9, 40, 0
6, 20040, Note_on_c, 9, 44, 54
6, 20043, Note_on_c, 9, 59, 95
6, 20049, Note_on_c, 9, 44, 0
6, 20084, Note_on_c, 9, 51, 87
6, 20102, Note_on_c, 9, 51, 0
6, 20104, Note_on_c, 9, 59, 0
6, 20123, Note_on_c, 9, 40, 51
6, 20139, Note_on_c, 9, 40, 0
6, 20158, Note_on_c, 9, 59, 91
6, 20213, Note_on_c, 9, 59, 0
6, 20248, Note_on_c, 9, 59, 45
6, 20254, Note_on_c, 9, 59, 0
6, 20274, Note_on_c, 9, 59, 92
6, 20280, Note_on_c, 9, 44, 67
6, 20290, Note_on_c, 9, 44, 0
6, 20345, Note_on_c, 9, 59, 0
6, 20397, Note_on_c, 9, 59, 95
6, 20468, Note_on_c, 9, 59, 0
6, 20516, Note_on_c, 9, 59, 89
6, 20520, Note_on_c, 9, 44, 67
6, 20532, Note_on_c, 9, 44, 0
6, 20545, Note_on_c, 9, 59, 0
6, 20602, Note_on_c, 9, 59, 65
6, 20614, Note_on_c, 9, 59, 0
6, 20632, Note_on_c, 9, 59, 80
6, 20704, Note_on_c, 9, 59, 0
6, 20758, Note_on_c, 9, 59, 96
6, 20760, Note_on_c, 9, 44, 64
6, 20770, Note_on_c, 9, 59, 0
6, 20772, Note_on_c, 9, 44, 0
6, 20845, Note_on_c, 9, 59, 70
6, 20857, Note_on_c, 9, 59, 0
6, 20881, Note_on_c, 9, 59, 85
6, 20924, Note_on_c, 9, 47, 40
6, 20929, Note_on_c, 9, 47, 0
6, 20935, Note_on_c, 9, 59, 0
6, 21000, Note_on_c, 9, 44, 83
6, 21003, Note_on_c, 9, 59, 89
6, 21014, Note_on_c, 9, 59, 0
6, 21014, Note_on_c, 9, 44, 0
6, 21041, Note_on_c, 9, 59, 61
6, 21050, Note_on_c, 9, 51, 18
6, 21058, Note_on_c, 9, 51, 0
6, 21060, Note_on_c, 9, 59, 0
6, 21083, Note_on_c, 9, 53, 55
6, 21114, Note_on_c, 9, 53, 0
6, 21125, Note_on_c, 9, 57, 51
6, 21126, Note_on_c, 9, 59, 87
6, 21126, Note_on_c, 9, 59, 15
6, 21133, Note_on_c, 9, 59, 0
6, 21133, Note_on_c, 9, 36, 26
6, 21136, Note_on_c, 9, 57, 0
6, 21141, Note_on_c, 9, 59, 0
6, 21161, Note_on_c, 9, 59, 66
6, 21176, Note_on_c, 9, 59, 0
6, 21194, Note_on_c, 9, 36, 0
6, 21206, Note_on_c, 9, 36, 44
6, 21240, Note_on_c, 9, 44, 83
6, 21246, Note_on_c, 9, 59, 89
6, 21252, Note_on_c, 9, 36, 0
6, 21256, Note_on_c, 9, 44, 0
6, 21264, Note_on_c, 9, 59, 0
6, 21361, Note_on_c, 9, 59, 84
6, 21391, Note_on_c, 9, 59, 0
6, 21480, Note_on_c, 9, 44, 83
6, 21482, Note_on_c, 9, 59, 88
6, 21492, Note_on_c, 9, 51, 24
6, 21497, Note_on_c, 9, 44, 0
6, 21499, Note_on_c, 9, 51, 0
6, 21500, Note_on_c, 9, 59, 0
6, 21528, Note_on_c, 9, 51, 25
6, 21533, Note_on_c, 9, 51, 0
6, 21565, Note_on_c, 9, 59, 73
6, 21587, Note_on_c, 9, 59, 0
6, 21601, Note_on_c, 9, 59, 63
6, 21652, Note_on_c, 9, 59, 0
6, 21681, Note_on_c, 9, 59, 101
6, 21711, Note_on_c, 9, 59, 0
6, 21720, Note_on_c, 9, 44, 84
6, 21729, Note_on_c, 9, 59, 65
6, 21737, Note_on_c, 9, 44, 0
6, 21777, Note_on_c, 9, 59, 0
6, 21802, Note_on_c, 9, 40, 31
6, 21805, Note_on_c, 9, 59, 105
6, 21808, Note_on_c, 9, 40, 0
6, 21845, Note_on_c, 9, 40, 31
6, 21850, Note_on_c, 9, 40, 0
6, 21906, Note_on_c, 9, 59, 0
6, 21929, Note_on_c, 9, 59, 84
6, 21966, Note_on_c, 9, 46, 62
6, 21985, Note_on_c, 9, 46, 0
6, 22001, Note_on_c, 9, 59, 0
6, 22011, Note_on_c, 9, 59, 70
6, 22022, Note_on_c, 9, 59, 0
6, 22047, Note_on_c, 9, 40, 50
6, 22049, Note_on_c, 9, 59, 90
6, 22052, Note_on_c, 9, 36, 60
6, 22070, Note_on_c, 9, 59, 0
6, 22073, Note_on_c, 9, 40, 0
6, 22087, Note_on_c, 9, 57, 41
6, 22089, Note_on_c, 9, 36, 0
6, 22092, Note_on_c, 9, 57, 0
6, 22093, Note_on_c, 9, 59, 99
6, 22101, Note_on_c, 9, 36, 54
6, 22153, Note_on_c, 9, 59, 0
6, 22160, Note_on_c, 9, 36, 0
6, 22171, Note_on_c, 9, 36, 75
6, 22173, Note_on_c, 9, 59, 62
6, 22179, Note_on_c, 9, 59, 0
6, 22200, Note_on_c, 9, 44, 74
6, 22214, Note_on_c, 9, 44, 0
6, 22215, Note_on_c, 9, 59, 108
6, 22220, Note_on_c, 9, 36, 0
6, 22292, Note_on_c, 9, 59, 0
6, 22332, Note_on_c, 9, 59, 101
6, 22368, Note_on_c, 9, 40, 4
6, 22374, Note_on_c, 9, 40, 0
6, 22400, Note_on_c, 9, 59, 0
6, 22403, Note_on_c, 9, 40, 4
6, 22419, Note_on_c, 9, 40, 0
6, 22440, Note_on_c, 9, 44, 72
6, 22448, Note_on_c, 9, 59, 91
6, 22455, Note_on_c, 9, 44, 0
6, 22461, Note_on_c, 9, 59, 0
6, 22518, Note_on_c, 9, 40, 49
6, 22520, Note_on_c, 9, 57, 54
6, 22523, Note_on_c, 9, 59, 94
6, 22532, Note_on_c, 9, 57, 0
6, 22537, Note_on_c, 9, 59, 0
6, 22563, Note_on_c, 9, 40, 0
6, 22564, Note_on_c, 9, 59, 67
6, 22583, Note_on_c, 9, 59, 0
6, 22639, Note_on_c, 9, 59, 101
6, 22657, Note_on_c, 9, 59, 0
6, 22680, Note_on_c, 9, 44, 69
6, 22683, Note_on_c, 9, 59, 87
6, 22695, Note_on_c, 9, 44, 0
6, 22713, Note_on_c, 9, 59, 0
6, 22717, Note_on_c, 9, 40, 38
6, 22722, Note_on_c, 9, 40, 0
6, 22759, Note_on_c, 9, 59, 61
6, 22773, Note_on_c, 9, 59, 0
6, 22804, Note_on_c, 9, 59, 71
6, 22809, Note_on_c, 9, 59, 0
6, 22841, Note_on_c, 9, 53, 33
6, 22842, Note_on_c, 9, 59, 113
6, 22863, Note_on_c, 9, 53, 0
6, 22879, Note_on_c, 9, 36, 34
6, 22900, Note_on_c, 9, 36, 0
6, 22901, Note_on_c, 9, 59, 0
6, 22920, Note_on_c, 9, 44, 69
6, 22920, Note_on_c, 9, 36, 37
6, 22926, Note_on_c, 9, 59, 58
6, 22932, Note_on_c, 9, 59, 0
6, 22934, Note_on_c, 9, 44, 0
6, 22958, Note_on_c, 9, 40, 22
6, 22959, Note_on_c, 9, 59, 64
6, 22964, Note_on_c, 9, 40, 0
6, 22965, Note_on_c, 9, 59, 0
6, 22978, Note_on_c, 9, 36, 0
6, 22996, Note_on_c, 9, 59, 103
6, 22996, Note_on_c, 9, 36, 36
6, 23021, Note_on_c, 9, 36, 0
6, 23049, Note_on_c, 9, 59, 0
6, 23060, Note_on_c, 9, 59, 64
6, 23069, Note_on_c, 9, 59, 0
6, 23156, Note_on_c, 9, 59, 91
6, 23158, Note_on_c, 9, 46, 53
6, 23168, Note_on_c, 9, 59, 0
6, 23175, Note_on_c, 9, 46, 0
6, 23239, Note_on_c, 9, 59, 76
6, 23252, Note_on_c, 9, 59, 0
6, 23278, Note_on_c, 9, 59, 81
6, 23293, Note_on_c, 9, 59, 0
6, 23360, Note_on_c, 9, 44, 71
6, 23386, Note_on_c, 9, 44, 0
6, 23397, Note_on_c, 9, 59, 92
6, 23400, Note_on_c, 9, 44, 60
6, 23401, Note_on_c, 9, 61, 38
6, 23406, Note_on_c, 9, 61, 0
6, 23408, Note_on_c, 9, 59, 0
6, 23422, Note_on_c, 9, 44, 0
6, 23438, Note_on_c, 9, 37, 11
6, 23453, Note_on_c, 9, 37, 0
6, 23481, Note_on_c, 9, 59, 70
6, 23493, Note_on_c, 9, 59, 0
6, 23520, Note_on_c, 9, 59, 83
6, 23537, Note_on_c, 9, 59, 0
6, 23640, Note_on_c, 9, 44, 67
6, 23641, Note_on_c, 9, 59, 88
6, 23655, Note_on_c, 9, 59, 0
6, 23656, Note_on_c, 9, 44, 0
6, 23765, Note_on_c, 9, 59, 89
6, 23768, Note_on_c, 9, 40, 44
6, 23777, Note_on_c, 9, 59, 0
6, 23780, Note_on_c, 9, 40, 0
6, 23792, Note_on_c, 9, 40, 28
6, 23798, Note_on_c, 9, 40, 0
6, 23809, Note_on_c, 9, 45, 72
6, 23838, Note_on_c, 9, 45, 0
6, 23846, Note_on_c, 9, 53, 36
6, 23848, Note_on_c, 9, 59, 62
6, 23854, Note_on_c, 9, 59, 0
6, 23861, Note_on_c, 9, 53, 0
6, 23885, Note_on_c, 9, 46, 52
6, 23886, Note_on_c, 9, 59, 84
6, 23887, Note_on_c, 9, 40, 46
6, 23890, Note_on_c, 9, 43, 44
6, 23896, Note_on_c, 9, 40, 0
6, 23902, Note_on_c, 9, 46, 0
6, 23911, Note_on_c, 9, 43, 0
6, 23926, Note_on_c, 9, 37, 22
6, 23931, Note_on_c, 9, 53, 33
6, 23932, Note_on_c, 9, 37, 0
6, 23948, Note_on_c, 9, 59, 0
6, 23949, Note_on_c, 9, 53, 0
6, 23958, Note_on_c, 9, 57, 61
6, 23959, Note_on_c, 9, 53, 61
6, 23961, Note_on_c, 9, 41, 30
6, 23961, Note_on_c, 9, 40, 32
6, 23967, Note_on_c, 9, 53, 0
6, 23971, Note_on_c, 9, 36, 59
6, 23989, Note_on_c, 9, 41, 0
6, 23995, Note_on_c, 9, 40, 0
6, 23995, Note_on_c, 9, 36, 0
6, 24004, Note_on_c, 9, 59, 57
6, 24006, Note_on_c, 9, 57, 70
6, 24008, Note_on_c, 9, 36, 66
6, 24028, Note_on_c, 9, 57, 0
6, 24049, Note_on_c, 9, 36, 0
6, 24063, Note_on_c, 9, 59, 0
6, 24086, Note_on_c, 9, 59, 71
6, 24092, Note_on_c, 9, 59, 0
6, 24100, Note_on_c, 9, 57, 0
6, 24120, Note_on_c, 9, 44, 75
6, 24127, Note_on_c, 9, 59, 95
6, 24139, Note_on_c, 9, 44, 0
6, 24141, Note_on_c, 9, 59, 0
6, 24171, Note_on_c, 9, 40, 45
6, 24184, Note_on_c, 9, 40, 0
6, 24206, Note_on_c, 9, 37, 50
6, 24208, Note_on_c, 9, 53, 49
6, 24209, Note_on_c, 9, 40, 42
6, 24212, Note_on_c, 9, 59, 71
6, 24214, Note_on_c, 9, 40, 0
6, 24220, Note_on_c, 9, 37, 0
6, 24221, Note_on_c, 9, 59, 0
6, 24238, Note_on_c, 9, 53, 0
6, 24246, Note_on_c, 9, 57, 59
6, 24248, Note_on_c, 9, 40, 56
6, 24251, Note_on_c, 9, 36, 31
6, 24257, Note_on_c, 9, 59, 77
6, 24258, Note_on_c, 9, 57, 0
6, 24259, Note_on_c, 9, 40, 0
6, 24263, Note_on_c, 9, 59, 0
6, 24312, Note_on_c, 9, 36, 0
6, 24325, Note_on_c, 9, 36, 64
6, 24359, Note_on_c, 9, 36, 0
6, 24360, Note_on_c, 9, 44, 63
6, 24372, Note_on_c, 9, 44, 0
6, 24377, Note_on_c, 9, 59, 81
6, 24389, Note_on_c, 9, 59, 0
6, 24488, Note_on_c, 9, 59, 81
6, 24500, Note_on_c, 9, 59, 0
6, 24572, Note_on_c, 9, 59, 57
6, 24578, Note_on_c, 9, 59, 0
6, 24600, Note_on_c, 9, 44, 71
6, 24613, Note_on_c, 9, 59, 85
6, 24616, Note_on_c, 9, 44, 0
6, 24654, Note_on_c, 9, 59, 0
6, 24728, Note_on_c, 9, 59, 81
6, 24743, Note_on_c, 9, 59, 0
6, 24767, Note_on_c, 9, 53, 55
6, 24790, Note_on_c, 9, 53, 0
6, 24840, Note_on_c, 9, 44, 64
6, 24851, Note_on_c, 9, 44, 0
6, 24855, Note_on_c, 9, 59, 82
6, 24869, Note_on_c, 9, 59, 0
6, 24888, Note_on_c, 9, 53, 58
6, 24922, Note_on_c, 9, 40, 35
6, 24928, Note_on_c, 9, 40, 0
6, 24932, Note_on_c, 9, 53, 0
6, 24969, Note_on_c, 9, 59, 75
6, 24984, Note_on_c, 9, 59, 0
6, 25004, Note_on_c, 9, 53, 60
6, 25042, Note_on_c, 9, 53, 0
6, 25080, Note_on_c, 9, 44, 69
6, 25091, Note_on_c, 9, 59, 80
6, 25094, Note_on_c, 9, 44, 0
6, 25106, Note_on_c, 9, 59, 0
6, 25122, Note_on_c, 9, 53, 52
6, 25158, Note_on_c, 9, 53, 0
6, 25208, Note_on_c, 9, 59, 87
6, 25222, Note_on_c, 9, 59, 0
6, 25289, Note_on_c, 9, 59, 50
6, 25295, Note_on_c, 9, 59, 0
6, 25320, Note_on_c, 9, 59, 82
6, 25322, Note_on_c, 9, 46, 47
6, 25335, Note_on_c, 9, 46, 0
6, 25385, Note_on_c, 9, 59, 0
6, 25401, Note_on_c, 9, 53, 62
6, 25404, Note_on_c, 9, 37, 36
6, 25413, Note_on_c, 9, 37, 0
6, 25433, Note_on_c, 9, 53, 0
6, 25445, Note_on_c, 9, 59, 63
6, 25507, Note_on_c, 9, 59, 0
6, 25560, Note_on_c, 9, 44, 71
6, 25568, Note_on_c, 9, 59, 80
6, 25572, Note_on_c, 9, 44, 0
6, 25614, Note_on_c, 9, 59, 0
6, 25658, Note_on_c, 9, 59, 61
6, 25670, Note_on_c, 9, 59, 0
6, 25689, Note_on_c, 9, 59, 73
6, 25736, Note_on_c, 9, 40, 16
6, 25742, Note_on_c, 9, 40, 0
6, 25748, Note_on_c, 9, 59, 0
6, 25797, Note_on_c, 9, 59, 84
6, 25800, Note_on_c, 9, 44, 72
6, 25807, Note_on_c, 9, 40, 35
6, 25813, Note_on_c, 9, 40, 0
6, 25814, Note_on_c, 9, 44, 0
6, 25816, Note_on_c, 9, 59, 0
6, 25882, Note_on_c, 9, 40, 42
6, 25894, Note_on_c, 9, 36, 38
6, 25895, Note_on_c, 9, 40, 0
6, 25922, Note_on_c, 9, 36, 0
6, 25923, Note_on_c, 9, 59, 82
6, 25936, Note_on_c, 9, 59, 0
6, 25939, Note_on_c, 9, 36, 32
6, 25998, Note_on_c, 9, 36, 0
6, 26013, Note_on_c, 9, 36, 44
6, 26040, Note_on_c, 9, 44, 69
6, 26048, Note_on_c, 9, 59, 80
6, 26053, Note_on_c, 9, 36, 0
6, 26056, Note_on_c, 9, 44, 0
6, 26060, Note_on_c, 9, 59, 0
6, 26127, Note_on_c, 9, 53, 74
6, 26148, Note_on_c, 9, 53, 0
6, 26170, Note_on_c, 9, 59, 53
6, 26246, Note_on_c, 9, 59, 0
6, 26252, Note_on_c, 9, 36, 30
6, 26280, Note_on_c, 9, 44, 69
6, 26287, Note_on_c, 9, 59, 77
6, 26297, Note_on_c, 9, 44, 0
6, 26299, Note_on_c, 9, 59, 0
6, 26330, Note_on_c, 9, 36, 0
6, 26369, Note_on_c, 9, 53, 62
6, 26374, Note_on_c, 9, 53, 0
6, 26409, Note_on_c, 9, 59, 53
6, 26423, Note_on_c, 9, 59, 0
6, 26440, Note_on_c, 9, 59, 13
6, 26464, Note_on_c, 9, 59, 0
6, 26523, Note_on_c, 9, 59, 76
6, 26523, Note_on_c, 9, 46, 51
6, 26532, Note_on_c, 9, 59, 0
6, 26539, Note_on_c, 9, 46, 0
6, 26561, Note_on_c, 9, 59, 40
6, 26568, Note_on_c, 9, 59, 0
6, 26599, Note_on_c, 9, 53, 78
6, 26611, Note_on_c, 9, 53, 0
6, 26639, Note_on_c, 9, 59, 57
6, 26648, Note_on_c, 9, 59, 0
6, 26722, Note_on_c, 9, 59, 74
6, 26722, Note_on_c, 9, 36, 25
6, 26729, Note_on_c, 9, 59, 0
6, 26745, Note_on_c, 9, 36, 0
6, 26760, Note_on_c, 9, 44, 69
6, 26771, Note_on_c, 9, 59, 62
6, 26772, Note_on_c, 9, 36, 25
6, 26775, Note_on_c, 9, 44, 0
6, 26780, Note_on_c, 9, 59, 0
6, 26788, Note_on_c, 9, 36, 0
6, 26801, Note_on_c, 9, 53, 69
6, 26809, Note_on_c, 9, 53, 0
6, 26809, Note_on_c, 9, 40, 20
6, 26816, Note_on_c, 9, 40, 0
6, 26838, Note_on_c, 9, 53, 60
6, 26840, Note_on_c, 9, 59, 63
6, 26844, Note_on_c, 9, 40, 43
6, 26849, Note_on_c, 9, 40, 0
6, 26861, Note_on_c, 9, 59, 0
6, 26869, Note_on_c, 9, 53, 0
6, 26883, Note_on_c, 9, 36, 32
6, 26885, Note_on_c, 9, 59, 69
6, 26900, Note_on_c, 9, 59, 0
6, 26914, Note_on_c, 9, 36, 0
6, 26922, Note_on_c, 9, 59, 57
6, 26931, Note_on_c, 9, 59, 0
6, 26960, Note_on_c, 9, 36, 26
6, 26967, Note_on_c, 9, 59, 103
6, 26983, Note_on_c, 9, 36, 0
6, 27000, Note_on_c, 9, 44, 74
6, 27017, Note_on_c, 9, 44, 0
6, 27067, Note_on_c, 9, 59, 0
6, 27089, Note_on_c, 9, 59, 64
6, 27102, Note_on_c, 9, 59, 0
6, 27128, Note_on_c, 9, 59, 75
6, 27199, Note_on_c, 9, 59, 0
6, 27203, Note_on_c, 9, 53, 88
6, 27223, Note_on_c, 9, 53, 0
6, 27240, Note_on_c, 9, 44, 75
6, 27244, Note_on_c, 9, 59, 53
6, 27258, Note_on_c, 9, 44, 0
6, 27317, Note_on_c, 9, 59, 0
6, 27363, Note_on_c, 9, 59, 80
6, 27431, Note_on_c, 9, 59, 0
6, 27479, Note_on_c, 9, 59, 54
6, 27480, Note_on_c, 9, 44, 73
6, 27498, Note_on_c, 9, 44, 0
6, 27499, Note_on_c, 9, 59, 0
6, 27560, Note_on_c, 9, 59, 71
6, 27568, Note_on_c, 9, 40, 21
6, 27573, Note_on_c, 9, 59, 0
6, 27575, Note_on_c, 9, 40, 0
6, 27681, Note_on_c, 9, 59, 45
6, 27687, Note_on_c, 9, 40, 45
6, 27690, Note_on_c, 9, 59, 0
6, 27692, Note_on_c, 9, 40, 0
6, 27720, Note_on_c, 9, 44, 74
6, 27727, Note_on_c, 9, 59, 62
6, 27734, Note_on_c, 9, 59, 0
6, 27735, Note_on_c, 9, 44, 0
6, 27802, Note_on_c, 9, 59, 118
6, 27808, Note_on_c, 9, 40, 56
6, 27809, Note_on_c, 9, 53, 35
6, 27815, Note_on_c, 9, 59, 0
6, 27835, Note_on_c, 9, 53, 0
6, 27836, Note_on_c, 9, 40, 0
6, 27851, Note_on_c, 9, 59, 79
6, 27854, Note_on_c, 9, 57, 39
6, 27859, Note_on_c, 9, 36, 17
6, 27860, Note_on_c, 9, 57, 0
6, 27865, Note_on_c, 9, 59, 0
6, 27911, Note_on_c, 9, 36, 0
6, 27929, Note_on_c, 9, 59, 49
6, 27931, Note_on_c, 9, 36, 48
6, 27946, Note_on_c, 9, 59, 0
6, 27960, Note_on_c, 9, 44, 74
6, 27964, Note_on_c, 9, 36, 0
6, 27976, Note_on_c, 9, 36, 54
6, 27977, Note_on_c, 9, 44, 0
6, 27978, Note_on_c, 9, 59, 66
6, 27986, Note_on_c, 9, 59, 0
6, 28014, Note_on_c, 9, 40, 18
6, 28015, Note_on_c, 9, 59, 71
6, 28020, Note_on_c, 9, 40, 0
6, 28021, Note_on_c, 9, 59, 0
6, 28032, Note_on_c, 9, 36, 0
6, 28050, Note_on_c, 9, 40, 38
6, 28051, Note_on_c, 9, 53, 82
6, 28053, Note_on_c, 9, 59, 84
6, 28061, Note_on_c, 9, 40, 0
6, 28071, Note_on_c, 9, 59, 0
6, 28074, Note_on_c, 9, 53, 0
6, 28089, Note_on_c, 9, 40, 54
6, 28100, Note_on_c, 9, 40, 0
6, 28126, Note_on_c, 9, 40, 18
6, 28128, Note_on_c, 9, 53, 31
6, 28134, Note_on_c, 9, 59, 69
6, 28139, Note_on_c, 9, 40, 0
6, 28141, Note_on_c, 9, 59, 0
6, 28151, Note_on_c, 9, 53, 0
6, 28167, Note_on_c, 9, 36, 37
6, 28172, Note_on_c, 9, 59, 71
6, 28185, Note_on_c, 9, 59, 0
6, 28194, Note_on_c, 9, 36, 0
6, 28200, Note_on_c, 9, 44, 73
6, 28211, Note_on_c, 9, 53, 81
6, 28211, Note_on_c, 9, 36, 60
6, 28214, Note_on_c, 9, 59, 84
6, 28216, Note_on_c, 9, 44, 0
6, 28232, Note_on_c, 9, 59, 0
6, 28237, Note_on_c, 9, 53, 0
6, 28243, Note_on_c, 9, 36, 0
6, 28246, Note_on_c, 9, 40, 44
6, 28250, Note_on_c, 9, 59, 60
6, 28253, Note_on_c, 9, 36, 79
6, 28258, Note_on_c, 9, 59, 0
6, 28261, Note_on_c, 9, 40, 0
6, 28278, Note_on_c, 9, 36, 0
6, 28287, Note_on_c, 9, 53, 87
6, 28288, Note_on_c, 9, 36, 77
6, 28289, Note_on_c, 9, 59, 89
6, 28320, Note_on_c, 9, 59, 0
6, 28322, Note_on_c, 9, 53, 0
6, 28326, Note_on_c, 9, 57, 51
6, 28328, Note_on_c, 9, 36, 0
6, 28328, Note_on_c, 9, 40, 32
6, 28334, Note_on_c, 9, 57, 0
6, 28357, Note_on_c, 9, 40, 0
6, 28369, Note_on_c, 9, 59, 49
6, 28376, Note_on_c, 9, 59, 0
6, 28404, Note_on_c, 9, 59, 62
6, 28412, Note_on_c, 9, 59, 0
6, 28521, Note_on_c, 9, 59, 71
6, 28540, Note_on_c, 9, 59, 0
6, 28564, Note_on_c, 9, 59, 74
6, 28595, Note_on_c, 9, 59, 0
6, 28680, Note_on_c, 9, 44, 71
6, 28681, Note_on_c, 9, 59, 83
6, 28695, Note_on_c, 9, 44, 0
6, 28700, Note_on_c, 9, 59, 0
6, 28760, Note_on_c, 9, 59, 56
6, 28772, Note_on_c, 9, 59, 0
6, 28801, Note_on_c, 9, 59, 72
6, 28880, Note_on_c, 9, 44, 63
6, 28883, Note_on_c, 9, 59, 0
6, 28905, Note_on_c, 9, 44, 0
6, 28920, Note_on_c, 9, 44, 57
6, 28925, Note_on_c, 9, 59, 80
6, 28940, Note_on_c, 9, 44, 0
6, 28948, Note_on_c, 9, 59, 0
6, 29008, Note_on_c, 9, 45, 64
6, 29014, Note_on_c, 9, 59, 64
6, 29019, Note_on_c, 9, 59, 0
6, 29023, Note_on_c, 9, 45, 0
6, 29050, Note_on_c, 9, 59, 80
6, 29056, Note_on_c, 9, 53, 19
6, 29058, Note_on_c, 9, 40, 7
6, 29062, Note_on_c, 9, 59, 0
6, 29064, Note_on_c, 9, 40, 0
6, 29072, Note_on_c, 9, 53, 0
6, 29105, Note_on_c, 9, 40, 35
6, 29110, Note_on_c, 9, 40, 0
6, 29123, Note_on_c, 9, 45, 57
6, 29137, Note_on_c, 9, 45, 0
6, 29163, Note_on_c, 9, 40, 44
6, 29168, Note_on_c, 9, 46, 45
6, 29172, Note_on_c, 9, 59, 78
6, 29179, Note_on_c, 9, 40, 0
6, 29182, Note_on_c, 9, 46, 0
6, 29184, Note_on_c, 9, 59, 0
6, 29190, Note_on_c, 9, 40, 40
6, 29198, Note_on_c, 9, 40, 0
6, 29248, Note_on_c, 9, 59, 77
6, 29260, Note_on_c, 9, 59, 0
6, 29360, Note_on_c, 9, 44, 65
6, 29366, Note_on_c, 9, 59, 34
6, 29368, Note_on_c, 9, 45, 43
6, 29371, Note_on_c, 9, 44, 0
6, 29373, Note_on_c, 9, 59, 0
6, 29384, Note_on_c, 9, 45, 0
6, 29401, Note_on_c, 9, 59, 81
6, 29460, Note_on_c, 9, 59, 0
6, 29480, Note_on_c, 9, 44, 64
6, 29481, Note_on_c, 9, 53, 25
6, 29483, Note_on_c, 9, 59, 71
6, 29492, Note_on_c, 9, 44, 0
6, 29503, Note_on_c, 9, 53, 0
6, 29536, Note_on_c, 9, 59, 0
6, 29600, Note_on_c, 9, 44, 69
6, 29600, Note_on_c, 9, 59, 68
6, 29601, Note_on_c, 9, 53, 25
6, 29611, Note_on_c, 9, 44, 0
6, 29614, Note_on_c, 9, 59, 0
6, 29626, Note_on_c, 9, 53, 0
6, 29644, Note_on_c, 9, 59, 60
6, 29672, Note_on_c, 9, 59, 0
6, 29680, Note_on_c, 9, 53, 57
6, 29715, Note_on_c, 9, 46, 54
6, 29719, Note_on_c, 9, 36, 35
6, 29727, Note_on_c, 9, 46, 0
6, 29735, Note_on_c, 9, 53, 0
6, 29740, Note_on_c, 9, 36, 0
6, 29763, Note_on_c, 9, 36, 49
6, 29763, Note_on_c, 9, 46, 51
6, 29767, Note_on_c, 9, 59, 68
6, 29770, Note_on_c, 9, 46, 0
6, 29787, Note_on_c, 9, 59, 0
6, 29793, Note_on_c, 9, 36, 0
6, 29805, Note_on_c, 9, 53, 71
6, 29840, Note_on_c, 9, 44, 69
6, 29851, Note_on_c, 9, 44, 0
6, 29854, Note_on_c, 9, 53, 0
6, 29885, Note_on_c, 9, 59, 71
6, 29887, Note_on_c, 9, 37, 45
6, 29892, Note_on_c, 9, 37, 0
6, 29906, Note_on_c, 9, 59, 0
6, 29933, Note_on_c, 9, 53, 43
6, 29946, Note_on_c, 9, 53, 0
6, 29960, Note_on_c, 9, 44, 68
6, 29961, Note_on_c, 9, 37, 45
6, 29967, Note_on_c, 9, 37, 0
6, 29969, Note_on_c, 9, 59, 82
6, 29971, Note_on_c, 9, 44, 0
6, 30034, Note_on_c, 9, 59, 0
6, 30042, Note_on_c, 9, 53, 51
6, 30064, Note_on_c, 9, 53, 0
6, 30080, Note_on_c, 9, 44, 71
6, 30082, Note_on_c, 9, 53, 56
6, 30084, Note_on_c, 9, 59, 55
6, 30093, Note_on_c, 9, 44, 0
6, 30097, Note_on_c, 9, 59, 0
6, 30118, Note_on_c, 9, 53, 0
6, 30126, Note_on_c, 9, 59, 81
6, 30127, Note_on_c, 9, 40, 27
6, 30129, Note_on_c, 9, 36, 31
6, 30133, Note_on_c, 9, 40, 0
6, 30182, Note_on_c, 9, 36, 0
6, 30188, Note_on_c, 9, 59, 0
6, 30200, Note_on_c, 9, 44, 68
6, 30200, Note_on_c, 9, 36, 56
6, 30210, Note_on_c, 9, 59, 81
6, 30212, Note_on_c, 9, 44, 0
6, 30233, Note_on_c, 9, 59, 0
6, 30245, Note_on_c, 9, 36, 0
6, 30254, Note_on_c, 9, 59, 62
6, 30319, Note_on_c, 9, 59, 0
6, 30320, Note_on_c, 9, 44, 71
6, 30331, Note_on_c, 9, 44, 0
6, 30368, Note_on_c, 9, 59, 80
6, 30383, Note_on_c, 9, 59, 0
6, 30439, Note_on_c, 9, 46, 51
6, 30450, Note_on_c, 9, 46, 0
6, 30451, Note_on_c, 9, 59, 62
6, 30465, Note_on_c, 9, 59, 0
6, 30484, Note_on_c, 9, 59, 72
6, 30513, Note_on_c, 9, 59, 0
6, 30560, Note_on_c, 9, 44, 67
6, 30569, Note_on_c, 9, 59, 87
6, 30570, Note_on_c, 9, 44, 0
6, 30579, Note_on_c, 9, 59, 0
6, 30607, Note_on_c, 9, 59, 110
6, 30609, Note_on_c, 9, 37, 16
6, 30614, Note_on_c, 9, 37, 0
6, 30648, Note_on_c, 9, 37, 37
6, 30654, Note_on_c, 9, 37, 0
6, 30669, Note_on_c, 9, 59, 0
6, 30722, Note_on_c, 9, 59, 89
6, 30751, Note_on_c, 9, 59, 0
6, 30840, Note_on_c, 9, 44, 73
6, 30841, Note_on_c, 9, 59, 81
6, 30853, Note_on_c, 9, 44, 0
6, 30860, Note_on_c, 9, 59, 0
6, 30954, Note_on_c, 9, 59, 81
6, 30972, Note_on_c, 9, 59, 0
6, 31040, Note_on_c, 9, 59, 69
6, 31053, Note_on_c, 9, 59, 0
6, 31072, Note_on_c, 9, 59, 88
6, 31080, Note_on_c, 9, 44, 74
6, 31094, Note_on_c, 9, 44, 0
6, 31133, Note_on_c, 9, 59, 0
6, 31153, Note_on_c, 9, 40, 33
6, 31162, Note_on_c, 9, 40, 0
6, 31187, Note_on_c, 9, 59, 84
6, 31202, Note_on_c, 9, 59, 0
6, 31275, Note_on_c, 9, 40, 28
6, 31282, Note_on_c, 9, 40, 0
6, 31317, Note_on_c, 9, 59, 74
6, 31320, Note_on_c, 9, 44, 74
6, 31328, Note_on_c, 9, 59, 0
6, 31336, Note_on_c, 9, 44, 0
6, 31404, Note_on_c, 9, 59, 82
6, 31423, Note_on_c, 9, 59, 0
6, 31445, Note_on_c, 9, 59, 66
6, 31476, Note_on_c, 9, 59, 0
6, 31524, Note_on_c, 9, 59, 110
6, 31560, Note_on_c, 9, 44, 69
6, 31571, Note_on_c, 9, 44, 0
6, 31608, Note_on_c, 9, 59, 0
6, 31636, Note_on_c, 9, 36, 49
6, 31637, Note_on_c, 9, 40, 38
6, 31641, Note_on_c, 9, 59, 42
6, 31643, Note_on_c, 9, 40, 0
6, 31649, Note_on_c, 9, 59, 0
6, 31659, Note_on_c, 9, 36, 0
6, 31680, Note_on_c, 9, 59, 77
6, 31743, Note_on_c, 9, 59, 0
6, 31797, Note_on_c, 9, 59, 85
6, 31800, Note_on_c, 9, 44, 69
6, 31813, Note_on_c, 9, 59, 0
6, 31814, Note_on_c, 9, 44, 0
6, 31884, Note_on_c, 9, 59, 50
6, 31892, Note_on_c, 9, 59, 0
6, 31914, Note_on_c, 9, 59, 74
6, 31942, Note_on_c, 9, 59, 0
6, 32040, Note_on_c, 9, 44, 71
6, 32042, Note_on_c, 9, 59, 44
6, 32052, Note_on_c, 9, 59, 0
6, 32056, Note_on_c, 9, 44, 0
6, 32121, Note_on_c, 9, 59, 79
6, 32138, Note_on_c, 9, 59, 0
6, 32162, Note_on_c, 9, 59, 71
6, 32193, Note_on_c, 9, 59, 0
6, 32206, Note_on_c, 9, 40, 18
6, 32214, Note_on_c, 9, 40, 0
6, 32239, Note_on_c, 9, 40, 35
6, 32263, Note_on_c, 9, 40, 0
6, 32280, Note_on_c, 9, 44, 69
6, 32281, Note_on_c, 9, 59, 82
6, 32282, Note_on_c, 9, 40, 41
6, 32295, Note_on_c, 9, 44, 0
6, 32300, Note_on_c, 9, 59, 0
6, 32304, Note_on_c, 9, 40, 0
6, 32404, Note_on_c, 9, 59, 83
6, 32417, Note_on_c, 9, 59, 0
6, 32439, Note_on_c, 9, 59, 63
6, 32469, Note_on_c, 9, 59, 0
6, 32520, Note_on_c, 9, 44, 67
6, 32523, Note_on_c, 9, 59, 88
6, 32531, Note_on_c, 9, 44, 0
6, 32540, Note_on_c, 9, 59, 0
6, 32575, Note_on_c, 9, 40, 32
6, 32585, Note_on_c, 9, 40, 0
6, 32616, Note_on_c, 9, 40, 46
6, 32632, Note_on_c, 9, 40, 0
6, 32632, Note_on_c, 9, 59, 72
6, 32651, Note_on_c, 9, 59, 0
6, 32653, Note_on_c, 9, 40, 56
6, 32669, Note_on_c, 9, 40, 0
6, 32752, Note_on_c, 9, 59, 81
6, 32760, Note_on_c, 9, 44, 71
6, 32764, Note_on_c, 9, 59, 0
6, 32775, Note_on_c, 9, 44, 0
6, 32840, Note_on_c, 9, 59, 67
6, 32863, Note_on_c, 9, 59, 0
6, 32880, Note_on_c, 9, 59, 69
6, 32908, Note_on_c, 9, 59, 0
6, 32967, Note_on_c, 9, 53, 33
6, 32994, Note_on_c, 9, 53, 0
6, 33002, Note_on_c, 9, 46, 38
6, 33002, Note_on_c, 9, 59, 83
6, 33015, Note_on_c, 9, 59, 0
6, 33015, Note_on_c, 9, 36, 26
6, 33016, Note_on_c, 9, 46, 0
6, 33048, Note_on_c, 9, 36, 0
6, 33089, Note_on_c, 9, 36, 27
6, 33090, Note_on_c, 9, 59, 69
6, 33103, Note_on_c, 9, 59, 0
6, 33110, Note_on_c, 9, 36, 0
6, 33126, Note_on_c, 9, 59, 79
6, 33141, Note_on_c, 9, 59, 0
6, 33204, Note_on_c, 9, 59, 88
6, 33216, Note_on_c, 9, 59, 0
6, 33240, Note_on_c, 9, 44, 64
6, 33247, Note_on_c, 9, 59, 101
6, 33257, Note_on_c, 9, 44, 0
6, 33294, Note_on_c, 9, 59, 0
6, 33326, Note_on_c, 9, 45, 66
6, 33327, Note_on_c, 9, 59, 60
6, 33334, Note_on_c, 9, 59, 0
6, 33341, Note_on_c, 9, 45, 0
6, 33369, Note_on_c, 9, 59, 91
6, 33374, Note_on_c, 9, 45, 61
6, 33397, Note_on_c, 9, 45, 0
6, 33433, Note_on_c, 9, 59, 0
6, 33441, Note_on_c, 9, 36, 32
6, 33477, Note_on_c, 9, 36, 0
6, 33480, Note_on_c, 9, 44, 67
6, 33482, Note_on_c, 9, 59, 90
6, 33488, Note_on_c, 9, 43, 41
6, 33491, Note_on_c, 9, 44, 0
6, 33521, Note_on_c, 9, 59, 0
6, 33539, Note_on_c, 9, 43, 0
6, 33562, Note_on_c, 9, 36, 64
6, 33563, Note_on_c, 9, 40, 42
6, 33565, Note_on_c, 9, 59, 88
6, 33594, Note_on_c, 9, 40, 0
6, 33599, Note_on_c, 9, 59, 0
6, 33599, Note_on_c, 9, 36, 0
6, 33607, Note_on_c, 9, 36, 58
6, 33611, Note_on_c, 9, 59, 66
6, 33625, Note_on_c, 9, 59, 0
6, 33640, Note_on_c, 9, 44, 53
6, 33647, Note_on_c, 9, 44, 0
6, 33658, Note_on_c, 9, 36, 0
6, 33684, Note_on_c, 9, 59, 82
6, 33695, Note_on_c, 9, 59, 0
6, 33720, Note_on_c, 9, 44, 64
6, 33727, Note_on_c, 9, 59, 81
6, 33732, Note_on_c, 9, 44, 0
6, 33782, Note_on_c, 9, 59, 0
6, 33801, Note_on_c, 9, 53, 84
6, 33841, Note_on_c, 9, 53, 0
6, 33849, Note_on_c, 9, 59, 47
6, 33905, Note_on_c, 9, 59, 0
6, 33923, Note_on_c, 9, 53, 83
6, 33960, Note_on_c, 9, 44, 65
6, 33962, Note_on_c, 9, 53, 0
6, 33968, Note_on_c, 9, 59, 44
6, 33973, Note_on_c, 9, 40, 40
6, 33975, Note_on_c, 9, 44, 0
6, 33986, Note_on_c, 9, 40, 0
6, 34010, Note_on_c, 9, 40, 29
6, 34015, Note_on_c, 9, 43, 28
6, 34017, Note_on_c, 9, 40, 0
6, 34027, Note_on_c, 9, 59, 0
6, 34028, Note_on_c, 9, 43, 0
6, 34043, Note_on_c, 9, 53, 79
6, 34052, Note_on_c, 9, 36, 34
6, 34072, Note_on_c, 9, 53, 0
6, 34073, Note_on_c, 9, 36, 0
6, 34088, Note_on_c, 9, 59, 57
6, 34092, Note_on_c, 9, 36, 42
6, 34152, Note_on_c, 9, 36, 0
6, 34153, Note_on_c, 9, 59, 0
6, 34168, Note_on_c, 9, 36, 45
6, 34200, Note_on_c, 9, 44, 60
6, 34202, Note_on_c, 9, 36, 0
6, 34203, Note_on_c, 9, 59, 81
6, 34214, Note_on_c, 9, 44, 0
6, 34260, Note_on_c, 9, 59, 0
6, 34296, Note_on_c, 9, 59, 49
6, 34305, Note_on_c, 9, 59, 0
6, 34323, Note_on_c, 9, 59, 83
6, 34412, Note_on_c, 9, 59, 0
6, 34440, Note_on_c, 9, 44, 65
6, 34443, Note_on_c, 9, 59, 82
6, 34454, Note_on_c, 9, 44, 0
6, 34499, Note_on_c, 9, 59, 0
6, 34533, Note_on_c, 9, 59, 51
6, 34544, Note_on_c, 9, 59, 0
6, 34567, Note_on_c, 9, 59, 80
6, 34607, Note_on_c, 9, 59, 0
6, 34645, Note_on_c, 9, 59, 73
6, 34651, Note_on_c, 9, 59, 0
6, 34680, Note_on_c, 9, 44, 62
6, 34684, Note_on_c, 9, 59, 90
6, 34696, Note_on_c, 9, 44, 0
6, 34742, Note_on_c, 9, 59, 0
6, 34764, Note_on_c, 9, 53, 66
6, 34791, Note_on_c, 9, 53, 0
6, 34808, Note_on_c, 9, 59, 57
6, 34846, Note_on_c, 9, 59, 0
6, 34881, Note_on_c, 9, 59, 80
6, 34899, Note_on_c, 9, 59, 0
6, 34920, Note_on_c, 9, 44, 53
6, 34926, Note_on_c, 9, 59, 78
6, 34929, Note_on_c, 9, 44, 0
6, 34986, Note_on_c, 9, 59, 0
6, 35000, Note_on_c, 9, 53, 76
6, 35020, Note_on_c, 9, 53, 0
6, 35044, Note_on_c, 9, 59, 54
6, 35097, Note_on_c, 9, 59, 0
6, 35115, Note_on_c, 9, 40, 27
6, 35123, Note_on_c, 9, 40, 0
6, 35154, Note_on_c, 9, 59, 83
6, 35160, Note_on_c, 9, 44, 45
6, 35168, Note_on_c, 9, 44, 0
6, 35169, Note_on_c, 9, 59, 0
6, 35238, Note_on_c, 9, 40, 31
6, 35248, Note_on_c, 9, 40, 0
6, 35274, Note_on_c, 9, 59, 81
6, 35285, Note_on_c, 9, 59, 0
6, 35303, Note_on_c, 9, 59, 65
6, 35319, Note_on_c, 9, 59, 0
6, 35394, Note_on_c, 9, 59, 88
6, 35400, Note_on_c, 9, 44, 64
6, 35405, Note_on_c, 9, 59, 0
6, 35406, Note_on_c, 9, 40, 12
6, 35414, Note_on_c, 9, 44, 0
6, 35428, Note_on_c, 9, 40, 0
6, 35478, Note_on_c, 9, 59, 45
6, 35484, Note_on_c, 9, 59, 0
6, 35502, Note_on_c, 9, 59, 90
6, 35565, Note_on_c, 9, 59, 0
6, 35629, Note_on_c, 9, 59, 80
6, 35640, Note_on_c, 9, 44, 67
6, 35641, Note_on_c, 9, 59, 0
6, 35654, Note_on_c, 9, 44, 0
6, 35722, Note_on_c, 9, 36, 35
6, 35744, Note_on_c, 9, 36, 0
6, 35757, Note_on_c, 9, 59, 82
6, 35767, Note_on_c, 9, 36, 30
6, 35768, Note_on_c, 9, 59, 0
6, 35826, Note_on_c, 9, 36, 0
6, 35846, Note_on_c, 9, 36, 32
6, 35863, Note_on_c, 9, 36, 0
6, 35875, Note_on_c, 9, 59, 82
6, 35880, Note_on_c, 9, 44, 74
6, 35887, Note_on_c, 9, 59, 0
6, 35894, Note_on_c, 9, 44, 0
6, 35894, Note_on_c, 9, 37, 68
6, 35922, Note_on_c, 9, 37, 0
6, 35997, Note_on_c, 9, 59, 82
6, 36009, Note_on_c, 9, 59, 0
6, 36078, Note_on_c, 9, 59, 71
6, 36080, Note_on_c, 9, 44, 80
6, 36093, Note_on_c, 9, 59, 0
6, 36106, Note_on_c, 9, 44, 0
6, 36120, Note_on_c, 9, 44, 60
6, 36127, Note_on_c, 9, 59, 73
6, 36140, Note_on_c, 9, 59, 0
6, 36151, Note_on_c, 9, 44, 0
6, 36198, Note_on_c, 9, 53, 88
6, 36216, Note_on_c, 9, 53, 0
6, 36243, Note_on_c, 9, 59, 53
6, 36298, Note_on_c, 9, 59, 0
6, 36324, Note_on_c, 9, 53, 84
6, 36341, Note_on_c, 9, 53, 0
6, 36360, Note_on_c, 9, 44, 74
6, 36362, Note_on_c, 9, 37, 66
6, 36367, Note_on_c, 9, 59, 54
6, 36376, Note_on_c, 9, 44, 0
6, 36391, Note_on_c, 9, 37, 0
6, 36416, Note_on_c, 9, 59, 0
6, 36476, Note_on_c, 9, 59, 81
6, 36493, Note_on_c, 9, 59, 0
6, 36597, Note_on_c, 9, 59, 71
6, 36600, Note_on_c, 9, 44, 69
6, 36607, Note_on_c, 9, 59, 0
6, 36617, Note_on_c, 9, 44, 0
6, 36712, Note_on_c, 9, 59, 78
6, 36725, Note_on_c, 9, 59, 0
6, 36836, Note_on_c, 9, 59, 83
6, 36840, Note_on_c, 9, 44, 59
6, 36842, Note_on_c, 9, 46, 38
6, 36844, Note_on_c, 9, 37, 72
6, 36847, Note_on_c, 9, 59, 0
6, 36850, Note_on_c, 9, 44, 0
6, 36855, Note_on_c, 9, 46, 0
6, 36879, Note_on_c, 9, 37, 0
6, 36926, Note_on_c, 9, 59, 77
6, 36938, Note_on_c, 9, 59, 0
6, 36958, Note_on_c, 9, 59, 78
6, 36970, Note_on_c, 9, 59, 0
6, 37039, Note_on_c, 9, 43, 24
6, 37072, Note_on_c, 9, 43, 0
6, 37080, Note_on_c, 9, 44, 69
6, 37082, Note_on_c, 9, 59, 83
6, 37091, Note_on_c, 9, 59, 0
6, 37097, Note_on_c, 9, 44, 0
6, 37126, Note_on_c, 9, 59, 80
6, 37135, Note_on_c, 9, 59, 0
6, 37174, Note_on_c, 9, 36, 24
6, 37189, Note_on_c, 9, 36, 0
6, 37205, Note_on_c, 9, 59, 80
6, 37216, Note_on_c, 9, 59, 0
6, 37283, Note_on_c, 9, 59, 79
6, 37284, Note_on_c, 9, 45, 46
6, 37294, Note_on_c, 9, 59, 0
6, 37308, Note_on_c, 9, 45, 0
6, 37320, Note_on_c, 9, 44, 71
6, 37339, Note_on_c, 9, 44, 0
6, 37356, Note_on_c, 9, 59, 82
6, 37367, Note_on_c, 9, 59, 0
6, 37401, Note_on_c, 9, 45, 49
6, 37438, Note_on_c, 9, 45, 0
6, 37442, Note_on_c, 9, 59, 83
6, 37453, Note_on_c, 9, 59, 0
6, 37458, Note_on_c, 9, 36, 18
6, 37480, Note_on_c, 9, 36, 0
6, 37522, Note_on_c, 9, 59, 90
6, 37522, Note_on_c, 9, 36, 45
6, 37536, Note_on_c, 9, 59, 0
6, 37548, Note_on_c, 9, 36, 0
6, 37560, Note_on_c, 9, 44, 64
6, 37564, Note_on_c, 9, 59, 71
6, 37570, Note_on_c, 9, 36, 45
6, 37574, Note_on_c, 9, 44, 0
6, 37576, Note_on_c, 9, 59, 0
6, 37601, Note_on_c, 9, 36, 0
6, 37607, Note_on_c, 9, 37, 42
6, 37619, Note_on_c, 9, 37, 0
6, 37644, Note_on_c, 9, 53, 66
6, 37653, Note_on_c, 9, 53, 0
6, 37683, Note_on_c, 9, 59, 60
6, 37704, Note_on_c, 9, 59, 0
6, 37800, Note_on_c, 9, 44, 68
6, 37806, Note_on_c, 9, 59, 87
6, 37816, Note_on_c, 9, 44, 0
6, 37821, Note_on_c, 9, 59, 0
6, 37882, Note_on_c, 9, 59, 67
6, 37892, Note_on_c, 9, 59, 0
6, 37917, Note_on_c, 9, 59, 71
6, 37935, Note_on_c, 9, 59, 0
6, 38034, Note_on_c, 9, 59, 73
6, 38040, Note_on_c, 9, 44, 67
6, 38043, Note_on_c, 9, 59, 0
6, 38054, Note_on_c, 9, 44, 0
6, 38063, Note_on_c, 9, 59, 72
6, 38074, Note_on_c, 9, 59, 0
6, 38152, Note_on_c, 9, 59, 82
6, 38162, Note_on_c, 9, 40, 12
6, 38164, Note_on_c, 9, 59, 0
6, 38169, Note_on_c, 9, 40, 0
6, 38203, Note_on_c, 9, 40, 5
6, 38208, Note_on_c, 9, 40, 0
6, 38241, Note_on_c, 9, 47, 58
6, 38276, Note_on_c, 9, 47, 0
6, 38280, Note_on_c, 9, 59, 79
6, 38290, Note_on_c, 9, 59, 0
6, 38293, Note_on_c, 9, 45, 49
6, 38321, Note_on_c, 9, 40, 35
6, 38327, Note_on_c, 9, 40, 0
6, 38360, Note_on_c, 9, 44, 65
6, 38365, Note_on_c, 9, 59, 84
6, 38368, Note_on_c, 9, 36, 42
6, 38373, Note_on_c, 9, 44, 0
6, 38380, Note_on_c, 9, 59, 0
6, 38397, Note_on_c, 9, 36, 0
6, 38407, Note_on_c, 9, 59, 76
6, 38420, Note_on_c, 9, 59, 0
6, 38443, Note_on_c, 9, 45, 0
6, 38481, Note_on_c, 9, 36, 43
6, 38506, Note_on_c, 9, 36, 0
6, 38520, Note_on_c, 9, 44, 69
6, 38528, Note_on_c, 9, 36, 33
6, 38531, Note_on_c, 9, 59, 58
6, 38535, Note_on_c, 9, 44, 0
6, 38537, Note_on_c, 9, 59, 0
6, 38556, Note_on_c, 9, 36, 0
6, 38598, Note_on_c, 9, 59, 95
6, 38613, Note_on_c, 9, 59, 0
6, 38642, Note_on_c, 9, 59, 57
6, 38680, Note_on_c, 9, 59, 0
6, 38757, Note_on_c, 9, 59, 74
6, 38764, Note_on_c, 9, 44, 62
6, 38771, Note_on_c, 9, 59, 0
6, 38776, Note_on_c, 9, 44, 0
6, 38888, Note_on_c, 9, 59, 81
6, 38900, Note_on_c, 9, 59, 0
6, 39000, Note_on_c, 9, 44, 64
6, 39001, Note_on_c, 9, 59, 82
6, 39012, Note_on_c, 9, 44, 0
6, 39014, Note_on_c, 9, 59, 0
6, 39121, Note_on_c, 9, 59, 77
6, 39133, Note_on_c, 9, 59, 0
6, 39240, Note_on_c, 9, 44, 71
6, 39243, Note_on_c, 9, 59, 79
6, 39254, Note_on_c, 9, 44, 0
6, 39256, Note_on_c, 9, 59, 0
6, 39322, Note_on_c, 9, 45, 34
6, 39323, Note_on_c, 9, 40, 29
6, 39324, Note_on_c, 9, 59, 82
6, 39329, Note_on_c, 9, 40, 0
6, 39345, Note_on_c, 9, 59, 0
6, 39352, Note_on_c, 9, 45, 0
6, 39364, Note_on_c, 9, 59, 76
6, 39382, Note_on_c, 9, 59, 0
6, 39440, Note_on_c, 9, 36, 26
6, 39463, Note_on_c, 9, 36, 0
6, 39480, Note_on_c, 9, 46, 36
6, 39480, Note_on_c, 9, 59, 81
6, 39480, Note_on_c, 9, 44, 62
6, 39489, Note_on_c, 9, 36, 20
6, 39492, Note_on_c, 9, 44, 0
6, 39492, Note_on_c, 9, 46, 0
6, 39492, Note_on_c, 9, 59, 0
6, 39526, Note_on_c, 9, 36, 0
6, 39593, Note_on_c, 9, 59, 84
6, 39605, Note_on_c, 9, 59, 0
6, 39719, Note_on_c, 9, 59, 85
6, 39720, Note_on_c, 9, 44, 64
6, 39731, Note_on_c, 9, 59, 0
6, 39733, Note_on_c, 9, 44, 0
6, 39801, Note_on_c, 9, 59, 68
6, 39812, Note_on_c, 9, 59, 0
6, 39836, Note_on_c, 9, 59, 81
6, 39852, Note_on_c, 9, 59, 0
6, 39960, Note_on_c, 9, 44, 69
6, 39963, Note_on_c, 9, 59, 79
6, 39975, Note_on_c, 9, 59, 0
6, 39975, Note_on_c, 9, 44, 0
6, 40044, Note_on_c, 9, 59, 78
6, 40044, Note_on_c, 9, 36, 45
6, 40058, Note_on_c, 9, 59, 0
6, 40070, Note_on_c, 9, 36, 0
6, 40082, Note_on_c, 9, 40, 35
6, 40084, Note_on_c, 9, 59, 77
6, 40090, Note_on_c, 9, 40, 0
6, 40090, Note_on_c, 9, 36, 39
6, 40096, Note_on_c, 9, 59, 0
6, 40119, Note_on_c, 9, 40, 22
6, 40127, Note_on_c, 9, 40, 0
6, 40139, Note_on_c, 9, 36, 0
6, 40162, Note_on_c, 9, 36, 49
6, 40163, Note_on_c, 9, 59, 101
6, 40176, Note_on_c, 9, 59, 0
6, 40192, Note_on_c, 9, 36, 0
6, 40200, Note_on_c, 9, 44, 73
6, 40200, Note_on_c, 9, 40, 28
6, 40204, Note_on_c, 9, 59, 80
6, 40207, Note_on_c, 9, 40, 0
6, 40215, Note_on_c, 9, 44, 0
6, 40218, Note_on_c, 9, 59, 0
6, 40273, Note_on_c, 9, 40, 65
6, 40283, Note_on_c, 9, 59, 81
6, 40298, Note_on_c, 9, 59, 0
6, 40310, Note_on_c, 9, 40, 0
6, 40400, Note_on_c, 9, 59, 68
6, 40409, Note_on_c, 9, 59, 0
6, 40440, Note_on_c, 9, 44, 73
6, 40441, Note_on_c, 9, 59, 84
6, 40456, Note_on_c, 9, 44, 0
6, 40457, Note_on_c, 9, 59, 0
6, 40515, Note_on_c, 9, 40, 61
6, 40520, Note_on_c, 9, 59, 80
6, 40533, Note_on_c, 9, 59, 0
6, 40544, Note_on_c, 9, 40, 0
6, 40606, Note_on_c, 9, 59, 66
6, 40613, Note_on_c, 9, 59, 0
6, 40636, Note_on_c, 9, 45, 35
6, 40640, Note_on_c, 9, 44, 45
6, 40641, Note_on_c, 9, 59, 90
6, 40646, Note_on_c, 9, 44, 0
6, 40654, Note_on_c, 9, 59, 0
6, 40664, Note_on_c, 9, 45, 0
6, 40680, Note_on_c, 9, 44, 49
6, 40681, Note_on_c, 9, 59, 92
6, 40686, Note_on_c, 9, 36, 30
6, 40688, Note_on_c, 9, 44, 0
6, 40696, Note_on_c, 9, 59, 0
6, 40720, Note_on_c, 9, 44, 82
6, 40721, Note_on_c, 9, 59, 51
6, 40727, Note_on_c, 9, 59, 0
6, 40737, Note_on_c, 9, 36, 0
6, 40739, Note_on_c, 9, 44, 0
6, 40752, Note_on_c, 9, 53, 83
6, 40759, Note_on_c, 9, 40, 32
6, 40762, Note_on_c, 9, 36, 40
6, 40768, Note_on_c, 9, 53, 0
6, 40783, Note_on_c, 9, 40, 0
6, 40787, Note_on_c, 9, 36, 0
6, 40794, Note_on_c, 9, 59, 45
6, 40805, Note_on_c, 9, 59, 0
6, 40838, Note_on_c, 9, 59, 66
6, 40840, Note_on_c, 9, 44, 46
6, 40848, Note_on_c, 9, 44, 0
6, 40849, Note_on_c, 9, 59, 0
6, 40880, Note_on_c, 9, 59, 69
6, 40880, Note_on_c, 9, 46, 50
6, 40893, Note_on_c, 9, 59, 0
6, 40903, Note_on_c, 9, 46, 0
6, 40920, Note_on_c, 9, 59, 66
6, 40925, Note_on_c, 9, 57, 41
6, 40927, Note_on_c, 9, 40, 22
6, 40932, Note_on_c, 9, 57, 0
6, 40933, Note_on_c, 9, 59, 0
6, 40939, Note_on_c, 9, 40, 0
6, 40960, Note_on_c, 9, 44, 51
6, 40961, Note_on_c, 9, 53, 53
6, 40965, Note_on_c, 9, 40, 21
6, 40969, Note_on_c, 9, 44, 0
6, 40980, Note_on_c, 9, 40, 0
6, 40987, Note_on_c, 9, 53, 0
6, 41000, Note_on_c, 9, 59, 77
6, 41001, Note_on_c, 9, 46, 53
6, 41011, Note_on_c, 9, 53, 60
6, 41026, Note_on_c, 9, 46, 0
6, 41031, Note_on_c, 9, 59, 0
6, 41035, Note_on_c, 9, 53, 0
6, 41042, Note_on_c, 9, 40, 33
6, 41057, Note_on_c, 9, 40, 0
6, 41079, Note_on_c, 9, 59, 74
6, 41079, Note_on_c, 9, 40, 29
6, 41080, Note_on_c, 9, 44, 49
6, 41088, Note_on_c, 9, 44, 0
6, 41092, Note_on_c, 9, 59, 0
6, 41094, Note_on_c, 9, 40, 0
6, 41112, Note_on_c, 9, 46, 46
6, 41113, Note_on_c, 9, 45, 71
6, 41115, Note_on_c, 9, 53, 58
6, 41124, Note_on_c, 9, 46, 0
6, 41127, Note_on_c, 9, 45, 0
6, 41147, Note_on_c, 9, 53, 0
6, 41158, Note_on_c, 9, 40, 27
6, 41160, Note_on_c, 9, 59, 68
6, 41160, Note_on_c, 9, 44, 47
6, 41164, Note_on_c, 9, 43, 33
6, 41167, Note_on_c, 9, 44, 0
6, 41168, Note_on_c, 9, 40, 0
6, 41175, Note_on_c, 9, 59, 0
6, 41178, Note_on_c, 9, 43, 0
6, 41200, Note_on_c, 9, 44, 51
6, 41200, Note_on_c, 9, 53, 53
6, 41203, Note_on_c, 9, 53, 59
6, 41206, Note_on_c, 9, 44, 0
6, 41211, Note_on_c, 9, 53, 0
6, 41217, Note_on_c, 9, 53, 0
6, 41236, Note_on_c, 9, 57, 46
6, 41240, Note_on_c, 9, 44, 85
6, 41240, Note_on_c, 9, 36, 70
6, 41241, Note_on_c, 9, 59, 80
6, 41244, Note_on_c, 9, 57, 0
6, 41251, Note_on_c, 9, 59, 0
6, 41256, Note_on_c, 9, 44, 0
6, 41271, Note_on_c, 9, 36, 0
6, 41280, Note_on_c, 9, 59, 94
6, 41280, Note_on_c, 9, 44, 40
6, 41280, Note_on_c, 9, 44, 45
6, 41280, Note_on_c, 9, 44, 0
6, 41282, Note_on_c, 9, 36, 65
6, 41288, Note_on_c, 9, 51, 41
6, 41295, Note_on_c, 9, 59, 0
6, 41305, Note_on_c, 9, 44, 0
6, 41342, Note_on_c, 9, 36, 0
6, 41343, Note_on_c, 9, 51, 0
6, 41359, Note_on_c, 9, 46, 59
6, 41407, Note_on_c, 9, 51, 35
6, 41487, Note_on_c, 9, 46, 0
6, 41525, Note_on_c, 9, 46, 26
6, 41531, Note_on_c, 9, 46, 0
6, 41554, Note_on_c, 9, 51, 0
6, 41601, Note_on_c, 9, 51, 34
6, 41618, Note_on_c, 9, 51, 0
6, 41647, Note_on_c, 9, 51, 34
6, 41720, Note_on_c, 9, 44, 44
6, 41729, Note_on_c, 9, 53, 32
6, 41731, Note_on_c, 9, 44, 0
6, 41741, Note_on_c, 9, 51, 0
6, 41756, Note_on_c, 9, 53, 0
6, 41768, Note_on_c, 9, 51, 40
6, 41775, Note_on_c, 9, 36, 37
6, 41826, Note_on_c, 9, 36, 0
6, 41840, Note_on_c, 9, 44, 63
6, 41849, Note_on_c, 9, 36, 33
6, 41854, Note_on_c, 9, 44, 0
6, 41862, Note_on_c, 9, 51, 0
6, 41868, Note_on_c, 9, 36, 0
6, 41890, Note_on_c, 9, 51, 44
6, 41960, Note_on_c, 9, 44, 67
6, 41972, Note_on_c, 9, 44, 0
6, 41978, Note_on_c, 9, 51, 0
6, 42006, Note_on_c, 9, 51, 43
6, 42072, Note_on_c, 9, 51, 0
6, 42077, Note_on_c, 9, 53, 63
6, 42080, Note_on_c, 9, 44, 69
6, 42080, Note_on_c, 9, 53, 46
6, 42088, Note_on_c, 9, 53, 0
6, 42096, Note_on_c, 9, 44, 0
6, 42110, Note_on_c, 9, 53, 0
6, 42118, Note_on_c, 9, 51, 37
6, 42172, Note_on_c, 9, 51, 0
6, 42194, Note_on_c, 9, 36, 62
6, 42197, Note_on_c, 9, 51, 46
6, 42200, Note_on_c, 9, 44, 76
6, 42209, Note_on_c, 9, 51, 0
6, 42217, Note_on_c, 9, 44, 0
6, 42225, Note_on_c, 9, 36, 0
6, 42239, Note_on_c, 9, 51, 43
6, 42239, Note_on_c, 9, 36, 62
6, 42240, Note_on_c, 9, 44, 63
6, 42252, Note_on_c, 9, 44, 0
6, 42254, Note_on_c, 9, 51, 0
6, 42286, Note_on_c, 9, 36, 0
6, 42300, Note_on_c, 9, 46, 62
6, 42358, Note_on_c, 9, 51, 46
6, 42376, Note_on_c, 9, 51, 0
6, 42435, Note_on_c, 9, 53, 29
6, 42438, Note_on_c, 9, 46, 0
6, 42456, Note_on_c, 9, 53, 0
6, 42478, Note_on_c, 9, 51, 47
6, 42487, Note_on_c, 9, 51, 0
6, 42560, Note_on_c, 9, 44, 42
6, 42564, Note_on_c, 9, 36, 29
6, 42575, Note_on_c, 9, 36, 0
6, 42576, Note_on_c, 9, 44, 0
6, 42600, Note_on_c, 9, 44, 43
6, 42618, Note_on_c, 9, 44, 0
6, 42681, Note_on_c, 9, 51, 41
6, 42690, Note_on_c, 9, 51, 0
6, 42798, Note_on_c, 9, 51, 50
6, 42840, Note_on_c, 9, 51, 0
6, 42840, Note_on_c, 9, 44, 39
6, 42844, Note_on_c, 9, 53, 33
6, 42861, Note_on_c, 9, 44, 0
6, 42912, Note_on_c, 9, 53, 0
6, 42919, Note_on_c, 9, 51, 40
6, 42930, Note_on_c, 9, 51, 0
6, 42963, Note_on_c, 9, 51, 41
6, 43003, Note_on_c, 9, 45, 65
6, 43029, Note_on_c, 9, 45, 0
6, 43037, Note_on_c, 9, 53, 35
6, 43055, Note_on_c, 9, 53, 0
6, 43059, Note_on_c, 9, 51, 0
6, 43082, Note_on_c, 9, 43, 35
6, 43087, Note_on_c, 9, 51, 37
6, 43100, Note_on_c, 9, 43, 0
6, 43120, Note_on_c, 9, 53, 47
6, 43134, Note_on_c, 9, 53, 0
6, 43159, Note_on_c, 9, 53, 72
6, 43160, Note_on_c, 9, 36, 64
6, 43161, Note_on_c, 9, 51, 0
6, 43174, Note_on_c, 9, 53, 0
6, 43185, Note_on_c, 9, 36, 0
6, 43199, Note_on_c, 9, 51, 34
6, 43199, Note_on_c, 9, 36, 64
6, 43241, Note_on_c, 9, 36, 0
6, 43262, Note_on_c, 9, 51, 0
6, 43267, Note_on_c, 9, 36, 83
6, 43273, Note_on_c, 9, 46, 63
6, 43280, Note_on_c, 9, 51, 38
6, 43294, Note_on_c, 9, 51, 0
6, 43309, Note_on_c, 9, 36, 0
6, 43321, Note_on_c, 9, 51, 38
6, 43384, Note_on_c, 9, 51, 0
6, 43394, Note_on_c, 9, 53, 57
6, 43405, Note_on_c, 9, 53, 0
6, 43430, Note_on_c, 9, 46, 0
6, 43432, Note_on_c, 9, 51, 30
6, 43509, Note_on_c, 9, 45, 56
6, 43514, Note_on_c, 9, 53, 64
6, 43515, Note_on_c, 9, 51, 0
6, 43526, Note_on_c, 9, 53, 0
6, 43545, Note_on_c, 9, 45, 0
6, 43556, Note_on_c, 9, 51, 27
6, 43559, Note_on_c, 9, 45, 58
6, 43560, Note_on_c, 9, 44, 84
6, 43604, Note_on_c, 9, 51, 0
6, 43604, Note_on_c, 9, 45, 0
6, 43609, Note_on_c, 9, 44, 0
6, 43635, Note_on_c, 9, 51, 36
6, 43636, Note_on_c, 9, 36, 44
6, 43654, Note_on_c, 9, 51, 0
6, 43660, Note_on_c, 9, 36, 0
6, 43679, Note_on_c, 9, 51, 32
6, 43687, Note_on_c, 9, 36, 31
6, 43710, Note_on_c, 9, 36, 0
6, 43788, Note_on_c, 9, 51, 0
6, 43800, Note_on_c, 9, 44, 58
6, 43806, Note_on_c, 9, 51, 41
6, 43828, Note_on_c, 9, 44, 0
6, 43905, Note_on_c, 9, 51, 0
6, 43921, Note_on_c, 9, 51, 38
6, 44000, Note_on_c, 9, 45, 79
6, 44027, Note_on_c, 9, 51, 0
6, 44043, Note_on_c, 9, 51, 38
6, 44061, Note_on_c, 9, 45, 0
6, 44077, Note_on_c, 9, 43, 42
6, 44092, Note_on_c, 9, 43, 0
6, 44111, Note_on_c, 9, 51, 0
6, 44111, Note_on_c, 9, 53, 63
6, 44111, Note_on_c, 9, 53, 49
6, 44122, Note_on_c, 9, 53, 0
6, 44144, Note_on_c, 9, 53, 0
6, 44152, Note_on_c, 9, 51, 35
6, 44153, Note_on_c, 9, 36, 50
6, 44160, Note_on_c, 9, 44, 77
6, 44177, Note_on_c, 9, 44, 0
6, 44201, Note_on_c, 9, 36, 0
6, 44209, Note_on_c, 9, 51, 0
6, 44224, Note_on_c, 9, 46, 62
6, 44224, Note_on_c, 9, 36, 78
6, 44225, Note_on_c, 9, 51, 70
6, 44254, Note_on_c, 9, 36, 0
6, 44267, Note_on_c, 9, 51, 0
6, 44267, Note_on_c, 9, 36, 67
6, 44272, Note_on_c, 9, 51, 26
6, 44317, Note_on_c, 9, 36, 0
6, 44333, Note_on_c, 9, 51, 0
6, 44351, Note_on_c, 9, 51, 44
6, 44369, Note_on_c, 9, 51, 0
6, 44374, Note_on_c, 9, 46, 0
6, 44393, Note_on_c, 9, 53, 45
6, 44396, Note_on_c, 9, 51, 44
6, 44400, Note_on_c, 9, 53, 0
6, 44451, Note_on_c, 9, 51, 0
6, 44475, Note_on_c, 9, 51, 32
6, 44512, Note_on_c, 9, 51, 0
6, 44520, Note_on_c, 9, 44, 70
6, 44520, Note_on_c, 9, 53, 43
6, 44525, Note_on_c, 9, 36, 19
6, 44533, Note_on_c, 9, 53, 0
6, 44533, Note_on_c, 9, 44, 0
6, 44557, Note_on_c, 9, 51, 48
6, 44572, Note_on_c, 9, 36, 0
6, 44595, Note_on_c, 9, 53, 49
6, 44598, Note_on_c, 9, 36, 49
6, 44607, Note_on_c, 9, 53, 0
6, 44616, Note_on_c, 9, 51, 0
6, 44620, Note_on_c, 9, 36, 0
6, 44635, Note_on_c, 9, 51, 25
6, 44700, Note_on_c, 9, 51, 0
6, 44715, Note_on_c, 9, 51, 63
6, 44760, Note_on_c, 9, 44, 53
6, 44768, Note_on_c, 9, 44, 0
6, 44830, Note_on_c, 9, 53, 54
6, 44840, Note_on_c, 9, 51, 0
6, 44844, Note_on_c, 9, 53, 0
6, 44875, Note_on_c, 9, 51, 24
6, 44954, Note_on_c, 9, 53, 46
6, 44963, Note_on_c, 9, 51, 0
6, 44969, Note_on_c, 9, 53, 0
6, 44999, Note_on_c, 9, 51, 26
6, 45000, Note_on_c, 9, 44, 58
6, 45001, Note_on_c, 9, 45, 36
6, 45013, Note_on_c, 9, 44, 0
6, 45014, Note_on_c, 9, 45, 0
6, 45047, Note_on_c, 9, 36, 24
6, 45057, Note_on_c, 9, 36, 0
6, 45068, Note_on_c, 9, 46, 62
6, 45070, Note_on_c, 9, 51, 0
6, 45071, Note_on_c, 9, 53, 57
6, 45075, Note_on_c, 9, 36, 54
6, 45079, Note_on_c, 9, 53, 0
6, 45108, Note_on_c, 9, 36, 0
6, 45116, Note_on_c, 9, 51, 26
6, 45121, Note_on_c, 9, 36, 59
6, 45135, Note_on_c, 9, 51, 0
6, 45158, Note_on_c, 9, 36, 0
6, 45176, Note_on_c, 9, 46, 0
6, 45192, Note_on_c, 9, 51, 65
6, 45194, Note_on_c, 9, 36, 59
6, 45216, Note_on_c, 9, 51, 0
6, 45234, Note_on_c, 9, 36, 0
6, 45235, Note_on_c, 9, 51, 40
6, 45240, Note_on_c, 9, 44, 46
6, 45255, Note_on_c, 9, 44, 0
6, 45316, Note_on_c, 9, 46, 60
6, 45316, Note_on_c, 9, 45, 43
6, 45321, Note_on_c, 9, 53, 68
6, 45326, Note_on_c, 9, 51, 0
6, 45331, Note_on_c, 9, 45, 0
6, 45333, Note_on_c, 9, 53, 0
6, 45353, Note_on_c, 9, 46, 0
6, 45363, Note_on_c, 9, 46, 53
6, 45363, Note_on_c, 9, 45, 45
6, 45367, Note_on_c, 9, 51, 26
6, 45379, Note_on_c, 9, 51, 0
6, 45399, Note_on_c, 9, 46, 0
6, 45414, Note_on_c, 9, 45, 0
6, 45435, Note_on_c, 9, 36, 58
6, 45440, Note_on_c, 9, 51, 51
6, 45454, Note_on_c, 9, 51, 0
6, 45467, Note_on_c, 9, 36, 0
6, 45480, Note_on_c, 9, 44, 63
6, 45482, Note_on_c, 9, 36, 48
6, 45487, Note_on_c, 9, 51, 50
6, 45498, Note_on_c, 9, 44, 0
6, 45524, Note_on_c, 9, 36, 0
6, 45555, Note_on_c, 9, 46, 63
6, 45556, Note_on_c, 9, 53, 63
6, 45557, Note_on_c, 9, 51, 0
6, 45571, Note_on_c, 9, 53, 0
6, 45599, Note_on_c, 9, 51, 35
6, 45600, Note_on_c, 9, 46, 0
6, 45678, Note_on_c, 9, 46, 62
6, 45682, Note_on_c, 9, 53, 57
6, 45684, Note_on_c, 9, 51, 0
6, 45687, Note_on_c, 9, 36, 40
6, 45693, Note_on_c, 9, 53, 0
6, 45706, Note_on_c, 9, 46, 0
6, 45713, Note_on_c, 9, 36, 0
6, 45722, Note_on_c, 9, 51, 38
6, 45734, Note_on_c, 9, 36, 35
6, 45771, Note_on_c, 9, 36, 0
6, 45797, Note_on_c, 9, 51, 0
6, 45802, Note_on_c, 9, 53, 51
6, 45803, Note_on_c, 9, 46, 63
6, 45808, Note_on_c, 9, 53, 0
6, 45831, Note_on_c, 9, 46, 0
6, 45845, Note_on_c, 9, 51, 28
6, 45864, Note_on_c, 9, 36, 17
6, 45892, Note_on_c, 9, 36, 0
6, 45913, Note_on_c, 9, 51, 0
6, 45917, Note_on_c, 9, 46, 58
6, 45924, Note_on_c, 9, 51, 53
6, 45925, Note_on_c, 9, 36, 52
6, 45946, Note_on_c, 9, 51, 0
6, 45960, Note_on_c, 9, 36, 0
6, 46012, Note_on_c, 9, 46, 0
6, 46044, Note_on_c, 9, 51, 29
6, 46051, Note_on_c, 9, 51, 0
6, 46084, Note_on_c, 9, 51, 44
6, 46134, Note_on_c, 9, 51, 0
6, 46151, Note_on_c, 9, 45, 25
6, 46158, Note_on_c, 9, 46, 62
6, 46167, Note_on_c, 9, 45, 0
6, 46197, Note_on_c, 9, 51, 36
6, 46215, Note_on_c, 9, 51, 0
6, 46277, Note_on_c, 9, 53, 52
6, 46278, Note_on_c, 9, 51, 38
6, 46282, Note_on_c, 9, 46, 0
6, 46284, Note_on_c, 9, 53, 0
6, 46285, Note_on_c, 9, 36, 20
6, 46290, Note_on_c, 9, 51, 0
6, 46295, Note_on_c, 9, 36, 0
6, 46319, Note_on_c, 9, 53, 50
6, 46325, Note_on_c, 9, 53, 0
6, 46325, Note_on_c, 9, 51, 31
6, 46362, Note_on_c, 9, 51, 0
6, 46401, Note_on_c, 9, 46, 55
6, 46438, Note_on_c, 9, 53, 45
6, 46440, Note_on_c, 9, 51, 37
6, 46450, Note_on_c, 9, 53, 0
6, 46456, Note_on_c, 9, 51, 0
6, 46510, Note_on_c, 9, 53, 59
6, 46512, Note_on_c, 9, 51, 71
6, 46517, Note_on_c, 9, 53, 0
6, 46528, Note_on_c, 9, 51, 0
6, 46541, Note_on_c, 9, 46, 0
6, 46635, Note_on_c, 9, 53, 56
6, 46661, Note_on_c, 9, 53, 0
6, 46673, Note_on_c, 9, 51, 25
6, 46677, Note_on_c, 9, 46, 35
6, 46680, Note_on_c, 9, 53, 49
6, 46683, Note_on_c, 9, 51, 0
6, 46698, Note_on_c, 9, 46, 0
6, 46747, Note_on_c, 9, 53, 0
6, 46749, Note_on_c, 9, 51, 49
6, 46757, Note_on_c, 9, 36, 40
6, 46779, Note_on_c, 9, 36, 0
6, 46786, Note_on_c, 9, 51, 0
6, 46793, Note_on_c, 9, 53, 42
6, 46802, Note_on_c, 9, 53, 0
6, 46832, Note_on_c, 9, 53, 58
6, 46839, Note_on_c, 9, 53, 0
6, 46840, Note_on_c, 9, 45, 38
6, 46861, Note_on_c, 9, 45, 0
6, 46871, Note_on_c, 9, 51, 46
6, 46875, Note_on_c, 9, 45, 64
6, 46887, Note_on_c, 9, 51, 0
6, 46903, Note_on_c, 9, 45, 0
6, 46913, Note_on_c, 9, 53, 59
6, 46920, Note_on_c, 9, 43, 55
6, 46923, Note_on_c, 9, 44, 53
6, 46924, Note_on_c, 9, 53, 0
6, 46942, Note_on_c, 9, 43, 0
6, 46945, Note_on_c, 9, 44, 0
6, 46960, Note_on_c, 9, 53, 39
6, 46978, Note_on_c, 9, 53, 0
6, 46990, Note_on_c, 9, 51, 37
6, 46996, Note_on_c, 9, 51, 0
6, 47001, Note_on_c, 9, 36, 60
6, 47028, Note_on_c, 9, 36, 0
6, 47031, Note_on_c, 9, 57, 35
6, 47032, Note_on_c, 9, 51, 58
6, 47036, Note_on_c, 9, 57, 0
6, 47038, Note_on_c, 9, 51, 0
6, 47042, Note_on_c, 9, 36, 56
6, 47073, Note_on_c, 9, 36, 0
6, 47110, Note_on_c, 9, 46, 62
6, 47113, Note_on_c, 9, 36, 74
6, 47159, Note_on_c, 9, 51, 28
6, 47161, Note_on_c, 9, 36, 0
6, 47163, Note_on_c, 9, 44, 56
6, 47165, Note_on_c, 9, 51, 0
6, 47177, Note_on_c, 9, 44, 0
6, 47248, Note_on_c, 9, 46, 0
6, 47279, Note_on_c, 9, 51, 53
6, 47338, Note_on_c, 9, 51, 0
6, 47357, Note_on_c, 9, 53, 31
6, 47363, Note_on_c, 9, 51, 53
6, 47376, Note_on_c, 9, 51, 0
6, 47396, Note_on_c, 9, 53, 0
6, 47409, Note_on_c, 9, 36, 24
6, 47426, Note_on_c, 9, 36, 0
6, 47440, Note_on_c, 9, 44, 43
6, 47447, Note_on_c, 9, 44, 0
6, 47480, Note_on_c, 9, 44, 53
6, 47494, Note_on_c, 9, 36, 9
6, 47495, Note_on_c, 9, 44, 0
6, 47520, Note_on_c, 9, 36, 0
6, 47527, Note_on_c, 9, 51, 46
6, 47560, Note_on_c, 9, 44, 39
6, 47576, Note_on_c, 9, 44, 0
6, 47600, Note_on_c, 9, 44, 50
6, 47619, Note_on_c, 9, 44, 0
6, 47636, Note_on_c, 9, 51, 0
6, 47647, Note_on_c, 9, 51, 38
6, 47680, Note_on_c, 9, 44, 39
6, 47694, Note_on_c, 9, 44, 0
6, 47720, Note_on_c, 9, 44, 45
6, 47737, Note_on_c, 9, 44, 0
6, 47753, Note_on_c, 9, 51, 0
6, 47765, Note_on_c, 9, 51, 47
6, 47840, Note_on_c, 9, 44, 49
6, 47853, Note_on_c, 9, 44, 0
6, 47868, Note_on_c, 9, 51, 0
6, 47880, Note_on_c, 9, 51, 40
6, 47923, Note_on_c, 9, 53, 32
6, 47949, Note_on_c, 9, 53, 0
6, 47960, Note_on_c, 9, 44, 73
6, 47962, Note_on_c, 9, 36, 34
6, 47976, Note_on_c, 9, 44, 0
6, 47988, Note_on_c, 9, 36, 0
6, 47989, Note_on_c, 9, 51, 0
6, 48000, Note_on_c, 9, 44, 68
6, 48001, Note_on_c, 9, 51, 47
6, 48004, Note_on_c, 9, 36, 24
6, 48015, Note_on_c, 9, 44, 0
6, 48020, Note_on_c, 9, 36, 0
6, 48065, Note_on_c, 9, 46, 62
6, 48074, Note_on_c, 9, 36, 44
6, 48103, Note_on_c, 9, 51, 0
6, 48119, Note_on_c, 9, 51, 39
6, 48122, Note_on_c, 9, 36, 0
6, 48179, Note_on_c, 9, 46, 0
6, 48200, Note_on_c, 9, 44, 42
6, 48201, Note_on_c, 9, 51, 0
6, 48207, Note_on_c, 9, 44, 0
6, 48236, Note_on_c, 9, 51, 30
6, 48240, Note_on_c, 9, 44, 50
6, 48256, Note_on_c, 9, 44, 0
6, 48317, Note_on_c, 9, 46, 58
6, 48335, Note_on_c, 9, 51, 0
6, 48360, Note_on_c, 9, 51, 75
6, 48388, Note_on_c, 9, 51, 0
6, 48453, Note_on_c, 9, 53, 18
6, 48465, Note_on_c, 9, 46, 0
6, 48468, Note_on_c, 9, 53, 0
6, 48476, Note_on_c, 9, 51, 60
6, 48494, Note_on_c, 9, 51, 0
6, 48600, Note_on_c, 9, 51, 36
6, 48614, Note_on_c, 9, 51, 0
6, 48680, Note_on_c, 9, 44, 62
6, 48695, Note_on_c, 9, 44, 0
6, 48724, Note_on_c, 9, 51, 50
6, 48800, Note_on_c, 9, 44, 59
6, 48806, Note_on_c, 9, 51, 0
6, 48816, Note_on_c, 9, 44, 0
6, 48836, Note_on_c, 9, 51, 1
6, 48859, Note_on_c, 9, 51, 0
6, 48881, Note_on_c, 9, 45, 59
6, 48895, Note_on_c, 9, 45, 0
6, 48925, Note_on_c, 9, 53, 26
6, 48946, Note_on_c, 9, 53, 0
6, 48957, Note_on_c, 9, 51, 52
6, 48965, Note_on_c, 9, 36, 40
6, 48970, Note_on_c, 9, 51, 0
6, 48996, Note_on_c, 9, 36, 0
6, 49028, Note_on_c, 9, 46, 62
6, 49042, Note_on_c, 9, 36, 49
6, 49069, Note_on_c, 9, 36, 0
6, 49075, Note_on_c, 9, 51, 51
6, 49083, Note_on_c, 9, 44, 28
6, 49086, Note_on_c, 9, 36, 46
6, 49090, Note_on_c, 9, 44, 0
6, 49093, Note_on_c, 9, 51, 0
6, 49124, Note_on_c, 9, 36, 0
6, 49140, Note_on_c, 9, 46, 0
6, 49201, Note_on_c, 9, 51, 51
6, 49219, Note_on_c, 9, 53, 39
6, 49229, Note_on_c, 9, 53, 0
6, 49266, Note_on_c, 9, 51, 0
6, 49282, Note_on_c, 9, 46, 53
6, 49288, Note_on_c, 9, 36, 35
6, 49313, Note_on_c, 9, 36, 0
6, 49327, Note_on_c, 9, 51, 36
6, 49332, Note_on_c, 9, 36, 39
6, 49361, Note_on_c, 9, 36, 0
6, 49382, Note_on_c, 9, 46, 0
6, 49399, Note_on_c, 9, 51, 0
6, 49400, Note_on_c, 9, 44, 31
6, 49412, Note_on_c, 9, 44, 0
6, 49440, Note_on_c, 9, 51, 47
6, 49479, Note_on_c, 9, 53, 47
6, 49485, Note_on_c, 9, 51, 0
6, 49488, Note_on_c, 9, 53, 0
6, 49518, Note_on_c, 9, 51, 54
6, 49545, Note_on_c, 9, 51, 0
6, 49559, Note_on_c, 9, 51, 54
6, 49562, Note_on_c, 9, 44, 62
6, 49577, Note_on_c, 9, 44, 0
6, 49660, Note_on_c, 9, 51, 0
6, 49676, Note_on_c, 9, 51, 43
6, 49774, Note_on_c, 9, 51, 0
6, 49793, Note_on_c, 9, 51, 48
6, 49803, Note_on_c, 9, 44, 55
6, 49817, Note_on_c, 9, 44, 0
6, 49864, Note_on_c, 9, 51, 0
6, 49867, Note_on_c, 9, 36, 39
6, 49885, Note_on_c, 9, 36, 0
6, 49914, Note_on_c, 9, 51, 36
6, 49976, Note_on_c, 9, 51, 0
6, 49990, Note_on_c, 9, 51, 58
6, 49996, Note_on_c, 9, 59, 79
6, 49996, Note_on_c, 9, 46, 53
6, 50015, Note_on_c, 9, 51, 0
6, 50033, Note_on_c, 9, 51, 51
6, 50076, Note_on_c, 9, 59, 0
6, 50098, Note_on_c, 9, 46, 0
6, 50120, Note_on_c, 9, 51, 0
6, 50120, Note_on_c, 9, 44, 36
6, 50135, Note_on_c, 9, 44, 0
6, 50156, Note_on_c, 9, 51, 43
6, 50160, Note_on_c, 9, 44, 39
6, 50173, Note_on_c, 9, 44, 0
6, 50241, Note_on_c, 9, 46, 61
6, 50272, Note_on_c, 9, 51, 0
6, 50289, Note_on_c, 9, 51, 54
6, 50360, Note_on_c, 9, 44, 38
6, 50364, Note_on_c, 9, 46, 0
6, 50364, Note_on_c, 9, 36, 32
6, 50375, Note_on_c, 9, 44, 0
6, 50383, Note_on_c, 9, 36, 0
6, 50387, Note_on_c, 9, 51, 0
6, 50400, Note_on_c, 9, 44, 34
6, 50404, Note_on_c, 9, 51, 44
6, 50412, Note_on_c, 9, 36, 30
6, 50413, Note_on_c, 9, 44, 0
6, 50449, Note_on_c, 9, 36, 0
6, 50477, Note_on_c, 9, 36, 37
6, 50480, Note_on_c, 9, 44, 64
6, 50497, Note_on_c, 9, 44, 0
6, 50502, Note_on_c, 9, 36, 0
6, 50508, Note_on_c, 9, 51, 0
6, 50524, Note_on_c, 9, 51, 37
6, 50600, Note_on_c, 9, 44, 49
6, 50614, Note_on_c, 9, 44, 0
6, 50617, Note_on_c, 9, 51, 0
6, 50636, Note_on_c, 9, 51, 47
6, 50640, Note_on_c, 9, 44, 55
6, 50650, Note_on_c, 9, 44, 0
6, 50719, Note_on_c, 9, 53, 15
6, 50720, Note_on_c, 9, 51, 0
6, 50720, Note_on_c, 9, 44, 47
6, 50734, Note_on_c, 9, 44, 0
6, 50736, Note_on_c, 9, 53, 0
6, 50760, Note_on_c, 9, 44, 31
6, 50761, Note_on_c, 9, 51, 38
6, 50763, Note_on_c, 9, 53, 33
6, 50769, Note_on_c, 9, 44, 0
6, 50787, Note_on_c, 9, 53, 0
6, 50815, Note_on_c, 9, 51, 0
6, 50832, Note_on_c, 9, 51, 64
6, 50928, Note_on_c, 9, 36, 28
6, 50944, Note_on_c, 9, 36, 0
6, 50951, Note_on_c, 9, 51, 0
6, 50960, Note_on_c, 9, 44, 78
6, 50960, Note_on_c, 9, 59, 96
6, 50963, Note_on_c, 9, 36, 34
6, 50991, Note_on_c, 9, 36, 0
6, 51000, Note_on_c, 9, 51, 34
6, 51007, Note_on_c, 9, 36, 47
6, 51022, Note_on_c, 9, 51, 0
6, 51055, Note_on_c, 9, 59, 0
6, 51060, Note_on_c, 9, 36, 0
6, 51075, Note_on_c, 9, 59, 62
6, 51076, Note_on_c, 9, 51, 48
6, 51077, Note_on_c, 9, 44, 0
6, 51085, Note_on_c, 9, 46, 36
6, 51092, Note_on_c, 9, 59, 0
6, 51100, Note_on_c, 9, 46, 0
6, 51105, Note_on_c, 9, 51, 0
6, 51116, Note_on_c, 9, 59, 66
6, 51123, Note_on_c, 9, 51, 47
6, 51127, Note_on_c, 9, 59, 0
6, 51131, Note_on_c, 9, 46, 37
6, 51144, Note_on_c, 9, 46, 0
6, 51145, Note_on_c, 9, 51, 0
6, 51197, Note_on_c, 9, 36, 34
6, 51201, Note_on_c, 9, 51, 40
6, 51207, Note_on_c, 9, 51, 0
6, 51207, Note_on_c, 9, 59, 75
6, 51217, Note_on_c, 9, 59, 0
6, 51221, Note_on_c, 9, 36, 0
6, 51243, Note_on_c, 9, 44, 74
6, 51245, Note_on_c, 9, 51, 67
6, 51245, Note_on_c, 9, 36, 41
6, 51262, Note_on_c, 9, 44, 0
6, 51290, Note_on_c, 9, 36, 0
6, 51317, Note_on_c, 9, 46, 27
6, 51319, Note_on_c, 9, 51, 0
6, 51321, Note_on_c, 9, 36, 55
6, 51328, Note_on_c, 9, 46, 0
6, 51355, Note_on_c, 9, 36, 0
6, 51365, Note_on_c, 9, 36, 32
6, 51366, Note_on_c, 9, 46, 39
6, 51367, Note_on_c, 9, 51, 57
6, 51379, Note_on_c, 9, 46, 0
6, 51419, Note_on_c, 9, 36, 0
6, 51470, Note_on_c, 9, 51, 0
6, 51482, Note_on_c, 9, 44, 58
6, 51484, Note_on_c, 9, 51, 50
6, 51495, Note_on_c, 9, 44, 0
6, 51561, Note_on_c, 9, 59, 76
6, 51564, Note_on_c, 9, 36, 41
6, 51565, Note_on_c, 9, 46, 34
6, 51567, Note_on_c, 9, 59, 0
6, 51574, Note_on_c, 9, 46, 0
6, 51585, Note_on_c, 9, 51, 0
6, 51597, Note_on_c, 9, 36, 0
6, 51601, Note_on_c, 9, 51, 50
6, 51612, Note_on_c, 9, 36, 53
6, 51649, Note_on_c, 9, 36, 0
6, 51678, Note_on_c, 9, 59, 80
6, 51679, Note_on_c, 9, 46, 44
6, 51681, Note_on_c, 9, 53, 57
6, 51688, Note_on_c, 9, 59, 0
6, 51694, Note_on_c, 9, 46, 0
6, 51697, Note_on_c, 9, 51, 0
6, 51712, Note_on_c, 9, 53, 0
6, 51718, Note_on_c, 9, 51, 52
6, 51720, Note_on_c, 9, 44, 50
6, 51727, Note_on_c, 9, 36, 26
6, 51733, Note_on_c, 9, 44, 0
6, 51746, Note_on_c, 9, 36, 0
6, 51793, Note_on_c, 9, 36, 52
6, 51804, Note_on_c, 9, 51, 0
6, 51826, Note_on_c, 9, 36, 0
6, 51832, Note_on_c, 9, 51, 53
6, 51914, Note_on_c, 9, 59, 78
6, 51920, Note_on_c, 9, 44, 60
6, 51929, Note_on_c, 9, 51, 0
6, 51932, Note_on_c, 9, 59, 0
6, 51952, Note_on_c, 9, 51, 54
6, 51955, Note_on_c, 9, 44, 0
6, 51956, Note_on_c, 9, 59, 61
6, 51960, Note_on_c, 9, 44, 54
6, 51970, Note_on_c, 9, 59, 0
6, 51995, Note_on_c, 9, 44, 0
6, 52049, Note_on_c, 9, 51, 0
6, 52072, Note_on_c, 9, 51, 50
6, 52154, Note_on_c, 9, 59, 68
6, 52155, Note_on_c, 9, 53, 46
6, 52160, Note_on_c, 9, 59, 0
6, 52160, Note_on_c, 9, 44, 63
6, 52175, Note_on_c, 9, 44, 0
6, 52182, Note_on_c, 9, 53, 0
6, 52184, Note_on_c, 9, 51, 0
6, 52196, Note_on_c, 9, 51, 44
6, 52202, Note_on_c, 9, 36, 24
6, 52216, Note_on_c, 9, 36, 0
6, 52271, Note_on_c, 9, 36, 34
6, 52272, Note_on_c, 9, 51, 0
6, 52292, Note_on_c, 9, 36, 0
6, 52315, Note_on_c, 9, 51, 41
6, 52390, Note_on_c, 9, 53, 34
6, 52395, Note_on_c, 9, 46, 59
6, 52400, Note_on_c, 9, 51, 0
6, 52416, Note_on_c, 9, 53, 0
6, 52431, Note_on_c, 9, 51, 56
6, 52439, Note_on_c, 9, 36, 20
6, 52443, Note_on_c, 9, 44, 51
6, 52457, Note_on_c, 9, 44, 0
6, 52462, Note_on_c, 9, 36, 0
6, 52492, Note_on_c, 9, 51, 0
6, 52504, Note_on_c, 9, 46, 0
6, 52507, Note_on_c, 9, 36, 35
6, 52514, Note_on_c, 9, 51, 51
6, 52526, Note_on_c, 9, 36, 0
6, 52532, Note_on_c, 9, 51, 0
6, 52557, Note_on_c, 9, 46, 58
6, 52557, Note_on_c, 9, 51, 50
6, 52616, Note_on_c, 9, 46, 0
6, 52634, Note_on_c, 9, 46, 54
6, 52636, Note_on_c, 9, 53, 85
6, 52639, Note_on_c, 9, 51, 0
6, 52656, Note_on_c, 9, 46, 0
6, 52659, Note_on_c, 9, 53, 0
6, 52677, Note_on_c, 9, 51, 24
6, 52680, Note_on_c, 9, 44, 53
6, 52685, Note_on_c, 9, 51, 0
6, 52693, Note_on_c, 9, 44, 0
6, 52698, Note_on_c, 9, 53, 27
6, 52707, Note_on_c, 9, 53, 0
6, 52716, Note_on_c, 9, 53, 33
6, 52726, Note_on_c, 9, 53, 70
6, 52735, Note_on_c, 9, 53, 0
6, 52741, Note_on_c, 9, 53, 0
6, 52756, Note_on_c, 9, 36, 27
6, 52764, Note_on_c, 9, 51, 40
6, 52771, Note_on_c, 9, 51, 0
6, 52772, Note_on_c, 9, 36, 0
6, 52798, Note_on_c, 9, 51, 54
6, 52805, Note_on_c, 9, 59, 73
6, 52816, Note_on_c, 9, 59, 0
6, 52829, Note_on_c, 9, 51, 0
6, 53002, Note_on_c, 9, 59, 66
6, 53014, Note_on_c, 9, 59, 0
6, 53045, Note_on_c, 9, 59, 64
6, 53060, Note_on_c, 9, 59, 0
6, 53120, Note_on_c, 9, 44, 62
6, 53124, Note_on_c, 9, 59, 73
6, 53125, Note_on_c, 9, 36, 27
6, 53129, Note_on_c, 9, 59, 0
6, 53132, Note_on_c, 9, 44, 0
6, 53145, Note_on_c, 9, 36, 0
6, 53169, Note_on_c, 9, 59, 74
6, 53175, Note_on_c, 9, 59, 0
6, 53179, Note_on_c, 9, 36, 27
6, 53194, Note_on_c, 9, 36, 0
6, 53244, Note_on_c, 9, 59, 63
6, 53246, Note_on_c, 9, 36, 51
6, 53249, Note_on_c, 9, 59, 0
6, 53288, Note_on_c, 9, 36, 0
6, 53320, Note_on_c, 9, 44, 50
6, 53326, Note_on_c, 9, 44, 0
6, 53360, Note_on_c, 9, 44, 62
6, 53370, Note_on_c, 9, 44, 0
6, 53371, Note_on_c, 9, 59, 49
6, 53377, Note_on_c, 9, 59, 0
6, 53414, Note_on_c, 9, 59, 70
6, 53419, Note_on_c, 9, 59, 0
6, 53440, Note_on_c, 9, 44, 50
6, 53447, Note_on_c, 9, 44, 0
6, 53480, Note_on_c, 9, 44, 60
6, 53482, Note_on_c, 9, 59, 94
6, 53491, Note_on_c, 9, 44, 0
6, 53492, Note_on_c, 9, 59, 0
6, 53600, Note_on_c, 9, 44, 58
6, 53608, Note_on_c, 9, 59, 67
6, 53612, Note_on_c, 9, 44, 0
6, 53614, Note_on_c, 9, 59, 0
6, 53648, Note_on_c, 9, 59, 74
6, 53659, Note_on_c, 9, 59, 0
6, 53678, Note_on_c, 9, 53, 57
6, 53686, Note_on_c, 9, 53, 0
6, 53723, Note_on_c, 9, 36, 33
6, 53724, Note_on_c, 9, 59, 66
6, 53730, Note_on_c, 9, 59, 0
6, 53748, Note_on_c, 9, 36, 0
6, 53764, Note_on_c, 9, 36, 24
6, 53767, Note_on_c, 9, 59, 70
6, 53778, Note_on_c, 9, 59, 0
6, 53797, Note_on_c, 9, 36, 0
6, 53880, Note_on_c, 9, 44, 35
6, 53895, Note_on_c, 9, 44, 0
6, 53953, Note_on_c, 9, 59, 66
6, 53964, Note_on_c, 9, 59, 0
6, 53998, Note_on_c, 9, 59, 71
6, 54020, Note_on_c, 9, 59, 0
6, 54081, Note_on_c, 9, 59, 64
6, 54088, Note_on_c, 9, 59, 0
6, 54120, Note_on_c, 9, 44, 82
6, 54132, Note_on_c, 9, 44, 0
6, 54210, Note_on_c, 9, 59, 66
6, 54219, Note_on_c, 9, 59, 0
6, 54286, Note_on_c, 9, 59, 55
6, 54293, Note_on_c, 9, 59, 0
6, 54326, Note_on_c, 9, 59, 82
6, 54341, Note_on_c, 9, 59, 0
6, 54360, Note_on_c, 9, 44, 69
6, 54371, Note_on_c, 9, 44, 0
6, 54408, Note_on_c, 9, 59, 54
6, 54414, Note_on_c, 9, 59, 0
6, 54448, Note_on_c, 9, 59, 91
6, 54465, Note_on_c, 9, 59, 0
6, 54534, Note_on_c, 9, 59, 64
6, 54541, Note_on_c, 9, 59, 0
6, 54573, Note_on_c, 9, 59, 81
6, 54583, Note_on_c, 9, 59, 0
6, 54600, Note_on_c, 9, 44, 68
6, 54611, Note_on_c, 9, 44, 0
6, 54619, Note_on_c, 9, 59, 94
6, 54632, Note_on_c, 9, 59, 0
6, 54656, Note_on_c, 9, 59, 73
6, 54666, Note_on_c, 9, 59, 0
6, 54695, Note_on_c, 9, 59, 82
6, 54710, Note_on_c, 9, 59, 0
6, 54742, Note_on_c, 9, 59, 96
6, 54748, Note_on_c, 9, 57, 39
6, 54756, Note_on_c, 9, 36, 26
6, 54866, Note_on_c, 9, 57, 0
6, 55072, Note_on_c, 9, 36, 0
6, 55248, Note_on_c, 9, 59, 0
6, 55248, End_track
7, 0, Start_track
7, 0, Title_t, "Cakewalk TTS-1 1 Output 1"
7, 120, Control_c, 0, 7, 101
7, 120, Control_c, 0, 10, 64
7, 120, End_track
8, 0, Start_track
8, 0, Title_t, "Cakewalk TTS-1 1"
8, 0, End_track
0, 0, End_of_file
