0, 0, Header, 1, 3, 120
1, 0, Start_track
1, 0, Title_t, "Goin'Home(Dvorak)"
1, 0, Copyright_t, "Copyright © 1998 by Doug McKenzie"
1, 0, Text_t, "Doug McKenzie"
1, 0, Text_t, "Recorded in real time.  dougmck@pipeline.com.au\012"
1, 0, Time_signature, 4, 2, 24, 8
1, 0, Key_signature, 0, "major"
1, 0, Tempo, 779221
1, 0, Marker_t, "Recorded in real time  dougmck@pipeline.com.au"
1, 0, End_track
2, 0, Start_track
2, 0, MIDI_port, 0
2, 0, Title_t, "Piano"
2, 0, Program_c, 0, 0
2, 0, Control_c, 0, 64, 127
2, 60, Note_on_c, 0, 76, 54
2, 61, Note_on_c, 0, 74, 60
2, 64, Note_on_c, 0, 62, 34
2, 66, Note_on_c, 0, 64, 33
2, 66, Note_on_c, 0, 67, 30
2, 135, Note_on_c, 0, 76, 0
2, 141, Note_on_c, 0, 79, 51
2, 148, Note_on_c, 0, 74, 0
2, 199, Note_on_c, 0, 79, 0
2, 236, Note_on_c, 0, 79, 48
2, 362, Note_on_c, 0, 67, 0
2, 366, Note_on_c, 0, 64, 0
2, 366, Note_on_c, 0, 79, 0
2, 368, Note_on_c, 0, 62, 0
2, 459, Note_on_c, 0, 67, 72
2, 459, Note_on_c, 0, 76, 79
2, 496, Note_on_c, 0, 76, 0
2, 523, Note_on_c, 0, 67, 0
2, 560, Note_on_c, 0, 65, 64
2, 560, Note_on_c, 0, 74, 62
2, 566, Note_on_c, 0, 56, 45
2, 575, Control_c, 0, 64, 0
2, 604, Control_c, 0, 64, 127
2, 649, Note_on_c, 0, 74, 0
2, 660, Note_on_c, 0, 65, 0
2, 697, Note_on_c, 0, 56, 0
2, 711, Note_on_c, 0, 72, 48
2, 713, Note_on_c, 0, 64, 39
2, 715, Control_c, 0, 64, 0
2, 716, Note_on_c, 0, 57, 34
2, 736, Control_c, 0, 64, 127
2, 776, Note_on_c, 0, 57, 0
2, 939, Note_on_c, 0, 21, 40
2, 941, Note_on_c, 0, 33, 29
2, 1021, Note_on_c, 0, 21, 0
2, 1027, Note_on_c, 0, 33, 0
2, 1031, Note_on_c, 0, 64, 0
2, 1032, Note_on_c, 0, 72, 0
2, 1395, Note_on_c, 0, 74, 48
2, 1397, Note_on_c, 0, 64, 40
2, 1397, Note_on_c, 0, 67, 44
2, 1401, Note_on_c, 0, 62, 24
2, 1448, Note_on_c, 0, 74, 0
2, 1454, Note_on_c, 0, 67, 0
2, 1600, Note_on_c, 0, 50, 28
2, 1627, Note_on_c, 0, 64, 0
2, 1751, Note_on_c, 0, 76, 56
2, 1760, Note_on_c, 0, 62, 0
2, 1776, Note_on_c, 0, 76, 0
2, 1862, Note_on_c, 0, 79, 74
2, 1863, Note_on_c, 0, 67, 61
2, 1867, Note_on_c, 0, 60, 40
2, 1888, Note_on_c, 0, 50, 0
2, 1933, Note_on_c, 0, 79, 0
2, 1977, Note_on_c, 0, 60, 0
2, 1988, Note_on_c, 0, 67, 0
2, 2134, Note_on_c, 0, 76, 60
2, 2135, Note_on_c, 0, 68, 60
2, 2136, Note_on_c, 0, 64, 52
2, 2137, Note_on_c, 0, 72, 60
2, 2137, Note_on_c, 0, 54, 50
2, 2137, Note_on_c, 0, 60, 44
2, 2178, Note_on_c, 0, 54, 0
2, 2181, Note_on_c, 0, 64, 0
2, 2187, Note_on_c, 0, 60, 0
2, 2192, Note_on_c, 0, 68, 0
2, 2194, Note_on_c, 0, 72, 0
2, 2200, Note_on_c, 0, 76, 0
2, 2232, Control_c, 0, 64, 0
2, 2233, Note_on_c, 0, 74, 46
2, 2234, Note_on_c, 0, 55, 32
2, 2234, Note_on_c, 0, 65, 36
2, 2235, Note_on_c, 0, 62, 37
2, 2235, Note_on_c, 0, 69, 52
2, 2235, Note_on_c, 0, 72, 44
2, 2256, Control_c, 0, 64, 127
2, 2269, Note_on_c, 0, 62, 0
2, 2275, Note_on_c, 0, 55, 0
2, 2366, Note_on_c, 0, 43, 32
2, 2367, Note_on_c, 0, 31, 33
2, 2391, Note_on_c, 0, 31, 0
2, 2399, Note_on_c, 0, 72, 0
2, 2399, Note_on_c, 0, 69, 0
2, 2402, Note_on_c, 0, 43, 0
2, 2405, Note_on_c, 0, 74, 0
2, 2408, Note_on_c, 0, 65, 0
2, 2569, Note_on_c, 0, 62, 27
2, 2572, Note_on_c, 0, 57, 34
2, 2572, Note_on_c, 0, 60, 32
2, 2574, Note_on_c, 0, 43, 24
2, 2575, Note_on_c, 0, 53, 24
2, 2577, Note_on_c, 0, 50, 28
2, 2706, Note_on_c, 0, 53, 0
2, 2729, Note_on_c, 0, 43, 0
2, 2769, Note_on_c, 0, 57, 0
2, 2802, Note_on_c, 0, 60, 0
2, 2804, Note_on_c, 0, 50, 0
2, 2815, Note_on_c, 0, 62, 0
2, 2899, Note_on_c, 0, 58, 31
2, 2899, Note_on_c, 0, 63, 37
2, 2900, Note_on_c, 0, 67, 31
2, 2902, Note_on_c, 0, 53, 30
2, 2904, Note_on_c, 0, 59, 17
2, 2904, Note_on_c, 0, 49, 25
2, 2937, Note_on_c, 0, 59, 0
2, 2942, Note_on_c, 0, 53, 0
2, 2947, Note_on_c, 0, 67, 0
2, 2948, Note_on_c, 0, 58, 0
2, 2959, Note_on_c, 0, 49, 0
2, 2964, Note_on_c, 0, 63, 0
2, 2999, Note_on_c, 0, 57, 25
2, 2999, Note_on_c, 0, 62, 35
2, 2999, Note_on_c, 0, 67, 27
2, 3003, Note_on_c, 0, 48, 25
2, 3004, Note_on_c, 0, 55, 32
2, 3004, Control_c, 0, 64, 0
2, 3052, Control_c, 0, 64, 127
2, 3059, Note_on_c, 0, 57, 0
2, 3078, Note_on_c, 0, 62, 0
2, 3088, Note_on_c, 0, 67, 0
2, 3132, Note_on_c, 0, 60, 38
2, 3155, Note_on_c, 0, 55, 0
2, 3205, Note_on_c, 0, 76, 90
2, 3217, Note_on_c, 0, 48, 0
2, 3238, Note_on_c, 0, 60, 0
2, 3246, Note_on_c, 0, 76, 0
2, 3274, Note_on_c, 0, 79, 101
2, 3323, Note_on_c, 0, 79, 0
2, 3358, Note_on_c, 0, 79, 83
2, 3362, Note_on_c, 0, 57, 46
2, 3362, Note_on_c, 0, 63, 46
2, 3362, Note_on_c, 0, 68, 51
2, 3363, Note_on_c, 0, 74, 72
2, 3363, Note_on_c, 0, 71, 71
2, 3365, Control_c, 0, 64, 0
2, 3398, Control_c, 0, 64, 127
2, 3421, Note_on_c, 0, 63, 0
2, 3451, Note_on_c, 0, 68, 0
2, 3451, Note_on_c, 0, 63, 36
2, 3457, Note_on_c, 0, 74, 0
2, 3467, Note_on_c, 0, 71, 0
2, 3538, Note_on_c, 0, 74, 33
2, 3539, Note_on_c, 0, 71, 28
2, 3539, Note_on_c, 0, 67, 20
2, 3587, Note_on_c, 0, 67, 0
2, 3594, Note_on_c, 0, 71, 0
2, 3597, Note_on_c, 0, 74, 0
2, 3613, Note_on_c, 0, 79, 0
2, 3804, Note_on_c, 0, 79, 65
2, 3840, Note_on_c, 0, 79, 0
2, 3874, Note_on_c, 0, 57, 0
2, 3874, Note_on_c, 0, 79, 55
2, 3886, Note_on_c, 0, 79, 0
2, 3905, Note_on_c, 0, 79, 40
2, 3916, Note_on_c, 0, 63, 0
2, 3920, Note_on_c, 0, 79, 0
2, 3950, Note_on_c, 0, 84, 57
2, 3950, Note_on_c, 0, 56, 37
2, 3951, Note_on_c, 0, 76, 43
2, 3952, Note_on_c, 0, 67, 30
2, 3952, Note_on_c, 0, 62, 33
2, 3952, Note_on_c, 0, 72, 39
2, 3952, Note_on_c, 0, 79, 51
2, 3954, Control_c, 0, 64, 0
2, 3978, Control_c, 0, 64, 127
2, 3986, Note_on_c, 0, 76, 0
2, 3989, Note_on_c, 0, 79, 0
2, 3992, Note_on_c, 0, 84, 0
2, 3999, Note_on_c, 0, 72, 0
2, 4018, Note_on_c, 0, 86, 61
2, 4036, Note_on_c, 0, 62, 0
2, 4036, Note_on_c, 0, 67, 0
2, 4042, Note_on_c, 0, 86, 0
2, 4056, Note_on_c, 0, 56, 0
2, 4205, Note_on_c, 0, 76, 34
2, 4206, Note_on_c, 0, 88, 38
2, 4207, Note_on_c, 0, 84, 54
2, 4209, Note_on_c, 0, 81, 46
2, 4209, Note_on_c, 0, 55, 38
2, 4211, Note_on_c, 0, 61, 27
2, 4212, Note_on_c, 0, 60, 41
2, 4213, Note_on_c, 0, 65, 27
2, 4222, Control_c, 0, 64, 0
2, 4262, Control_c, 0, 64, 127
2, 4283, Note_on_c, 0, 65, 0
2, 4283, Note_on_c, 0, 60, 0
2, 4290, Note_on_c, 0, 55, 0
2, 4290, Note_on_c, 0, 61, 0
2, 4371, Note_on_c, 0, 33, 50
2, 4385, Note_on_c, 0, 33, 0
2, 4479, Note_on_c, 0, 88, 0
2, 4483, Note_on_c, 0, 84, 0
2, 4485, Note_on_c, 0, 81, 0
2, 4495, Note_on_c, 0, 76, 0
2, 4733, Note_on_c, 0, 74, 48
2, 4734, Note_on_c, 0, 55, 33
2, 4736, Note_on_c, 0, 72, 47
2, 4737, Note_on_c, 0, 65, 35
2, 4737, Note_on_c, 0, 69, 52
2, 4738, Control_c, 0, 64, 0
2, 4738, Note_on_c, 0, 60, 45
2, 4757, Control_c, 0, 64, 127
2, 4769, Note_on_c, 0, 74, 0
2, 4774, Note_on_c, 0, 72, 0
2, 4791, Note_on_c, 0, 65, 0
2, 4796, Note_on_c, 0, 69, 0
2, 4798, Note_on_c, 0, 60, 0
2, 4801, Note_on_c, 0, 76, 62
2, 4808, Note_on_c, 0, 55, 0
2, 4821, Note_on_c, 0, 76, 0
2, 4884, Control_c, 0, 64, 0
2, 4885, Note_on_c, 0, 43, 37
2, 4887, Note_on_c, 0, 74, 36
2, 4888, Note_on_c, 0, 68, 36
2, 4889, Note_on_c, 0, 65, 28
2, 4889, Note_on_c, 0, 71, 39
2, 4906, Control_c, 0, 64, 127
2, 4958, Note_on_c, 0, 71, 0
2, 4964, Note_on_c, 0, 74, 0
2, 4966, Note_on_c, 0, 68, 0
2, 4973, Note_on_c, 0, 65, 0
2, 5050, Note_on_c, 0, 43, 0
2, 5230, Note_on_c, 0, 69, 42
2, 5244, Note_on_c, 0, 69, 0
2, 5300, Note_on_c, 0, 72, 26
2, 5302, Note_on_c, 0, 48, 34
2, 5303, Note_on_c, 0, 69, 40
2, 5304, Note_on_c, 0, 65, 36
2, 5304, Note_on_c, 0, 60, 40
2, 5307, Note_on_c, 0, 57, 31
2, 5309, Control_c, 0, 64, 0
2, 5338, Control_c, 0, 64, 127
2, 5376, Note_on_c, 0, 65, 0
2, 5377, Note_on_c, 0, 57, 0
2, 5381, Note_on_c, 0, 60, 0
2, 5424, Note_on_c, 0, 65, 35
2, 5426, Note_on_c, 0, 60, 20
2, 5466, Note_on_c, 0, 72, 0
2, 5471, Note_on_c, 0, 69, 0
2, 5506, Note_on_c, 0, 48, 0
2, 5515, Note_on_c, 0, 65, 0
2, 5533, Note_on_c, 0, 60, 0
2, 5651, Note_on_c, 0, 67, 33
2, 5654, Note_on_c, 0, 64, 26
2, 5655, Note_on_c, 0, 57, 29
2, 5655, Note_on_c, 0, 43, 34
2, 5655, Note_on_c, 0, 60, 37
2, 5657, Control_c, 0, 64, 0
2, 5659, Note_on_c, 0, 53, 19
2, 5695, Control_c, 0, 64, 127
2, 5706, Note_on_c, 0, 53, 0
2, 5720, Note_on_c, 0, 43, 0
2, 5729, Note_on_c, 0, 64, 0
2, 5732, Note_on_c, 0, 60, 0
2, 5736, Note_on_c, 0, 57, 0
2, 5736, Note_on_c, 0, 67, 0
2, 5985, Note_on_c, 0, 64, 32
2, 5985, Note_on_c, 0, 68, 38
2, 5986, Note_on_c, 0, 71, 38
2, 5987, Note_on_c, 0, 53, 40
2, 5988, Note_on_c, 0, 59, 31
2, 5992, Control_c, 0, 64, 0
2, 5997, Control_c, 0, 64, 127
2, 6037, Note_on_c, 0, 53, 0
2, 6039, Note_on_c, 0, 59, 0
2, 6040, Note_on_c, 0, 64, 0
2, 6051, Note_on_c, 0, 68, 0
2, 6067, Note_on_c, 0, 71, 0
2, 6259, Note_on_c, 0, 67, 27
2, 6259, Note_on_c, 0, 62, 27
2, 6260, Note_on_c, 0, 57, 27
2, 6264, Note_on_c, 0, 52, 30
2, 6269, Control_c, 0, 64, 0
2, 6298, Control_c, 0, 64, 127
2, 6308, Note_on_c, 0, 57, 0
2, 6320, Note_on_c, 0, 62, 0
2, 6326, Note_on_c, 0, 67, 0
2, 6366, Note_on_c, 0, 52, 0
2, 6382, Note_on_c, 0, 76, 83
2, 6417, Note_on_c, 0, 76, 0
2, 6487, Note_on_c, 0, 79, 75
2, 6589, Note_on_c, 0, 64, 32
2, 6660, Note_on_c, 0, 67, 58
2, 6661, Note_on_c, 0, 79, 0
2, 6702, Note_on_c, 0, 79, 71
2, 6708, Note_on_c, 0, 67, 0
2, 6723, Note_on_c, 0, 64, 0
2, 6730, Note_on_c, 0, 79, 0
2, 6750, Note_on_c, 0, 76, 55
2, 6750, Note_on_c, 0, 67, 48
2, 6752, Note_on_c, 0, 55, 43
2, 6754, Note_on_c, 0, 64, 22
2, 6759, Control_c, 0, 64, 0
2, 6775, Control_c, 0, 64, 127
2, 6783, Note_on_c, 0, 76, 0
2, 6787, Note_on_c, 0, 55, 0
2, 6792, Note_on_c, 0, 67, 0
2, 6798, Note_on_c, 0, 64, 0
2, 6818, Note_on_c, 0, 74, 45
2, 6820, Note_on_c, 0, 56, 43
2, 6821, Note_on_c, 0, 65, 44
2, 6824, Control_c, 0, 64, 0
2, 6825, Note_on_c, 0, 68, 33
2, 6832, Note_on_c, 0, 68, 0
2, 6841, Control_c, 0, 64, 127
2, 6851, Note_on_c, 0, 74, 0
2, 6861, Note_on_c, 0, 65, 0
2, 6862, Note_on_c, 0, 56, 0
2, 6893, Note_on_c, 0, 64, 46
2, 6893, Note_on_c, 0, 72, 43
2, 6895, Control_c, 0, 64, 0
2, 6896, Note_on_c, 0, 57, 44
2, 6914, Control_c, 0, 64, 127
2, 6915, Note_on_c, 0, 64, 0
2, 6955, Note_on_c, 0, 72, 0
2, 6963, Note_on_c, 0, 64, 24
2, 6975, Note_on_c, 0, 64, 0
2, 6981, Note_on_c, 0, 57, 0
2, 7034, Note_on_c, 0, 74, 45
2, 7035, Control_c, 0, 64, 0
2, 7035, Note_on_c, 0, 69, 36
2, 7037, Note_on_c, 0, 67, 40
2, 7037, Note_on_c, 0, 64, 38
2, 7038, Note_on_c, 0, 50, 36
2, 7039, Note_on_c, 0, 60, 22
2, 7060, Control_c, 0, 64, 127
2, 7066, Note_on_c, 0, 69, 0
2, 7070, Note_on_c, 0, 67, 0
2, 7073, Note_on_c, 0, 74, 0
2, 7115, Note_on_c, 0, 57, 32
2, 7115, Note_on_c, 0, 76, 55
2, 7138, Note_on_c, 0, 64, 0
2, 7145, Note_on_c, 0, 60, 0
2, 7152, Note_on_c, 0, 76, 0
2, 7167, Note_on_c, 0, 57, 0
2, 7183, Note_on_c, 0, 50, 0
2, 7239, Note_on_c, 0, 79, 54
2, 7241, Note_on_c, 0, 44, 47
2, 7241, Control_c, 0, 64, 0
2, 7251, Control_c, 0, 64, 127
2, 7266, Note_on_c, 0, 44, 0
2, 7359, Note_on_c, 0, 65, 34
2, 7359, Note_on_c, 0, 72, 37
2, 7361, Note_on_c, 0, 54, 33
2, 7362, Note_on_c, 0, 60, 25
2, 7433, Note_on_c, 0, 79, 0
2, 7460, Note_on_c, 0, 72, 0
2, 7508, Note_on_c, 0, 65, 0
2, 7530, Note_on_c, 0, 76, 55
2, 7542, Note_on_c, 0, 54, 0
2, 7546, Note_on_c, 0, 60, 0
2, 7582, Note_on_c, 0, 76, 0
2, 7638, Note_on_c, 0, 74, 70
2, 7664, Note_on_c, 0, 74, 0
2, 7680, Note_on_c, 0, 76, 62
2, 7706, Note_on_c, 0, 76, 0
2, 7733, Note_on_c, 0, 74, 43
2, 7734, Note_on_c, 0, 69, 47
2, 7735, Note_on_c, 0, 65, 29
2, 7737, Note_on_c, 0, 55, 34
2, 7738, Control_c, 0, 64, 0
2, 7741, Note_on_c, 0, 64, 14
2, 7764, Control_c, 0, 64, 127
2, 7779, Note_on_c, 0, 69, 0
2, 7780, Note_on_c, 0, 74, 0
2, 7781, Note_on_c, 0, 65, 0
2, 7782, Note_on_c, 0, 64, 0
2, 7797, Note_on_c, 0, 55, 0
2, 7834, Note_on_c, 0, 60, 58
2, 7853, Note_on_c, 0, 60, 0
2, 7895, Note_on_c, 0, 60, 54
2, 7917, Note_on_c, 0, 60, 0
2, 7949, Note_on_c, 0, 60, 54
2, 7971, Note_on_c, 0, 60, 0
2, 8032, Note_on_c, 0, 43, 36
2, 8033, Note_on_c, 0, 62, 32
2, 8033, Note_on_c, 0, 60, 39
2, 8034, Note_on_c, 0, 57, 33
2, 8035, Note_on_c, 0, 53, 22
2, 8039, Control_c, 0, 64, 0
2, 8068, Control_c, 0, 64, 127
2, 8110, Note_on_c, 0, 60, 0
2, 8116, Note_on_c, 0, 62, 0
2, 8117, Note_on_c, 0, 57, 0
2, 8122, Note_on_c, 0, 53, 0
2, 8131, Note_on_c, 0, 62, 35
2, 8155, Note_on_c, 0, 43, 0
2, 8252, Note_on_c, 0, 62, 0
2, 8374, Note_on_c, 0, 59, 48
2, 8374, Control_c, 0, 64, 0
2, 8374, Note_on_c, 0, 63, 39
2, 8375, Note_on_c, 0, 67, 41
2, 8378, Note_on_c, 0, 53, 32
2, 8396, Control_c, 0, 64, 127
2, 8413, Note_on_c, 0, 53, 0
2, 8419, Note_on_c, 0, 67, 0
2, 8423, Note_on_c, 0, 59, 0
2, 8432, Note_on_c, 0, 63, 0
2, 8471, Note_on_c, 0, 62, 35
2, 8472, Note_on_c, 0, 67, 36
2, 8472, Note_on_c, 0, 57, 34
2, 8476, Note_on_c, 0, 52, 26
2, 8478, Control_c, 0, 64, 0
2, 8514, Control_c, 0, 64, 127
2, 8521, Note_on_c, 0, 57, 0
2, 8532, Note_on_c, 0, 62, 0
2, 8538, Note_on_c, 0, 67, 0
2, 8585, Note_on_c, 0, 52, 0
2, 8587, Note_on_c, 0, 76, 81
2, 8617, Note_on_c, 0, 76, 0
2, 8651, Note_on_c, 0, 79, 92
2, 8723, Note_on_c, 0, 79, 0
2, 8798, Note_on_c, 0, 68, 39
2, 8800, Note_on_c, 0, 74, 47
2, 8800, Note_on_c, 0, 63, 34
2, 8800, Note_on_c, 0, 71, 44
2, 8802, Control_c, 0, 64, 0
2, 8802, Note_on_c, 0, 57, 39
2, 8827, Control_c, 0, 64, 127
2, 8868, Note_on_c, 0, 79, 64
2, 8938, Note_on_c, 0, 79, 0
2, 8955, Note_on_c, 0, 79, 39
2, 9003, Note_on_c, 0, 79, 0
2, 9059, Note_on_c, 0, 79, 34
2, 9072, Note_on_c, 0, 71, 0
2, 9078, Note_on_c, 0, 74, 0
2, 9089, Note_on_c, 0, 79, 0
2, 9090, Note_on_c, 0, 57, 0
2, 9092, Note_on_c, 0, 68, 0
2, 9093, Note_on_c, 0, 63, 0
2, 9208, Note_on_c, 0, 84, 63
2, 9215, Note_on_c, 0, 79, 48
2, 9218, Note_on_c, 0, 76, 63
2, 9224, Note_on_c, 0, 62, 34
2, 9224, Note_on_c, 0, 56, 43
2, 9225, Note_on_c, 0, 67, 39
2, 9233, Note_on_c, 0, 72, 57
2, 9236, Control_c, 0, 64, 0
2, 9267, Control_c, 0, 64, 127
2, 9284, Note_on_c, 0, 84, 0
2, 9294, Note_on_c, 0, 76, 0
2, 9297, Note_on_c, 0, 79, 0
2, 9301, Note_on_c, 0, 72, 0
2, 9399, Note_on_c, 0, 86, 55
2, 9400, Note_on_c, 0, 74, 41
2, 9402, Note_on_c, 0, 67, 0
2, 9407, Note_on_c, 0, 62, 0
2, 9433, Note_on_c, 0, 56, 0
2, 9434, Note_on_c, 0, 74, 0
2, 9442, Note_on_c, 0, 86, 0
2, 9507, Note_on_c, 0, 88, 60
2, 9509, Note_on_c, 0, 76, 37
2, 9510, Note_on_c, 0, 55, 43
2, 9511, Note_on_c, 0, 65, 28
2, 9512, Note_on_c, 0, 61, 26
2, 9512, Note_on_c, 0, 60, 42
2, 9513, Note_on_c, 0, 81, 36
2, 9515, Control_c, 0, 64, 0
2, 9553, Control_c, 0, 64, 127
2, 9565, Note_on_c, 0, 65, 0
2, 9568, Note_on_c, 0, 60, 0
2, 9570, Note_on_c, 0, 61, 0
2, 9575, Note_on_c, 0, 55, 0
2, 9820, Note_on_c, 0, 33, 38
2, 9835, Note_on_c, 0, 76, 0
2, 9836, Note_on_c, 0, 33, 0
2, 9837, Note_on_c, 0, 81, 0
2, 9841, Note_on_c, 0, 88, 0
2, 10025, Note_on_c, 0, 32, 60
2, 10029, Control_c, 0, 64, 0
2, 10037, Control_c, 0, 64, 127
2, 10057, Note_on_c, 0, 32, 0
2, 10116, Note_on_c, 0, 74, 80
2, 10118, Note_on_c, 0, 70, 75
2, 10118, Note_on_c, 0, 60, 60
2, 10118, Note_on_c, 0, 65, 81
2, 10121, Note_on_c, 0, 54, 58
2, 10151, Note_on_c, 0, 74, 0
2, 10158, Note_on_c, 0, 65, 0
2, 10168, Note_on_c, 0, 70, 0
2, 10181, Note_on_c, 0, 76, 90
2, 10207, Note_on_c, 0, 54, 0
2, 10208, Note_on_c, 0, 76, 0
2, 10212, Note_on_c, 0, 60, 0
2, 10264, Note_on_c, 0, 74, 68
2, 10265, Control_c, 0, 64, 0
2, 10265, Note_on_c, 0, 71, 61
2, 10265, Note_on_c, 0, 68, 57
2, 10266, Note_on_c, 0, 65, 61
2, 10267, Note_on_c, 0, 55, 57
2, 10284, Control_c, 0, 64, 127
2, 10301, Note_on_c, 0, 55, 0
2, 10345, Note_on_c, 0, 71, 0
2, 10351, Note_on_c, 0, 74, 0
2, 10352, Note_on_c, 0, 65, 0
2, 10354, Note_on_c, 0, 68, 0
2, 10363, Note_on_c, 0, 43, 40
2, 10469, Note_on_c, 0, 43, 0
2, 10537, Note_on_c, 0, 69, 42
2, 10559, Note_on_c, 0, 69, 0
2, 10693, Note_on_c, 0, 72, 45
2, 10694, Note_on_c, 0, 65, 35
2, 10695, Note_on_c, 0, 60, 34
2, 10696, Note_on_c, 0, 69, 37
2, 10696, Note_on_c, 0, 48, 36
2, 10697, Control_c, 0, 64, 0
2, 10698, Note_on_c, 0, 57, 33
2, 10732, Control_c, 0, 64, 127
2, 10763, Note_on_c, 0, 65, 0
2, 10765, Note_on_c, 0, 57, 0
2, 10766, Note_on_c, 0, 60, 0
2, 10800, Note_on_c, 0, 60, 47
2, 10801, Note_on_c, 0, 65, 37
2, 10803, Note_on_c, 0, 57, 25
2, 10809, Note_on_c, 0, 69, 0
2, 10832, Note_on_c, 0, 71, 1
2, 10845, Note_on_c, 0, 65, 0
2, 10851, Note_on_c, 0, 60, 0
2, 10854, Note_on_c, 0, 48, 0
2, 10858, Note_on_c, 0, 72, 0
2, 10859, Note_on_c, 0, 57, 0
2, 10862, Note_on_c, 0, 71, 0
2, 10917, Control_c, 0, 64, 0
2, 10919, Note_on_c, 0, 64, 44
2, 10919, Note_on_c, 0, 60, 37
2, 10920, Note_on_c, 0, 67, 33
2, 10921, Note_on_c, 0, 55, 30
2, 10923, Note_on_c, 0, 48, 33
2, 10924, Control_c, 0, 64, 127
2, 10956, Note_on_c, 0, 55, 0
2, 10956, Note_on_c, 0, 67, 0
2, 10962, Note_on_c, 0, 48, 0
2, 10964, Note_on_c, 0, 64, 0
2, 10969, Note_on_c, 0, 60, 0
2, 11095, Note_on_c, 0, 56, 37
2, 11096, Note_on_c, 0, 30, 39
2, 11096, Note_on_c, 0, 60, 55
2, 11096, Note_on_c, 0, 52, 38
2, 11098, Note_on_c, 0, 42, 23
2, 11103, Control_c, 0, 64, 0
2, 11138, Control_c, 0, 64, 127
2, 11229, Note_on_c, 0, 30, 0
2, 11234, Note_on_c, 0, 42, 0
2, 11235, Note_on_c, 0, 52, 0
2, 11243, Note_on_c, 0, 60, 0
2, 11258, Note_on_c, 0, 56, 0
2, 11377, Note_on_c, 0, 60, 41
2, 11378, Control_c, 0, 64, 0
2, 11378, Note_on_c, 0, 57, 35
2, 11379, Note_on_c, 0, 52, 24
2, 11380, Note_on_c, 0, 29, 25
2, 11380, Note_on_c, 0, 41, 26
2, 11410, Control_c, 0, 64, 127
2, 11418, Note_on_c, 0, 52, 0
2, 11427, Note_on_c, 0, 57, 0
2, 11431, Note_on_c, 0, 60, 0
2, 11448, Note_on_c, 0, 29, 0
2, 11457, Note_on_c, 0, 41, 0
2, 11507, Note_on_c, 0, 69, 80
2, 11553, Note_on_c, 0, 69, 0
2, 11572, Note_on_c, 0, 72, 81
2, 11614, Note_on_c, 0, 72, 0
2, 11647, Note_on_c, 0, 72, 54
2, 11650, Note_on_c, 0, 64, 45
2, 11650, Note_on_c, 0, 69, 57
2, 11654, Note_on_c, 0, 53, 28
2, 11656, Control_c, 0, 64, 0
2, 11656, Note_on_c, 0, 60, 28
2, 11677, Control_c, 0, 64, 127
2, 11702, Note_on_c, 0, 60, 0
2, 11727, Note_on_c, 0, 60, 34
2, 11737, Note_on_c, 0, 64, 0
2, 11779, Note_on_c, 0, 72, 0
2, 11779, Note_on_c, 0, 69, 0
2, 11786, Note_on_c, 0, 64, 58
2, 11800, Note_on_c, 0, 64, 0
2, 11805, Note_on_c, 0, 53, 0
2, 11823, Note_on_c, 0, 72, 77
2, 11853, Note_on_c, 0, 60, 0
2, 11854, Note_on_c, 0, 72, 0
2, 11865, Note_on_c, 0, 71, 69
2, 11865, Note_on_c, 0, 62, 65
2, 11865, Note_on_c, 0, 67, 64
2, 11868, Note_on_c, 0, 52, 57
2, 11869, Control_c, 0, 64, 0
2, 11897, Control_c, 0, 64, 127
2, 11910, Note_on_c, 0, 59, 66
2, 11913, Note_on_c, 0, 67, 0
2, 11921, Note_on_c, 0, 62, 0
2, 11945, Note_on_c, 0, 71, 0
2, 11957, Note_on_c, 0, 62, 66
2, 11973, Note_on_c, 0, 52, 0
2, 11984, Note_on_c, 0, 62, 0
2, 12006, Note_on_c, 0, 67, 68
2, 12007, Note_on_c, 0, 52, 48
2, 12024, Note_on_c, 0, 59, 0
2, 12031, Note_on_c, 0, 52, 0
2, 12053, Note_on_c, 0, 67, 0
2, 12067, Note_on_c, 0, 69, 57
2, 12068, Note_on_c, 0, 65, 40
2, 12069, Note_on_c, 0, 60, 38
2, 12069, Note_on_c, 0, 50, 46
2, 12070, Control_c, 0, 64, 0
2, 12122, Control_c, 0, 64, 127
2, 12129, Note_on_c, 0, 57, 45
2, 12139, Note_on_c, 0, 60, 0
2, 12142, Note_on_c, 0, 65, 0
2, 12190, Note_on_c, 0, 57, 0
2, 12197, Note_on_c, 0, 50, 0
2, 12198, Note_on_c, 0, 65, 46
2, 12199, Note_on_c, 0, 60, 43
2, 12291, Note_on_c, 0, 50, 41
2, 12297, Note_on_c, 0, 50, 0
2, 12324, Note_on_c, 0, 60, 0
2, 12332, Note_on_c, 0, 65, 0
2, 12332, Note_on_c, 0, 69, 0
2, 12412, Note_on_c, 0, 65, 68
2, 12413, Note_on_c, 0, 57, 66
2, 12413, Note_on_c, 0, 69, 61
2, 12414, Note_on_c, 0, 38, 43
2, 12415, Note_on_c, 0, 26, 37
2, 12416, Control_c, 0, 64, 0
2, 12436, Control_c, 0, 64, 127
2, 12444, Note_on_c, 0, 57, 0
2, 12446, Note_on_c, 0, 65, 0
2, 12448, Note_on_c, 0, 69, 0
2, 12488, Note_on_c, 0, 72, 66
2, 12503, Note_on_c, 0, 26, 0
2, 12506, Note_on_c, 0, 72, 0
2, 12511, Note_on_c, 0, 38, 0
2, 12704, Note_on_c, 0, 59, 49
2, 12704, Note_on_c, 0, 40, 38
2, 12704, Note_on_c, 0, 71, 51
2, 12704, Note_on_c, 0, 64, 51
2, 12705, Note_on_c, 0, 67, 42
2, 12706, Note_on_c, 0, 52, 32
2, 12710, Control_c, 0, 64, 0
2, 12731, Control_c, 0, 64, 127
2, 12746, Note_on_c, 0, 40, 0
2, 12748, Note_on_c, 0, 67, 0
2, 12755, Note_on_c, 0, 59, 0
2, 12757, Note_on_c, 0, 52, 0
2, 12758, Note_on_c, 0, 64, 0
2, 12767, Note_on_c, 0, 67, 43
2, 12769, Note_on_c, 0, 71, 0
2, 12796, Note_on_c, 0, 67, 0
2, 12832, Note_on_c, 0, 69, 41
2, 12833, Control_c, 0, 64, 0
2, 12835, Note_on_c, 0, 64, 48
2, 12836, Note_on_c, 0, 60, 42
2, 12851, Control_c, 0, 64, 127
2, 12870, Control_c, 0, 64, 0
2, 12885, Note_on_c, 0, 41, 56
2, 12886, Note_on_c, 0, 60, 0
2, 12893, Note_on_c, 0, 64, 0
2, 12896, Control_c, 0, 64, 127
2, 12900, Note_on_c, 0, 69, 0
2, 12933, Note_on_c, 0, 41, 0
2, 12947, Note_on_c, 0, 57, 46
2, 12949, Note_on_c, 0, 81, 59
2, 12949, Note_on_c, 0, 76, 51
2, 12951, Note_on_c, 0, 69, 51
2, 12991, Note_on_c, 0, 81, 0
2, 12998, Note_on_c, 0, 76, 0
2, 13016, Note_on_c, 0, 57, 0
2, 13018, Note_on_c, 0, 60, 40
2, 13022, Note_on_c, 0, 69, 0
2, 13113, Note_on_c, 0, 72, 38
2, 13116, Note_on_c, 0, 69, 35
2, 13116, Note_on_c, 0, 64, 24
2, 13155, Note_on_c, 0, 64, 0
2, 13173, Note_on_c, 0, 72, 0
2, 13179, Note_on_c, 0, 69, 0
2, 13196, Note_on_c, 0, 64, 44
2, 13197, Note_on_c, 0, 69, 85
2, 13230, Note_on_c, 0, 69, 0
2, 13261, Note_on_c, 0, 64, 0
2, 13269, Note_on_c, 0, 72, 91
2, 13295, Note_on_c, 0, 60, 0
2, 13326, Note_on_c, 0, 72, 0
2, 13335, Note_on_c, 0, 69, 57
2, 13336, Note_on_c, 0, 64, 41
2, 13337, Note_on_c, 0, 60, 34
2, 13338, Note_on_c, 0, 53, 38
2, 13362, Note_on_c, 0, 69, 0
2, 13365, Note_on_c, 0, 60, 0
2, 13373, Note_on_c, 0, 64, 0
2, 13373, Note_on_c, 0, 53, 0
2, 13409, Note_on_c, 0, 67, 68
2, 13409, Note_on_c, 0, 62, 68
2, 13409, Note_on_c, 0, 71, 71
2, 13409, Note_on_c, 0, 59, 49
2, 13411, Note_on_c, 0, 52, 38
2, 13411, Control_c, 0, 64, 0
2, 13434, Control_c, 0, 64, 127
2, 13450, Note_on_c, 0, 67, 0
2, 13466, Note_on_c, 0, 62, 0
2, 13471, Note_on_c, 0, 71, 0
2, 13474, Note_on_c, 0, 59, 0
2, 13474, Note_on_c, 0, 67, 64
2, 13481, Note_on_c, 0, 52, 0
2, 13529, Note_on_c, 0, 67, 0
2, 13545, Note_on_c, 0, 65, 55
2, 13546, Note_on_c, 0, 69, 60
2, 13547, Note_on_c, 0, 57, 38
2, 13547, Note_on_c, 0, 60, 44
2, 13548, Note_on_c, 0, 50, 49
2, 13549, Control_c, 0, 64, 0
2, 13576, Control_c, 0, 64, 127
2, 13598, Note_on_c, 0, 57, 0
2, 13604, Note_on_c, 0, 60, 0
2, 13607, Note_on_c, 0, 50, 0
2, 13629, Note_on_c, 0, 60, 57
2, 13647, Note_on_c, 0, 69, 0
2, 13653, Note_on_c, 0, 65, 0
2, 13654, Note_on_c, 0, 60, 0
2, 13718, Note_on_c, 0, 45, 36
2, 13718, Note_on_c, 0, 38, 33
2, 13722, Note_on_c, 0, 69, 69
2, 13722, Note_on_c, 0, 53, 71
2, 13723, Note_on_c, 0, 65, 73
2, 13723, Note_on_c, 0, 60, 72
2, 13727, Control_c, 0, 64, 0
2, 13746, Control_c, 0, 64, 127
2, 13766, Note_on_c, 0, 65, 0
2, 13768, Note_on_c, 0, 69, 0
2, 13782, Note_on_c, 0, 60, 0
2, 13798, Note_on_c, 0, 38, 0
2, 13800, Note_on_c, 0, 45, 0
2, 13810, Note_on_c, 0, 53, 0
2, 13811, Note_on_c, 0, 72, 72
2, 13833, Note_on_c, 0, 72, 0
2, 13878, Note_on_c, 0, 40, 41
2, 13880, Note_on_c, 0, 47, 41
2, 13881, Note_on_c, 0, 71, 59
2, 13881, Note_on_c, 0, 62, 50
2, 13882, Note_on_c, 0, 67, 59
2, 13884, Note_on_c, 0, 55, 62
2, 13887, Control_c, 0, 64, 0
2, 13934, Control_c, 0, 64, 127
2, 13942, Note_on_c, 0, 67, 0
2, 13955, Note_on_c, 0, 62, 0
2, 13955, Note_on_c, 0, 40, 0
2, 13958, Note_on_c, 0, 47, 0
2, 13966, Note_on_c, 0, 55, 0
2, 13968, Note_on_c, 0, 67, 52
2, 13973, Note_on_c, 0, 71, 0
2, 13997, Note_on_c, 0, 67, 0
2, 14060, Note_on_c, 0, 69, 46
2, 14060, Note_on_c, 0, 48, 30
2, 14060, Note_on_c, 0, 64, 41
2, 14061, Note_on_c, 0, 60, 25
2, 14065, Note_on_c, 0, 57, 44
2, 14066, Note_on_c, 0, 41, 11
2, 14072, Control_c, 0, 64, 0
2, 14111, Control_c, 0, 64, 127
2, 14118, Note_on_c, 0, 48, 0
2, 14149, Note_on_c, 0, 57, 0
2, 14161, Note_on_c, 0, 48, 38
2, 14162, Note_on_c, 0, 64, 0
2, 14165, Note_on_c, 0, 69, 0
2, 14172, Note_on_c, 0, 60, 0
2, 14186, Note_on_c, 0, 48, 0
2, 14187, Note_on_c, 0, 41, 0
2, 14286, Note_on_c, 0, 62, 32
2, 14287, Note_on_c, 0, 57, 39
2, 14288, Note_on_c, 0, 53, 25
2, 14288, Note_on_c, 0, 60, 37
2, 14290, Note_on_c, 0, 43, 24
2, 14291, Control_c, 0, 64, 0
2, 14291, Note_on_c, 0, 50, 29
2, 14320, Control_c, 0, 64, 127
2, 14330, Note_on_c, 0, 53, 0
2, 14331, Note_on_c, 0, 43, 0
2, 14334, Note_on_c, 0, 50, 0
2, 14339, Note_on_c, 0, 57, 0
2, 14341, Note_on_c, 0, 60, 0
2, 14351, Note_on_c, 0, 62, 0
2, 14439, Note_on_c, 0, 58, 28
2, 14440, Note_on_c, 0, 67, 27
2, 14440, Note_on_c, 0, 63, 37
2, 14441, Note_on_c, 0, 53, 26
2, 14442, Note_on_c, 0, 49, 27
2, 14443, Note_on_c, 0, 59, 18
2, 14452, Control_c, 0, 64, 0
2, 14486, Control_c, 0, 64, 127
2, 14528, Note_on_c, 0, 59, 0
2, 14531, Note_on_c, 0, 53, 0
2, 14541, Note_on_c, 0, 49, 0
2, 14563, Note_on_c, 0, 67, 0
2, 14566, Note_on_c, 0, 58, 0
2, 14603, Note_on_c, 0, 63, 0
2, 14655, Note_on_c, 0, 43, 8
2, 14656, Note_on_c, 0, 52, 49
2, 14656, Note_on_c, 0, 36, 25
2, 14656, Note_on_c, 0, 67, 34
2, 14657, Note_on_c, 0, 62, 30
2, 14660, Note_on_c, 0, 57, 24
2, 14671, Control_c, 0, 64, 0
2, 14706, Control_c, 0, 64, 127
2, 14708, Note_on_c, 0, 52, 0
2, 14730, Note_on_c, 0, 36, 0
2, 14731, Note_on_c, 0, 57, 0
2, 14736, Note_on_c, 0, 43, 0
2, 14756, Note_on_c, 0, 62, 0
2, 14774, Note_on_c, 0, 67, 0
2, 14829, Note_on_c, 0, 76, 69
2, 14851, Note_on_c, 0, 76, 0
2, 14883, Note_on_c, 0, 79, 82
2, 14917, Note_on_c, 0, 79, 0
2, 14946, Note_on_c, 0, 79, 60
2, 14947, Note_on_c, 0, 67, 40
2, 14948, Note_on_c, 0, 60, 31
2, 14949, Note_on_c, 0, 64, 28
2, 15002, Note_on_c, 0, 60, 0
2, 15023, Note_on_c, 0, 64, 0
2, 15024, Note_on_c, 0, 60, 30
2, 15031, Note_on_c, 0, 79, 0
2, 15032, Note_on_c, 0, 67, 0
2, 15101, Note_on_c, 0, 67, 38
2, 15103, Note_on_c, 0, 64, 24
2, 15228, Note_on_c, 0, 67, 0
2, 15318, Note_on_c, 0, 76, 69
2, 15333, Note_on_c, 0, 76, 0
2, 15339, Note_on_c, 0, 75, 55
2, 15355, Note_on_c, 0, 75, 0
2, 15365, Note_on_c, 0, 55, 37
2, 15365, Note_on_c, 0, 76, 66
2, 15369, Control_c, 0, 64, 0
2, 15370, Note_on_c, 0, 60, 0
2, 15380, Note_on_c, 0, 64, 0
2, 15394, Control_c, 0, 64, 127
2, 15423, Note_on_c, 0, 64, 25
2, 15423, Note_on_c, 0, 67, 27
2, 15429, Note_on_c, 0, 60, 19
2, 15432, Note_on_c, 0, 76, 0
2, 15441, Note_on_c, 0, 64, 0
2, 15446, Note_on_c, 0, 55, 0
2, 15449, Note_on_c, 0, 67, 0
2, 15451, Note_on_c, 0, 60, 0
2, 15557, Note_on_c, 0, 74, 50
2, 15572, Note_on_c, 0, 74, 0
2, 15578, Note_on_c, 0, 72, 44
2, 15585, Note_on_c, 0, 72, 0
2, 15602, Control_c, 0, 64, 0
2, 15603, Note_on_c, 0, 74, 54
2, 15603, Note_on_c, 0, 62, 24
2, 15604, Note_on_c, 0, 56, 34
2, 15623, Control_c, 0, 64, 127
2, 15652, Note_on_c, 0, 62, 0
2, 15655, Note_on_c, 0, 74, 0
2, 15661, Note_on_c, 0, 65, 33
2, 15685, Note_on_c, 0, 65, 0
2, 15702, Note_on_c, 0, 68, 37
2, 15716, Note_on_c, 0, 68, 0
2, 15725, Note_on_c, 0, 74, 72
2, 15728, Note_on_c, 0, 56, 0
2, 15740, Note_on_c, 0, 74, 0
2, 15758, Note_on_c, 0, 57, 35
2, 15758, Note_on_c, 0, 72, 57
2, 15766, Control_c, 0, 64, 0
2, 15790, Control_c, 0, 64, 127
2, 15795, Note_on_c, 0, 45, 30
2, 15796, Note_on_c, 0, 57, 0
2, 15825, Note_on_c, 0, 72, 0
2, 15836, Note_on_c, 0, 64, 39
2, 15837, Note_on_c, 0, 60, 41
2, 15840, Note_on_c, 0, 52, 25
2, 15854, Note_on_c, 0, 60, 0
2, 15873, Note_on_c, 0, 64, 0
2, 15876, Note_on_c, 0, 52, 0
2, 15891, Note_on_c, 0, 55, 33
2, 15893, Note_on_c, 0, 57, 26
2, 15898, Note_on_c, 0, 57, 0
2, 15901, Note_on_c, 0, 45, 0
2, 15957, Note_on_c, 0, 55, 0
2, 15960, Note_on_c, 0, 54, 49
2, 15964, Note_on_c, 0, 26, 38
2, 15967, Note_on_c, 0, 38, 28
2, 15972, Control_c, 0, 64, 0
2, 16013, Control_c, 0, 64, 127
2, 16032, Note_on_c, 0, 26, 0
2, 16032, Note_on_c, 0, 54, 0
2, 16039, Note_on_c, 0, 38, 0
2, 16124, Note_on_c, 0, 74, 54
2, 16126, Note_on_c, 0, 64, 22
2, 16126, Note_on_c, 0, 60, 34
2, 16127, Note_on_c, 0, 54, 37
2, 16199, Note_on_c, 0, 76, 80
2, 16209, Note_on_c, 0, 74, 0
2, 16236, Note_on_c, 0, 64, 0
2, 16236, Note_on_c, 0, 77, 14
2, 16254, Note_on_c, 0, 76, 0
2, 16264, Note_on_c, 0, 60, 0
2, 16271, Note_on_c, 0, 77, 0
2, 16302, Note_on_c, 0, 79, 71
2, 16304, Note_on_c, 0, 69, 63
2, 16304, Note_on_c, 0, 72, 63
2, 16304, Note_on_c, 0, 76, 60
2, 16308, Note_on_c, 0, 64, 33
2, 16309, Control_c, 0, 64, 0
2, 16313, Note_on_c, 0, 54, 0
2, 16327, Control_c, 0, 64, 127
2, 16354, Note_on_c, 0, 64, 0
2, 16375, Note_on_c, 0, 76, 0
2, 16380, Note_on_c, 0, 79, 0
2, 16382, Note_on_c, 0, 72, 0
2, 16386, Note_on_c, 0, 69, 0
2, 16533, Note_on_c, 0, 76, 61
2, 16535, Note_on_c, 0, 72, 58
2, 16535, Note_on_c, 0, 68, 48
2, 16536, Note_on_c, 0, 66, 29
2, 16536, Note_on_c, 0, 54, 32
2, 16539, Note_on_c, 0, 44, 29
2, 16545, Control_c, 0, 64, 0
2, 16561, Control_c, 0, 64, 127
2, 16583, Note_on_c, 0, 76, 0
2, 16588, Note_on_c, 0, 72, 0
2, 16595, Note_on_c, 0, 54, 0
2, 16595, Note_on_c, 0, 68, 0
2, 16598, Note_on_c, 0, 66, 0
2, 16609, Note_on_c, 0, 44, 0
2, 16681, Note_on_c, 0, 62, 41
2, 16683, Note_on_c, 0, 60, 49
2, 16684, Note_on_c, 0, 57, 38
2, 16685, Note_on_c, 0, 53, 24
2, 16685, Note_on_c, 0, 43, 34
2, 16694, Control_c, 0, 64, 0
2, 16733, Control_c, 0, 64, 127
2, 16745, Note_on_c, 0, 53, 0
2, 16777, Note_on_c, 0, 60, 0
2, 16791, Note_on_c, 0, 57, 0
2, 16807, Note_on_c, 0, 62, 0
2, 16847, Note_on_c, 0, 55, 29
2, 16968, Note_on_c, 0, 57, 34
2, 16987, Note_on_c, 0, 57, 0
2, 17011, Note_on_c, 0, 60, 75
2, 17029, Note_on_c, 0, 55, 0
2, 17034, Note_on_c, 0, 43, 0
2, 17035, Note_on_c, 0, 60, 0
2, 17079, Note_on_c, 0, 43, 32
2, 17079, Note_on_c, 0, 61, 40
2, 17079, Note_on_c, 0, 56, 44
2, 17080, Note_on_c, 0, 59, 54
2, 17081, Note_on_c, 0, 53, 34
2, 17092, Control_c, 0, 64, 0
2, 17122, Control_c, 0, 64, 127
2, 17125, Note_on_c, 0, 61, 0
2, 17127, Note_on_c, 0, 59, 0
2, 17133, Note_on_c, 0, 62, 71
2, 17140, Note_on_c, 0, 56, 0
2, 17153, Note_on_c, 0, 53, 0
2, 17154, Note_on_c, 0, 62, 0
2, 17196, Note_on_c, 0, 65, 60
2, 17199, Note_on_c, 0, 62, 34
2, 17199, Note_on_c, 0, 59, 58
2, 17200, Note_on_c, 0, 56, 39
2, 17202, Note_on_c, 0, 53, 35
2, 17214, Note_on_c, 0, 65, 0
2, 17222, Note_on_c, 0, 56, 0
2, 17222, Note_on_c, 0, 62, 0
2, 17223, Note_on_c, 0, 59, 0
2, 17254, Note_on_c, 0, 53, 0
2, 17384, Note_on_c, 0, 43, 0
2, 17489, Note_on_c, 0, 63, 42
2, 17489, Note_on_c, 0, 75, 57
2, 17491, Note_on_c, 0, 67, 46
2, 17492, Note_on_c, 0, 59, 28
2, 17494, Control_c, 0, 64, 0
2, 17495, Note_on_c, 0, 53, 35
2, 17505, Control_c, 0, 64, 127
2, 17514, Note_on_c, 0, 75, 0
2, 17519, Note_on_c, 0, 67, 0
2, 17528, Note_on_c, 0, 63, 0
2, 17532, Note_on_c, 0, 59, 0
2, 17534, Note_on_c, 0, 53, 0
2, 17578, Note_on_c, 0, 72, 35
2, 17579, Note_on_c, 0, 62, 26
2, 17579, Note_on_c, 0, 67, 36
2, 17582, Note_on_c, 0, 57, 32
2, 17583, Note_on_c, 0, 52, 25
2, 17589, Control_c, 0, 64, 0
2, 17625, Control_c, 0, 64, 127
2, 17631, Note_on_c, 0, 62, 0
2, 17638, Note_on_c, 0, 67, 0
2, 17642, Note_on_c, 0, 72, 0
2, 17683, Note_on_c, 0, 76, 81
2, 17686, Note_on_c, 0, 52, 0
2, 17687, Note_on_c, 0, 57, 0
2, 17709, Note_on_c, 0, 76, 0
2, 17732, Note_on_c, 0, 79, 92
2, 17774, Note_on_c, 0, 79, 0
2, 17799, Note_on_c, 0, 79, 72
2, 17800, Note_on_c, 0, 68, 46
2, 17802, Note_on_c, 0, 63, 36
2, 17802, Note_on_c, 0, 71, 56
2, 17802, Note_on_c, 0, 74, 64
2, 17804, Note_on_c, 0, 57, 44
2, 17805, Control_c, 0, 64, 0
2, 17839, Control_c, 0, 64, 127
2, 17864, Note_on_c, 0, 79, 0
2, 17865, Note_on_c, 0, 71, 0
2, 17870, Note_on_c, 0, 74, 0
2, 17876, Note_on_c, 0, 79, 61
2, 17886, Note_on_c, 0, 68, 0
2, 17891, Note_on_c, 0, 79, 0
2, 17900, Note_on_c, 0, 57, 0
2, 17926, Note_on_c, 0, 63, 0
2, 17946, Note_on_c, 0, 84, 69
2, 17948, Note_on_c, 0, 72, 55
2, 17949, Note_on_c, 0, 62, 45
2, 17949, Note_on_c, 0, 67, 47
2, 17951, Control_c, 0, 64, 0
2, 17951, Note_on_c, 0, 56, 35
2, 17976, Control_c, 0, 64, 127
2, 17990, Note_on_c, 0, 84, 0
2, 17991, Note_on_c, 0, 72, 0
2, 18013, Note_on_c, 0, 86, 67
2, 18014, Note_on_c, 0, 74, 57
2, 18023, Note_on_c, 0, 67, 0
2, 18023, Note_on_c, 0, 62, 0
2, 18042, Note_on_c, 0, 56, 0
2, 18045, Note_on_c, 0, 74, 0
2, 18048, Note_on_c, 0, 86, 0
2, 18104, Note_on_c, 0, 88, 50
2, 18105, Note_on_c, 0, 76, 33
2, 18106, Note_on_c, 0, 84, 51
2, 18108, Note_on_c, 0, 65, 29
2, 18111, Note_on_c, 0, 61, 27
2, 18111, Note_on_c, 0, 60, 38
2, 18113, Note_on_c, 0, 55, 44
2, 18117, Control_c, 0, 64, 0
2, 18163, Control_c, 0, 64, 127
2, 18234, Note_on_c, 0, 88, 0
2, 18275, Note_on_c, 0, 84, 0
2, 18278, Note_on_c, 0, 88, 38
2, 18306, Note_on_c, 0, 88, 0
2, 18323, Note_on_c, 0, 76, 0
2, 18331, Note_on_c, 0, 65, 0
2, 18339, Note_on_c, 0, 60, 0
2, 18360, Note_on_c, 0, 61, 0
2, 18453, Note_on_c, 0, 55, 0
2, 18468, Note_on_c, 0, 55, 9
2, 18470, Note_on_c, 0, 74, 49
2, 18471, Control_c, 0, 64, 0
2, 18472, Note_on_c, 0, 60, 38
2, 18472, Note_on_c, 0, 65, 35
2, 18474, Note_on_c, 0, 69, 52
2, 18476, Note_on_c, 0, 57, 27
2, 18496, Control_c, 0, 64, 127
2, 18502, Note_on_c, 0, 74, 0
2, 18518, Note_on_c, 0, 60, 0
2, 18524, Note_on_c, 0, 76, 54
2, 18526, Note_on_c, 0, 57, 0
2, 18527, Note_on_c, 0, 55, 0
2, 18549, Note_on_c, 0, 76, 0
2, 18574, Note_on_c, 0, 74, 55
2, 18593, Note_on_c, 0, 74, 0
2, 18624, Note_on_c, 0, 76, 44
2, 18644, Note_on_c, 0, 76, 0
2, 18657, Note_on_c, 0, 65, 0
2, 18659, Note_on_c, 0, 69, 0
2, 18703, Note_on_c, 0, 65, 32
2, 18704, Note_on_c, 0, 74, 30
2, 18708, Note_on_c, 0, 43, 28
2, 18709, Note_on_c, 0, 31, 33
2, 18713, Control_c, 0, 64, 0
2, 18743, Control_c, 0, 64, 127
2, 18796, Note_on_c, 0, 31, 0
2, 18812, Note_on_c, 0, 43, 0
2, 18858, Note_on_c, 0, 74, 0
2, 18871, Note_on_c, 0, 65, 0
2, 18944, Note_on_c, 0, 71, 50
2, 18946, Note_on_c, 0, 62, 28
2, 18947, Note_on_c, 0, 68, 42
2, 18947, Note_on_c, 0, 56, 30
2, 18948, Note_on_c, 0, 65, 37
2, 18955, Control_c, 0, 64, 0
2, 18974, Control_c, 0, 64, 127
2, 18987, Note_on_c, 0, 65, 0
2, 18988, Note_on_c, 0, 62, 0
2, 18991, Note_on_c, 0, 71, 0
2, 18995, Note_on_c, 0, 68, 0
2, 19024, Note_on_c, 0, 56, 0
2, 19029, Note_on_c, 0, 72, 50
2, 19031, Note_on_c, 0, 57, 40
2, 19032, Note_on_c, 0, 64, 31
2, 19033, Note_on_c, 0, 67, 36
2, 19035, Control_c, 0, 64, 0
2, 19059, Control_c, 0, 64, 127
2, 19075, Note_on_c, 0, 72, 0
2, 19083, Note_on_c, 0, 67, 0
2, 19093, Note_on_c, 0, 64, 0
2, 19118, Note_on_c, 0, 57, 0
2, 19264, Note_on_c, 0, 55, 62
2, 19323, Note_on_c, 0, 55, 0
2, 19328, Note_on_c, 0, 57, 36
2, 19344, Note_on_c, 0, 57, 0
2, 19344, Note_on_c, 0, 55, 46
2, 19364, Note_on_c, 0, 55, 0
2, 19372, Note_on_c, 0, 52, 31
2, 19386, Note_on_c, 0, 52, 0
2, 19397, Note_on_c, 0, 55, 58
2, 19423, Note_on_c, 0, 55, 0
2, 19429, Note_on_c, 0, 52, 55
2, 19467, Note_on_c, 0, 38, 29
2, 19468, Note_on_c, 0, 54, 50
2, 19469, Note_on_c, 0, 26, 34
2, 19471, Control_c, 0, 64, 0
2, 19481, Note_on_c, 0, 52, 0
2, 19502, Control_c, 0, 64, 127
2, 19508, Note_on_c, 0, 26, 0
2, 19509, Note_on_c, 0, 54, 0
2, 19514, Note_on_c, 0, 38, 0
2, 19615, Note_on_c, 0, 66, 31
2, 19615, Note_on_c, 0, 69, 41
2, 19615, Note_on_c, 0, 64, 26
2, 19615, Note_on_c, 0, 60, 27
2, 19620, Note_on_c, 0, 54, 26
2, 19729, Note_on_c, 0, 64, 0
2, 19743, Note_on_c, 0, 60, 0
2, 19743, Note_on_c, 0, 54, 0
2, 19746, Note_on_c, 0, 66, 0
2, 19748, Note_on_c, 0, 69, 0
2, 19828, Note_on_c, 0, 74, 92
2, 19829, Note_on_c, 0, 69, 108
2, 19829, Note_on_c, 0, 60, 67
2, 19829, Note_on_c, 0, 55, 66
2, 19830, Note_on_c, 0, 65, 68
2, 19830, Note_on_c, 0, 57, 66
2, 19832, Control_c, 0, 64, 0
2, 19851, Control_c, 0, 64, 127
2, 19872, Note_on_c, 0, 74, 0
2, 19901, Note_on_c, 0, 69, 0
2, 19914, Note_on_c, 0, 76, 95
2, 19949, Note_on_c, 0, 65, 0
2, 19953, Note_on_c, 0, 60, 0
2, 19962, Note_on_c, 0, 76, 0
2, 19964, Note_on_c, 0, 57, 0
2, 19965, Note_on_c, 0, 55, 0
2, 20183, Note_on_c, 0, 74, 56
2, 20184, Note_on_c, 0, 65, 51
2, 20186, Control_c, 0, 64, 0
2, 20187, Note_on_c, 0, 53, 34
2, 20187, Note_on_c, 0, 59, 33
2, 20188, Note_on_c, 0, 62, 26
2, 20212, Control_c, 0, 64, 127
2, 20231, Note_on_c, 0, 62, 0
2, 20233, Note_on_c, 0, 59, 0
2, 20239, Note_on_c, 0, 53, 0
2, 20239, Note_on_c, 0, 74, 0
2, 20253, Note_on_c, 0, 65, 0
2, 20395, Control_c, 0, 64, 0
2, 20396, Note_on_c, 0, 61, 45
2, 20396, Note_on_c, 0, 69, 54
2, 20397, Note_on_c, 0, 57, 44
2, 20398, Note_on_c, 0, 64, 50
2, 20398, Note_on_c, 0, 42, 46
2, 20411, Control_c, 0, 64, 127
2, 20423, Note_on_c, 0, 42, 0
2, 20426, Note_on_c, 0, 57, 0
2, 20432, Note_on_c, 0, 64, 0
2, 20432, Note_on_c, 0, 61, 0
2, 20437, Note_on_c, 0, 69, 0
2, 20499, Note_on_c, 0, 72, 68
2, 20500, Note_on_c, 0, 41, 33
2, 20504, Note_on_c, 0, 57, 52
2, 20510, Control_c, 0, 64, 0
2, 20545, Control_c, 0, 64, 127
2, 20556, Note_on_c, 0, 48, 44
2, 20558, Note_on_c, 0, 57, 0
2, 20607, Note_on_c, 0, 72, 0
2, 20615, Note_on_c, 0, 69, 32
2, 20616, Note_on_c, 0, 64, 48
2, 20617, Note_on_c, 0, 57, 36
2, 20618, Note_on_c, 0, 60, 37
2, 20638, Note_on_c, 0, 57, 0
2, 20643, Note_on_c, 0, 41, 0
2, 20679, Note_on_c, 0, 41, 48
2, 20683, Note_on_c, 0, 64, 0
2, 20684, Note_on_c, 0, 60, 0
2, 20705, Note_on_c, 0, 41, 0
2, 20705, Note_on_c, 0, 48, 0
2, 20707, Note_on_c, 0, 69, 0
2, 20747, Note_on_c, 0, 61, 51
2, 20749, Note_on_c, 0, 72, 51
2, 20749, Note_on_c, 0, 65, 59
2, 20750, Note_on_c, 0, 69, 55
2, 20751, Note_on_c, 0, 39, 46
2, 20753, Control_c, 0, 64, 0
2, 20789, Control_c, 0, 64, 127
2, 20817, Note_on_c, 0, 46, 51
2, 20822, Note_on_c, 0, 39, 0
2, 20849, Note_on_c, 0, 69, 0
2, 20852, Note_on_c, 0, 65, 0
2, 20861, Note_on_c, 0, 61, 0
2, 20894, Note_on_c, 0, 69, 36
2, 20894, Note_on_c, 0, 65, 38
2, 20895, Note_on_c, 0, 61, 31
2, 20901, Note_on_c, 0, 46, 0
2, 20901, Note_on_c, 0, 57, 18
2, 20961, Note_on_c, 0, 65, 0
2, 20967, Note_on_c, 0, 61, 0
2, 20987, Note_on_c, 0, 72, 0
2, 20989, Note_on_c, 0, 57, 0
2, 20990, Note_on_c, 0, 61, 35
2, 20990, Note_on_c, 0, 65, 44
2, 20991, Note_on_c, 0, 58, 28
2, 21010, Note_on_c, 0, 58, 0
2, 21017, Note_on_c, 0, 65, 0
2, 21017, Note_on_c, 0, 61, 0
2, 21026, Note_on_c, 0, 69, 0
2, 21111, Note_on_c, 0, 74, 55
2, 21112, Note_on_c, 0, 67, 54
2, 21115, Control_c, 0, 64, 0
2, 21115, Note_on_c, 0, 64, 42
2, 21117, Note_on_c, 0, 60, 39
2, 21117, Note_on_c, 0, 50, 32
2, 21146, Control_c, 0, 64, 127
2, 21207, Note_on_c, 0, 74, 0
2, 21214, Note_on_c, 0, 64, 0
2, 21225, Note_on_c, 0, 67, 0
2, 21286, Note_on_c, 0, 76, 64
2, 21325, Note_on_c, 0, 50, 0
2, 21336, Note_on_c, 0, 60, 0
2, 21354, Note_on_c, 0, 76, 0
2, 21555, Note_on_c, 0, 74, 37
2, 21556, Note_on_c, 0, 65, 31
2, 21557, Note_on_c, 0, 72, 44
2, 21558, Note_on_c, 0, 55, 44
2, 21558, Note_on_c, 0, 69, 49
2, 21560, Control_c, 0, 64, 0
2, 21585, Control_c, 0, 64, 127
2, 21606, Note_on_c, 0, 55, 0
2, 21681, Note_on_c, 0, 31, 41
2, 21690, Note_on_c, 0, 31, 0
2, 21732, Note_on_c, 0, 74, 0
2, 21734, Note_on_c, 0, 69, 0
2, 21735, Note_on_c, 0, 72, 0
2, 21738, Note_on_c, 0, 65, 0
2, 21850, Note_on_c, 0, 69, 36
2, 21852, Note_on_c, 0, 59, 30
2, 21853, Note_on_c, 0, 64, 26
2, 21855, Note_on_c, 0, 43, 27
2, 21856, Note_on_c, 0, 53, 28
2, 22067, Note_on_c, 0, 53, 0
2, 22071, Note_on_c, 0, 43, 0
2, 22130, Note_on_c, 0, 59, 0
2, 22151, Note_on_c, 0, 64, 0
2, 22174, Note_on_c, 0, 69, 0
2, 22417, Note_on_c, 0, 62, 36
2, 22418, Note_on_c, 0, 43, 24
2, 22418, Note_on_c, 0, 64, 37
2, 22419, Note_on_c, 0, 36, 35
2, 22420, Note_on_c, 0, 52, 35
2, 22423, Control_c, 0, 64, 0
2, 22442, Control_c, 0, 64, 127
2, 22454, Note_on_c, 0, 67, 40
2, 22457, Note_on_c, 0, 62, 0
2, 22458, Note_on_c, 0, 64, 0
2, 22469, Note_on_c, 0, 36, 0
2, 22474, Note_on_c, 0, 43, 0
2, 22476, Note_on_c, 0, 67, 0
2, 22485, Note_on_c, 0, 52, 0
2, 22566, Note_on_c, 0, 79, 50
2, 22567, Note_on_c, 0, 64, 33
2, 22568, Note_on_c, 0, 67, 34
2, 22570, Note_on_c, 0, 60, 34
2, 22600, Note_on_c, 0, 64, 0
2, 22601, Note_on_c, 0, 60, 0
2, 22605, Note_on_c, 0, 79, 0
2, 22617, Note_on_c, 0, 67, 0
2, 22711, Note_on_c, 0, 64, 49
2, 22712, Note_on_c, 0, 67, 38
2, 22713, Note_on_c, 0, 62, 42
2, 22714, Note_on_c, 0, 55, 47
2, 22722, Note_on_c, 0, 55, 0
2, 22767, Note_on_c, 0, 64, 0
2, 22781, Note_on_c, 0, 62, 0
2, 22859, Note_on_c, 0, 67, 0
2, 22868, Note_on_c, 0, 60, 48
2, 22869, Note_on_c, 0, 55, 38
2, 22922, Note_on_c, 0, 52, 70
2, 22962, Note_on_c, 0, 55, 0
2, 22982, Note_on_c, 0, 52, 0
2, 22987, Note_on_c, 0, 60, 0
2, 23022, Control_c, 0, 64, 0
2, 23024, Note_on_c, 0, 55, 54
2, 23024, Note_on_c, 0, 52, 42
2, 23026, Note_on_c, 0, 43, 32
2, 23050, Control_c, 0, 64, 127
2, 23064, Note_on_c, 0, 43, 0
2, 23064, Note_on_c, 0, 55, 0
2, 23071, Note_on_c, 0, 52, 0
2, 23182, Note_on_c, 0, 62, 37
2, 23185, Note_on_c, 0, 56, 35
2, 23239, Note_on_c, 0, 62, 0
2, 23246, Note_on_c, 0, 56, 0
2, 23297, Note_on_c, 0, 68, 50
2, 23302, Note_on_c, 0, 68, 0
2, 23317, Note_on_c, 0, 71, 82
2, 23330, Note_on_c, 0, 71, 0
2, 23338, Note_on_c, 0, 74, 91
2, 23342, Control_c, 0, 64, 0
2, 23344, Note_on_c, 0, 52, 42
2, 23344, Note_on_c, 0, 57, 44
2, 23344, Note_on_c, 0, 45, 44
2, 23365, Note_on_c, 0, 72, 56
2, 23366, Note_on_c, 0, 74, 0
2, 23367, Control_c, 0, 64, 127
2, 23383, Note_on_c, 0, 57, 0
2, 23390, Note_on_c, 0, 45, 0
2, 23392, Note_on_c, 0, 52, 0
2, 23393, Note_on_c, 0, 72, 0
2, 23399, Note_on_c, 0, 69, 33
2, 23410, Note_on_c, 0, 69, 0
2, 23497, Note_on_c, 0, 55, 43
2, 23500, Note_on_c, 0, 64, 27
2, 23501, Note_on_c, 0, 60, 38
2, 23502, Note_on_c, 0, 57, 33
2, 23582, Note_on_c, 0, 64, 0
2, 23595, Note_on_c, 0, 60, 0
2, 23597, Note_on_c, 0, 55, 0
2, 23597, Note_on_c, 0, 57, 0
2, 23657, Note_on_c, 0, 74, 36
2, 23658, Note_on_c, 0, 64, 31
2, 23659, Control_c, 0, 64, 0
2, 23659, Note_on_c, 0, 60, 27
2, 23660, Note_on_c, 0, 69, 34
2, 23661, Note_on_c, 0, 54, 33
2, 23685, Control_c, 0, 64, 127
2, 23691, Note_on_c, 0, 60, 0
2, 23699, Note_on_c, 0, 54, 0
2, 23759, Note_on_c, 0, 64, 0
2, 23762, Note_on_c, 0, 74, 0
2, 23765, Note_on_c, 0, 69, 0
2, 23814, Note_on_c, 0, 26, 37
2, 23829, Note_on_c, 0, 26, 0
2, 23925, Note_on_c, 0, 62, 34
2, 23932, Note_on_c, 0, 62, 0
2, 23951, Note_on_c, 0, 64, 54
2, 23959, Note_on_c, 0, 64, 0
2, 23993, Control_c, 0, 64, 0
2, 23995, Note_on_c, 0, 67, 50
2, 24000, Note_on_c, 0, 62, 37
2, 24000, Note_on_c, 0, 57, 39
2, 24000, Note_on_c, 0, 50, 39
2, 24007, Note_on_c, 0, 60, 28
2, 24085, Control_c, 0, 64, 127
2, 24098, Note_on_c, 0, 60, 0
2, 24098, Note_on_c, 0, 67, 0
2, 24111, Note_on_c, 0, 62, 0
2, 24197, Note_on_c, 0, 57, 0
2, 24197, Note_on_c, 0, 50, 0
2, 24276, Note_on_c, 0, 64, 57
2, 24278, Note_on_c, 0, 60, 57
2, 24278, Note_on_c, 0, 54, 43
2, 24279, Note_on_c, 0, 56, 46
2, 24280, Control_c, 0, 64, 0
2, 24294, Control_c, 0, 64, 127
2, 24312, Note_on_c, 0, 64, 0
2, 24316, Note_on_c, 0, 54, 0
2, 24317, Note_on_c, 0, 56, 0
2, 24319, Note_on_c, 0, 60, 0
2, 24326, Note_on_c, 0, 62, 43
2, 24328, Note_on_c, 0, 43, 37
2, 24329, Note_on_c, 0, 57, 35
2, 24330, Control_c, 0, 64, 0
2, 24330, Note_on_c, 0, 53, 37
2, 24331, Note_on_c, 0, 60, 27
2, 24358, Note_on_c, 0, 53, 0
2, 24358, Control_c, 0, 64, 127
2, 24374, Note_on_c, 0, 57, 0
2, 24377, Note_on_c, 0, 60, 0
2, 24380, Note_on_c, 0, 55, 31
2, 24384, Note_on_c, 0, 43, 0
2, 24386, Note_on_c, 0, 62, 0
2, 24398, Note_on_c, 0, 55, 0
2, 24489, Note_on_c, 0, 57, 27
2, 24489, Note_on_c, 0, 60, 37
2, 24489, Note_on_c, 0, 65, 20
2, 24541, Note_on_c, 0, 79, 28
2, 24545, Control_c, 0, 64, 0
2, 24553, Note_on_c, 0, 80, 49
2, 24555, Note_on_c, 0, 79, 0
2, 24563, Note_on_c, 0, 81, 71
2, 24565, Note_on_c, 0, 80, 0
2, 24575, Note_on_c, 0, 81, 0
2, 24581, Note_on_c, 0, 84, 88
2, 24581, Note_on_c, 0, 72, 81
2, 24594, Control_c, 0, 64, 127
2, 24612, Note_on_c, 0, 60, 0
2, 24613, Note_on_c, 0, 65, 0
2, 24617, Note_on_c, 0, 57, 0
2, 24625, Note_on_c, 0, 84, 0
2, 24628, Note_on_c, 0, 72, 0
2, 24637, Note_on_c, 0, 59, 41
2, 24637, Note_on_c, 0, 72, 68
2, 24637, Note_on_c, 0, 53, 55
2, 24638, Note_on_c, 0, 64, 48
2, 24638, Note_on_c, 0, 84, 71
2, 24641, Control_c, 0, 64, 0
2, 24667, Control_c, 0, 64, 127
2, 24679, Note_on_c, 0, 84, 0
2, 24686, Note_on_c, 0, 72, 0
2, 24692, Note_on_c, 0, 64, 0
2, 24696, Note_on_c, 0, 59, 0
2, 24696, Note_on_c, 0, 83, 66
2, 24697, Note_on_c, 0, 71, 53
2, 24702, Note_on_c, 0, 53, 0
2, 24749, Note_on_c, 0, 83, 0
2, 24760, Note_on_c, 0, 71, 0
2, 24786, Note_on_c, 0, 43, 44
2, 24789, Note_on_c, 0, 53, 31
2, 24807, Note_on_c, 0, 43, 0
2, 24820, Note_on_c, 0, 53, 0
2, 24897, Note_on_c, 0, 80, 48
2, 24899, Note_on_c, 0, 68, 42
2, 24919, Note_on_c, 0, 80, 0
2, 24927, Note_on_c, 0, 68, 0
2, 24946, Note_on_c, 0, 43, 22
2, 24949, Note_on_c, 0, 79, 42
2, 24950, Note_on_c, 0, 36, 34
2, 24951, Note_on_c, 0, 52, 44
2, 24951, Note_on_c, 0, 67, 24
2, 24953, Control_c, 0, 64, 0
2, 24985, Control_c, 0, 64, 127
2, 24995, Note_on_c, 0, 36, 0
2, 25002, Note_on_c, 0, 43, 0
2, 25012, Note_on_c, 0, 52, 0
2, 25063, Note_on_c, 0, 79, 0
2, 25068, Note_on_c, 0, 67, 0
2, 25115, Note_on_c, 0, 62, 39
2, 25117, Note_on_c, 0, 57, 41
2, 25119, Note_on_c, 0, 52, 30
2, 25161, Note_on_c, 0, 57, 0
2, 25163, Note_on_c, 0, 52, 0
2, 25172, Note_on_c, 0, 62, 0
2, 25275, Note_on_c, 0, 67, 32
2, 25275, Note_on_c, 0, 63, 25
2, 25276, Note_on_c, 0, 57, 38
2, 25277, Note_on_c, 0, 62, 31
2, 25284, Control_c, 0, 64, 0
2, 25338, Note_on_c, 0, 75, 62
2, 25351, Note_on_c, 0, 74, 39
2, 25356, Note_on_c, 0, 75, 0
2, 25370, Note_on_c, 0, 74, 0
2, 25374, Note_on_c, 0, 71, 35
2, 25388, Note_on_c, 0, 71, 0
2, 25392, Note_on_c, 0, 67, 0
2, 25397, Note_on_c, 0, 62, 0
2, 25398, Note_on_c, 0, 74, 46
2, 25399, Note_on_c, 0, 63, 0
2, 25410, Note_on_c, 0, 74, 0
2, 25413, Note_on_c, 0, 75, 63
2, 25421, Note_on_c, 0, 75, 0
2, 25434, Note_on_c, 0, 79, 68
2, 25448, Note_on_c, 0, 79, 0
2, 25455, Note_on_c, 0, 83, 64
2, 25456, Note_on_c, 0, 62, 28
2, 25457, Note_on_c, 0, 63, 37
2, 25458, Note_on_c, 0, 67, 27
2, 25465, Note_on_c, 0, 83, 0
2, 25479, Note_on_c, 0, 74, 65
2, 25479, Note_on_c, 0, 86, 74
2, 25504, Control_c, 0, 64, 127
2, 25505, Note_on_c, 0, 86, 0
2, 25511, Note_on_c, 0, 74, 0
2, 25521, Note_on_c, 0, 74, 70
2, 25521, Note_on_c, 0, 86, 58
2, 25539, Note_on_c, 0, 74, 0
2, 25541, Note_on_c, 0, 86, 0
2, 25550, Note_on_c, 0, 67, 0
2, 25555, Note_on_c, 0, 62, 0
2, 25556, Note_on_c, 0, 63, 0
2, 25557, Note_on_c, 0, 86, 73
2, 25560, Note_on_c, 0, 74, 47
2, 25564, Note_on_c, 0, 57, 0
2, 25571, Note_on_c, 0, 74, 0
2, 25575, Note_on_c, 0, 86, 0
2, 25589, Note_on_c, 0, 84, 50
2, 25597, Note_on_c, 0, 84, 0
2, 25616, Note_on_c, 0, 56, 33
2, 25616, Control_c, 0, 64, 0
2, 25618, Note_on_c, 0, 67, 22
2, 25618, Note_on_c, 0, 62, 24
2, 25619, Note_on_c, 0, 84, 57
2, 25621, Note_on_c, 0, 72, 32
2, 25656, Note_on_c, 0, 72, 0
2, 25659, Note_on_c, 0, 84, 0
2, 25660, Control_c, 0, 64, 127
2, 25663, Note_on_c, 0, 76, 48
2, 25664, Note_on_c, 0, 79, 38
2, 25692, Note_on_c, 0, 76, 0
2, 25693, Note_on_c, 0, 79, 0
2, 25714, Note_on_c, 0, 67, 0
2, 25726, Note_on_c, 0, 62, 0
2, 25760, Note_on_c, 0, 56, 0
2, 25776, Note_on_c, 0, 67, 34
2, 25776, Note_on_c, 0, 72, 40
2, 25779, Note_on_c, 0, 56, 25
2, 25780, Note_on_c, 0, 65, 22
2, 25781, Note_on_c, 0, 62, 17
2, 25813, Note_on_c, 0, 67, 0
2, 25831, Note_on_c, 0, 56, 0
2, 25832, Note_on_c, 0, 72, 0
2, 25876, Note_on_c, 0, 62, 0
2, 25883, Note_on_c, 0, 65, 0
2, 25935, Note_on_c, 0, 55, 40
2, 25936, Note_on_c, 0, 60, 31
2, 25936, Note_on_c, 0, 65, 24
2, 25936, Note_on_c, 0, 61, 27
2, 25939, Control_c, 0, 64, 0
2, 25994, Note_on_c, 0, 94, 74
2, 26007, Note_on_c, 0, 94, 0
2, 26015, Note_on_c, 0, 96, 84
2, 26020, Note_on_c, 0, 95, 32
2, 26026, Note_on_c, 0, 95, 0
2, 26032, Note_on_c, 0, 96, 0
2, 26040, Note_on_c, 0, 65, 0
2, 26040, Note_on_c, 0, 89, 71
2, 26043, Note_on_c, 0, 60, 0
2, 26045, Note_on_c, 0, 55, 0
2, 26060, Note_on_c, 0, 85, 59
2, 26063, Note_on_c, 0, 89, 0
2, 26073, Control_c, 0, 64, 127
2, 26076, Note_on_c, 0, 61, 0
2, 26080, Note_on_c, 0, 85, 0
2, 26084, Note_on_c, 0, 84, 62
2, 26101, Note_on_c, 0, 61, 31
2, 26101, Note_on_c, 0, 66, 37
2, 26102, Note_on_c, 0, 55, 48
2, 26103, Control_c, 0, 64, 0
2, 26107, Note_on_c, 0, 84, 0
2, 26114, Note_on_c, 0, 82, 51
2, 26136, Note_on_c, 0, 82, 0
2, 26146, Note_on_c, 0, 81, 68
2, 26163, Note_on_c, 0, 81, 0
2, 26175, Note_on_c, 0, 82, 52
2, 26185, Note_on_c, 0, 82, 0
2, 26200, Note_on_c, 0, 83, 66
2, 26207, Note_on_c, 0, 66, 0
2, 26208, Note_on_c, 0, 55, 0
2, 26209, Control_c, 0, 64, 127
2, 26217, Note_on_c, 0, 83, 0
2, 26228, Note_on_c, 0, 84, 64
2, 26234, Note_on_c, 0, 61, 0
2, 26245, Note_on_c, 0, 84, 0
2, 26258, Note_on_c, 0, 86, 74
2, 26275, Note_on_c, 0, 86, 0
2, 26284, Control_c, 0, 64, 0
2, 26287, Note_on_c, 0, 64, 29
2, 26288, Note_on_c, 0, 86, 51
2, 26289, Note_on_c, 0, 60, 33
2, 26290, Note_on_c, 0, 74, 54
2, 26291, Note_on_c, 0, 54, 39
2, 26324, Control_c, 0, 64, 127
2, 26325, Note_on_c, 0, 86, 0
2, 26328, Note_on_c, 0, 74, 0
2, 26334, Note_on_c, 0, 64, 0
2, 26337, Note_on_c, 0, 60, 0
2, 26339, Note_on_c, 0, 74, 57
2, 26339, Note_on_c, 0, 86, 37
2, 26344, Note_on_c, 0, 54, 0
2, 26350, Note_on_c, 0, 86, 0
2, 26352, Note_on_c, 0, 74, 0
2, 26461, Note_on_c, 0, 60, 53
2, 26462, Note_on_c, 0, 74, 39
2, 26465, Note_on_c, 0, 68, 33
2, 26465, Note_on_c, 0, 72, 40
2, 26466, Note_on_c, 0, 60, 0
2, 26466, Note_on_c, 0, 65, 18
2, 26493, Note_on_c, 0, 74, 0
2, 26493, Note_on_c, 0, 72, 0
2, 26495, Note_on_c, 0, 68, 0
2, 26499, Note_on_c, 0, 65, 0
2, 26558, Note_on_c, 0, 54, 63
2, 26573, Note_on_c, 0, 54, 0
2, 26592, Note_on_c, 0, 50, 46
2, 26609, Note_on_c, 0, 50, 0
2, 26614, Note_on_c, 0, 44, 54
2, 26638, Note_on_c, 0, 44, 0
2, 26648, Note_on_c, 0, 43, 56
2, 26650, Note_on_c, 0, 53, 61
2, 26651, Note_on_c, 0, 57, 57
2, 26651, Note_on_c, 0, 60, 63
2, 26652, Control_c, 0, 64, 0
2, 26696, Control_c, 0, 64, 127
2, 26722, Note_on_c, 0, 53, 0
2, 26745, Note_on_c, 0, 55, 91
2, 26783, Note_on_c, 0, 57, 0
2, 26807, Note_on_c, 0, 60, 0
2, 26810, Note_on_c, 0, 55, 0
2, 26824, Note_on_c, 0, 59, 62
2, 26825, Note_on_c, 0, 62, 28
2, 26826, Note_on_c, 0, 56, 64
2, 26827, Note_on_c, 0, 55, 48
2, 26828, Control_c, 0, 64, 0
2, 26861, Note_on_c, 0, 43, 0
2, 26861, Control_c, 0, 64, 127
2, 26901, Note_on_c, 0, 55, 0
2, 26909, Note_on_c, 0, 43, 45
2, 26928, Note_on_c, 0, 43, 0
2, 26928, Note_on_c, 0, 62, 0
2, 26938, Note_on_c, 0, 59, 0
2, 26940, Note_on_c, 0, 56, 0
2, 26988, Note_on_c, 0, 55, 51
2, 26991, Note_on_c, 0, 56, 58
2, 26992, Note_on_c, 0, 36, 42
2, 26993, Note_on_c, 0, 60, 36
2, 26999, Control_c, 0, 64, 0
2, 27004, Note_on_c, 0, 56, 0
2, 27004, Note_on_c, 0, 55, 0
2, 27004, Note_on_c, 0, 57, 64
2, 27049, Control_c, 0, 64, 127
2, 27128, Note_on_c, 0, 60, 0
2, 27157, Note_on_c, 0, 57, 0
2, 27166, Note_on_c, 0, 60, 39
2, 27172, Note_on_c, 0, 55, 35
2, 27173, Note_on_c, 0, 52, 27
2, 27174, Note_on_c, 0, 48, 27
2, 27175, Control_c, 0, 64, 0
2, 27202, Control_c, 0, 64, 127
2, 27207, Note_on_c, 0, 52, 0
2, 27208, Note_on_c, 0, 36, 0
2, 27217, Note_on_c, 0, 55, 0
2, 27224, Note_on_c, 0, 60, 0
2, 27228, Note_on_c, 0, 48, 0
2, 27293, Note_on_c, 0, 55, 105
2, 27315, Note_on_c, 0, 55, 0
2, 27332, Note_on_c, 0, 55, 53
2, 27340, Note_on_c, 0, 56, 33
2, 27341, Note_on_c, 0, 43, 38
2, 27345, Note_on_c, 0, 56, 0
2, 27346, Note_on_c, 0, 57, 56
2, 27348, Control_c, 0, 64, 0
2, 27352, Note_on_c, 0, 55, 0
2, 27373, Note_on_c, 0, 57, 0
2, 27380, Note_on_c, 0, 57, 36
2, 27380, Note_on_c, 0, 60, 61
2, 27381, Note_on_c, 0, 53, 64
2, 27384, Note_on_c, 0, 50, 62
2, 27414, Control_c, 0, 64, 127
2, 27433, Note_on_c, 0, 43, 0
2, 27437, Note_on_c, 0, 50, 0
2, 27457, Note_on_c, 0, 53, 0
2, 27462, Note_on_c, 0, 57, 0
2, 27476, Note_on_c, 0, 60, 0
2, 27502, Note_on_c, 0, 60, 51
2, 27503, Note_on_c, 0, 53, 53
2, 27503, Note_on_c, 0, 50, 57
2, 27504, Note_on_c, 0, 57, 53
2, 27505, Note_on_c, 0, 43, 37
2, 27506, Control_c, 0, 64, 0
2, 27552, Note_on_c, 0, 43, 0
2, 27557, Note_on_c, 0, 34, 48
2, 27563, Control_c, 0, 64, 127
2, 27568, Note_on_c, 0, 34, 0
2, 27608, Control_c, 0, 64, 0
2, 27611, Note_on_c, 0, 23, 44
2, 27612, Note_on_c, 0, 53, 0
2, 27612, Control_c, 0, 64, 127
2, 27613, Note_on_c, 0, 50, 0
2, 27625, Note_on_c, 0, 57, 0
2, 27627, Note_on_c, 0, 23, 0
2, 27650, Note_on_c, 0, 60, 0
2, 27675, Control_c, 0, 64, 0
2, 27676, Note_on_c, 0, 60, 36
2, 27677, Note_on_c, 0, 52, 36
2, 27677, Note_on_c, 0, 55, 49
2, 27677, Note_on_c, 0, 24, 46
2, 27678, Note_on_c, 0, 36, 50
2, 27706, Note_on_c, 0, 52, 0
2, 27717, Control_c, 0, 64, 127
2, 27724, Note_on_c, 0, 24, 0
2, 27725, Note_on_c, 0, 55, 0
2, 27727, Note_on_c, 0, 60, 0
2, 27733, Note_on_c, 0, 36, 0
2, 27856, Note_on_c, 0, 64, 28
2, 27857, Note_on_c, 0, 55, 24
2, 27860, Note_on_c, 0, 60, 32
2, 27879, Note_on_c, 0, 60, 0
2, 27879, Note_on_c, 0, 64, 0
2, 27888, Note_on_c, 0, 55, 0
2, 27991, Note_on_c, 0, 81, 89
2, 27991, Note_on_c, 0, 77, 87
2, 28016, Note_on_c, 0, 81, 0
2, 28019, Note_on_c, 0, 77, 0
2, 28031, Note_on_c, 0, 79, 75
2, 28032, Control_c, 0, 64, 0
2, 28032, Note_on_c, 0, 67, 36
2, 28033, Note_on_c, 0, 76, 80
2, 28035, Note_on_c, 0, 64, 34
2, 28036, Note_on_c, 0, 62, 32
2, 28056, Control_c, 0, 64, 127
2, 28060, Note_on_c, 0, 67, 0
2, 28066, Note_on_c, 0, 64, 0
2, 28067, Note_on_c, 0, 76, 0
2, 28071, Note_on_c, 0, 62, 0
2, 28071, Note_on_c, 0, 72, 58
2, 28075, Note_on_c, 0, 79, 0
2, 28092, Note_on_c, 0, 72, 0
2, 28110, Note_on_c, 0, 67, 38
2, 28128, Note_on_c, 0, 67, 0
2, 28141, Note_on_c, 0, 72, 53
2, 28143, Note_on_c, 0, 65, 43
2, 28179, Note_on_c, 0, 65, 0
2, 28189, Control_c, 0, 64, 0
2, 28191, Note_on_c, 0, 55, 51
2, 28192, Note_on_c, 0, 64, 40
2, 28206, Control_c, 0, 64, 127
2, 28215, Note_on_c, 0, 72, 0
2, 28241, Note_on_c, 0, 64, 0
2, 28241, Note_on_c, 0, 48, 44
2, 28267, Note_on_c, 0, 55, 0
2, 28285, Note_on_c, 0, 48, 0
2, 28297, Note_on_c, 0, 60, 61
2, 28304, Note_on_c, 0, 55, 18
2, 28323, Note_on_c, 0, 55, 0
2, 28327, Note_on_c, 0, 60, 0
2, 28357, Note_on_c, 0, 43, 40
2, 28357, Note_on_c, 0, 64, 43
2, 28360, Note_on_c, 0, 55, 37
2, 28361, Note_on_c, 0, 60, 53
2, 28361, Note_on_c, 0, 52, 37
2, 28362, Control_c, 0, 64, 0
2, 28386, Note_on_c, 0, 55, 0
2, 28393, Control_c, 0, 64, 127
2, 28394, Note_on_c, 0, 60, 0
2, 28402, Note_on_c, 0, 64, 0
2, 28428, Note_on_c, 0, 43, 0
2, 28435, Note_on_c, 0, 52, 0
2, 28466, Note_on_c, 0, 67, 50
2, 28472, Note_on_c, 0, 67, 0
2, 28539, Note_on_c, 0, 65, 34
2, 28541, Note_on_c, 0, 56, 31
2, 28542, Note_on_c, 0, 62, 36
2, 28544, Note_on_c, 0, 59, 44
2, 28545, Control_c, 0, 64, 0
2, 28566, Control_c, 0, 64, 127
2, 28614, Note_on_c, 0, 65, 0
2, 28615, Note_on_c, 0, 62, 0
2, 28619, Note_on_c, 0, 74, 34
2, 28620, Note_on_c, 0, 59, 0
2, 28624, Note_on_c, 0, 74, 0
2, 28627, Note_on_c, 0, 56, 0
2, 28649, Note_on_c, 0, 80, 35
2, 28653, Note_on_c, 0, 80, 0
2, 28670, Note_on_c, 0, 83, 87
2, 28685, Note_on_c, 0, 83, 0
2, 28693, Note_on_c, 0, 86, 89
2, 28712, Note_on_c, 0, 86, 0
2, 28713, Control_c, 0, 64, 0
2, 28717, Note_on_c, 0, 45, 53
2, 28718, Note_on_c, 0, 52, 49
2, 28718, Note_on_c, 0, 57, 44
2, 28721, Note_on_c, 0, 84, 77
2, 28739, Control_c, 0, 64, 127
2, 28768, Note_on_c, 0, 84, 0
2, 28778, Note_on_c, 0, 45, 0
2, 28781, Note_on_c, 0, 52, 0
2, 28781, Note_on_c, 0, 81, 56
2, 28788, Note_on_c, 0, 57, 0
2, 28793, Note_on_c, 0, 81, 0
2, 28898, Note_on_c, 0, 60, 41
2, 28899, Note_on_c, 0, 64, 29
2, 28900, Note_on_c, 0, 57, 26
2, 28902, Control_c, 0, 64, 0
2, 28902, Note_on_c, 0, 74, 46
2, 28906, Note_on_c, 0, 59, 25
2, 28908, Note_on_c, 0, 75, 61
2, 28913, Note_on_c, 0, 74, 0
2, 28926, Note_on_c, 0, 74, 43
2, 28935, Note_on_c, 0, 75, 0
2, 28941, Note_on_c, 0, 74, 0
2, 28968, Note_on_c, 0, 69, 50
2, 28984, Note_on_c, 0, 69, 0
2, 28992, Note_on_c, 0, 72, 80
2, 29014, Control_c, 0, 64, 127
2, 29015, Note_on_c, 0, 72, 0
2, 29025, Note_on_c, 0, 74, 81
2, 29026, Note_on_c, 0, 59, 0
2, 29031, Note_on_c, 0, 64, 0
2, 29035, Note_on_c, 0, 57, 0
2, 29036, Note_on_c, 0, 60, 0
2, 29047, Note_on_c, 0, 74, 0
2, 29058, Note_on_c, 0, 72, 64
2, 29058, Note_on_c, 0, 64, 42
2, 29059, Control_c, 0, 64, 0
2, 29062, Note_on_c, 0, 60, 35
2, 29062, Note_on_c, 0, 54, 46
2, 29091, Control_c, 0, 64, 127
2, 29094, Note_on_c, 0, 64, 0
2, 29107, Note_on_c, 0, 60, 0
2, 29111, Note_on_c, 0, 54, 0
2, 29121, Note_on_c, 0, 62, 39
2, 29157, Note_on_c, 0, 62, 0
2, 29171, Note_on_c, 0, 62, 50
2, 29205, Note_on_c, 0, 62, 0
2, 29222, Note_on_c, 0, 26, 48
2, 29222, Note_on_c, 0, 62, 41
2, 29229, Control_c, 0, 64, 0
2, 29240, Note_on_c, 0, 26, 0
2, 29240, Control_c, 0, 64, 127
2, 29307, Note_on_c, 0, 62, 0
2, 29337, Note_on_c, 0, 62, 36
2, 29347, Note_on_c, 0, 62, 0
2, 29352, Note_on_c, 0, 72, 0
2, 29399, Note_on_c, 0, 55, 44
2, 29402, Note_on_c, 0, 61, 43
2, 29403, Note_on_c, 0, 72, 66
2, 29403, Note_on_c, 0, 65, 46
2, 29403, Note_on_c, 0, 67, 59
2, 29403, Control_c, 0, 64, 0
2, 29427, Control_c, 0, 64, 127
2, 29498, Note_on_c, 0, 55, 0
2, 29503, Note_on_c, 0, 65, 0
2, 29510, Note_on_c, 0, 61, 0
2, 29514, Note_on_c, 0, 67, 0
2, 29538, Note_on_c, 0, 72, 0
2, 29569, Note_on_c, 0, 72, 40
2, 29570, Note_on_c, 0, 69, 53
2, 29571, Note_on_c, 0, 64, 29
2, 29572, Note_on_c, 0, 60, 36
2, 29574, Note_on_c, 0, 54, 34
2, 29576, Control_c, 0, 64, 0
2, 29601, Control_c, 0, 64, 127
2, 29619, Note_on_c, 0, 72, 0
2, 29622, Note_on_c, 0, 60, 0
2, 29623, Note_on_c, 0, 69, 0
2, 29625, Note_on_c, 0, 64, 0
2, 29634, Note_on_c, 0, 54, 0
2, 29689, Note_on_c, 0, 57, 74
2, 29690, Note_on_c, 0, 55, 84
2, 29709, Note_on_c, 0, 55, 0
2, 29716, Note_on_c, 0, 57, 0
2, 29751, Note_on_c, 0, 56, 46
2, 29752, Note_on_c, 0, 53, 38
2, 29755, Note_on_c, 0, 43, 36
2, 29756, Note_on_c, 0, 50, 35
2, 29758, Note_on_c, 0, 56, 0
2, 29760, Note_on_c, 0, 57, 60
2, 29761, Control_c, 0, 64, 0
2, 29805, Note_on_c, 0, 60, 71
2, 29814, Control_c, 0, 64, 127
2, 29848, Note_on_c, 0, 53, 0
2, 29883, Note_on_c, 0, 57, 0
2, 29884, Note_on_c, 0, 60, 0
2, 29916, Note_on_c, 0, 50, 0
2, 29925, Note_on_c, 0, 60, 58
2, 29926, Note_on_c, 0, 55, 43
2, 29929, Control_c, 0, 64, 0
2, 29930, Note_on_c, 0, 57, 35
2, 29956, Control_c, 0, 64, 127
2, 29969, Note_on_c, 0, 43, 0
2, 30005, Note_on_c, 0, 57, 0
2, 30017, Note_on_c, 0, 60, 0
2, 30029, Note_on_c, 0, 43, 46
2, 30049, Note_on_c, 0, 43, 0
2, 30061, Note_on_c, 0, 55, 0
2, 30092, Note_on_c, 0, 74, 68
2, 30094, Note_on_c, 0, 43, 41
2, 30096, Note_on_c, 0, 53, 33
2, 30096, Control_c, 0, 64, 0
2, 30100, Note_on_c, 0, 74, 0
2, 30102, Note_on_c, 0, 75, 64
2, 30115, Note_on_c, 0, 74, 36
2, 30120, Note_on_c, 0, 75, 0
2, 30130, Note_on_c, 0, 72, 56
2, 30133, Note_on_c, 0, 74, 0
2, 30147, Note_on_c, 0, 72, 0
2, 30153, Note_on_c, 0, 67, 57
2, 30188, Note_on_c, 0, 67, 0
2, 30191, Note_on_c, 0, 65, 66
2, 30203, Note_on_c, 0, 65, 0
2, 30209, Note_on_c, 0, 66, 35
2, 30220, Note_on_c, 0, 53, 0
2, 30224, Note_on_c, 0, 65, 27
2, 30227, Note_on_c, 0, 66, 0
2, 30234, Note_on_c, 0, 65, 0
2, 30240, Note_on_c, 0, 63, 34
2, 30253, Control_c, 0, 64, 127
2, 30255, Note_on_c, 0, 63, 0
2, 30261, Note_on_c, 0, 60, 53
2, 30272, Note_on_c, 0, 60, 0
2, 30280, Note_on_c, 0, 53, 44
2, 30283, Control_c, 0, 64, 0
2, 30308, Note_on_c, 0, 63, 53
2, 30318, Note_on_c, 0, 62, 43
2, 30323, Note_on_c, 0, 62, 0
2, 30326, Note_on_c, 0, 63, 0
2, 30334, Note_on_c, 0, 53, 0
2, 30353, Note_on_c, 0, 62, 73
2, 30357, Note_on_c, 0, 43, 0
2, 30374, Note_on_c, 0, 62, 0
2, 30387, Note_on_c, 0, 55, 36
2, 30389, Note_on_c, 0, 43, 39
2, 30394, Note_on_c, 0, 55, 0
2, 30405, Note_on_c, 0, 43, 0
2, 30409, Note_on_c, 0, 53, 55
2, 30412, Control_c, 0, 64, 127
2, 30426, Note_on_c, 0, 53, 0
2, 30434, Note_on_c, 0, 48, 34
2, 30443, Note_on_c, 0, 48, 0
2, 30449, Note_on_c, 0, 51, 46
2, 30468, Note_on_c, 0, 51, 0
2, 30471, Control_c, 0, 64, 0
2, 30472, Note_on_c, 0, 24, 46
2, 30472, Note_on_c, 0, 36, 37
2, 30474, Note_on_c, 0, 52, 30
2, 30506, Control_c, 0, 64, 127
2, 30523, Note_on_c, 0, 52, 0
2, 30531, Note_on_c, 0, 24, 0
2, 30537, Note_on_c, 0, 36, 0
2, 30649, Note_on_c, 0, 67, 29
2, 30650, Note_on_c, 0, 62, 29
2, 30651, Note_on_c, 0, 57, 30
2, 30652, Note_on_c, 0, 59, 28
2, 30653, Note_on_c, 0, 48, 26
2, 30654, Note_on_c, 0, 55, 24
2, 30672, Note_on_c, 0, 59, 0
2, 30672, Note_on_c, 0, 57, 0
2, 30682, Note_on_c, 0, 62, 0
2, 30684, Note_on_c, 0, 67, 0
2, 30758, Note_on_c, 0, 72, 80
2, 30761, Note_on_c, 0, 48, 0
2, 30770, Note_on_c, 0, 55, 0
2, 30783, Note_on_c, 0, 72, 0
2, 30829, Note_on_c, 0, 72, 89
2, 30863, Note_on_c, 0, 72, 0
2, 30956, Note_on_c, 0, 86, 88
2, 30988, Note_on_c, 0, 86, 0
2, 31060, Note_on_c, 0, 86, 84
2, 31061, Note_on_c, 0, 68, 77
2, 31061, Note_on_c, 0, 63, 64
2, 31061, Note_on_c, 0, 74, 84
2, 31062, Note_on_c, 0, 79, 77
2, 31062, Control_c, 0, 64, 0
2, 31062, Note_on_c, 0, 57, 74
2, 31063, Note_on_c, 0, 83, 62
2, 31068, Note_on_c, 0, 83, 0
2, 31083, Control_c, 0, 64, 127
2, 31107, Note_on_c, 0, 74, 0
2, 31110, Note_on_c, 0, 79, 0
2, 31110, Note_on_c, 0, 86, 0
2, 31116, Note_on_c, 0, 84, 71
2, 31132, Note_on_c, 0, 84, 0
2, 31135, Note_on_c, 0, 68, 0
2, 31135, Note_on_c, 0, 57, 0
2, 31162, Note_on_c, 0, 63, 0
2, 31174, Note_on_c, 0, 76, 58
2, 31174, Note_on_c, 0, 62, 30
2, 31176, Note_on_c, 0, 67, 44
2, 31176, Note_on_c, 0, 56, 44
2, 31177, Note_on_c, 0, 72, 40
2, 31179, Control_c, 0, 64, 0
2, 31222, Control_c, 0, 64, 127
2, 31295, Note_on_c, 0, 67, 0
2, 31301, Note_on_c, 0, 62, 0
2, 31312, Note_on_c, 0, 56, 0
2, 31319, Note_on_c, 0, 72, 0
2, 31333, Note_on_c, 0, 76, 0
2, 31351, Note_on_c, 0, 56, 29
2, 31351, Note_on_c, 0, 65, 30
2, 31353, Note_on_c, 0, 62, 24
2, 31454, Note_on_c, 0, 96, 91
2, 31480, Note_on_c, 0, 62, 0
2, 31494, Note_on_c, 0, 65, 0
2, 31495, Note_on_c, 0, 96, 0
2, 31517, Note_on_c, 0, 56, 0
2, 31542, Note_on_c, 0, 66, 37
2, 31544, Note_on_c, 0, 61, 42
2, 31544, Note_on_c, 0, 55, 42
2, 31549, Control_c, 0, 64, 0
2, 31573, Control_c, 0, 64, 127
2, 31579, Note_on_c, 0, 93, 85
2, 31600, Note_on_c, 0, 93, 0
2, 31605, Note_on_c, 0, 96, 90
2, 31624, Note_on_c, 0, 96, 0
2, 31629, Note_on_c, 0, 94, 79
2, 31636, Note_on_c, 0, 66, 0
2, 31654, Note_on_c, 0, 90, 72
2, 31655, Note_on_c, 0, 94, 0
2, 31674, Note_on_c, 0, 61, 0
2, 31679, Note_on_c, 0, 88, 66
2, 31683, Note_on_c, 0, 90, 0
2, 31699, Note_on_c, 0, 88, 0
2, 31704, Note_on_c, 0, 93, 83
2, 31712, Note_on_c, 0, 65, 47
2, 31714, Note_on_c, 0, 61, 34
2, 31715, Control_c, 0, 64, 0
2, 31732, Note_on_c, 0, 91, 63
2, 31739, Control_c, 0, 64, 127
2, 31741, Note_on_c, 0, 93, 0
2, 31757, Note_on_c, 0, 88, 68
2, 31758, Note_on_c, 0, 91, 0
2, 31779, Note_on_c, 0, 88, 0
2, 31793, Note_on_c, 0, 65, 0
2, 31807, Note_on_c, 0, 55, 0
2, 31811, Note_on_c, 0, 84, 56
2, 31836, Note_on_c, 0, 84, 0
2, 31836, Note_on_c, 0, 82, 67
2, 31859, Note_on_c, 0, 82, 0
2, 31859, Note_on_c, 0, 61, 0
2, 31865, Note_on_c, 0, 81, 60
2, 31874, Note_on_c, 0, 60, 36
2, 31874, Note_on_c, 0, 54, 30
2, 31876, Control_c, 0, 64, 0
2, 31876, Note_on_c, 0, 64, 20
2, 31885, Note_on_c, 0, 81, 0
2, 31893, Note_on_c, 0, 82, 59
2, 31910, Note_on_c, 0, 82, 0
2, 31923, Note_on_c, 0, 83, 53
2, 31941, Note_on_c, 0, 83, 0
2, 31955, Note_on_c, 0, 84, 58
2, 31969, Note_on_c, 0, 84, 0
2, 31983, Note_on_c, 0, 73, 59
2, 31984, Note_on_c, 0, 85, 56
2, 32001, Note_on_c, 0, 85, 0
2, 32001, Control_c, 0, 64, 127
2, 32005, Note_on_c, 0, 73, 0
2, 32007, Note_on_c, 0, 74, 57
2, 32012, Note_on_c, 0, 64, 0
2, 32014, Note_on_c, 0, 54, 0
2, 32017, Note_on_c, 0, 60, 0
2, 32023, Note_on_c, 0, 74, 0
2, 32026, Note_on_c, 0, 86, 49
2, 32037, Note_on_c, 0, 74, 36
2, 32048, Note_on_c, 0, 86, 0
2, 32051, Control_c, 0, 64, 0
2, 32051, Note_on_c, 0, 60, 39
2, 32051, Note_on_c, 0, 54, 35
2, 32052, Note_on_c, 0, 64, 24
2, 32057, Note_on_c, 0, 74, 0
2, 32069, Control_c, 0, 64, 127
2, 32123, Note_on_c, 0, 84, 68
2, 32124, Note_on_c, 0, 72, 59
2, 32138, Note_on_c, 0, 72, 0
2, 32139, Note_on_c, 0, 84, 0
2, 32161, Note_on_c, 0, 84, 25
2, 32163, Note_on_c, 0, 54, 0
2, 32164, Note_on_c, 0, 60, 0
2, 32167, Note_on_c, 0, 72, 17
2, 32174, Note_on_c, 0, 72, 0
2, 32174, Note_on_c, 0, 64, 0
2, 32175, Note_on_c, 0, 84, 0
2, 32195, Note_on_c, 0, 84, 53
2, 32198, Note_on_c, 0, 72, 39
2, 32207, Note_on_c, 0, 84, 0
2, 32210, Note_on_c, 0, 72, 0
2, 32234, Control_c, 0, 64, 0
2, 32236, Note_on_c, 0, 83, 46
2, 32237, Note_on_c, 0, 80, 36
2, 32238, Note_on_c, 0, 71, 27
2, 32240, Note_on_c, 0, 59, 37
2, 32240, Note_on_c, 0, 65, 24
2, 32246, Note_on_c, 0, 43, 30
2, 32254, Control_c, 0, 64, 127
2, 32258, Note_on_c, 0, 65, 0
2, 32263, Note_on_c, 0, 59, 0
2, 32276, Note_on_c, 0, 83, 0
2, 32276, Note_on_c, 0, 43, 0
2, 32280, Note_on_c, 0, 80, 0
2, 32287, Note_on_c, 0, 71, 0
2, 32324, Note_on_c, 0, 43, 44
2, 32411, Note_on_c, 0, 63, 33
2, 32412, Note_on_c, 0, 59, 42
2, 32412, Note_on_c, 0, 56, 20
2, 32413, Note_on_c, 0, 53, 36
2, 32416, Note_on_c, 0, 67, 22
2, 32420, Control_c, 0, 64, 0
2, 32450, Control_c, 0, 64, 127
2, 32463, Note_on_c, 0, 43, 0
2, 32493, Note_on_c, 0, 43, 50
2, 32494, Note_on_c, 0, 59, 0
2, 32505, Note_on_c, 0, 56, 0
2, 32518, Note_on_c, 0, 67, 0
2, 32524, Note_on_c, 0, 53, 0
2, 32526, Note_on_c, 0, 63, 0
2, 32578, Note_on_c, 0, 72, 46
2, 32579, Note_on_c, 0, 60, 57
2, 32579, Note_on_c, 0, 52, 41
2, 32584, Control_c, 0, 64, 0
2, 32586, Note_on_c, 0, 69, 30
2, 32591, Note_on_c, 0, 69, 0
2, 32625, Note_on_c, 0, 43, 0
2, 32636, Control_c, 0, 64, 127
2, 32659, Note_on_c, 0, 72, 0
2, 32665, Note_on_c, 0, 43, 41
2, 32674, Note_on_c, 0, 60, 0
2, 32700, Note_on_c, 0, 52, 0
2, 32748, Note_on_c, 0, 64, 47
2, 32750, Note_on_c, 0, 60, 54
2, 32751, Note_on_c, 0, 55, 40
2, 32751, Note_on_c, 0, 52, 34
2, 32759, Note_on_c, 0, 52, 0
2, 32772, Note_on_c, 0, 43, 0
2, 32830, Note_on_c, 0, 31, 68
2, 32833, Note_on_c, 0, 64, 0
2, 32834, Note_on_c, 0, 55, 0
2, 32834, Note_on_c, 0, 60, 0
2, 32841, Note_on_c, 0, 31, 0
2, 32906, Control_c, 0, 64, 0
2, 32908, Note_on_c, 0, 30, 64
2, 32909, Note_on_c, 0, 56, 65
2, 32910, Note_on_c, 0, 42, 61
2, 32910, Note_on_c, 0, 60, 69
2, 32910, Note_on_c, 0, 64, 63
2, 32912, Note_on_c, 0, 52, 64
2, 32926, Note_on_c, 0, 52, 0
2, 32926, Control_c, 0, 64, 127
2, 32927, Note_on_c, 0, 30, 0
2, 32931, Note_on_c, 0, 42, 0
2, 32935, Note_on_c, 0, 56, 0
2, 32935, Note_on_c, 0, 60, 0
2, 32939, Note_on_c, 0, 64, 0
2, 32998, Note_on_c, 0, 76, 77
2, 32999, Note_on_c, 0, 68, 87
2, 32999, Note_on_c, 0, 54, 69
2, 32999, Note_on_c, 0, 72, 78
2, 33000, Note_on_c, 0, 58, 64
2, 33000, Note_on_c, 0, 64, 83
2, 33071, Note_on_c, 0, 58, 0
2, 33073, Note_on_c, 0, 54, 0
2, 33146, Note_on_c, 0, 64, 0
2, 33159, Note_on_c, 0, 72, 0
2, 33167, Note_on_c, 0, 68, 0
2, 33190, Note_on_c, 0, 76, 0
2, 33222, Note_on_c, 0, 48, 36
2, 33223, Note_on_c, 0, 69, 56
2, 33223, Note_on_c, 0, 65, 47
2, 33224, Note_on_c, 0, 41, 32
2, 33225, Note_on_c, 0, 57, 44
2, 33228, Control_c, 0, 64, 0
2, 33251, Control_c, 0, 64, 127
2, 33291, Note_on_c, 0, 41, 0
2, 33299, Note_on_c, 0, 48, 0
2, 33312, Note_on_c, 0, 57, 0
2, 33330, Note_on_c, 0, 72, 70
2, 33331, Note_on_c, 0, 69, 0
2, 33337, Note_on_c, 0, 65, 0
2, 33363, Note_on_c, 0, 72, 0
2, 33383, Note_on_c, 0, 60, 34
2, 33384, Note_on_c, 0, 72, 41
2, 33385, Note_on_c, 0, 65, 38
2, 33386, Note_on_c, 0, 57, 34
2, 33386, Note_on_c, 0, 69, 52
2, 33388, Note_on_c, 0, 53, 31
2, 33405, Note_on_c, 0, 60, 0
2, 33410, Note_on_c, 0, 57, 0
2, 33422, Note_on_c, 0, 53, 0
2, 33430, Note_on_c, 0, 65, 0
2, 33434, Note_on_c, 0, 72, 0
2, 33439, Note_on_c, 0, 69, 0
2, 33490, Note_on_c, 0, 47, 53
2, 33536, Note_on_c, 0, 47, 0
2, 33545, Note_on_c, 0, 64, 32
2, 33546, Note_on_c, 0, 60, 46
2, 33546, Note_on_c, 0, 48, 40
2, 33546, Note_on_c, 0, 55, 36
2, 33547, Note_on_c, 0, 57, 40
2, 33555, Control_c, 0, 64, 0
2, 33583, Control_c, 0, 64, 127
2, 33630, Note_on_c, 0, 55, 0
2, 33652, Note_on_c, 0, 60, 0
2, 33652, Note_on_c, 0, 57, 0
2, 33662, Note_on_c, 0, 64, 0
2, 33704, Control_c, 0, 64, 0
2, 33705, Note_on_c, 0, 60, 42
2, 33706, Note_on_c, 0, 57, 49
2, 33707, Note_on_c, 0, 55, 40
2, 33709, Note_on_c, 0, 41, 29
2, 33712, Control_c, 0, 64, 127
2, 33718, Note_on_c, 0, 55, 0
2, 33727, Note_on_c, 0, 48, 0
2, 33731, Note_on_c, 0, 57, 0
2, 33736, Note_on_c, 0, 60, 0
2, 33737, Note_on_c, 0, 41, 0
2, 33790, Note_on_c, 0, 74, 88
2, 33791, Note_on_c, 0, 71, 89
2, 33840, Note_on_c, 0, 71, 0
2, 33845, Note_on_c, 0, 74, 0
2, 33866, Note_on_c, 0, 40, 51
2, 33866, Note_on_c, 0, 67, 51
2, 33866, Note_on_c, 0, 71, 61
2, 33872, Note_on_c, 0, 55, 34
2, 33874, Control_c, 0, 64, 0
2, 33906, Control_c, 0, 64, 127
2, 33934, Note_on_c, 0, 67, 0
2, 33947, Note_on_c, 0, 47, 41
2, 33954, Note_on_c, 0, 55, 0
2, 34007, Note_on_c, 0, 71, 0
2, 34023, Note_on_c, 0, 67, 45
2, 34024, Note_on_c, 0, 55, 33
2, 34025, Note_on_c, 0, 64, 38
2, 34026, Note_on_c, 0, 62, 28
2, 34047, Note_on_c, 0, 47, 0
2, 34050, Note_on_c, 0, 55, 0
2, 34055, Note_on_c, 0, 40, 0
2, 34113, Note_on_c, 0, 64, 0
2, 34124, Note_on_c, 0, 62, 0
2, 34159, Note_on_c, 0, 67, 0
2, 34181, Note_on_c, 0, 45, 30
2, 34184, Note_on_c, 0, 69, 45
2, 34184, Note_on_c, 0, 38, 33
2, 34186, Note_on_c, 0, 60, 31
2, 34187, Note_on_c, 0, 65, 38
2, 34187, Control_c, 0, 64, 0
2, 34189, Note_on_c, 0, 53, 28
2, 34210, Control_c, 0, 64, 127
2, 34226, Note_on_c, 0, 38, 0
2, 34231, Note_on_c, 0, 45, 0
2, 34239, Note_on_c, 0, 53, 0
2, 34240, Note_on_c, 0, 60, 0
2, 34249, Note_on_c, 0, 65, 0
2, 34254, Note_on_c, 0, 69, 0
2, 34340, Note_on_c, 0, 60, 35
2, 34342, Note_on_c, 0, 57, 37
2, 34343, Note_on_c, 0, 53, 46
2, 34343, Note_on_c, 0, 50, 29
2, 34450, Note_on_c, 0, 60, 0
2, 34459, Note_on_c, 0, 57, 0
2, 34466, Note_on_c, 0, 53, 0
2, 34468, Note_on_c, 0, 91, 84
2, 34469, Note_on_c, 0, 79, 84
2, 34498, Note_on_c, 0, 79, 0
2, 34499, Note_on_c, 0, 91, 0
2, 34519, Note_on_c, 0, 60, 56
2, 34519, Note_on_c, 0, 57, 45
2, 34520, Note_on_c, 0, 91, 73
2, 34521, Note_on_c, 0, 79, 73
2, 34522, Note_on_c, 0, 53, 33
2, 34534, Note_on_c, 0, 91, 0
2, 34537, Note_on_c, 0, 79, 0
2, 34560, Note_on_c, 0, 88, 53
2, 34561, Note_on_c, 0, 50, 0
2, 34565, Note_on_c, 0, 76, 29
2, 34571, Note_on_c, 0, 76, 0
2, 34571, Note_on_c, 0, 88, 0
2, 34598, Note_on_c, 0, 88, 62
2, 34600, Note_on_c, 0, 76, 37
2, 34606, Note_on_c, 0, 88, 0
2, 34609, Note_on_c, 0, 76, 0
2, 34630, Note_on_c, 0, 84, 55
2, 34634, Note_on_c, 0, 72, 25
2, 34641, Note_on_c, 0, 72, 0
2, 34643, Note_on_c, 0, 84, 0
2, 34644, Note_on_c, 0, 60, 0
2, 34653, Note_on_c, 0, 57, 0
2, 34658, Note_on_c, 0, 53, 0
2, 34676, Note_on_c, 0, 60, 38
2, 34676, Note_on_c, 0, 53, 33
2, 34676, Note_on_c, 0, 84, 59
2, 34677, Note_on_c, 0, 72, 56
2, 34677, Note_on_c, 0, 57, 29
2, 34679, Note_on_c, 0, 50, 24
2, 34679, Control_c, 0, 64, 0
2, 34688, Note_on_c, 0, 72, 0
2, 34688, Note_on_c, 0, 84, 0
2, 34689, Control_c, 0, 64, 127
2, 34731, Note_on_c, 0, 79, 43
2, 34732, Note_on_c, 0, 67, 41
2, 34737, Note_on_c, 0, 78, 31
2, 34745, Note_on_c, 0, 78, 0
2, 34754, Note_on_c, 0, 67, 0
2, 34765, Note_on_c, 0, 79, 0
2, 34770, Note_on_c, 0, 53, 0
2, 34772, Note_on_c, 0, 57, 0
2, 34774, Note_on_c, 0, 50, 0
2, 34788, Note_on_c, 0, 60, 0
2, 34789, Note_on_c, 0, 81, 70
2, 34791, Note_on_c, 0, 69, 62
2, 34813, Note_on_c, 0, 69, 0
2, 34817, Note_on_c, 0, 81, 0
2, 34843, Note_on_c, 0, 83, 52
2, 34844, Note_on_c, 0, 71, 47
2, 34844, Note_on_c, 0, 52, 34
2, 34845, Note_on_c, 0, 59, 31
2, 34845, Note_on_c, 0, 62, 27
2, 34846, Control_c, 0, 64, 0
2, 34847, Note_on_c, 0, 55, 33
2, 34867, Control_c, 0, 64, 127
2, 34868, Note_on_c, 0, 71, 0
2, 34872, Note_on_c, 0, 83, 0
2, 34890, Note_on_c, 0, 86, 68
2, 34891, Note_on_c, 0, 74, 59
2, 34909, Note_on_c, 0, 86, 0
2, 34915, Note_on_c, 0, 74, 0
2, 34927, Note_on_c, 0, 62, 0
2, 34940, Note_on_c, 0, 55, 0
2, 34943, Note_on_c, 0, 79, 47
2, 34947, Note_on_c, 0, 59, 0
2, 34947, Note_on_c, 0, 67, 46
2, 34990, Note_on_c, 0, 62, 27
2, 34992, Note_on_c, 0, 59, 24
2, 34995, Note_on_c, 0, 55, 34
2, 35023, Note_on_c, 0, 79, 0
2, 35024, Note_on_c, 0, 59, 0
2, 35025, Note_on_c, 0, 62, 0
2, 35033, Note_on_c, 0, 67, 0
2, 35033, Note_on_c, 0, 55, 0
2, 35038, Note_on_c, 0, 52, 0
2, 35086, Note_on_c, 0, 48, 64
2, 35103, Note_on_c, 0, 48, 0
2, 35127, Note_on_c, 0, 48, 50
2, 35166, Note_on_c, 0, 48, 0
2, 35169, Control_c, 0, 64, 0
2, 35170, Note_on_c, 0, 69, 37
2, 35170, Note_on_c, 0, 41, 45
2, 35171, Note_on_c, 0, 64, 37
2, 35171, Note_on_c, 0, 57, 34
2, 35187, Note_on_c, 0, 57, 0
2, 35193, Control_c, 0, 64, 127
2, 35200, Note_on_c, 0, 64, 0
2, 35204, Note_on_c, 0, 48, 60
2, 35205, Note_on_c, 0, 69, 0
2, 35213, Note_on_c, 0, 41, 0
2, 35228, Note_on_c, 0, 48, 0
2, 35243, Note_on_c, 0, 57, 50
2, 35258, Note_on_c, 0, 57, 0
2, 35277, Control_c, 0, 64, 0
2, 35280, Note_on_c, 0, 63, 70
2, 35281, Note_on_c, 0, 73, 69
2, 35281, Note_on_c, 0, 58, 62
2, 35281, Note_on_c, 0, 68, 70
2, 35291, Control_c, 0, 64, 127
2, 35312, Note_on_c, 0, 68, 0
2, 35313, Note_on_c, 0, 73, 0
2, 35314, Note_on_c, 0, 63, 0
2, 35318, Note_on_c, 0, 58, 0
2, 35321, Control_c, 0, 64, 0
2, 35327, Note_on_c, 0, 72, 61
2, 35328, Note_on_c, 0, 67, 57
2, 35330, Note_on_c, 0, 62, 64
2, 35331, Note_on_c, 0, 57, 46
2, 35342, Control_c, 0, 64, 127
2, 35344, Note_on_c, 0, 72, 0
2, 35347, Note_on_c, 0, 67, 0
2, 35359, Note_on_c, 0, 62, 0
2, 35373, Note_on_c, 0, 69, 58
2, 35374, Note_on_c, 0, 57, 0
2, 35375, Note_on_c, 0, 60, 47
2, 35377, Note_on_c, 0, 64, 45
2, 35377, Note_on_c, 0, 53, 37
2, 35383, Note_on_c, 0, 53, 0
2, 35388, Note_on_c, 0, 64, 0
2, 35389, Note_on_c, 0, 69, 0
2, 35391, Note_on_c, 0, 60, 0
2, 35449, Note_on_c, 0, 41, 38
2, 35488, Control_c, 0, 64, 0
2, 35489, Note_on_c, 0, 67, 46
2, 35490, Note_on_c, 0, 57, 52
2, 35491, Note_on_c, 0, 64, 36
2, 35491, Note_on_c, 0, 60, 59
2, 35492, Note_on_c, 0, 52, 29
2, 35510, Note_on_c, 0, 64, 0
2, 35512, Control_c, 0, 64, 127
2, 35516, Note_on_c, 0, 67, 0
2, 35517, Note_on_c, 0, 60, 0
2, 35519, Note_on_c, 0, 57, 0
2, 35521, Note_on_c, 0, 52, 0
2, 35533, Control_c, 0, 64, 0
2, 35542, Note_on_c, 0, 65, 40
2, 35542, Note_on_c, 0, 50, 47
2, 35542, Note_on_c, 0, 60, 59
2, 35543, Note_on_c, 0, 57, 42
2, 35558, Control_c, 0, 64, 127
2, 35600, Note_on_c, 0, 60, 0
2, 35601, Note_on_c, 0, 57, 0
2, 35604, Note_on_c, 0, 65, 0
2, 35651, Note_on_c, 0, 50, 0
2, 35668, Note_on_c, 0, 41, 0
2, 35713, Note_on_c, 0, 56, 42
2, 35715, Note_on_c, 0, 60, 57
2, 35716, Note_on_c, 0, 52, 40
2, 35717, Note_on_c, 0, 42, 36
2, 35718, Control_c, 0, 64, 0
2, 35739, Control_c, 0, 64, 127
2, 35752, Note_on_c, 0, 42, 0
2, 35754, Note_on_c, 0, 60, 0
2, 35755, Note_on_c, 0, 52, 0
2, 35760, Note_on_c, 0, 56, 0
2, 35774, Note_on_c, 0, 56, 43
2, 35776, Note_on_c, 0, 52, 53
2, 35776, Note_on_c, 0, 42, 43
2, 35777, Note_on_c, 0, 60, 58
2, 35799, Note_on_c, 0, 42, 0
2, 35800, Note_on_c, 0, 52, 0
2, 35803, Note_on_c, 0, 60, 0
2, 35809, Note_on_c, 0, 56, 0
2, 35833, Control_c, 0, 64, 0
2, 35835, Note_on_c, 0, 41, 36
2, 35838, Note_on_c, 0, 60, 53
2, 35839, Note_on_c, 0, 48, 26
2, 35839, Note_on_c, 0, 57, 45
2, 35839, Note_on_c, 0, 52, 40
2, 35857, Note_on_c, 0, 52, 0
2, 35858, Note_on_c, 0, 48, 0
2, 35858, Control_c, 0, 64, 127
2, 35873, Note_on_c, 0, 57, 0
2, 35880, Note_on_c, 0, 60, 0
2, 35884, Note_on_c, 0, 48, 57
2, 35894, Note_on_c, 0, 41, 0
2, 35912, Note_on_c, 0, 48, 0
2, 35920, Note_on_c, 0, 57, 63
2, 35934, Note_on_c, 0, 57, 0
2, 35963, Note_on_c, 0, 60, 58
2, 35965, Note_on_c, 0, 69, 78
2, 35965, Note_on_c, 0, 81, 78
2, 35978, Note_on_c, 0, 69, 0
2, 35986, Note_on_c, 0, 81, 0
2, 36010, Note_on_c, 0, 57, 42
2, 36011, Note_on_c, 0, 64, 61
2, 36011, Note_on_c, 0, 72, 83
2, 36011, Note_on_c, 0, 84, 88
2, 36043, Note_on_c, 0, 64, 0
2, 36046, Note_on_c, 0, 84, 0
2, 36048, Note_on_c, 0, 60, 0
2, 36051, Note_on_c, 0, 57, 0
2, 36052, Note_on_c, 0, 72, 0
2, 36064, Note_on_c, 0, 72, 60
2, 36065, Note_on_c, 0, 84, 73
2, 36085, Note_on_c, 0, 84, 0
2, 36085, Note_on_c, 0, 72, 0
2, 36117, Note_on_c, 0, 84, 61
2, 36119, Note_on_c, 0, 72, 50
2, 36123, Note_on_c, 0, 84, 0
2, 36124, Note_on_c, 0, 72, 0
2, 36142, Note_on_c, 0, 86, 60
2, 36146, Note_on_c, 0, 74, 33
2, 36151, Note_on_c, 0, 86, 0
2, 36153, Note_on_c, 0, 74, 0
2, 36167, Note_on_c, 0, 48, 27
2, 36170, Note_on_c, 0, 41, 29
2, 36171, Note_on_c, 0, 84, 58
2, 36172, Note_on_c, 0, 72, 46
2, 36173, Note_on_c, 0, 57, 53
2, 36173, Control_c, 0, 64, 0
2, 36195, Control_c, 0, 64, 127
2, 36225, Note_on_c, 0, 41, 0
2, 36228, Note_on_c, 0, 48, 0
2, 36239, Note_on_c, 0, 57, 0
2, 36248, Note_on_c, 0, 84, 0
2, 36256, Note_on_c, 0, 72, 0
2, 36335, Note_on_c, 0, 64, 30
2, 36336, Note_on_c, 0, 60, 33
2, 36336, Note_on_c, 0, 69, 32
2, 36337, Note_on_c, 0, 53, 24
2, 36341, Note_on_c, 0, 57, 24
2, 36365, Note_on_c, 0, 69, 0
2, 36367, Note_on_c, 0, 64, 0
2, 36373, Note_on_c, 0, 60, 0
2, 36378, Note_on_c, 0, 57, 0
2, 36390, Note_on_c, 0, 53, 0
2, 36416, Note_on_c, 0, 84, 72
2, 36419, Note_on_c, 0, 72, 74
2, 36433, Note_on_c, 0, 72, 0
2, 36438, Note_on_c, 0, 84, 0
2, 36454, Note_on_c, 0, 86, 68
2, 36456, Note_on_c, 0, 74, 57
2, 36463, Note_on_c, 0, 86, 0
2, 36464, Note_on_c, 0, 74, 0
2, 36493, Note_on_c, 0, 47, 24
2, 36495, Note_on_c, 0, 40, 45
2, 36498, Note_on_c, 0, 71, 54
2, 36498, Note_on_c, 0, 83, 62
2, 36500, Note_on_c, 0, 55, 47
2, 36501, Control_c, 0, 64, 0
2, 36503, Note_on_c, 0, 79, 42
2, 36515, Note_on_c, 0, 47, 0
2, 36528, Control_c, 0, 64, 127
2, 36539, Note_on_c, 0, 83, 0
2, 36541, Note_on_c, 0, 79, 0
2, 36543, Note_on_c, 0, 47, 55
2, 36546, Note_on_c, 0, 55, 0
2, 36551, Note_on_c, 0, 71, 0
2, 36570, Note_on_c, 0, 40, 0
2, 36575, Note_on_c, 0, 47, 0
2, 36579, Note_on_c, 0, 55, 48
2, 36590, Note_on_c, 0, 55, 0
2, 36623, Note_on_c, 0, 59, 68
2, 36665, Note_on_c, 0, 79, 74
2, 36666, Note_on_c, 0, 74, 79
2, 36667, Note_on_c, 0, 67, 80
2, 36667, Note_on_c, 0, 64, 71
2, 36669, Note_on_c, 0, 77, 45
2, 36675, Note_on_c, 0, 77, 0
2, 36705, Note_on_c, 0, 59, 0
2, 36718, Note_on_c, 0, 59, 54
2, 36726, Note_on_c, 0, 67, 0
2, 36762, Note_on_c, 0, 64, 0
2, 36762, Note_on_c, 0, 59, 0
2, 36766, Note_on_c, 0, 79, 0
2, 36769, Note_on_c, 0, 74, 0
2, 36811, Note_on_c, 0, 57, 24
2, 36840, Note_on_c, 0, 57, 0
2, 36842, Note_on_c, 0, 81, 42
2, 36843, Note_on_c, 0, 77, 35
2, 36845, Note_on_c, 0, 60, 31
2, 36845, Control_c, 0, 64, 0
2, 36847, Note_on_c, 0, 50, 45
2, 36848, Note_on_c, 0, 69, 32
2, 36880, Control_c, 0, 64, 127
2, 36897, Note_on_c, 0, 81, 0
2, 36899, Note_on_c, 0, 57, 34
2, 36903, Note_on_c, 0, 77, 0
2, 36908, Note_on_c, 0, 69, 0
2, 36964, Note_on_c, 0, 60, 0
2, 36975, Note_on_c, 0, 57, 0
2, 37080, Note_on_c, 0, 60, 43
2, 37082, Note_on_c, 0, 65, 59
2, 37083, Note_on_c, 0, 64, 34
2, 37088, Note_on_c, 0, 57, 29
2, 37120, Note_on_c, 0, 65, 0
2, 37129, Note_on_c, 0, 60, 0
2, 37130, Note_on_c, 0, 50, 0
2, 37140, Note_on_c, 0, 65, 66
2, 37152, Note_on_c, 0, 64, 0
2, 37154, Note_on_c, 0, 65, 0
2, 37171, Note_on_c, 0, 50, 35
2, 37177, Note_on_c, 0, 57, 0
2, 37178, Note_on_c, 0, 50, 0
2, 37200, Note_on_c, 0, 50, 60
2, 37201, Note_on_c, 0, 69, 63
2, 37201, Note_on_c, 0, 60, 59
2, 37201, Note_on_c, 0, 65, 63
2, 37204, Control_c, 0, 64, 0
2, 37232, Control_c, 0, 64, 127
2, 37255, Note_on_c, 0, 57, 68
2, 37283, Note_on_c, 0, 60, 0
2, 37308, Note_on_c, 0, 69, 0
2, 37309, Note_on_c, 0, 65, 0
2, 37310, Note_on_c, 0, 60, 74
2, 37334, Note_on_c, 0, 60, 0
2, 37336, Note_on_c, 0, 50, 0
2, 37358, Note_on_c, 0, 50, 66
2, 37359, Note_on_c, 0, 72, 91
2, 37384, Note_on_c, 0, 50, 0
2, 37385, Note_on_c, 0, 72, 0
2, 37414, Note_on_c, 0, 57, 0
2, 37417, Note_on_c, 0, 71, 54
2, 37418, Note_on_c, 0, 52, 53
2, 37418, Note_on_c, 0, 67, 54
2, 37419, Note_on_c, 0, 62, 40
2, 37419, Note_on_c, 0, 64, 49
2, 37420, Control_c, 0, 64, 0
2, 37486, Note_on_c, 0, 59, 38
2, 37495, Control_c, 0, 64, 127
2, 37499, Note_on_c, 0, 62, 0
2, 37508, Note_on_c, 0, 64, 0
2, 37511, Note_on_c, 0, 67, 0
2, 37552, Note_on_c, 0, 71, 0
2, 37554, Note_on_c, 0, 67, 39
2, 37560, Note_on_c, 0, 64, 29
2, 37561, Note_on_c, 0, 62, 24
2, 37604, Note_on_c, 0, 52, 0
2, 37609, Note_on_c, 0, 62, 0
2, 37611, Note_on_c, 0, 64, 0
2, 37617, Note_on_c, 0, 67, 0
2, 37641, Note_on_c, 0, 52, 48
2, 37643, Note_on_c, 0, 62, 30
2, 37644, Note_on_c, 0, 67, 32
2, 37670, Note_on_c, 0, 59, 0
2, 37677, Note_on_c, 0, 67, 0
2, 37680, Note_on_c, 0, 62, 0
2, 37725, Note_on_c, 0, 52, 0
2, 37738, Note_on_c, 0, 69, 43
2, 37738, Note_on_c, 0, 60, 32
2, 37739, Note_on_c, 0, 64, 43
2, 37743, Control_c, 0, 64, 0
2, 37744, Note_on_c, 0, 53, 27
2, 37773, Control_c, 0, 64, 127
2, 37792, Note_on_c, 0, 60, 0
2, 37838, Note_on_c, 0, 60, 55
2, 37859, Note_on_c, 0, 69, 0
2, 37866, Note_on_c, 0, 64, 0
2, 37875, Note_on_c, 0, 60, 0
2, 37944, Note_on_c, 0, 53, 0
2, 37960, Note_on_c, 0, 60, 68
2, 38033, Note_on_c, 0, 60, 0
2, 38079, Note_on_c, 0, 60, 50
2, 38146, Note_on_c, 0, 60, 0
2, 38228, Note_on_c, 0, 53, 31
2, 38228, Note_on_c, 0, 57, 31
2, 38228, Note_on_c, 0, 60, 43
2, 38230, Note_on_c, 0, 31, 35
2, 38232, Note_on_c, 0, 43, 20
2, 38236, Control_c, 0, 64, 0
2, 38274, Control_c, 0, 64, 127
2, 38341, Note_on_c, 0, 60, 0
2, 38368, Note_on_c, 0, 60, 46
2, 38384, Note_on_c, 0, 43, 0
2, 38398, Note_on_c, 0, 31, 0
2, 38418, Note_on_c, 0, 53, 0
2, 38419, Note_on_c, 0, 57, 0
2, 38434, Note_on_c, 0, 60, 0
2, 38584, Note_on_c, 0, 62, 24
2, 38587, Note_on_c, 0, 56, 31
2, 38588, Note_on_c, 0, 53, 27
2, 38589, Note_on_c, 0, 59, 36
2, 38592, Note_on_c, 0, 43, 20
2, 38592, Note_on_c, 0, 31, 36
2, 38599, Control_c, 0, 64, 0
2, 38664, Control_c, 0, 64, 127
2, 38719, Note_on_c, 0, 53, 0
2, 38725, Note_on_c, 0, 31, 0
2, 38737, Note_on_c, 0, 59, 0
2, 38739, Note_on_c, 0, 56, 0
2, 38741, Note_on_c, 0, 43, 0
2, 38747, Note_on_c, 0, 62, 0
2, 39133, Note_on_c, 0, 76, 52
2, 39133, Note_on_c, 0, 36, 54
2, 39135, Note_on_c, 0, 69, 28
2, 39141, Control_c, 0, 64, 0
2, 39168, Control_c, 0, 64, 127
2, 39179, Note_on_c, 0, 69, 0
2, 39182, Note_on_c, 0, 43, 35
2, 39188, Note_on_c, 0, 76, 0
2, 39208, Note_on_c, 0, 36, 0
2, 39224, Note_on_c, 0, 43, 0
2, 39230, Note_on_c, 0, 52, 48
2, 39250, Note_on_c, 0, 52, 0
2, 39282, Note_on_c, 0, 55, 55
2, 39283, Note_on_c, 0, 79, 58
2, 39304, Note_on_c, 0, 79, 0
2, 39341, Note_on_c, 0, 79, 51
2, 39344, Note_on_c, 0, 62, 46
2, 39344, Note_on_c, 0, 67, 38
2, 39415, Note_on_c, 0, 67, 0
2, 39415, Note_on_c, 0, 55, 0
2, 39424, Note_on_c, 0, 55, 34
2, 39462, Note_on_c, 0, 62, 0
2, 39501, Note_on_c, 0, 67, 28
2, 39504, Note_on_c, 0, 60, 36
2, 39548, Note_on_c, 0, 55, 0
2, 39612, Note_on_c, 0, 55, 34
2, 39636, Note_on_c, 0, 55, 0
2, 39650, Note_on_c, 0, 60, 0
2, 39656, Note_on_c, 0, 79, 0
2, 39664, Note_on_c, 0, 67, 0
2, 39813, Note_on_c, 0, 55, 50
2, 39816, Note_on_c, 0, 76, 66
2, 39819, Note_on_c, 0, 67, 42
2, 39821, Control_c, 0, 64, 0
2, 39822, Note_on_c, 0, 64, 20
2, 39839, Control_c, 0, 64, 127
2, 39863, Note_on_c, 0, 64, 0
2, 39863, Note_on_c, 0, 76, 0
2, 39870, Note_on_c, 0, 60, 36
2, 39873, Note_on_c, 0, 67, 0
2, 39878, Note_on_c, 0, 55, 0
2, 39888, Note_on_c, 0, 60, 0
2, 39917, Note_on_c, 0, 71, 45
2, 39918, Note_on_c, 0, 56, 35
2, 39918, Note_on_c, 0, 65, 36
2, 39921, Note_on_c, 0, 68, 35
2, 39924, Control_c, 0, 64, 0
2, 39937, Control_c, 0, 64, 127
2, 39964, Note_on_c, 0, 62, 36
2, 39964, Note_on_c, 0, 74, 62
2, 39967, Note_on_c, 0, 71, 0
2, 39971, Note_on_c, 0, 62, 0
2, 39980, Note_on_c, 0, 68, 0
2, 39983, Note_on_c, 0, 65, 0
2, 39986, Note_on_c, 0, 74, 0
2, 40019, Note_on_c, 0, 56, 0
2, 40022, Note_on_c, 0, 57, 36
2, 40024, Note_on_c, 0, 64, 51
2, 40025, Note_on_c, 0, 72, 51
2, 40031, Control_c, 0, 64, 0
2, 40067, Control_c, 0, 64, 127
2, 40090, Note_on_c, 0, 57, 0
2, 40093, Note_on_c, 0, 72, 0
2, 40099, Note_on_c, 0, 52, 27
2, 40101, Note_on_c, 0, 64, 0
2, 40110, Note_on_c, 0, 52, 0
2, 40167, Note_on_c, 0, 55, 42
2, 40168, Note_on_c, 0, 64, 35
2, 40171, Note_on_c, 0, 60, 31
2, 40270, Note_on_c, 0, 55, 0
2, 40290, Note_on_c, 0, 60, 0
2, 40314, Note_on_c, 0, 64, 0
2, 40428, Note_on_c, 0, 27, 27
2, 40441, Note_on_c, 0, 55, 44
2, 40451, Note_on_c, 0, 27, 0
2, 40467, Note_on_c, 0, 55, 0
2, 40530, Note_on_c, 0, 48, 29
2, 40530, Note_on_c, 0, 55, 25
2, 40530, Note_on_c, 0, 52, 31
2, 40531, Note_on_c, 0, 57, 42
2, 40533, Note_on_c, 0, 26, 30
2, 40536, Control_c, 0, 64, 0
2, 40598, Control_c, 0, 64, 127
2, 40611, Note_on_c, 0, 52, 0
2, 40624, Note_on_c, 0, 57, 0
2, 40627, Note_on_c, 0, 62, 51
2, 40636, Note_on_c, 0, 55, 0
2, 40645, Note_on_c, 0, 26, 0
2, 40648, Note_on_c, 0, 48, 0
2, 40648, Note_on_c, 0, 62, 0
2, 40716, Note_on_c, 0, 74, 64
2, 40717, Note_on_c, 0, 68, 53
2, 40718, Note_on_c, 0, 64, 53
2, 40718, Note_on_c, 0, 71, 58
2, 40723, Note_on_c, 0, 54, 44
2, 40764, Note_on_c, 0, 74, 0
2, 40768, Note_on_c, 0, 64, 0
2, 40777, Note_on_c, 0, 71, 0
2, 40782, Note_on_c, 0, 68, 0
2, 40790, Note_on_c, 0, 76, 80
2, 40790, Note_on_c, 0, 60, 58
2, 40835, Note_on_c, 0, 76, 0
2, 40837, Note_on_c, 0, 54, 0
2, 40961, Note_on_c, 0, 60, 0
2, 41026, Note_on_c, 0, 79, 71
2, 41028, Note_on_c, 0, 72, 64
2, 41028, Note_on_c, 0, 67, 62
2, 41029, Note_on_c, 0, 60, 40
2, 41030, Control_c, 0, 64, 0
2, 41030, Note_on_c, 0, 64, 41
2, 41040, Note_on_c, 0, 52, 47
2, 41053, Control_c, 0, 64, 127
2, 41060, Note_on_c, 0, 79, 0
2, 41066, Note_on_c, 0, 72, 0
2, 41075, Note_on_c, 0, 67, 0
2, 41083, Note_on_c, 0, 64, 0
2, 41100, Note_on_c, 0, 60, 0
2, 41102, Note_on_c, 0, 48, 60
2, 41103, Note_on_c, 0, 52, 0
2, 41112, Note_on_c, 0, 76, 62
2, 41115, Note_on_c, 0, 69, 66
2, 41115, Note_on_c, 0, 60, 40
2, 41120, Control_c, 0, 64, 0
2, 41129, Control_c, 0, 64, 127
2, 41134, Note_on_c, 0, 48, 0
2, 41145, Note_on_c, 0, 76, 0
2, 41152, Note_on_c, 0, 60, 0
2, 41154, Note_on_c, 0, 69, 0
2, 41187, Control_c, 0, 64, 0
2, 41190, Note_on_c, 0, 74, 53
2, 41192, Note_on_c, 0, 69, 62
2, 41193, Note_on_c, 0, 65, 40
2, 41194, Note_on_c, 0, 55, 34
2, 41196, Note_on_c, 0, 60, 47
2, 41200, Note_on_c, 0, 57, 34
2, 41210, Control_c, 0, 64, 127
2, 41211, Note_on_c, 0, 60, 0
2, 41219, Note_on_c, 0, 55, 0
2, 41219, Note_on_c, 0, 57, 0
2, 41273, Note_on_c, 0, 31, 50
2, 41279, Note_on_c, 0, 65, 0
2, 41280, Note_on_c, 0, 74, 0
2, 41282, Note_on_c, 0, 69, 0
2, 41285, Note_on_c, 0, 31, 0
2, 41359, Note_on_c, 0, 62, 31
2, 41361, Note_on_c, 0, 60, 50
2, 41361, Note_on_c, 0, 53, 42
2, 41362, Note_on_c, 0, 57, 41
2, 41425, Note_on_c, 0, 53, 0
2, 41448, Note_on_c, 0, 43, 83
2, 41520, Note_on_c, 0, 57, 0
2, 41523, Note_on_c, 0, 60, 0
2, 41526, Note_on_c, 0, 62, 0
2, 41553, Note_on_c, 0, 62, 44
2, 41554, Note_on_c, 0, 60, 54
2, 41555, Note_on_c, 0, 57, 58
2, 41558, Note_on_c, 0, 55, 40
2, 41564, Control_c, 0, 64, 0
2, 41588, Control_c, 0, 64, 127
2, 41638, Note_on_c, 0, 43, 0
2, 41675, Note_on_c, 0, 43, 35
2, 41686, Note_on_c, 0, 55, 0
2, 41724, Note_on_c, 0, 43, 0
2, 41740, Note_on_c, 0, 57, 0
2, 41744, Note_on_c, 0, 60, 0
2, 41750, Note_on_c, 0, 62, 0
2, 41809, Note_on_c, 0, 67, 40
2, 41811, Note_on_c, 0, 63, 39
2, 41812, Note_on_c, 0, 58, 26
2, 41814, Note_on_c, 0, 53, 35
2, 41814, Note_on_c, 0, 59, 24
2, 41814, Note_on_c, 0, 49, 27
2, 41815, Control_c, 0, 64, 0
2, 41837, Control_c, 0, 64, 127
2, 41847, Note_on_c, 0, 58, 0
2, 41852, Note_on_c, 0, 63, 0
2, 41854, Note_on_c, 0, 67, 0
2, 41911, Note_on_c, 0, 75, 35
2, 41911, Note_on_c, 0, 87, 40
2, 41917, Note_on_c, 0, 75, 0
2, 41922, Note_on_c, 0, 87, 0
2, 41986, Note_on_c, 0, 99, 51
2, 41989, Note_on_c, 0, 87, 31
2, 42041, Note_on_c, 0, 99, 0
2, 42048, Note_on_c, 0, 87, 0
2, 42161, Note_on_c, 0, 53, 0
2, 42162, Note_on_c, 0, 49, 0
2, 42164, Note_on_c, 0, 59, 0
2, 42269, Note_on_c, 0, 74, 47
2, 42276, Note_on_c, 0, 75, 49
2, 42285, Note_on_c, 0, 75, 0
2, 42285, Note_on_c, 0, 74, 0
2, 42287, Note_on_c, 0, 69, 19
2, 42287, Note_on_c, 0, 58, 23
2, 42288, Note_on_c, 0, 62, 22
2, 42288, Note_on_c, 0, 76, 47
2, 42290, Note_on_c, 0, 64, 27
2, 42291, Control_c, 0, 64, 0
2, 42328, Note_on_c, 0, 76, 0
2, 42330, Note_on_c, 0, 79, 57
2, 42341, Note_on_c, 0, 79, 0
2, 42378, Note_on_c, 0, 81, 52
2, 42393, Note_on_c, 0, 81, 0
2, 42407, Note_on_c, 0, 76, 60
2, 42414, Note_on_c, 0, 76, 0
2, 42439, Note_on_c, 0, 79, 69
2, 42458, Note_on_c, 0, 79, 0
2, 42463, Note_on_c, 0, 81, 53
2, 42482, Note_on_c, 0, 81, 0
2, 42493, Note_on_c, 0, 79, 66
2, 42507, Control_c, 0, 64, 127
2, 42544, Note_on_c, 0, 69, 0
2, 42545, Note_on_c, 0, 62, 0
2, 42546, Note_on_c, 0, 64, 0
2, 42560, Note_on_c, 0, 58, 0
2, 42591, Note_on_c, 0, 68, 42
2, 42591, Note_on_c, 0, 57, 46
2, 42594, Note_on_c, 0, 63, 42
2, 42600, Control_c, 0, 64, 0
2, 42622, Control_c, 0, 64, 127
2, 42754, Note_on_c, 0, 79, 0
2, 42832, Note_on_c, 0, 81, 35
2, 42836, Note_on_c, 0, 57, 0
2, 42839, Note_on_c, 0, 68, 0
2, 42843, Note_on_c, 0, 82, 77
2, 42850, Note_on_c, 0, 83, 83
2, 42851, Note_on_c, 0, 81, 0
2, 42855, Note_on_c, 0, 63, 0
2, 42857, Note_on_c, 0, 82, 0
2, 42863, Control_c, 0, 64, 0
2, 42864, Note_on_c, 0, 84, 90
2, 42864, Note_on_c, 0, 62, 53
2, 42865, Note_on_c, 0, 56, 61
2, 42865, Note_on_c, 0, 67, 64
2, 42869, Note_on_c, 0, 83, 0
2, 42901, Control_c, 0, 64, 127
2, 43055, Note_on_c, 0, 84, 0
2, 43062, Note_on_c, 0, 74, 61
2, 43062, Note_on_c, 0, 86, 63
2, 43096, Note_on_c, 0, 67, 0
2, 43097, Note_on_c, 0, 62, 0
2, 43110, Note_on_c, 0, 74, 0
2, 43117, Note_on_c, 0, 86, 0
2, 43123, Note_on_c, 0, 56, 0
2, 43215, Note_on_c, 0, 88, 90
2, 43215, Note_on_c, 0, 76, 85
2, 43216, Note_on_c, 0, 84, 78
2, 43216, Note_on_c, 0, 66, 74
2, 43217, Note_on_c, 0, 61, 69
2, 43217, Note_on_c, 0, 81, 66
2, 43217, Note_on_c, 0, 55, 77
2, 43219, Control_c, 0, 64, 0
2, 43221, Note_on_c, 0, 83, 26
2, 43226, Note_on_c, 0, 83, 0
2, 43228, Control_c, 0, 64, 127
2, 43250, Note_on_c, 0, 76, 0
2, 43252, Note_on_c, 0, 55, 0
2, 43256, Note_on_c, 0, 81, 0
2, 43257, Note_on_c, 0, 84, 0
2, 43263, Note_on_c, 0, 66, 0
2, 43264, Note_on_c, 0, 88, 0
2, 43264, Note_on_c, 0, 76, 33
2, 43266, Note_on_c, 0, 61, 0
2, 43269, Note_on_c, 0, 55, 48
2, 43281, Note_on_c, 0, 76, 0
2, 43282, Note_on_c, 0, 81, 34
2, 43287, Note_on_c, 0, 88, 29
2, 43291, Note_on_c, 0, 84, 24
2, 43293, Note_on_c, 0, 55, 0
2, 43296, Note_on_c, 0, 76, 33
2, 43297, Note_on_c, 0, 81, 0
2, 43298, Note_on_c, 0, 84, 0
2, 43298, Note_on_c, 0, 61, 34
2, 43303, Note_on_c, 0, 88, 0
2, 43314, Note_on_c, 0, 61, 0
2, 43315, Note_on_c, 0, 55, 58
2, 43316, Note_on_c, 0, 81, 33
2, 43321, Note_on_c, 0, 76, 0
2, 43322, Note_on_c, 0, 88, 31
2, 43326, Note_on_c, 0, 84, 28
2, 43335, Note_on_c, 0, 84, 0
2, 43336, Note_on_c, 0, 81, 0
2, 43338, Note_on_c, 0, 55, 0
2, 43338, Note_on_c, 0, 76, 32
2, 43339, Note_on_c, 0, 61, 34
2, 43341, Note_on_c, 0, 88, 0
2, 43356, Note_on_c, 0, 61, 0
2, 43359, Note_on_c, 0, 55, 50
2, 43360, Note_on_c, 0, 81, 32
2, 43363, Note_on_c, 0, 76, 0
2, 43365, Note_on_c, 0, 88, 22
2, 43366, Note_on_c, 0, 84, 38
2, 43376, Note_on_c, 0, 81, 0
2, 43377, Note_on_c, 0, 84, 0
2, 43380, Note_on_c, 0, 55, 0
2, 43381, Note_on_c, 0, 76, 34
2, 43384, Note_on_c, 0, 61, 30
2, 43385, Note_on_c, 0, 88, 0
2, 43401, Note_on_c, 0, 81, 33
2, 43402, Note_on_c, 0, 61, 0
2, 43405, Note_on_c, 0, 55, 55
2, 43409, Note_on_c, 0, 76, 0
2, 43410, Note_on_c, 0, 84, 27
2, 43410, Note_on_c, 0, 88, 25
2, 43421, Note_on_c, 0, 84, 0
2, 43421, Note_on_c, 0, 81, 0
2, 43426, Note_on_c, 0, 76, 32
2, 43429, Note_on_c, 0, 55, 0
2, 43429, Note_on_c, 0, 88, 0
2, 43432, Note_on_c, 0, 61, 29
2, 43445, Note_on_c, 0, 81, 32
2, 43452, Note_on_c, 0, 55, 54
2, 43453, Note_on_c, 0, 61, 0
2, 43453, Note_on_c, 0, 76, 0
2, 43453, Note_on_c, 0, 88, 25
2, 43455, Note_on_c, 0, 84, 25
2, 43466, Note_on_c, 0, 81, 0
2, 43468, Note_on_c, 0, 84, 0
2, 43473, Note_on_c, 0, 76, 34
2, 43474, Note_on_c, 0, 88, 0
2, 43484, Note_on_c, 0, 66, 28
2, 43485, Note_on_c, 0, 61, 18
2, 43491, Note_on_c, 0, 81, 33
2, 43499, Note_on_c, 0, 66, 0
2, 43501, Note_on_c, 0, 61, 0
2, 43501, Note_on_c, 0, 76, 0
2, 43501, Note_on_c, 0, 84, 25
2, 43502, Note_on_c, 0, 88, 25
2, 43514, Note_on_c, 0, 81, 0
2, 43519, Note_on_c, 0, 61, 21
2, 43520, Note_on_c, 0, 76, 38
2, 43522, Note_on_c, 0, 55, 0
2, 43522, Note_on_c, 0, 84, 0
2, 43523, Note_on_c, 0, 88, 0
2, 43529, Note_on_c, 0, 61, 0
2, 43534, Note_on_c, 0, 81, 30
2, 43542, Note_on_c, 0, 88, 24
2, 43543, Note_on_c, 0, 84, 15
2, 43576, Note_on_c, 0, 81, 0
2, 43576, Note_on_c, 0, 76, 0
2, 43577, Note_on_c, 0, 88, 0
2, 43577, Note_on_c, 0, 84, 0
2, 43585, Note_on_c, 0, 45, 15
2, 43587, Note_on_c, 0, 33, 35
2, 43739, Note_on_c, 0, 33, 0
2, 43748, Note_on_c, 0, 45, 0
2, 43917, Note_on_c, 0, 74, 71
2, 43919, Note_on_c, 0, 66, 60
2, 43919, Note_on_c, 0, 69, 66
2, 43920, Note_on_c, 0, 64, 64
2, 43922, Control_c, 0, 64, 0
2, 43923, Note_on_c, 0, 60, 45
2, 43924, Note_on_c, 0, 50, 37
2, 43945, Control_c, 0, 64, 127
2, 43959, Note_on_c, 0, 69, 0
2, 43960, Note_on_c, 0, 64, 0
2, 43962, Note_on_c, 0, 66, 0
2, 43968, Note_on_c, 0, 74, 0
2, 43990, Note_on_c, 0, 60, 0
2, 44045, Note_on_c, 0, 50, 0
2, 44119, Note_on_c, 0, 66, 58
2, 44119, Note_on_c, 0, 76, 59
2, 44122, Note_on_c, 0, 72, 56
2, 44123, Note_on_c, 0, 69, 52
2, 44125, Note_on_c, 0, 64, 34
2, 44179, Note_on_c, 0, 64, 0
2, 44183, Note_on_c, 0, 76, 0
2, 44185, Note_on_c, 0, 69, 0
2, 44194, Note_on_c, 0, 66, 0
2, 44195, Note_on_c, 0, 72, 0
2, 44343, Note_on_c, 0, 74, 43
2, 44347, Note_on_c, 0, 65, 27
2, 44349, Note_on_c, 0, 43, 27
2, 44351, Note_on_c, 0, 50, 25
2, 44352, Note_on_c, 0, 55, 30
2, 44354, Control_c, 0, 64, 0
2, 44389, Control_c, 0, 64, 127
2, 44543, Note_on_c, 0, 55, 0
2, 44554, Note_on_c, 0, 50, 0
2, 44563, Note_on_c, 0, 43, 0
2, 44589, Note_on_c, 0, 65, 0
2, 44601, Note_on_c, 0, 74, 0
2, 44954, Note_on_c, 0, 69, 62
2, 45020, Note_on_c, 0, 69, 0
2, 45042, Note_on_c, 0, 69, 45
2, 45079, Note_on_c, 0, 69, 0
2, 45115, Note_on_c, 0, 69, 41
2, 45230, Note_on_c, 0, 69, 0
2, 45336, Note_on_c, 0, 67, 54
2, 45336, Note_on_c, 0, 55, 25
2, 45341, Note_on_c, 0, 68, 59
2, 45344, Note_on_c, 0, 55, 0
2, 45345, Note_on_c, 0, 48, 45
2, 45345, Note_on_c, 0, 57, 40
2, 45354, Note_on_c, 0, 68, 0
2, 45354, Note_on_c, 0, 69, 61
2, 45356, Note_on_c, 0, 72, 8
2, 45356, Control_c, 0, 64, 0
2, 45361, Note_on_c, 0, 67, 0
2, 45404, Control_c, 0, 64, 127
2, 45704, Note_on_c, 0, 48, 0
2, 45706, Note_on_c, 0, 69, 0
2, 45719, Note_on_c, 0, 57, 0
2, 45743, Note_on_c, 0, 72, 0
2, 45781, Note_on_c, 0, 72, 35
2, 45781, Note_on_c, 0, 48, 32
2, 45783, Note_on_c, 0, 64, 31
2, 45784, Note_on_c, 0, 55, 33
2, 45897, Note_on_c, 0, 55, 0
2, 45900, Note_on_c, 0, 72, 0
2, 45908, Note_on_c, 0, 64, 0
2, 45910, Note_on_c, 0, 48, 0
2, 46025, Note_on_c, 0, 43, 30
2, 46070, Note_on_c, 0, 36, 32
2, 46073, Note_on_c, 0, 43, 0
2, 46073, Control_c, 0, 64, 0
2, 46075, Note_on_c, 0, 52, 34
2, 46100, Control_c, 0, 64, 127
2, 46105, Note_on_c, 0, 36, 0
2, 46119, Note_on_c, 0, 52, 0
2, 46157, Note_on_c, 0, 75, 56
2, 46185, Note_on_c, 0, 75, 0
2, 46194, Control_c, 0, 64, 0
2, 46197, Note_on_c, 0, 76, 46
2, 46197, Note_on_c, 0, 60, 35
2, 46200, Note_on_c, 0, 64, 15
2, 46218, Control_c, 0, 64, 127
2, 46226, Note_on_c, 0, 64, 0
2, 46229, Note_on_c, 0, 76, 0
2, 46233, Note_on_c, 0, 60, 0
2, 46234, Note_on_c, 0, 79, 55
2, 46236, Note_on_c, 0, 67, 40
2, 46243, Note_on_c, 0, 67, 0
2, 46248, Note_on_c, 0, 79, 0
2, 46277, Note_on_c, 0, 81, 74
2, 46278, Note_on_c, 0, 69, 70
2, 46293, Note_on_c, 0, 81, 0
2, 46299, Note_on_c, 0, 69, 0
2, 46319, Control_c, 0, 64, 0
2, 46320, Note_on_c, 0, 79, 41
2, 46322, Note_on_c, 0, 48, 33
2, 46323, Note_on_c, 0, 67, 29
2, 46324, Note_on_c, 0, 55, 28
2, 46339, Control_c, 0, 64, 127
2, 46358, Note_on_c, 0, 79, 0
2, 46371, Note_on_c, 0, 67, 0
2, 46395, Note_on_c, 0, 55, 0
2, 46450, Note_on_c, 0, 60, 40
2, 46450, Note_on_c, 0, 64, 44
2, 46452, Note_on_c, 0, 67, 32
2, 46452, Note_on_c, 0, 55, 32
2, 46490, Note_on_c, 0, 60, 0
2, 46507, Note_on_c, 0, 55, 0
2, 46512, Note_on_c, 0, 67, 0
2, 46517, Note_on_c, 0, 48, 0
2, 46521, Note_on_c, 0, 64, 0
2, 46549, Note_on_c, 0, 63, 25
2, 46558, Note_on_c, 0, 63, 0
2, 46586, Control_c, 0, 64, 0
2, 46587, Note_on_c, 0, 64, 36
2, 46587, Note_on_c, 0, 55, 37
2, 46588, Note_on_c, 0, 52, 36
2, 46589, Note_on_c, 0, 60, 37
2, 46589, Note_on_c, 0, 43, 35
2, 46609, Control_c, 0, 64, 127
2, 46621, Note_on_c, 0, 55, 0
2, 46625, Note_on_c, 0, 43, 0
2, 46631, Note_on_c, 0, 52, 0
2, 46634, Note_on_c, 0, 60, 0
2, 46644, Note_on_c, 0, 64, 0
2, 46719, Note_on_c, 0, 62, 33
2, 46719, Note_on_c, 0, 56, 42
2, 46754, Note_on_c, 0, 68, 59
2, 46761, Note_on_c, 0, 56, 0
2, 46764, Note_on_c, 0, 68, 0
2, 46776, Note_on_c, 0, 62, 0
2, 46782, Note_on_c, 0, 71, 81
2, 46797, Note_on_c, 0, 71, 0
2, 46812, Note_on_c, 0, 77, 92
2, 46836, Note_on_c, 0, 77, 0
2, 46843, Note_on_c, 0, 64, 34
2, 46844, Note_on_c, 0, 76, 68
2, 46847, Note_on_c, 0, 60, 42
2, 46847, Note_on_c, 0, 57, 34
2, 46847, Control_c, 0, 64, 0
2, 46879, Control_c, 0, 64, 127
2, 46884, Note_on_c, 0, 76, 0
2, 46910, Note_on_c, 0, 72, 66
2, 46916, Note_on_c, 0, 64, 0
2, 46922, Note_on_c, 0, 60, 0
2, 46969, Note_on_c, 0, 72, 0
2, 46977, Note_on_c, 0, 64, 31
2, 46978, Note_on_c, 0, 60, 30
2, 46978, Note_on_c, 0, 67, 39
2, 46990, Note_on_c, 0, 60, 0
2, 46993, Note_on_c, 0, 64, 0
2, 46998, Note_on_c, 0, 67, 0
2, 47005, Note_on_c, 0, 57, 0
2, 47040, Note_on_c, 0, 64, 41
2, 47056, Note_on_c, 0, 64, 0
2, 47119, Note_on_c, 0, 54, 35
2, 47120, Note_on_c, 0, 60, 49
2, 47120, Control_c, 0, 64, 0
2, 47122, Note_on_c, 0, 50, 29
2, 47122, Note_on_c, 0, 38, 30
2, 47158, Control_c, 0, 64, 127
2, 47167, Note_on_c, 0, 54, 0
2, 47175, Note_on_c, 0, 60, 0
2, 47175, Note_on_c, 0, 38, 0
2, 47181, Note_on_c, 0, 50, 0
2, 47259, Note_on_c, 0, 60, 35
2, 47261, Note_on_c, 0, 66, 35
2, 47264, Note_on_c, 0, 64, 27
2, 47264, Note_on_c, 0, 54, 26
2, 47325, Note_on_c, 0, 64, 0
2, 47339, Note_on_c, 0, 66, 0
2, 47343, Note_on_c, 0, 60, 0
2, 47358, Note_on_c, 0, 54, 0
2, 47400, Note_on_c, 0, 76, 74
2, 47401, Note_on_c, 0, 68, 74
2, 47401, Note_on_c, 0, 66, 78
2, 47402, Note_on_c, 0, 72, 66
2, 47403, Note_on_c, 0, 64, 74
2, 47407, Control_c, 0, 64, 0
2, 47432, Note_on_c, 0, 63, 59
2, 47433, Note_on_c, 0, 64, 0
2, 47444, Note_on_c, 0, 63, 0
2, 47452, Note_on_c, 0, 62, 54
2, 47465, Note_on_c, 0, 62, 0
2, 47466, Note_on_c, 0, 61, 51
2, 47480, Note_on_c, 0, 61, 0
2, 47486, Note_on_c, 0, 60, 54
2, 47498, Note_on_c, 0, 60, 0
2, 47505, Note_on_c, 0, 59, 33
2, 47512, Note_on_c, 0, 59, 0
2, 47518, Note_on_c, 0, 58, 35
2, 47530, Note_on_c, 0, 58, 0
2, 47534, Note_on_c, 0, 57, 53
2, 47549, Note_on_c, 0, 57, 0
2, 47556, Note_on_c, 0, 56, 53
2, 47579, Control_c, 0, 64, 127
2, 47608, Note_on_c, 0, 66, 0
2, 47611, Note_on_c, 0, 76, 0
2, 47617, Note_on_c, 0, 72, 0
2, 47619, Note_on_c, 0, 68, 0
2, 47622, Note_on_c, 0, 56, 0
2, 47701, Note_on_c, 0, 53, 30
2, 47702, Note_on_c, 0, 60, 48
2, 47703, Note_on_c, 0, 57, 38
2, 47703, Note_on_c, 0, 43, 32
2, 47704, Note_on_c, 0, 50, 30
2, 47713, Control_c, 0, 64, 0
2, 47746, Control_c, 0, 64, 127
2, 47773, Note_on_c, 0, 53, 0
2, 47812, Note_on_c, 0, 57, 0
2, 47822, Note_on_c, 0, 60, 0
2, 47840, Note_on_c, 0, 50, 0
2, 47849, Note_on_c, 0, 55, 44
2, 47880, Note_on_c, 0, 55, 0
2, 47899, Note_on_c, 0, 43, 0
2, 47901, Note_on_c, 0, 57, 60
2, 47910, Note_on_c, 0, 57, 0
2, 47944, Note_on_c, 0, 60, 77
2, 47957, Note_on_c, 0, 60, 0
2, 47991, Note_on_c, 0, 63, 61
2, 47992, Note_on_c, 0, 59, 35
2, 47993, Note_on_c, 0, 58, 47
2, 47993, Control_c, 0, 64, 0
2, 47995, Note_on_c, 0, 53, 40
2, 47995, Note_on_c, 0, 49, 33
2, 48028, Control_c, 0, 64, 127
2, 48033, Note_on_c, 0, 58, 0
2, 48033, Note_on_c, 0, 67, 57
2, 48035, Note_on_c, 0, 63, 0
2, 48044, Note_on_c, 0, 67, 0
2, 48050, Note_on_c, 0, 59, 0
2, 48079, Note_on_c, 0, 63, 54
2, 48080, Note_on_c, 0, 75, 63
2, 48081, Note_on_c, 0, 67, 38
2, 48086, Note_on_c, 0, 67, 0
2, 48098, Note_on_c, 0, 63, 0
2, 48107, Note_on_c, 0, 75, 0
2, 48131, Note_on_c, 0, 70, 63
2, 48133, Note_on_c, 0, 82, 62
2, 48134, Note_on_c, 0, 59, 34
2, 48142, Note_on_c, 0, 70, 0
2, 48149, Note_on_c, 0, 82, 0
2, 48168, Note_on_c, 0, 59, 0
2, 48172, Note_on_c, 0, 53, 0
2, 48179, Note_on_c, 0, 49, 0
2, 48179, Note_on_c, 0, 75, 55
2, 48180, Note_on_c, 0, 87, 64
2, 48185, Note_on_c, 0, 75, 0
2, 48190, Note_on_c, 0, 87, 0
2, 48227, Note_on_c, 0, 94, 63
2, 48229, Note_on_c, 0, 82, 45
2, 48245, Note_on_c, 0, 82, 0
2, 48256, Note_on_c, 0, 94, 0
2, 48270, Note_on_c, 0, 36, 38
2, 48271, Note_on_c, 0, 43, 30
2, 48274, Note_on_c, 0, 52, 57
2, 48275, Note_on_c, 0, 95, 57
2, 48275, Control_c, 0, 64, 0
2, 48279, Note_on_c, 0, 83, 32
2, 48294, Control_c, 0, 64, 127
2, 48295, Note_on_c, 0, 83, 0
2, 48303, Note_on_c, 0, 95, 0
2, 48321, Note_on_c, 0, 36, 0
2, 48322, Note_on_c, 0, 98, 64
2, 48326, Note_on_c, 0, 43, 0
2, 48327, Note_on_c, 0, 98, 0
2, 48333, Note_on_c, 0, 52, 0
2, 48420, Note_on_c, 0, 79, 46
2, 48422, Note_on_c, 0, 69, 38
2, 48424, Note_on_c, 0, 62, 26
2, 48424, Note_on_c, 0, 74, 41
2, 48424, Note_on_c, 0, 52, 31
2, 48427, Note_on_c, 0, 57, 28
2, 48511, Note_on_c, 0, 57, 0
2, 48513, Note_on_c, 0, 52, 0
2, 48517, Note_on_c, 0, 62, 0
2, 48528, Note_on_c, 0, 69, 0
2, 48530, Note_on_c, 0, 74, 0
2, 48556, Note_on_c, 0, 79, 0
2, 48571, Note_on_c, 0, 68, 77
2, 48571, Note_on_c, 0, 57, 70
2, 48571, Note_on_c, 0, 63, 69
2, 48579, Control_c, 0, 64, 0
2, 48602, Control_c, 0, 64, 127
2, 48648, Note_on_c, 0, 86, 92
2, 48649, Note_on_c, 0, 79, 95
2, 48682, Note_on_c, 0, 86, 0
2, 48684, Note_on_c, 0, 79, 0
2, 48691, Note_on_c, 0, 83, 71
2, 48694, Note_on_c, 0, 74, 59
2, 48698, Note_on_c, 0, 68, 0
2, 48707, Note_on_c, 0, 83, 0
2, 48709, Note_on_c, 0, 63, 0
2, 48717, Note_on_c, 0, 74, 0
2, 48734, Note_on_c, 0, 63, 49
2, 48735, Note_on_c, 0, 79, 71
2, 48742, Note_on_c, 0, 71, 27
2, 48742, Note_on_c, 0, 72, 24
2, 48750, Note_on_c, 0, 72, 0
2, 48766, Note_on_c, 0, 79, 0
2, 48774, Note_on_c, 0, 74, 24
2, 48781, Note_on_c, 0, 57, 0
2, 48782, Note_on_c, 0, 67, 29
2, 48798, Note_on_c, 0, 71, 0
2, 48800, Note_on_c, 0, 67, 0
2, 48804, Note_on_c, 0, 74, 0
2, 48831, Note_on_c, 0, 84, 76
2, 48832, Note_on_c, 0, 57, 48
2, 48834, Note_on_c, 0, 77, 60
2, 48834, Note_on_c, 0, 76, 69
2, 48840, Note_on_c, 0, 77, 0
2, 48842, Note_on_c, 0, 76, 0
2, 48848, Note_on_c, 0, 76, 20
2, 48850, Note_on_c, 0, 57, 0
2, 48868, Note_on_c, 0, 84, 0
2, 48869, Note_on_c, 0, 76, 0
2, 48873, Note_on_c, 0, 63, 0
2, 48880, Note_on_c, 0, 79, 58
2, 48882, Control_c, 0, 64, 0
2, 48882, Note_on_c, 0, 62, 41
2, 48883, Note_on_c, 0, 56, 39
2, 48883, Note_on_c, 0, 72, 53
2, 48884, Note_on_c, 0, 76, 40
2, 48900, Note_on_c, 0, 76, 0
2, 48901, Note_on_c, 0, 79, 0
2, 48907, Control_c, 0, 64, 127
2, 48910, Note_on_c, 0, 72, 0
2, 48930, Note_on_c, 0, 79, 50
2, 48945, Note_on_c, 0, 79, 0
2, 48997, Note_on_c, 0, 62, 0
2, 49006, Note_on_c, 0, 56, 0
2, 49030, Note_on_c, 0, 67, 33
2, 49031, Note_on_c, 0, 72, 28
2, 49031, Note_on_c, 0, 64, 32
2, 49031, Note_on_c, 0, 56, 37
2, 49052, Note_on_c, 0, 56, 0
2, 49100, Note_on_c, 0, 64, 0
2, 49103, Note_on_c, 0, 67, 0
2, 49131, Note_on_c, 0, 46, 32
2, 49160, Note_on_c, 0, 46, 0
2, 49173, Note_on_c, 0, 72, 0
2, 49186, Note_on_c, 0, 69, 40
2, 49187, Control_c, 0, 64, 0
2, 49187, Note_on_c, 0, 45, 32
2, 49188, Note_on_c, 0, 60, 24
2, 49188, Note_on_c, 0, 55, 27
2, 49188, Note_on_c, 0, 65, 33
2, 49198, Note_on_c, 0, 61, 31
2, 49213, Control_c, 0, 64, 127
2, 49222, Note_on_c, 0, 61, 0
2, 49223, Note_on_c, 0, 60, 0
2, 49224, Note_on_c, 0, 45, 0
2, 49230, Note_on_c, 0, 65, 0
2, 49235, Note_on_c, 0, 55, 0
2, 49240, Note_on_c, 0, 69, 0
2, 49293, Note_on_c, 0, 69, 46
2, 49302, Note_on_c, 0, 69, 0
2, 49309, Note_on_c, 0, 70, 56
2, 49318, Note_on_c, 0, 70, 0
2, 49325, Note_on_c, 0, 72, 60
2, 49335, Note_on_c, 0, 72, 0
2, 49338, Note_on_c, 0, 73, 62
2, 49349, Note_on_c, 0, 73, 0
2, 49350, Note_on_c, 0, 65, 15
2, 49351, Note_on_c, 0, 75, 56
2, 49351, Note_on_c, 0, 55, 30
2, 49352, Control_c, 0, 64, 0
2, 49353, Note_on_c, 0, 60, 28
2, 49353, Note_on_c, 0, 61, 17
2, 49356, Note_on_c, 0, 75, 0
2, 49361, Note_on_c, 0, 76, 49
2, 49374, Note_on_c, 0, 76, 0
2, 49377, Note_on_c, 0, 78, 37
2, 49382, Note_on_c, 0, 78, 0
2, 49388, Note_on_c, 0, 79, 62
2, 49403, Note_on_c, 0, 79, 0
2, 49405, Note_on_c, 0, 81, 60
2, 49416, Note_on_c, 0, 81, 0
2, 49416, Note_on_c, 0, 82, 57
2, 49421, Note_on_c, 0, 82, 0
2, 49443, Note_on_c, 0, 65, 0
2, 49450, Note_on_c, 0, 60, 0
2, 49455, Note_on_c, 0, 55, 0
2, 49459, Note_on_c, 0, 61, 0
2, 49459, Note_on_c, 0, 86, 51
2, 49477, Note_on_c, 0, 87, 45
2, 49480, Control_c, 0, 64, 127
2, 49486, Note_on_c, 0, 87, 0
2, 49486, Note_on_c, 0, 86, 0
2, 49488, Note_on_c, 0, 88, 58
2, 49499, Note_on_c, 0, 60, 20
2, 49503, Control_c, 0, 64, 0
2, 49503, Note_on_c, 0, 54, 35
2, 49504, Note_on_c, 0, 88, 0
2, 49505, Note_on_c, 0, 64, 25
2, 49509, Note_on_c, 0, 86, 49
2, 49561, Note_on_c, 0, 86, 0
2, 49562, Note_on_c, 0, 81, 58
2, 49568, Control_c, 0, 64, 127
2, 49595, Note_on_c, 0, 81, 0
2, 49619, Note_on_c, 0, 84, 79
2, 49622, Note_on_c, 0, 64, 0
2, 49630, Note_on_c, 0, 60, 0
2, 49667, Note_on_c, 0, 60, 36
2, 49668, Note_on_c, 0, 64, 22
2, 49702, Note_on_c, 0, 84, 0
2, 49722, Note_on_c, 0, 79, 49
2, 49728, Note_on_c, 0, 80, 42
2, 49729, Note_on_c, 0, 79, 0
2, 49737, Note_on_c, 0, 80, 0
2, 49739, Note_on_c, 0, 81, 57
2, 49745, Control_c, 0, 64, 0
2, 49752, Note_on_c, 0, 81, 0
2, 49769, Note_on_c, 0, 84, 85
2, 49774, Note_on_c, 0, 54, 0
2, 49775, Control_c, 0, 64, 127
2, 49776, Note_on_c, 0, 60, 0
2, 49785, Note_on_c, 0, 64, 0
2, 49789, Note_on_c, 0, 84, 0
2, 49798, Note_on_c, 0, 86, 72
2, 49813, Note_on_c, 0, 86, 0
2, 49819, Note_on_c, 0, 55, 33
2, 49822, Control_c, 0, 64, 0
2, 49822, Note_on_c, 0, 60, 34
2, 49823, Note_on_c, 0, 65, 29
2, 49824, Note_on_c, 0, 57, 31
2, 49835, Note_on_c, 0, 91, 56
2, 49838, Note_on_c, 0, 87, 30
2, 49843, Note_on_c, 0, 87, 0
2, 49844, Note_on_c, 0, 86, 39
2, 49854, Note_on_c, 0, 91, 0
2, 49864, Note_on_c, 0, 86, 0
2, 49869, Note_on_c, 0, 84, 60
2, 49882, Note_on_c, 0, 84, 0
2, 49888, Note_on_c, 0, 65, 0
2, 49888, Control_c, 0, 64, 127
2, 49889, Note_on_c, 0, 79, 38
2, 49897, Note_on_c, 0, 60, 0
2, 49907, Note_on_c, 0, 55, 0
2, 49911, Note_on_c, 0, 57, 0
2, 49921, Note_on_c, 0, 79, 0
2, 49930, Note_on_c, 0, 84, 71
2, 49931, Note_on_c, 0, 77, 63
2, 49948, Note_on_c, 0, 84, 0
2, 49949, Note_on_c, 0, 77, 0
2, 49969, Note_on_c, 0, 54, 25
2, 49973, Note_on_c, 0, 81, 64
2, 49974, Note_on_c, 0, 54, 0
2, 49976, Control_c, 0, 64, 0
2, 49976, Note_on_c, 0, 77, 55
2, 49977, Note_on_c, 0, 55, 45
2, 49989, Note_on_c, 0, 81, 0
2, 49992, Note_on_c, 0, 77, 0
2, 50016, Note_on_c, 0, 75, 56
2, 50017, Note_on_c, 0, 79, 49
2, 50022, Note_on_c, 0, 75, 0
2, 50024, Note_on_c, 0, 76, 57
2, 50037, Note_on_c, 0, 76, 0
2, 50039, Note_on_c, 0, 79, 0
2, 50043, Note_on_c, 0, 72, 34
2, 50052, Note_on_c, 0, 72, 0
2, 50059, Note_on_c, 0, 67, 47
2, 50067, Note_on_c, 0, 67, 0
2, 50078, Note_on_c, 0, 72, 35
2, 50080, Note_on_c, 0, 65, 31
2, 50086, Control_c, 0, 64, 127
2, 50088, Note_on_c, 0, 65, 0
2, 50093, Note_on_c, 0, 72, 0
2, 50099, Note_on_c, 0, 63, 69
2, 50100, Note_on_c, 0, 72, 27
2, 50109, Note_on_c, 0, 72, 0
2, 50111, Note_on_c, 0, 63, 0
2, 50116, Note_on_c, 0, 55, 0
2, 50125, Note_on_c, 0, 43, 40
2, 50127, Control_c, 0, 64, 0
2, 50127, Note_on_c, 0, 64, 41
2, 50130, Note_on_c, 0, 72, 33
2, 50144, Note_on_c, 0, 72, 0
2, 50152, Note_on_c, 0, 64, 0
2, 50158, Note_on_c, 0, 67, 60
2, 50158, Note_on_c, 0, 72, 36
2, 50171, Note_on_c, 0, 72, 0
2, 50173, Note_on_c, 0, 67, 0
2, 50183, Control_c, 0, 64, 127
2, 50201, Note_on_c, 0, 60, 48
2, 50205, Note_on_c, 0, 67, 17
2, 50228, Note_on_c, 0, 60, 0
2, 50274, Note_on_c, 0, 55, 49
2, 50280, Note_on_c, 0, 52, 38
2, 50305, Note_on_c, 0, 43, 0
2, 50340, Note_on_c, 0, 52, 0
2, 50356, Note_on_c, 0, 43, 55
2, 50362, Note_on_c, 0, 67, 0
2, 50372, Note_on_c, 0, 43, 0
2, 50383, Note_on_c, 0, 55, 0
2, 50432, Note_on_c, 0, 53, 35
2, 50433, Note_on_c, 0, 43, 41
2, 50433, Note_on_c, 0, 64, 34
2, 50434, Note_on_c, 0, 57, 38
2, 50434, Note_on_c, 0, 60, 45
2, 50434, Note_on_c, 0, 31, 45
2, 50437, Control_c, 0, 64, 0
2, 50463, Note_on_c, 0, 31, 0
2, 50464, Control_c, 0, 64, 127
2, 50472, Note_on_c, 0, 43, 0
2, 50513, Note_on_c, 0, 43, 62
2, 50524, Note_on_c, 0, 53, 0
2, 50536, Note_on_c, 0, 60, 0
2, 50545, Note_on_c, 0, 57, 0
2, 50560, Note_on_c, 0, 64, 0
2, 50569, Note_on_c, 0, 43, 0
2, 50595, Control_c, 0, 64, 0
2, 50596, Note_on_c, 0, 64, 41
2, 50597, Note_on_c, 0, 56, 39
2, 50597, Note_on_c, 0, 53, 43
2, 50597, Note_on_c, 0, 43, 50
2, 50597, Note_on_c, 0, 59, 54
2, 50623, Control_c, 0, 64, 127
2, 50627, Note_on_c, 0, 43, 0
2, 50677, Note_on_c, 0, 43, 49
2, 50689, Note_on_c, 0, 53, 0
2, 50695, Note_on_c, 0, 56, 0
2, 50696, Note_on_c, 0, 59, 0
2, 50697, Note_on_c, 0, 43, 0
2, 50725, Note_on_c, 0, 64, 0
2, 50758, Note_on_c, 0, 64, 46
2, 50759, Note_on_c, 0, 55, 54
2, 50760, Note_on_c, 0, 52, 47
2, 50760, Note_on_c, 0, 43, 37
2, 50760, Note_on_c, 0, 60, 65
2, 50761, Control_c, 0, 64, 0
2, 50788, Control_c, 0, 64, 127
2, 50806, Note_on_c, 0, 55, 0
2, 50811, Note_on_c, 0, 43, 0
2, 50836, Note_on_c, 0, 60, 0
2, 50837, Note_on_c, 0, 43, 61
2, 50842, Note_on_c, 0, 64, 0
2, 50851, Note_on_c, 0, 43, 0
2, 50856, Note_on_c, 0, 52, 0
2, 50917, Note_on_c, 0, 74, 79
2, 50917, Note_on_c, 0, 64, 66
2, 50918, Control_c, 0, 64, 0
2, 50918, Note_on_c, 0, 58, 74
2, 50919, Note_on_c, 0, 69, 73
2, 50931, Control_c, 0, 64, 127
2, 50942, Note_on_c, 0, 74, 0
2, 50944, Note_on_c, 0, 69, 0
2, 50950, Note_on_c, 0, 64, 0
2, 50955, Note_on_c, 0, 58, 0
2, 50965, Control_c, 0, 64, 0
2, 50966, Note_on_c, 0, 72, 62
2, 50968, Note_on_c, 0, 62, 49
2, 50969, Note_on_c, 0, 67, 60
2, 50970, Note_on_c, 0, 57, 53
2, 50990, Control_c, 0, 64, 127
2, 50993, Note_on_c, 0, 72, 0
2, 50997, Note_on_c, 0, 67, 0
2, 51001, Note_on_c, 0, 57, 0
2, 51004, Note_on_c, 0, 62, 0
2, 51026, Note_on_c, 0, 67, 42
2, 51029, Note_on_c, 0, 52, 41
2, 51031, Control_c, 0, 64, 0
2, 51031, Note_on_c, 0, 62, 38
2, 51033, Note_on_c, 0, 57, 29
2, 51034, Note_on_c, 0, 59, 27
2, 51039, Control_c, 0, 64, 127
2, 51046, Note_on_c, 0, 62, 0
2, 51048, Note_on_c, 0, 67, 0
2, 51050, Note_on_c, 0, 59, 0
2, 51054, Note_on_c, 0, 57, 0
2, 51067, Note_on_c, 0, 52, 0
2, 51084, Note_on_c, 0, 64, 39
2, 51086, Note_on_c, 0, 55, 30
2, 51088, Note_on_c, 0, 59, 30
2, 51089, Note_on_c, 0, 43, 32
2, 51091, Control_c, 0, 64, 0
2, 51118, Control_c, 0, 64, 127
2, 51184, Note_on_c, 0, 59, 0
2, 51191, Note_on_c, 0, 55, 0
2, 51230, Note_on_c, 0, 64, 0
2, 51236, Note_on_c, 0, 60, 40
2, 51238, Note_on_c, 0, 57, 36
2, 51242, Note_on_c, 0, 55, 10
2, 51261, Note_on_c, 0, 55, 0
2, 51292, Note_on_c, 0, 55, 80
2, 51330, Note_on_c, 0, 52, 63
2, 51343, Note_on_c, 0, 55, 0
2, 51357, Note_on_c, 0, 43, 0
2, 51392, Note_on_c, 0, 43, 70
2, 51401, Note_on_c, 0, 52, 0
2, 51408, Note_on_c, 0, 57, 0
2, 51417, Note_on_c, 0, 60, 0
2, 51424, Note_on_c, 0, 43, 0
2, 51552, Note_on_c, 0, 56, 37
2, 51553, Control_c, 0, 64, 0
2, 51553, Note_on_c, 0, 62, 36
2, 51553, Note_on_c, 0, 44, 36
2, 51554, Note_on_c, 0, 59, 52
2, 51554, Note_on_c, 0, 53, 38
2, 51571, Control_c, 0, 64, 127
2, 51574, Note_on_c, 0, 56, 0
2, 51575, Note_on_c, 0, 59, 0
2, 51579, Note_on_c, 0, 62, 0
2, 51579, Note_on_c, 0, 44, 0
2, 51587, Note_on_c, 0, 53, 0
2, 51659, Note_on_c, 0, 62, 54
2, 51660, Note_on_c, 0, 68, 53
2, 51662, Note_on_c, 0, 71, 51
2, 51663, Note_on_c, 0, 56, 47
2, 51669, Note_on_c, 0, 62, 0
2, 51673, Note_on_c, 0, 68, 0
2, 51675, Note_on_c, 0, 71, 0
2, 51686, Note_on_c, 0, 74, 74
2, 51687, Note_on_c, 0, 59, 58
2, 51688, Note_on_c, 0, 64, 38
2, 51689, Note_on_c, 0, 67, 31
2, 51699, Note_on_c, 0, 74, 0
2, 51701, Note_on_c, 0, 64, 0
2, 51701, Note_on_c, 0, 67, 0
2, 51701, Note_on_c, 0, 59, 0
2, 51713, Control_c, 0, 64, 0
2, 51714, Note_on_c, 0, 56, 0
2, 51717, Note_on_c, 0, 72, 54
2, 51719, Note_on_c, 0, 67, 35
2, 51719, Note_on_c, 0, 57, 55
2, 51722, Note_on_c, 0, 62, 35
2, 51736, Control_c, 0, 64, 127
2, 51747, Note_on_c, 0, 67, 0
2, 51748, Note_on_c, 0, 72, 0
2, 51755, Note_on_c, 0, 62, 0
2, 51759, Note_on_c, 0, 57, 0
2, 51769, Control_c, 0, 64, 0
2, 51773, Note_on_c, 0, 64, 44
2, 51774, Note_on_c, 0, 60, 44
2, 51775, Note_on_c, 0, 45, 33
2, 51775, Note_on_c, 0, 52, 35
2, 51791, Control_c, 0, 64, 127
2, 51801, Note_on_c, 0, 45, 0
2, 51809, Note_on_c, 0, 52, 0
2, 51811, Note_on_c, 0, 60, 0
2, 51822, Note_on_c, 0, 64, 0
2, 51867, Note_on_c, 0, 64, 36
2, 51871, Note_on_c, 0, 59, 33
2, 51871, Note_on_c, 0, 60, 36
2, 51872, Note_on_c, 0, 55, 30
2, 51918, Note_on_c, 0, 72, 58
2, 51921, Note_on_c, 0, 84, 44
2, 51924, Note_on_c, 0, 72, 0
2, 51934, Note_on_c, 0, 84, 0
2, 51951, Note_on_c, 0, 55, 0
2, 51973, Note_on_c, 0, 88, 60
2, 51974, Note_on_c, 0, 76, 37
2, 51975, Note_on_c, 0, 55, 53
2, 51980, Note_on_c, 0, 76, 0
2, 51986, Note_on_c, 0, 88, 0
2, 51986, Note_on_c, 0, 59, 0
2, 51987, Note_on_c, 0, 60, 0
2, 51988, Note_on_c, 0, 64, 0
2, 51990, Note_on_c, 0, 55, 0
2, 52029, Note_on_c, 0, 95, 62
2, 52030, Control_c, 0, 64, 0
2, 52031, Note_on_c, 0, 83, 47
2, 52031, Note_on_c, 0, 60, 47
2, 52032, Note_on_c, 0, 64, 39
2, 52034, Note_on_c, 0, 92, 34
2, 52034, Note_on_c, 0, 54, 45
2, 52034, Note_on_c, 0, 88, 51
2, 52057, Control_c, 0, 64, 127
2, 52066, Note_on_c, 0, 88, 0
2, 52069, Note_on_c, 0, 83, 0
2, 52071, Note_on_c, 0, 92, 0
2, 52071, Note_on_c, 0, 95, 0
2, 52071, Note_on_c, 0, 54, 0
2, 52072, Note_on_c, 0, 64, 0
2, 52078, Note_on_c, 0, 60, 0
2, 52094, Note_on_c, 0, 83, 45
2, 52095, Note_on_c, 0, 95, 50
2, 52095, Note_on_c, 0, 60, 47
2, 52095, Note_on_c, 0, 92, 31
2, 52095, Note_on_c, 0, 54, 51
2, 52096, Note_on_c, 0, 64, 34
2, 52097, Note_on_c, 0, 88, 51
2, 52100, Control_c, 0, 64, 0
2, 52119, Control_c, 0, 64, 127
2, 52125, Note_on_c, 0, 88, 0
2, 52126, Note_on_c, 0, 83, 0
2, 52130, Note_on_c, 0, 60, 0
2, 52130, Note_on_c, 0, 54, 0
2, 52130, Note_on_c, 0, 64, 0
2, 52132, Note_on_c, 0, 92, 0
2, 52133, Note_on_c, 0, 95, 0
2, 52140, Control_c, 0, 64, 0
2, 52154, Control_c, 0, 64, 127
2, 52156, Note_on_c, 0, 83, 57
2, 52156, Note_on_c, 0, 64, 37
2, 52156, Note_on_c, 0, 95, 51
2, 52157, Note_on_c, 0, 54, 45
2, 52158, Note_on_c, 0, 60, 46
2, 52159, Note_on_c, 0, 88, 53
2, 52160, Note_on_c, 0, 92, 34
2, 52164, Note_on_c, 0, 60, 0
2, 52166, Note_on_c, 0, 95, 0
2, 52166, Note_on_c, 0, 64, 0
2, 52166, Note_on_c, 0, 88, 0
2, 52167, Note_on_c, 0, 83, 0
2, 52168, Note_on_c, 0, 92, 0
2, 52168, Note_on_c, 0, 54, 0
2, 52183, Note_on_c, 0, 93, 62
2, 52184, Note_on_c, 0, 64, 32
2, 52184, Note_on_c, 0, 60, 49
2, 52185, Note_on_c, 0, 81, 35
2, 52186, Note_on_c, 0, 54, 36
2, 52192, Note_on_c, 0, 81, 0
2, 52193, Note_on_c, 0, 54, 0
2, 52195, Note_on_c, 0, 93, 0
2, 52195, Note_on_c, 0, 64, 0
2, 52195, Note_on_c, 0, 60, 0
2, 52199, Control_c, 0, 64, 0
2, 52209, Note_on_c, 0, 54, 53
2, 52210, Note_on_c, 0, 64, 40
2, 52211, Note_on_c, 0, 95, 58
2, 52211, Note_on_c, 0, 83, 56
2, 52212, Note_on_c, 0, 60, 54
2, 52212, Note_on_c, 0, 88, 50
2, 52213, Control_c, 0, 64, 127
2, 52224, Note_on_c, 0, 83, 0
2, 52227, Note_on_c, 0, 88, 0
2, 52229, Note_on_c, 0, 95, 0
2, 52235, Note_on_c, 0, 54, 0
2, 52237, Note_on_c, 0, 64, 0
2, 52240, Note_on_c, 0, 60, 0
2, 52269, Note_on_c, 0, 96, 69
2, 52269, Note_on_c, 0, 54, 62
2, 52269, Note_on_c, 0, 60, 55
2, 52270, Note_on_c, 0, 84, 48
2, 52270, Note_on_c, 0, 64, 47
2, 52276, Control_c, 0, 64, 0
2, 52296, Control_c, 0, 64, 127
2, 52308, Note_on_c, 0, 96, 0
2, 52319, Note_on_c, 0, 84, 0
2, 52322, Note_on_c, 0, 60, 0
2, 52324, Note_on_c, 0, 54, 0
2, 52327, Note_on_c, 0, 64, 0
2, 52366, Control_c, 0, 64, 0
2, 52366, Note_on_c, 0, 95, 49
2, 52367, Note_on_c, 0, 83, 43
2, 52370, Note_on_c, 0, 90, 36
2, 52370, Note_on_c, 0, 64, 37
2, 52370, Note_on_c, 0, 60, 51
2, 52371, Note_on_c, 0, 88, 48
2, 52372, Note_on_c, 0, 54, 38
2, 52376, Control_c, 0, 64, 127
2, 52386, Note_on_c, 0, 95, 0
2, 52393, Note_on_c, 0, 88, 0
2, 52396, Note_on_c, 0, 90, 0
2, 52402, Note_on_c, 0, 83, 0
2, 52403, Note_on_c, 0, 64, 0
2, 52407, Note_on_c, 0, 60, 0
2, 52419, Note_on_c, 0, 54, 0
2, 52504, Note_on_c, 0, 42, 37
2, 52510, Note_on_c, 0, 43, 50
2, 52518, Note_on_c, 0, 42, 0
2, 52519, Note_on_c, 0, 62, 57
2, 52520, Note_on_c, 0, 53, 47
2, 52522, Note_on_c, 0, 58, 43
2, 52524, Note_on_c, 0, 44, 50
2, 52525, Note_on_c, 0, 43, 0
2, 52525, Control_c, 0, 64, 0
2, 52555, Control_c, 0, 64, 127
2, 52599, Note_on_c, 0, 32, 45
2, 52619, Note_on_c, 0, 32, 0
2, 52622, Note_on_c, 0, 44, 0
2, 52626, Note_on_c, 0, 53, 0
2, 52653, Note_on_c, 0, 62, 0
2, 52654, Note_on_c, 0, 58, 0
2, 52683, Note_on_c, 0, 53, 35
2, 52683, Note_on_c, 0, 43, 37
2, 52683, Control_c, 0, 64, 0
2, 52684, Note_on_c, 0, 31, 37
2, 52684, Note_on_c, 0, 62, 36
2, 52684, Note_on_c, 0, 57, 44
2, 52685, Note_on_c, 0, 60, 50
2, 52708, Control_c, 0, 64, 127
2, 52716, Note_on_c, 0, 53, 0
2, 52723, Note_on_c, 0, 57, 0
2, 52725, Note_on_c, 0, 60, 0
2, 52734, Note_on_c, 0, 62, 0
2, 52752, Note_on_c, 0, 31, 0
2, 52761, Note_on_c, 0, 43, 0
2, 52803, Note_on_c, 0, 67, 89
2, 52823, Note_on_c, 0, 67, 0
2, 52849, Note_on_c, 0, 68, 71
2, 52851, Note_on_c, 0, 55, 64
2, 52858, Control_c, 0, 64, 0
2, 52860, Note_on_c, 0, 68, 0
2, 52860, Note_on_c, 0, 69, 73
2, 52897, Note_on_c, 0, 69, 0
2, 52905, Note_on_c, 0, 72, 66
2, 52906, Note_on_c, 0, 65, 59
2, 52906, Note_on_c, 0, 69, 58
2, 52906, Note_on_c, 0, 60, 64
2, 52908, Note_on_c, 0, 43, 50
2, 52925, Control_c, 0, 64, 127
2, 52961, Note_on_c, 0, 72, 0
2, 52963, Note_on_c, 0, 69, 0
2, 52971, Note_on_c, 0, 65, 0
2, 52973, Note_on_c, 0, 60, 0
2, 52978, Note_on_c, 0, 55, 0
2, 53016, Note_on_c, 0, 69, 60
2, 53018, Note_on_c, 0, 64, 53
2, 53019, Note_on_c, 0, 59, 40
2, 53021, Note_on_c, 0, 53, 50
2, 53026, Control_c, 0, 64, 0
2, 53061, Control_c, 0, 64, 127
2, 53136, Note_on_c, 0, 69, 0
2, 53138, Note_on_c, 0, 64, 0
2, 53147, Note_on_c, 0, 43, 0
2, 53148, Note_on_c, 0, 59, 0
2, 53155, Note_on_c, 0, 53, 0
2, 53184, Note_on_c, 0, 43, 50
2, 53250, Note_on_c, 0, 63, 46
2, 53252, Note_on_c, 0, 56, 35
2, 53253, Note_on_c, 0, 59, 55
2, 53254, Note_on_c, 0, 53, 41
2, 53261, Control_c, 0, 64, 0
2, 53277, Control_c, 0, 64, 127
2, 53304, Note_on_c, 0, 43, 0
2, 53318, Note_on_c, 0, 43, 38
2, 53321, Note_on_c, 0, 56, 0
2, 53322, Note_on_c, 0, 59, 0
2, 53333, Note_on_c, 0, 53, 0
2, 53338, Note_on_c, 0, 63, 0
2, 53364, Note_on_c, 0, 64, 47
2, 53365, Note_on_c, 0, 55, 50
2, 53366, Note_on_c, 0, 52, 41
2, 53367, Control_c, 0, 64, 0
2, 53367, Note_on_c, 0, 59, 43
2, 53368, Note_on_c, 0, 62, 39
2, 53398, Control_c, 0, 64, 127
2, 53402, Note_on_c, 0, 43, 0
2, 53416, Note_on_c, 0, 43, 50
2, 53420, Note_on_c, 0, 55, 0
2, 53436, Note_on_c, 0, 59, 0
2, 53445, Note_on_c, 0, 62, 0
2, 53449, Note_on_c, 0, 64, 0
2, 53455, Note_on_c, 0, 43, 0
2, 53460, Note_on_c, 0, 52, 0
2, 53539, Note_on_c, 0, 64, 29
2, 53541, Note_on_c, 0, 60, 37
2, 53612, Note_on_c, 0, 64, 0
2, 53612, Note_on_c, 0, 75, 53
2, 53622, Note_on_c, 0, 60, 0
2, 53628, Note_on_c, 0, 75, 0
2, 53638, Note_on_c, 0, 76, 46
2, 53646, Note_on_c, 0, 76, 0
2, 53664, Note_on_c, 0, 79, 64
2, 53675, Note_on_c, 0, 79, 0
2, 53687, Note_on_c, 0, 81, 75
2, 53706, Note_on_c, 0, 81, 0
2, 53713, Note_on_c, 0, 84, 83
2, 53718, Control_c, 0, 64, 0
2, 53719, Note_on_c, 0, 57, 45
2, 53719, Note_on_c, 0, 63, 38
2, 53720, Note_on_c, 0, 68, 32
2, 53736, Note_on_c, 0, 84, 0
2, 53745, Note_on_c, 0, 81, 56
2, 53769, Control_c, 0, 64, 127
2, 53813, Note_on_c, 0, 81, 0
2, 53832, Note_on_c, 0, 57, 0
2, 53836, Note_on_c, 0, 68, 0
2, 53851, Note_on_c, 0, 63, 0
2, 53880, Note_on_c, 0, 63, 48
2, 53929, Note_on_c, 0, 63, 0
2, 53977, Note_on_c, 0, 68, 51
2, 53982, Note_on_c, 0, 63, 33
2, 53983, Note_on_c, 0, 57, 27
2, 54014, Note_on_c, 0, 57, 0
2, 54027, Note_on_c, 0, 68, 0
2, 54038, Note_on_c, 0, 63, 0
2, 54058, Note_on_c, 0, 67, 42
2, 54059, Control_c, 0, 64, 0
2, 54060, Note_on_c, 0, 62, 32
2, 54061, Note_on_c, 0, 56, 34
2, 54088, Control_c, 0, 64, 127
2, 54120, Note_on_c, 0, 91, 68
2, 54121, Note_on_c, 0, 84, 78
2, 54152, Note_on_c, 0, 91, 0
2, 54154, Note_on_c, 0, 84, 0
2, 54164, Note_on_c, 0, 88, 56
2, 54167, Note_on_c, 0, 79, 40
2, 54176, Note_on_c, 0, 67, 0
2, 54180, Note_on_c, 0, 88, 0
2, 54185, Note_on_c, 0, 62, 0
2, 54199, Note_on_c, 0, 79, 0
2, 54227, Note_on_c, 0, 67, 39
2, 54228, Note_on_c, 0, 62, 35
2, 54274, Note_on_c, 0, 56, 0
2, 54321, Note_on_c, 0, 56, 46
2, 54337, Note_on_c, 0, 67, 0
2, 54338, Note_on_c, 0, 62, 0
2, 54360, Note_on_c, 0, 56, 0
2, 54384, Note_on_c, 0, 65, 30
2, 54388, Note_on_c, 0, 61, 29
2, 54388, Note_on_c, 0, 60, 24
2, 54389, Note_on_c, 0, 55, 31
2, 54396, Control_c, 0, 64, 0
2, 54421, Note_on_c, 0, 72, 49
2, 54437, Note_on_c, 0, 72, 0
2, 54442, Note_on_c, 0, 73, 49
2, 54452, Note_on_c, 0, 73, 0
2, 54469, Note_on_c, 0, 77, 60
2, 54477, Note_on_c, 0, 77, 0
2, 54493, Note_on_c, 0, 82, 53
2, 54494, Note_on_c, 0, 65, 0
2, 54496, Note_on_c, 0, 55, 0
2, 54498, Note_on_c, 0, 60, 0
2, 54504, Note_on_c, 0, 82, 0
2, 54508, Note_on_c, 0, 61, 0
2, 54516, Note_on_c, 0, 84, 63
2, 54526, Control_c, 0, 64, 127
2, 54529, Note_on_c, 0, 84, 0
2, 54538, Note_on_c, 0, 89, 60
2, 54542, Control_c, 0, 64, 0
2, 54549, Note_on_c, 0, 66, 34
2, 54550, Note_on_c, 0, 61, 35
2, 54551, Note_on_c, 0, 55, 37
2, 54556, Note_on_c, 0, 89, 0
2, 54565, Note_on_c, 0, 94, 65
2, 54581, Note_on_c, 0, 94, 0
2, 54591, Note_on_c, 0, 96, 81
2, 54608, Note_on_c, 0, 96, 0
2, 54619, Note_on_c, 0, 92, 64
2, 54648, Note_on_c, 0, 92, 0
2, 54650, Control_c, 0, 64, 127
2, 54659, Note_on_c, 0, 93, 70
2, 54664, Note_on_c, 0, 55, 0
2, 54665, Note_on_c, 0, 66, 0
2, 54673, Note_on_c, 0, 93, 0
2, 54683, Note_on_c, 0, 94, 71
2, 54699, Note_on_c, 0, 94, 0
2, 54700, Note_on_c, 0, 61, 0
2, 54708, Note_on_c, 0, 95, 67
2, 54713, Note_on_c, 0, 64, 36
2, 54713, Note_on_c, 0, 60, 47
2, 54715, Control_c, 0, 64, 0
2, 54716, Note_on_c, 0, 54, 27
2, 54725, Note_on_c, 0, 95, 0
2, 54737, Note_on_c, 0, 96, 76
2, 54738, Note_on_c, 0, 84, 53
2, 54752, Note_on_c, 0, 96, 0
2, 54753, Note_on_c, 0, 84, 0
2, 54770, Note_on_c, 0, 96, 68
2, 54770, Note_on_c, 0, 84, 54
2, 54783, Note_on_c, 0, 84, 0
2, 54786, Note_on_c, 0, 96, 0
2, 54801, Note_on_c, 0, 96, 49
2, 54801, Note_on_c, 0, 92, 50
2, 54811, Note_on_c, 0, 92, 0
2, 54816, Note_on_c, 0, 93, 37
2, 54824, Note_on_c, 0, 93, 0
2, 54826, Note_on_c, 0, 96, 0
2, 54837, Note_on_c, 0, 84, 47
2, 54837, Control_c, 0, 64, 127
2, 54843, Note_on_c, 0, 64, 0
2, 54848, Note_on_c, 0, 60, 0
2, 54850, Note_on_c, 0, 54, 0
2, 54850, Note_on_c, 0, 84, 0
2, 54868, Note_on_c, 0, 84, 62
2, 54878, Note_on_c, 0, 84, 0
2, 54899, Note_on_c, 0, 54, 42
2, 54899, Note_on_c, 0, 64, 42
2, 54903, Note_on_c, 0, 60, 29
2, 54905, Note_on_c, 0, 64, 0
2, 54908, Note_on_c, 0, 60, 0
2, 54917, Note_on_c, 0, 54, 0
2, 54994, Note_on_c, 0, 54, 56
2, 55009, Note_on_c, 0, 54, 0
2, 55047, Note_on_c, 0, 44, 38
2, 55062, Note_on_c, 0, 44, 0
2, 55080, Note_on_c, 0, 60, 54
2, 55080, Note_on_c, 0, 57, 48
2, 55080, Note_on_c, 0, 53, 34
2, 55082, Note_on_c, 0, 43, 34
2, 55082, Note_on_c, 0, 50, 43
2, 55084, Control_c, 0, 64, 0
2, 55117, Control_c, 0, 64, 127
2, 55192, Note_on_c, 0, 50, 0
2, 55199, Note_on_c, 0, 53, 0
2, 55212, Note_on_c, 0, 60, 0
2, 55214, Note_on_c, 0, 57, 0
2, 55257, Note_on_c, 0, 50, 37
2, 55260, Note_on_c, 0, 60, 37
2, 55260, Note_on_c, 0, 53, 29
2, 55260, Note_on_c, 0, 57, 38
2, 55263, Note_on_c, 0, 50, 0
2, 55265, Note_on_c, 0, 60, 0
2, 55268, Note_on_c, 0, 57, 0
2, 55269, Note_on_c, 0, 53, 0
2, 55271, Note_on_c, 0, 43, 0
2, 55320, Note_on_c, 0, 60, 67
2, 55320, Note_on_c, 0, 56, 58
2, 55321, Note_on_c, 0, 52, 57
2, 55322, Note_on_c, 0, 30, 48
2, 55322, Note_on_c, 0, 42, 51
2, 55335, Control_c, 0, 64, 0
2, 55360, Control_c, 0, 64, 127
2, 55370, Note_on_c, 0, 30, 0
2, 55372, Note_on_c, 0, 42, 0
2, 55380, Note_on_c, 0, 52, 0
2, 55402, Note_on_c, 0, 56, 0
2, 55402, Note_on_c, 0, 60, 0
2, 55434, Note_on_c, 0, 55, 50
2, 55436, Note_on_c, 0, 56, 55
2, 55436, Control_c, 0, 64, 0
2, 55437, Note_on_c, 0, 41, 45
2, 55438, Note_on_c, 0, 29, 48
2, 55441, Note_on_c, 0, 60, 36
2, 55446, Note_on_c, 0, 56, 0
2, 55446, Note_on_c, 0, 57, 62
2, 55451, Note_on_c, 0, 55, 0
2, 55478, Control_c, 0, 64, 127
2, 55556, Note_on_c, 0, 29, 0
2, 55562, Note_on_c, 0, 41, 0
2, 55577, Note_on_c, 0, 60, 0
2, 55593, Note_on_c, 0, 57, 0
2, 55615, Note_on_c, 0, 60, 52
2, 55616, Note_on_c, 0, 40, 40
2, 55617, Note_on_c, 0, 55, 50
2, 55617, Note_on_c, 0, 28, 47
2, 55618, Control_c, 0, 64, 0
2, 55648, Control_c, 0, 64, 127
2, 55719, Note_on_c, 0, 40, 0
2, 55721, Note_on_c, 0, 28, 0
2, 55733, Note_on_c, 0, 60, 0
2, 55748, Note_on_c, 0, 55, 0
2, 55792, Note_on_c, 0, 60, 50
2, 55792, Note_on_c, 0, 53, 48
2, 55792, Note_on_c, 0, 26, 34
2, 55793, Note_on_c, 0, 38, 32
2, 55794, Control_c, 0, 64, 0
2, 55823, Control_c, 0, 64, 127
2, 55875, Note_on_c, 0, 26, 0
2, 55881, Note_on_c, 0, 38, 0
2, 55887, Note_on_c, 0, 53, 0
2, 55894, Note_on_c, 0, 60, 0
2, 55968, Note_on_c, 0, 63, 38
2, 55969, Note_on_c, 0, 52, 40
2, 55969, Note_on_c, 0, 56, 35
2, 55969, Note_on_c, 0, 60, 55
2, 55970, Note_on_c, 0, 30, 42
2, 55971, Control_c, 0, 64, 0
2, 56006, Control_c, 0, 64, 127
2, 56023, Note_on_c, 0, 30, 0
2, 56064, Note_on_c, 0, 52, 0
2, 56082, Note_on_c, 0, 63, 0
2, 56082, Note_on_c, 0, 60, 0
2, 56087, Note_on_c, 0, 56, 0
2, 56145, Note_on_c, 0, 64, 33
2, 56147, Note_on_c, 0, 57, 37
2, 56147, Note_on_c, 0, 60, 43
2, 56148, Note_on_c, 0, 41, 41
2, 56148, Note_on_c, 0, 48, 43
2, 56153, Control_c, 0, 64, 0
2, 56185, Control_c, 0, 64, 127
2, 56188, Note_on_c, 0, 57, 0
2, 56194, Note_on_c, 0, 60, 0
2, 56204, Note_on_c, 0, 64, 0
2, 56205, Note_on_c, 0, 41, 0
2, 56211, Note_on_c, 0, 48, 0
2, 56270, Note_on_c, 0, 79, 78
2, 56300, Note_on_c, 0, 79, 0
2, 56314, Note_on_c, 0, 79, 25
2, 56319, Note_on_c, 0, 64, 24
2, 56321, Note_on_c, 0, 60, 28
2, 56322, Note_on_c, 0, 80, 36
2, 56322, Control_c, 0, 64, 0
2, 56323, Note_on_c, 0, 53, 27
2, 56323, Note_on_c, 0, 57, 32
2, 56330, Note_on_c, 0, 79, 0
2, 56335, Note_on_c, 0, 80, 0
2, 56337, Note_on_c, 0, 81, 53
2, 56368, Note_on_c, 0, 81, 0
2, 56368, Control_c, 0, 64, 127
2, 56377, Note_on_c, 0, 84, 80
2, 56378, Note_on_c, 0, 72, 71
2, 56389, Note_on_c, 0, 72, 0
2, 56394, Note_on_c, 0, 84, 0
2, 56429, Note_on_c, 0, 64, 0
2, 56430, Note_on_c, 0, 86, 88
2, 56431, Note_on_c, 0, 74, 85
2, 56438, Note_on_c, 0, 60, 0
2, 56440, Note_on_c, 0, 57, 0
2, 56454, Note_on_c, 0, 86, 0
2, 56461, Note_on_c, 0, 74, 0
2, 56489, Note_on_c, 0, 64, 53
2, 56489, Control_c, 0, 64, 0
2, 56490, Note_on_c, 0, 72, 78
2, 56490, Note_on_c, 0, 84, 80
2, 56491, Note_on_c, 0, 60, 49
2, 56493, Note_on_c, 0, 57, 44
2, 56494, Note_on_c, 0, 81, 49
2, 56498, Note_on_c, 0, 60, 0
2, 56498, Note_on_c, 0, 64, 0
2, 56500, Note_on_c, 0, 72, 0
2, 56506, Note_on_c, 0, 57, 0
2, 56509, Note_on_c, 0, 81, 0
2, 56510, Note_on_c, 0, 53, 0
2, 56511, Note_on_c, 0, 84, 0
2, 56514, Note_on_c, 0, 72, 50
2, 56518, Control_c, 0, 64, 127
2, 56525, Note_on_c, 0, 84, 36
2, 56527, Note_on_c, 0, 72, 0
2, 56532, Note_on_c, 0, 81, 34
2, 56538, Note_on_c, 0, 81, 0
2, 56540, Note_on_c, 0, 72, 41
2, 56541, Note_on_c, 0, 84, 0
2, 56552, Note_on_c, 0, 72, 0
2, 56556, Note_on_c, 0, 84, 54
2, 56566, Note_on_c, 0, 72, 37
2, 56568, Note_on_c, 0, 84, 0
2, 56580, Note_on_c, 0, 72, 0
2, 56583, Note_on_c, 0, 84, 54
2, 56596, Note_on_c, 0, 84, 0
2, 56596, Note_on_c, 0, 72, 36
2, 56608, Note_on_c, 0, 72, 0
2, 56612, Note_on_c, 0, 84, 51
2, 56622, Note_on_c, 0, 84, 0
2, 56622, Note_on_c, 0, 72, 34
2, 56636, Note_on_c, 0, 72, 0
2, 56639, Note_on_c, 0, 84, 56
2, 56649, Note_on_c, 0, 72, 36
2, 56650, Note_on_c, 0, 84, 0
2, 56661, Note_on_c, 0, 48, 32
2, 56665, Note_on_c, 0, 72, 0
2, 56665, Note_on_c, 0, 41, 35
2, 56666, Note_on_c, 0, 57, 51
2, 56667, Note_on_c, 0, 84, 60
2, 56670, Control_c, 0, 64, 0
2, 56680, Note_on_c, 0, 84, 0
2, 56680, Note_on_c, 0, 72, 32
2, 56685, Control_c, 0, 64, 127
2, 56696, Note_on_c, 0, 72, 0
2, 56696, Note_on_c, 0, 84, 54
2, 56708, Note_on_c, 0, 84, 0
2, 56708, Note_on_c, 0, 72, 39
2, 56716, Note_on_c, 0, 48, 0
2, 56719, Note_on_c, 0, 57, 0
2, 56720, Note_on_c, 0, 41, 0
2, 56723, Note_on_c, 0, 72, 0
2, 56725, Note_on_c, 0, 84, 52
2, 56736, Note_on_c, 0, 84, 0
2, 56736, Note_on_c, 0, 72, 34
2, 56748, Note_on_c, 0, 72, 0
2, 56751, Note_on_c, 0, 84, 56
2, 56761, Note_on_c, 0, 72, 40
2, 56763, Note_on_c, 0, 84, 0
2, 56775, Note_on_c, 0, 72, 0
2, 56782, Note_on_c, 0, 84, 64
2, 56789, Note_on_c, 0, 72, 31
2, 56797, Note_on_c, 0, 84, 0
2, 56820, Note_on_c, 0, 72, 0
2, 56834, Note_on_c, 0, 40, 35
2, 56837, Note_on_c, 0, 47, 31
2, 56842, Note_on_c, 0, 55, 38
2, 56843, Note_on_c, 0, 70, 59
2, 56844, Control_c, 0, 64, 0
2, 56853, Note_on_c, 0, 70, 0
2, 56856, Note_on_c, 0, 71, 49
2, 56876, Note_on_c, 0, 71, 0
2, 56877, Note_on_c, 0, 83, 45
2, 56886, Control_c, 0, 64, 127
2, 56892, Note_on_c, 0, 83, 0
2, 56917, Note_on_c, 0, 67, 57
2, 56918, Note_on_c, 0, 79, 25
2, 56920, Note_on_c, 0, 40, 0
2, 56927, Note_on_c, 0, 47, 0
2, 56930, Note_on_c, 0, 67, 0
2, 56930, Note_on_c, 0, 79, 0
2, 56936, Note_on_c, 0, 55, 0
2, 56953, Note_on_c, 0, 69, 65
2, 56953, Note_on_c, 0, 81, 68
2, 57075, Note_on_c, 0, 59, 54
2, 57075, Note_on_c, 0, 62, 57
2, 57076, Note_on_c, 0, 55, 60
2, 57123, Note_on_c, 0, 52, 58
2, 57140, Note_on_c, 0, 69, 0
2, 57145, Note_on_c, 0, 59, 0
2, 57146, Note_on_c, 0, 55, 0
2, 57147, Note_on_c, 0, 62, 0
2, 57153, Note_on_c, 0, 52, 0
2, 57157, Note_on_c, 0, 81, 0
2, 57180, Note_on_c, 0, 77, 53
2, 57180, Note_on_c, 0, 60, 57
2, 57181, Note_on_c, 0, 69, 51
2, 57181, Note_on_c, 0, 57, 35
2, 57181, Note_on_c, 0, 81, 50
2, 57182, Note_on_c, 0, 53, 52
2, 57183, Note_on_c, 0, 50, 34
2, 57187, Control_c, 0, 64, 0
2, 57222, Control_c, 0, 64, 127
2, 57259, Note_on_c, 0, 81, 0
2, 57264, Note_on_c, 0, 60, 0
2, 57265, Note_on_c, 0, 77, 0
2, 57274, Note_on_c, 0, 69, 0
2, 57309, Note_on_c, 0, 57, 0
2, 57354, Note_on_c, 0, 57, 20
2, 57354, Note_on_c, 0, 65, 44
2, 57354, Note_on_c, 0, 60, 42
2, 57356, Note_on_c, 0, 69, 55
2, 57360, Note_on_c, 0, 65, 0
2, 57363, Note_on_c, 0, 69, 0
2, 57417, Note_on_c, 0, 79, 92
2, 57418, Note_on_c, 0, 72, 101
2, 57422, Note_on_c, 0, 57, 0
2, 57422, Note_on_c, 0, 60, 0
2, 57436, Note_on_c, 0, 72, 0
2, 57438, Note_on_c, 0, 79, 0
2, 57448, Note_on_c, 0, 53, 0
2, 57465, Note_on_c, 0, 76, 77
2, 57465, Note_on_c, 0, 69, 80
2, 57496, Note_on_c, 0, 69, 0
2, 57510, Note_on_c, 0, 76, 0
2, 57519, Note_on_c, 0, 65, 43
2, 57520, Note_on_c, 0, 60, 51
2, 57520, Note_on_c, 0, 69, 62
2, 57521, Note_on_c, 0, 57, 33
2, 57523, Note_on_c, 0, 53, 22
2, 57524, Control_c, 0, 64, 0
2, 57554, Control_c, 0, 64, 127
2, 57562, Note_on_c, 0, 50, 0
2, 57584, Note_on_c, 0, 50, 64
2, 57632, Note_on_c, 0, 69, 0
2, 57632, Note_on_c, 0, 65, 0
2, 57637, Note_on_c, 0, 60, 0
2, 57638, Note_on_c, 0, 53, 0
2, 57651, Note_on_c, 0, 57, 0
2, 57691, Note_on_c, 0, 60, 58
2, 57691, Note_on_c, 0, 72, 80
2, 57692, Note_on_c, 0, 65, 81
2, 57693, Note_on_c, 0, 57, 33
2, 57695, Note_on_c, 0, 69, 49
2, 57698, Note_on_c, 0, 53, 17
2, 57700, Note_on_c, 0, 69, 0
2, 57719, Note_on_c, 0, 60, 0
2, 57720, Note_on_c, 0, 57, 0
2, 57722, Note_on_c, 0, 53, 0
2, 57728, Note_on_c, 0, 50, 0
2, 57812, Note_on_c, 0, 65, 0
2, 57838, Note_on_c, 0, 65, 29
2, 57849, Note_on_c, 0, 72, 0
2, 57854, Note_on_c, 0, 62, 50
2, 57855, Note_on_c, 0, 65, 0
2, 57866, Note_on_c, 0, 62, 0
2, 57872, Note_on_c, 0, 47, 33
2, 57874, Note_on_c, 0, 40, 44
2, 57875, Note_on_c, 0, 55, 47
2, 57878, Note_on_c, 0, 71, 66
2, 57880, Control_c, 0, 64, 0
2, 57919, Note_on_c, 0, 62, 35
2, 57921, Note_on_c, 0, 67, 44
2, 57928, Control_c, 0, 64, 127
2, 57965, Note_on_c, 0, 55, 0
2, 57968, Note_on_c, 0, 67, 0
2, 57969, Note_on_c, 0, 71, 0
2, 57974, Note_on_c, 0, 62, 0
2, 58038, Note_on_c, 0, 59, 36
2, 58040, Note_on_c, 0, 55, 38
2, 58083, Note_on_c, 0, 40, 0
2, 58089, Note_on_c, 0, 47, 0
2, 58093, Note_on_c, 0, 59, 0
2, 58105, Note_on_c, 0, 55, 0
2, 58176, Note_on_c, 0, 69, 54
2, 58182, Note_on_c, 0, 69, 0
2, 58196, Note_on_c, 0, 72, 68
2, 58206, Note_on_c, 0, 72, 0
2, 58212, Note_on_c, 0, 76, 88
2, 58218, Note_on_c, 0, 48, 29
2, 58222, Note_on_c, 0, 41, 31
2, 58224, Note_on_c, 0, 57, 55
2, 58232, Control_c, 0, 64, 0
2, 58238, Note_on_c, 0, 74, 61
2, 58242, Note_on_c, 0, 76, 0
2, 58259, Note_on_c, 0, 74, 0
2, 58267, Note_on_c, 0, 72, 56
2, 58281, Note_on_c, 0, 72, 0
2, 58285, Control_c, 0, 64, 127
2, 58295, Note_on_c, 0, 64, 31
2, 58301, Note_on_c, 0, 57, 0
2, 58321, Note_on_c, 0, 64, 0
2, 58325, Note_on_c, 0, 62, 37
2, 58349, Note_on_c, 0, 62, 0
2, 58358, Note_on_c, 0, 48, 0
2, 58392, Note_on_c, 0, 62, 36
2, 58393, Note_on_c, 0, 48, 45
2, 58395, Note_on_c, 0, 57, 30
2, 58432, Note_on_c, 0, 57, 0
2, 58441, Note_on_c, 0, 62, 0
2, 58444, Note_on_c, 0, 57, 45
2, 58480, Note_on_c, 0, 57, 0
2, 58488, Note_on_c, 0, 60, 52
2, 58493, Note_on_c, 0, 48, 0
2, 58507, Note_on_c, 0, 60, 0
2, 58558, Note_on_c, 0, 52, 47
2, 58559, Note_on_c, 0, 60, 50
2, 58560, Note_on_c, 0, 57, 42
2, 58564, Note_on_c, 0, 48, 25
2, 58570, Control_c, 0, 64, 0
2, 58597, Note_on_c, 0, 48, 0
2, 58612, Control_c, 0, 64, 127
2, 58615, Note_on_c, 0, 48, 75
2, 58621, Note_on_c, 0, 52, 0
2, 58662, Note_on_c, 0, 48, 0
2, 58665, Note_on_c, 0, 57, 0
2, 58669, Note_on_c, 0, 60, 0
2, 58672, Note_on_c, 0, 48, 78
2, 58716, Note_on_c, 0, 48, 0
2, 58729, Note_on_c, 0, 67, 45
2, 58729, Note_on_c, 0, 62, 51
2, 58730, Note_on_c, 0, 57, 55
2, 58733, Control_c, 0, 64, 0
2, 58747, Control_c, 0, 64, 127
2, 58786, Note_on_c, 0, 48, 78
2, 58810, Note_on_c, 0, 62, 0
2, 58812, Note_on_c, 0, 67, 0
2, 58813, Note_on_c, 0, 48, 0
2, 58820, Note_on_c, 0, 57, 0
2, 58838, Note_on_c, 0, 48, 46
2, 58844, Note_on_c, 0, 48, 0
2, 58883, Note_on_c, 0, 48, 74
2, 58886, Note_on_c, 0, 41, 0
2, 58906, Note_on_c, 0, 41, 68
2, 58906, Note_on_c, 0, 57, 57
2, 58906, Note_on_c, 0, 52, 53
2, 58907, Note_on_c, 0, 60, 61
2, 58913, Control_c, 0, 64, 0
2, 58949, Note_on_c, 0, 52, 0
2, 58949, Control_c, 0, 64, 127
2, 58965, Note_on_c, 0, 57, 0
2, 58969, Note_on_c, 0, 60, 0
2, 58986, Note_on_c, 0, 41, 0
2, 58992, Note_on_c, 0, 48, 0
2, 59085, Note_on_c, 0, 64, 36
2, 59086, Note_on_c, 0, 60, 36
2, 59086, Note_on_c, 0, 57, 42
2, 59089, Note_on_c, 0, 53, 27
2, 59108, Note_on_c, 0, 64, 0
2, 59109, Note_on_c, 0, 60, 0
2, 59118, Note_on_c, 0, 57, 0
2, 59127, Note_on_c, 0, 53, 0
2, 59137, Note_on_c, 0, 84, 92
2, 59138, Note_on_c, 0, 72, 89
2, 59170, Note_on_c, 0, 72, 0
2, 59172, Note_on_c, 0, 84, 0
2, 59200, Note_on_c, 0, 84, 78
2, 59203, Note_on_c, 0, 72, 69
2, 59211, Note_on_c, 0, 72, 0
2, 59214, Note_on_c, 0, 84, 0
2, 59230, Note_on_c, 0, 81, 38
2, 59237, Note_on_c, 0, 81, 0
2, 59256, Note_on_c, 0, 84, 83
2, 59258, Note_on_c, 0, 72, 72
2, 59268, Note_on_c, 0, 72, 0
2, 59272, Note_on_c, 0, 84, 0
2, 59288, Note_on_c, 0, 86, 66
2, 59289, Note_on_c, 0, 74, 49
2, 59296, Note_on_c, 0, 86, 0
2, 59297, Note_on_c, 0, 74, 0
2, 59317, Note_on_c, 0, 84, 68
2, 59320, Note_on_c, 0, 72, 49
2, 59345, Note_on_c, 0, 84, 0
2, 59351, Note_on_c, 0, 72, 0
2, 59413, Note_on_c, 0, 81, 57
2, 59414, Note_on_c, 0, 69, 49
2, 59466, Note_on_c, 0, 57, 38
2, 59494, Note_on_c, 0, 57, 0
2, 59506, Note_on_c, 0, 48, 55
2, 59531, Note_on_c, 0, 69, 0
2, 59536, Note_on_c, 0, 48, 0
2, 59543, Note_on_c, 0, 81, 0
2, 59547, Note_on_c, 0, 41, 57
2, 59560, Note_on_c, 0, 41, 0
2, 59585, Control_c, 0, 64, 0
2, 59587, Note_on_c, 0, 40, 66
2, 59588, Note_on_c, 0, 79, 62
2, 59588, Note_on_c, 0, 83, 66
2, 59589, Note_on_c, 0, 71, 60
2, 59612, Control_c, 0, 64, 127
2, 59618, Note_on_c, 0, 83, 0
2, 59622, Note_on_c, 0, 79, 0
2, 59626, Note_on_c, 0, 47, 56
2, 59628, Note_on_c, 0, 71, 0
2, 59647, Note_on_c, 0, 40, 0
2, 59660, Note_on_c, 0, 47, 0
2, 59667, Note_on_c, 0, 55, 62
2, 59683, Note_on_c, 0, 55, 0
2, 59702, Note_on_c, 0, 59, 55
2, 59738, Note_on_c, 0, 79, 56
2, 59738, Note_on_c, 0, 67, 47
2, 59738, Note_on_c, 0, 71, 49
2, 59739, Note_on_c, 0, 64, 57
2, 59739, Note_on_c, 0, 74, 54
2, 59815, Note_on_c, 0, 64, 0
2, 59823, Note_on_c, 0, 59, 0
2, 59834, Note_on_c, 0, 67, 0
2, 59836, Note_on_c, 0, 71, 0
2, 59840, Note_on_c, 0, 74, 0
2, 59845, Note_on_c, 0, 79, 0
2, 59901, Note_on_c, 0, 81, 54
2, 59902, Note_on_c, 0, 60, 49
2, 59903, Note_on_c, 0, 77, 41
2, 59903, Note_on_c, 0, 57, 33
2, 59903, Note_on_c, 0, 50, 40
2, 59904, Note_on_c, 0, 69, 44
2, 59909, Control_c, 0, 64, 0
2, 59936, Control_c, 0, 64, 127
2, 59974, Note_on_c, 0, 81, 0
2, 59981, Note_on_c, 0, 77, 0
2, 59987, Note_on_c, 0, 60, 0
2, 59991, Note_on_c, 0, 69, 0
2, 60010, Note_on_c, 0, 57, 0
2, 60080, Note_on_c, 0, 67, 47
2, 60080, Note_on_c, 0, 64, 40
2, 60080, Note_on_c, 0, 60, 34
2, 60081, Note_on_c, 0, 57, 30
2, 60081, Note_on_c, 0, 65, 39
2, 60085, Control_c, 0, 64, 0
2, 60098, Control_c, 0, 64, 127
2, 60136, Note_on_c, 0, 60, 0
2, 60145, Note_on_c, 0, 57, 0
2, 60166, Note_on_c, 0, 60, 36
2, 60168, Note_on_c, 0, 57, 41
2, 60197, Note_on_c, 0, 60, 0
2, 60215, Note_on_c, 0, 65, 0
2, 60217, Note_on_c, 0, 64, 0
2, 60222, Note_on_c, 0, 57, 0
2, 60229, Note_on_c, 0, 67, 0
2, 60230, Note_on_c, 0, 50, 0
2, 60320, Note_on_c, 0, 50, 52
2, 60390, Note_on_c, 0, 60, 59
2, 60390, Note_on_c, 0, 64, 53
2, 60390, Note_on_c, 0, 55, 21
2, 60390, Note_on_c, 0, 57, 61
2, 60390, Note_on_c, 0, 50, 70
2, 60390, Note_on_c, 0, 69, 51
2, 60406, Control_c, 0, 64, 0
2, 60437, Note_on_c, 0, 69, 0
2, 60437, Control_c, 0, 64, 127
2, 60450, Note_on_c, 0, 69, 43
2, 60454, Note_on_c, 0, 55, 0
2, 60454, Note_on_c, 0, 57, 0
2, 60456, Note_on_c, 0, 50, 0
2, 60476, Note_on_c, 0, 50, 0
2, 60480, Note_on_c, 0, 69, 0
2, 60487, Note_on_c, 0, 60, 0
2, 60495, Note_on_c, 0, 64, 0
2, 60510, Note_on_c, 0, 69, 50
2, 60515, Note_on_c, 0, 64, 38
2, 60516, Note_on_c, 0, 60, 25
2, 60523, Note_on_c, 0, 60, 0
2, 60527, Note_on_c, 0, 69, 0
2, 60531, Note_on_c, 0, 64, 0
2, 60564, Note_on_c, 0, 40, 34
2, 60567, Note_on_c, 0, 62, 46
2, 60568, Note_on_c, 0, 71, 48
2, 60569, Note_on_c, 0, 67, 50
2, 60570, Note_on_c, 0, 55, 46
2, 60572, Control_c, 0, 64, 0
2, 60603, Control_c, 0, 64, 127
2, 60605, Note_on_c, 0, 71, 0
2, 60612, Note_on_c, 0, 62, 0
2, 60613, Note_on_c, 0, 67, 0
2, 60622, Note_on_c, 0, 71, 41
2, 60623, Note_on_c, 0, 62, 36
2, 60625, Note_on_c, 0, 67, 37
2, 60625, Note_on_c, 0, 47, 37
2, 60629, Note_on_c, 0, 55, 0
2, 60631, Note_on_c, 0, 67, 0
2, 60637, Note_on_c, 0, 71, 0
2, 60642, Note_on_c, 0, 62, 0
2, 60676, Note_on_c, 0, 67, 43
2, 60678, Note_on_c, 0, 62, 44
2, 60679, Note_on_c, 0, 59, 41
2, 60680, Note_on_c, 0, 55, 40
2, 60713, Note_on_c, 0, 55, 0
2, 60716, Note_on_c, 0, 59, 0
2, 60717, Note_on_c, 0, 62, 0
2, 60718, Note_on_c, 0, 67, 0
2, 60737, Note_on_c, 0, 67, 32
2, 60738, Note_on_c, 0, 62, 50
2, 60738, Note_on_c, 0, 59, 40
2, 60745, Note_on_c, 0, 59, 0
2, 60745, Note_on_c, 0, 55, 22
2, 60754, Note_on_c, 0, 62, 0
2, 60758, Note_on_c, 0, 67, 0
2, 60802, Note_on_c, 0, 40, 0
2, 60812, Note_on_c, 0, 47, 0
2, 60822, Note_on_c, 0, 55, 0
2, 60860, Note_on_c, 0, 76, 84
2, 60882, Note_on_c, 0, 76, 0
2, 60911, Note_on_c, 0, 41, 35
2, 60911, Note_on_c, 0, 76, 80
2, 60913, Note_on_c, 0, 69, 74
2, 60913, Control_c, 0, 64, 0
2, 60913, Note_on_c, 0, 57, 55
2, 60913, Note_on_c, 0, 64, 66
2, 60950, Control_c, 0, 64, 127
2, 60957, Note_on_c, 0, 64, 0
2, 60965, Note_on_c, 0, 69, 0
2, 60969, Note_on_c, 0, 76, 0
2, 60971, Note_on_c, 0, 72, 66
2, 60973, Note_on_c, 0, 48, 38
2, 60975, Note_on_c, 0, 64, 19
2, 61003, Note_on_c, 0, 72, 0
2, 61005, Note_on_c, 0, 64, 0
2, 61008, Note_on_c, 0, 57, 0
2, 61028, Note_on_c, 0, 72, 54
2, 61050, Note_on_c, 0, 72, 0
2, 61083, Note_on_c, 0, 72, 52
2, 61084, Note_on_c, 0, 57, 40
2, 61088, Note_on_c, 0, 69, 38
2, 61089, Note_on_c, 0, 64, 19
2, 61104, Note_on_c, 0, 72, 0
2, 61105, Note_on_c, 0, 69, 0
2, 61116, Note_on_c, 0, 64, 0
2, 61127, Note_on_c, 0, 57, 0
2, 61151, Note_on_c, 0, 57, 49
2, 61171, Note_on_c, 0, 41, 0
2, 61178, Note_on_c, 0, 57, 0
2, 61208, Note_on_c, 0, 57, 54
2, 61216, Note_on_c, 0, 57, 0
2, 61234, Note_on_c, 0, 57, 57
2, 61237, Note_on_c, 0, 41, 37
2, 61245, Note_on_c, 0, 57, 0
2, 61251, Note_on_c, 0, 41, 0
2, 61256, Note_on_c, 0, 48, 0
2, 61270, Note_on_c, 0, 57, 38
2, 61270, Note_on_c, 0, 60, 52
2, 61271, Control_c, 0, 64, 0
2, 61272, Note_on_c, 0, 53, 36
2, 61273, Note_on_c, 0, 43, 42
2, 61298, Control_c, 0, 64, 127
2, 61312, Note_on_c, 0, 43, 0
2, 61318, Note_on_c, 0, 43, 47
2, 61389, Note_on_c, 0, 53, 0
2, 61397, Note_on_c, 0, 60, 0
2, 61401, Note_on_c, 0, 57, 0
2, 61409, Note_on_c, 0, 43, 0
2, 61441, Note_on_c, 0, 56, 31
2, 61442, Note_on_c, 0, 59, 45
2, 61444, Note_on_c, 0, 53, 31
2, 61445, Note_on_c, 0, 43, 36
2, 61448, Control_c, 0, 64, 0
2, 61480, Control_c, 0, 64, 127
2, 61503, Note_on_c, 0, 31, 45
2, 61519, Note_on_c, 0, 31, 0
2, 61527, Note_on_c, 0, 43, 0
2, 61559, Note_on_c, 0, 53, 0
2, 61567, Note_on_c, 0, 59, 0
2, 61573, Note_on_c, 0, 56, 0
2, 61628, Note_on_c, 0, 43, 24
2, 61630, Note_on_c, 0, 36, 36
2, 61633, Note_on_c, 0, 60, 38
2, 61633, Note_on_c, 0, 55, 28
2, 61634, Note_on_c, 0, 64, 32
2, 61634, Control_c, 0, 64, 0
2, 61634, Note_on_c, 0, 52, 38
2, 61639, Note_on_c, 0, 52, 0
2, 61661, Control_c, 0, 64, 127
2, 61666, Note_on_c, 0, 55, 0
2, 61676, Note_on_c, 0, 36, 0
2, 61684, Note_on_c, 0, 43, 0
2, 61701, Note_on_c, 0, 60, 0
2, 61705, Note_on_c, 0, 64, 0
2, 61807, Note_on_c, 0, 64, 26
2, 61812, Note_on_c, 0, 60, 28
2, 61901, Note_on_c, 0, 75, 59
2, 61907, Note_on_c, 0, 64, 0
2, 61908, Note_on_c, 0, 60, 0
2, 61917, Note_on_c, 0, 75, 0
2, 61928, Note_on_c, 0, 76, 71
2, 61942, Note_on_c, 0, 76, 0
2, 61955, Note_on_c, 0, 79, 89
2, 61974, Note_on_c, 0, 79, 0
2, 61980, Note_on_c, 0, 81, 82
2, 61984, Note_on_c, 0, 67, 36
2, 61987, Note_on_c, 0, 64, 30
2, 61988, Note_on_c, 0, 62, 20
2, 61991, Control_c, 0, 64, 0
2, 62002, Note_on_c, 0, 81, 0
2, 62019, Note_on_c, 0, 79, 57
2, 62030, Control_c, 0, 64, 127
2, 62047, Note_on_c, 0, 67, 0
2, 62060, Note_on_c, 0, 79, 0
2, 62070, Note_on_c, 0, 67, 38
2, 62093, Note_on_c, 0, 67, 0
2, 62102, Note_on_c, 0, 64, 0
2, 62106, Note_on_c, 0, 67, 43
2, 62124, Note_on_c, 0, 67, 0
2, 62138, Note_on_c, 0, 67, 50
2, 62152, Note_on_c, 0, 67, 0
2, 62171, Note_on_c, 0, 64, 30
2, 62177, Note_on_c, 0, 67, 47
2, 62201, Note_on_c, 0, 67, 0
2, 62221, Note_on_c, 0, 67, 45
2, 62238, Note_on_c, 0, 67, 0
2, 62255, Note_on_c, 0, 64, 0
2, 62260, Note_on_c, 0, 67, 41
2, 62266, Note_on_c, 0, 62, 0
2, 62273, Note_on_c, 0, 67, 0
2, 62299, Note_on_c, 0, 67, 45
2, 62309, Note_on_c, 0, 67, 0
2, 62341, Note_on_c, 0, 76, 74
2, 62392, Note_on_c, 0, 64, 43
2, 62395, Note_on_c, 0, 55, 18
2, 62395, Note_on_c, 0, 60, 45
2, 62434, Note_on_c, 0, 67, 46
2, 62447, Note_on_c, 0, 67, 0
2, 62460, Note_on_c, 0, 76, 0
2, 62462, Note_on_c, 0, 60, 0
2, 62469, Note_on_c, 0, 55, 0
2, 62478, Note_on_c, 0, 72, 77
2, 62486, Note_on_c, 0, 64, 0
2, 62507, Note_on_c, 0, 72, 0
2, 62516, Note_on_c, 0, 74, 56
2, 62518, Note_on_c, 0, 68, 67
2, 62526, Control_c, 0, 64, 0
2, 62557, Control_c, 0, 64, 127
2, 62560, Note_on_c, 0, 56, 33
2, 62596, Note_on_c, 0, 62, 35
2, 62604, Note_on_c, 0, 65, 32
2, 62606, Note_on_c, 0, 68, 0
2, 62625, Note_on_c, 0, 74, 0
2, 62635, Note_on_c, 0, 65, 0
2, 62636, Note_on_c, 0, 62, 0
2, 62642, Note_on_c, 0, 68, 61
2, 62653, Note_on_c, 0, 56, 0
2, 62664, Note_on_c, 0, 68, 0
2, 62681, Note_on_c, 0, 72, 56
2, 62682, Note_on_c, 0, 64, 45
2, 62684, Note_on_c, 0, 67, 44
2, 62684, Control_c, 0, 64, 0
2, 62686, Note_on_c, 0, 57, 38
2, 62716, Note_on_c, 0, 64, 0
2, 62718, Control_c, 0, 64, 127
2, 62728, Note_on_c, 0, 67, 0
2, 62735, Note_on_c, 0, 72, 0
2, 62737, Note_on_c, 0, 60, 31
2, 62746, Note_on_c, 0, 60, 0
2, 62756, Note_on_c, 0, 57, 0
2, 62862, Note_on_c, 0, 84, 74
2, 62863, Note_on_c, 0, 72, 66
2, 62923, Note_on_c, 0, 65, 51
2, 62924, Note_on_c, 0, 61, 34
2, 62925, Note_on_c, 0, 60, 48
2, 62925, Note_on_c, 0, 55, 44
2, 62927, Control_c, 0, 64, 0
2, 62948, Control_c, 0, 64, 127
2, 62978, Note_on_c, 0, 60, 0
2, 62978, Note_on_c, 0, 65, 0
2, 62981, Note_on_c, 0, 55, 0
2, 62989, Note_on_c, 0, 61, 0
2, 63013, Note_on_c, 0, 72, 0
2, 63030, Note_on_c, 0, 84, 0
2, 63030, Note_on_c, 0, 64, 38
2, 63032, Note_on_c, 0, 60, 44
2, 63034, Control_c, 0, 64, 0
2, 63034, Note_on_c, 0, 59, 45
2, 63034, Note_on_c, 0, 54, 37
2, 63068, Control_c, 0, 64, 127
2, 63087, Note_on_c, 0, 60, 0
2, 63087, Note_on_c, 0, 64, 0
2, 63088, Note_on_c, 0, 59, 0
2, 63094, Note_on_c, 0, 54, 0
2, 63206, Note_on_c, 0, 38, 38
2, 63208, Note_on_c, 0, 26, 34
2, 63219, Note_on_c, 0, 26, 0
2, 63222, Note_on_c, 0, 38, 0
2, 63384, Note_on_c, 0, 65, 44
2, 63388, Note_on_c, 0, 60, 49
2, 63388, Note_on_c, 0, 54, 33
2, 63396, Control_c, 0, 64, 0
2, 63400, Control_c, 0, 64, 127
2, 63446, Note_on_c, 0, 87, 71
2, 63451, Control_c, 0, 64, 0
2, 63459, Note_on_c, 0, 86, 58
2, 63463, Note_on_c, 0, 65, 0
2, 63467, Note_on_c, 0, 87, 0
2, 63473, Note_on_c, 0, 85, 60
2, 63478, Note_on_c, 0, 86, 0
2, 63485, Note_on_c, 0, 85, 0
2, 63490, Note_on_c, 0, 84, 44
2, 63495, Note_on_c, 0, 84, 0
2, 63507, Note_on_c, 0, 82, 62
2, 63521, Note_on_c, 0, 54, 0
2, 63522, Note_on_c, 0, 80, 49
2, 63532, Note_on_c, 0, 82, 0
2, 63542, Note_on_c, 0, 78, 32
2, 63543, Note_on_c, 0, 80, 0
2, 63547, Note_on_c, 0, 78, 0
2, 63549, Note_on_c, 0, 60, 0
2, 63562, Note_on_c, 0, 60, 18
2, 63564, Note_on_c, 0, 54, 34
2, 63564, Note_on_c, 0, 64, 32
2, 63611, Note_on_c, 0, 75, 45
2, 63618, Note_on_c, 0, 74, 58
2, 63626, Note_on_c, 0, 75, 0
2, 63639, Note_on_c, 0, 73, 61
2, 63640, Note_on_c, 0, 74, 0
2, 63647, Note_on_c, 0, 54, 0
2, 63652, Note_on_c, 0, 64, 0
2, 63653, Note_on_c, 0, 73, 0
2, 63658, Note_on_c, 0, 72, 27
2, 63663, Note_on_c, 0, 72, 0
2, 63671, Note_on_c, 0, 70, 38
2, 63678, Note_on_c, 0, 60, 0
2, 63690, Note_on_c, 0, 70, 0
2, 63691, Control_c, 0, 64, 127
2, 63694, Note_on_c, 0, 69, 32
2, 63701, Note_on_c, 0, 69, 0
2, 63712, Note_on_c, 0, 68, 30
2, 63715, Control_c, 0, 64, 0
2, 63717, Note_on_c, 0, 68, 0
2, 63718, Note_on_c, 0, 65, 28
2, 63718, Note_on_c, 0, 60, 40
2, 63721, Note_on_c, 0, 57, 39
2, 63721, Note_on_c, 0, 55, 20
2, 63754, Note_on_c, 0, 65, 0
2, 63754, Note_on_c, 0, 67, 36
2, 63766, Note_on_c, 0, 68, 38
2, 63771, Note_on_c, 0, 67, 0
2, 63776, Note_on_c, 0, 60, 0
2, 63780, Note_on_c, 0, 68, 0
2, 63781, Note_on_c, 0, 69, 58
2, 63790, Note_on_c, 0, 55, 0
2, 63793, Note_on_c, 0, 69, 0
2, 63793, Note_on_c, 0, 57, 0
2, 63798, Note_on_c, 0, 72, 74
2, 63823, Note_on_c, 0, 72, 0
2, 63824, Note_on_c, 0, 69, 25
2, 63830, Note_on_c, 0, 69, 0
2, 63836, Note_on_c, 0, 65, 36
2, 63842, Note_on_c, 0, 65, 0
2, 63851, Note_on_c, 0, 60, 51
2, 63857, Note_on_c, 0, 60, 0
2, 63872, Note_on_c, 0, 67, 68
2, 63873, Note_on_c, 0, 63, 60
2, 63889, Note_on_c, 0, 63, 0
2, 63889, Note_on_c, 0, 53, 25
2, 63892, Note_on_c, 0, 64, 48
2, 63903, Note_on_c, 0, 67, 0
2, 63906, Note_on_c, 0, 64, 0
2, 63919, Note_on_c, 0, 69, 72
2, 63922, Note_on_c, 0, 65, 64
2, 63933, Note_on_c, 0, 65, 0
2, 63934, Note_on_c, 0, 69, 0
2, 63951, Note_on_c, 0, 67, 74
2, 63959, Note_on_c, 0, 53, 0
2, 63962, Note_on_c, 0, 43, 33
2, 63963, Note_on_c, 0, 64, 19
2, 63975, Note_on_c, 0, 43, 0
2, 63976, Note_on_c, 0, 67, 0
2, 63979, Note_on_c, 0, 64, 0
2, 63981, Note_on_c, 0, 60, 62
2, 63985, Note_on_c, 0, 60, 0
2, 63999, Note_on_c, 0, 55, 44
2, 64004, Note_on_c, 0, 55, 0
2, 64011, Note_on_c, 0, 53, 61
2, 64011, Note_on_c, 0, 60, 56
2, 64027, Note_on_c, 0, 43, 17
2, 64028, Note_on_c, 0, 53, 0
2, 64042, Note_on_c, 0, 51, 52
2, 64064, Note_on_c, 0, 51, 0
2, 64102, Note_on_c, 0, 53, 57
2, 64109, Note_on_c, 0, 31, 47
2, 64148, Control_c, 0, 64, 127
2, 64184, Note_on_c, 0, 53, 0
2, 64193, Note_on_c, 0, 51, 46
2, 64195, Note_on_c, 0, 43, 0
2, 64206, Note_on_c, 0, 60, 0
2, 64206, Note_on_c, 0, 51, 0
2, 64230, Control_c, 0, 64, 0
2, 64232, Note_on_c, 0, 43, 45
2, 64233, Note_on_c, 0, 60, 57
2, 64234, Note_on_c, 0, 53, 58
2, 64242, Note_on_c, 0, 53, 0
2, 64249, Note_on_c, 0, 60, 0
2, 64283, Note_on_c, 0, 51, 59
2, 64287, Note_on_c, 0, 34, 49
2, 64291, Note_on_c, 0, 43, 0
2, 64291, Note_on_c, 0, 31, 0
2, 64305, Note_on_c, 0, 51, 0
2, 64319, Note_on_c, 0, 48, 31
2, 64352, Control_c, 0, 64, 127
2, 64363, Note_on_c, 0, 48, 0
2, 64374, Note_on_c, 0, 35, 39
2, 64377, Note_on_c, 0, 34, 0
2, 64377, Note_on_c, 0, 46, 29
2, 64394, Note_on_c, 0, 46, 0
2, 64395, Control_c, 0, 64, 0
2, 64396, Note_on_c, 0, 35, 0
2, 64405, Note_on_c, 0, 36, 41
2, 64408, Note_on_c, 0, 48, 35
2, 64446, Control_c, 0, 64, 127
2, 64458, Note_on_c, 0, 24, 46
2, 64460, Note_on_c, 0, 48, 0
2, 64496, Note_on_c, 0, 24, 0
2, 64498, Note_on_c, 0, 36, 0
2, 64600, Note_on_c, 0, 58, 35
2, 64677, Note_on_c, 0, 58, 0
2, 64698, Note_on_c, 0, 67, 62
2, 64710, Note_on_c, 0, 67, 0
2, 64748, Note_on_c, 0, 72, 91
2, 64776, Note_on_c, 0, 72, 0
2, 64785, Control_c, 0, 64, 0
2, 64785, Note_on_c, 0, 68, 46
2, 64786, Note_on_c, 0, 57, 49
2, 64786, Note_on_c, 0, 63, 43
2, 64789, Note_on_c, 0, 74, 62
2, 64832, Control_c, 0, 64, 127
2, 64837, Note_on_c, 0, 74, 0
2, 64842, Note_on_c, 0, 75, 60
2, 64922, Note_on_c, 0, 57, 0
2, 64939, Note_on_c, 0, 68, 0
2, 64946, Note_on_c, 0, 63, 0
2, 64965, Note_on_c, 0, 75, 0
2, 64968, Note_on_c, 0, 76, 66
2, 65005, Note_on_c, 0, 76, 0
2, 65019, Note_on_c, 0, 77, 71
2, 65030, Note_on_c, 0, 77, 0
2, 65033, Control_c, 0, 64, 0
2, 65053, Note_on_c, 0, 81, 62
2, 65058, Note_on_c, 0, 81, 0
2, 65083, Control_c, 0, 64, 127
2, 65102, Note_on_c, 0, 68, 48
2, 65103, Note_on_c, 0, 57, 37
2, 65103, Note_on_c, 0, 63, 40
2, 65106, Note_on_c, 0, 84, 59
2, 65116, Note_on_c, 0, 57, 0
2, 65118, Note_on_c, 0, 84, 0
2, 65124, Note_on_c, 0, 68, 0
2, 65136, Note_on_c, 0, 63, 0
2, 65142, Note_on_c, 0, 67, 53
2, 65142, Control_c, 0, 64, 0
2, 65142, Note_on_c, 0, 87, 65
2, 65143, Note_on_c, 0, 62, 44
2, 65144, Note_on_c, 0, 75, 62
2, 65144, Note_on_c, 0, 56, 35
2, 65163, Note_on_c, 0, 87, 0
2, 65164, Note_on_c, 0, 88, 58
2, 65165, Note_on_c, 0, 75, 0
2, 65168, Note_on_c, 0, 76, 44
2, 65202, Note_on_c, 0, 88, 0
2, 65204, Note_on_c, 0, 76, 0
2, 65206, Control_c, 0, 64, 127
2, 65219, Note_on_c, 0, 84, 60
2, 65222, Note_on_c, 0, 72, 49
2, 65268, Note_on_c, 0, 84, 0
2, 65271, Note_on_c, 0, 72, 0
2, 65274, Note_on_c, 0, 67, 0
2, 65285, Note_on_c, 0, 62, 0
2, 65291, Note_on_c, 0, 56, 0
2, 65311, Note_on_c, 0, 62, 34
2, 65312, Note_on_c, 0, 67, 44
2, 65313, Note_on_c, 0, 79, 53
2, 65315, Control_c, 0, 64, 0
2, 65315, Note_on_c, 0, 56, 29
2, 65333, Control_c, 0, 64, 127
2, 65407, Note_on_c, 0, 62, 0
2, 65429, Note_on_c, 0, 56, 0
2, 65432, Note_on_c, 0, 67, 0
2, 65484, Note_on_c, 0, 65, 30
2, 65486, Note_on_c, 0, 61, 29
2, 65487, Note_on_c, 0, 55, 30
2, 65488, Control_c, 0, 64, 0
2, 65488, Note_on_c, 0, 60, 31
2, 65495, Note_on_c, 0, 79, 0
2, 65519, Control_c, 0, 64, 127
2, 65584, Note_on_c, 0, 84, 91
2, 65598, Note_on_c, 0, 84, 0
2, 65636, Control_c, 0, 64, 0
2, 65641, Note_on_c, 0, 85, 84
2, 65647, Control_c, 0, 64, 127
2, 65651, Note_on_c, 0, 65, 0
2, 65654, Note_on_c, 0, 61, 0
2, 65656, Note_on_c, 0, 55, 0
2, 65657, Note_on_c, 0, 85, 0
2, 65665, Note_on_c, 0, 60, 0
2, 65674, Note_on_c, 0, 84, 80
2, 65676, Note_on_c, 0, 60, 22
2, 65677, Note_on_c, 0, 65, 33
2, 65678, Control_c, 0, 64, 0
2, 65680, Note_on_c, 0, 55, 31
2, 65682, Note_on_c, 0, 61, 18
2, 65686, Note_on_c, 0, 84, 0
2, 65691, Note_on_c, 0, 85, 57
2, 65703, Note_on_c, 0, 84, 50
2, 65707, Note_on_c, 0, 85, 0
2, 65726, Note_on_c, 0, 82, 52
2, 65727, Note_on_c, 0, 84, 0
2, 65733, Note_on_c, 0, 55, 0
2, 65747, Note_on_c, 0, 82, 0
2, 65748, Note_on_c, 0, 81, 40
2, 65755, Note_on_c, 0, 60, 0
2, 65759, Note_on_c, 0, 81, 0
2, 65768, Note_on_c, 0, 65, 0
2, 65771, Note_on_c, 0, 61, 0
2, 65804, Note_on_c, 0, 82, 67
2, 65810, Note_on_c, 0, 60, 27
2, 65812, Note_on_c, 0, 55, 28
2, 65815, Note_on_c, 0, 82, 0
2, 65819, Note_on_c, 0, 60, 0
2, 65825, Note_on_c, 0, 55, 0
2, 65828, Note_on_c, 0, 83, 78
2, 65833, Control_c, 0, 64, 127
2, 65848, Note_on_c, 0, 83, 0
2, 65852, Control_c, 0, 64, 0
2, 65858, Note_on_c, 0, 84, 68
2, 65858, Note_on_c, 0, 64, 31
2, 65859, Note_on_c, 0, 54, 34
2, 65859, Note_on_c, 0, 60, 37
2, 65882, Note_on_c, 0, 84, 0
2, 65893, Note_on_c, 0, 81, 58
2, 65898, Control_c, 0, 64, 127
2, 65906, Note_on_c, 0, 81, 0
2, 65919, Note_on_c, 0, 72, 37
2, 65922, Control_c, 0, 64, 0
2, 65934, Note_on_c, 0, 72, 0
2, 65946, Control_c, 0, 64, 127
2, 65948, Note_on_c, 0, 72, 53
2, 65962, Note_on_c, 0, 72, 0
2, 65995, Note_on_c, 0, 64, 0
2, 65997, Note_on_c, 0, 60, 0
2, 66008, Note_on_c, 0, 72, 62
2, 66017, Note_on_c, 0, 72, 0
2, 66039, Note_on_c, 0, 72, 57
2, 66040, Note_on_c, 0, 64, 24
2, 66041, Control_c, 0, 64, 0
2, 66041, Note_on_c, 0, 60, 40
2, 66057, Note_on_c, 0, 72, 0
2, 66062, Note_on_c, 0, 74, 42
2, 66076, Note_on_c, 0, 74, 0
2, 66078, Note_on_c, 0, 72, 34
2, 66094, Note_on_c, 0, 72, 0
2, 66099, Control_c, 0, 64, 127
2, 66099, Note_on_c, 0, 69, 54
2, 66107, Note_on_c, 0, 69, 0
2, 66127, Control_c, 0, 64, 0
2, 66132, Note_on_c, 0, 72, 59
2, 66140, Control_c, 0, 64, 127
2, 66144, Note_on_c, 0, 72, 0
2, 66151, Note_on_c, 0, 74, 34
2, 66155, Note_on_c, 0, 54, 0
2, 66168, Note_on_c, 0, 74, 0
2, 66170, Note_on_c, 0, 72, 36
2, 66185, Note_on_c, 0, 64, 0
2, 66190, Note_on_c, 0, 72, 0
2, 66192, Note_on_c, 0, 60, 0
2, 66192, Note_on_c, 0, 69, 46
2, 66201, Note_on_c, 0, 69, 0
2, 66220, Control_c, 0, 64, 0
2, 66223, Note_on_c, 0, 65, 43
2, 66223, Note_on_c, 0, 55, 44
2, 66223, Note_on_c, 0, 72, 58
2, 66224, Note_on_c, 0, 60, 44
2, 66225, Note_on_c, 0, 57, 41
2, 66243, Note_on_c, 0, 72, 0
2, 66246, Control_c, 0, 64, 127
2, 66249, Note_on_c, 0, 74, 41
2, 66257, Note_on_c, 0, 65, 0
2, 66263, Note_on_c, 0, 74, 0
2, 66264, Note_on_c, 0, 72, 34
2, 66265, Note_on_c, 0, 55, 0
2, 66265, Note_on_c, 0, 60, 0
2, 66273, Note_on_c, 0, 57, 0
2, 66283, Note_on_c, 0, 72, 0
2, 66285, Note_on_c, 0, 69, 41
2, 66298, Note_on_c, 0, 69, 0
2, 66311, Note_on_c, 0, 72, 62
2, 66326, Note_on_c, 0, 72, 0
2, 66335, Note_on_c, 0, 74, 36
2, 66352, Note_on_c, 0, 74, 0
2, 66355, Note_on_c, 0, 72, 28
2, 66373, Note_on_c, 0, 50, 30
2, 66375, Note_on_c, 0, 72, 0
2, 66377, Note_on_c, 0, 69, 25
2, 66389, Note_on_c, 0, 69, 0
2, 66394, Note_on_c, 0, 50, 0
2, 66400, Control_c, 0, 64, 0
2, 66402, Note_on_c, 0, 43, 40
2, 66403, Note_on_c, 0, 71, 55
2, 66403, Note_on_c, 0, 55, 39
2, 66423, Control_c, 0, 64, 127
2, 66440, Note_on_c, 0, 43, 0
2, 66450, Note_on_c, 0, 55, 0
2, 66484, Note_on_c, 0, 71, 0
2, 66488, Note_on_c, 0, 68, 55
2, 66490, Note_on_c, 0, 65, 41
2, 66490, Note_on_c, 0, 56, 36
2, 66530, Note_on_c, 0, 65, 0
2, 66544, Note_on_c, 0, 54, 37
2, 66548, Note_on_c, 0, 68, 0
2, 66550, Note_on_c, 0, 56, 0
2, 66570, Note_on_c, 0, 54, 0
2, 66578, Note_on_c, 0, 67, 38
2, 66579, Control_c, 0, 64, 0
2, 66580, Note_on_c, 0, 55, 47
2, 66581, Note_on_c, 0, 62, 31
2, 66606, Control_c, 0, 64, 127
2, 66631, Note_on_c, 0, 67, 0
2, 66642, Note_on_c, 0, 43, 48
2, 66649, Note_on_c, 0, 62, 0
2, 66662, Note_on_c, 0, 43, 0
2, 66678, Note_on_c, 0, 43, 49
2, 66692, Note_on_c, 0, 55, 0
2, 66738, Note_on_c, 0, 67, 35
2, 66740, Note_on_c, 0, 62, 36
2, 66741, Note_on_c, 0, 57, 35
2, 66742, Note_on_c, 0, 59, 35
2, 66743, Note_on_c, 0, 55, 43
2, 66753, Control_c, 0, 64, 0
2, 66777, Control_c, 0, 64, 127
2, 66790, Note_on_c, 0, 43, 0
2, 66835, Note_on_c, 0, 43, 56
2, 66856, Note_on_c, 0, 43, 0
2, 66868, Note_on_c, 0, 62, 0
2, 66870, Note_on_c, 0, 67, 0
2, 66872, Note_on_c, 0, 55, 0
2, 66875, Note_on_c, 0, 57, 0
2, 66876, Note_on_c, 0, 59, 0
2, 66877, Note_on_c, 0, 43, 56
2, 66931, Note_on_c, 0, 64, 46
2, 66932, Note_on_c, 0, 53, 46
2, 66932, Note_on_c, 0, 57, 53
2, 66933, Note_on_c, 0, 60, 54
2, 66937, Control_c, 0, 64, 0
2, 66963, Note_on_c, 0, 43, 0
2, 66996, Control_c, 0, 64, 127
2, 67017, Note_on_c, 0, 31, 63
2, 67017, Note_on_c, 0, 43, 53
2, 67034, Note_on_c, 0, 31, 0
2, 67045, Note_on_c, 0, 43, 0
2, 67076, Note_on_c, 0, 53, 0
2, 67077, Note_on_c, 0, 60, 0
2, 67087, Note_on_c, 0, 57, 0
2, 67105, Note_on_c, 0, 64, 0
2, 67138, Note_on_c, 0, 64, 36
2, 67138, Note_on_c, 0, 56, 40
2, 67138, Note_on_c, 0, 53, 43
2, 67138, Note_on_c, 0, 59, 52
2, 67145, Control_c, 0, 64, 0
2, 67152, Note_on_c, 0, 52, 17
2, 67180, Control_c, 0, 64, 127
2, 67198, Note_on_c, 0, 53, 0
2, 67200, Note_on_c, 0, 43, 46
2, 67202, Note_on_c, 0, 56, 0
2, 67206, Note_on_c, 0, 59, 0
2, 67218, Note_on_c, 0, 43, 0
2, 67222, Note_on_c, 0, 64, 0
2, 67238, Note_on_c, 0, 52, 0
2, 67293, Note_on_c, 0, 63, 60
2, 67324, Note_on_c, 0, 63, 0
2, 67324, Note_on_c, 0, 36, 32
2, 67324, Control_c, 0, 64, 0
2, 67325, Note_on_c, 0, 43, 17
2, 67329, Note_on_c, 0, 52, 37
2, 67330, Note_on_c, 0, 64, 40
2, 67334, Note_on_c, 0, 36, 0
2, 67342, Note_on_c, 0, 43, 0
2, 67351, Control_c, 0, 64, 127
2, 67357, Note_on_c, 0, 52, 0
2, 67381, Note_on_c, 0, 64, 0
2, 67395, Note_on_c, 0, 67, 60
2, 67424, Note_on_c, 0, 55, 20
2, 67429, Note_on_c, 0, 55, 0
2, 67471, Note_on_c, 0, 67, 0
2, 67497, Note_on_c, 0, 51, 30
2, 67516, Note_on_c, 0, 51, 0
2, 67516, Note_on_c, 0, 67, 38
2, 67517, Note_on_c, 0, 57, 45
2, 67518, Control_c, 0, 64, 0
2, 67518, Note_on_c, 0, 62, 43
2, 67520, Note_on_c, 0, 52, 40
2, 67549, Control_c, 0, 64, 127
2, 67581, Note_on_c, 0, 57, 0
2, 67585, Note_on_c, 0, 62, 0
2, 67613, Note_on_c, 0, 62, 34
2, 67615, Note_on_c, 0, 57, 36
2, 67623, Note_on_c, 0, 52, 0
2, 67637, Note_on_c, 0, 67, 0
2, 67642, Note_on_c, 0, 62, 0
2, 67651, Note_on_c, 0, 57, 0
2, 67698, Control_c, 0, 64, 0
2, 67701, Note_on_c, 0, 64, 46
2, 67702, Note_on_c, 0, 55, 51
2, 67702, Note_on_c, 0, 60, 55
2, 67704, Note_on_c, 0, 52, 31
2, 67705, Note_on_c, 0, 43, 29
2, 67713, Control_c, 0, 64, 127
2, 67717, Note_on_c, 0, 43, 0
2, 67721, Note_on_c, 0, 55, 0
2, 67726, Note_on_c, 0, 52, 0
2, 67737, Note_on_c, 0, 60, 0
2, 67743, Note_on_c, 0, 64, 0
2, 67796, Note_on_c, 0, 74, 85
2, 67796, Note_on_c, 0, 68, 86
2, 67798, Note_on_c, 0, 58, 67
2, 67798, Note_on_c, 0, 65, 82
2, 67799, Control_c, 0, 64, 0
2, 67823, Control_c, 0, 64, 127
2, 67848, Note_on_c, 0, 74, 0
2, 67852, Note_on_c, 0, 65, 0
2, 67857, Note_on_c, 0, 68, 0
2, 67882, Note_on_c, 0, 58, 0
2, 67890, Control_c, 0, 64, 0
2, 67891, Note_on_c, 0, 72, 55
2, 67893, Note_on_c, 0, 57, 44
2, 67894, Note_on_c, 0, 67, 45
2, 67894, Note_on_c, 0, 64, 40
2, 67913, Control_c, 0, 64, 127
2, 67927, Note_on_c, 0, 72, 0
2, 67930, Note_on_c, 0, 67, 0
2, 67939, Note_on_c, 0, 64, 0
2, 67974, Note_on_c, 0, 57, 0
2, 67984, Note_on_c, 0, 69, 44
2, 67984, Note_on_c, 0, 60, 43
2, 67984, Note_on_c, 0, 64, 43
2, 67987, Note_on_c, 0, 52, 32
2, 67996, Note_on_c, 0, 52, 0
2, 68000, Note_on_c, 0, 69, 0
2, 68005, Note_on_c, 0, 64, 0
2, 68014, Note_on_c, 0, 60, 0
2, 68078, Note_on_c, 0, 54, 56
2, 68078, Control_c, 0, 64, 0
2, 68079, Note_on_c, 0, 38, 30
2, 68081, Note_on_c, 0, 26, 54
2, 68095, Note_on_c, 0, 26, 0
2, 68095, Note_on_c, 0, 38, 0
2, 68099, Control_c, 0, 64, 127
2, 68106, Note_on_c, 0, 54, 0
2, 68171, Note_on_c, 0, 74, 49
2, 68171, Note_on_c, 0, 64, 41
2, 68171, Note_on_c, 0, 69, 44
2, 68172, Note_on_c, 0, 66, 45
2, 68174, Note_on_c, 0, 60, 34
2, 68174, Note_on_c, 0, 54, 26
2, 68184, Note_on_c, 0, 60, 0
2, 68195, Note_on_c, 0, 54, 0
2, 68204, Note_on_c, 0, 69, 0
2, 68204, Note_on_c, 0, 74, 0
2, 68210, Note_on_c, 0, 66, 0
2, 68213, Note_on_c, 0, 64, 0
2, 68264, Note_on_c, 0, 60, 52
2, 68265, Note_on_c, 0, 66, 43
2, 68265, Note_on_c, 0, 64, 40
2, 68266, Note_on_c, 0, 54, 37
2, 68272, Note_on_c, 0, 45, 27
2, 68272, Control_c, 0, 64, 0
2, 68294, Control_c, 0, 64, 127
2, 68315, Note_on_c, 0, 45, 0
2, 68326, Note_on_c, 0, 64, 0
2, 68329, Note_on_c, 0, 60, 0
2, 68338, Note_on_c, 0, 54, 0
2, 68344, Note_on_c, 0, 50, 20
2, 68358, Note_on_c, 0, 60, 62
2, 68360, Note_on_c, 0, 54, 38
2, 68360, Control_c, 0, 64, 0
2, 68361, Note_on_c, 0, 44, 39
2, 68374, Control_c, 0, 64, 127
2, 68380, Note_on_c, 0, 50, 0
2, 68401, Note_on_c, 0, 60, 0
2, 68403, Note_on_c, 0, 66, 0
2, 68419, Note_on_c, 0, 54, 0
2, 68439, Note_on_c, 0, 44, 0
2, 68445, Note_on_c, 0, 50, 27
2, 68450, Note_on_c, 0, 53, 36
2, 68450, Note_on_c, 0, 60, 56
2, 68451, Note_on_c, 0, 57, 33
2, 68451, Control_c, 0, 64, 0
2, 68454, Note_on_c, 0, 43, 34
2, 68478, Control_c, 0, 64, 127
2, 68514, Note_on_c, 0, 53, 0
2, 68519, Note_on_c, 0, 57, 0
2, 68521, Note_on_c, 0, 60, 0
2, 68524, Note_on_c, 0, 43, 0
2, 68539, Note_on_c, 0, 50, 0
2, 68540, Note_on_c, 0, 43, 28
2, 68543, Note_on_c, 0, 57, 39
2, 68544, Note_on_c, 0, 53, 34
2, 68548, Control_c, 0, 64, 0
2, 68551, Control_c, 0, 64, 127
2, 68592, Note_on_c, 0, 43, 0
2, 68603, Note_on_c, 0, 57, 0
2, 68606, Note_on_c, 0, 53, 0
2, 68612, Note_on_c, 0, 50, 27
2, 68616, Note_on_c, 0, 43, 22
2, 68627, Note_on_c, 0, 50, 0
2, 68634, Control_c, 0, 64, 0
2, 68634, Note_on_c, 0, 53, 42
2, 68636, Note_on_c, 0, 56, 46
2, 68638, Note_on_c, 0, 62, 42
2, 68639, Note_on_c, 0, 59, 57
2, 68656, Control_c, 0, 64, 127
2, 68691, Note_on_c, 0, 59, 0
2, 68694, Note_on_c, 0, 62, 0
2, 68700, Note_on_c, 0, 50, 47
2, 68701, Note_on_c, 0, 56, 0
2, 68707, Note_on_c, 0, 53, 0
2, 68711, Note_on_c, 0, 50, 0
2, 68713, Note_on_c, 0, 43, 0
2, 68721, Control_c, 0, 64, 0
2, 68723, Note_on_c, 0, 63, 53
2, 68724, Note_on_c, 0, 54, 56
2, 68725, Note_on_c, 0, 58, 50
2, 68726, Note_on_c, 0, 47, 54
2, 68741, Control_c, 0, 64, 127
2, 68778, Note_on_c, 0, 47, 0
2, 68792, Note_on_c, 0, 63, 0
2, 68794, Note_on_c, 0, 58, 0
2, 68794, Note_on_c, 0, 54, 0
2, 68816, Control_c, 0, 64, 0
2, 68821, Note_on_c, 0, 55, 50
2, 68822, Note_on_c, 0, 60, 54
2, 68822, Note_on_c, 0, 64, 37
2, 68824, Note_on_c, 0, 48, 54
2, 68842, Note_on_c, 0, 55, 0
2, 68842, Control_c, 0, 64, 127
2, 68850, Note_on_c, 0, 60, 0
2, 68855, Note_on_c, 0, 64, 0
2, 68893, Note_on_c, 0, 36, 37
2, 68899, Note_on_c, 0, 36, 0
2, 68915, Note_on_c, 0, 72, 81
2, 68916, Note_on_c, 0, 84, 90
2, 68917, Note_on_c, 0, 36, 84
2, 68928, Note_on_c, 0, 36, 0
2, 68931, Note_on_c, 0, 48, 0
2, 68966, Note_on_c, 0, 84, 0
2, 68975, Note_on_c, 0, 72, 0
2, 69007, Control_c, 0, 64, 0
2, 69009, Note_on_c, 0, 83, 59
2, 69009, Note_on_c, 0, 75, 56
2, 69010, Note_on_c, 0, 68, 64
2, 69010, Note_on_c, 0, 71, 58
2, 69012, Note_on_c, 0, 63, 40
2, 69012, Note_on_c, 0, 61, 38
2, 69015, Note_on_c, 0, 57, 43
2, 69027, Control_c, 0, 64, 127
2, 69039, Note_on_c, 0, 71, 0
2, 69045, Note_on_c, 0, 75, 0
2, 69054, Note_on_c, 0, 83, 0
2, 69060, Note_on_c, 0, 61, 0
2, 69062, Note_on_c, 0, 57, 0
2, 69062, Note_on_c, 0, 68, 0
2, 69071, Note_on_c, 0, 63, 0
2, 69100, Control_c, 0, 64, 0
2, 69101, Note_on_c, 0, 95, 88
2, 69101, Note_on_c, 0, 68, 74
2, 69101, Note_on_c, 0, 83, 80
2, 69101, Note_on_c, 0, 63, 61
2, 69102, Note_on_c, 0, 57, 63
2, 69102, Note_on_c, 0, 61, 56
2, 69119, Control_c, 0, 64, 127
2, 69140, Note_on_c, 0, 83, 0
2, 69147, Note_on_c, 0, 95, 0
2, 69151, Note_on_c, 0, 57, 0
2, 69162, Note_on_c, 0, 68, 0
2, 69178, Note_on_c, 0, 63, 0
2, 69184, Note_on_c, 0, 61, 0
2, 69190, Control_c, 0, 64, 0
2, 69193, Note_on_c, 0, 62, 72
2, 69193, Note_on_c, 0, 67, 79
2, 69193, Note_on_c, 0, 100, 85
2, 69194, Note_on_c, 0, 88, 87
2, 69194, Note_on_c, 0, 56, 72
2, 69194, Note_on_c, 0, 96, 89
2, 69216, Control_c, 0, 64, 127
2, 69240, Note_on_c, 0, 96, 0
2, 69240, Note_on_c, 0, 100, 0
2, 69248, Note_on_c, 0, 88, 0
2, 69257, Note_on_c, 0, 56, 0
2, 69258, Note_on_c, 0, 67, 0
2, 69264, Note_on_c, 0, 62, 0
2, 69281, Control_c, 0, 64, 0
2, 69284, Note_on_c, 0, 62, 59
2, 69285, Note_on_c, 0, 67, 54
2, 69286, Note_on_c, 0, 93, 66
2, 69286, Note_on_c, 0, 96, 69
2, 69286, Note_on_c, 0, 56, 55
2, 69287, Note_on_c, 0, 84, 56
2, 69298, Control_c, 0, 64, 127
2, 69317, Note_on_c, 0, 96, 0
2, 69320, Note_on_c, 0, 93, 0
2, 69325, Note_on_c, 0, 84, 0
2, 69326, Note_on_c, 0, 62, 0
2, 69333, Note_on_c, 0, 67, 0
2, 69346, Note_on_c, 0, 56, 0
2, 69376, Control_c, 0, 64, 0
2, 69380, Note_on_c, 0, 61, 39
2, 69381, Note_on_c, 0, 93, 47
2, 69381, Note_on_c, 0, 81, 42
2, 69381, Note_on_c, 0, 65, 30
2, 69382, Note_on_c, 0, 55, 38
2, 69382, Note_on_c, 0, 60, 41
2, 69383, Note_on_c, 0, 89, 40
2, 69402, Control_c, 0, 64, 127
2, 69440, Note_on_c, 0, 60, 0
2, 69441, Note_on_c, 0, 55, 0
2, 69445, Note_on_c, 0, 65, 0
2, 69452, Note_on_c, 0, 61, 0
2, 69467, Note_on_c, 0, 93, 0
2, 69470, Note_on_c, 0, 65, 47
2, 69471, Note_on_c, 0, 61, 33
2, 69472, Note_on_c, 0, 60, 51
2, 69473, Note_on_c, 0, 89, 0
2, 69473, Note_on_c, 0, 55, 48
2, 69479, Note_on_c, 0, 81, 0
2, 69516, Note_on_c, 0, 60, 0
2, 69516, Note_on_c, 0, 55, 0
2, 69523, Note_on_c, 0, 61, 0
2, 69530, Note_on_c, 0, 65, 0
2, 69557, Control_c, 0, 64, 0
2, 69563, Note_on_c, 0, 89, 77
2, 69563, Note_on_c, 0, 60, 60
2, 69564, Note_on_c, 0, 77, 73
2, 69564, Note_on_c, 0, 65, 59
2, 69564, Note_on_c, 0, 82, 64
2, 69565, Note_on_c, 0, 86, 56
2, 69565, Note_on_c, 0, 54, 49
2, 69583, Control_c, 0, 64, 127
2, 69592, Note_on_c, 0, 86, 0
2, 69592, Note_on_c, 0, 89, 0
2, 69597, Note_on_c, 0, 82, 0
2, 69602, Note_on_c, 0, 77, 0
2, 69614, Note_on_c, 0, 60, 0
2, 69622, Note_on_c, 0, 54, 0
2, 69622, Note_on_c, 0, 65, 0
2, 69656, Control_c, 0, 64, 0
2, 69657, Note_on_c, 0, 82, 58
2, 69659, Note_on_c, 0, 60, 58
2, 69659, Note_on_c, 0, 74, 36
2, 69659, Note_on_c, 0, 65, 47
2, 69659, Note_on_c, 0, 77, 50
2, 69660, Note_on_c, 0, 54, 43
2, 69670, Control_c, 0, 64, 127
2, 69686, Note_on_c, 0, 82, 0
2, 69689, Note_on_c, 0, 77, 0
2, 69691, Note_on_c, 0, 65, 0
2, 69693, Note_on_c, 0, 60, 0
2, 69693, Note_on_c, 0, 74, 0
2, 69700, Note_on_c, 0, 54, 0
2, 69746, Control_c, 0, 64, 0
2, 69751, Note_on_c, 0, 79, 69
2, 69751, Note_on_c, 0, 64, 36
2, 69751, Note_on_c, 0, 59, 46
2, 69752, Note_on_c, 0, 70, 69
2, 69753, Note_on_c, 0, 53, 43
2, 69754, Note_on_c, 0, 75, 55
2, 69765, Control_c, 0, 64, 127
2, 69769, Note_on_c, 0, 79, 0
2, 69774, Note_on_c, 0, 75, 0
2, 69778, Note_on_c, 0, 70, 0
2, 69784, Note_on_c, 0, 64, 0
2, 69784, Note_on_c, 0, 53, 0
2, 69786, Note_on_c, 0, 59, 0
2, 69792, Control_c, 0, 64, 0
2, 69802, Control_c, 0, 64, 127
2, 69805, Note_on_c, 0, 75, 59
2, 69807, Note_on_c, 0, 70, 72
2, 69807, Note_on_c, 0, 53, 51
2, 69807, Note_on_c, 0, 64, 45
2, 69809, Note_on_c, 0, 59, 46
2, 69810, Note_on_c, 0, 67, 48
2, 69815, Note_on_c, 0, 67, 0
2, 69817, Note_on_c, 0, 75, 0
2, 69817, Note_on_c, 0, 70, 0
2, 69824, Note_on_c, 0, 64, 0
2, 69829, Note_on_c, 0, 59, 0
2, 69834, Note_on_c, 0, 53, 0
2, 69847, Control_c, 0, 64, 0
2, 69857, Note_on_c, 0, 70, 57
2, 69857, Note_on_c, 0, 67, 57
2, 69858, Note_on_c, 0, 63, 48
2, 69858, Note_on_c, 0, 59, 48
2, 69858, Note_on_c, 0, 53, 34
2, 69864, Control_c, 0, 64, 127
2, 69886, Note_on_c, 0, 63, 0
2, 69895, Note_on_c, 0, 59, 0
2, 69896, Note_on_c, 0, 67, 0
2, 69901, Note_on_c, 0, 70, 0
2, 69902, Note_on_c, 0, 53, 0
2, 69903, Note_on_c, 0, 63, 47
2, 69913, Note_on_c, 0, 63, 0
2, 69952, Note_on_c, 0, 67, 36
2, 69952, Control_c, 0, 64, 0
2, 69953, Note_on_c, 0, 52, 47
2, 69954, Note_on_c, 0, 62, 33
2, 69954, Note_on_c, 0, 57, 38
2, 69980, Control_c, 0, 64, 127
2, 70027, Note_on_c, 0, 57, 0
2, 70036, Note_on_c, 0, 62, 0
2, 70040, Note_on_c, 0, 52, 0
2, 70043, Control_c, 0, 64, 0
2, 70044, Note_on_c, 0, 43, 59
2, 70063, Control_c, 0, 64, 127
2, 70115, Note_on_c, 0, 67, 0
2, 70146, Note_on_c, 0, 67, 64
2, 70146, Note_on_c, 0, 56, 71
2, 70147, Note_on_c, 0, 63, 58
2, 70148, Note_on_c, 0, 60, 74
2, 70149, Control_c, 0, 64, 0
2, 70150, Note_on_c, 0, 55, 71
2, 70198, Note_on_c, 0, 43, 0
2, 70202, Control_c, 0, 64, 127
2, 70238, Note_on_c, 0, 43, 48
2, 70304, Note_on_c, 0, 60, 0
2, 70306, Note_on_c, 0, 56, 0
2, 70311, Note_on_c, 0, 55, 0
2, 70314, Note_on_c, 0, 67, 0
2, 70318, Note_on_c, 0, 50, 41
2, 70327, Note_on_c, 0, 63, 0
2, 70333, Note_on_c, 0, 50, 0
2, 70333, Note_on_c, 0, 67, 48
2, 70335, Note_on_c, 0, 62, 48
2, 70335, Note_on_c, 0, 57, 46
2, 70337, Note_on_c, 0, 52, 46
2, 70338, Control_c, 0, 64, 0
2, 70375, Note_on_c, 0, 43, 0
2, 70383, Control_c, 0, 64, 127
2, 70421, Note_on_c, 0, 43, 64
2, 70434, Note_on_c, 0, 57, 0
2, 70455, Note_on_c, 0, 52, 0
2, 70467, Note_on_c, 0, 62, 0
2, 70471, Note_on_c, 0, 67, 0
2, 70517, Note_on_c, 0, 67, 94
2, 70517, Note_on_c, 0, 72, 89
2, 70517, Note_on_c, 0, 55, 80
2, 70517, Note_on_c, 0, 62, 91
2, 70518, Control_c, 0, 64, 0
2, 70542, Control_c, 0, 64, 127
2, 70551, Note_on_c, 0, 43, 0
2, 70557, Note_on_c, 0, 72, 0
2, 70563, Note_on_c, 0, 67, 0
2, 70567, Note_on_c, 0, 62, 0
2, 70585, Note_on_c, 0, 55, 0
2, 70610, Note_on_c, 0, 67, 50
2, 70613, Note_on_c, 0, 62, 48
2, 70613, Control_c, 0, 64, 0
2, 70613, Note_on_c, 0, 43, 37
2, 70614, Note_on_c, 0, 57, 39
2, 70615, Note_on_c, 0, 52, 39
2, 70633, Control_c, 0, 64, 127
2, 70659, Note_on_c, 0, 62, 0
2, 70661, Note_on_c, 0, 67, 0
2, 70671, Note_on_c, 0, 57, 0
2, 70684, Note_on_c, 0, 52, 0
2, 70703, Note_on_c, 0, 64, 57
2, 70705, Note_on_c, 0, 55, 73
2, 70705, Note_on_c, 0, 60, 78
2, 70710, Control_c, 0, 64, 0
2, 70742, Control_c, 0, 64, 127
2, 70757, Note_on_c, 0, 43, 0
2, 70792, Note_on_c, 0, 43, 53
2, 70802, Note_on_c, 0, 55, 0
2, 70810, Note_on_c, 0, 43, 0
2, 70817, Note_on_c, 0, 60, 0
2, 70834, Note_on_c, 0, 64, 0
2, 70834, Control_c, 0, 64, 0
2, 70842, Control_c, 0, 64, 127
2, 70851, Note_on_c, 0, 62, 50
2, 70851, Note_on_c, 0, 56, 50
2, 70853, Note_on_c, 0, 59, 44
2, 70854, Note_on_c, 0, 53, 30
2, 70854, Note_on_c, 0, 44, 18
2, 70856, Note_on_c, 0, 43, 34
2, 70866, Note_on_c, 0, 43, 0
2, 70868, Note_on_c, 0, 59, 0
2, 70873, Note_on_c, 0, 44, 0
2, 70882, Note_on_c, 0, 53, 0
2, 70884, Note_on_c, 0, 56, 0
2, 70885, Note_on_c, 0, 62, 0
2, 70886, Control_c, 0, 64, 0
2, 70891, Note_on_c, 0, 60, 57
2, 70893, Note_on_c, 0, 45, 39
2, 70893, Note_on_c, 0, 55, 45
2, 70911, Control_c, 0, 64, 127
2, 70920, Note_on_c, 0, 45, 0
2, 70922, Note_on_c, 0, 55, 0
2, 70932, Note_on_c, 0, 60, 0
2, 70982, Note_on_c, 0, 55, 41
2, 70983, Note_on_c, 0, 67, 41
2, 70984, Note_on_c, 0, 72, 55
2, 70986, Note_on_c, 0, 64, 27
2, 70986, Note_on_c, 0, 60, 31
2, 71019, Note_on_c, 0, 72, 0
2, 71026, Note_on_c, 0, 67, 0
2, 71028, Note_on_c, 0, 55, 0
2, 71028, Note_on_c, 0, 64, 0
2, 71046, Note_on_c, 0, 60, 0
2, 71074, Note_on_c, 0, 74, 38
2, 71075, Note_on_c, 0, 68, 37
2, 71077, Note_on_c, 0, 64, 37
2, 71077, Note_on_c, 0, 60, 42
2, 71077, Note_on_c, 0, 71, 36
2, 71078, Control_c, 0, 64, 0
2, 71079, Note_on_c, 0, 54, 48
2, 71090, Note_on_c, 0, 60, 0
2, 71097, Note_on_c, 0, 54, 0
2, 71100, Control_c, 0, 64, 127
2, 71125, Note_on_c, 0, 64, 0
2, 71136, Note_on_c, 0, 68, 0
2, 71140, Note_on_c, 0, 71, 0
2, 71148, Note_on_c, 0, 74, 0
2, 71168, Control_c, 0, 64, 0
2, 71169, Note_on_c, 0, 38, 59
2, 71175, Control_c, 0, 64, 127
2, 71182, Note_on_c, 0, 38, 0
2, 71263, Note_on_c, 0, 86, 65
2, 71263, Note_on_c, 0, 54, 43
2, 71263, Note_on_c, 0, 60, 36
2, 71263, Note_on_c, 0, 64, 32
2, 71268, Note_on_c, 0, 86, 0
2, 71268, Control_c, 0, 64, 0
2, 71269, Note_on_c, 0, 87, 60
2, 71282, Note_on_c, 0, 87, 0
2, 71282, Note_on_c, 0, 86, 53
2, 71292, Note_on_c, 0, 64, 0
2, 71298, Note_on_c, 0, 84, 66
2, 71300, Note_on_c, 0, 86, 0
2, 71317, Note_on_c, 0, 84, 0
2, 71317, Note_on_c, 0, 81, 62
2, 71323, Note_on_c, 0, 81, 0
2, 71340, Note_on_c, 0, 60, 0
2, 71349, Note_on_c, 0, 60, 22
2, 71350, Note_on_c, 0, 78, 63
2, 71352, Note_on_c, 0, 64, 36
2, 71370, Note_on_c, 0, 78, 0
2, 71377, Note_on_c, 0, 77, 62
2, 71395, Note_on_c, 0, 77, 0
2, 71403, Note_on_c, 0, 54, 0
2, 71404, Note_on_c, 0, 75, 69
2, 71408, Note_on_c, 0, 64, 0
2, 71419, Note_on_c, 0, 60, 0
2, 71421, Note_on_c, 0, 75, 0
2, 71429, Note_on_c, 0, 72, 37
2, 71432, Note_on_c, 0, 65, 41
2, 71434, Note_on_c, 0, 60, 13
2, 71434, Note_on_c, 0, 55, 38
2, 71442, Note_on_c, 0, 72, 0
2, 71455, Note_on_c, 0, 65, 0
2, 71459, Note_on_c, 0, 69, 65
2, 71464, Note_on_c, 0, 60, 0
2, 71473, Note_on_c, 0, 55, 0
2, 71474, Note_on_c, 0, 69, 0
2, 71496, Note_on_c, 0, 72, 66
2, 71498, Note_on_c, 0, 66, 65
2, 71513, Note_on_c, 0, 72, 0
2, 71518, Note_on_c, 0, 66, 0
2, 71524, Note_on_c, 0, 55, 38
2, 71536, Note_on_c, 0, 71, 58
2, 71537, Note_on_c, 0, 65, 53
2, 71547, Note_on_c, 0, 71, 0
2, 71548, Note_on_c, 0, 65, 0
2, 71585, Note_on_c, 0, 69, 68
2, 71586, Note_on_c, 0, 65, 68
2, 71598, Note_on_c, 0, 65, 0
2, 71598, Note_on_c, 0, 69, 0
2, 71615, Note_on_c, 0, 55, 0
2, 71624, Note_on_c, 0, 43, 32
2, 71624, Note_on_c, 0, 67, 46
2, 71629, Note_on_c, 0, 64, 57
2, 71645, Note_on_c, 0, 64, 0
2, 71650, Note_on_c, 0, 67, 0
2, 71655, Note_on_c, 0, 60, 60
2, 71670, Note_on_c, 0, 60, 0
2, 71677, Note_on_c, 0, 55, 51
2, 71689, Control_c, 0, 64, 127
2, 71697, Note_on_c, 0, 55, 0
2, 71702, Note_on_c, 0, 60, 64
2, 71704, Note_on_c, 0, 53, 62
2, 71720, Note_on_c, 0, 53, 0
2, 71721, Note_on_c, 0, 60, 0
2, 71730, Note_on_c, 0, 43, 0
2, 71730, Note_on_c, 0, 50, 38
2, 71734, Control_c, 0, 64, 0
2, 71742, Control_c, 0, 64, 127
2, 71746, Note_on_c, 0, 50, 0
2, 71750, Note_on_c, 0, 51, 60
2, 71756, Control_c, 0, 64, 0
2, 71762, Note_on_c, 0, 51, 0
2, 71771, Note_on_c, 0, 52, 58
2, 71784, Note_on_c, 0, 52, 0
2, 71795, Control_c, 0, 64, 127
2, 71796, Note_on_c, 0, 25, 40
2, 71797, Note_on_c, 0, 37, 26
2, 71798, Note_on_c, 0, 53, 66
2, 71813, Note_on_c, 0, 53, 0
2, 71813, Note_on_c, 0, 37, 0
2, 71814, Note_on_c, 0, 25, 0
2, 71820, Note_on_c, 0, 52, 68
2, 71821, Control_c, 0, 64, 0
2, 71825, Note_on_c, 0, 36, 44
2, 71828, Note_on_c, 0, 24, 49
2, 71848, Note_on_c, 0, 24, 0
2, 71849, Control_c, 0, 64, 127
2, 71858, Note_on_c, 0, 36, 0
2, 71869, Note_on_c, 0, 52, 0
2, 71921, Note_on_c, 0, 67, 68
2, 71923, Note_on_c, 0, 62, 71
2, 71923, Note_on_c, 0, 57, 70
2, 71924, Control_c, 0, 64, 0
2, 71924, Note_on_c, 0, 52, 57
2, 71948, Control_c, 0, 64, 127
2, 71974, Note_on_c, 0, 62, 0
2, 71975, Note_on_c, 0, 67, 0
2, 71979, Note_on_c, 0, 57, 0
2, 72000, Note_on_c, 0, 52, 0
2, 72020, Control_c, 0, 64, 0
2, 72022, Note_on_c, 0, 60, 54
2, 72023, Note_on_c, 0, 57, 44
2, 72024, Note_on_c, 0, 55, 36
2, 72025, Note_on_c, 0, 48, 48
2, 72034, Control_c, 0, 64, 127
2, 72050, Note_on_c, 0, 55, 0
2, 72052, Note_on_c, 0, 48, 0
2, 72056, Note_on_c, 0, 57, 0
2, 72060, Note_on_c, 0, 60, 0
2, 72118, Note_on_c, 0, 74, 69
2, 72119, Note_on_c, 0, 64, 66
2, 72119, Note_on_c, 0, 69, 76
2, 72121, Note_on_c, 0, 58, 48
2, 72126, Note_on_c, 0, 58, 0
2, 72127, Control_c, 0, 64, 0
2, 72131, Control_c, 0, 64, 127
2, 72142, Note_on_c, 0, 64, 0
2, 72157, Note_on_c, 0, 69, 0
2, 72164, Note_on_c, 0, 74, 0
2, 72170, Control_c, 0, 64, 0
2, 72173, Note_on_c, 0, 63, 52
2, 72174, Note_on_c, 0, 57, 59
2, 72175, Note_on_c, 0, 71, 76
2, 72175, Note_on_c, 0, 67, 61
2, 72182, Note_on_c, 0, 72, 31
2, 72183, Control_c, 0, 64, 127
2, 72202, Note_on_c, 0, 67, 0
2, 72204, Note_on_c, 0, 57, 0
2, 72207, Note_on_c, 0, 72, 0
2, 72208, Note_on_c, 0, 71, 0
2, 72217, Note_on_c, 0, 63, 0
2, 72223, Note_on_c, 0, 72, 54
2, 72224, Note_on_c, 0, 69, 60
2, 72225, Note_on_c, 0, 56, 51
2, 72225, Note_on_c, 0, 62, 53
2, 72225, Control_c, 0, 64, 0
2, 72256, Control_c, 0, 64, 127
2, 72276, Note_on_c, 0, 69, 0
2, 72281, Note_on_c, 0, 72, 0
2, 72299, Note_on_c, 0, 62, 0
2, 72319, Control_c, 0, 64, 0
2, 72320, Note_on_c, 0, 62, 36
2, 72320, Note_on_c, 0, 84, 66
2, 72321, Note_on_c, 0, 67, 50
2, 72322, Note_on_c, 0, 72, 54
2, 72337, Control_c, 0, 64, 127
2, 72370, Note_on_c, 0, 62, 0
2, 72374, Note_on_c, 0, 67, 0
2, 72376, Note_on_c, 0, 72, 0
2, 72383, Note_on_c, 0, 84, 0
2, 72395, Note_on_c, 0, 56, 0
2, 72414, Note_on_c, 0, 88, 57
2, 72415, Note_on_c, 0, 76, 44
2, 72417, Control_c, 0, 64, 0
2, 72418, Note_on_c, 0, 65, 29
2, 72419, Note_on_c, 0, 60, 35
2, 72419, Note_on_c, 0, 61, 25
2, 72421, Note_on_c, 0, 55, 31
2, 72442, Control_c, 0, 64, 127
2, 72449, Note_on_c, 0, 76, 0
2, 72459, Note_on_c, 0, 88, 0
2, 72474, Note_on_c, 0, 81, 73
2, 72474, Note_on_c, 0, 93, 64
2, 72476, Note_on_c, 0, 91, 51
2, 72478, Note_on_c, 0, 60, 0
2, 72481, Note_on_c, 0, 93, 0
2, 72481, Note_on_c, 0, 91, 0
2, 72482, Note_on_c, 0, 81, 0
2, 72484, Note_on_c, 0, 65, 0
2, 72486, Note_on_c, 0, 55, 0
2, 72489, Note_on_c, 0, 61, 0
2, 72509, Note_on_c, 0, 61, 42
2, 72510, Control_c, 0, 64, 0
2, 72510, Note_on_c, 0, 65, 58
2, 72512, Note_on_c, 0, 60, 50
2, 72512, Note_on_c, 0, 84, 80
2, 72513, Note_on_c, 0, 55, 38
2, 72514, Note_on_c, 0, 96, 64
2, 72531, Control_c, 0, 64, 127
2, 72533, Note_on_c, 0, 96, 0
2, 72544, Note_on_c, 0, 84, 0
2, 72567, Note_on_c, 0, 55, 0
2, 72572, Note_on_c, 0, 65, 0
2, 72572, Note_on_c, 0, 99, 76
2, 72573, Note_on_c, 0, 87, 76
2, 72579, Note_on_c, 0, 60, 0
2, 72590, Note_on_c, 0, 61, 0
2, 72595, Note_on_c, 0, 99, 0
2, 72595, Note_on_c, 0, 87, 0
2, 72605, Note_on_c, 0, 54, 34
2, 72606, Note_on_c, 0, 98, 59
2, 72608, Note_on_c, 0, 64, 27
2, 72609, Note_on_c, 0, 86, 24
2, 72609, Note_on_c, 0, 60, 41
2, 72609, Control_c, 0, 64, 0
2, 72615, Note_on_c, 0, 97, 26
2, 72621, Note_on_c, 0, 97, 0
2, 72622, Note_on_c, 0, 98, 0
2, 72622, Note_on_c, 0, 86, 0
2, 72637, Note_on_c, 0, 96, 60
2, 72640, Note_on_c, 0, 84, 46
2, 72647, Control_c, 0, 64, 127
2, 72671, Note_on_c, 0, 96, 0
2, 72672, Note_on_c, 0, 84, 0
2, 72682, Note_on_c, 0, 64, 0
2, 72683, Note_on_c, 0, 54, 0
2, 72693, Note_on_c, 0, 60, 0
2, 72701, Note_on_c, 0, 60, 17
2, 72702, Note_on_c, 0, 93, 42
2, 72702, Control_c, 0, 64, 0
2, 72704, Note_on_c, 0, 81, 36
2, 72704, Note_on_c, 0, 64, 22
2, 72705, Note_on_c, 0, 54, 33
2, 72719, Control_c, 0, 64, 127
2, 72735, Note_on_c, 0, 81, 0
2, 72742, Note_on_c, 0, 93, 0
2, 72751, Note_on_c, 0, 60, 0
2, 72759, Note_on_c, 0, 64, 0
2, 72767, Note_on_c, 0, 96, 72
2, 72768, Note_on_c, 0, 84, 60
2, 72771, Note_on_c, 0, 54, 0
2, 72797, Note_on_c, 0, 64, 32
2, 72798, Control_c, 0, 64, 0
2, 72799, Note_on_c, 0, 53, 36
2, 72800, Note_on_c, 0, 59, 45
2, 72803, Note_on_c, 0, 96, 0
2, 72810, Note_on_c, 0, 64, 0
2, 72810, Control_c, 0, 64, 127
2, 72813, Note_on_c, 0, 59, 0
2, 72813, Note_on_c, 0, 84, 0
2, 72819, Note_on_c, 0, 53, 0
2, 72864, Note_on_c, 0, 43, 47
2, 72895, Note_on_c, 0, 63, 50
2, 72896, Note_on_c, 0, 67, 49
2, 72898, Note_on_c, 0, 59, 36
2, 72898, Note_on_c, 0, 55, 42
2, 72899, Control_c, 0, 64, 0
2, 72901, Note_on_c, 0, 60, 25
2, 72902, Note_on_c, 0, 63, 0
2, 72910, Note_on_c, 0, 64, 26
2, 72915, Note_on_c, 0, 60, 0
2, 72920, Note_on_c, 0, 59, 0
2, 72927, Note_on_c, 0, 64, 0
2, 72928, Note_on_c, 0, 67, 0
2, 72935, Control_c, 0, 64, 127
2, 72946, Note_on_c, 0, 55, 0
2, 72957, Note_on_c, 0, 50, 32
2, 72959, Note_on_c, 0, 69, 71
2, 72961, Note_on_c, 0, 60, 62
2, 72961, Note_on_c, 0, 64, 62
2, 72974, Note_on_c, 0, 69, 0
2, 72975, Note_on_c, 0, 64, 0
2, 72976, Note_on_c, 0, 60, 0
2, 72989, Note_on_c, 0, 50, 0
2, 72995, Note_on_c, 0, 67, 62
2, 72996, Control_c, 0, 64, 0
2, 72997, Note_on_c, 0, 52, 41
2, 72998, Note_on_c, 0, 62, 51
2, 73002, Note_on_c, 0, 57, 24
2, 73003, Note_on_c, 0, 59, 22
2, 73011, Note_on_c, 0, 43, 0
2, 73023, Note_on_c, 0, 43, 57
2, 73025, Note_on_c, 0, 59, 0
2, 73039, Control_c, 0, 64, 127
2, 73048, Note_on_c, 0, 62, 0
2, 73051, Note_on_c, 0, 67, 0
2, 73057, Note_on_c, 0, 57, 0
2, 73089, Note_on_c, 0, 52, 0
2, 73093, Note_on_c, 0, 64, 35
2, 73094, Note_on_c, 0, 60, 50
2, 73094, Note_on_c, 0, 55, 37
2, 73099, Control_c, 0, 64, 0
2, 73102, Note_on_c, 0, 43, 0
2, 73129, Control_c, 0, 64, 127
2, 73156, Note_on_c, 0, 60, 0
2, 73156, Note_on_c, 0, 43, 90
2, 73158, Note_on_c, 0, 64, 0
2, 73168, Note_on_c, 0, 55, 0
2, 73209, Note_on_c, 0, 43, 0
2, 73258, Note_on_c, 0, 60, 83
2, 73259, Control_c, 0, 64, 0
2, 73260, Note_on_c, 0, 42, 83
2, 73260, Note_on_c, 0, 56, 76
2, 73260, Note_on_c, 0, 30, 77
2, 73261, Note_on_c, 0, 52, 77
2, 73295, Control_c, 0, 64, 127
2, 73343, Note_on_c, 0, 52, 0
2, 73354, Note_on_c, 0, 42, 0
2, 73354, Note_on_c, 0, 30, 0
2, 73364, Note_on_c, 0, 60, 0
2, 73365, Note_on_c, 0, 36, 32
2, 73373, Note_on_c, 0, 56, 0
2, 73383, Note_on_c, 0, 36, 0
2, 73394, Control_c, 0, 64, 0
2, 73394, Note_on_c, 0, 53, 58
2, 73394, Note_on_c, 0, 57, 60
2, 73394, Note_on_c, 0, 41, 53
2, 73395, Note_on_c, 0, 60, 57
2, 73396, Note_on_c, 0, 29, 42
2, 73417, Note_on_c, 0, 53, 0
2, 73417, Control_c, 0, 64, 127
2, 73420, Note_on_c, 0, 29, 0
2, 73427, Note_on_c, 0, 57, 0
2, 73431, Note_on_c, 0, 41, 0
2, 73431, Note_on_c, 0, 60, 0
2, 73492, Note_on_c, 0, 64, 51
2, 73494, Note_on_c, 0, 57, 48
2, 73494, Note_on_c, 0, 53, 35
2, 73495, Note_on_c, 0, 60, 51
2, 73520, Note_on_c, 0, 64, 0
2, 73525, Note_on_c, 0, 60, 0
2, 73529, Note_on_c, 0, 57, 0
2, 73529, Note_on_c, 0, 69, 94
2, 73535, Note_on_c, 0, 53, 0
2, 73543, Note_on_c, 0, 69, 0
2, 73558, Note_on_c, 0, 72, 94
2, 73577, Note_on_c, 0, 72, 0
2, 73589, Note_on_c, 0, 72, 65
2, 73597, Control_c, 0, 64, 0
2, 73598, Note_on_c, 0, 69, 25
2, 73598, Note_on_c, 0, 64, 18
2, 73607, Control_c, 0, 64, 127
2, 73636, Note_on_c, 0, 69, 0
2, 73638, Note_on_c, 0, 64, 0
2, 73646, Note_on_c, 0, 72, 0
2, 73659, Note_on_c, 0, 64, 57
2, 73659, Note_on_c, 0, 60, 58
2, 73659, Note_on_c, 0, 69, 43
2, 73687, Control_c, 0, 64, 0
2, 73692, Note_on_c, 0, 57, 49
2, 73701, Control_c, 0, 64, 127
2, 73721, Note_on_c, 0, 48, 58
2, 73722, Note_on_c, 0, 57, 0
2, 73738, Note_on_c, 0, 69, 0
2, 73738, Note_on_c, 0, 60, 0
2, 73743, Note_on_c, 0, 64, 0
2, 73750, Note_on_c, 0, 48, 0
2, 73751, Note_on_c, 0, 41, 68
2, 73765, Note_on_c, 0, 41, 0
2, 73783, Control_c, 0, 64, 0
2, 73785, Note_on_c, 0, 62, 63
2, 73786, Note_on_c, 0, 67, 54
2, 73786, Note_on_c, 0, 40, 70
2, 73787, Note_on_c, 0, 71, 51
2, 73807, Control_c, 0, 64, 127
2, 73816, Note_on_c, 0, 71, 0
2, 73816, Note_on_c, 0, 67, 0
2, 73831, Note_on_c, 0, 62, 0
2, 73878, Note_on_c, 0, 47, 32
2, 73880, Note_on_c, 0, 55, 42
2, 73882, Note_on_c, 0, 67, 48
2, 73884, Note_on_c, 0, 62, 41
2, 73885, Note_on_c, 0, 59, 41
2, 73890, Note_on_c, 0, 47, 0
2, 73891, Note_on_c, 0, 55, 0
2, 73897, Note_on_c, 0, 40, 0
2, 73902, Note_on_c, 0, 59, 0
2, 73908, Note_on_c, 0, 67, 0
2, 73911, Note_on_c, 0, 62, 0
2, 73954, Note_on_c, 0, 69, 71
2, 73955, Note_on_c, 0, 60, 72
2, 73956, Note_on_c, 0, 38, 41
2, 73957, Note_on_c, 0, 45, 45
2, 73957, Note_on_c, 0, 65, 69
2, 73958, Note_on_c, 0, 53, 51
2, 73964, Control_c, 0, 64, 0
2, 73991, Control_c, 0, 64, 127
2, 73996, Note_on_c, 0, 38, 0
2, 73998, Note_on_c, 0, 60, 0
2, 74002, Note_on_c, 0, 45, 0
2, 74008, Note_on_c, 0, 65, 0
2, 74009, Note_on_c, 0, 53, 0
2, 74010, Note_on_c, 0, 69, 0
2, 74056, Note_on_c, 0, 79, 82
2, 74056, Note_on_c, 0, 64, 76
2, 74057, Note_on_c, 0, 69, 84
2, 74057, Note_on_c, 0, 72, 80
2, 74077, Note_on_c, 0, 64, 0
2, 74078, Note_on_c, 0, 72, 0
2, 74080, Note_on_c, 0, 69, 0
2, 74080, Note_on_c, 0, 79, 0
2, 74088, Note_on_c, 0, 64, 61
2, 74090, Note_on_c, 0, 79, 64
2, 74092, Note_on_c, 0, 69, 45
2, 74093, Note_on_c, 0, 72, 61
2, 74106, Note_on_c, 0, 64, 0
2, 74107, Note_on_c, 0, 79, 0
2, 74108, Note_on_c, 0, 69, 0
2, 74108, Note_on_c, 0, 72, 0
2, 74122, Note_on_c, 0, 77, 64
2, 74125, Note_on_c, 0, 69, 46
2, 74126, Note_on_c, 0, 72, 49
2, 74128, Note_on_c, 0, 62, 63
2, 74135, Note_on_c, 0, 62, 0
2, 74136, Note_on_c, 0, 69, 0
2, 74138, Note_on_c, 0, 72, 0
2, 74139, Note_on_c, 0, 77, 0
2, 74156, Note_on_c, 0, 62, 53
2, 74156, Note_on_c, 0, 77, 64
2, 74157, Note_on_c, 0, 72, 69
2, 74157, Note_on_c, 0, 69, 64
2, 74170, Note_on_c, 0, 72, 0
2, 74170, Note_on_c, 0, 77, 0
2, 74173, Note_on_c, 0, 69, 0
2, 74180, Note_on_c, 0, 62, 0
2, 74181, Control_c, 0, 64, 0
2, 74188, Note_on_c, 0, 76, 53
2, 74191, Note_on_c, 0, 67, 48
2, 74192, Note_on_c, 0, 60, 55
2, 74200, Control_c, 0, 64, 127
2, 74201, Note_on_c, 0, 60, 0
2, 74205, Note_on_c, 0, 67, 0
2, 74208, Note_on_c, 0, 76, 0
2, 74221, Note_on_c, 0, 76, 43
2, 74223, Note_on_c, 0, 60, 58
2, 74224, Note_on_c, 0, 65, 49
2, 74225, Note_on_c, 0, 69, 37
2, 74230, Note_on_c, 0, 76, 0
2, 74231, Note_on_c, 0, 69, 0
2, 74234, Note_on_c, 0, 65, 0
2, 74238, Note_on_c, 0, 60, 0
2, 74246, Control_c, 0, 64, 0
2, 74253, Note_on_c, 0, 72, 55
2, 74255, Note_on_c, 0, 65, 53
2, 74256, Control_c, 0, 64, 127
2, 74257, Note_on_c, 0, 57, 48
2, 74266, Note_on_c, 0, 65, 0
2, 74270, Note_on_c, 0, 72, 0
2, 74273, Note_on_c, 0, 57, 0
2, 74286, Note_on_c, 0, 72, 50
2, 74289, Note_on_c, 0, 65, 50
2, 74289, Note_on_c, 0, 62, 36
2, 74290, Note_on_c, 0, 57, 34
2, 74300, Note_on_c, 0, 62, 0
2, 74300, Note_on_c, 0, 65, 0
2, 74308, Note_on_c, 0, 72, 0
2, 74317, Note_on_c, 0, 62, 40
2, 74318, Note_on_c, 0, 69, 54
2, 74320, Note_on_c, 0, 57, 0
2, 74321, Note_on_c, 0, 65, 37
2, 74322, Note_on_c, 0, 53, 41
2, 74329, Note_on_c, 0, 65, 0
2, 74330, Note_on_c, 0, 53, 0
2, 74331, Note_on_c, 0, 62, 0
2, 74338, Note_on_c, 0, 69, 0
2, 74350, Note_on_c, 0, 62, 37
2, 74350, Note_on_c, 0, 69, 64
2, 74352, Note_on_c, 0, 65, 46
2, 74358, Note_on_c, 0, 65, 0
2, 74359, Note_on_c, 0, 53, 31
2, 74361, Note_on_c, 0, 69, 0
2, 74361, Note_on_c, 0, 62, 0
2, 74372, Note_on_c, 0, 53, 0
2, 74375, Control_c, 0, 64, 0
2, 74380, Note_on_c, 0, 71, 66
2, 74382, Note_on_c, 0, 67, 58
2, 74383, Note_on_c, 0, 62, 42
2, 74387, Note_on_c, 0, 64, 30
2, 74396, Note_on_c, 0, 67, 0
2, 74398, Note_on_c, 0, 64, 0
2, 74399, Note_on_c, 0, 62, 0
2, 74399, Note_on_c, 0, 71, 0
2, 74402, Control_c, 0, 64, 127
2, 74410, Note_on_c, 0, 71, 58
2, 74411, Note_on_c, 0, 62, 39
2, 74415, Note_on_c, 0, 64, 45
2, 74415, Note_on_c, 0, 55, 36
2, 74420, Note_on_c, 0, 64, 0
2, 74424, Note_on_c, 0, 71, 0
2, 74425, Note_on_c, 0, 62, 0
2, 74434, Note_on_c, 0, 55, 0
2, 74443, Note_on_c, 0, 64, 65
2, 74444, Note_on_c, 0, 67, 62
2, 74445, Note_on_c, 0, 59, 63
2, 74445, Control_c, 0, 64, 0
2, 74451, Note_on_c, 0, 52, 35
2, 74476, Control_c, 0, 64, 127
2, 74497, Note_on_c, 0, 52, 0
2, 74504, Note_on_c, 0, 64, 0
2, 74508, Note_on_c, 0, 59, 0
2, 74520, Note_on_c, 0, 67, 0
2, 74521, Note_on_c, 0, 59, 44
2, 74521, Note_on_c, 0, 64, 33
2, 74531, Note_on_c, 0, 59, 0
2, 74533, Note_on_c, 0, 64, 0
2, 74549, Note_on_c, 0, 59, 42
2, 74550, Note_on_c, 0, 64, 38
2, 74557, Note_on_c, 0, 59, 0
2, 74564, Note_on_c, 0, 64, 0
2, 74581, Control_c, 0, 64, 0
2, 74582, Note_on_c, 0, 64, 47
2, 74583, Note_on_c, 0, 69, 58
2, 74584, Note_on_c, 0, 57, 39
2, 74586, Note_on_c, 0, 41, 24
2, 74590, Note_on_c, 0, 57, 0
2, 74598, Note_on_c, 0, 64, 0
2, 74600, Note_on_c, 0, 69, 0
2, 74609, Control_c, 0, 64, 127
2, 74613, Note_on_c, 0, 69, 48
2, 74613, Note_on_c, 0, 64, 55
2, 74623, Note_on_c, 0, 69, 0
2, 74625, Note_on_c, 0, 64, 0
2, 74638, Control_c, 0, 64, 0
2, 74641, Note_on_c, 0, 64, 48
2, 74644, Note_on_c, 0, 60, 58
2, 74647, Note_on_c, 0, 55, 57
2, 74647, Note_on_c, 0, 57, 46
2, 74649, Note_on_c, 0, 48, 33
2, 74657, Note_on_c, 0, 48, 0
2, 74708, Control_c, 0, 64, 127
2, 74715, Note_on_c, 0, 48, 53
2, 74721, Note_on_c, 0, 48, 0
2, 74731, Control_c, 0, 64, 0
2, 74749, Control_c, 0, 64, 127
2, 74765, Note_on_c, 0, 55, 0
2, 74766, Note_on_c, 0, 57, 0
2, 74770, Note_on_c, 0, 60, 0
2, 74791, Note_on_c, 0, 60, 46
2, 74792, Control_c, 0, 64, 0
2, 74792, Note_on_c, 0, 57, 32
2, 74792, Note_on_c, 0, 55, 40
2, 74847, Note_on_c, 0, 48, 54
2, 74852, Note_on_c, 0, 48, 0
2, 74899, Note_on_c, 0, 48, 65
2, 74908, Control_c, 0, 64, 127
2, 74910, Note_on_c, 0, 48, 0
2, 74924, Note_on_c, 0, 48, 65
2, 74941, Note_on_c, 0, 48, 0
2, 74941, Note_on_c, 0, 60, 0
2, 74941, Note_on_c, 0, 55, 0
2, 74942, Note_on_c, 0, 57, 0
2, 74943, Note_on_c, 0, 64, 0
2, 74966, Note_on_c, 0, 48, 60
2, 74979, Note_on_c, 0, 41, 0
2, 74994, Note_on_c, 0, 41, 61
2, 74995, Note_on_c, 0, 60, 62
2, 74996, Note_on_c, 0, 57, 54
2, 74996, Note_on_c, 0, 55, 47
2, 74997, Control_c, 0, 64, 0
2, 75017, Control_c, 0, 64, 127
2, 75019, Note_on_c, 0, 55, 0
2, 75025, Note_on_c, 0, 57, 0
2, 75029, Note_on_c, 0, 60, 0
2, 75048, Note_on_c, 0, 41, 0
2, 75057, Note_on_c, 0, 48, 0
2, 75095, Note_on_c, 0, 72, 77
2, 75095, Note_on_c, 0, 57, 73
2, 75095, Note_on_c, 0, 67, 74
2, 75096, Note_on_c, 0, 62, 74
2, 75121, Note_on_c, 0, 62, 0
2, 75126, Note_on_c, 0, 67, 0
2, 75129, Note_on_c, 0, 72, 0
2, 75132, Note_on_c, 0, 57, 0
2, 75162, Control_c, 0, 64, 0
2, 75165, Note_on_c, 0, 60, 79
2, 75165, Note_on_c, 0, 76, 78
2, 75167, Note_on_c, 0, 69, 73
2, 75167, Note_on_c, 0, 72, 76
2, 75169, Note_on_c, 0, 68, 31
2, 75170, Note_on_c, 0, 64, 60
2, 75174, Control_c, 0, 64, 127
2, 75186, Note_on_c, 0, 68, 0
2, 75188, Note_on_c, 0, 72, 0
2, 75192, Note_on_c, 0, 69, 0
2, 75193, Note_on_c, 0, 60, 0
2, 75193, Note_on_c, 0, 64, 0
2, 75195, Note_on_c, 0, 76, 0
2, 75229, Note_on_c, 0, 72, 58
2, 75229, Note_on_c, 0, 57, 57
2, 75230, Note_on_c, 0, 64, 65
2, 75231, Note_on_c, 0, 69, 60
2, 75245, Note_on_c, 0, 69, 0
2, 75247, Note_on_c, 0, 72, 0
2, 75250, Note_on_c, 0, 64, 0
2, 75274, Note_on_c, 0, 57, 0
2, 75293, Note_on_c, 0, 69, 53
2, 75293, Note_on_c, 0, 53, 37
2, 75294, Note_on_c, 0, 64, 39
2, 75295, Note_on_c, 0, 60, 43
2, 75299, Note_on_c, 0, 53, 0
2, 75300, Note_on_c, 0, 69, 0
2, 75300, Note_on_c, 0, 64, 0
2, 75300, Note_on_c, 0, 60, 0
2, 75351, Note_on_c, 0, 60, 64
2, 75351, Note_on_c, 0, 41, 45
2, 75353, Note_on_c, 0, 55, 41
2, 75353, Note_on_c, 0, 48, 44
2, 75374, Note_on_c, 0, 55, 0
2, 75376, Note_on_c, 0, 48, 0
2, 75380, Note_on_c, 0, 41, 0
2, 75384, Note_on_c, 0, 60, 0
2, 75393, Control_c, 0, 64, 0
2, 75395, Note_on_c, 0, 59, 50
2, 75397, Note_on_c, 0, 55, 51
2, 75398, Note_on_c, 0, 47, 47
2, 75401, Note_on_c, 0, 40, 39
2, 75421, Control_c, 0, 64, 127
2, 75424, Note_on_c, 0, 55, 0
2, 75429, Note_on_c, 0, 59, 0
2, 75459, Note_on_c, 0, 40, 0
2, 75463, Note_on_c, 0, 55, 63
2, 75463, Note_on_c, 0, 62, 71
2, 75464, Note_on_c, 0, 59, 67
2, 75464, Note_on_c, 0, 67, 62
2, 75469, Note_on_c, 0, 47, 0
2, 75470, Note_on_c, 0, 59, 0
2, 75477, Note_on_c, 0, 62, 0
2, 75478, Note_on_c, 0, 55, 0
2, 75480, Note_on_c, 0, 67, 0
2, 75503, Note_on_c, 0, 55, 66
2, 75504, Note_on_c, 0, 67, 70
2, 75504, Note_on_c, 0, 62, 71
2, 75505, Note_on_c, 0, 71, 79
2, 75506, Note_on_c, 0, 64, 65
2, 75508, Control_c, 0, 64, 0
2, 75512, Control_c, 0, 64, 127
2, 75517, Note_on_c, 0, 55, 0
2, 75535, Note_on_c, 0, 64, 0
2, 75536, Note_on_c, 0, 62, 0
2, 75540, Note_on_c, 0, 67, 0
2, 75563, Note_on_c, 0, 71, 0
2, 75572, Note_on_c, 0, 60, 88
2, 75573, Note_on_c, 0, 64, 77
2, 75573, Note_on_c, 0, 69, 74
2, 75588, Control_c, 0, 64, 0
2, 75616, Control_c, 0, 64, 127
2, 75671, Note_on_c, 0, 38, 88
2, 75671, Note_on_c, 0, 45, 90
2, 75676, Control_c, 0, 64, 0
2, 75701, Control_c, 0, 64, 127
2, 75780, Note_on_c, 0, 69, 0
2, 75790, Note_on_c, 0, 64, 0
2, 75792, Note_on_c, 0, 60, 0
2, 75818, Note_on_c, 0, 69, 70
2, 75818, Note_on_c, 0, 60, 69
2, 75823, Note_on_c, 0, 64, 36
2, 75829, Note_on_c, 0, 64, 0
2, 75831, Note_on_c, 0, 60, 0
2, 75834, Note_on_c, 0, 38, 0
2, 75837, Note_on_c, 0, 69, 0
2, 75850, Note_on_c, 0, 45, 0
2, 75917, Note_on_c, 0, 45, 53
2, 75917, Note_on_c, 0, 38, 57
2, 75918, Control_c, 0, 64, 0
2, 75919, Note_on_c, 0, 62, 79
2, 75919, Note_on_c, 0, 72, 79
2, 75925, Control_c, 0, 64, 127
2, 75934, Note_on_c, 0, 38, 0
2, 75937, Note_on_c, 0, 45, 0
2, 75949, Note_on_c, 0, 72, 0
2, 75956, Note_on_c, 0, 62, 0
2, 76016, Note_on_c, 0, 40, 41
2, 76017, Control_c, 0, 64, 0
2, 76018, Note_on_c, 0, 47, 37
2, 76021, Note_on_c, 0, 67, 49
2, 76021, Note_on_c, 0, 55, 57
2, 76021, Note_on_c, 0, 71, 60
2, 76023, Note_on_c, 0, 59, 51
2, 76023, Note_on_c, 0, 64, 46
2, 76056, Control_c, 0, 64, 127
2, 76075, Note_on_c, 0, 55, 0
2, 76077, Note_on_c, 0, 47, 0
2, 76077, Note_on_c, 0, 59, 0
2, 76082, Note_on_c, 0, 67, 0
2, 76088, Note_on_c, 0, 64, 0
2, 76114, Note_on_c, 0, 71, 0
2, 76122, Note_on_c, 0, 47, 40
2, 76125, Note_on_c, 0, 67, 42
2, 76126, Note_on_c, 0, 59, 51
2, 76127, Note_on_c, 0, 55, 28
2, 76130, Note_on_c, 0, 40, 0
2, 76138, Note_on_c, 0, 47, 0
2, 76147, Note_on_c, 0, 55, 0
2, 76153, Note_on_c, 0, 59, 0
2, 76192, Note_on_c, 0, 67, 0
2, 76232, Control_c, 0, 64, 0
2, 76234, Note_on_c, 0, 69, 53
2, 76234, Note_on_c, 0, 48, 42
2, 76236, Note_on_c, 0, 64, 44
2, 76236, Note_on_c, 0, 60, 37
2, 76238, Note_on_c, 0, 57, 41
2, 76243, Note_on_c, 0, 41, 11
2, 76259, Control_c, 0, 64, 127
2, 76269, Note_on_c, 0, 69, 0
2, 76273, Note_on_c, 0, 64, 0
2, 76275, Note_on_c, 0, 60, 0
2, 76277, Note_on_c, 0, 57, 0
2, 76304, Note_on_c, 0, 55, 92
2, 76336, Note_on_c, 0, 55, 0
2, 76336, Note_on_c, 0, 48, 0
2, 76358, Note_on_c, 0, 55, 44
2, 76367, Note_on_c, 0, 56, 56
2, 76370, Note_on_c, 0, 48, 38
2, 76373, Control_c, 0, 64, 0
2, 76378, Note_on_c, 0, 56, 0
2, 76380, Note_on_c, 0, 57, 55
2, 76391, Note_on_c, 0, 55, 0
2, 76409, Control_c, 0, 64, 127
2, 76425, Note_on_c, 0, 57, 0
2, 76433, Note_on_c, 0, 60, 68
2, 76436, Note_on_c, 0, 41, 0
2, 76448, Note_on_c, 0, 48, 0
2, 76454, Note_on_c, 0, 60, 0
2, 76516, Note_on_c, 0, 60, 58
2, 76517, Note_on_c, 0, 43, 36
2, 76519, Control_c, 0, 64, 0
2, 76519, Note_on_c, 0, 57, 35
2, 76520, Note_on_c, 0, 50, 36
2, 76521, Note_on_c, 0, 53, 25
2, 76559, Control_c, 0, 64, 127
2, 76595, Note_on_c, 0, 60, 0
2, 76598, Note_on_c, 0, 62, 48
2, 76614, Note_on_c, 0, 53, 0
2, 76631, Note_on_c, 0, 57, 0
2, 76636, Note_on_c, 0, 43, 0
2, 76642, Note_on_c, 0, 62, 0
2, 76648, Note_on_c, 0, 50, 0
2, 76690, Note_on_c, 0, 62, 36
2, 76694, Note_on_c, 0, 56, 29
2, 76696, Note_on_c, 0, 43, 30
2, 76696, Note_on_c, 0, 53, 29
2, 76697, Control_c, 0, 64, 0
2, 76697, Note_on_c, 0, 59, 24
2, 76736, Control_c, 0, 64, 127
2, 76826, Note_on_c, 0, 62, 0
2, 76830, Note_on_c, 0, 59, 0
2, 76835, Note_on_c, 0, 56, 0
2, 76902, Note_on_c, 0, 64, 57
2, 76930, Note_on_c, 0, 64, 0
2, 76938, Note_on_c, 0, 65, 66
2, 76955, Note_on_c, 0, 43, 0
2, 76966, Note_on_c, 0, 65, 0
2, 76974, Note_on_c, 0, 67, 55
2, 76991, Note_on_c, 0, 67, 0
2, 77012, Note_on_c, 0, 69, 37
2, 77036, Note_on_c, 0, 69, 0
2, 77047, Note_on_c, 0, 53, 0
2, 77065, Note_on_c, 0, 67, 55
2, 77068, Note_on_c, 0, 48, 42
2, 77082, Control_c, 0, 64, 0
2, 77126, Note_on_c, 0, 55, 36
2, 77129, Control_c, 0, 64, 127
2, 77175, Note_on_c, 0, 64, 46
2, 77177, Note_on_c, 0, 60, 45
2, 77185, Note_on_c, 0, 67, 0
2, 77197, Note_on_c, 0, 60, 0
2, 77219, Note_on_c, 0, 64, 0
2, 77231, Note_on_c, 0, 67, 78
2, 77231, Note_on_c, 0, 60, 58
2, 77268, Note_on_c, 0, 67, 0
2, 77290, Note_on_c, 0, 60, 0
2, 77292, Note_on_c, 0, 67, 68
2, 77305, Note_on_c, 0, 55, 0
2, 77308, Note_on_c, 0, 67, 0
2, 77349, Note_on_c, 0, 79, 60
2, 77350, Note_on_c, 0, 72, 57
2, 77351, Note_on_c, 0, 60, 46
2, 77357, Note_on_c, 0, 48, 0
2, 77371, Note_on_c, 0, 60, 0
2, 77385, Note_on_c, 0, 72, 0
2, 77394, Note_on_c, 0, 79, 0
2, 77408, Note_on_c, 0, 76, 51
2, 77413, Note_on_c, 0, 67, 36
2, 77414, Note_on_c, 0, 64, 35
2, 77415, Note_on_c, 0, 72, 32
2, 77421, Note_on_c, 0, 72, 0
2, 77425, Note_on_c, 0, 76, 0
2, 77431, Note_on_c, 0, 67, 0
2, 77448, Note_on_c, 0, 64, 0
2, 77477, Note_on_c, 0, 64, 34
2, 77477, Note_on_c, 0, 72, 45
2, 77480, Note_on_c, 0, 60, 34
2, 77513, Note_on_c, 0, 60, 0
2, 77516, Note_on_c, 0, 64, 0
2, 77554, Note_on_c, 0, 72, 0
2, 77562, Note_on_c, 0, 67, 34
2, 77562, Note_on_c, 0, 55, 25
2, 77563, Note_on_c, 0, 64, 36
2, 77566, Control_c, 0, 64, 0
2, 77577, Control_c, 0, 64, 127
2, 77588, Note_on_c, 0, 64, 0
2, 77593, Note_on_c, 0, 67, 0
2, 77627, Note_on_c, 0, 60, 32
2, 77629, Note_on_c, 0, 64, 22
2, 77678, Note_on_c, 0, 67, 65
2, 77691, Note_on_c, 0, 55, 0
2, 77692, Note_on_c, 0, 60, 0
2, 77692, Note_on_c, 0, 67, 0
2, 77709, Note_on_c, 0, 64, 0
2, 77734, Note_on_c, 0, 74, 58
2, 77735, Note_on_c, 0, 68, 50
2, 77737, Note_on_c, 0, 56, 45
2, 77739, Note_on_c, 0, 62, 42
2, 77741, Control_c, 0, 64, 0
2, 77762, Control_c, 0, 64, 127
2, 77769, Note_on_c, 0, 68, 0
2, 77771, Note_on_c, 0, 62, 0
2, 77785, Note_on_c, 0, 74, 0
2, 77786, Note_on_c, 0, 56, 0
2, 77804, Note_on_c, 0, 72, 54
2, 77804, Control_c, 0, 64, 0
2, 77805, Note_on_c, 0, 64, 31
2, 77808, Note_on_c, 0, 57, 45
2, 77821, Control_c, 0, 64, 127
2, 77826, Note_on_c, 0, 64, 0
2, 77832, Note_on_c, 0, 72, 0
2, 77864, Note_on_c, 0, 84, 71
2, 77869, Note_on_c, 0, 64, 35
2, 77888, Note_on_c, 0, 84, 0
2, 77895, Note_on_c, 0, 64, 0
2, 77937, Note_on_c, 0, 76, 36
2, 77939, Note_on_c, 0, 72, 31
2, 77939, Note_on_c, 0, 69, 47
2, 77949, Note_on_c, 0, 76, 0
2, 77950, Note_on_c, 0, 69, 0
2, 77951, Note_on_c, 0, 72, 0
2, 78007, Note_on_c, 0, 64, 25
2, 78008, Note_on_c, 0, 67, 37
2, 78015, Note_on_c, 0, 64, 0
2, 78026, Note_on_c, 0, 57, 0
2, 78046, Note_on_c, 0, 67, 0
2, 78094, Note_on_c, 0, 64, 29
2, 78096, Note_on_c, 0, 68, 35
2, 78097, Note_on_c, 0, 60, 28
2, 78098, Note_on_c, 0, 54, 29
2, 78099, Note_on_c, 0, 50, 37
2, 78109, Control_c, 0, 64, 0
2, 78154, Control_c, 0, 64, 127
2, 78164, Note_on_c, 0, 60, 0
2, 78169, Note_on_c, 0, 54, 0
2, 78170, Note_on_c, 0, 50, 0
2, 78280, Note_on_c, 0, 26, 34
2, 78291, Note_on_c, 0, 64, 0
2, 78302, Note_on_c, 0, 68, 0
2, 78308, Note_on_c, 0, 26, 0
2, 78477, Note_on_c, 0, 52, 50
2, 78477, Note_on_c, 0, 88, 75
2, 78560, Note_on_c, 0, 88, 0
2, 78568, Note_on_c, 0, 55, 60
2, 78569, Note_on_c, 0, 91, 69
2, 78574, Note_on_c, 0, 52, 0
2, 78613, Note_on_c, 0, 91, 0
2, 78629, Note_on_c, 0, 88, 64
2, 78637, Note_on_c, 0, 55, 0
2, 78647, Note_on_c, 0, 88, 0
2, 78696, Note_on_c, 0, 86, 54
2, 78696, Note_on_c, 0, 55, 42
2, 78698, Note_on_c, 0, 77, 29
2, 78698, Note_on_c, 0, 65, 36
2, 78698, Control_c, 0, 64, 0
2, 78699, Note_on_c, 0, 60, 39
2, 78699, Note_on_c, 0, 57, 34
2, 78699, Note_on_c, 0, 81, 46
2, 78721, Control_c, 0, 64, 127
2, 78724, Note_on_c, 0, 65, 0
2, 78727, Note_on_c, 0, 60, 0
2, 78731, Note_on_c, 0, 57, 0
2, 78733, Note_on_c, 0, 55, 0
2, 78795, Note_on_c, 0, 31, 37
2, 78796, Note_on_c, 0, 81, 0
2, 78798, Note_on_c, 0, 77, 0
2, 78800, Note_on_c, 0, 86, 0
2, 78809, Note_on_c, 0, 31, 0
2, 79005, Note_on_c, 0, 75, 50
2, 79006, Control_c, 0, 64, 0
2, 79007, Note_on_c, 0, 67, 46
2, 79007, Note_on_c, 0, 63, 37
2, 79007, Note_on_c, 0, 70, 54
2, 79008, Note_on_c, 0, 59, 32
2, 79008, Note_on_c, 0, 53, 36
2, 79009, Note_on_c, 0, 64, 27
2, 79034, Control_c, 0, 64, 127
2, 79063, Note_on_c, 0, 64, 0
2, 79067, Note_on_c, 0, 59, 0
2, 79068, Note_on_c, 0, 53, 0
2, 79192, Note_on_c, 0, 31, 39
2, 79202, Note_on_c, 0, 31, 0
2, 79379, Note_on_c, 0, 67, 0
2, 79383, Note_on_c, 0, 63, 0
2, 79391, Note_on_c, 0, 75, 0
2, 79397, Note_on_c, 0, 70, 0
2, 79657, Note_on_c, 0, 74, 46
2, 79665, Note_on_c, 0, 75, 58
2, 79669, Note_on_c, 0, 58, 28
2, 79670, Note_on_c, 0, 69, 31
2, 79672, Note_on_c, 0, 62, 32
2, 79672, Note_on_c, 0, 64, 35
2, 79674, Control_c, 0, 64, 0
2, 79677, Note_on_c, 0, 75, 0
2, 79680, Note_on_c, 0, 76, 48
2, 79685, Note_on_c, 0, 74, 0
2, 79714, Note_on_c, 0, 76, 0
2, 79717, Note_on_c, 0, 79, 71
2, 79724, Control_c, 0, 64, 127
2, 79740, Note_on_c, 0, 79, 0
2, 79763, Note_on_c, 0, 79, 72
2, 79781, Note_on_c, 0, 79, 0
2, 79793, Note_on_c, 0, 81, 71
2, 79816, Note_on_c, 0, 81, 0
2, 79828, Note_on_c, 0, 69, 0
2, 79828, Note_on_c, 0, 79, 73
2, 79831, Note_on_c, 0, 64, 0
2, 79834, Note_on_c, 0, 62, 0
2, 79848, Note_on_c, 0, 58, 0
2, 79880, Note_on_c, 0, 68, 39
2, 79882, Note_on_c, 0, 57, 36
2, 79882, Note_on_c, 0, 63, 35
2, 79882, Note_on_c, 0, 61, 44
2, 79889, Control_c, 0, 64, 0
2, 79921, Control_c, 0, 64, 127
2, 79968, Note_on_c, 0, 79, 0
2, 79996, Note_on_c, 0, 57, 0
2, 79998, Note_on_c, 0, 68, 0
2, 80019, Note_on_c, 0, 63, 0
2, 80020, Note_on_c, 0, 61, 0
2, 80026, Note_on_c, 0, 84, 94
2, 80027, Note_on_c, 0, 72, 91
2, 80027, Note_on_c, 0, 62, 73
2, 80027, Note_on_c, 0, 67, 78
2, 80029, Note_on_c, 0, 56, 70
2, 80031, Control_c, 0, 64, 0
2, 80055, Control_c, 0, 64, 127
2, 80071, Note_on_c, 0, 72, 0
2, 80073, Note_on_c, 0, 84, 0
2, 80087, Note_on_c, 0, 74, 84
2, 80088, Note_on_c, 0, 86, 90
2, 80120, Note_on_c, 0, 62, 0
2, 80121, Note_on_c, 0, 67, 0
2, 80128, Note_on_c, 0, 74, 0
2, 80131, Note_on_c, 0, 86, 0
2, 80132, Note_on_c, 0, 56, 0
2, 80164, Note_on_c, 0, 88, 66
2, 80165, Note_on_c, 0, 61, 35
2, 80166, Note_on_c, 0, 76, 51
2, 80166, Note_on_c, 0, 65, 43
2, 80167, Note_on_c, 0, 55, 35
2, 80167, Note_on_c, 0, 84, 60
2, 80168, Control_c, 0, 64, 0
2, 80170, Note_on_c, 0, 60, 30
2, 80200, Control_c, 0, 64, 127
2, 80297, Note_on_c, 0, 65, 0
2, 80302, Note_on_c, 0, 60, 0
2, 80303, Note_on_c, 0, 55, 0
2, 80303, Note_on_c, 0, 61, 0
2, 80314, Note_on_c, 0, 88, 0
2, 80315, Note_on_c, 0, 84, 0
2, 80318, Note_on_c, 0, 76, 0
2, 80390, Control_c, 0, 64, 0
2, 80391, Note_on_c, 0, 86, 53
2, 80391, Note_on_c, 0, 78, 40
2, 80391, Note_on_c, 0, 74, 50
2, 80392, Note_on_c, 0, 38, 32
2, 80393, Note_on_c, 0, 26, 49
2, 80394, Note_on_c, 0, 81, 49
2, 80405, Note_on_c, 0, 26, 0
2, 80407, Control_c, 0, 64, 127
2, 80410, Note_on_c, 0, 38, 0
2, 80484, Note_on_c, 0, 60, 36
2, 80485, Note_on_c, 0, 64, 32
2, 80486, Note_on_c, 0, 54, 49
2, 80541, Note_on_c, 0, 74, 0
2, 80542, Note_on_c, 0, 81, 0
2, 80543, Note_on_c, 0, 78, 0
2, 80550, Note_on_c, 0, 86, 0
2, 80621, Note_on_c, 0, 60, 0
2, 80629, Note_on_c, 0, 64, 0
2, 80637, Note_on_c, 0, 88, 90
2, 80638, Note_on_c, 0, 76, 87
2, 80645, Note_on_c, 0, 54, 0
2, 80662, Note_on_c, 0, 88, 0
2, 80674, Note_on_c, 0, 76, 0
2, 80900, Note_on_c, 0, 74, 57
2, 80901, Note_on_c, 0, 65, 55
2, 80901, Note_on_c, 0, 68, 60
2, 80902, Note_on_c, 0, 59, 40
2, 80903, Note_on_c, 0, 64, 35
2, 80904, Note_on_c, 0, 53, 43
2, 80905, Control_c, 0, 64, 0
2, 80937, Control_c, 0, 64, 127
2, 80972, Note_on_c, 0, 64, 0
2, 80984, Note_on_c, 0, 59, 0
2, 81003, Note_on_c, 0, 53, 0
2, 81047, Note_on_c, 0, 65, 0
2, 81051, Note_on_c, 0, 68, 0
2, 81052, Note_on_c, 0, 74, 0
2, 81210, Note_on_c, 0, 56, 49
2, 81210, Control_c, 0, 64, 0
2, 81210, Note_on_c, 0, 68, 60
2, 81210, Note_on_c, 0, 71, 64
2, 81211, Note_on_c, 0, 65, 62
2, 81217, Note_on_c, 0, 47, 26
2, 81229, Control_c, 0, 64, 127
2, 81242, Note_on_c, 0, 71, 0
2, 81244, Note_on_c, 0, 65, 0
2, 81244, Note_on_c, 0, 74, 66
2, 81247, Note_on_c, 0, 47, 0
2, 81252, Note_on_c, 0, 56, 0
2, 81261, Note_on_c, 0, 68, 0
2, 81263, Note_on_c, 0, 74, 0
2, 81294, Note_on_c, 0, 72, 61
2, 81297, Note_on_c, 0, 60, 45
2, 81297, Note_on_c, 0, 55, 34
2, 81298, Note_on_c, 0, 45, 35
2, 81298, Note_on_c, 0, 67, 42
2, 81301, Control_c, 0, 64, 0
2, 81336, Note_on_c, 0, 67, 0
2, 81338, Note_on_c, 0, 55, 0
2, 81339, Control_c, 0, 64, 127
2, 81343, Note_on_c, 0, 52, 35
2, 81345, Note_on_c, 0, 72, 0
2, 81356, Note_on_c, 0, 60, 0
2, 81388, Note_on_c, 0, 52, 0
2, 81395, Note_on_c, 0, 64, 47
2, 81396, Note_on_c, 0, 55, 35
2, 81397, Note_on_c, 0, 60, 52
2, 81405, Note_on_c, 0, 64, 0
2, 81406, Note_on_c, 0, 60, 0
2, 81406, Note_on_c, 0, 55, 0
2, 81438, Note_on_c, 0, 45, 0
2, 81595, Note_on_c, 0, 55, 33
2, 81602, Note_on_c, 0, 55, 0
2, 81606, Note_on_c, 0, 57, 58
2, 81622, Note_on_c, 0, 55, 58
2, 81623, Note_on_c, 0, 57, 0
2, 81637, Note_on_c, 0, 55, 0
2, 81643, Note_on_c, 0, 52, 57
2, 81658, Note_on_c, 0, 52, 0
2, 81672, Note_on_c, 0, 53, 68
2, 81691, Note_on_c, 0, 53, 0
2, 81704, Control_c, 0, 64, 0
2, 81707, Note_on_c, 0, 54, 50
2, 81707, Note_on_c, 0, 26, 36
2, 81708, Note_on_c, 0, 38, 29
2, 81739, Control_c, 0, 64, 127
2, 81742, Note_on_c, 0, 26, 0
2, 81746, Note_on_c, 0, 54, 0
2, 81747, Note_on_c, 0, 38, 0
2, 81808, Note_on_c, 0, 54, 20
2, 81885, Note_on_c, 0, 66, 39
2, 81889, Note_on_c, 0, 76, 33
2, 81891, Note_on_c, 0, 64, 30
2, 81892, Note_on_c, 0, 60, 34
2, 81893, Note_on_c, 0, 68, 34
2, 81896, Note_on_c, 0, 72, 27
2, 82053, Note_on_c, 0, 76, 0
2, 82054, Note_on_c, 0, 68, 0
2, 82054, Note_on_c, 0, 66, 0
2, 82055, Note_on_c, 0, 72, 0
2, 82063, Note_on_c, 0, 60, 0
2, 82068, Note_on_c, 0, 54, 0
2, 82069, Note_on_c, 0, 64, 0
2, 82143, Note_on_c, 0, 60, 74
2, 82144, Note_on_c, 0, 65, 74
2, 82144, Note_on_c, 0, 55, 70
2, 82144, Note_on_c, 0, 86, 87
2, 82145, Note_on_c, 0, 57, 59
2, 82145, Note_on_c, 0, 74, 91
2, 82146, Note_on_c, 0, 81, 85
2, 82147, Control_c, 0, 64, 0
2, 82179, Control_c, 0, 64, 127
2, 82217, Note_on_c, 0, 74, 0
2, 82220, Note_on_c, 0, 55, 0
2, 82220, Note_on_c, 0, 81, 0
2, 82221, Note_on_c, 0, 86, 0
2, 82222, Note_on_c, 0, 57, 0
2, 82224, Note_on_c, 0, 60, 0
2, 82227, Note_on_c, 0, 65, 0
2, 82246, Note_on_c, 0, 65, 63
2, 82247, Note_on_c, 0, 86, 65
2, 82247, Note_on_c, 0, 55, 56
2, 82247, Note_on_c, 0, 60, 67
2, 82248, Note_on_c, 0, 81, 77
2, 82248, Note_on_c, 0, 57, 55
2, 82249, Note_on_c, 0, 74, 64
2, 82278, Note_on_c, 0, 74, 0
2, 82280, Note_on_c, 0, 86, 0
2, 82283, Note_on_c, 0, 81, 0
2, 82284, Note_on_c, 0, 55, 0
2, 82287, Note_on_c, 0, 57, 0
2, 82287, Note_on_c, 0, 65, 0
2, 82291, Note_on_c, 0, 60, 0
2, 82311, Note_on_c, 0, 88, 70
2, 82313, Note_on_c, 0, 81, 61
2, 82313, Note_on_c, 0, 76, 54
2, 82314, Note_on_c, 0, 60, 57
2, 82315, Note_on_c, 0, 65, 51
2, 82315, Note_on_c, 0, 55, 48
2, 82316, Note_on_c, 0, 57, 50
2, 82316, Control_c, 0, 64, 0
2, 82337, Control_c, 0, 64, 127
2, 82369, Note_on_c, 0, 76, 0
2, 82370, Note_on_c, 0, 81, 0
2, 82374, Note_on_c, 0, 88, 0
2, 82375, Note_on_c, 0, 60, 0
2, 82375, Note_on_c, 0, 57, 0
2, 82376, Note_on_c, 0, 55, 0
2, 82377, Note_on_c, 0, 65, 0
2, 82418, Note_on_c, 0, 88, 50
2, 82420, Note_on_c, 0, 55, 40
2, 82421, Note_on_c, 0, 65, 37
2, 82421, Note_on_c, 0, 81, 49
2, 82421, Note_on_c, 0, 60, 45
2, 82421, Note_on_c, 0, 76, 33
2, 82422, Note_on_c, 0, 57, 40
2, 82433, Note_on_c, 0, 65, 0
2, 82436, Note_on_c, 0, 60, 0
2, 82442, Note_on_c, 0, 57, 0
2, 82444, Note_on_c, 0, 81, 0
2, 82444, Note_on_c, 0, 55, 0
2, 82445, Note_on_c, 0, 76, 0
2, 82447, Note_on_c, 0, 88, 0
2, 82519, Note_on_c, 0, 86, 56
2, 82519, Note_on_c, 0, 43, 42
2, 82520, Control_c, 0, 64, 0
2, 82521, Note_on_c, 0, 55, 36
2, 82521, Note_on_c, 0, 74, 34
2, 82523, Note_on_c, 0, 79, 39
2, 82546, Control_c, 0, 64, 127
2, 82561, Note_on_c, 0, 86, 0
2, 82573, Note_on_c, 0, 79, 0
2, 82578, Note_on_c, 0, 74, 0
2, 82588, Note_on_c, 0, 43, 0
2, 82612, Note_on_c, 0, 55, 0
2, 82796, Control_c, 0, 64, 0
2, 82800, Note_on_c, 0, 69, 56
2, 82801, Note_on_c, 0, 61, 50
2, 82802, Note_on_c, 0, 57, 44
2, 82802, Note_on_c, 0, 30, 48
2, 82802, Note_on_c, 0, 64, 53
2, 82806, Note_on_c, 0, 42, 20
2, 82817, Control_c, 0, 64, 127
2, 82825, Note_on_c, 0, 57, 0
2, 82829, Note_on_c, 0, 42, 0
2, 82830, Note_on_c, 0, 64, 0
2, 82831, Note_on_c, 0, 30, 0
2, 82832, Note_on_c, 0, 61, 0
2, 82837, Note_on_c, 0, 69, 0
2, 82875, Note_on_c, 0, 72, 60
2, 82875, Note_on_c, 0, 62, 53
2, 82876, Note_on_c, 0, 29, 44
2, 82877, Note_on_c, 0, 67, 60
2, 82879, Note_on_c, 0, 41, 36
2, 82879, Control_c, 0, 64, 0
2, 82901, Note_on_c, 0, 29, 0
2, 82908, Control_c, 0, 64, 127
2, 82909, Note_on_c, 0, 41, 0
2, 82928, Note_on_c, 0, 62, 0
2, 82940, Note_on_c, 0, 67, 0
2, 82952, Note_on_c, 0, 72, 0
2, 82956, Note_on_c, 0, 53, 50
2, 83031, Note_on_c, 0, 69, 47
2, 83032, Note_on_c, 0, 81, 47
2, 83033, Note_on_c, 0, 76, 41
2, 83034, Note_on_c, 0, 60, 44
2, 83089, Note_on_c, 0, 81, 0
2, 83095, Note_on_c, 0, 76, 0
2, 83099, Note_on_c, 0, 69, 0
2, 83122, Note_on_c, 0, 60, 0
2, 83147, Note_on_c, 0, 64, 36
2, 83158, Note_on_c, 0, 64, 0
2, 83163, Note_on_c, 0, 53, 0
2, 83210, Note_on_c, 0, 39, 47
2, 83211, Note_on_c, 0, 72, 45
2, 83211, Note_on_c, 0, 65, 54
2, 83212, Note_on_c, 0, 61, 33
2, 83212, Note_on_c, 0, 69, 53
2, 83217, Control_c, 0, 64, 0
2, 83242, Control_c, 0, 64, 127
2, 83245, Note_on_c, 0, 39, 0
2, 83245, Note_on_c, 0, 46, 57
2, 83261, Note_on_c, 0, 69, 0
2, 83264, Note_on_c, 0, 65, 0
2, 83267, Note_on_c, 0, 61, 0
2, 83275, Note_on_c, 0, 46, 0
2, 83278, Note_on_c, 0, 72, 0
2, 83284, Note_on_c, 0, 55, 40
2, 83285, Note_on_c, 0, 61, 56
2, 83287, Note_on_c, 0, 69, 57
2, 83287, Note_on_c, 0, 65, 54
2, 83295, Note_on_c, 0, 55, 0
2, 83321, Note_on_c, 0, 57, 71
2, 83331, Note_on_c, 0, 65, 0
2, 83334, Note_on_c, 0, 69, 0
2, 83335, Note_on_c, 0, 61, 0
2, 83363, Note_on_c, 0, 57, 0
2, 83366, Note_on_c, 0, 61, 67
2, 83366, Note_on_c, 0, 58, 74
2, 83367, Note_on_c, 0, 69, 64
2, 83368, Note_on_c, 0, 65, 64
2, 83421, Note_on_c, 0, 60, 72
2, 83432, Note_on_c, 0, 58, 0
2, 83450, Note_on_c, 0, 65, 0
2, 83452, Note_on_c, 0, 69, 0
2, 83458, Note_on_c, 0, 61, 0
2, 83478, Note_on_c, 0, 61, 59
2, 83480, Note_on_c, 0, 69, 40
2, 83480, Note_on_c, 0, 58, 52
2, 83481, Note_on_c, 0, 60, 0
2, 83483, Note_on_c, 0, 65, 48
2, 83530, Note_on_c, 0, 58, 0
2, 83547, Note_on_c, 0, 51, 62
2, 83550, Note_on_c, 0, 65, 0
2, 83553, Note_on_c, 0, 69, 0
2, 83557, Note_on_c, 0, 61, 0
2, 83566, Note_on_c, 0, 51, 0
2, 83730, Note_on_c, 0, 74, 67
2, 83732, Note_on_c, 0, 67, 60
2, 83732, Note_on_c, 0, 62, 57
2, 83732, Note_on_c, 0, 64, 51
2, 83732, Note_on_c, 0, 69, 66
2, 83737, Note_on_c, 0, 50, 53
2, 83738, Control_c, 0, 64, 0
2, 83738, Note_on_c, 0, 60, 53
2, 83780, Control_c, 0, 64, 127
2, 83803, Note_on_c, 0, 57, 42
2, 83804, Note_on_c, 0, 62, 0
2, 83805, Note_on_c, 0, 64, 0
2, 83815, Note_on_c, 0, 69, 0
2, 83815, Note_on_c, 0, 67, 0
2, 83831, Note_on_c, 0, 74, 0
2, 83845, Note_on_c, 0, 60, 0
2, 83847, Note_on_c, 0, 57, 0
2, 83886, Note_on_c, 0, 76, 47
2, 83888, Note_on_c, 0, 60, 53
2, 83888, Note_on_c, 0, 64, 37
2, 83889, Note_on_c, 0, 69, 42
2, 83891, Note_on_c, 0, 72, 33
2, 83919, Note_on_c, 0, 50, 0
2, 83928, Note_on_c, 0, 72, 0
2, 83931, Note_on_c, 0, 76, 0
2, 83932, Note_on_c, 0, 60, 0
2, 83937, Note_on_c, 0, 64, 0
2, 83937, Note_on_c, 0, 69, 0
2, 83972, Note_on_c, 0, 50, 41
2, 83990, Note_on_c, 0, 50, 0
2, 84082, Note_on_c, 0, 74, 36
2, 84083, Note_on_c, 0, 65, 34
2, 84083, Note_on_c, 0, 62, 32
2, 84084, Note_on_c, 0, 43, 36
2, 84084, Note_on_c, 0, 69, 51
2, 84086, Control_c, 0, 64, 0
2, 84088, Note_on_c, 0, 53, 19
2, 84118, Control_c, 0, 64, 127
2, 84125, Note_on_c, 0, 53, 0
2, 84137, Note_on_c, 0, 43, 0
2, 84210, Note_on_c, 0, 31, 46
2, 84294, Note_on_c, 0, 62, 0
2, 84299, Note_on_c, 0, 65, 0
2, 84304, Note_on_c, 0, 69, 0
2, 84310, Note_on_c, 0, 74, 0
2, 84391, Note_on_c, 0, 69, 57
2, 84408, Note_on_c, 0, 31, 0
2, 84458, Note_on_c, 0, 69, 0
2, 84512, Note_on_c, 0, 69, 45
2, 84614, Note_on_c, 0, 69, 0
2, 84864, Note_on_c, 0, 48, 50
2, 84864, Note_on_c, 0, 60, 46
2, 84865, Note_on_c, 0, 72, 43
2, 84866, Note_on_c, 0, 65, 37
2, 84866, Note_on_c, 0, 69, 60
2, 84868, Note_on_c, 0, 57, 36
2, 84875, Control_c, 0, 64, 0
2, 84910, Control_c, 0, 64, 127
2, 84950, Note_on_c, 0, 57, 0
2, 84953, Note_on_c, 0, 69, 0
2, 84960, Note_on_c, 0, 60, 0
2, 84960, Note_on_c, 0, 65, 0
2, 85210, Note_on_c, 0, 60, 35
2, 85211, Note_on_c, 0, 65, 24
2, 85217, Note_on_c, 0, 57, 24
2, 85273, Note_on_c, 0, 72, 0
2, 85336, Note_on_c, 0, 65, 0
2, 85365, Note_on_c, 0, 60, 0
2, 85445, Note_on_c, 0, 69, 72
2, 85446, Note_on_c, 0, 65, 69
2, 85502, Note_on_c, 0, 65, 0
2, 85504, Note_on_c, 0, 69, 0
2, 85505, Note_on_c, 0, 57, 0
2, 85514, Note_on_c, 0, 67, 47
2, 85518, Note_on_c, 0, 48, 0
2, 85518, Note_on_c, 0, 64, 35
2, 85549, Note_on_c, 0, 67, 0
2, 85550, Note_on_c, 0, 64, 0
2, 85569, Note_on_c, 0, 65, 44
2, 85569, Note_on_c, 0, 62, 29
2, 85592, Note_on_c, 0, 65, 0
2, 85598, Note_on_c, 0, 62, 0
2, 85681, Note_on_c, 0, 67, 32
2, 85684, Note_on_c, 0, 43, 20
2, 85684, Note_on_c, 0, 36, 29
2, 85686, Note_on_c, 0, 55, 33
2, 85688, Note_on_c, 0, 64, 26
2, 85688, Note_on_c, 0, 60, 36
2, 85689, Note_on_c, 0, 52, 47
2, 85693, Control_c, 0, 64, 0
2, 85735, Control_c, 0, 64, 127
2, 85739, Note_on_c, 0, 52, 0
2, 85750, Note_on_c, 0, 43, 0
2, 85759, Note_on_c, 0, 36, 0
2, 85829, Note_on_c, 0, 55, 0
2, 85841, Note_on_c, 0, 60, 0
2, 85850, Note_on_c, 0, 64, 0
2, 85856, Note_on_c, 0, 67, 0
2, 86074, Note_on_c, 0, 24, 54
2, 86074, Note_on_c, 0, 108, 57
2, 86489, Control_c, 0, 64, 0
2, 86744, Note_on_c, 0, 108, 0
2, 86767, Note_on_c, 0, 24, 0
2, 86767, End_track
3, 0, Start_track
3, 0, MIDI_port, 0
3, 0, Title_t, "dougmck@pipeline.com.au"
3, 0, End_track
0, 0, End_of_file
