0, 0, Header, 1, 6, 480
1, 0, Start_track
1, 0, Title_t, "Gone With The Wind"
1, 0, Text_t, "dougmck@tpg.com.au\012"
1, 0, Time_signature, 4, 2, 24, 8
1, 0, Key_signature, -3, "major"
1, 0, Tempo, 363636
1, 0, Marker_t, "Bass plays freely over first chorus (more or less in '2')"
1, 75857, Marker_t, ""
1, 87496, Marker_t, "Simple phrase repeated several times, adjusted to fit chords"
1, 97920, Marker_t, "Phrase is arpeggiated chord tones - repeats several times , notes changing with the chords"
1, 107523, Marker_t, "'Turn' finishes on 3rd of Fm"
1, 110112, Marker_t, "Similar turn finishes on m3rd of Cm"
1, 127196, Marker_t, "RH - Eb major scale as 3rds"
1, 137254, Marker_t, "'Turns' on chord tones of Gm"
1, 176120, Marker_t, "Chromatic phase creates tension - then release on scale tones"
1, 192431, Marker_t, "RH - play these note pairs with alternating thumb & index finger"
1, 219176, Marker_t, "Rising melodic phrase begins in 3rds - "
1, 221576, Marker_t, "Increases in volume and density of nptes"
1, 228480, Marker_t, "Decrescendo & back to single notes in RH"
1, 255168, Marker_t, "several 3/4 type phrases"
1, 255168, End_track
2, 0, Start_track
2, 0, Title_t, "Piano"
2, 0, Control_c, 0, 64, 127
2, 0, Control_c, 0, 64, 0
2, 4, Note_on_c, 0, 84, 64
2, 5, Note_on_c, 0, 63, 38
2, 6, Note_on_c, 0, 80, 44
2, 15, Note_on_c, 0, 77, 52
2, 17, Note_on_c, 0, 67, 34
2, 19, Note_on_c, 0, 56, 29
2, 22, Note_on_c, 0, 72, 39
2, 25, Note_on_c, 0, 60, 40
2, 57, Control_c, 0, 64, 127
2, 682, Note_on_c, 0, 67, 0
2, 705, Note_on_c, 0, 84, 0
2, 729, Note_on_c, 0, 60, 0
2, 734, Note_on_c, 0, 63, 0
2, 741, Note_on_c, 0, 56, 0
2, 742, Note_on_c, 0, 72, 0
2, 764, Note_on_c, 0, 77, 0
2, 862, Note_on_c, 0, 80, 0
2, 1264, Note_on_c, 0, 82, 69
2, 1276, Note_on_c, 0, 56, 53
2, 1277, Note_on_c, 0, 75, 74
2, 1280, Note_on_c, 0, 62, 60
2, 1281, Note_on_c, 0, 70, 70
2, 1282, Note_on_c, 0, 66, 64
2, 1291, Note_on_c, 0, 79, 60
2, 1295, Note_on_c, 0, 60, 55
2, 1298, Control_c, 0, 64, 0
2, 1300, Note_on_c, 0, 78, 25
2, 1327, Note_on_c, 0, 60, 0
2, 1365, Note_on_c, 0, 60, 18
2, 1422, Control_c, 0, 64, 127
2, 1469, Note_on_c, 0, 82, 0
2, 1479, Note_on_c, 0, 56, 0
2, 1480, Note_on_c, 0, 66, 0
2, 1481, Note_on_c, 0, 70, 0
2, 1484, Note_on_c, 0, 60, 0
2, 1521, Note_on_c, 0, 79, 0
2, 1525, Note_on_c, 0, 75, 0
2, 1532, Note_on_c, 0, 62, 0
2, 1533, Note_on_c, 0, 78, 0
2, 1592, Note_on_c, 0, 56, 60
2, 1594, Note_on_c, 0, 82, 73
2, 1595, Note_on_c, 0, 66, 56
2, 1604, Note_on_c, 0, 75, 71
2, 1607, Note_on_c, 0, 62, 27
2, 1617, Note_on_c, 0, 70, 72
2, 1707, Note_on_c, 0, 70, 0
2, 1708, Note_on_c, 0, 82, 0
2, 1728, Note_on_c, 0, 75, 0
2, 1735, Note_on_c, 0, 62, 0
2, 1741, Control_c, 0, 64, 127
2, 1753, Note_on_c, 0, 66, 0
2, 1829, Note_on_c, 0, 56, 0
2, 1942, Note_on_c, 0, 79, 40
2, 1944, Note_on_c, 0, 67, 36
2, 1945, Note_on_c, 0, 65, 42
2, 1947, Note_on_c, 0, 55, 49
2, 1950, Note_on_c, 0, 62, 32
2, 1954, Note_on_c, 0, 75, 52
2, 1957, Note_on_c, 0, 60, 37
2, 1970, Control_c, 0, 64, 0
2, 2177, Control_c, 0, 64, 127
2, 2444, Note_on_c, 0, 70, 68
2, 2571, Note_on_c, 0, 79, 0
2, 2598, Note_on_c, 0, 65, 0
2, 2639, Note_on_c, 0, 70, 0
2, 2642, Note_on_c, 0, 75, 0
2, 2674, Note_on_c, 0, 62, 0
2, 2703, Note_on_c, 0, 60, 0
2, 2738, Note_on_c, 0, 67, 0
2, 2788, Note_on_c, 0, 55, 0
2, 4651, Note_on_c, 0, 72, 90
2, 4653, Note_on_c, 0, 68, 93
2, 4655, Note_on_c, 0, 63, 64
2, 4657, Note_on_c, 0, 67, 74
2, 4658, Note_on_c, 0, 56, 72
2, 4659, Note_on_c, 0, 60, 65
2, 4676, Control_c, 0, 64, 0
2, 4811, Control_c, 0, 64, 127
2, 4956, Note_on_c, 0, 67, 0
2, 5000, Note_on_c, 0, 68, 0
2, 5005, Note_on_c, 0, 56, 0
2, 5019, Note_on_c, 0, 63, 0
2, 5030, Note_on_c, 0, 72, 0
2, 5038, Note_on_c, 0, 60, 0
2, 5077, Note_on_c, 0, 70, 78
2, 5083, Note_on_c, 0, 56, 46
2, 5087, Note_on_c, 0, 67, 71
2, 5095, Note_on_c, 0, 66, 62
2, 5098, Note_on_c, 0, 62, 61
2, 5099, Control_c, 0, 64, 0
2, 5106, Note_on_c, 0, 60, 58
2, 5242, Control_c, 0, 64, 127
2, 5310, Note_on_c, 0, 56, 0
2, 5314, Note_on_c, 0, 67, 0
2, 5315, Note_on_c, 0, 60, 0
2, 5326, Note_on_c, 0, 66, 0
2, 5352, Note_on_c, 0, 70, 0
2, 5355, Note_on_c, 0, 62, 0
2, 5386, Control_c, 0, 64, 0
2, 5418, Note_on_c, 0, 66, 56
2, 5420, Note_on_c, 0, 70, 61
2, 5428, Note_on_c, 0, 56, 53
2, 5435, Note_on_c, 0, 67, 60
2, 5443, Note_on_c, 0, 62, 37
2, 5476, Control_c, 0, 64, 127
2, 5532, Note_on_c, 0, 66, 0
2, 5545, Note_on_c, 0, 67, 0
2, 5554, Note_on_c, 0, 70, 0
2, 5630, Note_on_c, 0, 62, 0
2, 5692, Note_on_c, 0, 56, 0
2, 5802, Note_on_c, 0, 70, 59
2, 5803, Note_on_c, 0, 65, 60
2, 5805, Note_on_c, 0, 60, 47
2, 5817, Control_c, 0, 64, 0
2, 5827, Note_on_c, 0, 55, 44
2, 5879, Note_on_c, 0, 55, 0
2, 5933, Control_c, 0, 64, 127
2, 6048, Note_on_c, 0, 70, 0
2, 6092, Note_on_c, 0, 65, 0
2, 6117, Note_on_c, 0, 60, 0
2, 6212, Control_c, 0, 64, 0
2, 6265, Note_on_c, 0, 69, 29
2, 6271, Note_on_c, 0, 54, 33
2, 6277, Note_on_c, 0, 59, 27
2, 6281, Note_on_c, 0, 64, 38
2, 6311, Control_c, 0, 64, 127
2, 6367, Note_on_c, 0, 69, 0
2, 6423, Note_on_c, 0, 64, 0
2, 6434, Note_on_c, 0, 59, 0
2, 6589, Control_c, 0, 64, 0
2, 6591, Note_on_c, 0, 70, 63
2, 6593, Note_on_c, 0, 65, 61
2, 6604, Note_on_c, 0, 55, 49
2, 6605, Note_on_c, 0, 54, 0
2, 6606, Note_on_c, 0, 60, 57
2, 6660, Note_on_c, 0, 65, 0
2, 6669, Note_on_c, 0, 70, 0
2, 6671, Note_on_c, 0, 55, 0
2, 6697, Note_on_c, 0, 60, 0
2, 6995, Note_on_c, 0, 62, 47
2, 7004, Note_on_c, 0, 67, 35
2, 7017, Note_on_c, 0, 55, 36
2, 7020, Note_on_c, 0, 57, 29
2, 7147, Control_c, 0, 64, 127
2, 7264, Note_on_c, 0, 57, 0
2, 7319, Note_on_c, 0, 62, 0
2, 7376, Note_on_c, 0, 67, 0
2, 7479, Note_on_c, 0, 55, 0
2, 7551, Control_c, 0, 64, 0
2, 7553, Note_on_c, 0, 64, 50
2, 7571, Note_on_c, 0, 60, 54
2, 7572, Note_on_c, 0, 55, 37
2, 7575, Note_on_c, 0, 57, 48
2, 7594, Note_on_c, 0, 45, 32
2, 7703, Control_c, 0, 64, 127
2, 7802, Note_on_c, 0, 57, 0
2, 7866, Note_on_c, 0, 45, 0
2, 7885, Note_on_c, 0, 60, 0
2, 7916, Note_on_c, 0, 55, 0
2, 7983, Note_on_c, 0, 64, 0
2, 8530, Note_on_c, 0, 64, 69
2, 8537, Note_on_c, 0, 79, 103
2, 8538, Note_on_c, 0, 60, 48
2, 8544, Note_on_c, 0, 59, 54
2, 8547, Note_on_c, 0, 55, 48
2, 8650, Note_on_c, 0, 55, 0
2, 8665, Note_on_c, 0, 64, 0
2, 8691, Note_on_c, 0, 59, 0
2, 8699, Note_on_c, 0, 79, 0
2, 8772, Control_c, 0, 64, 0
2, 8774, Note_on_c, 0, 64, 26
2, 8783, Note_on_c, 0, 78, 59
2, 8796, Note_on_c, 0, 54, 47
2, 8836, Control_c, 0, 64, 127
2, 8949, Note_on_c, 0, 64, 0
2, 8988, Note_on_c, 0, 54, 0
2, 8995, Note_on_c, 0, 78, 0
2, 9027, Note_on_c, 0, 54, 30
2, 9035, Note_on_c, 0, 64, 54
2, 9036, Note_on_c, 0, 79, 74
2, 9049, Note_on_c, 0, 59, 32
2, 9113, Note_on_c, 0, 64, 0
2, 9121, Note_on_c, 0, 54, 0
2, 9137, Note_on_c, 0, 59, 0
2, 9142, Note_on_c, 0, 79, 0
2, 9163, Note_on_c, 0, 60, 0
2, 9193, Note_on_c, 0, 64, 60
2, 9199, Note_on_c, 0, 60, 19
2, 9199, Note_on_c, 0, 54, 40
2, 9202, Note_on_c, 0, 81, 89
2, 9221, Note_on_c, 0, 59, 36
2, 9315, Note_on_c, 0, 59, 0
2, 9352, Note_on_c, 0, 60, 0
2, 9359, Note_on_c, 0, 64, 0
2, 9406, Note_on_c, 0, 54, 0
2, 9412, Note_on_c, 0, 81, 0
2, 9499, Note_on_c, 0, 76, 71
2, 9503, Note_on_c, 0, 62, 48
2, 9504, Note_on_c, 0, 59, 52
2, 9515, Note_on_c, 0, 54, 18
2, 9535, Control_c, 0, 64, 0
2, 9544, Note_on_c, 0, 57, 33
2, 9778, Control_c, 0, 64, 127
2, 10016, Note_on_c, 0, 59, 0
2, 10030, Note_on_c, 0, 57, 0
2, 10039, Note_on_c, 0, 62, 0
2, 10057, Note_on_c, 0, 54, 0
2, 10063, Note_on_c, 0, 76, 0
2, 10891, Note_on_c, 0, 62, 64
2, 10896, Note_on_c, 0, 56, 62
2, 10896, Note_on_c, 0, 91, 71
2, 10897, Note_on_c, 0, 67, 70
2, 10899, Note_on_c, 0, 86, 80
2, 10907, Note_on_c, 0, 80, 65
2, 10937, Control_c, 0, 64, 0
2, 11018, Control_c, 0, 64, 127
2, 11184, Note_on_c, 0, 91, 0
2, 11188, Note_on_c, 0, 86, 0
2, 11189, Note_on_c, 0, 80, 0
2, 11236, Note_on_c, 0, 62, 0
2, 11248, Note_on_c, 0, 67, 0
2, 11331, Note_on_c, 0, 56, 0
2, 11503, Control_c, 0, 64, 0
2, 11528, Note_on_c, 0, 95, 66
2, 11529, Note_on_c, 0, 64, 52
2, 11533, Note_on_c, 0, 60, 44
2, 11543, Note_on_c, 0, 55, 37
2, 11553, Note_on_c, 0, 59, 43
2, 11558, Note_on_c, 0, 91, 32
2, 11592, Note_on_c, 0, 59, 0
2, 11598, Note_on_c, 0, 64, 0
2, 11599, Note_on_c, 0, 91, 0
2, 11600, Note_on_c, 0, 60, 0
2, 11606, Note_on_c, 0, 95, 0
2, 11611, Note_on_c, 0, 55, 0
2, 12453, Note_on_c, 0, 54, 32
2, 12464, Note_on_c, 0, 64, 26
2, 12472, Note_on_c, 0, 60, 35
2, 12818, Note_on_c, 0, 66, 59
2, 12929, Note_on_c, 0, 66, 0
2, 13007, Note_on_c, 0, 64, 0
2, 13052, Note_on_c, 0, 60, 0
2, 13138, Note_on_c, 0, 69, 65
2, 13208, Note_on_c, 0, 69, 0
2, 13307, Note_on_c, 0, 71, 77
2, 13348, Note_on_c, 0, 59, 42
2, 13385, Note_on_c, 0, 62, 20
2, 13435, Note_on_c, 0, 71, 0
2, 13491, Note_on_c, 0, 74, 88
2, 13768, Note_on_c, 0, 74, 0
2, 13823, Note_on_c, 0, 74, 81
2, 13894, Note_on_c, 0, 62, 0
2, 13982, Note_on_c, 0, 62, 34
2, 14177, Note_on_c, 0, 62, 0
2, 14218, Note_on_c, 0, 59, 0
2, 14283, Note_on_c, 0, 62, 39
2, 14389, Note_on_c, 0, 59, 22
2, 14390, Note_on_c, 0, 62, 0
2, 14415, Note_on_c, 0, 66, 37
2, 14470, Note_on_c, 0, 74, 0
2, 14917, Control_c, 0, 64, 127
2, 15059, Note_on_c, 0, 59, 0
2, 15109, Note_on_c, 0, 66, 0
2, 15196, Note_on_c, 0, 54, 0
2, 15359, Note_on_c, 0, 63, 37
2, 15371, Note_on_c, 0, 55, 28
2, 15375, Note_on_c, 0, 67, 44
2, 15380, Note_on_c, 0, 70, 45
2, 15384, Control_c, 0, 64, 0
2, 15385, Note_on_c, 0, 62, 32
2, 15618, Control_c, 0, 64, 127
2, 15808, Note_on_c, 0, 62, 0
2, 15866, Note_on_c, 0, 63, 0
2, 15885, Note_on_c, 0, 67, 0
2, 15891, Note_on_c, 0, 55, 0
2, 16027, Note_on_c, 0, 70, 0
2, 16223, Note_on_c, 0, 58, 39
2, 16273, Note_on_c, 0, 61, 62
2, 16314, Note_on_c, 0, 74, 92
2, 16320, Note_on_c, 0, 58, 0
2, 16331, Note_on_c, 0, 67, 90
2, 16332, Note_on_c, 0, 70, 83
2, 16336, Note_on_c, 0, 62, 84
2, 16338, Note_on_c, 0, 63, 90
2, 16345, Control_c, 0, 64, 0
2, 16352, Note_on_c, 0, 61, 0
2, 16542, Control_c, 0, 64, 127
2, 16794, Control_c, 0, 64, 0
2, 16839, Control_c, 0, 64, 127
2, 17029, Note_on_c, 0, 61, 25
2, 17107, Note_on_c, 0, 62, 0
2, 17131, Note_on_c, 0, 61, 0
2, 17138, Note_on_c, 0, 60, 36
2, 17194, Note_on_c, 0, 60, 0
2, 17200, Note_on_c, 0, 74, 0
2, 17203, Note_on_c, 0, 67, 0
2, 17239, Note_on_c, 0, 58, 43
2, 17259, Note_on_c, 0, 70, 0
2, 17260, Note_on_c, 0, 63, 0
2, 17320, Note_on_c, 0, 58, 0
2, 17369, Control_c, 0, 64, 0
2, 17370, Note_on_c, 0, 74, 53
2, 17371, Note_on_c, 0, 66, 50
2, 17375, Note_on_c, 0, 63, 43
2, 17393, Note_on_c, 0, 69, 53
2, 17410, Note_on_c, 0, 62, 46
2, 17585, Note_on_c, 0, 74, 0
2, 17593, Control_c, 0, 64, 127
2, 17659, Note_on_c, 0, 63, 0
2, 17666, Control_c, 0, 64, 0
2, 17716, Note_on_c, 0, 66, 0
2, 17754, Note_on_c, 0, 62, 0
2, 17763, Note_on_c, 0, 69, 0
2, 17815, Note_on_c, 0, 75, 69
2, 17818, Note_on_c, 0, 66, 38
2, 17821, Note_on_c, 0, 63, 43
2, 17836, Note_on_c, 0, 60, 60
2, 17843, Note_on_c, 0, 69, 28
2, 18186, Control_c, 0, 64, 127
2, 18522, Note_on_c, 0, 75, 0
2, 18530, Note_on_c, 0, 63, 0
2, 18542, Note_on_c, 0, 66, 0
2, 18558, Note_on_c, 0, 69, 0
2, 18672, Note_on_c, 0, 60, 0
2, 18699, Control_c, 0, 64, 0
2, 18714, Note_on_c, 0, 63, 38
2, 18726, Note_on_c, 0, 66, 37
2, 18728, Note_on_c, 0, 57, 37
2, 18735, Control_c, 0, 64, 127
2, 18736, Note_on_c, 0, 72, 40
2, 18846, Note_on_c, 0, 72, 0
2, 18854, Note_on_c, 0, 66, 0
2, 18875, Note_on_c, 0, 63, 0
2, 18880, Note_on_c, 0, 57, 0
2, 19024, Note_on_c, 0, 75, 54
2, 19035, Note_on_c, 0, 68, 56
2, 19039, Note_on_c, 0, 58, 43
2, 19048, Control_c, 0, 64, 0
2, 19053, Note_on_c, 0, 72, 47
2, 19065, Note_on_c, 0, 68, 0
2, 19080, Note_on_c, 0, 75, 0
2, 19082, Note_on_c, 0, 72, 0
2, 19096, Note_on_c, 0, 58, 0
2, 20156, Note_on_c, 0, 63, 38
2, 20160, Note_on_c, 0, 68, 30
2, 20173, Note_on_c, 0, 53, 37
2, 20190, Control_c, 0, 64, 127
2, 20214, Note_on_c, 0, 53, 0
2, 20248, Note_on_c, 0, 63, 0
2, 20256, Note_on_c, 0, 68, 0
2, 20585, Control_c, 0, 64, 0
2, 20626, Note_on_c, 0, 68, 62
2, 20634, Note_on_c, 0, 53, 36
2, 20639, Note_on_c, 0, 60, 43
2, 20640, Note_on_c, 0, 72, 62
2, 20643, Note_on_c, 0, 56, 35
2, 20644, Note_on_c, 0, 63, 45
2, 20655, Note_on_c, 0, 65, 45
2, 20679, Note_on_c, 0, 60, 0
2, 20690, Note_on_c, 0, 65, 0
2, 20704, Note_on_c, 0, 53, 0
2, 20712, Note_on_c, 0, 63, 0
2, 20719, Control_c, 0, 64, 127
2, 20750, Note_on_c, 0, 68, 0
2, 20762, Note_on_c, 0, 72, 0
2, 20763, Note_on_c, 0, 56, 0
2, 21061, Control_c, 0, 64, 0
2, 21132, Control_c, 0, 64, 127
2, 21135, Note_on_c, 0, 62, 44
2, 21148, Note_on_c, 0, 56, 33
2, 21154, Note_on_c, 0, 85, 59
2, 21159, Note_on_c, 0, 73, 47
2, 21160, Note_on_c, 0, 80, 49
2, 21164, Note_on_c, 0, 66, 33
2, 21233, Note_on_c, 0, 73, 0
2, 21243, Note_on_c, 0, 66, 0
2, 21251, Note_on_c, 0, 80, 0
2, 21254, Note_on_c, 0, 56, 0
2, 21269, Note_on_c, 0, 62, 0
2, 21283, Note_on_c, 0, 85, 0
2, 21485, Note_on_c, 0, 62, 43
2, 21486, Note_on_c, 0, 78, 56
2, 21494, Note_on_c, 0, 66, 32
2, 21494, Note_on_c, 0, 90, 52
2, 21498, Note_on_c, 0, 85, 47
2, 21506, Note_on_c, 0, 56, 21
2, 21519, Note_on_c, 0, 78, 0
2, 21527, Note_on_c, 0, 85, 0
2, 21529, Note_on_c, 0, 66, 0
2, 21545, Note_on_c, 0, 56, 0
2, 21548, Note_on_c, 0, 90, 0
2, 21552, Note_on_c, 0, 62, 0
2, 21650, Note_on_c, 0, 62, 68
2, 21652, Note_on_c, 0, 82, 83
2, 21653, Note_on_c, 0, 66, 77
2, 21654, Note_on_c, 0, 94, 83
2, 21661, Note_on_c, 0, 56, 77
2, 21842, Note_on_c, 0, 82, 0
2, 21856, Note_on_c, 0, 56, 0
2, 21871, Note_on_c, 0, 94, 0
2, 21878, Note_on_c, 0, 66, 0
2, 21905, Note_on_c, 0, 62, 0
2, 21983, Note_on_c, 0, 62, 77
2, 21984, Note_on_c, 0, 66, 90
2, 21985, Note_on_c, 0, 56, 83
2, 21993, Note_on_c, 0, 87, 93
2, 21993, Note_on_c, 0, 99, 86
2, 22042, Control_c, 0, 64, 0
2, 22087, Control_c, 0, 64, 127
2, 22327, Note_on_c, 0, 56, 0
2, 22331, Note_on_c, 0, 99, 0
2, 22342, Note_on_c, 0, 66, 0
2, 22344, Note_on_c, 0, 87, 0
2, 22360, Note_on_c, 0, 62, 0
2, 22472, Note_on_c, 0, 85, 56
2, 22475, Note_on_c, 0, 62, 37
2, 22486, Note_on_c, 0, 97, 51
2, 22502, Note_on_c, 0, 85, 0
2, 22517, Note_on_c, 0, 97, 0
2, 22544, Note_on_c, 0, 62, 0
2, 22629, Note_on_c, 0, 66, 63
2, 22632, Note_on_c, 0, 56, 65
2, 22633, Note_on_c, 0, 62, 46
2, 22651, Note_on_c, 0, 104, 76
2, 22659, Note_on_c, 0, 92, 57
2, 22771, Note_on_c, 0, 90, 3
2, 22781, Note_on_c, 0, 104, 0
2, 22796, Note_on_c, 0, 92, 0
2, 22812, Note_on_c, 0, 66, 0
2, 22847, Note_on_c, 0, 90, 0
2, 22855, Note_on_c, 0, 56, 0
2, 22858, Note_on_c, 0, 62, 0
2, 22945, Note_on_c, 0, 62, 53
2, 22946, Note_on_c, 0, 89, 64
2, 22950, Note_on_c, 0, 101, 49
2, 22954, Note_on_c, 0, 65, 54
2, 22955, Note_on_c, 0, 55, 64
2, 22965, Note_on_c, 0, 60, 55
2, 23012, Control_c, 0, 64, 0
2, 23120, Control_c, 0, 64, 127
2, 23305, Note_on_c, 0, 101, 0
2, 23360, Note_on_c, 0, 89, 0
2, 23503, Note_on_c, 0, 62, 0
2, 23504, Note_on_c, 0, 65, 0
2, 23532, Note_on_c, 0, 60, 0
2, 23586, Note_on_c, 0, 55, 0
2, 23872, Note_on_c, 0, 54, 77
2, 23876, Note_on_c, 0, 60, 71
2, 23877, Note_on_c, 0, 65, 70
2, 23880, Note_on_c, 0, 70, 86
2, 24027, Control_c, 0, 64, 0
2, 24066, Note_on_c, 0, 70, 0
2, 24149, Note_on_c, 0, 70, 45
2, 24270, Control_c, 0, 64, 127
2, 24297, Control_c, 0, 64, 0
2, 24375, Note_on_c, 0, 70, 0
2, 24521, Control_c, 0, 64, 127
2, 24526, Note_on_c, 0, 70, 53
2, 24718, Note_on_c, 0, 60, 0
2, 24719, Note_on_c, 0, 70, 0
2, 24810, Note_on_c, 0, 65, 0
2, 24899, Note_on_c, 0, 54, 0
2, 24953, Control_c, 0, 64, 0
2, 24961, Note_on_c, 0, 64, 37
2, 24967, Note_on_c, 0, 70, 64
2, 24974, Note_on_c, 0, 59, 41
2, 24982, Note_on_c, 0, 53, 31
2, 25105, Control_c, 0, 64, 127
2, 25274, Note_on_c, 0, 70, 0
2, 25301, Note_on_c, 0, 72, 46
2, 25357, Control_c, 0, 64, 0
2, 25375, Note_on_c, 0, 72, 0
2, 25438, Control_c, 0, 64, 127
2, 25441, Note_on_c, 0, 73, 56
2, 25465, Note_on_c, 0, 64, 0
2, 25468, Note_on_c, 0, 53, 0
2, 25508, Note_on_c, 0, 59, 0
2, 25670, Note_on_c, 0, 73, 0
2, 25777, Note_on_c, 0, 52, 49
2, 25780, Note_on_c, 0, 63, 36
2, 25786, Note_on_c, 0, 58, 38
2, 25794, Note_on_c, 0, 72, 50
2, 25833, Control_c, 0, 64, 0
2, 25858, Note_on_c, 0, 52, 0
2, 25869, Note_on_c, 0, 63, 0
2, 25914, Note_on_c, 0, 72, 0
2, 25943, Note_on_c, 0, 58, 0
2, 26261, Note_on_c, 0, 70, 57
2, 26269, Note_on_c, 0, 63, 36
2, 26273, Note_on_c, 0, 58, 34
2, 26284, Note_on_c, 0, 52, 32
2, 26391, Note_on_c, 0, 63, 0
2, 26435, Control_c, 0, 64, 127
2, 26484, Note_on_c, 0, 58, 0
2, 26489, Note_on_c, 0, 52, 0
2, 26543, Note_on_c, 0, 70, 0
2, 26866, Control_c, 0, 64, 0
2, 26875, Note_on_c, 0, 68, 48
2, 26881, Note_on_c, 0, 56, 25
2, 26899, Note_on_c, 0, 63, 36
2, 26904, Note_on_c, 0, 60, 35
2, 26965, Control_c, 0, 64, 127
2, 27017, Note_on_c, 0, 60, 0
2, 27019, Note_on_c, 0, 56, 0
2, 27045, Note_on_c, 0, 63, 0
2, 27065, Note_on_c, 0, 68, 0
2, 27249, Note_on_c, 0, 58, 23
2, 27290, Note_on_c, 0, 57, 37
2, 27301, Note_on_c, 0, 59, 64
2, 27322, Note_on_c, 0, 57, 0
2, 27342, Control_c, 0, 64, 0
2, 27352, Note_on_c, 0, 75, 82
2, 27356, Note_on_c, 0, 58, 0
2, 27359, Note_on_c, 0, 68, 85
2, 27366, Note_on_c, 0, 72, 76
2, 27367, Note_on_c, 0, 60, 80
2, 27368, Note_on_c, 0, 65, 79
2, 27413, Note_on_c, 0, 59, 0
2, 27513, Control_c, 0, 64, 127
2, 27576, Note_on_c, 0, 72, 0
2, 27584, Note_on_c, 0, 75, 0
2, 27635, Note_on_c, 0, 65, 0
2, 27637, Note_on_c, 0, 68, 0
2, 27822, Note_on_c, 0, 60, 0
2, 27836, Control_c, 0, 64, 0
2, 27846, Note_on_c, 0, 56, 53
2, 27848, Note_on_c, 0, 72, 53
2, 27850, Note_on_c, 0, 68, 57
2, 27861, Note_on_c, 0, 63, 53
2, 27935, Control_c, 0, 64, 127
2, 27948, Note_on_c, 0, 72, 0
2, 27999, Note_on_c, 0, 68, 0
2, 28005, Note_on_c, 0, 63, 0
2, 28082, Note_on_c, 0, 68, 25
2, 28130, Note_on_c, 0, 68, 0
2, 28299, Note_on_c, 0, 56, 0
2, 28312, Control_c, 0, 64, 0
2, 28322, Note_on_c, 0, 68, 57
2, 28332, Note_on_c, 0, 63, 53
2, 28350, Note_on_c, 0, 60, 38
2, 28366, Control_c, 0, 64, 127
2, 28368, Note_on_c, 0, 53, 25
2, 28549, Note_on_c, 0, 53, 0
2, 28552, Note_on_c, 0, 68, 0
2, 28615, Note_on_c, 0, 60, 0
2, 28643, Note_on_c, 0, 63, 0
2, 28797, Control_c, 0, 64, 0
2, 28822, Note_on_c, 0, 46, 47
2, 28932, Control_c, 0, 64, 127
2, 29155, Note_on_c, 0, 67, 46
2, 29156, Note_on_c, 0, 59, 65
2, 29162, Note_on_c, 0, 62, 42
2, 29176, Note_on_c, 0, 56, 39
2, 29182, Note_on_c, 0, 55, 36
2, 29195, Control_c, 0, 64, 0
2, 29554, Control_c, 0, 64, 127
2, 29865, Note_on_c, 0, 55, 0
2, 29935, Note_on_c, 0, 59, 0
2, 29966, Note_on_c, 0, 62, 0
2, 30021, Note_on_c, 0, 67, 0
2, 30058, Note_on_c, 0, 46, 0
2, 30088, Note_on_c, 0, 56, 0
2, 30695, Control_c, 0, 64, 0
2, 30705, Note_on_c, 0, 63, 36
2, 30720, Note_on_c, 0, 67, 34
2, 30722, Note_on_c, 0, 84, 55
2, 30724, Note_on_c, 0, 80, 36
2, 30731, Note_on_c, 0, 56, 28
2, 30732, Note_on_c, 0, 60, 37
2, 30734, Note_on_c, 0, 77, 45
2, 30743, Note_on_c, 0, 72, 33
2, 30892, Control_c, 0, 64, 127
2, 31238, Note_on_c, 0, 72, 0
2, 31284, Note_on_c, 0, 60, 0
2, 31286, Note_on_c, 0, 77, 0
2, 31292, Note_on_c, 0, 67, 0
2, 31338, Note_on_c, 0, 56, 0
2, 31339, Note_on_c, 0, 63, 0
2, 31383, Note_on_c, 0, 80, 0
2, 31415, Note_on_c, 0, 84, 0
2, 32012, Note_on_c, 0, 56, 65
2, 32013, Note_on_c, 0, 94, 81
2, 32013, Note_on_c, 0, 62, 63
2, 32015, Note_on_c, 0, 66, 73
2, 32021, Note_on_c, 0, 82, 74
2, 32021, Note_on_c, 0, 87, 78
2, 32026, Control_c, 0, 64, 0
2, 32143, Control_c, 0, 64, 127
2, 32170, Note_on_c, 0, 94, 0
2, 32180, Note_on_c, 0, 82, 0
2, 32194, Note_on_c, 0, 87, 0
2, 32208, Note_on_c, 0, 66, 0
2, 32212, Note_on_c, 0, 56, 0
2, 32321, Note_on_c, 0, 78, 59
2, 32323, Note_on_c, 0, 66, 57
2, 32323, Note_on_c, 0, 90, 60
2, 32325, Note_on_c, 0, 56, 57
2, 32351, Note_on_c, 0, 85, 44
2, 32425, Note_on_c, 0, 85, 0
2, 32445, Note_on_c, 0, 66, 0
2, 32452, Note_on_c, 0, 90, 0
2, 32456, Note_on_c, 0, 78, 0
2, 32484, Note_on_c, 0, 62, 0
2, 32511, Note_on_c, 0, 56, 0
2, 32649, Note_on_c, 0, 65, 55
2, 32650, Note_on_c, 0, 62, 41
2, 32656, Note_on_c, 0, 55, 52
2, 32665, Note_on_c, 0, 93, 50
2, 32668, Note_on_c, 0, 60, 51
2, 32682, Control_c, 0, 64, 0
2, 32688, Note_on_c, 0, 81, 34
2, 32707, Note_on_c, 0, 88, 20
2, 32835, Control_c, 0, 64, 127
2, 33180, Note_on_c, 0, 65, 0
2, 33185, Note_on_c, 0, 62, 0
2, 33198, Note_on_c, 0, 60, 0
2, 33249, Note_on_c, 0, 55, 0
2, 33284, Note_on_c, 0, 93, 0
2, 33288, Note_on_c, 0, 88, 0
2, 33415, Note_on_c, 0, 81, 0
2, 33946, Note_on_c, 0, 63, 46
2, 33948, Note_on_c, 0, 58, 46
2, 33953, Note_on_c, 0, 52, 50
2, 34003, Control_c, 0, 64, 0
2, 34111, Control_c, 0, 64, 127
2, 34248, Note_on_c, 0, 52, 0
2, 34286, Note_on_c, 0, 58, 0
2, 34315, Note_on_c, 0, 63, 0
2, 34318, Note_on_c, 0, 91, 74
2, 34423, Note_on_c, 0, 91, 0
2, 34468, Note_on_c, 0, 88, 72
2, 34555, Note_on_c, 0, 88, 0
2, 34588, Note_on_c, 0, 63, 46
2, 34600, Note_on_c, 0, 60, 53
2, 34602, Note_on_c, 0, 67, 43
2, 34604, Note_on_c, 0, 56, 51
2, 34623, Control_c, 0, 64, 0
2, 34624, Note_on_c, 0, 89, 73
2, 35000, Control_c, 0, 64, 127
2, 35351, Note_on_c, 0, 67, 0
2, 35383, Note_on_c, 0, 63, 0
2, 35395, Note_on_c, 0, 56, 0
2, 35405, Note_on_c, 0, 60, 0
2, 35459, Note_on_c, 0, 89, 0
2, 35540, Note_on_c, 0, 87, 68
2, 35594, Note_on_c, 0, 62, 17
2, 35602, Control_c, 0, 64, 0
2, 35651, Note_on_c, 0, 62, 0
2, 35652, Note_on_c, 0, 87, 0
2, 35701, Control_c, 0, 64, 127
2, 35701, Note_on_c, 0, 84, 54
2, 35779, Note_on_c, 0, 84, 0
2, 35808, Control_c, 0, 64, 0
2, 35841, Note_on_c, 0, 62, 48
2, 35843, Note_on_c, 0, 66, 55
2, 35852, Note_on_c, 0, 86, 83
2, 35859, Note_on_c, 0, 56, 37
2, 35861, Note_on_c, 0, 60, 50
2, 36015, Control_c, 0, 64, 127
2, 36266, Note_on_c, 0, 60, 0
2, 36287, Note_on_c, 0, 62, 0
2, 36289, Note_on_c, 0, 66, 0
2, 36405, Note_on_c, 0, 56, 0
2, 36485, Note_on_c, 0, 55, 49
2, 36486, Note_on_c, 0, 65, 37
2, 36497, Note_on_c, 0, 62, 37
2, 36512, Note_on_c, 0, 60, 28
2, 36517, Control_c, 0, 64, 0
2, 37293, Note_on_c, 0, 86, 0
2, 37647, Note_on_c, 0, 82, 64
2, 37769, Note_on_c, 0, 82, 0
2, 37774, Note_on_c, 0, 79, 58
2, 37828, Note_on_c, 0, 79, 0
2, 37931, Note_on_c, 0, 74, 57
2, 37974, Note_on_c, 0, 74, 0
2, 38042, Note_on_c, 0, 65, 0
2, 38069, Note_on_c, 0, 62, 0
2, 38098, Note_on_c, 0, 60, 0
2, 38189, Control_c, 0, 64, 127
2, 38263, Note_on_c, 0, 74, 41
2, 38319, Note_on_c, 0, 74, 0
2, 38342, Control_c, 0, 64, 0
2, 38408, Note_on_c, 0, 64, 38
2, 38414, Note_on_c, 0, 57, 20
2, 38423, Note_on_c, 0, 60, 29
2, 38437, Note_on_c, 0, 74, 36
2, 38482, Note_on_c, 0, 74, 0
2, 38725, Note_on_c, 0, 74, 74
2, 38789, Note_on_c, 0, 74, 0
2, 38986, Note_on_c, 0, 55, 0
2, 38992, Note_on_c, 0, 64, 0
2, 39000, Note_on_c, 0, 60, 0
2, 39022, Note_on_c, 0, 57, 0
2, 39224, Note_on_c, 0, 74, 61
2, 39258, Note_on_c, 0, 74, 0
2, 39395, Note_on_c, 0, 60, 19
2, 39396, Note_on_c, 0, 74, 61
2, 39405, Note_on_c, 0, 64, 17
2, 39405, Note_on_c, 0, 54, 27
2, 39488, Note_on_c, 0, 74, 0
2, 39509, Note_on_c, 0, 76, 54
2, 39585, Note_on_c, 0, 60, 0
2, 39625, Note_on_c, 0, 74, 44
2, 39646, Note_on_c, 0, 76, 0
2, 39754, Note_on_c, 0, 60, 35
2, 39755, Note_on_c, 0, 73, 52
2, 39757, Note_on_c, 0, 74, 0
2, 39839, Note_on_c, 0, 73, 0
2, 39879, Note_on_c, 0, 60, 0
2, 39886, Note_on_c, 0, 64, 0
2, 39914, Note_on_c, 0, 74, 65
2, 40014, Note_on_c, 0, 74, 0
2, 40054, Note_on_c, 0, 76, 50
2, 40150, Note_on_c, 0, 76, 0
2, 40170, Note_on_c, 0, 74, 36
2, 40276, Note_on_c, 0, 74, 0
2, 40289, Note_on_c, 0, 73, 37
2, 40309, Note_on_c, 0, 59, 39
2, 40343, Note_on_c, 0, 62, 19
2, 40361, Note_on_c, 0, 73, 0
2, 40412, Note_on_c, 0, 74, 59
2, 40601, Note_on_c, 0, 74, 0
2, 40687, Note_on_c, 0, 81, 89
2, 40993, Note_on_c, 0, 59, 0
2, 41017, Note_on_c, 0, 54, 0
2, 41059, Note_on_c, 0, 62, 0
2, 41291, Note_on_c, 0, 56, 34
2, 41294, Note_on_c, 0, 62, 40
2, 41295, Note_on_c, 0, 67, 34
2, 41458, Control_c, 0, 64, 127
2, 41674, Control_c, 0, 64, 0
2, 41764, Control_c, 0, 64, 127
2, 41863, Note_on_c, 0, 62, 0
2, 41869, Note_on_c, 0, 67, 0
2, 41990, Note_on_c, 0, 56, 0
2, 42221, Control_c, 0, 64, 0
2, 42241, Note_on_c, 0, 64, 40
2, 42242, Note_on_c, 0, 55, 35
2, 42243, Note_on_c, 0, 60, 32
2, 42244, Note_on_c, 0, 59, 37
2, 42843, Note_on_c, 0, 81, 0
2, 42952, Note_on_c, 0, 64, 0
2, 42963, Note_on_c, 0, 55, 0
2, 43014, Note_on_c, 0, 59, 0
2, 43047, Note_on_c, 0, 76, 83
2, 43151, Note_on_c, 0, 76, 0
2, 43230, Note_on_c, 0, 74, 61
2, 43238, Note_on_c, 0, 64, 24
2, 43240, Note_on_c, 0, 54, 31
2, 43317, Note_on_c, 0, 74, 0
2, 43321, Note_on_c, 0, 76, 51
2, 43432, Note_on_c, 0, 74, 38
2, 43443, Note_on_c, 0, 76, 0
2, 43553, Note_on_c, 0, 73, 43
2, 43555, Note_on_c, 0, 74, 0
2, 43637, Note_on_c, 0, 73, 0
2, 43717, Note_on_c, 0, 74, 68
2, 43722, Note_on_c, 0, 64, 0
2, 43759, Note_on_c, 0, 60, 0
2, 43832, Note_on_c, 0, 74, 0
2, 43841, Note_on_c, 0, 76, 41
2, 43943, Note_on_c, 0, 76, 0
2, 43960, Note_on_c, 0, 74, 31
2, 44069, Note_on_c, 0, 74, 0
2, 44078, Note_on_c, 0, 73, 35
2, 44136, Note_on_c, 0, 59, 34
2, 44154, Note_on_c, 0, 73, 0
2, 44172, Note_on_c, 0, 62, 26
2, 44223, Note_on_c, 0, 74, 54
2, 44391, Note_on_c, 0, 74, 0
2, 44393, Note_on_c, 0, 78, 25
2, 44424, Note_on_c, 0, 78, 0
2, 44468, Note_on_c, 0, 83, 84
2, 44611, Control_c, 0, 64, 127
2, 44799, Note_on_c, 0, 59, 0
2, 44814, Note_on_c, 0, 62, 0
2, 45121, Note_on_c, 0, 62, 30
2, 45133, Control_c, 0, 64, 0
2, 45134, Note_on_c, 0, 59, 32
2, 45249, Control_c, 0, 64, 127
2, 45632, Note_on_c, 0, 59, 0
2, 45677, Note_on_c, 0, 83, 0
2, 45699, Note_on_c, 0, 54, 0
2, 45769, Note_on_c, 0, 62, 0
2, 46060, Note_on_c, 0, 77, 55
2, 46085, Note_on_c, 0, 62, 22
2, 46094, Note_on_c, 0, 56, 30
2, 46095, Note_on_c, 0, 60, 32
2, 46102, Note_on_c, 0, 53, 42
2, 46111, Control_c, 0, 64, 0
2, 46318, Control_c, 0, 64, 127
2, 46617, Note_on_c, 0, 62, 0
2, 46651, Note_on_c, 0, 77, 0
2, 47036, Note_on_c, 0, 68, 32
2, 47037, Note_on_c, 0, 64, 24
2, 47043, Note_on_c, 0, 65, 35
2, 47247, Note_on_c, 0, 68, 0
2, 47252, Note_on_c, 0, 64, 0
2, 47297, Note_on_c, 0, 60, 0
2, 47305, Note_on_c, 0, 65, 0
2, 47402, Note_on_c, 0, 53, 0
2, 47417, Note_on_c, 0, 56, 0
2, 47728, Note_on_c, 0, 67, 51
2, 47784, Note_on_c, 0, 67, 0
2, 47879, Note_on_c, 0, 67, 48
2, 48012, Note_on_c, 0, 67, 0
2, 48067, Note_on_c, 0, 74, 82
2, 48076, Note_on_c, 0, 67, 70
2, 48096, Note_on_c, 0, 63, 69
2, 48101, Note_on_c, 0, 62, 49
2, 48106, Control_c, 0, 64, 0
2, 48321, Control_c, 0, 64, 127
2, 48518, Note_on_c, 0, 61, 39
2, 48546, Note_on_c, 0, 62, 0
2, 48579, Note_on_c, 0, 61, 0
2, 48596, Note_on_c, 0, 60, 55
2, 48688, Note_on_c, 0, 60, 0
2, 48706, Note_on_c, 0, 59, 55
2, 48744, Control_c, 0, 64, 0
2, 48998, Note_on_c, 0, 59, 0
2, 49032, Note_on_c, 0, 62, 46
2, 49226, Note_on_c, 0, 62, 0
2, 49272, Note_on_c, 0, 59, 57
2, 49473, Note_on_c, 0, 59, 0
2, 49534, Control_c, 0, 64, 127
2, 49535, Note_on_c, 0, 60, 46
2, 49742, Note_on_c, 0, 60, 0
2, 49793, Note_on_c, 0, 67, 0
2, 49813, Note_on_c, 0, 63, 0
2, 49933, Note_on_c, 0, 65, 42
2, 49933, Note_on_c, 0, 68, 52
2, 49960, Note_on_c, 0, 60, 30
2, 49974, Control_c, 0, 64, 0
2, 49975, Note_on_c, 0, 62, 18
2, 49976, Note_on_c, 0, 56, 25
2, 49977, Note_on_c, 0, 53, 28
2, 49984, Note_on_c, 0, 74, 0
2, 50190, Control_c, 0, 64, 127
2, 50263, Note_on_c, 0, 65, 0
2, 50280, Note_on_c, 0, 68, 0
2, 50373, Note_on_c, 0, 60, 0
2, 50417, Note_on_c, 0, 62, 0
2, 50422, Note_on_c, 0, 53, 0
2, 50452, Note_on_c, 0, 56, 0
2, 50860, Note_on_c, 0, 63, 56
2, 50866, Note_on_c, 0, 67, 62
2, 50868, Note_on_c, 0, 60, 55
2, 50876, Note_on_c, 0, 56, 50
2, 50880, Note_on_c, 0, 86, 103
2, 50882, Control_c, 0, 64, 0
2, 51007, Control_c, 0, 64, 127
2, 51065, Note_on_c, 0, 86, 0
2, 51215, Note_on_c, 0, 84, 90
2, 51319, Note_on_c, 0, 84, 0
2, 51402, Note_on_c, 0, 82, 67
2, 51408, Note_on_c, 0, 67, 0
2, 51467, Note_on_c, 0, 60, 0
2, 51477, Note_on_c, 0, 82, 0
2, 51484, Note_on_c, 0, 63, 0
2, 51504, Note_on_c, 0, 56, 0
2, 51558, Note_on_c, 0, 81, 62
2, 51685, Note_on_c, 0, 81, 0
2, 51717, Note_on_c, 0, 80, 40
2, 51832, Note_on_c, 0, 80, 0
2, 51856, Note_on_c, 0, 61, 36
2, 51861, Note_on_c, 0, 58, 18
2, 51871, Note_on_c, 0, 55, 30
2, 51877, Note_on_c, 0, 65, 25
2, 51884, Note_on_c, 0, 79, 41
2, 51897, Control_c, 0, 64, 0
2, 52030, Note_on_c, 0, 79, 0
2, 52103, Note_on_c, 0, 84, 80
2, 52212, Note_on_c, 0, 84, 0
2, 52283, Control_c, 0, 64, 127
2, 52402, Note_on_c, 0, 72, 53
2, 52509, Note_on_c, 0, 65, 0
2, 52512, Note_on_c, 0, 72, 0
2, 52523, Note_on_c, 0, 55, 0
2, 52559, Note_on_c, 0, 61, 0
2, 52570, Note_on_c, 0, 58, 0
2, 52724, Note_on_c, 0, 79, 74
2, 52750, Note_on_c, 0, 63, 35
2, 52769, Note_on_c, 0, 52, 20
2, 52821, Control_c, 0, 64, 0
2, 52992, Control_c, 0, 64, 127
2, 53155, Note_on_c, 0, 67, 49
2, 53294, Note_on_c, 0, 79, 0
2, 53365, Note_on_c, 0, 63, 0
2, 53406, Note_on_c, 0, 67, 0
2, 53483, Note_on_c, 0, 52, 0
2, 53663, Note_on_c, 0, 56, 36
2, 53739, Note_on_c, 0, 56, 0
2, 53790, Note_on_c, 0, 70, 38
2, 53797, Note_on_c, 0, 58, 31
2, 53803, Note_on_c, 0, 63, 31
2, 53807, Note_on_c, 0, 67, 35
2, 53814, Note_on_c, 0, 60, 28
2, 53818, Control_c, 0, 64, 0
2, 54032, Note_on_c, 0, 67, 0
2, 54050, Note_on_c, 0, 60, 0
2, 54086, Note_on_c, 0, 63, 0
2, 54115, Note_on_c, 0, 70, 0
2, 54150, Note_on_c, 0, 58, 0
2, 54239, Note_on_c, 0, 68, 35
2, 54242, Note_on_c, 0, 63, 25
2, 54249, Note_on_c, 0, 56, 26
2, 54252, Note_on_c, 0, 60, 33
2, 54285, Control_c, 0, 64, 127
2, 54382, Note_on_c, 0, 60, 0
2, 54394, Note_on_c, 0, 56, 0
2, 54395, Note_on_c, 0, 68, 0
2, 54400, Note_on_c, 0, 63, 0
2, 54619, Note_on_c, 0, 58, 14
2, 54662, Control_c, 0, 64, 0
2, 54728, Note_on_c, 0, 58, 0
2, 54730, Note_on_c, 0, 75, 65
2, 54751, Note_on_c, 0, 68, 34
2, 54752, Note_on_c, 0, 60, 32
2, 54769, Note_on_c, 0, 65, 24
2, 54781, Note_on_c, 0, 68, 0
2, 54797, Note_on_c, 0, 75, 0
2, 54807, Note_on_c, 0, 65, 0
2, 54921, Note_on_c, 0, 60, 0
2, 55080, Note_on_c, 0, 72, 49
2, 55081, Note_on_c, 0, 65, 46
2, 55082, Note_on_c, 0, 60, 46
2, 55085, Note_on_c, 0, 56, 39
2, 55165, Note_on_c, 0, 65, 0
2, 55197, Note_on_c, 0, 72, 0
2, 55199, Note_on_c, 0, 60, 0
2, 55256, Note_on_c, 0, 68, 39
2, 55291, Control_c, 0, 64, 127
2, 55310, Note_on_c, 0, 56, 0
2, 55372, Control_c, 0, 64, 0
2, 55471, Control_c, 0, 64, 127
2, 55551, Note_on_c, 0, 68, 0
2, 55596, Note_on_c, 0, 46, 21
2, 55627, Note_on_c, 0, 46, 0
2, 55713, Control_c, 0, 64, 0
2, 55722, Note_on_c, 0, 67, 36
2, 55730, Note_on_c, 0, 58, 52
2, 55736, Note_on_c, 0, 62, 49
2, 55744, Note_on_c, 0, 59, 44
2, 55850, Note_on_c, 0, 58, 0
2, 56037, Note_on_c, 0, 46, 54
2, 56118, Note_on_c, 0, 46, 0
2, 56241, Note_on_c, 0, 46, 35
2, 56289, Control_c, 0, 64, 127
2, 56302, Note_on_c, 0, 46, 0
2, 56539, Note_on_c, 0, 46, 48
2, 56555, Note_on_c, 0, 59, 0
2, 56589, Note_on_c, 0, 62, 0
2, 56607, Note_on_c, 0, 67, 0
2, 56610, Note_on_c, 0, 46, 0
2, 57004, Note_on_c, 0, 70, 76
2, 57010, Note_on_c, 0, 61, 77
2, 57011, Note_on_c, 0, 56, 59
2, 57013, Note_on_c, 0, 66, 74
2, 57024, Note_on_c, 0, 62, 61
2, 57025, Control_c, 0, 64, 0
2, 57101, Note_on_c, 0, 62, 0
2, 57107, Note_on_c, 0, 61, 0
2, 57110, Note_on_c, 0, 66, 0
2, 57126, Note_on_c, 0, 70, 0
2, 57138, Note_on_c, 0, 56, 0
2, 57316, Note_on_c, 0, 70, 62
2, 57325, Note_on_c, 0, 61, 56
2, 57325, Note_on_c, 0, 56, 53
2, 57327, Note_on_c, 0, 66, 60
2, 57331, Control_c, 0, 64, 127
2, 57530, Note_on_c, 0, 66, 0
2, 57531, Note_on_c, 0, 70, 0
2, 57568, Note_on_c, 0, 61, 0
2, 57622, Note_on_c, 0, 56, 0
2, 57645, Note_on_c, 0, 70, 40
2, 57667, Note_on_c, 0, 60, 49
2, 57669, Note_on_c, 0, 65, 50
2, 57680, Note_on_c, 0, 55, 51
2, 57682, Control_c, 0, 64, 0
2, 59510, Note_on_c, 0, 60, 0
2, 59530, Note_on_c, 0, 65, 0
2, 59567, Note_on_c, 0, 70, 0
2, 59577, Note_on_c, 0, 55, 0
2, 61297, Note_on_c, 0, 76, 122
2, 61426, Note_on_c, 0, 76, 0
2, 61482, Note_on_c, 0, 79, 96
2, 61671, Note_on_c, 0, 79, 0
2, 61748, Note_on_c, 0, 77, 73
2, 61770, Note_on_c, 0, 67, 49
2, 61771, Note_on_c, 0, 63, 47
2, 61788, Note_on_c, 0, 56, 32
2, 61793, Note_on_c, 0, 60, 46
2, 61812, Note_on_c, 0, 67, 0
2, 61836, Note_on_c, 0, 60, 0
2, 61844, Note_on_c, 0, 56, 0
2, 61861, Note_on_c, 0, 77, 0
2, 61876, Note_on_c, 0, 63, 0
2, 61926, Note_on_c, 0, 72, 43
2, 62175, Note_on_c, 0, 72, 0
2, 62211, Note_on_c, 0, 68, 48
2, 62369, Note_on_c, 0, 68, 0
2, 62389, Note_on_c, 0, 56, 25
2, 62392, Note_on_c, 0, 67, 46
2, 62409, Note_on_c, 0, 60, 22
2, 62411, Note_on_c, 0, 62, 24
2, 62816, Note_on_c, 0, 62, 0
2, 62829, Note_on_c, 0, 60, 0
2, 63022, Note_on_c, 0, 56, 0
2, 63347, Note_on_c, 0, 65, 31
2, 63364, Note_on_c, 0, 60, 37
2, 63368, Note_on_c, 0, 55, 31
2, 63369, Note_on_c, 0, 67, 0
2, 63454, Note_on_c, 0, 65, 0
2, 63489, Note_on_c, 0, 60, 0
2, 63512, Note_on_c, 0, 55, 0
2, 64144, Note_on_c, 0, 59, 54
2, 64146, Note_on_c, 0, 64, 39
2, 64186, Note_on_c, 0, 59, 0
2, 64194, Note_on_c, 0, 64, 0
2, 64309, Note_on_c, 0, 70, 45
2, 64546, Note_on_c, 0, 70, 0
2, 64634, Note_on_c, 0, 71, 81
2, 64650, Note_on_c, 0, 58, 60
2, 64666, Note_on_c, 0, 62, 59
2, 64700, Note_on_c, 0, 52, 38
2, 64706, Note_on_c, 0, 62, 0
2, 64741, Note_on_c, 0, 52, 0
2, 64752, Note_on_c, 0, 71, 0
2, 64795, Note_on_c, 0, 58, 0
2, 64824, Note_on_c, 0, 74, 120
2, 65091, Note_on_c, 0, 74, 0
2, 65119, Note_on_c, 0, 73, 92
2, 65149, Note_on_c, 0, 67, 60
2, 65151, Note_on_c, 0, 56, 53
2, 65156, Note_on_c, 0, 63, 51
2, 65163, Note_on_c, 0, 60, 52
2, 65203, Note_on_c, 0, 60, 0
2, 65211, Note_on_c, 0, 67, 0
2, 65272, Note_on_c, 0, 73, 0
2, 65325, Note_on_c, 0, 72, 52
2, 65413, Note_on_c, 0, 56, 0
2, 65452, Note_on_c, 0, 63, 0
2, 65587, Note_on_c, 0, 72, 0
2, 65590, Note_on_c, 0, 68, 72
2, 65629, Note_on_c, 0, 63, 36
2, 65678, Note_on_c, 0, 63, 0
2, 65709, Note_on_c, 0, 68, 0
2, 65781, Note_on_c, 0, 67, 35
2, 65863, Note_on_c, 0, 67, 0
2, 65912, Note_on_c, 0, 65, 55
2, 66035, Note_on_c, 0, 65, 0
2, 66072, Note_on_c, 0, 63, 54
2, 66390, Note_on_c, 0, 63, 0
2, 66407, Note_on_c, 0, 62, 59
2, 66521, Note_on_c, 0, 62, 0
2, 66566, Note_on_c, 0, 60, 42
2, 66610, Note_on_c, 0, 53, 27
2, 66667, Note_on_c, 0, 53, 0
2, 66692, Note_on_c, 0, 60, 0
2, 66724, Note_on_c, 0, 58, 55
2, 67518, Note_on_c, 0, 46, 54
2, 67553, Note_on_c, 0, 46, 0
2, 67979, Note_on_c, 0, 58, 0
2, 68016, Note_on_c, 0, 46, 55
2, 68048, Note_on_c, 0, 46, 0
2, 68159, Note_on_c, 0, 58, 87
2, 68496, Note_on_c, 0, 58, 0
2, 68515, Note_on_c, 0, 46, 45
2, 68574, Note_on_c, 0, 46, 0
2, 68644, Note_on_c, 0, 55, 39
2, 68904, Note_on_c, 0, 55, 0
2, 68987, Note_on_c, 0, 57, 68
2, 69001, Note_on_c, 0, 55, 49
2, 69023, Note_on_c, 0, 52, 46
2, 69031, Note_on_c, 0, 45, 41
2, 69069, Note_on_c, 0, 55, 0
2, 69079, Note_on_c, 0, 45, 0
2, 69121, Note_on_c, 0, 57, 0
2, 69123, Note_on_c, 0, 52, 0
2, 69167, Note_on_c, 0, 58, 54
2, 69295, Note_on_c, 0, 58, 0
2, 69336, Note_on_c, 0, 59, 56
2, 69442, Note_on_c, 0, 59, 0
2, 69480, Note_on_c, 0, 62, 77
2, 69508, Note_on_c, 0, 55, 39
2, 69560, Note_on_c, 0, 52, 30
2, 69564, Note_on_c, 0, 55, 0
2, 69609, Note_on_c, 0, 62, 0
2, 69621, Note_on_c, 0, 52, 0
2, 69648, Note_on_c, 0, 59, 41
2, 69743, Note_on_c, 0, 59, 0
2, 69818, Note_on_c, 0, 60, 53
2, 69908, Note_on_c, 0, 60, 0
2, 69959, Note_on_c, 0, 62, 78
2, 70089, Note_on_c, 0, 62, 0
2, 70143, Note_on_c, 0, 64, 45
2, 70244, Note_on_c, 0, 64, 0
2, 70327, Note_on_c, 0, 65, 74
2, 70472, Note_on_c, 0, 65, 0
2, 70631, Note_on_c, 0, 66, 72
2, 70917, Note_on_c, 0, 60, 37
2, 70942, Note_on_c, 0, 54, 33
2, 70959, Note_on_c, 0, 60, 0
2, 70989, Note_on_c, 0, 54, 0
2, 71368, Note_on_c, 0, 50, 51
2, 71400, Note_on_c, 0, 50, 0
2, 71497, Note_on_c, 0, 66, 0
2, 71528, Note_on_c, 0, 67, 75
2, 71556, Note_on_c, 0, 66, 37
2, 71601, Note_on_c, 0, 66, 0
2, 71781, Note_on_c, 0, 67, 0
2, 71858, Note_on_c, 0, 69, 115
2, 71869, Note_on_c, 0, 62, 61
2, 71885, Note_on_c, 0, 59, 43
2, 71903, Note_on_c, 0, 62, 0
2, 71912, Note_on_c, 0, 57, 34
2, 71923, Note_on_c, 0, 59, 0
2, 71959, Note_on_c, 0, 57, 0
2, 72001, Note_on_c, 0, 69, 0
2, 72068, Note_on_c, 0, 66, 53
2, 72345, Note_on_c, 0, 66, 0
2, 72349, Note_on_c, 0, 62, 53
2, 72435, Note_on_c, 0, 62, 0
2, 72530, Note_on_c, 0, 59, 32
2, 72796, Note_on_c, 0, 59, 0
2, 72825, Note_on_c, 0, 64, 73
2, 72835, Note_on_c, 0, 56, 48
2, 72869, Note_on_c, 0, 56, 0
2, 72952, Note_on_c, 0, 64, 0
2, 73051, Note_on_c, 0, 60, 39
2, 73271, Note_on_c, 0, 60, 0
2, 73303, Note_on_c, 0, 57, 70
2, 73330, Note_on_c, 0, 52, 31
2, 73374, Note_on_c, 0, 52, 0
2, 73436, Note_on_c, 0, 57, 0
2, 73490, Note_on_c, 0, 52, 33
2, 73752, Note_on_c, 0, 52, 0
2, 74424, Note_on_c, 0, 54, 52
2, 74430, Note_on_c, 0, 65, 43
2, 74448, Note_on_c, 0, 60, 48
2, 74586, Note_on_c, 0, 60, 0
2, 74592, Note_on_c, 0, 65, 0
2, 74719, Note_on_c, 0, 54, 0
2, 74931, Note_on_c, 0, 62, 38
2, 74943, Note_on_c, 0, 57, 48
2, 74946, Note_on_c, 0, 59, 47
2, 75134, Note_on_c, 0, 59, 0
2, 75135, Note_on_c, 0, 57, 0
2, 75176, Note_on_c, 0, 62, 0
2, 75737, Note_on_c, 0, 59, 48
2, 75738, Note_on_c, 0, 57, 48
2, 75741, Note_on_c, 0, 62, 33
2, 75778, Note_on_c, 0, 59, 0
2, 75789, Note_on_c, 0, 62, 0
2, 75792, Note_on_c, 0, 57, 0
2, 75893, Note_on_c, 0, 78, 86
2, 75965, Note_on_c, 0, 78, 0
2, 76052, Note_on_c, 0, 79, 73
2, 76221, Note_on_c, 0, 79, 0
2, 76257, Note_on_c, 0, 59, 37
2, 76263, Note_on_c, 0, 57, 35
2, 76307, Note_on_c, 0, 59, 0
2, 76334, Note_on_c, 0, 57, 0
2, 76366, Note_on_c, 0, 74, 61
2, 76475, Note_on_c, 0, 74, 0
2, 76544, Note_on_c, 0, 76, 85
2, 76629, Note_on_c, 0, 76, 0
2, 76695, Note_on_c, 0, 57, 49
2, 76701, Note_on_c, 0, 59, 43
2, 76703, Note_on_c, 0, 62, 25
2, 76743, Note_on_c, 0, 59, 0
2, 76744, Note_on_c, 0, 62, 0
2, 76778, Note_on_c, 0, 57, 0
2, 76870, Note_on_c, 0, 71, 44
2, 76924, Note_on_c, 0, 71, 0
2, 77010, Note_on_c, 0, 74, 76
2, 77109, Note_on_c, 0, 74, 0
2, 77159, Note_on_c, 0, 62, 44
2, 77165, Note_on_c, 0, 56, 40
2, 77188, Note_on_c, 0, 58, 37
2, 77210, Note_on_c, 0, 62, 0
2, 77212, Note_on_c, 0, 56, 0
2, 77235, Note_on_c, 0, 58, 0
2, 77310, Note_on_c, 0, 67, 56
2, 77462, Note_on_c, 0, 70, 72
2, 77470, Note_on_c, 0, 67, 0
2, 77577, Note_on_c, 0, 70, 0
2, 77631, Note_on_c, 0, 62, 54
2, 77645, Note_on_c, 0, 58, 49
2, 77663, Note_on_c, 0, 62, 0
2, 77678, Note_on_c, 0, 55, 39
2, 77687, Note_on_c, 0, 58, 0
2, 77753, Note_on_c, 0, 62, 56
2, 77754, Note_on_c, 0, 55, 0
2, 77889, Note_on_c, 0, 62, 0
2, 77929, Note_on_c, 0, 65, 51
2, 78024, Note_on_c, 0, 65, 0
2, 78069, Note_on_c, 0, 58, 50
2, 78091, Note_on_c, 0, 55, 43
2, 78097, Note_on_c, 0, 58, 0
2, 78137, Note_on_c, 0, 55, 0
2, 78221, Note_on_c, 0, 58, 56
2, 78339, Note_on_c, 0, 58, 0
2, 78411, Note_on_c, 0, 62, 65
2, 78486, Note_on_c, 0, 62, 0
2, 79072, Note_on_c, 0, 63, 43
2, 79076, Note_on_c, 0, 54, 44
2, 79082, Note_on_c, 0, 60, 39
2, 79719, Note_on_c, 0, 63, 0
2, 79814, Note_on_c, 0, 60, 0
2, 79829, Note_on_c, 0, 54, 0
2, 79998, Note_on_c, 0, 63, 58
2, 80002, Note_on_c, 0, 60, 56
2, 80013, Note_on_c, 0, 54, 48
2, 80031, Note_on_c, 0, 63, 0
2, 80073, Note_on_c, 0, 54, 0
2, 80136, Note_on_c, 0, 69, 98
2, 80247, Note_on_c, 0, 69, 0
2, 80309, Note_on_c, 0, 60, 0
2, 80321, Note_on_c, 0, 70, 63
2, 80380, Note_on_c, 0, 70, 0
2, 80398, Note_on_c, 0, 71, 52
2, 80522, Note_on_c, 0, 72, 89
2, 80526, Note_on_c, 0, 71, 0
2, 80545, Note_on_c, 0, 63, 49
2, 80576, Note_on_c, 0, 63, 0
2, 80583, Note_on_c, 0, 60, 36
2, 80596, Note_on_c, 0, 54, 25
2, 80619, Note_on_c, 0, 72, 0
2, 80639, Note_on_c, 0, 60, 0
2, 80653, Note_on_c, 0, 69, 75
2, 80654, Note_on_c, 0, 54, 0
2, 80857, Note_on_c, 0, 69, 0
2, 80943, Note_on_c, 0, 66, 70
2, 80974, Note_on_c, 0, 60, 42
2, 81025, Note_on_c, 0, 60, 0
2, 81094, Note_on_c, 0, 66, 0
2, 81164, Note_on_c, 0, 65, 27
2, 81448, Note_on_c, 0, 60, 51
2, 81453, Note_on_c, 0, 56, 48
2, 81454, Note_on_c, 0, 65, 0
2, 81488, Note_on_c, 0, 60, 0
2, 81573, Note_on_c, 0, 56, 0
2, 81633, Note_on_c, 0, 63, 49
2, 81852, Note_on_c, 0, 63, 0
2, 81919, Note_on_c, 0, 64, 98
2, 81951, Note_on_c, 0, 56, 50
2, 81965, Note_on_c, 0, 60, 46
2, 82006, Note_on_c, 0, 60, 0
2, 82049, Note_on_c, 0, 64, 0
2, 82100, Note_on_c, 0, 56, 0
2, 82123, Note_on_c, 0, 67, 117
2, 82383, Note_on_c, 0, 67, 0
2, 82419, Note_on_c, 0, 64, 53
2, 82556, Note_on_c, 0, 64, 0
2, 82588, Note_on_c, 0, 65, 77
2, 82860, Note_on_c, 0, 65, 0
2, 82868, Note_on_c, 0, 46, 50
2, 82881, Note_on_c, 0, 63, 63
2, 82908, Note_on_c, 0, 56, 36
2, 83028, Note_on_c, 0, 63, 0
2, 83118, Note_on_c, 0, 62, 42
2, 83248, Note_on_c, 0, 56, 0
2, 83327, Note_on_c, 0, 62, 0
2, 83362, Note_on_c, 0, 63, 66
2, 83385, Note_on_c, 0, 56, 39
2, 83440, Note_on_c, 0, 56, 0
2, 83505, Note_on_c, 0, 63, 0
2, 83567, Note_on_c, 0, 64, 44
2, 83760, Note_on_c, 0, 64, 0
2, 83824, Note_on_c, 0, 66, 78
2, 83838, Note_on_c, 0, 56, 57
2, 83919, Note_on_c, 0, 46, 0
2, 83925, Note_on_c, 0, 56, 0
2, 83959, Note_on_c, 0, 66, 0
2, 84026, Note_on_c, 0, 68, 62
2, 84229, Note_on_c, 0, 68, 0
2, 84296, Note_on_c, 0, 71, 68
2, 84392, Note_on_c, 0, 62, 18
2, 84442, Note_on_c, 0, 62, 0
2, 84445, Note_on_c, 0, 71, 0
2, 84526, Note_on_c, 0, 74, 61
2, 84724, Note_on_c, 0, 74, 0
2, 84782, Note_on_c, 0, 77, 102
2, 84794, Note_on_c, 0, 65, 55
2, 84804, Note_on_c, 0, 62, 48
2, 84831, Note_on_c, 0, 60, 40
2, 84851, Note_on_c, 0, 55, 33
2, 84863, Note_on_c, 0, 65, 0
2, 84890, Note_on_c, 0, 60, 0
2, 84907, Note_on_c, 0, 77, 0
2, 84908, Note_on_c, 0, 55, 0
2, 84949, Note_on_c, 0, 62, 0
2, 85011, Note_on_c, 0, 75, 55
2, 85256, Note_on_c, 0, 75, 0
2, 85772, Note_on_c, 0, 60, 57
2, 85775, Note_on_c, 0, 65, 61
2, 85776, Note_on_c, 0, 54, 57
2, 86190, Note_on_c, 0, 65, 0
2, 86211, Note_on_c, 0, 60, 0
2, 86293, Note_on_c, 0, 54, 0
2, 86409, Note_on_c, 0, 63, 68
2, 86420, Note_on_c, 0, 59, 58
2, 86435, Note_on_c, 0, 53, 55
2, 86887, Note_on_c, 0, 59, 0
2, 87015, Note_on_c, 0, 63, 0
2, 87047, Note_on_c, 0, 53, 0
2, 87229, Note_on_c, 0, 58, 54
2, 87237, Note_on_c, 0, 62, 55
2, 87267, Note_on_c, 0, 52, 38
2, 87555, Note_on_c, 0, 74, 65
2, 87576, Note_on_c, 0, 86, 46
2, 87579, Note_on_c, 0, 84, 52
2, 87589, Note_on_c, 0, 58, 0
2, 87601, Note_on_c, 0, 62, 0
2, 87617, Note_on_c, 0, 84, 0
2, 87623, Note_on_c, 0, 86, 0
2, 87657, Note_on_c, 0, 74, 0
2, 87699, Note_on_c, 0, 58, 22
2, 87721, Note_on_c, 0, 82, 53
2, 87807, Note_on_c, 0, 82, 0
2, 87824, Note_on_c, 0, 62, 1
2, 87845, Note_on_c, 0, 52, 0
2, 87862, Note_on_c, 0, 58, 0
2, 87880, Note_on_c, 0, 84, 81
2, 87888, Note_on_c, 0, 72, 66
2, 87982, Note_on_c, 0, 84, 0
2, 87999, Note_on_c, 0, 72, 0
2, 88049, Note_on_c, 0, 62, 0
2, 88058, Note_on_c, 0, 82, 41
2, 88159, Note_on_c, 0, 82, 0
2, 88208, Note_on_c, 0, 84, 72
2, 88211, Note_on_c, 0, 63, 45
2, 88225, Note_on_c, 0, 56, 43
2, 88227, Note_on_c, 0, 72, 47
2, 88233, Note_on_c, 0, 60, 42
2, 88349, Note_on_c, 0, 72, 0
2, 88391, Note_on_c, 0, 84, 0
2, 88424, Note_on_c, 0, 63, 0
2, 88426, Note_on_c, 0, 60, 0
2, 88428, Note_on_c, 0, 56, 0
2, 88518, Note_on_c, 0, 56, 48
2, 88519, Note_on_c, 0, 63, 45
2, 88530, Note_on_c, 0, 87, 73
2, 88535, Note_on_c, 0, 75, 61
2, 88536, Note_on_c, 0, 60, 46
2, 88548, Note_on_c, 0, 67, 43
2, 88623, Note_on_c, 0, 67, 0
2, 88641, Note_on_c, 0, 75, 0
2, 88644, Note_on_c, 0, 87, 0
2, 88670, Note_on_c, 0, 60, 0
2, 88689, Note_on_c, 0, 56, 0
2, 88697, Note_on_c, 0, 63, 0
2, 88715, Note_on_c, 0, 84, 51
2, 88815, Note_on_c, 0, 84, 0
2, 88849, Note_on_c, 0, 87, 81
2, 88856, Note_on_c, 0, 67, 49
2, 88860, Note_on_c, 0, 63, 47
2, 88863, Note_on_c, 0, 56, 46
2, 88864, Note_on_c, 0, 75, 63
2, 88890, Note_on_c, 0, 60, 43
2, 88945, Note_on_c, 0, 60, 0
2, 88954, Note_on_c, 0, 67, 0
2, 88973, Note_on_c, 0, 75, 0
2, 88991, Note_on_c, 0, 87, 0
2, 88993, Note_on_c, 0, 63, 0
2, 89023, Note_on_c, 0, 56, 0
2, 89044, Note_on_c, 0, 84, 51
2, 89100, Note_on_c, 0, 84, 0
2, 89157, Note_on_c, 0, 87, 85
2, 89163, Note_on_c, 0, 75, 81
2, 89178, Note_on_c, 0, 56, 49
2, 89180, Note_on_c, 0, 67, 52
2, 89182, Note_on_c, 0, 63, 52
2, 89195, Note_on_c, 0, 60, 52
2, 89332, Note_on_c, 0, 75, 0
2, 89358, Note_on_c, 0, 87, 0
2, 89384, Note_on_c, 0, 60, 0
2, 89385, Note_on_c, 0, 56, 0
2, 89387, Note_on_c, 0, 63, 0
2, 89393, Note_on_c, 0, 67, 0
2, 89802, Note_on_c, 0, 91, 77
2, 89807, Note_on_c, 0, 67, 52
2, 89809, Note_on_c, 0, 79, 69
2, 89820, Note_on_c, 0, 63, 45
2, 89836, Note_on_c, 0, 60, 47
2, 89850, Note_on_c, 0, 56, 25
2, 89878, Note_on_c, 0, 67, 0
2, 89880, Note_on_c, 0, 60, 0
2, 89885, Note_on_c, 0, 79, 0
2, 89904, Note_on_c, 0, 56, 0
2, 89906, Note_on_c, 0, 91, 0
2, 89931, Note_on_c, 0, 63, 0
2, 89997, Note_on_c, 0, 87, 36
2, 90079, Note_on_c, 0, 87, 0
2, 90126, Note_on_c, 0, 67, 66
2, 90128, Note_on_c, 0, 91, 81
2, 90130, Note_on_c, 0, 63, 57
2, 90141, Note_on_c, 0, 79, 69
2, 90143, Note_on_c, 0, 56, 49
2, 90145, Note_on_c, 0, 60, 57
2, 90262, Note_on_c, 0, 91, 0
2, 90270, Note_on_c, 0, 79, 0
2, 90342, Note_on_c, 0, 56, 0
2, 90349, Note_on_c, 0, 67, 0
2, 90362, Note_on_c, 0, 60, 0
2, 90369, Note_on_c, 0, 63, 0
2, 90452, Note_on_c, 0, 92, 82
2, 90463, Note_on_c, 0, 63, 50
2, 90470, Note_on_c, 0, 67, 65
2, 90473, Note_on_c, 0, 80, 72
2, 90482, Note_on_c, 0, 60, 42
2, 90496, Note_on_c, 0, 56, 42
2, 90538, Note_on_c, 0, 56, 0
2, 90540, Note_on_c, 0, 80, 0
2, 90547, Note_on_c, 0, 67, 0
2, 90580, Note_on_c, 0, 92, 0
2, 90611, Note_on_c, 0, 60, 0
2, 90642, Note_on_c, 0, 63, 0
2, 90667, Note_on_c, 0, 87, 44
2, 90728, Note_on_c, 0, 87, 0
2, 90793, Note_on_c, 0, 63, 56
2, 90794, Note_on_c, 0, 67, 65
2, 90799, Note_on_c, 0, 92, 76
2, 90802, Note_on_c, 0, 56, 56
2, 90814, Note_on_c, 0, 80, 69
2, 90825, Note_on_c, 0, 60, 53
2, 90828, Note_on_c, 0, 87, 63
2, 90950, Note_on_c, 0, 80, 0
2, 90976, Note_on_c, 0, 67, 0
2, 90987, Note_on_c, 0, 92, 0
2, 90989, Note_on_c, 0, 56, 0
2, 91019, Note_on_c, 0, 87, 0
2, 91044, Note_on_c, 0, 63, 0
2, 91061, Note_on_c, 0, 60, 0
2, 91105, Note_on_c, 0, 94, 85
2, 91107, Note_on_c, 0, 82, 85
2, 91111, Note_on_c, 0, 66, 78
2, 91129, Note_on_c, 0, 60, 49
2, 91130, Note_on_c, 0, 87, 56
2, 91136, Note_on_c, 0, 56, 51
2, 91137, Note_on_c, 0, 62, 56
2, 91162, Note_on_c, 0, 87, 0
2, 91220, Note_on_c, 0, 82, 0
2, 91238, Note_on_c, 0, 94, 0
2, 91261, Note_on_c, 0, 92, 52
2, 91267, Note_on_c, 0, 60, 0
2, 91291, Note_on_c, 0, 56, 0
2, 91299, Note_on_c, 0, 62, 0
2, 91308, Note_on_c, 0, 66, 0
2, 91383, Note_on_c, 0, 92, 0
2, 91448, Note_on_c, 0, 66, 81
2, 91451, Note_on_c, 0, 94, 90
2, 91459, Note_on_c, 0, 82, 85
2, 91461, Note_on_c, 0, 87, 81
2, 91463, Note_on_c, 0, 62, 65
2, 91466, Note_on_c, 0, 56, 63
2, 91470, Note_on_c, 0, 60, 65
2, 91650, Note_on_c, 0, 87, 0
2, 91659, Note_on_c, 0, 56, 0
2, 91671, Note_on_c, 0, 82, 0
2, 91671, Note_on_c, 0, 60, 0
2, 91677, Note_on_c, 0, 66, 0
2, 91725, Note_on_c, 0, 94, 0
2, 91730, Note_on_c, 0, 66, 84
2, 91731, Note_on_c, 0, 56, 69
2, 91738, Note_on_c, 0, 95, 78
2, 91750, Note_on_c, 0, 83, 78
2, 91760, Note_on_c, 0, 87, 49
2, 91776, Note_on_c, 0, 60, 51
2, 91780, Note_on_c, 0, 93, 34
2, 91783, Note_on_c, 0, 92, 39
2, 91799, Note_on_c, 0, 87, 0
2, 91815, Note_on_c, 0, 60, 0
2, 91817, Note_on_c, 0, 93, 0
2, 91853, Note_on_c, 0, 92, 0
2, 91889, Note_on_c, 0, 83, 0
2, 91901, Note_on_c, 0, 62, 0
2, 91924, Note_on_c, 0, 56, 0
2, 91930, Note_on_c, 0, 95, 0
2, 91954, Note_on_c, 0, 66, 0
2, 92044, Note_on_c, 0, 63, 83
2, 92045, Note_on_c, 0, 67, 94
2, 92046, Note_on_c, 0, 96, 115
2, 92048, Note_on_c, 0, 56, 84
2, 92050, Note_on_c, 0, 89, 92
2, 92052, Note_on_c, 0, 84, 98
2, 92053, Note_on_c, 0, 92, 82
2, 92055, Note_on_c, 0, 60, 81
2, 93204, Note_on_c, 0, 89, 0
2, 93319, Note_on_c, 0, 63, 0
2, 93374, Note_on_c, 0, 67, 0
2, 93437, Note_on_c, 0, 60, 0
2, 93456, Note_on_c, 0, 56, 0
2, 93523, Note_on_c, 0, 84, 0
2, 93553, Note_on_c, 0, 96, 0
2, 93560, Note_on_c, 0, 92, 0
2, 93618, Note_on_c, 0, 66, 63
2, 93622, Note_on_c, 0, 95, 76
2, 93623, Note_on_c, 0, 56, 55
2, 93664, Note_on_c, 0, 62, 35
2, 93690, Note_on_c, 0, 60, 22
2, 93780, Note_on_c, 0, 60, 0
2, 93842, Note_on_c, 0, 62, 0
2, 93935, Note_on_c, 0, 95, 0
2, 93938, Note_on_c, 0, 66, 0
2, 93961, Note_on_c, 0, 62, 47
2, 93969, Note_on_c, 0, 91, 77
2, 93971, Note_on_c, 0, 65, 69
2, 93981, Note_on_c, 0, 60, 49
2, 93982, Note_on_c, 0, 56, 0
2, 93991, Note_on_c, 0, 55, 54
2, 94019, Note_on_c, 0, 57, 39
2, 94063, Note_on_c, 0, 57, 0
2, 94147, Note_on_c, 0, 91, 0
2, 94272, Note_on_c, 0, 94, 71
2, 94369, Note_on_c, 0, 62, 0
2, 94477, Note_on_c, 0, 94, 0
2, 94482, Note_on_c, 0, 62, 41
2, 94487, Note_on_c, 0, 65, 0
2, 94527, Note_on_c, 0, 62, 0
2, 94584, Note_on_c, 0, 60, 0
2, 94594, Note_on_c, 0, 90, 66
2, 94638, Note_on_c, 0, 55, 0
2, 94890, Note_on_c, 0, 90, 0
2, 94923, Note_on_c, 0, 93, 87
2, 94937, Note_on_c, 0, 62, 70
2, 94955, Note_on_c, 0, 52, 48
2, 94969, Note_on_c, 0, 58, 42
2, 94976, Note_on_c, 0, 62, 0
2, 94999, Note_on_c, 0, 52, 0
2, 95009, Note_on_c, 0, 58, 0
2, 95091, Note_on_c, 0, 93, 0
2, 95172, Note_on_c, 0, 91, 57
2, 95400, Note_on_c, 0, 88, 71
2, 95402, Note_on_c, 0, 91, 0
2, 95534, Note_on_c, 0, 88, 0
2, 95623, Note_on_c, 0, 85, 31
2, 95867, Note_on_c, 0, 85, 0
2, 95871, Note_on_c, 0, 84, 68
2, 95889, Note_on_c, 0, 67, 59
2, 95896, Note_on_c, 0, 63, 48
2, 95924, Note_on_c, 0, 60, 39
2, 95936, Note_on_c, 0, 56, 25
2, 95962, Note_on_c, 0, 67, 0
2, 95972, Note_on_c, 0, 60, 0
2, 95981, Note_on_c, 0, 56, 0
2, 96003, Note_on_c, 0, 84, 0
2, 96028, Note_on_c, 0, 63, 0
2, 96092, Note_on_c, 0, 82, 45
2, 96304, Note_on_c, 0, 82, 0
2, 96378, Note_on_c, 0, 80, 61
2, 96386, Note_on_c, 0, 82, 38
2, 96429, Note_on_c, 0, 82, 0
2, 96503, Note_on_c, 0, 80, 0
2, 96605, Note_on_c, 0, 79, 39
2, 96772, Note_on_c, 0, 79, 0
2, 96869, Note_on_c, 0, 77, 66
2, 96924, Note_on_c, 0, 56, 26
2, 96964, Note_on_c, 0, 56, 0
2, 96979, Note_on_c, 0, 77, 0
2, 97069, Note_on_c, 0, 75, 46
2, 97324, Note_on_c, 0, 75, 0
2, 97474, Note_on_c, 0, 67, 52
2, 97475, Note_on_c, 0, 56, 48
2, 97485, Note_on_c, 0, 74, 56
2, 97499, Note_on_c, 0, 62, 48
2, 97604, Note_on_c, 0, 62, 0
2, 97651, Note_on_c, 0, 67, 0
2, 97720, Note_on_c, 0, 74, 0
2, 97758, Note_on_c, 0, 56, 0
2, 97976, Note_on_c, 0, 77, 122
2, 97980, Note_on_c, 0, 65, 72
2, 97985, Note_on_c, 0, 55, 66
2, 97995, Note_on_c, 0, 60, 60
2, 98209, Note_on_c, 0, 77, 0
2, 98216, Note_on_c, 0, 65, 0
2, 98217, Note_on_c, 0, 60, 0
2, 98226, Note_on_c, 0, 55, 0
2, 98461, Note_on_c, 0, 65, 45
2, 98463, Note_on_c, 0, 55, 49
2, 98479, Note_on_c, 0, 74, 64
2, 98483, Note_on_c, 0, 60, 46
2, 98710, Note_on_c, 0, 55, 0
2, 98712, Note_on_c, 0, 65, 0
2, 98721, Note_on_c, 0, 60, 0
2, 98757, Note_on_c, 0, 74, 0
2, 98933, Note_on_c, 0, 65, 45
2, 98935, Note_on_c, 0, 70, 57
2, 98948, Note_on_c, 0, 60, 45
2, 98951, Note_on_c, 0, 55, 41
2, 99058, Note_on_c, 0, 55, 0
2, 99095, Note_on_c, 0, 60, 0
2, 99112, Note_on_c, 0, 65, 0
2, 99180, Note_on_c, 0, 70, 0
2, 99286, Note_on_c, 0, 67, 60
2, 99302, Note_on_c, 0, 60, 34
2, 99349, Note_on_c, 0, 60, 0
2, 99364, Note_on_c, 0, 67, 0
2, 99428, Note_on_c, 0, 55, 75
2, 99430, Note_on_c, 0, 79, 99
2, 99433, Note_on_c, 0, 60, 73
2, 99434, Note_on_c, 0, 64, 83
2, 99445, Note_on_c, 0, 57, 73
2, 99448, Note_on_c, 0, 72, 76
2, 99527, Note_on_c, 0, 72, 0
2, 99756, Note_on_c, 0, 55, 0
2, 99789, Note_on_c, 0, 64, 0
2, 99795, Note_on_c, 0, 60, 0
2, 99797, Note_on_c, 0, 57, 0
2, 99828, Note_on_c, 0, 79, 0
2, 99892, Note_on_c, 0, 64, 57
2, 99899, Note_on_c, 0, 55, 57
2, 99901, Note_on_c, 0, 60, 50
2, 99903, Note_on_c, 0, 76, 75
2, 99909, Note_on_c, 0, 57, 45
2, 100135, Note_on_c, 0, 64, 0
2, 100137, Note_on_c, 0, 55, 0
2, 100144, Note_on_c, 0, 60, 0
2, 100152, Note_on_c, 0, 57, 0
2, 100165, Note_on_c, 0, 76, 0
2, 100236, Note_on_c, 0, 64, 56
2, 100237, Note_on_c, 0, 72, 83
2, 100243, Note_on_c, 0, 55, 63
2, 100246, Note_on_c, 0, 60, 56
2, 100257, Note_on_c, 0, 57, 59
2, 100351, Note_on_c, 0, 64, 0
2, 100357, Note_on_c, 0, 55, 0
2, 100388, Note_on_c, 0, 60, 0
2, 100397, Note_on_c, 0, 57, 0
2, 100399, Note_on_c, 0, 72, 0
2, 100418, Note_on_c, 0, 55, 34
2, 100437, Note_on_c, 0, 69, 55
2, 100448, Note_on_c, 0, 64, 39
2, 100459, Note_on_c, 0, 60, 24
2, 100461, Note_on_c, 0, 57, 20
2, 100615, Note_on_c, 0, 64, 0
2, 100629, Note_on_c, 0, 57, 0
2, 100633, Note_on_c, 0, 55, 0
2, 100652, Note_on_c, 0, 69, 0
2, 100676, Note_on_c, 0, 60, 0
2, 100850, Note_on_c, 0, 64, 86
2, 100851, Note_on_c, 0, 81, 127
2, 100854, Note_on_c, 0, 54, 86
2, 100856, Note_on_c, 0, 60, 80
2, 100902, Note_on_c, 0, 80, 42
2, 100940, Note_on_c, 0, 80, 0
2, 101111, Note_on_c, 0, 64, 0
2, 101120, Note_on_c, 0, 54, 0
2, 101134, Note_on_c, 0, 60, 0
2, 101147, Note_on_c, 0, 81, 0
2, 101292, Note_on_c, 0, 64, 72
2, 101294, Note_on_c, 0, 54, 75
2, 101296, Note_on_c, 0, 60, 61
2, 101327, Note_on_c, 0, 79, 68
2, 101458, Note_on_c, 0, 79, 0
2, 101485, Note_on_c, 0, 64, 0
2, 101506, Note_on_c, 0, 54, 0
2, 101558, Note_on_c, 0, 60, 0
2, 101613, Note_on_c, 0, 75, 78
2, 101633, Note_on_c, 0, 64, 67
2, 101637, Note_on_c, 0, 60, 75
2, 101639, Note_on_c, 0, 54, 74
2, 101771, Note_on_c, 0, 64, 0
2, 101805, Note_on_c, 0, 75, 0
2, 101848, Note_on_c, 0, 72, 39
2, 101854, Note_on_c, 0, 60, 0
2, 102120, Note_on_c, 0, 72, 0
2, 102130, Note_on_c, 0, 54, 0
2, 102244, Note_on_c, 0, 62, 73
2, 102254, Note_on_c, 0, 59, 65
2, 102260, Note_on_c, 0, 83, 120
2, 102266, Note_on_c, 0, 57, 57
2, 102319, Note_on_c, 0, 82, 38
2, 102359, Note_on_c, 0, 82, 0
2, 102554, Note_on_c, 0, 57, 0
2, 102568, Note_on_c, 0, 62, 0
2, 102582, Note_on_c, 0, 59, 0
2, 102661, Note_on_c, 0, 83, 0
2, 102733, Note_on_c, 0, 62, 58
2, 102735, Note_on_c, 0, 79, 72
2, 102748, Note_on_c, 0, 59, 49
2, 102753, Note_on_c, 0, 57, 52
2, 102788, Note_on_c, 0, 59, 0
2, 102792, Note_on_c, 0, 57, 0
2, 102845, Note_on_c, 0, 62, 0
2, 103027, Note_on_c, 0, 79, 0
2, 103081, Note_on_c, 0, 76, 62
2, 103165, Note_on_c, 0, 76, 0
2, 103571, Note_on_c, 0, 62, 77
2, 103572, Note_on_c, 0, 67, 82
2, 103573, Note_on_c, 0, 86, 117
2, 103574, Note_on_c, 0, 56, 81
2, 103741, Note_on_c, 0, 67, 0
2, 103777, Note_on_c, 0, 62, 0
2, 103794, Note_on_c, 0, 86, 0
2, 103854, Note_on_c, 0, 56, 0
2, 103918, Note_on_c, 0, 64, 66
2, 103922, Note_on_c, 0, 84, 87
2, 103942, Note_on_c, 0, 60, 52
2, 103955, Note_on_c, 0, 57, 49
2, 104119, Note_on_c, 0, 64, 0
2, 104121, Note_on_c, 0, 57, 0
2, 104133, Note_on_c, 0, 60, 0
2, 104147, Note_on_c, 0, 84, 0
2, 104227, Note_on_c, 0, 64, 56
2, 104232, Note_on_c, 0, 83, 82
2, 104239, Note_on_c, 0, 60, 41
2, 104251, Note_on_c, 0, 57, 37
2, 104354, Note_on_c, 0, 60, 0
2, 104361, Note_on_c, 0, 57, 0
2, 104368, Note_on_c, 0, 64, 0
2, 104483, Note_on_c, 0, 83, 0
2, 104530, Note_on_c, 0, 64, 56
2, 104539, Note_on_c, 0, 81, 68
2, 104540, Note_on_c, 0, 60, 45
2, 104551, Note_on_c, 0, 54, 41
2, 104677, Note_on_c, 0, 64, 0
2, 104699, Note_on_c, 0, 81, 0
2, 104720, Note_on_c, 0, 54, 0
2, 104723, Note_on_c, 0, 60, 0
2, 104788, Note_on_c, 0, 54, 34
2, 104804, Note_on_c, 0, 64, 37
2, 104815, Note_on_c, 0, 79, 46
2, 104825, Note_on_c, 0, 60, 41
2, 104919, Note_on_c, 0, 64, 0
2, 104952, Note_on_c, 0, 54, 0
2, 104974, Note_on_c, 0, 60, 0
2, 105034, Note_on_c, 0, 79, 0
2, 105101, Note_on_c, 0, 54, 52
2, 105134, Note_on_c, 0, 64, 27
2, 105136, Note_on_c, 0, 78, 52
2, 105192, Note_on_c, 0, 64, 0
2, 105350, Note_on_c, 0, 54, 0
2, 105424, Note_on_c, 0, 78, 0
2, 105451, Note_on_c, 0, 62, 45
2, 105453, Note_on_c, 0, 81, 66
2, 105485, Note_on_c, 0, 59, 32
2, 105500, Note_on_c, 0, 57, 35
2, 105585, Note_on_c, 0, 81, 0
2, 105670, Note_on_c, 0, 57, 0
2, 105733, Note_on_c, 0, 62, 0
2, 105856, Note_on_c, 0, 59, 0
2, 105918, Note_on_c, 0, 74, 65
2, 105931, Note_on_c, 0, 59, 25
2, 105964, Note_on_c, 0, 57, 28
2, 105987, Note_on_c, 0, 52, 29
2, 106002, Note_on_c, 0, 50, 25
2, 106015, Note_on_c, 0, 74, 0
2, 106044, Note_on_c, 0, 50, 0
2, 106062, Note_on_c, 0, 57, 0
2, 106081, Note_on_c, 0, 59, 0
2, 106116, Note_on_c, 0, 71, 39
2, 106387, Note_on_c, 0, 71, 0
2, 106506, Note_on_c, 0, 57, 31
2, 106558, Note_on_c, 0, 57, 0
2, 106583, Note_on_c, 0, 71, 49
2, 106736, Note_on_c, 0, 52, 0
2, 106839, Note_on_c, 0, 71, 0
2, 106946, Note_on_c, 0, 57, 36
2, 106952, Note_on_c, 0, 59, 26
2, 107009, Note_on_c, 0, 59, 0
2, 107023, Note_on_c, 0, 57, 0
2, 107058, Note_on_c, 0, 71, 63
2, 107391, Note_on_c, 0, 71, 0
2, 107554, Note_on_c, 0, 71, 75
2, 107563, Note_on_c, 0, 63, 39
2, 107566, Note_on_c, 0, 56, 38
2, 107567, Note_on_c, 0, 67, 31
2, 107584, Note_on_c, 0, 60, 36
2, 107667, Note_on_c, 0, 67, 0
2, 107734, Note_on_c, 0, 71, 0
2, 107784, Note_on_c, 0, 72, 47
2, 107867, Note_on_c, 0, 72, 0
2, 107874, Note_on_c, 0, 71, 48
2, 107960, Note_on_c, 0, 71, 0
2, 108022, Note_on_c, 0, 69, 31
2, 108151, Note_on_c, 0, 68, 58
2, 108160, Note_on_c, 0, 69, 0
2, 108274, Note_on_c, 0, 63, 0
2, 108327, Note_on_c, 0, 60, 0
2, 108358, Note_on_c, 0, 56, 0
2, 108471, Note_on_c, 0, 68, 0
2, 108838, Note_on_c, 0, 67, 52
2, 108846, Note_on_c, 0, 63, 47
2, 108875, Note_on_c, 0, 60, 37
2, 108875, Note_on_c, 0, 67, 0
2, 108921, Note_on_c, 0, 60, 0
2, 108949, Note_on_c, 0, 63, 0
2, 109476, Note_on_c, 0, 62, 46
2, 109490, Note_on_c, 0, 51, 39
2, 109522, Note_on_c, 0, 55, 22
2, 109657, Note_on_c, 0, 55, 0
2, 109663, Note_on_c, 0, 62, 0
2, 109672, Note_on_c, 0, 51, 0
2, 110249, Note_on_c, 0, 62, 63
2, 110260, Note_on_c, 0, 51, 47
2, 110280, Note_on_c, 0, 62, 0
2, 110283, Note_on_c, 0, 57, 41
2, 110302, Note_on_c, 0, 51, 0
2, 110345, Note_on_c, 0, 57, 0
2, 110426, Note_on_c, 0, 77, 96
2, 110499, Note_on_c, 0, 77, 0
2, 110554, Note_on_c, 0, 79, 63
2, 110653, Note_on_c, 0, 77, 59
2, 110687, Note_on_c, 0, 79, 0
2, 110733, Note_on_c, 0, 77, 0
2, 110739, Note_on_c, 0, 76, 61
2, 110853, Note_on_c, 0, 76, 0
2, 110858, Note_on_c, 0, 74, 68
2, 110941, Note_on_c, 0, 74, 0
2, 110981, Note_on_c, 0, 75, 72
2, 111234, Note_on_c, 0, 75, 0
2, 111704, Note_on_c, 0, 67, 56
2, 111720, Note_on_c, 0, 63, 49
2, 111740, Note_on_c, 0, 67, 0
2, 111811, Note_on_c, 0, 63, 0
2, 112049, Note_on_c, 0, 79, 84
2, 112149, Note_on_c, 0, 79, 0
2, 112210, Note_on_c, 0, 75, 75
2, 112297, Note_on_c, 0, 75, 0
2, 112387, Note_on_c, 0, 77, 82
2, 112567, Note_on_c, 0, 77, 0
2, 112669, Note_on_c, 0, 74, 81
2, 112680, Note_on_c, 0, 67, 60
2, 112694, Note_on_c, 0, 56, 39
2, 112710, Note_on_c, 0, 62, 47
2, 112719, Note_on_c, 0, 67, 0
2, 112754, Note_on_c, 0, 62, 0
2, 112758, Note_on_c, 0, 74, 0
2, 112823, Note_on_c, 0, 56, 0
2, 112863, Note_on_c, 0, 70, 48
2, 113156, Note_on_c, 0, 70, 0
2, 113187, Note_on_c, 0, 67, 48
2, 113192, Note_on_c, 0, 62, 39
2, 113195, Note_on_c, 0, 53, 48
2, 113206, Note_on_c, 0, 58, 40
2, 113234, Note_on_c, 0, 62, 0
2, 113251, Note_on_c, 0, 58, 0
2, 113256, Note_on_c, 0, 67, 0
2, 113295, Note_on_c, 0, 53, 0
2, 113348, Note_on_c, 0, 70, 75
2, 113661, Note_on_c, 0, 61, 59
2, 113709, Note_on_c, 0, 70, 0
2, 113762, Note_on_c, 0, 61, 0
2, 113847, Note_on_c, 0, 60, 49
2, 114137, Note_on_c, 0, 58, 59
2, 114172, Note_on_c, 0, 58, 0
2, 114647, Note_on_c, 0, 50, 28
2, 114669, Note_on_c, 0, 60, 0
2, 114690, Note_on_c, 0, 50, 0
2, 114730, Note_on_c, 0, 66, 77
2, 115006, Note_on_c, 0, 66, 0
2, 115118, Note_on_c, 0, 53, 56
2, 115129, Note_on_c, 0, 63, 38
2, 115175, Note_on_c, 0, 63, 0
2, 115203, Note_on_c, 0, 53, 0
2, 115228, Note_on_c, 0, 56, 71
2, 115239, Note_on_c, 0, 55, 61
2, 115245, Note_on_c, 0, 67, 56
2, 115251, Note_on_c, 0, 63, 42
2, 115252, Note_on_c, 0, 66, 22
2, 115277, Note_on_c, 0, 60, 31
2, 115510, Note_on_c, 0, 60, 0
2, 115520, Note_on_c, 0, 67, 0
2, 115526, Note_on_c, 0, 56, 0
2, 115533, Note_on_c, 0, 66, 0
2, 115550, Note_on_c, 0, 63, 0
2, 115591, Note_on_c, 0, 55, 0
2, 115690, Note_on_c, 0, 65, 50
2, 115691, Note_on_c, 0, 56, 48
2, 115693, Note_on_c, 0, 53, 55
2, 115707, Note_on_c, 0, 60, 39
2, 115812, Note_on_c, 0, 56, 0
2, 115834, Note_on_c, 0, 60, 0
2, 115862, Note_on_c, 0, 65, 0
2, 115864, Note_on_c, 0, 53, 0
2, 116191, Note_on_c, 0, 46, 58
2, 116241, Note_on_c, 0, 46, 0
2, 117152, Note_on_c, 0, 70, 85
2, 117155, Note_on_c, 0, 82, 81
2, 117157, Note_on_c, 0, 66, 63
2, 117164, Note_on_c, 0, 78, 65
2, 117165, Note_on_c, 0, 56, 58
2, 117167, Note_on_c, 0, 62, 57
2, 117334, Note_on_c, 0, 70, 0
2, 117373, Note_on_c, 0, 78, 0
2, 117384, Note_on_c, 0, 56, 0
2, 117390, Note_on_c, 0, 66, 0
2, 117395, Note_on_c, 0, 82, 0
2, 117448, Note_on_c, 0, 62, 0
2, 117484, Note_on_c, 0, 85, 68
2, 117486, Note_on_c, 0, 66, 66
2, 117488, Note_on_c, 0, 80, 68
2, 117490, Note_on_c, 0, 56, 62
2, 117493, Note_on_c, 0, 73, 61
2, 117494, Note_on_c, 0, 62, 45
2, 117569, Note_on_c, 0, 73, 0
2, 117577, Note_on_c, 0, 85, 0
2, 117593, Note_on_c, 0, 66, 0
2, 117600, Note_on_c, 0, 80, 0
2, 117609, Note_on_c, 0, 56, 0
2, 117669, Note_on_c, 0, 66, 58
2, 117673, Note_on_c, 0, 82, 48
2, 117684, Note_on_c, 0, 56, 41
2, 117686, Note_on_c, 0, 70, 35
2, 117871, Note_on_c, 0, 66, 0
2, 117872, Note_on_c, 0, 56, 0
2, 117902, Note_on_c, 0, 70, 0
2, 117909, Note_on_c, 0, 82, 0
2, 117943, Note_on_c, 0, 62, 0
2, 117987, Note_on_c, 0, 66, 58
2, 117994, Note_on_c, 0, 70, 53
2, 117997, Note_on_c, 0, 82, 58
2, 118007, Note_on_c, 0, 62, 33
2, 118017, Note_on_c, 0, 56, 40
2, 118026, Note_on_c, 0, 66, 0
2, 118037, Note_on_c, 0, 70, 0
2, 118043, Note_on_c, 0, 82, 0
2, 118054, Note_on_c, 0, 62, 0
2, 118062, Note_on_c, 0, 56, 0
2, 118457, Note_on_c, 0, 73, 85
2, 118464, Note_on_c, 0, 85, 89
2, 118466, Note_on_c, 0, 62, 66
2, 118476, Note_on_c, 0, 80, 74
2, 118506, Note_on_c, 0, 60, 33
2, 118510, Note_on_c, 0, 56, 24
2, 118562, Note_on_c, 0, 60, 0
2, 118584, Note_on_c, 0, 73, 0
2, 118601, Note_on_c, 0, 80, 0
2, 118604, Note_on_c, 0, 85, 0
2, 118609, Note_on_c, 0, 66, 46
2, 118659, Note_on_c, 0, 82, 57
2, 118668, Note_on_c, 0, 70, 55
2, 118742, Note_on_c, 0, 66, 0
2, 118779, Note_on_c, 0, 70, 0
2, 118799, Note_on_c, 0, 82, 0
2, 118861, Note_on_c, 0, 56, 0
2, 118863, Note_on_c, 0, 62, 0
2, 118937, Note_on_c, 0, 86, 86
2, 118939, Note_on_c, 0, 65, 79
2, 118942, Note_on_c, 0, 74, 87
2, 118945, Note_on_c, 0, 62, 77
2, 118950, Note_on_c, 0, 79, 80
2, 118955, Note_on_c, 0, 55, 68
2, 118957, Note_on_c, 0, 82, 52
2, 118958, Note_on_c, 0, 60, 58
2, 118963, Note_on_c, 0, 84, 56
2, 118993, Note_on_c, 0, 84, 0
2, 119306, Note_on_c, 0, 55, 0
2, 119312, Note_on_c, 0, 79, 0
2, 119326, Note_on_c, 0, 65, 0
2, 119330, Note_on_c, 0, 86, 0
2, 119333, Note_on_c, 0, 74, 0
2, 119335, Note_on_c, 0, 82, 0
2, 119358, Note_on_c, 0, 60, 0
2, 119359, Note_on_c, 0, 62, 0
2, 119409, Note_on_c, 0, 65, 60
2, 119418, Note_on_c, 0, 74, 66
2, 119420, Note_on_c, 0, 62, 57
2, 119428, Note_on_c, 0, 55, 42
2, 119431, Note_on_c, 0, 60, 51
2, 119435, Note_on_c, 0, 82, 56
2, 119442, Note_on_c, 0, 79, 51
2, 119451, Note_on_c, 0, 74, 0
2, 119471, Note_on_c, 0, 60, 0
2, 119472, Note_on_c, 0, 55, 0
2, 119487, Note_on_c, 0, 65, 0
2, 119489, Note_on_c, 0, 82, 0
2, 119501, Note_on_c, 0, 79, 0
2, 119505, Note_on_c, 0, 62, 0
2, 119593, Note_on_c, 0, 65, 39
2, 119598, Note_on_c, 0, 62, 56
2, 119605, Note_on_c, 0, 82, 33
2, 119610, Note_on_c, 0, 60, 54
2, 119616, Note_on_c, 0, 70, 37
2, 119619, Note_on_c, 0, 55, 36
2, 119627, Note_on_c, 0, 80, 39
2, 119767, Note_on_c, 0, 82, 0
2, 119810, Note_on_c, 0, 70, 0
2, 119813, Note_on_c, 0, 55, 0
2, 119818, Note_on_c, 0, 60, 0
2, 119837, Note_on_c, 0, 65, 0
2, 119844, Note_on_c, 0, 80, 0
2, 119855, Note_on_c, 0, 62, 0
2, 120034, Note_on_c, 0, 65, 52
2, 120045, Note_on_c, 0, 82, 60
2, 120048, Note_on_c, 0, 62, 41
2, 120054, Note_on_c, 0, 70, 53
2, 120055, Note_on_c, 0, 60, 49
2, 120058, Note_on_c, 0, 55, 43
2, 120480, Control_c, 0, 64, 127
2, 120627, Note_on_c, 0, 65, 0
2, 120649, Note_on_c, 0, 62, 0
2, 120679, Note_on_c, 0, 60, 0
2, 120706, Note_on_c, 0, 55, 0
2, 120743, Note_on_c, 0, 70, 0
2, 121099, Note_on_c, 0, 82, 0
2, 121276, Control_c, 0, 64, 0
2, 121347, Note_on_c, 0, 58, 58
2, 121349, Note_on_c, 0, 63, 65
2, 121369, Note_on_c, 0, 52, 49
2, 121444, Note_on_c, 0, 63, 0
2, 121470, Note_on_c, 0, 52, 0
2, 121517, Note_on_c, 0, 58, 0
2, 121538, Note_on_c, 0, 99, 85
2, 121754, Note_on_c, 0, 99, 0
2, 121842, Note_on_c, 0, 100, 96
2, 122029, Note_on_c, 0, 100, 0
2, 122133, Note_on_c, 0, 95, 64
2, 122310, Note_on_c, 0, 95, 0
2, 122347, Note_on_c, 0, 98, 88
2, 122349, Note_on_c, 0, 58, 57
2, 122353, Note_on_c, 0, 63, 56
2, 122373, Note_on_c, 0, 52, 43
2, 122429, Note_on_c, 0, 63, 0
2, 122434, Note_on_c, 0, 52, 0
2, 122513, Note_on_c, 0, 58, 0
2, 122525, Note_on_c, 0, 98, 0
2, 122574, Note_on_c, 0, 97, 60
2, 122738, Note_on_c, 0, 97, 0
2, 122810, Note_on_c, 0, 63, 55
2, 122814, Note_on_c, 0, 96, 76
2, 122823, Note_on_c, 0, 67, 55
2, 122832, Note_on_c, 0, 60, 49
2, 122931, Note_on_c, 0, 56, 4
2, 122951, Note_on_c, 0, 96, 0
2, 123040, Note_on_c, 0, 92, 50
2, 123072, Note_on_c, 0, 56, 0
2, 123179, Note_on_c, 0, 60, 0
2, 123203, Note_on_c, 0, 63, 0
2, 123250, Note_on_c, 0, 92, 0
2, 123288, Note_on_c, 0, 91, 72
2, 123314, Note_on_c, 0, 63, 29
2, 123342, Note_on_c, 0, 67, 0
2, 123437, Note_on_c, 0, 91, 0
2, 123446, Note_on_c, 0, 63, 0
2, 123499, Note_on_c, 0, 94, 68
2, 123738, Note_on_c, 0, 94, 0
2, 123776, Note_on_c, 0, 91, 61
2, 123830, Note_on_c, 0, 67, 41
2, 123851, Note_on_c, 0, 56, 31
2, 123870, Note_on_c, 0, 62, 40
2, 123902, Note_on_c, 0, 60, 27
2, 123907, Note_on_c, 0, 91, 0
2, 124026, Note_on_c, 0, 86, 51
2, 124262, Note_on_c, 0, 86, 0
2, 124385, Note_on_c, 0, 86, 54
2, 124406, Note_on_c, 0, 60, 0
2, 124423, Note_on_c, 0, 67, 0
2, 124431, Note_on_c, 0, 62, 0
2, 124491, Note_on_c, 0, 56, 0
2, 124685, Note_on_c, 0, 65, 41
2, 124701, Note_on_c, 0, 60, 45
2, 124702, Note_on_c, 0, 87, 51
2, 124711, Note_on_c, 0, 62, 38
2, 124733, Note_on_c, 0, 55, 33
2, 124746, Note_on_c, 0, 86, 0
2, 124858, Note_on_c, 0, 87, 0
2, 124949, Note_on_c, 0, 89, 62
2, 125037, Note_on_c, 0, 62, 0
2, 125098, Note_on_c, 0, 89, 0
2, 125222, Note_on_c, 0, 65, 0
2, 125259, Note_on_c, 0, 60, 0
2, 125292, Note_on_c, 0, 79, 54
2, 125336, Note_on_c, 0, 55, 0
2, 125602, Note_on_c, 0, 79, 0
2, 126111, Note_on_c, 0, 63, 47
2, 126139, Note_on_c, 0, 58, 44
2, 126190, Note_on_c, 0, 58, 0
2, 126223, Note_on_c, 0, 63, 0
2, 126773, Note_on_c, 0, 56, 39
2, 126785, Note_on_c, 0, 63, 40
2, 126803, Note_on_c, 0, 60, 44
2, 126962, Note_on_c, 0, 63, 0
2, 127011, Note_on_c, 0, 60, 0
2, 127130, Note_on_c, 0, 63, 39
2, 127190, Note_on_c, 0, 56, 0
2, 127263, Note_on_c, 0, 84, 68
2, 127263, Note_on_c, 0, 80, 74
2, 127310, Note_on_c, 0, 63, 0
2, 127314, Note_on_c, 0, 84, 0
2, 127336, Note_on_c, 0, 80, 0
2, 127420, Note_on_c, 0, 80, 49
2, 127423, Note_on_c, 0, 84, 55
2, 127495, Note_on_c, 0, 80, 0
2, 127505, Note_on_c, 0, 84, 0
2, 127735, Note_on_c, 0, 56, 53
2, 127740, Note_on_c, 0, 67, 60
2, 127753, Note_on_c, 0, 80, 85
2, 127755, Note_on_c, 0, 84, 81
2, 127772, Note_on_c, 0, 60, 48
2, 127781, Note_on_c, 0, 62, 45
2, 127964, Note_on_c, 0, 67, 0
2, 127987, Note_on_c, 0, 60, 0
2, 127988, Note_on_c, 0, 56, 0
2, 127989, Note_on_c, 0, 62, 0
2, 127999, Note_on_c, 0, 84, 0
2, 128015, Note_on_c, 0, 80, 0
2, 128052, Note_on_c, 0, 79, 63
2, 128056, Note_on_c, 0, 82, 68
2, 128056, Note_on_c, 0, 67, 50
2, 128074, Note_on_c, 0, 56, 45
2, 128094, Note_on_c, 0, 62, 52
2, 128102, Note_on_c, 0, 60, 45
2, 128134, Note_on_c, 0, 62, 0
2, 128137, Note_on_c, 0, 67, 0
2, 128139, Note_on_c, 0, 60, 0
2, 128158, Note_on_c, 0, 79, 0
2, 128160, Note_on_c, 0, 82, 0
2, 128248, Note_on_c, 0, 77, 41
2, 128263, Note_on_c, 0, 80, 46
2, 128266, Note_on_c, 0, 67, 24
2, 128291, Note_on_c, 0, 62, 26
2, 128334, Note_on_c, 0, 67, 0
2, 128355, Note_on_c, 0, 62, 0
2, 128356, Note_on_c, 0, 77, 0
2, 128387, Note_on_c, 0, 80, 0
2, 128425, Note_on_c, 0, 56, 0
2, 128514, Note_on_c, 0, 75, 67
2, 128530, Note_on_c, 0, 79, 67
2, 128543, Note_on_c, 0, 62, 38
2, 128555, Note_on_c, 0, 55, 42
2, 128556, Note_on_c, 0, 65, 31
2, 128576, Note_on_c, 0, 60, 22
2, 128615, Note_on_c, 0, 65, 0
2, 128638, Note_on_c, 0, 62, 0
2, 128639, Note_on_c, 0, 60, 0
2, 128649, Note_on_c, 0, 55, 0
2, 128669, Note_on_c, 0, 75, 0
2, 128681, Note_on_c, 0, 79, 0
2, 128755, Note_on_c, 0, 65, 21
2, 128757, Note_on_c, 0, 62, 27
2, 128760, Note_on_c, 0, 77, 49
2, 128765, Note_on_c, 0, 60, 37
2, 128769, Note_on_c, 0, 55, 35
2, 128771, Note_on_c, 0, 74, 36
2, 128949, Note_on_c, 0, 74, 0
2, 128965, Note_on_c, 0, 60, 0
2, 128971, Note_on_c, 0, 65, 0
2, 128980, Note_on_c, 0, 55, 0
2, 129019, Note_on_c, 0, 62, 0
2, 129094, Note_on_c, 0, 77, 0
2, 129143, Note_on_c, 0, 65, 45
2, 129146, Note_on_c, 0, 75, 56
2, 129162, Note_on_c, 0, 55, 39
2, 129166, Note_on_c, 0, 62, 39
2, 129168, Note_on_c, 0, 79, 56
2, 129178, Note_on_c, 0, 60, 43
2, 129303, Note_on_c, 0, 79, 0
2, 129352, Note_on_c, 0, 75, 0
2, 129391, Note_on_c, 0, 60, 0
2, 129392, Note_on_c, 0, 55, 0
2, 129410, Note_on_c, 0, 62, 0
2, 129417, Note_on_c, 0, 65, 0
2, 129619, Note_on_c, 0, 70, 45
2, 129621, Note_on_c, 0, 65, 33
2, 129633, Note_on_c, 0, 74, 47
2, 129639, Note_on_c, 0, 55, 34
2, 129649, Note_on_c, 0, 62, 38
2, 129652, Note_on_c, 0, 60, 35
2, 129747, Note_on_c, 0, 70, 0
2, 129775, Note_on_c, 0, 62, 0
2, 129788, Note_on_c, 0, 74, 0
2, 129793, Note_on_c, 0, 60, 0
2, 129794, Note_on_c, 0, 55, 0
2, 129802, Note_on_c, 0, 65, 0
2, 130093, Note_on_c, 0, 70, 51
2, 130095, Note_on_c, 0, 65, 49
2, 130097, Note_on_c, 0, 74, 57
2, 130119, Note_on_c, 0, 62, 42
2, 130123, Note_on_c, 0, 60, 45
2, 130129, Note_on_c, 0, 55, 34
2, 130263, Note_on_c, 0, 62, 0
2, 130264, Note_on_c, 0, 74, 0
2, 130276, Note_on_c, 0, 60, 0
2, 130278, Note_on_c, 0, 65, 0
2, 130326, Note_on_c, 0, 70, 0
2, 130348, Note_on_c, 0, 55, 0
2, 130575, Note_on_c, 0, 67, 43
2, 130581, Note_on_c, 0, 72, 49
2, 130586, Note_on_c, 0, 64, 36
2, 130598, Note_on_c, 0, 60, 40
2, 130600, Note_on_c, 0, 55, 36
2, 130602, Note_on_c, 0, 59, 40
2, 130717, Note_on_c, 0, 67, 0
2, 130723, Note_on_c, 0, 72, 0
2, 130782, Note_on_c, 0, 60, 0
2, 130788, Note_on_c, 0, 59, 0
2, 130794, Note_on_c, 0, 64, 0
2, 130795, Note_on_c, 0, 55, 0
2, 131581, Note_on_c, 0, 64, 32
2, 131588, Note_on_c, 0, 54, 36
2, 131601, Note_on_c, 0, 60, 42
2, 131607, Note_on_c, 0, 59, 41
2, 131995, Note_on_c, 0, 59, 0
2, 132009, Note_on_c, 0, 64, 0
2, 132040, Note_on_c, 0, 60, 0
2, 132133, Note_on_c, 0, 54, 0
2, 132361, Note_on_c, 0, 62, 54
2, 132369, Note_on_c, 0, 54, 39
2, 132372, Note_on_c, 0, 59, 49
2, 132380, Note_on_c, 0, 57, 41
2, 132696, Note_on_c, 0, 59, 0
2, 132803, Note_on_c, 0, 59, 40
2, 132902, Note_on_c, 0, 62, 0
2, 133014, Note_on_c, 0, 83, 69
2, 133014, Note_on_c, 0, 59, 0
2, 133076, Note_on_c, 0, 57, 0
2, 133090, Note_on_c, 0, 84, 63
2, 133091, Note_on_c, 0, 83, 0
2, 133109, Note_on_c, 0, 54, 0
2, 133157, Note_on_c, 0, 84, 0
2, 133178, Note_on_c, 0, 83, 65
2, 133309, Note_on_c, 0, 82, 73
2, 133327, Note_on_c, 0, 83, 0
2, 133355, Note_on_c, 0, 59, 26
2, 133401, Note_on_c, 0, 82, 0
2, 133474, Note_on_c, 0, 83, 75
2, 133475, Note_on_c, 0, 59, 0
2, 133570, Note_on_c, 0, 83, 0
2, 133803, Note_on_c, 0, 86, 89
2, 133819, Note_on_c, 0, 84, 61
2, 133849, Note_on_c, 0, 84, 0
2, 133963, Note_on_c, 0, 86, 0
2, 134026, Note_on_c, 0, 87, 73
2, 134196, Note_on_c, 0, 87, 0
2, 134278, Note_on_c, 0, 88, 96
2, 134398, Note_on_c, 0, 88, 0
2, 134471, Note_on_c, 0, 89, 107
2, 134651, Note_on_c, 0, 89, 0
2, 134758, Note_on_c, 0, 87, 69
2, 134796, Note_on_c, 0, 64, 43
2, 134808, Note_on_c, 0, 60, 39
2, 134820, Note_on_c, 0, 57, 41
2, 134872, Note_on_c, 0, 64, 0
2, 134897, Note_on_c, 0, 87, 0
2, 134939, Note_on_c, 0, 60, 0
2, 134960, Note_on_c, 0, 88, 80
2, 134965, Note_on_c, 0, 57, 0
2, 135193, Note_on_c, 0, 88, 0
2, 135236, Note_on_c, 0, 84, 70
2, 135256, Note_on_c, 0, 54, 49
2, 135263, Note_on_c, 0, 60, 46
2, 135265, Note_on_c, 0, 64, 44
2, 135391, Note_on_c, 0, 84, 0
2, 135451, Note_on_c, 0, 81, 56
2, 135555, Note_on_c, 0, 60, 0
2, 135601, Note_on_c, 0, 64, 0
2, 135645, Note_on_c, 0, 81, 0
2, 135726, Note_on_c, 0, 79, 53
2, 135748, Note_on_c, 0, 81, 30
2, 135762, Note_on_c, 0, 60, 29
2, 135788, Note_on_c, 0, 81, 0
2, 135819, Note_on_c, 0, 60, 0
2, 135825, Note_on_c, 0, 79, 0
2, 135901, Note_on_c, 0, 78, 52
2, 136118, Note_on_c, 0, 54, 0
2, 136130, Note_on_c, 0, 78, 0
2, 136213, Note_on_c, 0, 81, 75
2, 136233, Note_on_c, 0, 62, 45
2, 136233, Note_on_c, 0, 54, 33
2, 136245, Note_on_c, 0, 59, 37
2, 136323, Note_on_c, 0, 54, 0
2, 136342, Note_on_c, 0, 62, 0
2, 136345, Note_on_c, 0, 81, 0
2, 136429, Note_on_c, 0, 78, 57
2, 136435, Note_on_c, 0, 59, 0
2, 136706, Note_on_c, 0, 62, 40
2, 136712, Note_on_c, 0, 59, 43
2, 136716, Note_on_c, 0, 54, 37
2, 136757, Note_on_c, 0, 62, 0
2, 136770, Note_on_c, 0, 54, 0
2, 136778, Note_on_c, 0, 59, 0
2, 136912, Note_on_c, 0, 78, 0
2, 137169, Note_on_c, 0, 62, 35
2, 137175, Note_on_c, 0, 59, 52
2, 137229, Note_on_c, 0, 62, 0
2, 137306, Note_on_c, 0, 59, 0
2, 137345, Note_on_c, 0, 71, 48
2, 137390, Note_on_c, 0, 71, 0
2, 137410, Note_on_c, 0, 72, 49
2, 137460, Note_on_c, 0, 72, 0
2, 137500, Note_on_c, 0, 71, 49
2, 137636, Note_on_c, 0, 70, 68
2, 137648, Note_on_c, 0, 71, 0
2, 137670, Note_on_c, 0, 62, 37
2, 137682, Note_on_c, 0, 59, 39
2, 137728, Note_on_c, 0, 62, 0
2, 137740, Note_on_c, 0, 70, 0
2, 137766, Note_on_c, 0, 71, 64
2, 137833, Note_on_c, 0, 71, 0
2, 137835, Note_on_c, 0, 59, 0
2, 137931, Note_on_c, 0, 74, 75
2, 138041, Note_on_c, 0, 74, 0
2, 138048, Note_on_c, 0, 76, 66
2, 138130, Note_on_c, 0, 74, 63
2, 138180, Note_on_c, 0, 76, 0
2, 138213, Note_on_c, 0, 73, 67
2, 138241, Note_on_c, 0, 74, 0
2, 138290, Note_on_c, 0, 73, 0
2, 138361, Note_on_c, 0, 74, 69
2, 138504, Note_on_c, 0, 74, 0
2, 138565, Note_on_c, 0, 79, 92
2, 138694, Note_on_c, 0, 79, 0
2, 138724, Note_on_c, 0, 58, 32
2, 138784, Note_on_c, 0, 58, 0
2, 138811, Note_on_c, 0, 74, 79
2, 138972, Note_on_c, 0, 74, 0
2, 139069, Note_on_c, 0, 70, 65
2, 139126, Note_on_c, 0, 58, 31
2, 139139, Note_on_c, 0, 62, 23
2, 139201, Note_on_c, 0, 62, 0
2, 139212, Note_on_c, 0, 58, 0
2, 139219, Note_on_c, 0, 70, 0
2, 139285, Note_on_c, 0, 67, 46
2, 139476, Note_on_c, 0, 67, 0
2, 140196, Note_on_c, 0, 63, 57
2, 140213, Note_on_c, 0, 54, 49
2, 140220, Note_on_c, 0, 60, 52
2, 140227, Note_on_c, 0, 57, 49
2, 140238, Note_on_c, 0, 76, 82
2, 140266, Note_on_c, 0, 60, 0
2, 140282, Note_on_c, 0, 75, 46
2, 140313, Note_on_c, 0, 63, 0
2, 140320, Note_on_c, 0, 75, 0
2, 140326, Note_on_c, 0, 54, 0
2, 140349, Note_on_c, 0, 57, 0
2, 140416, Note_on_c, 0, 76, 0
2, 140986, Note_on_c, 0, 63, 67
2, 141001, Note_on_c, 0, 54, 44
2, 141016, Note_on_c, 0, 63, 0
2, 141029, Note_on_c, 0, 60, 35
2, 141045, Note_on_c, 0, 54, 0
2, 141063, Note_on_c, 0, 57, 25
2, 141087, Note_on_c, 0, 60, 0
2, 141123, Note_on_c, 0, 57, 0
2, 141132, Note_on_c, 0, 78, 98
2, 141357, Note_on_c, 0, 78, 0
2, 141624, Note_on_c, 0, 75, 84
2, 141707, Note_on_c, 0, 76, 49
2, 141805, Note_on_c, 0, 76, 0
2, 141820, Note_on_c, 0, 75, 0
2, 141955, Note_on_c, 0, 72, 58
2, 141962, Note_on_c, 0, 63, 52
2, 141975, Note_on_c, 0, 60, 43
2, 141977, Note_on_c, 0, 56, 35
2, 142027, Note_on_c, 0, 60, 0
2, 142029, Note_on_c, 0, 56, 0
2, 142100, Note_on_c, 0, 72, 0
2, 142107, Note_on_c, 0, 63, 0
2, 142160, Note_on_c, 0, 68, 50
2, 142384, Note_on_c, 0, 68, 0
2, 142467, Note_on_c, 0, 63, 30
2, 142478, Note_on_c, 0, 60, 36
2, 142516, Note_on_c, 0, 63, 0
2, 142553, Note_on_c, 0, 60, 0
2, 142939, Note_on_c, 0, 67, 64
2, 142959, Note_on_c, 0, 56, 36
2, 142961, Note_on_c, 0, 62, 48
2, 142969, Note_on_c, 0, 67, 0
2, 142972, Note_on_c, 0, 60, 44
2, 143002, Note_on_c, 0, 62, 0
2, 143008, Note_on_c, 0, 56, 0
2, 143011, Note_on_c, 0, 60, 0
2, 143067, Note_on_c, 0, 77, 117
2, 143329, Note_on_c, 0, 77, 0
2, 143392, Note_on_c, 0, 63, 38
2, 143438, Note_on_c, 0, 63, 0
2, 143553, Note_on_c, 0, 72, 94
2, 143823, Note_on_c, 0, 72, 0
2, 143871, Note_on_c, 0, 68, 72
2, 143873, Note_on_c, 0, 62, 54
2, 143887, Note_on_c, 0, 60, 52
2, 143890, Note_on_c, 0, 56, 41
2, 143930, Note_on_c, 0, 56, 0
2, 143934, Note_on_c, 0, 62, 0
2, 144011, Note_on_c, 0, 60, 0
2, 144091, Note_on_c, 0, 68, 0
2, 144153, Note_on_c, 0, 67, 56
2, 144384, Note_on_c, 0, 67, 0
2, 144388, Note_on_c, 0, 62, 34
2, 144446, Note_on_c, 0, 62, 0
2, 144499, Note_on_c, 0, 68, 67
2, 144783, Note_on_c, 0, 68, 0
2, 144852, Note_on_c, 0, 69, 81
2, 144865, Note_on_c, 0, 56, 53
2, 144887, Note_on_c, 0, 62, 43
2, 144896, Note_on_c, 0, 60, 48
2, 145162, Note_on_c, 0, 60, 0
2, 145173, Note_on_c, 0, 56, 0
2, 145226, Note_on_c, 0, 62, 0
2, 145299, Note_on_c, 0, 56, 56
2, 145301, Note_on_c, 0, 62, 41
2, 145307, Note_on_c, 0, 70, 72
2, 145313, Note_on_c, 0, 66, 60
2, 145319, Note_on_c, 0, 60, 46
2, 145353, Note_on_c, 0, 69, 0
2, 145408, Note_on_c, 0, 66, 0
2, 145422, Note_on_c, 0, 70, 0
2, 145467, Note_on_c, 0, 66, 55
2, 145491, Note_on_c, 0, 71, 75
2, 145654, Note_on_c, 0, 60, 0
2, 145675, Note_on_c, 0, 66, 0
2, 145700, Note_on_c, 0, 56, 0
2, 145727, Note_on_c, 0, 71, 0
2, 145782, Note_on_c, 0, 72, 87
2, 145785, Note_on_c, 0, 65, 58
2, 145788, Note_on_c, 0, 60, 27
2, 145810, Note_on_c, 0, 55, 56
2, 145947, Note_on_c, 0, 72, 0
2, 146028, Note_on_c, 0, 74, 66
2, 146288, Note_on_c, 0, 65, 0
2, 146298, Note_on_c, 0, 74, 0
2, 146419, Note_on_c, 0, 68, 48
2, 146453, Note_on_c, 0, 68, 0
2, 146463, Note_on_c, 0, 62, 0
2, 146465, Note_on_c, 0, 67, 57
2, 146475, Note_on_c, 0, 60, 0
2, 146736, Note_on_c, 0, 67, 0
2, 146765, Note_on_c, 0, 62, 49
2, 146780, Note_on_c, 0, 55, 0
2, 146873, Note_on_c, 0, 62, 0
2, 146942, Note_on_c, 0, 66, 52
2, 147197, Note_on_c, 0, 66, 0
2, 147227, Note_on_c, 0, 54, 52
2, 147230, Note_on_c, 0, 64, 51
2, 147243, Note_on_c, 0, 60, 50
2, 147323, Note_on_c, 0, 64, 0
2, 147354, Note_on_c, 0, 60, 0
2, 147388, Note_on_c, 0, 54, 0
2, 147883, Note_on_c, 0, 63, 45
2, 147901, Note_on_c, 0, 59, 47
2, 147917, Note_on_c, 0, 53, 47
2, 148113, Note_on_c, 0, 59, 0
2, 148234, Note_on_c, 0, 59, 46
2, 148263, Note_on_c, 0, 63, 0
2, 148338, Note_on_c, 0, 75, 88
2, 148414, Note_on_c, 0, 59, 0
2, 148472, Note_on_c, 0, 75, 0
2, 148494, Note_on_c, 0, 53, 0
2, 148530, Note_on_c, 0, 71, 62
2, 148681, Note_on_c, 0, 71, 0
2, 148699, Note_on_c, 0, 68, 57
2, 148726, Note_on_c, 0, 58, 40
2, 148805, Note_on_c, 0, 68, 0
2, 148821, Note_on_c, 0, 58, 0
2, 148890, Note_on_c, 0, 65, 28
2, 148998, Note_on_c, 0, 65, 0
2, 149083, Note_on_c, 0, 73, 83
2, 149192, Note_on_c, 0, 58, 22
2, 149228, Note_on_c, 0, 73, 0
2, 149250, Note_on_c, 0, 58, 0
2, 149428, Note_on_c, 0, 72, 71
2, 149542, Note_on_c, 0, 72, 0
2, 149593, Note_on_c, 0, 70, 75
2, 149632, Note_on_c, 0, 58, 37
2, 149675, Note_on_c, 0, 58, 0
2, 149722, Note_on_c, 0, 70, 0
2, 149780, Note_on_c, 0, 67, 42
2, 149881, Note_on_c, 0, 67, 0
2, 149956, Note_on_c, 0, 64, 31
2, 150014, Note_on_c, 0, 64, 0
2, 150072, Note_on_c, 0, 70, 83
2, 150099, Note_on_c, 0, 56, 50
2, 150100, Note_on_c, 0, 60, 44
2, 150124, Note_on_c, 0, 53, 42
2, 150144, Note_on_c, 0, 60, 0
2, 150214, Note_on_c, 0, 70, 0
2, 150231, Note_on_c, 0, 53, 0
2, 150246, Note_on_c, 0, 56, 0
2, 150424, Note_on_c, 0, 68, 82
2, 150657, Note_on_c, 0, 68, 0
2, 150753, Note_on_c, 0, 63, 58
2, 150963, Note_on_c, 0, 63, 0
2, 151022, Note_on_c, 0, 60, 57
2, 151116, Note_on_c, 0, 53, 31
2, 151159, Note_on_c, 0, 60, 0
2, 151160, Note_on_c, 0, 53, 0
2, 151217, Note_on_c, 0, 56, 40
2, 151482, Note_on_c, 0, 56, 0
2, 151528, Note_on_c, 0, 53, 54
2, 151628, Note_on_c, 0, 53, 0
2, 151691, Note_on_c, 0, 55, 57
2, 151987, Note_on_c, 0, 55, 0
2, 152001, Note_on_c, 0, 56, 59
2, 152052, Note_on_c, 0, 53, 23
2, 152124, Note_on_c, 0, 56, 0
2, 152148, Note_on_c, 0, 53, 0
2, 152206, Note_on_c, 0, 56, 48
2, 152243, Note_on_c, 0, 56, 0
2, 152472, Note_on_c, 0, 57, 57
2, 152501, Note_on_c, 0, 46, 40
2, 152514, Note_on_c, 0, 56, 34
2, 152575, Note_on_c, 0, 56, 0
2, 152612, Note_on_c, 0, 57, 0
2, 152685, Note_on_c, 0, 58, 56
2, 152767, Note_on_c, 0, 46, 0
2, 152909, Note_on_c, 0, 58, 0
2, 152961, Note_on_c, 0, 59, 79
2, 152964, Note_on_c, 0, 46, 54
2, 152967, Note_on_c, 0, 56, 57
2, 153067, Note_on_c, 0, 56, 0
2, 153089, Note_on_c, 0, 59, 0
2, 153161, Note_on_c, 0, 60, 57
2, 153187, Note_on_c, 0, 46, 0
2, 153325, Note_on_c, 0, 60, 0
2, 153449, Note_on_c, 0, 50, 58
2, 153487, Note_on_c, 0, 60, 26
2, 153536, Note_on_c, 0, 60, 0
2, 153548, Note_on_c, 0, 50, 0
2, 153630, Note_on_c, 0, 62, 69
2, 153668, Note_on_c, 0, 53, 42
2, 153723, Note_on_c, 0, 53, 0
2, 153864, Note_on_c, 0, 62, 0
2, 153912, Note_on_c, 0, 63, 63
2, 153919, Note_on_c, 0, 51, 75
2, 153924, Note_on_c, 0, 56, 60
2, 153940, Note_on_c, 0, 53, 46
2, 153961, Note_on_c, 0, 62, 21
2, 153973, Note_on_c, 0, 53, 0
2, 154025, Note_on_c, 0, 51, 0
2, 154026, Note_on_c, 0, 62, 0
2, 154027, Note_on_c, 0, 56, 0
2, 154039, Note_on_c, 0, 63, 0
2, 154118, Note_on_c, 0, 56, 50
2, 154129, Note_on_c, 0, 53, 58
2, 154133, Note_on_c, 0, 65, 52
2, 154187, Note_on_c, 0, 60, 38
2, 154219, Note_on_c, 0, 65, 0
2, 154253, Note_on_c, 0, 56, 0
2, 154300, Note_on_c, 0, 60, 0
2, 154339, Note_on_c, 0, 53, 0
2, 154404, Note_on_c, 0, 54, 70
2, 154408, Note_on_c, 0, 66, 80
2, 154410, Note_on_c, 0, 56, 83
2, 154432, Note_on_c, 0, 60, 56
2, 154463, Note_on_c, 0, 60, 0
2, 154527, Note_on_c, 0, 54, 0
2, 154537, Note_on_c, 0, 56, 0
2, 154566, Note_on_c, 0, 66, 0
2, 154644, Note_on_c, 0, 67, 63
2, 154646, Note_on_c, 0, 62, 57
2, 154648, Note_on_c, 0, 59, 50
2, 154653, Note_on_c, 0, 57, 42
2, 154692, Note_on_c, 0, 57, 0
2, 154732, Note_on_c, 0, 53, 21
2, 154746, Note_on_c, 0, 67, 0
2, 154780, Note_on_c, 0, 59, 0
2, 154787, Note_on_c, 0, 53, 0
2, 154826, Note_on_c, 0, 62, 0
2, 154897, Note_on_c, 0, 56, 77
2, 154901, Note_on_c, 0, 62, 61
2, 154903, Note_on_c, 0, 68, 58
2, 154986, Note_on_c, 0, 66, 35
2, 155001, Note_on_c, 0, 56, 0
2, 155017, Note_on_c, 0, 68, 0
2, 155018, Note_on_c, 0, 62, 0
2, 155034, Note_on_c, 0, 66, 0
2, 155099, Note_on_c, 0, 53, 56
2, 155101, Note_on_c, 0, 69, 63
2, 155125, Note_on_c, 0, 62, 38
2, 155136, Note_on_c, 0, 60, 26
2, 155170, Note_on_c, 0, 62, 0
2, 155185, Note_on_c, 0, 60, 0
2, 155188, Note_on_c, 0, 69, 0
2, 155249, Note_on_c, 0, 53, 0
2, 155347, Note_on_c, 0, 54, 75
2, 155353, Control_c, 0, 64, 127
2, 155450, Note_on_c, 0, 54, 0
2, 155478, Control_c, 0, 64, 0
2, 155545, Note_on_c, 0, 70, 72
2, 155554, Note_on_c, 0, 55, 72
2, 155557, Note_on_c, 0, 60, 62
2, 155561, Note_on_c, 0, 65, 63
2, 155627, Note_on_c, 0, 68, 29
2, 155673, Note_on_c, 0, 60, 0
2, 155714, Note_on_c, 0, 70, 0
2, 155725, Control_c, 0, 64, 127
2, 155734, Note_on_c, 0, 65, 0
2, 155767, Note_on_c, 0, 68, 0
2, 155804, Note_on_c, 0, 55, 0
2, 155859, Note_on_c, 0, 56, 62
2, 155890, Control_c, 0, 64, 0
2, 155987, Note_on_c, 0, 56, 0
2, 156023, Note_on_c, 0, 71, 72
2, 156035, Note_on_c, 0, 65, 72
2, 156036, Note_on_c, 0, 55, 68
2, 156040, Note_on_c, 0, 60, 59
2, 156174, Note_on_c, 0, 65, 0
2, 156174, Note_on_c, 0, 60, 0
2, 156190, Note_on_c, 0, 71, 0
2, 156224, Note_on_c, 0, 55, 0
2, 156275, Control_c, 0, 64, 127
2, 156303, Control_c, 0, 64, 0
2, 156334, Note_on_c, 0, 72, 75
2, 156338, Note_on_c, 0, 57, 77
2, 156344, Note_on_c, 0, 67, 68
2, 156360, Note_on_c, 0, 62, 50
2, 156366, Note_on_c, 0, 64, 51
2, 156399, Note_on_c, 0, 64, 0
2, 156413, Note_on_c, 0, 70, 21
2, 156418, Note_on_c, 0, 62, 0
2, 156449, Note_on_c, 0, 72, 0
2, 156473, Note_on_c, 0, 70, 0
2, 156477, Note_on_c, 0, 67, 0
2, 156519, Note_on_c, 0, 57, 0
2, 156564, Note_on_c, 0, 73, 57
2, 156582, Note_on_c, 0, 64, 39
2, 156586, Note_on_c, 0, 68, 46
2, 156604, Note_on_c, 0, 59, 38
2, 156689, Note_on_c, 0, 64, 0
2, 156708, Note_on_c, 0, 73, 0
2, 156739, Note_on_c, 0, 68, 0
2, 156788, Note_on_c, 0, 59, 0
2, 156816, Note_on_c, 0, 68, 63
2, 156826, Note_on_c, 0, 60, 72
2, 156841, Note_on_c, 0, 64, 62
2, 156843, Note_on_c, 0, 75, 59
2, 156885, Note_on_c, 0, 75, 0
2, 156916, Note_on_c, 0, 60, 0
2, 156918, Note_on_c, 0, 64, 0
2, 156938, Note_on_c, 0, 68, 0
2, 156999, Note_on_c, 0, 75, 83
2, 157003, Note_on_c, 0, 63, 64
2, 157007, Note_on_c, 0, 68, 66
2, 157008, Note_on_c, 0, 64, 66
2, 157023, Note_on_c, 0, 72, 60
2, 157045, Note_on_c, 0, 73, 38
2, 157096, Note_on_c, 0, 73, 0
2, 157147, Note_on_c, 0, 72, 0
2, 157171, Note_on_c, 0, 64, 0
2, 157202, Note_on_c, 0, 68, 0
2, 157214, Note_on_c, 0, 63, 0
2, 157242, Note_on_c, 0, 75, 0
2, 157258, Control_c, 0, 64, 127
2, 157305, Note_on_c, 0, 60, 69
2, 157333, Note_on_c, 0, 60, 0
2, 157380, Control_c, 0, 64, 0
2, 157445, Note_on_c, 0, 67, 85
2, 157455, Note_on_c, 0, 68, 88
2, 157457, Note_on_c, 0, 72, 76
2, 157459, Note_on_c, 0, 79, 86
2, 157467, Note_on_c, 0, 75, 61
2, 157616, Note_on_c, 0, 79, 0
2, 157684, Note_on_c, 0, 68, 0
2, 157700, Note_on_c, 0, 72, 0
2, 157701, Note_on_c, 0, 67, 0
2, 157719, Note_on_c, 0, 75, 0
2, 157758, Note_on_c, 0, 78, 69
2, 157760, Note_on_c, 0, 66, 75
2, 157776, Note_on_c, 0, 68, 56
2, 157778, Note_on_c, 0, 72, 65
2, 157796, Note_on_c, 0, 75, 45
2, 157842, Note_on_c, 0, 75, 0
2, 157881, Note_on_c, 0, 78, 0
2, 157894, Note_on_c, 0, 72, 0
2, 157898, Note_on_c, 0, 68, 0
2, 157915, Note_on_c, 0, 66, 0
2, 157959, Note_on_c, 0, 65, 63
2, 158001, Note_on_c, 0, 65, 0
2, 158010, Control_c, 0, 64, 127
2, 158223, Control_c, 0, 64, 0
2, 158236, Note_on_c, 0, 46, 73
2, 158259, Note_on_c, 0, 68, 57
2, 158264, Note_on_c, 0, 72, 56
2, 158277, Note_on_c, 0, 65, 48
2, 158308, Note_on_c, 0, 72, 0
2, 158310, Note_on_c, 0, 65, 0
2, 158318, Note_on_c, 0, 46, 0
2, 158341, Note_on_c, 0, 68, 0
2, 158496, Note_on_c, 0, 56, 62
2, 158498, Note_on_c, 0, 74, 72
2, 158518, Note_on_c, 0, 67, 47
2, 158521, Note_on_c, 0, 71, 57
2, 158544, Note_on_c, 0, 56, 0
2, 158660, Note_on_c, 0, 67, 0
2, 158669, Control_c, 0, 64, 127
2, 158688, Note_on_c, 0, 71, 0
2, 158724, Note_on_c, 0, 74, 0
2, 158802, Control_c, 0, 64, 0
2, 158882, Note_on_c, 0, 56, 59
2, 158884, Note_on_c, 0, 66, 57
2, 158892, Note_on_c, 0, 77, 73
2, 158901, Note_on_c, 0, 72, 66
2, 158971, Note_on_c, 0, 62, 16
2, 158984, Note_on_c, 0, 72, 0
2, 159004, Control_c, 0, 64, 127
2, 159064, Note_on_c, 0, 66, 0
2, 159105, Note_on_c, 0, 77, 0
2, 159120, Note_on_c, 0, 56, 0
2, 159133, Note_on_c, 0, 62, 0
2, 159185, Control_c, 0, 64, 0
2, 159214, Note_on_c, 0, 70, 57
2, 159228, Note_on_c, 0, 65, 48
2, 159231, Note_on_c, 0, 67, 40
2, 159242, Note_on_c, 0, 62, 41
2, 159256, Note_on_c, 0, 60, 46
2, 159265, Note_on_c, 0, 55, 46
2, 159395, Control_c, 0, 64, 127
2, 159521, Note_on_c, 0, 55, 0
2, 159535, Note_on_c, 0, 65, 0
2, 159538, Note_on_c, 0, 67, 0
2, 159542, Note_on_c, 0, 60, 0
2, 159555, Note_on_c, 0, 62, 0
2, 159555, Note_on_c, 0, 70, 0
2, 159684, Note_on_c, 0, 65, 56
2, 159690, Note_on_c, 0, 70, 66
2, 159694, Note_on_c, 0, 55, 43
2, 159698, Note_on_c, 0, 62, 43
2, 159700, Note_on_c, 0, 67, 36
2, 159719, Note_on_c, 0, 60, 46
2, 159744, Control_c, 0, 64, 0
2, 159758, Note_on_c, 0, 60, 0
2, 159772, Note_on_c, 0, 65, 0
2, 159777, Note_on_c, 0, 55, 0
2, 159797, Note_on_c, 0, 67, 0
2, 159799, Note_on_c, 0, 62, 0
2, 159810, Note_on_c, 0, 70, 0
2, 159878, Note_on_c, 0, 67, 31
2, 159882, Note_on_c, 0, 65, 38
2, 159887, Note_on_c, 0, 70, 61
2, 159896, Note_on_c, 0, 62, 44
2, 159906, Note_on_c, 0, 55, 37
2, 159924, Note_on_c, 0, 60, 37
2, 159969, Note_on_c, 0, 65, 0
2, 160020, Note_on_c, 0, 67, 0
2, 160038, Note_on_c, 0, 60, 0
2, 160039, Note_on_c, 0, 62, 0
2, 160045, Note_on_c, 0, 55, 0
2, 160101, Note_on_c, 0, 70, 0
2, 160181, Note_on_c, 0, 65, 48
2, 160192, Note_on_c, 0, 62, 40
2, 160199, Note_on_c, 0, 69, 53
2, 160204, Note_on_c, 0, 60, 42
2, 160211, Note_on_c, 0, 55, 35
2, 160220, Note_on_c, 0, 65, 0
2, 160243, Note_on_c, 0, 60, 0
2, 160244, Note_on_c, 0, 62, 0
2, 160253, Note_on_c, 0, 55, 0
2, 160262, Note_on_c, 0, 69, 0
2, 160359, Note_on_c, 0, 62, 48
2, 160366, Note_on_c, 0, 55, 43
2, 160369, Note_on_c, 0, 70, 57
2, 160373, Note_on_c, 0, 67, 49
2, 160384, Note_on_c, 0, 60, 44
2, 160497, Note_on_c, 0, 67, 0
2, 160515, Note_on_c, 0, 60, 0
2, 160538, Note_on_c, 0, 70, 0
2, 160545, Control_c, 0, 64, 127
2, 160570, Note_on_c, 0, 62, 0
2, 160705, Note_on_c, 0, 55, 0
2, 160763, Control_c, 0, 64, 0
2, 160832, Note_on_c, 0, 79, 52
2, 160833, Note_on_c, 0, 72, 55
2, 160835, Note_on_c, 0, 64, 54
2, 160838, Note_on_c, 0, 60, 52
2, 160841, Note_on_c, 0, 55, 39
2, 160862, Note_on_c, 0, 67, 35
2, 160870, Note_on_c, 0, 79, 0
2, 160874, Note_on_c, 0, 64, 0
2, 160878, Note_on_c, 0, 60, 0
2, 160892, Note_on_c, 0, 72, 0
2, 160893, Note_on_c, 0, 55, 0
2, 160908, Note_on_c, 0, 67, 0
2, 160998, Note_on_c, 0, 79, 48
2, 161041, Note_on_c, 0, 60, 24
2, 161077, Note_on_c, 0, 60, 0
2, 161078, Note_on_c, 0, 79, 0
2, 161166, Note_on_c, 0, 64, 63
2, 161168, Note_on_c, 0, 60, 49
2, 161183, Note_on_c, 0, 55, 51
2, 161185, Note_on_c, 0, 83, 81
2, 161192, Note_on_c, 0, 57, 49
2, 161211, Note_on_c, 0, 71, 37
2, 161237, Note_on_c, 0, 72, 29
2, 161276, Note_on_c, 0, 72, 0
2, 161370, Note_on_c, 0, 71, 0
2, 161384, Note_on_c, 0, 83, 0
2, 161385, Note_on_c, 0, 55, 0
2, 161392, Note_on_c, 0, 64, 0
2, 161410, Note_on_c, 0, 57, 0
2, 161420, Note_on_c, 0, 60, 0
2, 161518, Note_on_c, 0, 60, 49
2, 161525, Note_on_c, 0, 64, 46
2, 161533, Note_on_c, 0, 67, 51
2, 161546, Note_on_c, 0, 57, 32
2, 161562, Note_on_c, 0, 64, 0
2, 161568, Note_on_c, 0, 67, 0
2, 161570, Note_on_c, 0, 60, 0
2, 161587, Note_on_c, 0, 57, 0
2, 161683, Note_on_c, 0, 55, 44
2, 161685, Note_on_c, 0, 78, 54
2, 161687, Note_on_c, 0, 57, 40
2, 161697, Note_on_c, 0, 60, 38
2, 161723, Note_on_c, 0, 79, 27
2, 161727, Note_on_c, 0, 55, 0
2, 161728, Note_on_c, 0, 78, 0
2, 161738, Note_on_c, 0, 57, 0
2, 161740, Note_on_c, 0, 60, 0
2, 161760, Note_on_c, 0, 79, 0
2, 161854, Note_on_c, 0, 64, 55
2, 161860, Note_on_c, 0, 60, 42
2, 161867, Note_on_c, 0, 55, 36
2, 161879, Note_on_c, 0, 83, 85
2, 161889, Note_on_c, 0, 71, 74
2, 161955, Note_on_c, 0, 57, 23
2, 162042, Note_on_c, 0, 83, 0
2, 162053, Control_c, 0, 64, 127
2, 162068, Note_on_c, 0, 64, 0
2, 162077, Note_on_c, 0, 55, 0
2, 162085, Note_on_c, 0, 57, 0
2, 162086, Control_c, 0, 64, 0
2, 162088, Note_on_c, 0, 71, 0
2, 162106, Note_on_c, 0, 60, 0
2, 162223, Note_on_c, 0, 55, 43
2, 162225, Note_on_c, 0, 64, 41
2, 162235, Note_on_c, 0, 67, 45
2, 162264, Note_on_c, 0, 55, 0
2, 162269, Note_on_c, 0, 64, 0
2, 162274, Note_on_c, 0, 67, 0
2, 162384, Note_on_c, 0, 55, 47
2, 162397, Note_on_c, 0, 67, 46
2, 162399, Control_c, 0, 64, 127
2, 162403, Note_on_c, 0, 64, 31
2, 162407, Note_on_c, 0, 79, 46
2, 162425, Note_on_c, 0, 55, 0
2, 162433, Note_on_c, 0, 67, 0
2, 162445, Note_on_c, 0, 79, 0
2, 162447, Note_on_c, 0, 64, 0
2, 162494, Control_c, 0, 64, 0
2, 162580, Note_on_c, 0, 84, 89
2, 162584, Note_on_c, 0, 54, 73
2, 162591, Note_on_c, 0, 64, 65
2, 162596, Note_on_c, 0, 72, 60
2, 162604, Note_on_c, 0, 60, 54
2, 162623, Note_on_c, 0, 74, 43
2, 162659, Note_on_c, 0, 74, 0
2, 162716, Note_on_c, 0, 84, 0
2, 162761, Note_on_c, 0, 72, 0
2, 162805, Note_on_c, 0, 64, 0
2, 162808, Note_on_c, 0, 54, 0
2, 162833, Note_on_c, 0, 60, 0
2, 162895, Note_on_c, 0, 80, 50
2, 162902, Note_on_c, 0, 68, 57
2, 162915, Note_on_c, 0, 54, 46
2, 162917, Note_on_c, 0, 64, 48
2, 162927, Note_on_c, 0, 80, 0
2, 162934, Note_on_c, 0, 60, 54
2, 162937, Note_on_c, 0, 68, 0
2, 162954, Control_c, 0, 64, 127
2, 162966, Note_on_c, 0, 60, 0
2, 162973, Note_on_c, 0, 64, 0
2, 162997, Note_on_c, 0, 54, 0
2, 163073, Note_on_c, 0, 80, 57
2, 163079, Note_on_c, 0, 54, 61
2, 163088, Note_on_c, 0, 64, 39
2, 163091, Note_on_c, 0, 68, 28
2, 163130, Note_on_c, 0, 68, 0
2, 163135, Note_on_c, 0, 64, 0
2, 163138, Control_c, 0, 64, 0
2, 163142, Note_on_c, 0, 80, 0
2, 163180, Note_on_c, 0, 54, 0
2, 163266, Note_on_c, 0, 62, 57
2, 163268, Note_on_c, 0, 54, 46
2, 163278, Note_on_c, 0, 59, 48
2, 163331, Note_on_c, 0, 59, 0
2, 163353, Note_on_c, 0, 62, 0
2, 163357, Note_on_c, 0, 54, 0
2, 163927, Note_on_c, 0, 74, 74
2, 163930, Note_on_c, 0, 86, 68
2, 163934, Note_on_c, 0, 62, 57
2, 163937, Note_on_c, 0, 54, 51
2, 163939, Note_on_c, 0, 59, 51
2, 163963, Note_on_c, 0, 81, 41
2, 163965, Note_on_c, 0, 62, 0
2, 163966, Note_on_c, 0, 86, 0
2, 163970, Note_on_c, 0, 54, 0
2, 163973, Note_on_c, 0, 59, 0
2, 163974, Control_c, 0, 64, 127
2, 163988, Note_on_c, 0, 74, 0
2, 164002, Note_on_c, 0, 81, 0
2, 164022, Control_c, 0, 64, 0
2, 164087, Note_on_c, 0, 86, 63
2, 164098, Note_on_c, 0, 54, 54
2, 164099, Note_on_c, 0, 81, 59
2, 164102, Note_on_c, 0, 74, 49
2, 164103, Note_on_c, 0, 59, 39
2, 164109, Note_on_c, 0, 62, 50
2, 164129, Note_on_c, 0, 81, 0
2, 164133, Note_on_c, 0, 54, 0
2, 164144, Note_on_c, 0, 62, 0
2, 164162, Note_on_c, 0, 86, 0
2, 164167, Note_on_c, 0, 74, 0
2, 164185, Note_on_c, 0, 59, 0
2, 164272, Note_on_c, 0, 59, 41
2, 164281, Note_on_c, 0, 54, 36
2, 164282, Note_on_c, 0, 71, 56
2, 164283, Note_on_c, 0, 62, 31
2, 164289, Note_on_c, 0, 83, 33
2, 164330, Note_on_c, 0, 62, 0
2, 164331, Note_on_c, 0, 71, 0
2, 164332, Note_on_c, 0, 83, 0
2, 164340, Note_on_c, 0, 54, 0
2, 164378, Note_on_c, 0, 59, 0
2, 164478, Control_c, 0, 64, 127
2, 164552, Control_c, 0, 64, 0
2, 164615, Note_on_c, 0, 88, 63
2, 164619, Note_on_c, 0, 56, 76
2, 164622, Note_on_c, 0, 67, 80
2, 164624, Note_on_c, 0, 81, 68
2, 164628, Note_on_c, 0, 76, 72
2, 164639, Note_on_c, 0, 62, 66
2, 164669, Note_on_c, 0, 62, 0
2, 164688, Note_on_c, 0, 76, 0
2, 164701, Note_on_c, 0, 67, 0
2, 164719, Note_on_c, 0, 56, 0
2, 164719, Note_on_c, 0, 81, 0
2, 164724, Note_on_c, 0, 88, 0
2, 164794, Note_on_c, 0, 88, 72
2, 164803, Note_on_c, 0, 56, 48
2, 164806, Note_on_c, 0, 81, 58
2, 164807, Note_on_c, 0, 62, 4
2, 164811, Note_on_c, 0, 67, 41
2, 164816, Note_on_c, 0, 76, 42
2, 164831, Control_c, 0, 64, 127
2, 164848, Note_on_c, 0, 76, 0
2, 164858, Note_on_c, 0, 67, 0
2, 164868, Note_on_c, 0, 88, 0
2, 164873, Note_on_c, 0, 81, 0
2, 164889, Note_on_c, 0, 62, 0
2, 164907, Control_c, 0, 64, 0
2, 164928, Note_on_c, 0, 56, 0
2, 164994, Note_on_c, 0, 72, 67
2, 164998, Note_on_c, 0, 84, 43
2, 165003, Note_on_c, 0, 64, 60
2, 165026, Note_on_c, 0, 55, 43
2, 165037, Note_on_c, 0, 60, 48
2, 165059, Note_on_c, 0, 57, 42
2, 165115, Note_on_c, 0, 72, 0
2, 165154, Note_on_c, 0, 84, 0
2, 165166, Note_on_c, 0, 64, 0
2, 165169, Note_on_c, 0, 57, 0
2, 165181, Note_on_c, 0, 60, 0
2, 165189, Note_on_c, 0, 55, 0
2, 165284, Control_c, 0, 64, 127
2, 165289, Note_on_c, 0, 91, 83
2, 165306, Note_on_c, 0, 64, 66
2, 165307, Note_on_c, 0, 79, 67
2, 165317, Note_on_c, 0, 60, 52
2, 165329, Note_on_c, 0, 55, 31
2, 165335, Note_on_c, 0, 57, 43
2, 165342, Note_on_c, 0, 79, 0
2, 165372, Note_on_c, 0, 57, 0
2, 165374, Note_on_c, 0, 55, 0
2, 165379, Note_on_c, 0, 91, 0
2, 165389, Note_on_c, 0, 64, 0
2, 165397, Note_on_c, 0, 60, 0
2, 165470, Note_on_c, 0, 91, 58
2, 165475, Note_on_c, 0, 79, 75
2, 165482, Note_on_c, 0, 64, 53
2, 165485, Note_on_c, 0, 89, 58
2, 165492, Note_on_c, 0, 60, 61
2, 165501, Note_on_c, 0, 57, 41
2, 165511, Control_c, 0, 64, 0
2, 165522, Note_on_c, 0, 89, 0
2, 165524, Note_on_c, 0, 55, 26
2, 165535, Note_on_c, 0, 91, 0
2, 165547, Note_on_c, 0, 57, 0
2, 165549, Note_on_c, 0, 64, 0
2, 165562, Note_on_c, 0, 79, 0
2, 165565, Note_on_c, 0, 60, 0
2, 165568, Note_on_c, 0, 55, 0
2, 165661, Note_on_c, 0, 55, 50
2, 165662, Note_on_c, 0, 88, 63
2, 165666, Note_on_c, 0, 57, 53
2, 165667, Note_on_c, 0, 64, 53
2, 165670, Note_on_c, 0, 60, 54
2, 165681, Note_on_c, 0, 76, 57
2, 165684, Note_on_c, 0, 82, 48
2, 165723, Control_c, 0, 64, 127
2, 165725, Note_on_c, 0, 82, 0
2, 165769, Note_on_c, 0, 76, 0
2, 165803, Note_on_c, 0, 64, 0
2, 165814, Note_on_c, 0, 55, 0
2, 165830, Note_on_c, 0, 88, 0
2, 165835, Note_on_c, 0, 60, 0
2, 165837, Note_on_c, 0, 57, 0
2, 165978, Control_c, 0, 64, 0
2, 166062, Note_on_c, 0, 54, 66
2, 166063, Note_on_c, 0, 92, 75
2, 166070, Note_on_c, 0, 64, 65
2, 166073, Note_on_c, 0, 60, 57
2, 166082, Note_on_c, 0, 87, 52
2, 166083, Note_on_c, 0, 80, 52
2, 166089, Note_on_c, 0, 82, 42
2, 166122, Note_on_c, 0, 87, 0
2, 166124, Note_on_c, 0, 82, 0
2, 166131, Note_on_c, 0, 80, 0
2, 166136, Note_on_c, 0, 64, 0
2, 166140, Note_on_c, 0, 92, 0
2, 166175, Note_on_c, 0, 54, 0
2, 166195, Note_on_c, 0, 60, 0
2, 166234, Note_on_c, 0, 92, 64
2, 166249, Note_on_c, 0, 80, 52
2, 166253, Control_c, 0, 64, 127
2, 166266, Note_on_c, 0, 87, 57
2, 166267, Note_on_c, 0, 54, 47
2, 166269, Note_on_c, 0, 64, 44
2, 166272, Note_on_c, 0, 60, 49
2, 166302, Note_on_c, 0, 87, 0
2, 166313, Note_on_c, 0, 54, 0
2, 166317, Note_on_c, 0, 64, 0
2, 166331, Note_on_c, 0, 92, 0
2, 166338, Note_on_c, 0, 80, 0
2, 166345, Control_c, 0, 64, 0
2, 166358, Note_on_c, 0, 60, 0
2, 166427, Note_on_c, 0, 54, 59
2, 166441, Note_on_c, 0, 64, 55
2, 166445, Note_on_c, 0, 89, 63
2, 166446, Note_on_c, 0, 60, 64
2, 166459, Note_on_c, 0, 77, 49
2, 166507, Note_on_c, 0, 77, 0
2, 166555, Note_on_c, 0, 89, 0
2, 166598, Note_on_c, 0, 64, 0
2, 166608, Note_on_c, 0, 54, 0
2, 166642, Note_on_c, 0, 60, 0
2, 166733, Note_on_c, 0, 92, 70
2, 166747, Control_c, 0, 64, 127
2, 166749, Note_on_c, 0, 80, 49
2, 166762, Note_on_c, 0, 54, 46
2, 166763, Note_on_c, 0, 60, 48
2, 166765, Note_on_c, 0, 92, 0
2, 166771, Note_on_c, 0, 64, 41
2, 166782, Note_on_c, 0, 80, 0
2, 166797, Note_on_c, 0, 54, 0
2, 166806, Note_on_c, 0, 60, 0
2, 166815, Note_on_c, 0, 64, 0
2, 166911, Note_on_c, 0, 54, 45
2, 166985, Control_c, 0, 64, 0
2, 166986, Note_on_c, 0, 54, 0
2, 167065, Note_on_c, 0, 54, 39
2, 167074, Note_on_c, 0, 83, 64
2, 167076, Note_on_c, 0, 62, 60
2, 167077, Note_on_c, 0, 95, 76
2, 167084, Note_on_c, 0, 59, 56
2, 167089, Note_on_c, 0, 94, 48
2, 167090, Note_on_c, 0, 84, 57
2, 167099, Note_on_c, 0, 57, 64
2, 167119, Note_on_c, 0, 94, 0
2, 167121, Note_on_c, 0, 84, 0
2, 167218, Control_c, 0, 64, 127
2, 167376, Note_on_c, 0, 95, 0
2, 167403, Note_on_c, 0, 83, 0
2, 167404, Note_on_c, 0, 57, 0
2, 167404, Note_on_c, 0, 54, 0
2, 167405, Note_on_c, 0, 62, 0
2, 167422, Note_on_c, 0, 59, 0
2, 167487, Control_c, 0, 64, 0
2, 167522, Note_on_c, 0, 62, 58
2, 167525, Note_on_c, 0, 59, 54
2, 167534, Note_on_c, 0, 93, 43
2, 167543, Note_on_c, 0, 54, 45
2, 167549, Note_on_c, 0, 57, 49
2, 167553, Note_on_c, 0, 81, 46
2, 167595, Note_on_c, 0, 88, 34
2, 167661, Control_c, 0, 64, 127
2, 167671, Note_on_c, 0, 88, 0
2, 167718, Note_on_c, 0, 54, 0
2, 167720, Note_on_c, 0, 93, 0
2, 167744, Note_on_c, 0, 62, 0
2, 167774, Note_on_c, 0, 57, 0
2, 167785, Note_on_c, 0, 59, 0
2, 167787, Note_on_c, 0, 81, 0
2, 167866, Note_on_c, 0, 54, 60
2, 167867, Control_c, 0, 64, 0
2, 167885, Note_on_c, 0, 59, 52
2, 167889, Note_on_c, 0, 62, 63
2, 167891, Note_on_c, 0, 57, 51
2, 167893, Note_on_c, 0, 91, 71
2, 167904, Note_on_c, 0, 79, 66
2, 167917, Note_on_c, 0, 86, 65
2, 168021, Note_on_c, 0, 91, 0
2, 168036, Note_on_c, 0, 62, 0
2, 168048, Note_on_c, 0, 79, 0
2, 168066, Note_on_c, 0, 57, 0
2, 168079, Note_on_c, 0, 59, 0
2, 168080, Note_on_c, 0, 86, 0
2, 168094, Note_on_c, 0, 54, 0
2, 168115, Control_c, 0, 64, 127
2, 168141, Note_on_c, 0, 54, 23
2, 168152, Note_on_c, 0, 62, 44
2, 168155, Note_on_c, 0, 59, 47
2, 168166, Note_on_c, 0, 90, 56
2, 168170, Note_on_c, 0, 57, 43
2, 168197, Note_on_c, 0, 78, 31
2, 168323, Note_on_c, 0, 90, 0
2, 168325, Note_on_c, 0, 62, 0
2, 168349, Note_on_c, 0, 78, 0
2, 168358, Note_on_c, 0, 57, 0
2, 168388, Note_on_c, 0, 54, 0
2, 168393, Note_on_c, 0, 59, 0
2, 168453, Control_c, 0, 64, 0
2, 168493, Note_on_c, 0, 54, 41
2, 168521, Note_on_c, 0, 59, 40
2, 168527, Note_on_c, 0, 62, 48
2, 168538, Note_on_c, 0, 74, 52
2, 168549, Control_c, 0, 64, 127
2, 168583, Note_on_c, 0, 59, 0
2, 168607, Note_on_c, 0, 54, 0
2, 168609, Note_on_c, 0, 74, 0
2, 168653, Note_on_c, 0, 62, 0
2, 168828, Note_on_c, 0, 56, 67
2, 168843, Note_on_c, 0, 60, 66
2, 168848, Control_c, 0, 64, 0
2, 168849, Note_on_c, 0, 63, 72
2, 168850, Note_on_c, 0, 89, 76
2, 168853, Note_on_c, 0, 84, 72
2, 168855, Note_on_c, 0, 77, 82
2, 168856, Note_on_c, 0, 67, 76
2, 168859, Note_on_c, 0, 88, 77
2, 168886, Note_on_c, 0, 88, 0
2, 169727, Note_on_c, 0, 89, 0
2, 169769, Note_on_c, 0, 67, 0
2, 169806, Note_on_c, 0, 87, 82
2, 169815, Note_on_c, 0, 67, 42
2, 169933, Note_on_c, 0, 84, 0
2, 169961, Note_on_c, 0, 77, 0
2, 170006, Note_on_c, 0, 87, 0
2, 170067, Note_on_c, 0, 88, 57
2, 170254, Note_on_c, 0, 88, 0
2, 170308, Note_on_c, 0, 91, 87
2, 170346, Note_on_c, 0, 87, 45
2, 170383, Note_on_c, 0, 87, 0
2, 170453, Note_on_c, 0, 91, 0
2, 170462, Note_on_c, 0, 67, 0
2, 170510, Note_on_c, 0, 63, 0
2, 170520, Note_on_c, 0, 60, 0
2, 170522, Note_on_c, 0, 89, 44
2, 170538, Note_on_c, 0, 56, 0
2, 170767, Note_on_c, 0, 84, 75
2, 170774, Note_on_c, 0, 89, 0
2, 170779, Note_on_c, 0, 62, 68
2, 170820, Note_on_c, 0, 62, 0
2, 170911, Note_on_c, 0, 84, 0
2, 170992, Note_on_c, 0, 79, 49
2, 171225, Note_on_c, 0, 79, 0
2, 171244, Note_on_c, 0, 86, 87
2, 171251, Note_on_c, 0, 62, 66
2, 171264, Note_on_c, 0, 51, 58
2, 171268, Note_on_c, 0, 57, 56
2, 171304, Note_on_c, 0, 51, 0
2, 171340, Note_on_c, 0, 62, 0
2, 171398, Note_on_c, 0, 57, 0
2, 171436, Note_on_c, 0, 86, 0
2, 171486, Note_on_c, 0, 86, 21
2, 171494, Note_on_c, 0, 84, 40
2, 171543, Note_on_c, 0, 86, 0
2, 171613, Note_on_c, 0, 84, 0
2, 171723, Note_on_c, 0, 79, 81
2, 171748, Note_on_c, 0, 57, 50
2, 171821, Note_on_c, 0, 57, 0
2, 171850, Note_on_c, 0, 79, 0
2, 171921, Note_on_c, 0, 75, 26
2, 172103, Note_on_c, 0, 75, 0
2, 172180, Note_on_c, 0, 51, 84
2, 172182, Note_on_c, 0, 62, 88
2, 172183, Note_on_c, 0, 57, 81
2, 172197, Note_on_c, 0, 74, 61
2, 172297, Note_on_c, 0, 74, 0
2, 172358, Note_on_c, 0, 77, 59
2, 172508, Note_on_c, 0, 51, 0
2, 172515, Note_on_c, 0, 57, 0
2, 172690, Note_on_c, 0, 74, 65
2, 172712, Note_on_c, 0, 77, 0
2, 172778, Note_on_c, 0, 62, 0
2, 172779, Note_on_c, 0, 74, 0
2, 172819, Note_on_c, 0, 56, 67
2, 172833, Note_on_c, 0, 75, 85
2, 172840, Note_on_c, 0, 63, 57
2, 172847, Note_on_c, 0, 60, 63
2, 172919, Note_on_c, 0, 74, 52
2, 173069, Note_on_c, 0, 74, 0
2, 173105, Note_on_c, 0, 56, 0
2, 173149, Note_on_c, 0, 75, 0
2, 173150, Note_on_c, 0, 72, 73
2, 173173, Note_on_c, 0, 63, 0
2, 173255, Note_on_c, 0, 72, 0
2, 173310, Note_on_c, 0, 68, 55
2, 173324, Note_on_c, 0, 60, 0
2, 173614, Note_on_c, 0, 68, 0
2, 173648, Note_on_c, 0, 62, 58
2, 173654, Note_on_c, 0, 56, 49
2, 173680, Note_on_c, 0, 62, 0
2, 173761, Note_on_c, 0, 56, 0
2, 173791, Note_on_c, 0, 67, 76
2, 173793, Note_on_c, 0, 70, 87
2, 173983, Note_on_c, 0, 71, 40
2, 174000, Note_on_c, 0, 70, 0
2, 174046, Note_on_c, 0, 58, 31
2, 174083, Note_on_c, 0, 67, 0
2, 174165, Note_on_c, 0, 58, 0
2, 174175, Note_on_c, 0, 71, 0
2, 174250, Note_on_c, 0, 58, 47
2, 174254, Note_on_c, 0, 70, 76
2, 174263, Note_on_c, 0, 67, 61
2, 174303, Note_on_c, 0, 62, 24
2, 174339, Note_on_c, 0, 62, 0
2, 174397, Note_on_c, 0, 58, 0
2, 174478, Note_on_c, 0, 70, 0
2, 174486, Note_on_c, 0, 67, 0
2, 174598, Note_on_c, 0, 62, 58
2, 174602, Note_on_c, 0, 70, 57
2, 174604, Note_on_c, 0, 65, 67
2, 174606, Note_on_c, 0, 58, 57
2, 174613, Note_on_c, 0, 53, 47
2, 174615, Note_on_c, 0, 55, 47
2, 174947, Note_on_c, 0, 62, 0
2, 174985, Note_on_c, 0, 58, 0
2, 175019, Note_on_c, 0, 65, 0
2, 175021, Note_on_c, 0, 70, 0
2, 175055, Note_on_c, 0, 60, 80
2, 175066, Note_on_c, 0, 58, 36
2, 175194, Note_on_c, 0, 58, 0
2, 175380, Note_on_c, 0, 53, 0
2, 175415, Note_on_c, 0, 55, 0
2, 175467, Control_c, 0, 64, 127
2, 175537, Note_on_c, 0, 58, 75
2, 175546, Note_on_c, 0, 52, 68
2, 175621, Control_c, 0, 64, 0
2, 175932, Note_on_c, 0, 58, 0
2, 176014, Note_on_c, 0, 58, 62
2, 176074, Note_on_c, 0, 60, 0
2, 176145, Note_on_c, 0, 61, 57
2, 176265, Note_on_c, 0, 58, 0
2, 176269, Note_on_c, 0, 52, 0
2, 176323, Note_on_c, 0, 61, 0
2, 176327, Note_on_c, 0, 60, 63
2, 176431, Note_on_c, 0, 60, 0
2, 176495, Note_on_c, 0, 62, 81
2, 176542, Note_on_c, 0, 56, 43
2, 176553, Note_on_c, 0, 53, 39
2, 176676, Note_on_c, 0, 62, 0
2, 176678, Note_on_c, 0, 61, 57
2, 176700, Note_on_c, 0, 56, 0
2, 176859, Note_on_c, 0, 61, 0
2, 176861, Note_on_c, 0, 63, 71
2, 176992, Note_on_c, 0, 56, 35
2, 177006, Note_on_c, 0, 62, 51
2, 177022, Note_on_c, 0, 63, 0
2, 177135, Note_on_c, 0, 62, 0
2, 177162, Note_on_c, 0, 53, 0
2, 177176, Note_on_c, 0, 64, 60
2, 177222, Note_on_c, 0, 56, 0
2, 177325, Note_on_c, 0, 64, 0
2, 177330, Note_on_c, 0, 63, 58
2, 177457, Note_on_c, 0, 63, 0
2, 177459, Note_on_c, 0, 60, 33
2, 177475, Note_on_c, 0, 56, 38
2, 177480, Note_on_c, 0, 53, 37
2, 177487, Note_on_c, 0, 67, 82
2, 177599, Note_on_c, 0, 60, 0
2, 177656, Note_on_c, 0, 67, 0
2, 177660, Note_on_c, 0, 64, 51
2, 177675, Note_on_c, 0, 56, 0
2, 177698, Note_on_c, 0, 53, 0
2, 177748, Note_on_c, 0, 64, 0
2, 177803, Note_on_c, 0, 65, 59
2, 177967, Note_on_c, 0, 67, 75
2, 178026, Note_on_c, 0, 65, 0
2, 178106, Note_on_c, 0, 53, 31
2, 178118, Note_on_c, 0, 67, 0
2, 178121, Note_on_c, 0, 68, 70
2, 178241, Note_on_c, 0, 53, 0
2, 178248, Note_on_c, 0, 68, 0
2, 178310, Note_on_c, 0, 65, 26
2, 178392, Note_on_c, 0, 65, 0
2, 178427, Note_on_c, 0, 46, 52
2, 178428, Note_on_c, 0, 56, 54
2, 178442, Note_on_c, 0, 67, 60
2, 178466, Note_on_c, 0, 46, 0
2, 178484, Note_on_c, 0, 56, 0
2, 178549, Note_on_c, 0, 67, 0
2, 178593, Note_on_c, 0, 68, 74
2, 178738, Note_on_c, 0, 68, 0
2, 178764, Note_on_c, 0, 70, 84
2, 178909, Note_on_c, 0, 70, 0
2, 178984, Note_on_c, 0, 56, 29
2, 179036, Note_on_c, 0, 56, 0
2, 179331, Note_on_c, 0, 67, 48
2, 179409, Note_on_c, 0, 60, 43
2, 179424, Note_on_c, 0, 56, 33
2, 179428, Note_on_c, 0, 62, 26
2, 179442, Note_on_c, 0, 67, 0
2, 179474, Note_on_c, 0, 56, 0
2, 179513, Note_on_c, 0, 62, 0
2, 179524, Note_on_c, 0, 60, 0
2, 179549, Note_on_c, 0, 68, 50
2, 179590, Note_on_c, 0, 68, 0
2, 179701, Note_on_c, 0, 70, 68
2, 179810, Note_on_c, 0, 70, 0
2, 179878, Note_on_c, 0, 71, 77
2, 179894, Note_on_c, 0, 72, 66
2, 179896, Note_on_c, 0, 66, 74
2, 179926, Note_on_c, 0, 56, 49
2, 179934, Note_on_c, 0, 62, 39
2, 179948, Note_on_c, 0, 60, 37
2, 180014, Note_on_c, 0, 72, 0
2, 180041, Note_on_c, 0, 71, 0
2, 180078, Note_on_c, 0, 66, 0
2, 180132, Note_on_c, 0, 60, 0
2, 180151, Note_on_c, 0, 62, 0
2, 180156, Note_on_c, 0, 68, 53
2, 180213, Note_on_c, 0, 56, 0
2, 180218, Note_on_c, 0, 68, 0
2, 180326, Note_on_c, 0, 71, 66
2, 180431, Note_on_c, 0, 71, 0
2, 180501, Note_on_c, 0, 72, 82
2, 180509, Note_on_c, 0, 62, 54
2, 180511, Note_on_c, 0, 65, 61
2, 180512, Note_on_c, 0, 60, 57
2, 180540, Note_on_c, 0, 55, 46
2, 180639, Note_on_c, 0, 72, 0
2, 180776, Note_on_c, 0, 60, 0
2, 180777, Note_on_c, 0, 65, 0
2, 180778, Note_on_c, 0, 62, 0
2, 180815, Note_on_c, 0, 55, 0
2, 180932, Note_on_c, 0, 65, 57
2, 180942, Note_on_c, 0, 62, 56
2, 180966, Note_on_c, 0, 60, 39
2, 180967, Note_on_c, 0, 65, 0
2, 181018, Note_on_c, 0, 60, 0
2, 181079, Note_on_c, 0, 62, 0
2, 181147, Note_on_c, 0, 69, 39
2, 181207, Note_on_c, 0, 69, 0
2, 181300, Note_on_c, 0, 70, 75
2, 181405, Note_on_c, 0, 70, 0
2, 181429, Note_on_c, 0, 65, 38
2, 181443, Note_on_c, 0, 62, 42
2, 181451, Note_on_c, 0, 72, 86
2, 181472, Note_on_c, 0, 65, 0
2, 181484, Note_on_c, 0, 60, 31
2, 181536, Note_on_c, 0, 62, 0
2, 181556, Note_on_c, 0, 60, 0
2, 181618, Note_on_c, 0, 72, 0
2, 181756, Note_on_c, 0, 69, 48
2, 181811, Note_on_c, 0, 69, 0
2, 181900, Note_on_c, 0, 70, 55
2, 181960, Note_on_c, 0, 70, 0
2, 182018, Note_on_c, 0, 72, 73
2, 182195, Note_on_c, 0, 72, 0
2, 182276, Note_on_c, 0, 58, 58
2, 182278, Note_on_c, 0, 62, 63
2, 182285, Note_on_c, 0, 73, 96
2, 182307, Note_on_c, 0, 52, 42
2, 182312, Note_on_c, 0, 62, 0
2, 182344, Note_on_c, 0, 52, 0
2, 182377, Note_on_c, 0, 58, 0
2, 182485, Note_on_c, 0, 73, 0
2, 182489, Note_on_c, 0, 69, 35
2, 182705, Note_on_c, 0, 69, 0
2, 182758, Note_on_c, 0, 70, 73
2, 182772, Note_on_c, 0, 62, 55
2, 182773, Note_on_c, 0, 58, 54
2, 182809, Note_on_c, 0, 62, 0
2, 182868, Note_on_c, 0, 58, 0
2, 182911, Note_on_c, 0, 70, 0
2, 182966, Note_on_c, 0, 72, 45
2, 183177, Note_on_c, 0, 72, 0
2, 183241, Note_on_c, 0, 73, 74
2, 183263, Note_on_c, 0, 62, 63
2, 183272, Note_on_c, 0, 58, 50
2, 183292, Note_on_c, 0, 62, 0
2, 183313, Note_on_c, 0, 58, 0
2, 183397, Note_on_c, 0, 73, 0
2, 183463, Note_on_c, 0, 75, 56
2, 183626, Note_on_c, 0, 75, 0
2, 183725, Note_on_c, 0, 76, 87
2, 183733, Note_on_c, 0, 63, 59
2, 183754, Note_on_c, 0, 65, 44
2, 183790, Note_on_c, 0, 65, 0
2, 183847, Note_on_c, 0, 76, 0
2, 183862, Note_on_c, 0, 63, 0
2, 183912, Note_on_c, 0, 77, 66
2, 184089, Control_c, 0, 64, 127
2, 184140, Note_on_c, 0, 77, 0
2, 184200, Note_on_c, 0, 79, 74
2, 184212, Note_on_c, 0, 60, 43
2, 184212, Note_on_c, 0, 67, 55
2, 184247, Note_on_c, 0, 67, 0
2, 184269, Note_on_c, 0, 60, 0
2, 184292, Control_c, 0, 64, 0
2, 184328, Note_on_c, 0, 79, 0
2, 184362, Note_on_c, 0, 67, 44
2, 184369, Note_on_c, 0, 56, 37
2, 184371, Note_on_c, 0, 63, 43
2, 184378, Note_on_c, 0, 72, 50
2, 184396, Note_on_c, 0, 60, 45
2, 184645, Note_on_c, 0, 67, 0
2, 184668, Note_on_c, 0, 60, 0
2, 184675, Note_on_c, 0, 63, 0
2, 184679, Note_on_c, 0, 56, 0
2, 184680, Note_on_c, 0, 72, 0
2, 184808, Note_on_c, 0, 72, 62
2, 184810, Note_on_c, 0, 67, 50
2, 184811, Note_on_c, 0, 56, 48
2, 184813, Note_on_c, 0, 63, 49
2, 184848, Note_on_c, 0, 60, 38
2, 185078, Note_on_c, 0, 67, 0
2, 185102, Note_on_c, 0, 72, 0
2, 185125, Note_on_c, 0, 56, 0
2, 185127, Note_on_c, 0, 63, 0
2, 185141, Note_on_c, 0, 60, 0
2, 185316, Control_c, 0, 64, 127
2, 185597, Note_on_c, 0, 66, 80
2, 185609, Note_on_c, 0, 79, 102
2, 185611, Note_on_c, 0, 56, 56
2, 185613, Note_on_c, 0, 62, 61
2, 185628, Note_on_c, 0, 60, 54
2, 185709, Control_c, 0, 64, 0
2, 185752, Note_on_c, 0, 66, 0
2, 185780, Note_on_c, 0, 79, 0
2, 185781, Note_on_c, 0, 60, 0
2, 185786, Note_on_c, 0, 56, 0
2, 185811, Note_on_c, 0, 62, 0
2, 185843, Note_on_c, 0, 66, 48
2, 185851, Note_on_c, 0, 56, 36
2, 185876, Note_on_c, 0, 62, 31
2, 185877, Note_on_c, 0, 73, 71
2, 185949, Note_on_c, 0, 60, 22
2, 186001, Control_c, 0, 64, 127
2, 186031, Note_on_c, 0, 60, 0
2, 186066, Note_on_c, 0, 66, 0
2, 186096, Note_on_c, 0, 62, 0
2, 186114, Note_on_c, 0, 73, 0
2, 186139, Note_on_c, 0, 56, 0
2, 186193, Control_c, 0, 64, 0
2, 186261, Note_on_c, 0, 65, 48
2, 186271, Note_on_c, 0, 55, 51
2, 186288, Note_on_c, 0, 62, 41
2, 186295, Note_on_c, 0, 60, 39
2, 186508, Note_on_c, 0, 65, 0
2, 186517, Note_on_c, 0, 55, 0
2, 186524, Note_on_c, 0, 62, 0
2, 186525, Note_on_c, 0, 60, 0
2, 186883, Control_c, 0, 64, 127
2, 187061, Note_on_c, 0, 82, 89
2, 187064, Note_on_c, 0, 65, 70
2, 187064, Note_on_c, 0, 62, 63
2, 187067, Note_on_c, 0, 60, 62
2, 187073, Note_on_c, 0, 55, 58
2, 187107, Control_c, 0, 64, 0
2, 187259, Note_on_c, 0, 82, 0
2, 187279, Note_on_c, 0, 65, 0
2, 187288, Note_on_c, 0, 55, 0
2, 187300, Note_on_c, 0, 62, 0
2, 187307, Note_on_c, 0, 60, 0
2, 187349, Control_c, 0, 64, 127
2, 187370, Note_on_c, 0, 74, 37
2, 187505, Note_on_c, 0, 74, 0
2, 187598, Note_on_c, 0, 58, 69
2, 187600, Note_on_c, 0, 62, 70
2, 187601, Control_c, 0, 64, 0
2, 187608, Note_on_c, 0, 81, 66
2, 187616, Note_on_c, 0, 52, 64
2, 187618, Note_on_c, 0, 70, 74
2, 187639, Note_on_c, 0, 73, 45
2, 187655, Note_on_c, 0, 76, 45
2, 187688, Note_on_c, 0, 73, 0
2, 187707, Note_on_c, 0, 76, 0
2, 187719, Note_on_c, 0, 81, 0
2, 187734, Note_on_c, 0, 52, 0
2, 187777, Note_on_c, 0, 58, 0
2, 187786, Note_on_c, 0, 70, 0
2, 187811, Note_on_c, 0, 62, 0
2, 187896, Control_c, 0, 64, 127
2, 188003, Control_c, 0, 64, 0
2, 188043, Note_on_c, 0, 67, 83
2, 188045, Note_on_c, 0, 79, 86
2, 188048, Note_on_c, 0, 68, 84
2, 188057, Note_on_c, 0, 75, 65
2, 188059, Note_on_c, 0, 72, 73
2, 188166, Note_on_c, 0, 68, 0
2, 188172, Note_on_c, 0, 79, 0
2, 188194, Note_on_c, 0, 72, 0
2, 188214, Note_on_c, 0, 75, 0
2, 188259, Note_on_c, 0, 67, 0
2, 188512, Note_on_c, 0, 66, 81
2, 188520, Note_on_c, 0, 68, 82
2, 188528, Note_on_c, 0, 72, 70
2, 188562, Note_on_c, 0, 72, 0
2, 188608, Note_on_c, 0, 68, 0
2, 188621, Note_on_c, 0, 66, 0
2, 188978, Note_on_c, 0, 46, 66
2, 189096, Note_on_c, 0, 46, 0
2, 189137, Note_on_c, 0, 71, 66
2, 189146, Note_on_c, 0, 62, 59
2, 189149, Note_on_c, 0, 56, 70
2, 189157, Note_on_c, 0, 67, 52
2, 189377, Note_on_c, 0, 62, 0
2, 189409, Note_on_c, 0, 56, 0
2, 189411, Note_on_c, 0, 67, 0
2, 189446, Note_on_c, 0, 71, 0
2, 189468, Note_on_c, 0, 56, 53
2, 189566, Note_on_c, 0, 56, 0
2, 189605, Note_on_c, 0, 77, 90
2, 189605, Note_on_c, 0, 62, 79
2, 189608, Note_on_c, 0, 67, 82
2, 189609, Note_on_c, 0, 70, 85
2, 189790, Note_on_c, 0, 77, 0
2, 189841, Note_on_c, 0, 70, 0
2, 189888, Note_on_c, 0, 67, 0
2, 189959, Note_on_c, 0, 62, 0
2, 190100, Note_on_c, 0, 63, 63
2, 190108, Note_on_c, 0, 55, 57
2, 190113, Note_on_c, 0, 67, 58
2, 190119, Note_on_c, 0, 70, 60
2, 190318, Note_on_c, 0, 55, 0
2, 190336, Note_on_c, 0, 67, 0
2, 190356, Note_on_c, 0, 63, 0
2, 190373, Note_on_c, 0, 70, 0
2, 190502, Note_on_c, 0, 58, 50
2, 190589, Note_on_c, 0, 58, 0
2, 190594, Note_on_c, 0, 63, 84
2, 190595, Note_on_c, 0, 62, 63
2, 190599, Note_on_c, 0, 67, 75
2, 190609, Note_on_c, 0, 74, 68
2, 190611, Note_on_c, 0, 70, 63
2, 190759, Note_on_c, 0, 74, 0
2, 190798, Note_on_c, 0, 62, 0
2, 190844, Note_on_c, 0, 70, 0
2, 190844, Note_on_c, 0, 67, 0
2, 190895, Note_on_c, 0, 63, 0
2, 190983, Note_on_c, 0, 54, 41
2, 191043, Note_on_c, 0, 54, 0
2, 191071, Note_on_c, 0, 55, 51
2, 191083, Note_on_c, 0, 70, 56
2, 191091, Note_on_c, 0, 67, 45
2, 191097, Note_on_c, 0, 62, 55
2, 191156, Control_c, 0, 64, 127
2, 191208, Note_on_c, 0, 67, 0
2, 191314, Note_on_c, 0, 55, 0
2, 191322, Note_on_c, 0, 70, 0
2, 191356, Note_on_c, 0, 62, 0
2, 191416, Note_on_c, 0, 52, 43
2, 191482, Control_c, 0, 64, 0
2, 191483, Note_on_c, 0, 52, 0
2, 191546, Note_on_c, 0, 56, 54
2, 191551, Note_on_c, 0, 63, 59
2, 191555, Note_on_c, 0, 46, 52
2, 191597, Note_on_c, 0, 60, 33
2, 191625, Control_c, 0, 64, 127
2, 191726, Note_on_c, 0, 56, 0
2, 191728, Note_on_c, 0, 60, 0
2, 191762, Note_on_c, 0, 46, 0
2, 191769, Note_on_c, 0, 63, 0
2, 191863, Control_c, 0, 64, 0
2, 191884, Note_on_c, 0, 64, 61
2, 191891, Note_on_c, 0, 60, 57
2, 191893, Note_on_c, 0, 45, 57
2, 191905, Note_on_c, 0, 55, 55
2, 191989, Note_on_c, 0, 45, 0
2, 192031, Control_c, 0, 64, 127
2, 192055, Note_on_c, 0, 55, 0
2, 192065, Note_on_c, 0, 60, 0
2, 192198, Note_on_c, 0, 64, 0
2, 192387, Note_on_c, 0, 64, 51
2, 192407, Note_on_c, 0, 55, 31
2, 192414, Note_on_c, 0, 60, 32
2, 192416, Note_on_c, 0, 57, 39
2, 192436, Note_on_c, 0, 64, 0
2, 192456, Note_on_c, 0, 55, 0
2, 192495, Note_on_c, 0, 67, 56
2, 192496, Control_c, 0, 64, 0
2, 192515, Note_on_c, 0, 60, 0
2, 192558, Note_on_c, 0, 57, 0
2, 192595, Note_on_c, 0, 67, 0
2, 192610, Note_on_c, 0, 69, 57
2, 192713, Note_on_c, 0, 69, 0
2, 192769, Note_on_c, 0, 69, 62
2, 192806, Note_on_c, 0, 69, 0
2, 192900, Note_on_c, 0, 71, 68
2, 192986, Note_on_c, 0, 71, 0
2, 193027, Note_on_c, 0, 71, 46
2, 193093, Note_on_c, 0, 71, 0
2, 193147, Note_on_c, 0, 72, 56
2, 193225, Note_on_c, 0, 72, 0
2, 193296, Note_on_c, 0, 72, 64
2, 193335, Note_on_c, 0, 72, 0
2, 193386, Note_on_c, 0, 54, 34
2, 193433, Note_on_c, 0, 54, 0
2, 193460, Note_on_c, 0, 74, 67
2, 193537, Note_on_c, 0, 74, 0
2, 193803, Note_on_c, 0, 59, 54
2, 193817, Note_on_c, 0, 54, 39
2, 193836, Note_on_c, 0, 59, 0
2, 193858, Note_on_c, 0, 54, 0
2, 194251, Note_on_c, 0, 59, 52
2, 194252, Note_on_c, 0, 57, 56
2, 194259, Note_on_c, 0, 62, 39
2, 194289, Note_on_c, 0, 59, 0
2, 194300, Note_on_c, 0, 62, 0
2, 194317, Note_on_c, 0, 57, 0
2, 194395, Note_on_c, 0, 78, 56
2, 194444, Note_on_c, 0, 78, 0
2, 194563, Note_on_c, 0, 79, 63
2, 194602, Note_on_c, 0, 79, 0
2, 194751, Note_on_c, 0, 81, 54
2, 194757, Note_on_c, 0, 62, 35
2, 194758, Note_on_c, 0, 57, 39
2, 194778, Note_on_c, 0, 59, 22
2, 194781, Note_on_c, 0, 81, 0
2, 194803, Note_on_c, 0, 62, 0
2, 194811, Note_on_c, 0, 59, 0
2, 194820, Note_on_c, 0, 57, 0
2, 195118, Note_on_c, 0, 74, 63
2, 195150, Note_on_c, 0, 74, 0
2, 195261, Note_on_c, 0, 57, 45
2, 195263, Note_on_c, 0, 59, 39
2, 195303, Note_on_c, 0, 59, 0
2, 195314, Note_on_c, 0, 57, 0
2, 195408, Note_on_c, 0, 78, 75
2, 195490, Note_on_c, 0, 78, 0
2, 195560, Note_on_c, 0, 79, 68
2, 195652, Note_on_c, 0, 79, 0
2, 195704, Note_on_c, 0, 81, 80
2, 195808, Note_on_c, 0, 81, 0
2, 195872, Note_on_c, 0, 74, 58
2, 195971, Note_on_c, 0, 74, 0
2, 196024, Note_on_c, 0, 74, 62
2, 196120, Note_on_c, 0, 74, 0
2, 196184, Note_on_c, 0, 64, 75
2, 196203, Note_on_c, 0, 60, 54
2, 196205, Note_on_c, 0, 57, 51
2, 196219, Note_on_c, 0, 55, 40
2, 196220, Note_on_c, 0, 64, 0
2, 196253, Note_on_c, 0, 55, 0
2, 196291, Note_on_c, 0, 60, 0
2, 196326, Note_on_c, 0, 57, 0
2, 196329, Note_on_c, 0, 78, 76
2, 196427, Note_on_c, 0, 78, 0
2, 196492, Note_on_c, 0, 79, 70
2, 196579, Note_on_c, 0, 79, 0
2, 196653, Note_on_c, 0, 81, 85
2, 196660, Note_on_c, 0, 64, 82
2, 196665, Note_on_c, 0, 54, 75
2, 196675, Note_on_c, 0, 60, 58
2, 196707, Note_on_c, 0, 60, 0
2, 196743, Note_on_c, 0, 64, 0
2, 196760, Note_on_c, 0, 81, 0
2, 196770, Note_on_c, 0, 54, 0
2, 196825, Note_on_c, 0, 74, 63
2, 196861, Note_on_c, 0, 74, 0
2, 196977, Note_on_c, 0, 74, 66
2, 197025, Note_on_c, 0, 74, 0
2, 197104, Note_on_c, 0, 64, 70
2, 197107, Note_on_c, 0, 54, 60
2, 197114, Note_on_c, 0, 60, 61
2, 197137, Note_on_c, 0, 64, 0
2, 197138, Note_on_c, 0, 54, 0
2, 197148, Note_on_c, 0, 60, 0
2, 197264, Note_on_c, 0, 78, 74
2, 197353, Note_on_c, 0, 78, 0
2, 197416, Note_on_c, 0, 79, 75
2, 197518, Note_on_c, 0, 79, 0
2, 197572, Note_on_c, 0, 59, 66
2, 197591, Note_on_c, 0, 62, 63
2, 197604, Note_on_c, 0, 81, 90
2, 197607, Note_on_c, 0, 52, 42
2, 197621, Note_on_c, 0, 53, 45
2, 197626, Note_on_c, 0, 57, 38
2, 197657, Note_on_c, 0, 53, 0
2, 197703, Note_on_c, 0, 62, 0
2, 197717, Note_on_c, 0, 52, 0
2, 197722, Note_on_c, 0, 81, 0
2, 197730, Note_on_c, 0, 57, 0
2, 197747, Note_on_c, 0, 59, 0
2, 197765, Note_on_c, 0, 74, 54
2, 197826, Note_on_c, 0, 74, 0
2, 197929, Note_on_c, 0, 74, 66
2, 198012, Note_on_c, 0, 74, 0
2, 198056, Note_on_c, 0, 62, 59
2, 198071, Note_on_c, 0, 86, 88
2, 198075, Note_on_c, 0, 59, 45
2, 198086, Note_on_c, 0, 62, 0
2, 198091, Note_on_c, 0, 57, 39
2, 198096, Note_on_c, 0, 52, 31
2, 198141, Note_on_c, 0, 52, 0
2, 198157, Note_on_c, 0, 57, 0
2, 198170, Note_on_c, 0, 59, 0
2, 198201, Note_on_c, 0, 86, 0
2, 198235, Note_on_c, 0, 74, 45
2, 198464, Note_on_c, 0, 74, 0
2, 199078, Note_on_c, 0, 62, 58
2, 199084, Note_on_c, 0, 59, 56
2, 199092, Note_on_c, 0, 57, 52
2, 199107, Note_on_c, 0, 62, 0
2, 199137, Note_on_c, 0, 59, 0
2, 199143, Note_on_c, 0, 57, 0
2, 199239, Note_on_c, 0, 86, 71
2, 199247, Note_on_c, 0, 74, 68
2, 199258, Note_on_c, 0, 59, 41
2, 199302, Note_on_c, 0, 59, 0
2, 199310, Control_c, 0, 64, 127
2, 199417, Note_on_c, 0, 86, 0
2, 199425, Note_on_c, 0, 74, 0
2, 199605, Note_on_c, 0, 82, 28
2, 199671, Note_on_c, 0, 82, 0
2, 199703, Control_c, 0, 64, 40
2, 199707, Control_c, 0, 64, 0
2, 199737, Note_on_c, 0, 58, 57
2, 199737, Note_on_c, 0, 62, 46
2, 199745, Note_on_c, 0, 82, 54
2, 199748, Note_on_c, 0, 86, 60
2, 199751, Note_on_c, 0, 74, 54
2, 199754, Note_on_c, 0, 55, 48
2, 199760, Note_on_c, 0, 79, 53
2, 199947, Control_c, 0, 64, 127
2, 200138, Note_on_c, 0, 55, 0
2, 200176, Note_on_c, 0, 74, 0
2, 200183, Note_on_c, 0, 58, 0
2, 200188, Note_on_c, 0, 62, 0
2, 200195, Note_on_c, 0, 79, 0
2, 200257, Note_on_c, 0, 86, 0
2, 200257, Note_on_c, 0, 82, 0
2, 200457, Note_on_c, 0, 90, 26
2, 200516, Note_on_c, 0, 90, 0
2, 200742, Note_on_c, 0, 79, 42
2, 200776, Note_on_c, 0, 79, 0
2, 201034, Note_on_c, 0, 65, 68
2, 201034, Control_c, 0, 64, 0
2, 201036, Note_on_c, 0, 91, 73
2, 201042, Note_on_c, 0, 62, 57
2, 201045, Note_on_c, 0, 58, 57
2, 201048, Note_on_c, 0, 55, 57
2, 201049, Note_on_c, 0, 79, 56
2, 201055, Note_on_c, 0, 86, 57
2, 201120, Note_on_c, 0, 79, 0
2, 201130, Note_on_c, 0, 65, 0
2, 201134, Note_on_c, 0, 55, 0
2, 201138, Note_on_c, 0, 91, 0
2, 201151, Note_on_c, 0, 62, 0
2, 201163, Note_on_c, 0, 86, 0
2, 201178, Note_on_c, 0, 58, 0
2, 201209, Control_c, 0, 64, 127
2, 201299, Note_on_c, 0, 82, 73
2, 201300, Note_on_c, 0, 55, 61
2, 201301, Note_on_c, 0, 94, 72
2, 201304, Note_on_c, 0, 65, 60
2, 201312, Note_on_c, 0, 58, 48
2, 201314, Note_on_c, 0, 86, 64
2, 201316, Note_on_c, 0, 62, 56
2, 201352, Note_on_c, 0, 86, 0
2, 201389, Note_on_c, 0, 62, 0
2, 201390, Note_on_c, 0, 65, 0
2, 201394, Note_on_c, 0, 55, 0
2, 201430, Note_on_c, 0, 58, 0
2, 201475, Note_on_c, 0, 82, 0
2, 201497, Note_on_c, 0, 94, 0
2, 201572, Note_on_c, 0, 63, 72
2, 201577, Note_on_c, 0, 54, 57
2, 201580, Note_on_c, 0, 93, 77
2, 201582, Control_c, 0, 64, 0
2, 201588, Note_on_c, 0, 57, 52
2, 201592, Note_on_c, 0, 81, 53
2, 201593, Note_on_c, 0, 87, 66
2, 201595, Note_on_c, 0, 60, 59
2, 201850, Control_c, 0, 64, 127
2, 202089, Note_on_c, 0, 57, 0
2, 202115, Note_on_c, 0, 93, 0
2, 202124, Note_on_c, 0, 63, 0
2, 202136, Note_on_c, 0, 60, 0
2, 202152, Note_on_c, 0, 87, 0
2, 202163, Note_on_c, 0, 81, 0
2, 202175, Note_on_c, 0, 54, 0
2, 202589, Control_c, 0, 64, 0
2, 202595, Note_on_c, 0, 63, 45
2, 202620, Note_on_c, 0, 54, 40
2, 202623, Note_on_c, 0, 75, 43
2, 202625, Note_on_c, 0, 87, 42
2, 202627, Note_on_c, 0, 60, 42
2, 202628, Note_on_c, 0, 57, 45
2, 202653, Note_on_c, 0, 82, 46
2, 202777, Note_on_c, 0, 75, 0
2, 202783, Note_on_c, 0, 82, 0
2, 202789, Note_on_c, 0, 63, 0
2, 202803, Note_on_c, 0, 60, 0
2, 202814, Note_on_c, 0, 54, 0
2, 202819, Note_on_c, 0, 57, 0
2, 202836, Note_on_c, 0, 87, 0
2, 203086, Control_c, 0, 64, 127
2, 203932, Control_c, 0, 64, 0
2, 204024, Note_on_c, 0, 56, 79
2, 204029, Note_on_c, 0, 67, 81
2, 204036, Note_on_c, 0, 60, 66
2, 204038, Note_on_c, 0, 63, 65
2, 204044, Note_on_c, 0, 92, 81
2, 204048, Note_on_c, 0, 96, 84
2, 204049, Note_on_c, 0, 84, 86
2, 204051, Note_on_c, 0, 89, 68
2, 204061, Note_on_c, 0, 95, 65
2, 204070, Note_on_c, 0, 88, 49
2, 204083, Note_on_c, 0, 89, 0
2, 204086, Note_on_c, 0, 84, 0
2, 204090, Note_on_c, 0, 95, 0
2, 204102, Note_on_c, 0, 88, 0
2, 204143, Control_c, 0, 64, 127
2, 204257, Note_on_c, 0, 92, 0
2, 204271, Note_on_c, 0, 67, 0
2, 204276, Note_on_c, 0, 96, 0
2, 204284, Note_on_c, 0, 56, 0
2, 204315, Note_on_c, 0, 60, 0
2, 204325, Note_on_c, 0, 63, 0
2, 204375, Control_c, 0, 64, 0
2, 204387, Note_on_c, 0, 56, 80
2, 204390, Note_on_c, 0, 63, 79
2, 204392, Note_on_c, 0, 60, 78
2, 204393, Note_on_c, 0, 67, 86
2, 204396, Note_on_c, 0, 101, 82
2, 204397, Note_on_c, 0, 103, 83
2, 204398, Note_on_c, 0, 96, 83
2, 204401, Note_on_c, 0, 89, 72
2, 204403, Note_on_c, 0, 99, 51
2, 204406, Note_on_c, 0, 91, 70
2, 204429, Note_on_c, 0, 103, 0
2, 204434, Note_on_c, 0, 99, 0
2, 204437, Note_on_c, 0, 91, 0
2, 204532, Note_on_c, 0, 67, 0
2, 204551, Note_on_c, 0, 101, 0
2, 204551, Note_on_c, 0, 89, 0
2, 204554, Note_on_c, 0, 56, 0
2, 204583, Control_c, 0, 64, 127
2, 204584, Note_on_c, 0, 60, 0
2, 204589, Note_on_c, 0, 96, 0
2, 204596, Note_on_c, 0, 63, 0
2, 204645, Note_on_c, 0, 56, 44
2, 204647, Note_on_c, 0, 67, 48
2, 204661, Note_on_c, 0, 63, 51
2, 204670, Note_on_c, 0, 60, 48
2, 204692, Note_on_c, 0, 100, 65
2, 204708, Note_on_c, 0, 94, 35
2, 204714, Note_on_c, 0, 88, 31
2, 204739, Note_on_c, 0, 99, 35
2, 204754, Note_on_c, 0, 94, 0
2, 204790, Note_on_c, 0, 100, 0
2, 204815, Note_on_c, 0, 99, 0
2, 204817, Note_on_c, 0, 88, 0
2, 204856, Note_on_c, 0, 67, 0
2, 204871, Note_on_c, 0, 56, 0
2, 204876, Note_on_c, 0, 60, 0
2, 204889, Note_on_c, 0, 63, 0
2, 204948, Control_c, 0, 64, 0
2, 204999, Note_on_c, 0, 63, 60
2, 205002, Note_on_c, 0, 67, 68
2, 205008, Note_on_c, 0, 60, 57
2, 205010, Note_on_c, 0, 56, 59
2, 205015, Note_on_c, 0, 99, 66
2, 205024, Note_on_c, 0, 94, 62
2, 205026, Note_on_c, 0, 87, 56
2, 205123, Control_c, 0, 64, 127
2, 205208, Note_on_c, 0, 67, 0
2, 205214, Note_on_c, 0, 56, 0
2, 205219, Note_on_c, 0, 99, 0
2, 205223, Note_on_c, 0, 94, 0
2, 205242, Note_on_c, 0, 87, 0
2, 205266, Note_on_c, 0, 60, 0
2, 205277, Control_c, 0, 64, 0
2, 205280, Note_on_c, 0, 63, 0
2, 205337, Note_on_c, 0, 98, 63
2, 205341, Note_on_c, 0, 67, 66
2, 205345, Note_on_c, 0, 93, 57
2, 205347, Note_on_c, 0, 60, 59
2, 205351, Note_on_c, 0, 86, 52
2, 205359, Note_on_c, 0, 56, 52
2, 205360, Note_on_c, 0, 62, 57
2, 205498, Control_c, 0, 64, 127
2, 205760, Note_on_c, 0, 98, 0
2, 205763, Note_on_c, 0, 93, 0
2, 205780, Note_on_c, 0, 56, 0
2, 205781, Note_on_c, 0, 67, 0
2, 205796, Note_on_c, 0, 86, 0
2, 205798, Note_on_c, 0, 62, 0
2, 205805, Note_on_c, 0, 60, 0
2, 205932, Control_c, 0, 64, 0
2, 205962, Note_on_c, 0, 97, 57
2, 205963, Note_on_c, 0, 67, 51
2, 205972, Note_on_c, 0, 56, 42
2, 205977, Note_on_c, 0, 85, 46
2, 205981, Note_on_c, 0, 92, 51
2, 205983, Note_on_c, 0, 62, 48
2, 205986, Note_on_c, 0, 60, 45
2, 206154, Control_c, 0, 64, 127
2, 206178, Note_on_c, 0, 85, 0
2, 206185, Note_on_c, 0, 67, 0
2, 206188, Note_on_c, 0, 97, 0
2, 206189, Note_on_c, 0, 60, 0
2, 206194, Note_on_c, 0, 56, 0
2, 206200, Note_on_c, 0, 92, 0
2, 206200, Note_on_c, 0, 62, 0
2, 206279, Control_c, 0, 64, 0
2, 206296, Note_on_c, 0, 56, 60
2, 206298, Note_on_c, 0, 67, 66
2, 206300, Note_on_c, 0, 99, 77
2, 206305, Note_on_c, 0, 62, 56
2, 206306, Note_on_c, 0, 87, 66
2, 206311, Note_on_c, 0, 60, 49
2, 206316, Note_on_c, 0, 94, 62
2, 206401, Note_on_c, 0, 67, 0
2, 206415, Note_on_c, 0, 99, 0
2, 206420, Note_on_c, 0, 87, 0
2, 206435, Note_on_c, 0, 60, 0
2, 206436, Note_on_c, 0, 56, 0
2, 206446, Note_on_c, 0, 94, 0
2, 206454, Note_on_c, 0, 62, 0
2, 206492, Control_c, 0, 64, 127
2, 206530, Note_on_c, 0, 56, 46
2, 206543, Note_on_c, 0, 67, 36
2, 206546, Note_on_c, 0, 97, 55
2, 206567, Note_on_c, 0, 62, 42
2, 206568, Note_on_c, 0, 85, 40
2, 206572, Note_on_c, 0, 92, 49
2, 206635, Note_on_c, 0, 67, 0
2, 206699, Note_on_c, 0, 62, 0
2, 206713, Note_on_c, 0, 56, 0
2, 206723, Note_on_c, 0, 92, 0
2, 206740, Note_on_c, 0, 97, 0
2, 206743, Note_on_c, 0, 85, 0
2, 206849, Control_c, 0, 64, 0
2, 206908, Note_on_c, 0, 66, 58
2, 206921, Note_on_c, 0, 96, 63
2, 206926, Note_on_c, 0, 56, 45
2, 206938, Note_on_c, 0, 91, 51
2, 206940, Note_on_c, 0, 84, 49
2, 206947, Note_on_c, 0, 62, 36
2, 206986, Control_c, 0, 64, 127
2, 207039, Note_on_c, 0, 96, 0
2, 207058, Note_on_c, 0, 91, 0
2, 207081, Note_on_c, 0, 62, 0
2, 207097, Note_on_c, 0, 66, 0
2, 207099, Note_on_c, 0, 84, 0
2, 207113, Note_on_c, 0, 56, 0
2, 207205, Control_c, 0, 64, 0
2, 207232, Note_on_c, 0, 90, 63
2, 207235, Note_on_c, 0, 62, 45
2, 207243, Note_on_c, 0, 65, 61
2, 207248, Note_on_c, 0, 94, 53
2, 207250, Note_on_c, 0, 60, 52
2, 207269, Note_on_c, 0, 55, 48
2, 207391, Note_on_c, 0, 90, 0
2, 207439, Note_on_c, 0, 94, 0
2, 207466, Note_on_c, 0, 65, 0
2, 207479, Note_on_c, 0, 60, 0
2, 207489, Note_on_c, 0, 55, 0
2, 207498, Note_on_c, 0, 62, 0
2, 207707, Note_on_c, 0, 94, 74
2, 207715, Note_on_c, 0, 62, 56
2, 207717, Note_on_c, 0, 65, 66
2, 207720, Note_on_c, 0, 82, 63
2, 207722, Note_on_c, 0, 60, 57
2, 207725, Note_on_c, 0, 55, 57
2, 207732, Note_on_c, 0, 89, 61
2, 207844, Note_on_c, 0, 65, 0
2, 207846, Note_on_c, 0, 94, 0
2, 207850, Note_on_c, 0, 89, 0
2, 207851, Note_on_c, 0, 82, 0
2, 207913, Note_on_c, 0, 94, 56
2, 207923, Note_on_c, 0, 82, 34
2, 207926, Note_on_c, 0, 65, 61
2, 207950, Note_on_c, 0, 89, 51
2, 208054, Note_on_c, 0, 65, 0
2, 208055, Note_on_c, 0, 89, 0
2, 208072, Note_on_c, 0, 94, 0
2, 208082, Note_on_c, 0, 82, 0
2, 208086, Note_on_c, 0, 55, 0
2, 208098, Note_on_c, 0, 62, 0
2, 208103, Note_on_c, 0, 60, 0
2, 208188, Note_on_c, 0, 94, 57
2, 208195, Note_on_c, 0, 82, 57
2, 208198, Note_on_c, 0, 55, 49
2, 208199, Note_on_c, 0, 65, 49
2, 208202, Note_on_c, 0, 62, 50
2, 208206, Note_on_c, 0, 60, 58
2, 208213, Note_on_c, 0, 89, 57
2, 208274, Note_on_c, 0, 65, 0
2, 208291, Note_on_c, 0, 94, 0
2, 208297, Note_on_c, 0, 82, 0
2, 208303, Note_on_c, 0, 62, 0
2, 208309, Note_on_c, 0, 89, 0
2, 208316, Note_on_c, 0, 55, 0
2, 208328, Note_on_c, 0, 60, 0
2, 208388, Note_on_c, 0, 65, 45
2, 208391, Note_on_c, 0, 94, 49
2, 208395, Note_on_c, 0, 55, 38
2, 208408, Note_on_c, 0, 82, 48
2, 208416, Note_on_c, 0, 89, 57
2, 208458, Note_on_c, 0, 89, 0
2, 208484, Note_on_c, 0, 58, 24
2, 208486, Note_on_c, 0, 65, 0
2, 208492, Note_on_c, 0, 82, 0
2, 208494, Note_on_c, 0, 94, 0
2, 208535, Note_on_c, 0, 55, 0
2, 208550, Note_on_c, 0, 58, 0
2, 208811, Note_on_c, 0, 60, 75
2, 208812, Note_on_c, 0, 54, 80
2, 208814, Note_on_c, 0, 65, 82
2, 208816, Note_on_c, 0, 94, 85
2, 208823, Note_on_c, 0, 82, 86
2, 208830, Note_on_c, 0, 89, 82
2, 208844, Note_on_c, 0, 58, 39
2, 208889, Note_on_c, 0, 58, 0
2, 208997, Note_on_c, 0, 82, 0
2, 208999, Note_on_c, 0, 94, 0
2, 209032, Note_on_c, 0, 89, 0
2, 209034, Note_on_c, 0, 65, 0
2, 209039, Note_on_c, 0, 60, 0
2, 209121, Note_on_c, 0, 54, 0
2, 209301, Note_on_c, 0, 64, 77
2, 209305, Note_on_c, 0, 94, 85
2, 209311, Note_on_c, 0, 82, 82
2, 209313, Note_on_c, 0, 59, 57
2, 209315, Note_on_c, 0, 53, 63
2, 209317, Note_on_c, 0, 87, 75
2, 209514, Note_on_c, 0, 82, 0
2, 209522, Note_on_c, 0, 87, 0
2, 209532, Note_on_c, 0, 94, 0
2, 209639, Note_on_c, 0, 92, 82
2, 209771, Note_on_c, 0, 64, 0
2, 209780, Note_on_c, 0, 59, 0
2, 209788, Note_on_c, 0, 92, 0
2, 209838, Note_on_c, 0, 53, 0
2, 209891, Note_on_c, 0, 87, 57
2, 210112, Note_on_c, 0, 58, 48
2, 210122, Note_on_c, 0, 62, 46
2, 210126, Note_on_c, 0, 52, 46
2, 210144, Note_on_c, 0, 83, 41
2, 210170, Note_on_c, 0, 87, 0
2, 210217, Note_on_c, 0, 83, 0
2, 210339, Note_on_c, 0, 93, 88
2, 210434, Note_on_c, 0, 58, 0
2, 210443, Note_on_c, 0, 52, 0
2, 210510, Note_on_c, 0, 93, 0
2, 210538, Note_on_c, 0, 62, 0
2, 210608, Note_on_c, 0, 92, 72
2, 210744, Note_on_c, 0, 92, 0
2, 210855, Note_on_c, 0, 88, 42
2, 211030, Note_on_c, 0, 88, 0
2, 211087, Note_on_c, 0, 64, 55
2, 211092, Note_on_c, 0, 58, 46
2, 211093, Note_on_c, 0, 85, 63
2, 211099, Note_on_c, 0, 69, 27
2, 211126, Note_on_c, 0, 64, 0
2, 211135, Note_on_c, 0, 58, 0
2, 211136, Note_on_c, 0, 69, 0
2, 211255, Note_on_c, 0, 85, 0
2, 211281, Note_on_c, 0, 82, 60
2, 211467, Note_on_c, 0, 82, 0
2, 211567, Note_on_c, 0, 81, 53
2, 211592, Note_on_c, 0, 63, 51
2, 211607, Note_on_c, 0, 67, 40
2, 211636, Note_on_c, 0, 56, 33
2, 211641, Note_on_c, 0, 60, 32
2, 211748, Note_on_c, 0, 81, 0
2, 211775, Note_on_c, 0, 80, 41
2, 212049, Note_on_c, 0, 80, 0
2, 212157, Note_on_c, 0, 60, 0
2, 212184, Note_on_c, 0, 63, 0
2, 212188, Note_on_c, 0, 67, 0
2, 212201, Note_on_c, 0, 56, 0
2, 212540, Note_on_c, 0, 67, 53
2, 212549, Note_on_c, 0, 63, 51
2, 212554, Note_on_c, 0, 56, 38
2, 212565, Note_on_c, 0, 60, 44
2, 212593, Note_on_c, 0, 67, 0
2, 212602, Note_on_c, 0, 56, 0
2, 212603, Note_on_c, 0, 63, 0
2, 212604, Note_on_c, 0, 60, 0
2, 213508, Note_on_c, 0, 56, 38
2, 213518, Note_on_c, 0, 62, 48
2, 213537, Note_on_c, 0, 60, 39
2, 213570, Note_on_c, 0, 56, 0
2, 213595, Note_on_c, 0, 60, 0
2, 213628, Note_on_c, 0, 62, 0
2, 213629, Note_on_c, 0, 67, 61
2, 213787, Note_on_c, 0, 67, 0
2, 213803, Note_on_c, 0, 66, 54
2, 213896, Note_on_c, 0, 66, 0
2, 213952, Note_on_c, 0, 67, 71
2, 214033, Note_on_c, 0, 62, 43
2, 214063, Note_on_c, 0, 60, 35
2, 214066, Note_on_c, 0, 56, 22
2, 214084, Note_on_c, 0, 67, 0
2, 214130, Note_on_c, 0, 56, 0
2, 214132, Note_on_c, 0, 68, 57
2, 214133, Note_on_c, 0, 62, 0
2, 214142, Note_on_c, 0, 60, 0
2, 214252, Note_on_c, 0, 68, 0
2, 214305, Note_on_c, 0, 67, 45
2, 214409, Note_on_c, 0, 67, 0
2, 214465, Note_on_c, 0, 68, 76
2, 214504, Note_on_c, 0, 62, 51
2, 214506, Note_on_c, 0, 66, 57
2, 214534, Note_on_c, 0, 56, 35
2, 214555, Note_on_c, 0, 60, 33
2, 214573, Note_on_c, 0, 66, 0
2, 214595, Note_on_c, 0, 68, 0
2, 214606, Note_on_c, 0, 56, 0
2, 214622, Note_on_c, 0, 62, 0
2, 214623, Note_on_c, 0, 60, 0
2, 214643, Note_on_c, 0, 69, 74
2, 214813, Note_on_c, 0, 69, 0
2, 214842, Note_on_c, 0, 67, 50
2, 214881, Note_on_c, 0, 67, 0
2, 214997, Note_on_c, 0, 69, 107
2, 215041, Note_on_c, 0, 63, 45
2, 215076, Note_on_c, 0, 56, 38
2, 215081, Note_on_c, 0, 60, 39
2, 215148, Note_on_c, 0, 69, 0
2, 215198, Note_on_c, 0, 70, 77
2, 215199, Note_on_c, 0, 63, 0
2, 215288, Note_on_c, 0, 60, 0
2, 215336, Note_on_c, 0, 56, 0
2, 215383, Note_on_c, 0, 70, 0
2, 215454, Note_on_c, 0, 67, 76
2, 215456, Note_on_c, 0, 63, 41
2, 215504, Note_on_c, 0, 56, 27
2, 215507, Note_on_c, 0, 63, 0
2, 215562, Note_on_c, 0, 56, 0
2, 215569, Note_on_c, 0, 67, 0
2, 215663, Note_on_c, 0, 65, 40
2, 215823, Note_on_c, 0, 65, 0
2, 215911, Note_on_c, 0, 63, 73
2, 216070, Note_on_c, 0, 63, 0
2, 216124, Note_on_c, 0, 62, 54
2, 216333, Note_on_c, 0, 62, 0
2, 216376, Note_on_c, 0, 63, 58
2, 216399, Note_on_c, 0, 56, 43
2, 216409, Note_on_c, 0, 46, 39
2, 216446, Note_on_c, 0, 53, 26
2, 216456, Note_on_c, 0, 56, 0
2, 216501, Note_on_c, 0, 63, 0
2, 216506, Note_on_c, 0, 53, 0
2, 216528, Note_on_c, 0, 46, 0
2, 216538, Note_on_c, 0, 65, 56
2, 216954, Note_on_c, 0, 65, 0
2, 217309, Note_on_c, 0, 39, 59
2, 217347, Note_on_c, 0, 46, 39
2, 217361, Note_on_c, 0, 39, 0
2, 217390, Note_on_c, 0, 46, 0
2, 217944, Note_on_c, 0, 63, 63
2, 217954, Note_on_c, 0, 53, 57
2, 217957, Note_on_c, 0, 59, 52
2, 218142, Note_on_c, 0, 59, 0
2, 218179, Note_on_c, 0, 53, 0
2, 218199, Note_on_c, 0, 63, 0
2, 218421, Note_on_c, 0, 58, 58
2, 218423, Note_on_c, 0, 63, 67
2, 218441, Note_on_c, 0, 52, 56
2, 218657, Note_on_c, 0, 52, 0
2, 218699, Note_on_c, 0, 58, 0
2, 218727, Note_on_c, 0, 63, 0
2, 219234, Note_on_c, 0, 51, 58
2, 219235, Note_on_c, 0, 60, 71
2, 219251, Note_on_c, 0, 53, 57
2, 219253, Note_on_c, 0, 56, 57
2, 219287, Note_on_c, 0, 56, 0
2, 219325, Note_on_c, 0, 60, 0
2, 219330, Note_on_c, 0, 51, 0
2, 219350, Note_on_c, 0, 53, 0
2, 219738, Note_on_c, 0, 60, 48
2, 219742, Note_on_c, 0, 53, 54
2, 219771, Note_on_c, 0, 60, 0
2, 219778, Note_on_c, 0, 53, 0
2, 219878, Note_on_c, 0, 70, 90
2, 219882, Note_on_c, 0, 67, 102
2, 220153, Note_on_c, 0, 67, 0
2, 220176, Note_on_c, 0, 70, 0
2, 220210, Note_on_c, 0, 65, 48
2, 220218, Note_on_c, 0, 68, 43
2, 220293, Note_on_c, 0, 65, 0
2, 220312, Note_on_c, 0, 68, 0
2, 220356, Note_on_c, 0, 70, 72
2, 220358, Note_on_c, 0, 67, 68
2, 220638, Note_on_c, 0, 67, 0
2, 220677, Note_on_c, 0, 70, 0
2, 220683, Note_on_c, 0, 56, 51
2, 220719, Note_on_c, 0, 56, 0
2, 220830, Note_on_c, 0, 68, 82
2, 220836, Note_on_c, 0, 71, 74
2, 221122, Note_on_c, 0, 68, 0
2, 221169, Note_on_c, 0, 71, 0
2, 221171, Note_on_c, 0, 58, 49
2, 221213, Note_on_c, 0, 58, 0
2, 221298, Note_on_c, 0, 71, 68
2, 221300, Note_on_c, 0, 68, 68
2, 221574, Note_on_c, 0, 68, 0
2, 221576, Note_on_c, 0, 71, 0
2, 221609, Note_on_c, 0, 72, 71
2, 221615, Note_on_c, 0, 67, 73
2, 221622, Note_on_c, 0, 51, 54
2, 221628, Note_on_c, 0, 58, 49
2, 221635, Note_on_c, 0, 62, 43
2, 221968, Note_on_c, 0, 58, 0
2, 222063, Note_on_c, 0, 62, 0
2, 222076, Note_on_c, 0, 72, 0
2, 222096, Note_on_c, 0, 67, 0
2, 222107, Note_on_c, 0, 58, 28
2, 222167, Note_on_c, 0, 58, 0
2, 222250, Note_on_c, 0, 66, 67
2, 222258, Note_on_c, 0, 73, 61
2, 222265, Note_on_c, 0, 58, 57
2, 222268, Note_on_c, 0, 62, 47
2, 222324, Note_on_c, 0, 51, 0
2, 222425, Note_on_c, 0, 58, 0
2, 222461, Note_on_c, 0, 62, 0
2, 222504, Note_on_c, 0, 66, 0
2, 222526, Note_on_c, 0, 73, 0
2, 222586, Note_on_c, 0, 74, 79
2, 222594, Note_on_c, 0, 64, 51
2, 222596, Note_on_c, 0, 67, 55
2, 222601, Note_on_c, 0, 57, 52
2, 222608, Note_on_c, 0, 55, 49
2, 222616, Note_on_c, 0, 60, 55
2, 222824, Control_c, 0, 64, 127
2, 222875, Note_on_c, 0, 55, 0
2, 222899, Note_on_c, 0, 60, 0
2, 222918, Note_on_c, 0, 57, 0
2, 222967, Note_on_c, 0, 74, 0
2, 222990, Note_on_c, 0, 64, 0
2, 223076, Note_on_c, 0, 67, 0
2, 223107, Note_on_c, 0, 57, 38
2, 223147, Note_on_c, 0, 57, 0
2, 223163, Control_c, 0, 64, 0
2, 223230, Note_on_c, 0, 76, 63
2, 223235, Note_on_c, 0, 72, 52
2, 223247, Note_on_c, 0, 69, 51
2, 223250, Note_on_c, 0, 67, 48
2, 223252, Note_on_c, 0, 57, 46
2, 223254, Note_on_c, 0, 64, 55
2, 223256, Note_on_c, 0, 60, 41
2, 223257, Note_on_c, 0, 55, 56
2, 223302, Control_c, 0, 64, 127
2, 223336, Note_on_c, 0, 69, 0
2, 223343, Note_on_c, 0, 72, 0
2, 223346, Note_on_c, 0, 64, 0
2, 223368, Note_on_c, 0, 76, 0
2, 223369, Note_on_c, 0, 67, 0
2, 223383, Note_on_c, 0, 55, 0
2, 223415, Note_on_c, 0, 57, 0
2, 223427, Note_on_c, 0, 60, 0
2, 223567, Control_c, 0, 64, 0
2, 223569, Note_on_c, 0, 79, 80
2, 223576, Note_on_c, 0, 72, 63
2, 223576, Note_on_c, 0, 75, 66
2, 223579, Note_on_c, 0, 67, 63
2, 223582, Note_on_c, 0, 60, 63
2, 223585, Note_on_c, 0, 54, 68
2, 223587, Note_on_c, 0, 64, 70
2, 223760, Control_c, 0, 64, 127
2, 223850, Note_on_c, 0, 60, 0
2, 223877, Note_on_c, 0, 64, 0
2, 223886, Note_on_c, 0, 79, 0
2, 223913, Note_on_c, 0, 54, 0
2, 223917, Note_on_c, 0, 67, 0
2, 224046, Note_on_c, 0, 75, 0
2, 224051, Note_on_c, 0, 72, 0
2, 224066, Note_on_c, 0, 60, 48
2, 224103, Note_on_c, 0, 60, 0
2, 224122, Control_c, 0, 64, 0
2, 224193, Note_on_c, 0, 68, 61
2, 224199, Note_on_c, 0, 54, 61
2, 224206, Note_on_c, 0, 80, 57
2, 224208, Note_on_c, 0, 60, 48
2, 224211, Note_on_c, 0, 58, 48
2, 224213, Note_on_c, 0, 64, 39
2, 224216, Note_on_c, 0, 75, 49
2, 224254, Control_c, 0, 64, 127
2, 224275, Note_on_c, 0, 64, 0
2, 224303, Note_on_c, 0, 60, 0
2, 224337, Note_on_c, 0, 75, 0
2, 224369, Note_on_c, 0, 58, 0
2, 224381, Note_on_c, 0, 68, 0
2, 224393, Note_on_c, 0, 80, 0
2, 224409, Note_on_c, 0, 54, 0
2, 224530, Note_on_c, 0, 59, 60
2, 224531, Note_on_c, 0, 81, 73
2, 224533, Note_on_c, 0, 69, 69
2, 224533, Control_c, 0, 64, 0
2, 224536, Note_on_c, 0, 62, 62
2, 224541, Note_on_c, 0, 74, 70
2, 224547, Note_on_c, 0, 78, 56
2, 224554, Note_on_c, 0, 52, 49
2, 224558, Note_on_c, 0, 57, 47
2, 224588, Note_on_c, 0, 79, 29
2, 224632, Note_on_c, 0, 79, 0
2, 224723, Control_c, 0, 64, 127
2, 224743, Note_on_c, 0, 52, 0
2, 224818, Note_on_c, 0, 59, 0
2, 224822, Note_on_c, 0, 57, 0
2, 224837, Note_on_c, 0, 62, 0
2, 224926, Note_on_c, 0, 81, 0
2, 224928, Note_on_c, 0, 69, 0
2, 224982, Note_on_c, 0, 74, 0
2, 225008, Note_on_c, 0, 78, 0
2, 225036, Note_on_c, 0, 59, 39
2, 225076, Control_c, 0, 64, 0
2, 225079, Note_on_c, 0, 59, 0
2, 225161, Note_on_c, 0, 70, 75
2, 225173, Note_on_c, 0, 82, 63
2, 225174, Note_on_c, 0, 52, 39
2, 225177, Note_on_c, 0, 78, 50
2, 225182, Note_on_c, 0, 57, 43
2, 225186, Note_on_c, 0, 62, 57
2, 225193, Note_on_c, 0, 59, 37
2, 225200, Control_c, 0, 64, 88
2, 225204, Control_c, 0, 64, 127
2, 225215, Note_on_c, 0, 78, 0
2, 225221, Note_on_c, 0, 52, 0
2, 225232, Note_on_c, 0, 59, 0
2, 225237, Note_on_c, 0, 57, 0
2, 225270, Note_on_c, 0, 62, 0
2, 225356, Note_on_c, 0, 70, 0
2, 225377, Note_on_c, 0, 82, 0
2, 225466, Control_c, 0, 64, 0
2, 225480, Note_on_c, 0, 56, 72
2, 225483, Note_on_c, 0, 67, 76
2, 225487, Note_on_c, 0, 80, 40
2, 225491, Note_on_c, 0, 83, 73
2, 225491, Note_on_c, 0, 71, 75
2, 225497, Note_on_c, 0, 62, 66
2, 225497, Note_on_c, 0, 76, 75
2, 225631, Control_c, 0, 64, 127
2, 225643, Note_on_c, 0, 71, 0
2, 225680, Note_on_c, 0, 67, 0
2, 225682, Note_on_c, 0, 76, 0
2, 225700, Note_on_c, 0, 80, 0
2, 225711, Note_on_c, 0, 83, 0
2, 225719, Note_on_c, 0, 62, 0
2, 225738, Note_on_c, 0, 56, 0
2, 225974, Control_c, 0, 64, 0
2, 225978, Note_on_c, 0, 86, 96
2, 225980, Note_on_c, 0, 56, 81
2, 225988, Note_on_c, 0, 67, 84
2, 225990, Note_on_c, 0, 62, 78
2, 225992, Note_on_c, 0, 74, 71
2, 225993, Note_on_c, 0, 79, 76
2, 225997, Note_on_c, 0, 80, 39
2, 226018, Note_on_c, 0, 76, 46
2, 226047, Note_on_c, 0, 80, 0
2, 226052, Note_on_c, 0, 76, 0
2, 226142, Control_c, 0, 64, 127
2, 226198, Note_on_c, 0, 74, 0
2, 226214, Note_on_c, 0, 79, 0
2, 226217, Note_on_c, 0, 62, 0
2, 226219, Note_on_c, 0, 67, 0
2, 226244, Note_on_c, 0, 86, 0
2, 226305, Note_on_c, 0, 56, 0
2, 226431, Control_c, 0, 64, 0
2, 226441, Note_on_c, 0, 88, 90
2, 226443, Note_on_c, 0, 64, 84
2, 226444, Note_on_c, 0, 55, 75
2, 226447, Note_on_c, 0, 76, 90
2, 226448, Note_on_c, 0, 81, 83
2, 226450, Note_on_c, 0, 57, 68
2, 226452, Note_on_c, 0, 60, 66
2, 226458, Note_on_c, 0, 84, 63
2, 226610, Note_on_c, 0, 76, 0
2, 226612, Control_c, 0, 64, 127
2, 226626, Note_on_c, 0, 81, 0
2, 226636, Note_on_c, 0, 84, 0
2, 226663, Note_on_c, 0, 88, 0
2, 226663, Note_on_c, 0, 64, 0
2, 226672, Note_on_c, 0, 55, 0
2, 226678, Note_on_c, 0, 60, 0
2, 226693, Note_on_c, 0, 57, 0
2, 226903, Note_on_c, 0, 91, 94
2, 226904, Note_on_c, 0, 84, 86
2, 226906, Note_on_c, 0, 79, 89
2, 226907, Note_on_c, 0, 88, 82
2, 226909, Note_on_c, 0, 64, 94
2, 226911, Control_c, 0, 64, 0
2, 226913, Note_on_c, 0, 55, 81
2, 226914, Note_on_c, 0, 57, 79
2, 226916, Note_on_c, 0, 60, 75
2, 227073, Control_c, 0, 64, 127
2, 227086, Note_on_c, 0, 79, 0
2, 227097, Note_on_c, 0, 91, 0
2, 227100, Note_on_c, 0, 84, 0
2, 227130, Note_on_c, 0, 88, 0
2, 227141, Note_on_c, 0, 64, 0
2, 227148, Note_on_c, 0, 60, 0
2, 227157, Note_on_c, 0, 55, 0
2, 227169, Note_on_c, 0, 57, 0
2, 227346, Control_c, 0, 64, 0
2, 227377, Note_on_c, 0, 65, 111
2, 227378, Note_on_c, 0, 92, 87
2, 227379, Note_on_c, 0, 54, 86
2, 227382, Note_on_c, 0, 87, 87
2, 227383, Note_on_c, 0, 80, 87
2, 227391, Note_on_c, 0, 58, 68
2, 227393, Note_on_c, 0, 60, 73
2, 227421, Note_on_c, 0, 58, 0
2, 227424, Note_on_c, 0, 60, 0
2, 227476, Note_on_c, 0, 58, 31
2, 227485, Note_on_c, 0, 60, 25
2, 227530, Control_c, 0, 64, 127
2, 227609, Note_on_c, 0, 60, 0
2, 227610, Note_on_c, 0, 92, 0
2, 227611, Note_on_c, 0, 80, 0
2, 227612, Note_on_c, 0, 58, 0
2, 227623, Note_on_c, 0, 65, 0
2, 227627, Note_on_c, 0, 87, 0
2, 227628, Note_on_c, 0, 54, 0
2, 227831, Control_c, 0, 64, 0
2, 227841, Note_on_c, 0, 87, 89
2, 227843, Note_on_c, 0, 65, 107
2, 227844, Note_on_c, 0, 93, 85
2, 227846, Note_on_c, 0, 58, 81
2, 227847, Note_on_c, 0, 54, 85
2, 227848, Note_on_c, 0, 60, 82
2, 227854, Note_on_c, 0, 81, 81
2, 228015, Control_c, 0, 64, 127
2, 228031, Note_on_c, 0, 65, 0
2, 228035, Note_on_c, 0, 81, 0
2, 228050, Note_on_c, 0, 93, 0
2, 228052, Note_on_c, 0, 60, 0
2, 228076, Note_on_c, 0, 58, 0
2, 228084, Note_on_c, 0, 87, 0
2, 228108, Note_on_c, 0, 54, 0
2, 228268, Control_c, 0, 64, 0
2, 228319, Note_on_c, 0, 59, 74
2, 228323, Note_on_c, 0, 62, 77
2, 228325, Note_on_c, 0, 94, 77
2, 228326, Note_on_c, 0, 82, 76
2, 228328, Note_on_c, 0, 87, 75
2, 228329, Note_on_c, 0, 57, 66
2, 228340, Note_on_c, 0, 52, 59
2, 228510, Control_c, 0, 64, 127
2, 228646, Note_on_c, 0, 87, 0
2, 228647, Note_on_c, 0, 57, 0
2, 228651, Note_on_c, 0, 82, 0
2, 228653, Note_on_c, 0, 52, 0
2, 228660, Note_on_c, 0, 62, 0
2, 228667, Note_on_c, 0, 94, 0
2, 228671, Note_on_c, 0, 59, 0
2, 228771, Control_c, 0, 64, 0
2, 228798, Note_on_c, 0, 95, 51
2, 228806, Note_on_c, 0, 88, 65
2, 228814, Note_on_c, 0, 83, 49
2, 228816, Note_on_c, 0, 52, 51
2, 228820, Note_on_c, 0, 62, 47
2, 228827, Note_on_c, 0, 59, 46
2, 228839, Note_on_c, 0, 57, 48
2, 228963, Control_c, 0, 64, 127
2, 229033, Note_on_c, 0, 88, 0
2, 229073, Note_on_c, 0, 83, 0
2, 229087, Note_on_c, 0, 57, 0
2, 229097, Note_on_c, 0, 52, 0
2, 229104, Note_on_c, 0, 95, 0
2, 229105, Note_on_c, 0, 59, 0
2, 229116, Note_on_c, 0, 62, 0
2, 229255, Note_on_c, 0, 90, 40
2, 229257, Control_c, 0, 64, 0
2, 229289, Note_on_c, 0, 62, 44
2, 229292, Note_on_c, 0, 52, 48
2, 229297, Note_on_c, 0, 59, 46
2, 229299, Note_on_c, 0, 96, 45
2, 229303, Note_on_c, 0, 90, 0
2, 229310, Note_on_c, 0, 57, 51
2, 229327, Note_on_c, 0, 84, 35
2, 229335, Note_on_c, 0, 91, 50
2, 229407, Control_c, 0, 64, 127
2, 229479, Note_on_c, 0, 84, 0
2, 229492, Note_on_c, 0, 96, 0
2, 229498, Note_on_c, 0, 91, 0
2, 229502, Note_on_c, 0, 57, 0
2, 229516, Note_on_c, 0, 52, 0
2, 229523, Note_on_c, 0, 59, 0
2, 229544, Note_on_c, 0, 62, 0
2, 229725, Control_c, 0, 64, 0
2, 229771, Note_on_c, 0, 52, 48
2, 229775, Note_on_c, 0, 98, 47
2, 229779, Note_on_c, 0, 59, 45
2, 229783, Note_on_c, 0, 57, 47
2, 229788, Note_on_c, 0, 62, 56
2, 229803, Note_on_c, 0, 91, 34
2, 229809, Note_on_c, 0, 94, 36
2, 229811, Note_on_c, 0, 86, 39
2, 229862, Control_c, 0, 64, 127
2, 229866, Note_on_c, 0, 52, 0
2, 229886, Note_on_c, 0, 91, 0
2, 229887, Note_on_c, 0, 59, 0
2, 229892, Note_on_c, 0, 57, 0
2, 229924, Note_on_c, 0, 94, 0
2, 229926, Note_on_c, 0, 98, 0
2, 229935, Note_on_c, 0, 86, 0
2, 229946, Note_on_c, 0, 62, 0
2, 230231, Control_c, 0, 64, 0
2, 230243, Note_on_c, 0, 99, 63
2, 230245, Note_on_c, 0, 56, 52
2, 230248, Note_on_c, 0, 60, 50
2, 230251, Note_on_c, 0, 67, 43
2, 230259, Note_on_c, 0, 63, 46
2, 230370, Note_on_c, 0, 67, 0
2, 230423, Note_on_c, 0, 99, 0
2, 230429, Note_on_c, 0, 56, 0
2, 230453, Note_on_c, 0, 60, 0
2, 230533, Note_on_c, 0, 96, 34
2, 230538, Note_on_c, 0, 63, 0
2, 230665, Note_on_c, 0, 96, 0
2, 230805, Note_on_c, 0, 60, 20
2, 230858, Note_on_c, 0, 60, 0
2, 230891, Note_on_c, 0, 92, 48
2, 231205, Note_on_c, 0, 92, 0
2, 231260, Note_on_c, 0, 67, 36
2, 231264, Note_on_c, 0, 63, 41
2, 231270, Note_on_c, 0, 91, 48
2, 231291, Note_on_c, 0, 60, 34
2, 231309, Note_on_c, 0, 67, 0
2, 231373, Note_on_c, 0, 63, 0
2, 231390, Note_on_c, 0, 60, 0
2, 231433, Note_on_c, 0, 91, 0
2, 231549, Note_on_c, 0, 103, 63
2, 231687, Note_on_c, 0, 103, 0
2, 231743, Note_on_c, 0, 63, 48
2, 231749, Note_on_c, 0, 102, 66
2, 231806, Note_on_c, 0, 63, 0
2, 231864, Note_on_c, 0, 102, 0
2, 231966, Note_on_c, 0, 101, 52
2, 232156, Note_on_c, 0, 101, 0
2, 232227, Note_on_c, 0, 67, 36
2, 232228, Note_on_c, 0, 100, 57
2, 232242, Note_on_c, 0, 63, 39
2, 232247, Note_on_c, 0, 62, 32
2, 232271, Note_on_c, 0, 60, 33
2, 232339, Note_on_c, 0, 100, 0
2, 232341, Note_on_c, 0, 62, 0
2, 232343, Note_on_c, 0, 67, 0
2, 232345, Note_on_c, 0, 60, 0
2, 232385, Note_on_c, 0, 63, 0
2, 232451, Note_on_c, 0, 99, 47
2, 232668, Note_on_c, 0, 99, 0
2, 232706, Note_on_c, 0, 101, 76
2, 232734, Note_on_c, 0, 63, 23
2, 232786, Note_on_c, 0, 63, 0
2, 232861, Note_on_c, 0, 101, 0
2, 232932, Note_on_c, 0, 98, 37
2, 233112, Note_on_c, 0, 98, 0
2, 233184, Note_on_c, 0, 99, 60
2, 233186, Note_on_c, 0, 67, 42
2, 233192, Note_on_c, 0, 63, 43
2, 233239, Note_on_c, 0, 60, 31
2, 233240, Note_on_c, 0, 67, 0
2, 233268, Note_on_c, 0, 63, 0
2, 233299, Note_on_c, 0, 60, 0
2, 233307, Note_on_c, 0, 99, 0
2, 233371, Note_on_c, 0, 91, 48
2, 233568, Note_on_c, 0, 91, 0
2, 233665, Note_on_c, 0, 91, 56
2, 233711, Note_on_c, 0, 91, 0
2, 233718, Note_on_c, 0, 67, 28
2, 233771, Note_on_c, 0, 67, 0
2, 233788, Note_on_c, 0, 60, 26
2, 233835, Note_on_c, 0, 60, 0
2, 233844, Note_on_c, 0, 91, 56
2, 234096, Note_on_c, 0, 91, 0
2, 234134, Note_on_c, 0, 91, 54
2, 234136, Note_on_c, 0, 67, 65
2, 234142, Note_on_c, 0, 63, 55
2, 234156, Note_on_c, 0, 56, 48
2, 234158, Note_on_c, 0, 60, 52
2, 234278, Note_on_c, 0, 91, 0
2, 234389, Note_on_c, 0, 91, 49
2, 234509, Note_on_c, 0, 63, 0
2, 234581, Note_on_c, 0, 91, 0
2, 234628, Note_on_c, 0, 63, 26
2, 234742, Note_on_c, 0, 91, 70
2, 234926, Note_on_c, 0, 67, 0
2, 234935, Note_on_c, 0, 56, 0
2, 234985, Note_on_c, 0, 91, 0
2, 235016, Note_on_c, 0, 63, 0
2, 235025, Note_on_c, 0, 60, 0
2, 235064, Note_on_c, 0, 89, 55
2, 235067, Note_on_c, 0, 67, 52
2, 235082, Note_on_c, 0, 60, 18
2, 235100, Note_on_c, 0, 56, 35
2, 235102, Note_on_c, 0, 62, 43
2, 235498, Note_on_c, 0, 89, 0
2, 235550, Note_on_c, 0, 87, 67
2, 235709, Note_on_c, 0, 87, 0
2, 235717, Note_on_c, 0, 60, 0
2, 235740, Note_on_c, 0, 67, 0
2, 235752, Note_on_c, 0, 62, 0
2, 235785, Note_on_c, 0, 86, 43
2, 235983, Note_on_c, 0, 56, 0
2, 236020, Note_on_c, 0, 86, 0
2, 236051, Note_on_c, 0, 89, 81
2, 236063, Note_on_c, 0, 65, 56
2, 236071, Note_on_c, 0, 58, 53
2, 236073, Note_on_c, 0, 61, 52
2, 236092, Note_on_c, 0, 55, 39
2, 236192, Note_on_c, 0, 89, 0
2, 236282, Note_on_c, 0, 85, 52
2, 236467, Note_on_c, 0, 85, 0
2, 236543, Note_on_c, 0, 65, 0
2, 236606, Note_on_c, 0, 61, 0
2, 236647, Note_on_c, 0, 58, 0
2, 236658, Note_on_c, 0, 77, 63
2, 236661, Note_on_c, 0, 55, 0
2, 236943, Note_on_c, 0, 77, 0
2, 236977, Note_on_c, 0, 84, 63
2, 237003, Note_on_c, 0, 62, 52
2, 237010, Note_on_c, 0, 52, 50
2, 237011, Note_on_c, 0, 58, 51
2, 237035, Note_on_c, 0, 62, 0
2, 237047, Note_on_c, 0, 52, 0
2, 237072, Note_on_c, 0, 58, 0
2, 237235, Note_on_c, 0, 73, 49
2, 237244, Note_on_c, 0, 84, 0
2, 237491, Note_on_c, 0, 73, 0
2, 237621, Note_on_c, 0, 72, 57
2, 237918, Note_on_c, 0, 72, 0
2, 238077, Note_on_c, 0, 82, 70
2, 238080, Note_on_c, 0, 67, 41
2, 238082, Note_on_c, 0, 56, 35
2, 238088, Note_on_c, 0, 75, 62
2, 238107, Note_on_c, 0, 63, 33
2, 238128, Note_on_c, 0, 60, 34
2, 238312, Note_on_c, 0, 82, 0
2, 238325, Note_on_c, 0, 75, 0
2, 238430, Note_on_c, 0, 72, 32
2, 238431, Note_on_c, 0, 67, 0
2, 238453, Note_on_c, 0, 79, 31
2, 238479, Note_on_c, 0, 72, 0
2, 238510, Note_on_c, 0, 60, 0
2, 238523, Note_on_c, 0, 79, 0
2, 238525, Note_on_c, 0, 56, 0
2, 238530, Note_on_c, 0, 63, 0
2, 238574, Note_on_c, 0, 82, 58
2, 238578, Note_on_c, 0, 75, 55
2, 238792, Note_on_c, 0, 82, 0
2, 238808, Note_on_c, 0, 75, 0
2, 238897, Note_on_c, 0, 67, 39
2, 238905, Note_on_c, 0, 72, 39
2, 238922, Note_on_c, 0, 75, 37
2, 238928, Note_on_c, 0, 56, 31
2, 238938, Note_on_c, 0, 63, 31
2, 238948, Note_on_c, 0, 60, 32
2, 238963, Note_on_c, 0, 72, 0
2, 238984, Note_on_c, 0, 75, 0
2, 239017, Note_on_c, 0, 63, 0
2, 239044, Note_on_c, 0, 67, 0
2, 239050, Note_on_c, 0, 60, 0
2, 239075, Note_on_c, 0, 56, 0
2, 239446, Note_on_c, 0, 63, 41
2, 239494, Note_on_c, 0, 63, 0
2, 240359, Note_on_c, 0, 66, 56
2, 240377, Note_on_c, 0, 62, 45
2, 240386, Note_on_c, 0, 56, 35
2, 240393, Note_on_c, 0, 66, 0
2, 240413, Note_on_c, 0, 62, 0
2, 240440, Note_on_c, 0, 56, 0
2, 240462, Note_on_c, 0, 76, 115
2, 240466, Note_on_c, 0, 83, 88
2, 240723, Note_on_c, 0, 83, 0
2, 240781, Note_on_c, 0, 76, 0
2, 240812, Note_on_c, 0, 66, 39
2, 240824, Note_on_c, 0, 62, 40
2, 240844, Note_on_c, 0, 56, 31
2, 240873, Note_on_c, 0, 66, 0
2, 240910, Note_on_c, 0, 56, 0
2, 240973, Note_on_c, 0, 83, 71
2, 240975, Note_on_c, 0, 76, 71
2, 241069, Note_on_c, 0, 62, 0
2, 241160, Note_on_c, 0, 83, 0
2, 241257, Note_on_c, 0, 76, 0
2, 241286, Note_on_c, 0, 74, 68
2, 241329, Note_on_c, 0, 66, 54
2, 241332, Note_on_c, 0, 62, 42
2, 241341, Note_on_c, 0, 56, 39
2, 241400, Note_on_c, 0, 74, 0
2, 241473, Note_on_c, 0, 70, 44
2, 241502, Note_on_c, 0, 66, 0
2, 241728, Note_on_c, 0, 56, 0
2, 241812, Note_on_c, 0, 70, 0
2, 241892, Note_on_c, 0, 65, 42
2, 241919, Note_on_c, 0, 60, 34
2, 241921, Note_on_c, 0, 55, 36
2, 241944, Note_on_c, 0, 77, 83
2, 242242, Note_on_c, 0, 77, 0
2, 242321, Note_on_c, 0, 65, 0
2, 242425, Note_on_c, 0, 77, 79
2, 242436, Note_on_c, 0, 60, 0
2, 242468, Note_on_c, 0, 62, 0
2, 242624, Note_on_c, 0, 77, 0
2, 242743, Note_on_c, 0, 77, 81
2, 242747, Note_on_c, 0, 65, 49
2, 242768, Note_on_c, 0, 62, 41
2, 242812, Note_on_c, 0, 60, 30
2, 242876, Note_on_c, 0, 62, 0
2, 242880, Note_on_c, 0, 65, 0
2, 242881, Note_on_c, 0, 77, 0
2, 242938, Note_on_c, 0, 60, 0
2, 242979, Note_on_c, 0, 74, 37
2, 243075, Note_on_c, 0, 74, 0
2, 243204, Note_on_c, 0, 74, 61
2, 243238, Note_on_c, 0, 65, 33
2, 243254, Note_on_c, 0, 62, 28
2, 243286, Note_on_c, 0, 65, 0
2, 243291, Note_on_c, 0, 60, 23
2, 243321, Note_on_c, 0, 62, 0
2, 243345, Note_on_c, 0, 60, 0
2, 243359, Note_on_c, 0, 74, 0
2, 243391, Note_on_c, 0, 70, 49
2, 243678, Note_on_c, 0, 70, 0
2, 243688, Note_on_c, 0, 67, 56
2, 243699, Note_on_c, 0, 62, 36
2, 243724, Note_on_c, 0, 60, 34
2, 243838, Note_on_c, 0, 67, 0
2, 243892, Note_on_c, 0, 67, 36
2, 243908, Note_on_c, 0, 60, 0
2, 243941, Control_c, 0, 64, 127
2, 243954, Note_on_c, 0, 62, 0
2, 244069, Note_on_c, 0, 67, 0
2, 244153, Control_c, 0, 64, 0
2, 244188, Note_on_c, 0, 67, 57
2, 244203, Note_on_c, 0, 62, 41
2, 244204, Note_on_c, 0, 65, 39
2, 244224, Note_on_c, 0, 60, 37
2, 244253, Note_on_c, 0, 65, 0
2, 244282, Note_on_c, 0, 67, 0
2, 244299, Note_on_c, 0, 62, 0
2, 244343, Note_on_c, 0, 60, 0
2, 244347, Control_c, 0, 64, 127
2, 244377, Note_on_c, 0, 67, 52
2, 244482, Note_on_c, 0, 67, 0
2, 244486, Note_on_c, 0, 55, 0
2, 244627, Control_c, 0, 64, 0
2, 244661, Note_on_c, 0, 73, 72
2, 244668, Note_on_c, 0, 70, 74
2, 244671, Note_on_c, 0, 65, 72
2, 244700, Note_on_c, 0, 68, 49
2, 244702, Note_on_c, 0, 58, 65
2, 244857, Note_on_c, 0, 65, 0
2, 244867, Control_c, 0, 64, 127
2, 244873, Note_on_c, 0, 68, 0
2, 244880, Note_on_c, 0, 70, 0
2, 244989, Note_on_c, 0, 73, 0
2, 245043, Note_on_c, 0, 58, 0
2, 245072, Control_c, 0, 64, 0
2, 245097, Note_on_c, 0, 75, 84
2, 245100, Note_on_c, 0, 63, 81
2, 245105, Note_on_c, 0, 68, 76
2, 245110, Note_on_c, 0, 64, 75
2, 245115, Note_on_c, 0, 70, 63
2, 245215, Note_on_c, 0, 63, 0
2, 245219, Note_on_c, 0, 64, 0
2, 245219, Note_on_c, 0, 70, 0
2, 245231, Note_on_c, 0, 75, 0
2, 245245, Note_on_c, 0, 68, 0
2, 245292, Note_on_c, 0, 61, 50
2, 245323, Note_on_c, 0, 73, 36
2, 245333, Control_c, 0, 64, 127
2, 245341, Note_on_c, 0, 64, 39
2, 245365, Note_on_c, 0, 73, 0
2, 245398, Note_on_c, 0, 64, 0
2, 245533, Note_on_c, 0, 61, 0
2, 245557, Control_c, 0, 64, 0
2, 245583, Note_on_c, 0, 63, 68
2, 245585, Note_on_c, 0, 68, 63
2, 245588, Note_on_c, 0, 72, 58
2, 245609, Note_on_c, 0, 60, 55
2, 245760, Control_c, 0, 64, 127
2, 245852, Note_on_c, 0, 60, 0
2, 245892, Note_on_c, 0, 72, 0
2, 245953, Note_on_c, 0, 68, 0
2, 245960, Note_on_c, 0, 63, 0
2, 246583, Note_on_c, 0, 48, 40
2, 246645, Note_on_c, 0, 48, 0
2, 246719, Note_on_c, 0, 53, 57
2, 246726, Control_c, 0, 64, 0
2, 246784, Note_on_c, 0, 53, 0
2, 246855, Note_on_c, 0, 55, 57
2, 246958, Note_on_c, 0, 55, 0
2, 247017, Note_on_c, 0, 56, 71
2, 247148, Note_on_c, 0, 56, 0
2, 247198, Note_on_c, 0, 58, 39
2, 247254, Note_on_c, 0, 58, 0
2, 247339, Note_on_c, 0, 60, 59
2, 247422, Note_on_c, 0, 60, 0
2, 247504, Note_on_c, 0, 61, 81
2, 247524, Note_on_c, 0, 46, 58
2, 247526, Note_on_c, 0, 56, 57
2, 247554, Note_on_c, 0, 53, 39
2, 247591, Note_on_c, 0, 53, 0
2, 247602, Note_on_c, 0, 46, 0
2, 247621, Note_on_c, 0, 56, 0
2, 247661, Note_on_c, 0, 61, 0
2, 247706, Note_on_c, 0, 63, 52
2, 247858, Note_on_c, 0, 63, 0
2, 248489, Note_on_c, 0, 51, 50
2, 248491, Note_on_c, 0, 58, 59
2, 248521, Note_on_c, 0, 55, 39
2, 248531, Note_on_c, 0, 51, 0
2, 248563, Note_on_c, 0, 55, 0
2, 248588, Note_on_c, 0, 58, 0
2, 248678, Note_on_c, 0, 62, 45
2, 248719, Note_on_c, 0, 62, 0
2, 248834, Note_on_c, 0, 63, 58
2, 248898, Note_on_c, 0, 58, 54
2, 248931, Note_on_c, 0, 63, 0
2, 248939, Note_on_c, 0, 58, 0
2, 248997, Note_on_c, 0, 67, 68
2, 249086, Note_on_c, 0, 67, 0
2, 249186, Note_on_c, 0, 70, 51
2, 249221, Note_on_c, 0, 70, 0
2, 249442, Note_on_c, 0, 72, 78
2, 249459, Note_on_c, 0, 60, 56
2, 249543, Note_on_c, 0, 60, 0
2, 249595, Note_on_c, 0, 72, 0
2, 249660, Note_on_c, 0, 62, 56
2, 249672, Note_on_c, 0, 74, 61
2, 249724, Note_on_c, 0, 65, 23
2, 249773, Note_on_c, 0, 74, 0
2, 249782, Note_on_c, 0, 65, 0
2, 249892, Note_on_c, 0, 62, 0
2, 249918, Note_on_c, 0, 75, 78
2, 249931, Note_on_c, 0, 65, 60
2, 249933, Note_on_c, 0, 63, 60
2, 249938, Note_on_c, 0, 68, 51
2, 249957, Note_on_c, 0, 72, 35
2, 250011, Note_on_c, 0, 72, 0
2, 250022, Note_on_c, 0, 65, 0
2, 250037, Note_on_c, 0, 75, 0
2, 250049, Note_on_c, 0, 68, 0
2, 250074, Note_on_c, 0, 63, 0
2, 250111, Note_on_c, 0, 72, 26
2, 250132, Note_on_c, 0, 68, 29
2, 250141, Note_on_c, 0, 65, 31
2, 250142, Note_on_c, 0, 60, 48
2, 250216, Note_on_c, 0, 65, 0
2, 250246, Note_on_c, 0, 72, 0
2, 250346, Note_on_c, 0, 60, 0
2, 250388, Note_on_c, 0, 68, 0
2, 250429, Note_on_c, 0, 58, 49
2, 250462, Note_on_c, 0, 58, 0
2, 250560, Note_on_c, 0, 70, 56
2, 250571, Note_on_c, 0, 62, 46
2, 250578, Note_on_c, 0, 56, 65
2, 250583, Note_on_c, 0, 67, 48
2, 250765, Note_on_c, 0, 67, 0
2, 250785, Note_on_c, 0, 62, 0
2, 250820, Note_on_c, 0, 56, 0
2, 250839, Note_on_c, 0, 70, 0
2, 250982, Note_on_c, 0, 53, 31
2, 251035, Note_on_c, 0, 53, 0
2, 251043, Note_on_c, 0, 56, 52
2, 251057, Note_on_c, 0, 70, 54
2, 251059, Control_c, 0, 64, 127
2, 251061, Note_on_c, 0, 67, 45
2, 251068, Note_on_c, 0, 62, 53
2, 251144, Note_on_c, 0, 67, 0
2, 251239, Note_on_c, 0, 70, 0
2, 251257, Note_on_c, 0, 62, 0
2, 251311, Note_on_c, 0, 56, 0
2, 251338, Control_c, 0, 64, 0
2, 251380, Note_on_c, 0, 70, 63
2, 251395, Note_on_c, 0, 60, 54
2, 251404, Note_on_c, 0, 65, 56
2, 251432, Note_on_c, 0, 55, 48
2, 251557, Control_c, 0, 64, 127
2, 251740, Note_on_c, 0, 70, 0
2, 251772, Note_on_c, 0, 65, 0
2, 251775, Note_on_c, 0, 60, 0
2, 251808, Note_on_c, 0, 55, 0
2, 251891, Note_on_c, 0, 51, 19
2, 251892, Control_c, 0, 64, 0
2, 251957, Note_on_c, 0, 51, 0
2, 251964, Note_on_c, 0, 70, 61
2, 251981, Note_on_c, 0, 55, 46
2, 251987, Note_on_c, 0, 60, 54
2, 251992, Control_c, 0, 64, 127
2, 252048, Note_on_c, 0, 70, 0
2, 252089, Note_on_c, 0, 60, 0
2, 252264, Control_c, 0, 64, 0
2, 252307, Note_on_c, 0, 58, 53
2, 252317, Note_on_c, 0, 67, 48
2, 252328, Note_on_c, 0, 62, 50
2, 252335, Note_on_c, 0, 51, 46
2, 252336, Note_on_c, 0, 55, 0
2, 252421, Control_c, 0, 64, 127
2, 252568, Note_on_c, 0, 58, 0
2, 252570, Note_on_c, 0, 67, 0
2, 252608, Note_on_c, 0, 62, 0
2, 252717, Note_on_c, 0, 51, 0
2, 253145, Note_on_c, 0, 91, 63
2, 253200, Note_on_c, 0, 91, 0
2, 253282, Control_c, 0, 64, 0
2, 253321, Note_on_c, 0, 88, 52
2, 253365, Note_on_c, 0, 88, 0
2, 253431, Note_on_c, 0, 64, 46
2, 253445, Note_on_c, 0, 55, 45
2, 253449, Note_on_c, 0, 60, 46
2, 253451, Note_on_c, 0, 57, 48
2, 253453, Note_on_c, 0, 91, 74
2, 253459, Note_on_c, 0, 79, 64
2, 253461, Note_on_c, 0, 88, 48
2, 253665, Control_c, 0, 64, 127
2, 253775, Note_on_c, 0, 88, 0
2, 253781, Note_on_c, 0, 55, 0
2, 253788, Note_on_c, 0, 91, 0
2, 253801, Note_on_c, 0, 64, 0
2, 253809, Note_on_c, 0, 79, 0
2, 253812, Note_on_c, 0, 60, 0
2, 253837, Note_on_c, 0, 57, 0
2, 253912, Control_c, 0, 64, 0
2, 253926, Note_on_c, 0, 88, 56
2, 253942, Note_on_c, 0, 64, 31
2, 253948, Note_on_c, 0, 57, 43
2, 253952, Note_on_c, 0, 55, 39
2, 253959, Note_on_c, 0, 76, 32
2, 253998, Note_on_c, 0, 76, 0
2, 254016, Note_on_c, 0, 55, 0
2, 254019, Note_on_c, 0, 64, 0
2, 254028, Note_on_c, 0, 88, 0
2, 254056, Note_on_c, 0, 57, 0
2, 254252, Note_on_c, 0, 54, 52
2, 254257, Note_on_c, 0, 90, 61
2, 254260, Note_on_c, 0, 64, 43
2, 254273, Note_on_c, 0, 60, 35
2, 254276, Note_on_c, 0, 78, 36
2, 254288, Note_on_c, 0, 90, 0
2, 254294, Note_on_c, 0, 54, 0
2, 254303, Note_on_c, 0, 64, 0
2, 254319, Note_on_c, 0, 60, 0
2, 254321, Note_on_c, 0, 78, 0
2, 254489, Control_c, 0, 64, 127
2, 254522, Note_on_c, 0, 54, 65
2, 254523, Note_on_c, 0, 93, 72
2, 254531, Note_on_c, 0, 64, 57
2, 254538, Note_on_c, 0, 60, 52
2, 254549, Note_on_c, 0, 81, 49
2, 254650, Note_on_c, 0, 64, 0
2, 254667, Note_on_c, 0, 81, 0
2, 254672, Note_on_c, 0, 93, 0
2, 254675, Note_on_c, 0, 60, 0
2, 254679, Note_on_c, 0, 54, 0
2, 254702, Control_c, 0, 64, 88
2, 254706, Control_c, 0, 64, 0
2, 254879, Note_on_c, 0, 54, 78
2, 254882, Note_on_c, 0, 93, 81
2, 254883, Note_on_c, 0, 64, 74
2, 254892, Note_on_c, 0, 60, 63
2, 254894, Note_on_c, 0, 81, 85
2, 255052, Note_on_c, 0, 93, 0
2, 255086, Note_on_c, 0, 60, 0
2, 255091, Note_on_c, 0, 81, 0
2, 255104, Note_on_c, 0, 64, 0
2, 255167, Note_on_c, 0, 54, 0
2, 255237, Note_on_c, 0, 62, 49
2, 255239, Note_on_c, 0, 59, 52
2, 255248, Note_on_c, 0, 88, 45
2, 255272, Note_on_c, 0, 57, 46
2, 255299, Note_on_c, 0, 62, 0
2, 255310, Note_on_c, 0, 57, 0
2, 255322, Note_on_c, 0, 88, 0
2, 255338, Note_on_c, 0, 59, 0
2, 255537, Note_on_c, 0, 62, 68
2, 255539, Note_on_c, 0, 95, 84
2, 255541, Note_on_c, 0, 59, 55
2, 255555, Note_on_c, 0, 83, 64
2, 255579, Note_on_c, 0, 59, 0
2, 255584, Note_on_c, 0, 83, 0
2, 255584, Note_on_c, 0, 52, 31
2, 255594, Note_on_c, 0, 62, 0
2, 255599, Note_on_c, 0, 95, 0
2, 255634, Note_on_c, 0, 52, 0
2, 255865, Note_on_c, 0, 62, 74
2, 255869, Note_on_c, 0, 59, 61
2, 255872, Control_c, 0, 64, 56
2, 255876, Note_on_c, 0, 95, 88
2, 255877, Control_c, 0, 64, 127
2, 255881, Note_on_c, 0, 52, 58
2, 255883, Note_on_c, 0, 57, 52
2, 255892, Note_on_c, 0, 83, 71
2, 256114, Note_on_c, 0, 52, 0
2, 256114, Note_on_c, 0, 95, 0
2, 256136, Note_on_c, 0, 59, 0
2, 256143, Note_on_c, 0, 57, 0
2, 256156, Note_on_c, 0, 62, 0
2, 256164, Note_on_c, 0, 83, 0
2, 256185, Control_c, 0, 64, 0
2, 256585, Note_on_c, 0, 67, 66
2, 256586, Note_on_c, 0, 92, 68
2, 256589, Note_on_c, 0, 56, 55
2, 256591, Note_on_c, 0, 62, 55
2, 256593, Note_on_c, 0, 80, 57
2, 256614, Note_on_c, 0, 67, 0
2, 256620, Note_on_c, 0, 92, 0
2, 256622, Note_on_c, 0, 56, 0
2, 256623, Note_on_c, 0, 62, 0
2, 256624, Note_on_c, 0, 80, 0
2, 256878, Note_on_c, 0, 98, 111
2, 256881, Note_on_c, 0, 67, 82
2, 256882, Note_on_c, 0, 56, 82
2, 256886, Note_on_c, 0, 86, 88
2, 256888, Note_on_c, 0, 62, 73
2, 256910, Control_c, 0, 64, 127
2, 256961, Note_on_c, 0, 67, 0
2, 257024, Note_on_c, 0, 62, 0
2, 257056, Note_on_c, 0, 98, 0
2, 257108, Note_on_c, 0, 86, 0
2, 257111, Control_c, 0, 64, 88
2, 257112, Note_on_c, 0, 56, 0
2, 257115, Control_c, 0, 64, 0
2, 257181, Note_on_c, 0, 98, 84
2, 257194, Note_on_c, 0, 64, 77
2, 257200, Note_on_c, 0, 55, 63
2, 257204, Note_on_c, 0, 57, 66
2, 257207, Note_on_c, 0, 86, 53
2, 257217, Note_on_c, 0, 60, 60
2, 257231, Note_on_c, 0, 97, 33
2, 257271, Note_on_c, 0, 97, 0
2, 257352, Control_c, 0, 64, 127
2, 257376, Note_on_c, 0, 60, 0
2, 257380, Note_on_c, 0, 98, 0
2, 257410, Note_on_c, 0, 64, 0
2, 257411, Note_on_c, 0, 55, 0
2, 257417, Note_on_c, 0, 86, 0
2, 257442, Note_on_c, 0, 57, 0
2, 258106, Note_on_c, 0, 79, 61
2, 258109, Note_on_c, 0, 69, 63
2, 258111, Note_on_c, 0, 64, 63
2, 258112, Control_c, 0, 64, 0
2, 258113, Note_on_c, 0, 54, 56
2, 258119, Note_on_c, 0, 60, 56
2, 258121, Note_on_c, 0, 75, 63
2, 258175, Note_on_c, 0, 79, 0
2, 258178, Note_on_c, 0, 69, 0
2, 258220, Note_on_c, 0, 64, 0
2, 258229, Note_on_c, 0, 54, 0
2, 258248, Note_on_c, 0, 60, 0
2, 258249, Note_on_c, 0, 75, 0
2, 258318, Note_on_c, 0, 68, 61
2, 258328, Note_on_c, 0, 54, 40
2, 258340, Note_on_c, 0, 64, 34
2, 258341, Note_on_c, 0, 80, 42
2, 258348, Note_on_c, 0, 60, 43
2, 258398, Note_on_c, 0, 80, 0
2, 258400, Note_on_c, 0, 64, 0
2, 258405, Note_on_c, 0, 60, 0
2, 258420, Note_on_c, 0, 68, 0
2, 258425, Note_on_c, 0, 54, 0
2, 258775, Control_c, 0, 64, 127
2, 259088, Note_on_c, 0, 54, 49
2, 259089, Note_on_c, 0, 58, 42
2, 259090, Note_on_c, 0, 69, 63
2, 259099, Note_on_c, 0, 81, 50
2, 259101, Note_on_c, 0, 74, 58
2, 259122, Note_on_c, 0, 69, 0
2, 259132, Note_on_c, 0, 74, 0
2, 259147, Note_on_c, 0, 58, 0
2, 259174, Note_on_c, 0, 54, 0
2, 259180, Note_on_c, 0, 81, 0
2, 259203, Control_c, 0, 64, 0
2, 259306, Note_on_c, 0, 62, 51
2, 259324, Note_on_c, 0, 59, 45
2, 259330, Note_on_c, 0, 86, 81
2, 259361, Note_on_c, 0, 74, 43
2, 259376, Note_on_c, 0, 52, 25
2, 259394, Note_on_c, 0, 74, 0
2, 259412, Note_on_c, 0, 62, 0
2, 259413, Note_on_c, 0, 86, 0
2, 259430, Note_on_c, 0, 52, 0
2, 259439, Note_on_c, 0, 59, 0
2, 259648, Control_c, 0, 64, 127
2, 259667, Note_on_c, 0, 62, 57
2, 259675, Note_on_c, 0, 59, 45
2, 259679, Note_on_c, 0, 86, 66
2, 259681, Note_on_c, 0, 74, 68
2, 259685, Note_on_c, 0, 57, 43
2, 259698, Note_on_c, 0, 81, 49
2, 259698, Note_on_c, 0, 52, 39
2, 259722, Note_on_c, 0, 74, 0
2, 259724, Note_on_c, 0, 57, 0
2, 259725, Note_on_c, 0, 81, 0
2, 259729, Note_on_c, 0, 59, 0
2, 259743, Note_on_c, 0, 52, 0
2, 259744, Note_on_c, 0, 62, 0
2, 259744, Note_on_c, 0, 86, 0
2, 259905, Control_c, 0, 64, 0
2, 260055, Note_on_c, 0, 62, 53
2, 260056, Note_on_c, 0, 86, 72
2, 260063, Note_on_c, 0, 52, 46
2, 260067, Note_on_c, 0, 59, 46
2, 260069, Note_on_c, 0, 74, 58
2, 260075, Note_on_c, 0, 57, 46
2, 260191, Control_c, 0, 64, 127
2, 260777, Note_on_c, 0, 86, 0
2, 260785, Note_on_c, 0, 52, 0
2, 260805, Note_on_c, 0, 74, 0
2, 260815, Note_on_c, 0, 59, 0
2, 260823, Note_on_c, 0, 57, 0
2, 260829, Note_on_c, 0, 62, 0
2, 261445, Note_on_c, 0, 63, 49
2, 261467, Note_on_c, 0, 64, 68
2, 261482, Note_on_c, 0, 63, 0
2, 261500, Note_on_c, 0, 70, 84
2, 261503, Note_on_c, 0, 77, 78
2, 261512, Note_on_c, 0, 67, 76
2, 261515, Control_c, 0, 64, 0
2, 261516, Note_on_c, 0, 74, 73
2, 261539, Note_on_c, 0, 65, 60
2, 261591, Note_on_c, 0, 64, 0
2, 261759, Control_c, 0, 64, 127
2, 261961, Note_on_c, 0, 74, 0
2, 261978, Note_on_c, 0, 77, 0
2, 262011, Note_on_c, 0, 70, 0
2, 262012, Note_on_c, 0, 65, 0
2, 262021, Note_on_c, 0, 67, 0
2, 262146, Control_c, 0, 64, 0
2, 262158, Note_on_c, 0, 74, 57
2, 262165, Note_on_c, 0, 70, 49
2, 262169, Note_on_c, 0, 62, 50
2, 262180, Note_on_c, 0, 67, 48
2, 262182, Note_on_c, 0, 65, 41
2, 262233, Note_on_c, 0, 67, 0
2, 262279, Note_on_c, 0, 70, 0
2, 262279, Note_on_c, 0, 65, 0
2, 262287, Note_on_c, 0, 74, 0
2, 262600, Note_on_c, 0, 62, 0
2, 262623, Note_on_c, 0, 70, 50
2, 262630, Note_on_c, 0, 58, 52
2, 262667, Note_on_c, 0, 67, 26
2, 262699, Note_on_c, 0, 65, 30
2, 262786, Note_on_c, 0, 58, 0
2, 262787, Note_on_c, 0, 65, 0
2, 262788, Note_on_c, 0, 67, 0
2, 262893, Note_on_c, 0, 70, 0
2, 262947, Note_on_c, 0, 58, 27
2, 263051, Note_on_c, 0, 61, 32
2, 263089, Note_on_c, 0, 58, 0
2, 263094, Note_on_c, 0, 66, 57
2, 263095, Note_on_c, 0, 63, 56
2, 263112, Note_on_c, 0, 62, 60
2, 263120, Note_on_c, 0, 74, 46
2, 263121, Note_on_c, 0, 61, 0
2, 263128, Note_on_c, 0, 73, 31
2, 263262, Note_on_c, 0, 74, 0
2, 263268, Note_on_c, 0, 73, 0
2, 263305, Note_on_c, 0, 63, 0
2, 263329, Note_on_c, 0, 66, 0
2, 263412, Note_on_c, 0, 73, 60
2, 263421, Note_on_c, 0, 62, 0
2, 263422, Note_on_c, 0, 63, 46
2, 263430, Note_on_c, 0, 66, 39
2, 263432, Note_on_c, 0, 61, 56
2, 263519, Note_on_c, 0, 73, 0
2, 263545, Note_on_c, 0, 61, 0
2, 263548, Note_on_c, 0, 63, 0
2, 263569, Note_on_c, 0, 66, 0
2, 263605, Note_on_c, 0, 63, 27
2, 263611, Note_on_c, 0, 60, 45
2, 263623, Note_on_c, 0, 72, 55
2, 263631, Note_on_c, 0, 66, 17
2, 263773, Note_on_c, 0, 63, 0
2, 263816, Note_on_c, 0, 72, 0
2, 263819, Note_on_c, 0, 66, 0
2, 263894, Note_on_c, 0, 60, 0
2, 263913, Note_on_c, 0, 63, 44
2, 263918, Note_on_c, 0, 66, 44
2, 263930, Note_on_c, 0, 69, 51
2, 263933, Note_on_c, 0, 57, 48
2, 264429, Control_c, 0, 64, 127
2, 264566, Note_on_c, 0, 63, 0
2, 264567, Note_on_c, 0, 57, 0
2, 264580, Note_on_c, 0, 69, 0
2, 264608, Note_on_c, 0, 66, 0
2, 264879, Control_c, 0, 64, 0
2, 264933, Note_on_c, 0, 75, 81
2, 264937, Note_on_c, 0, 68, 82
2, 264942, Note_on_c, 0, 72, 73
2, 264943, Note_on_c, 0, 63, 78
2, 264946, Note_on_c, 0, 65, 81
2, 265187, Note_on_c, 0, 65, 0
2, 265191, Note_on_c, 0, 75, 0
2, 265225, Note_on_c, 0, 63, 0
2, 265230, Note_on_c, 0, 68, 0
2, 265237, Note_on_c, 0, 72, 0
2, 265301, Note_on_c, 0, 60, 36
2, 265390, Note_on_c, 0, 60, 0
2, 265423, Note_on_c, 0, 75, 88
2, 265424, Note_on_c, 0, 63, 77
2, 265427, Note_on_c, 0, 68, 87
2, 265431, Note_on_c, 0, 65, 87
2, 265452, Note_on_c, 0, 72, 52
2, 265679, Note_on_c, 0, 72, 0
2, 265696, Note_on_c, 0, 65, 0
2, 265721, Note_on_c, 0, 68, 0
2, 265760, Note_on_c, 0, 75, 0
2, 265789, Note_on_c, 0, 72, 55
2, 265792, Note_on_c, 0, 65, 56
2, 265799, Note_on_c, 0, 68, 63
2, 265800, Note_on_c, 0, 63, 0
2, 265806, Note_on_c, 0, 60, 56
2, 266096, Control_c, 0, 64, 127
2, 266114, Note_on_c, 0, 65, 0
2, 266153, Note_on_c, 0, 68, 0
2, 266165, Note_on_c, 0, 72, 0
2, 266299, Control_c, 0, 64, 0
2, 266380, Note_on_c, 0, 63, 46
2, 266381, Control_c, 0, 64, 127
2, 266385, Note_on_c, 0, 75, 55
2, 266395, Note_on_c, 0, 68, 48
2, 266402, Note_on_c, 0, 72, 48
2, 266415, Note_on_c, 0, 65, 34
2, 266478, Note_on_c, 0, 60, 0
2, 266496, Note_on_c, 0, 72, 0
2, 266532, Note_on_c, 0, 65, 0
2, 266548, Note_on_c, 0, 63, 0
2, 266556, Note_on_c, 0, 68, 0
2, 266587, Note_on_c, 0, 75, 0
2, 266644, Control_c, 0, 64, 0
2, 266736, Note_on_c, 0, 70, 54
2, 266744, Note_on_c, 0, 65, 39
2, 266745, Note_on_c, 0, 74, 58
2, 266747, Note_on_c, 0, 68, 45
2, 266759, Note_on_c, 0, 62, 49
2, 266871, Control_c, 0, 64, 127
2, 266941, Note_on_c, 0, 65, 0
2, 267004, Note_on_c, 0, 74, 0
2, 267029, Note_on_c, 0, 68, 0
2, 267039, Note_on_c, 0, 70, 0
2, 267072, Note_on_c, 0, 62, 0
2, 267618, Control_c, 0, 64, 0
2, 267696, Note_on_c, 0, 83, 65
2, 267700, Note_on_c, 0, 66, 54
2, 267707, Note_on_c, 0, 74, 58
2, 267719, Note_on_c, 0, 79, 60
2, 267720, Note_on_c, 0, 56, 48
2, 267722, Note_on_c, 0, 62, 48
2, 267846, Note_on_c, 0, 74, 0
2, 267862, Control_c, 0, 64, 127
2, 267876, Note_on_c, 0, 79, 0
2, 267889, Note_on_c, 0, 83, 0
2, 267940, Note_on_c, 0, 66, 0
2, 267963, Note_on_c, 0, 56, 0
2, 267981, Note_on_c, 0, 62, 0
2, 268155, Control_c, 0, 64, 0
2, 268179, Note_on_c, 0, 89, 81
2, 268185, Note_on_c, 0, 66, 58
2, 268187, Note_on_c, 0, 85, 68
2, 268190, Note_on_c, 0, 62, 52
2, 268193, Note_on_c, 0, 56, 52
2, 268216, Note_on_c, 0, 77, 39
2, 268217, Note_on_c, 0, 79, 39
2, 268258, Note_on_c, 0, 79, 0
2, 268261, Note_on_c, 0, 77, 0
2, 268330, Note_on_c, 0, 85, 0
2, 268355, Note_on_c, 0, 86, 37
2, 268366, Control_c, 0, 64, 24
2, 268369, Control_c, 0, 64, 127
2, 268396, Note_on_c, 0, 86, 0
2, 268405, Note_on_c, 0, 89, 0
2, 268448, Note_on_c, 0, 66, 0
2, 268476, Note_on_c, 0, 62, 0
2, 268539, Note_on_c, 0, 56, 0
2, 268615, Control_c, 0, 64, 0
2, 268657, Note_on_c, 0, 65, 52
2, 268674, Note_on_c, 0, 86, 57
2, 268675, Note_on_c, 0, 82, 52
2, 268681, Note_on_c, 0, 62, 46
2, 268687, Note_on_c, 0, 74, 47
2, 268704, Note_on_c, 0, 55, 40
2, 268707, Note_on_c, 0, 60, 42
2, 268711, Note_on_c, 0, 79, 40
2, 268903, Control_c, 0, 64, 127
2, 269123, Note_on_c, 0, 86, 0
2, 269164, Note_on_c, 0, 74, 0
2, 269168, Note_on_c, 0, 79, 0
2, 269208, Note_on_c, 0, 82, 0
2, 269244, Note_on_c, 0, 62, 0
2, 269249, Note_on_c, 0, 65, 0
2, 269268, Note_on_c, 0, 60, 0
2, 269319, Note_on_c, 0, 55, 0
2, 270023, Control_c, 0, 64, 0
2, 270100, Note_on_c, 0, 63, 68
2, 270106, Note_on_c, 0, 58, 57
2, 270110, Note_on_c, 0, 82, 75
2, 270126, Note_on_c, 0, 72, 60
2, 270128, Note_on_c, 0, 77, 58
2, 270131, Note_on_c, 0, 53, 42
2, 270158, Note_on_c, 0, 72, 0
2, 270159, Note_on_c, 0, 77, 0
2, 270165, Note_on_c, 0, 53, 0
2, 270196, Note_on_c, 0, 63, 0
2, 270209, Note_on_c, 0, 82, 0
2, 270222, Note_on_c, 0, 58, 0
2, 270455, Control_c, 0, 64, 127
2, 270462, Note_on_c, 0, 64, 67
2, 270467, Note_on_c, 0, 82, 75
2, 270470, Note_on_c, 0, 54, 63
2, 270473, Note_on_c, 0, 72, 72
2, 270477, Note_on_c, 0, 59, 47
2, 270479, Note_on_c, 0, 77, 71
2, 270582, Note_on_c, 0, 64, 0
2, 270591, Note_on_c, 0, 72, 0
2, 270599, Note_on_c, 0, 59, 0
2, 270613, Note_on_c, 0, 77, 0
2, 270641, Note_on_c, 0, 82, 0
2, 270667, Note_on_c, 0, 54, 0
2, 270761, Control_c, 0, 64, 0
2, 270826, Note_on_c, 0, 53, 55
2, 270827, Note_on_c, 0, 82, 81
2, 270832, Note_on_c, 0, 73, 76
2, 270837, Note_on_c, 0, 62, 57
2, 270841, Note_on_c, 0, 58, 55
2, 270854, Note_on_c, 0, 55, 57
2, 270857, Note_on_c, 0, 77, 61
2, 271275, Control_c, 0, 64, 127
2, 271315, Note_on_c, 0, 77, 0
2, 271347, Note_on_c, 0, 73, 0
2, 271354, Note_on_c, 0, 62, 0
2, 271365, Note_on_c, 0, 82, 0
2, 271377, Note_on_c, 0, 53, 0
2, 271377, Note_on_c, 0, 58, 0
2, 271396, Note_on_c, 0, 55, 0
2, 271507, Control_c, 0, 64, 0
2, 271581, Note_on_c, 0, 62, 73
2, 271588, Note_on_c, 0, 52, 69
2, 271589, Note_on_c, 0, 84, 68
2, 271589, Note_on_c, 0, 58, 61
2, 271594, Note_on_c, 0, 72, 57
2, 271596, Note_on_c, 0, 77, 70
2, 271681, Note_on_c, 0, 84, 0
2, 271688, Note_on_c, 0, 72, 0
2, 271729, Note_on_c, 0, 52, 0
2, 271733, Note_on_c, 0, 77, 0
2, 271742, Note_on_c, 0, 62, 0
2, 271766, Note_on_c, 0, 58, 0
2, 271860, Note_on_c, 0, 82, 57
2, 271869, Note_on_c, 0, 62, 48
2, 271873, Note_on_c, 0, 58, 40
2, 271875, Note_on_c, 0, 70, 48
2, 271878, Note_on_c, 0, 77, 52
2, 271889, Note_on_c, 0, 52, 46
2, 271996, Note_on_c, 0, 82, 0
2, 272008, Note_on_c, 0, 52, 0
2, 272010, Note_on_c, 0, 62, 0
2, 272015, Note_on_c, 0, 77, 0
2, 272016, Note_on_c, 0, 70, 0
2, 272050, Note_on_c, 0, 58, 0
2, 272188, Note_on_c, 0, 58, 42
2, 272194, Note_on_c, 0, 75, 52
2, 272196, Note_on_c, 0, 80, 45
2, 272199, Note_on_c, 0, 68, 41
2, 272200, Note_on_c, 0, 62, 39
2, 272282, Note_on_c, 0, 62, 0
2, 272320, Note_on_c, 0, 58, 0
2, 272342, Note_on_c, 0, 75, 0
2, 272355, Note_on_c, 0, 80, 0
2, 272385, Note_on_c, 0, 68, 0
2, 272515, Note_on_c, 0, 67, 45
2, 272516, Note_on_c, 0, 79, 56
2, 272517, Note_on_c, 0, 75, 46
2, 272531, Note_on_c, 0, 63, 40
2, 272543, Note_on_c, 0, 60, 39
2, 272544, Note_on_c, 0, 53, 32
2, 272556, Note_on_c, 0, 56, 41
2, 273096, Control_c, 0, 64, 127
2, 273117, Note_on_c, 0, 53, 0
2, 273154, Note_on_c, 0, 60, 0
2, 273174, Note_on_c, 0, 56, 0
2, 273175, Note_on_c, 0, 79, 0
2, 273188, Note_on_c, 0, 75, 0
2, 273199, Note_on_c, 0, 67, 0
2, 273226, Note_on_c, 0, 63, 0
2, 273522, Control_c, 0, 64, 0
2, 273602, Note_on_c, 0, 63, 45
2, 273608, Note_on_c, 0, 68, 46
2, 273611, Note_on_c, 0, 72, 52
2, 273617, Note_on_c, 0, 67, 41
2, 273630, Note_on_c, 0, 60, 46
2, 273839, Note_on_c, 0, 67, 0
2, 273920, Note_on_c, 0, 75, 84
2, 273921, Note_on_c, 0, 72, 0
2, 274000, Note_on_c, 0, 68, 0
2, 274154, Note_on_c, 0, 75, 0
2, 274246, Note_on_c, 0, 72, 61
2, 274281, Note_on_c, 0, 63, 0
2, 274356, Note_on_c, 0, 72, 0
2, 274372, Control_c, 0, 64, 127
2, 274391, Note_on_c, 0, 68, 66
2, 274413, Control_c, 0, 64, 0
2, 274451, Note_on_c, 0, 60, 0
2, 274527, Note_on_c, 0, 68, 0
2, 274543, Note_on_c, 0, 65, 58
2, 274606, Note_on_c, 0, 60, 36
2, 274613, Note_on_c, 0, 56, 33
2, 274626, Note_on_c, 0, 62, 22
2, 275009, Note_on_c, 0, 65, 0
2, 275025, Control_c, 0, 64, 127
2, 275028, Note_on_c, 0, 60, 0
2, 275041, Note_on_c, 0, 62, 0
2, 275070, Note_on_c, 0, 56, 0
2, 275315, Control_c, 0, 64, 0
2, 275331, Note_on_c, 0, 67, 54
2, 275345, Note_on_c, 0, 56, 39
2, 275353, Note_on_c, 0, 62, 48
2, 275361, Note_on_c, 0, 60, 41
2, 275792, Note_on_c, 0, 82, 85
2, 275931, Note_on_c, 0, 82, 0
2, 275959, Note_on_c, 0, 62, 0
2, 275960, Note_on_c, 0, 67, 0
2, 276014, Note_on_c, 0, 60, 0
2, 276020, Note_on_c, 0, 56, 0
2, 276258, Note_on_c, 0, 82, 66
2, 276381, Note_on_c, 0, 82, 0
2, 276453, Note_on_c, 0, 56, 39
2, 276455, Note_on_c, 0, 84, 56
2, 276458, Note_on_c, 0, 72, 46
2, 276462, Note_on_c, 0, 67, 37
2, 276464, Note_on_c, 0, 63, 30
2, 276476, Note_on_c, 0, 60, 32
2, 276891, Control_c, 0, 64, 127
2, 277044, Note_on_c, 0, 67, 0
2, 277083, Note_on_c, 0, 63, 0
2, 277132, Note_on_c, 0, 56, 0
2, 277147, Note_on_c, 0, 60, 0
2, 277154, Note_on_c, 0, 84, 0
2, 277216, Note_on_c, 0, 72, 0
2, 277688, Control_c, 0, 64, 0
2, 277753, Note_on_c, 0, 82, 67
2, 277768, Note_on_c, 0, 66, 46
2, 277769, Note_on_c, 0, 56, 48
2, 277781, Note_on_c, 0, 70, 48
2, 277783, Note_on_c, 0, 62, 45
2, 277792, Note_on_c, 0, 77, 52
2, 277808, Note_on_c, 0, 60, 39
2, 277909, Note_on_c, 0, 82, 0
2, 277920, Note_on_c, 0, 56, 0
2, 277926, Control_c, 0, 64, 127
2, 277934, Note_on_c, 0, 66, 0
2, 277948, Note_on_c, 0, 60, 0
2, 277960, Note_on_c, 0, 77, 0
2, 277968, Note_on_c, 0, 70, 0
2, 277995, Note_on_c, 0, 62, 0
2, 278093, Note_on_c, 0, 66, 53
2, 278103, Note_on_c, 0, 56, 54
2, 278111, Note_on_c, 0, 82, 66
2, 278121, Note_on_c, 0, 70, 49
2, 278124, Note_on_c, 0, 77, 64
2, 278165, Note_on_c, 0, 77, 0
2, 278216, Note_on_c, 0, 82, 0
2, 278219, Note_on_c, 0, 66, 0
2, 278224, Note_on_c, 0, 70, 0
2, 278299, Note_on_c, 0, 56, 0
2, 278564, Control_c, 0, 64, 0
2, 278726, Note_on_c, 0, 75, 54
2, 278727, Note_on_c, 0, 79, 60
2, 278735, Note_on_c, 0, 65, 55
2, 278737, Note_on_c, 0, 67, 47
2, 278745, Note_on_c, 0, 55, 48
2, 278757, Note_on_c, 0, 60, 49
2, 278759, Note_on_c, 0, 71, 39
2, 278940, Control_c, 0, 64, 127
2, 279043, Note_on_c, 0, 65, 0
2, 279054, Note_on_c, 0, 60, 0
2, 279076, Note_on_c, 0, 71, 0
2, 279086, Note_on_c, 0, 55, 0
2, 279153, Note_on_c, 0, 67, 0
2, 279186, Note_on_c, 0, 79, 0
2, 279207, Note_on_c, 0, 75, 0
2, 279347, Control_c, 0, 64, 0
2, 279403, Note_on_c, 0, 63, 51
2, 279407, Note_on_c, 0, 70, 62
2, 279416, Note_on_c, 0, 73, 56
2, 279418, Note_on_c, 0, 58, 48
2, 279427, Note_on_c, 0, 52, 44
2, 279438, Note_on_c, 0, 64, 41
2, 279827, Control_c, 0, 64, 127
2, 279843, Note_on_c, 0, 52, 0
2, 279853, Note_on_c, 0, 64, 0
2, 279915, Note_on_c, 0, 58, 0
2, 279949, Note_on_c, 0, 63, 0
2, 279998, Note_on_c, 0, 70, 0
2, 280036, Note_on_c, 0, 73, 0
2, 280144, Control_c, 0, 64, 0
2, 280213, Note_on_c, 0, 65, 45
2, 280214, Note_on_c, 0, 63, 43
2, 280217, Note_on_c, 0, 68, 47
2, 280220, Note_on_c, 0, 72, 51
2, 280245, Note_on_c, 0, 56, 39
2, 280248, Note_on_c, 0, 60, 41
2, 280268, Note_on_c, 0, 53, 28
2, 280399, Control_c, 0, 64, 127
2, 280464, Note_on_c, 0, 65, 0
2, 280557, Note_on_c, 0, 53, 0
2, 280573, Note_on_c, 0, 68, 0
2, 280582, Note_on_c, 0, 72, 0
2, 280616, Note_on_c, 0, 60, 0
2, 280618, Note_on_c, 0, 63, 0
2, 280757, Note_on_c, 0, 56, 0
2, 281582, Control_c, 0, 64, 0
2, 281604, Note_on_c, 0, 67, 68
2, 281609, Note_on_c, 0, 84, 68
2, 281615, Note_on_c, 0, 63, 54
2, 281617, Note_on_c, 0, 77, 77
2, 281618, Note_on_c, 0, 80, 63
2, 281622, Note_on_c, 0, 56, 49
2, 281644, Note_on_c, 0, 60, 39
2, 281792, Note_on_c, 0, 77, 0
2, 281793, Note_on_c, 0, 56, 0
2, 281794, Note_on_c, 0, 67, 0
2, 281808, Control_c, 0, 64, 127
2, 281810, Note_on_c, 0, 84, 0
2, 281812, Note_on_c, 0, 63, 0
2, 281825, Note_on_c, 0, 60, 0
2, 281837, Note_on_c, 0, 80, 0
2, 281930, Note_on_c, 0, 80, 56
2, 281931, Note_on_c, 0, 67, 66
2, 281938, Note_on_c, 0, 77, 70
2, 281939, Note_on_c, 0, 84, 72
2, 281940, Note_on_c, 0, 56, 54
2, 281941, Note_on_c, 0, 63, 49
2, 281952, Note_on_c, 0, 60, 37
2, 282024, Note_on_c, 0, 67, 0
2, 282047, Note_on_c, 0, 77, 0
2, 282083, Note_on_c, 0, 56, 0
2, 282084, Note_on_c, 0, 84, 0
2, 282104, Note_on_c, 0, 63, 0
2, 282125, Note_on_c, 0, 80, 0
2, 282125, Note_on_c, 0, 60, 0
2, 282160, Control_c, 0, 64, 0
2, 282246, Note_on_c, 0, 66, 71
2, 282248, Note_on_c, 0, 82, 68
2, 282252, Note_on_c, 0, 56, 57
2, 282262, Note_on_c, 0, 74, 63
2, 282278, Note_on_c, 0, 62, 44
2, 282318, Note_on_c, 0, 62, 0
2, 282335, Note_on_c, 0, 66, 0
2, 282354, Note_on_c, 0, 74, 0
2, 282387, Note_on_c, 0, 82, 0
2, 282390, Note_on_c, 0, 56, 0
2, 282572, Note_on_c, 0, 82, 68
2, 282577, Note_on_c, 0, 66, 62
2, 282589, Note_on_c, 0, 56, 52
2, 282595, Note_on_c, 0, 74, 68
2, 282601, Note_on_c, 0, 62, 52
2, 282606, Note_on_c, 0, 66, 0
2, 282615, Note_on_c, 0, 60, 46
2, 282651, Note_on_c, 0, 60, 0
2, 282663, Note_on_c, 0, 62, 0
2, 282675, Note_on_c, 0, 74, 0
2, 282698, Note_on_c, 0, 56, 0
2, 282711, Note_on_c, 0, 82, 0
2, 282895, Note_on_c, 0, 65, 55
2, 282905, Note_on_c, 0, 72, 54
2, 282908, Note_on_c, 0, 62, 49
2, 282910, Note_on_c, 0, 55, 48
2, 282918, Note_on_c, 0, 60, 48
2, 282950, Note_on_c, 0, 82, 64
2, 283003, Note_on_c, 0, 72, 0
2, 283047, Note_on_c, 0, 65, 0
2, 283054, Note_on_c, 0, 82, 0
2, 283065, Note_on_c, 0, 55, 0
2, 283067, Note_on_c, 0, 60, 0
2, 283089, Note_on_c, 0, 62, 0
2, 283161, Control_c, 0, 64, 127
2, 283173, Note_on_c, 0, 65, 54
2, 283175, Note_on_c, 0, 55, 45
2, 283187, Note_on_c, 0, 62, 57
2, 283190, Note_on_c, 0, 82, 68
2, 283194, Note_on_c, 0, 60, 43
2, 283208, Note_on_c, 0, 72, 58
2, 283294, Note_on_c, 0, 82, 0
2, 283342, Note_on_c, 0, 72, 0
2, 283370, Note_on_c, 0, 55, 0
2, 283377, Note_on_c, 0, 65, 0
2, 283400, Note_on_c, 0, 60, 0
2, 283421, Note_on_c, 0, 62, 0
2, 283456, Control_c, 0, 64, 0
2, 283501, Note_on_c, 0, 75, 63
2, 283503, Note_on_c, 0, 65, 50
2, 283515, Note_on_c, 0, 55, 48
2, 283517, Note_on_c, 0, 79, 56
2, 283529, Note_on_c, 0, 62, 52
2, 283532, Note_on_c, 0, 60, 47
2, 283536, Note_on_c, 0, 69, 39
2, 283546, Note_on_c, 0, 67, 33
2, 283679, Control_c, 0, 64, 127
2, 283694, Note_on_c, 0, 65, 0
2, 283695, Note_on_c, 0, 55, 0
2, 283756, Note_on_c, 0, 62, 0
2, 283756, Note_on_c, 0, 60, 0
2, 283782, Note_on_c, 0, 67, 0
2, 283796, Note_on_c, 0, 69, 0
2, 283913, Note_on_c, 0, 75, 0
2, 283929, Note_on_c, 0, 55, 45
2, 283932, Note_on_c, 0, 62, 40
2, 283933, Note_on_c, 0, 79, 0
2, 283935, Note_on_c, 0, 65, 34
2, 283977, Note_on_c, 0, 62, 0
2, 283980, Note_on_c, 0, 65, 0
2, 284044, Note_on_c, 0, 55, 0
2, 284048, Control_c, 0, 64, 0
2, 284130, Note_on_c, 0, 76, 63
2, 284133, Note_on_c, 0, 67, 49
2, 284135, Note_on_c, 0, 64, 50
2, 284144, Note_on_c, 0, 72, 51
2, 284145, Note_on_c, 0, 55, 47
2, 284149, Note_on_c, 0, 57, 46
2, 284160, Note_on_c, 0, 60, 51
2, 284614, Control_c, 0, 64, 127
2, 284725, Note_on_c, 0, 64, 0
2, 284728, Note_on_c, 0, 60, 0
2, 284771, Note_on_c, 0, 67, 0
2, 284791, Note_on_c, 0, 55, 0
2, 284814, Note_on_c, 0, 57, 0
2, 284990, Note_on_c, 0, 72, 0
2, 285045, Note_on_c, 0, 76, 0
2, 285067, Control_c, 0, 64, 0
2, 285127, Note_on_c, 0, 54, 47
2, 285133, Note_on_c, 0, 64, 41
2, 285141, Note_on_c, 0, 60, 43
2, 285703, Note_on_c, 0, 64, 0
2, 285715, Note_on_c, 0, 60, 0
2, 285838, Note_on_c, 0, 78, 43
2, 285839, Note_on_c, 0, 54, 0
2, 285881, Note_on_c, 0, 78, 0
2, 285960, Note_on_c, 0, 81, 77
2, 286052, Note_on_c, 0, 81, 0
2, 286114, Note_on_c, 0, 52, 38
2, 286116, Note_on_c, 0, 76, 66
2, 286118, Note_on_c, 0, 62, 28
2, 286121, Note_on_c, 0, 59, 32
2, 286159, Note_on_c, 0, 57, 27
2, 286223, Note_on_c, 0, 76, 0
2, 286257, Note_on_c, 0, 78, 57
2, 286345, Note_on_c, 0, 78, 0
2, 286348, Note_on_c, 0, 76, 57
2, 286457, Note_on_c, 0, 76, 0
2, 286469, Note_on_c, 0, 75, 57
2, 286522, Note_on_c, 0, 75, 0
2, 286604, Note_on_c, 0, 76, 57
2, 286787, Note_on_c, 0, 76, 0
2, 286900, Note_on_c, 0, 59, 0
2, 286905, Note_on_c, 0, 52, 0
2, 286909, Note_on_c, 0, 57, 0
2, 286950, Note_on_c, 0, 62, 0
2, 287396, Note_on_c, 0, 56, 56
2, 287397, Note_on_c, 0, 67, 55
2, 287402, Note_on_c, 0, 62, 56
2, 287802, Note_on_c, 0, 62, 0
2, 287832, Note_on_c, 0, 67, 0
2, 287993, Note_on_c, 0, 56, 0
2, 288374, Note_on_c, 0, 64, 46
2, 288396, Note_on_c, 0, 57, 38
2, 288404, Note_on_c, 0, 55, 30
2, 288412, Note_on_c, 0, 60, 31
2, 288454, Note_on_c, 0, 64, 0
2, 288459, Note_on_c, 0, 55, 0
2, 288465, Note_on_c, 0, 60, 0
2, 288514, Note_on_c, 0, 57, 0
2, 288549, Note_on_c, 0, 79, 68
2, 288661, Note_on_c, 0, 79, 0
2, 288673, Note_on_c, 0, 78, 56
2, 288733, Note_on_c, 0, 78, 0
2, 288849, Note_on_c, 0, 79, 86
2, 288856, Note_on_c, 0, 54, 65
2, 288859, Note_on_c, 0, 64, 69
2, 288862, Note_on_c, 0, 60, 66
2, 289260, Note_on_c, 0, 60, 0
2, 289300, Note_on_c, 0, 81, 81
2, 289326, Note_on_c, 0, 60, 24
2, 289352, Note_on_c, 0, 79, 0
2, 289483, Note_on_c, 0, 60, 0
2, 289494, Note_on_c, 0, 64, 0
2, 289599, Note_on_c, 0, 81, 0
2, 289635, Note_on_c, 0, 82, 39
2, 289654, Note_on_c, 0, 54, 0
2, 289682, Note_on_c, 0, 82, 0
2, 289791, Note_on_c, 0, 83, 54
2, 289878, Note_on_c, 0, 83, 0
2, 289946, Note_on_c, 0, 62, 45
2, 289949, Note_on_c, 0, 86, 84
2, 289953, Note_on_c, 0, 58, 45
2, 289972, Note_on_c, 0, 55, 45
2, 289980, Note_on_c, 0, 57, 38
2, 290216, Note_on_c, 0, 86, 0
2, 290222, Note_on_c, 0, 57, 0
2, 290224, Note_on_c, 0, 62, 0
2, 290247, Note_on_c, 0, 55, 0
2, 290250, Note_on_c, 0, 58, 0
2, 290429, Note_on_c, 0, 62, 42
2, 290437, Note_on_c, 0, 86, 72
2, 290438, Note_on_c, 0, 58, 51
2, 290441, Note_on_c, 0, 55, 45
2, 290472, Note_on_c, 0, 57, 35
2, 290591, Note_on_c, 0, 57, 0
2, 290645, Note_on_c, 0, 58, 0
2, 290671, Note_on_c, 0, 62, 0
2, 290674, Note_on_c, 0, 86, 0
2, 290686, Note_on_c, 0, 55, 0
2, 290926, Note_on_c, 0, 58, 44
2, 290930, Note_on_c, 0, 86, 79
2, 290955, Note_on_c, 0, 62, 22
2, 290961, Note_on_c, 0, 54, 50
2, 291101, Note_on_c, 0, 54, 0
2, 291125, Note_on_c, 0, 58, 0
2, 291181, Note_on_c, 0, 62, 0
2, 291204, Note_on_c, 0, 86, 0
2, 291397, Note_on_c, 0, 62, 46
2, 291416, Note_on_c, 0, 86, 71
2, 291423, Control_c, 0, 64, 127
2, 291425, Note_on_c, 0, 59, 39
2, 291522, Note_on_c, 0, 59, 0
2, 291583, Note_on_c, 0, 62, 0
2, 291603, Note_on_c, 0, 86, 0
2, 291814, Control_c, 0, 64, 0
2, 291849, Note_on_c, 0, 89, 89
2, 291855, Note_on_c, 0, 63, 76
2, 291858, Note_on_c, 0, 56, 75
2, 291861, Note_on_c, 0, 77, 82
2, 291863, Note_on_c, 0, 67, 81
2, 291865, Note_on_c, 0, 84, 75
2, 291874, Note_on_c, 0, 60, 68
2, 292276, Control_c, 0, 64, 127
2, 292357, Note_on_c, 0, 89, 0
2, 292393, Note_on_c, 0, 84, 0
2, 292409, Note_on_c, 0, 60, 0
2, 292413, Note_on_c, 0, 56, 0
2, 292431, Note_on_c, 0, 67, 0
2, 292457, Note_on_c, 0, 77, 0
2, 292536, Note_on_c, 0, 63, 0
2, 292754, Control_c, 0, 64, 0
2, 292815, Note_on_c, 0, 84, 75
2, 292818, Note_on_c, 0, 80, 68
2, 292821, Note_on_c, 0, 72, 75
2, 292824, Note_on_c, 0, 56, 58
2, 292826, Note_on_c, 0, 63, 57
2, 292828, Note_on_c, 0, 67, 63
2, 292831, Note_on_c, 0, 77, 68
2, 292838, Note_on_c, 0, 60, 54
2, 292892, Control_c, 0, 64, 127
2, 293039, Note_on_c, 0, 77, 0
2, 293077, Note_on_c, 0, 72, 0
2, 293100, Note_on_c, 0, 67, 0
2, 293135, Note_on_c, 0, 60, 0
2, 293136, Note_on_c, 0, 63, 0
2, 293187, Note_on_c, 0, 84, 0
2, 293204, Note_on_c, 0, 56, 0
2, 293261, Note_on_c, 0, 80, 0
2, 293526, Control_c, 0, 64, 0
2, 293607, Note_on_c, 0, 62, 76
2, 293608, Note_on_c, 0, 51, 65
2, 293617, Note_on_c, 0, 89, 94
2, 293619, Note_on_c, 0, 57, 61
2, 293622, Note_on_c, 0, 55, 56
2, 293629, Note_on_c, 0, 77, 85
2, 293632, Note_on_c, 0, 84, 82
2, 293750, Note_on_c, 0, 89, 0
2, 293762, Note_on_c, 0, 77, 0
2, 293768, Note_on_c, 0, 62, 0
2, 293773, Note_on_c, 0, 51, 0
2, 293781, Note_on_c, 0, 55, 0
2, 293784, Note_on_c, 0, 57, 0
2, 293796, Note_on_c, 0, 84, 0
2, 293932, Note_on_c, 0, 62, 60
2, 293936, Note_on_c, 0, 87, 68
2, 293948, Note_on_c, 0, 51, 39
2, 293951, Note_on_c, 0, 75, 57
2, 293966, Note_on_c, 0, 62, 0
2, 293966, Note_on_c, 0, 82, 46
2, 293969, Note_on_c, 0, 57, 36
2, 293975, Note_on_c, 0, 87, 0
2, 293998, Note_on_c, 0, 75, 0
2, 293998, Note_on_c, 0, 51, 0
2, 294000, Note_on_c, 0, 82, 0
2, 294012, Note_on_c, 0, 57, 0
2, 294208, Control_c, 0, 64, 127
2, 294240, Note_on_c, 0, 62, 53
2, 294244, Note_on_c, 0, 84, 56
2, 294250, Note_on_c, 0, 51, 42
2, 294265, Note_on_c, 0, 72, 48
2, 294282, Note_on_c, 0, 57, 37
2, 294325, Note_on_c, 0, 84, 0
2, 294335, Note_on_c, 0, 62, 0
2, 294339, Note_on_c, 0, 72, 0
2, 294357, Note_on_c, 0, 57, 0
2, 294375, Note_on_c, 0, 51, 0
2, 294501, Control_c, 0, 64, 0
2, 294579, Note_on_c, 0, 62, 59
2, 294582, Note_on_c, 0, 67, 54
2, 294601, Note_on_c, 0, 51, 40
2, 294610, Note_on_c, 0, 79, 33
2, 294613, Note_on_c, 0, 57, 48
2, 294735, Control_c, 0, 64, 127
2, 295172, Note_on_c, 0, 57, 0
2, 295219, Note_on_c, 0, 51, 0
2, 295222, Note_on_c, 0, 79, 0
2, 295224, Note_on_c, 0, 67, 0
2, 295243, Note_on_c, 0, 62, 0
2, 295627, Note_on_c, 0, 61, 54
2, 295645, Control_c, 0, 64, 0
2, 295659, Note_on_c, 0, 61, 0
2, 295689, Note_on_c, 0, 60, 49
2, 295708, Note_on_c, 0, 68, 63
2, 295714, Note_on_c, 0, 74, 57
2, 295725, Note_on_c, 0, 62, 54
2, 295728, Note_on_c, 0, 60, 0
2, 295733, Note_on_c, 0, 65, 48
2, 295861, Note_on_c, 0, 74, 0
2, 295883, Note_on_c, 0, 68, 0
2, 295889, Note_on_c, 0, 62, 0
2, 295939, Note_on_c, 0, 65, 0
2, 296187, Note_on_c, 0, 60, 49
2, 296201, Note_on_c, 0, 65, 43
2, 296202, Note_on_c, 0, 68, 42
2, 296205, Note_on_c, 0, 72, 48
2, 296221, Note_on_c, 0, 58, 38
2, 296237, Note_on_c, 0, 70, 42
2, 296267, Note_on_c, 0, 58, 0
2, 296279, Note_on_c, 0, 60, 0
2, 296332, Note_on_c, 0, 72, 0
2, 296384, Note_on_c, 0, 68, 0
2, 296396, Note_on_c, 0, 70, 0
2, 296446, Note_on_c, 0, 65, 0
2, 296716, Note_on_c, 0, 70, 52
2, 296718, Note_on_c, 0, 56, 42
2, 296738, Note_on_c, 0, 65, 41
2, 296740, Note_on_c, 0, 62, 39
2, 296758, Note_on_c, 0, 67, 36
2, 296761, Note_on_c, 0, 66, 30
2, 296797, Control_c, 0, 64, 127
2, 296868, Note_on_c, 0, 56, 0
2, 296869, Note_on_c, 0, 67, 0
2, 296881, Note_on_c, 0, 62, 0
2, 296889, Note_on_c, 0, 70, 0
2, 296890, Note_on_c, 0, 66, 0
2, 296931, Note_on_c, 0, 65, 0
2, 296996, Note_on_c, 0, 68, 57
2, 297006, Note_on_c, 0, 54, 53
2, 297017, Note_on_c, 0, 62, 46
2, 297041, Control_c, 0, 64, 0
2, 297108, Note_on_c, 0, 68, 0
2, 297125, Note_on_c, 0, 62, 0
2, 297235, Note_on_c, 0, 67, 39
2, 297245, Note_on_c, 0, 54, 0
2, 297333, Note_on_c, 0, 67, 0
2, 297358, Control_c, 0, 64, 127
2, 297507, Note_on_c, 0, 44, 57
2, 297601, Note_on_c, 0, 44, 0
2, 297603, Control_c, 0, 64, 0
2, 297860, Note_on_c, 0, 72, 61
2, 297868, Note_on_c, 0, 55, 57
2, 297873, Note_on_c, 0, 43, 39
2, 297877, Note_on_c, 0, 65, 57
2, 297896, Note_on_c, 0, 70, 28
2, 297906, Note_on_c, 0, 65, 0
2, 297939, Note_on_c, 0, 43, 0
2, 297941, Note_on_c, 0, 70, 0
2, 297954, Note_on_c, 0, 55, 0
2, 297970, Note_on_c, 0, 72, 0
2, 298132, Note_on_c, 0, 72, 58
2, 298147, Note_on_c, 0, 65, 63
2, 298156, Note_on_c, 0, 55, 60
2, 298157, Control_c, 0, 64, 127
2, 298165, Note_on_c, 0, 43, 30
2, 298204, Note_on_c, 0, 43, 0
2, 298218, Note_on_c, 0, 55, 0
2, 298260, Note_on_c, 0, 65, 0
2, 298338, Note_on_c, 0, 72, 0
2, 298384, Control_c, 0, 64, 0
2, 298463, Note_on_c, 0, 64, 55
2, 298464, Note_on_c, 0, 48, 51
2, 298466, Note_on_c, 0, 72, 43
2, 298468, Note_on_c, 0, 68, 54
2, 298474, Note_on_c, 0, 58, 50
2, 298617, Control_c, 0, 64, 127
2, 298772, Note_on_c, 0, 72, 0
2, 298788, Note_on_c, 0, 48, 0
2, 298789, Note_on_c, 0, 68, 0
2, 298860, Note_on_c, 0, 58, 0
2, 298916, Note_on_c, 0, 64, 0
2, 298936, Note_on_c, 0, 55, 34
2, 298948, Control_c, 0, 64, 0
2, 299015, Note_on_c, 0, 55, 0
2, 299039, Note_on_c, 0, 67, 53
2, 299057, Control_c, 0, 64, 127
2, 299186, Note_on_c, 0, 67, 0
2, 299302, Control_c, 0, 64, 0
2, 299346, Note_on_c, 0, 56, 24
2, 299381, Note_on_c, 0, 70, 54
2, 299383, Note_on_c, 0, 58, 58
2, 299389, Note_on_c, 0, 63, 49
2, 299390, Note_on_c, 0, 60, 49
2, 299395, Note_on_c, 0, 67, 42
2, 299416, Note_on_c, 0, 56, 0
2, 299456, Note_on_c, 0, 60, 0
2, 299465, Note_on_c, 0, 58, 0
2, 299467, Note_on_c, 0, 67, 0
2, 299469, Note_on_c, 0, 63, 0
2, 299479, Note_on_c, 0, 70, 0
2, 299829, Note_on_c, 0, 68, 58
2, 299848, Note_on_c, 0, 63, 49
2, 299855, Note_on_c, 0, 56, 47
2, 299856, Note_on_c, 0, 60, 40
2, 299893, Note_on_c, 0, 60, 0
2, 299902, Note_on_c, 0, 56, 0
2, 299905, Note_on_c, 0, 63, 0
2, 299939, Note_on_c, 0, 68, 0
2, 300303, Note_on_c, 0, 75, 75
2, 300307, Note_on_c, 0, 68, 73
2, 300314, Note_on_c, 0, 65, 68
2, 300316, Note_on_c, 0, 63, 70
2, 300318, Note_on_c, 0, 72, 56
2, 300347, Note_on_c, 0, 65, 0
2, 300348, Note_on_c, 0, 72, 0
2, 300390, Note_on_c, 0, 68, 0
2, 300391, Note_on_c, 0, 75, 0
2, 300396, Note_on_c, 0, 63, 0
2, 300788, Note_on_c, 0, 65, 80
2, 300792, Note_on_c, 0, 60, 58
2, 300794, Note_on_c, 0, 72, 76
2, 300842, Note_on_c, 0, 60, 0
2, 300875, Note_on_c, 0, 65, 0
2, 300893, Note_on_c, 0, 72, 0
2, 300987, Note_on_c, 0, 68, 48
2, 301246, Note_on_c, 0, 68, 0
2, 301325, Note_on_c, 0, 53, 39
2, 301439, Note_on_c, 0, 53, 0
2, 301456, Note_on_c, 0, 56, 55
2, 301458, Note_on_c, 0, 62, 48
2, 301461, Note_on_c, 0, 67, 49
2, 301462, Note_on_c, 0, 65, 45
2, 301929, Control_c, 0, 64, 127
2, 302084, Note_on_c, 0, 62, 0
2, 302120, Note_on_c, 0, 65, 0
2, 302161, Note_on_c, 0, 67, 0
2, 302253, Note_on_c, 0, 56, 0
2, 302263, Note_on_c, 0, 46, 39
2, 302282, Control_c, 0, 64, 0
2, 302412, Note_on_c, 0, 70, 51
2, 302425, Note_on_c, 0, 62, 41
2, 302434, Note_on_c, 0, 56, 46
2, 302446, Note_on_c, 0, 65, 37
2, 302466, Note_on_c, 0, 67, 31
2, 302496, Control_c, 0, 64, 127
2, 302542, Note_on_c, 0, 56, 0
2, 302554, Note_on_c, 0, 65, 0
2, 302562, Note_on_c, 0, 67, 0
2, 302565, Note_on_c, 0, 62, 0
2, 302581, Note_on_c, 0, 70, 0
2, 302603, Note_on_c, 0, 46, 0
2, 302731, Note_on_c, 0, 56, 32
2, 302734, Note_on_c, 0, 46, 40
2, 302776, Note_on_c, 0, 70, 43
2, 302778, Note_on_c, 0, 62, 31
2, 302788, Note_on_c, 0, 56, 0
2, 302826, Note_on_c, 0, 62, 0
2, 302833, Note_on_c, 0, 70, 0
2, 302839, Note_on_c, 0, 46, 0
2, 303260, Note_on_c, 0, 70, 57
2, 303265, Control_c, 0, 64, 0
2, 303299, Note_on_c, 0, 65, 35
2, 303300, Note_on_c, 0, 70, 0
2, 303303, Note_on_c, 0, 60, 26
2, 303341, Note_on_c, 0, 60, 0
2, 303346, Note_on_c, 0, 65, 0
2, 303708, Note_on_c, 0, 82, 82
2, 303840, Control_c, 0, 64, 127
2, 304173, Note_on_c, 0, 82, 0
2, 304682, Note_on_c, 0, 79, 61
2, 304692, Note_on_c, 0, 70, 45
2, 304696, Note_on_c, 0, 67, 40
2, 304718, Note_on_c, 0, 63, 39
2, 304817, Note_on_c, 0, 67, 0
2, 304851, Note_on_c, 0, 70, 0
2, 304878, Note_on_c, 0, 63, 0
2, 304905, Note_on_c, 0, 79, 0
2, 305204, Note_on_c, 0, 58, 52
2, 305210, Note_on_c, 0, 68, 51
2, 305232, Control_c, 0, 64, 0
2, 305253, Note_on_c, 0, 72, 42
2, 305256, Note_on_c, 0, 63, 40
2, 305264, Note_on_c, 0, 75, 25
2, 305337, Note_on_c, 0, 75, 0
2, 305355, Note_on_c, 0, 60, 26
2, 305456, Control_c, 0, 64, 127
2, 305684, Note_on_c, 0, 63, 0
2, 305728, Note_on_c, 0, 60, 0
2, 305734, Note_on_c, 0, 58, 0
2, 305757, Note_on_c, 0, 72, 0
2, 305787, Note_on_c, 0, 68, 0
2, 306280, Note_on_c, 0, 60, 53
2, 306304, Note_on_c, 0, 63, 42
2, 306516, Note_on_c, 0, 60, 0
2, 306533, Note_on_c, 0, 63, 0
2, 306594, Note_on_c, 0, 62, 49
2, 306598, Note_on_c, 0, 65, 57
2, 306599, Note_on_c, 0, 56, 48
2, 306713, Note_on_c, 0, 65, 0
2, 306724, Note_on_c, 0, 56, 0
2, 306728, Control_c, 0, 64, 0
2, 306733, Note_on_c, 0, 62, 0
2, 306765, Note_on_c, 0, 67, 64
2, 306770, Note_on_c, 0, 63, 43
2, 306835, Control_c, 0, 64, 127
2, 306874, Note_on_c, 0, 63, 0
2, 307011, Note_on_c, 0, 67, 0
2, 307088, Note_on_c, 0, 58, 50
2, 307096, Note_on_c, 0, 62, 61
2, 307104, Control_c, 0, 64, 0
2, 307119, Note_on_c, 0, 55, 58
2, 307138, Note_on_c, 0, 46, 39
2, 307142, Note_on_c, 0, 39, 41
2, 307492, Control_c, 0, 64, 127
2, 308031, Note_on_c, 0, 39, 0
2, 308289, Note_on_c, 0, 46, 0
2, 308364, Note_on_c, 0, 55, 0
2, 308392, Note_on_c, 0, 62, 0
2, 308435, Note_on_c, 0, 58, 0
2, 308538, Note_on_c, 0, 46, 46
2, 308540, Control_c, 0, 64, 0
2, 308601, Note_on_c, 0, 46, 0
2, 308665, Note_on_c, 0, 58, 39
2, 308667, Note_on_c, 0, 55, 37
2, 308688, Note_on_c, 0, 62, 47
2, 308720, Control_c, 0, 64, 127
2, 308755, Note_on_c, 0, 55, 0
2, 308797, Note_on_c, 0, 58, 0
2, 308921, Note_on_c, 0, 62, 0
2, 308977, Control_c, 0, 64, 0
2, 308998, Note_on_c, 0, 56, 45
2, 309002, Note_on_c, 0, 63, 52
2, 309008, Note_on_c, 0, 46, 29
2, 309028, Note_on_c, 0, 60, 48
2, 309068, Note_on_c, 0, 53, 32
2, 309214, Control_c, 0, 64, 127
2, 309428, Note_on_c, 0, 56, 0
2, 309579, Note_on_c, 0, 60, 0
2, 309658, Note_on_c, 0, 46, 0
2, 309812, Note_on_c, 0, 63, 0
2, 309824, Note_on_c, 0, 53, 0
2, 310173, Control_c, 0, 64, 0
2, 310275, Note_on_c, 0, 63, 63
2, 310290, Note_on_c, 0, 70, 60
2, 310300, Note_on_c, 0, 56, 49
2, 310388, Note_on_c, 0, 70, 0
2, 310408, Note_on_c, 0, 56, 0
2, 310422, Note_on_c, 0, 63, 0
2, 310428, Note_on_c, 0, 60, 50
2, 310474, Note_on_c, 0, 67, 35
2, 310493, Note_on_c, 0, 60, 0
2, 310505, Note_on_c, 0, 53, 35
2, 310537, Note_on_c, 0, 67, 0
2, 310568, Note_on_c, 0, 53, 0
2, 310608, Note_on_c, 0, 67, 35
2, 310611, Note_on_c, 0, 60, 35
2, 310615, Note_on_c, 0, 56, 52
2, 310616, Note_on_c, 0, 70, 58
2, 310633, Note_on_c, 0, 63, 50
2, 310634, Control_c, 0, 64, 127
2, 310742, Note_on_c, 0, 60, 0
2, 310755, Note_on_c, 0, 70, 0
2, 310797, Note_on_c, 0, 63, 0
2, 310857, Note_on_c, 0, 56, 0
2, 310860, Control_c, 0, 64, 0
2, 310876, Note_on_c, 0, 67, 0
2, 310919, Note_on_c, 0, 62, 52
2, 310922, Note_on_c, 0, 70, 45
2, 310941, Note_on_c, 0, 65, 57
2, 310965, Note_on_c, 0, 55, 45
2, 311141, Control_c, 0, 64, 127
2, 311452, Note_on_c, 0, 62, 0
2, 311453, Note_on_c, 0, 55, 0
2, 311472, Note_on_c, 0, 65, 0
2, 311520, Note_on_c, 0, 70, 0
2, 311928, Control_c, 0, 64, 0
2, 311992, Note_on_c, 0, 58, 52
2, 311994, Note_on_c, 0, 74, 67
2, 311998, Note_on_c, 0, 65, 58
2, 312000, Note_on_c, 0, 70, 52
2, 312022, Note_on_c, 0, 67, 50
2, 312063, Note_on_c, 0, 67, 0
2, 312073, Control_c, 0, 64, 127
2, 312087, Note_on_c, 0, 65, 0
2, 312136, Note_on_c, 0, 74, 0
2, 312139, Note_on_c, 0, 70, 0
2, 312311, Note_on_c, 0, 70, 79
2, 312312, Note_on_c, 0, 77, 85
2, 312318, Note_on_c, 0, 67, 66
2, 312324, Note_on_c, 0, 62, 64
2, 312336, Note_on_c, 0, 58, 0
2, 312372, Note_on_c, 0, 67, 0
2, 312384, Control_c, 0, 64, 0
2, 312420, Note_on_c, 0, 70, 0
2, 312452, Note_on_c, 0, 77, 0
2, 312480, Note_on_c, 0, 62, 0
2, 312496, Note_on_c, 0, 58, 50
2, 312501, Note_on_c, 0, 74, 50
2, 312507, Note_on_c, 0, 70, 37
2, 312533, Note_on_c, 0, 74, 0
2, 312561, Note_on_c, 0, 70, 0
2, 312793, Note_on_c, 0, 75, 66
2, 312795, Note_on_c, 0, 68, 51
2, 312806, Note_on_c, 0, 65, 55
2, 312808, Note_on_c, 0, 60, 55
2, 312809, Note_on_c, 0, 58, 0
2, 312812, Note_on_c, 0, 72, 58
2, 312960, Control_c, 0, 64, 127
2, 313038, Note_on_c, 0, 72, 0
2, 313052, Note_on_c, 0, 75, 0
2, 313115, Note_on_c, 0, 68, 0
2, 313173, Note_on_c, 0, 65, 0
2, 313601, Note_on_c, 0, 60, 0
2, 313904, Control_c, 0, 64, 0
2, 313963, Note_on_c, 0, 72, 49
2, 313968, Note_on_c, 0, 65, 42
2, 313970, Note_on_c, 0, 68, 50
2, 313972, Note_on_c, 0, 56, 42
2, 313977, Note_on_c, 0, 60, 38
2, 314100, Control_c, 0, 64, 127
2, 314285, Note_on_c, 0, 72, 0
2, 314286, Note_on_c, 0, 56, 0
2, 314373, Note_on_c, 0, 65, 0
2, 314378, Note_on_c, 0, 60, 0
2, 314388, Note_on_c, 0, 68, 0
2, 314922, Control_c, 0, 64, 0
2, 314940, Note_on_c, 0, 39, 40
2, 314944, Note_on_c, 0, 46, 39
2, 314952, Note_on_c, 0, 55, 41
2, 314955, Note_on_c, 0, 62, 49
2, 314957, Note_on_c, 0, 65, 38
2, 314959, Note_on_c, 0, 57, 39
2, 315299, Control_c, 0, 64, 127
2, 316077, Note_on_c, 0, 55, 0
2, 316091, Note_on_c, 0, 57, 0
2, 316142, Note_on_c, 0, 62, 0
2, 316185, Note_on_c, 0, 65, 0
2, 317015, Note_on_c, 0, 39, 0
2, 317808, Note_on_c, 0, 46, 0
2, 320392, Control_c, 0, 64, 0
2, 320392, End_track
3, 0, Start_track
3, 0, Title_t, "Fretless Bass"
3, 0, Program_c, 1, 35
3, 0, Control_c, 1, 7, 100
3, 0, Note_on_c, 1, 46, 87
3, 905, Note_on_c, 1, 46, 0
3, 950, Note_on_c, 1, 34, 61
3, 1776, Note_on_c, 1, 45, 54
3, 1811, Note_on_c, 1, 45, 0
3, 1917, Note_on_c, 1, 34, 0
3, 1929, Note_on_c, 1, 46, 85
3, 1993, Note_on_c, 1, 46, 0
3, 2240, Note_on_c, 1, 48, 96
3, 2315, Note_on_c, 1, 48, 0
3, 2410, Note_on_c, 1, 46, 90
3, 2563, Pitch_bend_c, 1, 8192
3, 2566, Pitch_bend_c, 1, 8192
3, 2568, Pitch_bend_c, 1, 8192
3, 2575, Pitch_bend_c, 1, 8842
3, 2580, Pitch_bend_c, 1, 9102
3, 2587, Pitch_bend_c, 1, 9492
3, 2593, Pitch_bend_c, 1, 9882
3, 2598, Pitch_bend_c, 1, 10142
3, 2604, Pitch_bend_c, 1, 10402
3, 2610, Pitch_bend_c, 1, 10792
3, 2617, Pitch_bend_c, 1, 10922
3, 2622, Pitch_bend_c, 1, 11052
3, 2628, Pitch_bend_c, 1, 11442
3, 2640, Pitch_bend_c, 1, 11572
3, 2666, Pitch_bend_c, 1, 11312
3, 2672, Pitch_bend_c, 1, 11052
3, 2678, Pitch_bend_c, 1, 10792
3, 2683, Pitch_bend_c, 1, 10402
3, 2690, Pitch_bend_c, 1, 10142
3, 2696, Pitch_bend_c, 1, 9752
3, 2702, Pitch_bend_c, 1, 9232
3, 2707, Pitch_bend_c, 1, 8712
3, 2713, Pitch_bend_c, 1, 8192
3, 2716, Pitch_bend_c, 1, 8192
3, 2867, Pitch_bend_c, 1, 8192
3, 2870, Pitch_bend_c, 1, 8192
3, 2876, Pitch_bend_c, 1, 8712
3, 2882, Pitch_bend_c, 1, 8972
3, 2888, Pitch_bend_c, 1, 9362
3, 2894, Pitch_bend_c, 1, 9622
3, 2900, Pitch_bend_c, 1, 9882
3, 2906, Pitch_bend_c, 1, 10272
3, 2911, Pitch_bend_c, 1, 10532
3, 2917, Pitch_bend_c, 1, 10792
3, 2923, Pitch_bend_c, 1, 10922
3, 2929, Pitch_bend_c, 1, 11052
3, 2941, Pitch_bend_c, 1, 11312
3, 2961, Pitch_bend_c, 1, 11052
3, 2968, Pitch_bend_c, 1, 10922
3, 2973, Pitch_bend_c, 1, 10792
3, 2979, Pitch_bend_c, 1, 10402
3, 2985, Pitch_bend_c, 1, 10142
3, 2991, Pitch_bend_c, 1, 9882
3, 2997, Pitch_bend_c, 1, 9622
3, 3003, Pitch_bend_c, 1, 9232
3, 3009, Pitch_bend_c, 1, 8972
3, 3015, Pitch_bend_c, 1, 8712
3, 3021, Pitch_bend_c, 1, 8192
3, 3024, Pitch_bend_c, 1, 8192
3, 3850, Note_on_c, 1, 34, 82
3, 3908, Note_on_c, 1, 46, 0
3, 4794, Note_on_c, 1, 46, 75
3, 4861, Note_on_c, 1, 34, 0
3, 4886, Note_on_c, 1, 46, 0
3, 5131, Note_on_c, 1, 48, 91
3, 5226, Note_on_c, 1, 48, 0
3, 5300, Note_on_c, 1, 46, 71
3, 5415, Note_on_c, 1, 46, 0
3, 5772, Note_on_c, 1, 34, 87
3, 6308, Note_on_c, 1, 34, 0
3, 6342, Note_on_c, 1, 46, 33
3, 6439, Note_on_c, 1, 46, 0
3, 6597, Note_on_c, 1, 43, 52
3, 6635, Note_on_c, 1, 32, 31
3, 6641, Note_on_c, 1, 43, 0
3, 6680, Note_on_c, 1, 32, 0
3, 6735, Note_on_c, 1, 46, 79
3, 7066, Note_on_c, 1, 46, 0
3, 7079, Note_on_c, 1, 34, 64
3, 7207, Note_on_c, 1, 34, 0
3, 7219, Note_on_c, 1, 51, 96
3, 7565, Note_on_c, 1, 49, 47
3, 7596, Note_on_c, 1, 51, 0
3, 7644, Note_on_c, 1, 49, 0
3, 7695, Note_on_c, 1, 50, 79
3, 7728, Note_on_c, 1, 50, 0
3, 7870, Note_on_c, 1, 45, 78
3, 7920, Note_on_c, 1, 45, 0
3, 8021, Note_on_c, 1, 39, 80
3, 8105, Note_on_c, 1, 39, 0
3, 8183, Note_on_c, 1, 38, 84
3, 9153, Note_on_c, 1, 50, 126
3, 9199, Note_on_c, 1, 38, 0
3, 9933, Note_on_c, 1, 50, 0
3, 9962, Note_on_c, 1, 49, 60
3, 10075, Note_on_c, 1, 49, 0
3, 10118, Note_on_c, 1, 50, 93
3, 10229, Note_on_c, 1, 50, 0
3, 10440, Note_on_c, 1, 37, 69
3, 10543, Note_on_c, 1, 37, 0
3, 10576, Note_on_c, 1, 38, 64
3, 10869, Note_on_c, 1, 38, 0
3, 10929, Note_on_c, 1, 37, 46
3, 11013, Note_on_c, 1, 37, 0
3, 11045, Note_on_c, 1, 38, 75
3, 11877, Note_on_c, 1, 49, 64
3, 11980, Note_on_c, 1, 49, 0
3, 12004, Note_on_c, 1, 38, 0
3, 12018, Note_on_c, 1, 50, 73
3, 12150, Note_on_c, 1, 50, 0
3, 12180, Note_on_c, 1, 49, 55
3, 12266, Note_on_c, 1, 49, 0
3, 12329, Note_on_c, 1, 50, 79
3, 12803, Note_on_c, 1, 37, 64
3, 12832, Note_on_c, 1, 50, 0
3, 12926, Note_on_c, 1, 37, 0
3, 12962, Note_on_c, 1, 38, 62
3, 13293, Note_on_c, 1, 49, 67
3, 13321, Note_on_c, 1, 38, 0
3, 13364, Note_on_c, 1, 49, 0
3, 13441, Note_on_c, 1, 50, 103
3, 13589, Control_c, 1, 1, 5
3, 13592, Control_c, 1, 1, 6
3, 13596, Control_c, 1, 1, 8
3, 13599, Control_c, 1, 1, 10
3, 13602, Control_c, 1, 1, 12
3, 13605, Control_c, 1, 1, 14
3, 13608, Control_c, 1, 1, 16
3, 13612, Control_c, 1, 1, 18
3, 13614, Control_c, 1, 1, 20
3, 13617, Control_c, 1, 1, 22
3, 13621, Control_c, 1, 1, 24
3, 13624, Control_c, 1, 1, 26
3, 13627, Control_c, 1, 1, 28
3, 13630, Control_c, 1, 1, 30
3, 13632, Control_c, 1, 1, 33
3, 13636, Control_c, 1, 1, 34
3, 13639, Control_c, 1, 1, 37
3, 13642, Control_c, 1, 1, 39
3, 13645, Control_c, 1, 1, 41
3, 13648, Control_c, 1, 1, 42
3, 13652, Control_c, 1, 1, 45
3, 13654, Control_c, 1, 1, 47
3, 13658, Control_c, 1, 1, 49
3, 13661, Control_c, 1, 1, 51
3, 13664, Control_c, 1, 1, 53
3, 13667, Control_c, 1, 1, 55
3, 13670, Control_c, 1, 1, 56
3, 13673, Control_c, 1, 1, 59
3, 13677, Control_c, 1, 1, 61
3, 13679, Control_c, 1, 1, 63
3, 13682, Control_c, 1, 1, 64
3, 13686, Control_c, 1, 1, 66
3, 13689, Control_c, 1, 1, 68
3, 13692, Control_c, 1, 1, 70
3, 13696, Control_c, 1, 1, 72
3, 13699, Control_c, 1, 1, 74
3, 13702, Control_c, 1, 1, 75
3, 13704, Control_c, 1, 1, 77
3, 13707, Control_c, 1, 1, 79
3, 13711, Control_c, 1, 1, 80
3, 13714, Control_c, 1, 1, 81
3, 13717, Control_c, 1, 1, 84
3, 13720, Control_c, 1, 1, 85
3, 13722, Control_c, 1, 1, 87
3, 13726, Control_c, 1, 1, 88
3, 13729, Control_c, 1, 1, 89
3, 13732, Control_c, 1, 1, 90
3, 13735, Control_c, 1, 1, 92
3, 13739, Control_c, 1, 1, 93
3, 13741, Control_c, 1, 1, 95
3, 13744, Control_c, 1, 1, 96
3, 13747, Control_c, 1, 1, 97
3, 13750, Control_c, 1, 1, 98
3, 13754, Control_c, 1, 1, 99
3, 13756, Control_c, 1, 1, 100
3, 13760, Control_c, 1, 1, 101
3, 13769, Control_c, 1, 1, 104
3, 13777, Control_c, 1, 1, 105
3, 13786, Control_c, 1, 1, 107
3, 13798, Control_c, 1, 1, 108
3, 13810, Control_c, 1, 1, 110
3, 13821, Control_c, 1, 1, 111
3, 13836, Control_c, 1, 1, 112
3, 13848, Control_c, 1, 1, 113
3, 13869, Control_c, 1, 1, 114
3, 14039, Control_c, 1, 1, 113
3, 14073, Control_c, 1, 1, 112
3, 14097, Control_c, 1, 1, 111
3, 14115, Control_c, 1, 1, 110
3, 14127, Control_c, 1, 1, 109
3, 14135, Control_c, 1, 1, 108
3, 14144, Control_c, 1, 1, 106
3, 14153, Control_c, 1, 1, 105
3, 14161, Control_c, 1, 1, 103
3, 14165, Control_c, 1, 1, 102
3, 14168, Control_c, 1, 1, 101
3, 14177, Control_c, 1, 1, 99
3, 14186, Control_c, 1, 1, 97
3, 14189, Control_c, 1, 1, 96
3, 14192, Control_c, 1, 1, 95
3, 14201, Control_c, 1, 1, 93
3, 14204, Control_c, 1, 1, 92
3, 14206, Control_c, 1, 1, 91
3, 14210, Control_c, 1, 1, 90
3, 14219, Control_c, 1, 1, 87
3, 14222, Control_c, 1, 1, 86
3, 14225, Control_c, 1, 1, 85
3, 14228, Control_c, 1, 1, 84
3, 14237, Control_c, 1, 1, 82
3, 14240, Control_c, 1, 1, 81
3, 14243, Control_c, 1, 1, 80
3, 14246, Control_c, 1, 1, 79
3, 14255, Control_c, 1, 1, 76
3, 14258, Control_c, 1, 1, 75
3, 14261, Control_c, 1, 1, 74
3, 14265, Control_c, 1, 1, 73
3, 14268, Control_c, 1, 1, 72
3, 14271, Control_c, 1, 1, 71
3, 14273, Control_c, 1, 1, 70
3, 14276, Control_c, 1, 1, 69
3, 14280, Control_c, 1, 1, 68
3, 14283, Control_c, 1, 1, 66
3, 14286, Control_c, 1, 1, 65
3, 14290, Control_c, 1, 1, 64
3, 14292, Control_c, 1, 1, 62
3, 14295, Control_c, 1, 1, 61
3, 14298, Control_c, 1, 1, 60
3, 14301, Control_c, 1, 1, 59
3, 14305, Control_c, 1, 1, 57
3, 14307, Control_c, 1, 1, 56
3, 14311, Control_c, 1, 1, 54
3, 14313, Control_c, 1, 1, 53
3, 14316, Control_c, 1, 1, 52
3, 14320, Control_c, 1, 1, 51
3, 14323, Control_c, 1, 1, 49
3, 14326, Control_c, 1, 1, 48
3, 14330, Control_c, 1, 1, 47
3, 14332, Control_c, 1, 1, 45
3, 14336, Control_c, 1, 1, 44
3, 14338, Control_c, 1, 1, 42
3, 14341, Control_c, 1, 1, 41
3, 14345, Control_c, 1, 1, 39
3, 14348, Control_c, 1, 1, 38
3, 14351, Control_c, 1, 1, 36
3, 14354, Control_c, 1, 1, 35
3, 14356, Control_c, 1, 1, 34
3, 14359, Control_c, 1, 1, 32
3, 14363, Control_c, 1, 1, 31
3, 14366, Control_c, 1, 1, 29
3, 14369, Control_c, 1, 1, 27
3, 14372, Control_c, 1, 1, 26
3, 14375, Control_c, 1, 1, 24
3, 14379, Control_c, 1, 1, 23
3, 14381, Control_c, 1, 1, 22
3, 14384, Control_c, 1, 1, 20
3, 14388, Control_c, 1, 1, 19
3, 14391, Control_c, 1, 1, 17
3, 14394, Control_c, 1, 1, 16
3, 14397, Control_c, 1, 1, 15
3, 14400, Control_c, 1, 1, 13
3, 14403, Control_c, 1, 1, 12
3, 14406, Control_c, 1, 1, 10
3, 14409, Control_c, 1, 1, 9
3, 14412, Control_c, 1, 1, 7
3, 14415, Control_c, 1, 1, 6
3, 14419, Control_c, 1, 1, 4
3, 14421, Control_c, 1, 1, 3
3, 14424, Control_c, 1, 1, 1
3, 14454, Control_c, 1, 1, 0
3, 14732, Note_on_c, 1, 50, 0
3, 14741, Note_on_c, 1, 49, 63
3, 14820, Note_on_c, 1, 49, 0
3, 14880, Note_on_c, 1, 50, 89
3, 14941, Note_on_c, 1, 50, 0
3, 15216, Note_on_c, 1, 42, 80
3, 15336, Note_on_c, 1, 42, 0
3, 15387, Note_on_c, 1, 43, 57
3, 16173, Note_on_c, 1, 37, 45
3, 16266, Note_on_c, 1, 37, 0
3, 16300, Note_on_c, 1, 43, 0
3, 16306, Note_on_c, 1, 38, 55
3, 17132, Note_on_c, 1, 41, 63
3, 17140, Note_on_c, 1, 34, 47
3, 17172, Note_on_c, 1, 41, 0
3, 17197, Note_on_c, 1, 38, 0
3, 17202, Note_on_c, 1, 34, 0
3, 17285, Note_on_c, 1, 42, 75
3, 17313, Note_on_c, 1, 42, 0
3, 17594, Note_on_c, 1, 39, 74
3, 17697, Note_on_c, 1, 39, 0
3, 17759, Note_on_c, 1, 36, 90
3, 18539, Note_on_c, 1, 32, 51
3, 18604, Note_on_c, 1, 36, 0
3, 18638, Note_on_c, 1, 32, 0
3, 18699, Note_on_c, 1, 33, 86
3, 19383, Note_on_c, 1, 33, 0
3, 19500, Note_on_c, 1, 30, 77
3, 19599, Note_on_c, 1, 30, 0
3, 19654, Note_on_c, 1, 29, 80
3, 20004, Note_on_c, 1, 36, 61
3, 20040, Note_on_c, 1, 36, 0
3, 20085, Note_on_c, 1, 29, 0
3, 20145, Note_on_c, 1, 41, 86
3, 20529, Note_on_c, 1, 36, 47
3, 20575, Note_on_c, 1, 36, 0
3, 20903, Note_on_c, 1, 41, 0
3, 20956, Note_on_c, 1, 47, 92
3, 20997, Note_on_c, 1, 36, 45
3, 21027, Note_on_c, 1, 36, 0
3, 21056, Note_on_c, 1, 47, 0
3, 21126, Note_on_c, 1, 46, 78
3, 21886, Note_on_c, 1, 46, 0
3, 21932, Note_on_c, 1, 44, 69
3, 22007, Note_on_c, 1, 44, 0
3, 22095, Note_on_c, 1, 41, 59
3, 22243, Note_on_c, 1, 41, 0
3, 22405, Note_on_c, 1, 34, 52
3, 22502, Note_on_c, 1, 34, 0
3, 22548, Note_on_c, 1, 38, 69
3, 22874, Note_on_c, 1, 34, 60
3, 22901, Note_on_c, 1, 38, 0
3, 22941, Note_on_c, 1, 34, 0
3, 23027, Note_on_c, 1, 39, 75
3, 23381, Note_on_c, 1, 55, 89
3, 23418, Note_on_c, 1, 39, 0
3, 23879, Note_on_c, 1, 39, 61
3, 23942, Note_on_c, 1, 39, 0
3, 23959, Note_on_c, 1, 55, 0
3, 24026, Note_on_c, 1, 54, 76
3, 24822, Note_on_c, 1, 37, 50
3, 24887, Note_on_c, 1, 37, 0
3, 24949, Note_on_c, 1, 54, 0
3, 24949, Note_on_c, 1, 38, 73
3, 25267, Note_on_c, 1, 38, 0
3, 25295, Note_on_c, 1, 37, 74
3, 25329, Note_on_c, 1, 37, 0
3, 25428, Note_on_c, 1, 37, 95
3, 25472, Note_on_c, 1, 53, 98
3, 25510, Note_on_c, 1, 37, 0
3, 25884, Note_on_c, 1, 53, 0
3, 25939, Note_on_c, 1, 52, 79
3, 26253, Note_on_c, 1, 35, 73
3, 26300, Note_on_c, 1, 52, 0
3, 26359, Note_on_c, 1, 35, 0
3, 26418, Note_on_c, 1, 36, 62
3, 27204, Note_on_c, 1, 34, 54
3, 27242, Note_on_c, 1, 36, 0
3, 27299, Note_on_c, 1, 34, 0
3, 27325, Note_on_c, 1, 48, 78
3, 27761, Note_on_c, 1, 48, 0
3, 27825, Note_on_c, 1, 44, 70
3, 28278, Note_on_c, 1, 44, 0
3, 28317, Note_on_c, 1, 41, 76
3, 28679, Note_on_c, 1, 41, 0
3, 28685, Note_on_c, 1, 33, 61
3, 28750, Note_on_c, 1, 33, 0
3, 28801, Note_on_c, 1, 34, 78
3, 29237, Note_on_c, 1, 34, 0
3, 29279, Note_on_c, 1, 46, 98
3, 30583, Note_on_c, 1, 45, 67
3, 30615, Note_on_c, 1, 46, 0
3, 30620, Note_on_c, 1, 45, 0
3, 30728, Note_on_c, 1, 46, 74
3, 32094, Note_on_c, 1, 46, 0
3, 32178, Note_on_c, 1, 46, 81
3, 32334, Pitch_bend_c, 1, 8192
3, 32341, Pitch_bend_c, 1, 8712
3, 32347, Pitch_bend_c, 1, 8972
3, 32352, Pitch_bend_c, 1, 9362
3, 32358, Pitch_bend_c, 1, 9752
3, 32364, Pitch_bend_c, 1, 10142
3, 32370, Pitch_bend_c, 1, 10532
3, 32376, Pitch_bend_c, 1, 10792
3, 32382, Pitch_bend_c, 1, 11052
3, 32388, Pitch_bend_c, 1, 11442
3, 32394, Pitch_bend_c, 1, 11702
3, 32400, Pitch_bend_c, 1, 11962
3, 32406, Pitch_bend_c, 1, 12092
3, 32417, Pitch_bend_c, 1, 12352
3, 32452, Pitch_bend_c, 1, 12092
3, 32458, Pitch_bend_c, 1, 11962
3, 32464, Pitch_bend_c, 1, 11702
3, 32470, Pitch_bend_c, 1, 11442
3, 32477, Pitch_bend_c, 1, 11052
3, 32482, Pitch_bend_c, 1, 10792
3, 32488, Pitch_bend_c, 1, 10402
3, 32494, Pitch_bend_c, 1, 10012
3, 32500, Pitch_bend_c, 1, 9752
3, 32505, Pitch_bend_c, 1, 9362
3, 32512, Pitch_bend_c, 1, 9102
3, 32518, Pitch_bend_c, 1, 8842
3, 32524, Pitch_bend_c, 1, 8712
3, 32530, Pitch_bend_c, 1, 8192
3, 32539, Pitch_bend_c, 1, 8192
3, 32562, Pitch_bend_c, 1, 8192
3, 32568, Pitch_bend_c, 1, 8712
3, 32580, Pitch_bend_c, 1, 9102
3, 32585, Pitch_bend_c, 1, 9362
3, 32591, Pitch_bend_c, 1, 9622
3, 32597, Pitch_bend_c, 1, 9882
3, 32603, Pitch_bend_c, 1, 10142
3, 32609, Pitch_bend_c, 1, 10532
3, 32615, Pitch_bend_c, 1, 10922
3, 32621, Pitch_bend_c, 1, 11312
3, 32627, Pitch_bend_c, 1, 11702
3, 32633, Pitch_bend_c, 1, 11962
3, 32639, Pitch_bend_c, 1, 12222
3, 32645, Pitch_bend_c, 1, 12482
3, 32650, Pitch_bend_c, 1, 12742
3, 32657, Pitch_bend_c, 1, 12872
3, 32662, Pitch_bend_c, 1, 13002
3, 32668, Pitch_bend_c, 1, 13132
3, 32723, Pitch_bend_c, 1, 12872
3, 32729, Pitch_bend_c, 1, 12742
3, 32735, Pitch_bend_c, 1, 12612
3, 32742, Pitch_bend_c, 1, 12352
3, 32747, Pitch_bend_c, 1, 11962
3, 32753, Pitch_bend_c, 1, 11702
3, 32758, Pitch_bend_c, 1, 11312
3, 32765, Pitch_bend_c, 1, 10792
3, 32771, Pitch_bend_c, 1, 10402
3, 32777, Pitch_bend_c, 1, 10012
3, 32783, Pitch_bend_c, 1, 9752
3, 32788, Pitch_bend_c, 1, 9232
3, 32795, Pitch_bend_c, 1, 8972
3, 32800, Pitch_bend_c, 1, 8712
3, 32807, Pitch_bend_c, 1, 8192
3, 32810, Pitch_bend_c, 1, 8192
3, 32813, Pitch_bend_c, 1, 8192
3, 32862, Pitch_bend_c, 1, 8192
3, 32873, Pitch_bend_c, 1, 8712
3, 32880, Pitch_bend_c, 1, 9102
3, 32886, Pitch_bend_c, 1, 9362
3, 32891, Pitch_bend_c, 1, 9752
3, 32897, Pitch_bend_c, 1, 10012
3, 32903, Pitch_bend_c, 1, 10402
3, 32909, Pitch_bend_c, 1, 10662
3, 32915, Pitch_bend_c, 1, 10922
3, 32921, Pitch_bend_c, 1, 11312
3, 32927, Pitch_bend_c, 1, 11572
3, 32933, Pitch_bend_c, 1, 11832
3, 32939, Pitch_bend_c, 1, 12092
3, 32945, Pitch_bend_c, 1, 12352
3, 32951, Pitch_bend_c, 1, 12612
3, 32956, Pitch_bend_c, 1, 12742
3, 32968, Pitch_bend_c, 1, 13002
3, 32983, Pitch_bend_c, 1, 13132
3, 33006, Pitch_bend_c, 1, 12872
3, 33012, Pitch_bend_c, 1, 12742
3, 33018, Pitch_bend_c, 1, 12482
3, 33024, Pitch_bend_c, 1, 12222
3, 33030, Pitch_bend_c, 1, 11962
3, 33036, Pitch_bend_c, 1, 11702
3, 33041, Pitch_bend_c, 1, 11442
3, 33048, Pitch_bend_c, 1, 10922
3, 33054, Pitch_bend_c, 1, 10662
3, 33060, Pitch_bend_c, 1, 10272
3, 33066, Pitch_bend_c, 1, 10012
3, 33071, Pitch_bend_c, 1, 9622
3, 33078, Pitch_bend_c, 1, 9362
3, 33083, Pitch_bend_c, 1, 9232
3, 33089, Pitch_bend_c, 1, 8972
3, 33095, Pitch_bend_c, 1, 8842
3, 33133, Pitch_bend_c, 1, 8712
3, 33139, Pitch_bend_c, 1, 8842
3, 33159, Pitch_bend_c, 1, 9102
3, 33191, Pitch_bend_c, 1, 8972
3, 33203, Pitch_bend_c, 1, 8842
3, 33209, Pitch_bend_c, 1, 8192
3, 33212, Pitch_bend_c, 1, 8192
3, 33215, Pitch_bend_c, 1, 8192
3, 33218, Pitch_bend_c, 1, 8192
3, 33337, Pitch_bend_c, 1, 8192
3, 33346, Pitch_bend_c, 1, 8192
3, 33360, Pitch_bend_c, 1, 8712
3, 33366, Pitch_bend_c, 1, 8842
3, 33381, Pitch_bend_c, 1, 8972
3, 33447, Pitch_bend_c, 1, 8842
3, 33488, Pitch_bend_c, 1, 8712
3, 33508, Pitch_bend_c, 1, 8192
3, 33520, Pitch_bend_c, 1, 8192
3, 33532, Pitch_bend_c, 1, 8192
3, 33543, Pitch_bend_c, 1, 8192
3, 34412, Note_on_c, 1, 34, 89
3, 34487, Note_on_c, 1, 34, 0
3, 34565, Note_on_c, 1, 34, 82
3, 34566, Note_on_c, 1, 46, 0
3, 35374, Note_on_c, 1, 43, 50
3, 35415, Note_on_c, 1, 43, 0
3, 35828, Note_on_c, 1, 48, 123
3, 35937, Note_on_c, 1, 48, 0
3, 36014, Note_on_c, 1, 46, 88
3, 36376, Note_on_c, 1, 34, 0
3, 36890, Note_on_c, 1, 46, 0
3, 36943, Note_on_c, 1, 34, 85
3, 38222, Note_on_c, 1, 51, 101
3, 38352, Note_on_c, 1, 51, 0
3, 38364, Note_on_c, 1, 34, 0
3, 38379, Note_on_c, 1, 50, 88
3, 38814, Note_on_c, 1, 50, 0
3, 38869, Note_on_c, 1, 45, 62
3, 39194, Note_on_c, 1, 37, 53
3, 39243, Note_on_c, 1, 45, 0
3, 39272, Note_on_c, 1, 37, 0
3, 39339, Note_on_c, 1, 38, 54
3, 40201, Note_on_c, 1, 37, 43
3, 40276, Note_on_c, 1, 37, 0
3, 40318, Note_on_c, 1, 38, 0
3, 40321, Note_on_c, 1, 43, 67
3, 40421, Note_on_c, 1, 43, 0
3, 40647, Note_on_c, 1, 50, 102
3, 41614, Note_on_c, 1, 37, 50
3, 41652, Note_on_c, 1, 37, 0
3, 41707, Note_on_c, 1, 50, 0
3, 41746, Note_on_c, 1, 44, 75
3, 41849, Note_on_c, 1, 44, 0
3, 42081, Note_on_c, 1, 50, 98
3, 42185, Note_on_c, 1, 50, 0
3, 42254, Note_on_c, 1, 45, 55
3, 42468, Note_on_c, 1, 45, 0
3, 42719, Note_on_c, 1, 50, 89
3, 43057, Note_on_c, 1, 37, 50
3, 43098, Note_on_c, 1, 50, 0
3, 43142, Note_on_c, 1, 37, 0
3, 43197, Note_on_c, 1, 38, 73
3, 44010, Note_on_c, 1, 50, 98
3, 44112, Note_on_c, 1, 50, 0
3, 44161, Note_on_c, 1, 38, 0
3, 44202, Note_on_c, 1, 47, 60
3, 44381, Note_on_c, 1, 47, 0
3, 44498, Note_on_c, 1, 38, 47
3, 44553, Note_on_c, 1, 38, 0
3, 44647, Note_on_c, 1, 50, 92
3, 45439, Note_on_c, 1, 50, 0
3, 45455, Note_on_c, 1, 38, 72
3, 45521, Note_on_c, 1, 38, 0
3, 45608, Note_on_c, 1, 40, 75
3, 45658, Note_on_c, 1, 40, 0
3, 45944, Note_on_c, 1, 41, 97
3, 45981, Note_on_c, 1, 41, 0
3, 46048, Note_on_c, 1, 43, 53
3, 46149, Note_on_c, 1, 41, 80
3, 46151, Note_on_c, 1, 43, 0
3, 46852, Note_on_c, 1, 32, 55
3, 46959, Note_on_c, 1, 41, 0
3, 46962, Note_on_c, 1, 32, 0
3, 47010, Note_on_c, 1, 36, 80
3, 47706, Note_on_c, 1, 34, 68
3, 47725, Note_on_c, 1, 36, 0
3, 47793, Note_on_c, 1, 34, 0
3, 47824, Note_on_c, 1, 35, 75
3, 47964, Note_on_c, 1, 35, 0
3, 47986, Note_on_c, 1, 36, 89
3, 48338, Note_on_c, 1, 34, 58
3, 48440, Note_on_c, 1, 36, 0
3, 48463, Note_on_c, 1, 50, 112
3, 48488, Note_on_c, 1, 34, 0
3, 48881, Note_on_c, 1, 50, 0
3, 48924, Note_on_c, 1, 48, 82
3, 49284, Note_on_c, 1, 43, 84
3, 49353, Note_on_c, 1, 43, 0
3, 49370, Note_on_c, 1, 48, 0
3, 49408, Note_on_c, 1, 42, 74
3, 49799, Note_on_c, 1, 39, 53
3, 49859, Note_on_c, 1, 42, 0
3, 49886, Note_on_c, 1, 39, 0
3, 49921, Note_on_c, 1, 41, 82
3, 50868, Note_on_c, 1, 41, 0
3, 50887, Note_on_c, 1, 34, 82
3, 51833, Note_on_c, 1, 31, 74
3, 51834, Note_on_c, 1, 34, 0
3, 52670, Note_on_c, 1, 49, 97
3, 52726, Note_on_c, 1, 31, 0
3, 52806, Note_on_c, 1, 49, 0
3, 52827, Note_on_c, 1, 48, 84
3, 52960, Note_on_c, 1, 48, 0
3, 53157, Note_on_c, 1, 43, 88
3, 53249, Note_on_c, 1, 43, 0
3, 53740, Note_on_c, 1, 41, 73
3, 54739, Note_on_c, 1, 32, 81
3, 54745, Note_on_c, 1, 41, 0
3, 55434, Note_on_c, 1, 32, 0
3, 55511, Note_on_c, 1, 33, 79
3, 55617, Note_on_c, 1, 33, 0
3, 55666, Note_on_c, 1, 34, 73
3, 56628, Note_on_c, 1, 46, 93
3, 56638, Note_on_c, 1, 34, 0
3, 56771, Note_on_c, 1, 46, 0
3, 56971, Note_on_c, 1, 34, 48
3, 57078, Note_on_c, 1, 34, 0
3, 57139, Note_on_c, 1, 38, 69
3, 57592, Note_on_c, 1, 38, 0
3, 57614, Note_on_c, 1, 39, 117
3, 57784, Note_on_c, 1, 39, 0
3, 60377, Note_on_c, 1, 43, 112
3, 60490, Note_on_c, 1, 43, 0
3, 60856, Note_on_c, 1, 35, 80
3, 60951, Note_on_c, 1, 35, 0
3, 60998, Note_on_c, 1, 36, 75
3, 61318, Note_on_c, 1, 42, 98
3, 61334, Note_on_c, 1, 36, 0
3, 61437, Note_on_c, 1, 42, 0
3, 61467, Note_on_c, 1, 41, 78
3, 61507, Note_on_c, 1, 41, 0
3, 61787, Note_on_c, 1, 33, 71
3, 61867, Note_on_c, 1, 33, 0
3, 61902, Note_on_c, 1, 33, 62
3, 62350, Note_on_c, 1, 33, 0
3, 62359, Note_on_c, 1, 34, 74
3, 62707, Note_on_c, 1, 32, 58
3, 62813, Note_on_c, 1, 34, 0
3, 62835, Note_on_c, 1, 32, 0
3, 62843, Note_on_c, 1, 37, 82
3, 63156, Note_on_c, 1, 37, 0
3, 63188, Note_on_c, 1, 38, 76
3, 63249, Note_on_c, 1, 38, 0
3, 63327, Note_on_c, 1, 39, 74
3, 63690, Note_on_c, 1, 34, 43
3, 63749, Note_on_c, 1, 39, 0
3, 63772, Note_on_c, 1, 34, 0
3, 63789, Note_on_c, 1, 41, 76
3, 64253, Note_on_c, 1, 41, 0
3, 64283, Note_on_c, 1, 43, 77
3, 64700, Note_on_c, 1, 43, 0
3, 64770, Note_on_c, 1, 40, 61
3, 65130, Note_on_c, 1, 36, 72
3, 65165, Note_on_c, 1, 36, 0
3, 65211, Note_on_c, 1, 40, 0
3, 65251, Note_on_c, 1, 41, 79
3, 65318, Note_on_c, 1, 41, 0
3, 65584, Note_on_c, 1, 36, 72
3, 65650, Note_on_c, 1, 36, 0
3, 65704, Note_on_c, 1, 33, 82
3, 66179, Note_on_c, 1, 33, 0
3, 66201, Note_on_c, 1, 34, 68
3, 66691, Note_on_c, 1, 36, 76
3, 66697, Note_on_c, 1, 34, 0
3, 67025, Note_on_c, 1, 38, 71
3, 67060, Note_on_c, 1, 36, 0
3, 67108, Note_on_c, 1, 38, 0
3, 67171, Note_on_c, 1, 39, 70
3, 67565, Note_on_c, 1, 39, 0
3, 67656, Note_on_c, 1, 39, 79
3, 68068, Note_on_c, 1, 39, 0
3, 68135, Note_on_c, 1, 46, 79
3, 68524, Note_on_c, 1, 34, 43
3, 68539, Note_on_c, 1, 46, 0
3, 68613, Note_on_c, 1, 46, 86
3, 68631, Note_on_c, 1, 34, 0
3, 69035, Note_on_c, 1, 46, 0
3, 69078, Note_on_c, 1, 45, 80
3, 69577, Note_on_c, 1, 45, 0
3, 69584, Note_on_c, 1, 37, 75
3, 70047, Note_on_c, 1, 37, 0
3, 70055, Note_on_c, 1, 38, 78
3, 70423, Note_on_c, 1, 37, 51
3, 70503, Note_on_c, 1, 37, 0
3, 70512, Note_on_c, 1, 38, 0
3, 70545, Note_on_c, 1, 54, 83
3, 70968, Note_on_c, 1, 54, 0
3, 71021, Note_on_c, 1, 55, 88
3, 71464, Note_on_c, 1, 55, 0
3, 71500, Note_on_c, 1, 47, 68
3, 71972, Note_on_c, 1, 47, 0
3, 71987, Note_on_c, 1, 50, 76
3, 72450, Note_on_c, 1, 50, 0
3, 72469, Note_on_c, 1, 40, 74
3, 72952, Note_on_c, 1, 40, 0
3, 72964, Note_on_c, 1, 45, 75
3, 73426, Note_on_c, 1, 45, 0
3, 73438, Note_on_c, 1, 36, 89
3, 73884, Note_on_c, 1, 36, 0
3, 73930, Note_on_c, 1, 38, 79
3, 74365, Note_on_c, 1, 38, 0
3, 74376, Note_on_c, 1, 30, 96
3, 74859, Note_on_c, 1, 30, 0
3, 74874, Note_on_c, 1, 31, 86
3, 75355, Note_on_c, 1, 33, 101
3, 75395, Note_on_c, 1, 31, 0
3, 75834, Note_on_c, 1, 35, 84
3, 75851, Note_on_c, 1, 33, 0
3, 76185, Note_on_c, 1, 33, 65
3, 76269, Note_on_c, 1, 35, 0
3, 76292, Note_on_c, 1, 33, 0
3, 76300, Note_on_c, 1, 38, 81
3, 76645, Note_on_c, 1, 33, 67
3, 76710, Note_on_c, 1, 33, 0
3, 76743, Note_on_c, 1, 38, 0
3, 76784, Note_on_c, 1, 43, 81
3, 77282, Note_on_c, 1, 45, 84
3, 77285, Note_on_c, 1, 43, 0
3, 77601, Note_on_c, 1, 43, 63
3, 77646, Note_on_c, 1, 43, 0
3, 77670, Note_on_c, 1, 45, 0
3, 77736, Note_on_c, 1, 46, 76
3, 78215, Note_on_c, 1, 46, 0
3, 78244, Note_on_c, 1, 43, 80
3, 78703, Note_on_c, 1, 43, 0
3, 78717, Note_on_c, 1, 42, 68
3, 79185, Note_on_c, 1, 42, 0
3, 79192, Note_on_c, 1, 48, 109
3, 79582, Note_on_c, 1, 48, 0
3, 79663, Note_on_c, 1, 39, 70
3, 80142, Note_on_c, 1, 42, 85
3, 80169, Note_on_c, 1, 39, 0
3, 80445, Note_on_c, 1, 42, 0
3, 80489, Note_on_c, 1, 40, 53
3, 80563, Note_on_c, 1, 40, 0
3, 80632, Note_on_c, 1, 41, 84
3, 80736, Control_c, 1, 1, 4
3, 80739, Control_c, 1, 1, 6
3, 80742, Control_c, 1, 1, 8
3, 80746, Control_c, 1, 1, 10
3, 80749, Control_c, 1, 1, 13
3, 80751, Control_c, 1, 1, 15
3, 80755, Control_c, 1, 1, 17
3, 80758, Control_c, 1, 1, 20
3, 80761, Control_c, 1, 1, 22
3, 80765, Control_c, 1, 1, 24
3, 80768, Control_c, 1, 1, 27
3, 80771, Control_c, 1, 1, 29
3, 80774, Control_c, 1, 1, 31
3, 80776, Control_c, 1, 1, 33
3, 80780, Control_c, 1, 1, 35
3, 80783, Control_c, 1, 1, 37
3, 80786, Control_c, 1, 1, 39
3, 80790, Control_c, 1, 1, 41
3, 80793, Control_c, 1, 1, 43
3, 80796, Control_c, 1, 1, 46
3, 80799, Control_c, 1, 1, 48
3, 80801, Control_c, 1, 1, 50
3, 80805, Control_c, 1, 1, 53
3, 80808, Control_c, 1, 1, 55
3, 80811, Control_c, 1, 1, 58
3, 80815, Control_c, 1, 1, 60
3, 80818, Control_c, 1, 1, 62
3, 80821, Control_c, 1, 1, 65
3, 80823, Control_c, 1, 1, 67
3, 80826, Control_c, 1, 1, 69
3, 80830, Control_c, 1, 1, 72
3, 80833, Control_c, 1, 1, 74
3, 80836, Control_c, 1, 1, 76
3, 80839, Control_c, 1, 1, 78
3, 80842, Control_c, 1, 1, 80
3, 80846, Control_c, 1, 1, 82
3, 80848, Control_c, 1, 1, 84
3, 80851, Control_c, 1, 1, 86
3, 80855, Control_c, 1, 1, 88
3, 80858, Control_c, 1, 1, 90
3, 80861, Control_c, 1, 1, 91
3, 80864, Control_c, 1, 1, 93
3, 80867, Control_c, 1, 1, 94
3, 80870, Control_c, 1, 1, 96
3, 80873, Control_c, 1, 1, 97
3, 80876, Control_c, 1, 1, 99
3, 80880, Control_c, 1, 1, 100
3, 80883, Control_c, 1, 1, 101
3, 80886, Control_c, 1, 1, 102
3, 80889, Control_c, 1, 1, 104
3, 80891, Control_c, 1, 1, 105
3, 80901, Control_c, 1, 1, 107
3, 80904, Control_c, 1, 1, 108
3, 80913, Control_c, 1, 1, 109
3, 80936, Control_c, 1, 1, 107
3, 80939, Control_c, 1, 1, 106
3, 80948, Control_c, 1, 1, 103
3, 80951, Control_c, 1, 1, 101
3, 80954, Control_c, 1, 1, 99
3, 80957, Control_c, 1, 1, 98
3, 80959, Control_c, 1, 1, 96
3, 80963, Control_c, 1, 1, 94
3, 80966, Control_c, 1, 1, 91
3, 80969, Control_c, 1, 1, 89
3, 80973, Control_c, 1, 1, 87
3, 80976, Control_c, 1, 1, 84
3, 80979, Control_c, 1, 1, 81
3, 80982, Control_c, 1, 1, 78
3, 80984, Control_c, 1, 1, 74
3, 80988, Control_c, 1, 1, 70
3, 80991, Control_c, 1, 1, 66
3, 80994, Control_c, 1, 1, 62
3, 80998, Control_c, 1, 1, 57
3, 81001, Control_c, 1, 1, 53
3, 81004, Control_c, 1, 1, 47
3, 81008, Control_c, 1, 1, 42
3, 81010, Control_c, 1, 1, 37
3, 81014, Control_c, 1, 1, 32
3, 81017, Control_c, 1, 1, 27
3, 81020, Control_c, 1, 1, 21
3, 81023, Control_c, 1, 1, 16
3, 81026, Control_c, 1, 1, 10
3, 81029, Control_c, 1, 1, 5
3, 81033, Control_c, 1, 1, 1
3, 81101, Note_on_c, 1, 41, 0
3, 81442, Note_on_c, 1, 39, 80
3, 81579, Note_on_c, 1, 39, 0
3, 81608, Note_on_c, 1, 36, 80
3, 82054, Note_on_c, 1, 36, 0
3, 82058, Note_on_c, 1, 33, 72
3, 82552, Note_on_c, 1, 34, 80
3, 82555, Note_on_c, 1, 33, 0
3, 82831, Note_on_c, 1, 34, 0
3, 82882, Note_on_c, 1, 34, 81
3, 82993, Note_on_c, 1, 34, 0
3, 83008, Note_on_c, 1, 36, 97
3, 83500, Note_on_c, 1, 37, 93
3, 83515, Note_on_c, 1, 36, 0
3, 83854, Note_on_c, 1, 34, 58
3, 83887, Note_on_c, 1, 34, 0
3, 83932, Note_on_c, 1, 37, 0
3, 83976, Note_on_c, 1, 38, 78
3, 84412, Note_on_c, 1, 38, 0
3, 84462, Note_on_c, 1, 39, 78
3, 84940, Note_on_c, 1, 55, 84
3, 85030, Note_on_c, 1, 39, 0
3, 85282, Note_on_c, 1, 39, 61
3, 85345, Note_on_c, 1, 55, 0
3, 85359, Note_on_c, 1, 39, 0
3, 85422, Note_on_c, 1, 54, 74
3, 85887, Note_on_c, 1, 54, 0
3, 85901, Note_on_c, 1, 38, 86
3, 86361, Note_on_c, 1, 38, 0
3, 86368, Note_on_c, 1, 37, 77
3, 86757, Note_on_c, 1, 49, 45
3, 86822, Note_on_c, 1, 49, 0
3, 86873, Note_on_c, 1, 53, 86
3, 87319, Note_on_c, 1, 53, 0
3, 87367, Note_on_c, 1, 52, 80
3, 87388, Note_on_c, 1, 37, 0
3, 87702, Note_on_c, 1, 35, 75
3, 87703, Note_on_c, 1, 52, 0
3, 87817, Note_on_c, 1, 35, 0
3, 87846, Note_on_c, 1, 36, 75
3, 88183, Note_on_c, 1, 34, 71
3, 88234, Note_on_c, 1, 36, 0
3, 88289, Note_on_c, 1, 34, 0
3, 88329, Note_on_c, 1, 41, 76
3, 88654, Note_on_c, 1, 36, 79
3, 88690, Note_on_c, 1, 41, 0
3, 88715, Note_on_c, 1, 36, 0
3, 88784, Note_on_c, 1, 32, 76
3, 89269, Note_on_c, 1, 32, 0
3, 89284, Note_on_c, 1, 36, 87
3, 89631, Note_on_c, 1, 36, 0
3, 89633, Note_on_c, 1, 32, 73
3, 89714, Note_on_c, 1, 32, 0
3, 89770, Note_on_c, 1, 33, 83
3, 90231, Note_on_c, 1, 33, 0
3, 90256, Note_on_c, 1, 34, 79
3, 90722, Note_on_c, 1, 46, 87
3, 90734, Note_on_c, 1, 34, 0
3, 91069, Note_on_c, 1, 34, 48
3, 91144, Note_on_c, 1, 46, 0
3, 91183, Note_on_c, 1, 34, 0
3, 91196, Note_on_c, 1, 46, 89
3, 91581, Note_on_c, 1, 37, 43
3, 91611, Note_on_c, 1, 46, 0
3, 91652, Note_on_c, 1, 37, 0
3, 91677, Note_on_c, 1, 46, 71
3, 92058, Note_on_c, 1, 40, 65
3, 92060, Note_on_c, 1, 46, 0
3, 92088, Note_on_c, 1, 40, 0
3, 92185, Note_on_c, 1, 46, 75
3, 92504, Note_on_c, 1, 41, 71
3, 92571, Note_on_c, 1, 41, 0
3, 92622, Note_on_c, 1, 46, 0
3, 92641, Note_on_c, 1, 34, 71
3, 92983, Note_on_c, 1, 41, 50
3, 93033, Note_on_c, 1, 41, 0
3, 93108, Note_on_c, 1, 53, 95
3, 93460, Note_on_c, 1, 34, 0
3, 93471, Note_on_c, 1, 41, 43
3, 93524, Note_on_c, 1, 53, 0
3, 93584, Note_on_c, 1, 41, 0
3, 93604, Note_on_c, 1, 50, 84
3, 93950, Note_on_c, 1, 41, 53
3, 93999, Note_on_c, 1, 50, 0
3, 94000, Note_on_c, 1, 41, 0
3, 94083, Note_on_c, 1, 51, 75
3, 94398, Note_on_c, 1, 39, 56
3, 94456, Note_on_c, 1, 39, 0
3, 94508, Note_on_c, 1, 51, 0
3, 94553, Note_on_c, 1, 43, 63
3, 94847, Note_on_c, 1, 37, 64
3, 94922, Note_on_c, 1, 37, 0
3, 94955, Note_on_c, 1, 43, 0
3, 95006, Note_on_c, 1, 48, 76
3, 95351, Note_on_c, 1, 36, 97
3, 95394, Note_on_c, 1, 48, 0
3, 95847, Note_on_c, 1, 34, 51
3, 95847, Note_on_c, 1, 40, 68
3, 95887, Note_on_c, 1, 40, 0
3, 95933, Note_on_c, 1, 36, 0
3, 95966, Note_on_c, 1, 34, 0
3, 95998, Note_on_c, 1, 41, 80
3, 96231, Note_on_c, 1, 41, 0
3, 96346, Note_on_c, 1, 36, 69
3, 96420, Note_on_c, 1, 36, 0
3, 96461, Note_on_c, 1, 32, 82
3, 96982, Note_on_c, 1, 34, 79
3, 96997, Note_on_c, 1, 32, 0
3, 97452, Note_on_c, 1, 46, 85
3, 97540, Note_on_c, 1, 34, 0
3, 97816, Note_on_c, 1, 34, 48
3, 97868, Note_on_c, 1, 46, 0
3, 97921, Note_on_c, 1, 34, 0
3, 97934, Note_on_c, 1, 51, 80
3, 98316, Note_on_c, 1, 39, 45
3, 98333, Note_on_c, 1, 51, 0
3, 98401, Note_on_c, 1, 39, 0
3, 98410, Note_on_c, 1, 51, 77
3, 98774, Note_on_c, 1, 39, 47
3, 98826, Note_on_c, 1, 39, 0
3, 98891, Note_on_c, 1, 51, 0
3, 98904, Note_on_c, 1, 46, 74
3, 99377, Note_on_c, 1, 34, 81
3, 99386, Note_on_c, 1, 46, 0
3, 99851, Note_on_c, 1, 33, 76
3, 99860, Note_on_c, 1, 34, 0
3, 100175, Note_on_c, 1, 34, 46
3, 100263, Note_on_c, 1, 34, 0
3, 100323, Note_on_c, 1, 45, 80
3, 100332, Note_on_c, 1, 33, 0
3, 100660, Note_on_c, 1, 37, 50
3, 100747, Note_on_c, 1, 37, 0
3, 100796, Note_on_c, 1, 45, 0
3, 100801, Note_on_c, 1, 38, 64
3, 101130, Note_on_c, 1, 37, 56
3, 101265, Note_on_c, 1, 54, 78
3, 101272, Note_on_c, 1, 37, 0
3, 101327, Note_on_c, 1, 38, 0
3, 101693, Note_on_c, 1, 54, 0
3, 101753, Note_on_c, 1, 55, 78
3, 102154, Note_on_c, 1, 55, 0
3, 102244, Note_on_c, 1, 47, 50
3, 102586, Note_on_c, 1, 39, 55
3, 102658, Note_on_c, 1, 39, 0
3, 102707, Note_on_c, 1, 52, 92
3, 102732, Note_on_c, 1, 47, 0
3, 103070, Note_on_c, 1, 40, 58
3, 103107, Note_on_c, 1, 40, 0
3, 103142, Note_on_c, 1, 52, 0
3, 103189, Note_on_c, 1, 44, 74
3, 103523, Note_on_c, 1, 40, 59
3, 103558, Note_on_c, 1, 40, 0
3, 103612, Note_on_c, 1, 44, 0
3, 103658, Note_on_c, 1, 45, 62
3, 104114, Note_on_c, 1, 45, 0
3, 104132, Note_on_c, 1, 40, 79
3, 104548, Note_on_c, 1, 40, 0
3, 104652, Note_on_c, 1, 38, 67
3, 104994, Note_on_c, 1, 37, 47
3, 105070, Note_on_c, 1, 37, 0
3, 105112, Note_on_c, 1, 50, 90
3, 105116, Note_on_c, 1, 38, 0
3, 105405, Note_on_c, 1, 50, 0
3, 105450, Note_on_c, 1, 46, 77
3, 105543, Note_on_c, 1, 46, 0
3, 105588, Note_on_c, 1, 47, 64
3, 105668, Note_on_c, 1, 47, 0
3, 105925, Note_on_c, 1, 44, 69
3, 105959, Note_on_c, 1, 43, 57
3, 105995, Note_on_c, 1, 43, 0
3, 105996, Note_on_c, 1, 44, 0
3, 106064, Note_on_c, 1, 43, 65
3, 106500, Note_on_c, 1, 43, 0
3, 106541, Note_on_c, 1, 38, 72
3, 106963, Note_on_c, 1, 38, 0
3, 107031, Note_on_c, 1, 30, 77
3, 107490, Note_on_c, 1, 30, 0
3, 107506, Note_on_c, 1, 29, 65
3, 107997, Note_on_c, 1, 36, 80
3, 108134, Note_on_c, 1, 29, 0
3, 108379, Note_on_c, 1, 34, 39
3, 108485, Note_on_c, 1, 41, 70
3, 108507, Note_on_c, 1, 36, 0
3, 108790, Note_on_c, 1, 34, 0
3, 108843, Note_on_c, 1, 36, 67
3, 108905, Note_on_c, 1, 36, 0
3, 108922, Note_on_c, 1, 41, 0
3, 108959, Note_on_c, 1, 50, 93
3, 109400, Note_on_c, 1, 50, 0
3, 109432, Note_on_c, 1, 48, 72
3, 109859, Note_on_c, 1, 48, 0
3, 109907, Note_on_c, 1, 43, 64
3, 110380, Note_on_c, 1, 43, 0
3, 110393, Note_on_c, 1, 39, 65
3, 110843, Note_on_c, 1, 39, 0
3, 110865, Note_on_c, 1, 40, 75
3, 111313, Note_on_c, 1, 40, 0
3, 111342, Note_on_c, 1, 41, 67
3, 111752, Note_on_c, 1, 39, 36
3, 111838, Note_on_c, 1, 48, 89
3, 111845, Note_on_c, 1, 41, 0
3, 111885, Note_on_c, 1, 39, 0
3, 112301, Note_on_c, 1, 48, 0
3, 112342, Note_on_c, 1, 46, 69
3, 113150, Note_on_c, 1, 46, 0
3, 113183, Note_on_c, 1, 42, 76
3, 113268, Note_on_c, 1, 42, 0
3, 113329, Note_on_c, 1, 43, 81
3, 113382, Note_on_c, 1, 43, 0
3, 113665, Note_on_c, 1, 38, 68
3, 113730, Note_on_c, 1, 38, 0
3, 113788, Note_on_c, 1, 34, 66
3, 114225, Note_on_c, 1, 36, 73
3, 114231, Note_on_c, 1, 34, 0
3, 114695, Note_on_c, 1, 36, 0
3, 114734, Note_on_c, 1, 30, 70
3, 115166, Note_on_c, 1, 30, 0
3, 115261, Note_on_c, 1, 29, 47
3, 115580, Note_on_c, 1, 36, 59
3, 115660, Note_on_c, 1, 36, 0
3, 115670, Note_on_c, 1, 29, 0
3, 115714, Note_on_c, 1, 44, 94
3, 116169, Note_on_c, 1, 44, 0
3, 116178, Note_on_c, 1, 41, 70
3, 116579, Note_on_c, 1, 41, 0
3, 116620, Note_on_c, 1, 36, 73
3, 117088, Note_on_c, 1, 36, 0
3, 117107, Note_on_c, 1, 34, 66
3, 117594, Note_on_c, 1, 46, 95
3, 117997, Note_on_c, 1, 46, 0
3, 118078, Note_on_c, 1, 46, 86
3, 118181, Note_on_c, 1, 34, 0
3, 118576, Note_on_c, 1, 34, 74
3, 118577, Note_on_c, 1, 46, 0
3, 119051, Note_on_c, 1, 46, 87
3, 119068, Note_on_c, 1, 34, 0
3, 119380, Note_on_c, 1, 46, 0
3, 119514, Note_on_c, 1, 46, 91
3, 119986, Note_on_c, 1, 34, 70
3, 120006, Note_on_c, 1, 46, 0
3, 120484, Note_on_c, 1, 46, 89
3, 120529, Note_on_c, 1, 34, 0
3, 120791, Note_on_c, 1, 46, 0
3, 120990, Note_on_c, 1, 46, 87
3, 121341, Note_on_c, 1, 43, 84
3, 121406, Note_on_c, 1, 46, 0
3, 121456, Note_on_c, 1, 43, 0
3, 121487, Note_on_c, 1, 42, 68
3, 121894, Note_on_c, 1, 42, 0
3, 121944, Note_on_c, 1, 48, 93
3, 122396, Note_on_c, 1, 40, 72
3, 122398, Note_on_c, 1, 48, 0
3, 122826, Note_on_c, 1, 40, 0
3, 122860, Note_on_c, 1, 41, 75
3, 123338, Note_on_c, 1, 41, 0
3, 123356, Note_on_c, 1, 36, 74
3, 123821, Note_on_c, 1, 36, 0
3, 123831, Note_on_c, 1, 34, 70
3, 124213, Note_on_c, 1, 37, 43
3, 124258, Note_on_c, 1, 37, 0
3, 124333, Note_on_c, 1, 46, 82
3, 124367, Note_on_c, 1, 34, 0
3, 124666, Note_on_c, 1, 34, 58
3, 124739, Note_on_c, 1, 34, 0
3, 124796, Note_on_c, 1, 46, 0
3, 124806, Note_on_c, 1, 43, 70
3, 125146, Note_on_c, 1, 38, 66
3, 125189, Note_on_c, 1, 38, 0
3, 125215, Note_on_c, 1, 43, 0
3, 125277, Note_on_c, 1, 35, 84
3, 125725, Note_on_c, 1, 35, 0
3, 125764, Note_on_c, 1, 36, 72
3, 126210, Note_on_c, 1, 36, 0
3, 126224, Note_on_c, 1, 30, 87
3, 126731, Note_on_c, 1, 29, 65
3, 126764, Note_on_c, 1, 30, 0
3, 127101, Note_on_c, 1, 36, 52
3, 127162, Note_on_c, 1, 36, 0
3, 127210, Note_on_c, 1, 53, 89
3, 127224, Note_on_c, 1, 29, 0
3, 127636, Note_on_c, 1, 53, 0
3, 127680, Note_on_c, 1, 50, 75
3, 128104, Note_on_c, 1, 50, 0
3, 128175, Note_on_c, 1, 41, 51
3, 128510, Note_on_c, 1, 39, 52
3, 128570, Note_on_c, 1, 39, 0
3, 128573, Note_on_c, 1, 41, 0
3, 128637, Note_on_c, 1, 51, 77
3, 129054, Note_on_c, 1, 51, 0
3, 129098, Note_on_c, 1, 46, 75
3, 129569, Note_on_c, 1, 46, 0
3, 129583, Note_on_c, 1, 43, 66
3, 130057, Note_on_c, 1, 39, 72
3, 130062, Note_on_c, 1, 43, 0
3, 130536, Note_on_c, 1, 39, 0
3, 130540, Note_on_c, 1, 38, 67
3, 131019, Note_on_c, 1, 50, 83
3, 131052, Note_on_c, 1, 38, 0
3, 131366, Note_on_c, 1, 37, 55
3, 131435, Note_on_c, 1, 37, 0
3, 131465, Note_on_c, 1, 50, 0
3, 131500, Note_on_c, 1, 44, 75
3, 131930, Note_on_c, 1, 44, 0
3, 131974, Note_on_c, 1, 32, 75
3, 132474, Note_on_c, 1, 32, 0
3, 132485, Note_on_c, 1, 31, 81
3, 132815, Note_on_c, 1, 38, 58
3, 132868, Note_on_c, 1, 38, 0
3, 132929, Note_on_c, 1, 31, 0
3, 132958, Note_on_c, 1, 47, 74
3, 133310, Note_on_c, 1, 39, 58
3, 133372, Note_on_c, 1, 39, 0
3, 133413, Note_on_c, 1, 47, 0
3, 133445, Note_on_c, 1, 40, 70
3, 133781, Note_on_c, 1, 39, 57
3, 133889, Note_on_c, 1, 40, 0
3, 133891, Note_on_c, 1, 39, 0
3, 133911, Note_on_c, 1, 46, 74
3, 134259, Note_on_c, 1, 39, 43
3, 134287, Note_on_c, 1, 39, 0
3, 134367, Note_on_c, 1, 46, 0
3, 134381, Note_on_c, 1, 45, 66
3, 134821, Note_on_c, 1, 45, 0
3, 134858, Note_on_c, 1, 51, 82
3, 135289, Note_on_c, 1, 51, 0
3, 135347, Note_on_c, 1, 50, 77
3, 135803, Note_on_c, 1, 50, 0
3, 135840, Note_on_c, 1, 38, 81
3, 136323, Note_on_c, 1, 45, 84
3, 136346, Note_on_c, 1, 38, 0
3, 136672, Note_on_c, 1, 38, 72
3, 136703, Note_on_c, 1, 38, 0
3, 136743, Note_on_c, 1, 45, 0
3, 136802, Note_on_c, 1, 44, 75
3, 137229, Note_on_c, 1, 44, 0
3, 137283, Note_on_c, 1, 43, 72
3, 137755, Note_on_c, 1, 32, 70
3, 137773, Note_on_c, 1, 43, 0
3, 138237, Note_on_c, 1, 32, 0
3, 138260, Note_on_c, 1, 31, 64
3, 138700, Note_on_c, 1, 31, 0
3, 138708, Note_on_c, 1, 33, 86
3, 139159, Note_on_c, 1, 33, 0
3, 139187, Note_on_c, 1, 34, 66
3, 139537, Note_on_c, 1, 32, 45
3, 139660, Note_on_c, 1, 38, 66
3, 139664, Note_on_c, 1, 34, 0
3, 139665, Note_on_c, 1, 32, 0
3, 140160, Note_on_c, 1, 42, 74
3, 140236, Note_on_c, 1, 38, 0
3, 140611, Note_on_c, 1, 42, 0
3, 140630, Note_on_c, 1, 39, 68
3, 140975, Note_on_c, 1, 42, 47
3, 141028, Note_on_c, 1, 39, 0
3, 141035, Note_on_c, 1, 42, 0
3, 141097, Note_on_c, 1, 45, 82
3, 141578, Note_on_c, 1, 45, 0
3, 141581, Note_on_c, 1, 40, 78
3, 142060, Note_on_c, 1, 40, 0
3, 142082, Note_on_c, 1, 41, 57
3, 142341, Note_on_c, 1, 41, 0
3, 142428, Note_on_c, 1, 41, 75
3, 142487, Note_on_c, 1, 41, 0
3, 142552, Note_on_c, 1, 43, 69
3, 142984, Note_on_c, 1, 43, 0
3, 143022, Note_on_c, 1, 44, 73
3, 143375, Note_on_c, 1, 41, 55
3, 143414, Note_on_c, 1, 41, 0
3, 143459, Note_on_c, 1, 44, 0
3, 143493, Note_on_c, 1, 45, 75
3, 143884, Note_on_c, 1, 41, 40
3, 143912, Note_on_c, 1, 41, 0
3, 143928, Note_on_c, 1, 45, 0
3, 143981, Note_on_c, 1, 46, 53
3, 144339, Note_on_c, 1, 41, 54
3, 144378, Note_on_c, 1, 41, 0
3, 144419, Note_on_c, 1, 46, 0
3, 144464, Note_on_c, 1, 55, 97
3, 144885, Note_on_c, 1, 55, 0
3, 144940, Note_on_c, 1, 53, 75
3, 145356, Note_on_c, 1, 53, 0
3, 145433, Note_on_c, 1, 50, 68
3, 145845, Note_on_c, 1, 50, 0
3, 145905, Note_on_c, 1, 51, 67
3, 146366, Note_on_c, 1, 51, 0
3, 146380, Note_on_c, 1, 39, 58
3, 146834, Note_on_c, 1, 39, 0
3, 146865, Note_on_c, 1, 38, 66
3, 147246, Note_on_c, 1, 37, 43
3, 147334, Note_on_c, 1, 38, 0
3, 147346, Note_on_c, 1, 50, 93
3, 147365, Note_on_c, 1, 37, 0
3, 147763, Note_on_c, 1, 50, 0
3, 147822, Note_on_c, 1, 49, 69
3, 148179, Note_on_c, 1, 34, 50
3, 148235, Note_on_c, 1, 49, 0
3, 148270, Note_on_c, 1, 34, 0
3, 148295, Note_on_c, 1, 37, 71
3, 148676, Note_on_c, 1, 34, 51
3, 148701, Note_on_c, 1, 37, 0
3, 148761, Note_on_c, 1, 34, 0
3, 148779, Note_on_c, 1, 36, 68
3, 149172, Note_on_c, 1, 34, 51
3, 149208, Note_on_c, 1, 36, 0
3, 149259, Note_on_c, 1, 34, 0
3, 149274, Note_on_c, 1, 48, 107
3, 149514, Note_on_c, 1, 48, 0
3, 149609, Note_on_c, 1, 40, 79
3, 149620, Note_on_c, 1, 34, 43
3, 149654, Note_on_c, 1, 34, 0
3, 149675, Note_on_c, 1, 40, 0
3, 149736, Note_on_c, 1, 41, 87
3, 149775, Note_on_c, 1, 41, 0
3, 150059, Note_on_c, 1, 41, 92
3, 150100, Note_on_c, 1, 41, 0
3, 150193, Note_on_c, 1, 39, 80
3, 150654, Note_on_c, 1, 39, 0
3, 150684, Note_on_c, 1, 36, 73
3, 151125, Note_on_c, 1, 36, 0
3, 151138, Note_on_c, 1, 33, 85
3, 151608, Note_on_c, 1, 33, 0
3, 151649, Note_on_c, 1, 34, 70
3, 151848, Note_on_c, 1, 34, 0
3, 151987, Note_on_c, 1, 34, 67
3, 152127, Note_on_c, 1, 36, 89
3, 152154, Note_on_c, 1, 34, 0
3, 152594, Note_on_c, 1, 36, 0
3, 152602, Note_on_c, 1, 37, 71
3, 153010, Note_on_c, 1, 34, 36
3, 153062, Note_on_c, 1, 37, 0
3, 153064, Note_on_c, 1, 34, 0
3, 153105, Note_on_c, 1, 38, 80
3, 153415, Note_on_c, 1, 38, 0
3, 153425, Note_on_c, 1, 40, 80
3, 153526, Note_on_c, 1, 40, 0
3, 153585, Note_on_c, 1, 41, 62
3, 153908, Note_on_c, 1, 39, 47
3, 154014, Note_on_c, 1, 39, 0
3, 154067, Note_on_c, 1, 53, 100
3, 154498, Note_on_c, 1, 53, 0
3, 154520, Note_on_c, 1, 50, 66
3, 154528, Note_on_c, 1, 41, 0
3, 154996, Note_on_c, 1, 50, 0
3, 155008, Note_on_c, 1, 44, 64
3, 155358, Note_on_c, 1, 39, 48
3, 155420, Note_on_c, 1, 39, 0
3, 155430, Note_on_c, 1, 44, 0
3, 155491, Note_on_c, 1, 43, 66
3, 155998, Note_on_c, 1, 37, 80
3, 156280, Note_on_c, 1, 43, 0
3, 156346, Note_on_c, 1, 34, 55
3, 156374, Note_on_c, 1, 37, 0
3, 156462, Note_on_c, 1, 34, 0
3, 156471, Note_on_c, 1, 36, 71
3, 156811, Note_on_c, 1, 34, 58
3, 156880, Note_on_c, 1, 36, 0
3, 156957, Note_on_c, 1, 42, 81
3, 156964, Note_on_c, 1, 34, 0
3, 157312, Note_on_c, 1, 36, 48
3, 157352, Note_on_c, 1, 36, 0
3, 157435, Note_on_c, 1, 41, 73
3, 157540, Note_on_c, 1, 42, 0
3, 157911, Note_on_c, 1, 41, 0
3, 157946, Note_on_c, 1, 29, 87
3, 158424, Note_on_c, 1, 29, 0
3, 158431, Note_on_c, 1, 34, 71
3, 158893, Note_on_c, 1, 46, 88
3, 158916, Note_on_c, 1, 34, 0
3, 159249, Note_on_c, 1, 34, 58
3, 159326, Note_on_c, 1, 46, 0
3, 159334, Note_on_c, 1, 34, 0
3, 159369, Note_on_c, 1, 51, 87
3, 159799, Note_on_c, 1, 51, 0
3, 159861, Note_on_c, 1, 43, 59
3, 160216, Note_on_c, 1, 42, 48
3, 160246, Note_on_c, 1, 42, 0
3, 160249, Note_on_c, 1, 43, 0
3, 160326, Note_on_c, 1, 46, 75
3, 160743, Note_on_c, 1, 39, 41
3, 160762, Note_on_c, 1, 46, 0
3, 160787, Note_on_c, 1, 39, 0
3, 160813, Note_on_c, 1, 44, 64
3, 161142, Note_on_c, 1, 39, 47
3, 161173, Note_on_c, 1, 39, 0
3, 161227, Note_on_c, 1, 44, 0
3, 161276, Note_on_c, 1, 45, 73
3, 161725, Note_on_c, 1, 45, 0
3, 161732, Note_on_c, 1, 52, 89
3, 162149, Note_on_c, 1, 52, 0
3, 162219, Note_on_c, 1, 54, 89
3, 162683, Note_on_c, 1, 54, 0
3, 162739, Note_on_c, 1, 38, 57
3, 163089, Note_on_c, 1, 43, 46
3, 163129, Note_on_c, 1, 43, 0
3, 163168, Note_on_c, 1, 38, 0
3, 163219, Note_on_c, 1, 47, 69
3, 163679, Note_on_c, 1, 47, 0
3, 163684, Note_on_c, 1, 40, 83
3, 164130, Note_on_c, 1, 40, 0
3, 164192, Note_on_c, 1, 40, 88
3, 164593, Note_on_c, 1, 40, 0
3, 164650, Note_on_c, 1, 34, 86
3, 165108, Note_on_c, 1, 33, 79
3, 165129, Note_on_c, 1, 34, 0
3, 165602, Note_on_c, 1, 45, 76
3, 165613, Note_on_c, 1, 33, 0
3, 165954, Note_on_c, 1, 38, 54
3, 165991, Note_on_c, 1, 45, 0
3, 165993, Note_on_c, 1, 38, 0
3, 166083, Note_on_c, 1, 44, 75
3, 166518, Note_on_c, 1, 44, 0
3, 166559, Note_on_c, 1, 48, 71
3, 166903, Note_on_c, 1, 42, 64
3, 166932, Note_on_c, 1, 42, 0
3, 166932, Note_on_c, 1, 48, 0
3, 167055, Note_on_c, 1, 50, 70
3, 167496, Note_on_c, 1, 50, 0
3, 167530, Note_on_c, 1, 47, 75
3, 167820, Note_on_c, 1, 38, 45
3, 167855, Note_on_c, 1, 38, 0
3, 167950, Note_on_c, 1, 47, 0
3, 167994, Note_on_c, 1, 43, 53
3, 168463, Note_on_c, 1, 30, 74
3, 168469, Note_on_c, 1, 43, 0
3, 168933, Note_on_c, 1, 30, 0
3, 168947, Note_on_c, 1, 29, 72
3, 169428, Note_on_c, 1, 29, 0
3, 169453, Note_on_c, 1, 31, 82
3, 169905, Note_on_c, 1, 31, 0
3, 169925, Note_on_c, 1, 32, 74
3, 170373, Note_on_c, 1, 32, 0
3, 170392, Note_on_c, 1, 35, 98
3, 170788, Note_on_c, 1, 34, 45
3, 170865, Note_on_c, 1, 34, 0
3, 170866, Note_on_c, 1, 35, 0
3, 170875, Note_on_c, 1, 36, 75
3, 171355, Note_on_c, 1, 38, 91
3, 171420, Note_on_c, 1, 36, 0
3, 171787, Note_on_c, 1, 38, 0
3, 171827, Note_on_c, 1, 39, 75
3, 172310, Note_on_c, 1, 39, 0
3, 172315, Note_on_c, 1, 40, 90
3, 172693, Note_on_c, 1, 39, 41
3, 172782, Note_on_c, 1, 39, 0
3, 172794, Note_on_c, 1, 40, 0
3, 172796, Note_on_c, 1, 41, 82
3, 173275, Note_on_c, 1, 43, 82
3, 173288, Note_on_c, 1, 41, 0
3, 173539, Note_on_c, 1, 43, 0
3, 173597, Note_on_c, 1, 44, 73
3, 173680, Note_on_c, 1, 44, 0
3, 173726, Note_on_c, 1, 46, 78
3, 174195, Note_on_c, 1, 46, 0
3, 174222, Note_on_c, 1, 44, 78
3, 174574, Note_on_c, 1, 39, 53
3, 174644, Note_on_c, 1, 39, 0
3, 174689, Note_on_c, 1, 44, 0
3, 174703, Note_on_c, 1, 43, 72
3, 175080, Note_on_c, 1, 39, 38
3, 175150, Note_on_c, 1, 43, 0
3, 175153, Note_on_c, 1, 39, 0
3, 175184, Note_on_c, 1, 49, 85
3, 175664, Note_on_c, 1, 48, 79
3, 175724, Note_on_c, 1, 49, 0
3, 176158, Note_on_c, 1, 48, 0
3, 176165, Note_on_c, 1, 36, 82
3, 176551, Note_on_c, 1, 34, 43
3, 176609, Note_on_c, 1, 36, 0
3, 176648, Note_on_c, 1, 34, 0
3, 176665, Note_on_c, 1, 41, 80
3, 177115, Note_on_c, 1, 41, 0
3, 177136, Note_on_c, 1, 30, 82
3, 177571, Note_on_c, 1, 30, 0
3, 177605, Note_on_c, 1, 29, 75
3, 178060, Note_on_c, 1, 29, 0
3, 178085, Note_on_c, 1, 33, 86
3, 178481, Note_on_c, 1, 33, 0
3, 178577, Note_on_c, 1, 34, 87
3, 179067, Note_on_c, 1, 47, 98
3, 179104, Note_on_c, 1, 34, 0
3, 179493, Note_on_c, 1, 47, 0
3, 179530, Note_on_c, 1, 46, 77
3, 179919, Note_on_c, 1, 38, 67
3, 179949, Note_on_c, 1, 38, 0
3, 179957, Note_on_c, 1, 46, 0
3, 180025, Note_on_c, 1, 44, 82
3, 180447, Note_on_c, 1, 44, 0
3, 180501, Note_on_c, 1, 43, 69
3, 180940, Note_on_c, 1, 43, 0
3, 180973, Note_on_c, 1, 39, 80
3, 181429, Note_on_c, 1, 39, 0
3, 181458, Note_on_c, 1, 34, 71
3, 181916, Note_on_c, 1, 34, 0
3, 181920, Note_on_c, 1, 32, 85
3, 182324, Note_on_c, 1, 32, 0
3, 182384, Note_on_c, 1, 31, 85
3, 182856, Note_on_c, 1, 37, 87
3, 182875, Note_on_c, 1, 31, 0
3, 183330, Note_on_c, 1, 37, 0
3, 183337, Note_on_c, 1, 36, 73
3, 183700, Note_on_c, 1, 34, 53
3, 183753, Note_on_c, 1, 36, 0
3, 183811, Note_on_c, 1, 34, 0
3, 183816, Note_on_c, 1, 42, 95
3, 184117, Note_on_c, 1, 42, 0
3, 184155, Note_on_c, 1, 40, 74
3, 184234, Note_on_c, 1, 40, 0
3, 184296, Note_on_c, 1, 41, 91
3, 184355, Note_on_c, 1, 41, 0
3, 184653, Note_on_c, 1, 36, 62
3, 184733, Note_on_c, 1, 36, 0
3, 184772, Note_on_c, 1, 29, 84
3, 185219, Note_on_c, 1, 29, 0
3, 185256, Note_on_c, 1, 36, 70
3, 185293, Note_on_c, 1, 36, 0
3, 185596, Note_on_c, 1, 36, 93
3, 185681, Note_on_c, 1, 36, 0
3, 185733, Note_on_c, 1, 34, 80
3, 186199, Note_on_c, 1, 41, 79
3, 186215, Note_on_c, 1, 34, 0
3, 186264, Note_on_c, 1, 41, 0
3, 186283, Note_on_c, 1, 39, 76
3, 186721, Note_on_c, 1, 46, 87
3, 186728, Note_on_c, 1, 39, 0
3, 187087, Note_on_c, 1, 34, 51
3, 187172, Note_on_c, 1, 34, 0
3, 187173, Note_on_c, 1, 46, 0
3, 187217, Note_on_c, 1, 43, 69
3, 187656, Note_on_c, 1, 36, 88
3, 187668, Note_on_c, 1, 43, 0
3, 188159, Note_on_c, 1, 41, 75
3, 188161, Note_on_c, 1, 36, 0
3, 188500, Note_on_c, 1, 36, 68
3, 188550, Note_on_c, 1, 36, 0
3, 188574, Note_on_c, 1, 41, 0
3, 188630, Note_on_c, 1, 48, 84
3, 189062, Note_on_c, 1, 48, 0
3, 189123, Note_on_c, 1, 46, 67
3, 189565, Note_on_c, 1, 46, 0
3, 189575, Note_on_c, 1, 34, 74
3, 190085, Note_on_c, 1, 43, 77
3, 190100, Note_on_c, 1, 34, 0
3, 190545, Note_on_c, 1, 43, 0
3, 190560, Note_on_c, 1, 34, 83
3, 191058, Note_on_c, 1, 39, 72
3, 191077, Note_on_c, 1, 34, 0
3, 191506, Note_on_c, 1, 39, 0
3, 191518, Note_on_c, 1, 34, 85
3, 191963, Note_on_c, 1, 34, 0
3, 191988, Note_on_c, 1, 33, 73
3, 192461, Note_on_c, 1, 45, 69
3, 192523, Note_on_c, 1, 33, 0
3, 192838, Note_on_c, 1, 33, 61
3, 192882, Note_on_c, 1, 33, 0
3, 192928, Note_on_c, 1, 45, 0
3, 192965, Note_on_c, 1, 54, 70
3, 193386, Note_on_c, 1, 54, 0
3, 193412, Note_on_c, 1, 42, 73
3, 193859, Note_on_c, 1, 42, 0
3, 193902, Note_on_c, 1, 45, 69
3, 194241, Note_on_c, 1, 37, 48
3, 194291, Note_on_c, 1, 37, 0
3, 194349, Note_on_c, 1, 45, 0
3, 194376, Note_on_c, 1, 43, 69
3, 194819, Note_on_c, 1, 43, 0
3, 194852, Note_on_c, 1, 40, 75
3, 195188, Note_on_c, 1, 37, 43
3, 195329, Note_on_c, 1, 37, 0
3, 195338, Note_on_c, 1, 52, 109
3, 195341, Note_on_c, 1, 40, 0
3, 195778, Note_on_c, 1, 52, 0
3, 195822, Note_on_c, 1, 45, 62
3, 196161, Note_on_c, 1, 37, 39
3, 196189, Note_on_c, 1, 37, 0
3, 196221, Note_on_c, 1, 45, 0
3, 196296, Note_on_c, 1, 51, 94
3, 196695, Note_on_c, 1, 51, 0
3, 196768, Note_on_c, 1, 50, 92
3, 196853, Pitch_bend_c, 1, 8192
3, 196865, Pitch_bend_c, 1, 8192
3, 196879, Pitch_bend_c, 1, 8712
3, 196894, Pitch_bend_c, 1, 8842
3, 196905, Pitch_bend_c, 1, 8972
3, 196940, Pitch_bend_c, 1, 9102
3, 196972, Pitch_bend_c, 1, 9232
3, 196990, Pitch_bend_c, 1, 9362
3, 197002, Pitch_bend_c, 1, 9492
3, 197008, Pitch_bend_c, 1, 9622
3, 197019, Pitch_bend_c, 1, 9882
3, 197031, Pitch_bend_c, 1, 10012
3, 197037, Pitch_bend_c, 1, 10142
3, 197048, Pitch_bend_c, 1, 10402
3, 197089, Pitch_bend_c, 1, 10142
3, 197095, Pitch_bend_c, 1, 10012
3, 197101, Pitch_bend_c, 1, 9882
3, 197107, Pitch_bend_c, 1, 9622
3, 197113, Pitch_bend_c, 1, 9362
3, 197118, Pitch_bend_c, 1, 9102
3, 197125, Pitch_bend_c, 1, 8842
3, 197131, Pitch_bend_c, 1, 8192
3, 197133, Pitch_bend_c, 1, 8192
3, 197137, Pitch_bend_c, 1, 8192
3, 197140, Pitch_bend_c, 1, 8192
3, 197279, Pitch_bend_c, 1, 8192
3, 197288, Pitch_bend_c, 1, 8192
3, 197293, Pitch_bend_c, 1, 8712
3, 197300, Pitch_bend_c, 1, 8842
3, 197306, Pitch_bend_c, 1, 9102
3, 197311, Pitch_bend_c, 1, 9232
3, 197317, Pitch_bend_c, 1, 9362
3, 197323, Pitch_bend_c, 1, 9492
3, 197329, Pitch_bend_c, 1, 9622
3, 197358, Pitch_bend_c, 1, 9362
3, 197364, Pitch_bend_c, 1, 9232
3, 197370, Pitch_bend_c, 1, 9102
3, 197376, Pitch_bend_c, 1, 8712
3, 197382, Pitch_bend_c, 1, 8192
3, 197386, Pitch_bend_c, 1, 8192
3, 197646, Note_on_c, 1, 47, 72
3, 197686, Note_on_c, 1, 50, 0
3, 197777, Note_on_c, 1, 47, 0
3, 197825, Note_on_c, 1, 42, 70
3, 198218, Note_on_c, 1, 42, 0
3, 198258, Note_on_c, 1, 38, 71
3, 198724, Note_on_c, 1, 31, 66
3, 198778, Note_on_c, 1, 38, 0
3, 199070, Note_on_c, 1, 38, 51
3, 199103, Note_on_c, 1, 38, 0
3, 199195, Note_on_c, 1, 38, 70
3, 199454, Note_on_c, 1, 38, 0
3, 199559, Note_on_c, 1, 38, 43
3, 199588, Note_on_c, 1, 38, 0
3, 199648, Note_on_c, 1, 31, 0
3, 199665, Note_on_c, 1, 43, 75
3, 199877, Control_c, 1, 1, 3
3, 199881, Control_c, 1, 1, 5
3, 199884, Control_c, 1, 1, 6
3, 199887, Control_c, 1, 1, 8
3, 199890, Control_c, 1, 1, 10
3, 199893, Control_c, 1, 1, 12
3, 199897, Control_c, 1, 1, 13
3, 199899, Control_c, 1, 1, 15
3, 199902, Control_c, 1, 1, 17
3, 199905, Control_c, 1, 1, 18
3, 199909, Control_c, 1, 1, 20
3, 199912, Control_c, 1, 1, 22
3, 199915, Control_c, 1, 1, 24
3, 199918, Control_c, 1, 1, 26
3, 199920, Control_c, 1, 1, 27
3, 199924, Control_c, 1, 1, 29
3, 199927, Control_c, 1, 1, 31
3, 199930, Control_c, 1, 1, 33
3, 199933, Control_c, 1, 1, 34
3, 199936, Control_c, 1, 1, 36
3, 199939, Control_c, 1, 1, 38
3, 199942, Control_c, 1, 1, 40
3, 199945, Control_c, 1, 1, 41
3, 199949, Control_c, 1, 1, 43
3, 199952, Control_c, 1, 1, 46
3, 199955, Control_c, 1, 1, 47
3, 199958, Control_c, 1, 1, 49
3, 199961, Control_c, 1, 1, 51
3, 199964, Control_c, 1, 1, 54
3, 199967, Control_c, 1, 1, 55
3, 199970, Control_c, 1, 1, 57
3, 199974, Control_c, 1, 1, 60
3, 199977, Control_c, 1, 1, 62
3, 199980, Control_c, 1, 1, 64
3, 199983, Control_c, 1, 1, 66
3, 199985, Control_c, 1, 1, 68
3, 199989, Control_c, 1, 1, 71
3, 199992, Control_c, 1, 1, 72
3, 199995, Control_c, 1, 1, 74
3, 199999, Control_c, 1, 1, 76
3, 200001, Control_c, 1, 1, 78
3, 200005, Control_c, 1, 1, 79
3, 200007, Control_c, 1, 1, 80
3, 200010, Control_c, 1, 1, 82
3, 200014, Control_c, 1, 1, 83
3, 200022, Control_c, 1, 1, 85
3, 200031, Control_c, 1, 1, 86
3, 200046, Control_c, 1, 1, 85
3, 200049, Control_c, 1, 1, 84
3, 200052, Control_c, 1, 1, 83
3, 200055, Control_c, 1, 1, 81
3, 200059, Control_c, 1, 1, 79
3, 200062, Control_c, 1, 1, 77
3, 200065, Control_c, 1, 1, 75
3, 200068, Control_c, 1, 1, 72
3, 200070, Control_c, 1, 1, 69
3, 200074, Control_c, 1, 1, 66
3, 200077, Control_c, 1, 1, 62
3, 200080, Control_c, 1, 1, 59
3, 200084, Control_c, 1, 1, 55
3, 200087, Control_c, 1, 1, 50
3, 200090, Control_c, 1, 1, 46
3, 200093, Control_c, 1, 1, 41
3, 200096, Control_c, 1, 1, 35
3, 200100, Control_c, 1, 1, 31
3, 200103, Control_c, 1, 1, 25
3, 200105, Control_c, 1, 1, 19
3, 200109, Control_c, 1, 1, 13
3, 200112, Control_c, 1, 1, 6
3, 200115, Control_c, 1, 1, 2
3, 200118, Control_c, 1, 1, 1
3, 200146, Note_on_c, 1, 43, 0
3, 200153, Note_on_c, 1, 45, 84
3, 200592, Note_on_c, 1, 45, 0
3, 200657, Note_on_c, 1, 46, 67
3, 201140, Note_on_c, 1, 38, 63
3, 201508, Note_on_c, 1, 38, 0
3, 201584, Note_on_c, 1, 46, 0
3, 201612, Note_on_c, 1, 42, 83
3, 201674, Control_c, 1, 1, 4
3, 201678, Control_c, 1, 1, 5
3, 201681, Control_c, 1, 1, 7
3, 201684, Control_c, 1, 1, 8
3, 201688, Control_c, 1, 1, 10
3, 201691, Control_c, 1, 1, 12
3, 201694, Control_c, 1, 1, 14
3, 201697, Control_c, 1, 1, 16
3, 201699, Control_c, 1, 1, 18
3, 201703, Control_c, 1, 1, 20
3, 201706, Control_c, 1, 1, 22
3, 201709, Control_c, 1, 1, 25
3, 201713, Control_c, 1, 1, 27
3, 201715, Control_c, 1, 1, 29
3, 201718, Control_c, 1, 1, 31
3, 201722, Control_c, 1, 1, 33
3, 201724, Control_c, 1, 1, 35
3, 201728, Control_c, 1, 1, 37
3, 201731, Control_c, 1, 1, 39
3, 201734, Control_c, 1, 1, 41
3, 201738, Control_c, 1, 1, 43
3, 201740, Control_c, 1, 1, 46
3, 201743, Control_c, 1, 1, 48
3, 201746, Control_c, 1, 1, 50
3, 201749, Control_c, 1, 1, 52
3, 201753, Control_c, 1, 1, 55
3, 201756, Control_c, 1, 1, 56
3, 201759, Control_c, 1, 1, 59
3, 201763, Control_c, 1, 1, 61
3, 201765, Control_c, 1, 1, 63
3, 201768, Control_c, 1, 1, 65
3, 201771, Control_c, 1, 1, 67
3, 201774, Control_c, 1, 1, 69
3, 201777, Control_c, 1, 1, 72
3, 201781, Control_c, 1, 1, 74
3, 201783, Control_c, 1, 1, 75
3, 201787, Control_c, 1, 1, 77
3, 201789, Control_c, 1, 1, 79
3, 201792, Control_c, 1, 1, 80
3, 201796, Control_c, 1, 1, 82
3, 201799, Control_c, 1, 1, 84
3, 201802, Control_c, 1, 1, 85
3, 201805, Control_c, 1, 1, 87
3, 201808, Control_c, 1, 1, 88
3, 201811, Control_c, 1, 1, 89
3, 201814, Control_c, 1, 1, 90
3, 201817, Control_c, 1, 1, 91
3, 201821, Control_c, 1, 1, 93
3, 201823, Control_c, 1, 1, 94
3, 201832, Control_c, 1, 1, 97
3, 201841, Control_c, 1, 1, 100
3, 201844, Control_c, 1, 1, 101
3, 201847, Control_c, 1, 1, 102
3, 201857, Control_c, 1, 1, 104
3, 201859, Control_c, 1, 1, 105
3, 201862, Control_c, 1, 1, 106
3, 201866, Control_c, 1, 1, 107
3, 201874, Control_c, 1, 1, 110
3, 201883, Control_c, 1, 1, 112
3, 201887, Control_c, 1, 1, 113
3, 201896, Control_c, 1, 1, 114
3, 201904, Control_c, 1, 1, 115
3, 201933, Control_c, 1, 1, 113
3, 201937, Control_c, 1, 1, 112
3, 201939, Control_c, 1, 1, 111
3, 201942, Control_c, 1, 1, 110
3, 201946, Control_c, 1, 1, 109
3, 201949, Control_c, 1, 1, 107
3, 201952, Control_c, 1, 1, 105
3, 201955, Control_c, 1, 1, 103
3, 201958, Control_c, 1, 1, 101
3, 201961, Control_c, 1, 1, 99
3, 201964, Control_c, 1, 1, 97
3, 201967, Control_c, 1, 1, 94
3, 201971, Control_c, 1, 1, 91
3, 201974, Control_c, 1, 1, 88
3, 201977, Control_c, 1, 1, 85
3, 201980, Control_c, 1, 1, 80
3, 201983, Control_c, 1, 1, 77
3, 201986, Control_c, 1, 1, 74
3, 201989, Control_c, 1, 1, 69
3, 201992, Control_c, 1, 1, 65
3, 201995, Control_c, 1, 1, 60
3, 201999, Control_c, 1, 1, 55
3, 202002, Control_c, 1, 1, 50
3, 202005, Control_c, 1, 1, 45
3, 202009, Control_c, 1, 1, 40
3, 202012, Control_c, 1, 1, 34
3, 202015, Control_c, 1, 1, 29
3, 202018, Control_c, 1, 1, 23
3, 202021, Control_c, 1, 1, 17
3, 202025, Control_c, 1, 1, 11
3, 202029, Control_c, 1, 1, 4
3, 202031, Control_c, 1, 1, 1
3, 202040, Note_on_c, 1, 42, 0
3, 202050, Note_on_c, 1, 45, 78
3, 202513, Note_on_c, 1, 45, 0
3, 202562, Note_on_c, 1, 48, 91
3, 203049, Note_on_c, 1, 48, 0
3, 203056, Note_on_c, 1, 42, 68
3, 203480, Note_on_c, 1, 42, 0
3, 203501, Control_c, 1, 1, 5
3, 203505, Control_c, 1, 1, 7
3, 203508, Control_c, 1, 1, 9
3, 203511, Control_c, 1, 1, 11
3, 203514, Control_c, 1, 1, 14
3, 203516, Control_c, 1, 1, 17
3, 203521, Control_c, 1, 1, 19
3, 203523, Control_c, 1, 1, 22
3, 203526, Control_c, 1, 1, 24
3, 203530, Control_c, 1, 1, 27
3, 203533, Control_c, 1, 1, 30
3, 203534, Note_on_c, 1, 41, 83
3, 203536, Control_c, 1, 1, 34
3, 203541, Control_c, 1, 1, 37
3, 203544, Control_c, 1, 1, 39
3, 203546, Control_c, 1, 1, 41
3, 203550, Control_c, 1, 1, 44
3, 203553, Control_c, 1, 1, 46
3, 203556, Control_c, 1, 1, 48
3, 203560, Control_c, 1, 1, 51
3, 203563, Control_c, 1, 1, 53
3, 203566, Control_c, 1, 1, 55
3, 203569, Control_c, 1, 1, 57
3, 203572, Control_c, 1, 1, 60
3, 203575, Control_c, 1, 1, 61
3, 203578, Control_c, 1, 1, 63
3, 203581, Control_c, 1, 1, 65
3, 203585, Control_c, 1, 1, 67
3, 203588, Control_c, 1, 1, 68
3, 203591, Control_c, 1, 1, 70
3, 203593, Control_c, 1, 1, 72
3, 203596, Control_c, 1, 1, 73
3, 203600, Control_c, 1, 1, 75
3, 203603, Control_c, 1, 1, 76
3, 203606, Control_c, 1, 1, 77
3, 203609, Control_c, 1, 1, 78
3, 203612, Control_c, 1, 1, 79
3, 203615, Control_c, 1, 1, 80
3, 203618, Control_c, 1, 1, 81
3, 203621, Control_c, 1, 1, 83
3, 203625, Control_c, 1, 1, 84
3, 203633, Control_c, 1, 1, 86
3, 203642, Control_c, 1, 1, 88
3, 203651, Control_c, 1, 1, 90
3, 203659, Control_c, 1, 1, 91
3, 203663, Control_c, 1, 1, 92
3, 203672, Control_c, 1, 1, 94
3, 203684, Control_c, 1, 1, 95
3, 203695, Control_c, 1, 1, 97
3, 203704, Control_c, 1, 1, 98
3, 203713, Control_c, 1, 1, 99
3, 203722, Control_c, 1, 1, 101
3, 203731, Control_c, 1, 1, 102
3, 203739, Control_c, 1, 1, 103
3, 203749, Control_c, 1, 1, 105
3, 203760, Control_c, 1, 1, 107
3, 203769, Control_c, 1, 1, 109
3, 203778, Control_c, 1, 1, 111
3, 203787, Control_c, 1, 1, 113
3, 203796, Control_c, 1, 1, 114
3, 203808, Control_c, 1, 1, 115
3, 203825, Control_c, 1, 1, 114
3, 203834, Control_c, 1, 1, 110
3, 203837, Control_c, 1, 1, 109
3, 203840, Control_c, 1, 1, 107
3, 203844, Control_c, 1, 1, 105
3, 203846, Control_c, 1, 1, 103
3, 203849, Control_c, 1, 1, 101
3, 203853, Control_c, 1, 1, 98
3, 203856, Control_c, 1, 1, 95
3, 203859, Control_c, 1, 1, 93
3, 203862, Control_c, 1, 1, 90
3, 203865, Control_c, 1, 1, 87
3, 203868, Control_c, 1, 1, 83
3, 203871, Control_c, 1, 1, 80
3, 203874, Control_c, 1, 1, 76
3, 203877, Control_c, 1, 1, 72
3, 203881, Control_c, 1, 1, 68
3, 203884, Control_c, 1, 1, 64
3, 203887, Control_c, 1, 1, 60
3, 203890, Control_c, 1, 1, 55
3, 203893, Control_c, 1, 1, 51
3, 203897, Control_c, 1, 1, 47
3, 203900, Control_c, 1, 1, 42
3, 203903, Control_c, 1, 1, 38
3, 203906, Control_c, 1, 1, 34
3, 203909, Control_c, 1, 1, 29
3, 203912, Control_c, 1, 1, 25
3, 203914, Note_on_c, 1, 41, 0
3, 203917, Control_c, 1, 1, 20
3, 203919, Control_c, 1, 1, 16
3, 203922, Control_c, 1, 1, 12
3, 203926, Control_c, 1, 1, 7
3, 203929, Control_c, 1, 1, 4
3, 203932, Control_c, 1, 1, 1
3, 203936, Control_c, 1, 1, 0
3, 203940, Note_on_c, 1, 43, 78
3, 204463, Note_on_c, 1, 43, 0
3, 204495, Note_on_c, 1, 44, 75
3, 204977, Note_on_c, 1, 41, 75
3, 204980, Note_on_c, 1, 44, 0
3, 205388, Note_on_c, 1, 41, 0
3, 205448, Note_on_c, 1, 46, 78
3, 205874, Note_on_c, 1, 46, 0
3, 205931, Note_on_c, 1, 44, 87
3, 206363, Note_on_c, 1, 44, 0
3, 206397, Note_on_c, 1, 43, 83
3, 206576, Note_on_c, 1, 43, 0
3, 206737, Note_on_c, 1, 38, 57
3, 206779, Note_on_c, 1, 38, 0
3, 206849, Note_on_c, 1, 41, 70
3, 207182, Note_on_c, 1, 41, 0
3, 207209, Note_on_c, 1, 38, 59
3, 207256, Note_on_c, 1, 38, 0
3, 207344, Note_on_c, 1, 39, 64
3, 207825, Note_on_c, 1, 51, 80
3, 207896, Note_on_c, 1, 39, 0
3, 208097, Note_on_c, 1, 51, 0
3, 208155, Note_on_c, 1, 51, 78
3, 208282, Note_on_c, 1, 51, 0
3, 208324, Note_on_c, 1, 50, 67
3, 208637, Note_on_c, 1, 37, 93
3, 208664, Note_on_c, 1, 50, 0
3, 208721, Note_on_c, 1, 37, 0
3, 208803, Note_on_c, 1, 38, 84
3, 209271, Note_on_c, 1, 38, 0
3, 209275, Note_on_c, 1, 49, 95
3, 209507, Note_on_c, 1, 49, 0
3, 209755, Note_on_c, 1, 49, 92
3, 209934, Note_on_c, 1, 51, 35
3, 210068, Note_on_c, 1, 49, 0
3, 210079, Note_on_c, 1, 51, 0
3, 210260, Note_on_c, 1, 48, 112
3, 210374, Pitch_bend_c, 1, 8192
3, 210377, Pitch_bend_c, 1, 8192
3, 210384, Pitch_bend_c, 1, 8712
3, 210389, Pitch_bend_c, 1, 9102
3, 210395, Pitch_bend_c, 1, 9622
3, 210401, Pitch_bend_c, 1, 10012
3, 210407, Pitch_bend_c, 1, 10402
3, 210413, Pitch_bend_c, 1, 10792
3, 210419, Pitch_bend_c, 1, 11312
3, 210425, Pitch_bend_c, 1, 11572
3, 210430, Pitch_bend_c, 1, 11962
3, 210437, Pitch_bend_c, 1, 12222
3, 210443, Pitch_bend_c, 1, 12482
3, 210449, Pitch_bend_c, 1, 12612
3, 210455, Pitch_bend_c, 1, 12742
3, 210460, Pitch_bend_c, 1, 12872
3, 210484, Pitch_bend_c, 1, 12612
3, 210490, Pitch_bend_c, 1, 12352
3, 210495, Pitch_bend_c, 1, 12092
3, 210502, Pitch_bend_c, 1, 11702
3, 210507, Pitch_bend_c, 1, 11312
3, 210513, Pitch_bend_c, 1, 10662
3, 210519, Pitch_bend_c, 1, 10142
3, 210525, Pitch_bend_c, 1, 9622
3, 210531, Pitch_bend_c, 1, 9102
3, 210537, Pitch_bend_c, 1, 8712
3, 210543, Pitch_bend_c, 1, 8192
3, 210546, Pitch_bend_c, 1, 8192
3, 210618, Pitch_bend_c, 1, 8192
3, 210624, Pitch_bend_c, 1, 8712
3, 210630, Pitch_bend_c, 1, 9102
3, 210636, Pitch_bend_c, 1, 9752
3, 210643, Pitch_bend_c, 1, 10272
3, 210648, Pitch_bend_c, 1, 10792
3, 210654, Pitch_bend_c, 1, 11572
3, 210660, Pitch_bend_c, 1, 12092
3, 210666, Pitch_bend_c, 1, 12612
3, 210672, Pitch_bend_c, 1, 13132
3, 210678, Pitch_bend_c, 1, 13652
3, 210683, Pitch_bend_c, 1, 14042
3, 210690, Pitch_bend_c, 1, 14432
3, 210696, Pitch_bend_c, 1, 14692
3, 210702, Pitch_bend_c, 1, 14822
3, 210731, Pitch_bend_c, 1, 14432
3, 210736, Pitch_bend_c, 1, 14172
3, 210743, Pitch_bend_c, 1, 13782
3, 210748, Pitch_bend_c, 1, 13132
3, 210755, Pitch_bend_c, 1, 12612
3, 210761, Pitch_bend_c, 1, 12092
3, 210766, Pitch_bend_c, 1, 11442
3, 210772, Pitch_bend_c, 1, 10662
3, 210778, Pitch_bend_c, 1, 10012
3, 210784, Pitch_bend_c, 1, 9232
3, 210790, Pitch_bend_c, 1, 8192
3, 210793, Pitch_bend_c, 1, 8192
3, 211200, Note_on_c, 1, 48, 0
3, 211239, Note_on_c, 1, 41, 87
3, 211656, Note_on_c, 1, 41, 0
3, 211698, Note_on_c, 1, 43, 78
3, 211996, Note_on_c, 1, 43, 0
3, 212042, Note_on_c, 1, 38, 45
3, 212056, Note_on_c, 1, 41, 58
3, 212088, Note_on_c, 1, 38, 0
3, 212121, Note_on_c, 1, 41, 0
3, 212160, Note_on_c, 1, 44, 76
3, 212577, Note_on_c, 1, 44, 0
3, 212629, Note_on_c, 1, 45, 75
3, 213069, Note_on_c, 1, 45, 0
3, 213123, Note_on_c, 1, 46, 80
3, 213598, Note_on_c, 1, 34, 78
3, 213622, Note_on_c, 1, 46, 0
3, 214116, Note_on_c, 1, 52, 114
3, 214158, Note_on_c, 1, 34, 0
3, 214986, Note_on_c, 1, 39, 48
3, 215006, Note_on_c, 1, 52, 0
3, 215015, Note_on_c, 1, 39, 0
3, 215082, Note_on_c, 1, 53, 80
3, 215372, Note_on_c, 1, 53, 0
3, 215418, Note_on_c, 1, 48, 85
3, 215501, Note_on_c, 1, 48, 0
3, 215580, Note_on_c, 1, 44, 49
3, 215961, Note_on_c, 1, 44, 0
3, 216018, Note_on_c, 1, 46, 73
3, 216271, Note_on_c, 1, 46, 0
3, 216366, Note_on_c, 1, 41, 72
3, 216395, Note_on_c, 1, 41, 0
3, 216497, Note_on_c, 1, 38, 75
3, 216908, Note_on_c, 1, 38, 0
3, 216981, Note_on_c, 1, 39, 74
3, 217354, Note_on_c, 1, 39, 0
3, 217482, Note_on_c, 1, 31, 61
3, 217547, Note_on_c, 1, 32, 23
3, 217807, Note_on_c, 1, 31, 0
3, 217840, Note_on_c, 1, 34, 44
3, 217857, Note_on_c, 1, 32, 0
3, 217922, Note_on_c, 1, 34, 0
3, 217932, Note_on_c, 1, 36, 76
3, 218361, Note_on_c, 1, 34, 41
3, 218408, Note_on_c, 1, 48, 97
3, 218420, Note_on_c, 1, 36, 0
3, 218423, Note_on_c, 1, 34, 0
3, 218769, Note_on_c, 1, 36, 70
3, 218804, Note_on_c, 1, 36, 0
3, 218839, Note_on_c, 1, 48, 0
3, 218902, Note_on_c, 1, 41, 60
3, 219221, Note_on_c, 1, 36, 73
3, 219238, Note_on_c, 1, 41, 0
3, 219269, Note_on_c, 1, 36, 0
3, 219354, Note_on_c, 1, 29, 65
3, 219782, Note_on_c, 1, 29, 0
3, 219799, Note_on_c, 1, 34, 77
3, 220291, Note_on_c, 1, 53, 79
3, 220386, Note_on_c, 1, 34, 0
3, 220668, Note_on_c, 1, 38, 54
3, 220720, Note_on_c, 1, 38, 0
3, 220732, Note_on_c, 1, 53, 0
3, 220802, Note_on_c, 1, 51, 69
3, 221208, Note_on_c, 1, 51, 0
3, 221252, Note_on_c, 1, 46, 77
3, 221721, Note_on_c, 1, 46, 0
3, 221732, Note_on_c, 1, 43, 68
3, 222105, Note_on_c, 1, 37, 51
3, 222156, Note_on_c, 1, 37, 0
3, 222184, Note_on_c, 1, 43, 0
3, 222219, Note_on_c, 1, 44, 74
3, 222653, Note_on_c, 1, 44, 0
3, 222709, Note_on_c, 1, 45, 49
3, 223090, Note_on_c, 1, 39, 39
3, 223134, Note_on_c, 1, 45, 0
3, 223137, Note_on_c, 1, 39, 0
3, 223178, Note_on_c, 1, 52, 108
3, 223635, Note_on_c, 1, 52, 0
3, 223674, Note_on_c, 1, 50, 74
3, 224022, Note_on_c, 1, 37, 64
3, 224042, Note_on_c, 1, 50, 0
3, 224133, Note_on_c, 1, 37, 0
3, 224155, Note_on_c, 1, 38, 83
3, 224578, Note_on_c, 1, 37, 41
3, 224600, Note_on_c, 1, 38, 0
3, 224617, Note_on_c, 1, 37, 0
3, 224653, Note_on_c, 1, 43, 68
3, 225083, Note_on_c, 1, 43, 0
3, 225144, Note_on_c, 1, 39, 89
3, 225593, Note_on_c, 1, 39, 0
3, 225621, Note_on_c, 1, 40, 70
3, 226065, Note_on_c, 1, 40, 0
3, 226097, Note_on_c, 1, 32, 80
3, 226561, Note_on_c, 1, 32, 0
3, 226574, Note_on_c, 1, 33, 83
3, 226980, Note_on_c, 1, 36, 42
3, 226995, Note_on_c, 1, 33, 0
3, 227018, Note_on_c, 1, 36, 0
3, 227037, Note_on_c, 1, 40, 94
3, 227371, Note_on_c, 1, 37, 55
3, 227394, Note_on_c, 1, 40, 0
3, 227483, Note_on_c, 1, 37, 0
3, 227495, Note_on_c, 1, 38, 70
3, 227822, Note_on_c, 1, 37, 58
3, 227885, Note_on_c, 1, 38, 0
3, 227923, Note_on_c, 1, 37, 0
3, 227947, Note_on_c, 1, 42, 86
3, 228345, Note_on_c, 1, 37, 44
3, 228373, Note_on_c, 1, 37, 0
3, 228380, Note_on_c, 1, 42, 0
3, 228436, Note_on_c, 1, 43, 64
3, 228827, Note_on_c, 1, 38, 62
3, 228874, Note_on_c, 1, 43, 0
3, 228901, Note_on_c, 1, 38, 0
3, 228919, Note_on_c, 1, 45, 70
3, 229392, Note_on_c, 1, 45, 0
3, 229423, Note_on_c, 1, 47, 77
3, 229764, Note_on_c, 1, 39, 55
3, 229806, Note_on_c, 1, 39, 0
3, 229823, Note_on_c, 1, 47, 0
3, 229890, Note_on_c, 1, 42, 83
3, 230338, Note_on_c, 1, 42, 0
3, 230384, Note_on_c, 1, 41, 65
3, 230805, Note_on_c, 1, 41, 0
3, 230868, Note_on_c, 1, 36, 98
3, 230871, Note_on_c, 1, 37, 74
3, 231118, Note_on_c, 1, 37, 0
3, 231354, Note_on_c, 1, 36, 0
3, 231363, Note_on_c, 1, 29, 68
3, 231814, Note_on_c, 1, 29, 0
3, 231828, Note_on_c, 1, 35, 83
3, 232299, Note_on_c, 1, 35, 0
3, 232314, Note_on_c, 1, 36, 80
3, 232755, Note_on_c, 1, 34, 41
3, 232801, Note_on_c, 1, 36, 0
3, 232829, Note_on_c, 1, 50, 99
3, 232861, Note_on_c, 1, 34, 0
3, 233274, Note_on_c, 1, 50, 0
3, 233315, Note_on_c, 1, 48, 82
3, 233595, Note_on_c, 1, 48, 0
3, 233641, Note_on_c, 1, 43, 65
3, 233770, Note_on_c, 1, 43, 0
3, 233822, Note_on_c, 1, 39, 51
3, 234039, Note_on_c, 1, 39, 0
3, 234126, Note_on_c, 1, 40, 83
3, 234197, Note_on_c, 1, 40, 0
3, 234264, Note_on_c, 1, 41, 86
3, 234295, Note_on_c, 1, 41, 0
3, 234570, Note_on_c, 1, 41, 91
3, 234598, Note_on_c, 1, 41, 0
3, 234718, Note_on_c, 1, 36, 82
3, 235169, Note_on_c, 1, 36, 0
3, 235207, Note_on_c, 1, 29, 54
3, 235627, Note_on_c, 1, 29, 0
3, 235679, Note_on_c, 1, 34, 75
3, 236109, Note_on_c, 1, 34, 0
3, 236154, Note_on_c, 1, 31, 67
3, 236490, Note_on_c, 1, 38, 67
3, 236551, Note_on_c, 1, 31, 0
3, 236562, Note_on_c, 1, 38, 0
3, 236630, Note_on_c, 1, 43, 72
3, 237079, Note_on_c, 1, 43, 0
3, 237107, Note_on_c, 1, 48, 83
3, 237521, Note_on_c, 1, 48, 0
3, 237578, Note_on_c, 1, 40, 92
3, 238054, Note_on_c, 1, 40, 0
3, 238063, Note_on_c, 1, 41, 75
3, 238533, Note_on_c, 1, 43, 77
3, 238590, Note_on_c, 1, 41, 0
3, 238955, Note_on_c, 1, 43, 0
3, 239015, Note_on_c, 1, 44, 74
3, 239458, Note_on_c, 1, 44, 0
3, 239490, Note_on_c, 1, 40, 80
3, 239957, Note_on_c, 1, 40, 0
3, 239976, Note_on_c, 1, 34, 73
3, 240471, Note_on_c, 1, 46, 96
3, 240566, Note_on_c, 1, 34, 0
3, 240872, Note_on_c, 1, 34, 45
3, 240907, Note_on_c, 1, 46, 0
3, 240953, Note_on_c, 1, 46, 93
3, 240974, Note_on_c, 1, 34, 0
3, 241436, Note_on_c, 1, 34, 78
3, 241453, Note_on_c, 1, 46, 0
3, 241928, Note_on_c, 1, 46, 82
3, 242035, Note_on_c, 1, 34, 0
3, 242259, Note_on_c, 1, 46, 0
3, 242263, Note_on_c, 1, 48, 79
3, 242339, Note_on_c, 1, 48, 0
3, 242387, Note_on_c, 1, 46, 78
3, 242789, Note_on_c, 1, 46, 0
3, 242888, Note_on_c, 1, 46, 81
3, 242902, Control_c, 1, 1, 4
3, 242905, Control_c, 1, 1, 5
3, 242908, Control_c, 1, 1, 7
3, 242911, Control_c, 1, 1, 9
3, 242914, Control_c, 1, 1, 11
3, 242918, Control_c, 1, 1, 13
3, 242920, Control_c, 1, 1, 15
3, 242923, Control_c, 1, 1, 17
3, 242927, Control_c, 1, 1, 19
3, 242930, Control_c, 1, 1, 21
3, 242933, Control_c, 1, 1, 22
3, 242936, Control_c, 1, 1, 24
3, 242939, Control_c, 1, 1, 27
3, 242942, Control_c, 1, 1, 29
3, 242945, Control_c, 1, 1, 30
3, 242948, Control_c, 1, 1, 32
3, 242952, Control_c, 1, 1, 34
3, 242955, Control_c, 1, 1, 36
3, 242958, Control_c, 1, 1, 38
3, 242961, Control_c, 1, 1, 40
3, 242963, Control_c, 1, 1, 42
3, 242966, Control_c, 1, 1, 44
3, 242970, Control_c, 1, 1, 46
3, 242973, Control_c, 1, 1, 48
3, 242976, Control_c, 1, 1, 50
3, 242979, Control_c, 1, 1, 52
3, 242982, Control_c, 1, 1, 54
3, 242985, Control_c, 1, 1, 55
3, 242988, Control_c, 1, 1, 57
3, 242991, Control_c, 1, 1, 60
3, 242995, Control_c, 1, 1, 61
3, 242997, Control_c, 1, 1, 63
3, 243001, Control_c, 1, 1, 65
3, 243004, Control_c, 1, 1, 67
3, 243007, Control_c, 1, 1, 69
3, 243010, Control_c, 1, 1, 70
3, 243013, Control_c, 1, 1, 72
3, 243016, Control_c, 1, 1, 74
3, 243020, Control_c, 1, 1, 75
3, 243022, Control_c, 1, 1, 77
3, 243026, Control_c, 1, 1, 78
3, 243028, Control_c, 1, 1, 80
3, 243031, Control_c, 1, 1, 81
3, 243035, Control_c, 1, 1, 83
3, 243038, Control_c, 1, 1, 85
3, 243041, Control_c, 1, 1, 86
3, 243044, Control_c, 1, 1, 87
3, 243047, Control_c, 1, 1, 89
3, 243050, Control_c, 1, 1, 90
3, 243053, Control_c, 1, 1, 91
3, 243056, Control_c, 1, 1, 93
3, 243060, Control_c, 1, 1, 94
3, 243062, Control_c, 1, 1, 95
3, 243066, Control_c, 1, 1, 96
3, 243068, Control_c, 1, 1, 97
3, 243071, Control_c, 1, 1, 99
3, 243075, Control_c, 1, 1, 100
3, 243078, Control_c, 1, 1, 101
3, 243081, Control_c, 1, 1, 102
3, 243090, Control_c, 1, 1, 105
3, 243099, Control_c, 1, 1, 107
3, 243108, Control_c, 1, 1, 109
3, 243116, Control_c, 1, 1, 110
3, 243126, Control_c, 1, 1, 111
3, 243163, Control_c, 1, 1, 110
3, 243172, Control_c, 1, 1, 108
3, 243174, Control_c, 1, 1, 107
3, 243184, Control_c, 1, 1, 105
3, 243186, Control_c, 1, 1, 104
3, 243189, Control_c, 1, 1, 103
3, 243193, Control_c, 1, 1, 102
3, 243196, Control_c, 1, 1, 101
3, 243199, Control_c, 1, 1, 99
3, 243202, Control_c, 1, 1, 98
3, 243205, Control_c, 1, 1, 97
3, 243208, Control_c, 1, 1, 95
3, 243211, Control_c, 1, 1, 94
3, 243214, Control_c, 1, 1, 92
3, 243218, Control_c, 1, 1, 90
3, 243221, Control_c, 1, 1, 89
3, 243224, Control_c, 1, 1, 87
3, 243227, Control_c, 1, 1, 85
3, 243229, Control_c, 1, 1, 83
3, 243233, Control_c, 1, 1, 81
3, 243236, Control_c, 1, 1, 79
3, 243239, Control_c, 1, 1, 77
3, 243243, Control_c, 1, 1, 75
3, 243246, Control_c, 1, 1, 73
3, 243249, Control_c, 1, 1, 71
3, 243252, Control_c, 1, 1, 68
3, 243254, Control_c, 1, 1, 65
3, 243258, Control_c, 1, 1, 63
3, 243261, Control_c, 1, 1, 60
3, 243264, Control_c, 1, 1, 57
3, 243268, Control_c, 1, 1, 55
3, 243271, Control_c, 1, 1, 51
3, 243274, Control_c, 1, 1, 48
3, 243277, Control_c, 1, 1, 45
3, 243279, Control_c, 1, 1, 41
3, 243283, Control_c, 1, 1, 38
3, 243286, Control_c, 1, 1, 35
3, 243289, Control_c, 1, 1, 31
3, 243293, Control_c, 1, 1, 28
3, 243295, Control_c, 1, 1, 24
3, 243299, Control_c, 1, 1, 20
3, 243302, Control_c, 1, 1, 16
3, 243304, Control_c, 1, 1, 13
3, 243308, Control_c, 1, 1, 10
3, 243311, Control_c, 1, 1, 6
3, 243314, Control_c, 1, 1, 2
3, 243318, Control_c, 1, 1, 1
3, 243326, Note_on_c, 1, 46, 0
3, 243384, Note_on_c, 1, 46, 68
3, 243794, Note_on_c, 1, 46, 0
3, 243847, Note_on_c, 1, 46, 82
3, 244133, Note_on_c, 1, 46, 0
3, 244157, Note_on_c, 1, 48, 90
3, 244249, Note_on_c, 1, 48, 0
3, 244313, Note_on_c, 1, 46, 81
3, 244399, Note_on_c, 1, 46, 0
3, 244607, Note_on_c, 1, 43, 92
3, 244640, Note_on_c, 1, 43, 0
3, 244754, Note_on_c, 1, 36, 87
3, 245235, Note_on_c, 1, 42, 89
3, 245246, Note_on_c, 1, 36, 0
3, 245574, Note_on_c, 1, 34, 68
3, 245637, Note_on_c, 1, 34, 0
3, 245660, Note_on_c, 1, 42, 0
3, 245722, Note_on_c, 1, 41, 81
3, 246215, Note_on_c, 1, 41, 0
3, 246219, Note_on_c, 1, 36, 75
3, 246691, Note_on_c, 1, 34, 66
3, 246692, Note_on_c, 1, 36, 0
3, 247181, Note_on_c, 1, 46, 79
3, 247206, Note_on_c, 1, 34, 0
3, 247521, Note_on_c, 1, 46, 0
3, 247525, Note_on_c, 1, 42, 58
3, 247642, Note_on_c, 1, 42, 0
3, 247656, Note_on_c, 1, 43, 80
3, 248592, Note_on_c, 1, 43, 0
3, 248627, Note_on_c, 1, 36, 84
3, 249578, Note_on_c, 1, 41, 88
3, 249584, Note_on_c, 1, 36, 0
3, 249615, Note_on_c, 1, 41, 0
3, 249910, Note_on_c, 1, 36, 76
3, 249978, Note_on_c, 1, 36, 0
3, 250058, Note_on_c, 1, 34, 95
3, 250869, Note_on_c, 1, 34, 0
3, 250870, Note_on_c, 1, 46, 78
3, 250919, Note_on_c, 1, 46, 0
3, 251015, Note_on_c, 1, 34, 75
3, 251982, Note_on_c, 1, 34, 0
3, 251990, Note_on_c, 1, 39, 78
3, 252330, Note_on_c, 1, 39, 0
3, 252346, Note_on_c, 1, 38, 47
3, 252391, Note_on_c, 1, 38, 0
3, 252451, Note_on_c, 1, 39, 71
3, 252824, Note_on_c, 1, 34, 57
3, 252877, Note_on_c, 1, 39, 0
3, 252912, Note_on_c, 1, 34, 0
3, 252945, Note_on_c, 1, 46, 78
3, 253390, Note_on_c, 1, 46, 0
3, 253428, Note_on_c, 1, 45, 64
3, 253466, Note_on_c, 1, 45, 0
3, 253586, Note_on_c, 1, 52, 71
3, 253624, Note_on_c, 1, 52, 0
3, 253741, Note_on_c, 1, 51, 73
3, 253814, Note_on_c, 1, 51, 0
3, 253894, Note_on_c, 1, 50, 84
3, 254134, Note_on_c, 1, 50, 0
3, 254232, Note_on_c, 1, 37, 68
3, 254338, Note_on_c, 1, 37, 0
3, 254378, Note_on_c, 1, 38, 66
3, 254849, Note_on_c, 1, 38, 0
3, 254865, Note_on_c, 1, 45, 94
3, 255295, Note_on_c, 1, 45, 0
3, 255348, Note_on_c, 1, 43, 79
3, 255638, Note_on_c, 1, 43, 0
3, 255844, Note_on_c, 1, 40, 75
3, 255997, Control_c, 1, 1, 4
3, 256000, Control_c, 1, 1, 6
3, 256002, Control_c, 1, 1, 8
3, 256006, Control_c, 1, 1, 10
3, 256009, Control_c, 1, 1, 13
3, 256012, Control_c, 1, 1, 16
3, 256016, Control_c, 1, 1, 18
3, 256018, Control_c, 1, 1, 21
3, 256022, Control_c, 1, 1, 24
3, 256025, Control_c, 1, 1, 26
3, 256027, Control_c, 1, 1, 29
3, 256031, Control_c, 1, 1, 31
3, 256034, Control_c, 1, 1, 34
3, 256037, Control_c, 1, 1, 35
3, 256041, Control_c, 1, 1, 38
3, 256044, Control_c, 1, 1, 40
3, 256047, Control_c, 1, 1, 43
3, 256051, Control_c, 1, 1, 45
3, 256053, Control_c, 1, 1, 47
3, 256056, Control_c, 1, 1, 48
3, 256059, Control_c, 1, 1, 50
3, 256062, Control_c, 1, 1, 52
3, 256065, Control_c, 1, 1, 54
3, 256068, Control_c, 1, 1, 56
3, 256071, Control_c, 1, 1, 58
3, 256074, Control_c, 1, 1, 60
3, 256077, Control_c, 1, 1, 62
3, 256080, Control_c, 1, 1, 63
3, 256084, Control_c, 1, 1, 65
3, 256087, Control_c, 1, 1, 66
3, 256090, Control_c, 1, 1, 68
3, 256093, Control_c, 1, 1, 69
3, 256095, Control_c, 1, 1, 71
3, 256099, Control_c, 1, 1, 72
3, 256102, Control_c, 1, 1, 73
3, 256105, Control_c, 1, 1, 75
3, 256108, Control_c, 1, 1, 76
3, 256111, Control_c, 1, 1, 77
3, 256114, Control_c, 1, 1, 78
3, 256117, Control_c, 1, 1, 79
3, 256120, Control_c, 1, 1, 80
3, 256123, Control_c, 1, 1, 81
3, 256126, Control_c, 1, 1, 82
3, 256130, Control_c, 1, 1, 83
3, 256139, Control_c, 1, 1, 85
3, 256142, Control_c, 1, 1, 86
3, 256150, Control_c, 1, 1, 88
3, 256160, Control_c, 1, 1, 89
3, 256169, Control_c, 1, 1, 90
3, 256177, Control_c, 1, 1, 91
3, 256186, Control_c, 1, 1, 93
3, 256198, Control_c, 1, 1, 94
3, 256200, Control_c, 1, 1, 95
3, 256213, Control_c, 1, 1, 97
3, 256222, Control_c, 1, 1, 98
3, 256230, Control_c, 1, 1, 100
3, 256239, Control_c, 1, 1, 102
3, 256242, Control_c, 1, 1, 103
3, 256245, Control_c, 1, 1, 104
3, 256255, Control_c, 1, 1, 106
3, 256257, Control_c, 1, 1, 107
3, 256260, Control_c, 1, 1, 108
3, 256264, Control_c, 1, 1, 109
3, 256267, Control_c, 1, 1, 110
3, 256270, Control_c, 1, 1, 111
3, 256273, Control_c, 1, 1, 112
3, 256282, Control_c, 1, 1, 114
3, 256284, Control_c, 1, 1, 115
3, 256288, Control_c, 1, 1, 116
3, 256297, Control_c, 1, 1, 119
3, 256299, Control_c, 1, 1, 120
3, 256308, Control_c, 1, 1, 122
3, 256317, Control_c, 1, 1, 123
3, 256320, Control_c, 1, 1, 124
3, 256329, Control_c, 1, 1, 126
3, 256341, Control_c, 1, 1, 127
3, 256578, Control_c, 1, 1, 126
3, 256586, Control_c, 1, 1, 124
3, 256596, Control_c, 1, 1, 123
3, 256607, Control_c, 1, 1, 121
3, 256616, Control_c, 1, 1, 119
3, 256620, Control_c, 1, 1, 118
3, 256623, Control_c, 1, 1, 117
3, 256631, Control_c, 1, 1, 115
3, 256635, Control_c, 1, 1, 114
3, 256637, Control_c, 1, 1, 113
3, 256646, Control_c, 1, 1, 110
3, 256650, Control_c, 1, 1, 108
3, 256653, Control_c, 1, 1, 106
3, 256656, Control_c, 1, 1, 105
3, 256659, Control_c, 1, 1, 103
3, 256662, Control_c, 1, 1, 101
3, 256665, Control_c, 1, 1, 99
3, 256668, Control_c, 1, 1, 97
3, 256671, Control_c, 1, 1, 95
3, 256675, Control_c, 1, 1, 93
3, 256677, Control_c, 1, 1, 90
3, 256681, Control_c, 1, 1, 89
3, 256683, Control_c, 1, 1, 86
3, 256686, Control_c, 1, 1, 84
3, 256690, Control_c, 1, 1, 81
3, 256693, Control_c, 1, 1, 79
3, 256696, Control_c, 1, 1, 77
3, 256699, Control_c, 1, 1, 74
3, 256702, Control_c, 1, 1, 72
3, 256705, Control_c, 1, 1, 69
3, 256708, Control_c, 1, 1, 67
3, 256711, Control_c, 1, 1, 64
3, 256714, Control_c, 1, 1, 61
3, 256718, Control_c, 1, 1, 59
3, 256721, Control_c, 1, 1, 55
3, 256724, Control_c, 1, 1, 52
3, 256728, Control_c, 1, 1, 49
3, 256731, Control_c, 1, 1, 47
3, 256734, Control_c, 1, 1, 43
3, 256736, Control_c, 1, 1, 40
3, 256739, Control_c, 1, 1, 37
3, 256743, Control_c, 1, 1, 34
3, 256746, Control_c, 1, 1, 30
3, 256749, Control_c, 1, 1, 27
3, 256753, Control_c, 1, 1, 23
3, 256755, Control_c, 1, 1, 20
3, 256759, Control_c, 1, 1, 16
3, 256761, Control_c, 1, 1, 13
3, 256764, Control_c, 1, 1, 10
3, 256768, Control_c, 1, 1, 6
3, 256771, Control_c, 1, 1, 3
3, 256772, Note_on_c, 1, 40, 0
3, 256774, Control_c, 1, 1, 1
3, 256809, Note_on_c, 1, 52, 90
3, 257290, Note_on_c, 1, 45, 75
3, 257300, Note_on_c, 1, 52, 0
3, 257615, Note_on_c, 1, 45, 0
3, 257621, Note_on_c, 1, 38, 84
3, 258746, Note_on_c, 1, 50, 117
3, 258768, Note_on_c, 1, 38, 0
3, 259016, Note_on_c, 1, 50, 0
3, 259071, Note_on_c, 1, 50, 107
3, 260182, Note_on_c, 1, 50, 0
3, 260223, Note_on_c, 1, 47, 84
3, 260430, Note_on_c, 1, 47, 0
3, 260683, Note_on_c, 1, 42, 75
3, 260941, Note_on_c, 1, 42, 0
3, 261149, Note_on_c, 1, 43, 75
3, 261252, Note_on_c, 1, 43, 0
3, 261488, Note_on_c, 1, 38, 63
3, 261576, Note_on_c, 1, 38, 0
3, 261638, Note_on_c, 1, 31, 80
3, 262402, Note_on_c, 1, 31, 0
3, 262427, Note_on_c, 1, 43, 69
3, 262459, Note_on_c, 1, 43, 0
3, 262573, Note_on_c, 1, 31, 80
3, 263356, Note_on_c, 1, 42, 72
3, 263362, Note_on_c, 1, 31, 0
3, 263417, Note_on_c, 1, 42, 0
3, 263500, Note_on_c, 1, 30, 80
3, 264307, Note_on_c, 1, 42, 60
3, 264346, Note_on_c, 1, 42, 0
3, 264433, Note_on_c, 1, 30, 0
3, 264457, Note_on_c, 1, 45, 84
3, 264540, Note_on_c, 1, 45, 0
3, 264788, Note_on_c, 1, 42, 80
3, 264890, Note_on_c, 1, 42, 0
3, 264939, Note_on_c, 1, 41, 69
3, 265235, Pitch_bend_c, 1, 8192
3, 265241, Pitch_bend_c, 1, 8712
3, 265247, Pitch_bend_c, 1, 9102
3, 265252, Pitch_bend_c, 1, 9622
3, 265259, Pitch_bend_c, 1, 10012
3, 265265, Pitch_bend_c, 1, 10402
3, 265271, Pitch_bend_c, 1, 10922
3, 265277, Pitch_bend_c, 1, 11312
3, 265282, Pitch_bend_c, 1, 11702
3, 265289, Pitch_bend_c, 1, 12092
3, 265295, Pitch_bend_c, 1, 12352
3, 265301, Pitch_bend_c, 1, 12742
3, 265307, Pitch_bend_c, 1, 13002
3, 265312, Pitch_bend_c, 1, 13262
3, 265318, Pitch_bend_c, 1, 13652
3, 265324, Pitch_bend_c, 1, 13912
3, 265331, Pitch_bend_c, 1, 14172
3, 265337, Pitch_bend_c, 1, 14432
3, 265342, Pitch_bend_c, 1, 14692
3, 265348, Pitch_bend_c, 1, 14822
3, 265354, Pitch_bend_c, 1, 14968
3, 265360, Pitch_bend_c, 1, 15082
3, 265372, Pitch_bend_c, 1, 15342
3, 265383, Pitch_bend_c, 1, 15472
3, 265395, Pitch_bend_c, 1, 15602
3, 265416, Pitch_bend_c, 1, 15732
3, 265520, Pitch_bend_c, 1, 15602
3, 265525, Pitch_bend_c, 1, 15472
3, 265537, Pitch_bend_c, 1, 15212
3, 265544, Pitch_bend_c, 1, 15082
3, 265555, Pitch_bend_c, 1, 14822
3, 265561, Pitch_bend_c, 1, 14692
3, 265567, Pitch_bend_c, 1, 14432
3, 265573, Pitch_bend_c, 1, 14302
3, 265579, Pitch_bend_c, 1, 14042
3, 265585, Pitch_bend_c, 1, 13912
3, 265590, Pitch_bend_c, 1, 13652
3, 265597, Pitch_bend_c, 1, 13392
3, 265602, Pitch_bend_c, 1, 13132
3, 265609, Pitch_bend_c, 1, 12872
3, 265615, Pitch_bend_c, 1, 12612
3, 265620, Pitch_bend_c, 1, 12482
3, 265626, Pitch_bend_c, 1, 12222
3, 265632, Pitch_bend_c, 1, 11962
3, 265638, Pitch_bend_c, 1, 11702
3, 265643, Pitch_bend_c, 1, 11442
3, 265650, Pitch_bend_c, 1, 11052
3, 265656, Pitch_bend_c, 1, 10792
3, 265662, Pitch_bend_c, 1, 10532
3, 265668, Pitch_bend_c, 1, 10272
3, 265673, Pitch_bend_c, 1, 10012
3, 265680, Pitch_bend_c, 1, 9882
3, 265686, Pitch_bend_c, 1, 9622
3, 265692, Pitch_bend_c, 1, 9492
3, 265698, Pitch_bend_c, 1, 9232
3, 265709, Pitch_bend_c, 1, 9102
3, 265715, Pitch_bend_c, 1, 8972
3, 265747, Pitch_bend_c, 1, 9102
3, 265753, Pitch_bend_c, 1, 9232
3, 265759, Pitch_bend_c, 1, 9362
3, 265765, Pitch_bend_c, 1, 9492
3, 265771, Pitch_bend_c, 1, 9752
3, 265777, Pitch_bend_c, 1, 9882
3, 265783, Pitch_bend_c, 1, 10012
3, 265788, Pitch_bend_c, 1, 10272
3, 265795, Pitch_bend_c, 1, 10532
3, 265801, Pitch_bend_c, 1, 10792
3, 265807, Pitch_bend_c, 1, 11052
3, 265813, Pitch_bend_c, 1, 11442
3, 265818, Pitch_bend_c, 1, 11702
3, 265825, Pitch_bend_c, 1, 12092
3, 265830, Pitch_bend_c, 1, 12222
3, 265837, Pitch_bend_c, 1, 12612
3, 265843, Pitch_bend_c, 1, 12872
3, 265848, Pitch_bend_c, 1, 13132
3, 265854, Pitch_bend_c, 1, 13392
3, 265860, Pitch_bend_c, 1, 13782
3, 265866, Pitch_bend_c, 1, 14042
3, 265871, Pitch_bend_c, 1, 14172
3, 265877, Pitch_bend_c, 1, 14432
3, 265883, Pitch_bend_c, 1, 14692
3, 265890, Pitch_bend_c, 1, 14822
3, 265896, Pitch_bend_c, 1, 15082
3, 265907, Pitch_bend_c, 1, 15212
3, 265913, Pitch_bend_c, 1, 15342
3, 265928, Pitch_bend_c, 1, 15472
3, 265968, Pitch_bend_c, 1, 15212
3, 265986, Pitch_bend_c, 1, 14968
3, 265991, Pitch_bend_c, 1, 14822
3, 265998, Pitch_bend_c, 1, 14692
3, 266004, Pitch_bend_c, 1, 14432
3, 266010, Pitch_bend_c, 1, 14302
3, 266016, Pitch_bend_c, 1, 14042
3, 266021, Pitch_bend_c, 1, 13782
3, 266028, Pitch_bend_c, 1, 13522
3, 266033, Pitch_bend_c, 1, 13132
3, 266040, Pitch_bend_c, 1, 12872
3, 266046, Pitch_bend_c, 1, 12612
3, 266051, Pitch_bend_c, 1, 12222
3, 266057, Pitch_bend_c, 1, 11962
3, 266063, Pitch_bend_c, 1, 11572
3, 266069, Pitch_bend_c, 1, 11312
3, 266074, Pitch_bend_c, 1, 10792
3, 266081, Pitch_bend_c, 1, 10532
3, 266087, Pitch_bend_c, 1, 10142
3, 266093, Pitch_bend_c, 1, 9752
3, 266099, Pitch_bend_c, 1, 9362
3, 266104, Pitch_bend_c, 1, 9102
3, 266110, Pitch_bend_c, 1, 8712
3, 266116, Pitch_bend_c, 1, 8192
3, 266119, Pitch_bend_c, 1, 8192
3, 266129, Pitch_bend_c, 1, 8192
3, 266818, Note_on_c, 1, 41, 0
3, 266848, Note_on_c, 1, 34, 70
3, 267697, Note_on_c, 1, 46, 60
3, 267725, Note_on_c, 1, 46, 0
3, 267840, Note_on_c, 1, 50, 110
3, 268144, Note_on_c, 1, 50, 0
3, 268171, Note_on_c, 1, 48, 85
3, 268251, Note_on_c, 1, 48, 0
3, 268287, Note_on_c, 1, 34, 0
3, 268313, Note_on_c, 1, 46, 70
3, 268374, Note_on_c, 1, 46, 0
3, 268650, Note_on_c, 1, 44, 75
3, 268750, Note_on_c, 1, 44, 0
3, 268807, Note_on_c, 1, 43, 54
3, 269275, Note_on_c, 1, 43, 0
3, 269278, Note_on_c, 1, 39, 78
3, 269718, Note_on_c, 1, 39, 0
3, 269769, Note_on_c, 1, 38, 88
3, 270259, Note_on_c, 1, 42, 89
3, 270299, Note_on_c, 1, 38, 0
3, 270606, Note_on_c, 1, 38, 42
3, 270669, Note_on_c, 1, 38, 0
3, 270677, Note_on_c, 1, 42, 0
3, 270720, Note_on_c, 1, 41, 69
3, 271209, Note_on_c, 1, 37, 78
3, 271211, Note_on_c, 1, 41, 0
3, 271663, Note_on_c, 1, 37, 0
3, 271690, Note_on_c, 1, 36, 73
3, 272007, Note_on_c, 1, 51, 86
3, 272094, Note_on_c, 1, 51, 0
3, 272152, Note_on_c, 1, 36, 0
3, 272190, Note_on_c, 1, 49, 75
3, 272464, Note_on_c, 1, 49, 0
3, 272609, Note_on_c, 1, 48, 82
3, 272827, Note_on_c, 1, 48, 0
3, 272965, Note_on_c, 1, 44, 81
3, 273040, Note_on_c, 1, 44, 0
3, 273118, Note_on_c, 1, 41, 58
3, 274037, Note_on_c, 1, 41, 0
3, 274052, Note_on_c, 1, 33, 73
3, 274529, Note_on_c, 1, 33, 0
3, 274533, Note_on_c, 1, 34, 75
3, 275010, Note_on_c, 1, 46, 64
3, 275018, Note_on_c, 1, 47, 84
3, 275056, Note_on_c, 1, 34, 0
3, 275075, Note_on_c, 1, 46, 0
3, 275454, Note_on_c, 1, 47, 0
3, 275484, Note_on_c, 1, 46, 67
3, 276952, Note_on_c, 1, 34, 85
3, 276989, Note_on_c, 1, 46, 0
3, 277946, Note_on_c, 1, 46, 88
3, 278004, Note_on_c, 1, 46, 0
3, 278400, Note_on_c, 1, 46, 82
3, 278444, Note_on_c, 1, 34, 0
3, 279852, Note_on_c, 1, 34, 74
3, 279982, Note_on_c, 1, 34, 0
3, 280148, Note_on_c, 1, 33, 75
3, 280253, Note_on_c, 1, 33, 0
3, 280290, Note_on_c, 1, 46, 0
3, 280298, Note_on_c, 1, 34, 68
3, 280777, Note_on_c, 1, 34, 0
3, 280789, Note_on_c, 1, 46, 86
3, 281017, Note_on_c, 1, 46, 0
3, 281268, Note_on_c, 1, 46, 90
3, 281318, Control_c, 1, 1, 3
3, 281322, Control_c, 1, 1, 5
3, 281330, Control_c, 1, 1, 9
3, 281333, Control_c, 1, 1, 10
3, 281337, Control_c, 1, 1, 11
3, 281339, Control_c, 1, 1, 13
3, 281343, Control_c, 1, 1, 14
3, 281345, Control_c, 1, 1, 16
3, 281348, Control_c, 1, 1, 17
3, 281352, Control_c, 1, 1, 19
3, 281355, Control_c, 1, 1, 20
3, 281358, Control_c, 1, 1, 21
3, 281361, Control_c, 1, 1, 23
3, 281364, Control_c, 1, 1, 24
3, 281368, Control_c, 1, 1, 26
3, 281370, Control_c, 1, 1, 28
3, 281373, Control_c, 1, 1, 29
3, 281377, Control_c, 1, 1, 31
3, 281379, Control_c, 1, 1, 33
3, 281383, Control_c, 1, 1, 34
3, 281386, Control_c, 1, 1, 35
3, 281388, Control_c, 1, 1, 37
3, 281392, Control_c, 1, 1, 39
3, 281395, Control_c, 1, 1, 41
3, 281398, Control_c, 1, 1, 42
3, 281402, Control_c, 1, 1, 44
3, 281405, Control_c, 1, 1, 46
3, 281408, Control_c, 1, 1, 47
3, 281411, Control_c, 1, 1, 49
3, 281413, Control_c, 1, 1, 50
3, 281417, Control_c, 1, 1, 52
3, 281420, Control_c, 1, 1, 53
3, 281423, Control_c, 1, 1, 55
3, 281426, Control_c, 1, 1, 56
3, 281429, Control_c, 1, 1, 57
3, 281433, Control_c, 1, 1, 60
3, 281435, Control_c, 1, 1, 61
3, 281438, Control_c, 1, 1, 62
3, 281442, Control_c, 1, 1, 64
3, 281445, Control_c, 1, 1, 65
3, 281448, Control_c, 1, 1, 67
3, 281451, Control_c, 1, 1, 69
3, 281453, Control_c, 1, 1, 70
3, 281456, Control_c, 1, 1, 72
3, 281460, Control_c, 1, 1, 73
3, 281463, Control_c, 1, 1, 75
3, 281466, Control_c, 1, 1, 76
3, 281469, Control_c, 1, 1, 78
3, 281472, Control_c, 1, 1, 79
3, 281475, Control_c, 1, 1, 80
3, 281478, Control_c, 1, 1, 81
3, 281481, Control_c, 1, 1, 83
3, 281485, Control_c, 1, 1, 84
3, 281493, Control_c, 1, 1, 87
3, 281496, Control_c, 1, 1, 88
3, 281500, Control_c, 1, 1, 89
3, 281508, Control_c, 1, 1, 91
3, 281511, Control_c, 1, 1, 93
3, 281521, Control_c, 1, 1, 95
3, 281529, Control_c, 1, 1, 97
3, 281538, Control_c, 1, 1, 99
3, 281547, Control_c, 1, 1, 101
3, 281556, Control_c, 1, 1, 102
3, 281565, Control_c, 1, 1, 104
3, 281574, Control_c, 1, 1, 105
3, 281583, Control_c, 1, 1, 107
3, 281595, Control_c, 1, 1, 109
3, 281606, Control_c, 1, 1, 110
3, 281623, Control_c, 1, 1, 111
3, 281636, Control_c, 1, 1, 112
3, 281716, Control_c, 1, 1, 111
3, 281734, Control_c, 1, 1, 110
3, 281749, Control_c, 1, 1, 109
3, 281763, Control_c, 1, 1, 108
3, 281774, Control_c, 1, 1, 106
3, 281789, Control_c, 1, 1, 105
3, 281798, Control_c, 1, 1, 104
3, 281807, Control_c, 1, 1, 103
3, 281816, Control_c, 1, 1, 102
3, 281825, Control_c, 1, 1, 101
3, 281834, Control_c, 1, 1, 99
3, 281843, Control_c, 1, 1, 97
3, 281851, Control_c, 1, 1, 95
3, 281860, Control_c, 1, 1, 92
3, 281863, Control_c, 1, 1, 91
3, 281867, Control_c, 1, 1, 90
3, 281876, Control_c, 1, 1, 87
3, 281878, Control_c, 1, 1, 86
3, 281882, Control_c, 1, 1, 84
3, 281884, Control_c, 1, 1, 83
3, 281887, Control_c, 1, 1, 81
3, 281891, Control_c, 1, 1, 80
3, 281893, Control_c, 1, 1, 79
3, 281897, Control_c, 1, 1, 77
3, 281900, Control_c, 1, 1, 75
3, 281903, Control_c, 1, 1, 74
3, 281906, Control_c, 1, 1, 72
3, 281909, Control_c, 1, 1, 70
3, 281912, Control_c, 1, 1, 68
3, 281916, Control_c, 1, 1, 66
3, 281918, Control_c, 1, 1, 65
3, 281922, Control_c, 1, 1, 62
3, 281925, Control_c, 1, 1, 60
3, 281927, Control_c, 1, 1, 58
3, 281931, Control_c, 1, 1, 55
3, 281934, Control_c, 1, 1, 53
3, 281937, Control_c, 1, 1, 50
3, 281940, Control_c, 1, 1, 48
3, 281943, Control_c, 1, 1, 46
3, 281947, Control_c, 1, 1, 43
3, 281950, Control_c, 1, 1, 40
3, 281952, Control_c, 1, 1, 37
3, 281956, Control_c, 1, 1, 34
3, 281959, Control_c, 1, 1, 32
3, 281962, Control_c, 1, 1, 29
3, 281966, Control_c, 1, 1, 27
3, 281969, Control_c, 1, 1, 24
3, 281972, Control_c, 1, 1, 21
3, 281975, Control_c, 1, 1, 18
3, 281977, Control_c, 1, 1, 15
3, 281981, Control_c, 1, 1, 13
3, 281984, Control_c, 1, 1, 10
3, 281987, Control_c, 1, 1, 7
3, 281990, Control_c, 1, 1, 5
3, 281993, Control_c, 1, 1, 2
3, 281997, Control_c, 1, 1, 0
3, 282348, Note_on_c, 1, 46, 0
3, 282676, Note_on_c, 1, 46, 91
3, 282992, Pitch_bend_c, 1, 8192
3, 283004, Pitch_bend_c, 1, 8712
3, 283010, Pitch_bend_c, 1, 8972
3, 283016, Pitch_bend_c, 1, 9232
3, 283022, Pitch_bend_c, 1, 9492
3, 283027, Pitch_bend_c, 1, 9882
3, 283034, Pitch_bend_c, 1, 10142
3, 283040, Pitch_bend_c, 1, 10402
3, 283046, Pitch_bend_c, 1, 10792
3, 283052, Pitch_bend_c, 1, 10922
3, 283057, Pitch_bend_c, 1, 11312
3, 283064, Pitch_bend_c, 1, 11442
3, 283069, Pitch_bend_c, 1, 11572
3, 283076, Pitch_bend_c, 1, 11702
3, 283127, Pitch_bend_c, 1, 11572
3, 283139, Pitch_bend_c, 1, 11442
3, 283150, Pitch_bend_c, 1, 11052
3, 283157, Pitch_bend_c, 1, 10922
3, 283163, Pitch_bend_c, 1, 10792
3, 283169, Pitch_bend_c, 1, 10662
3, 283175, Pitch_bend_c, 1, 10402
3, 283180, Pitch_bend_c, 1, 10142
3, 283186, Pitch_bend_c, 1, 10012
3, 283192, Pitch_bend_c, 1, 9752
3, 283199, Pitch_bend_c, 1, 9492
3, 283205, Pitch_bend_c, 1, 9232
3, 283210, Pitch_bend_c, 1, 8972
3, 283216, Pitch_bend_c, 1, 8712
3, 283222, Pitch_bend_c, 1, 8192
3, 283225, Pitch_bend_c, 1, 8192
3, 283229, Pitch_bend_c, 1, 8192
3, 283477, Pitch_bend_c, 1, 8192
3, 283486, Pitch_bend_c, 1, 8192
3, 283492, Pitch_bend_c, 1, 8712
3, 283498, Pitch_bend_c, 1, 8972
3, 283503, Pitch_bend_c, 1, 9232
3, 283510, Pitch_bend_c, 1, 9362
3, 283516, Pitch_bend_c, 1, 9492
3, 283522, Pitch_bend_c, 1, 9752
3, 283527, Pitch_bend_c, 1, 9882
3, 283533, Pitch_bend_c, 1, 10012
3, 283545, Pitch_bend_c, 1, 10142
3, 283586, Pitch_bend_c, 1, 10012
3, 283591, Pitch_bend_c, 1, 9882
3, 283597, Pitch_bend_c, 1, 9752
3, 283603, Pitch_bend_c, 1, 9492
3, 283610, Pitch_bend_c, 1, 9362
3, 283615, Pitch_bend_c, 1, 9102
3, 283621, Pitch_bend_c, 1, 8842
3, 283627, Pitch_bend_c, 1, 8192
3, 283630, Pitch_bend_c, 1, 8192
3, 283633, Pitch_bend_c, 1, 8192
3, 283636, Pitch_bend_c, 1, 8192
3, 284477, Note_on_c, 1, 38, 67
3, 284495, Note_on_c, 1, 46, 0
3, 284578, Note_on_c, 1, 38, 0
3, 284641, Note_on_c, 1, 50, 75
3, 285004, Note_on_c, 1, 50, 0
3, 285094, Note_on_c, 1, 54, 80
3, 285547, Note_on_c, 1, 54, 0
3, 285597, Note_on_c, 1, 38, 69
3, 286097, Note_on_c, 1, 55, 78
3, 286157, Note_on_c, 1, 38, 0
3, 286916, Note_on_c, 1, 38, 86
3, 286941, Note_on_c, 1, 55, 0
3, 287553, Note_on_c, 1, 52, 82
3, 287658, Note_on_c, 1, 38, 0
3, 287866, Note_on_c, 1, 44, 71
3, 287910, Note_on_c, 1, 52, 0
3, 287931, Note_on_c, 1, 44, 0
3, 288162, Note_on_c, 1, 38, 89
3, 288477, Note_on_c, 1, 45, 72
3, 288513, Note_on_c, 1, 38, 0
3, 288911, Note_on_c, 1, 45, 0
3, 288944, Note_on_c, 1, 50, 91
3, 289405, Note_on_c, 1, 50, 0
3, 289429, Note_on_c, 1, 38, 80
3, 290405, Note_on_c, 1, 47, 76
3, 290454, Note_on_c, 1, 38, 0
3, 291175, Note_on_c, 1, 47, 0
3, 291198, Note_on_c, 1, 38, 74
3, 291234, Note_on_c, 1, 38, 0
3, 291331, Note_on_c, 1, 40, 77
3, 291777, Note_on_c, 1, 40, 0
3, 291828, Note_on_c, 1, 41, 75
3, 292635, Note_on_c, 1, 36, 68
3, 292672, Note_on_c, 1, 36, 0
3, 292709, Note_on_c, 1, 41, 0
3, 292768, Note_on_c, 1, 32, 74
3, 293472, Note_on_c, 1, 34, 75
3, 293507, Note_on_c, 1, 32, 0
3, 293553, Note_on_c, 1, 34, 0
3, 293616, Note_on_c, 1, 35, 83
3, 293728, Note_on_c, 1, 35, 0
3, 293765, Note_on_c, 1, 36, 82
3, 294692, Note_on_c, 1, 36, 0
3, 294705, Note_on_c, 1, 31, 72
3, 295686, Note_on_c, 1, 29, 64
3, 295688, Note_on_c, 1, 31, 0
3, 296498, Note_on_c, 1, 41, 72
3, 296535, Note_on_c, 1, 41, 0
3, 296642, Note_on_c, 1, 29, 0
3, 296647, Note_on_c, 1, 46, 98
3, 297446, Note_on_c, 1, 44, 91
3, 297459, Note_on_c, 1, 46, 0
3, 297527, Note_on_c, 1, 44, 0
3, 297597, Note_on_c, 1, 43, 82
3, 297647, Note_on_c, 1, 43, 0
3, 298060, Note_on_c, 1, 37, 71
3, 298454, Note_on_c, 1, 34, 41
3, 298499, Note_on_c, 1, 37, 0
3, 298529, Note_on_c, 1, 34, 0
3, 298548, Note_on_c, 1, 36, 68
3, 299027, Note_on_c, 1, 48, 109
3, 299061, Note_on_c, 1, 36, 0
3, 299434, Note_on_c, 1, 48, 0
3, 299513, Note_on_c, 1, 29, 84
3, 300481, Note_on_c, 1, 29, 0
3, 300499, Note_on_c, 1, 31, 88
3, 301156, Note_on_c, 1, 32, 82
3, 301193, Note_on_c, 1, 31, 0
3, 301218, Note_on_c, 1, 32, 0
3, 301283, Note_on_c, 1, 33, 89
3, 301389, Note_on_c, 1, 33, 0
3, 301436, Note_on_c, 1, 34, 82
3, 302401, Note_on_c, 1, 46, 97
3, 302435, Note_on_c, 1, 34, 0
3, 303676, Note_on_c, 1, 46, 0
3, 303716, Note_on_c, 1, 46, 79
3, 303840, Note_on_c, 1, 46, 0
3, 304368, Note_on_c, 1, 46, 68
3, 304833, Note_on_c, 1, 46, 0
3, 304869, Note_on_c, 1, 34, 57
3, 305116, Note_on_c, 1, 34, 0
3, 305186, Note_on_c, 1, 34, 85
3, 307697, Note_on_c, 1, 46, 69
3, 307775, Note_on_c, 1, 46, 0
3, 308033, Note_on_c, 1, 41, 59
3, 308075, Note_on_c, 1, 41, 0
3, 308223, Note_on_c, 1, 46, 72
3, 308383, Note_on_c, 1, 34, 0
3, 308548, Note_on_c, 1, 46, 0
3, 308672, Note_on_c, 1, 34, 74
3, 308944, Note_on_c, 1, 34, 0
3, 309012, Note_on_c, 1, 34, 82
3, 310384, Note_on_c, 1, 44, 64
3, 310535, Note_on_c, 1, 44, 0
3, 310884, Note_on_c, 1, 46, 82
3, 311056, Note_on_c, 1, 34, 0
3, 312373, Note_on_c, 1, 41, 44
3, 312422, Note_on_c, 1, 41, 0
3, 312441, Note_on_c, 1, 46, 0
3, 312498, Note_on_c, 1, 34, 68
3, 312787, Note_on_c, 1, 34, 0
3, 312867, Note_on_c, 1, 34, 73
3, 314894, Note_on_c, 1, 46, 64
3, 314920, Note_on_c, 1, 34, 0
3, 322272, Note_on_c, 1, 46, 0
3, 322272, End_track
4, 0, Start_track
4, 0, Title_t, "Drums"
4, 0, Program_c, 9, 32
4, 0, Control_c, 9, 7, 106
4, 3, Note_on_c, 9, 59, 61
4, 118, Note_on_c, 9, 59, 0
4, 967, Note_on_c, 9, 59, 62
4, 1083, Note_on_c, 9, 59, 0
4, 1824, Note_on_c, 9, 59, 56
4, 1941, Note_on_c, 9, 59, 0
4, 1985, Note_on_c, 9, 59, 48
4, 2102, Note_on_c, 9, 59, 0
4, 2890, Note_on_c, 9, 59, 59
4, 3005, Note_on_c, 9, 59, 0
4, 3678, Note_on_c, 9, 59, 56
4, 3793, Note_on_c, 9, 59, 0
4, 3840, Note_on_c, 9, 59, 53
4, 3955, Note_on_c, 9, 59, 0
4, 4819, Note_on_c, 9, 59, 64
4, 4935, Note_on_c, 9, 59, 0
4, 5614, Note_on_c, 9, 59, 55
4, 5729, Note_on_c, 9, 59, 0
4, 5772, Note_on_c, 9, 59, 51
4, 5887, Note_on_c, 9, 59, 0
4, 6770, Note_on_c, 9, 59, 59
4, 6885, Note_on_c, 9, 59, 0
4, 7251, Note_on_c, 9, 59, 45
4, 7366, Note_on_c, 9, 59, 0
4, 7546, Note_on_c, 9, 46, 44
4, 7661, Note_on_c, 9, 46, 0
4, 8644, Note_on_c, 9, 59, 61
4, 8760, Note_on_c, 9, 59, 0
4, 9454, Note_on_c, 9, 59, 51
4, 9570, Note_on_c, 9, 59, 0
4, 9615, Note_on_c, 9, 59, 55
4, 9731, Note_on_c, 9, 59, 0
4, 10400, Note_on_c, 9, 59, 53
4, 10516, Note_on_c, 9, 59, 0
4, 10553, Note_on_c, 9, 59, 53
4, 10668, Note_on_c, 9, 59, 0
4, 11066, Note_on_c, 9, 59, 64
4, 11183, Note_on_c, 9, 59, 0
4, 11559, Note_on_c, 9, 59, 62
4, 11676, Note_on_c, 9, 59, 0
4, 12353, Note_on_c, 9, 59, 53
4, 12470, Note_on_c, 9, 59, 0
4, 12520, Note_on_c, 9, 59, 58
4, 12638, Note_on_c, 9, 59, 0
4, 12984, Note_on_c, 9, 59, 52
4, 13096, Note_on_c, 9, 59, 0
4, 13288, Note_on_c, 9, 40, 101
4, 13404, Note_on_c, 9, 40, 0
4, 13963, Note_on_c, 9, 46, 60
4, 13969, Note_on_c, 9, 36, 75
4, 14080, Note_on_c, 9, 46, 0
4, 14086, Note_on_c, 9, 36, 0
4, 15208, Note_on_c, 9, 46, 37
4, 15212, Note_on_c, 9, 59, 60
4, 15324, Note_on_c, 9, 46, 0
4, 15327, Note_on_c, 9, 59, 0
4, 16353, Note_on_c, 9, 59, 53
4, 16468, Note_on_c, 9, 59, 0
4, 17166, Note_on_c, 9, 59, 56
4, 17281, Note_on_c, 9, 59, 0
4, 17336, Note_on_c, 9, 59, 51
4, 17448, Note_on_c, 9, 59, 0
4, 18075, Note_on_c, 9, 59, 53
4, 18190, Note_on_c, 9, 59, 0
4, 18233, Note_on_c, 9, 59, 57
4, 18345, Note_on_c, 9, 59, 0
4, 18683, Note_on_c, 9, 59, 44
4, 18800, Note_on_c, 9, 59, 0
4, 18993, Note_on_c, 9, 59, 68
4, 19110, Note_on_c, 9, 59, 0
4, 20156, Note_on_c, 9, 59, 56
4, 20270, Note_on_c, 9, 59, 0
4, 20990, Note_on_c, 9, 59, 59
4, 21105, Note_on_c, 9, 59, 0
4, 21456, Note_on_c, 9, 59, 59
4, 21571, Note_on_c, 9, 59, 0
4, 21639, Note_on_c, 9, 59, 56
4, 21754, Note_on_c, 9, 59, 0
4, 22435, Note_on_c, 9, 59, 61
4, 22548, Note_on_c, 9, 59, 0
4, 22907, Note_on_c, 9, 59, 61
4, 23024, Note_on_c, 9, 59, 0
4, 23869, Note_on_c, 9, 59, 56
4, 23982, Note_on_c, 9, 59, 0
4, 24051, Note_on_c, 9, 59, 53
4, 24167, Note_on_c, 9, 59, 0
4, 24830, Note_on_c, 9, 59, 56
4, 24947, Note_on_c, 9, 59, 0
4, 24992, Note_on_c, 9, 59, 51
4, 25108, Note_on_c, 9, 59, 0
4, 25484, Note_on_c, 9, 59, 63
4, 25601, Note_on_c, 9, 59, 0
4, 26216, Note_on_c, 9, 59, 51
4, 26331, Note_on_c, 9, 59, 0
4, 26368, Note_on_c, 9, 59, 56
4, 26483, Note_on_c, 9, 59, 0
4, 26907, Note_on_c, 9, 59, 61
4, 27022, Note_on_c, 9, 59, 0
4, 27695, Note_on_c, 9, 59, 61
4, 27810, Note_on_c, 9, 59, 0
4, 28182, Note_on_c, 9, 40, 16
4, 28297, Note_on_c, 9, 40, 0
4, 28629, Note_on_c, 9, 40, 108
4, 28744, Note_on_c, 9, 40, 0
4, 29076, Note_on_c, 9, 36, 94
4, 29082, Note_on_c, 9, 46, 61
4, 29191, Note_on_c, 9, 36, 0
4, 29197, Note_on_c, 9, 46, 0
4, 30530, Note_on_c, 9, 46, 48
4, 30645, Note_on_c, 9, 46, 0
4, 30728, Note_on_c, 9, 59, 61
4, 30844, Note_on_c, 9, 59, 0
4, 31724, Note_on_c, 9, 59, 47
4, 31839, Note_on_c, 9, 59, 0
4, 32475, Note_on_c, 9, 59, 50
4, 32590, Note_on_c, 9, 59, 0
4, 32648, Note_on_c, 9, 59, 50
4, 32764, Note_on_c, 9, 59, 0
4, 33619, Note_on_c, 9, 59, 61
4, 33735, Note_on_c, 9, 59, 0
4, 34416, Note_on_c, 9, 59, 44
4, 34531, Note_on_c, 9, 59, 0
4, 34581, Note_on_c, 9, 59, 51
4, 34696, Note_on_c, 9, 59, 0
4, 35333, Note_on_c, 9, 59, 53
4, 35448, Note_on_c, 9, 59, 0
4, 35496, Note_on_c, 9, 59, 58
4, 35613, Note_on_c, 9, 59, 0
4, 35969, Note_on_c, 9, 59, 43
4, 36085, Note_on_c, 9, 59, 0
4, 36289, Note_on_c, 9, 59, 65
4, 36404, Note_on_c, 9, 59, 0
4, 37003, Note_on_c, 9, 59, 53
4, 37118, Note_on_c, 9, 59, 0
4, 37747, Note_on_c, 9, 59, 61
4, 37862, Note_on_c, 9, 59, 0
4, 38256, Note_on_c, 9, 59, 51
4, 38373, Note_on_c, 9, 59, 0
4, 38436, Note_on_c, 9, 59, 50
4, 38553, Note_on_c, 9, 59, 0
4, 39214, Note_on_c, 9, 59, 51
4, 39329, Note_on_c, 9, 59, 0
4, 39385, Note_on_c, 9, 59, 48
4, 39502, Note_on_c, 9, 59, 0
4, 39849, Note_on_c, 9, 59, 50
4, 39964, Note_on_c, 9, 59, 0
4, 40175, Note_on_c, 9, 59, 63
4, 40287, Note_on_c, 9, 59, 0
4, 40835, Note_on_c, 9, 59, 53
4, 40951, Note_on_c, 9, 59, 0
4, 41109, Note_on_c, 9, 59, 61
4, 41221, Note_on_c, 9, 59, 0
4, 41760, Note_on_c, 9, 59, 47
4, 41875, Note_on_c, 9, 59, 0
4, 42067, Note_on_c, 9, 59, 72
4, 42183, Note_on_c, 9, 59, 0
4, 42734, Note_on_c, 9, 59, 64
4, 42849, Note_on_c, 9, 59, 0
4, 43171, Note_on_c, 9, 59, 49
4, 43287, Note_on_c, 9, 59, 0
4, 43537, Note_on_c, 9, 59, 61
4, 43653, Note_on_c, 9, 59, 0
4, 44003, Note_on_c, 9, 59, 67
4, 44118, Note_on_c, 9, 59, 0
4, 44709, Note_on_c, 9, 59, 53
4, 44824, Note_on_c, 9, 59, 0
4, 45016, Note_on_c, 9, 59, 67
4, 45132, Note_on_c, 9, 59, 0
4, 45473, Note_on_c, 9, 59, 63
4, 45588, Note_on_c, 9, 59, 0
4, 45624, Note_on_c, 9, 59, 64
4, 45740, Note_on_c, 9, 59, 0
4, 46379, Note_on_c, 9, 59, 58
4, 46492, Note_on_c, 9, 59, 0
4, 46543, Note_on_c, 9, 59, 48
4, 46660, Note_on_c, 9, 59, 0
4, 47104, Note_on_c, 9, 59, 58
4, 47219, Note_on_c, 9, 59, 0
4, 47532, Note_on_c, 9, 59, 42
4, 47649, Note_on_c, 9, 59, 0
4, 47858, Note_on_c, 9, 59, 70
4, 47973, Note_on_c, 9, 59, 0
4, 48810, Note_on_c, 9, 59, 55
4, 48927, Note_on_c, 9, 59, 0
4, 48984, Note_on_c, 9, 59, 53
4, 49099, Note_on_c, 9, 59, 0
4, 49918, Note_on_c, 9, 59, 59
4, 50032, Note_on_c, 9, 59, 0
4, 50736, Note_on_c, 9, 59, 51
4, 50853, Note_on_c, 9, 59, 0
4, 50904, Note_on_c, 9, 59, 49
4, 51020, Note_on_c, 9, 59, 0
4, 51687, Note_on_c, 9, 36, 75
4, 51688, Note_on_c, 9, 46, 65
4, 51802, Note_on_c, 9, 36, 0
4, 51806, Note_on_c, 9, 46, 0
4, 52833, Note_on_c, 9, 59, 57
4, 52950, Note_on_c, 9, 59, 0
4, 53142, Note_on_c, 9, 59, 56
4, 53257, Note_on_c, 9, 59, 0
4, 53297, Note_on_c, 9, 59, 60
4, 53412, Note_on_c, 9, 59, 0
4, 53804, Note_on_c, 9, 59, 68
4, 53921, Note_on_c, 9, 59, 0
4, 54566, Note_on_c, 9, 59, 51
4, 54678, Note_on_c, 9, 59, 0
4, 54739, Note_on_c, 9, 59, 59
4, 54855, Note_on_c, 9, 59, 0
4, 55549, Note_on_c, 9, 59, 51
4, 55664, Note_on_c, 9, 59, 0
4, 55704, Note_on_c, 9, 59, 61
4, 55819, Note_on_c, 9, 59, 0
4, 56672, Note_on_c, 9, 59, 62
4, 56784, Note_on_c, 9, 59, 0
4, 57164, Note_on_c, 9, 59, 42
4, 57280, Note_on_c, 9, 59, 0
4, 57459, Note_on_c, 9, 59, 67
4, 57575, Note_on_c, 9, 59, 0
4, 58123, Note_on_c, 9, 59, 69
4, 58238, Note_on_c, 9, 59, 0
4, 59082, Note_on_c, 9, 59, 57
4, 59197, Note_on_c, 9, 59, 0
4, 59383, Note_on_c, 9, 40, 107
4, 59498, Note_on_c, 9, 40, 0
4, 60071, Note_on_c, 9, 36, 102
4, 60077, Note_on_c, 9, 46, 75
4, 60186, Note_on_c, 9, 36, 0
4, 60192, Note_on_c, 9, 46, 0
4, 60811, Note_on_c, 9, 40, 26
4, 60926, Note_on_c, 9, 40, 0
4, 60962, Note_on_c, 9, 40, 119
4, 61078, Note_on_c, 9, 40, 0
4, 61440, Note_on_c, 9, 59, 45
4, 61555, Note_on_c, 9, 59, 0
4, 61920, Note_on_c, 9, 59, 42
4, 62035, Note_on_c, 9, 59, 0
4, 62400, Note_on_c, 9, 59, 44
4, 62515, Note_on_c, 9, 59, 0
4, 62880, Note_on_c, 9, 59, 51
4, 62995, Note_on_c, 9, 59, 0
4, 63360, Note_on_c, 9, 59, 48
4, 63475, Note_on_c, 9, 59, 0
4, 63840, Note_on_c, 9, 59, 48
4, 63955, Note_on_c, 9, 59, 0
4, 64320, Note_on_c, 9, 59, 49
4, 64435, Note_on_c, 9, 59, 0
4, 64800, Note_on_c, 9, 59, 48
4, 64917, Note_on_c, 9, 59, 0
4, 65280, Note_on_c, 9, 59, 48
4, 65397, Note_on_c, 9, 59, 0
4, 65760, Note_on_c, 9, 59, 50
4, 65873, Note_on_c, 9, 59, 0
4, 66240, Note_on_c, 9, 59, 50
4, 66355, Note_on_c, 9, 59, 0
4, 66720, Note_on_c, 9, 59, 47
4, 66835, Note_on_c, 9, 59, 0
4, 67200, Note_on_c, 9, 59, 48
4, 67315, Note_on_c, 9, 59, 0
4, 67680, Note_on_c, 9, 59, 50
4, 67795, Note_on_c, 9, 59, 0
4, 68160, Note_on_c, 9, 59, 50
4, 68276, Note_on_c, 9, 59, 0
4, 68640, Note_on_c, 9, 59, 47
4, 68755, Note_on_c, 9, 59, 0
4, 69120, Note_on_c, 9, 59, 50
4, 69232, Note_on_c, 9, 59, 0
4, 69600, Note_on_c, 9, 59, 47
4, 69712, Note_on_c, 9, 59, 0
4, 70080, Note_on_c, 9, 59, 49
4, 70195, Note_on_c, 9, 59, 0
4, 70560, Note_on_c, 9, 59, 56
4, 70676, Note_on_c, 9, 59, 0
4, 71040, Note_on_c, 9, 59, 47
4, 71155, Note_on_c, 9, 59, 0
4, 71520, Note_on_c, 9, 59, 47
4, 71636, Note_on_c, 9, 59, 0
4, 72000, Note_on_c, 9, 59, 53
4, 72116, Note_on_c, 9, 59, 0
4, 72480, Note_on_c, 9, 59, 50
4, 72596, Note_on_c, 9, 59, 0
4, 72960, Note_on_c, 9, 59, 53
4, 73075, Note_on_c, 9, 59, 0
4, 73440, Note_on_c, 9, 59, 45
4, 73555, Note_on_c, 9, 59, 0
4, 73920, Note_on_c, 9, 59, 53
4, 74037, Note_on_c, 9, 59, 0
4, 74400, Note_on_c, 9, 59, 53
4, 74516, Note_on_c, 9, 59, 0
4, 74880, Note_on_c, 9, 59, 53
4, 74996, Note_on_c, 9, 59, 0
4, 75360, Note_on_c, 9, 59, 48
4, 75477, Note_on_c, 9, 59, 0
4, 75840, Note_on_c, 9, 59, 47
4, 75957, Note_on_c, 9, 59, 0
4, 76320, Note_on_c, 9, 59, 53
4, 76434, Note_on_c, 9, 59, 0
4, 76661, Note_on_c, 9, 59, 78
4, 76667, Note_on_c, 9, 40, 99
4, 76778, Note_on_c, 9, 59, 0
4, 76784, Note_on_c, 9, 40, 0
4, 77280, Note_on_c, 9, 59, 49
4, 77397, Note_on_c, 9, 59, 0
4, 77760, Note_on_c, 9, 59, 51
4, 77877, Note_on_c, 9, 59, 0
4, 78240, Note_on_c, 9, 59, 58
4, 78240, Note_on_c, 9, 44, 35
4, 78277, Note_on_c, 9, 44, 0
4, 78357, Note_on_c, 9, 59, 0
4, 78720, Note_on_c, 9, 59, 51
4, 78837, Note_on_c, 9, 59, 0
4, 79200, Note_on_c, 9, 59, 56
4, 79200, Note_on_c, 9, 44, 35
4, 79239, Note_on_c, 9, 44, 0
4, 79316, Note_on_c, 9, 59, 0
4, 79680, Note_on_c, 9, 59, 53
4, 79797, Note_on_c, 9, 59, 0
4, 80160, Note_on_c, 9, 59, 59
4, 80160, Note_on_c, 9, 44, 35
4, 80195, Note_on_c, 9, 44, 0
4, 80277, Note_on_c, 9, 59, 0
4, 80640, Note_on_c, 9, 59, 53
4, 80754, Note_on_c, 9, 59, 0
4, 81120, Note_on_c, 9, 59, 59
4, 81120, Note_on_c, 9, 44, 35
4, 81158, Note_on_c, 9, 44, 0
4, 81235, Note_on_c, 9, 59, 0
4, 81600, Note_on_c, 9, 59, 57
4, 81715, Note_on_c, 9, 59, 0
4, 82080, Note_on_c, 9, 59, 58
4, 82080, Note_on_c, 9, 44, 35
4, 82120, Note_on_c, 9, 44, 0
4, 82192, Note_on_c, 9, 59, 0
4, 82560, Note_on_c, 9, 59, 58
4, 82675, Note_on_c, 9, 59, 0
4, 83040, Note_on_c, 9, 59, 56
4, 83040, Note_on_c, 9, 44, 35
4, 83077, Note_on_c, 9, 44, 0
4, 83155, Note_on_c, 9, 59, 0
4, 83520, Note_on_c, 9, 59, 56
4, 83632, Note_on_c, 9, 59, 0
4, 84000, Note_on_c, 9, 59, 55
4, 84000, Note_on_c, 9, 44, 35
4, 84037, Note_on_c, 9, 44, 0
4, 84115, Note_on_c, 9, 59, 0
4, 84480, Note_on_c, 9, 59, 50
4, 84595, Note_on_c, 9, 59, 0
4, 84960, Note_on_c, 9, 59, 55
4, 84960, Note_on_c, 9, 44, 35
4, 84996, Note_on_c, 9, 44, 0
4, 85075, Note_on_c, 9, 59, 0
4, 85440, Note_on_c, 9, 59, 53
4, 85555, Note_on_c, 9, 59, 0
4, 85920, Note_on_c, 9, 59, 61
4, 85920, Note_on_c, 9, 44, 35
4, 85957, Note_on_c, 9, 44, 0
4, 86035, Note_on_c, 9, 59, 0
4, 86400, Note_on_c, 9, 59, 58
4, 86516, Note_on_c, 9, 59, 0
4, 86880, Note_on_c, 9, 59, 59
4, 86880, Note_on_c, 9, 44, 35
4, 86917, Note_on_c, 9, 44, 0
4, 86997, Note_on_c, 9, 59, 0
4, 87360, Note_on_c, 9, 59, 59
4, 87476, Note_on_c, 9, 59, 0
4, 87840, Note_on_c, 9, 59, 60
4, 87840, Note_on_c, 9, 44, 35
4, 87880, Note_on_c, 9, 44, 0
4, 87957, Note_on_c, 9, 59, 0
4, 88320, Note_on_c, 9, 59, 59
4, 88434, Note_on_c, 9, 59, 0
4, 88800, Note_on_c, 9, 59, 61
4, 88800, Note_on_c, 9, 44, 35
4, 88839, Note_on_c, 9, 44, 0
4, 88917, Note_on_c, 9, 59, 0
4, 89280, Note_on_c, 9, 59, 58
4, 89397, Note_on_c, 9, 59, 0
4, 89760, Note_on_c, 9, 59, 62
4, 89760, Note_on_c, 9, 44, 35
4, 89795, Note_on_c, 9, 44, 0
4, 89877, Note_on_c, 9, 59, 0
4, 90240, Note_on_c, 9, 59, 56
4, 90358, Note_on_c, 9, 59, 0
4, 90720, Note_on_c, 9, 59, 63
4, 90720, Note_on_c, 9, 44, 35
4, 90757, Note_on_c, 9, 44, 0
4, 90835, Note_on_c, 9, 59, 0
4, 91200, Note_on_c, 9, 59, 75
4, 91216, Note_on_c, 9, 40, 101
4, 91317, Note_on_c, 9, 59, 0
4, 91330, Note_on_c, 9, 40, 0
4, 91680, Note_on_c, 9, 59, 61
4, 91796, Note_on_c, 9, 59, 0
4, 92000, Note_on_c, 9, 36, 81
4, 92015, Note_on_c, 9, 46, 71
4, 92115, Note_on_c, 9, 36, 0
4, 92127, Note_on_c, 9, 46, 0
4, 92620, Note_on_c, 9, 44, 35
4, 92660, Note_on_c, 9, 44, 0
4, 92660, Note_on_c, 9, 51, 40
4, 92772, Note_on_c, 9, 51, 0
4, 93150, Note_on_c, 9, 51, 45
4, 93265, Note_on_c, 9, 51, 0
4, 93606, Note_on_c, 9, 44, 35
4, 93624, Note_on_c, 9, 51, 47
4, 93642, Note_on_c, 9, 44, 0
4, 93740, Note_on_c, 9, 51, 0
4, 94108, Note_on_c, 9, 51, 39
4, 94224, Note_on_c, 9, 51, 0
4, 94425, Note_on_c, 9, 51, 43
4, 94528, Note_on_c, 9, 44, 35
4, 94540, Note_on_c, 9, 51, 0
4, 94561, Note_on_c, 9, 51, 49
4, 94565, Note_on_c, 9, 44, 0
4, 94677, Note_on_c, 9, 51, 0
4, 95067, Note_on_c, 9, 51, 50
4, 95182, Note_on_c, 9, 51, 0
4, 95520, Note_on_c, 9, 44, 35
4, 95536, Note_on_c, 9, 51, 50
4, 95557, Note_on_c, 9, 44, 0
4, 95651, Note_on_c, 9, 51, 0
4, 95877, Note_on_c, 9, 51, 42
4, 95992, Note_on_c, 9, 51, 0
4, 96016, Note_on_c, 9, 51, 50
4, 96131, Note_on_c, 9, 51, 0
4, 96481, Note_on_c, 9, 44, 35
4, 96499, Note_on_c, 9, 51, 53
4, 96523, Note_on_c, 9, 44, 0
4, 96612, Note_on_c, 9, 51, 0
4, 96850, Note_on_c, 9, 51, 45
4, 96965, Note_on_c, 9, 51, 0
4, 96999, Note_on_c, 9, 51, 44
4, 97114, Note_on_c, 9, 51, 0
4, 97443, Note_on_c, 9, 44, 35
4, 97464, Note_on_c, 9, 51, 57
4, 97480, Note_on_c, 9, 44, 0
4, 97580, Note_on_c, 9, 51, 0
4, 97812, Note_on_c, 9, 51, 52
4, 97927, Note_on_c, 9, 51, 0
4, 97958, Note_on_c, 9, 51, 50
4, 98073, Note_on_c, 9, 51, 0
4, 98392, Note_on_c, 9, 44, 35
4, 98414, Note_on_c, 9, 51, 60
4, 98429, Note_on_c, 9, 44, 0
4, 98529, Note_on_c, 9, 51, 0
4, 98761, Note_on_c, 9, 51, 47
4, 98873, Note_on_c, 9, 51, 0
4, 98910, Note_on_c, 9, 51, 49
4, 99025, Note_on_c, 9, 51, 0
4, 99338, Note_on_c, 9, 44, 35
4, 99376, Note_on_c, 9, 51, 62
4, 99379, Note_on_c, 9, 44, 0
4, 99491, Note_on_c, 9, 51, 0
4, 99701, Note_on_c, 9, 51, 47
4, 99816, Note_on_c, 9, 51, 0
4, 99844, Note_on_c, 9, 51, 54
4, 99959, Note_on_c, 9, 51, 0
4, 100321, Note_on_c, 9, 44, 35
4, 100325, Note_on_c, 9, 51, 63
4, 100362, Note_on_c, 9, 44, 0
4, 100441, Note_on_c, 9, 51, 0
4, 100659, Note_on_c, 9, 51, 50
4, 100775, Note_on_c, 9, 51, 0
4, 100805, Note_on_c, 9, 51, 50
4, 100922, Note_on_c, 9, 51, 0
4, 101296, Note_on_c, 9, 51, 60
4, 101301, Note_on_c, 9, 44, 35
4, 101338, Note_on_c, 9, 44, 0
4, 101412, Note_on_c, 9, 51, 0
4, 101646, Note_on_c, 9, 51, 52
4, 101761, Note_on_c, 9, 51, 0
4, 101785, Note_on_c, 9, 51, 52
4, 101900, Note_on_c, 9, 51, 0
4, 102254, Note_on_c, 9, 44, 35
4, 102266, Note_on_c, 9, 51, 63
4, 102294, Note_on_c, 9, 44, 0
4, 102380, Note_on_c, 9, 51, 0
4, 102607, Note_on_c, 9, 51, 50
4, 102722, Note_on_c, 9, 51, 0
4, 102753, Note_on_c, 9, 51, 47
4, 102870, Note_on_c, 9, 51, 0
4, 103200, Note_on_c, 9, 44, 35
4, 103220, Note_on_c, 9, 51, 61
4, 103237, Note_on_c, 9, 44, 0
4, 103335, Note_on_c, 9, 51, 0
4, 103557, Note_on_c, 9, 51, 45
4, 103673, Note_on_c, 9, 51, 0
4, 103712, Note_on_c, 9, 51, 47
4, 103828, Note_on_c, 9, 51, 0
4, 104151, Note_on_c, 9, 44, 35
4, 104171, Note_on_c, 9, 51, 63
4, 104189, Note_on_c, 9, 44, 0
4, 104288, Note_on_c, 9, 51, 0
4, 104515, Note_on_c, 9, 51, 53
4, 104629, Note_on_c, 9, 51, 0
4, 104667, Note_on_c, 9, 51, 43
4, 104784, Note_on_c, 9, 51, 0
4, 105100, Note_on_c, 9, 44, 35
4, 105125, Note_on_c, 9, 51, 63
4, 105140, Note_on_c, 9, 44, 0
4, 105240, Note_on_c, 9, 51, 0
4, 105450, Note_on_c, 9, 51, 49
4, 105566, Note_on_c, 9, 51, 0
4, 105596, Note_on_c, 9, 51, 45
4, 105712, Note_on_c, 9, 51, 0
4, 106071, Note_on_c, 9, 44, 35
4, 106077, Note_on_c, 9, 51, 61
4, 106108, Note_on_c, 9, 44, 0
4, 106192, Note_on_c, 9, 51, 0
4, 106418, Note_on_c, 9, 51, 51
4, 106533, Note_on_c, 9, 51, 0
4, 106564, Note_on_c, 9, 51, 46
4, 106679, Note_on_c, 9, 51, 0
4, 107038, Note_on_c, 9, 44, 35
4, 107045, Note_on_c, 9, 51, 60
4, 107079, Note_on_c, 9, 44, 0
4, 107160, Note_on_c, 9, 51, 0
4, 107374, Note_on_c, 9, 51, 53
4, 107489, Note_on_c, 9, 51, 0
4, 107528, Note_on_c, 9, 51, 47
4, 107644, Note_on_c, 9, 51, 0
4, 108000, Note_on_c, 9, 51, 60
4, 108003, Note_on_c, 9, 44, 35
4, 108043, Note_on_c, 9, 44, 0
4, 108115, Note_on_c, 9, 51, 0
4, 108332, Note_on_c, 9, 51, 45
4, 108447, Note_on_c, 9, 51, 0
4, 108481, Note_on_c, 9, 51, 47
4, 108596, Note_on_c, 9, 51, 0
4, 108961, Note_on_c, 9, 51, 60
4, 108968, Note_on_c, 9, 44, 35
4, 109008, Note_on_c, 9, 44, 0
4, 109077, Note_on_c, 9, 51, 0
4, 109306, Note_on_c, 9, 51, 54
4, 109421, Note_on_c, 9, 51, 0
4, 109455, Note_on_c, 9, 51, 49
4, 109570, Note_on_c, 9, 51, 0
4, 109914, Note_on_c, 9, 44, 35
4, 109929, Note_on_c, 9, 51, 62
4, 109951, Note_on_c, 9, 44, 0
4, 110044, Note_on_c, 9, 51, 0
4, 110282, Note_on_c, 9, 51, 50
4, 110398, Note_on_c, 9, 51, 0
4, 110440, Note_on_c, 9, 51, 46
4, 110556, Note_on_c, 9, 51, 0
4, 110891, Note_on_c, 9, 44, 35
4, 110906, Note_on_c, 9, 51, 63
4, 110931, Note_on_c, 9, 44, 0
4, 111022, Note_on_c, 9, 51, 0
4, 111256, Note_on_c, 9, 51, 52
4, 111372, Note_on_c, 9, 51, 0
4, 111408, Note_on_c, 9, 51, 47
4, 111523, Note_on_c, 9, 51, 0
4, 111883, Note_on_c, 9, 44, 35
4, 111889, Note_on_c, 9, 51, 64
4, 111923, Note_on_c, 9, 44, 0
4, 112005, Note_on_c, 9, 51, 0
4, 112236, Note_on_c, 9, 51, 53
4, 112352, Note_on_c, 9, 51, 0
4, 112376, Note_on_c, 9, 51, 47
4, 112491, Note_on_c, 9, 51, 0
4, 112835, Note_on_c, 9, 44, 35
4, 112857, Note_on_c, 9, 51, 66
4, 112872, Note_on_c, 9, 44, 0
4, 112972, Note_on_c, 9, 51, 0
4, 113192, Note_on_c, 9, 51, 50
4, 113304, Note_on_c, 9, 51, 0
4, 113338, Note_on_c, 9, 51, 47
4, 113453, Note_on_c, 9, 51, 0
4, 113794, Note_on_c, 9, 44, 35
4, 113818, Note_on_c, 9, 51, 67
4, 113831, Note_on_c, 9, 44, 0
4, 113934, Note_on_c, 9, 51, 0
4, 114147, Note_on_c, 9, 51, 50
4, 114263, Note_on_c, 9, 51, 0
4, 114302, Note_on_c, 9, 51, 44
4, 114417, Note_on_c, 9, 51, 0
4, 114752, Note_on_c, 9, 44, 35
4, 114780, Note_on_c, 9, 51, 60
4, 114792, Note_on_c, 9, 44, 0
4, 114895, Note_on_c, 9, 51, 0
4, 115096, Note_on_c, 9, 40, 107
4, 115105, Note_on_c, 9, 51, 72
4, 115208, Note_on_c, 9, 40, 0
4, 115221, Note_on_c, 9, 51, 0
4, 115704, Note_on_c, 9, 44, 35
4, 115729, Note_on_c, 9, 51, 61
4, 115742, Note_on_c, 9, 44, 0
4, 115841, Note_on_c, 9, 51, 0
4, 116049, Note_on_c, 9, 51, 47
4, 116164, Note_on_c, 9, 51, 0
4, 116204, Note_on_c, 9, 51, 45
4, 116319, Note_on_c, 9, 51, 0
4, 116682, Note_on_c, 9, 44, 35
4, 116684, Note_on_c, 9, 51, 61
4, 116718, Note_on_c, 9, 44, 0
4, 116801, Note_on_c, 9, 51, 0
4, 117162, Note_on_c, 9, 51, 53
4, 117279, Note_on_c, 9, 51, 0
4, 117491, Note_on_c, 9, 51, 58
4, 117605, Note_on_c, 9, 51, 0
4, 117605, Note_on_c, 9, 44, 35
4, 117631, Note_on_c, 9, 51, 54
4, 117643, Note_on_c, 9, 44, 0
4, 117747, Note_on_c, 9, 51, 0
4, 118151, Note_on_c, 9, 51, 64
4, 118266, Note_on_c, 9, 51, 0
4, 118560, Note_on_c, 9, 44, 35
4, 118588, Note_on_c, 9, 51, 58
4, 118599, Note_on_c, 9, 44, 0
4, 118703, Note_on_c, 9, 51, 0
4, 118904, Note_on_c, 9, 36, 65
4, 118927, Note_on_c, 9, 51, 70
4, 119019, Note_on_c, 9, 36, 0
4, 119044, Note_on_c, 9, 51, 0
4, 119552, Note_on_c, 9, 44, 35
4, 119555, Note_on_c, 9, 51, 57
4, 119587, Note_on_c, 9, 44, 0
4, 119667, Note_on_c, 9, 51, 0
4, 119907, Note_on_c, 9, 51, 51
4, 120021, Note_on_c, 9, 51, 0
4, 120071, Note_on_c, 9, 51, 47
4, 120188, Note_on_c, 9, 51, 0
4, 120526, Note_on_c, 9, 44, 35
4, 120534, Note_on_c, 9, 51, 57
4, 120561, Note_on_c, 9, 44, 0
4, 120650, Note_on_c, 9, 51, 0
4, 121004, Note_on_c, 9, 40, 101
4, 121119, Note_on_c, 9, 40, 0
4, 121325, Note_on_c, 9, 36, 84
4, 121325, Note_on_c, 9, 51, 71
4, 121437, Note_on_c, 9, 36, 0
4, 121441, Note_on_c, 9, 51, 0
4, 122918, Note_on_c, 9, 59, 56
4, 123033, Note_on_c, 9, 59, 0
4, 123383, Note_on_c, 9, 44, 35
4, 123408, Note_on_c, 9, 59, 51
4, 123423, Note_on_c, 9, 44, 0
4, 123523, Note_on_c, 9, 59, 0
4, 123888, Note_on_c, 9, 59, 50
4, 124001, Note_on_c, 9, 59, 0
4, 124336, Note_on_c, 9, 44, 35
4, 124360, Note_on_c, 9, 59, 53
4, 124375, Note_on_c, 9, 44, 0
4, 124475, Note_on_c, 9, 59, 0
4, 124844, Note_on_c, 9, 59, 55
4, 124959, Note_on_c, 9, 59, 0
4, 125306, Note_on_c, 9, 44, 35
4, 125326, Note_on_c, 9, 59, 59
4, 125347, Note_on_c, 9, 44, 0
4, 125440, Note_on_c, 9, 59, 0
4, 125793, Note_on_c, 9, 59, 53
4, 125908, Note_on_c, 9, 59, 0
4, 126240, Note_on_c, 9, 44, 35
4, 126249, Note_on_c, 9, 37, 81
4, 126252, Note_on_c, 9, 59, 65
4, 126280, Note_on_c, 9, 44, 0
4, 126364, Note_on_c, 9, 37, 0
4, 126368, Note_on_c, 9, 59, 0
4, 126593, Note_on_c, 9, 59, 53
4, 126709, Note_on_c, 9, 59, 0
4, 126755, Note_on_c, 9, 59, 60
4, 126870, Note_on_c, 9, 59, 0
4, 127226, Note_on_c, 9, 44, 35
4, 127235, Note_on_c, 9, 59, 61
4, 127266, Note_on_c, 9, 44, 0
4, 127351, Note_on_c, 9, 59, 0
4, 127713, Note_on_c, 9, 59, 58
4, 127825, Note_on_c, 9, 59, 0
4, 128166, Note_on_c, 9, 44, 35
4, 128181, Note_on_c, 9, 59, 61
4, 128203, Note_on_c, 9, 44, 0
4, 128298, Note_on_c, 9, 59, 0
4, 128488, Note_on_c, 9, 59, 53
4, 128606, Note_on_c, 9, 59, 0
4, 128653, Note_on_c, 9, 59, 51
4, 128770, Note_on_c, 9, 59, 0
4, 129128, Note_on_c, 9, 59, 65
4, 129131, Note_on_c, 9, 44, 35
4, 129168, Note_on_c, 9, 44, 0
4, 129244, Note_on_c, 9, 59, 0
4, 129601, Note_on_c, 9, 59, 53
4, 129716, Note_on_c, 9, 59, 0
4, 130066, Note_on_c, 9, 37, 80
4, 130069, Note_on_c, 9, 59, 66
4, 130072, Note_on_c, 9, 44, 35
4, 130111, Note_on_c, 9, 44, 0
4, 130181, Note_on_c, 9, 37, 0
4, 130184, Note_on_c, 9, 59, 0
4, 130415, Note_on_c, 9, 59, 58
4, 130531, Note_on_c, 9, 59, 0
4, 130565, Note_on_c, 9, 59, 56
4, 130680, Note_on_c, 9, 59, 0
4, 131031, Note_on_c, 9, 44, 35
4, 131043, Note_on_c, 9, 59, 61
4, 131069, Note_on_c, 9, 44, 0
4, 131159, Note_on_c, 9, 59, 0
4, 131363, Note_on_c, 9, 59, 51
4, 131478, Note_on_c, 9, 59, 0
4, 131514, Note_on_c, 9, 59, 53
4, 131630, Note_on_c, 9, 59, 0
4, 132001, Note_on_c, 9, 44, 35
4, 132008, Note_on_c, 9, 59, 64
4, 132037, Note_on_c, 9, 44, 0
4, 132123, Note_on_c, 9, 59, 0
4, 132497, Note_on_c, 9, 59, 58
4, 132610, Note_on_c, 9, 59, 0
4, 132835, Note_on_c, 9, 59, 53
4, 132951, Note_on_c, 9, 59, 0
4, 132972, Note_on_c, 9, 44, 35
4, 132979, Note_on_c, 9, 59, 58
4, 133011, Note_on_c, 9, 44, 0
4, 133094, Note_on_c, 9, 59, 0
4, 133478, Note_on_c, 9, 59, 53
4, 133593, Note_on_c, 9, 59, 0
4, 133912, Note_on_c, 9, 44, 35
4, 133925, Note_on_c, 9, 37, 65
4, 133929, Note_on_c, 9, 59, 65
4, 133954, Note_on_c, 9, 44, 0
4, 134040, Note_on_c, 9, 37, 0
4, 134043, Note_on_c, 9, 59, 0
4, 134278, Note_on_c, 9, 59, 53
4, 134393, Note_on_c, 9, 59, 0
4, 134427, Note_on_c, 9, 59, 53
4, 134542, Note_on_c, 9, 59, 0
4, 134901, Note_on_c, 9, 44, 35
4, 134914, Note_on_c, 9, 59, 63
4, 134942, Note_on_c, 9, 44, 0
4, 135029, Note_on_c, 9, 59, 0
4, 135218, Note_on_c, 9, 59, 55
4, 135330, Note_on_c, 9, 59, 0
4, 135373, Note_on_c, 9, 59, 56
4, 135488, Note_on_c, 9, 59, 0
4, 135863, Note_on_c, 9, 59, 67
4, 135869, Note_on_c, 9, 44, 35
4, 135906, Note_on_c, 9, 44, 0
4, 135978, Note_on_c, 9, 59, 0
4, 136356, Note_on_c, 9, 59, 64
4, 136471, Note_on_c, 9, 59, 0
4, 136840, Note_on_c, 9, 59, 64
4, 136849, Note_on_c, 9, 44, 35
4, 136888, Note_on_c, 9, 44, 0
4, 136955, Note_on_c, 9, 59, 0
4, 137312, Note_on_c, 9, 59, 67
4, 137424, Note_on_c, 9, 59, 0
4, 137761, Note_on_c, 9, 46, 47
4, 137765, Note_on_c, 9, 46, 0
4, 137768, Note_on_c, 9, 44, 35
4, 137771, Note_on_c, 9, 45, 57
4, 137806, Note_on_c, 9, 44, 0
4, 137886, Note_on_c, 9, 45, 0
4, 138087, Note_on_c, 9, 45, 81
4, 138096, Note_on_c, 9, 46, 70
4, 138202, Note_on_c, 9, 45, 0
4, 138209, Note_on_c, 9, 46, 0
4, 138744, Note_on_c, 9, 44, 35
4, 138757, Note_on_c, 9, 59, 58
4, 138785, Note_on_c, 9, 44, 0
4, 138872, Note_on_c, 9, 59, 0
4, 139235, Note_on_c, 9, 59, 61
4, 139350, Note_on_c, 9, 59, 0
4, 139691, Note_on_c, 9, 44, 35
4, 139706, Note_on_c, 9, 59, 63
4, 139728, Note_on_c, 9, 44, 0
4, 139822, Note_on_c, 9, 59, 0
4, 140035, Note_on_c, 9, 59, 55
4, 140150, Note_on_c, 9, 59, 0
4, 140181, Note_on_c, 9, 59, 53
4, 140296, Note_on_c, 9, 59, 0
4, 140664, Note_on_c, 9, 59, 69
4, 140674, Note_on_c, 9, 44, 35
4, 140711, Note_on_c, 9, 44, 0
4, 140780, Note_on_c, 9, 59, 0
4, 141139, Note_on_c, 9, 59, 58
4, 141256, Note_on_c, 9, 59, 0
4, 141611, Note_on_c, 9, 37, 94
4, 141620, Note_on_c, 9, 59, 70
4, 141623, Note_on_c, 9, 44, 35
4, 141663, Note_on_c, 9, 44, 0
4, 141728, Note_on_c, 9, 37, 0
4, 141736, Note_on_c, 9, 59, 0
4, 141964, Note_on_c, 9, 59, 51
4, 142080, Note_on_c, 9, 59, 0
4, 142113, Note_on_c, 9, 59, 53
4, 142228, Note_on_c, 9, 59, 0
4, 142581, Note_on_c, 9, 44, 35
4, 142594, Note_on_c, 9, 59, 61
4, 142622, Note_on_c, 9, 44, 0
4, 142707, Note_on_c, 9, 59, 0
4, 142913, Note_on_c, 9, 59, 53
4, 143030, Note_on_c, 9, 59, 0
4, 143059, Note_on_c, 9, 59, 53
4, 143176, Note_on_c, 9, 59, 0
4, 143520, Note_on_c, 9, 44, 35
4, 143546, Note_on_c, 9, 59, 66
4, 143555, Note_on_c, 9, 44, 0
4, 143663, Note_on_c, 9, 59, 0
4, 143875, Note_on_c, 9, 59, 55
4, 143992, Note_on_c, 9, 59, 0
4, 144033, Note_on_c, 9, 59, 53
4, 144147, Note_on_c, 9, 59, 0
4, 144481, Note_on_c, 9, 59, 63
4, 144485, Note_on_c, 9, 44, 35
4, 144523, Note_on_c, 9, 44, 0
4, 144597, Note_on_c, 9, 59, 0
4, 144804, Note_on_c, 9, 59, 53
4, 144919, Note_on_c, 9, 59, 0
4, 144960, Note_on_c, 9, 59, 58
4, 145075, Note_on_c, 9, 59, 0
4, 145431, Note_on_c, 9, 44, 35
4, 145443, Note_on_c, 9, 59, 70
4, 145443, Note_on_c, 9, 37, 84
4, 145468, Note_on_c, 9, 44, 0
4, 145555, Note_on_c, 9, 59, 0
4, 145559, Note_on_c, 9, 37, 0
4, 145798, Note_on_c, 9, 59, 52
4, 145914, Note_on_c, 9, 59, 0
4, 145948, Note_on_c, 9, 59, 49
4, 146064, Note_on_c, 9, 59, 0
4, 146420, Note_on_c, 9, 44, 35
4, 146429, Note_on_c, 9, 59, 61
4, 146455, Note_on_c, 9, 44, 0
4, 146542, Note_on_c, 9, 59, 0
4, 146758, Note_on_c, 9, 59, 50
4, 146873, Note_on_c, 9, 59, 0
4, 146916, Note_on_c, 9, 59, 48
4, 147031, Note_on_c, 9, 59, 0
4, 147357, Note_on_c, 9, 44, 35
4, 147379, Note_on_c, 9, 59, 68
4, 147394, Note_on_c, 9, 44, 0
4, 147494, Note_on_c, 9, 59, 0
4, 147692, Note_on_c, 9, 59, 55
4, 147807, Note_on_c, 9, 59, 0
4, 147847, Note_on_c, 9, 59, 50
4, 147962, Note_on_c, 9, 59, 0
4, 148331, Note_on_c, 9, 59, 62
4, 148337, Note_on_c, 9, 44, 35
4, 148374, Note_on_c, 9, 44, 0
4, 148446, Note_on_c, 9, 59, 0
4, 148654, Note_on_c, 9, 59, 53
4, 148769, Note_on_c, 9, 59, 0
4, 148800, Note_on_c, 9, 59, 50
4, 148915, Note_on_c, 9, 59, 0
4, 149265, Note_on_c, 9, 44, 35
4, 149274, Note_on_c, 9, 37, 77
4, 149277, Note_on_c, 9, 59, 67
4, 149304, Note_on_c, 9, 44, 0
4, 149389, Note_on_c, 9, 37, 0
4, 149392, Note_on_c, 9, 59, 0
4, 149606, Note_on_c, 9, 59, 53
4, 149718, Note_on_c, 9, 59, 0
4, 149764, Note_on_c, 9, 59, 55
4, 149879, Note_on_c, 9, 59, 0
4, 150238, Note_on_c, 9, 59, 70
4, 150241, Note_on_c, 9, 44, 35
4, 150282, Note_on_c, 9, 44, 0
4, 150353, Note_on_c, 9, 59, 0
4, 150713, Note_on_c, 9, 59, 42
4, 150828, Note_on_c, 9, 59, 0
4, 151191, Note_on_c, 9, 59, 65
4, 151203, Note_on_c, 9, 44, 35
4, 151243, Note_on_c, 9, 44, 0
4, 151303, Note_on_c, 9, 59, 0
4, 151498, Note_on_c, 9, 59, 55
4, 151615, Note_on_c, 9, 59, 0
4, 151659, Note_on_c, 9, 59, 51
4, 151776, Note_on_c, 9, 59, 0
4, 152119, Note_on_c, 9, 59, 65
4, 152137, Note_on_c, 9, 44, 35
4, 152174, Note_on_c, 9, 44, 0
4, 152235, Note_on_c, 9, 59, 0
4, 152460, Note_on_c, 9, 59, 50
4, 152576, Note_on_c, 9, 59, 0
4, 152615, Note_on_c, 9, 59, 55
4, 152732, Note_on_c, 9, 59, 0
4, 152952, Note_on_c, 9, 40, 67
4, 153070, Note_on_c, 9, 40, 0
4, 153111, Note_on_c, 9, 59, 45
4, 153123, Note_on_c, 9, 36, 40
4, 153224, Note_on_c, 9, 59, 0
4, 153240, Note_on_c, 9, 36, 0
4, 153408, Note_on_c, 9, 36, 102
4, 153421, Note_on_c, 9, 46, 70
4, 153523, Note_on_c, 9, 36, 0
4, 153538, Note_on_c, 9, 46, 0
4, 154080, Note_on_c, 9, 44, 35
4, 154080, Note_on_c, 9, 51, 38
4, 154118, Note_on_c, 9, 44, 0
4, 154197, Note_on_c, 9, 51, 0
4, 154560, Note_on_c, 9, 51, 44
4, 154675, Note_on_c, 9, 51, 0
4, 155040, Note_on_c, 9, 44, 35
4, 155040, Note_on_c, 9, 51, 47
4, 155075, Note_on_c, 9, 44, 0
4, 155155, Note_on_c, 9, 51, 0
4, 155520, Note_on_c, 9, 44, 35
4, 155520, Note_on_c, 9, 51, 44
4, 155558, Note_on_c, 9, 44, 0
4, 155632, Note_on_c, 9, 51, 0
4, 156000, Note_on_c, 9, 44, 35
4, 156000, Note_on_c, 9, 51, 49
4, 156037, Note_on_c, 9, 44, 0
4, 156116, Note_on_c, 9, 51, 0
4, 156480, Note_on_c, 9, 44, 35
4, 156480, Note_on_c, 9, 51, 50
4, 156518, Note_on_c, 9, 44, 0
4, 156597, Note_on_c, 9, 51, 0
4, 156960, Note_on_c, 9, 44, 35
4, 156960, Note_on_c, 9, 51, 53
4, 156995, Note_on_c, 9, 44, 0
4, 157077, Note_on_c, 9, 51, 0
4, 157440, Note_on_c, 9, 44, 35
4, 157440, Note_on_c, 9, 51, 53
4, 157477, Note_on_c, 9, 44, 0
4, 157556, Note_on_c, 9, 51, 0
4, 157920, Note_on_c, 9, 44, 35
4, 157920, Note_on_c, 9, 51, 53
4, 157961, Note_on_c, 9, 44, 0
4, 158036, Note_on_c, 9, 51, 0
4, 158400, Note_on_c, 9, 44, 35
4, 158400, Note_on_c, 9, 51, 53
4, 158437, Note_on_c, 9, 44, 0
4, 158516, Note_on_c, 9, 51, 0
4, 158880, Note_on_c, 9, 44, 35
4, 158880, Note_on_c, 9, 51, 50
4, 158919, Note_on_c, 9, 44, 0
4, 158995, Note_on_c, 9, 51, 0
4, 159360, Note_on_c, 9, 44, 35
4, 159360, Note_on_c, 9, 51, 53
4, 159403, Note_on_c, 9, 44, 0
4, 159475, Note_on_c, 9, 51, 0
4, 159840, Note_on_c, 9, 44, 35
4, 159840, Note_on_c, 9, 51, 50
4, 159880, Note_on_c, 9, 44, 0
4, 159955, Note_on_c, 9, 51, 0
4, 160320, Note_on_c, 9, 44, 35
4, 160320, Note_on_c, 9, 51, 59
4, 160360, Note_on_c, 9, 44, 0
4, 160435, Note_on_c, 9, 51, 0
4, 160800, Note_on_c, 9, 44, 35
4, 160800, Note_on_c, 9, 51, 60
4, 160837, Note_on_c, 9, 44, 0
4, 160915, Note_on_c, 9, 51, 0
4, 161280, Note_on_c, 9, 44, 35
4, 161280, Note_on_c, 9, 51, 58
4, 161320, Note_on_c, 9, 44, 0
4, 161395, Note_on_c, 9, 51, 0
4, 161760, Note_on_c, 9, 44, 35
4, 161760, Note_on_c, 9, 51, 60
4, 161800, Note_on_c, 9, 44, 0
4, 161872, Note_on_c, 9, 51, 0
4, 162240, Note_on_c, 9, 44, 35
4, 162240, Note_on_c, 9, 51, 60
4, 162280, Note_on_c, 9, 44, 0
4, 162355, Note_on_c, 9, 51, 0
4, 162720, Note_on_c, 9, 44, 35
4, 162720, Note_on_c, 9, 51, 61
4, 162760, Note_on_c, 9, 44, 0
4, 162836, Note_on_c, 9, 51, 0
4, 163200, Note_on_c, 9, 44, 35
4, 163200, Note_on_c, 9, 51, 61
4, 163237, Note_on_c, 9, 44, 0
4, 163312, Note_on_c, 9, 51, 0
4, 163680, Note_on_c, 9, 44, 35
4, 163680, Note_on_c, 9, 51, 61
4, 163717, Note_on_c, 9, 44, 0
4, 163795, Note_on_c, 9, 51, 0
4, 164160, Note_on_c, 9, 44, 35
4, 164160, Note_on_c, 9, 51, 63
4, 164200, Note_on_c, 9, 44, 0
4, 164275, Note_on_c, 9, 51, 0
4, 164640, Note_on_c, 9, 44, 35
4, 164640, Note_on_c, 9, 51, 63
4, 164680, Note_on_c, 9, 44, 0
4, 164752, Note_on_c, 9, 51, 0
4, 165120, Note_on_c, 9, 44, 35
4, 165120, Note_on_c, 9, 51, 63
4, 165157, Note_on_c, 9, 44, 0
4, 165232, Note_on_c, 9, 51, 0
4, 165600, Note_on_c, 9, 44, 35
4, 165600, Note_on_c, 9, 51, 66
4, 165640, Note_on_c, 9, 44, 0
4, 165712, Note_on_c, 9, 51, 0
4, 166080, Note_on_c, 9, 44, 35
4, 166080, Note_on_c, 9, 51, 64
4, 166120, Note_on_c, 9, 44, 0
4, 166195, Note_on_c, 9, 51, 0
4, 166560, Note_on_c, 9, 44, 35
4, 166560, Note_on_c, 9, 51, 64
4, 166599, Note_on_c, 9, 44, 0
4, 166672, Note_on_c, 9, 51, 0
4, 167040, Note_on_c, 9, 44, 35
4, 167040, Note_on_c, 9, 51, 66
4, 167078, Note_on_c, 9, 44, 0
4, 167155, Note_on_c, 9, 51, 0
4, 167520, Note_on_c, 9, 44, 35
4, 167520, Note_on_c, 9, 51, 63
4, 167557, Note_on_c, 9, 44, 0
4, 167636, Note_on_c, 9, 51, 0
4, 168000, Note_on_c, 9, 44, 35
4, 168000, Note_on_c, 9, 51, 70
4, 168038, Note_on_c, 9, 44, 0
4, 168116, Note_on_c, 9, 51, 0
4, 168480, Note_on_c, 9, 44, 35
4, 168480, Note_on_c, 9, 51, 63
4, 168516, Note_on_c, 9, 44, 0
4, 168593, Note_on_c, 9, 51, 0
4, 168823, Note_on_c, 9, 51, 73
4, 168826, Note_on_c, 9, 40, 114
4, 168939, Note_on_c, 9, 51, 0
4, 168942, Note_on_c, 9, 40, 0
4, 169440, Note_on_c, 9, 44, 35
4, 169474, Note_on_c, 9, 51, 60
4, 169480, Note_on_c, 9, 44, 0
4, 169591, Note_on_c, 9, 51, 0
4, 169920, Note_on_c, 9, 44, 35
4, 169955, Note_on_c, 9, 44, 0
4, 169955, Note_on_c, 9, 51, 64
4, 170071, Note_on_c, 9, 51, 0
4, 170400, Note_on_c, 9, 44, 35
4, 170432, Note_on_c, 9, 51, 64
4, 170437, Note_on_c, 9, 44, 0
4, 170549, Note_on_c, 9, 51, 0
4, 170880, Note_on_c, 9, 44, 35
4, 170893, Note_on_c, 9, 51, 66
4, 170917, Note_on_c, 9, 44, 0
4, 171008, Note_on_c, 9, 51, 0
4, 171235, Note_on_c, 9, 51, 58
4, 171352, Note_on_c, 9, 51, 0
4, 171360, Note_on_c, 9, 44, 35
4, 171371, Note_on_c, 9, 51, 60
4, 171400, Note_on_c, 9, 44, 0
4, 171486, Note_on_c, 9, 51, 0
4, 171840, Note_on_c, 9, 44, 35
4, 171845, Note_on_c, 9, 51, 63
4, 171876, Note_on_c, 9, 44, 0
4, 171960, Note_on_c, 9, 51, 0
4, 172317, Note_on_c, 9, 51, 61
4, 172320, Note_on_c, 9, 44, 35
4, 172357, Note_on_c, 9, 44, 0
4, 172432, Note_on_c, 9, 51, 0
4, 172658, Note_on_c, 9, 51, 57
4, 172770, Note_on_c, 9, 51, 0
4, 172792, Note_on_c, 9, 51, 54
4, 172800, Note_on_c, 9, 44, 35
4, 172839, Note_on_c, 9, 44, 0
4, 172907, Note_on_c, 9, 51, 0
4, 173272, Note_on_c, 9, 51, 69
4, 173280, Note_on_c, 9, 44, 35
4, 173317, Note_on_c, 9, 44, 0
4, 173388, Note_on_c, 9, 51, 0
4, 173635, Note_on_c, 9, 51, 59
4, 173747, Note_on_c, 9, 51, 0
4, 173760, Note_on_c, 9, 44, 35
4, 173775, Note_on_c, 9, 51, 57
4, 173797, Note_on_c, 9, 44, 0
4, 173890, Note_on_c, 9, 51, 0
4, 174240, Note_on_c, 9, 44, 35
4, 174249, Note_on_c, 9, 51, 70
4, 174277, Note_on_c, 9, 44, 0
4, 174364, Note_on_c, 9, 51, 0
4, 174597, Note_on_c, 9, 51, 57
4, 174712, Note_on_c, 9, 51, 0
4, 174720, Note_on_c, 9, 44, 35
4, 174739, Note_on_c, 9, 51, 58
4, 174757, Note_on_c, 9, 44, 0
4, 174851, Note_on_c, 9, 51, 0
4, 175200, Note_on_c, 9, 44, 35
4, 175220, Note_on_c, 9, 51, 70
4, 175236, Note_on_c, 9, 44, 0
4, 175332, Note_on_c, 9, 51, 0
4, 175555, Note_on_c, 9, 51, 51
4, 175670, Note_on_c, 9, 51, 0
4, 175680, Note_on_c, 9, 44, 35
4, 175701, Note_on_c, 9, 51, 52
4, 175718, Note_on_c, 9, 44, 0
4, 175816, Note_on_c, 9, 51, 0
4, 176160, Note_on_c, 9, 44, 35
4, 176194, Note_on_c, 9, 51, 63
4, 176197, Note_on_c, 9, 44, 0
4, 176309, Note_on_c, 9, 51, 0
4, 176492, Note_on_c, 9, 51, 72
4, 176501, Note_on_c, 9, 40, 98
4, 176607, Note_on_c, 9, 51, 0
4, 176616, Note_on_c, 9, 40, 0
4, 176640, Note_on_c, 9, 44, 35
4, 176676, Note_on_c, 9, 44, 0
4, 177120, Note_on_c, 9, 44, 35
4, 177140, Note_on_c, 9, 51, 67
4, 177156, Note_on_c, 9, 44, 0
4, 177252, Note_on_c, 9, 51, 0
4, 177487, Note_on_c, 9, 51, 59
4, 177600, Note_on_c, 9, 44, 35
4, 177602, Note_on_c, 9, 51, 0
4, 177636, Note_on_c, 9, 51, 53
4, 177637, Note_on_c, 9, 44, 0
4, 177748, Note_on_c, 9, 51, 0
4, 178080, Note_on_c, 9, 44, 35
4, 178116, Note_on_c, 9, 44, 0
4, 178120, Note_on_c, 9, 51, 71
4, 178235, Note_on_c, 9, 51, 0
4, 178560, Note_on_c, 9, 44, 35
4, 178598, Note_on_c, 9, 44, 0
4, 178598, Note_on_c, 9, 51, 54
4, 178713, Note_on_c, 9, 51, 0
4, 178929, Note_on_c, 9, 51, 63
4, 179040, Note_on_c, 9, 44, 35
4, 179045, Note_on_c, 9, 51, 0
4, 179063, Note_on_c, 9, 51, 57
4, 179080, Note_on_c, 9, 44, 0
4, 179178, Note_on_c, 9, 51, 0
4, 179520, Note_on_c, 9, 44, 35
4, 179557, Note_on_c, 9, 44, 0
4, 179571, Note_on_c, 9, 51, 70
4, 179687, Note_on_c, 9, 51, 0
4, 180000, Note_on_c, 9, 44, 35
4, 180040, Note_on_c, 9, 44, 0
4, 180046, Note_on_c, 9, 51, 55
4, 180161, Note_on_c, 9, 51, 0
4, 180369, Note_on_c, 9, 51, 71
4, 180372, Note_on_c, 9, 40, 104
4, 180484, Note_on_c, 9, 51, 0
4, 180487, Note_on_c, 9, 40, 0
4, 180960, Note_on_c, 9, 44, 35
4, 180989, Note_on_c, 9, 51, 66
4, 180997, Note_on_c, 9, 44, 0
4, 181103, Note_on_c, 9, 51, 0
4, 181336, Note_on_c, 9, 51, 53
4, 181440, Note_on_c, 9, 44, 35
4, 181452, Note_on_c, 9, 51, 0
4, 181476, Note_on_c, 9, 44, 0
4, 181491, Note_on_c, 9, 51, 47
4, 181607, Note_on_c, 9, 51, 0
4, 181777, Note_on_c, 9, 40, 12
4, 181894, Note_on_c, 9, 40, 0
4, 181918, Note_on_c, 9, 51, 67
4, 181920, Note_on_c, 9, 44, 35
4, 181957, Note_on_c, 9, 44, 0
4, 182033, Note_on_c, 9, 51, 0
4, 182296, Note_on_c, 9, 40, 113
4, 182411, Note_on_c, 9, 40, 0
4, 182786, Note_on_c, 9, 51, 73
4, 182789, Note_on_c, 9, 36, 70
4, 182902, Note_on_c, 9, 51, 0
4, 182904, Note_on_c, 9, 36, 0
4, 184320, Note_on_c, 9, 59, 67
4, 184436, Note_on_c, 9, 59, 0
4, 184800, Note_on_c, 9, 59, 61
4, 184800, Note_on_c, 9, 44, 35
4, 184836, Note_on_c, 9, 44, 0
4, 184913, Note_on_c, 9, 59, 0
4, 185280, Note_on_c, 9, 59, 57
4, 185397, Note_on_c, 9, 59, 0
4, 185760, Note_on_c, 9, 59, 70
4, 185760, Note_on_c, 9, 44, 35
4, 185760, Note_on_c, 9, 37, 87
4, 185796, Note_on_c, 9, 44, 0
4, 185874, Note_on_c, 9, 37, 0
4, 185877, Note_on_c, 9, 59, 0
4, 186240, Note_on_c, 9, 59, 59
4, 186358, Note_on_c, 9, 59, 0
4, 186720, Note_on_c, 9, 59, 64
4, 186720, Note_on_c, 9, 44, 35
4, 186756, Note_on_c, 9, 44, 0
4, 186833, Note_on_c, 9, 59, 0
4, 187200, Note_on_c, 9, 59, 59
4, 187317, Note_on_c, 9, 59, 0
4, 187680, Note_on_c, 9, 59, 72
4, 187680, Note_on_c, 9, 44, 35
4, 187680, Note_on_c, 9, 37, 84
4, 187719, Note_on_c, 9, 44, 0
4, 187795, Note_on_c, 9, 37, 0
4, 187797, Note_on_c, 9, 59, 0
4, 188160, Note_on_c, 9, 59, 61
4, 188275, Note_on_c, 9, 59, 0
4, 188640, Note_on_c, 9, 59, 67
4, 188640, Note_on_c, 9, 44, 35
4, 188677, Note_on_c, 9, 44, 0
4, 188755, Note_on_c, 9, 59, 0
4, 189120, Note_on_c, 9, 59, 61
4, 189236, Note_on_c, 9, 59, 0
4, 189600, Note_on_c, 9, 37, 87
4, 189600, Note_on_c, 9, 44, 35
4, 189600, Note_on_c, 9, 59, 69
4, 189641, Note_on_c, 9, 44, 0
4, 189712, Note_on_c, 9, 59, 0
4, 189715, Note_on_c, 9, 37, 0
4, 190080, Note_on_c, 9, 59, 62
4, 190195, Note_on_c, 9, 59, 0
4, 190560, Note_on_c, 9, 59, 67
4, 190560, Note_on_c, 9, 44, 35
4, 190600, Note_on_c, 9, 44, 0
4, 190675, Note_on_c, 9, 59, 0
4, 191040, Note_on_c, 9, 59, 59
4, 191155, Note_on_c, 9, 59, 0
4, 191520, Note_on_c, 9, 59, 72
4, 191520, Note_on_c, 9, 44, 35
4, 191520, Note_on_c, 9, 37, 90
4, 191556, Note_on_c, 9, 44, 0
4, 191633, Note_on_c, 9, 37, 0
4, 191635, Note_on_c, 9, 59, 0
4, 192000, Note_on_c, 9, 59, 65
4, 192116, Note_on_c, 9, 59, 0
4, 192480, Note_on_c, 9, 59, 64
4, 192480, Note_on_c, 9, 44, 35
4, 192519, Note_on_c, 9, 44, 0
4, 192595, Note_on_c, 9, 59, 0
4, 192960, Note_on_c, 9, 59, 58
4, 193072, Note_on_c, 9, 59, 0
4, 193440, Note_on_c, 9, 59, 68
4, 193440, Note_on_c, 9, 44, 35
4, 193440, Note_on_c, 9, 37, 90
4, 193477, Note_on_c, 9, 44, 0
4, 193552, Note_on_c, 9, 37, 0
4, 193555, Note_on_c, 9, 59, 0
4, 193920, Note_on_c, 9, 59, 64
4, 194035, Note_on_c, 9, 59, 0
4, 194400, Note_on_c, 9, 59, 70
4, 194400, Note_on_c, 9, 44, 35
4, 194440, Note_on_c, 9, 44, 0
4, 194516, Note_on_c, 9, 59, 0
4, 194880, Note_on_c, 9, 59, 61
4, 194995, Note_on_c, 9, 59, 0
4, 195360, Note_on_c, 9, 59, 67
4, 195360, Note_on_c, 9, 44, 35
4, 195360, Note_on_c, 9, 37, 87
4, 195400, Note_on_c, 9, 44, 0
4, 195475, Note_on_c, 9, 37, 0
4, 195475, Note_on_c, 9, 59, 0
4, 195840, Note_on_c, 9, 59, 61
4, 195955, Note_on_c, 9, 59, 0
4, 196320, Note_on_c, 9, 59, 64
4, 196320, Note_on_c, 9, 44, 35
4, 196360, Note_on_c, 9, 44, 0
4, 196436, Note_on_c, 9, 59, 0
4, 196800, Note_on_c, 9, 59, 61
4, 196915, Note_on_c, 9, 59, 0
4, 197280, Note_on_c, 9, 59, 70
4, 197280, Note_on_c, 9, 44, 35
4, 197280, Note_on_c, 9, 37, 89
4, 197319, Note_on_c, 9, 44, 0
4, 197395, Note_on_c, 9, 37, 0
4, 197396, Note_on_c, 9, 59, 0
4, 197680, Note_on_c, 9, 59, 61
4, 197795, Note_on_c, 9, 59, 0
4, 197816, Note_on_c, 9, 59, 59
4, 197931, Note_on_c, 9, 59, 0
4, 198240, Note_on_c, 9, 59, 72
4, 198240, Note_on_c, 9, 44, 35
4, 198277, Note_on_c, 9, 44, 0
4, 198355, Note_on_c, 9, 59, 0
4, 198720, Note_on_c, 9, 59, 67
4, 198835, Note_on_c, 9, 59, 0
4, 199200, Note_on_c, 9, 37, 87
4, 199200, Note_on_c, 9, 44, 35
4, 199200, Note_on_c, 9, 59, 65
4, 199243, Note_on_c, 9, 44, 0
4, 199312, Note_on_c, 9, 59, 0
4, 199315, Note_on_c, 9, 37, 0
4, 199559, Note_on_c, 9, 36, 76
4, 199575, Note_on_c, 9, 46, 68
4, 199676, Note_on_c, 9, 36, 0
4, 199690, Note_on_c, 9, 46, 0
4, 200160, Note_on_c, 9, 44, 35
4, 200200, Note_on_c, 9, 44, 0
4, 200232, Note_on_c, 9, 59, 69
4, 200348, Note_on_c, 9, 59, 0
4, 200704, Note_on_c, 9, 59, 70
4, 200819, Note_on_c, 9, 59, 0
4, 201120, Note_on_c, 9, 37, 87
4, 201120, Note_on_c, 9, 44, 35
4, 201158, Note_on_c, 9, 44, 0
4, 201166, Note_on_c, 9, 59, 70
4, 201237, Note_on_c, 9, 37, 0
4, 201283, Note_on_c, 9, 59, 0
4, 201659, Note_on_c, 9, 59, 65
4, 201776, Note_on_c, 9, 59, 0
4, 201985, Note_on_c, 9, 59, 56
4, 202080, Note_on_c, 9, 44, 35
4, 202101, Note_on_c, 9, 59, 0
4, 202117, Note_on_c, 9, 44, 0
4, 202119, Note_on_c, 9, 59, 64
4, 202235, Note_on_c, 9, 59, 0
4, 202611, Note_on_c, 9, 59, 64
4, 202728, Note_on_c, 9, 59, 0
4, 203040, Note_on_c, 9, 37, 90
4, 203040, Note_on_c, 9, 44, 35
4, 203069, Note_on_c, 9, 59, 73
4, 203076, Note_on_c, 9, 44, 0
4, 203155, Note_on_c, 9, 37, 0
4, 203184, Note_on_c, 9, 59, 0
4, 203547, Note_on_c, 9, 59, 71
4, 203662, Note_on_c, 9, 59, 0
4, 204000, Note_on_c, 9, 44, 35
4, 204037, Note_on_c, 9, 44, 0
4, 204040, Note_on_c, 9, 59, 74
4, 204152, Note_on_c, 9, 59, 0
4, 204512, Note_on_c, 9, 59, 68
4, 204627, Note_on_c, 9, 59, 0
4, 204960, Note_on_c, 9, 37, 87
4, 204960, Note_on_c, 9, 44, 35
4, 204989, Note_on_c, 9, 59, 75
4, 205000, Note_on_c, 9, 44, 0
4, 205072, Note_on_c, 9, 37, 0
4, 205104, Note_on_c, 9, 59, 0
4, 205461, Note_on_c, 9, 59, 72
4, 205576, Note_on_c, 9, 59, 0
4, 205802, Note_on_c, 9, 59, 61
4, 205917, Note_on_c, 9, 59, 0
4, 205920, Note_on_c, 9, 44, 35
4, 205944, Note_on_c, 9, 59, 63
4, 205957, Note_on_c, 9, 44, 0
4, 206060, Note_on_c, 9, 59, 0
4, 206428, Note_on_c, 9, 59, 75
4, 206544, Note_on_c, 9, 59, 0
4, 206880, Note_on_c, 9, 37, 90
4, 206880, Note_on_c, 9, 44, 35
4, 206900, Note_on_c, 9, 59, 72
4, 206920, Note_on_c, 9, 44, 0
4, 206992, Note_on_c, 9, 37, 0
4, 207015, Note_on_c, 9, 59, 0
4, 207253, Note_on_c, 9, 59, 59
4, 207368, Note_on_c, 9, 59, 0
4, 207393, Note_on_c, 9, 59, 64
4, 207508, Note_on_c, 9, 59, 0
4, 207840, Note_on_c, 9, 44, 35
4, 207880, Note_on_c, 9, 44, 0
4, 207880, Note_on_c, 9, 59, 71
4, 207995, Note_on_c, 9, 59, 0
4, 208221, Note_on_c, 9, 59, 57
4, 208336, Note_on_c, 9, 59, 0
4, 208358, Note_on_c, 9, 59, 61
4, 208473, Note_on_c, 9, 59, 0
4, 208800, Note_on_c, 9, 37, 90
4, 208800, Note_on_c, 9, 44, 35
4, 208826, Note_on_c, 9, 59, 72
4, 208839, Note_on_c, 9, 44, 0
4, 208912, Note_on_c, 9, 37, 0
4, 208942, Note_on_c, 9, 59, 0
4, 209164, Note_on_c, 9, 59, 57
4, 209280, Note_on_c, 9, 59, 0
4, 209304, Note_on_c, 9, 59, 58
4, 209419, Note_on_c, 9, 59, 0
4, 209760, Note_on_c, 9, 44, 35
4, 209794, Note_on_c, 9, 59, 71
4, 209797, Note_on_c, 9, 44, 0
4, 209909, Note_on_c, 9, 59, 0
4, 210138, Note_on_c, 9, 59, 57
4, 210253, Note_on_c, 9, 59, 0
4, 210287, Note_on_c, 9, 59, 61
4, 210402, Note_on_c, 9, 59, 0
4, 210720, Note_on_c, 9, 37, 96
4, 210720, Note_on_c, 9, 44, 35
4, 210752, Note_on_c, 9, 59, 76
4, 210761, Note_on_c, 9, 44, 0
4, 210836, Note_on_c, 9, 37, 0
4, 210867, Note_on_c, 9, 59, 0
4, 211093, Note_on_c, 9, 59, 59
4, 211208, Note_on_c, 9, 59, 0
4, 211236, Note_on_c, 9, 59, 60
4, 211351, Note_on_c, 9, 59, 0
4, 211680, Note_on_c, 9, 44, 35
4, 211714, Note_on_c, 9, 59, 71
4, 211717, Note_on_c, 9, 44, 0
4, 211831, Note_on_c, 9, 59, 0
4, 212049, Note_on_c, 9, 59, 59
4, 212164, Note_on_c, 9, 59, 0
4, 212198, Note_on_c, 9, 59, 59
4, 212314, Note_on_c, 9, 59, 0
4, 212640, Note_on_c, 9, 37, 96
4, 212640, Note_on_c, 9, 44, 35
4, 212676, Note_on_c, 9, 44, 0
4, 212688, Note_on_c, 9, 59, 75
4, 212756, Note_on_c, 9, 37, 0
4, 212803, Note_on_c, 9, 59, 0
4, 213010, Note_on_c, 9, 59, 58
4, 213124, Note_on_c, 9, 59, 0
4, 213156, Note_on_c, 9, 59, 63
4, 213273, Note_on_c, 9, 59, 0
4, 213634, Note_on_c, 9, 59, 81
4, 213751, Note_on_c, 9, 59, 0
4, 214127, Note_on_c, 9, 59, 63
4, 214243, Note_on_c, 9, 59, 0
4, 214431, Note_on_c, 9, 59, 67
4, 214440, Note_on_c, 9, 40, 74
4, 214548, Note_on_c, 9, 59, 0
4, 214557, Note_on_c, 9, 40, 0
4, 214909, Note_on_c, 9, 40, 113
4, 214913, Note_on_c, 9, 46, 73
4, 215025, Note_on_c, 9, 40, 0
4, 215029, Note_on_c, 9, 46, 0
4, 215520, Note_on_c, 9, 44, 35
4, 215555, Note_on_c, 9, 51, 50
4, 215558, Note_on_c, 9, 44, 0
4, 215671, Note_on_c, 9, 51, 0
4, 216000, Note_on_c, 9, 44, 35
4, 216017, Note_on_c, 9, 51, 61
4, 216037, Note_on_c, 9, 44, 0
4, 216133, Note_on_c, 9, 51, 0
4, 216480, Note_on_c, 9, 44, 35
4, 216499, Note_on_c, 9, 51, 62
4, 216521, Note_on_c, 9, 44, 0
4, 216614, Note_on_c, 9, 51, 0
4, 216960, Note_on_c, 9, 44, 35
4, 216988, Note_on_c, 9, 51, 55
4, 216997, Note_on_c, 9, 44, 0
4, 217100, Note_on_c, 9, 51, 0
4, 217314, Note_on_c, 9, 51, 58
4, 217323, Note_on_c, 9, 40, 8
4, 217429, Note_on_c, 9, 51, 0
4, 217438, Note_on_c, 9, 40, 0
4, 217440, Note_on_c, 9, 44, 35
4, 217457, Note_on_c, 9, 51, 54
4, 217477, Note_on_c, 9, 44, 0
4, 217572, Note_on_c, 9, 51, 0
4, 217920, Note_on_c, 9, 44, 35
4, 217937, Note_on_c, 9, 51, 63
4, 217944, Note_on_c, 9, 40, 39
4, 217960, Note_on_c, 9, 44, 0
4, 218053, Note_on_c, 9, 51, 0
4, 218059, Note_on_c, 9, 40, 0
4, 218288, Note_on_c, 9, 40, 8
4, 218400, Note_on_c, 9, 44, 35
4, 218403, Note_on_c, 9, 40, 0
4, 218409, Note_on_c, 9, 51, 64
4, 218440, Note_on_c, 9, 44, 0
4, 218524, Note_on_c, 9, 51, 0
4, 218738, Note_on_c, 9, 40, 107
4, 218738, Note_on_c, 9, 51, 72
4, 218850, Note_on_c, 9, 40, 0
4, 218853, Note_on_c, 9, 51, 0
4, 218880, Note_on_c, 9, 44, 35
4, 218917, Note_on_c, 9, 44, 0
4, 219210, Note_on_c, 9, 40, 8
4, 219325, Note_on_c, 9, 40, 0
4, 219360, Note_on_c, 9, 44, 35
4, 219374, Note_on_c, 9, 51, 71
4, 219400, Note_on_c, 9, 44, 0
4, 219489, Note_on_c, 9, 51, 0
4, 219721, Note_on_c, 9, 51, 50
4, 219836, Note_on_c, 9, 51, 0
4, 219840, Note_on_c, 9, 44, 35
4, 219873, Note_on_c, 9, 51, 51
4, 219880, Note_on_c, 9, 44, 0
4, 219988, Note_on_c, 9, 51, 0
4, 220226, Note_on_c, 9, 40, 8
4, 220320, Note_on_c, 9, 44, 35
4, 220341, Note_on_c, 9, 40, 0
4, 220348, Note_on_c, 9, 51, 72
4, 220358, Note_on_c, 9, 44, 0
4, 220463, Note_on_c, 9, 51, 0
4, 220658, Note_on_c, 9, 40, 8
4, 220773, Note_on_c, 9, 40, 0
4, 220800, Note_on_c, 9, 44, 35
4, 220823, Note_on_c, 9, 51, 57
4, 220840, Note_on_c, 9, 44, 0
4, 220938, Note_on_c, 9, 51, 0
4, 221127, Note_on_c, 9, 40, 35
4, 221160, Note_on_c, 9, 51, 61
4, 221239, Note_on_c, 9, 40, 0
4, 221272, Note_on_c, 9, 51, 0
4, 221280, Note_on_c, 9, 44, 35
4, 221297, Note_on_c, 9, 51, 60
4, 221320, Note_on_c, 9, 44, 0
4, 221412, Note_on_c, 9, 51, 0
4, 221760, Note_on_c, 9, 44, 35
4, 221775, Note_on_c, 9, 40, 99
4, 221787, Note_on_c, 9, 51, 66
4, 221797, Note_on_c, 9, 44, 0
4, 221890, Note_on_c, 9, 40, 0
4, 221902, Note_on_c, 9, 51, 0
4, 222125, Note_on_c, 9, 40, 8
4, 222240, Note_on_c, 9, 40, 0
4, 222240, Note_on_c, 9, 44, 35
4, 222243, Note_on_c, 9, 51, 63
4, 222278, Note_on_c, 9, 44, 0
4, 222360, Note_on_c, 9, 51, 0
4, 222575, Note_on_c, 9, 51, 74
4, 222587, Note_on_c, 9, 40, 101
4, 222690, Note_on_c, 9, 51, 0
4, 222702, Note_on_c, 9, 40, 0
4, 222720, Note_on_c, 9, 44, 35
4, 222758, Note_on_c, 9, 44, 0
4, 223083, Note_on_c, 9, 40, 8
4, 223198, Note_on_c, 9, 40, 0
4, 223200, Note_on_c, 9, 44, 35
4, 223240, Note_on_c, 9, 44, 0
4, 223242, Note_on_c, 9, 51, 72
4, 223357, Note_on_c, 9, 51, 0
4, 223598, Note_on_c, 9, 40, 72
4, 223610, Note_on_c, 9, 51, 63
4, 223680, Note_on_c, 9, 44, 35
4, 223713, Note_on_c, 9, 40, 0
4, 223718, Note_on_c, 9, 44, 0
4, 223728, Note_on_c, 9, 51, 0
4, 224060, Note_on_c, 9, 51, 64
4, 224069, Note_on_c, 9, 40, 98
4, 224160, Note_on_c, 9, 44, 35
4, 224176, Note_on_c, 9, 51, 0
4, 224184, Note_on_c, 9, 40, 0
4, 224199, Note_on_c, 9, 44, 0
4, 224206, Note_on_c, 9, 51, 58
4, 224321, Note_on_c, 9, 51, 0
4, 224529, Note_on_c, 9, 40, 8
4, 224640, Note_on_c, 9, 44, 35
4, 224644, Note_on_c, 9, 40, 0
4, 224680, Note_on_c, 9, 44, 0
4, 224693, Note_on_c, 9, 51, 67
4, 224808, Note_on_c, 9, 51, 0
4, 225022, Note_on_c, 9, 51, 60
4, 225037, Note_on_c, 9, 40, 67
4, 225120, Note_on_c, 9, 44, 35
4, 225137, Note_on_c, 9, 51, 0
4, 225152, Note_on_c, 9, 40, 0
4, 225158, Note_on_c, 9, 44, 0
4, 225162, Note_on_c, 9, 51, 58
4, 225277, Note_on_c, 9, 51, 0
4, 225600, Note_on_c, 9, 44, 35
4, 225638, Note_on_c, 9, 44, 0
4, 225648, Note_on_c, 9, 40, 107
4, 225664, Note_on_c, 9, 51, 76
4, 225762, Note_on_c, 9, 40, 0
4, 225779, Note_on_c, 9, 51, 0
4, 225965, Note_on_c, 9, 40, 8
4, 226080, Note_on_c, 9, 44, 35
4, 226081, Note_on_c, 9, 40, 0
4, 226108, Note_on_c, 9, 51, 63
4, 226117, Note_on_c, 9, 44, 0
4, 226224, Note_on_c, 9, 51, 0
4, 226416, Note_on_c, 9, 36, 88
4, 226418, Note_on_c, 9, 51, 75
4, 226531, Note_on_c, 9, 36, 0
4, 226535, Note_on_c, 9, 51, 0
4, 226900, Note_on_c, 9, 40, 31
4, 227015, Note_on_c, 9, 40, 0
4, 227040, Note_on_c, 9, 44, 35
4, 227049, Note_on_c, 9, 51, 71
4, 227077, Note_on_c, 9, 44, 0
4, 227161, Note_on_c, 9, 51, 0
4, 227356, Note_on_c, 9, 51, 54
4, 227363, Note_on_c, 9, 40, 59
4, 227472, Note_on_c, 9, 51, 0
4, 227478, Note_on_c, 9, 40, 0
4, 227514, Note_on_c, 9, 51, 54
4, 227520, Note_on_c, 9, 44, 35
4, 227557, Note_on_c, 9, 44, 0
4, 227627, Note_on_c, 9, 51, 0
4, 227852, Note_on_c, 9, 40, 21
4, 227969, Note_on_c, 9, 40, 0
4, 228000, Note_on_c, 9, 44, 35
4, 228003, Note_on_c, 9, 51, 69
4, 228041, Note_on_c, 9, 44, 0
4, 228113, Note_on_c, 9, 51, 0
4, 228312, Note_on_c, 9, 40, 114
4, 228321, Note_on_c, 9, 51, 70
4, 228427, Note_on_c, 9, 40, 0
4, 228436, Note_on_c, 9, 51, 0
4, 228480, Note_on_c, 9, 44, 35
4, 228520, Note_on_c, 9, 44, 0
4, 228826, Note_on_c, 9, 40, 21
4, 228942, Note_on_c, 9, 40, 0
4, 228960, Note_on_c, 9, 44, 35
4, 228994, Note_on_c, 9, 51, 68
4, 228996, Note_on_c, 9, 44, 0
4, 229112, Note_on_c, 9, 51, 0
4, 229298, Note_on_c, 9, 51, 75
4, 229304, Note_on_c, 9, 40, 108
4, 229410, Note_on_c, 9, 51, 0
4, 229419, Note_on_c, 9, 40, 0
4, 229440, Note_on_c, 9, 44, 35
4, 229477, Note_on_c, 9, 44, 0
4, 229791, Note_on_c, 9, 40, 54
4, 229906, Note_on_c, 9, 40, 0
4, 229920, Note_on_c, 9, 44, 35
4, 229955, Note_on_c, 9, 51, 70
4, 229957, Note_on_c, 9, 44, 0
4, 230071, Note_on_c, 9, 51, 0
4, 230263, Note_on_c, 9, 51, 68
4, 230287, Note_on_c, 9, 36, 102
4, 230378, Note_on_c, 9, 51, 0
4, 230402, Note_on_c, 9, 36, 0
4, 230743, Note_on_c, 9, 40, 8
4, 230858, Note_on_c, 9, 40, 0
4, 230880, Note_on_c, 9, 44, 35
4, 230911, Note_on_c, 9, 51, 65
4, 230917, Note_on_c, 9, 44, 0
4, 231026, Note_on_c, 9, 51, 0
4, 231218, Note_on_c, 9, 40, 109
4, 231227, Note_on_c, 9, 51, 67
4, 231333, Note_on_c, 9, 40, 0
4, 231339, Note_on_c, 9, 51, 0
4, 231717, Note_on_c, 9, 40, 16
4, 231832, Note_on_c, 9, 40, 0
4, 231840, Note_on_c, 9, 44, 35
4, 231877, Note_on_c, 9, 44, 0
4, 231903, Note_on_c, 9, 51, 65
4, 232018, Note_on_c, 9, 51, 0
4, 232186, Note_on_c, 9, 40, 82
4, 232301, Note_on_c, 9, 40, 0
4, 232359, Note_on_c, 9, 40, 117
4, 232474, Note_on_c, 9, 40, 0
4, 232685, Note_on_c, 9, 36, 58
4, 232800, Note_on_c, 9, 36, 0
4, 232840, Note_on_c, 9, 36, 102
4, 232849, Note_on_c, 9, 51, 75
4, 232958, Note_on_c, 9, 36, 0
4, 232961, Note_on_c, 9, 51, 0
4, 233330, Note_on_c, 9, 40, 118
4, 233445, Note_on_c, 9, 40, 0
4, 233783, Note_on_c, 9, 51, 57
4, 233786, Note_on_c, 9, 36, 68
4, 233898, Note_on_c, 9, 51, 0
4, 233902, Note_on_c, 9, 36, 0
4, 234056, Note_on_c, 9, 36, 102
4, 234081, Note_on_c, 9, 51, 67
4, 234173, Note_on_c, 9, 36, 0
4, 234196, Note_on_c, 9, 51, 0
4, 234565, Note_on_c, 9, 40, 31
4, 234680, Note_on_c, 9, 40, 0
4, 234714, Note_on_c, 9, 51, 61
4, 234720, Note_on_c, 9, 44, 35
4, 234757, Note_on_c, 9, 44, 0
4, 234831, Note_on_c, 9, 51, 0
4, 235036, Note_on_c, 9, 51, 58
4, 235052, Note_on_c, 9, 40, 106
4, 235150, Note_on_c, 9, 51, 0
4, 235167, Note_on_c, 9, 40, 0
4, 235198, Note_on_c, 9, 51, 54
4, 235315, Note_on_c, 9, 51, 0
4, 235688, Note_on_c, 9, 40, 81
4, 235691, Note_on_c, 9, 51, 68
4, 235804, Note_on_c, 9, 40, 0
4, 235808, Note_on_c, 9, 51, 0
4, 236007, Note_on_c, 9, 40, 104
4, 236007, Note_on_c, 9, 51, 72
4, 236121, Note_on_c, 9, 40, 0
4, 236124, Note_on_c, 9, 51, 0
4, 236479, Note_on_c, 9, 40, 35
4, 236595, Note_on_c, 9, 40, 0
4, 236634, Note_on_c, 9, 51, 67
4, 236640, Note_on_c, 9, 44, 35
4, 236680, Note_on_c, 9, 44, 0
4, 236748, Note_on_c, 9, 51, 0
4, 236984, Note_on_c, 9, 51, 54
4, 237101, Note_on_c, 9, 51, 0
4, 237158, Note_on_c, 9, 51, 46
4, 237273, Note_on_c, 9, 51, 0
4, 237431, Note_on_c, 9, 40, 84
4, 237548, Note_on_c, 9, 40, 0
4, 237611, Note_on_c, 9, 51, 63
4, 237728, Note_on_c, 9, 51, 0
4, 237911, Note_on_c, 9, 51, 71
4, 237916, Note_on_c, 9, 36, 102
4, 238026, Note_on_c, 9, 51, 0
4, 238032, Note_on_c, 9, 36, 0
4, 238397, Note_on_c, 9, 40, 39
4, 238512, Note_on_c, 9, 40, 0
4, 238552, Note_on_c, 9, 51, 63
4, 238560, Note_on_c, 9, 44, 35
4, 238598, Note_on_c, 9, 44, 0
4, 238668, Note_on_c, 9, 51, 0
4, 238878, Note_on_c, 9, 51, 59
4, 238993, Note_on_c, 9, 51, 0
4, 239024, Note_on_c, 9, 51, 53
4, 239139, Note_on_c, 9, 51, 0
4, 239385, Note_on_c, 9, 40, 8
4, 239502, Note_on_c, 9, 40, 0
4, 239520, Note_on_c, 9, 44, 35
4, 239523, Note_on_c, 9, 51, 65
4, 239560, Note_on_c, 9, 44, 0
4, 239639, Note_on_c, 9, 51, 0
4, 239843, Note_on_c, 9, 40, 8
4, 239958, Note_on_c, 9, 40, 0
4, 240010, Note_on_c, 9, 51, 67
4, 240125, Note_on_c, 9, 51, 0
4, 240332, Note_on_c, 9, 40, 35
4, 240342, Note_on_c, 9, 51, 54
4, 240445, Note_on_c, 9, 40, 0
4, 240457, Note_on_c, 9, 51, 0
4, 240480, Note_on_c, 9, 44, 35
4, 240485, Note_on_c, 9, 51, 57
4, 240517, Note_on_c, 9, 44, 0
4, 240597, Note_on_c, 9, 51, 0
4, 240984, Note_on_c, 9, 40, 95
4, 240990, Note_on_c, 9, 51, 72
4, 241099, Note_on_c, 9, 40, 0
4, 241105, Note_on_c, 9, 51, 0
4, 241440, Note_on_c, 9, 44, 35
4, 241456, Note_on_c, 9, 51, 63
4, 241477, Note_on_c, 9, 44, 0
4, 241571, Note_on_c, 9, 51, 0
4, 241766, Note_on_c, 9, 51, 73
4, 241768, Note_on_c, 9, 40, 104
4, 241881, Note_on_c, 9, 51, 0
4, 241884, Note_on_c, 9, 40, 0
4, 242274, Note_on_c, 9, 40, 26
4, 242389, Note_on_c, 9, 40, 0
4, 242400, Note_on_c, 9, 44, 35
4, 242429, Note_on_c, 9, 51, 72
4, 242438, Note_on_c, 9, 44, 0
4, 242544, Note_on_c, 9, 51, 0
4, 242734, Note_on_c, 9, 40, 8
4, 242849, Note_on_c, 9, 40, 0
4, 242916, Note_on_c, 9, 51, 66
4, 243031, Note_on_c, 9, 51, 0
4, 243223, Note_on_c, 9, 51, 58
4, 243233, Note_on_c, 9, 40, 74
4, 243338, Note_on_c, 9, 51, 0
4, 243348, Note_on_c, 9, 40, 0
4, 243376, Note_on_c, 9, 51, 53
4, 243491, Note_on_c, 9, 51, 0
4, 243709, Note_on_c, 9, 40, 116
4, 243824, Note_on_c, 9, 40, 0
4, 244232, Note_on_c, 9, 46, 78
4, 244234, Note_on_c, 9, 36, 102
4, 244347, Note_on_c, 9, 46, 0
4, 244350, Note_on_c, 9, 36, 0
4, 245844, Note_on_c, 9, 59, 61
4, 245959, Note_on_c, 9, 59, 0
4, 246817, Note_on_c, 9, 59, 62
4, 246933, Note_on_c, 9, 59, 0
4, 247584, Note_on_c, 9, 59, 56
4, 247701, Note_on_c, 9, 59, 0
4, 247745, Note_on_c, 9, 59, 48
4, 247862, Note_on_c, 9, 59, 0
4, 248650, Note_on_c, 9, 59, 59
4, 248765, Note_on_c, 9, 59, 0
4, 249438, Note_on_c, 9, 59, 56
4, 249553, Note_on_c, 9, 59, 0
4, 249600, Note_on_c, 9, 59, 53
4, 249715, Note_on_c, 9, 59, 0
4, 250579, Note_on_c, 9, 59, 64
4, 250695, Note_on_c, 9, 59, 0
4, 251374, Note_on_c, 9, 59, 55
4, 251489, Note_on_c, 9, 59, 0
4, 251532, Note_on_c, 9, 59, 51
4, 251647, Note_on_c, 9, 59, 0
4, 252530, Note_on_c, 9, 59, 59
4, 252645, Note_on_c, 9, 59, 0
4, 253011, Note_on_c, 9, 59, 45
4, 253126, Note_on_c, 9, 59, 0
4, 253306, Note_on_c, 9, 46, 44
4, 253421, Note_on_c, 9, 46, 0
4, 254404, Note_on_c, 9, 59, 61
4, 254520, Note_on_c, 9, 59, 0
4, 255214, Note_on_c, 9, 59, 51
4, 255330, Note_on_c, 9, 59, 0
4, 255375, Note_on_c, 9, 59, 55
4, 255491, Note_on_c, 9, 59, 0
4, 256160, Note_on_c, 9, 59, 53
4, 256276, Note_on_c, 9, 59, 0
4, 256313, Note_on_c, 9, 59, 53
4, 256428, Note_on_c, 9, 59, 0
4, 256826, Note_on_c, 9, 59, 64
4, 256943, Note_on_c, 9, 59, 0
4, 257319, Note_on_c, 9, 59, 62
4, 257436, Note_on_c, 9, 59, 0
4, 258113, Note_on_c, 9, 59, 53
4, 258230, Note_on_c, 9, 59, 0
4, 258280, Note_on_c, 9, 59, 58
4, 258398, Note_on_c, 9, 59, 0
4, 258744, Note_on_c, 9, 59, 52
4, 258856, Note_on_c, 9, 59, 0
4, 259048, Note_on_c, 9, 40, 101
4, 259164, Note_on_c, 9, 40, 0
4, 259723, Note_on_c, 9, 46, 60
4, 259729, Note_on_c, 9, 36, 75
4, 259840, Note_on_c, 9, 46, 0
4, 259846, Note_on_c, 9, 36, 0
4, 260968, Note_on_c, 9, 46, 37
4, 260972, Note_on_c, 9, 59, 60
4, 261084, Note_on_c, 9, 46, 0
4, 261087, Note_on_c, 9, 59, 0
4, 262113, Note_on_c, 9, 59, 53
4, 262228, Note_on_c, 9, 59, 0
4, 262926, Note_on_c, 9, 59, 56
4, 263041, Note_on_c, 9, 59, 0
4, 263096, Note_on_c, 9, 59, 51
4, 263208, Note_on_c, 9, 59, 0
4, 263835, Note_on_c, 9, 59, 53
4, 263950, Note_on_c, 9, 59, 0
4, 263993, Note_on_c, 9, 59, 57
4, 264105, Note_on_c, 9, 59, 0
4, 264443, Note_on_c, 9, 59, 44
4, 264560, Note_on_c, 9, 59, 0
4, 264753, Note_on_c, 9, 59, 68
4, 264870, Note_on_c, 9, 59, 0
4, 265916, Note_on_c, 9, 59, 56
4, 266030, Note_on_c, 9, 59, 0
4, 266750, Note_on_c, 9, 59, 59
4, 266865, Note_on_c, 9, 59, 0
4, 267216, Note_on_c, 9, 59, 59
4, 267331, Note_on_c, 9, 59, 0
4, 267399, Note_on_c, 9, 59, 56
4, 267514, Note_on_c, 9, 59, 0
4, 268195, Note_on_c, 9, 59, 61
4, 268308, Note_on_c, 9, 59, 0
4, 268667, Note_on_c, 9, 59, 61
4, 268784, Note_on_c, 9, 59, 0
4, 269629, Note_on_c, 9, 59, 56
4, 269742, Note_on_c, 9, 59, 0
4, 269811, Note_on_c, 9, 59, 53
4, 269927, Note_on_c, 9, 59, 0
4, 270590, Note_on_c, 9, 59, 56
4, 270707, Note_on_c, 9, 59, 0
4, 270752, Note_on_c, 9, 59, 51
4, 270868, Note_on_c, 9, 59, 0
4, 271244, Note_on_c, 9, 59, 63
4, 271361, Note_on_c, 9, 59, 0
4, 271976, Note_on_c, 9, 59, 51
4, 272091, Note_on_c, 9, 59, 0
4, 272128, Note_on_c, 9, 59, 56
4, 272243, Note_on_c, 9, 59, 0
4, 272667, Note_on_c, 9, 59, 61
4, 272782, Note_on_c, 9, 59, 0
4, 273455, Note_on_c, 9, 59, 61
4, 273570, Note_on_c, 9, 59, 0
4, 273942, Note_on_c, 9, 40, 16
4, 274057, Note_on_c, 9, 40, 0
4, 274389, Note_on_c, 9, 40, 108
4, 274504, Note_on_c, 9, 40, 0
4, 274836, Note_on_c, 9, 36, 94
4, 274842, Note_on_c, 9, 46, 61
4, 274951, Note_on_c, 9, 36, 0
4, 274957, Note_on_c, 9, 46, 0
4, 276290, Note_on_c, 9, 46, 48
4, 276405, Note_on_c, 9, 46, 0
4, 276488, Note_on_c, 9, 59, 61
4, 276604, Note_on_c, 9, 59, 0
4, 277484, Note_on_c, 9, 59, 47
4, 277599, Note_on_c, 9, 59, 0
4, 278235, Note_on_c, 9, 59, 50
4, 278350, Note_on_c, 9, 59, 0
4, 278408, Note_on_c, 9, 59, 50
4, 278524, Note_on_c, 9, 59, 0
4, 279379, Note_on_c, 9, 59, 61
4, 279495, Note_on_c, 9, 59, 0
4, 280176, Note_on_c, 9, 59, 44
4, 280291, Note_on_c, 9, 59, 0
4, 280341, Note_on_c, 9, 59, 51
4, 280456, Note_on_c, 9, 59, 0
4, 281093, Note_on_c, 9, 59, 53
4, 281208, Note_on_c, 9, 59, 0
4, 281256, Note_on_c, 9, 59, 58
4, 281373, Note_on_c, 9, 59, 0
4, 281729, Note_on_c, 9, 59, 43
4, 281845, Note_on_c, 9, 59, 0
4, 282049, Note_on_c, 9, 59, 65
4, 282164, Note_on_c, 9, 59, 0
4, 282763, Note_on_c, 9, 59, 53
4, 282878, Note_on_c, 9, 59, 0
4, 283507, Note_on_c, 9, 59, 61
4, 283622, Note_on_c, 9, 59, 0
4, 284016, Note_on_c, 9, 59, 51
4, 284133, Note_on_c, 9, 59, 0
4, 284196, Note_on_c, 9, 59, 50
4, 284313, Note_on_c, 9, 59, 0
4, 284974, Note_on_c, 9, 59, 51
4, 285089, Note_on_c, 9, 59, 0
4, 285145, Note_on_c, 9, 59, 48
4, 285262, Note_on_c, 9, 59, 0
4, 285609, Note_on_c, 9, 59, 50
4, 285724, Note_on_c, 9, 59, 0
4, 285935, Note_on_c, 9, 59, 63
4, 286047, Note_on_c, 9, 59, 0
4, 286595, Note_on_c, 9, 59, 53
4, 286711, Note_on_c, 9, 59, 0
4, 286869, Note_on_c, 9, 59, 61
4, 286981, Note_on_c, 9, 59, 0
4, 287520, Note_on_c, 9, 59, 47
4, 287635, Note_on_c, 9, 59, 0
4, 287827, Note_on_c, 9, 59, 72
4, 287943, Note_on_c, 9, 59, 0
4, 288494, Note_on_c, 9, 59, 64
4, 288609, Note_on_c, 9, 59, 0
4, 288931, Note_on_c, 9, 59, 49
4, 289047, Note_on_c, 9, 59, 0
4, 289297, Note_on_c, 9, 59, 61
4, 289413, Note_on_c, 9, 59, 0
4, 289763, Note_on_c, 9, 59, 67
4, 289878, Note_on_c, 9, 59, 0
4, 290469, Note_on_c, 9, 59, 53
4, 290584, Note_on_c, 9, 59, 0
4, 290776, Note_on_c, 9, 59, 67
4, 290892, Note_on_c, 9, 59, 0
4, 291233, Note_on_c, 9, 59, 63
4, 291348, Note_on_c, 9, 59, 0
4, 291384, Note_on_c, 9, 59, 64
4, 291500, Note_on_c, 9, 59, 0
4, 292139, Note_on_c, 9, 59, 58
4, 292252, Note_on_c, 9, 59, 0
4, 292303, Note_on_c, 9, 59, 48
4, 292420, Note_on_c, 9, 59, 0
4, 292864, Note_on_c, 9, 59, 58
4, 292979, Note_on_c, 9, 59, 0
4, 293292, Note_on_c, 9, 59, 42
4, 293409, Note_on_c, 9, 59, 0
4, 293618, Note_on_c, 9, 59, 70
4, 293733, Note_on_c, 9, 59, 0
4, 294570, Note_on_c, 9, 59, 55
4, 294687, Note_on_c, 9, 59, 0
4, 294744, Note_on_c, 9, 59, 53
4, 294859, Note_on_c, 9, 59, 0
4, 295678, Note_on_c, 9, 59, 59
4, 295792, Note_on_c, 9, 59, 0
4, 296496, Note_on_c, 9, 59, 51
4, 296613, Note_on_c, 9, 59, 0
4, 296664, Note_on_c, 9, 59, 49
4, 296780, Note_on_c, 9, 59, 0
4, 297447, Note_on_c, 9, 36, 75
4, 297448, Note_on_c, 9, 46, 65
4, 297562, Note_on_c, 9, 36, 0
4, 297566, Note_on_c, 9, 46, 0
4, 298593, Note_on_c, 9, 59, 57
4, 298710, Note_on_c, 9, 59, 0
4, 298902, Note_on_c, 9, 59, 56
4, 299017, Note_on_c, 9, 59, 0
4, 299057, Note_on_c, 9, 59, 60
4, 299172, Note_on_c, 9, 59, 0
4, 299564, Note_on_c, 9, 59, 68
4, 299681, Note_on_c, 9, 59, 0
4, 300326, Note_on_c, 9, 59, 51
4, 300438, Note_on_c, 9, 59, 0
4, 300499, Note_on_c, 9, 59, 59
4, 300615, Note_on_c, 9, 59, 0
4, 301309, Note_on_c, 9, 59, 51
4, 301424, Note_on_c, 9, 59, 0
4, 301464, Note_on_c, 9, 59, 61
4, 301579, Note_on_c, 9, 59, 0
4, 302432, Note_on_c, 9, 59, 62
4, 302544, Note_on_c, 9, 59, 0
4, 302924, Note_on_c, 9, 59, 42
4, 303040, Note_on_c, 9, 59, 0
4, 303219, Note_on_c, 9, 59, 67
4, 303335, Note_on_c, 9, 59, 0
4, 303883, Note_on_c, 9, 59, 69
4, 303998, Note_on_c, 9, 59, 0
4, 304842, Note_on_c, 9, 59, 57
4, 304957, Note_on_c, 9, 59, 0
4, 305143, Note_on_c, 9, 40, 107
4, 305258, Note_on_c, 9, 40, 0
4, 305617, Note_on_c, 9, 59, 74
4, 305628, Note_on_c, 9, 36, 68
4, 305728, Note_on_c, 9, 59, 0
4, 305739, Note_on_c, 9, 36, 0
4, 307066, Note_on_c, 9, 59, 55
4, 307178, Note_on_c, 9, 59, 0
4, 307213, Note_on_c, 9, 59, 56
4, 307324, Note_on_c, 9, 59, 0
4, 307579, Note_on_c, 9, 59, 51
4, 307635, Note_on_c, 9, 59, 0
4, 307660, Note_on_c, 9, 44, 35
4, 307696, Note_on_c, 9, 44, 0
4, 308247, Note_on_c, 9, 59, 50
4, 308317, Note_on_c, 9, 59, 0
4, 309648, Note_on_c, 9, 51, 38
4, 309766, Note_on_c, 9, 51, 0
4, 309957, Note_on_c, 9, 51, 44
4, 310103, Note_on_c, 9, 51, 0
4, 310434, Note_on_c, 9, 51, 68
4, 310506, Note_on_c, 9, 51, 0
4, 310625, Note_on_c, 9, 51, 70
4, 310789, Note_on_c, 9, 51, 0
4, 311060, Note_on_c, 9, 51, 66
4, 311223, Note_on_c, 9, 51, 0
4, 312284, Note_on_c, 9, 59, 38
4, 312347, Note_on_c, 9, 59, 0
4, 312496, Note_on_c, 9, 59, 41
4, 312575, Note_on_c, 9, 59, 0
4, 312798, Note_on_c, 9, 59, 60
4, 312919, Note_on_c, 9, 59, 0
4, 313754, Note_on_c, 9, 59, 39
4, 313814, Note_on_c, 9, 59, 0
4, 313944, Note_on_c, 9, 59, 43
4, 314004, Note_on_c, 9, 59, 0
4, 314272, Note_on_c, 9, 59, 57
4, 314325, Note_on_c, 9, 59, 0
4, 314960, Note_on_c, 9, 59, 42
4, 315022, Note_on_c, 9, 59, 0
4, 315022, End_track
5, 0, Start_track
5, 0, Title_t, "C  ongas"
5, 0, Control_c, 9, 7, 86
5, 17, Note_on_c, 9, 35, 34
5, 76, Note_on_c, 9, 35, 0
5, 806, Note_on_c, 9, 35, 66
5, 872, Note_on_c, 9, 35, 0
5, 4646, Note_on_c, 9, 35, 45
5, 4743, Note_on_c, 9, 35, 0
5, 4897, Note_on_c, 9, 35, 34
5, 5019, Note_on_c, 9, 35, 0
5, 5146, Note_on_c, 9, 35, 69
5, 5231, Note_on_c, 9, 35, 0
5, 7545, Note_on_c, 9, 35, 65
5, 7609, Note_on_c, 9, 35, 0
5, 7703, Note_on_c, 9, 35, 52
5, 7828, Note_on_c, 9, 35, 0
5, 10122, Note_on_c, 9, 46, 23
5, 10150, Note_on_c, 9, 46, 0
5, 10415, Note_on_c, 9, 46, 83
5, 10467, Note_on_c, 9, 46, 0
5, 10732, Note_on_c, 9, 46, 74
5, 10769, Note_on_c, 9, 46, 0
5, 11049, Note_on_c, 9, 46, 74
5, 11100, Note_on_c, 9, 46, 0
5, 11360, Note_on_c, 9, 35, 53
5, 11427, Note_on_c, 9, 35, 0
5, 11542, Note_on_c, 9, 35, 73
5, 11723, Note_on_c, 9, 35, 0
5, 11841, Note_on_c, 9, 35, 89
5, 11966, Note_on_c, 9, 35, 0
5, 14738, Note_on_c, 9, 35, 37
5, 14786, Note_on_c, 9, 35, 0
5, 15061, Note_on_c, 9, 53, 59
5, 15089, Note_on_c, 9, 53, 0
5, 15199, Note_on_c, 9, 53, 73
5, 15251, Note_on_c, 9, 53, 0
5, 15675, Note_on_c, 9, 35, 32
5, 15716, Note_on_c, 9, 35, 0
5, 15842, Note_on_c, 9, 35, 49
5, 16038, Note_on_c, 9, 35, 0
5, 16173, Note_on_c, 9, 35, 70
5, 16263, Note_on_c, 9, 35, 0
5, 19043, Note_on_c, 9, 34, 39
5, 19082, Note_on_c, 9, 34, 0
5, 19195, Note_on_c, 9, 35, 60
5, 19237, Note_on_c, 9, 35, 0
5, 19518, Note_on_c, 9, 35, 31
5, 19557, Note_on_c, 9, 35, 0
5, 22452, Note_on_c, 9, 35, 52
5, 22509, Note_on_c, 9, 35, 0
5, 22794, Note_on_c, 9, 34, 60
5, 22844, Note_on_c, 9, 34, 0
5, 22911, Note_on_c, 9, 34, 64
5, 23040, Note_on_c, 9, 34, 0
5, 23066, Note_on_c, 9, 57, 74
5, 23077, Note_on_c, 9, 35, 71
5, 23120, Note_on_c, 9, 57, 0
5, 23182, Note_on_c, 9, 35, 0
5, 24851, Note_on_c, 9, 35, 31
5, 24913, Note_on_c, 9, 35, 0
5, 25003, Note_on_c, 9, 35, 42
5, 25229, Note_on_c, 9, 35, 0
5, 26715, Note_on_c, 9, 35, 47
5, 26801, Note_on_c, 9, 35, 0
5, 26879, Note_on_c, 9, 35, 58
5, 27102, Note_on_c, 9, 35, 0
5, 28998, Note_on_c, 9, 40, 50
5, 29027, Note_on_c, 9, 40, 0
5, 29267, Note_on_c, 9, 40, 64
5, 29310, Note_on_c, 9, 40, 0
5, 29437, Note_on_c, 9, 40, 42
5, 29471, Note_on_c, 9, 40, 0
5, 30068, Note_on_c, 9, 40, 34
5, 30105, Note_on_c, 9, 40, 0
5, 30231, Note_on_c, 9, 40, 57
5, 30260, Note_on_c, 9, 40, 0
5, 30398, Note_on_c, 9, 35, 48
5, 30458, Note_on_c, 9, 35, 0
5, 30543, Note_on_c, 9, 34, 70
5, 30679, Note_on_c, 9, 34, 0
5, 30726, Note_on_c, 9, 57, 47
5, 30763, Note_on_c, 9, 35, 62
5, 30764, Note_on_c, 9, 57, 0
5, 30875, Note_on_c, 9, 35, 0
5, 32192, Note_on_c, 9, 40, 40
5, 32226, Note_on_c, 9, 40, 0
5, 32486, Note_on_c, 9, 40, 60
5, 32513, Note_on_c, 9, 40, 0
5, 34410, Note_on_c, 9, 35, 46
5, 34492, Note_on_c, 9, 35, 0
5, 35404, Note_on_c, 9, 35, 34
5, 35445, Note_on_c, 9, 35, 0
5, 36278, Note_on_c, 9, 35, 53
5, 36321, Note_on_c, 9, 35, 0
5, 37759, Note_on_c, 9, 35, 47
5, 37796, Note_on_c, 9, 35, 0
5, 38116, Note_on_c, 9, 34, 57
5, 38186, Note_on_c, 9, 34, 0
5, 38284, Note_on_c, 9, 35, 32
5, 38319, Note_on_c, 9, 35, 0
5, 38417, Note_on_c, 9, 35, 44
5, 38500, Note_on_c, 9, 35, 0
5, 38722, Note_on_c, 9, 35, 45
5, 38806, Note_on_c, 9, 35, 0
5, 38870, Note_on_c, 9, 35, 64
5, 39081, Note_on_c, 9, 35, 0
5, 41579, Note_on_c, 9, 40, 51
5, 41611, Note_on_c, 9, 40, 0
5, 41803, Note_on_c, 9, 40, 57
5, 41852, Note_on_c, 9, 40, 0
5, 41925, Note_on_c, 9, 40, 66
5, 41953, Note_on_c, 9, 40, 0
5, 42070, Note_on_c, 9, 35, 41
5, 42120, Note_on_c, 9, 35, 0
5, 42295, Note_on_c, 9, 35, 40
5, 42306, Note_on_c, 9, 36, 48
5, 42336, Note_on_c, 9, 36, 0
5, 42399, Note_on_c, 9, 35, 0
5, 42524, Note_on_c, 9, 35, 80
5, 42682, Note_on_c, 9, 35, 0
5, 42754, Note_on_c, 9, 35, 59
5, 42925, Note_on_c, 9, 35, 0
5, 45931, Note_on_c, 9, 35, 64
5, 45994, Note_on_c, 9, 35, 0
5, 46115, Note_on_c, 9, 35, 31
5, 46155, Note_on_c, 9, 35, 0
5, 49119, Note_on_c, 9, 46, 45
5, 49149, Note_on_c, 9, 46, 0
5, 49439, Note_on_c, 9, 46, 49
5, 49473, Note_on_c, 9, 46, 0
5, 49585, Note_on_c, 9, 46, 50
5, 49617, Note_on_c, 9, 46, 0
5, 49736, Note_on_c, 9, 35, 53
5, 49774, Note_on_c, 9, 35, 0
5, 49907, Note_on_c, 9, 46, 37
5, 49939, Note_on_c, 9, 46, 0
5, 50072, Note_on_c, 9, 46, 58
5, 50103, Note_on_c, 9, 46, 0
5, 50231, Note_on_c, 9, 35, 38
5, 50277, Note_on_c, 9, 35, 0
5, 54531, Note_on_c, 9, 59, 64
5, 54559, Note_on_c, 9, 59, 0
5, 56196, Note_on_c, 9, 53, 53
5, 56224, Note_on_c, 9, 53, 0
5, 56483, Note_on_c, 9, 53, 68
5, 56510, Note_on_c, 9, 53, 0
5, 56988, Note_on_c, 9, 35, 35
5, 57031, Note_on_c, 9, 35, 0
5, 57961, Note_on_c, 9, 35, 38
5, 57997, Note_on_c, 9, 35, 0
5, 58124, Note_on_c, 9, 35, 47
5, 58167, Note_on_c, 9, 35, 0
5, 58430, Note_on_c, 9, 35, 63
5, 58498, Note_on_c, 9, 35, 0
5, 59395, Note_on_c, 9, 35, 49
5, 59427, Note_on_c, 9, 35, 0
5, 59551, Note_on_c, 9, 59, 70
5, 59645, Note_on_c, 9, 59, 0
5, 61440, Note_on_c, 9, 63, 0
5, 61440, Note_on_c, 9, 63, 0
5, 61440, Note_on_c, 9, 63, 0
5, 61440, Note_on_c, 9, 63, 0
5, 61500, Note_on_c, 9, 63, 0
5, 61500, Note_on_c, 9, 63, 0
5, 61500, Note_on_c, 9, 63, 0
5, 61500, Note_on_c, 9, 63, 0
5, 61878, Note_on_c, 9, 63, 43
5, 61896, Note_on_c, 9, 62, 33
5, 61970, Note_on_c, 9, 62, 0
5, 62020, Note_on_c, 9, 63, 0
5, 62218, Note_on_c, 9, 63, 42
5, 62228, Note_on_c, 9, 62, 24
5, 62268, Note_on_c, 9, 62, 0
5, 62304, Note_on_c, 9, 63, 0
5, 62873, Note_on_c, 9, 64, 64
5, 62910, Note_on_c, 9, 64, 0
5, 63181, Note_on_c, 9, 64, 125
5, 63327, Note_on_c, 9, 64, 0
5, 63865, Note_on_c, 9, 62, 33
5, 63893, Note_on_c, 9, 63, 27
5, 63911, Note_on_c, 9, 62, 0
5, 63951, Note_on_c, 9, 63, 0
5, 64173, Note_on_c, 9, 63, 77
5, 64177, Note_on_c, 9, 62, 77
5, 64232, Note_on_c, 9, 62, 0
5, 64271, Note_on_c, 9, 63, 0
5, 64842, Note_on_c, 9, 64, 48
5, 65030, Note_on_c, 9, 64, 0
5, 65140, Note_on_c, 9, 64, 80
5, 65242, Note_on_c, 9, 64, 0
5, 65812, Note_on_c, 9, 63, 40
5, 65812, Note_on_c, 9, 62, 26
5, 65851, Note_on_c, 9, 62, 0
5, 65885, Note_on_c, 9, 63, 0
5, 66111, Note_on_c, 9, 62, 30
5, 66116, Note_on_c, 9, 63, 38
5, 66153, Note_on_c, 9, 62, 0
5, 66168, Note_on_c, 9, 63, 0
5, 66427, Note_on_c, 9, 64, 50
5, 66483, Note_on_c, 9, 64, 0
5, 66579, Note_on_c, 9, 64, 55
5, 66669, Note_on_c, 9, 64, 0
5, 66742, Note_on_c, 9, 64, 81
5, 66857, Note_on_c, 9, 64, 0
5, 67044, Note_on_c, 9, 64, 115
5, 67205, Note_on_c, 9, 64, 0
5, 67686, Note_on_c, 9, 63, 35
5, 67788, Note_on_c, 9, 63, 0
5, 68003, Note_on_c, 9, 63, 29
5, 68018, Note_on_c, 9, 62, 25
5, 68054, Note_on_c, 9, 62, 0
5, 68070, Note_on_c, 9, 63, 0
5, 68505, Note_on_c, 9, 64, 42
5, 68546, Note_on_c, 9, 64, 0
5, 68676, Note_on_c, 9, 64, 68
5, 68779, Note_on_c, 9, 64, 0
5, 68996, Note_on_c, 9, 64, 105
5, 69061, Note_on_c, 9, 64, 0
5, 69937, Note_on_c, 9, 62, 108
5, 70006, Note_on_c, 9, 62, 0
5, 70121, Note_on_c, 9, 62, 76
5, 70240, Note_on_c, 9, 62, 0
5, 70368, Note_on_c, 9, 64, 37
5, 70410, Note_on_c, 9, 64, 0
5, 70581, Note_on_c, 9, 64, 34
5, 70621, Note_on_c, 9, 64, 0
5, 70897, Note_on_c, 9, 64, 101
5, 70994, Note_on_c, 9, 64, 0
5, 71862, Note_on_c, 9, 63, 40
5, 71872, Note_on_c, 9, 62, 31
5, 71902, Note_on_c, 9, 62, 0
5, 71945, Note_on_c, 9, 63, 0
5, 72521, Note_on_c, 9, 64, 38
5, 72627, Note_on_c, 9, 64, 0
5, 72818, Note_on_c, 9, 64, 118
5, 72881, Note_on_c, 9, 64, 0
5, 73468, Note_on_c, 9, 63, 63
5, 73470, Note_on_c, 9, 62, 29
5, 73500, Note_on_c, 9, 62, 0
5, 73538, Note_on_c, 9, 63, 0
5, 73789, Note_on_c, 9, 63, 86
5, 73798, Note_on_c, 9, 62, 74
5, 73826, Note_on_c, 9, 62, 0
5, 73904, Note_on_c, 9, 63, 0
5, 74450, Note_on_c, 9, 64, 68
5, 74610, Note_on_c, 9, 64, 0
5, 74744, Note_on_c, 9, 64, 108
5, 74848, Note_on_c, 9, 64, 0
5, 75367, Note_on_c, 9, 62, 24
5, 75380, Note_on_c, 9, 63, 23
5, 75438, Note_on_c, 9, 62, 0
5, 75486, Note_on_c, 9, 63, 0
5, 75726, Note_on_c, 9, 63, 33
5, 75735, Note_on_c, 9, 62, 26
5, 75771, Note_on_c, 9, 62, 0
5, 75781, Note_on_c, 9, 63, 0
5, 76345, Note_on_c, 9, 64, 123
5, 76364, Note_on_c, 9, 62, 50
5, 76392, Note_on_c, 9, 62, 0
5, 76489, Note_on_c, 9, 64, 0
5, 76655, Note_on_c, 9, 64, 125
5, 76816, Note_on_c, 9, 64, 0
5, 77330, Note_on_c, 9, 63, 33
5, 77335, Note_on_c, 9, 62, 29
5, 77426, Note_on_c, 9, 62, 0
5, 77432, Note_on_c, 9, 63, 0
5, 77632, Note_on_c, 9, 63, 40
5, 77644, Note_on_c, 9, 62, 39
5, 77704, Note_on_c, 9, 62, 0
5, 77718, Note_on_c, 9, 63, 0
5, 78242, Note_on_c, 9, 62, 24
5, 78254, Note_on_c, 9, 64, 40
5, 78327, Note_on_c, 9, 62, 0
5, 78378, Note_on_c, 9, 64, 0
5, 78550, Note_on_c, 9, 62, 81
5, 78564, Note_on_c, 9, 64, 85
5, 78632, Note_on_c, 9, 62, 0
5, 78711, Note_on_c, 9, 64, 0
5, 79186, Note_on_c, 9, 62, 31
5, 79218, Note_on_c, 9, 62, 0
5, 79497, Note_on_c, 9, 63, 47
5, 79618, Note_on_c, 9, 63, 0
5, 80184, Note_on_c, 9, 64, 40
5, 80223, Note_on_c, 9, 64, 0
5, 80469, Note_on_c, 9, 64, 127
5, 80630, Note_on_c, 9, 64, 0
5, 81304, Note_on_c, 9, 63, 60
5, 81361, Note_on_c, 9, 63, 0
5, 81447, Note_on_c, 9, 63, 77
5, 81544, Note_on_c, 9, 63, 0
5, 81585, Note_on_c, 9, 63, 82
5, 81635, Note_on_c, 9, 63, 0
5, 82066, Note_on_c, 9, 64, 36
5, 82164, Note_on_c, 9, 64, 0
5, 82369, Note_on_c, 9, 64, 105
5, 82487, Note_on_c, 9, 64, 0
5, 83382, Note_on_c, 9, 63, 70
5, 83430, Note_on_c, 9, 63, 0
5, 84168, Note_on_c, 9, 64, 64
5, 84209, Note_on_c, 9, 64, 0
5, 84298, Note_on_c, 9, 64, 80
5, 84426, Note_on_c, 9, 64, 0
5, 84942, Note_on_c, 9, 63, 49
5, 84988, Note_on_c, 9, 63, 0
5, 85259, Note_on_c, 9, 63, 77
5, 85375, Note_on_c, 9, 63, 0
5, 85940, Note_on_c, 9, 64, 64
5, 85972, Note_on_c, 9, 64, 0
5, 86246, Note_on_c, 9, 64, 127
5, 86314, Note_on_c, 9, 64, 0
5, 86888, Note_on_c, 9, 63, 54
5, 87063, Note_on_c, 9, 63, 0
5, 87211, Note_on_c, 9, 63, 58
5, 87282, Note_on_c, 9, 63, 0
5, 87978, Note_on_c, 9, 64, 72
5, 88011, Note_on_c, 9, 64, 0
5, 88136, Note_on_c, 9, 64, 80
5, 88221, Note_on_c, 9, 64, 0
5, 88790, Note_on_c, 9, 63, 52
5, 88979, Note_on_c, 9, 63, 0
5, 89110, Note_on_c, 9, 63, 69
5, 89180, Note_on_c, 9, 63, 0
5, 89759, Note_on_c, 9, 64, 55
5, 89950, Note_on_c, 9, 64, 0
5, 90084, Note_on_c, 9, 64, 60
5, 90142, Note_on_c, 9, 64, 0
5, 90554, Note_on_c, 9, 63, 37
5, 90592, Note_on_c, 9, 63, 0
5, 90744, Note_on_c, 9, 63, 74
5, 90863, Note_on_c, 9, 63, 0
5, 91031, Note_on_c, 9, 63, 98
5, 91160, Note_on_c, 9, 63, 0
5, 91702, Note_on_c, 9, 64, 42
5, 91825, Note_on_c, 9, 64, 0
5, 92018, Note_on_c, 9, 64, 123
5, 92163, Note_on_c, 9, 64, 0
5, 92642, Note_on_c, 9, 63, 35
5, 92673, Note_on_c, 9, 63, 0
5, 92955, Note_on_c, 9, 63, 88
5, 93035, Note_on_c, 9, 63, 0
5, 93609, Note_on_c, 9, 64, 72
5, 93691, Note_on_c, 9, 64, 0
5, 94556, Note_on_c, 9, 63, 61
5, 94724, Note_on_c, 9, 63, 0
5, 95721, Note_on_c, 9, 64, 70
5, 95761, Note_on_c, 9, 64, 0
5, 95857, Note_on_c, 9, 64, 81
5, 95960, Note_on_c, 9, 64, 0
5, 96516, Note_on_c, 9, 63, 53
5, 96691, Note_on_c, 9, 63, 0
5, 96796, Note_on_c, 9, 63, 69
5, 96876, Note_on_c, 9, 63, 0
5, 97456, Note_on_c, 9, 64, 53
5, 97561, Note_on_c, 9, 64, 0
5, 97746, Note_on_c, 9, 64, 103
5, 97854, Note_on_c, 9, 64, 0
5, 98428, Note_on_c, 9, 63, 56
5, 98460, Note_on_c, 9, 63, 0
5, 98725, Note_on_c, 9, 63, 98
5, 98803, Note_on_c, 9, 63, 0
5, 99364, Note_on_c, 9, 64, 115
5, 99569, Note_on_c, 9, 64, 0
5, 100312, Note_on_c, 9, 63, 65
5, 100381, Note_on_c, 9, 63, 0
5, 100648, Note_on_c, 9, 63, 99
5, 100671, Note_on_c, 9, 62, 75
5, 100705, Note_on_c, 9, 62, 0
5, 100715, Note_on_c, 9, 63, 0
5, 100825, Note_on_c, 9, 63, 81
5, 100920, Note_on_c, 9, 63, 0
5, 101285, Note_on_c, 9, 64, 57
5, 101330, Note_on_c, 9, 64, 0
5, 101594, Note_on_c, 9, 64, 96
5, 101667, Note_on_c, 9, 64, 0
5, 102588, Note_on_c, 9, 63, 58
5, 102592, Note_on_c, 9, 62, 51
5, 102641, Note_on_c, 9, 62, 0
5, 102697, Note_on_c, 9, 63, 0
5, 102900, Note_on_c, 9, 62, 57
5, 102905, Note_on_c, 9, 63, 74
5, 102936, Note_on_c, 9, 62, 0
5, 103042, Note_on_c, 9, 63, 0
5, 103227, Note_on_c, 9, 62, 66
5, 103233, Note_on_c, 9, 63, 74
5, 103270, Note_on_c, 9, 62, 0
5, 103377, Note_on_c, 9, 63, 0
5, 103518, Note_on_c, 9, 64, 84
5, 103638, Note_on_c, 9, 64, 0
5, 104489, Note_on_c, 9, 63, 71
5, 104576, Note_on_c, 9, 63, 0
5, 104672, Note_on_c, 9, 63, 57
5, 104863, Note_on_c, 9, 63, 0
5, 105098, Note_on_c, 9, 64, 74
5, 105291, Note_on_c, 9, 64, 0
5, 105415, Note_on_c, 9, 64, 80
5, 105487, Note_on_c, 9, 64, 0
5, 106095, Note_on_c, 9, 63, 70
5, 106192, Note_on_c, 9, 63, 0
5, 106417, Note_on_c, 9, 63, 97
5, 106530, Note_on_c, 9, 63, 0
5, 107059, Note_on_c, 9, 64, 71
5, 107242, Note_on_c, 9, 64, 0
5, 107372, Note_on_c, 9, 64, 78
5, 107455, Note_on_c, 9, 64, 0
5, 108042, Note_on_c, 9, 62, 36
5, 108077, Note_on_c, 9, 62, 0
5, 108329, Note_on_c, 9, 62, 118
5, 108402, Note_on_c, 9, 62, 0
5, 108968, Note_on_c, 9, 64, 33
5, 109179, Note_on_c, 9, 64, 0
5, 109281, Note_on_c, 9, 64, 108
5, 109391, Note_on_c, 9, 64, 0
5, 109911, Note_on_c, 9, 62, 22
5, 109926, Note_on_c, 9, 63, 33
5, 109967, Note_on_c, 9, 62, 0
5, 110008, Note_on_c, 9, 63, 0
5, 110234, Note_on_c, 9, 63, 94
5, 110238, Note_on_c, 9, 62, 88
5, 110284, Note_on_c, 9, 62, 0
5, 110438, Note_on_c, 9, 63, 0
5, 110878, Note_on_c, 9, 64, 43
5, 111065, Note_on_c, 9, 64, 0
5, 111199, Note_on_c, 9, 64, 115
5, 111291, Note_on_c, 9, 64, 0
5, 111852, Note_on_c, 9, 63, 56
5, 111867, Note_on_c, 9, 62, 46
5, 111895, Note_on_c, 9, 62, 0
5, 111923, Note_on_c, 9, 63, 0
5, 112670, Note_on_c, 9, 64, 20
5, 112741, Note_on_c, 9, 64, 0
5, 112823, Note_on_c, 9, 64, 50
5, 112907, Note_on_c, 9, 64, 0
5, 113146, Note_on_c, 9, 64, 125
5, 113299, Note_on_c, 9, 64, 0
5, 113762, Note_on_c, 9, 63, 36
5, 113774, Note_on_c, 9, 62, 32
5, 113805, Note_on_c, 9, 62, 0
5, 113830, Note_on_c, 9, 63, 0
5, 114092, Note_on_c, 9, 62, 44
5, 114094, Note_on_c, 9, 63, 47
5, 114126, Note_on_c, 9, 62, 0
5, 114163, Note_on_c, 9, 63, 0
5, 114885, Note_on_c, 9, 64, 73
5, 114944, Note_on_c, 9, 64, 0
5, 115034, Note_on_c, 9, 64, 88
5, 115111, Note_on_c, 9, 64, 0
5, 115689, Note_on_c, 9, 63, 38
5, 115690, Note_on_c, 9, 62, 42
5, 115800, Note_on_c, 9, 62, 0
5, 115810, Note_on_c, 9, 63, 0
5, 115996, Note_on_c, 9, 63, 52
5, 116066, Note_on_c, 9, 63, 0
5, 116313, Note_on_c, 9, 64, 29
5, 116416, Note_on_c, 9, 64, 0
5, 116496, Note_on_c, 9, 64, 40
5, 116568, Note_on_c, 9, 64, 0
5, 116663, Note_on_c, 9, 64, 57
5, 116698, Note_on_c, 9, 64, 0
5, 116819, Note_on_c, 9, 64, 68
5, 116847, Note_on_c, 9, 64, 0
5, 116975, Note_on_c, 9, 64, 94
5, 117048, Note_on_c, 9, 64, 0
5, 117595, Note_on_c, 9, 62, 40
5, 117598, Note_on_c, 9, 63, 36
5, 117666, Note_on_c, 9, 62, 0
5, 117722, Note_on_c, 9, 63, 0
5, 117898, Note_on_c, 9, 63, 60
5, 117913, Note_on_c, 9, 62, 47
5, 117947, Note_on_c, 9, 62, 0
5, 117977, Note_on_c, 9, 63, 0
5, 118583, Note_on_c, 9, 64, 40
5, 118634, Note_on_c, 9, 64, 0
5, 118881, Note_on_c, 9, 64, 113
5, 118906, Note_on_c, 9, 68, 48
5, 118912, Note_on_c, 9, 66, 34
5, 118934, Note_on_c, 9, 68, 0
5, 118940, Note_on_c, 9, 66, 0
5, 118956, Note_on_c, 9, 64, 0
5, 122880, Note_on_c, 9, 63, 0
5, 122880, Note_on_c, 9, 63, 0
5, 122880, Note_on_c, 9, 63, 0
5, 122880, Note_on_c, 9, 63, 0
5, 122940, Note_on_c, 9, 63, 0
5, 122940, Note_on_c, 9, 63, 0
5, 122940, Note_on_c, 9, 63, 0
5, 122940, Note_on_c, 9, 63, 0
5, 123318, Note_on_c, 9, 63, 43
5, 123336, Note_on_c, 9, 62, 33
5, 123410, Note_on_c, 9, 62, 0
5, 123460, Note_on_c, 9, 63, 0
5, 123658, Note_on_c, 9, 63, 42
5, 123668, Note_on_c, 9, 62, 24
5, 123708, Note_on_c, 9, 62, 0
5, 123744, Note_on_c, 9, 63, 0
5, 124313, Note_on_c, 9, 64, 64
5, 124350, Note_on_c, 9, 64, 0
5, 124621, Note_on_c, 9, 64, 125
5, 124767, Note_on_c, 9, 64, 0
5, 125305, Note_on_c, 9, 62, 33
5, 125333, Note_on_c, 9, 63, 27
5, 125351, Note_on_c, 9, 62, 0
5, 125391, Note_on_c, 9, 63, 0
5, 125613, Note_on_c, 9, 63, 77
5, 125617, Note_on_c, 9, 62, 77
5, 125672, Note_on_c, 9, 62, 0
5, 125711, Note_on_c, 9, 63, 0
5, 126282, Note_on_c, 9, 64, 48
5, 126470, Note_on_c, 9, 64, 0
5, 126580, Note_on_c, 9, 64, 80
5, 126682, Note_on_c, 9, 64, 0
5, 127252, Note_on_c, 9, 63, 40
5, 127252, Note_on_c, 9, 62, 26
5, 127291, Note_on_c, 9, 62, 0
5, 127325, Note_on_c, 9, 63, 0
5, 127551, Note_on_c, 9, 62, 30
5, 127556, Note_on_c, 9, 63, 38
5, 127593, Note_on_c, 9, 62, 0
5, 127608, Note_on_c, 9, 63, 0
5, 127867, Note_on_c, 9, 64, 50
5, 127923, Note_on_c, 9, 64, 0
5, 128019, Note_on_c, 9, 64, 55
5, 128109, Note_on_c, 9, 64, 0
5, 128182, Note_on_c, 9, 64, 81
5, 128297, Note_on_c, 9, 64, 0
5, 128484, Note_on_c, 9, 64, 115
5, 128645, Note_on_c, 9, 64, 0
5, 129126, Note_on_c, 9, 63, 35
5, 129228, Note_on_c, 9, 63, 0
5, 129443, Note_on_c, 9, 63, 29
5, 129458, Note_on_c, 9, 62, 25
5, 129494, Note_on_c, 9, 62, 0
5, 129510, Note_on_c, 9, 63, 0
5, 129945, Note_on_c, 9, 64, 42
5, 129986, Note_on_c, 9, 64, 0
5, 130116, Note_on_c, 9, 64, 68
5, 130219, Note_on_c, 9, 64, 0
5, 130436, Note_on_c, 9, 64, 105
5, 130501, Note_on_c, 9, 64, 0
5, 131377, Note_on_c, 9, 62, 108
5, 131446, Note_on_c, 9, 62, 0
5, 131561, Note_on_c, 9, 62, 76
5, 131680, Note_on_c, 9, 62, 0
5, 131808, Note_on_c, 9, 64, 37
5, 131850, Note_on_c, 9, 64, 0
5, 132021, Note_on_c, 9, 64, 34
5, 132061, Note_on_c, 9, 64, 0
5, 132337, Note_on_c, 9, 64, 101
5, 132434, Note_on_c, 9, 64, 0
5, 133302, Note_on_c, 9, 63, 40
5, 133312, Note_on_c, 9, 62, 31
5, 133342, Note_on_c, 9, 62, 0
5, 133385, Note_on_c, 9, 63, 0
5, 133961, Note_on_c, 9, 64, 38
5, 134067, Note_on_c, 9, 64, 0
5, 134258, Note_on_c, 9, 64, 118
5, 134321, Note_on_c, 9, 64, 0
5, 134908, Note_on_c, 9, 63, 63
5, 134910, Note_on_c, 9, 62, 29
5, 134940, Note_on_c, 9, 62, 0
5, 134978, Note_on_c, 9, 63, 0
5, 135229, Note_on_c, 9, 63, 86
5, 135238, Note_on_c, 9, 62, 74
5, 135266, Note_on_c, 9, 62, 0
5, 135344, Note_on_c, 9, 63, 0
5, 135890, Note_on_c, 9, 64, 68
5, 136050, Note_on_c, 9, 64, 0
5, 136184, Note_on_c, 9, 64, 108
5, 136288, Note_on_c, 9, 64, 0
5, 136807, Note_on_c, 9, 62, 24
5, 136820, Note_on_c, 9, 63, 23
5, 136878, Note_on_c, 9, 62, 0
5, 136926, Note_on_c, 9, 63, 0
5, 137166, Note_on_c, 9, 63, 33
5, 137175, Note_on_c, 9, 62, 26
5, 137211, Note_on_c, 9, 62, 0
5, 137221, Note_on_c, 9, 63, 0
5, 137785, Note_on_c, 9, 64, 123
5, 137804, Note_on_c, 9, 62, 50
5, 137832, Note_on_c, 9, 62, 0
5, 137929, Note_on_c, 9, 64, 0
5, 138095, Note_on_c, 9, 64, 125
5, 138256, Note_on_c, 9, 64, 0
5, 138770, Note_on_c, 9, 63, 33
5, 138775, Note_on_c, 9, 62, 29
5, 138866, Note_on_c, 9, 62, 0
5, 138872, Note_on_c, 9, 63, 0
5, 139072, Note_on_c, 9, 63, 40
5, 139084, Note_on_c, 9, 62, 39
5, 139144, Note_on_c, 9, 62, 0
5, 139158, Note_on_c, 9, 63, 0
5, 139682, Note_on_c, 9, 62, 24
5, 139694, Note_on_c, 9, 64, 40
5, 139767, Note_on_c, 9, 62, 0
5, 139818, Note_on_c, 9, 64, 0
5, 139990, Note_on_c, 9, 62, 81
5, 140004, Note_on_c, 9, 64, 85
5, 140072, Note_on_c, 9, 62, 0
5, 140151, Note_on_c, 9, 64, 0
5, 140626, Note_on_c, 9, 62, 31
5, 140658, Note_on_c, 9, 62, 0
5, 140937, Note_on_c, 9, 63, 47
5, 141058, Note_on_c, 9, 63, 0
5, 141624, Note_on_c, 9, 64, 40
5, 141663, Note_on_c, 9, 64, 0
5, 141909, Note_on_c, 9, 64, 127
5, 142070, Note_on_c, 9, 64, 0
5, 142744, Note_on_c, 9, 63, 60
5, 142801, Note_on_c, 9, 63, 0
5, 142887, Note_on_c, 9, 63, 77
5, 142984, Note_on_c, 9, 63, 0
5, 143025, Note_on_c, 9, 63, 82
5, 143075, Note_on_c, 9, 63, 0
5, 143506, Note_on_c, 9, 64, 36
5, 143604, Note_on_c, 9, 64, 0
5, 143809, Note_on_c, 9, 64, 105
5, 143927, Note_on_c, 9, 64, 0
5, 144822, Note_on_c, 9, 63, 70
5, 144870, Note_on_c, 9, 63, 0
5, 145608, Note_on_c, 9, 64, 64
5, 145649, Note_on_c, 9, 64, 0
5, 145738, Note_on_c, 9, 64, 80
5, 145866, Note_on_c, 9, 64, 0
5, 146382, Note_on_c, 9, 63, 49
5, 146428, Note_on_c, 9, 63, 0
5, 146699, Note_on_c, 9, 63, 77
5, 146815, Note_on_c, 9, 63, 0
5, 147380, Note_on_c, 9, 64, 64
5, 147412, Note_on_c, 9, 64, 0
5, 147686, Note_on_c, 9, 64, 127
5, 147754, Note_on_c, 9, 64, 0
5, 148328, Note_on_c, 9, 63, 54
5, 148503, Note_on_c, 9, 63, 0
5, 148651, Note_on_c, 9, 63, 58
5, 148722, Note_on_c, 9, 63, 0
5, 149418, Note_on_c, 9, 64, 72
5, 149451, Note_on_c, 9, 64, 0
5, 149576, Note_on_c, 9, 64, 80
5, 149661, Note_on_c, 9, 64, 0
5, 150230, Note_on_c, 9, 63, 52
5, 150419, Note_on_c, 9, 63, 0
5, 150550, Note_on_c, 9, 63, 69
5, 150620, Note_on_c, 9, 63, 0
5, 151199, Note_on_c, 9, 64, 55
5, 151390, Note_on_c, 9, 64, 0
5, 151524, Note_on_c, 9, 64, 60
5, 151582, Note_on_c, 9, 64, 0
5, 151994, Note_on_c, 9, 63, 37
5, 152032, Note_on_c, 9, 63, 0
5, 152184, Note_on_c, 9, 63, 74
5, 152303, Note_on_c, 9, 63, 0
5, 152471, Note_on_c, 9, 63, 98
5, 152600, Note_on_c, 9, 63, 0
5, 153142, Note_on_c, 9, 64, 42
5, 153265, Note_on_c, 9, 64, 0
5, 153458, Note_on_c, 9, 64, 123
5, 153603, Note_on_c, 9, 64, 0
5, 154082, Note_on_c, 9, 63, 35
5, 154113, Note_on_c, 9, 63, 0
5, 154395, Note_on_c, 9, 63, 88
5, 154475, Note_on_c, 9, 63, 0
5, 155049, Note_on_c, 9, 64, 72
5, 155131, Note_on_c, 9, 64, 0
5, 155996, Note_on_c, 9, 63, 61
5, 156164, Note_on_c, 9, 63, 0
5, 157161, Note_on_c, 9, 64, 70
5, 157201, Note_on_c, 9, 64, 0
5, 157297, Note_on_c, 9, 64, 81
5, 157400, Note_on_c, 9, 64, 0
5, 157956, Note_on_c, 9, 63, 53
5, 158131, Note_on_c, 9, 63, 0
5, 158236, Note_on_c, 9, 63, 69
5, 158316, Note_on_c, 9, 63, 0
5, 158896, Note_on_c, 9, 64, 53
5, 159001, Note_on_c, 9, 64, 0
5, 159186, Note_on_c, 9, 64, 103
5, 159294, Note_on_c, 9, 64, 0
5, 159868, Note_on_c, 9, 63, 56
5, 159900, Note_on_c, 9, 63, 0
5, 160165, Note_on_c, 9, 63, 98
5, 160243, Note_on_c, 9, 63, 0
5, 160804, Note_on_c, 9, 64, 115
5, 161009, Note_on_c, 9, 64, 0
5, 161752, Note_on_c, 9, 63, 65
5, 161821, Note_on_c, 9, 63, 0
5, 162088, Note_on_c, 9, 63, 99
5, 162111, Note_on_c, 9, 62, 75
5, 162145, Note_on_c, 9, 62, 0
5, 162155, Note_on_c, 9, 63, 0
5, 162265, Note_on_c, 9, 63, 81
5, 162360, Note_on_c, 9, 63, 0
5, 162725, Note_on_c, 9, 64, 57
5, 162770, Note_on_c, 9, 64, 0
5, 163034, Note_on_c, 9, 64, 96
5, 163107, Note_on_c, 9, 64, 0
5, 164028, Note_on_c, 9, 63, 58
5, 164032, Note_on_c, 9, 62, 51
5, 164081, Note_on_c, 9, 62, 0
5, 164137, Note_on_c, 9, 63, 0
5, 164340, Note_on_c, 9, 62, 57
5, 164345, Note_on_c, 9, 63, 74
5, 164376, Note_on_c, 9, 62, 0
5, 164482, Note_on_c, 9, 63, 0
5, 164667, Note_on_c, 9, 62, 66
5, 164673, Note_on_c, 9, 63, 74
5, 164710, Note_on_c, 9, 62, 0
5, 164817, Note_on_c, 9, 63, 0
5, 164958, Note_on_c, 9, 64, 84
5, 165078, Note_on_c, 9, 64, 0
5, 165929, Note_on_c, 9, 63, 71
5, 166016, Note_on_c, 9, 63, 0
5, 166112, Note_on_c, 9, 63, 57
5, 166303, Note_on_c, 9, 63, 0
5, 166538, Note_on_c, 9, 64, 74
5, 166731, Note_on_c, 9, 64, 0
5, 166855, Note_on_c, 9, 64, 80
5, 166927, Note_on_c, 9, 64, 0
5, 167535, Note_on_c, 9, 63, 70
5, 167632, Note_on_c, 9, 63, 0
5, 167857, Note_on_c, 9, 63, 97
5, 167970, Note_on_c, 9, 63, 0
5, 168499, Note_on_c, 9, 64, 71
5, 168682, Note_on_c, 9, 64, 0
5, 168812, Note_on_c, 9, 64, 78
5, 168895, Note_on_c, 9, 64, 0
5, 169482, Note_on_c, 9, 62, 36
5, 169517, Note_on_c, 9, 62, 0
5, 169769, Note_on_c, 9, 62, 118
5, 169842, Note_on_c, 9, 62, 0
5, 170408, Note_on_c, 9, 64, 33
5, 170619, Note_on_c, 9, 64, 0
5, 170721, Note_on_c, 9, 64, 108
5, 170831, Note_on_c, 9, 64, 0
5, 171351, Note_on_c, 9, 62, 22
5, 171366, Note_on_c, 9, 63, 33
5, 171407, Note_on_c, 9, 62, 0
5, 171448, Note_on_c, 9, 63, 0
5, 171674, Note_on_c, 9, 63, 94
5, 171678, Note_on_c, 9, 62, 88
5, 171724, Note_on_c, 9, 62, 0
5, 171878, Note_on_c, 9, 63, 0
5, 172318, Note_on_c, 9, 64, 43
5, 172505, Note_on_c, 9, 64, 0
5, 172639, Note_on_c, 9, 64, 115
5, 172731, Note_on_c, 9, 64, 0
5, 173292, Note_on_c, 9, 63, 56
5, 173307, Note_on_c, 9, 62, 46
5, 173335, Note_on_c, 9, 62, 0
5, 173363, Note_on_c, 9, 63, 0
5, 174110, Note_on_c, 9, 64, 20
5, 174181, Note_on_c, 9, 64, 0
5, 174263, Note_on_c, 9, 64, 50
5, 174347, Note_on_c, 9, 64, 0
5, 174586, Note_on_c, 9, 64, 125
5, 174739, Note_on_c, 9, 64, 0
5, 175202, Note_on_c, 9, 63, 36
5, 175214, Note_on_c, 9, 62, 32
5, 175245, Note_on_c, 9, 62, 0
5, 175270, Note_on_c, 9, 63, 0
5, 175532, Note_on_c, 9, 62, 44
5, 175534, Note_on_c, 9, 63, 47
5, 175566, Note_on_c, 9, 62, 0
5, 175603, Note_on_c, 9, 63, 0
5, 176325, Note_on_c, 9, 64, 73
5, 176384, Note_on_c, 9, 64, 0
5, 176474, Note_on_c, 9, 64, 88
5, 176551, Note_on_c, 9, 64, 0
5, 177129, Note_on_c, 9, 63, 38
5, 177130, Note_on_c, 9, 62, 42
5, 177240, Note_on_c, 9, 62, 0
5, 177250, Note_on_c, 9, 63, 0
5, 177436, Note_on_c, 9, 63, 52
5, 177506, Note_on_c, 9, 63, 0
5, 177753, Note_on_c, 9, 64, 29
5, 177856, Note_on_c, 9, 64, 0
5, 177936, Note_on_c, 9, 64, 40
5, 178008, Note_on_c, 9, 64, 0
5, 178103, Note_on_c, 9, 64, 57
5, 178138, Note_on_c, 9, 64, 0
5, 178259, Note_on_c, 9, 64, 68
5, 178287, Note_on_c, 9, 64, 0
5, 178415, Note_on_c, 9, 64, 94
5, 178488, Note_on_c, 9, 64, 0
5, 179035, Note_on_c, 9, 62, 40
5, 179038, Note_on_c, 9, 63, 36
5, 179106, Note_on_c, 9, 62, 0
5, 179162, Note_on_c, 9, 63, 0
5, 179338, Note_on_c, 9, 63, 60
5, 179353, Note_on_c, 9, 62, 47
5, 179387, Note_on_c, 9, 62, 0
5, 179417, Note_on_c, 9, 63, 0
5, 180023, Note_on_c, 9, 64, 40
5, 180074, Note_on_c, 9, 64, 0
5, 180321, Note_on_c, 9, 64, 113
5, 180346, Note_on_c, 9, 68, 48
5, 180352, Note_on_c, 9, 66, 34
5, 180374, Note_on_c, 9, 68, 0
5, 180380, Note_on_c, 9, 66, 0
5, 180396, Note_on_c, 9, 64, 0
5, 180396, End_track
6, 0, Start_track
6, 0, Title_t, "Trilogy 1 Primary Out"
6, 0, Control_c, 0, 7, 64
6, 0, Control_c, 0, 10, 64
6, 0, End_track
0, 0, End_of_file
