0, 0, Header, 1, 8, 120
1, 0, Start_track
1, 0, Title_t, "untitled"
1, 0, Text_t, "Gone Wi1\012"
1, 0, Text_t, "The Win1\012"
1, 0, Text_t, "Piano1  \012"
1, 0, Text_t, "AcouBass\012"
1, 0, Text_t, "Doug   1\012"
1, 0, Text_t, "TenrSax \012"
1, 0, Text_t, "McKenzi1\012"
1, 0, Text_t, "BrsSect \012"
1, 0, Text_t, "dougmck1\012"
1, 0, Text_t, "Piano1  \012"
1, 0, Text_t, "@deakin1\012"
1, 0, Text_t, "Piano1  \012"
1, 0, Text_t, "edu.au 1\012"
1, 0, Text_t, "Piano1  \012"
1, 0, Time_signature, 4, 2, 24, 8
1, 0, Key_signature, -3, "major"
1, 0, Tempo, 571429
1, 0, Marker_t, "Gone with the Wind  Doug. McKenzie  dougmck@deakin.edu.au"
1, 0, End_track
2, 0, Start_track
2, 0, MIDI_port, 71
2, 0, Program_c, 1, 0
2, 0, Control_c, 1, 7, 115
2, 0, Control_c, 1, 64, 127
2, 0, Control_c, 1, 64, 0
2, 0, Note_on_c, 1, 77, 58
2, 0, Note_on_c, 1, 80, 36
2, 0, Note_on_c, 1, 84, 62
2, 2, Note_on_c, 1, 41, 45
2, 3, Note_on_c, 1, 51, 23
2, 32, Note_on_c, 1, 41, 0
2, 46, Note_on_c, 1, 51, 0
2, 82, Note_on_c, 1, 84, 0
2, 88, Note_on_c, 1, 77, 0
2, 95, Note_on_c, 1, 80, 0
2, 161, Note_on_c, 1, 63, 44
2, 165, Note_on_c, 1, 60, 44
2, 166, Note_on_c, 1, 67, 38
2, 173, Note_on_c, 1, 67, 0
2, 173, Note_on_c, 1, 56, 20
2, 176, Note_on_c, 1, 60, 0
2, 176, Control_c, 1, 64, 0
2, 178, Note_on_c, 1, 63, 0
2, 186, Note_on_c, 1, 56, 0
2, 252, Control_c, 1, 64, 127
2, 261, Note_on_c, 1, 34, 51
2, 267, Note_on_c, 1, 34, 0
2, 321, Note_on_c, 1, 82, 73
2, 322, Note_on_c, 1, 70, 79
2, 322, Note_on_c, 1, 62, 73
2, 323, Note_on_c, 1, 75, 73
2, 323, Note_on_c, 1, 79, 71
2, 323, Note_on_c, 1, 56, 71
2, 325, Note_on_c, 1, 67, 80
2, 335, Control_c, 1, 64, 0
2, 357, Control_c, 1, 64, 127
2, 400, Note_on_c, 1, 67, 0
2, 403, Note_on_c, 1, 79, 0
2, 404, Note_on_c, 1, 70, 0
2, 413, Note_on_c, 1, 56, 0
2, 418, Note_on_c, 1, 82, 0
2, 418, Note_on_c, 1, 75, 0
2, 418, Note_on_c, 1, 62, 0
2, 477, Control_c, 1, 64, 0
2, 481, Note_on_c, 1, 66, 48
2, 483, Note_on_c, 1, 62, 35
2, 483, Note_on_c, 1, 56, 50
2, 485, Note_on_c, 1, 82, 54
2, 486, Note_on_c, 1, 75, 59
2, 486, Note_on_c, 1, 70, 60
2, 487, Note_on_c, 1, 79, 42
2, 493, Control_c, 1, 64, 127
2, 515, Note_on_c, 1, 79, 0
2, 521, Note_on_c, 1, 62, 0
2, 528, Note_on_c, 1, 82, 0
2, 529, Note_on_c, 1, 66, 0
2, 532, Note_on_c, 1, 75, 0
2, 536, Note_on_c, 1, 70, 0
2, 540, Note_on_c, 1, 56, 0
2, 588, Note_on_c, 1, 79, 68
2, 590, Note_on_c, 1, 75, 59
2, 591, Note_on_c, 1, 67, 59
2, 591, Note_on_c, 1, 71, 66
2, 598, Note_on_c, 1, 69, 37
2, 605, Note_on_c, 1, 69, 0
2, 611, Control_c, 1, 64, 0
2, 630, Note_on_c, 1, 64, 38
2, 633, Note_on_c, 1, 59, 47
2, 633, Note_on_c, 1, 53, 33
2, 643, Note_on_c, 1, 64, 0
2, 646, Note_on_c, 1, 59, 0
2, 646, Control_c, 1, 64, 127
2, 651, Note_on_c, 1, 79, 0
2, 656, Note_on_c, 1, 53, 0
2, 658, Note_on_c, 1, 71, 0
2, 662, Note_on_c, 1, 75, 0
2, 668, Note_on_c, 1, 67, 0
2, 741, Note_on_c, 1, 43, 66
2, 790, Note_on_c, 1, 53, 69
2, 793, Note_on_c, 1, 63, 90
2, 793, Note_on_c, 1, 67, 92
2, 796, Control_c, 1, 64, 0
2, 799, Note_on_c, 1, 43, 0
2, 811, Note_on_c, 1, 63, 0
2, 816, Note_on_c, 1, 53, 0
2, 827, Note_on_c, 1, 63, 51
2, 840, Control_c, 1, 64, 127
2, 841, Note_on_c, 1, 61, 69
2, 848, Note_on_c, 1, 67, 0
2, 860, Note_on_c, 1, 63, 0
2, 877, Note_on_c, 1, 59, 51
2, 881, Note_on_c, 1, 61, 0
2, 905, Note_on_c, 1, 59, 0
2, 918, Note_on_c, 1, 58, 47
2, 944, Note_on_c, 1, 58, 0
2, 945, Control_c, 1, 64, 0
2, 950, Note_on_c, 1, 36, 36
2, 952, Note_on_c, 1, 60, 50
2, 956, Note_on_c, 1, 52, 34
2, 976, Control_c, 1, 64, 127
2, 980, Note_on_c, 1, 36, 0
2, 996, Note_on_c, 1, 52, 0
2, 1038, Note_on_c, 1, 60, 0
2, 1102, Note_on_c, 1, 64, 43
2, 1103, Note_on_c, 1, 58, 36
2, 1106, Note_on_c, 1, 60, 42
2, 1113, Note_on_c, 1, 64, 0
2, 1114, Note_on_c, 1, 60, 0
2, 1125, Note_on_c, 1, 58, 0
2, 1205, Note_on_c, 1, 57, 70
2, 1206, Note_on_c, 1, 42, 38
2, 1211, Note_on_c, 1, 52, 20
2, 1218, Note_on_c, 1, 52, 0
2, 1238, Note_on_c, 1, 42, 0
2, 1246, Note_on_c, 1, 57, 0
2, 1248, Control_c, 1, 64, 0
2, 1262, Note_on_c, 1, 56, 54
2, 1265, Note_on_c, 1, 41, 51
2, 1271, Note_on_c, 1, 51, 33
2, 1280, Control_c, 1, 64, 127
2, 1285, Note_on_c, 1, 56, 0
2, 1288, Note_on_c, 1, 41, 0
2, 1299, Note_on_c, 1, 51, 0
2, 1367, Note_on_c, 1, 72, 84
2, 1411, Note_on_c, 1, 63, 35
2, 1411, Control_c, 1, 64, 0
2, 1412, Note_on_c, 1, 72, 0
2, 1413, Note_on_c, 1, 67, 49
2, 1415, Note_on_c, 1, 60, 27
2, 1417, Note_on_c, 1, 56, 30
2, 1418, Note_on_c, 1, 53, 26
2, 1439, Note_on_c, 1, 67, 0
2, 1455, Note_on_c, 1, 53, 0
2, 1458, Note_on_c, 1, 68, 52
2, 1466, Note_on_c, 1, 60, 0
2, 1467, Control_c, 1, 64, 127
2, 1471, Note_on_c, 1, 63, 0
2, 1473, Note_on_c, 1, 56, 0
2, 1481, Note_on_c, 1, 68, 0
2, 1511, Note_on_c, 1, 72, 90
2, 1553, Note_on_c, 1, 67, 41
2, 1553, Control_c, 1, 64, 0
2, 1555, Note_on_c, 1, 56, 33
2, 1557, Note_on_c, 1, 62, 35
2, 1579, Note_on_c, 1, 67, 0
2, 1586, Control_c, 1, 64, 127
2, 1588, Note_on_c, 1, 62, 0
2, 1603, Note_on_c, 1, 56, 0
2, 1607, Note_on_c, 1, 72, 0
2, 1610, Note_on_c, 1, 70, 62
2, 1643, Note_on_c, 1, 70, 0
2, 1662, Note_on_c, 1, 70, 78
2, 1702, Note_on_c, 1, 70, 0
2, 1707, Note_on_c, 1, 46, 52
2, 1708, Note_on_c, 1, 56, 40
2, 1710, Control_c, 1, 64, 0
2, 1713, Note_on_c, 1, 70, 79
2, 1736, Note_on_c, 1, 70, 0
2, 1750, Control_c, 1, 64, 127
2, 1758, Note_on_c, 1, 70, 47
2, 1786, Note_on_c, 1, 70, 0
2, 1798, Note_on_c, 1, 56, 0
2, 1811, Note_on_c, 1, 70, 69
2, 1813, Note_on_c, 1, 60, 68
2, 1815, Note_on_c, 1, 46, 0
2, 1815, Note_on_c, 1, 65, 71
2, 1815, Note_on_c, 1, 55, 74
2, 1818, Control_c, 1, 64, 0
2, 1820, Note_on_c, 1, 62, 41
2, 1827, Note_on_c, 1, 62, 0
2, 1845, Note_on_c, 1, 60, 0
2, 1846, Note_on_c, 1, 65, 0
2, 1847, Note_on_c, 1, 70, 0
2, 1860, Note_on_c, 1, 70, 42
2, 1860, Note_on_c, 1, 60, 43
2, 1865, Note_on_c, 1, 65, 54
2, 1881, Note_on_c, 1, 60, 0
2, 1883, Note_on_c, 1, 65, 0
2, 1885, Control_c, 1, 64, 127
2, 1892, Note_on_c, 1, 70, 0
2, 1900, Note_on_c, 1, 55, 0
2, 1912, Note_on_c, 1, 70, 57
2, 1913, Note_on_c, 1, 60, 68
2, 1913, Note_on_c, 1, 65, 64
2, 1915, Note_on_c, 1, 55, 73
2, 1916, Control_c, 1, 64, 0
2, 1917, Note_on_c, 1, 54, 17
2, 1933, Note_on_c, 1, 54, 0
2, 1944, Note_on_c, 1, 60, 0
2, 1945, Note_on_c, 1, 70, 0
2, 1945, Note_on_c, 1, 65, 0
2, 1955, Note_on_c, 1, 55, 0
2, 1961, Note_on_c, 1, 70, 60
2, 1962, Note_on_c, 1, 55, 29
2, 1963, Note_on_c, 1, 60, 36
2, 1965, Control_c, 1, 64, 127
2, 1970, Note_on_c, 1, 65, 29
2, 1977, Note_on_c, 1, 65, 0
2, 1979, Note_on_c, 1, 60, 0
2, 1992, Note_on_c, 1, 70, 0
2, 2005, Control_c, 1, 64, 0
2, 2012, Note_on_c, 1, 55, 0
2, 2012, Note_on_c, 1, 71, 69
2, 2013, Note_on_c, 1, 56, 55
2, 2015, Note_on_c, 1, 61, 49
2, 2018, Note_on_c, 1, 66, 49
2, 2035, Note_on_c, 1, 71, 0
2, 2045, Control_c, 1, 64, 127
2, 2046, Note_on_c, 1, 66, 0
2, 2051, Control_c, 1, 64, 0
2, 2055, Note_on_c, 1, 61, 0
2, 2067, Note_on_c, 1, 70, 60
2, 2070, Note_on_c, 1, 56, 0
2, 2071, Note_on_c, 1, 60, 51
2, 2071, Note_on_c, 1, 65, 48
2, 2073, Note_on_c, 1, 55, 56
2, 2098, Control_c, 1, 64, 127
2, 2123, Note_on_c, 1, 65, 0
2, 2127, Note_on_c, 1, 70, 0
2, 2131, Note_on_c, 1, 60, 0
2, 2133, Note_on_c, 1, 55, 0
2, 2167, Note_on_c, 1, 62, 60
2, 2168, Note_on_c, 1, 67, 56
2, 2171, Control_c, 1, 64, 0
2, 2205, Control_c, 1, 64, 127
2, 2263, Note_on_c, 1, 46, 59
2, 2284, Note_on_c, 1, 46, 0
2, 2317, Note_on_c, 1, 46, 57
2, 2320, Control_c, 1, 64, 0
2, 2321, Note_on_c, 1, 55, 37
2, 2339, Note_on_c, 1, 62, 0
2, 2343, Note_on_c, 1, 55, 0
2, 2353, Control_c, 1, 64, 127
2, 2386, Note_on_c, 1, 67, 0
2, 2413, Note_on_c, 1, 46, 0
2, 2418, Note_on_c, 1, 59, 44
2, 2418, Note_on_c, 1, 60, 47
2, 2420, Note_on_c, 1, 64, 49
2, 2440, Control_c, 1, 64, 0
2, 2460, Note_on_c, 1, 59, 0
2, 2467, Note_on_c, 1, 45, 42
2, 2467, Note_on_c, 1, 55, 31
2, 2468, Control_c, 1, 64, 127
2, 2471, Note_on_c, 1, 60, 0
2, 2483, Note_on_c, 1, 64, 0
2, 2492, Note_on_c, 1, 45, 0
2, 2505, Note_on_c, 1, 55, 0
2, 2523, Note_on_c, 1, 71, 78
2, 2543, Note_on_c, 1, 71, 0
2, 2560, Note_on_c, 1, 72, 79
2, 2578, Note_on_c, 1, 72, 0
2, 2591, Note_on_c, 1, 76, 74
2, 2606, Control_c, 1, 64, 0
2, 2617, Note_on_c, 1, 76, 0
2, 2622, Note_on_c, 1, 64, 48
2, 2625, Note_on_c, 1, 60, 37
2, 2625, Note_on_c, 1, 79, 69
2, 2630, Note_on_c, 1, 59, 29
2, 2632, Note_on_c, 1, 55, 43
2, 2640, Note_on_c, 1, 79, 0
2, 2662, Note_on_c, 1, 86, 80
2, 2663, Note_on_c, 1, 83, 74
2, 2668, Control_c, 1, 64, 127
2, 2669, Note_on_c, 1, 64, 0
2, 2670, Note_on_c, 1, 59, 0
2, 2672, Note_on_c, 1, 60, 0
2, 2683, Note_on_c, 1, 55, 0
2, 2684, Note_on_c, 1, 83, 0
2, 2685, Note_on_c, 1, 86, 0
2, 2702, Note_on_c, 1, 86, 59
2, 2703, Note_on_c, 1, 83, 70
2, 2720, Note_on_c, 1, 86, 0
2, 2724, Note_on_c, 1, 83, 0
2, 2740, Note_on_c, 1, 86, 61
2, 2740, Note_on_c, 1, 83, 68
2, 2757, Note_on_c, 1, 86, 0
2, 2758, Control_c, 1, 64, 0
2, 2760, Note_on_c, 1, 83, 0
2, 2773, Note_on_c, 1, 60, 34
2, 2775, Note_on_c, 1, 50, 47
2, 2777, Note_on_c, 1, 54, 36
2, 2778, Note_on_c, 1, 86, 68
2, 2778, Note_on_c, 1, 83, 64
2, 2791, Control_c, 1, 64, 127
2, 2798, Note_on_c, 1, 83, 0
2, 2810, Note_on_c, 1, 86, 0
2, 2811, Note_on_c, 1, 50, 0
2, 2819, Note_on_c, 1, 54, 0
2, 2822, Note_on_c, 1, 85, 59
2, 2822, Note_on_c, 1, 82, 55
2, 2824, Note_on_c, 1, 60, 0
2, 2842, Note_on_c, 1, 85, 0
2, 2845, Note_on_c, 1, 82, 0
2, 2861, Note_on_c, 1, 84, 67
2, 2863, Note_on_c, 1, 81, 49
2, 2918, Control_c, 1, 64, 0
2, 2927, Note_on_c, 1, 65, 44
2, 2928, Note_on_c, 1, 54, 35
2, 2932, Note_on_c, 1, 60, 42
2, 2933, Control_c, 1, 64, 127
2, 2934, Note_on_c, 1, 81, 0
2, 2942, Note_on_c, 1, 65, 0
2, 2945, Note_on_c, 1, 60, 0
2, 2963, Note_on_c, 1, 54, 0
2, 2968, Note_on_c, 1, 84, 0
2, 2983, Note_on_c, 1, 78, 40
2, 2986, Note_on_c, 1, 74, 49
2, 3007, Note_on_c, 1, 74, 0
2, 3009, Note_on_c, 1, 78, 0
2, 3026, Note_on_c, 1, 81, 72
2, 3053, Note_on_c, 1, 81, 0
2, 3077, Control_c, 1, 64, 0
2, 3080, Note_on_c, 1, 43, 57
2, 3101, Control_c, 1, 64, 127
2, 3180, Note_on_c, 1, 50, 44
2, 3217, Note_on_c, 1, 43, 0
2, 3220, Note_on_c, 1, 50, 0
2, 3231, Note_on_c, 1, 55, 55
2, 3232, Note_on_c, 1, 62, 51
2, 3233, Note_on_c, 1, 64, 57
2, 3233, Note_on_c, 1, 59, 50
2, 3238, Control_c, 1, 64, 0
2, 3277, Note_on_c, 1, 51, 59
2, 3291, Note_on_c, 1, 55, 0
2, 3295, Note_on_c, 1, 59, 0
2, 3297, Note_on_c, 1, 51, 0
2, 3300, Note_on_c, 1, 62, 0
2, 3304, Note_on_c, 1, 64, 0
2, 3321, Control_c, 1, 64, 127
2, 3326, Note_on_c, 1, 52, 78
2, 3349, Note_on_c, 1, 52, 0
2, 3351, Control_c, 1, 64, 0
2, 3378, Control_c, 1, 64, 127
2, 3425, Note_on_c, 1, 28, 29
2, 3432, Note_on_c, 1, 28, 0
2, 3528, Note_on_c, 1, 76, 75
2, 3530, Note_on_c, 1, 56, 56
2, 3530, Note_on_c, 1, 72, 71
2, 3531, Note_on_c, 1, 67, 64
2, 3531, Note_on_c, 1, 62, 56
2, 3548, Note_on_c, 1, 62, 0
2, 3558, Note_on_c, 1, 56, 0
2, 3561, Note_on_c, 1, 72, 0
2, 3566, Note_on_c, 1, 76, 0
2, 3566, Note_on_c, 1, 67, 0
2, 3628, Note_on_c, 1, 74, 63
2, 3628, Note_on_c, 1, 46, 51
2, 3630, Note_on_c, 1, 68, 51
2, 3632, Note_on_c, 1, 56, 34
2, 3650, Note_on_c, 1, 74, 0
2, 3658, Note_on_c, 1, 68, 0
2, 3660, Note_on_c, 1, 56, 0
2, 3673, Note_on_c, 1, 46, 0
2, 3675, Control_c, 1, 64, 0
2, 3687, Note_on_c, 1, 67, 46
2, 3687, Note_on_c, 1, 64, 44
2, 3687, Note_on_c, 1, 55, 45
2, 3688, Note_on_c, 1, 45, 48
2, 3703, Control_c, 1, 64, 127
2, 3710, Note_on_c, 1, 64, 0
2, 3715, Note_on_c, 1, 67, 0
2, 3718, Note_on_c, 1, 45, 0
2, 3734, Note_on_c, 1, 55, 0
2, 3786, Note_on_c, 1, 79, 92
2, 3822, Note_on_c, 1, 79, 0
2, 3832, Note_on_c, 1, 64, 36
2, 3833, Control_c, 1, 64, 0
2, 3836, Note_on_c, 1, 60, 32
2, 3837, Note_on_c, 1, 75, 33
2, 3840, Note_on_c, 1, 59, 28
2, 3842, Note_on_c, 1, 55, 47
2, 3865, Note_on_c, 1, 64, 0
2, 3868, Note_on_c, 1, 59, 0
2, 3870, Note_on_c, 1, 75, 0
2, 3870, Control_c, 1, 64, 127
2, 3873, Note_on_c, 1, 60, 0
2, 3875, Note_on_c, 1, 76, 41
2, 3888, Note_on_c, 1, 55, 0
2, 3906, Note_on_c, 1, 76, 0
2, 3927, Note_on_c, 1, 77, 76
2, 3969, Note_on_c, 1, 77, 0
2, 3972, Control_c, 1, 64, 0
2, 3977, Note_on_c, 1, 60, 32
2, 3978, Note_on_c, 1, 78, 64
2, 3980, Note_on_c, 1, 54, 36
2, 3981, Note_on_c, 1, 50, 38
2, 4006, Control_c, 1, 64, 127
2, 4033, Note_on_c, 1, 50, 0
2, 4038, Note_on_c, 1, 54, 0
2, 4047, Note_on_c, 1, 60, 0
2, 4061, Note_on_c, 1, 78, 0
2, 4083, Note_on_c, 1, 79, 85
2, 4120, Control_c, 1, 64, 0
2, 4122, Note_on_c, 1, 54, 53
2, 4123, Note_on_c, 1, 65, 44
2, 4125, Note_on_c, 1, 60, 45
2, 4131, Note_on_c, 1, 65, 0
2, 4133, Note_on_c, 1, 60, 0
2, 4145, Note_on_c, 1, 54, 0
2, 4146, Control_c, 1, 64, 127
2, 4166, Note_on_c, 1, 79, 0
2, 4173, Note_on_c, 1, 81, 75
2, 4201, Note_on_c, 1, 81, 0
2, 4252, Note_on_c, 1, 70, 25
2, 4258, Note_on_c, 1, 70, 0
2, 4283, Note_on_c, 1, 74, 77
2, 4286, Note_on_c, 1, 66, 80
2, 4287, Note_on_c, 1, 69, 74
2, 4287, Note_on_c, 1, 71, 68
2, 4290, Note_on_c, 1, 59, 71
2, 4291, Control_c, 1, 64, 0
2, 4293, Note_on_c, 1, 72, 38
2, 4351, Control_c, 1, 64, 127
2, 4395, Note_on_c, 1, 69, 0
2, 4397, Note_on_c, 1, 71, 0
2, 4397, Note_on_c, 1, 66, 0
2, 4401, Note_on_c, 1, 74, 0
2, 4403, Note_on_c, 1, 72, 0
2, 4405, Note_on_c, 1, 59, 0
2, 4438, Control_c, 1, 64, 0
2, 4442, Note_on_c, 1, 66, 55
2, 4443, Note_on_c, 1, 57, 39
2, 4445, Note_on_c, 1, 74, 48
2, 4445, Note_on_c, 1, 71, 44
2, 4448, Note_on_c, 1, 69, 50
2, 4470, Control_c, 1, 64, 127
2, 4503, Note_on_c, 1, 69, 0
2, 4506, Note_on_c, 1, 71, 0
2, 4510, Note_on_c, 1, 66, 0
2, 4526, Note_on_c, 1, 57, 0
2, 4556, Note_on_c, 1, 74, 0
2, 4600, Note_on_c, 1, 74, 58
2, 4600, Note_on_c, 1, 66, 53
2, 4601, Note_on_c, 1, 62, 51
2, 4601, Control_c, 1, 64, 0
2, 4607, Note_on_c, 1, 55, 44
2, 4631, Control_c, 1, 64, 127
2, 4675, Note_on_c, 1, 55, 0
2, 4687, Note_on_c, 1, 66, 0
2, 4693, Note_on_c, 1, 62, 0
2, 4702, Note_on_c, 1, 50, 33
2, 4709, Note_on_c, 1, 50, 0
2, 4737, Note_on_c, 1, 74, 0
2, 4740, Control_c, 1, 64, 0
2, 4746, Note_on_c, 1, 43, 79
2, 4747, Note_on_c, 1, 66, 67
2, 4748, Note_on_c, 1, 62, 67
2, 4767, Control_c, 1, 64, 127
2, 4808, Note_on_c, 1, 66, 0
2, 4820, Note_on_c, 1, 62, 0
2, 4903, Note_on_c, 1, 62, 57
2, 4903, Note_on_c, 1, 58, 49
2, 4905, Note_on_c, 1, 55, 57
2, 4905, Note_on_c, 1, 63, 38
2, 4910, Control_c, 1, 64, 0
2, 4947, Note_on_c, 1, 55, 0
2, 4988, Control_c, 1, 64, 127
2, 5008, Note_on_c, 1, 55, 101
2, 5019, Note_on_c, 1, 58, 0
2, 5020, Note_on_c, 1, 62, 0
2, 5050, Note_on_c, 1, 63, 0
2, 5070, Note_on_c, 1, 58, 51
2, 5070, Note_on_c, 1, 62, 66
2, 5070, Note_on_c, 1, 63, 55
2, 5081, Note_on_c, 1, 43, 0
2, 5145, Note_on_c, 1, 55, 0
2, 5161, Note_on_c, 1, 62, 0
2, 5161, Note_on_c, 1, 58, 0
2, 5161, Note_on_c, 1, 63, 0
2, 5161, Note_on_c, 1, 55, 74
2, 5217, Note_on_c, 1, 62, 58
2, 5218, Note_on_c, 1, 58, 49
2, 5265, Note_on_c, 1, 58, 0
2, 5273, Note_on_c, 1, 62, 0
2, 5311, Note_on_c, 1, 43, 73
2, 5328, Note_on_c, 1, 55, 0
2, 5358, Note_on_c, 1, 43, 0
2, 5366, Note_on_c, 1, 74, 81
2, 5367, Note_on_c, 1, 70, 72
2, 5368, Note_on_c, 1, 63, 77
2, 5370, Note_on_c, 1, 67, 82
2, 5377, Control_c, 1, 64, 0
2, 5383, Control_c, 1, 64, 127
2, 5410, Note_on_c, 1, 55, 80
2, 5451, Note_on_c, 1, 55, 0
2, 5467, Note_on_c, 1, 67, 0
2, 5478, Note_on_c, 1, 70, 0
2, 5483, Note_on_c, 1, 63, 0
2, 5487, Note_on_c, 1, 74, 0
2, 5513, Note_on_c, 1, 74, 76
2, 5516, Note_on_c, 1, 63, 75
2, 5517, Note_on_c, 1, 60, 62
2, 5518, Note_on_c, 1, 66, 64
2, 5518, Note_on_c, 1, 69, 70
2, 5521, Control_c, 1, 64, 0
2, 5561, Control_c, 1, 64, 127
2, 5625, Note_on_c, 1, 74, 0
2, 5631, Note_on_c, 1, 63, 0
2, 5633, Note_on_c, 1, 66, 0
2, 5633, Note_on_c, 1, 69, 0
2, 5643, Note_on_c, 1, 60, 0
2, 5645, Note_on_c, 1, 59, 48
2, 5655, Note_on_c, 1, 59, 0
2, 5658, Note_on_c, 1, 58, 52
2, 5670, Control_c, 1, 64, 0
2, 5673, Note_on_c, 1, 75, 68
2, 5674, Note_on_c, 1, 58, 0
2, 5676, Note_on_c, 1, 63, 59
2, 5676, Note_on_c, 1, 66, 60
2, 5678, Note_on_c, 1, 69, 58
2, 5686, Note_on_c, 1, 57, 51
2, 5708, Control_c, 1, 64, 127
2, 5765, Note_on_c, 1, 75, 0
2, 5769, Note_on_c, 1, 69, 0
2, 5774, Note_on_c, 1, 66, 0
2, 5781, Note_on_c, 1, 56, 34
2, 5783, Note_on_c, 1, 63, 0
2, 5787, Note_on_c, 1, 56, 0
2, 5794, Note_on_c, 1, 57, 0
2, 5797, Note_on_c, 1, 55, 38
2, 5824, Note_on_c, 1, 55, 0
2, 5825, Note_on_c, 1, 72, 52
2, 5826, Note_on_c, 1, 66, 43
2, 5826, Control_c, 1, 64, 0
2, 5826, Note_on_c, 1, 63, 27
2, 5827, Note_on_c, 1, 54, 48
2, 5828, Note_on_c, 1, 69, 46
2, 5858, Control_c, 1, 64, 127
2, 5879, Note_on_c, 1, 69, 0
2, 5888, Note_on_c, 1, 72, 0
2, 5888, Note_on_c, 1, 54, 0
2, 5894, Note_on_c, 1, 63, 0
2, 5901, Note_on_c, 1, 66, 0
2, 5976, Note_on_c, 1, 63, 46
2, 5980, Note_on_c, 1, 66, 32
2, 5981, Note_on_c, 1, 60, 35
2, 5982, Control_c, 1, 64, 0
2, 5983, Note_on_c, 1, 51, 40
2, 6008, Control_c, 1, 64, 127
2, 6010, Note_on_c, 1, 51, 0
2, 6013, Note_on_c, 1, 66, 0
2, 6014, Note_on_c, 1, 63, 0
2, 6023, Note_on_c, 1, 60, 0
2, 6077, Note_on_c, 1, 57, 54
2, 6080, Note_on_c, 1, 42, 44
2, 6103, Note_on_c, 1, 42, 0
2, 6118, Control_c, 1, 64, 0
2, 6125, Note_on_c, 1, 57, 0
2, 6131, Note_on_c, 1, 41, 47
2, 6131, Note_on_c, 1, 56, 44
2, 6140, Note_on_c, 1, 51, 25
2, 6151, Control_c, 1, 64, 127
2, 6162, Note_on_c, 1, 56, 0
2, 6169, Note_on_c, 1, 41, 0
2, 6187, Note_on_c, 1, 51, 0
2, 6277, Note_on_c, 1, 63, 51
2, 6283, Note_on_c, 1, 60, 43
2, 6283, Note_on_c, 1, 56, 33
2, 6287, Note_on_c, 1, 53, 51
2, 6290, Control_c, 1, 64, 0
2, 6291, Control_c, 1, 64, 127
2, 6347, Note_on_c, 1, 53, 0
2, 6353, Note_on_c, 1, 60, 0
2, 6360, Note_on_c, 1, 56, 0
2, 6362, Note_on_c, 1, 72, 53
2, 6368, Note_on_c, 1, 63, 0
2, 6372, Note_on_c, 1, 73, 49
2, 6382, Note_on_c, 1, 72, 0
2, 6388, Note_on_c, 1, 74, 71
2, 6396, Note_on_c, 1, 74, 0
2, 6400, Note_on_c, 1, 73, 0
2, 6407, Note_on_c, 1, 75, 85
2, 6413, Control_c, 1, 64, 0
2, 6418, Note_on_c, 1, 76, 69
2, 6437, Note_on_c, 1, 63, 51
2, 6437, Note_on_c, 1, 67, 57
2, 6440, Note_on_c, 1, 56, 43
2, 6441, Note_on_c, 1, 60, 53
2, 6468, Note_on_c, 1, 76, 0
2, 6472, Note_on_c, 1, 75, 0
2, 6487, Note_on_c, 1, 75, 75
2, 6518, Note_on_c, 1, 75, 0
2, 6519, Note_on_c, 1, 67, 0
2, 6528, Note_on_c, 1, 60, 0
2, 6528, Control_c, 1, 64, 127
2, 6529, Note_on_c, 1, 63, 0
2, 6531, Note_on_c, 1, 75, 69
2, 6538, Note_on_c, 1, 56, 0
2, 6561, Note_on_c, 1, 75, 0
2, 6581, Note_on_c, 1, 75, 72
2, 6586, Note_on_c, 1, 63, 43
2, 6588, Control_c, 1, 64, 0
2, 6588, Note_on_c, 1, 60, 40
2, 6592, Note_on_c, 1, 56, 36
2, 6593, Note_on_c, 1, 53, 32
2, 6613, Note_on_c, 1, 63, 0
2, 6619, Note_on_c, 1, 53, 0
2, 6627, Note_on_c, 1, 75, 0
2, 6629, Note_on_c, 1, 60, 0
2, 6630, Control_c, 1, 64, 127
2, 6633, Note_on_c, 1, 72, 40
2, 6647, Note_on_c, 1, 56, 0
2, 6650, Note_on_c, 1, 72, 0
2, 6680, Note_on_c, 1, 75, 75
2, 6698, Note_on_c, 1, 75, 0
2, 6731, Control_c, 1, 64, 0
2, 6731, Note_on_c, 1, 74, 75
2, 6733, Note_on_c, 1, 67, 66
2, 6757, Note_on_c, 1, 74, 0
2, 6765, Note_on_c, 1, 67, 0
2, 6777, Note_on_c, 1, 46, 62
2, 6802, Control_c, 1, 64, 127
2, 6808, Note_on_c, 1, 46, 0
2, 6831, Note_on_c, 1, 67, 59
2, 6832, Note_on_c, 1, 59, 58
2, 6833, Note_on_c, 1, 62, 62
2, 6836, Note_on_c, 1, 56, 76
2, 6869, Note_on_c, 1, 59, 0
2, 6880, Note_on_c, 1, 62, 0
2, 6883, Note_on_c, 1, 67, 0
2, 6931, Note_on_c, 1, 67, 83
2, 6931, Note_on_c, 1, 74, 84
2, 6932, Note_on_c, 1, 59, 68
2, 6933, Control_c, 1, 64, 0
2, 6939, Note_on_c, 1, 56, 0
2, 6948, Control_c, 1, 64, 127
2, 6972, Note_on_c, 1, 67, 0
2, 6979, Note_on_c, 1, 74, 0
2, 6979, Note_on_c, 1, 59, 0
2, 7027, Control_c, 1, 64, 0
2, 7027, Note_on_c, 1, 79, 71
2, 7028, Note_on_c, 1, 71, 66
2, 7031, Note_on_c, 1, 67, 62
2, 7031, Note_on_c, 1, 77, 60
2, 7035, Note_on_c, 1, 62, 51
2, 7050, Note_on_c, 1, 62, 0
2, 7051, Control_c, 1, 64, 127
2, 7053, Note_on_c, 1, 67, 0
2, 7053, Note_on_c, 1, 71, 0
2, 7061, Note_on_c, 1, 77, 0
2, 7067, Note_on_c, 1, 79, 0
2, 7126, Note_on_c, 1, 86, 66
2, 7128, Note_on_c, 1, 79, 52
2, 7130, Note_on_c, 1, 74, 59
2, 7132, Note_on_c, 1, 56, 39
2, 7132, Note_on_c, 1, 67, 44
2, 7133, Control_c, 1, 64, 0
2, 7135, Note_on_c, 1, 62, 42
2, 7170, Control_c, 1, 64, 127
2, 7229, Note_on_c, 1, 79, 0
2, 7237, Note_on_c, 1, 74, 0
2, 7239, Note_on_c, 1, 67, 0
2, 7244, Note_on_c, 1, 86, 0
2, 7252, Note_on_c, 1, 83, 51
2, 7266, Note_on_c, 1, 62, 0
2, 7278, Note_on_c, 1, 83, 0
2, 7279, Note_on_c, 1, 56, 0
2, 7288, Note_on_c, 1, 79, 60
2, 7311, Note_on_c, 1, 79, 0
2, 7333, Control_c, 1, 64, 0
2, 7335, Note_on_c, 1, 78, 57
2, 7336, Note_on_c, 1, 65, 58
2, 7336, Note_on_c, 1, 82, 46
2, 7336, Note_on_c, 1, 62, 49
2, 7341, Note_on_c, 1, 60, 44
2, 7342, Note_on_c, 1, 55, 37
2, 7345, Note_on_c, 1, 78, 0
2, 7349, Note_on_c, 1, 65, 0
2, 7356, Note_on_c, 1, 82, 0
2, 7357, Note_on_c, 1, 62, 0
2, 7358, Note_on_c, 1, 60, 0
2, 7367, Note_on_c, 1, 55, 0
2, 7367, Control_c, 1, 64, 127
2, 7488, Note_on_c, 1, 54, 57
2, 7496, Control_c, 1, 64, 0
2, 7497, Note_on_c, 1, 70, 76
2, 7497, Note_on_c, 1, 65, 75
2, 7498, Note_on_c, 1, 60, 70
2, 7498, Note_on_c, 1, 55, 71
2, 7509, Note_on_c, 1, 54, 0
2, 7535, Note_on_c, 1, 60, 0
2, 7539, Note_on_c, 1, 65, 0
2, 7540, Note_on_c, 1, 70, 0
2, 7545, Note_on_c, 1, 55, 0
2, 7588, Control_c, 1, 64, 127
2, 7593, Note_on_c, 1, 70, 62
2, 7597, Note_on_c, 1, 65, 68
2, 7598, Note_on_c, 1, 60, 59
2, 7598, Note_on_c, 1, 54, 32
2, 7600, Note_on_c, 1, 55, 67
2, 7613, Note_on_c, 1, 54, 0
2, 7625, Note_on_c, 1, 65, 0
2, 7628, Note_on_c, 1, 60, 0
2, 7630, Note_on_c, 1, 70, 0
2, 7637, Note_on_c, 1, 55, 0
2, 7652, Control_c, 1, 64, 0
2, 7653, Note_on_c, 1, 54, 52
2, 7653, Note_on_c, 1, 70, 42
2, 7656, Note_on_c, 1, 60, 45
2, 7657, Note_on_c, 1, 66, 48
2, 7661, Note_on_c, 1, 64, 55
2, 7670, Note_on_c, 1, 54, 0
2, 7692, Control_c, 1, 64, 127
2, 7752, Note_on_c, 1, 38, 58
2, 7756, Note_on_c, 1, 60, 0
2, 7760, Note_on_c, 1, 38, 0
2, 7846, Note_on_c, 1, 64, 0
2, 7872, Note_on_c, 1, 66, 0
2, 7920, Note_on_c, 1, 60, 53
2, 7932, Note_on_c, 1, 60, 0
2, 7935, Note_on_c, 1, 70, 0
2, 7978, Note_on_c, 1, 70, 62
2, 7980, Control_c, 1, 64, 0
2, 7980, Note_on_c, 1, 63, 52
2, 7981, Note_on_c, 1, 59, 50
2, 7981, Note_on_c, 1, 67, 55
2, 7981, Note_on_c, 1, 53, 54
2, 8018, Control_c, 1, 64, 127
2, 8071, Note_on_c, 1, 59, 0
2, 8092, Note_on_c, 1, 67, 0
2, 8095, Note_on_c, 1, 63, 0
2, 8118, Note_on_c, 1, 70, 0
2, 8136, Note_on_c, 1, 60, 43
2, 8154, Note_on_c, 1, 60, 0
2, 8161, Note_on_c, 1, 53, 0
2, 8188, Note_on_c, 1, 72, 71
2, 8201, Note_on_c, 1, 72, 0
2, 8232, Note_on_c, 1, 73, 74
2, 8252, Note_on_c, 1, 73, 0
2, 8281, Control_c, 1, 64, 0
2, 8283, Note_on_c, 1, 58, 35
2, 8283, Note_on_c, 1, 72, 54
2, 8287, Note_on_c, 1, 68, 38
2, 8287, Note_on_c, 1, 64, 46
2, 8287, Note_on_c, 1, 48, 37
2, 8311, Control_c, 1, 64, 127
2, 8329, Note_on_c, 1, 72, 0
2, 8343, Note_on_c, 1, 64, 0
2, 8343, Note_on_c, 1, 68, 0
2, 8346, Note_on_c, 1, 58, 0
2, 8442, Note_on_c, 1, 70, 44
2, 8447, Note_on_c, 1, 48, 0
2, 8450, Note_on_c, 1, 67, 42
2, 8463, Note_on_c, 1, 67, 0
2, 8474, Note_on_c, 1, 70, 0
2, 8540, Note_on_c, 1, 42, 34
2, 8541, Note_on_c, 1, 57, 49
2, 8577, Note_on_c, 1, 42, 0
2, 8584, Note_on_c, 1, 57, 0
2, 8585, Control_c, 1, 64, 0
2, 8600, Note_on_c, 1, 56, 40
2, 8601, Note_on_c, 1, 41, 39
2, 8603, Note_on_c, 1, 51, 37
2, 8613, Control_c, 1, 64, 127
2, 8623, Note_on_c, 1, 56, 0
2, 8624, Note_on_c, 1, 41, 0
2, 8646, Note_on_c, 1, 51, 0
2, 8697, Note_on_c, 1, 65, 52
2, 8705, Note_on_c, 1, 66, 53
2, 8714, Note_on_c, 1, 65, 0
2, 8723, Note_on_c, 1, 67, 60
2, 8735, Note_on_c, 1, 66, 0
2, 8742, Note_on_c, 1, 68, 64
2, 8744, Note_on_c, 1, 67, 0
2, 8747, Control_c, 1, 64, 0
2, 8756, Note_on_c, 1, 63, 27
2, 8757, Note_on_c, 1, 60, 31
2, 8760, Note_on_c, 1, 56, 32
2, 8761, Note_on_c, 1, 53, 32
2, 8762, Note_on_c, 1, 68, 0
2, 8812, Note_on_c, 1, 72, 74
2, 8833, Note_on_c, 1, 72, 0
2, 8838, Note_on_c, 1, 53, 0
2, 8843, Note_on_c, 1, 60, 0
2, 8850, Note_on_c, 1, 56, 0
2, 8851, Note_on_c, 1, 63, 0
2, 8855, Note_on_c, 1, 75, 82
2, 8870, Control_c, 1, 64, 127
2, 8892, Note_on_c, 1, 75, 0
2, 8900, Control_c, 1, 64, 0
2, 8903, Note_on_c, 1, 63, 43
2, 8905, Note_on_c, 1, 67, 45
2, 8905, Note_on_c, 1, 75, 69
2, 8907, Note_on_c, 1, 60, 36
2, 8910, Note_on_c, 1, 56, 34
2, 8930, Control_c, 1, 64, 127
2, 8933, Note_on_c, 1, 75, 0
2, 8942, Note_on_c, 1, 67, 0
2, 8951, Note_on_c, 1, 72, 55
2, 8953, Note_on_c, 1, 60, 0
2, 8955, Note_on_c, 1, 63, 0
2, 8958, Note_on_c, 1, 56, 0
2, 8984, Note_on_c, 1, 72, 0
2, 9001, Note_on_c, 1, 68, 59
2, 9045, Control_c, 1, 64, 0
2, 9055, Note_on_c, 1, 60, 27
2, 9055, Note_on_c, 1, 56, 30
2, 9066, Note_on_c, 1, 60, 0
2, 9075, Control_c, 1, 64, 127
2, 9080, Note_on_c, 1, 56, 0
2, 9089, Note_on_c, 1, 68, 0
2, 9301, Control_c, 1, 64, 0
2, 9308, Note_on_c, 1, 63, 63
2, 9311, Note_on_c, 1, 67, 58
2, 9312, Note_on_c, 1, 57, 66
2, 9312, Note_on_c, 1, 61, 55
2, 9315, Note_on_c, 1, 47, 51
2, 9315, Note_on_c, 1, 35, 48
2, 9345, Control_c, 1, 64, 127
2, 9387, Note_on_c, 1, 57, 0
2, 9389, Note_on_c, 1, 67, 0
2, 9391, Note_on_c, 1, 47, 0
2, 9393, Note_on_c, 1, 35, 0
2, 9396, Note_on_c, 1, 63, 0
2, 9407, Note_on_c, 1, 61, 0
2, 9468, Note_on_c, 1, 63, 53
2, 9468, Note_on_c, 1, 56, 56
2, 9468, Note_on_c, 1, 34, 52
2, 9468, Note_on_c, 1, 65, 59
2, 9470, Note_on_c, 1, 46, 42
2, 9472, Note_on_c, 1, 60, 57
2, 9473, Control_c, 1, 64, 0
2, 9510, Control_c, 1, 64, 127
2, 9530, Note_on_c, 1, 34, 0
2, 9533, Note_on_c, 1, 60, 0
2, 9538, Note_on_c, 1, 56, 0
2, 9541, Note_on_c, 1, 65, 0
2, 9543, Note_on_c, 1, 46, 0
2, 9544, Note_on_c, 1, 63, 0
2, 9627, Note_on_c, 1, 58, 68
2, 9628, Note_on_c, 1, 63, 77
2, 9630, Note_on_c, 1, 70, 77
2, 9631, Note_on_c, 1, 65, 76
2, 9632, Note_on_c, 1, 60, 75
2, 9641, Note_on_c, 1, 68, 23
2, 9713, Note_on_c, 1, 58, 0
2, 9724, Note_on_c, 1, 60, 0
2, 9731, Note_on_c, 1, 65, 0
2, 9737, Note_on_c, 1, 68, 0
2, 9741, Note_on_c, 1, 63, 0
2, 9751, Note_on_c, 1, 70, 0
2, 9853, Note_on_c, 1, 68, 54
2, 9853, Note_on_c, 1, 72, 59
2, 9858, Control_c, 1, 64, 0
2, 9858, Note_on_c, 1, 63, 36
2, 9861, Note_on_c, 1, 60, 37
2, 9902, Control_c, 1, 64, 127
2, 9953, Note_on_c, 1, 72, 0
2, 9953, Note_on_c, 1, 68, 0
2, 9956, Note_on_c, 1, 58, 46
2, 9978, Note_on_c, 1, 58, 0
2, 9989, Note_on_c, 1, 60, 0
2, 10015, Note_on_c, 1, 58, 39
2, 10033, Note_on_c, 1, 63, 0
2, 10118, Note_on_c, 1, 82, 59
2, 10121, Note_on_c, 1, 70, 49
2, 10122, Note_on_c, 1, 67, 24
2, 10122, Note_on_c, 1, 62, 35
2, 10157, Note_on_c, 1, 67, 0
2, 10159, Note_on_c, 1, 62, 0
2, 10178, Control_c, 1, 64, 0
2, 10183, Note_on_c, 1, 62, 39
2, 10183, Note_on_c, 1, 67, 55
2, 10221, Note_on_c, 1, 58, 0
2, 10225, Control_c, 1, 64, 127
2, 10280, Note_on_c, 1, 58, 53
2, 10307, Note_on_c, 1, 58, 0
2, 10329, Note_on_c, 1, 62, 0
2, 10333, Note_on_c, 1, 82, 0
2, 10336, Note_on_c, 1, 58, 42
2, 10342, Note_on_c, 1, 70, 0
2, 10343, Note_on_c, 1, 67, 0
2, 10445, Note_on_c, 1, 79, 77
2, 10447, Note_on_c, 1, 67, 68
2, 10447, Note_on_c, 1, 71, 80
2, 10447, Note_on_c, 1, 74, 75
2, 10448, Note_on_c, 1, 62, 75
2, 10463, Control_c, 1, 64, 0
2, 10490, Note_on_c, 1, 67, 0
2, 10501, Note_on_c, 1, 62, 0
2, 10515, Note_on_c, 1, 67, 70
2, 10518, Note_on_c, 1, 62, 66
2, 10520, Note_on_c, 1, 65, 72
2, 10533, Control_c, 1, 64, 127
2, 10591, Note_on_c, 1, 58, 0
2, 10617, Note_on_c, 1, 58, 56
2, 10649, Note_on_c, 1, 58, 0
2, 10679, Note_on_c, 1, 74, 0
2, 10680, Note_on_c, 1, 71, 0
2, 10681, Note_on_c, 1, 58, 46
2, 10689, Note_on_c, 1, 62, 0
2, 10690, Note_on_c, 1, 65, 0
2, 10701, Note_on_c, 1, 67, 0
2, 10762, Note_on_c, 1, 79, 0
2, 10782, Note_on_c, 1, 67, 35
2, 10782, Note_on_c, 1, 70, 39
2, 10783, Note_on_c, 1, 76, 50
2, 10785, Control_c, 1, 64, 0
2, 10786, Note_on_c, 1, 73, 37
2, 10787, Note_on_c, 1, 61, 25
2, 10787, Note_on_c, 1, 64, 45
2, 10816, Control_c, 1, 64, 127
2, 10853, Note_on_c, 1, 76, 0
2, 10874, Note_on_c, 1, 73, 0
2, 10874, Note_on_c, 1, 58, 0
2, 10875, Note_on_c, 1, 70, 0
2, 10889, Note_on_c, 1, 67, 0
2, 10950, Note_on_c, 1, 58, 48
2, 10955, Note_on_c, 1, 64, 0
2, 10977, Note_on_c, 1, 61, 0
2, 10987, Note_on_c, 1, 58, 0
2, 11008, Note_on_c, 1, 58, 36
2, 11073, Note_on_c, 1, 58, 0
2, 11107, Note_on_c, 1, 58, 53
2, 11168, Note_on_c, 1, 60, 60
2, 11172, Note_on_c, 1, 72, 58
2, 11172, Note_on_c, 1, 68, 44
2, 11173, Note_on_c, 1, 65, 43
2, 11175, Note_on_c, 1, 63, 32
2, 11177, Control_c, 1, 64, 0
2, 11210, Control_c, 1, 64, 127
2, 11214, Note_on_c, 1, 58, 0
2, 11238, Note_on_c, 1, 65, 0
2, 11262, Note_on_c, 1, 68, 0
2, 11263, Note_on_c, 1, 72, 0
2, 11275, Note_on_c, 1, 58, 52
2, 11321, Note_on_c, 1, 60, 0
2, 11333, Note_on_c, 1, 84, 76
2, 11333, Note_on_c, 1, 80, 78
2, 11350, Note_on_c, 1, 84, 0
2, 11351, Note_on_c, 1, 80, 0
2, 11353, Note_on_c, 1, 63, 0
2, 11380, Note_on_c, 1, 84, 80
2, 11381, Note_on_c, 1, 80, 74
2, 11398, Note_on_c, 1, 58, 0
2, 11425, Note_on_c, 1, 75, 54
2, 11429, Note_on_c, 1, 80, 0
2, 11430, Note_on_c, 1, 58, 42
2, 11457, Note_on_c, 1, 84, 0
2, 11460, Note_on_c, 1, 75, 0
2, 11478, Control_c, 1, 64, 0
2, 11481, Note_on_c, 1, 67, 44
2, 11482, Note_on_c, 1, 82, 50
2, 11482, Note_on_c, 1, 79, 53
2, 11483, Note_on_c, 1, 74, 54
2, 11485, Note_on_c, 1, 62, 36
2, 11516, Control_c, 1, 64, 127
2, 11518, Note_on_c, 1, 79, 0
2, 11518, Note_on_c, 1, 82, 0
2, 11519, Note_on_c, 1, 74, 0
2, 11531, Note_on_c, 1, 82, 55
2, 11536, Note_on_c, 1, 79, 47
2, 11542, Note_on_c, 1, 58, 0
2, 11544, Note_on_c, 1, 79, 0
2, 11557, Note_on_c, 1, 82, 0
2, 11566, Note_on_c, 1, 62, 0
2, 11576, Note_on_c, 1, 58, 53
2, 11592, Note_on_c, 1, 67, 0
2, 11624, Note_on_c, 1, 58, 0
2, 11636, Note_on_c, 1, 58, 47
2, 11678, Note_on_c, 1, 58, 0
2, 11691, Note_on_c, 1, 58, 73
2, 11797, Note_on_c, 1, 82, 58
2, 11798, Note_on_c, 1, 77, 70
2, 11798, Note_on_c, 1, 72, 64
2, 11800, Note_on_c, 1, 67, 64
2, 11805, Control_c, 1, 64, 0
2, 11840, Note_on_c, 1, 67, 0
2, 11847, Control_c, 1, 64, 127
2, 11858, Note_on_c, 1, 67, 66
2, 11888, Note_on_c, 1, 77, 0
2, 11892, Note_on_c, 1, 58, 0
2, 11892, Note_on_c, 1, 82, 0
2, 11901, Note_on_c, 1, 72, 0
2, 11958, Note_on_c, 1, 67, 0
2, 11961, Note_on_c, 1, 58, 57
2, 12016, Note_on_c, 1, 79, 43
2, 12017, Note_on_c, 1, 70, 45
2, 12020, Note_on_c, 1, 67, 34
2, 12021, Note_on_c, 1, 74, 60
2, 12030, Control_c, 1, 64, 0
2, 12041, Control_c, 1, 64, 127
2, 12057, Note_on_c, 1, 79, 0
2, 12058, Note_on_c, 1, 74, 0
2, 12063, Note_on_c, 1, 70, 0
2, 12072, Note_on_c, 1, 67, 0
2, 12082, Note_on_c, 1, 58, 0
2, 12123, Note_on_c, 1, 70, 59
2, 12126, Note_on_c, 1, 62, 49
2, 12127, Note_on_c, 1, 67, 47
2, 12153, Control_c, 1, 64, 0
2, 12172, Note_on_c, 1, 58, 71
2, 12180, Control_c, 1, 64, 127
2, 12233, Note_on_c, 1, 67, 0
2, 12234, Note_on_c, 1, 58, 0
2, 12263, Note_on_c, 1, 62, 0
2, 12288, Note_on_c, 1, 56, 67
2, 12288, Note_on_c, 1, 62, 58
2, 12290, Note_on_c, 1, 67, 53
2, 12312, Control_c, 1, 64, 0
2, 12321, Note_on_c, 1, 67, 0
2, 12331, Note_on_c, 1, 70, 0
2, 12337, Note_on_c, 1, 46, 43
2, 12338, Note_on_c, 1, 62, 0
2, 12342, Control_c, 1, 64, 127
2, 12379, Note_on_c, 1, 46, 0
2, 12385, Note_on_c, 1, 56, 0
2, 12393, Note_on_c, 1, 64, 72
2, 12396, Note_on_c, 1, 60, 55
2, 12396, Note_on_c, 1, 55, 60
2, 12396, Note_on_c, 1, 45, 59
2, 12402, Control_c, 1, 64, 0
2, 12428, Control_c, 1, 64, 127
2, 12461, Note_on_c, 1, 45, 0
2, 12462, Note_on_c, 1, 60, 0
2, 12479, Note_on_c, 1, 55, 0
2, 12479, Note_on_c, 1, 64, 0
2, 12561, Note_on_c, 1, 79, 96
2, 12607, Note_on_c, 1, 60, 40
2, 12608, Note_on_c, 1, 64, 48
2, 12611, Control_c, 1, 64, 0
2, 12611, Note_on_c, 1, 59, 35
2, 12616, Note_on_c, 1, 55, 37
2, 12631, Control_c, 1, 64, 127
2, 12634, Note_on_c, 1, 64, 0
2, 12638, Note_on_c, 1, 60, 0
2, 12639, Note_on_c, 1, 59, 0
2, 12649, Note_on_c, 1, 55, 0
2, 12652, Note_on_c, 1, 79, 0
2, 12716, Note_on_c, 1, 45, 36
2, 12738, Note_on_c, 1, 45, 0
2, 12758, Control_c, 1, 64, 0
2, 12766, Note_on_c, 1, 54, 67
2, 12771, Note_on_c, 1, 38, 53
2, 12781, Control_c, 1, 64, 127
2, 12796, Note_on_c, 1, 38, 0
2, 12806, Note_on_c, 1, 54, 0
2, 12926, Note_on_c, 1, 54, 45
2, 12926, Note_on_c, 1, 62, 49
2, 12935, Note_on_c, 1, 60, 32
2, 12939, Note_on_c, 1, 62, 0
2, 12943, Note_on_c, 1, 60, 0
2, 12952, Note_on_c, 1, 54, 0
2, 13028, Note_on_c, 1, 69, 85
2, 13065, Note_on_c, 1, 69, 0
2, 13072, Note_on_c, 1, 40, 36
2, 13082, Note_on_c, 1, 64, 62
2, 13085, Note_on_c, 1, 55, 41
2, 13086, Control_c, 1, 64, 0
2, 13107, Note_on_c, 1, 40, 0
2, 13120, Control_c, 1, 64, 127
2, 13138, Note_on_c, 1, 55, 0
2, 13170, Note_on_c, 1, 66, 9
2, 13204, Note_on_c, 1, 64, 0
2, 13240, Note_on_c, 1, 55, 40
2, 13240, Note_on_c, 1, 59, 51
2, 13243, Note_on_c, 1, 52, 25
2, 13248, Note_on_c, 1, 55, 0
2, 13255, Note_on_c, 1, 52, 0
2, 13310, Note_on_c, 1, 59, 0
2, 13310, Note_on_c, 1, 66, 0
2, 13342, Note_on_c, 1, 28, 34
2, 13345, Note_on_c, 1, 29, 25
2, 13350, Note_on_c, 1, 28, 0
2, 13351, Note_on_c, 1, 29, 0
2, 13401, Note_on_c, 1, 56, 81
2, 13405, Control_c, 1, 64, 0
2, 13418, Control_c, 1, 64, 127
2, 13441, Note_on_c, 1, 56, 0
2, 13500, Note_on_c, 1, 56, 43
2, 13547, Note_on_c, 1, 56, 0
2, 13553, Note_on_c, 1, 62, 61
2, 13556, Note_on_c, 1, 68, 58
2, 13556, Note_on_c, 1, 74, 71
2, 13558, Note_on_c, 1, 64, 62
2, 13560, Note_on_c, 1, 71, 50
2, 13562, Control_c, 1, 64, 0
2, 13606, Note_on_c, 1, 58, 59
2, 13609, Note_on_c, 1, 62, 0
2, 13615, Control_c, 1, 64, 127
2, 13623, Note_on_c, 1, 71, 0
2, 13635, Note_on_c, 1, 64, 0
2, 13643, Note_on_c, 1, 58, 0
2, 13646, Note_on_c, 1, 74, 0
2, 13653, Note_on_c, 1, 68, 0
2, 13660, Note_on_c, 1, 56, 52
2, 13697, Note_on_c, 1, 56, 0
2, 13703, Control_c, 1, 64, 0
2, 13707, Note_on_c, 1, 60, 51
2, 13707, Note_on_c, 1, 72, 54
2, 13708, Note_on_c, 1, 67, 53
2, 13711, Note_on_c, 1, 57, 64
2, 13740, Control_c, 1, 64, 127
2, 13743, Note_on_c, 1, 60, 0
2, 13753, Note_on_c, 1, 67, 0
2, 13756, Note_on_c, 1, 57, 0
2, 13762, Note_on_c, 1, 45, 62
2, 13763, Note_on_c, 1, 72, 0
2, 13769, Note_on_c, 1, 45, 0
2, 13873, Note_on_c, 1, 79, 80
2, 13875, Note_on_c, 1, 76, 77
2, 13875, Note_on_c, 1, 72, 77
2, 13876, Note_on_c, 1, 64, 71
2, 13876, Note_on_c, 1, 67, 77
2, 13877, Note_on_c, 1, 60, 57
2, 13877, Note_on_c, 1, 59, 64
2, 13887, Control_c, 1, 64, 0
2, 13917, Control_c, 1, 64, 127
2, 13955, Note_on_c, 1, 59, 0
2, 13960, Note_on_c, 1, 60, 0
2, 13970, Note_on_c, 1, 57, 72
2, 13974, Note_on_c, 1, 67, 0
2, 13976, Note_on_c, 1, 72, 0
2, 13978, Note_on_c, 1, 76, 0
2, 13980, Note_on_c, 1, 79, 0
2, 13998, Note_on_c, 1, 57, 0
2, 14003, Note_on_c, 1, 55, 73
2, 14016, Note_on_c, 1, 64, 0
2, 14023, Note_on_c, 1, 55, 0
2, 14036, Control_c, 1, 64, 0
2, 14036, Note_on_c, 1, 78, 71
2, 14037, Note_on_c, 1, 66, 71
2, 14040, Note_on_c, 1, 64, 66
2, 14040, Note_on_c, 1, 60, 74
2, 14040, Note_on_c, 1, 72, 65
2, 14041, Note_on_c, 1, 54, 76
2, 14075, Control_c, 1, 64, 127
2, 14110, Note_on_c, 1, 64, 0
2, 14111, Note_on_c, 1, 60, 0
2, 14121, Note_on_c, 1, 54, 0
2, 14126, Note_on_c, 1, 72, 0
2, 14143, Note_on_c, 1, 66, 0
2, 14163, Note_on_c, 1, 78, 0
2, 14198, Note_on_c, 1, 60, 46
2, 14202, Note_on_c, 1, 57, 31
2, 14202, Note_on_c, 1, 54, 34
2, 14202, Note_on_c, 1, 50, 36
2, 14212, Note_on_c, 1, 57, 0
2, 14214, Note_on_c, 1, 60, 0
2, 14220, Note_on_c, 1, 50, 0
2, 14227, Note_on_c, 1, 54, 0
2, 14253, Note_on_c, 1, 79, 61
2, 14256, Note_on_c, 1, 67, 64
2, 14272, Note_on_c, 1, 67, 0
2, 14278, Note_on_c, 1, 79, 0
2, 14298, Note_on_c, 1, 81, 71
2, 14300, Note_on_c, 1, 69, 71
2, 14311, Note_on_c, 1, 81, 0
2, 14315, Note_on_c, 1, 69, 0
2, 14352, Note_on_c, 1, 55, 62
2, 14355, Note_on_c, 1, 74, 67
2, 14356, Note_on_c, 1, 67, 54
2, 14357, Note_on_c, 1, 59, 64
2, 14363, Note_on_c, 1, 59, 0
2, 14363, Control_c, 1, 64, 0
2, 14408, Note_on_c, 1, 47, 1
2, 14413, Control_c, 1, 64, 127
2, 14422, Note_on_c, 1, 55, 0
2, 14429, Note_on_c, 1, 47, 0
2, 14438, Note_on_c, 1, 67, 0
2, 14477, Note_on_c, 1, 74, 0
2, 14521, Control_c, 1, 64, 0
2, 14525, Note_on_c, 1, 74, 47
2, 14525, Note_on_c, 1, 57, 50
2, 14525, Note_on_c, 1, 69, 52
2, 14526, Note_on_c, 1, 45, 49
2, 14527, Note_on_c, 1, 62, 34
2, 14543, Note_on_c, 1, 45, 0
2, 14552, Control_c, 1, 64, 127
2, 14576, Note_on_c, 1, 57, 0
2, 14591, Note_on_c, 1, 69, 0
2, 14598, Note_on_c, 1, 62, 0
2, 14632, Note_on_c, 1, 74, 0
2, 14678, Control_c, 1, 64, 0
2, 14683, Note_on_c, 1, 74, 46
2, 14686, Note_on_c, 1, 43, 24
2, 14687, Note_on_c, 1, 67, 43
2, 14688, Note_on_c, 1, 62, 32
2, 14688, Note_on_c, 1, 59, 46
2, 14711, Note_on_c, 1, 43, 0
2, 14712, Control_c, 1, 64, 127
2, 14738, Note_on_c, 1, 59, 0
2, 14752, Note_on_c, 1, 67, 0
2, 14759, Note_on_c, 1, 62, 0
2, 14824, Note_on_c, 1, 74, 0
2, 14838, Note_on_c, 1, 67, 47
2, 14840, Note_on_c, 1, 62, 52
2, 14841, Note_on_c, 1, 59, 37
2, 14845, Note_on_c, 1, 57, 26
2, 14851, Note_on_c, 1, 59, 0
2, 14853, Note_on_c, 1, 67, 0
2, 14856, Note_on_c, 1, 57, 0
2, 14857, Note_on_c, 1, 62, 0
2, 14938, Note_on_c, 1, 42, 38
2, 14938, Note_on_c, 1, 57, 63
2, 14940, Note_on_c, 1, 52, 37
2, 14953, Note_on_c, 1, 52, 0
2, 14980, Note_on_c, 1, 42, 0
2, 14986, Control_c, 1, 64, 0
2, 14988, Note_on_c, 1, 57, 0
2, 15002, Note_on_c, 1, 56, 47
2, 15005, Note_on_c, 1, 41, 50
2, 15006, Note_on_c, 1, 51, 31
2, 15018, Control_c, 1, 64, 127
2, 15029, Note_on_c, 1, 56, 0
2, 15031, Note_on_c, 1, 41, 0
2, 15049, Note_on_c, 1, 51, 0
2, 15107, Note_on_c, 1, 72, 94
2, 15108, Note_on_c, 1, 77, 81
2, 15147, Control_c, 1, 64, 0
2, 15148, Note_on_c, 1, 63, 56
2, 15153, Note_on_c, 1, 60, 40
2, 15155, Note_on_c, 1, 56, 37
2, 15157, Note_on_c, 1, 53, 35
2, 15163, Control_c, 1, 64, 127
2, 15195, Note_on_c, 1, 53, 0
2, 15204, Note_on_c, 1, 60, 0
2, 15211, Note_on_c, 1, 56, 0
2, 15216, Note_on_c, 1, 63, 0
2, 15223, Note_on_c, 1, 77, 0
2, 15228, Note_on_c, 1, 72, 0
2, 15311, Note_on_c, 1, 61, 57
2, 15316, Note_on_c, 1, 68, 62
2, 15317, Note_on_c, 1, 72, 66
2, 15318, Note_on_c, 1, 65, 57
2, 15320, Note_on_c, 1, 62, 68
2, 15321, Control_c, 1, 64, 0
2, 15331, Note_on_c, 1, 61, 0
2, 15357, Note_on_c, 1, 62, 0
2, 15357, Note_on_c, 1, 61, 58
2, 15385, Note_on_c, 1, 61, 0
2, 15390, Control_c, 1, 64, 127
2, 15400, Note_on_c, 1, 60, 66
2, 15440, Note_on_c, 1, 72, 0
2, 15441, Note_on_c, 1, 68, 0
2, 15449, Note_on_c, 1, 65, 0
2, 15475, Note_on_c, 1, 60, 0
2, 15481, Note_on_c, 1, 56, 53
2, 15481, Note_on_c, 1, 68, 67
2, 15485, Note_on_c, 1, 65, 36
2, 15490, Control_c, 1, 64, 0
2, 15491, Note_on_c, 1, 60, 33
2, 15521, Note_on_c, 1, 53, 49
2, 15522, Note_on_c, 1, 56, 0
2, 15533, Note_on_c, 1, 60, 0
2, 15537, Note_on_c, 1, 65, 0
2, 15538, Note_on_c, 1, 53, 0
2, 15543, Note_on_c, 1, 68, 0
2, 15548, Control_c, 1, 64, 127
2, 15561, Note_on_c, 1, 48, 30
2, 15578, Note_on_c, 1, 48, 0
2, 15643, Note_on_c, 1, 74, 74
2, 15645, Note_on_c, 1, 67, 71
2, 15645, Note_on_c, 1, 63, 63
2, 15646, Note_on_c, 1, 62, 49
2, 15660, Control_c, 1, 64, 0
2, 15692, Control_c, 1, 64, 127
2, 15724, Note_on_c, 1, 62, 0
2, 15755, Note_on_c, 1, 63, 0
2, 15760, Note_on_c, 1, 67, 0
2, 15781, Note_on_c, 1, 74, 0
2, 15793, Note_on_c, 1, 63, 54
2, 15795, Note_on_c, 1, 60, 41
2, 15797, Note_on_c, 1, 67, 50
2, 15800, Note_on_c, 1, 72, 57
2, 15802, Control_c, 1, 64, 0
2, 15837, Control_c, 1, 64, 127
2, 15872, Note_on_c, 1, 60, 0
2, 15885, Note_on_c, 1, 48, 69
2, 15889, Note_on_c, 1, 67, 0
2, 15898, Note_on_c, 1, 63, 0
2, 15936, Note_on_c, 1, 72, 0
2, 15948, Note_on_c, 1, 63, 57
2, 15948, Control_c, 1, 64, 0
2, 15948, Note_on_c, 1, 59, 56
2, 15950, Note_on_c, 1, 67, 65
2, 15951, Note_on_c, 1, 71, 64
2, 15985, Control_c, 1, 64, 127
2, 16028, Note_on_c, 1, 71, 0
2, 16028, Note_on_c, 1, 72, 10
2, 16035, Note_on_c, 1, 59, 0
2, 16045, Note_on_c, 1, 67, 0
2, 16049, Note_on_c, 1, 63, 0
2, 16069, Note_on_c, 1, 72, 0
2, 16110, Note_on_c, 1, 58, 39
2, 16113, Control_c, 1, 64, 0
2, 16113, Note_on_c, 1, 63, 46
2, 16113, Note_on_c, 1, 70, 47
2, 16115, Note_on_c, 1, 67, 49
2, 16120, Control_c, 1, 64, 127
2, 16125, Note_on_c, 1, 58, 0
2, 16136, Note_on_c, 1, 48, 0
2, 16138, Note_on_c, 1, 67, 0
2, 16144, Note_on_c, 1, 70, 0
2, 16145, Note_on_c, 1, 63, 0
2, 16210, Note_on_c, 1, 52, 38
2, 16213, Note_on_c, 1, 57, 57
2, 16236, Note_on_c, 1, 52, 0
2, 16263, Control_c, 1, 64, 0
2, 16273, Note_on_c, 1, 41, 57
2, 16277, Note_on_c, 1, 56, 43
2, 16278, Note_on_c, 1, 51, 28
2, 16281, Note_on_c, 1, 57, 0
2, 16290, Control_c, 1, 64, 127
2, 16306, Note_on_c, 1, 41, 0
2, 16313, Note_on_c, 1, 56, 0
2, 16323, Note_on_c, 1, 51, 0
2, 16428, Note_on_c, 1, 63, 56
2, 16428, Note_on_c, 1, 60, 48
2, 16431, Note_on_c, 1, 53, 50
2, 16435, Note_on_c, 1, 56, 37
2, 16469, Note_on_c, 1, 63, 0
2, 16483, Note_on_c, 1, 74, 85
2, 16485, Note_on_c, 1, 60, 0
2, 16485, Note_on_c, 1, 70, 84
2, 16494, Note_on_c, 1, 53, 0
2, 16510, Note_on_c, 1, 56, 0
2, 16515, Note_on_c, 1, 70, 0
2, 16516, Note_on_c, 1, 74, 0
2, 16532, Note_on_c, 1, 72, 68
2, 16532, Note_on_c, 1, 68, 79
2, 16554, Note_on_c, 1, 72, 0
2, 16564, Note_on_c, 1, 68, 0
2, 16586, Note_on_c, 1, 70, 59
2, 16588, Note_on_c, 1, 62, 48
2, 16588, Note_on_c, 1, 67, 44
2, 16592, Note_on_c, 1, 56, 40
2, 16595, Control_c, 1, 64, 0
2, 16619, Note_on_c, 1, 67, 0
2, 16622, Note_on_c, 1, 70, 0
2, 16640, Note_on_c, 1, 46, 55
2, 16641, Note_on_c, 1, 68, 67
2, 16641, Control_c, 1, 64, 127
2, 16709, Note_on_c, 1, 68, 0
2, 16709, Note_on_c, 1, 62, 0
2, 16710, Note_on_c, 1, 56, 0
2, 16713, Note_on_c, 1, 46, 0
2, 16746, Note_on_c, 1, 67, 65
2, 16747, Note_on_c, 1, 63, 53
2, 16747, Note_on_c, 1, 54, 39
2, 16747, Note_on_c, 1, 59, 51
2, 16748, Note_on_c, 1, 44, 38
2, 16752, Control_c, 1, 64, 0
2, 16777, Note_on_c, 1, 59, 0
2, 16782, Control_c, 1, 64, 127
2, 16783, Note_on_c, 1, 63, 0
2, 16803, Note_on_c, 1, 65, 48
2, 16821, Note_on_c, 1, 65, 0
2, 16826, Note_on_c, 1, 67, 0
2, 16858, Note_on_c, 1, 44, 0
2, 16864, Note_on_c, 1, 54, 0
2, 16897, Control_c, 1, 64, 0
2, 16897, Note_on_c, 1, 61, 48
2, 16898, Note_on_c, 1, 72, 62
2, 16900, Note_on_c, 1, 65, 63
2, 16903, Note_on_c, 1, 43, 42
2, 16906, Note_on_c, 1, 53, 43
2, 16925, Control_c, 1, 64, 127
2, 16982, Note_on_c, 1, 53, 0
2, 16993, Note_on_c, 1, 72, 0
2, 17000, Note_on_c, 1, 65, 0
2, 17008, Note_on_c, 1, 43, 0
2, 17010, Note_on_c, 1, 61, 0
2, 17062, Note_on_c, 1, 63, 64
2, 17065, Note_on_c, 1, 59, 64
2, 17066, Note_on_c, 1, 37, 54
2, 17068, Note_on_c, 1, 53, 30
2, 17070, Note_on_c, 1, 44, 45
2, 17071, Control_c, 1, 64, 0
2, 17101, Control_c, 1, 64, 127
2, 17113, Note_on_c, 1, 37, 0
2, 17123, Note_on_c, 1, 44, 0
2, 17140, Note_on_c, 1, 53, 0
2, 17145, Note_on_c, 1, 59, 0
2, 17162, Note_on_c, 1, 63, 0
2, 17217, Control_c, 1, 64, 0
2, 17223, Note_on_c, 1, 62, 59
2, 17225, Note_on_c, 1, 58, 37
2, 17226, Note_on_c, 1, 36, 36
2, 17231, Note_on_c, 1, 52, 44
2, 17246, Control_c, 1, 64, 127
2, 17257, Note_on_c, 1, 36, 0
2, 17276, Note_on_c, 1, 58, 0
2, 17278, Note_on_c, 1, 52, 0
2, 17283, Note_on_c, 1, 62, 0
2, 17386, Note_on_c, 1, 64, 51
2, 17390, Note_on_c, 1, 60, 45
2, 17391, Note_on_c, 1, 58, 33
2, 17452, Note_on_c, 1, 60, 0
2, 17459, Note_on_c, 1, 64, 0
2, 17462, Note_on_c, 1, 58, 0
2, 17490, Note_on_c, 1, 67, 113
2, 17510, Note_on_c, 1, 67, 0
2, 17542, Control_c, 1, 64, 0
2, 17545, Note_on_c, 1, 63, 62
2, 17547, Note_on_c, 1, 60, 58
2, 17547, Note_on_c, 1, 70, 82
2, 17547, Note_on_c, 1, 67, 87
2, 17577, Control_c, 1, 64, 127
2, 17592, Note_on_c, 1, 60, 0
2, 17593, Note_on_c, 1, 63, 0
2, 17635, Note_on_c, 1, 67, 0
2, 17639, Note_on_c, 1, 70, 0
2, 17651, Note_on_c, 1, 65, 63
2, 17652, Note_on_c, 1, 68, 53
2, 17653, Note_on_c, 1, 60, 47
2, 17655, Note_on_c, 1, 63, 44
2, 17655, Note_on_c, 1, 53, 48
2, 17656, Note_on_c, 1, 56, 39
2, 17658, Control_c, 1, 64, 0
2, 17687, Control_c, 1, 64, 127
2, 17713, Note_on_c, 1, 53, 0
2, 17714, Note_on_c, 1, 60, 0
2, 17720, Note_on_c, 1, 68, 0
2, 17722, Note_on_c, 1, 65, 0
2, 17723, Note_on_c, 1, 56, 0
2, 17727, Note_on_c, 1, 63, 0
2, 17786, Note_on_c, 1, 58, 47
2, 17790, Note_on_c, 1, 57, 37
2, 17793, Note_on_c, 1, 59, 66
2, 17798, Note_on_c, 1, 57, 0
2, 17800, Control_c, 1, 64, 0
2, 17800, Note_on_c, 1, 75, 68
2, 17801, Note_on_c, 1, 68, 76
2, 17803, Note_on_c, 1, 65, 72
2, 17803, Note_on_c, 1, 72, 70
2, 17807, Note_on_c, 1, 60, 66
2, 17825, Note_on_c, 1, 59, 0
2, 17826, Note_on_c, 1, 58, 0
2, 17836, Note_on_c, 1, 72, 0
2, 17837, Note_on_c, 1, 75, 0
2, 17840, Control_c, 1, 64, 127
2, 17844, Note_on_c, 1, 68, 0
2, 17849, Note_on_c, 1, 65, 0
2, 17880, Control_c, 1, 64, 0
2, 17888, Note_on_c, 1, 60, 0
2, 17891, Note_on_c, 1, 63, 65
2, 17891, Note_on_c, 1, 72, 66
2, 17892, Note_on_c, 1, 68, 60
2, 17896, Note_on_c, 1, 56, 62
2, 17916, Control_c, 1, 64, 127
2, 17923, Note_on_c, 1, 72, 0
2, 17933, Note_on_c, 1, 68, 0
2, 17939, Note_on_c, 1, 63, 0
2, 17988, Control_c, 1, 64, 0
2, 17997, Note_on_c, 1, 68, 55
2, 17999, Note_on_c, 1, 56, 0
2, 18001, Note_on_c, 1, 65, 49
2, 18001, Note_on_c, 1, 63, 40
2, 18003, Note_on_c, 1, 60, 43
2, 18005, Note_on_c, 1, 53, 37
2, 18016, Control_c, 1, 64, 127
2, 18041, Note_on_c, 1, 53, 0
2, 18041, Note_on_c, 1, 63, 0
2, 18051, Note_on_c, 1, 60, 0
2, 18074, Note_on_c, 1, 65, 0
2, 18087, Note_on_c, 1, 68, 0
2, 18096, Note_on_c, 1, 63, 55
2, 18098, Note_on_c, 1, 60, 54
2, 18100, Note_on_c, 1, 50, 40
2, 18113, Note_on_c, 1, 50, 0
2, 18116, Note_on_c, 1, 60, 0
2, 18136, Note_on_c, 1, 63, 0
2, 18158, Note_on_c, 1, 67, 49
2, 18161, Note_on_c, 1, 62, 54
2, 18161, Note_on_c, 1, 46, 27
2, 18161, Note_on_c, 1, 59, 45
2, 18165, Control_c, 1, 64, 0
2, 18165, Note_on_c, 1, 34, 42
2, 18211, Control_c, 1, 64, 127
2, 18226, Note_on_c, 1, 34, 0
2, 18265, Note_on_c, 1, 34, 55
2, 18298, Note_on_c, 1, 34, 0
2, 18326, Note_on_c, 1, 34, 58
2, 18344, Note_on_c, 1, 59, 0
2, 18354, Note_on_c, 1, 62, 0
2, 18368, Note_on_c, 1, 34, 0
2, 18389, Note_on_c, 1, 67, 0
2, 18412, Note_on_c, 1, 46, 0
2, 18423, Note_on_c, 1, 34, 68
2, 18441, Note_on_c, 1, 34, 0
2, 18500, Note_on_c, 1, 70, 84
2, 18500, Note_on_c, 1, 61, 86
2, 18501, Note_on_c, 1, 66, 77
2, 18503, Note_on_c, 1, 62, 78
2, 18506, Note_on_c, 1, 56, 63
2, 18511, Control_c, 1, 64, 0
2, 18533, Control_c, 1, 64, 127
2, 18563, Note_on_c, 1, 62, 0
2, 18573, Note_on_c, 1, 56, 0
2, 18602, Note_on_c, 1, 46, 51
2, 18627, Note_on_c, 1, 46, 0
2, 18671, Note_on_c, 1, 46, 48
2, 18708, Note_on_c, 1, 46, 0
2, 18771, Note_on_c, 1, 46, 55
2, 18800, Note_on_c, 1, 61, 0
2, 18807, Note_on_c, 1, 70, 0
2, 18811, Note_on_c, 1, 66, 0
2, 18831, Note_on_c, 1, 70, 50
2, 18833, Note_on_c, 1, 55, 56
2, 18835, Note_on_c, 1, 62, 45
2, 18836, Note_on_c, 1, 65, 62
2, 18836, Note_on_c, 1, 60, 45
2, 18836, Control_c, 1, 64, 0
2, 18875, Control_c, 1, 64, 127
2, 18901, Note_on_c, 1, 46, 0
2, 18936, Note_on_c, 1, 46, 46
2, 18971, Note_on_c, 1, 46, 0
2, 19000, Note_on_c, 1, 46, 49
2, 19033, Note_on_c, 1, 46, 0
2, 19098, Note_on_c, 1, 46, 85
2, 19114, Note_on_c, 1, 55, 0
2, 19134, Note_on_c, 1, 60, 0
2, 19142, Note_on_c, 1, 62, 0
2, 19146, Note_on_c, 1, 65, 0
2, 19263, Note_on_c, 1, 55, 92
2, 19274, Note_on_c, 1, 70, 0
2, 19321, Control_c, 1, 64, 0
2, 19321, Note_on_c, 1, 70, 84
2, 19323, Note_on_c, 1, 60, 74
2, 19323, Note_on_c, 1, 65, 84
2, 19327, Note_on_c, 1, 62, 58
2, 19334, Note_on_c, 1, 62, 0
2, 19335, Note_on_c, 1, 55, 0
2, 19335, Note_on_c, 1, 60, 0
2, 19338, Note_on_c, 1, 65, 0
2, 19339, Note_on_c, 1, 46, 0
2, 19342, Note_on_c, 1, 70, 0
2, 19366, Note_on_c, 1, 54, 55
2, 19403, Control_c, 1, 64, 127
2, 19415, Note_on_c, 1, 44, 55
2, 19429, Note_on_c, 1, 54, 0
2, 19451, Note_on_c, 1, 44, 0
2, 19472, Note_on_c, 1, 43, 54
2, 19473, Note_on_c, 1, 58, 48
2, 19475, Note_on_c, 1, 53, 48
2, 19478, Control_c, 1, 64, 0
2, 19500, Note_on_c, 1, 53, 0
2, 19502, Control_c, 1, 64, 127
2, 19520, Note_on_c, 1, 58, 0
2, 19521, Note_on_c, 1, 62, 66
2, 19567, Note_on_c, 1, 43, 0
2, 19623, Note_on_c, 1, 62, 0
2, 19628, Note_on_c, 1, 58, 39
2, 19715, Note_on_c, 1, 58, 0
2, 19726, Note_on_c, 1, 59, 40
2, 19778, Note_on_c, 1, 59, 0
2, 19778, Control_c, 1, 64, 0
2, 19783, Note_on_c, 1, 36, 48
2, 19787, Note_on_c, 1, 60, 39
2, 19811, Note_on_c, 1, 36, 0
2, 19811, Control_c, 1, 64, 127
2, 19825, Note_on_c, 1, 52, 1
2, 19836, Note_on_c, 1, 52, 0
2, 19847, Note_on_c, 1, 60, 0
2, 19941, Note_on_c, 1, 64, 49
2, 19941, Note_on_c, 1, 58, 35
2, 19942, Note_on_c, 1, 60, 60
2, 20019, Note_on_c, 1, 64, 0
2, 20023, Note_on_c, 1, 58, 0
2, 20042, Note_on_c, 1, 84, 118
2, 20049, Note_on_c, 1, 60, 0
2, 20091, Note_on_c, 1, 60, 52
2, 20092, Note_on_c, 1, 63, 51
2, 20093, Control_c, 1, 64, 0
2, 20096, Note_on_c, 1, 56, 36
2, 20097, Note_on_c, 1, 53, 40
2, 20101, Note_on_c, 1, 80, 68
2, 20110, Note_on_c, 1, 84, 0
2, 20122, Control_c, 1, 64, 127
2, 20142, Note_on_c, 1, 53, 0
2, 20148, Note_on_c, 1, 60, 0
2, 20156, Note_on_c, 1, 56, 0
2, 20159, Note_on_c, 1, 80, 0
2, 20165, Note_on_c, 1, 63, 0
2, 20197, Note_on_c, 1, 72, 50
2, 20243, Note_on_c, 1, 63, 45
2, 20246, Note_on_c, 1, 67, 40
2, 20248, Control_c, 1, 64, 0
2, 20252, Note_on_c, 1, 60, 35
2, 20272, Control_c, 1, 64, 127
2, 20308, Note_on_c, 1, 72, 0
2, 20309, Note_on_c, 1, 67, 0
2, 20329, Note_on_c, 1, 63, 0
2, 20348, Note_on_c, 1, 73, 92
2, 20355, Note_on_c, 1, 60, 0
2, 20390, Control_c, 1, 64, 0
2, 20400, Note_on_c, 1, 56, 46
2, 20400, Note_on_c, 1, 67, 50
2, 20401, Note_on_c, 1, 62, 54
2, 20404, Note_on_c, 1, 73, 0
2, 20418, Note_on_c, 1, 67, 0
2, 20418, Control_c, 1, 64, 127
2, 20430, Note_on_c, 1, 72, 38
2, 20430, Note_on_c, 1, 74, 42
2, 20432, Note_on_c, 1, 62, 0
2, 20437, Note_on_c, 1, 72, 0
2, 20450, Note_on_c, 1, 56, 0
2, 20513, Note_on_c, 1, 86, 87
2, 20560, Note_on_c, 1, 54, 60
2, 20561, Control_c, 1, 64, 0
2, 20562, Note_on_c, 1, 44, 45
2, 20597, Control_c, 1, 64, 127
2, 20652, Note_on_c, 1, 54, 0
2, 20663, Note_on_c, 1, 44, 0
2, 20708, Note_on_c, 1, 86, 0
2, 20713, Control_c, 1, 64, 0
2, 20715, Note_on_c, 1, 74, 0
2, 20720, Note_on_c, 1, 79, 53
2, 20723, Note_on_c, 1, 43, 39
2, 20726, Note_on_c, 1, 53, 29
2, 20745, Control_c, 1, 64, 127
2, 20761, Note_on_c, 1, 43, 0
2, 20773, Note_on_c, 1, 53, 0
2, 20786, Note_on_c, 1, 79, 0
2, 20881, Note_on_c, 1, 64, 62
2, 20881, Note_on_c, 1, 53, 64
2, 20882, Note_on_c, 1, 59, 66
2, 20935, Note_on_c, 1, 59, 0
2, 20936, Note_on_c, 1, 94, 87
2, 20938, Note_on_c, 1, 64, 0
2, 20943, Note_on_c, 1, 53, 0
2, 20963, Note_on_c, 1, 94, 0
2, 20977, Note_on_c, 1, 98, 92
2, 21014, Note_on_c, 1, 98, 0
2, 21022, Note_on_c, 1, 58, 49
2, 21023, Note_on_c, 1, 62, 49
2, 21025, Note_on_c, 1, 52, 58
2, 21026, Control_c, 1, 64, 0
2, 21057, Control_c, 1, 64, 127
2, 21063, Note_on_c, 1, 94, 71
2, 21065, Note_on_c, 1, 62, 0
2, 21070, Note_on_c, 1, 52, 0
2, 21074, Note_on_c, 1, 58, 0
2, 21086, Note_on_c, 1, 94, 0
2, 21101, Note_on_c, 1, 91, 67
2, 21123, Note_on_c, 1, 91, 0
2, 21136, Note_on_c, 1, 88, 54
2, 21157, Note_on_c, 1, 88, 0
2, 21167, Note_on_c, 1, 58, 46
2, 21168, Note_on_c, 1, 87, 67
2, 21171, Note_on_c, 1, 48, 54
2, 21176, Control_c, 1, 64, 0
2, 21191, Note_on_c, 1, 87, 0
2, 21193, Note_on_c, 1, 48, 0
2, 21194, Note_on_c, 1, 58, 0
2, 21208, Note_on_c, 1, 86, 59
2, 21216, Control_c, 1, 64, 127
2, 21229, Note_on_c, 1, 86, 0
2, 21240, Note_on_c, 1, 85, 60
2, 21272, Note_on_c, 1, 85, 0
2, 21277, Note_on_c, 1, 84, 72
2, 21289, Note_on_c, 1, 84, 0
2, 21308, Control_c, 1, 64, 0
2, 21308, Note_on_c, 1, 51, 44
2, 21312, Note_on_c, 1, 41, 48
2, 21315, Note_on_c, 1, 84, 73
2, 21336, Control_c, 1, 64, 127
2, 21348, Note_on_c, 1, 84, 0
2, 21349, Note_on_c, 1, 41, 0
2, 21352, Note_on_c, 1, 80, 70
2, 21366, Note_on_c, 1, 51, 0
2, 21379, Note_on_c, 1, 80, 0
2, 21391, Note_on_c, 1, 79, 29
2, 21421, Note_on_c, 1, 79, 0
2, 21428, Note_on_c, 1, 77, 36
2, 21443, Note_on_c, 1, 77, 0
2, 21461, Note_on_c, 1, 63, 59
2, 21462, Note_on_c, 1, 82, 84
2, 21465, Control_c, 1, 64, 0
2, 21465, Note_on_c, 1, 60, 39
2, 21468, Note_on_c, 1, 53, 36
2, 21468, Note_on_c, 1, 56, 38
2, 21495, Note_on_c, 1, 82, 0
2, 21502, Note_on_c, 1, 80, 67
2, 21505, Control_c, 1, 64, 127
2, 21505, Note_on_c, 1, 82, 18
2, 21513, Note_on_c, 1, 82, 0
2, 21521, Note_on_c, 1, 53, 0
2, 21525, Note_on_c, 1, 80, 0
2, 21530, Note_on_c, 1, 60, 0
2, 21536, Note_on_c, 1, 63, 0
2, 21536, Note_on_c, 1, 79, 57
2, 21539, Note_on_c, 1, 56, 0
2, 21562, Note_on_c, 1, 79, 0
2, 21576, Note_on_c, 1, 78, 73
2, 21611, Note_on_c, 1, 67, 44
2, 21611, Control_c, 1, 64, 0
2, 21612, Note_on_c, 1, 78, 0
2, 21612, Note_on_c, 1, 56, 37
2, 21613, Note_on_c, 1, 62, 48
2, 21613, Note_on_c, 1, 77, 58
2, 21640, Note_on_c, 1, 77, 0
2, 21646, Note_on_c, 1, 67, 0
2, 21651, Note_on_c, 1, 62, 0
2, 21652, Note_on_c, 1, 75, 60
2, 21667, Note_on_c, 1, 56, 0
2, 21675, Control_c, 1, 64, 127
2, 21677, Note_on_c, 1, 75, 0
2, 21690, Note_on_c, 1, 74, 39
2, 21711, Note_on_c, 1, 74, 0
2, 21727, Note_on_c, 1, 75, 79
2, 21752, Note_on_c, 1, 75, 0
2, 21762, Note_on_c, 1, 77, 73
2, 21763, Control_c, 1, 64, 0
2, 21763, Note_on_c, 1, 56, 40
2, 21765, Note_on_c, 1, 46, 48
2, 21795, Note_on_c, 1, 77, 0
2, 21803, Note_on_c, 1, 74, 60
2, 21817, Control_c, 1, 64, 127
2, 21823, Note_on_c, 1, 74, 0
2, 21824, Note_on_c, 1, 56, 0
2, 21836, Note_on_c, 1, 46, 0
2, 21836, Note_on_c, 1, 70, 48
2, 21866, Note_on_c, 1, 70, 0
2, 21873, Note_on_c, 1, 67, 52
2, 21886, Note_on_c, 1, 67, 0
2, 21910, Note_on_c, 1, 70, 76
2, 21912, Note_on_c, 1, 39, 39
2, 21913, Note_on_c, 1, 46, 51
2, 21916, Control_c, 1, 64, 0
2, 21929, Note_on_c, 1, 39, 0
2, 21945, Note_on_c, 1, 70, 0
2, 21953, Note_on_c, 1, 65, 60
2, 21962, Control_c, 1, 64, 127
2, 21971, Note_on_c, 1, 65, 0
2, 21986, Note_on_c, 1, 60, 54
2, 21993, Note_on_c, 1, 60, 0
2, 22011, Note_on_c, 1, 65, 56
2, 22028, Note_on_c, 1, 65, 0
2, 22032, Note_on_c, 1, 70, 65
2, 22045, Note_on_c, 1, 70, 0
2, 22055, Control_c, 1, 64, 0
2, 22056, Note_on_c, 1, 55, 37
2, 22058, Note_on_c, 1, 72, 75
2, 22075, Note_on_c, 1, 72, 0
2, 22076, Note_on_c, 1, 46, 0
2, 22081, Note_on_c, 1, 77, 69
2, 22084, Note_on_c, 1, 55, 0
2, 22096, Note_on_c, 1, 77, 0
2, 22097, Note_on_c, 1, 82, 52
2, 22105, Note_on_c, 1, 82, 0
2, 22122, Note_on_c, 1, 84, 57
2, 22123, Note_on_c, 1, 86, 65
2, 22130, Note_on_c, 1, 86, 0
2, 22135, Control_c, 1, 64, 127
2, 22142, Note_on_c, 1, 84, 0
2, 22146, Note_on_c, 1, 89, 42
2, 22163, Note_on_c, 1, 94, 39
2, 22172, Note_on_c, 1, 89, 0
2, 22180, Note_on_c, 1, 94, 0
2, 22183, Note_on_c, 1, 96, 71
2, 22198, Control_c, 1, 64, 0
2, 22203, Note_on_c, 1, 58, 42
2, 22205, Note_on_c, 1, 62, 46
2, 22207, Note_on_c, 1, 51, 37
2, 22211, Note_on_c, 1, 55, 45
2, 22215, Note_on_c, 1, 94, 60
2, 22216, Note_on_c, 1, 96, 0
2, 22225, Control_c, 1, 64, 127
2, 22250, Note_on_c, 1, 94, 0
2, 22253, Note_on_c, 1, 55, 0
2, 22255, Note_on_c, 1, 51, 0
2, 22259, Note_on_c, 1, 58, 0
2, 22267, Note_on_c, 1, 62, 0
2, 22362, Note_on_c, 1, 65, 61
2, 22363, Note_on_c, 1, 62, 54
2, 22367, Note_on_c, 1, 60, 46
2, 22377, Note_on_c, 1, 65, 0
2, 22380, Note_on_c, 1, 62, 0
2, 22383, Note_on_c, 1, 60, 0
2, 22456, Note_on_c, 1, 46, 55
2, 22457, Note_on_c, 1, 56, 62
2, 22474, Note_on_c, 1, 56, 0
2, 22488, Note_on_c, 1, 46, 0
2, 22501, Note_on_c, 1, 69, 48
2, 22503, Note_on_c, 1, 55, 51
2, 22503, Note_on_c, 1, 45, 49
2, 22505, Control_c, 1, 64, 0
2, 22506, Note_on_c, 1, 70, 63
2, 22511, Note_on_c, 1, 55, 0
2, 22513, Note_on_c, 1, 45, 0
2, 22514, Note_on_c, 1, 70, 0
2, 22515, Note_on_c, 1, 52, 26
2, 22517, Note_on_c, 1, 71, 69
2, 22518, Note_on_c, 1, 69, 0
2, 22523, Note_on_c, 1, 52, 0
2, 22550, Note_on_c, 1, 71, 0
2, 22557, Note_on_c, 1, 74, 84
2, 22574, Note_on_c, 1, 74, 0
2, 22591, Control_c, 1, 64, 127
2, 22598, Note_on_c, 1, 76, 76
2, 22624, Note_on_c, 1, 76, 0
2, 22641, Control_c, 1, 64, 0
2, 22642, Note_on_c, 1, 64, 54
2, 22646, Note_on_c, 1, 79, 75
2, 22648, Note_on_c, 1, 60, 40
2, 22650, Note_on_c, 1, 64, 0
2, 22651, Note_on_c, 1, 59, 30
2, 22652, Note_on_c, 1, 55, 35
2, 22655, Note_on_c, 1, 60, 0
2, 22658, Note_on_c, 1, 59, 0
2, 22662, Note_on_c, 1, 55, 0
2, 22673, Note_on_c, 1, 79, 0
2, 22706, Control_c, 1, 64, 127
2, 22742, Note_on_c, 1, 39, 55
2, 22763, Note_on_c, 1, 39, 0
2, 22782, Note_on_c, 1, 38, 66
2, 22783, Control_c, 1, 64, 0
2, 22786, Note_on_c, 1, 90, 61
2, 22798, Note_on_c, 1, 38, 0
2, 22805, Note_on_c, 1, 94, 68
2, 22826, Note_on_c, 1, 90, 0
2, 22828, Note_on_c, 1, 94, 0
2, 22831, Note_on_c, 1, 88, 62
2, 22839, Note_on_c, 1, 88, 0
2, 22856, Note_on_c, 1, 86, 54
2, 22873, Note_on_c, 1, 86, 0
2, 22873, Note_on_c, 1, 85, 64
2, 22888, Control_c, 1, 64, 127
2, 22891, Note_on_c, 1, 85, 0
2, 22898, Note_on_c, 1, 84, 52
2, 22905, Note_on_c, 1, 84, 0
2, 22920, Note_on_c, 1, 82, 59
2, 22935, Note_on_c, 1, 54, 35
2, 22936, Control_c, 1, 64, 0
2, 22936, Note_on_c, 1, 60, 29
2, 22947, Note_on_c, 1, 78, 61
2, 22949, Note_on_c, 1, 60, 0
2, 22950, Note_on_c, 1, 82, 0
2, 22963, Note_on_c, 1, 54, 0
2, 22968, Note_on_c, 1, 78, 0
2, 22977, Note_on_c, 1, 76, 55
2, 22985, Note_on_c, 1, 76, 0
2, 23006, Note_on_c, 1, 74, 33
2, 23007, Note_on_c, 1, 76, 34
2, 23016, Note_on_c, 1, 74, 0
2, 23017, Note_on_c, 1, 76, 0
2, 23026, Control_c, 1, 64, 127
2, 23028, Note_on_c, 1, 73, 31
2, 23045, Note_on_c, 1, 73, 0
2, 23077, Note_on_c, 1, 71, 29
2, 23090, Note_on_c, 1, 71, 0
2, 23098, Control_c, 1, 64, 0
2, 23098, Note_on_c, 1, 74, 68
2, 23100, Note_on_c, 1, 43, 36
2, 23108, Note_on_c, 1, 43, 0
2, 23131, Control_c, 1, 64, 127
2, 23152, Note_on_c, 1, 71, 58
2, 23154, Note_on_c, 1, 74, 0
2, 23178, Note_on_c, 1, 71, 0
2, 23193, Note_on_c, 1, 66, 65
2, 23234, Note_on_c, 1, 66, 0
2, 23250, Note_on_c, 1, 62, 25
2, 23261, Note_on_c, 1, 62, 0
2, 23280, Note_on_c, 1, 55, 59
2, 23285, Control_c, 1, 64, 0
2, 23297, Note_on_c, 1, 55, 0
2, 23300, Control_c, 1, 64, 127
2, 23371, Note_on_c, 1, 40, 58
2, 23416, Note_on_c, 1, 40, 0
2, 23422, Note_on_c, 1, 28, 68
2, 23433, Note_on_c, 1, 28, 0
2, 23467, Note_on_c, 1, 67, 70
2, 23483, Note_on_c, 1, 67, 0
2, 23492, Note_on_c, 1, 68, 49
2, 23509, Note_on_c, 1, 68, 0
2, 23511, Note_on_c, 1, 70, 62
2, 23523, Note_on_c, 1, 70, 0
2, 23532, Note_on_c, 1, 71, 60
2, 23542, Note_on_c, 1, 71, 0
2, 23551, Note_on_c, 1, 73, 55
2, 23563, Note_on_c, 1, 73, 0
2, 23565, Note_on_c, 1, 56, 46
2, 23566, Note_on_c, 1, 67, 47
2, 23567, Note_on_c, 1, 62, 51
2, 23570, Control_c, 1, 64, 0
2, 23576, Note_on_c, 1, 74, 62
2, 23588, Note_on_c, 1, 74, 0
2, 23598, Note_on_c, 1, 75, 51
2, 23601, Note_on_c, 1, 67, 0
2, 23605, Note_on_c, 1, 75, 0
2, 23612, Note_on_c, 1, 62, 0
2, 23622, Note_on_c, 1, 76, 55
2, 23627, Note_on_c, 1, 56, 0
2, 23630, Note_on_c, 1, 76, 0
2, 23645, Note_on_c, 1, 77, 53
2, 23657, Note_on_c, 1, 77, 0
2, 23670, Note_on_c, 1, 81, 54
2, 23680, Control_c, 1, 64, 127
2, 23686, Note_on_c, 1, 81, 0
2, 23695, Note_on_c, 1, 84, 65
2, 23707, Note_on_c, 1, 84, 0
2, 23720, Control_c, 1, 64, 0
2, 23721, Note_on_c, 1, 86, 90
2, 23726, Note_on_c, 1, 55, 50
2, 23728, Note_on_c, 1, 45, 47
2, 23731, Note_on_c, 1, 52, 29
2, 23748, Note_on_c, 1, 45, 0
2, 23750, Control_c, 1, 64, 127
2, 23757, Note_on_c, 1, 52, 0
2, 23763, Note_on_c, 1, 55, 0
2, 23830, Note_on_c, 1, 83, 79
2, 23883, Note_on_c, 1, 64, 41
2, 23886, Control_c, 1, 64, 0
2, 23888, Note_on_c, 1, 60, 30
2, 23890, Note_on_c, 1, 79, 59
2, 23892, Note_on_c, 1, 59, 28
2, 23893, Note_on_c, 1, 55, 38
2, 23900, Note_on_c, 1, 83, 0
2, 23910, Note_on_c, 1, 64, 0
2, 23913, Note_on_c, 1, 86, 0
2, 23915, Note_on_c, 1, 60, 0
2, 23918, Note_on_c, 1, 59, 0
2, 23925, Note_on_c, 1, 79, 0
2, 23928, Note_on_c, 1, 55, 0
2, 23931, Control_c, 1, 64, 127
2, 23990, Note_on_c, 1, 86, 92
2, 24028, Control_c, 1, 64, 0
2, 24032, Note_on_c, 1, 60, 36
2, 24035, Note_on_c, 1, 54, 39
2, 24036, Note_on_c, 1, 50, 36
2, 24055, Control_c, 1, 64, 127
2, 24109, Note_on_c, 1, 50, 0
2, 24116, Note_on_c, 1, 54, 0
2, 24120, Note_on_c, 1, 60, 0
2, 24136, Note_on_c, 1, 86, 0
2, 24147, Note_on_c, 1, 76, 48
2, 24157, Note_on_c, 1, 76, 0
2, 24195, Control_c, 1, 64, 0
2, 24196, Note_on_c, 1, 65, 53
2, 24196, Note_on_c, 1, 54, 49
2, 24198, Note_on_c, 1, 60, 49
2, 24200, Note_on_c, 1, 90, 77
2, 24200, Note_on_c, 1, 58, 37
2, 24201, Note_on_c, 1, 78, 67
2, 24209, Note_on_c, 1, 65, 0
2, 24220, Note_on_c, 1, 60, 0
2, 24227, Note_on_c, 1, 58, 0
2, 24231, Control_c, 1, 64, 127
2, 24232, Note_on_c, 1, 54, 0
2, 24302, Note_on_c, 1, 90, 0
2, 24305, Note_on_c, 1, 50, 51
2, 24306, Note_on_c, 1, 78, 0
2, 24361, Note_on_c, 1, 43, 35
2, 24363, Control_c, 1, 64, 0
2, 24363, Note_on_c, 1, 74, 68
2, 24365, Note_on_c, 1, 59, 56
2, 24366, Note_on_c, 1, 86, 52
2, 24371, Note_on_c, 1, 83, 34
2, 24397, Control_c, 1, 64, 127
2, 24402, Note_on_c, 1, 43, 0
2, 24403, Note_on_c, 1, 83, 0
2, 24404, Note_on_c, 1, 86, 0
2, 24412, Note_on_c, 1, 50, 0
2, 24418, Note_on_c, 1, 74, 0
2, 24421, Note_on_c, 1, 59, 0
2, 24475, Note_on_c, 1, 83, 91
2, 24498, Note_on_c, 1, 83, 0
2, 24527, Note_on_c, 1, 66, 52
2, 24528, Note_on_c, 1, 74, 74
2, 24530, Note_on_c, 1, 81, 66
2, 24531, Note_on_c, 1, 62, 54
2, 24532, Control_c, 1, 64, 0
2, 24533, Note_on_c, 1, 59, 47
2, 24557, Note_on_c, 1, 66, 0
2, 24558, Note_on_c, 1, 62, 0
2, 24560, Control_c, 1, 64, 127
2, 24565, Note_on_c, 1, 81, 0
2, 24569, Note_on_c, 1, 59, 0
2, 24570, Note_on_c, 1, 74, 0
2, 24673, Note_on_c, 1, 51, 37
2, 24682, Note_on_c, 1, 54, 56
2, 24693, Note_on_c, 1, 51, 0
2, 24695, Control_c, 1, 64, 0
2, 24696, Note_on_c, 1, 55, 78
2, 24696, Note_on_c, 1, 66, 69
2, 24697, Note_on_c, 1, 71, 65
2, 24700, Note_on_c, 1, 62, 66
2, 24700, Note_on_c, 1, 70, 51
2, 24702, Note_on_c, 1, 54, 0
2, 24706, Note_on_c, 1, 70, 0
2, 24725, Note_on_c, 1, 71, 0
2, 24733, Note_on_c, 1, 66, 0
2, 24735, Control_c, 1, 64, 127
2, 24740, Note_on_c, 1, 62, 0
2, 24757, Note_on_c, 1, 55, 0
2, 24771, Control_c, 1, 64, 0
2, 24787, Note_on_c, 1, 66, 61
2, 24790, Note_on_c, 1, 59, 64
2, 24791, Note_on_c, 1, 57, 56
2, 24791, Note_on_c, 1, 62, 68
2, 24808, Control_c, 1, 64, 127
2, 24838, Note_on_c, 1, 62, 0
2, 24842, Note_on_c, 1, 57, 0
2, 24847, Note_on_c, 1, 59, 0
2, 24862, Control_c, 1, 64, 0
2, 24865, Note_on_c, 1, 66, 0
2, 24865, Note_on_c, 1, 52, 59
2, 24866, Note_on_c, 1, 57, 47
2, 24866, Note_on_c, 1, 62, 58
2, 24884, Note_on_c, 1, 57, 0
2, 24895, Control_c, 1, 64, 127
2, 24902, Note_on_c, 1, 52, 0
2, 24916, Note_on_c, 1, 50, 52
2, 24939, Note_on_c, 1, 62, 0
2, 25031, Note_on_c, 1, 50, 0
2, 25031, Note_on_c, 1, 62, 56
2, 25031, Note_on_c, 1, 58, 49
2, 25033, Note_on_c, 1, 55, 44
2, 25037, Note_on_c, 1, 43, 36
2, 25040, Control_c, 1, 64, 0
2, 25071, Control_c, 1, 64, 127
2, 25075, Note_on_c, 1, 55, 0
2, 25083, Note_on_c, 1, 62, 0
2, 25089, Note_on_c, 1, 58, 0
2, 25115, Note_on_c, 1, 43, 0
2, 25201, Note_on_c, 1, 74, 79
2, 25203, Note_on_c, 1, 62, 58
2, 25203, Note_on_c, 1, 70, 70
2, 25205, Note_on_c, 1, 67, 81
2, 25206, Note_on_c, 1, 63, 76
2, 25211, Control_c, 1, 64, 0
2, 25277, Note_on_c, 1, 61, 51
2, 25293, Note_on_c, 1, 62, 0
2, 25295, Note_on_c, 1, 61, 0
2, 25302, Control_c, 1, 64, 127
2, 25302, Note_on_c, 1, 60, 36
2, 25325, Note_on_c, 1, 60, 0
2, 25335, Note_on_c, 1, 59, 30
2, 25355, Note_on_c, 1, 59, 0
2, 25358, Control_c, 1, 64, 0
2, 25362, Note_on_c, 1, 58, 44
2, 25388, Control_c, 1, 64, 127
2, 25421, Note_on_c, 1, 67, 0
2, 25422, Note_on_c, 1, 63, 0
2, 25425, Note_on_c, 1, 70, 0
2, 25468, Note_on_c, 1, 74, 0
2, 25527, Note_on_c, 1, 63, 39
2, 25530, Note_on_c, 1, 67, 55
2, 25545, Note_on_c, 1, 58, 0
2, 25587, Note_on_c, 1, 67, 0
2, 25605, Note_on_c, 1, 63, 0
2, 25633, Note_on_c, 1, 48, 32
2, 25644, Note_on_c, 1, 48, 0
2, 25686, Note_on_c, 1, 42, 46
2, 25686, Note_on_c, 1, 57, 50
2, 25687, Control_c, 1, 64, 0
2, 25705, Control_c, 1, 64, 127
2, 25712, Note_on_c, 1, 57, 0
2, 25713, Note_on_c, 1, 42, 0
2, 25758, Note_on_c, 1, 65, 54
2, 25770, Note_on_c, 1, 65, 0
2, 25777, Note_on_c, 1, 66, 46
2, 25792, Note_on_c, 1, 66, 0
2, 25793, Note_on_c, 1, 68, 53
2, 25798, Control_c, 1, 64, 0
2, 25799, Note_on_c, 1, 68, 0
2, 25811, Note_on_c, 1, 69, 70
2, 25829, Note_on_c, 1, 69, 0
2, 25830, Note_on_c, 1, 63, 39
2, 25832, Note_on_c, 1, 54, 36
2, 25833, Note_on_c, 1, 71, 66
2, 25835, Note_on_c, 1, 60, 29
2, 25846, Note_on_c, 1, 60, 0
2, 25846, Note_on_c, 1, 63, 0
2, 25850, Note_on_c, 1, 71, 0
2, 25852, Note_on_c, 1, 54, 0
2, 25868, Note_on_c, 1, 72, 71
2, 25885, Note_on_c, 1, 72, 0
2, 25898, Note_on_c, 1, 74, 68
2, 25913, Note_on_c, 1, 74, 0
2, 25932, Note_on_c, 1, 75, 70
2, 25953, Note_on_c, 1, 75, 0
2, 25966, Note_on_c, 1, 77, 70
2, 25968, Note_on_c, 1, 63, 48
2, 25972, Note_on_c, 1, 60, 32
2, 25973, Note_on_c, 1, 56, 36
2, 25976, Note_on_c, 1, 63, 0
2, 25980, Note_on_c, 1, 60, 0
2, 25983, Note_on_c, 1, 77, 0
2, 25991, Note_on_c, 1, 56, 0
2, 26003, Note_on_c, 1, 78, 57
2, 26023, Note_on_c, 1, 78, 0
2, 26035, Note_on_c, 1, 80, 55
2, 26055, Note_on_c, 1, 80, 0
2, 26071, Note_on_c, 1, 81, 64
2, 26076, Control_c, 1, 64, 127
2, 26089, Note_on_c, 1, 81, 0
2, 26102, Control_c, 1, 64, 0
2, 26106, Note_on_c, 1, 60, 50
2, 26107, Note_on_c, 1, 83, 71
2, 26108, Note_on_c, 1, 63, 33
2, 26112, Note_on_c, 1, 53, 26
2, 26114, Note_on_c, 1, 63, 0
2, 26114, Note_on_c, 1, 60, 0
2, 26124, Note_on_c, 1, 83, 0
2, 26124, Note_on_c, 1, 53, 0
2, 26143, Note_on_c, 1, 84, 72
2, 26150, Control_c, 1, 64, 127
2, 26165, Note_on_c, 1, 84, 0
2, 26180, Note_on_c, 1, 86, 58
2, 26206, Note_on_c, 1, 86, 0
2, 26215, Note_on_c, 1, 48, 67
2, 26260, Control_c, 1, 64, 0
2, 26260, Note_on_c, 1, 41, 54
2, 26261, Note_on_c, 1, 87, 83
2, 26263, Note_on_c, 1, 51, 53
2, 26266, Note_on_c, 1, 48, 0
2, 26286, Note_on_c, 1, 41, 0
2, 26288, Control_c, 1, 64, 127
2, 26304, Note_on_c, 1, 51, 0
2, 26338, Note_on_c, 1, 87, 0
2, 26353, Note_on_c, 1, 84, 78
2, 26390, Note_on_c, 1, 84, 0
2, 26405, Control_c, 1, 64, 0
2, 26407, Note_on_c, 1, 60, 31
2, 26408, Note_on_c, 1, 63, 31
2, 26408, Note_on_c, 1, 56, 36
2, 26410, Note_on_c, 1, 80, 51
2, 26411, Note_on_c, 1, 53, 33
2, 26432, Control_c, 1, 64, 127
2, 26442, Note_on_c, 1, 53, 0
2, 26449, Note_on_c, 1, 60, 0
2, 26455, Note_on_c, 1, 80, 0
2, 26456, Note_on_c, 1, 56, 0
2, 26456, Note_on_c, 1, 63, 0
2, 26508, Note_on_c, 1, 82, 83
2, 26551, Control_c, 1, 64, 0
2, 26551, Note_on_c, 1, 63, 51
2, 26551, Note_on_c, 1, 67, 60
2, 26555, Note_on_c, 1, 60, 43
2, 26558, Note_on_c, 1, 67, 0
2, 26560, Note_on_c, 1, 56, 23
2, 26566, Note_on_c, 1, 60, 0
2, 26568, Note_on_c, 1, 63, 0
2, 26578, Note_on_c, 1, 56, 0
2, 26578, Control_c, 1, 64, 127
2, 26603, Note_on_c, 1, 82, 0
2, 26652, Note_on_c, 1, 48, 40
2, 26685, Note_on_c, 1, 48, 0
2, 26703, Control_c, 1, 64, 0
2, 26705, Note_on_c, 1, 41, 58
2, 26730, Control_c, 1, 64, 127
2, 26802, Note_on_c, 1, 41, 0
2, 26805, Note_on_c, 1, 48, 58
2, 26811, Note_on_c, 1, 48, 0
2, 26852, Note_on_c, 1, 46, 51
2, 26853, Note_on_c, 1, 55, 72
2, 26864, Note_on_c, 1, 55, 0
2, 26870, Control_c, 1, 64, 0
2, 26890, Note_on_c, 1, 56, 60
2, 26903, Note_on_c, 1, 56, 0
2, 26921, Note_on_c, 1, 58, 48
2, 26937, Note_on_c, 1, 58, 0
2, 26953, Note_on_c, 1, 59, 70
2, 26973, Control_c, 1, 64, 127
2, 26975, Note_on_c, 1, 59, 0
2, 26990, Note_on_c, 1, 56, 46
2, 26998, Note_on_c, 1, 58, 25
2, 27003, Note_on_c, 1, 56, 0
2, 27005, Note_on_c, 1, 58, 0
2, 27007, Control_c, 1, 64, 0
2, 27018, Note_on_c, 1, 58, 35
2, 27032, Note_on_c, 1, 59, 29
2, 27033, Note_on_c, 1, 58, 0
2, 27040, Note_on_c, 1, 59, 0
2, 27062, Note_on_c, 1, 61, 63
2, 27085, Note_on_c, 1, 61, 0
2, 27095, Note_on_c, 1, 62, 79
2, 27116, Control_c, 1, 64, 127
2, 27120, Note_on_c, 1, 62, 0
2, 27131, Note_on_c, 1, 61, 69
2, 27137, Note_on_c, 1, 56, 44
2, 27140, Control_c, 1, 64, 0
2, 27148, Note_on_c, 1, 61, 0
2, 27167, Note_on_c, 1, 62, 66
2, 27183, Note_on_c, 1, 62, 0
2, 27187, Note_on_c, 1, 46, 0
2, 27202, Note_on_c, 1, 53, 1
2, 27205, Note_on_c, 1, 56, 0
2, 27205, Note_on_c, 1, 64, 71
2, 27222, Note_on_c, 1, 64, 0
2, 27236, Note_on_c, 1, 65, 82
2, 27238, Control_c, 1, 64, 127
2, 27262, Note_on_c, 1, 65, 0
2, 27270, Note_on_c, 1, 56, 40
2, 27272, Control_c, 1, 64, 0
2, 27273, Note_on_c, 1, 64, 69
2, 27273, Note_on_c, 1, 46, 37
2, 27286, Note_on_c, 1, 64, 0
2, 27287, Note_on_c, 1, 56, 0
2, 27307, Note_on_c, 1, 65, 62
2, 27320, Note_on_c, 1, 53, 0
2, 27321, Note_on_c, 1, 46, 0
2, 27327, Note_on_c, 1, 65, 0
2, 27328, Control_c, 1, 64, 127
2, 27341, Note_on_c, 1, 66, 54
2, 27363, Note_on_c, 1, 66, 0
2, 27376, Note_on_c, 1, 67, 62
2, 27392, Note_on_c, 1, 67, 0
2, 27416, Note_on_c, 1, 70, 67
2, 27417, Control_c, 1, 64, 0
2, 27417, Note_on_c, 1, 55, 52
2, 27447, Note_on_c, 1, 70, 0
2, 27452, Note_on_c, 1, 60, 53
2, 27460, Note_on_c, 1, 60, 0
2, 27487, Note_on_c, 1, 65, 61
2, 27498, Control_c, 1, 64, 127
2, 27517, Note_on_c, 1, 65, 0
2, 27520, Note_on_c, 1, 70, 74
2, 27537, Note_on_c, 1, 70, 0
2, 27551, Control_c, 1, 64, 0
2, 27555, Note_on_c, 1, 72, 69
2, 27570, Note_on_c, 1, 55, 0
2, 27572, Note_on_c, 1, 72, 0
2, 27575, Control_c, 1, 64, 127
2, 27592, Note_on_c, 1, 77, 67
2, 27623, Note_on_c, 1, 77, 0
2, 27626, Note_on_c, 1, 82, 68
2, 27639, Note_on_c, 1, 82, 0
2, 27662, Note_on_c, 1, 84, 74
2, 27680, Note_on_c, 1, 84, 0
2, 27702, Note_on_c, 1, 38, 72
2, 27705, Note_on_c, 1, 89, 66
2, 27706, Control_c, 1, 64, 0
2, 27711, Note_on_c, 1, 89, 0
2, 27723, Control_c, 1, 64, 127
2, 27724, Note_on_c, 1, 38, 0
2, 27747, Note_on_c, 1, 90, 65
2, 27755, Note_on_c, 1, 90, 0
2, 27757, Control_c, 1, 64, 0
2, 27765, Note_on_c, 1, 94, 69
2, 27781, Note_on_c, 1, 90, 39
2, 27783, Note_on_c, 1, 94, 0
2, 27788, Note_on_c, 1, 90, 0
2, 27795, Note_on_c, 1, 88, 58
2, 27801, Note_on_c, 1, 88, 0
2, 27816, Note_on_c, 1, 86, 65
2, 27826, Control_c, 1, 64, 127
2, 27833, Note_on_c, 1, 86, 0
2, 27836, Note_on_c, 1, 85, 69
2, 27847, Note_on_c, 1, 85, 0
2, 27852, Note_on_c, 1, 65, 34
2, 27853, Control_c, 1, 64, 0
2, 27856, Note_on_c, 1, 84, 50
2, 27856, Note_on_c, 1, 60, 38
2, 27857, Note_on_c, 1, 54, 30
2, 27860, Note_on_c, 1, 58, 33
2, 27864, Note_on_c, 1, 84, 0
2, 27882, Note_on_c, 1, 82, 45
2, 27894, Note_on_c, 1, 82, 0
2, 27901, Note_on_c, 1, 81, 37
2, 27906, Control_c, 1, 64, 127
2, 27923, Note_on_c, 1, 65, 0
2, 27926, Note_on_c, 1, 60, 0
2, 27927, Note_on_c, 1, 81, 0
2, 27948, Note_on_c, 1, 80, 27
2, 27956, Note_on_c, 1, 80, 0
2, 27966, Note_on_c, 1, 58, 0
2, 27973, Note_on_c, 1, 54, 0
2, 27992, Control_c, 1, 64, 0
2, 27995, Note_on_c, 1, 64, 47
2, 27996, Note_on_c, 1, 79, 74
2, 27998, Note_on_c, 1, 59, 39
2, 28015, Note_on_c, 1, 64, 0
2, 28018, Note_on_c, 1, 59, 0
2, 28029, Note_on_c, 1, 79, 0
2, 28030, Control_c, 1, 64, 127
2, 28077, Note_on_c, 1, 49, 59
2, 28133, Note_on_c, 1, 56, 31
2, 28133, Note_on_c, 1, 58, 58
2, 28136, Note_on_c, 1, 67, 71
2, 28137, Note_on_c, 1, 63, 63
2, 28137, Note_on_c, 1, 59, 66
2, 28142, Control_c, 1, 64, 0
2, 28155, Note_on_c, 1, 56, 0
2, 28159, Note_on_c, 1, 59, 0
2, 28173, Note_on_c, 1, 70, 80
2, 28178, Note_on_c, 1, 67, 0
2, 28186, Control_c, 1, 64, 127
2, 28189, Note_on_c, 1, 63, 0
2, 28200, Note_on_c, 1, 70, 0
2, 28205, Control_c, 1, 64, 0
2, 28208, Note_on_c, 1, 67, 44
2, 28212, Control_c, 1, 64, 127
2, 28224, Note_on_c, 1, 49, 0
2, 28226, Note_on_c, 1, 67, 0
2, 28231, Note_on_c, 1, 58, 0
2, 28242, Note_on_c, 1, 56, 34
2, 28243, Note_on_c, 1, 49, 47
2, 28258, Note_on_c, 1, 49, 0
2, 28264, Note_on_c, 1, 56, 0
2, 28281, Control_c, 1, 64, 0
2, 28281, Note_on_c, 1, 75, 77
2, 28282, Note_on_c, 1, 63, 71
2, 28283, Note_on_c, 1, 68, 73
2, 28283, Note_on_c, 1, 72, 76
2, 28283, Note_on_c, 1, 64, 81
2, 28313, Note_on_c, 1, 72, 0
2, 28314, Note_on_c, 1, 64, 0
2, 28317, Note_on_c, 1, 75, 0
2, 28319, Note_on_c, 1, 63, 0
2, 28321, Note_on_c, 1, 68, 0
2, 28326, Note_on_c, 1, 61, 62
2, 28328, Note_on_c, 1, 73, 69
2, 28331, Note_on_c, 1, 68, 56
2, 28331, Note_on_c, 1, 64, 60
2, 28343, Control_c, 1, 64, 127
2, 28363, Note_on_c, 1, 73, 0
2, 28367, Note_on_c, 1, 68, 0
2, 28371, Note_on_c, 1, 64, 0
2, 28401, Note_on_c, 1, 61, 0
2, 28432, Note_on_c, 1, 60, 45
2, 28433, Note_on_c, 1, 72, 67
2, 28435, Note_on_c, 1, 61, 60
2, 28435, Note_on_c, 1, 64, 65
2, 28440, Control_c, 1, 64, 0
2, 28443, Note_on_c, 1, 67, 30
2, 28463, Note_on_c, 1, 61, 0
2, 28469, Note_on_c, 1, 60, 0
2, 28469, Note_on_c, 1, 72, 0
2, 28471, Note_on_c, 1, 67, 0
2, 28475, Control_c, 1, 64, 127
2, 28476, Note_on_c, 1, 61, 13
2, 28477, Note_on_c, 1, 64, 0
2, 28480, Note_on_c, 1, 57, 62
2, 28492, Note_on_c, 1, 57, 0
2, 28494, Note_on_c, 1, 61, 0
2, 28576, Note_on_c, 1, 56, 60
2, 28583, Control_c, 1, 64, 0
2, 28586, Note_on_c, 1, 41, 63
2, 28613, Control_c, 1, 64, 127
2, 28642, Note_on_c, 1, 41, 0
2, 28642, Note_on_c, 1, 56, 0
2, 28737, Note_on_c, 1, 68, 69
2, 28738, Note_on_c, 1, 56, 49
2, 28742, Note_on_c, 1, 65, 56
2, 28746, Control_c, 1, 64, 0
2, 28750, Control_c, 1, 64, 127
2, 28778, Note_on_c, 1, 65, 0
2, 28789, Note_on_c, 1, 68, 0
2, 28800, Note_on_c, 1, 56, 0
2, 28883, Note_on_c, 1, 58, 57
2, 28891, Note_on_c, 1, 59, 79
2, 28893, Note_on_c, 1, 79, 82
2, 28895, Note_on_c, 1, 68, 82
2, 28897, Note_on_c, 1, 72, 74
2, 28897, Note_on_c, 1, 75, 64
2, 28897, Note_on_c, 1, 60, 74
2, 28898, Control_c, 1, 64, 0
2, 28899, Note_on_c, 1, 58, 0
2, 28906, Note_on_c, 1, 59, 0
2, 28930, Note_on_c, 1, 79, 0
2, 28934, Note_on_c, 1, 72, 0
2, 28935, Control_c, 1, 64, 127
2, 28939, Note_on_c, 1, 75, 0
2, 28950, Note_on_c, 1, 68, 0
2, 28980, Note_on_c, 1, 60, 0
2, 28981, Control_c, 1, 64, 0
2, 28985, Note_on_c, 1, 75, 62
2, 28985, Note_on_c, 1, 56, 48
2, 28987, Control_c, 1, 64, 127
2, 28990, Note_on_c, 1, 65, 69
2, 28990, Note_on_c, 1, 68, 58
2, 28991, Note_on_c, 1, 72, 52
2, 28998, Note_on_c, 1, 72, 0
2, 29003, Note_on_c, 1, 75, 0
2, 29003, Note_on_c, 1, 68, 0
2, 29008, Note_on_c, 1, 65, 0
2, 29038, Control_c, 1, 64, 0
2, 29048, Note_on_c, 1, 68, 43
2, 29050, Note_on_c, 1, 72, 51
2, 29053, Note_on_c, 1, 56, 0
2, 29056, Note_on_c, 1, 53, 38
2, 29057, Note_on_c, 1, 72, 0
2, 29061, Note_on_c, 1, 68, 0
2, 29073, Control_c, 1, 64, 127
2, 29092, Note_on_c, 1, 53, 0
2, 29136, Note_on_c, 1, 68, 57
2, 29141, Note_on_c, 1, 60, 47
2, 29142, Note_on_c, 1, 63, 43
2, 29158, Note_on_c, 1, 68, 0
2, 29170, Note_on_c, 1, 63, 0
2, 29171, Note_on_c, 1, 60, 0
2, 29196, Control_c, 1, 64, 0
2, 29200, Note_on_c, 1, 62, 57
2, 29201, Note_on_c, 1, 67, 57
2, 29202, Note_on_c, 1, 59, 51
2, 29216, Control_c, 1, 64, 127
2, 29242, Note_on_c, 1, 59, 0
2, 29247, Note_on_c, 1, 67, 0
2, 29257, Note_on_c, 1, 62, 0
2, 29263, Note_on_c, 1, 56, 65
2, 29273, Note_on_c, 1, 56, 0
2, 29275, Note_on_c, 1, 59, 53
2, 29276, Control_c, 1, 64, 0
2, 29285, Note_on_c, 1, 59, 0
2, 29285, Note_on_c, 1, 62, 62
2, 29301, Note_on_c, 1, 62, 0
2, 29301, Note_on_c, 1, 67, 63
2, 29307, Note_on_c, 1, 67, 0
2, 29316, Note_on_c, 1, 68, 69
2, 29325, Note_on_c, 1, 71, 69
2, 29328, Note_on_c, 1, 68, 0
2, 29333, Note_on_c, 1, 71, 0
2, 29338, Note_on_c, 1, 74, 55
2, 29345, Note_on_c, 1, 74, 0
2, 29346, Note_on_c, 1, 79, 49
2, 29346, Note_on_c, 1, 77, 61
2, 29353, Note_on_c, 1, 77, 0
2, 29353, Note_on_c, 1, 79, 0
2, 29367, Note_on_c, 1, 80, 62
2, 29371, Note_on_c, 1, 83, 55
2, 29383, Note_on_c, 1, 80, 0
2, 29384, Note_on_c, 1, 83, 0
2, 29386, Note_on_c, 1, 86, 51
2, 29396, Note_on_c, 1, 86, 0
2, 29397, Note_on_c, 1, 91, 47
2, 29404, Note_on_c, 1, 91, 0
2, 29421, Note_on_c, 1, 95, 60
2, 29431, Note_on_c, 1, 94, 62
2, 29437, Note_on_c, 1, 94, 0
2, 29438, Note_on_c, 1, 98, 64
2, 29441, Note_on_c, 1, 92, 31
2, 29448, Note_on_c, 1, 92, 0
2, 29448, Note_on_c, 1, 95, 0
2, 29458, Note_on_c, 1, 103, 85
2, 29464, Note_on_c, 1, 98, 0
2, 29474, Note_on_c, 1, 103, 0
2, 29512, Control_c, 1, 64, 127
2, 29588, Control_c, 1, 64, 0
2, 29608, Control_c, 1, 64, 127
2, 29657, Note_on_c, 1, 70, 82
2, 29682, Note_on_c, 1, 70, 0
2, 29700, Note_on_c, 1, 71, 84
2, 29738, Note_on_c, 1, 71, 0
2, 29745, Control_c, 1, 64, 0
2, 29753, Note_on_c, 1, 60, 47
2, 29757, Note_on_c, 1, 72, 72
2, 29758, Note_on_c, 1, 63, 35
2, 29760, Note_on_c, 1, 53, 39
2, 29763, Note_on_c, 1, 56, 27
2, 29768, Control_c, 1, 64, 127
2, 29797, Note_on_c, 1, 53, 0
2, 29800, Note_on_c, 1, 60, 0
2, 29806, Note_on_c, 1, 56, 0
2, 29810, Note_on_c, 1, 63, 0
2, 29810, Note_on_c, 1, 72, 0
2, 29913, Note_on_c, 1, 80, 44
2, 29913, Note_on_c, 1, 77, 59
2, 29915, Note_on_c, 1, 84, 66
2, 29917, Note_on_c, 1, 72, 54
2, 29917, Note_on_c, 1, 63, 44
2, 29917, Note_on_c, 1, 67, 50
2, 29922, Note_on_c, 1, 60, 44
2, 29925, Control_c, 1, 64, 0
2, 29941, Control_c, 1, 64, 127
2, 29965, Note_on_c, 1, 60, 0
2, 29971, Note_on_c, 1, 84, 0
2, 29983, Note_on_c, 1, 67, 0
2, 29984, Note_on_c, 1, 72, 0
2, 29985, Note_on_c, 1, 63, 0
2, 29985, Note_on_c, 1, 77, 0
2, 29988, Note_on_c, 1, 80, 0
2, 30070, Control_c, 1, 64, 0
2, 30072, Note_on_c, 1, 68, 52
2, 30076, Note_on_c, 1, 82, 60
2, 30077, Note_on_c, 1, 63, 42
2, 30078, Note_on_c, 1, 77, 66
2, 30080, Note_on_c, 1, 58, 28
2, 30086, Note_on_c, 1, 60, 37
2, 30092, Note_on_c, 1, 68, 0
2, 30093, Control_c, 1, 64, 127
2, 30094, Note_on_c, 1, 63, 0
2, 30096, Note_on_c, 1, 60, 0
2, 30099, Note_on_c, 1, 77, 0
2, 30102, Note_on_c, 1, 82, 0
2, 30105, Note_on_c, 1, 58, 0
2, 30127, Control_c, 1, 64, 0
2, 30137, Control_c, 1, 64, 127
2, 30171, Note_on_c, 1, 34, 57
2, 30186, Note_on_c, 1, 34, 0
2, 30232, Note_on_c, 1, 44, 71
2, 30233, Note_on_c, 1, 54, 75
2, 30250, Control_c, 1, 64, 0
2, 30266, Control_c, 1, 64, 127
2, 30340, Note_on_c, 1, 54, 0
2, 30354, Note_on_c, 1, 44, 0
2, 30391, Note_on_c, 1, 53, 61
2, 30392, Note_on_c, 1, 43, 49
2, 30395, Note_on_c, 1, 59, 75
2, 30396, Note_on_c, 1, 60, 79
2, 30402, Control_c, 1, 64, 0
2, 30408, Note_on_c, 1, 60, 0
2, 30410, Note_on_c, 1, 59, 0
2, 30412, Note_on_c, 1, 61, 59
2, 30439, Note_on_c, 1, 61, 0
2, 30445, Note_on_c, 1, 59, 29
2, 30457, Note_on_c, 1, 59, 0
2, 30460, Note_on_c, 1, 61, 58
2, 30467, Note_on_c, 1, 53, 0
2, 30480, Note_on_c, 1, 61, 0
2, 30480, Note_on_c, 1, 59, 32
2, 30492, Note_on_c, 1, 59, 0
2, 30497, Note_on_c, 1, 61, 38
2, 30514, Note_on_c, 1, 61, 0
2, 30517, Note_on_c, 1, 59, 36
2, 30526, Control_c, 1, 64, 127
2, 30540, Note_on_c, 1, 59, 0
2, 30542, Note_on_c, 1, 61, 54
2, 30547, Note_on_c, 1, 53, 59
2, 30548, Note_on_c, 1, 61, 0
2, 30556, Control_c, 1, 64, 0
2, 30565, Note_on_c, 1, 43, 0
2, 30580, Note_on_c, 1, 53, 0
2, 30610, Note_on_c, 1, 43, 71
2, 30618, Control_c, 1, 64, 127
2, 30646, Note_on_c, 1, 43, 0
2, 30651, Note_on_c, 1, 37, 59
2, 30684, Note_on_c, 1, 37, 0
2, 30693, Control_c, 1, 64, 0
2, 30703, Note_on_c, 1, 53, 55
2, 30706, Note_on_c, 1, 36, 66
2, 30719, Note_on_c, 1, 53, 0
2, 30725, Control_c, 1, 64, 127
2, 30732, Note_on_c, 1, 36, 0
2, 30808, Note_on_c, 1, 72, 99
2, 30839, Note_on_c, 1, 72, 0
2, 30848, Note_on_c, 1, 58, 47
2, 30865, Note_on_c, 1, 58, 0
2, 30867, Control_c, 1, 64, 0
2, 30868, Note_on_c, 1, 60, 47
2, 30901, Note_on_c, 1, 60, 0
2, 30902, Note_on_c, 1, 63, 36
2, 30915, Note_on_c, 1, 63, 0
2, 30933, Note_on_c, 1, 63, 47
2, 30933, Note_on_c, 1, 58, 49
2, 30946, Note_on_c, 1, 58, 0
2, 30947, Control_c, 1, 64, 127
2, 30950, Note_on_c, 1, 63, 0
2, 30962, Note_on_c, 1, 51, 29
2, 30972, Note_on_c, 1, 64, 57
2, 30977, Note_on_c, 1, 52, 65
2, 30979, Note_on_c, 1, 51, 0
2, 30992, Note_on_c, 1, 64, 0
2, 31003, Note_on_c, 1, 52, 0
2, 31003, Control_c, 1, 64, 0
2, 31005, Note_on_c, 1, 65, 76
2, 31007, Note_on_c, 1, 53, 57
2, 31037, Control_c, 1, 64, 127
2, 31045, Note_on_c, 1, 53, 0
2, 31068, Note_on_c, 1, 65, 0
2, 31106, Note_on_c, 1, 67, 88
2, 31136, Note_on_c, 1, 67, 0
2, 31156, Note_on_c, 1, 63, 39
2, 31160, Note_on_c, 1, 60, 34
2, 31160, Note_on_c, 1, 53, 36
2, 31160, Control_c, 1, 64, 0
2, 31161, Note_on_c, 1, 56, 35
2, 31162, Note_on_c, 1, 68, 74
2, 31188, Note_on_c, 1, 68, 0
2, 31197, Note_on_c, 1, 69, 66
2, 31201, Note_on_c, 1, 53, 0
2, 31208, Note_on_c, 1, 60, 0
2, 31214, Note_on_c, 1, 56, 0
2, 31219, Note_on_c, 1, 69, 0
2, 31219, Note_on_c, 1, 63, 0
2, 31220, Control_c, 1, 64, 127
2, 31235, Note_on_c, 1, 70, 67
2, 31258, Note_on_c, 1, 70, 0
2, 31270, Note_on_c, 1, 71, 64
2, 31292, Note_on_c, 1, 71, 0
2, 31307, Note_on_c, 1, 68, 36
2, 31308, Control_c, 1, 64, 0
2, 31308, Note_on_c, 1, 72, 61
2, 31312, Note_on_c, 1, 63, 30
2, 31317, Note_on_c, 1, 60, 29
2, 31334, Note_on_c, 1, 72, 0
2, 31346, Note_on_c, 1, 73, 56
2, 31352, Note_on_c, 1, 68, 0
2, 31369, Note_on_c, 1, 73, 0
2, 31382, Note_on_c, 1, 74, 67
2, 31385, Note_on_c, 1, 60, 0
2, 31388, Control_c, 1, 64, 127
2, 31403, Note_on_c, 1, 74, 0
2, 31414, Note_on_c, 1, 63, 0
2, 31420, Note_on_c, 1, 77, 62
2, 31440, Note_on_c, 1, 77, 0
2, 31455, Note_on_c, 1, 67, 55
2, 31456, Note_on_c, 1, 56, 46
2, 31456, Note_on_c, 1, 62, 58
2, 31458, Control_c, 1, 64, 0
2, 31460, Note_on_c, 1, 82, 75
2, 31492, Note_on_c, 1, 82, 0
2, 31507, Control_c, 1, 64, 127
2, 31513, Note_on_c, 1, 67, 0
2, 31535, Note_on_c, 1, 77, 45
2, 31557, Note_on_c, 1, 77, 0
2, 31568, Note_on_c, 1, 62, 0
2, 31572, Note_on_c, 1, 84, 85
2, 31576, Note_on_c, 1, 56, 0
2, 31597, Note_on_c, 1, 84, 0
2, 31605, Note_on_c, 1, 62, 42
2, 31605, Note_on_c, 1, 65, 53
2, 31607, Control_c, 1, 64, 0
2, 31611, Note_on_c, 1, 82, 69
2, 31612, Note_on_c, 1, 60, 35
2, 31616, Note_on_c, 1, 65, 0
2, 31622, Note_on_c, 1, 60, 0
2, 31623, Note_on_c, 1, 62, 0
2, 31647, Control_c, 1, 64, 127
2, 31648, Note_on_c, 1, 82, 0
2, 31650, Note_on_c, 1, 74, 54
2, 31676, Note_on_c, 1, 74, 0
2, 31690, Note_on_c, 1, 46, 57
2, 31691, Note_on_c, 1, 39, 56
2, 31721, Note_on_c, 1, 39, 0
2, 31742, Note_on_c, 1, 47, 24
2, 31748, Note_on_c, 1, 47, 0
2, 31777, Note_on_c, 1, 70, 71
2, 31777, Note_on_c, 1, 55, 63
2, 31778, Note_on_c, 1, 74, 62
2, 31778, Note_on_c, 1, 77, 69
2, 31781, Note_on_c, 1, 65, 55
2, 31785, Note_on_c, 1, 67, 42
2, 31795, Note_on_c, 1, 46, 0
2, 31824, Note_on_c, 1, 77, 0
2, 31824, Note_on_c, 1, 74, 0
2, 31833, Note_on_c, 1, 67, 0
2, 31840, Note_on_c, 1, 70, 0
2, 31846, Note_on_c, 1, 65, 0
2, 31900, Note_on_c, 1, 55, 0
2, 31906, Note_on_c, 1, 54, 46
2, 31925, Note_on_c, 1, 70, 57
2, 31930, Note_on_c, 1, 60, 43
2, 31930, Note_on_c, 1, 55, 65
2, 31931, Note_on_c, 1, 54, 0
2, 31931, Note_on_c, 1, 65, 45
2, 31932, Control_c, 1, 64, 0
2, 31970, Control_c, 1, 64, 127
2, 31981, Note_on_c, 1, 55, 0
2, 31987, Note_on_c, 1, 70, 0
2, 31987, Note_on_c, 1, 65, 0
2, 32005, Note_on_c, 1, 60, 0
2, 32076, Note_on_c, 1, 46, 44
2, 32077, Note_on_c, 1, 56, 43
2, 32078, Note_on_c, 1, 60, 49
2, 32080, Note_on_c, 1, 65, 59
2, 32080, Control_c, 1, 64, 0
2, 32112, Control_c, 1, 64, 127
2, 32149, Note_on_c, 1, 60, 0
2, 32164, Note_on_c, 1, 56, 0
2, 32167, Note_on_c, 1, 65, 0
2, 32192, Note_on_c, 1, 46, 0
2, 32231, Note_on_c, 1, 55, 46
2, 32232, Control_c, 1, 64, 0
2, 32232, Note_on_c, 1, 45, 45
2, 32236, Note_on_c, 1, 52, 36
2, 32279, Note_on_c, 1, 45, 0
2, 32281, Control_c, 1, 64, 127
2, 32283, Note_on_c, 1, 52, 0
2, 32287, Note_on_c, 1, 66, 80
2, 32294, Note_on_c, 1, 55, 0
2, 32318, Note_on_c, 1, 66, 0
2, 32330, Note_on_c, 1, 67, 71
2, 32355, Note_on_c, 1, 67, 0
2, 32382, Note_on_c, 1, 64, 56
2, 32383, Note_on_c, 1, 72, 82
2, 32385, Note_on_c, 1, 60, 43
2, 32385, Control_c, 1, 64, 0
2, 32387, Note_on_c, 1, 55, 38
2, 32388, Note_on_c, 1, 59, 45
2, 32418, Note_on_c, 1, 72, 0
2, 32426, Note_on_c, 1, 70, 49
2, 32434, Note_on_c, 1, 64, 0
2, 32435, Note_on_c, 1, 59, 0
2, 32438, Note_on_c, 1, 60, 0
2, 32449, Note_on_c, 1, 55, 0
2, 32451, Note_on_c, 1, 70, 0
2, 32460, Note_on_c, 1, 71, 51
2, 32482, Note_on_c, 1, 71, 0
2, 32493, Control_c, 1, 64, 127
2, 32496, Note_on_c, 1, 72, 69
2, 32500, Note_on_c, 1, 71, 38
2, 32508, Note_on_c, 1, 71, 0
2, 32513, Note_on_c, 1, 72, 0
2, 32515, Control_c, 1, 64, 0
2, 32533, Note_on_c, 1, 76, 59
2, 32536, Note_on_c, 1, 60, 24
2, 32537, Note_on_c, 1, 54, 32
2, 32540, Note_on_c, 1, 50, 27
2, 32546, Note_on_c, 1, 57, 19
2, 32566, Note_on_c, 1, 76, 0
2, 32571, Note_on_c, 1, 79, 68
2, 32578, Note_on_c, 1, 50, 0
2, 32578, Note_on_c, 1, 57, 0
2, 32587, Note_on_c, 1, 54, 0
2, 32588, Note_on_c, 1, 79, 0
2, 32598, Note_on_c, 1, 60, 0
2, 32606, Note_on_c, 1, 83, 69
2, 32610, Control_c, 1, 64, 127
2, 32632, Note_on_c, 1, 83, 0
2, 32643, Note_on_c, 1, 86, 88
2, 32669, Note_on_c, 1, 86, 0
2, 32677, Note_on_c, 1, 65, 54
2, 32678, Note_on_c, 1, 84, 82
2, 32681, Note_on_c, 1, 60, 49
2, 32682, Note_on_c, 1, 54, 33
2, 32686, Control_c, 1, 64, 0
2, 32687, Note_on_c, 1, 65, 0
2, 32695, Note_on_c, 1, 84, 0
2, 32702, Note_on_c, 1, 60, 0
2, 32712, Note_on_c, 1, 54, 0
2, 32717, Note_on_c, 1, 80, 72
2, 32743, Note_on_c, 1, 80, 0
2, 32752, Note_on_c, 1, 75, 55
2, 32760, Control_c, 1, 64, 127
2, 32791, Note_on_c, 1, 72, 55
2, 32802, Note_on_c, 1, 75, 0
2, 32807, Note_on_c, 1, 72, 0
2, 32827, Note_on_c, 1, 78, 78
2, 32828, Note_on_c, 1, 54, 64
2, 32830, Note_on_c, 1, 43, 59
2, 32832, Control_c, 1, 64, 0
2, 32841, Note_on_c, 1, 54, 0
2, 32850, Note_on_c, 1, 43, 0
2, 32867, Note_on_c, 1, 74, 66
2, 32868, Control_c, 1, 64, 127
2, 32889, Note_on_c, 1, 78, 0
2, 32892, Note_on_c, 1, 74, 0
2, 32902, Note_on_c, 1, 71, 53
2, 32920, Note_on_c, 1, 71, 0
2, 32942, Note_on_c, 1, 66, 51
2, 32972, Note_on_c, 1, 66, 0
2, 32976, Note_on_c, 1, 56, 42
2, 32980, Note_on_c, 1, 62, 50
2, 32986, Control_c, 1, 64, 0
2, 32999, Note_on_c, 1, 56, 0
2, 33002, Note_on_c, 1, 62, 0
2, 33016, Note_on_c, 1, 64, 67
2, 33026, Control_c, 1, 64, 127
2, 33042, Note_on_c, 1, 64, 0
2, 33050, Note_on_c, 1, 66, 64
2, 33073, Note_on_c, 1, 66, 0
2, 33087, Note_on_c, 1, 67, 58
2, 33122, Note_on_c, 1, 67, 0
2, 33128, Note_on_c, 1, 70, 72
2, 33155, Control_c, 1, 64, 0
2, 33163, Note_on_c, 1, 70, 0
2, 33168, Note_on_c, 1, 72, 60
2, 33202, Note_on_c, 1, 40, 68
2, 33203, Note_on_c, 1, 72, 0
2, 33215, Note_on_c, 1, 76, 69
2, 33217, Control_c, 1, 64, 127
2, 33218, Note_on_c, 1, 40, 0
2, 33236, Note_on_c, 1, 76, 0
2, 33256, Note_on_c, 1, 80, 61
2, 33268, Note_on_c, 1, 80, 0
2, 33295, Note_on_c, 1, 56, 83
2, 33295, Note_on_c, 1, 62, 92
2, 33295, Note_on_c, 1, 67, 96
2, 33305, Control_c, 1, 64, 0
2, 33347, Note_on_c, 1, 86, 83
2, 33351, Control_c, 1, 64, 127
2, 33382, Note_on_c, 1, 86, 0
2, 33382, Note_on_c, 1, 82, 59
2, 33392, Note_on_c, 1, 67, 0
2, 33392, Note_on_c, 1, 62, 0
2, 33409, Note_on_c, 1, 82, 0
2, 33422, Note_on_c, 1, 83, 62
2, 33431, Note_on_c, 1, 56, 0
2, 33443, Note_on_c, 1, 83, 0
2, 33456, Note_on_c, 1, 74, 64
2, 33457, Control_c, 1, 64, 0
2, 33457, Note_on_c, 1, 86, 64
2, 33460, Note_on_c, 1, 64, 54
2, 33463, Note_on_c, 1, 60, 42
2, 33465, Note_on_c, 1, 59, 41
2, 33467, Note_on_c, 1, 55, 44
2, 33481, Note_on_c, 1, 64, 0
2, 33484, Note_on_c, 1, 60, 0
2, 33486, Note_on_c, 1, 59, 0
2, 33487, Note_on_c, 1, 86, 0
2, 33491, Note_on_c, 1, 74, 0
2, 33497, Note_on_c, 1, 55, 0
2, 33500, Note_on_c, 1, 86, 67
2, 33503, Note_on_c, 1, 74, 55
2, 33524, Note_on_c, 1, 74, 0
2, 33532, Note_on_c, 1, 86, 0
2, 33537, Control_c, 1, 64, 127
2, 33541, Note_on_c, 1, 83, 46
2, 33561, Note_on_c, 1, 83, 0
2, 33573, Note_on_c, 1, 86, 79
2, 33575, Note_on_c, 1, 74, 74
2, 33594, Note_on_c, 1, 86, 0
2, 33595, Note_on_c, 1, 74, 0
2, 33610, Control_c, 1, 64, 0
2, 33611, Note_on_c, 1, 55, 52
2, 33612, Note_on_c, 1, 86, 63
2, 33612, Note_on_c, 1, 74, 65
2, 33613, Note_on_c, 1, 45, 49
2, 33615, Note_on_c, 1, 52, 30
2, 33630, Note_on_c, 1, 74, 0
2, 33634, Note_on_c, 1, 86, 0
2, 33640, Note_on_c, 1, 45, 0
2, 33648, Note_on_c, 1, 52, 0
2, 33653, Control_c, 1, 64, 127
2, 33654, Note_on_c, 1, 55, 0
2, 33656, Note_on_c, 1, 86, 74
2, 33658, Note_on_c, 1, 74, 70
2, 33673, Note_on_c, 1, 74, 0
2, 33686, Note_on_c, 1, 86, 0
2, 33695, Note_on_c, 1, 83, 44
2, 33716, Note_on_c, 1, 83, 0
2, 33732, Note_on_c, 1, 87, 85
2, 33733, Note_on_c, 1, 75, 82
2, 33755, Note_on_c, 1, 75, 0
2, 33758, Note_on_c, 1, 87, 0
2, 33758, Control_c, 1, 64, 0
2, 33770, Note_on_c, 1, 87, 70
2, 33771, Note_on_c, 1, 75, 56
2, 33772, Note_on_c, 1, 60, 53
2, 33773, Note_on_c, 1, 54, 52
2, 33777, Note_on_c, 1, 50, 38
2, 33779, Note_on_c, 1, 60, 0
2, 33793, Note_on_c, 1, 50, 0
2, 33796, Note_on_c, 1, 75, 0
2, 33798, Note_on_c, 1, 87, 0
2, 33800, Control_c, 1, 64, 127
2, 33801, Note_on_c, 1, 54, 0
2, 33815, Note_on_c, 1, 87, 60
2, 33817, Note_on_c, 1, 75, 57
2, 33833, Note_on_c, 1, 75, 0
2, 33841, Note_on_c, 1, 87, 0
2, 33855, Note_on_c, 1, 84, 58
2, 33880, Note_on_c, 1, 84, 0
2, 33890, Note_on_c, 1, 87, 74
2, 33891, Note_on_c, 1, 75, 73
2, 33908, Note_on_c, 1, 75, 0
2, 33911, Note_on_c, 1, 87, 0
2, 33925, Control_c, 1, 64, 0
2, 33925, Note_on_c, 1, 38, 58
2, 33926, Note_on_c, 1, 87, 59
2, 33928, Note_on_c, 1, 75, 61
2, 33933, Note_on_c, 1, 38, 0
2, 33948, Note_on_c, 1, 75, 0
2, 33949, Note_on_c, 1, 87, 0
2, 33955, Control_c, 1, 64, 127
2, 33967, Note_on_c, 1, 87, 59
2, 33968, Note_on_c, 1, 75, 62
2, 33984, Note_on_c, 1, 75, 0
2, 33992, Note_on_c, 1, 87, 0
2, 34005, Note_on_c, 1, 84, 55
2, 34030, Note_on_c, 1, 84, 0
2, 34040, Note_on_c, 1, 87, 70
2, 34048, Note_on_c, 1, 87, 0
2, 34050, Note_on_c, 1, 88, 72
2, 34050, Note_on_c, 1, 76, 67
2, 34057, Note_on_c, 1, 88, 0
2, 34068, Note_on_c, 1, 76, 0
2, 34082, Control_c, 1, 64, 0
2, 34083, Note_on_c, 1, 43, 57
2, 34083, Note_on_c, 1, 76, 71
2, 34085, Note_on_c, 1, 88, 78
2, 34091, Note_on_c, 1, 59, 42
2, 34110, Note_on_c, 1, 88, 0
2, 34113, Control_c, 1, 64, 127
2, 34114, Note_on_c, 1, 76, 0
2, 34115, Note_on_c, 1, 43, 0
2, 34129, Note_on_c, 1, 59, 0
2, 34131, Note_on_c, 1, 86, 68
2, 34133, Note_on_c, 1, 74, 67
2, 34164, Note_on_c, 1, 74, 0
2, 34172, Note_on_c, 1, 86, 0
2, 34178, Note_on_c, 1, 83, 71
2, 34203, Note_on_c, 1, 83, 0
2, 34215, Note_on_c, 1, 78, 52
2, 34252, Note_on_c, 1, 56, 47
2, 34252, Note_on_c, 1, 74, 64
2, 34257, Note_on_c, 1, 62, 36
2, 34258, Note_on_c, 1, 59, 33
2, 34260, Control_c, 1, 64, 0
2, 34261, Control_c, 1, 64, 127
2, 34266, Note_on_c, 1, 78, 0
2, 34268, Note_on_c, 1, 62, 0
2, 34271, Note_on_c, 1, 59, 0
2, 34294, Note_on_c, 1, 56, 0
2, 34303, Note_on_c, 1, 74, 0
2, 34347, Note_on_c, 1, 51, 53
2, 34360, Note_on_c, 1, 51, 0
2, 34402, Note_on_c, 1, 69, 72
2, 34402, Note_on_c, 1, 66, 52
2, 34403, Note_on_c, 1, 54, 71
2, 34403, Note_on_c, 1, 59, 65
2, 34403, Note_on_c, 1, 62, 66
2, 34413, Control_c, 1, 64, 0
2, 34459, Note_on_c, 1, 62, 0
2, 34460, Note_on_c, 1, 69, 0
2, 34460, Note_on_c, 1, 66, 0
2, 34461, Note_on_c, 1, 54, 0
2, 34469, Note_on_c, 1, 59, 0
2, 34483, Control_c, 1, 64, 127
2, 34492, Note_on_c, 1, 49, 42
2, 34499, Note_on_c, 1, 49, 0
2, 34503, Note_on_c, 1, 66, 71
2, 34507, Note_on_c, 1, 57, 65
2, 34508, Note_on_c, 1, 52, 75
2, 34508, Note_on_c, 1, 62, 52
2, 34510, Note_on_c, 1, 59, 57
2, 34516, Control_c, 1, 64, 0
2, 34545, Note_on_c, 1, 52, 0
2, 34552, Note_on_c, 1, 57, 0
2, 34562, Note_on_c, 1, 50, 50
2, 34568, Note_on_c, 1, 66, 0
2, 34570, Note_on_c, 1, 57, 43
2, 34581, Note_on_c, 1, 57, 0
2, 34596, Control_c, 1, 64, 127
2, 34617, Note_on_c, 1, 59, 0
2, 34633, Note_on_c, 1, 62, 0
2, 34642, Note_on_c, 1, 50, 0
2, 34653, Note_on_c, 1, 43, 33
2, 34663, Note_on_c, 1, 43, 0
2, 34698, Control_c, 1, 64, 0
2, 34707, Note_on_c, 1, 56, 58
2, 34710, Note_on_c, 1, 41, 35
2, 34728, Control_c, 1, 64, 127
2, 34730, Note_on_c, 1, 56, 0
2, 34747, Note_on_c, 1, 41, 0
2, 34810, Note_on_c, 1, 65, 50
2, 34810, Note_on_c, 1, 72, 61
2, 34811, Note_on_c, 1, 68, 48
2, 34851, Note_on_c, 1, 60, 55
2, 34862, Note_on_c, 1, 65, 0
2, 34868, Note_on_c, 1, 60, 0
2, 34874, Note_on_c, 1, 68, 0
2, 34875, Note_on_c, 1, 72, 0
2, 34938, Note_on_c, 1, 61, 36
2, 34947, Note_on_c, 1, 62, 66
2, 34956, Note_on_c, 1, 61, 0
2, 34960, Note_on_c, 1, 77, 81
2, 34960, Note_on_c, 1, 68, 84
2, 34961, Note_on_c, 1, 64, 90
2, 34961, Note_on_c, 1, 72, 83
2, 34962, Note_on_c, 1, 61, 28
2, 34965, Control_c, 1, 64, 0
2, 34970, Note_on_c, 1, 62, 0
2, 34975, Note_on_c, 1, 61, 0
2, 34997, Control_c, 1, 64, 127
2, 35033, Note_on_c, 1, 72, 0
2, 35038, Note_on_c, 1, 77, 0
2, 35045, Note_on_c, 1, 68, 0
2, 35061, Note_on_c, 1, 64, 0
2, 35111, Note_on_c, 1, 60, 77
2, 35112, Note_on_c, 1, 68, 69
2, 35112, Note_on_c, 1, 72, 72
2, 35113, Note_on_c, 1, 65, 77
2, 35125, Control_c, 1, 64, 0
2, 35165, Control_c, 1, 64, 127
2, 35202, Note_on_c, 1, 60, 0
2, 35216, Note_on_c, 1, 56, 50
2, 35217, Note_on_c, 1, 68, 0
2, 35217, Note_on_c, 1, 72, 0
2, 35221, Note_on_c, 1, 65, 0
2, 35237, Note_on_c, 1, 56, 0
2, 35237, Control_c, 1, 64, 0
2, 35257, Control_c, 1, 64, 127
2, 35271, Note_on_c, 1, 52, 34
2, 35272, Note_on_c, 1, 53, 26
2, 35279, Note_on_c, 1, 53, 0
2, 35279, Note_on_c, 1, 52, 0
2, 35313, Note_on_c, 1, 74, 72
2, 35315, Note_on_c, 1, 63, 63
2, 35316, Note_on_c, 1, 67, 70
2, 35317, Note_on_c, 1, 59, 51
2, 35330, Control_c, 1, 64, 0
2, 35367, Control_c, 1, 64, 127
2, 35425, Note_on_c, 1, 74, 0
2, 35437, Note_on_c, 1, 67, 0
2, 35440, Note_on_c, 1, 63, 0
2, 35449, Note_on_c, 1, 59, 0
2, 35475, Note_on_c, 1, 75, 60
2, 35476, Note_on_c, 1, 60, 57
2, 35477, Note_on_c, 1, 63, 46
2, 35478, Control_c, 1, 64, 0
2, 35480, Note_on_c, 1, 67, 55
2, 35505, Control_c, 1, 64, 127
2, 35543, Note_on_c, 1, 67, 0
2, 35544, Note_on_c, 1, 63, 0
2, 35561, Note_on_c, 1, 75, 0
2, 35573, Note_on_c, 1, 60, 0
2, 35628, Note_on_c, 1, 70, 74
2, 35628, Note_on_c, 1, 79, 65
2, 35631, Note_on_c, 1, 63, 71
2, 35632, Note_on_c, 1, 77, 63
2, 35634, Note_on_c, 1, 70, 0
2, 35636, Control_c, 1, 64, 0
2, 35638, Note_on_c, 1, 77, 0
2, 35672, Control_c, 1, 64, 127
2, 35714, Note_on_c, 1, 63, 0
2, 35718, Note_on_c, 1, 79, 0
2, 35786, Note_on_c, 1, 74, 59
2, 35788, Control_c, 1, 64, 0
2, 35788, Note_on_c, 1, 70, 45
2, 35790, Note_on_c, 1, 60, 47
2, 35791, Note_on_c, 1, 67, 46
2, 35807, Control_c, 1, 64, 127
2, 35823, Note_on_c, 1, 74, 0
2, 35842, Note_on_c, 1, 60, 0
2, 35844, Note_on_c, 1, 70, 0
2, 35847, Note_on_c, 1, 67, 0
2, 35940, Control_c, 1, 64, 0
2, 35946, Note_on_c, 1, 63, 36
2, 35947, Note_on_c, 1, 68, 50
2, 35950, Note_on_c, 1, 60, 24
2, 35953, Note_on_c, 1, 53, 26
2, 35960, Note_on_c, 1, 56, 25
2, 35971, Control_c, 1, 64, 127
2, 35978, Note_on_c, 1, 53, 0
2, 35986, Note_on_c, 1, 60, 0
2, 35996, Note_on_c, 1, 56, 0
2, 35997, Note_on_c, 1, 63, 0
2, 36003, Note_on_c, 1, 68, 0
2, 36052, Note_on_c, 1, 70, 87
2, 36053, Note_on_c, 1, 74, 88
2, 36090, Control_c, 1, 64, 0
2, 36093, Note_on_c, 1, 63, 48
2, 36096, Note_on_c, 1, 56, 42
2, 36101, Note_on_c, 1, 60, 36
2, 36116, Control_c, 1, 64, 127
2, 36118, Note_on_c, 1, 60, 0
2, 36124, Note_on_c, 1, 70, 0
2, 36125, Note_on_c, 1, 74, 0
2, 36130, Note_on_c, 1, 63, 0
2, 36141, Note_on_c, 1, 56, 0
2, 36141, Note_on_c, 1, 68, 69
2, 36141, Note_on_c, 1, 72, 68
2, 36174, Note_on_c, 1, 72, 0
2, 36177, Note_on_c, 1, 68, 0
2, 36251, Note_on_c, 1, 70, 59
2, 36252, Note_on_c, 1, 62, 51
2, 36253, Note_on_c, 1, 65, 52
2, 36253, Note_on_c, 1, 60, 45
2, 36257, Note_on_c, 1, 56, 39
2, 36258, Control_c, 1, 64, 0
2, 36295, Control_c, 1, 64, 127
2, 36324, Note_on_c, 1, 60, 0
2, 36327, Note_on_c, 1, 56, 0
2, 36328, Note_on_c, 1, 62, 0
2, 36329, Note_on_c, 1, 65, 0
2, 36337, Note_on_c, 1, 70, 0
2, 36353, Note_on_c, 1, 68, 63
2, 36357, Note_on_c, 1, 62, 48
2, 36382, Note_on_c, 1, 62, 0
2, 36386, Note_on_c, 1, 68, 0
2, 36405, Control_c, 1, 64, 0
2, 36406, Note_on_c, 1, 54, 35
2, 36408, Note_on_c, 1, 44, 33
2, 36411, Note_on_c, 1, 67, 60
2, 36413, Note_on_c, 1, 62, 28
2, 36435, Control_c, 1, 64, 127
2, 36438, Note_on_c, 1, 62, 0
2, 36451, Note_on_c, 1, 65, 49
2, 36456, Note_on_c, 1, 67, 0
2, 36461, Note_on_c, 1, 65, 0
2, 36512, Note_on_c, 1, 54, 0
2, 36518, Note_on_c, 1, 44, 0
2, 36558, Control_c, 1, 64, 0
2, 36570, Note_on_c, 1, 72, 80
2, 36570, Note_on_c, 1, 61, 72
2, 36570, Note_on_c, 1, 65, 80
2, 36572, Note_on_c, 1, 55, 43
2, 36572, Note_on_c, 1, 43, 35
2, 36589, Note_on_c, 1, 55, 0
2, 36597, Control_c, 1, 64, 127
2, 36602, Note_on_c, 1, 43, 0
2, 36630, Note_on_c, 1, 72, 0
2, 36633, Note_on_c, 1, 65, 0
2, 36640, Note_on_c, 1, 61, 0
2, 36726, Note_on_c, 1, 70, 72
2, 36727, Note_on_c, 1, 37, 52
2, 36727, Note_on_c, 1, 44, 59
2, 36728, Note_on_c, 1, 67, 73
2, 36728, Note_on_c, 1, 63, 77
2, 36730, Control_c, 1, 64, 0
2, 36731, Note_on_c, 1, 59, 77
2, 36761, Control_c, 1, 64, 127
2, 36765, Note_on_c, 1, 37, 0
2, 36773, Note_on_c, 1, 44, 0
2, 36793, Note_on_c, 1, 67, 0
2, 36801, Note_on_c, 1, 59, 0
2, 36803, Note_on_c, 1, 70, 0
2, 36818, Note_on_c, 1, 63, 0
2, 36886, Control_c, 1, 64, 0
2, 36891, Note_on_c, 1, 68, 53
2, 36891, Note_on_c, 1, 36, 31
2, 36892, Note_on_c, 1, 64, 59
2, 36893, Note_on_c, 1, 52, 54
2, 36893, Note_on_c, 1, 58, 50
2, 36893, Note_on_c, 1, 61, 57
2, 36897, Note_on_c, 1, 43, 34
2, 36916, Control_c, 1, 64, 127
2, 36924, Note_on_c, 1, 36, 0
2, 36930, Note_on_c, 1, 43, 0
2, 36931, Note_on_c, 1, 58, 0
2, 36935, Note_on_c, 1, 64, 0
2, 36938, Note_on_c, 1, 61, 0
2, 36939, Note_on_c, 1, 52, 0
2, 36944, Note_on_c, 1, 68, 0
2, 37055, Note_on_c, 1, 75, 80
2, 37056, Note_on_c, 1, 63, 90
2, 37057, Note_on_c, 1, 68, 85
2, 37057, Note_on_c, 1, 72, 79
2, 37060, Note_on_c, 1, 64, 95
2, 37065, Control_c, 1, 64, 0
2, 37097, Control_c, 1, 64, 127
2, 37125, Note_on_c, 1, 64, 0
2, 37129, Note_on_c, 1, 68, 0
2, 37129, Note_on_c, 1, 72, 0
2, 37132, Note_on_c, 1, 75, 0
2, 37140, Note_on_c, 1, 73, 64
2, 37141, Note_on_c, 1, 68, 64
2, 37141, Note_on_c, 1, 61, 62
2, 37142, Note_on_c, 1, 64, 70
2, 37146, Note_on_c, 1, 63, 0
2, 37164, Note_on_c, 1, 64, 0
2, 37171, Note_on_c, 1, 73, 0
2, 37173, Note_on_c, 1, 61, 0
2, 37177, Note_on_c, 1, 68, 0
2, 37223, Control_c, 1, 64, 0
2, 37225, Note_on_c, 1, 70, 67
2, 37226, Note_on_c, 1, 56, 46
2, 37226, Note_on_c, 1, 60, 60
2, 37228, Note_on_c, 1, 67, 66
2, 37228, Note_on_c, 1, 63, 64
2, 37236, Note_on_c, 1, 58, 43
2, 37285, Control_c, 1, 64, 127
2, 37370, Note_on_c, 1, 63, 0
2, 37374, Note_on_c, 1, 67, 0
2, 37377, Note_on_c, 1, 60, 0
2, 37381, Note_on_c, 1, 58, 0
2, 37384, Note_on_c, 1, 56, 0
2, 37402, Note_on_c, 1, 63, 37
2, 37403, Note_on_c, 1, 67, 46
2, 37405, Note_on_c, 1, 60, 39
2, 37406, Note_on_c, 1, 58, 31
2, 37407, Note_on_c, 1, 56, 34
2, 37462, Note_on_c, 1, 63, 0
2, 37463, Note_on_c, 1, 67, 0
2, 37463, Note_on_c, 1, 56, 0
2, 37467, Note_on_c, 1, 58, 0
2, 37473, Note_on_c, 1, 60, 0
2, 37475, Note_on_c, 1, 70, 0
2, 37558, Note_on_c, 1, 63, 48
2, 37558, Note_on_c, 1, 75, 49
2, 37562, Note_on_c, 1, 68, 47
2, 37562, Note_on_c, 1, 72, 51
2, 37566, Note_on_c, 1, 65, 36
2, 37584, Note_on_c, 1, 65, 0
2, 37587, Note_on_c, 1, 72, 0
2, 37588, Note_on_c, 1, 68, 0
2, 37593, Note_on_c, 1, 75, 0
2, 37595, Note_on_c, 1, 63, 0
2, 37666, Note_on_c, 1, 67, 71
2, 37667, Note_on_c, 1, 79, 73
2, 37668, Note_on_c, 1, 68, 77
2, 37670, Note_on_c, 1, 72, 74
2, 37671, Note_on_c, 1, 75, 62
2, 37689, Note_on_c, 1, 79, 0
2, 37690, Note_on_c, 1, 72, 0
2, 37696, Note_on_c, 1, 75, 0
2, 37704, Note_on_c, 1, 68, 0
2, 37708, Note_on_c, 1, 67, 0
2, 37727, Note_on_c, 1, 63, 48
2, 37733, Note_on_c, 1, 75, 36
2, 37736, Note_on_c, 1, 68, 35
2, 37737, Note_on_c, 1, 72, 44
2, 37740, Note_on_c, 1, 65, 26
2, 37750, Note_on_c, 1, 72, 0
2, 37752, Note_on_c, 1, 63, 0
2, 37754, Note_on_c, 1, 75, 0
2, 37758, Note_on_c, 1, 68, 0
2, 37758, Note_on_c, 1, 65, 0
2, 37836, Note_on_c, 1, 46, 51
2, 37907, Control_c, 1, 64, 0
2, 37950, Note_on_c, 1, 60, 52
2, 37951, Note_on_c, 1, 67, 42
2, 37953, Note_on_c, 1, 62, 38
2, 37957, Note_on_c, 1, 60, 0
2, 37959, Note_on_c, 1, 67, 0
2, 37960, Note_on_c, 1, 62, 0
2, 37963, Note_on_c, 1, 46, 0
2, 37996, Note_on_c, 1, 46, 34
2, 38013, Note_on_c, 1, 46, 0
2, 38048, Note_on_c, 1, 56, 59
2, 38053, Note_on_c, 1, 67, 43
2, 38053, Note_on_c, 1, 60, 54
2, 38056, Note_on_c, 1, 62, 43
2, 38057, Control_c, 1, 64, 127
2, 38066, Note_on_c, 1, 56, 0
2, 38075, Note_on_c, 1, 67, 0
2, 38076, Note_on_c, 1, 60, 0
2, 38081, Note_on_c, 1, 62, 0
2, 38102, Note_on_c, 1, 58, 64
2, 38220, Note_on_c, 1, 71, 61
2, 38221, Note_on_c, 1, 62, 64
2, 38222, Note_on_c, 1, 67, 56
2, 38226, Control_c, 1, 64, 0
2, 38271, Note_on_c, 1, 46, 47
2, 38281, Control_c, 1, 64, 127
2, 38296, Note_on_c, 1, 46, 0
2, 38352, Note_on_c, 1, 62, 0
2, 38352, Note_on_c, 1, 67, 0
2, 38363, Note_on_c, 1, 71, 0
2, 38387, Note_on_c, 1, 71, 59
2, 38390, Note_on_c, 1, 67, 56
2, 38390, Note_on_c, 1, 62, 59
2, 38436, Control_c, 1, 64, 0
2, 38446, Note_on_c, 1, 46, 62
2, 38462, Control_c, 1, 64, 127
2, 38498, Note_on_c, 1, 71, 0
2, 38510, Note_on_c, 1, 62, 0
2, 38514, Note_on_c, 1, 58, 0
2, 38541, Note_on_c, 1, 67, 0
2, 38553, Note_on_c, 1, 70, 60
2, 38555, Note_on_c, 1, 65, 60
2, 38555, Note_on_c, 1, 62, 45
2, 38556, Note_on_c, 1, 60, 37
2, 38556, Note_on_c, 1, 55, 56
2, 38558, Control_c, 1, 64, 0
2, 38588, Note_on_c, 1, 46, 0
2, 38606, Note_on_c, 1, 46, 47
2, 38612, Control_c, 1, 64, 127
2, 38668, Note_on_c, 1, 65, 0
2, 38676, Note_on_c, 1, 60, 0
2, 38677, Note_on_c, 1, 55, 0
2, 38678, Note_on_c, 1, 62, 0
2, 38720, Note_on_c, 1, 65, 58
2, 38722, Note_on_c, 1, 60, 39
2, 38722, Note_on_c, 1, 62, 37
2, 38722, Control_c, 1, 64, 0
2, 38737, Control_c, 1, 64, 127
2, 38776, Note_on_c, 1, 55, 101
2, 38849, Note_on_c, 1, 60, 0
2, 38850, Note_on_c, 1, 62, 0
2, 38857, Note_on_c, 1, 65, 0
2, 38863, Note_on_c, 1, 55, 0
2, 38874, Note_on_c, 1, 70, 0
2, 38890, Note_on_c, 1, 70, 33
2, 38892, Note_on_c, 1, 65, 49
2, 38895, Note_on_c, 1, 62, 44
2, 38895, Note_on_c, 1, 60, 49
2, 38950, Note_on_c, 1, 55, 90
2, 38971, Control_c, 1, 64, 0
2, 38983, Control_c, 1, 64, 127
2, 39020, Note_on_c, 1, 65, 0
2, 39021, Note_on_c, 1, 60, 0
2, 39021, Note_on_c, 1, 62, 0
2, 39037, Note_on_c, 1, 70, 0
2, 39051, Note_on_c, 1, 70, 53
2, 39055, Note_on_c, 1, 60, 40
2, 39056, Note_on_c, 1, 65, 61
2, 39077, Note_on_c, 1, 55, 0
2, 39092, Note_on_c, 1, 46, 0
2, 39132, Note_on_c, 1, 65, 0
2, 39132, Note_on_c, 1, 70, 0
2, 39152, Note_on_c, 1, 60, 0
2, 39157, Note_on_c, 1, 54, 39
2, 39160, Note_on_c, 1, 44, 33
2, 39183, Note_on_c, 1, 54, 0
2, 39193, Note_on_c, 1, 44, 0
2, 39203, Control_c, 1, 64, 0
2, 39205, Note_on_c, 1, 60, 51
2, 39207, Note_on_c, 1, 58, 59
2, 39212, Note_on_c, 1, 43, 42
2, 39220, Note_on_c, 1, 53, 14
2, 39227, Control_c, 1, 64, 127
2, 39238, Note_on_c, 1, 43, 0
2, 39247, Note_on_c, 1, 53, 0
2, 39248, Note_on_c, 1, 58, 0
2, 39266, Note_on_c, 1, 60, 0
2, 39360, Note_on_c, 1, 62, 50
2, 39362, Note_on_c, 1, 58, 36
2, 39363, Note_on_c, 1, 60, 43
2, 39368, Note_on_c, 1, 62, 0
2, 39368, Control_c, 1, 64, 0
2, 39371, Note_on_c, 1, 60, 0
2, 39392, Note_on_c, 1, 58, 0
2, 39445, Control_c, 1, 64, 127
2, 39471, Note_on_c, 1, 94, 75
2, 39475, Note_on_c, 1, 92, 46
2, 39482, Note_on_c, 1, 92, 0
2, 39483, Note_on_c, 1, 94, 0
2, 39490, Note_on_c, 1, 98, 72
2, 39507, Note_on_c, 1, 63, 36
2, 39508, Control_c, 1, 64, 0
2, 39508, Note_on_c, 1, 94, 69
2, 39510, Note_on_c, 1, 58, 31
2, 39512, Note_on_c, 1, 52, 34
2, 39520, Note_on_c, 1, 63, 0
2, 39520, Note_on_c, 1, 98, 0
2, 39522, Note_on_c, 1, 52, 0
2, 39528, Note_on_c, 1, 94, 0
2, 39535, Note_on_c, 1, 58, 0
2, 39536, Note_on_c, 1, 88, 53
2, 39551, Note_on_c, 1, 88, 0
2, 39570, Note_on_c, 1, 87, 71
2, 39587, Note_on_c, 1, 87, 0
2, 39601, Note_on_c, 1, 86, 74
2, 39619, Note_on_c, 1, 86, 0
2, 39633, Note_on_c, 1, 85, 74
2, 39645, Control_c, 1, 64, 127
2, 39656, Note_on_c, 1, 85, 0
2, 39662, Control_c, 1, 64, 0
2, 39667, Note_on_c, 1, 48, 54
2, 39667, Note_on_c, 1, 58, 33
2, 39670, Note_on_c, 1, 84, 57
2, 39682, Note_on_c, 1, 58, 0
2, 39685, Note_on_c, 1, 48, 0
2, 39687, Note_on_c, 1, 84, 0
2, 39706, Note_on_c, 1, 82, 63
2, 39733, Note_on_c, 1, 82, 0
2, 39743, Note_on_c, 1, 81, 54
2, 39755, Control_c, 1, 64, 127
2, 39764, Note_on_c, 1, 81, 0
2, 39772, Note_on_c, 1, 42, 59
2, 39776, Note_on_c, 1, 52, 38
2, 39777, Note_on_c, 1, 79, 65
2, 39784, Note_on_c, 1, 52, 0
2, 39802, Note_on_c, 1, 79, 0
2, 39803, Note_on_c, 1, 42, 0
2, 39813, Control_c, 1, 64, 0
2, 39816, Note_on_c, 1, 51, 52
2, 39817, Note_on_c, 1, 41, 58
2, 39820, Note_on_c, 1, 80, 60
2, 39840, Control_c, 1, 64, 127
2, 39852, Note_on_c, 1, 41, 0
2, 39864, Note_on_c, 1, 51, 0
2, 39910, Note_on_c, 1, 80, 0
2, 39913, Note_on_c, 1, 72, 74
2, 39963, Note_on_c, 1, 72, 0
2, 39971, Note_on_c, 1, 67, 56
2, 39971, Note_on_c, 1, 63, 53
2, 39971, Note_on_c, 1, 79, 88
2, 39972, Control_c, 1, 64, 0
2, 39973, Note_on_c, 1, 60, 56
2, 39983, Note_on_c, 1, 67, 0
2, 39999, Note_on_c, 1, 60, 0
2, 40002, Note_on_c, 1, 63, 0
2, 40004, Note_on_c, 1, 79, 0
2, 40010, Control_c, 1, 64, 127
2, 40016, Note_on_c, 1, 75, 60
2, 40036, Note_on_c, 1, 75, 0
2, 40051, Note_on_c, 1, 72, 47
2, 40068, Note_on_c, 1, 72, 0
2, 40088, Note_on_c, 1, 68, 52
2, 40105, Note_on_c, 1, 68, 0
2, 40128, Control_c, 1, 64, 0
2, 40128, Note_on_c, 1, 56, 52
2, 40132, Note_on_c, 1, 62, 38
2, 40135, Note_on_c, 1, 67, 68
2, 40168, Control_c, 1, 64, 127
2, 40179, Note_on_c, 1, 62, 0
2, 40194, Note_on_c, 1, 56, 0
2, 40285, Note_on_c, 1, 46, 42
2, 40286, Control_c, 1, 64, 0
2, 40287, Note_on_c, 1, 56, 50
2, 40308, Control_c, 1, 64, 127
2, 40345, Note_on_c, 1, 46, 0
2, 40346, Note_on_c, 1, 67, 0
2, 40358, Note_on_c, 1, 56, 0
2, 40395, Note_on_c, 1, 44, 59
2, 40431, Note_on_c, 1, 44, 0
2, 40443, Note_on_c, 1, 55, 65
2, 40446, Note_on_c, 1, 43, 33
2, 40455, Note_on_c, 1, 55, 0
2, 40455, Control_c, 1, 64, 0
2, 40458, Note_on_c, 1, 56, 45
2, 40461, Note_on_c, 1, 43, 0
2, 40474, Note_on_c, 1, 56, 0
2, 40475, Note_on_c, 1, 58, 56
2, 40486, Note_on_c, 1, 58, 0
2, 40492, Note_on_c, 1, 59, 67
2, 40502, Note_on_c, 1, 59, 0
2, 40512, Note_on_c, 1, 61, 52
2, 40519, Note_on_c, 1, 61, 0
2, 40535, Note_on_c, 1, 62, 41
2, 40543, Note_on_c, 1, 62, 0
2, 40550, Note_on_c, 1, 64, 45
2, 40562, Note_on_c, 1, 64, 0
2, 40566, Note_on_c, 1, 65, 57
2, 40577, Note_on_c, 1, 65, 0
2, 40591, Note_on_c, 1, 67, 70
2, 40601, Note_on_c, 1, 53, 48
2, 40601, Note_on_c, 1, 59, 54
2, 40602, Note_on_c, 1, 64, 46
2, 40608, Note_on_c, 1, 67, 0
2, 40609, Note_on_c, 1, 64, 0
2, 40615, Note_on_c, 1, 68, 58
2, 40619, Note_on_c, 1, 59, 0
2, 40626, Note_on_c, 1, 53, 0
2, 40633, Note_on_c, 1, 68, 0
2, 40638, Note_on_c, 1, 70, 39
2, 40644, Note_on_c, 1, 70, 0
2, 40656, Note_on_c, 1, 71, 64
2, 40667, Note_on_c, 1, 71, 0
2, 40677, Note_on_c, 1, 74, 72
2, 40695, Note_on_c, 1, 74, 0
2, 40702, Note_on_c, 1, 71, 59
2, 40719, Note_on_c, 1, 71, 0
2, 40732, Note_on_c, 1, 72, 61
2, 40752, Note_on_c, 1, 58, 48
2, 40754, Note_on_c, 1, 72, 0
2, 40755, Note_on_c, 1, 48, 46
2, 40756, Note_on_c, 1, 73, 65
2, 40762, Note_on_c, 1, 48, 0
2, 40769, Note_on_c, 1, 58, 0
2, 40773, Note_on_c, 1, 73, 0
2, 40787, Note_on_c, 1, 75, 59
2, 40797, Note_on_c, 1, 75, 0
2, 40808, Note_on_c, 1, 76, 62
2, 40815, Note_on_c, 1, 76, 0
2, 40832, Note_on_c, 1, 78, 52
2, 40839, Note_on_c, 1, 78, 0
2, 40852, Note_on_c, 1, 79, 63
2, 40869, Note_on_c, 1, 79, 0
2, 40875, Note_on_c, 1, 81, 62
2, 40888, Note_on_c, 1, 81, 0
2, 40896, Note_on_c, 1, 82, 48
2, 40903, Note_on_c, 1, 82, 0
2, 40916, Note_on_c, 1, 84, 64
2, 40917, Note_on_c, 1, 63, 33
2, 40917, Note_on_c, 1, 58, 39
2, 40917, Note_on_c, 1, 52, 47
2, 40932, Note_on_c, 1, 84, 0
2, 40950, Note_on_c, 1, 87, 57
2, 40963, Note_on_c, 1, 87, 0
2, 40976, Note_on_c, 1, 86, 46
2, 40976, Control_c, 1, 64, 127
2, 40980, Note_on_c, 1, 52, 0
2, 40984, Note_on_c, 1, 86, 0
2, 40993, Note_on_c, 1, 63, 0
2, 40995, Note_on_c, 1, 58, 0
2, 41003, Note_on_c, 1, 87, 26
2, 41021, Note_on_c, 1, 87, 0
2, 41036, Note_on_c, 1, 91, 72
2, 41070, Note_on_c, 1, 89, 80
2, 41078, Note_on_c, 1, 91, 0
2, 41078, Note_on_c, 1, 63, 34
2, 41081, Note_on_c, 1, 60, 38
2, 41083, Note_on_c, 1, 56, 38
2, 41085, Control_c, 1, 64, 0
2, 41086, Note_on_c, 1, 53, 31
2, 41101, Note_on_c, 1, 89, 0
2, 41105, Note_on_c, 1, 84, 74
2, 41125, Note_on_c, 1, 84, 0
2, 41127, Note_on_c, 1, 53, 0
2, 41136, Note_on_c, 1, 80, 57
2, 41139, Note_on_c, 1, 60, 0
2, 41146, Note_on_c, 1, 56, 0
2, 41150, Note_on_c, 1, 63, 0
2, 41156, Note_on_c, 1, 80, 0
2, 41171, Note_on_c, 1, 79, 50
2, 41176, Control_c, 1, 64, 127
2, 41186, Note_on_c, 1, 79, 0
2, 41202, Note_on_c, 1, 82, 75
2, 41223, Note_on_c, 1, 82, 0
2, 41235, Control_c, 1, 64, 0
2, 41235, Note_on_c, 1, 80, 70
2, 41243, Note_on_c, 1, 63, 38
2, 41243, Note_on_c, 1, 67, 37
2, 41250, Note_on_c, 1, 60, 32
2, 41252, Note_on_c, 1, 80, 0
2, 41252, Note_on_c, 1, 56, 34
2, 41255, Note_on_c, 1, 67, 0
2, 41262, Note_on_c, 1, 60, 0
2, 41271, Note_on_c, 1, 79, 60
2, 41275, Note_on_c, 1, 63, 0
2, 41278, Note_on_c, 1, 56, 0
2, 41286, Note_on_c, 1, 79, 0
2, 41302, Note_on_c, 1, 80, 56
2, 41318, Note_on_c, 1, 79, 62
2, 41323, Note_on_c, 1, 80, 0
2, 41341, Note_on_c, 1, 79, 0
2, 41345, Note_on_c, 1, 77, 57
2, 41348, Control_c, 1, 64, 127
2, 41366, Note_on_c, 1, 77, 0
2, 41377, Note_on_c, 1, 75, 67
2, 41399, Note_on_c, 1, 75, 0
2, 41401, Control_c, 1, 64, 0
2, 41406, Note_on_c, 1, 46, 53
2, 41407, Note_on_c, 1, 56, 37
2, 41408, Note_on_c, 1, 74, 61
2, 41428, Control_c, 1, 64, 127
2, 41446, Note_on_c, 1, 46, 0
2, 41452, Note_on_c, 1, 56, 0
2, 41515, Note_on_c, 1, 74, 0
2, 41577, Note_on_c, 1, 67, 68
2, 41578, Note_on_c, 1, 56, 50
2, 41578, Note_on_c, 1, 62, 60
2, 41592, Note_on_c, 1, 67, 0
2, 41603, Note_on_c, 1, 62, 0
2, 41609, Note_on_c, 1, 56, 0
2, 41685, Note_on_c, 1, 46, 44
2, 41702, Note_on_c, 1, 46, 0
2, 41738, Note_on_c, 1, 39, 55
2, 41740, Note_on_c, 1, 46, 52
2, 41745, Note_on_c, 1, 53, 65
2, 41753, Control_c, 1, 64, 0
2, 41756, Note_on_c, 1, 53, 0
2, 41759, Note_on_c, 1, 39, 0
2, 41766, Note_on_c, 1, 46, 0
2, 41768, Note_on_c, 1, 55, 67
2, 41779, Note_on_c, 1, 55, 0
2, 41788, Note_on_c, 1, 58, 57
2, 41801, Note_on_c, 1, 58, 0
2, 41807, Note_on_c, 1, 60, 68
2, 41822, Note_on_c, 1, 60, 0
2, 41826, Note_on_c, 1, 62, 69
2, 41834, Note_on_c, 1, 62, 0
2, 41857, Note_on_c, 1, 65, 60
2, 41866, Control_c, 1, 64, 127
2, 41870, Note_on_c, 1, 65, 0
2, 41873, Note_on_c, 1, 67, 52
2, 41883, Note_on_c, 1, 67, 0
2, 41886, Note_on_c, 1, 70, 60
2, 41890, Control_c, 1, 64, 0
2, 41898, Note_on_c, 1, 70, 0
2, 41901, Note_on_c, 1, 51, 36
2, 41901, Note_on_c, 1, 58, 36
2, 41902, Note_on_c, 1, 62, 28
2, 41908, Note_on_c, 1, 72, 61
2, 41921, Note_on_c, 1, 72, 0
2, 41928, Note_on_c, 1, 51, 0
2, 41932, Note_on_c, 1, 74, 27
2, 41937, Note_on_c, 1, 58, 0
2, 41939, Note_on_c, 1, 74, 0
2, 41939, Note_on_c, 1, 62, 0
2, 41952, Note_on_c, 1, 77, 51
2, 41968, Note_on_c, 1, 79, 17
2, 41969, Note_on_c, 1, 77, 0
2, 41981, Note_on_c, 1, 82, 57
2, 41985, Note_on_c, 1, 79, 0
2, 42002, Note_on_c, 1, 82, 0
2, 42005, Note_on_c, 1, 86, 83
2, 42036, Note_on_c, 1, 86, 0
2, 42057, Note_on_c, 1, 65, 59
2, 42058, Note_on_c, 1, 62, 47
2, 42062, Note_on_c, 1, 60, 37
2, 42065, Note_on_c, 1, 55, 35
2, 42075, Control_c, 1, 64, 127
2, 42099, Note_on_c, 1, 65, 0
2, 42101, Note_on_c, 1, 62, 0
2, 42104, Note_on_c, 1, 60, 0
2, 42112, Note_on_c, 1, 55, 0
2, 42221, Note_on_c, 1, 51, 56
2, 42221, Note_on_c, 1, 58, 51
2, 42222, Control_c, 1, 64, 0
2, 42223, Note_on_c, 1, 62, 43
2, 42242, Control_c, 1, 64, 127
2, 42270, Note_on_c, 1, 62, 0
2, 42283, Note_on_c, 1, 58, 0
2, 42292, Note_on_c, 1, 51, 0
2, 42337, Note_on_c, 1, 56, 68
2, 42337, Note_on_c, 1, 46, 58
2, 42363, Note_on_c, 1, 56, 0
2, 42370, Note_on_c, 1, 46, 0
2, 42387, Note_on_c, 1, 55, 53
2, 42388, Note_on_c, 1, 70, 54
2, 42390, Control_c, 1, 64, 0
2, 42390, Note_on_c, 1, 45, 53
2, 42403, Note_on_c, 1, 70, 0
2, 42403, Note_on_c, 1, 55, 0
2, 42406, Note_on_c, 1, 71, 68
2, 42407, Note_on_c, 1, 45, 0
2, 42432, Note_on_c, 1, 71, 0
2, 42452, Note_on_c, 1, 74, 85
2, 42452, Note_on_c, 1, 62, 80
2, 42468, Note_on_c, 1, 62, 0
2, 42470, Note_on_c, 1, 74, 0
2, 42498, Note_on_c, 1, 74, 91
2, 42500, Note_on_c, 1, 62, 82
2, 42515, Note_on_c, 1, 62, 0
2, 42516, Note_on_c, 1, 74, 0
2, 42538, Note_on_c, 1, 74, 80
2, 42540, Note_on_c, 1, 62, 79
2, 42543, Note_on_c, 1, 60, 47
2, 42545, Note_on_c, 1, 55, 47
2, 42547, Note_on_c, 1, 59, 49
2, 42560, Note_on_c, 1, 62, 0
2, 42561, Note_on_c, 1, 60, 0
2, 42562, Note_on_c, 1, 59, 0
2, 42575, Note_on_c, 1, 55, 0
2, 42576, Note_on_c, 1, 70, 49
2, 42587, Note_on_c, 1, 70, 0
2, 42590, Note_on_c, 1, 71, 60
2, 42598, Note_on_c, 1, 74, 0
2, 42610, Note_on_c, 1, 71, 0
2, 42621, Note_on_c, 1, 62, 68
2, 42631, Note_on_c, 1, 62, 0
2, 42653, Note_on_c, 1, 38, 71
2, 42673, Note_on_c, 1, 38, 0
2, 42673, Control_c, 1, 64, 127
2, 42717, Note_on_c, 1, 60, 78
2, 42720, Note_on_c, 1, 54, 77
2, 42736, Control_c, 1, 64, 0
2, 42756, Control_c, 1, 64, 127
2, 42782, Note_on_c, 1, 60, 0
2, 42791, Note_on_c, 1, 54, 0
2, 42873, Note_on_c, 1, 45, 68
2, 42876, Note_on_c, 1, 54, 64
2, 42876, Control_c, 1, 64, 0
2, 42911, Control_c, 1, 64, 127
2, 42934, Note_on_c, 1, 45, 0
2, 42941, Note_on_c, 1, 54, 0
2, 42981, Note_on_c, 1, 50, 59
2, 42982, Note_on_c, 1, 62, 64
2, 42993, Note_on_c, 1, 62, 0
2, 43009, Note_on_c, 1, 50, 0
2, 43031, Note_on_c, 1, 43, 67
2, 43035, Note_on_c, 1, 70, 77
2, 43036, Note_on_c, 1, 62, 65
2, 43037, Control_c, 1, 64, 0
2, 43051, Note_on_c, 1, 71, 74
2, 43052, Note_on_c, 1, 43, 0
2, 43058, Note_on_c, 1, 70, 0
2, 43063, Note_on_c, 1, 62, 0
2, 43074, Note_on_c, 1, 71, 0
2, 43087, Note_on_c, 1, 74, 69
2, 43087, Note_on_c, 1, 62, 57
2, 43103, Note_on_c, 1, 74, 0
2, 43104, Note_on_c, 1, 62, 0
2, 43126, Note_on_c, 1, 74, 69
2, 43127, Note_on_c, 1, 62, 60
2, 43143, Note_on_c, 1, 74, 0
2, 43145, Note_on_c, 1, 62, 0
2, 43145, Control_c, 1, 64, 127
2, 43162, Note_on_c, 1, 74, 65
2, 43165, Note_on_c, 1, 62, 71
2, 43181, Note_on_c, 1, 62, 0
2, 43187, Note_on_c, 1, 56, 54
2, 43188, Note_on_c, 1, 74, 0
2, 43191, Control_c, 1, 64, 0
2, 43193, Note_on_c, 1, 62, 22
2, 43195, Note_on_c, 1, 70, 60
2, 43198, Note_on_c, 1, 74, 31
2, 43200, Note_on_c, 1, 62, 0
2, 43207, Note_on_c, 1, 70, 0
2, 43208, Note_on_c, 1, 71, 66
2, 43209, Note_on_c, 1, 56, 0
2, 43223, Note_on_c, 1, 74, 0
2, 43228, Note_on_c, 1, 71, 0
2, 43241, Note_on_c, 1, 62, 69
2, 43251, Note_on_c, 1, 62, 0
2, 43273, Control_c, 1, 64, 127
2, 43308, Note_on_c, 1, 28, 74
2, 43323, Note_on_c, 1, 28, 0
2, 43362, Note_on_c, 1, 76, 87
2, 43362, Note_on_c, 1, 68, 81
2, 43363, Note_on_c, 1, 64, 89
2, 43363, Note_on_c, 1, 71, 78
2, 43367, Control_c, 1, 64, 0
2, 43370, Note_on_c, 1, 56, 74
2, 43372, Note_on_c, 1, 74, 31
2, 43372, Note_on_c, 1, 62, 70
2, 43400, Control_c, 1, 64, 127
2, 43427, Note_on_c, 1, 62, 0
2, 43445, Note_on_c, 1, 56, 0
2, 43448, Note_on_c, 1, 76, 0
2, 43449, Note_on_c, 1, 74, 0
2, 43459, Note_on_c, 1, 64, 0
2, 43468, Note_on_c, 1, 71, 0
2, 43475, Note_on_c, 1, 68, 0
2, 43525, Note_on_c, 1, 46, 45
2, 43526, Control_c, 1, 64, 0
2, 43526, Note_on_c, 1, 56, 38
2, 43527, Note_on_c, 1, 74, 63
2, 43528, Note_on_c, 1, 64, 58
2, 43528, Note_on_c, 1, 68, 45
2, 43530, Note_on_c, 1, 71, 50
2, 43552, Control_c, 1, 64, 127
2, 43598, Note_on_c, 1, 71, 0
2, 43601, Note_on_c, 1, 64, 0
2, 43603, Note_on_c, 1, 56, 0
2, 43608, Note_on_c, 1, 46, 0
2, 43610, Note_on_c, 1, 74, 0
2, 43620, Note_on_c, 1, 68, 0
2, 43685, Control_c, 1, 64, 0
2, 43690, Control_c, 1, 64, 127
2, 43692, Note_on_c, 1, 60, 35
2, 43693, Note_on_c, 1, 67, 50
2, 43693, Note_on_c, 1, 72, 39
2, 43695, Note_on_c, 1, 45, 42
2, 43695, Note_on_c, 1, 55, 34
2, 43699, Note_on_c, 1, 60, 0
2, 43702, Note_on_c, 1, 45, 0
2, 43704, Note_on_c, 1, 67, 0
2, 43706, Note_on_c, 1, 55, 0
2, 43713, Note_on_c, 1, 72, 0
2, 43780, Note_on_c, 1, 68, 31
2, 43783, Note_on_c, 1, 69, 69
2, 43789, Note_on_c, 1, 69, 0
2, 43796, Note_on_c, 1, 86, 78
2, 43797, Note_on_c, 1, 82, 77
2, 43797, Note_on_c, 1, 71, 81
2, 43798, Note_on_c, 1, 76, 88
2, 43800, Note_on_c, 1, 84, 65
2, 43800, Note_on_c, 1, 79, 76
2, 43811, Note_on_c, 1, 68, 0
2, 43825, Note_on_c, 1, 84, 0
2, 43828, Note_on_c, 1, 86, 0
2, 43828, Note_on_c, 1, 79, 0
2, 43828, Control_c, 1, 64, 0
2, 43831, Note_on_c, 1, 76, 0
2, 43832, Note_on_c, 1, 82, 0
2, 43832, Note_on_c, 1, 71, 0
2, 43852, Note_on_c, 1, 83, 79
2, 43855, Note_on_c, 1, 72, 72
2, 43856, Note_on_c, 1, 76, 68
2, 43856, Note_on_c, 1, 79, 69
2, 43857, Note_on_c, 1, 69, 49
2, 43858, Note_on_c, 1, 67, 54
2, 43865, Control_c, 1, 64, 127
2, 43868, Note_on_c, 1, 69, 0
2, 43883, Note_on_c, 1, 79, 0
2, 43884, Note_on_c, 1, 76, 0
2, 43885, Note_on_c, 1, 83, 0
2, 43891, Note_on_c, 1, 72, 0
2, 43903, Note_on_c, 1, 67, 0
2, 43910, Note_on_c, 1, 79, 46
2, 43911, Note_on_c, 1, 69, 66
2, 43912, Note_on_c, 1, 72, 44
2, 43916, Note_on_c, 1, 64, 45
2, 43916, Note_on_c, 1, 76, 35
2, 43917, Note_on_c, 1, 65, 34
2, 43918, Control_c, 1, 64, 0
2, 43939, Note_on_c, 1, 65, 0
2, 43941, Control_c, 1, 64, 127
2, 43963, Note_on_c, 1, 69, 0
2, 43963, Note_on_c, 1, 64, 0
2, 43964, Note_on_c, 1, 72, 0
2, 43967, Note_on_c, 1, 76, 0
2, 43970, Note_on_c, 1, 79, 0
2, 44020, Note_on_c, 1, 80, 56
2, 44022, Note_on_c, 1, 73, 60
2, 44022, Note_on_c, 1, 68, 51
2, 44023, Control_c, 1, 64, 0
2, 44023, Note_on_c, 1, 65, 64
2, 44025, Note_on_c, 1, 77, 45
2, 44039, Note_on_c, 1, 65, 0
2, 44048, Control_c, 1, 64, 127
2, 44050, Note_on_c, 1, 77, 0
2, 44055, Note_on_c, 1, 68, 0
2, 44055, Note_on_c, 1, 73, 0
2, 44058, Note_on_c, 1, 80, 0
2, 44118, Note_on_c, 1, 68, 62
2, 44121, Note_on_c, 1, 54, 45
2, 44125, Note_on_c, 1, 60, 24
2, 44131, Note_on_c, 1, 60, 0
2, 44133, Note_on_c, 1, 54, 0
2, 44135, Note_on_c, 1, 68, 0
2, 44171, Control_c, 1, 64, 0
2, 44178, Note_on_c, 1, 75, 53
2, 44178, Note_on_c, 1, 54, 42
2, 44180, Note_on_c, 1, 63, 59
2, 44180, Note_on_c, 1, 60, 42
2, 44181, Note_on_c, 1, 68, 55
2, 44185, Note_on_c, 1, 72, 33
2, 44187, Note_on_c, 1, 60, 0
2, 44192, Note_on_c, 1, 72, 0
2, 44193, Note_on_c, 1, 75, 0
2, 44199, Note_on_c, 1, 54, 0
2, 44199, Note_on_c, 1, 68, 0
2, 44210, Note_on_c, 1, 63, 0
2, 44211, Control_c, 1, 64, 127
2, 44220, Control_c, 1, 64, 0
2, 44227, Note_on_c, 1, 54, 45
2, 44228, Note_on_c, 1, 68, 48
2, 44228, Note_on_c, 1, 66, 52
2, 44233, Note_on_c, 1, 62, 27
2, 44235, Note_on_c, 1, 72, 30
2, 44241, Note_on_c, 1, 70, 25
2, 44242, Control_c, 1, 64, 127
2, 44255, Note_on_c, 1, 72, 0
2, 44256, Note_on_c, 1, 66, 0
2, 44258, Note_on_c, 1, 70, 0
2, 44263, Note_on_c, 1, 68, 0
2, 44271, Note_on_c, 1, 62, 0
2, 44277, Note_on_c, 1, 44, 51
2, 44298, Note_on_c, 1, 54, 0
2, 44305, Note_on_c, 1, 44, 0
2, 44331, Note_on_c, 1, 66, 49
2, 44332, Note_on_c, 1, 51, 54
2, 44333, Note_on_c, 1, 62, 50
2, 44333, Note_on_c, 1, 57, 46
2, 44333, Note_on_c, 1, 43, 51
2, 44335, Note_on_c, 1, 59, 47
2, 44337, Control_c, 1, 64, 0
2, 44373, Control_c, 1, 64, 127
2, 44422, Note_on_c, 1, 51, 0
2, 44443, Note_on_c, 1, 59, 0
2, 44444, Note_on_c, 1, 62, 0
2, 44454, Note_on_c, 1, 66, 0
2, 44460, Note_on_c, 1, 57, 0
2, 44468, Note_on_c, 1, 50, 17
2, 44479, Note_on_c, 1, 50, 0
2, 44496, Note_on_c, 1, 67, 52
2, 44496, Note_on_c, 1, 59, 55
2, 44497, Note_on_c, 1, 57, 42
2, 44498, Note_on_c, 1, 62, 56
2, 44505, Control_c, 1, 64, 0
2, 44511, Note_on_c, 1, 52, 15
2, 44536, Control_c, 1, 64, 127
2, 44549, Note_on_c, 1, 52, 0
2, 44553, Note_on_c, 1, 43, 0
2, 44599, Note_on_c, 1, 57, 0
2, 44599, Note_on_c, 1, 59, 0
2, 44603, Note_on_c, 1, 62, 0
2, 44606, Note_on_c, 1, 43, 48
2, 44608, Note_on_c, 1, 50, 44
2, 44637, Note_on_c, 1, 43, 0
2, 44641, Note_on_c, 1, 50, 0
2, 44653, Note_on_c, 1, 67, 0
2, 44661, Note_on_c, 1, 43, 50
2, 44666, Note_on_c, 1, 50, 38
2, 44767, Note_on_c, 1, 50, 0
2, 44777, Note_on_c, 1, 69, 82
2, 44777, Note_on_c, 1, 66, 72
2, 44777, Note_on_c, 1, 62, 79
2, 44778, Note_on_c, 1, 57, 67
2, 44778, Note_on_c, 1, 59, 70
2, 44781, Note_on_c, 1, 54, 67
2, 44795, Control_c, 1, 64, 0
2, 44828, Control_c, 1, 64, 127
2, 44875, Note_on_c, 1, 59, 0
2, 44876, Note_on_c, 1, 57, 0
2, 44884, Note_on_c, 1, 69, 0
2, 44884, Note_on_c, 1, 54, 0
2, 44887, Note_on_c, 1, 62, 0
2, 44901, Note_on_c, 1, 62, 71
2, 44902, Note_on_c, 1, 67, 67
2, 44903, Note_on_c, 1, 57, 58
2, 44914, Note_on_c, 1, 43, 0
2, 44917, Note_on_c, 1, 67, 0
2, 44920, Note_on_c, 1, 66, 0
2, 44926, Note_on_c, 1, 62, 0
2, 44929, Note_on_c, 1, 57, 0
2, 44947, Note_on_c, 1, 43, 35
2, 44948, Note_on_c, 1, 51, 48
2, 44970, Note_on_c, 1, 51, 0
2, 44978, Note_on_c, 1, 43, 0
2, 45000, Control_c, 1, 64, 0
2, 45001, Note_on_c, 1, 58, 53
2, 45002, Note_on_c, 1, 62, 57
2, 45005, Note_on_c, 1, 55, 53
2, 45005, Note_on_c, 1, 50, 43
2, 45006, Note_on_c, 1, 43, 36
2, 45033, Control_c, 1, 64, 127
2, 45046, Note_on_c, 1, 55, 0
2, 45062, Note_on_c, 1, 62, 0
2, 45063, Note_on_c, 1, 43, 0
2, 45064, Note_on_c, 1, 58, 0
2, 45068, Note_on_c, 1, 50, 0
2, 45163, Note_on_c, 1, 70, 67
2, 45163, Note_on_c, 1, 74, 77
2, 45165, Note_on_c, 1, 63, 62
2, 45166, Note_on_c, 1, 67, 66
2, 45168, Note_on_c, 1, 62, 66
2, 45172, Control_c, 1, 64, 0
2, 45212, Note_on_c, 1, 61, 56
2, 45218, Note_on_c, 1, 62, 0
2, 45234, Note_on_c, 1, 61, 0
2, 45252, Note_on_c, 1, 60, 54
2, 45262, Note_on_c, 1, 60, 0
2, 45288, Control_c, 1, 64, 127
2, 45296, Note_on_c, 1, 59, 47
2, 45306, Note_on_c, 1, 70, 0
2, 45307, Note_on_c, 1, 67, 0
2, 45311, Note_on_c, 1, 63, 0
2, 45323, Note_on_c, 1, 74, 0
2, 45323, Note_on_c, 1, 59, 0
2, 45337, Note_on_c, 1, 58, 55
2, 45338, Note_on_c, 1, 63, 51
2, 45340, Note_on_c, 1, 70, 50
2, 45340, Control_c, 1, 64, 0
2, 45341, Note_on_c, 1, 67, 57
2, 45355, Control_c, 1, 64, 127
2, 45374, Note_on_c, 1, 58, 0
2, 45379, Note_on_c, 1, 67, 0
2, 45383, Note_on_c, 1, 70, 0
2, 45401, Note_on_c, 1, 63, 0
2, 45496, Note_on_c, 1, 63, 44
2, 45496, Control_c, 1, 64, 0
2, 45497, Note_on_c, 1, 67, 51
2, 45498, Note_on_c, 1, 55, 51
2, 45515, Control_c, 1, 64, 127
2, 45538, Note_on_c, 1, 55, 0
2, 45562, Note_on_c, 1, 63, 0
2, 45565, Note_on_c, 1, 67, 0
2, 45623, Note_on_c, 1, 58, 35
2, 45639, Note_on_c, 1, 58, 0
2, 45643, Note_on_c, 1, 59, 47
2, 45648, Note_on_c, 1, 75, 60
2, 45651, Note_on_c, 1, 69, 67
2, 45651, Control_c, 1, 64, 0
2, 45651, Note_on_c, 1, 66, 67
2, 45652, Note_on_c, 1, 60, 64
2, 45652, Note_on_c, 1, 72, 51
2, 45653, Note_on_c, 1, 59, 0
2, 45659, Note_on_c, 1, 72, 0
2, 45661, Note_on_c, 1, 69, 0
2, 45665, Note_on_c, 1, 75, 0
2, 45677, Note_on_c, 1, 66, 0
2, 45679, Note_on_c, 1, 60, 0
2, 45686, Note_on_c, 1, 59, 49
2, 45696, Note_on_c, 1, 59, 0
2, 45696, Note_on_c, 1, 58, 49
2, 45710, Note_on_c, 1, 72, 55
2, 45711, Note_on_c, 1, 66, 57
2, 45712, Note_on_c, 1, 58, 0
2, 45713, Note_on_c, 1, 63, 43
2, 45721, Note_on_c, 1, 57, 45
2, 45728, Note_on_c, 1, 72, 0
2, 45739, Note_on_c, 1, 66, 0
2, 45741, Note_on_c, 1, 63, 0
2, 45741, Control_c, 1, 64, 127
2, 45762, Note_on_c, 1, 56, 50
2, 45767, Note_on_c, 1, 57, 0
2, 45777, Note_on_c, 1, 56, 0
2, 45783, Note_on_c, 1, 55, 49
2, 45790, Note_on_c, 1, 55, 0
2, 45791, Control_c, 1, 64, 0
2, 45805, Note_on_c, 1, 54, 56
2, 45807, Note_on_c, 1, 66, 46
2, 45808, Note_on_c, 1, 57, 39
2, 45812, Note_on_c, 1, 60, 40
2, 45830, Control_c, 1, 64, 127
2, 45845, Note_on_c, 1, 54, 0
2, 45863, Note_on_c, 1, 60, 0
2, 45869, Note_on_c, 1, 66, 0
2, 45873, Note_on_c, 1, 57, 0
2, 45953, Note_on_c, 1, 54, 44
2, 45955, Note_on_c, 1, 63, 36
2, 45958, Note_on_c, 1, 60, 46
2, 45958, Note_on_c, 1, 57, 45
2, 45960, Note_on_c, 1, 51, 44
2, 45966, Control_c, 1, 64, 0
2, 45993, Control_c, 1, 64, 127
2, 46008, Note_on_c, 1, 51, 0
2, 46049, Note_on_c, 1, 57, 0
2, 46060, Note_on_c, 1, 46, 32
2, 46063, Note_on_c, 1, 60, 0
2, 46066, Note_on_c, 1, 54, 0
2, 46097, Note_on_c, 1, 46, 0
2, 46102, Note_on_c, 1, 63, 0
2, 46115, Note_on_c, 1, 54, 49
2, 46115, Note_on_c, 1, 48, 50
2, 46117, Note_on_c, 1, 57, 58
2, 46118, Note_on_c, 1, 60, 51
2, 46122, Control_c, 1, 64, 0
2, 46142, Note_on_c, 1, 48, 0
2, 46156, Note_on_c, 1, 54, 0
2, 46158, Note_on_c, 1, 57, 0
2, 46158, Control_c, 1, 64, 127
2, 46179, Note_on_c, 1, 60, 0
2, 46188, Control_c, 1, 64, 0
2, 46203, Control_c, 1, 64, 127
2, 46220, Note_on_c, 1, 42, 58
2, 46221, Note_on_c, 1, 57, 103
2, 46267, Note_on_c, 1, 42, 0
2, 46268, Note_on_c, 1, 57, 0
2, 46276, Control_c, 1, 64, 0
2, 46290, Note_on_c, 1, 41, 43
2, 46297, Note_on_c, 1, 56, 49
2, 46311, Control_c, 1, 64, 127
2, 46316, Note_on_c, 1, 41, 0
2, 46332, Note_on_c, 1, 56, 0
2, 46456, Note_on_c, 1, 63, 37
2, 46462, Note_on_c, 1, 60, 27
2, 46463, Note_on_c, 1, 56, 32
2, 46465, Note_on_c, 1, 53, 27
2, 46533, Note_on_c, 1, 63, 0
2, 46542, Note_on_c, 1, 53, 0
2, 46544, Note_on_c, 1, 60, 0
2, 46550, Note_on_c, 1, 56, 0
2, 46551, Note_on_c, 1, 68, 60
2, 46552, Note_on_c, 1, 72, 58
2, 46553, Note_on_c, 1, 65, 69
2, 46569, Note_on_c, 1, 65, 0
2, 46570, Note_on_c, 1, 72, 0
2, 46577, Note_on_c, 1, 68, 0
2, 46607, Note_on_c, 1, 74, 75
2, 46607, Note_on_c, 1, 70, 60
2, 46622, Note_on_c, 1, 74, 0
2, 46623, Note_on_c, 1, 70, 0
2, 46641, Control_c, 1, 64, 0
2, 46643, Note_on_c, 1, 63, 47
2, 46648, Note_on_c, 1, 56, 28
2, 46656, Note_on_c, 1, 60, 31
2, 46673, Note_on_c, 1, 75, 74
2, 46673, Note_on_c, 1, 72, 80
2, 46677, Control_c, 1, 64, 127
2, 46688, Note_on_c, 1, 60, 0
2, 46693, Note_on_c, 1, 63, 0
2, 46704, Note_on_c, 1, 56, 0
2, 46718, Note_on_c, 1, 75, 0
2, 46726, Note_on_c, 1, 72, 0
2, 46753, Note_on_c, 1, 70, 68
2, 46753, Note_on_c, 1, 74, 77
2, 46791, Control_c, 1, 64, 0
2, 46795, Note_on_c, 1, 74, 0
2, 46795, Note_on_c, 1, 63, 44
2, 46800, Note_on_c, 1, 60, 33
2, 46800, Note_on_c, 1, 56, 34
2, 46803, Note_on_c, 1, 53, 33
2, 46806, Note_on_c, 1, 70, 0
2, 46806, Control_c, 1, 64, 127
2, 46825, Note_on_c, 1, 63, 0
2, 46832, Note_on_c, 1, 60, 0
2, 46841, Note_on_c, 1, 53, 0
2, 46843, Note_on_c, 1, 68, 64
2, 46845, Note_on_c, 1, 72, 62
2, 46848, Note_on_c, 1, 56, 0
2, 46872, Note_on_c, 1, 72, 0
2, 46876, Note_on_c, 1, 68, 0
2, 46892, Note_on_c, 1, 68, 39
2, 46892, Note_on_c, 1, 74, 72
2, 46896, Note_on_c, 1, 70, 52
2, 46909, Note_on_c, 1, 68, 0
2, 46914, Note_on_c, 1, 74, 0
2, 46917, Note_on_c, 1, 70, 0
2, 46947, Note_on_c, 1, 56, 37
2, 46947, Note_on_c, 1, 71, 57
2, 46948, Control_c, 1, 64, 0
2, 46948, Note_on_c, 1, 46, 38
2, 46950, Note_on_c, 1, 67, 60
2, 46982, Control_c, 1, 64, 127
2, 46991, Note_on_c, 1, 46, 0
2, 47000, Note_on_c, 1, 56, 0
2, 47026, Note_on_c, 1, 67, 0
2, 47102, Note_on_c, 1, 71, 0
2, 47102, Note_on_c, 1, 62, 50
2, 47103, Note_on_c, 1, 67, 57
2, 47105, Note_on_c, 1, 56, 47
2, 47130, Note_on_c, 1, 67, 0
2, 47172, Note_on_c, 1, 56, 0
2, 47175, Note_on_c, 1, 62, 0
2, 47191, Note_on_c, 1, 70, 83
2, 47192, Note_on_c, 1, 73, 78
2, 47218, Note_on_c, 1, 70, 0
2, 47219, Note_on_c, 1, 73, 0
2, 47225, Note_on_c, 1, 74, 72
2, 47227, Note_on_c, 1, 71, 65
2, 47244, Note_on_c, 1, 71, 0
2, 47248, Note_on_c, 1, 74, 0
2, 47256, Control_c, 1, 64, 0
2, 47263, Note_on_c, 1, 67, 53
2, 47265, Note_on_c, 1, 56, 40
2, 47266, Note_on_c, 1, 62, 50
2, 47270, Note_on_c, 1, 67, 0
2, 47280, Note_on_c, 1, 78, 65
2, 47280, Note_on_c, 1, 73, 73
2, 47281, Note_on_c, 1, 70, 57
2, 47284, Note_on_c, 1, 62, 0
2, 47295, Note_on_c, 1, 56, 0
2, 47298, Note_on_c, 1, 70, 0
2, 47302, Note_on_c, 1, 78, 0
2, 47302, Note_on_c, 1, 73, 0
2, 47316, Note_on_c, 1, 79, 52
2, 47320, Note_on_c, 1, 74, 47
2, 47327, Note_on_c, 1, 74, 0
2, 47331, Note_on_c, 1, 79, 0
2, 47332, Control_c, 1, 64, 127
2, 47355, Note_on_c, 1, 73, 69
2, 47385, Note_on_c, 1, 73, 0
2, 47388, Note_on_c, 1, 83, 63
2, 47395, Note_on_c, 1, 74, 34
2, 47402, Note_on_c, 1, 74, 0
2, 47404, Note_on_c, 1, 83, 0
2, 47413, Control_c, 1, 64, 0
2, 47427, Note_on_c, 1, 56, 37
2, 47428, Note_on_c, 1, 46, 43
2, 47431, Note_on_c, 1, 85, 64
2, 47446, Note_on_c, 1, 46, 0
2, 47452, Note_on_c, 1, 56, 0
2, 47458, Note_on_c, 1, 85, 0
2, 47465, Note_on_c, 1, 86, 69
2, 47468, Control_c, 1, 64, 127
2, 47470, Note_on_c, 1, 74, 30
2, 47483, Note_on_c, 1, 74, 0
2, 47507, Note_on_c, 1, 86, 0
2, 47547, Note_on_c, 1, 79, 32
2, 47555, Note_on_c, 1, 79, 0
2, 47573, Control_c, 1, 64, 0
2, 47582, Note_on_c, 1, 74, 66
2, 47583, Note_on_c, 1, 86, 55
2, 47583, Note_on_c, 1, 79, 48
2, 47585, Note_on_c, 1, 65, 48
2, 47586, Note_on_c, 1, 55, 38
2, 47588, Note_on_c, 1, 62, 35
2, 47588, Note_on_c, 1, 60, 44
2, 47607, Control_c, 1, 64, 127
2, 47607, Note_on_c, 1, 82, 4
2, 47613, Note_on_c, 1, 86, 0
2, 47619, Note_on_c, 1, 79, 0
2, 47623, Note_on_c, 1, 82, 0
2, 47628, Note_on_c, 1, 74, 0
2, 47632, Note_on_c, 1, 65, 0
2, 47636, Note_on_c, 1, 62, 0
2, 47639, Note_on_c, 1, 60, 0
2, 47651, Note_on_c, 1, 55, 0
2, 47722, Note_on_c, 1, 53, 62
2, 47728, Note_on_c, 1, 53, 0
2, 47731, Note_on_c, 1, 54, 57
2, 47740, Control_c, 1, 64, 0
2, 47741, Note_on_c, 1, 70, 62
2, 47741, Note_on_c, 1, 65, 66
2, 47741, Note_on_c, 1, 55, 73
2, 47743, Note_on_c, 1, 60, 60
2, 47762, Note_on_c, 1, 54, 0
2, 47771, Note_on_c, 1, 70, 0
2, 47773, Note_on_c, 1, 60, 0
2, 47776, Note_on_c, 1, 65, 0
2, 47783, Note_on_c, 1, 60, 24
2, 47786, Note_on_c, 1, 70, 57
2, 47787, Note_on_c, 1, 65, 38
2, 47804, Note_on_c, 1, 70, 0
2, 47806, Note_on_c, 1, 60, 0
2, 47807, Note_on_c, 1, 65, 0
2, 47820, Note_on_c, 1, 70, 58
2, 47827, Note_on_c, 1, 65, 45
2, 47836, Control_c, 1, 64, 127
2, 47840, Note_on_c, 1, 65, 0
2, 47841, Note_on_c, 1, 70, 0
2, 47856, Note_on_c, 1, 70, 59
2, 47878, Note_on_c, 1, 70, 0
2, 47897, Note_on_c, 1, 70, 52
2, 47900, Control_c, 1, 64, 0
2, 47900, Note_on_c, 1, 50, 41
2, 47901, Note_on_c, 1, 64, 61
2, 47901, Note_on_c, 1, 60, 40
2, 47907, Note_on_c, 1, 55, 0
2, 47945, Control_c, 1, 64, 127
2, 47973, Note_on_c, 1, 60, 0
2, 47977, Note_on_c, 1, 50, 0
2, 47996, Note_on_c, 1, 64, 0
2, 48067, Note_on_c, 1, 64, 58
2, 48067, Note_on_c, 1, 54, 51
2, 48067, Note_on_c, 1, 60, 38
2, 48089, Note_on_c, 1, 60, 0
2, 48093, Note_on_c, 1, 54, 0
2, 48098, Note_on_c, 1, 70, 0
2, 48105, Note_on_c, 1, 64, 0
2, 48152, Control_c, 1, 64, 0
2, 48162, Note_on_c, 1, 70, 69
2, 48163, Note_on_c, 1, 63, 71
2, 48163, Note_on_c, 1, 49, 47
2, 48165, Note_on_c, 1, 59, 72
2, 48165, Note_on_c, 1, 67, 66
2, 48172, Note_on_c, 1, 59, 0
2, 48172, Note_on_c, 1, 53, 48
2, 48175, Control_c, 1, 64, 127
2, 48179, Note_on_c, 1, 53, 0
2, 48180, Note_on_c, 1, 63, 0
2, 48183, Note_on_c, 1, 67, 0
2, 48185, Note_on_c, 1, 49, 0
2, 48189, Note_on_c, 1, 70, 0
2, 48240, Note_on_c, 1, 82, 80
2, 48240, Note_on_c, 1, 53, 71
2, 48241, Note_on_c, 1, 75, 77
2, 48241, Note_on_c, 1, 71, 80
2, 48242, Note_on_c, 1, 79, 71
2, 48242, Note_on_c, 1, 63, 80
2, 48243, Note_on_c, 1, 59, 76
2, 48245, Control_c, 1, 64, 0
2, 48267, Control_c, 1, 64, 127
2, 48288, Note_on_c, 1, 71, 0
2, 48289, Note_on_c, 1, 75, 0
2, 48292, Note_on_c, 1, 53, 0
2, 48293, Note_on_c, 1, 82, 0
2, 48295, Note_on_c, 1, 79, 0
2, 48297, Note_on_c, 1, 63, 0
2, 48303, Note_on_c, 1, 59, 0
2, 48323, Control_c, 1, 64, 0
2, 48336, Note_on_c, 1, 59, 70
2, 48337, Note_on_c, 1, 82, 71
2, 48337, Note_on_c, 1, 53, 80
2, 48337, Note_on_c, 1, 63, 77
2, 48337, Note_on_c, 1, 75, 75
2, 48338, Note_on_c, 1, 79, 68
2, 48340, Note_on_c, 1, 71, 75
2, 48358, Control_c, 1, 64, 127
2, 48378, Note_on_c, 1, 63, 0
2, 48380, Note_on_c, 1, 53, 0
2, 48381, Note_on_c, 1, 71, 0
2, 48383, Note_on_c, 1, 79, 0
2, 48389, Note_on_c, 1, 75, 0
2, 48389, Note_on_c, 1, 82, 0
2, 48396, Control_c, 1, 64, 0
2, 48398, Note_on_c, 1, 63, 55
2, 48401, Note_on_c, 1, 75, 35
2, 48401, Note_on_c, 1, 80, 58
2, 48402, Note_on_c, 1, 53, 66
2, 48402, Note_on_c, 1, 71, 50
2, 48410, Control_c, 1, 64, 127
2, 48425, Note_on_c, 1, 53, 0
2, 48432, Note_on_c, 1, 59, 0
2, 48438, Note_on_c, 1, 71, 0
2, 48440, Note_on_c, 1, 63, 0
2, 48452, Note_on_c, 1, 75, 0
2, 48453, Note_on_c, 1, 80, 0
2, 48496, Note_on_c, 1, 84, 87
2, 48497, Note_on_c, 1, 73, 88
2, 48497, Note_on_c, 1, 76, 89
2, 48500, Note_on_c, 1, 79, 71
2, 48500, Note_on_c, 1, 72, 95
2, 48501, Note_on_c, 1, 82, 54
2, 48502, Control_c, 1, 64, 0
2, 48503, Note_on_c, 1, 80, 37
2, 48509, Note_on_c, 1, 80, 0
2, 48542, Note_on_c, 1, 84, 0
2, 48544, Note_on_c, 1, 82, 0
2, 48546, Note_on_c, 1, 79, 0
2, 48548, Note_on_c, 1, 76, 0
2, 48560, Note_on_c, 1, 72, 0
2, 48563, Note_on_c, 1, 73, 0
2, 48566, Note_on_c, 1, 71, 57
2, 48570, Note_on_c, 1, 70, 58
2, 48572, Note_on_c, 1, 71, 0
2, 48580, Note_on_c, 1, 80, 31
2, 48582, Note_on_c, 1, 81, 83
2, 48583, Note_on_c, 1, 73, 56
2, 48585, Note_on_c, 1, 76, 62
2, 48586, Note_on_c, 1, 70, 0
2, 48591, Note_on_c, 1, 69, 76
2, 48613, Note_on_c, 1, 81, 0
2, 48615, Note_on_c, 1, 76, 0
2, 48615, Note_on_c, 1, 73, 0
2, 48620, Note_on_c, 1, 80, 0
2, 48627, Control_c, 1, 64, 127
2, 48633, Note_on_c, 1, 69, 0
2, 48638, Note_on_c, 1, 67, 54
2, 48645, Control_c, 1, 64, 0
2, 48648, Note_on_c, 1, 67, 0
2, 48655, Note_on_c, 1, 78, 57
2, 48657, Note_on_c, 1, 66, 63
2, 48658, Note_on_c, 1, 73, 67
2, 48661, Note_on_c, 1, 70, 56
2, 48662, Note_on_c, 1, 67, 53
2, 48675, Control_c, 1, 64, 127
2, 48690, Note_on_c, 1, 78, 0
2, 48691, Note_on_c, 1, 70, 0
2, 48692, Note_on_c, 1, 66, 0
2, 48692, Note_on_c, 1, 67, 0
2, 48693, Note_on_c, 1, 73, 0
2, 48720, Note_on_c, 1, 75, 65
2, 48723, Control_c, 1, 64, 0
2, 48725, Note_on_c, 1, 64, 68
2, 48725, Note_on_c, 1, 70, 61
2, 48727, Note_on_c, 1, 67, 60
2, 48756, Note_on_c, 1, 70, 0
2, 48762, Note_on_c, 1, 67, 0
2, 48763, Control_c, 1, 64, 127
2, 48768, Note_on_c, 1, 64, 0
2, 48775, Note_on_c, 1, 75, 0
2, 48776, Note_on_c, 1, 70, 57
2, 48778, Note_on_c, 1, 67, 59
2, 48804, Note_on_c, 1, 67, 0
2, 48811, Note_on_c, 1, 70, 0
2, 48811, Note_on_c, 1, 64, 36
2, 48826, Note_on_c, 1, 64, 0
2, 48888, Note_on_c, 1, 56, 69
2, 48891, Note_on_c, 1, 41, 54
2, 48893, Control_c, 1, 64, 0
2, 48897, Note_on_c, 1, 51, 39
2, 48926, Control_c, 1, 64, 127
2, 48938, Note_on_c, 1, 41, 0
2, 48943, Note_on_c, 1, 56, 0
2, 48954, Note_on_c, 1, 51, 0
2, 49052, Note_on_c, 1, 63, 56
2, 49053, Note_on_c, 1, 60, 43
2, 49056, Note_on_c, 1, 56, 46
2, 49057, Note_on_c, 1, 53, 49
2, 49069, Note_on_c, 1, 63, 0
2, 49074, Note_on_c, 1, 60, 0
2, 49075, Note_on_c, 1, 53, 0
2, 49105, Note_on_c, 1, 65, 69
2, 49106, Note_on_c, 1, 56, 0
2, 49131, Note_on_c, 1, 65, 0
2, 49147, Note_on_c, 1, 68, 75
2, 49165, Note_on_c, 1, 68, 0
2, 49186, Note_on_c, 1, 58, 50
2, 49192, Note_on_c, 1, 57, 37
2, 49197, Note_on_c, 1, 59, 75
2, 49198, Control_c, 1, 64, 0
2, 49199, Note_on_c, 1, 57, 0
2, 49203, Note_on_c, 1, 58, 0
2, 49203, Note_on_c, 1, 75, 74
2, 49205, Note_on_c, 1, 68, 72
2, 49205, Note_on_c, 1, 72, 71
2, 49206, Note_on_c, 1, 60, 80
2, 49207, Note_on_c, 1, 65, 74
2, 49214, Note_on_c, 1, 59, 0
2, 49225, Control_c, 1, 64, 127
2, 49240, Note_on_c, 1, 72, 0
2, 49240, Note_on_c, 1, 75, 0
2, 49250, Note_on_c, 1, 65, 0
2, 49252, Note_on_c, 1, 68, 0
2, 49283, Note_on_c, 1, 60, 0
2, 49300, Note_on_c, 1, 56, 49
2, 49300, Note_on_c, 1, 63, 65
2, 49318, Note_on_c, 1, 63, 0
2, 49352, Control_c, 1, 64, 0
2, 49361, Note_on_c, 1, 63, 50
2, 49362, Note_on_c, 1, 53, 44
2, 49363, Note_on_c, 1, 56, 0
2, 49365, Note_on_c, 1, 60, 30
2, 49382, Control_c, 1, 64, 127
2, 49404, Note_on_c, 1, 53, 0
2, 49424, Note_on_c, 1, 63, 0
2, 49428, Note_on_c, 1, 60, 0
2, 49533, Note_on_c, 1, 35, 74
2, 49541, Control_c, 1, 64, 0
2, 49557, Control_c, 1, 64, 127
2, 49561, Note_on_c, 1, 35, 0
2, 49635, Control_c, 1, 64, 0
2, 49638, Note_on_c, 1, 66, 72
2, 49638, Note_on_c, 1, 61, 71
2, 49638, Note_on_c, 1, 63, 65
2, 49640, Note_on_c, 1, 47, 66
2, 49641, Note_on_c, 1, 54, 46
2, 49642, Note_on_c, 1, 57, 64
2, 49663, Control_c, 1, 64, 127
2, 49689, Note_on_c, 1, 66, 0
2, 49699, Note_on_c, 1, 57, 0
2, 49705, Note_on_c, 1, 57, 24
2, 49708, Note_on_c, 1, 67, 52
2, 49730, Note_on_c, 1, 67, 0
2, 49731, Note_on_c, 1, 54, 0
2, 49733, Note_on_c, 1, 47, 0
2, 49736, Note_on_c, 1, 57, 0
2, 49743, Note_on_c, 1, 63, 0
2, 49749, Note_on_c, 1, 61, 0
2, 49800, Control_c, 1, 64, 0
2, 49801, Note_on_c, 1, 56, 51
2, 49802, Note_on_c, 1, 46, 50
2, 49802, Note_on_c, 1, 65, 59
2, 49803, Note_on_c, 1, 60, 60
2, 49803, Note_on_c, 1, 63, 43
2, 49806, Note_on_c, 1, 53, 47
2, 49830, Control_c, 1, 64, 127
2, 49853, Note_on_c, 1, 56, 0
2, 49859, Note_on_c, 1, 60, 0
2, 49874, Note_on_c, 1, 65, 0
2, 49875, Note_on_c, 1, 63, 0
2, 49935, Note_on_c, 1, 67, 84
2, 49962, Note_on_c, 1, 67, 0
2, 49975, Note_on_c, 1, 68, 79
2, 49980, Note_on_c, 1, 46, 0
2, 49986, Note_on_c, 1, 53, 0
2, 50003, Note_on_c, 1, 68, 0
2, 50020, Note_on_c, 1, 68, 29
2, 50022, Note_on_c, 1, 69, 79
2, 50038, Note_on_c, 1, 68, 0
2, 50042, Note_on_c, 1, 69, 0
2, 50060, Note_on_c, 1, 70, 67
2, 50080, Note_on_c, 1, 70, 0
2, 50097, Note_on_c, 1, 71, 69
2, 50120, Note_on_c, 1, 71, 0
2, 50135, Note_on_c, 1, 74, 78
2, 50158, Note_on_c, 1, 74, 0
2, 50175, Control_c, 1, 64, 0
2, 50176, Note_on_c, 1, 72, 61
2, 50177, Note_on_c, 1, 68, 46
2, 50178, Note_on_c, 1, 60, 44
2, 50181, Note_on_c, 1, 63, 37
2, 50218, Control_c, 1, 64, 127
2, 50272, Note_on_c, 1, 58, 60
2, 50318, Note_on_c, 1, 72, 0
2, 50399, Note_on_c, 1, 68, 0
2, 50431, Note_on_c, 1, 60, 0
2, 50431, Note_on_c, 1, 84, 85
2, 50434, Note_on_c, 1, 58, 0
2, 50458, Note_on_c, 1, 63, 0
2, 50461, Note_on_c, 1, 84, 0
2, 50487, Control_c, 1, 64, 0
2, 50487, Note_on_c, 1, 82, 56
2, 50490, Note_on_c, 1, 67, 39
2, 50490, Note_on_c, 1, 73, 34
2, 50492, Note_on_c, 1, 62, 41
2, 50493, Note_on_c, 1, 56, 30
2, 50502, Note_on_c, 1, 67, 0
2, 50509, Note_on_c, 1, 62, 0
2, 50515, Note_on_c, 1, 82, 0
2, 50515, Note_on_c, 1, 73, 0
2, 50518, Note_on_c, 1, 56, 0
2, 50541, Control_c, 1, 64, 127
2, 50586, Note_on_c, 1, 46, 40
2, 50618, Note_on_c, 1, 46, 0
2, 50646, Note_on_c, 1, 54, 34
2, 50647, Note_on_c, 1, 70, 45
2, 50647, Note_on_c, 1, 66, 46
2, 50647, Note_on_c, 1, 62, 45
2, 50653, Control_c, 1, 64, 0
2, 50677, Note_on_c, 1, 67, 37
2, 50685, Note_on_c, 1, 62, 0
2, 50685, Note_on_c, 1, 66, 0
2, 50690, Note_on_c, 1, 67, 0
2, 50695, Note_on_c, 1, 70, 0
2, 50726, Note_on_c, 1, 54, 0
2, 50741, Note_on_c, 1, 44, 51
2, 50743, Control_c, 1, 64, 127
2, 50774, Note_on_c, 1, 44, 0
2, 50800, Control_c, 1, 64, 0
2, 50802, Note_on_c, 1, 67, 37
2, 50807, Note_on_c, 1, 59, 32
2, 50808, Note_on_c, 1, 62, 25
2, 50839, Note_on_c, 1, 59, 0
2, 50843, Note_on_c, 1, 62, 0
2, 50852, Note_on_c, 1, 67, 0
2, 50857, Note_on_c, 1, 43, 66
2, 50863, Control_c, 1, 64, 127
2, 50884, Note_on_c, 1, 43, 0
2, 50956, Note_on_c, 1, 68, 72
2, 50960, Note_on_c, 1, 70, 78
2, 50960, Control_c, 1, 64, 0
2, 50961, Note_on_c, 1, 63, 78
2, 50962, Note_on_c, 1, 59, 80
2, 50963, Note_on_c, 1, 53, 55
2, 50967, Note_on_c, 1, 60, 58
2, 50973, Note_on_c, 1, 60, 0
2, 50973, Note_on_c, 1, 68, 0
2, 50975, Note_on_c, 1, 67, 53
2, 50985, Note_on_c, 1, 67, 0
2, 50991, Note_on_c, 1, 53, 0
2, 51010, Note_on_c, 1, 68, 71
2, 51015, Note_on_c, 1, 70, 0
2, 51025, Note_on_c, 1, 59, 0
2, 51038, Note_on_c, 1, 63, 0
2, 51041, Control_c, 1, 64, 127
2, 51045, Note_on_c, 1, 68, 0
2, 51048, Note_on_c, 1, 36, 71
2, 51059, Note_on_c, 1, 36, 0
2, 51110, Note_on_c, 1, 75, 74
2, 51111, Note_on_c, 1, 63, 68
2, 51111, Note_on_c, 1, 72, 74
2, 51111, Note_on_c, 1, 68, 72
2, 51112, Note_on_c, 1, 64, 79
2, 51125, Control_c, 1, 64, 0
2, 51141, Note_on_c, 1, 72, 0
2, 51145, Note_on_c, 1, 64, 0
2, 51148, Note_on_c, 1, 75, 0
2, 51158, Note_on_c, 1, 73, 57
2, 51159, Note_on_c, 1, 63, 0
2, 51161, Note_on_c, 1, 61, 54
2, 51162, Note_on_c, 1, 64, 46
2, 51168, Control_c, 1, 64, 127
2, 51200, Note_on_c, 1, 73, 0
2, 51204, Note_on_c, 1, 68, 0
2, 51205, Note_on_c, 1, 64, 0
2, 51206, Note_on_c, 1, 61, 0
2, 51262, Note_on_c, 1, 72, 53
2, 51263, Control_c, 1, 64, 0
2, 51263, Note_on_c, 1, 61, 60
2, 51263, Note_on_c, 1, 60, 43
2, 51268, Note_on_c, 1, 64, 39
2, 51290, Note_on_c, 1, 61, 0
2, 51293, Note_on_c, 1, 72, 0
2, 51293, Note_on_c, 1, 64, 0
2, 51296, Note_on_c, 1, 60, 0
2, 51312, Note_on_c, 1, 61, 32
2, 51317, Note_on_c, 1, 67, 35
2, 51317, Note_on_c, 1, 57, 44
2, 51317, Note_on_c, 1, 64, 51
2, 51325, Note_on_c, 1, 57, 0
2, 51335, Control_c, 1, 64, 127
2, 51352, Note_on_c, 1, 67, 0
2, 51353, Note_on_c, 1, 64, 0
2, 51373, Note_on_c, 1, 53, 26
2, 51380, Note_on_c, 1, 61, 0
2, 51386, Note_on_c, 1, 53, 0
2, 51415, Control_c, 1, 64, 0
2, 51416, Note_on_c, 1, 68, 59
2, 51418, Note_on_c, 1, 63, 53
2, 51418, Note_on_c, 1, 53, 52
2, 51421, Note_on_c, 1, 60, 53
2, 51451, Note_on_c, 1, 53, 0
2, 51456, Note_on_c, 1, 63, 0
2, 51460, Control_c, 1, 64, 127
2, 51462, Note_on_c, 1, 60, 0
2, 51470, Note_on_c, 1, 41, 63
2, 51494, Note_on_c, 1, 68, 0
2, 51518, Note_on_c, 1, 63, 59
2, 51522, Note_on_c, 1, 56, 46
2, 51522, Note_on_c, 1, 51, 47
2, 51522, Note_on_c, 1, 60, 60
2, 51540, Note_on_c, 1, 56, 0
2, 51540, Note_on_c, 1, 41, 0
2, 51550, Note_on_c, 1, 60, 0
2, 51550, Note_on_c, 1, 51, 0
2, 51561, Note_on_c, 1, 63, 0
2, 51640, Note_on_c, 1, 63, 64
2, 51640, Note_on_c, 1, 72, 62
2, 51640, Note_on_c, 1, 68, 64
2, 51640, Note_on_c, 1, 60, 61
2, 51665, Note_on_c, 1, 72, 0
2, 51667, Note_on_c, 1, 63, 0
2, 51667, Note_on_c, 1, 60, 0
2, 51677, Note_on_c, 1, 68, 0
2, 51683, Note_on_c, 1, 63, 43
2, 51686, Note_on_c, 1, 72, 51
2, 51686, Note_on_c, 1, 68, 37
2, 51703, Note_on_c, 1, 72, 0
2, 51704, Note_on_c, 1, 63, 0
2, 51716, Note_on_c, 1, 68, 0
2, 51735, Note_on_c, 1, 67, 55
2, 51735, Note_on_c, 1, 70, 59
2, 51736, Note_on_c, 1, 56, 49
2, 51737, Note_on_c, 1, 62, 47
2, 51738, Control_c, 1, 64, 0
2, 51746, Note_on_c, 1, 46, 19
2, 51772, Note_on_c, 1, 46, 0
2, 51776, Control_c, 1, 64, 127
2, 51815, Note_on_c, 1, 67, 0
2, 51823, Note_on_c, 1, 56, 0
2, 51827, Note_on_c, 1, 62, 0
2, 51828, Note_on_c, 1, 70, 0
2, 51832, Note_on_c, 1, 46, 67
2, 51932, Control_c, 1, 64, 0
2, 51943, Note_on_c, 1, 70, 71
2, 51943, Note_on_c, 1, 67, 68
2, 51945, Note_on_c, 1, 56, 52
2, 51946, Note_on_c, 1, 62, 69
2, 51973, Note_on_c, 1, 46, 0
2, 51974, Note_on_c, 1, 62, 0
2, 51975, Control_c, 1, 64, 127
2, 51978, Note_on_c, 1, 70, 0
2, 51984, Note_on_c, 1, 67, 0
2, 51993, Note_on_c, 1, 46, 53
2, 52023, Note_on_c, 1, 56, 0
2, 52048, Note_on_c, 1, 70, 71
2, 52048, Note_on_c, 1, 62, 64
2, 52050, Note_on_c, 1, 55, 71
2, 52051, Note_on_c, 1, 65, 77
2, 52055, Control_c, 1, 64, 0
2, 52097, Control_c, 1, 64, 127
2, 52099, Note_on_c, 1, 46, 0
2, 52143, Note_on_c, 1, 46, 73
2, 52236, Note_on_c, 1, 55, 0
2, 52284, Note_on_c, 1, 62, 0
2, 52291, Note_on_c, 1, 65, 0
2, 52301, Note_on_c, 1, 55, 92
2, 52344, Note_on_c, 1, 70, 0
2, 52362, Note_on_c, 1, 65, 67
2, 52362, Note_on_c, 1, 60, 54
2, 52369, Note_on_c, 1, 60, 0
2, 52380, Note_on_c, 1, 65, 0
2, 52418, Note_on_c, 1, 46, 0
2, 52466, Note_on_c, 1, 46, 69
2, 52492, Note_on_c, 1, 55, 0
2, 52501, Note_on_c, 1, 46, 0
2, 52512, Control_c, 1, 64, 0
2, 52520, Note_on_c, 1, 81, 36
2, 52528, Note_on_c, 1, 82, 56
2, 52536, Note_on_c, 1, 81, 0
2, 52539, Note_on_c, 1, 82, 0
2, 52541, Note_on_c, 1, 83, 62
2, 52559, Note_on_c, 1, 83, 0
2, 52581, Note_on_c, 1, 86, 79
2, 52582, Note_on_c, 1, 74, 72
2, 52597, Note_on_c, 1, 74, 0
2, 52599, Note_on_c, 1, 86, 0
2, 52625, Note_on_c, 1, 86, 81
2, 52628, Control_c, 1, 64, 127
2, 52628, Note_on_c, 1, 74, 69
2, 52643, Note_on_c, 1, 74, 0
2, 52655, Note_on_c, 1, 86, 0
2, 52665, Control_c, 1, 64, 0
2, 52667, Note_on_c, 1, 81, 40
2, 52670, Note_on_c, 1, 55, 44
2, 52670, Note_on_c, 1, 45, 36
2, 52675, Note_on_c, 1, 82, 50
2, 52678, Note_on_c, 1, 55, 0
2, 52680, Note_on_c, 1, 45, 0
2, 52687, Note_on_c, 1, 81, 0
2, 52688, Note_on_c, 1, 82, 0
2, 52690, Note_on_c, 1, 83, 63
2, 52705, Note_on_c, 1, 83, 0
2, 52722, Note_on_c, 1, 86, 64
2, 52738, Note_on_c, 1, 86, 0
2, 52767, Note_on_c, 1, 86, 78
2, 52782, Control_c, 1, 64, 127
2, 52792, Note_on_c, 1, 86, 0
2, 52812, Control_c, 1, 64, 0
2, 52812, Note_on_c, 1, 64, 47
2, 52813, Note_on_c, 1, 74, 47
2, 52816, Note_on_c, 1, 60, 32
2, 52818, Note_on_c, 1, 59, 29
2, 52823, Note_on_c, 1, 64, 0
2, 52831, Note_on_c, 1, 59, 0
2, 52831, Note_on_c, 1, 60, 0
2, 52833, Note_on_c, 1, 74, 0
2, 52860, Note_on_c, 1, 74, 48
2, 52871, Note_on_c, 1, 74, 0
2, 52908, Note_on_c, 1, 86, 80
2, 52927, Control_c, 1, 64, 127
2, 52934, Note_on_c, 1, 86, 0
2, 52962, Control_c, 1, 64, 0
2, 52966, Note_on_c, 1, 87, 86
2, 52967, Note_on_c, 1, 60, 55
2, 52970, Note_on_c, 1, 54, 45
2, 52970, Note_on_c, 1, 50, 44
2, 52978, Note_on_c, 1, 60, 0
2, 52988, Note_on_c, 1, 50, 0
2, 52989, Note_on_c, 1, 87, 0
2, 53003, Note_on_c, 1, 54, 0
2, 53016, Note_on_c, 1, 87, 77
2, 53043, Note_on_c, 1, 87, 0
2, 53058, Control_c, 1, 64, 127
2, 53065, Note_on_c, 1, 75, 46
2, 53111, Note_on_c, 1, 75, 0
2, 53113, Note_on_c, 1, 65, 60
2, 53116, Note_on_c, 1, 54, 39
2, 53120, Note_on_c, 1, 60, 35
2, 53120, Note_on_c, 1, 58, 35
2, 53121, Note_on_c, 1, 65, 0
2, 53128, Note_on_c, 1, 60, 0
2, 53138, Note_on_c, 1, 58, 0
2, 53142, Note_on_c, 1, 54, 0
2, 53175, Note_on_c, 1, 83, 63
2, 53196, Note_on_c, 1, 83, 0
2, 53218, Note_on_c, 1, 86, 84
2, 53249, Note_on_c, 1, 86, 0
2, 53256, Note_on_c, 1, 43, 47
2, 53270, Note_on_c, 1, 59, 44
2, 53271, Note_on_c, 1, 57, 36
2, 53272, Note_on_c, 1, 83, 80
2, 53273, Control_c, 1, 64, 0
2, 53279, Note_on_c, 1, 57, 0
2, 53296, Note_on_c, 1, 43, 0
2, 53305, Note_on_c, 1, 59, 0
2, 53312, Note_on_c, 1, 83, 0
2, 53316, Note_on_c, 1, 78, 55
2, 53346, Note_on_c, 1, 78, 0
2, 53346, Control_c, 1, 64, 127
2, 53357, Note_on_c, 1, 74, 28
2, 53369, Note_on_c, 1, 74, 0
2, 53402, Note_on_c, 1, 74, 22
2, 53410, Note_on_c, 1, 74, 0
2, 53430, Note_on_c, 1, 78, 77
2, 53432, Control_c, 1, 64, 0
2, 53435, Note_on_c, 1, 62, 48
2, 53436, Note_on_c, 1, 59, 41
2, 53437, Note_on_c, 1, 57, 41
2, 53472, Note_on_c, 1, 62, 0
2, 53473, Note_on_c, 1, 78, 0
2, 53475, Note_on_c, 1, 74, 60
2, 53488, Note_on_c, 1, 59, 0
2, 53488, Note_on_c, 1, 57, 0
2, 53497, Note_on_c, 1, 74, 0
2, 53500, Control_c, 1, 64, 127
2, 53510, Note_on_c, 1, 75, 61
2, 53542, Note_on_c, 1, 75, 0
2, 53553, Note_on_c, 1, 76, 68
2, 53585, Control_c, 1, 64, 0
2, 53587, Note_on_c, 1, 56, 42
2, 53587, Note_on_c, 1, 62, 52
2, 53595, Note_on_c, 1, 52, 32
2, 53599, Note_on_c, 1, 76, 0
2, 53648, Note_on_c, 1, 52, 0
2, 53650, Note_on_c, 1, 82, 83
2, 53655, Control_c, 1, 64, 127
2, 53658, Note_on_c, 1, 56, 0
2, 53664, Note_on_c, 1, 62, 0
2, 53682, Note_on_c, 1, 82, 0
2, 53692, Note_on_c, 1, 79, 68
2, 53720, Note_on_c, 1, 79, 0
2, 53728, Note_on_c, 1, 80, 72
2, 53732, Note_on_c, 1, 56, 50
2, 53733, Note_on_c, 1, 62, 53
2, 53735, Note_on_c, 1, 67, 43
2, 53738, Control_c, 1, 64, 0
2, 53766, Note_on_c, 1, 82, 64
2, 53771, Note_on_c, 1, 80, 0
2, 53777, Note_on_c, 1, 67, 0
2, 53789, Note_on_c, 1, 82, 0
2, 53798, Control_c, 1, 64, 127
2, 53800, Note_on_c, 1, 83, 71
2, 53801, Note_on_c, 1, 62, 0
2, 53825, Note_on_c, 1, 83, 0
2, 53825, Note_on_c, 1, 56, 0
2, 53835, Note_on_c, 1, 84, 73
2, 53860, Note_on_c, 1, 84, 0
2, 53873, Note_on_c, 1, 88, 63
2, 53878, Control_c, 1, 64, 0
2, 53880, Note_on_c, 1, 86, 42
2, 53885, Note_on_c, 1, 64, 51
2, 53886, Note_on_c, 1, 57, 47
2, 53887, Note_on_c, 1, 86, 0
2, 53891, Note_on_c, 1, 59, 31
2, 53892, Note_on_c, 1, 60, 31
2, 53900, Note_on_c, 1, 88, 0
2, 53910, Note_on_c, 1, 64, 0
2, 53913, Note_on_c, 1, 59, 0
2, 53913, Note_on_c, 1, 91, 64
2, 53914, Note_on_c, 1, 60, 0
2, 53929, Note_on_c, 1, 57, 0
2, 53931, Note_on_c, 1, 91, 0
2, 53951, Note_on_c, 1, 95, 75
2, 53975, Control_c, 1, 64, 127
2, 53976, Note_on_c, 1, 95, 0
2, 53986, Note_on_c, 1, 86, 78
2, 53986, Note_on_c, 1, 98, 84
2, 54006, Note_on_c, 1, 86, 0
2, 54007, Note_on_c, 1, 98, 0
2, 54025, Note_on_c, 1, 97, 77
2, 54027, Note_on_c, 1, 85, 62
2, 54033, Control_c, 1, 64, 0
2, 54033, Note_on_c, 1, 55, 57
2, 54036, Note_on_c, 1, 52, 42
2, 54038, Note_on_c, 1, 45, 43
2, 54054, Note_on_c, 1, 85, 0
2, 54055, Note_on_c, 1, 97, 0
2, 54067, Note_on_c, 1, 96, 71
2, 54071, Note_on_c, 1, 84, 40
2, 54083, Control_c, 1, 64, 127
2, 54086, Note_on_c, 1, 45, 0
2, 54089, Note_on_c, 1, 96, 0
2, 54089, Note_on_c, 1, 84, 0
2, 54091, Note_on_c, 1, 52, 0
2, 54104, Note_on_c, 1, 55, 0
2, 54107, Note_on_c, 1, 95, 69
2, 54112, Note_on_c, 1, 83, 52
2, 54120, Note_on_c, 1, 83, 0
2, 54125, Note_on_c, 1, 95, 0
2, 54126, Note_on_c, 1, 94, 37
2, 54132, Note_on_c, 1, 94, 0
2, 54146, Note_on_c, 1, 82, 45
2, 54146, Note_on_c, 1, 94, 52
2, 54166, Note_on_c, 1, 94, 0
2, 54167, Note_on_c, 1, 82, 0
2, 54182, Note_on_c, 1, 93, 72
2, 54183, Note_on_c, 1, 81, 58
2, 54190, Note_on_c, 1, 92, 34
2, 54200, Note_on_c, 1, 93, 0
2, 54202, Control_c, 1, 64, 0
2, 54203, Note_on_c, 1, 92, 0
2, 54205, Note_on_c, 1, 81, 0
2, 54205, Note_on_c, 1, 60, 40
2, 54211, Note_on_c, 1, 54, 42
2, 54211, Note_on_c, 1, 50, 34
2, 54216, Note_on_c, 1, 57, 32
2, 54230, Note_on_c, 1, 80, 57
2, 54231, Note_on_c, 1, 92, 55
2, 54240, Control_c, 1, 64, 127
2, 54257, Note_on_c, 1, 57, 0
2, 54259, Note_on_c, 1, 50, 0
2, 54269, Note_on_c, 1, 54, 0
2, 54276, Note_on_c, 1, 60, 0
2, 54375, Note_on_c, 1, 54, 40
2, 54377, Note_on_c, 1, 62, 42
2, 54380, Note_on_c, 1, 60, 32
2, 54384, Note_on_c, 1, 62, 0
2, 54386, Note_on_c, 1, 92, 0
2, 54388, Note_on_c, 1, 60, 0
2, 54401, Note_on_c, 1, 80, 0
2, 54402, Note_on_c, 1, 54, 0
2, 54432, Note_on_c, 1, 93, 55
2, 54435, Note_on_c, 1, 81, 58
2, 54451, Note_on_c, 1, 81, 0
2, 54454, Note_on_c, 1, 93, 0
2, 54478, Note_on_c, 1, 94, 70
2, 54480, Note_on_c, 1, 43, 71
2, 54480, Note_on_c, 1, 82, 71
2, 54491, Note_on_c, 1, 50, 46
2, 54497, Note_on_c, 1, 82, 0
2, 54503, Note_on_c, 1, 94, 0
2, 54518, Control_c, 1, 64, 0
2, 54521, Note_on_c, 1, 82, 46
2, 54522, Note_on_c, 1, 94, 28
2, 54523, Note_on_c, 1, 59, 43
2, 54526, Note_on_c, 1, 95, 78
2, 54527, Note_on_c, 1, 83, 80
2, 54528, Note_on_c, 1, 82, 0
2, 54532, Note_on_c, 1, 43, 0
2, 54539, Note_on_c, 1, 94, 0
2, 54543, Note_on_c, 1, 83, 0
2, 54549, Note_on_c, 1, 95, 0
2, 54556, Note_on_c, 1, 50, 0
2, 54566, Note_on_c, 1, 59, 0
2, 54575, Note_on_c, 1, 85, 67
2, 54575, Note_on_c, 1, 97, 73
2, 54595, Note_on_c, 1, 97, 0
2, 54597, Note_on_c, 1, 98, 60
2, 54598, Note_on_c, 1, 85, 0
2, 54600, Note_on_c, 1, 86, 75
2, 54605, Note_on_c, 1, 96, 36
2, 54611, Control_c, 1, 64, 127
2, 54615, Note_on_c, 1, 96, 0
2, 54615, Note_on_c, 1, 98, 0
2, 54618, Note_on_c, 1, 86, 0
2, 54670, Note_on_c, 1, 85, 58
2, 54675, Note_on_c, 1, 98, 77
2, 54675, Note_on_c, 1, 97, 27
2, 54677, Note_on_c, 1, 62, 58
2, 54677, Note_on_c, 1, 86, 82
2, 54678, Note_on_c, 1, 85, 0
2, 54678, Note_on_c, 1, 59, 51
2, 54682, Note_on_c, 1, 97, 0
2, 54685, Control_c, 1, 64, 0
2, 54686, Note_on_c, 1, 57, 36
2, 54714, Note_on_c, 1, 62, 0
2, 54723, Note_on_c, 1, 59, 0
2, 54729, Note_on_c, 1, 57, 0
2, 54733, Control_c, 1, 64, 127
2, 54734, Note_on_c, 1, 86, 0
2, 54735, Note_on_c, 1, 98, 0
2, 54778, Note_on_c, 1, 98, 66
2, 54780, Note_on_c, 1, 86, 73
2, 54788, Note_on_c, 1, 98, 0
2, 54796, Note_on_c, 1, 86, 0
2, 54830, Note_on_c, 1, 54, 77
2, 54833, Control_c, 1, 64, 0
2, 54851, Control_c, 1, 64, 127
2, 54907, Note_on_c, 1, 54, 0
2, 54940, Note_on_c, 1, 50, 55
2, 54983, Note_on_c, 1, 50, 0
2, 54995, Note_on_c, 1, 57, 58
2, 54996, Control_c, 1, 64, 0
2, 54997, Note_on_c, 1, 62, 56
2, 54997, Note_on_c, 1, 52, 50
2, 54998, Note_on_c, 1, 66, 37
2, 54998, Note_on_c, 1, 59, 57
2, 55030, Control_c, 1, 64, 127
2, 55048, Note_on_c, 1, 62, 0
2, 55050, Note_on_c, 1, 52, 0
2, 55051, Note_on_c, 1, 57, 0
2, 55051, Note_on_c, 1, 66, 0
2, 55051, Note_on_c, 1, 59, 0
2, 55101, Note_on_c, 1, 57, 53
2, 55105, Note_on_c, 1, 48, 45
2, 55143, Note_on_c, 1, 48, 0
2, 55143, Control_c, 1, 64, 0
2, 55144, Note_on_c, 1, 57, 0
2, 55158, Note_on_c, 1, 41, 53
2, 55161, Note_on_c, 1, 56, 51
2, 55172, Control_c, 1, 64, 127
2, 55176, Note_on_c, 1, 56, 0
2, 55181, Note_on_c, 1, 41, 0
2, 55267, Note_on_c, 1, 77, 83
2, 55267, Note_on_c, 1, 72, 94
2, 55300, Note_on_c, 1, 77, 0
2, 55310, Note_on_c, 1, 72, 0
2, 55325, Note_on_c, 1, 72, 78
2, 55326, Note_on_c, 1, 68, 77
2, 55327, Note_on_c, 1, 79, 88
2, 55328, Control_c, 1, 64, 0
2, 55328, Note_on_c, 1, 78, 20
2, 55328, Note_on_c, 1, 64, 74
2, 55335, Note_on_c, 1, 78, 0
2, 55373, Note_on_c, 1, 63, 63
2, 55373, Note_on_c, 1, 78, 5
2, 55374, Note_on_c, 1, 79, 0
2, 55374, Note_on_c, 1, 64, 0
2, 55378, Note_on_c, 1, 72, 0
2, 55383, Note_on_c, 1, 68, 0
2, 55390, Note_on_c, 1, 78, 0
2, 55403, Note_on_c, 1, 63, 0
2, 55411, Control_c, 1, 64, 127
2, 55415, Note_on_c, 1, 78, 67
2, 55416, Note_on_c, 1, 62, 64
2, 55417, Note_on_c, 1, 68, 67
2, 55428, Note_on_c, 1, 72, 39
2, 55435, Control_c, 1, 64, 0
2, 55446, Note_on_c, 1, 72, 0
2, 55448, Note_on_c, 1, 78, 0
2, 55457, Note_on_c, 1, 68, 0
2, 55461, Note_on_c, 1, 62, 0
2, 55461, Note_on_c, 1, 61, 55
2, 55462, Control_c, 1, 64, 127
2, 55487, Control_c, 1, 64, 0
2, 55494, Note_on_c, 1, 61, 0
2, 55496, Note_on_c, 1, 68, 44
2, 55497, Note_on_c, 1, 76, 64
2, 55500, Note_on_c, 1, 65, 46
2, 55503, Note_on_c, 1, 60, 57
2, 55518, Control_c, 1, 64, 127
2, 55522, Note_on_c, 1, 76, 0
2, 55527, Note_on_c, 1, 68, 0
2, 55535, Note_on_c, 1, 65, 0
2, 55549, Note_on_c, 1, 60, 0
2, 55555, Note_on_c, 1, 65, 58
2, 55555, Note_on_c, 1, 72, 64
2, 55557, Note_on_c, 1, 56, 50
2, 55612, Note_on_c, 1, 65, 0
2, 55640, Note_on_c, 1, 72, 0
2, 55645, Note_on_c, 1, 56, 0
2, 55653, Note_on_c, 1, 68, 48
2, 55653, Note_on_c, 1, 53, 54
2, 55658, Note_on_c, 1, 65, 48
2, 55660, Note_on_c, 1, 60, 29
2, 55661, Note_on_c, 1, 53, 0
2, 55720, Control_c, 1, 64, 0
2, 55727, Control_c, 1, 64, 127
2, 55730, Control_c, 1, 64, 0
2, 55731, Note_on_c, 1, 60, 0
2, 55731, Control_c, 1, 64, 127
2, 55735, Note_on_c, 1, 65, 0
2, 55743, Note_on_c, 1, 68, 0
2, 55760, Note_on_c, 1, 50, 39
2, 55762, Note_on_c, 1, 48, 37
2, 55770, Note_on_c, 1, 48, 0
2, 55772, Note_on_c, 1, 50, 0
2, 55807, Control_c, 1, 64, 0
2, 55810, Note_on_c, 1, 74, 71
2, 55812, Note_on_c, 1, 48, 57
2, 55812, Note_on_c, 1, 63, 50
2, 55813, Note_on_c, 1, 67, 59
2, 55813, Note_on_c, 1, 36, 48
2, 55829, Note_on_c, 1, 36, 0
2, 55838, Note_on_c, 1, 48, 0
2, 55840, Control_c, 1, 64, 127
2, 55915, Note_on_c, 1, 60, 99
2, 55930, Note_on_c, 1, 67, 0
2, 55933, Note_on_c, 1, 63, 0
2, 55945, Note_on_c, 1, 74, 0
2, 55967, Note_on_c, 1, 63, 50
2, 55968, Note_on_c, 1, 74, 51
2, 55971, Note_on_c, 1, 67, 55
2, 55972, Control_c, 1, 64, 0
2, 55997, Note_on_c, 1, 60, 0
2, 56017, Note_on_c, 1, 59, 65
2, 56038, Note_on_c, 1, 59, 0
2, 56066, Note_on_c, 1, 62, 96
2, 56093, Note_on_c, 1, 63, 0
2, 56095, Note_on_c, 1, 74, 0
2, 56098, Note_on_c, 1, 67, 0
2, 56111, Note_on_c, 1, 63, 35
2, 56113, Note_on_c, 1, 74, 63
2, 56120, Note_on_c, 1, 67, 35
2, 56148, Note_on_c, 1, 62, 0
2, 56160, Note_on_c, 1, 60, 87
2, 56161, Note_on_c, 1, 67, 0
2, 56172, Note_on_c, 1, 63, 0
2, 56201, Control_c, 1, 64, 127
2, 56255, Note_on_c, 1, 60, 0
2, 56258, Note_on_c, 1, 63, 53
2, 56260, Note_on_c, 1, 67, 62
2, 56265, Note_on_c, 1, 74, 0
2, 56266, Note_on_c, 1, 59, 49
2, 56277, Note_on_c, 1, 59, 0
2, 56282, Note_on_c, 1, 67, 0
2, 56291, Note_on_c, 1, 63, 0
2, 56306, Note_on_c, 1, 49, 62
2, 56312, Note_on_c, 1, 49, 0
2, 56325, Note_on_c, 1, 48, 19
2, 56333, Note_on_c, 1, 48, 0
2, 56356, Note_on_c, 1, 42, 50
2, 56356, Note_on_c, 1, 57, 55
2, 56360, Note_on_c, 1, 52, 45
2, 56378, Note_on_c, 1, 52, 0
2, 56396, Note_on_c, 1, 42, 0
2, 56404, Note_on_c, 1, 57, 0
2, 56405, Control_c, 1, 64, 0
2, 56412, Note_on_c, 1, 56, 57
2, 56413, Note_on_c, 1, 41, 62
2, 56415, Note_on_c, 1, 51, 50
2, 56437, Control_c, 1, 64, 127
2, 56454, Note_on_c, 1, 41, 0
2, 56457, Note_on_c, 1, 56, 0
2, 56468, Note_on_c, 1, 51, 0
2, 56553, Note_on_c, 1, 58, 50
2, 56566, Note_on_c, 1, 61, 47
2, 56574, Note_on_c, 1, 58, 0
2, 56577, Note_on_c, 1, 74, 80
2, 56577, Note_on_c, 1, 68, 81
2, 56578, Note_on_c, 1, 62, 82
2, 56580, Control_c, 1, 64, 0
2, 56580, Note_on_c, 1, 65, 76
2, 56582, Note_on_c, 1, 61, 0
2, 56585, Note_on_c, 1, 60, 45
2, 56591, Note_on_c, 1, 60, 0
2, 56611, Control_c, 1, 64, 127
2, 56619, Note_on_c, 1, 74, 0
2, 56619, Note_on_c, 1, 68, 0
2, 56620, Note_on_c, 1, 62, 0
2, 56626, Note_on_c, 1, 65, 0
2, 56647, Control_c, 1, 64, 0
2, 56666, Note_on_c, 1, 60, 67
2, 56668, Note_on_c, 1, 72, 70
2, 56668, Note_on_c, 1, 65, 71
2, 56673, Control_c, 1, 64, 127
2, 56703, Note_on_c, 1, 65, 0
2, 56711, Note_on_c, 1, 60, 0
2, 56714, Note_on_c, 1, 72, 0
2, 56730, Note_on_c, 1, 70, 60
2, 56730, Note_on_c, 1, 65, 53
2, 56731, Note_on_c, 1, 56, 53
2, 56731, Note_on_c, 1, 62, 50
2, 56732, Control_c, 1, 64, 0
2, 56747, Note_on_c, 1, 56, 0
2, 56752, Note_on_c, 1, 65, 0
2, 56753, Note_on_c, 1, 62, 0
2, 56761, Note_on_c, 1, 70, 0
2, 56826, Control_c, 1, 64, 127
2, 56827, Note_on_c, 1, 56, 49
2, 56827, Note_on_c, 1, 68, 51
2, 56830, Note_on_c, 1, 62, 50
2, 56831, Note_on_c, 1, 65, 49
2, 56857, Note_on_c, 1, 56, 0
2, 56858, Control_c, 1, 64, 0
2, 56859, Note_on_c, 1, 68, 0
2, 56867, Note_on_c, 1, 65, 0
2, 56880, Note_on_c, 1, 67, 47
2, 56890, Note_on_c, 1, 62, 0
2, 56903, Note_on_c, 1, 67, 0
2, 56925, Control_c, 1, 64, 127
2, 56932, Note_on_c, 1, 44, 45
2, 56945, Note_on_c, 1, 44, 0
2, 57016, Note_on_c, 1, 73, 27
2, 57023, Note_on_c, 1, 73, 0
2, 57053, Note_on_c, 1, 72, 84
2, 57055, Note_on_c, 1, 65, 85
2, 57055, Note_on_c, 1, 49, 74
2, 57061, Control_c, 1, 64, 0
2, 57101, Control_c, 1, 64, 127
2, 57152, Note_on_c, 1, 65, 0
2, 57194, Note_on_c, 1, 72, 0
2, 57217, Note_on_c, 1, 61, 48
2, 57217, Note_on_c, 1, 65, 62
2, 57218, Note_on_c, 1, 59, 41
2, 57261, Note_on_c, 1, 59, 0
2, 57299, Note_on_c, 1, 65, 0
2, 57304, Note_on_c, 1, 61, 0
2, 57313, Note_on_c, 1, 49, 0
2, 57377, Note_on_c, 1, 58, 35
2, 57378, Note_on_c, 1, 64, 53
2, 57380, Control_c, 1, 64, 0
2, 57380, Note_on_c, 1, 60, 45
2, 57381, Note_on_c, 1, 48, 42
2, 57413, Control_c, 1, 64, 127
2, 57419, Note_on_c, 1, 48, 0
2, 57419, Note_on_c, 1, 58, 0
2, 57441, Note_on_c, 1, 64, 0
2, 57455, Note_on_c, 1, 60, 0
2, 57511, Note_on_c, 1, 42, 60
2, 57540, Note_on_c, 1, 57, 90
2, 57545, Note_on_c, 1, 52, 61
2, 57547, Control_c, 1, 64, 0
2, 57592, Control_c, 1, 64, 127
2, 57648, Note_on_c, 1, 52, 0
2, 57656, Note_on_c, 1, 57, 0
2, 57658, Note_on_c, 1, 48, 29
2, 57659, Note_on_c, 1, 42, 0
2, 57683, Note_on_c, 1, 48, 0
2, 57698, Note_on_c, 1, 56, 61
2, 57698, Note_on_c, 1, 41, 50
2, 57700, Control_c, 1, 64, 0
2, 57700, Note_on_c, 1, 51, 33
2, 57722, Control_c, 1, 64, 127
2, 57724, Note_on_c, 1, 41, 0
2, 57726, Note_on_c, 1, 56, 0
2, 57742, Note_on_c, 1, 51, 0
2, 57807, Note_on_c, 1, 70, 85
2, 57807, Note_on_c, 1, 67, 95
2, 57850, Control_c, 1, 64, 0
2, 57851, Note_on_c, 1, 63, 46
2, 57851, Note_on_c, 1, 56, 37
2, 57853, Note_on_c, 1, 60, 40
2, 57880, Control_c, 1, 64, 127
2, 57887, Note_on_c, 1, 67, 0
2, 57888, Note_on_c, 1, 70, 0
2, 57898, Note_on_c, 1, 68, 69
2, 57904, Note_on_c, 1, 60, 0
2, 57906, Note_on_c, 1, 63, 0
2, 57913, Note_on_c, 1, 56, 0
2, 57933, Note_on_c, 1, 68, 0
2, 57990, Note_on_c, 1, 58, 53
2, 58002, Note_on_c, 1, 59, 69
2, 58011, Note_on_c, 1, 58, 0
2, 58015, Control_c, 1, 64, 0
2, 58018, Note_on_c, 1, 75, 73
2, 58018, Note_on_c, 1, 68, 81
2, 58021, Note_on_c, 1, 72, 73
2, 58021, Note_on_c, 1, 65, 83
2, 58021, Note_on_c, 1, 60, 83
2, 58030, Note_on_c, 1, 59, 0
2, 58045, Control_c, 1, 64, 127
2, 58048, Note_on_c, 1, 72, 0
2, 58048, Note_on_c, 1, 75, 0
2, 58058, Note_on_c, 1, 68, 0
2, 58059, Note_on_c, 1, 65, 0
2, 58097, Note_on_c, 1, 60, 0
2, 58110, Note_on_c, 1, 56, 59
2, 58111, Note_on_c, 1, 72, 76
2, 58112, Note_on_c, 1, 65, 78
2, 58115, Note_on_c, 1, 68, 55
2, 58146, Note_on_c, 1, 68, 0
2, 58154, Note_on_c, 1, 65, 0
2, 58171, Note_on_c, 1, 72, 0
2, 58185, Control_c, 1, 64, 0
2, 58197, Note_on_c, 1, 68, 58
2, 58198, Note_on_c, 1, 56, 0
2, 58200, Note_on_c, 1, 53, 62
2, 58202, Note_on_c, 1, 65, 53
2, 58203, Note_on_c, 1, 60, 35
2, 58215, Control_c, 1, 64, 127
2, 58216, Note_on_c, 1, 60, 0
2, 58228, Note_on_c, 1, 65, 0
2, 58234, Note_on_c, 1, 68, 0
2, 58275, Note_on_c, 1, 53, 0
2, 58282, Note_on_c, 1, 56, 57
2, 58288, Note_on_c, 1, 65, 61
2, 58290, Note_on_c, 1, 68, 54
2, 58290, Note_on_c, 1, 72, 64
2, 58291, Note_on_c, 1, 60, 49
2, 58299, Note_on_c, 1, 56, 0
2, 58308, Note_on_c, 1, 72, 0
2, 58310, Note_on_c, 1, 65, 0
2, 58312, Note_on_c, 1, 68, 0
2, 58314, Note_on_c, 1, 60, 0
2, 58491, Note_on_c, 1, 34, 77
2, 58491, Note_on_c, 1, 22, 67
2, 58491, Note_on_c, 1, 67, 82
2, 58491, Note_on_c, 1, 59, 87
2, 58492, Note_on_c, 1, 55, 90
2, 58492, Note_on_c, 1, 62, 77
2, 58497, Control_c, 1, 64, 0
2, 58532, Control_c, 1, 64, 127
2, 58537, Note_on_c, 1, 22, 0
2, 58544, Note_on_c, 1, 34, 0
2, 58575, Note_on_c, 1, 55, 0
2, 58587, Note_on_c, 1, 59, 0
2, 58590, Note_on_c, 1, 62, 0
2, 58603, Note_on_c, 1, 67, 0
2, 58622, Note_on_c, 1, 46, 77
2, 58723, Note_on_c, 1, 67, 70
2, 58725, Note_on_c, 1, 62, 77
2, 58726, Note_on_c, 1, 59, 70
2, 58727, Note_on_c, 1, 56, 62
2, 58737, Note_on_c, 1, 46, 0
2, 58738, Note_on_c, 1, 59, 0
2, 58743, Note_on_c, 1, 56, 0
2, 58747, Note_on_c, 1, 62, 0
2, 58751, Note_on_c, 1, 67, 0
2, 58835, Note_on_c, 1, 74, 77
2, 58835, Note_on_c, 1, 79, 74
2, 58836, Note_on_c, 1, 71, 66
2, 58837, Note_on_c, 1, 56, 60
2, 58838, Note_on_c, 1, 62, 40
2, 58852, Note_on_c, 1, 71, 0
2, 58866, Note_on_c, 1, 74, 0
2, 58869, Note_on_c, 1, 62, 0
2, 58872, Note_on_c, 1, 79, 0
2, 58948, Note_on_c, 1, 79, 63
2, 58948, Note_on_c, 1, 86, 71
2, 58950, Note_on_c, 1, 83, 60
2, 58951, Note_on_c, 1, 74, 66
2, 58953, Note_on_c, 1, 67, 56
2, 58955, Note_on_c, 1, 62, 55
2, 58967, Note_on_c, 1, 74, 0
2, 58971, Note_on_c, 1, 67, 0
2, 58973, Note_on_c, 1, 79, 0
2, 58981, Note_on_c, 1, 83, 0
2, 58983, Note_on_c, 1, 56, 0
2, 58985, Note_on_c, 1, 86, 0
2, 59006, Note_on_c, 1, 62, 0
2, 59097, Note_on_c, 1, 91, 50
2, 59100, Note_on_c, 1, 83, 46
2, 59100, Note_on_c, 1, 86, 57
2, 59106, Note_on_c, 1, 67, 49
2, 59106, Note_on_c, 1, 56, 38
2, 59107, Note_on_c, 1, 62, 47
2, 59126, Note_on_c, 1, 67, 0
2, 59133, Note_on_c, 1, 91, 0
2, 59135, Note_on_c, 1, 62, 0
2, 59143, Note_on_c, 1, 86, 0
2, 59145, Note_on_c, 1, 83, 0
2, 59166, Note_on_c, 1, 56, 0
2, 59436, Note_on_c, 1, 46, 71
2, 59493, Note_on_c, 1, 50, 67
2, 59518, Note_on_c, 1, 61, 68
2, 59521, Note_on_c, 1, 56, 74
2, 59523, Note_on_c, 1, 66, 77
2, 59533, Note_on_c, 1, 70, 69
2, 59901, Note_on_c, 1, 70, 0
2, 59948, Note_on_c, 1, 70, 52
2, 59984, Note_on_c, 1, 56, 0
2, 59999, Note_on_c, 1, 50, 0
2, 60026, Note_on_c, 1, 61, 0
2, 60033, Note_on_c, 1, 46, 0
2, 60051, Note_on_c, 1, 66, 0
2, 60071, Note_on_c, 1, 70, 0
2, 60125, Note_on_c, 1, 70, 48
2, 60127, Control_c, 1, 64, 0
2, 60127, Note_on_c, 1, 60, 37
2, 60128, Note_on_c, 1, 65, 58
2, 60131, Note_on_c, 1, 39, 43
2, 60144, Note_on_c, 1, 60, 0
2, 60153, Control_c, 1, 64, 127
2, 60156, Note_on_c, 1, 65, 0
2, 60172, Note_on_c, 1, 70, 0
2, 60189, Note_on_c, 1, 39, 0
2, 60192, Note_on_c, 1, 46, 48
2, 60230, Note_on_c, 1, 46, 0
2, 60248, Note_on_c, 1, 77, 58
2, 60248, Note_on_c, 1, 55, 54
2, 60252, Note_on_c, 1, 72, 36
2, 60303, Note_on_c, 1, 55, 0
2, 60306, Note_on_c, 1, 77, 0
2, 60307, Note_on_c, 1, 58, 46
2, 60308, Note_on_c, 1, 82, 54
2, 60324, Note_on_c, 1, 72, 0
2, 60358, Note_on_c, 1, 82, 0
2, 60376, Note_on_c, 1, 62, 46
2, 60380, Note_on_c, 1, 77, 49
2, 60380, Note_on_c, 1, 72, 31
2, 60436, Note_on_c, 1, 62, 0
2, 60445, Note_on_c, 1, 82, 49
2, 60445, Note_on_c, 1, 67, 33
2, 60452, Note_on_c, 1, 77, 0
2, 60521, Note_on_c, 1, 77, 43
2, 60523, Note_on_c, 1, 62, 39
2, 60625, Note_on_c, 1, 67, 0
2, 60636, Note_on_c, 1, 62, 0
2, 60654, Note_on_c, 1, 58, 0
2, 60657, Note_on_c, 1, 82, 0
2, 60658, Note_on_c, 1, 77, 0
2, 60665, Note_on_c, 1, 72, 0
2, 60726, Note_on_c, 1, 40, 66
2, 60735, Control_c, 1, 64, 0
2, 60761, Control_c, 1, 64, 127
2, 60778, Note_on_c, 1, 47, 57
2, 60836, Note_on_c, 1, 63, 61
2, 60837, Note_on_c, 1, 58, 52
2, 60840, Note_on_c, 1, 47, 0
2, 60840, Note_on_c, 1, 52, 48
2, 60892, Note_on_c, 1, 68, 60
2, 60900, Note_on_c, 1, 47, 47
2, 60902, Note_on_c, 1, 58, 0
2, 60905, Note_on_c, 1, 52, 0
2, 60906, Note_on_c, 1, 63, 0
2, 60914, Note_on_c, 1, 68, 0
2, 60965, Note_on_c, 1, 63, 49
2, 60966, Note_on_c, 1, 68, 59
2, 60966, Note_on_c, 1, 52, 49
2, 60967, Note_on_c, 1, 47, 0
2, 61020, Note_on_c, 1, 63, 0
2, 61023, Note_on_c, 1, 68, 0
2, 61030, Note_on_c, 1, 73, 67
2, 61036, Note_on_c, 1, 47, 37
2, 61061, Note_on_c, 1, 47, 0
2, 61080, Note_on_c, 1, 73, 0
2, 61113, Note_on_c, 1, 63, 43
2, 61115, Note_on_c, 1, 68, 57
2, 61183, Note_on_c, 1, 63, 0
2, 61185, Note_on_c, 1, 68, 0
2, 61185, Note_on_c, 1, 47, 44
2, 61193, Note_on_c, 1, 40, 0
2, 61194, Note_on_c, 1, 52, 0
2, 61217, Note_on_c, 1, 47, 0
2, 61251, Note_on_c, 1, 60, 45
2, 61252, Note_on_c, 1, 39, 45
2, 61253, Note_on_c, 1, 65, 51
2, 61258, Control_c, 1, 64, 0
2, 61289, Note_on_c, 1, 60, 0
2, 61292, Control_c, 1, 64, 127
2, 61300, Note_on_c, 1, 70, 64
2, 61301, Note_on_c, 1, 65, 0
2, 61302, Note_on_c, 1, 39, 0
2, 61302, Note_on_c, 1, 46, 46
2, 61316, Note_on_c, 1, 70, 0
2, 61350, Note_on_c, 1, 72, 63
2, 61351, Note_on_c, 1, 77, 60
2, 61353, Note_on_c, 1, 55, 50
2, 61355, Note_on_c, 1, 46, 0
2, 61387, Note_on_c, 1, 72, 0
2, 61401, Note_on_c, 1, 77, 0
2, 61401, Note_on_c, 1, 82, 65
2, 61402, Note_on_c, 1, 58, 48
2, 61410, Note_on_c, 1, 55, 0
2, 61414, Note_on_c, 1, 82, 0
2, 61451, Note_on_c, 1, 62, 66
2, 61455, Note_on_c, 1, 84, 51
2, 61460, Note_on_c, 1, 88, 40
2, 61493, Note_on_c, 1, 62, 0
2, 61497, Note_on_c, 1, 88, 0
2, 61503, Note_on_c, 1, 94, 67
2, 61506, Note_on_c, 1, 67, 48
2, 61537, Note_on_c, 1, 84, 0
2, 61547, Note_on_c, 1, 67, 0
2, 61555, Note_on_c, 1, 94, 0
2, 61557, Note_on_c, 1, 89, 71
2, 61560, Note_on_c, 1, 58, 0
2, 61560, Note_on_c, 1, 62, 61
2, 61560, Note_on_c, 1, 84, 55
2, 61569, Note_on_c, 1, 89, 0
2, 61571, Note_on_c, 1, 84, 0
2, 61613, Note_on_c, 1, 58, 51
2, 61617, Note_on_c, 1, 62, 0
2, 61628, Note_on_c, 1, 58, 0
2, 61682, Note_on_c, 1, 68, 59
2, 61683, Note_on_c, 1, 61, 51
2, 61692, Note_on_c, 1, 40, 60
2, 61695, Control_c, 1, 64, 0
2, 61738, Note_on_c, 1, 61, 0
2, 61741, Control_c, 1, 64, 127
2, 61742, Note_on_c, 1, 73, 59
2, 61748, Note_on_c, 1, 68, 0
2, 61751, Note_on_c, 1, 47, 47
2, 61760, Note_on_c, 1, 73, 0
2, 61815, Note_on_c, 1, 68, 48
2, 61815, Note_on_c, 1, 59, 51
2, 61816, Note_on_c, 1, 47, 0
2, 61817, Note_on_c, 1, 63, 55
2, 61818, Note_on_c, 1, 52, 52
2, 61883, Note_on_c, 1, 52, 0
2, 61885, Note_on_c, 1, 47, 44
2, 61890, Note_on_c, 1, 68, 0
2, 61892, Note_on_c, 1, 63, 0
2, 61895, Note_on_c, 1, 59, 0
2, 61962, Note_on_c, 1, 59, 51
2, 61962, Note_on_c, 1, 56, 39
2, 61963, Note_on_c, 1, 52, 36
2, 61965, Note_on_c, 1, 63, 49
2, 61967, Control_c, 1, 64, 0
2, 61977, Note_on_c, 1, 47, 0
2, 61991, Note_on_c, 1, 63, 0
2, 61993, Control_c, 1, 64, 127
2, 62000, Note_on_c, 1, 59, 0
2, 62009, Note_on_c, 1, 56, 0
2, 62023, Note_on_c, 1, 47, 38
2, 62024, Note_on_c, 1, 52, 0
2, 62030, Note_on_c, 1, 67, 29
2, 62037, Note_on_c, 1, 67, 0
2, 62100, Note_on_c, 1, 47, 0
2, 62103, Note_on_c, 1, 54, 34
2, 62103, Note_on_c, 1, 52, 31
2, 62105, Note_on_c, 1, 63, 37
2, 62106, Note_on_c, 1, 59, 38
2, 62176, Note_on_c, 1, 52, 0
2, 62187, Note_on_c, 1, 47, 43
2, 62198, Note_on_c, 1, 54, 0
2, 62204, Note_on_c, 1, 59, 0
2, 62210, Note_on_c, 1, 47, 0
2, 62212, Note_on_c, 1, 40, 0
2, 62223, Note_on_c, 1, 63, 0
2, 62313, Note_on_c, 1, 39, 80
2, 62318, Control_c, 1, 64, 0
2, 62347, Control_c, 1, 64, 127
2, 62391, Note_on_c, 1, 46, 59
2, 62396, Note_on_c, 1, 39, 0
2, 62453, Note_on_c, 1, 55, 71
2, 62505, Note_on_c, 1, 59, 65
2, 62546, Note_on_c, 1, 59, 0
2, 62561, Note_on_c, 1, 62, 62
2, 62597, Note_on_c, 1, 62, 0
2, 62610, Note_on_c, 1, 67, 62
2, 62626, Note_on_c, 1, 67, 0
2, 62666, Note_on_c, 1, 71, 52
2, 62682, Note_on_c, 1, 71, 0
2, 62716, Note_on_c, 1, 74, 58
2, 62726, Note_on_c, 1, 74, 0
2, 62770, Note_on_c, 1, 79, 62
2, 62782, Note_on_c, 1, 79, 0
2, 62885, Note_on_c, 1, 86, 57
2, 62901, Note_on_c, 1, 86, 0
2, 62950, Note_on_c, 1, 91, 38
2, 62965, Note_on_c, 1, 91, 0
2, 63007, Note_on_c, 1, 95, 57
2, 63023, Note_on_c, 1, 95, 0
2, 63065, Note_on_c, 1, 98, 50
2, 63126, Note_on_c, 1, 103, 61
2, 63138, Note_on_c, 1, 55, 0
2, 63152, Note_on_c, 1, 46, 0
2, 63268, Note_on_c, 1, 27, 47
2, 63419, Note_on_c, 1, 27, 0
2, 63422, Note_on_c, 1, 103, 0
2, 63425, Note_on_c, 1, 98, 0
2, 63763, Control_c, 1, 64, 0
2, 63763, End_track
3, 0, Start_track
3, 0, MIDI_port, 0
3, 0, Control_c, 0, 7, 100
3, 0, End_track
4, 0, Start_track
4, 0, MIDI_port, 0
4, 0, Control_c, 0, 7, 100
4, 0, End_track
5, 0, Start_track
5, 0, MIDI_port, 0
5, 0, Control_c, 0, 7, 100
5, 0, End_track
6, 0, Start_track
6, 0, MIDI_port, 0
6, 0, Control_c, 0, 7, 100
6, 0, End_track
7, 0, Start_track
7, 0, MIDI_port, 0
7, 0, Control_c, 0, 7, 100
7, 0, End_track
8, 0, Start_track
8, 0, MIDI_port, 0
8, 0, Control_c, 0, 7, 100
8, 0, End_track
0, 0, End_of_file
