0, 0, Header, 1, 11, 384
1, 0, Start_track
1, 0, Title_t, "GoodBait"
1, 0, Title_t, "Good Bait"
1, 0, Text_t, "Sequenced by Doug McKenzie dougmck@pipeline.com.au\012"
1, 0, Text_t, "Guitar - basically just 3rds and 7ths (Guidetones)\012"
1, 0, Text_t, "Track 3\012"
1, 0, Text_t, "Track 4\012"
1, 0, Text_t, "Drums -Brushes\012"
1, 0, Text_t, "Kontakt 1 Primary Out\012"
1, 0, System_exclusive, 5, 126, 127, 9, 1, 247
1, 1, System_exclusive, 8, 67, 16, 76, 0, 0, 126, 0, 247
1, 1, System_exclusive, 8, 67, 16, 76, 8, 15, 0, 1, 247
1, 1, System_exclusive, 8, 67, 16, 76, 8, 14, 0, 1, 247
1, 1, System_exclusive, 8, 67, 16, 76, 8, 13, 0, 1, 247
1, 1, System_exclusive, 8, 67, 16, 76, 8, 12, 0, 1, 247
1, 1, System_exclusive, 8, 67, 16, 76, 8, 11, 0, 1, 247
1, 1, System_exclusive, 8, 67, 16, 76, 8, 10, 0, 1, 247
1, 1, System_exclusive, 8, 67, 16, 76, 8, 9, 0, 0, 247
1, 1, System_exclusive, 8, 67, 16, 76, 8, 8, 0, 1, 247
1, 1, System_exclusive, 8, 67, 16, 76, 8, 7, 0, 1, 247
1, 1, System_exclusive, 8, 67, 16, 76, 8, 6, 0, 1, 247
1, 1, System_exclusive, 8, 67, 16, 76, 8, 5, 0, 1, 247
1, 1, System_exclusive, 8, 67, 16, 76, 8, 4, 0, 2, 247
1, 1, System_exclusive, 8, 67, 16, 76, 8, 3, 0, 2, 247
1, 1, System_exclusive, 8, 67, 16, 76, 8, 2, 0, 4, 247
1, 1, System_exclusive, 8, 67, 16, 76, 8, 1, 0, 4, 247
1, 1, System_exclusive, 8, 67, 16, 76, 8, 0, 0, 8, 247
1, 1, System_exclusive, 8, 67, 16, 76, 8, 0, 7, 0, 247
1, 1, System_exclusive, 8, 67, 16, 76, 8, 1, 7, 0, 247
1, 1, System_exclusive, 8, 67, 16, 76, 8, 2, 7, 0, 247
1, 1, System_exclusive, 8, 67, 16, 76, 8, 3, 7, 0, 247
1, 1, System_exclusive, 8, 67, 16, 76, 8, 4, 7, 0, 247
1, 1, System_exclusive, 8, 67, 16, 76, 8, 5, 7, 0, 247
1, 1, System_exclusive, 8, 67, 16, 76, 8, 6, 7, 0, 247
1, 1, System_exclusive, 8, 67, 16, 76, 8, 7, 7, 0, 247
1, 1, System_exclusive, 8, 67, 16, 76, 8, 8, 7, 0, 247
1, 1, System_exclusive, 8, 67, 16, 76, 8, 9, 7, 2, 247
1, 1, System_exclusive, 8, 67, 16, 76, 8, 10, 7, 0, 247
1, 1, System_exclusive, 8, 67, 16, 76, 8, 11, 7, 0, 247
1, 1, System_exclusive, 8, 67, 16, 76, 8, 12, 7, 0, 247
1, 1, System_exclusive, 8, 67, 16, 76, 8, 13, 7, 0, 247
1, 1, System_exclusive, 8, 67, 16, 76, 8, 14, 7, 0, 247
1, 1, System_exclusive, 8, 67, 16, 76, 8, 15, 7, 0, 247
1, 1, System_exclusive, 9, 67, 16, 76, 2, 1, 0, 2, 17, 247
1, 1, System_exclusive, 9, 67, 16, 76, 2, 1, 32, 65, 8, 247
1, 1, System_exclusive, 9, 67, 16, 76, 2, 1, 64, 5, 0, 247
1, 1, System_exclusive, 8, 67, 16, 76, 8, 1, 32, 16, 247
1, 1, System_exclusive, 8, 67, 16, 76, 8, 2, 32, 16, 247
1, 1, System_exclusive, 8, 67, 16, 76, 8, 9, 32, 16, 247
1, 1, System_exclusive, 8, 67, 115, 1, 17, 15, 89, 0, 247
1, 1, System_exclusive, 8, 67, 16, 76, 8, 1, 114, 64, 247
1, 1, System_exclusive, 8, 67, 16, 76, 8, 1, 115, 64, 247
1, 1, System_exclusive, 8, 67, 16, 76, 8, 1, 119, 46, 247
1, 1, System_exclusive, 8, 67, 16, 76, 8, 0, 114, 64, 247
1, 1, System_exclusive, 8, 67, 16, 76, 8, 0, 115, 95, 247
1, 1, System_exclusive, 8, 67, 16, 76, 8, 0, 119, 46, 247
1, 1, Time_signature, 4, 2, 24, 8
1, 1, Key_signature, -2, "major"
1, 1, Tempo, 545455
1, 1, Sequencer_specific, 21, 67, 115, 10, 0, 5, 75, 90, 90, 79, 79, 79, 79, 79, 79, 90, 79, 79, 79, 79, 79, 79
1, 1, Sequencer_specific, 6, 67, 115, 10, 0, 4, 1
1, 1, Sequencer_specific, 9, 67, 123, 0, 88, 70, 48, 50, 0, 0
1, 1, End_track
2, 0, Start_track
2, 0, Title_t, "Track 1"
2, 384, Control_c, 0, 0, 0
2, 384, Control_c, 0, 32, 1
2, 384, Program_c, 0, 0
2, 385, Control_c, 0, 7, 107
2, 385, Control_c, 0, 10, 64
2, 385, Control_c, 0, 91, 3
2, 385, Control_c, 0, 93, 0
2, 768, Control_c, 0, 11, 127
2, 768, Control_c, 0, 94, 0
2, 768, Control_c, 0, 101, 0
2, 769, Control_c, 0, 100, 1
2, 770, Control_c, 0, 6, 64
2, 771, Control_c, 0, 38, 0
2, 771, Control_c, 0, 71, 43
2, 771, Control_c, 0, 74, 46
2, 3412, Note_on_c, 0, 70, 95
2, 3668, Note_on_c, 0, 70, 0
2, 3696, Note_on_c, 0, 69, 60
2, 3780, Note_on_c, 0, 69, 0
2, 3824, Note_on_c, 0, 70, 68
2, 4072, Note_on_c, 0, 62, 81
2, 4080, Note_on_c, 0, 55, 60
2, 4104, Note_on_c, 0, 55, 0
2, 4104, Note_on_c, 0, 62, 0
2, 4104, Note_on_c, 0, 58, 39
2, 4140, Note_on_c, 0, 58, 0
2, 4580, Note_on_c, 0, 67, 41
2, 4588, Note_on_c, 0, 63, 53
2, 4596, Note_on_c, 0, 58, 37
2, 4596, Note_on_c, 0, 60, 46
2, 4792, Note_on_c, 0, 70, 0
2, 4832, Note_on_c, 0, 69, 77
2, 4920, Note_on_c, 0, 69, 0
2, 4952, Note_on_c, 0, 67, 0
2, 4980, Note_on_c, 0, 70, 104
2, 5052, Note_on_c, 0, 60, 0
2, 5084, Note_on_c, 0, 58, 0
2, 5192, Note_on_c, 0, 70, 0
2, 5212, Note_on_c, 0, 66, 90
2, 5212, Note_on_c, 0, 72, 95
2, 5220, Note_on_c, 0, 61, 64
2, 5220, Note_on_c, 0, 57, 73
2, 5336, Note_on_c, 0, 72, 0
2, 5388, Note_on_c, 0, 73, 64
2, 5584, Note_on_c, 0, 73, 0
2, 5612, Note_on_c, 0, 75, 83
2, 5708, Note_on_c, 0, 75, 0
2, 5720, Note_on_c, 0, 66, 0
2, 5748, Note_on_c, 0, 78, 82
2, 5764, Note_on_c, 0, 57, 0
2, 5956, Note_on_c, 0, 78, 0
2, 5972, Note_on_c, 0, 61, 0
2, 5980, Note_on_c, 0, 80, 90
2, 5984, Note_on_c, 0, 63, 0
2, 6004, Note_on_c, 0, 62, 70
2, 6008, Note_on_c, 0, 65, 76
2, 6008, Note_on_c, 0, 60, 70
2, 6020, Note_on_c, 0, 55, 64
2, 6092, Note_on_c, 0, 80, 0
2, 6160, Note_on_c, 0, 77, 50
2, 6292, Note_on_c, 0, 77, 0
2, 6384, Note_on_c, 0, 77, 88
2, 6468, Note_on_c, 0, 77, 0
2, 6476, Note_on_c, 0, 65, 0
2, 6508, Note_on_c, 0, 60, 0
2, 6516, Note_on_c, 0, 62, 0
2, 6548, Note_on_c, 0, 55, 0
2, 6556, Note_on_c, 0, 74, 50
2, 6720, Note_on_c, 0, 74, 0
2, 6756, Note_on_c, 0, 77, 114
2, 6756, Note_on_c, 0, 55, 61
2, 6764, Note_on_c, 0, 58, 65
2, 6764, Note_on_c, 0, 53, 64
2, 6768, Note_on_c, 0, 62, 65
2, 7116, Note_on_c, 0, 76, 60
2, 7152, Note_on_c, 0, 53, 0
2, 7152, Note_on_c, 0, 55, 0
2, 7160, Note_on_c, 0, 77, 0
2, 7164, Note_on_c, 0, 75, 58
2, 7180, Note_on_c, 0, 58, 0
2, 7184, Note_on_c, 0, 76, 0
2, 7224, Note_on_c, 0, 62, 0
2, 7256, Note_on_c, 0, 75, 0
2, 7280, Note_on_c, 0, 74, 45
2, 7432, Note_on_c, 0, 74, 0
2, 7496, Note_on_c, 0, 63, 62
2, 7500, Note_on_c, 0, 74, 101
2, 7504, Note_on_c, 0, 67, 58
2, 7504, Note_on_c, 0, 58, 55
2, 7504, Note_on_c, 0, 62, 47
2, 7860, Note_on_c, 0, 74, 0
2, 7888, Note_on_c, 0, 72, 70
2, 7940, Note_on_c, 0, 67, 0
2, 7968, Note_on_c, 0, 72, 0
2, 7972, Note_on_c, 0, 62, 0
2, 8016, Note_on_c, 0, 70, 47
2, 8140, Note_on_c, 0, 58, 0
2, 8252, Note_on_c, 0, 63, 0
2, 8324, Note_on_c, 0, 70, 0
2, 8408, Note_on_c, 0, 63, 38
2, 8412, Note_on_c, 0, 66, 31
2, 8420, Note_on_c, 0, 57, 36
2, 8432, Note_on_c, 0, 69, 43
2, 8456, Note_on_c, 0, 61, 24
2, 8632, Note_on_c, 0, 69, 0
2, 8664, Note_on_c, 0, 72, 48
2, 8732, Note_on_c, 0, 72, 0
2, 8756, Note_on_c, 0, 66, 0
2, 8772, Note_on_c, 0, 57, 0
2, 8788, Note_on_c, 0, 77, 123
2, 8836, Note_on_c, 0, 63, 0
2, 8848, Note_on_c, 0, 61, 0
2, 8992, Note_on_c, 0, 77, 0
2, 9056, Note_on_c, 0, 75, 89
2, 9180, Note_on_c, 0, 75, 0
2, 9204, Note_on_c, 0, 74, 76
2, 9312, Note_on_c, 0, 74, 0
2, 9548, Note_on_c, 0, 67, 59
2, 9552, Note_on_c, 0, 74, 87
2, 9552, Note_on_c, 0, 56, 54
2, 9576, Note_on_c, 0, 62, 43
2, 9760, Note_on_c, 0, 62, 0
2, 9760, Note_on_c, 0, 67, 0
2, 9788, Note_on_c, 0, 74, 0
2, 9800, Note_on_c, 0, 73, 67
2, 9872, Note_on_c, 0, 56, 0
2, 9896, Note_on_c, 0, 73, 0
2, 9944, Note_on_c, 0, 74, 69
2, 10160, Note_on_c, 0, 74, 0
2, 10196, Note_on_c, 0, 79, 99
2, 10196, Note_on_c, 0, 66, 79
2, 10204, Note_on_c, 0, 56, 62
2, 10204, Note_on_c, 0, 62, 64
2, 10232, Note_on_c, 0, 60, 46
2, 10424, Note_on_c, 0, 79, 0
2, 10464, Note_on_c, 0, 66, 0
2, 10464, Note_on_c, 0, 60, 0
2, 10468, Note_on_c, 0, 77, 80
2, 10528, Note_on_c, 0, 62, 0
2, 10556, Note_on_c, 0, 77, 0
2, 10584, Note_on_c, 0, 74, 84
2, 10600, Note_on_c, 0, 56, 0
2, 10660, Note_on_c, 0, 74, 0
2, 10700, Note_on_c, 0, 65, 51
2, 10700, Note_on_c, 0, 70, 73
2, 10708, Note_on_c, 0, 62, 24
2, 10712, Note_on_c, 0, 60, 50
2, 10712, Note_on_c, 0, 55, 44
2, 10872, Note_on_c, 0, 70, 0
2, 10904, Note_on_c, 0, 72, 62
2, 10936, Note_on_c, 0, 65, 0
2, 10952, Note_on_c, 0, 70, 57
2, 10988, Note_on_c, 0, 72, 0
2, 11040, Note_on_c, 0, 62, 0
2, 11044, Note_on_c, 0, 60, 0
2, 11060, Note_on_c, 0, 69, 56
2, 11084, Note_on_c, 0, 70, 0
2, 11108, Note_on_c, 0, 55, 0
2, 11268, Note_on_c, 0, 69, 0
2, 11376, Note_on_c, 0, 70, 90
2, 11380, Note_on_c, 0, 54, 60
2, 11384, Note_on_c, 0, 60, 64
2, 11392, Note_on_c, 0, 65, 50
2, 11424, Note_on_c, 0, 65, 0
2, 11528, Note_on_c, 0, 70, 0
2, 11596, Note_on_c, 0, 70, 63
2, 11636, Note_on_c, 0, 60, 0
2, 11732, Note_on_c, 0, 60, 38
2, 11736, Note_on_c, 0, 70, 0
2, 11772, Note_on_c, 0, 74, 91
2, 11864, Note_on_c, 0, 74, 0
2, 11908, Note_on_c, 0, 60, 0
2, 11916, Note_on_c, 0, 77, 125
2, 11960, Note_on_c, 0, 54, 0
2, 12076, Note_on_c, 0, 77, 0
2, 12128, Note_on_c, 0, 75, 88
2, 12228, Note_on_c, 0, 75, 0
2, 12272, Note_on_c, 0, 74, 73
2, 12432, Note_on_c, 0, 74, 0
2, 12500, Note_on_c, 0, 69, 76
2, 12620, Note_on_c, 0, 63, 54
2, 12644, Note_on_c, 0, 68, 52
2, 12660, Note_on_c, 0, 69, 0
2, 12684, Note_on_c, 0, 59, 26
2, 12704, Note_on_c, 0, 63, 0
2, 12716, Note_on_c, 0, 59, 0
2, 12888, Note_on_c, 0, 73, 80
2, 12924, Note_on_c, 0, 65, 32
2, 12944, Note_on_c, 0, 68, 0
2, 12956, Note_on_c, 0, 65, 0
2, 12984, Note_on_c, 0, 73, 0
2, 13036, Note_on_c, 0, 72, 74
2, 13044, Note_on_c, 0, 63, 58
2, 13092, Note_on_c, 0, 63, 0
2, 13228, Note_on_c, 0, 72, 0
2, 13260, Note_on_c, 0, 67, 75
2, 13272, Note_on_c, 0, 57, 57
2, 13296, Note_on_c, 0, 57, 0
2, 13404, Note_on_c, 0, 66, 58
2, 13420, Note_on_c, 0, 67, 0
2, 13556, Note_on_c, 0, 66, 0
2, 13632, Note_on_c, 0, 73, 70
2, 13636, Note_on_c, 0, 66, 62
2, 13668, Note_on_c, 0, 73, 0
2, 13688, Note_on_c, 0, 66, 0
2, 13784, Note_on_c, 0, 55, 59
2, 13792, Note_on_c, 0, 65, 40
2, 13796, Note_on_c, 0, 70, 50
2, 13804, Note_on_c, 0, 60, 39
2, 13848, Note_on_c, 0, 70, 0
2, 13872, Note_on_c, 0, 60, 0
2, 13876, Note_on_c, 0, 65, 0
2, 13884, Note_on_c, 0, 55, 0
2, 13916, Note_on_c, 0, 54, 54
2, 14032, Note_on_c, 0, 54, 0
2, 14032, Note_on_c, 0, 70, 80
2, 14032, Note_on_c, 0, 65, 88
2, 14044, Note_on_c, 0, 60, 79
2, 14052, Note_on_c, 0, 55, 69
2, 14352, Note_on_c, 0, 65, 0
2, 14376, Note_on_c, 0, 70, 0
2, 14440, Note_on_c, 0, 60, 0
2, 14464, Note_on_c, 0, 55, 0
2, 14468, Note_on_c, 0, 54, 59
2, 14536, Note_on_c, 0, 54, 0
2, 14552, Note_on_c, 0, 68, 76
2, 14552, Note_on_c, 0, 61, 79
2, 14552, Note_on_c, 0, 57, 80
2, 14558, Note_on_c, 0, 56, 73
2, 14558, Note_on_c, 0, 63, 70
2, 14764, Note_on_c, 0, 63, 0
2, 14788, Note_on_c, 0, 57, 0
2, 14792, Note_on_c, 0, 61, 0
2, 14816, Note_on_c, 0, 68, 0
2, 14824, Note_on_c, 0, 56, 0
2, 14848, Note_on_c, 0, 51, 41
2, 14892, Note_on_c, 0, 51, 0
2, 14924, Note_on_c, 0, 54, 62
2, 14940, Note_on_c, 0, 68, 70
2, 14940, Note_on_c, 0, 61, 62
2, 14948, Note_on_c, 0, 57, 60
2, 14952, Note_on_c, 0, 63, 60
2, 15096, Note_on_c, 0, 57, 0
2, 15116, Note_on_c, 0, 68, 0
2, 15132, Note_on_c, 0, 63, 0
2, 15156, Note_on_c, 0, 61, 0
2, 15196, Note_on_c, 0, 54, 0
2, 15208, Note_on_c, 0, 65, 65
2, 15216, Note_on_c, 0, 57, 60
2, 15216, Note_on_c, 0, 63, 55
2, 15224, Note_on_c, 0, 53, 63
2, 15232, Note_on_c, 0, 60, 55
2, 15240, Note_on_c, 0, 57, 0
2, 15256, Note_on_c, 0, 60, 0
2, 15280, Note_on_c, 0, 63, 0
2, 15296, Note_on_c, 0, 65, 0
2, 15472, Note_on_c, 0, 70, 83
2, 15492, Note_on_c, 0, 51, 49
2, 15516, Note_on_c, 0, 53, 0
2, 15524, Note_on_c, 0, 51, 0
2, 15568, Note_on_c, 0, 70, 0
2, 15588, Note_on_c, 0, 68, 57
2, 15612, Note_on_c, 0, 68, 0
2, 15612, Note_on_c, 0, 69, 62
2, 15680, Note_on_c, 0, 69, 0
2, 15716, Note_on_c, 0, 70, 94
2, 15828, Note_on_c, 0, 70, 0
2, 15856, Note_on_c, 0, 69, 59
2, 15944, Note_on_c, 0, 69, 0
2, 15984, Note_on_c, 0, 70, 93
2, 16100, Note_on_c, 0, 70, 0
2, 16120, Note_on_c, 0, 69, 45
2, 16220, Note_on_c, 0, 69, 0
2, 16256, Note_on_c, 0, 70, 89
2, 16356, Note_on_c, 0, 70, 0
2, 16524, Note_on_c, 0, 62, 51
2, 16536, Note_on_c, 0, 58, 45
2, 16576, Note_on_c, 0, 58, 0
2, 16592, Note_on_c, 0, 62, 0
2, 16772, Note_on_c, 0, 67, 60
2, 16780, Note_on_c, 0, 58, 52
2, 16796, Note_on_c, 0, 63, 55
2, 16868, Note_on_c, 0, 60, 20
2, 17160, Note_on_c, 0, 69, 67
2, 17216, Note_on_c, 0, 69, 0
2, 17216, Note_on_c, 0, 67, 0
2, 17304, Note_on_c, 0, 70, 56
2, 17384, Note_on_c, 0, 60, 0
2, 17396, Note_on_c, 0, 58, 0
2, 17488, Note_on_c, 0, 70, 0
2, 17496, Note_on_c, 0, 63, 0
2, 17516, Note_on_c, 0, 72, 90
2, 17520, Note_on_c, 0, 63, 26
2, 17524, Note_on_c, 0, 66, 69
2, 17544, Note_on_c, 0, 61, 49
2, 17552, Note_on_c, 0, 57, 42
2, 17604, Note_on_c, 0, 66, 0
2, 17632, Note_on_c, 0, 72, 0
2, 17672, Note_on_c, 0, 73, 61
2, 17728, Note_on_c, 0, 61, 0
2, 17780, Note_on_c, 0, 63, 0
2, 17852, Note_on_c, 0, 73, 0
2, 17904, Note_on_c, 0, 75, 64
2, 17912, Note_on_c, 0, 63, 60
2, 17916, Note_on_c, 0, 66, 32
2, 17916, Note_on_c, 0, 73, 50
2, 17928, Note_on_c, 0, 75, 0
2, 17936, Note_on_c, 0, 61, 43
2, 17944, Note_on_c, 0, 66, 0
2, 17944, Note_on_c, 0, 73, 0
2, 18012, Note_on_c, 0, 66, 68
2, 18020, Note_on_c, 0, 63, 0
2, 18028, Note_on_c, 0, 78, 65
2, 18032, Note_on_c, 0, 61, 0
2, 18088, Note_on_c, 0, 57, 0
2, 18200, Note_on_c, 0, 66, 0
2, 18216, Note_on_c, 0, 78, 0
2, 18260, Note_on_c, 0, 61, 46
2, 18280, Note_on_c, 0, 80, 95
2, 18284, Note_on_c, 0, 68, 88
2, 18332, Note_on_c, 0, 61, 0
2, 18368, Note_on_c, 0, 80, 0
2, 18388, Note_on_c, 0, 68, 0
2, 18544, Note_on_c, 0, 65, 81
2, 18548, Note_on_c, 0, 77, 71
2, 18576, Note_on_c, 0, 62, 28
2, 18580, Note_on_c, 0, 60, 28
2, 18600, Note_on_c, 0, 65, 0
2, 18624, Note_on_c, 0, 60, 0
2, 18628, Note_on_c, 0, 62, 0
2, 18636, Note_on_c, 0, 75, 40
2, 18640, Note_on_c, 0, 77, 0
2, 18672, Note_on_c, 0, 75, 0
2, 18672, Note_on_c, 0, 65, 60
2, 18748, Note_on_c, 0, 65, 0
2, 18776, Note_on_c, 0, 77, 53
2, 18812, Note_on_c, 0, 77, 0
2, 18844, Note_on_c, 0, 65, 45
2, 18948, Note_on_c, 0, 77, 64
2, 18952, Note_on_c, 0, 65, 0
2, 19032, Note_on_c, 0, 77, 0
2, 19040, Note_on_c, 0, 60, 60
2, 19040, Note_on_c, 0, 65, 50
2, 19064, Note_on_c, 0, 60, 0
2, 19132, Note_on_c, 0, 65, 0
2, 19132, Note_on_c, 0, 77, 55
2, 19212, Note_on_c, 0, 77, 0
2, 19224, Note_on_c, 0, 65, 58
2, 19316, Note_on_c, 0, 77, 54
2, 19352, Note_on_c, 0, 65, 0
2, 19388, Note_on_c, 0, 62, 71
2, 19392, Note_on_c, 0, 55, 58
2, 19400, Note_on_c, 0, 58, 63
2, 19408, Note_on_c, 0, 53, 44
2, 19412, Note_on_c, 0, 77, 0
2, 19436, Note_on_c, 0, 65, 55
2, 19440, Note_on_c, 0, 53, 0
2, 19520, Note_on_c, 0, 77, 47
2, 19580, Note_on_c, 0, 55, 0
2, 19608, Note_on_c, 0, 58, 0
2, 19620, Note_on_c, 0, 65, 0
2, 19672, Note_on_c, 0, 62, 0
2, 19748, Note_on_c, 0, 77, 0
2, 19808, Note_on_c, 0, 70, 101
2, 19816, Note_on_c, 0, 58, 68
2, 19820, Note_on_c, 0, 63, 75
2, 19820, Note_on_c, 0, 74, 88
2, 19824, Note_on_c, 0, 62, 81
2, 19832, Note_on_c, 0, 73, 45
2, 19872, Note_on_c, 0, 73, 0
2, 20096, Note_on_c, 0, 63, 0
2, 20260, Note_on_c, 0, 63, 37
2, 20296, Note_on_c, 0, 70, 0
2, 20304, Note_on_c, 0, 74, 0
2, 20314, Note_on_c, 0, 62, 0
2, 20344, Note_on_c, 0, 69, 49
2, 20348, Note_on_c, 0, 63, 0
2, 20356, Note_on_c, 0, 72, 56
2, 20436, Note_on_c, 0, 58, 0
2, 20472, Note_on_c, 0, 69, 0
2, 20512, Note_on_c, 0, 72, 0
2, 20584, Note_on_c, 0, 70, 69
2, 20588, Note_on_c, 0, 63, 49
2, 20600, Note_on_c, 0, 67, 33
2, 20604, Note_on_c, 0, 57, 51
2, 20640, Note_on_c, 0, 67, 0
2, 20680, Note_on_c, 0, 70, 0
2, 20776, Note_on_c, 0, 69, 31
2, 20836, Note_on_c, 0, 63, 0
2, 20896, Note_on_c, 0, 69, 0
2, 20956, Note_on_c, 0, 72, 62
2, 20984, Note_on_c, 0, 63, 39
2, 20988, Note_on_c, 0, 72, 0
2, 21088, Note_on_c, 0, 77, 79
2, 21156, Note_on_c, 0, 57, 0
2, 21216, Note_on_c, 0, 63, 0
2, 21256, Note_on_c, 0, 77, 0
2, 21338, Note_on_c, 0, 75, 65
2, 21432, Note_on_c, 0, 75, 0
2, 21496, Note_on_c, 0, 74, 69
2, 21640, Note_on_c, 0, 74, 0
2, 21668, Note_on_c, 0, 75, 66
2, 21724, Note_on_c, 0, 74, 62
2, 21776, Note_on_c, 0, 75, 0
2, 21792, Note_on_c, 0, 74, 0
2, 21792, Note_on_c, 0, 73, 68
2, 21904, Note_on_c, 0, 74, 83
2, 21948, Note_on_c, 0, 73, 0
2, 22104, Note_on_c, 0, 74, 0
2, 22132, Note_on_c, 0, 73, 55
2, 22192, Note_on_c, 0, 66, 47
2, 22200, Note_on_c, 0, 62, 40
2, 22204, Note_on_c, 0, 56, 48
2, 22224, Note_on_c, 0, 73, 0
2, 22256, Note_on_c, 0, 74, 57
2, 22456, Note_on_c, 0, 66, 0
2, 22468, Note_on_c, 0, 74, 0
2, 22496, Note_on_c, 0, 79, 111
2, 22512, Note_on_c, 0, 66, 51
2, 22596, Note_on_c, 0, 79, 0
2, 22644, Note_on_c, 0, 77, 67
2, 22672, Note_on_c, 0, 66, 0
2, 22824, Note_on_c, 0, 56, 0
2, 22836, Note_on_c, 0, 77, 0
2, 22888, Note_on_c, 0, 74, 72
2, 22904, Note_on_c, 0, 60, 42
2, 22912, Note_on_c, 0, 65, 42
2, 22916, Note_on_c, 0, 55, 43
2, 22980, Note_on_c, 0, 74, 0
2, 23092, Note_on_c, 0, 70, 30
2, 23176, Note_on_c, 0, 62, 0
2, 23208, Note_on_c, 0, 60, 0
2, 23268, Note_on_c, 0, 65, 0
2, 23272, Note_on_c, 0, 62, 46
2, 23288, Note_on_c, 0, 70, 0
2, 23348, Note_on_c, 0, 62, 0
2, 23384, Note_on_c, 0, 70, 72
2, 23412, Note_on_c, 0, 55, 0
2, 23648, Note_on_c, 0, 70, 0
2, 23648, Note_on_c, 0, 69, 55
2, 23660, Note_on_c, 0, 65, 38
2, 23668, Note_on_c, 0, 60, 41
2, 23668, Note_on_c, 0, 54, 44
2, 23706, Note_on_c, 0, 69, 0
2, 23784, Note_on_c, 0, 70, 40
2, 23980, Note_on_c, 0, 70, 0
2, 24028, Note_on_c, 0, 77, 87
2, 24072, Note_on_c, 0, 65, 0
2, 24100, Note_on_c, 0, 77, 0
2, 24124, Note_on_c, 0, 60, 0
2, 24196, Note_on_c, 0, 54, 0
2, 24204, Note_on_c, 0, 75, 29
2, 24240, Note_on_c, 0, 75, 0
2, 24408, Note_on_c, 0, 50, 65
2, 24440, Note_on_c, 0, 50, 0
2, 24548, Note_on_c, 0, 65, 68
2, 24548, Note_on_c, 0, 74, 70
2, 24560, Note_on_c, 0, 69, 58
2, 24560, Note_on_c, 0, 60, 55
2, 24608, Note_on_c, 0, 65, 0
2, 24616, Note_on_c, 0, 60, 0
2, 24636, Note_on_c, 0, 69, 0
2, 24668, Note_on_c, 0, 74, 0
2, 24800, Note_on_c, 0, 54, 36
2, 24836, Note_on_c, 0, 54, 0
2, 24928, Note_on_c, 0, 73, 62
2, 24932, Note_on_c, 0, 65, 67
2, 24932, Note_on_c, 0, 58, 62
2, 24936, Note_on_c, 0, 68, 62
2, 24992, Note_on_c, 0, 70, 28
2, 25000, Note_on_c, 0, 58, 0
2, 25080, Note_on_c, 0, 65, 0
2, 25100, Note_on_c, 0, 70, 0
2, 25132, Note_on_c, 0, 68, 0
2, 25132, Note_on_c, 0, 73, 0
2, 25180, Note_on_c, 0, 48, 65
2, 25204, Note_on_c, 0, 48, 0
2, 25308, Note_on_c, 0, 63, 62
2, 25316, Note_on_c, 0, 72, 60
2, 25316, Note_on_c, 0, 58, 48
2, 25332, Note_on_c, 0, 67, 55
2, 25368, Note_on_c, 0, 58, 0
2, 25368, Note_on_c, 0, 70, 29
2, 25428, Note_on_c, 0, 67, 0
2, 25428, Note_on_c, 0, 72, 0
2, 25468, Note_on_c, 0, 70, 0
2, 25484, Note_on_c, 0, 63, 0
2, 25580, Note_on_c, 0, 51, 57
2, 25664, Note_on_c, 0, 51, 0
2, 25692, Note_on_c, 0, 68, 49
2, 25708, Note_on_c, 0, 61, 47
2, 25716, Note_on_c, 0, 63, 47
2, 25724, Note_on_c, 0, 57, 26
2, 25760, Note_on_c, 0, 66, 24
2, 25876, Note_on_c, 0, 68, 0
2, 25908, Note_on_c, 0, 66, 0
2, 25916, Note_on_c, 0, 57, 0
2, 25956, Note_on_c, 0, 51, 46
2, 25964, Note_on_c, 0, 63, 0
2, 25976, Note_on_c, 0, 61, 0
2, 26032, Note_on_c, 0, 51, 0
2, 26044, Note_on_c, 0, 66, 55
2, 26072, Note_on_c, 0, 57, 53
2, 26072, Note_on_c, 0, 60, 60
2, 26088, Note_on_c, 0, 53, 40
2, 26088, Note_on_c, 0, 62, 45
2, 26104, Note_on_c, 0, 66, 0
2, 26112, Note_on_c, 0, 65, 49
2, 26140, Note_on_c, 0, 57, 0
2, 26168, Note_on_c, 0, 62, 0
2, 26204, Note_on_c, 0, 60, 0
2, 26228, Note_on_c, 0, 65, 0
2, 26388, Note_on_c, 0, 51, 48
2, 26480, Note_on_c, 0, 53, 0
2, 26488, Note_on_c, 0, 65, 62
2, 26492, Note_on_c, 0, 51, 0
2, 26564, Note_on_c, 0, 65, 0
2, 26604, Note_on_c, 0, 67, 73
2, 26664, Note_on_c, 0, 67, 0
2, 26720, Note_on_c, 0, 68, 104
2, 26852, Note_on_c, 0, 68, 0
2, 26860, Note_on_c, 0, 70, 70
2, 26932, Note_on_c, 0, 70, 0
2, 26980, Note_on_c, 0, 72, 85
2, 27064, Note_on_c, 0, 72, 0
2, 27112, Note_on_c, 0, 74, 99
2, 27116, Note_on_c, 0, 67, 67
2, 27124, Note_on_c, 0, 63, 55
2, 27144, Note_on_c, 0, 56, 50
2, 27152, Note_on_c, 0, 60, 45
2, 27212, Note_on_c, 0, 67, 0
2, 27212, Note_on_c, 0, 74, 0
2, 27252, Note_on_c, 0, 75, 71
2, 27292, Note_on_c, 0, 63, 0
2, 27296, Note_on_c, 0, 56, 0
2, 27300, Note_on_c, 0, 60, 0
2, 27324, Note_on_c, 0, 75, 0
2, 27372, Note_on_c, 0, 77, 81
2, 27432, Note_on_c, 0, 77, 0
2, 27488, Note_on_c, 0, 66, 60
2, 27492, Note_on_c, 0, 56, 53
2, 27492, Note_on_c, 0, 79, 83
2, 27540, Note_on_c, 0, 62, 28
2, 27564, Note_on_c, 0, 66, 0
2, 27604, Note_on_c, 0, 79, 0
2, 27632, Note_on_c, 0, 82, 86
2, 27636, Note_on_c, 0, 65, 55
2, 27644, Note_on_c, 0, 56, 0
2, 27648, Note_on_c, 0, 60, 27
2, 27672, Note_on_c, 0, 55, 50
2, 27904, Note_on_c, 0, 82, 0
2, 27988, Note_on_c, 0, 65, 0
2, 27996, Note_on_c, 0, 82, 89
2, 28064, Note_on_c, 0, 62, 0
2, 28072, Note_on_c, 0, 60, 0
2, 28276, Note_on_c, 0, 82, 0
2, 28284, Note_on_c, 0, 62, 45
2, 28308, Note_on_c, 0, 60, 41
2, 28348, Note_on_c, 0, 62, 0
2, 28364, Note_on_c, 0, 60, 0
2, 28388, Note_on_c, 0, 75, 76
2, 28448, Note_on_c, 0, 55, 0
2, 28484, Note_on_c, 0, 75, 0
2, 28504, Note_on_c, 0, 77, 55
2, 28572, Note_on_c, 0, 75, 53
2, 28584, Note_on_c, 0, 77, 0
2, 28676, Note_on_c, 0, 62, 39
2, 28676, Note_on_c, 0, 74, 60
2, 28688, Note_on_c, 0, 75, 0
2, 28716, Note_on_c, 0, 62, 0
2, 28740, Note_on_c, 0, 74, 0
2, 28796, Note_on_c, 0, 75, 65
2, 28868, Note_on_c, 0, 75, 0
2, 28876, Note_on_c, 0, 77, 57
2, 28952, Note_on_c, 0, 75, 50
2, 28960, Note_on_c, 0, 77, 0
2, 29064, Note_on_c, 0, 74, 52
2, 29068, Note_on_c, 0, 75, 0
2, 29116, Note_on_c, 0, 74, 0
2, 29176, Note_on_c, 0, 75, 67
2, 29828, Note_on_c, 0, 74, 65
2, 29828, Note_on_c, 0, 63, 56
2, 29832, Note_on_c, 0, 67, 64
2, 29848, Note_on_c, 0, 75, 0
2, 29848, Note_on_c, 0, 60, 50
2, 29852, Note_on_c, 0, 56, 45
2, 29880, Note_on_c, 0, 67, 0
2, 29888, Note_on_c, 0, 60, 0
2, 29916, Note_on_c, 0, 56, 0
2, 29928, Note_on_c, 0, 63, 0
2, 29964, Note_on_c, 0, 74, 0
2, 29988, Note_on_c, 0, 75, 56
2, 30148, Note_on_c, 0, 75, 0
2, 30204, Note_on_c, 0, 77, 90
2, 30204, Note_on_c, 0, 66, 77
2, 30212, Note_on_c, 0, 62, 66
2, 30216, Note_on_c, 0, 56, 61
2, 30288, Note_on_c, 0, 77, 0
2, 30380, Note_on_c, 0, 80, 61
2, 30388, Note_on_c, 0, 66, 0
2, 30444, Note_on_c, 0, 62, 0
2, 30464, Note_on_c, 0, 80, 0
2, 30476, Note_on_c, 0, 56, 0
2, 30588, Note_on_c, 0, 85, 90
2, 30588, Note_on_c, 0, 73, 80
2, 30616, Note_on_c, 0, 75, 43
2, 30624, Note_on_c, 0, 62, 51
2, 30652, Note_on_c, 0, 75, 0
2, 30656, Note_on_c, 0, 62, 0
2, 30680, Note_on_c, 0, 73, 0
2, 30688, Note_on_c, 0, 85, 0
2, 30784, Note_on_c, 0, 85, 70
2, 30792, Note_on_c, 0, 73, 68
2, 30900, Note_on_c, 0, 85, 0
2, 30904, Note_on_c, 0, 73, 0
2, 30920, Note_on_c, 0, 74, 58
2, 30988, Note_on_c, 0, 65, 42
2, 30996, Note_on_c, 0, 86, 64
2, 31016, Note_on_c, 0, 74, 0
2, 31020, Note_on_c, 0, 86, 0
2, 31020, Note_on_c, 0, 65, 0
2, 31020, Note_on_c, 0, 62, 42
2, 31060, Note_on_c, 0, 60, 28
2, 31072, Note_on_c, 0, 62, 0
2, 31100, Note_on_c, 0, 60, 0
2, 31104, Note_on_c, 0, 70, 70
2, 31128, Note_on_c, 0, 82, 50
2, 31356, Note_on_c, 0, 82, 0
2, 31360, Note_on_c, 0, 70, 0
2, 31472, Note_on_c, 0, 62, 47
2, 31476, Note_on_c, 0, 58, 50
2, 31476, Note_on_c, 0, 51, 45
2, 31504, Note_on_c, 0, 55, 36
2, 31640, Note_on_c, 0, 58, 0
2, 31644, Note_on_c, 0, 55, 0
2, 31652, Note_on_c, 0, 62, 0
2, 31668, Note_on_c, 0, 51, 0
2, 32096, Note_on_c, 0, 67, 70
2, 32100, Note_on_c, 0, 63, 62
2, 32104, Note_on_c, 0, 56, 51
2, 32108, Note_on_c, 0, 60, 60
2, 32492, Note_on_c, 0, 79, 123
2, 32652, Note_on_c, 0, 67, 0
2, 32656, Note_on_c, 0, 79, 0
2, 32660, Note_on_c, 0, 75, 65
2, 32728, Note_on_c, 0, 56, 0
2, 32768, Note_on_c, 0, 63, 0
2, 32836, Note_on_c, 0, 75, 0
2, 32912, Note_on_c, 0, 60, 0
2, 33004, Note_on_c, 0, 74, 77
2, 33008, Note_on_c, 0, 66, 43
2, 33016, Note_on_c, 0, 62, 44
2, 33028, Note_on_c, 0, 56, 36
2, 33200, Note_on_c, 0, 62, 0
2, 33220, Note_on_c, 0, 74, 0
2, 33256, Note_on_c, 0, 77, 57
2, 33284, Note_on_c, 0, 77, 0
2, 33300, Note_on_c, 0, 62, 38
2, 33372, Note_on_c, 0, 66, 0
2, 33380, Note_on_c, 0, 82, 90
2, 33460, Note_on_c, 0, 62, 0
2, 33552, Note_on_c, 0, 56, 0
2, 33592, Note_on_c, 0, 82, 0
2, 33640, Note_on_c, 0, 80, 70
2, 33656, Note_on_c, 0, 60, 49
2, 33656, Note_on_c, 0, 65, 36
2, 33656, Note_on_c, 0, 62, 42
2, 33672, Note_on_c, 0, 55, 34
2, 33740, Note_on_c, 0, 80, 0
2, 33808, Note_on_c, 0, 79, 61
2, 33904, Note_on_c, 0, 79, 0
2, 33932, Note_on_c, 0, 80, 40
2, 33968, Note_on_c, 0, 80, 0
2, 33988, Note_on_c, 0, 79, 57
2, 34056, Note_on_c, 0, 78, 62
2, 34064, Note_on_c, 0, 79, 0
2, 34088, Note_on_c, 0, 65, 0
2, 34100, Note_on_c, 0, 62, 0
2, 34112, Note_on_c, 0, 78, 0
2, 34156, Note_on_c, 0, 79, 84
2, 34160, Note_on_c, 0, 60, 0
2, 34192, Note_on_c, 0, 55, 0
2, 34388, Note_on_c, 0, 79, 0
2, 34420, Note_on_c, 0, 78, 45
2, 34456, Note_on_c, 0, 78, 0
2, 34500, Note_on_c, 0, 61, 49
2, 34512, Note_on_c, 0, 65, 39
2, 34524, Note_on_c, 0, 60, 18
2, 34524, Note_on_c, 0, 79, 55
2, 34544, Note_on_c, 0, 55, 29
2, 34744, Note_on_c, 0, 79, 0
2, 34784, Note_on_c, 0, 84, 97
2, 34884, Note_on_c, 0, 65, 0
2, 34892, Note_on_c, 0, 84, 0
2, 34906, Note_on_c, 0, 60, 0
2, 34940, Note_on_c, 0, 55, 0
2, 34940, Note_on_c, 0, 82, 58
2, 34956, Note_on_c, 0, 61, 0
2, 35112, Note_on_c, 0, 82, 0
2, 35164, Note_on_c, 0, 63, 50
2, 35168, Note_on_c, 0, 79, 65
2, 35188, Note_on_c, 0, 60, 47
2, 35192, Note_on_c, 0, 58, 41
2, 35240, Note_on_c, 0, 79, 0
2, 35352, Note_on_c, 0, 75, 51
2, 35556, Note_on_c, 0, 75, 0
2, 35672, Note_on_c, 0, 63, 0
2, 35692, Note_on_c, 0, 75, 67
2, 35712, Note_on_c, 0, 58, 0
2, 35736, Note_on_c, 0, 60, 0
2, 35956, Note_on_c, 0, 74, 56
2, 35972, Note_on_c, 0, 75, 0
2, 36012, Note_on_c, 0, 74, 0
2, 36080, Note_on_c, 0, 63, 24
2, 36092, Note_on_c, 0, 75, 45
2, 36092, Note_on_c, 0, 59, 35
2, 36128, Note_on_c, 0, 56, 29
2, 36276, Note_on_c, 0, 75, 0
2, 36336, Note_on_c, 0, 79, 71
2, 36416, Note_on_c, 0, 79, 0
2, 36484, Note_on_c, 0, 63, 0
2, 36488, Note_on_c, 0, 82, 55
2, 36564, Note_on_c, 0, 82, 0
2, 36564, Note_on_c, 0, 59, 0
2, 36576, Note_on_c, 0, 56, 0
2, 36712, Note_on_c, 0, 80, 55
2, 36748, Note_on_c, 0, 80, 0
2, 36860, Note_on_c, 0, 79, 54
2, 36936, Note_on_c, 0, 79, 0
2, 37076, Note_on_c, 0, 74, 64
2, 37172, Note_on_c, 0, 74, 0
2, 37248, Note_on_c, 0, 73, 42
2, 37360, Note_on_c, 0, 73, 0
2, 37460, Note_on_c, 0, 63, 71
2, 37460, Note_on_c, 0, 78, 73
2, 37480, Note_on_c, 0, 58, 47
2, 37484, Note_on_c, 0, 63, 0
2, 37508, Note_on_c, 0, 58, 0
2, 37540, Note_on_c, 0, 78, 0
2, 37620, Note_on_c, 0, 77, 55
2, 37764, Note_on_c, 0, 77, 0
2, 37844, Note_on_c, 0, 68, 66
2, 37864, Note_on_c, 0, 75, 55
2, 37868, Note_on_c, 0, 63, 46
2, 37880, Note_on_c, 0, 58, 27
2, 37884, Note_on_c, 0, 68, 0
2, 37904, Note_on_c, 0, 63, 0
2, 37928, Note_on_c, 0, 58, 0
2, 37940, Note_on_c, 0, 75, 0
2, 38236, Note_on_c, 0, 66, 84
2, 38244, Note_on_c, 0, 56, 67
2, 38248, Note_on_c, 0, 62, 62
2, 38276, Note_on_c, 0, 62, 0
2, 38304, Note_on_c, 0, 66, 0
2, 38336, Note_on_c, 0, 56, 0
2, 38396, Note_on_c, 0, 65, 60
2, 38420, Note_on_c, 0, 62, 33
2, 38448, Note_on_c, 0, 55, 43
2, 38456, Note_on_c, 0, 60, 27
2, 38584, Note_on_c, 0, 62, 0
2, 38620, Note_on_c, 0, 60, 0
2, 38676, Note_on_c, 0, 65, 0
2, 38736, Note_on_c, 0, 55, 0
2, 39008, Note_on_c, 0, 66, 91
2, 39016, Note_on_c, 0, 79, 99
2, 39016, Note_on_c, 0, 67, 88
2, 39016, Note_on_c, 0, 69, 93
2, 39024, Note_on_c, 0, 72, 85
2, 39024, Note_on_c, 0, 75, 72
2, 39104, Note_on_c, 0, 66, 0
2, 39152, Note_on_c, 0, 79, 0
2, 39184, Note_on_c, 0, 72, 0
2, 39184, Note_on_c, 0, 69, 0
2, 39196, Note_on_c, 0, 67, 0
2, 39204, Note_on_c, 0, 75, 0
2, 39224, Note_on_c, 0, 66, 50
2, 39240, Note_on_c, 0, 78, 71
2, 39252, Note_on_c, 0, 69, 55
2, 39252, Note_on_c, 0, 75, 55
2, 39256, Note_on_c, 0, 72, 57
2, 39376, Note_on_c, 0, 72, 0
2, 39408, Note_on_c, 0, 75, 0
2, 39416, Note_on_c, 0, 69, 0
2, 39416, Note_on_c, 0, 78, 0
2, 39468, Note_on_c, 0, 66, 0
2, 39504, Note_on_c, 0, 65, 61
2, 39504, Note_on_c, 0, 77, 70
2, 39504, Note_on_c, 0, 69, 62
2, 39516, Note_on_c, 0, 72, 58
2, 39548, Note_on_c, 0, 72, 0
2, 39560, Note_on_c, 0, 77, 0
2, 39628, Note_on_c, 0, 69, 0
2, 39704, Note_on_c, 0, 65, 0
2, 39756, Note_on_c, 0, 63, 67
2, 39760, Note_on_c, 0, 70, 73
2, 39760, Note_on_c, 0, 75, 64
2, 39832, Note_on_c, 0, 70, 0
2, 39836, Note_on_c, 0, 75, 0
2, 39884, Note_on_c, 0, 63, 0
2, 39912, Note_on_c, 0, 74, 63
2, 39912, Note_on_c, 0, 62, 54
2, 39928, Note_on_c, 0, 65, 35
2, 39936, Note_on_c, 0, 74, 0
2, 39980, Note_on_c, 0, 65, 0
2, 40072, Note_on_c, 0, 62, 0
2, 40148, Note_on_c, 0, 70, 69
2, 40156, Note_on_c, 0, 62, 60
2, 40156, Note_on_c, 0, 58, 65
2, 40164, Note_on_c, 0, 65, 65
2, 40188, Note_on_c, 0, 67, 36
2, 40236, Note_on_c, 0, 67, 0
2, 40240, Note_on_c, 0, 70, 0
2, 40244, Note_on_c, 0, 58, 0
2, 40252, Note_on_c, 0, 65, 0
2, 40296, Note_on_c, 0, 57, 40
2, 40316, Note_on_c, 0, 69, 48
2, 40448, Note_on_c, 0, 62, 0
2, 40480, Note_on_c, 0, 57, 0
2, 40492, Note_on_c, 0, 69, 0
2, 40560, Note_on_c, 0, 58, 60
2, 40628, Note_on_c, 0, 58, 0
2, 40688, Note_on_c, 0, 70, 56
2, 40692, Note_on_c, 0, 62, 53
2, 40700, Note_on_c, 0, 65, 58
2, 40708, Note_on_c, 0, 67, 49
2, 40712, Note_on_c, 0, 55, 40
2, 40900, Note_on_c, 0, 67, 0
2, 40908, Note_on_c, 0, 62, 0
2, 40912, Note_on_c, 0, 65, 0
2, 40960, Note_on_c, 0, 70, 0
2, 40968, Note_on_c, 0, 62, 59
2, 40992, Note_on_c, 0, 55, 0
2, 40996, Note_on_c, 0, 65, 42
2, 41028, Note_on_c, 0, 62, 0
2, 41032, Note_on_c, 0, 65, 0
2, 41336, Note_on_c, 0, 69, 122
2, 41336, Note_on_c, 0, 67, 73
2, 41340, Note_on_c, 0, 63, 60
2, 41348, Note_on_c, 0, 62, 64
2, 41352, Note_on_c, 0, 58, 51
2, 41648, Note_on_c, 0, 67, 0
2, 41692, Note_on_c, 0, 62, 0
2, 41700, Note_on_c, 0, 70, 72
2, 41736, Note_on_c, 0, 69, 0
2, 41812, Note_on_c, 0, 70, 0
2, 41856, Note_on_c, 0, 72, 70
2, 41876, Note_on_c, 0, 58, 0
2, 41996, Note_on_c, 0, 63, 0
2, 42072, Note_on_c, 0, 72, 0
2, 42092, Note_on_c, 0, 73, 76
2, 42092, Note_on_c, 0, 66, 60
2, 42104, Note_on_c, 0, 63, 50
2, 42120, Note_on_c, 0, 57, 39
2, 42124, Note_on_c, 0, 61, 45
2, 42256, Note_on_c, 0, 66, 0
2, 42308, Note_on_c, 0, 63, 0
2, 42312, Note_on_c, 0, 73, 0
2, 42320, Note_on_c, 0, 61, 0
2, 42344, Note_on_c, 0, 75, 73
2, 42464, Note_on_c, 0, 63, 46
2, 42472, Note_on_c, 0, 75, 0
2, 42480, Note_on_c, 0, 61, 45
2, 42584, Note_on_c, 0, 57, 0
2, 42584, Note_on_c, 0, 78, 76
2, 42588, Note_on_c, 0, 66, 68
2, 42632, Note_on_c, 0, 63, 0
2, 42656, Note_on_c, 0, 61, 0
2, 42764, Note_on_c, 0, 78, 0
2, 42780, Note_on_c, 0, 66, 0
2, 42852, Note_on_c, 0, 62, 55
2, 42860, Note_on_c, 0, 65, 63
2, 42864, Note_on_c, 0, 60, 55
2, 42864, Note_on_c, 0, 80, 82
2, 42868, Note_on_c, 0, 68, 75
2, 42888, Note_on_c, 0, 55, 40
2, 42972, Note_on_c, 0, 80, 0
2, 42984, Note_on_c, 0, 68, 0
2, 42996, Note_on_c, 0, 65, 0
2, 43084, Note_on_c, 0, 62, 0
2, 43104, Note_on_c, 0, 60, 0
2, 43120, Note_on_c, 0, 65, 66
2, 43120, Note_on_c, 0, 77, 64
2, 43168, Note_on_c, 0, 55, 0
2, 43236, Note_on_c, 0, 65, 0
2, 43252, Note_on_c, 0, 77, 0
2, 43276, Note_on_c, 0, 60, 43
2, 43308, Note_on_c, 0, 60, 0
2, 43364, Note_on_c, 0, 77, 64
2, 43376, Note_on_c, 0, 65, 58
2, 43396, Note_on_c, 0, 75, 32
2, 43504, Note_on_c, 0, 65, 0
2, 43528, Note_on_c, 0, 75, 0
2, 43540, Note_on_c, 0, 77, 0
2, 43620, Note_on_c, 0, 74, 61
2, 43624, Note_on_c, 0, 60, 52
2, 43624, Note_on_c, 0, 50, 46
2, 43652, Note_on_c, 0, 50, 0
2, 43652, Note_on_c, 0, 60, 0
2, 43712, Note_on_c, 0, 74, 0
2, 43856, Note_on_c, 0, 62, 47
2, 43860, Note_on_c, 0, 53, 48
2, 43860, Note_on_c, 0, 65, 56
2, 43860, Note_on_c, 0, 70, 50
2, 43860, Note_on_c, 0, 58, 58
2, 43860, Note_on_c, 0, 77, 60
2, 43860, Note_on_c, 0, 55, 53
2, 43872, Note_on_c, 0, 74, 51
2, 43952, Note_on_c, 0, 53, 0
2, 43964, Note_on_c, 0, 62, 0
2, 43968, Note_on_c, 0, 74, 0
2, 43968, Note_on_c, 0, 65, 0
2, 43976, Note_on_c, 0, 70, 0
2, 43984, Note_on_c, 0, 58, 0
2, 43996, Note_on_c, 0, 77, 0
2, 43996, Note_on_c, 0, 55, 0
2, 44132, Note_on_c, 0, 62, 65
2, 44140, Note_on_c, 0, 58, 51
2, 44172, Note_on_c, 0, 58, 0
2, 44200, Note_on_c, 0, 62, 0
2, 44394, Note_on_c, 0, 74, 107
2, 44400, Note_on_c, 0, 70, 94
2, 44404, Note_on_c, 0, 67, 81
2, 44408, Note_on_c, 0, 63, 66
2, 44408, Note_on_c, 0, 58, 64
2, 44408, Note_on_c, 0, 62, 64
2, 44668, Note_on_c, 0, 74, 0
2, 44716, Note_on_c, 0, 63, 0
2, 44796, Note_on_c, 0, 67, 0
2, 44796, Note_on_c, 0, 63, 55
2, 44800, Note_on_c, 0, 70, 0
2, 44880, Note_on_c, 0, 62, 0
2, 44880, Note_on_c, 0, 69, 63
2, 44892, Note_on_c, 0, 72, 63
2, 45036, Note_on_c, 0, 58, 0
2, 45056, Note_on_c, 0, 69, 0
2, 45088, Note_on_c, 0, 72, 0
2, 45100, Note_on_c, 0, 63, 0
2, 45144, Note_on_c, 0, 70, 70
2, 45148, Note_on_c, 0, 69, 47
2, 45156, Note_on_c, 0, 66, 55
2, 45164, Note_on_c, 0, 63, 43
2, 45188, Note_on_c, 0, 57, 28
2, 45196, Note_on_c, 0, 61, 35
2, 45208, Note_on_c, 0, 69, 0
2, 45212, Note_on_c, 0, 66, 0
2, 45292, Note_on_c, 0, 70, 0
2, 45364, Note_on_c, 0, 61, 0
2, 45428, Note_on_c, 0, 57, 0
2, 45440, Note_on_c, 0, 63, 0
2, 45544, Note_on_c, 0, 63, 53
2, 45544, Note_on_c, 0, 72, 48
2, 45556, Note_on_c, 0, 66, 40
2, 45564, Note_on_c, 0, 57, 37
2, 45576, Note_on_c, 0, 72, 0
2, 45580, Note_on_c, 0, 61, 33
2, 45592, Note_on_c, 0, 66, 0
2, 45660, Note_on_c, 0, 77, 91
2, 45768, Note_on_c, 0, 57, 0
2, 45792, Note_on_c, 0, 63, 0
2, 45816, Note_on_c, 0, 61, 0
2, 45844, Note_on_c, 0, 77, 0
2, 45940, Note_on_c, 0, 75, 85
2, 45968, Note_on_c, 0, 65, 46
2, 45988, Note_on_c, 0, 60, 35
2, 46000, Note_on_c, 0, 65, 0
2, 46024, Note_on_c, 0, 60, 0
2, 46052, Note_on_c, 0, 75, 0
2, 46096, Note_on_c, 0, 74, 78
2, 46272, Note_on_c, 0, 74, 0
2, 46332, Note_on_c, 0, 75, 86
2, 46468, Note_on_c, 0, 75, 0
2, 46476, Note_on_c, 0, 74, 53
2, 46672, Note_on_c, 0, 74, 0
2, 46704, Note_on_c, 0, 73, 63
2, 46728, Note_on_c, 0, 66, 50
2, 46752, Note_on_c, 0, 56, 41
2, 46796, Note_on_c, 0, 73, 0
2, 46828, Note_on_c, 0, 66, 0
2, 46848, Note_on_c, 0, 74, 74
2, 46968, Note_on_c, 0, 56, 0
2, 47056, Note_on_c, 0, 74, 0
2, 47092, Note_on_c, 0, 65, 62
2, 47108, Note_on_c, 0, 56, 57
2, 47108, Note_on_c, 0, 66, 57
2, 47144, Note_on_c, 0, 65, 0
2, 47156, Note_on_c, 0, 66, 0
2, 47216, Note_on_c, 0, 56, 0
2, 47480, Note_on_c, 0, 70, 113
2, 47488, Note_on_c, 0, 62, 58
2, 47500, Note_on_c, 0, 65, 55
2, 47504, Note_on_c, 0, 60, 45
2, 47508, Note_on_c, 0, 55, 49
2, 47652, Note_on_c, 0, 70, 0
2, 47676, Note_on_c, 0, 72, 54
2, 47684, Note_on_c, 0, 65, 0
2, 47712, Note_on_c, 0, 60, 0
2, 47712, Note_on_c, 0, 62, 0
2, 47732, Note_on_c, 0, 70, 55
2, 47752, Note_on_c, 0, 72, 0
2, 47828, Note_on_c, 0, 62, 32
2, 47848, Note_on_c, 0, 60, 40
2, 47856, Note_on_c, 0, 69, 55
2, 47860, Note_on_c, 0, 70, 0
2, 47924, Note_on_c, 0, 69, 0
2, 47944, Note_on_c, 0, 62, 0
2, 47956, Note_on_c, 0, 60, 0
2, 47980, Note_on_c, 0, 70, 93
2, 48016, Note_on_c, 0, 55, 0
2, 48212, Note_on_c, 0, 70, 0
2, 48244, Note_on_c, 0, 65, 45
2, 48252, Note_on_c, 0, 54, 44
2, 48256, Note_on_c, 0, 60, 48
2, 48260, Note_on_c, 0, 69, 44
2, 48292, Note_on_c, 0, 69, 0
2, 48324, Note_on_c, 0, 65, 0
2, 48380, Note_on_c, 0, 70, 55
2, 48508, Note_on_c, 0, 60, 0
2, 48592, Note_on_c, 0, 70, 0
2, 48624, Note_on_c, 0, 77, 113
2, 48628, Note_on_c, 0, 65, 64
2, 48644, Note_on_c, 0, 60, 57
2, 48660, Note_on_c, 0, 65, 0
2, 48696, Note_on_c, 0, 60, 0
2, 48720, Note_on_c, 0, 77, 0
2, 48740, Note_on_c, 0, 54, 0
2, 49004, Note_on_c, 0, 74, 98
2, 49008, Note_on_c, 0, 62, 81
2, 49012, Note_on_c, 0, 69, 88
2, 49012, Note_on_c, 0, 73, 71
2, 49020, Note_on_c, 0, 65, 66
2, 49020, Note_on_c, 0, 60, 52
2, 49020, Note_on_c, 0, 67, 73
2, 49048, Note_on_c, 0, 67, 0
2, 49048, Note_on_c, 0, 73, 0
2, 49048, Note_on_c, 0, 60, 0
2, 49052, Note_on_c, 0, 65, 0
2, 49068, Note_on_c, 0, 62, 0
2, 49100, Note_on_c, 0, 69, 0
2, 49108, Note_on_c, 0, 74, 0
2, 49384, Note_on_c, 0, 70, 73
2, 49396, Note_on_c, 0, 54, 56
2, 49396, Note_on_c, 0, 63, 72
2, 49396, Note_on_c, 0, 59, 75
2, 49396, Note_on_c, 0, 55, 73
2, 49404, Note_on_c, 0, 67, 61
2, 49416, Note_on_c, 0, 54, 0
2, 49416, Note_on_c, 0, 68, 37
2, 49464, Note_on_c, 0, 68, 0
2, 49660, Note_on_c, 0, 67, 0
2, 49712, Note_on_c, 0, 70, 0
2, 49772, Note_on_c, 0, 59, 0
2, 49804, Note_on_c, 0, 63, 0
2, 49808, Note_on_c, 0, 55, 0
2, 49812, Note_on_c, 0, 51, 57
2, 49884, Note_on_c, 0, 51, 0
2, 49892, Note_on_c, 0, 58, 76
2, 49892, Note_on_c, 0, 67, 61
2, 49900, Note_on_c, 0, 53, 62
2, 49900, Note_on_c, 0, 61, 66
2, 49908, Note_on_c, 0, 63, 44
2, 50032, Note_on_c, 0, 67, 0
2, 50124, Note_on_c, 0, 58, 0
2, 50136, Note_on_c, 0, 61, 0
2, 50140, Note_on_c, 0, 63, 0
2, 50164, Note_on_c, 0, 49, 46
2, 50180, Note_on_c, 0, 53, 0
2, 50212, Note_on_c, 0, 49, 0
2, 50260, Note_on_c, 0, 51, 50
2, 50264, Note_on_c, 0, 66, 64
2, 50268, Note_on_c, 0, 61, 65
2, 50276, Note_on_c, 0, 57, 62
2, 50284, Note_on_c, 0, 63, 57
2, 50484, Note_on_c, 0, 57, 0
2, 50500, Note_on_c, 0, 66, 0
2, 50516, Note_on_c, 0, 63, 0
2, 50524, Note_on_c, 0, 49, 45
2, 50532, Note_on_c, 0, 61, 0
2, 50564, Note_on_c, 0, 51, 0
2, 50620, Note_on_c, 0, 49, 0
2, 50640, Note_on_c, 0, 50, 57
2, 50648, Note_on_c, 0, 57, 55
2, 50648, Note_on_c, 0, 65, 56
2, 50656, Note_on_c, 0, 60, 54
2, 50668, Note_on_c, 0, 62, 47
2, 50688, System_exclusive, 9, 67, 16, 76, 2, 1, 0, 1, 19, 247
2, 50688, System_exclusive, 9, 67, 16, 76, 2, 1, 32, 65, 8, 247
2, 50688, System_exclusive, 8, 67, 16, 76, 8, 0, 114, 64, 247
2, 50688, System_exclusive, 8, 67, 16, 76, 8, 0, 115, 95, 247
2, 50688, System_exclusive, 9, 67, 16, 76, 3, 0, 0, 3, 18, 247
2, 50688, System_exclusive, 8, 67, 16, 76, 3, 0, 11, 5, 247
2, 50688, System_exclusive, 8, 67, 16, 76, 3, 0, 12, 0, 247
2, 50688, System_exclusive, 9, 67, 16, 76, 2, 1, 0, 2, 17, 247
2, 50688, System_exclusive, 9, 67, 16, 76, 2, 1, 32, 65, 8, 247
2, 50688, Control_c, 0, 0, 0
2, 50688, Control_c, 0, 32, 122
2, 50688, Control_c, 0, 0, 0
2, 50688, Control_c, 0, 32, 122
2, 50688, Program_c, 0, 0
2, 50688, Control_c, 0, 7, 107
2, 50688, Control_c, 0, 10, 64
2, 50688, Control_c, 0, 11, 127
2, 50688, Control_c, 0, 91, 10
2, 50688, Control_c, 0, 93, 0
2, 50688, Control_c, 0, 94, 0
2, 50688, Control_c, 0, 101, 0
2, 50689, Control_c, 0, 100, 1
2, 50690, Control_c, 0, 6, 64
2, 50691, Control_c, 0, 38, 0
2, 50691, Control_c, 0, 71, 43
2, 50691, Control_c, 0, 74, 46
2, 50944, Note_on_c, 0, 50, 0
2, 51044, Note_on_c, 0, 57, 0
2, 51056, Note_on_c, 0, 60, 0
2, 51076, Note_on_c, 0, 65, 0
2, 51080, Note_on_c, 0, 62, 0
2, 52196, Note_on_c, 0, 70, 116
2, 52384, Note_on_c, 0, 70, 0
2, 52452, Note_on_c, 0, 70, 86
2, 52540, Note_on_c, 0, 70, 0
2, 52584, Note_on_c, 0, 69, 56
2, 52804, Note_on_c, 0, 69, 0
2, 52832, Note_on_c, 0, 70, 87
2, 52884, Note_on_c, 0, 70, 0
2, 53276, Control_c, 0, 0, 0
2, 53276, Control_c, 0, 32, 122
2, 53276, Control_c, 0, 0, 0
2, 53276, Control_c, 0, 32, 122
2, 53276, Program_c, 0, 0
2, 53284, Control_c, 0, 7, 107
2, 53284, Control_c, 0, 101, 0
2, 53285, Control_c, 0, 100, 1
2, 53286, Control_c, 0, 6, 64
2, 53287, Control_c, 0, 38, 0
2, 53292, System_exclusive, 9, 67, 16, 76, 2, 1, 0, 1, 19, 247
2, 53292, Control_c, 0, 91, 10
2, 53296, System_exclusive, 9, 67, 16, 76, 2, 1, 32, 65, 8, 247
2, 53296, System_exclusive, 8, 67, 16, 76, 8, 0, 115, 95, 247
2, 53296, Control_c, 0, 93, 0
2, 53296, Control_c, 0, 74, 46
2, 53296, Control_c, 0, 71, 43
2, 53304, System_exclusive, 9, 67, 16, 76, 3, 2, 0, 3, 18, 247
2, 53304, System_exclusive, 8, 67, 16, 76, 3, 2, 11, 5, 247
2, 53304, System_exclusive, 8, 67, 16, 76, 3, 2, 12, 0, 247
2, 53304, Control_c, 0, 11, 127
2, 53996, Note_on_c, 0, 60, 63
2, 53996, Note_on_c, 0, 58, 55
2, 53996, Note_on_c, 0, 67, 66
2, 53996, Note_on_c, 0, 63, 64
2, 54392, Note_on_c, 0, 67, 0
2, 54432, Note_on_c, 0, 60, 0
2, 54444, Note_on_c, 0, 58, 0
2, 54508, Note_on_c, 0, 74, 127
2, 54512, Note_on_c, 0, 66, 80
2, 54516, Note_on_c, 0, 57, 62
2, 54520, Note_on_c, 0, 61, 55
2, 54692, Note_on_c, 0, 74, 0
2, 54760, Note_on_c, 0, 73, 95
2, 54860, Note_on_c, 0, 73, 0
2, 54920, Note_on_c, 0, 72, 51
2, 54924, Note_on_c, 0, 57, 0
2, 54924, Note_on_c, 0, 66, 0
2, 55108, Note_on_c, 0, 61, 0
2, 55112, Note_on_c, 0, 72, 0
2, 55120, Note_on_c, 0, 63, 0
2, 55136, Note_on_c, 0, 70, 80
2, 55156, Note_on_c, 0, 62, 65
2, 55164, Note_on_c, 0, 60, 60
2, 55168, Note_on_c, 0, 65, 55
2, 55208, Note_on_c, 0, 65, 0
2, 55232, Note_on_c, 0, 55, 22
2, 55256, Note_on_c, 0, 70, 0
2, 55276, Note_on_c, 0, 65, 7
2, 55304, Note_on_c, 0, 69, 55
2, 55532, Note_on_c, 0, 65, 0
2, 55532, Note_on_c, 0, 70, 62
2, 55548, Note_on_c, 0, 69, 0
2, 55600, Note_on_c, 0, 62, 0
2, 55600, Note_on_c, 0, 60, 0
2, 55604, Note_on_c, 0, 70, 0
2, 55652, Note_on_c, 0, 72, 88
2, 55656, Note_on_c, 0, 55, 0
2, 55856, Note_on_c, 0, 72, 0
2, 55900, Note_on_c, 0, 73, 82
2, 55912, Note_on_c, 0, 55, 67
2, 55912, Note_on_c, 0, 58, 67
2, 55916, Note_on_c, 0, 62, 53
2, 55956, Note_on_c, 0, 62, 0
2, 56004, Note_on_c, 0, 55, 0
2, 56020, Note_on_c, 0, 58, 0
2, 56032, Note_on_c, 0, 73, 0
2, 56068, Note_on_c, 0, 74, 58
2, 56288, Note_on_c, 0, 77, 86
2, 56292, Note_on_c, 0, 74, 0
2, 56348, Note_on_c, 0, 77, 0
2, 56676, Note_on_c, 0, 85, 109
2, 56680, Note_on_c, 0, 73, 113
2, 56692, Note_on_c, 0, 63, 63
2, 56692, Note_on_c, 0, 67, 80
2, 56696, Note_on_c, 0, 62, 80
2, 56696, Note_on_c, 0, 58, 73
2, 56720, Note_on_c, 0, 58, 0
2, 56724, Note_on_c, 0, 67, 0
2, 56732, Note_on_c, 0, 62, 0
2, 56760, Note_on_c, 0, 63, 0
2, 56808, Note_on_c, 0, 85, 0
2, 56836, Note_on_c, 0, 73, 0
2, 56860, Note_on_c, 0, 74, 55
2, 56928, Note_on_c, 0, 74, 0
2, 56956, Note_on_c, 0, 86, 53
2, 56996, Note_on_c, 0, 86, 0
2, 57036, Note_on_c, 0, 74, 57
2, 57120, Note_on_c, 0, 74, 0
2, 57140, Note_on_c, 0, 86, 47
2, 57180, Note_on_c, 0, 86, 0
2, 57204, Note_on_c, 0, 74, 50
2, 57308, Note_on_c, 0, 74, 0
2, 57308, Note_on_c, 0, 86, 48
2, 57376, Note_on_c, 0, 86, 0
2, 57388, Note_on_c, 0, 74, 51
2, 57420, Note_on_c, 0, 66, 77
2, 57436, Note_on_c, 0, 63, 54
2, 57444, Note_on_c, 0, 66, 0
2, 57444, Note_on_c, 0, 61, 44
2, 57468, Note_on_c, 0, 63, 0
2, 57476, Note_on_c, 0, 61, 0
2, 57484, Note_on_c, 0, 74, 0
2, 57488, Note_on_c, 0, 86, 47
2, 57552, Note_on_c, 0, 86, 0
2, 57556, Note_on_c, 0, 74, 55
2, 57640, Note_on_c, 0, 74, 0
2, 57652, Note_on_c, 0, 86, 51
2, 57712, Note_on_c, 0, 86, 0
2, 57720, Note_on_c, 0, 74, 47
2, 57808, Note_on_c, 0, 74, 0
2, 57820, Note_on_c, 0, 86, 51
2, 57868, Note_on_c, 0, 86, 0
2, 57884, Note_on_c, 0, 74, 55
2, 57968, Note_on_c, 0, 86, 60
2, 57972, Note_on_c, 0, 74, 0
2, 58048, Note_on_c, 0, 74, 41
2, 58064, Note_on_c, 0, 86, 0
2, 58192, Note_on_c, 0, 63, 68
2, 58200, Note_on_c, 0, 60, 68
2, 58200, Note_on_c, 0, 67, 69
2, 58212, Note_on_c, 0, 74, 0
2, 58224, Note_on_c, 0, 81, 56
2, 58240, Note_on_c, 0, 86, 76
2, 58248, Note_on_c, 0, 55, 35
2, 58284, Note_on_c, 0, 77, 6
2, 58396, Note_on_c, 0, 74, 9
2, 58428, Note_on_c, 0, 60, 0
2, 58468, Note_on_c, 0, 77, 0
2, 58500, Note_on_c, 0, 63, 0
2, 58516, Note_on_c, 0, 74, 0
2, 58516, Note_on_c, 0, 86, 0
2, 58516, Note_on_c, 0, 81, 0
2, 58544, Note_on_c, 0, 67, 0
2, 58556, Note_on_c, 0, 55, 0
2, 58616, Note_on_c, 0, 75, 105
2, 58620, Note_on_c, 0, 87, 95
2, 58624, Note_on_c, 0, 82, 94
2, 58628, Note_on_c, 0, 63, 68
2, 58636, Note_on_c, 0, 67, 81
2, 58648, Note_on_c, 0, 55, 59
2, 58648, Note_on_c, 0, 57, 50
2, 58648, Note_on_c, 0, 60, 64
2, 58652, Note_on_c, 0, 56, 43
2, 58692, Note_on_c, 0, 85, 23
2, 58716, Note_on_c, 0, 67, 0
2, 58732, Note_on_c, 0, 57, 0
2, 58736, Note_on_c, 0, 56, 0
2, 58736, Note_on_c, 0, 55, 0
2, 58764, Note_on_c, 0, 75, 0
2, 58764, Note_on_c, 0, 60, 0
2, 58776, Note_on_c, 0, 63, 0
2, 58776, Note_on_c, 0, 82, 0
2, 58776, Note_on_c, 0, 87, 0
2, 58804, Note_on_c, 0, 63, 35
2, 58820, Note_on_c, 0, 67, 62
2, 58828, Note_on_c, 0, 88, 74
2, 58828, Note_on_c, 0, 82, 92
2, 58832, Note_on_c, 0, 76, 77
2, 58840, Note_on_c, 0, 55, 35
2, 58840, Note_on_c, 0, 57, 34
2, 58844, Note_on_c, 0, 60, 50
2, 58844, Note_on_c, 0, 86, 62
2, 58860, Note_on_c, 0, 58, 45
2, 58876, Note_on_c, 0, 86, 0
2, 58912, Note_on_c, 0, 57, 0
2, 58912, Note_on_c, 0, 55, 0
2, 58924, Note_on_c, 0, 67, 0
2, 58928, Note_on_c, 0, 76, 0
2, 58948, Note_on_c, 0, 88, 0
2, 58952, Note_on_c, 0, 85, 0
2, 58956, Note_on_c, 0, 58, 0
2, 58968, Note_on_c, 0, 82, 0
2, 58976, Note_on_c, 0, 63, 0
2, 59016, Note_on_c, 0, 66, 91
2, 59020, Note_on_c, 0, 84, 90
2, 59020, Note_on_c, 0, 89, 101
2, 59024, Note_on_c, 0, 77, 93
2, 59024, Note_on_c, 0, 56, 72
2, 59028, Note_on_c, 0, 62, 71
2, 59104, Note_on_c, 0, 77, 0
2, 59132, Note_on_c, 0, 89, 0
2, 59132, Note_on_c, 0, 84, 0
2, 59136, Note_on_c, 0, 66, 0
2, 59136, Note_on_c, 0, 56, 0
2, 59164, Note_on_c, 0, 60, 0
2, 59208, Note_on_c, 0, 91, 99
2, 59208, Note_on_c, 0, 66, 70
2, 59212, Note_on_c, 0, 85, 84
2, 59216, Note_on_c, 0, 56, 64
2, 59216, Note_on_c, 0, 79, 73
2, 59244, Note_on_c, 0, 60, 48
2, 59280, Note_on_c, 0, 60, 0
2, 59284, Note_on_c, 0, 85, 0
2, 59288, Note_on_c, 0, 86, 68
2, 59336, Note_on_c, 0, 89, 6
2, 59376, Note_on_c, 0, 86, 0
2, 59392, Note_on_c, 0, 66, 0
2, 59392, Note_on_c, 0, 91, 0
2, 59396, Note_on_c, 0, 89, 0
2, 59404, Note_on_c, 0, 56, 0
2, 59436, Note_on_c, 0, 79, 0
2, 59472, Note_on_c, 0, 56, 61
2, 59476, Note_on_c, 0, 66, 73
2, 59484, Note_on_c, 0, 79, 49
2, 59484, Note_on_c, 0, 91, 62
2, 59484, Note_on_c, 0, 89, 61
2, 59508, Note_on_c, 0, 60, 44
2, 59532, Note_on_c, 0, 86, 53
2, 59580, Note_on_c, 0, 88, 38
2, 59592, Note_on_c, 0, 91, 0
2, 59592, Note_on_c, 0, 79, 0
2, 59624, Note_on_c, 0, 86, 0
2, 59624, Note_on_c, 0, 88, 0
2, 59636, Note_on_c, 0, 89, 0
2, 59652, Note_on_c, 0, 66, 0
2, 59680, Note_on_c, 0, 60, 0
2, 59692, Note_on_c, 0, 56, 0
2, 59700, Note_on_c, 0, 62, 0
2, 59740, Note_on_c, 0, 62, 34
2, 59740, Note_on_c, 0, 86, 85
2, 59744, Note_on_c, 0, 65, 76
2, 59748, Note_on_c, 0, 74, 79
2, 59748, Note_on_c, 0, 60, 41
2, 59760, Note_on_c, 0, 55, 62
2, 59776, Note_on_c, 0, 82, 43
2, 59868, Note_on_c, 0, 82, 0
2, 59988, Note_on_c, 0, 65, 0
2, 59996, Note_on_c, 0, 62, 0
2, 60008, Note_on_c, 0, 74, 0
2, 60028, Note_on_c, 0, 82, 76
2, 60040, Note_on_c, 0, 65, 25
2, 60064, Note_on_c, 0, 62, 32
2, 60072, Note_on_c, 0, 86, 0
2, 60096, Note_on_c, 0, 65, 0
2, 60120, Note_on_c, 0, 62, 0
2, 60128, Note_on_c, 0, 82, 0
2, 60152, Note_on_c, 0, 60, 0
2, 60160, Note_on_c, 0, 79, 60
2, 60196, Note_on_c, 0, 58, 1
2, 60252, Note_on_c, 0, 79, 0
2, 60280, Note_on_c, 0, 74, 43
2, 60304, Note_on_c, 0, 55, 0
2, 60336, Note_on_c, 0, 58, 0
2, 60484, Note_on_c, 0, 74, 0
2, 60520, Note_on_c, 0, 65, 55
2, 60528, Note_on_c, 0, 58, 46
2, 60532, Note_on_c, 0, 60, 53
2, 60532, Note_on_c, 0, 82, 68
2, 60540, Note_on_c, 0, 54, 51
2, 60788, Note_on_c, 0, 82, 0
2, 60800, Note_on_c, 0, 77, 64
2, 60868, Note_on_c, 0, 77, 0
2, 60916, Note_on_c, 0, 72, 51
2, 60944, Note_on_c, 0, 65, 0
2, 60988, Note_on_c, 0, 72, 0
2, 61036, Note_on_c, 0, 60, 0
2, 61052, Note_on_c, 0, 58, 0
2, 61116, Note_on_c, 0, 54, 0
2, 61344, Note_on_c, 0, 53, 32
2, 61400, Note_on_c, 0, 53, 0
2, 61544, Note_on_c, 0, 69, 60
2, 61544, Note_on_c, 0, 60, 70
2, 61552, Note_on_c, 0, 62, 61
2, 61556, Note_on_c, 0, 65, 51
2, 61568, Note_on_c, 0, 60, 0
2, 61572, Note_on_c, 0, 57, 60
2, 61576, Note_on_c, 0, 62, 0
2, 61592, Note_on_c, 0, 65, 0
2, 61592, Note_on_c, 0, 69, 0
2, 61604, Note_on_c, 0, 57, 0
2, 61692, Note_on_c, 0, 54, 44
2, 61792, Note_on_c, 0, 54, 0
2, 61804, Note_on_c, 0, 68, 64
2, 61808, Note_on_c, 0, 59, 65
2, 61816, Note_on_c, 0, 63, 64
2, 61820, Note_on_c, 0, 56, 66
2, 61820, Note_on_c, 0, 65, 59
2, 61848, Note_on_c, 0, 65, 0
2, 61856, Note_on_c, 0, 59, 0
2, 61872, Note_on_c, 0, 68, 0
2, 61900, Note_on_c, 0, 56, 0
2, 61908, Note_on_c, 0, 63, 0
2, 61956, Note_on_c, 0, 54, 48
2, 62056, Note_on_c, 0, 67, 74
2, 62064, Note_on_c, 0, 58, 74
2, 62064, Note_on_c, 0, 63, 67
2, 62076, Note_on_c, 0, 54, 0
2, 62096, Note_on_c, 0, 55, 62
2, 62128, Note_on_c, 0, 67, 0
2, 62168, Note_on_c, 0, 58, 0
2, 62180, Note_on_c, 0, 63, 0
2, 62196, Note_on_c, 0, 55, 0
2, 62228, Note_on_c, 0, 51, 57
2, 62308, Note_on_c, 0, 51, 0
2, 62312, Note_on_c, 0, 66, 76
2, 62320, Note_on_c, 0, 57, 76
2, 62324, Note_on_c, 0, 61, 64
2, 62328, Note_on_c, 0, 63, 55
2, 62340, Note_on_c, 0, 54, 57
2, 62396, Note_on_c, 0, 57, 0
2, 62400, Note_on_c, 0, 66, 0
2, 62408, Note_on_c, 0, 63, 0
2, 62420, Note_on_c, 0, 61, 0
2, 62444, Note_on_c, 0, 54, 0
2, 62480, Note_on_c, 0, 51, 55
2, 62568, Note_on_c, 0, 51, 0
2, 62580, Note_on_c, 0, 65, 62
2, 62588, Note_on_c, 0, 57, 62
2, 62592, Note_on_c, 0, 60, 62
2, 62600, Note_on_c, 0, 53, 60
2, 62616, Note_on_c, 0, 62, 30
2, 62636, Note_on_c, 0, 65, 0
2, 62648, Note_on_c, 0, 62, 0
2, 62656, Note_on_c, 0, 60, 0
2, 62680, Note_on_c, 0, 53, 0
2, 62696, Note_on_c, 0, 57, 0
2, 62772, Note_on_c, 0, 48, 48
2, 62800, Note_on_c, 0, 48, 0
2, 62824, Note_on_c, 0, 62, 89
2, 62828, Note_on_c, 0, 49, 56
2, 62828, Note_on_c, 0, 53, 86
2, 62828, Note_on_c, 0, 58, 76
2, 62836, Note_on_c, 0, 55, 78
2, 62856, Note_on_c, 0, 49, 0
2, 62856, Note_on_c, 0, 50, 71
2, 63236, Note_on_c, 0, 55, 0
2, 63244, Note_on_c, 0, 62, 0
2, 63264, Note_on_c, 0, 58, 0
2, 63276, Note_on_c, 0, 53, 0
2, 63348, Note_on_c, 0, 50, 0
2, 63348, Note_on_c, 0, 49, 56
2, 63360, Note_on_c, 0, 61, 53
2, 63364, Note_on_c, 0, 58, 35
2, 63364, Note_on_c, 0, 53, 43
2, 63448, Note_on_c, 0, 61, 0
2, 63508, Note_on_c, 0, 53, 0
2, 63536, Note_on_c, 0, 58, 0
2, 63596, Note_on_c, 0, 49, 0
2, 63596, Note_on_c, 0, 58, 40
2, 63600, Note_on_c, 0, 53, 62
2, 63604, Note_on_c, 0, 62, 64
2, 63612, Note_on_c, 0, 50, 60
2, 63624, Note_on_c, 0, 53, 0
2, 63636, Note_on_c, 0, 62, 0
2, 63664, Note_on_c, 0, 58, 0
2, 63680, Note_on_c, 0, 50, 0
2, 63732, Note_on_c, 0, 56, 89
2, 63736, Note_on_c, 0, 64, 86
2, 63740, Note_on_c, 0, 55, 73
2, 63740, Note_on_c, 0, 53, 73
2, 63752, Note_on_c, 0, 52, 64
2, 63764, Note_on_c, 0, 50, 35
2, 63776, Note_on_c, 0, 52, 0
2, 63780, Note_on_c, 0, 62, 33
2, 63796, Note_on_c, 0, 50, 0
2, 63816, Note_on_c, 0, 62, 0
2, 63868, Note_on_c, 0, 56, 0
2, 63900, Note_on_c, 0, 64, 0
2, 63916, Note_on_c, 0, 55, 0
2, 63992, Note_on_c, 0, 51, 61
2, 64000, Note_on_c, 0, 53, 0
2, 64000, Note_on_c, 0, 49, 28
2, 64048, Note_on_c, 0, 52, 40
2, 64060, Note_on_c, 0, 49, 0
2, 64080, Note_on_c, 0, 52, 0
2, 64084, Note_on_c, 0, 51, 0
2, 64096, Note_on_c, 0, 58, 73
2, 64100, Note_on_c, 0, 55, 76
2, 64108, Note_on_c, 0, 65, 67
2, 64108, Note_on_c, 0, 61, 67
2, 64108, Note_on_c, 0, 53, 72
2, 64120, Note_on_c, 0, 63, 60
2, 64220, Note_on_c, 0, 65, 0
2, 64240, Note_on_c, 0, 55, 0
2, 64292, Note_on_c, 0, 58, 0
2, 64296, Note_on_c, 0, 61, 0
2, 64316, Note_on_c, 0, 63, 0
2, 64328, Note_on_c, 0, 53, 0
2, 64364, Note_on_c, 0, 51, 68
2, 64488, Note_on_c, 0, 51, 0
2, 64500, Note_on_c, 0, 65, 80
2, 64500, Note_on_c, 0, 57, 74
2, 64508, Note_on_c, 0, 53, 69
2, 64524, Note_on_c, 0, 60, 56
2, 64608, Note_on_c, 0, 57, 0
2, 64628, Note_on_c, 0, 60, 0
2, 64652, Note_on_c, 0, 65, 0
2, 64684, Note_on_c, 0, 53, 0
2, 64756, Note_on_c, 0, 70, 88
2, 64768, Note_on_c, 0, 65, 67
2, 64772, Note_on_c, 0, 55, 76
2, 64780, Note_on_c, 0, 60, 38
2, 64792, Note_on_c, 0, 62, 46
2, 64828, Note_on_c, 0, 60, 0
2, 64836, Note_on_c, 0, 62, 0
2, 64844, Note_on_c, 0, 65, 0
2, 64856, Note_on_c, 0, 55, 0
2, 64872, Note_on_c, 0, 70, 0
2, 64928, Note_on_c, 0, 57, 54
2, 64944, Note_on_c, 0, 66, 62
2, 64948, Note_on_c, 0, 72, 87
2, 64960, Note_on_c, 0, 64, 70
2, 64976, Note_on_c, 0, 66, 0
2, 65072, Note_on_c, 0, 64, 0
2, 65072, Note_on_c, 0, 72, 0
2, 65096, Note_on_c, 0, 57, 0
2, 65220, Note_on_c, 0, 58, 58
2, 65240, Note_on_c, 0, 58, 0
2, 65280, Note_on_c, 0, 70, 90
2, 65280, Note_on_c, 0, 77, 98
2, 65284, Note_on_c, 0, 67, 92
2, 65284, Note_on_c, 0, 74, 82
2, 65292, Note_on_c, 0, 62, 80
2, 65448, Note_on_c, 0, 74, 0
2, 65528, Note_on_c, 0, 70, 0
2, 65532, Note_on_c, 0, 67, 0
2, 65580, Note_on_c, 0, 77, 0
2, 65588, Note_on_c, 0, 62, 0
2, 65640, Note_on_c, 0, 67, 68
2, 65644, Note_on_c, 0, 70, 68
2, 65652, Note_on_c, 0, 59, 47
2, 65660, Note_on_c, 0, 74, 63
2, 65832, Note_on_c, 0, 74, 0
2, 65852, Note_on_c, 0, 67, 0
2, 65876, Note_on_c, 0, 70, 0
2, 65928, Note_on_c, 0, 58, 42
2, 65944, Note_on_c, 0, 59, 0
2, 65988, Note_on_c, 0, 58, 0
2, 66012, Note_on_c, 0, 75, 82
2, 66020, Note_on_c, 0, 60, 60
2, 66024, Note_on_c, 0, 70, 73
2, 66028, Note_on_c, 0, 67, 68
2, 66224, Note_on_c, 0, 67, 0
2, 66228, Note_on_c, 0, 75, 0
2, 66232, Note_on_c, 0, 60, 0
2, 66284, Note_on_c, 0, 77, 70
2, 66284, Note_on_c, 0, 62, 58
2, 66296, Note_on_c, 0, 75, 65
2, 66304, Note_on_c, 0, 70, 0
2, 66324, Note_on_c, 0, 77, 0
2, 66332, Note_on_c, 0, 75, 0
2, 66364, Note_on_c, 0, 62, 0
2, 66404, Note_on_c, 0, 73, 63
2, 66416, Note_on_c, 0, 79, 58
2, 66420, Note_on_c, 0, 69, 70
2, 66420, Note_on_c, 0, 63, 88
2, 66424, Note_on_c, 0, 75, 54
2, 66428, Note_on_c, 0, 77, 60
2, 66544, Note_on_c, 0, 77, 0
2, 66548, Note_on_c, 0, 79, 0
2, 66596, Note_on_c, 0, 73, 0
2, 66596, Note_on_c, 0, 69, 0
2, 66628, Note_on_c, 0, 63, 0
2, 66628, Note_on_c, 0, 75, 0
2, 66672, Note_on_c, 0, 73, 84
2, 66672, Note_on_c, 0, 80, 101
2, 66676, Note_on_c, 0, 75, 91
2, 66676, Note_on_c, 0, 69, 87
2, 66676, Note_on_c, 0, 68, 99
2, 67032, Note_on_c, 0, 73, 0
2, 67036, Note_on_c, 0, 75, 0
2, 67068, Note_on_c, 0, 78, 76
2, 67072, Note_on_c, 0, 66, 74
2, 67076, Note_on_c, 0, 68, 0
2, 67076, Note_on_c, 0, 73, 44
2, 67076, Note_on_c, 0, 75, 49
2, 67128, Note_on_c, 0, 80, 0
2, 67180, Note_on_c, 0, 69, 0
2, 67188, Note_on_c, 0, 75, 0
2, 67204, Note_on_c, 0, 73, 0
2, 67216, Note_on_c, 0, 66, 0
2, 67244, Note_on_c, 0, 65, 55
2, 67256, Note_on_c, 0, 69, 44
2, 67340, Note_on_c, 0, 78, 0
2, 67396, Note_on_c, 0, 69, 0
2, 67436, Note_on_c, 0, 65, 0
2, 67460, Note_on_c, 0, 63, 60
2, 67468, Note_on_c, 0, 75, 52
2, 67484, Note_on_c, 0, 73, 23
2, 67544, Note_on_c, 0, 73, 0
2, 67552, Note_on_c, 0, 75, 0
2, 67564, Note_on_c, 0, 63, 0
2, 67592, Note_on_c, 0, 69, 55
2, 67592, Note_on_c, 0, 62, 55
2, 67600, Note_on_c, 0, 77, 51
2, 67760, Note_on_c, 0, 69, 0
2, 67784, Note_on_c, 0, 77, 0
2, 67796, Note_on_c, 0, 62, 0
2, 68220, Note_on_c, 0, 62, 56
2, 68228, Note_on_c, 0, 58, 61
2, 68240, Note_on_c, 0, 55, 37
2, 68260, Note_on_c, 0, 62, 0
2, 68276, Note_on_c, 0, 55, 0
2, 68308, Note_on_c, 0, 58, 0
2, 68500, Note_on_c, 0, 69, 59
2, 68572, Note_on_c, 0, 69, 0
2, 68616, Note_on_c, 0, 70, 56
2, 68660, Note_on_c, 0, 70, 0
2, 68760, Note_on_c, 0, 74, 55
2, 68792, Note_on_c, 0, 74, 0
2, 68868, Note_on_c, 0, 79, 74
2, 68932, Note_on_c, 0, 79, 0
2, 68992, Note_on_c, 0, 82, 93
2, 69052, Note_on_c, 0, 67, 29
2, 69056, Note_on_c, 0, 63, 46
2, 69060, Note_on_c, 0, 60, 47
2, 69060, Note_on_c, 0, 58, 33
2, 69096, Note_on_c, 0, 82, 0
2, 69112, Note_on_c, 0, 58, 0
2, 69116, Note_on_c, 0, 67, 0
2, 69148, Note_on_c, 0, 86, 107
2, 69228, Note_on_c, 0, 60, 0
2, 69260, Note_on_c, 0, 82, 56
2, 69264, Note_on_c, 0, 86, 0
2, 69272, Note_on_c, 0, 63, 0
2, 69328, Note_on_c, 0, 79, 70
2, 69336, Note_on_c, 0, 82, 0
2, 69412, Note_on_c, 0, 79, 0
2, 69416, Note_on_c, 0, 75, 60
2, 69436, Note_on_c, 0, 63, 43
2, 69456, Note_on_c, 0, 75, 0
2, 69456, Note_on_c, 0, 60, 37
2, 69500, Note_on_c, 0, 63, 0
2, 69512, Note_on_c, 0, 74, 57
2, 69528, Note_on_c, 0, 60, 0
2, 69548, Note_on_c, 0, 74, 0
2, 70120, Note_on_c, 0, 66, 75
2, 70140, Note_on_c, 0, 61, 50
2, 70140, Note_on_c, 0, 63, 47
2, 70152, Note_on_c, 0, 66, 0
2, 70172, Note_on_c, 0, 63, 0
2, 70172, Note_on_c, 0, 61, 0
2, 70432, Note_on_c, 0, 82, 102
2, 70500, Note_on_c, 0, 82, 0
2, 70516, Note_on_c, 0, 63, 37
2, 70548, Note_on_c, 0, 83, 80
2, 70568, Note_on_c, 0, 63, 0
2, 70648, Note_on_c, 0, 83, 0
2, 70668, Note_on_c, 0, 84, 77
2, 70728, Note_on_c, 0, 84, 0
2, 70792, Note_on_c, 0, 85, 99
2, 70876, Note_on_c, 0, 85, 0
2, 70908, Note_on_c, 0, 86, 111
2, 71016, Note_on_c, 0, 86, 0
2, 71048, Note_on_c, 0, 87, 102
2, 71168, Note_on_c, 0, 87, 0
2, 71168, Note_on_c, 0, 85, 77
2, 71256, Note_on_c, 0, 85, 0
2, 71288, Note_on_c, 0, 86, 102
2, 71396, Note_on_c, 0, 86, 0
2, 71420, Note_on_c, 0, 84, 77
2, 71520, Note_on_c, 0, 84, 0
2, 71560, Note_on_c, 0, 81, 80
2, 71608, Note_on_c, 0, 81, 0
2, 71808, Note_on_c, 0, 56, 79
2, 71808, Note_on_c, 0, 66, 78
2, 71820, Note_on_c, 0, 63, 30
2, 71820, Note_on_c, 0, 60, 57
2, 71984, Note_on_c, 0, 63, 0
2, 72028, Note_on_c, 0, 66, 0
2, 72032, Note_on_c, 0, 60, 0
2, 72068, Note_on_c, 0, 65, 75
2, 72068, Note_on_c, 0, 60, 36
2, 72068, Note_on_c, 0, 62, 55
2, 72080, Note_on_c, 0, 56, 0
2, 72092, Note_on_c, 0, 55, 62
2, 72448, Note_on_c, 0, 82, 114
2, 72452, Note_on_c, 0, 70, 107
2, 72484, Note_on_c, 0, 58, 1
2, 72500, Note_on_c, 0, 70, 0
2, 72504, Note_on_c, 0, 65, 0
2, 72548, Note_on_c, 0, 62, 0
2, 72568, Note_on_c, 0, 82, 0
2, 72568, Note_on_c, 0, 70, 65
2, 72576, Note_on_c, 0, 60, 0
2, 72636, Note_on_c, 0, 55, 0
2, 72652, Note_on_c, 0, 70, 0
2, 72652, Note_on_c, 0, 82, 51
2, 72664, Note_on_c, 0, 58, 0
2, 72736, Note_on_c, 0, 70, 47
2, 72748, Note_on_c, 0, 82, 0
2, 72836, Note_on_c, 0, 70, 0
2, 72840, Note_on_c, 0, 82, 53
2, 72848, Note_on_c, 0, 65, 53
2, 72852, Note_on_c, 0, 54, 60
2, 72864, Note_on_c, 0, 60, 56
2, 72872, Note_on_c, 0, 58, 33
2, 72908, Note_on_c, 0, 82, 0
2, 72924, Note_on_c, 0, 70, 50
2, 72928, Note_on_c, 0, 58, 0
2, 73008, Note_on_c, 0, 82, 46
2, 73016, Note_on_c, 0, 70, 0
2, 73096, Note_on_c, 0, 60, 0
2, 73100, Note_on_c, 0, 82, 0
2, 73136, Note_on_c, 0, 70, 53
2, 73180, Note_on_c, 0, 82, 44
2, 73204, Note_on_c, 0, 65, 0
2, 73208, Note_on_c, 0, 60, 43
2, 73216, Note_on_c, 0, 82, 0
2, 73228, Note_on_c, 0, 70, 0
2, 73252, Note_on_c, 0, 60, 0
2, 73304, Note_on_c, 0, 68, 69
2, 73304, Note_on_c, 0, 80, 64
2, 73328, Note_on_c, 0, 75, 62
2, 73328, Note_on_c, 0, 60, 53
2, 73440, Note_on_c, 0, 60, 0
2, 73480, Note_on_c, 0, 54, 0
2, 73512, Note_on_c, 0, 68, 0
2, 73520, Note_on_c, 0, 80, 0
2, 73540, Note_on_c, 0, 75, 0
2, 73592, Note_on_c, 0, 81, 70
2, 73600, Note_on_c, 0, 77, 71
2, 73600, Note_on_c, 0, 50, 68
2, 73600, Note_on_c, 0, 69, 49
2, 73608, Note_on_c, 0, 60, 55
2, 73616, Note_on_c, 0, 81, 0
2, 73624, Note_on_c, 0, 50, 0
2, 73624, Note_on_c, 0, 75, 31
2, 73632, Note_on_c, 0, 60, 0
2, 73632, Note_on_c, 0, 77, 0
2, 73656, Note_on_c, 0, 75, 0
2, 73660, Note_on_c, 0, 69, 0
2, 73752, Note_on_c, 0, 64, 76
2, 73752, Note_on_c, 0, 79, 76
2, 73752, Note_on_c, 0, 76, 76
2, 73752, Note_on_c, 0, 67, 64
2, 73772, Note_on_c, 0, 72, 57
2, 73884, Note_on_c, 0, 77, 37
2, 73948, Note_on_c, 0, 76, 0
2, 73952, Note_on_c, 0, 67, 0
2, 73984, Note_on_c, 0, 72, 0
2, 73988, Note_on_c, 0, 79, 0
2, 74000, Note_on_c, 0, 77, 0
2, 74060, Note_on_c, 0, 64, 0
2, 74072, Note_on_c, 0, 78, 68
2, 74072, Note_on_c, 0, 69, 62
2, 74080, Note_on_c, 0, 63, 65
2, 74080, Note_on_c, 0, 75, 61
2, 74100, Note_on_c, 0, 72, 46
2, 74244, Note_on_c, 0, 72, 0
2, 74268, Note_on_c, 0, 69, 0
2, 74284, Note_on_c, 0, 78, 0
2, 74296, Note_on_c, 0, 75, 0
2, 74328, Note_on_c, 0, 63, 0
2, 74336, Note_on_c, 0, 77, 68
2, 74340, Note_on_c, 0, 72, 58
2, 74344, Note_on_c, 0, 69, 64
2, 74356, Note_on_c, 0, 62, 53
2, 74372, Note_on_c, 0, 77, 0
2, 74400, Note_on_c, 0, 72, 0
2, 74436, Note_on_c, 0, 69, 0
2, 74500, Note_on_c, 0, 62, 0
2, 74508, Note_on_c, 0, 76, 47
2, 74516, Note_on_c, 0, 61, 57
2, 74524, Note_on_c, 0, 71, 45
2, 74528, Note_on_c, 0, 67, 52
2, 74636, Note_on_c, 0, 71, 0
2, 74648, Note_on_c, 0, 76, 0
2, 74664, Note_on_c, 0, 67, 0
2, 74716, Note_on_c, 0, 61, 0
2, 74740, Note_on_c, 0, 75, 68
2, 74740, Note_on_c, 0, 70, 70
2, 74744, Note_on_c, 0, 65, 58
2, 74744, Note_on_c, 0, 60, 67
2, 74800, Note_on_c, 0, 70, 0
2, 74828, Note_on_c, 0, 65, 0
2, 74836, Note_on_c, 0, 75, 0
2, 74836, Note_on_c, 0, 60, 0
2, 74884, Note_on_c, 0, 59, 41
2, 75040, Note_on_c, 0, 59, 0
2, 75108, Note_on_c, 0, 73, 79
2, 75116, Note_on_c, 0, 68, 78
2, 75128, Note_on_c, 0, 58, 64
2, 75164, Note_on_c, 0, 58, 0
2, 75208, Note_on_c, 0, 68, 0
2, 75212, Note_on_c, 0, 73, 0
2, 75244, Note_on_c, 0, 68, 44
2, 75252, Note_on_c, 0, 60, 57
2, 75272, Note_on_c, 0, 74, 58
2, 75292, Note_on_c, 0, 65, 27
2, 75300, Note_on_c, 0, 74, 0
2, 75300, Note_on_c, 0, 68, 0
2, 75376, Note_on_c, 0, 65, 0
2, 75404, Note_on_c, 0, 60, 0
2, 75488, Note_on_c, 0, 58, 56
2, 75500, Note_on_c, 0, 70, 57
2, 75516, Note_on_c, 0, 62, 35
2, 75520, Note_on_c, 0, 65, 40
2, 75532, Note_on_c, 0, 67, 42
2, 75572, Note_on_c, 0, 58, 0
2, 75576, Note_on_c, 0, 62, 0
2, 75604, Note_on_c, 0, 65, 0
2, 75608, Note_on_c, 0, 67, 0
2, 75624, Note_on_c, 0, 58, 47
2, 75648, Note_on_c, 0, 70, 0
2, 75680, Note_on_c, 0, 65, 44
2, 75700, Note_on_c, 0, 58, 0
2, 75720, Note_on_c, 0, 65, 0
2, 75788, Note_on_c, 0, 67, 84
2, 75864, Note_on_c, 0, 67, 0
2, 75908, Note_on_c, 0, 68, 111
2, 76020, Note_on_c, 0, 68, 0
2, 76056, Note_on_c, 0, 70, 65
2, 76120, Note_on_c, 0, 70, 0
2, 76164, Note_on_c, 0, 72, 67
2, 76236, Note_on_c, 0, 72, 0
2, 76284, Note_on_c, 0, 74, 85
2, 76296, Note_on_c, 0, 66, 69
2, 76324, Note_on_c, 0, 62, 42
2, 76324, Note_on_c, 0, 56, 47
2, 76352, Note_on_c, 0, 60, 43
2, 76376, Note_on_c, 0, 74, 0
2, 76416, Note_on_c, 0, 75, 67
2, 76476, Note_on_c, 0, 75, 0
2, 76532, Note_on_c, 0, 77, 70
2, 76556, Note_on_c, 0, 60, 0
2, 76572, Note_on_c, 0, 66, 0
2, 76596, Note_on_c, 0, 62, 0
2, 76608, Note_on_c, 0, 77, 0
2, 76628, Note_on_c, 0, 56, 0
2, 76656, Note_on_c, 0, 62, 61
2, 76656, Note_on_c, 0, 79, 109
2, 76664, Note_on_c, 0, 65, 78
2, 76664, Note_on_c, 0, 60, 69
2, 76680, Note_on_c, 0, 55, 66
2, 76760, Note_on_c, 0, 79, 0
2, 76800, Note_on_c, 0, 82, 113
2, 76956, Note_on_c, 0, 82, 0
2, 77044, Note_on_c, 0, 82, 101
2, 77112, Note_on_c, 0, 65, 0
2, 77132, Note_on_c, 0, 82, 0
2, 77148, Note_on_c, 0, 62, 0
2, 77156, Note_on_c, 0, 60, 0
2, 77192, Note_on_c, 0, 55, 0
2, 77220, Note_on_c, 0, 79, 64
2, 77292, Note_on_c, 0, 79, 0
2, 77436, Note_on_c, 0, 79, 88
2, 77500, Note_on_c, 0, 79, 0
2, 77604, Note_on_c, 0, 74, 48
2, 77740, Note_on_c, 0, 74, 0
2, 77812, Note_on_c, 0, 77, 76
2, 77836, Note_on_c, 0, 67, 47
2, 77840, Note_on_c, 0, 63, 52
2, 77868, Note_on_c, 0, 67, 0
2, 77872, Note_on_c, 0, 60, 24
2, 77892, Note_on_c, 0, 77, 0
2, 77904, Note_on_c, 0, 60, 0
2, 77924, Note_on_c, 0, 63, 0
2, 77960, Note_on_c, 0, 75, 61
2, 78192, Note_on_c, 0, 75, 0
2, 78204, Note_on_c, 0, 67, 66
2, 78280, Note_on_c, 0, 56, 29
2, 78380, Note_on_c, 0, 56, 0
2, 78568, Note_on_c, 0, 67, 0
2, 78584, Note_on_c, 0, 68, 65
2, 78592, Note_on_c, 0, 63, 49
2, 78624, Note_on_c, 0, 63, 0
2, 78664, Note_on_c, 0, 68, 0
2, 78728, Note_on_c, 0, 70, 56
2, 78948, Note_on_c, 0, 70, 0
2, 78964, Note_on_c, 0, 66, 58
2, 78968, Note_on_c, 0, 62, 51
2, 78980, Note_on_c, 0, 71, 51
2, 78984, Note_on_c, 0, 56, 50
2, 79176, Note_on_c, 0, 62, 0
2, 79240, Note_on_c, 0, 73, 64
2, 79252, Note_on_c, 0, 71, 0
2, 79284, Note_on_c, 0, 62, 43
2, 79316, Note_on_c, 0, 73, 0
2, 79356, Note_on_c, 0, 74, 92
2, 79456, Note_on_c, 0, 74, 0
2, 79484, Note_on_c, 0, 75, 86
2, 79504, Note_on_c, 0, 66, 0
2, 79596, Note_on_c, 0, 75, 0
2, 79612, Note_on_c, 0, 76, 92
2, 79660, Note_on_c, 0, 56, 0
2, 79696, Note_on_c, 0, 76, 0
2, 79696, Note_on_c, 0, 62, 0
2, 79740, Note_on_c, 0, 77, 125
2, 79752, Note_on_c, 0, 62, 39
2, 79772, Note_on_c, 0, 65, 50
2, 79780, Note_on_c, 0, 60, 48
2, 79796, Note_on_c, 0, 55, 32
2, 79844, Note_on_c, 0, 65, 0
2, 79896, Note_on_c, 0, 74, 67
2, 79900, Note_on_c, 0, 60, 0
2, 79912, Note_on_c, 0, 77, 0
2, 79916, Note_on_c, 0, 62, 0
2, 79948, Note_on_c, 0, 55, 0
2, 79968, Note_on_c, 0, 74, 0
2, 80008, Note_on_c, 0, 70, 56
2, 80088, Note_on_c, 0, 70, 0
2, 80112, Note_on_c, 0, 67, 62
2, 80128, Note_on_c, 0, 55, 36
2, 80176, Note_on_c, 0, 67, 0
2, 80188, Note_on_c, 0, 55, 0
2, 80240, Note_on_c, 0, 63, 46
2, 80324, Note_on_c, 0, 63, 0
2, 80368, Note_on_c, 0, 62, 54
2, 80436, Note_on_c, 0, 62, 0
2, 80468, Note_on_c, 0, 65, 88
2, 80544, Note_on_c, 0, 58, 41
2, 80588, Note_on_c, 0, 58, 0
2, 80588, Note_on_c, 0, 65, 0
2, 80592, Note_on_c, 0, 62, 56
2, 80648, Note_on_c, 0, 62, 0
2, 80668, Note_on_c, 0, 63, 69
2, 80808, Note_on_c, 0, 55, 68
2, 80932, Note_on_c, 0, 63, 0
2, 80944, Note_on_c, 0, 55, 0
2, 81008, Note_on_c, 0, 55, 82
2, 81272, Note_on_c, 0, 51, 44
2, 81300, Note_on_c, 0, 51, 0
2, 81352, Note_on_c, 0, 55, 0
2, 81368, Note_on_c, 0, 56, 70
2, 81536, Note_on_c, 0, 56, 0
2, 81548, Note_on_c, 0, 58, 64
2, 81600, Note_on_c, 0, 56, 56
2, 81636, Note_on_c, 0, 58, 0
2, 81664, Note_on_c, 0, 56, 0
2, 81668, Note_on_c, 0, 55, 61
2, 81708, Note_on_c, 0, 55, 0
2, 81756, Note_on_c, 0, 56, 58
2, 81836, Note_on_c, 0, 56, 0
2, 81836, Note_on_c, 0, 58, 56
2, 81860, Note_on_c, 0, 58, 0
2, 81904, Note_on_c, 0, 59, 62
2, 81952, Note_on_c, 0, 59, 0
2, 81996, Note_on_c, 0, 60, 50
2, 82040, Note_on_c, 0, 60, 0
2, 82048, Note_on_c, 0, 61, 60
2, 82076, Note_on_c, 0, 61, 0
2, 82096, Note_on_c, 0, 62, 62
2, 82176, Note_on_c, 0, 63, 70
2, 82204, Note_on_c, 0, 62, 0
2, 82220, Note_on_c, 0, 63, 0
2, 82224, Note_on_c, 0, 64, 76
2, 82304, Note_on_c, 0, 65, 91
2, 82348, Note_on_c, 0, 64, 0
2, 82496, Note_on_c, 0, 65, 0
2, 82560, Note_on_c, 0, 62, 86
2, 82812, Note_on_c, 0, 62, 0
2, 82812, Note_on_c, 0, 58, 83
2, 82944, Note_on_c, 0, 58, 0
2, 83192, Note_on_c, 0, 67, 84
2, 83192, Note_on_c, 0, 58, 88
2, 83204, Note_on_c, 0, 62, 76
2, 83212, Note_on_c, 0, 55, 80
2, 83292, Note_on_c, 0, 62, 0
2, 83292, Note_on_c, 0, 67, 0
2, 83324, Note_on_c, 0, 58, 0
2, 83324, Note_on_c, 0, 55, 0
2, 83340, Note_on_c, 0, 54, 64
2, 83372, Note_on_c, 0, 66, 40
2, 83412, Note_on_c, 0, 66, 0
2, 83564, Note_on_c, 0, 54, 0
2, 83592, Note_on_c, 0, 55, 70
2, 83652, Note_on_c, 0, 55, 0
2, 83700, Note_on_c, 0, 70, 91
2, 83708, Note_on_c, 0, 65, 87
2, 83712, Note_on_c, 0, 61, 80
2, 83728, Note_on_c, 0, 58, 65
2, 83760, Note_on_c, 0, 58, 0
2, 83888, Note_on_c, 0, 70, 0
2, 83892, Note_on_c, 0, 61, 0
2, 83908, Note_on_c, 0, 58, 29
2, 83912, Note_on_c, 0, 65, 0
2, 83944, Note_on_c, 0, 58, 0
2, 83948, Note_on_c, 0, 73, 85
2, 83960, Note_on_c, 0, 61, 68
2, 83960, Note_on_c, 0, 60, 77
2, 83960, Note_on_c, 0, 65, 84
2, 84044, Note_on_c, 0, 73, 0
2, 84056, Note_on_c, 0, 61, 0
2, 84060, Note_on_c, 0, 60, 0
2, 84080, Note_on_c, 0, 65, 0
2, 84096, Note_on_c, 0, 58, 60
2, 84108, Note_on_c, 0, 70, 60
2, 84108, Note_on_c, 0, 61, 53
2, 84124, Note_on_c, 0, 65, 40
2, 84224, Note_on_c, 0, 65, 0
2, 84288, Note_on_c, 0, 61, 0
2, 84288, Note_on_c, 0, 58, 0
2, 84300, Note_on_c, 0, 70, 0
2, 84344, Note_on_c, 0, 55, 58
2, 84352, Note_on_c, 0, 63, 62
2, 84356, Note_on_c, 0, 60, 66
2, 84360, Note_on_c, 0, 67, 62
2, 84648, Note_on_c, 0, 60, 0
2, 84664, Note_on_c, 0, 67, 0
2, 84680, Note_on_c, 0, 63, 0
2, 84700, Note_on_c, 0, 55, 0
2, 84708, Note_on_c, 0, 58, 66
2, 84712, Note_on_c, 0, 70, 76
2, 84720, Note_on_c, 0, 63, 64
2, 84720, Note_on_c, 0, 60, 67
2, 84800, Note_on_c, 0, 60, 0
2, 84804, Note_on_c, 0, 58, 0
2, 84808, Note_on_c, 0, 70, 0
2, 84852, Note_on_c, 0, 67, 53
2, 84856, Note_on_c, 0, 60, 43
2, 84868, Note_on_c, 0, 55, 55
2, 84976, Note_on_c, 0, 60, 0
2, 85016, Note_on_c, 0, 67, 0
2, 85040, Note_on_c, 0, 63, 0
2, 85088, Note_on_c, 0, 55, 0
2, 85100, Note_on_c, 0, 68, 69
2, 85100, Note_on_c, 0, 63, 58
2, 85108, Note_on_c, 0, 59, 65
2, 85112, Note_on_c, 0, 56, 55
2, 85528, Note_on_c, 0, 59, 0
2, 85592, Note_on_c, 0, 56, 0
2, 85644, Note_on_c, 0, 66, 12
2, 85664, Note_on_c, 0, 63, 0
2, 85700, Note_on_c, 0, 66, 0
2, 85720, Note_on_c, 0, 68, 0
2, 85848, Note_on_c, 0, 58, 54
2, 85948, Note_on_c, 0, 58, 0
2, 86016, Note_on_c, 0, 73, 43
2, 86120, Note_on_c, 0, 73, 0
2, 86144, Note_on_c, 0, 74, 48
2, 86208, Note_on_c, 0, 74, 0
2, 86248, Note_on_c, 0, 79, 95
2, 86336, Note_on_c, 0, 79, 0
2, 86356, Note_on_c, 0, 63, 50
2, 86372, Note_on_c, 0, 58, 47
2, 86380, Note_on_c, 0, 52, 41
2, 86392, Note_on_c, 0, 73, 74
2, 86508, Note_on_c, 0, 52, 0
2, 86548, Note_on_c, 0, 58, 0
2, 86576, Note_on_c, 0, 63, 0
2, 86704, Note_on_c, 0, 73, 0
2, 86768, Note_on_c, 0, 72, 63
2, 86780, Note_on_c, 0, 60, 43
2, 86792, Note_on_c, 0, 63, 45
2, 86812, Note_on_c, 0, 68, 19
2, 86988, Note_on_c, 0, 68, 0
2, 87008, Note_on_c, 0, 60, 0
2, 87064, Note_on_c, 0, 63, 0
2, 87124, Note_on_c, 0, 67, 48
2, 87128, Note_on_c, 0, 72, 0
2, 87140, Note_on_c, 0, 56, 46
2, 87152, Note_on_c, 0, 71, 48
2, 87160, Note_on_c, 0, 62, 43
2, 87216, Note_on_c, 0, 67, 0
2, 87304, Note_on_c, 0, 62, 0
2, 87356, Note_on_c, 0, 56, 0
2, 87384, Note_on_c, 0, 71, 0
2, 87404, Note_on_c, 0, 70, 63
2, 87420, Note_on_c, 0, 62, 45
2, 87424, Note_on_c, 0, 65, 42
2, 87428, Note_on_c, 0, 60, 50
2, 87568, Note_on_c, 0, 70, 0
2, 87576, Note_on_c, 0, 55, 1
2, 87608, Note_on_c, 0, 72, 52
2, 87624, Note_on_c, 0, 65, 0
2, 87668, Note_on_c, 0, 62, 0
2, 87684, Note_on_c, 0, 70, 51
2, 87688, Note_on_c, 0, 72, 0
2, 87692, Note_on_c, 0, 60, 0
2, 87792, Note_on_c, 0, 70, 0
2, 87804, Note_on_c, 0, 69, 50
2, 87820, Note_on_c, 0, 55, 0
2, 87880, Note_on_c, 0, 69, 0
2, 87928, Note_on_c, 0, 70, 48
2, 88076, Note_on_c, 0, 70, 0
2, 88076, Note_on_c, 0, 72, 68
2, 88168, Note_on_c, 0, 72, 0
2, 88204, Note_on_c, 0, 74, 80
2, 88304, Note_on_c, 0, 74, 0
2, 88336, Note_on_c, 0, 75, 67
2, 88408, Note_on_c, 0, 75, 0
2, 88444, Note_on_c, 0, 76, 70
2, 88524, Note_on_c, 0, 76, 0
2, 88556, Note_on_c, 0, 77, 89
2, 88576, Note_on_c, 0, 66, 60
2, 88592, Note_on_c, 0, 63, 52
2, 88612, Note_on_c, 0, 61, 40
2, 88620, Note_on_c, 0, 57, 28
2, 88648, Note_on_c, 0, 66, 0
2, 88656, Note_on_c, 0, 77, 0
2, 88660, Note_on_c, 0, 61, 0
2, 88672, Note_on_c, 0, 57, 0
2, 88684, Note_on_c, 0, 78, 66
2, 88724, Note_on_c, 0, 63, 0
2, 88760, Note_on_c, 0, 78, 0
2, 88812, Note_on_c, 0, 79, 70
2, 88852, Note_on_c, 0, 79, 0
2, 88912, Note_on_c, 0, 80, 74
2, 88972, Note_on_c, 0, 62, 36
2, 89008, Note_on_c, 0, 80, 0
2, 89020, Note_on_c, 0, 81, 70
2, 89080, Note_on_c, 0, 62, 0
2, 89108, Note_on_c, 0, 81, 0
2, 89132, Note_on_c, 0, 84, 97
2, 89244, Note_on_c, 0, 84, 0
2, 89256, Note_on_c, 0, 81, 87
2, 89328, Note_on_c, 0, 81, 0
2, 89368, Note_on_c, 0, 82, 94
2, 89412, Note_on_c, 0, 60, 35
2, 89456, Note_on_c, 0, 60, 0
2, 89496, Note_on_c, 0, 77, 70
2, 89500, Note_on_c, 0, 82, 0
2, 89616, Note_on_c, 0, 77, 0
2, 89648, Note_on_c, 0, 74, 70
2, 89712, Note_on_c, 0, 74, 0
2, 89756, Note_on_c, 0, 70, 53
2, 89864, Note_on_c, 0, 70, 0
2, 89948, Note_on_c, 0, 69, 13
2, 90128, Note_on_c, 0, 62, 47
2, 90136, Note_on_c, 0, 69, 0
2, 90148, Note_on_c, 0, 58, 44
2, 90160, Note_on_c, 0, 62, 0
2, 90184, Note_on_c, 0, 58, 0
2, 90224, Note_on_c, 0, 77, 86
2, 90516, Note_on_c, 0, 77, 0
2, 90596, Note_on_c, 0, 75, 58
2, 90604, Note_on_c, 0, 63, 43
2, 90628, Note_on_c, 0, 58, 45
2, 90628, Note_on_c, 0, 60, 33
2, 90740, Note_on_c, 0, 63, 0
2, 90848, Note_on_c, 0, 58, 0
2, 90916, Note_on_c, 0, 60, 0
2, 91200, Note_on_c, 0, 75, 0
2, 91240, Note_on_c, 0, 63, 58
2, 91248, Note_on_c, 0, 68, 86
2, 91284, Note_on_c, 0, 57, 32
2, 91332, Note_on_c, 0, 57, 0
2, 91360, Note_on_c, 0, 63, 0
2, 91424, Note_on_c, 0, 68, 0
2, 91452, Note_on_c, 0, 67, 45
2, 91664, Note_on_c, 0, 63, 44
2, 91692, Note_on_c, 0, 57, 29
2, 91700, Note_on_c, 0, 63, 0
2, 91728, Note_on_c, 0, 57, 0
2, 91740, Note_on_c, 0, 67, 0
2, 91760, Note_on_c, 0, 75, 98
2, 92020, Note_on_c, 0, 65, 40
2, 92036, Note_on_c, 0, 62, 41
2, 92036, Note_on_c, 0, 60, 49
2, 92056, Note_on_c, 0, 65, 0
2, 92088, Note_on_c, 0, 75, 0
2, 92096, Note_on_c, 0, 62, 0
2, 92132, Note_on_c, 0, 60, 0
2, 92132, Note_on_c, 0, 74, 97
2, 92388, Note_on_c, 0, 60, 55
2, 92444, Note_on_c, 0, 60, 0
2, 92736, Note_on_c, 0, 74, 0
2, 92784, Note_on_c, 0, 62, 58
2, 92788, Note_on_c, 0, 66, 76
2, 92796, Note_on_c, 0, 58, 54
2, 92808, Note_on_c, 0, 62, 0
2, 92844, Note_on_c, 0, 58, 0
2, 92916, Note_on_c, 0, 66, 0
2, 92948, Note_on_c, 0, 65, 44
2, 93160, Note_on_c, 0, 65, 0
2, 93168, Note_on_c, 0, 72, 88
2, 93192, Note_on_c, 0, 60, 58
2, 93216, Note_on_c, 0, 60, 0
2, 93232, Note_on_c, 0, 58, 30
2, 93252, Note_on_c, 0, 56, 24
2, 93268, Note_on_c, 0, 58, 0
2, 93284, Note_on_c, 0, 56, 0
2, 93332, Note_on_c, 0, 64, 58
2, 93516, Note_on_c, 0, 72, 0
2, 93568, Note_on_c, 0, 57, 55
2, 93596, Note_on_c, 0, 57, 0
2, 93608, Note_on_c, 0, 64, 0
2, 93676, Note_on_c, 0, 63, 62
2, 93908, Note_on_c, 0, 63, 0
2, 93924, Note_on_c, 0, 70, 72
2, 93944, Note_on_c, 0, 57, 39
2, 93980, Note_on_c, 0, 57, 0
2, 94032, Note_on_c, 0, 70, 0
2, 94108, Note_on_c, 0, 62, 27
2, 94284, Note_on_c, 0, 62, 0
2, 94316, Note_on_c, 0, 58, 46
2, 94348, Note_on_c, 0, 58, 0
2, 94668, Note_on_c, 0, 58, 76
2, 94692, Note_on_c, 0, 50, 47
2, 94700, Note_on_c, 0, 58, 0
2, 94716, Note_on_c, 0, 50, 0
2, 94808, Note_on_c, 0, 60, 43
2, 94852, Note_on_c, 0, 60, 0
2, 94924, Note_on_c, 0, 61, 58
2, 94972, Note_on_c, 0, 61, 0
2, 95044, Note_on_c, 0, 62, 83
2, 95100, Note_on_c, 0, 62, 0
2, 95196, Note_on_c, 0, 63, 70
2, 95204, Note_on_c, 0, 56, 78
2, 95228, Note_on_c, 0, 60, 64
2, 95236, Note_on_c, 0, 54, 59
2, 95260, Note_on_c, 0, 54, 0
2, 95392, Note_on_c, 0, 56, 0
2, 95400, Note_on_c, 0, 60, 0
2, 95440, Note_on_c, 0, 65, 76
2, 95440, Note_on_c, 0, 56, 74
2, 95464, Note_on_c, 0, 55, 62
2, 95464, Note_on_c, 0, 60, 66
2, 95496, Note_on_c, 0, 60, 0
2, 95528, Note_on_c, 0, 56, 0
2, 95556, Note_on_c, 0, 63, 0
2, 95572, Note_on_c, 0, 55, 0
2, 95588, Note_on_c, 0, 65, 0
2, 95612, Note_on_c, 0, 67, 73
2, 95624, Note_on_c, 0, 56, 41
2, 95632, Note_on_c, 0, 63, 63
2, 95632, Note_on_c, 0, 59, 37
2, 95680, Note_on_c, 0, 65, 18
2, 95696, Note_on_c, 0, 59, 0
2, 95708, Note_on_c, 0, 67, 0
2, 95732, Note_on_c, 0, 65, 0
2, 95760, Note_on_c, 0, 63, 0
2, 95828, Note_on_c, 0, 68, 72
2, 95832, Note_on_c, 0, 63, 56
2, 95848, Note_on_c, 0, 56, 0
2, 95848, Note_on_c, 0, 60, 55
2, 95852, Note_on_c, 0, 65, 54
2, 95856, Note_on_c, 0, 58, 62
2, 95908, Note_on_c, 0, 60, 0
2, 95928, Note_on_c, 0, 58, 0
2, 95936, Note_on_c, 0, 63, 0
2, 95940, Note_on_c, 0, 65, 0
2, 95944, Note_on_c, 0, 68, 0
2, 96056, Note_on_c, 0, 70, 77
2, 96060, Note_on_c, 0, 55, 70
2, 96060, Note_on_c, 0, 65, 70
2, 96068, Note_on_c, 0, 62, 63
2, 96204, Note_on_c, 0, 65, 0
2, 96204, Note_on_c, 0, 70, 0
2, 96228, Note_on_c, 0, 62, 0
2, 96308, Note_on_c, 0, 55, 0
2, 96344, Note_on_c, 0, 69, 65
2, 96344, Note_on_c, 0, 64, 64
2, 96344, Note_on_c, 0, 54, 60
2, 96360, Note_on_c, 0, 60, 48
2, 96436, Note_on_c, 0, 60, 0
2, 96436, Note_on_c, 0, 69, 0
2, 96484, Note_on_c, 0, 64, 0
2, 96560, Note_on_c, 0, 54, 0
2, 96592, Note_on_c, 0, 70, 81
2, 96592, Note_on_c, 0, 55, 70
2, 96596, Note_on_c, 0, 65, 65
2, 96632, Note_on_c, 0, 55, 0
2, 96644, Note_on_c, 0, 65, 0
2, 96680, Note_on_c, 0, 70, 0
2, 96816, Note_on_c, 0, 54, 63
2, 96824, Note_on_c, 0, 74, 87
2, 96832, Note_on_c, 0, 70, 80
2, 96840, Note_on_c, 0, 44, 43
2, 96840, Note_on_c, 0, 62, 62
2, 96928, Note_on_c, 0, 54, 0
2, 96936, Note_on_c, 0, 44, 0
2, 96944, Note_on_c, 0, 62, 0
2, 96976, Note_on_c, 0, 70, 0
2, 96992, Note_on_c, 0, 74, 0
2, 97104, Note_on_c, 0, 70, 76
2, 97104, Note_on_c, 0, 44, 64
2, 97108, Note_on_c, 0, 74, 69
2, 97112, Note_on_c, 0, 54, 56
2, 97124, Note_on_c, 0, 62, 54
2, 97296, Note_on_c, 0, 44, 0
2, 97300, Note_on_c, 0, 62, 0
2, 97312, Note_on_c, 0, 74, 0
2, 97316, Note_on_c, 0, 54, 0
2, 97336, Note_on_c, 0, 70, 0
2, 97764, Note_on_c, 0, 65, 85
2, 97776, Note_on_c, 0, 58, 65
2, 97776, Note_on_c, 0, 54, 65
2, 97776, Note_on_c, 0, 60, 64
2, 98020, Note_on_c, 0, 65, 0
2, 98068, Note_on_c, 0, 60, 0
2, 98100, Note_on_c, 0, 58, 0
2, 98196, Note_on_c, 0, 56, 56
2, 98204, Note_on_c, 0, 54, 0
2, 98248, Note_on_c, 0, 57, 73
2, 98260, Note_on_c, 0, 69, 66
2, 98264, Note_on_c, 0, 60, 63
2, 98264, Note_on_c, 0, 62, 64
2, 98264, Note_on_c, 0, 65, 51
2, 98292, Note_on_c, 0, 56, 0
2, 98444, Note_on_c, 0, 69, 0
2, 98472, Note_on_c, 0, 62, 0
2, 98524, Note_on_c, 0, 60, 0
2, 98604, Note_on_c, 0, 65, 0
2, 98636, Note_on_c, 0, 57, 0
2, 98644, Note_on_c, 0, 65, 45
2, 98648, Note_on_c, 0, 68, 60
2, 98648, Note_on_c, 0, 63, 68
2, 98648, Note_on_c, 0, 59, 64
2, 98660, Note_on_c, 0, 56, 51
2, 98884, Note_on_c, 0, 59, 0
2, 98920, Note_on_c, 0, 68, 0
2, 98928, Note_on_c, 0, 63, 0
2, 98940, Note_on_c, 0, 54, 54
2, 98964, Note_on_c, 0, 65, 0
2, 98984, Note_on_c, 0, 56, 0
2, 99016, Note_on_c, 0, 63, 54
2, 99024, Note_on_c, 0, 58, 62
2, 99028, Note_on_c, 0, 54, 0
2, 99028, Note_on_c, 0, 67, 50
2, 99044, Note_on_c, 0, 55, 50
2, 99172, Note_on_c, 0, 67, 0
2, 99244, Note_on_c, 0, 63, 0
2, 99300, Note_on_c, 0, 51, 40
2, 99332, Note_on_c, 0, 58, 0
2, 99356, Note_on_c, 0, 55, 0
2, 99396, Note_on_c, 0, 54, 49
2, 99408, Note_on_c, 0, 51, 0
2, 99416, Note_on_c, 0, 66, 51
2, 99428, Note_on_c, 0, 57, 52
2, 99436, Note_on_c, 0, 61, 56
2, 99436, Note_on_c, 0, 63, 55
2, 99544, Note_on_c, 0, 57, 0
2, 99552, Note_on_c, 0, 63, 0
2, 99552, Note_on_c, 0, 66, 0
2, 99572, Note_on_c, 0, 61, 0
2, 99692, Note_on_c, 0, 54, 0
2, 99692, Note_on_c, 0, 60, 62
2, 99704, Note_on_c, 0, 65, 60
2, 99716, Note_on_c, 0, 53, 60
2, 99764, Note_on_c, 0, 60, 0
2, 99784, Note_on_c, 0, 65, 0
2, 100032, Note_on_c, 0, 53, 0
2, 100072, Note_on_c, 0, 51, 69
2, 100072, Note_on_c, 0, 53, 36
2, 100112, Note_on_c, 0, 53, 0
2, 100144, Note_on_c, 0, 51, 0
2, 100184, Note_on_c, 0, 84, 37
2, 100240, Note_on_c, 0, 85, 51
2, 100264, Note_on_c, 0, 85, 0
2, 100268, Note_on_c, 0, 84, 0
2, 100284, Note_on_c, 0, 86, 61
2, 100372, Note_on_c, 0, 86, 0
2, 100508, Note_on_c, 0, 89, 111
2, 100512, Note_on_c, 0, 88, 116
2, 100612, Note_on_c, 0, 89, 0
2, 100616, Note_on_c, 0, 88, 0
2, 100704, Note_on_c, 0, 91, 120
2, 100820, Note_on_c, 0, 91, 0
2, 100888, Note_on_c, 0, 89, 109
2, 101000, Note_on_c, 0, 89, 0
2, 101064, Note_on_c, 0, 86, 65
2, 101184, Note_on_c, 0, 86, 0
2, 101252, Note_on_c, 0, 89, 109
2, 101348, Note_on_c, 0, 89, 0
2, 101416, Note_on_c, 0, 82, 70
2, 101564, Note_on_c, 0, 82, 0
2, 101588, Note_on_c, 0, 62, 60
2, 101600, Note_on_c, 0, 58, 47
2, 101616, Note_on_c, 0, 62, 0
2, 101616, Note_on_c, 0, 55, 33
2, 101628, Note_on_c, 0, 58, 0
2, 101648, Note_on_c, 0, 55, 0
2, 101924, Note_on_c, 0, 82, 84
2, 102008, Note_on_c, 0, 82, 0
2, 102028, Note_on_c, 0, 86, 93
2, 102128, Note_on_c, 0, 86, 0
2, 102160, Note_on_c, 0, 67, 51
2, 102172, Note_on_c, 0, 79, 67
2, 102172, Note_on_c, 0, 63, 53
2, 102172, Note_on_c, 0, 58, 41
2, 102192, Note_on_c, 0, 60, 45
2, 102308, Note_on_c, 0, 63, 0
2, 102360, Note_on_c, 0, 79, 0
2, 102400, Note_on_c, 0, 60, 0
2, 102420, Note_on_c, 0, 67, 0
2, 102432, Note_on_c, 0, 63, 20
2, 102452, Note_on_c, 0, 58, 0
2, 102484, Note_on_c, 0, 63, 0
2, 102500, Note_on_c, 0, 79, 63
2, 102588, Note_on_c, 0, 79, 0
2, 102636, Note_on_c, 0, 82, 72
2, 102744, Note_on_c, 0, 82, 0
2, 102764, Note_on_c, 0, 75, 78
2, 102980, Note_on_c, 0, 75, 0
2, 103044, Note_on_c, 0, 75, 73
2, 103144, Note_on_c, 0, 75, 0
2, 103176, Note_on_c, 0, 79, 76
2, 103256, Note_on_c, 0, 79, 0
2, 103300, Note_on_c, 0, 72, 73
2, 103464, Note_on_c, 0, 72, 0
2, 103904, Note_on_c, 0, 66, 72
2, 103916, Note_on_c, 0, 63, 55
2, 103924, Note_on_c, 0, 61, 46
2, 103936, Note_on_c, 0, 57, 50
2, 104244, Note_on_c, 0, 57, 0
2, 104324, Note_on_c, 0, 61, 0
2, 104336, Note_on_c, 0, 66, 0
2, 104344, Note_on_c, 0, 63, 0
2, 105180, Note_on_c, 0, 89, 113
2, 105184, Note_on_c, 0, 65, 88
2, 105184, Note_on_c, 0, 84, 97
2, 105184, Note_on_c, 0, 77, 83
2, 105184, Note_on_c, 0, 58, 69
2, 105184, Note_on_c, 0, 54, 76
2, 105184, Note_on_c, 0, 60, 70
2, 105204, Note_on_c, 0, 79, 70
2, 105224, Note_on_c, 0, 79, 0
2, 105348, Note_on_c, 0, 65, 0
2, 105356, Note_on_c, 0, 60, 0
2, 105360, Note_on_c, 0, 77, 0
2, 105364, Note_on_c, 0, 89, 0
2, 105380, Note_on_c, 0, 84, 0
2, 105400, Note_on_c, 0, 58, 0
2, 105440, Note_on_c, 0, 54, 0
2, 105572, Note_on_c, 0, 59, 76
2, 105576, Note_on_c, 0, 64, 81
2, 105580, Note_on_c, 0, 53, 78
2, 105580, Note_on_c, 0, 91, 93
2, 105580, Note_on_c, 0, 86, 89
2, 105584, Note_on_c, 0, 79, 88
2, 105744, Note_on_c, 0, 79, 0
2, 105744, Note_on_c, 0, 59, 0
2, 105748, Note_on_c, 0, 64, 0
2, 105756, Note_on_c, 0, 91, 0
2, 105768, Note_on_c, 0, 53, 0
2, 105772, Note_on_c, 0, 86, 0
2, 105972, Note_on_c, 0, 94, 98
2, 105972, Note_on_c, 0, 87, 95
2, 105976, Note_on_c, 0, 82, 85
2, 105976, Note_on_c, 0, 63, 87
2, 105980, Note_on_c, 0, 52, 80
2, 105980, Note_on_c, 0, 58, 68
2, 106136, Note_on_c, 0, 87, 0
2, 106172, Note_on_c, 0, 52, 0
2, 106176, Note_on_c, 0, 82, 0
2, 106184, Note_on_c, 0, 63, 0
2, 106188, Note_on_c, 0, 94, 0
2, 106204, Note_on_c, 0, 58, 0
2, 106252, Note_on_c, 0, 96, 94
2, 106256, Note_on_c, 0, 63, 73
2, 106256, Note_on_c, 0, 58, 70
2, 106260, Note_on_c, 0, 52, 68
2, 106260, Note_on_c, 0, 84, 76
2, 106288, Note_on_c, 0, 84, 0
2, 106308, Note_on_c, 0, 96, 0
2, 106312, Note_on_c, 0, 63, 0
2, 106348, Note_on_c, 0, 52, 0
2, 106376, Note_on_c, 0, 63, 61
2, 106376, Note_on_c, 0, 52, 31
2, 106388, Note_on_c, 0, 82, 56
2, 106396, Note_on_c, 0, 94, 52
2, 106504, Note_on_c, 0, 52, 0
2, 106536, Note_on_c, 0, 94, 0
2, 106568, Note_on_c, 0, 82, 0
2, 106576, Note_on_c, 0, 63, 0
2, 106596, Note_on_c, 0, 58, 0
2, 106628, Note_on_c, 0, 93, 68
2, 106632, Note_on_c, 0, 88, 64
2, 106636, Note_on_c, 0, 81, 54
2, 106636, Note_on_c, 0, 62, 61
2, 106644, Note_on_c, 0, 51, 53
2, 106652, Note_on_c, 0, 57, 62
2, 106696, Note_on_c, 0, 93, 0
2, 106700, Note_on_c, 0, 88, 0
2, 106752, Note_on_c, 0, 81, 0
2, 106792, Note_on_c, 0, 62, 0
2, 106844, Note_on_c, 0, 57, 0
2, 106976, Note_on_c, 0, 70, 65
2, 106980, Note_on_c, 0, 51, 0
2, 106980, Note_on_c, 0, 65, 68
2, 106988, Note_on_c, 0, 60, 60
2, 107004, Note_on_c, 0, 55, 63
2, 107052, Note_on_c, 0, 60, 0
2, 107068, Note_on_c, 0, 70, 0
2, 107068, Note_on_c, 0, 65, 0
2, 107100, Note_on_c, 0, 55, 0
2, 107148, Note_on_c, 0, 54, 58
2, 107240, Note_on_c, 0, 70, 69
2, 107244, Note_on_c, 0, 54, 0
2, 107252, Note_on_c, 0, 65, 63
2, 107260, Note_on_c, 0, 60, 62
2, 107260, Note_on_c, 0, 55, 42
2, 107340, Note_on_c, 0, 60, 0
2, 107360, Note_on_c, 0, 65, 0
2, 107364, Note_on_c, 0, 55, 0
2, 107384, Note_on_c, 0, 70, 0
2, 107512, Note_on_c, 0, 75, 78
2, 107520, Note_on_c, 0, 65, 74
2, 107520, Note_on_c, 0, 68, 72
2, 107528, Note_on_c, 0, 72, 68
2, 107548, Note_on_c, 0, 63, 42
2, 107760, Note_on_c, 0, 72, 0
2, 107764, Note_on_c, 0, 63, 0
2, 107800, Note_on_c, 0, 65, 0
2, 107816, Note_on_c, 0, 68, 0
2, 107836, Note_on_c, 0, 75, 0
2, 107892, Note_on_c, 0, 72, 51
2, 107892, Note_on_c, 0, 65, 36
2, 107896, Note_on_c, 0, 68, 51
2, 107900, Note_on_c, 0, 60, 44
2, 108008, Note_on_c, 0, 65, 0
2, 108024, Note_on_c, 0, 68, 0
2, 108048, Note_on_c, 0, 72, 0
2, 108132, Note_on_c, 0, 75, 73
2, 108140, Note_on_c, 0, 63, 68
2, 108140, Note_on_c, 0, 68, 76
2, 108144, Note_on_c, 0, 72, 50
2, 108148, Note_on_c, 0, 65, 60
2, 108176, Note_on_c, 0, 72, 0
2, 108216, Note_on_c, 0, 65, 0
2, 108220, Note_on_c, 0, 60, 0
2, 108220, Note_on_c, 0, 75, 0
2, 108236, Note_on_c, 0, 63, 0
2, 108304, Note_on_c, 0, 62, 51
2, 108316, Note_on_c, 0, 74, 48
2, 108332, Note_on_c, 0, 65, 16
2, 108332, Note_on_c, 0, 73, 39
2, 108376, Note_on_c, 0, 68, 0
2, 108400, Note_on_c, 0, 74, 0
2, 108404, Note_on_c, 0, 65, 0
2, 108420, Note_on_c, 0, 73, 0
2, 108460, Note_on_c, 0, 62, 0
2, 108532, Note_on_c, 0, 70, 82
2, 108536, Note_on_c, 0, 77, 89
2, 108536, Note_on_c, 0, 67, 82
2, 108540, Note_on_c, 0, 65, 80
2, 108540, Note_on_c, 0, 74, 75
2, 108856, Note_on_c, 0, 74, 0
2, 108868, Note_on_c, 0, 77, 0
2, 108912, Note_on_c, 0, 70, 0
2, 108928, Note_on_c, 0, 65, 0
2, 108940, Note_on_c, 0, 67, 0
2, 108980, Note_on_c, 0, 61, 45
2, 109036, Note_on_c, 0, 70, 52
2, 109036, Note_on_c, 0, 74, 65
2, 109044, Note_on_c, 0, 62, 55
2, 109044, Note_on_c, 0, 65, 47
2, 109048, Note_on_c, 0, 61, 0
2, 109052, Note_on_c, 0, 67, 55
2, 109324, Note_on_c, 0, 70, 0
2, 109344, Note_on_c, 0, 67, 0
2, 109348, Note_on_c, 0, 65, 0
2, 109392, Note_on_c, 0, 74, 0
2, 109400, Note_on_c, 0, 62, 0
2, 109424, Note_on_c, 0, 58, 52
2, 109432, Note_on_c, 0, 70, 53
2, 109440, Note_on_c, 0, 67, 44
2, 109524, Note_on_c, 0, 67, 0
2, 109528, Note_on_c, 0, 70, 0
2, 109688, Note_on_c, 0, 70, 73
2, 109692, Note_on_c, 0, 62, 59
2, 109692, Note_on_c, 0, 74, 64
2, 109692, Note_on_c, 0, 65, 66
2, 109712, Note_on_c, 0, 58, 0
2, 109712, Note_on_c, 0, 67, 35
2, 109736, Note_on_c, 0, 65, 0
2, 109748, Note_on_c, 0, 67, 0
2, 109756, Note_on_c, 0, 62, 0
2, 109772, Note_on_c, 0, 70, 0
2, 109772, Note_on_c, 0, 74, 0
2, 109864, Note_on_c, 0, 54, 64
2, 109868, Note_on_c, 0, 74, 76
2, 109876, Note_on_c, 0, 65, 65
2, 109876, Note_on_c, 0, 60, 55
2, 109880, Note_on_c, 0, 70, 67
2, 109996, Note_on_c, 0, 65, 0
2, 110012, Note_on_c, 0, 74, 0
2, 110020, Note_on_c, 0, 54, 0
2, 110040, Note_on_c, 0, 70, 0
2, 110040, Note_on_c, 0, 60, 0
2, 110092, Note_on_c, 0, 54, 51
2, 110096, Note_on_c, 0, 68, 72
2, 110096, Note_on_c, 0, 72, 69
2, 110100, Note_on_c, 0, 63, 64
2, 110104, Note_on_c, 0, 60, 62
2, 110196, Note_on_c, 0, 60, 0
2, 110200, Note_on_c, 0, 63, 0
2, 110208, Note_on_c, 0, 54, 0
2, 110216, Note_on_c, 0, 72, 0
2, 110216, Note_on_c, 0, 68, 0
2, 110256, Note_on_c, 0, 74, 80
2, 110264, Note_on_c, 0, 65, 64
2, 110272, Note_on_c, 0, 54, 52
2, 110284, Note_on_c, 0, 70, 63
2, 110288, Note_on_c, 0, 60, 51
2, 110352, Note_on_c, 0, 65, 0
2, 110356, Note_on_c, 0, 54, 0
2, 110368, Note_on_c, 0, 74, 0
2, 110396, Note_on_c, 0, 60, 0
2, 110400, Note_on_c, 0, 70, 0
2, 110460, Note_on_c, 0, 54, 54
2, 110460, Note_on_c, 0, 63, 73
2, 110472, Note_on_c, 0, 72, 54
2, 110480, Note_on_c, 0, 70, 48
2, 110484, Note_on_c, 0, 54, 0
2, 110492, Note_on_c, 0, 68, 29
2, 110504, Note_on_c, 0, 72, 0
2, 110512, Note_on_c, 0, 70, 0
2, 110524, Note_on_c, 0, 68, 0
2, 110536, Note_on_c, 0, 63, 0
2, 110584, Note_on_c, 0, 68, 64
2, 110596, Note_on_c, 0, 60, 54
2, 110604, Note_on_c, 0, 50, 55
2, 110620, Note_on_c, 0, 62, 51
2, 110620, Note_on_c, 0, 69, 58
2, 110632, Note_on_c, 0, 65, 47
2, 110656, Note_on_c, 0, 57, 30
2, 110772, Note_on_c, 0, 60, 0
2, 110788, Note_on_c, 0, 57, 0
2, 110796, Note_on_c, 0, 69, 0
2, 110812, Note_on_c, 0, 68, 0
2, 110820, Note_on_c, 0, 50, 0
2, 110820, Note_on_c, 0, 65, 0
2, 110836, Note_on_c, 0, 62, 0
2, 110940, Note_on_c, 0, 49, 58
2, 110940, Note_on_c, 0, 68, 65
2, 110956, Note_on_c, 0, 60, 56
2, 110956, Note_on_c, 0, 59, 40
2, 110956, Note_on_c, 0, 63, 47
2, 110964, Note_on_c, 0, 56, 48
2, 111100, Note_on_c, 0, 59, 0
2, 111176, Note_on_c, 0, 60, 0
2, 111188, Note_on_c, 0, 68, 0
2, 111220, Note_on_c, 0, 49, 0
2, 111232, Note_on_c, 0, 63, 0
2, 111240, Note_on_c, 0, 56, 0
2, 111320, Note_on_c, 0, 55, 35
2, 111324, Note_on_c, 0, 58, 64
2, 111336, Note_on_c, 0, 63, 60
2, 111340, Note_on_c, 0, 67, 51
2, 111352, Note_on_c, 0, 48, 46
2, 111380, Note_on_c, 0, 55, 0
2, 111496, Note_on_c, 0, 67, 0
2, 111568, Note_on_c, 0, 63, 0
2, 111616, Note_on_c, 0, 48, 0
2, 111624, Note_on_c, 0, 58, 0
2, 111628, Note_on_c, 0, 51, 38
2, 111680, Note_on_c, 0, 51, 0
2, 111704, Note_on_c, 0, 54, 54
2, 111708, Note_on_c, 0, 66, 48
2, 111716, Note_on_c, 0, 57, 50
2, 111716, Note_on_c, 0, 61, 57
2, 111736, Note_on_c, 0, 63, 51
2, 111868, Note_on_c, 0, 66, 0
2, 111876, Note_on_c, 0, 57, 0
2, 111884, Note_on_c, 0, 63, 0
2, 111900, Note_on_c, 0, 61, 0
2, 111900, Note_on_c, 0, 51, 46
2, 111924, Note_on_c, 0, 54, 0
2, 111988, Note_on_c, 0, 57, 58
2, 111996, Note_on_c, 0, 60, 56
2, 112000, Note_on_c, 0, 65, 47
2, 112004, Note_on_c, 0, 51, 0
2, 112004, Note_on_c, 0, 62, 50
2, 112020, Note_on_c, 0, 53, 46
2, 112076, Note_on_c, 0, 57, 0
2, 112112, Note_on_c, 0, 62, 0
2, 112136, Note_on_c, 0, 60, 0
2, 112156, Note_on_c, 0, 65, 0
2, 112356, Note_on_c, 0, 41, 80
2, 112436, Note_on_c, 0, 41, 0
2, 112488, Note_on_c, 0, 53, 0
2, 112504, Note_on_c, 0, 89, 98
2, 112588, Note_on_c, 0, 89, 0
2, 112616, Note_on_c, 0, 86, 74
2, 112672, Note_on_c, 0, 86, 0
2, 112716, Note_on_c, 0, 87, 76
2, 112796, Note_on_c, 0, 61, 28
2, 112832, Note_on_c, 0, 84, 60
2, 112840, Note_on_c, 0, 87, 0
2, 112844, Note_on_c, 0, 61, 0
2, 112892, Note_on_c, 0, 84, 0
2, 112916, Note_on_c, 0, 81, 40
2, 112964, Note_on_c, 0, 81, 0
2, 113028, Note_on_c, 0, 80, 74
2, 113120, Note_on_c, 0, 80, 0
2, 113140, Note_on_c, 0, 79, 55
2, 113204, Note_on_c, 0, 79, 0
2, 113212, Note_on_c, 0, 63, 35
2, 113216, Note_on_c, 0, 78, 66
2, 113264, Note_on_c, 0, 63, 0
2, 113272, Note_on_c, 0, 78, 0
2, 113288, Note_on_c, 0, 77, 62
2, 113320, Note_on_c, 0, 77, 0
2, 113360, Note_on_c, 0, 76, 61
2, 113392, Note_on_c, 0, 76, 0
2, 113440, Note_on_c, 0, 75, 40
2, 113476, Note_on_c, 0, 75, 0
2, 113512, Note_on_c, 0, 74, 48
2, 113540, Note_on_c, 0, 74, 0
2, 113576, Note_on_c, 0, 72, 57
2, 113624, Note_on_c, 0, 72, 0
2, 113676, Note_on_c, 0, 74, 81
2, 113836, Note_on_c, 0, 75, 60
2, 113848, Note_on_c, 0, 74, 0
2, 113876, Note_on_c, 0, 75, 0
2, 113892, Note_on_c, 0, 76, 70
2, 113952, Note_on_c, 0, 76, 0
2, 113968, Note_on_c, 0, 77, 91
2, 114036, Note_on_c, 0, 77, 0
2, 114072, Note_on_c, 0, 74, 81
2, 114248, Note_on_c, 0, 74, 0
2, 114308, Note_on_c, 0, 70, 70
2, 114396, Note_on_c, 0, 70, 0
2, 114456, Note_on_c, 0, 65, 46
2, 114668, Note_on_c, 0, 62, 62
2, 114672, Note_on_c, 0, 58, 55
2, 114692, Note_on_c, 0, 62, 0
2, 114692, Note_on_c, 0, 55, 38
2, 114704, Note_on_c, 0, 58, 0
2, 114724, Note_on_c, 0, 55, 0
2, 115128, Note_on_c, 0, 65, 0
2, 115180, Note_on_c, 0, 63, 44
2, 115188, Note_on_c, 0, 62, 47
2, 115196, Note_on_c, 0, 58, 51
2, 115408, Note_on_c, 0, 63, 0
2, 115480, Note_on_c, 0, 63, 34
2, 115632, Note_on_c, 0, 63, 0
2, 115632, Note_on_c, 0, 62, 0
2, 115832, Note_on_c, 0, 58, 0
2, 115840, Note_on_c, 0, 67, 31
2, 115848, Note_on_c, 0, 63, 40
2, 115872, Note_on_c, 0, 67, 0
2, 115940, Note_on_c, 0, 70, 94
2, 115948, Note_on_c, 0, 63, 0
2, 116212, Note_on_c, 0, 70, 0
2, 116232, Note_on_c, 0, 69, 61
2, 116268, Note_on_c, 0, 63, 35
2, 116320, Note_on_c, 0, 69, 0
2, 116352, Note_on_c, 0, 70, 58
2, 116380, Note_on_c, 0, 63, 0
2, 116580, Note_on_c, 0, 70, 0
2, 116608, Note_on_c, 0, 77, 83
2, 116628, Note_on_c, 0, 60, 51
2, 116676, Note_on_c, 0, 60, 0
2, 116716, Note_on_c, 0, 77, 0
2, 116772, Note_on_c, 0, 74, 58
2, 116932, Note_on_c, 0, 74, 0
2, 116988, Note_on_c, 0, 74, 82
2, 117072, Note_on_c, 0, 74, 0
2, 117136, Note_on_c, 0, 69, 43
2, 117280, Note_on_c, 0, 69, 0
2, 117500, Note_on_c, 0, 58, 55
2, 117500, Note_on_c, 0, 62, 48
2, 117504, Note_on_c, 0, 53, 46
2, 117588, Note_on_c, 0, 62, 0
2, 117600, Note_on_c, 0, 53, 0
2, 117624, Note_on_c, 0, 58, 0
2, 118136, Note_on_c, 0, 67, 50
2, 118144, Note_on_c, 0, 63, 50
2, 118168, Note_on_c, 0, 67, 0
2, 118184, Note_on_c, 0, 63, 0
2, 118884, Note_on_c, 0, 66, 60
2, 118896, Note_on_c, 0, 63, 50
2, 118904, Note_on_c, 0, 61, 50
2, 118916, Note_on_c, 0, 57, 37
2, 118940, Note_on_c, 0, 63, 0
2, 118944, Note_on_c, 0, 61, 0
2, 118948, Note_on_c, 0, 66, 0
2, 118956, Note_on_c, 0, 57, 0
2, 119280, Note_on_c, 0, 63, 52
2, 119308, Note_on_c, 0, 63, 0
2, 119400, Note_on_c, 0, 67, 58
2, 119416, Note_on_c, 0, 63, 40
2, 119424, Note_on_c, 0, 56, 44
2, 119428, Note_on_c, 0, 60, 55
2, 119580, Note_on_c, 0, 56, 0
2, 119584, Note_on_c, 0, 67, 0
2, 119588, Note_on_c, 0, 63, 0
2, 119588, Note_on_c, 0, 60, 0
2, 119648, Note_on_c, 0, 56, 55
2, 119652, Note_on_c, 0, 67, 65
2, 119652, Note_on_c, 0, 63, 59
2, 119660, Note_on_c, 0, 60, 60
2, 119716, Note_on_c, 0, 67, 0
2, 119740, Note_on_c, 0, 56, 0
2, 119740, Note_on_c, 0, 60, 0
2, 119752, Note_on_c, 0, 63, 0
2, 119800, Note_on_c, 0, 67, 41
2, 119800, Note_on_c, 0, 56, 33
2, 119808, Note_on_c, 0, 63, 44
2, 119820, Note_on_c, 0, 60, 53
2, 119960, Note_on_c, 0, 60, 0
2, 119960, Note_on_c, 0, 56, 0
2, 119964, Note_on_c, 0, 67, 0
2, 119984, Note_on_c, 0, 63, 0
2, 120052, Note_on_c, 0, 67, 62
2, 120056, Note_on_c, 0, 63, 48
2, 120080, Note_on_c, 0, 67, 0
2, 120092, Note_on_c, 0, 60, 37
2, 120112, Note_on_c, 0, 63, 0
2, 120134, Note_on_c, 0, 60, 0
2, 120424, Note_on_c, 0, 66, 56
2, 120440, Note_on_c, 0, 62, 53
2, 120452, Note_on_c, 0, 56, 45
2, 120460, Note_on_c, 0, 60, 44
2, 120704, Note_on_c, 0, 83, 64
2, 120728, Note_on_c, 0, 66, 0
2, 120776, Note_on_c, 0, 62, 0
2, 120800, Note_on_c, 0, 83, 0
2, 120802, Note_on_c, 0, 60, 0
2, 120832, Note_on_c, 0, 84, 84
2, 120880, Note_on_c, 0, 66, 56
2, 120904, Note_on_c, 0, 62, 41
2, 120912, Note_on_c, 0, 60, 24
2, 120920, Note_on_c, 0, 84, 0
2, 120968, Note_on_c, 0, 66, 0
2, 120968, Note_on_c, 0, 85, 76
2, 121056, Note_on_c, 0, 85, 0
2, 121060, Note_on_c, 0, 60, 0
2, 121068, Note_on_c, 0, 62, 0
2, 121088, Note_on_c, 0, 86, 79
2, 121180, Note_on_c, 0, 56, 0
2, 121184, Note_on_c, 0, 86, 0
2, 121224, Note_on_c, 0, 79, 67
2, 121248, Note_on_c, 0, 65, 40
2, 121252, Note_on_c, 0, 60, 41
2, 121252, Note_on_c, 0, 62, 39
2, 121284, Note_on_c, 0, 55, 26
2, 121320, Note_on_c, 0, 65, 0
2, 121344, Note_on_c, 0, 79, 0
2, 121356, Note_on_c, 0, 80, 69
2, 121444, Note_on_c, 0, 62, 0
2, 121460, Note_on_c, 0, 60, 0
2, 121480, Note_on_c, 0, 81, 68
2, 121500, Note_on_c, 0, 80, 0
2, 121564, Note_on_c, 0, 81, 0
2, 121600, Note_on_c, 0, 82, 74
2, 121640, Note_on_c, 0, 62, 40
2, 121640, Note_on_c, 0, 60, 41
2, 121680, Note_on_c, 0, 82, 0
2, 121708, Note_on_c, 0, 62, 0
2, 121724, Note_on_c, 0, 74, 64
2, 121728, Note_on_c, 0, 60, 0
2, 121780, Note_on_c, 0, 55, 0
2, 121820, Note_on_c, 0, 74, 0
2, 121840, Note_on_c, 0, 75, 50
2, 121952, Note_on_c, 0, 75, 0
2, 121956, Note_on_c, 0, 76, 54
2, 122048, Note_on_c, 0, 76, 0
2, 122092, Note_on_c, 0, 77, 63
2, 122160, Note_on_c, 0, 77, 0
2, 122240, Note_on_c, 0, 72, 35
2, 122276, Note_on_c, 0, 72, 0
2, 122350, Note_on_c, 0, 73, 48
2, 122376, Note_on_c, 0, 65, 41
2, 122384, Note_on_c, 0, 73, 0
2, 122392, Note_on_c, 0, 60, 43
2, 122392, Note_on_c, 0, 54, 33
2, 122412, Note_on_c, 0, 65, 0
2, 122428, Note_on_c, 0, 60, 0
2, 122436, Note_on_c, 0, 54, 0
2, 122728, Note_on_c, 0, 60, 68
2, 122752, Note_on_c, 0, 60, 0
2, 122780, Note_on_c, 0, 57, 19
2, 122836, Note_on_c, 0, 57, 0
2, 122876, Note_on_c, 0, 73, 66
2, 122948, Note_on_c, 0, 73, 0
2, 123004, Note_on_c, 0, 74, 80
2, 123064, Note_on_c, 0, 74, 0
2, 123148, Note_on_c, 0, 69, 50
2, 123160, Note_on_c, 0, 71, 39
2, 123160, Note_on_c, 0, 57, 39
2, 123192, Note_on_c, 0, 57, 0
2, 123192, Note_on_c, 0, 71, 0
2, 123260, Note_on_c, 0, 69, 0
2, 123284, Note_on_c, 0, 65, 56
2, 123364, Note_on_c, 0, 65, 0
2, 123424, Note_on_c, 0, 62, 79
2, 123500, Note_on_c, 0, 62, 0
2, 123564, Note_on_c, 0, 59, 73
2, 123636, Note_on_c, 0, 59, 0
2, 123804, Note_on_c, 0, 67, 88
2, 123916, Note_on_c, 0, 67, 0
2, 123920, Note_on_c, 0, 70, 99
2, 124016, Note_on_c, 0, 70, 0
2, 124084, Note_on_c, 0, 63, 89
2, 124188, Note_on_c, 0, 63, 0
2, 124208, Note_on_c, 0, 60, 64
2, 124272, Note_on_c, 0, 60, 0
2, 124328, Note_on_c, 0, 58, 54
2, 124436, Note_on_c, 0, 58, 0
2, 124580, Note_on_c, 0, 61, 76
2, 124588, Note_on_c, 0, 49, 37
2, 124692, Note_on_c, 0, 61, 0
2, 124696, Note_on_c, 0, 62, 77
2, 124708, Note_on_c, 0, 49, 0
2, 124772, Note_on_c, 0, 62, 0
2, 124812, Note_on_c, 0, 63, 80
2, 124832, Note_on_c, 0, 51, 65
2, 124900, Note_on_c, 0, 51, 0
2, 124908, Note_on_c, 0, 63, 0
2, 124936, Note_on_c, 0, 64, 71
2, 125024, Note_on_c, 0, 64, 0
2, 125048, Note_on_c, 0, 65, 91
2, 125100, Note_on_c, 0, 53, 53
2, 125144, Note_on_c, 0, 65, 0
2, 125192, Note_on_c, 0, 63, 71
2, 125392, Note_on_c, 0, 63, 0
2, 125408, Note_on_c, 0, 53, 0
2, 125420, Note_on_c, 0, 60, 73
2, 125424, Note_on_c, 0, 56, 64
2, 125436, Note_on_c, 0, 51, 53
2, 125492, Note_on_c, 0, 51, 0
2, 125500, Note_on_c, 0, 56, 0
2, 125508, Note_on_c, 0, 60, 0
2, 125584, Note_on_c, 0, 48, 37
2, 125592, Note_on_c, 0, 55, 42
2, 125724, Note_on_c, 0, 55, 0
2, 125768, Note_on_c, 0, 48, 0
2, 125796, Note_on_c, 0, 61, 64
2, 125804, Note_on_c, 0, 49, 60
2, 125812, Note_on_c, 0, 53, 46
2, 125868, Note_on_c, 0, 53, 0
2, 125928, Note_on_c, 0, 61, 0
2, 125940, Note_on_c, 0, 49, 0
2, 125948, Note_on_c, 0, 50, 48
2, 125952, Note_on_c, 0, 53, 52
2, 125964, Note_on_c, 0, 62, 51
2, 126000, Note_on_c, 0, 58, 26
2, 126044, Note_on_c, 0, 62, 0
2, 126068, Note_on_c, 0, 58, 0
2, 126148, Note_on_c, 0, 53, 0
2, 126156, Note_on_c, 0, 50, 0
2, 126316, Note_on_c, 0, 58, 75
2, 126320, Note_on_c, 0, 65, 80
2, 126324, Note_on_c, 0, 55, 71
2, 126328, Note_on_c, 0, 62, 76
2, 126332, Note_on_c, 0, 53, 72
2, 126608, Note_on_c, 0, 65, 0
2, 126612, Note_on_c, 0, 55, 0
2, 126620, Note_on_c, 0, 62, 0
2, 126652, Note_on_c, 0, 58, 0
2, 126708, Note_on_c, 0, 53, 0
2, 126732, Note_on_c, 0, 51, 87
2, 126736, Note_on_c, 0, 55, 55
2, 126756, Note_on_c, 0, 63, 40
2, 126796, Note_on_c, 0, 63, 0
2, 126888, Note_on_c, 0, 55, 0
2, 127072, Note_on_c, 0, 65, 71
2, 127080, Note_on_c, 0, 51, 0
2, 127080, Note_on_c, 0, 58, 70
2, 127088, Note_on_c, 0, 53, 73
2, 127092, Note_on_c, 0, 55, 66
2, 127100, Note_on_c, 0, 62, 54
2, 127240, Note_on_c, 0, 65, 0
2, 127284, Note_on_c, 0, 62, 0
2, 127304, Note_on_c, 0, 55, 0
2, 127312, Note_on_c, 0, 58, 0
2, 127380, Note_on_c, 0, 51, 56
2, 127396, Note_on_c, 0, 53, 0
2, 127468, Note_on_c, 0, 56, 70
2, 127468, Note_on_c, 0, 67, 60
2, 127472, Note_on_c, 0, 60, 70
2, 127472, Note_on_c, 0, 63, 60
2, 127472, Note_on_c, 0, 55, 69
2, 127488, Note_on_c, 0, 51, 0
2, 127628, Note_on_c, 0, 60, 0
2, 127636, Note_on_c, 0, 56, 0
2, 127636, Note_on_c, 0, 67, 0
2, 127700, Note_on_c, 0, 63, 0
2, 127832, Note_on_c, 0, 55, 0
2, 127832, Note_on_c, 0, 68, 76
2, 127836, Note_on_c, 0, 63, 71
2, 127836, Note_on_c, 0, 56, 66
2, 127844, Note_on_c, 0, 60, 69
2, 128036, Note_on_c, 0, 60, 0
2, 128072, Note_on_c, 0, 68, 0
2, 128108, Note_on_c, 0, 63, 0
2, 128140, Note_on_c, 0, 56, 0
2, 128140, Note_on_c, 0, 54, 47
2, 128172, Note_on_c, 0, 54, 0
2, 128224, Note_on_c, 0, 70, 70
2, 128232, Note_on_c, 0, 61, 58
2, 128232, Note_on_c, 0, 56, 60
2, 128240, Note_on_c, 0, 66, 58
2, 128372, Note_on_c, 0, 66, 0
2, 128408, Note_on_c, 0, 70, 0
2, 128412, Note_on_c, 0, 61, 0
2, 128484, Note_on_c, 0, 56, 0
2, 128496, Note_on_c, 0, 66, 76
2, 128496, Note_on_c, 0, 73, 78
2, 128504, Note_on_c, 0, 61, 73
2, 128504, Note_on_c, 0, 58, 78
2, 128604, Note_on_c, 0, 58, 0
2, 128608, Note_on_c, 0, 61, 0
2, 128612, Note_on_c, 0, 66, 0
2, 128664, Note_on_c, 0, 73, 0
2, 128676, Note_on_c, 0, 56, 48
2, 128684, Note_on_c, 0, 66, 44
2, 128692, Note_on_c, 0, 70, 50
2, 128696, Note_on_c, 0, 61, 46
2, 128804, Note_on_c, 0, 70, 0
2, 128868, Note_on_c, 0, 66, 0
2, 128876, Note_on_c, 0, 61, 0
2, 128912, Note_on_c, 0, 56, 0
2, 128924, Note_on_c, 0, 60, 59
2, 128924, Note_on_c, 0, 55, 57
2, 128924, Note_on_c, 0, 65, 57
2, 129424, Note_on_c, 0, 60, 0
2, 129432, Note_on_c, 0, 55, 0
2, 129532, Note_on_c, 0, 65, 0
2, 129644, Note_on_c, 0, 58, 54
2, 129680, Note_on_c, 0, 58, 0
2, 129752, Note_on_c, 0, 70, 71
2, 129956, Note_on_c, 0, 70, 0
2, 130030, Note_on_c, 0, 73, 91
2, 130032, Note_on_c, 0, 63, 71
2, 130044, Note_on_c, 0, 58, 54
2, 130044, Note_on_c, 0, 52, 52
2, 130120, Note_on_c, 0, 63, 0
2, 130132, Note_on_c, 0, 52, 0
2, 130136, Note_on_c, 0, 73, 0
2, 130176, Note_on_c, 0, 58, 0
2, 130208, Note_on_c, 0, 70, 51
2, 130364, Note_on_c, 0, 70, 0
2, 130420, Note_on_c, 0, 67, 70
2, 130424, Note_on_c, 0, 63, 47
2, 130428, Note_on_c, 0, 60, 48
2, 130432, Note_on_c, 0, 53, 47
2, 130440, Note_on_c, 0, 56, 48
2, 130664, Note_on_c, 0, 60, 0
2, 130704, Note_on_c, 0, 63, 0
2, 130828, Note_on_c, 0, 67, 0
2, 130908, Note_on_c, 0, 53, 0
2, 130928, Note_on_c, 0, 63, 17
2, 130988, Note_on_c, 0, 56, 0
2, 131028, Note_on_c, 0, 63, 0
2, 131196, Note_on_c, 0, 71, 127
2, 131204, Note_on_c, 0, 73, 91
2, 131208, Note_on_c, 0, 66, 83
2, 131212, Note_on_c, 0, 62, 73
2, 131216, Note_on_c, 0, 56, 73
2, 131228, Note_on_c, 0, 73, 0
2, 131484, Note_on_c, 0, 66, 0
2, 131508, Note_on_c, 0, 62, 0
2, 131528, Note_on_c, 0, 71, 0
2, 131568, Note_on_c, 0, 74, 98
2, 131576, Note_on_c, 0, 66, 74
2, 131584, Note_on_c, 0, 62, 30
2, 131592, Note_on_c, 0, 73, 28
2, 131628, Note_on_c, 0, 73, 0
2, 131672, Note_on_c, 0, 74, 0
2, 131696, Note_on_c, 0, 66, 0
2, 131740, Note_on_c, 0, 71, 64
2, 131896, Note_on_c, 0, 62, 0
2, 131900, Note_on_c, 0, 56, 0
2, 131924, Note_on_c, 0, 71, 0
2, 131952, Note_on_c, 0, 62, 39
2, 131956, Note_on_c, 0, 68, 70
2, 131964, Note_on_c, 0, 65, 51
2, 131988, Note_on_c, 0, 60, 41
2, 132032, Note_on_c, 0, 55, 17
2, 132040, Note_on_c, 0, 65, 0
2, 132084, Note_on_c, 0, 68, 0
2, 132132, Note_on_c, 0, 60, 0
2, 132132, Note_on_c, 0, 67, 44
2, 132148, Note_on_c, 0, 62, 0
2, 132308, Note_on_c, 0, 67, 0
2, 132348, Note_on_c, 0, 68, 59
2, 132360, Note_on_c, 0, 60, 48
2, 132380, Note_on_c, 0, 55, 0
2, 132468, Note_on_c, 0, 68, 0
2, 132512, Note_on_c, 0, 70, 55
2, 132576, Note_on_c, 0, 60, 0
2, 132676, Note_on_c, 0, 70, 0
2, 132724, Note_on_c, 0, 61, 50
2, 132724, Note_on_c, 0, 72, 59
2, 132724, Note_on_c, 0, 65, 45
2, 132748, Note_on_c, 0, 56, 38
2, 132832, Note_on_c, 0, 72, 0
2, 132852, Note_on_c, 0, 65, 0
2, 132864, Note_on_c, 0, 73, 56
2, 132928, Note_on_c, 0, 73, 0
2, 132964, Note_on_c, 0, 75, 57
2, 132988, Note_on_c, 0, 75, 0
2, 133012, Note_on_c, 0, 61, 0
2, 133028, Note_on_c, 0, 76, 56
2, 133088, Note_on_c, 0, 76, 0
2, 133100, Note_on_c, 0, 78, 63
2, 133124, Note_on_c, 0, 78, 0
2, 133184, Note_on_c, 0, 79, 61
2, 133228, Note_on_c, 0, 56, 0
2, 133240, Note_on_c, 0, 79, 0
2, 133248, Note_on_c, 0, 81, 62
2, 133328, Note_on_c, 0, 81, 0
2, 133328, Note_on_c, 0, 82, 64
2, 133356, Note_on_c, 0, 82, 0
2, 133388, Note_on_c, 0, 83, 54
2, 133452, Note_on_c, 0, 83, 0
2, 133480, Note_on_c, 0, 84, 85
2, 133564, Note_on_c, 0, 84, 0
2, 133588, Note_on_c, 0, 82, 78
2, 133620, Note_on_c, 0, 82, 0
2, 133740, Note_on_c, 0, 79, 73
2, 133792, Note_on_c, 0, 79, 0
2, 133864, Note_on_c, 0, 75, 76
2, 133928, Note_on_c, 0, 75, 0
2, 133996, Note_on_c, 0, 72, 45
2, 134032, Note_on_c, 0, 72, 0
2, 134248, Note_on_c, 0, 67, 55
2, 134332, Note_on_c, 0, 67, 0
2, 134360, Note_on_c, 0, 63, 56
2, 134368, Note_on_c, 0, 70, 71
2, 134380, Note_on_c, 0, 59, 46
2, 134392, Note_on_c, 0, 56, 39
2, 134420, Note_on_c, 0, 59, 0
2, 134420, Note_on_c, 0, 63, 0
2, 134492, Note_on_c, 0, 70, 0
2, 134500, Note_on_c, 0, 68, 50
2, 134512, Note_on_c, 0, 56, 0
2, 134592, Note_on_c, 0, 68, 0
2, 134648, Note_on_c, 0, 63, 76
2, 134652, Note_on_c, 0, 56, 45
2, 134676, Note_on_c, 0, 53, 41
2, 134716, Note_on_c, 0, 53, 0
2, 134720, Note_on_c, 0, 56, 0
2, 134776, Note_on_c, 0, 63, 0
2, 134828, Note_on_c, 0, 59, 30
2, 134900, Note_on_c, 0, 59, 0
2, 135012, Note_on_c, 0, 51, 56
2, 135096, Note_on_c, 0, 51, 0
2, 135116, Note_on_c, 0, 67, 62
2, 135120, Note_on_c, 0, 58, 67
2, 135128, Note_on_c, 0, 62, 66
2, 135144, Note_on_c, 0, 55, 47
2, 135280, Note_on_c, 0, 55, 0
2, 135328, Note_on_c, 0, 67, 0
2, 135348, Note_on_c, 0, 62, 0
2, 135380, Note_on_c, 0, 58, 0
2, 135408, Note_on_c, 0, 49, 50
2, 135480, Note_on_c, 0, 49, 0
2, 135504, Note_on_c, 0, 66, 56
2, 135512, Note_on_c, 0, 61, 58
2, 135512, Note_on_c, 0, 57, 54
2, 135512, Note_on_c, 0, 54, 55
2, 135712, Note_on_c, 0, 57, 0
2, 135732, Note_on_c, 0, 66, 0
2, 135740, Note_on_c, 0, 54, 0
2, 135776, Note_on_c, 0, 61, 0
2, 135796, Note_on_c, 0, 51, 44
2, 135888, Note_on_c, 0, 51, 0
2, 135892, Note_on_c, 0, 56, 60
2, 135892, Note_on_c, 0, 65, 53
2, 135908, Note_on_c, 0, 53, 47
2, 135908, Note_on_c, 0, 60, 55
2, 136028, Note_on_c, 0, 65, 0
2, 136052, Note_on_c, 0, 56, 0
2, 136092, Note_on_c, 0, 60, 0
2, 136156, Note_on_c, 0, 53, 0
2, 136200, Note_on_c, 0, 51, 54
2, 136208, Note_on_c, 0, 49, 36
2, 136256, Note_on_c, 0, 49, 0
2, 136296, Note_on_c, 0, 69, 64
2, 136300, Note_on_c, 0, 51, 0
2, 136308, Note_on_c, 0, 56, 50
2, 136360, Note_on_c, 0, 69, 0
2, 136504, Note_on_c, 0, 56, 0
2, 136544, Note_on_c, 0, 70, 66
2, 136556, Note_on_c, 0, 65, 69
2, 136564, Note_on_c, 0, 60, 50
2, 136576, Note_on_c, 0, 55, 58
2, 136640, Note_on_c, 0, 55, 0
2, 136916, Note_on_c, 0, 60, 0
2, 136932, Note_on_c, 0, 65, 0
2, 136944, Note_on_c, 0, 53, 104
2, 136944, Note_on_c, 0, 41, 109
2, 136968, Note_on_c, 0, 70, 0
2, 137340, Note_on_c, 0, 48, 60
2, 137420, Note_on_c, 0, 48, 0
2, 137448, Note_on_c, 0, 89, 118
2, 137452, Note_on_c, 0, 77, 116
2, 137656, Note_on_c, 0, 77, 0
2, 137664, Note_on_c, 0, 89, 0
2, 137712, Note_on_c, 0, 86, 62
2, 137748, Note_on_c, 0, 48, 48
2, 137768, Note_on_c, 0, 86, 0
2, 137784, Note_on_c, 0, 41, 0
2, 137828, Note_on_c, 0, 48, 0
2, 137828, Note_on_c, 0, 89, 120
2, 137836, Note_on_c, 0, 77, 102
2, 137856, Note_on_c, 0, 53, 0
2, 137860, Note_on_c, 0, 79, 54
2, 137888, Note_on_c, 0, 79, 0
2, 138024, Note_on_c, 0, 89, 0
2, 138028, Note_on_c, 0, 77, 0
2, 138092, Note_on_c, 0, 89, 88
2, 138116, Note_on_c, 0, 77, 50
2, 138156, Note_on_c, 0, 77, 0
2, 138204, Note_on_c, 0, 89, 0
2, 138228, Note_on_c, 0, 65, 55
2, 138240, Note_on_c, 0, 86, 60
2, 138256, Note_on_c, 0, 62, 46
2, 138268, Note_on_c, 0, 60, 47
2, 138376, Note_on_c, 0, 86, 0
2, 138380, Note_on_c, 0, 62, 0
2, 138400, Note_on_c, 0, 65, 0
2, 138400, Note_on_c, 0, 60, 0
2, 138616, Note_on_c, 0, 77, 60
2, 138620, Note_on_c, 0, 65, 44
2, 138648, Note_on_c, 0, 60, 40
2, 138652, Note_on_c, 0, 62, 32
2, 138676, Note_on_c, 0, 65, 0
2, 138692, Note_on_c, 0, 62, 0
2, 138700, Note_on_c, 0, 60, 0
2, 138776, Note_on_c, 0, 77, 0
2, 138988, Note_on_c, 0, 62, 40
2, 138996, Note_on_c, 0, 91, 59
2, 139000, Note_on_c, 0, 58, 43
2, 139000, Note_on_c, 0, 79, 53
2, 139012, Note_on_c, 0, 55, 40
2, 139016, Note_on_c, 0, 53, 32
2, 139124, Note_on_c, 0, 79, 0
2, 139140, Note_on_c, 0, 58, 0
2, 139140, Note_on_c, 0, 53, 0
2, 139144, Note_on_c, 0, 91, 0
2, 139152, Note_on_c, 0, 62, 0
2, 139156, Note_on_c, 0, 55, 0
2, 139360, Note_on_c, 0, 94, 87
2, 139364, Note_on_c, 0, 82, 76
2, 139368, Note_on_c, 0, 62, 54
2, 139372, Note_on_c, 0, 58, 48
2, 139376, Note_on_c, 0, 53, 40
2, 139408, Note_on_c, 0, 53, 0
2, 139444, Note_on_c, 0, 58, 0
2, 139452, Note_on_c, 0, 62, 0
2, 139480, Note_on_c, 0, 94, 0
2, 139504, Note_on_c, 0, 82, 0
2, 139748, Note_on_c, 0, 67, 45
2, 139760, Note_on_c, 0, 91, 51
2, 139760, Note_on_c, 0, 63, 47
2, 139764, Note_on_c, 0, 79, 43
2, 139764, Note_on_c, 0, 58, 41
2, 139764, Note_on_c, 0, 60, 42
2, 139896, Note_on_c, 0, 79, 0
2, 139908, Note_on_c, 0, 67, 0
2, 139912, Note_on_c, 0, 91, 0
2, 139912, Note_on_c, 0, 63, 0
2, 139920, Note_on_c, 0, 60, 0
2, 139932, Note_on_c, 0, 58, 0
2, 140124, Note_on_c, 0, 58, 60
2, 140132, Note_on_c, 0, 67, 55
2, 140140, Note_on_c, 0, 94, 85
2, 140140, Note_on_c, 0, 63, 53
2, 140152, Note_on_c, 0, 82, 70
2, 140252, Note_on_c, 0, 67, 0
2, 140276, Note_on_c, 0, 94, 0
2, 140320, Note_on_c, 0, 82, 0
2, 140356, Note_on_c, 0, 58, 0
2, 140364, Note_on_c, 0, 63, 0
2, 140512, Note_on_c, 0, 66, 73
2, 140524, Note_on_c, 0, 93, 79
2, 140528, Note_on_c, 0, 81, 88
2, 140528, Note_on_c, 0, 63, 57
2, 140532, Note_on_c, 0, 57, 55
2, 140532, Note_on_c, 0, 61, 55
2, 140556, Note_on_c, 0, 87, 36
2, 140588, Note_on_c, 0, 87, 0
2, 140676, Note_on_c, 0, 93, 0
2, 140688, Note_on_c, 0, 57, 0
2, 140700, Note_on_c, 0, 66, 0
2, 140712, Note_on_c, 0, 81, 0
2, 140712, Note_on_c, 0, 61, 0
2, 140716, Note_on_c, 0, 63, 0
2, 140780, Note_on_c, 0, 66, 70
2, 140780, Note_on_c, 0, 63, 57
2, 140780, Note_on_c, 0, 91, 73
2, 140780, Note_on_c, 0, 61, 51
2, 140788, Note_on_c, 0, 79, 87
2, 140796, Note_on_c, 0, 57, 62
2, 140796, Note_on_c, 0, 90, 67
2, 140848, Note_on_c, 0, 91, 0
2, 140872, Note_on_c, 0, 57, 0
2, 140872, Note_on_c, 0, 66, 0
2, 140880, Note_on_c, 0, 79, 0
2, 140892, Note_on_c, 0, 90, 0
2, 140900, Note_on_c, 0, 61, 0
2, 140904, Note_on_c, 0, 63, 0
2, 140964, Note_on_c, 0, 66, 57
2, 140968, Note_on_c, 0, 90, 70
2, 140976, Note_on_c, 0, 78, 67
2, 140976, Note_on_c, 0, 63, 45
2, 140984, Note_on_c, 0, 57, 47
2, 140984, Note_on_c, 0, 61, 50
2, 141024, Note_on_c, 0, 61, 0
2, 141044, Note_on_c, 0, 66, 0
2, 141064, Note_on_c, 0, 63, 0
2, 141088, Note_on_c, 0, 90, 0
2, 141096, Note_on_c, 0, 78, 0
2, 141148, Note_on_c, 0, 66, 51
2, 141156, Note_on_c, 0, 63, 44
2, 141180, Note_on_c, 0, 89, 70
2, 141184, Note_on_c, 0, 61, 39
2, 141184, Note_on_c, 0, 77, 78
2, 141204, Note_on_c, 0, 57, 0
2, 141228, Note_on_c, 0, 61, 0
2, 141228, Note_on_c, 0, 66, 0
2, 141248, Note_on_c, 0, 89, 0
2, 141260, Note_on_c, 0, 63, 0
2, 141276, Note_on_c, 0, 77, 0
2, 141688, Note_on_c, 0, 86, 76
2, 141700, Note_on_c, 0, 65, 60
2, 141700, Note_on_c, 0, 62, 56
2, 141700, Note_on_c, 0, 74, 70
2, 141704, Note_on_c, 0, 58, 49
2, 141724, Note_on_c, 0, 55, 39
2, 141760, Note_on_c, 0, 65, 0
2, 141812, Note_on_c, 0, 62, 0
2, 141812, Note_on_c, 0, 74, 0
2, 141812, Note_on_c, 0, 55, 0
2, 141832, Note_on_c, 0, 86, 0
2, 141840, Note_on_c, 0, 58, 0
2, 141904, Note_on_c, 0, 58, 70
2, 141920, Note_on_c, 0, 55, 50
2, 141940, Note_on_c, 0, 74, 79
2, 141944, Note_on_c, 0, 55, 0
2, 141944, Note_on_c, 0, 82, 72
2, 141944, Note_on_c, 0, 86, 55
2, 141968, Note_on_c, 0, 74, 0
2, 141972, Note_on_c, 0, 86, 0
2, 141980, Note_on_c, 0, 58, 0
2, 142044, Note_on_c, 0, 82, 0
2, 142112, Note_on_c, 0, 63, 76
2, 142116, Note_on_c, 0, 58, 67
2, 142132, Note_on_c, 0, 87, 70
2, 142136, Note_on_c, 0, 52, 59
2, 142140, Note_on_c, 0, 75, 63
2, 142140, Note_on_c, 0, 82, 61
2, 142304, Note_on_c, 0, 52, 0
2, 142308, Note_on_c, 0, 87, 0
2, 142312, Note_on_c, 0, 82, 0
2, 142316, Note_on_c, 0, 75, 0
2, 142328, Note_on_c, 0, 63, 0
2, 142340, Note_on_c, 0, 58, 0
2, 142428, Note_on_c, 0, 63, 67
2, 142436, Note_on_c, 0, 87, 75
2, 142436, Note_on_c, 0, 58, 55
2, 142440, Note_on_c, 0, 75, 65
2, 142444, Note_on_c, 0, 52, 50
2, 142448, Note_on_c, 0, 82, 68
2, 142540, Note_on_c, 0, 52, 0
2, 142548, Note_on_c, 0, 82, 0
2, 142556, Note_on_c, 0, 87, 0
2, 142592, Note_on_c, 0, 63, 0
2, 142600, Note_on_c, 0, 75, 0
2, 142660, Note_on_c, 0, 58, 0
2, 142724, Note_on_c, 0, 84, 71
2, 142728, Note_on_c, 0, 72, 58
2, 142728, Note_on_c, 0, 62, 60
2, 142728, Note_on_c, 0, 51, 58
2, 142736, Note_on_c, 0, 57, 56
2, 143096, Note_on_c, 0, 62, 0
2, 143096, Note_on_c, 0, 84, 0
2, 143096, Note_on_c, 0, 72, 0
2, 143204, Note_on_c, 0, 62, 44
2, 143220, Note_on_c, 0, 72, 63
2, 143220, Note_on_c, 0, 84, 62
2, 143392, Note_on_c, 0, 72, 0
2, 143392, Note_on_c, 0, 57, 0
2, 143404, Note_on_c, 0, 51, 0
2, 143412, Note_on_c, 0, 62, 0
2, 143432, Note_on_c, 0, 84, 0
2, 143596, Note_on_c, 0, 86, 73
2, 143608, Note_on_c, 0, 74, 67
2, 143684, Note_on_c, 0, 86, 0
2, 143744, Note_on_c, 0, 74, 0
2, 143976, Note_on_c, 0, 68, 81
2, 143980, Note_on_c, 0, 72, 74
2, 143980, Note_on_c, 0, 67, 80
2, 143984, Note_on_c, 0, 79, 81
2, 143992, Note_on_c, 0, 75, 55
2, 144172, Note_on_c, 0, 79, 0
2, 144192, Note_on_c, 0, 72, 0
2, 144196, Note_on_c, 0, 75, 0
2, 144200, Note_on_c, 0, 68, 0
2, 144252, Note_on_c, 0, 77, 65
2, 144260, Note_on_c, 0, 65, 64
2, 144264, Note_on_c, 0, 67, 0
2, 144288, Note_on_c, 0, 65, 0
2, 144296, Note_on_c, 0, 75, 26
2, 144324, Note_on_c, 0, 75, 0
2, 144336, Note_on_c, 0, 77, 0
2, 144428, Note_on_c, 0, 70, 86
2, 144436, Note_on_c, 0, 82, 95
2, 144448, Note_on_c, 0, 75, 77
2, 144456, Note_on_c, 0, 72, 67
2, 144504, Note_on_c, 0, 72, 0
2, 144504, Note_on_c, 0, 70, 0
2, 144512, Note_on_c, 0, 75, 0
2, 144520, Note_on_c, 0, 82, 0
2, 144644, Note_on_c, 0, 79, 67
2, 144648, Note_on_c, 0, 68, 60
2, 144656, Note_on_c, 0, 72, 53
2, 144672, Note_on_c, 0, 67, 73
2, 144744, Note_on_c, 0, 72, 0
2, 144744, Note_on_c, 0, 79, 0
2, 144768, Note_on_c, 0, 68, 0
2, 144776, Note_on_c, 0, 67, 0
2, 144816, Note_on_c, 0, 65, 52
2, 144824, Note_on_c, 0, 77, 72
2, 144836, Note_on_c, 0, 68, 48
2, 144936, Note_on_c, 0, 65, 0
2, 144936, Note_on_c, 0, 72, 13
2, 144948, Note_on_c, 0, 68, 0
2, 144964, Note_on_c, 0, 77, 0
2, 144984, Note_on_c, 0, 72, 0
2, 145192, Note_on_c, 0, 67, 67
2, 145196, Note_on_c, 0, 77, 69
2, 145200, Note_on_c, 0, 65, 40
2, 145200, Note_on_c, 0, 70, 60
2, 145200, Note_on_c, 0, 74, 66
2, 145432, Note_on_c, 0, 67, 0
2, 145436, Note_on_c, 0, 74, 0
2, 145448, Note_on_c, 0, 77, 0
2, 145448, Note_on_c, 0, 65, 0
2, 145448, Note_on_c, 0, 70, 0
2, 145760, Note_on_c, 0, 61, 55
2, 145772, Note_on_c, 0, 67, 64
2, 145792, Note_on_c, 0, 61, 0
2, 145800, Note_on_c, 0, 67, 0
2, 145904, Note_on_c, 0, 65, 74
2, 145904, Note_on_c, 0, 77, 91
2, 145904, Note_on_c, 0, 70, 81
2, 145912, Note_on_c, 0, 67, 80
2, 145916, Note_on_c, 0, 74, 68
2, 145988, Note_on_c, 0, 74, 0
2, 146004, Note_on_c, 0, 67, 0
2, 146044, Note_on_c, 0, 70, 0
2, 146048, Note_on_c, 0, 77, 0
2, 146064, Note_on_c, 0, 65, 0
2, 146152, Note_on_c, 0, 63, 65
2, 146152, Note_on_c, 0, 74, 89
2, 146160, Note_on_c, 0, 70, 66
2, 146160, Note_on_c, 0, 67, 67
2, 146220, Note_on_c, 0, 70, 0
2, 146224, Note_on_c, 0, 67, 0
2, 146252, Note_on_c, 0, 63, 0
2, 146276, Note_on_c, 0, 74, 0
2, 146308, Note_on_c, 0, 70, 47
2, 146324, Note_on_c, 0, 62, 32
2, 146336, Note_on_c, 0, 67, 40
2, 146460, Note_on_c, 0, 70, 0
2, 146484, Note_on_c, 0, 62, 0
2, 146496, Note_on_c, 0, 67, 0
2, 146560, Note_on_c, 0, 58, 46
2, 146616, Note_on_c, 0, 58, 0
2, 146688, Note_on_c, 0, 72, 70
2, 146692, Note_on_c, 0, 61, 64
2, 146692, Note_on_c, 0, 60, 58
2, 146704, Note_on_c, 0, 65, 56
2, 146708, Note_on_c, 0, 64, 51
2, 146760, Note_on_c, 0, 64, 0
2, 146804, Note_on_c, 0, 65, 0
2, 146844, Note_on_c, 0, 72, 0
2, 146848, Note_on_c, 0, 61, 0
2, 146900, Note_on_c, 0, 60, 0
2, 146928, Note_on_c, 0, 58, 63
2, 146928, Note_on_c, 0, 61, 55
2, 146936, Note_on_c, 0, 65, 50
2, 146936, Note_on_c, 0, 70, 55
2, 146968, Note_on_c, 0, 65, 0
2, 146980, Note_on_c, 0, 70, 0
2, 146996, Note_on_c, 0, 58, 0
2, 147000, Note_on_c, 0, 61, 0
2, 147296, Note_on_c, 0, 61, 76
2, 147296, Note_on_c, 0, 68, 71
2, 147304, Note_on_c, 0, 60, 76
2, 147308, Note_on_c, 0, 56, 67
2, 147348, Note_on_c, 0, 60, 0
2, 147388, Note_on_c, 0, 68, 0
2, 147396, Note_on_c, 0, 61, 0
2, 147400, Note_on_c, 0, 56, 0
2, 147440, Note_on_c, 0, 57, 59
2, 147444, Note_on_c, 0, 60, 65
2, 147456, Note_on_c, 0, 69, 45
2, 147480, Note_on_c, 0, 62, 32
2, 147488, Note_on_c, 0, 69, 0
2, 147516, Note_on_c, 0, 57, 0
2, 147516, Note_on_c, 0, 60, 0
2, 147516, Note_on_c, 0, 62, 0
2, 147568, Note_on_c, 0, 53, 49
2, 147656, Note_on_c, 0, 53, 0
2, 147696, Note_on_c, 0, 50, 25
2, 147780, Note_on_c, 0, 57, 73
2, 147816, Note_on_c, 0, 57, 0
2, 147876, Note_on_c, 0, 50, 0
2, 147912, Note_on_c, 0, 68, 76
2, 147932, Note_on_c, 0, 58, 73
2, 147948, Note_on_c, 0, 55, 55
2, 147964, Note_on_c, 0, 63, 46
2, 147980, Note_on_c, 0, 68, 0
2, 148028, Note_on_c, 0, 58, 0
2, 148052, Note_on_c, 0, 63, 0
2, 148080, Note_on_c, 0, 55, 0
2, 148188, Note_on_c, 0, 51, 61
2, 148296, Note_on_c, 0, 51, 0
2, 148356, Note_on_c, 0, 58, 68
2, 148356, Note_on_c, 0, 65, 76
2, 148360, Note_on_c, 0, 55, 73
2, 148380, Note_on_c, 0, 62, 59
2, 148380, Note_on_c, 0, 53, 62
2, 148436, Note_on_c, 0, 55, 0
2, 148460, Note_on_c, 0, 62, 0
2, 148460, Note_on_c, 0, 53, 0
2, 148464, Note_on_c, 0, 65, 0
2, 148492, Note_on_c, 0, 58, 0
2, 148504, Note_on_c, 0, 50, 52
2, 148572, Note_on_c, 0, 50, 0
2, 148632, Note_on_c, 0, 63, 70
2, 148636, Note_on_c, 0, 51, 57
2, 148640, Note_on_c, 0, 55, 63
2, 148644, Note_on_c, 0, 58, 58
2, 148676, Note_on_c, 0, 58, 0
2, 148680, Note_on_c, 0, 55, 0
2, 148708, Note_on_c, 0, 63, 0
2, 148720, Note_on_c, 0, 51, 0
2, 148784, Note_on_c, 0, 46, 55
2, 148864, Note_on_c, 0, 46, 0
2, 148872, Note_on_c, 0, 61, 68
2, 148880, Note_on_c, 0, 53, 62
2, 148884, Note_on_c, 0, 56, 65
2, 148888, Note_on_c, 0, 49, 61
2, 148936, Note_on_c, 0, 53, 0
2, 148940, Note_on_c, 0, 49, 0
2, 148972, Note_on_c, 0, 61, 0
2, 148976, Note_on_c, 0, 56, 0
2, 148996, Note_on_c, 0, 46, 58
2, 149084, Note_on_c, 0, 46, 0
2, 149108, Note_on_c, 0, 62, 76
2, 149120, Note_on_c, 0, 50, 63
2, 149124, Note_on_c, 0, 53, 67
2, 149132, Note_on_c, 0, 55, 62
2, 149136, Note_on_c, 0, 58, 50
2, 149236, Note_on_c, 0, 62, 0
2, 149268, Note_on_c, 0, 55, 0
2, 149272, Note_on_c, 0, 58, 0
2, 149284, Note_on_c, 0, 53, 0
2, 149328, Note_on_c, 0, 50, 0
2, 149368, Note_on_c, 0, 61, 51
2, 149372, Note_on_c, 0, 49, 50
2, 149372, Note_on_c, 0, 53, 48
2, 149384, Note_on_c, 0, 58, 33
2, 149500, Note_on_c, 0, 53, 0
2, 149516, Note_on_c, 0, 58, 0
2, 149520, Note_on_c, 0, 61, 0
2, 149624, Note_on_c, 0, 58, 53
2, 149624, Note_on_c, 0, 53, 61
2, 149624, Note_on_c, 0, 62, 56
2, 149632, Note_on_c, 0, 49, 0
2, 149636, Note_on_c, 0, 55, 45
2, 149648, Note_on_c, 0, 50, 55
2, 149652, Note_on_c, 0, 53, 0
2, 149672, Note_on_c, 0, 55, 0
2, 149716, Note_on_c, 0, 58, 0
2, 149724, Note_on_c, 0, 62, 0
2, 150000, Note_on_c, 0, 49, 61
2, 150044, Note_on_c, 0, 50, 0
2, 150068, Note_on_c, 0, 49, 0
2, 150128, Note_on_c, 0, 62, 64
2, 150196, Note_on_c, 0, 62, 0
2, 150260, Note_on_c, 0, 63, 58
2, 150340, Note_on_c, 0, 63, 0
2, 150380, Note_on_c, 0, 64, 70
2, 150476, Note_on_c, 0, 64, 0
2, 150500, Note_on_c, 0, 60, 45
2, 150524, Note_on_c, 0, 65, 79
2, 150532, Note_on_c, 0, 60, 0
2, 150596, Note_on_c, 0, 65, 0
2, 150652, Note_on_c, 0, 62, 55
2, 150716, Note_on_c, 0, 62, 0
2, 150780, Note_on_c, 0, 63, 62
2, 150864, Note_on_c, 0, 63, 0
2, 150912, Note_on_c, 0, 64, 51
2, 150992, Note_on_c, 0, 64, 0
2, 151028, Note_on_c, 0, 65, 65
2, 151116, Note_on_c, 0, 65, 0
2, 151156, Note_on_c, 0, 55, 62
2, 151156, Note_on_c, 0, 58, 51
2, 151168, Note_on_c, 0, 62, 70
2, 151192, Note_on_c, 0, 58, 0
2, 151216, Note_on_c, 0, 55, 0
2, 151248, Note_on_c, 0, 62, 0
2, 151296, Note_on_c, 0, 63, 58
2, 151344, Note_on_c, 0, 63, 0
2, 151436, Note_on_c, 0, 64, 53
2, 151508, Note_on_c, 0, 64, 0
2, 151548, Note_on_c, 0, 65, 87
2, 151640, Note_on_c, 0, 65, 0
2, 151700, Note_on_c, 0, 62, 58
2, 151772, Note_on_c, 0, 62, 0
2, 151820, Note_on_c, 0, 63, 54
2, 151884, Note_on_c, 0, 63, 0
2, 151924, Note_on_c, 0, 62, 78
2, 151948, Note_on_c, 0, 58, 54
2, 151964, Note_on_c, 0, 55, 43
2, 151984, Note_on_c, 0, 62, 0
2, 151996, Note_on_c, 0, 55, 0
2, 152000, Note_on_c, 0, 58, 0
2, 152292, Note_on_c, 0, 58, 65
2, 152360, Note_on_c, 0, 58, 0
2, 152448, Note_on_c, 0, 62, 62
2, 152496, Note_on_c, 0, 62, 0
2, 152564, Note_on_c, 0, 63, 64
2, 152636, Note_on_c, 0, 63, 0
2, 152676, Note_on_c, 0, 64, 86
2, 152692, Note_on_c, 0, 63, 64
2, 152704, Note_on_c, 0, 57, 52
2, 152740, Note_on_c, 0, 63, 0
2, 152744, Note_on_c, 0, 57, 0
2, 152780, Note_on_c, 0, 64, 0
2, 152828, Note_on_c, 0, 65, 68
2, 152904, Note_on_c, 0, 65, 0
2, 152964, Note_on_c, 0, 62, 50
2, 153008, Note_on_c, 0, 62, 0
2, 153076, Note_on_c, 0, 63, 76
2, 153100, Note_on_c, 0, 60, 51
2, 153128, Note_on_c, 0, 60, 0
2, 153172, Note_on_c, 0, 63, 0
2, 153208, Note_on_c, 0, 64, 62
2, 153264, Note_on_c, 0, 64, 0
2, 153332, Note_on_c, 0, 65, 66
2, 153400, Note_on_c, 0, 65, 0
2, 153456, Note_on_c, 0, 66, 75
2, 153508, Note_on_c, 0, 60, 50
2, 153540, Note_on_c, 0, 60, 0
2, 153548, Note_on_c, 0, 66, 0
2, 153600, Note_on_c, 0, 67, 65
2, 153776, Note_on_c, 0, 67, 0
2, 153836, Note_on_c, 0, 66, 57
2, 153936, Note_on_c, 0, 66, 0
2, 153988, Note_on_c, 0, 67, 49
2, 154144, Note_on_c, 0, 67, 0
2, 154220, Note_on_c, 0, 69, 70
2, 154320, Note_on_c, 0, 69, 0
2, 154376, Note_on_c, 0, 70, 65
2, 154564, Note_on_c, 0, 70, 0
2, 154604, Note_on_c, 0, 69, 64
2, 154620, Note_on_c, 0, 58, 47
2, 154624, Note_on_c, 0, 55, 46
2, 154676, Note_on_c, 0, 55, 0
2, 154688, Note_on_c, 0, 58, 0
2, 154688, Note_on_c, 0, 69, 0
2, 154752, Note_on_c, 0, 70, 58
2, 154848, Note_on_c, 0, 70, 0
2, 154976, Note_on_c, 0, 63, 73
2, 154984, Note_on_c, 0, 58, 62
2, 155012, Note_on_c, 0, 52, 27
2, 155320, Note_on_c, 0, 58, 0
2, 155392, Note_on_c, 0, 58, 61
2, 155428, Note_on_c, 0, 63, 0
2, 155476, Note_on_c, 0, 85, 75
2, 155492, Note_on_c, 0, 73, 87
2, 155596, Note_on_c, 0, 52, 0
2, 155620, Note_on_c, 0, 85, 0
2, 155648, Note_on_c, 0, 58, 0
2, 155672, Note_on_c, 0, 73, 0
2, 155696, Note_on_c, 0, 74, 56
2, 155772, Note_on_c, 0, 74, 0
2, 155804, Note_on_c, 0, 86, 42
2, 155840, Note_on_c, 0, 86, 0
2, 155876, Note_on_c, 0, 74, 53
2, 155988, Note_on_c, 0, 86, 40
2, 156000, Note_on_c, 0, 74, 0
2, 156076, Note_on_c, 0, 86, 0
2, 156088, Note_on_c, 0, 74, 55
2, 156144, Note_on_c, 0, 57, 48
2, 156152, Note_on_c, 0, 51, 35
2, 156180, Note_on_c, 0, 57, 0
2, 156180, Note_on_c, 0, 74, 0
2, 156192, Note_on_c, 0, 51, 0
2, 156296, Note_on_c, 0, 88, 65
2, 156308, Note_on_c, 0, 89, 35
2, 156320, Note_on_c, 0, 76, 24
2, 156340, Note_on_c, 0, 89, 0
2, 156368, Note_on_c, 0, 88, 0
2, 156372, Note_on_c, 0, 76, 0
2, 156512, Note_on_c, 0, 51, 64
2, 156520, Note_on_c, 0, 62, 60
2, 156532, Note_on_c, 0, 57, 51
2, 156536, Note_on_c, 0, 51, 0
2, 156536, Note_on_c, 0, 77, 75
2, 156536, Note_on_c, 0, 89, 62
2, 156540, Note_on_c, 0, 91, 65
2, 156548, Note_on_c, 0, 62, 0
2, 156560, Note_on_c, 0, 57, 0
2, 156564, Note_on_c, 0, 91, 0
2, 156564, Note_on_c, 0, 85, 37
2, 156588, Note_on_c, 0, 77, 0
2, 156592, Note_on_c, 0, 89, 0
2, 156600, Note_on_c, 0, 85, 0
2, 156768, Note_on_c, 0, 67, 79
2, 156768, Note_on_c, 0, 63, 62
2, 156768, Note_on_c, 0, 91, 99
2, 156768, Note_on_c, 0, 87, 82
2, 156776, Note_on_c, 0, 79, 86
2, 156776, Note_on_c, 0, 56, 64
2, 156776, Note_on_c, 0, 84, 79
2, 156784, Note_on_c, 0, 60, 64
2, 156924, Note_on_c, 0, 84, 0
2, 156924, Note_on_c, 0, 67, 0
2, 156932, Note_on_c, 0, 91, 0
2, 156936, Note_on_c, 0, 79, 0
2, 156944, Note_on_c, 0, 56, 0
2, 156956, Note_on_c, 0, 60, 0
2, 156960, Note_on_c, 0, 87, 0
2, 156976, Note_on_c, 0, 63, 0
2, 157016, Note_on_c, 0, 56, 54
2, 157016, Note_on_c, 0, 67, 67
2, 157016, Note_on_c, 0, 87, 56
2, 157016, Note_on_c, 0, 89, 64
2, 157016, Note_on_c, 0, 63, 51
2, 157028, Note_on_c, 0, 77, 56
2, 157032, Note_on_c, 0, 84, 64
2, 157040, Note_on_c, 0, 60, 60
2, 157104, Note_on_c, 0, 77, 0
2, 157124, Note_on_c, 0, 67, 0
2, 157128, Note_on_c, 0, 84, 0
2, 157144, Note_on_c, 0, 89, 0
2, 157148, Note_on_c, 0, 56, 0
2, 157156, Note_on_c, 0, 87, 0
2, 157176, Note_on_c, 0, 60, 0
2, 157188, Note_on_c, 0, 63, 0
2, 157288, Note_on_c, 0, 94, 92
2, 157304, Note_on_c, 0, 56, 79
2, 157308, Note_on_c, 0, 67, 83
2, 157308, Note_on_c, 0, 82, 79
2, 157312, Note_on_c, 0, 87, 61
2, 157316, Note_on_c, 0, 62, 65
2, 157332, Note_on_c, 0, 60, 51
2, 157336, Note_on_c, 0, 87, 0
2, 157368, Note_on_c, 0, 60, 0
2, 157380, Note_on_c, 0, 94, 0
2, 157400, Note_on_c, 0, 82, 0
2, 157404, Note_on_c, 0, 67, 0
2, 157444, Note_on_c, 0, 56, 0
2, 157460, Note_on_c, 0, 62, 0
2, 157536, Note_on_c, 0, 85, 58
2, 157540, Note_on_c, 0, 91, 60
2, 157540, Note_on_c, 0, 66, 73
2, 157548, Note_on_c, 0, 79, 51
2, 157548, Note_on_c, 0, 62, 52
2, 157552, Note_on_c, 0, 56, 60
2, 157552, Note_on_c, 0, 89, 40
2, 157592, Note_on_c, 0, 85, 0
2, 157612, Note_on_c, 0, 86, 51
2, 157664, Note_on_c, 0, 86, 0
2, 157668, Note_on_c, 0, 89, 0
2, 157676, Note_on_c, 0, 79, 0
2, 157676, Note_on_c, 0, 91, 0
2, 157680, Note_on_c, 0, 66, 0
2, 157692, Note_on_c, 0, 56, 0
2, 157720, Note_on_c, 0, 62, 0
2, 157784, Note_on_c, 0, 89, 66
2, 157796, Note_on_c, 0, 77, 70
2, 157800, Note_on_c, 0, 66, 66
2, 157800, Note_on_c, 0, 56, 64
2, 157816, Note_on_c, 0, 62, 55
2, 157864, Note_on_c, 0, 89, 0
2, 157912, Note_on_c, 0, 77, 0
2, 157912, Note_on_c, 0, 66, 0
2, 157932, Note_on_c, 0, 62, 0
2, 157984, Note_on_c, 0, 56, 0
2, 158052, Note_on_c, 0, 86, 60
2, 158052, Note_on_c, 0, 62, 57
2, 158056, Note_on_c, 0, 65, 62
2, 158064, Note_on_c, 0, 74, 46
2, 158064, Note_on_c, 0, 60, 57
2, 158068, Note_on_c, 0, 55, 56
2, 158072, Note_on_c, 0, 82, 34
2, 158076, Note_on_c, 0, 79, 58
2, 158120, Note_on_c, 0, 65, 0
2, 158136, Note_on_c, 0, 86, 0
2, 158140, Note_on_c, 0, 74, 0
2, 158156, Note_on_c, 0, 82, 0
2, 158156, Note_on_c, 0, 55, 0
2, 158164, Note_on_c, 0, 79, 0
2, 158184, Note_on_c, 0, 60, 0
2, 158200, Note_on_c, 0, 62, 0
2, 158276, Note_on_c, 0, 82, 55
2, 158296, Note_on_c, 0, 62, 49
2, 158300, Note_on_c, 0, 70, 46
2, 158308, Note_on_c, 0, 65, 47
2, 158312, Note_on_c, 0, 60, 52
2, 158316, Note_on_c, 0, 55, 47
2, 158356, Note_on_c, 0, 65, 0
2, 158392, Note_on_c, 0, 70, 0
2, 158392, Note_on_c, 0, 82, 0
2, 158412, Note_on_c, 0, 55, 0
2, 158416, Note_on_c, 0, 60, 0
2, 158432, Note_on_c, 0, 62, 0
2, 158540, Note_on_c, 0, 67, 55
2, 158552, Note_on_c, 0, 55, 52
2, 158552, Note_on_c, 0, 62, 42
2, 158564, Note_on_c, 0, 79, 31
2, 158568, Note_on_c, 0, 60, 41
2, 158604, Note_on_c, 0, 60, 0
2, 158608, Note_on_c, 0, 67, 0
2, 158612, Note_on_c, 0, 62, 0
2, 158636, Note_on_c, 0, 79, 0
2, 158652, Note_on_c, 0, 55, 0
2, 158808, Note_on_c, 0, 84, 79
2, 158816, Note_on_c, 0, 72, 75
2, 158820, Note_on_c, 0, 54, 67
2, 158824, Note_on_c, 0, 65, 58
2, 158824, Note_on_c, 0, 58, 57
2, 158832, Note_on_c, 0, 60, 60
2, 159184, Note_on_c, 0, 84, 0
2, 159188, Note_on_c, 0, 72, 0
2, 159204, Note_on_c, 0, 65, 0
2, 159236, Note_on_c, 0, 60, 0
2, 159240, Note_on_c, 0, 54, 0
2, 159252, Note_on_c, 0, 58, 0
2, 159316, Note_on_c, 0, 54, 50
2, 159320, Note_on_c, 0, 82, 67
2, 159332, Note_on_c, 0, 65, 40
2, 159336, Note_on_c, 0, 70, 59
2, 159344, Note_on_c, 0, 58, 45
2, 159348, Note_on_c, 0, 60, 35
2, 159372, Note_on_c, 0, 65, 0
2, 159392, Note_on_c, 0, 58, 0
2, 159396, Note_on_c, 0, 60, 0
2, 159456, Note_on_c, 0, 54, 0
2, 159572, Note_on_c, 0, 82, 0
2, 159596, Note_on_c, 0, 70, 0
2, 159708, Note_on_c, 0, 81, 62
2, 159716, Note_on_c, 0, 57, 44
2, 159716, Note_on_c, 0, 76, 58
2, 159716, Note_on_c, 0, 60, 46
2, 159716, Note_on_c, 0, 69, 44
2, 159732, Note_on_c, 0, 78, 50
2, 159732, Note_on_c, 0, 53, 48
2, 159740, Note_on_c, 0, 50, 28
2, 159768, Note_on_c, 0, 78, 0
2, 159768, Note_on_c, 0, 60, 0
2, 159796, Note_on_c, 0, 76, 0
2, 159800, Note_on_c, 0, 50, 0
2, 159800, Note_on_c, 0, 69, 0
2, 159804, Note_on_c, 0, 81, 0
2, 159808, Note_on_c, 0, 57, 0
2, 159812, Note_on_c, 0, 53, 0
2, 159948, Note_on_c, 0, 57, 69
2, 159968, Note_on_c, 0, 76, 79
2, 159968, Note_on_c, 0, 81, 53
2, 159976, Note_on_c, 0, 69, 68
2, 159980, Note_on_c, 0, 57, 0
2, 160000, Note_on_c, 0, 81, 0
2, 160004, Note_on_c, 0, 69, 0
2, 160060, Note_on_c, 0, 76, 0
2, 160108, Note_on_c, 0, 63, 46
2, 160120, Note_on_c, 0, 80, 60
2, 160120, Note_on_c, 0, 68, 61
2, 160160, Note_on_c, 0, 68, 0
2, 160160, Note_on_c, 0, 63, 0
2, 160180, Note_on_c, 0, 80, 0
2, 160360, Note_on_c, 0, 80, 77
2, 160360, Note_on_c, 0, 68, 82
2, 160368, Note_on_c, 0, 63, 68
2, 160368, Note_on_c, 0, 75, 67
2, 160396, Note_on_c, 0, 75, 0
2, 160412, Note_on_c, 0, 80, 0
2, 160424, Note_on_c, 0, 68, 0
2, 160428, Note_on_c, 0, 63, 0
2, 160504, Note_on_c, 0, 67, 70
2, 160508, Note_on_c, 0, 79, 56
2, 160512, Note_on_c, 0, 74, 58
2, 160528, Note_on_c, 0, 67, 0
2, 160536, Note_on_c, 0, 57, 41
2, 160540, Note_on_c, 0, 74, 0
2, 160540, Note_on_c, 0, 63, 46
2, 160548, Note_on_c, 0, 79, 0
2, 160572, Note_on_c, 0, 63, 0
2, 160572, Note_on_c, 0, 57, 0
2, 160732, Note_on_c, 0, 79, 71
2, 160736, Note_on_c, 0, 74, 76
2, 160736, Note_on_c, 0, 63, 61
2, 160740, Note_on_c, 0, 67, 56
2, 160740, Note_on_c, 0, 57, 51
2, 160760, Note_on_c, 0, 74, 0
2, 160760, Note_on_c, 0, 79, 0
2, 160764, Note_on_c, 0, 57, 0
2, 160768, Note_on_c, 0, 67, 0
2, 160780, Note_on_c, 0, 63, 0
2, 160860, Note_on_c, 0, 66, 62
2, 160868, Note_on_c, 0, 63, 45
2, 160868, Note_on_c, 0, 69, 58
2, 160880, Note_on_c, 0, 73, 45
2, 160892, Note_on_c, 0, 69, 0
2, 160892, Note_on_c, 0, 66, 0
2, 160892, Note_on_c, 0, 75, 36
2, 160896, Note_on_c, 0, 78, 26
2, 160904, Note_on_c, 0, 63, 0
2, 160916, Note_on_c, 0, 73, 0
2, 160924, Note_on_c, 0, 78, 0
2, 160932, Note_on_c, 0, 75, 0
2, 161104, Note_on_c, 0, 66, 79
2, 161108, Note_on_c, 0, 78, 72
2, 161120, Note_on_c, 0, 63, 57
2, 161120, Note_on_c, 0, 73, 59
2, 161148, Note_on_c, 0, 73, 0
2, 161148, Note_on_c, 0, 63, 0
2, 161148, Note_on_c, 0, 57, 26
2, 161148, Note_on_c, 0, 75, 24
2, 161156, Note_on_c, 0, 78, 0
2, 161156, Note_on_c, 0, 66, 0
2, 161176, Note_on_c, 0, 57, 0
2, 161180, Note_on_c, 0, 75, 0
2, 161236, Note_on_c, 0, 67, 64
2, 161244, Note_on_c, 0, 65, 60
2, 161244, Note_on_c, 0, 77, 56
2, 161256, Note_on_c, 0, 72, 44
2, 161400, Note_on_c, 0, 77, 0
2, 161416, Note_on_c, 0, 72, 0
2, 161420, Note_on_c, 0, 67, 0
2, 161468, Note_on_c, 0, 65, 0
2, 161520, Note_on_c, 0, 64, 47
2, 161572, Note_on_c, 0, 64, 0
2, 161616, Note_on_c, 0, 67, 64
2, 161616, Note_on_c, 0, 72, 65
2, 161624, Note_on_c, 0, 74, 58
2, 161624, Note_on_c, 0, 77, 61
2, 161624, Note_on_c, 0, 65, 57
2, 161796, Note_on_c, 0, 67, 0
2, 161800, Note_on_c, 0, 74, 0
2, 161816, Note_on_c, 0, 77, 0
2, 161828, Note_on_c, 0, 72, 0
2, 161860, Note_on_c, 0, 65, 0
2, 162008, Note_on_c, 0, 67, 80
2, 162008, Note_on_c, 0, 68, 79
2, 162008, Note_on_c, 0, 72, 72
2, 162008, Note_on_c, 0, 79, 92
2, 162016, Note_on_c, 0, 75, 62
2, 162280, Note_on_c, 0, 67, 0
2, 162288, Note_on_c, 0, 72, 0
2, 162296, Note_on_c, 0, 79, 0
2, 162312, Note_on_c, 0, 68, 0
2, 162348, Note_on_c, 0, 75, 0
2, 162388, Note_on_c, 0, 68, 63
2, 162396, Note_on_c, 0, 65, 50
2, 162400, Note_on_c, 0, 77, 69
2, 162404, Note_on_c, 0, 75, 54
2, 162416, Note_on_c, 0, 72, 52
2, 162564, Note_on_c, 0, 72, 0
2, 162568, Note_on_c, 0, 77, 0
2, 162604, Note_on_c, 0, 75, 0
2, 162656, Note_on_c, 0, 68, 0
2, 162732, Note_on_c, 0, 65, 0
2, 162776, Note_on_c, 0, 75, 61
2, 162784, Note_on_c, 0, 63, 44
2, 162788, Note_on_c, 0, 67, 51
2, 162792, Note_on_c, 0, 70, 56
2, 162900, Note_on_c, 0, 63, 0
2, 162980, Note_on_c, 0, 70, 0
2, 162988, Note_on_c, 0, 67, 0
2, 163008, Note_on_c, 0, 75, 0
2, 164308, Note_on_c, 0, 74, 122
2, 165052, Note_on_c, 0, 74, 0
2, 165068, Note_on_c, 0, 72, 76
2, 165332, Note_on_c, 0, 72, 0
2, 165352, Note_on_c, 0, 69, 68
2, 165408, Note_on_c, 0, 69, 0
2, 165776, Note_on_c, 0, 53, 48
2, 165808, Note_on_c, 0, 53, 0
2, 165844, Note_on_c, 0, 70, 65
2, 165852, Note_on_c, 0, 60, 64
2, 165856, Note_on_c, 0, 65, 60
2, 165864, Note_on_c, 0, 55, 45
2, 165988, Note_on_c, 0, 65, 0
2, 165988, Note_on_c, 0, 60, 0
2, 166008, Note_on_c, 0, 70, 0
2, 166008, Note_on_c, 0, 55, 0
2, 166228, Note_on_c, 0, 69, 55
2, 166232, Note_on_c, 0, 64, 61
2, 166232, Note_on_c, 0, 59, 59
2, 166240, Note_on_c, 0, 54, 49
2, 166336, Note_on_c, 0, 69, 0
2, 166356, Note_on_c, 0, 54, 0
2, 166364, Note_on_c, 0, 64, 0
2, 166392, Note_on_c, 0, 59, 0
2, 166620, Note_on_c, 0, 58, 52
2, 166640, Note_on_c, 0, 50, 46
2, 166640, Note_on_c, 0, 65, 42
2, 166640, Note_on_c, 0, 62, 55
2, 166828, Note_on_c, 0, 58, 0
2, 166832, Note_on_c, 0, 50, 0
2, 166908, Note_on_c, 0, 47, 83
2, 166920, Note_on_c, 0, 58, 31
2, 166932, Note_on_c, 0, 65, 0
2, 166932, Note_on_c, 0, 62, 0
2, 166952, Note_on_c, 0, 58, 0
2, 167324, Note_on_c, 0, 47, 0
2, 167656, Note_on_c, 0, 48, 72
2, 167684, Note_on_c, 0, 48, 0
2, 167800, Note_on_c, 0, 60, 65
2, 167956, Note_on_c, 0, 60, 0
2, 168024, Note_on_c, 0, 29, 71
2, 168120, Note_on_c, 0, 29, 0
2, 168212, Note_on_c, 0, 53, 50
2, 168392, Note_on_c, 0, 53, 0
2, 168456, Note_on_c, 0, 55, 44
2, 168488, Note_on_c, 0, 55, 0
2, 169320, Note_on_c, 0, 58, 66
2, 169320, Note_on_c, 0, 46, 55
2, 169356, Note_on_c, 0, 58, 0
2, 169400, Note_on_c, 0, 60, 60
2, 169428, Note_on_c, 0, 46, 0
2, 169444, Note_on_c, 0, 60, 0
2, 169444, Note_on_c, 0, 58, 53
2, 169516, Note_on_c, 0, 45, 37
2, 169536, Note_on_c, 0, 58, 0
2, 169540, Note_on_c, 0, 57, 55
2, 169584, Note_on_c, 0, 57, 0
2, 169596, Note_on_c, 0, 45, 0
2, 169608, Note_on_c, 0, 46, 50
2, 169632, Note_on_c, 0, 58, 55
2, 169660, Note_on_c, 0, 58, 0
2, 169680, Note_on_c, 0, 46, 0
2, 169704, Note_on_c, 0, 48, 56
2, 169716, Note_on_c, 0, 60, 53
2, 169776, Note_on_c, 0, 60, 0
2, 169780, Note_on_c, 0, 48, 0
2, 169796, Note_on_c, 0, 62, 44
2, 169872, Note_on_c, 0, 62, 0
2, 169876, Note_on_c, 0, 63, 56
2, 169932, Note_on_c, 0, 63, 0
2, 169948, Note_on_c, 0, 64, 50
2, 169984, Note_on_c, 0, 64, 0
2, 170000, Note_on_c, 0, 53, 65
2, 170004, Note_on_c, 0, 65, 88
2, 170044, Note_on_c, 0, 53, 0
2, 170076, Note_on_c, 0, 65, 0
2, 170112, Note_on_c, 0, 50, 60
2, 170116, Note_on_c, 0, 62, 77
2, 170196, Note_on_c, 0, 50, 0
2, 170264, Note_on_c, 0, 62, 0
2, 170308, Note_on_c, 0, 46, 51
2, 170312, Note_on_c, 0, 58, 68
2, 170340, Note_on_c, 0, 58, 0
2, 170400, Note_on_c, 0, 46, 0
2, 170708, Note_on_c, 0, 65, 113
2, 170724, Note_on_c, 0, 52, 44
2, 170732, Note_on_c, 0, 53, 69
2, 170784, Note_on_c, 0, 52, 0
2, 170828, Note_on_c, 0, 53, 0
2, 170832, Note_on_c, 0, 65, 0
2, 170832, Note_on_c, 0, 64, 68
2, 170908, Note_on_c, 0, 64, 0
2, 170920, Note_on_c, 0, 63, 50
2, 170936, Note_on_c, 0, 50, 37
2, 170976, Note_on_c, 0, 50, 0
2, 170996, Note_on_c, 0, 63, 0
2, 171020, Note_on_c, 0, 62, 51
2, 171076, Note_on_c, 0, 62, 0
2, 171140, Note_on_c, 0, 77, 113
2, 171164, Note_on_c, 0, 62, 46
2, 171196, Note_on_c, 0, 62, 0
2, 171292, Note_on_c, 0, 77, 0
2, 171336, Note_on_c, 0, 74, 88
2, 171496, Note_on_c, 0, 74, 0
2, 171540, Note_on_c, 0, 75, 101
2, 171548, Note_on_c, 0, 63, 76
2, 171596, Note_on_c, 0, 63, 0
2, 171652, Note_on_c, 0, 75, 0
2, 171720, Note_on_c, 0, 72, 62
2, 171728, Note_on_c, 0, 60, 54
2, 171836, Note_on_c, 0, 60, 0
2, 171880, Note_on_c, 0, 72, 0
2, 171916, Note_on_c, 0, 68, 66
2, 171928, Note_on_c, 0, 56, 40
2, 171972, Note_on_c, 0, 68, 0
2, 172012, Note_on_c, 0, 56, 0
2, 172068, Note_on_c, 0, 65, 39
2, 172220, Note_on_c, 0, 65, 0
2, 172280, Note_on_c, 0, 57, 62
2, 172284, Note_on_c, 0, 69, 82
2, 172360, Note_on_c, 0, 57, 0
2, 172396, Note_on_c, 0, 69, 0
2, 172424, Note_on_c, 0, 65, 47
2, 172444, Note_on_c, 0, 53, 48
2, 172632, Note_on_c, 0, 65, 0
2, 172672, Note_on_c, 0, 51, 55
2, 172688, Note_on_c, 0, 53, 0
2, 172752, Note_on_c, 0, 51, 0
2, 172780, Note_on_c, 0, 63, 60
2, 172784, Note_on_c, 0, 55, 55
2, 172796, Note_on_c, 0, 67, 51
2, 172916, Note_on_c, 0, 67, 0
2, 173012, Note_on_c, 0, 63, 0
2, 173052, Note_on_c, 0, 51, 47
2, 173056, Note_on_c, 0, 55, 0
2, 173128, Note_on_c, 0, 51, 0
2, 173148, Note_on_c, 0, 58, 63
2, 173148, Note_on_c, 0, 54, 44
2, 173160, Note_on_c, 0, 66, 50
2, 173168, Note_on_c, 0, 61, 61
2, 173400, Note_on_c, 0, 54, 0
2, 173408, Note_on_c, 0, 66, 0
2, 173420, Note_on_c, 0, 51, 48
2, 173460, Note_on_c, 0, 58, 0
2, 173464, Note_on_c, 0, 61, 0
2, 173492, Note_on_c, 0, 51, 0
2, 173524, Note_on_c, 0, 53, 46
2, 173528, Note_on_c, 0, 57, 58
2, 173528, Note_on_c, 0, 65, 51
2, 173544, Note_on_c, 0, 60, 53
2, 173840, Note_on_c, 0, 57, 0
2, 173860, Note_on_c, 0, 65, 0
2, 173864, Note_on_c, 0, 60, 0
2, 173912, Note_on_c, 0, 53, 0
2, 173928, Note_on_c, 0, 64, 51
2, 173948, Note_on_c, 0, 52, 38
2, 174120, Note_on_c, 0, 64, 0
2, 174172, Note_on_c, 0, 52, 0
2, 174200, Note_on_c, 0, 65, 55
2, 174204, Note_on_c, 0, 57, 50
2, 174216, Note_on_c, 0, 53, 50
2, 174224, Note_on_c, 0, 60, 43
2, 174232, Note_on_c, 0, 57, 0
2, 174236, Note_on_c, 0, 65, 0
2, 174252, Note_on_c, 0, 53, 0
2, 174252, Note_on_c, 0, 60, 0
2, 174568, Note_on_c, 0, 62, 90
2, 174584, Note_on_c, 0, 50, 70
2, 174640, Note_on_c, 0, 62, 0
2, 174712, Note_on_c, 0, 63, 46
2, 174716, Note_on_c, 0, 50, 0
2, 174716, Note_on_c, 0, 51, 57
2, 174768, Note_on_c, 0, 63, 0
2, 174800, Note_on_c, 0, 51, 0
2, 174836, Note_on_c, 0, 64, 65
2, 174860, Note_on_c, 0, 52, 63
2, 174912, Note_on_c, 0, 64, 0
2, 174936, Note_on_c, 0, 52, 0
2, 174960, Note_on_c, 0, 65, 83
2, 174960, Note_on_c, 0, 67, 85
2, 174972, Note_on_c, 0, 53, 69
2, 175020, Note_on_c, 0, 67, 0
2, 175040, Note_on_c, 0, 65, 0
2, 175064, Note_on_c, 0, 53, 0
2, 175108, Note_on_c, 0, 62, 46
2, 175116, Note_on_c, 0, 50, 46
2, 175192, Note_on_c, 0, 62, 0
2, 175228, Note_on_c, 0, 63, 61
2, 175248, Note_on_c, 0, 50, 0
2, 175256, Note_on_c, 0, 51, 51
2, 175296, Note_on_c, 0, 63, 0
2, 175324, Note_on_c, 0, 51, 0
2, 175332, Note_on_c, 0, 64, 85
2, 175344, Note_on_c, 0, 52, 59
2, 175420, Note_on_c, 0, 64, 0
2, 175452, Note_on_c, 0, 52, 0
2, 175472, Note_on_c, 0, 65, 88
2, 175476, Note_on_c, 0, 53, 65
2, 175556, Note_on_c, 0, 65, 0
2, 175592, Note_on_c, 0, 53, 0
2, 175604, Note_on_c, 0, 62, 64
2, 175644, Note_on_c, 0, 50, 54
2, 175660, Note_on_c, 0, 62, 0
2, 175728, Note_on_c, 0, 63, 71
2, 175732, Note_on_c, 0, 51, 67
2, 175788, Note_on_c, 0, 50, 0
2, 175796, Note_on_c, 0, 63, 0
2, 175848, Note_on_c, 0, 51, 0
2, 175864, Note_on_c, 0, 65, 55
2, 175868, Note_on_c, 0, 53, 58
2, 175896, Note_on_c, 0, 65, 0
2, 175972, Note_on_c, 0, 53, 0
2, 175992, Note_on_c, 0, 66, 83
2, 176020, Note_on_c, 0, 54, 55
2, 176064, Note_on_c, 0, 66, 0
2, 176104, Note_on_c, 0, 54, 0
2, 176112, Note_on_c, 0, 67, 83
2, 176124, Note_on_c, 0, 55, 72
2, 176176, Note_on_c, 0, 67, 0
2, 176184, Note_on_c, 0, 55, 0
2, 176220, Note_on_c, 0, 70, 64
2, 176288, Note_on_c, 0, 70, 0
2, 176352, Note_on_c, 0, 74, 71
2, 176376, Note_on_c, 0, 60, 39
2, 176408, Note_on_c, 0, 60, 0
2, 176412, Note_on_c, 0, 74, 0
2, 176464, Note_on_c, 0, 62, 66
2, 176476, Note_on_c, 0, 77, 120
2, 176580, Note_on_c, 0, 77, 0
2, 176592, Note_on_c, 0, 62, 0
2, 176608, Note_on_c, 0, 60, 64
2, 176628, Note_on_c, 0, 74, 57
2, 176704, Note_on_c, 0, 74, 0
2, 176712, Note_on_c, 0, 60, 0
2, 176744, Note_on_c, 0, 75, 81
2, 176772, Note_on_c, 0, 63, 55
2, 176836, Note_on_c, 0, 63, 0
2, 176868, Note_on_c, 0, 75, 0
2, 176880, Note_on_c, 0, 70, 60
2, 176896, Note_on_c, 0, 58, 45
2, 176916, Note_on_c, 0, 70, 0
2, 176936, Note_on_c, 0, 58, 0
2, 177004, Note_on_c, 0, 74, 97
2, 177008, Note_on_c, 0, 62, 62
2, 177088, Note_on_c, 0, 62, 0
2, 177100, Note_on_c, 0, 74, 0
2, 177120, Note_on_c, 0, 73, 86
2, 177124, Note_on_c, 0, 61, 61
2, 177196, Note_on_c, 0, 73, 0
2, 177216, Note_on_c, 0, 61, 0
2, 177252, Note_on_c, 0, 72, 86
2, 177276, Note_on_c, 0, 60, 53
2, 177332, Note_on_c, 0, 72, 0
2, 177360, Note_on_c, 0, 60, 0
2, 177380, Note_on_c, 0, 56, 50
2, 177392, Note_on_c, 0, 68, 70
2, 177464, Note_on_c, 0, 56, 0
2, 177480, Note_on_c, 0, 68, 0
2, 177516, Note_on_c, 0, 65, 64
2, 177576, Note_on_c, 0, 65, 0
2, 177640, Note_on_c, 0, 70, 90
2, 177680, Note_on_c, 0, 58, 70
2, 177724, Note_on_c, 0, 70, 0
2, 177744, Note_on_c, 0, 58, 0
2, 177908, Note_on_c, 0, 70, 89
2, 177912, Note_on_c, 0, 56, 75
2, 177976, Note_on_c, 0, 56, 0
2, 178004, Note_on_c, 0, 70, 0
2, 178064, Note_on_c, 0, 71, 91
2, 178092, Note_on_c, 0, 59, 60
2, 178140, Note_on_c, 0, 71, 0
2, 178188, Note_on_c, 0, 59, 0
2, 178188, Note_on_c, 0, 56, 58
2, 178208, Note_on_c, 0, 68, 64
2, 178320, Note_on_c, 0, 56, 0
2, 178352, Note_on_c, 0, 65, 51
2, 178364, Note_on_c, 0, 53, 43
2, 178372, Note_on_c, 0, 68, 0
2, 178424, Note_on_c, 0, 65, 0
2, 178428, Note_on_c, 0, 53, 0
2, 178476, Note_on_c, 0, 62, 45
2, 178540, Note_on_c, 0, 62, 0
2, 178700, Note_on_c, 0, 50, 55
2, 178712, Note_on_c, 0, 55, 60
2, 178752, Note_on_c, 0, 55, 0
2, 178772, Note_on_c, 0, 50, 0
2, 178800, Note_on_c, 0, 65, 87
2, 178812, Note_on_c, 0, 53, 70
2, 178884, Note_on_c, 0, 53, 0
2, 178904, Note_on_c, 0, 65, 0
2, 178944, Note_on_c, 0, 50, 61
2, 178952, Note_on_c, 0, 62, 62
2, 179044, Note_on_c, 0, 62, 0
2, 179076, Note_on_c, 0, 50, 0
2, 179080, Note_on_c, 0, 63, 63
2, 179092, Note_on_c, 0, 51, 60
2, 179164, Note_on_c, 0, 51, 0
2, 179188, Note_on_c, 0, 58, 66
2, 179248, Note_on_c, 0, 46, 46
2, 179260, Note_on_c, 0, 63, 0
2, 179308, Note_on_c, 0, 46, 0
2, 179320, Note_on_c, 0, 58, 0
2, 180460, Note_on_c, 0, 50, 28
2, 180476, Note_on_c, 0, 62, 81
2, 180496, Note_on_c, 0, 51, 53
2, 180508, Note_on_c, 0, 50, 0
2, 180528, Note_on_c, 0, 62, 0
2, 180564, Note_on_c, 0, 63, 48
2, 180584, Note_on_c, 0, 51, 0
2, 180596, Note_on_c, 0, 62, 61
2, 180632, Note_on_c, 0, 63, 0
2, 180684, Note_on_c, 0, 62, 0
2, 180696, Note_on_c, 0, 60, 67
2, 180744, Note_on_c, 0, 47, 46
2, 180776, Note_on_c, 0, 60, 0
2, 180812, Note_on_c, 0, 47, 0
2, 180812, Note_on_c, 0, 59, 67
2, 180832, Note_on_c, 0, 48, 60
2, 181048, Note_on_c, 0, 59, 0
2, 181080, Note_on_c, 0, 48, 0
2, 181100, Note_on_c, 0, 60, 76
2, 181104, Note_on_c, 0, 50, 56
2, 181208, Note_on_c, 0, 60, 0
2, 181284, Note_on_c, 0, 62, 48
2, 181420, Note_on_c, 0, 62, 0
2, 181424, Note_on_c, 0, 50, 0
2, 181492, Note_on_c, 0, 63, 64
2, 181528, Note_on_c, 0, 51, 39
2, 181632, Note_on_c, 0, 51, 0
2, 181680, Note_on_c, 0, 63, 0
2, 181680, Note_on_c, 0, 60, 55
2, 181780, Note_on_c, 0, 48, 15
2, 181808, Note_on_c, 0, 60, 0
2, 181888, Note_on_c, 0, 61, 72
2, 181904, Note_on_c, 0, 49, 56
2, 181908, Note_on_c, 0, 48, 0
2, 181988, Note_on_c, 0, 61, 0
2, 182024, Note_on_c, 0, 49, 0
2, 182036, Note_on_c, 0, 51, 59
2, 182040, Note_on_c, 0, 63, 56
2, 182112, Note_on_c, 0, 51, 0
2, 182124, Note_on_c, 0, 63, 0
2, 182144, Note_on_c, 0, 64, 60
2, 182164, Note_on_c, 0, 52, 35
2, 182192, Note_on_c, 0, 64, 0
2, 182232, Note_on_c, 0, 52, 0
2, 182236, Note_on_c, 0, 54, 62
2, 182256, Note_on_c, 0, 66, 64
2, 182296, Note_on_c, 0, 66, 0
2, 182324, Note_on_c, 0, 54, 0
2, 182348, Note_on_c, 0, 67, 69
2, 182400, Note_on_c, 0, 67, 0
2, 182408, Note_on_c, 0, 68, 54
2, 182464, Note_on_c, 0, 68, 0
2, 182480, Note_on_c, 0, 69, 51
2, 182520, Note_on_c, 0, 69, 0
2, 182548, Note_on_c, 0, 70, 55
2, 182560, Note_on_c, 0, 58, 26
2, 182592, Note_on_c, 0, 70, 0
2, 182608, Note_on_c, 0, 71, 61
2, 182612, Note_on_c, 0, 58, 0
2, 182664, Note_on_c, 0, 71, 0
2, 182672, Note_on_c, 0, 60, 58
2, 182680, Note_on_c, 0, 72, 92
2, 182728, Note_on_c, 0, 60, 0
2, 182744, Note_on_c, 0, 72, 0
2, 182804, Note_on_c, 0, 55, 56
2, 182812, Note_on_c, 0, 67, 76
2, 182960, Note_on_c, 0, 67, 0
2, 182984, Note_on_c, 0, 55, 0
2, 183020, Note_on_c, 0, 63, 64
2, 183032, Note_on_c, 0, 51, 55
2, 183048, Note_on_c, 0, 63, 0
2, 183096, Note_on_c, 0, 51, 0
2, 183524, Note_on_c, 0, 75, 93
2, 183532, Note_on_c, 0, 63, 64
2, 183612, Note_on_c, 0, 63, 0
2, 183616, Note_on_c, 0, 75, 0
2, 183672, Note_on_c, 0, 71, 51
2, 183704, Note_on_c, 0, 59, 32
2, 183736, Note_on_c, 0, 71, 0
2, 183756, Note_on_c, 0, 59, 0
2, 183784, Note_on_c, 0, 75, 98
2, 183804, Note_on_c, 0, 63, 64
2, 183868, Note_on_c, 0, 63, 0
2, 183880, Note_on_c, 0, 75, 0
2, 183932, Note_on_c, 0, 59, 50
2, 183936, Note_on_c, 0, 71, 53
2, 183996, Note_on_c, 0, 59, 0
2, 184008, Note_on_c, 0, 71, 0
2, 184044, Note_on_c, 0, 68, 58
2, 184136, Note_on_c, 0, 68, 0
2, 184172, Note_on_c, 0, 63, 55
2, 184196, Note_on_c, 0, 63, 0
2, 184216, Note_on_c, 0, 55, 39
2, 184248, Note_on_c, 0, 55, 0
2, 184304, Note_on_c, 0, 74, 83
2, 184340, Note_on_c, 0, 62, 42
2, 184412, Note_on_c, 0, 62, 0
2, 184428, Note_on_c, 0, 74, 0
2, 184440, Note_on_c, 0, 70, 57
2, 184496, Note_on_c, 0, 70, 0
2, 184708, Note_on_c, 0, 73, 89
2, 184716, Note_on_c, 0, 64, 67
2, 184728, Note_on_c, 0, 58, 62
2, 184736, Note_on_c, 0, 70, 43
2, 184748, Note_on_c, 0, 64, 0
2, 184764, Note_on_c, 0, 58, 0
2, 184776, Note_on_c, 0, 70, 0
2, 184788, Note_on_c, 0, 73, 0
2, 184868, Note_on_c, 0, 56, 40
2, 184932, Note_on_c, 0, 56, 0
2, 184988, Note_on_c, 0, 72, 89
2, 184996, Note_on_c, 0, 63, 83
2, 185016, Note_on_c, 0, 68, 56
2, 185040, Note_on_c, 0, 58, 45
2, 185072, Note_on_c, 0, 58, 0
2, 185188, Note_on_c, 0, 72, 0
2, 185212, Note_on_c, 0, 63, 0
2, 185224, Note_on_c, 0, 68, 0
2, 185476, Note_on_c, 0, 62, 68
2, 185476, Note_on_c, 0, 71, 67
2, 185488, Note_on_c, 0, 67, 57
2, 185488, Note_on_c, 0, 56, 58
2, 185508, Note_on_c, 0, 71, 0
2, 185508, Note_on_c, 0, 62, 0
2, 185548, Note_on_c, 0, 67, 0
2, 185556, Note_on_c, 0, 56, 0
2, 185712, Note_on_c, 0, 70, 70
2, 185724, Note_on_c, 0, 65, 70
2, 185736, Note_on_c, 0, 60, 58
2, 185764, Note_on_c, 0, 55, 53
2, 185924, Note_on_c, 0, 65, 0
2, 185936, Note_on_c, 0, 70, 0
2, 185944, Note_on_c, 0, 60, 0
2, 185980, Note_on_c, 0, 55, 0
2, 185996, Note_on_c, 0, 69, 68
2, 186020, Note_on_c, 0, 54, 50
2, 186028, Note_on_c, 0, 64, 39
2, 186068, Note_on_c, 0, 69, 0
2, 186088, Note_on_c, 0, 64, 0
2, 186196, Note_on_c, 0, 54, 0
2, 186252, Note_on_c, 0, 70, 66
2, 186260, Note_on_c, 0, 60, 64
2, 186260, Note_on_c, 0, 65, 63
2, 186340, Note_on_c, 0, 60, 0
2, 186352, Note_on_c, 0, 65, 0
2, 186364, Note_on_c, 0, 70, 0
2, 186476, Note_on_c, 0, 41, 89
2, 186480, Note_on_c, 0, 53, 89
2, 186792, Note_on_c, 0, 53, 0
2, 186868, Note_on_c, 0, 53, 53
2, 186880, Note_on_c, 0, 48, 46
2, 186928, Note_on_c, 0, 53, 0
2, 186956, Note_on_c, 0, 41, 0
2, 186992, Note_on_c, 0, 48, 0
2, 187008, Note_on_c, 0, 73, 52
2, 187048, Note_on_c, 0, 73, 0
2, 187080, Note_on_c, 0, 74, 51
2, 187180, Note_on_c, 0, 74, 0
2, 187248, Note_on_c, 0, 77, 104
2, 187336, Note_on_c, 0, 77, 0
2, 187416, Note_on_c, 0, 74, 55
2, 187556, Note_on_c, 0, 74, 0
2, 187756, Note_on_c, 0, 65, 57
2, 187984, Note_on_c, 0, 65, 0
2, 188156, Note_on_c, 0, 65, 56
2, 188236, Note_on_c, 0, 65, 0
2, 188296, Note_on_c, 0, 67, 55
2, 188332, Note_on_c, 0, 67, 0
2, 188408, Note_on_c, 0, 69, 73
2, 188432, Note_on_c, 0, 57, 50
2, 188460, Note_on_c, 0, 69, 0
2, 188464, Note_on_c, 0, 57, 0
2, 188512, Note_on_c, 0, 72, 70
2, 188540, Note_on_c, 0, 60, 43
2, 188588, Note_on_c, 0, 60, 0
2, 188588, Note_on_c, 0, 72, 0
2, 188608, Note_on_c, 0, 69, 58
2, 188644, Note_on_c, 0, 69, 0
2, 188692, Note_on_c, 0, 57, 39
2, 188720, Note_on_c, 0, 70, 60
2, 188728, Note_on_c, 0, 57, 0
2, 188740, Note_on_c, 0, 58, 48
2, 188752, Note_on_c, 0, 70, 0
2, 188788, Note_on_c, 0, 58, 0
2, 188824, Note_on_c, 0, 74, 70
2, 188868, Note_on_c, 0, 74, 0
2, 188912, Note_on_c, 0, 78, 60
2, 189000, Note_on_c, 0, 78, 0
2, 189032, Note_on_c, 0, 81, 92
2, 189068, Note_on_c, 0, 69, 45
2, 189104, Note_on_c, 0, 69, 0
2, 189128, Note_on_c, 0, 81, 0
2, 189144, Note_on_c, 0, 78, 70
2, 189172, Note_on_c, 0, 66, 40
2, 189180, Note_on_c, 0, 78, 0
2, 189212, Note_on_c, 0, 66, 0
2, 189228, Note_on_c, 0, 67, 47
2, 189228, Note_on_c, 0, 79, 61
2, 189280, Note_on_c, 0, 67, 0
2, 189308, Note_on_c, 0, 79, 0
2, 189312, Note_on_c, 0, 81, 67
2, 189348, Note_on_c, 0, 69, 32
2, 189416, Note_on_c, 0, 81, 0
2, 189420, Note_on_c, 0, 69, 0
2, 189436, Note_on_c, 0, 82, 52
2, 189444, Note_on_c, 0, 70, 34
2, 189464, Note_on_c, 0, 82, 0
2, 189500, Note_on_c, 0, 70, 0
2, 189516, Note_on_c, 0, 83, 45
2, 189552, Note_on_c, 0, 83, 0
2, 189596, Note_on_c, 0, 86, 90
2, 189612, Note_on_c, 0, 74, 49
2, 189640, Note_on_c, 0, 74, 0
2, 189656, Note_on_c, 0, 70, 47
2, 189676, Note_on_c, 0, 86, 0
2, 189688, Note_on_c, 0, 70, 0
2, 189708, Note_on_c, 0, 83, 55
2, 189712, Note_on_c, 0, 71, 56
2, 189744, Note_on_c, 0, 83, 0
2, 189768, Note_on_c, 0, 71, 0
2, 189800, Note_on_c, 0, 84, 82
2, 189808, Note_on_c, 0, 72, 53
2, 189852, Note_on_c, 0, 72, 0
2, 189888, Note_on_c, 0, 84, 0
2, 189916, Note_on_c, 0, 67, 60
2, 189928, Note_on_c, 0, 79, 53
2, 189932, Note_on_c, 0, 77, 56
2, 189960, Note_on_c, 0, 77, 0
2, 189960, Note_on_c, 0, 79, 0
2, 189984, Note_on_c, 0, 67, 0
2, 190120, Note_on_c, 0, 78, 92
2, 190132, Note_on_c, 0, 66, 58
2, 190168, Note_on_c, 0, 66, 0
2, 190296, Note_on_c, 0, 78, 0
2, 190312, Note_on_c, 0, 80, 94
2, 190340, Note_on_c, 0, 68, 69
2, 190388, Note_on_c, 0, 68, 0
2, 190440, Note_on_c, 0, 80, 0
2, 190508, Note_on_c, 0, 77, 76
2, 190528, Note_on_c, 0, 65, 46
2, 190620, Note_on_c, 0, 77, 0
2, 190656, Note_on_c, 0, 65, 0
2, 190692, Note_on_c, 0, 75, 76
2, 190704, Note_on_c, 0, 63, 62
2, 190764, Note_on_c, 0, 75, 0
2, 190784, Note_on_c, 0, 63, 0
2, 190888, Note_on_c, 0, 74, 78
2, 190904, Note_on_c, 0, 62, 37
2, 191028, Note_on_c, 0, 74, 0
2, 191060, Note_on_c, 0, 62, 0
2, 191096, Note_on_c, 0, 75, 82
2, 191112, Note_on_c, 0, 63, 54
2, 191148, Note_on_c, 0, 63, 0
2, 191204, Note_on_c, 0, 75, 0
2, 191248, Note_on_c, 0, 77, 80
2, 191252, Note_on_c, 0, 65, 47
2, 191344, Note_on_c, 0, 77, 0
2, 191356, Note_on_c, 0, 65, 0
2, 191472, Note_on_c, 0, 74, 72
2, 191488, Note_on_c, 0, 62, 41
2, 191548, Note_on_c, 0, 62, 0
2, 191564, Note_on_c, 0, 74, 0
2, 191616, Note_on_c, 0, 70, 52
2, 191616, Note_on_c, 0, 58, 50
2, 191832, Note_on_c, 0, 70, 0
2, 191872, Note_on_c, 0, 67, 48
2, 191904, Note_on_c, 0, 67, 0
2, 191936, Note_on_c, 0, 58, 0
2, 192008, Note_on_c, 0, 74, 76
2, 192020, Note_on_c, 0, 62, 48
2, 192096, Note_on_c, 0, 62, 0
2, 192100, Note_on_c, 0, 74, 0
2, 192104, Note_on_c, 0, 73, 53
2, 192184, Note_on_c, 0, 72, 43
2, 192224, Note_on_c, 0, 73, 0
2, 192260, Note_on_c, 0, 72, 0
2, 192268, Note_on_c, 0, 71, 40
2, 192276, Note_on_c, 0, 59, 27
2, 192304, Note_on_c, 0, 71, 0
2, 192316, Note_on_c, 0, 59, 0
2, 192368, Note_on_c, 0, 74, 73
2, 192376, Note_on_c, 0, 62, 45
2, 192416, Note_on_c, 0, 62, 0
2, 192456, Note_on_c, 0, 74, 0
2, 192480, Note_on_c, 0, 71, 51
2, 192508, Note_on_c, 0, 59, 30
2, 192536, Note_on_c, 0, 71, 0
2, 192548, Note_on_c, 0, 59, 0
2, 192588, Note_on_c, 0, 72, 77
2, 192596, Note_on_c, 0, 60, 46
2, 192692, Note_on_c, 0, 72, 0
2, 192696, Note_on_c, 0, 60, 0
2, 192772, Note_on_c, 0, 71, 82
2, 192784, Note_on_c, 0, 59, 62
2, 193168, Note_on_c, 0, 71, 0
2, 193188, Note_on_c, 0, 59, 0
2, 193348, Note_on_c, 0, 66, 72
2, 193364, Note_on_c, 0, 54, 54
2, 193448, Note_on_c, 0, 54, 0
2, 193464, Note_on_c, 0, 51, 52
2, 193468, Note_on_c, 0, 66, 0
2, 193468, Note_on_c, 0, 63, 61
2, 193576, Note_on_c, 0, 51, 0
2, 193580, Note_on_c, 0, 63, 0
2, 193608, Note_on_c, 0, 60, 39
2, 193648, Note_on_c, 0, 60, 0
2, 193720, Note_on_c, 0, 65, 78
2, 193756, Note_on_c, 0, 53, 50
2, 193912, Note_on_c, 0, 53, 0
2, 193924, Note_on_c, 0, 65, 0
2, 193948, Note_on_c, 0, 49, 59
2, 193948, Note_on_c, 0, 61, 61
2, 194056, Note_on_c, 0, 61, 0
2, 194060, Note_on_c, 0, 49, 0
2, 194068, Note_on_c, 0, 62, 64
2, 194100, Note_on_c, 0, 50, 55
2, 194156, Note_on_c, 0, 62, 0
2, 194196, Note_on_c, 0, 50, 0
2, 194264, Note_on_c, 0, 63, 78
2, 194284, Note_on_c, 0, 51, 56
2, 194360, Note_on_c, 0, 63, 0
2, 194372, Note_on_c, 0, 51, 0
2, 194388, Note_on_c, 0, 64, 76
2, 194412, Note_on_c, 0, 52, 53
2, 194472, Note_on_c, 0, 64, 0
2, 194480, Note_on_c, 0, 52, 0
2, 194504, Note_on_c, 0, 65, 86
2, 194528, Note_on_c, 0, 53, 52
2, 194604, Note_on_c, 0, 65, 0
2, 194608, Note_on_c, 0, 53, 0
2, 194632, Note_on_c, 0, 63, 65
2, 194644, Note_on_c, 0, 51, 36
2, 194712, Note_on_c, 0, 63, 0
2, 194724, Note_on_c, 0, 51, 0
2, 194724, Note_on_c, 0, 60, 70
2, 194800, Note_on_c, 0, 60, 0
2, 194824, Note_on_c, 0, 56, 56
2, 194856, Note_on_c, 0, 56, 0
2, 194948, Note_on_c, 0, 44, 45
2, 194980, Note_on_c, 0, 44, 0
2, 194988, Note_on_c, 0, 53, 43
2, 195020, Note_on_c, 0, 53, 0
2, 195080, Note_on_c, 0, 58, 76
2, 195168, Note_on_c, 0, 58, 0
2, 195280, Note_on_c, 0, 58, 89
2, 195284, Note_on_c, 0, 46, 64
2, 195384, Note_on_c, 0, 46, 0
2, 195384, Note_on_c, 0, 58, 0
2, 195440, Note_on_c, 0, 55, 72
2, 195504, Note_on_c, 0, 43, 51
2, 195608, Note_on_c, 0, 43, 0
2, 195608, Note_on_c, 0, 55, 0
2, 195688, Note_on_c, 0, 55, 56
2, 195692, Note_on_c, 0, 43, 47
2, 195756, Note_on_c, 0, 55, 0
2, 195772, Note_on_c, 0, 43, 0
2, 196072, Note_on_c, 0, 44, 51
2, 196140, Note_on_c, 0, 44, 0
2, 196184, Note_on_c, 0, 48, 60
2, 196196, Note_on_c, 0, 60, 81
2, 196272, Note_on_c, 0, 48, 0
2, 196284, Note_on_c, 0, 60, 0
2, 196308, Note_on_c, 0, 44, 47
2, 196324, Note_on_c, 0, 56, 44
2, 196360, Note_on_c, 0, 56, 0
2, 196420, Note_on_c, 0, 44, 0
2, 196444, Note_on_c, 0, 60, 81
2, 196452, Note_on_c, 0, 48, 62
2, 196528, Note_on_c, 0, 48, 0
2, 196548, Note_on_c, 0, 60, 0
2, 196620, Note_on_c, 0, 50, 51
2, 196624, Note_on_c, 0, 62, 59
2, 196672, Note_on_c, 0, 53, 5
2, 196724, Note_on_c, 0, 62, 0
2, 196740, Note_on_c, 0, 53, 0
2, 196752, Note_on_c, 0, 50, 0
2, 196844, Note_on_c, 0, 53, 64
2, 196852, Note_on_c, 0, 50, 56
2, 196852, Note_on_c, 0, 62, 49
2, 196876, Note_on_c, 0, 62, 0
2, 196884, Note_on_c, 0, 53, 0
2, 196984, Note_on_c, 0, 50, 0
2, 196988, Note_on_c, 0, 54, 50
2, 196992, Note_on_c, 0, 49, 49
2, 197012, Note_on_c, 0, 63, 33
2, 197036, Note_on_c, 0, 49, 0
2, 197044, Note_on_c, 0, 59, 45
2, 197060, Note_on_c, 0, 63, 0
2, 197084, Note_on_c, 0, 59, 0
2, 197100, Note_on_c, 0, 54, 0
2, 197212, Note_on_c, 0, 63, 71
2, 197216, Note_on_c, 0, 49, 62
2, 197216, Note_on_c, 0, 54, 65
2, 197300, Note_on_c, 0, 63, 0
2, 197316, Note_on_c, 0, 54, 0
2, 197316, Note_on_c, 0, 49, 0
2, 197376, Note_on_c, 0, 48, 50
2, 197384, Note_on_c, 0, 55, 47
2, 197420, Note_on_c, 0, 60, 31
2, 197436, Note_on_c, 0, 58, 21
2, 197444, Note_on_c, 0, 55, 0
2, 197448, Note_on_c, 0, 48, 0
2, 197468, Note_on_c, 0, 60, 0
2, 197472, Note_on_c, 0, 58, 0
2, 197584, Note_on_c, 0, 63, 69
2, 197600, Note_on_c, 0, 48, 61
2, 197612, Note_on_c, 0, 55, 56
2, 197624, Note_on_c, 0, 58, 39
2, 197628, Note_on_c, 0, 48, 0
2, 197640, Note_on_c, 0, 55, 0
2, 197660, Note_on_c, 0, 58, 0
2, 197664, Note_on_c, 0, 63, 0
2, 197724, Note_on_c, 0, 65, 62
2, 197740, Note_on_c, 0, 51, 53
2, 197748, Note_on_c, 0, 60, 46
2, 197756, Note_on_c, 0, 57, 35
2, 197784, Note_on_c, 0, 51, 0
2, 197812, Note_on_c, 0, 65, 0
2, 197812, Note_on_c, 0, 57, 0
2, 197832, Note_on_c, 0, 60, 0
2, 197972, Note_on_c, 0, 51, 52
2, 197976, Note_on_c, 0, 57, 46
2, 197996, Note_on_c, 0, 51, 0
2, 197996, Note_on_c, 0, 63, 37
2, 198004, Note_on_c, 0, 57, 0
2, 198032, Note_on_c, 0, 63, 0
2, 198104, Note_on_c, 0, 60, 68
2, 198108, Note_on_c, 0, 70, 70
2, 198116, Note_on_c, 0, 65, 52
2, 198128, Note_on_c, 0, 55, 44
2, 198308, Note_on_c, 0, 65, 0
2, 198316, Note_on_c, 0, 70, 0
2, 198320, Note_on_c, 0, 60, 0
2, 198396, Note_on_c, 0, 55, 0
2, 198468, Note_on_c, 0, 54, 47
2, 198472, Note_on_c, 0, 69, 60
2, 198476, Note_on_c, 0, 59, 47
2, 198480, Note_on_c, 0, 64, 64
2, 198604, Note_on_c, 0, 69, 0
2, 198632, Note_on_c, 0, 59, 0
2, 198688, Note_on_c, 0, 64, 0
2, 198752, Note_on_c, 0, 51, 47
2, 198804, Note_on_c, 0, 54, 0
2, 198852, Note_on_c, 0, 51, 0
2, 198860, Note_on_c, 0, 70, 70
2, 198864, Note_on_c, 0, 55, 52
2, 198872, Note_on_c, 0, 65, 56
2, 198876, Note_on_c, 0, 60, 51
2, 199072, Note_on_c, 0, 65, 0
2, 199084, Note_on_c, 0, 70, 0
2, 199096, Note_on_c, 0, 60, 0
2, 199192, Note_on_c, 0, 55, 0
2, 199244, Note_on_c, 0, 59, 50
2, 199244, Note_on_c, 0, 54, 49
2, 199244, Note_on_c, 0, 64, 61
2, 199244, Note_on_c, 0, 69, 51
2, 199400, Note_on_c, 0, 59, 0
2, 199432, Note_on_c, 0, 69, 0
2, 199476, Note_on_c, 0, 64, 0
2, 199532, Note_on_c, 0, 51, 42
2, 199604, Note_on_c, 0, 54, 0
2, 199632, Note_on_c, 0, 51, 0
2, 199636, Note_on_c, 0, 70, 76
2, 199648, Note_on_c, 0, 55, 55
2, 199648, Note_on_c, 0, 65, 61
2, 199656, Note_on_c, 0, 60, 58
2, 199840, Note_on_c, 0, 65, 0
2, 199844, Note_on_c, 0, 70, 0
2, 199860, Note_on_c, 0, 60, 0
2, 199972, Note_on_c, 0, 55, 0
2, 200024, Note_on_c, 0, 64, 66
2, 200024, Note_on_c, 0, 54, 53
2, 200028, Note_on_c, 0, 69, 58
2, 200028, Note_on_c, 0, 59, 58
2, 200196, Note_on_c, 0, 59, 0
2, 200212, Note_on_c, 0, 69, 0
2, 200248, Note_on_c, 0, 64, 0
2, 200300, Note_on_c, 0, 51, 45
2, 200372, Note_on_c, 0, 54, 0
2, 200400, Note_on_c, 0, 51, 0
2, 200400, Note_on_c, 0, 70, 83
2, 200412, Note_on_c, 0, 65, 66
2, 200412, Note_on_c, 0, 55, 60
2, 200420, Note_on_c, 0, 60, 65
2, 200600, Note_on_c, 0, 65, 0
2, 200604, Note_on_c, 0, 60, 0
2, 200632, Note_on_c, 0, 70, 0
2, 200644, Note_on_c, 0, 55, 0
2, 200768, Note_on_c, 0, 70, 75
2, 200784, Note_on_c, 0, 55, 65
2, 200812, Note_on_c, 0, 63, 51
2, 200964, Note_on_c, 0, 63, 0
2, 200964, Note_on_c, 0, 55, 0
2, 200972, Note_on_c, 0, 70, 0
2, 201068, Note_on_c, 0, 70, 77
2, 201072, Note_on_c, 0, 63, 70
2, 201080, Note_on_c, 0, 60, 58
2, 201088, Note_on_c, 0, 67, 61
2, 201088, Note_on_c, 0, 55, 62
2, 201096, Note_on_c, 0, 48, 45
2, 201104, Note_on_c, 0, 60, 0
2, 201124, Note_on_c, 0, 48, 0
2, 201128, Note_on_c, 0, 55, 0
2, 201136, Note_on_c, 0, 63, 0
2, 201140, Note_on_c, 0, 67, 0
2, 201172, Note_on_c, 0, 70, 0
2, 201456, Note_on_c, 0, 69, 97
2, 201464, Note_on_c, 0, 65, 60
2, 201496, Note_on_c, 0, 65, 0
2, 201564, Note_on_c, 0, 69, 0
2, 201624, Note_on_c, 0, 70, 53
2, 201788, Note_on_c, 0, 70, 0
2, 201832, Note_on_c, 0, 72, 89
2, 201836, Note_on_c, 0, 66, 64
2, 201844, Note_on_c, 0, 63, 55
2, 201860, Note_on_c, 0, 61, 43
2, 201868, Note_on_c, 0, 57, 37
2, 201912, Note_on_c, 0, 66, 0
2, 201928, Note_on_c, 0, 72, 0
2, 202016, Note_on_c, 0, 73, 53
2, 202052, Note_on_c, 0, 61, 0
2, 202072, Note_on_c, 0, 63, 0
2, 202184, Note_on_c, 0, 73, 0
2, 202224, Note_on_c, 0, 66, 60
2, 202228, Note_on_c, 0, 75, 74
2, 202236, Note_on_c, 0, 63, 51
2, 202256, Note_on_c, 0, 66, 0
2, 202264, Note_on_c, 0, 61, 34
2, 202316, Note_on_c, 0, 75, 0
2, 202352, Note_on_c, 0, 57, 0
2, 202376, Note_on_c, 0, 78, 73
2, 202436, Note_on_c, 0, 63, 0
2, 202464, Note_on_c, 0, 61, 0
2, 202552, Note_on_c, 0, 78, 0
2, 202596, Note_on_c, 0, 80, 80
2, 202604, Note_on_c, 0, 60, 58
2, 202608, Note_on_c, 0, 65, 54
2, 202608, Note_on_c, 0, 62, 46
2, 202636, Note_on_c, 0, 55, 37
2, 202688, Note_on_c, 0, 80, 0
2, 202740, Note_on_c, 0, 77, 62
2, 202984, Note_on_c, 0, 77, 0
2, 203000, Note_on_c, 0, 65, 0
2, 203056, Note_on_c, 0, 62, 0
2, 203076, Note_on_c, 0, 60, 0
2, 203092, Note_on_c, 0, 74, 64
2, 203120, Note_on_c, 0, 55, 0
2, 203320, Note_on_c, 0, 74, 0
2, 203488, Note_on_c, 0, 55, 42
2, 203496, Note_on_c, 0, 62, 33
2, 203496, Note_on_c, 0, 53, 44
2, 203504, Note_on_c, 0, 77, 83
2, 203508, Note_on_c, 0, 58, 52
2, 203716, Note_on_c, 0, 77, 0
2, 203764, Note_on_c, 0, 53, 0
2, 203772, Note_on_c, 0, 77, 78
2, 203776, Note_on_c, 0, 55, 0
2, 203784, Note_on_c, 0, 58, 0
2, 203800, Note_on_c, 0, 62, 0
2, 203840, Note_on_c, 0, 77, 0
2, 204128, Note_on_c, 0, 85, 92
2, 204136, Note_on_c, 0, 73, 98
2, 204140, Note_on_c, 0, 67, 77
2, 204144, Note_on_c, 0, 63, 68
2, 204148, Note_on_c, 0, 60, 64
2, 204168, Note_on_c, 0, 58, 35
2, 204168, Note_on_c, 0, 75, 37
2, 204184, Note_on_c, 0, 60, 0
2, 204188, Note_on_c, 0, 67, 0
2, 204204, Note_on_c, 0, 58, 0
2, 204240, Note_on_c, 0, 63, 0
2, 204240, Note_on_c, 0, 73, 0
2, 204252, Note_on_c, 0, 75, 0
2, 204272, Note_on_c, 0, 74, 56
2, 204280, Note_on_c, 0, 85, 0
2, 204372, Note_on_c, 0, 74, 0
2, 204376, Note_on_c, 0, 86, 62
2, 204452, Note_on_c, 0, 86, 0
2, 204480, Note_on_c, 0, 74, 57
2, 204580, Note_on_c, 0, 61, 32
2, 204588, Note_on_c, 0, 74, 0
2, 204624, Note_on_c, 0, 61, 0
2, 204624, Note_on_c, 0, 84, 62
2, 204656, Note_on_c, 0, 72, 67
2, 204796, Note_on_c, 0, 84, 0
2, 204824, Note_on_c, 0, 72, 0
2, 204908, Note_on_c, 0, 66, 69
2, 204912, Note_on_c, 0, 82, 74
2, 204928, Note_on_c, 0, 63, 50
2, 204936, Note_on_c, 0, 57, 37
2, 204980, Note_on_c, 0, 66, 0
2, 205032, Note_on_c, 0, 82, 0
2, 205036, Note_on_c, 0, 57, 0
2, 205068, Note_on_c, 0, 63, 0
2, 205092, Note_on_c, 0, 81, 53
2, 205220, Note_on_c, 0, 81, 0
2, 205588, Note_on_c, 0, 86, 76
2, 205672, Note_on_c, 0, 86, 0
2, 205704, Note_on_c, 0, 89, 94
2, 205796, Note_on_c, 0, 89, 0
2, 205852, Note_on_c, 0, 86, 64
2, 205988, Note_on_c, 0, 86, 0
2, 206096, Note_on_c, 0, 62, 37
2, 206104, Note_on_c, 0, 60, 46
2, 206132, Note_on_c, 0, 62, 0
2, 206136, Note_on_c, 0, 60, 0
2, 206436, Note_on_c, 0, 67, 88
2, 206436, Note_on_c, 0, 85, 102
2, 206448, Note_on_c, 0, 56, 62
2, 206448, Note_on_c, 0, 63, 59
2, 206448, Note_on_c, 0, 60, 62
2, 206600, Note_on_c, 0, 85, 0
2, 206648, Note_on_c, 0, 86, 78
2, 206812, Note_on_c, 0, 67, 0
2, 206852, Note_on_c, 0, 56, 0
2, 206884, Note_on_c, 0, 63, 0
2, 206908, Note_on_c, 0, 60, 0
2, 206920, Note_on_c, 0, 86, 0
2, 206952, Note_on_c, 0, 66, 67
2, 206952, Note_on_c, 0, 56, 58
2, 206952, Note_on_c, 0, 82, 68
2, 206984, Note_on_c, 0, 62, 42
2, 207128, Note_on_c, 0, 66, 0
2, 207148, Note_on_c, 0, 62, 0
2, 207212, Note_on_c, 0, 56, 0
2, 207220, Note_on_c, 0, 82, 0
2, 207224, Note_on_c, 0, 62, 28
2, 207228, Note_on_c, 0, 79, 67
2, 207232, Note_on_c, 0, 65, 50
2, 207232, Note_on_c, 0, 55, 49
2, 207248, Note_on_c, 0, 60, 21
2, 207500, Note_on_c, 0, 79, 0
2, 207560, Note_on_c, 0, 62, 0
2, 207584, Note_on_c, 0, 65, 0
2, 207676, Note_on_c, 0, 60, 0
2, 207748, Note_on_c, 0, 55, 0
2, 208000, Note_on_c, 0, 65, 58
2, 208000, Note_on_c, 0, 54, 64
2, 208004, Note_on_c, 0, 60, 55
2, 208012, Note_on_c, 0, 85, 97
2, 208164, Note_on_c, 0, 85, 0
2, 208212, Note_on_c, 0, 65, 0
2, 208236, Note_on_c, 0, 86, 107
2, 208268, Note_on_c, 0, 60, 0
2, 208376, Note_on_c, 0, 65, 55
2, 208400, Note_on_c, 0, 60, 55
2, 208404, Note_on_c, 0, 86, 0
2, 208416, Note_on_c, 0, 65, 0
2, 208488, Note_on_c, 0, 80, 64
2, 208492, Note_on_c, 0, 54, 0
2, 208536, Note_on_c, 0, 60, 0
2, 208576, Note_on_c, 0, 80, 0
2, 208896, Note_on_c, 0, 66, 42
2, 208932, Note_on_c, 0, 66, 0
2, 209104, Note_on_c, 0, 72, 79
2, 209104, Note_on_c, 0, 60, 76
2, 209112, Note_on_c, 0, 65, 80
2, 209120, Note_on_c, 0, 62, 72
2, 209124, Note_on_c, 0, 69, 50
2, 209168, Note_on_c, 0, 62, 0
2, 209180, Note_on_c, 0, 60, 0
2, 209184, Note_on_c, 0, 69, 0
2, 209184, Note_on_c, 0, 65, 0
2, 209192, Note_on_c, 0, 72, 0
2, 209236, Note_on_c, 0, 57, 68
2, 209336, Note_on_c, 0, 57, 0
2, 209388, Note_on_c, 0, 58, 71
2, 209392, Note_on_c, 0, 70, 75
2, 209396, Note_on_c, 0, 67, 69
2, 209400, Note_on_c, 0, 63, 68
2, 209404, Note_on_c, 0, 60, 70
2, 209516, Note_on_c, 0, 67, 0
2, 209536, Note_on_c, 0, 70, 0
2, 209540, Note_on_c, 0, 58, 0
2, 209548, Note_on_c, 0, 60, 0
2, 209564, Note_on_c, 0, 63, 0
2, 209676, Note_on_c, 0, 55, 67
2, 209680, Note_on_c, 0, 58, 70
2, 209680, Note_on_c, 0, 63, 70
2, 209692, Note_on_c, 0, 67, 50
2, 209708, Note_on_c, 0, 58, 0
2, 209748, Note_on_c, 0, 58, 29
2, 209856, Note_on_c, 0, 67, 0
2, 209908, Note_on_c, 0, 55, 0
2, 209916, Note_on_c, 0, 51, 43
2, 209932, Note_on_c, 0, 58, 0
2, 209940, Note_on_c, 0, 63, 0
2, 210016, Note_on_c, 0, 54, 58
2, 210028, Note_on_c, 0, 51, 0
2, 210028, Note_on_c, 0, 66, 60
2, 210036, Note_on_c, 0, 63, 49
2, 210040, Note_on_c, 0, 57, 41
2, 210044, Note_on_c, 0, 61, 54
2, 210216, Note_on_c, 0, 66, 0
2, 210220, Note_on_c, 0, 54, 0
2, 210224, Note_on_c, 0, 57, 0
2, 210240, Note_on_c, 0, 51, 47
2, 210252, Note_on_c, 0, 63, 0
2, 210256, Note_on_c, 0, 61, 0
2, 210292, Note_on_c, 0, 57, 58
2, 210304, Note_on_c, 0, 65, 50
2, 210304, Note_on_c, 0, 62, 56
2, 210308, Note_on_c, 0, 51, 0
2, 210312, Note_on_c, 0, 60, 53
2, 210320, Note_on_c, 0, 53, 46
2, 210796, Note_on_c, 0, 41, 73
2, 210820, Note_on_c, 0, 57, 0
2, 210832, Note_on_c, 0, 60, 0
2, 210852, Note_on_c, 0, 62, 0
2, 210920, Note_on_c, 0, 65, 0
2, 210932, Note_on_c, 0, 53, 0
2, 211088, Note_on_c, 0, 48, 60
2, 211120, Note_on_c, 0, 41, 0
2, 211180, Note_on_c, 0, 48, 0
2, 211188, Note_on_c, 0, 67, 67
2, 211192, Note_on_c, 0, 63, 60
2, 211192, Note_on_c, 0, 60, 64
2, 211196, Note_on_c, 0, 57, 62
2, 211196, Note_on_c, 0, 55, 65
2, 211396, Note_on_c, 0, 67, 0
2, 211408, Note_on_c, 0, 60, 0
2, 211436, Note_on_c, 0, 57, 0
2, 211456, Note_on_c, 0, 63, 0
2, 211532, Note_on_c, 0, 55, 0
2, 211568, Note_on_c, 0, 66, 62
2, 211568, Note_on_c, 0, 63, 58
2, 211572, Note_on_c, 0, 54, 51
2, 211572, Note_on_c, 0, 61, 64
2, 211580, Note_on_c, 0, 57, 54
2, 211816, Note_on_c, 0, 57, 0
2, 211820, Note_on_c, 0, 66, 0
2, 211840, Note_on_c, 0, 51, 50
2, 211860, Note_on_c, 0, 54, 0
2, 211868, Note_on_c, 0, 61, 0
2, 211868, Note_on_c, 0, 63, 0
2, 211924, Note_on_c, 0, 51, 0
2, 211940, Note_on_c, 0, 57, 62
2, 211948, Note_on_c, 0, 60, 55
2, 211952, Note_on_c, 0, 62, 47
2, 211956, Note_on_c, 0, 53, 50
2, 211956, Note_on_c, 0, 65, 50
2, 212100, Note_on_c, 0, 65, 0
2, 212108, Note_on_c, 0, 62, 0
2, 212120, Note_on_c, 0, 60, 0
2, 212160, Note_on_c, 0, 57, 0
2, 212196, Note_on_c, 0, 53, 0
2, 212260, Note_on_c, 0, 48, 54
2, 212312, Note_on_c, 0, 48, 0
2, 212328, Note_on_c, 0, 61, 66
2, 212332, Note_on_c, 0, 50, 56
2, 212332, Note_on_c, 0, 53, 58
2, 212340, Note_on_c, 0, 49, 44
2, 212340, Note_on_c, 0, 58, 59
2, 212360, Note_on_c, 0, 55, 41
2, 212376, Note_on_c, 0, 49, 0
2, 212520, Note_on_c, 0, 55, 0
2, 212568, Note_on_c, 0, 58, 0
2, 212572, Note_on_c, 0, 61, 0
2, 212592, Note_on_c, 0, 53, 0
2, 212628, Note_on_c, 0, 51, 61
2, 212632, Note_on_c, 0, 50, 0
2, 212712, Note_on_c, 0, 51, 0
2, 212712, Note_on_c, 0, 58, 69
2, 212712, Note_on_c, 0, 61, 29
2, 212720, Note_on_c, 0, 55, 71
2, 212728, Note_on_c, 0, 53, 68
2, 212732, Note_on_c, 0, 65, 54
2, 212732, Note_on_c, 0, 62, 58
2, 212744, Note_on_c, 0, 63, 37
2, 212920, Note_on_c, 0, 61, 0
2, 212932, Note_on_c, 0, 62, 0
2, 212948, Note_on_c, 0, 55, 0
2, 212972, Note_on_c, 0, 58, 0
2, 212972, Note_on_c, 0, 65, 0
2, 212988, Note_on_c, 0, 63, 0
2, 213052, Note_on_c, 0, 53, 0
2, 213076, Note_on_c, 0, 58, 71
2, 213084, Note_on_c, 0, 55, 65
2, 213092, Note_on_c, 0, 50, 58
2, 213100, Note_on_c, 0, 62, 56
2, 213100, Note_on_c, 0, 61, 43
2, 213164, Note_on_c, 0, 63, 23
2, 213236, Note_on_c, 0, 62, 0
2, 213284, Note_on_c, 0, 61, 0
2, 213308, Note_on_c, 0, 63, 0
2, 213352, Note_on_c, 0, 49, 55
2, 213356, Note_on_c, 0, 55, 0
2, 213360, Note_on_c, 0, 58, 0
2, 213380, Note_on_c, 0, 50, 0
2, 213464, Note_on_c, 0, 51, 56
2, 213472, Note_on_c, 0, 49, 0
2, 213476, Note_on_c, 0, 58, 61
2, 213484, Note_on_c, 0, 55, 60
2, 213488, Note_on_c, 0, 63, 56
2, 213488, Note_on_c, 0, 60, 53
2, 213672, Note_on_c, 0, 60, 0
2, 213676, Note_on_c, 0, 55, 0
2, 213712, Note_on_c, 0, 58, 0
2, 213716, Note_on_c, 0, 63, 0
2, 213864, Note_on_c, 0, 66, 70
2, 213864, Note_on_c, 0, 54, 70
2, 213872, Note_on_c, 0, 51, 0
2, 213872, Note_on_c, 0, 61, 64
2, 213872, Note_on_c, 0, 57, 62
2, 213880, Note_on_c, 0, 63, 55
2, 214112, Note_on_c, 0, 57, 0
2, 214128, Note_on_c, 0, 66, 0
2, 214144, Note_on_c, 0, 54, 0
2, 214144, Note_on_c, 0, 63, 0
2, 214152, Note_on_c, 0, 61, 0
2, 214160, Note_on_c, 0, 51, 49
2, 214244, Note_on_c, 0, 51, 0
2, 214248, Note_on_c, 0, 65, 56
2, 214256, Note_on_c, 0, 53, 56
2, 214256, Note_on_c, 0, 60, 57
2, 214256, Note_on_c, 0, 57, 47
2, 214268, Note_on_c, 0, 63, 44
2, 214396, Note_on_c, 0, 65, 0
2, 214728, Note_on_c, 0, 57, 0
2, 214740, Note_on_c, 0, 60, 0
2, 214744, Note_on_c, 0, 63, 0
2, 214856, Note_on_c, 0, 53, 0
2, 214900, Note_on_c, 0, 51, 65
2, 214900, Note_on_c, 0, 63, 61
2, 214908, Note_on_c, 0, 58, 64
2, 214912, Note_on_c, 0, 55, 63
2, 214936, Note_on_c, 0, 61, 38
2, 214976, Note_on_c, 0, 63, 0
2, 214992, Note_on_c, 0, 61, 0
2, 214996, Note_on_c, 0, 58, 0
2, 215008, Note_on_c, 0, 55, 0
2, 215068, Note_on_c, 0, 51, 0
2, 215112, Note_on_c, 0, 53, 51
2, 215116, Note_on_c, 0, 58, 52
2, 215116, Note_on_c, 0, 50, 50
2, 215128, Note_on_c, 0, 62, 43
2, 215144, Note_on_c, 0, 55, 39
2, 215204, Note_on_c, 0, 62, 0
2, 215260, Note_on_c, 0, 55, 0
2, 215276, Note_on_c, 0, 53, 0
2, 215288, Note_on_c, 0, 58, 0
2, 215392, Note_on_c, 0, 50, 0
2, 215416, Note_on_c, 0, 61, 52
2, 215420, Note_on_c, 0, 49, 49
2, 215424, Note_on_c, 0, 58, 47
2, 215428, Note_on_c, 0, 53, 48
2, 215536, Note_on_c, 0, 53, 0
2, 215544, Note_on_c, 0, 58, 0
2, 215544, Note_on_c, 0, 61, 0
2, 215584, Note_on_c, 0, 49, 0
2, 215652, Note_on_c, 0, 53, 55
2, 215664, Note_on_c, 0, 50, 58
2, 215684, Note_on_c, 0, 53, 0
2, 215784, Note_on_c, 0, 61, 56
2, 215792, Note_on_c, 0, 50, 0
2, 215804, Note_on_c, 0, 58, 53
2, 215808, Note_on_c, 0, 53, 63
2, 215812, Note_on_c, 0, 65, 51
2, 215812, Note_on_c, 0, 55, 47
2, 215820, Note_on_c, 0, 61, 0
2, 215836, Note_on_c, 0, 62, 40
2, 215936, Note_on_c, 0, 65, 0
2, 215956, Note_on_c, 0, 62, 0
2, 215964, Note_on_c, 0, 55, 0
2, 215980, Note_on_c, 0, 58, 0
2, 215988, Note_on_c, 0, 53, 0
2, 216048, Note_on_c, 0, 58, 64
2, 216052, Note_on_c, 0, 65, 60
2, 216052, Note_on_c, 0, 53, 64
2, 216052, Note_on_c, 0, 55, 51
2, 216084, Note_on_c, 0, 55, 0
2, 216088, Note_on_c, 0, 65, 0
2, 216108, Note_on_c, 0, 53, 0
2, 216116, Note_on_c, 0, 58, 0
2, 216408, Note_on_c, 0, 60, 83
2, 216420, Note_on_c, 0, 74, 97
2, 216420, Note_on_c, 0, 70, 78
2, 216420, Note_on_c, 0, 67, 83
2, 216420, Note_on_c, 0, 62, 80
2, 216420, Note_on_c, 0, 63, 79
2, 216476, Note_on_c, 0, 60, 0
2, 216820, Note_on_c, 0, 62, 0
2, 216828, Note_on_c, 0, 58, 40
2, 216844, Note_on_c, 0, 74, 0
2, 216848, Note_on_c, 0, 63, 0
2, 216864, Note_on_c, 0, 67, 0
2, 216888, Note_on_c, 0, 58, 0
2, 216888, Note_on_c, 0, 70, 0
2, 216920, Note_on_c, 0, 63, 56
2, 216936, Note_on_c, 0, 72, 64
2, 216936, Note_on_c, 0, 60, 48
2, 216940, Note_on_c, 0, 67, 50
2, 216960, Note_on_c, 0, 70, 29
2, 216992, Note_on_c, 0, 70, 0
2, 217020, Note_on_c, 0, 67, 0
2, 217048, Note_on_c, 0, 63, 0
2, 217088, Note_on_c, 0, 72, 0
2, 217128, Note_on_c, 0, 60, 0
2, 217188, Note_on_c, 0, 58, 67
2, 217196, Note_on_c, 0, 70, 64
2, 217200, Note_on_c, 0, 63, 54
2, 217204, Note_on_c, 0, 67, 52
2, 217280, Note_on_c, 0, 67, 0
2, 217280, Note_on_c, 0, 63, 0
2, 217292, Note_on_c, 0, 70, 0
2, 217304, Note_on_c, 0, 58, 0
2, 217376, Note_on_c, 0, 57, 43
2, 217504, Note_on_c, 0, 57, 0
2, 217572, Note_on_c, 0, 72, 62
2, 217620, Note_on_c, 0, 72, 0
2, 217720, Note_on_c, 0, 67, 69
2, 217724, Note_on_c, 0, 69, 76
2, 217732, Note_on_c, 0, 79, 48
2, 217748, Note_on_c, 0, 69, 0
2, 217764, Note_on_c, 0, 67, 0
2, 217776, Note_on_c, 0, 79, 0
2, 217952, Note_on_c, 0, 63, 65
2, 217956, Note_on_c, 0, 75, 76
2, 217976, Note_on_c, 0, 70, 53
2, 217984, Note_on_c, 0, 67, 39
2, 218008, Note_on_c, 0, 70, 0
2, 218020, Note_on_c, 0, 67, 0
2, 218032, Note_on_c, 0, 75, 0
2, 218048, Note_on_c, 0, 63, 0
2, 218104, Note_on_c, 0, 67, 54
2, 218120, Note_on_c, 0, 74, 61
2, 218120, Note_on_c, 0, 62, 50
2, 218188, Note_on_c, 0, 74, 0
2, 218252, Note_on_c, 0, 67, 0
2, 218316, Note_on_c, 0, 62, 0
2, 218356, Note_on_c, 0, 61, 53
2, 218364, Note_on_c, 0, 73, 40
2, 218400, Note_on_c, 0, 73, 0
2, 218460, Note_on_c, 0, 61, 0
2, 218468, Note_on_c, 0, 65, 67
2, 218496, Note_on_c, 0, 62, 49
2, 218512, Note_on_c, 0, 74, 39
2, 218580, Note_on_c, 0, 62, 0
2, 218592, Note_on_c, 0, 65, 0
2, 218616, Note_on_c, 0, 74, 0
2, 218744, Note_on_c, 0, 62, 51
2, 218808, Note_on_c, 0, 62, 0
2, 218860, Note_on_c, 0, 74, 64
2, 218864, Note_on_c, 0, 70, 55
2, 218868, Note_on_c, 0, 67, 51
2, 218876, Note_on_c, 0, 66, 62
2, 218888, Note_on_c, 0, 56, 43
2, 218900, Note_on_c, 0, 67, 0
2, 218940, Note_on_c, 0, 70, 0
2, 218948, Note_on_c, 0, 74, 0
2, 218980, Note_on_c, 0, 62, 23
2, 218988, Note_on_c, 0, 56, 0
2, 219020, Note_on_c, 0, 66, 0
2, 219068, Note_on_c, 0, 62, 0
2, 219120, Note_on_c, 0, 73, 77
2, 219120, Note_on_c, 0, 79, 80
2, 219124, Note_on_c, 0, 66, 79
2, 219132, Note_on_c, 0, 56, 68
2, 219148, Note_on_c, 0, 69, 41
2, 219152, Note_on_c, 0, 62, 47
2, 219216, Note_on_c, 0, 69, 0
2, 219224, Note_on_c, 0, 73, 0
2, 219228, Note_on_c, 0, 66, 0
2, 219248, Note_on_c, 0, 74, 53
2, 219264, Note_on_c, 0, 79, 0
2, 219272, Note_on_c, 0, 56, 0
2, 219272, Note_on_c, 0, 74, 0
2, 219312, Note_on_c, 0, 62, 0
2, 219372, Note_on_c, 0, 77, 83
2, 219384, Note_on_c, 0, 66, 71
2, 219384, Note_on_c, 0, 56, 64
2, 219400, Note_on_c, 0, 74, 58
2, 219400, Note_on_c, 0, 62, 37
2, 219440, Note_on_c, 0, 69, 26
2, 219472, Note_on_c, 0, 66, 0
2, 219476, Note_on_c, 0, 74, 0
2, 219500, Note_on_c, 0, 69, 0
2, 219504, Note_on_c, 0, 77, 0
2, 219536, Note_on_c, 0, 56, 0
2, 219556, Note_on_c, 0, 62, 0
2, 219628, Note_on_c, 0, 70, 72
2, 219636, Note_on_c, 0, 62, 40
2, 219660, Note_on_c, 0, 60, 50
2, 219664, Note_on_c, 0, 67, 28
2, 219668, Note_on_c, 0, 55, 49
2, 219780, Note_on_c, 0, 55, 0
2, 219796, Note_on_c, 0, 60, 0
2, 219796, Note_on_c, 0, 67, 0
2, 219804, Note_on_c, 0, 62, 0
2, 219816, Note_on_c, 0, 70, 0
2, 219912, Note_on_c, 0, 70, 68
2, 219920, Note_on_c, 0, 62, 50
2, 219920, Note_on_c, 0, 67, 70
2, 219932, Note_on_c, 0, 55, 51
2, 219932, Note_on_c, 0, 60, 50
2, 219968, Note_on_c, 0, 60, 0
2, 219988, Note_on_c, 0, 62, 0
2, 219992, Note_on_c, 0, 67, 0
2, 219996, Note_on_c, 0, 55, 0
2, 220004, Note_on_c, 0, 70, 0
2, 220140, Note_on_c, 0, 70, 76
2, 220152, Note_on_c, 0, 67, 63
2, 220168, Note_on_c, 0, 55, 51
2, 220172, Note_on_c, 0, 67, 0
2, 220176, Note_on_c, 0, 62, 37
2, 220184, Note_on_c, 0, 60, 42
2, 220212, Note_on_c, 0, 70, 0
2, 220220, Note_on_c, 0, 60, 0
2, 220220, Note_on_c, 0, 62, 0
2, 220260, Note_on_c, 0, 66, 58
2, 220264, Note_on_c, 0, 69, 55
2, 220284, Note_on_c, 0, 55, 0
2, 220304, Note_on_c, 0, 69, 0
2, 220324, Note_on_c, 0, 66, 0
2, 220380, Note_on_c, 0, 70, 65
2, 220388, Note_on_c, 0, 54, 55
2, 220396, Note_on_c, 0, 67, 50
2, 220404, Note_on_c, 0, 60, 39
2, 220468, Note_on_c, 0, 67, 0
2, 220484, Note_on_c, 0, 70, 0
2, 220532, Note_on_c, 0, 54, 0
2, 220532, Note_on_c, 0, 60, 0
2, 220656, Note_on_c, 0, 54, 72
2, 220664, Note_on_c, 0, 79, 87
2, 220664, Note_on_c, 0, 60, 63
2, 220668, Note_on_c, 0, 67, 80
2, 220668, Note_on_c, 0, 77, 83
2, 220668, Note_on_c, 0, 65, 64
2, 220692, Note_on_c, 0, 65, 0
2, 220692, Note_on_c, 0, 77, 0
2, 220724, Note_on_c, 0, 77, 22
2, 220764, Note_on_c, 0, 79, 0
2, 220764, Note_on_c, 0, 65, 9
2, 220768, Note_on_c, 0, 67, 0
2, 220828, Note_on_c, 0, 77, 0
2, 220860, Note_on_c, 0, 54, 0
2, 220864, Note_on_c, 0, 65, 0
2, 220868, Note_on_c, 0, 60, 0
2, 220920, Note_on_c, 0, 75, 76
2, 220928, Note_on_c, 0, 60, 48
2, 220928, Note_on_c, 0, 54, 50
2, 220964, Note_on_c, 0, 60, 0
2, 220980, Note_on_c, 0, 75, 0
2, 221040, Note_on_c, 0, 65, 65
2, 221056, Note_on_c, 0, 58, 60
2, 221084, Note_on_c, 0, 65, 0
2, 221084, Note_on_c, 0, 54, 0
2, 221136, Note_on_c, 0, 58, 0
2, 221164, Note_on_c, 0, 74, 71
2, 221172, Note_on_c, 0, 62, 68
2, 221172, Note_on_c, 0, 69, 64
2, 221172, Note_on_c, 0, 65, 57
2, 221240, Note_on_c, 0, 69, 0
2, 221256, Note_on_c, 0, 74, 0
2, 221292, Note_on_c, 0, 65, 0
2, 221328, Note_on_c, 0, 62, 0
2, 221412, Note_on_c, 0, 57, 76
2, 221412, Note_on_c, 0, 69, 82
2, 221492, Note_on_c, 0, 69, 0
2, 221492, Note_on_c, 0, 57, 0
2, 221596, Note_on_c, 0, 68, 60
2, 221612, Note_on_c, 0, 56, 57
2, 221612, Note_on_c, 0, 63, 30
2, 221620, Note_on_c, 0, 60, 38
2, 221688, Note_on_c, 0, 60, 0
2, 221692, Note_on_c, 0, 63, 0
2, 221712, Note_on_c, 0, 68, 0
2, 221768, Note_on_c, 0, 56, 0
2, 221788, Note_on_c, 0, 73, 88
2, 221792, Note_on_c, 0, 61, 71
2, 221800, Note_on_c, 0, 62, 70
2, 221856, Note_on_c, 0, 73, 0
2, 221864, Note_on_c, 0, 62, 0
2, 221864, Note_on_c, 0, 61, 0
2, 221960, Note_on_c, 0, 70, 68
2, 222048, Note_on_c, 0, 70, 0
2, 222488, Note_on_c, 0, 60, 76
2, 222512, Note_on_c, 0, 66, 44
2, 222524, Note_on_c, 0, 51, 45
2, 222536, Note_on_c, 0, 60, 0
2, 222548, Note_on_c, 0, 66, 0
2, 222560, Note_on_c, 0, 51, 0
2, 222600, Note_on_c, 0, 56, 74
2, 222612, Note_on_c, 0, 66, 52
2, 222612, Note_on_c, 0, 58, 68
2, 222616, Note_on_c, 0, 61, 53
2, 222632, Note_on_c, 0, 56, 0
2, 222644, Note_on_c, 0, 61, 0
2, 222648, Note_on_c, 0, 66, 0
2, 222664, Note_on_c, 0, 58, 0
2, 222740, Note_on_c, 0, 57, 61
2, 222748, Note_on_c, 0, 65, 60
2, 222756, Note_on_c, 0, 60, 45
2, 222760, Note_on_c, 0, 53, 59
2, 222772, Note_on_c, 0, 62, 40
2, 222968, Note_on_c, 0, 57, 0
2, 222980, Note_on_c, 0, 62, 0
2, 222988, Note_on_c, 0, 60, 0
2, 223008, Note_on_c, 0, 65, 0
2, 223016, Note_on_c, 0, 53, 0
2, 223076, Note_on_c, 0, 52, 53
2, 223084, Note_on_c, 0, 57, 58
2, 223096, Note_on_c, 0, 64, 54
2, 223116, Note_on_c, 0, 57, 0
2, 223208, Note_on_c, 0, 64, 0
2, 223280, Note_on_c, 0, 52, 0
2, 223344, Note_on_c, 0, 65, 46
2, 223348, Note_on_c, 0, 57, 36
2, 223360, Note_on_c, 0, 53, 46
2, 223368, Note_on_c, 0, 64, 34
2, 223372, Note_on_c, 0, 65, 0
2, 223384, Note_on_c, 0, 57, 0
2, 223388, Note_on_c, 0, 53, 0
2, 223400, Note_on_c, 0, 64, 0
2, 223480, Note_on_c, 0, 66, 50
2, 223480, Note_on_c, 0, 55, 58
2, 223496, Note_on_c, 0, 70, 53
2, 223520, Note_on_c, 0, 55, 0
2, 223588, Note_on_c, 0, 60, 26
2, 223644, Note_on_c, 0, 60, 0
2, 223676, Note_on_c, 0, 70, 0
2, 223684, Note_on_c, 0, 66, 0
2, 223736, Note_on_c, 0, 46, 68
2, 223736, Note_on_c, 0, 68, 79
2, 223744, Note_on_c, 0, 63, 81
2, 223748, Note_on_c, 0, 60, 70
2, 223768, Note_on_c, 0, 56, 56
2, 224064, Note_on_c, 0, 60, 0
2, 224108, Note_on_c, 0, 56, 0
2, 224124, Note_on_c, 0, 53, 51
2, 224140, Note_on_c, 0, 68, 0
2, 224176, Note_on_c, 0, 63, 0
2, 224220, Note_on_c, 0, 53, 0
2, 224240, Note_on_c, 0, 55, 60
2, 224244, Note_on_c, 0, 46, 0
2, 224244, Note_on_c, 0, 67, 58
2, 224244, Note_on_c, 0, 62, 65
2, 224252, Note_on_c, 0, 58, 54
2, 224348, Note_on_c, 0, 67, 0
2, 224368, Note_on_c, 0, 62, 0
2, 224384, Note_on_c, 0, 58, 0
2, 224444, Note_on_c, 0, 55, 0
2, 224612, Note_on_c, 0, 63, 58
2, 224620, Note_on_c, 0, 58, 56
2, 224624, Note_on_c, 0, 51, 50
2, 224624, Note_on_c, 0, 55, 55
2, 224628, Note_on_c, 0, 60, 51
2, 224832, Note_on_c, 0, 55, 0
2, 224848, Note_on_c, 0, 60, 0
2, 224852, Note_on_c, 0, 58, 0
2, 224856, Note_on_c, 0, 63, 0
2, 224880, Note_on_c, 0, 51, 0
2, 224996, Note_on_c, 0, 63, 52
2, 225004, Note_on_c, 0, 58, 52
2, 225008, Note_on_c, 0, 51, 47
2, 225008, Note_on_c, 0, 60, 50
2, 225016, Note_on_c, 0, 55, 48
2, 225200, Note_on_c, 0, 60, 0
2, 225228, Note_on_c, 0, 55, 0
2, 225256, Note_on_c, 0, 58, 0
2, 225300, Note_on_c, 0, 63, 0
2, 225300, Note_on_c, 0, 55, 62
2, 225304, Note_on_c, 0, 51, 0
2, 225304, Note_on_c, 0, 60, 53
2, 225316, Note_on_c, 0, 48, 44
2, 225324, Note_on_c, 0, 58, 37
2, 225328, Note_on_c, 0, 55, 0
2, 225360, Note_on_c, 0, 58, 0
2, 225380, Note_on_c, 0, 60, 0
2, 225620, Note_on_c, 0, 48, 0
2, 225644, Note_on_c, 0, 56, 95
2, 225644, Note_on_c, 0, 63, 76
2, 225644, Note_on_c, 0, 67, 85
2, 225648, Note_on_c, 0, 60, 84
2, 225660, Note_on_c, 0, 55, 88
2, 226056, Note_on_c, 0, 56, 0
2, 226068, Note_on_c, 0, 60, 0
2, 226096, Note_on_c, 0, 67, 0
2, 226100, Note_on_c, 0, 63, 0
2, 226160, Note_on_c, 0, 55, 0
2, 226164, Note_on_c, 0, 51, 55
2, 226172, Note_on_c, 0, 56, 48
2, 226172, Note_on_c, 0, 63, 52
2, 226180, Note_on_c, 0, 60, 52
2, 226360, Note_on_c, 0, 60, 0
2, 226364, Note_on_c, 0, 56, 0
2, 226392, Note_on_c, 0, 63, 0
2, 226416, Note_on_c, 0, 51, 0
2, 226532, Note_on_c, 0, 56, 59
2, 226540, Note_on_c, 0, 63, 56
2, 226552, Note_on_c, 0, 51, 57
2, 226560, Note_on_c, 0, 60, 50
2, 226624, Note_on_c, 0, 56, 0
2, 226644, Note_on_c, 0, 60, 0
2, 226708, Note_on_c, 0, 63, 0
2, 226820, Note_on_c, 0, 54, 51
2, 226888, Note_on_c, 0, 51, 0
2, 226900, Note_on_c, 0, 54, 0
2, 226908, Note_on_c, 0, 70, 93
2, 226920, Note_on_c, 0, 65, 77
2, 226924, Note_on_c, 0, 62, 80
2, 226956, Note_on_c, 0, 54, 25
2, 227064, Note_on_c, 0, 65, 0
2, 227064, Note_on_c, 0, 70, 0
2, 227112, Note_on_c, 0, 62, 0
2, 227248, Note_on_c, 0, 51, 36
2, 227288, Note_on_c, 0, 54, 0
2, 227308, Note_on_c, 0, 51, 0
2, 227316, Note_on_c, 0, 67, 52
2, 227316, Note_on_c, 0, 58, 51
2, 227320, Note_on_c, 0, 55, 49
2, 227328, Note_on_c, 0, 62, 53
2, 227536, Note_on_c, 0, 58, 0
2, 227548, Note_on_c, 0, 62, 0
2, 227552, Note_on_c, 0, 67, 0
2, 227556, Note_on_c, 0, 55, 0
2, 227596, Note_on_c, 0, 51, 35
2, 227620, Note_on_c, 0, 54, 25
2, 227664, Note_on_c, 0, 51, 0
2, 227668, Note_on_c, 0, 54, 0
2, 227684, Note_on_c, 0, 55, 52
2, 227688, Note_on_c, 0, 58, 55
2, 227700, Note_on_c, 0, 67, 45
2, 227700, Note_on_c, 0, 62, 53
2, 228220, Note_on_c, 0, 62, 0
2, 228260, Note_on_c, 0, 67, 0
2, 228300, Note_on_c, 0, 58, 0
2, 228392, Note_on_c, 0, 55, 0
2, 228444, Note_on_c, 0, 48, 58
2, 228456, Note_on_c, 0, 63, 55
2, 228456, Note_on_c, 0, 55, 56
2, 228468, Note_on_c, 0, 58, 55
2, 228556, Note_on_c, 0, 55, 0
2, 228592, Note_on_c, 0, 58, 0
2, 228636, Note_on_c, 0, 63, 0
2, 228752, Note_on_c, 0, 53, 64
2, 228792, Note_on_c, 0, 48, 0
2, 228832, Note_on_c, 0, 53, 0
2, 228836, Note_on_c, 0, 56, 87
2, 228836, Note_on_c, 0, 60, 82
2, 228840, Note_on_c, 0, 67, 80
2, 228840, Note_on_c, 0, 63, 68
2, 228848, Note_on_c, 0, 55, 73
2, 229024, Note_on_c, 0, 67, 0
2, 229044, Note_on_c, 0, 60, 0
2, 229092, Note_on_c, 0, 56, 0
2, 229104, Note_on_c, 0, 63, 0
2, 229188, Note_on_c, 0, 55, 0
2, 229224, Note_on_c, 0, 56, 55
2, 229224, Note_on_c, 0, 61, 58
2, 229232, Note_on_c, 0, 54, 51
2, 229232, Note_on_c, 0, 66, 47
2, 229236, Note_on_c, 0, 63, 41
2, 229340, Note_on_c, 0, 66, 0
2, 229348, Note_on_c, 0, 56, 0
2, 229368, Note_on_c, 0, 63, 0
2, 229384, Note_on_c, 0, 61, 0
2, 229436, Note_on_c, 0, 54, 0
2, 229492, Note_on_c, 0, 56, 50
2, 229496, Note_on_c, 0, 65, 54
2, 229508, Note_on_c, 0, 60, 55
2, 229516, Note_on_c, 0, 53, 37
2, 229524, Note_on_c, 0, 46, 48
2, 229564, Note_on_c, 0, 62, 22
2, 229656, Note_on_c, 0, 56, 0
2, 229780, Note_on_c, 0, 53, 0
2, 229888, Note_on_c, 0, 53, 70
2, 229956, Note_on_c, 0, 62, 0
2, 229980, Note_on_c, 0, 46, 0
2, 229984, Note_on_c, 0, 60, 0
2, 230020, Note_on_c, 0, 53, 0
2, 230164, Note_on_c, 0, 65, 0
2, 230240, Note_on_c, 0, 63, 74
2, 230244, Note_on_c, 0, 60, 65
2, 230368, Note_on_c, 0, 63, 0
2, 230396, Note_on_c, 0, 60, 0
2, 230400, Note_on_c, 0, 61, 56
2, 230404, Note_on_c, 0, 64, 60
2, 230456, Note_on_c, 0, 64, 0
2, 230528, Note_on_c, 0, 66, 70
2, 230544, Note_on_c, 0, 63, 64
2, 230548, Note_on_c, 0, 61, 0
2, 230588, Note_on_c, 0, 66, 0
2, 230640, Note_on_c, 0, 67, 64
2, 230648, Note_on_c, 0, 63, 0
2, 230676, Note_on_c, 0, 64, 51
2, 230704, Note_on_c, 0, 67, 0
2, 230720, Note_on_c, 0, 69, 70
2, 230744, Note_on_c, 0, 66, 65
2, 230756, Note_on_c, 0, 64, 0
2, 230784, Note_on_c, 0, 69, 0
2, 230788, Note_on_c, 0, 70, 67
2, 230820, Note_on_c, 0, 70, 0
2, 230848, Note_on_c, 0, 66, 0
2, 230860, Note_on_c, 0, 72, 73
2, 230908, Note_on_c, 0, 72, 0
2, 230936, Note_on_c, 0, 73, 58
2, 230976, Note_on_c, 0, 73, 0
2, 230984, Note_on_c, 0, 75, 65
2, 231012, Note_on_c, 0, 75, 0
2, 231064, Note_on_c, 0, 76, 68
2, 231132, Note_on_c, 0, 76, 0
2, 231140, Note_on_c, 0, 77, 56
2, 231180, Note_on_c, 0, 77, 0
2, 231180, Note_on_c, 0, 73, 41
2, 231200, Note_on_c, 0, 78, 62
2, 231256, Note_on_c, 0, 78, 0
2, 231260, Note_on_c, 0, 73, 0
2, 231276, Note_on_c, 0, 76, 49
2, 231276, Note_on_c, 0, 79, 80
2, 231304, Note_on_c, 0, 76, 0
2, 231316, Note_on_c, 0, 75, 76
2, 231344, Note_on_c, 0, 75, 0
2, 231344, Note_on_c, 0, 79, 0
2, 232564, Note_on_c, 0, 77, 126
2, 232628, Note_on_c, 0, 60, 28
2, 232696, Note_on_c, 0, 60, 0
2, 232700, Note_on_c, 0, 77, 0
2, 232764, Note_on_c, 0, 75, 70
2, 232916, Note_on_c, 0, 75, 0
2, 232956, Note_on_c, 0, 71, 73
2, 232972, Note_on_c, 0, 63, 60
2, 232980, Note_on_c, 0, 59, 56
2, 232980, Note_on_c, 0, 53, 47
2, 233092, Note_on_c, 0, 71, 0
2, 233116, Note_on_c, 0, 68, 51
2, 233136, Note_on_c, 0, 63, 0
2, 233232, Note_on_c, 0, 68, 0
2, 233232, Note_on_c, 0, 59, 0
2, 233324, Note_on_c, 0, 53, 0
2, 233464, Note_on_c, 0, 70, 68
2, 233468, Note_on_c, 0, 62, 64
2, 233480, Note_on_c, 0, 55, 58
2, 233664, Note_on_c, 0, 62, 0
2, 233716, Note_on_c, 0, 70, 0
2, 233824, Note_on_c, 0, 61, 58
2, 233828, Note_on_c, 0, 69, 62
2, 233836, Note_on_c, 0, 55, 0
2, 233836, Note_on_c, 0, 64, 58
2, 233836, Note_on_c, 0, 54, 48
2, 234048, Note_on_c, 0, 64, 0
2, 234064, Note_on_c, 0, 69, 0
2, 234120, Note_on_c, 0, 51, 43
2, 234128, Note_on_c, 0, 61, 0
2, 234168, Note_on_c, 0, 54, 0
2, 234204, Note_on_c, 0, 68, 58
2, 234204, Note_on_c, 0, 53, 45
2, 234212, Note_on_c, 0, 51, 0
2, 234212, Note_on_c, 0, 60, 51
2, 234232, Note_on_c, 0, 63, 51
2, 234436, Note_on_c, 0, 60, 0
2, 234456, Note_on_c, 0, 53, 0
2, 234480, Note_on_c, 0, 51, 48
2, 234496, Note_on_c, 0, 63, 0
2, 234552, Note_on_c, 0, 68, 0
2, 234576, Note_on_c, 0, 67, 60
2, 234580, Note_on_c, 0, 62, 47
2, 234584, Note_on_c, 0, 71, 51
2, 234588, Note_on_c, 0, 51, 0
2, 234588, Note_on_c, 0, 56, 57
2, 234792, Note_on_c, 0, 71, 0
2, 234876, Note_on_c, 0, 62, 0
2, 234896, Note_on_c, 0, 56, 0
2, 234916, Note_on_c, 0, 54, 36
2, 234916, Note_on_c, 0, 51, 22
2, 234960, Note_on_c, 0, 67, 0
2, 234964, Note_on_c, 0, 54, 0
2, 234968, Note_on_c, 0, 55, 44
2, 234976, Note_on_c, 0, 51, 0
2, 234988, Note_on_c, 0, 65, 43
2, 234992, Note_on_c, 0, 60, 38
2, 234992, Note_on_c, 0, 70, 37
2, 235180, Note_on_c, 0, 55, 0
2, 235200, Note_on_c, 0, 60, 0
2, 235288, Note_on_c, 0, 65, 0
2, 235292, Note_on_c, 0, 41, 66
2, 235308, Note_on_c, 0, 70, 0
2, 235668, Note_on_c, 0, 48, 27
2, 235868, Note_on_c, 0, 73, 70
2, 235916, Note_on_c, 0, 48, 0
2, 235968, Note_on_c, 0, 73, 0
2, 235976, Note_on_c, 0, 74, 75
2, 236000, Note_on_c, 0, 41, 0
2, 236056, Note_on_c, 0, 74, 0
2, 236056, Note_on_c, 0, 75, 70
2, 236100, Note_on_c, 0, 75, 0
2, 236120, Note_on_c, 0, 76, 46
2, 236148, Note_on_c, 0, 76, 0
2, 236192, Note_on_c, 0, 77, 89
2, 236252, Note_on_c, 0, 77, 0
2, 236388, Note_on_c, 0, 79, 114
2, 236484, Note_on_c, 0, 79, 0
2, 236528, Note_on_c, 0, 76, 77
2, 236608, Note_on_c, 0, 76, 0
2, 236656, Note_on_c, 0, 77, 83
2, 236724, Note_on_c, 0, 77, 0
2, 236944, Note_on_c, 0, 73, 80
2, 237008, Note_on_c, 0, 73, 0
2, 237052, Note_on_c, 0, 75, 98
2, 237152, Note_on_c, 0, 75, 0
2, 237180, Note_on_c, 0, 73, 78
2, 237248, Note_on_c, 0, 73, 0
2, 237292, Note_on_c, 0, 74, 95
2, 237404, Note_on_c, 0, 74, 0
2, 237444, Note_on_c, 0, 69, 80
2, 237516, Note_on_c, 0, 69, 0
2, 237696, Note_on_c, 0, 72, 101
2, 237856, Note_on_c, 0, 72, 0
2, 237940, Note_on_c, 0, 70, 82
2, 237948, Note_on_c, 0, 62, 57
2, 237960, Note_on_c, 0, 58, 46
2, 237976, Note_on_c, 0, 62, 0
2, 237992, Note_on_c, 0, 58, 0
2, 238036, Note_on_c, 0, 70, 0
2, 238320, Note_on_c, 0, 69, 92
2, 238328, Note_on_c, 0, 57, 70
2, 238376, Note_on_c, 0, 69, 0
2, 238432, Note_on_c, 0, 57, 0
2, 238452, Note_on_c, 0, 58, 55
2, 238468, Note_on_c, 0, 70, 65
2, 238620, Note_on_c, 0, 70, 0
2, 238664, Note_on_c, 0, 58, 0
2, 238688, Note_on_c, 0, 72, 70
2, 238696, Note_on_c, 0, 60, 60
2, 238768, Note_on_c, 0, 72, 0
2, 238776, Note_on_c, 0, 60, 0
2, 238808, Note_on_c, 0, 61, 55
2, 238812, Note_on_c, 0, 73, 62
2, 238828, Note_on_c, 0, 70, 44
2, 238848, Note_on_c, 0, 68, 40
2, 238932, Note_on_c, 0, 73, 0
2, 238976, Note_on_c, 0, 70, 0
2, 239000, Note_on_c, 0, 68, 0
2, 239064, Note_on_c, 0, 61, 0
2, 239064, Note_on_c, 0, 75, 67
2, 239068, Note_on_c, 0, 68, 23
2, 239076, Note_on_c, 0, 63, 61
2, 239104, Note_on_c, 0, 68, 0
2, 239104, Note_on_c, 0, 75, 0
2, 239128, Note_on_c, 0, 63, 0
2, 239192, Note_on_c, 0, 78, 75
2, 239224, Note_on_c, 0, 66, 55
2, 239280, Note_on_c, 0, 66, 0
2, 239296, Note_on_c, 0, 78, 0
2, 239440, Note_on_c, 0, 80, 81
2, 239504, Note_on_c, 0, 80, 0
2, 239564, Note_on_c, 0, 73, 67
2, 239596, Note_on_c, 0, 62, 61
2, 239604, Note_on_c, 0, 67, 42
2, 239616, Note_on_c, 0, 73, 0
2, 239620, Note_on_c, 0, 77, 51
2, 239668, Note_on_c, 0, 72, 32
2, 239752, Note_on_c, 0, 77, 0
2, 239752, Note_on_c, 0, 67, 0
2, 239756, Note_on_c, 0, 72, 0
2, 239792, Note_on_c, 0, 62, 0
2, 239884, Note_on_c, 0, 61, 34
2, 239932, Note_on_c, 0, 61, 0
2, 239956, Note_on_c, 0, 77, 75
2, 239960, Note_on_c, 0, 62, 53
2, 239968, Note_on_c, 0, 67, 54
2, 239976, Note_on_c, 0, 72, 50
2, 240024, Note_on_c, 0, 72, 0
2, 240068, Note_on_c, 0, 67, 0
2, 240076, Note_on_c, 0, 77, 0
2, 240180, Note_on_c, 0, 62, 0
2, 240228, Note_on_c, 0, 61, 49
2, 240228, Note_on_c, 0, 75, 65
2, 240304, Note_on_c, 0, 75, 0
2, 240308, Note_on_c, 0, 61, 0
2, 240344, Note_on_c, 0, 62, 62
2, 240344, Note_on_c, 0, 77, 63
2, 240388, Note_on_c, 0, 65, 40
2, 240444, Note_on_c, 0, 65, 0
2, 240512, Note_on_c, 0, 77, 0
2, 240576, Note_on_c, 0, 62, 0
2, 240608, Note_on_c, 0, 70, 64
2, 240612, Note_on_c, 0, 55, 59
2, 240616, Note_on_c, 0, 65, 51
2, 240616, Note_on_c, 0, 74, 43
2, 240644, Note_on_c, 0, 74, 0
2, 240644, Note_on_c, 0, 65, 0
2, 240652, Note_on_c, 0, 55, 0
2, 240676, Note_on_c, 0, 70, 0
2, 240976, Note_on_c, 0, 60, 80
2, 240980, Note_on_c, 0, 74, 88
2, 240984, Note_on_c, 0, 67, 86
2, 240984, Note_on_c, 0, 70, 76
2, 240984, Note_on_c, 0, 63, 88
2, 240988, Note_on_c, 0, 62, 83
2, 241044, Note_on_c, 0, 60, 0
2, 241416, Note_on_c, 0, 74, 0
2, 241436, Note_on_c, 0, 63, 0
2, 241440, Note_on_c, 0, 62, 0
2, 241460, Note_on_c, 0, 67, 0
2, 241464, Note_on_c, 0, 56, 19
2, 241472, Note_on_c, 0, 58, 41
2, 241488, Note_on_c, 0, 70, 0
2, 241508, Note_on_c, 0, 58, 0
2, 241512, Note_on_c, 0, 56, 0
2, 241516, Note_on_c, 0, 63, 51
2, 241520, Note_on_c, 0, 72, 62
2, 241532, Note_on_c, 0, 67, 48
2, 241536, Note_on_c, 0, 60, 47
2, 241552, Note_on_c, 0, 70, 22
2, 241580, Note_on_c, 0, 67, 0
2, 241592, Note_on_c, 0, 70, 0
2, 241596, Note_on_c, 0, 63, 0
2, 241636, Note_on_c, 0, 72, 0
2, 241696, Note_on_c, 0, 60, 0
2, 241772, Note_on_c, 0, 58, 64
2, 241776, Note_on_c, 0, 70, 65
2, 241788, Note_on_c, 0, 63, 45
2, 241844, Note_on_c, 0, 63, 0
2, 241876, Note_on_c, 0, 58, 0
2, 241888, Note_on_c, 0, 70, 0
2, 241912, Note_on_c, 0, 57, 51
2, 242096, Note_on_c, 0, 57, 0
2, 242156, Note_on_c, 0, 72, 55
2, 242164, Note_on_c, 0, 60, 36
2, 242188, Note_on_c, 0, 72, 0
2, 242196, Note_on_c, 0, 60, 0
2, 242288, Note_on_c, 0, 77, 77
2, 242292, Note_on_c, 0, 64, 37
2, 242328, Note_on_c, 0, 64, 0
2, 242340, Note_on_c, 0, 77, 0
2, 242524, Note_on_c, 0, 75, 72
2, 242528, Note_on_c, 0, 63, 52
2, 242544, Note_on_c, 0, 66, 50
2, 242556, Note_on_c, 0, 63, 0
2, 242572, Note_on_c, 0, 66, 0
2, 242588, Note_on_c, 0, 75, 0
2, 242660, Note_on_c, 0, 65, 73
2, 242664, Note_on_c, 0, 74, 64
2, 242676, Note_on_c, 0, 62, 49
2, 242712, Note_on_c, 0, 62, 0
2, 242728, Note_on_c, 0, 65, 0
2, 242732, Note_on_c, 0, 74, 0
2, 242908, Note_on_c, 0, 74, 83
2, 242916, Note_on_c, 0, 65, 70
2, 242928, Note_on_c, 0, 62, 56
2, 242960, Note_on_c, 0, 65, 0
2, 242972, Note_on_c, 0, 74, 0
2, 242976, Note_on_c, 0, 62, 0
2, 243060, Note_on_c, 0, 73, 56
2, 243076, Note_on_c, 0, 61, 35
2, 243116, Note_on_c, 0, 73, 0
2, 243176, Note_on_c, 0, 61, 0
2, 243324, Note_on_c, 0, 65, 42
2, 243356, Note_on_c, 0, 65, 0
2, 243436, Note_on_c, 0, 74, 68
2, 243440, Note_on_c, 0, 56, 44
2, 243500, Note_on_c, 0, 74, 0
2, 243556, Note_on_c, 0, 56, 0
2, 243672, Note_on_c, 0, 72, 65
2, 243688, Note_on_c, 0, 67, 67
2, 243688, Note_on_c, 0, 46, 54
2, 243696, Note_on_c, 0, 56, 48
2, 243700, Note_on_c, 0, 62, 47
2, 243964, Note_on_c, 0, 67, 0
2, 243984, Note_on_c, 0, 72, 0
2, 244084, Note_on_c, 0, 56, 0
2, 244088, Note_on_c, 0, 62, 0
2, 244092, Note_on_c, 0, 53, 37
2, 244136, Note_on_c, 0, 53, 0
2, 244168, Note_on_c, 0, 70, 62
2, 244168, Note_on_c, 0, 55, 50
2, 244172, Note_on_c, 0, 60, 51
2, 244184, Note_on_c, 0, 65, 57
2, 244244, Note_on_c, 0, 60, 0
2, 244248, Note_on_c, 0, 70, 0
2, 244272, Note_on_c, 0, 65, 0
2, 244284, Note_on_c, 0, 55, 0
2, 244296, Note_on_c, 0, 46, 0
2, 244420, Note_on_c, 0, 70, 68
2, 244432, Note_on_c, 0, 55, 54
2, 244432, Note_on_c, 0, 60, 57
2, 244440, Note_on_c, 0, 65, 59
2, 244460, Note_on_c, 0, 46, 33
2, 244480, Note_on_c, 0, 65, 0
2, 244480, Note_on_c, 0, 60, 0
2, 244488, Note_on_c, 0, 70, 0
2, 244488, Note_on_c, 0, 55, 0
2, 244500, Note_on_c, 0, 46, 0
2, 244552, Note_on_c, 0, 46, 53
2, 244560, Note_on_c, 0, 55, 31
2, 244568, Note_on_c, 0, 70, 50
2, 244580, Note_on_c, 0, 65, 46
2, 244584, Note_on_c, 0, 60, 31
2, 244608, Note_on_c, 0, 55, 0
2, 244652, Note_on_c, 0, 70, 0
2, 244660, Note_on_c, 0, 65, 0
2, 244668, Note_on_c, 0, 60, 0
2, 244668, Note_on_c, 0, 46, 0
2, 244822, Note_on_c, 0, 44, 68
2, 244824, Note_on_c, 0, 70, 73
2, 244824, Note_on_c, 0, 54, 60
2, 244836, Note_on_c, 0, 60, 60
2, 244840, Note_on_c, 0, 65, 65
2, 244876, Note_on_c, 0, 65, 0
2, 244880, Note_on_c, 0, 60, 0
2, 244896, Note_on_c, 0, 54, 0
2, 244896, Note_on_c, 0, 70, 0
2, 244900, Note_on_c, 0, 44, 0
2, 245208, Note_on_c, 0, 70, 83
2, 245216, Note_on_c, 0, 44, 67
2, 245224, Note_on_c, 0, 65, 64
2, 245224, Note_on_c, 0, 60, 60
2, 245248, Note_on_c, 0, 60, 0
2, 245248, Note_on_c, 0, 65, 0
2, 245304, Note_on_c, 0, 70, 0
2, 245312, Note_on_c, 0, 44, 0
2, 245580, Note_on_c, 0, 74, 122
2, 245608, Note_on_c, 0, 50, 64
2, 245616, Note_on_c, 0, 48, 64
2, 245640, Note_on_c, 0, 48, 0
2, 245660, Note_on_c, 0, 50, 0
2, 245736, Note_on_c, 0, 50, 31
2, 245932, Note_on_c, 0, 50, 0
2, 245944, Note_on_c, 0, 74, 0
2, 246000, Note_on_c, 0, 71, 68
2, 246000, Note_on_c, 0, 47, 40
2, 246068, Note_on_c, 0, 47, 0
2, 246096, Note_on_c, 0, 71, 0
2, 246144, Note_on_c, 0, 46, 38
2, 246208, Note_on_c, 0, 70, 25
2, 246272, Note_on_c, 0, 70, 0
2, 246300, Note_on_c, 0, 46, 0
2, 246364, Note_on_c, 0, 49, 58
2, 246372, Note_on_c, 0, 73, 71
2, 246416, Note_on_c, 0, 49, 0
2, 246452, Note_on_c, 0, 73, 0
2, 246508, Note_on_c, 0, 72, 65
2, 246516, Note_on_c, 0, 48, 48
2, 246648, Note_on_c, 0, 72, 0
2, 246656, Note_on_c, 0, 48, 0
2, 246736, Note_on_c, 0, 67, 64
2, 246740, Note_on_c, 0, 43, 55
2, 246836, Note_on_c, 0, 67, 0
2, 246860, Note_on_c, 0, 43, 0
2, 246888, Note_on_c, 0, 66, 31
2, 246888, Note_on_c, 0, 42, 41
2, 247012, Note_on_c, 0, 42, 0
2, 247020, Note_on_c, 0, 66, 0
2, 247104, Note_on_c, 0, 70, 63
2, 247196, Note_on_c, 0, 70, 0
2, 247260, Note_on_c, 0, 69, 50
2, 247432, Note_on_c, 0, 69, 0
2, 247876, Note_on_c, 0, 34, 65
2, 249448, Note_on_c, 0, 34, 0
2, 249448, End_track
3, 0, Start_track
3, 0, Title_t, "Track 2"
3, 386, Control_c, 1, 0, 0
3, 386, Control_c, 1, 32, 1
3, 386, Program_c, 1, 32
3, 387, Control_c, 1, 7, 127
3, 387, Control_c, 1, 10, 64
3, 387, Control_c, 1, 91, 16
3, 387, Control_c, 1, 93, 0
3, 768, Control_c, 1, 11, 127
3, 768, Control_c, 1, 94, 0
3, 768, Control_c, 1, 101, 0
3, 769, Control_c, 1, 100, 1
3, 770, Control_c, 1, 6, 64
3, 771, Control_c, 1, 38, 0
3, 3032, Note_on_c, 1, 34, 81
3, 3416, Note_on_c, 1, 41, 80
3, 3484, Note_on_c, 1, 34, 0
3, 3800, Note_on_c, 1, 41, 0
3, 3800, Note_on_c, 1, 43, 87
3, 4012, Note_on_c, 1, 43, 0
3, 4084, Note_on_c, 1, 43, 80
3, 4184, Note_on_c, 1, 50, 73
3, 4204, Note_on_c, 1, 43, 0
3, 4568, Note_on_c, 1, 50, 0
3, 4568, Note_on_c, 1, 36, 91
3, 4952, Note_on_c, 1, 39, 88
3, 5004, Note_on_c, 1, 36, 0
3, 5300, Note_on_c, 1, 39, 0
3, 5336, Note_on_c, 1, 41, 87
3, 5536, Note_on_c, 1, 41, 0
3, 5624, Note_on_c, 1, 41, 80
3, 5720, Note_on_c, 1, 48, 73
3, 5724, Note_on_c, 1, 41, 0
3, 6104, Note_on_c, 1, 48, 0
3, 6104, Note_on_c, 1, 50, 78
3, 6488, Note_on_c, 1, 45, 77
3, 6540, Note_on_c, 1, 50, 0
3, 6868, Note_on_c, 1, 45, 0
3, 6872, Note_on_c, 1, 43, 86
3, 7232, Note_on_c, 1, 43, 0
3, 7256, Note_on_c, 1, 35, 80
3, 7632, Note_on_c, 1, 35, 0
3, 7636, Note_on_c, 1, 48, 78
3, 8024, Note_on_c, 1, 43, 77
3, 8068, Note_on_c, 1, 48, 0
3, 8408, Note_on_c, 1, 43, 0
3, 8408, Note_on_c, 1, 41, 81
3, 8792, Note_on_c, 1, 48, 80
3, 8860, Note_on_c, 1, 41, 0
3, 9176, Note_on_c, 1, 48, 0
3, 9176, Note_on_c, 1, 41, 86
3, 9540, Note_on_c, 1, 41, 0
3, 9560, Note_on_c, 1, 33, 80
3, 9944, Note_on_c, 1, 33, 0
3, 9944, Note_on_c, 1, 46, 78
3, 10328, Note_on_c, 1, 41, 77
3, 10380, Note_on_c, 1, 46, 0
3, 10712, Note_on_c, 1, 41, 0
3, 10712, Note_on_c, 1, 39, 87
3, 10912, Note_on_c, 1, 39, 0
3, 11004, Note_on_c, 1, 39, 80
3, 11096, Note_on_c, 1, 46, 73
3, 11104, Note_on_c, 1, 39, 0
3, 11476, Note_on_c, 1, 46, 0
3, 11480, Note_on_c, 1, 44, 98
3, 11768, Note_on_c, 1, 32, 91
3, 11772, Note_on_c, 1, 44, 0
3, 11860, Note_on_c, 1, 32, 0
3, 11864, Note_on_c, 1, 44, 100
3, 12240, Note_on_c, 1, 44, 0
3, 12244, Note_on_c, 1, 38, 72
3, 12536, Note_on_c, 1, 38, 0
3, 12540, Note_on_c, 1, 26, 69
3, 12564, Note_on_c, 1, 26, 0
3, 12632, Note_on_c, 1, 43, 72
3, 12920, Note_on_c, 1, 43, 0
3, 12924, Note_on_c, 1, 31, 69
3, 12948, Note_on_c, 1, 31, 0
3, 13016, Note_on_c, 1, 36, 72
3, 13304, Note_on_c, 1, 36, 0
3, 13308, Note_on_c, 1, 24, 69
3, 13332, Note_on_c, 1, 24, 0
3, 13400, Note_on_c, 1, 41, 72
3, 13684, Note_on_c, 1, 41, 0
3, 13692, Note_on_c, 1, 29, 69
3, 13716, Note_on_c, 1, 29, 0
3, 13784, Note_on_c, 1, 34, 93
3, 14168, Note_on_c, 1, 34, 0
3, 14168, Note_on_c, 1, 34, 100
3, 14552, Note_on_c, 1, 34, 0
3, 14552, Note_on_c, 1, 41, 81
3, 14936, Note_on_c, 1, 48, 80
3, 15008, Note_on_c, 1, 41, 0
3, 15320, Note_on_c, 1, 48, 0
3, 15320, Note_on_c, 1, 34, 82
3, 15532, Note_on_c, 1, 34, 0
3, 15612, Note_on_c, 1, 34, 94
3, 15700, Note_on_c, 1, 34, 0
3, 15704, Note_on_c, 1, 42, 75
3, 16084, Note_on_c, 1, 42, 0
3, 16088, Note_on_c, 1, 43, 98
3, 16468, Note_on_c, 1, 43, 0
3, 16472, Note_on_c, 1, 37, 105
3, 16852, Note_on_c, 1, 37, 0
3, 16856, Note_on_c, 1, 36, 87
3, 17056, Note_on_c, 1, 36, 0
3, 17148, Note_on_c, 1, 36, 80
3, 17236, Note_on_c, 1, 43, 73
3, 17248, Note_on_c, 1, 36, 0
3, 17624, Note_on_c, 1, 43, 0
3, 17624, Note_on_c, 1, 41, 98
3, 17912, Note_on_c, 1, 29, 91
3, 17916, Note_on_c, 1, 41, 0
3, 18008, Note_on_c, 1, 29, 0
3, 18008, Note_on_c, 1, 41, 100
3, 18392, Note_on_c, 1, 41, 0
3, 18392, Note_on_c, 1, 38, 91
3, 18776, Note_on_c, 1, 41, 88
3, 18824, Note_on_c, 1, 38, 0
3, 19124, Note_on_c, 1, 41, 0
3, 19160, Note_on_c, 1, 43, 87
3, 19364, Note_on_c, 1, 43, 0
3, 19440, Note_on_c, 1, 43, 80
3, 19544, Note_on_c, 1, 50, 73
3, 19548, Note_on_c, 1, 43, 0
3, 19928, Note_on_c, 1, 50, 0
3, 19928, Note_on_c, 1, 36, 86
3, 20292, Note_on_c, 1, 36, 0
3, 20312, Note_on_c, 1, 40, 80
3, 20692, Note_on_c, 1, 40, 0
3, 20696, Note_on_c, 1, 41, 82
3, 20908, Note_on_c, 1, 41, 0
3, 20988, Note_on_c, 1, 41, 94
3, 21076, Note_on_c, 1, 41, 0
3, 21080, Note_on_c, 1, 40, 75
3, 21456, Note_on_c, 1, 40, 0
3, 21464, Note_on_c, 1, 41, 81
3, 21844, Note_on_c, 1, 48, 80
3, 21916, Note_on_c, 1, 41, 0
3, 22232, Note_on_c, 1, 48, 0
3, 22232, Note_on_c, 1, 34, 86
3, 22604, Note_on_c, 1, 34, 0
3, 22616, Note_on_c, 1, 38, 80
3, 23000, Note_on_c, 1, 38, 0
3, 23000, Note_on_c, 1, 39, 91
3, 23384, Note_on_c, 1, 43, 88
3, 23432, Note_on_c, 1, 39, 0
3, 23732, Note_on_c, 1, 43, 0
3, 23768, Note_on_c, 1, 44, 86
3, 24132, Note_on_c, 1, 44, 0
3, 24152, Note_on_c, 1, 37, 80
3, 24536, Note_on_c, 1, 37, 0
3, 24536, Note_on_c, 1, 38, 72
3, 24824, Note_on_c, 1, 38, 0
3, 24828, Note_on_c, 1, 26, 69
3, 24844, Note_on_c, 1, 26, 0
3, 24920, Note_on_c, 1, 43, 70
3, 25304, Note_on_c, 1, 43, 0
3, 25304, Note_on_c, 1, 36, 72
3, 25592, Note_on_c, 1, 36, 0
3, 25596, Note_on_c, 1, 24, 69
3, 25620, Note_on_c, 1, 24, 0
3, 25688, Note_on_c, 1, 41, 70
3, 26068, Note_on_c, 1, 41, 0
3, 26072, Note_on_c, 1, 34, 98
3, 26452, Note_on_c, 1, 34, 0
3, 26456, Note_on_c, 1, 35, 105
3, 26832, Note_on_c, 1, 35, 0
3, 26836, Note_on_c, 1, 34, 93
3, 27224, Note_on_c, 1, 34, 0
3, 27224, Note_on_c, 1, 34, 100
3, 27608, Note_on_c, 1, 34, 0
3, 27608, Note_on_c, 1, 39, 93
3, 27992, Note_on_c, 1, 39, 0
3, 27992, Note_on_c, 1, 39, 100
3, 28376, Note_on_c, 1, 39, 0
3, 28376, Note_on_c, 1, 36, 91
3, 28760, Note_on_c, 1, 40, 88
3, 28812, Note_on_c, 1, 36, 0
3, 29108, Note_on_c, 1, 40, 0
3, 29144, Note_on_c, 1, 41, 87
3, 29344, Note_on_c, 1, 41, 0
3, 29432, Note_on_c, 1, 41, 80
3, 29528, Note_on_c, 1, 48, 73
3, 29532, Note_on_c, 1, 41, 0
3, 29912, Note_on_c, 1, 48, 0
3, 29912, Note_on_c, 1, 34, 86
3, 30204, Note_on_c, 1, 29, 62
3, 30256, Note_on_c, 1, 29, 0
3, 30276, Note_on_c, 1, 34, 0
3, 30296, Note_on_c, 1, 41, 79
3, 30580, Note_on_c, 1, 41, 0
3, 30588, Note_on_c, 1, 29, 64
3, 30636, Note_on_c, 1, 29, 0
3, 30680, Note_on_c, 1, 43, 86
3, 30972, Note_on_c, 1, 38, 62
3, 31032, Note_on_c, 1, 38, 0
3, 31040, Note_on_c, 1, 43, 0
3, 31064, Note_on_c, 1, 50, 79
3, 31348, Note_on_c, 1, 50, 0
3, 31356, Note_on_c, 1, 38, 64
3, 31404, Note_on_c, 1, 38, 0
3, 31444, Note_on_c, 1, 36, 98
3, 31736, Note_on_c, 1, 24, 91
3, 31740, Note_on_c, 1, 36, 0
3, 31832, Note_on_c, 1, 24, 0
3, 31832, Note_on_c, 1, 36, 100
3, 32216, Note_on_c, 1, 36, 0
3, 32216, Note_on_c, 1, 41, 93
3, 32600, Note_on_c, 1, 41, 0
3, 32600, Note_on_c, 1, 41, 100
3, 32984, Note_on_c, 1, 41, 0
3, 32984, Note_on_c, 1, 34, 93
3, 33368, Note_on_c, 1, 34, 0
3, 33368, Note_on_c, 1, 34, 100
3, 33752, Note_on_c, 1, 34, 0
3, 33752, Note_on_c, 1, 34, 93
3, 34136, Note_on_c, 1, 34, 0
3, 34136, Note_on_c, 1, 34, 100
3, 34520, Note_on_c, 1, 34, 0
3, 34520, Note_on_c, 1, 39, 98
3, 34904, Note_on_c, 1, 39, 0
3, 34904, Note_on_c, 1, 45, 105
3, 35284, Note_on_c, 1, 45, 0
3, 35288, Note_on_c, 1, 44, 93
3, 35668, Note_on_c, 1, 44, 0
3, 35672, Note_on_c, 1, 44, 100
3, 36052, Note_on_c, 1, 44, 0
3, 36056, Note_on_c, 1, 37, 91
3, 36436, Note_on_c, 1, 41, 88
3, 36484, Note_on_c, 1, 37, 0
3, 36792, Note_on_c, 1, 41, 0
3, 36824, Note_on_c, 1, 43, 70
3, 37208, Note_on_c, 1, 43, 0
3, 37208, Note_on_c, 1, 36, 72
3, 37492, Note_on_c, 1, 36, 0
3, 37500, Note_on_c, 1, 24, 69
3, 37524, Note_on_c, 1, 24, 0
3, 37592, Note_on_c, 1, 41, 72
3, 37876, Note_on_c, 1, 41, 0
3, 37884, Note_on_c, 1, 29, 69
3, 37908, Note_on_c, 1, 29, 0
3, 37976, Note_on_c, 1, 34, 72
3, 38260, Note_on_c, 1, 34, 0
3, 38268, Note_on_c, 1, 22, 69
3, 38292, Note_on_c, 1, 22, 0
3, 38360, Note_on_c, 1, 39, 93
3, 38744, Note_on_c, 1, 39, 0
3, 38744, Note_on_c, 1, 39, 100
3, 39128, Note_on_c, 1, 39, 0
3, 39128, Note_on_c, 1, 41, 87
3, 39328, Note_on_c, 1, 41, 0
3, 39416, Note_on_c, 1, 41, 80
3, 39512, Note_on_c, 1, 48, 73
3, 39516, Note_on_c, 1, 41, 0
3, 39892, Note_on_c, 1, 48, 0
3, 39896, Note_on_c, 1, 34, 82
3, 40108, Note_on_c, 1, 34, 0
3, 40188, Note_on_c, 1, 34, 94
3, 40276, Note_on_c, 1, 34, 0
3, 40280, Note_on_c, 1, 42, 75
3, 40660, Note_on_c, 1, 42, 0
3, 40664, Note_on_c, 1, 43, 86
3, 40956, Note_on_c, 1, 38, 62
3, 41020, Note_on_c, 1, 38, 0
3, 41032, Note_on_c, 1, 43, 0
3, 41044, Note_on_c, 1, 50, 79
3, 41332, Note_on_c, 1, 50, 0
3, 41340, Note_on_c, 1, 38, 64
3, 41388, Note_on_c, 1, 38, 0
3, 41432, Note_on_c, 1, 36, 91
3, 41816, Note_on_c, 1, 39, 88
3, 41856, Note_on_c, 1, 36, 0
3, 42164, Note_on_c, 1, 39, 0
3, 42200, Note_on_c, 1, 41, 87
3, 42484, Note_on_c, 1, 29, 64
3, 42548, Note_on_c, 1, 41, 0
3, 42584, Note_on_c, 1, 29, 0
3, 42588, Note_on_c, 1, 39, 87
3, 42968, Note_on_c, 1, 39, 0
3, 42968, Note_on_c, 1, 38, 86
3, 43252, Note_on_c, 1, 33, 62
3, 43316, Note_on_c, 1, 33, 0
3, 43340, Note_on_c, 1, 38, 0
3, 43352, Note_on_c, 1, 45, 79
3, 43632, Note_on_c, 1, 45, 0
3, 43632, Note_on_c, 1, 33, 64
3, 43692, Note_on_c, 1, 33, 0
3, 43736, Note_on_c, 1, 43, 86
3, 44100, Note_on_c, 1, 43, 0
3, 44120, Note_on_c, 1, 35, 80
3, 44504, Note_on_c, 1, 35, 0
3, 44504, Note_on_c, 1, 36, 81
3, 44888, Note_on_c, 1, 43, 80
3, 44960, Note_on_c, 1, 36, 0
3, 45268, Note_on_c, 1, 43, 0
3, 45272, Note_on_c, 1, 41, 86
3, 45564, Note_on_c, 1, 36, 62
3, 45624, Note_on_c, 1, 36, 0
3, 45632, Note_on_c, 1, 41, 0
3, 45656, Note_on_c, 1, 48, 79
3, 45940, Note_on_c, 1, 48, 0
3, 45948, Note_on_c, 1, 36, 64
3, 45996, Note_on_c, 1, 36, 0
3, 46036, Note_on_c, 1, 41, 93
3, 46424, Note_on_c, 1, 41, 0
3, 46424, Note_on_c, 1, 41, 100
3, 46808, Note_on_c, 1, 41, 0
3, 46808, Note_on_c, 1, 34, 82
3, 47028, Note_on_c, 1, 34, 0
3, 47092, Note_on_c, 1, 34, 94
3, 47188, Note_on_c, 1, 34, 0
3, 47192, Note_on_c, 1, 38, 75
3, 47576, Note_on_c, 1, 38, 0
3, 47576, Note_on_c, 1, 39, 91
3, 47960, Note_on_c, 1, 43, 88
3, 48012, Note_on_c, 1, 39, 0
3, 48308, Note_on_c, 1, 43, 0
3, 48344, Note_on_c, 1, 44, 98
3, 48632, Note_on_c, 1, 32, 91
3, 48636, Note_on_c, 1, 44, 0
3, 48728, Note_on_c, 1, 32, 0
3, 48728, Note_on_c, 1, 44, 100
3, 49108, Note_on_c, 1, 44, 0
3, 49112, Note_on_c, 1, 38, 72
3, 49400, Note_on_c, 1, 38, 0
3, 49404, Note_on_c, 1, 26, 69
3, 49428, Note_on_c, 1, 26, 0
3, 49496, Note_on_c, 1, 43, 72
3, 49784, Note_on_c, 1, 43, 0
3, 49788, Note_on_c, 1, 31, 69
3, 49812, Note_on_c, 1, 31, 0
3, 49880, Note_on_c, 1, 36, 72
3, 50168, Note_on_c, 1, 36, 0
3, 50172, Note_on_c, 1, 24, 69
3, 50196, Note_on_c, 1, 24, 0
3, 50264, Note_on_c, 1, 41, 70
3, 50640, Note_on_c, 1, 41, 0
3, 50644, Note_on_c, 1, 34, 86
3, 51020, Note_on_c, 1, 34, 0
3, 51032, Note_on_c, 1, 40, 80
3, 51416, Note_on_c, 1, 40, 0
3, 51416, Note_on_c, 1, 41, 87
3, 51624, Note_on_c, 1, 41, 0
3, 51704, Note_on_c, 1, 41, 80
3, 51800, Note_on_c, 1, 48, 73
3, 51820, Note_on_c, 1, 41, 0
3, 52184, Note_on_c, 1, 48, 0
3, 52184, Note_on_c, 1, 34, 86
3, 52468, Note_on_c, 1, 29, 62
3, 52532, Note_on_c, 1, 29, 0
3, 52556, Note_on_c, 1, 34, 0
3, 52568, Note_on_c, 1, 41, 79
3, 52852, Note_on_c, 1, 41, 0
3, 52852, Note_on_c, 1, 29, 64
3, 52908, Note_on_c, 1, 29, 0
3, 52952, Note_on_c, 1, 43, 93
3, 53336, Note_on_c, 1, 43, 0
3, 53336, Note_on_c, 1, 43, 100
3, 53720, Note_on_c, 1, 43, 0
3, 53720, Note_on_c, 1, 36, 87
3, 53920, Note_on_c, 1, 36, 0
3, 54012, Note_on_c, 1, 36, 80
3, 54104, Note_on_c, 1, 43, 73
3, 54108, Note_on_c, 1, 36, 0
3, 54484, Note_on_c, 1, 43, 0
3, 54488, Note_on_c, 1, 41, 93
3, 54868, Note_on_c, 1, 41, 0
3, 54872, Note_on_c, 1, 41, 100
3, 55252, Note_on_c, 1, 41, 0
3, 55256, Note_on_c, 1, 38, 86
3, 55548, Note_on_c, 1, 33, 62
3, 55612, Note_on_c, 1, 33, 0
3, 55624, Note_on_c, 1, 38, 0
3, 55636, Note_on_c, 1, 45, 79
3, 55924, Note_on_c, 1, 45, 0
3, 55932, Note_on_c, 1, 33, 64
3, 55980, Note_on_c, 1, 33, 0
3, 56024, Note_on_c, 1, 43, 87
3, 56232, Note_on_c, 1, 43, 0
3, 56316, Note_on_c, 1, 43, 80
3, 56408, Note_on_c, 1, 50, 73
3, 56420, Note_on_c, 1, 43, 0
3, 56792, Note_on_c, 1, 50, 0
3, 56792, Note_on_c, 1, 36, 82
3, 57012, Note_on_c, 1, 36, 0
3, 57076, Note_on_c, 1, 36, 94
3, 57172, Note_on_c, 1, 36, 0
3, 57176, Note_on_c, 1, 40, 75
3, 57560, Note_on_c, 1, 40, 0
3, 57560, Note_on_c, 1, 41, 82
3, 57780, Note_on_c, 1, 41, 0
3, 57840, Note_on_c, 1, 41, 94
3, 57940, Note_on_c, 1, 41, 0
3, 57944, Note_on_c, 1, 40, 75
3, 58328, Note_on_c, 1, 40, 0
3, 58328, Note_on_c, 1, 41, 87
3, 58528, Note_on_c, 1, 41, 0
3, 58620, Note_on_c, 1, 41, 80
3, 58712, Note_on_c, 1, 48, 73
3, 58720, Note_on_c, 1, 41, 0
3, 59092, Note_on_c, 1, 48, 0
3, 59096, Note_on_c, 1, 34, 91
3, 59480, Note_on_c, 1, 38, 88
3, 59532, Note_on_c, 1, 34, 0
3, 59832, Note_on_c, 1, 38, 0
3, 59864, Note_on_c, 1, 39, 86
3, 60156, Note_on_c, 1, 34, 62
3, 60220, Note_on_c, 1, 34, 0
3, 60232, Note_on_c, 1, 39, 0
3, 60244, Note_on_c, 1, 46, 79
3, 60532, Note_on_c, 1, 46, 0
3, 60540, Note_on_c, 1, 34, 64
3, 60588, Note_on_c, 1, 34, 0
3, 60632, Note_on_c, 1, 44, 86
3, 61004, Note_on_c, 1, 44, 0
3, 61016, Note_on_c, 1, 37, 80
3, 61400, Note_on_c, 1, 37, 0
3, 61400, Note_on_c, 1, 38, 70
3, 61784, Note_on_c, 1, 38, 0
3, 61784, Note_on_c, 1, 43, 72
3, 62068, Note_on_c, 1, 43, 0
3, 62076, Note_on_c, 1, 31, 69
3, 62100, Note_on_c, 1, 31, 0
3, 62168, Note_on_c, 1, 36, 72
3, 62452, Note_on_c, 1, 36, 0
3, 62460, Note_on_c, 1, 24, 69
3, 62484, Note_on_c, 1, 24, 0
3, 62552, Note_on_c, 1, 41, 72
3, 62832, Note_on_c, 1, 41, 0
3, 62844, Note_on_c, 1, 29, 69
3, 62868, Note_on_c, 1, 29, 0
3, 62936, Note_on_c, 1, 34, 86
3, 63300, Note_on_c, 1, 34, 0
3, 63320, Note_on_c, 1, 40, 80
3, 63704, Note_on_c, 1, 40, 0
3, 63704, Note_on_c, 1, 41, 98
3, 63992, Note_on_c, 1, 29, 91
3, 63996, Note_on_c, 1, 41, 0
3, 64084, Note_on_c, 1, 29, 0
3, 64088, Note_on_c, 1, 41, 100
3, 64468, Note_on_c, 1, 41, 0
3, 64472, Note_on_c, 1, 34, 98
3, 64760, Note_on_c, 1, 22, 91
3, 64764, Note_on_c, 1, 34, 0
3, 64852, Note_on_c, 1, 22, 0
3, 64856, Note_on_c, 1, 34, 100
3, 65232, Note_on_c, 1, 34, 0
3, 65236, Note_on_c, 1, 43, 86
3, 65612, Note_on_c, 1, 43, 0
3, 65624, Note_on_c, 1, 35, 80
3, 66008, Note_on_c, 1, 35, 0
3, 66008, Note_on_c, 1, 36, 86
3, 66372, Note_on_c, 1, 36, 0
3, 66392, Note_on_c, 1, 40, 80
3, 66776, Note_on_c, 1, 40, 0
3, 66776, Note_on_c, 1, 41, 87
3, 67060, Note_on_c, 1, 29, 64
3, 67124, Note_on_c, 1, 41, 0
3, 67160, Note_on_c, 1, 29, 0
3, 67164, Note_on_c, 1, 39, 87
3, 67544, Note_on_c, 1, 39, 0
3, 67544, Note_on_c, 1, 38, 98
3, 67928, Note_on_c, 1, 38, 0
3, 67928, Note_on_c, 1, 44, 105
3, 68312, Note_on_c, 1, 44, 0
3, 68312, Note_on_c, 1, 43, 81
3, 68696, Note_on_c, 1, 50, 80
3, 68768, Note_on_c, 1, 43, 0
3, 69076, Note_on_c, 1, 50, 0
3, 69080, Note_on_c, 1, 48, 78
3, 69464, Note_on_c, 1, 43, 77
3, 69516, Note_on_c, 1, 48, 0
3, 69840, Note_on_c, 1, 43, 0
3, 69844, Note_on_c, 1, 41, 87
3, 70140, Note_on_c, 1, 29, 64
3, 70196, Note_on_c, 1, 41, 0
3, 70232, Note_on_c, 1, 29, 0
3, 70236, Note_on_c, 1, 42, 87
3, 70616, Note_on_c, 1, 42, 0
3, 70616, Note_on_c, 1, 41, 87
3, 70824, Note_on_c, 1, 41, 0
3, 70908, Note_on_c, 1, 41, 80
3, 71000, Note_on_c, 1, 48, 73
3, 71020, Note_on_c, 1, 41, 0
3, 71384, Note_on_c, 1, 48, 0
3, 71384, Note_on_c, 1, 34, 81
3, 71768, Note_on_c, 1, 41, 80
3, 71836, Note_on_c, 1, 34, 0
3, 72152, Note_on_c, 1, 41, 0
3, 72152, Note_on_c, 1, 39, 86
3, 72432, Note_on_c, 1, 34, 62
3, 72500, Note_on_c, 1, 34, 0
3, 72524, Note_on_c, 1, 39, 0
3, 72536, Note_on_c, 1, 46, 79
3, 72824, Note_on_c, 1, 46, 0
3, 72824, Note_on_c, 1, 34, 64
3, 72876, Note_on_c, 1, 34, 0
3, 72920, Note_on_c, 1, 44, 98
3, 73208, Note_on_c, 1, 32, 91
3, 73212, Note_on_c, 1, 44, 0
3, 73304, Note_on_c, 1, 32, 0
3, 73304, Note_on_c, 1, 44, 100
3, 73684, Note_on_c, 1, 44, 0
3, 73688, Note_on_c, 1, 38, 70
3, 74068, Note_on_c, 1, 38, 0
3, 74072, Note_on_c, 1, 43, 70
3, 74452, Note_on_c, 1, 43, 0
3, 74456, Note_on_c, 1, 36, 70
3, 74832, Note_on_c, 1, 36, 0
3, 74836, Note_on_c, 1, 41, 72
3, 75128, Note_on_c, 1, 41, 0
3, 75132, Note_on_c, 1, 29, 69
3, 75156, Note_on_c, 1, 29, 0
3, 75224, Note_on_c, 1, 34, 98
3, 75608, Note_on_c, 1, 34, 0
3, 75608, Note_on_c, 1, 35, 105
3, 75992, Note_on_c, 1, 35, 0
3, 75992, Note_on_c, 1, 34, 87
3, 76204, Note_on_c, 1, 34, 0
3, 76276, Note_on_c, 1, 34, 80
3, 76376, Note_on_c, 1, 41, 73
3, 76396, Note_on_c, 1, 34, 0
3, 76760, Note_on_c, 1, 41, 0
3, 76760, Note_on_c, 1, 39, 93
3, 77144, Note_on_c, 1, 39, 0
3, 77144, Note_on_c, 1, 39, 100
3, 77528, Note_on_c, 1, 39, 0
3, 77528, Note_on_c, 1, 36, 82
3, 77740, Note_on_c, 1, 36, 0
3, 77820, Note_on_c, 1, 36, 94
3, 77908, Note_on_c, 1, 36, 0
3, 77912, Note_on_c, 1, 40, 75
3, 78288, Note_on_c, 1, 40, 0
3, 78296, Note_on_c, 1, 41, 82
3, 78508, Note_on_c, 1, 41, 0
3, 78588, Note_on_c, 1, 41, 94
3, 78676, Note_on_c, 1, 41, 0
3, 78680, Note_on_c, 1, 33, 75
3, 79060, Note_on_c, 1, 33, 0
3, 79064, Note_on_c, 1, 34, 86
3, 79432, Note_on_c, 1, 34, 0
3, 79444, Note_on_c, 1, 42, 80
3, 79832, Note_on_c, 1, 42, 0
3, 79832, Note_on_c, 1, 43, 82
3, 80044, Note_on_c, 1, 43, 0
3, 80124, Note_on_c, 1, 43, 94
3, 80212, Note_on_c, 1, 43, 0
3, 80216, Note_on_c, 1, 35, 75
3, 80600, Note_on_c, 1, 35, 0
3, 80600, Note_on_c, 1, 36, 82
3, 80820, Note_on_c, 1, 36, 0
3, 80884, Note_on_c, 1, 36, 94
3, 80980, Note_on_c, 1, 36, 0
3, 80984, Note_on_c, 1, 40, 75
3, 81368, Note_on_c, 1, 40, 0
3, 81368, Note_on_c, 1, 41, 86
3, 81652, Note_on_c, 1, 36, 62
3, 81716, Note_on_c, 1, 36, 0
3, 81740, Note_on_c, 1, 41, 0
3, 81752, Note_on_c, 1, 48, 79
3, 82032, Note_on_c, 1, 48, 0
3, 82032, Note_on_c, 1, 36, 64
3, 82092, Note_on_c, 1, 36, 0
3, 82136, Note_on_c, 1, 34, 81
3, 82520, Note_on_c, 1, 41, 80
3, 82592, Note_on_c, 1, 34, 0
3, 82904, Note_on_c, 1, 41, 0
3, 82904, Note_on_c, 1, 34, 82
3, 83116, Note_on_c, 1, 34, 0
3, 83196, Note_on_c, 1, 34, 94
3, 83284, Note_on_c, 1, 34, 0
3, 83288, Note_on_c, 1, 38, 75
3, 83668, Note_on_c, 1, 38, 0
3, 83672, Note_on_c, 1, 39, 98
3, 83960, Note_on_c, 1, 27, 91
3, 83964, Note_on_c, 1, 39, 0
3, 84052, Note_on_c, 1, 27, 0
3, 84056, Note_on_c, 1, 39, 100
3, 84432, Note_on_c, 1, 39, 0
3, 84436, Note_on_c, 1, 44, 87
3, 84640, Note_on_c, 1, 44, 0
3, 84732, Note_on_c, 1, 44, 80
3, 84824, Note_on_c, 1, 51, 73
3, 84828, Note_on_c, 1, 44, 0
3, 85208, Note_on_c, 1, 51, 0
3, 85208, Note_on_c, 1, 37, 86
3, 85572, Note_on_c, 1, 37, 0
3, 85592, Note_on_c, 1, 42, 80
3, 85976, Note_on_c, 1, 42, 0
3, 85976, Note_on_c, 1, 43, 70
3, 86360, Note_on_c, 1, 43, 0
3, 86360, Note_on_c, 1, 36, 70
3, 86744, Note_on_c, 1, 36, 0
3, 86744, Note_on_c, 1, 41, 70
3, 87128, Note_on_c, 1, 41, 0
3, 87128, Note_on_c, 1, 34, 72
3, 87416, Note_on_c, 1, 34, 0
3, 87420, Note_on_c, 1, 22, 69
3, 87436, Note_on_c, 1, 22, 0
3, 87512, Note_on_c, 1, 39, 87
3, 87712, Note_on_c, 1, 39, 0
3, 87804, Note_on_c, 1, 39, 80
3, 87896, Note_on_c, 1, 46, 73
3, 87900, Note_on_c, 1, 39, 0
3, 88276, Note_on_c, 1, 46, 0
3, 88280, Note_on_c, 1, 41, 98
3, 88568, Note_on_c, 1, 29, 91
3, 88572, Note_on_c, 1, 41, 0
3, 88656, Note_on_c, 1, 29, 0
3, 88664, Note_on_c, 1, 41, 100
3, 89040, Note_on_c, 1, 41, 0
3, 89044, Note_on_c, 1, 34, 81
3, 89432, Note_on_c, 1, 41, 80
3, 89500, Note_on_c, 1, 34, 0
3, 89816, Note_on_c, 1, 41, 0
3, 89816, Note_on_c, 1, 43, 86
3, 90180, Note_on_c, 1, 43, 0
3, 90200, Note_on_c, 1, 35, 80
3, 90584, Note_on_c, 1, 35, 0
3, 90584, Note_on_c, 1, 36, 86
3, 90868, Note_on_c, 1, 31, 62
3, 90932, Note_on_c, 1, 31, 0
3, 90956, Note_on_c, 1, 36, 0
3, 90968, Note_on_c, 1, 43, 79
3, 91252, Note_on_c, 1, 43, 0
3, 91252, Note_on_c, 1, 31, 64
3, 91308, Note_on_c, 1, 31, 0
3, 91352, Note_on_c, 1, 41, 81
3, 91736, Note_on_c, 1, 48, 80
3, 91808, Note_on_c, 1, 41, 0
3, 92120, Note_on_c, 1, 48, 0
3, 92120, Note_on_c, 1, 38, 98
3, 92504, Note_on_c, 1, 38, 0
3, 92504, Note_on_c, 1, 44, 105
3, 92884, Note_on_c, 1, 44, 0
3, 92888, Note_on_c, 1, 43, 86
3, 93180, Note_on_c, 1, 38, 62
3, 93232, Note_on_c, 1, 38, 0
3, 93252, Note_on_c, 1, 43, 0
3, 93272, Note_on_c, 1, 50, 79
3, 93556, Note_on_c, 1, 50, 0
3, 93564, Note_on_c, 1, 38, 64
3, 93612, Note_on_c, 1, 38, 0
3, 93656, Note_on_c, 1, 36, 81
3, 94036, Note_on_c, 1, 43, 80
3, 94108, Note_on_c, 1, 36, 0
3, 94424, Note_on_c, 1, 43, 0
3, 94424, Note_on_c, 1, 41, 87
3, 94632, Note_on_c, 1, 41, 0
3, 94716, Note_on_c, 1, 41, 80
3, 94808, Note_on_c, 1, 48, 73
3, 94820, Note_on_c, 1, 41, 0
3, 95192, Note_on_c, 1, 48, 0
3, 95192, Note_on_c, 1, 41, 98
3, 95476, Note_on_c, 1, 29, 91
3, 95484, Note_on_c, 1, 41, 0
3, 95576, Note_on_c, 1, 29, 0
3, 95576, Note_on_c, 1, 41, 100
3, 95956, Note_on_c, 1, 41, 0
3, 95960, Note_on_c, 1, 34, 86
3, 96324, Note_on_c, 1, 34, 0
3, 96344, Note_on_c, 1, 38, 80
3, 96728, Note_on_c, 1, 38, 0
3, 96728, Note_on_c, 1, 39, 86
3, 97092, Note_on_c, 1, 39, 0
3, 97112, Note_on_c, 1, 43, 80
3, 97492, Note_on_c, 1, 43, 0
3, 97496, Note_on_c, 1, 44, 87
3, 97696, Note_on_c, 1, 44, 0
3, 97788, Note_on_c, 1, 44, 80
3, 97880, Note_on_c, 1, 51, 73
3, 97884, Note_on_c, 1, 44, 0
3, 98260, Note_on_c, 1, 51, 0
3, 98264, Note_on_c, 1, 38, 70
3, 98640, Note_on_c, 1, 38, 0
3, 98644, Note_on_c, 1, 43, 72
3, 98936, Note_on_c, 1, 43, 0
3, 98940, Note_on_c, 1, 31, 69
3, 98964, Note_on_c, 1, 31, 0
3, 99032, Note_on_c, 1, 36, 70
3, 99416, Note_on_c, 1, 36, 0
3, 99416, Note_on_c, 1, 41, 72
3, 99704, Note_on_c, 1, 41, 0
3, 99708, Note_on_c, 1, 29, 69
3, 99732, Note_on_c, 1, 29, 0
3, 99800, Note_on_c, 1, 34, 82
3, 100020, Note_on_c, 1, 34, 0
3, 100084, Note_on_c, 1, 34, 94
3, 100180, Note_on_c, 1, 34, 0
3, 100184, Note_on_c, 1, 40, 75
3, 100568, Note_on_c, 1, 40, 0
3, 100568, Note_on_c, 1, 41, 86
3, 100928, Note_on_c, 1, 41, 0
3, 100952, Note_on_c, 1, 33, 80
3, 101336, Note_on_c, 1, 33, 0
3, 101336, Note_on_c, 1, 34, 82
3, 101556, Note_on_c, 1, 34, 0
3, 101624, Note_on_c, 1, 34, 94
3, 101716, Note_on_c, 1, 34, 0
3, 101720, Note_on_c, 1, 42, 75
3, 102104, Note_on_c, 1, 42, 0
3, 102104, Note_on_c, 1, 43, 81
3, 102488, Note_on_c, 1, 50, 80
3, 102560, Note_on_c, 1, 43, 0
3, 102868, Note_on_c, 1, 50, 0
3, 102872, Note_on_c, 1, 36, 87
3, 103072, Note_on_c, 1, 36, 0
3, 103164, Note_on_c, 1, 36, 80
3, 103256, Note_on_c, 1, 43, 73
3, 103260, Note_on_c, 1, 36, 0
3, 103632, Note_on_c, 1, 43, 0
3, 103636, Note_on_c, 1, 41, 98
3, 103928, Note_on_c, 1, 29, 91
3, 103932, Note_on_c, 1, 41, 0
3, 104024, Note_on_c, 1, 29, 0
3, 104024, Note_on_c, 1, 41, 100
3, 104408, Note_on_c, 1, 41, 0
3, 104408, Note_on_c, 1, 50, 78
3, 104792, Note_on_c, 1, 45, 77
3, 104832, Note_on_c, 1, 50, 0
3, 105176, Note_on_c, 1, 45, 0
3, 105176, Note_on_c, 1, 43, 86
3, 105460, Note_on_c, 1, 38, 62
3, 105524, Note_on_c, 1, 38, 0
3, 105548, Note_on_c, 1, 43, 0
3, 105560, Note_on_c, 1, 50, 79
3, 105840, Note_on_c, 1, 50, 0
3, 105840, Note_on_c, 1, 38, 64
3, 105900, Note_on_c, 1, 38, 0
3, 105944, Note_on_c, 1, 36, 81
3, 106328, Note_on_c, 1, 43, 80
3, 106400, Note_on_c, 1, 36, 0
3, 106712, Note_on_c, 1, 43, 0
3, 106712, Note_on_c, 1, 41, 87
3, 106912, Note_on_c, 1, 41, 0
3, 107004, Note_on_c, 1, 41, 80
3, 107096, Note_on_c, 1, 48, 73
3, 107100, Note_on_c, 1, 41, 0
3, 107476, Note_on_c, 1, 48, 0
3, 107480, Note_on_c, 1, 41, 81
3, 107864, Note_on_c, 1, 48, 80
3, 107932, Note_on_c, 1, 41, 0
3, 108240, Note_on_c, 1, 48, 0
3, 108244, Note_on_c, 1, 34, 93
3, 108632, Note_on_c, 1, 34, 0
3, 108632, Note_on_c, 1, 34, 100
3, 109016, Note_on_c, 1, 34, 0
3, 109016, Note_on_c, 1, 39, 82
3, 109228, Note_on_c, 1, 39, 0
3, 109308, Note_on_c, 1, 39, 94
3, 109396, Note_on_c, 1, 39, 0
3, 109400, Note_on_c, 1, 43, 75
3, 109784, Note_on_c, 1, 43, 0
3, 109784, Note_on_c, 1, 44, 98
3, 110168, Note_on_c, 1, 44, 0
3, 110168, Note_on_c, 1, 39, 105
3, 110552, Note_on_c, 1, 39, 0
3, 110552, Note_on_c, 1, 38, 70
3, 110936, Note_on_c, 1, 38, 0
3, 110936, Note_on_c, 1, 43, 70
3, 111320, Note_on_c, 1, 43, 0
3, 111320, Note_on_c, 1, 36, 72
3, 111608, Note_on_c, 1, 36, 0
3, 111612, Note_on_c, 1, 24, 69
3, 111628, Note_on_c, 1, 24, 0
3, 111704, Note_on_c, 1, 41, 70
3, 112084, Note_on_c, 1, 41, 0
3, 112088, Note_on_c, 1, 34, 98
3, 112376, Note_on_c, 1, 22, 91
3, 112380, Note_on_c, 1, 34, 0
3, 112468, Note_on_c, 1, 22, 0
3, 112472, Note_on_c, 1, 34, 100
3, 112852, Note_on_c, 1, 34, 0
3, 112856, Note_on_c, 1, 41, 87
3, 113056, Note_on_c, 1, 41, 0
3, 113144, Note_on_c, 1, 41, 80
3, 113236, Note_on_c, 1, 48, 73
3, 113248, Note_on_c, 1, 41, 0
3, 113624, Note_on_c, 1, 48, 0
3, 113624, Note_on_c, 1, 34, 81
3, 114008, Note_on_c, 1, 41, 80
3, 114076, Note_on_c, 1, 34, 0
3, 114392, Note_on_c, 1, 41, 0
3, 114392, Note_on_c, 1, 43, 87
3, 114676, Note_on_c, 1, 31, 64
3, 114740, Note_on_c, 1, 43, 0
3, 114776, Note_on_c, 1, 31, 0
3, 114780, Note_on_c, 1, 37, 87
3, 115160, Note_on_c, 1, 37, 0
3, 115160, Note_on_c, 1, 36, 86
3, 115524, Note_on_c, 1, 36, 0
3, 115544, Note_on_c, 1, 40, 80
3, 115928, Note_on_c, 1, 40, 0
3, 115928, Note_on_c, 1, 41, 81
3, 116312, Note_on_c, 1, 48, 80
3, 116384, Note_on_c, 1, 41, 0
3, 116692, Note_on_c, 1, 48, 0
3, 116696, Note_on_c, 1, 38, 91
3, 117080, Note_on_c, 1, 41, 88
3, 117132, Note_on_c, 1, 38, 0
3, 117432, Note_on_c, 1, 41, 0
3, 117464, Note_on_c, 1, 43, 86
3, 117832, Note_on_c, 1, 43, 0
3, 117844, Note_on_c, 1, 35, 80
3, 118232, Note_on_c, 1, 35, 0
3, 118232, Note_on_c, 1, 48, 78
3, 118616, Note_on_c, 1, 43, 77
3, 118660, Note_on_c, 1, 48, 0
3, 119000, Note_on_c, 1, 43, 0
3, 119000, Note_on_c, 1, 41, 82
3, 119220, Note_on_c, 1, 41, 0
3, 119280, Note_on_c, 1, 41, 94
3, 119380, Note_on_c, 1, 41, 0
3, 119384, Note_on_c, 1, 40, 75
3, 119768, Note_on_c, 1, 40, 0
3, 119768, Note_on_c, 1, 41, 98
3, 120048, Note_on_c, 1, 29, 91
3, 120060, Note_on_c, 1, 41, 0
3, 120152, Note_on_c, 1, 29, 0
3, 120152, Note_on_c, 1, 41, 100
3, 120532, Note_on_c, 1, 41, 0
3, 120536, Note_on_c, 1, 46, 78
3, 120920, Note_on_c, 1, 41, 77
3, 120972, Note_on_c, 1, 46, 0
3, 121304, Note_on_c, 1, 41, 0
3, 121304, Note_on_c, 1, 39, 87
3, 121596, Note_on_c, 1, 27, 64
3, 121644, Note_on_c, 1, 39, 0
3, 121688, Note_on_c, 1, 27, 0
3, 121692, Note_on_c, 1, 45, 87
3, 122068, Note_on_c, 1, 45, 0
3, 122072, Note_on_c, 1, 44, 82
3, 122284, Note_on_c, 1, 44, 0
3, 122364, Note_on_c, 1, 44, 94
3, 122444, Note_on_c, 1, 44, 0
3, 122456, Note_on_c, 1, 37, 75
3, 122832, Note_on_c, 1, 37, 0
3, 122836, Note_on_c, 1, 38, 72
3, 123128, Note_on_c, 1, 38, 0
3, 123132, Note_on_c, 1, 26, 69
3, 123156, Note_on_c, 1, 26, 0
3, 123224, Note_on_c, 1, 43, 72
3, 123512, Note_on_c, 1, 43, 0
3, 123516, Note_on_c, 1, 31, 69
3, 123540, Note_on_c, 1, 31, 0
3, 123608, Note_on_c, 1, 36, 72
3, 123892, Note_on_c, 1, 36, 0
3, 123900, Note_on_c, 1, 24, 69
3, 123924, Note_on_c, 1, 24, 0
3, 123992, Note_on_c, 1, 41, 72
3, 124276, Note_on_c, 1, 41, 0
3, 124284, Note_on_c, 1, 29, 69
3, 124308, Note_on_c, 1, 29, 0
3, 124376, Note_on_c, 1, 34, 86
3, 124740, Note_on_c, 1, 34, 0
3, 124760, Note_on_c, 1, 33, 80
3, 125144, Note_on_c, 1, 33, 0
3, 125144, Note_on_c, 1, 34, 87
3, 125432, Note_on_c, 1, 22, 64
3, 125492, Note_on_c, 1, 34, 0
3, 125528, Note_on_c, 1, 22, 0
3, 125532, Note_on_c, 1, 40, 87
3, 125912, Note_on_c, 1, 40, 0
3, 125912, Note_on_c, 1, 39, 81
3, 126296, Note_on_c, 1, 46, 80
3, 126368, Note_on_c, 1, 39, 0
3, 126676, Note_on_c, 1, 46, 0
3, 126680, Note_on_c, 1, 36, 86
3, 126972, Note_on_c, 1, 32, 62
3, 127032, Note_on_c, 1, 32, 0
3, 127040, Note_on_c, 1, 36, 0
3, 127064, Note_on_c, 1, 44, 79
3, 127348, Note_on_c, 1, 44, 0
3, 127356, Note_on_c, 1, 32, 64
3, 127404, Note_on_c, 1, 32, 0
3, 127444, Note_on_c, 1, 41, 87
3, 127648, Note_on_c, 1, 41, 0
3, 127740, Note_on_c, 1, 41, 80
3, 127832, Note_on_c, 1, 48, 73
3, 127836, Note_on_c, 1, 41, 0
3, 128216, Note_on_c, 1, 48, 0
3, 128216, Note_on_c, 1, 34, 87
3, 128424, Note_on_c, 1, 34, 0
3, 128508, Note_on_c, 1, 34, 80
3, 128600, Note_on_c, 1, 41, 73
3, 128620, Note_on_c, 1, 34, 0
3, 128984, Note_on_c, 1, 41, 0
3, 128984, Note_on_c, 1, 43, 98
3, 129268, Note_on_c, 1, 31, 91
3, 129276, Note_on_c, 1, 43, 0
3, 129368, Note_on_c, 1, 31, 0
3, 129368, Note_on_c, 1, 43, 100
3, 129748, Note_on_c, 1, 43, 0
3, 129752, Note_on_c, 1, 36, 81
3, 130136, Note_on_c, 1, 43, 80
3, 130208, Note_on_c, 1, 36, 0
3, 130520, Note_on_c, 1, 43, 0
3, 130520, Note_on_c, 1, 41, 81
3, 130904, Note_on_c, 1, 48, 80
3, 130976, Note_on_c, 1, 41, 0
3, 131284, Note_on_c, 1, 48, 0
3, 131288, Note_on_c, 1, 34, 86
3, 131652, Note_on_c, 1, 34, 0
3, 131672, Note_on_c, 1, 33, 80
3, 132052, Note_on_c, 1, 33, 0
3, 132056, Note_on_c, 1, 34, 86
3, 132424, Note_on_c, 1, 34, 0
3, 132436, Note_on_c, 1, 38, 80
3, 132824, Note_on_c, 1, 38, 0
3, 132824, Note_on_c, 1, 39, 86
3, 133196, Note_on_c, 1, 39, 0
3, 133208, Note_on_c, 1, 43, 80
3, 133592, Note_on_c, 1, 43, 0
3, 133592, Note_on_c, 1, 44, 81
3, 133976, Note_on_c, 1, 51, 80
3, 134044, Note_on_c, 1, 44, 0
3, 134360, Note_on_c, 1, 51, 0
3, 134360, Note_on_c, 1, 37, 91
3, 134744, Note_on_c, 1, 41, 88
3, 134796, Note_on_c, 1, 37, 0
3, 135092, Note_on_c, 1, 41, 0
3, 135128, Note_on_c, 1, 43, 72
3, 135416, Note_on_c, 1, 43, 0
3, 135420, Note_on_c, 1, 31, 69
3, 135436, Note_on_c, 1, 31, 0
3, 135512, Note_on_c, 1, 36, 72
3, 135800, Note_on_c, 1, 36, 0
3, 135804, Note_on_c, 1, 24, 69
3, 135828, Note_on_c, 1, 24, 0
3, 135896, Note_on_c, 1, 41, 70
3, 136276, Note_on_c, 1, 41, 0
3, 136280, Note_on_c, 1, 34, 72
3, 136568, Note_on_c, 1, 34, 0
3, 136572, Note_on_c, 1, 22, 69
3, 136596, Note_on_c, 1, 22, 0
3, 136664, Note_on_c, 1, 39, 82
3, 136876, Note_on_c, 1, 39, 0
3, 136956, Note_on_c, 1, 39, 94
3, 137036, Note_on_c, 1, 39, 0
3, 137044, Note_on_c, 1, 40, 75
3, 137432, Note_on_c, 1, 40, 0
3, 137432, Note_on_c, 1, 41, 81
3, 137816, Note_on_c, 1, 48, 80
3, 137884, Note_on_c, 1, 41, 0
3, 138200, Note_on_c, 1, 48, 0
3, 138200, Note_on_c, 1, 34, 93
3, 138584, Note_on_c, 1, 34, 0
3, 138584, Note_on_c, 1, 34, 100
3, 138968, Note_on_c, 1, 34, 0
3, 138968, Note_on_c, 1, 43, 87
3, 139252, Note_on_c, 1, 31, 64
3, 139316, Note_on_c, 1, 43, 0
3, 139352, Note_on_c, 1, 31, 0
3, 139360, Note_on_c, 1, 37, 87
3, 139736, Note_on_c, 1, 37, 0
3, 139736, Note_on_c, 1, 36, 81
3, 140120, Note_on_c, 1, 43, 80
3, 140192, Note_on_c, 1, 36, 0
3, 140504, Note_on_c, 1, 43, 0
3, 140504, Note_on_c, 1, 41, 87
3, 140796, Note_on_c, 1, 29, 64
3, 140844, Note_on_c, 1, 41, 0
3, 140888, Note_on_c, 1, 29, 0
3, 140892, Note_on_c, 1, 39, 87
3, 141268, Note_on_c, 1, 39, 0
3, 141272, Note_on_c, 1, 38, 82
3, 141484, Note_on_c, 1, 38, 0
3, 141564, Note_on_c, 1, 38, 94
3, 141644, Note_on_c, 1, 38, 0
3, 141656, Note_on_c, 1, 42, 75
3, 142032, Note_on_c, 1, 42, 0
3, 142036, Note_on_c, 1, 43, 86
3, 142412, Note_on_c, 1, 43, 0
3, 142424, Note_on_c, 1, 35, 80
3, 142808, Note_on_c, 1, 35, 0
3, 142808, Note_on_c, 1, 36, 86
3, 143092, Note_on_c, 1, 31, 62
3, 143156, Note_on_c, 1, 31, 0
3, 143180, Note_on_c, 1, 36, 0
3, 143192, Note_on_c, 1, 43, 79
3, 143476, Note_on_c, 1, 43, 0
3, 143476, Note_on_c, 1, 31, 64
3, 143532, Note_on_c, 1, 31, 0
3, 143576, Note_on_c, 1, 41, 86
3, 143940, Note_on_c, 1, 41, 0
3, 143960, Note_on_c, 1, 40, 80
3, 144344, Note_on_c, 1, 40, 0
3, 144344, Note_on_c, 1, 41, 87
3, 144632, Note_on_c, 1, 29, 64
3, 144692, Note_on_c, 1, 41, 0
3, 144728, Note_on_c, 1, 29, 0
3, 144732, Note_on_c, 1, 35, 87
3, 145112, Note_on_c, 1, 35, 0
3, 145112, Note_on_c, 1, 34, 86
3, 145476, Note_on_c, 1, 34, 0
3, 145496, Note_on_c, 1, 38, 80
3, 145876, Note_on_c, 1, 38, 0
3, 145880, Note_on_c, 1, 39, 82
3, 146092, Note_on_c, 1, 39, 0
3, 146172, Note_on_c, 1, 39, 94
3, 146252, Note_on_c, 1, 39, 0
3, 146264, Note_on_c, 1, 43, 75
3, 146640, Note_on_c, 1, 43, 0
3, 146644, Note_on_c, 1, 44, 82
3, 146860, Note_on_c, 1, 44, 0
3, 146940, Note_on_c, 1, 44, 94
3, 147028, Note_on_c, 1, 44, 0
3, 147032, Note_on_c, 1, 37, 75
3, 147416, Note_on_c, 1, 37, 0
3, 147416, Note_on_c, 1, 38, 70
3, 147800, Note_on_c, 1, 38, 0
3, 147800, Note_on_c, 1, 43, 72
3, 148084, Note_on_c, 1, 43, 0
3, 148092, Note_on_c, 1, 31, 69
3, 148116, Note_on_c, 1, 31, 0
3, 148184, Note_on_c, 1, 36, 72
3, 148468, Note_on_c, 1, 36, 0
3, 148476, Note_on_c, 1, 24, 69
3, 148500, Note_on_c, 1, 24, 0
3, 148568, Note_on_c, 1, 41, 72
3, 148852, Note_on_c, 1, 41, 0
3, 148860, Note_on_c, 1, 29, 69
3, 148884, Note_on_c, 1, 29, 0
3, 148952, Note_on_c, 1, 34, 93
3, 149336, Note_on_c, 1, 34, 0
3, 149336, Note_on_c, 1, 34, 100
3, 149720, Note_on_c, 1, 34, 0
3, 149720, Note_on_c, 1, 41, 82
3, 149932, Note_on_c, 1, 41, 0
3, 150008, Note_on_c, 1, 41, 94
3, 150100, Note_on_c, 1, 41, 0
3, 150104, Note_on_c, 1, 33, 75
3, 150484, Note_on_c, 1, 33, 0
3, 150488, Note_on_c, 1, 34, 98
3, 150776, Note_on_c, 1, 22, 91
3, 150780, Note_on_c, 1, 34, 0
3, 150868, Note_on_c, 1, 22, 0
3, 150872, Note_on_c, 1, 34, 100
3, 151252, Note_on_c, 1, 34, 0
3, 151256, Note_on_c, 1, 43, 87
3, 151456, Note_on_c, 1, 43, 0
3, 151548, Note_on_c, 1, 43, 80
3, 151636, Note_on_c, 1, 50, 73
3, 151648, Note_on_c, 1, 43, 0
3, 152024, Note_on_c, 1, 50, 0
3, 152024, Note_on_c, 1, 36, 87
3, 152232, Note_on_c, 1, 36, 0
3, 152316, Note_on_c, 1, 36, 80
3, 152408, Note_on_c, 1, 43, 73
3, 152420, Note_on_c, 1, 36, 0
3, 152792, Note_on_c, 1, 43, 0
3, 152792, Note_on_c, 1, 41, 98
3, 153076, Note_on_c, 1, 29, 91
3, 153084, Note_on_c, 1, 41, 0
3, 153176, Note_on_c, 1, 29, 0
3, 153176, Note_on_c, 1, 41, 100
3, 153556, Note_on_c, 1, 41, 0
3, 153560, Note_on_c, 1, 38, 87
3, 153760, Note_on_c, 1, 38, 0
3, 153840, Note_on_c, 1, 38, 80
3, 153944, Note_on_c, 1, 45, 73
3, 153952, Note_on_c, 1, 38, 0
3, 154328, Note_on_c, 1, 45, 0
3, 154328, Note_on_c, 1, 43, 98
3, 154616, Note_on_c, 1, 31, 91
3, 154620, Note_on_c, 1, 43, 0
3, 154712, Note_on_c, 1, 31, 0
3, 154712, Note_on_c, 1, 43, 100
3, 155092, Note_on_c, 1, 43, 0
3, 155096, Note_on_c, 1, 36, 93
3, 155476, Note_on_c, 1, 36, 0
3, 155480, Note_on_c, 1, 36, 100
3, 155860, Note_on_c, 1, 36, 0
3, 155864, Note_on_c, 1, 41, 87
3, 156064, Note_on_c, 1, 41, 0
3, 156156, Note_on_c, 1, 41, 80
3, 156244, Note_on_c, 1, 48, 73
3, 156252, Note_on_c, 1, 41, 0
3, 156632, Note_on_c, 1, 48, 0
3, 156632, Note_on_c, 1, 41, 81
3, 157016, Note_on_c, 1, 48, 80
3, 157084, Note_on_c, 1, 41, 0
3, 157400, Note_on_c, 1, 48, 0
3, 157400, Note_on_c, 1, 34, 91
3, 157784, Note_on_c, 1, 38, 88
3, 157832, Note_on_c, 1, 34, 0
3, 158132, Note_on_c, 1, 38, 0
3, 158168, Note_on_c, 1, 39, 87
3, 158368, Note_on_c, 1, 39, 0
3, 158452, Note_on_c, 1, 39, 80
3, 158552, Note_on_c, 1, 46, 73
3, 158556, Note_on_c, 1, 39, 0
3, 158936, Note_on_c, 1, 46, 0
3, 158936, Note_on_c, 1, 44, 82
3, 159156, Note_on_c, 1, 44, 0
3, 159224, Note_on_c, 1, 44, 94
3, 159316, Note_on_c, 1, 44, 0
3, 159320, Note_on_c, 1, 37, 75
3, 159704, Note_on_c, 1, 37, 0
3, 159704, Note_on_c, 1, 38, 70
3, 160084, Note_on_c, 1, 38, 0
3, 160088, Note_on_c, 1, 43, 72
3, 160376, Note_on_c, 1, 43, 0
3, 160380, Note_on_c, 1, 31, 69
3, 160404, Note_on_c, 1, 31, 0
3, 160472, Note_on_c, 1, 36, 72
3, 160760, Note_on_c, 1, 36, 0
3, 160764, Note_on_c, 1, 24, 69
3, 160788, Note_on_c, 1, 24, 0
3, 160856, Note_on_c, 1, 41, 70
3, 161232, Note_on_c, 1, 41, 0
3, 161236, Note_on_c, 1, 34, 86
3, 161612, Note_on_c, 1, 34, 0
3, 161624, Note_on_c, 1, 40, 80
3, 162008, Note_on_c, 1, 40, 0
3, 162008, Note_on_c, 1, 41, 93
3, 162392, Note_on_c, 1, 41, 0
3, 162392, Note_on_c, 1, 41, 100
3, 162776, Note_on_c, 1, 41, 0
3, 162776, Note_on_c, 1, 34, 81
3, 163160, Note_on_c, 1, 41, 80
3, 163228, Note_on_c, 1, 34, 0
3, 163544, Note_on_c, 1, 41, 0
3, 163544, Note_on_c, 1, 43, 98
3, 163832, Note_on_c, 1, 31, 91
3, 163836, Note_on_c, 1, 43, 0
3, 163928, Note_on_c, 1, 31, 0
3, 163928, Note_on_c, 1, 43, 100
3, 164308, Note_on_c, 1, 43, 0
3, 164312, Note_on_c, 1, 36, 82
3, 164524, Note_on_c, 1, 36, 0
3, 164604, Note_on_c, 1, 36, 94
3, 164692, Note_on_c, 1, 36, 0
3, 164696, Note_on_c, 1, 40, 75
3, 165076, Note_on_c, 1, 40, 0
3, 165080, Note_on_c, 1, 41, 93
3, 165460, Note_on_c, 1, 41, 0
3, 165464, Note_on_c, 1, 41, 100
3, 165840, Note_on_c, 1, 41, 0
3, 165844, Note_on_c, 1, 38, 91
3, 166232, Note_on_c, 1, 41, 88
3, 166276, Note_on_c, 1, 38, 0
3, 166580, Note_on_c, 1, 41, 0
3, 166616, Note_on_c, 1, 43, 81
3, 167000, Note_on_c, 1, 50, 80
3, 167068, Note_on_c, 1, 43, 0
3, 167384, Note_on_c, 1, 50, 0
3, 167384, Note_on_c, 1, 36, 93
3, 167768, Note_on_c, 1, 36, 0
3, 167768, Note_on_c, 1, 36, 100
3, 168152, Note_on_c, 1, 36, 0
3, 168152, Note_on_c, 1, 41, 81
3, 168536, Note_on_c, 1, 48, 80
3, 168608, Note_on_c, 1, 41, 0
3, 168920, Note_on_c, 1, 48, 0
3, 168920, Note_on_c, 1, 41, 98
3, 169208, Note_on_c, 1, 29, 91
3, 169212, Note_on_c, 1, 41, 0
3, 169304, Note_on_c, 1, 29, 0
3, 169304, Note_on_c, 1, 41, 100
3, 169684, Note_on_c, 1, 41, 0
3, 169688, Note_on_c, 1, 34, 87
3, 169888, Note_on_c, 1, 34, 0
3, 169980, Note_on_c, 1, 34, 80
3, 170072, Note_on_c, 1, 41, 73
3, 170076, Note_on_c, 1, 34, 0
3, 170452, Note_on_c, 1, 41, 0
3, 170456, Note_on_c, 1, 39, 91
3, 170836, Note_on_c, 1, 43, 88
3, 170884, Note_on_c, 1, 39, 0
3, 171196, Note_on_c, 1, 43, 0
3, 171224, Note_on_c, 1, 44, 86
3, 171596, Note_on_c, 1, 44, 0
3, 171608, Note_on_c, 1, 37, 80
3, 171992, Note_on_c, 1, 37, 0
3, 171992, Note_on_c, 1, 38, 72
3, 172276, Note_on_c, 1, 38, 0
3, 172284, Note_on_c, 1, 26, 69
3, 172308, Note_on_c, 1, 26, 0
3, 172376, Note_on_c, 1, 43, 72
3, 172660, Note_on_c, 1, 43, 0
3, 172668, Note_on_c, 1, 31, 69
3, 172692, Note_on_c, 1, 31, 0
3, 172760, Note_on_c, 1, 36, 72
3, 173040, Note_on_c, 1, 36, 0
3, 173052, Note_on_c, 1, 24, 69
3, 173076, Note_on_c, 1, 24, 0
3, 173144, Note_on_c, 1, 41, 70
3, 173528, Note_on_c, 1, 41, 0
3, 173528, Note_on_c, 1, 34, 86
3, 173892, Note_on_c, 1, 34, 0
3, 173912, Note_on_c, 1, 33, 80
3, 174292, Note_on_c, 1, 33, 0
3, 174296, Note_on_c, 1, 34, 81
3, 174680, Note_on_c, 1, 41, 80
3, 174748, Note_on_c, 1, 34, 0
3, 175060, Note_on_c, 1, 41, 0
3, 175064, Note_on_c, 1, 39, 87
3, 175264, Note_on_c, 1, 39, 0
3, 175356, Note_on_c, 1, 39, 80
3, 175444, Note_on_c, 1, 46, 73
3, 175456, Note_on_c, 1, 39, 0
3, 175832, Note_on_c, 1, 46, 0
3, 175832, Note_on_c, 1, 36, 93
3, 176216, Note_on_c, 1, 36, 0
3, 176216, Note_on_c, 1, 36, 100
3, 176600, Note_on_c, 1, 36, 0
3, 176600, Note_on_c, 1, 41, 93
3, 176984, Note_on_c, 1, 41, 0
3, 176984, Note_on_c, 1, 41, 100
3, 177368, Note_on_c, 1, 41, 0
3, 177368, Note_on_c, 1, 34, 87
3, 177568, Note_on_c, 1, 34, 0
3, 177652, Note_on_c, 1, 34, 80
3, 177752, Note_on_c, 1, 41, 73
3, 177756, Note_on_c, 1, 34, 0
3, 178136, Note_on_c, 1, 41, 0
3, 178136, Note_on_c, 1, 43, 86
3, 178424, Note_on_c, 1, 38, 62
3, 178484, Note_on_c, 1, 38, 0
3, 178508, Note_on_c, 1, 43, 0
3, 178520, Note_on_c, 1, 50, 79
3, 178808, Note_on_c, 1, 50, 0
3, 178812, Note_on_c, 1, 38, 64
3, 178860, Note_on_c, 1, 38, 0
3, 178904, Note_on_c, 1, 36, 91
3, 179288, Note_on_c, 1, 40, 88
3, 179340, Note_on_c, 1, 36, 0
3, 179632, Note_on_c, 1, 40, 0
3, 179672, Note_on_c, 1, 41, 86
3, 180032, Note_on_c, 1, 41, 0
3, 180056, Note_on_c, 1, 33, 80
3, 180432, Note_on_c, 1, 33, 0
3, 180436, Note_on_c, 1, 34, 87
3, 180640, Note_on_c, 1, 34, 0
3, 180732, Note_on_c, 1, 34, 80
3, 180824, Note_on_c, 1, 41, 73
3, 180828, Note_on_c, 1, 34, 0
3, 181208, Note_on_c, 1, 41, 0
3, 181208, Note_on_c, 1, 34, 81
3, 181592, Note_on_c, 1, 41, 80
3, 181660, Note_on_c, 1, 34, 0
3, 181976, Note_on_c, 1, 41, 0
3, 181976, Note_on_c, 1, 39, 98
3, 182260, Note_on_c, 1, 27, 91
3, 182268, Note_on_c, 1, 39, 0
3, 182360, Note_on_c, 1, 27, 0
3, 182360, Note_on_c, 1, 39, 100
3, 182736, Note_on_c, 1, 39, 0
3, 182744, Note_on_c, 1, 44, 81
3, 183128, Note_on_c, 1, 51, 80
3, 183200, Note_on_c, 1, 44, 0
3, 183512, Note_on_c, 1, 51, 0
3, 183512, Note_on_c, 1, 37, 98
3, 183800, Note_on_c, 1, 25, 91
3, 183804, Note_on_c, 1, 37, 0
3, 183892, Note_on_c, 1, 25, 0
3, 183896, Note_on_c, 1, 37, 100
3, 184276, Note_on_c, 1, 37, 0
3, 184280, Note_on_c, 1, 43, 72
3, 184568, Note_on_c, 1, 43, 0
3, 184572, Note_on_c, 1, 31, 69
3, 184596, Note_on_c, 1, 31, 0
3, 184664, Note_on_c, 1, 36, 70
3, 185040, Note_on_c, 1, 36, 0
3, 185044, Note_on_c, 1, 41, 70
3, 185432, Note_on_c, 1, 41, 0
3, 185432, Note_on_c, 1, 34, 72
3, 185720, Note_on_c, 1, 34, 0
3, 185724, Note_on_c, 1, 22, 69
3, 185748, Note_on_c, 1, 22, 0
3, 185816, Note_on_c, 1, 39, 86
3, 186108, Note_on_c, 1, 34, 62
3, 186164, Note_on_c, 1, 34, 0
3, 186188, Note_on_c, 1, 39, 0
3, 186200, Note_on_c, 1, 46, 79
3, 186484, Note_on_c, 1, 46, 0
3, 186484, Note_on_c, 1, 34, 64
3, 186540, Note_on_c, 1, 34, 0
3, 186584, Note_on_c, 1, 41, 86
3, 186944, Note_on_c, 1, 41, 0
3, 186968, Note_on_c, 1, 33, 80
3, 187352, Note_on_c, 1, 33, 0
3, 187352, Note_on_c, 1, 34, 86
3, 187632, Note_on_c, 1, 29, 62
3, 187700, Note_on_c, 1, 29, 0
3, 187724, Note_on_c, 1, 34, 0
3, 187736, Note_on_c, 1, 41, 79
3, 188024, Note_on_c, 1, 41, 0
3, 188024, Note_on_c, 1, 29, 64
3, 188076, Note_on_c, 1, 29, 0
3, 188120, Note_on_c, 1, 43, 98
3, 188408, Note_on_c, 1, 31, 91
3, 188412, Note_on_c, 1, 43, 0
3, 188504, Note_on_c, 1, 31, 0
3, 188504, Note_on_c, 1, 43, 100
3, 188884, Note_on_c, 1, 43, 0
3, 188888, Note_on_c, 1, 36, 87
3, 189088, Note_on_c, 1, 36, 0
3, 189180, Note_on_c, 1, 36, 80
3, 189272, Note_on_c, 1, 43, 73
3, 189276, Note_on_c, 1, 36, 0
3, 189652, Note_on_c, 1, 43, 0
3, 189656, Note_on_c, 1, 41, 82
3, 189868, Note_on_c, 1, 41, 0
3, 189948, Note_on_c, 1, 41, 94
3, 190028, Note_on_c, 1, 41, 0
3, 190036, Note_on_c, 1, 37, 75
3, 190424, Note_on_c, 1, 37, 0
3, 190424, Note_on_c, 1, 38, 93
3, 190808, Note_on_c, 1, 38, 0
3, 190808, Note_on_c, 1, 38, 100
3, 191192, Note_on_c, 1, 38, 0
3, 191192, Note_on_c, 1, 43, 87
3, 191404, Note_on_c, 1, 43, 0
3, 191476, Note_on_c, 1, 43, 80
3, 191576, Note_on_c, 1, 50, 73
3, 191596, Note_on_c, 1, 43, 0
3, 191960, Note_on_c, 1, 50, 0
3, 191960, Note_on_c, 1, 36, 93
3, 192344, Note_on_c, 1, 36, 0
3, 192344, Note_on_c, 1, 36, 100
3, 192728, Note_on_c, 1, 36, 0
3, 192728, Note_on_c, 1, 41, 87
3, 193020, Note_on_c, 1, 29, 64
3, 193076, Note_on_c, 1, 41, 0
3, 193112, Note_on_c, 1, 29, 0
3, 193116, Note_on_c, 1, 42, 87
3, 193492, Note_on_c, 1, 42, 0
3, 193496, Note_on_c, 1, 41, 86
3, 193788, Note_on_c, 1, 36, 62
3, 193840, Note_on_c, 1, 36, 0
3, 193860, Note_on_c, 1, 41, 0
3, 193880, Note_on_c, 1, 48, 79
3, 194164, Note_on_c, 1, 48, 0
3, 194168, Note_on_c, 1, 36, 64
3, 194220, Note_on_c, 1, 36, 0
3, 194264, Note_on_c, 1, 34, 87
3, 194464, Note_on_c, 1, 34, 0
3, 194556, Note_on_c, 1, 34, 80
3, 194644, Note_on_c, 1, 41, 73
3, 194656, Note_on_c, 1, 34, 0
3, 195032, Note_on_c, 1, 41, 0
3, 195032, Note_on_c, 1, 39, 98
3, 195416, Note_on_c, 1, 39, 0
3, 195416, Note_on_c, 1, 45, 105
3, 195800, Note_on_c, 1, 45, 0
3, 195800, Note_on_c, 1, 44, 81
3, 196184, Note_on_c, 1, 51, 80
3, 196256, Note_on_c, 1, 44, 0
3, 196568, Note_on_c, 1, 51, 0
3, 196568, Note_on_c, 1, 38, 72
3, 196852, Note_on_c, 1, 38, 0
3, 196860, Note_on_c, 1, 26, 69
3, 196884, Note_on_c, 1, 26, 0
3, 196952, Note_on_c, 1, 43, 70
3, 197336, Note_on_c, 1, 43, 0
3, 197336, Note_on_c, 1, 36, 70
3, 197720, Note_on_c, 1, 36, 0
3, 197720, Note_on_c, 1, 41, 70
3, 198104, Note_on_c, 1, 41, 0
3, 198104, Note_on_c, 1, 34, 86
3, 198468, Note_on_c, 1, 34, 0
3, 198488, Note_on_c, 1, 40, 80
3, 198868, Note_on_c, 1, 40, 0
3, 198872, Note_on_c, 1, 41, 86
3, 199160, Note_on_c, 1, 36, 62
3, 199224, Note_on_c, 1, 36, 0
3, 199232, Note_on_c, 1, 41, 0
3, 199256, Note_on_c, 1, 48, 79
3, 199540, Note_on_c, 1, 48, 0
3, 199544, Note_on_c, 1, 36, 64
3, 199596, Note_on_c, 1, 36, 0
3, 199636, Note_on_c, 1, 34, 81
3, 200024, Note_on_c, 1, 41, 80
3, 200092, Note_on_c, 1, 34, 0
3, 200408, Note_on_c, 1, 41, 0
3, 200408, Note_on_c, 1, 43, 82
3, 200628, Note_on_c, 1, 43, 0
3, 200692, Note_on_c, 1, 43, 94
3, 200788, Note_on_c, 1, 43, 0
3, 200792, Note_on_c, 1, 35, 75
3, 201176, Note_on_c, 1, 35, 0
3, 201176, Note_on_c, 1, 48, 78
3, 201560, Note_on_c, 1, 43, 77
3, 201612, Note_on_c, 1, 48, 0
3, 201944, Note_on_c, 1, 43, 0
3, 201944, Note_on_c, 1, 41, 82
3, 202164, Note_on_c, 1, 41, 0
3, 202232, Note_on_c, 1, 41, 94
3, 202320, Note_on_c, 1, 41, 0
3, 202328, Note_on_c, 1, 37, 75
3, 202712, Note_on_c, 1, 37, 0
3, 202712, Note_on_c, 1, 50, 78
3, 203096, Note_on_c, 1, 45, 77
3, 203148, Note_on_c, 1, 50, 0
3, 203476, Note_on_c, 1, 45, 0
3, 203480, Note_on_c, 1, 43, 98
3, 203856, Note_on_c, 1, 43, 0
3, 203864, Note_on_c, 1, 37, 105
3, 204240, Note_on_c, 1, 37, 0
3, 204244, Note_on_c, 1, 36, 86
3, 204540, Note_on_c, 1, 31, 62
3, 204604, Note_on_c, 1, 31, 0
3, 204620, Note_on_c, 1, 36, 0
3, 204632, Note_on_c, 1, 43, 79
3, 204916, Note_on_c, 1, 43, 0
3, 204924, Note_on_c, 1, 31, 64
3, 204972, Note_on_c, 1, 31, 0
3, 205016, Note_on_c, 1, 41, 81
3, 205400, Note_on_c, 1, 48, 80
3, 205468, Note_on_c, 1, 41, 0
3, 205784, Note_on_c, 1, 48, 0
3, 205784, Note_on_c, 1, 41, 87
3, 205996, Note_on_c, 1, 41, 0
3, 206068, Note_on_c, 1, 41, 80
3, 206168, Note_on_c, 1, 48, 73
3, 206172, Note_on_c, 1, 41, 0
3, 206552, Note_on_c, 1, 48, 0
3, 206552, Note_on_c, 1, 34, 93
3, 206936, Note_on_c, 1, 34, 0
3, 206936, Note_on_c, 1, 34, 100
3, 207320, Note_on_c, 1, 34, 0
3, 207320, Note_on_c, 1, 39, 81
3, 207704, Note_on_c, 1, 46, 80
3, 207776, Note_on_c, 1, 39, 0
3, 208084, Note_on_c, 1, 46, 0
3, 208088, Note_on_c, 1, 44, 86
3, 208380, Note_on_c, 1, 39, 62
3, 208432, Note_on_c, 1, 39, 0
3, 208452, Note_on_c, 1, 44, 0
3, 208472, Note_on_c, 1, 51, 79
3, 208756, Note_on_c, 1, 51, 0
3, 208764, Note_on_c, 1, 39, 64
3, 208812, Note_on_c, 1, 39, 0
3, 208856, Note_on_c, 1, 38, 72
3, 209144, Note_on_c, 1, 38, 0
3, 209148, Note_on_c, 1, 26, 69
3, 209172, Note_on_c, 1, 26, 0
3, 209236, Note_on_c, 1, 43, 70
3, 209624, Note_on_c, 1, 43, 0
3, 209624, Note_on_c, 1, 36, 72
3, 209912, Note_on_c, 1, 36, 0
3, 209916, Note_on_c, 1, 24, 69
3, 209940, Note_on_c, 1, 24, 0
3, 210008, Note_on_c, 1, 41, 70
3, 210392, Note_on_c, 1, 41, 0
3, 210392, Note_on_c, 1, 34, 86
3, 210676, Note_on_c, 1, 29, 62
3, 210740, Note_on_c, 1, 29, 0
3, 210764, Note_on_c, 1, 34, 0
3, 210776, Note_on_c, 1, 41, 79
3, 211060, Note_on_c, 1, 41, 0
3, 211060, Note_on_c, 1, 29, 64
3, 211116, Note_on_c, 1, 29, 0
3, 211160, Note_on_c, 1, 41, 81
3, 211544, Note_on_c, 1, 48, 80
3, 211616, Note_on_c, 1, 41, 0
3, 211928, Note_on_c, 1, 48, 0
3, 211928, Note_on_c, 1, 34, 82
3, 212140, Note_on_c, 1, 34, 0
3, 212220, Note_on_c, 1, 34, 94
3, 212308, Note_on_c, 1, 34, 0
3, 212312, Note_on_c, 1, 42, 75
3, 212692, Note_on_c, 1, 42, 0
3, 212696, Note_on_c, 1, 43, 87
3, 212988, Note_on_c, 1, 31, 64
3, 213036, Note_on_c, 1, 43, 0
3, 213080, Note_on_c, 1, 31, 0
3, 213084, Note_on_c, 1, 37, 87
3, 213460, Note_on_c, 1, 37, 0
3, 213464, Note_on_c, 1, 36, 93
3, 213840, Note_on_c, 1, 36, 0
3, 213844, Note_on_c, 1, 36, 100
3, 214232, Note_on_c, 1, 36, 0
3, 214232, Note_on_c, 1, 41, 93
3, 214616, Note_on_c, 1, 41, 0
3, 214616, Note_on_c, 1, 41, 100
3, 215000, Note_on_c, 1, 41, 0
3, 215000, Note_on_c, 1, 38, 91
3, 215384, Note_on_c, 1, 41, 88
3, 215432, Note_on_c, 1, 38, 0
3, 215732, Note_on_c, 1, 41, 0
3, 215768, Note_on_c, 1, 43, 86
3, 216132, Note_on_c, 1, 43, 0
3, 216152, Note_on_c, 1, 35, 80
3, 216536, Note_on_c, 1, 35, 0
3, 216536, Note_on_c, 1, 36, 93
3, 216920, Note_on_c, 1, 36, 0
3, 216920, Note_on_c, 1, 36, 100
3, 217304, Note_on_c, 1, 36, 0
3, 217304, Note_on_c, 1, 41, 87
3, 217504, Note_on_c, 1, 41, 0
3, 217596, Note_on_c, 1, 41, 80
3, 217688, Note_on_c, 1, 48, 73
3, 217692, Note_on_c, 1, 41, 0
3, 218068, Note_on_c, 1, 48, 0
3, 218072, Note_on_c, 1, 41, 98
3, 218452, Note_on_c, 1, 41, 0
3, 218456, Note_on_c, 1, 35, 105
3, 218832, Note_on_c, 1, 35, 0
3, 218836, Note_on_c, 1, 46, 78
3, 219224, Note_on_c, 1, 41, 77
3, 219268, Note_on_c, 1, 46, 0
3, 219608, Note_on_c, 1, 41, 0
3, 219608, Note_on_c, 1, 39, 86
3, 219892, Note_on_c, 1, 34, 62
3, 219956, Note_on_c, 1, 34, 0
3, 219980, Note_on_c, 1, 39, 0
3, 219992, Note_on_c, 1, 46, 79
3, 220272, Note_on_c, 1, 46, 0
3, 220276, Note_on_c, 1, 34, 64
3, 220332, Note_on_c, 1, 34, 0
3, 220376, Note_on_c, 1, 44, 81
3, 220760, Note_on_c, 1, 51, 80
3, 220828, Note_on_c, 1, 44, 0
3, 221144, Note_on_c, 1, 51, 0
3, 221144, Note_on_c, 1, 38, 72
3, 221432, Note_on_c, 1, 38, 0
3, 221436, Note_on_c, 1, 26, 69
3, 221452, Note_on_c, 1, 26, 0
3, 221528, Note_on_c, 1, 43, 72
3, 221816, Note_on_c, 1, 43, 0
3, 221820, Note_on_c, 1, 31, 69
3, 221836, Note_on_c, 1, 31, 0
3, 221912, Note_on_c, 1, 36, 72
3, 222200, Note_on_c, 1, 36, 0
3, 222204, Note_on_c, 1, 24, 69
3, 222228, Note_on_c, 1, 24, 0
3, 222296, Note_on_c, 1, 41, 70
3, 222672, Note_on_c, 1, 41, 0
3, 222680, Note_on_c, 1, 34, 81
3, 223064, Note_on_c, 1, 41, 80
3, 223132, Note_on_c, 1, 34, 0
3, 223440, Note_on_c, 1, 41, 0
3, 223444, Note_on_c, 1, 34, 82
3, 223660, Note_on_c, 1, 34, 0
3, 223736, Note_on_c, 1, 34, 94
3, 223828, Note_on_c, 1, 34, 0
3, 223832, Note_on_c, 1, 38, 75
3, 224216, Note_on_c, 1, 38, 0
3, 224216, Note_on_c, 1, 39, 81
3, 224600, Note_on_c, 1, 46, 80
3, 224668, Note_on_c, 1, 39, 0
3, 224984, Note_on_c, 1, 46, 0
3, 224984, Note_on_c, 1, 36, 86
3, 225348, Note_on_c, 1, 36, 0
3, 225368, Note_on_c, 1, 40, 80
3, 225752, Note_on_c, 1, 40, 0
3, 225752, Note_on_c, 1, 41, 82
3, 225972, Note_on_c, 1, 41, 0
3, 226032, Note_on_c, 1, 41, 94
3, 226132, Note_on_c, 1, 41, 0
3, 226136, Note_on_c, 1, 33, 75
3, 226520, Note_on_c, 1, 33, 0
3, 226520, Note_on_c, 1, 34, 87
3, 226812, Note_on_c, 1, 22, 64
3, 226868, Note_on_c, 1, 34, 0
3, 226904, Note_on_c, 1, 22, 0
3, 226908, Note_on_c, 1, 44, 87
3, 227284, Note_on_c, 1, 44, 0
3, 227288, Note_on_c, 1, 43, 98
3, 227576, Note_on_c, 1, 31, 91
3, 227580, Note_on_c, 1, 43, 0
3, 227668, Note_on_c, 1, 31, 0
3, 227672, Note_on_c, 1, 43, 100
3, 228052, Note_on_c, 1, 43, 0
3, 228056, Note_on_c, 1, 36, 86
3, 228424, Note_on_c, 1, 36, 0
3, 228436, Note_on_c, 1, 40, 80
3, 228824, Note_on_c, 1, 40, 0
3, 228824, Note_on_c, 1, 41, 86
3, 229196, Note_on_c, 1, 41, 0
3, 229208, Note_on_c, 1, 33, 80
3, 229592, Note_on_c, 1, 33, 0
3, 229592, Note_on_c, 1, 34, 87
3, 229876, Note_on_c, 1, 22, 64
3, 229936, Note_on_c, 1, 34, 0
3, 229976, Note_on_c, 1, 22, 0
3, 229984, Note_on_c, 1, 35, 87
3, 230360, Note_on_c, 1, 35, 0
3, 230360, Note_on_c, 1, 34, 87
3, 230560, Note_on_c, 1, 34, 0
3, 230640, Note_on_c, 1, 34, 80
3, 230744, Note_on_c, 1, 41, 73
3, 230748, Note_on_c, 1, 34, 0
3, 231128, Note_on_c, 1, 41, 0
3, 231128, Note_on_c, 1, 39, 98
3, 231416, Note_on_c, 1, 27, 91
3, 231420, Note_on_c, 1, 39, 0
3, 231512, Note_on_c, 1, 27, 0
3, 231512, Note_on_c, 1, 39, 100
3, 231892, Note_on_c, 1, 39, 0
3, 231896, Note_on_c, 1, 44, 81
3, 232280, Note_on_c, 1, 51, 80
3, 232352, Note_on_c, 1, 44, 0
3, 232660, Note_on_c, 1, 51, 0
3, 232664, Note_on_c, 1, 37, 91
3, 233044, Note_on_c, 1, 41, 88
3, 233092, Note_on_c, 1, 37, 0
3, 233400, Note_on_c, 1, 41, 0
3, 233432, Note_on_c, 1, 43, 72
3, 233720, Note_on_c, 1, 43, 0
3, 233724, Note_on_c, 1, 31, 69
3, 233748, Note_on_c, 1, 31, 0
3, 233816, Note_on_c, 1, 36, 72
3, 234104, Note_on_c, 1, 36, 0
3, 234108, Note_on_c, 1, 24, 69
3, 234132, Note_on_c, 1, 24, 0
3, 234200, Note_on_c, 1, 41, 70
3, 234584, Note_on_c, 1, 41, 0
3, 234584, Note_on_c, 1, 34, 72
3, 234868, Note_on_c, 1, 34, 0
3, 234876, Note_on_c, 1, 22, 69
3, 234900, Note_on_c, 1, 22, 0
3, 234968, Note_on_c, 1, 39, 82
3, 235188, Note_on_c, 1, 39, 0
3, 235252, Note_on_c, 1, 39, 94
3, 235348, Note_on_c, 1, 39, 0
3, 235352, Note_on_c, 1, 40, 75
3, 235736, Note_on_c, 1, 40, 0
3, 235736, Note_on_c, 1, 41, 81
3, 236120, Note_on_c, 1, 48, 80
3, 236192, Note_on_c, 1, 41, 0
3, 236504, Note_on_c, 1, 48, 0
3, 236504, Note_on_c, 1, 34, 82
3, 236716, Note_on_c, 1, 34, 0
3, 236796, Note_on_c, 1, 34, 94
3, 236884, Note_on_c, 1, 34, 0
3, 236888, Note_on_c, 1, 42, 75
3, 237268, Note_on_c, 1, 42, 0
3, 237272, Note_on_c, 1, 43, 98
3, 237560, Note_on_c, 1, 31, 91
3, 237564, Note_on_c, 1, 43, 0
3, 237652, Note_on_c, 1, 31, 0
3, 237656, Note_on_c, 1, 43, 100
3, 238032, Note_on_c, 1, 43, 0
3, 238036, Note_on_c, 1, 36, 98
3, 238328, Note_on_c, 1, 24, 91
3, 238332, Note_on_c, 1, 36, 0
3, 238424, Note_on_c, 1, 24, 0
3, 238424, Note_on_c, 1, 36, 100
3, 238808, Note_on_c, 1, 36, 0
3, 238808, Note_on_c, 1, 41, 81
3, 239192, Note_on_c, 1, 48, 80
3, 239260, Note_on_c, 1, 41, 0
3, 239576, Note_on_c, 1, 48, 0
3, 239576, Note_on_c, 1, 38, 87
3, 239776, Note_on_c, 1, 38, 0
3, 239856, Note_on_c, 1, 38, 80
3, 239960, Note_on_c, 1, 45, 73
3, 239964, Note_on_c, 1, 38, 0
3, 240344, Note_on_c, 1, 45, 0
3, 240344, Note_on_c, 1, 43, 98
3, 240632, Note_on_c, 1, 31, 91
3, 240636, Note_on_c, 1, 43, 0
3, 240728, Note_on_c, 1, 31, 0
3, 240728, Note_on_c, 1, 43, 100
3, 241108, Note_on_c, 1, 43, 0
3, 241112, Note_on_c, 1, 36, 98
3, 241400, Note_on_c, 1, 24, 91
3, 241404, Note_on_c, 1, 36, 0
3, 241492, Note_on_c, 1, 24, 0
3, 241496, Note_on_c, 1, 36, 100
3, 241876, Note_on_c, 1, 36, 0
3, 241880, Note_on_c, 1, 41, 87
3, 242080, Note_on_c, 1, 41, 0
3, 242172, Note_on_c, 1, 41, 80
3, 242264, Note_on_c, 1, 48, 73
3, 242268, Note_on_c, 1, 41, 0
3, 242640, Note_on_c, 1, 48, 0
3, 242644, Note_on_c, 1, 41, 86
3, 243020, Note_on_c, 1, 41, 0
3, 243032, Note_on_c, 1, 33, 80
3, 243416, Note_on_c, 1, 33, 0
3, 243416, Note_on_c, 1, 34, 86
3, 243708, Note_on_c, 1, 29, 62
3, 243764, Note_on_c, 1, 29, 0
3, 243788, Note_on_c, 1, 34, 0
3, 243800, Note_on_c, 1, 41, 79
3, 244084, Note_on_c, 1, 41, 0
3, 244084, Note_on_c, 1, 29, 64
3, 244140, Note_on_c, 1, 29, 0
3, 244184, Note_on_c, 1, 39, 86
3, 244468, Note_on_c, 1, 34, 62
3, 244532, Note_on_c, 1, 34, 0
3, 244556, Note_on_c, 1, 39, 0
3, 244568, Note_on_c, 1, 46, 79
3, 244852, Note_on_c, 1, 46, 0
3, 244852, Note_on_c, 1, 34, 64
3, 244908, Note_on_c, 1, 34, 0
3, 244952, Note_on_c, 1, 44, 86
3, 245232, Note_on_c, 1, 39, 62
3, 245300, Note_on_c, 1, 39, 0
3, 245324, Note_on_c, 1, 44, 0
3, 245336, Note_on_c, 1, 51, 79
3, 245624, Note_on_c, 1, 51, 0
3, 245624, Note_on_c, 1, 39, 64
3, 245676, Note_on_c, 1, 39, 0
3, 245720, Note_on_c, 1, 38, 70
3, 246104, Note_on_c, 1, 38, 0
3, 246104, Note_on_c, 1, 43, 70
3, 246484, Note_on_c, 1, 43, 0
3, 246488, Note_on_c, 1, 36, 70
3, 246868, Note_on_c, 1, 36, 0
3, 246872, Note_on_c, 1, 41, 70
3, 247252, Note_on_c, 1, 41, 0
3, 247256, Note_on_c, 1, 34, 78
3, 247400, Program_c, 1, 32
3, 247400, Control_c, 1, 123, 0
3, 247400, Control_c, 1, 64, 0
3, 250328, Note_on_c, 1, 34, 0
3, 252472, System_exclusive, 9, 67, 16, 76, 3, 1, 0, 64, 0, 247
3, 252472, System_exclusive, 9, 67, 16, 76, 3, 2, 0, 64, 0, 247
3, 252472, System_exclusive, 8, 67, 16, 76, 3, 2, 12, 127, 247
3, 252472, End_track
4, 0, Start_track
4, 0, Title_t, "Track 3"
4, 388, Program_c, 2, 24
4, 389, Control_c, 2, 7, 59
4, 768, Program_c, 2, 24
4, 768, Control_c, 2, 64, 0
4, 3036, Note_on_c, 2, 50, 55
4, 3036, Note_on_c, 2, 55, 64
4, 3148, Note_on_c, 2, 55, 0
4, 3228, Note_on_c, 2, 50, 0
4, 3420, Control_c, 2, 64, 127
4, 3420, Note_on_c, 2, 55, 49
4, 3420, Note_on_c, 2, 50, 41
4, 3476, Note_on_c, 2, 50, 0
4, 3508, Note_on_c, 2, 55, 0
4, 3508, Control_c, 2, 64, 0
4, 3800, Note_on_c, 2, 53, 55
4, 3804, Note_on_c, 2, 58, 64
4, 3916, Note_on_c, 2, 58, 0
4, 3996, Note_on_c, 2, 53, 0
4, 4188, Control_c, 2, 64, 127
4, 4188, Note_on_c, 2, 58, 49
4, 4188, Note_on_c, 2, 53, 41
4, 4240, Note_on_c, 2, 53, 0
4, 4276, Note_on_c, 2, 58, 0
4, 4276, Control_c, 2, 64, 0
4, 4568, Note_on_c, 2, 51, 55
4, 4572, Note_on_c, 2, 58, 64
4, 4684, Note_on_c, 2, 58, 0
4, 4764, Note_on_c, 2, 51, 0
4, 4956, Control_c, 2, 64, 127
4, 4956, Note_on_c, 2, 58, 49
4, 4956, Note_on_c, 2, 51, 41
4, 5016, Note_on_c, 2, 51, 0
4, 5036, Note_on_c, 2, 58, 0
4, 5040, Control_c, 2, 64, 0
4, 5336, Note_on_c, 2, 51, 55
4, 5340, Note_on_c, 2, 57, 64
4, 5452, Note_on_c, 2, 57, 0
4, 5532, Note_on_c, 2, 51, 0
4, 5724, Control_c, 2, 64, 127
4, 5724, Note_on_c, 2, 57, 49
4, 5724, Note_on_c, 2, 51, 41
4, 5784, Note_on_c, 2, 51, 0
4, 5812, Note_on_c, 2, 57, 0
4, 5820, Control_c, 2, 64, 0
4, 6108, Note_on_c, 2, 53, 55
4, 6108, Note_on_c, 2, 60, 64
4, 6220, Note_on_c, 2, 60, 0
4, 6300, Note_on_c, 2, 53, 0
4, 6492, Control_c, 2, 64, 127
4, 6492, Note_on_c, 2, 60, 49
4, 6492, Note_on_c, 2, 53, 41
4, 6552, Note_on_c, 2, 53, 0
4, 6580, Note_on_c, 2, 60, 0
4, 6580, Control_c, 2, 64, 0
4, 6872, Note_on_c, 2, 53, 55
4, 6876, Note_on_c, 2, 59, 64
4, 6988, Note_on_c, 2, 59, 0
4, 7068, Note_on_c, 2, 53, 0
4, 7260, Control_c, 2, 64, 127
4, 7260, Note_on_c, 2, 59, 49
4, 7260, Note_on_c, 2, 53, 41
4, 7320, Note_on_c, 2, 53, 0
4, 7348, Note_on_c, 2, 59, 0
4, 7352, Control_c, 2, 64, 0
4, 7640, Note_on_c, 2, 51, 55
4, 7644, Note_on_c, 2, 58, 64
4, 7756, Note_on_c, 2, 58, 0
4, 7836, Note_on_c, 2, 51, 0
4, 8028, Control_c, 2, 64, 127
4, 8028, Note_on_c, 2, 58, 49
4, 8028, Note_on_c, 2, 51, 41
4, 8084, Note_on_c, 2, 51, 0
4, 8116, Note_on_c, 2, 58, 0
4, 8116, Control_c, 2, 64, 0
4, 8412, Note_on_c, 2, 51, 55
4, 8412, Note_on_c, 2, 57, 64
4, 8524, Note_on_c, 2, 57, 0
4, 8604, Note_on_c, 2, 51, 0
4, 8796, Control_c, 2, 64, 127
4, 8796, Note_on_c, 2, 57, 49
4, 8796, Note_on_c, 2, 51, 41
4, 8848, Note_on_c, 2, 51, 0
4, 8884, Note_on_c, 2, 57, 0
4, 8884, Control_c, 2, 64, 0
4, 9180, Note_on_c, 2, 51, 55
4, 9180, Note_on_c, 2, 56, 64
4, 9292, Note_on_c, 2, 56, 0
4, 9372, Note_on_c, 2, 51, 0
4, 9564, Control_c, 2, 64, 127
4, 9564, Note_on_c, 2, 56, 49
4, 9564, Note_on_c, 2, 51, 41
4, 9624, Note_on_c, 2, 51, 0
4, 9644, Note_on_c, 2, 56, 0
4, 9652, Control_c, 2, 64, 0
4, 9948, Note_on_c, 2, 50, 55
4, 9948, Note_on_c, 2, 56, 64
4, 10060, Note_on_c, 2, 56, 0
4, 10140, Note_on_c, 2, 50, 0
4, 10332, Control_c, 2, 64, 127
4, 10332, Note_on_c, 2, 56, 49
4, 10332, Note_on_c, 2, 50, 41
4, 10392, Note_on_c, 2, 50, 0
4, 10420, Note_on_c, 2, 56, 0
4, 10424, Control_c, 2, 64, 0
4, 10716, Note_on_c, 2, 48, 55
4, 10716, Note_on_c, 2, 55, 64
4, 10828, Note_on_c, 2, 55, 0
4, 10908, Note_on_c, 2, 48, 0
4, 11100, Control_c, 2, 64, 127
4, 11100, Note_on_c, 2, 55, 49
4, 11100, Note_on_c, 2, 48, 41
4, 11160, Note_on_c, 2, 48, 0
4, 11188, Note_on_c, 2, 55, 0
4, 11196, Control_c, 2, 64, 0
4, 11480, Note_on_c, 2, 54, 55
4, 11484, Note_on_c, 2, 60, 64
4, 11596, Note_on_c, 2, 60, 0
4, 11676, Note_on_c, 2, 54, 0
4, 11868, Control_c, 2, 64, 127
4, 11868, Note_on_c, 2, 60, 49
4, 11868, Note_on_c, 2, 54, 41
4, 11928, Note_on_c, 2, 54, 0
4, 11956, Note_on_c, 2, 60, 0
4, 11956, Control_c, 2, 64, 0
4, 12248, Note_on_c, 2, 53, 55
4, 12252, Note_on_c, 2, 60, 64
4, 12364, Note_on_c, 2, 60, 0
4, 12444, Note_on_c, 2, 53, 0
4, 12636, Control_c, 2, 64, 0
4, 12636, Control_c, 2, 64, 0
4, 12636, Note_on_c, 2, 53, 55
4, 12636, Note_on_c, 2, 59, 64
4, 12748, Note_on_c, 2, 59, 0
4, 12828, Note_on_c, 2, 53, 0
4, 13020, Control_c, 2, 64, 0
4, 13020, Control_c, 2, 64, 0
4, 13020, Note_on_c, 2, 51, 55
4, 13020, Note_on_c, 2, 58, 64
4, 13132, Note_on_c, 2, 58, 0
4, 13212, Note_on_c, 2, 51, 0
4, 13404, Control_c, 2, 64, 0
4, 13404, Control_c, 2, 64, 0
4, 13404, Note_on_c, 2, 51, 55
4, 13404, Note_on_c, 2, 57, 64
4, 13516, Note_on_c, 2, 57, 0
4, 13596, Note_on_c, 2, 51, 0
4, 13788, Control_c, 2, 64, 0
4, 13788, Control_c, 2, 64, 0
4, 13788, Note_on_c, 2, 50, 55
4, 13788, Note_on_c, 2, 55, 64
4, 13900, Note_on_c, 2, 55, 0
4, 13980, Note_on_c, 2, 50, 0
4, 14172, Control_c, 2, 64, 127
4, 14172, Note_on_c, 2, 55, 49
4, 14172, Note_on_c, 2, 50, 41
4, 14232, Note_on_c, 2, 50, 0
4, 14252, Note_on_c, 2, 55, 0
4, 14260, Control_c, 2, 64, 0
4, 14552, Note_on_c, 2, 51, 55
4, 14556, Note_on_c, 2, 57, 64
4, 14668, Note_on_c, 2, 57, 0
4, 14748, Note_on_c, 2, 51, 0
4, 14940, Control_c, 2, 64, 127
4, 14940, Note_on_c, 2, 57, 49
4, 14940, Note_on_c, 2, 51, 41
4, 15000, Note_on_c, 2, 51, 0
4, 15028, Note_on_c, 2, 57, 0
4, 15032, Control_c, 2, 64, 0
4, 15320, Note_on_c, 2, 50, 55
4, 15324, Note_on_c, 2, 55, 64
4, 15436, Note_on_c, 2, 55, 0
4, 15516, Note_on_c, 2, 50, 0
4, 15704, Control_c, 2, 64, 127
4, 15708, Note_on_c, 2, 55, 49
4, 15708, Note_on_c, 2, 50, 41
4, 15768, Note_on_c, 2, 50, 0
4, 15796, Note_on_c, 2, 55, 0
4, 15804, Control_c, 2, 64, 0
4, 16088, Note_on_c, 2, 53, 55
4, 16092, Note_on_c, 2, 58, 64
4, 16204, Note_on_c, 2, 58, 0
4, 16284, Note_on_c, 2, 53, 0
4, 16476, Control_c, 2, 64, 127
4, 16476, Note_on_c, 2, 58, 49
4, 16476, Note_on_c, 2, 53, 41
4, 16536, Note_on_c, 2, 53, 0
4, 16564, Note_on_c, 2, 58, 0
4, 16568, Control_c, 2, 64, 0
4, 16856, Note_on_c, 2, 51, 55
4, 16860, Note_on_c, 2, 58, 64
4, 16972, Note_on_c, 2, 58, 0
4, 17052, Note_on_c, 2, 51, 0
4, 17240, Control_c, 2, 64, 127
4, 17244, Note_on_c, 2, 58, 49
4, 17244, Note_on_c, 2, 51, 41
4, 17304, Note_on_c, 2, 51, 0
4, 17332, Note_on_c, 2, 58, 0
4, 17332, Control_c, 2, 64, 0
4, 17624, Note_on_c, 2, 51, 55
4, 17628, Note_on_c, 2, 57, 64
4, 17740, Note_on_c, 2, 57, 0
4, 17820, Note_on_c, 2, 51, 0
4, 18012, Control_c, 2, 64, 127
4, 18012, Note_on_c, 2, 57, 49
4, 18012, Note_on_c, 2, 51, 41
4, 18068, Note_on_c, 2, 51, 0
4, 18100, Note_on_c, 2, 57, 0
4, 18100, Control_c, 2, 64, 0
4, 18396, Note_on_c, 2, 53, 55
4, 18396, Note_on_c, 2, 60, 64
4, 18508, Note_on_c, 2, 60, 0
4, 18588, Note_on_c, 2, 53, 0
4, 18780, Control_c, 2, 64, 127
4, 18780, Note_on_c, 2, 60, 49
4, 18780, Note_on_c, 2, 53, 41
4, 18832, Note_on_c, 2, 53, 0
4, 18868, Note_on_c, 2, 60, 0
4, 18868, Control_c, 2, 64, 0
4, 19160, Note_on_c, 2, 53, 55
4, 19164, Note_on_c, 2, 59, 64
4, 19276, Note_on_c, 2, 59, 0
4, 19356, Note_on_c, 2, 53, 0
4, 19548, Control_c, 2, 64, 127
4, 19548, Note_on_c, 2, 59, 49
4, 19548, Note_on_c, 2, 53, 41
4, 19608, Note_on_c, 2, 53, 0
4, 19628, Note_on_c, 2, 59, 0
4, 19632, Control_c, 2, 64, 0
4, 19932, Note_on_c, 2, 51, 55
4, 19932, Note_on_c, 2, 58, 64
4, 20044, Note_on_c, 2, 58, 0
4, 20124, Note_on_c, 2, 51, 0
4, 20316, Control_c, 2, 64, 127
4, 20316, Note_on_c, 2, 58, 49
4, 20316, Note_on_c, 2, 51, 41
4, 20376, Note_on_c, 2, 51, 0
4, 20404, Note_on_c, 2, 58, 0
4, 20412, Control_c, 2, 64, 0
4, 20696, Note_on_c, 2, 51, 55
4, 20700, Note_on_c, 2, 57, 64
4, 20812, Note_on_c, 2, 57, 0
4, 20892, Note_on_c, 2, 51, 0
4, 21084, Control_c, 2, 64, 127
4, 21084, Note_on_c, 2, 57, 49
4, 21084, Note_on_c, 2, 51, 41
4, 21144, Note_on_c, 2, 51, 0
4, 21172, Note_on_c, 2, 57, 0
4, 21176, Control_c, 2, 64, 0
4, 21464, Note_on_c, 2, 51, 55
4, 21468, Note_on_c, 2, 56, 64
4, 21580, Note_on_c, 2, 56, 0
4, 21660, Note_on_c, 2, 51, 0
4, 21848, Control_c, 2, 64, 127
4, 21852, Note_on_c, 2, 56, 49
4, 21852, Note_on_c, 2, 51, 41
4, 21912, Note_on_c, 2, 51, 0
4, 21940, Note_on_c, 2, 56, 0
4, 21940, Control_c, 2, 64, 0
4, 22232, Note_on_c, 2, 50, 55
4, 22236, Note_on_c, 2, 56, 64
4, 22348, Note_on_c, 2, 56, 0
4, 22428, Note_on_c, 2, 50, 0
4, 22620, Control_c, 2, 64, 127
4, 22620, Note_on_c, 2, 56, 49
4, 22620, Note_on_c, 2, 50, 41
4, 22676, Note_on_c, 2, 50, 0
4, 22708, Note_on_c, 2, 56, 0
4, 22708, Control_c, 2, 64, 0
4, 23000, Note_on_c, 2, 48, 55
4, 23004, Note_on_c, 2, 55, 64
4, 23116, Note_on_c, 2, 55, 0
4, 23196, Note_on_c, 2, 48, 0
4, 23388, Control_c, 2, 64, 127
4, 23388, Note_on_c, 2, 55, 49
4, 23388, Note_on_c, 2, 48, 41
4, 23440, Note_on_c, 2, 48, 0
4, 23476, Note_on_c, 2, 55, 0
4, 23476, Control_c, 2, 64, 0
4, 23772, Note_on_c, 2, 54, 55
4, 23772, Note_on_c, 2, 60, 64
4, 23884, Note_on_c, 2, 60, 0
4, 23964, Note_on_c, 2, 54, 0
4, 24156, Control_c, 2, 64, 127
4, 24156, Note_on_c, 2, 60, 49
4, 24156, Note_on_c, 2, 54, 41
4, 24216, Note_on_c, 2, 54, 0
4, 24236, Note_on_c, 2, 60, 0
4, 24240, Control_c, 2, 64, 0
4, 24540, Note_on_c, 2, 53, 55
4, 24540, Note_on_c, 2, 60, 64
4, 24652, Note_on_c, 2, 60, 0
4, 24732, Note_on_c, 2, 53, 0
4, 24924, Control_c, 2, 64, 0
4, 24924, Control_c, 2, 64, 0
4, 24924, Note_on_c, 2, 53, 55
4, 24924, Note_on_c, 2, 59, 64
4, 25036, Note_on_c, 2, 59, 0
4, 25116, Note_on_c, 2, 53, 0
4, 25308, Control_c, 2, 64, 0
4, 25308, Control_c, 2, 64, 0
4, 25308, Note_on_c, 2, 51, 55
4, 25308, Note_on_c, 2, 58, 64
4, 25420, Note_on_c, 2, 58, 0
4, 25500, Note_on_c, 2, 51, 0
4, 25692, Control_c, 2, 64, 0
4, 25692, Control_c, 2, 64, 0
4, 25692, Note_on_c, 2, 51, 55
4, 25692, Note_on_c, 2, 57, 64
4, 25804, Note_on_c, 2, 57, 0
4, 25884, Note_on_c, 2, 51, 0
4, 26076, Control_c, 2, 64, 0
4, 26076, Control_c, 2, 64, 0
4, 26076, Note_on_c, 2, 50, 55
4, 26076, Note_on_c, 2, 55, 64
4, 26188, Note_on_c, 2, 55, 0
4, 26268, Note_on_c, 2, 50, 0
4, 26460, Control_c, 2, 64, 127
4, 26460, Note_on_c, 2, 55, 49
4, 26460, Note_on_c, 2, 50, 41
4, 26520, Note_on_c, 2, 50, 0
4, 26548, Note_on_c, 2, 55, 0
4, 26548, Control_c, 2, 64, 0
4, 26840, Note_on_c, 2, 50, 55
4, 26844, Note_on_c, 2, 56, 64
4, 26956, Note_on_c, 2, 56, 0
4, 27036, Note_on_c, 2, 50, 0
4, 27228, Control_c, 2, 64, 127
4, 27228, Note_on_c, 2, 56, 49
4, 27228, Note_on_c, 2, 50, 41
4, 27284, Note_on_c, 2, 50, 0
4, 27316, Note_on_c, 2, 56, 0
4, 27316, Control_c, 2, 64, 0
4, 27608, Note_on_c, 2, 48, 55
4, 27612, Note_on_c, 2, 55, 64
4, 27724, Note_on_c, 2, 55, 0
4, 27804, Note_on_c, 2, 48, 0
4, 27996, Control_c, 2, 64, 127
4, 27996, Note_on_c, 2, 55, 49
4, 27996, Note_on_c, 2, 48, 41
4, 28052, Note_on_c, 2, 48, 0
4, 28084, Note_on_c, 2, 55, 0
4, 28084, Control_c, 2, 64, 0
4, 28380, Note_on_c, 2, 52, 55
4, 28380, Note_on_c, 2, 58, 64
4, 28492, Note_on_c, 2, 58, 0
4, 28572, Note_on_c, 2, 52, 0
4, 28764, Control_c, 2, 64, 127
4, 28764, Note_on_c, 2, 58, 49
4, 28764, Note_on_c, 2, 52, 41
4, 28824, Note_on_c, 2, 52, 0
4, 28844, Note_on_c, 2, 58, 0
4, 28852, Control_c, 2, 64, 0
4, 29148, Note_on_c, 2, 51, 55
4, 29148, Note_on_c, 2, 56, 64
4, 29260, Note_on_c, 2, 56, 0
4, 29340, Note_on_c, 2, 51, 0
4, 29532, Control_c, 2, 64, 127
4, 29532, Note_on_c, 2, 56, 49
4, 29532, Note_on_c, 2, 51, 41
4, 29592, Note_on_c, 2, 51, 0
4, 29620, Note_on_c, 2, 56, 0
4, 29624, Control_c, 2, 64, 0
4, 29916, Note_on_c, 2, 50, 55
4, 29916, Note_on_c, 2, 56, 64
4, 30028, Note_on_c, 2, 56, 0
4, 30108, Note_on_c, 2, 50, 0
4, 30300, Control_c, 2, 64, 127
4, 30300, Note_on_c, 2, 56, 49
4, 30300, Note_on_c, 2, 50, 41
4, 30360, Note_on_c, 2, 50, 0
4, 30388, Note_on_c, 2, 56, 0
4, 30396, Control_c, 2, 64, 0
4, 30680, Note_on_c, 2, 53, 55
4, 30684, Note_on_c, 2, 58, 64
4, 30796, Note_on_c, 2, 58, 0
4, 30876, Note_on_c, 2, 53, 0
4, 31068, Control_c, 2, 64, 127
4, 31068, Note_on_c, 2, 58, 49
4, 31068, Note_on_c, 2, 53, 41
4, 31128, Note_on_c, 2, 53, 0
4, 31156, Note_on_c, 2, 58, 0
4, 31156, Control_c, 2, 64, 0
4, 31448, Note_on_c, 2, 52, 55
4, 31452, Note_on_c, 2, 58, 64
4, 31564, Note_on_c, 2, 58, 0
4, 31644, Note_on_c, 2, 52, 0
4, 31836, Control_c, 2, 64, 127
4, 31836, Note_on_c, 2, 58, 49
4, 31836, Note_on_c, 2, 52, 41
4, 31892, Note_on_c, 2, 52, 0
4, 31924, Note_on_c, 2, 58, 0
4, 31924, Control_c, 2, 64, 0
4, 32220, Note_on_c, 2, 51, 55
4, 32220, Note_on_c, 2, 56, 64
4, 32332, Note_on_c, 2, 56, 0
4, 32412, Note_on_c, 2, 51, 0
4, 32604, Control_c, 2, 64, 127
4, 32604, Note_on_c, 2, 56, 49
4, 32604, Note_on_c, 2, 51, 41
4, 32656, Note_on_c, 2, 51, 0
4, 32692, Note_on_c, 2, 56, 0
4, 32692, Control_c, 2, 64, 0
4, 32988, Note_on_c, 2, 50, 55
4, 32988, Note_on_c, 2, 56, 64
4, 33100, Note_on_c, 2, 56, 0
4, 33180, Note_on_c, 2, 50, 0
4, 33372, Control_c, 2, 64, 127
4, 33372, Note_on_c, 2, 56, 49
4, 33372, Note_on_c, 2, 50, 41
4, 33432, Note_on_c, 2, 50, 0
4, 33452, Note_on_c, 2, 56, 0
4, 33460, Control_c, 2, 64, 0
4, 33756, Note_on_c, 2, 49, 55
4, 33756, Note_on_c, 2, 56, 64
4, 33868, Note_on_c, 2, 56, 0
4, 33948, Note_on_c, 2, 49, 0
4, 34140, Control_c, 2, 64, 127
4, 34140, Note_on_c, 2, 56, 49
4, 34140, Note_on_c, 2, 49, 41
4, 34200, Note_on_c, 2, 49, 0
4, 34228, Note_on_c, 2, 56, 0
4, 34232, Control_c, 2, 64, 0
4, 34524, Note_on_c, 2, 49, 55
4, 34524, Note_on_c, 2, 55, 64
4, 34636, Note_on_c, 2, 55, 0
4, 34716, Note_on_c, 2, 49, 0
4, 34908, Control_c, 2, 64, 127
4, 34908, Note_on_c, 2, 55, 49
4, 34908, Note_on_c, 2, 49, 41
4, 34968, Note_on_c, 2, 49, 0
4, 34996, Note_on_c, 2, 55, 0
4, 35004, Control_c, 2, 64, 0
4, 35288, Note_on_c, 2, 55, 55
4, 35292, Note_on_c, 2, 60, 64
4, 35404, Note_on_c, 2, 60, 0
4, 35484, Note_on_c, 2, 55, 0
4, 35676, Control_c, 2, 64, 127
4, 35676, Note_on_c, 2, 60, 49
4, 35676, Note_on_c, 2, 55, 41
4, 35736, Note_on_c, 2, 55, 0
4, 35764, Note_on_c, 2, 60, 0
4, 35764, Control_c, 2, 64, 0
4, 36056, Note_on_c, 2, 53, 55
4, 36060, Note_on_c, 2, 59, 64
4, 36172, Note_on_c, 2, 59, 0
4, 36252, Note_on_c, 2, 53, 0
4, 36444, Control_c, 2, 64, 127
4, 36444, Note_on_c, 2, 59, 49
4, 36444, Note_on_c, 2, 53, 41
4, 36504, Note_on_c, 2, 53, 0
4, 36532, Note_on_c, 2, 59, 0
4, 36532, Control_c, 2, 64, 0
4, 36828, Note_on_c, 2, 53, 55
4, 36828, Note_on_c, 2, 58, 64
4, 36940, Note_on_c, 2, 58, 0
4, 37020, Note_on_c, 2, 53, 0
4, 37212, Control_c, 2, 64, 0
4, 37212, Control_c, 2, 64, 0
4, 37212, Note_on_c, 2, 52, 55
4, 37212, Note_on_c, 2, 58, 64
4, 37324, Note_on_c, 2, 58, 0
4, 37404, Note_on_c, 2, 52, 0
4, 37592, Control_c, 2, 64, 0
4, 37596, Control_c, 2, 64, 0
4, 37596, Note_on_c, 2, 51, 55
4, 37596, Note_on_c, 2, 56, 64
4, 37708, Note_on_c, 2, 56, 0
4, 37788, Note_on_c, 2, 51, 0
4, 37980, Control_c, 2, 64, 0
4, 37980, Control_c, 2, 64, 0
4, 37980, Note_on_c, 2, 50, 55
4, 37980, Note_on_c, 2, 56, 64
4, 38092, Note_on_c, 2, 56, 0
4, 38172, Note_on_c, 2, 50, 0
4, 38360, Control_c, 2, 64, 0
4, 38360, Control_c, 2, 64, 0
4, 38364, Note_on_c, 2, 48, 55
4, 38364, Note_on_c, 2, 55, 64
4, 38476, Note_on_c, 2, 55, 0
4, 38556, Note_on_c, 2, 48, 0
4, 38748, Control_c, 2, 64, 127
4, 38748, Note_on_c, 2, 55, 49
4, 38748, Note_on_c, 2, 48, 41
4, 38808, Note_on_c, 2, 48, 0
4, 38828, Note_on_c, 2, 55, 0
4, 38832, Control_c, 2, 64, 0
4, 39132, Note_on_c, 2, 51, 55
4, 39132, Note_on_c, 2, 57, 64
4, 39244, Note_on_c, 2, 57, 0
4, 39324, Note_on_c, 2, 51, 0
4, 39516, Control_c, 2, 64, 127
4, 39516, Note_on_c, 2, 57, 49
4, 39516, Note_on_c, 2, 51, 41
4, 39576, Note_on_c, 2, 51, 0
4, 39608, Note_on_c, 2, 57, 0
4, 39612, Control_c, 2, 64, 0
4, 39896, Note_on_c, 2, 50, 55
4, 39900, Note_on_c, 2, 55, 64
4, 40012, Note_on_c, 2, 55, 0
4, 40092, Note_on_c, 2, 50, 0
4, 40284, Control_c, 2, 64, 127
4, 40284, Note_on_c, 2, 55, 49
4, 40284, Note_on_c, 2, 50, 41
4, 40344, Note_on_c, 2, 50, 0
4, 40372, Note_on_c, 2, 55, 0
4, 40372, Control_c, 2, 64, 0
4, 40664, Note_on_c, 2, 53, 55
4, 40668, Note_on_c, 2, 58, 64
4, 40780, Note_on_c, 2, 58, 0
4, 40860, Note_on_c, 2, 53, 0
4, 41052, Control_c, 2, 64, 127
4, 41052, Note_on_c, 2, 58, 49
4, 41052, Note_on_c, 2, 53, 41
4, 41112, Note_on_c, 2, 53, 0
4, 41140, Note_on_c, 2, 58, 0
4, 41144, Control_c, 2, 64, 0
4, 41432, Note_on_c, 2, 51, 55
4, 41436, Note_on_c, 2, 58, 64
4, 41548, Note_on_c, 2, 58, 0
4, 41628, Note_on_c, 2, 51, 0
4, 41820, Control_c, 2, 64, 127
4, 41820, Note_on_c, 2, 58, 49
4, 41820, Note_on_c, 2, 51, 41
4, 41876, Note_on_c, 2, 51, 0
4, 41908, Note_on_c, 2, 58, 0
4, 41908, Control_c, 2, 64, 0
4, 42200, Note_on_c, 2, 51, 55
4, 42204, Note_on_c, 2, 57, 64
4, 42316, Note_on_c, 2, 57, 0
4, 42396, Note_on_c, 2, 51, 0
4, 42588, Control_c, 2, 64, 127
4, 42588, Note_on_c, 2, 57, 49
4, 42588, Note_on_c, 2, 51, 41
4, 42640, Note_on_c, 2, 51, 0
4, 42676, Note_on_c, 2, 57, 0
4, 42676, Control_c, 2, 64, 0
4, 42972, Note_on_c, 2, 53, 55
4, 42972, Note_on_c, 2, 60, 64
4, 43084, Note_on_c, 2, 60, 0
4, 43164, Note_on_c, 2, 53, 0
4, 43356, Control_c, 2, 64, 127
4, 43356, Note_on_c, 2, 60, 49
4, 43356, Note_on_c, 2, 53, 41
4, 43416, Note_on_c, 2, 53, 0
4, 43436, Note_on_c, 2, 60, 0
4, 43440, Control_c, 2, 64, 0
4, 43736, Note_on_c, 2, 53, 55
4, 43740, Note_on_c, 2, 59, 64
4, 43852, Note_on_c, 2, 59, 0
4, 43932, Note_on_c, 2, 53, 0
4, 44124, Control_c, 2, 64, 127
4, 44124, Note_on_c, 2, 59, 49
4, 44124, Note_on_c, 2, 53, 41
4, 44184, Note_on_c, 2, 53, 0
4, 44212, Note_on_c, 2, 59, 0
4, 44220, Control_c, 2, 64, 0
4, 44508, Note_on_c, 2, 51, 55
4, 44508, Note_on_c, 2, 58, 64
4, 44620, Note_on_c, 2, 58, 0
4, 44700, Note_on_c, 2, 51, 0
4, 44892, Control_c, 2, 64, 127
4, 44892, Note_on_c, 2, 58, 49
4, 44892, Note_on_c, 2, 51, 41
4, 44952, Note_on_c, 2, 51, 0
4, 44980, Note_on_c, 2, 58, 0
4, 44980, Control_c, 2, 64, 0
4, 45272, Note_on_c, 2, 51, 55
4, 45276, Note_on_c, 2, 57, 64
4, 45388, Note_on_c, 2, 57, 0
4, 45468, Note_on_c, 2, 51, 0
4, 45660, Control_c, 2, 64, 127
4, 45660, Note_on_c, 2, 57, 49
4, 45660, Note_on_c, 2, 51, 41
4, 45720, Note_on_c, 2, 51, 0
4, 45748, Note_on_c, 2, 57, 0
4, 45752, Control_c, 2, 64, 0
4, 46040, Note_on_c, 2, 51, 55
4, 46044, Note_on_c, 2, 56, 64
4, 46156, Note_on_c, 2, 56, 0
4, 46236, Note_on_c, 2, 51, 0
4, 46428, Control_c, 2, 64, 127
4, 46428, Note_on_c, 2, 56, 49
4, 46428, Note_on_c, 2, 51, 41
4, 46484, Note_on_c, 2, 51, 0
4, 46516, Note_on_c, 2, 56, 0
4, 46516, Control_c, 2, 64, 0
4, 46812, Note_on_c, 2, 50, 55
4, 46812, Note_on_c, 2, 56, 64
4, 46924, Note_on_c, 2, 56, 0
4, 47004, Note_on_c, 2, 50, 0
4, 47196, Control_c, 2, 64, 127
4, 47196, Note_on_c, 2, 56, 49
4, 47196, Note_on_c, 2, 50, 41
4, 47252, Note_on_c, 2, 50, 0
4, 47284, Note_on_c, 2, 56, 0
4, 47284, Control_c, 2, 64, 0
4, 47576, Note_on_c, 2, 48, 55
4, 47580, Note_on_c, 2, 55, 64
4, 47692, Note_on_c, 2, 55, 0
4, 47772, Note_on_c, 2, 48, 0
4, 47964, Control_c, 2, 64, 127
4, 47964, Note_on_c, 2, 55, 49
4, 47964, Note_on_c, 2, 48, 41
4, 48024, Note_on_c, 2, 48, 0
4, 48044, Note_on_c, 2, 55, 0
4, 48052, Control_c, 2, 64, 0
4, 48344, Note_on_c, 2, 54, 55
4, 48348, Note_on_c, 2, 60, 64
4, 48460, Note_on_c, 2, 60, 0
4, 48540, Note_on_c, 2, 54, 0
4, 48732, Control_c, 2, 64, 127
4, 48732, Note_on_c, 2, 60, 49
4, 48732, Note_on_c, 2, 54, 41
4, 48792, Note_on_c, 2, 54, 0
4, 48820, Note_on_c, 2, 60, 0
4, 48824, Control_c, 2, 64, 0
4, 49116, Note_on_c, 2, 53, 55
4, 49116, Note_on_c, 2, 60, 64
4, 49228, Note_on_c, 2, 60, 0
4, 49308, Note_on_c, 2, 53, 0
4, 49500, Control_c, 2, 64, 0
4, 49500, Control_c, 2, 64, 0
4, 49500, Note_on_c, 2, 53, 55
4, 49500, Note_on_c, 2, 59, 64
4, 49612, Note_on_c, 2, 59, 0
4, 49692, Note_on_c, 2, 53, 0
4, 49884, Control_c, 2, 64, 0
4, 49884, Control_c, 2, 64, 0
4, 49884, Note_on_c, 2, 51, 55
4, 49884, Note_on_c, 2, 58, 64
4, 49996, Note_on_c, 2, 58, 0
4, 50076, Note_on_c, 2, 51, 0
4, 50268, Control_c, 2, 64, 0
4, 50268, Control_c, 2, 64, 0
4, 50268, Note_on_c, 2, 51, 55
4, 50268, Note_on_c, 2, 57, 64
4, 50380, Note_on_c, 2, 57, 0
4, 50460, Note_on_c, 2, 51, 0
4, 50648, Control_c, 2, 64, 0
4, 50648, Control_c, 2, 64, 0
4, 50652, Note_on_c, 2, 50, 55
4, 50652, Note_on_c, 2, 55, 64
4, 50764, Note_on_c, 2, 55, 0
4, 50844, Note_on_c, 2, 50, 0
4, 51036, Control_c, 2, 64, 127
4, 51036, Note_on_c, 2, 55, 49
4, 51036, Note_on_c, 2, 50, 41
4, 51092, Note_on_c, 2, 50, 0
4, 51124, Note_on_c, 2, 55, 0
4, 51124, Control_c, 2, 64, 0
4, 51420, Note_on_c, 2, 51, 55
4, 51420, Note_on_c, 2, 57, 64
4, 51532, Note_on_c, 2, 57, 0
4, 51612, Note_on_c, 2, 51, 0
4, 51804, Control_c, 2, 64, 127
4, 51804, Note_on_c, 2, 57, 49
4, 51804, Note_on_c, 2, 51, 41
4, 51860, Note_on_c, 2, 51, 0
4, 51892, Note_on_c, 2, 57, 0
4, 51892, Control_c, 2, 64, 0
4, 52188, Note_on_c, 2, 50, 55
4, 52188, Note_on_c, 2, 55, 64
4, 52300, Note_on_c, 2, 55, 0
4, 52380, Note_on_c, 2, 50, 0
4, 52568, Control_c, 2, 64, 127
4, 52572, Note_on_c, 2, 55, 49
4, 52572, Note_on_c, 2, 50, 41
4, 52632, Note_on_c, 2, 50, 0
4, 52652, Note_on_c, 2, 55, 0
4, 52660, Control_c, 2, 64, 0
4, 52952, Note_on_c, 2, 53, 55
4, 52956, Note_on_c, 2, 58, 64
4, 53068, Note_on_c, 2, 58, 0
4, 53148, Note_on_c, 2, 53, 0
4, 53340, Control_c, 2, 64, 127
4, 53340, Note_on_c, 2, 58, 49
4, 53340, Note_on_c, 2, 53, 41
4, 53400, Note_on_c, 2, 53, 0
4, 53428, Note_on_c, 2, 58, 0
4, 53432, Control_c, 2, 64, 0
4, 53724, Note_on_c, 2, 51, 55
4, 53724, Note_on_c, 2, 58, 64
4, 53836, Note_on_c, 2, 58, 0
4, 53916, Note_on_c, 2, 51, 0
4, 54108, Control_c, 2, 64, 127
4, 54108, Note_on_c, 2, 58, 49
4, 54108, Note_on_c, 2, 51, 41
4, 54168, Note_on_c, 2, 51, 0
4, 54196, Note_on_c, 2, 58, 0
4, 54204, Control_c, 2, 64, 0
4, 54488, Note_on_c, 2, 51, 55
4, 54492, Note_on_c, 2, 57, 64
4, 54604, Note_on_c, 2, 57, 0
4, 54684, Note_on_c, 2, 51, 0
4, 54876, Control_c, 2, 64, 127
4, 54876, Note_on_c, 2, 57, 49
4, 54876, Note_on_c, 2, 51, 41
4, 54936, Note_on_c, 2, 51, 0
4, 54964, Note_on_c, 2, 57, 0
4, 54968, Control_c, 2, 64, 0
4, 55256, Note_on_c, 2, 53, 55
4, 55260, Note_on_c, 2, 60, 64
4, 55372, Note_on_c, 2, 60, 0
4, 55452, Note_on_c, 2, 53, 0
4, 55644, Control_c, 2, 64, 127
4, 55644, Note_on_c, 2, 60, 49
4, 55644, Note_on_c, 2, 53, 41
4, 55704, Note_on_c, 2, 53, 0
4, 55732, Note_on_c, 2, 60, 0
4, 55732, Control_c, 2, 64, 0
4, 56024, Note_on_c, 2, 53, 55
4, 56028, Note_on_c, 2, 59, 64
4, 56140, Note_on_c, 2, 59, 0
4, 56220, Note_on_c, 2, 53, 0
4, 56412, Control_c, 2, 64, 127
4, 56412, Note_on_c, 2, 59, 49
4, 56412, Note_on_c, 2, 53, 41
4, 56468, Note_on_c, 2, 53, 0
4, 56500, Note_on_c, 2, 59, 0
4, 56500, Control_c, 2, 64, 0
4, 56796, Note_on_c, 2, 51, 55
4, 56796, Note_on_c, 2, 58, 64
4, 56908, Note_on_c, 2, 58, 0
4, 56988, Note_on_c, 2, 51, 0
4, 57180, Control_c, 2, 64, 127
4, 57180, Note_on_c, 2, 58, 49
4, 57180, Note_on_c, 2, 51, 41
4, 57232, Note_on_c, 2, 51, 0
4, 57268, Note_on_c, 2, 58, 0
4, 57268, Control_c, 2, 64, 0
4, 57564, Note_on_c, 2, 51, 55
4, 57564, Note_on_c, 2, 57, 64
4, 57676, Note_on_c, 2, 57, 0
4, 57756, Note_on_c, 2, 51, 0
4, 57948, Control_c, 2, 64, 127
4, 57948, Note_on_c, 2, 57, 49
4, 57948, Note_on_c, 2, 51, 41
4, 58008, Note_on_c, 2, 51, 0
4, 58028, Note_on_c, 2, 57, 0
4, 58032, Control_c, 2, 64, 0
4, 58332, Note_on_c, 2, 51, 55
4, 58332, Note_on_c, 2, 56, 64
4, 58444, Note_on_c, 2, 56, 0
4, 58524, Note_on_c, 2, 51, 0
4, 58716, Control_c, 2, 64, 127
4, 58716, Note_on_c, 2, 56, 49
4, 58716, Note_on_c, 2, 51, 41
4, 58776, Note_on_c, 2, 51, 0
4, 58804, Note_on_c, 2, 56, 0
4, 58812, Control_c, 2, 64, 0
4, 59096, Note_on_c, 2, 50, 55
4, 59100, Note_on_c, 2, 56, 64
4, 59212, Note_on_c, 2, 56, 0
4, 59292, Note_on_c, 2, 50, 0
4, 59484, Control_c, 2, 64, 127
4, 59484, Note_on_c, 2, 56, 49
4, 59484, Note_on_c, 2, 50, 41
4, 59544, Note_on_c, 2, 50, 0
4, 59572, Note_on_c, 2, 56, 0
4, 59572, Control_c, 2, 64, 0
4, 59868, Note_on_c, 2, 48, 55
4, 59868, Note_on_c, 2, 55, 64
4, 59980, Note_on_c, 2, 55, 0
4, 60060, Note_on_c, 2, 48, 0
4, 60248, Control_c, 2, 64, 127
4, 60252, Note_on_c, 2, 55, 49
4, 60252, Note_on_c, 2, 48, 41
4, 60312, Note_on_c, 2, 48, 0
4, 60340, Note_on_c, 2, 55, 0
4, 60340, Control_c, 2, 64, 0
4, 60636, Note_on_c, 2, 54, 55
4, 60636, Note_on_c, 2, 60, 64
4, 60748, Note_on_c, 2, 60, 0
4, 60828, Note_on_c, 2, 54, 0
4, 61020, Control_c, 2, 64, 127
4, 61020, Note_on_c, 2, 60, 49
4, 61020, Note_on_c, 2, 54, 41
4, 61076, Note_on_c, 2, 54, 0
4, 61108, Note_on_c, 2, 60, 0
4, 61108, Control_c, 2, 64, 0
4, 61400, Note_on_c, 2, 53, 55
4, 61404, Note_on_c, 2, 60, 64
4, 61516, Note_on_c, 2, 60, 0
4, 61596, Note_on_c, 2, 53, 0
4, 61788, Control_c, 2, 64, 0
4, 61788, Control_c, 2, 64, 0
4, 61788, Note_on_c, 2, 53, 55
4, 61788, Note_on_c, 2, 59, 64
4, 61900, Note_on_c, 2, 59, 0
4, 61980, Note_on_c, 2, 53, 0
4, 62168, Control_c, 2, 64, 0
4, 62172, Control_c, 2, 64, 0
4, 62172, Note_on_c, 2, 51, 55
4, 62172, Note_on_c, 2, 58, 64
4, 62284, Note_on_c, 2, 58, 0
4, 62364, Note_on_c, 2, 51, 0
4, 62556, Control_c, 2, 64, 0
4, 62556, Control_c, 2, 64, 0
4, 62556, Note_on_c, 2, 51, 55
4, 62556, Note_on_c, 2, 57, 64
4, 62668, Note_on_c, 2, 57, 0
4, 62748, Note_on_c, 2, 51, 0
4, 62936, Control_c, 2, 64, 0
4, 62940, Control_c, 2, 64, 0
4, 62940, Note_on_c, 2, 50, 55
4, 62940, Note_on_c, 2, 55, 64
4, 63052, Note_on_c, 2, 55, 0
4, 63132, Note_on_c, 2, 50, 0
4, 63320, Control_c, 2, 64, 127
4, 63324, Note_on_c, 2, 55, 49
4, 63324, Note_on_c, 2, 50, 41
4, 63384, Note_on_c, 2, 50, 0
4, 63412, Note_on_c, 2, 55, 0
4, 63420, Control_c, 2, 64, 0
4, 63708, Note_on_c, 2, 51, 55
4, 63708, Note_on_c, 2, 57, 64
4, 63820, Note_on_c, 2, 57, 0
4, 63900, Note_on_c, 2, 51, 0
4, 64092, Control_c, 2, 64, 127
4, 64092, Note_on_c, 2, 57, 49
4, 64092, Note_on_c, 2, 51, 41
4, 64152, Note_on_c, 2, 51, 0
4, 64180, Note_on_c, 2, 57, 0
4, 64180, Control_c, 2, 64, 0
4, 64472, Note_on_c, 2, 50, 55
4, 64476, Note_on_c, 2, 55, 64
4, 64588, Note_on_c, 2, 55, 0
4, 64668, Note_on_c, 2, 50, 0
4, 64860, Control_c, 2, 64, 127
4, 64860, Note_on_c, 2, 55, 49
4, 64860, Note_on_c, 2, 50, 41
4, 64920, Note_on_c, 2, 50, 0
4, 64948, Note_on_c, 2, 55, 0
4, 64948, Control_c, 2, 64, 0
4, 65240, Note_on_c, 2, 53, 55
4, 65244, Note_on_c, 2, 58, 64
4, 65356, Note_on_c, 2, 58, 0
4, 65436, Note_on_c, 2, 53, 0
4, 65628, Control_c, 2, 64, 127
4, 65628, Note_on_c, 2, 58, 49
4, 65628, Note_on_c, 2, 53, 41
4, 65684, Note_on_c, 2, 53, 0
4, 65716, Note_on_c, 2, 58, 0
4, 65716, Control_c, 2, 64, 0
4, 66012, Note_on_c, 2, 51, 55
4, 66012, Note_on_c, 2, 58, 64
4, 66124, Note_on_c, 2, 58, 0
4, 66204, Note_on_c, 2, 51, 0
4, 66396, Control_c, 2, 64, 127
4, 66396, Note_on_c, 2, 58, 49
4, 66396, Note_on_c, 2, 51, 41
4, 66452, Note_on_c, 2, 51, 0
4, 66484, Note_on_c, 2, 58, 0
4, 66484, Control_c, 2, 64, 0
4, 66780, Note_on_c, 2, 51, 55
4, 66780, Note_on_c, 2, 57, 64
4, 66892, Note_on_c, 2, 57, 0
4, 66972, Note_on_c, 2, 51, 0
4, 67164, Control_c, 2, 64, 127
4, 67164, Note_on_c, 2, 57, 49
4, 67164, Note_on_c, 2, 51, 41
4, 67224, Note_on_c, 2, 51, 0
4, 67244, Note_on_c, 2, 57, 0
4, 67252, Control_c, 2, 64, 0
4, 67548, Note_on_c, 2, 53, 55
4, 67548, Note_on_c, 2, 60, 64
4, 67660, Note_on_c, 2, 60, 0
4, 67740, Note_on_c, 2, 53, 0
4, 67932, Control_c, 2, 64, 127
4, 67932, Note_on_c, 2, 60, 49
4, 67932, Note_on_c, 2, 53, 41
4, 67992, Note_on_c, 2, 53, 0
4, 68020, Note_on_c, 2, 60, 0
4, 68024, Control_c, 2, 64, 0
4, 68316, Note_on_c, 2, 53, 55
4, 68316, Note_on_c, 2, 59, 64
4, 68428, Note_on_c, 2, 59, 0
4, 68508, Note_on_c, 2, 53, 0
4, 68700, Control_c, 2, 64, 127
4, 68700, Note_on_c, 2, 59, 49
4, 68700, Note_on_c, 2, 53, 41
4, 68760, Note_on_c, 2, 53, 0
4, 68788, Note_on_c, 2, 59, 0
4, 68796, Control_c, 2, 64, 0
4, 69080, Note_on_c, 2, 51, 55
4, 69084, Note_on_c, 2, 58, 64
4, 69196, Note_on_c, 2, 58, 0
4, 69276, Note_on_c, 2, 51, 0
4, 69468, Control_c, 2, 64, 127
4, 69468, Note_on_c, 2, 58, 49
4, 69468, Note_on_c, 2, 51, 41
4, 69528, Note_on_c, 2, 51, 0
4, 69556, Note_on_c, 2, 58, 0
4, 69556, Control_c, 2, 64, 0
4, 69844, Note_on_c, 2, 51, 55
4, 69852, Note_on_c, 2, 57, 64
4, 69964, Note_on_c, 2, 57, 0
4, 70044, Note_on_c, 2, 51, 0
4, 70236, Control_c, 2, 64, 127
4, 70236, Note_on_c, 2, 57, 49
4, 70236, Note_on_c, 2, 51, 41
4, 70292, Note_on_c, 2, 51, 0
4, 70324, Note_on_c, 2, 57, 0
4, 70324, Control_c, 2, 64, 0
4, 70620, Note_on_c, 2, 51, 55
4, 70620, Note_on_c, 2, 56, 64
4, 70732, Note_on_c, 2, 56, 0
4, 70812, Note_on_c, 2, 51, 0
4, 71004, Control_c, 2, 64, 127
4, 71004, Note_on_c, 2, 56, 49
4, 71004, Note_on_c, 2, 51, 41
4, 71060, Note_on_c, 2, 51, 0
4, 71092, Note_on_c, 2, 56, 0
4, 71092, Control_c, 2, 64, 0
4, 71384, Note_on_c, 2, 50, 55
4, 71388, Note_on_c, 2, 56, 64
4, 71500, Note_on_c, 2, 56, 0
4, 71580, Note_on_c, 2, 50, 0
4, 71772, Control_c, 2, 64, 127
4, 71772, Note_on_c, 2, 56, 49
4, 71772, Note_on_c, 2, 50, 41
4, 71832, Note_on_c, 2, 50, 0
4, 71856, Note_on_c, 2, 56, 0
4, 71864, Control_c, 2, 64, 0
4, 72152, Note_on_c, 2, 48, 55
4, 72156, Note_on_c, 2, 55, 64
4, 72268, Note_on_c, 2, 55, 0
4, 72348, Note_on_c, 2, 48, 0
4, 72540, Control_c, 2, 64, 127
4, 72540, Note_on_c, 2, 55, 49
4, 72540, Note_on_c, 2, 48, 41
4, 72600, Note_on_c, 2, 48, 0
4, 72628, Note_on_c, 2, 55, 0
4, 72632, Control_c, 2, 64, 0
4, 72920, Note_on_c, 2, 54, 55
4, 72924, Note_on_c, 2, 60, 64
4, 73036, Note_on_c, 2, 60, 0
4, 73116, Note_on_c, 2, 54, 0
4, 73308, Control_c, 2, 64, 127
4, 73308, Note_on_c, 2, 60, 49
4, 73308, Note_on_c, 2, 54, 41
4, 73368, Note_on_c, 2, 54, 0
4, 73396, Note_on_c, 2, 60, 0
4, 73404, Control_c, 2, 64, 0
4, 73692, Note_on_c, 2, 53, 55
4, 73692, Note_on_c, 2, 60, 64
4, 73804, Note_on_c, 2, 60, 0
4, 73884, Note_on_c, 2, 53, 0
4, 74072, Control_c, 2, 64, 0
4, 74076, Control_c, 2, 64, 0
4, 74076, Note_on_c, 2, 53, 55
4, 74076, Note_on_c, 2, 59, 64
4, 74188, Note_on_c, 2, 59, 0
4, 74268, Note_on_c, 2, 53, 0
4, 74456, Control_c, 2, 64, 0
4, 74460, Control_c, 2, 64, 0
4, 74460, Note_on_c, 2, 51, 55
4, 74460, Note_on_c, 2, 58, 64
4, 74572, Note_on_c, 2, 58, 0
4, 74652, Note_on_c, 2, 51, 0
4, 74840, Control_c, 2, 64, 0
4, 74844, Control_c, 2, 64, 0
4, 74844, Note_on_c, 2, 51, 55
4, 74848, Note_on_c, 2, 57, 64
4, 74956, Note_on_c, 2, 57, 0
4, 75036, Note_on_c, 2, 51, 0
4, 75224, Control_c, 2, 64, 0
4, 75224, Control_c, 2, 64, 0
4, 75228, Note_on_c, 2, 50, 55
4, 75228, Note_on_c, 2, 55, 64
4, 75340, Note_on_c, 2, 55, 0
4, 75420, Note_on_c, 2, 50, 0
4, 75612, Control_c, 2, 64, 127
4, 75612, Note_on_c, 2, 55, 49
4, 75612, Note_on_c, 2, 50, 41
4, 75668, Note_on_c, 2, 50, 0
4, 75700, Note_on_c, 2, 55, 0
4, 75700, Control_c, 2, 64, 0
4, 75996, Note_on_c, 2, 50, 55
4, 75996, Note_on_c, 2, 56, 64
4, 76108, Note_on_c, 2, 56, 0
4, 76188, Note_on_c, 2, 50, 0
4, 76380, Control_c, 2, 64, 127
4, 76380, Note_on_c, 2, 56, 49
4, 76380, Note_on_c, 2, 50, 41
4, 76432, Note_on_c, 2, 50, 0
4, 76468, Note_on_c, 2, 56, 0
4, 76468, Control_c, 2, 64, 0
4, 76764, Note_on_c, 2, 48, 55
4, 76764, Note_on_c, 2, 55, 64
4, 76876, Note_on_c, 2, 55, 0
4, 76956, Note_on_c, 2, 48, 0
4, 77148, Control_c, 2, 64, 127
4, 77148, Note_on_c, 2, 55, 49
4, 77148, Note_on_c, 2, 48, 41
4, 77208, Note_on_c, 2, 48, 0
4, 77228, Note_on_c, 2, 55, 0
4, 77232, Control_c, 2, 64, 0
4, 77532, Note_on_c, 2, 52, 55
4, 77532, Note_on_c, 2, 58, 64
4, 77644, Note_on_c, 2, 58, 0
4, 77724, Note_on_c, 2, 52, 0
4, 77916, Control_c, 2, 64, 127
4, 77916, Note_on_c, 2, 58, 49
4, 77916, Note_on_c, 2, 52, 41
4, 77976, Note_on_c, 2, 52, 0
4, 78004, Note_on_c, 2, 58, 0
4, 78012, Control_c, 2, 64, 0
4, 78296, Note_on_c, 2, 51, 55
4, 78300, Note_on_c, 2, 56, 64
4, 78412, Note_on_c, 2, 56, 0
4, 78492, Note_on_c, 2, 51, 0
4, 78684, Control_c, 2, 64, 127
4, 78684, Note_on_c, 2, 56, 49
4, 78684, Note_on_c, 2, 51, 41
4, 78744, Note_on_c, 2, 51, 0
4, 78772, Note_on_c, 2, 56, 0
4, 78772, Control_c, 2, 64, 0
4, 79064, Note_on_c, 2, 50, 55
4, 79068, Note_on_c, 2, 56, 64
4, 79180, Note_on_c, 2, 56, 0
4, 79260, Note_on_c, 2, 50, 0
4, 79448, Control_c, 2, 64, 127
4, 79452, Note_on_c, 2, 56, 49
4, 79456, Note_on_c, 2, 50, 41
4, 79512, Note_on_c, 2, 50, 0
4, 79540, Note_on_c, 2, 56, 0
4, 79544, Control_c, 2, 64, 0
4, 79832, Note_on_c, 2, 53, 55
4, 79836, Note_on_c, 2, 58, 64
4, 79948, Note_on_c, 2, 58, 0
4, 80028, Note_on_c, 2, 53, 0
4, 80220, Control_c, 2, 64, 127
4, 80220, Note_on_c, 2, 58, 49
4, 80220, Note_on_c, 2, 53, 41
4, 80276, Note_on_c, 2, 53, 0
4, 80308, Note_on_c, 2, 58, 0
4, 80308, Control_c, 2, 64, 0
4, 80604, Note_on_c, 2, 52, 55
4, 80604, Note_on_c, 2, 58, 64
4, 80716, Note_on_c, 2, 58, 0
4, 80796, Note_on_c, 2, 52, 0
4, 80988, Control_c, 2, 64, 127
4, 80988, Note_on_c, 2, 58, 49
4, 80988, Note_on_c, 2, 52, 41
4, 81040, Note_on_c, 2, 52, 0
4, 81076, Note_on_c, 2, 58, 0
4, 81076, Control_c, 2, 64, 0
4, 81372, Note_on_c, 2, 51, 55
4, 81372, Note_on_c, 2, 56, 64
4, 81484, Note_on_c, 2, 56, 0
4, 81564, Note_on_c, 2, 51, 0
4, 81756, Control_c, 2, 64, 127
4, 81756, Note_on_c, 2, 56, 49
4, 81756, Note_on_c, 2, 51, 41
4, 81816, Note_on_c, 2, 51, 0
4, 81836, Note_on_c, 2, 56, 0
4, 81840, Control_c, 2, 64, 0
4, 82136, Note_on_c, 2, 50, 55
4, 82140, Note_on_c, 2, 56, 64
4, 82252, Note_on_c, 2, 56, 0
4, 82332, Note_on_c, 2, 50, 0
4, 82524, Control_c, 2, 64, 127
4, 82524, Note_on_c, 2, 56, 49
4, 82524, Note_on_c, 2, 50, 41
4, 82584, Note_on_c, 2, 50, 0
4, 82612, Note_on_c, 2, 56, 0
4, 82620, Control_c, 2, 64, 0
4, 82908, Note_on_c, 2, 49, 55
4, 82908, Note_on_c, 2, 56, 64
4, 83020, Note_on_c, 2, 56, 0
4, 83100, Note_on_c, 2, 49, 0
4, 83288, Control_c, 2, 64, 127
4, 83292, Note_on_c, 2, 56, 49
4, 83292, Note_on_c, 2, 49, 41
4, 83352, Note_on_c, 2, 49, 0
4, 83380, Note_on_c, 2, 56, 0
4, 83380, Control_c, 2, 64, 0
4, 83676, Note_on_c, 2, 49, 55
4, 83676, Note_on_c, 2, 55, 64
4, 83788, Note_on_c, 2, 55, 0
4, 83868, Note_on_c, 2, 49, 0
4, 84060, Control_c, 2, 64, 127
4, 84060, Note_on_c, 2, 55, 49
4, 84060, Note_on_c, 2, 49, 41
4, 84120, Note_on_c, 2, 49, 0
4, 84148, Note_on_c, 2, 55, 0
4, 84148, Control_c, 2, 64, 0
4, 84440, Note_on_c, 2, 55, 55
4, 84444, Note_on_c, 2, 60, 64
4, 84556, Note_on_c, 2, 60, 0
4, 84636, Note_on_c, 2, 55, 0
4, 84824, Control_c, 2, 64, 127
4, 84828, Note_on_c, 2, 60, 49
4, 84828, Note_on_c, 2, 55, 41
4, 84884, Note_on_c, 2, 55, 0
4, 84916, Note_on_c, 2, 60, 0
4, 84916, Control_c, 2, 64, 0
4, 85208, Note_on_c, 2, 53, 55
4, 85212, Note_on_c, 2, 59, 64
4, 85324, Note_on_c, 2, 59, 0
4, 85404, Note_on_c, 2, 53, 0
4, 85596, Control_c, 2, 64, 127
4, 85596, Note_on_c, 2, 59, 49
4, 85596, Note_on_c, 2, 53, 41
4, 85652, Note_on_c, 2, 53, 0
4, 85684, Note_on_c, 2, 59, 0
4, 85684, Control_c, 2, 64, 0
4, 85980, Note_on_c, 2, 53, 55
4, 85980, Note_on_c, 2, 58, 64
4, 86092, Note_on_c, 2, 58, 0
4, 86172, Note_on_c, 2, 53, 0
4, 86364, Control_c, 2, 64, 0
4, 86364, Control_c, 2, 64, 0
4, 86364, Note_on_c, 2, 52, 55
4, 86364, Note_on_c, 2, 58, 64
4, 86476, Note_on_c, 2, 58, 0
4, 86556, Note_on_c, 2, 52, 0
4, 86748, Control_c, 2, 64, 0
4, 86748, Control_c, 2, 64, 0
4, 86748, Note_on_c, 2, 51, 55
4, 86748, Note_on_c, 2, 56, 64
4, 86860, Note_on_c, 2, 56, 0
4, 86940, Note_on_c, 2, 51, 0
4, 87132, Control_c, 2, 64, 0
4, 87132, Control_c, 2, 64, 0
4, 87132, Note_on_c, 2, 50, 55
4, 87132, Note_on_c, 2, 56, 64
4, 87244, Note_on_c, 2, 56, 0
4, 87324, Note_on_c, 2, 50, 0
4, 87512, Control_c, 2, 64, 0
4, 87516, Control_c, 2, 64, 0
4, 87516, Note_on_c, 2, 48, 55
4, 87516, Note_on_c, 2, 55, 64
4, 87628, Note_on_c, 2, 55, 0
4, 87708, Note_on_c, 2, 48, 0
4, 87900, Control_c, 2, 64, 127
4, 87900, Note_on_c, 2, 55, 49
4, 87900, Note_on_c, 2, 48, 41
4, 87960, Note_on_c, 2, 48, 0
4, 87988, Note_on_c, 2, 55, 0
4, 87996, Control_c, 2, 64, 0
4, 88280, Note_on_c, 2, 51, 55
4, 88284, Note_on_c, 2, 57, 64
4, 88396, Note_on_c, 2, 57, 0
4, 88476, Note_on_c, 2, 51, 0
4, 88668, Control_c, 2, 64, 127
4, 88668, Note_on_c, 2, 57, 49
4, 88668, Note_on_c, 2, 51, 41
4, 88728, Note_on_c, 2, 51, 0
4, 88756, Note_on_c, 2, 57, 0
4, 88756, Control_c, 2, 64, 0
4, 89048, Note_on_c, 2, 50, 55
4, 89052, Note_on_c, 2, 55, 64
4, 89164, Note_on_c, 2, 55, 0
4, 89244, Note_on_c, 2, 50, 0
4, 89436, Control_c, 2, 64, 127
4, 89436, Note_on_c, 2, 55, 49
4, 89436, Note_on_c, 2, 50, 41
4, 89488, Note_on_c, 2, 50, 0
4, 89524, Note_on_c, 2, 55, 0
4, 89524, Control_c, 2, 64, 0
4, 89820, Note_on_c, 2, 53, 55
4, 89820, Note_on_c, 2, 58, 64
4, 89932, Note_on_c, 2, 58, 0
4, 90012, Note_on_c, 2, 53, 0
4, 90204, Control_c, 2, 64, 127
4, 90204, Note_on_c, 2, 58, 49
4, 90204, Note_on_c, 2, 53, 41
4, 90260, Note_on_c, 2, 53, 0
4, 90292, Note_on_c, 2, 58, 0
4, 90292, Control_c, 2, 64, 0
4, 90588, Note_on_c, 2, 51, 55
4, 90588, Note_on_c, 2, 58, 64
4, 90700, Note_on_c, 2, 58, 0
4, 90780, Note_on_c, 2, 51, 0
4, 90972, Control_c, 2, 64, 127
4, 90972, Note_on_c, 2, 58, 49
4, 90972, Note_on_c, 2, 51, 41
4, 91032, Note_on_c, 2, 51, 0
4, 91052, Note_on_c, 2, 58, 0
4, 91060, Control_c, 2, 64, 0
4, 91352, Note_on_c, 2, 51, 55
4, 91356, Note_on_c, 2, 57, 64
4, 91468, Note_on_c, 2, 57, 0
4, 91548, Note_on_c, 2, 51, 0
4, 91740, Control_c, 2, 64, 127
4, 91740, Note_on_c, 2, 57, 49
4, 91740, Note_on_c, 2, 51, 41
4, 91800, Note_on_c, 2, 51, 0
4, 91828, Note_on_c, 2, 57, 0
4, 91832, Control_c, 2, 64, 0
4, 92124, Note_on_c, 2, 53, 55
4, 92124, Note_on_c, 2, 60, 64
4, 92236, Note_on_c, 2, 60, 0
4, 92316, Note_on_c, 2, 53, 0
4, 92508, Control_c, 2, 64, 127
4, 92508, Note_on_c, 2, 60, 49
4, 92508, Note_on_c, 2, 53, 41
4, 92568, Note_on_c, 2, 53, 0
4, 92596, Note_on_c, 2, 60, 0
4, 92604, Control_c, 2, 64, 0
4, 92888, Note_on_c, 2, 53, 55
4, 92892, Note_on_c, 2, 59, 64
4, 93004, Note_on_c, 2, 59, 0
4, 93084, Note_on_c, 2, 53, 0
4, 93276, Control_c, 2, 64, 127
4, 93276, Note_on_c, 2, 59, 49
4, 93276, Note_on_c, 2, 53, 41
4, 93336, Note_on_c, 2, 53, 0
4, 93364, Note_on_c, 2, 59, 0
4, 93368, Control_c, 2, 64, 0
4, 93660, Note_on_c, 2, 51, 55
4, 93660, Note_on_c, 2, 58, 64
4, 93772, Note_on_c, 2, 58, 0
4, 93852, Note_on_c, 2, 51, 0
4, 94040, Control_c, 2, 64, 127
4, 94044, Note_on_c, 2, 58, 49
4, 94044, Note_on_c, 2, 51, 41
4, 94104, Note_on_c, 2, 51, 0
4, 94132, Note_on_c, 2, 58, 0
4, 94132, Control_c, 2, 64, 0
4, 94428, Note_on_c, 2, 51, 55
4, 94428, Note_on_c, 2, 57, 64
4, 94540, Note_on_c, 2, 57, 0
4, 94620, Note_on_c, 2, 51, 0
4, 94812, Control_c, 2, 64, 127
4, 94812, Note_on_c, 2, 57, 49
4, 94812, Note_on_c, 2, 51, 41
4, 94868, Note_on_c, 2, 51, 0
4, 94900, Note_on_c, 2, 57, 0
4, 94900, Control_c, 2, 64, 0
4, 95192, Note_on_c, 2, 51, 55
4, 95196, Note_on_c, 2, 56, 64
4, 95308, Note_on_c, 2, 56, 0
4, 95388, Note_on_c, 2, 51, 0
4, 95580, Control_c, 2, 64, 127
4, 95580, Note_on_c, 2, 56, 49
4, 95580, Note_on_c, 2, 51, 41
4, 95632, Note_on_c, 2, 51, 0
4, 95668, Note_on_c, 2, 56, 0
4, 95668, Control_c, 2, 64, 0
4, 95960, Note_on_c, 2, 50, 55
4, 95964, Note_on_c, 2, 56, 64
4, 96076, Note_on_c, 2, 56, 0
4, 96156, Note_on_c, 2, 50, 0
4, 96348, Control_c, 2, 64, 127
4, 96348, Note_on_c, 2, 56, 49
4, 96348, Note_on_c, 2, 50, 41
4, 96408, Note_on_c, 2, 50, 0
4, 96428, Note_on_c, 2, 56, 0
4, 96432, Control_c, 2, 64, 0
4, 96732, Note_on_c, 2, 48, 55
4, 96732, Note_on_c, 2, 55, 64
4, 96844, Note_on_c, 2, 55, 0
4, 96924, Note_on_c, 2, 48, 0
4, 97112, Control_c, 2, 64, 127
4, 97116, Note_on_c, 2, 55, 49
4, 97116, Note_on_c, 2, 48, 41
4, 97176, Note_on_c, 2, 48, 0
4, 97204, Note_on_c, 2, 55, 0
4, 97212, Control_c, 2, 64, 0
4, 97496, Note_on_c, 2, 54, 55
4, 97500, Note_on_c, 2, 60, 64
4, 97612, Note_on_c, 2, 60, 0
4, 97692, Note_on_c, 2, 54, 0
4, 97884, Control_c, 2, 64, 127
4, 97884, Note_on_c, 2, 60, 49
4, 97884, Note_on_c, 2, 54, 41
4, 97944, Note_on_c, 2, 54, 0
4, 97972, Note_on_c, 2, 60, 0
4, 97976, Control_c, 2, 64, 0
4, 98264, Note_on_c, 2, 53, 55
4, 98268, Note_on_c, 2, 60, 64
4, 98380, Note_on_c, 2, 60, 0
4, 98460, Note_on_c, 2, 53, 0
4, 98648, Control_c, 2, 64, 0
4, 98648, Control_c, 2, 64, 0
4, 98652, Note_on_c, 2, 53, 55
4, 98652, Note_on_c, 2, 59, 64
4, 98764, Note_on_c, 2, 59, 0
4, 98844, Note_on_c, 2, 53, 0
4, 99032, Control_c, 2, 64, 0
4, 99032, Control_c, 2, 64, 0
4, 99036, Note_on_c, 2, 51, 55
4, 99036, Note_on_c, 2, 58, 64
4, 99148, Note_on_c, 2, 58, 0
4, 99228, Note_on_c, 2, 51, 0
4, 99420, Control_c, 2, 64, 0
4, 99420, Control_c, 2, 64, 0
4, 99420, Note_on_c, 2, 51, 55
4, 99420, Note_on_c, 2, 57, 64
4, 99532, Note_on_c, 2, 57, 0
4, 99612, Note_on_c, 2, 51, 0
4, 99800, Control_c, 2, 64, 0
4, 99804, Control_c, 2, 64, 0
4, 99804, Note_on_c, 2, 50, 55
4, 99804, Note_on_c, 2, 55, 64
4, 99916, Note_on_c, 2, 55, 0
4, 99996, Note_on_c, 2, 50, 0
4, 100188, Control_c, 2, 64, 127
4, 100188, Note_on_c, 2, 55, 49
4, 100188, Note_on_c, 2, 50, 41
4, 100240, Note_on_c, 2, 50, 0
4, 100276, Note_on_c, 2, 55, 0
4, 100276, Control_c, 2, 64, 0
4, 100572, Note_on_c, 2, 51, 55
4, 100572, Note_on_c, 2, 57, 64
4, 100684, Note_on_c, 2, 57, 0
4, 100764, Note_on_c, 2, 51, 0
4, 100956, Control_c, 2, 64, 127
4, 100956, Note_on_c, 2, 57, 49
4, 100956, Note_on_c, 2, 51, 41
4, 101016, Note_on_c, 2, 51, 0
4, 101036, Note_on_c, 2, 57, 0
4, 101040, Control_c, 2, 64, 0
4, 101340, Note_on_c, 2, 50, 55
4, 101340, Note_on_c, 2, 55, 64
4, 101452, Note_on_c, 2, 55, 0
4, 101532, Note_on_c, 2, 50, 0
4, 101724, Control_c, 2, 64, 127
4, 101724, Note_on_c, 2, 55, 49
4, 101724, Note_on_c, 2, 50, 41
4, 101784, Note_on_c, 2, 50, 0
4, 101812, Note_on_c, 2, 55, 0
4, 101820, Control_c, 2, 64, 0
4, 102108, Note_on_c, 2, 53, 55
4, 102108, Note_on_c, 2, 58, 64
4, 102220, Note_on_c, 2, 58, 0
4, 102300, Note_on_c, 2, 53, 0
4, 102492, Control_c, 2, 64, 127
4, 102492, Note_on_c, 2, 58, 49
4, 102492, Note_on_c, 2, 53, 41
4, 102552, Note_on_c, 2, 53, 0
4, 102580, Note_on_c, 2, 58, 0
4, 102584, Control_c, 2, 64, 0
4, 102872, Note_on_c, 2, 51, 55
4, 102876, Note_on_c, 2, 58, 64
4, 102988, Note_on_c, 2, 58, 0
4, 103068, Note_on_c, 2, 51, 0
4, 103260, Control_c, 2, 64, 127
4, 103260, Note_on_c, 2, 58, 49
4, 103260, Note_on_c, 2, 51, 41
4, 103320, Note_on_c, 2, 51, 0
4, 103348, Note_on_c, 2, 58, 0
4, 103348, Control_c, 2, 64, 0
4, 103640, Note_on_c, 2, 51, 55
4, 103644, Note_on_c, 2, 57, 64
4, 103756, Note_on_c, 2, 57, 0
4, 103836, Note_on_c, 2, 51, 0
4, 104028, Control_c, 2, 64, 127
4, 104028, Note_on_c, 2, 57, 49
4, 104028, Note_on_c, 2, 51, 41
4, 104084, Note_on_c, 2, 51, 0
4, 104116, Note_on_c, 2, 57, 0
4, 104116, Control_c, 2, 64, 0
4, 104412, Note_on_c, 2, 53, 55
4, 104412, Note_on_c, 2, 60, 64
4, 104524, Note_on_c, 2, 60, 0
4, 104604, Note_on_c, 2, 53, 0
4, 104796, Control_c, 2, 64, 127
4, 104796, Note_on_c, 2, 60, 49
4, 104796, Note_on_c, 2, 53, 41
4, 104848, Note_on_c, 2, 53, 0
4, 104884, Note_on_c, 2, 60, 0
4, 104884, Control_c, 2, 64, 0
4, 105180, Note_on_c, 2, 53, 55
4, 105180, Note_on_c, 2, 59, 64
4, 105292, Note_on_c, 2, 59, 0
4, 105372, Note_on_c, 2, 53, 0
4, 105564, Control_c, 2, 64, 127
4, 105564, Note_on_c, 2, 59, 49
4, 105564, Note_on_c, 2, 53, 41
4, 105624, Note_on_c, 2, 53, 0
4, 105648, Note_on_c, 2, 59, 0
4, 105656, Control_c, 2, 64, 0
4, 105944, Note_on_c, 2, 51, 55
4, 105948, Note_on_c, 2, 58, 64
4, 106060, Note_on_c, 2, 58, 0
4, 106140, Note_on_c, 2, 51, 0
4, 106328, Control_c, 2, 64, 127
4, 106332, Note_on_c, 2, 58, 49
4, 106332, Note_on_c, 2, 51, 41
4, 106392, Note_on_c, 2, 51, 0
4, 106420, Note_on_c, 2, 58, 0
4, 106424, Control_c, 2, 64, 0
4, 106712, Note_on_c, 2, 51, 55
4, 106716, Note_on_c, 2, 57, 64
4, 106828, Note_on_c, 2, 57, 0
4, 106908, Note_on_c, 2, 51, 0
4, 107100, Control_c, 2, 64, 127
4, 107100, Note_on_c, 2, 57, 49
4, 107100, Note_on_c, 2, 51, 41
4, 107160, Note_on_c, 2, 51, 0
4, 107188, Note_on_c, 2, 57, 0
4, 107196, Control_c, 2, 64, 0
4, 107484, Note_on_c, 2, 51, 55
4, 107484, Note_on_c, 2, 56, 64
4, 107596, Note_on_c, 2, 56, 0
4, 107676, Note_on_c, 2, 51, 0
4, 107868, Control_c, 2, 64, 127
4, 107868, Note_on_c, 2, 56, 49
4, 107868, Note_on_c, 2, 51, 41
4, 107928, Note_on_c, 2, 51, 0
4, 107956, Note_on_c, 2, 56, 0
4, 107956, Control_c, 2, 64, 0
4, 108248, Note_on_c, 2, 50, 55
4, 108252, Note_on_c, 2, 56, 64
4, 108364, Note_on_c, 2, 56, 0
4, 108444, Note_on_c, 2, 50, 0
4, 108636, Control_c, 2, 64, 127
4, 108636, Note_on_c, 2, 56, 49
4, 108636, Note_on_c, 2, 50, 41
4, 108692, Note_on_c, 2, 50, 0
4, 108724, Note_on_c, 2, 56, 0
4, 108724, Control_c, 2, 64, 0
4, 109020, Note_on_c, 2, 48, 55
4, 109020, Note_on_c, 2, 55, 64
4, 109132, Note_on_c, 2, 55, 0
4, 109212, Note_on_c, 2, 48, 0
4, 109400, Control_c, 2, 64, 127
4, 109404, Note_on_c, 2, 55, 49
4, 109404, Note_on_c, 2, 48, 41
4, 109460, Note_on_c, 2, 48, 0
4, 109492, Note_on_c, 2, 55, 0
4, 109492, Control_c, 2, 64, 0
4, 109788, Note_on_c, 2, 54, 55
4, 109788, Note_on_c, 2, 60, 64
4, 109900, Note_on_c, 2, 60, 0
4, 109980, Note_on_c, 2, 54, 0
4, 110172, Control_c, 2, 64, 127
4, 110172, Note_on_c, 2, 60, 49
4, 110172, Note_on_c, 2, 54, 41
4, 110232, Note_on_c, 2, 54, 0
4, 110252, Note_on_c, 2, 60, 0
4, 110260, Control_c, 2, 64, 0
4, 110556, Note_on_c, 2, 53, 55
4, 110556, Note_on_c, 2, 60, 64
4, 110668, Note_on_c, 2, 60, 0
4, 110748, Note_on_c, 2, 53, 0
4, 110940, Control_c, 2, 64, 0
4, 110940, Control_c, 2, 64, 0
4, 110940, Note_on_c, 2, 53, 55
4, 110940, Note_on_c, 2, 59, 64
4, 111052, Note_on_c, 2, 59, 0
4, 111132, Note_on_c, 2, 53, 0
4, 111324, Control_c, 2, 64, 0
4, 111324, Control_c, 2, 64, 0
4, 111324, Note_on_c, 2, 51, 55
4, 111324, Note_on_c, 2, 58, 64
4, 111436, Note_on_c, 2, 58, 0
4, 111516, Note_on_c, 2, 51, 0
4, 111708, Control_c, 2, 64, 0
4, 111708, Control_c, 2, 64, 0
4, 111708, Note_on_c, 2, 51, 55
4, 111708, Note_on_c, 2, 57, 64
4, 111820, Note_on_c, 2, 57, 0
4, 111900, Note_on_c, 2, 51, 0
4, 112088, Control_c, 2, 64, 0
4, 112092, Control_c, 2, 64, 0
4, 112092, Note_on_c, 2, 50, 55
4, 112092, Note_on_c, 2, 55, 64
4, 112204, Note_on_c, 2, 55, 0
4, 112284, Note_on_c, 2, 50, 0
4, 112476, Control_c, 2, 64, 127
4, 112476, Note_on_c, 2, 55, 49
4, 112476, Note_on_c, 2, 50, 41
4, 112536, Note_on_c, 2, 50, 0
4, 112564, Note_on_c, 2, 55, 0
4, 112564, Control_c, 2, 64, 0
4, 112856, Note_on_c, 2, 51, 55
4, 112860, Note_on_c, 2, 57, 64
4, 112972, Note_on_c, 2, 57, 0
4, 113052, Note_on_c, 2, 51, 0
4, 113244, Control_c, 2, 64, 127
4, 113248, Note_on_c, 2, 57, 49
4, 113248, Note_on_c, 2, 51, 41
4, 113304, Note_on_c, 2, 51, 0
4, 113332, Note_on_c, 2, 57, 0
4, 113336, Control_c, 2, 64, 0
4, 113628, Note_on_c, 2, 50, 55
4, 113628, Note_on_c, 2, 55, 64
4, 113740, Note_on_c, 2, 55, 0
4, 113820, Note_on_c, 2, 50, 0
4, 114012, Control_c, 2, 64, 127
4, 114012, Note_on_c, 2, 55, 49
4, 114012, Note_on_c, 2, 50, 41
4, 114064, Note_on_c, 2, 50, 0
4, 114100, Note_on_c, 2, 55, 0
4, 114100, Control_c, 2, 64, 0
4, 114396, Note_on_c, 2, 53, 55
4, 114396, Note_on_c, 2, 58, 64
4, 114508, Note_on_c, 2, 58, 0
4, 114588, Note_on_c, 2, 53, 0
4, 114780, Control_c, 2, 64, 127
4, 114780, Note_on_c, 2, 58, 49
4, 114780, Note_on_c, 2, 53, 41
4, 114832, Note_on_c, 2, 53, 0
4, 114868, Note_on_c, 2, 58, 0
4, 114868, Control_c, 2, 64, 0
4, 115164, Note_on_c, 2, 51, 55
4, 115164, Note_on_c, 2, 58, 64
4, 115276, Note_on_c, 2, 58, 0
4, 115356, Note_on_c, 2, 51, 0
4, 115548, Control_c, 2, 64, 127
4, 115548, Note_on_c, 2, 58, 49
4, 115548, Note_on_c, 2, 51, 41
4, 115608, Note_on_c, 2, 51, 0
4, 115628, Note_on_c, 2, 58, 0
4, 115632, Control_c, 2, 64, 0
4, 115932, Note_on_c, 2, 51, 55
4, 115932, Note_on_c, 2, 57, 64
4, 116044, Note_on_c, 2, 57, 0
4, 116124, Note_on_c, 2, 51, 0
4, 116316, Control_c, 2, 64, 127
4, 116316, Note_on_c, 2, 57, 49
4, 116316, Note_on_c, 2, 51, 41
4, 116376, Note_on_c, 2, 51, 0
4, 116404, Note_on_c, 2, 57, 0
4, 116412, Control_c, 2, 64, 0
4, 116700, Note_on_c, 2, 53, 55
4, 116700, Note_on_c, 2, 60, 64
4, 116812, Note_on_c, 2, 60, 0
4, 116892, Note_on_c, 2, 53, 0
4, 117080, Control_c, 2, 64, 127
4, 117084, Note_on_c, 2, 60, 49
4, 117084, Note_on_c, 2, 53, 41
4, 117144, Note_on_c, 2, 53, 0
4, 117172, Note_on_c, 2, 60, 0
4, 117172, Control_c, 2, 64, 0
4, 117468, Note_on_c, 2, 53, 55
4, 117468, Note_on_c, 2, 59, 64
4, 117580, Note_on_c, 2, 59, 0
4, 117660, Note_on_c, 2, 53, 0
4, 117852, Control_c, 2, 64, 127
4, 117852, Note_on_c, 2, 59, 49
4, 117852, Note_on_c, 2, 53, 41
4, 117912, Note_on_c, 2, 53, 0
4, 117940, Note_on_c, 2, 59, 0
4, 117944, Control_c, 2, 64, 0
4, 118236, Note_on_c, 2, 51, 55
4, 118236, Note_on_c, 2, 58, 64
4, 118348, Note_on_c, 2, 58, 0
4, 118428, Note_on_c, 2, 51, 0
4, 118620, Control_c, 2, 64, 127
4, 118620, Note_on_c, 2, 58, 49
4, 118620, Note_on_c, 2, 51, 41
4, 118676, Note_on_c, 2, 51, 0
4, 118708, Note_on_c, 2, 58, 0
4, 118708, Control_c, 2, 64, 0
4, 119004, Note_on_c, 2, 51, 55
4, 119004, Note_on_c, 2, 57, 64
4, 119116, Note_on_c, 2, 57, 0
4, 119196, Note_on_c, 2, 51, 0
4, 119388, Control_c, 2, 64, 127
4, 119388, Note_on_c, 2, 57, 49
4, 119388, Note_on_c, 2, 51, 41
4, 119440, Note_on_c, 2, 51, 0
4, 119476, Note_on_c, 2, 57, 0
4, 119476, Control_c, 2, 64, 0
4, 119772, Note_on_c, 2, 51, 55
4, 119772, Note_on_c, 2, 56, 64
4, 119884, Note_on_c, 2, 56, 0
4, 119964, Note_on_c, 2, 51, 0
4, 120156, Control_c, 2, 64, 127
4, 120156, Note_on_c, 2, 56, 49
4, 120156, Note_on_c, 2, 51, 41
4, 120216, Note_on_c, 2, 51, 0
4, 120236, Note_on_c, 2, 56, 0
4, 120240, Control_c, 2, 64, 0
4, 120536, Note_on_c, 2, 50, 55
4, 120540, Note_on_c, 2, 56, 64
4, 120652, Note_on_c, 2, 56, 0
4, 120732, Note_on_c, 2, 50, 0
4, 120924, Control_c, 2, 64, 127
4, 120924, Note_on_c, 2, 56, 49
4, 120924, Note_on_c, 2, 50, 41
4, 120984, Note_on_c, 2, 50, 0
4, 121012, Note_on_c, 2, 56, 0
4, 121020, Control_c, 2, 64, 0
4, 121308, Note_on_c, 2, 48, 55
4, 121308, Note_on_c, 2, 55, 64
4, 121420, Note_on_c, 2, 55, 0
4, 121500, Note_on_c, 2, 48, 0
4, 121692, Control_c, 2, 64, 127
4, 121692, Note_on_c, 2, 55, 49
4, 121692, Note_on_c, 2, 48, 41
4, 121752, Note_on_c, 2, 48, 0
4, 121780, Note_on_c, 2, 55, 0
4, 121780, Control_c, 2, 64, 0
4, 122072, Note_on_c, 2, 54, 55
4, 122076, Note_on_c, 2, 60, 64
4, 122188, Note_on_c, 2, 60, 0
4, 122268, Note_on_c, 2, 54, 0
4, 122460, Control_c, 2, 64, 127
4, 122460, Note_on_c, 2, 60, 49
4, 122460, Note_on_c, 2, 54, 41
4, 122520, Note_on_c, 2, 54, 0
4, 122548, Note_on_c, 2, 60, 0
4, 122552, Control_c, 2, 64, 0
4, 122840, Note_on_c, 2, 53, 55
4, 122844, Note_on_c, 2, 60, 64
4, 122956, Note_on_c, 2, 60, 0
4, 123036, Note_on_c, 2, 53, 0
4, 123228, Control_c, 2, 64, 0
4, 123228, Control_c, 2, 64, 0
4, 123228, Note_on_c, 2, 53, 55
4, 123228, Note_on_c, 2, 59, 64
4, 123340, Note_on_c, 2, 59, 0
4, 123420, Note_on_c, 2, 53, 0
4, 123608, Control_c, 2, 64, 0
4, 123612, Control_c, 2, 64, 0
4, 123612, Note_on_c, 2, 51, 55
4, 123612, Note_on_c, 2, 58, 64
4, 123724, Note_on_c, 2, 58, 0
4, 123804, Note_on_c, 2, 51, 0
4, 123996, Control_c, 2, 64, 0
4, 123996, Control_c, 2, 64, 0
4, 123996, Note_on_c, 2, 51, 55
4, 123996, Note_on_c, 2, 57, 64
4, 124108, Note_on_c, 2, 57, 0
4, 124188, Note_on_c, 2, 51, 0
4, 124376, Control_c, 2, 64, 0
4, 124380, Control_c, 2, 64, 0
4, 124380, Note_on_c, 2, 50, 55
4, 124380, Note_on_c, 2, 55, 64
4, 124492, Note_on_c, 2, 55, 0
4, 124572, Note_on_c, 2, 50, 0
4, 124760, Control_c, 2, 64, 127
4, 124764, Note_on_c, 2, 55, 49
4, 124764, Note_on_c, 2, 50, 41
4, 124824, Note_on_c, 2, 50, 0
4, 124844, Note_on_c, 2, 55, 0
4, 124852, Control_c, 2, 64, 0
4, 125148, Note_on_c, 2, 50, 55
4, 125148, Note_on_c, 2, 56, 64
4, 125260, Note_on_c, 2, 56, 0
4, 125340, Note_on_c, 2, 50, 0
4, 125532, Control_c, 2, 64, 127
4, 125532, Note_on_c, 2, 56, 49
4, 125532, Note_on_c, 2, 50, 41
4, 125592, Note_on_c, 2, 50, 0
4, 125620, Note_on_c, 2, 56, 0
4, 125624, Control_c, 2, 64, 0
4, 125916, Note_on_c, 2, 48, 55
4, 125916, Note_on_c, 2, 55, 64
4, 126028, Note_on_c, 2, 55, 0
4, 126108, Note_on_c, 2, 48, 0
4, 126300, Control_c, 2, 64, 127
4, 126300, Note_on_c, 2, 55, 49
4, 126300, Note_on_c, 2, 48, 41
4, 126360, Note_on_c, 2, 48, 0
4, 126388, Note_on_c, 2, 55, 0
4, 126396, Control_c, 2, 64, 0
4, 126680, Note_on_c, 2, 52, 55
4, 126684, Note_on_c, 2, 58, 64
4, 126796, Note_on_c, 2, 58, 0
4, 126876, Note_on_c, 2, 52, 0
4, 127068, Control_c, 2, 64, 127
4, 127068, Note_on_c, 2, 58, 49
4, 127068, Note_on_c, 2, 52, 41
4, 127128, Note_on_c, 2, 52, 0
4, 127156, Note_on_c, 2, 58, 0
4, 127160, Control_c, 2, 64, 0
4, 127448, Note_on_c, 2, 51, 55
4, 127452, Note_on_c, 2, 56, 64
4, 127564, Note_on_c, 2, 56, 0
4, 127644, Note_on_c, 2, 51, 0
4, 127836, Control_c, 2, 64, 127
4, 127836, Note_on_c, 2, 56, 49
4, 127836, Note_on_c, 2, 51, 41
4, 127892, Note_on_c, 2, 51, 0
4, 127924, Note_on_c, 2, 56, 0
4, 127924, Control_c, 2, 64, 0
4, 128216, Note_on_c, 2, 50, 55
4, 128220, Note_on_c, 2, 56, 64
4, 128332, Note_on_c, 2, 56, 0
4, 128412, Note_on_c, 2, 50, 0
4, 128604, Control_c, 2, 64, 127
4, 128604, Note_on_c, 2, 56, 49
4, 128604, Note_on_c, 2, 50, 41
4, 128660, Note_on_c, 2, 50, 0
4, 128692, Note_on_c, 2, 56, 0
4, 128692, Control_c, 2, 64, 0
4, 128988, Note_on_c, 2, 53, 55
4, 128988, Note_on_c, 2, 58, 64
4, 129100, Note_on_c, 2, 58, 0
4, 129180, Note_on_c, 2, 53, 0
4, 129372, Control_c, 2, 64, 127
4, 129372, Note_on_c, 2, 58, 49
4, 129372, Note_on_c, 2, 53, 41
4, 129432, Note_on_c, 2, 53, 0
4, 129452, Note_on_c, 2, 58, 0
4, 129460, Control_c, 2, 64, 0
4, 129756, Note_on_c, 2, 52, 55
4, 129756, Note_on_c, 2, 58, 64
4, 129868, Note_on_c, 2, 58, 0
4, 129948, Note_on_c, 2, 52, 0
4, 130140, Control_c, 2, 64, 127
4, 130140, Note_on_c, 2, 58, 49
4, 130144, Note_on_c, 2, 52, 41
4, 130200, Note_on_c, 2, 52, 0
4, 130228, Note_on_c, 2, 58, 0
4, 130232, Control_c, 2, 64, 0
4, 130524, Note_on_c, 2, 51, 55
4, 130524, Note_on_c, 2, 56, 64
4, 130636, Note_on_c, 2, 56, 0
4, 130716, Note_on_c, 2, 51, 0
4, 130904, Control_c, 2, 64, 127
4, 130908, Note_on_c, 2, 56, 49
4, 130908, Note_on_c, 2, 51, 41
4, 130968, Note_on_c, 2, 51, 0
4, 130996, Note_on_c, 2, 56, 0
4, 131004, Control_c, 2, 64, 0
4, 131288, Note_on_c, 2, 50, 55
4, 131292, Note_on_c, 2, 56, 64
4, 131404, Note_on_c, 2, 56, 0
4, 131484, Note_on_c, 2, 50, 0
4, 131676, Control_c, 2, 64, 127
4, 131676, Note_on_c, 2, 56, 49
4, 131676, Note_on_c, 2, 50, 41
4, 131736, Note_on_c, 2, 50, 0
4, 131764, Note_on_c, 2, 56, 0
4, 131764, Control_c, 2, 64, 0
4, 132056, Note_on_c, 2, 49, 55
4, 132060, Note_on_c, 2, 56, 64
4, 132172, Note_on_c, 2, 56, 0
4, 132252, Note_on_c, 2, 49, 0
4, 132440, Control_c, 2, 64, 127
4, 132444, Note_on_c, 2, 56, 49
4, 132444, Note_on_c, 2, 49, 41
4, 132504, Note_on_c, 2, 49, 0
4, 132532, Note_on_c, 2, 56, 0
4, 132532, Control_c, 2, 64, 0
4, 132824, Note_on_c, 2, 49, 55
4, 132828, Note_on_c, 2, 55, 64
4, 132940, Note_on_c, 2, 55, 0
4, 133020, Note_on_c, 2, 49, 0
4, 133212, Control_c, 2, 64, 127
4, 133212, Note_on_c, 2, 55, 49
4, 133212, Note_on_c, 2, 49, 41
4, 133268, Note_on_c, 2, 49, 0
4, 133300, Note_on_c, 2, 55, 0
4, 133300, Control_c, 2, 64, 0
4, 133596, Note_on_c, 2, 55, 55
4, 133596, Note_on_c, 2, 60, 64
4, 133708, Note_on_c, 2, 60, 0
4, 133788, Note_on_c, 2, 55, 0
4, 133980, Control_c, 2, 64, 127
4, 133980, Note_on_c, 2, 60, 49
4, 133980, Note_on_c, 2, 55, 41
4, 134032, Note_on_c, 2, 55, 0
4, 134068, Note_on_c, 2, 60, 0
4, 134068, Control_c, 2, 64, 0
4, 134364, Note_on_c, 2, 53, 55
4, 134364, Note_on_c, 2, 59, 64
4, 134476, Note_on_c, 2, 59, 0
4, 134556, Note_on_c, 2, 53, 0
4, 134748, Control_c, 2, 64, 127
4, 134748, Note_on_c, 2, 59, 49
4, 134748, Note_on_c, 2, 53, 41
4, 134808, Note_on_c, 2, 53, 0
4, 134828, Note_on_c, 2, 59, 0
4, 134832, Control_c, 2, 64, 0
4, 135128, Note_on_c, 2, 53, 55
4, 135132, Note_on_c, 2, 58, 64
4, 135244, Note_on_c, 2, 58, 0
4, 135324, Note_on_c, 2, 53, 0
4, 135516, Control_c, 2, 64, 0
4, 135516, Control_c, 2, 64, 0
4, 135516, Note_on_c, 2, 52, 55
4, 135516, Note_on_c, 2, 58, 64
4, 135628, Note_on_c, 2, 58, 0
4, 135708, Note_on_c, 2, 52, 0
4, 135896, Control_c, 2, 64, 0
4, 135900, Control_c, 2, 64, 0
4, 135900, Note_on_c, 2, 51, 55
4, 135900, Note_on_c, 2, 56, 64
4, 136012, Note_on_c, 2, 56, 0
4, 136092, Note_on_c, 2, 51, 0
4, 136284, Control_c, 2, 64, 0
4, 136284, Control_c, 2, 64, 0
4, 136284, Note_on_c, 2, 50, 55
4, 136284, Note_on_c, 2, 56, 64
4, 136396, Note_on_c, 2, 56, 0
4, 136476, Note_on_c, 2, 50, 0
4, 136664, Control_c, 2, 64, 0
4, 136668, Control_c, 2, 64, 0
4, 136668, Note_on_c, 2, 48, 55
4, 136668, Note_on_c, 2, 55, 64
4, 136780, Note_on_c, 2, 55, 0
4, 136860, Note_on_c, 2, 48, 0
4, 137048, Control_c, 2, 64, 127
4, 137052, Note_on_c, 2, 55, 49
4, 137052, Note_on_c, 2, 48, 41
4, 137112, Note_on_c, 2, 48, 0
4, 137140, Note_on_c, 2, 55, 0
4, 137140, Control_c, 2, 64, 0
4, 137432, Note_on_c, 2, 51, 55
4, 137436, Note_on_c, 2, 57, 64
4, 137548, Note_on_c, 2, 57, 0
4, 137628, Note_on_c, 2, 51, 0
4, 137820, Control_c, 2, 64, 127
4, 137820, Note_on_c, 2, 57, 49
4, 137820, Note_on_c, 2, 51, 41
4, 137876, Note_on_c, 2, 51, 0
4, 137908, Note_on_c, 2, 57, 0
4, 137912, Control_c, 2, 64, 0
4, 138204, Note_on_c, 2, 50, 55
4, 138204, Note_on_c, 2, 55, 64
4, 138316, Note_on_c, 2, 55, 0
4, 138396, Note_on_c, 2, 50, 0
4, 138588, Control_c, 2, 64, 127
4, 138588, Note_on_c, 2, 55, 49
4, 138588, Note_on_c, 2, 50, 41
4, 138640, Note_on_c, 2, 50, 0
4, 138676, Note_on_c, 2, 55, 0
4, 138676, Control_c, 2, 64, 0
4, 138972, Note_on_c, 2, 53, 55
4, 138972, Note_on_c, 2, 58, 64
4, 139084, Note_on_c, 2, 58, 0
4, 139164, Note_on_c, 2, 53, 0
4, 139356, Control_c, 2, 64, 127
4, 139356, Note_on_c, 2, 58, 49
4, 139356, Note_on_c, 2, 53, 41
4, 139416, Note_on_c, 2, 53, 0
4, 139436, Note_on_c, 2, 58, 0
4, 139440, Control_c, 2, 64, 0
4, 139740, Note_on_c, 2, 51, 55
4, 139740, Note_on_c, 2, 58, 64
4, 139852, Note_on_c, 2, 58, 0
4, 139932, Note_on_c, 2, 51, 0
4, 140124, Control_c, 2, 64, 127
4, 140124, Note_on_c, 2, 58, 49
4, 140124, Note_on_c, 2, 51, 41
4, 140184, Note_on_c, 2, 51, 0
4, 140212, Note_on_c, 2, 58, 0
4, 140220, Control_c, 2, 64, 0
4, 140504, Note_on_c, 2, 51, 55
4, 140508, Note_on_c, 2, 57, 64
4, 140620, Note_on_c, 2, 57, 0
4, 140700, Note_on_c, 2, 51, 0
4, 140892, Control_c, 2, 64, 127
4, 140892, Note_on_c, 2, 57, 49
4, 140892, Note_on_c, 2, 51, 41
4, 140952, Note_on_c, 2, 51, 0
4, 140980, Note_on_c, 2, 57, 0
4, 140980, Control_c, 2, 64, 0
4, 141276, Note_on_c, 2, 53, 55
4, 141276, Note_on_c, 2, 60, 64
4, 141388, Note_on_c, 2, 60, 0
4, 141468, Note_on_c, 2, 53, 0
4, 141660, Control_c, 2, 64, 127
4, 141660, Note_on_c, 2, 60, 49
4, 141660, Note_on_c, 2, 53, 41
4, 141720, Note_on_c, 2, 53, 0
4, 141748, Note_on_c, 2, 60, 0
4, 141748, Control_c, 2, 64, 0
4, 142040, Note_on_c, 2, 53, 55
4, 142044, Note_on_c, 2, 59, 64
4, 142156, Note_on_c, 2, 59, 0
4, 142236, Note_on_c, 2, 53, 0
4, 142428, Control_c, 2, 64, 127
4, 142428, Note_on_c, 2, 59, 49
4, 142428, Note_on_c, 2, 53, 41
4, 142484, Note_on_c, 2, 53, 0
4, 142516, Note_on_c, 2, 59, 0
4, 142516, Control_c, 2, 64, 0
4, 142812, Note_on_c, 2, 51, 55
4, 142812, Note_on_c, 2, 58, 64
4, 142924, Note_on_c, 2, 58, 0
4, 143004, Note_on_c, 2, 51, 0
4, 143192, Control_c, 2, 64, 127
4, 143196, Note_on_c, 2, 58, 49
4, 143196, Note_on_c, 2, 51, 41
4, 143252, Note_on_c, 2, 51, 0
4, 143284, Note_on_c, 2, 58, 0
4, 143284, Control_c, 2, 64, 0
4, 143576, Note_on_c, 2, 51, 55
4, 143580, Note_on_c, 2, 57, 64
4, 143692, Note_on_c, 2, 57, 0
4, 143772, Note_on_c, 2, 51, 0
4, 143964, Control_c, 2, 64, 127
4, 143964, Note_on_c, 2, 57, 49
4, 143964, Note_on_c, 2, 51, 41
4, 144024, Note_on_c, 2, 51, 0
4, 144044, Note_on_c, 2, 57, 0
4, 144052, Control_c, 2, 64, 0
4, 144348, Note_on_c, 2, 51, 55
4, 144348, Note_on_c, 2, 56, 64
4, 144460, Note_on_c, 2, 56, 0
4, 144540, Note_on_c, 2, 51, 0
4, 144732, Control_c, 2, 64, 127
4, 144732, Note_on_c, 2, 56, 49
4, 144732, Note_on_c, 2, 51, 41
4, 144792, Note_on_c, 2, 51, 0
4, 144820, Note_on_c, 2, 56, 0
4, 144824, Control_c, 2, 64, 0
4, 145116, Note_on_c, 2, 50, 55
4, 145116, Note_on_c, 2, 56, 64
4, 145228, Note_on_c, 2, 56, 0
4, 145308, Note_on_c, 2, 50, 0
4, 145500, Control_c, 2, 64, 127
4, 145500, Note_on_c, 2, 56, 49
4, 145500, Note_on_c, 2, 50, 41
4, 145560, Note_on_c, 2, 50, 0
4, 145588, Note_on_c, 2, 56, 0
4, 145596, Control_c, 2, 64, 0
4, 145880, Note_on_c, 2, 48, 55
4, 145884, Note_on_c, 2, 55, 64
4, 145996, Note_on_c, 2, 55, 0
4, 146076, Note_on_c, 2, 48, 0
4, 146268, Control_c, 2, 64, 127
4, 146268, Note_on_c, 2, 55, 49
4, 146268, Note_on_c, 2, 48, 41
4, 146328, Note_on_c, 2, 48, 0
4, 146356, Note_on_c, 2, 55, 0
4, 146356, Control_c, 2, 64, 0
4, 146644, Note_on_c, 2, 54, 55
4, 146652, Note_on_c, 2, 60, 64
4, 146764, Note_on_c, 2, 60, 0
4, 146844, Note_on_c, 2, 54, 0
4, 147036, Control_c, 2, 64, 127
4, 147036, Note_on_c, 2, 60, 49
4, 147036, Note_on_c, 2, 54, 41
4, 147092, Note_on_c, 2, 54, 0
4, 147124, Note_on_c, 2, 60, 0
4, 147124, Control_c, 2, 64, 0
4, 147420, Note_on_c, 2, 53, 55
4, 147420, Note_on_c, 2, 60, 64
4, 147532, Note_on_c, 2, 60, 0
4, 147612, Note_on_c, 2, 53, 0
4, 147804, Control_c, 2, 64, 0
4, 147804, Control_c, 2, 64, 0
4, 147804, Note_on_c, 2, 53, 55
4, 147804, Note_on_c, 2, 59, 64
4, 147916, Note_on_c, 2, 59, 0
4, 147996, Note_on_c, 2, 53, 0
4, 148184, Control_c, 2, 64, 0
4, 148188, Control_c, 2, 64, 0
4, 148188, Note_on_c, 2, 51, 55
4, 148188, Note_on_c, 2, 58, 64
4, 148300, Note_on_c, 2, 58, 0
4, 148380, Note_on_c, 2, 51, 0
4, 148572, Control_c, 2, 64, 0
4, 148572, Control_c, 2, 64, 0
4, 148572, Note_on_c, 2, 51, 55
4, 148572, Note_on_c, 2, 57, 64
4, 148684, Note_on_c, 2, 57, 0
4, 148764, Note_on_c, 2, 51, 0
4, 148952, Control_c, 2, 64, 0
4, 148956, Control_c, 2, 64, 0
4, 148956, Note_on_c, 2, 50, 55
4, 148956, Note_on_c, 2, 55, 64
4, 149068, Note_on_c, 2, 55, 0
4, 149148, Note_on_c, 2, 50, 0
4, 149340, Control_c, 2, 64, 127
4, 149340, Note_on_c, 2, 55, 49
4, 149340, Note_on_c, 2, 50, 41
4, 149400, Note_on_c, 2, 50, 0
4, 149428, Note_on_c, 2, 55, 0
4, 149432, Control_c, 2, 64, 0
4, 149724, Note_on_c, 2, 51, 55
4, 149724, Note_on_c, 2, 57, 64
4, 149836, Note_on_c, 2, 57, 0
4, 149916, Note_on_c, 2, 51, 0
4, 150108, Control_c, 2, 64, 127
4, 150108, Note_on_c, 2, 57, 49
4, 150108, Note_on_c, 2, 51, 41
4, 150168, Note_on_c, 2, 51, 0
4, 150196, Note_on_c, 2, 57, 0
4, 150204, Control_c, 2, 64, 0
4, 150492, Note_on_c, 2, 50, 55
4, 150492, Note_on_c, 2, 55, 64
4, 150604, Note_on_c, 2, 55, 0
4, 150684, Note_on_c, 2, 50, 0
4, 150876, Control_c, 2, 64, 127
4, 150876, Note_on_c, 2, 55, 49
4, 150876, Note_on_c, 2, 50, 41
4, 150936, Note_on_c, 2, 50, 0
4, 150964, Note_on_c, 2, 55, 0
4, 150964, Control_c, 2, 64, 0
4, 151260, Note_on_c, 2, 53, 55
4, 151260, Note_on_c, 2, 58, 64
4, 151372, Note_on_c, 2, 58, 0
4, 151452, Note_on_c, 2, 53, 0
4, 151644, Control_c, 2, 64, 127
4, 151644, Note_on_c, 2, 58, 49
4, 151644, Note_on_c, 2, 53, 41
4, 151704, Note_on_c, 2, 53, 0
4, 151732, Note_on_c, 2, 58, 0
4, 151736, Control_c, 2, 64, 0
4, 152028, Note_on_c, 2, 51, 55
4, 152028, Note_on_c, 2, 58, 64
4, 152140, Note_on_c, 2, 58, 0
4, 152220, Note_on_c, 2, 51, 0
4, 152412, Control_c, 2, 64, 127
4, 152412, Note_on_c, 2, 58, 49
4, 152412, Note_on_c, 2, 51, 41
4, 152468, Note_on_c, 2, 51, 0
4, 152500, Note_on_c, 2, 58, 0
4, 152500, Control_c, 2, 64, 0
4, 152796, Note_on_c, 2, 51, 55
4, 152796, Note_on_c, 2, 57, 64
4, 152908, Note_on_c, 2, 57, 0
4, 152988, Note_on_c, 2, 51, 0
4, 153180, Control_c, 2, 64, 127
4, 153180, Note_on_c, 2, 57, 49
4, 153180, Note_on_c, 2, 51, 41
4, 153232, Note_on_c, 2, 51, 0
4, 153268, Note_on_c, 2, 57, 0
4, 153268, Control_c, 2, 64, 0
4, 153564, Note_on_c, 2, 53, 55
4, 153564, Note_on_c, 2, 60, 64
4, 153676, Note_on_c, 2, 60, 0
4, 153756, Note_on_c, 2, 53, 0
4, 153948, Control_c, 2, 64, 127
4, 153948, Note_on_c, 2, 60, 49
4, 153948, Note_on_c, 2, 53, 41
4, 154008, Note_on_c, 2, 53, 0
4, 154028, Note_on_c, 2, 60, 0
4, 154032, Control_c, 2, 64, 0
4, 154332, Note_on_c, 2, 53, 55
4, 154332, Note_on_c, 2, 59, 64
4, 154444, Note_on_c, 2, 59, 0
4, 154524, Note_on_c, 2, 53, 0
4, 154716, Control_c, 2, 64, 127
4, 154716, Note_on_c, 2, 59, 49
4, 154716, Note_on_c, 2, 53, 41
4, 154776, Note_on_c, 2, 53, 0
4, 154804, Note_on_c, 2, 59, 0
4, 154812, Control_c, 2, 64, 0
4, 155096, Note_on_c, 2, 51, 55
4, 155100, Note_on_c, 2, 58, 64
4, 155212, Note_on_c, 2, 58, 0
4, 155292, Note_on_c, 2, 51, 0
4, 155484, Control_c, 2, 64, 127
4, 155484, Note_on_c, 2, 58, 49
4, 155484, Note_on_c, 2, 51, 41
4, 155544, Note_on_c, 2, 51, 0
4, 155572, Note_on_c, 2, 58, 0
4, 155572, Control_c, 2, 64, 0
4, 155864, Note_on_c, 2, 51, 55
4, 155868, Note_on_c, 2, 57, 64
4, 155980, Note_on_c, 2, 57, 0
4, 156060, Note_on_c, 2, 51, 0
4, 156252, Control_c, 2, 64, 127
4, 156252, Note_on_c, 2, 57, 49
4, 156252, Note_on_c, 2, 51, 41
4, 156312, Note_on_c, 2, 51, 0
4, 156340, Note_on_c, 2, 57, 0
4, 156340, Control_c, 2, 64, 0
4, 156632, Note_on_c, 2, 51, 55
4, 156636, Note_on_c, 2, 56, 64
4, 156748, Note_on_c, 2, 56, 0
4, 156828, Note_on_c, 2, 51, 0
4, 157020, Control_c, 2, 64, 127
4, 157020, Note_on_c, 2, 56, 49
4, 157020, Note_on_c, 2, 51, 41
4, 157076, Note_on_c, 2, 51, 0
4, 157108, Note_on_c, 2, 56, 0
4, 157108, Control_c, 2, 64, 0
4, 157404, Note_on_c, 2, 50, 55
4, 157404, Note_on_c, 2, 56, 64
4, 157516, Note_on_c, 2, 56, 0
4, 157596, Note_on_c, 2, 50, 0
4, 157788, Control_c, 2, 64, 127
4, 157788, Note_on_c, 2, 56, 49
4, 157788, Note_on_c, 2, 50, 41
4, 157840, Note_on_c, 2, 50, 0
4, 157880, Note_on_c, 2, 56, 0
4, 157880, Control_c, 2, 64, 0
4, 158168, Note_on_c, 2, 48, 55
4, 158172, Note_on_c, 2, 55, 64
4, 158284, Note_on_c, 2, 55, 0
4, 158364, Note_on_c, 2, 48, 0
4, 158556, Control_c, 2, 64, 127
4, 158556, Note_on_c, 2, 55, 49
4, 158556, Note_on_c, 2, 48, 41
4, 158616, Note_on_c, 2, 48, 0
4, 158636, Note_on_c, 2, 55, 0
4, 158640, Control_c, 2, 64, 0
4, 158940, Note_on_c, 2, 54, 55
4, 158940, Note_on_c, 2, 60, 64
4, 159052, Note_on_c, 2, 60, 0
4, 159132, Note_on_c, 2, 54, 0
4, 159324, Control_c, 2, 64, 127
4, 159324, Note_on_c, 2, 60, 49
4, 159324, Note_on_c, 2, 54, 41
4, 159384, Note_on_c, 2, 54, 0
4, 159412, Note_on_c, 2, 60, 0
4, 159420, Control_c, 2, 64, 0
4, 159708, Note_on_c, 2, 53, 55
4, 159708, Note_on_c, 2, 60, 64
4, 159820, Note_on_c, 2, 60, 0
4, 159900, Note_on_c, 2, 53, 0
4, 160092, Control_c, 2, 64, 0
4, 160092, Control_c, 2, 64, 0
4, 160092, Note_on_c, 2, 53, 55
4, 160092, Note_on_c, 2, 59, 64
4, 160204, Note_on_c, 2, 59, 0
4, 160284, Note_on_c, 2, 53, 0
4, 160472, Control_c, 2, 64, 0
4, 160476, Control_c, 2, 64, 0
4, 160476, Note_on_c, 2, 51, 55
4, 160476, Note_on_c, 2, 58, 64
4, 160588, Note_on_c, 2, 58, 0
4, 160668, Note_on_c, 2, 51, 0
4, 160860, Control_c, 2, 64, 0
4, 160860, Control_c, 2, 64, 0
4, 160860, Note_on_c, 2, 51, 55
4, 160860, Note_on_c, 2, 57, 64
4, 160972, Note_on_c, 2, 57, 0
4, 161052, Note_on_c, 2, 51, 0
4, 161240, Control_c, 2, 64, 0
4, 161240, Control_c, 2, 64, 0
4, 161244, Note_on_c, 2, 50, 55
4, 161244, Note_on_c, 2, 55, 64
4, 161356, Note_on_c, 2, 55, 0
4, 161436, Note_on_c, 2, 50, 0
4, 161628, Control_c, 2, 64, 127
4, 161628, Note_on_c, 2, 55, 49
4, 161628, Note_on_c, 2, 50, 41
4, 161684, Note_on_c, 2, 50, 0
4, 161716, Note_on_c, 2, 55, 0
4, 161716, Control_c, 2, 64, 0
4, 162012, Note_on_c, 2, 51, 55
4, 162012, Note_on_c, 2, 57, 64
4, 162124, Note_on_c, 2, 57, 0
4, 162204, Note_on_c, 2, 51, 0
4, 162396, Control_c, 2, 64, 127
4, 162396, Note_on_c, 2, 57, 49
4, 162396, Note_on_c, 2, 51, 41
4, 162452, Note_on_c, 2, 51, 0
4, 162484, Note_on_c, 2, 57, 0
4, 162484, Control_c, 2, 64, 0
4, 162780, Note_on_c, 2, 50, 55
4, 162780, Note_on_c, 2, 55, 64
4, 162892, Note_on_c, 2, 55, 0
4, 162972, Note_on_c, 2, 50, 0
4, 163164, Control_c, 2, 64, 127
4, 163164, Note_on_c, 2, 55, 49
4, 163164, Note_on_c, 2, 50, 41
4, 163224, Note_on_c, 2, 50, 0
4, 163244, Note_on_c, 2, 55, 0
4, 163252, Control_c, 2, 64, 0
4, 163548, Note_on_c, 2, 53, 55
4, 163548, Note_on_c, 2, 58, 64
4, 163660, Note_on_c, 2, 58, 0
4, 163740, Note_on_c, 2, 53, 0
4, 163932, Control_c, 2, 64, 127
4, 163932, Note_on_c, 2, 58, 49
4, 163932, Note_on_c, 2, 53, 41
4, 163992, Note_on_c, 2, 53, 0
4, 164020, Note_on_c, 2, 58, 0
4, 164024, Control_c, 2, 64, 0
4, 164316, Note_on_c, 2, 51, 55
4, 164316, Note_on_c, 2, 58, 64
4, 164428, Note_on_c, 2, 58, 0
4, 164508, Note_on_c, 2, 51, 0
4, 164696, Control_c, 2, 64, 127
4, 164700, Note_on_c, 2, 58, 49
4, 164700, Note_on_c, 2, 51, 41
4, 164760, Note_on_c, 2, 51, 0
4, 164788, Note_on_c, 2, 58, 0
4, 164796, Control_c, 2, 64, 0
4, 165084, Note_on_c, 2, 51, 55
4, 165084, Note_on_c, 2, 57, 64
4, 165196, Note_on_c, 2, 57, 0
4, 165276, Note_on_c, 2, 51, 0
4, 165468, Control_c, 2, 64, 127
4, 165468, Note_on_c, 2, 57, 49
4, 165468, Note_on_c, 2, 51, 41
4, 165528, Note_on_c, 2, 51, 0
4, 165556, Note_on_c, 2, 57, 0
4, 165556, Control_c, 2, 64, 0
4, 165848, Note_on_c, 2, 53, 55
4, 165852, Note_on_c, 2, 60, 64
4, 165964, Note_on_c, 2, 60, 0
4, 166044, Note_on_c, 2, 53, 0
4, 166236, Control_c, 2, 64, 127
4, 166236, Note_on_c, 2, 60, 49
4, 166236, Note_on_c, 2, 53, 41
4, 166292, Note_on_c, 2, 53, 0
4, 166324, Note_on_c, 2, 60, 0
4, 166324, Control_c, 2, 64, 0
4, 166616, Note_on_c, 2, 53, 55
4, 166620, Note_on_c, 2, 59, 64
4, 166732, Note_on_c, 2, 59, 0
4, 166812, Note_on_c, 2, 53, 0
4, 167004, Control_c, 2, 64, 127
4, 167004, Note_on_c, 2, 59, 49
4, 167004, Note_on_c, 2, 53, 41
4, 167060, Note_on_c, 2, 53, 0
4, 167092, Note_on_c, 2, 59, 0
4, 167092, Control_c, 2, 64, 0
4, 167388, Note_on_c, 2, 51, 55
4, 167388, Note_on_c, 2, 58, 64
4, 167500, Note_on_c, 2, 58, 0
4, 167580, Note_on_c, 2, 51, 0
4, 167772, Control_c, 2, 64, 127
4, 167772, Note_on_c, 2, 58, 49
4, 167772, Note_on_c, 2, 51, 41
4, 167832, Note_on_c, 2, 51, 0
4, 167852, Note_on_c, 2, 58, 0
4, 167860, Control_c, 2, 64, 0
4, 168156, Note_on_c, 2, 51, 55
4, 168156, Note_on_c, 2, 57, 64
4, 168268, Note_on_c, 2, 57, 0
4, 168348, Note_on_c, 2, 51, 0
4, 168540, Control_c, 2, 64, 127
4, 168540, Note_on_c, 2, 57, 49
4, 168540, Note_on_c, 2, 51, 41
4, 168600, Note_on_c, 2, 51, 0
4, 168628, Note_on_c, 2, 57, 0
4, 168632, Control_c, 2, 64, 0
4, 168924, Note_on_c, 2, 51, 55
4, 168924, Note_on_c, 2, 56, 64
4, 169036, Note_on_c, 2, 56, 0
4, 169116, Note_on_c, 2, 51, 0
4, 169308, Control_c, 2, 64, 127
4, 169308, Note_on_c, 2, 56, 49
4, 169308, Note_on_c, 2, 51, 41
4, 169368, Note_on_c, 2, 51, 0
4, 169396, Note_on_c, 2, 56, 0
4, 169404, Control_c, 2, 64, 0
4, 169688, Note_on_c, 2, 50, 55
4, 169692, Note_on_c, 2, 56, 64
4, 169804, Note_on_c, 2, 56, 0
4, 169884, Note_on_c, 2, 50, 0
4, 170076, Control_c, 2, 64, 127
4, 170076, Note_on_c, 2, 56, 49
4, 170076, Note_on_c, 2, 50, 41
4, 170136, Note_on_c, 2, 50, 0
4, 170164, Note_on_c, 2, 56, 0
4, 170168, Control_c, 2, 64, 0
4, 170456, Note_on_c, 2, 48, 55
4, 170460, Note_on_c, 2, 55, 64
4, 170572, Note_on_c, 2, 55, 0
4, 170652, Note_on_c, 2, 48, 0
4, 170840, Control_c, 2, 64, 127
4, 170844, Note_on_c, 2, 55, 49
4, 170844, Note_on_c, 2, 48, 41
4, 170904, Note_on_c, 2, 48, 0
4, 170932, Note_on_c, 2, 55, 0
4, 170932, Control_c, 2, 64, 0
4, 171224, Note_on_c, 2, 54, 55
4, 171228, Note_on_c, 2, 60, 64
4, 171340, Note_on_c, 2, 60, 0
4, 171420, Note_on_c, 2, 54, 0
4, 171612, Control_c, 2, 64, 127
4, 171612, Note_on_c, 2, 60, 49
4, 171612, Note_on_c, 2, 54, 41
4, 171668, Note_on_c, 2, 54, 0
4, 171700, Note_on_c, 2, 60, 0
4, 171700, Control_c, 2, 64, 0
4, 171996, Note_on_c, 2, 53, 55
4, 171996, Note_on_c, 2, 60, 64
4, 172108, Note_on_c, 2, 60, 0
4, 172188, Note_on_c, 2, 53, 0
4, 172380, Control_c, 2, 64, 0
4, 172380, Control_c, 2, 64, 0
4, 172380, Note_on_c, 2, 53, 55
4, 172380, Note_on_c, 2, 59, 64
4, 172492, Note_on_c, 2, 59, 0
4, 172572, Note_on_c, 2, 53, 0
4, 172760, Control_c, 2, 64, 0
4, 172764, Control_c, 2, 64, 0
4, 172764, Note_on_c, 2, 51, 55
4, 172764, Note_on_c, 2, 58, 64
4, 172876, Note_on_c, 2, 58, 0
4, 172956, Note_on_c, 2, 51, 0
4, 173148, Control_c, 2, 64, 0
4, 173148, Control_c, 2, 64, 0
4, 173148, Note_on_c, 2, 51, 55
4, 173148, Note_on_c, 2, 57, 64
4, 173260, Note_on_c, 2, 57, 0
4, 173340, Note_on_c, 2, 51, 0
4, 173532, Control_c, 2, 64, 0
4, 173532, Control_c, 2, 64, 0
4, 173532, Note_on_c, 2, 50, 55
4, 173532, Note_on_c, 2, 55, 64
4, 173644, Note_on_c, 2, 55, 0
4, 173724, Note_on_c, 2, 50, 0
4, 173916, Control_c, 2, 64, 127
4, 173916, Note_on_c, 2, 55, 49
4, 173916, Note_on_c, 2, 50, 41
4, 173976, Note_on_c, 2, 50, 0
4, 174004, Note_on_c, 2, 55, 0
4, 174012, Control_c, 2, 64, 0
4, 174300, Note_on_c, 2, 50, 55
4, 174300, Note_on_c, 2, 56, 64
4, 174412, Note_on_c, 2, 56, 0
4, 174492, Note_on_c, 2, 50, 0
4, 174684, Control_c, 2, 64, 127
4, 174684, Note_on_c, 2, 56, 49
4, 174684, Note_on_c, 2, 50, 41
4, 174744, Note_on_c, 2, 50, 0
4, 174776, Note_on_c, 2, 56, 0
4, 174776, Control_c, 2, 64, 0
4, 175068, Note_on_c, 2, 48, 55
4, 175068, Note_on_c, 2, 55, 64
4, 175180, Note_on_c, 2, 55, 0
4, 175260, Note_on_c, 2, 48, 0
4, 175448, Control_c, 2, 64, 127
4, 175452, Note_on_c, 2, 55, 49
4, 175452, Note_on_c, 2, 48, 41
4, 175512, Note_on_c, 2, 48, 0
4, 175540, Note_on_c, 2, 55, 0
4, 175540, Control_c, 2, 64, 0
4, 175836, Note_on_c, 2, 52, 55
4, 175836, Note_on_c, 2, 58, 64
4, 175948, Note_on_c, 2, 58, 0
4, 176028, Note_on_c, 2, 52, 0
4, 176220, Control_c, 2, 64, 127
4, 176220, Note_on_c, 2, 58, 49
4, 176220, Note_on_c, 2, 52, 41
4, 176276, Note_on_c, 2, 52, 0
4, 176308, Note_on_c, 2, 58, 0
4, 176308, Control_c, 2, 64, 0
4, 176600, Note_on_c, 2, 51, 55
4, 176604, Note_on_c, 2, 56, 64
4, 176716, Note_on_c, 2, 56, 0
4, 176796, Note_on_c, 2, 51, 0
4, 176988, Control_c, 2, 64, 127
4, 176988, Note_on_c, 2, 56, 49
4, 176988, Note_on_c, 2, 51, 41
4, 177040, Note_on_c, 2, 51, 0
4, 177076, Note_on_c, 2, 56, 0
4, 177076, Control_c, 2, 64, 0
4, 177372, Note_on_c, 2, 50, 55
4, 177372, Note_on_c, 2, 56, 64
4, 177484, Note_on_c, 2, 56, 0
4, 177564, Note_on_c, 2, 50, 0
4, 177756, Control_c, 2, 64, 127
4, 177756, Note_on_c, 2, 56, 49
4, 177756, Note_on_c, 2, 50, 41
4, 177816, Note_on_c, 2, 50, 0
4, 177836, Note_on_c, 2, 56, 0
4, 177840, Control_c, 2, 64, 0
4, 178136, Note_on_c, 2, 53, 55
4, 178140, Note_on_c, 2, 58, 64
4, 178252, Note_on_c, 2, 58, 0
4, 178332, Note_on_c, 2, 53, 0
4, 178524, Control_c, 2, 64, 127
4, 178524, Note_on_c, 2, 58, 49
4, 178524, Note_on_c, 2, 53, 41
4, 178584, Note_on_c, 2, 53, 0
4, 178612, Note_on_c, 2, 58, 0
4, 178620, Control_c, 2, 64, 0
4, 178904, Note_on_c, 2, 52, 55
4, 178908, Note_on_c, 2, 58, 64
4, 179020, Note_on_c, 2, 58, 0
4, 179100, Note_on_c, 2, 52, 0
4, 179292, Control_c, 2, 64, 127
4, 179292, Note_on_c, 2, 58, 49
4, 179292, Note_on_c, 2, 52, 41
4, 179352, Note_on_c, 2, 52, 0
4, 179380, Note_on_c, 2, 58, 0
4, 179380, Control_c, 2, 64, 0
4, 179672, Note_on_c, 2, 51, 55
4, 179676, Note_on_c, 2, 56, 64
4, 179788, Note_on_c, 2, 56, 0
4, 179868, Note_on_c, 2, 51, 0
4, 180060, Control_c, 2, 64, 127
4, 180060, Note_on_c, 2, 56, 49
4, 180060, Note_on_c, 2, 51, 41
4, 180120, Note_on_c, 2, 51, 0
4, 180148, Note_on_c, 2, 56, 0
4, 180148, Control_c, 2, 64, 0
4, 180440, Note_on_c, 2, 50, 55
4, 180444, Note_on_c, 2, 56, 64
4, 180556, Note_on_c, 2, 56, 0
4, 180636, Note_on_c, 2, 50, 0
4, 180828, Control_c, 2, 64, 127
4, 180828, Note_on_c, 2, 56, 49
4, 180828, Note_on_c, 2, 50, 41
4, 180884, Note_on_c, 2, 50, 0
4, 180916, Note_on_c, 2, 56, 0
4, 180916, Control_c, 2, 64, 0
4, 181212, Note_on_c, 2, 49, 55
4, 181212, Note_on_c, 2, 56, 64
4, 181324, Note_on_c, 2, 56, 0
4, 181404, Note_on_c, 2, 49, 0
4, 181596, Control_c, 2, 64, 127
4, 181596, Note_on_c, 2, 56, 49
4, 181596, Note_on_c, 2, 49, 41
4, 181652, Note_on_c, 2, 49, 0
4, 181684, Note_on_c, 2, 56, 0
4, 181684, Control_c, 2, 64, 0
4, 181980, Note_on_c, 2, 49, 55
4, 181980, Note_on_c, 2, 55, 64
4, 182092, Note_on_c, 2, 55, 0
4, 182172, Note_on_c, 2, 49, 0
4, 182364, Control_c, 2, 64, 127
4, 182364, Note_on_c, 2, 55, 49
4, 182364, Note_on_c, 2, 49, 41
4, 182424, Note_on_c, 2, 49, 0
4, 182444, Note_on_c, 2, 55, 0
4, 182452, Control_c, 2, 64, 0
4, 182744, Note_on_c, 2, 55, 55
4, 182748, Note_on_c, 2, 60, 64
4, 182860, Note_on_c, 2, 60, 0
4, 182940, Note_on_c, 2, 55, 0
4, 183132, Control_c, 2, 64, 127
4, 183132, Note_on_c, 2, 60, 49
4, 183132, Note_on_c, 2, 55, 41
4, 183192, Note_on_c, 2, 55, 0
4, 183220, Note_on_c, 2, 60, 0
4, 183224, Control_c, 2, 64, 0
4, 183516, Note_on_c, 2, 53, 55
4, 183516, Note_on_c, 2, 59, 64
4, 183628, Note_on_c, 2, 59, 0
4, 183708, Note_on_c, 2, 53, 0
4, 183900, Control_c, 2, 64, 127
4, 183900, Note_on_c, 2, 59, 49
4, 183900, Note_on_c, 2, 53, 41
4, 183960, Note_on_c, 2, 53, 0
4, 183988, Note_on_c, 2, 59, 0
4, 183996, Control_c, 2, 64, 0
4, 184280, Note_on_c, 2, 53, 55
4, 184284, Note_on_c, 2, 58, 64
4, 184396, Note_on_c, 2, 58, 0
4, 184476, Note_on_c, 2, 53, 0
4, 184668, Control_c, 2, 64, 0
4, 184668, Control_c, 2, 64, 0
4, 184668, Note_on_c, 2, 52, 55
4, 184668, Note_on_c, 2, 58, 64
4, 184780, Note_on_c, 2, 58, 0
4, 184860, Note_on_c, 2, 52, 0
4, 185052, Control_c, 2, 64, 0
4, 185052, Control_c, 2, 64, 0
4, 185052, Note_on_c, 2, 51, 55
4, 185052, Note_on_c, 2, 56, 64
4, 185164, Note_on_c, 2, 56, 0
4, 185244, Note_on_c, 2, 51, 0
4, 185436, Control_c, 2, 64, 0
4, 185436, Control_c, 2, 64, 0
4, 185436, Note_on_c, 2, 50, 55
4, 185436, Note_on_c, 2, 56, 64
4, 185548, Note_on_c, 2, 56, 0
4, 185628, Note_on_c, 2, 50, 0
4, 185816, Control_c, 2, 64, 0
4, 185820, Control_c, 2, 64, 0
4, 185820, Note_on_c, 2, 48, 55
4, 185820, Note_on_c, 2, 55, 64
4, 185932, Note_on_c, 2, 55, 0
4, 186012, Note_on_c, 2, 48, 0
4, 186204, Control_c, 2, 64, 127
4, 186204, Note_on_c, 2, 55, 49
4, 186204, Note_on_c, 2, 48, 41
4, 186260, Note_on_c, 2, 48, 0
4, 186292, Note_on_c, 2, 55, 0
4, 186292, Control_c, 2, 64, 0
4, 186588, Note_on_c, 2, 51, 55
4, 186588, Note_on_c, 2, 57, 64
4, 186700, Note_on_c, 2, 57, 0
4, 186780, Note_on_c, 2, 51, 0
4, 186972, Control_c, 2, 64, 127
4, 186972, Note_on_c, 2, 57, 49
4, 186972, Note_on_c, 2, 51, 41
4, 187032, Note_on_c, 2, 51, 0
4, 187052, Note_on_c, 2, 57, 0
4, 187060, Control_c, 2, 64, 0
4, 187356, Note_on_c, 2, 50, 55
4, 187356, Note_on_c, 2, 55, 64
4, 187468, Note_on_c, 2, 55, 0
4, 187548, Note_on_c, 2, 50, 0
4, 187736, Control_c, 2, 64, 127
4, 187740, Note_on_c, 2, 55, 49
4, 187740, Note_on_c, 2, 50, 41
4, 187800, Note_on_c, 2, 50, 0
4, 187828, Note_on_c, 2, 55, 0
4, 187832, Control_c, 2, 64, 0
4, 188124, Note_on_c, 2, 53, 55
4, 188124, Note_on_c, 2, 58, 64
4, 188236, Note_on_c, 2, 58, 0
4, 188316, Note_on_c, 2, 53, 0
4, 188508, Control_c, 2, 64, 127
4, 188508, Note_on_c, 2, 58, 49
4, 188508, Note_on_c, 2, 53, 41
4, 188568, Note_on_c, 2, 53, 0
4, 188596, Note_on_c, 2, 58, 0
4, 188604, Control_c, 2, 64, 0
4, 188888, Note_on_c, 2, 51, 55
4, 188892, Note_on_c, 2, 58, 64
4, 189004, Note_on_c, 2, 58, 0
4, 189084, Note_on_c, 2, 51, 0
4, 189276, Control_c, 2, 64, 127
4, 189276, Note_on_c, 2, 58, 49
4, 189276, Note_on_c, 2, 51, 41
4, 189336, Note_on_c, 2, 51, 0
4, 189364, Note_on_c, 2, 58, 0
4, 189364, Control_c, 2, 64, 0
4, 189656, Note_on_c, 2, 51, 55
4, 189660, Note_on_c, 2, 57, 64
4, 189772, Note_on_c, 2, 57, 0
4, 189852, Note_on_c, 2, 51, 0
4, 190044, Control_c, 2, 64, 127
4, 190044, Note_on_c, 2, 57, 49
4, 190044, Note_on_c, 2, 51, 41
4, 190104, Note_on_c, 2, 51, 0
4, 190132, Note_on_c, 2, 57, 0
4, 190132, Control_c, 2, 64, 0
4, 190424, Note_on_c, 2, 53, 55
4, 190428, Note_on_c, 2, 60, 64
4, 190540, Note_on_c, 2, 60, 0
4, 190620, Note_on_c, 2, 53, 0
4, 190812, Control_c, 2, 64, 127
4, 190812, Note_on_c, 2, 60, 49
4, 190812, Note_on_c, 2, 53, 41
4, 190868, Note_on_c, 2, 53, 0
4, 190900, Note_on_c, 2, 60, 0
4, 190900, Control_c, 2, 64, 0
4, 191196, Note_on_c, 2, 53, 55
4, 191196, Note_on_c, 2, 59, 64
4, 191308, Note_on_c, 2, 59, 0
4, 191388, Note_on_c, 2, 53, 0
4, 191580, Control_c, 2, 64, 127
4, 191580, Note_on_c, 2, 59, 49
4, 191580, Note_on_c, 2, 53, 41
4, 191632, Note_on_c, 2, 53, 0
4, 191668, Note_on_c, 2, 59, 0
4, 191668, Control_c, 2, 64, 0
4, 191964, Note_on_c, 2, 51, 55
4, 191964, Note_on_c, 2, 58, 64
4, 192076, Note_on_c, 2, 58, 0
4, 192156, Note_on_c, 2, 51, 0
4, 192348, Control_c, 2, 64, 127
4, 192348, Note_on_c, 2, 58, 49
4, 192348, Note_on_c, 2, 51, 41
4, 192408, Note_on_c, 2, 51, 0
4, 192428, Note_on_c, 2, 58, 0
4, 192432, Control_c, 2, 64, 0
4, 192732, Note_on_c, 2, 51, 55
4, 192732, Note_on_c, 2, 57, 64
4, 192844, Note_on_c, 2, 57, 0
4, 192924, Note_on_c, 2, 51, 0
4, 193116, Control_c, 2, 64, 127
4, 193116, Note_on_c, 2, 57, 49
4, 193116, Note_on_c, 2, 51, 41
4, 193176, Note_on_c, 2, 51, 0
4, 193204, Note_on_c, 2, 57, 0
4, 193212, Control_c, 2, 64, 0
4, 193496, Note_on_c, 2, 51, 55
4, 193500, Note_on_c, 2, 56, 64
4, 193612, Note_on_c, 2, 56, 0
4, 193692, Note_on_c, 2, 51, 0
4, 193884, Control_c, 2, 64, 127
4, 193884, Note_on_c, 2, 56, 49
4, 193884, Note_on_c, 2, 51, 41
4, 193944, Note_on_c, 2, 51, 0
4, 193972, Note_on_c, 2, 56, 0
4, 193972, Control_c, 2, 64, 0
4, 194264, Note_on_c, 2, 50, 55
4, 194268, Note_on_c, 2, 56, 64
4, 194380, Note_on_c, 2, 56, 0
4, 194460, Note_on_c, 2, 50, 0
4, 194652, Control_c, 2, 64, 127
4, 194652, Note_on_c, 2, 56, 49
4, 194656, Note_on_c, 2, 50, 41
4, 194712, Note_on_c, 2, 50, 0
4, 194740, Note_on_c, 2, 56, 0
4, 194744, Control_c, 2, 64, 0
4, 195036, Note_on_c, 2, 48, 55
4, 195036, Note_on_c, 2, 55, 64
4, 195148, Note_on_c, 2, 55, 0
4, 195228, Note_on_c, 2, 48, 0
4, 195420, Control_c, 2, 64, 127
4, 195420, Note_on_c, 2, 55, 49
4, 195420, Note_on_c, 2, 48, 41
4, 195476, Note_on_c, 2, 48, 0
4, 195508, Note_on_c, 2, 55, 0
4, 195508, Control_c, 2, 64, 0
4, 195804, Note_on_c, 2, 54, 55
4, 195804, Note_on_c, 2, 60, 64
4, 195916, Note_on_c, 2, 60, 0
4, 195996, Note_on_c, 2, 54, 0
4, 196188, Control_c, 2, 64, 127
4, 196188, Note_on_c, 2, 60, 49
4, 196188, Note_on_c, 2, 54, 41
4, 196240, Note_on_c, 2, 54, 0
4, 196276, Note_on_c, 2, 60, 0
4, 196276, Control_c, 2, 64, 0
4, 196572, Note_on_c, 2, 53, 55
4, 196572, Note_on_c, 2, 60, 64
4, 196684, Note_on_c, 2, 60, 0
4, 196764, Note_on_c, 2, 53, 0
4, 196956, Control_c, 2, 64, 0
4, 196956, Control_c, 2, 64, 0
4, 196956, Note_on_c, 2, 53, 55
4, 196956, Note_on_c, 2, 59, 64
4, 197068, Note_on_c, 2, 59, 0
4, 197148, Note_on_c, 2, 53, 0
4, 197340, Control_c, 2, 64, 0
4, 197340, Control_c, 2, 64, 0
4, 197340, Note_on_c, 2, 51, 55
4, 197340, Note_on_c, 2, 58, 64
4, 197452, Note_on_c, 2, 58, 0
4, 197532, Note_on_c, 2, 51, 0
4, 197724, Control_c, 2, 64, 0
4, 197724, Control_c, 2, 64, 0
4, 197724, Note_on_c, 2, 51, 55
4, 197724, Note_on_c, 2, 57, 64
4, 197836, Note_on_c, 2, 57, 0
4, 197916, Note_on_c, 2, 51, 0
4, 198108, Control_c, 2, 64, 0
4, 198108, Control_c, 2, 64, 0
4, 198108, Note_on_c, 2, 50, 55
4, 198108, Note_on_c, 2, 55, 64
4, 198220, Note_on_c, 2, 55, 0
4, 198300, Note_on_c, 2, 50, 0
4, 198492, Control_c, 2, 64, 127
4, 198492, Note_on_c, 2, 55, 49
4, 198492, Note_on_c, 2, 50, 41
4, 198552, Note_on_c, 2, 50, 0
4, 198580, Note_on_c, 2, 55, 0
4, 198580, Control_c, 2, 64, 0
4, 198876, Note_on_c, 2, 51, 55
4, 198876, Note_on_c, 2, 57, 64
4, 198988, Note_on_c, 2, 57, 0
4, 199068, Note_on_c, 2, 51, 0
4, 199260, Control_c, 2, 64, 127
4, 199260, Note_on_c, 2, 57, 49
4, 199260, Note_on_c, 2, 51, 41
4, 199320, Note_on_c, 2, 51, 0
4, 199352, Note_on_c, 2, 57, 0
4, 199352, Control_c, 2, 64, 0
4, 199640, Note_on_c, 2, 50, 55
4, 199648, Note_on_c, 2, 55, 64
4, 199756, Note_on_c, 2, 55, 0
4, 199836, Note_on_c, 2, 50, 0
4, 200028, Control_c, 2, 64, 127
4, 200028, Note_on_c, 2, 55, 49
4, 200028, Note_on_c, 2, 50, 41
4, 200084, Note_on_c, 2, 50, 0
4, 200116, Note_on_c, 2, 55, 0
4, 200116, Control_c, 2, 64, 0
4, 200412, Note_on_c, 2, 53, 55
4, 200412, Note_on_c, 2, 58, 64
4, 200524, Note_on_c, 2, 58, 0
4, 200604, Note_on_c, 2, 53, 0
4, 200796, Control_c, 2, 64, 127
4, 200796, Note_on_c, 2, 58, 49
4, 200796, Note_on_c, 2, 53, 41
4, 200852, Note_on_c, 2, 53, 0
4, 200884, Note_on_c, 2, 58, 0
4, 200884, Control_c, 2, 64, 0
4, 201180, Note_on_c, 2, 51, 55
4, 201180, Note_on_c, 2, 58, 64
4, 201292, Note_on_c, 2, 58, 0
4, 201372, Note_on_c, 2, 51, 0
4, 201564, Control_c, 2, 64, 127
4, 201564, Note_on_c, 2, 58, 49
4, 201564, Note_on_c, 2, 51, 41
4, 201624, Note_on_c, 2, 51, 0
4, 201644, Note_on_c, 2, 58, 0
4, 201652, Control_c, 2, 64, 0
4, 201948, Note_on_c, 2, 51, 55
4, 201948, Note_on_c, 2, 57, 64
4, 202060, Note_on_c, 2, 57, 0
4, 202140, Note_on_c, 2, 51, 0
4, 202332, Control_c, 2, 64, 127
4, 202332, Note_on_c, 2, 57, 49
4, 202332, Note_on_c, 2, 51, 41
4, 202392, Note_on_c, 2, 51, 0
4, 202420, Note_on_c, 2, 57, 0
4, 202424, Control_c, 2, 64, 0
4, 202712, Note_on_c, 2, 53, 55
4, 202716, Note_on_c, 2, 60, 64
4, 202828, Note_on_c, 2, 60, 0
4, 202908, Note_on_c, 2, 53, 0
4, 203100, Control_c, 2, 64, 127
4, 203100, Note_on_c, 2, 60, 49
4, 203100, Note_on_c, 2, 53, 41
4, 203160, Note_on_c, 2, 53, 0
4, 203188, Note_on_c, 2, 60, 0
4, 203196, Control_c, 2, 64, 0
4, 203480, Note_on_c, 2, 53, 55
4, 203484, Note_on_c, 2, 59, 64
4, 203596, Note_on_c, 2, 59, 0
4, 203676, Note_on_c, 2, 53, 0
4, 203868, Control_c, 2, 64, 127
4, 203868, Note_on_c, 2, 59, 49
4, 203868, Note_on_c, 2, 53, 41
4, 203928, Note_on_c, 2, 53, 0
4, 203956, Note_on_c, 2, 59, 0
4, 203956, Control_c, 2, 64, 0
4, 204248, Note_on_c, 2, 51, 55
4, 204252, Note_on_c, 2, 58, 64
4, 204364, Note_on_c, 2, 58, 0
4, 204444, Note_on_c, 2, 51, 0
4, 204636, Control_c, 2, 64, 127
4, 204636, Note_on_c, 2, 58, 49
4, 204636, Note_on_c, 2, 51, 41
4, 204692, Note_on_c, 2, 51, 0
4, 204724, Note_on_c, 2, 58, 0
4, 204724, Control_c, 2, 64, 0
4, 205016, Note_on_c, 2, 51, 55
4, 205020, Note_on_c, 2, 57, 64
4, 205132, Note_on_c, 2, 57, 0
4, 205212, Note_on_c, 2, 51, 0
4, 205404, Control_c, 2, 64, 127
4, 205404, Note_on_c, 2, 57, 49
4, 205404, Note_on_c, 2, 51, 41
4, 205460, Note_on_c, 2, 51, 0
4, 205492, Note_on_c, 2, 57, 0
4, 205492, Control_c, 2, 64, 0
4, 205788, Note_on_c, 2, 51, 55
4, 205788, Note_on_c, 2, 56, 64
4, 205900, Note_on_c, 2, 56, 0
4, 205980, Note_on_c, 2, 51, 0
4, 206172, Control_c, 2, 64, 127
4, 206172, Note_on_c, 2, 56, 49
4, 206172, Note_on_c, 2, 51, 41
4, 206232, Note_on_c, 2, 51, 0
4, 206252, Note_on_c, 2, 56, 0
4, 206260, Control_c, 2, 64, 0
4, 206556, Note_on_c, 2, 50, 55
4, 206556, Note_on_c, 2, 56, 64
4, 206668, Note_on_c, 2, 56, 0
4, 206748, Note_on_c, 2, 50, 0
4, 206940, Control_c, 2, 64, 127
4, 206940, Note_on_c, 2, 56, 49
4, 206940, Note_on_c, 2, 50, 41
4, 207000, Note_on_c, 2, 50, 0
4, 207028, Note_on_c, 2, 56, 0
4, 207032, Control_c, 2, 64, 0
4, 207324, Note_on_c, 2, 48, 55
4, 207324, Note_on_c, 2, 55, 64
4, 207436, Note_on_c, 2, 55, 0
4, 207516, Note_on_c, 2, 48, 0
4, 207708, Control_c, 2, 64, 127
4, 207708, Note_on_c, 2, 55, 49
4, 207708, Note_on_c, 2, 48, 41
4, 207768, Note_on_c, 2, 48, 0
4, 207796, Note_on_c, 2, 55, 0
4, 207804, Control_c, 2, 64, 0
4, 208092, Note_on_c, 2, 54, 55
4, 208092, Note_on_c, 2, 60, 64
4, 208204, Note_on_c, 2, 60, 0
4, 208284, Note_on_c, 2, 54, 0
4, 208476, Control_c, 2, 64, 127
4, 208476, Note_on_c, 2, 60, 49
4, 208476, Note_on_c, 2, 54, 41
4, 208536, Note_on_c, 2, 54, 0
4, 208564, Note_on_c, 2, 60, 0
4, 208568, Control_c, 2, 64, 0
4, 208860, Note_on_c, 2, 53, 55
4, 208860, Note_on_c, 2, 60, 64
4, 208972, Note_on_c, 2, 60, 0
4, 209052, Note_on_c, 2, 53, 0
4, 209240, Control_c, 2, 64, 0
4, 209244, Control_c, 2, 64, 0
4, 209244, Note_on_c, 2, 53, 55
4, 209244, Note_on_c, 2, 59, 64
4, 209356, Note_on_c, 2, 59, 0
4, 209436, Note_on_c, 2, 53, 0
4, 209624, Control_c, 2, 64, 0
4, 209628, Control_c, 2, 64, 0
4, 209628, Note_on_c, 2, 51, 55
4, 209628, Note_on_c, 2, 58, 64
4, 209740, Note_on_c, 2, 58, 0
4, 209820, Note_on_c, 2, 51, 0
4, 210012, Control_c, 2, 64, 0
4, 210012, Control_c, 2, 64, 0
4, 210012, Note_on_c, 2, 51, 55
4, 210012, Note_on_c, 2, 57, 64
4, 210124, Note_on_c, 2, 57, 0
4, 210204, Note_on_c, 2, 51, 0
4, 210392, Control_c, 2, 64, 0
4, 210396, Control_c, 2, 64, 0
4, 210396, Note_on_c, 2, 50, 55
4, 210396, Note_on_c, 2, 55, 64
4, 210508, Note_on_c, 2, 55, 0
4, 210588, Note_on_c, 2, 50, 0
4, 210776, Control_c, 2, 64, 127
4, 210780, Note_on_c, 2, 55, 49
4, 210780, Note_on_c, 2, 50, 41
4, 210832, Note_on_c, 2, 50, 0
4, 210868, Note_on_c, 2, 55, 0
4, 210868, Control_c, 2, 64, 0
4, 211164, Note_on_c, 2, 51, 55
4, 211164, Note_on_c, 2, 57, 64
4, 211276, Note_on_c, 2, 57, 0
4, 211356, Note_on_c, 2, 51, 0
4, 211548, Control_c, 2, 64, 127
4, 211548, Note_on_c, 2, 57, 49
4, 211548, Note_on_c, 2, 51, 41
4, 211608, Note_on_c, 2, 51, 0
4, 211628, Note_on_c, 2, 57, 0
4, 211632, Control_c, 2, 64, 0
4, 211932, Note_on_c, 2, 50, 55
4, 211932, Note_on_c, 2, 55, 64
4, 212044, Note_on_c, 2, 55, 0
4, 212124, Note_on_c, 2, 50, 0
4, 212316, Control_c, 2, 64, 127
4, 212316, Note_on_c, 2, 55, 49
4, 212316, Note_on_c, 2, 50, 41
4, 212376, Note_on_c, 2, 50, 0
4, 212404, Note_on_c, 2, 55, 0
4, 212412, Control_c, 2, 64, 0
4, 212696, Note_on_c, 2, 53, 55
4, 212700, Note_on_c, 2, 58, 64
4, 212812, Note_on_c, 2, 58, 0
4, 212892, Note_on_c, 2, 53, 0
4, 213084, Control_c, 2, 64, 127
4, 213084, Note_on_c, 2, 58, 49
4, 213084, Note_on_c, 2, 53, 41
4, 213144, Note_on_c, 2, 53, 0
4, 213172, Note_on_c, 2, 58, 0
4, 213172, Control_c, 2, 64, 0
4, 213464, Note_on_c, 2, 51, 55
4, 213468, Note_on_c, 2, 58, 64
4, 213580, Note_on_c, 2, 58, 0
4, 213660, Note_on_c, 2, 51, 0
4, 213848, Control_c, 2, 64, 127
4, 213852, Note_on_c, 2, 58, 49
4, 213852, Note_on_c, 2, 51, 41
4, 213912, Note_on_c, 2, 51, 0
4, 213944, Note_on_c, 2, 58, 0
4, 213944, Control_c, 2, 64, 0
4, 214236, Note_on_c, 2, 51, 55
4, 214236, Note_on_c, 2, 57, 64
4, 214348, Note_on_c, 2, 57, 0
4, 214428, Note_on_c, 2, 51, 0
4, 214620, Control_c, 2, 64, 127
4, 214620, Note_on_c, 2, 57, 49
4, 214620, Note_on_c, 2, 51, 41
4, 214676, Note_on_c, 2, 51, 0
4, 214708, Note_on_c, 2, 57, 0
4, 214708, Control_c, 2, 64, 0
4, 215004, Note_on_c, 2, 53, 55
4, 215004, Note_on_c, 2, 60, 64
4, 215116, Note_on_c, 2, 60, 0
4, 215196, Note_on_c, 2, 53, 0
4, 215388, Control_c, 2, 64, 127
4, 215388, Note_on_c, 2, 60, 49
4, 215388, Note_on_c, 2, 53, 41
4, 215440, Note_on_c, 2, 53, 0
4, 215476, Note_on_c, 2, 60, 0
4, 215476, Control_c, 2, 64, 0
4, 215768, Note_on_c, 2, 53, 55
4, 215772, Note_on_c, 2, 59, 64
4, 215884, Note_on_c, 2, 59, 0
4, 215964, Note_on_c, 2, 53, 0
4, 216156, Control_c, 2, 64, 127
4, 216156, Note_on_c, 2, 59, 49
4, 216156, Note_on_c, 2, 53, 41
4, 216216, Note_on_c, 2, 53, 0
4, 216236, Note_on_c, 2, 59, 0
4, 216240, Control_c, 2, 64, 0
4, 216540, Note_on_c, 2, 51, 55
4, 216540, Note_on_c, 2, 58, 64
4, 216652, Note_on_c, 2, 58, 0
4, 216732, Note_on_c, 2, 51, 0
4, 216924, Control_c, 2, 64, 127
4, 216924, Note_on_c, 2, 58, 49
4, 216924, Note_on_c, 2, 51, 41
4, 216984, Note_on_c, 2, 51, 0
4, 217012, Note_on_c, 2, 58, 0
4, 217020, Control_c, 2, 64, 0
4, 217308, Note_on_c, 2, 51, 55
4, 217308, Note_on_c, 2, 57, 64
4, 217420, Note_on_c, 2, 57, 0
4, 217500, Note_on_c, 2, 51, 0
4, 217692, Control_c, 2, 64, 127
4, 217692, Note_on_c, 2, 57, 49
4, 217692, Note_on_c, 2, 51, 41
4, 217752, Note_on_c, 2, 51, 0
4, 217780, Note_on_c, 2, 57, 0
4, 217784, Control_c, 2, 64, 0
4, 218072, Note_on_c, 2, 51, 55
4, 218076, Note_on_c, 2, 56, 64
4, 218188, Note_on_c, 2, 56, 0
4, 218268, Note_on_c, 2, 51, 0
4, 218460, Control_c, 2, 64, 127
4, 218460, Note_on_c, 2, 56, 49
4, 218460, Note_on_c, 2, 51, 41
4, 218520, Note_on_c, 2, 51, 0
4, 218548, Note_on_c, 2, 56, 0
4, 218548, Control_c, 2, 64, 0
4, 218840, Note_on_c, 2, 50, 55
4, 218844, Note_on_c, 2, 56, 64
4, 218956, Note_on_c, 2, 56, 0
4, 219036, Note_on_c, 2, 50, 0
4, 219228, Control_c, 2, 64, 127
4, 219228, Note_on_c, 2, 56, 49
4, 219228, Note_on_c, 2, 50, 41
4, 219284, Note_on_c, 2, 50, 0
4, 219316, Note_on_c, 2, 56, 0
4, 219316, Control_c, 2, 64, 0
4, 219612, Note_on_c, 2, 48, 55
4, 219612, Note_on_c, 2, 55, 64
4, 219724, Note_on_c, 2, 55, 0
4, 219804, Note_on_c, 2, 48, 0
4, 219996, Control_c, 2, 64, 127
4, 219996, Note_on_c, 2, 55, 49
4, 219996, Note_on_c, 2, 48, 41
4, 220052, Note_on_c, 2, 48, 0
4, 220084, Note_on_c, 2, 55, 0
4, 220084, Control_c, 2, 64, 0
4, 220380, Note_on_c, 2, 54, 55
4, 220380, Note_on_c, 2, 60, 64
4, 220492, Note_on_c, 2, 60, 0
4, 220572, Note_on_c, 2, 54, 0
4, 220764, Control_c, 2, 64, 127
4, 220764, Note_on_c, 2, 60, 49
4, 220764, Note_on_c, 2, 54, 41
4, 220824, Note_on_c, 2, 54, 0
4, 220844, Note_on_c, 2, 60, 0
4, 220852, Control_c, 2, 64, 0
4, 221148, Note_on_c, 2, 53, 55
4, 221148, Note_on_c, 2, 60, 64
4, 221260, Note_on_c, 2, 60, 0
4, 221340, Note_on_c, 2, 53, 0
4, 221528, Control_c, 2, 64, 0
4, 221532, Control_c, 2, 64, 0
4, 221532, Note_on_c, 2, 53, 55
4, 221532, Note_on_c, 2, 59, 64
4, 221644, Note_on_c, 2, 59, 0
4, 221724, Note_on_c, 2, 53, 0
4, 221916, Control_c, 2, 64, 0
4, 221916, Control_c, 2, 64, 0
4, 221916, Note_on_c, 2, 51, 55
4, 221916, Note_on_c, 2, 58, 64
4, 222028, Note_on_c, 2, 58, 0
4, 222108, Note_on_c, 2, 51, 0
4, 222300, Control_c, 2, 64, 0
4, 222300, Control_c, 2, 64, 0
4, 222300, Note_on_c, 2, 51, 55
4, 222300, Note_on_c, 2, 57, 64
4, 222412, Note_on_c, 2, 57, 0
4, 222492, Note_on_c, 2, 51, 0
4, 222680, Control_c, 2, 64, 0
4, 222684, Control_c, 2, 64, 0
4, 222684, Note_on_c, 2, 50, 55
4, 222684, Note_on_c, 2, 55, 64
4, 222796, Note_on_c, 2, 55, 0
4, 222876, Note_on_c, 2, 50, 0
4, 223068, Control_c, 2, 64, 127
4, 223068, Note_on_c, 2, 55, 49
4, 223068, Note_on_c, 2, 50, 41
4, 223128, Note_on_c, 2, 50, 0
4, 223156, Note_on_c, 2, 55, 0
4, 223156, Control_c, 2, 64, 0
4, 223448, Note_on_c, 2, 50, 55
4, 223452, Note_on_c, 2, 56, 64
4, 223564, Note_on_c, 2, 56, 0
4, 223644, Note_on_c, 2, 50, 0
4, 223836, Control_c, 2, 64, 127
4, 223836, Note_on_c, 2, 56, 49
4, 223836, Note_on_c, 2, 50, 41
4, 223892, Note_on_c, 2, 50, 0
4, 223924, Note_on_c, 2, 56, 0
4, 223928, Control_c, 2, 64, 0
4, 224220, Note_on_c, 2, 48, 55
4, 224220, Note_on_c, 2, 55, 64
4, 224332, Note_on_c, 2, 55, 0
4, 224412, Note_on_c, 2, 48, 0
4, 224604, Control_c, 2, 64, 127
4, 224604, Note_on_c, 2, 55, 49
4, 224604, Note_on_c, 2, 48, 41
4, 224660, Note_on_c, 2, 48, 0
4, 224692, Note_on_c, 2, 55, 0
4, 224692, Control_c, 2, 64, 0
4, 224988, Note_on_c, 2, 52, 55
4, 224988, Note_on_c, 2, 58, 64
4, 225100, Note_on_c, 2, 58, 0
4, 225180, Note_on_c, 2, 52, 0
4, 225372, Control_c, 2, 64, 127
4, 225372, Note_on_c, 2, 58, 49
4, 225372, Note_on_c, 2, 52, 41
4, 225432, Note_on_c, 2, 52, 0
4, 225456, Note_on_c, 2, 58, 0
4, 225464, Control_c, 2, 64, 0
4, 225756, Note_on_c, 2, 51, 55
4, 225756, Note_on_c, 2, 56, 64
4, 225868, Note_on_c, 2, 56, 0
4, 225948, Note_on_c, 2, 51, 0
4, 226140, Control_c, 2, 64, 127
4, 226140, Note_on_c, 2, 56, 49
4, 226140, Note_on_c, 2, 51, 41
4, 226200, Note_on_c, 2, 51, 0
4, 226228, Note_on_c, 2, 56, 0
4, 226232, Control_c, 2, 64, 0
4, 226524, Note_on_c, 2, 50, 55
4, 226524, Note_on_c, 2, 56, 64
4, 226636, Note_on_c, 2, 56, 0
4, 226716, Note_on_c, 2, 50, 0
4, 226908, Control_c, 2, 64, 127
4, 226908, Note_on_c, 2, 56, 49
4, 226908, Note_on_c, 2, 50, 41
4, 226968, Note_on_c, 2, 50, 0
4, 226996, Note_on_c, 2, 56, 0
4, 227004, Control_c, 2, 64, 0
4, 227288, Note_on_c, 2, 53, 55
4, 227292, Note_on_c, 2, 58, 64
4, 227404, Note_on_c, 2, 58, 0
4, 227484, Note_on_c, 2, 53, 0
4, 227676, Control_c, 2, 64, 127
4, 227676, Note_on_c, 2, 58, 49
4, 227676, Note_on_c, 2, 53, 41
4, 227736, Note_on_c, 2, 53, 0
4, 227764, Note_on_c, 2, 58, 0
4, 227764, Control_c, 2, 64, 0
4, 228056, Note_on_c, 2, 52, 55
4, 228060, Note_on_c, 2, 58, 64
4, 228172, Note_on_c, 2, 58, 0
4, 228252, Note_on_c, 2, 52, 0
4, 228444, Control_c, 2, 64, 127
4, 228444, Note_on_c, 2, 58, 49
4, 228444, Note_on_c, 2, 52, 41
4, 228504, Note_on_c, 2, 52, 0
4, 228532, Note_on_c, 2, 58, 0
4, 228532, Control_c, 2, 64, 0
4, 228824, Note_on_c, 2, 51, 55
4, 228828, Note_on_c, 2, 56, 64
4, 228940, Note_on_c, 2, 56, 0
4, 229020, Note_on_c, 2, 51, 0
4, 229212, Control_c, 2, 64, 127
4, 229212, Note_on_c, 2, 56, 49
4, 229212, Note_on_c, 2, 51, 41
4, 229268, Note_on_c, 2, 51, 0
4, 229300, Note_on_c, 2, 56, 0
4, 229300, Control_c, 2, 64, 0
4, 229596, Note_on_c, 2, 50, 55
4, 229596, Note_on_c, 2, 56, 64
4, 229708, Note_on_c, 2, 56, 0
4, 229788, Note_on_c, 2, 50, 0
4, 229980, Control_c, 2, 64, 127
4, 229980, Note_on_c, 2, 56, 49
4, 229980, Note_on_c, 2, 50, 41
4, 230032, Note_on_c, 2, 50, 0
4, 230068, Note_on_c, 2, 56, 0
4, 230068, Control_c, 2, 64, 0
4, 230364, Note_on_c, 2, 49, 55
4, 230364, Note_on_c, 2, 56, 64
4, 230476, Note_on_c, 2, 56, 0
4, 230556, Note_on_c, 2, 49, 0
4, 230748, Control_c, 2, 64, 127
4, 230748, Note_on_c, 2, 56, 49
4, 230748, Note_on_c, 2, 49, 41
4, 230808, Note_on_c, 2, 49, 0
4, 230828, Note_on_c, 2, 56, 0
4, 230832, Control_c, 2, 64, 0
4, 231132, Note_on_c, 2, 49, 55
4, 231132, Note_on_c, 2, 55, 64
4, 231244, Note_on_c, 2, 55, 0
4, 231324, Note_on_c, 2, 49, 0
4, 231516, Control_c, 2, 64, 127
4, 231516, Note_on_c, 2, 55, 49
4, 231516, Note_on_c, 2, 49, 41
4, 231576, Note_on_c, 2, 49, 0
4, 231604, Note_on_c, 2, 55, 0
4, 231612, Control_c, 2, 64, 0
4, 231900, Note_on_c, 2, 55, 55
4, 231900, Note_on_c, 2, 60, 64
4, 232012, Note_on_c, 2, 60, 0
4, 232092, Note_on_c, 2, 55, 0
4, 232284, Control_c, 2, 64, 127
4, 232284, Note_on_c, 2, 60, 49
4, 232284, Note_on_c, 2, 55, 41
4, 232344, Note_on_c, 2, 55, 0
4, 232372, Note_on_c, 2, 60, 0
4, 232372, Control_c, 2, 64, 0
4, 232668, Note_on_c, 2, 53, 55
4, 232668, Note_on_c, 2, 59, 64
4, 232780, Note_on_c, 2, 59, 0
4, 232860, Note_on_c, 2, 53, 0
4, 233052, Control_c, 2, 64, 127
4, 233052, Note_on_c, 2, 59, 49
4, 233052, Note_on_c, 2, 53, 41
4, 233112, Note_on_c, 2, 53, 0
4, 233140, Note_on_c, 2, 59, 0
4, 233144, Control_c, 2, 64, 0
4, 233432, Note_on_c, 2, 53, 55
4, 233436, Note_on_c, 2, 58, 64
4, 233548, Note_on_c, 2, 58, 0
4, 233628, Note_on_c, 2, 53, 0
4, 233816, Control_c, 2, 64, 0
4, 233820, Control_c, 2, 64, 0
4, 233820, Note_on_c, 2, 52, 55
4, 233820, Note_on_c, 2, 58, 64
4, 233932, Note_on_c, 2, 58, 0
4, 234012, Note_on_c, 2, 52, 0
4, 234204, Control_c, 2, 64, 0
4, 234204, Control_c, 2, 64, 0
4, 234204, Note_on_c, 2, 51, 55
4, 234204, Note_on_c, 2, 56, 64
4, 234316, Note_on_c, 2, 56, 0
4, 234396, Note_on_c, 2, 51, 0
4, 234588, Control_c, 2, 64, 0
4, 234588, Control_c, 2, 64, 0
4, 234588, Note_on_c, 2, 50, 55
4, 234588, Note_on_c, 2, 56, 64
4, 234700, Note_on_c, 2, 56, 0
4, 234780, Note_on_c, 2, 50, 0
4, 234972, Control_c, 2, 64, 0
4, 234972, Control_c, 2, 64, 0
4, 234972, Note_on_c, 2, 48, 55
4, 234972, Note_on_c, 2, 55, 64
4, 235084, Note_on_c, 2, 55, 0
4, 235164, Note_on_c, 2, 48, 0
4, 235356, Control_c, 2, 64, 127
4, 235356, Note_on_c, 2, 55, 49
4, 235356, Note_on_c, 2, 48, 41
4, 235416, Note_on_c, 2, 48, 0
4, 235436, Note_on_c, 2, 55, 0
4, 235440, Control_c, 2, 64, 0
4, 235736, Note_on_c, 2, 51, 55
4, 235740, Note_on_c, 2, 57, 64
4, 235852, Note_on_c, 2, 57, 0
4, 235932, Note_on_c, 2, 51, 0
4, 236124, Control_c, 2, 64, 127
4, 236124, Note_on_c, 2, 57, 49
4, 236124, Note_on_c, 2, 51, 41
4, 236184, Note_on_c, 2, 51, 0
4, 236212, Note_on_c, 2, 57, 0
4, 236220, Control_c, 2, 64, 0
4, 236504, Note_on_c, 2, 50, 55
4, 236508, Note_on_c, 2, 55, 64
4, 236620, Note_on_c, 2, 55, 0
4, 236700, Note_on_c, 2, 50, 0
4, 236892, Control_c, 2, 64, 127
4, 236892, Note_on_c, 2, 55, 49
4, 236892, Note_on_c, 2, 50, 41
4, 236952, Note_on_c, 2, 50, 0
4, 236980, Note_on_c, 2, 55, 0
4, 236980, Control_c, 2, 64, 0
4, 237272, Note_on_c, 2, 53, 55
4, 237276, Note_on_c, 2, 58, 64
4, 237388, Note_on_c, 2, 58, 0
4, 237468, Note_on_c, 2, 53, 0
4, 237660, Control_c, 2, 64, 127
4, 237660, Note_on_c, 2, 58, 49
4, 237660, Note_on_c, 2, 53, 41
4, 237720, Note_on_c, 2, 53, 0
4, 237748, Note_on_c, 2, 58, 0
4, 237748, Control_c, 2, 64, 0
4, 238040, Note_on_c, 2, 51, 55
4, 238044, Note_on_c, 2, 58, 64
4, 238156, Note_on_c, 2, 58, 0
4, 238236, Note_on_c, 2, 51, 0
4, 238428, Control_c, 2, 64, 127
4, 238428, Note_on_c, 2, 58, 49
4, 238428, Note_on_c, 2, 51, 41
4, 238484, Note_on_c, 2, 51, 0
4, 238516, Note_on_c, 2, 58, 0
4, 238516, Control_c, 2, 64, 0
4, 238812, Note_on_c, 2, 51, 55
4, 238812, Note_on_c, 2, 57, 64
4, 238924, Note_on_c, 2, 57, 0
4, 239004, Note_on_c, 2, 51, 0
4, 239196, Control_c, 2, 64, 127
4, 239196, Note_on_c, 2, 57, 49
4, 239196, Note_on_c, 2, 51, 41
4, 239252, Note_on_c, 2, 51, 0
4, 239284, Note_on_c, 2, 57, 0
4, 239284, Control_c, 2, 64, 0
4, 239580, Note_on_c, 2, 53, 55
4, 239580, Note_on_c, 2, 60, 64
4, 239692, Note_on_c, 2, 60, 0
4, 239772, Note_on_c, 2, 53, 0
4, 239964, Control_c, 2, 64, 127
4, 239964, Note_on_c, 2, 60, 49
4, 239964, Note_on_c, 2, 53, 41
4, 240024, Note_on_c, 2, 53, 0
4, 240044, Note_on_c, 2, 60, 0
4, 240052, Control_c, 2, 64, 0
4, 240348, Note_on_c, 2, 53, 55
4, 240348, Note_on_c, 2, 59, 64
4, 240460, Note_on_c, 2, 59, 0
4, 240540, Note_on_c, 2, 53, 0
4, 240732, Control_c, 2, 64, 127
4, 240732, Note_on_c, 2, 59, 49
4, 240732, Note_on_c, 2, 53, 41
4, 240792, Note_on_c, 2, 53, 0
4, 240820, Note_on_c, 2, 59, 0
4, 240824, Control_c, 2, 64, 0
4, 241112, Note_on_c, 2, 51, 55
4, 241116, Note_on_c, 2, 58, 64
4, 241228, Note_on_c, 2, 58, 0
4, 241308, Note_on_c, 2, 51, 0
4, 241500, Control_c, 2, 64, 127
4, 241500, Note_on_c, 2, 58, 49
4, 241500, Note_on_c, 2, 51, 41
4, 241560, Note_on_c, 2, 51, 0
4, 241588, Note_on_c, 2, 58, 0
4, 241596, Control_c, 2, 64, 0
4, 241884, Note_on_c, 2, 51, 55
4, 241884, Note_on_c, 2, 57, 64
4, 241996, Note_on_c, 2, 57, 0
4, 242076, Note_on_c, 2, 51, 0
4, 242268, Control_c, 2, 64, 127
4, 242268, Note_on_c, 2, 57, 49
4, 242268, Note_on_c, 2, 51, 41
4, 242328, Note_on_c, 2, 51, 0
4, 242356, Note_on_c, 2, 57, 0
4, 242360, Control_c, 2, 64, 0
4, 242652, Note_on_c, 2, 51, 55
4, 242652, Note_on_c, 2, 56, 64
4, 242764, Note_on_c, 2, 56, 0
4, 242844, Note_on_c, 2, 51, 0
4, 243036, Control_c, 2, 64, 127
4, 243036, Note_on_c, 2, 56, 49
4, 243036, Note_on_c, 2, 51, 41
4, 243092, Note_on_c, 2, 51, 0
4, 243124, Note_on_c, 2, 56, 0
4, 243124, Control_c, 2, 64, 0
4, 243420, Note_on_c, 2, 50, 55
4, 243420, Note_on_c, 2, 56, 64
4, 243532, Note_on_c, 2, 56, 0
4, 243612, Note_on_c, 2, 50, 0
4, 243804, Control_c, 2, 64, 127
4, 243804, Note_on_c, 2, 56, 49
4, 243808, Note_on_c, 2, 50, 41
4, 243860, Note_on_c, 2, 50, 0
4, 243892, Note_on_c, 2, 56, 0
4, 243892, Control_c, 2, 64, 0
4, 244188, Note_on_c, 2, 48, 55
4, 244188, Note_on_c, 2, 55, 64
4, 244300, Note_on_c, 2, 55, 0
4, 244380, Note_on_c, 2, 48, 0
4, 244568, Control_c, 2, 64, 127
4, 244572, Note_on_c, 2, 55, 49
4, 244572, Note_on_c, 2, 48, 41
4, 244632, Note_on_c, 2, 48, 0
4, 244652, Note_on_c, 2, 55, 0
4, 244660, Control_c, 2, 64, 0
4, 244956, Note_on_c, 2, 54, 55
4, 244956, Note_on_c, 2, 60, 64
4, 245068, Note_on_c, 2, 60, 0
4, 245148, Note_on_c, 2, 54, 0
4, 245340, Control_c, 2, 64, 127
4, 245340, Note_on_c, 2, 60, 49
4, 245344, Note_on_c, 2, 54, 41
4, 245400, Note_on_c, 2, 54, 0
4, 245428, Note_on_c, 2, 60, 0
4, 245432, Control_c, 2, 64, 0
4, 245724, Note_on_c, 2, 53, 55
4, 245724, Note_on_c, 2, 60, 64
4, 245836, Note_on_c, 2, 60, 0
4, 245916, Note_on_c, 2, 53, 0
4, 246108, Control_c, 2, 64, 0
4, 246108, Control_c, 2, 64, 0
4, 246108, Note_on_c, 2, 53, 55
4, 246108, Note_on_c, 2, 59, 64
4, 246220, Note_on_c, 2, 59, 0
4, 246300, Note_on_c, 2, 53, 0
4, 246488, Control_c, 2, 64, 0
4, 246492, Control_c, 2, 64, 0
4, 246492, Note_on_c, 2, 51, 55
4, 246492, Note_on_c, 2, 58, 64
4, 246604, Note_on_c, 2, 58, 0
4, 246684, Note_on_c, 2, 51, 0
4, 246876, Control_c, 2, 64, 0
4, 246876, Control_c, 2, 64, 0
4, 246876, Note_on_c, 2, 51, 55
4, 246876, Note_on_c, 2, 57, 64
4, 246988, Note_on_c, 2, 57, 0
4, 247068, Note_on_c, 2, 51, 0
4, 247256, Control_c, 2, 64, 0
4, 247260, Control_c, 2, 64, 0
4, 247260, Note_on_c, 2, 50, 55
4, 247260, Note_on_c, 2, 55, 64
4, 247400, Program_c, 2, 24
4, 247400, Control_c, 2, 123, 0
4, 247400, Control_c, 2, 64, 0
4, 248088, Note_on_c, 2, 50, 0
4, 249620, Note_on_c, 2, 55, 0
4, 249620, End_track
5, 0, Start_track
5, 0, Title_t, "Track 4"
5, 0, End_track
6, 0, Start_track
6, 0, Title_t, "Track 5"
6, 0, End_track
7, 0, Start_track
7, 0, Title_t, "Track 6"
7, 0, End_track
8, 0, Start_track
8, 0, Title_t, "Track 7"
8, 0, End_track
9, 0, Start_track
9, 0, Title_t, "Track 8"
9, 0, End_track
10, 0, Start_track
10, 0, Title_t, "Track 9"
10, 0, End_track
11, 0, Start_track
11, 0, Title_t, "Track 10"
11, 402, Program_c, 9, 40
11, 403, Control_c, 9, 7, 58
11, 2912, Note_on_c, 9, 40, 21
11, 2960, Note_on_c, 9, 40, 0
11, 3010, Note_on_c, 9, 35, 50
11, 3030, Note_on_c, 9, 40, 50
11, 3234, Note_on_c, 9, 35, 0
11, 3382, Note_on_c, 9, 40, 0
11, 3416, Note_on_c, 9, 44, 70
11, 3426, Note_on_c, 9, 40, 58
11, 3480, Note_on_c, 9, 44, 0
11, 3676, Note_on_c, 9, 35, 63
11, 3690, Note_on_c, 9, 40, 0
11, 3708, Note_on_c, 9, 35, 0
11, 3720, Note_on_c, 9, 40, 41
11, 3756, Note_on_c, 9, 40, 0
11, 3824, Note_on_c, 9, 40, 52
11, 4070, Note_on_c, 9, 39, 59
11, 4100, Note_on_c, 9, 39, 0
11, 4158, Note_on_c, 9, 40, 0
11, 4184, Note_on_c, 9, 44, 70
11, 4188, Note_on_c, 9, 37, 60
11, 4198, Note_on_c, 9, 40, 58
11, 4244, Note_on_c, 9, 37, 0
11, 4244, Note_on_c, 9, 44, 0
11, 4524, Note_on_c, 9, 40, 0
11, 4580, Note_on_c, 9, 40, 54
11, 4920, Note_on_c, 9, 40, 0
11, 4952, Note_on_c, 9, 44, 70
11, 4956, Note_on_c, 9, 40, 54
11, 5016, Note_on_c, 9, 44, 0
11, 5116, Note_on_c, 9, 39, 39
11, 5144, Note_on_c, 9, 39, 0
11, 5222, Note_on_c, 9, 39, 37
11, 5276, Note_on_c, 9, 39, 0
11, 5294, Note_on_c, 9, 40, 0
11, 5348, Note_on_c, 9, 40, 54
11, 5596, Note_on_c, 9, 40, 0
11, 5636, Note_on_c, 9, 40, 37
11, 5666, Note_on_c, 9, 40, 0
11, 5720, Note_on_c, 9, 44, 70
11, 5720, Note_on_c, 9, 37, 70
11, 5732, Note_on_c, 9, 40, 52
11, 5784, Note_on_c, 9, 37, 0
11, 5784, Note_on_c, 9, 44, 0
11, 5900, Note_on_c, 9, 40, 47
11, 5960, Note_on_c, 9, 40, 0
11, 6002, Note_on_c, 9, 40, 44
11, 6022, Note_on_c, 9, 40, 0
11, 6078, Note_on_c, 9, 40, 0
11, 6098, Note_on_c, 9, 46, 56
11, 6100, Note_on_c, 9, 40, 52
11, 6124, Note_on_c, 9, 35, 51
11, 6154, Note_on_c, 9, 46, 0
11, 6230, Note_on_c, 9, 35, 0
11, 6386, Note_on_c, 9, 40, 0
11, 6488, Note_on_c, 9, 44, 70
11, 6494, Note_on_c, 9, 40, 56
11, 6552, Note_on_c, 9, 44, 0
11, 6722, Note_on_c, 9, 40, 0
11, 6776, Note_on_c, 9, 40, 42
11, 6812, Note_on_c, 9, 40, 0
11, 6874, Note_on_c, 9, 40, 52
11, 7140, Note_on_c, 9, 39, 53
11, 7140, Note_on_c, 9, 40, 29
11, 7166, Note_on_c, 9, 39, 0
11, 7212, Note_on_c, 9, 40, 0
11, 7218, Note_on_c, 9, 40, 0
11, 7234, Note_on_c, 9, 46, 57
11, 7256, Note_on_c, 9, 37, 70
11, 7256, Note_on_c, 9, 44, 70
11, 7256, Note_on_c, 9, 35, 62
11, 7270, Note_on_c, 9, 40, 52
11, 7276, Note_on_c, 9, 36, 45
11, 7278, Note_on_c, 9, 46, 0
11, 7320, Note_on_c, 9, 44, 0
11, 7324, Note_on_c, 9, 37, 0
11, 7352, Note_on_c, 9, 36, 0
11, 7360, Note_on_c, 9, 35, 0
11, 7506, Note_on_c, 9, 40, 0
11, 7544, Note_on_c, 9, 36, 28
11, 7556, Note_on_c, 9, 40, 36
11, 7588, Note_on_c, 9, 40, 0
11, 7630, Note_on_c, 9, 36, 0
11, 7644, Note_on_c, 9, 40, 49
11, 7922, Note_on_c, 9, 40, 0
11, 8024, Note_on_c, 9, 44, 70
11, 8026, Note_on_c, 9, 40, 55
11, 8088, Note_on_c, 9, 44, 0
11, 8296, Note_on_c, 9, 40, 0
11, 8424, Note_on_c, 9, 40, 54
11, 8614, Note_on_c, 9, 40, 0
11, 8664, Note_on_c, 9, 40, 34
11, 8674, Note_on_c, 9, 35, 72
11, 8716, Note_on_c, 9, 40, 0
11, 8720, Note_on_c, 9, 35, 0
11, 8788, Note_on_c, 9, 40, 52
11, 8792, Note_on_c, 9, 44, 70
11, 8792, Note_on_c, 9, 37, 70
11, 8856, Note_on_c, 9, 37, 0
11, 8856, Note_on_c, 9, 44, 0
11, 9032, Note_on_c, 9, 40, 0
11, 9050, Note_on_c, 9, 40, 44
11, 9080, Note_on_c, 9, 40, 0
11, 9154, Note_on_c, 9, 40, 38
11, 9194, Note_on_c, 9, 35, 68
11, 9260, Note_on_c, 9, 35, 0
11, 9424, Note_on_c, 9, 39, 52
11, 9468, Note_on_c, 9, 40, 0
11, 9494, Note_on_c, 9, 39, 0
11, 9554, Note_on_c, 9, 40, 50
11, 9560, Note_on_c, 9, 44, 70
11, 9562, Note_on_c, 9, 36, 47
11, 9624, Note_on_c, 9, 44, 0
11, 9628, Note_on_c, 9, 36, 0
11, 9768, Note_on_c, 9, 40, 0
11, 9840, Note_on_c, 9, 36, 35
11, 9858, Note_on_c, 9, 40, 41
11, 9878, Note_on_c, 9, 36, 0
11, 9908, Note_on_c, 9, 40, 0
11, 9964, Note_on_c, 9, 40, 48
11, 10198, Note_on_c, 9, 40, 0
11, 10260, Note_on_c, 9, 40, 28
11, 10294, Note_on_c, 9, 40, 0
11, 10328, Note_on_c, 9, 37, 60
11, 10328, Note_on_c, 9, 44, 70
11, 10338, Note_on_c, 9, 40, 56
11, 10392, Note_on_c, 9, 44, 0
11, 10396, Note_on_c, 9, 37, 0
11, 10602, Note_on_c, 9, 35, 46
11, 10640, Note_on_c, 9, 40, 0
11, 10658, Note_on_c, 9, 35, 0
11, 10720, Note_on_c, 9, 40, 52
11, 10732, Note_on_c, 9, 35, 46
11, 10930, Note_on_c, 9, 35, 0
11, 10984, Note_on_c, 9, 40, 0
11, 10992, Note_on_c, 9, 35, 55
11, 11008, Note_on_c, 9, 40, 25
11, 11022, Note_on_c, 9, 35, 0
11, 11054, Note_on_c, 9, 40, 0
11, 11096, Note_on_c, 9, 44, 70
11, 11122, Note_on_c, 9, 40, 52
11, 11160, Note_on_c, 9, 44, 0
11, 11376, Note_on_c, 9, 40, 0
11, 11484, Note_on_c, 9, 40, 46
11, 11548, Note_on_c, 9, 40, 0
11, 11596, Note_on_c, 9, 40, 55
11, 11808, Note_on_c, 9, 40, 0
11, 11864, Note_on_c, 9, 44, 70
11, 11868, Note_on_c, 9, 37, 70
11, 11882, Note_on_c, 9, 35, 46
11, 11894, Note_on_c, 9, 40, 54
11, 11928, Note_on_c, 9, 37, 0
11, 11928, Note_on_c, 9, 44, 0
11, 12076, Note_on_c, 9, 35, 0
11, 12126, Note_on_c, 9, 40, 0
11, 12144, Note_on_c, 9, 35, 55
11, 12146, Note_on_c, 9, 40, 29
11, 12188, Note_on_c, 9, 35, 0
11, 12194, Note_on_c, 9, 40, 0
11, 12254, Note_on_c, 9, 40, 50
11, 12508, Note_on_c, 9, 39, 42
11, 12536, Note_on_c, 9, 40, 0
11, 12576, Note_on_c, 9, 39, 0
11, 12632, Note_on_c, 9, 44, 70
11, 12632, Note_on_c, 9, 40, 55
11, 12646, Note_on_c, 9, 39, 28
11, 12696, Note_on_c, 9, 44, 0
11, 12724, Note_on_c, 9, 39, 0
11, 12884, Note_on_c, 9, 40, 0
11, 12886, Note_on_c, 9, 36, 48
11, 12922, Note_on_c, 9, 40, 42
11, 12956, Note_on_c, 9, 36, 0
11, 12966, Note_on_c, 9, 40, 0
11, 13024, Note_on_c, 9, 40, 54
11, 13264, Note_on_c, 9, 35, 38
11, 13294, Note_on_c, 9, 39, 35
11, 13302, Note_on_c, 9, 35, 0
11, 13320, Note_on_c, 9, 40, 0
11, 13358, Note_on_c, 9, 39, 0
11, 13398, Note_on_c, 9, 40, 53
11, 13400, Note_on_c, 9, 44, 70
11, 13400, Note_on_c, 9, 37, 60
11, 13424, Note_on_c, 9, 39, 31
11, 13464, Note_on_c, 9, 37, 0
11, 13464, Note_on_c, 9, 44, 0
11, 13616, Note_on_c, 9, 39, 0
11, 13630, Note_on_c, 9, 40, 0
11, 13664, Note_on_c, 9, 36, 52
11, 13702, Note_on_c, 9, 40, 15
11, 13730, Note_on_c, 9, 36, 0
11, 13784, Note_on_c, 9, 40, 0
11, 13824, Note_on_c, 9, 40, 59
11, 14078, Note_on_c, 9, 35, 41
11, 14098, Note_on_c, 9, 40, 0
11, 14112, Note_on_c, 9, 35, 0
11, 14168, Note_on_c, 9, 44, 70
11, 14174, Note_on_c, 9, 40, 52
11, 14232, Note_on_c, 9, 44, 0
11, 14470, Note_on_c, 9, 40, 0
11, 14558, Note_on_c, 9, 40, 54
11, 14696, Note_on_c, 9, 40, 31
11, 14742, Note_on_c, 9, 40, 0
11, 14808, Note_on_c, 9, 40, 0
11, 14812, Note_on_c, 9, 40, 42
11, 14832, Note_on_c, 9, 38, 60
11, 14840, Note_on_c, 9, 40, 34
11, 14868, Note_on_c, 9, 40, 0
11, 14892, Note_on_c, 9, 40, 0
11, 14908, Note_on_c, 9, 38, 0
11, 14936, Note_on_c, 9, 44, 70
11, 14944, Note_on_c, 9, 40, 51
11, 14948, Note_on_c, 9, 40, 41
11, 15000, Note_on_c, 9, 44, 0
11, 15020, Note_on_c, 9, 40, 0
11, 15202, Note_on_c, 9, 39, 50
11, 15208, Note_on_c, 9, 40, 50
11, 15224, Note_on_c, 9, 38, 30
11, 15232, Note_on_c, 9, 40, 0
11, 15264, Note_on_c, 9, 39, 0
11, 15284, Note_on_c, 9, 38, 0
11, 15288, Note_on_c, 9, 40, 0
11, 15322, Note_on_c, 9, 40, 56
11, 15334, Note_on_c, 9, 35, 57
11, 15338, Note_on_c, 9, 57, 23
11, 15354, Note_on_c, 9, 36, 35
11, 15530, Note_on_c, 9, 35, 0
11, 15576, Note_on_c, 9, 40, 0
11, 15620, Note_on_c, 9, 40, 34
11, 15654, Note_on_c, 9, 40, 0
11, 15696, Note_on_c, 9, 57, 0
11, 15704, Note_on_c, 9, 44, 70
11, 15712, Note_on_c, 9, 40, 48
11, 15768, Note_on_c, 9, 44, 0
11, 16032, Note_on_c, 9, 40, 0
11, 16114, Note_on_c, 9, 40, 52
11, 16288, Note_on_c, 9, 36, 0
11, 16324, Note_on_c, 9, 39, 57
11, 16352, Note_on_c, 9, 40, 30
11, 16406, Note_on_c, 9, 39, 0
11, 16440, Note_on_c, 9, 40, 0
11, 16450, Note_on_c, 9, 40, 0
11, 16472, Note_on_c, 9, 37, 70
11, 16472, Note_on_c, 9, 44, 70
11, 16476, Note_on_c, 9, 57, 22
11, 16482, Note_on_c, 9, 35, 45
11, 16492, Note_on_c, 9, 36, 28
11, 16498, Note_on_c, 9, 40, 52
11, 16502, Note_on_c, 9, 57, 0
11, 16516, Note_on_c, 9, 35, 0
11, 16536, Note_on_c, 9, 44, 0
11, 16540, Note_on_c, 9, 37, 0
11, 16638, Note_on_c, 9, 36, 0
11, 16738, Note_on_c, 9, 36, 47
11, 16782, Note_on_c, 9, 40, 0
11, 16834, Note_on_c, 9, 36, 0
11, 16868, Note_on_c, 9, 40, 52
11, 17118, Note_on_c, 9, 40, 0
11, 17142, Note_on_c, 9, 40, 25
11, 17196, Note_on_c, 9, 40, 0
11, 17236, Note_on_c, 9, 44, 70
11, 17246, Note_on_c, 9, 40, 52
11, 17304, Note_on_c, 9, 44, 0
11, 17518, Note_on_c, 9, 40, 0
11, 17626, Note_on_c, 9, 40, 55
11, 17876, Note_on_c, 9, 40, 0
11, 17892, Note_on_c, 9, 40, 33
11, 17920, Note_on_c, 9, 40, 0
11, 18008, Note_on_c, 9, 44, 70
11, 18012, Note_on_c, 9, 37, 70
11, 18032, Note_on_c, 9, 35, 44
11, 18052, Note_on_c, 9, 40, 58
11, 18064, Note_on_c, 9, 35, 0
11, 18072, Note_on_c, 9, 44, 0
11, 18072, Note_on_c, 9, 37, 0
11, 18228, Note_on_c, 9, 40, 0
11, 18262, Note_on_c, 9, 35, 80
11, 18284, Note_on_c, 9, 40, 43
11, 18336, Note_on_c, 9, 40, 0
11, 18350, Note_on_c, 9, 35, 0
11, 18386, Note_on_c, 9, 40, 54
11, 18416, Note_on_c, 9, 35, 60
11, 18546, Note_on_c, 9, 35, 0
11, 18696, Note_on_c, 9, 40, 0
11, 18776, Note_on_c, 9, 44, 70
11, 18790, Note_on_c, 9, 40, 54
11, 18836, Note_on_c, 9, 44, 0
11, 19036, Note_on_c, 9, 40, 0
11, 19054, Note_on_c, 9, 35, 59
11, 19068, Note_on_c, 9, 40, 29
11, 19084, Note_on_c, 9, 35, 0
11, 19108, Note_on_c, 9, 40, 0
11, 19176, Note_on_c, 9, 40, 50
11, 19216, Note_on_c, 9, 39, 57
11, 19276, Note_on_c, 9, 39, 0
11, 19348, Note_on_c, 9, 39, 47
11, 19388, Note_on_c, 9, 39, 0
11, 19460, Note_on_c, 9, 40, 0
11, 19544, Note_on_c, 9, 44, 70
11, 19544, Note_on_c, 9, 37, 60
11, 19550, Note_on_c, 9, 40, 58
11, 19596, Note_on_c, 9, 39, 50
11, 19608, Note_on_c, 9, 44, 0
11, 19612, Note_on_c, 9, 37, 0
11, 19662, Note_on_c, 9, 39, 0
11, 19746, Note_on_c, 9, 40, 0
11, 19828, Note_on_c, 9, 40, 37
11, 19878, Note_on_c, 9, 40, 0
11, 20054, Note_on_c, 9, 40, 56
11, 20210, Note_on_c, 9, 35, 43
11, 20214, Note_on_c, 9, 40, 0
11, 20244, Note_on_c, 9, 35, 0
11, 20312, Note_on_c, 9, 44, 70
11, 20314, Note_on_c, 9, 40, 57
11, 20326, Note_on_c, 9, 35, 38
11, 20376, Note_on_c, 9, 44, 0
11, 20380, Note_on_c, 9, 35, 0
11, 20562, Note_on_c, 9, 40, 0
11, 20600, Note_on_c, 9, 35, 66
11, 20634, Note_on_c, 9, 35, 0
11, 20690, Note_on_c, 9, 40, 54
11, 20948, Note_on_c, 9, 38, 35
11, 20960, Note_on_c, 9, 40, 0
11, 21022, Note_on_c, 9, 38, 0
11, 21080, Note_on_c, 9, 37, 70
11, 21080, Note_on_c, 9, 44, 70
11, 21086, Note_on_c, 9, 40, 55
11, 21092, Note_on_c, 9, 38, 35
11, 21144, Note_on_c, 9, 44, 0
11, 21144, Note_on_c, 9, 37, 0
11, 21198, Note_on_c, 9, 38, 0
11, 21202, Note_on_c, 9, 40, 0
11, 21338, Note_on_c, 9, 38, 44
11, 21342, Note_on_c, 9, 40, 44
11, 21380, Note_on_c, 9, 38, 0
11, 21396, Note_on_c, 9, 40, 0
11, 21458, Note_on_c, 9, 40, 50
11, 21488, Note_on_c, 9, 39, 47
11, 21568, Note_on_c, 9, 39, 0
11, 21752, Note_on_c, 9, 40, 0
11, 21844, Note_on_c, 9, 44, 70
11, 21854, Note_on_c, 9, 40, 54
11, 21912, Note_on_c, 9, 44, 0
11, 22108, Note_on_c, 9, 35, 59
11, 22136, Note_on_c, 9, 35, 0
11, 22160, Note_on_c, 9, 40, 0
11, 22258, Note_on_c, 9, 40, 55
11, 22468, Note_on_c, 9, 40, 0
11, 22512, Note_on_c, 9, 39, 48
11, 22516, Note_on_c, 9, 40, 42
11, 22572, Note_on_c, 9, 39, 0
11, 22576, Note_on_c, 9, 40, 0
11, 22616, Note_on_c, 9, 44, 70
11, 22616, Note_on_c, 9, 37, 70
11, 22622, Note_on_c, 9, 40, 56
11, 22674, Note_on_c, 9, 36, 11
11, 22680, Note_on_c, 9, 37, 0
11, 22680, Note_on_c, 9, 44, 0
11, 22746, Note_on_c, 9, 36, 0
11, 22892, Note_on_c, 9, 36, 34
11, 22920, Note_on_c, 9, 40, 0
11, 22956, Note_on_c, 9, 36, 0
11, 23006, Note_on_c, 9, 40, 54
11, 23040, Note_on_c, 9, 36, 32
11, 23136, Note_on_c, 9, 36, 0
11, 23302, Note_on_c, 9, 40, 0
11, 23384, Note_on_c, 9, 44, 70
11, 23404, Note_on_c, 9, 40, 57
11, 23444, Note_on_c, 9, 44, 0
11, 23630, Note_on_c, 9, 40, 0
11, 23676, Note_on_c, 9, 40, 46
11, 23706, Note_on_c, 9, 40, 0
11, 23776, Note_on_c, 9, 40, 54
11, 23846, Note_on_c, 9, 40, 0
11, 23884, Note_on_c, 9, 40, 54
11, 24040, Note_on_c, 9, 40, 35
11, 24084, Note_on_c, 9, 40, 0
11, 24096, Note_on_c, 9, 40, 0
11, 24144, Note_on_c, 9, 35, 44
11, 24152, Note_on_c, 9, 44, 70
11, 24156, Note_on_c, 9, 37, 70
11, 24212, Note_on_c, 9, 40, 52
11, 24216, Note_on_c, 9, 44, 0
11, 24220, Note_on_c, 9, 37, 0
11, 24358, Note_on_c, 9, 35, 0
11, 24392, Note_on_c, 9, 40, 0
11, 24418, Note_on_c, 9, 35, 54
11, 24440, Note_on_c, 9, 40, 40
11, 24448, Note_on_c, 9, 35, 0
11, 24498, Note_on_c, 9, 40, 0
11, 24560, Note_on_c, 9, 40, 52
11, 24808, Note_on_c, 9, 39, 47
11, 24832, Note_on_c, 9, 40, 0
11, 24840, Note_on_c, 9, 39, 0
11, 24920, Note_on_c, 9, 44, 70
11, 24932, Note_on_c, 9, 40, 56
11, 24984, Note_on_c, 9, 44, 0
11, 25174, Note_on_c, 9, 39, 58
11, 25178, Note_on_c, 9, 40, 0
11, 25208, Note_on_c, 9, 39, 0
11, 25222, Note_on_c, 9, 40, 34
11, 25252, Note_on_c, 9, 40, 0
11, 25306, Note_on_c, 9, 40, 47
11, 25310, Note_on_c, 9, 35, 45
11, 25328, Note_on_c, 9, 36, 27
11, 25388, Note_on_c, 9, 36, 0
11, 25506, Note_on_c, 9, 35, 0
11, 25572, Note_on_c, 9, 39, 67
11, 25574, Note_on_c, 9, 35, 50
11, 25588, Note_on_c, 9, 40, 0
11, 25602, Note_on_c, 9, 35, 0
11, 25602, Note_on_c, 9, 39, 0
11, 25688, Note_on_c, 9, 44, 70
11, 25692, Note_on_c, 9, 37, 70
11, 25694, Note_on_c, 9, 40, 58
11, 25752, Note_on_c, 9, 37, 0
11, 25752, Note_on_c, 9, 44, 0
11, 25940, Note_on_c, 9, 39, 60
11, 25954, Note_on_c, 9, 40, 0
11, 25996, Note_on_c, 9, 39, 0
11, 26074, Note_on_c, 9, 40, 54
11, 26310, Note_on_c, 9, 39, 69
11, 26350, Note_on_c, 9, 40, 23
11, 26358, Note_on_c, 9, 40, 0
11, 26374, Note_on_c, 9, 39, 0
11, 26386, Note_on_c, 9, 40, 0
11, 26452, Note_on_c, 9, 46, 68
11, 26456, Note_on_c, 9, 44, 70
11, 26464, Note_on_c, 9, 35, 62
11, 26466, Note_on_c, 9, 40, 58
11, 26520, Note_on_c, 9, 44, 0
11, 26554, Note_on_c, 9, 46, 0
11, 26670, Note_on_c, 9, 35, 0
11, 26712, Note_on_c, 9, 39, 87
11, 26772, Note_on_c, 9, 40, 0
11, 26778, Note_on_c, 9, 39, 0
11, 26854, Note_on_c, 9, 40, 54
11, 27086, Note_on_c, 9, 39, 92
11, 27114, Note_on_c, 9, 40, 33
11, 27132, Note_on_c, 9, 38, 20
11, 27144, Note_on_c, 9, 40, 0
11, 27168, Note_on_c, 9, 39, 0
11, 27196, Note_on_c, 9, 40, 0
11, 27196, Note_on_c, 9, 38, 0
11, 27218, Note_on_c, 9, 46, 74
11, 27224, Note_on_c, 9, 38, 40
11, 27224, Note_on_c, 9, 44, 70
11, 27228, Note_on_c, 9, 35, 68
11, 27228, Note_on_c, 9, 37, 70
11, 27248, Note_on_c, 9, 40, 59
11, 27288, Note_on_c, 9, 44, 0
11, 27288, Note_on_c, 9, 38, 0
11, 27292, Note_on_c, 9, 37, 0
11, 27312, Note_on_c, 9, 46, 0
11, 27346, Note_on_c, 9, 35, 0
11, 27434, Note_on_c, 9, 40, 0
11, 27470, Note_on_c, 9, 36, 60
11, 27522, Note_on_c, 9, 36, 0
11, 27524, Note_on_c, 9, 40, 46
11, 27572, Note_on_c, 9, 40, 0
11, 27614, Note_on_c, 9, 36, 66
11, 27618, Note_on_c, 9, 40, 54
11, 27618, Note_on_c, 9, 57, 23
11, 27680, Note_on_c, 9, 57, 0
11, 27710, Note_on_c, 9, 36, 0
11, 27924, Note_on_c, 9, 40, 0
11, 27992, Note_on_c, 9, 44, 70
11, 28012, Note_on_c, 9, 40, 55
11, 28056, Note_on_c, 9, 44, 0
11, 28222, Note_on_c, 9, 40, 0
11, 28298, Note_on_c, 9, 40, 45
11, 28348, Note_on_c, 9, 40, 0
11, 28398, Note_on_c, 9, 40, 54
11, 28636, Note_on_c, 9, 39, 51
11, 28666, Note_on_c, 9, 35, 55
11, 28668, Note_on_c, 9, 39, 0
11, 28694, Note_on_c, 9, 35, 0
11, 28698, Note_on_c, 9, 40, 0
11, 28760, Note_on_c, 9, 37, 70
11, 28760, Note_on_c, 9, 44, 70
11, 28788, Note_on_c, 9, 40, 58
11, 28822, Note_on_c, 9, 35, 67
11, 28824, Note_on_c, 9, 44, 0
11, 28824, Note_on_c, 9, 37, 0
11, 29010, Note_on_c, 9, 39, 54
11, 29020, Note_on_c, 9, 35, 0
11, 29054, Note_on_c, 9, 39, 0
11, 29148, Note_on_c, 9, 40, 0
11, 29156, Note_on_c, 9, 35, 64
11, 29174, Note_on_c, 9, 40, 59
11, 29326, Note_on_c, 9, 35, 0
11, 29414, Note_on_c, 9, 36, 22
11, 29472, Note_on_c, 9, 36, 0
11, 29528, Note_on_c, 9, 44, 70
11, 29548, Note_on_c, 9, 40, 0
11, 29550, Note_on_c, 9, 36, 35
11, 29554, Note_on_c, 9, 40, 59
11, 29592, Note_on_c, 9, 44, 0
11, 29634, Note_on_c, 9, 36, 0
11, 29816, Note_on_c, 9, 40, 46
11, 29828, Note_on_c, 9, 40, 0
11, 29862, Note_on_c, 9, 40, 0
11, 29910, Note_on_c, 9, 40, 54
11, 30292, Note_on_c, 9, 40, 0
11, 30296, Note_on_c, 9, 37, 70
11, 30296, Note_on_c, 9, 44, 70
11, 30304, Note_on_c, 9, 40, 58
11, 30360, Note_on_c, 9, 44, 0
11, 30364, Note_on_c, 9, 37, 0
11, 30564, Note_on_c, 9, 40, 0
11, 30580, Note_on_c, 9, 40, 42
11, 30672, Note_on_c, 9, 40, 54
11, 30684, Note_on_c, 9, 40, 0
11, 31044, Note_on_c, 9, 40, 0
11, 31064, Note_on_c, 9, 44, 70
11, 31064, Note_on_c, 9, 40, 55
11, 31128, Note_on_c, 9, 44, 0
11, 31420, Note_on_c, 9, 40, 0
11, 31438, Note_on_c, 9, 40, 33
11, 31452, Note_on_c, 9, 40, 56
11, 31478, Note_on_c, 9, 40, 0
11, 31540, Note_on_c, 9, 40, 34
11, 31594, Note_on_c, 9, 40, 0
11, 31708, Note_on_c, 9, 39, 52
11, 31802, Note_on_c, 9, 39, 0
11, 31828, Note_on_c, 9, 40, 0
11, 31832, Note_on_c, 9, 37, 70
11, 31832, Note_on_c, 9, 44, 70
11, 31846, Note_on_c, 9, 40, 58
11, 31848, Note_on_c, 9, 40, 37
11, 31894, Note_on_c, 9, 40, 0
11, 31896, Note_on_c, 9, 37, 0
11, 31896, Note_on_c, 9, 44, 0
11, 32092, Note_on_c, 9, 39, 35
11, 32096, Note_on_c, 9, 35, 71
11, 32160, Note_on_c, 9, 35, 0
11, 32160, Note_on_c, 9, 39, 0
11, 32220, Note_on_c, 9, 40, 0
11, 32222, Note_on_c, 9, 39, 31
11, 32238, Note_on_c, 9, 40, 52
11, 32372, Note_on_c, 9, 39, 0
11, 32480, Note_on_c, 9, 36, 28
11, 32556, Note_on_c, 9, 36, 0
11, 32588, Note_on_c, 9, 40, 0
11, 32600, Note_on_c, 9, 44, 70
11, 32602, Note_on_c, 9, 40, 58
11, 32640, Note_on_c, 9, 40, 31
11, 32664, Note_on_c, 9, 44, 0
11, 32670, Note_on_c, 9, 40, 0
11, 32784, Note_on_c, 9, 40, 0
11, 32876, Note_on_c, 9, 40, 48
11, 32914, Note_on_c, 9, 40, 0
11, 32968, Note_on_c, 9, 40, 50
11, 33246, Note_on_c, 9, 40, 35
11, 33280, Note_on_c, 9, 40, 0
11, 33300, Note_on_c, 9, 40, 0
11, 33368, Note_on_c, 9, 44, 70
11, 33372, Note_on_c, 9, 37, 70
11, 33378, Note_on_c, 9, 35, 32
11, 33432, Note_on_c, 9, 37, 0
11, 33432, Note_on_c, 9, 44, 0
11, 33452, Note_on_c, 9, 40, 55
11, 33548, Note_on_c, 9, 35, 0
11, 33560, Note_on_c, 9, 40, 0
11, 33618, Note_on_c, 9, 35, 46
11, 33652, Note_on_c, 9, 35, 0
11, 33654, Note_on_c, 9, 40, 44
11, 33690, Note_on_c, 9, 40, 0
11, 33748, Note_on_c, 9, 40, 51
11, 34022, Note_on_c, 9, 40, 0
11, 34024, Note_on_c, 9, 39, 54
11, 34108, Note_on_c, 9, 39, 0
11, 34130, Note_on_c, 9, 40, 54
11, 34136, Note_on_c, 9, 44, 70
11, 34194, Note_on_c, 9, 36, 17
11, 34200, Note_on_c, 9, 44, 0
11, 34246, Note_on_c, 9, 36, 0
11, 34398, Note_on_c, 9, 36, 34
11, 34402, Note_on_c, 9, 40, 0
11, 34446, Note_on_c, 9, 36, 0
11, 34534, Note_on_c, 9, 40, 55
11, 34780, Note_on_c, 9, 40, 0
11, 34904, Note_on_c, 9, 37, 70
11, 34904, Note_on_c, 9, 44, 70
11, 34906, Note_on_c, 9, 35, 55
11, 34918, Note_on_c, 9, 40, 56
11, 34940, Note_on_c, 9, 35, 0
11, 34968, Note_on_c, 9, 37, 0
11, 34968, Note_on_c, 9, 44, 0
11, 35192, Note_on_c, 9, 39, 36
11, 35198, Note_on_c, 9, 40, 0
11, 35234, Note_on_c, 9, 39, 0
11, 35300, Note_on_c, 9, 40, 55
11, 35352, Note_on_c, 9, 39, 21
11, 35394, Note_on_c, 9, 39, 0
11, 35488, Note_on_c, 9, 40, 0
11, 35564, Note_on_c, 9, 36, 41
11, 35590, Note_on_c, 9, 40, 47
11, 35612, Note_on_c, 9, 36, 0
11, 35618, Note_on_c, 9, 40, 0
11, 35672, Note_on_c, 9, 44, 70
11, 35680, Note_on_c, 9, 40, 49
11, 35736, Note_on_c, 9, 44, 0
11, 35956, Note_on_c, 9, 40, 0
11, 36056, Note_on_c, 9, 40, 58
11, 36344, Note_on_c, 9, 40, 0
11, 36436, Note_on_c, 9, 44, 70
11, 36444, Note_on_c, 9, 37, 70
11, 36446, Note_on_c, 9, 40, 58
11, 36504, Note_on_c, 9, 44, 0
11, 36508, Note_on_c, 9, 37, 0
11, 36642, Note_on_c, 9, 40, 0
11, 36736, Note_on_c, 9, 40, 46
11, 36770, Note_on_c, 9, 40, 0
11, 36834, Note_on_c, 9, 40, 48
11, 37086, Note_on_c, 9, 39, 57
11, 37096, Note_on_c, 9, 35, 33
11, 37122, Note_on_c, 9, 40, 0
11, 37140, Note_on_c, 9, 35, 0
11, 37156, Note_on_c, 9, 39, 0
11, 37208, Note_on_c, 9, 44, 70
11, 37218, Note_on_c, 9, 40, 58
11, 37272, Note_on_c, 9, 44, 0
11, 37430, Note_on_c, 9, 40, 0
11, 37482, Note_on_c, 9, 39, 57
11, 37518, Note_on_c, 9, 40, 46
11, 37546, Note_on_c, 9, 39, 0
11, 37558, Note_on_c, 9, 40, 0
11, 37610, Note_on_c, 9, 40, 52
11, 37874, Note_on_c, 9, 39, 52
11, 37882, Note_on_c, 9, 35, 32
11, 37912, Note_on_c, 9, 40, 0
11, 37920, Note_on_c, 9, 35, 0
11, 37936, Note_on_c, 9, 39, 0
11, 37976, Note_on_c, 9, 44, 70
11, 37980, Note_on_c, 9, 37, 70
11, 37986, Note_on_c, 9, 35, 37
11, 37990, Note_on_c, 9, 40, 53
11, 38036, Note_on_c, 9, 37, 0
11, 38036, Note_on_c, 9, 44, 0
11, 38174, Note_on_c, 9, 40, 0
11, 38178, Note_on_c, 9, 35, 0
11, 38262, Note_on_c, 9, 35, 36
11, 38266, Note_on_c, 9, 39, 40
11, 38268, Note_on_c, 9, 40, 44
11, 38298, Note_on_c, 9, 35, 0
11, 38312, Note_on_c, 9, 39, 0
11, 38314, Note_on_c, 9, 40, 0
11, 38362, Note_on_c, 9, 40, 54
11, 38638, Note_on_c, 9, 50, 90
11, 38652, Note_on_c, 9, 35, 45
11, 38660, Note_on_c, 9, 40, 0
11, 38684, Note_on_c, 9, 50, 0
11, 38686, Note_on_c, 9, 35, 0
11, 38744, Note_on_c, 9, 44, 70
11, 38746, Note_on_c, 9, 46, 69
11, 38754, Note_on_c, 9, 40, 58
11, 38808, Note_on_c, 9, 44, 0
11, 38962, Note_on_c, 9, 40, 0
11, 38962, Note_on_c, 9, 46, 0
11, 39016, Note_on_c, 9, 48, 110
11, 39038, Note_on_c, 9, 40, 45
11, 39066, Note_on_c, 9, 48, 0
11, 39090, Note_on_c, 9, 40, 0
11, 39136, Note_on_c, 9, 35, 54
11, 39138, Note_on_c, 9, 40, 54
11, 39166, Note_on_c, 9, 35, 0
11, 39384, Note_on_c, 9, 46, 79
11, 39392, Note_on_c, 9, 47, 105
11, 39420, Note_on_c, 9, 38, 20
11, 39438, Note_on_c, 9, 40, 0
11, 39454, Note_on_c, 9, 47, 0
11, 39476, Note_on_c, 9, 38, 0
11, 39512, Note_on_c, 9, 38, 40
11, 39512, Note_on_c, 9, 44, 70
11, 39516, Note_on_c, 9, 37, 70
11, 39526, Note_on_c, 9, 40, 59
11, 39574, Note_on_c, 9, 46, 0
11, 39576, Note_on_c, 9, 38, 0
11, 39576, Note_on_c, 9, 44, 0
11, 39580, Note_on_c, 9, 37, 0
11, 39718, Note_on_c, 9, 40, 0
11, 39750, Note_on_c, 9, 39, 69
11, 39796, Note_on_c, 9, 35, 50
11, 39800, Note_on_c, 9, 40, 46
11, 39814, Note_on_c, 9, 39, 0
11, 39828, Note_on_c, 9, 35, 0
11, 39846, Note_on_c, 9, 40, 0
11, 39898, Note_on_c, 9, 40, 52
11, 39902, Note_on_c, 9, 36, 53
11, 39910, Note_on_c, 9, 57, 35
11, 39926, Note_on_c, 9, 35, 70
11, 39940, Note_on_c, 9, 33, 53
11, 39970, Note_on_c, 9, 33, 0
11, 40136, Note_on_c, 9, 35, 0
11, 40152, Note_on_c, 9, 40, 0
11, 40280, Note_on_c, 9, 44, 70
11, 40288, Note_on_c, 9, 40, 61
11, 40344, Note_on_c, 9, 44, 0
11, 40430, Note_on_c, 9, 57, 0
11, 40522, Note_on_c, 9, 40, 0
11, 40668, Note_on_c, 9, 40, 59
11, 40826, Note_on_c, 9, 36, 0
11, 40828, Note_on_c, 9, 39, 67
11, 40880, Note_on_c, 9, 39, 0
11, 40894, Note_on_c, 9, 40, 0
11, 40932, Note_on_c, 9, 39, 59
11, 40952, Note_on_c, 9, 40, 47
11, 41004, Note_on_c, 9, 39, 0
11, 41014, Note_on_c, 9, 40, 0
11, 41048, Note_on_c, 9, 37, 60
11, 41048, Note_on_c, 9, 44, 70
11, 41054, Note_on_c, 9, 40, 60
11, 41060, Note_on_c, 9, 36, 51
11, 41060, Note_on_c, 9, 57, 28
11, 41112, Note_on_c, 9, 44, 0
11, 41116, Note_on_c, 9, 37, 0
11, 41192, Note_on_c, 9, 57, 0
11, 41346, Note_on_c, 9, 40, 0
11, 41440, Note_on_c, 9, 40, 54
11, 41686, Note_on_c, 9, 36, 0
11, 41726, Note_on_c, 9, 40, 0
11, 41816, Note_on_c, 9, 44, 70
11, 41822, Note_on_c, 9, 40, 58
11, 41880, Note_on_c, 9, 44, 0
11, 42032, Note_on_c, 9, 40, 0
11, 42090, Note_on_c, 9, 40, 43
11, 42158, Note_on_c, 9, 40, 0
11, 42198, Note_on_c, 9, 40, 58
11, 42476, Note_on_c, 9, 40, 0
11, 42486, Note_on_c, 9, 35, 34
11, 42520, Note_on_c, 9, 35, 0
11, 42580, Note_on_c, 9, 40, 58
11, 42584, Note_on_c, 9, 44, 70
11, 42584, Note_on_c, 9, 37, 70
11, 42644, Note_on_c, 9, 37, 0
11, 42644, Note_on_c, 9, 44, 0
11, 42844, Note_on_c, 9, 40, 0
11, 42870, Note_on_c, 9, 35, 71
11, 42916, Note_on_c, 9, 35, 0
11, 42966, Note_on_c, 9, 40, 58
11, 42994, Note_on_c, 9, 35, 44
11, 43078, Note_on_c, 9, 35, 0
11, 43228, Note_on_c, 9, 40, 0
11, 43352, Note_on_c, 9, 44, 70
11, 43362, Note_on_c, 9, 40, 56
11, 43416, Note_on_c, 9, 44, 0
11, 43538, Note_on_c, 9, 40, 0
11, 43640, Note_on_c, 9, 40, 34
11, 43680, Note_on_c, 9, 40, 0
11, 43730, Note_on_c, 9, 40, 56
11, 43988, Note_on_c, 9, 40, 0
11, 44034, Note_on_c, 9, 39, 34
11, 44074, Note_on_c, 9, 39, 0
11, 44120, Note_on_c, 9, 37, 70
11, 44120, Note_on_c, 9, 44, 70
11, 44122, Note_on_c, 9, 40, 58
11, 44176, Note_on_c, 9, 39, 25
11, 44184, Note_on_c, 9, 44, 0
11, 44188, Note_on_c, 9, 37, 0
11, 44216, Note_on_c, 9, 39, 0
11, 44330, Note_on_c, 9, 40, 0
11, 44394, Note_on_c, 9, 39, 37
11, 44396, Note_on_c, 9, 40, 40
11, 44402, Note_on_c, 9, 35, 30
11, 44442, Note_on_c, 9, 35, 0
11, 44450, Note_on_c, 9, 40, 0
11, 44482, Note_on_c, 9, 39, 0
11, 44502, Note_on_c, 9, 40, 53
11, 44524, Note_on_c, 9, 35, 28
11, 44630, Note_on_c, 9, 35, 0
11, 44758, Note_on_c, 9, 40, 0
11, 44888, Note_on_c, 9, 44, 70
11, 44904, Note_on_c, 9, 40, 58
11, 44952, Note_on_c, 9, 44, 0
11, 45150, Note_on_c, 9, 40, 0
11, 45280, Note_on_c, 9, 40, 58
11, 45506, Note_on_c, 9, 40, 0
11, 45566, Note_on_c, 9, 40, 36
11, 45574, Note_on_c, 9, 39, 28
11, 45604, Note_on_c, 9, 40, 0
11, 45614, Note_on_c, 9, 39, 0
11, 45656, Note_on_c, 9, 44, 70
11, 45660, Note_on_c, 9, 37, 70
11, 45720, Note_on_c, 9, 44, 0
11, 45724, Note_on_c, 9, 37, 0
11, 45770, Note_on_c, 9, 40, 52
11, 45926, Note_on_c, 9, 40, 38
11, 45940, Note_on_c, 9, 40, 0
11, 45982, Note_on_c, 9, 40, 0
11, 46036, Note_on_c, 9, 35, 54
11, 46046, Note_on_c, 9, 40, 57
11, 46204, Note_on_c, 9, 35, 0
11, 46310, Note_on_c, 9, 40, 0
11, 46424, Note_on_c, 9, 44, 70
11, 46430, Note_on_c, 9, 40, 54
11, 46488, Note_on_c, 9, 44, 0
11, 46680, Note_on_c, 9, 40, 0
11, 46726, Note_on_c, 9, 39, 29
11, 46754, Note_on_c, 9, 39, 0
11, 46814, Note_on_c, 9, 40, 56
11, 47042, Note_on_c, 9, 40, 0
11, 47076, Note_on_c, 9, 39, 44
11, 47096, Note_on_c, 9, 40, 44
11, 47102, Note_on_c, 9, 40, 15
11, 47114, Note_on_c, 9, 39, 0
11, 47136, Note_on_c, 9, 40, 0
11, 47158, Note_on_c, 9, 40, 0
11, 47192, Note_on_c, 9, 37, 70
11, 47192, Note_on_c, 9, 44, 70
11, 47206, Note_on_c, 9, 40, 51
11, 47256, Note_on_c, 9, 44, 0
11, 47256, Note_on_c, 9, 37, 0
11, 47372, Note_on_c, 9, 35, 53
11, 47412, Note_on_c, 9, 35, 0
11, 47476, Note_on_c, 9, 40, 0
11, 47504, Note_on_c, 9, 35, 66
11, 47580, Note_on_c, 9, 40, 56
11, 47586, Note_on_c, 9, 35, 0
11, 47640, Note_on_c, 9, 35, 60
11, 47688, Note_on_c, 9, 35, 0
11, 47832, Note_on_c, 9, 40, 0
11, 47960, Note_on_c, 9, 44, 70
11, 47974, Note_on_c, 9, 40, 58
11, 48024, Note_on_c, 9, 44, 0
11, 48150, Note_on_c, 9, 40, 0
11, 48242, Note_on_c, 9, 40, 34
11, 48246, Note_on_c, 9, 39, 35
11, 48272, Note_on_c, 9, 39, 0
11, 48274, Note_on_c, 9, 40, 48
11, 48278, Note_on_c, 9, 40, 0
11, 48314, Note_on_c, 9, 40, 0
11, 48368, Note_on_c, 9, 40, 50
11, 48368, Note_on_c, 9, 35, 29
11, 48534, Note_on_c, 9, 35, 0
11, 48614, Note_on_c, 9, 35, 33
11, 48630, Note_on_c, 9, 40, 0
11, 48638, Note_on_c, 9, 39, 35
11, 48650, Note_on_c, 9, 35, 0
11, 48672, Note_on_c, 9, 39, 0
11, 48728, Note_on_c, 9, 37, 70
11, 48728, Note_on_c, 9, 44, 70
11, 48792, Note_on_c, 9, 44, 0
11, 48792, Note_on_c, 9, 37, 0
11, 48850, Note_on_c, 9, 40, 54
11, 48884, Note_on_c, 9, 40, 0
11, 49020, Note_on_c, 9, 40, 46
11, 49060, Note_on_c, 9, 40, 0
11, 49118, Note_on_c, 9, 40, 50
11, 49460, Note_on_c, 9, 40, 0
11, 49490, Note_on_c, 9, 40, 53
11, 49496, Note_on_c, 9, 44, 70
11, 49560, Note_on_c, 9, 44, 0
11, 49836, Note_on_c, 9, 40, 0
11, 49876, Note_on_c, 9, 40, 43
11, 50212, Note_on_c, 9, 40, 0
11, 50254, Note_on_c, 9, 51, 47
11, 50254, Note_on_c, 9, 40, 48
11, 50264, Note_on_c, 9, 37, 70
11, 50264, Note_on_c, 9, 44, 70
11, 50328, Note_on_c, 9, 44, 0
11, 50328, Note_on_c, 9, 37, 0
11, 50550, Note_on_c, 9, 51, 0
11, 50564, Note_on_c, 9, 40, 0
11, 50644, Note_on_c, 9, 40, 46
11, 50934, Note_on_c, 9, 35, 47
11, 50954, Note_on_c, 9, 40, 0
11, 50964, Note_on_c, 9, 35, 0
11, 51026, Note_on_c, 9, 59, 78
11, 51030, Note_on_c, 9, 40, 41
11, 51032, Note_on_c, 9, 51, 71
11, 51032, Note_on_c, 9, 44, 70
11, 51096, Note_on_c, 9, 44, 0
11, 51290, Note_on_c, 9, 59, 0
11, 51316, Note_on_c, 9, 39, 51
11, 51374, Note_on_c, 9, 39, 0
11, 51374, Note_on_c, 9, 40, 0
11, 51444, Note_on_c, 9, 40, 44
11, 51446, Note_on_c, 9, 59, 70
11, 51522, Note_on_c, 9, 59, 0
11, 51642, Note_on_c, 9, 51, 0
11, 51700, Note_on_c, 9, 39, 56
11, 51708, Note_on_c, 9, 38, 60
11, 51744, Note_on_c, 9, 40, 0
11, 51762, Note_on_c, 9, 39, 0
11, 51772, Note_on_c, 9, 38, 0
11, 51800, Note_on_c, 9, 44, 70
11, 51814, Note_on_c, 9, 40, 47
11, 51864, Note_on_c, 9, 44, 0
11, 51920, Note_on_c, 9, 51, 62
11, 52072, Note_on_c, 9, 51, 0
11, 52076, Note_on_c, 9, 39, 50
11, 52084, Note_on_c, 9, 38, 30
11, 52106, Note_on_c, 9, 40, 0
11, 52136, Note_on_c, 9, 39, 0
11, 52152, Note_on_c, 9, 38, 0
11, 52178, Note_on_c, 9, 40, 47
11, 52188, Note_on_c, 9, 49, 30
11, 52224, Program_c, 9, 32
11, 52240, Program_c, 9, 0
11, 52252, Note_on_c, 9, 49, 0
11, 52306, Note_on_c, 9, 40, 0
11, 52568, Note_on_c, 9, 44, 70
11, 52568, Note_on_c, 9, 51, 108
11, 52632, Note_on_c, 9, 44, 0
11, 52636, Note_on_c, 9, 51, 0
11, 52952, Note_on_c, 9, 51, 88
11, 53020, Note_on_c, 9, 51, 0
11, 53210, Note_on_c, 9, 37, 74
11, 53272, Note_on_c, 9, 37, 0
11, 53336, Note_on_c, 9, 44, 70
11, 53338, Note_on_c, 9, 37, 44
11, 53340, Note_on_c, 9, 51, 108
11, 53340, Note_on_c, 9, 37, 70
11, 53386, Note_on_c, 9, 37, 0
11, 53400, Note_on_c, 9, 44, 0
11, 53400, Note_on_c, 9, 37, 0
11, 53404, Note_on_c, 9, 51, 0
11, 53588, Note_on_c, 9, 37, 69
11, 53666, Note_on_c, 9, 37, 0
11, 53720, Note_on_c, 9, 51, 88
11, 53736, Note_on_c, 9, 35, 66
11, 53788, Note_on_c, 9, 51, 0
11, 53794, Note_on_c, 9, 35, 0
11, 54104, Note_on_c, 9, 44, 70
11, 54104, Note_on_c, 9, 51, 98
11, 54168, Note_on_c, 9, 44, 0
11, 54172, Note_on_c, 9, 51, 0
11, 54488, Note_on_c, 9, 51, 88
11, 54556, Note_on_c, 9, 51, 0
11, 54872, Note_on_c, 9, 37, 70
11, 54872, Note_on_c, 9, 44, 70
11, 54876, Note_on_c, 9, 51, 98
11, 54936, Note_on_c, 9, 44, 0
11, 54940, Note_on_c, 9, 51, 0
11, 54940, Note_on_c, 9, 37, 0
11, 55256, Note_on_c, 9, 51, 88
11, 55324, Note_on_c, 9, 51, 0
11, 55640, Note_on_c, 9, 44, 70
11, 55640, Note_on_c, 9, 51, 98
11, 55704, Note_on_c, 9, 44, 0
11, 55708, Note_on_c, 9, 51, 0
11, 55924, Note_on_c, 9, 51, 68
11, 55996, Note_on_c, 9, 51, 0
11, 56024, Note_on_c, 9, 51, 88
11, 56092, Note_on_c, 9, 51, 0
11, 56408, Note_on_c, 9, 37, 60
11, 56408, Note_on_c, 9, 44, 70
11, 56412, Note_on_c, 9, 51, 98
11, 56472, Note_on_c, 9, 44, 0
11, 56472, Note_on_c, 9, 37, 0
11, 56476, Note_on_c, 9, 51, 0
11, 56692, Note_on_c, 9, 51, 68
11, 56756, Note_on_c, 9, 51, 0
11, 56792, Note_on_c, 9, 51, 88
11, 56860, Note_on_c, 9, 51, 0
11, 57176, Note_on_c, 9, 51, 98
11, 57176, Note_on_c, 9, 44, 70
11, 57236, Note_on_c, 9, 44, 0
11, 57244, Note_on_c, 9, 51, 0
11, 57282, Note_on_c, 9, 40, 27
11, 57340, Note_on_c, 9, 40, 0
11, 57560, Note_on_c, 9, 51, 88
11, 57628, Note_on_c, 9, 51, 0
11, 57944, Note_on_c, 9, 44, 70
11, 57948, Note_on_c, 9, 37, 70
11, 57948, Note_on_c, 9, 51, 98
11, 58008, Note_on_c, 9, 44, 0
11, 58012, Note_on_c, 9, 51, 0
11, 58012, Note_on_c, 9, 37, 0
11, 58068, Note_on_c, 9, 40, 41
11, 58120, Note_on_c, 9, 40, 0
11, 58194, Note_on_c, 9, 37, 69
11, 58298, Note_on_c, 9, 37, 0
11, 58322, Note_on_c, 9, 35, 59
11, 58328, Note_on_c, 9, 51, 88
11, 58396, Note_on_c, 9, 51, 0
11, 58448, Note_on_c, 9, 35, 0
11, 58712, Note_on_c, 9, 44, 70
11, 58716, Note_on_c, 9, 51, 98
11, 58776, Note_on_c, 9, 44, 0
11, 58780, Note_on_c, 9, 51, 0
11, 59004, Note_on_c, 9, 51, 68
11, 59060, Note_on_c, 9, 51, 0
11, 59096, Note_on_c, 9, 51, 88
11, 59164, Note_on_c, 9, 51, 0
11, 59234, Note_on_c, 9, 40, 23
11, 59270, Note_on_c, 9, 40, 0
11, 59336, Note_on_c, 9, 40, 27
11, 59392, Note_on_c, 9, 40, 0
11, 59480, Note_on_c, 9, 44, 70
11, 59480, Note_on_c, 9, 40, 27
11, 59484, Note_on_c, 9, 37, 60
11, 59484, Note_on_c, 9, 51, 98
11, 59516, Note_on_c, 9, 40, 0
11, 59544, Note_on_c, 9, 44, 0
11, 59548, Note_on_c, 9, 37, 0
11, 59548, Note_on_c, 9, 51, 0
11, 59726, Note_on_c, 9, 40, 40
11, 59754, Note_on_c, 9, 40, 0
11, 59764, Note_on_c, 9, 51, 68
11, 59832, Note_on_c, 9, 51, 0
11, 59864, Note_on_c, 9, 51, 88
11, 59932, Note_on_c, 9, 51, 0
11, 60244, Note_on_c, 9, 44, 70
11, 60248, Note_on_c, 9, 51, 98
11, 60312, Note_on_c, 9, 44, 0
11, 60316, Note_on_c, 9, 51, 0
11, 60632, Note_on_c, 9, 51, 88
11, 60700, Note_on_c, 9, 51, 0
11, 60894, Note_on_c, 9, 40, 33
11, 60922, Note_on_c, 9, 40, 0
11, 61016, Note_on_c, 9, 44, 70
11, 61020, Note_on_c, 9, 37, 70
11, 61020, Note_on_c, 9, 51, 98
11, 61080, Note_on_c, 9, 37, 0
11, 61080, Note_on_c, 9, 44, 0
11, 61084, Note_on_c, 9, 51, 0
11, 61400, Note_on_c, 9, 51, 88
11, 61468, Note_on_c, 9, 51, 0
11, 61658, Note_on_c, 9, 40, 26
11, 61690, Note_on_c, 9, 40, 0
11, 61784, Note_on_c, 9, 51, 108
11, 61784, Note_on_c, 9, 44, 70
11, 61844, Note_on_c, 9, 44, 0
11, 61852, Note_on_c, 9, 51, 0
11, 62044, Note_on_c, 9, 40, 29
11, 62074, Note_on_c, 9, 40, 0
11, 62168, Note_on_c, 9, 51, 88
11, 62236, Note_on_c, 9, 51, 0
11, 62420, Note_on_c, 9, 40, 34
11, 62448, Note_on_c, 9, 40, 0
11, 62552, Note_on_c, 9, 44, 70
11, 62552, Note_on_c, 9, 51, 108
11, 62552, Note_on_c, 9, 37, 70
11, 62616, Note_on_c, 9, 37, 0
11, 62616, Note_on_c, 9, 44, 0
11, 62620, Note_on_c, 9, 51, 0
11, 62794, Note_on_c, 9, 40, 34
11, 62820, Note_on_c, 9, 40, 0
11, 62936, Note_on_c, 9, 51, 88
11, 63004, Note_on_c, 9, 51, 0
11, 63192, Note_on_c, 9, 40, 29
11, 63224, Note_on_c, 9, 40, 0
11, 63320, Note_on_c, 9, 44, 70
11, 63320, Note_on_c, 9, 51, 98
11, 63384, Note_on_c, 9, 44, 0
11, 63388, Note_on_c, 9, 51, 0
11, 63612, Note_on_c, 9, 51, 68
11, 63668, Note_on_c, 9, 51, 0
11, 63704, Note_on_c, 9, 51, 88
11, 63772, Note_on_c, 9, 51, 0
11, 63992, Note_on_c, 9, 38, 60
11, 64052, Note_on_c, 9, 38, 0
11, 64088, Note_on_c, 9, 51, 98
11, 64088, Note_on_c, 9, 44, 70
11, 64152, Note_on_c, 9, 44, 0
11, 64156, Note_on_c, 9, 51, 0
11, 64360, Note_on_c, 9, 37, 88
11, 64374, Note_on_c, 9, 57, 33
11, 64376, Note_on_c, 9, 38, 30
11, 64380, Note_on_c, 9, 51, 68
11, 64406, Note_on_c, 9, 57, 0
11, 64432, Note_on_c, 9, 51, 0
11, 64432, Note_on_c, 9, 38, 0
11, 64472, Note_on_c, 9, 51, 88
11, 64492, Note_on_c, 9, 35, 79
11, 64512, Note_on_c, 9, 37, 0
11, 64540, Note_on_c, 9, 51, 0
11, 64856, Note_on_c, 9, 51, 98
11, 64856, Note_on_c, 9, 44, 70
11, 64920, Note_on_c, 9, 44, 0
11, 64924, Note_on_c, 9, 51, 0
11, 65140, Note_on_c, 9, 51, 68
11, 65212, Note_on_c, 9, 51, 0
11, 65240, Note_on_c, 9, 51, 88
11, 65308, Note_on_c, 9, 51, 0
11, 65532, Note_on_c, 9, 35, 0
11, 65624, Note_on_c, 9, 37, 60
11, 65624, Note_on_c, 9, 44, 70
11, 65628, Note_on_c, 9, 51, 98
11, 65688, Note_on_c, 9, 44, 0
11, 65688, Note_on_c, 9, 37, 0
11, 65692, Note_on_c, 9, 51, 0
11, 65904, Note_on_c, 9, 51, 68
11, 65972, Note_on_c, 9, 51, 0
11, 66008, Note_on_c, 9, 51, 88
11, 66076, Note_on_c, 9, 51, 0
11, 66392, Note_on_c, 9, 44, 70
11, 66392, Note_on_c, 9, 51, 98
11, 66456, Note_on_c, 9, 44, 0
11, 66460, Note_on_c, 9, 51, 0
11, 66676, Note_on_c, 9, 51, 68
11, 66748, Note_on_c, 9, 51, 0
11, 66776, Note_on_c, 9, 51, 88
11, 66844, Note_on_c, 9, 51, 0
11, 67042, Note_on_c, 9, 37, 36
11, 67116, Note_on_c, 9, 37, 0
11, 67154, Note_on_c, 9, 35, 32
11, 67160, Note_on_c, 9, 44, 70
11, 67160, Note_on_c, 9, 37, 70
11, 67164, Note_on_c, 9, 51, 98
11, 67186, Note_on_c, 9, 35, 0
11, 67224, Note_on_c, 9, 44, 0
11, 67224, Note_on_c, 9, 37, 0
11, 67228, Note_on_c, 9, 51, 0
11, 67410, Note_on_c, 9, 35, 53
11, 67440, Note_on_c, 9, 51, 68
11, 67496, Note_on_c, 9, 35, 0
11, 67516, Note_on_c, 9, 51, 0
11, 67544, Note_on_c, 9, 51, 88
11, 67588, Note_on_c, 9, 35, 31
11, 67612, Note_on_c, 9, 51, 0
11, 67640, Note_on_c, 9, 35, 0
11, 67820, Note_on_c, 9, 35, 54
11, 67852, Note_on_c, 9, 35, 0
11, 67928, Note_on_c, 9, 44, 70
11, 67932, Note_on_c, 9, 51, 108
11, 67992, Note_on_c, 9, 44, 0
11, 67996, Note_on_c, 9, 51, 0
11, 68312, Note_on_c, 9, 51, 88
11, 68380, Note_on_c, 9, 51, 0
11, 68696, Note_on_c, 9, 44, 70
11, 68700, Note_on_c, 9, 51, 108
11, 68700, Note_on_c, 9, 37, 70
11, 68760, Note_on_c, 9, 44, 0
11, 68764, Note_on_c, 9, 37, 0
11, 68764, Note_on_c, 9, 51, 0
11, 69080, Note_on_c, 9, 51, 88
11, 69148, Note_on_c, 9, 51, 0
11, 69464, Note_on_c, 9, 44, 70
11, 69468, Note_on_c, 9, 51, 108
11, 69474, Note_on_c, 9, 40, 19
11, 69498, Note_on_c, 9, 40, 0
11, 69528, Note_on_c, 9, 44, 0
11, 69532, Note_on_c, 9, 51, 0
11, 69654, Note_on_c, 9, 40, 40
11, 69680, Note_on_c, 9, 40, 0
11, 69844, Note_on_c, 9, 51, 88
11, 69862, Note_on_c, 9, 40, 50
11, 69906, Note_on_c, 9, 40, 0
11, 69916, Note_on_c, 9, 51, 0
11, 69962, Note_on_c, 9, 40, 44
11, 70000, Note_on_c, 9, 40, 0
11, 70232, Note_on_c, 9, 44, 70
11, 70236, Note_on_c, 9, 37, 70
11, 70236, Note_on_c, 9, 51, 108
11, 70296, Note_on_c, 9, 37, 0
11, 70296, Note_on_c, 9, 44, 0
11, 70300, Note_on_c, 9, 51, 0
11, 70506, Note_on_c, 9, 37, 47
11, 70568, Note_on_c, 9, 37, 0
11, 70620, Note_on_c, 9, 51, 88
11, 70646, Note_on_c, 9, 35, 48
11, 70684, Note_on_c, 9, 51, 0
11, 70820, Note_on_c, 9, 35, 0
11, 70892, Note_on_c, 9, 35, 37
11, 70928, Note_on_c, 9, 35, 0
11, 71000, Note_on_c, 9, 44, 70
11, 71004, Note_on_c, 9, 51, 98
11, 71064, Note_on_c, 9, 44, 0
11, 71068, Note_on_c, 9, 51, 0
11, 71284, Note_on_c, 9, 51, 68
11, 71348, Note_on_c, 9, 51, 0
11, 71384, Note_on_c, 9, 51, 88
11, 71452, Note_on_c, 9, 51, 0
11, 71638, Note_on_c, 9, 40, 50
11, 71684, Note_on_c, 9, 40, 0
11, 71768, Note_on_c, 9, 44, 70
11, 71772, Note_on_c, 9, 35, 36
11, 71772, Note_on_c, 9, 51, 98
11, 71772, Note_on_c, 9, 37, 60
11, 71814, Note_on_c, 9, 35, 0
11, 71832, Note_on_c, 9, 44, 0
11, 71832, Note_on_c, 9, 37, 0
11, 71836, Note_on_c, 9, 51, 0
11, 72010, Note_on_c, 9, 40, 38
11, 72036, Note_on_c, 9, 40, 0
11, 72052, Note_on_c, 9, 51, 68
11, 72116, Note_on_c, 9, 51, 0
11, 72152, Note_on_c, 9, 51, 88
11, 72220, Note_on_c, 9, 51, 0
11, 72536, Note_on_c, 9, 44, 70
11, 72540, Note_on_c, 9, 51, 108
11, 72600, Note_on_c, 9, 44, 0
11, 72604, Note_on_c, 9, 51, 0
11, 72920, Note_on_c, 9, 51, 88
11, 72988, Note_on_c, 9, 51, 0
11, 73304, Note_on_c, 9, 37, 70
11, 73304, Note_on_c, 9, 44, 70
11, 73308, Note_on_c, 9, 51, 108
11, 73368, Note_on_c, 9, 44, 0
11, 73368, Note_on_c, 9, 37, 0
11, 73372, Note_on_c, 9, 51, 0
11, 73688, Note_on_c, 9, 51, 88
11, 73756, Note_on_c, 9, 51, 0
11, 74072, Note_on_c, 9, 44, 70
11, 74072, Note_on_c, 9, 51, 98
11, 74136, Note_on_c, 9, 44, 0
11, 74140, Note_on_c, 9, 51, 0
11, 74356, Note_on_c, 9, 51, 68
11, 74424, Note_on_c, 9, 51, 0
11, 74456, Note_on_c, 9, 51, 88
11, 74524, Note_on_c, 9, 51, 0
11, 74836, Note_on_c, 9, 44, 70
11, 74840, Note_on_c, 9, 51, 98
11, 74840, Note_on_c, 9, 37, 60
11, 74904, Note_on_c, 9, 37, 0
11, 74904, Note_on_c, 9, 44, 0
11, 74908, Note_on_c, 9, 51, 0
11, 75124, Note_on_c, 9, 51, 68
11, 75196, Note_on_c, 9, 51, 0
11, 75224, Note_on_c, 9, 51, 88
11, 75292, Note_on_c, 9, 51, 0
11, 75498, Note_on_c, 9, 37, 35
11, 75586, Note_on_c, 9, 37, 0
11, 75608, Note_on_c, 9, 44, 70
11, 75612, Note_on_c, 9, 51, 98
11, 75632, Note_on_c, 9, 35, 24
11, 75672, Note_on_c, 9, 44, 0
11, 75676, Note_on_c, 9, 51, 0
11, 75766, Note_on_c, 9, 35, 0
11, 75892, Note_on_c, 9, 51, 68
11, 75902, Note_on_c, 9, 35, 38
11, 75946, Note_on_c, 9, 35, 0
11, 75964, Note_on_c, 9, 51, 0
11, 75992, Note_on_c, 9, 51, 88
11, 76060, Note_on_c, 9, 51, 0
11, 76276, Note_on_c, 9, 38, 60
11, 76348, Note_on_c, 9, 38, 0
11, 76376, Note_on_c, 9, 44, 70
11, 76376, Note_on_c, 9, 51, 98
11, 76436, Note_on_c, 9, 44, 0
11, 76444, Note_on_c, 9, 51, 0
11, 76648, Note_on_c, 9, 37, 67
11, 76660, Note_on_c, 9, 51, 68
11, 76660, Note_on_c, 9, 38, 30
11, 76728, Note_on_c, 9, 38, 0
11, 76732, Note_on_c, 9, 51, 0
11, 76760, Note_on_c, 9, 51, 88
11, 76780, Note_on_c, 9, 57, 38
11, 76780, Note_on_c, 9, 35, 94
11, 76824, Note_on_c, 9, 37, 0
11, 76828, Note_on_c, 9, 51, 0
11, 77144, Note_on_c, 9, 44, 70
11, 77148, Note_on_c, 9, 51, 98
11, 77208, Note_on_c, 9, 44, 0
11, 77212, Note_on_c, 9, 51, 0
11, 77432, Note_on_c, 9, 51, 68
11, 77492, Note_on_c, 9, 51, 0
11, 77528, Note_on_c, 9, 51, 88
11, 77596, Note_on_c, 9, 51, 0
11, 77750, Note_on_c, 9, 57, 0
11, 77782, Note_on_c, 9, 35, 0
11, 77800, Note_on_c, 9, 37, 67
11, 77884, Note_on_c, 9, 37, 0
11, 77912, Note_on_c, 9, 44, 70
11, 77912, Note_on_c, 9, 37, 70
11, 77912, Note_on_c, 9, 57, 41
11, 77914, Note_on_c, 9, 35, 89
11, 77916, Note_on_c, 9, 51, 98
11, 77976, Note_on_c, 9, 44, 0
11, 77980, Note_on_c, 9, 37, 0
11, 77980, Note_on_c, 9, 51, 0
11, 78204, Note_on_c, 9, 51, 68
11, 78260, Note_on_c, 9, 51, 0
11, 78296, Note_on_c, 9, 51, 88
11, 78364, Note_on_c, 9, 51, 0
11, 78680, Note_on_c, 9, 44, 70
11, 78680, Note_on_c, 9, 51, 108
11, 78742, Note_on_c, 9, 57, 0
11, 78744, Note_on_c, 9, 44, 0
11, 78748, Note_on_c, 9, 51, 0
11, 79064, Note_on_c, 9, 51, 88
11, 79132, Note_on_c, 9, 51, 0
11, 79448, Note_on_c, 9, 44, 70
11, 79448, Note_on_c, 9, 51, 108
11, 79448, Note_on_c, 9, 37, 70
11, 79512, Note_on_c, 9, 37, 0
11, 79512, Note_on_c, 9, 44, 0
11, 79516, Note_on_c, 9, 51, 0
11, 79516, Note_on_c, 9, 35, 0
11, 79832, Note_on_c, 9, 51, 88
11, 79900, Note_on_c, 9, 51, 0
11, 80216, Note_on_c, 9, 51, 108
11, 80216, Note_on_c, 9, 44, 70
11, 80280, Note_on_c, 9, 44, 0
11, 80284, Note_on_c, 9, 51, 0
11, 80600, Note_on_c, 9, 51, 88
11, 80668, Note_on_c, 9, 51, 0
11, 80984, Note_on_c, 9, 37, 70
11, 80984, Note_on_c, 9, 44, 70
11, 80988, Note_on_c, 9, 51, 108
11, 81044, Note_on_c, 9, 44, 0
11, 81044, Note_on_c, 9, 37, 0
11, 81056, Note_on_c, 9, 51, 0
11, 81368, Note_on_c, 9, 51, 88
11, 81372, Note_on_c, 9, 40, 23
11, 81406, Note_on_c, 9, 40, 0
11, 81436, Note_on_c, 9, 51, 0
11, 81562, Note_on_c, 9, 40, 42
11, 81588, Note_on_c, 9, 40, 0
11, 81752, Note_on_c, 9, 44, 70
11, 81756, Note_on_c, 9, 51, 108
11, 81794, Note_on_c, 9, 40, 48
11, 81816, Note_on_c, 9, 44, 0
11, 81818, Note_on_c, 9, 40, 0
11, 81820, Note_on_c, 9, 51, 0
11, 81860, Note_on_c, 9, 40, 44
11, 81886, Note_on_c, 9, 40, 0
11, 82136, Note_on_c, 9, 51, 88
11, 82204, Note_on_c, 9, 51, 0
11, 82520, Note_on_c, 9, 44, 70
11, 82524, Note_on_c, 9, 51, 108
11, 82524, Note_on_c, 9, 37, 70
11, 82584, Note_on_c, 9, 44, 0
11, 82588, Note_on_c, 9, 37, 0
11, 82588, Note_on_c, 9, 51, 0
11, 82784, Note_on_c, 9, 37, 58
11, 82878, Note_on_c, 9, 37, 0
11, 82908, Note_on_c, 9, 51, 88
11, 82972, Note_on_c, 9, 51, 0
11, 83288, Note_on_c, 9, 44, 70
11, 83288, Note_on_c, 9, 51, 98
11, 83352, Note_on_c, 9, 44, 0
11, 83356, Note_on_c, 9, 51, 0
11, 83572, Note_on_c, 9, 51, 68
11, 83632, Note_on_c, 9, 51, 0
11, 83672, Note_on_c, 9, 51, 88
11, 83740, Note_on_c, 9, 51, 0
11, 83938, Note_on_c, 9, 35, 36
11, 83980, Note_on_c, 9, 35, 0
11, 84056, Note_on_c, 9, 37, 60
11, 84056, Note_on_c, 9, 44, 70
11, 84060, Note_on_c, 9, 51, 98
11, 84074, Note_on_c, 9, 35, 31
11, 84120, Note_on_c, 9, 44, 0
11, 84124, Note_on_c, 9, 37, 0
11, 84124, Note_on_c, 9, 51, 0
11, 84148, Note_on_c, 9, 35, 0
11, 84332, Note_on_c, 9, 35, 37
11, 84340, Note_on_c, 9, 51, 68
11, 84380, Note_on_c, 9, 35, 0
11, 84412, Note_on_c, 9, 51, 0
11, 84440, Note_on_c, 9, 51, 88
11, 84508, Note_on_c, 9, 51, 0
11, 84824, Note_on_c, 9, 44, 70
11, 84824, Note_on_c, 9, 51, 98
11, 84888, Note_on_c, 9, 44, 0
11, 84892, Note_on_c, 9, 51, 0
11, 85208, Note_on_c, 9, 51, 88
11, 85276, Note_on_c, 9, 51, 0
11, 85344, Note_on_c, 9, 37, 21
11, 85404, Note_on_c, 9, 37, 0
11, 85452, Note_on_c, 9, 37, 65
11, 85542, Note_on_c, 9, 37, 0
11, 85580, Note_on_c, 9, 37, 69
11, 85592, Note_on_c, 9, 37, 70
11, 85592, Note_on_c, 9, 44, 70
11, 85596, Note_on_c, 9, 51, 98
11, 85644, Note_on_c, 9, 37, 0
11, 85656, Note_on_c, 9, 37, 0
11, 85656, Note_on_c, 9, 44, 0
11, 85660, Note_on_c, 9, 51, 0
11, 85868, Note_on_c, 9, 35, 51
11, 85908, Note_on_c, 9, 35, 0
11, 85976, Note_on_c, 9, 51, 88
11, 86044, Note_on_c, 9, 51, 0
11, 86360, Note_on_c, 9, 51, 108
11, 86360, Note_on_c, 9, 44, 70
11, 86424, Note_on_c, 9, 44, 0
11, 86428, Note_on_c, 9, 51, 0
11, 86744, Note_on_c, 9, 51, 88
11, 86806, Note_on_c, 9, 46, 47
11, 86812, Note_on_c, 9, 51, 0
11, 86954, Note_on_c, 9, 46, 0
11, 87118, Note_on_c, 9, 46, 68
11, 87128, Note_on_c, 9, 44, 70
11, 87132, Note_on_c, 9, 37, 70
11, 87132, Note_on_c, 9, 51, 108
11, 87192, Note_on_c, 9, 37, 0
11, 87192, Note_on_c, 9, 44, 0
11, 87196, Note_on_c, 9, 51, 0
11, 87238, Note_on_c, 9, 46, 0
11, 87408, Note_on_c, 9, 46, 77
11, 87504, Note_on_c, 9, 46, 0
11, 87512, Note_on_c, 9, 51, 88
11, 87580, Note_on_c, 9, 51, 0
11, 87676, Note_on_c, 9, 46, 71
11, 87792, Note_on_c, 9, 46, 0
11, 87896, Note_on_c, 9, 44, 70
11, 87896, Note_on_c, 9, 51, 98
11, 87930, Note_on_c, 9, 46, 81
11, 87960, Note_on_c, 9, 44, 0
11, 87964, Note_on_c, 9, 51, 0
11, 88074, Note_on_c, 9, 46, 0
11, 88186, Note_on_c, 9, 46, 74
11, 88188, Note_on_c, 9, 51, 68
11, 88240, Note_on_c, 9, 51, 0
11, 88280, Note_on_c, 9, 51, 88
11, 88294, Note_on_c, 9, 46, 0
11, 88348, Note_on_c, 9, 51, 0
11, 88420, Note_on_c, 9, 46, 78
11, 88544, Note_on_c, 9, 46, 0
11, 88568, Note_on_c, 9, 38, 60
11, 88632, Note_on_c, 9, 38, 0
11, 88664, Note_on_c, 9, 44, 70
11, 88664, Note_on_c, 9, 51, 98
11, 88672, Note_on_c, 9, 46, 75
11, 88676, Note_on_c, 9, 37, 59
11, 88728, Note_on_c, 9, 44, 0
11, 88732, Note_on_c, 9, 51, 0
11, 88736, Note_on_c, 9, 46, 0
11, 88928, Note_on_c, 9, 57, 37
11, 88944, Note_on_c, 9, 35, 83
11, 88952, Note_on_c, 9, 38, 30
11, 88956, Note_on_c, 9, 51, 68
11, 88978, Note_on_c, 9, 37, 0
11, 89016, Note_on_c, 9, 38, 0
11, 89020, Note_on_c, 9, 51, 0
11, 89048, Note_on_c, 9, 51, 88
11, 89116, Note_on_c, 9, 51, 0
11, 89432, Note_on_c, 9, 51, 98
11, 89432, Note_on_c, 9, 44, 70
11, 89496, Note_on_c, 9, 44, 0
11, 89500, Note_on_c, 9, 51, 0
11, 89716, Note_on_c, 9, 51, 68
11, 89780, Note_on_c, 9, 51, 0
11, 89816, Note_on_c, 9, 51, 88
11, 89884, Note_on_c, 9, 51, 0
11, 89936, Note_on_c, 9, 57, 0
11, 90096, Note_on_c, 9, 35, 0
11, 90114, Note_on_c, 9, 37, 25
11, 90154, Note_on_c, 9, 37, 0
11, 90200, Note_on_c, 9, 37, 60
11, 90200, Note_on_c, 9, 44, 70
11, 90204, Note_on_c, 9, 51, 98
11, 90264, Note_on_c, 9, 44, 0
11, 90264, Note_on_c, 9, 37, 0
11, 90268, Note_on_c, 9, 51, 0
11, 90418, Note_on_c, 9, 35, 78
11, 90484, Note_on_c, 9, 51, 68
11, 90488, Note_on_c, 9, 35, 0
11, 90548, Note_on_c, 9, 51, 0
11, 90584, Note_on_c, 9, 51, 88
11, 90652, Note_on_c, 9, 51, 0
11, 90968, Note_on_c, 9, 51, 98
11, 90968, Note_on_c, 9, 44, 70
11, 91032, Note_on_c, 9, 44, 0
11, 91036, Note_on_c, 9, 51, 0
11, 91252, Note_on_c, 9, 51, 68
11, 91324, Note_on_c, 9, 51, 0
11, 91352, Note_on_c, 9, 51, 88
11, 91420, Note_on_c, 9, 51, 0
11, 91736, Note_on_c, 9, 44, 70
11, 91740, Note_on_c, 9, 37, 70
11, 91740, Note_on_c, 9, 51, 98
11, 91800, Note_on_c, 9, 44, 0
11, 91804, Note_on_c, 9, 51, 0
11, 91804, Note_on_c, 9, 37, 0
11, 92024, Note_on_c, 9, 51, 68
11, 92084, Note_on_c, 9, 51, 0
11, 92120, Note_on_c, 9, 51, 88
11, 92188, Note_on_c, 9, 51, 0
11, 92504, Note_on_c, 9, 44, 70
11, 92508, Note_on_c, 9, 51, 108
11, 92568, Note_on_c, 9, 44, 0
11, 92572, Note_on_c, 9, 51, 0
11, 92788, Note_on_c, 9, 35, 41
11, 92826, Note_on_c, 9, 35, 0
11, 92888, Note_on_c, 9, 51, 88
11, 92956, Note_on_c, 9, 51, 0
11, 93272, Note_on_c, 9, 44, 70
11, 93276, Note_on_c, 9, 51, 108
11, 93276, Note_on_c, 9, 37, 70
11, 93336, Note_on_c, 9, 44, 0
11, 93340, Note_on_c, 9, 37, 0
11, 93340, Note_on_c, 9, 51, 0
11, 93554, Note_on_c, 9, 35, 38
11, 93592, Note_on_c, 9, 35, 0
11, 93656, Note_on_c, 9, 51, 88
11, 93724, Note_on_c, 9, 51, 0
11, 94036, Note_on_c, 9, 44, 70
11, 94040, Note_on_c, 9, 51, 98
11, 94104, Note_on_c, 9, 44, 0
11, 94108, Note_on_c, 9, 51, 0
11, 94332, Note_on_c, 9, 51, 68
11, 94396, Note_on_c, 9, 51, 0
11, 94424, Note_on_c, 9, 51, 88
11, 94492, Note_on_c, 9, 51, 0
11, 94808, Note_on_c, 9, 44, 70
11, 94812, Note_on_c, 9, 51, 98
11, 94812, Note_on_c, 9, 37, 70
11, 94872, Note_on_c, 9, 37, 0
11, 94872, Note_on_c, 9, 44, 0
11, 94876, Note_on_c, 9, 51, 0
11, 95092, Note_on_c, 9, 51, 68
11, 95164, Note_on_c, 9, 51, 0
11, 95192, Note_on_c, 9, 51, 88
11, 95260, Note_on_c, 9, 51, 0
11, 95576, Note_on_c, 9, 51, 98
11, 95576, Note_on_c, 9, 44, 70
11, 95636, Note_on_c, 9, 44, 0
11, 95648, Note_on_c, 9, 51, 0
11, 95850, Note_on_c, 9, 35, 35
11, 95860, Note_on_c, 9, 51, 68
11, 95886, Note_on_c, 9, 35, 0
11, 95932, Note_on_c, 9, 51, 0
11, 95960, Note_on_c, 9, 51, 88
11, 96028, Note_on_c, 9, 51, 0
11, 96344, Note_on_c, 9, 44, 70
11, 96344, Note_on_c, 9, 37, 70
11, 96344, Note_on_c, 9, 51, 98
11, 96408, Note_on_c, 9, 44, 0
11, 96412, Note_on_c, 9, 51, 0
11, 96412, Note_on_c, 9, 37, 0
11, 96632, Note_on_c, 9, 51, 68
11, 96692, Note_on_c, 9, 51, 0
11, 96706, Note_on_c, 9, 40, 26
11, 96728, Note_on_c, 9, 51, 88
11, 96742, Note_on_c, 9, 40, 0
11, 96796, Note_on_c, 9, 51, 0
11, 97112, Note_on_c, 9, 51, 98
11, 97112, Note_on_c, 9, 44, 70
11, 97128, Note_on_c, 9, 40, 38
11, 97156, Note_on_c, 9, 40, 0
11, 97176, Note_on_c, 9, 44, 0
11, 97180, Note_on_c, 9, 51, 0
11, 97220, Note_on_c, 9, 40, 34
11, 97262, Note_on_c, 9, 40, 0
11, 97496, Note_on_c, 9, 51, 88
11, 97564, Note_on_c, 9, 51, 0
11, 97758, Note_on_c, 9, 35, 62
11, 97786, Note_on_c, 9, 35, 0
11, 97880, Note_on_c, 9, 37, 70
11, 97880, Note_on_c, 9, 44, 70
11, 97882, Note_on_c, 9, 35, 56
11, 97884, Note_on_c, 9, 51, 98
11, 97944, Note_on_c, 9, 44, 0
11, 97948, Note_on_c, 9, 37, 0
11, 97948, Note_on_c, 9, 51, 0
11, 98082, Note_on_c, 9, 35, 0
11, 98142, Note_on_c, 9, 35, 60
11, 98210, Note_on_c, 9, 35, 0
11, 98264, Note_on_c, 9, 51, 88
11, 98332, Note_on_c, 9, 51, 0
11, 98644, Note_on_c, 9, 44, 70
11, 98644, Note_on_c, 9, 51, 108
11, 98712, Note_on_c, 9, 44, 0
11, 98716, Note_on_c, 9, 51, 0
11, 99032, Note_on_c, 9, 51, 88
11, 99100, Note_on_c, 9, 51, 0
11, 99416, Note_on_c, 9, 44, 70
11, 99420, Note_on_c, 9, 37, 70
11, 99420, Note_on_c, 9, 51, 108
11, 99480, Note_on_c, 9, 37, 0
11, 99480, Note_on_c, 9, 44, 0
11, 99484, Note_on_c, 9, 51, 0
11, 99798, Note_on_c, 9, 40, 19
11, 99800, Note_on_c, 9, 51, 88
11, 99834, Note_on_c, 9, 40, 0
11, 99868, Note_on_c, 9, 51, 0
11, 99890, Note_on_c, 9, 40, 38
11, 99962, Note_on_c, 9, 40, 0
11, 100038, Note_on_c, 9, 40, 36
11, 100066, Note_on_c, 9, 40, 0
11, 100184, Note_on_c, 9, 44, 70
11, 100184, Note_on_c, 9, 51, 98
11, 100244, Note_on_c, 9, 44, 0
11, 100252, Note_on_c, 9, 51, 0
11, 100358, Note_on_c, 9, 40, 38
11, 100390, Note_on_c, 9, 40, 0
11, 100460, Note_on_c, 9, 40, 44
11, 100468, Note_on_c, 9, 51, 68
11, 100530, Note_on_c, 9, 40, 0
11, 100540, Note_on_c, 9, 51, 0
11, 100568, Note_on_c, 9, 51, 88
11, 100590, Note_on_c, 9, 40, 38
11, 100624, Note_on_c, 9, 40, 0
11, 100636, Note_on_c, 9, 51, 0
11, 100852, Note_on_c, 9, 38, 60
11, 100924, Note_on_c, 9, 38, 0
11, 100952, Note_on_c, 9, 44, 70
11, 100952, Note_on_c, 9, 51, 98
11, 100962, Note_on_c, 9, 40, 42
11, 100996, Note_on_c, 9, 40, 0
11, 101016, Note_on_c, 9, 44, 0
11, 101020, Note_on_c, 9, 51, 0
11, 101058, Note_on_c, 9, 40, 43
11, 101108, Note_on_c, 9, 40, 0
11, 101188, Note_on_c, 9, 37, 60
11, 101232, Note_on_c, 9, 38, 30
11, 101232, Note_on_c, 9, 51, 68
11, 101304, Note_on_c, 9, 38, 0
11, 101308, Note_on_c, 9, 51, 0
11, 101324, Note_on_c, 9, 37, 0
11, 101326, Note_on_c, 9, 35, 81
11, 101336, Note_on_c, 9, 51, 88
11, 101404, Note_on_c, 9, 51, 0
11, 101598, Note_on_c, 9, 35, 0
11, 101720, Note_on_c, 9, 51, 108
11, 101720, Note_on_c, 9, 44, 70
11, 101784, Note_on_c, 9, 44, 0
11, 101788, Note_on_c, 9, 51, 0
11, 102104, Note_on_c, 9, 51, 88
11, 102172, Note_on_c, 9, 51, 0
11, 102386, Note_on_c, 9, 35, 33
11, 102420, Note_on_c, 9, 35, 0
11, 102488, Note_on_c, 9, 44, 70
11, 102488, Note_on_c, 9, 37, 70
11, 102492, Note_on_c, 9, 51, 108
11, 102552, Note_on_c, 9, 44, 0
11, 102556, Note_on_c, 9, 51, 0
11, 102556, Note_on_c, 9, 37, 0
11, 102872, Note_on_c, 9, 51, 88
11, 102940, Note_on_c, 9, 51, 0
11, 103256, Note_on_c, 9, 51, 98
11, 103256, Note_on_c, 9, 44, 70
11, 103320, Note_on_c, 9, 44, 0
11, 103324, Note_on_c, 9, 51, 0
11, 103636, Note_on_c, 9, 51, 88
11, 103708, Note_on_c, 9, 51, 0
11, 104024, Note_on_c, 9, 44, 70
11, 104024, Note_on_c, 9, 37, 70
11, 104028, Note_on_c, 9, 51, 98
11, 104088, Note_on_c, 9, 37, 0
11, 104088, Note_on_c, 9, 44, 0
11, 104092, Note_on_c, 9, 51, 0
11, 104306, Note_on_c, 9, 35, 53
11, 104346, Note_on_c, 9, 35, 0
11, 104406, Note_on_c, 9, 35, 34
11, 104408, Note_on_c, 9, 51, 88
11, 104476, Note_on_c, 9, 51, 0
11, 104570, Note_on_c, 9, 35, 0
11, 104792, Note_on_c, 9, 44, 70
11, 104796, Note_on_c, 9, 51, 98
11, 104856, Note_on_c, 9, 44, 0
11, 104860, Note_on_c, 9, 51, 0
11, 105072, Note_on_c, 9, 35, 58
11, 105076, Note_on_c, 9, 51, 68
11, 105098, Note_on_c, 9, 35, 0
11, 105148, Note_on_c, 9, 51, 0
11, 105176, Note_on_c, 9, 51, 88
11, 105244, Note_on_c, 9, 51, 0
11, 105560, Note_on_c, 9, 44, 70
11, 105564, Note_on_c, 9, 37, 70
11, 105564, Note_on_c, 9, 51, 98
11, 105624, Note_on_c, 9, 37, 0
11, 105624, Note_on_c, 9, 44, 0
11, 105628, Note_on_c, 9, 51, 0
11, 105844, Note_on_c, 9, 51, 68
11, 105916, Note_on_c, 9, 51, 0
11, 105944, Note_on_c, 9, 51, 88
11, 106012, Note_on_c, 9, 51, 0
11, 106328, Note_on_c, 9, 44, 70
11, 106328, Note_on_c, 9, 51, 108
11, 106392, Note_on_c, 9, 44, 0
11, 106396, Note_on_c, 9, 51, 0
11, 106712, Note_on_c, 9, 51, 88
11, 106780, Note_on_c, 9, 51, 0
11, 107096, Note_on_c, 9, 37, 70
11, 107096, Note_on_c, 9, 44, 70
11, 107100, Note_on_c, 9, 51, 108
11, 107160, Note_on_c, 9, 44, 0
11, 107160, Note_on_c, 9, 37, 0
11, 107164, Note_on_c, 9, 51, 0
11, 107480, Note_on_c, 9, 51, 88
11, 107548, Note_on_c, 9, 51, 0
11, 107864, Note_on_c, 9, 44, 70
11, 107864, Note_on_c, 9, 51, 98
11, 107928, Note_on_c, 9, 44, 0
11, 107932, Note_on_c, 9, 51, 0
11, 108156, Note_on_c, 9, 51, 68
11, 108220, Note_on_c, 9, 51, 0
11, 108248, Note_on_c, 9, 51, 88
11, 108316, Note_on_c, 9, 51, 0
11, 108514, Note_on_c, 9, 40, 10
11, 108562, Note_on_c, 9, 40, 0
11, 108632, Note_on_c, 9, 44, 70
11, 108632, Note_on_c, 9, 37, 70
11, 108636, Note_on_c, 9, 51, 98
11, 108656, Note_on_c, 9, 40, 26
11, 108688, Note_on_c, 9, 40, 0
11, 108696, Note_on_c, 9, 44, 0
11, 108696, Note_on_c, 9, 37, 0
11, 108700, Note_on_c, 9, 51, 0
11, 108876, Note_on_c, 9, 40, 34
11, 108906, Note_on_c, 9, 40, 0
11, 108924, Note_on_c, 9, 51, 68
11, 108988, Note_on_c, 9, 51, 0
11, 109016, Note_on_c, 9, 51, 88
11, 109084, Note_on_c, 9, 51, 0
11, 109142, Note_on_c, 9, 40, 28
11, 109172, Note_on_c, 9, 40, 0
11, 109400, Note_on_c, 9, 44, 70
11, 109400, Note_on_c, 9, 51, 98
11, 109410, Note_on_c, 9, 40, 26
11, 109442, Note_on_c, 9, 40, 0
11, 109464, Note_on_c, 9, 44, 0
11, 109468, Note_on_c, 9, 51, 0
11, 109686, Note_on_c, 9, 35, 44
11, 109720, Note_on_c, 9, 35, 0
11, 109784, Note_on_c, 9, 51, 88
11, 109802, Note_on_c, 9, 35, 47
11, 109852, Note_on_c, 9, 51, 0
11, 109978, Note_on_c, 9, 35, 0
11, 110044, Note_on_c, 9, 35, 54
11, 110110, Note_on_c, 9, 35, 0
11, 110168, Note_on_c, 9, 37, 70
11, 110168, Note_on_c, 9, 44, 70
11, 110172, Note_on_c, 9, 51, 98
11, 110232, Note_on_c, 9, 44, 0
11, 110232, Note_on_c, 9, 37, 0
11, 110236, Note_on_c, 9, 51, 0
11, 110552, Note_on_c, 9, 51, 88
11, 110620, Note_on_c, 9, 51, 0
11, 110936, Note_on_c, 9, 44, 70
11, 110940, Note_on_c, 9, 51, 108
11, 111000, Note_on_c, 9, 44, 0
11, 111004, Note_on_c, 9, 51, 0
11, 111320, Note_on_c, 9, 51, 88
11, 111388, Note_on_c, 9, 51, 0
11, 111704, Note_on_c, 9, 44, 70
11, 111704, Note_on_c, 9, 37, 70
11, 111708, Note_on_c, 9, 51, 108
11, 111768, Note_on_c, 9, 37, 0
11, 111768, Note_on_c, 9, 44, 0
11, 111772, Note_on_c, 9, 51, 0
11, 112088, Note_on_c, 9, 51, 88
11, 112156, Note_on_c, 9, 51, 0
11, 112472, Note_on_c, 9, 44, 70
11, 112472, Note_on_c, 9, 51, 98
11, 112536, Note_on_c, 9, 44, 0
11, 112540, Note_on_c, 9, 51, 0
11, 112764, Note_on_c, 9, 51, 68
11, 112824, Note_on_c, 9, 51, 0
11, 112856, Note_on_c, 9, 51, 88
11, 112924, Note_on_c, 9, 51, 0
11, 113142, Note_on_c, 9, 31, 48
11, 113148, Note_on_c, 9, 38, 20
11, 113180, Note_on_c, 9, 32, 39
11, 113212, Note_on_c, 9, 38, 0
11, 113218, Note_on_c, 9, 31, 0
11, 113236, Note_on_c, 9, 38, 40
11, 113238, Note_on_c, 9, 37, 85
11, 113240, Note_on_c, 9, 37, 70
11, 113240, Note_on_c, 9, 51, 98
11, 113240, Note_on_c, 9, 44, 70
11, 113268, Note_on_c, 9, 32, 0
11, 113304, Note_on_c, 9, 38, 0
11, 113304, Note_on_c, 9, 44, 0
11, 113308, Note_on_c, 9, 37, 0
11, 113308, Note_on_c, 9, 51, 0
11, 113526, Note_on_c, 9, 57, 51
11, 113528, Note_on_c, 9, 35, 95
11, 113532, Note_on_c, 9, 51, 68
11, 113568, Note_on_c, 9, 37, 0
11, 113596, Note_on_c, 9, 51, 0
11, 113624, Note_on_c, 9, 49, 30
11, 113624, Note_on_c, 9, 51, 88
11, 113688, Note_on_c, 9, 51, 0
11, 113692, Note_on_c, 9, 49, 0
11, 114008, Note_on_c, 9, 51, 108
11, 114008, Note_on_c, 9, 44, 70
11, 114072, Note_on_c, 9, 44, 0
11, 114076, Note_on_c, 9, 51, 0
11, 114392, Note_on_c, 9, 51, 88
11, 114460, Note_on_c, 9, 51, 0
11, 114776, Note_on_c, 9, 44, 70
11, 114776, Note_on_c, 9, 37, 70
11, 114780, Note_on_c, 9, 51, 108
11, 114808, Note_on_c, 9, 57, 0
11, 114836, Note_on_c, 9, 37, 0
11, 114836, Note_on_c, 9, 44, 0
11, 114848, Note_on_c, 9, 51, 0
11, 115160, Note_on_c, 9, 51, 88
11, 115228, Note_on_c, 9, 51, 0
11, 115460, Note_on_c, 9, 35, 0
11, 115526, Note_on_c, 9, 40, 19
11, 115544, Note_on_c, 9, 44, 70
11, 115548, Note_on_c, 9, 51, 98
11, 115608, Note_on_c, 9, 44, 0
11, 115612, Note_on_c, 9, 51, 0
11, 115718, Note_on_c, 9, 40, 0
11, 115800, Note_on_c, 9, 40, 34
11, 115852, Note_on_c, 9, 40, 0
11, 115928, Note_on_c, 9, 51, 88
11, 115996, Note_on_c, 9, 51, 0
11, 116076, Note_on_c, 9, 40, 29
11, 116146, Note_on_c, 9, 40, 0
11, 116312, Note_on_c, 9, 44, 70
11, 116316, Note_on_c, 9, 51, 98
11, 116316, Note_on_c, 9, 37, 70
11, 116356, Note_on_c, 9, 40, 34
11, 116376, Note_on_c, 9, 44, 0
11, 116380, Note_on_c, 9, 51, 0
11, 116380, Note_on_c, 9, 37, 0
11, 116396, Note_on_c, 9, 40, 0
11, 116584, Note_on_c, 9, 37, 50
11, 116686, Note_on_c, 9, 37, 0
11, 116696, Note_on_c, 9, 51, 88
11, 116716, Note_on_c, 9, 35, 34
11, 116764, Note_on_c, 9, 51, 0
11, 116850, Note_on_c, 9, 35, 0
11, 117080, Note_on_c, 9, 44, 70
11, 117080, Note_on_c, 9, 51, 98
11, 117144, Note_on_c, 9, 44, 0
11, 117148, Note_on_c, 9, 51, 0
11, 117364, Note_on_c, 9, 51, 68
11, 117432, Note_on_c, 9, 51, 0
11, 117464, Note_on_c, 9, 51, 88
11, 117532, Note_on_c, 9, 51, 0
11, 117612, Note_on_c, 9, 40, 26
11, 117650, Note_on_c, 9, 40, 0
11, 117720, Note_on_c, 9, 40, 27
11, 117760, Note_on_c, 9, 40, 0
11, 117844, Note_on_c, 9, 44, 70
11, 117848, Note_on_c, 9, 37, 60
11, 117848, Note_on_c, 9, 51, 98
11, 117860, Note_on_c, 9, 35, 37
11, 117912, Note_on_c, 9, 44, 0
11, 117916, Note_on_c, 9, 37, 0
11, 117916, Note_on_c, 9, 51, 0
11, 118010, Note_on_c, 9, 35, 0
11, 118132, Note_on_c, 9, 51, 68
11, 118204, Note_on_c, 9, 51, 0
11, 118232, Note_on_c, 9, 51, 88
11, 118264, Note_on_c, 9, 40, 15
11, 118300, Note_on_c, 9, 51, 0
11, 118302, Note_on_c, 9, 40, 0
11, 118368, Note_on_c, 9, 40, 29
11, 118416, Note_on_c, 9, 40, 0
11, 118492, Note_on_c, 9, 35, 64
11, 118616, Note_on_c, 9, 44, 70
11, 118620, Note_on_c, 9, 51, 98
11, 118680, Note_on_c, 9, 44, 0
11, 118684, Note_on_c, 9, 51, 0
11, 118702, Note_on_c, 9, 35, 0
11, 118788, Note_on_c, 9, 40, 27
11, 118830, Note_on_c, 9, 40, 0
11, 118902, Note_on_c, 9, 40, 29
11, 118908, Note_on_c, 9, 51, 68
11, 118962, Note_on_c, 9, 40, 0
11, 118972, Note_on_c, 9, 51, 0
11, 119000, Note_on_c, 9, 51, 88
11, 119018, Note_on_c, 9, 35, 63
11, 119068, Note_on_c, 9, 51, 0
11, 119290, Note_on_c, 9, 35, 0
11, 119384, Note_on_c, 9, 37, 70
11, 119384, Note_on_c, 9, 44, 70
11, 119388, Note_on_c, 9, 51, 98
11, 119392, Note_on_c, 9, 40, 17
11, 119428, Note_on_c, 9, 40, 0
11, 119444, Note_on_c, 9, 44, 0
11, 119448, Note_on_c, 9, 37, 0
11, 119452, Note_on_c, 9, 51, 0
11, 119460, Note_on_c, 9, 40, 22
11, 119524, Note_on_c, 9, 40, 0
11, 119610, Note_on_c, 9, 35, 79
11, 119622, Note_on_c, 9, 46, 55
11, 119668, Note_on_c, 9, 51, 68
11, 119740, Note_on_c, 9, 51, 0
11, 119768, Note_on_c, 9, 51, 88
11, 119784, Note_on_c, 9, 46, 0
11, 119836, Note_on_c, 9, 51, 0
11, 119836, Note_on_c, 9, 35, 0
11, 119930, Note_on_c, 9, 40, 35
11, 120002, Note_on_c, 9, 40, 0
11, 120054, Note_on_c, 9, 40, 41
11, 120134, Note_on_c, 9, 40, 0
11, 120152, Note_on_c, 9, 51, 98
11, 120152, Note_on_c, 9, 44, 70
11, 120188, Note_on_c, 9, 35, 73
11, 120194, Note_on_c, 9, 46, 68
11, 120216, Note_on_c, 9, 44, 0
11, 120220, Note_on_c, 9, 51, 0
11, 120348, Note_on_c, 9, 46, 0
11, 120402, Note_on_c, 9, 35, 0
11, 120432, Note_on_c, 9, 51, 68
11, 120500, Note_on_c, 9, 51, 0
11, 120536, Note_on_c, 9, 51, 88
11, 120546, Note_on_c, 9, 40, 38
11, 120604, Note_on_c, 9, 51, 0
11, 120628, Note_on_c, 9, 40, 0
11, 120676, Note_on_c, 9, 40, 39
11, 120758, Note_on_c, 9, 40, 0
11, 120802, Note_on_c, 9, 46, 69
11, 120802, Note_on_c, 9, 35, 76
11, 120920, Note_on_c, 9, 37, 60
11, 120920, Note_on_c, 9, 44, 70
11, 120924, Note_on_c, 9, 51, 98
11, 120966, Note_on_c, 9, 46, 0
11, 120984, Note_on_c, 9, 44, 0
11, 120988, Note_on_c, 9, 51, 0
11, 120988, Note_on_c, 9, 37, 0
11, 121008, Note_on_c, 9, 35, 0
11, 121212, Note_on_c, 9, 51, 68
11, 121264, Note_on_c, 9, 51, 0
11, 121304, Note_on_c, 9, 51, 88
11, 121372, Note_on_c, 9, 51, 0
11, 121688, Note_on_c, 9, 51, 98
11, 121688, Note_on_c, 9, 44, 70
11, 121752, Note_on_c, 9, 44, 0
11, 121756, Note_on_c, 9, 51, 0
11, 121966, Note_on_c, 9, 35, 26
11, 122004, Note_on_c, 9, 35, 0
11, 122072, Note_on_c, 9, 51, 88
11, 122080, Note_on_c, 9, 35, 42
11, 122140, Note_on_c, 9, 51, 0
11, 122266, Note_on_c, 9, 35, 0
11, 122350, Note_on_c, 9, 35, 36
11, 122396, Note_on_c, 9, 35, 0
11, 122456, Note_on_c, 9, 44, 70
11, 122456, Note_on_c, 9, 37, 70
11, 122460, Note_on_c, 9, 51, 98
11, 122520, Note_on_c, 9, 44, 0
11, 122524, Note_on_c, 9, 51, 0
11, 122524, Note_on_c, 9, 37, 0
11, 122840, Note_on_c, 9, 51, 88
11, 122908, Note_on_c, 9, 51, 0
11, 123224, Note_on_c, 9, 44, 70
11, 123224, Note_on_c, 9, 51, 98
11, 123288, Note_on_c, 9, 44, 0
11, 123292, Note_on_c, 9, 51, 0
11, 123498, Note_on_c, 9, 35, 60
11, 123512, Note_on_c, 9, 51, 68
11, 123550, Note_on_c, 9, 35, 0
11, 123580, Note_on_c, 9, 51, 0
11, 123608, Note_on_c, 9, 51, 88
11, 123676, Note_on_c, 9, 51, 0
11, 123992, Note_on_c, 9, 37, 70
11, 123992, Note_on_c, 9, 44, 70
11, 123996, Note_on_c, 9, 51, 98
11, 124056, Note_on_c, 9, 44, 0
11, 124056, Note_on_c, 9, 37, 0
11, 124060, Note_on_c, 9, 51, 0
11, 124258, Note_on_c, 9, 35, 41
11, 124276, Note_on_c, 9, 51, 68
11, 124294, Note_on_c, 9, 35, 0
11, 124348, Note_on_c, 9, 51, 0
11, 124376, Note_on_c, 9, 51, 88
11, 124444, Note_on_c, 9, 51, 0
11, 124760, Note_on_c, 9, 44, 70
11, 124760, Note_on_c, 9, 51, 98
11, 124824, Note_on_c, 9, 44, 0
11, 124828, Note_on_c, 9, 51, 0
11, 125040, Note_on_c, 9, 51, 68
11, 125056, Note_on_c, 9, 35, 37
11, 125096, Note_on_c, 9, 35, 0
11, 125116, Note_on_c, 9, 51, 0
11, 125144, Note_on_c, 9, 51, 88
11, 125176, Note_on_c, 9, 35, 35
11, 125212, Note_on_c, 9, 51, 0
11, 125360, Note_on_c, 9, 35, 0
11, 125432, Note_on_c, 9, 38, 20
11, 125436, Note_on_c, 9, 35, 44
11, 125476, Note_on_c, 9, 35, 0
11, 125492, Note_on_c, 9, 38, 0
11, 125528, Note_on_c, 9, 38, 40
11, 125528, Note_on_c, 9, 44, 70
11, 125528, Note_on_c, 9, 37, 70
11, 125532, Note_on_c, 9, 51, 98
11, 125592, Note_on_c, 9, 44, 0
11, 125592, Note_on_c, 9, 38, 0
11, 125596, Note_on_c, 9, 37, 0
11, 125596, Note_on_c, 9, 51, 0
11, 125820, Note_on_c, 9, 51, 68
11, 125876, Note_on_c, 9, 51, 0
11, 125912, Note_on_c, 9, 51, 88
11, 125934, Note_on_c, 9, 35, 55
11, 125966, Note_on_c, 9, 35, 0
11, 125980, Note_on_c, 9, 51, 0
11, 126296, Note_on_c, 9, 51, 108
11, 126296, Note_on_c, 9, 44, 70
11, 126360, Note_on_c, 9, 44, 0
11, 126364, Note_on_c, 9, 51, 0
11, 126680, Note_on_c, 9, 51, 88
11, 126748, Note_on_c, 9, 51, 0
11, 126968, Note_on_c, 9, 35, 68
11, 126996, Note_on_c, 9, 35, 0
11, 127064, Note_on_c, 9, 44, 70
11, 127064, Note_on_c, 9, 37, 70
11, 127068, Note_on_c, 9, 51, 108
11, 127128, Note_on_c, 9, 44, 0
11, 127132, Note_on_c, 9, 51, 0
11, 127132, Note_on_c, 9, 37, 0
11, 127444, Note_on_c, 9, 51, 88
11, 127470, Note_on_c, 9, 35, 62
11, 127504, Note_on_c, 9, 35, 0
11, 127516, Note_on_c, 9, 51, 0
11, 127832, Note_on_c, 9, 51, 108
11, 127832, Note_on_c, 9, 44, 70
11, 127896, Note_on_c, 9, 44, 0
11, 127900, Note_on_c, 9, 51, 0
11, 128216, Note_on_c, 9, 51, 88
11, 128284, Note_on_c, 9, 51, 0
11, 128600, Note_on_c, 9, 44, 70
11, 128604, Note_on_c, 9, 37, 70
11, 128604, Note_on_c, 9, 51, 108
11, 128664, Note_on_c, 9, 37, 0
11, 128664, Note_on_c, 9, 44, 0
11, 128668, Note_on_c, 9, 51, 0
11, 128984, Note_on_c, 9, 51, 88
11, 129052, Note_on_c, 9, 51, 0
11, 129368, Note_on_c, 9, 44, 70
11, 129368, Note_on_c, 9, 51, 98
11, 129432, Note_on_c, 9, 44, 0
11, 129436, Note_on_c, 9, 51, 0
11, 129652, Note_on_c, 9, 51, 68
11, 129724, Note_on_c, 9, 51, 0
11, 129752, Note_on_c, 9, 51, 88
11, 129790, Note_on_c, 9, 40, 21
11, 129820, Note_on_c, 9, 51, 0
11, 129822, Note_on_c, 9, 40, 0
11, 130030, Note_on_c, 9, 40, 40
11, 130062, Note_on_c, 9, 40, 0
11, 130136, Note_on_c, 9, 51, 98
11, 130136, Note_on_c, 9, 44, 70
11, 130136, Note_on_c, 9, 37, 70
11, 130160, Note_on_c, 9, 40, 32
11, 130198, Note_on_c, 9, 40, 0
11, 130200, Note_on_c, 9, 44, 0
11, 130204, Note_on_c, 9, 37, 0
11, 130204, Note_on_c, 9, 51, 0
11, 130392, Note_on_c, 9, 35, 55
11, 130424, Note_on_c, 9, 35, 0
11, 130424, Note_on_c, 9, 51, 68
11, 130484, Note_on_c, 9, 51, 0
11, 130524, Note_on_c, 9, 51, 88
11, 130534, Note_on_c, 9, 35, 60
11, 130588, Note_on_c, 9, 51, 0
11, 130714, Note_on_c, 9, 35, 0
11, 130788, Note_on_c, 9, 35, 41
11, 130830, Note_on_c, 9, 35, 0
11, 130904, Note_on_c, 9, 44, 70
11, 130904, Note_on_c, 9, 51, 98
11, 130968, Note_on_c, 9, 44, 0
11, 130972, Note_on_c, 9, 51, 0
11, 131288, Note_on_c, 9, 51, 88
11, 131356, Note_on_c, 9, 51, 0
11, 131672, Note_on_c, 9, 44, 70
11, 131672, Note_on_c, 9, 37, 70
11, 131676, Note_on_c, 9, 51, 98
11, 131736, Note_on_c, 9, 44, 0
11, 131740, Note_on_c, 9, 51, 0
11, 131740, Note_on_c, 9, 37, 0
11, 132056, Note_on_c, 9, 51, 88
11, 132124, Note_on_c, 9, 51, 0
11, 132436, Note_on_c, 9, 44, 70
11, 132440, Note_on_c, 9, 51, 98
11, 132504, Note_on_c, 9, 44, 0
11, 132508, Note_on_c, 9, 51, 0
11, 132724, Note_on_c, 9, 51, 68
11, 132796, Note_on_c, 9, 51, 0
11, 132824, Note_on_c, 9, 51, 88
11, 132892, Note_on_c, 9, 51, 0
11, 133208, Note_on_c, 9, 44, 70
11, 133208, Note_on_c, 9, 37, 60
11, 133212, Note_on_c, 9, 51, 98
11, 133272, Note_on_c, 9, 37, 0
11, 133272, Note_on_c, 9, 44, 0
11, 133276, Note_on_c, 9, 51, 0
11, 133492, Note_on_c, 9, 51, 68
11, 133556, Note_on_c, 9, 51, 0
11, 133592, Note_on_c, 9, 51, 88
11, 133660, Note_on_c, 9, 51, 0
11, 133976, Note_on_c, 9, 44, 70
11, 133976, Note_on_c, 9, 51, 98
11, 134036, Note_on_c, 9, 44, 0
11, 134044, Note_on_c, 9, 51, 0
11, 134360, Note_on_c, 9, 51, 88
11, 134428, Note_on_c, 9, 51, 0
11, 134744, Note_on_c, 9, 44, 70
11, 134744, Note_on_c, 9, 37, 70
11, 134746, Note_on_c, 9, 37, 57
11, 134748, Note_on_c, 9, 51, 98
11, 134772, Note_on_c, 9, 37, 0
11, 134808, Note_on_c, 9, 44, 0
11, 134812, Note_on_c, 9, 37, 0
11, 134812, Note_on_c, 9, 51, 0
11, 135020, Note_on_c, 9, 37, 79
11, 135064, Note_on_c, 9, 37, 0
11, 135128, Note_on_c, 9, 51, 88
11, 135196, Note_on_c, 9, 51, 0
11, 135258, Note_on_c, 9, 37, 74
11, 135324, Note_on_c, 9, 37, 0
11, 135512, Note_on_c, 9, 51, 108
11, 135512, Note_on_c, 9, 44, 70
11, 135546, Note_on_c, 9, 35, 46
11, 135576, Note_on_c, 9, 44, 0
11, 135580, Note_on_c, 9, 51, 0
11, 135594, Note_on_c, 9, 35, 0
11, 135794, Note_on_c, 9, 35, 69
11, 135894, Note_on_c, 9, 35, 0
11, 135896, Note_on_c, 9, 51, 88
11, 135964, Note_on_c, 9, 51, 0
11, 135980, Note_on_c, 9, 35, 48
11, 136104, Note_on_c, 9, 35, 0
11, 136280, Note_on_c, 9, 44, 70
11, 136280, Note_on_c, 9, 37, 70
11, 136284, Note_on_c, 9, 51, 108
11, 136344, Note_on_c, 9, 37, 0
11, 136344, Note_on_c, 9, 44, 0
11, 136348, Note_on_c, 9, 51, 0
11, 136602, Note_on_c, 9, 35, 24
11, 136632, Note_on_c, 9, 35, 0
11, 136664, Note_on_c, 9, 51, 88
11, 136678, Note_on_c, 9, 40, 34
11, 136712, Note_on_c, 9, 40, 0
11, 136732, Note_on_c, 9, 51, 0
11, 136870, Note_on_c, 9, 40, 45
11, 136896, Note_on_c, 9, 40, 0
11, 137048, Note_on_c, 9, 51, 98
11, 137048, Note_on_c, 9, 44, 70
11, 137068, Note_on_c, 9, 40, 48
11, 137112, Note_on_c, 9, 44, 0
11, 137116, Note_on_c, 9, 51, 0
11, 137126, Note_on_c, 9, 40, 0
11, 137156, Note_on_c, 9, 40, 32
11, 137220, Note_on_c, 9, 40, 0
11, 137340, Note_on_c, 9, 51, 68
11, 137404, Note_on_c, 9, 51, 0
11, 137432, Note_on_c, 9, 51, 88
11, 137500, Note_on_c, 9, 51, 0
11, 137694, Note_on_c, 9, 40, 42
11, 137720, Note_on_c, 9, 40, 0
11, 137724, Note_on_c, 9, 38, 20
11, 137788, Note_on_c, 9, 38, 0
11, 137816, Note_on_c, 9, 44, 70
11, 137816, Note_on_c, 9, 38, 40
11, 137820, Note_on_c, 9, 37, 70
11, 137820, Note_on_c, 9, 51, 98
11, 137858, Note_on_c, 9, 40, 46
11, 137880, Note_on_c, 9, 37, 0
11, 137880, Note_on_c, 9, 44, 0
11, 137880, Note_on_c, 9, 38, 0
11, 137884, Note_on_c, 9, 51, 0
11, 138012, Note_on_c, 9, 40, 0
11, 138108, Note_on_c, 9, 51, 68
11, 138118, Note_on_c, 9, 37, 73
11, 138172, Note_on_c, 9, 51, 0
11, 138180, Note_on_c, 9, 37, 0
11, 138200, Note_on_c, 9, 51, 88
11, 138204, Note_on_c, 9, 49, 30
11, 138250, Note_on_c, 9, 35, 44
11, 138264, Note_on_c, 9, 51, 0
11, 138268, Note_on_c, 9, 49, 0
11, 138362, Note_on_c, 9, 35, 0
11, 138584, Note_on_c, 9, 44, 70
11, 138588, Note_on_c, 9, 51, 108
11, 138644, Note_on_c, 9, 44, 0
11, 138652, Note_on_c, 9, 51, 0
11, 138968, Note_on_c, 9, 51, 88
11, 139036, Note_on_c, 9, 51, 0
11, 139352, Note_on_c, 9, 44, 70
11, 139356, Note_on_c, 9, 37, 70
11, 139356, Note_on_c, 9, 51, 108
11, 139416, Note_on_c, 9, 44, 0
11, 139420, Note_on_c, 9, 51, 0
11, 139420, Note_on_c, 9, 37, 0
11, 139736, Note_on_c, 9, 51, 88
11, 139804, Note_on_c, 9, 51, 0
11, 140120, Note_on_c, 9, 44, 70
11, 140124, Note_on_c, 9, 51, 98
11, 140184, Note_on_c, 9, 44, 0
11, 140188, Note_on_c, 9, 51, 0
11, 140504, Note_on_c, 9, 51, 88
11, 140572, Note_on_c, 9, 51, 0
11, 140776, Note_on_c, 9, 37, 28
11, 140838, Note_on_c, 9, 37, 0
11, 140888, Note_on_c, 9, 37, 70
11, 140888, Note_on_c, 9, 44, 70
11, 140892, Note_on_c, 9, 51, 98
11, 140892, Note_on_c, 9, 46, 38
11, 140906, Note_on_c, 9, 35, 49
11, 140952, Note_on_c, 9, 44, 0
11, 140956, Note_on_c, 9, 37, 0
11, 140956, Note_on_c, 9, 51, 0
11, 141028, Note_on_c, 9, 46, 0
11, 141096, Note_on_c, 9, 35, 0
11, 141170, Note_on_c, 9, 46, 78
11, 141172, Note_on_c, 9, 35, 35
11, 141214, Note_on_c, 9, 35, 0
11, 141236, Note_on_c, 9, 46, 0
11, 141272, Note_on_c, 9, 51, 88
11, 141340, Note_on_c, 9, 51, 0
11, 141656, Note_on_c, 9, 51, 98
11, 141656, Note_on_c, 9, 44, 70
11, 141720, Note_on_c, 9, 44, 0
11, 141724, Note_on_c, 9, 51, 0
11, 141948, Note_on_c, 9, 51, 68
11, 142012, Note_on_c, 9, 51, 0
11, 142036, Note_on_c, 9, 51, 88
11, 142108, Note_on_c, 9, 51, 0
11, 142334, Note_on_c, 9, 35, 28
11, 142364, Note_on_c, 9, 35, 0
11, 142424, Note_on_c, 9, 37, 70
11, 142424, Note_on_c, 9, 44, 70
11, 142428, Note_on_c, 9, 51, 98
11, 142488, Note_on_c, 9, 44, 0
11, 142488, Note_on_c, 9, 37, 0
11, 142492, Note_on_c, 9, 51, 0
11, 142692, Note_on_c, 9, 35, 58
11, 142716, Note_on_c, 9, 51, 68
11, 142726, Note_on_c, 9, 35, 0
11, 142780, Note_on_c, 9, 51, 0
11, 142802, Note_on_c, 9, 35, 57
11, 142808, Note_on_c, 9, 51, 88
11, 142876, Note_on_c, 9, 51, 0
11, 143022, Note_on_c, 9, 35, 0
11, 143192, Note_on_c, 9, 51, 98
11, 143192, Note_on_c, 9, 44, 70
11, 143256, Note_on_c, 9, 44, 0
11, 143260, Note_on_c, 9, 51, 0
11, 143576, Note_on_c, 9, 51, 88
11, 143644, Note_on_c, 9, 51, 0
11, 143960, Note_on_c, 9, 37, 70
11, 143960, Note_on_c, 9, 44, 70
11, 143964, Note_on_c, 9, 51, 98
11, 144024, Note_on_c, 9, 44, 0
11, 144024, Note_on_c, 9, 37, 0
11, 144028, Note_on_c, 9, 51, 0
11, 144344, Note_on_c, 9, 51, 88
11, 144412, Note_on_c, 9, 51, 0
11, 144728, Note_on_c, 9, 51, 98
11, 144728, Note_on_c, 9, 44, 70
11, 144792, Note_on_c, 9, 44, 0
11, 144796, Note_on_c, 9, 51, 0
11, 145020, Note_on_c, 9, 51, 68
11, 145076, Note_on_c, 9, 51, 0
11, 145112, Note_on_c, 9, 51, 88
11, 145180, Note_on_c, 9, 51, 0
11, 145246, Note_on_c, 9, 44, 57
11, 145280, Note_on_c, 9, 44, 0
11, 145492, Note_on_c, 9, 44, 64
11, 145496, Note_on_c, 9, 37, 70
11, 145496, Note_on_c, 9, 44, 70
11, 145500, Note_on_c, 9, 51, 98
11, 145536, Note_on_c, 9, 44, 0
11, 145560, Note_on_c, 9, 37, 0
11, 145560, Note_on_c, 9, 44, 0
11, 145564, Note_on_c, 9, 51, 0
11, 145758, Note_on_c, 9, 44, 68
11, 145788, Note_on_c, 9, 51, 68
11, 145810, Note_on_c, 9, 44, 0
11, 145840, Note_on_c, 9, 51, 0
11, 145880, Note_on_c, 9, 51, 88
11, 145948, Note_on_c, 9, 51, 0
11, 146010, Note_on_c, 9, 44, 69
11, 146062, Note_on_c, 9, 44, 0
11, 146134, Note_on_c, 9, 37, 55
11, 146206, Note_on_c, 9, 37, 0
11, 146264, Note_on_c, 9, 44, 70
11, 146264, Note_on_c, 9, 51, 108
11, 146288, Note_on_c, 9, 35, 47
11, 146328, Note_on_c, 9, 44, 0
11, 146332, Note_on_c, 9, 51, 0
11, 146436, Note_on_c, 9, 35, 0
11, 146556, Note_on_c, 9, 35, 50
11, 146636, Note_on_c, 9, 35, 0
11, 146644, Note_on_c, 9, 51, 88
11, 146716, Note_on_c, 9, 51, 0
11, 147032, Note_on_c, 9, 37, 70
11, 147032, Note_on_c, 9, 44, 70
11, 147036, Note_on_c, 9, 51, 108
11, 147096, Note_on_c, 9, 44, 0
11, 147096, Note_on_c, 9, 37, 0
11, 147100, Note_on_c, 9, 51, 0
11, 147416, Note_on_c, 9, 51, 88
11, 147484, Note_on_c, 9, 51, 0
11, 147800, Note_on_c, 9, 44, 70
11, 147804, Note_on_c, 9, 51, 98
11, 147864, Note_on_c, 9, 44, 0
11, 147868, Note_on_c, 9, 51, 0
11, 148084, Note_on_c, 9, 51, 68
11, 148156, Note_on_c, 9, 51, 0
11, 148184, Note_on_c, 9, 51, 88
11, 148252, Note_on_c, 9, 51, 0
11, 148568, Note_on_c, 9, 44, 70
11, 148568, Note_on_c, 9, 37, 70
11, 148572, Note_on_c, 9, 51, 98
11, 148632, Note_on_c, 9, 37, 0
11, 148632, Note_on_c, 9, 44, 0
11, 148636, Note_on_c, 9, 51, 0
11, 148852, Note_on_c, 9, 51, 68
11, 148924, Note_on_c, 9, 51, 0
11, 148952, Note_on_c, 9, 51, 88
11, 148958, Note_on_c, 9, 44, 39
11, 148990, Note_on_c, 9, 44, 0
11, 149020, Note_on_c, 9, 51, 0
11, 149078, Note_on_c, 9, 44, 40
11, 149144, Note_on_c, 9, 44, 0
11, 149208, Note_on_c, 9, 46, 68
11, 149336, Note_on_c, 9, 44, 70
11, 149340, Note_on_c, 9, 51, 98
11, 149398, Note_on_c, 9, 46, 0
11, 149400, Note_on_c, 9, 44, 0
11, 149404, Note_on_c, 9, 51, 0
11, 149534, Note_on_c, 9, 44, 46
11, 149572, Note_on_c, 9, 44, 0
11, 149624, Note_on_c, 9, 51, 68
11, 149636, Note_on_c, 9, 44, 48
11, 149684, Note_on_c, 9, 51, 0
11, 149706, Note_on_c, 9, 44, 0
11, 149720, Note_on_c, 9, 51, 88
11, 149778, Note_on_c, 9, 46, 73
11, 149788, Note_on_c, 9, 51, 0
11, 150002, Note_on_c, 9, 46, 0
11, 150012, Note_on_c, 9, 38, 60
11, 150064, Note_on_c, 9, 38, 0
11, 150086, Note_on_c, 9, 44, 36
11, 150104, Note_on_c, 9, 44, 70
11, 150108, Note_on_c, 9, 51, 98
11, 150112, Note_on_c, 9, 44, 0
11, 150168, Note_on_c, 9, 44, 0
11, 150172, Note_on_c, 9, 51, 0
11, 150200, Note_on_c, 9, 44, 46
11, 150278, Note_on_c, 9, 44, 0
11, 150326, Note_on_c, 9, 46, 71
11, 150392, Note_on_c, 9, 38, 30
11, 150396, Note_on_c, 9, 51, 68
11, 150420, Note_on_c, 9, 46, 0
11, 150452, Note_on_c, 9, 51, 0
11, 150452, Note_on_c, 9, 38, 0
11, 150488, Note_on_c, 9, 51, 88
11, 150488, Note_on_c, 9, 49, 30
11, 150552, Note_on_c, 9, 51, 0
11, 150556, Note_on_c, 9, 49, 0
11, 150728, Note_on_c, 9, 35, 40
11, 150772, Note_on_c, 9, 35, 0
11, 150872, Note_on_c, 9, 51, 108
11, 150872, Note_on_c, 9, 44, 70
11, 150882, Note_on_c, 9, 35, 33
11, 150916, Note_on_c, 9, 35, 0
11, 150936, Note_on_c, 9, 44, 0
11, 150940, Note_on_c, 9, 51, 0
11, 151256, Note_on_c, 9, 51, 88
11, 151268, Note_on_c, 9, 35, 32
11, 151324, Note_on_c, 9, 51, 0
11, 151334, Note_on_c, 9, 35, 0
11, 151636, Note_on_c, 9, 44, 70
11, 151640, Note_on_c, 9, 51, 108
11, 151640, Note_on_c, 9, 37, 70
11, 151704, Note_on_c, 9, 44, 0
11, 151708, Note_on_c, 9, 37, 0
11, 151708, Note_on_c, 9, 51, 0
11, 151930, Note_on_c, 9, 35, 61
11, 151962, Note_on_c, 9, 35, 0
11, 152024, Note_on_c, 9, 51, 88
11, 152092, Note_on_c, 9, 51, 0
11, 152408, Note_on_c, 9, 44, 70
11, 152412, Note_on_c, 9, 51, 98
11, 152472, Note_on_c, 9, 44, 0
11, 152476, Note_on_c, 9, 51, 0
11, 152792, Note_on_c, 9, 51, 88
11, 152860, Note_on_c, 9, 51, 0
11, 153176, Note_on_c, 9, 44, 70
11, 153176, Note_on_c, 9, 37, 70
11, 153180, Note_on_c, 9, 51, 98
11, 153236, Note_on_c, 9, 37, 0
11, 153236, Note_on_c, 9, 44, 0
11, 153244, Note_on_c, 9, 51, 0
11, 153444, Note_on_c, 9, 45, 85
11, 153498, Note_on_c, 9, 45, 0
11, 153560, Note_on_c, 9, 51, 88
11, 153628, Note_on_c, 9, 51, 0
11, 153944, Note_on_c, 9, 44, 70
11, 153948, Note_on_c, 9, 51, 98
11, 153968, Note_on_c, 9, 35, 46
11, 154004, Note_on_c, 9, 35, 0
11, 154008, Note_on_c, 9, 44, 0
11, 154012, Note_on_c, 9, 51, 0
11, 154232, Note_on_c, 9, 51, 68
11, 154292, Note_on_c, 9, 51, 0
11, 154332, Note_on_c, 9, 51, 88
11, 154396, Note_on_c, 9, 51, 0
11, 154594, Note_on_c, 9, 35, 42
11, 154626, Note_on_c, 9, 35, 0
11, 154708, Note_on_c, 9, 43, 63
11, 154712, Note_on_c, 9, 44, 70
11, 154716, Note_on_c, 9, 51, 98
11, 154716, Note_on_c, 9, 37, 60
11, 154746, Note_on_c, 9, 43, 0
11, 154776, Note_on_c, 9, 44, 0
11, 154780, Note_on_c, 9, 51, 0
11, 154780, Note_on_c, 9, 37, 0
11, 154972, Note_on_c, 9, 43, 105
11, 155004, Note_on_c, 9, 51, 68
11, 155056, Note_on_c, 9, 51, 0
11, 155096, Note_on_c, 9, 51, 88
11, 155114, Note_on_c, 9, 43, 0
11, 155164, Note_on_c, 9, 51, 0
11, 155480, Note_on_c, 9, 44, 70
11, 155480, Note_on_c, 9, 51, 98
11, 155482, Note_on_c, 9, 35, 26
11, 155512, Note_on_c, 9, 35, 0
11, 155544, Note_on_c, 9, 44, 0
11, 155548, Note_on_c, 9, 51, 0
11, 155864, Note_on_c, 9, 51, 88
11, 155932, Note_on_c, 9, 51, 0
11, 156144, Note_on_c, 9, 35, 35
11, 156180, Note_on_c, 9, 35, 0
11, 156244, Note_on_c, 9, 44, 70
11, 156248, Note_on_c, 9, 37, 70
11, 156252, Note_on_c, 9, 51, 98
11, 156262, Note_on_c, 9, 45, 72
11, 156296, Note_on_c, 9, 45, 0
11, 156312, Note_on_c, 9, 44, 0
11, 156312, Note_on_c, 9, 37, 0
11, 156316, Note_on_c, 9, 51, 0
11, 156520, Note_on_c, 9, 45, 108
11, 156632, Note_on_c, 9, 51, 88
11, 156666, Note_on_c, 9, 45, 0
11, 156700, Note_on_c, 9, 51, 0
11, 157016, Note_on_c, 9, 44, 70
11, 157016, Note_on_c, 9, 51, 98
11, 157046, Note_on_c, 9, 35, 38
11, 157080, Note_on_c, 9, 44, 0
11, 157084, Note_on_c, 9, 51, 0
11, 157096, Note_on_c, 9, 35, 0
11, 157300, Note_on_c, 9, 51, 68
11, 157364, Note_on_c, 9, 51, 0
11, 157400, Note_on_c, 9, 51, 88
11, 157468, Note_on_c, 9, 51, 0
11, 157706, Note_on_c, 9, 35, 28
11, 157734, Note_on_c, 9, 35, 0
11, 157784, Note_on_c, 9, 37, 60
11, 157784, Note_on_c, 9, 44, 70
11, 157788, Note_on_c, 9, 51, 98
11, 157798, Note_on_c, 9, 45, 74
11, 157844, Note_on_c, 9, 44, 0
11, 157844, Note_on_c, 9, 37, 0
11, 157852, Note_on_c, 9, 51, 0
11, 157970, Note_on_c, 9, 45, 0
11, 158068, Note_on_c, 9, 51, 68
11, 158132, Note_on_c, 9, 51, 0
11, 158168, Note_on_c, 9, 51, 88
11, 158236, Note_on_c, 9, 51, 0
11, 158552, Note_on_c, 9, 51, 108
11, 158552, Note_on_c, 9, 44, 70
11, 158572, Note_on_c, 9, 35, 24
11, 158614, Note_on_c, 9, 35, 0
11, 158616, Note_on_c, 9, 44, 0
11, 158620, Note_on_c, 9, 51, 0
11, 158936, Note_on_c, 9, 51, 88
11, 159004, Note_on_c, 9, 51, 0
11, 159320, Note_on_c, 9, 37, 70
11, 159320, Note_on_c, 9, 44, 70
11, 159324, Note_on_c, 9, 51, 108
11, 159384, Note_on_c, 9, 44, 0
11, 159384, Note_on_c, 9, 37, 0
11, 159388, Note_on_c, 9, 51, 0
11, 159704, Note_on_c, 9, 51, 88
11, 159772, Note_on_c, 9, 51, 0
11, 160088, Note_on_c, 9, 51, 98
11, 160088, Note_on_c, 9, 44, 70
11, 160152, Note_on_c, 9, 44, 0
11, 160156, Note_on_c, 9, 51, 0
11, 160372, Note_on_c, 9, 51, 68
11, 160432, Note_on_c, 9, 51, 0
11, 160472, Note_on_c, 9, 51, 88
11, 160540, Note_on_c, 9, 51, 0
11, 160856, Note_on_c, 9, 44, 70
11, 160856, Note_on_c, 9, 37, 60
11, 160860, Note_on_c, 9, 51, 98
11, 160920, Note_on_c, 9, 37, 0
11, 160920, Note_on_c, 9, 44, 0
11, 160924, Note_on_c, 9, 51, 0
11, 161140, Note_on_c, 9, 51, 68
11, 161212, Note_on_c, 9, 51, 0
11, 161236, Note_on_c, 9, 51, 88
11, 161308, Note_on_c, 9, 51, 0
11, 161624, Note_on_c, 9, 51, 98
11, 161624, Note_on_c, 9, 44, 70
11, 161688, Note_on_c, 9, 44, 0
11, 161692, Note_on_c, 9, 51, 0
11, 161916, Note_on_c, 9, 51, 68
11, 161980, Note_on_c, 9, 51, 0
11, 162008, Note_on_c, 9, 51, 88
11, 162076, Note_on_c, 9, 51, 0
11, 162292, Note_on_c, 9, 38, 60
11, 162364, Note_on_c, 9, 38, 0
11, 162392, Note_on_c, 9, 44, 70
11, 162396, Note_on_c, 9, 51, 98
11, 162456, Note_on_c, 9, 44, 0
11, 162460, Note_on_c, 9, 51, 0
11, 162668, Note_on_c, 9, 37, 64
11, 162676, Note_on_c, 9, 38, 30
11, 162676, Note_on_c, 9, 51, 68
11, 162744, Note_on_c, 9, 38, 0
11, 162748, Note_on_c, 9, 51, 0
11, 162772, Note_on_c, 9, 37, 0
11, 162776, Note_on_c, 9, 51, 88
11, 162812, Note_on_c, 9, 35, 44
11, 162844, Note_on_c, 9, 51, 0
11, 163006, Note_on_c, 9, 35, 0
11, 163160, Note_on_c, 9, 44, 70
11, 163164, Note_on_c, 9, 51, 108
11, 163224, Note_on_c, 9, 44, 0
11, 163228, Note_on_c, 9, 51, 0
11, 163548, Note_on_c, 9, 51, 88
11, 163612, Note_on_c, 9, 51, 0
11, 163918, Note_on_c, 9, 37, 69
11, 163928, Note_on_c, 9, 37, 70
11, 163928, Note_on_c, 9, 44, 70
11, 163932, Note_on_c, 9, 51, 108
11, 163992, Note_on_c, 9, 44, 0
11, 163992, Note_on_c, 9, 37, 0
11, 163996, Note_on_c, 9, 51, 0
11, 164010, Note_on_c, 9, 37, 0
11, 164312, Note_on_c, 9, 51, 88
11, 164380, Note_on_c, 9, 51, 0
11, 164692, Note_on_c, 9, 37, 74
11, 164696, Note_on_c, 9, 44, 70
11, 164696, Note_on_c, 9, 51, 98
11, 164760, Note_on_c, 9, 44, 0
11, 164764, Note_on_c, 9, 51, 0
11, 164810, Note_on_c, 9, 37, 0
11, 165080, Note_on_c, 9, 51, 88
11, 165148, Note_on_c, 9, 51, 0
11, 165464, Note_on_c, 9, 44, 70
11, 165464, Note_on_c, 9, 37, 70
11, 165468, Note_on_c, 9, 51, 98
11, 165472, Note_on_c, 9, 37, 84
11, 165528, Note_on_c, 9, 44, 0
11, 165532, Note_on_c, 9, 37, 0
11, 165532, Note_on_c, 9, 51, 0
11, 165614, Note_on_c, 9, 37, 0
11, 165844, Note_on_c, 9, 51, 88
11, 165916, Note_on_c, 9, 51, 0
11, 166232, Note_on_c, 9, 44, 70
11, 166232, Note_on_c, 9, 37, 77
11, 166232, Note_on_c, 9, 51, 98
11, 166296, Note_on_c, 9, 44, 0
11, 166300, Note_on_c, 9, 51, 0
11, 166426, Note_on_c, 9, 37, 0
11, 166524, Note_on_c, 9, 51, 68
11, 166588, Note_on_c, 9, 51, 0
11, 166616, Note_on_c, 9, 51, 88
11, 166684, Note_on_c, 9, 51, 0
11, 166982, Note_on_c, 9, 37, 77
11, 167000, Note_on_c, 9, 37, 70
11, 167000, Note_on_c, 9, 44, 70
11, 167000, Note_on_c, 9, 51, 98
11, 167064, Note_on_c, 9, 44, 0
11, 167064, Note_on_c, 9, 37, 0
11, 167068, Note_on_c, 9, 51, 0
11, 167126, Note_on_c, 9, 37, 0
11, 167284, Note_on_c, 9, 51, 68
11, 167356, Note_on_c, 9, 51, 0
11, 167384, Note_on_c, 9, 51, 88
11, 167452, Note_on_c, 9, 51, 0
11, 167768, Note_on_c, 9, 44, 70
11, 167772, Note_on_c, 9, 51, 98
11, 167832, Note_on_c, 9, 44, 0
11, 167836, Note_on_c, 9, 51, 0
11, 168052, Note_on_c, 9, 51, 68
11, 168124, Note_on_c, 9, 51, 0
11, 168152, Note_on_c, 9, 51, 88
11, 168220, Note_on_c, 9, 51, 0
11, 168536, Note_on_c, 9, 37, 70
11, 168536, Note_on_c, 9, 44, 70
11, 168540, Note_on_c, 9, 51, 98
11, 168600, Note_on_c, 9, 44, 0
11, 168604, Note_on_c, 9, 51, 0
11, 168604, Note_on_c, 9, 37, 0
11, 168824, Note_on_c, 9, 51, 68
11, 168884, Note_on_c, 9, 51, 0
11, 168920, Note_on_c, 9, 51, 88
11, 168988, Note_on_c, 9, 51, 0
11, 169304, Note_on_c, 9, 44, 70
11, 169308, Note_on_c, 9, 51, 98
11, 169368, Note_on_c, 9, 44, 0
11, 169372, Note_on_c, 9, 51, 0
11, 169596, Note_on_c, 9, 51, 68
11, 169652, Note_on_c, 9, 51, 0
11, 169688, Note_on_c, 9, 51, 88
11, 169756, Note_on_c, 9, 51, 0
11, 170072, Note_on_c, 9, 37, 70
11, 170072, Note_on_c, 9, 44, 70
11, 170076, Note_on_c, 9, 51, 98
11, 170136, Note_on_c, 9, 44, 0
11, 170136, Note_on_c, 9, 37, 0
11, 170140, Note_on_c, 9, 51, 0
11, 170364, Note_on_c, 9, 51, 68
11, 170424, Note_on_c, 9, 51, 0
11, 170456, Note_on_c, 9, 51, 88
11, 170524, Note_on_c, 9, 51, 0
11, 170836, Note_on_c, 9, 37, 83
11, 170836, Note_on_c, 9, 44, 70
11, 170840, Note_on_c, 9, 51, 98
11, 170904, Note_on_c, 9, 44, 0
11, 170908, Note_on_c, 9, 51, 0
11, 170964, Note_on_c, 9, 37, 0
11, 171224, Note_on_c, 9, 51, 88
11, 171292, Note_on_c, 9, 51, 0
11, 171608, Note_on_c, 9, 37, 70
11, 171608, Note_on_c, 9, 44, 70
11, 171612, Note_on_c, 9, 51, 98
11, 171672, Note_on_c, 9, 44, 0
11, 171672, Note_on_c, 9, 37, 0
11, 171676, Note_on_c, 9, 51, 0
11, 171992, Note_on_c, 9, 51, 88
11, 172060, Note_on_c, 9, 51, 0
11, 172376, Note_on_c, 9, 44, 70
11, 172380, Note_on_c, 9, 51, 98
11, 172384, Note_on_c, 9, 37, 90
11, 172436, Note_on_c, 9, 44, 0
11, 172444, Note_on_c, 9, 51, 0
11, 172512, Note_on_c, 9, 37, 0
11, 172660, Note_on_c, 9, 51, 68
11, 172732, Note_on_c, 9, 51, 0
11, 172760, Note_on_c, 9, 51, 88
11, 172828, Note_on_c, 9, 51, 0
11, 173144, Note_on_c, 9, 44, 70
11, 173148, Note_on_c, 9, 37, 70
11, 173148, Note_on_c, 9, 51, 98
11, 173208, Note_on_c, 9, 37, 0
11, 173208, Note_on_c, 9, 44, 0
11, 173212, Note_on_c, 9, 51, 0
11, 173432, Note_on_c, 9, 51, 68
11, 173492, Note_on_c, 9, 51, 0
11, 173528, Note_on_c, 9, 51, 88
11, 173596, Note_on_c, 9, 51, 0
11, 173912, Note_on_c, 9, 44, 70
11, 173916, Note_on_c, 9, 51, 98
11, 173928, Note_on_c, 9, 37, 88
11, 173976, Note_on_c, 9, 44, 0
11, 173980, Note_on_c, 9, 51, 0
11, 174046, Note_on_c, 9, 37, 0
11, 174204, Note_on_c, 9, 51, 68
11, 174260, Note_on_c, 9, 51, 0
11, 174296, Note_on_c, 9, 51, 88
11, 174364, Note_on_c, 9, 51, 0
11, 174588, Note_on_c, 9, 38, 20
11, 174640, Note_on_c, 9, 38, 0
11, 174680, Note_on_c, 9, 44, 70
11, 174680, Note_on_c, 9, 38, 40
11, 174684, Note_on_c, 9, 37, 70
11, 174684, Note_on_c, 9, 51, 98
11, 174744, Note_on_c, 9, 38, 0
11, 174744, Note_on_c, 9, 44, 0
11, 174748, Note_on_c, 9, 37, 0
11, 174748, Note_on_c, 9, 51, 0
11, 174960, Note_on_c, 9, 35, 75
11, 174972, Note_on_c, 9, 51, 68
11, 175016, Note_on_c, 9, 35, 0
11, 175032, Note_on_c, 9, 51, 0
11, 175064, Note_on_c, 9, 51, 88
11, 175068, Note_on_c, 9, 49, 30
11, 175128, Note_on_c, 9, 51, 0
11, 175132, Note_on_c, 9, 49, 0
11, 175444, Note_on_c, 9, 44, 70
11, 175448, Note_on_c, 9, 51, 108
11, 175512, Note_on_c, 9, 44, 0
11, 175516, Note_on_c, 9, 51, 0
11, 175832, Note_on_c, 9, 51, 88
11, 175900, Note_on_c, 9, 51, 0
11, 176216, Note_on_c, 9, 37, 70
11, 176216, Note_on_c, 9, 44, 70
11, 176220, Note_on_c, 9, 51, 108
11, 176280, Note_on_c, 9, 44, 0
11, 176280, Note_on_c, 9, 37, 0
11, 176284, Note_on_c, 9, 51, 0
11, 176600, Note_on_c, 9, 51, 88
11, 176668, Note_on_c, 9, 51, 0
11, 176984, Note_on_c, 9, 44, 70
11, 176984, Note_on_c, 9, 51, 98
11, 177002, Note_on_c, 9, 37, 90
11, 177044, Note_on_c, 9, 44, 0
11, 177052, Note_on_c, 9, 51, 0
11, 177120, Note_on_c, 9, 37, 0
11, 177368, Note_on_c, 9, 51, 88
11, 177436, Note_on_c, 9, 51, 0
11, 177752, Note_on_c, 9, 44, 70
11, 177752, Note_on_c, 9, 37, 70
11, 177756, Note_on_c, 9, 51, 98
11, 177816, Note_on_c, 9, 44, 0
11, 177820, Note_on_c, 9, 51, 0
11, 177820, Note_on_c, 9, 37, 0
11, 178136, Note_on_c, 9, 51, 88
11, 178204, Note_on_c, 9, 51, 0
11, 178520, Note_on_c, 9, 51, 108
11, 178520, Note_on_c, 9, 44, 70
11, 178534, Note_on_c, 9, 37, 87
11, 178584, Note_on_c, 9, 44, 0
11, 178588, Note_on_c, 9, 51, 0
11, 178644, Note_on_c, 9, 37, 0
11, 178904, Note_on_c, 9, 51, 88
11, 178972, Note_on_c, 9, 51, 0
11, 179170, Note_on_c, 9, 35, 74
11, 179232, Note_on_c, 9, 35, 0
11, 179282, Note_on_c, 9, 35, 70
11, 179288, Note_on_c, 9, 44, 70
11, 179288, Note_on_c, 9, 37, 70
11, 179292, Note_on_c, 9, 51, 108
11, 179352, Note_on_c, 9, 44, 0
11, 179356, Note_on_c, 9, 35, 0
11, 179356, Note_on_c, 9, 37, 0
11, 179356, Note_on_c, 9, 51, 0
11, 179672, Note_on_c, 9, 51, 88
11, 179740, Note_on_c, 9, 51, 0
11, 180054, Note_on_c, 9, 37, 86
11, 180056, Note_on_c, 9, 51, 98
11, 180056, Note_on_c, 9, 44, 70
11, 180120, Note_on_c, 9, 44, 0
11, 180124, Note_on_c, 9, 51, 0
11, 180126, Note_on_c, 9, 37, 0
11, 180440, Note_on_c, 9, 51, 88
11, 180508, Note_on_c, 9, 51, 0
11, 180824, Note_on_c, 9, 37, 70
11, 180824, Note_on_c, 9, 44, 70
11, 180828, Note_on_c, 9, 51, 98
11, 180888, Note_on_c, 9, 44, 0
11, 180888, Note_on_c, 9, 37, 0
11, 180892, Note_on_c, 9, 51, 0
11, 181208, Note_on_c, 9, 51, 88
11, 181276, Note_on_c, 9, 51, 0
11, 181592, Note_on_c, 9, 51, 98
11, 181592, Note_on_c, 9, 44, 70
11, 181608, Note_on_c, 9, 37, 92
11, 181656, Note_on_c, 9, 44, 0
11, 181660, Note_on_c, 9, 51, 0
11, 181684, Note_on_c, 9, 37, 0
11, 181876, Note_on_c, 9, 51, 68
11, 181940, Note_on_c, 9, 51, 0
11, 181976, Note_on_c, 9, 51, 88
11, 182044, Note_on_c, 9, 51, 0
11, 182264, Note_on_c, 9, 35, 71
11, 182328, Note_on_c, 9, 35, 0
11, 182360, Note_on_c, 9, 44, 70
11, 182364, Note_on_c, 9, 51, 98
11, 182364, Note_on_c, 9, 37, 60
11, 182376, Note_on_c, 9, 35, 80
11, 182424, Note_on_c, 9, 37, 0
11, 182424, Note_on_c, 9, 44, 0
11, 182428, Note_on_c, 9, 51, 0
11, 182484, Note_on_c, 9, 35, 0
11, 182640, Note_on_c, 9, 51, 68
11, 182708, Note_on_c, 9, 51, 0
11, 182744, Note_on_c, 9, 51, 88
11, 182812, Note_on_c, 9, 51, 0
11, 183128, Note_on_c, 9, 44, 70
11, 183128, Note_on_c, 9, 51, 98
11, 183136, Note_on_c, 9, 37, 86
11, 183192, Note_on_c, 9, 44, 0
11, 183196, Note_on_c, 9, 51, 0
11, 183208, Note_on_c, 9, 37, 0
11, 183420, Note_on_c, 9, 51, 68
11, 183476, Note_on_c, 9, 51, 0
11, 183512, Note_on_c, 9, 51, 88
11, 183580, Note_on_c, 9, 51, 0
11, 183896, Note_on_c, 9, 37, 70
11, 183896, Note_on_c, 9, 44, 70
11, 183900, Note_on_c, 9, 51, 98
11, 183960, Note_on_c, 9, 44, 0
11, 183960, Note_on_c, 9, 37, 0
11, 183964, Note_on_c, 9, 51, 0
11, 184188, Note_on_c, 9, 51, 68
11, 184240, Note_on_c, 9, 51, 0
11, 184280, Note_on_c, 9, 51, 88
11, 184348, Note_on_c, 9, 51, 0
11, 184664, Note_on_c, 9, 44, 70
11, 184664, Note_on_c, 9, 51, 108
11, 184678, Note_on_c, 9, 37, 90
11, 184728, Note_on_c, 9, 44, 0
11, 184732, Note_on_c, 9, 51, 0
11, 184762, Note_on_c, 9, 37, 0
11, 185044, Note_on_c, 9, 51, 88
11, 185116, Note_on_c, 9, 51, 0
11, 185432, Note_on_c, 9, 37, 70
11, 185432, Note_on_c, 9, 44, 70
11, 185436, Note_on_c, 9, 51, 108
11, 185496, Note_on_c, 9, 44, 0
11, 185496, Note_on_c, 9, 37, 0
11, 185500, Note_on_c, 9, 51, 0
11, 185816, Note_on_c, 9, 51, 88
11, 185884, Note_on_c, 9, 51, 0
11, 186186, Note_on_c, 9, 40, 37
11, 186200, Note_on_c, 9, 44, 70
11, 186204, Note_on_c, 9, 51, 98
11, 186264, Note_on_c, 9, 44, 0
11, 186268, Note_on_c, 9, 51, 0
11, 186306, Note_on_c, 9, 40, 0
11, 186484, Note_on_c, 9, 51, 68
11, 186556, Note_on_c, 9, 51, 0
11, 186570, Note_on_c, 9, 40, 55
11, 186584, Note_on_c, 9, 51, 88
11, 186652, Note_on_c, 9, 51, 0
11, 186730, Note_on_c, 9, 40, 0
11, 186834, Note_on_c, 9, 40, 48
11, 186868, Note_on_c, 9, 38, 20
11, 186894, Note_on_c, 9, 40, 0
11, 186940, Note_on_c, 9, 38, 0
11, 186968, Note_on_c, 9, 44, 70
11, 186968, Note_on_c, 9, 38, 40
11, 186968, Note_on_c, 9, 37, 70
11, 186972, Note_on_c, 9, 51, 98
11, 187032, Note_on_c, 9, 38, 0
11, 187032, Note_on_c, 9, 44, 0
11, 187036, Note_on_c, 9, 37, 0
11, 187036, Note_on_c, 9, 51, 0
11, 187228, Note_on_c, 9, 37, 58
11, 187252, Note_on_c, 9, 51, 68
11, 187314, Note_on_c, 9, 37, 0
11, 187324, Note_on_c, 9, 51, 0
11, 187336, Note_on_c, 9, 57, 33
11, 187352, Note_on_c, 9, 35, 64
11, 187356, Note_on_c, 9, 51, 88
11, 187420, Note_on_c, 9, 51, 0
11, 187736, Note_on_c, 9, 44, 70
11, 187736, Note_on_c, 9, 51, 98
11, 187800, Note_on_c, 9, 44, 0
11, 187804, Note_on_c, 9, 51, 0
11, 188024, Note_on_c, 9, 51, 68
11, 188080, Note_on_c, 9, 51, 0
11, 188120, Note_on_c, 9, 51, 88
11, 188188, Note_on_c, 9, 51, 0
11, 188274, Note_on_c, 9, 57, 0
11, 188370, Note_on_c, 9, 35, 0
11, 188402, Note_on_c, 9, 37, 26
11, 188438, Note_on_c, 9, 37, 0
11, 188504, Note_on_c, 9, 44, 70
11, 188508, Note_on_c, 9, 51, 98
11, 188508, Note_on_c, 9, 37, 60
11, 188516, Note_on_c, 9, 35, 80
11, 188568, Note_on_c, 9, 37, 0
11, 188568, Note_on_c, 9, 44, 0
11, 188572, Note_on_c, 9, 51, 0
11, 188736, Note_on_c, 9, 35, 0
11, 188784, Note_on_c, 9, 35, 88
11, 188796, Note_on_c, 9, 51, 68
11, 188852, Note_on_c, 9, 51, 0
11, 188888, Note_on_c, 9, 51, 88
11, 188944, Note_on_c, 9, 35, 0
11, 188956, Note_on_c, 9, 51, 0
11, 189272, Note_on_c, 9, 51, 98
11, 189272, Note_on_c, 9, 44, 70
11, 189336, Note_on_c, 9, 44, 0
11, 189340, Note_on_c, 9, 51, 0
11, 189656, Note_on_c, 9, 51, 88
11, 189724, Note_on_c, 9, 51, 0
11, 190036, Note_on_c, 9, 44, 70
11, 190036, Note_on_c, 9, 37, 70
11, 190044, Note_on_c, 9, 51, 98
11, 190104, Note_on_c, 9, 44, 0
11, 190108, Note_on_c, 9, 51, 0
11, 190108, Note_on_c, 9, 37, 0
11, 190424, Note_on_c, 9, 51, 88
11, 190492, Note_on_c, 9, 51, 0
11, 190808, Note_on_c, 9, 44, 70
11, 190812, Note_on_c, 9, 51, 98
11, 190872, Note_on_c, 9, 44, 0
11, 190876, Note_on_c, 9, 51, 0
11, 191092, Note_on_c, 9, 51, 68
11, 191164, Note_on_c, 9, 51, 0
11, 191192, Note_on_c, 9, 51, 88
11, 191260, Note_on_c, 9, 51, 0
11, 191576, Note_on_c, 9, 44, 70
11, 191576, Note_on_c, 9, 37, 70
11, 191580, Note_on_c, 9, 51, 98
11, 191636, Note_on_c, 9, 37, 0
11, 191636, Note_on_c, 9, 44, 0
11, 191644, Note_on_c, 9, 51, 0
11, 191860, Note_on_c, 9, 51, 68
11, 191932, Note_on_c, 9, 51, 0
11, 191960, Note_on_c, 9, 51, 88
11, 192028, Note_on_c, 9, 51, 0
11, 192344, Note_on_c, 9, 44, 70
11, 192348, Note_on_c, 9, 51, 98
11, 192408, Note_on_c, 9, 44, 0
11, 192412, Note_on_c, 9, 51, 0
11, 192632, Note_on_c, 9, 51, 68
11, 192692, Note_on_c, 9, 51, 0
11, 192728, Note_on_c, 9, 51, 88
11, 192796, Note_on_c, 9, 51, 0
11, 193112, Note_on_c, 9, 37, 70
11, 193112, Note_on_c, 9, 44, 70
11, 193116, Note_on_c, 9, 51, 98
11, 193176, Note_on_c, 9, 44, 0
11, 193176, Note_on_c, 9, 37, 0
11, 193180, Note_on_c, 9, 51, 0
11, 193288, Note_on_c, 9, 37, 55
11, 193318, Note_on_c, 9, 37, 0
11, 193404, Note_on_c, 9, 51, 68
11, 193460, Note_on_c, 9, 51, 0
11, 193496, Note_on_c, 9, 51, 88
11, 193546, Note_on_c, 9, 37, 62
11, 193564, Note_on_c, 9, 51, 0
11, 193578, Note_on_c, 9, 37, 0
11, 193802, Note_on_c, 9, 37, 60
11, 193856, Note_on_c, 9, 37, 0
11, 193880, Note_on_c, 9, 44, 70
11, 193880, Note_on_c, 9, 51, 98
11, 193944, Note_on_c, 9, 44, 0
11, 193948, Note_on_c, 9, 51, 0
11, 194052, Note_on_c, 9, 37, 53
11, 194102, Note_on_c, 9, 37, 0
11, 194172, Note_on_c, 9, 51, 68
11, 194182, Note_on_c, 9, 35, 58
11, 194232, Note_on_c, 9, 51, 0
11, 194234, Note_on_c, 9, 35, 0
11, 194264, Note_on_c, 9, 51, 88
11, 194306, Note_on_c, 9, 37, 57
11, 194332, Note_on_c, 9, 51, 0
11, 194448, Note_on_c, 9, 37, 0
11, 194532, Note_on_c, 9, 37, 51
11, 194584, Note_on_c, 9, 37, 0
11, 194644, Note_on_c, 9, 44, 70
11, 194648, Note_on_c, 9, 51, 98
11, 194648, Note_on_c, 9, 37, 70
11, 194712, Note_on_c, 9, 37, 0
11, 194712, Note_on_c, 9, 44, 0
11, 194716, Note_on_c, 9, 51, 0
11, 194778, Note_on_c, 9, 37, 57
11, 194830, Note_on_c, 9, 37, 0
11, 194902, Note_on_c, 9, 35, 64
11, 194940, Note_on_c, 9, 51, 68
11, 194986, Note_on_c, 9, 35, 0
11, 195004, Note_on_c, 9, 51, 0
11, 195032, Note_on_c, 9, 51, 88
11, 195100, Note_on_c, 9, 51, 0
11, 195416, Note_on_c, 9, 51, 108
11, 195416, Note_on_c, 9, 44, 70
11, 195480, Note_on_c, 9, 44, 0
11, 195484, Note_on_c, 9, 51, 0
11, 195800, Note_on_c, 9, 51, 88
11, 195868, Note_on_c, 9, 51, 0
11, 196184, Note_on_c, 9, 44, 70
11, 196188, Note_on_c, 9, 37, 70
11, 196188, Note_on_c, 9, 51, 108
11, 196244, Note_on_c, 9, 37, 0
11, 196244, Note_on_c, 9, 44, 0
11, 196256, Note_on_c, 9, 51, 0
11, 196568, Note_on_c, 9, 51, 88
11, 196588, Note_on_c, 9, 40, 30
11, 196628, Note_on_c, 9, 40, 0
11, 196636, Note_on_c, 9, 51, 0
11, 196702, Note_on_c, 9, 40, 39
11, 196770, Note_on_c, 9, 40, 0
11, 196830, Note_on_c, 9, 35, 61
11, 196916, Note_on_c, 9, 35, 0
11, 196952, Note_on_c, 9, 44, 70
11, 196956, Note_on_c, 9, 51, 98
11, 197016, Note_on_c, 9, 44, 0
11, 197020, Note_on_c, 9, 51, 0
11, 197104, Note_on_c, 9, 40, 26
11, 197142, Note_on_c, 9, 40, 0
11, 197202, Note_on_c, 9, 40, 38
11, 197232, Note_on_c, 9, 51, 68
11, 197258, Note_on_c, 9, 40, 0
11, 197308, Note_on_c, 9, 51, 0
11, 197332, Note_on_c, 9, 35, 55
11, 197336, Note_on_c, 9, 51, 88
11, 197404, Note_on_c, 9, 51, 0
11, 197478, Note_on_c, 9, 35, 0
11, 197720, Note_on_c, 9, 44, 70
11, 197720, Note_on_c, 9, 37, 70
11, 197724, Note_on_c, 9, 51, 98
11, 197784, Note_on_c, 9, 37, 0
11, 197784, Note_on_c, 9, 44, 0
11, 197788, Note_on_c, 9, 51, 0
11, 198012, Note_on_c, 9, 51, 68
11, 198068, Note_on_c, 9, 51, 0
11, 198104, Note_on_c, 9, 51, 88
11, 198128, Note_on_c, 9, 40, 21
11, 198172, Note_on_c, 9, 40, 0
11, 198172, Note_on_c, 9, 51, 0
11, 198262, Note_on_c, 9, 40, 15
11, 198298, Note_on_c, 9, 40, 0
11, 198480, Note_on_c, 9, 40, 24
11, 198488, Note_on_c, 9, 44, 70
11, 198488, Note_on_c, 9, 51, 98
11, 198550, Note_on_c, 9, 40, 0
11, 198552, Note_on_c, 9, 44, 0
11, 198556, Note_on_c, 9, 51, 0
11, 198758, Note_on_c, 9, 40, 26
11, 198780, Note_on_c, 9, 51, 68
11, 198796, Note_on_c, 9, 40, 0
11, 198832, Note_on_c, 9, 51, 0
11, 198872, Note_on_c, 9, 51, 88
11, 198890, Note_on_c, 9, 40, 33
11, 198922, Note_on_c, 9, 40, 0
11, 198940, Note_on_c, 9, 51, 0
11, 199164, Note_on_c, 9, 38, 20
11, 199224, Note_on_c, 9, 38, 0
11, 199256, Note_on_c, 9, 38, 40
11, 199256, Note_on_c, 9, 44, 70
11, 199260, Note_on_c, 9, 37, 70
11, 199260, Note_on_c, 9, 51, 98
11, 199280, Note_on_c, 9, 40, 33
11, 199314, Note_on_c, 9, 40, 0
11, 199320, Note_on_c, 9, 38, 0
11, 199320, Note_on_c, 9, 44, 0
11, 199324, Note_on_c, 9, 37, 0
11, 199324, Note_on_c, 9, 51, 0
11, 199522, Note_on_c, 9, 37, 48
11, 199548, Note_on_c, 9, 51, 68
11, 199604, Note_on_c, 9, 37, 0
11, 199612, Note_on_c, 9, 51, 0
11, 199636, Note_on_c, 9, 51, 88
11, 199638, Note_on_c, 9, 57, 24
11, 199640, Note_on_c, 9, 49, 30
11, 199650, Note_on_c, 9, 35, 53
11, 199704, Note_on_c, 9, 51, 0
11, 199708, Note_on_c, 9, 49, 0
11, 200024, Note_on_c, 9, 44, 70
11, 200028, Note_on_c, 9, 51, 108
11, 200088, Note_on_c, 9, 44, 0
11, 200092, Note_on_c, 9, 51, 0
11, 200408, Note_on_c, 9, 51, 88
11, 200476, Note_on_c, 9, 51, 0
11, 200516, Note_on_c, 9, 57, 0
11, 200602, Note_on_c, 9, 35, 0
11, 200662, Note_on_c, 9, 37, 29
11, 200718, Note_on_c, 9, 37, 0
11, 200776, Note_on_c, 9, 35, 53
11, 200792, Note_on_c, 9, 44, 70
11, 200792, Note_on_c, 9, 37, 70
11, 200792, Note_on_c, 9, 51, 108
11, 200856, Note_on_c, 9, 37, 0
11, 200856, Note_on_c, 9, 44, 0
11, 200860, Note_on_c, 9, 51, 0
11, 200866, Note_on_c, 9, 35, 0
11, 201046, Note_on_c, 9, 57, 33
11, 201060, Note_on_c, 9, 35, 54
11, 201116, Note_on_c, 9, 57, 0
11, 201158, Note_on_c, 9, 35, 0
11, 201176, Note_on_c, 9, 51, 88
11, 201244, Note_on_c, 9, 51, 0
11, 201286, Note_on_c, 9, 35, 59
11, 201288, Note_on_c, 9, 57, 28
11, 201386, Note_on_c, 9, 57, 0
11, 201452, Note_on_c, 9, 35, 0
11, 201560, Note_on_c, 9, 44, 70
11, 201560, Note_on_c, 9, 51, 108
11, 201624, Note_on_c, 9, 44, 0
11, 201628, Note_on_c, 9, 51, 0
11, 201944, Note_on_c, 9, 51, 88
11, 202012, Note_on_c, 9, 51, 0
11, 202328, Note_on_c, 9, 44, 70
11, 202328, Note_on_c, 9, 37, 70
11, 202332, Note_on_c, 9, 51, 108
11, 202392, Note_on_c, 9, 44, 0
11, 202396, Note_on_c, 9, 51, 0
11, 202396, Note_on_c, 9, 37, 0
11, 202712, Note_on_c, 9, 51, 88
11, 202780, Note_on_c, 9, 51, 0
11, 203096, Note_on_c, 9, 44, 70
11, 203096, Note_on_c, 9, 51, 98
11, 203160, Note_on_c, 9, 44, 0
11, 203164, Note_on_c, 9, 51, 0
11, 203380, Note_on_c, 9, 51, 68
11, 203440, Note_on_c, 9, 51, 0
11, 203468, Note_on_c, 9, 35, 41
11, 203480, Note_on_c, 9, 51, 88
11, 203510, Note_on_c, 9, 35, 0
11, 203548, Note_on_c, 9, 51, 0
11, 203578, Note_on_c, 9, 35, 55
11, 203648, Note_on_c, 9, 35, 0
11, 203864, Note_on_c, 9, 37, 60
11, 203864, Note_on_c, 9, 44, 70
11, 203868, Note_on_c, 9, 51, 98
11, 203928, Note_on_c, 9, 44, 0
11, 203932, Note_on_c, 9, 51, 0
11, 203932, Note_on_c, 9, 37, 0
11, 204148, Note_on_c, 9, 51, 68
11, 204220, Note_on_c, 9, 51, 0
11, 204248, Note_on_c, 9, 51, 88
11, 204252, Note_on_c, 9, 35, 42
11, 204286, Note_on_c, 9, 35, 0
11, 204316, Note_on_c, 9, 51, 0
11, 204352, Note_on_c, 9, 35, 64
11, 204396, Note_on_c, 9, 35, 0
11, 204632, Note_on_c, 9, 44, 70
11, 204632, Note_on_c, 9, 51, 108
11, 204696, Note_on_c, 9, 44, 0
11, 204700, Note_on_c, 9, 51, 0
11, 204894, Note_on_c, 9, 35, 55
11, 204922, Note_on_c, 9, 35, 0
11, 205016, Note_on_c, 9, 51, 88
11, 205084, Note_on_c, 9, 51, 0
11, 205156, Note_on_c, 9, 35, 79
11, 205186, Note_on_c, 9, 35, 0
11, 205314, Note_on_c, 9, 35, 32
11, 205346, Note_on_c, 9, 35, 0
11, 205400, Note_on_c, 9, 37, 70
11, 205400, Note_on_c, 9, 44, 70
11, 205404, Note_on_c, 9, 51, 108
11, 205438, Note_on_c, 9, 35, 67
11, 205464, Note_on_c, 9, 44, 0
11, 205464, Note_on_c, 9, 37, 0
11, 205468, Note_on_c, 9, 51, 0
11, 205526, Note_on_c, 9, 35, 0
11, 205670, Note_on_c, 9, 35, 64
11, 205702, Note_on_c, 9, 35, 0
11, 205784, Note_on_c, 9, 51, 88
11, 205852, Note_on_c, 9, 51, 0
11, 206168, Note_on_c, 9, 51, 98
11, 206168, Note_on_c, 9, 44, 70
11, 206232, Note_on_c, 9, 44, 0
11, 206236, Note_on_c, 9, 51, 0
11, 206452, Note_on_c, 9, 51, 68
11, 206516, Note_on_c, 9, 51, 0
11, 206552, Note_on_c, 9, 51, 88
11, 206620, Note_on_c, 9, 51, 0
11, 206936, Note_on_c, 9, 44, 70
11, 206940, Note_on_c, 9, 37, 60
11, 206940, Note_on_c, 9, 51, 98
11, 207000, Note_on_c, 9, 37, 0
11, 207000, Note_on_c, 9, 44, 0
11, 207004, Note_on_c, 9, 51, 0
11, 207224, Note_on_c, 9, 51, 68
11, 207284, Note_on_c, 9, 51, 0
11, 207320, Note_on_c, 9, 51, 88
11, 207388, Note_on_c, 9, 51, 0
11, 207704, Note_on_c, 9, 51, 108
11, 207704, Note_on_c, 9, 44, 70
11, 207768, Note_on_c, 9, 44, 0
11, 207772, Note_on_c, 9, 51, 0
11, 208088, Note_on_c, 9, 51, 88
11, 208156, Note_on_c, 9, 51, 0
11, 208472, Note_on_c, 9, 37, 70
11, 208472, Note_on_c, 9, 44, 70
11, 208476, Note_on_c, 9, 51, 108
11, 208536, Note_on_c, 9, 44, 0
11, 208540, Note_on_c, 9, 51, 0
11, 208540, Note_on_c, 9, 37, 0
11, 208856, Note_on_c, 9, 51, 88
11, 208924, Note_on_c, 9, 51, 0
11, 209236, Note_on_c, 9, 44, 70
11, 209240, Note_on_c, 9, 51, 108
11, 209304, Note_on_c, 9, 44, 0
11, 209308, Note_on_c, 9, 51, 0
11, 209624, Note_on_c, 9, 51, 88
11, 209692, Note_on_c, 9, 51, 0
11, 210008, Note_on_c, 9, 51, 108
11, 210008, Note_on_c, 9, 37, 70
11, 210008, Note_on_c, 9, 44, 70
11, 210072, Note_on_c, 9, 44, 0
11, 210072, Note_on_c, 9, 37, 0
11, 210076, Note_on_c, 9, 51, 0
11, 210298, Note_on_c, 9, 40, 33
11, 210336, Note_on_c, 9, 40, 0
11, 210392, Note_on_c, 9, 51, 88
11, 210416, Note_on_c, 9, 46, 46
11, 210444, Note_on_c, 9, 35, 48
11, 210460, Note_on_c, 9, 51, 0
11, 210524, Note_on_c, 9, 46, 0
11, 210586, Note_on_c, 9, 35, 0
11, 210776, Note_on_c, 9, 51, 98
11, 210776, Note_on_c, 9, 44, 70
11, 210802, Note_on_c, 9, 40, 37
11, 210836, Note_on_c, 9, 44, 0
11, 210844, Note_on_c, 9, 51, 0
11, 210856, Note_on_c, 9, 40, 0
11, 211024, Note_on_c, 9, 46, 65
11, 211048, Note_on_c, 9, 35, 62
11, 211060, Note_on_c, 9, 51, 68
11, 211088, Note_on_c, 9, 46, 0
11, 211130, Note_on_c, 9, 35, 0
11, 211132, Note_on_c, 9, 51, 0
11, 211160, Note_on_c, 9, 51, 88
11, 211228, Note_on_c, 9, 51, 0
11, 211440, Note_on_c, 9, 38, 20
11, 211448, Note_on_c, 9, 40, 23
11, 211482, Note_on_c, 9, 40, 0
11, 211516, Note_on_c, 9, 38, 0
11, 211544, Note_on_c, 9, 44, 70
11, 211544, Note_on_c, 9, 38, 40
11, 211548, Note_on_c, 9, 37, 70
11, 211548, Note_on_c, 9, 51, 98
11, 211584, Note_on_c, 9, 46, 73
11, 211594, Note_on_c, 9, 35, 77
11, 211608, Note_on_c, 9, 38, 0
11, 211608, Note_on_c, 9, 44, 0
11, 211612, Note_on_c, 9, 51, 0
11, 211612, Note_on_c, 9, 37, 0
11, 211656, Note_on_c, 9, 46, 0
11, 211800, Note_on_c, 9, 35, 0
11, 211832, Note_on_c, 9, 51, 68
11, 211892, Note_on_c, 9, 51, 0
11, 211928, Note_on_c, 9, 51, 88
11, 211928, Note_on_c, 9, 49, 30
11, 211958, Note_on_c, 9, 40, 23
11, 211992, Note_on_c, 9, 51, 0
11, 211994, Note_on_c, 9, 40, 0
11, 211996, Note_on_c, 9, 49, 0
11, 212182, Note_on_c, 9, 46, 72
11, 212190, Note_on_c, 9, 35, 66
11, 212236, Note_on_c, 9, 46, 0
11, 212312, Note_on_c, 9, 51, 108
11, 212312, Note_on_c, 9, 44, 70
11, 212320, Note_on_c, 9, 35, 0
11, 212376, Note_on_c, 9, 44, 0
11, 212380, Note_on_c, 9, 51, 0
11, 212696, Note_on_c, 9, 51, 88
11, 212764, Note_on_c, 9, 51, 0
11, 213080, Note_on_c, 9, 44, 70
11, 213080, Note_on_c, 9, 37, 70
11, 213084, Note_on_c, 9, 51, 108
11, 213144, Note_on_c, 9, 37, 0
11, 213144, Note_on_c, 9, 44, 0
11, 213148, Note_on_c, 9, 51, 0
11, 213464, Note_on_c, 9, 51, 88
11, 213532, Note_on_c, 9, 51, 0
11, 213844, Note_on_c, 9, 44, 70
11, 213848, Note_on_c, 9, 51, 108
11, 213912, Note_on_c, 9, 44, 0
11, 213916, Note_on_c, 9, 51, 0
11, 214232, Note_on_c, 9, 51, 88
11, 214300, Note_on_c, 9, 51, 0
11, 214496, Note_on_c, 9, 40, 35
11, 214528, Note_on_c, 9, 40, 0
11, 214616, Note_on_c, 9, 44, 70
11, 214620, Note_on_c, 9, 37, 70
11, 214620, Note_on_c, 9, 51, 108
11, 214636, Note_on_c, 9, 40, 33
11, 214678, Note_on_c, 9, 40, 0
11, 214680, Note_on_c, 9, 44, 0
11, 214680, Note_on_c, 9, 37, 0
11, 214684, Note_on_c, 9, 51, 0
11, 214872, Note_on_c, 9, 35, 49
11, 214910, Note_on_c, 9, 35, 0
11, 215000, Note_on_c, 9, 51, 88
11, 215002, Note_on_c, 9, 35, 44
11, 215068, Note_on_c, 9, 51, 0
11, 215194, Note_on_c, 9, 35, 0
11, 215262, Note_on_c, 9, 35, 45
11, 215322, Note_on_c, 9, 35, 0
11, 215384, Note_on_c, 9, 44, 70
11, 215384, Note_on_c, 9, 51, 98
11, 215444, Note_on_c, 9, 44, 0
11, 215452, Note_on_c, 9, 51, 0
11, 215668, Note_on_c, 9, 51, 68
11, 215732, Note_on_c, 9, 51, 0
11, 215768, Note_on_c, 9, 51, 88
11, 215788, Note_on_c, 9, 35, 36
11, 215824, Note_on_c, 9, 35, 0
11, 215836, Note_on_c, 9, 51, 0
11, 216152, Note_on_c, 9, 44, 70
11, 216152, Note_on_c, 9, 37, 60
11, 216156, Note_on_c, 9, 51, 98
11, 216216, Note_on_c, 9, 37, 0
11, 216216, Note_on_c, 9, 44, 0
11, 216220, Note_on_c, 9, 51, 0
11, 216432, Note_on_c, 9, 51, 68
11, 216500, Note_on_c, 9, 51, 0
11, 216536, Note_on_c, 9, 51, 88
11, 216604, Note_on_c, 9, 51, 0
11, 216920, Note_on_c, 9, 44, 70
11, 216924, Note_on_c, 9, 51, 98
11, 216984, Note_on_c, 9, 44, 0
11, 216988, Note_on_c, 9, 51, 0
11, 217304, Note_on_c, 9, 51, 88
11, 217372, Note_on_c, 9, 51, 0
11, 217688, Note_on_c, 9, 37, 70
11, 217688, Note_on_c, 9, 44, 70
11, 217692, Note_on_c, 9, 51, 98
11, 217752, Note_on_c, 9, 44, 0
11, 217752, Note_on_c, 9, 37, 0
11, 217756, Note_on_c, 9, 51, 0
11, 218064, Note_on_c, 9, 35, 35
11, 218072, Note_on_c, 9, 51, 88
11, 218108, Note_on_c, 9, 35, 0
11, 218140, Note_on_c, 9, 51, 0
11, 218456, Note_on_c, 9, 51, 98
11, 218456, Note_on_c, 9, 44, 70
11, 218520, Note_on_c, 9, 44, 0
11, 218524, Note_on_c, 9, 51, 0
11, 218740, Note_on_c, 9, 51, 68
11, 218742, Note_on_c, 9, 35, 32
11, 218784, Note_on_c, 9, 35, 0
11, 218812, Note_on_c, 9, 51, 0
11, 218836, Note_on_c, 9, 51, 88
11, 218908, Note_on_c, 9, 51, 0
11, 219094, Note_on_c, 9, 40, 23
11, 219128, Note_on_c, 9, 40, 0
11, 219224, Note_on_c, 9, 37, 60
11, 219224, Note_on_c, 9, 44, 70
11, 219228, Note_on_c, 9, 51, 98
11, 219238, Note_on_c, 9, 40, 35
11, 219286, Note_on_c, 9, 40, 0
11, 219288, Note_on_c, 9, 37, 0
11, 219288, Note_on_c, 9, 44, 0
11, 219292, Note_on_c, 9, 51, 0
11, 219352, Note_on_c, 9, 40, 34
11, 219380, Note_on_c, 9, 40, 0
11, 219494, Note_on_c, 9, 35, 47
11, 219508, Note_on_c, 9, 51, 68
11, 219532, Note_on_c, 9, 35, 0
11, 219572, Note_on_c, 9, 51, 0
11, 219608, Note_on_c, 9, 51, 88
11, 219676, Note_on_c, 9, 51, 0
11, 219992, Note_on_c, 9, 44, 70
11, 219996, Note_on_c, 9, 51, 98
11, 220056, Note_on_c, 9, 44, 0
11, 220060, Note_on_c, 9, 51, 0
11, 220276, Note_on_c, 9, 51, 68
11, 220276, Note_on_c, 9, 40, 19
11, 220306, Note_on_c, 9, 40, 0
11, 220348, Note_on_c, 9, 51, 0
11, 220376, Note_on_c, 9, 51, 88
11, 220434, Note_on_c, 9, 40, 22
11, 220444, Note_on_c, 9, 51, 0
11, 220468, Note_on_c, 9, 40, 0
11, 220570, Note_on_c, 9, 40, 37
11, 220598, Note_on_c, 9, 40, 0
11, 220732, Note_on_c, 9, 35, 55
11, 220760, Note_on_c, 9, 44, 70
11, 220760, Note_on_c, 9, 51, 98
11, 220760, Note_on_c, 9, 37, 70
11, 220772, Note_on_c, 9, 35, 0
11, 220824, Note_on_c, 9, 44, 0
11, 220824, Note_on_c, 9, 37, 0
11, 220828, Note_on_c, 9, 51, 0
11, 221010, Note_on_c, 9, 40, 23
11, 221040, Note_on_c, 9, 51, 68
11, 221048, Note_on_c, 9, 40, 0
11, 221116, Note_on_c, 9, 51, 0
11, 221148, Note_on_c, 9, 51, 88
11, 221212, Note_on_c, 9, 51, 0
11, 221528, Note_on_c, 9, 44, 70
11, 221528, Note_on_c, 9, 51, 98
11, 221592, Note_on_c, 9, 44, 0
11, 221596, Note_on_c, 9, 51, 0
11, 221816, Note_on_c, 9, 51, 68
11, 221818, Note_on_c, 9, 35, 46
11, 221854, Note_on_c, 9, 35, 0
11, 221876, Note_on_c, 9, 51, 0
11, 221912, Note_on_c, 9, 51, 88
11, 221934, Note_on_c, 9, 40, 33
11, 221966, Note_on_c, 9, 40, 0
11, 221980, Note_on_c, 9, 51, 0
11, 222070, Note_on_c, 9, 35, 50
11, 222104, Note_on_c, 9, 35, 0
11, 222296, Note_on_c, 9, 37, 60
11, 222296, Note_on_c, 9, 44, 70
11, 222300, Note_on_c, 9, 51, 98
11, 222360, Note_on_c, 9, 44, 0
11, 222360, Note_on_c, 9, 37, 0
11, 222364, Note_on_c, 9, 51, 0
11, 222580, Note_on_c, 9, 51, 68
11, 222640, Note_on_c, 9, 51, 0
11, 222680, Note_on_c, 9, 51, 88
11, 222748, Note_on_c, 9, 51, 0
11, 222824, Note_on_c, 9, 40, 33
11, 222852, Note_on_c, 9, 40, 0
11, 222936, Note_on_c, 9, 35, 37
11, 223004, Note_on_c, 9, 35, 0
11, 223064, Note_on_c, 9, 44, 70
11, 223064, Note_on_c, 9, 51, 98
11, 223080, Note_on_c, 9, 40, 34
11, 223128, Note_on_c, 9, 44, 0
11, 223132, Note_on_c, 9, 51, 0
11, 223162, Note_on_c, 9, 40, 0
11, 223356, Note_on_c, 9, 51, 68
11, 223420, Note_on_c, 9, 51, 0
11, 223444, Note_on_c, 9, 51, 88
11, 223448, Note_on_c, 9, 40, 28
11, 223482, Note_on_c, 9, 40, 0
11, 223516, Note_on_c, 9, 51, 0
11, 223602, Note_on_c, 9, 35, 40
11, 223634, Note_on_c, 9, 35, 0
11, 223710, Note_on_c, 9, 40, 42
11, 223738, Note_on_c, 9, 40, 0
11, 223740, Note_on_c, 9, 38, 20
11, 223804, Note_on_c, 9, 38, 0
11, 223832, Note_on_c, 9, 44, 70
11, 223832, Note_on_c, 9, 38, 40
11, 223836, Note_on_c, 9, 37, 70
11, 223836, Note_on_c, 9, 51, 98
11, 223896, Note_on_c, 9, 38, 0
11, 223896, Note_on_c, 9, 44, 0
11, 223900, Note_on_c, 9, 37, 0
11, 223900, Note_on_c, 9, 51, 0
11, 223966, Note_on_c, 9, 40, 44
11, 223998, Note_on_c, 9, 40, 0
11, 224066, Note_on_c, 9, 35, 65
11, 224124, Note_on_c, 9, 51, 68
11, 224148, Note_on_c, 9, 35, 0
11, 224188, Note_on_c, 9, 51, 0
11, 224204, Note_on_c, 9, 37, 62
11, 224216, Note_on_c, 9, 51, 88
11, 224284, Note_on_c, 9, 51, 0
11, 224294, Note_on_c, 9, 37, 0
11, 224294, Note_on_c, 9, 35, 63
11, 224600, Note_on_c, 9, 51, 98
11, 224600, Note_on_c, 9, 44, 70
11, 224664, Note_on_c, 9, 44, 0
11, 224668, Note_on_c, 9, 51, 0
11, 224884, Note_on_c, 9, 51, 68
11, 224956, Note_on_c, 9, 51, 0
11, 224984, Note_on_c, 9, 51, 88
11, 225052, Note_on_c, 9, 51, 0
11, 225368, Note_on_c, 9, 37, 70
11, 225368, Note_on_c, 9, 44, 70
11, 225372, Note_on_c, 9, 51, 98
11, 225418, Note_on_c, 9, 35, 0
11, 225432, Note_on_c, 9, 37, 0
11, 225432, Note_on_c, 9, 44, 0
11, 225436, Note_on_c, 9, 51, 0
11, 225652, Note_on_c, 9, 51, 68
11, 225724, Note_on_c, 9, 51, 0
11, 225752, Note_on_c, 9, 51, 88
11, 225820, Note_on_c, 9, 51, 0
11, 226028, Note_on_c, 9, 40, 33
11, 226058, Note_on_c, 9, 40, 0
11, 226136, Note_on_c, 9, 44, 70
11, 226136, Note_on_c, 9, 51, 98
11, 226152, Note_on_c, 9, 35, 43
11, 226200, Note_on_c, 9, 44, 0
11, 226204, Note_on_c, 9, 51, 0
11, 226276, Note_on_c, 9, 35, 0
11, 226424, Note_on_c, 9, 51, 68
11, 226484, Note_on_c, 9, 51, 0
11, 226520, Note_on_c, 9, 51, 88
11, 226588, Note_on_c, 9, 51, 0
11, 226904, Note_on_c, 9, 37, 70
11, 226904, Note_on_c, 9, 44, 70
11, 226908, Note_on_c, 9, 51, 98
11, 226968, Note_on_c, 9, 44, 0
11, 226972, Note_on_c, 9, 51, 0
11, 226972, Note_on_c, 9, 37, 0
11, 227196, Note_on_c, 9, 51, 68
11, 227248, Note_on_c, 9, 51, 0
11, 227288, Note_on_c, 9, 51, 88
11, 227356, Note_on_c, 9, 51, 0
11, 227672, Note_on_c, 9, 44, 70
11, 227672, Note_on_c, 9, 51, 108
11, 227736, Note_on_c, 9, 44, 0
11, 227740, Note_on_c, 9, 51, 0
11, 228056, Note_on_c, 9, 51, 88
11, 228124, Note_on_c, 9, 51, 0
11, 228436, Note_on_c, 9, 44, 70
11, 228440, Note_on_c, 9, 37, 70
11, 228440, Note_on_c, 9, 51, 108
11, 228504, Note_on_c, 9, 37, 0
11, 228504, Note_on_c, 9, 44, 0
11, 228508, Note_on_c, 9, 51, 0
11, 228824, Note_on_c, 9, 51, 88
11, 228892, Note_on_c, 9, 51, 0
11, 229208, Note_on_c, 9, 44, 70
11, 229212, Note_on_c, 9, 51, 98
11, 229272, Note_on_c, 9, 44, 0
11, 229276, Note_on_c, 9, 51, 0
11, 229492, Note_on_c, 9, 51, 68
11, 229564, Note_on_c, 9, 51, 0
11, 229592, Note_on_c, 9, 51, 88
11, 229602, Note_on_c, 9, 40, 27
11, 229636, Note_on_c, 9, 40, 0
11, 229660, Note_on_c, 9, 51, 0
11, 229880, Note_on_c, 9, 40, 32
11, 229910, Note_on_c, 9, 40, 0
11, 229976, Note_on_c, 9, 44, 70
11, 229980, Note_on_c, 9, 37, 70
11, 229980, Note_on_c, 9, 51, 98
11, 230000, Note_on_c, 9, 35, 44
11, 230036, Note_on_c, 9, 37, 0
11, 230036, Note_on_c, 9, 44, 0
11, 230048, Note_on_c, 9, 51, 0
11, 230092, Note_on_c, 9, 35, 0
11, 230238, Note_on_c, 9, 35, 66
11, 230260, Note_on_c, 9, 51, 68
11, 230310, Note_on_c, 9, 35, 0
11, 230332, Note_on_c, 9, 51, 0
11, 230360, Note_on_c, 9, 51, 88
11, 230428, Note_on_c, 9, 51, 0
11, 230744, Note_on_c, 9, 44, 70
11, 230744, Note_on_c, 9, 51, 108
11, 230808, Note_on_c, 9, 44, 0
11, 230812, Note_on_c, 9, 51, 0
11, 231054, Note_on_c, 9, 40, 17
11, 231080, Note_on_c, 9, 40, 0
11, 231132, Note_on_c, 9, 51, 88
11, 231196, Note_on_c, 9, 51, 0
11, 231198, Note_on_c, 9, 40, 26
11, 231232, Note_on_c, 9, 40, 0
11, 231406, Note_on_c, 9, 40, 40
11, 231432, Note_on_c, 9, 40, 0
11, 231512, Note_on_c, 9, 44, 70
11, 231516, Note_on_c, 9, 37, 70
11, 231516, Note_on_c, 9, 51, 108
11, 231552, Note_on_c, 9, 35, 24
11, 231576, Note_on_c, 9, 44, 0
11, 231580, Note_on_c, 9, 37, 0
11, 231580, Note_on_c, 9, 51, 0
11, 231646, Note_on_c, 9, 35, 0
11, 231780, Note_on_c, 9, 35, 64
11, 231854, Note_on_c, 9, 35, 0
11, 231896, Note_on_c, 9, 51, 88
11, 231964, Note_on_c, 9, 51, 0
11, 232280, Note_on_c, 9, 44, 70
11, 232280, Note_on_c, 9, 51, 98
11, 232344, Note_on_c, 9, 44, 0
11, 232348, Note_on_c, 9, 51, 0
11, 232572, Note_on_c, 9, 51, 68
11, 232632, Note_on_c, 9, 51, 0
11, 232664, Note_on_c, 9, 51, 88
11, 232732, Note_on_c, 9, 51, 0
11, 233048, Note_on_c, 9, 44, 70
11, 233048, Note_on_c, 9, 51, 98
11, 233048, Note_on_c, 9, 37, 70
11, 233112, Note_on_c, 9, 37, 0
11, 233112, Note_on_c, 9, 44, 0
11, 233116, Note_on_c, 9, 51, 0
11, 233340, Note_on_c, 9, 51, 68
11, 233404, Note_on_c, 9, 51, 0
11, 233432, Note_on_c, 9, 51, 88
11, 233500, Note_on_c, 9, 51, 0
11, 233816, Note_on_c, 9, 44, 70
11, 233816, Note_on_c, 9, 51, 98
11, 233880, Note_on_c, 9, 44, 0
11, 233884, Note_on_c, 9, 51, 0
11, 234100, Note_on_c, 9, 51, 68
11, 234164, Note_on_c, 9, 51, 0
11, 234200, Note_on_c, 9, 51, 88
11, 234268, Note_on_c, 9, 51, 0
11, 234584, Note_on_c, 9, 37, 60
11, 234584, Note_on_c, 9, 44, 70
11, 234588, Note_on_c, 9, 51, 98
11, 234644, Note_on_c, 9, 44, 0
11, 234644, Note_on_c, 9, 37, 0
11, 234652, Note_on_c, 9, 51, 0
11, 234868, Note_on_c, 9, 51, 68
11, 234932, Note_on_c, 9, 51, 0
11, 234968, Note_on_c, 9, 51, 88
11, 235036, Note_on_c, 9, 51, 0
11, 235352, Note_on_c, 9, 44, 70
11, 235352, Note_on_c, 9, 51, 98
11, 235416, Note_on_c, 9, 44, 0
11, 235420, Note_on_c, 9, 51, 0
11, 235632, Note_on_c, 9, 51, 68
11, 235708, Note_on_c, 9, 51, 0
11, 235736, Note_on_c, 9, 51, 88
11, 235804, Note_on_c, 9, 51, 0
11, 236016, Note_on_c, 9, 31, 38
11, 236024, Note_on_c, 9, 38, 20
11, 236082, Note_on_c, 9, 31, 0
11, 236084, Note_on_c, 9, 38, 0
11, 236118, Note_on_c, 9, 37, 69
11, 236120, Note_on_c, 9, 38, 40
11, 236120, Note_on_c, 9, 44, 70
11, 236124, Note_on_c, 9, 37, 70
11, 236124, Note_on_c, 9, 51, 98
11, 236184, Note_on_c, 9, 44, 0
11, 236184, Note_on_c, 9, 38, 0
11, 236188, Note_on_c, 9, 51, 0
11, 236188, Note_on_c, 9, 37, 0
11, 236380, Note_on_c, 9, 57, 42
11, 236396, Note_on_c, 9, 35, 83
11, 236406, Note_on_c, 9, 37, 0
11, 236412, Note_on_c, 9, 51, 68
11, 236468, Note_on_c, 9, 51, 0
11, 236504, Note_on_c, 9, 51, 88
11, 236572, Note_on_c, 9, 51, 0
11, 236888, Note_on_c, 9, 44, 70
11, 236888, Note_on_c, 9, 51, 98
11, 236952, Note_on_c, 9, 44, 0
11, 236956, Note_on_c, 9, 51, 0
11, 237180, Note_on_c, 9, 51, 68
11, 237232, Note_on_c, 9, 51, 0
11, 237272, Note_on_c, 9, 51, 88
11, 237302, Note_on_c, 9, 57, 0
11, 237340, Note_on_c, 9, 51, 0
11, 237546, Note_on_c, 9, 35, 0
11, 237552, Note_on_c, 9, 37, 45
11, 237638, Note_on_c, 9, 37, 0
11, 237656, Note_on_c, 9, 44, 70
11, 237656, Note_on_c, 9, 37, 70
11, 237660, Note_on_c, 9, 51, 98
11, 237674, Note_on_c, 9, 35, 96
11, 237720, Note_on_c, 9, 37, 0
11, 237720, Note_on_c, 9, 44, 0
11, 237724, Note_on_c, 9, 51, 0
11, 237948, Note_on_c, 9, 51, 68
11, 237966, Note_on_c, 9, 35, 0
11, 238012, Note_on_c, 9, 51, 0
11, 238040, Note_on_c, 9, 51, 88
11, 238108, Note_on_c, 9, 51, 0
11, 238424, Note_on_c, 9, 51, 98
11, 238424, Note_on_c, 9, 44, 70
11, 238488, Note_on_c, 9, 44, 0
11, 238492, Note_on_c, 9, 51, 0
11, 238716, Note_on_c, 9, 51, 68
11, 238780, Note_on_c, 9, 51, 0
11, 238808, Note_on_c, 9, 51, 88
11, 238876, Note_on_c, 9, 51, 0
11, 239192, Note_on_c, 9, 44, 70
11, 239192, Note_on_c, 9, 37, 70
11, 239196, Note_on_c, 9, 51, 98
11, 239200, Note_on_c, 9, 35, 48
11, 239256, Note_on_c, 9, 37, 0
11, 239256, Note_on_c, 9, 44, 0
11, 239260, Note_on_c, 9, 51, 0
11, 239378, Note_on_c, 9, 35, 0
11, 239442, Note_on_c, 9, 35, 56
11, 239476, Note_on_c, 9, 51, 68
11, 239492, Note_on_c, 9, 35, 0
11, 239548, Note_on_c, 9, 51, 0
11, 239576, Note_on_c, 9, 51, 88
11, 239644, Note_on_c, 9, 51, 0
11, 239960, Note_on_c, 9, 44, 70
11, 239960, Note_on_c, 9, 51, 98
11, 240024, Note_on_c, 9, 44, 0
11, 240028, Note_on_c, 9, 51, 0
11, 240240, Note_on_c, 9, 51, 68
11, 240316, Note_on_c, 9, 51, 0
11, 240344, Note_on_c, 9, 51, 88
11, 240412, Note_on_c, 9, 51, 0
11, 240728, Note_on_c, 9, 44, 70
11, 240732, Note_on_c, 9, 37, 70
11, 240732, Note_on_c, 9, 51, 98
11, 240792, Note_on_c, 9, 44, 0
11, 240796, Note_on_c, 9, 51, 0
11, 240796, Note_on_c, 9, 37, 0
11, 241016, Note_on_c, 9, 35, 37
11, 241020, Note_on_c, 9, 51, 68
11, 241052, Note_on_c, 9, 35, 0
11, 241076, Note_on_c, 9, 51, 0
11, 241112, Note_on_c, 9, 51, 88
11, 241134, Note_on_c, 9, 35, 36
11, 241180, Note_on_c, 9, 51, 0
11, 241242, Note_on_c, 9, 35, 0
11, 241416, Note_on_c, 9, 35, 37
11, 241456, Note_on_c, 9, 35, 0
11, 241496, Note_on_c, 9, 44, 70
11, 241496, Note_on_c, 9, 51, 108
11, 241560, Note_on_c, 9, 44, 0
11, 241564, Note_on_c, 9, 51, 0
11, 241880, Note_on_c, 9, 51, 88
11, 241948, Note_on_c, 9, 51, 0
11, 242160, Note_on_c, 9, 40, 42
11, 242196, Note_on_c, 9, 40, 0
11, 242264, Note_on_c, 9, 44, 70
11, 242264, Note_on_c, 9, 37, 70
11, 242268, Note_on_c, 9, 51, 108
11, 242308, Note_on_c, 9, 35, 24
11, 242328, Note_on_c, 9, 44, 0
11, 242332, Note_on_c, 9, 37, 0
11, 242332, Note_on_c, 9, 51, 0
11, 242462, Note_on_c, 9, 35, 0
11, 242538, Note_on_c, 9, 40, 42
11, 242566, Note_on_c, 9, 40, 0
11, 242644, Note_on_c, 9, 51, 88
11, 242658, Note_on_c, 9, 35, 44
11, 242716, Note_on_c, 9, 51, 0
11, 242920, Note_on_c, 9, 35, 0
11, 243032, Note_on_c, 9, 44, 70
11, 243036, Note_on_c, 9, 51, 108
11, 243096, Note_on_c, 9, 44, 0
11, 243100, Note_on_c, 9, 51, 0
11, 243324, Note_on_c, 9, 40, 21
11, 243356, Note_on_c, 9, 40, 0
11, 243420, Note_on_c, 9, 51, 88
11, 243438, Note_on_c, 9, 40, 23
11, 243484, Note_on_c, 9, 51, 0
11, 243536, Note_on_c, 9, 40, 0
11, 243800, Note_on_c, 9, 44, 70
11, 243800, Note_on_c, 9, 37, 70
11, 243800, Note_on_c, 9, 51, 108
11, 243864, Note_on_c, 9, 37, 0
11, 243864, Note_on_c, 9, 44, 0
11, 243868, Note_on_c, 9, 51, 0
11, 244092, Note_on_c, 9, 40, 23
11, 244128, Note_on_c, 9, 40, 0
11, 244184, Note_on_c, 9, 51, 88
11, 244206, Note_on_c, 9, 40, 27
11, 244252, Note_on_c, 9, 51, 0
11, 244374, Note_on_c, 9, 40, 0
11, 244568, Note_on_c, 9, 44, 70
11, 244568, Note_on_c, 9, 51, 108
11, 244632, Note_on_c, 9, 44, 0
11, 244636, Note_on_c, 9, 51, 0
11, 244952, Note_on_c, 9, 51, 88
11, 244958, Note_on_c, 9, 40, 24
11, 245020, Note_on_c, 9, 51, 0
11, 245062, Note_on_c, 9, 40, 0
11, 245336, Note_on_c, 9, 51, 108
11, 245336, Note_on_c, 9, 37, 70
11, 245336, Note_on_c, 9, 44, 70
11, 245400, Note_on_c, 9, 44, 0
11, 245404, Note_on_c, 9, 37, 0
11, 245404, Note_on_c, 9, 51, 0
11, 245626, Note_on_c, 9, 40, 25
11, 245660, Note_on_c, 9, 40, 0
11, 245720, Note_on_c, 9, 51, 88
11, 245728, Note_on_c, 9, 40, 27
11, 245788, Note_on_c, 9, 51, 0
11, 245874, Note_on_c, 9, 40, 0
11, 245980, Note_on_c, 9, 40, 37
11, 246008, Note_on_c, 9, 40, 0
11, 246098, Note_on_c, 9, 40, 36
11, 246104, Note_on_c, 9, 44, 70
11, 246108, Note_on_c, 9, 51, 98
11, 246144, Note_on_c, 9, 40, 0
11, 246168, Note_on_c, 9, 44, 0
11, 246172, Note_on_c, 9, 51, 0
11, 246352, Note_on_c, 9, 40, 44
11, 246396, Note_on_c, 9, 51, 68
11, 246410, Note_on_c, 9, 40, 0
11, 246452, Note_on_c, 9, 51, 0
11, 246488, Note_on_c, 9, 51, 88
11, 246488, Note_on_c, 9, 40, 31
11, 246524, Note_on_c, 9, 40, 0
11, 246556, Note_on_c, 9, 51, 0
11, 246724, Note_on_c, 9, 40, 40
11, 246770, Note_on_c, 9, 40, 0
11, 246780, Note_on_c, 9, 38, 20
11, 246832, Note_on_c, 9, 38, 0
11, 246864, Note_on_c, 9, 40, 25
11, 246872, Note_on_c, 9, 38, 40
11, 246872, Note_on_c, 9, 44, 70
11, 246876, Note_on_c, 9, 37, 70
11, 246876, Note_on_c, 9, 51, 98
11, 246910, Note_on_c, 9, 40, 0
11, 246936, Note_on_c, 9, 38, 0
11, 246936, Note_on_c, 9, 44, 0
11, 246940, Note_on_c, 9, 37, 0
11, 246940, Note_on_c, 9, 51, 0
11, 247106, Note_on_c, 9, 37, 57
11, 247164, Note_on_c, 9, 51, 68
11, 247182, Note_on_c, 9, 37, 0
11, 247224, Note_on_c, 9, 51, 0
11, 247238, Note_on_c, 9, 35, 91
11, 247240, Note_on_c, 9, 57, 46
11, 247256, Note_on_c, 9, 51, 88
11, 247324, Note_on_c, 9, 51, 0
11, 247376, Note_on_c, 9, 57, 0
11, 247410, Note_on_c, 9, 35, 0
11, 248936, Control_c, 9, 123, 0
11, 248936, Control_c, 9, 64, 0
11, 248936, Control_c, 9, 123, 0
11, 248936, Control_c, 9, 64, 0
11, 248936, Control_c, 9, 123, 0
11, 248936, Control_c, 9, 64, 0
11, 248936, Program_c, 9, 0
11, 248936, Control_c, 9, 123, 0
11, 248936, Control_c, 9, 64, 0
11, 248936, Control_c, 9, 123, 0
11, 248936, Control_c, 9, 64, 0
11, 248936, Control_c, 9, 123, 0
11, 248936, Control_c, 9, 64, 0
11, 248936, Control_c, 9, 123, 0
11, 248936, Control_c, 9, 64, 0
11, 248936, Control_c, 9, 123, 0
11, 248936, Control_c, 9, 64, 0
11, 248936, Control_c, 9, 123, 0
11, 248936, Control_c, 9, 64, 0
11, 248936, Control_c, 9, 123, 0
11, 248936, Control_c, 9, 64, 0
11, 248936, End_track
0, 0, End_of_file
