0, 0, Header, 1, 5, 384
1, 0, Start_track
1, 0, Title_t, "GoodBait"
1, 0, Text_t, "Sequenced by Doug McKenzie dougmck@pipeline.com.au. This is a quartet - a piano trio, but with added guitar. If the drums don't sound good on your system, mute them and just have a guitar/bass/piano trio - as Oscar Peterson's early trios were set up.\012"
1, 0, Text_t, "The guitar just plays 2 note 'chords' - usually 'guide tones'  (i.e. the 3rd and 7th of the chord) so that any voicing or extension to chords played by the piano player is not likely to clash with the guitarists. \012"
1, 0, Text_t, "I have added 'Markers' that may be of interest especially to piano players. They mark and explain any melodic or harmonic or stylistic feature of the improvisation. They are best viewed within 'Cakewalk' or 'Sonar' (any versions) as they can be 'clicked'\012"
1, 0, System_exclusive, 5, 126, 127, 9, 1, 247
1, 0, System_exclusive, 8, 67, 115, 1, 17, 15, 89, 0, 247
1, 0, System_exclusive, 5, 126, 127, 9, 1, 247
1, 0, Time_signature, 4, 2, 24, 8
1, 0, Key_signature, -2, "major"
1, 0, Tempo, 545455
1, 51416, Marker_t, "Upper and lower n'bours on Cm triad"
1, 52960, Marker_t, "F9 notes arpeggiated with final chromatic connection to the 7th (Eb)"
1, 62976, Marker_t, "A strong phase on Bb runs into an E pentatonic run before resolving smoothly back"
1, 74826, Marker_t, "An easy reached 10th - Eb and Gb - 'Basie style' in the upper treble register."
1, 100048, Marker_t, "Gm triad with upper & lower neighbours"
1, 102072, Marker_t, "F Half/whole diminisfed scale on F7"
1, 110910, Marker_t, "Strong phrase is played twice to establish it - then 'side -shifted' "
1, 128202, Marker_t, "'Locked Hands' style block chords descending in minor 3rds - with chromatic Left Hand connections"
1, 136704, Marker_t, "Strongly accented triplets - each in groups of three diatonic tones - then upper/l'ower neighbours."
1, 151112, Marker_t, "Bb blues scale figure"
1, 152088, Marker_t, "Descending 4 or 5 note arpeggios"
1, 161280, Marker_t, "'Locked Hands' style - diiminished chords above and below inversions of the chord"
1, 166060, Marker_t, "Fast ascending phrase - based on Eb scale 3rds with a lower chromatic neighbour"
1, 172716, Marker_t, "More 'Basie' style 10ths in treble"
1, 175896, Marker_t, "Notes in the phrase are played rhythmically twice."
1, 178872, Marker_t, "Ascent begins in accented 16th notes but becomes a 'fast-as-you-can' Ab Maj scale to finish on the Bb 'target' note"
1, 185856, Marker_t, "More bluesy 'Oscar Peterson-ish' phrases"
1, 198042, Marker_t, "Final chorus"
1, 198042, End_track
2, 0, Start_track
2, 0, Title_t, "Good Bait"
2, 0, Program_c, 1, 32
2, 0, Control_c, 1, 7, 101
2, 0, Program_c, 1, 32
2, 1496, Note_on_c, 1, 34, 81
2, 1880, Note_on_c, 1, 41, 80
2, 1948, Note_on_c, 1, 34, 0
2, 2264, Note_on_c, 1, 41, 0
2, 2264, Note_on_c, 1, 43, 87
2, 2476, Note_on_c, 1, 43, 0
2, 2548, Note_on_c, 1, 43, 80
2, 2648, Note_on_c, 1, 50, 73
2, 2668, Note_on_c, 1, 43, 0
2, 3032, Note_on_c, 1, 50, 0
2, 3032, Note_on_c, 1, 36, 91
2, 3416, Note_on_c, 1, 39, 88
2, 3468, Note_on_c, 1, 36, 0
2, 3764, Note_on_c, 1, 39, 0
2, 3800, Note_on_c, 1, 41, 87
2, 4000, Note_on_c, 1, 41, 0
2, 4088, Note_on_c, 1, 41, 80
2, 4184, Note_on_c, 1, 48, 73
2, 4188, Note_on_c, 1, 41, 0
2, 4568, Note_on_c, 1, 48, 0
2, 4568, Note_on_c, 1, 50, 78
2, 4952, Note_on_c, 1, 45, 77
2, 5004, Note_on_c, 1, 50, 0
2, 5332, Note_on_c, 1, 45, 0
2, 5336, Note_on_c, 1, 43, 86
2, 5696, Note_on_c, 1, 43, 0
2, 5720, Note_on_c, 1, 35, 80
2, 6096, Note_on_c, 1, 35, 0
2, 6100, Note_on_c, 1, 48, 78
2, 6488, Note_on_c, 1, 43, 77
2, 6532, Note_on_c, 1, 48, 0
2, 6872, Note_on_c, 1, 43, 0
2, 6872, Note_on_c, 1, 41, 81
2, 7256, Note_on_c, 1, 48, 80
2, 7324, Note_on_c, 1, 41, 0
2, 7640, Note_on_c, 1, 48, 0
2, 7640, Note_on_c, 1, 41, 86
2, 8004, Note_on_c, 1, 41, 0
2, 8024, Note_on_c, 1, 33, 80
2, 8408, Note_on_c, 1, 33, 0
2, 8408, Note_on_c, 1, 46, 78
2, 8792, Note_on_c, 1, 41, 77
2, 8844, Note_on_c, 1, 46, 0
2, 9176, Note_on_c, 1, 41, 0
2, 9176, Note_on_c, 1, 39, 87
2, 9376, Note_on_c, 1, 39, 0
2, 9468, Note_on_c, 1, 39, 80
2, 9560, Note_on_c, 1, 46, 73
2, 9568, Note_on_c, 1, 39, 0
2, 9940, Note_on_c, 1, 46, 0
2, 9944, Note_on_c, 1, 44, 98
2, 10232, Note_on_c, 1, 32, 91
2, 10236, Note_on_c, 1, 44, 0
2, 10324, Note_on_c, 1, 32, 0
2, 10328, Note_on_c, 1, 44, 100
2, 10704, Note_on_c, 1, 44, 0
2, 10708, Note_on_c, 1, 38, 72
2, 11000, Note_on_c, 1, 38, 0
2, 11004, Note_on_c, 1, 26, 69
2, 11028, Note_on_c, 1, 26, 0
2, 11096, Note_on_c, 1, 43, 72
2, 11384, Note_on_c, 1, 43, 0
2, 11388, Note_on_c, 1, 31, 69
2, 11412, Note_on_c, 1, 31, 0
2, 11480, Note_on_c, 1, 36, 72
2, 11768, Note_on_c, 1, 36, 0
2, 11772, Note_on_c, 1, 24, 69
2, 11796, Note_on_c, 1, 24, 0
2, 11864, Note_on_c, 1, 41, 72
2, 12148, Note_on_c, 1, 41, 0
2, 12156, Note_on_c, 1, 29, 69
2, 12180, Note_on_c, 1, 29, 0
2, 12248, Note_on_c, 1, 34, 93
2, 12632, Note_on_c, 1, 34, 0
2, 12632, Note_on_c, 1, 34, 100
2, 13016, Note_on_c, 1, 34, 0
2, 13016, Note_on_c, 1, 41, 81
2, 13400, Note_on_c, 1, 48, 80
2, 13472, Note_on_c, 1, 41, 0
2, 13784, Note_on_c, 1, 48, 0
2, 13784, Note_on_c, 1, 34, 82
2, 13996, Note_on_c, 1, 34, 0
2, 14076, Note_on_c, 1, 34, 94
2, 14164, Note_on_c, 1, 34, 0
2, 14168, Note_on_c, 1, 42, 75
2, 14548, Note_on_c, 1, 42, 0
2, 14552, Note_on_c, 1, 43, 98
2, 14932, Note_on_c, 1, 43, 0
2, 14936, Note_on_c, 1, 37, 105
2, 15316, Note_on_c, 1, 37, 0
2, 15320, Note_on_c, 1, 36, 87
2, 15520, Note_on_c, 1, 36, 0
2, 15612, Note_on_c, 1, 36, 80
2, 15700, Note_on_c, 1, 43, 73
2, 15712, Note_on_c, 1, 36, 0
2, 16088, Note_on_c, 1, 43, 0
2, 16088, Note_on_c, 1, 41, 98
2, 16376, Note_on_c, 1, 29, 91
2, 16380, Note_on_c, 1, 41, 0
2, 16472, Note_on_c, 1, 29, 0
2, 16472, Note_on_c, 1, 41, 100
2, 16856, Note_on_c, 1, 41, 0
2, 16856, Note_on_c, 1, 38, 91
2, 17240, Note_on_c, 1, 41, 88
2, 17288, Note_on_c, 1, 38, 0
2, 17588, Note_on_c, 1, 41, 0
2, 17624, Note_on_c, 1, 43, 87
2, 17828, Note_on_c, 1, 43, 0
2, 17904, Note_on_c, 1, 43, 80
2, 18008, Note_on_c, 1, 50, 73
2, 18012, Note_on_c, 1, 43, 0
2, 18392, Note_on_c, 1, 50, 0
2, 18392, Note_on_c, 1, 36, 86
2, 18756, Note_on_c, 1, 36, 0
2, 18776, Note_on_c, 1, 40, 80
2, 19156, Note_on_c, 1, 40, 0
2, 19160, Note_on_c, 1, 41, 82
2, 19372, Note_on_c, 1, 41, 0
2, 19452, Note_on_c, 1, 41, 94
2, 19540, Note_on_c, 1, 41, 0
2, 19544, Note_on_c, 1, 40, 75
2, 19920, Note_on_c, 1, 40, 0
2, 19928, Note_on_c, 1, 41, 81
2, 20308, Note_on_c, 1, 48, 80
2, 20380, Note_on_c, 1, 41, 0
2, 20696, Note_on_c, 1, 48, 0
2, 20696, Note_on_c, 1, 34, 86
2, 21068, Note_on_c, 1, 34, 0
2, 21080, Note_on_c, 1, 38, 80
2, 21464, Note_on_c, 1, 38, 0
2, 21464, Note_on_c, 1, 39, 91
2, 21848, Note_on_c, 1, 43, 88
2, 21896, Note_on_c, 1, 39, 0
2, 22196, Note_on_c, 1, 43, 0
2, 22232, Note_on_c, 1, 44, 86
2, 22596, Note_on_c, 1, 44, 0
2, 22616, Note_on_c, 1, 37, 80
2, 23000, Note_on_c, 1, 37, 0
2, 23000, Note_on_c, 1, 38, 72
2, 23288, Note_on_c, 1, 38, 0
2, 23292, Note_on_c, 1, 26, 69
2, 23308, Note_on_c, 1, 26, 0
2, 23384, Note_on_c, 1, 43, 70
2, 23768, Note_on_c, 1, 43, 0
2, 23768, Note_on_c, 1, 36, 72
2, 24056, Note_on_c, 1, 36, 0
2, 24060, Note_on_c, 1, 24, 69
2, 24084, Note_on_c, 1, 24, 0
2, 24152, Note_on_c, 1, 41, 70
2, 24532, Note_on_c, 1, 41, 0
2, 24536, Note_on_c, 1, 34, 98
2, 24916, Note_on_c, 1, 34, 0
2, 24920, Note_on_c, 1, 35, 105
2, 25296, Note_on_c, 1, 35, 0
2, 25300, Note_on_c, 1, 34, 93
2, 25688, Note_on_c, 1, 34, 0
2, 25688, Note_on_c, 1, 34, 100
2, 26072, Note_on_c, 1, 34, 0
2, 26072, Note_on_c, 1, 39, 93
2, 26456, Note_on_c, 1, 39, 0
2, 26456, Note_on_c, 1, 39, 100
2, 26840, Note_on_c, 1, 39, 0
2, 26840, Note_on_c, 1, 36, 91
2, 27224, Note_on_c, 1, 40, 88
2, 27276, Note_on_c, 1, 36, 0
2, 27572, Note_on_c, 1, 40, 0
2, 27608, Note_on_c, 1, 41, 87
2, 27808, Note_on_c, 1, 41, 0
2, 27896, Note_on_c, 1, 41, 80
2, 27992, Note_on_c, 1, 48, 73
2, 27996, Note_on_c, 1, 41, 0
2, 28376, Note_on_c, 1, 48, 0
2, 28376, Note_on_c, 1, 34, 86
2, 28668, Note_on_c, 1, 29, 62
2, 28720, Note_on_c, 1, 29, 0
2, 28740, Note_on_c, 1, 34, 0
2, 28760, Note_on_c, 1, 41, 79
2, 29044, Note_on_c, 1, 41, 0
2, 29052, Note_on_c, 1, 29, 64
2, 29100, Note_on_c, 1, 29, 0
2, 29144, Note_on_c, 1, 43, 86
2, 29436, Note_on_c, 1, 38, 62
2, 29496, Note_on_c, 1, 38, 0
2, 29504, Note_on_c, 1, 43, 0
2, 29528, Note_on_c, 1, 50, 79
2, 29812, Note_on_c, 1, 50, 0
2, 29820, Note_on_c, 1, 38, 64
2, 29868, Note_on_c, 1, 38, 0
2, 29908, Note_on_c, 1, 36, 98
2, 30200, Note_on_c, 1, 24, 91
2, 30204, Note_on_c, 1, 36, 0
2, 30296, Note_on_c, 1, 24, 0
2, 30296, Note_on_c, 1, 36, 100
2, 30680, Note_on_c, 1, 36, 0
2, 30680, Note_on_c, 1, 41, 93
2, 31064, Note_on_c, 1, 41, 0
2, 31064, Note_on_c, 1, 41, 100
2, 31448, Note_on_c, 1, 41, 0
2, 31448, Note_on_c, 1, 34, 93
2, 31832, Note_on_c, 1, 34, 0
2, 31832, Note_on_c, 1, 34, 100
2, 32216, Note_on_c, 1, 34, 0
2, 32216, Note_on_c, 1, 34, 93
2, 32600, Note_on_c, 1, 34, 0
2, 32600, Note_on_c, 1, 34, 100
2, 32984, Note_on_c, 1, 34, 0
2, 32984, Note_on_c, 1, 39, 98
2, 33368, Note_on_c, 1, 39, 0
2, 33368, Note_on_c, 1, 45, 105
2, 33748, Note_on_c, 1, 45, 0
2, 33752, Note_on_c, 1, 44, 93
2, 34132, Note_on_c, 1, 44, 0
2, 34136, Note_on_c, 1, 44, 100
2, 34516, Note_on_c, 1, 44, 0
2, 34520, Note_on_c, 1, 37, 91
2, 34900, Note_on_c, 1, 41, 88
2, 34948, Note_on_c, 1, 37, 0
2, 35256, Note_on_c, 1, 41, 0
2, 35288, Note_on_c, 1, 43, 70
2, 35672, Note_on_c, 1, 43, 0
2, 35672, Note_on_c, 1, 36, 72
2, 35956, Note_on_c, 1, 36, 0
2, 35964, Note_on_c, 1, 24, 69
2, 35988, Note_on_c, 1, 24, 0
2, 36056, Note_on_c, 1, 41, 72
2, 36340, Note_on_c, 1, 41, 0
2, 36348, Note_on_c, 1, 29, 69
2, 36372, Note_on_c, 1, 29, 0
2, 36440, Note_on_c, 1, 34, 72
2, 36724, Note_on_c, 1, 34, 0
2, 36732, Note_on_c, 1, 22, 69
2, 36756, Note_on_c, 1, 22, 0
2, 36824, Note_on_c, 1, 39, 93
2, 37208, Note_on_c, 1, 39, 0
2, 37208, Note_on_c, 1, 39, 100
2, 37592, Note_on_c, 1, 39, 0
2, 37592, Note_on_c, 1, 41, 87
2, 37792, Note_on_c, 1, 41, 0
2, 37880, Note_on_c, 1, 41, 80
2, 37976, Note_on_c, 1, 48, 73
2, 37980, Note_on_c, 1, 41, 0
2, 38356, Note_on_c, 1, 48, 0
2, 38360, Note_on_c, 1, 34, 82
2, 38572, Note_on_c, 1, 34, 0
2, 38652, Note_on_c, 1, 34, 94
2, 38740, Note_on_c, 1, 34, 0
2, 38744, Note_on_c, 1, 42, 75
2, 39124, Note_on_c, 1, 42, 0
2, 39128, Note_on_c, 1, 43, 86
2, 39420, Note_on_c, 1, 38, 62
2, 39484, Note_on_c, 1, 38, 0
2, 39496, Note_on_c, 1, 43, 0
2, 39508, Note_on_c, 1, 50, 79
2, 39796, Note_on_c, 1, 50, 0
2, 39804, Note_on_c, 1, 38, 64
2, 39852, Note_on_c, 1, 38, 0
2, 39896, Note_on_c, 1, 36, 91
2, 40280, Note_on_c, 1, 39, 88
2, 40320, Note_on_c, 1, 36, 0
2, 40628, Note_on_c, 1, 39, 0
2, 40664, Note_on_c, 1, 41, 87
2, 40948, Note_on_c, 1, 29, 64
2, 41012, Note_on_c, 1, 41, 0
2, 41048, Note_on_c, 1, 29, 0
2, 41052, Note_on_c, 1, 39, 87
2, 41432, Note_on_c, 1, 39, 0
2, 41432, Note_on_c, 1, 38, 86
2, 41716, Note_on_c, 1, 33, 62
2, 41780, Note_on_c, 1, 33, 0
2, 41804, Note_on_c, 1, 38, 0
2, 41816, Note_on_c, 1, 45, 79
2, 42096, Note_on_c, 1, 45, 0
2, 42096, Note_on_c, 1, 33, 64
2, 42156, Note_on_c, 1, 33, 0
2, 42200, Note_on_c, 1, 43, 86
2, 42564, Note_on_c, 1, 43, 0
2, 42584, Note_on_c, 1, 35, 80
2, 42968, Note_on_c, 1, 35, 0
2, 42968, Note_on_c, 1, 36, 81
2, 43352, Note_on_c, 1, 43, 80
2, 43424, Note_on_c, 1, 36, 0
2, 43732, Note_on_c, 1, 43, 0
2, 43736, Note_on_c, 1, 41, 86
2, 44028, Note_on_c, 1, 36, 62
2, 44088, Note_on_c, 1, 36, 0
2, 44096, Note_on_c, 1, 41, 0
2, 44120, Note_on_c, 1, 48, 79
2, 44404, Note_on_c, 1, 48, 0
2, 44412, Note_on_c, 1, 36, 64
2, 44460, Note_on_c, 1, 36, 0
2, 44500, Note_on_c, 1, 41, 93
2, 44888, Note_on_c, 1, 41, 0
2, 44888, Note_on_c, 1, 41, 100
2, 45272, Note_on_c, 1, 41, 0
2, 45272, Note_on_c, 1, 34, 82
2, 45492, Note_on_c, 1, 34, 0
2, 45556, Note_on_c, 1, 34, 94
2, 45652, Note_on_c, 1, 34, 0
2, 45656, Note_on_c, 1, 38, 75
2, 46040, Note_on_c, 1, 38, 0
2, 46040, Note_on_c, 1, 39, 91
2, 46424, Note_on_c, 1, 43, 88
2, 46476, Note_on_c, 1, 39, 0
2, 46772, Note_on_c, 1, 43, 0
2, 46808, Note_on_c, 1, 44, 98
2, 47096, Note_on_c, 1, 32, 91
2, 47100, Note_on_c, 1, 44, 0
2, 47192, Note_on_c, 1, 32, 0
2, 47192, Note_on_c, 1, 44, 100
2, 47572, Note_on_c, 1, 44, 0
2, 47576, Note_on_c, 1, 38, 72
2, 47864, Note_on_c, 1, 38, 0
2, 47868, Note_on_c, 1, 26, 69
2, 47892, Note_on_c, 1, 26, 0
2, 47960, Note_on_c, 1, 43, 72
2, 48248, Note_on_c, 1, 43, 0
2, 48252, Note_on_c, 1, 31, 69
2, 48276, Note_on_c, 1, 31, 0
2, 48344, Note_on_c, 1, 36, 72
2, 48632, Note_on_c, 1, 36, 0
2, 48636, Note_on_c, 1, 24, 69
2, 48660, Note_on_c, 1, 24, 0
2, 48728, Note_on_c, 1, 41, 70
2, 49104, Note_on_c, 1, 41, 0
2, 49108, Note_on_c, 1, 34, 86
2, 49484, Note_on_c, 1, 34, 0
2, 49496, Note_on_c, 1, 40, 80
2, 49880, Note_on_c, 1, 40, 0
2, 49880, Note_on_c, 1, 41, 87
2, 50088, Note_on_c, 1, 41, 0
2, 50168, Note_on_c, 1, 41, 80
2, 50264, Note_on_c, 1, 48, 73
2, 50284, Note_on_c, 1, 41, 0
2, 50648, Note_on_c, 1, 48, 0
2, 50648, Note_on_c, 1, 34, 86
2, 50932, Note_on_c, 1, 29, 62
2, 50996, Note_on_c, 1, 29, 0
2, 51020, Note_on_c, 1, 34, 0
2, 51032, Note_on_c, 1, 41, 79
2, 51316, Note_on_c, 1, 41, 0
2, 51316, Note_on_c, 1, 29, 64
2, 51372, Note_on_c, 1, 29, 0
2, 51416, Note_on_c, 1, 43, 93
2, 51800, Note_on_c, 1, 43, 0
2, 51800, Note_on_c, 1, 43, 100
2, 52184, Note_on_c, 1, 43, 0
2, 52184, Note_on_c, 1, 36, 87
2, 52384, Note_on_c, 1, 36, 0
2, 52476, Note_on_c, 1, 36, 80
2, 52568, Note_on_c, 1, 43, 73
2, 52572, Note_on_c, 1, 36, 0
2, 52948, Note_on_c, 1, 43, 0
2, 52952, Note_on_c, 1, 41, 93
2, 53332, Note_on_c, 1, 41, 0
2, 53336, Note_on_c, 1, 41, 100
2, 53716, Note_on_c, 1, 41, 0
2, 53720, Note_on_c, 1, 38, 86
2, 54012, Note_on_c, 1, 33, 62
2, 54076, Note_on_c, 1, 33, 0
2, 54088, Note_on_c, 1, 38, 0
2, 54100, Note_on_c, 1, 45, 79
2, 54388, Note_on_c, 1, 45, 0
2, 54396, Note_on_c, 1, 33, 64
2, 54444, Note_on_c, 1, 33, 0
2, 54488, Note_on_c, 1, 43, 87
2, 54696, Note_on_c, 1, 43, 0
2, 54780, Note_on_c, 1, 43, 80
2, 54872, Note_on_c, 1, 50, 73
2, 54884, Note_on_c, 1, 43, 0
2, 55256, Note_on_c, 1, 50, 0
2, 55256, Note_on_c, 1, 36, 82
2, 55476, Note_on_c, 1, 36, 0
2, 55540, Note_on_c, 1, 36, 94
2, 55636, Note_on_c, 1, 36, 0
2, 55640, Note_on_c, 1, 40, 75
2, 56024, Note_on_c, 1, 40, 0
2, 56024, Note_on_c, 1, 41, 82
2, 56244, Note_on_c, 1, 41, 0
2, 56304, Note_on_c, 1, 41, 94
2, 56404, Note_on_c, 1, 41, 0
2, 56408, Note_on_c, 1, 40, 75
2, 56792, Note_on_c, 1, 40, 0
2, 56792, Note_on_c, 1, 41, 87
2, 56992, Note_on_c, 1, 41, 0
2, 57084, Note_on_c, 1, 41, 80
2, 57176, Note_on_c, 1, 48, 73
2, 57184, Note_on_c, 1, 41, 0
2, 57556, Note_on_c, 1, 48, 0
2, 57560, Note_on_c, 1, 34, 91
2, 57944, Note_on_c, 1, 38, 88
2, 57996, Note_on_c, 1, 34, 0
2, 58296, Note_on_c, 1, 38, 0
2, 58328, Note_on_c, 1, 39, 86
2, 58620, Note_on_c, 1, 34, 62
2, 58684, Note_on_c, 1, 34, 0
2, 58696, Note_on_c, 1, 39, 0
2, 58708, Note_on_c, 1, 46, 79
2, 58996, Note_on_c, 1, 46, 0
2, 59004, Note_on_c, 1, 34, 64
2, 59052, Note_on_c, 1, 34, 0
2, 59096, Note_on_c, 1, 44, 86
2, 59468, Note_on_c, 1, 44, 0
2, 59480, Note_on_c, 1, 37, 80
2, 59864, Note_on_c, 1, 37, 0
2, 59864, Note_on_c, 1, 38, 70
2, 60248, Note_on_c, 1, 38, 0
2, 60248, Note_on_c, 1, 43, 72
2, 60532, Note_on_c, 1, 43, 0
2, 60540, Note_on_c, 1, 31, 69
2, 60564, Note_on_c, 1, 31, 0
2, 60632, Note_on_c, 1, 36, 72
2, 60916, Note_on_c, 1, 36, 0
2, 60924, Note_on_c, 1, 24, 69
2, 60948, Note_on_c, 1, 24, 0
2, 61016, Note_on_c, 1, 41, 72
2, 61296, Note_on_c, 1, 41, 0
2, 61308, Note_on_c, 1, 29, 69
2, 61332, Note_on_c, 1, 29, 0
2, 61400, Note_on_c, 1, 34, 86
2, 61764, Note_on_c, 1, 34, 0
2, 61784, Note_on_c, 1, 40, 80
2, 62168, Note_on_c, 1, 40, 0
2, 62168, Note_on_c, 1, 41, 98
2, 62456, Note_on_c, 1, 29, 91
2, 62460, Note_on_c, 1, 41, 0
2, 62548, Note_on_c, 1, 29, 0
2, 62552, Note_on_c, 1, 41, 100
2, 62932, Note_on_c, 1, 41, 0
2, 62936, Note_on_c, 1, 34, 98
2, 63224, Note_on_c, 1, 22, 91
2, 63228, Note_on_c, 1, 34, 0
2, 63316, Note_on_c, 1, 22, 0
2, 63320, Note_on_c, 1, 34, 100
2, 63696, Note_on_c, 1, 34, 0
2, 63700, Note_on_c, 1, 43, 86
2, 64076, Note_on_c, 1, 43, 0
2, 64088, Note_on_c, 1, 35, 80
2, 64472, Note_on_c, 1, 35, 0
2, 64472, Note_on_c, 1, 36, 86
2, 64836, Note_on_c, 1, 36, 0
2, 64856, Note_on_c, 1, 40, 80
2, 65240, Note_on_c, 1, 40, 0
2, 65240, Note_on_c, 1, 41, 87
2, 65524, Note_on_c, 1, 29, 64
2, 65588, Note_on_c, 1, 41, 0
2, 65624, Note_on_c, 1, 29, 0
2, 65628, Note_on_c, 1, 39, 87
2, 66008, Note_on_c, 1, 39, 0
2, 66008, Note_on_c, 1, 38, 98
2, 66392, Note_on_c, 1, 38, 0
2, 66392, Note_on_c, 1, 44, 105
2, 66776, Note_on_c, 1, 44, 0
2, 66776, Note_on_c, 1, 43, 81
2, 67160, Note_on_c, 1, 50, 80
2, 67232, Note_on_c, 1, 43, 0
2, 67540, Note_on_c, 1, 50, 0
2, 67544, Note_on_c, 1, 48, 78
2, 67928, Note_on_c, 1, 43, 77
2, 67980, Note_on_c, 1, 48, 0
2, 68304, Note_on_c, 1, 43, 0
2, 68308, Note_on_c, 1, 41, 87
2, 68604, Note_on_c, 1, 29, 64
2, 68660, Note_on_c, 1, 41, 0
2, 68696, Note_on_c, 1, 29, 0
2, 68700, Note_on_c, 1, 42, 87
2, 69080, Note_on_c, 1, 42, 0
2, 69080, Note_on_c, 1, 41, 87
2, 69288, Note_on_c, 1, 41, 0
2, 69372, Note_on_c, 1, 41, 80
2, 69464, Note_on_c, 1, 48, 73
2, 69484, Note_on_c, 1, 41, 0
2, 69848, Note_on_c, 1, 48, 0
2, 69848, Note_on_c, 1, 34, 81
2, 70232, Note_on_c, 1, 41, 80
2, 70300, Note_on_c, 1, 34, 0
2, 70616, Note_on_c, 1, 41, 0
2, 70616, Note_on_c, 1, 39, 86
2, 70896, Note_on_c, 1, 34, 62
2, 70964, Note_on_c, 1, 34, 0
2, 70988, Note_on_c, 1, 39, 0
2, 71000, Note_on_c, 1, 46, 79
2, 71288, Note_on_c, 1, 46, 0
2, 71288, Note_on_c, 1, 34, 64
2, 71340, Note_on_c, 1, 34, 0
2, 71384, Note_on_c, 1, 44, 98
2, 71672, Note_on_c, 1, 32, 91
2, 71676, Note_on_c, 1, 44, 0
2, 71768, Note_on_c, 1, 32, 0
2, 71768, Note_on_c, 1, 44, 100
2, 72148, Note_on_c, 1, 44, 0
2, 72152, Note_on_c, 1, 38, 70
2, 72532, Note_on_c, 1, 38, 0
2, 72536, Note_on_c, 1, 43, 70
2, 72916, Note_on_c, 1, 43, 0
2, 72920, Note_on_c, 1, 36, 70
2, 73296, Note_on_c, 1, 36, 0
2, 73300, Note_on_c, 1, 41, 72
2, 73592, Note_on_c, 1, 41, 0
2, 73596, Note_on_c, 1, 29, 69
2, 73620, Note_on_c, 1, 29, 0
2, 73688, Note_on_c, 1, 34, 98
2, 74072, Note_on_c, 1, 34, 0
2, 74072, Note_on_c, 1, 35, 105
2, 74456, Note_on_c, 1, 35, 0
2, 74456, Note_on_c, 1, 34, 87
2, 74668, Note_on_c, 1, 34, 0
2, 74740, Note_on_c, 1, 34, 80
2, 74840, Note_on_c, 1, 41, 73
2, 74860, Note_on_c, 1, 34, 0
2, 75224, Note_on_c, 1, 41, 0
2, 75224, Note_on_c, 1, 39, 93
2, 75608, Note_on_c, 1, 39, 0
2, 75608, Note_on_c, 1, 39, 100
2, 75992, Note_on_c, 1, 39, 0
2, 75992, Note_on_c, 1, 36, 82
2, 76204, Note_on_c, 1, 36, 0
2, 76284, Note_on_c, 1, 36, 94
2, 76372, Note_on_c, 1, 36, 0
2, 76376, Note_on_c, 1, 40, 75
2, 76752, Note_on_c, 1, 40, 0
2, 76760, Note_on_c, 1, 41, 82
2, 76972, Note_on_c, 1, 41, 0
2, 77052, Note_on_c, 1, 41, 94
2, 77140, Note_on_c, 1, 41, 0
2, 77144, Note_on_c, 1, 33, 75
2, 77524, Note_on_c, 1, 33, 0
2, 77528, Note_on_c, 1, 34, 86
2, 77896, Note_on_c, 1, 34, 0
2, 77908, Note_on_c, 1, 42, 80
2, 78296, Note_on_c, 1, 42, 0
2, 78296, Note_on_c, 1, 43, 82
2, 78508, Note_on_c, 1, 43, 0
2, 78588, Note_on_c, 1, 43, 94
2, 78676, Note_on_c, 1, 43, 0
2, 78680, Note_on_c, 1, 35, 75
2, 79064, Note_on_c, 1, 35, 0
2, 79064, Note_on_c, 1, 36, 82
2, 79284, Note_on_c, 1, 36, 0
2, 79348, Note_on_c, 1, 36, 94
2, 79444, Note_on_c, 1, 36, 0
2, 79448, Note_on_c, 1, 40, 75
2, 79832, Note_on_c, 1, 40, 0
2, 79832, Note_on_c, 1, 41, 86
2, 80116, Note_on_c, 1, 36, 62
2, 80180, Note_on_c, 1, 36, 0
2, 80204, Note_on_c, 1, 41, 0
2, 80216, Note_on_c, 1, 48, 79
2, 80496, Note_on_c, 1, 48, 0
2, 80496, Note_on_c, 1, 36, 64
2, 80556, Note_on_c, 1, 36, 0
2, 80600, Note_on_c, 1, 34, 81
2, 80984, Note_on_c, 1, 41, 80
2, 81056, Note_on_c, 1, 34, 0
2, 81368, Note_on_c, 1, 41, 0
2, 81368, Note_on_c, 1, 34, 82
2, 81580, Note_on_c, 1, 34, 0
2, 81660, Note_on_c, 1, 34, 94
2, 81748, Note_on_c, 1, 34, 0
2, 81752, Note_on_c, 1, 38, 75
2, 82132, Note_on_c, 1, 38, 0
2, 82136, Note_on_c, 1, 39, 98
2, 82424, Note_on_c, 1, 27, 91
2, 82428, Note_on_c, 1, 39, 0
2, 82516, Note_on_c, 1, 27, 0
2, 82520, Note_on_c, 1, 39, 100
2, 82896, Note_on_c, 1, 39, 0
2, 82900, Note_on_c, 1, 44, 87
2, 83104, Note_on_c, 1, 44, 0
2, 83196, Note_on_c, 1, 44, 80
2, 83288, Note_on_c, 1, 51, 73
2, 83292, Note_on_c, 1, 44, 0
2, 83672, Note_on_c, 1, 51, 0
2, 83672, Note_on_c, 1, 37, 86
2, 84036, Note_on_c, 1, 37, 0
2, 84056, Note_on_c, 1, 42, 80
2, 84440, Note_on_c, 1, 42, 0
2, 84440, Note_on_c, 1, 43, 70
2, 84824, Note_on_c, 1, 43, 0
2, 84824, Note_on_c, 1, 36, 70
2, 85208, Note_on_c, 1, 36, 0
2, 85208, Note_on_c, 1, 41, 70
2, 85592, Note_on_c, 1, 41, 0
2, 85592, Note_on_c, 1, 34, 72
2, 85880, Note_on_c, 1, 34, 0
2, 85884, Note_on_c, 1, 22, 69
2, 85900, Note_on_c, 1, 22, 0
2, 85976, Note_on_c, 1, 39, 87
2, 86176, Note_on_c, 1, 39, 0
2, 86268, Note_on_c, 1, 39, 80
2, 86360, Note_on_c, 1, 46, 73
2, 86364, Note_on_c, 1, 39, 0
2, 86740, Note_on_c, 1, 46, 0
2, 86744, Note_on_c, 1, 41, 98
2, 87032, Note_on_c, 1, 29, 91
2, 87036, Note_on_c, 1, 41, 0
2, 87120, Note_on_c, 1, 29, 0
2, 87128, Note_on_c, 1, 41, 100
2, 87504, Note_on_c, 1, 41, 0
2, 87508, Note_on_c, 1, 34, 81
2, 87896, Note_on_c, 1, 41, 80
2, 87964, Note_on_c, 1, 34, 0
2, 88280, Note_on_c, 1, 41, 0
2, 88280, Note_on_c, 1, 43, 86
2, 88644, Note_on_c, 1, 43, 0
2, 88664, Note_on_c, 1, 35, 80
2, 89048, Note_on_c, 1, 35, 0
2, 89048, Note_on_c, 1, 36, 86
2, 89332, Note_on_c, 1, 31, 62
2, 89396, Note_on_c, 1, 31, 0
2, 89420, Note_on_c, 1, 36, 0
2, 89432, Note_on_c, 1, 43, 79
2, 89716, Note_on_c, 1, 43, 0
2, 89716, Note_on_c, 1, 31, 64
2, 89772, Note_on_c, 1, 31, 0
2, 89816, Note_on_c, 1, 41, 81
2, 90200, Note_on_c, 1, 48, 80
2, 90272, Note_on_c, 1, 41, 0
2, 90584, Note_on_c, 1, 48, 0
2, 90584, Note_on_c, 1, 38, 98
2, 90968, Note_on_c, 1, 38, 0
2, 90968, Note_on_c, 1, 44, 105
2, 91348, Note_on_c, 1, 44, 0
2, 91352, Note_on_c, 1, 43, 86
2, 91644, Note_on_c, 1, 38, 62
2, 91696, Note_on_c, 1, 38, 0
2, 91716, Note_on_c, 1, 43, 0
2, 91736, Note_on_c, 1, 50, 79
2, 92020, Note_on_c, 1, 50, 0
2, 92028, Note_on_c, 1, 38, 64
2, 92076, Note_on_c, 1, 38, 0
2, 92120, Note_on_c, 1, 36, 81
2, 92500, Note_on_c, 1, 43, 80
2, 92572, Note_on_c, 1, 36, 0
2, 92888, Note_on_c, 1, 43, 0
2, 92888, Note_on_c, 1, 41, 87
2, 93096, Note_on_c, 1, 41, 0
2, 93180, Note_on_c, 1, 41, 80
2, 93272, Note_on_c, 1, 48, 73
2, 93284, Note_on_c, 1, 41, 0
2, 93656, Note_on_c, 1, 48, 0
2, 93656, Note_on_c, 1, 41, 98
2, 93940, Note_on_c, 1, 29, 91
2, 93948, Note_on_c, 1, 41, 0
2, 94040, Note_on_c, 1, 29, 0
2, 94040, Note_on_c, 1, 41, 100
2, 94420, Note_on_c, 1, 41, 0
2, 94424, Note_on_c, 1, 34, 86
2, 94788, Note_on_c, 1, 34, 0
2, 94808, Note_on_c, 1, 38, 80
2, 95192, Note_on_c, 1, 38, 0
2, 95192, Note_on_c, 1, 39, 86
2, 95556, Note_on_c, 1, 39, 0
2, 95576, Note_on_c, 1, 43, 80
2, 95956, Note_on_c, 1, 43, 0
2, 95960, Note_on_c, 1, 44, 87
2, 96160, Note_on_c, 1, 44, 0
2, 96252, Note_on_c, 1, 44, 80
2, 96344, Note_on_c, 1, 51, 73
2, 96348, Note_on_c, 1, 44, 0
2, 96724, Note_on_c, 1, 51, 0
2, 96728, Note_on_c, 1, 38, 70
2, 97104, Note_on_c, 1, 38, 0
2, 97108, Note_on_c, 1, 43, 72
2, 97400, Note_on_c, 1, 43, 0
2, 97404, Note_on_c, 1, 31, 69
2, 97428, Note_on_c, 1, 31, 0
2, 97496, Note_on_c, 1, 36, 70
2, 97880, Note_on_c, 1, 36, 0
2, 97880, Note_on_c, 1, 41, 72
2, 98168, Note_on_c, 1, 41, 0
2, 98172, Note_on_c, 1, 29, 69
2, 98196, Note_on_c, 1, 29, 0
2, 98264, Note_on_c, 1, 34, 82
2, 98484, Note_on_c, 1, 34, 0
2, 98548, Note_on_c, 1, 34, 94
2, 98644, Note_on_c, 1, 34, 0
2, 98648, Note_on_c, 1, 40, 75
2, 99032, Note_on_c, 1, 40, 0
2, 99032, Note_on_c, 1, 41, 86
2, 99392, Note_on_c, 1, 41, 0
2, 99416, Note_on_c, 1, 33, 80
2, 99800, Note_on_c, 1, 33, 0
2, 99800, Note_on_c, 1, 34, 82
2, 100020, Note_on_c, 1, 34, 0
2, 100088, Note_on_c, 1, 34, 94
2, 100180, Note_on_c, 1, 34, 0
2, 100184, Note_on_c, 1, 42, 75
2, 100568, Note_on_c, 1, 42, 0
2, 100568, Note_on_c, 1, 43, 81
2, 100952, Note_on_c, 1, 50, 80
2, 101024, Note_on_c, 1, 43, 0
2, 101332, Note_on_c, 1, 50, 0
2, 101336, Note_on_c, 1, 36, 87
2, 101536, Note_on_c, 1, 36, 0
2, 101628, Note_on_c, 1, 36, 80
2, 101720, Note_on_c, 1, 43, 73
2, 101724, Note_on_c, 1, 36, 0
2, 102096, Note_on_c, 1, 43, 0
2, 102100, Note_on_c, 1, 41, 98
2, 102392, Note_on_c, 1, 29, 91
2, 102396, Note_on_c, 1, 41, 0
2, 102488, Note_on_c, 1, 29, 0
2, 102488, Note_on_c, 1, 41, 100
2, 102872, Note_on_c, 1, 41, 0
2, 102872, Note_on_c, 1, 50, 78
2, 103256, Note_on_c, 1, 45, 77
2, 103296, Note_on_c, 1, 50, 0
2, 103640, Note_on_c, 1, 45, 0
2, 103640, Note_on_c, 1, 43, 86
2, 103924, Note_on_c, 1, 38, 62
2, 103988, Note_on_c, 1, 38, 0
2, 104012, Note_on_c, 1, 43, 0
2, 104024, Note_on_c, 1, 50, 79
2, 104304, Note_on_c, 1, 50, 0
2, 104304, Note_on_c, 1, 38, 64
2, 104364, Note_on_c, 1, 38, 0
2, 104408, Note_on_c, 1, 36, 81
2, 104792, Note_on_c, 1, 43, 80
2, 104864, Note_on_c, 1, 36, 0
2, 105176, Note_on_c, 1, 43, 0
2, 105176, Note_on_c, 1, 41, 87
2, 105376, Note_on_c, 1, 41, 0
2, 105468, Note_on_c, 1, 41, 80
2, 105560, Note_on_c, 1, 48, 73
2, 105564, Note_on_c, 1, 41, 0
2, 105940, Note_on_c, 1, 48, 0
2, 105944, Note_on_c, 1, 41, 81
2, 106328, Note_on_c, 1, 48, 80
2, 106396, Note_on_c, 1, 41, 0
2, 106704, Note_on_c, 1, 48, 0
2, 106708, Note_on_c, 1, 34, 93
2, 107096, Note_on_c, 1, 34, 0
2, 107096, Note_on_c, 1, 34, 100
2, 107480, Note_on_c, 1, 34, 0
2, 107480, Note_on_c, 1, 39, 82
2, 107692, Note_on_c, 1, 39, 0
2, 107772, Note_on_c, 1, 39, 94
2, 107860, Note_on_c, 1, 39, 0
2, 107864, Note_on_c, 1, 43, 75
2, 108248, Note_on_c, 1, 43, 0
2, 108248, Note_on_c, 1, 44, 98
2, 108632, Note_on_c, 1, 44, 0
2, 108632, Note_on_c, 1, 39, 105
2, 109016, Note_on_c, 1, 39, 0
2, 109016, Note_on_c, 1, 38, 70
2, 109400, Note_on_c, 1, 38, 0
2, 109400, Note_on_c, 1, 43, 70
2, 109784, Note_on_c, 1, 43, 0
2, 109784, Note_on_c, 1, 36, 72
2, 110072, Note_on_c, 1, 36, 0
2, 110076, Note_on_c, 1, 24, 69
2, 110092, Note_on_c, 1, 24, 0
2, 110168, Note_on_c, 1, 41, 70
2, 110548, Note_on_c, 1, 41, 0
2, 110552, Note_on_c, 1, 34, 98
2, 110840, Note_on_c, 1, 22, 91
2, 110844, Note_on_c, 1, 34, 0
2, 110932, Note_on_c, 1, 22, 0
2, 110936, Note_on_c, 1, 34, 100
2, 111316, Note_on_c, 1, 34, 0
2, 111320, Note_on_c, 1, 41, 87
2, 111520, Note_on_c, 1, 41, 0
2, 111608, Note_on_c, 1, 41, 80
2, 111700, Note_on_c, 1, 48, 73
2, 111712, Note_on_c, 1, 41, 0
2, 112088, Note_on_c, 1, 48, 0
2, 112088, Note_on_c, 1, 34, 81
2, 112472, Note_on_c, 1, 41, 80
2, 112540, Note_on_c, 1, 34, 0
2, 112856, Note_on_c, 1, 41, 0
2, 112856, Note_on_c, 1, 43, 87
2, 113140, Note_on_c, 1, 31, 64
2, 113204, Note_on_c, 1, 43, 0
2, 113240, Note_on_c, 1, 31, 0
2, 113244, Note_on_c, 1, 37, 87
2, 113624, Note_on_c, 1, 37, 0
2, 113624, Note_on_c, 1, 36, 86
2, 113988, Note_on_c, 1, 36, 0
2, 114008, Note_on_c, 1, 40, 80
2, 114392, Note_on_c, 1, 40, 0
2, 114392, Note_on_c, 1, 41, 81
2, 114776, Note_on_c, 1, 48, 80
2, 114848, Note_on_c, 1, 41, 0
2, 115156, Note_on_c, 1, 48, 0
2, 115160, Note_on_c, 1, 38, 91
2, 115544, Note_on_c, 1, 41, 88
2, 115596, Note_on_c, 1, 38, 0
2, 115896, Note_on_c, 1, 41, 0
2, 115928, Note_on_c, 1, 43, 86
2, 116296, Note_on_c, 1, 43, 0
2, 116308, Note_on_c, 1, 35, 80
2, 116696, Note_on_c, 1, 35, 0
2, 116696, Note_on_c, 1, 48, 78
2, 117080, Note_on_c, 1, 43, 77
2, 117124, Note_on_c, 1, 48, 0
2, 117464, Note_on_c, 1, 43, 0
2, 117464, Note_on_c, 1, 41, 82
2, 117684, Note_on_c, 1, 41, 0
2, 117744, Note_on_c, 1, 41, 94
2, 117844, Note_on_c, 1, 41, 0
2, 117848, Note_on_c, 1, 40, 75
2, 118232, Note_on_c, 1, 40, 0
2, 118232, Note_on_c, 1, 41, 98
2, 118512, Note_on_c, 1, 29, 91
2, 118524, Note_on_c, 1, 41, 0
2, 118616, Note_on_c, 1, 29, 0
2, 118616, Note_on_c, 1, 41, 100
2, 118996, Note_on_c, 1, 41, 0
2, 119000, Note_on_c, 1, 46, 78
2, 119384, Note_on_c, 1, 41, 77
2, 119436, Note_on_c, 1, 46, 0
2, 119768, Note_on_c, 1, 41, 0
2, 119768, Note_on_c, 1, 39, 87
2, 120060, Note_on_c, 1, 27, 64
2, 120108, Note_on_c, 1, 39, 0
2, 120152, Note_on_c, 1, 27, 0
2, 120156, Note_on_c, 1, 45, 87
2, 120532, Note_on_c, 1, 45, 0
2, 120536, Note_on_c, 1, 44, 82
2, 120748, Note_on_c, 1, 44, 0
2, 120828, Note_on_c, 1, 44, 94
2, 120908, Note_on_c, 1, 44, 0
2, 120920, Note_on_c, 1, 37, 75
2, 121296, Note_on_c, 1, 37, 0
2, 121300, Note_on_c, 1, 38, 72
2, 121592, Note_on_c, 1, 38, 0
2, 121596, Note_on_c, 1, 26, 69
2, 121620, Note_on_c, 1, 26, 0
2, 121688, Note_on_c, 1, 43, 72
2, 121976, Note_on_c, 1, 43, 0
2, 121980, Note_on_c, 1, 31, 69
2, 122004, Note_on_c, 1, 31, 0
2, 122072, Note_on_c, 1, 36, 72
2, 122356, Note_on_c, 1, 36, 0
2, 122364, Note_on_c, 1, 24, 69
2, 122388, Note_on_c, 1, 24, 0
2, 122456, Note_on_c, 1, 41, 72
2, 122740, Note_on_c, 1, 41, 0
2, 122748, Note_on_c, 1, 29, 69
2, 122772, Note_on_c, 1, 29, 0
2, 122840, Note_on_c, 1, 34, 86
2, 123204, Note_on_c, 1, 34, 0
2, 123224, Note_on_c, 1, 33, 80
2, 123608, Note_on_c, 1, 33, 0
2, 123608, Note_on_c, 1, 34, 87
2, 123896, Note_on_c, 1, 22, 64
2, 123956, Note_on_c, 1, 34, 0
2, 123992, Note_on_c, 1, 22, 0
2, 123996, Note_on_c, 1, 40, 87
2, 124376, Note_on_c, 1, 40, 0
2, 124376, Note_on_c, 1, 39, 81
2, 124760, Note_on_c, 1, 46, 80
2, 124832, Note_on_c, 1, 39, 0
2, 125140, Note_on_c, 1, 46, 0
2, 125144, Note_on_c, 1, 36, 86
2, 125436, Note_on_c, 1, 32, 62
2, 125496, Note_on_c, 1, 32, 0
2, 125504, Note_on_c, 1, 36, 0
2, 125528, Note_on_c, 1, 44, 79
2, 125812, Note_on_c, 1, 44, 0
2, 125820, Note_on_c, 1, 32, 64
2, 125868, Note_on_c, 1, 32, 0
2, 125908, Note_on_c, 1, 41, 87
2, 126112, Note_on_c, 1, 41, 0
2, 126204, Note_on_c, 1, 41, 80
2, 126296, Note_on_c, 1, 48, 73
2, 126300, Note_on_c, 1, 41, 0
2, 126680, Note_on_c, 1, 48, 0
2, 126680, Note_on_c, 1, 34, 87
2, 126888, Note_on_c, 1, 34, 0
2, 126972, Note_on_c, 1, 34, 80
2, 127064, Note_on_c, 1, 41, 73
2, 127084, Note_on_c, 1, 34, 0
2, 127448, Note_on_c, 1, 41, 0
2, 127448, Note_on_c, 1, 43, 98
2, 127732, Note_on_c, 1, 31, 91
2, 127740, Note_on_c, 1, 43, 0
2, 127832, Note_on_c, 1, 31, 0
2, 127832, Note_on_c, 1, 43, 100
2, 128212, Note_on_c, 1, 43, 0
2, 128216, Note_on_c, 1, 36, 81
2, 128600, Note_on_c, 1, 43, 80
2, 128672, Note_on_c, 1, 36, 0
2, 128984, Note_on_c, 1, 43, 0
2, 128984, Note_on_c, 1, 41, 81
2, 129368, Note_on_c, 1, 48, 80
2, 129440, Note_on_c, 1, 41, 0
2, 129748, Note_on_c, 1, 48, 0
2, 129752, Note_on_c, 1, 34, 86
2, 130116, Note_on_c, 1, 34, 0
2, 130136, Note_on_c, 1, 33, 80
2, 130516, Note_on_c, 1, 33, 0
2, 130520, Note_on_c, 1, 34, 86
2, 130888, Note_on_c, 1, 34, 0
2, 130900, Note_on_c, 1, 38, 80
2, 131288, Note_on_c, 1, 38, 0
2, 131288, Note_on_c, 1, 39, 86
2, 131660, Note_on_c, 1, 39, 0
2, 131672, Note_on_c, 1, 43, 80
2, 132056, Note_on_c, 1, 43, 0
2, 132056, Note_on_c, 1, 44, 81
2, 132440, Note_on_c, 1, 51, 80
2, 132508, Note_on_c, 1, 44, 0
2, 132824, Note_on_c, 1, 51, 0
2, 132824, Note_on_c, 1, 37, 91
2, 133208, Note_on_c, 1, 41, 88
2, 133260, Note_on_c, 1, 37, 0
2, 133556, Note_on_c, 1, 41, 0
2, 133592, Note_on_c, 1, 43, 72
2, 133880, Note_on_c, 1, 43, 0
2, 133884, Note_on_c, 1, 31, 69
2, 133900, Note_on_c, 1, 31, 0
2, 133976, Note_on_c, 1, 36, 72
2, 134264, Note_on_c, 1, 36, 0
2, 134268, Note_on_c, 1, 24, 69
2, 134292, Note_on_c, 1, 24, 0
2, 134360, Note_on_c, 1, 41, 70
2, 134740, Note_on_c, 1, 41, 0
2, 134744, Note_on_c, 1, 34, 72
2, 135032, Note_on_c, 1, 34, 0
2, 135036, Note_on_c, 1, 22, 69
2, 135060, Note_on_c, 1, 22, 0
2, 135128, Note_on_c, 1, 39, 82
2, 135340, Note_on_c, 1, 39, 0
2, 135420, Note_on_c, 1, 39, 94
2, 135500, Note_on_c, 1, 39, 0
2, 135508, Note_on_c, 1, 40, 75
2, 135896, Note_on_c, 1, 40, 0
2, 135896, Note_on_c, 1, 41, 81
2, 136280, Note_on_c, 1, 48, 80
2, 136348, Note_on_c, 1, 41, 0
2, 136664, Note_on_c, 1, 48, 0
2, 136664, Note_on_c, 1, 34, 93
2, 137048, Note_on_c, 1, 34, 0
2, 137048, Note_on_c, 1, 34, 100
2, 137432, Note_on_c, 1, 34, 0
2, 137432, Note_on_c, 1, 43, 87
2, 137716, Note_on_c, 1, 31, 64
2, 137780, Note_on_c, 1, 43, 0
2, 137816, Note_on_c, 1, 31, 0
2, 137824, Note_on_c, 1, 37, 87
2, 138200, Note_on_c, 1, 37, 0
2, 138200, Note_on_c, 1, 36, 81
2, 138584, Note_on_c, 1, 43, 80
2, 138656, Note_on_c, 1, 36, 0
2, 138968, Note_on_c, 1, 43, 0
2, 138968, Note_on_c, 1, 41, 87
2, 139260, Note_on_c, 1, 29, 64
2, 139308, Note_on_c, 1, 41, 0
2, 139352, Note_on_c, 1, 29, 0
2, 139356, Note_on_c, 1, 39, 87
2, 139732, Note_on_c, 1, 39, 0
2, 139736, Note_on_c, 1, 38, 82
2, 139948, Note_on_c, 1, 38, 0
2, 140028, Note_on_c, 1, 38, 94
2, 140108, Note_on_c, 1, 38, 0
2, 140120, Note_on_c, 1, 42, 75
2, 140496, Note_on_c, 1, 42, 0
2, 140500, Note_on_c, 1, 43, 86
2, 140876, Note_on_c, 1, 43, 0
2, 140888, Note_on_c, 1, 35, 80
2, 141272, Note_on_c, 1, 35, 0
2, 141272, Note_on_c, 1, 36, 86
2, 141556, Note_on_c, 1, 31, 62
2, 141620, Note_on_c, 1, 31, 0
2, 141644, Note_on_c, 1, 36, 0
2, 141656, Note_on_c, 1, 43, 79
2, 141940, Note_on_c, 1, 43, 0
2, 141940, Note_on_c, 1, 31, 64
2, 141996, Note_on_c, 1, 31, 0
2, 142040, Note_on_c, 1, 41, 86
2, 142404, Note_on_c, 1, 41, 0
2, 142424, Note_on_c, 1, 40, 80
2, 142808, Note_on_c, 1, 40, 0
2, 142808, Note_on_c, 1, 41, 87
2, 143096, Note_on_c, 1, 29, 64
2, 143156, Note_on_c, 1, 41, 0
2, 143192, Note_on_c, 1, 29, 0
2, 143196, Note_on_c, 1, 35, 87
2, 143576, Note_on_c, 1, 35, 0
2, 143576, Note_on_c, 1, 34, 86
2, 143940, Note_on_c, 1, 34, 0
2, 143960, Note_on_c, 1, 38, 80
2, 144340, Note_on_c, 1, 38, 0
2, 144344, Note_on_c, 1, 39, 82
2, 144556, Note_on_c, 1, 39, 0
2, 144636, Note_on_c, 1, 39, 94
2, 144716, Note_on_c, 1, 39, 0
2, 144728, Note_on_c, 1, 43, 75
2, 145104, Note_on_c, 1, 43, 0
2, 145108, Note_on_c, 1, 44, 82
2, 145324, Note_on_c, 1, 44, 0
2, 145404, Note_on_c, 1, 44, 94
2, 145492, Note_on_c, 1, 44, 0
2, 145496, Note_on_c, 1, 37, 75
2, 145880, Note_on_c, 1, 37, 0
2, 145880, Note_on_c, 1, 38, 70
2, 146264, Note_on_c, 1, 38, 0
2, 146264, Note_on_c, 1, 43, 72
2, 146548, Note_on_c, 1, 43, 0
2, 146556, Note_on_c, 1, 31, 69
2, 146580, Note_on_c, 1, 31, 0
2, 146648, Note_on_c, 1, 36, 72
2, 146932, Note_on_c, 1, 36, 0
2, 146940, Note_on_c, 1, 24, 69
2, 146964, Note_on_c, 1, 24, 0
2, 147032, Note_on_c, 1, 41, 72
2, 147316, Note_on_c, 1, 41, 0
2, 147324, Note_on_c, 1, 29, 69
2, 147348, Note_on_c, 1, 29, 0
2, 147416, Note_on_c, 1, 34, 93
2, 147800, Note_on_c, 1, 34, 0
2, 147800, Note_on_c, 1, 34, 100
2, 148184, Note_on_c, 1, 34, 0
2, 148184, Note_on_c, 1, 41, 82
2, 148396, Note_on_c, 1, 41, 0
2, 148472, Note_on_c, 1, 41, 94
2, 148564, Note_on_c, 1, 41, 0
2, 148568, Note_on_c, 1, 33, 75
2, 148948, Note_on_c, 1, 33, 0
2, 148952, Note_on_c, 1, 34, 98
2, 149240, Note_on_c, 1, 22, 91
2, 149244, Note_on_c, 1, 34, 0
2, 149332, Note_on_c, 1, 22, 0
2, 149336, Note_on_c, 1, 34, 100
2, 149716, Note_on_c, 1, 34, 0
2, 149720, Note_on_c, 1, 43, 87
2, 149920, Note_on_c, 1, 43, 0
2, 150012, Note_on_c, 1, 43, 80
2, 150100, Note_on_c, 1, 50, 73
2, 150112, Note_on_c, 1, 43, 0
2, 150488, Note_on_c, 1, 50, 0
2, 150488, Note_on_c, 1, 36, 87
2, 150696, Note_on_c, 1, 36, 0
2, 150780, Note_on_c, 1, 36, 80
2, 150872, Note_on_c, 1, 43, 73
2, 150884, Note_on_c, 1, 36, 0
2, 151256, Note_on_c, 1, 43, 0
2, 151256, Note_on_c, 1, 41, 98
2, 151540, Note_on_c, 1, 29, 91
2, 151548, Note_on_c, 1, 41, 0
2, 151640, Note_on_c, 1, 29, 0
2, 151640, Note_on_c, 1, 41, 100
2, 152020, Note_on_c, 1, 41, 0
2, 152024, Note_on_c, 1, 38, 87
2, 152224, Note_on_c, 1, 38, 0
2, 152304, Note_on_c, 1, 38, 80
2, 152408, Note_on_c, 1, 45, 73
2, 152416, Note_on_c, 1, 38, 0
2, 152792, Note_on_c, 1, 45, 0
2, 152792, Note_on_c, 1, 43, 98
2, 153080, Note_on_c, 1, 31, 91
2, 153084, Note_on_c, 1, 43, 0
2, 153176, Note_on_c, 1, 31, 0
2, 153176, Note_on_c, 1, 43, 100
2, 153556, Note_on_c, 1, 43, 0
2, 153560, Note_on_c, 1, 36, 93
2, 153940, Note_on_c, 1, 36, 0
2, 153944, Note_on_c, 1, 36, 100
2, 154324, Note_on_c, 1, 36, 0
2, 154328, Note_on_c, 1, 41, 87
2, 154528, Note_on_c, 1, 41, 0
2, 154620, Note_on_c, 1, 41, 80
2, 154708, Note_on_c, 1, 48, 73
2, 154716, Note_on_c, 1, 41, 0
2, 155096, Note_on_c, 1, 48, 0
2, 155096, Note_on_c, 1, 41, 81
2, 155480, Note_on_c, 1, 48, 80
2, 155548, Note_on_c, 1, 41, 0
2, 155864, Note_on_c, 1, 48, 0
2, 155864, Note_on_c, 1, 34, 91
2, 156248, Note_on_c, 1, 38, 88
2, 156296, Note_on_c, 1, 34, 0
2, 156596, Note_on_c, 1, 38, 0
2, 156632, Note_on_c, 1, 39, 87
2, 156832, Note_on_c, 1, 39, 0
2, 156916, Note_on_c, 1, 39, 80
2, 157016, Note_on_c, 1, 46, 73
2, 157020, Note_on_c, 1, 39, 0
2, 157400, Note_on_c, 1, 46, 0
2, 157400, Note_on_c, 1, 44, 82
2, 157620, Note_on_c, 1, 44, 0
2, 157688, Note_on_c, 1, 44, 94
2, 157780, Note_on_c, 1, 44, 0
2, 157784, Note_on_c, 1, 37, 75
2, 158168, Note_on_c, 1, 37, 0
2, 158168, Note_on_c, 1, 38, 70
2, 158548, Note_on_c, 1, 38, 0
2, 158552, Note_on_c, 1, 43, 72
2, 158840, Note_on_c, 1, 43, 0
2, 158844, Note_on_c, 1, 31, 69
2, 158868, Note_on_c, 1, 31, 0
2, 158936, Note_on_c, 1, 36, 72
2, 159224, Note_on_c, 1, 36, 0
2, 159228, Note_on_c, 1, 24, 69
2, 159252, Note_on_c, 1, 24, 0
2, 159320, Note_on_c, 1, 41, 70
2, 159696, Note_on_c, 1, 41, 0
2, 159700, Note_on_c, 1, 34, 86
2, 160076, Note_on_c, 1, 34, 0
2, 160088, Note_on_c, 1, 40, 80
2, 160472, Note_on_c, 1, 40, 0
2, 160472, Note_on_c, 1, 41, 93
2, 160856, Note_on_c, 1, 41, 0
2, 160856, Note_on_c, 1, 41, 100
2, 161240, Note_on_c, 1, 41, 0
2, 161240, Note_on_c, 1, 34, 81
2, 161624, Note_on_c, 1, 41, 80
2, 161692, Note_on_c, 1, 34, 0
2, 162008, Note_on_c, 1, 41, 0
2, 162008, Note_on_c, 1, 43, 98
2, 162296, Note_on_c, 1, 31, 91
2, 162300, Note_on_c, 1, 43, 0
2, 162392, Note_on_c, 1, 31, 0
2, 162392, Note_on_c, 1, 43, 100
2, 162772, Note_on_c, 1, 43, 0
2, 162776, Note_on_c, 1, 36, 82
2, 162988, Note_on_c, 1, 36, 0
2, 163068, Note_on_c, 1, 36, 94
2, 163156, Note_on_c, 1, 36, 0
2, 163160, Note_on_c, 1, 40, 75
2, 163540, Note_on_c, 1, 40, 0
2, 163544, Note_on_c, 1, 41, 93
2, 163924, Note_on_c, 1, 41, 0
2, 163928, Note_on_c, 1, 41, 100
2, 164304, Note_on_c, 1, 41, 0
2, 164308, Note_on_c, 1, 38, 91
2, 164696, Note_on_c, 1, 41, 88
2, 164740, Note_on_c, 1, 38, 0
2, 165044, Note_on_c, 1, 41, 0
2, 165080, Note_on_c, 1, 43, 81
2, 165464, Note_on_c, 1, 50, 80
2, 165532, Note_on_c, 1, 43, 0
2, 165848, Note_on_c, 1, 50, 0
2, 165848, Note_on_c, 1, 36, 93
2, 166232, Note_on_c, 1, 36, 0
2, 166232, Note_on_c, 1, 36, 100
2, 166616, Note_on_c, 1, 36, 0
2, 166616, Note_on_c, 1, 41, 81
2, 167000, Note_on_c, 1, 48, 80
2, 167072, Note_on_c, 1, 41, 0
2, 167384, Note_on_c, 1, 48, 0
2, 167384, Note_on_c, 1, 41, 98
2, 167672, Note_on_c, 1, 29, 91
2, 167676, Note_on_c, 1, 41, 0
2, 167768, Note_on_c, 1, 29, 0
2, 167768, Note_on_c, 1, 41, 100
2, 168148, Note_on_c, 1, 41, 0
2, 168152, Note_on_c, 1, 34, 87
2, 168352, Note_on_c, 1, 34, 0
2, 168444, Note_on_c, 1, 34, 80
2, 168536, Note_on_c, 1, 41, 73
2, 168540, Note_on_c, 1, 34, 0
2, 168916, Note_on_c, 1, 41, 0
2, 168920, Note_on_c, 1, 39, 91
2, 169300, Note_on_c, 1, 43, 88
2, 169348, Note_on_c, 1, 39, 0
2, 169660, Note_on_c, 1, 43, 0
2, 169688, Note_on_c, 1, 44, 86
2, 170060, Note_on_c, 1, 44, 0
2, 170072, Note_on_c, 1, 37, 80
2, 170456, Note_on_c, 1, 37, 0
2, 170456, Note_on_c, 1, 38, 72
2, 170740, Note_on_c, 1, 38, 0
2, 170748, Note_on_c, 1, 26, 69
2, 170772, Note_on_c, 1, 26, 0
2, 170840, Note_on_c, 1, 43, 72
2, 171124, Note_on_c, 1, 43, 0
2, 171132, Note_on_c, 1, 31, 69
2, 171156, Note_on_c, 1, 31, 0
2, 171224, Note_on_c, 1, 36, 72
2, 171504, Note_on_c, 1, 36, 0
2, 171516, Note_on_c, 1, 24, 69
2, 171540, Note_on_c, 1, 24, 0
2, 171608, Note_on_c, 1, 41, 70
2, 171992, Note_on_c, 1, 41, 0
2, 171992, Note_on_c, 1, 34, 86
2, 172356, Note_on_c, 1, 34, 0
2, 172376, Note_on_c, 1, 33, 80
2, 172756, Note_on_c, 1, 33, 0
2, 172760, Note_on_c, 1, 34, 81
2, 173144, Note_on_c, 1, 41, 80
2, 173212, Note_on_c, 1, 34, 0
2, 173524, Note_on_c, 1, 41, 0
2, 173528, Note_on_c, 1, 39, 87
2, 173728, Note_on_c, 1, 39, 0
2, 173820, Note_on_c, 1, 39, 80
2, 173908, Note_on_c, 1, 46, 73
2, 173920, Note_on_c, 1, 39, 0
2, 174296, Note_on_c, 1, 46, 0
2, 174296, Note_on_c, 1, 36, 93
2, 174680, Note_on_c, 1, 36, 0
2, 174680, Note_on_c, 1, 36, 100
2, 175064, Note_on_c, 1, 36, 0
2, 175064, Note_on_c, 1, 41, 93
2, 175448, Note_on_c, 1, 41, 0
2, 175448, Note_on_c, 1, 41, 100
2, 175832, Note_on_c, 1, 41, 0
2, 175832, Note_on_c, 1, 34, 87
2, 176032, Note_on_c, 1, 34, 0
2, 176116, Note_on_c, 1, 34, 80
2, 176216, Note_on_c, 1, 41, 73
2, 176220, Note_on_c, 1, 34, 0
2, 176600, Note_on_c, 1, 41, 0
2, 176600, Note_on_c, 1, 43, 86
2, 176888, Note_on_c, 1, 38, 62
2, 176948, Note_on_c, 1, 38, 0
2, 176972, Note_on_c, 1, 43, 0
2, 176984, Note_on_c, 1, 50, 79
2, 177272, Note_on_c, 1, 50, 0
2, 177276, Note_on_c, 1, 38, 64
2, 177324, Note_on_c, 1, 38, 0
2, 177368, Note_on_c, 1, 36, 91
2, 177752, Note_on_c, 1, 40, 88
2, 177804, Note_on_c, 1, 36, 0
2, 178096, Note_on_c, 1, 40, 0
2, 178136, Note_on_c, 1, 41, 86
2, 178496, Note_on_c, 1, 41, 0
2, 178520, Note_on_c, 1, 33, 80
2, 178896, Note_on_c, 1, 33, 0
2, 178900, Note_on_c, 1, 34, 87
2, 179104, Note_on_c, 1, 34, 0
2, 179196, Note_on_c, 1, 34, 80
2, 179288, Note_on_c, 1, 41, 73
2, 179292, Note_on_c, 1, 34, 0
2, 179672, Note_on_c, 1, 41, 0
2, 179672, Note_on_c, 1, 34, 81
2, 180056, Note_on_c, 1, 41, 80
2, 180124, Note_on_c, 1, 34, 0
2, 180440, Note_on_c, 1, 41, 0
2, 180440, Note_on_c, 1, 39, 98
2, 180724, Note_on_c, 1, 27, 91
2, 180732, Note_on_c, 1, 39, 0
2, 180824, Note_on_c, 1, 27, 0
2, 180824, Note_on_c, 1, 39, 100
2, 181200, Note_on_c, 1, 39, 0
2, 181208, Note_on_c, 1, 44, 81
2, 181592, Note_on_c, 1, 51, 80
2, 181664, Note_on_c, 1, 44, 0
2, 181976, Note_on_c, 1, 51, 0
2, 181976, Note_on_c, 1, 37, 98
2, 182264, Note_on_c, 1, 25, 91
2, 182268, Note_on_c, 1, 37, 0
2, 182356, Note_on_c, 1, 25, 0
2, 182360, Note_on_c, 1, 37, 100
2, 182740, Note_on_c, 1, 37, 0
2, 182744, Note_on_c, 1, 43, 72
2, 183032, Note_on_c, 1, 43, 0
2, 183036, Note_on_c, 1, 31, 69
2, 183060, Note_on_c, 1, 31, 0
2, 183128, Note_on_c, 1, 36, 70
2, 183504, Note_on_c, 1, 36, 0
2, 183508, Note_on_c, 1, 41, 70
2, 183896, Note_on_c, 1, 41, 0
2, 183896, Note_on_c, 1, 34, 72
2, 184184, Note_on_c, 1, 34, 0
2, 184188, Note_on_c, 1, 22, 69
2, 184212, Note_on_c, 1, 22, 0
2, 184280, Note_on_c, 1, 39, 86
2, 184572, Note_on_c, 1, 34, 62
2, 184628, Note_on_c, 1, 34, 0
2, 184652, Note_on_c, 1, 39, 0
2, 184664, Note_on_c, 1, 46, 79
2, 184948, Note_on_c, 1, 46, 0
2, 184948, Note_on_c, 1, 34, 64
2, 185004, Note_on_c, 1, 34, 0
2, 185048, Note_on_c, 1, 41, 86
2, 185408, Note_on_c, 1, 41, 0
2, 185432, Note_on_c, 1, 33, 80
2, 185816, Note_on_c, 1, 33, 0
2, 185816, Note_on_c, 1, 34, 86
2, 186096, Note_on_c, 1, 29, 62
2, 186164, Note_on_c, 1, 29, 0
2, 186188, Note_on_c, 1, 34, 0
2, 186200, Note_on_c, 1, 41, 79
2, 186488, Note_on_c, 1, 41, 0
2, 186488, Note_on_c, 1, 29, 64
2, 186540, Note_on_c, 1, 29, 0
2, 186584, Note_on_c, 1, 43, 98
2, 186872, Note_on_c, 1, 31, 91
2, 186876, Note_on_c, 1, 43, 0
2, 186968, Note_on_c, 1, 31, 0
2, 186968, Note_on_c, 1, 43, 100
2, 187348, Note_on_c, 1, 43, 0
2, 187352, Note_on_c, 1, 36, 87
2, 187552, Note_on_c, 1, 36, 0
2, 187644, Note_on_c, 1, 36, 80
2, 187736, Note_on_c, 1, 43, 73
2, 187740, Note_on_c, 1, 36, 0
2, 188116, Note_on_c, 1, 43, 0
2, 188120, Note_on_c, 1, 41, 82
2, 188332, Note_on_c, 1, 41, 0
2, 188412, Note_on_c, 1, 41, 94
2, 188492, Note_on_c, 1, 41, 0
2, 188500, Note_on_c, 1, 37, 75
2, 188888, Note_on_c, 1, 37, 0
2, 188888, Note_on_c, 1, 38, 93
2, 189272, Note_on_c, 1, 38, 0
2, 189272, Note_on_c, 1, 38, 100
2, 189656, Note_on_c, 1, 38, 0
2, 189656, Note_on_c, 1, 43, 87
2, 189868, Note_on_c, 1, 43, 0
2, 189940, Note_on_c, 1, 43, 80
2, 190040, Note_on_c, 1, 50, 73
2, 190060, Note_on_c, 1, 43, 0
2, 190424, Note_on_c, 1, 50, 0
2, 190424, Note_on_c, 1, 36, 93
2, 190808, Note_on_c, 1, 36, 0
2, 190808, Note_on_c, 1, 36, 100
2, 191192, Note_on_c, 1, 36, 0
2, 191192, Note_on_c, 1, 41, 87
2, 191484, Note_on_c, 1, 29, 64
2, 191540, Note_on_c, 1, 41, 0
2, 191576, Note_on_c, 1, 29, 0
2, 191580, Note_on_c, 1, 42, 87
2, 191956, Note_on_c, 1, 42, 0
2, 191960, Note_on_c, 1, 41, 86
2, 192252, Note_on_c, 1, 36, 62
2, 192304, Note_on_c, 1, 36, 0
2, 192324, Note_on_c, 1, 41, 0
2, 192344, Note_on_c, 1, 48, 79
2, 192628, Note_on_c, 1, 48, 0
2, 192632, Note_on_c, 1, 36, 64
2, 192684, Note_on_c, 1, 36, 0
2, 192728, Note_on_c, 1, 34, 87
2, 192928, Note_on_c, 1, 34, 0
2, 193020, Note_on_c, 1, 34, 80
2, 193108, Note_on_c, 1, 41, 73
2, 193120, Note_on_c, 1, 34, 0
2, 193496, Note_on_c, 1, 41, 0
2, 193496, Note_on_c, 1, 39, 98
2, 193880, Note_on_c, 1, 39, 0
2, 193880, Note_on_c, 1, 45, 105
2, 194264, Note_on_c, 1, 45, 0
2, 194264, Note_on_c, 1, 44, 81
2, 194648, Note_on_c, 1, 51, 80
2, 194720, Note_on_c, 1, 44, 0
2, 195032, Note_on_c, 1, 51, 0
2, 195032, Note_on_c, 1, 38, 72
2, 195316, Note_on_c, 1, 38, 0
2, 195324, Note_on_c, 1, 26, 69
2, 195348, Note_on_c, 1, 26, 0
2, 195416, Note_on_c, 1, 43, 70
2, 195800, Note_on_c, 1, 43, 0
2, 195800, Note_on_c, 1, 36, 70
2, 196184, Note_on_c, 1, 36, 0
2, 196184, Note_on_c, 1, 41, 70
2, 196568, Note_on_c, 1, 41, 0
2, 196568, Note_on_c, 1, 34, 86
2, 196932, Note_on_c, 1, 34, 0
2, 196952, Note_on_c, 1, 40, 80
2, 197332, Note_on_c, 1, 40, 0
2, 197336, Note_on_c, 1, 41, 86
2, 197624, Note_on_c, 1, 36, 62
2, 197688, Note_on_c, 1, 36, 0
2, 197696, Note_on_c, 1, 41, 0
2, 197720, Note_on_c, 1, 48, 79
2, 198004, Note_on_c, 1, 48, 0
2, 198008, Note_on_c, 1, 36, 64
2, 198060, Note_on_c, 1, 36, 0
2, 198100, Note_on_c, 1, 34, 81
2, 198488, Note_on_c, 1, 41, 80
2, 198556, Note_on_c, 1, 34, 0
2, 198872, Note_on_c, 1, 41, 0
2, 198872, Note_on_c, 1, 43, 82
2, 199092, Note_on_c, 1, 43, 0
2, 199156, Note_on_c, 1, 43, 94
2, 199252, Note_on_c, 1, 43, 0
2, 199256, Note_on_c, 1, 35, 75
2, 199640, Note_on_c, 1, 35, 0
2, 199640, Note_on_c, 1, 48, 78
2, 200024, Note_on_c, 1, 43, 77
2, 200076, Note_on_c, 1, 48, 0
2, 200408, Note_on_c, 1, 43, 0
2, 200408, Note_on_c, 1, 41, 82
2, 200628, Note_on_c, 1, 41, 0
2, 200696, Note_on_c, 1, 41, 94
2, 200784, Note_on_c, 1, 41, 0
2, 200792, Note_on_c, 1, 37, 75
2, 201176, Note_on_c, 1, 37, 0
2, 201176, Note_on_c, 1, 50, 78
2, 201560, Note_on_c, 1, 45, 77
2, 201612, Note_on_c, 1, 50, 0
2, 201940, Note_on_c, 1, 45, 0
2, 201944, Note_on_c, 1, 43, 98
2, 202320, Note_on_c, 1, 43, 0
2, 202328, Note_on_c, 1, 37, 105
2, 202704, Note_on_c, 1, 37, 0
2, 202708, Note_on_c, 1, 36, 86
2, 203004, Note_on_c, 1, 31, 62
2, 203068, Note_on_c, 1, 31, 0
2, 203084, Note_on_c, 1, 36, 0
2, 203096, Note_on_c, 1, 43, 79
2, 203380, Note_on_c, 1, 43, 0
2, 203388, Note_on_c, 1, 31, 64
2, 203436, Note_on_c, 1, 31, 0
2, 203480, Note_on_c, 1, 41, 81
2, 203864, Note_on_c, 1, 48, 80
2, 203932, Note_on_c, 1, 41, 0
2, 204248, Note_on_c, 1, 48, 0
2, 204248, Note_on_c, 1, 41, 87
2, 204460, Note_on_c, 1, 41, 0
2, 204532, Note_on_c, 1, 41, 80
2, 204632, Note_on_c, 1, 48, 73
2, 204636, Note_on_c, 1, 41, 0
2, 205016, Note_on_c, 1, 48, 0
2, 205016, Note_on_c, 1, 34, 93
2, 205400, Note_on_c, 1, 34, 0
2, 205400, Note_on_c, 1, 34, 100
2, 205784, Note_on_c, 1, 34, 0
2, 205784, Note_on_c, 1, 39, 81
2, 206168, Note_on_c, 1, 46, 80
2, 206240, Note_on_c, 1, 39, 0
2, 206548, Note_on_c, 1, 46, 0
2, 206552, Note_on_c, 1, 44, 86
2, 206844, Note_on_c, 1, 39, 62
2, 206896, Note_on_c, 1, 39, 0
2, 206916, Note_on_c, 1, 44, 0
2, 206936, Note_on_c, 1, 51, 79
2, 207220, Note_on_c, 1, 51, 0
2, 207228, Note_on_c, 1, 39, 64
2, 207276, Note_on_c, 1, 39, 0
2, 207320, Note_on_c, 1, 38, 72
2, 207608, Note_on_c, 1, 38, 0
2, 207612, Note_on_c, 1, 26, 69
2, 207636, Note_on_c, 1, 26, 0
2, 207700, Note_on_c, 1, 43, 70
2, 208088, Note_on_c, 1, 43, 0
2, 208088, Note_on_c, 1, 36, 72
2, 208376, Note_on_c, 1, 36, 0
2, 208380, Note_on_c, 1, 24, 69
2, 208404, Note_on_c, 1, 24, 0
2, 208472, Note_on_c, 1, 41, 70
2, 208856, Note_on_c, 1, 41, 0
2, 208856, Note_on_c, 1, 34, 86
2, 209140, Note_on_c, 1, 29, 62
2, 209204, Note_on_c, 1, 29, 0
2, 209228, Note_on_c, 1, 34, 0
2, 209240, Note_on_c, 1, 41, 79
2, 209524, Note_on_c, 1, 41, 0
2, 209524, Note_on_c, 1, 29, 64
2, 209580, Note_on_c, 1, 29, 0
2, 209624, Note_on_c, 1, 41, 81
2, 210008, Note_on_c, 1, 48, 80
2, 210080, Note_on_c, 1, 41, 0
2, 210392, Note_on_c, 1, 48, 0
2, 210392, Note_on_c, 1, 34, 82
2, 210604, Note_on_c, 1, 34, 0
2, 210684, Note_on_c, 1, 34, 94
2, 210772, Note_on_c, 1, 34, 0
2, 210776, Note_on_c, 1, 42, 75
2, 211156, Note_on_c, 1, 42, 0
2, 211160, Note_on_c, 1, 43, 87
2, 211452, Note_on_c, 1, 31, 64
2, 211500, Note_on_c, 1, 43, 0
2, 211544, Note_on_c, 1, 31, 0
2, 211548, Note_on_c, 1, 37, 87
2, 211924, Note_on_c, 1, 37, 0
2, 211928, Note_on_c, 1, 36, 93
2, 212304, Note_on_c, 1, 36, 0
2, 212308, Note_on_c, 1, 36, 100
2, 212696, Note_on_c, 1, 36, 0
2, 212696, Note_on_c, 1, 41, 93
2, 213080, Note_on_c, 1, 41, 0
2, 213080, Note_on_c, 1, 41, 100
2, 213464, Note_on_c, 1, 41, 0
2, 213464, Note_on_c, 1, 38, 91
2, 213848, Note_on_c, 1, 41, 88
2, 213896, Note_on_c, 1, 38, 0
2, 214196, Note_on_c, 1, 41, 0
2, 214232, Note_on_c, 1, 43, 86
2, 214596, Note_on_c, 1, 43, 0
2, 214616, Note_on_c, 1, 35, 80
2, 215000, Note_on_c, 1, 35, 0
2, 215000, Note_on_c, 1, 36, 93
2, 215384, Note_on_c, 1, 36, 0
2, 215384, Note_on_c, 1, 36, 100
2, 215768, Note_on_c, 1, 36, 0
2, 215768, Note_on_c, 1, 41, 87
2, 215968, Note_on_c, 1, 41, 0
2, 216060, Note_on_c, 1, 41, 80
2, 216152, Note_on_c, 1, 48, 73
2, 216156, Note_on_c, 1, 41, 0
2, 216532, Note_on_c, 1, 48, 0
2, 216536, Note_on_c, 1, 41, 98
2, 216916, Note_on_c, 1, 41, 0
2, 216920, Note_on_c, 1, 35, 105
2, 217296, Note_on_c, 1, 35, 0
2, 217300, Note_on_c, 1, 46, 78
2, 217688, Note_on_c, 1, 41, 77
2, 217732, Note_on_c, 1, 46, 0
2, 218072, Note_on_c, 1, 41, 0
2, 218072, Note_on_c, 1, 39, 86
2, 218356, Note_on_c, 1, 34, 62
2, 218420, Note_on_c, 1, 34, 0
2, 218444, Note_on_c, 1, 39, 0
2, 218456, Note_on_c, 1, 46, 79
2, 218736, Note_on_c, 1, 46, 0
2, 218740, Note_on_c, 1, 34, 64
2, 218796, Note_on_c, 1, 34, 0
2, 218840, Note_on_c, 1, 44, 81
2, 219224, Note_on_c, 1, 51, 80
2, 219292, Note_on_c, 1, 44, 0
2, 219608, Note_on_c, 1, 51, 0
2, 219608, Note_on_c, 1, 38, 72
2, 219896, Note_on_c, 1, 38, 0
2, 219900, Note_on_c, 1, 26, 69
2, 219916, Note_on_c, 1, 26, 0
2, 219992, Note_on_c, 1, 43, 72
2, 220280, Note_on_c, 1, 43, 0
2, 220284, Note_on_c, 1, 31, 69
2, 220300, Note_on_c, 1, 31, 0
2, 220376, Note_on_c, 1, 36, 72
2, 220664, Note_on_c, 1, 36, 0
2, 220668, Note_on_c, 1, 24, 69
2, 220692, Note_on_c, 1, 24, 0
2, 220760, Note_on_c, 1, 41, 70
2, 221136, Note_on_c, 1, 41, 0
2, 221144, Note_on_c, 1, 34, 81
2, 221528, Note_on_c, 1, 41, 80
2, 221596, Note_on_c, 1, 34, 0
2, 221904, Note_on_c, 1, 41, 0
2, 221908, Note_on_c, 1, 34, 82
2, 222124, Note_on_c, 1, 34, 0
2, 222200, Note_on_c, 1, 34, 94
2, 222292, Note_on_c, 1, 34, 0
2, 222296, Note_on_c, 1, 38, 75
2, 222680, Note_on_c, 1, 38, 0
2, 222680, Note_on_c, 1, 39, 81
2, 223064, Note_on_c, 1, 46, 80
2, 223132, Note_on_c, 1, 39, 0
2, 223448, Note_on_c, 1, 46, 0
2, 223448, Note_on_c, 1, 36, 86
2, 223812, Note_on_c, 1, 36, 0
2, 223832, Note_on_c, 1, 40, 80
2, 224216, Note_on_c, 1, 40, 0
2, 224216, Note_on_c, 1, 41, 82
2, 224436, Note_on_c, 1, 41, 0
2, 224496, Note_on_c, 1, 41, 94
2, 224596, Note_on_c, 1, 41, 0
2, 224600, Note_on_c, 1, 33, 75
2, 224984, Note_on_c, 1, 33, 0
2, 224984, Note_on_c, 1, 34, 87
2, 225276, Note_on_c, 1, 22, 64
2, 225332, Note_on_c, 1, 34, 0
2, 225368, Note_on_c, 1, 22, 0
2, 225372, Note_on_c, 1, 44, 87
2, 225748, Note_on_c, 1, 44, 0
2, 225752, Note_on_c, 1, 43, 98
2, 226040, Note_on_c, 1, 31, 91
2, 226044, Note_on_c, 1, 43, 0
2, 226132, Note_on_c, 1, 31, 0
2, 226136, Note_on_c, 1, 43, 100
2, 226516, Note_on_c, 1, 43, 0
2, 226520, Note_on_c, 1, 36, 86
2, 226888, Note_on_c, 1, 36, 0
2, 226900, Note_on_c, 1, 40, 80
2, 227288, Note_on_c, 1, 40, 0
2, 227288, Note_on_c, 1, 41, 86
2, 227660, Note_on_c, 1, 41, 0
2, 227672, Note_on_c, 1, 33, 80
2, 228056, Note_on_c, 1, 33, 0
2, 228056, Note_on_c, 1, 34, 87
2, 228340, Note_on_c, 1, 22, 64
2, 228400, Note_on_c, 1, 34, 0
2, 228440, Note_on_c, 1, 22, 0
2, 228448, Note_on_c, 1, 35, 87
2, 228824, Note_on_c, 1, 35, 0
2, 228824, Note_on_c, 1, 34, 87
2, 229024, Note_on_c, 1, 34, 0
2, 229104, Note_on_c, 1, 34, 80
2, 229208, Note_on_c, 1, 41, 73
2, 229212, Note_on_c, 1, 34, 0
2, 229592, Note_on_c, 1, 41, 0
2, 229592, Note_on_c, 1, 39, 98
2, 229880, Note_on_c, 1, 27, 91
2, 229884, Note_on_c, 1, 39, 0
2, 229976, Note_on_c, 1, 27, 0
2, 229976, Note_on_c, 1, 39, 100
2, 230356, Note_on_c, 1, 39, 0
2, 230360, Note_on_c, 1, 44, 81
2, 230744, Note_on_c, 1, 51, 80
2, 230816, Note_on_c, 1, 44, 0
2, 231124, Note_on_c, 1, 51, 0
2, 231128, Note_on_c, 1, 37, 91
2, 231508, Note_on_c, 1, 41, 88
2, 231556, Note_on_c, 1, 37, 0
2, 231864, Note_on_c, 1, 41, 0
2, 231896, Note_on_c, 1, 43, 72
2, 232184, Note_on_c, 1, 43, 0
2, 232188, Note_on_c, 1, 31, 69
2, 232212, Note_on_c, 1, 31, 0
2, 232280, Note_on_c, 1, 36, 72
2, 232568, Note_on_c, 1, 36, 0
2, 232572, Note_on_c, 1, 24, 69
2, 232596, Note_on_c, 1, 24, 0
2, 232664, Note_on_c, 1, 41, 70
2, 233048, Note_on_c, 1, 41, 0
2, 233048, Note_on_c, 1, 34, 72
2, 233332, Note_on_c, 1, 34, 0
2, 233340, Note_on_c, 1, 22, 69
2, 233364, Note_on_c, 1, 22, 0
2, 233432, Note_on_c, 1, 39, 82
2, 233652, Note_on_c, 1, 39, 0
2, 233716, Note_on_c, 1, 39, 94
2, 233812, Note_on_c, 1, 39, 0
2, 233816, Note_on_c, 1, 40, 75
2, 234200, Note_on_c, 1, 40, 0
2, 234200, Note_on_c, 1, 41, 81
2, 234584, Note_on_c, 1, 48, 80
2, 234656, Note_on_c, 1, 41, 0
2, 234968, Note_on_c, 1, 48, 0
2, 234968, Note_on_c, 1, 34, 82
2, 235180, Note_on_c, 1, 34, 0
2, 235260, Note_on_c, 1, 34, 94
2, 235348, Note_on_c, 1, 34, 0
2, 235352, Note_on_c, 1, 42, 75
2, 235732, Note_on_c, 1, 42, 0
2, 235736, Note_on_c, 1, 43, 98
2, 236024, Note_on_c, 1, 31, 91
2, 236028, Note_on_c, 1, 43, 0
2, 236116, Note_on_c, 1, 31, 0
2, 236120, Note_on_c, 1, 43, 100
2, 236496, Note_on_c, 1, 43, 0
2, 236500, Note_on_c, 1, 36, 98
2, 236792, Note_on_c, 1, 24, 91
2, 236796, Note_on_c, 1, 36, 0
2, 236888, Note_on_c, 1, 24, 0
2, 236888, Note_on_c, 1, 36, 100
2, 237272, Note_on_c, 1, 36, 0
2, 237272, Note_on_c, 1, 41, 81
2, 237656, Note_on_c, 1, 48, 80
2, 237724, Note_on_c, 1, 41, 0
2, 238040, Note_on_c, 1, 48, 0
2, 238040, Note_on_c, 1, 38, 87
2, 238240, Note_on_c, 1, 38, 0
2, 238320, Note_on_c, 1, 38, 80
2, 238424, Note_on_c, 1, 45, 73
2, 238428, Note_on_c, 1, 38, 0
2, 238808, Note_on_c, 1, 45, 0
2, 238808, Note_on_c, 1, 43, 98
2, 239096, Note_on_c, 1, 31, 91
2, 239100, Note_on_c, 1, 43, 0
2, 239192, Note_on_c, 1, 31, 0
2, 239192, Note_on_c, 1, 43, 100
2, 239572, Note_on_c, 1, 43, 0
2, 239576, Note_on_c, 1, 36, 98
2, 239864, Note_on_c, 1, 24, 91
2, 239868, Note_on_c, 1, 36, 0
2, 239956, Note_on_c, 1, 24, 0
2, 239960, Note_on_c, 1, 36, 100
2, 240340, Note_on_c, 1, 36, 0
2, 240344, Note_on_c, 1, 41, 87
2, 240544, Note_on_c, 1, 41, 0
2, 240636, Note_on_c, 1, 41, 80
2, 240728, Note_on_c, 1, 48, 73
2, 240732, Note_on_c, 1, 41, 0
2, 241104, Note_on_c, 1, 48, 0
2, 241108, Note_on_c, 1, 41, 86
2, 241484, Note_on_c, 1, 41, 0
2, 241496, Note_on_c, 1, 33, 80
2, 241880, Note_on_c, 1, 33, 0
2, 241880, Note_on_c, 1, 34, 86
2, 242172, Note_on_c, 1, 29, 62
2, 242228, Note_on_c, 1, 29, 0
2, 242252, Note_on_c, 1, 34, 0
2, 242264, Note_on_c, 1, 41, 79
2, 242548, Note_on_c, 1, 41, 0
2, 242548, Note_on_c, 1, 29, 64
2, 242604, Note_on_c, 1, 29, 0
2, 242648, Note_on_c, 1, 39, 86
2, 242932, Note_on_c, 1, 34, 62
2, 242996, Note_on_c, 1, 34, 0
2, 243020, Note_on_c, 1, 39, 0
2, 243032, Note_on_c, 1, 46, 79
2, 243316, Note_on_c, 1, 46, 0
2, 243316, Note_on_c, 1, 34, 64
2, 243372, Note_on_c, 1, 34, 0
2, 243416, Note_on_c, 1, 44, 86
2, 243696, Note_on_c, 1, 39, 62
2, 243764, Note_on_c, 1, 39, 0
2, 243788, Note_on_c, 1, 44, 0
2, 243800, Note_on_c, 1, 51, 79
2, 244088, Note_on_c, 1, 51, 0
2, 244088, Note_on_c, 1, 39, 64
2, 244140, Note_on_c, 1, 39, 0
2, 244184, Note_on_c, 1, 38, 70
2, 244568, Note_on_c, 1, 38, 0
2, 244568, Note_on_c, 1, 43, 70
2, 244948, Note_on_c, 1, 43, 0
2, 244952, Note_on_c, 1, 36, 70
2, 245332, Note_on_c, 1, 36, 0
2, 245336, Note_on_c, 1, 41, 70
2, 245716, Note_on_c, 1, 41, 0
2, 245720, Note_on_c, 1, 34, 78
2, 245864, Program_c, 1, 32
2, 245864, Control_c, 1, 123, 0
2, 245864, Control_c, 1, 64, 0
2, 248792, Note_on_c, 1, 34, 0
2, 248832, Note_on_c, 1, 41, 0
2, 248832, Note_on_c, 1, 41, 0
2, 248832, Note_on_c, 1, 41, 0
2, 248832, Note_on_c, 1, 41, 0
2, 248832, Note_on_c, 1, 41, 0
2, 248832, Note_on_c, 1, 41, 0
2, 248832, Note_on_c, 1, 41, 0
2, 248832, Note_on_c, 1, 41, 0
2, 248832, Note_on_c, 1, 41, 0
2, 248832, Note_on_c, 1, 41, 0
2, 248832, Note_on_c, 1, 41, 0
2, 248832, Note_on_c, 1, 41, 0
2, 248832, Note_on_c, 1, 41, 0
2, 248832, Note_on_c, 1, 41, 0
2, 248832, Note_on_c, 1, 41, 0
2, 248832, Note_on_c, 1, 41, 0
2, 249216, Note_on_c, 1, 41, 0
2, 249216, Note_on_c, 1, 41, 0
2, 249216, Note_on_c, 1, 41, 0
2, 249216, Note_on_c, 1, 41, 0
2, 249216, Note_on_c, 1, 41, 0
2, 249216, Note_on_c, 1, 41, 0
2, 249216, Note_on_c, 1, 41, 0
2, 249216, Note_on_c, 1, 41, 0
2, 249216, Note_on_c, 1, 41, 0
2, 249216, Note_on_c, 1, 41, 0
2, 249216, Note_on_c, 1, 41, 0
2, 249216, Note_on_c, 1, 41, 0
2, 249216, Note_on_c, 1, 41, 0
2, 249216, Note_on_c, 1, 41, 0
2, 249216, Note_on_c, 1, 41, 0
2, 249216, Note_on_c, 1, 41, 0
2, 249216, End_track
3, 0, Start_track
3, 0, Title_t, "Guitar - basically just 3rds and 7ths (Guidetones)"
3, 0, Program_c, 2, 24
3, 0, Control_c, 2, 7, 69
3, 0, Program_c, 2, 24
3, 0, Control_c, 2, 64, 0
3, 1500, Note_on_c, 2, 50, 55
3, 1500, Note_on_c, 2, 55, 64
3, 1612, Note_on_c, 2, 55, 0
3, 1692, Note_on_c, 2, 50, 0
3, 1884, Control_c, 2, 64, 127
3, 1884, Note_on_c, 2, 55, 49
3, 1884, Note_on_c, 2, 50, 41
3, 1940, Note_on_c, 2, 50, 0
3, 1972, Note_on_c, 2, 55, 0
3, 1972, Control_c, 2, 64, 0
3, 2264, Note_on_c, 2, 53, 55
3, 2268, Note_on_c, 2, 58, 64
3, 2380, Note_on_c, 2, 58, 0
3, 2460, Note_on_c, 2, 53, 0
3, 2652, Control_c, 2, 64, 127
3, 2652, Note_on_c, 2, 58, 49
3, 2652, Note_on_c, 2, 53, 41
3, 2704, Note_on_c, 2, 53, 0
3, 2740, Note_on_c, 2, 58, 0
3, 2740, Control_c, 2, 64, 0
3, 3032, Note_on_c, 2, 51, 55
3, 3036, Note_on_c, 2, 58, 64
3, 3148, Note_on_c, 2, 58, 0
3, 3228, Note_on_c, 2, 51, 0
3, 3420, Control_c, 2, 64, 127
3, 3420, Note_on_c, 2, 58, 49
3, 3420, Note_on_c, 2, 51, 41
3, 3480, Note_on_c, 2, 51, 0
3, 3500, Note_on_c, 2, 58, 0
3, 3504, Control_c, 2, 64, 0
3, 3800, Note_on_c, 2, 51, 55
3, 3804, Note_on_c, 2, 57, 64
3, 3916, Note_on_c, 2, 57, 0
3, 3996, Note_on_c, 2, 51, 0
3, 4188, Control_c, 2, 64, 127
3, 4188, Note_on_c, 2, 57, 49
3, 4188, Note_on_c, 2, 51, 41
3, 4248, Note_on_c, 2, 51, 0
3, 4276, Note_on_c, 2, 57, 0
3, 4284, Control_c, 2, 64, 0
3, 4572, Note_on_c, 2, 53, 55
3, 4572, Note_on_c, 2, 60, 64
3, 4684, Note_on_c, 2, 60, 0
3, 4764, Note_on_c, 2, 53, 0
3, 4956, Control_c, 2, 64, 127
3, 4956, Note_on_c, 2, 60, 49
3, 4956, Note_on_c, 2, 53, 41
3, 5016, Note_on_c, 2, 53, 0
3, 5044, Note_on_c, 2, 60, 0
3, 5044, Control_c, 2, 64, 0
3, 5336, Note_on_c, 2, 53, 55
3, 5340, Note_on_c, 2, 59, 64
3, 5452, Note_on_c, 2, 59, 0
3, 5532, Note_on_c, 2, 53, 0
3, 5724, Control_c, 2, 64, 127
3, 5724, Note_on_c, 2, 59, 49
3, 5724, Note_on_c, 2, 53, 41
3, 5784, Note_on_c, 2, 53, 0
3, 5812, Note_on_c, 2, 59, 0
3, 5816, Control_c, 2, 64, 0
3, 6104, Note_on_c, 2, 51, 55
3, 6108, Note_on_c, 2, 58, 64
3, 6220, Note_on_c, 2, 58, 0
3, 6300, Note_on_c, 2, 51, 0
3, 6492, Control_c, 2, 64, 127
3, 6492, Note_on_c, 2, 58, 49
3, 6492, Note_on_c, 2, 51, 41
3, 6548, Note_on_c, 2, 51, 0
3, 6580, Note_on_c, 2, 58, 0
3, 6580, Control_c, 2, 64, 0
3, 6876, Note_on_c, 2, 51, 55
3, 6876, Note_on_c, 2, 57, 64
3, 6988, Note_on_c, 2, 57, 0
3, 7068, Note_on_c, 2, 51, 0
3, 7260, Control_c, 2, 64, 127
3, 7260, Note_on_c, 2, 57, 49
3, 7260, Note_on_c, 2, 51, 41
3, 7312, Note_on_c, 2, 51, 0
3, 7348, Note_on_c, 2, 57, 0
3, 7348, Control_c, 2, 64, 0
3, 7644, Note_on_c, 2, 51, 55
3, 7644, Note_on_c, 2, 56, 64
3, 7756, Note_on_c, 2, 56, 0
3, 7836, Note_on_c, 2, 51, 0
3, 8028, Control_c, 2, 64, 127
3, 8028, Note_on_c, 2, 56, 49
3, 8028, Note_on_c, 2, 51, 41
3, 8088, Note_on_c, 2, 51, 0
3, 8108, Note_on_c, 2, 56, 0
3, 8116, Control_c, 2, 64, 0
3, 8412, Note_on_c, 2, 50, 55
3, 8412, Note_on_c, 2, 56, 64
3, 8524, Note_on_c, 2, 56, 0
3, 8604, Note_on_c, 2, 50, 0
3, 8796, Control_c, 2, 64, 127
3, 8796, Note_on_c, 2, 56, 49
3, 8796, Note_on_c, 2, 50, 41
3, 8856, Note_on_c, 2, 50, 0
3, 8884, Note_on_c, 2, 56, 0
3, 8888, Control_c, 2, 64, 0
3, 9180, Note_on_c, 2, 48, 55
3, 9180, Note_on_c, 2, 55, 64
3, 9292, Note_on_c, 2, 55, 0
3, 9372, Note_on_c, 2, 48, 0
3, 9564, Control_c, 2, 64, 127
3, 9564, Note_on_c, 2, 55, 49
3, 9564, Note_on_c, 2, 48, 41
3, 9624, Note_on_c, 2, 48, 0
3, 9652, Note_on_c, 2, 55, 0
3, 9660, Control_c, 2, 64, 0
3, 9944, Note_on_c, 2, 54, 55
3, 9948, Note_on_c, 2, 60, 64
3, 10060, Note_on_c, 2, 60, 0
3, 10140, Note_on_c, 2, 54, 0
3, 10332, Control_c, 2, 64, 127
3, 10332, Note_on_c, 2, 60, 49
3, 10332, Note_on_c, 2, 54, 41
3, 10392, Note_on_c, 2, 54, 0
3, 10420, Note_on_c, 2, 60, 0
3, 10420, Control_c, 2, 64, 0
3, 10712, Note_on_c, 2, 53, 55
3, 10716, Note_on_c, 2, 60, 64
3, 10828, Note_on_c, 2, 60, 0
3, 10908, Note_on_c, 2, 53, 0
3, 11100, Control_c, 2, 64, 0
3, 11100, Control_c, 2, 64, 0
3, 11100, Note_on_c, 2, 53, 55
3, 11100, Note_on_c, 2, 59, 64
3, 11212, Note_on_c, 2, 59, 0
3, 11292, Note_on_c, 2, 53, 0
3, 11484, Control_c, 2, 64, 0
3, 11484, Control_c, 2, 64, 0
3, 11484, Note_on_c, 2, 51, 55
3, 11484, Note_on_c, 2, 58, 64
3, 11596, Note_on_c, 2, 58, 0
3, 11676, Note_on_c, 2, 51, 0
3, 11868, Control_c, 2, 64, 0
3, 11868, Control_c, 2, 64, 0
3, 11868, Note_on_c, 2, 51, 55
3, 11868, Note_on_c, 2, 57, 64
3, 11980, Note_on_c, 2, 57, 0
3, 12060, Note_on_c, 2, 51, 0
3, 12252, Control_c, 2, 64, 0
3, 12252, Control_c, 2, 64, 0
3, 12252, Note_on_c, 2, 50, 55
3, 12252, Note_on_c, 2, 55, 64
3, 12364, Note_on_c, 2, 55, 0
3, 12444, Note_on_c, 2, 50, 0
3, 12636, Control_c, 2, 64, 127
3, 12636, Note_on_c, 2, 55, 49
3, 12636, Note_on_c, 2, 50, 41
3, 12696, Note_on_c, 2, 50, 0
3, 12716, Note_on_c, 2, 55, 0
3, 12724, Control_c, 2, 64, 0
3, 13016, Note_on_c, 2, 51, 55
3, 13020, Note_on_c, 2, 57, 64
3, 13132, Note_on_c, 2, 57, 0
3, 13212, Note_on_c, 2, 51, 0
3, 13404, Control_c, 2, 64, 127
3, 13404, Note_on_c, 2, 57, 49
3, 13404, Note_on_c, 2, 51, 41
3, 13464, Note_on_c, 2, 51, 0
3, 13492, Note_on_c, 2, 57, 0
3, 13496, Control_c, 2, 64, 0
3, 13784, Note_on_c, 2, 50, 55
3, 13788, Note_on_c, 2, 55, 64
3, 13900, Note_on_c, 2, 55, 0
3, 13980, Note_on_c, 2, 50, 0
3, 14168, Control_c, 2, 64, 127
3, 14172, Note_on_c, 2, 55, 49
3, 14172, Note_on_c, 2, 50, 41
3, 14232, Note_on_c, 2, 50, 0
3, 14260, Note_on_c, 2, 55, 0
3, 14268, Control_c, 2, 64, 0
3, 14552, Note_on_c, 2, 53, 55
3, 14556, Note_on_c, 2, 58, 64
3, 14668, Note_on_c, 2, 58, 0
3, 14748, Note_on_c, 2, 53, 0
3, 14940, Control_c, 2, 64, 127
3, 14940, Note_on_c, 2, 58, 49
3, 14940, Note_on_c, 2, 53, 41
3, 15000, Note_on_c, 2, 53, 0
3, 15028, Note_on_c, 2, 58, 0
3, 15032, Control_c, 2, 64, 0
3, 15320, Note_on_c, 2, 51, 55
3, 15324, Note_on_c, 2, 58, 64
3, 15436, Note_on_c, 2, 58, 0
3, 15516, Note_on_c, 2, 51, 0
3, 15704, Control_c, 2, 64, 127
3, 15708, Note_on_c, 2, 58, 49
3, 15708, Note_on_c, 2, 51, 41
3, 15768, Note_on_c, 2, 51, 0
3, 15796, Note_on_c, 2, 58, 0
3, 15796, Control_c, 2, 64, 0
3, 16088, Note_on_c, 2, 51, 55
3, 16092, Note_on_c, 2, 57, 64
3, 16204, Note_on_c, 2, 57, 0
3, 16284, Note_on_c, 2, 51, 0
3, 16476, Control_c, 2, 64, 127
3, 16476, Note_on_c, 2, 57, 49
3, 16476, Note_on_c, 2, 51, 41
3, 16532, Note_on_c, 2, 51, 0
3, 16564, Note_on_c, 2, 57, 0
3, 16564, Control_c, 2, 64, 0
3, 16860, Note_on_c, 2, 53, 55
3, 16860, Note_on_c, 2, 60, 64
3, 16972, Note_on_c, 2, 60, 0
3, 17052, Note_on_c, 2, 53, 0
3, 17244, Control_c, 2, 64, 127
3, 17244, Note_on_c, 2, 60, 49
3, 17244, Note_on_c, 2, 53, 41
3, 17296, Note_on_c, 2, 53, 0
3, 17332, Note_on_c, 2, 60, 0
3, 17332, Control_c, 2, 64, 0
3, 17624, Note_on_c, 2, 53, 55
3, 17628, Note_on_c, 2, 59, 64
3, 17740, Note_on_c, 2, 59, 0
3, 17820, Note_on_c, 2, 53, 0
3, 18012, Control_c, 2, 64, 127
3, 18012, Note_on_c, 2, 59, 49
3, 18012, Note_on_c, 2, 53, 41
3, 18072, Note_on_c, 2, 53, 0
3, 18092, Note_on_c, 2, 59, 0
3, 18096, Control_c, 2, 64, 0
3, 18396, Note_on_c, 2, 51, 55
3, 18396, Note_on_c, 2, 58, 64
3, 18508, Note_on_c, 2, 58, 0
3, 18588, Note_on_c, 2, 51, 0
3, 18780, Control_c, 2, 64, 127
3, 18780, Note_on_c, 2, 58, 49
3, 18780, Note_on_c, 2, 51, 41
3, 18840, Note_on_c, 2, 51, 0
3, 18868, Note_on_c, 2, 58, 0
3, 18876, Control_c, 2, 64, 0
3, 19160, Note_on_c, 2, 51, 55
3, 19164, Note_on_c, 2, 57, 64
3, 19276, Note_on_c, 2, 57, 0
3, 19356, Note_on_c, 2, 51, 0
3, 19548, Control_c, 2, 64, 127
3, 19548, Note_on_c, 2, 57, 49
3, 19548, Note_on_c, 2, 51, 41
3, 19608, Note_on_c, 2, 51, 0
3, 19636, Note_on_c, 2, 57, 0
3, 19640, Control_c, 2, 64, 0
3, 19928, Note_on_c, 2, 51, 55
3, 19932, Note_on_c, 2, 56, 64
3, 20044, Note_on_c, 2, 56, 0
3, 20124, Note_on_c, 2, 51, 0
3, 20312, Control_c, 2, 64, 127
3, 20316, Note_on_c, 2, 56, 49
3, 20316, Note_on_c, 2, 51, 41
3, 20376, Note_on_c, 2, 51, 0
3, 20404, Note_on_c, 2, 56, 0
3, 20404, Control_c, 2, 64, 0
3, 20696, Note_on_c, 2, 50, 55
3, 20700, Note_on_c, 2, 56, 64
3, 20812, Note_on_c, 2, 56, 0
3, 20892, Note_on_c, 2, 50, 0
3, 21084, Control_c, 2, 64, 127
3, 21084, Note_on_c, 2, 56, 49
3, 21084, Note_on_c, 2, 50, 41
3, 21140, Note_on_c, 2, 50, 0
3, 21172, Note_on_c, 2, 56, 0
3, 21172, Control_c, 2, 64, 0
3, 21464, Note_on_c, 2, 48, 55
3, 21468, Note_on_c, 2, 55, 64
3, 21580, Note_on_c, 2, 55, 0
3, 21660, Note_on_c, 2, 48, 0
3, 21852, Control_c, 2, 64, 127
3, 21852, Note_on_c, 2, 55, 49
3, 21852, Note_on_c, 2, 48, 41
3, 21904, Note_on_c, 2, 48, 0
3, 21940, Note_on_c, 2, 55, 0
3, 21940, Control_c, 2, 64, 0
3, 22236, Note_on_c, 2, 54, 55
3, 22236, Note_on_c, 2, 60, 64
3, 22348, Note_on_c, 2, 60, 0
3, 22428, Note_on_c, 2, 54, 0
3, 22620, Control_c, 2, 64, 127
3, 22620, Note_on_c, 2, 60, 49
3, 22620, Note_on_c, 2, 54, 41
3, 22680, Note_on_c, 2, 54, 0
3, 22700, Note_on_c, 2, 60, 0
3, 22704, Control_c, 2, 64, 0
3, 23004, Note_on_c, 2, 53, 55
3, 23004, Note_on_c, 2, 60, 64
3, 23116, Note_on_c, 2, 60, 0
3, 23196, Note_on_c, 2, 53, 0
3, 23388, Control_c, 2, 64, 0
3, 23388, Control_c, 2, 64, 0
3, 23388, Note_on_c, 2, 53, 55
3, 23388, Note_on_c, 2, 59, 64
3, 23500, Note_on_c, 2, 59, 0
3, 23580, Note_on_c, 2, 53, 0
3, 23772, Control_c, 2, 64, 0
3, 23772, Control_c, 2, 64, 0
3, 23772, Note_on_c, 2, 51, 55
3, 23772, Note_on_c, 2, 58, 64
3, 23884, Note_on_c, 2, 58, 0
3, 23964, Note_on_c, 2, 51, 0
3, 24156, Control_c, 2, 64, 0
3, 24156, Control_c, 2, 64, 0
3, 24156, Note_on_c, 2, 51, 55
3, 24156, Note_on_c, 2, 57, 64
3, 24268, Note_on_c, 2, 57, 0
3, 24348, Note_on_c, 2, 51, 0
3, 24540, Control_c, 2, 64, 0
3, 24540, Control_c, 2, 64, 0
3, 24540, Note_on_c, 2, 50, 55
3, 24540, Note_on_c, 2, 55, 64
3, 24652, Note_on_c, 2, 55, 0
3, 24732, Note_on_c, 2, 50, 0
3, 24924, Control_c, 2, 64, 127
3, 24924, Note_on_c, 2, 55, 49
3, 24924, Note_on_c, 2, 50, 41
3, 24984, Note_on_c, 2, 50, 0
3, 25012, Note_on_c, 2, 55, 0
3, 25012, Control_c, 2, 64, 0
3, 25304, Note_on_c, 2, 50, 55
3, 25308, Note_on_c, 2, 56, 64
3, 25420, Note_on_c, 2, 56, 0
3, 25500, Note_on_c, 2, 50, 0
3, 25692, Control_c, 2, 64, 127
3, 25692, Note_on_c, 2, 56, 49
3, 25692, Note_on_c, 2, 50, 41
3, 25748, Note_on_c, 2, 50, 0
3, 25780, Note_on_c, 2, 56, 0
3, 25780, Control_c, 2, 64, 0
3, 26072, Note_on_c, 2, 48, 55
3, 26076, Note_on_c, 2, 55, 64
3, 26188, Note_on_c, 2, 55, 0
3, 26268, Note_on_c, 2, 48, 0
3, 26460, Control_c, 2, 64, 127
3, 26460, Note_on_c, 2, 55, 49
3, 26460, Note_on_c, 2, 48, 41
3, 26516, Note_on_c, 2, 48, 0
3, 26548, Note_on_c, 2, 55, 0
3, 26548, Control_c, 2, 64, 0
3, 26844, Note_on_c, 2, 52, 55
3, 26844, Note_on_c, 2, 58, 64
3, 26956, Note_on_c, 2, 58, 0
3, 27036, Note_on_c, 2, 52, 0
3, 27228, Control_c, 2, 64, 127
3, 27228, Note_on_c, 2, 58, 49
3, 27228, Note_on_c, 2, 52, 41
3, 27288, Note_on_c, 2, 52, 0
3, 27308, Note_on_c, 2, 58, 0
3, 27316, Control_c, 2, 64, 0
3, 27612, Note_on_c, 2, 51, 55
3, 27612, Note_on_c, 2, 56, 64
3, 27724, Note_on_c, 2, 56, 0
3, 27804, Note_on_c, 2, 51, 0
3, 27996, Control_c, 2, 64, 127
3, 27996, Note_on_c, 2, 56, 49
3, 27996, Note_on_c, 2, 51, 41
3, 28056, Note_on_c, 2, 51, 0
3, 28084, Note_on_c, 2, 56, 0
3, 28088, Control_c, 2, 64, 0
3, 28380, Note_on_c, 2, 50, 55
3, 28380, Note_on_c, 2, 56, 64
3, 28492, Note_on_c, 2, 56, 0
3, 28572, Note_on_c, 2, 50, 0
3, 28764, Control_c, 2, 64, 127
3, 28764, Note_on_c, 2, 56, 49
3, 28764, Note_on_c, 2, 50, 41
3, 28824, Note_on_c, 2, 50, 0
3, 28852, Note_on_c, 2, 56, 0
3, 28860, Control_c, 2, 64, 0
3, 29144, Note_on_c, 2, 53, 55
3, 29148, Note_on_c, 2, 58, 64
3, 29260, Note_on_c, 2, 58, 0
3, 29340, Note_on_c, 2, 53, 0
3, 29532, Control_c, 2, 64, 127
3, 29532, Note_on_c, 2, 58, 49
3, 29532, Note_on_c, 2, 53, 41
3, 29592, Note_on_c, 2, 53, 0
3, 29620, Note_on_c, 2, 58, 0
3, 29620, Control_c, 2, 64, 0
3, 29912, Note_on_c, 2, 52, 55
3, 29916, Note_on_c, 2, 58, 64
3, 30028, Note_on_c, 2, 58, 0
3, 30108, Note_on_c, 2, 52, 0
3, 30300, Control_c, 2, 64, 127
3, 30300, Note_on_c, 2, 58, 49
3, 30300, Note_on_c, 2, 52, 41
3, 30356, Note_on_c, 2, 52, 0
3, 30388, Note_on_c, 2, 58, 0
3, 30388, Control_c, 2, 64, 0
3, 30684, Note_on_c, 2, 51, 55
3, 30684, Note_on_c, 2, 56, 64
3, 30796, Note_on_c, 2, 56, 0
3, 30876, Note_on_c, 2, 51, 0
3, 31068, Control_c, 2, 64, 127
3, 31068, Note_on_c, 2, 56, 49
3, 31068, Note_on_c, 2, 51, 41
3, 31120, Note_on_c, 2, 51, 0
3, 31156, Note_on_c, 2, 56, 0
3, 31156, Control_c, 2, 64, 0
3, 31452, Note_on_c, 2, 50, 55
3, 31452, Note_on_c, 2, 56, 64
3, 31564, Note_on_c, 2, 56, 0
3, 31644, Note_on_c, 2, 50, 0
3, 31836, Control_c, 2, 64, 127
3, 31836, Note_on_c, 2, 56, 49
3, 31836, Note_on_c, 2, 50, 41
3, 31896, Note_on_c, 2, 50, 0
3, 31916, Note_on_c, 2, 56, 0
3, 31924, Control_c, 2, 64, 0
3, 32220, Note_on_c, 2, 49, 55
3, 32220, Note_on_c, 2, 56, 64
3, 32332, Note_on_c, 2, 56, 0
3, 32412, Note_on_c, 2, 49, 0
3, 32604, Control_c, 2, 64, 127
3, 32604, Note_on_c, 2, 56, 49
3, 32604, Note_on_c, 2, 49, 41
3, 32664, Note_on_c, 2, 49, 0
3, 32692, Note_on_c, 2, 56, 0
3, 32696, Control_c, 2, 64, 0
3, 32988, Note_on_c, 2, 49, 55
3, 32988, Note_on_c, 2, 55, 64
3, 33100, Note_on_c, 2, 55, 0
3, 33180, Note_on_c, 2, 49, 0
3, 33372, Control_c, 2, 64, 127
3, 33372, Note_on_c, 2, 55, 49
3, 33372, Note_on_c, 2, 49, 41
3, 33432, Note_on_c, 2, 49, 0
3, 33460, Note_on_c, 2, 55, 0
3, 33468, Control_c, 2, 64, 0
3, 33752, Note_on_c, 2, 55, 55
3, 33756, Note_on_c, 2, 60, 64
3, 33868, Note_on_c, 2, 60, 0
3, 33948, Note_on_c, 2, 55, 0
3, 34140, Control_c, 2, 64, 127
3, 34140, Note_on_c, 2, 60, 49
3, 34140, Note_on_c, 2, 55, 41
3, 34200, Note_on_c, 2, 55, 0
3, 34228, Note_on_c, 2, 60, 0
3, 34228, Control_c, 2, 64, 0
3, 34520, Note_on_c, 2, 53, 55
3, 34524, Note_on_c, 2, 59, 64
3, 34636, Note_on_c, 2, 59, 0
3, 34716, Note_on_c, 2, 53, 0
3, 34908, Control_c, 2, 64, 127
3, 34908, Note_on_c, 2, 59, 49
3, 34908, Note_on_c, 2, 53, 41
3, 34968, Note_on_c, 2, 53, 0
3, 34996, Note_on_c, 2, 59, 0
3, 34996, Control_c, 2, 64, 0
3, 35292, Note_on_c, 2, 53, 55
3, 35292, Note_on_c, 2, 58, 64
3, 35404, Note_on_c, 2, 58, 0
3, 35484, Note_on_c, 2, 53, 0
3, 35676, Control_c, 2, 64, 0
3, 35676, Control_c, 2, 64, 0
3, 35676, Note_on_c, 2, 52, 55
3, 35676, Note_on_c, 2, 58, 64
3, 35788, Note_on_c, 2, 58, 0
3, 35868, Note_on_c, 2, 52, 0
3, 36056, Control_c, 2, 64, 0
3, 36060, Control_c, 2, 64, 0
3, 36060, Note_on_c, 2, 51, 55
3, 36060, Note_on_c, 2, 56, 64
3, 36172, Note_on_c, 2, 56, 0
3, 36252, Note_on_c, 2, 51, 0
3, 36444, Control_c, 2, 64, 0
3, 36444, Control_c, 2, 64, 0
3, 36444, Note_on_c, 2, 50, 55
3, 36444, Note_on_c, 2, 56, 64
3, 36556, Note_on_c, 2, 56, 0
3, 36636, Note_on_c, 2, 50, 0
3, 36824, Control_c, 2, 64, 0
3, 36824, Control_c, 2, 64, 0
3, 36828, Note_on_c, 2, 48, 55
3, 36828, Note_on_c, 2, 55, 64
3, 36940, Note_on_c, 2, 55, 0
3, 37020, Note_on_c, 2, 48, 0
3, 37212, Control_c, 2, 64, 127
3, 37212, Note_on_c, 2, 55, 49
3, 37212, Note_on_c, 2, 48, 41
3, 37272, Note_on_c, 2, 48, 0
3, 37292, Note_on_c, 2, 55, 0
3, 37296, Control_c, 2, 64, 0
3, 37596, Note_on_c, 2, 51, 55
3, 37596, Note_on_c, 2, 57, 64
3, 37708, Note_on_c, 2, 57, 0
3, 37788, Note_on_c, 2, 51, 0
3, 37980, Control_c, 2, 64, 127
3, 37980, Note_on_c, 2, 57, 49
3, 37980, Note_on_c, 2, 51, 41
3, 38040, Note_on_c, 2, 51, 0
3, 38072, Note_on_c, 2, 57, 0
3, 38076, Control_c, 2, 64, 0
3, 38360, Note_on_c, 2, 50, 55
3, 38364, Note_on_c, 2, 55, 64
3, 38476, Note_on_c, 2, 55, 0
3, 38556, Note_on_c, 2, 50, 0
3, 38748, Control_c, 2, 64, 127
3, 38748, Note_on_c, 2, 55, 49
3, 38748, Note_on_c, 2, 50, 41
3, 38808, Note_on_c, 2, 50, 0
3, 38836, Note_on_c, 2, 55, 0
3, 38836, Control_c, 2, 64, 0
3, 39128, Note_on_c, 2, 53, 55
3, 39132, Note_on_c, 2, 58, 64
3, 39244, Note_on_c, 2, 58, 0
3, 39324, Note_on_c, 2, 53, 0
3, 39516, Control_c, 2, 64, 127
3, 39516, Note_on_c, 2, 58, 49
3, 39516, Note_on_c, 2, 53, 41
3, 39576, Note_on_c, 2, 53, 0
3, 39604, Note_on_c, 2, 58, 0
3, 39608, Control_c, 2, 64, 0
3, 39896, Note_on_c, 2, 51, 55
3, 39900, Note_on_c, 2, 58, 64
3, 40012, Note_on_c, 2, 58, 0
3, 40092, Note_on_c, 2, 51, 0
3, 40284, Control_c, 2, 64, 127
3, 40284, Note_on_c, 2, 58, 49
3, 40284, Note_on_c, 2, 51, 41
3, 40340, Note_on_c, 2, 51, 0
3, 40372, Note_on_c, 2, 58, 0
3, 40372, Control_c, 2, 64, 0
3, 40664, Note_on_c, 2, 51, 55
3, 40668, Note_on_c, 2, 57, 64
3, 40780, Note_on_c, 2, 57, 0
3, 40860, Note_on_c, 2, 51, 0
3, 41052, Control_c, 2, 64, 127
3, 41052, Note_on_c, 2, 57, 49
3, 41052, Note_on_c, 2, 51, 41
3, 41104, Note_on_c, 2, 51, 0
3, 41140, Note_on_c, 2, 57, 0
3, 41140, Control_c, 2, 64, 0
3, 41436, Note_on_c, 2, 53, 55
3, 41436, Note_on_c, 2, 60, 64
3, 41548, Note_on_c, 2, 60, 0
3, 41628, Note_on_c, 2, 53, 0
3, 41820, Control_c, 2, 64, 127
3, 41820, Note_on_c, 2, 60, 49
3, 41820, Note_on_c, 2, 53, 41
3, 41880, Note_on_c, 2, 53, 0
3, 41900, Note_on_c, 2, 60, 0
3, 41904, Control_c, 2, 64, 0
3, 42200, Note_on_c, 2, 53, 55
3, 42204, Note_on_c, 2, 59, 64
3, 42316, Note_on_c, 2, 59, 0
3, 42396, Note_on_c, 2, 53, 0
3, 42588, Control_c, 2, 64, 127
3, 42588, Note_on_c, 2, 59, 49
3, 42588, Note_on_c, 2, 53, 41
3, 42648, Note_on_c, 2, 53, 0
3, 42676, Note_on_c, 2, 59, 0
3, 42684, Control_c, 2, 64, 0
3, 42972, Note_on_c, 2, 51, 55
3, 42972, Note_on_c, 2, 58, 64
3, 43084, Note_on_c, 2, 58, 0
3, 43164, Note_on_c, 2, 51, 0
3, 43356, Control_c, 2, 64, 127
3, 43356, Note_on_c, 2, 58, 49
3, 43356, Note_on_c, 2, 51, 41
3, 43416, Note_on_c, 2, 51, 0
3, 43444, Note_on_c, 2, 58, 0
3, 43444, Control_c, 2, 64, 0
3, 43736, Note_on_c, 2, 51, 55
3, 43740, Note_on_c, 2, 57, 64
3, 43852, Note_on_c, 2, 57, 0
3, 43932, Note_on_c, 2, 51, 0
3, 44124, Control_c, 2, 64, 127
3, 44124, Note_on_c, 2, 57, 49
3, 44124, Note_on_c, 2, 51, 41
3, 44184, Note_on_c, 2, 51, 0
3, 44212, Note_on_c, 2, 57, 0
3, 44216, Control_c, 2, 64, 0
3, 44504, Note_on_c, 2, 51, 55
3, 44508, Note_on_c, 2, 56, 64
3, 44620, Note_on_c, 2, 56, 0
3, 44700, Note_on_c, 2, 51, 0
3, 44892, Control_c, 2, 64, 127
3, 44892, Note_on_c, 2, 56, 49
3, 44892, Note_on_c, 2, 51, 41
3, 44948, Note_on_c, 2, 51, 0
3, 44980, Note_on_c, 2, 56, 0
3, 44980, Control_c, 2, 64, 0
3, 45276, Note_on_c, 2, 50, 55
3, 45276, Note_on_c, 2, 56, 64
3, 45388, Note_on_c, 2, 56, 0
3, 45468, Note_on_c, 2, 50, 0
3, 45660, Control_c, 2, 64, 127
3, 45660, Note_on_c, 2, 56, 49
3, 45660, Note_on_c, 2, 50, 41
3, 45716, Note_on_c, 2, 50, 0
3, 45748, Note_on_c, 2, 56, 0
3, 45748, Control_c, 2, 64, 0
3, 46040, Note_on_c, 2, 48, 55
3, 46044, Note_on_c, 2, 55, 64
3, 46156, Note_on_c, 2, 55, 0
3, 46236, Note_on_c, 2, 48, 0
3, 46428, Control_c, 2, 64, 127
3, 46428, Note_on_c, 2, 55, 49
3, 46428, Note_on_c, 2, 48, 41
3, 46488, Note_on_c, 2, 48, 0
3, 46508, Note_on_c, 2, 55, 0
3, 46516, Control_c, 2, 64, 0
3, 46808, Note_on_c, 2, 54, 55
3, 46812, Note_on_c, 2, 60, 64
3, 46924, Note_on_c, 2, 60, 0
3, 47004, Note_on_c, 2, 54, 0
3, 47196, Control_c, 2, 64, 127
3, 47196, Note_on_c, 2, 60, 49
3, 47196, Note_on_c, 2, 54, 41
3, 47256, Note_on_c, 2, 54, 0
3, 47284, Note_on_c, 2, 60, 0
3, 47288, Control_c, 2, 64, 0
3, 47580, Note_on_c, 2, 53, 55
3, 47580, Note_on_c, 2, 60, 64
3, 47692, Note_on_c, 2, 60, 0
3, 47772, Note_on_c, 2, 53, 0
3, 47964, Control_c, 2, 64, 0
3, 47964, Control_c, 2, 64, 0
3, 47964, Note_on_c, 2, 53, 55
3, 47964, Note_on_c, 2, 59, 64
3, 48076, Note_on_c, 2, 59, 0
3, 48156, Note_on_c, 2, 53, 0
3, 48348, Control_c, 2, 64, 0
3, 48348, Control_c, 2, 64, 0
3, 48348, Note_on_c, 2, 51, 55
3, 48348, Note_on_c, 2, 58, 64
3, 48460, Note_on_c, 2, 58, 0
3, 48540, Note_on_c, 2, 51, 0
3, 48732, Control_c, 2, 64, 0
3, 48732, Control_c, 2, 64, 0
3, 48732, Note_on_c, 2, 51, 55
3, 48732, Note_on_c, 2, 57, 64
3, 48844, Note_on_c, 2, 57, 0
3, 48924, Note_on_c, 2, 51, 0
3, 49112, Control_c, 2, 64, 0
3, 49112, Control_c, 2, 64, 0
3, 49116, Note_on_c, 2, 50, 55
3, 49116, Note_on_c, 2, 55, 64
3, 49228, Note_on_c, 2, 55, 0
3, 49308, Note_on_c, 2, 50, 0
3, 49500, Control_c, 2, 64, 127
3, 49500, Note_on_c, 2, 55, 49
3, 49500, Note_on_c, 2, 50, 41
3, 49556, Note_on_c, 2, 50, 0
3, 49588, Note_on_c, 2, 55, 0
3, 49588, Control_c, 2, 64, 0
3, 49884, Note_on_c, 2, 51, 55
3, 49884, Note_on_c, 2, 57, 64
3, 49996, Note_on_c, 2, 57, 0
3, 50076, Note_on_c, 2, 51, 0
3, 50268, Control_c, 2, 64, 127
3, 50268, Note_on_c, 2, 57, 49
3, 50268, Note_on_c, 2, 51, 41
3, 50324, Note_on_c, 2, 51, 0
3, 50356, Note_on_c, 2, 57, 0
3, 50356, Control_c, 2, 64, 0
3, 50652, Note_on_c, 2, 50, 55
3, 50652, Note_on_c, 2, 55, 64
3, 50764, Note_on_c, 2, 55, 0
3, 50844, Note_on_c, 2, 50, 0
3, 51032, Control_c, 2, 64, 127
3, 51036, Note_on_c, 2, 55, 49
3, 51036, Note_on_c, 2, 50, 41
3, 51096, Note_on_c, 2, 50, 0
3, 51116, Note_on_c, 2, 55, 0
3, 51124, Control_c, 2, 64, 0
3, 51416, Note_on_c, 2, 53, 55
3, 51420, Note_on_c, 2, 58, 64
3, 51532, Note_on_c, 2, 58, 0
3, 51612, Note_on_c, 2, 53, 0
3, 51804, Control_c, 2, 64, 127
3, 51804, Note_on_c, 2, 58, 49
3, 51804, Note_on_c, 2, 53, 41
3, 51864, Note_on_c, 2, 53, 0
3, 51892, Note_on_c, 2, 58, 0
3, 51896, Control_c, 2, 64, 0
3, 52188, Note_on_c, 2, 51, 55
3, 52188, Note_on_c, 2, 58, 64
3, 52300, Note_on_c, 2, 58, 0
3, 52380, Note_on_c, 2, 51, 0
3, 52572, Control_c, 2, 64, 127
3, 52572, Note_on_c, 2, 58, 49
3, 52572, Note_on_c, 2, 51, 41
3, 52632, Note_on_c, 2, 51, 0
3, 52660, Note_on_c, 2, 58, 0
3, 52668, Control_c, 2, 64, 0
3, 52952, Note_on_c, 2, 51, 55
3, 52956, Note_on_c, 2, 57, 64
3, 53068, Note_on_c, 2, 57, 0
3, 53148, Note_on_c, 2, 51, 0
3, 53340, Control_c, 2, 64, 127
3, 53340, Note_on_c, 2, 57, 49
3, 53340, Note_on_c, 2, 51, 41
3, 53400, Note_on_c, 2, 51, 0
3, 53428, Note_on_c, 2, 57, 0
3, 53432, Control_c, 2, 64, 0
3, 53720, Note_on_c, 2, 53, 55
3, 53724, Note_on_c, 2, 60, 64
3, 53836, Note_on_c, 2, 60, 0
3, 53916, Note_on_c, 2, 53, 0
3, 54108, Control_c, 2, 64, 127
3, 54108, Note_on_c, 2, 60, 49
3, 54108, Note_on_c, 2, 53, 41
3, 54168, Note_on_c, 2, 53, 0
3, 54196, Note_on_c, 2, 60, 0
3, 54196, Control_c, 2, 64, 0
3, 54488, Note_on_c, 2, 53, 55
3, 54492, Note_on_c, 2, 59, 64
3, 54604, Note_on_c, 2, 59, 0
3, 54684, Note_on_c, 2, 53, 0
3, 54876, Control_c, 2, 64, 127
3, 54876, Note_on_c, 2, 59, 49
3, 54876, Note_on_c, 2, 53, 41
3, 54932, Note_on_c, 2, 53, 0
3, 54964, Note_on_c, 2, 59, 0
3, 54964, Control_c, 2, 64, 0
3, 55260, Note_on_c, 2, 51, 55
3, 55260, Note_on_c, 2, 58, 64
3, 55372, Note_on_c, 2, 58, 0
3, 55452, Note_on_c, 2, 51, 0
3, 55644, Control_c, 2, 64, 127
3, 55644, Note_on_c, 2, 58, 49
3, 55644, Note_on_c, 2, 51, 41
3, 55696, Note_on_c, 2, 51, 0
3, 55732, Note_on_c, 2, 58, 0
3, 55732, Control_c, 2, 64, 0
3, 56028, Note_on_c, 2, 51, 55
3, 56028, Note_on_c, 2, 57, 64
3, 56140, Note_on_c, 2, 57, 0
3, 56220, Note_on_c, 2, 51, 0
3, 56412, Control_c, 2, 64, 127
3, 56412, Note_on_c, 2, 57, 49
3, 56412, Note_on_c, 2, 51, 41
3, 56472, Note_on_c, 2, 51, 0
3, 56492, Note_on_c, 2, 57, 0
3, 56496, Control_c, 2, 64, 0
3, 56796, Note_on_c, 2, 51, 55
3, 56796, Note_on_c, 2, 56, 64
3, 56908, Note_on_c, 2, 56, 0
3, 56988, Note_on_c, 2, 51, 0
3, 57180, Control_c, 2, 64, 127
3, 57180, Note_on_c, 2, 56, 49
3, 57180, Note_on_c, 2, 51, 41
3, 57240, Note_on_c, 2, 51, 0
3, 57268, Note_on_c, 2, 56, 0
3, 57276, Control_c, 2, 64, 0
3, 57560, Note_on_c, 2, 50, 55
3, 57564, Note_on_c, 2, 56, 64
3, 57676, Note_on_c, 2, 56, 0
3, 57756, Note_on_c, 2, 50, 0
3, 57948, Control_c, 2, 64, 127
3, 57948, Note_on_c, 2, 56, 49
3, 57948, Note_on_c, 2, 50, 41
3, 58008, Note_on_c, 2, 50, 0
3, 58036, Note_on_c, 2, 56, 0
3, 58036, Control_c, 2, 64, 0
3, 58332, Note_on_c, 2, 48, 55
3, 58332, Note_on_c, 2, 55, 64
3, 58444, Note_on_c, 2, 55, 0
3, 58524, Note_on_c, 2, 48, 0
3, 58712, Control_c, 2, 64, 127
3, 58716, Note_on_c, 2, 55, 49
3, 58716, Note_on_c, 2, 48, 41
3, 58776, Note_on_c, 2, 48, 0
3, 58804, Note_on_c, 2, 55, 0
3, 58804, Control_c, 2, 64, 0
3, 59100, Note_on_c, 2, 54, 55
3, 59100, Note_on_c, 2, 60, 64
3, 59212, Note_on_c, 2, 60, 0
3, 59292, Note_on_c, 2, 54, 0
3, 59484, Control_c, 2, 64, 127
3, 59484, Note_on_c, 2, 60, 49
3, 59484, Note_on_c, 2, 54, 41
3, 59540, Note_on_c, 2, 54, 0
3, 59572, Note_on_c, 2, 60, 0
3, 59572, Control_c, 2, 64, 0
3, 59864, Note_on_c, 2, 53, 55
3, 59868, Note_on_c, 2, 60, 64
3, 59980, Note_on_c, 2, 60, 0
3, 60060, Note_on_c, 2, 53, 0
3, 60252, Control_c, 2, 64, 0
3, 60252, Control_c, 2, 64, 0
3, 60252, Note_on_c, 2, 53, 55
3, 60252, Note_on_c, 2, 59, 64
3, 60364, Note_on_c, 2, 59, 0
3, 60444, Note_on_c, 2, 53, 0
3, 60632, Control_c, 2, 64, 0
3, 60636, Control_c, 2, 64, 0
3, 60636, Note_on_c, 2, 51, 55
3, 60636, Note_on_c, 2, 58, 64
3, 60748, Note_on_c, 2, 58, 0
3, 60828, Note_on_c, 2, 51, 0
3, 61020, Control_c, 2, 64, 0
3, 61020, Control_c, 2, 64, 0
3, 61020, Note_on_c, 2, 51, 55
3, 61020, Note_on_c, 2, 57, 64
3, 61132, Note_on_c, 2, 57, 0
3, 61212, Note_on_c, 2, 51, 0
3, 61400, Control_c, 2, 64, 0
3, 61404, Control_c, 2, 64, 0
3, 61404, Note_on_c, 2, 50, 55
3, 61404, Note_on_c, 2, 55, 64
3, 61516, Note_on_c, 2, 55, 0
3, 61596, Note_on_c, 2, 50, 0
3, 61784, Control_c, 2, 64, 127
3, 61788, Note_on_c, 2, 55, 49
3, 61788, Note_on_c, 2, 50, 41
3, 61848, Note_on_c, 2, 50, 0
3, 61876, Note_on_c, 2, 55, 0
3, 61884, Control_c, 2, 64, 0
3, 62172, Note_on_c, 2, 51, 55
3, 62172, Note_on_c, 2, 57, 64
3, 62284, Note_on_c, 2, 57, 0
3, 62364, Note_on_c, 2, 51, 0
3, 62556, Control_c, 2, 64, 127
3, 62556, Note_on_c, 2, 57, 49
3, 62556, Note_on_c, 2, 51, 41
3, 62616, Note_on_c, 2, 51, 0
3, 62644, Note_on_c, 2, 57, 0
3, 62644, Control_c, 2, 64, 0
3, 62936, Note_on_c, 2, 50, 55
3, 62940, Note_on_c, 2, 55, 64
3, 63052, Note_on_c, 2, 55, 0
3, 63132, Note_on_c, 2, 50, 0
3, 63324, Control_c, 2, 64, 127
3, 63324, Note_on_c, 2, 55, 49
3, 63324, Note_on_c, 2, 50, 41
3, 63384, Note_on_c, 2, 50, 0
3, 63412, Note_on_c, 2, 55, 0
3, 63412, Control_c, 2, 64, 0
3, 63704, Note_on_c, 2, 53, 55
3, 63708, Note_on_c, 2, 58, 64
3, 63820, Note_on_c, 2, 58, 0
3, 63900, Note_on_c, 2, 53, 0
3, 64092, Control_c, 2, 64, 127
3, 64092, Note_on_c, 2, 58, 49
3, 64092, Note_on_c, 2, 53, 41
3, 64148, Note_on_c, 2, 53, 0
3, 64180, Note_on_c, 2, 58, 0
3, 64180, Control_c, 2, 64, 0
3, 64476, Note_on_c, 2, 51, 55
3, 64476, Note_on_c, 2, 58, 64
3, 64588, Note_on_c, 2, 58, 0
3, 64668, Note_on_c, 2, 51, 0
3, 64860, Control_c, 2, 64, 127
3, 64860, Note_on_c, 2, 58, 49
3, 64860, Note_on_c, 2, 51, 41
3, 64916, Note_on_c, 2, 51, 0
3, 64948, Note_on_c, 2, 58, 0
3, 64948, Control_c, 2, 64, 0
3, 65244, Note_on_c, 2, 51, 55
3, 65244, Note_on_c, 2, 57, 64
3, 65356, Note_on_c, 2, 57, 0
3, 65436, Note_on_c, 2, 51, 0
3, 65628, Control_c, 2, 64, 127
3, 65628, Note_on_c, 2, 57, 49
3, 65628, Note_on_c, 2, 51, 41
3, 65688, Note_on_c, 2, 51, 0
3, 65708, Note_on_c, 2, 57, 0
3, 65716, Control_c, 2, 64, 0
3, 66012, Note_on_c, 2, 53, 55
3, 66012, Note_on_c, 2, 60, 64
3, 66124, Note_on_c, 2, 60, 0
3, 66204, Note_on_c, 2, 53, 0
3, 66396, Control_c, 2, 64, 127
3, 66396, Note_on_c, 2, 60, 49
3, 66396, Note_on_c, 2, 53, 41
3, 66456, Note_on_c, 2, 53, 0
3, 66484, Note_on_c, 2, 60, 0
3, 66488, Control_c, 2, 64, 0
3, 66780, Note_on_c, 2, 53, 55
3, 66780, Note_on_c, 2, 59, 64
3, 66892, Note_on_c, 2, 59, 0
3, 66972, Note_on_c, 2, 53, 0
3, 67164, Control_c, 2, 64, 127
3, 67164, Note_on_c, 2, 59, 49
3, 67164, Note_on_c, 2, 53, 41
3, 67224, Note_on_c, 2, 53, 0
3, 67252, Note_on_c, 2, 59, 0
3, 67260, Control_c, 2, 64, 0
3, 67544, Note_on_c, 2, 51, 55
3, 67548, Note_on_c, 2, 58, 64
3, 67660, Note_on_c, 2, 58, 0
3, 67740, Note_on_c, 2, 51, 0
3, 67932, Control_c, 2, 64, 127
3, 67932, Note_on_c, 2, 58, 49
3, 67932, Note_on_c, 2, 51, 41
3, 67992, Note_on_c, 2, 51, 0
3, 68020, Note_on_c, 2, 58, 0
3, 68020, Control_c, 2, 64, 0
3, 68308, Note_on_c, 2, 51, 55
3, 68316, Note_on_c, 2, 57, 64
3, 68428, Note_on_c, 2, 57, 0
3, 68508, Note_on_c, 2, 51, 0
3, 68700, Control_c, 2, 64, 127
3, 68700, Note_on_c, 2, 57, 49
3, 68700, Note_on_c, 2, 51, 41
3, 68756, Note_on_c, 2, 51, 0
3, 68788, Note_on_c, 2, 57, 0
3, 68788, Control_c, 2, 64, 0
3, 69084, Note_on_c, 2, 51, 55
3, 69084, Note_on_c, 2, 56, 64
3, 69196, Note_on_c, 2, 56, 0
3, 69276, Note_on_c, 2, 51, 0
3, 69468, Control_c, 2, 64, 127
3, 69468, Note_on_c, 2, 56, 49
3, 69468, Note_on_c, 2, 51, 41
3, 69524, Note_on_c, 2, 51, 0
3, 69556, Note_on_c, 2, 56, 0
3, 69556, Control_c, 2, 64, 0
3, 69848, Note_on_c, 2, 50, 55
3, 69852, Note_on_c, 2, 56, 64
3, 69964, Note_on_c, 2, 56, 0
3, 70044, Note_on_c, 2, 50, 0
3, 70236, Control_c, 2, 64, 127
3, 70236, Note_on_c, 2, 56, 49
3, 70236, Note_on_c, 2, 50, 41
3, 70296, Note_on_c, 2, 50, 0
3, 70320, Note_on_c, 2, 56, 0
3, 70328, Control_c, 2, 64, 0
3, 70616, Note_on_c, 2, 48, 55
3, 70620, Note_on_c, 2, 55, 64
3, 70732, Note_on_c, 2, 55, 0
3, 70812, Note_on_c, 2, 48, 0
3, 71004, Control_c, 2, 64, 127
3, 71004, Note_on_c, 2, 55, 49
3, 71004, Note_on_c, 2, 48, 41
3, 71064, Note_on_c, 2, 48, 0
3, 71092, Note_on_c, 2, 55, 0
3, 71096, Control_c, 2, 64, 0
3, 71384, Note_on_c, 2, 54, 55
3, 71388, Note_on_c, 2, 60, 64
3, 71500, Note_on_c, 2, 60, 0
3, 71580, Note_on_c, 2, 54, 0
3, 71772, Control_c, 2, 64, 127
3, 71772, Note_on_c, 2, 60, 49
3, 71772, Note_on_c, 2, 54, 41
3, 71832, Note_on_c, 2, 54, 0
3, 71860, Note_on_c, 2, 60, 0
3, 71868, Control_c, 2, 64, 0
3, 72156, Note_on_c, 2, 53, 55
3, 72156, Note_on_c, 2, 60, 64
3, 72268, Note_on_c, 2, 60, 0
3, 72348, Note_on_c, 2, 53, 0
3, 72536, Control_c, 2, 64, 0
3, 72540, Control_c, 2, 64, 0
3, 72540, Note_on_c, 2, 53, 55
3, 72540, Note_on_c, 2, 59, 64
3, 72652, Note_on_c, 2, 59, 0
3, 72732, Note_on_c, 2, 53, 0
3, 72920, Control_c, 2, 64, 0
3, 72924, Control_c, 2, 64, 0
3, 72924, Note_on_c, 2, 51, 55
3, 72924, Note_on_c, 2, 58, 64
3, 73036, Note_on_c, 2, 58, 0
3, 73116, Note_on_c, 2, 51, 0
3, 73304, Control_c, 2, 64, 0
3, 73308, Control_c, 2, 64, 0
3, 73308, Note_on_c, 2, 51, 55
3, 73312, Note_on_c, 2, 57, 64
3, 73420, Note_on_c, 2, 57, 0
3, 73500, Note_on_c, 2, 51, 0
3, 73688, Control_c, 2, 64, 0
3, 73688, Control_c, 2, 64, 0
3, 73692, Note_on_c, 2, 50, 55
3, 73692, Note_on_c, 2, 55, 64
3, 73804, Note_on_c, 2, 55, 0
3, 73884, Note_on_c, 2, 50, 0
3, 74076, Control_c, 2, 64, 127
3, 74076, Note_on_c, 2, 55, 49
3, 74076, Note_on_c, 2, 50, 41
3, 74132, Note_on_c, 2, 50, 0
3, 74164, Note_on_c, 2, 55, 0
3, 74164, Control_c, 2, 64, 0
3, 74460, Note_on_c, 2, 50, 55
3, 74460, Note_on_c, 2, 56, 64
3, 74572, Note_on_c, 2, 56, 0
3, 74652, Note_on_c, 2, 50, 0
3, 74844, Control_c, 2, 64, 127
3, 74844, Note_on_c, 2, 56, 49
3, 74844, Note_on_c, 2, 50, 41
3, 74896, Note_on_c, 2, 50, 0
3, 74932, Note_on_c, 2, 56, 0
3, 74932, Control_c, 2, 64, 0
3, 75228, Note_on_c, 2, 48, 55
3, 75228, Note_on_c, 2, 55, 64
3, 75340, Note_on_c, 2, 55, 0
3, 75420, Note_on_c, 2, 48, 0
3, 75612, Control_c, 2, 64, 127
3, 75612, Note_on_c, 2, 55, 49
3, 75612, Note_on_c, 2, 48, 41
3, 75672, Note_on_c, 2, 48, 0
3, 75692, Note_on_c, 2, 55, 0
3, 75696, Control_c, 2, 64, 0
3, 75996, Note_on_c, 2, 52, 55
3, 75996, Note_on_c, 2, 58, 64
3, 76108, Note_on_c, 2, 58, 0
3, 76188, Note_on_c, 2, 52, 0
3, 76380, Control_c, 2, 64, 127
3, 76380, Note_on_c, 2, 58, 49
3, 76380, Note_on_c, 2, 52, 41
3, 76440, Note_on_c, 2, 52, 0
3, 76468, Note_on_c, 2, 58, 0
3, 76476, Control_c, 2, 64, 0
3, 76760, Note_on_c, 2, 51, 55
3, 76764, Note_on_c, 2, 56, 64
3, 76876, Note_on_c, 2, 56, 0
3, 76956, Note_on_c, 2, 51, 0
3, 77148, Control_c, 2, 64, 127
3, 77148, Note_on_c, 2, 56, 49
3, 77148, Note_on_c, 2, 51, 41
3, 77208, Note_on_c, 2, 51, 0
3, 77236, Note_on_c, 2, 56, 0
3, 77236, Control_c, 2, 64, 0
3, 77528, Note_on_c, 2, 50, 55
3, 77532, Note_on_c, 2, 56, 64
3, 77644, Note_on_c, 2, 56, 0
3, 77724, Note_on_c, 2, 50, 0
3, 77912, Control_c, 2, 64, 127
3, 77916, Note_on_c, 2, 56, 49
3, 77920, Note_on_c, 2, 50, 41
3, 77976, Note_on_c, 2, 50, 0
3, 78004, Note_on_c, 2, 56, 0
3, 78008, Control_c, 2, 64, 0
3, 78296, Note_on_c, 2, 53, 55
3, 78300, Note_on_c, 2, 58, 64
3, 78412, Note_on_c, 2, 58, 0
3, 78492, Note_on_c, 2, 53, 0
3, 78684, Control_c, 2, 64, 127
3, 78684, Note_on_c, 2, 58, 49
3, 78684, Note_on_c, 2, 53, 41
3, 78740, Note_on_c, 2, 53, 0
3, 78772, Note_on_c, 2, 58, 0
3, 78772, Control_c, 2, 64, 0
3, 79068, Note_on_c, 2, 52, 55
3, 79068, Note_on_c, 2, 58, 64
3, 79180, Note_on_c, 2, 58, 0
3, 79260, Note_on_c, 2, 52, 0
3, 79452, Control_c, 2, 64, 127
3, 79452, Note_on_c, 2, 58, 49
3, 79452, Note_on_c, 2, 52, 41
3, 79504, Note_on_c, 2, 52, 0
3, 79540, Note_on_c, 2, 58, 0
3, 79540, Control_c, 2, 64, 0
3, 79836, Note_on_c, 2, 51, 55
3, 79836, Note_on_c, 2, 56, 64
3, 79948, Note_on_c, 2, 56, 0
3, 80028, Note_on_c, 2, 51, 0
3, 80220, Control_c, 2, 64, 127
3, 80220, Note_on_c, 2, 56, 49
3, 80220, Note_on_c, 2, 51, 41
3, 80280, Note_on_c, 2, 51, 0
3, 80300, Note_on_c, 2, 56, 0
3, 80304, Control_c, 2, 64, 0
3, 80600, Note_on_c, 2, 50, 55
3, 80604, Note_on_c, 2, 56, 64
3, 80716, Note_on_c, 2, 56, 0
3, 80796, Note_on_c, 2, 50, 0
3, 80988, Control_c, 2, 64, 127
3, 80988, Note_on_c, 2, 56, 49
3, 80988, Note_on_c, 2, 50, 41
3, 81048, Note_on_c, 2, 50, 0
3, 81076, Note_on_c, 2, 56, 0
3, 81084, Control_c, 2, 64, 0
3, 81372, Note_on_c, 2, 49, 55
3, 81372, Note_on_c, 2, 56, 64
3, 81484, Note_on_c, 2, 56, 0
3, 81564, Note_on_c, 2, 49, 0
3, 81752, Control_c, 2, 64, 127
3, 81756, Note_on_c, 2, 56, 49
3, 81756, Note_on_c, 2, 49, 41
3, 81816, Note_on_c, 2, 49, 0
3, 81844, Note_on_c, 2, 56, 0
3, 81844, Control_c, 2, 64, 0
3, 82140, Note_on_c, 2, 49, 55
3, 82140, Note_on_c, 2, 55, 64
3, 82252, Note_on_c, 2, 55, 0
3, 82332, Note_on_c, 2, 49, 0
3, 82524, Control_c, 2, 64, 127
3, 82524, Note_on_c, 2, 55, 49
3, 82524, Note_on_c, 2, 49, 41
3, 82584, Note_on_c, 2, 49, 0
3, 82612, Note_on_c, 2, 55, 0
3, 82612, Control_c, 2, 64, 0
3, 82904, Note_on_c, 2, 55, 55
3, 82908, Note_on_c, 2, 60, 64
3, 83020, Note_on_c, 2, 60, 0
3, 83100, Note_on_c, 2, 55, 0
3, 83288, Control_c, 2, 64, 127
3, 83292, Note_on_c, 2, 60, 49
3, 83292, Note_on_c, 2, 55, 41
3, 83348, Note_on_c, 2, 55, 0
3, 83380, Note_on_c, 2, 60, 0
3, 83380, Control_c, 2, 64, 0
3, 83672, Note_on_c, 2, 53, 55
3, 83676, Note_on_c, 2, 59, 64
3, 83788, Note_on_c, 2, 59, 0
3, 83868, Note_on_c, 2, 53, 0
3, 84060, Control_c, 2, 64, 127
3, 84060, Note_on_c, 2, 59, 49
3, 84060, Note_on_c, 2, 53, 41
3, 84116, Note_on_c, 2, 53, 0
3, 84148, Note_on_c, 2, 59, 0
3, 84148, Control_c, 2, 64, 0
3, 84444, Note_on_c, 2, 53, 55
3, 84444, Note_on_c, 2, 58, 64
3, 84556, Note_on_c, 2, 58, 0
3, 84636, Note_on_c, 2, 53, 0
3, 84828, Control_c, 2, 64, 0
3, 84828, Control_c, 2, 64, 0
3, 84828, Note_on_c, 2, 52, 55
3, 84828, Note_on_c, 2, 58, 64
3, 84940, Note_on_c, 2, 58, 0
3, 85020, Note_on_c, 2, 52, 0
3, 85212, Control_c, 2, 64, 0
3, 85212, Control_c, 2, 64, 0
3, 85212, Note_on_c, 2, 51, 55
3, 85212, Note_on_c, 2, 56, 64
3, 85324, Note_on_c, 2, 56, 0
3, 85404, Note_on_c, 2, 51, 0
3, 85596, Control_c, 2, 64, 0
3, 85596, Control_c, 2, 64, 0
3, 85596, Note_on_c, 2, 50, 55
3, 85596, Note_on_c, 2, 56, 64
3, 85708, Note_on_c, 2, 56, 0
3, 85788, Note_on_c, 2, 50, 0
3, 85976, Control_c, 2, 64, 0
3, 85980, Control_c, 2, 64, 0
3, 85980, Note_on_c, 2, 48, 55
3, 85980, Note_on_c, 2, 55, 64
3, 86092, Note_on_c, 2, 55, 0
3, 86172, Note_on_c, 2, 48, 0
3, 86364, Control_c, 2, 64, 127
3, 86364, Note_on_c, 2, 55, 49
3, 86364, Note_on_c, 2, 48, 41
3, 86424, Note_on_c, 2, 48, 0
3, 86452, Note_on_c, 2, 55, 0
3, 86460, Control_c, 2, 64, 0
3, 86744, Note_on_c, 2, 51, 55
3, 86748, Note_on_c, 2, 57, 64
3, 86860, Note_on_c, 2, 57, 0
3, 86940, Note_on_c, 2, 51, 0
3, 87132, Control_c, 2, 64, 127
3, 87132, Note_on_c, 2, 57, 49
3, 87132, Note_on_c, 2, 51, 41
3, 87192, Note_on_c, 2, 51, 0
3, 87220, Note_on_c, 2, 57, 0
3, 87220, Control_c, 2, 64, 0
3, 87512, Note_on_c, 2, 50, 55
3, 87516, Note_on_c, 2, 55, 64
3, 87628, Note_on_c, 2, 55, 0
3, 87708, Note_on_c, 2, 50, 0
3, 87900, Control_c, 2, 64, 127
3, 87900, Note_on_c, 2, 55, 49
3, 87900, Note_on_c, 2, 50, 41
3, 87952, Note_on_c, 2, 50, 0
3, 87988, Note_on_c, 2, 55, 0
3, 87988, Control_c, 2, 64, 0
3, 88284, Note_on_c, 2, 53, 55
3, 88284, Note_on_c, 2, 58, 64
3, 88396, Note_on_c, 2, 58, 0
3, 88476, Note_on_c, 2, 53, 0
3, 88668, Control_c, 2, 64, 127
3, 88668, Note_on_c, 2, 58, 49
3, 88668, Note_on_c, 2, 53, 41
3, 88724, Note_on_c, 2, 53, 0
3, 88756, Note_on_c, 2, 58, 0
3, 88756, Control_c, 2, 64, 0
3, 89052, Note_on_c, 2, 51, 55
3, 89052, Note_on_c, 2, 58, 64
3, 89164, Note_on_c, 2, 58, 0
3, 89244, Note_on_c, 2, 51, 0
3, 89436, Control_c, 2, 64, 127
3, 89436, Note_on_c, 2, 58, 49
3, 89436, Note_on_c, 2, 51, 41
3, 89496, Note_on_c, 2, 51, 0
3, 89516, Note_on_c, 2, 58, 0
3, 89524, Control_c, 2, 64, 0
3, 89816, Note_on_c, 2, 51, 55
3, 89820, Note_on_c, 2, 57, 64
3, 89932, Note_on_c, 2, 57, 0
3, 90012, Note_on_c, 2, 51, 0
3, 90204, Control_c, 2, 64, 127
3, 90204, Note_on_c, 2, 57, 49
3, 90204, Note_on_c, 2, 51, 41
3, 90264, Note_on_c, 2, 51, 0
3, 90292, Note_on_c, 2, 57, 0
3, 90296, Control_c, 2, 64, 0
3, 90588, Note_on_c, 2, 53, 55
3, 90588, Note_on_c, 2, 60, 64
3, 90700, Note_on_c, 2, 60, 0
3, 90780, Note_on_c, 2, 53, 0
3, 90972, Control_c, 2, 64, 127
3, 90972, Note_on_c, 2, 60, 49
3, 90972, Note_on_c, 2, 53, 41
3, 91032, Note_on_c, 2, 53, 0
3, 91060, Note_on_c, 2, 60, 0
3, 91068, Control_c, 2, 64, 0
3, 91352, Note_on_c, 2, 53, 55
3, 91356, Note_on_c, 2, 59, 64
3, 91468, Note_on_c, 2, 59, 0
3, 91548, Note_on_c, 2, 53, 0
3, 91740, Control_c, 2, 64, 127
3, 91740, Note_on_c, 2, 59, 49
3, 91740, Note_on_c, 2, 53, 41
3, 91800, Note_on_c, 2, 53, 0
3, 91828, Note_on_c, 2, 59, 0
3, 91832, Control_c, 2, 64, 0
3, 92124, Note_on_c, 2, 51, 55
3, 92124, Note_on_c, 2, 58, 64
3, 92236, Note_on_c, 2, 58, 0
3, 92316, Note_on_c, 2, 51, 0
3, 92504, Control_c, 2, 64, 127
3, 92508, Note_on_c, 2, 58, 49
3, 92508, Note_on_c, 2, 51, 41
3, 92568, Note_on_c, 2, 51, 0
3, 92596, Note_on_c, 2, 58, 0
3, 92596, Control_c, 2, 64, 0
3, 92892, Note_on_c, 2, 51, 55
3, 92892, Note_on_c, 2, 57, 64
3, 93004, Note_on_c, 2, 57, 0
3, 93084, Note_on_c, 2, 51, 0
3, 93276, Control_c, 2, 64, 127
3, 93276, Note_on_c, 2, 57, 49
3, 93276, Note_on_c, 2, 51, 41
3, 93332, Note_on_c, 2, 51, 0
3, 93364, Note_on_c, 2, 57, 0
3, 93364, Control_c, 2, 64, 0
3, 93656, Note_on_c, 2, 51, 55
3, 93660, Note_on_c, 2, 56, 64
3, 93772, Note_on_c, 2, 56, 0
3, 93852, Note_on_c, 2, 51, 0
3, 94044, Control_c, 2, 64, 127
3, 94044, Note_on_c, 2, 56, 49
3, 94044, Note_on_c, 2, 51, 41
3, 94096, Note_on_c, 2, 51, 0
3, 94132, Note_on_c, 2, 56, 0
3, 94132, Control_c, 2, 64, 0
3, 94424, Note_on_c, 2, 50, 55
3, 94428, Note_on_c, 2, 56, 64
3, 94540, Note_on_c, 2, 56, 0
3, 94620, Note_on_c, 2, 50, 0
3, 94812, Control_c, 2, 64, 127
3, 94812, Note_on_c, 2, 56, 49
3, 94812, Note_on_c, 2, 50, 41
3, 94872, Note_on_c, 2, 50, 0
3, 94892, Note_on_c, 2, 56, 0
3, 94896, Control_c, 2, 64, 0
3, 95196, Note_on_c, 2, 48, 55
3, 95196, Note_on_c, 2, 55, 64
3, 95308, Note_on_c, 2, 55, 0
3, 95388, Note_on_c, 2, 48, 0
3, 95576, Control_c, 2, 64, 127
3, 95580, Note_on_c, 2, 55, 49
3, 95580, Note_on_c, 2, 48, 41
3, 95640, Note_on_c, 2, 48, 0
3, 95668, Note_on_c, 2, 55, 0
3, 95676, Control_c, 2, 64, 0
3, 95960, Note_on_c, 2, 54, 55
3, 95964, Note_on_c, 2, 60, 64
3, 96076, Note_on_c, 2, 60, 0
3, 96156, Note_on_c, 2, 54, 0
3, 96348, Control_c, 2, 64, 127
3, 96348, Note_on_c, 2, 60, 49
3, 96348, Note_on_c, 2, 54, 41
3, 96408, Note_on_c, 2, 54, 0
3, 96436, Note_on_c, 2, 60, 0
3, 96440, Control_c, 2, 64, 0
3, 96728, Note_on_c, 2, 53, 55
3, 96732, Note_on_c, 2, 60, 64
3, 96844, Note_on_c, 2, 60, 0
3, 96924, Note_on_c, 2, 53, 0
3, 97112, Control_c, 2, 64, 0
3, 97112, Control_c, 2, 64, 0
3, 97116, Note_on_c, 2, 53, 55
3, 97116, Note_on_c, 2, 59, 64
3, 97228, Note_on_c, 2, 59, 0
3, 97308, Note_on_c, 2, 53, 0
3, 97496, Control_c, 2, 64, 0
3, 97496, Control_c, 2, 64, 0
3, 97500, Note_on_c, 2, 51, 55
3, 97500, Note_on_c, 2, 58, 64
3, 97612, Note_on_c, 2, 58, 0
3, 97692, Note_on_c, 2, 51, 0
3, 97884, Control_c, 2, 64, 0
3, 97884, Control_c, 2, 64, 0
3, 97884, Note_on_c, 2, 51, 55
3, 97884, Note_on_c, 2, 57, 64
3, 97996, Note_on_c, 2, 57, 0
3, 98076, Note_on_c, 2, 51, 0
3, 98264, Control_c, 2, 64, 0
3, 98268, Control_c, 2, 64, 0
3, 98268, Note_on_c, 2, 50, 55
3, 98268, Note_on_c, 2, 55, 64
3, 98380, Note_on_c, 2, 55, 0
3, 98460, Note_on_c, 2, 50, 0
3, 98652, Control_c, 2, 64, 127
3, 98652, Note_on_c, 2, 55, 49
3, 98652, Note_on_c, 2, 50, 41
3, 98704, Note_on_c, 2, 50, 0
3, 98740, Note_on_c, 2, 55, 0
3, 98740, Control_c, 2, 64, 0
3, 99036, Note_on_c, 2, 51, 55
3, 99036, Note_on_c, 2, 57, 64
3, 99148, Note_on_c, 2, 57, 0
3, 99228, Note_on_c, 2, 51, 0
3, 99420, Control_c, 2, 64, 127
3, 99420, Note_on_c, 2, 57, 49
3, 99420, Note_on_c, 2, 51, 41
3, 99480, Note_on_c, 2, 51, 0
3, 99500, Note_on_c, 2, 57, 0
3, 99504, Control_c, 2, 64, 0
3, 99804, Note_on_c, 2, 50, 55
3, 99804, Note_on_c, 2, 55, 64
3, 99916, Note_on_c, 2, 55, 0
3, 99996, Note_on_c, 2, 50, 0
3, 100188, Control_c, 2, 64, 127
3, 100188, Note_on_c, 2, 55, 49
3, 100188, Note_on_c, 2, 50, 41
3, 100248, Note_on_c, 2, 50, 0
3, 100276, Note_on_c, 2, 55, 0
3, 100284, Control_c, 2, 64, 0
3, 100572, Note_on_c, 2, 53, 55
3, 100572, Note_on_c, 2, 58, 64
3, 100684, Note_on_c, 2, 58, 0
3, 100764, Note_on_c, 2, 53, 0
3, 100956, Control_c, 2, 64, 127
3, 100956, Note_on_c, 2, 58, 49
3, 100956, Note_on_c, 2, 53, 41
3, 101016, Note_on_c, 2, 53, 0
3, 101044, Note_on_c, 2, 58, 0
3, 101048, Control_c, 2, 64, 0
3, 101336, Note_on_c, 2, 51, 55
3, 101340, Note_on_c, 2, 58, 64
3, 101452, Note_on_c, 2, 58, 0
3, 101532, Note_on_c, 2, 51, 0
3, 101724, Control_c, 2, 64, 127
3, 101724, Note_on_c, 2, 58, 49
3, 101724, Note_on_c, 2, 51, 41
3, 101784, Note_on_c, 2, 51, 0
3, 101812, Note_on_c, 2, 58, 0
3, 101812, Control_c, 2, 64, 0
3, 102104, Note_on_c, 2, 51, 55
3, 102108, Note_on_c, 2, 57, 64
3, 102220, Note_on_c, 2, 57, 0
3, 102300, Note_on_c, 2, 51, 0
3, 102492, Control_c, 2, 64, 127
3, 102492, Note_on_c, 2, 57, 49
3, 102492, Note_on_c, 2, 51, 41
3, 102548, Note_on_c, 2, 51, 0
3, 102580, Note_on_c, 2, 57, 0
3, 102580, Control_c, 2, 64, 0
3, 102876, Note_on_c, 2, 53, 55
3, 102876, Note_on_c, 2, 60, 64
3, 102988, Note_on_c, 2, 60, 0
3, 103068, Note_on_c, 2, 53, 0
3, 103260, Control_c, 2, 64, 127
3, 103260, Note_on_c, 2, 60, 49
3, 103260, Note_on_c, 2, 53, 41
3, 103312, Note_on_c, 2, 53, 0
3, 103348, Note_on_c, 2, 60, 0
3, 103348, Control_c, 2, 64, 0
3, 103644, Note_on_c, 2, 53, 55
3, 103644, Note_on_c, 2, 59, 64
3, 103756, Note_on_c, 2, 59, 0
3, 103836, Note_on_c, 2, 53, 0
3, 104028, Control_c, 2, 64, 127
3, 104028, Note_on_c, 2, 59, 49
3, 104028, Note_on_c, 2, 53, 41
3, 104088, Note_on_c, 2, 53, 0
3, 104112, Note_on_c, 2, 59, 0
3, 104120, Control_c, 2, 64, 0
3, 104408, Note_on_c, 2, 51, 55
3, 104412, Note_on_c, 2, 58, 64
3, 104524, Note_on_c, 2, 58, 0
3, 104604, Note_on_c, 2, 51, 0
3, 104792, Control_c, 2, 64, 127
3, 104796, Note_on_c, 2, 58, 49
3, 104796, Note_on_c, 2, 51, 41
3, 104856, Note_on_c, 2, 51, 0
3, 104884, Note_on_c, 2, 58, 0
3, 104888, Control_c, 2, 64, 0
3, 105176, Note_on_c, 2, 51, 55
3, 105180, Note_on_c, 2, 57, 64
3, 105292, Note_on_c, 2, 57, 0
3, 105372, Note_on_c, 2, 51, 0
3, 105564, Control_c, 2, 64, 127
3, 105564, Note_on_c, 2, 57, 49
3, 105564, Note_on_c, 2, 51, 41
3, 105624, Note_on_c, 2, 51, 0
3, 105652, Note_on_c, 2, 57, 0
3, 105660, Control_c, 2, 64, 0
3, 105948, Note_on_c, 2, 51, 55
3, 105948, Note_on_c, 2, 56, 64
3, 106060, Note_on_c, 2, 56, 0
3, 106140, Note_on_c, 2, 51, 0
3, 106332, Control_c, 2, 64, 127
3, 106332, Note_on_c, 2, 56, 49
3, 106332, Note_on_c, 2, 51, 41
3, 106392, Note_on_c, 2, 51, 0
3, 106420, Note_on_c, 2, 56, 0
3, 106420, Control_c, 2, 64, 0
3, 106712, Note_on_c, 2, 50, 55
3, 106716, Note_on_c, 2, 56, 64
3, 106828, Note_on_c, 2, 56, 0
3, 106908, Note_on_c, 2, 50, 0
3, 107100, Control_c, 2, 64, 127
3, 107100, Note_on_c, 2, 56, 49
3, 107100, Note_on_c, 2, 50, 41
3, 107156, Note_on_c, 2, 50, 0
3, 107188, Note_on_c, 2, 56, 0
3, 107188, Control_c, 2, 64, 0
3, 107484, Note_on_c, 2, 48, 55
3, 107484, Note_on_c, 2, 55, 64
3, 107596, Note_on_c, 2, 55, 0
3, 107676, Note_on_c, 2, 48, 0
3, 107864, Control_c, 2, 64, 127
3, 107868, Note_on_c, 2, 55, 49
3, 107868, Note_on_c, 2, 48, 41
3, 107924, Note_on_c, 2, 48, 0
3, 107956, Note_on_c, 2, 55, 0
3, 107956, Control_c, 2, 64, 0
3, 108252, Note_on_c, 2, 54, 55
3, 108252, Note_on_c, 2, 60, 64
3, 108364, Note_on_c, 2, 60, 0
3, 108444, Note_on_c, 2, 54, 0
3, 108636, Control_c, 2, 64, 127
3, 108636, Note_on_c, 2, 60, 49
3, 108636, Note_on_c, 2, 54, 41
3, 108696, Note_on_c, 2, 54, 0
3, 108716, Note_on_c, 2, 60, 0
3, 108724, Control_c, 2, 64, 0
3, 109020, Note_on_c, 2, 53, 55
3, 109020, Note_on_c, 2, 60, 64
3, 109132, Note_on_c, 2, 60, 0
3, 109212, Note_on_c, 2, 53, 0
3, 109404, Control_c, 2, 64, 0
3, 109404, Control_c, 2, 64, 0
3, 109404, Note_on_c, 2, 53, 55
3, 109404, Note_on_c, 2, 59, 64
3, 109516, Note_on_c, 2, 59, 0
3, 109596, Note_on_c, 2, 53, 0
3, 109788, Control_c, 2, 64, 0
3, 109788, Control_c, 2, 64, 0
3, 109788, Note_on_c, 2, 51, 55
3, 109788, Note_on_c, 2, 58, 64
3, 109900, Note_on_c, 2, 58, 0
3, 109980, Note_on_c, 2, 51, 0
3, 110172, Control_c, 2, 64, 0
3, 110172, Control_c, 2, 64, 0
3, 110172, Note_on_c, 2, 51, 55
3, 110172, Note_on_c, 2, 57, 64
3, 110284, Note_on_c, 2, 57, 0
3, 110364, Note_on_c, 2, 51, 0
3, 110552, Control_c, 2, 64, 0
3, 110556, Control_c, 2, 64, 0
3, 110556, Note_on_c, 2, 50, 55
3, 110556, Note_on_c, 2, 55, 64
3, 110668, Note_on_c, 2, 55, 0
3, 110748, Note_on_c, 2, 50, 0
3, 110940, Control_c, 2, 64, 127
3, 110940, Note_on_c, 2, 55, 49
3, 110940, Note_on_c, 2, 50, 41
3, 111000, Note_on_c, 2, 50, 0
3, 111028, Note_on_c, 2, 55, 0
3, 111028, Control_c, 2, 64, 0
3, 111320, Note_on_c, 2, 51, 55
3, 111324, Note_on_c, 2, 57, 64
3, 111436, Note_on_c, 2, 57, 0
3, 111516, Note_on_c, 2, 51, 0
3, 111708, Control_c, 2, 64, 127
3, 111712, Note_on_c, 2, 57, 49
3, 111712, Note_on_c, 2, 51, 41
3, 111768, Note_on_c, 2, 51, 0
3, 111796, Note_on_c, 2, 57, 0
3, 111800, Control_c, 2, 64, 0
3, 112092, Note_on_c, 2, 50, 55
3, 112092, Note_on_c, 2, 55, 64
3, 112204, Note_on_c, 2, 55, 0
3, 112284, Note_on_c, 2, 50, 0
3, 112476, Control_c, 2, 64, 127
3, 112476, Note_on_c, 2, 55, 49
3, 112476, Note_on_c, 2, 50, 41
3, 112528, Note_on_c, 2, 50, 0
3, 112564, Note_on_c, 2, 55, 0
3, 112564, Control_c, 2, 64, 0
3, 112860, Note_on_c, 2, 53, 55
3, 112860, Note_on_c, 2, 58, 64
3, 112972, Note_on_c, 2, 58, 0
3, 113052, Note_on_c, 2, 53, 0
3, 113244, Control_c, 2, 64, 127
3, 113244, Note_on_c, 2, 58, 49
3, 113244, Note_on_c, 2, 53, 41
3, 113296, Note_on_c, 2, 53, 0
3, 113332, Note_on_c, 2, 58, 0
3, 113332, Control_c, 2, 64, 0
3, 113628, Note_on_c, 2, 51, 55
3, 113628, Note_on_c, 2, 58, 64
3, 113740, Note_on_c, 2, 58, 0
3, 113820, Note_on_c, 2, 51, 0
3, 114012, Control_c, 2, 64, 127
3, 114012, Note_on_c, 2, 58, 49
3, 114012, Note_on_c, 2, 51, 41
3, 114072, Note_on_c, 2, 51, 0
3, 114092, Note_on_c, 2, 58, 0
3, 114096, Control_c, 2, 64, 0
3, 114396, Note_on_c, 2, 51, 55
3, 114396, Note_on_c, 2, 57, 64
3, 114508, Note_on_c, 2, 57, 0
3, 114588, Note_on_c, 2, 51, 0
3, 114780, Control_c, 2, 64, 127
3, 114780, Note_on_c, 2, 57, 49
3, 114780, Note_on_c, 2, 51, 41
3, 114840, Note_on_c, 2, 51, 0
3, 114868, Note_on_c, 2, 57, 0
3, 114876, Control_c, 2, 64, 0
3, 115164, Note_on_c, 2, 53, 55
3, 115164, Note_on_c, 2, 60, 64
3, 115276, Note_on_c, 2, 60, 0
3, 115356, Note_on_c, 2, 53, 0
3, 115544, Control_c, 2, 64, 127
3, 115548, Note_on_c, 2, 60, 49
3, 115548, Note_on_c, 2, 53, 41
3, 115608, Note_on_c, 2, 53, 0
3, 115636, Note_on_c, 2, 60, 0
3, 115636, Control_c, 2, 64, 0
3, 115932, Note_on_c, 2, 53, 55
3, 115932, Note_on_c, 2, 59, 64
3, 116044, Note_on_c, 2, 59, 0
3, 116124, Note_on_c, 2, 53, 0
3, 116316, Control_c, 2, 64, 127
3, 116316, Note_on_c, 2, 59, 49
3, 116316, Note_on_c, 2, 53, 41
3, 116376, Note_on_c, 2, 53, 0
3, 116404, Note_on_c, 2, 59, 0
3, 116408, Control_c, 2, 64, 0
3, 116700, Note_on_c, 2, 51, 55
3, 116700, Note_on_c, 2, 58, 64
3, 116812, Note_on_c, 2, 58, 0
3, 116892, Note_on_c, 2, 51, 0
3, 117084, Control_c, 2, 64, 127
3, 117084, Note_on_c, 2, 58, 49
3, 117084, Note_on_c, 2, 51, 41
3, 117140, Note_on_c, 2, 51, 0
3, 117172, Note_on_c, 2, 58, 0
3, 117172, Control_c, 2, 64, 0
3, 117468, Note_on_c, 2, 51, 55
3, 117468, Note_on_c, 2, 57, 64
3, 117580, Note_on_c, 2, 57, 0
3, 117660, Note_on_c, 2, 51, 0
3, 117852, Control_c, 2, 64, 127
3, 117852, Note_on_c, 2, 57, 49
3, 117852, Note_on_c, 2, 51, 41
3, 117904, Note_on_c, 2, 51, 0
3, 117940, Note_on_c, 2, 57, 0
3, 117940, Control_c, 2, 64, 0
3, 118236, Note_on_c, 2, 51, 55
3, 118236, Note_on_c, 2, 56, 64
3, 118348, Note_on_c, 2, 56, 0
3, 118428, Note_on_c, 2, 51, 0
3, 118620, Control_c, 2, 64, 127
3, 118620, Note_on_c, 2, 56, 49
3, 118620, Note_on_c, 2, 51, 41
3, 118680, Note_on_c, 2, 51, 0
3, 118700, Note_on_c, 2, 56, 0
3, 118704, Control_c, 2, 64, 0
3, 119000, Note_on_c, 2, 50, 55
3, 119004, Note_on_c, 2, 56, 64
3, 119116, Note_on_c, 2, 56, 0
3, 119196, Note_on_c, 2, 50, 0
3, 119388, Control_c, 2, 64, 127
3, 119388, Note_on_c, 2, 56, 49
3, 119388, Note_on_c, 2, 50, 41
3, 119448, Note_on_c, 2, 50, 0
3, 119476, Note_on_c, 2, 56, 0
3, 119484, Control_c, 2, 64, 0
3, 119772, Note_on_c, 2, 48, 55
3, 119772, Note_on_c, 2, 55, 64
3, 119884, Note_on_c, 2, 55, 0
3, 119964, Note_on_c, 2, 48, 0
3, 120156, Control_c, 2, 64, 127
3, 120156, Note_on_c, 2, 55, 49
3, 120156, Note_on_c, 2, 48, 41
3, 120216, Note_on_c, 2, 48, 0
3, 120244, Note_on_c, 2, 55, 0
3, 120244, Control_c, 2, 64, 0
3, 120536, Note_on_c, 2, 54, 55
3, 120540, Note_on_c, 2, 60, 64
3, 120652, Note_on_c, 2, 60, 0
3, 120732, Note_on_c, 2, 54, 0
3, 120924, Control_c, 2, 64, 127
3, 120924, Note_on_c, 2, 60, 49
3, 120924, Note_on_c, 2, 54, 41
3, 120984, Note_on_c, 2, 54, 0
3, 121012, Note_on_c, 2, 60, 0
3, 121016, Control_c, 2, 64, 0
3, 121304, Note_on_c, 2, 53, 55
3, 121308, Note_on_c, 2, 60, 64
3, 121420, Note_on_c, 2, 60, 0
3, 121500, Note_on_c, 2, 53, 0
3, 121692, Control_c, 2, 64, 0
3, 121692, Control_c, 2, 64, 0
3, 121692, Note_on_c, 2, 53, 55
3, 121692, Note_on_c, 2, 59, 64
3, 121804, Note_on_c, 2, 59, 0
3, 121884, Note_on_c, 2, 53, 0
3, 122072, Control_c, 2, 64, 0
3, 122076, Control_c, 2, 64, 0
3, 122076, Note_on_c, 2, 51, 55
3, 122076, Note_on_c, 2, 58, 64
3, 122188, Note_on_c, 2, 58, 0
3, 122268, Note_on_c, 2, 51, 0
3, 122460, Control_c, 2, 64, 0
3, 122460, Control_c, 2, 64, 0
3, 122460, Note_on_c, 2, 51, 55
3, 122460, Note_on_c, 2, 57, 64
3, 122572, Note_on_c, 2, 57, 0
3, 122652, Note_on_c, 2, 51, 0
3, 122840, Control_c, 2, 64, 0
3, 122844, Control_c, 2, 64, 0
3, 122844, Note_on_c, 2, 50, 55
3, 122844, Note_on_c, 2, 55, 64
3, 122956, Note_on_c, 2, 55, 0
3, 123036, Note_on_c, 2, 50, 0
3, 123224, Control_c, 2, 64, 127
3, 123228, Note_on_c, 2, 55, 49
3, 123228, Note_on_c, 2, 50, 41
3, 123288, Note_on_c, 2, 50, 0
3, 123308, Note_on_c, 2, 55, 0
3, 123316, Control_c, 2, 64, 0
3, 123612, Note_on_c, 2, 50, 55
3, 123612, Note_on_c, 2, 56, 64
3, 123724, Note_on_c, 2, 56, 0
3, 123804, Note_on_c, 2, 50, 0
3, 123996, Control_c, 2, 64, 127
3, 123996, Note_on_c, 2, 56, 49
3, 123996, Note_on_c, 2, 50, 41
3, 124056, Note_on_c, 2, 50, 0
3, 124084, Note_on_c, 2, 56, 0
3, 124088, Control_c, 2, 64, 0
3, 124380, Note_on_c, 2, 48, 55
3, 124380, Note_on_c, 2, 55, 64
3, 124492, Note_on_c, 2, 55, 0
3, 124572, Note_on_c, 2, 48, 0
3, 124764, Control_c, 2, 64, 127
3, 124764, Note_on_c, 2, 55, 49
3, 124764, Note_on_c, 2, 48, 41
3, 124824, Note_on_c, 2, 48, 0
3, 124852, Note_on_c, 2, 55, 0
3, 124860, Control_c, 2, 64, 0
3, 125144, Note_on_c, 2, 52, 55
3, 125148, Note_on_c, 2, 58, 64
3, 125260, Note_on_c, 2, 58, 0
3, 125340, Note_on_c, 2, 52, 0
3, 125532, Control_c, 2, 64, 127
3, 125532, Note_on_c, 2, 58, 49
3, 125532, Note_on_c, 2, 52, 41
3, 125592, Note_on_c, 2, 52, 0
3, 125620, Note_on_c, 2, 58, 0
3, 125624, Control_c, 2, 64, 0
3, 125912, Note_on_c, 2, 51, 55
3, 125916, Note_on_c, 2, 56, 64
3, 126028, Note_on_c, 2, 56, 0
3, 126108, Note_on_c, 2, 51, 0
3, 126300, Control_c, 2, 64, 127
3, 126300, Note_on_c, 2, 56, 49
3, 126300, Note_on_c, 2, 51, 41
3, 126356, Note_on_c, 2, 51, 0
3, 126388, Note_on_c, 2, 56, 0
3, 126388, Control_c, 2, 64, 0
3, 126680, Note_on_c, 2, 50, 55
3, 126684, Note_on_c, 2, 56, 64
3, 126796, Note_on_c, 2, 56, 0
3, 126876, Note_on_c, 2, 50, 0
3, 127068, Control_c, 2, 64, 127
3, 127068, Note_on_c, 2, 56, 49
3, 127068, Note_on_c, 2, 50, 41
3, 127124, Note_on_c, 2, 50, 0
3, 127156, Note_on_c, 2, 56, 0
3, 127156, Control_c, 2, 64, 0
3, 127452, Note_on_c, 2, 53, 55
3, 127452, Note_on_c, 2, 58, 64
3, 127564, Note_on_c, 2, 58, 0
3, 127644, Note_on_c, 2, 53, 0
3, 127836, Control_c, 2, 64, 127
3, 127836, Note_on_c, 2, 58, 49
3, 127836, Note_on_c, 2, 53, 41
3, 127896, Note_on_c, 2, 53, 0
3, 127916, Note_on_c, 2, 58, 0
3, 127924, Control_c, 2, 64, 0
3, 128220, Note_on_c, 2, 52, 55
3, 128220, Note_on_c, 2, 58, 64
3, 128332, Note_on_c, 2, 58, 0
3, 128412, Note_on_c, 2, 52, 0
3, 128604, Control_c, 2, 64, 127
3, 128604, Note_on_c, 2, 58, 49
3, 128608, Note_on_c, 2, 52, 41
3, 128664, Note_on_c, 2, 52, 0
3, 128692, Note_on_c, 2, 58, 0
3, 128696, Control_c, 2, 64, 0
3, 128988, Note_on_c, 2, 51, 55
3, 128988, Note_on_c, 2, 56, 64
3, 129100, Note_on_c, 2, 56, 0
3, 129180, Note_on_c, 2, 51, 0
3, 129368, Control_c, 2, 64, 127
3, 129372, Note_on_c, 2, 56, 49
3, 129372, Note_on_c, 2, 51, 41
3, 129432, Note_on_c, 2, 51, 0
3, 129460, Note_on_c, 2, 56, 0
3, 129468, Control_c, 2, 64, 0
3, 129752, Note_on_c, 2, 50, 55
3, 129756, Note_on_c, 2, 56, 64
3, 129868, Note_on_c, 2, 56, 0
3, 129948, Note_on_c, 2, 50, 0
3, 130140, Control_c, 2, 64, 127
3, 130140, Note_on_c, 2, 56, 49
3, 130140, Note_on_c, 2, 50, 41
3, 130200, Note_on_c, 2, 50, 0
3, 130228, Note_on_c, 2, 56, 0
3, 130228, Control_c, 2, 64, 0
3, 130520, Note_on_c, 2, 49, 55
3, 130524, Note_on_c, 2, 56, 64
3, 130636, Note_on_c, 2, 56, 0
3, 130716, Note_on_c, 2, 49, 0
3, 130904, Control_c, 2, 64, 127
3, 130908, Note_on_c, 2, 56, 49
3, 130908, Note_on_c, 2, 49, 41
3, 130968, Note_on_c, 2, 49, 0
3, 130996, Note_on_c, 2, 56, 0
3, 130996, Control_c, 2, 64, 0
3, 131288, Note_on_c, 2, 49, 55
3, 131292, Note_on_c, 2, 55, 64
3, 131404, Note_on_c, 2, 55, 0
3, 131484, Note_on_c, 2, 49, 0
3, 131676, Control_c, 2, 64, 127
3, 131676, Note_on_c, 2, 55, 49
3, 131676, Note_on_c, 2, 49, 41
3, 131732, Note_on_c, 2, 49, 0
3, 131764, Note_on_c, 2, 55, 0
3, 131764, Control_c, 2, 64, 0
3, 132060, Note_on_c, 2, 55, 55
3, 132060, Note_on_c, 2, 60, 64
3, 132172, Note_on_c, 2, 60, 0
3, 132252, Note_on_c, 2, 55, 0
3, 132444, Control_c, 2, 64, 127
3, 132444, Note_on_c, 2, 60, 49
3, 132444, Note_on_c, 2, 55, 41
3, 132496, Note_on_c, 2, 55, 0
3, 132532, Note_on_c, 2, 60, 0
3, 132532, Control_c, 2, 64, 0
3, 132828, Note_on_c, 2, 53, 55
3, 132828, Note_on_c, 2, 59, 64
3, 132940, Note_on_c, 2, 59, 0
3, 133020, Note_on_c, 2, 53, 0
3, 133212, Control_c, 2, 64, 127
3, 133212, Note_on_c, 2, 59, 49
3, 133212, Note_on_c, 2, 53, 41
3, 133272, Note_on_c, 2, 53, 0
3, 133292, Note_on_c, 2, 59, 0
3, 133296, Control_c, 2, 64, 0
3, 133592, Note_on_c, 2, 53, 55
3, 133596, Note_on_c, 2, 58, 64
3, 133708, Note_on_c, 2, 58, 0
3, 133788, Note_on_c, 2, 53, 0
3, 133980, Control_c, 2, 64, 0
3, 133980, Control_c, 2, 64, 0
3, 133980, Note_on_c, 2, 52, 55
3, 133980, Note_on_c, 2, 58, 64
3, 134092, Note_on_c, 2, 58, 0
3, 134172, Note_on_c, 2, 52, 0
3, 134360, Control_c, 2, 64, 0
3, 134364, Control_c, 2, 64, 0
3, 134364, Note_on_c, 2, 51, 55
3, 134364, Note_on_c, 2, 56, 64
3, 134476, Note_on_c, 2, 56, 0
3, 134556, Note_on_c, 2, 51, 0
3, 134748, Control_c, 2, 64, 0
3, 134748, Control_c, 2, 64, 0
3, 134748, Note_on_c, 2, 50, 55
3, 134748, Note_on_c, 2, 56, 64
3, 134860, Note_on_c, 2, 56, 0
3, 134940, Note_on_c, 2, 50, 0
3, 135128, Control_c, 2, 64, 0
3, 135132, Control_c, 2, 64, 0
3, 135132, Note_on_c, 2, 48, 55
3, 135132, Note_on_c, 2, 55, 64
3, 135244, Note_on_c, 2, 55, 0
3, 135324, Note_on_c, 2, 48, 0
3, 135512, Control_c, 2, 64, 127
3, 135516, Note_on_c, 2, 55, 49
3, 135516, Note_on_c, 2, 48, 41
3, 135576, Note_on_c, 2, 48, 0
3, 135604, Note_on_c, 2, 55, 0
3, 135604, Control_c, 2, 64, 0
3, 135896, Note_on_c, 2, 51, 55
3, 135900, Note_on_c, 2, 57, 64
3, 136012, Note_on_c, 2, 57, 0
3, 136092, Note_on_c, 2, 51, 0
3, 136284, Control_c, 2, 64, 127
3, 136284, Note_on_c, 2, 57, 49
3, 136284, Note_on_c, 2, 51, 41
3, 136340, Note_on_c, 2, 51, 0
3, 136372, Note_on_c, 2, 57, 0
3, 136376, Control_c, 2, 64, 0
3, 136668, Note_on_c, 2, 50, 55
3, 136668, Note_on_c, 2, 55, 64
3, 136780, Note_on_c, 2, 55, 0
3, 136860, Note_on_c, 2, 50, 0
3, 137052, Control_c, 2, 64, 127
3, 137052, Note_on_c, 2, 55, 49
3, 137052, Note_on_c, 2, 50, 41
3, 137104, Note_on_c, 2, 50, 0
3, 137140, Note_on_c, 2, 55, 0
3, 137140, Control_c, 2, 64, 0
3, 137436, Note_on_c, 2, 53, 55
3, 137436, Note_on_c, 2, 58, 64
3, 137548, Note_on_c, 2, 58, 0
3, 137628, Note_on_c, 2, 53, 0
3, 137820, Control_c, 2, 64, 127
3, 137820, Note_on_c, 2, 58, 49
3, 137820, Note_on_c, 2, 53, 41
3, 137880, Note_on_c, 2, 53, 0
3, 137900, Note_on_c, 2, 58, 0
3, 137904, Control_c, 2, 64, 0
3, 138204, Note_on_c, 2, 51, 55
3, 138204, Note_on_c, 2, 58, 64
3, 138316, Note_on_c, 2, 58, 0
3, 138396, Note_on_c, 2, 51, 0
3, 138588, Control_c, 2, 64, 127
3, 138588, Note_on_c, 2, 58, 49
3, 138588, Note_on_c, 2, 51, 41
3, 138648, Note_on_c, 2, 51, 0
3, 138676, Note_on_c, 2, 58, 0
3, 138684, Control_c, 2, 64, 0
3, 138968, Note_on_c, 2, 51, 55
3, 138972, Note_on_c, 2, 57, 64
3, 139084, Note_on_c, 2, 57, 0
3, 139164, Note_on_c, 2, 51, 0
3, 139356, Control_c, 2, 64, 127
3, 139356, Note_on_c, 2, 57, 49
3, 139356, Note_on_c, 2, 51, 41
3, 139416, Note_on_c, 2, 51, 0
3, 139444, Note_on_c, 2, 57, 0
3, 139444, Control_c, 2, 64, 0
3, 139740, Note_on_c, 2, 53, 55
3, 139740, Note_on_c, 2, 60, 64
3, 139852, Note_on_c, 2, 60, 0
3, 139932, Note_on_c, 2, 53, 0
3, 140124, Control_c, 2, 64, 127
3, 140124, Note_on_c, 2, 60, 49
3, 140124, Note_on_c, 2, 53, 41
3, 140184, Note_on_c, 2, 53, 0
3, 140212, Note_on_c, 2, 60, 0
3, 140212, Control_c, 2, 64, 0
3, 140504, Note_on_c, 2, 53, 55
3, 140508, Note_on_c, 2, 59, 64
3, 140620, Note_on_c, 2, 59, 0
3, 140700, Note_on_c, 2, 53, 0
3, 140892, Control_c, 2, 64, 127
3, 140892, Note_on_c, 2, 59, 49
3, 140892, Note_on_c, 2, 53, 41
3, 140948, Note_on_c, 2, 53, 0
3, 140980, Note_on_c, 2, 59, 0
3, 140980, Control_c, 2, 64, 0
3, 141276, Note_on_c, 2, 51, 55
3, 141276, Note_on_c, 2, 58, 64
3, 141388, Note_on_c, 2, 58, 0
3, 141468, Note_on_c, 2, 51, 0
3, 141656, Control_c, 2, 64, 127
3, 141660, Note_on_c, 2, 58, 49
3, 141660, Note_on_c, 2, 51, 41
3, 141716, Note_on_c, 2, 51, 0
3, 141748, Note_on_c, 2, 58, 0
3, 141748, Control_c, 2, 64, 0
3, 142040, Note_on_c, 2, 51, 55
3, 142044, Note_on_c, 2, 57, 64
3, 142156, Note_on_c, 2, 57, 0
3, 142236, Note_on_c, 2, 51, 0
3, 142428, Control_c, 2, 64, 127
3, 142428, Note_on_c, 2, 57, 49
3, 142428, Note_on_c, 2, 51, 41
3, 142488, Note_on_c, 2, 51, 0
3, 142508, Note_on_c, 2, 57, 0
3, 142516, Control_c, 2, 64, 0
3, 142812, Note_on_c, 2, 51, 55
3, 142812, Note_on_c, 2, 56, 64
3, 142924, Note_on_c, 2, 56, 0
3, 143004, Note_on_c, 2, 51, 0
3, 143196, Control_c, 2, 64, 127
3, 143196, Note_on_c, 2, 56, 49
3, 143196, Note_on_c, 2, 51, 41
3, 143256, Note_on_c, 2, 51, 0
3, 143284, Note_on_c, 2, 56, 0
3, 143288, Control_c, 2, 64, 0
3, 143580, Note_on_c, 2, 50, 55
3, 143580, Note_on_c, 2, 56, 64
3, 143692, Note_on_c, 2, 56, 0
3, 143772, Note_on_c, 2, 50, 0
3, 143964, Control_c, 2, 64, 127
3, 143964, Note_on_c, 2, 56, 49
3, 143964, Note_on_c, 2, 50, 41
3, 144024, Note_on_c, 2, 50, 0
3, 144052, Note_on_c, 2, 56, 0
3, 144060, Control_c, 2, 64, 0
3, 144344, Note_on_c, 2, 48, 55
3, 144348, Note_on_c, 2, 55, 64
3, 144460, Note_on_c, 2, 55, 0
3, 144540, Note_on_c, 2, 48, 0
3, 144732, Control_c, 2, 64, 127
3, 144732, Note_on_c, 2, 55, 49
3, 144732, Note_on_c, 2, 48, 41
3, 144792, Note_on_c, 2, 48, 0
3, 144820, Note_on_c, 2, 55, 0
3, 144820, Control_c, 2, 64, 0
3, 145108, Note_on_c, 2, 54, 55
3, 145116, Note_on_c, 2, 60, 64
3, 145228, Note_on_c, 2, 60, 0
3, 145308, Note_on_c, 2, 54, 0
3, 145500, Control_c, 2, 64, 127
3, 145500, Note_on_c, 2, 60, 49
3, 145500, Note_on_c, 2, 54, 41
3, 145556, Note_on_c, 2, 54, 0
3, 145588, Note_on_c, 2, 60, 0
3, 145588, Control_c, 2, 64, 0
3, 145884, Note_on_c, 2, 53, 55
3, 145884, Note_on_c, 2, 60, 64
3, 145996, Note_on_c, 2, 60, 0
3, 146076, Note_on_c, 2, 53, 0
3, 146268, Control_c, 2, 64, 0
3, 146268, Control_c, 2, 64, 0
3, 146268, Note_on_c, 2, 53, 55
3, 146268, Note_on_c, 2, 59, 64
3, 146380, Note_on_c, 2, 59, 0
3, 146460, Note_on_c, 2, 53, 0
3, 146648, Control_c, 2, 64, 0
3, 146652, Control_c, 2, 64, 0
3, 146652, Note_on_c, 2, 51, 55
3, 146652, Note_on_c, 2, 58, 64
3, 146764, Note_on_c, 2, 58, 0
3, 146844, Note_on_c, 2, 51, 0
3, 147036, Control_c, 2, 64, 0
3, 147036, Control_c, 2, 64, 0
3, 147036, Note_on_c, 2, 51, 55
3, 147036, Note_on_c, 2, 57, 64
3, 147148, Note_on_c, 2, 57, 0
3, 147228, Note_on_c, 2, 51, 0
3, 147416, Control_c, 2, 64, 0
3, 147420, Control_c, 2, 64, 0
3, 147420, Note_on_c, 2, 50, 55
3, 147420, Note_on_c, 2, 55, 64
3, 147532, Note_on_c, 2, 55, 0
3, 147612, Note_on_c, 2, 50, 0
3, 147804, Control_c, 2, 64, 127
3, 147804, Note_on_c, 2, 55, 49
3, 147804, Note_on_c, 2, 50, 41
3, 147864, Note_on_c, 2, 50, 0
3, 147892, Note_on_c, 2, 55, 0
3, 147896, Control_c, 2, 64, 0
3, 148188, Note_on_c, 2, 51, 55
3, 148188, Note_on_c, 2, 57, 64
3, 148300, Note_on_c, 2, 57, 0
3, 148380, Note_on_c, 2, 51, 0
3, 148572, Control_c, 2, 64, 127
3, 148572, Note_on_c, 2, 57, 49
3, 148572, Note_on_c, 2, 51, 41
3, 148632, Note_on_c, 2, 51, 0
3, 148660, Note_on_c, 2, 57, 0
3, 148668, Control_c, 2, 64, 0
3, 148956, Note_on_c, 2, 50, 55
3, 148956, Note_on_c, 2, 55, 64
3, 149068, Note_on_c, 2, 55, 0
3, 149148, Note_on_c, 2, 50, 0
3, 149340, Control_c, 2, 64, 127
3, 149340, Note_on_c, 2, 55, 49
3, 149340, Note_on_c, 2, 50, 41
3, 149400, Note_on_c, 2, 50, 0
3, 149428, Note_on_c, 2, 55, 0
3, 149428, Control_c, 2, 64, 0
3, 149724, Note_on_c, 2, 53, 55
3, 149724, Note_on_c, 2, 58, 64
3, 149836, Note_on_c, 2, 58, 0
3, 149916, Note_on_c, 2, 53, 0
3, 150108, Control_c, 2, 64, 127
3, 150108, Note_on_c, 2, 58, 49
3, 150108, Note_on_c, 2, 53, 41
3, 150168, Note_on_c, 2, 53, 0
3, 150196, Note_on_c, 2, 58, 0
3, 150200, Control_c, 2, 64, 0
3, 150492, Note_on_c, 2, 51, 55
3, 150492, Note_on_c, 2, 58, 64
3, 150604, Note_on_c, 2, 58, 0
3, 150684, Note_on_c, 2, 51, 0
3, 150876, Control_c, 2, 64, 127
3, 150876, Note_on_c, 2, 58, 49
3, 150876, Note_on_c, 2, 51, 41
3, 150932, Note_on_c, 2, 51, 0
3, 150964, Note_on_c, 2, 58, 0
3, 150964, Control_c, 2, 64, 0
3, 151260, Note_on_c, 2, 51, 55
3, 151260, Note_on_c, 2, 57, 64
3, 151372, Note_on_c, 2, 57, 0
3, 151452, Note_on_c, 2, 51, 0
3, 151644, Control_c, 2, 64, 127
3, 151644, Note_on_c, 2, 57, 49
3, 151644, Note_on_c, 2, 51, 41
3, 151696, Note_on_c, 2, 51, 0
3, 151732, Note_on_c, 2, 57, 0
3, 151732, Control_c, 2, 64, 0
3, 152028, Note_on_c, 2, 53, 55
3, 152028, Note_on_c, 2, 60, 64
3, 152140, Note_on_c, 2, 60, 0
3, 152220, Note_on_c, 2, 53, 0
3, 152412, Control_c, 2, 64, 127
3, 152412, Note_on_c, 2, 60, 49
3, 152412, Note_on_c, 2, 53, 41
3, 152472, Note_on_c, 2, 53, 0
3, 152492, Note_on_c, 2, 60, 0
3, 152496, Control_c, 2, 64, 0
3, 152796, Note_on_c, 2, 53, 55
3, 152796, Note_on_c, 2, 59, 64
3, 152908, Note_on_c, 2, 59, 0
3, 152988, Note_on_c, 2, 53, 0
3, 153180, Control_c, 2, 64, 127
3, 153180, Note_on_c, 2, 59, 49
3, 153180, Note_on_c, 2, 53, 41
3, 153240, Note_on_c, 2, 53, 0
3, 153268, Note_on_c, 2, 59, 0
3, 153276, Control_c, 2, 64, 0
3, 153560, Note_on_c, 2, 51, 55
3, 153564, Note_on_c, 2, 58, 64
3, 153676, Note_on_c, 2, 58, 0
3, 153756, Note_on_c, 2, 51, 0
3, 153948, Control_c, 2, 64, 127
3, 153948, Note_on_c, 2, 58, 49
3, 153948, Note_on_c, 2, 51, 41
3, 154008, Note_on_c, 2, 51, 0
3, 154036, Note_on_c, 2, 58, 0
3, 154036, Control_c, 2, 64, 0
3, 154328, Note_on_c, 2, 51, 55
3, 154332, Note_on_c, 2, 57, 64
3, 154444, Note_on_c, 2, 57, 0
3, 154524, Note_on_c, 2, 51, 0
3, 154716, Control_c, 2, 64, 127
3, 154716, Note_on_c, 2, 57, 49
3, 154716, Note_on_c, 2, 51, 41
3, 154776, Note_on_c, 2, 51, 0
3, 154804, Note_on_c, 2, 57, 0
3, 154804, Control_c, 2, 64, 0
3, 155096, Note_on_c, 2, 51, 55
3, 155100, Note_on_c, 2, 56, 64
3, 155212, Note_on_c, 2, 56, 0
3, 155292, Note_on_c, 2, 51, 0
3, 155484, Control_c, 2, 64, 127
3, 155484, Note_on_c, 2, 56, 49
3, 155484, Note_on_c, 2, 51, 41
3, 155540, Note_on_c, 2, 51, 0
3, 155572, Note_on_c, 2, 56, 0
3, 155572, Control_c, 2, 64, 0
3, 155868, Note_on_c, 2, 50, 55
3, 155868, Note_on_c, 2, 56, 64
3, 155980, Note_on_c, 2, 56, 0
3, 156060, Note_on_c, 2, 50, 0
3, 156252, Control_c, 2, 64, 127
3, 156252, Note_on_c, 2, 56, 49
3, 156252, Note_on_c, 2, 50, 41
3, 156304, Note_on_c, 2, 50, 0
3, 156344, Note_on_c, 2, 56, 0
3, 156344, Control_c, 2, 64, 0
3, 156632, Note_on_c, 2, 48, 55
3, 156636, Note_on_c, 2, 55, 64
3, 156748, Note_on_c, 2, 55, 0
3, 156828, Note_on_c, 2, 48, 0
3, 157020, Control_c, 2, 64, 127
3, 157020, Note_on_c, 2, 55, 49
3, 157020, Note_on_c, 2, 48, 41
3, 157080, Note_on_c, 2, 48, 0
3, 157100, Note_on_c, 2, 55, 0
3, 157104, Control_c, 2, 64, 0
3, 157404, Note_on_c, 2, 54, 55
3, 157404, Note_on_c, 2, 60, 64
3, 157516, Note_on_c, 2, 60, 0
3, 157596, Note_on_c, 2, 54, 0
3, 157788, Control_c, 2, 64, 127
3, 157788, Note_on_c, 2, 60, 49
3, 157788, Note_on_c, 2, 54, 41
3, 157848, Note_on_c, 2, 54, 0
3, 157876, Note_on_c, 2, 60, 0
3, 157884, Control_c, 2, 64, 0
3, 158172, Note_on_c, 2, 53, 55
3, 158172, Note_on_c, 2, 60, 64
3, 158284, Note_on_c, 2, 60, 0
3, 158364, Note_on_c, 2, 53, 0
3, 158556, Control_c, 2, 64, 0
3, 158556, Control_c, 2, 64, 0
3, 158556, Note_on_c, 2, 53, 55
3, 158556, Note_on_c, 2, 59, 64
3, 158668, Note_on_c, 2, 59, 0
3, 158748, Note_on_c, 2, 53, 0
3, 158936, Control_c, 2, 64, 0
3, 158940, Control_c, 2, 64, 0
3, 158940, Note_on_c, 2, 51, 55
3, 158940, Note_on_c, 2, 58, 64
3, 159052, Note_on_c, 2, 58, 0
3, 159132, Note_on_c, 2, 51, 0
3, 159324, Control_c, 2, 64, 0
3, 159324, Control_c, 2, 64, 0
3, 159324, Note_on_c, 2, 51, 55
3, 159324, Note_on_c, 2, 57, 64
3, 159436, Note_on_c, 2, 57, 0
3, 159516, Note_on_c, 2, 51, 0
3, 159704, Control_c, 2, 64, 0
3, 159704, Control_c, 2, 64, 0
3, 159708, Note_on_c, 2, 50, 55
3, 159708, Note_on_c, 2, 55, 64
3, 159820, Note_on_c, 2, 55, 0
3, 159900, Note_on_c, 2, 50, 0
3, 160092, Control_c, 2, 64, 127
3, 160092, Note_on_c, 2, 55, 49
3, 160092, Note_on_c, 2, 50, 41
3, 160148, Note_on_c, 2, 50, 0
3, 160180, Note_on_c, 2, 55, 0
3, 160180, Control_c, 2, 64, 0
3, 160476, Note_on_c, 2, 51, 55
3, 160476, Note_on_c, 2, 57, 64
3, 160588, Note_on_c, 2, 57, 0
3, 160668, Note_on_c, 2, 51, 0
3, 160860, Control_c, 2, 64, 127
3, 160860, Note_on_c, 2, 57, 49
3, 160860, Note_on_c, 2, 51, 41
3, 160916, Note_on_c, 2, 51, 0
3, 160948, Note_on_c, 2, 57, 0
3, 160948, Control_c, 2, 64, 0
3, 161244, Note_on_c, 2, 50, 55
3, 161244, Note_on_c, 2, 55, 64
3, 161356, Note_on_c, 2, 55, 0
3, 161436, Note_on_c, 2, 50, 0
3, 161628, Control_c, 2, 64, 127
3, 161628, Note_on_c, 2, 55, 49
3, 161628, Note_on_c, 2, 50, 41
3, 161688, Note_on_c, 2, 50, 0
3, 161708, Note_on_c, 2, 55, 0
3, 161716, Control_c, 2, 64, 0
3, 162012, Note_on_c, 2, 53, 55
3, 162012, Note_on_c, 2, 58, 64
3, 162124, Note_on_c, 2, 58, 0
3, 162204, Note_on_c, 2, 53, 0
3, 162396, Control_c, 2, 64, 127
3, 162396, Note_on_c, 2, 58, 49
3, 162396, Note_on_c, 2, 53, 41
3, 162456, Note_on_c, 2, 53, 0
3, 162484, Note_on_c, 2, 58, 0
3, 162488, Control_c, 2, 64, 0
3, 162780, Note_on_c, 2, 51, 55
3, 162780, Note_on_c, 2, 58, 64
3, 162892, Note_on_c, 2, 58, 0
3, 162972, Note_on_c, 2, 51, 0
3, 163160, Control_c, 2, 64, 127
3, 163164, Note_on_c, 2, 58, 49
3, 163164, Note_on_c, 2, 51, 41
3, 163224, Note_on_c, 2, 51, 0
3, 163252, Note_on_c, 2, 58, 0
3, 163260, Control_c, 2, 64, 0
3, 163548, Note_on_c, 2, 51, 55
3, 163548, Note_on_c, 2, 57, 64
3, 163660, Note_on_c, 2, 57, 0
3, 163740, Note_on_c, 2, 51, 0
3, 163932, Control_c, 2, 64, 127
3, 163932, Note_on_c, 2, 57, 49
3, 163932, Note_on_c, 2, 51, 41
3, 163992, Note_on_c, 2, 51, 0
3, 164020, Note_on_c, 2, 57, 0
3, 164020, Control_c, 2, 64, 0
3, 164312, Note_on_c, 2, 53, 55
3, 164316, Note_on_c, 2, 60, 64
3, 164428, Note_on_c, 2, 60, 0
3, 164508, Note_on_c, 2, 53, 0
3, 164700, Control_c, 2, 64, 127
3, 164700, Note_on_c, 2, 60, 49
3, 164700, Note_on_c, 2, 53, 41
3, 164756, Note_on_c, 2, 53, 0
3, 164788, Note_on_c, 2, 60, 0
3, 164788, Control_c, 2, 64, 0
3, 165080, Note_on_c, 2, 53, 55
3, 165084, Note_on_c, 2, 59, 64
3, 165196, Note_on_c, 2, 59, 0
3, 165276, Note_on_c, 2, 53, 0
3, 165468, Control_c, 2, 64, 127
3, 165468, Note_on_c, 2, 59, 49
3, 165468, Note_on_c, 2, 53, 41
3, 165524, Note_on_c, 2, 53, 0
3, 165556, Note_on_c, 2, 59, 0
3, 165556, Control_c, 2, 64, 0
3, 165852, Note_on_c, 2, 51, 55
3, 165852, Note_on_c, 2, 58, 64
3, 165964, Note_on_c, 2, 58, 0
3, 166044, Note_on_c, 2, 51, 0
3, 166236, Control_c, 2, 64, 127
3, 166236, Note_on_c, 2, 58, 49
3, 166236, Note_on_c, 2, 51, 41
3, 166296, Note_on_c, 2, 51, 0
3, 166316, Note_on_c, 2, 58, 0
3, 166324, Control_c, 2, 64, 0
3, 166620, Note_on_c, 2, 51, 55
3, 166620, Note_on_c, 2, 57, 64
3, 166732, Note_on_c, 2, 57, 0
3, 166812, Note_on_c, 2, 51, 0
3, 167004, Control_c, 2, 64, 127
3, 167004, Note_on_c, 2, 57, 49
3, 167004, Note_on_c, 2, 51, 41
3, 167064, Note_on_c, 2, 51, 0
3, 167092, Note_on_c, 2, 57, 0
3, 167096, Control_c, 2, 64, 0
3, 167388, Note_on_c, 2, 51, 55
3, 167388, Note_on_c, 2, 56, 64
3, 167500, Note_on_c, 2, 56, 0
3, 167580, Note_on_c, 2, 51, 0
3, 167772, Control_c, 2, 64, 127
3, 167772, Note_on_c, 2, 56, 49
3, 167772, Note_on_c, 2, 51, 41
3, 167832, Note_on_c, 2, 51, 0
3, 167860, Note_on_c, 2, 56, 0
3, 167868, Control_c, 2, 64, 0
3, 168152, Note_on_c, 2, 50, 55
3, 168156, Note_on_c, 2, 56, 64
3, 168268, Note_on_c, 2, 56, 0
3, 168348, Note_on_c, 2, 50, 0
3, 168540, Control_c, 2, 64, 127
3, 168540, Note_on_c, 2, 56, 49
3, 168540, Note_on_c, 2, 50, 41
3, 168600, Note_on_c, 2, 50, 0
3, 168628, Note_on_c, 2, 56, 0
3, 168632, Control_c, 2, 64, 0
3, 168920, Note_on_c, 2, 48, 55
3, 168924, Note_on_c, 2, 55, 64
3, 169036, Note_on_c, 2, 55, 0
3, 169116, Note_on_c, 2, 48, 0
3, 169304, Control_c, 2, 64, 127
3, 169308, Note_on_c, 2, 55, 49
3, 169308, Note_on_c, 2, 48, 41
3, 169368, Note_on_c, 2, 48, 0
3, 169396, Note_on_c, 2, 55, 0
3, 169396, Control_c, 2, 64, 0
3, 169688, Note_on_c, 2, 54, 55
3, 169692, Note_on_c, 2, 60, 64
3, 169804, Note_on_c, 2, 60, 0
3, 169884, Note_on_c, 2, 54, 0
3, 170076, Control_c, 2, 64, 127
3, 170076, Note_on_c, 2, 60, 49
3, 170076, Note_on_c, 2, 54, 41
3, 170132, Note_on_c, 2, 54, 0
3, 170164, Note_on_c, 2, 60, 0
3, 170164, Control_c, 2, 64, 0
3, 170460, Note_on_c, 2, 53, 55
3, 170460, Note_on_c, 2, 60, 64
3, 170572, Note_on_c, 2, 60, 0
3, 170652, Note_on_c, 2, 53, 0
3, 170844, Control_c, 2, 64, 0
3, 170844, Control_c, 2, 64, 0
3, 170844, Note_on_c, 2, 53, 55
3, 170844, Note_on_c, 2, 59, 64
3, 170956, Note_on_c, 2, 59, 0
3, 171036, Note_on_c, 2, 53, 0
3, 171224, Control_c, 2, 64, 0
3, 171228, Control_c, 2, 64, 0
3, 171228, Note_on_c, 2, 51, 55
3, 171228, Note_on_c, 2, 58, 64
3, 171340, Note_on_c, 2, 58, 0
3, 171420, Note_on_c, 2, 51, 0
3, 171612, Control_c, 2, 64, 0
3, 171612, Control_c, 2, 64, 0
3, 171612, Note_on_c, 2, 51, 55
3, 171612, Note_on_c, 2, 57, 64
3, 171724, Note_on_c, 2, 57, 0
3, 171804, Note_on_c, 2, 51, 0
3, 171996, Control_c, 2, 64, 0
3, 171996, Control_c, 2, 64, 0
3, 171996, Note_on_c, 2, 50, 55
3, 171996, Note_on_c, 2, 55, 64
3, 172108, Note_on_c, 2, 55, 0
3, 172188, Note_on_c, 2, 50, 0
3, 172380, Control_c, 2, 64, 127
3, 172380, Note_on_c, 2, 55, 49
3, 172380, Note_on_c, 2, 50, 41
3, 172440, Note_on_c, 2, 50, 0
3, 172468, Note_on_c, 2, 55, 0
3, 172476, Control_c, 2, 64, 0
3, 172764, Note_on_c, 2, 50, 55
3, 172764, Note_on_c, 2, 56, 64
3, 172876, Note_on_c, 2, 56, 0
3, 172956, Note_on_c, 2, 50, 0
3, 173148, Control_c, 2, 64, 127
3, 173148, Note_on_c, 2, 56, 49
3, 173148, Note_on_c, 2, 50, 41
3, 173208, Note_on_c, 2, 50, 0
3, 173240, Note_on_c, 2, 56, 0
3, 173240, Control_c, 2, 64, 0
3, 173532, Note_on_c, 2, 48, 55
3, 173532, Note_on_c, 2, 55, 64
3, 173644, Note_on_c, 2, 55, 0
3, 173724, Note_on_c, 2, 48, 0
3, 173912, Control_c, 2, 64, 127
3, 173916, Note_on_c, 2, 55, 49
3, 173916, Note_on_c, 2, 48, 41
3, 173976, Note_on_c, 2, 48, 0
3, 174004, Note_on_c, 2, 55, 0
3, 174004, Control_c, 2, 64, 0
3, 174300, Note_on_c, 2, 52, 55
3, 174300, Note_on_c, 2, 58, 64
3, 174412, Note_on_c, 2, 58, 0
3, 174492, Note_on_c, 2, 52, 0
3, 174684, Control_c, 2, 64, 127
3, 174684, Note_on_c, 2, 58, 49
3, 174684, Note_on_c, 2, 52, 41
3, 174740, Note_on_c, 2, 52, 0
3, 174772, Note_on_c, 2, 58, 0
3, 174772, Control_c, 2, 64, 0
3, 175064, Note_on_c, 2, 51, 55
3, 175068, Note_on_c, 2, 56, 64
3, 175180, Note_on_c, 2, 56, 0
3, 175260, Note_on_c, 2, 51, 0
3, 175452, Control_c, 2, 64, 127
3, 175452, Note_on_c, 2, 56, 49
3, 175452, Note_on_c, 2, 51, 41
3, 175504, Note_on_c, 2, 51, 0
3, 175540, Note_on_c, 2, 56, 0
3, 175540, Control_c, 2, 64, 0
3, 175836, Note_on_c, 2, 50, 55
3, 175836, Note_on_c, 2, 56, 64
3, 175948, Note_on_c, 2, 56, 0
3, 176028, Note_on_c, 2, 50, 0
3, 176220, Control_c, 2, 64, 127
3, 176220, Note_on_c, 2, 56, 49
3, 176220, Note_on_c, 2, 50, 41
3, 176280, Note_on_c, 2, 50, 0
3, 176300, Note_on_c, 2, 56, 0
3, 176304, Control_c, 2, 64, 0
3, 176600, Note_on_c, 2, 53, 55
3, 176604, Note_on_c, 2, 58, 64
3, 176716, Note_on_c, 2, 58, 0
3, 176796, Note_on_c, 2, 53, 0
3, 176988, Control_c, 2, 64, 127
3, 176988, Note_on_c, 2, 58, 49
3, 176988, Note_on_c, 2, 53, 41
3, 177048, Note_on_c, 2, 53, 0
3, 177076, Note_on_c, 2, 58, 0
3, 177084, Control_c, 2, 64, 0
3, 177368, Note_on_c, 2, 52, 55
3, 177372, Note_on_c, 2, 58, 64
3, 177484, Note_on_c, 2, 58, 0
3, 177564, Note_on_c, 2, 52, 0
3, 177756, Control_c, 2, 64, 127
3, 177756, Note_on_c, 2, 58, 49
3, 177756, Note_on_c, 2, 52, 41
3, 177816, Note_on_c, 2, 52, 0
3, 177844, Note_on_c, 2, 58, 0
3, 177844, Control_c, 2, 64, 0
3, 178136, Note_on_c, 2, 51, 55
3, 178140, Note_on_c, 2, 56, 64
3, 178252, Note_on_c, 2, 56, 0
3, 178332, Note_on_c, 2, 51, 0
3, 178524, Control_c, 2, 64, 127
3, 178524, Note_on_c, 2, 56, 49
3, 178524, Note_on_c, 2, 51, 41
3, 178584, Note_on_c, 2, 51, 0
3, 178612, Note_on_c, 2, 56, 0
3, 178612, Control_c, 2, 64, 0
3, 178904, Note_on_c, 2, 50, 55
3, 178908, Note_on_c, 2, 56, 64
3, 179020, Note_on_c, 2, 56, 0
3, 179100, Note_on_c, 2, 50, 0
3, 179292, Control_c, 2, 64, 127
3, 179292, Note_on_c, 2, 56, 49
3, 179292, Note_on_c, 2, 50, 41
3, 179348, Note_on_c, 2, 50, 0
3, 179380, Note_on_c, 2, 56, 0
3, 179380, Control_c, 2, 64, 0
3, 179676, Note_on_c, 2, 49, 55
3, 179676, Note_on_c, 2, 56, 64
3, 179788, Note_on_c, 2, 56, 0
3, 179868, Note_on_c, 2, 49, 0
3, 180060, Control_c, 2, 64, 127
3, 180060, Note_on_c, 2, 56, 49
3, 180060, Note_on_c, 2, 49, 41
3, 180116, Note_on_c, 2, 49, 0
3, 180148, Note_on_c, 2, 56, 0
3, 180148, Control_c, 2, 64, 0
3, 180444, Note_on_c, 2, 49, 55
3, 180444, Note_on_c, 2, 55, 64
3, 180556, Note_on_c, 2, 55, 0
3, 180636, Note_on_c, 2, 49, 0
3, 180828, Control_c, 2, 64, 127
3, 180828, Note_on_c, 2, 55, 49
3, 180828, Note_on_c, 2, 49, 41
3, 180888, Note_on_c, 2, 49, 0
3, 180908, Note_on_c, 2, 55, 0
3, 180916, Control_c, 2, 64, 0
3, 181208, Note_on_c, 2, 55, 55
3, 181212, Note_on_c, 2, 60, 64
3, 181324, Note_on_c, 2, 60, 0
3, 181404, Note_on_c, 2, 55, 0
3, 181596, Control_c, 2, 64, 127
3, 181596, Note_on_c, 2, 60, 49
3, 181596, Note_on_c, 2, 55, 41
3, 181656, Note_on_c, 2, 55, 0
3, 181684, Note_on_c, 2, 60, 0
3, 181688, Control_c, 2, 64, 0
3, 181980, Note_on_c, 2, 53, 55
3, 181980, Note_on_c, 2, 59, 64
3, 182092, Note_on_c, 2, 59, 0
3, 182172, Note_on_c, 2, 53, 0
3, 182364, Control_c, 2, 64, 127
3, 182364, Note_on_c, 2, 59, 49
3, 182364, Note_on_c, 2, 53, 41
3, 182424, Note_on_c, 2, 53, 0
3, 182452, Note_on_c, 2, 59, 0
3, 182460, Control_c, 2, 64, 0
3, 182744, Note_on_c, 2, 53, 55
3, 182748, Note_on_c, 2, 58, 64
3, 182860, Note_on_c, 2, 58, 0
3, 182940, Note_on_c, 2, 53, 0
3, 183132, Control_c, 2, 64, 0
3, 183132, Control_c, 2, 64, 0
3, 183132, Note_on_c, 2, 52, 55
3, 183132, Note_on_c, 2, 58, 64
3, 183244, Note_on_c, 2, 58, 0
3, 183324, Note_on_c, 2, 52, 0
3, 183516, Control_c, 2, 64, 0
3, 183516, Control_c, 2, 64, 0
3, 183516, Note_on_c, 2, 51, 55
3, 183516, Note_on_c, 2, 56, 64
3, 183628, Note_on_c, 2, 56, 0
3, 183708, Note_on_c, 2, 51, 0
3, 183900, Control_c, 2, 64, 0
3, 183900, Control_c, 2, 64, 0
3, 183900, Note_on_c, 2, 50, 55
3, 183900, Note_on_c, 2, 56, 64
3, 184012, Note_on_c, 2, 56, 0
3, 184092, Note_on_c, 2, 50, 0
3, 184280, Control_c, 2, 64, 0
3, 184284, Control_c, 2, 64, 0
3, 184284, Note_on_c, 2, 48, 55
3, 184284, Note_on_c, 2, 55, 64
3, 184396, Note_on_c, 2, 55, 0
3, 184476, Note_on_c, 2, 48, 0
3, 184668, Control_c, 2, 64, 127
3, 184668, Note_on_c, 2, 55, 49
3, 184668, Note_on_c, 2, 48, 41
3, 184724, Note_on_c, 2, 48, 0
3, 184756, Note_on_c, 2, 55, 0
3, 184756, Control_c, 2, 64, 0
3, 185052, Note_on_c, 2, 51, 55
3, 185052, Note_on_c, 2, 57, 64
3, 185164, Note_on_c, 2, 57, 0
3, 185244, Note_on_c, 2, 51, 0
3, 185436, Control_c, 2, 64, 127
3, 185436, Note_on_c, 2, 57, 49
3, 185436, Note_on_c, 2, 51, 41
3, 185496, Note_on_c, 2, 51, 0
3, 185516, Note_on_c, 2, 57, 0
3, 185524, Control_c, 2, 64, 0
3, 185820, Note_on_c, 2, 50, 55
3, 185820, Note_on_c, 2, 55, 64
3, 185932, Note_on_c, 2, 55, 0
3, 186012, Note_on_c, 2, 50, 0
3, 186200, Control_c, 2, 64, 127
3, 186204, Note_on_c, 2, 55, 49
3, 186204, Note_on_c, 2, 50, 41
3, 186264, Note_on_c, 2, 50, 0
3, 186292, Note_on_c, 2, 55, 0
3, 186296, Control_c, 2, 64, 0
3, 186588, Note_on_c, 2, 53, 55
3, 186588, Note_on_c, 2, 58, 64
3, 186700, Note_on_c, 2, 58, 0
3, 186780, Note_on_c, 2, 53, 0
3, 186972, Control_c, 2, 64, 127
3, 186972, Note_on_c, 2, 58, 49
3, 186972, Note_on_c, 2, 53, 41
3, 187032, Note_on_c, 2, 53, 0
3, 187060, Note_on_c, 2, 58, 0
3, 187068, Control_c, 2, 64, 0
3, 187352, Note_on_c, 2, 51, 55
3, 187356, Note_on_c, 2, 58, 64
3, 187468, Note_on_c, 2, 58, 0
3, 187548, Note_on_c, 2, 51, 0
3, 187740, Control_c, 2, 64, 127
3, 187740, Note_on_c, 2, 58, 49
3, 187740, Note_on_c, 2, 51, 41
3, 187800, Note_on_c, 2, 51, 0
3, 187828, Note_on_c, 2, 58, 0
3, 187828, Control_c, 2, 64, 0
3, 188120, Note_on_c, 2, 51, 55
3, 188124, Note_on_c, 2, 57, 64
3, 188236, Note_on_c, 2, 57, 0
3, 188316, Note_on_c, 2, 51, 0
3, 188508, Control_c, 2, 64, 127
3, 188508, Note_on_c, 2, 57, 49
3, 188508, Note_on_c, 2, 51, 41
3, 188568, Note_on_c, 2, 51, 0
3, 188596, Note_on_c, 2, 57, 0
3, 188596, Control_c, 2, 64, 0
3, 188888, Note_on_c, 2, 53, 55
3, 188892, Note_on_c, 2, 60, 64
3, 189004, Note_on_c, 2, 60, 0
3, 189084, Note_on_c, 2, 53, 0
3, 189276, Control_c, 2, 64, 127
3, 189276, Note_on_c, 2, 60, 49
3, 189276, Note_on_c, 2, 53, 41
3, 189332, Note_on_c, 2, 53, 0
3, 189364, Note_on_c, 2, 60, 0
3, 189364, Control_c, 2, 64, 0
3, 189660, Note_on_c, 2, 53, 55
3, 189660, Note_on_c, 2, 59, 64
3, 189772, Note_on_c, 2, 59, 0
3, 189852, Note_on_c, 2, 53, 0
3, 190044, Control_c, 2, 64, 127
3, 190044, Note_on_c, 2, 59, 49
3, 190044, Note_on_c, 2, 53, 41
3, 190096, Note_on_c, 2, 53, 0
3, 190132, Note_on_c, 2, 59, 0
3, 190132, Control_c, 2, 64, 0
3, 190428, Note_on_c, 2, 51, 55
3, 190428, Note_on_c, 2, 58, 64
3, 190540, Note_on_c, 2, 58, 0
3, 190620, Note_on_c, 2, 51, 0
3, 190812, Control_c, 2, 64, 127
3, 190812, Note_on_c, 2, 58, 49
3, 190812, Note_on_c, 2, 51, 41
3, 190872, Note_on_c, 2, 51, 0
3, 190892, Note_on_c, 2, 58, 0
3, 190896, Control_c, 2, 64, 0
3, 191196, Note_on_c, 2, 51, 55
3, 191196, Note_on_c, 2, 57, 64
3, 191308, Note_on_c, 2, 57, 0
3, 191388, Note_on_c, 2, 51, 0
3, 191580, Control_c, 2, 64, 127
3, 191580, Note_on_c, 2, 57, 49
3, 191580, Note_on_c, 2, 51, 41
3, 191640, Note_on_c, 2, 51, 0
3, 191668, Note_on_c, 2, 57, 0
3, 191676, Control_c, 2, 64, 0
3, 191960, Note_on_c, 2, 51, 55
3, 191964, Note_on_c, 2, 56, 64
3, 192076, Note_on_c, 2, 56, 0
3, 192156, Note_on_c, 2, 51, 0
3, 192348, Control_c, 2, 64, 127
3, 192348, Note_on_c, 2, 56, 49
3, 192348, Note_on_c, 2, 51, 41
3, 192408, Note_on_c, 2, 51, 0
3, 192436, Note_on_c, 2, 56, 0
3, 192436, Control_c, 2, 64, 0
3, 192728, Note_on_c, 2, 50, 55
3, 192732, Note_on_c, 2, 56, 64
3, 192844, Note_on_c, 2, 56, 0
3, 192924, Note_on_c, 2, 50, 0
3, 193116, Control_c, 2, 64, 127
3, 193116, Note_on_c, 2, 56, 49
3, 193120, Note_on_c, 2, 50, 41
3, 193176, Note_on_c, 2, 50, 0
3, 193204, Note_on_c, 2, 56, 0
3, 193208, Control_c, 2, 64, 0
3, 193500, Note_on_c, 2, 48, 55
3, 193500, Note_on_c, 2, 55, 64
3, 193612, Note_on_c, 2, 55, 0
3, 193692, Note_on_c, 2, 48, 0
3, 193884, Control_c, 2, 64, 127
3, 193884, Note_on_c, 2, 55, 49
3, 193884, Note_on_c, 2, 48, 41
3, 193940, Note_on_c, 2, 48, 0
3, 193972, Note_on_c, 2, 55, 0
3, 193972, Control_c, 2, 64, 0
3, 194268, Note_on_c, 2, 54, 55
3, 194268, Note_on_c, 2, 60, 64
3, 194380, Note_on_c, 2, 60, 0
3, 194460, Note_on_c, 2, 54, 0
3, 194652, Control_c, 2, 64, 127
3, 194652, Note_on_c, 2, 60, 49
3, 194652, Note_on_c, 2, 54, 41
3, 194704, Note_on_c, 2, 54, 0
3, 194740, Note_on_c, 2, 60, 0
3, 194740, Control_c, 2, 64, 0
3, 195036, Note_on_c, 2, 53, 55
3, 195036, Note_on_c, 2, 60, 64
3, 195148, Note_on_c, 2, 60, 0
3, 195228, Note_on_c, 2, 53, 0
3, 195420, Control_c, 2, 64, 0
3, 195420, Control_c, 2, 64, 0
3, 195420, Note_on_c, 2, 53, 55
3, 195420, Note_on_c, 2, 59, 64
3, 195532, Note_on_c, 2, 59, 0
3, 195612, Note_on_c, 2, 53, 0
3, 195804, Control_c, 2, 64, 0
3, 195804, Control_c, 2, 64, 0
3, 195804, Note_on_c, 2, 51, 55
3, 195804, Note_on_c, 2, 58, 64
3, 195916, Note_on_c, 2, 58, 0
3, 195996, Note_on_c, 2, 51, 0
3, 196188, Control_c, 2, 64, 0
3, 196188, Control_c, 2, 64, 0
3, 196188, Note_on_c, 2, 51, 55
3, 196188, Note_on_c, 2, 57, 64
3, 196300, Note_on_c, 2, 57, 0
3, 196380, Note_on_c, 2, 51, 0
3, 196572, Control_c, 2, 64, 0
3, 196572, Control_c, 2, 64, 0
3, 196572, Note_on_c, 2, 50, 55
3, 196572, Note_on_c, 2, 55, 64
3, 196684, Note_on_c, 2, 55, 0
3, 196764, Note_on_c, 2, 50, 0
3, 196956, Control_c, 2, 64, 127
3, 196956, Note_on_c, 2, 55, 49
3, 196956, Note_on_c, 2, 50, 41
3, 197016, Note_on_c, 2, 50, 0
3, 197044, Note_on_c, 2, 55, 0
3, 197044, Control_c, 2, 64, 0
3, 197340, Note_on_c, 2, 51, 55
3, 197340, Note_on_c, 2, 57, 64
3, 197452, Note_on_c, 2, 57, 0
3, 197532, Note_on_c, 2, 51, 0
3, 197724, Control_c, 2, 64, 127
3, 197724, Note_on_c, 2, 57, 49
3, 197724, Note_on_c, 2, 51, 41
3, 197784, Note_on_c, 2, 51, 0
3, 197816, Note_on_c, 2, 57, 0
3, 197816, Control_c, 2, 64, 0
3, 198104, Note_on_c, 2, 50, 55
3, 198112, Note_on_c, 2, 55, 64
3, 198220, Note_on_c, 2, 55, 0
3, 198300, Note_on_c, 2, 50, 0
3, 198492, Control_c, 2, 64, 127
3, 198492, Note_on_c, 2, 55, 49
3, 198492, Note_on_c, 2, 50, 41
3, 198548, Note_on_c, 2, 50, 0
3, 198580, Note_on_c, 2, 55, 0
3, 198580, Control_c, 2, 64, 0
3, 198876, Note_on_c, 2, 53, 55
3, 198876, Note_on_c, 2, 58, 64
3, 198988, Note_on_c, 2, 58, 0
3, 199068, Note_on_c, 2, 53, 0
3, 199260, Control_c, 2, 64, 127
3, 199260, Note_on_c, 2, 58, 49
3, 199260, Note_on_c, 2, 53, 41
3, 199316, Note_on_c, 2, 53, 0
3, 199348, Note_on_c, 2, 58, 0
3, 199348, Control_c, 2, 64, 0
3, 199644, Note_on_c, 2, 51, 55
3, 199644, Note_on_c, 2, 58, 64
3, 199756, Note_on_c, 2, 58, 0
3, 199836, Note_on_c, 2, 51, 0
3, 200028, Control_c, 2, 64, 127
3, 200028, Note_on_c, 2, 58, 49
3, 200028, Note_on_c, 2, 51, 41
3, 200088, Note_on_c, 2, 51, 0
3, 200108, Note_on_c, 2, 58, 0
3, 200116, Control_c, 2, 64, 0
3, 200412, Note_on_c, 2, 51, 55
3, 200412, Note_on_c, 2, 57, 64
3, 200524, Note_on_c, 2, 57, 0
3, 200604, Note_on_c, 2, 51, 0
3, 200796, Control_c, 2, 64, 127
3, 200796, Note_on_c, 2, 57, 49
3, 200796, Note_on_c, 2, 51, 41
3, 200856, Note_on_c, 2, 51, 0
3, 200884, Note_on_c, 2, 57, 0
3, 200888, Control_c, 2, 64, 0
3, 201176, Note_on_c, 2, 53, 55
3, 201180, Note_on_c, 2, 60, 64
3, 201292, Note_on_c, 2, 60, 0
3, 201372, Note_on_c, 2, 53, 0
3, 201564, Control_c, 2, 64, 127
3, 201564, Note_on_c, 2, 60, 49
3, 201564, Note_on_c, 2, 53, 41
3, 201624, Note_on_c, 2, 53, 0
3, 201652, Note_on_c, 2, 60, 0
3, 201660, Control_c, 2, 64, 0
3, 201944, Note_on_c, 2, 53, 55
3, 201948, Note_on_c, 2, 59, 64
3, 202060, Note_on_c, 2, 59, 0
3, 202140, Note_on_c, 2, 53, 0
3, 202332, Control_c, 2, 64, 127
3, 202332, Note_on_c, 2, 59, 49
3, 202332, Note_on_c, 2, 53, 41
3, 202392, Note_on_c, 2, 53, 0
3, 202420, Note_on_c, 2, 59, 0
3, 202420, Control_c, 2, 64, 0
3, 202712, Note_on_c, 2, 51, 55
3, 202716, Note_on_c, 2, 58, 64
3, 202828, Note_on_c, 2, 58, 0
3, 202908, Note_on_c, 2, 51, 0
3, 203100, Control_c, 2, 64, 127
3, 203100, Note_on_c, 2, 58, 49
3, 203100, Note_on_c, 2, 51, 41
3, 203156, Note_on_c, 2, 51, 0
3, 203188, Note_on_c, 2, 58, 0
3, 203188, Control_c, 2, 64, 0
3, 203480, Note_on_c, 2, 51, 55
3, 203484, Note_on_c, 2, 57, 64
3, 203596, Note_on_c, 2, 57, 0
3, 203676, Note_on_c, 2, 51, 0
3, 203868, Control_c, 2, 64, 127
3, 203868, Note_on_c, 2, 57, 49
3, 203868, Note_on_c, 2, 51, 41
3, 203924, Note_on_c, 2, 51, 0
3, 203956, Note_on_c, 2, 57, 0
3, 203956, Control_c, 2, 64, 0
3, 204252, Note_on_c, 2, 51, 55
3, 204252, Note_on_c, 2, 56, 64
3, 204364, Note_on_c, 2, 56, 0
3, 204444, Note_on_c, 2, 51, 0
3, 204636, Control_c, 2, 64, 127
3, 204636, Note_on_c, 2, 56, 49
3, 204636, Note_on_c, 2, 51, 41
3, 204696, Note_on_c, 2, 51, 0
3, 204716, Note_on_c, 2, 56, 0
3, 204724, Control_c, 2, 64, 0
3, 205020, Note_on_c, 2, 50, 55
3, 205020, Note_on_c, 2, 56, 64
3, 205132, Note_on_c, 2, 56, 0
3, 205212, Note_on_c, 2, 50, 0
3, 205404, Control_c, 2, 64, 127
3, 205404, Note_on_c, 2, 56, 49
3, 205404, Note_on_c, 2, 50, 41
3, 205464, Note_on_c, 2, 50, 0
3, 205492, Note_on_c, 2, 56, 0
3, 205496, Control_c, 2, 64, 0
3, 205788, Note_on_c, 2, 48, 55
3, 205788, Note_on_c, 2, 55, 64
3, 205900, Note_on_c, 2, 55, 0
3, 205980, Note_on_c, 2, 48, 0
3, 206172, Control_c, 2, 64, 127
3, 206172, Note_on_c, 2, 55, 49
3, 206172, Note_on_c, 2, 48, 41
3, 206232, Note_on_c, 2, 48, 0
3, 206260, Note_on_c, 2, 55, 0
3, 206268, Control_c, 2, 64, 0
3, 206556, Note_on_c, 2, 54, 55
3, 206556, Note_on_c, 2, 60, 64
3, 206668, Note_on_c, 2, 60, 0
3, 206748, Note_on_c, 2, 54, 0
3, 206940, Control_c, 2, 64, 127
3, 206940, Note_on_c, 2, 60, 49
3, 206940, Note_on_c, 2, 54, 41
3, 207000, Note_on_c, 2, 54, 0
3, 207028, Note_on_c, 2, 60, 0
3, 207032, Control_c, 2, 64, 0
3, 207324, Note_on_c, 2, 53, 55
3, 207324, Note_on_c, 2, 60, 64
3, 207436, Note_on_c, 2, 60, 0
3, 207516, Note_on_c, 2, 53, 0
3, 207704, Control_c, 2, 64, 0
3, 207708, Control_c, 2, 64, 0
3, 207708, Note_on_c, 2, 53, 55
3, 207708, Note_on_c, 2, 59, 64
3, 207820, Note_on_c, 2, 59, 0
3, 207900, Note_on_c, 2, 53, 0
3, 208088, Control_c, 2, 64, 0
3, 208092, Control_c, 2, 64, 0
3, 208092, Note_on_c, 2, 51, 55
3, 208092, Note_on_c, 2, 58, 64
3, 208204, Note_on_c, 2, 58, 0
3, 208284, Note_on_c, 2, 51, 0
3, 208476, Control_c, 2, 64, 0
3, 208476, Control_c, 2, 64, 0
3, 208476, Note_on_c, 2, 51, 55
3, 208476, Note_on_c, 2, 57, 64
3, 208588, Note_on_c, 2, 57, 0
3, 208668, Note_on_c, 2, 51, 0
3, 208856, Control_c, 2, 64, 0
3, 208860, Control_c, 2, 64, 0
3, 208860, Note_on_c, 2, 50, 55
3, 208860, Note_on_c, 2, 55, 64
3, 208972, Note_on_c, 2, 55, 0
3, 209052, Note_on_c, 2, 50, 0
3, 209240, Control_c, 2, 64, 127
3, 209244, Note_on_c, 2, 55, 49
3, 209244, Note_on_c, 2, 50, 41
3, 209296, Note_on_c, 2, 50, 0
3, 209332, Note_on_c, 2, 55, 0
3, 209332, Control_c, 2, 64, 0
3, 209628, Note_on_c, 2, 51, 55
3, 209628, Note_on_c, 2, 57, 64
3, 209740, Note_on_c, 2, 57, 0
3, 209820, Note_on_c, 2, 51, 0
3, 210012, Control_c, 2, 64, 127
3, 210012, Note_on_c, 2, 57, 49
3, 210012, Note_on_c, 2, 51, 41
3, 210072, Note_on_c, 2, 51, 0
3, 210092, Note_on_c, 2, 57, 0
3, 210096, Control_c, 2, 64, 0
3, 210396, Note_on_c, 2, 50, 55
3, 210396, Note_on_c, 2, 55, 64
3, 210508, Note_on_c, 2, 55, 0
3, 210588, Note_on_c, 2, 50, 0
3, 210780, Control_c, 2, 64, 127
3, 210780, Note_on_c, 2, 55, 49
3, 210780, Note_on_c, 2, 50, 41
3, 210840, Note_on_c, 2, 50, 0
3, 210868, Note_on_c, 2, 55, 0
3, 210876, Control_c, 2, 64, 0
3, 211160, Note_on_c, 2, 53, 55
3, 211164, Note_on_c, 2, 58, 64
3, 211276, Note_on_c, 2, 58, 0
3, 211356, Note_on_c, 2, 53, 0
3, 211548, Control_c, 2, 64, 127
3, 211548, Note_on_c, 2, 58, 49
3, 211548, Note_on_c, 2, 53, 41
3, 211608, Note_on_c, 2, 53, 0
3, 211636, Note_on_c, 2, 58, 0
3, 211636, Control_c, 2, 64, 0
3, 211928, Note_on_c, 2, 51, 55
3, 211932, Note_on_c, 2, 58, 64
3, 212044, Note_on_c, 2, 58, 0
3, 212124, Note_on_c, 2, 51, 0
3, 212312, Control_c, 2, 64, 127
3, 212316, Note_on_c, 2, 58, 49
3, 212316, Note_on_c, 2, 51, 41
3, 212376, Note_on_c, 2, 51, 0
3, 212408, Note_on_c, 2, 58, 0
3, 212408, Control_c, 2, 64, 0
3, 212700, Note_on_c, 2, 51, 55
3, 212700, Note_on_c, 2, 57, 64
3, 212812, Note_on_c, 2, 57, 0
3, 212892, Note_on_c, 2, 51, 0
3, 213084, Control_c, 2, 64, 127
3, 213084, Note_on_c, 2, 57, 49
3, 213084, Note_on_c, 2, 51, 41
3, 213140, Note_on_c, 2, 51, 0
3, 213172, Note_on_c, 2, 57, 0
3, 213172, Control_c, 2, 64, 0
3, 213468, Note_on_c, 2, 53, 55
3, 213468, Note_on_c, 2, 60, 64
3, 213580, Note_on_c, 2, 60, 0
3, 213660, Note_on_c, 2, 53, 0
3, 213852, Control_c, 2, 64, 127
3, 213852, Note_on_c, 2, 60, 49
3, 213852, Note_on_c, 2, 53, 41
3, 213904, Note_on_c, 2, 53, 0
3, 213940, Note_on_c, 2, 60, 0
3, 213940, Control_c, 2, 64, 0
3, 214232, Note_on_c, 2, 53, 55
3, 214236, Note_on_c, 2, 59, 64
3, 214348, Note_on_c, 2, 59, 0
3, 214428, Note_on_c, 2, 53, 0
3, 214620, Control_c, 2, 64, 127
3, 214620, Note_on_c, 2, 59, 49
3, 214620, Note_on_c, 2, 53, 41
3, 214680, Note_on_c, 2, 53, 0
3, 214700, Note_on_c, 2, 59, 0
3, 214704, Control_c, 2, 64, 0
3, 215004, Note_on_c, 2, 51, 55
3, 215004, Note_on_c, 2, 58, 64
3, 215116, Note_on_c, 2, 58, 0
3, 215196, Note_on_c, 2, 51, 0
3, 215388, Control_c, 2, 64, 127
3, 215388, Note_on_c, 2, 58, 49
3, 215388, Note_on_c, 2, 51, 41
3, 215448, Note_on_c, 2, 51, 0
3, 215476, Note_on_c, 2, 58, 0
3, 215484, Control_c, 2, 64, 0
3, 215772, Note_on_c, 2, 51, 55
3, 215772, Note_on_c, 2, 57, 64
3, 215884, Note_on_c, 2, 57, 0
3, 215964, Note_on_c, 2, 51, 0
3, 216156, Control_c, 2, 64, 127
3, 216156, Note_on_c, 2, 57, 49
3, 216156, Note_on_c, 2, 51, 41
3, 216216, Note_on_c, 2, 51, 0
3, 216244, Note_on_c, 2, 57, 0
3, 216248, Control_c, 2, 64, 0
3, 216536, Note_on_c, 2, 51, 55
3, 216540, Note_on_c, 2, 56, 64
3, 216652, Note_on_c, 2, 56, 0
3, 216732, Note_on_c, 2, 51, 0
3, 216924, Control_c, 2, 64, 127
3, 216924, Note_on_c, 2, 56, 49
3, 216924, Note_on_c, 2, 51, 41
3, 216984, Note_on_c, 2, 51, 0
3, 217012, Note_on_c, 2, 56, 0
3, 217012, Control_c, 2, 64, 0
3, 217304, Note_on_c, 2, 50, 55
3, 217308, Note_on_c, 2, 56, 64
3, 217420, Note_on_c, 2, 56, 0
3, 217500, Note_on_c, 2, 50, 0
3, 217692, Control_c, 2, 64, 127
3, 217692, Note_on_c, 2, 56, 49
3, 217692, Note_on_c, 2, 50, 41
3, 217748, Note_on_c, 2, 50, 0
3, 217780, Note_on_c, 2, 56, 0
3, 217780, Control_c, 2, 64, 0
3, 218076, Note_on_c, 2, 48, 55
3, 218076, Note_on_c, 2, 55, 64
3, 218188, Note_on_c, 2, 55, 0
3, 218268, Note_on_c, 2, 48, 0
3, 218460, Control_c, 2, 64, 127
3, 218460, Note_on_c, 2, 55, 49
3, 218460, Note_on_c, 2, 48, 41
3, 218516, Note_on_c, 2, 48, 0
3, 218548, Note_on_c, 2, 55, 0
3, 218548, Control_c, 2, 64, 0
3, 218844, Note_on_c, 2, 54, 55
3, 218844, Note_on_c, 2, 60, 64
3, 218956, Note_on_c, 2, 60, 0
3, 219036, Note_on_c, 2, 54, 0
3, 219228, Control_c, 2, 64, 127
3, 219228, Note_on_c, 2, 60, 49
3, 219228, Note_on_c, 2, 54, 41
3, 219288, Note_on_c, 2, 54, 0
3, 219308, Note_on_c, 2, 60, 0
3, 219316, Control_c, 2, 64, 0
3, 219612, Note_on_c, 2, 53, 55
3, 219612, Note_on_c, 2, 60, 64
3, 219724, Note_on_c, 2, 60, 0
3, 219804, Note_on_c, 2, 53, 0
3, 219992, Control_c, 2, 64, 0
3, 219996, Control_c, 2, 64, 0
3, 219996, Note_on_c, 2, 53, 55
3, 219996, Note_on_c, 2, 59, 64
3, 220108, Note_on_c, 2, 59, 0
3, 220188, Note_on_c, 2, 53, 0
3, 220380, Control_c, 2, 64, 0
3, 220380, Control_c, 2, 64, 0
3, 220380, Note_on_c, 2, 51, 55
3, 220380, Note_on_c, 2, 58, 64
3, 220492, Note_on_c, 2, 58, 0
3, 220572, Note_on_c, 2, 51, 0
3, 220764, Control_c, 2, 64, 0
3, 220764, Control_c, 2, 64, 0
3, 220764, Note_on_c, 2, 51, 55
3, 220764, Note_on_c, 2, 57, 64
3, 220876, Note_on_c, 2, 57, 0
3, 220956, Note_on_c, 2, 51, 0
3, 221144, Control_c, 2, 64, 0
3, 221148, Control_c, 2, 64, 0
3, 221148, Note_on_c, 2, 50, 55
3, 221148, Note_on_c, 2, 55, 64
3, 221260, Note_on_c, 2, 55, 0
3, 221340, Note_on_c, 2, 50, 0
3, 221532, Control_c, 2, 64, 127
3, 221532, Note_on_c, 2, 55, 49
3, 221532, Note_on_c, 2, 50, 41
3, 221592, Note_on_c, 2, 50, 0
3, 221620, Note_on_c, 2, 55, 0
3, 221620, Control_c, 2, 64, 0
3, 221912, Note_on_c, 2, 50, 55
3, 221916, Note_on_c, 2, 56, 64
3, 222028, Note_on_c, 2, 56, 0
3, 222108, Note_on_c, 2, 50, 0
3, 222300, Control_c, 2, 64, 127
3, 222300, Note_on_c, 2, 56, 49
3, 222300, Note_on_c, 2, 50, 41
3, 222356, Note_on_c, 2, 50, 0
3, 222388, Note_on_c, 2, 56, 0
3, 222392, Control_c, 2, 64, 0
3, 222684, Note_on_c, 2, 48, 55
3, 222684, Note_on_c, 2, 55, 64
3, 222796, Note_on_c, 2, 55, 0
3, 222876, Note_on_c, 2, 48, 0
3, 223068, Control_c, 2, 64, 127
3, 223068, Note_on_c, 2, 55, 49
3, 223068, Note_on_c, 2, 48, 41
3, 223124, Note_on_c, 2, 48, 0
3, 223156, Note_on_c, 2, 55, 0
3, 223156, Control_c, 2, 64, 0
3, 223452, Note_on_c, 2, 52, 55
3, 223452, Note_on_c, 2, 58, 64
3, 223564, Note_on_c, 2, 58, 0
3, 223644, Note_on_c, 2, 52, 0
3, 223836, Control_c, 2, 64, 127
3, 223836, Note_on_c, 2, 58, 49
3, 223836, Note_on_c, 2, 52, 41
3, 223896, Note_on_c, 2, 52, 0
3, 223920, Note_on_c, 2, 58, 0
3, 223928, Control_c, 2, 64, 0
3, 224220, Note_on_c, 2, 51, 55
3, 224220, Note_on_c, 2, 56, 64
3, 224332, Note_on_c, 2, 56, 0
3, 224412, Note_on_c, 2, 51, 0
3, 224604, Control_c, 2, 64, 127
3, 224604, Note_on_c, 2, 56, 49
3, 224604, Note_on_c, 2, 51, 41
3, 224664, Note_on_c, 2, 51, 0
3, 224692, Note_on_c, 2, 56, 0
3, 224696, Control_c, 2, 64, 0
3, 224988, Note_on_c, 2, 50, 55
3, 224988, Note_on_c, 2, 56, 64
3, 225100, Note_on_c, 2, 56, 0
3, 225180, Note_on_c, 2, 50, 0
3, 225372, Control_c, 2, 64, 127
3, 225372, Note_on_c, 2, 56, 49
3, 225372, Note_on_c, 2, 50, 41
3, 225432, Note_on_c, 2, 50, 0
3, 225460, Note_on_c, 2, 56, 0
3, 225468, Control_c, 2, 64, 0
3, 225752, Note_on_c, 2, 53, 55
3, 225756, Note_on_c, 2, 58, 64
3, 225868, Note_on_c, 2, 58, 0
3, 225948, Note_on_c, 2, 53, 0
3, 226140, Control_c, 2, 64, 127
3, 226140, Note_on_c, 2, 58, 49
3, 226140, Note_on_c, 2, 53, 41
3, 226200, Note_on_c, 2, 53, 0
3, 226228, Note_on_c, 2, 58, 0
3, 226228, Control_c, 2, 64, 0
3, 226520, Note_on_c, 2, 52, 55
3, 226524, Note_on_c, 2, 58, 64
3, 226636, Note_on_c, 2, 58, 0
3, 226716, Note_on_c, 2, 52, 0
3, 226908, Control_c, 2, 64, 127
3, 226908, Note_on_c, 2, 58, 49
3, 226908, Note_on_c, 2, 52, 41
3, 226968, Note_on_c, 2, 52, 0
3, 226996, Note_on_c, 2, 58, 0
3, 226996, Control_c, 2, 64, 0
3, 227288, Note_on_c, 2, 51, 55
3, 227292, Note_on_c, 2, 56, 64
3, 227404, Note_on_c, 2, 56, 0
3, 227484, Note_on_c, 2, 51, 0
3, 227676, Control_c, 2, 64, 127
3, 227676, Note_on_c, 2, 56, 49
3, 227676, Note_on_c, 2, 51, 41
3, 227732, Note_on_c, 2, 51, 0
3, 227764, Note_on_c, 2, 56, 0
3, 227764, Control_c, 2, 64, 0
3, 228060, Note_on_c, 2, 50, 55
3, 228060, Note_on_c, 2, 56, 64
3, 228172, Note_on_c, 2, 56, 0
3, 228252, Note_on_c, 2, 50, 0
3, 228444, Control_c, 2, 64, 127
3, 228444, Note_on_c, 2, 56, 49
3, 228444, Note_on_c, 2, 50, 41
3, 228496, Note_on_c, 2, 50, 0
3, 228532, Note_on_c, 2, 56, 0
3, 228532, Control_c, 2, 64, 0
3, 228828, Note_on_c, 2, 49, 55
3, 228828, Note_on_c, 2, 56, 64
3, 228940, Note_on_c, 2, 56, 0
3, 229020, Note_on_c, 2, 49, 0
3, 229212, Control_c, 2, 64, 127
3, 229212, Note_on_c, 2, 56, 49
3, 229212, Note_on_c, 2, 49, 41
3, 229272, Note_on_c, 2, 49, 0
3, 229292, Note_on_c, 2, 56, 0
3, 229296, Control_c, 2, 64, 0
3, 229596, Note_on_c, 2, 49, 55
3, 229596, Note_on_c, 2, 55, 64
3, 229708, Note_on_c, 2, 55, 0
3, 229788, Note_on_c, 2, 49, 0
3, 229980, Control_c, 2, 64, 127
3, 229980, Note_on_c, 2, 55, 49
3, 229980, Note_on_c, 2, 49, 41
3, 230040, Note_on_c, 2, 49, 0
3, 230068, Note_on_c, 2, 55, 0
3, 230076, Control_c, 2, 64, 0
3, 230364, Note_on_c, 2, 55, 55
3, 230364, Note_on_c, 2, 60, 64
3, 230476, Note_on_c, 2, 60, 0
3, 230556, Note_on_c, 2, 55, 0
3, 230748, Control_c, 2, 64, 127
3, 230748, Note_on_c, 2, 60, 49
3, 230748, Note_on_c, 2, 55, 41
3, 230808, Note_on_c, 2, 55, 0
3, 230836, Note_on_c, 2, 60, 0
3, 230836, Control_c, 2, 64, 0
3, 231132, Note_on_c, 2, 53, 55
3, 231132, Note_on_c, 2, 59, 64
3, 231244, Note_on_c, 2, 59, 0
3, 231324, Note_on_c, 2, 53, 0
3, 231516, Control_c, 2, 64, 127
3, 231516, Note_on_c, 2, 59, 49
3, 231516, Note_on_c, 2, 53, 41
3, 231576, Note_on_c, 2, 53, 0
3, 231604, Note_on_c, 2, 59, 0
3, 231608, Control_c, 2, 64, 0
3, 231896, Note_on_c, 2, 53, 55
3, 231900, Note_on_c, 2, 58, 64
3, 232012, Note_on_c, 2, 58, 0
3, 232092, Note_on_c, 2, 53, 0
3, 232280, Control_c, 2, 64, 0
3, 232284, Control_c, 2, 64, 0
3, 232284, Note_on_c, 2, 52, 55
3, 232284, Note_on_c, 2, 58, 64
3, 232396, Note_on_c, 2, 58, 0
3, 232476, Note_on_c, 2, 52, 0
3, 232668, Control_c, 2, 64, 0
3, 232668, Control_c, 2, 64, 0
3, 232668, Note_on_c, 2, 51, 55
3, 232668, Note_on_c, 2, 56, 64
3, 232780, Note_on_c, 2, 56, 0
3, 232860, Note_on_c, 2, 51, 0
3, 233052, Control_c, 2, 64, 0
3, 233052, Control_c, 2, 64, 0
3, 233052, Note_on_c, 2, 50, 55
3, 233052, Note_on_c, 2, 56, 64
3, 233164, Note_on_c, 2, 56, 0
3, 233244, Note_on_c, 2, 50, 0
3, 233436, Control_c, 2, 64, 0
3, 233436, Control_c, 2, 64, 0
3, 233436, Note_on_c, 2, 48, 55
3, 233436, Note_on_c, 2, 55, 64
3, 233548, Note_on_c, 2, 55, 0
3, 233628, Note_on_c, 2, 48, 0
3, 233820, Control_c, 2, 64, 127
3, 233820, Note_on_c, 2, 55, 49
3, 233820, Note_on_c, 2, 48, 41
3, 233880, Note_on_c, 2, 48, 0
3, 233900, Note_on_c, 2, 55, 0
3, 233904, Control_c, 2, 64, 0
3, 234200, Note_on_c, 2, 51, 55
3, 234204, Note_on_c, 2, 57, 64
3, 234316, Note_on_c, 2, 57, 0
3, 234396, Note_on_c, 2, 51, 0
3, 234588, Control_c, 2, 64, 127
3, 234588, Note_on_c, 2, 57, 49
3, 234588, Note_on_c, 2, 51, 41
3, 234648, Note_on_c, 2, 51, 0
3, 234676, Note_on_c, 2, 57, 0
3, 234684, Control_c, 2, 64, 0
3, 234968, Note_on_c, 2, 50, 55
3, 234972, Note_on_c, 2, 55, 64
3, 235084, Note_on_c, 2, 55, 0
3, 235164, Note_on_c, 2, 50, 0
3, 235356, Control_c, 2, 64, 127
3, 235356, Note_on_c, 2, 55, 49
3, 235356, Note_on_c, 2, 50, 41
3, 235416, Note_on_c, 2, 50, 0
3, 235444, Note_on_c, 2, 55, 0
3, 235444, Control_c, 2, 64, 0
3, 235736, Note_on_c, 2, 53, 55
3, 235740, Note_on_c, 2, 58, 64
3, 235852, Note_on_c, 2, 58, 0
3, 235932, Note_on_c, 2, 53, 0
3, 236124, Control_c, 2, 64, 127
3, 236124, Note_on_c, 2, 58, 49
3, 236124, Note_on_c, 2, 53, 41
3, 236184, Note_on_c, 2, 53, 0
3, 236212, Note_on_c, 2, 58, 0
3, 236212, Control_c, 2, 64, 0
3, 236504, Note_on_c, 2, 51, 55
3, 236508, Note_on_c, 2, 58, 64
3, 236620, Note_on_c, 2, 58, 0
3, 236700, Note_on_c, 2, 51, 0
3, 236892, Control_c, 2, 64, 127
3, 236892, Note_on_c, 2, 58, 49
3, 236892, Note_on_c, 2, 51, 41
3, 236948, Note_on_c, 2, 51, 0
3, 236980, Note_on_c, 2, 58, 0
3, 236980, Control_c, 2, 64, 0
3, 237276, Note_on_c, 2, 51, 55
3, 237276, Note_on_c, 2, 57, 64
3, 237388, Note_on_c, 2, 57, 0
3, 237468, Note_on_c, 2, 51, 0
3, 237660, Control_c, 2, 64, 127
3, 237660, Note_on_c, 2, 57, 49
3, 237660, Note_on_c, 2, 51, 41
3, 237716, Note_on_c, 2, 51, 0
3, 237748, Note_on_c, 2, 57, 0
3, 237748, Control_c, 2, 64, 0
3, 238044, Note_on_c, 2, 53, 55
3, 238044, Note_on_c, 2, 60, 64
3, 238156, Note_on_c, 2, 60, 0
3, 238236, Note_on_c, 2, 53, 0
3, 238428, Control_c, 2, 64, 127
3, 238428, Note_on_c, 2, 60, 49
3, 238428, Note_on_c, 2, 53, 41
3, 238488, Note_on_c, 2, 53, 0
3, 238508, Note_on_c, 2, 60, 0
3, 238516, Control_c, 2, 64, 0
3, 238812, Note_on_c, 2, 53, 55
3, 238812, Note_on_c, 2, 59, 64
3, 238924, Note_on_c, 2, 59, 0
3, 239004, Note_on_c, 2, 53, 0
3, 239196, Control_c, 2, 64, 127
3, 239196, Note_on_c, 2, 59, 49
3, 239196, Note_on_c, 2, 53, 41
3, 239256, Note_on_c, 2, 53, 0
3, 239284, Note_on_c, 2, 59, 0
3, 239288, Control_c, 2, 64, 0
3, 239576, Note_on_c, 2, 51, 55
3, 239580, Note_on_c, 2, 58, 64
3, 239692, Note_on_c, 2, 58, 0
3, 239772, Note_on_c, 2, 51, 0
3, 239964, Control_c, 2, 64, 127
3, 239964, Note_on_c, 2, 58, 49
3, 239964, Note_on_c, 2, 51, 41
3, 240024, Note_on_c, 2, 51, 0
3, 240052, Note_on_c, 2, 58, 0
3, 240060, Control_c, 2, 64, 0
3, 240348, Note_on_c, 2, 51, 55
3, 240348, Note_on_c, 2, 57, 64
3, 240460, Note_on_c, 2, 57, 0
3, 240540, Note_on_c, 2, 51, 0
3, 240732, Control_c, 2, 64, 127
3, 240732, Note_on_c, 2, 57, 49
3, 240732, Note_on_c, 2, 51, 41
3, 240792, Note_on_c, 2, 51, 0
3, 240820, Note_on_c, 2, 57, 0
3, 240824, Control_c, 2, 64, 0
3, 241116, Note_on_c, 2, 51, 55
3, 241116, Note_on_c, 2, 56, 64
3, 241228, Note_on_c, 2, 56, 0
3, 241308, Note_on_c, 2, 51, 0
3, 241500, Control_c, 2, 64, 127
3, 241500, Note_on_c, 2, 56, 49
3, 241500, Note_on_c, 2, 51, 41
3, 241556, Note_on_c, 2, 51, 0
3, 241588, Note_on_c, 2, 56, 0
3, 241588, Control_c, 2, 64, 0
3, 241884, Note_on_c, 2, 50, 55
3, 241884, Note_on_c, 2, 56, 64
3, 241996, Note_on_c, 2, 56, 0
3, 242076, Note_on_c, 2, 50, 0
3, 242268, Control_c, 2, 64, 127
3, 242268, Note_on_c, 2, 56, 49
3, 242272, Note_on_c, 2, 50, 41
3, 242324, Note_on_c, 2, 50, 0
3, 242356, Note_on_c, 2, 56, 0
3, 242356, Control_c, 2, 64, 0
3, 242652, Note_on_c, 2, 48, 55
3, 242652, Note_on_c, 2, 55, 64
3, 242764, Note_on_c, 2, 55, 0
3, 242844, Note_on_c, 2, 48, 0
3, 243032, Control_c, 2, 64, 127
3, 243036, Note_on_c, 2, 55, 49
3, 243036, Note_on_c, 2, 48, 41
3, 243096, Note_on_c, 2, 48, 0
3, 243116, Note_on_c, 2, 55, 0
3, 243124, Control_c, 2, 64, 0
3, 243420, Note_on_c, 2, 54, 55
3, 243420, Note_on_c, 2, 60, 64
3, 243532, Note_on_c, 2, 60, 0
3, 243612, Note_on_c, 2, 54, 0
3, 243804, Control_c, 2, 64, 127
3, 243804, Note_on_c, 2, 60, 49
3, 243808, Note_on_c, 2, 54, 41
3, 243864, Note_on_c, 2, 54, 0
3, 243892, Note_on_c, 2, 60, 0
3, 243896, Control_c, 2, 64, 0
3, 244188, Note_on_c, 2, 53, 55
3, 244188, Note_on_c, 2, 60, 64
3, 244300, Note_on_c, 2, 60, 0
3, 244380, Note_on_c, 2, 53, 0
3, 244572, Control_c, 2, 64, 0
3, 244572, Control_c, 2, 64, 0
3, 244572, Note_on_c, 2, 53, 55
3, 244572, Note_on_c, 2, 59, 64
3, 244684, Note_on_c, 2, 59, 0
3, 244764, Note_on_c, 2, 53, 0
3, 244952, Control_c, 2, 64, 0
3, 244956, Control_c, 2, 64, 0
3, 244956, Note_on_c, 2, 51, 55
3, 244956, Note_on_c, 2, 58, 64
3, 245068, Note_on_c, 2, 58, 0
3, 245148, Note_on_c, 2, 51, 0
3, 245340, Control_c, 2, 64, 0
3, 245340, Control_c, 2, 64, 0
3, 245340, Note_on_c, 2, 51, 55
3, 245340, Note_on_c, 2, 57, 64
3, 245452, Note_on_c, 2, 57, 0
3, 245532, Note_on_c, 2, 51, 0
3, 245720, Control_c, 2, 64, 0
3, 245724, Control_c, 2, 64, 0
3, 245724, Note_on_c, 2, 50, 55
3, 245724, Note_on_c, 2, 55, 64
3, 245864, Program_c, 2, 24
3, 245864, Control_c, 2, 123, 0
3, 245864, Control_c, 2, 64, 0
3, 246552, Note_on_c, 2, 50, 0
3, 248084, Note_on_c, 2, 55, 0
3, 248084, End_track
4, 0, Start_track
4, 0, Program_c, 0, 0
4, 0, Control_c, 0, 7, 115
4, 1354, Control_c, 0, 64, 127
4, 1368, Note_on_c, 0, 65, 47
4, 1388, Note_on_c, 0, 65, 0
4, 1468, Control_c, 0, 64, 0
4, 1492, Note_on_c, 0, 70, 67
4, 1492, Note_on_c, 0, 65, 43
4, 1498, Note_on_c, 0, 62, 27
4, 1500, Note_on_c, 0, 55, 34
4, 1508, Note_on_c, 0, 60, 40
4, 1578, Note_on_c, 0, 70, 0
4, 1582, Note_on_c, 0, 72, 54
4, 1636, Note_on_c, 0, 70, 35
4, 1658, Note_on_c, 0, 72, 0
4, 1752, Note_on_c, 0, 70, 0
4, 1756, Note_on_c, 0, 69, 33
4, 1818, Note_on_c, 0, 69, 0
4, 1858, Note_on_c, 0, 70, 74
4, 1910, Note_on_c, 0, 65, 0
4, 1934, Note_on_c, 0, 62, 0
4, 1938, Note_on_c, 0, 72, 55
4, 1942, Note_on_c, 0, 70, 0
4, 1942, Note_on_c, 0, 60, 0
4, 1968, Note_on_c, 0, 55, 0
4, 2042, Note_on_c, 0, 72, 0
4, 2044, Note_on_c, 0, 70, 35
4, 2064, Control_c, 0, 64, 127
4, 2142, Note_on_c, 0, 70, 0
4, 2146, Note_on_c, 0, 69, 42
4, 2244, Note_on_c, 0, 69, 0
4, 2252, Control_c, 0, 64, 0
4, 2270, Note_on_c, 0, 62, 27
4, 2276, Note_on_c, 0, 58, 32
4, 2278, Note_on_c, 0, 70, 45
4, 2280, Note_on_c, 0, 53, 31
4, 2294, Note_on_c, 0, 55, 26
4, 2312, Note_on_c, 0, 55, 0
4, 2480, Note_on_c, 0, 62, 0
4, 2508, Note_on_c, 0, 53, 0
4, 2514, Note_on_c, 0, 58, 0
4, 2554, Note_on_c, 0, 70, 0
4, 2554, Note_on_c, 0, 65, 40
4, 2578, Note_on_c, 0, 65, 0
4, 3050, Note_on_c, 0, 63, 23
4, 3054, Note_on_c, 0, 67, 24
4, 3062, Note_on_c, 0, 58, 25
4, 3066, Note_on_c, 0, 62, 22
4, 3098, Note_on_c, 0, 62, 0
4, 3106, Note_on_c, 0, 67, 0
4, 3110, Note_on_c, 0, 63, 0
4, 3120, Note_on_c, 0, 58, 0
4, 3324, Note_on_c, 0, 69, 72
4, 3442, Note_on_c, 0, 69, 0
4, 3480, Note_on_c, 0, 70, 58
4, 3556, Control_c, 0, 64, 127
4, 3646, Note_on_c, 0, 70, 0
4, 3712, Note_on_c, 0, 71, 37
4, 3774, Note_on_c, 0, 71, 0
4, 3844, Control_c, 0, 64, 0
4, 3970, Note_on_c, 0, 73, 77
4, 4050, Control_c, 0, 64, 127
4, 4052, Note_on_c, 0, 73, 0
4, 4092, Note_on_c, 0, 75, 74
4, 4170, Note_on_c, 0, 75, 0
4, 4204, Control_c, 0, 64, 0
4, 4276, Note_on_c, 0, 78, 71
4, 4280, Note_on_c, 0, 66, 74
4, 4302, Note_on_c, 0, 78, 0
4, 4308, Note_on_c, 0, 77, 43
4, 4330, Note_on_c, 0, 77, 0
4, 4348, Note_on_c, 0, 66, 0
4, 4408, Note_on_c, 0, 68, 57
4, 4408, Note_on_c, 0, 80, 68
4, 4444, Note_on_c, 0, 68, 0
4, 4450, Note_on_c, 0, 80, 0
4, 4456, Control_c, 0, 64, 127
4, 4594, Control_c, 0, 64, 0
4, 4600, Note_on_c, 0, 77, 56
4, 4604, Note_on_c, 0, 65, 49
4, 4606, Note_on_c, 0, 72, 53
4, 4620, Note_on_c, 0, 60, 41
4, 4662, Note_on_c, 0, 50, 26
4, 4700, Note_on_c, 0, 57, 3
4, 4922, Control_c, 0, 64, 127
4, 4966, Note_on_c, 0, 65, 0
4, 4998, Note_on_c, 0, 72, 0
4, 5016, Note_on_c, 0, 77, 0
4, 5028, Note_on_c, 0, 57, 0
4, 5042, Note_on_c, 0, 50, 0
4, 5086, Note_on_c, 0, 60, 0
4, 5240, Note_on_c, 0, 79, 71
4, 5244, Note_on_c, 0, 64, 49
4, 5246, Note_on_c, 0, 67, 62
4, 5252, Note_on_c, 0, 78, 39
4, 5254, Note_on_c, 0, 59, 46
4, 5268, Note_on_c, 0, 53, 36
4, 5270, Note_on_c, 0, 78, 0
4, 5318, Note_on_c, 0, 64, 0
4, 5318, Note_on_c, 0, 53, 0
4, 5326, Note_on_c, 0, 79, 0
4, 5334, Note_on_c, 0, 59, 0
4, 5334, Note_on_c, 0, 67, 0
4, 5348, Control_c, 0, 64, 0
4, 5390, Note_on_c, 0, 77, 50
4, 5394, Note_on_c, 0, 59, 49
4, 5396, Note_on_c, 0, 64, 19
4, 5400, Note_on_c, 0, 53, 28
4, 5406, Note_on_c, 0, 65, 29
4, 5444, Note_on_c, 0, 64, 0
4, 5448, Note_on_c, 0, 65, 0
4, 5450, Note_on_c, 0, 53, 0
4, 5452, Note_on_c, 0, 59, 0
4, 5462, Note_on_c, 0, 77, 0
4, 5630, Note_on_c, 0, 77, 47
4, 5638, Note_on_c, 0, 59, 39
4, 5640, Note_on_c, 0, 64, 26
4, 5640, Note_on_c, 0, 65, 39
4, 5648, Note_on_c, 0, 53, 24
4, 5728, Note_on_c, 0, 65, 0
4, 5740, Note_on_c, 0, 64, 0
4, 5742, Note_on_c, 0, 53, 0
4, 5748, Note_on_c, 0, 59, 0
4, 5756, Note_on_c, 0, 77, 0
4, 5992, Note_on_c, 0, 73, 75
4, 5994, Note_on_c, 0, 63, 48
4, 6000, Note_on_c, 0, 67, 41
4, 6002, Note_on_c, 0, 62, 46
4, 6002, Note_on_c, 0, 74, 74
4, 6004, Note_on_c, 0, 58, 37
4, 6052, Note_on_c, 0, 73, 0
4, 6060, Note_on_c, 0, 67, 0
4, 6072, Note_on_c, 0, 62, 0
4, 6076, Note_on_c, 0, 74, 0
4, 6082, Note_on_c, 0, 63, 0
4, 6086, Note_on_c, 0, 58, 0
4, 6362, Note_on_c, 0, 72, 79
4, 6364, Note_on_c, 0, 67, 56
4, 6364, Note_on_c, 0, 63, 48
4, 6366, Note_on_c, 0, 62, 46
4, 6372, Note_on_c, 0, 58, 44
4, 6460, Note_on_c, 0, 72, 0
4, 6500, Note_on_c, 0, 70, 55
4, 6580, Note_on_c, 0, 58, 0
4, 6672, Control_c, 0, 64, 127
4, 6752, Note_on_c, 0, 67, 0
4, 6752, Note_on_c, 0, 58, 31
4, 6764, Note_on_c, 0, 62, 0
4, 6780, Note_on_c, 0, 63, 0
4, 6804, Note_on_c, 0, 58, 0
4, 6842, Control_c, 0, 64, 0
4, 6882, Note_on_c, 0, 70, 0
4, 6884, Note_on_c, 0, 63, 35
4, 6890, Note_on_c, 0, 67, 27
4, 6894, Note_on_c, 0, 57, 36
4, 6894, Note_on_c, 0, 69, 50
4, 6970, Control_c, 0, 64, 127
4, 6978, Note_on_c, 0, 67, 0
4, 6984, Note_on_c, 0, 57, 0
4, 6998, Note_on_c, 0, 69, 0
4, 7002, Note_on_c, 0, 63, 0
4, 7126, Note_on_c, 0, 63, 68
4, 7128, Note_on_c, 0, 72, 89
4, 7134, Note_on_c, 0, 67, 64
4, 7134, Note_on_c, 0, 57, 72
4, 7182, Note_on_c, 0, 67, 0
4, 7194, Note_on_c, 0, 57, 0
4, 7230, Note_on_c, 0, 63, 0
4, 7234, Note_on_c, 0, 72, 0
4, 7272, Note_on_c, 0, 77, 84
4, 7274, Note_on_c, 0, 63, 60
4, 7274, Note_on_c, 0, 57, 77
4, 7276, Note_on_c, 0, 67, 74
4, 7340, Note_on_c, 0, 67, 0
4, 7340, Note_on_c, 0, 57, 0
4, 7348, Note_on_c, 0, 77, 0
4, 7360, Note_on_c, 0, 63, 0
4, 7390, Note_on_c, 0, 77, 65
4, 7402, Note_on_c, 0, 57, 57
4, 7402, Note_on_c, 0, 63, 45
4, 7414, Note_on_c, 0, 67, 27
4, 7436, Note_on_c, 0, 67, 0
4, 7466, Note_on_c, 0, 77, 0
4, 7468, Note_on_c, 0, 63, 0
4, 7510, Note_on_c, 0, 63, 46
4, 7516, Note_on_c, 0, 75, 67
4, 7526, Note_on_c, 0, 57, 0
4, 7526, Note_on_c, 0, 67, 19
4, 7548, Note_on_c, 0, 67, 0
4, 7582, Note_on_c, 0, 63, 0
4, 7604, Note_on_c, 0, 75, 0
4, 7622, Control_c, 0, 64, 0
4, 7646, Note_on_c, 0, 63, 23
4, 7650, Note_on_c, 0, 60, 46
4, 7650, Note_on_c, 0, 56, 34
4, 7652, Note_on_c, 0, 67, 28
4, 7658, Note_on_c, 0, 74, 55
4, 7740, Control_c, 0, 64, 127
4, 7828, Note_on_c, 0, 74, 0
4, 7834, Note_on_c, 0, 60, 0
4, 7852, Note_on_c, 0, 67, 0
4, 7868, Note_on_c, 0, 63, 0
4, 7880, Note_on_c, 0, 56, 0
4, 8038, Control_c, 0, 64, 0
4, 8054, Note_on_c, 0, 63, 39
4, 8054, Note_on_c, 0, 67, 35
4, 8056, Note_on_c, 0, 56, 33
4, 8058, Note_on_c, 0, 74, 82
4, 8064, Note_on_c, 0, 60, 50
4, 8136, Note_on_c, 0, 74, 0
4, 8140, Note_on_c, 0, 75, 58
4, 8198, Control_c, 0, 64, 127
4, 8202, Note_on_c, 0, 74, 31
4, 8224, Note_on_c, 0, 75, 0
4, 8292, Note_on_c, 0, 74, 0
4, 8312, Note_on_c, 0, 73, 43
4, 8314, Note_on_c, 0, 67, 0
4, 8316, Note_on_c, 0, 56, 0
4, 8348, Note_on_c, 0, 63, 0
4, 8352, Note_on_c, 0, 73, 0
4, 8370, Note_on_c, 0, 60, 0
4, 8418, Control_c, 0, 64, 0
4, 8432, Note_on_c, 0, 56, 29
4, 8434, Note_on_c, 0, 67, 25
4, 8438, Note_on_c, 0, 74, 53
4, 8444, Note_on_c, 0, 62, 32
4, 8510, Control_c, 0, 64, 127
4, 8560, Note_on_c, 0, 67, 0
4, 8566, Note_on_c, 0, 56, 0
4, 8568, Note_on_c, 0, 62, 0
4, 8596, Note_on_c, 0, 74, 0
4, 8694, Note_on_c, 0, 56, 71
4, 8694, Note_on_c, 0, 67, 69
4, 8698, Note_on_c, 0, 79, 94
4, 8706, Note_on_c, 0, 62, 57
4, 8808, Note_on_c, 0, 67, 0
4, 8816, Note_on_c, 0, 62, 0
4, 8820, Note_on_c, 0, 79, 0
4, 8828, Control_c, 0, 64, 0
4, 8850, Note_on_c, 0, 67, 34
4, 8856, Note_on_c, 0, 62, 39
4, 8868, Note_on_c, 0, 77, 68
4, 8884, Control_c, 0, 64, 127
4, 8964, Note_on_c, 0, 67, 0
4, 9012, Note_on_c, 0, 56, 0
4, 9016, Note_on_c, 0, 77, 0
4, 9054, Control_c, 0, 64, 0
4, 9078, Note_on_c, 0, 73, 72
4, 9082, Note_on_c, 0, 66, 53
4, 9084, Note_on_c, 0, 56, 50
4, 9102, Note_on_c, 0, 60, 34
4, 9108, Note_on_c, 0, 74, 60
4, 9110, Control_c, 0, 64, 127
4, 9122, Note_on_c, 0, 60, 0
4, 9142, Note_on_c, 0, 73, 0
4, 9178, Note_on_c, 0, 66, 0
4, 9210, Note_on_c, 0, 56, 0
4, 9216, Note_on_c, 0, 62, 0
4, 9224, Control_c, 0, 64, 0
4, 9226, Note_on_c, 0, 74, 0
4, 9256, Note_on_c, 0, 65, 40
4, 9260, Note_on_c, 0, 62, 24
4, 9270, Note_on_c, 0, 70, 55
4, 9274, Note_on_c, 0, 60, 29
4, 9274, Note_on_c, 0, 55, 39
4, 9408, Control_c, 0, 64, 127
4, 9504, Note_on_c, 0, 60, 0
4, 9514, Note_on_c, 0, 65, 0
4, 9518, Note_on_c, 0, 62, 0
4, 9520, Note_on_c, 0, 55, 0
4, 9540, Note_on_c, 0, 70, 0
4, 9604, Control_c, 0, 64, 0
4, 9616, Note_on_c, 0, 65, 40
4, 9626, Note_on_c, 0, 62, 38
4, 9632, Note_on_c, 0, 70, 67
4, 9636, Note_on_c, 0, 60, 33
4, 9640, Note_on_c, 0, 55, 20
4, 9690, Note_on_c, 0, 70, 0
4, 9702, Note_on_c, 0, 72, 45
4, 9704, Note_on_c, 0, 65, 0
4, 9734, Note_on_c, 0, 60, 0
4, 9756, Note_on_c, 0, 62, 0
4, 9764, Note_on_c, 0, 72, 0
4, 9764, Note_on_c, 0, 70, 37
4, 9808, Control_c, 0, 64, 127
4, 9834, Note_on_c, 0, 55, 0
4, 9862, Note_on_c, 0, 70, 0
4, 9866, Note_on_c, 0, 69, 37
4, 9930, Note_on_c, 0, 69, 0
4, 9958, Control_c, 0, 64, 0
4, 9990, Note_on_c, 0, 65, 45
4, 9994, Note_on_c, 0, 70, 62
4, 10000, Note_on_c, 0, 58, 20
4, 10004, Note_on_c, 0, 54, 36
4, 10006, Note_on_c, 0, 60, 34
4, 10070, Note_on_c, 0, 60, 0
4, 10082, Control_c, 0, 64, 127
4, 10102, Note_on_c, 0, 65, 0
4, 10124, Note_on_c, 0, 54, 0
4, 10124, Note_on_c, 0, 58, 0
4, 10202, Note_on_c, 0, 70, 0
4, 10218, Note_on_c, 0, 74, 47
4, 10238, Note_on_c, 0, 65, 34
4, 10238, Note_on_c, 0, 54, 26
4, 10248, Note_on_c, 0, 58, 23
4, 10250, Note_on_c, 0, 60, 32
4, 10272, Note_on_c, 0, 60, 0
4, 10276, Note_on_c, 0, 65, 0
4, 10284, Note_on_c, 0, 54, 0
4, 10304, Note_on_c, 0, 58, 0
4, 10316, Control_c, 0, 64, 0
4, 10334, Note_on_c, 0, 74, 0
4, 10352, Note_on_c, 0, 65, 48
4, 10354, Note_on_c, 0, 77, 73
4, 10370, Note_on_c, 0, 58, 23
4, 10374, Note_on_c, 0, 65, 0
4, 10400, Note_on_c, 0, 58, 0
4, 10400, Note_on_c, 0, 77, 0
4, 10590, Control_c, 0, 64, 127
4, 10596, Note_on_c, 0, 54, 30
4, 10596, Note_on_c, 0, 65, 22
4, 10600, Note_on_c, 0, 75, 71
4, 10606, Note_on_c, 0, 60, 35
4, 10606, Note_on_c, 0, 58, 28
4, 10614, Note_on_c, 0, 65, 0
4, 10630, Note_on_c, 0, 60, 0
4, 10658, Note_on_c, 0, 58, 0
4, 10662, Note_on_c, 0, 54, 0
4, 10674, Note_on_c, 0, 75, 0
4, 10728, Control_c, 0, 64, 0
4, 10732, Note_on_c, 0, 64, 22
4, 10738, Note_on_c, 0, 60, 40
4, 10738, Note_on_c, 0, 57, 50
4, 10744, Note_on_c, 0, 53, 32
4, 10756, Note_on_c, 0, 74, 35
4, 10814, Control_c, 0, 64, 127
4, 10856, Note_on_c, 0, 60, 0
4, 10868, Note_on_c, 0, 57, 0
4, 10872, Note_on_c, 0, 64, 0
4, 10872, Note_on_c, 0, 53, 0
4, 10986, Note_on_c, 0, 69, 66
4, 11076, Note_on_c, 0, 74, 0
4, 11092, Control_c, 0, 64, 0
4, 11130, Note_on_c, 0, 64, 40
4, 11136, Note_on_c, 0, 59, 46
4, 11140, Note_on_c, 0, 53, 31
4, 11140, Note_on_c, 0, 68, 55
4, 11154, Note_on_c, 0, 69, 0
4, 11214, Control_c, 0, 64, 127
4, 11266, Note_on_c, 0, 53, 0
4, 11276, Note_on_c, 0, 64, 0
4, 11314, Note_on_c, 0, 59, 0
4, 11378, Note_on_c, 0, 73, 71
4, 11382, Note_on_c, 0, 63, 60
4, 11396, Note_on_c, 0, 53, 42
4, 11406, Note_on_c, 0, 68, 0
4, 11434, Note_on_c, 0, 63, 0
4, 11436, Note_on_c, 0, 53, 0
4, 11476, Note_on_c, 0, 73, 0
4, 11508, Control_c, 0, 64, 0
4, 11522, Note_on_c, 0, 72, 60
4, 11522, Note_on_c, 0, 62, 47
4, 11576, Note_on_c, 0, 62, 0
4, 11610, Control_c, 0, 64, 127
4, 11742, Note_on_c, 0, 72, 0
4, 11776, Note_on_c, 0, 67, 68
4, 11784, Note_on_c, 0, 55, 58
4, 11852, Note_on_c, 0, 55, 0
4, 11872, Control_c, 0, 64, 0
4, 11910, Note_on_c, 0, 54, 51
4, 11914, Note_on_c, 0, 67, 0
4, 11914, Note_on_c, 0, 66, 44
4, 12046, Control_c, 0, 64, 127
4, 12128, Note_on_c, 0, 66, 0
4, 12142, Note_on_c, 0, 54, 0
4, 12262, Control_c, 0, 64, 0
4, 12518, Note_on_c, 0, 58, 59
4, 12526, Note_on_c, 0, 72, 66
4, 12532, Note_on_c, 0, 67, 55
4, 12544, Note_on_c, 0, 62, 50
4, 12586, Control_c, 0, 64, 127
4, 12588, Note_on_c, 0, 67, 0
4, 12600, Note_on_c, 0, 72, 0
4, 12608, Note_on_c, 0, 58, 0
4, 12614, Note_on_c, 0, 62, 0
4, 12638, Control_c, 0, 64, 0
4, 12686, Note_on_c, 0, 60, 58
4, 12688, Note_on_c, 0, 70, 47
4, 12688, Note_on_c, 0, 55, 46
4, 12708, Note_on_c, 0, 65, 32
4, 12810, Note_on_c, 0, 65, 0
4, 12822, Note_on_c, 0, 55, 0
4, 12826, Note_on_c, 0, 60, 0
4, 12830, Note_on_c, 0, 70, 0
4, 12900, Control_c, 0, 64, 127
4, 12940, Note_on_c, 0, 41, 25
4, 12956, Note_on_c, 0, 41, 0
4, 13002, Control_c, 0, 64, 0
4, 13046, Note_on_c, 0, 57, 51
4, 13050, Note_on_c, 0, 69, 44
4, 13060, Note_on_c, 0, 61, 33
4, 13070, Note_on_c, 0, 65, 32
4, 13086, Note_on_c, 0, 53, 22
4, 13212, Note_on_c, 0, 65, 0
4, 13230, Note_on_c, 0, 69, 0
4, 13230, Note_on_c, 0, 57, 0
4, 13234, Note_on_c, 0, 61, 0
4, 13240, Note_on_c, 0, 53, 0
4, 13284, Control_c, 0, 64, 127
4, 13392, Control_c, 0, 64, 0
4, 13426, Note_on_c, 0, 61, 42
4, 13428, Note_on_c, 0, 54, 37
4, 13428, Note_on_c, 0, 65, 47
4, 13434, Note_on_c, 0, 57, 33
4, 13466, Note_on_c, 0, 57, 0
4, 13474, Note_on_c, 0, 54, 0
4, 13488, Note_on_c, 0, 61, 0
4, 13498, Note_on_c, 0, 65, 0
4, 13666, Note_on_c, 0, 54, 70
4, 13674, Note_on_c, 0, 70, 75
4, 13674, Note_on_c, 0, 65, 68
4, 13676, Note_on_c, 0, 60, 72
4, 13680, Note_on_c, 0, 55, 81
4, 13686, Note_on_c, 0, 54, 0
4, 13966, Note_on_c, 0, 70, 0
4, 13970, Note_on_c, 0, 65, 0
4, 13998, Note_on_c, 0, 60, 0
4, 14068, Note_on_c, 0, 55, 0
4, 14068, Note_on_c, 0, 54, 47
4, 14074, Note_on_c, 0, 69, 40
4, 14076, Note_on_c, 0, 59, 34
4, 14082, Note_on_c, 0, 64, 41
4, 14112, Note_on_c, 0, 59, 0
4, 14114, Note_on_c, 0, 69, 0
4, 14132, Note_on_c, 0, 64, 0
4, 14146, Control_c, 0, 64, 127
4, 14168, Control_c, 0, 64, 0
4, 14204, Note_on_c, 0, 70, 43
4, 14210, Note_on_c, 0, 54, 0
4, 14210, Note_on_c, 0, 55, 49
4, 14212, Note_on_c, 0, 65, 47
4, 14212, Note_on_c, 0, 60, 36
4, 14292, Note_on_c, 0, 70, 0
4, 14298, Note_on_c, 0, 60, 0
4, 14298, Note_on_c, 0, 65, 0
4, 14390, Note_on_c, 0, 55, 0
4, 14446, Note_on_c, 0, 59, 40
4, 14448, Note_on_c, 0, 54, 35
4, 14464, Control_c, 0, 64, 127
4, 14466, Note_on_c, 0, 59, 0
4, 14536, Control_c, 0, 64, 0
4, 14568, Note_on_c, 0, 62, 53
4, 14570, Note_on_c, 0, 54, 0
4, 14578, Note_on_c, 0, 70, 36
4, 14590, Note_on_c, 0, 55, 37
4, 14642, Note_on_c, 0, 67, 3
4, 14680, Note_on_c, 0, 67, 0
4, 14680, Note_on_c, 0, 62, 0
4, 14688, Note_on_c, 0, 70, 0
4, 14694, Note_on_c, 0, 55, 0
4, 14984, Control_c, 0, 64, 127
4, 15328, Control_c, 0, 64, 0
4, 15336, Note_on_c, 0, 63, 25
4, 15342, Note_on_c, 0, 67, 31
4, 15344, Note_on_c, 0, 58, 32
4, 15348, Note_on_c, 0, 62, 29
4, 15446, Control_c, 0, 64, 127
4, 15460, Note_on_c, 0, 69, 60
4, 15546, Note_on_c, 0, 69, 0
4, 15584, Note_on_c, 0, 70, 78
4, 15636, Note_on_c, 0, 67, 0
4, 15676, Note_on_c, 0, 63, 0
4, 15692, Note_on_c, 0, 70, 0
4, 15708, Control_c, 0, 64, 0
4, 15722, Note_on_c, 0, 63, 25
4, 15724, Note_on_c, 0, 67, 37
4, 15726, Note_on_c, 0, 72, 79
4, 15790, Control_c, 0, 64, 127
4, 15848, Note_on_c, 0, 62, 0
4, 15864, Note_on_c, 0, 67, 0
4, 15880, Note_on_c, 0, 63, 0
4, 15900, Note_on_c, 0, 72, 0
4, 15910, Note_on_c, 0, 58, 0
4, 15962, Note_on_c, 0, 73, 88
4, 15964, Control_c, 0, 64, 0
4, 15966, Note_on_c, 0, 67, 51
4, 15968, Note_on_c, 0, 63, 53
4, 15970, Note_on_c, 0, 57, 64
4, 16086, Control_c, 0, 64, 127
4, 16108, Note_on_c, 0, 67, 0
4, 16124, Note_on_c, 0, 57, 0
4, 16156, Note_on_c, 0, 63, 0
4, 16208, Note_on_c, 0, 73, 0
4, 16232, Note_on_c, 0, 63, 44
4, 16234, Note_on_c, 0, 57, 45
4, 16236, Note_on_c, 0, 75, 79
4, 16242, Control_c, 0, 64, 0
4, 16318, Control_c, 0, 64, 127
4, 16348, Note_on_c, 0, 57, 0
4, 16386, Note_on_c, 0, 75, 0
4, 16394, Note_on_c, 0, 63, 0
4, 16488, Control_c, 0, 64, 0
4, 16504, Note_on_c, 0, 66, 52
4, 16504, Note_on_c, 0, 78, 57
4, 16512, Note_on_c, 0, 73, 52
4, 16514, Note_on_c, 0, 63, 37
4, 16516, Note_on_c, 0, 57, 43
4, 16576, Control_c, 0, 64, 127
4, 16610, Note_on_c, 0, 57, 0
4, 16632, Note_on_c, 0, 63, 0
4, 16636, Note_on_c, 0, 66, 0
4, 16636, Note_on_c, 0, 78, 0
4, 16660, Note_on_c, 0, 73, 0
4, 16750, Note_on_c, 0, 57, 49
4, 16758, Note_on_c, 0, 80, 69
4, 16760, Note_on_c, 0, 68, 74
4, 16770, Note_on_c, 0, 57, 0
4, 16808, Note_on_c, 0, 80, 0
4, 16818, Note_on_c, 0, 68, 0
4, 16910, Control_c, 0, 64, 0
4, 17028, Note_on_c, 0, 65, 66
4, 17028, Note_on_c, 0, 77, 62
4, 17030, Note_on_c, 0, 72, 60
4, 17034, Note_on_c, 0, 60, 45
4, 17038, Note_on_c, 0, 50, 34
4, 17042, Note_on_c, 0, 57, 31
4, 17074, Note_on_c, 0, 77, 0
4, 17090, Note_on_c, 0, 65, 0
4, 17098, Control_c, 0, 64, 127
4, 17100, Note_on_c, 0, 57, 0
4, 17122, Note_on_c, 0, 72, 0
4, 17126, Note_on_c, 0, 60, 0
4, 17156, Note_on_c, 0, 76, 35
4, 17164, Note_on_c, 0, 64, 32
4, 17196, Note_on_c, 0, 75, 19
4, 17200, Note_on_c, 0, 64, 0
4, 17204, Note_on_c, 0, 76, 0
4, 17240, Note_on_c, 0, 75, 0
4, 17264, Control_c, 0, 64, 0
4, 17288, Note_on_c, 0, 77, 63
4, 17292, Note_on_c, 0, 65, 58
4, 17298, Note_on_c, 0, 72, 46
4, 17298, Note_on_c, 0, 60, 55
4, 17330, Note_on_c, 0, 77, 0
4, 17334, Note_on_c, 0, 65, 0
4, 17348, Note_on_c, 0, 72, 0
4, 17362, Note_on_c, 0, 50, 0
4, 17376, Control_c, 0, 64, 127
4, 17410, Note_on_c, 0, 76, 38
4, 17418, Note_on_c, 0, 64, 35
4, 17444, Note_on_c, 0, 64, 0
4, 17448, Note_on_c, 0, 75, 19
4, 17458, Note_on_c, 0, 76, 0
4, 17470, Note_on_c, 0, 75, 0
4, 17480, Note_on_c, 0, 60, 0
4, 17532, Note_on_c, 0, 65, 78
4, 17536, Note_on_c, 0, 77, 71
4, 17540, Control_c, 0, 64, 0
4, 17542, Note_on_c, 0, 73, 59
4, 17544, Note_on_c, 0, 59, 33
4, 17552, Note_on_c, 0, 53, 43
4, 17598, Note_on_c, 0, 65, 0
4, 17632, Note_on_c, 0, 59, 0
4, 17652, Note_on_c, 0, 73, 0
4, 17654, Note_on_c, 0, 53, 0
4, 17674, Note_on_c, 0, 77, 0
4, 18026, Note_on_c, 0, 62, 31
4, 18038, Note_on_c, 0, 53, 28
4, 18042, Note_on_c, 0, 59, 34
4, 18106, Note_on_c, 0, 53, 0
4, 18112, Note_on_c, 0, 59, 0
4, 18154, Note_on_c, 0, 62, 0
4, 18394, Note_on_c, 0, 63, 23
4, 18394, Note_on_c, 0, 58, 30
4, 18408, Note_on_c, 0, 67, 19
4, 18412, Note_on_c, 0, 62, 29
4, 18502, Note_on_c, 0, 67, 0
4, 18504, Note_on_c, 0, 62, 0
4, 18538, Note_on_c, 0, 58, 0
4, 18548, Note_on_c, 0, 63, 0
4, 18668, Note_on_c, 0, 74, 96
4, 18742, Control_c, 0, 64, 127
4, 18752, Control_c, 0, 64, 0
4, 18782, Note_on_c, 0, 67, 31
4, 18786, Note_on_c, 0, 63, 32
4, 18794, Note_on_c, 0, 62, 24
4, 18818, Note_on_c, 0, 62, 0
4, 18820, Note_on_c, 0, 67, 0
4, 18836, Note_on_c, 0, 63, 0
4, 18892, Note_on_c, 0, 74, 0
4, 18938, Note_on_c, 0, 72, 67
4, 18996, Note_on_c, 0, 72, 0
4, 19040, Control_c, 0, 64, 127
4, 19042, Note_on_c, 0, 70, 60
4, 19116, Note_on_c, 0, 70, 0
4, 19126, Control_c, 0, 64, 0
4, 19148, Note_on_c, 0, 63, 38
4, 19164, Note_on_c, 0, 57, 29
4, 19166, Note_on_c, 0, 69, 47
4, 19168, Note_on_c, 0, 67, 17
4, 19208, Note_on_c, 0, 67, 0
4, 19214, Note_on_c, 0, 57, 0
4, 19236, Note_on_c, 0, 63, 0
4, 19250, Note_on_c, 0, 69, 0
4, 19388, Control_c, 0, 64, 127
4, 19424, Note_on_c, 0, 72, 74
4, 19478, Note_on_c, 0, 72, 0
4, 19512, Control_c, 0, 64, 0
4, 19538, Note_on_c, 0, 63, 35
4, 19548, Note_on_c, 0, 67, 22
4, 19554, Note_on_c, 0, 57, 35
4, 19556, Note_on_c, 0, 77, 80
4, 19600, Note_on_c, 0, 67, 0
4, 19612, Note_on_c, 0, 77, 0
4, 19654, Note_on_c, 0, 57, 0
4, 19658, Note_on_c, 0, 77, 68
4, 19722, Note_on_c, 0, 77, 0
4, 19758, Note_on_c, 0, 75, 64
4, 19776, Note_on_c, 0, 75, 0
4, 19784, Control_c, 0, 64, 127
4, 19800, Note_on_c, 0, 63, 0
4, 19864, Note_on_c, 0, 75, 70
4, 19922, Control_c, 0, 64, 0
4, 19938, Note_on_c, 0, 63, 33
4, 19940, Note_on_c, 0, 75, 0
4, 19948, Note_on_c, 0, 56, 27
4, 19954, Note_on_c, 0, 67, 20
4, 19958, Note_on_c, 0, 60, 45
4, 19972, Note_on_c, 0, 74, 47
4, 20108, Control_c, 0, 64, 127
4, 20202, Note_on_c, 0, 74, 0
4, 20220, Note_on_c, 0, 67, 0
4, 20236, Note_on_c, 0, 60, 0
4, 20248, Note_on_c, 0, 56, 0
4, 20256, Note_on_c, 0, 63, 0
4, 20306, Control_c, 0, 64, 0
4, 20326, Note_on_c, 0, 63, 30
4, 20332, Note_on_c, 0, 56, 25
4, 20342, Note_on_c, 0, 60, 46
4, 20342, Note_on_c, 0, 67, 19
4, 20346, Note_on_c, 0, 74, 80
4, 20398, Note_on_c, 0, 74, 0
4, 20408, Note_on_c, 0, 75, 51
4, 20496, Note_on_c, 0, 74, 40
4, 20510, Note_on_c, 0, 67, 0
4, 20514, Note_on_c, 0, 75, 0
4, 20538, Control_c, 0, 64, 127
4, 20588, Note_on_c, 0, 74, 0
4, 20590, Note_on_c, 0, 63, 0
4, 20596, Note_on_c, 0, 56, 0
4, 20600, Note_on_c, 0, 73, 38
4, 20624, Note_on_c, 0, 60, 0
4, 20664, Note_on_c, 0, 73, 0
4, 20702, Control_c, 0, 64, 0
4, 20712, Note_on_c, 0, 74, 57
4, 20726, Note_on_c, 0, 62, 34
4, 20738, Note_on_c, 0, 66, 27
4, 20742, Note_on_c, 0, 56, 29
4, 20802, Note_on_c, 0, 66, 0
4, 20866, Note_on_c, 0, 56, 0
4, 20900, Note_on_c, 0, 74, 0
4, 20906, Note_on_c, 0, 62, 0
4, 20972, Note_on_c, 0, 62, 64
4, 20972, Note_on_c, 0, 66, 70
4, 20974, Note_on_c, 0, 56, 60
4, 20980, Note_on_c, 0, 79, 90
4, 21020, Control_c, 0, 64, 127
4, 21086, Note_on_c, 0, 66, 0
4, 21098, Note_on_c, 0, 56, 0
4, 21102, Note_on_c, 0, 79, 0
4, 21112, Note_on_c, 0, 62, 0
4, 21128, Control_c, 0, 64, 0
4, 21140, Note_on_c, 0, 77, 68
4, 21140, Note_on_c, 0, 66, 40
4, 21140, Note_on_c, 0, 56, 53
4, 21142, Note_on_c, 0, 62, 28
4, 21206, Control_c, 0, 64, 127
4, 21222, Note_on_c, 0, 66, 0
4, 21244, Note_on_c, 0, 77, 0
4, 21260, Note_on_c, 0, 56, 0
4, 21286, Control_c, 0, 64, 0
4, 21296, Note_on_c, 0, 62, 0
4, 21344, Note_on_c, 0, 73, 51
4, 21348, Note_on_c, 0, 56, 54
4, 21352, Note_on_c, 0, 66, 50
4, 21354, Note_on_c, 0, 62, 33
4, 21364, Control_c, 0, 64, 127
4, 21376, Note_on_c, 0, 74, 65
4, 21406, Note_on_c, 0, 73, 0
4, 21430, Note_on_c, 0, 66, 0
4, 21468, Note_on_c, 0, 56, 0
4, 21468, Note_on_c, 0, 62, 0
4, 21474, Note_on_c, 0, 74, 0
4, 21488, Control_c, 0, 64, 0
4, 21494, Note_on_c, 0, 65, 43
4, 21502, Note_on_c, 0, 62, 19
4, 21508, Note_on_c, 0, 55, 40
4, 21514, Note_on_c, 0, 60, 31
4, 21516, Note_on_c, 0, 70, 54
4, 21530, Note_on_c, 0, 58, 23
4, 21656, Control_c, 0, 64, 127
4, 21750, Note_on_c, 0, 60, 0
4, 21752, Note_on_c, 0, 65, 0
4, 21762, Note_on_c, 0, 62, 0
4, 21766, Note_on_c, 0, 55, 0
4, 21776, Note_on_c, 0, 58, 0
4, 21784, Note_on_c, 0, 70, 0
4, 21858, Control_c, 0, 64, 0
4, 21870, Note_on_c, 0, 70, 62
4, 21872, Note_on_c, 0, 62, 40
4, 21874, Note_on_c, 0, 55, 34
4, 21874, Note_on_c, 0, 65, 39
4, 21876, Note_on_c, 0, 60, 49
4, 21970, Control_c, 0, 64, 127
4, 21998, Note_on_c, 0, 65, 0
4, 22002, Note_on_c, 0, 62, 0
4, 22010, Note_on_c, 0, 60, 0
4, 22108, Note_on_c, 0, 55, 0
4, 22140, Note_on_c, 0, 69, 42
4, 22152, Note_on_c, 0, 70, 0
4, 22214, Note_on_c, 0, 69, 0
4, 22226, Control_c, 0, 64, 0
4, 22280, Note_on_c, 0, 54, 28
4, 22286, Note_on_c, 0, 70, 33
4, 22300, Note_on_c, 0, 60, 20
4, 22342, Note_on_c, 0, 60, 0
4, 22386, Note_on_c, 0, 54, 0
4, 22386, Control_c, 0, 64, 127
4, 22422, Note_on_c, 0, 70, 0
4, 22498, Note_on_c, 0, 74, 78
4, 22508, Note_on_c, 0, 54, 56
4, 22512, Note_on_c, 0, 60, 51
4, 22572, Note_on_c, 0, 54, 0
4, 22586, Note_on_c, 0, 60, 0
4, 22608, Note_on_c, 0, 74, 0
4, 22628, Control_c, 0, 64, 0
4, 22640, Note_on_c, 0, 54, 70
4, 22644, Note_on_c, 0, 60, 60
4, 22648, Note_on_c, 0, 70, 67
4, 22648, Note_on_c, 0, 77, 80
4, 22650, Note_on_c, 0, 74, 62
4, 22650, Note_on_c, 0, 65, 78
4, 22730, Control_c, 0, 64, 127
4, 22748, Note_on_c, 0, 74, 0
4, 22748, Note_on_c, 0, 77, 0
4, 22762, Note_on_c, 0, 54, 0
4, 22766, Note_on_c, 0, 60, 0
4, 22816, Note_on_c, 0, 70, 0
4, 22826, Note_on_c, 0, 65, 0
4, 22888, Note_on_c, 0, 54, 56
4, 22888, Note_on_c, 0, 70, 64
4, 22890, Note_on_c, 0, 75, 65
4, 22902, Note_on_c, 0, 65, 38
4, 22924, Note_on_c, 0, 54, 0
4, 22964, Note_on_c, 0, 75, 0
4, 22972, Note_on_c, 0, 65, 0
4, 22992, Note_on_c, 0, 70, 0
4, 23022, Control_c, 0, 64, 0
4, 23042, Note_on_c, 0, 74, 57
4, 23046, Note_on_c, 0, 50, 34
4, 23052, Note_on_c, 0, 60, 34
4, 23052, Note_on_c, 0, 69, 49
4, 23064, Note_on_c, 0, 65, 25
4, 23120, Note_on_c, 0, 69, 0
4, 23126, Control_c, 0, 64, 127
4, 23138, Note_on_c, 0, 60, 0
4, 23152, Note_on_c, 0, 65, 0
4, 23174, Note_on_c, 0, 74, 0
4, 23266, Note_on_c, 0, 57, 66
4, 23268, Note_on_c, 0, 69, 74
4, 23268, Note_on_c, 0, 56, 44
4, 23284, Note_on_c, 0, 65, 40
4, 23286, Note_on_c, 0, 56, 0
4, 23350, Note_on_c, 0, 65, 0
4, 23370, Note_on_c, 0, 50, 0
4, 23382, Control_c, 0, 64, 0
4, 23408, Note_on_c, 0, 69, 0
4, 23426, Note_on_c, 0, 56, 48
4, 23430, Note_on_c, 0, 68, 59
4, 23442, Note_on_c, 0, 57, 0
4, 23492, Note_on_c, 0, 56, 0
4, 23494, Control_c, 0, 64, 127
4, 23598, Note_on_c, 0, 68, 0
4, 23640, Note_on_c, 0, 61, 67
4, 23646, Note_on_c, 0, 73, 77
4, 23646, Note_on_c, 0, 68, 63
4, 23740, Note_on_c, 0, 73, 0
4, 23740, Note_on_c, 0, 61, 0
4, 23768, Control_c, 0, 64, 0
4, 23792, Note_on_c, 0, 68, 0
4, 23792, Note_on_c, 0, 60, 51
4, 23800, Note_on_c, 0, 72, 62
4, 23864, Control_c, 0, 64, 127
4, 23870, Control_c, 0, 64, 0
4, 23992, Control_c, 0, 64, 127
4, 23994, Note_on_c, 0, 60, 0
4, 24024, Note_on_c, 0, 67, 49
4, 24026, Note_on_c, 0, 72, 0
4, 24032, Note_on_c, 0, 55, 38
4, 24120, Control_c, 0, 64, 0
4, 24144, Note_on_c, 0, 55, 0
4, 24162, Note_on_c, 0, 54, 43
4, 24166, Note_on_c, 0, 66, 31
4, 24214, Note_on_c, 0, 54, 0
4, 24214, Control_c, 0, 64, 127
4, 24308, Note_on_c, 0, 66, 0
4, 24350, Note_on_c, 0, 67, 0
4, 24368, Control_c, 0, 64, 0
4, 24396, Note_on_c, 0, 71, 60
4, 24398, Note_on_c, 0, 59, 54
4, 24444, Control_c, 0, 64, 127
4, 24514, Note_on_c, 0, 71, 0
4, 24532, Control_c, 0, 64, 0
4, 24554, Note_on_c, 0, 70, 59
4, 24560, Note_on_c, 0, 59, 0
4, 24570, Note_on_c, 0, 58, 36
4, 24626, Note_on_c, 0, 58, 0
4, 24666, Control_c, 0, 64, 127
4, 24782, Note_on_c, 0, 70, 0
4, 24920, Note_on_c, 0, 68, 44
4, 24932, Control_c, 0, 64, 0
4, 24934, Note_on_c, 0, 46, 55
4, 24936, Note_on_c, 0, 68, 0
4, 24936, Note_on_c, 0, 56, 67
4, 24938, Note_on_c, 0, 67, 60
4, 24940, Note_on_c, 0, 60, 71
4, 24940, Note_on_c, 0, 63, 52
4, 24942, Note_on_c, 0, 53, 55
4, 25034, Control_c, 0, 64, 127
4, 25100, Note_on_c, 0, 60, 0
4, 25104, Note_on_c, 0, 46, 0
4, 25112, Note_on_c, 0, 56, 0
4, 25114, Note_on_c, 0, 53, 0
4, 25116, Note_on_c, 0, 67, 0
4, 25120, Note_on_c, 0, 63, 0
4, 25174, Note_on_c, 0, 46, 57
4, 25182, Note_on_c, 0, 67, 41
4, 25182, Note_on_c, 0, 56, 60
4, 25190, Note_on_c, 0, 60, 64
4, 25192, Note_on_c, 0, 63, 39
4, 25194, Note_on_c, 0, 53, 31
4, 25224, Note_on_c, 0, 53, 0
4, 25246, Note_on_c, 0, 46, 0
4, 25252, Note_on_c, 0, 67, 0
4, 25252, Note_on_c, 0, 56, 0
4, 25258, Note_on_c, 0, 60, 0
4, 25274, Note_on_c, 0, 63, 0
4, 25312, Control_c, 0, 64, 0
4, 25318, Note_on_c, 0, 56, 46
4, 25324, Note_on_c, 0, 46, 46
4, 25328, Note_on_c, 0, 63, 37
4, 25330, Note_on_c, 0, 60, 43
4, 25380, Note_on_c, 0, 67, 10
4, 25394, Note_on_c, 0, 60, 0
4, 25394, Control_c, 0, 64, 127
4, 25448, Note_on_c, 0, 67, 0
4, 25456, Note_on_c, 0, 56, 0
4, 25530, Note_on_c, 0, 63, 0
4, 25578, Note_on_c, 0, 67, 53
4, 25582, Note_on_c, 0, 62, 54
4, 25588, Control_c, 0, 64, 0
4, 25588, Note_on_c, 0, 56, 65
4, 25594, Note_on_c, 0, 57, 37
4, 25596, Note_on_c, 0, 59, 35
4, 25650, Note_on_c, 0, 57, 0
4, 25680, Control_c, 0, 64, 127
4, 25828, Note_on_c, 0, 46, 0
4, 25856, Note_on_c, 0, 67, 0
4, 25856, Note_on_c, 0, 62, 0
4, 25910, Note_on_c, 0, 59, 0
4, 26014, Note_on_c, 0, 54, 32
4, 26032, Note_on_c, 0, 56, 0
4, 26086, Note_on_c, 0, 70, 58
4, 26086, Control_c, 0, 64, 0
4, 26094, Note_on_c, 0, 54, 0
4, 26098, Note_on_c, 0, 60, 49
4, 26102, Note_on_c, 0, 65, 51
4, 26104, Note_on_c, 0, 55, 51
4, 26146, Note_on_c, 0, 60, 0
4, 26172, Note_on_c, 0, 65, 0
4, 26182, Note_on_c, 0, 55, 0
4, 26210, Note_on_c, 0, 70, 0
4, 26490, Note_on_c, 0, 75, 75
4, 26550, Note_on_c, 0, 75, 0
4, 26560, Note_on_c, 0, 77, 41
4, 26624, Note_on_c, 0, 75, 43
4, 26652, Note_on_c, 0, 77, 0
4, 26718, Note_on_c, 0, 75, 0
4, 26722, Note_on_c, 0, 74, 46
4, 26762, Note_on_c, 0, 74, 0
4, 26784, Control_c, 0, 64, 127
4, 26810, Control_c, 0, 64, 0
4, 26846, Note_on_c, 0, 75, 56
4, 27018, Note_on_c, 0, 75, 0
4, 27230, Note_on_c, 0, 63, 30
4, 27234, Note_on_c, 0, 52, 37
4, 27240, Note_on_c, 0, 58, 40
4, 27364, Note_on_c, 0, 52, 0
4, 27376, Note_on_c, 0, 58, 0
4, 27402, Note_on_c, 0, 63, 0
4, 27634, Note_on_c, 0, 63, 33
4, 27636, Note_on_c, 0, 56, 25
4, 27646, Note_on_c, 0, 67, 18
4, 27648, Note_on_c, 0, 60, 40
4, 27776, Note_on_c, 0, 60, 0
4, 27780, Note_on_c, 0, 63, 0
4, 27790, Note_on_c, 0, 67, 0
4, 27800, Note_on_c, 0, 56, 0
4, 28020, Note_on_c, 0, 74, 99
4, 28186, Note_on_c, 0, 74, 0
4, 28258, Note_on_c, 0, 75, 74
4, 28354, Note_on_c, 0, 75, 0
4, 28382, Note_on_c, 0, 77, 62
4, 28386, Note_on_c, 0, 65, 62
4, 28450, Note_on_c, 0, 65, 0
4, 28466, Note_on_c, 0, 77, 0
4, 28570, Note_on_c, 0, 78, 62
4, 28580, Note_on_c, 0, 62, 47
4, 28580, Note_on_c, 0, 56, 35
4, 28580, Note_on_c, 0, 66, 59
4, 28598, Control_c, 0, 64, 127
4, 28658, Note_on_c, 0, 66, 0
4, 28676, Note_on_c, 0, 56, 0
4, 28678, Note_on_c, 0, 62, 0
4, 28678, Note_on_c, 0, 78, 0
4, 28738, Note_on_c, 0, 68, 64
4, 28746, Note_on_c, 0, 80, 61
4, 28746, Note_on_c, 0, 56, 38
4, 28746, Control_c, 0, 64, 0
4, 28748, Note_on_c, 0, 62, 33
4, 28772, Control_c, 0, 64, 127
4, 28802, Note_on_c, 0, 68, 0
4, 28814, Note_on_c, 0, 80, 0
4, 28818, Note_on_c, 0, 56, 0
4, 28832, Note_on_c, 0, 62, 0
4, 28896, Control_c, 0, 64, 0
4, 28942, Note_on_c, 0, 62, 54
4, 28942, Control_c, 0, 64, 127
4, 28944, Note_on_c, 0, 83, 68
4, 28946, Note_on_c, 0, 56, 46
4, 28950, Note_on_c, 0, 71, 61
4, 28954, Note_on_c, 0, 66, 38
4, 29014, Note_on_c, 0, 71, 0
4, 29028, Note_on_c, 0, 56, 0
4, 29032, Note_on_c, 0, 66, 0
4, 29032, Note_on_c, 0, 83, 0
4, 29056, Note_on_c, 0, 62, 0
4, 29086, Control_c, 0, 64, 0
4, 29116, Control_c, 0, 64, 127
4, 29124, Note_on_c, 0, 56, 53
4, 29128, Note_on_c, 0, 85, 67
4, 29132, Note_on_c, 0, 62, 38
4, 29134, Note_on_c, 0, 66, 37
4, 29136, Note_on_c, 0, 73, 51
4, 29188, Note_on_c, 0, 66, 0
4, 29200, Note_on_c, 0, 85, 0
4, 29204, Note_on_c, 0, 62, 0
4, 29214, Note_on_c, 0, 73, 0
4, 29238, Note_on_c, 0, 56, 0
4, 29286, Control_c, 0, 64, 0
4, 29304, Note_on_c, 0, 65, 37
4, 29310, Note_on_c, 0, 55, 40
4, 29314, Note_on_c, 0, 82, 60
4, 29320, Note_on_c, 0, 70, 46
4, 29320, Note_on_c, 0, 62, 32
4, 29330, Note_on_c, 0, 58, 40
4, 29372, Note_on_c, 0, 70, 0
4, 29380, Note_on_c, 0, 62, 0
4, 29382, Note_on_c, 0, 65, 0
4, 29390, Note_on_c, 0, 55, 0
4, 29392, Note_on_c, 0, 82, 0
4, 29394, Control_c, 0, 64, 127
4, 29414, Note_on_c, 0, 58, 0
4, 29486, Control_c, 0, 64, 0
4, 29550, Note_on_c, 0, 82, 70
4, 29552, Control_c, 0, 64, 127
4, 29556, Note_on_c, 0, 70, 62
4, 29558, Note_on_c, 0, 65, 42
4, 29566, Note_on_c, 0, 62, 33
4, 29568, Note_on_c, 0, 58, 23
4, 29574, Note_on_c, 0, 55, 24
4, 29580, Note_on_c, 0, 65, 0
4, 29598, Note_on_c, 0, 62, 0
4, 29606, Note_on_c, 0, 55, 0
4, 29616, Note_on_c, 0, 70, 0
4, 29628, Note_on_c, 0, 58, 0
4, 29628, Note_on_c, 0, 82, 0
4, 29676, Note_on_c, 0, 81, 50
4, 29722, Note_on_c, 0, 81, 0
4, 29790, Control_c, 0, 64, 0
4, 29816, Note_on_c, 0, 82, 61
4, 29816, Note_on_c, 0, 63, 38
4, 29816, Note_on_c, 0, 52, 53
4, 29822, Note_on_c, 0, 58, 39
4, 29824, Note_on_c, 0, 70, 60
4, 29900, Note_on_c, 0, 52, 0
4, 29902, Note_on_c, 0, 63, 0
4, 29912, Note_on_c, 0, 82, 0
4, 29914, Note_on_c, 0, 70, 0
4, 29922, Note_on_c, 0, 58, 0
4, 30136, Note_on_c, 0, 75, 72
4, 30142, Note_on_c, 0, 63, 74
4, 30144, Note_on_c, 0, 68, 63
4, 30146, Note_on_c, 0, 64, 66
4, 30152, Note_on_c, 0, 72, 49
4, 30172, Note_on_c, 0, 72, 0
4, 30202, Note_on_c, 0, 64, 0
4, 30212, Note_on_c, 0, 75, 0
4, 30214, Note_on_c, 0, 63, 0
4, 30222, Note_on_c, 0, 68, 0
4, 30234, Note_on_c, 0, 61, 49
4, 30240, Note_on_c, 0, 73, 55
4, 30262, Note_on_c, 0, 64, 38
4, 30278, Note_on_c, 0, 73, 0
4, 30282, Note_on_c, 0, 64, 0
4, 30286, Control_c, 0, 64, 127
4, 30322, Control_c, 0, 64, 0
4, 30324, Note_on_c, 0, 61, 0
4, 30346, Note_on_c, 0, 72, 60
4, 30356, Note_on_c, 0, 67, 40
4, 30366, Note_on_c, 0, 60, 46
4, 30384, Note_on_c, 0, 67, 0
4, 30394, Note_on_c, 0, 72, 0
4, 30404, Control_c, 0, 64, 127
4, 30414, Note_on_c, 0, 60, 0
4, 30414, Control_c, 0, 64, 0
4, 30460, Note_on_c, 0, 58, 45
4, 30502, Note_on_c, 0, 58, 0
4, 30568, Control_c, 0, 64, 127
4, 30600, Note_on_c, 0, 52, 29
4, 30628, Note_on_c, 0, 52, 0
4, 30672, Note_on_c, 0, 52, 25
4, 30700, Note_on_c, 0, 52, 0
4, 30708, Note_on_c, 0, 53, 55
4, 30730, Note_on_c, 0, 53, 0
4, 30748, Control_c, 0, 64, 0
4, 30782, Note_on_c, 0, 67, 44
4, 30782, Note_on_c, 0, 56, 50
4, 30794, Note_on_c, 0, 60, 53
4, 30800, Note_on_c, 0, 55, 40
4, 30832, Note_on_c, 0, 67, 0
4, 30858, Note_on_c, 0, 60, 0
4, 30870, Note_on_c, 0, 56, 0
4, 30898, Note_on_c, 0, 66, 58
4, 30904, Note_on_c, 0, 56, 30
4, 30910, Note_on_c, 0, 55, 0
4, 30914, Note_on_c, 0, 54, 45
4, 30918, Note_on_c, 0, 60, 42
4, 30996, Control_c, 0, 64, 127
4, 31042, Note_on_c, 0, 60, 0
4, 31058, Note_on_c, 0, 56, 0
4, 31068, Note_on_c, 0, 54, 0
4, 31068, Note_on_c, 0, 66, 0
4, 31082, Control_c, 0, 64, 0
4, 31104, Note_on_c, 0, 65, 55
4, 31108, Note_on_c, 0, 53, 43
4, 31110, Note_on_c, 0, 60, 45
4, 31112, Note_on_c, 0, 56, 27
4, 31278, Note_on_c, 0, 60, 0
4, 31284, Note_on_c, 0, 56, 0
4, 31288, Control_c, 0, 64, 127
4, 31304, Note_on_c, 0, 65, 0
4, 31340, Note_on_c, 0, 53, 0
4, 31342, Note_on_c, 0, 51, 51
4, 31346, Note_on_c, 0, 56, 43
4, 31348, Note_on_c, 0, 63, 53
4, 31352, Note_on_c, 0, 60, 48
4, 31410, Note_on_c, 0, 60, 0
4, 31428, Note_on_c, 0, 56, 0
4, 31452, Control_c, 0, 64, 0
4, 31460, Note_on_c, 0, 51, 0
4, 31490, Note_on_c, 0, 50, 33
4, 31494, Note_on_c, 0, 56, 30
4, 31510, Note_on_c, 0, 62, 37
4, 31522, Note_on_c, 0, 59, 29
4, 31596, Control_c, 0, 64, 127
4, 31616, Control_c, 0, 64, 0
4, 31626, Note_on_c, 0, 63, 0
4, 31638, Note_on_c, 0, 59, 0
4, 31646, Note_on_c, 0, 62, 0
4, 31648, Note_on_c, 0, 56, 0
4, 31658, Control_c, 0, 64, 127
4, 31720, Note_on_c, 0, 53, 50
4, 31734, Note_on_c, 0, 50, 0
4, 31812, Control_c, 0, 64, 0
4, 31822, Note_on_c, 0, 53, 0
4, 31838, Note_on_c, 0, 70, 63
4, 31838, Note_on_c, 0, 55, 60
4, 31840, Note_on_c, 0, 65, 65
4, 31842, Note_on_c, 0, 60, 57
4, 31922, Note_on_c, 0, 65, 0
4, 31938, Note_on_c, 0, 70, 0
4, 31958, Note_on_c, 0, 60, 0
4, 32052, Note_on_c, 0, 55, 0
4, 32058, Control_c, 0, 64, 127
4, 32084, Note_on_c, 0, 68, 46
4, 32088, Note_on_c, 0, 54, 54
4, 32092, Note_on_c, 0, 63, 35
4, 32096, Note_on_c, 0, 59, 45
4, 32102, Note_on_c, 0, 68, 0
4, 32116, Note_on_c, 0, 59, 0
4, 32126, Note_on_c, 0, 63, 0
4, 32154, Note_on_c, 0, 54, 0
4, 32202, Control_c, 0, 64, 0
4, 32224, Note_on_c, 0, 67, 31
4, 32228, Note_on_c, 0, 56, 30
4, 32230, Note_on_c, 0, 46, 25
4, 32236, Note_on_c, 0, 61, 42
4, 32238, Note_on_c, 0, 53, 33
4, 32326, Note_on_c, 0, 56, 0
4, 32330, Note_on_c, 0, 67, 0
4, 32348, Note_on_c, 0, 61, 0
4, 32350, Note_on_c, 0, 53, 0
4, 32430, Note_on_c, 0, 46, 0
4, 32462, Control_c, 0, 64, 127
4, 32550, Control_c, 0, 64, 0
4, 32592, Note_on_c, 0, 67, 44
4, 32596, Note_on_c, 0, 46, 30
4, 32602, Note_on_c, 0, 61, 53
4, 32608, Note_on_c, 0, 56, 37
4, 32614, Note_on_c, 0, 53, 31
4, 32664, Control_c, 0, 64, 127
4, 32674, Note_on_c, 0, 67, 0
4, 32684, Note_on_c, 0, 56, 0
4, 32784, Note_on_c, 0, 61, 0
4, 32852, Note_on_c, 0, 56, 43
4, 32862, Note_on_c, 0, 68, 59
4, 32870, Note_on_c, 0, 61, 56
4, 32886, Note_on_c, 0, 53, 0
4, 32918, Note_on_c, 0, 68, 0
4, 32920, Note_on_c, 0, 56, 0
4, 32938, Note_on_c, 0, 61, 0
4, 32966, Control_c, 0, 64, 0
4, 32978, Note_on_c, 0, 46, 0
4, 32998, Note_on_c, 0, 61, 34
4, 33000, Note_on_c, 0, 67, 37
4, 33006, Note_on_c, 0, 55, 50
4, 33006, Note_on_c, 0, 56, 27
4, 33060, Note_on_c, 0, 56, 0
4, 33074, Note_on_c, 0, 67, 0
4, 33084, Note_on_c, 0, 61, 0
4, 33110, Control_c, 0, 64, 127
4, 33126, Note_on_c, 0, 55, 0
4, 33256, Note_on_c, 0, 72, 71
4, 33256, Note_on_c, 0, 61, 73
4, 33260, Note_on_c, 0, 60, 77
4, 33260, Note_on_c, 0, 64, 69
4, 33268, Note_on_c, 0, 70, 43
4, 33274, Note_on_c, 0, 67, 31
4, 33280, Control_c, 0, 64, 0
4, 33286, Note_on_c, 0, 70, 0
4, 33326, Control_c, 0, 64, 127
4, 33336, Control_c, 0, 64, 0
4, 33346, Note_on_c, 0, 67, 0
4, 33362, Note_on_c, 0, 72, 0
4, 33364, Note_on_c, 0, 64, 0
4, 33370, Note_on_c, 0, 61, 0
4, 33388, Note_on_c, 0, 60, 0
4, 33402, Note_on_c, 0, 70, 30
4, 33414, Note_on_c, 0, 61, 39
4, 33416, Note_on_c, 0, 58, 38
4, 33444, Note_on_c, 0, 70, 0
4, 33460, Control_c, 0, 64, 127
4, 33478, Note_on_c, 0, 58, 0
4, 33480, Note_on_c, 0, 61, 0
4, 33578, Control_c, 0, 64, 0
4, 33602, Control_c, 0, 64, 127
4, 33640, Note_on_c, 0, 56, 40
4, 33646, Note_on_c, 0, 63, 33
4, 33656, Note_on_c, 0, 60, 44
4, 33674, Note_on_c, 0, 60, 0
4, 33682, Note_on_c, 0, 63, 0
4, 33704, Note_on_c, 0, 56, 0
4, 33766, Control_c, 0, 64, 0
4, 33790, Note_on_c, 0, 51, 42
4, 33796, Note_on_c, 0, 60, 42
4, 33798, Note_on_c, 0, 63, 25
4, 33810, Note_on_c, 0, 55, 18
4, 33956, Note_on_c, 0, 55, 0
4, 33962, Note_on_c, 0, 60, 0
4, 33978, Note_on_c, 0, 63, 0
4, 33978, Note_on_c, 0, 51, 0
4, 34040, Note_on_c, 0, 51, 38
4, 34050, Note_on_c, 0, 63, 51
4, 34056, Note_on_c, 0, 55, 41
4, 34060, Note_on_c, 0, 60, 55
4, 34100, Note_on_c, 0, 55, 0
4, 34110, Control_c, 0, 64, 127
4, 34122, Note_on_c, 0, 60, 0
4, 34122, Note_on_c, 0, 51, 0
4, 34140, Note_on_c, 0, 63, 0
4, 34158, Control_c, 0, 64, 0
4, 34198, Note_on_c, 0, 63, 43
4, 34204, Note_on_c, 0, 51, 33
4, 34212, Note_on_c, 0, 60, 48
4, 34282, Note_on_c, 0, 60, 0
4, 34300, Note_on_c, 0, 63, 0
4, 34318, Note_on_c, 0, 51, 0
4, 34326, Note_on_c, 0, 62, 28
4, 34374, Note_on_c, 0, 62, 0
4, 34442, Note_on_c, 0, 63, 56
4, 34456, Note_on_c, 0, 51, 50
4, 34496, Note_on_c, 0, 51, 0
4, 34528, Note_on_c, 0, 63, 0
4, 34598, Control_c, 0, 64, 127
4, 34650, Control_c, 0, 64, 0
4, 34672, Note_on_c, 0, 67, 48
4, 34678, Note_on_c, 0, 63, 53
4, 34694, Note_on_c, 0, 55, 52
4, 34726, Control_c, 0, 64, 127
4, 34752, Note_on_c, 0, 67, 0
4, 34778, Note_on_c, 0, 63, 0
4, 34848, Note_on_c, 0, 55, 0
4, 34896, Control_c, 0, 64, 0
4, 34924, Note_on_c, 0, 63, 50
4, 34930, Note_on_c, 0, 58, 45
4, 34930, Note_on_c, 0, 70, 55
4, 34932, Note_on_c, 0, 59, 49
4, 34940, Note_on_c, 0, 65, 44
4, 35010, Control_c, 0, 64, 127
4, 35076, Note_on_c, 0, 65, 0
4, 35096, Note_on_c, 0, 59, 0
4, 35098, Note_on_c, 0, 63, 0
4, 35122, Note_on_c, 0, 70, 0
4, 35140, Note_on_c, 0, 58, 0
4, 35172, Note_on_c, 0, 68, 57
4, 35178, Note_on_c, 0, 56, 35
4, 35178, Note_on_c, 0, 63, 44
4, 35180, Note_on_c, 0, 59, 52
4, 35192, Note_on_c, 0, 65, 32
4, 35210, Note_on_c, 0, 59, 0
4, 35216, Note_on_c, 0, 65, 0
4, 35218, Note_on_c, 0, 68, 0
4, 35222, Note_on_c, 0, 56, 0
4, 35226, Note_on_c, 0, 63, 0
4, 35306, Control_c, 0, 64, 0
4, 35318, Note_on_c, 0, 67, 55
4, 35324, Note_on_c, 0, 53, 41
4, 35332, Note_on_c, 0, 62, 38
4, 35332, Note_on_c, 0, 59, 31
4, 35372, Note_on_c, 0, 67, 0
4, 35378, Note_on_c, 0, 62, 0
4, 35396, Note_on_c, 0, 59, 0
4, 35452, Note_on_c, 0, 53, 0
4, 35554, Control_c, 0, 64, 127
4, 35564, Note_on_c, 0, 50, 37
4, 35566, Note_on_c, 0, 62, 37
4, 35654, Note_on_c, 0, 50, 0
4, 35660, Control_c, 0, 64, 0
4, 35686, Note_on_c, 0, 62, 0
4, 35700, Note_on_c, 0, 49, 30
4, 35700, Note_on_c, 0, 61, 36
4, 35770, Note_on_c, 0, 61, 0
4, 35888, Note_on_c, 0, 49, 0
4, 35934, Note_on_c, 0, 66, 54
4, 35938, Note_on_c, 0, 54, 49
4, 35944, Note_on_c, 0, 61, 43
4, 35958, Control_c, 0, 64, 127
4, 36010, Note_on_c, 0, 66, 0
4, 36028, Note_on_c, 0, 54, 0
4, 36050, Control_c, 0, 64, 0
4, 36058, Note_on_c, 0, 61, 0
4, 36072, Note_on_c, 0, 65, 50
4, 36092, Note_on_c, 0, 53, 31
4, 36114, Note_on_c, 0, 65, 0
4, 36128, Note_on_c, 0, 53, 0
4, 36328, Note_on_c, 0, 48, 42
4, 36330, Note_on_c, 0, 60, 57
4, 36426, Note_on_c, 0, 48, 0
4, 36436, Note_on_c, 0, 60, 0
4, 36460, Note_on_c, 0, 59, 48
4, 36468, Note_on_c, 0, 47, 41
4, 36498, Note_on_c, 0, 59, 0
4, 36542, Note_on_c, 0, 47, 0
4, 36576, Note_on_c, 0, 59, 47
4, 36578, Note_on_c, 0, 47, 22
4, 36600, Note_on_c, 0, 59, 0
4, 36658, Note_on_c, 0, 47, 0
4, 36706, Note_on_c, 0, 52, 36
4, 36708, Control_c, 0, 64, 127
4, 36708, Note_on_c, 0, 64, 50
4, 36800, Note_on_c, 0, 64, 0
4, 36800, Note_on_c, 0, 52, 0
4, 36810, Control_c, 0, 64, 0
4, 36850, Note_on_c, 0, 63, 39
4, 36856, Note_on_c, 0, 51, 45
4, 36910, Note_on_c, 0, 51, 0
4, 36928, Note_on_c, 0, 63, 0
4, 36928, Control_c, 0, 64, 127
4, 37100, Note_on_c, 0, 41, 54
4, 37170, Control_c, 0, 64, 0
4, 37246, Note_on_c, 0, 57, 41
4, 37274, Note_on_c, 0, 57, 0
4, 37312, Note_on_c, 0, 41, 0
4, 37324, Control_c, 0, 64, 127
4, 37354, Note_on_c, 0, 60, 58
4, 37372, Note_on_c, 0, 60, 0
4, 37396, Control_c, 0, 64, 0
4, 37466, Note_on_c, 0, 67, 68
4, 37500, Note_on_c, 0, 67, 0
4, 37602, Note_on_c, 0, 79, 91
4, 37612, Note_on_c, 0, 63, 43
4, 37612, Note_on_c, 0, 62, 33
4, 37618, Note_on_c, 0, 57, 43
4, 37618, Note_on_c, 0, 67, 39
4, 37730, Control_c, 0, 64, 127
4, 37734, Note_on_c, 0, 74, 47
4, 37776, Note_on_c, 0, 67, 0
4, 37784, Note_on_c, 0, 63, 0
4, 37790, Note_on_c, 0, 62, 0
4, 37806, Note_on_c, 0, 79, 0
4, 37814, Note_on_c, 0, 74, 0
4, 37852, Note_on_c, 0, 67, 50
4, 37854, Note_on_c, 0, 75, 71
4, 37858, Note_on_c, 0, 62, 34
4, 37858, Note_on_c, 0, 63, 34
4, 37950, Note_on_c, 0, 75, 0
4, 37988, Note_on_c, 0, 77, 54
4, 38014, Note_on_c, 0, 62, 0
4, 38020, Note_on_c, 0, 67, 0
4, 38034, Note_on_c, 0, 63, 0
4, 38056, Note_on_c, 0, 57, 0
4, 38058, Note_on_c, 0, 77, 0
4, 38112, Note_on_c, 0, 79, 57
4, 38114, Note_on_c, 0, 57, 40
4, 38120, Note_on_c, 0, 63, 34
4, 38148, Note_on_c, 0, 63, 0
4, 38152, Note_on_c, 0, 57, 0
4, 38166, Note_on_c, 0, 79, 0
4, 38222, Note_on_c, 0, 66, 57
4, 38230, Note_on_c, 0, 80, 57
4, 38242, Note_on_c, 0, 61, 26
4, 38248, Note_on_c, 0, 63, 20
4, 38250, Note_on_c, 0, 56, 18
4, 38286, Note_on_c, 0, 66, 0
4, 38298, Note_on_c, 0, 80, 0
4, 38316, Note_on_c, 0, 56, 0
4, 38326, Note_on_c, 0, 61, 0
4, 38328, Note_on_c, 0, 81, 66
4, 38330, Note_on_c, 0, 63, 0
4, 38366, Note_on_c, 0, 81, 0
4, 38376, Control_c, 0, 64, 0
4, 38408, Note_on_c, 0, 65, 37
4, 38412, Note_on_c, 0, 62, 30
4, 38412, Note_on_c, 0, 60, 37
4, 38416, Note_on_c, 0, 55, 40
4, 38422, Note_on_c, 0, 82, 58
4, 38456, Note_on_c, 0, 65, 0
4, 38486, Note_on_c, 0, 60, 0
4, 38488, Note_on_c, 0, 82, 0
4, 38494, Note_on_c, 0, 62, 0
4, 38498, Note_on_c, 0, 55, 0
4, 38674, Control_c, 0, 64, 127
4, 38710, Control_c, 0, 64, 0
4, 38772, Note_on_c, 0, 65, 46
4, 38774, Note_on_c, 0, 82, 70
4, 38780, Note_on_c, 0, 70, 64
4, 38784, Note_on_c, 0, 62, 24
4, 38786, Note_on_c, 0, 60, 33
4, 38808, Note_on_c, 0, 55, 22
4, 38822, Control_c, 0, 64, 127
4, 38886, Note_on_c, 0, 62, 0
4, 38888, Note_on_c, 0, 60, 0
4, 38888, Note_on_c, 0, 65, 0
4, 38916, Note_on_c, 0, 55, 0
4, 38928, Note_on_c, 0, 82, 0
4, 38940, Note_on_c, 0, 70, 0
4, 39012, Note_on_c, 0, 81, 47
4, 39038, Note_on_c, 0, 81, 0
4, 39106, Control_c, 0, 64, 0
4, 39122, Note_on_c, 0, 62, 37
4, 39136, Note_on_c, 0, 53, 32
4, 39140, Note_on_c, 0, 58, 33
4, 39142, Note_on_c, 0, 55, 32
4, 39142, Note_on_c, 0, 70, 52
4, 39146, Note_on_c, 0, 82, 53
4, 39218, Control_c, 0, 64, 127
4, 39296, Note_on_c, 0, 53, 0
4, 39300, Note_on_c, 0, 70, 0
4, 39308, Note_on_c, 0, 55, 0
4, 39312, Note_on_c, 0, 82, 0
4, 39314, Note_on_c, 0, 62, 0
4, 39330, Note_on_c, 0, 58, 0
4, 39392, Note_on_c, 0, 84, 50
4, 39400, Note_on_c, 0, 53, 36
4, 39402, Note_on_c, 0, 72, 40
4, 39404, Note_on_c, 0, 62, 25
4, 39412, Note_on_c, 0, 58, 21
4, 39436, Note_on_c, 0, 84, 0
4, 39446, Note_on_c, 0, 72, 0
4, 39448, Note_on_c, 0, 62, 0
4, 39450, Note_on_c, 0, 53, 0
4, 39468, Note_on_c, 0, 58, 0
4, 39506, Control_c, 0, 64, 0
4, 39532, Note_on_c, 0, 82, 35
4, 39536, Note_on_c, 0, 53, 32
4, 39538, Note_on_c, 0, 70, 35
4, 39538, Note_on_c, 0, 62, 25
4, 39540, Note_on_c, 0, 58, 30
4, 39584, Note_on_c, 0, 53, 0
4, 39590, Note_on_c, 0, 70, 0
4, 39606, Note_on_c, 0, 58, 0
4, 39618, Note_on_c, 0, 82, 0
4, 39624, Note_on_c, 0, 62, 0
4, 39644, Control_c, 0, 64, 127
4, 39792, Note_on_c, 0, 81, 71
4, 39794, Note_on_c, 0, 69, 71
4, 39794, Note_on_c, 0, 67, 57
4, 39800, Note_on_c, 0, 63, 40
4, 39802, Note_on_c, 0, 62, 36
4, 39810, Note_on_c, 0, 58, 20
4, 39812, Note_on_c, 0, 67, 0
4, 39824, Note_on_c, 0, 62, 0
4, 39824, Control_c, 0, 64, 0
4, 39828, Note_on_c, 0, 63, 0
4, 39830, Note_on_c, 0, 69, 0
4, 39832, Note_on_c, 0, 58, 0
4, 39842, Note_on_c, 0, 81, 0
4, 39968, Control_c, 0, 64, 127
4, 40046, Note_on_c, 0, 82, 79
4, 40050, Note_on_c, 0, 58, 60
4, 40052, Note_on_c, 0, 62, 55
4, 40052, Note_on_c, 0, 70, 77
4, 40052, Note_on_c, 0, 67, 68
4, 40056, Note_on_c, 0, 63, 53
4, 40212, Note_on_c, 0, 70, 0
4, 40216, Note_on_c, 0, 67, 0
4, 40224, Note_on_c, 0, 63, 0
4, 40226, Note_on_c, 0, 58, 0
4, 40226, Note_on_c, 0, 62, 0
4, 40228, Note_on_c, 0, 82, 0
4, 40292, Control_c, 0, 64, 0
4, 40296, Note_on_c, 0, 58, 63
4, 40302, Note_on_c, 0, 84, 66
4, 40304, Note_on_c, 0, 63, 49
4, 40308, Note_on_c, 0, 67, 55
4, 40312, Note_on_c, 0, 72, 62
4, 40364, Control_c, 0, 64, 127
4, 40372, Note_on_c, 0, 67, 0
4, 40404, Note_on_c, 0, 84, 0
4, 40422, Note_on_c, 0, 72, 0
4, 40426, Note_on_c, 0, 58, 0
4, 40456, Note_on_c, 0, 63, 0
4, 40546, Note_on_c, 0, 63, 56
4, 40546, Note_on_c, 0, 68, 73
4, 40548, Note_on_c, 0, 85, 83
4, 40548, Note_on_c, 0, 73, 80
4, 40550, Note_on_c, 0, 57, 64
4, 40554, Control_c, 0, 64, 0
4, 40554, Note_on_c, 0, 61, 45
4, 40656, Control_c, 0, 64, 127
4, 40690, Note_on_c, 0, 57, 0
4, 40694, Note_on_c, 0, 73, 0
4, 40698, Note_on_c, 0, 68, 0
4, 40714, Note_on_c, 0, 85, 0
4, 40716, Note_on_c, 0, 61, 0
4, 40720, Note_on_c, 0, 63, 0
4, 40790, Note_on_c, 0, 68, 67
4, 40796, Note_on_c, 0, 63, 50
4, 40798, Note_on_c, 0, 87, 74
4, 40798, Note_on_c, 0, 61, 46
4, 40800, Note_on_c, 0, 75, 74
4, 40800, Note_on_c, 0, 57, 53
4, 40874, Note_on_c, 0, 75, 0
4, 40902, Note_on_c, 0, 87, 0
4, 40928, Note_on_c, 0, 68, 0
4, 40942, Note_on_c, 0, 57, 0
4, 40942, Note_on_c, 0, 61, 0
4, 40972, Note_on_c, 0, 63, 0
4, 41036, Control_c, 0, 64, 0
4, 41062, Note_on_c, 0, 66, 69
4, 41066, Note_on_c, 0, 78, 65
4, 41068, Note_on_c, 0, 90, 60
4, 41068, Note_on_c, 0, 57, 60
4, 41070, Note_on_c, 0, 63, 49
4, 41076, Note_on_c, 0, 61, 39
4, 41124, Control_c, 0, 64, 127
4, 41132, Note_on_c, 0, 57, 0
4, 41138, Note_on_c, 0, 66, 0
4, 41148, Note_on_c, 0, 63, 0
4, 41150, Note_on_c, 0, 61, 0
4, 41190, Note_on_c, 0, 78, 0
4, 41190, Note_on_c, 0, 90, 0
4, 41308, Control_c, 0, 64, 0
4, 41310, Note_on_c, 0, 51, 52
4, 41316, Note_on_c, 0, 61, 48
4, 41318, Note_on_c, 0, 92, 74
4, 41320, Note_on_c, 0, 80, 69
4, 41324, Note_on_c, 0, 58, 43
4, 41336, Note_on_c, 0, 54, 38
4, 41404, Note_on_c, 0, 92, 0
4, 41438, Control_c, 0, 64, 127
4, 41456, Note_on_c, 0, 58, 0
4, 41456, Note_on_c, 0, 80, 0
4, 41460, Note_on_c, 0, 61, 0
4, 41498, Note_on_c, 0, 51, 0
4, 41508, Note_on_c, 0, 54, 0
4, 41540, Note_on_c, 0, 50, 49
4, 41546, Note_on_c, 0, 89, 63
4, 41546, Note_on_c, 0, 57, 42
4, 41548, Note_on_c, 0, 77, 50
4, 41552, Note_on_c, 0, 60, 25
4, 41648, Note_on_c, 0, 57, 0
4, 41660, Note_on_c, 0, 77, 0
4, 41666, Note_on_c, 0, 50, 0
4, 41666, Note_on_c, 0, 89, 0
4, 41670, Note_on_c, 0, 60, 0
4, 41724, Control_c, 0, 64, 0
4, 41804, Note_on_c, 0, 50, 48
4, 41804, Note_on_c, 0, 89, 68
4, 41812, Note_on_c, 0, 77, 54
4, 41812, Note_on_c, 0, 57, 35
4, 41818, Note_on_c, 0, 60, 32
4, 41838, Control_c, 0, 64, 127
4, 41848, Note_on_c, 0, 89, 0
4, 41852, Note_on_c, 0, 50, 0
4, 41854, Note_on_c, 0, 57, 0
4, 41856, Note_on_c, 0, 77, 0
4, 41858, Note_on_c, 0, 60, 0
4, 41930, Control_c, 0, 64, 0
4, 42068, Control_c, 0, 64, 127
4, 42094, Note_on_c, 0, 88, 68
4, 42098, Note_on_c, 0, 76, 47
4, 42100, Note_on_c, 0, 64, 38
4, 42100, Note_on_c, 0, 59, 43
4, 42116, Note_on_c, 0, 53, 34
4, 42136, Note_on_c, 0, 59, 0
4, 42138, Note_on_c, 0, 53, 0
4, 42140, Note_on_c, 0, 76, 0
4, 42142, Note_on_c, 0, 88, 0
4, 42148, Note_on_c, 0, 64, 0
4, 42202, Control_c, 0, 64, 0
4, 42228, Note_on_c, 0, 85, 64
4, 42230, Note_on_c, 0, 77, 57
4, 42232, Note_on_c, 0, 89, 65
4, 42234, Note_on_c, 0, 59, 48
4, 42234, Note_on_c, 0, 64, 34
4, 42238, Note_on_c, 0, 53, 44
4, 42338, Note_on_c, 0, 77, 0
4, 42350, Note_on_c, 0, 86, 38
4, 42352, Note_on_c, 0, 53, 0
4, 42354, Note_on_c, 0, 89, 0
4, 42358, Note_on_c, 0, 85, 0
4, 42370, Note_on_c, 0, 86, 0
4, 42376, Note_on_c, 0, 64, 0
4, 42378, Note_on_c, 0, 59, 0
4, 42596, Note_on_c, 0, 86, 48
4, 42604, Note_on_c, 0, 74, 38
4, 42612, Note_on_c, 0, 59, 40
4, 42614, Note_on_c, 0, 64, 26
4, 42614, Note_on_c, 0, 53, 32
4, 42678, Note_on_c, 0, 53, 0
4, 42690, Note_on_c, 0, 59, 0
4, 42710, Note_on_c, 0, 74, 0
4, 42724, Note_on_c, 0, 86, 0
4, 42732, Note_on_c, 0, 64, 0
4, 42818, Control_c, 0, 64, 127
4, 42940, Control_c, 0, 64, 0
4, 42986, Note_on_c, 0, 63, 25
4, 42988, Note_on_c, 0, 82, 34
4, 42990, Note_on_c, 0, 67, 22
4, 42990, Note_on_c, 0, 58, 33
4, 42992, Note_on_c, 0, 62, 29
4, 42994, Note_on_c, 0, 75, 29
4, 42994, Note_on_c, 0, 79, 40
4, 43056, Note_on_c, 0, 79, 0
4, 43074, Note_on_c, 0, 82, 0
4, 43078, Note_on_c, 0, 75, 0
4, 43080, Note_on_c, 0, 62, 0
4, 43098, Note_on_c, 0, 67, 0
4, 43100, Note_on_c, 0, 63, 0
4, 43110, Note_on_c, 0, 58, 0
4, 43242, Note_on_c, 0, 73, 73
4, 43260, Note_on_c, 0, 67, 43
4, 43266, Note_on_c, 0, 58, 29
4, 43266, Note_on_c, 0, 74, 66
4, 43268, Note_on_c, 0, 63, 35
4, 43270, Note_on_c, 0, 62, 34
4, 43308, Note_on_c, 0, 73, 0
4, 43344, Note_on_c, 0, 74, 0
4, 43424, Note_on_c, 0, 72, 40
4, 43438, Note_on_c, 0, 62, 0
4, 43446, Note_on_c, 0, 67, 0
4, 43460, Note_on_c, 0, 63, 0
4, 43464, Note_on_c, 0, 72, 0
4, 43548, Note_on_c, 0, 58, 0
4, 43650, Note_on_c, 0, 70, 71
4, 43650, Note_on_c, 0, 63, 39
4, 43660, Note_on_c, 0, 67, 20
4, 43662, Note_on_c, 0, 57, 36
4, 43696, Note_on_c, 0, 70, 0
4, 43702, Note_on_c, 0, 67, 0
4, 43790, Note_on_c, 0, 69, 64
4, 43940, Note_on_c, 0, 63, 0
4, 43952, Control_c, 0, 64, 127
4, 44122, Note_on_c, 0, 69, 0
4, 44126, Control_c, 0, 64, 0
4, 44154, Note_on_c, 0, 63, 35
4, 44164, Note_on_c, 0, 72, 60
4, 44186, Note_on_c, 0, 72, 0
4, 44276, Note_on_c, 0, 77, 83
4, 44326, Control_c, 0, 64, 127
4, 44376, Note_on_c, 0, 77, 0
4, 44378, Note_on_c, 0, 57, 0
4, 44400, Note_on_c, 0, 75, 77
4, 44444, Note_on_c, 0, 63, 0
4, 44506, Control_c, 0, 64, 0
4, 44512, Note_on_c, 0, 75, 0
4, 44536, Note_on_c, 0, 74, 63
4, 44698, Note_on_c, 0, 74, 0
4, 44784, Control_c, 0, 64, 127
4, 44880, Control_c, 0, 64, 0
4, 44922, Note_on_c, 0, 63, 36
4, 44932, Note_on_c, 0, 74, 69
4, 44936, Note_on_c, 0, 56, 28
4, 44936, Note_on_c, 0, 67, 26
4, 44940, Note_on_c, 0, 60, 41
4, 44996, Note_on_c, 0, 74, 0
4, 44996, Note_on_c, 0, 75, 57
4, 45036, Note_on_c, 0, 67, 0
4, 45056, Note_on_c, 0, 74, 34
4, 45080, Note_on_c, 0, 75, 0
4, 45122, Note_on_c, 0, 63, 0
4, 45144, Control_c, 0, 64, 127
4, 45152, Note_on_c, 0, 56, 0
4, 45162, Note_on_c, 0, 74, 0
4, 45172, Note_on_c, 0, 73, 50
4, 45198, Note_on_c, 0, 60, 0
4, 45216, Note_on_c, 0, 73, 0
4, 45256, Control_c, 0, 64, 0
4, 45282, Note_on_c, 0, 66, 42
4, 45288, Note_on_c, 0, 62, 36
4, 45294, Note_on_c, 0, 74, 59
4, 45300, Note_on_c, 0, 56, 25
4, 45352, Note_on_c, 0, 66, 0
4, 45354, Note_on_c, 0, 62, 0
4, 45372, Note_on_c, 0, 56, 0
4, 45392, Note_on_c, 0, 74, 0
4, 45554, Control_c, 0, 64, 127
4, 45562, Note_on_c, 0, 66, 68
4, 45562, Note_on_c, 0, 56, 65
4, 45564, Note_on_c, 0, 79, 94
4, 45566, Note_on_c, 0, 62, 57
4, 45640, Note_on_c, 0, 66, 0
4, 45662, Note_on_c, 0, 79, 0
4, 45690, Note_on_c, 0, 66, 37
4, 45696, Note_on_c, 0, 77, 71
4, 45738, Note_on_c, 0, 66, 0
4, 45754, Note_on_c, 0, 77, 0
4, 45758, Note_on_c, 0, 56, 0
4, 45778, Note_on_c, 0, 62, 0
4, 45794, Control_c, 0, 64, 0
4, 45802, Note_on_c, 0, 77, 57
4, 45866, Note_on_c, 0, 77, 0
4, 45902, Control_c, 0, 64, 127
4, 45916, Note_on_c, 0, 56, 44
4, 45920, Note_on_c, 0, 66, 33
4, 45932, Note_on_c, 0, 62, 25
4, 45932, Note_on_c, 0, 74, 42
4, 45968, Note_on_c, 0, 66, 0
4, 45972, Note_on_c, 0, 62, 0
4, 46004, Note_on_c, 0, 56, 0
4, 46020, Note_on_c, 0, 74, 0
4, 46030, Control_c, 0, 64, 0
4, 46054, Note_on_c, 0, 65, 24
4, 46054, Note_on_c, 0, 70, 57
4, 46062, Note_on_c, 0, 62, 28
4, 46066, Note_on_c, 0, 55, 30
4, 46072, Note_on_c, 0, 60, 33
4, 46210, Note_on_c, 0, 60, 0
4, 46264, Note_on_c, 0, 65, 0
4, 46298, Control_c, 0, 64, 127
4, 46310, Note_on_c, 0, 62, 0
4, 46326, Note_on_c, 0, 55, 0
4, 46336, Note_on_c, 0, 70, 0
4, 46422, Control_c, 0, 64, 0
4, 46468, Note_on_c, 0, 62, 36
4, 46478, Note_on_c, 0, 70, 76
4, 46480, Note_on_c, 0, 65, 32
4, 46482, Note_on_c, 0, 60, 31
4, 46482, Note_on_c, 0, 55, 27
4, 46508, Note_on_c, 0, 65, 0
4, 46522, Note_on_c, 0, 70, 0
4, 46538, Note_on_c, 0, 72, 64
4, 46566, Note_on_c, 0, 60, 0
4, 46568, Note_on_c, 0, 62, 0
4, 46594, Note_on_c, 0, 70, 52
4, 46604, Note_on_c, 0, 72, 0
4, 46648, Note_on_c, 0, 55, 0
4, 46704, Control_c, 0, 64, 127
4, 46708, Note_on_c, 0, 70, 0
4, 46718, Note_on_c, 0, 69, 54
4, 46782, Note_on_c, 0, 69, 0
4, 46826, Control_c, 0, 64, 0
4, 46852, Note_on_c, 0, 70, 57
4, 46852, Note_on_c, 0, 54, 25
4, 46854, Note_on_c, 0, 58, 25
4, 46856, Note_on_c, 0, 60, 30
4, 46866, Note_on_c, 0, 65, 10
4, 46946, Note_on_c, 0, 60, 0
4, 46950, Note_on_c, 0, 65, 0
4, 46976, Control_c, 0, 64, 127
4, 46988, Note_on_c, 0, 54, 0
4, 46990, Note_on_c, 0, 58, 0
4, 47062, Note_on_c, 0, 70, 0
4, 47088, Note_on_c, 0, 74, 62
4, 47092, Note_on_c, 0, 65, 33
4, 47096, Note_on_c, 0, 54, 32
4, 47106, Note_on_c, 0, 58, 25
4, 47112, Note_on_c, 0, 60, 34
4, 47132, Note_on_c, 0, 60, 0
4, 47144, Note_on_c, 0, 65, 0
4, 47168, Note_on_c, 0, 58, 0
4, 47170, Note_on_c, 0, 54, 0
4, 47214, Control_c, 0, 64, 0
4, 47214, Note_on_c, 0, 65, 44
4, 47230, Note_on_c, 0, 74, 0
4, 47232, Note_on_c, 0, 77, 59
4, 47236, Note_on_c, 0, 65, 0
4, 47260, Note_on_c, 0, 77, 0
4, 47422, Control_c, 0, 64, 127
4, 47458, Note_on_c, 0, 54, 42
4, 47468, Note_on_c, 0, 75, 64
4, 47502, Note_on_c, 0, 54, 0
4, 47536, Note_on_c, 0, 75, 0
4, 47586, Control_c, 0, 64, 0
4, 47596, Note_on_c, 0, 60, 45
4, 47598, Note_on_c, 0, 50, 44
4, 47632, Note_on_c, 0, 76, 30
4, 47632, Note_on_c, 0, 74, 34
4, 47652, Note_on_c, 0, 76, 0
4, 47730, Control_c, 0, 64, 127
4, 47778, Note_on_c, 0, 60, 0
4, 47970, Note_on_c, 0, 74, 0
4, 48002, Control_c, 0, 64, 0
4, 48004, Note_on_c, 0, 69, 58
4, 48004, Note_on_c, 0, 60, 43
4, 48016, Note_on_c, 0, 50, 0
4, 48026, Note_on_c, 0, 60, 0
4, 48086, Note_on_c, 0, 69, 0
4, 48120, Note_on_c, 0, 68, 50
4, 48136, Control_c, 0, 64, 127
4, 48270, Note_on_c, 0, 68, 0
4, 48392, Control_c, 0, 64, 0
4, 48630, Note_on_c, 0, 72, 69
4, 48646, Note_on_c, 0, 63, 33
4, 48656, Note_on_c, 0, 59, 36
4, 48694, Note_on_c, 0, 59, 0
4, 48698, Note_on_c, 0, 72, 0
4, 48702, Note_on_c, 0, 63, 0
4, 48998, Control_c, 0, 64, 127
4, 49104, Control_c, 0, 64, 0
4, 49120, Note_on_c, 0, 70, 51
4, 49126, Note_on_c, 0, 55, 53
4, 49128, Note_on_c, 0, 65, 57
4, 49128, Note_on_c, 0, 60, 51
4, 49178, Note_on_c, 0, 55, 0
4, 49182, Note_on_c, 0, 60, 0
4, 49186, Note_on_c, 0, 70, 0
4, 49188, Note_on_c, 0, 65, 0
4, 49394, Note_on_c, 0, 54, 40
4, 49396, Note_on_c, 0, 64, 36
4, 49426, Note_on_c, 0, 64, 0
4, 49520, Note_on_c, 0, 70, 56
4, 49522, Note_on_c, 0, 54, 0
4, 49522, Note_on_c, 0, 55, 53
4, 49526, Note_on_c, 0, 60, 52
4, 49528, Note_on_c, 0, 65, 52
4, 49542, Note_on_c, 0, 55, 0
4, 49546, Note_on_c, 0, 65, 0
4, 49548, Note_on_c, 0, 60, 0
4, 49556, Note_on_c, 0, 70, 0
4, 49798, Note_on_c, 0, 41, 57
4, 49862, Note_on_c, 0, 41, 0
4, 49932, Note_on_c, 0, 72, 35
4, 49964, Note_on_c, 0, 73, 53
4, 49990, Note_on_c, 0, 72, 0
4, 49994, Note_on_c, 0, 73, 0
4, 50012, Note_on_c, 0, 74, 36
4, 50084, Note_on_c, 0, 74, 0
4, 50192, Note_on_c, 0, 77, 48
4, 50196, Note_on_c, 0, 65, 54
4, 50230, Note_on_c, 0, 65, 0
4, 50236, Note_on_c, 0, 77, 0
4, 50304, Note_on_c, 0, 79, 74
4, 50316, Note_on_c, 0, 67, 54
4, 50404, Control_c, 0, 64, 127
4, 50540, Note_on_c, 0, 79, 0
4, 50580, Note_on_c, 0, 67, 0
4, 50650, Control_c, 0, 64, 0
4, 50660, Note_on_c, 0, 77, 38
4, 50672, Note_on_c, 0, 60, 33
4, 50674, Note_on_c, 0, 65, 62
4, 50678, Note_on_c, 0, 62, 26
4, 50740, Note_on_c, 0, 62, 0
4, 50744, Note_on_c, 0, 60, 0
4, 50752, Note_on_c, 0, 65, 0
4, 50760, Note_on_c, 0, 77, 0
4, 51422, Note_on_c, 0, 62, 46
4, 51438, Note_on_c, 0, 57, 34
4, 51468, Note_on_c, 0, 57, 0
4, 51468, Note_on_c, 0, 62, 0
4, 51666, Note_on_c, 0, 57, 32
4, 51686, Note_on_c, 0, 57, 0
4, 51696, Note_on_c, 0, 86, 108
4, 51784, Note_on_c, 0, 86, 0
4, 51844, Note_on_c, 0, 89, 91
4, 51928, Note_on_c, 0, 89, 0
4, 51972, Note_on_c, 0, 87, 71
4, 52064, Note_on_c, 0, 87, 0
4, 52096, Note_on_c, 0, 83, 68
4, 52120, Note_on_c, 0, 63, 35
4, 52120, Note_on_c, 0, 58, 32
4, 52138, Note_on_c, 0, 67, 17
4, 52140, Note_on_c, 0, 60, 30
4, 52184, Note_on_c, 0, 83, 0
4, 52232, Note_on_c, 0, 86, 68
4, 52310, Note_on_c, 0, 86, 0
4, 52364, Note_on_c, 0, 84, 53
4, 52416, Note_on_c, 0, 67, 0
4, 52458, Note_on_c, 0, 84, 0
4, 52470, Note_on_c, 0, 63, 0
4, 52474, Note_on_c, 0, 79, 63
4, 52538, Note_on_c, 0, 79, 0
4, 52598, Note_on_c, 0, 63, 26
4, 52602, Note_on_c, 0, 75, 56
4, 52704, Note_on_c, 0, 75, 0
4, 52742, Note_on_c, 0, 74, 47
4, 52828, Note_on_c, 0, 74, 0
4, 52828, Control_c, 0, 64, 127
4, 52862, Note_on_c, 0, 77, 80
4, 52894, Note_on_c, 0, 60, 0
4, 52902, Note_on_c, 0, 58, 0
4, 52908, Note_on_c, 0, 63, 0
4, 52956, Note_on_c, 0, 77, 0
4, 52958, Note_on_c, 0, 63, 23
4, 52970, Control_c, 0, 64, 0
4, 52980, Note_on_c, 0, 67, 24
4, 52984, Note_on_c, 0, 75, 56
4, 53006, Note_on_c, 0, 57, 19
4, 53060, Note_on_c, 0, 75, 0
4, 53088, Note_on_c, 0, 79, 58
4, 53092, Note_on_c, 0, 67, 0
4, 53144, Note_on_c, 0, 79, 0
4, 53154, Note_on_c, 0, 75, 53
4, 53172, Note_on_c, 0, 63, 0
4, 53230, Note_on_c, 0, 75, 0
4, 53230, Note_on_c, 0, 72, 44
4, 53274, Control_c, 0, 64, 127
4, 53284, Note_on_c, 0, 72, 0
4, 53294, Note_on_c, 0, 69, 62
4, 53308, Note_on_c, 0, 63, 19
4, 53324, Note_on_c, 0, 63, 0
4, 53346, Control_c, 0, 64, 0
4, 53352, Note_on_c, 0, 69, 0
4, 53390, Note_on_c, 0, 57, 0
4, 53390, Note_on_c, 0, 68, 45
4, 53448, Note_on_c, 0, 68, 0
4, 53478, Note_on_c, 0, 67, 36
4, 53528, Note_on_c, 0, 67, 0
4, 53548, Note_on_c, 0, 66, 51
4, 53598, Note_on_c, 0, 66, 0
4, 53624, Note_on_c, 0, 65, 35
4, 53670, Note_on_c, 0, 65, 0
4, 53674, Control_c, 0, 64, 127
4, 53746, Control_c, 0, 64, 0
4, 53786, Note_on_c, 0, 63, 42
4, 53876, Note_on_c, 0, 63, 0
4, 53892, Note_on_c, 0, 62, 45
4, 53954, Note_on_c, 0, 62, 0
4, 54206, Note_on_c, 0, 53, 52
4, 54288, Note_on_c, 0, 53, 0
4, 54436, Note_on_c, 0, 53, 54
4, 54502, Note_on_c, 0, 53, 0
4, 54578, Note_on_c, 0, 54, 57
4, 54614, Note_on_c, 0, 54, 0
4, 54632, Note_on_c, 0, 55, 57
4, 54728, Note_on_c, 0, 55, 0
4, 54808, Note_on_c, 0, 59, 78
4, 54900, Note_on_c, 0, 59, 0
4, 54938, Note_on_c, 0, 62, 76
4, 55132, Note_on_c, 0, 62, 0
4, 55152, Note_on_c, 0, 47, 32
4, 55156, Control_c, 0, 64, 127
4, 55174, Note_on_c, 0, 59, 42
4, 55240, Control_c, 0, 64, 0
4, 55244, Note_on_c, 0, 47, 0
4, 55276, Note_on_c, 0, 59, 0
4, 55300, Note_on_c, 0, 60, 50
4, 55314, Note_on_c, 0, 48, 19
4, 55460, Note_on_c, 0, 48, 0
4, 55496, Note_on_c, 0, 60, 0
4, 55526, Note_on_c, 0, 55, 58
4, 55544, Note_on_c, 0, 55, 0
4, 55910, Note_on_c, 0, 77, 95
4, 55912, Control_c, 0, 64, 127
4, 55990, Control_c, 0, 64, 0
4, 55994, Note_on_c, 0, 77, 0
4, 56024, Note_on_c, 0, 63, 32
4, 56026, Note_on_c, 0, 72, 54
4, 56030, Note_on_c, 0, 57, 28
4, 56068, Note_on_c, 0, 57, 0
4, 56108, Note_on_c, 0, 73, 23
4, 56150, Note_on_c, 0, 63, 0
4, 56154, Note_on_c, 0, 72, 0
4, 56158, Note_on_c, 0, 73, 0
4, 56202, Note_on_c, 0, 74, 24
4, 56270, Note_on_c, 0, 74, 0
4, 56270, Control_c, 0, 64, 127
4, 56312, Note_on_c, 0, 77, 84
4, 56400, Note_on_c, 0, 77, 0
4, 56400, Control_c, 0, 64, 0
4, 56410, Note_on_c, 0, 63, 25
4, 56422, Note_on_c, 0, 57, 22
4, 56448, Note_on_c, 0, 72, 42
4, 56498, Control_c, 0, 64, 127
4, 56504, Note_on_c, 0, 57, 0
4, 56632, Note_on_c, 0, 72, 0
4, 56632, Note_on_c, 0, 63, 0
4, 56672, Note_on_c, 0, 77, 68
4, 56734, Note_on_c, 0, 77, 0
4, 56768, Control_c, 0, 64, 0
4, 56770, Note_on_c, 0, 63, 25
4, 56776, Note_on_c, 0, 56, 23
4, 56784, Note_on_c, 0, 60, 33
4, 56790, Note_on_c, 0, 67, 15
4, 56800, Note_on_c, 0, 79, 80
4, 56870, Note_on_c, 0, 79, 0
4, 56898, Note_on_c, 0, 78, 60
4, 56922, Note_on_c, 0, 67, 0
4, 56962, Note_on_c, 0, 78, 0
4, 57000, Note_on_c, 0, 63, 0
4, 57008, Note_on_c, 0, 77, 51
4, 57056, Control_c, 0, 64, 127
4, 57070, Note_on_c, 0, 60, 0
4, 57072, Note_on_c, 0, 77, 0
4, 57120, Note_on_c, 0, 75, 60
4, 57184, Note_on_c, 0, 75, 0
4, 57204, Control_c, 0, 64, 0
4, 57220, Note_on_c, 0, 72, 46
4, 57226, Note_on_c, 0, 63, 25
4, 57330, Note_on_c, 0, 72, 0
4, 57330, Note_on_c, 0, 68, 53
4, 57370, Note_on_c, 0, 63, 0
4, 57380, Note_on_c, 0, 68, 0
4, 57406, Control_c, 0, 64, 127
4, 57406, Note_on_c, 0, 67, 24
4, 57474, Note_on_c, 0, 67, 0
4, 57482, Note_on_c, 0, 56, 0
4, 57482, Note_on_c, 0, 60, 1
4, 57528, Note_on_c, 0, 65, 55
4, 57552, Note_on_c, 0, 60, 0
4, 57568, Note_on_c, 0, 65, 0
4, 57594, Control_c, 0, 64, 0
4, 57610, Note_on_c, 0, 70, 63
4, 57614, Note_on_c, 0, 56, 30
4, 57698, Note_on_c, 0, 70, 0
4, 57736, Note_on_c, 0, 67, 25
4, 57776, Note_on_c, 0, 62, 1
4, 57784, Note_on_c, 0, 67, 0
4, 57810, Note_on_c, 0, 68, 45
4, 57842, Control_c, 0, 64, 127
4, 57848, Note_on_c, 0, 56, 0
4, 57892, Note_on_c, 0, 68, 0
4, 57916, Note_on_c, 0, 70, 60
4, 57968, Note_on_c, 0, 70, 0
4, 57976, Control_c, 0, 64, 0
4, 57990, Note_on_c, 0, 66, 35
4, 58004, Note_on_c, 0, 56, 29
4, 58004, Note_on_c, 0, 72, 51
4, 58080, Note_on_c, 0, 72, 0
4, 58104, Note_on_c, 0, 74, 63
4, 58140, Control_c, 0, 64, 127
4, 58180, Note_on_c, 0, 74, 0
4, 58194, Note_on_c, 0, 75, 50
4, 58228, Note_on_c, 0, 66, 0
4, 58246, Note_on_c, 0, 62, 0
4, 58258, Note_on_c, 0, 75, 0
4, 58292, Note_on_c, 0, 77, 67
4, 58342, Note_on_c, 0, 56, 0
4, 58364, Note_on_c, 0, 77, 0
4, 58376, Control_c, 0, 64, 0
4, 58388, Note_on_c, 0, 65, 28
4, 58390, Note_on_c, 0, 60, 33
4, 58394, Note_on_c, 0, 62, 19
4, 58404, Note_on_c, 0, 55, 29
4, 58422, Note_on_c, 0, 82, 38
4, 58488, Note_on_c, 0, 82, 0
4, 58516, Note_on_c, 0, 77, 34
4, 58530, Control_c, 0, 64, 127
4, 58542, Note_on_c, 0, 65, 0
4, 58552, Note_on_c, 0, 60, 0
4, 58574, Note_on_c, 0, 77, 0
4, 58586, Note_on_c, 0, 62, 0
4, 58588, Note_on_c, 0, 79, 42
4, 58656, Note_on_c, 0, 79, 0
4, 58716, Note_on_c, 0, 80, 73
4, 58716, Note_on_c, 0, 65, 35
4, 58730, Control_c, 0, 64, 0
4, 58730, Note_on_c, 0, 62, 24
4, 58740, Note_on_c, 0, 80, 0
4, 58744, Note_on_c, 0, 65, 0
4, 58774, Note_on_c, 0, 82, 59
4, 58810, Note_on_c, 0, 82, 0
4, 58822, Note_on_c, 0, 62, 0
4, 58822, Control_c, 0, 64, 127
4, 58866, Note_on_c, 0, 84, 60
4, 58892, Note_on_c, 0, 55, 0
4, 58922, Note_on_c, 0, 84, 0
4, 58948, Note_on_c, 0, 86, 60
4, 59010, Note_on_c, 0, 86, 0
4, 59040, Note_on_c, 0, 87, 64
4, 59064, Control_c, 0, 64, 0
4, 59088, Note_on_c, 0, 87, 0
4, 59104, Note_on_c, 0, 65, 25
4, 59112, Note_on_c, 0, 54, 37
4, 59114, Note_on_c, 0, 58, 25
4, 59118, Note_on_c, 0, 60, 27
4, 59140, Note_on_c, 0, 89, 54
4, 59156, Control_c, 0, 64, 127
4, 59218, Note_on_c, 0, 89, 0
4, 59246, Note_on_c, 0, 60, 0
4, 59254, Note_on_c, 0, 94, 58
4, 59260, Note_on_c, 0, 65, 0
4, 59266, Note_on_c, 0, 58, 0
4, 59306, Note_on_c, 0, 54, 0
4, 59316, Note_on_c, 0, 94, 0
4, 59378, Note_on_c, 0, 96, 79
4, 59450, Note_on_c, 0, 96, 0
4, 59480, Control_c, 0, 64, 0
4, 59494, Note_on_c, 0, 85, 68
4, 59498, Note_on_c, 0, 97, 59
4, 59502, Note_on_c, 0, 65, 45
4, 59510, Note_on_c, 0, 60, 47
4, 59512, Note_on_c, 0, 58, 32
4, 59514, Note_on_c, 0, 54, 27
4, 59546, Note_on_c, 0, 65, 0
4, 59560, Note_on_c, 0, 60, 0
4, 59582, Control_c, 0, 64, 127
4, 59584, Note_on_c, 0, 58, 0
4, 59584, Note_on_c, 0, 97, 0
4, 59586, Note_on_c, 0, 54, 0
4, 59588, Note_on_c, 0, 85, 0
4, 59624, Note_on_c, 0, 98, 53
4, 59624, Note_on_c, 0, 86, 35
4, 59648, Note_on_c, 0, 86, 0
4, 59648, Note_on_c, 0, 98, 0
4, 59678, Control_c, 0, 64, 0
4, 59710, Control_c, 0, 64, 127
4, 59740, Note_on_c, 0, 51, 45
4, 59742, Note_on_c, 0, 61, 44
4, 59744, Note_on_c, 0, 58, 44
4, 59750, Note_on_c, 0, 54, 51
4, 59754, Note_on_c, 0, 100, 75
4, 59754, Note_on_c, 0, 88, 75
4, 59820, Note_on_c, 0, 61, 0
4, 59830, Note_on_c, 0, 88, 0
4, 59844, Note_on_c, 0, 51, 0
4, 59844, Note_on_c, 0, 58, 0
4, 59848, Note_on_c, 0, 100, 0
4, 59850, Note_on_c, 0, 54, 0
4, 59874, Control_c, 0, 64, 0
4, 59882, Note_on_c, 0, 57, 33
4, 59890, Note_on_c, 0, 60, 56
4, 59890, Note_on_c, 0, 101, 70
4, 59896, Note_on_c, 0, 53, 43
4, 59898, Note_on_c, 0, 89, 59
4, 59900, Note_on_c, 0, 50, 46
4, 60004, Note_on_c, 0, 101, 0
4, 60010, Note_on_c, 0, 53, 0
4, 60012, Note_on_c, 0, 50, 0
4, 60012, Control_c, 0, 64, 127
4, 60014, Note_on_c, 0, 57, 0
4, 60024, Note_on_c, 0, 89, 0
4, 60034, Control_c, 0, 64, 0
4, 60052, Note_on_c, 0, 60, 0
4, 60260, Note_on_c, 0, 85, 77
4, 60262, Note_on_c, 0, 59, 52
4, 60266, Note_on_c, 0, 64, 50
4, 60274, Note_on_c, 0, 53, 43
4, 60276, Note_on_c, 0, 98, 68
4, 60282, Note_on_c, 0, 96, 44
4, 60340, Note_on_c, 0, 86, 53
4, 60346, Note_on_c, 0, 85, 0
4, 60404, Note_on_c, 0, 53, 0
4, 60410, Note_on_c, 0, 59, 0
4, 60410, Note_on_c, 0, 98, 0
4, 60412, Note_on_c, 0, 96, 0
4, 60440, Note_on_c, 0, 86, 0
4, 60470, Note_on_c, 0, 64, 0
4, 60640, Note_on_c, 0, 90, 67
4, 60644, Note_on_c, 0, 96, 68
4, 60646, Note_on_c, 0, 63, 37
4, 60646, Note_on_c, 0, 62, 44
4, 60646, Note_on_c, 0, 67, 40
4, 60652, Note_on_c, 0, 58, 38
4, 60654, Note_on_c, 0, 84, 48
4, 60730, Note_on_c, 0, 90, 0
4, 60736, Control_c, 0, 64, 127
4, 60742, Note_on_c, 0, 91, 28
4, 60778, Control_c, 0, 64, 0
4, 60780, Note_on_c, 0, 91, 0
4, 60790, Note_on_c, 0, 96, 0
4, 60792, Control_c, 0, 64, 127
4, 60808, Note_on_c, 0, 84, 0
4, 60866, Note_on_c, 0, 62, 0
4, 60880, Note_on_c, 0, 63, 0
4, 60880, Note_on_c, 0, 67, 0
4, 60974, Note_on_c, 0, 58, 0
4, 60984, Control_c, 0, 64, 0
4, 61028, Note_on_c, 0, 85, 52
4, 61028, Note_on_c, 0, 89, 63
4, 61028, Note_on_c, 0, 77, 56
4, 61030, Note_on_c, 0, 67, 34
4, 61032, Note_on_c, 0, 63, 36
4, 61034, Note_on_c, 0, 57, 44
4, 61092, Note_on_c, 0, 85, 0
4, 61096, Control_c, 0, 64, 127
4, 61104, Note_on_c, 0, 86, 28
4, 61130, Note_on_c, 0, 77, 0
4, 61138, Note_on_c, 0, 86, 0
4, 61154, Note_on_c, 0, 67, 0
4, 61160, Note_on_c, 0, 89, 0
4, 61168, Note_on_c, 0, 57, 0
4, 61202, Note_on_c, 0, 63, 0
4, 61414, Control_c, 0, 64, 0
4, 61414, Note_on_c, 0, 94, 75
4, 61416, Note_on_c, 0, 62, 32
4, 61416, Note_on_c, 0, 55, 46
4, 61416, Note_on_c, 0, 65, 44
4, 61416, Note_on_c, 0, 60, 48
4, 61418, Note_on_c, 0, 82, 67
4, 61424, Note_on_c, 0, 89, 60
4, 61514, Note_on_c, 0, 89, 0
4, 61518, Note_on_c, 0, 94, 0
4, 61532, Note_on_c, 0, 82, 0
4, 61580, Note_on_c, 0, 62, 0
4, 61596, Note_on_c, 0, 65, 0
4, 61598, Note_on_c, 0, 60, 0
4, 61730, Control_c, 0, 64, 127
4, 61776, Control_c, 0, 64, 0
4, 61794, Note_on_c, 0, 84, 82
4, 61798, Note_on_c, 0, 60, 33
4, 61802, Note_on_c, 0, 65, 52
4, 61802, Note_on_c, 0, 85, 69
4, 61804, Note_on_c, 0, 62, 29
4, 61866, Note_on_c, 0, 84, 0
4, 61878, Note_on_c, 0, 85, 0
4, 61878, Note_on_c, 0, 86, 55
4, 61932, Note_on_c, 0, 86, 0
4, 61950, Note_on_c, 0, 62, 0
4, 61962, Note_on_c, 0, 55, 0
4, 61984, Note_on_c, 0, 60, 0
4, 62030, Note_on_c, 0, 65, 0
4, 62058, Control_c, 0, 64, 127
4, 62100, Control_c, 0, 64, 0
4, 62176, Note_on_c, 0, 63, 40
4, 62178, Note_on_c, 0, 67, 44
4, 62178, Note_on_c, 0, 57, 49
4, 62182, Note_on_c, 0, 89, 85
4, 62182, Note_on_c, 0, 77, 87
4, 62264, Control_c, 0, 64, 127
4, 62308, Note_on_c, 0, 67, 0
4, 62316, Note_on_c, 0, 57, 0
4, 62390, Note_on_c, 0, 63, 0
4, 62428, Note_on_c, 0, 89, 0
4, 62436, Note_on_c, 0, 56, 69
4, 62438, Note_on_c, 0, 63, 63
4, 62440, Note_on_c, 0, 66, 73
4, 62444, Note_on_c, 0, 61, 72
4, 62452, Note_on_c, 0, 77, 0
4, 62480, Control_c, 0, 64, 0
4, 62602, Control_c, 0, 64, 127
4, 62694, Note_on_c, 0, 66, 0
4, 62804, Note_on_c, 0, 63, 0
4, 62844, Note_on_c, 0, 61, 0
4, 62914, Note_on_c, 0, 56, 0
4, 62952, Control_c, 0, 64, 0
4, 62964, Note_on_c, 0, 62, 51
4, 62964, Note_on_c, 0, 55, 40
4, 62968, Note_on_c, 0, 60, 33
4, 63028, Note_on_c, 0, 60, 0
4, 63032, Note_on_c, 0, 62, 0
4, 63076, Note_on_c, 0, 65, 46
4, 63108, Note_on_c, 0, 65, 0
4, 63170, Note_on_c, 0, 69, 52
4, 63222, Note_on_c, 0, 69, 0
4, 63234, Control_c, 0, 64, 127
4, 63254, Note_on_c, 0, 72, 61
4, 63322, Note_on_c, 0, 72, 0
4, 63332, Control_c, 0, 64, 0
4, 63340, Note_on_c, 0, 62, 25
4, 63356, Note_on_c, 0, 60, 22
4, 63358, Note_on_c, 0, 69, 54
4, 63428, Note_on_c, 0, 69, 0
4, 63450, Note_on_c, 0, 70, 49
4, 63506, Note_on_c, 0, 70, 0
4, 63514, Note_on_c, 0, 60, 0
4, 63528, Note_on_c, 0, 62, 0
4, 63542, Note_on_c, 0, 72, 52
4, 63568, Control_c, 0, 64, 127
4, 63598, Note_on_c, 0, 72, 0
4, 63632, Note_on_c, 0, 74, 55
4, 63698, Note_on_c, 0, 74, 0
4, 63702, Control_c, 0, 64, 0
4, 63730, Note_on_c, 0, 75, 46
4, 63762, Note_on_c, 0, 55, 0
4, 63772, Note_on_c, 0, 75, 0
4, 63820, Note_on_c, 0, 76, 42
4, 63840, Control_c, 0, 64, 127
4, 63874, Note_on_c, 0, 76, 0
4, 63908, Note_on_c, 0, 78, 55
4, 63976, Note_on_c, 0, 78, 0
4, 64000, Note_on_c, 0, 80, 49
4, 64046, Note_on_c, 0, 80, 0
4, 64070, Control_c, 0, 64, 0
4, 64090, Note_on_c, 0, 83, 49
4, 64094, Note_on_c, 0, 63, 33
4, 64138, Note_on_c, 0, 63, 0
4, 64158, Control_c, 0, 64, 127
4, 64160, Note_on_c, 0, 83, 0
4, 64190, Note_on_c, 0, 85, 56
4, 64268, Note_on_c, 0, 85, 0
4, 64286, Note_on_c, 0, 87, 52
4, 64336, Note_on_c, 0, 87, 0
4, 64390, Note_on_c, 0, 89, 28
4, 64420, Control_c, 0, 64, 0
4, 64448, Note_on_c, 0, 89, 0
4, 64478, Note_on_c, 0, 92, 40
4, 64576, Note_on_c, 0, 94, 37
4, 64590, Note_on_c, 0, 92, 0
4, 64628, Note_on_c, 0, 94, 0
4, 64686, Note_on_c, 0, 95, 43
4, 64732, Note_on_c, 0, 95, 0
4, 64778, Note_on_c, 0, 98, 92
4, 64820, Note_on_c, 0, 63, 26
4, 64838, Note_on_c, 0, 58, 25
4, 64856, Note_on_c, 0, 98, 0
4, 64892, Note_on_c, 0, 95, 53
4, 64948, Note_on_c, 0, 95, 0
4, 64982, Note_on_c, 0, 96, 73
4, 65044, Note_on_c, 0, 96, 0
4, 65048, Note_on_c, 0, 63, 0
4, 65062, Note_on_c, 0, 91, 34
4, 65142, Note_on_c, 0, 91, 0
4, 65146, Note_on_c, 0, 58, 0
4, 65166, Note_on_c, 0, 89, 61
4, 65222, Note_on_c, 0, 89, 0
4, 65254, Note_on_c, 0, 63, 30
4, 65264, Note_on_c, 0, 87, 55
4, 65270, Note_on_c, 0, 57, 27
4, 65420, Note_on_c, 0, 57, 0
4, 65422, Note_on_c, 0, 87, 0
4, 65442, Note_on_c, 0, 63, 0
4, 65528, Note_on_c, 0, 86, 85
4, 65540, Note_on_c, 0, 63, 44
4, 65556, Note_on_c, 0, 57, 36
4, 65596, Note_on_c, 0, 86, 0
4, 65610, Note_on_c, 0, 57, 0
4, 65616, Note_on_c, 0, 63, 0
4, 65678, Note_on_c, 0, 85, 78
4, 65774, Note_on_c, 0, 85, 0
4, 65892, Note_on_c, 0, 60, 60
4, 65898, Note_on_c, 0, 53, 48
4, 65900, Note_on_c, 0, 84, 90
4, 65902, Note_on_c, 0, 57, 48
4, 65908, Note_on_c, 0, 60, 0
4, 65928, Note_on_c, 0, 57, 0
4, 65952, Note_on_c, 0, 53, 0
4, 66006, Note_on_c, 0, 84, 0
4, 66044, Note_on_c, 0, 81, 54
4, 66120, Note_on_c, 0, 81, 0
4, 66168, Note_on_c, 0, 77, 40
4, 66210, Note_on_c, 0, 77, 0
4, 66274, Note_on_c, 0, 72, 49
4, 66384, Note_on_c, 0, 72, 0
4, 66438, Note_on_c, 0, 67, 18
4, 66578, Note_on_c, 0, 67, 0
4, 66668, Note_on_c, 0, 64, 39
4, 66688, Note_on_c, 0, 59, 31
4, 66694, Note_on_c, 0, 64, 0
4, 66716, Note_on_c, 0, 59, 0
4, 66950, Note_on_c, 0, 82, 86
4, 67022, Note_on_c, 0, 82, 0
4, 67060, Note_on_c, 0, 80, 77
4, 67064, Note_on_c, 0, 82, 39
4, 67090, Note_on_c, 0, 82, 0
4, 67136, Note_on_c, 0, 63, 52
4, 67142, Note_on_c, 0, 80, 0
4, 67156, Note_on_c, 0, 63, 0
4, 67160, Note_on_c, 0, 59, 30
4, 67178, Note_on_c, 0, 75, 62
4, 67182, Note_on_c, 0, 59, 0
4, 67256, Note_on_c, 0, 75, 0
4, 67282, Note_on_c, 0, 71, 53
4, 67358, Note_on_c, 0, 71, 0
4, 67400, Note_on_c, 0, 70, 62
4, 67488, Note_on_c, 0, 70, 0
4, 67520, Note_on_c, 0, 67, 37
4, 67550, Note_on_c, 0, 58, 33
4, 67552, Note_on_c, 0, 67, 0
4, 67576, Note_on_c, 0, 58, 0
4, 67804, Note_on_c, 0, 87, 91
4, 67902, Note_on_c, 0, 85, 69
4, 67916, Note_on_c, 0, 87, 0
4, 67934, Note_on_c, 0, 58, 47
4, 67956, Note_on_c, 0, 85, 0
4, 67982, Note_on_c, 0, 58, 0
4, 68024, Note_on_c, 0, 83, 66
4, 68086, Note_on_c, 0, 83, 0
4, 68126, Note_on_c, 0, 80, 53
4, 68212, Note_on_c, 0, 80, 0
4, 68320, Note_on_c, 0, 68, 67
4, 68332, Note_on_c, 0, 61, 45
4, 68338, Note_on_c, 0, 63, 33
4, 68350, Note_on_c, 0, 61, 0
4, 68354, Note_on_c, 0, 68, 0
4, 68358, Note_on_c, 0, 63, 0
4, 68400, Note_on_c, 0, 92, 87
4, 68470, Note_on_c, 0, 92, 0
4, 68502, Note_on_c, 0, 90, 70
4, 68580, Note_on_c, 0, 90, 0
4, 68590, Note_on_c, 0, 89, 65
4, 68654, Note_on_c, 0, 89, 0
4, 68682, Note_on_c, 0, 87, 71
4, 68714, Note_on_c, 0, 66, 46
4, 68730, Note_on_c, 0, 87, 0
4, 68744, Note_on_c, 0, 61, 14
4, 68758, Note_on_c, 0, 57, 18
4, 68786, Note_on_c, 0, 86, 56
4, 68790, Note_on_c, 0, 63, 2
4, 68832, Note_on_c, 0, 66, 0
4, 68840, Note_on_c, 0, 86, 0
4, 68850, Note_on_c, 0, 57, 0
4, 68868, Note_on_c, 0, 85, 57
4, 68942, Note_on_c, 0, 84, 49
4, 68948, Note_on_c, 0, 61, 0
4, 68954, Note_on_c, 0, 85, 0
4, 69010, Note_on_c, 0, 84, 0
4, 69016, Note_on_c, 0, 63, 0
4, 69050, Note_on_c, 0, 82, 33
4, 69068, Note_on_c, 0, 83, 40
4, 69088, Note_on_c, 0, 83, 0
4, 69094, Note_on_c, 0, 82, 0
4, 69120, Note_on_c, 0, 63, 31
4, 69128, Note_on_c, 0, 67, 30
4, 69130, Note_on_c, 0, 56, 31
4, 69140, Note_on_c, 0, 60, 39
4, 69262, Note_on_c, 0, 77, 40
4, 69294, Note_on_c, 0, 77, 0
4, 69344, Note_on_c, 0, 79, 75
4, 69412, Note_on_c, 0, 79, 0
4, 69440, Note_on_c, 0, 80, 74
4, 69508, Note_on_c, 0, 80, 0
4, 69534, Note_on_c, 0, 79, 50
4, 69542, Note_on_c, 0, 67, 0
4, 69618, Note_on_c, 0, 79, 0
4, 69634, Note_on_c, 0, 77, 66
4, 69662, Note_on_c, 0, 56, 0
4, 69676, Note_on_c, 0, 63, 0
4, 69682, Note_on_c, 0, 77, 0
4, 69750, Note_on_c, 0, 60, 0
4, 69816, Note_on_c, 0, 72, 36
4, 69850, Note_on_c, 0, 72, 0
4, 69872, Note_on_c, 0, 73, 48
4, 69874, Note_on_c, 0, 62, 29
4, 69878, Note_on_c, 0, 66, 27
4, 69892, Note_on_c, 0, 56, 29
4, 69904, Note_on_c, 0, 73, 0
4, 69918, Note_on_c, 0, 74, 41
4, 69980, Note_on_c, 0, 74, 0
4, 70006, Note_on_c, 0, 77, 79
4, 70162, Note_on_c, 0, 62, 0
4, 70172, Note_on_c, 0, 77, 0
4, 70172, Note_on_c, 0, 66, 0
4, 70222, Note_on_c, 0, 62, 4
4, 70242, Note_on_c, 0, 73, 46
4, 70242, Note_on_c, 0, 66, 35
4, 70260, Note_on_c, 0, 73, 0
4, 70270, Note_on_c, 0, 74, 57
4, 70312, Control_c, 0, 64, 127
4, 70346, Note_on_c, 0, 66, 0
4, 70354, Note_on_c, 0, 74, 0
4, 70378, Note_on_c, 0, 67, 55
4, 70560, Note_on_c, 0, 56, 0
4, 70578, Note_on_c, 0, 62, 0
4, 70600, Note_on_c, 0, 67, 0
4, 70640, Note_on_c, 0, 65, 32
4, 70642, Note_on_c, 0, 62, 25
4, 70642, Note_on_c, 0, 70, 52
4, 70646, Control_c, 0, 64, 0
4, 70652, Note_on_c, 0, 60, 29
4, 70658, Note_on_c, 0, 55, 27
4, 70768, Control_c, 0, 64, 127
4, 71070, Note_on_c, 0, 65, 0
4, 71124, Note_on_c, 0, 62, 0
4, 71138, Note_on_c, 0, 60, 0
4, 71204, Note_on_c, 0, 55, 0
4, 71388, Note_on_c, 0, 70, 0
4, 71390, Control_c, 0, 64, 0
4, 71418, Note_on_c, 0, 65, 32
4, 71420, Note_on_c, 0, 54, 36
4, 71424, Note_on_c, 0, 60, 24
4, 71482, Control_c, 0, 64, 127
4, 71504, Note_on_c, 0, 65, 0
4, 71506, Note_on_c, 0, 70, 56
4, 71554, Note_on_c, 0, 70, 0
4, 71596, Note_on_c, 0, 72, 63
4, 71662, Note_on_c, 0, 72, 0
4, 71686, Note_on_c, 0, 54, 0
4, 71690, Note_on_c, 0, 77, 84
4, 71700, Note_on_c, 0, 60, 0
4, 71750, Control_c, 0, 64, 0
4, 71770, Note_on_c, 0, 77, 0
4, 71770, Note_on_c, 0, 60, 40
4, 71774, Note_on_c, 0, 54, 44
4, 71780, Note_on_c, 0, 65, 33
4, 71780, Note_on_c, 0, 82, 78
4, 71860, Note_on_c, 0, 82, 0
4, 71878, Control_c, 0, 64, 127
4, 71882, Note_on_c, 0, 84, 83
4, 71884, Note_on_c, 0, 78, 45
4, 71892, Note_on_c, 0, 72, 57
4, 71902, Note_on_c, 0, 65, 0
4, 71914, Note_on_c, 0, 78, 0
4, 71942, Note_on_c, 0, 84, 0
4, 71942, Note_on_c, 0, 60, 0
4, 71944, Note_on_c, 0, 72, 0
4, 71974, Note_on_c, 0, 54, 0
4, 71980, Note_on_c, 0, 82, 46
4, 72044, Note_on_c, 0, 82, 0
4, 72076, Note_on_c, 0, 84, 72
4, 72088, Note_on_c, 0, 72, 35
4, 72118, Note_on_c, 0, 72, 0
4, 72134, Note_on_c, 0, 84, 0
4, 72134, Control_c, 0, 64, 0
4, 72136, Note_on_c, 0, 60, 31
4, 72140, Note_on_c, 0, 57, 34
4, 72146, Note_on_c, 0, 50, 26
4, 72168, Note_on_c, 0, 81, 64
4, 72174, Note_on_c, 0, 53, 14
4, 72252, Control_c, 0, 64, 127
4, 72294, Note_on_c, 0, 53, 0
4, 72302, Note_on_c, 0, 57, 0
4, 72316, Note_on_c, 0, 50, 0
4, 72336, Note_on_c, 0, 81, 0
4, 72376, Note_on_c, 0, 60, 0
4, 72540, Control_c, 0, 64, 0
4, 72550, Note_on_c, 0, 64, 32
4, 72550, Note_on_c, 0, 59, 40
4, 72554, Note_on_c, 0, 79, 48
4, 72560, Note_on_c, 0, 67, 35
4, 72612, Note_on_c, 0, 53, 6
4, 72664, Control_c, 0, 64, 127
4, 72690, Note_on_c, 0, 64, 0
4, 72692, Note_on_c, 0, 59, 0
4, 72700, Note_on_c, 0, 79, 0
4, 72720, Note_on_c, 0, 67, 0
4, 72730, Note_on_c, 0, 53, 0
4, 72940, Control_c, 0, 64, 0
4, 72954, Note_on_c, 0, 78, 50
4, 72956, Note_on_c, 0, 62, 27
4, 72958, Note_on_c, 0, 73, 51
4, 72966, Note_on_c, 0, 66, 31
4, 72968, Note_on_c, 0, 51, 23
4, 72970, Note_on_c, 0, 58, 33
4, 73094, Control_c, 0, 64, 127
4, 73162, Note_on_c, 0, 62, 0
4, 73204, Note_on_c, 0, 66, 0
4, 73208, Note_on_c, 0, 73, 0
4, 73212, Note_on_c, 0, 51, 0
4, 73222, Note_on_c, 0, 58, 0
4, 73222, Note_on_c, 0, 78, 0
4, 73310, Control_c, 0, 64, 0
4, 73330, Note_on_c, 0, 60, 37
4, 73334, Note_on_c, 0, 77, 43
4, 73336, Note_on_c, 0, 51, 31
4, 73340, Note_on_c, 0, 72, 44
4, 73342, Note_on_c, 0, 57, 38
4, 73348, Note_on_c, 0, 65, 33
4, 73392, Control_c, 0, 64, 127
4, 73412, Note_on_c, 0, 77, 0
4, 73432, Note_on_c, 0, 72, 0
4, 73456, Note_on_c, 0, 57, 0
4, 73458, Note_on_c, 0, 60, 0
4, 73470, Note_on_c, 0, 65, 0
4, 73632, Note_on_c, 0, 51, 0
4, 73638, Note_on_c, 0, 53, 33
4, 73682, Note_on_c, 0, 53, 0
4, 73696, Control_c, 0, 64, 0
4, 73700, Note_on_c, 0, 54, 32
4, 73708, Note_on_c, 0, 70, 48
4, 73710, Note_on_c, 0, 55, 46
4, 73718, Note_on_c, 0, 60, 46
4, 73720, Note_on_c, 0, 65, 53
4, 73750, Note_on_c, 0, 54, 0
4, 73900, Note_on_c, 0, 65, 0
4, 73910, Note_on_c, 0, 70, 0
4, 73930, Note_on_c, 0, 60, 0
4, 73962, Note_on_c, 0, 55, 0
4, 73986, Note_on_c, 0, 54, 35
4, 73988, Control_c, 0, 64, 127
4, 74054, Control_c, 0, 64, 0
4, 74090, Note_on_c, 0, 54, 0
4, 74096, Note_on_c, 0, 55, 51
4, 74198, Control_c, 0, 64, 127
4, 74306, Note_on_c, 0, 55, 0
4, 74326, Control_c, 0, 64, 0
4, 74334, Note_on_c, 0, 58, 54
4, 74338, Note_on_c, 0, 70, 62
4, 74344, Note_on_c, 0, 63, 60
4, 74350, Note_on_c, 0, 60, 57
4, 74360, Note_on_c, 0, 65, 33
4, 74368, Note_on_c, 0, 60, 0
4, 74388, Note_on_c, 0, 65, 0
4, 74392, Note_on_c, 0, 63, 0
4, 74404, Note_on_c, 0, 70, 0
4, 74450, Control_c, 0, 64, 127
4, 74658, Note_on_c, 0, 58, 0
4, 74716, Note_on_c, 0, 56, 53
4, 74718, Note_on_c, 0, 90, 65
4, 74722, Control_c, 0, 64, 0
4, 74722, Note_on_c, 0, 66, 64
4, 74730, Note_on_c, 0, 62, 51
4, 74744, Note_on_c, 0, 75, 17
4, 74828, Note_on_c, 0, 75, 0
4, 74846, Note_on_c, 0, 90, 0
4, 74900, Note_on_c, 0, 87, 25
4, 75008, Note_on_c, 0, 62, 0
4, 75058, Note_on_c, 0, 87, 0
4, 75096, Note_on_c, 0, 62, 27
4, 75118, Note_on_c, 0, 60, 42
4, 75130, Note_on_c, 0, 66, 0
4, 75130, Note_on_c, 0, 75, 77
4, 75132, Note_on_c, 0, 90, 77
4, 75168, Note_on_c, 0, 56, 0
4, 75226, Note_on_c, 0, 90, 0
4, 75240, Note_on_c, 0, 75, 0
4, 75240, Note_on_c, 0, 65, 57
4, 75242, Note_on_c, 0, 55, 34
4, 75284, Note_on_c, 0, 90, 48
4, 75292, Note_on_c, 0, 75, 35
4, 75304, Note_on_c, 0, 65, 0
4, 75332, Note_on_c, 0, 60, 0
4, 75344, Note_on_c, 0, 62, 0
4, 75378, Note_on_c, 0, 55, 0
4, 75458, Note_on_c, 0, 75, 0
4, 75482, Note_on_c, 0, 90, 0
4, 75534, Note_on_c, 0, 87, 34
4, 75590, Note_on_c, 0, 87, 0
4, 75638, Note_on_c, 0, 90, 56
4, 75640, Note_on_c, 0, 75, 46
4, 75802, Note_on_c, 0, 75, 0
4, 75806, Note_on_c, 0, 90, 0
4, 75890, Note_on_c, 0, 90, 61
4, 75892, Note_on_c, 0, 75, 61
4, 75986, Note_on_c, 0, 90, 0
4, 75988, Note_on_c, 0, 75, 0
4, 75998, Note_on_c, 0, 63, 21
4, 76004, Note_on_c, 0, 52, 31
4, 76006, Note_on_c, 0, 58, 33
4, 76026, Note_on_c, 0, 87, 39
4, 76180, Control_c, 0, 64, 127
4, 76188, Note_on_c, 0, 52, 0
4, 76214, Note_on_c, 0, 63, 0
4, 76226, Note_on_c, 0, 58, 0
4, 76226, Note_on_c, 0, 87, 0
4, 76258, Note_on_c, 0, 90, 62
4, 76260, Note_on_c, 0, 75, 57
4, 76264, Note_on_c, 0, 63, 34
4, 76268, Note_on_c, 0, 52, 37
4, 76268, Note_on_c, 0, 58, 25
4, 76282, Control_c, 0, 64, 0
4, 76400, Control_c, 0, 64, 127
4, 76462, Note_on_c, 0, 52, 0
4, 76484, Note_on_c, 0, 58, 0
4, 76498, Note_on_c, 0, 63, 0
4, 76610, Note_on_c, 0, 75, 0
4, 76744, Control_c, 0, 64, 0
4, 76762, Note_on_c, 0, 90, 0
4, 76762, Note_on_c, 0, 63, 36
4, 76768, Note_on_c, 0, 67, 34
4, 76774, Note_on_c, 0, 56, 29
4, 76780, Note_on_c, 0, 60, 44
4, 76836, Control_c, 0, 64, 127
4, 77058, Note_on_c, 0, 60, 0
4, 77060, Note_on_c, 0, 67, 0
4, 77082, Note_on_c, 0, 56, 0
4, 77094, Note_on_c, 0, 63, 0
4, 77150, Note_on_c, 0, 63, 46
4, 77152, Note_on_c, 0, 56, 36
4, 77154, Control_c, 0, 64, 0
4, 77156, Note_on_c, 0, 67, 36
4, 77160, Note_on_c, 0, 60, 57
4, 77246, Control_c, 0, 64, 127
4, 77434, Note_on_c, 0, 67, 0
4, 77434, Note_on_c, 0, 56, 0
4, 77486, Note_on_c, 0, 60, 0
4, 77514, Note_on_c, 0, 63, 0
4, 77530, Control_c, 0, 64, 0
4, 77538, Note_on_c, 0, 94, 85
4, 77540, Note_on_c, 0, 67, 43
4, 77540, Note_on_c, 0, 56, 50
4, 77542, Note_on_c, 0, 62, 53
4, 77622, Note_on_c, 0, 94, 0
4, 77626, Note_on_c, 0, 95, 55
4, 77676, Note_on_c, 0, 67, 0
4, 77702, Note_on_c, 0, 94, 47
4, 77712, Note_on_c, 0, 95, 0
4, 77724, Control_c, 0, 64, 127
4, 77770, Note_on_c, 0, 92, 33
4, 77782, Note_on_c, 0, 94, 0
4, 77808, Note_on_c, 0, 56, 0
4, 77840, Note_on_c, 0, 92, 0
4, 77844, Note_on_c, 0, 90, 29
4, 77870, Note_on_c, 0, 90, 0
4, 77904, Control_c, 0, 64, 0
4, 77924, Note_on_c, 0, 66, 45
4, 77926, Note_on_c, 0, 56, 38
4, 77938, Note_on_c, 0, 94, 79
4, 78088, Note_on_c, 0, 56, 0
4, 78112, Note_on_c, 0, 94, 0
4, 78154, Note_on_c, 0, 56, 39
4, 78176, Control_c, 0, 64, 127
4, 78178, Note_on_c, 0, 92, 78
4, 78218, Note_on_c, 0, 66, 0
4, 78218, Note_on_c, 0, 62, 0
4, 78262, Note_on_c, 0, 92, 0
4, 78274, Note_on_c, 0, 56, 0
4, 78288, Control_c, 0, 64, 0
4, 78302, Note_on_c, 0, 65, 33
4, 78302, Note_on_c, 0, 62, 28
4, 78308, Note_on_c, 0, 58, 34
4, 78312, Note_on_c, 0, 91, 54
4, 78314, Note_on_c, 0, 55, 39
4, 78376, Note_on_c, 0, 91, 0
4, 78400, Note_on_c, 0, 92, 50
4, 78414, Note_on_c, 0, 65, 0
4, 78452, Note_on_c, 0, 62, 0
4, 78476, Note_on_c, 0, 91, 36
4, 78492, Note_on_c, 0, 92, 0
4, 78504, Note_on_c, 0, 58, 0
4, 78520, Control_c, 0, 64, 127
4, 78554, Note_on_c, 0, 91, 0
4, 78566, Note_on_c, 0, 89, 64
4, 78620, Note_on_c, 0, 89, 0
4, 78654, Control_c, 0, 64, 0
4, 78660, Note_on_c, 0, 62, 33
4, 78666, Note_on_c, 0, 58, 25
4, 78666, Note_on_c, 0, 65, 38
4, 78674, Note_on_c, 0, 88, 59
4, 78770, Note_on_c, 0, 65, 0
4, 78778, Note_on_c, 0, 88, 0
4, 78782, Note_on_c, 0, 91, 66
4, 78784, Note_on_c, 0, 62, 0
4, 78838, Note_on_c, 0, 55, 0
4, 78842, Note_on_c, 0, 58, 0
4, 78860, Note_on_c, 0, 91, 0
4, 78872, Note_on_c, 0, 89, 64
4, 78900, Control_c, 0, 64, 127
4, 78934, Note_on_c, 0, 89, 0
4, 78978, Note_on_c, 0, 88, 72
4, 79030, Note_on_c, 0, 88, 0
4, 79058, Control_c, 0, 64, 0
4, 79072, Note_on_c, 0, 63, 23
4, 79082, Note_on_c, 0, 52, 33
4, 79084, Note_on_c, 0, 87, 60
4, 79090, Note_on_c, 0, 58, 30
4, 79176, Note_on_c, 0, 87, 0
4, 79180, Note_on_c, 0, 63, 0
4, 79190, Note_on_c, 0, 52, 0
4, 79196, Note_on_c, 0, 58, 0
4, 79198, Note_on_c, 0, 88, 56
4, 79268, Note_on_c, 0, 88, 0
4, 79304, Note_on_c, 0, 85, 69
4, 79400, Note_on_c, 0, 85, 0
4, 79532, Control_c, 0, 64, 127
4, 79578, Control_c, 0, 64, 0
4, 79578, Note_on_c, 0, 84, 80
4, 79582, Note_on_c, 0, 58, 43
4, 79598, Note_on_c, 0, 64, 36
4, 79624, Note_on_c, 0, 64, 0
4, 79638, Control_c, 0, 64, 127
4, 79650, Note_on_c, 0, 84, 0
4, 79658, Note_on_c, 0, 58, 0
4, 79686, Note_on_c, 0, 82, 69
4, 79770, Note_on_c, 0, 82, 0
4, 79808, Control_c, 0, 64, 0
4, 79820, Note_on_c, 0, 63, 38
4, 79824, Note_on_c, 0, 80, 64
4, 79830, Note_on_c, 0, 56, 33
4, 79836, Note_on_c, 0, 60, 45
4, 79838, Note_on_c, 0, 67, 19
4, 79940, Note_on_c, 0, 80, 0
4, 79950, Note_on_c, 0, 67, 0
4, 79964, Note_on_c, 0, 60, 0
4, 79968, Note_on_c, 0, 82, 51
4, 79984, Note_on_c, 0, 63, 0
4, 80014, Note_on_c, 0, 80, 37
4, 80036, Note_on_c, 0, 82, 0
4, 80050, Control_c, 0, 64, 127
4, 80068, Note_on_c, 0, 79, 45
4, 80072, Note_on_c, 0, 80, 0
4, 80104, Note_on_c, 0, 79, 0
4, 80176, Note_on_c, 0, 78, 67
4, 80206, Note_on_c, 0, 63, 34
4, 80206, Note_on_c, 0, 67, 30
4, 80214, Control_c, 0, 64, 0
4, 80236, Note_on_c, 0, 78, 0
4, 80236, Note_on_c, 0, 60, 19
4, 80278, Note_on_c, 0, 77, 44
4, 80328, Note_on_c, 0, 77, 0
4, 80370, Note_on_c, 0, 72, 32
4, 80418, Note_on_c, 0, 72, 0
4, 80432, Note_on_c, 0, 67, 0
4, 80454, Note_on_c, 0, 73, 61
4, 80510, Note_on_c, 0, 73, 0
4, 80512, Note_on_c, 0, 56, 0
4, 80522, Note_on_c, 0, 63, 0
4, 80542, Control_c, 0, 64, 127
4, 80556, Note_on_c, 0, 74, 68
4, 80584, Note_on_c, 0, 60, 0
4, 80604, Note_on_c, 0, 74, 0
4, 80630, Control_c, 0, 64, 0
4, 80640, Note_on_c, 0, 62, 35
4, 80642, Note_on_c, 0, 66, 44
4, 80646, Note_on_c, 0, 77, 73
4, 80656, Note_on_c, 0, 56, 37
4, 80718, Note_on_c, 0, 77, 0
4, 80748, Note_on_c, 0, 79, 66
4, 80792, Note_on_c, 0, 79, 0
4, 80816, Note_on_c, 0, 66, 0
4, 80828, Note_on_c, 0, 77, 53
4, 80830, Control_c, 0, 64, 127
4, 80908, Note_on_c, 0, 56, 0
4, 80966, Note_on_c, 0, 62, 0
4, 80974, Note_on_c, 0, 77, 0
4, 81000, Control_c, 0, 64, 0
4, 81024, Note_on_c, 0, 74, 55
4, 81028, Note_on_c, 0, 62, 29
4, 81030, Note_on_c, 0, 66, 34
4, 81032, Note_on_c, 0, 56, 33
4, 81118, Control_c, 0, 64, 127
4, 81164, Note_on_c, 0, 56, 0
4, 81220, Note_on_c, 0, 66, 0
4, 81254, Note_on_c, 0, 74, 0
4, 81256, Note_on_c, 0, 56, 37
4, 81260, Note_on_c, 0, 69, 54
4, 81276, Note_on_c, 0, 62, 0
4, 81286, Note_on_c, 0, 69, 0
4, 81344, Note_on_c, 0, 56, 0
4, 81364, Control_c, 0, 64, 0
4, 81384, Note_on_c, 0, 65, 37
4, 81390, Note_on_c, 0, 56, 13
4, 81396, Note_on_c, 0, 61, 49
4, 81408, Note_on_c, 0, 72, 55
4, 81456, Note_on_c, 0, 72, 0
4, 81462, Note_on_c, 0, 73, 57
4, 81508, Note_on_c, 0, 72, 47
4, 81510, Note_on_c, 0, 65, 0
4, 81514, Note_on_c, 0, 73, 0
4, 81564, Note_on_c, 0, 72, 0
4, 81572, Note_on_c, 0, 69, 43
4, 81594, Note_on_c, 0, 69, 0
4, 81594, Note_on_c, 0, 61, 0
4, 81640, Note_on_c, 0, 72, 70
4, 81700, Note_on_c, 0, 72, 0
4, 81738, Note_on_c, 0, 69, 47
4, 81782, Note_on_c, 0, 69, 0
4, 81790, Note_on_c, 0, 65, 28
4, 81792, Note_on_c, 0, 60, 17
4, 81794, Note_on_c, 0, 61, 26
4, 81814, Note_on_c, 0, 70, 40
4, 81862, Note_on_c, 0, 70, 0
4, 81904, Note_on_c, 0, 65, 0
4, 81944, Note_on_c, 0, 60, 0
4, 81968, Note_on_c, 0, 73, 68
4, 82022, Note_on_c, 0, 73, 0
4, 82040, Note_on_c, 0, 56, 0
4, 82056, Note_on_c, 0, 75, 62
4, 82072, Note_on_c, 0, 61, 0
4, 82108, Note_on_c, 0, 75, 0
4, 82142, Note_on_c, 0, 66, 43
4, 82142, Note_on_c, 0, 61, 33
4, 82146, Note_on_c, 0, 76, 47
4, 82154, Note_on_c, 0, 55, 37
4, 82222, Note_on_c, 0, 76, 0
4, 82246, Control_c, 0, 64, 127
4, 82330, Note_on_c, 0, 66, 0
4, 82356, Note_on_c, 0, 79, 67
4, 82418, Note_on_c, 0, 79, 0
4, 82426, Note_on_c, 0, 55, 0
4, 82436, Note_on_c, 0, 61, 0
4, 82446, Note_on_c, 0, 82, 63
4, 82492, Note_on_c, 0, 82, 0
4, 82498, Control_c, 0, 64, 0
4, 82528, Note_on_c, 0, 66, 35
4, 82530, Note_on_c, 0, 61, 35
4, 82542, Note_on_c, 0, 84, 58
4, 82546, Note_on_c, 0, 55, 33
4, 82584, Note_on_c, 0, 84, 0
4, 82586, Control_c, 0, 64, 127
4, 82606, Note_on_c, 0, 66, 0
4, 82624, Note_on_c, 0, 89, 67
4, 82626, Note_on_c, 0, 55, 0
4, 82668, Note_on_c, 0, 61, 0
4, 82682, Note_on_c, 0, 89, 0
4, 82714, Note_on_c, 0, 94, 59
4, 82780, Note_on_c, 0, 94, 0
4, 82806, Note_on_c, 0, 96, 88
4, 82878, Note_on_c, 0, 96, 0
4, 82882, Control_c, 0, 64, 0
4, 82884, Note_on_c, 0, 63, 57
4, 82898, Note_on_c, 0, 53, 45
4, 82904, Note_on_c, 0, 94, 76
4, 82910, Note_on_c, 0, 58, 37
4, 82948, Note_on_c, 0, 94, 0
4, 83008, Note_on_c, 0, 91, 62
4, 83054, Note_on_c, 0, 91, 0
4, 83100, Note_on_c, 0, 53, 0
4, 83102, Note_on_c, 0, 87, 55
4, 83134, Note_on_c, 0, 58, 0
4, 83142, Note_on_c, 0, 63, 0
4, 83166, Note_on_c, 0, 87, 0
4, 83204, Note_on_c, 0, 84, 64
4, 83232, Control_c, 0, 64, 127
4, 83236, Control_c, 0, 64, 0
4, 83262, Note_on_c, 0, 84, 0
4, 83304, Note_on_c, 0, 65, 31
4, 83310, Note_on_c, 0, 82, 39
4, 83314, Note_on_c, 0, 60, 38
4, 83324, Note_on_c, 0, 55, 25
4, 83350, Note_on_c, 0, 55, 0
4, 83352, Note_on_c, 0, 65, 0
4, 83360, Note_on_c, 0, 60, 0
4, 83408, Note_on_c, 0, 82, 0
4, 83438, Note_on_c, 0, 79, 39
4, 83464, Note_on_c, 0, 79, 0
4, 83524, Control_c, 0, 64, 127
4, 83652, Control_c, 0, 64, 0
4, 83822, Note_on_c, 0, 82, 77
4, 83822, Note_on_c, 0, 70, 76
4, 83832, Note_on_c, 0, 75, 61
4, 83836, Note_on_c, 0, 63, 67
4, 83846, Note_on_c, 0, 59, 58
4, 83848, Note_on_c, 0, 56, 33
4, 83864, Note_on_c, 0, 59, 0
4, 83876, Note_on_c, 0, 63, 0
4, 83882, Note_on_c, 0, 70, 0
4, 83884, Note_on_c, 0, 82, 0
4, 83898, Note_on_c, 0, 75, 0
4, 83900, Control_c, 0, 64, 127
4, 83918, Note_on_c, 0, 56, 0
4, 83938, Note_on_c, 0, 80, 34
4, 83946, Note_on_c, 0, 68, 29
4, 83974, Note_on_c, 0, 68, 0
4, 83990, Note_on_c, 0, 80, 0
4, 84006, Control_c, 0, 64, 0
4, 84064, Note_on_c, 0, 82, 75
4, 84064, Note_on_c, 0, 70, 61
4, 84064, Note_on_c, 0, 75, 60
4, 84066, Note_on_c, 0, 63, 52
4, 84070, Note_on_c, 0, 53, 51
4, 84074, Note_on_c, 0, 59, 51
4, 84082, Note_on_c, 0, 56, 27
4, 84108, Note_on_c, 0, 70, 0
4, 84114, Note_on_c, 0, 53, 0
4, 84116, Note_on_c, 0, 82, 0
4, 84124, Note_on_c, 0, 63, 0
4, 84144, Note_on_c, 0, 75, 0
4, 84152, Note_on_c, 0, 59, 0
4, 84158, Note_on_c, 0, 56, 0
4, 84176, Note_on_c, 0, 80, 36
4, 84188, Note_on_c, 0, 63, 36
4, 84188, Note_on_c, 0, 75, 53
4, 84198, Note_on_c, 0, 68, 38
4, 84202, Note_on_c, 0, 59, 25
4, 84212, Note_on_c, 0, 53, 32
4, 84214, Note_on_c, 0, 56, 15
4, 84218, Control_c, 0, 64, 127
4, 84262, Note_on_c, 0, 59, 0
4, 84282, Note_on_c, 0, 63, 0
4, 84366, Note_on_c, 0, 80, 0
4, 84366, Note_on_c, 0, 75, 0
4, 84376, Note_on_c, 0, 56, 0
4, 84380, Note_on_c, 0, 68, 0
4, 84384, Note_on_c, 0, 53, 0
4, 84432, Control_c, 0, 64, 0
4, 84458, Note_on_c, 0, 79, 66
4, 84458, Note_on_c, 0, 58, 48
4, 84458, Note_on_c, 0, 73, 62
4, 84464, Note_on_c, 0, 67, 38
4, 84466, Note_on_c, 0, 55, 40
4, 84466, Note_on_c, 0, 62, 47
4, 84536, Note_on_c, 0, 73, 0
4, 84538, Note_on_c, 0, 74, 38
4, 84554, Note_on_c, 0, 79, 0
4, 84556, Note_on_c, 0, 67, 0
4, 84558, Note_on_c, 0, 74, 0
4, 84564, Note_on_c, 0, 62, 0
4, 84566, Note_on_c, 0, 55, 0
4, 84598, Note_on_c, 0, 58, 0
4, 84698, Note_on_c, 0, 75, 61
4, 84706, Note_on_c, 0, 63, 70
4, 84712, Note_on_c, 0, 68, 67
4, 84712, Note_on_c, 0, 64, 76
4, 84720, Note_on_c, 0, 72, 54
4, 84752, Control_c, 0, 64, 127
4, 84808, Note_on_c, 0, 64, 0
4, 84810, Note_on_c, 0, 72, 0
4, 84812, Note_on_c, 0, 68, 0
4, 84820, Control_c, 0, 64, 0
4, 84826, Note_on_c, 0, 75, 0
4, 84828, Note_on_c, 0, 63, 0
4, 84854, Note_on_c, 0, 73, 49
4, 84856, Note_on_c, 0, 61, 53
4, 84858, Note_on_c, 0, 68, 43
4, 84868, Note_on_c, 0, 64, 50
4, 84944, Note_on_c, 0, 61, 0
4, 84968, Note_on_c, 0, 73, 0
4, 84978, Note_on_c, 0, 68, 0
4, 84990, Note_on_c, 0, 64, 0
4, 85102, Control_c, 0, 64, 127
4, 85210, Control_c, 0, 64, 0
4, 85226, Note_on_c, 0, 67, 53
4, 85232, Note_on_c, 0, 60, 58
4, 85236, Note_on_c, 0, 63, 36
4, 85236, Note_on_c, 0, 56, 34
4, 85238, Note_on_c, 0, 55, 41
4, 85334, Note_on_c, 0, 67, 0
4, 85336, Note_on_c, 0, 56, 0
4, 85336, Note_on_c, 0, 60, 0
4, 85350, Note_on_c, 0, 55, 0
4, 85368, Note_on_c, 0, 63, 0
4, 85466, Control_c, 0, 64, 127
4, 85486, Note_on_c, 0, 51, 29
4, 85560, Note_on_c, 0, 51, 0
4, 85578, Control_c, 0, 64, 0
4, 85614, Note_on_c, 0, 56, 42
4, 85616, Note_on_c, 0, 62, 36
4, 85618, Note_on_c, 0, 65, 49
4, 85620, Note_on_c, 0, 53, 35
4, 85626, Note_on_c, 0, 59, 46
4, 85760, Note_on_c, 0, 53, 0
4, 85760, Note_on_c, 0, 65, 0
4, 85760, Control_c, 0, 64, 127
4, 85766, Note_on_c, 0, 59, 0
4, 85766, Note_on_c, 0, 62, 0
4, 85778, Note_on_c, 0, 56, 0
4, 85974, Control_c, 0, 64, 0
4, 86000, Note_on_c, 0, 63, 37
4, 86008, Note_on_c, 0, 58, 43
4, 86016, Note_on_c, 0, 53, 25
4, 86186, Note_on_c, 0, 53, 0
4, 86220, Note_on_c, 0, 58, 0
4, 86226, Control_c, 0, 64, 127
4, 86238, Note_on_c, 0, 63, 0
4, 86274, Note_on_c, 0, 48, 30
4, 86338, Note_on_c, 0, 48, 0
4, 86380, Control_c, 0, 64, 0
4, 86380, Note_on_c, 0, 60, 43
4, 86390, Note_on_c, 0, 61, 71
4, 86426, Note_on_c, 0, 61, 0
4, 86426, Note_on_c, 0, 62, 73
4, 86452, Note_on_c, 0, 60, 0
4, 86584, Note_on_c, 0, 62, 0
4, 86588, Note_on_c, 0, 48, 36
4, 86632, Note_on_c, 0, 48, 0
4, 86646, Note_on_c, 0, 65, 95
4, 86652, Control_c, 0, 64, 127
4, 86750, Control_c, 0, 64, 0
4, 86758, Note_on_c, 0, 65, 0
4, 86788, Note_on_c, 0, 61, 29
4, 86804, Note_on_c, 0, 61, 0
4, 86818, Note_on_c, 0, 62, 46
4, 86976, Control_c, 0, 64, 127
4, 87002, Note_on_c, 0, 62, 0
4, 87018, Note_on_c, 0, 53, 82
4, 87124, Control_c, 0, 64, 0
4, 87210, Note_on_c, 0, 55, 83
4, 87230, Note_on_c, 0, 53, 0
4, 87322, Note_on_c, 0, 57, 80
4, 87350, Note_on_c, 0, 55, 0
4, 87400, Note_on_c, 0, 57, 0
4, 87422, Control_c, 0, 64, 127
4, 87424, Note_on_c, 0, 60, 88
4, 87500, Note_on_c, 0, 60, 0
4, 87510, Control_c, 0, 64, 0
4, 87526, Note_on_c, 0, 57, 68
4, 87620, Note_on_c, 0, 57, 0
4, 87634, Note_on_c, 0, 58, 51
4, 87706, Note_on_c, 0, 58, 0
4, 87766, Control_c, 0, 64, 127
4, 87894, Control_c, 0, 64, 0
4, 88192, Control_c, 0, 64, 127
4, 88258, Control_c, 0, 64, 0
4, 88300, Note_on_c, 0, 50, 76
4, 88352, Note_on_c, 0, 50, 0
4, 88396, Note_on_c, 0, 53, 54
4, 88452, Note_on_c, 0, 53, 0
4, 88486, Note_on_c, 0, 57, 59
4, 88536, Control_c, 0, 64, 127
4, 88564, Note_on_c, 0, 57, 0
4, 88582, Note_on_c, 0, 60, 74
4, 88620, Note_on_c, 0, 46, 35
4, 88648, Note_on_c, 0, 60, 0
4, 88670, Note_on_c, 0, 46, 0
4, 88670, Control_c, 0, 64, 0
4, 88680, Note_on_c, 0, 57, 62
4, 88762, Note_on_c, 0, 57, 0
4, 88774, Note_on_c, 0, 58, 51
4, 88834, Note_on_c, 0, 58, 0
4, 88838, Control_c, 0, 64, 127
4, 88874, Note_on_c, 0, 59, 60
4, 88944, Note_on_c, 0, 59, 0
4, 88964, Note_on_c, 0, 61, 70
4, 89038, Control_c, 0, 64, 0
4, 89040, Note_on_c, 0, 61, 0
4, 89058, Note_on_c, 0, 63, 55
4, 89124, Note_on_c, 0, 63, 0
4, 89156, Note_on_c, 0, 65, 56
4, 89210, Note_on_c, 0, 65, 0
4, 89224, Control_c, 0, 64, 127
4, 89246, Note_on_c, 0, 67, 60
4, 89282, Note_on_c, 0, 67, 0
4, 89378, Control_c, 0, 64, 0
4, 89572, Note_on_c, 0, 68, 67
4, 89614, Control_c, 0, 64, 127
4, 89622, Note_on_c, 0, 68, 0
4, 89660, Note_on_c, 0, 69, 53
4, 89706, Note_on_c, 0, 69, 0
4, 89746, Note_on_c, 0, 71, 68
4, 89806, Note_on_c, 0, 71, 0
4, 89828, Note_on_c, 0, 66, 51
4, 89836, Note_on_c, 0, 72, 55
4, 89840, Control_c, 0, 64, 0
4, 89860, Note_on_c, 0, 66, 0
4, 89906, Note_on_c, 0, 72, 0
4, 89928, Note_on_c, 0, 73, 69
4, 89988, Note_on_c, 0, 73, 0
4, 90012, Note_on_c, 0, 74, 54
4, 90054, Control_c, 0, 64, 127
4, 90060, Note_on_c, 0, 74, 0
4, 90112, Note_on_c, 0, 75, 72
4, 90126, Note_on_c, 0, 61, 49
4, 90148, Note_on_c, 0, 61, 0
4, 90174, Note_on_c, 0, 75, 0
4, 90210, Note_on_c, 0, 76, 50
4, 90214, Control_c, 0, 64, 0
4, 90270, Note_on_c, 0, 76, 0
4, 90314, Note_on_c, 0, 79, 87
4, 90342, Note_on_c, 0, 63, 34
4, 90360, Note_on_c, 0, 57, 13
4, 90388, Note_on_c, 0, 79, 0
4, 90390, Note_on_c, 0, 57, 0
4, 90398, Note_on_c, 0, 63, 0
4, 90402, Note_on_c, 0, 77, 58
4, 90420, Control_c, 0, 64, 127
4, 90474, Note_on_c, 0, 77, 0
4, 90492, Note_on_c, 0, 75, 45
4, 90530, Note_on_c, 0, 75, 0
4, 90568, Control_c, 0, 64, 0
4, 90576, Note_on_c, 0, 60, 45
4, 90582, Note_on_c, 0, 77, 66
4, 90602, Note_on_c, 0, 50, 19
4, 90640, Note_on_c, 0, 60, 0
4, 90654, Note_on_c, 0, 77, 0
4, 90658, Note_on_c, 0, 50, 0
4, 90704, Note_on_c, 0, 65, 62
4, 90770, Note_on_c, 0, 65, 0
4, 90818, Note_on_c, 0, 65, 65
4, 90824, Control_c, 0, 64, 127
4, 90868, Note_on_c, 0, 65, 0
4, 90918, Note_on_c, 0, 65, 57
4, 90930, Note_on_c, 0, 60, 46
4, 90946, Note_on_c, 0, 60, 0
4, 90966, Note_on_c, 0, 65, 0
4, 90974, Control_c, 0, 64, 0
4, 91042, Note_on_c, 0, 65, 46
4, 91082, Note_on_c, 0, 67, 54
4, 91084, Note_on_c, 0, 65, 0
4, 91154, Note_on_c, 0, 67, 0
4, 91162, Note_on_c, 0, 65, 45
4, 91210, Control_c, 0, 64, 127
4, 91240, Note_on_c, 0, 65, 0
4, 91242, Note_on_c, 0, 64, 53
4, 91272, Note_on_c, 0, 59, 22
4, 91292, Note_on_c, 0, 64, 0
4, 91308, Control_c, 0, 64, 0
4, 91318, Note_on_c, 0, 59, 0
4, 91328, Note_on_c, 0, 65, 70
4, 91376, Note_on_c, 0, 65, 0
4, 91386, Note_on_c, 0, 67, 46
4, 91440, Note_on_c, 0, 67, 0
4, 91444, Note_on_c, 0, 65, 36
4, 91488, Note_on_c, 0, 65, 0
4, 91492, Note_on_c, 0, 64, 42
4, 91528, Note_on_c, 0, 64, 0
4, 91568, Note_on_c, 0, 65, 61
4, 91656, Control_c, 0, 64, 127
4, 91668, Note_on_c, 0, 62, 57
4, 91672, Note_on_c, 0, 65, 0
4, 91692, Control_c, 0, 64, 0
4, 91700, Note_on_c, 0, 62, 0
4, 92036, Control_c, 0, 64, 127
4, 92088, Control_c, 0, 64, 0
4, 92386, Note_on_c, 0, 58, 42
4, 92396, Note_on_c, 0, 48, 33
4, 92400, Control_c, 0, 64, 127
4, 92420, Note_on_c, 0, 48, 0
4, 92420, Note_on_c, 0, 58, 0
4, 92472, Control_c, 0, 64, 0
4, 92526, Note_on_c, 0, 63, 72
4, 92614, Note_on_c, 0, 63, 0
4, 92652, Note_on_c, 0, 59, 20
4, 92676, Note_on_c, 0, 59, 0
4, 92730, Note_on_c, 0, 60, 45
4, 92784, Note_on_c, 0, 60, 0
4, 92790, Control_c, 0, 64, 127
4, 92806, Control_c, 0, 64, 0
4, 92820, Note_on_c, 0, 62, 58
4, 92886, Note_on_c, 0, 62, 0
4, 92912, Note_on_c, 0, 63, 51
4, 92952, Note_on_c, 0, 63, 0
4, 93022, Note_on_c, 0, 65, 64
4, 93032, Control_c, 0, 64, 127
4, 93046, Note_on_c, 0, 65, 0
4, 93114, Note_on_c, 0, 68, 74
4, 93162, Note_on_c, 0, 51, 18
4, 93186, Control_c, 0, 64, 0
4, 93202, Note_on_c, 0, 51, 0
4, 93208, Note_on_c, 0, 73, 44
4, 93240, Note_on_c, 0, 68, 0
4, 93262, Note_on_c, 0, 73, 0
4, 93312, Note_on_c, 0, 78, 49
4, 93374, Note_on_c, 0, 78, 0
4, 93404, Note_on_c, 0, 80, 74
4, 93420, Note_on_c, 0, 68, 27
4, 93438, Note_on_c, 0, 68, 0
4, 93464, Control_c, 0, 64, 127
4, 93486, Note_on_c, 0, 78, 52
4, 93492, Note_on_c, 0, 80, 0
4, 93564, Note_on_c, 0, 78, 0
4, 93596, Note_on_c, 0, 68, 53
4, 93612, Control_c, 0, 64, 0
4, 93616, Note_on_c, 0, 68, 0
4, 93812, Control_c, 0, 64, 127
4, 93872, Note_on_c, 0, 82, 83
4, 93876, Note_on_c, 0, 70, 85
4, 93880, Note_on_c, 0, 63, 58
4, 93880, Note_on_c, 0, 75, 75
4, 93882, Note_on_c, 0, 67, 55
4, 93886, Note_on_c, 0, 56, 55
4, 93886, Note_on_c, 0, 60, 66
4, 93902, Note_on_c, 0, 65, 28
4, 93920, Note_on_c, 0, 65, 0
4, 93938, Note_on_c, 0, 67, 0
4, 93944, Note_on_c, 0, 70, 0
4, 93952, Note_on_c, 0, 82, 0
4, 93958, Note_on_c, 0, 75, 0
4, 93960, Note_on_c, 0, 60, 0
4, 93966, Note_on_c, 0, 63, 0
4, 93988, Note_on_c, 0, 68, 46
4, 93990, Note_on_c, 0, 80, 36
4, 93994, Note_on_c, 0, 63, 30
4, 94002, Note_on_c, 0, 67, 20
4, 94006, Note_on_c, 0, 60, 32
4, 94020, Note_on_c, 0, 67, 0
4, 94022, Note_on_c, 0, 68, 0
4, 94028, Control_c, 0, 64, 0
4, 94030, Note_on_c, 0, 80, 0
4, 94042, Note_on_c, 0, 60, 0
4, 94042, Note_on_c, 0, 56, 0
4, 94054, Note_on_c, 0, 63, 0
4, 94080, Note_on_c, 0, 56, 35
4, 94080, Note_on_c, 0, 82, 74
4, 94080, Note_on_c, 0, 63, 33
4, 94084, Note_on_c, 0, 70, 57
4, 94086, Note_on_c, 0, 75, 40
4, 94088, Note_on_c, 0, 67, 34
4, 94092, Note_on_c, 0, 60, 44
4, 94114, Control_c, 0, 64, 127
4, 94138, Note_on_c, 0, 75, 0
4, 94140, Note_on_c, 0, 70, 0
4, 94148, Note_on_c, 0, 67, 0
4, 94166, Note_on_c, 0, 82, 0
4, 94168, Note_on_c, 0, 60, 0
4, 94174, Note_on_c, 0, 56, 0
4, 94178, Control_c, 0, 64, 0
4, 94188, Note_on_c, 0, 63, 0
4, 94222, Note_on_c, 0, 85, 69
4, 94222, Note_on_c, 0, 63, 40
4, 94224, Note_on_c, 0, 67, 44
4, 94228, Note_on_c, 0, 73, 61
4, 94234, Note_on_c, 0, 60, 44
4, 94240, Note_on_c, 0, 67, 0
4, 94244, Note_on_c, 0, 73, 0
4, 94252, Note_on_c, 0, 85, 0
4, 94254, Note_on_c, 0, 60, 0
4, 94268, Note_on_c, 0, 63, 0
4, 94300, Control_c, 0, 64, 127
4, 94444, Control_c, 0, 64, 0
4, 94482, Note_on_c, 0, 82, 68
4, 94482, Note_on_c, 0, 62, 46
4, 94484, Note_on_c, 0, 66, 47
4, 94486, Note_on_c, 0, 70, 52
4, 94488, Note_on_c, 0, 75, 52
4, 94492, Note_on_c, 0, 56, 42
4, 94540, Control_c, 0, 64, 127
4, 94734, Note_on_c, 0, 70, 0
4, 94736, Note_on_c, 0, 82, 0
4, 94738, Note_on_c, 0, 66, 0
4, 94748, Note_on_c, 0, 56, 0
4, 94756, Note_on_c, 0, 75, 0
4, 94788, Note_on_c, 0, 62, 0
4, 94828, Control_c, 0, 64, 0
4, 94834, Note_on_c, 0, 80, 48
4, 94842, Note_on_c, 0, 56, 40
4, 94844, Note_on_c, 0, 62, 27
4, 94844, Note_on_c, 0, 75, 49
4, 94844, Note_on_c, 0, 66, 42
4, 94850, Note_on_c, 0, 68, 32
4, 94916, Control_c, 0, 64, 127
4, 94980, Note_on_c, 0, 66, 0
4, 95028, Note_on_c, 0, 75, 0
4, 95030, Note_on_c, 0, 68, 0
4, 95036, Note_on_c, 0, 80, 0
4, 95080, Note_on_c, 0, 56, 0
4, 95106, Note_on_c, 0, 62, 0
4, 95178, Control_c, 0, 64, 0
4, 95202, Note_on_c, 0, 62, 29
4, 95216, Note_on_c, 0, 79, 36
4, 95218, Note_on_c, 0, 74, 31
4, 95222, Note_on_c, 0, 67, 20
4, 95222, Note_on_c, 0, 60, 38
4, 95226, Note_on_c, 0, 55, 26
4, 95276, Control_c, 0, 64, 127
4, 95320, Note_on_c, 0, 67, 0
4, 95414, Note_on_c, 0, 74, 0
4, 95442, Note_on_c, 0, 79, 0
4, 95548, Note_on_c, 0, 60, 0
4, 95596, Note_on_c, 0, 62, 0
4, 95660, Note_on_c, 0, 55, 0
4, 95832, Note_on_c, 0, 65, 45
4, 95836, Note_on_c, 0, 89, 105
4, 95838, Note_on_c, 0, 58, 35
4, 95840, Note_on_c, 0, 54, 39
4, 95842, Note_on_c, 0, 60, 50
4, 95884, Note_on_c, 0, 65, 0
4, 95892, Note_on_c, 0, 89, 0
4, 95902, Control_c, 0, 64, 0
4, 95926, Note_on_c, 0, 60, 0
4, 95946, Note_on_c, 0, 58, 0
4, 95958, Note_on_c, 0, 54, 0
4, 96010, Note_on_c, 0, 87, 71
4, 96038, Note_on_c, 0, 54, 37
4, 96038, Note_on_c, 0, 65, 30
4, 96040, Note_on_c, 0, 60, 47
4, 96040, Note_on_c, 0, 58, 26
4, 96042, Note_on_c, 0, 88, 64
4, 96044, Note_on_c, 0, 87, 0
4, 96068, Note_on_c, 0, 89, 76
4, 96084, Note_on_c, 0, 88, 0
4, 96184, Note_on_c, 0, 89, 0
4, 96202, Note_on_c, 0, 65, 0
4, 96220, Note_on_c, 0, 60, 0
4, 96270, Note_on_c, 0, 86, 81
4, 96276, Note_on_c, 0, 65, 46
4, 96284, Note_on_c, 0, 60, 40
4, 96324, Note_on_c, 0, 65, 0
4, 96354, Note_on_c, 0, 60, 0
4, 96356, Note_on_c, 0, 86, 0
4, 96408, Note_on_c, 0, 82, 58
4, 96420, Control_c, 0, 64, 127
4, 96426, Note_on_c, 0, 60, 27
4, 96464, Note_on_c, 0, 54, 0
4, 96480, Note_on_c, 0, 60, 0
4, 96504, Note_on_c, 0, 82, 0
4, 96508, Note_on_c, 0, 58, 0
4, 96522, Note_on_c, 0, 77, 45
4, 96542, Note_on_c, 0, 77, 0
4, 96556, Note_on_c, 0, 54, 46
4, 96600, Note_on_c, 0, 54, 0
4, 96740, Control_c, 0, 64, 0
4, 96756, Note_on_c, 0, 60, 36
4, 96768, Note_on_c, 0, 57, 24
4, 96776, Note_on_c, 0, 60, 0
4, 96790, Note_on_c, 0, 57, 0
4, 96882, Note_on_c, 0, 86, 74
4, 96886, Note_on_c, 0, 74, 74
4, 96888, Note_on_c, 0, 60, 52
4, 96890, Note_on_c, 0, 57, 41
4, 96896, Note_on_c, 0, 53, 36
4, 96902, Note_on_c, 0, 50, 31
4, 96946, Control_c, 0, 64, 127
4, 97004, Note_on_c, 0, 50, 0
4, 97006, Note_on_c, 0, 53, 0
4, 97012, Note_on_c, 0, 57, 0
4, 97026, Note_on_c, 0, 86, 0
4, 97036, Note_on_c, 0, 60, 0
4, 97046, Note_on_c, 0, 74, 0
4, 97120, Control_c, 0, 64, 0
4, 97134, Note_on_c, 0, 85, 68
4, 97138, Note_on_c, 0, 64, 48
4, 97140, Note_on_c, 0, 73, 56
4, 97142, Note_on_c, 0, 53, 34
4, 97142, Note_on_c, 0, 59, 45
4, 97226, Control_c, 0, 64, 127
4, 97296, Note_on_c, 0, 59, 0
4, 97296, Note_on_c, 0, 53, 0
4, 97332, Note_on_c, 0, 64, 0
4, 97356, Note_on_c, 0, 73, 0
4, 97370, Note_on_c, 0, 85, 0
4, 97494, Control_c, 0, 64, 0
4, 97510, Note_on_c, 0, 84, 67
4, 97514, Note_on_c, 0, 67, 34
4, 97516, Note_on_c, 0, 58, 37
4, 97516, Note_on_c, 0, 79, 54
4, 97520, Note_on_c, 0, 63, 36
4, 97520, Note_on_c, 0, 72, 50
4, 97592, Control_c, 0, 64, 127
4, 97704, Note_on_c, 0, 79, 0
4, 97706, Note_on_c, 0, 84, 0
4, 97712, Note_on_c, 0, 67, 0
4, 97764, Note_on_c, 0, 58, 0
4, 97766, Note_on_c, 0, 72, 0
4, 97792, Note_on_c, 0, 63, 0
4, 97892, Control_c, 0, 64, 0
4, 97892, Note_on_c, 0, 66, 46
4, 97896, Note_on_c, 0, 83, 55
4, 97898, Note_on_c, 0, 78, 49
4, 97902, Note_on_c, 0, 57, 35
4, 97904, Note_on_c, 0, 63, 32
4, 97906, Note_on_c, 0, 71, 41
4, 97938, Note_on_c, 0, 61, 18
4, 97982, Control_c, 0, 64, 127
4, 98036, Note_on_c, 0, 57, 0
4, 98066, Note_on_c, 0, 83, 0
4, 98080, Note_on_c, 0, 66, 0
4, 98086, Note_on_c, 0, 71, 0
4, 98114, Note_on_c, 0, 63, 0
4, 98138, Note_on_c, 0, 78, 0
4, 98142, Note_on_c, 0, 61, 0
4, 98270, Control_c, 0, 64, 0
4, 98274, Note_on_c, 0, 82, 55
4, 98278, Note_on_c, 0, 56, 37
4, 98278, Note_on_c, 0, 67, 34
4, 98280, Note_on_c, 0, 62, 40
4, 98282, Note_on_c, 0, 70, 38
4, 98294, Note_on_c, 0, 77, 42
4, 98352, Note_on_c, 0, 77, 0
4, 98358, Note_on_c, 0, 82, 0
4, 98366, Note_on_c, 0, 70, 0
4, 98540, Note_on_c, 0, 72, 94
4, 98586, Note_on_c, 0, 72, 0
4, 98654, Note_on_c, 0, 67, 0
4, 98658, Note_on_c, 0, 73, 49
4, 98678, Note_on_c, 0, 73, 0
4, 98678, Note_on_c, 0, 62, 0
4, 98690, Note_on_c, 0, 74, 57
4, 98704, Note_on_c, 0, 56, 0
4, 98810, Note_on_c, 0, 74, 0
4, 98924, Note_on_c, 0, 77, 68
4, 98980, Note_on_c, 0, 77, 0
4, 99052, Note_on_c, 0, 79, 67
4, 99096, Note_on_c, 0, 79, 0
4, 99298, Note_on_c, 0, 41, 42
4, 99324, Note_on_c, 0, 41, 0
4, 99418, Note_on_c, 0, 67, 53
4, 99422, Note_on_c, 0, 57, 54
4, 99424, Note_on_c, 0, 63, 39
4, 99430, Note_on_c, 0, 60, 54
4, 99438, Note_on_c, 0, 51, 35
4, 99446, Note_on_c, 0, 60, 0
4, 99448, Note_on_c, 0, 57, 0
4, 99464, Note_on_c, 0, 51, 0
4, 99470, Note_on_c, 0, 67, 0
4, 99478, Note_on_c, 0, 63, 0
4, 100190, Note_on_c, 0, 84, 91
4, 100326, Note_on_c, 0, 84, 0
4, 100346, Note_on_c, 0, 81, 44
4, 100400, Note_on_c, 0, 81, 0
4, 100470, Note_on_c, 0, 82, 88
4, 100628, Note_on_c, 0, 82, 0
4, 100630, Note_on_c, 0, 78, 43
4, 100738, Note_on_c, 0, 78, 0
4, 100752, Note_on_c, 0, 81, 74
4, 100826, Note_on_c, 0, 81, 0
4, 100870, Note_on_c, 0, 79, 69
4, 100970, Note_on_c, 0, 79, 0
4, 100994, Note_on_c, 0, 62, 22
4, 101000, Note_on_c, 0, 74, 46
4, 101002, Note_on_c, 0, 58, 25
4, 101112, Note_on_c, 0, 58, 0
4, 101126, Note_on_c, 0, 62, 0
4, 101170, Note_on_c, 0, 74, 0
4, 101238, Note_on_c, 0, 70, 67
4, 101300, Note_on_c, 0, 70, 0
4, 101366, Note_on_c, 0, 58, 26
4, 101372, Note_on_c, 0, 67, 30
4, 101374, Note_on_c, 0, 62, 31
4, 101376, Note_on_c, 0, 63, 31
4, 101378, Note_on_c, 0, 71, 54
4, 101482, Note_on_c, 0, 71, 0
4, 101496, Note_on_c, 0, 74, 58
4, 101570, Note_on_c, 0, 74, 0
4, 101620, Note_on_c, 0, 72, 71
4, 101828, Note_on_c, 0, 67, 0
4, 101850, Control_c, 0, 64, 127
4, 101860, Note_on_c, 0, 62, 0
4, 102018, Note_on_c, 0, 63, 0
4, 102060, Note_on_c, 0, 58, 0
4, 102102, Control_c, 0, 64, 0
4, 102108, Note_on_c, 0, 72, 0
4, 102128, Note_on_c, 0, 63, 25
4, 102134, Note_on_c, 0, 65, 42
4, 102138, Note_on_c, 0, 57, 26
4, 102238, Note_on_c, 0, 66, 58
4, 102246, Note_on_c, 0, 65, 0
4, 102304, Note_on_c, 0, 66, 0
4, 102332, Note_on_c, 0, 68, 55
4, 102390, Note_on_c, 0, 68, 0
4, 102426, Note_on_c, 0, 69, 57
4, 102502, Note_on_c, 0, 69, 0
4, 102520, Note_on_c, 0, 67, 22
4, 102528, Note_on_c, 0, 71, 54
4, 102546, Note_on_c, 0, 67, 0
4, 102584, Note_on_c, 0, 71, 0
4, 102592, Note_on_c, 0, 63, 0
4, 102596, Note_on_c, 0, 57, 0
4, 102624, Note_on_c, 0, 72, 54
4, 102688, Note_on_c, 0, 72, 0
4, 102714, Note_on_c, 0, 74, 51
4, 102716, Control_c, 0, 64, 127
4, 102776, Note_on_c, 0, 74, 0
4, 102810, Note_on_c, 0, 75, 62
4, 102864, Control_c, 0, 64, 0
4, 102888, Note_on_c, 0, 75, 0
4, 102894, Note_on_c, 0, 60, 40
4, 102900, Note_on_c, 0, 76, 50
4, 102902, Note_on_c, 0, 50, 33
4, 102902, Note_on_c, 0, 57, 27
4, 102998, Note_on_c, 0, 76, 0
4, 103006, Note_on_c, 0, 79, 71
4, 103066, Note_on_c, 0, 79, 0
4, 103098, Note_on_c, 0, 77, 54
4, 103162, Note_on_c, 0, 77, 0
4, 103204, Note_on_c, 0, 73, 35
4, 103254, Note_on_c, 0, 73, 0
4, 103266, Note_on_c, 0, 50, 0
4, 103282, Note_on_c, 0, 57, 0
4, 103290, Note_on_c, 0, 76, 68
4, 103314, Note_on_c, 0, 60, 0
4, 103394, Note_on_c, 0, 76, 0
4, 103488, Note_on_c, 0, 74, 80
4, 103528, Control_c, 0, 64, 127
4, 103558, Note_on_c, 0, 74, 0
4, 103624, Control_c, 0, 64, 0
4, 103670, Note_on_c, 0, 64, 40
4, 103672, Note_on_c, 0, 72, 68
4, 103674, Note_on_c, 0, 59, 43
4, 103690, Note_on_c, 0, 64, 0
4, 103696, Note_on_c, 0, 59, 0
4, 103742, Note_on_c, 0, 72, 0
4, 103806, Note_on_c, 0, 70, 79
4, 103832, Note_on_c, 0, 71, 77
4, 103834, Note_on_c, 0, 70, 0
4, 103902, Note_on_c, 0, 71, 0
4, 103928, Note_on_c, 0, 67, 62
4, 104004, Note_on_c, 0, 67, 0
4, 104036, Note_on_c, 0, 59, 27
4, 104046, Note_on_c, 0, 53, 28
4, 104058, Note_on_c, 0, 59, 0
4, 104072, Note_on_c, 0, 62, 17
4, 104080, Note_on_c, 0, 53, 0
4, 104168, Note_on_c, 0, 62, 0
4, 104168, Note_on_c, 0, 61, 40
4, 104184, Note_on_c, 0, 61, 0
4, 104280, Note_on_c, 0, 62, 53
4, 104388, Note_on_c, 0, 62, 0
4, 104406, Note_on_c, 0, 58, 38
4, 104410, Note_on_c, 0, 65, 66
4, 104428, Note_on_c, 0, 48, 31
4, 104434, Note_on_c, 0, 55, 26
4, 104464, Note_on_c, 0, 55, 0
4, 104490, Note_on_c, 0, 58, 0
4, 104494, Note_on_c, 0, 65, 0
4, 104536, Note_on_c, 0, 62, 35
4, 104600, Note_on_c, 0, 62, 0
4, 104614, Note_on_c, 0, 48, 0
4, 104650, Note_on_c, 0, 63, 74
4, 104768, Note_on_c, 0, 63, 0
4, 104794, Note_on_c, 0, 59, 42
4, 104864, Note_on_c, 0, 59, 0
4, 104910, Note_on_c, 0, 62, 54
4, 104998, Note_on_c, 0, 62, 0
4, 105038, Note_on_c, 0, 60, 70
4, 105088, Control_c, 0, 64, 127
4, 105124, Control_c, 0, 64, 0
4, 105316, Note_on_c, 0, 55, 51
4, 105370, Note_on_c, 0, 55, 0
4, 105382, Note_on_c, 0, 60, 0
4, 105436, Note_on_c, 0, 56, 54
4, 105454, Note_on_c, 0, 51, 35
4, 105490, Note_on_c, 0, 51, 0
4, 105516, Note_on_c, 0, 56, 0
4, 105580, Note_on_c, 0, 63, 62
4, 105690, Note_on_c, 0, 63, 0
4, 105708, Note_on_c, 0, 60, 44
4, 105754, Control_c, 0, 64, 127
4, 105792, Note_on_c, 0, 60, 0
4, 105834, Note_on_c, 0, 62, 79
4, 105836, Control_c, 0, 64, 0
4, 105844, Note_on_c, 0, 60, 36
4, 105856, Note_on_c, 0, 56, 25
4, 105922, Note_on_c, 0, 62, 0
4, 106100, Note_on_c, 0, 63, 33
4, 106104, Note_on_c, 0, 70, 83
4, 106228, Note_on_c, 0, 70, 0
4, 106228, Note_on_c, 0, 68, 67
4, 106316, Note_on_c, 0, 68, 0
4, 106354, Note_on_c, 0, 67, 52
4, 106384, Note_on_c, 0, 67, 0
4, 106400, Note_on_c, 0, 63, 0
4, 106424, Note_on_c, 0, 56, 0
4, 106456, Note_on_c, 0, 60, 0
4, 106502, Note_on_c, 0, 68, 42
4, 106518, Note_on_c, 0, 68, 0
4, 106604, Note_on_c, 0, 56, 53
4, 106608, Note_on_c, 0, 67, 49
4, 106612, Note_on_c, 0, 75, 81
4, 106614, Note_on_c, 0, 62, 45
4, 106734, Note_on_c, 0, 75, 0
4, 106772, Note_on_c, 0, 74, 67
4, 106834, Note_on_c, 0, 74, 0
4, 106840, Note_on_c, 0, 67, 0
4, 106942, Note_on_c, 0, 62, 0
4, 106960, Note_on_c, 0, 56, 0
4, 107054, Note_on_c, 0, 76, 78
4, 107088, Note_on_c, 0, 76, 0
4, 107168, Note_on_c, 0, 56, 39
4, 107168, Note_on_c, 0, 66, 50
4, 107172, Note_on_c, 0, 62, 25
4, 107174, Note_on_c, 0, 82, 78
4, 107270, Note_on_c, 0, 82, 0
4, 107300, Note_on_c, 0, 79, 57
4, 107326, Control_c, 0, 64, 127
4, 107352, Note_on_c, 0, 62, 0
4, 107378, Note_on_c, 0, 66, 0
4, 107442, Note_on_c, 0, 56, 0
4, 107470, Control_c, 0, 64, 0
4, 107486, Note_on_c, 0, 79, 0
4, 107498, Note_on_c, 0, 65, 34
4, 107498, Note_on_c, 0, 55, 35
4, 107502, Note_on_c, 0, 62, 30
4, 107506, Note_on_c, 0, 60, 45
4, 107516, Note_on_c, 0, 77, 35
4, 107742, Note_on_c, 0, 77, 0
4, 107828, Note_on_c, 0, 65, 0
4, 107868, Note_on_c, 0, 62, 0
4, 107870, Note_on_c, 0, 77, 34
4, 107878, Note_on_c, 0, 60, 0
4, 107938, Note_on_c, 0, 77, 0
4, 107942, Note_on_c, 0, 55, 0
4, 107942, Control_c, 0, 64, 127
4, 107948, Control_c, 0, 64, 0
4, 107964, Note_on_c, 0, 82, 42
4, 108004, Note_on_c, 0, 82, 0
4, 108050, Note_on_c, 0, 84, 72
4, 108110, Control_c, 0, 64, 127
4, 108112, Note_on_c, 0, 84, 0
4, 108146, Note_on_c, 0, 89, 81
4, 108218, Control_c, 0, 64, 0
4, 108220, Note_on_c, 0, 89, 0
4, 108250, Note_on_c, 0, 94, 75
4, 108252, Note_on_c, 0, 54, 44
4, 108252, Note_on_c, 0, 58, 31
4, 108254, Note_on_c, 0, 65, 34
4, 108256, Note_on_c, 0, 60, 45
4, 108330, Note_on_c, 0, 94, 0
4, 108354, Note_on_c, 0, 96, 66
4, 108376, Note_on_c, 0, 84, 17
4, 108402, Note_on_c, 0, 84, 0
4, 108402, Note_on_c, 0, 96, 0
4, 108462, Note_on_c, 0, 94, 47
4, 108510, Note_on_c, 0, 94, 0
4, 108516, Note_on_c, 0, 65, 0
4, 108522, Control_c, 0, 64, 127
4, 108536, Note_on_c, 0, 60, 0
4, 108550, Note_on_c, 0, 96, 62
4, 108562, Note_on_c, 0, 84, 39
4, 108568, Note_on_c, 0, 58, 0
4, 108604, Note_on_c, 0, 96, 0
4, 108608, Control_c, 0, 64, 0
4, 108612, Note_on_c, 0, 84, 0
4, 108658, Note_on_c, 0, 94, 54
4, 108666, Note_on_c, 0, 65, 28
4, 108670, Note_on_c, 0, 60, 35
4, 108670, Note_on_c, 0, 58, 18
4, 108732, Control_c, 0, 64, 127
4, 108738, Note_on_c, 0, 94, 0
4, 108820, Note_on_c, 0, 65, 0
4, 108838, Note_on_c, 0, 60, 0
4, 108874, Note_on_c, 0, 58, 0
4, 108888, Note_on_c, 0, 54, 0
4, 108988, Control_c, 0, 64, 0
4, 109034, Note_on_c, 0, 64, 49
4, 109036, Note_on_c, 0, 60, 47
4, 109036, Note_on_c, 0, 57, 57
4, 109038, Note_on_c, 0, 93, 88
4, 109038, Note_on_c, 0, 53, 35
4, 109040, Note_on_c, 0, 81, 80
4, 109122, Note_on_c, 0, 64, 0
4, 109130, Note_on_c, 0, 60, 0
4, 109136, Note_on_c, 0, 93, 0
4, 109138, Note_on_c, 0, 81, 0
4, 109146, Note_on_c, 0, 53, 0
4, 109154, Note_on_c, 0, 57, 0
4, 109304, Note_on_c, 0, 59, 68
4, 109306, Note_on_c, 0, 53, 74
4, 109306, Note_on_c, 0, 64, 74
4, 109308, Note_on_c, 0, 94, 90
4, 109308, Note_on_c, 0, 82, 90
4, 109368, Control_c, 0, 64, 127
4, 109414, Note_on_c, 0, 82, 0
4, 109414, Note_on_c, 0, 94, 0
4, 109420, Note_on_c, 0, 64, 0
4, 109424, Note_on_c, 0, 53, 0
4, 109440, Note_on_c, 0, 59, 0
4, 109462, Control_c, 0, 64, 0
4, 109474, Note_on_c, 0, 53, 56
4, 109476, Note_on_c, 0, 79, 55
4, 109478, Note_on_c, 0, 59, 55
4, 109480, Note_on_c, 0, 91, 57
4, 109480, Note_on_c, 0, 64, 48
4, 109488, Note_on_c, 0, 90, 39
4, 109498, Note_on_c, 0, 81, 26
4, 109508, Note_on_c, 0, 90, 0
4, 109514, Note_on_c, 0, 81, 0
4, 109604, Control_c, 0, 64, 127
4, 109638, Note_on_c, 0, 53, 0
4, 109642, Note_on_c, 0, 59, 0
4, 109682, Note_on_c, 0, 91, 0
4, 109688, Note_on_c, 0, 64, 0
4, 109728, Note_on_c, 0, 79, 0
4, 109794, Control_c, 0, 64, 0
4, 109820, Note_on_c, 0, 63, 39
4, 109822, Note_on_c, 0, 58, 34
4, 109822, Note_on_c, 0, 67, 34
4, 109824, Note_on_c, 0, 89, 59
4, 109826, Note_on_c, 0, 62, 34
4, 109834, Note_on_c, 0, 77, 37
4, 109918, Control_c, 0, 64, 127
4, 109946, Note_on_c, 0, 89, 0
4, 109980, Note_on_c, 0, 62, 0
4, 110002, Note_on_c, 0, 67, 0
4, 110020, Note_on_c, 0, 77, 0
4, 110044, Note_on_c, 0, 63, 0
4, 110056, Note_on_c, 0, 58, 0
4, 110148, Control_c, 0, 64, 0
4, 110178, Note_on_c, 0, 66, 40
4, 110180, Note_on_c, 0, 57, 37
4, 110182, Note_on_c, 0, 87, 56
4, 110182, Note_on_c, 0, 63, 35
4, 110186, Note_on_c, 0, 75, 43
4, 110192, Note_on_c, 0, 82, 44
4, 110216, Note_on_c, 0, 61, 19
4, 110258, Control_c, 0, 64, 127
4, 110302, Note_on_c, 0, 57, 0
4, 110338, Note_on_c, 0, 66, 0
4, 110352, Note_on_c, 0, 75, 0
4, 110354, Note_on_c, 0, 87, 0
4, 110360, Note_on_c, 0, 82, 0
4, 110368, Note_on_c, 0, 63, 0
4, 110384, Note_on_c, 0, 61, 0
4, 110554, Control_c, 0, 64, 0
4, 110576, Note_on_c, 0, 62, 26
4, 110578, Note_on_c, 0, 65, 36
4, 110584, Note_on_c, 0, 55, 32
4, 110586, Note_on_c, 0, 74, 46
4, 110586, Note_on_c, 0, 86, 56
4, 110590, Note_on_c, 0, 60, 37
4, 110690, Note_on_c, 0, 74, 0
4, 110694, Control_c, 0, 64, 127
4, 110736, Note_on_c, 0, 86, 0
4, 110836, Note_on_c, 0, 62, 0
4, 110876, Note_on_c, 0, 65, 0
4, 110944, Note_on_c, 0, 62, 17
4, 110946, Control_c, 0, 64, 0
4, 110950, Note_on_c, 0, 84, 66
4, 110966, Note_on_c, 0, 85, 67
4, 110968, Note_on_c, 0, 65, 40
4, 111002, Note_on_c, 0, 86, 72
4, 111004, Note_on_c, 0, 85, 0
4, 111064, Note_on_c, 0, 84, 0
4, 111064, Note_on_c, 0, 86, 0
4, 111088, Note_on_c, 0, 77, 84
4, 111090, Note_on_c, 0, 89, 90
4, 111170, Control_c, 0, 64, 127
4, 111198, Note_on_c, 0, 62, 0
4, 111216, Note_on_c, 0, 55, 0
4, 111222, Note_on_c, 0, 60, 0
4, 111276, Note_on_c, 0, 65, 0
4, 111314, Note_on_c, 0, 89, 0
4, 111334, Note_on_c, 0, 77, 0
4, 111334, Control_c, 0, 64, 0
4, 111350, Note_on_c, 0, 85, 45
4, 111354, Note_on_c, 0, 67, 33
4, 111354, Note_on_c, 0, 63, 39
4, 111354, Note_on_c, 0, 57, 36
4, 111368, Note_on_c, 0, 85, 0
4, 111370, Note_on_c, 0, 86, 62
4, 111452, Note_on_c, 0, 86, 0
4, 111476, Note_on_c, 0, 77, 69
4, 111500, Control_c, 0, 64, 127
4, 111640, Note_on_c, 0, 67, 0
4, 111654, Note_on_c, 0, 63, 0
4, 111716, Note_on_c, 0, 77, 0
4, 111716, Control_c, 0, 64, 0
4, 111722, Note_on_c, 0, 85, 64
4, 111724, Note_on_c, 0, 63, 39
4, 111732, Note_on_c, 0, 67, 42
4, 111738, Note_on_c, 0, 84, 24
4, 111740, Note_on_c, 0, 85, 0
4, 111742, Note_on_c, 0, 86, 76
4, 111762, Note_on_c, 0, 84, 0
4, 111822, Note_on_c, 0, 86, 0
4, 111830, Control_c, 0, 64, 127
4, 111846, Note_on_c, 0, 89, 88
4, 111850, Note_on_c, 0, 77, 78
4, 111974, Note_on_c, 0, 67, 0
4, 111976, Note_on_c, 0, 57, 0
4, 112030, Note_on_c, 0, 63, 0
4, 112072, Note_on_c, 0, 77, 0
4, 112092, Note_on_c, 0, 89, 0
4, 112096, Control_c, 0, 64, 0
4, 112112, Note_on_c, 0, 62, 29
4, 112116, Note_on_c, 0, 65, 32
4, 112120, Note_on_c, 0, 86, 62
4, 112124, Note_on_c, 0, 55, 32
4, 112126, Note_on_c, 0, 60, 35
4, 112204, Control_c, 0, 64, 127
4, 112244, Note_on_c, 0, 77, 55
4, 112314, Note_on_c, 0, 86, 0
4, 112372, Note_on_c, 0, 62, 0
4, 112444, Note_on_c, 0, 65, 0
4, 112452, Note_on_c, 0, 77, 0
4, 112490, Control_c, 0, 64, 0
4, 112494, Note_on_c, 0, 65, 46
4, 112494, Note_on_c, 0, 87, 84
4, 112498, Note_on_c, 0, 62, 4
4, 112604, Control_c, 0, 64, 127
4, 112620, Note_on_c, 0, 78, 68
4, 112624, Note_on_c, 0, 90, 69
4, 112628, Note_on_c, 0, 87, 0
4, 112646, Note_on_c, 0, 65, 0
4, 112660, Note_on_c, 0, 62, 0
4, 112660, Note_on_c, 0, 55, 0
4, 112672, Note_on_c, 0, 60, 0
4, 112834, Note_on_c, 0, 78, 0
4, 112866, Control_c, 0, 64, 0
4, 112868, Note_on_c, 0, 87, 60
4, 112870, Note_on_c, 0, 67, 30
4, 112874, Note_on_c, 0, 58, 26
4, 112874, Note_on_c, 0, 63, 38
4, 112974, Note_on_c, 0, 90, 0
4, 112978, Control_c, 0, 64, 127
4, 113000, Note_on_c, 0, 78, 38
4, 113062, Note_on_c, 0, 67, 0
4, 113090, Note_on_c, 0, 63, 0
4, 113108, Note_on_c, 0, 58, 0
4, 113214, Note_on_c, 0, 78, 0
4, 113234, Note_on_c, 0, 87, 0
4, 113240, Control_c, 0, 64, 0
4, 113254, Note_on_c, 0, 66, 42
4, 113254, Note_on_c, 0, 56, 42
4, 113268, Note_on_c, 0, 62, 20
4, 113436, Control_c, 0, 64, 127
4, 113458, Note_on_c, 0, 62, 0
4, 113500, Note_on_c, 0, 56, 0
4, 113550, Note_on_c, 0, 66, 0
4, 113604, Control_c, 0, 64, 0
4, 113622, Note_on_c, 0, 67, 35
4, 113624, Note_on_c, 0, 63, 46
4, 113632, Note_on_c, 0, 58, 23
4, 113632, Note_on_c, 0, 86, 80
4, 113634, Note_on_c, 0, 62, 26
4, 113636, Note_on_c, 0, 74, 76
4, 113660, Note_on_c, 0, 62, 0
4, 113660, Note_on_c, 0, 67, 0
4, 113666, Note_on_c, 0, 58, 0
4, 113678, Note_on_c, 0, 63, 0
4, 113700, Note_on_c, 0, 74, 0
4, 113714, Note_on_c, 0, 86, 0
4, 113748, Note_on_c, 0, 84, 68
4, 113810, Note_on_c, 0, 84, 0
4, 113840, Note_on_c, 0, 79, 61
4, 113926, Note_on_c, 0, 79, 0
4, 113942, Note_on_c, 0, 77, 58
4, 113962, Note_on_c, 0, 67, 22
4, 113966, Note_on_c, 0, 63, 30
4, 114030, Note_on_c, 0, 63, 0
4, 114030, Note_on_c, 0, 67, 0
4, 114030, Note_on_c, 0, 77, 0
4, 114038, Note_on_c, 0, 75, 58
4, 114118, Note_on_c, 0, 75, 0
4, 114158, Note_on_c, 0, 74, 26
4, 114194, Note_on_c, 0, 74, 0
4, 114228, Note_on_c, 0, 77, 71
4, 114314, Control_c, 0, 64, 127
4, 114322, Note_on_c, 0, 75, 68
4, 114324, Control_c, 0, 64, 0
4, 114340, Note_on_c, 0, 77, 0
4, 114358, Note_on_c, 0, 63, 32
4, 114364, Note_on_c, 0, 67, 18
4, 114380, Note_on_c, 0, 57, 24
4, 114406, Note_on_c, 0, 75, 0
4, 114420, Note_on_c, 0, 67, 0
4, 114434, Note_on_c, 0, 74, 34
4, 114470, Note_on_c, 0, 63, 0
4, 114486, Note_on_c, 0, 57, 0
4, 114528, Note_on_c, 0, 74, 0
4, 114528, Note_on_c, 0, 72, 56
4, 114598, Note_on_c, 0, 72, 0
4, 114632, Note_on_c, 0, 71, 24
4, 114682, Note_on_c, 0, 71, 0
4, 114690, Control_c, 0, 64, 127
4, 114756, Note_on_c, 0, 71, 19
4, 114784, Note_on_c, 0, 63, 27
4, 114786, Control_c, 0, 64, 0
4, 114794, Note_on_c, 0, 71, 0
4, 114808, Note_on_c, 0, 63, 0
4, 114830, Note_on_c, 0, 67, 26
4, 114894, Note_on_c, 0, 67, 0
4, 115018, Note_on_c, 0, 66, 25
4, 115102, Note_on_c, 0, 66, 0
4, 115108, Note_on_c, 0, 65, 72
4, 115110, Control_c, 0, 64, 127
4, 115150, Control_c, 0, 64, 0
4, 115186, Note_on_c, 0, 65, 0
4, 115204, Note_on_c, 0, 58, 32
4, 115226, Note_on_c, 0, 62, 57
4, 115230, Note_on_c, 0, 50, 24
4, 115238, Note_on_c, 0, 58, 0
4, 115250, Note_on_c, 0, 50, 0
4, 115390, Note_on_c, 0, 62, 0
4, 115410, Note_on_c, 0, 55, 56
4, 115494, Note_on_c, 0, 55, 0
4, 115548, Note_on_c, 0, 55, 62
4, 115750, Note_on_c, 0, 55, 0
4, 115794, Note_on_c, 0, 55, 71
4, 115904, Note_on_c, 0, 55, 0
4, 115940, Note_on_c, 0, 55, 70
4, 116076, Note_on_c, 0, 55, 0
4, 116134, Note_on_c, 0, 56, 21
4, 116208, Note_on_c, 0, 56, 0
4, 116224, Note_on_c, 0, 55, 52
4, 116286, Note_on_c, 0, 55, 0
4, 116296, Note_on_c, 0, 53, 48
4, 116342, Note_on_c, 0, 53, 0
4, 116378, Note_on_c, 0, 55, 71
4, 116452, Note_on_c, 0, 55, 0
4, 116484, Note_on_c, 0, 50, 58
4, 116566, Note_on_c, 0, 50, 0
4, 117106, Note_on_c, 0, 62, 91
4, 117186, Note_on_c, 0, 62, 0
4, 117212, Note_on_c, 0, 59, 35
4, 117266, Note_on_c, 0, 59, 0
4, 117296, Note_on_c, 0, 60, 51
4, 117354, Note_on_c, 0, 60, 0
4, 117398, Note_on_c, 0, 62, 62
4, 117454, Note_on_c, 0, 62, 0
4, 117492, Note_on_c, 0, 63, 57
4, 117586, Note_on_c, 0, 63, 0
4, 117878, Note_on_c, 0, 41, 32
4, 117884, Note_on_c, 0, 57, 44
4, 117920, Note_on_c, 0, 41, 0
4, 117922, Note_on_c, 0, 57, 0
4, 118006, Note_on_c, 0, 69, 38
4, 118026, Note_on_c, 0, 69, 0
4, 118126, Note_on_c, 0, 72, 87
4, 118184, Note_on_c, 0, 72, 0
4, 118248, Note_on_c, 0, 79, 80
4, 118250, Note_on_c, 0, 68, 84
4, 118252, Note_on_c, 0, 67, 66
4, 118256, Note_on_c, 0, 72, 74
4, 118262, Note_on_c, 0, 75, 42
4, 118318, Note_on_c, 0, 79, 0
4, 118334, Note_on_c, 0, 68, 0
4, 118340, Note_on_c, 0, 72, 0
4, 118348, Note_on_c, 0, 67, 0
4, 118352, Note_on_c, 0, 75, 0
4, 118352, Note_on_c, 0, 66, 39
4, 118468, Note_on_c, 0, 66, 0
4, 118488, Note_on_c, 0, 77, 60
4, 118488, Note_on_c, 0, 68, 62
4, 118494, Note_on_c, 0, 72, 67
4, 118496, Note_on_c, 0, 65, 57
4, 118536, Note_on_c, 0, 77, 0
4, 118544, Note_on_c, 0, 72, 0
4, 118556, Note_on_c, 0, 65, 0
4, 118570, Note_on_c, 0, 68, 0
4, 118626, Note_on_c, 0, 75, 69
4, 118626, Note_on_c, 0, 63, 49
4, 118626, Note_on_c, 0, 68, 43
4, 118630, Note_on_c, 0, 65, 45
4, 118648, Note_on_c, 0, 65, 0
4, 118658, Note_on_c, 0, 63, 0
4, 118664, Note_on_c, 0, 75, 0
4, 118670, Note_on_c, 0, 68, 0
4, 118882, Note_on_c, 0, 46, 34
4, 118914, Note_on_c, 0, 46, 0
4, 118938, Control_c, 0, 64, 127
4, 118960, Control_c, 0, 64, 0
4, 119008, Note_on_c, 0, 66, 70
4, 119012, Note_on_c, 0, 74, 71
4, 119012, Note_on_c, 0, 62, 74
4, 119020, Note_on_c, 0, 56, 51
4, 119022, Note_on_c, 0, 71, 39
4, 119028, Note_on_c, 0, 72, 42
4, 119098, Note_on_c, 0, 67, 6
4, 119114, Note_on_c, 0, 66, 0
4, 119126, Note_on_c, 0, 71, 0
4, 119130, Note_on_c, 0, 62, 0
4, 119144, Note_on_c, 0, 67, 0
4, 119150, Note_on_c, 0, 74, 0
4, 119162, Note_on_c, 0, 72, 0
4, 119172, Note_on_c, 0, 56, 0
4, 119396, Note_on_c, 0, 66, 61
4, 119400, Note_on_c, 0, 62, 64
4, 119408, Note_on_c, 0, 56, 53
4, 119408, Note_on_c, 0, 71, 53
4, 119466, Note_on_c, 0, 67, 33
4, 119476, Note_on_c, 0, 66, 0
4, 119534, Note_on_c, 0, 71, 0
4, 119564, Note_on_c, 0, 62, 0
4, 119596, Note_on_c, 0, 56, 0
4, 119614, Note_on_c, 0, 67, 0
4, 119650, Note_on_c, 0, 70, 71
4, 119652, Note_on_c, 0, 65, 66
4, 119656, Note_on_c, 0, 60, 66
4, 119658, Note_on_c, 0, 55, 59
4, 119718, Note_on_c, 0, 70, 0
4, 119730, Note_on_c, 0, 65, 0
4, 119744, Note_on_c, 0, 60, 0
4, 119788, Note_on_c, 0, 55, 0
4, 119802, Note_on_c, 0, 69, 27
4, 119802, Note_on_c, 0, 54, 32
4, 119814, Note_on_c, 0, 59, 20
4, 119822, Note_on_c, 0, 64, 29
4, 119852, Note_on_c, 0, 69, 0
4, 119854, Note_on_c, 0, 59, 0
4, 119880, Note_on_c, 0, 64, 0
4, 119916, Note_on_c, 0, 70, 62
4, 119922, Note_on_c, 0, 60, 58
4, 119928, Note_on_c, 0, 55, 63
4, 119928, Note_on_c, 0, 65, 50
4, 119944, Note_on_c, 0, 54, 0
4, 120076, Note_on_c, 0, 65, 0
4, 120092, Note_on_c, 0, 60, 0
4, 120100, Note_on_c, 0, 70, 0
4, 120100, Note_on_c, 0, 55, 0
4, 120154, Note_on_c, 0, 70, 59
4, 120164, Note_on_c, 0, 55, 49
4, 120164, Note_on_c, 0, 60, 55
4, 120176, Note_on_c, 0, 65, 46
4, 120218, Note_on_c, 0, 60, 0
4, 120234, Note_on_c, 0, 65, 0
4, 120250, Note_on_c, 0, 70, 0
4, 120288, Note_on_c, 0, 55, 0
4, 120292, Note_on_c, 0, 54, 33
4, 120296, Note_on_c, 0, 68, 29
4, 120338, Note_on_c, 0, 68, 0
4, 120346, Note_on_c, 0, 54, 0
4, 120366, Control_c, 0, 64, 127
4, 120386, Control_c, 0, 64, 0
4, 120410, Note_on_c, 0, 54, 50
4, 120412, Note_on_c, 0, 60, 68
4, 120412, Note_on_c, 0, 44, 51
4, 120412, Note_on_c, 0, 65, 57
4, 120414, Note_on_c, 0, 72, 54
4, 120538, Note_on_c, 0, 60, 0
4, 120542, Note_on_c, 0, 65, 0
4, 120548, Note_on_c, 0, 54, 0
4, 120552, Note_on_c, 0, 44, 0
4, 120554, Note_on_c, 0, 72, 0
4, 120810, Note_on_c, 0, 44, 36
4, 120818, Note_on_c, 0, 86, 91
4, 120842, Note_on_c, 0, 44, 0
4, 120894, Note_on_c, 0, 86, 0
4, 120950, Note_on_c, 0, 72, 56
4, 121032, Note_on_c, 0, 72, 0
4, 121094, Note_on_c, 0, 72, 37
4, 121126, Note_on_c, 0, 72, 0
4, 121254, Note_on_c, 0, 60, 50
4, 121268, Note_on_c, 0, 57, 30
4, 121272, Note_on_c, 0, 60, 0
4, 121288, Note_on_c, 0, 57, 0
4, 121486, Note_on_c, 0, 83, 92
4, 121490, Note_on_c, 0, 71, 84
4, 121574, Note_on_c, 0, 83, 0
4, 121616, Note_on_c, 0, 79, 32
4, 121628, Note_on_c, 0, 71, 0
4, 121640, Control_c, 0, 64, 127
4, 121670, Control_c, 0, 64, 0
4, 121688, Note_on_c, 0, 79, 0
4, 121720, Note_on_c, 0, 82, 70
4, 121722, Note_on_c, 0, 64, 45
4, 121728, Note_on_c, 0, 70, 71
4, 121730, Note_on_c, 0, 59, 38
4, 121740, Note_on_c, 0, 53, 29
4, 121776, Note_on_c, 0, 53, 0
4, 121776, Note_on_c, 0, 64, 0
4, 121780, Note_on_c, 0, 59, 0
4, 121968, Control_c, 0, 64, 127
4, 122036, Note_on_c, 0, 82, 0
4, 122054, Note_on_c, 0, 70, 0
4, 122076, Control_c, 0, 64, 0
4, 122102, Note_on_c, 0, 67, 40
4, 122104, Note_on_c, 0, 81, 71
4, 122112, Note_on_c, 0, 63, 37
4, 122116, Note_on_c, 0, 69, 58
4, 122120, Note_on_c, 0, 57, 35
4, 122124, Note_on_c, 0, 67, 0
4, 122196, Note_on_c, 0, 81, 0
4, 122232, Note_on_c, 0, 69, 0
4, 122232, Note_on_c, 0, 57, 0
4, 122246, Note_on_c, 0, 63, 0
4, 122258, Note_on_c, 0, 75, 35
4, 122278, Note_on_c, 0, 75, 0
4, 122348, Note_on_c, 0, 80, 74
4, 122354, Note_on_c, 0, 68, 73
4, 122356, Note_on_c, 0, 66, 57
4, 122358, Note_on_c, 0, 56, 51
4, 122360, Note_on_c, 0, 63, 48
4, 122498, Control_c, 0, 64, 127
4, 122560, Note_on_c, 0, 80, 0
4, 122568, Note_on_c, 0, 66, 0
4, 122578, Note_on_c, 0, 68, 0
4, 122620, Note_on_c, 0, 79, 60
4, 122636, Note_on_c, 0, 63, 0
4, 122636, Note_on_c, 0, 67, 45
4, 122690, Note_on_c, 0, 56, 0
4, 122696, Note_on_c, 0, 67, 0
4, 122718, Note_on_c, 0, 79, 0
4, 122754, Note_on_c, 0, 75, 25
4, 122800, Control_c, 0, 64, 0
4, 122804, Note_on_c, 0, 75, 0
4, 122832, Note_on_c, 0, 62, 35
4, 122842, Note_on_c, 0, 77, 66
4, 122848, Note_on_c, 0, 65, 55
4, 122850, Note_on_c, 0, 55, 35
4, 122864, Note_on_c, 0, 62, 0
4, 122898, Note_on_c, 0, 55, 0
4, 123030, Note_on_c, 0, 65, 0
4, 123058, Note_on_c, 0, 77, 0
4, 123094, Note_on_c, 0, 74, 60
4, 123098, Note_on_c, 0, 65, 36
4, 123100, Note_on_c, 0, 62, 57
4, 123132, Note_on_c, 0, 65, 0
4, 123150, Note_on_c, 0, 74, 0
4, 123158, Note_on_c, 0, 62, 0
4, 123250, Note_on_c, 0, 70, 35
4, 123314, Note_on_c, 0, 70, 0
4, 123496, Note_on_c, 0, 68, 83
4, 123496, Note_on_c, 0, 66, 53
4, 123502, Note_on_c, 0, 62, 32
4, 123504, Note_on_c, 0, 56, 36
4, 123582, Note_on_c, 0, 66, 0
4, 123590, Note_on_c, 0, 68, 0
4, 123624, Note_on_c, 0, 62, 0
4, 123624, Note_on_c, 0, 70, 48
4, 123662, Note_on_c, 0, 68, 44
4, 123702, Note_on_c, 0, 70, 0
4, 123730, Note_on_c, 0, 68, 0
4, 123736, Note_on_c, 0, 67, 24
4, 123738, Note_on_c, 0, 56, 0
4, 123804, Note_on_c, 0, 67, 0
4, 123848, Note_on_c, 0, 66, 69
4, 123904, Note_on_c, 0, 66, 0
4, 123946, Note_on_c, 0, 56, 45
4, 123952, Note_on_c, 0, 65, 64
4, 124002, Note_on_c, 0, 65, 0
4, 124048, Note_on_c, 0, 56, 0
4, 124052, Note_on_c, 0, 62, 56
4, 124098, Note_on_c, 0, 62, 0
4, 124144, Note_on_c, 0, 63, 64
4, 124202, Note_on_c, 0, 63, 0
4, 124222, Note_on_c, 0, 65, 72
4, 124294, Note_on_c, 0, 65, 0
4, 124322, Note_on_c, 0, 62, 69
4, 124356, Note_on_c, 0, 51, 35
4, 124378, Note_on_c, 0, 62, 0
4, 124406, Note_on_c, 0, 51, 0
4, 124410, Note_on_c, 0, 58, 50
4, 124494, Note_on_c, 0, 58, 0
4, 124634, Note_on_c, 0, 58, 64
4, 124702, Note_on_c, 0, 58, 0
4, 124760, Note_on_c, 0, 58, 59
4, 125032, Note_on_c, 0, 55, 53
4, 125056, Note_on_c, 0, 48, 19
4, 125058, Note_on_c, 0, 55, 0
4, 125064, Note_on_c, 0, 58, 0
4, 125088, Note_on_c, 0, 48, 0
4, 125166, Note_on_c, 0, 58, 63
4, 125374, Note_on_c, 0, 58, 0
4, 125538, Note_on_c, 0, 58, 72
4, 125808, Note_on_c, 0, 55, 40
4, 125812, Note_on_c, 0, 58, 0
4, 125846, Note_on_c, 0, 55, 0
4, 125924, Note_on_c, 0, 58, 62
4, 125926, Note_on_c, 0, 51, 32
4, 125934, Note_on_c, 0, 41, 34
4, 125972, Note_on_c, 0, 41, 0
4, 125998, Note_on_c, 0, 51, 0
4, 126114, Note_on_c, 0, 58, 0
4, 126332, Control_c, 0, 64, 127
4, 126512, Control_c, 0, 64, 0
4, 126542, Control_c, 0, 64, 127
4, 126568, Note_on_c, 0, 56, 61
4, 126570, Note_on_c, 0, 63, 62
4, 126570, Note_on_c, 0, 67, 72
4, 126574, Note_on_c, 0, 60, 66
4, 126574, Note_on_c, 0, 82, 88
4, 126578, Note_on_c, 0, 70, 91
4, 126580, Note_on_c, 0, 75, 84
4, 126650, Note_on_c, 0, 67, 0
4, 126672, Note_on_c, 0, 56, 0
4, 126686, Note_on_c, 0, 82, 0
4, 126692, Note_on_c, 0, 70, 0
4, 126696, Note_on_c, 0, 63, 0
4, 126698, Note_on_c, 0, 75, 0
4, 126704, Note_on_c, 0, 60, 0
4, 126722, Control_c, 0, 64, 0
4, 126730, Note_on_c, 0, 66, 59
4, 126734, Note_on_c, 0, 56, 45
4, 126734, Note_on_c, 0, 62, 38
4, 126740, Note_on_c, 0, 75, 45
4, 126742, Note_on_c, 0, 80, 43
4, 126746, Note_on_c, 0, 68, 35
4, 126834, Control_c, 0, 64, 127
4, 126940, Note_on_c, 0, 62, 0
4, 126962, Note_on_c, 0, 68, 0
4, 126968, Note_on_c, 0, 75, 0
4, 126970, Note_on_c, 0, 66, 0
4, 126972, Note_on_c, 0, 80, 0
4, 127006, Note_on_c, 0, 56, 0
4, 127072, Control_c, 0, 64, 0
4, 127086, Note_on_c, 0, 73, 67
4, 127090, Note_on_c, 0, 67, 60
4, 127098, Note_on_c, 0, 66, 61
4, 127098, Note_on_c, 0, 77, 56
4, 127100, Note_on_c, 0, 62, 42
4, 127102, Note_on_c, 0, 56, 53
4, 127162, Note_on_c, 0, 73, 0
4, 127166, Note_on_c, 0, 74, 49
4, 127190, Control_c, 0, 64, 127
4, 127270, Note_on_c, 0, 66, 0
4, 127308, Note_on_c, 0, 62, 0
4, 127312, Note_on_c, 0, 67, 0
4, 127348, Note_on_c, 0, 74, 0
4, 127374, Note_on_c, 0, 56, 0
4, 127392, Note_on_c, 0, 77, 0
4, 127446, Control_c, 0, 64, 0
4, 127470, Note_on_c, 0, 62, 37
4, 127474, Note_on_c, 0, 74, 41
4, 127476, Note_on_c, 0, 55, 40
4, 127476, Note_on_c, 0, 58, 34
4, 127478, Note_on_c, 0, 70, 38
4, 127480, Note_on_c, 0, 65, 35
4, 127620, Control_c, 0, 64, 127
4, 127730, Note_on_c, 0, 70, 0
4, 127756, Note_on_c, 0, 65, 0
4, 127854, Note_on_c, 0, 74, 0
4, 127854, Note_on_c, 0, 70, 46
4, 127872, Note_on_c, 0, 55, 0
4, 127888, Note_on_c, 0, 62, 0
4, 127898, Note_on_c, 0, 58, 0
4, 127942, Note_on_c, 0, 70, 0
4, 128236, Control_c, 0, 64, 0
4, 128240, Note_on_c, 0, 75, 85
4, 128240, Note_on_c, 0, 87, 84
4, 128244, Note_on_c, 0, 80, 82
4, 128246, Note_on_c, 0, 76, 82
4, 128248, Note_on_c, 0, 84, 73
4, 128266, Note_on_c, 0, 84, 0
4, 128348, Note_on_c, 0, 80, 0
4, 128350, Note_on_c, 0, 87, 0
4, 128370, Note_on_c, 0, 75, 0
4, 128374, Control_c, 0, 64, 127
4, 128380, Note_on_c, 0, 74, 37
4, 128388, Note_on_c, 0, 76, 0
4, 128406, Note_on_c, 0, 74, 0
4, 128406, Note_on_c, 0, 73, 58
4, 128462, Control_c, 0, 64, 0
4, 128480, Note_on_c, 0, 73, 0
4, 128496, Note_on_c, 0, 73, 46
4, 128498, Note_on_c, 0, 76, 53
4, 128498, Note_on_c, 0, 84, 64
4, 128502, Note_on_c, 0, 72, 56
4, 128508, Note_on_c, 0, 79, 37
4, 128536, Note_on_c, 0, 72, 0
4, 128548, Note_on_c, 0, 76, 0
4, 128548, Note_on_c, 0, 79, 0
4, 128550, Note_on_c, 0, 84, 0
4, 128576, Note_on_c, 0, 73, 0
4, 128762, Note_on_c, 0, 70, 76
4, 128764, Note_on_c, 0, 81, 71
4, 128766, Note_on_c, 0, 73, 63
4, 128770, Note_on_c, 0, 76, 57
4, 128772, Note_on_c, 0, 69, 58
4, 128828, Note_on_c, 0, 69, 0
4, 128838, Note_on_c, 0, 81, 0
4, 128860, Note_on_c, 0, 76, 0
4, 128866, Note_on_c, 0, 67, 25
4, 128884, Control_c, 0, 64, 127
4, 128896, Note_on_c, 0, 67, 0
4, 128896, Note_on_c, 0, 73, 0
4, 128898, Note_on_c, 0, 70, 0
4, 128962, Note_on_c, 0, 65, 38
4, 128982, Control_c, 0, 64, 0
4, 129004, Note_on_c, 0, 65, 0
4, 129018, Note_on_c, 0, 79, 72
4, 129022, Note_on_c, 0, 68, 74
4, 129028, Note_on_c, 0, 67, 49
4, 129030, Note_on_c, 0, 75, 54
4, 129032, Note_on_c, 0, 72, 66
4, 129084, Note_on_c, 0, 79, 0
4, 129118, Note_on_c, 0, 72, 0
4, 129128, Note_on_c, 0, 68, 0
4, 129128, Note_on_c, 0, 75, 0
4, 129142, Note_on_c, 0, 66, 54
4, 129144, Note_on_c, 0, 67, 0
4, 129154, Note_on_c, 0, 78, 51
4, 129170, Note_on_c, 0, 68, 35
4, 129172, Note_on_c, 0, 72, 38
4, 129182, Note_on_c, 0, 78, 0
4, 129204, Note_on_c, 0, 66, 0
4, 129210, Note_on_c, 0, 77, 17
4, 129220, Note_on_c, 0, 65, 38
4, 129278, Note_on_c, 0, 72, 0
4, 129288, Note_on_c, 0, 77, 0
4, 129310, Note_on_c, 0, 68, 0
4, 129314, Note_on_c, 0, 65, 0
4, 129370, Note_on_c, 0, 60, 33
4, 129388, Note_on_c, 0, 60, 0
4, 129390, Note_on_c, 0, 75, 62
4, 129394, Note_on_c, 0, 63, 67
4, 129400, Note_on_c, 0, 65, 49
4, 129402, Note_on_c, 0, 68, 47
4, 129416, Note_on_c, 0, 72, 36
4, 129454, Note_on_c, 0, 72, 0
4, 129470, Note_on_c, 0, 65, 0
4, 129476, Note_on_c, 0, 68, 0
4, 129504, Note_on_c, 0, 63, 0
4, 129508, Note_on_c, 0, 75, 0
4, 129516, Note_on_c, 0, 68, 42
4, 129516, Note_on_c, 0, 72, 53
4, 129520, Note_on_c, 0, 60, 59
4, 129520, Note_on_c, 0, 65, 47
4, 129538, Note_on_c, 0, 60, 0
4, 129540, Note_on_c, 0, 72, 0
4, 129542, Note_on_c, 0, 65, 0
4, 129552, Note_on_c, 0, 68, 0
4, 129672, Control_c, 0, 64, 127
4, 129708, Control_c, 0, 64, 0
4, 129944, Note_on_c, 0, 70, 67
4, 129952, Note_on_c, 0, 66, 79
4, 129958, Note_on_c, 0, 62, 80
4, 129958, Note_on_c, 0, 74, 72
4, 129960, Note_on_c, 0, 71, 68
4, 129960, Note_on_c, 0, 56, 82
4, 129962, Note_on_c, 0, 70, 0
4, 129964, Note_on_c, 0, 72, 62
4, 130022, Note_on_c, 0, 66, 0
4, 130066, Control_c, 0, 64, 127
4, 130068, Note_on_c, 0, 71, 0
4, 130090, Note_on_c, 0, 74, 0
4, 130094, Note_on_c, 0, 72, 0
4, 130100, Note_on_c, 0, 62, 0
4, 130110, Note_on_c, 0, 56, 0
4, 130128, Control_c, 0, 64, 0
4, 130156, Note_on_c, 0, 71, 71
4, 130158, Note_on_c, 0, 56, 57
4, 130160, Note_on_c, 0, 62, 63
4, 130162, Note_on_c, 0, 66, 71
4, 130170, Note_on_c, 0, 70, 45
4, 130226, Note_on_c, 0, 70, 0
4, 130240, Note_on_c, 0, 66, 0
4, 130254, Note_on_c, 0, 67, 24
4, 130266, Note_on_c, 0, 62, 0
4, 130280, Note_on_c, 0, 67, 0
4, 130292, Control_c, 0, 64, 127
4, 130366, Note_on_c, 0, 62, 66
4, 130414, Note_on_c, 0, 71, 0
4, 130432, Note_on_c, 0, 62, 0
4, 130450, Note_on_c, 0, 56, 0
4, 130508, Control_c, 0, 64, 0
4, 130528, Note_on_c, 0, 56, 35
4, 130536, Note_on_c, 0, 70, 46
4, 130536, Note_on_c, 0, 46, 32
4, 130538, Note_on_c, 0, 61, 31
4, 130540, Note_on_c, 0, 65, 58
4, 130646, Control_c, 0, 64, 127
4, 130824, Note_on_c, 0, 65, 0
4, 130830, Note_on_c, 0, 70, 0
4, 130838, Note_on_c, 0, 61, 0
4, 131154, Note_on_c, 0, 63, 84
4, 131170, Note_on_c, 0, 56, 0
4, 131190, Note_on_c, 0, 46, 0
4, 131248, Note_on_c, 0, 63, 0
4, 131276, Note_on_c, 0, 60, 54
4, 131282, Control_c, 0, 64, 0
4, 131318, Note_on_c, 0, 60, 0
4, 131364, Note_on_c, 0, 61, 30
4, 131462, Note_on_c, 0, 63, 53
4, 131470, Note_on_c, 0, 61, 0
4, 131512, Note_on_c, 0, 63, 0
4, 131544, Note_on_c, 0, 64, 45
4, 131598, Note_on_c, 0, 64, 0
4, 131654, Note_on_c, 0, 65, 49
4, 131662, Control_c, 0, 64, 127
4, 131724, Note_on_c, 0, 65, 0
4, 131724, Control_c, 0, 64, 0
4, 131736, Note_on_c, 0, 70, 47
4, 131760, Note_on_c, 0, 70, 0
4, 131766, Note_on_c, 0, 66, 23
4, 131766, Note_on_c, 0, 61, 33
4, 131784, Note_on_c, 0, 55, 25
4, 131834, Note_on_c, 0, 72, 58
4, 131876, Note_on_c, 0, 72, 0
4, 131896, Note_on_c, 0, 55, 0
4, 131898, Note_on_c, 0, 66, 0
4, 131910, Note_on_c, 0, 77, 62
4, 131944, Note_on_c, 0, 61, 0
4, 131962, Note_on_c, 0, 77, 0
4, 131964, Control_c, 0, 64, 127
4, 132010, Note_on_c, 0, 82, 71
4, 132026, Note_on_c, 0, 78, 27
4, 132036, Control_c, 0, 64, 0
4, 132042, Note_on_c, 0, 78, 0
4, 132068, Note_on_c, 0, 82, 0
4, 132096, Note_on_c, 0, 84, 78
4, 132164, Note_on_c, 0, 84, 0
4, 132206, Note_on_c, 0, 82, 60
4, 132258, Note_on_c, 0, 82, 0
4, 132300, Note_on_c, 0, 79, 41
4, 132332, Note_on_c, 0, 79, 0
4, 132390, Control_c, 0, 64, 127
4, 132408, Note_on_c, 0, 75, 55
4, 132416, Control_c, 0, 64, 0
4, 132462, Note_on_c, 0, 75, 0
4, 132504, Note_on_c, 0, 72, 41
4, 132578, Note_on_c, 0, 72, 0
4, 132626, Note_on_c, 0, 72, 54
4, 132640, Note_on_c, 0, 63, 19
4, 132660, Note_on_c, 0, 56, 23
4, 132664, Note_on_c, 0, 63, 0
4, 132672, Note_on_c, 0, 72, 0
4, 132742, Note_on_c, 0, 72, 63
4, 132760, Control_c, 0, 64, 127
4, 132778, Note_on_c, 0, 56, 0
4, 132790, Note_on_c, 0, 72, 0
4, 132842, Control_c, 0, 64, 0
4, 132860, Note_on_c, 0, 63, 39
4, 132860, Note_on_c, 0, 82, 64
4, 132870, Note_on_c, 0, 70, 52
4, 132876, Note_on_c, 0, 59, 38
4, 132876, Note_on_c, 0, 56, 18
4, 132878, Note_on_c, 0, 75, 47
4, 132908, Note_on_c, 0, 53, 11
4, 132950, Note_on_c, 0, 70, 0
4, 132956, Note_on_c, 0, 82, 0
4, 132964, Note_on_c, 0, 75, 0
4, 132992, Note_on_c, 0, 59, 0
4, 133002, Note_on_c, 0, 63, 0
4, 133024, Note_on_c, 0, 53, 0
4, 133036, Note_on_c, 0, 56, 0
4, 133094, Note_on_c, 0, 63, 40
4, 133100, Note_on_c, 0, 68, 33
4, 133106, Note_on_c, 0, 80, 35
4, 133106, Note_on_c, 0, 75, 45
4, 133110, Note_on_c, 0, 56, 25
4, 133112, Note_on_c, 0, 59, 35
4, 133120, Note_on_c, 0, 68, 0
4, 133126, Note_on_c, 0, 75, 0
4, 133128, Note_on_c, 0, 80, 0
4, 133136, Note_on_c, 0, 59, 0
4, 133140, Control_c, 0, 64, 127
4, 133144, Note_on_c, 0, 63, 0
4, 133160, Note_on_c, 0, 56, 0
4, 133172, Control_c, 0, 64, 0
4, 133224, Note_on_c, 0, 63, 53
4, 133232, Note_on_c, 0, 82, 65
4, 133236, Note_on_c, 0, 70, 37
4, 133242, Note_on_c, 0, 56, 25
4, 133252, Note_on_c, 0, 63, 0
4, 133254, Note_on_c, 0, 70, 0
4, 133260, Note_on_c, 0, 82, 0
4, 133280, Note_on_c, 0, 56, 0
4, 133438, Note_on_c, 0, 56, 40
4, 133444, Control_c, 0, 64, 127
4, 133464, Note_on_c, 0, 80, 60
4, 133464, Note_on_c, 0, 68, 60
4, 133500, Note_on_c, 0, 68, 0
4, 133508, Note_on_c, 0, 80, 0
4, 133520, Note_on_c, 0, 56, 0
4, 133556, Control_c, 0, 64, 0
4, 133580, Note_on_c, 0, 66, 55
4, 133590, Note_on_c, 0, 62, 38
4, 133596, Note_on_c, 0, 55, 47
4, 133598, Note_on_c, 0, 51, 31
4, 133602, Note_on_c, 0, 58, 38
4, 133602, Note_on_c, 0, 79, 50
4, 133610, Note_on_c, 0, 66, 0
4, 133610, Note_on_c, 0, 67, 50
4, 133696, Control_c, 0, 64, 127
4, 133718, Note_on_c, 0, 67, 0
4, 133736, Note_on_c, 0, 55, 0
4, 133744, Note_on_c, 0, 51, 0
4, 133770, Note_on_c, 0, 58, 0
4, 133780, Note_on_c, 0, 62, 0
4, 133782, Note_on_c, 0, 79, 0
4, 133978, Control_c, 0, 64, 0
4, 133982, Note_on_c, 0, 85, 69
4, 133986, Note_on_c, 0, 73, 79
4, 133988, Note_on_c, 0, 64, 66
4, 133988, Note_on_c, 0, 58, 60
4, 133988, Note_on_c, 0, 69, 71
4, 134116, Control_c, 0, 64, 127
4, 134182, Note_on_c, 0, 69, 0
4, 134184, Note_on_c, 0, 64, 0
4, 134220, Note_on_c, 0, 58, 0
4, 134276, Note_on_c, 0, 73, 0
4, 134278, Note_on_c, 0, 85, 0
4, 134352, Control_c, 0, 64, 0
4, 134374, Note_on_c, 0, 63, 48
4, 134378, Note_on_c, 0, 67, 43
4, 134382, Note_on_c, 0, 56, 37
4, 134384, Note_on_c, 0, 84, 60
4, 134386, Note_on_c, 0, 60, 50
4, 134392, Note_on_c, 0, 72, 44
4, 134460, Control_c, 0, 64, 127
4, 134518, Note_on_c, 0, 72, 0
4, 134558, Note_on_c, 0, 84, 0
4, 134592, Note_on_c, 0, 67, 0
4, 134616, Note_on_c, 0, 56, 0
4, 134646, Note_on_c, 0, 63, 0
4, 134672, Note_on_c, 0, 60, 0
4, 134736, Control_c, 0, 64, 0
4, 134750, Note_on_c, 0, 66, 83
4, 134750, Note_on_c, 0, 62, 74
4, 134752, Note_on_c, 0, 94, 84
4, 134752, Note_on_c, 0, 82, 78
4, 134754, Note_on_c, 0, 87, 83
4, 134754, Note_on_c, 0, 56, 71
4, 134850, Control_c, 0, 64, 127
4, 134954, Note_on_c, 0, 94, 0
4, 134970, Note_on_c, 0, 87, 0
4, 134978, Note_on_c, 0, 62, 0
4, 134982, Note_on_c, 0, 82, 0
4, 134994, Note_on_c, 0, 66, 0
4, 135074, Note_on_c, 0, 56, 0
4, 135148, Control_c, 0, 64, 0
4, 135166, Note_on_c, 0, 89, 62
4, 135166, Note_on_c, 0, 62, 31
4, 135168, Note_on_c, 0, 65, 39
4, 135172, Note_on_c, 0, 55, 34
4, 135172, Note_on_c, 0, 60, 43
4, 135174, Note_on_c, 0, 77, 35
4, 135176, Note_on_c, 0, 84, 49
4, 135390, Control_c, 0, 64, 127
4, 135402, Note_on_c, 0, 77, 0
4, 135404, Note_on_c, 0, 89, 0
4, 135410, Note_on_c, 0, 84, 0
4, 135418, Note_on_c, 0, 55, 0
4, 135422, Note_on_c, 0, 60, 0
4, 135438, Note_on_c, 0, 65, 0
4, 135446, Note_on_c, 0, 62, 0
4, 135518, Control_c, 0, 64, 0
4, 135536, Note_on_c, 0, 87, 63
4, 135544, Note_on_c, 0, 75, 51
4, 135544, Note_on_c, 0, 65, 49
4, 135546, Note_on_c, 0, 62, 40
4, 135546, Note_on_c, 0, 82, 57
4, 135550, Note_on_c, 0, 60, 49
4, 135552, Note_on_c, 0, 55, 43
4, 135614, Control_c, 0, 64, 127
4, 135682, Note_on_c, 0, 55, 0
4, 135688, Note_on_c, 0, 60, 0
4, 135702, Note_on_c, 0, 62, 0
4, 135722, Note_on_c, 0, 82, 0
4, 135724, Note_on_c, 0, 87, 0
4, 135726, Note_on_c, 0, 65, 0
4, 135726, Note_on_c, 0, 75, 0
4, 135896, Control_c, 0, 64, 0
4, 135920, Note_on_c, 0, 67, 37
4, 135922, Note_on_c, 0, 62, 35
4, 135924, Note_on_c, 0, 63, 30
4, 135934, Note_on_c, 0, 74, 54
4, 135934, Note_on_c, 0, 86, 58
4, 135936, Note_on_c, 0, 57, 31
4, 136034, Note_on_c, 0, 74, 0
4, 136040, Control_c, 0, 64, 127
4, 136048, Note_on_c, 0, 86, 0
4, 136148, Note_on_c, 0, 67, 0
4, 136168, Note_on_c, 0, 62, 0
4, 136172, Note_on_c, 0, 63, 0
4, 136204, Note_on_c, 0, 89, 90
4, 136278, Control_c, 0, 64, 0
4, 136294, Note_on_c, 0, 63, 35
4, 136296, Note_on_c, 0, 89, 0
4, 136298, Note_on_c, 0, 62, 28
4, 136304, Note_on_c, 0, 67, 25
4, 136330, Note_on_c, 0, 86, 60
4, 136398, Note_on_c, 0, 86, 0
4, 136400, Note_on_c, 0, 62, 0
4, 136400, Note_on_c, 0, 67, 0
4, 136436, Note_on_c, 0, 87, 64
4, 136476, Note_on_c, 0, 63, 0
4, 136482, Note_on_c, 0, 57, 0
4, 136506, Note_on_c, 0, 87, 0
4, 136566, Note_on_c, 0, 89, 80
4, 136590, Control_c, 0, 64, 127
4, 136646, Control_c, 0, 64, 0
4, 136650, Note_on_c, 0, 89, 0
4, 136670, Note_on_c, 0, 62, 26
4, 136672, Note_on_c, 0, 65, 27
4, 136672, Note_on_c, 0, 55, 34
4, 136674, Note_on_c, 0, 60, 37
4, 136700, Note_on_c, 0, 86, 55
4, 136756, Note_on_c, 0, 86, 0
4, 136826, Note_on_c, 0, 87, 53
4, 136882, Note_on_c, 0, 87, 0
4, 136890, Note_on_c, 0, 65, 0
4, 136894, Note_on_c, 0, 60, 0
4, 136896, Note_on_c, 0, 62, 0
4, 136950, Note_on_c, 0, 89, 79
4, 137018, Note_on_c, 0, 89, 0
4, 137064, Note_on_c, 0, 60, 29
4, 137066, Note_on_c, 0, 65, 34
4, 137074, Note_on_c, 0, 81, 44
4, 137122, Note_on_c, 0, 65, 0
4, 137162, Note_on_c, 0, 60, 0
4, 137168, Note_on_c, 0, 81, 0
4, 137190, Note_on_c, 0, 82, 50
4, 137212, Note_on_c, 0, 55, 0
4, 137276, Note_on_c, 0, 82, 0
4, 137316, Note_on_c, 0, 84, 71
4, 137354, Control_c, 0, 64, 127
4, 137382, Note_on_c, 0, 84, 0
4, 137406, Control_c, 0, 64, 0
4, 137438, Note_on_c, 0, 53, 26
4, 137440, Note_on_c, 0, 62, 29
4, 137444, Note_on_c, 0, 58, 27
4, 137446, Note_on_c, 0, 57, 30
4, 137452, Note_on_c, 0, 78, 40
4, 137560, Note_on_c, 0, 78, 0
4, 137584, Note_on_c, 0, 79, 45
4, 137638, Note_on_c, 0, 79, 0
4, 137668, Note_on_c, 0, 62, 0
4, 137674, Note_on_c, 0, 58, 0
4, 137698, Note_on_c, 0, 81, 77
4, 137710, Note_on_c, 0, 57, 0
4, 137736, Control_c, 0, 64, 127
4, 137796, Note_on_c, 0, 81, 0
4, 137796, Control_c, 0, 64, 0
4, 137826, Note_on_c, 0, 62, 34
4, 137830, Note_on_c, 0, 57, 15
4, 137834, Note_on_c, 0, 74, 38
4, 137840, Note_on_c, 0, 58, 21
4, 137916, Note_on_c, 0, 57, 0
4, 137926, Note_on_c, 0, 74, 0
4, 137936, Note_on_c, 0, 58, 0
4, 137936, Note_on_c, 0, 53, 0
4, 137952, Note_on_c, 0, 77, 67
4, 137974, Note_on_c, 0, 62, 0
4, 138040, Note_on_c, 0, 77, 0
4, 138068, Control_c, 0, 64, 127
4, 138078, Note_on_c, 0, 75, 57
4, 138182, Control_c, 0, 64, 0
4, 138200, Note_on_c, 0, 75, 0
4, 138206, Note_on_c, 0, 71, 42
4, 138210, Note_on_c, 0, 58, 20
4, 138212, Note_on_c, 0, 62, 24
4, 138212, Note_on_c, 0, 67, 15
4, 138218, Note_on_c, 0, 63, 20
4, 138292, Note_on_c, 0, 71, 0
4, 138322, Note_on_c, 0, 74, 62
4, 138370, Note_on_c, 0, 67, 0
4, 138412, Note_on_c, 0, 74, 0
4, 138414, Note_on_c, 0, 62, 0
4, 138430, Note_on_c, 0, 63, 0
4, 138456, Note_on_c, 0, 72, 45
4, 138474, Control_c, 0, 64, 127
4, 138556, Note_on_c, 0, 72, 0
4, 138566, Control_c, 0, 64, 0
4, 138592, Note_on_c, 0, 65, 49
4, 138594, Note_on_c, 0, 62, 28
4, 138600, Note_on_c, 0, 63, 27
4, 138612, Note_on_c, 0, 65, 0
4, 138752, Note_on_c, 0, 89, 90
4, 138760, Note_on_c, 0, 62, 0
4, 138782, Control_c, 0, 64, 127
4, 138830, Note_on_c, 0, 89, 0
4, 138844, Note_on_c, 0, 63, 0
4, 138866, Note_on_c, 0, 87, 75
4, 138868, Note_on_c, 0, 58, 0
4, 138978, Control_c, 0, 64, 0
4, 138990, Note_on_c, 0, 77, 50
4, 138990, Note_on_c, 0, 68, 37
4, 138992, Note_on_c, 0, 63, 35
4, 138994, Note_on_c, 0, 87, 0
4, 138994, Note_on_c, 0, 57, 36
4, 139178, Control_c, 0, 64, 127
4, 139294, Note_on_c, 0, 68, 0
4, 139298, Note_on_c, 0, 57, 0
4, 139342, Note_on_c, 0, 63, 0
4, 139378, Control_c, 0, 64, 0
4, 139396, Note_on_c, 0, 66, 33
4, 139398, Note_on_c, 0, 63, 32
4, 139404, Note_on_c, 0, 57, 34
4, 139418, Note_on_c, 0, 77, 0
4, 139454, Control_c, 0, 64, 127
4, 139478, Note_on_c, 0, 66, 0
4, 139492, Note_on_c, 0, 57, 0
4, 139508, Note_on_c, 0, 63, 0
4, 139634, Note_on_c, 0, 75, 74
4, 139704, Note_on_c, 0, 75, 0
4, 139726, Control_c, 0, 64, 0
4, 139762, Note_on_c, 0, 60, 36
4, 139764, Note_on_c, 0, 57, 35
4, 139770, Note_on_c, 0, 74, 69
4, 139772, Note_on_c, 0, 53, 29
4, 139778, Note_on_c, 0, 50, 24
4, 139818, Note_on_c, 0, 74, 0
4, 139838, Note_on_c, 0, 75, 49
4, 139892, Note_on_c, 0, 74, 36
4, 139900, Note_on_c, 0, 60, 0
4, 139922, Note_on_c, 0, 75, 0
4, 139948, Note_on_c, 0, 57, 0
4, 139970, Note_on_c, 0, 74, 0
4, 139982, Note_on_c, 0, 72, 45
4, 140012, Note_on_c, 0, 72, 0
4, 140080, Control_c, 0, 64, 127
4, 140086, Control_c, 0, 64, 0
4, 140164, Note_on_c, 0, 60, 47
4, 140178, Note_on_c, 0, 74, 78
4, 140228, Note_on_c, 0, 74, 0
4, 140232, Note_on_c, 0, 75, 59
4, 140254, Note_on_c, 0, 53, 0
4, 140270, Note_on_c, 0, 50, 0
4, 140286, Note_on_c, 0, 74, 36
4, 140292, Note_on_c, 0, 75, 0
4, 140342, Note_on_c, 0, 60, 0
4, 140344, Note_on_c, 0, 73, 56
4, 140346, Note_on_c, 0, 74, 0
4, 140384, Note_on_c, 0, 73, 0
4, 140446, Note_on_c, 0, 74, 72
4, 140490, Control_c, 0, 64, 127
4, 140506, Note_on_c, 0, 74, 0
4, 140512, Control_c, 0, 64, 0
4, 140534, Note_on_c, 0, 75, 75
4, 140558, Note_on_c, 0, 64, 28
4, 140568, Note_on_c, 0, 59, 33
4, 140572, Note_on_c, 0, 53, 25
4, 140644, Note_on_c, 0, 74, 40
4, 140650, Note_on_c, 0, 75, 0
4, 140690, Note_on_c, 0, 74, 0
4, 140698, Note_on_c, 0, 64, 0
4, 140734, Note_on_c, 0, 71, 55
4, 140768, Note_on_c, 0, 71, 0
4, 140840, Note_on_c, 0, 67, 48
4, 140856, Note_on_c, 0, 59, 0
4, 140896, Control_c, 0, 64, 127
4, 140900, Note_on_c, 0, 67, 0
4, 140900, Note_on_c, 0, 53, 0
4, 140942, Control_c, 0, 64, 0
4, 140956, Note_on_c, 0, 64, 29
4, 140962, Note_on_c, 0, 59, 36
4, 140966, Note_on_c, 0, 67, 35
4, 140980, Note_on_c, 0, 64, 0
4, 140990, Note_on_c, 0, 59, 0
4, 141126, Note_on_c, 0, 67, 0
4, 141138, Control_c, 0, 64, 127
4, 141182, Note_on_c, 0, 65, 68
4, 141202, Note_on_c, 0, 55, 24
4, 141226, Note_on_c, 0, 65, 0
4, 141276, Control_c, 0, 64, 0
4, 141302, Note_on_c, 0, 62, 71
4, 141306, Note_on_c, 0, 55, 0
4, 141318, Note_on_c, 0, 58, 25
4, 141326, Note_on_c, 0, 48, 36
4, 141488, Note_on_c, 0, 58, 0
4, 141534, Note_on_c, 0, 62, 0
4, 141554, Note_on_c, 0, 63, 63
4, 141560, Note_on_c, 0, 55, 15
4, 141564, Control_c, 0, 64, 127
4, 141610, Note_on_c, 0, 55, 0
4, 141662, Control_c, 0, 64, 0
4, 141680, Note_on_c, 0, 59, 47
4, 141690, Note_on_c, 0, 48, 0
4, 141766, Note_on_c, 0, 63, 0
4, 141778, Note_on_c, 0, 59, 0
4, 141796, Note_on_c, 0, 62, 54
4, 141862, Note_on_c, 0, 62, 0
4, 141918, Note_on_c, 0, 48, 49
4, 141922, Note_on_c, 0, 63, 49
4, 141928, Control_c, 0, 64, 127
4, 141938, Note_on_c, 0, 63, 0
4, 142026, Note_on_c, 0, 48, 0
4, 142026, Control_c, 0, 64, 0
4, 142048, Note_on_c, 0, 51, 48
4, 142060, Note_on_c, 0, 41, 35
4, 142082, Note_on_c, 0, 41, 0
4, 142096, Note_on_c, 0, 51, 0
4, 142154, Control_c, 0, 64, 127
4, 142170, Note_on_c, 0, 74, 85
4, 142258, Note_on_c, 0, 74, 0
4, 142292, Note_on_c, 0, 77, 90
4, 142390, Note_on_c, 0, 77, 0
4, 142410, Control_c, 0, 64, 0
4, 142418, Note_on_c, 0, 75, 65
4, 142422, Note_on_c, 0, 63, 40
4, 142426, Note_on_c, 0, 67, 22
4, 142426, Note_on_c, 0, 57, 36
4, 142480, Note_on_c, 0, 67, 0
4, 142524, Note_on_c, 0, 75, 0
4, 142534, Control_c, 0, 64, 127
4, 142540, Note_on_c, 0, 71, 49
4, 142616, Note_on_c, 0, 57, 0
4, 142648, Note_on_c, 0, 71, 0
4, 142672, Note_on_c, 0, 69, 58
4, 142716, Note_on_c, 0, 63, 0
4, 142790, Control_c, 0, 64, 0
4, 142794, Note_on_c, 0, 63, 37
4, 142800, Note_on_c, 0, 67, 32
4, 142810, Note_on_c, 0, 56, 28
4, 142814, Note_on_c, 0, 60, 38
4, 142920, Note_on_c, 0, 67, 0
4, 142930, Note_on_c, 0, 69, 0
4, 142936, Note_on_c, 0, 74, 72
4, 143034, Note_on_c, 0, 74, 0
4, 143038, Control_c, 0, 64, 127
4, 143060, Note_on_c, 0, 72, 68
4, 143062, Note_on_c, 0, 63, 0
4, 143072, Note_on_c, 0, 60, 0
4, 143186, Control_c, 0, 64, 0
4, 143188, Note_on_c, 0, 72, 0
4, 143194, Note_on_c, 0, 63, 30
4, 143198, Note_on_c, 0, 68, 48
4, 143214, Note_on_c, 0, 60, 24
4, 143312, Note_on_c, 0, 68, 0
4, 143334, Note_on_c, 0, 65, 33
4, 143396, Note_on_c, 0, 56, 0
4, 143410, Note_on_c, 0, 65, 0
4, 143414, Note_on_c, 0, 63, 0
4, 143440, Note_on_c, 0, 60, 0
4, 143454, Note_on_c, 0, 70, 80
4, 143466, Note_on_c, 0, 62, 43
4, 143466, Note_on_c, 0, 66, 45
4, 143470, Note_on_c, 0, 56, 35
4, 143510, Control_c, 0, 64, 127
4, 143516, Note_on_c, 0, 66, 0
4, 143532, Note_on_c, 0, 62, 0
4, 143540, Control_c, 0, 64, 0
4, 143578, Note_on_c, 0, 56, 0
4, 143590, Note_on_c, 0, 68, 53
4, 143664, Note_on_c, 0, 68, 0
4, 143664, Note_on_c, 0, 70, 0
4, 143722, Note_on_c, 0, 65, 42
4, 143812, Note_on_c, 0, 65, 0
4, 143840, Note_on_c, 0, 62, 44
4, 143868, Note_on_c, 0, 53, 8
4, 143874, Control_c, 0, 64, 127
4, 143938, Note_on_c, 0, 62, 0
4, 143956, Control_c, 0, 64, 0
4, 143982, Note_on_c, 0, 60, 60
4, 143984, Note_on_c, 0, 56, 25
4, 143988, Note_on_c, 0, 53, 0
4, 143988, Note_on_c, 0, 46, 28
4, 144098, Note_on_c, 0, 60, 0
4, 144128, Note_on_c, 0, 56, 0
4, 144132, Note_on_c, 0, 57, 32
4, 144190, Note_on_c, 0, 46, 0
4, 144198, Note_on_c, 0, 57, 0
4, 144244, Note_on_c, 0, 59, 72
4, 144260, Control_c, 0, 64, 127
4, 144332, Note_on_c, 0, 59, 0
4, 144352, Control_c, 0, 64, 0
4, 144384, Note_on_c, 0, 39, 29
4, 144384, Note_on_c, 0, 58, 51
4, 144392, Note_on_c, 0, 46, 25
4, 144680, Control_c, 0, 64, 127
4, 144710, Control_c, 0, 64, 0
4, 144722, Note_on_c, 0, 51, 20
4, 144752, Note_on_c, 0, 58, 0
4, 144754, Note_on_c, 0, 55, 48
4, 144760, Note_on_c, 0, 39, 0
4, 144786, Note_on_c, 0, 46, 0
4, 144816, Note_on_c, 0, 55, 0
4, 144826, Note_on_c, 0, 51, 0
4, 144836, Note_on_c, 0, 56, 34
4, 144904, Note_on_c, 0, 56, 0
4, 144924, Note_on_c, 0, 58, 49
4, 144968, Note_on_c, 0, 58, 0
4, 145018, Control_c, 0, 64, 127
4, 145024, Note_on_c, 0, 60, 71
4, 145090, Control_c, 0, 64, 0
4, 145094, Note_on_c, 0, 60, 0
4, 145120, Note_on_c, 0, 65, 44
4, 145128, Note_on_c, 0, 44, 31
4, 145134, Note_on_c, 0, 54, 25
4, 145214, Note_on_c, 0, 70, 63
4, 145218, Note_on_c, 0, 44, 0
4, 145218, Note_on_c, 0, 65, 0
4, 145248, Note_on_c, 0, 54, 0
4, 145264, Note_on_c, 0, 70, 0
4, 145308, Note_on_c, 0, 72, 63
4, 145316, Control_c, 0, 64, 127
4, 145362, Note_on_c, 0, 72, 0
4, 145398, Note_on_c, 0, 77, 70
4, 145460, Control_c, 0, 64, 0
4, 145472, Note_on_c, 0, 77, 0
4, 145488, Note_on_c, 0, 65, 34
4, 145494, Note_on_c, 0, 82, 60
4, 145498, Note_on_c, 0, 58, 29
4, 145500, Note_on_c, 0, 54, 28
4, 145502, Note_on_c, 0, 60, 41
4, 145572, Note_on_c, 0, 82, 0
4, 145604, Note_on_c, 0, 84, 66
4, 145612, Note_on_c, 0, 72, 50
4, 145624, Note_on_c, 0, 65, 0
4, 145642, Note_on_c, 0, 60, 0
4, 145650, Note_on_c, 0, 84, 0
4, 145656, Note_on_c, 0, 72, 0
4, 145664, Note_on_c, 0, 58, 0
4, 145678, Note_on_c, 0, 54, 0
4, 145698, Note_on_c, 0, 82, 51
4, 145722, Control_c, 0, 64, 127
4, 145750, Note_on_c, 0, 82, 0
4, 145764, Note_on_c, 0, 51, 45
4, 145774, Note_on_c, 0, 61, 30
4, 145836, Note_on_c, 0, 61, 0
4, 145840, Control_c, 0, 64, 0
4, 145854, Note_on_c, 0, 51, 0
4, 145882, Note_on_c, 0, 81, 62
4, 145884, Note_on_c, 0, 69, 63
4, 145888, Note_on_c, 0, 60, 38
4, 145888, Note_on_c, 0, 57, 38
4, 145890, Note_on_c, 0, 50, 39
4, 146012, Note_on_c, 0, 81, 0
4, 146020, Note_on_c, 0, 57, 0
4, 146026, Note_on_c, 0, 69, 0
4, 146032, Note_on_c, 0, 60, 0
4, 146106, Control_c, 0, 64, 127
4, 146110, Note_on_c, 0, 60, 71
4, 146112, Note_on_c, 0, 50, 0
4, 146118, Note_on_c, 0, 80, 68
4, 146122, Note_on_c, 0, 68, 75
4, 146168, Note_on_c, 0, 60, 0
4, 146192, Note_on_c, 0, 80, 0
4, 146202, Note_on_c, 0, 68, 0
4, 146246, Control_c, 0, 64, 0
4, 146258, Note_on_c, 0, 78, 46
4, 146260, Note_on_c, 0, 66, 62
4, 146272, Note_on_c, 0, 64, 35
4, 146272, Note_on_c, 0, 59, 37
4, 146284, Note_on_c, 0, 53, 33
4, 146286, Note_on_c, 0, 79, 37
4, 146302, Note_on_c, 0, 66, 0
4, 146316, Note_on_c, 0, 67, 42
4, 146336, Note_on_c, 0, 78, 0
4, 146390, Control_c, 0, 64, 127
4, 146402, Note_on_c, 0, 64, 0
4, 146408, Note_on_c, 0, 59, 0
4, 146442, Note_on_c, 0, 53, 0
4, 146474, Note_on_c, 0, 79, 0
4, 146544, Note_on_c, 0, 67, 0
4, 146646, Control_c, 0, 64, 0
4, 146678, Note_on_c, 0, 58, 42
4, 146682, Note_on_c, 0, 48, 39
4, 146682, Note_on_c, 0, 78, 55
4, 146688, Note_on_c, 0, 66, 57
4, 146692, Note_on_c, 0, 72, 51
4, 146826, Control_c, 0, 64, 127
4, 146896, Note_on_c, 0, 78, 0
4, 146904, Note_on_c, 0, 72, 0
4, 146930, Note_on_c, 0, 66, 0
4, 146964, Note_on_c, 0, 58, 0
4, 147042, Control_c, 0, 64, 0
4, 147056, Note_on_c, 0, 57, 52
4, 147062, Note_on_c, 0, 77, 47
4, 147066, Note_on_c, 0, 65, 47
4, 147068, Note_on_c, 0, 69, 58
4, 147128, Note_on_c, 0, 48, 0
4, 147174, Control_c, 0, 64, 127
4, 147242, Note_on_c, 0, 57, 0
4, 147260, Note_on_c, 0, 77, 0
4, 147262, Note_on_c, 0, 69, 0
4, 147264, Note_on_c, 0, 65, 0
4, 147428, Control_c, 0, 64, 0
4, 147430, Note_on_c, 0, 74, 53
4, 147438, Note_on_c, 0, 70, 59
4, 147440, Note_on_c, 0, 62, 58
4, 147444, Note_on_c, 0, 55, 44
4, 147550, Note_on_c, 0, 55, 0
4, 147564, Note_on_c, 0, 74, 0
4, 147576, Note_on_c, 0, 70, 0
4, 147590, Note_on_c, 0, 62, 0
4, 147702, Note_on_c, 0, 41, 49
4, 147718, Control_c, 0, 64, 127
4, 147726, Note_on_c, 0, 41, 0
4, 147810, Control_c, 0, 64, 0
4, 147816, Note_on_c, 0, 67, 49
4, 147816, Note_on_c, 0, 61, 51
4, 147820, Note_on_c, 0, 57, 51
4, 147828, Note_on_c, 0, 51, 38
4, 147832, Note_on_c, 0, 61, 0
4, 147846, Note_on_c, 0, 62, 39
4, 148036, Control_c, 0, 64, 127
4, 148098, Note_on_c, 0, 62, 0
4, 148104, Note_on_c, 0, 51, 0
4, 148116, Note_on_c, 0, 57, 0
4, 148120, Note_on_c, 0, 48, 22
4, 148152, Note_on_c, 0, 67, 0
4, 148174, Control_c, 0, 64, 0
4, 148178, Note_on_c, 0, 48, 0
4, 148206, Note_on_c, 0, 65, 48
4, 148212, Note_on_c, 0, 51, 23
4, 148214, Note_on_c, 0, 57, 28
4, 148218, Note_on_c, 0, 62, 32
4, 148270, Note_on_c, 0, 57, 0
4, 148296, Note_on_c, 0, 62, 0
4, 148314, Note_on_c, 0, 65, 0
4, 148480, Note_on_c, 0, 77, 87
4, 148488, Note_on_c, 0, 41, 49
4, 148510, Note_on_c, 0, 51, 0
4, 148512, Note_on_c, 0, 41, 0
4, 148556, Note_on_c, 0, 77, 0
4, 148644, Note_on_c, 0, 73, 28
4, 148662, Note_on_c, 0, 73, 0
4, 148684, Note_on_c, 0, 74, 28
4, 148716, Note_on_c, 0, 74, 0
4, 148842, Control_c, 0, 64, 127
4, 148852, Note_on_c, 0, 65, 42
4, 148852, Note_on_c, 0, 77, 45
4, 148872, Note_on_c, 0, 65, 0
4, 148900, Note_on_c, 0, 77, 0
4, 148956, Control_c, 0, 64, 0
4, 148992, Note_on_c, 0, 70, 46
4, 148992, Note_on_c, 0, 82, 50
4, 148994, Note_on_c, 0, 60, 34
4, 149008, Note_on_c, 0, 70, 0
4, 149010, Note_on_c, 0, 60, 0
4, 149010, Note_on_c, 0, 82, 0
4, 149230, Note_on_c, 0, 82, 67
4, 149232, Note_on_c, 0, 65, 41
4, 149236, Note_on_c, 0, 62, 31
4, 149238, Control_c, 0, 64, 127
4, 149238, Note_on_c, 0, 70, 60
4, 149254, Note_on_c, 0, 65, 0
4, 149260, Note_on_c, 0, 62, 0
4, 149268, Note_on_c, 0, 70, 0
4, 149272, Note_on_c, 0, 82, 0
4, 149278, Control_c, 0, 64, 0
4, 149358, Note_on_c, 0, 81, 46
4, 149360, Note_on_c, 0, 68, 48
4, 149368, Note_on_c, 0, 62, 30
4, 149378, Note_on_c, 0, 68, 0
4, 149382, Note_on_c, 0, 81, 0
4, 149390, Note_on_c, 0, 62, 0
4, 149604, Note_on_c, 0, 62, 24
4, 149626, Note_on_c, 0, 62, 0
4, 149732, Note_on_c, 0, 62, 48
4, 149736, Note_on_c, 0, 65, 60
4, 149744, Note_on_c, 0, 82, 65
4, 149752, Note_on_c, 0, 70, 55
4, 149754, Note_on_c, 0, 65, 0
4, 149756, Note_on_c, 0, 55, 24
4, 149764, Note_on_c, 0, 62, 0
4, 149780, Note_on_c, 0, 55, 0
4, 149784, Note_on_c, 0, 70, 0
4, 149808, Note_on_c, 0, 82, 0
4, 150102, Note_on_c, 0, 62, 60
4, 150102, Note_on_c, 0, 58, 42
4, 150104, Note_on_c, 0, 65, 72
4, 150104, Note_on_c, 0, 85, 83
4, 150106, Note_on_c, 0, 73, 90
4, 150112, Note_on_c, 0, 55, 56
4, 150120, Note_on_c, 0, 86, 69
4, 150160, Note_on_c, 0, 74, 52
4, 150164, Note_on_c, 0, 73, 0
4, 150176, Note_on_c, 0, 85, 0
4, 150266, Note_on_c, 0, 62, 0
4, 150270, Control_c, 0, 64, 127
4, 150272, Note_on_c, 0, 65, 0
4, 150290, Note_on_c, 0, 86, 0
4, 150294, Note_on_c, 0, 55, 0
4, 150316, Note_on_c, 0, 74, 0
4, 150320, Note_on_c, 0, 58, 0
4, 150454, Control_c, 0, 64, 0
4, 150506, Note_on_c, 0, 63, 57
4, 150508, Note_on_c, 0, 82, 60
4, 150512, Note_on_c, 0, 58, 43
4, 150518, Note_on_c, 0, 70, 51
4, 150520, Note_on_c, 0, 52, 44
4, 150570, Note_on_c, 0, 52, 0
4, 150572, Note_on_c, 0, 63, 0
4, 150584, Note_on_c, 0, 70, 0
4, 150584, Note_on_c, 0, 58, 0
4, 150608, Note_on_c, 0, 82, 0
4, 150712, Control_c, 0, 64, 127
4, 150850, Control_c, 0, 64, 0
4, 150884, Note_on_c, 0, 63, 72
4, 150886, Note_on_c, 0, 88, 91
4, 150888, Note_on_c, 0, 52, 71
4, 150892, Note_on_c, 0, 58, 52
4, 150892, Note_on_c, 0, 76, 83
4, 151014, Control_c, 0, 64, 127
4, 151100, Note_on_c, 0, 76, 0
4, 151166, Note_on_c, 0, 88, 0
4, 151176, Note_on_c, 0, 52, 0
4, 151232, Note_on_c, 0, 63, 0
4, 151276, Note_on_c, 0, 58, 0
4, 151276, Control_c, 0, 64, 0
4, 151290, Note_on_c, 0, 87, 84
4, 151296, Note_on_c, 0, 62, 49
4, 151298, Note_on_c, 0, 51, 46
4, 151298, Note_on_c, 0, 57, 53
4, 151388, Note_on_c, 0, 87, 0
4, 151396, Note_on_c, 0, 88, 56
4, 151450, Note_on_c, 0, 62, 0
4, 151468, Note_on_c, 0, 87, 56
4, 151480, Note_on_c, 0, 88, 0
4, 151512, Note_on_c, 0, 57, 0
4, 151524, Note_on_c, 0, 85, 37
4, 151538, Note_on_c, 0, 87, 0
4, 151564, Control_c, 0, 64, 127
4, 151598, Note_on_c, 0, 85, 0
4, 151606, Note_on_c, 0, 82, 26
4, 151646, Note_on_c, 0, 82, 0
4, 151646, Control_c, 0, 64, 0
4, 151664, Note_on_c, 0, 57, 45
4, 151676, Note_on_c, 0, 62, 38
4, 151702, Note_on_c, 0, 87, 79
4, 151856, Note_on_c, 0, 62, 0
4, 151884, Note_on_c, 0, 87, 0
4, 151910, Note_on_c, 0, 51, 0
4, 151932, Control_c, 0, 64, 127
4, 151944, Note_on_c, 0, 85, 82
4, 151986, Note_on_c, 0, 60, 46
4, 151994, Note_on_c, 0, 50, 37
4, 152014, Control_c, 0, 64, 0
4, 152030, Note_on_c, 0, 85, 0
4, 152118, Note_on_c, 0, 84, 73
4, 152188, Note_on_c, 0, 84, 0
4, 152212, Note_on_c, 0, 60, 0
4, 152240, Note_on_c, 0, 57, 0
4, 152242, Note_on_c, 0, 81, 54
4, 152298, Note_on_c, 0, 81, 0
4, 152342, Note_on_c, 0, 77, 62
4, 152354, Control_c, 0, 64, 127
4, 152396, Note_on_c, 0, 77, 0
4, 152416, Control_c, 0, 64, 0
4, 152448, Note_on_c, 0, 72, 70
4, 152474, Note_on_c, 0, 57, 22
4, 152474, Note_on_c, 0, 60, 17
4, 152532, Note_on_c, 0, 72, 0
4, 152578, Note_on_c, 0, 69, 36
4, 152608, Note_on_c, 0, 57, 0
4, 152624, Note_on_c, 0, 50, 0
4, 152682, Note_on_c, 0, 60, 0
4, 152712, Control_c, 0, 64, 127
4, 152782, Note_on_c, 0, 69, 0
4, 152800, Control_c, 0, 64, 0
4, 152844, Note_on_c, 0, 64, 36
4, 152848, Note_on_c, 0, 82, 87
4, 152852, Note_on_c, 0, 59, 36
4, 152856, Note_on_c, 0, 53, 30
4, 152880, Note_on_c, 0, 83, 28
4, 152892, Note_on_c, 0, 64, 0
4, 152896, Note_on_c, 0, 83, 0
4, 152896, Note_on_c, 0, 59, 0
4, 152918, Note_on_c, 0, 53, 0
4, 152932, Note_on_c, 0, 82, 0
4, 152954, Note_on_c, 0, 80, 63
4, 153042, Note_on_c, 0, 80, 0
4, 153046, Note_on_c, 0, 75, 61
4, 153114, Note_on_c, 0, 75, 0
4, 153140, Note_on_c, 0, 71, 53
4, 153148, Control_c, 0, 64, 127
4, 153180, Control_c, 0, 64, 0
4, 153204, Note_on_c, 0, 63, 14
4, 153208, Note_on_c, 0, 59, 24
4, 153212, Note_on_c, 0, 71, 0
4, 153220, Note_on_c, 0, 53, 19
4, 153240, Note_on_c, 0, 70, 59
4, 153296, Note_on_c, 0, 70, 0
4, 153302, Note_on_c, 0, 63, 0
4, 153310, Note_on_c, 0, 59, 0
4, 153340, Note_on_c, 0, 68, 64
4, 153342, Note_on_c, 0, 53, 0
4, 153408, Note_on_c, 0, 68, 0
4, 153434, Note_on_c, 0, 67, 31
4, 153452, Control_c, 0, 64, 127
4, 153480, Note_on_c, 0, 67, 0
4, 153528, Note_on_c, 0, 55, 35
4, 153530, Note_on_c, 0, 64, 40
4, 153570, Control_c, 0, 64, 0
4, 153572, Note_on_c, 0, 64, 0
4, 153604, Note_on_c, 0, 55, 0
4, 153612, Note_on_c, 0, 65, 54
4, 153614, Note_on_c, 0, 58, 36
4, 153628, Note_on_c, 0, 48, 38
4, 153690, Note_on_c, 0, 65, 0
4, 153706, Note_on_c, 0, 58, 0
4, 153736, Note_on_c, 0, 62, 32
4, 153806, Note_on_c, 0, 62, 0
4, 153820, Note_on_c, 0, 63, 46
4, 153832, Control_c, 0, 64, 127
4, 153880, Note_on_c, 0, 63, 0
4, 153928, Note_on_c, 0, 65, 31
4, 153950, Control_c, 0, 64, 0
4, 153954, Note_on_c, 0, 65, 0
4, 153954, Note_on_c, 0, 58, 18
4, 154008, Note_on_c, 0, 48, 0
4, 154046, Note_on_c, 0, 80, 83
4, 154052, Note_on_c, 0, 58, 0
4, 154134, Note_on_c, 0, 80, 0
4, 154148, Note_on_c, 0, 78, 47
4, 154150, Control_c, 0, 64, 127
4, 154224, Note_on_c, 0, 78, 0
4, 154330, Control_c, 0, 64, 0
4, 154340, Note_on_c, 0, 69, 32
4, 154346, Note_on_c, 0, 68, 36
4, 154352, Note_on_c, 0, 63, 33
4, 154358, Note_on_c, 0, 57, 30
4, 154362, Note_on_c, 0, 68, 0
4, 154370, Note_on_c, 0, 61, 25
4, 154394, Note_on_c, 0, 69, 0
4, 154396, Note_on_c, 0, 61, 0
4, 154400, Note_on_c, 0, 57, 0
4, 154404, Note_on_c, 0, 63, 0
4, 154432, Note_on_c, 0, 68, 55
4, 154482, Note_on_c, 0, 68, 0
4, 154540, Note_on_c, 0, 66, 63
4, 154616, Note_on_c, 0, 66, 0
4, 154626, Note_on_c, 0, 65, 60
4, 154638, Control_c, 0, 64, 127
4, 154662, Note_on_c, 0, 65, 0
4, 154712, Note_on_c, 0, 63, 64
4, 154724, Control_c, 0, 64, 0
4, 154726, Note_on_c, 0, 51, 35
4, 154790, Note_on_c, 0, 63, 0
4, 154820, Note_on_c, 0, 62, 38
4, 154864, Note_on_c, 0, 62, 0
4, 154890, Note_on_c, 0, 61, 52
4, 154896, Note_on_c, 0, 51, 0
4, 154956, Note_on_c, 0, 61, 0
4, 154970, Note_on_c, 0, 60, 39
4, 155018, Control_c, 0, 64, 127
4, 155026, Note_on_c, 0, 60, 0
4, 155054, Note_on_c, 0, 58, 55
4, 155088, Note_on_c, 0, 48, 30
4, 155116, Note_on_c, 0, 48, 0
4, 155124, Control_c, 0, 64, 0
4, 155136, Note_on_c, 0, 56, 52
4, 155146, Note_on_c, 0, 51, 20
4, 155156, Note_on_c, 0, 58, 0
4, 155222, Note_on_c, 0, 56, 0
4, 155254, Note_on_c, 0, 53, 43
4, 155276, Note_on_c, 0, 53, 0
4, 155328, Note_on_c, 0, 55, 58
4, 155356, Note_on_c, 0, 51, 0
4, 155392, Note_on_c, 0, 55, 0
4, 155408, Control_c, 0, 64, 127
4, 155422, Note_on_c, 0, 56, 63
4, 155448, Control_c, 0, 64, 0
4, 155458, Note_on_c, 0, 51, 35
4, 155500, Note_on_c, 0, 56, 0
4, 155510, Note_on_c, 0, 51, 0
4, 155526, Note_on_c, 0, 58, 39
4, 155578, Note_on_c, 0, 58, 0
4, 155610, Note_on_c, 0, 60, 62
4, 155664, Note_on_c, 0, 60, 0
4, 155700, Control_c, 0, 64, 127
4, 155702, Note_on_c, 0, 62, 39
4, 155758, Note_on_c, 0, 62, 0
4, 155792, Note_on_c, 0, 63, 46
4, 155844, Note_on_c, 0, 63, 0
4, 155848, Control_c, 0, 64, 0
4, 155862, Note_on_c, 0, 56, 33
4, 155866, Note_on_c, 0, 46, 33
4, 155878, Note_on_c, 0, 64, 26
4, 155902, Note_on_c, 0, 46, 0
4, 155930, Note_on_c, 0, 56, 0
4, 155954, Note_on_c, 0, 64, 0
4, 156096, Control_c, 0, 64, 127
4, 156182, Note_on_c, 0, 67, 80
4, 156190, Note_on_c, 0, 62, 43
4, 156194, Note_on_c, 0, 56, 39
4, 156204, Control_c, 0, 64, 0
4, 156260, Note_on_c, 0, 67, 0
4, 156272, Note_on_c, 0, 66, 56
4, 156306, Control_c, 0, 64, 127
4, 156332, Note_on_c, 0, 62, 0
4, 156336, Control_c, 0, 64, 0
4, 156340, Note_on_c, 0, 66, 0
4, 156340, Note_on_c, 0, 56, 0
4, 156372, Note_on_c, 0, 68, 71
4, 156374, Note_on_c, 0, 56, 26
4, 156376, Note_on_c, 0, 62, 24
4, 156380, Note_on_c, 0, 66, 36
4, 156418, Note_on_c, 0, 66, 0
4, 156438, Note_on_c, 0, 68, 0
4, 156440, Control_c, 0, 64, 127
4, 156466, Note_on_c, 0, 67, 45
4, 156492, Note_on_c, 0, 56, 0
4, 156520, Note_on_c, 0, 67, 0
4, 156522, Control_c, 0, 64, 0
4, 156532, Note_on_c, 0, 56, 33
4, 156548, Note_on_c, 0, 66, 38
4, 156558, Note_on_c, 0, 69, 80
4, 156578, Control_c, 0, 64, 127
4, 156626, Note_on_c, 0, 66, 0
4, 156626, Note_on_c, 0, 62, 0
4, 156628, Note_on_c, 0, 69, 0
4, 156638, Note_on_c, 0, 68, 55
4, 156650, Note_on_c, 0, 56, 0
4, 156690, Control_c, 0, 64, 0
4, 156696, Note_on_c, 0, 60, 26
4, 156698, Note_on_c, 0, 62, 17
4, 156700, Note_on_c, 0, 68, 0
4, 156702, Note_on_c, 0, 65, 38
4, 156710, Note_on_c, 0, 55, 38
4, 156732, Note_on_c, 0, 70, 56
4, 156866, Control_c, 0, 64, 127
4, 156928, Note_on_c, 0, 65, 0
4, 156930, Note_on_c, 0, 60, 0
4, 156940, Note_on_c, 0, 62, 0
4, 156974, Control_c, 0, 64, 0
4, 157032, Note_on_c, 0, 60, 35
4, 157032, Note_on_c, 0, 65, 43
4, 157036, Note_on_c, 0, 62, 28
4, 157070, Control_c, 0, 64, 127
4, 157130, Note_on_c, 0, 62, 0
4, 157138, Note_on_c, 0, 65, 0
4, 157178, Note_on_c, 0, 60, 0
4, 157238, Note_on_c, 0, 70, 0
4, 157248, Note_on_c, 0, 69, 54
4, 157250, Note_on_c, 0, 55, 0
4, 157322, Note_on_c, 0, 69, 0
4, 157342, Note_on_c, 0, 70, 57
4, 157384, Note_on_c, 0, 70, 0
4, 157410, Control_c, 0, 64, 0
4, 157420, Note_on_c, 0, 54, 34
4, 157422, Note_on_c, 0, 65, 26
4, 157428, Note_on_c, 0, 60, 40
4, 157430, Note_on_c, 0, 58, 26
4, 157440, Note_on_c, 0, 72, 47
4, 157640, Control_c, 0, 64, 127
4, 157706, Note_on_c, 0, 65, 0
4, 157718, Note_on_c, 0, 58, 0
4, 157722, Note_on_c, 0, 60, 0
4, 157724, Note_on_c, 0, 54, 0
4, 157798, Control_c, 0, 64, 0
4, 157812, Note_on_c, 0, 65, 27
4, 157814, Note_on_c, 0, 54, 28
4, 157814, Note_on_c, 0, 60, 38
4, 157822, Note_on_c, 0, 58, 28
4, 157850, Control_c, 0, 64, 127
4, 157864, Note_on_c, 0, 65, 0
4, 157888, Note_on_c, 0, 60, 0
4, 157912, Note_on_c, 0, 58, 0
4, 157914, Note_on_c, 0, 72, 0
4, 157916, Note_on_c, 0, 54, 0
4, 157922, Control_c, 0, 64, 0
4, 157944, Note_on_c, 0, 71, 54
4, 157984, Control_c, 0, 64, 127
4, 158002, Note_on_c, 0, 71, 0
4, 158044, Note_on_c, 0, 51, 51
4, 158050, Note_on_c, 0, 61, 45
4, 158058, Note_on_c, 0, 72, 65
4, 158116, Note_on_c, 0, 61, 0
4, 158150, Note_on_c, 0, 72, 0
4, 158158, Control_c, 0, 64, 0
4, 158166, Note_on_c, 0, 51, 0
4, 158186, Note_on_c, 0, 74, 66
4, 158190, Note_on_c, 0, 60, 43
4, 158192, Note_on_c, 0, 50, 51
4, 158202, Note_on_c, 0, 57, 29
4, 158242, Note_on_c, 0, 74, 0
4, 158308, Note_on_c, 0, 69, 62
4, 158358, Note_on_c, 0, 69, 0
4, 158358, Note_on_c, 0, 57, 0
4, 158374, Note_on_c, 0, 50, 0
4, 158398, Note_on_c, 0, 60, 0
4, 158428, Note_on_c, 0, 64, 50
4, 158446, Control_c, 0, 64, 127
4, 158512, Note_on_c, 0, 64, 0
4, 158534, Control_c, 0, 64, 0
4, 158552, Note_on_c, 0, 64, 51
4, 158560, Note_on_c, 0, 71, 67
4, 158564, Note_on_c, 0, 59, 39
4, 158584, Note_on_c, 0, 64, 0
4, 158600, Note_on_c, 0, 59, 0
4, 158630, Note_on_c, 0, 71, 0
4, 158674, Note_on_c, 0, 67, 50
4, 158746, Note_on_c, 0, 67, 0
4, 158786, Note_on_c, 0, 63, 44
4, 158816, Control_c, 0, 64, 127
4, 158860, Note_on_c, 0, 63, 0
4, 158894, Control_c, 0, 64, 0
4, 158920, Note_on_c, 0, 70, 73
4, 158928, Note_on_c, 0, 58, 37
4, 158974, Note_on_c, 0, 58, 0
4, 158990, Note_on_c, 0, 70, 0
4, 159050, Note_on_c, 0, 67, 30
4, 159084, Note_on_c, 0, 67, 0
4, 159174, Note_on_c, 0, 48, 45
4, 159196, Note_on_c, 0, 60, 30
4, 159200, Note_on_c, 0, 48, 0
4, 159206, Control_c, 0, 64, 127
4, 159214, Note_on_c, 0, 60, 0
4, 159278, Control_c, 0, 64, 0
4, 159310, Note_on_c, 0, 68, 64
4, 159326, Note_on_c, 0, 57, 49
4, 159332, Note_on_c, 0, 61, 37
4, 159332, Note_on_c, 0, 56, 47
4, 159334, Note_on_c, 0, 63, 33
4, 159372, Note_on_c, 0, 57, 0
4, 159380, Note_on_c, 0, 68, 0
4, 159398, Note_on_c, 0, 63, 0
4, 159410, Note_on_c, 0, 61, 0
4, 159438, Note_on_c, 0, 56, 0
4, 159438, Note_on_c, 0, 61, 23
4, 159440, Note_on_c, 0, 70, 59
4, 159454, Note_on_c, 0, 54, 55
4, 159500, Note_on_c, 0, 70, 0
4, 159514, Control_c, 0, 64, 127
4, 159514, Note_on_c, 0, 57, 12
4, 159558, Note_on_c, 0, 57, 0
4, 159592, Note_on_c, 0, 61, 0
4, 159612, Note_on_c, 0, 54, 0
4, 159636, Note_on_c, 0, 51, 27
4, 159654, Note_on_c, 0, 51, 0
4, 159684, Control_c, 0, 64, 0
4, 159694, Note_on_c, 0, 55, 49
4, 159696, Note_on_c, 0, 65, 56
4, 159704, Note_on_c, 0, 60, 60
4, 159730, Note_on_c, 0, 50, 24
4, 159922, Note_on_c, 0, 55, 0
4, 159938, Note_on_c, 0, 50, 0
4, 159938, Note_on_c, 0, 60, 0
4, 159940, Note_on_c, 0, 65, 0
4, 159954, Control_c, 0, 64, 127
4, 159988, Note_on_c, 0, 49, 30
4, 160062, Note_on_c, 0, 49, 0
4, 160078, Control_c, 0, 64, 0
4, 160098, Note_on_c, 0, 67, 47
4, 160100, Note_on_c, 0, 57, 50
4, 160104, Note_on_c, 0, 63, 39
4, 160104, Note_on_c, 0, 60, 54
4, 160112, Note_on_c, 0, 55, 40
4, 160304, Control_c, 0, 64, 127
4, 160330, Note_on_c, 0, 67, 0
4, 160372, Note_on_c, 0, 60, 0
4, 160382, Note_on_c, 0, 57, 0
4, 160398, Note_on_c, 0, 63, 0
4, 160450, Note_on_c, 0, 55, 0
4, 160454, Control_c, 0, 64, 0
4, 160468, Note_on_c, 0, 66, 47
4, 160476, Note_on_c, 0, 57, 37
4, 160476, Note_on_c, 0, 63, 37
4, 160478, Note_on_c, 0, 54, 42
4, 160478, Note_on_c, 0, 60, 52
4, 160658, Control_c, 0, 64, 127
4, 160720, Note_on_c, 0, 66, 0
4, 160722, Note_on_c, 0, 60, 0
4, 160732, Note_on_c, 0, 57, 0
4, 160748, Note_on_c, 0, 63, 0
4, 160752, Note_on_c, 0, 51, 30
4, 160770, Note_on_c, 0, 54, 0
4, 160828, Control_c, 0, 64, 0
4, 160854, Note_on_c, 0, 51, 0
4, 160858, Note_on_c, 0, 53, 49
4, 160864, Note_on_c, 0, 65, 48
4, 160864, Note_on_c, 0, 57, 41
4, 160870, Note_on_c, 0, 60, 49
4, 160874, Note_on_c, 0, 62, 27
4, 160910, Control_c, 0, 64, 127
4, 160968, Note_on_c, 0, 57, 0
4, 160972, Note_on_c, 0, 53, 0
4, 160978, Note_on_c, 0, 62, 0
4, 160986, Note_on_c, 0, 60, 0
4, 161000, Note_on_c, 0, 65, 0
4, 161222, Control_c, 0, 64, 0
4, 161252, Note_on_c, 0, 69, 74
4, 161258, Note_on_c, 0, 61, 74
4, 161260, Note_on_c, 0, 57, 75
4, 161260, Note_on_c, 0, 65, 74
4, 161356, Note_on_c, 0, 61, 0
4, 161370, Note_on_c, 0, 57, 0
4, 161374, Note_on_c, 0, 69, 0
4, 161382, Note_on_c, 0, 65, 0
4, 161390, Note_on_c, 0, 72, 66
4, 161394, Note_on_c, 0, 60, 58
4, 161398, Note_on_c, 0, 61, 44
4, 161398, Note_on_c, 0, 65, 20
4, 161474, Control_c, 0, 64, 127
4, 161522, Note_on_c, 0, 72, 0
4, 161550, Note_on_c, 0, 65, 0
4, 161598, Note_on_c, 0, 61, 0
4, 161626, Note_on_c, 0, 60, 0
4, 161626, Control_c, 0, 64, 0
4, 161652, Note_on_c, 0, 70, 60
4, 161654, Note_on_c, 0, 58, 52
4, 161660, Note_on_c, 0, 61, 33
4, 161666, Note_on_c, 0, 67, 38
4, 161670, Note_on_c, 0, 64, 45
4, 161768, Control_c, 0, 64, 127
4, 161784, Note_on_c, 0, 67, 0
4, 161798, Note_on_c, 0, 64, 0
4, 161822, Note_on_c, 0, 70, 0
4, 161828, Note_on_c, 0, 58, 0
4, 161846, Note_on_c, 0, 61, 0
4, 162024, Control_c, 0, 64, 0
4, 162034, Note_on_c, 0, 66, 56
4, 162034, Note_on_c, 0, 63, 52
4, 162036, Note_on_c, 0, 54, 59
4, 162040, Note_on_c, 0, 60, 56
4, 162104, Note_on_c, 0, 60, 0
4, 162146, Note_on_c, 0, 69, 51
4, 162146, Note_on_c, 0, 57, 41
4, 162154, Note_on_c, 0, 60, 18
4, 162174, Note_on_c, 0, 60, 0
4, 162178, Note_on_c, 0, 69, 0
4, 162206, Note_on_c, 0, 66, 0
4, 162214, Note_on_c, 0, 57, 0
4, 162218, Note_on_c, 0, 63, 0
4, 162254, Note_on_c, 0, 54, 0
4, 162288, Note_on_c, 0, 67, 38
4, 162292, Note_on_c, 0, 55, 53
4, 162294, Note_on_c, 0, 62, 49
4, 162314, Note_on_c, 0, 58, 39
4, 162410, Control_c, 0, 64, 127
4, 162414, Note_on_c, 0, 67, 0
4, 162426, Note_on_c, 0, 62, 0
4, 162442, Control_c, 0, 64, 0
4, 162490, Note_on_c, 0, 58, 0
4, 162510, Note_on_c, 0, 55, 0
4, 162550, Note_on_c, 0, 58, 37
4, 162560, Note_on_c, 0, 62, 37
4, 162560, Note_on_c, 0, 50, 45
4, 162626, Note_on_c, 0, 50, 0
4, 162626, Note_on_c, 0, 62, 0
4, 162636, Note_on_c, 0, 58, 0
4, 162652, Control_c, 0, 64, 127
4, 162660, Note_on_c, 0, 65, 65
4, 162666, Note_on_c, 0, 53, 44
4, 162736, Note_on_c, 0, 65, 0
4, 162750, Control_c, 0, 64, 0
4, 162752, Note_on_c, 0, 53, 0
4, 162788, Note_on_c, 0, 51, 43
4, 162790, Note_on_c, 0, 63, 47
4, 162800, Note_on_c, 0, 55, 45
4, 162806, Note_on_c, 0, 58, 40
4, 162884, Note_on_c, 0, 63, 0
4, 162888, Note_on_c, 0, 58, 0
4, 162888, Note_on_c, 0, 55, 0
4, 162930, Note_on_c, 0, 51, 0
4, 162966, Note_on_c, 0, 59, 62
4, 162970, Note_on_c, 0, 47, 55
4, 162972, Note_on_c, 0, 51, 45
4, 163044, Note_on_c, 0, 51, 0
4, 163062, Note_on_c, 0, 47, 0
4, 163064, Note_on_c, 0, 59, 0
4, 163070, Note_on_c, 0, 51, 45
4, 163080, Note_on_c, 0, 50, 59
4, 163082, Note_on_c, 0, 55, 22
4, 163082, Note_on_c, 0, 62, 66
4, 163092, Control_c, 0, 64, 127
4, 163114, Control_c, 0, 64, 0
4, 163136, Note_on_c, 0, 51, 0
4, 163138, Note_on_c, 0, 55, 0
4, 163142, Note_on_c, 0, 62, 0
4, 163168, Note_on_c, 0, 50, 0
4, 163180, Note_on_c, 0, 60, 41
4, 163188, Note_on_c, 0, 51, 35
4, 163202, Note_on_c, 0, 55, 26
4, 163202, Note_on_c, 0, 48, 43
4, 163228, Note_on_c, 0, 48, 0
4, 163228, Note_on_c, 0, 55, 0
4, 163232, Note_on_c, 0, 60, 0
4, 163236, Note_on_c, 0, 51, 0
4, 163360, Control_c, 0, 64, 127
4, 163388, Note_on_c, 0, 41, 69
4, 163426, Note_on_c, 0, 41, 0
4, 163468, Control_c, 0, 64, 0
4, 163566, Note_on_c, 0, 68, 79
4, 163568, Note_on_c, 0, 61, 74
4, 163568, Note_on_c, 0, 57, 82
4, 163574, Note_on_c, 0, 63, 58
4, 163574, Note_on_c, 0, 58, 64
4, 163646, Note_on_c, 0, 58, 0
4, 163652, Note_on_c, 0, 63, 0
4, 163666, Note_on_c, 0, 68, 0
4, 163688, Note_on_c, 0, 66, 47
4, 163692, Note_on_c, 0, 56, 43
4, 163750, Note_on_c, 0, 56, 0
4, 163780, Note_on_c, 0, 63, 1
4, 163806, Control_c, 0, 64, 127
4, 163888, Note_on_c, 0, 66, 0
4, 163890, Note_on_c, 0, 57, 0
4, 163892, Note_on_c, 0, 61, 0
4, 163918, Control_c, 0, 64, 0
4, 163924, Note_on_c, 0, 63, 0
4, 163958, Note_on_c, 0, 57, 54
4, 163962, Note_on_c, 0, 65, 59
4, 163962, Note_on_c, 0, 53, 46
4, 163964, Note_on_c, 0, 61, 33
4, 164044, Note_on_c, 0, 61, 0
4, 164070, Note_on_c, 0, 53, 0
4, 164082, Note_on_c, 0, 63, 42
4, 164084, Note_on_c, 0, 61, 28
4, 164084, Note_on_c, 0, 51, 35
4, 164130, Note_on_c, 0, 65, 0
4, 164130, Note_on_c, 0, 57, 0
4, 164150, Control_c, 0, 64, 127
4, 164154, Note_on_c, 0, 61, 0
4, 164174, Note_on_c, 0, 63, 0
4, 164200, Note_on_c, 0, 51, 0
4, 164236, Note_on_c, 0, 57, 62
4, 164236, Note_on_c, 0, 67, 51
4, 164238, Control_c, 0, 64, 0
4, 164238, Note_on_c, 0, 55, 58
4, 164240, Note_on_c, 0, 64, 51
4, 164242, Note_on_c, 0, 60, 62
4, 164314, Note_on_c, 0, 57, 0
4, 164338, Note_on_c, 0, 60, 0
4, 164354, Note_on_c, 0, 55, 0
4, 164356, Note_on_c, 0, 64, 0
4, 164368, Note_on_c, 0, 67, 0
4, 164504, Note_on_c, 0, 76, 68
4, 164570, Note_on_c, 0, 76, 0
4, 164592, Control_c, 0, 64, 127
4, 164600, Note_on_c, 0, 79, 82
4, 164678, Note_on_c, 0, 79, 0
4, 164684, Control_c, 0, 64, 0
4, 164712, Note_on_c, 0, 64, 30
4, 164716, Note_on_c, 0, 77, 68
4, 164720, Note_on_c, 0, 59, 40
4, 164722, Note_on_c, 0, 53, 22
4, 164860, Note_on_c, 0, 77, 0
4, 164862, Note_on_c, 0, 67, 49
4, 164880, Control_c, 0, 64, 127
4, 164934, Note_on_c, 0, 67, 0
4, 164982, Note_on_c, 0, 67, 58
4, 165008, Note_on_c, 0, 64, 0
4, 165012, Note_on_c, 0, 59, 0
4, 165052, Note_on_c, 0, 67, 0
4, 165068, Control_c, 0, 64, 0
4, 165104, Note_on_c, 0, 64, 34
4, 165108, Note_on_c, 0, 67, 35
4, 165122, Note_on_c, 0, 59, 15
4, 165260, Control_c, 0, 64, 127
4, 165264, Note_on_c, 0, 64, 0
4, 165266, Note_on_c, 0, 59, 0
4, 165282, Note_on_c, 0, 67, 0
4, 165352, Note_on_c, 0, 67, 32
4, 165454, Note_on_c, 0, 67, 0
4, 165478, Note_on_c, 0, 64, 20
4, 165478, Note_on_c, 0, 59, 24
4, 165520, Note_on_c, 0, 59, 0
4, 165532, Note_on_c, 0, 53, 0
4, 165622, Note_on_c, 0, 64, 0
4, 165834, Control_c, 0, 64, 0
4, 165856, Note_on_c, 0, 67, 35
4, 165860, Note_on_c, 0, 63, 34
4, 165868, Note_on_c, 0, 62, 28
4, 165872, Note_on_c, 0, 58, 23
4, 166060, Control_c, 0, 64, 127
4, 166142, Note_on_c, 0, 67, 0
4, 166172, Note_on_c, 0, 63, 0
4, 166234, Control_c, 0, 64, 0
4, 166246, Note_on_c, 0, 67, 30
4, 166252, Note_on_c, 0, 74, 62
4, 166298, Note_on_c, 0, 74, 0
4, 166310, Note_on_c, 0, 75, 65
4, 166358, Note_on_c, 0, 75, 0
4, 166372, Note_on_c, 0, 79, 49
4, 166414, Note_on_c, 0, 67, 0
4, 166416, Note_on_c, 0, 76, 52
4, 166420, Note_on_c, 0, 79, 0
4, 166472, Note_on_c, 0, 62, 0
4, 166480, Note_on_c, 0, 76, 0
4, 166480, Note_on_c, 0, 77, 54
4, 166542, Note_on_c, 0, 80, 38
4, 166544, Note_on_c, 0, 77, 0
4, 166558, Control_c, 0, 64, 127
4, 166588, Note_on_c, 0, 77, 55
4, 166594, Note_on_c, 0, 80, 0
4, 166608, Note_on_c, 0, 58, 0
4, 166630, Control_c, 0, 64, 0
4, 166644, Note_on_c, 0, 67, 35
4, 166648, Note_on_c, 0, 63, 34
4, 166648, Note_on_c, 0, 57, 42
4, 166654, Note_on_c, 0, 77, 0
4, 166658, Note_on_c, 0, 79, 40
4, 166722, Note_on_c, 0, 79, 0
4, 166728, Note_on_c, 0, 82, 48
4, 166776, Note_on_c, 0, 82, 0
4, 166790, Note_on_c, 0, 67, 0
4, 166896, Note_on_c, 0, 57, 0
4, 166964, Control_c, 0, 64, 127
4, 166976, Note_on_c, 0, 63, 0
4, 167030, Control_c, 0, 64, 0
4, 167052, Note_on_c, 0, 63, 27
4, 167056, Note_on_c, 0, 67, 19
4, 167060, Note_on_c, 0, 57, 33
4, 167116, Note_on_c, 0, 79, 48
4, 167164, Note_on_c, 0, 81, 64
4, 167168, Note_on_c, 0, 79, 0
4, 167172, Note_on_c, 0, 67, 0
4, 167188, Note_on_c, 0, 57, 0
4, 167226, Note_on_c, 0, 81, 0
4, 167234, Note_on_c, 0, 84, 70
4, 167266, Control_c, 0, 64, 127
4, 167276, Note_on_c, 0, 81, 40
4, 167278, Note_on_c, 0, 84, 0
4, 167280, Note_on_c, 0, 63, 0
4, 167328, Note_on_c, 0, 82, 68
4, 167340, Note_on_c, 0, 81, 0
4, 167358, Control_c, 0, 64, 0
4, 167362, Note_on_c, 0, 82, 0
4, 167364, Note_on_c, 0, 63, 27
4, 167376, Note_on_c, 0, 67, 19
4, 167378, Note_on_c, 0, 56, 25
4, 167394, Note_on_c, 0, 60, 26
4, 167412, Note_on_c, 0, 86, 48
4, 167428, Note_on_c, 0, 83, 52
4, 167430, Note_on_c, 0, 86, 0
4, 167490, Note_on_c, 0, 84, 58
4, 167502, Note_on_c, 0, 83, 0
4, 167528, Note_on_c, 0, 67, 0
4, 167546, Note_on_c, 0, 87, 50
4, 167556, Note_on_c, 0, 84, 0
4, 167598, Note_on_c, 0, 87, 0
4, 167598, Note_on_c, 0, 84, 53
4, 167644, Note_on_c, 0, 84, 0
4, 167644, Note_on_c, 0, 86, 64
4, 167648, Note_on_c, 0, 63, 0
4, 167650, Note_on_c, 0, 60, 0
4, 167672, Control_c, 0, 64, 127
4, 167704, Note_on_c, 0, 86, 0
4, 167708, Note_on_c, 0, 89, 65
4, 167748, Note_on_c, 0, 86, 48
4, 167754, Note_on_c, 0, 89, 0
4, 167758, Control_c, 0, 64, 0
4, 167780, Note_on_c, 0, 63, 35
4, 167782, Note_on_c, 0, 67, 20
4, 167796, Note_on_c, 0, 60, 32
4, 167804, Note_on_c, 0, 87, 61
4, 167808, Note_on_c, 0, 86, 0
4, 167874, Note_on_c, 0, 87, 0
4, 167878, Note_on_c, 0, 91, 51
4, 167914, Note_on_c, 0, 91, 0
4, 168068, Control_c, 0, 64, 127
4, 168094, Note_on_c, 0, 67, 0
4, 168126, Note_on_c, 0, 56, 0
4, 168152, Note_on_c, 0, 63, 0
4, 168162, Note_on_c, 0, 60, 0
4, 168170, Control_c, 0, 64, 0
4, 168188, Note_on_c, 0, 66, 61
4, 168192, Note_on_c, 0, 56, 37
4, 168194, Note_on_c, 0, 62, 46
4, 168364, Control_c, 0, 64, 127
4, 168408, Note_on_c, 0, 88, 70
4, 168458, Note_on_c, 0, 88, 0
4, 168500, Note_on_c, 0, 89, 66
4, 168524, Control_c, 0, 64, 0
4, 168558, Note_on_c, 0, 89, 0
4, 168610, Note_on_c, 0, 94, 76
4, 168682, Note_on_c, 0, 94, 0
4, 168710, Note_on_c, 0, 91, 49
4, 168760, Note_on_c, 0, 91, 0
4, 168780, Control_c, 0, 64, 127
4, 168786, Note_on_c, 0, 92, 72
4, 168806, Note_on_c, 0, 66, 0
4, 168824, Note_on_c, 0, 92, 0
4, 168864, Note_on_c, 0, 92, 51
4, 168868, Note_on_c, 0, 62, 0
4, 168894, Note_on_c, 0, 92, 0
4, 168904, Note_on_c, 0, 93, 44
4, 168908, Note_on_c, 0, 56, 0
4, 168934, Note_on_c, 0, 93, 0
4, 168934, Control_c, 0, 64, 0
4, 168936, Note_on_c, 0, 65, 34
4, 168938, Note_on_c, 0, 62, 33
4, 168942, Note_on_c, 0, 55, 39
4, 168944, Note_on_c, 0, 60, 41
4, 169012, Note_on_c, 0, 94, 54
4, 169064, Note_on_c, 0, 94, 0
4, 169102, Note_on_c, 0, 96, 75
4, 169104, Note_on_c, 0, 84, 69
4, 169138, Note_on_c, 0, 96, 0
4, 169140, Note_on_c, 0, 84, 0
4, 169156, Note_on_c, 0, 65, 0
4, 169188, Note_on_c, 0, 60, 0
4, 169196, Control_c, 0, 64, 127
4, 169198, Note_on_c, 0, 97, 76
4, 169202, Note_on_c, 0, 62, 0
4, 169202, Note_on_c, 0, 85, 70
4, 169230, Note_on_c, 0, 85, 0
4, 169246, Note_on_c, 0, 97, 0
4, 169284, Note_on_c, 0, 97, 60
4, 169288, Note_on_c, 0, 85, 67
4, 169294, Note_on_c, 0, 91, 40
4, 169298, Note_on_c, 0, 94, 43
4, 169298, Control_c, 0, 64, 0
4, 169310, Note_on_c, 0, 62, 33
4, 169318, Note_on_c, 0, 65, 30
4, 169320, Note_on_c, 0, 60, 35
4, 169338, Note_on_c, 0, 85, 0
4, 169352, Note_on_c, 0, 97, 0
4, 169362, Note_on_c, 0, 91, 0
4, 169370, Note_on_c, 0, 94, 0
4, 169406, Note_on_c, 0, 85, 62
4, 169406, Note_on_c, 0, 97, 48
4, 169410, Note_on_c, 0, 94, 50
4, 169412, Note_on_c, 0, 91, 30
4, 169430, Note_on_c, 0, 98, 60
4, 169442, Note_on_c, 0, 85, 0
4, 169446, Note_on_c, 0, 96, 24
4, 169452, Note_on_c, 0, 97, 0
4, 169452, Note_on_c, 0, 86, 58
4, 169474, Note_on_c, 0, 86, 0
4, 169474, Control_c, 0, 64, 127
4, 169494, Note_on_c, 0, 96, 0
4, 169496, Note_on_c, 0, 98, 0
4, 169510, Note_on_c, 0, 65, 0
4, 169518, Note_on_c, 0, 91, 0
4, 169532, Note_on_c, 0, 62, 0
4, 169536, Note_on_c, 0, 60, 0
4, 169538, Note_on_c, 0, 94, 0
4, 169568, Note_on_c, 0, 97, 47
4, 169570, Note_on_c, 0, 85, 57
4, 169578, Note_on_c, 0, 94, 47
4, 169586, Note_on_c, 0, 55, 0
4, 169590, Note_on_c, 0, 91, 24
4, 169596, Note_on_c, 0, 98, 54
4, 169606, Note_on_c, 0, 85, 0
4, 169612, Note_on_c, 0, 97, 0
4, 169614, Note_on_c, 0, 96, 42
4, 169614, Note_on_c, 0, 86, 68
4, 169638, Note_on_c, 0, 86, 0
4, 169652, Note_on_c, 0, 98, 0
4, 169678, Note_on_c, 0, 91, 0
4, 169682, Note_on_c, 0, 96, 0
4, 169692, Note_on_c, 0, 94, 0
4, 169694, Note_on_c, 0, 65, 36
4, 169694, Control_c, 0, 64, 0
4, 169708, Note_on_c, 0, 58, 21
4, 169714, Note_on_c, 0, 60, 42
4, 169714, Note_on_c, 0, 54, 29
4, 169730, Note_on_c, 0, 97, 47
4, 169732, Note_on_c, 0, 85, 42
4, 169740, Note_on_c, 0, 94, 48
4, 169746, Note_on_c, 0, 91, 29
4, 169750, Note_on_c, 0, 98, 64
4, 169764, Note_on_c, 0, 85, 0
4, 169764, Note_on_c, 0, 96, 32
4, 169770, Note_on_c, 0, 97, 0
4, 169770, Note_on_c, 0, 86, 68
4, 169810, Note_on_c, 0, 86, 0
4, 169818, Note_on_c, 0, 98, 0
4, 169832, Control_c, 0, 64, 127
4, 169840, Note_on_c, 0, 96, 0
4, 169850, Note_on_c, 0, 91, 0
4, 169876, Note_on_c, 0, 97, 53
4, 169876, Note_on_c, 0, 85, 52
4, 169890, Note_on_c, 0, 91, 32
4, 169940, Note_on_c, 0, 65, 0
4, 169950, Note_on_c, 0, 60, 0
4, 169958, Note_on_c, 0, 91, 0
4, 169970, Note_on_c, 0, 97, 0
4, 169974, Note_on_c, 0, 85, 0
4, 169976, Note_on_c, 0, 58, 0
4, 169978, Note_on_c, 0, 94, 0
4, 170012, Note_on_c, 0, 96, 59
4, 170018, Note_on_c, 0, 91, 44
4, 170020, Note_on_c, 0, 84, 52
4, 170036, Note_on_c, 0, 94, 23
4, 170084, Control_c, 0, 64, 0
4, 170106, Note_on_c, 0, 65, 31
4, 170108, Note_on_c, 0, 58, 25
4, 170114, Note_on_c, 0, 60, 38
4, 170172, Control_c, 0, 64, 127
4, 170176, Note_on_c, 0, 65, 0
4, 170180, Note_on_c, 0, 60, 0
4, 170206, Note_on_c, 0, 58, 0
4, 170218, Note_on_c, 0, 54, 0
4, 170220, Note_on_c, 0, 96, 0
4, 170236, Note_on_c, 0, 91, 0
4, 170266, Note_on_c, 0, 94, 0
4, 170272, Note_on_c, 0, 84, 0
4, 170342, Note_on_c, 0, 51, 42
4, 170346, Note_on_c, 0, 94, 73
4, 170346, Note_on_c, 0, 61, 42
4, 170348, Note_on_c, 0, 82, 67
4, 170356, Note_on_c, 0, 58, 43
4, 170366, Note_on_c, 0, 54, 43
4, 170422, Note_on_c, 0, 61, 0
4, 170442, Control_c, 0, 64, 0
4, 170448, Note_on_c, 0, 82, 0
4, 170450, Note_on_c, 0, 58, 0
4, 170452, Note_on_c, 0, 94, 0
4, 170454, Note_on_c, 0, 51, 0
4, 170482, Note_on_c, 0, 54, 0
4, 170482, Note_on_c, 0, 60, 37
4, 170486, Note_on_c, 0, 57, 35
4, 170488, Note_on_c, 0, 93, 60
4, 170494, Note_on_c, 0, 50, 35
4, 170496, Note_on_c, 0, 81, 44
4, 170542, Note_on_c, 0, 93, 0
4, 170542, Note_on_c, 0, 60, 0
4, 170544, Note_on_c, 0, 50, 0
4, 170550, Note_on_c, 0, 57, 0
4, 170556, Note_on_c, 0, 81, 0
4, 170700, Control_c, 0, 64, 127
4, 170734, Note_on_c, 0, 89, 64
4, 170734, Note_on_c, 0, 60, 49
4, 170736, Note_on_c, 0, 77, 54
4, 170744, Note_on_c, 0, 57, 24
4, 170756, Note_on_c, 0, 84, 27
4, 170766, Note_on_c, 0, 57, 0
4, 170772, Note_on_c, 0, 84, 0
4, 170788, Note_on_c, 0, 77, 0
4, 170790, Note_on_c, 0, 60, 0
4, 170804, Note_on_c, 0, 89, 0
4, 170854, Control_c, 0, 64, 0
4, 170860, Note_on_c, 0, 59, 42
4, 170862, Note_on_c, 0, 64, 44
4, 170872, Note_on_c, 0, 91, 40
4, 170874, Note_on_c, 0, 79, 46
4, 170880, Note_on_c, 0, 53, 31
4, 170886, Note_on_c, 0, 89, 34
4, 170926, Note_on_c, 0, 91, 0
4, 170932, Control_c, 0, 64, 127
4, 170934, Note_on_c, 0, 79, 0
4, 170934, Note_on_c, 0, 89, 0
4, 170966, Note_on_c, 0, 53, 0
4, 170978, Note_on_c, 0, 59, 0
4, 170980, Note_on_c, 0, 64, 0
4, 171112, Note_on_c, 0, 74, 61
4, 171114, Note_on_c, 0, 64, 48
4, 171120, Note_on_c, 0, 86, 52
4, 171142, Note_on_c, 0, 64, 0
4, 171150, Note_on_c, 0, 86, 0
4, 171150, Note_on_c, 0, 74, 0
4, 171212, Control_c, 0, 64, 0
4, 171232, Note_on_c, 0, 58, 46
4, 171236, Note_on_c, 0, 67, 36
4, 171238, Note_on_c, 0, 89, 71
4, 171238, Note_on_c, 0, 77, 66
4, 171238, Note_on_c, 0, 62, 36
4, 171246, Note_on_c, 0, 63, 32
4, 171268, Note_on_c, 0, 67, 0
4, 171272, Note_on_c, 0, 89, 0
4, 171278, Note_on_c, 0, 77, 0
4, 171322, Note_on_c, 0, 58, 0
4, 171348, Note_on_c, 0, 62, 0
4, 171374, Note_on_c, 0, 63, 0
4, 171484, Note_on_c, 0, 82, 64
4, 171488, Note_on_c, 0, 70, 63
4, 171494, Note_on_c, 0, 67, 51
4, 171498, Note_on_c, 0, 58, 44
4, 171500, Control_c, 0, 64, 127
4, 171512, Note_on_c, 0, 63, 29
4, 171520, Note_on_c, 0, 62, 22
4, 171538, Note_on_c, 0, 62, 0
4, 171550, Note_on_c, 0, 67, 0
4, 171560, Note_on_c, 0, 63, 0
4, 171580, Note_on_c, 0, 58, 0
4, 171642, Control_c, 0, 64, 0
4, 171642, Note_on_c, 0, 67, 36
4, 171644, Note_on_c, 0, 57, 42
4, 171654, Note_on_c, 0, 63, 23
4, 171696, Note_on_c, 0, 67, 0
4, 171758, Note_on_c, 0, 57, 0
4, 171762, Note_on_c, 0, 70, 0
4, 171766, Note_on_c, 0, 63, 0
4, 171770, Note_on_c, 0, 82, 0
4, 171854, Control_c, 0, 64, 127
4, 171866, Note_on_c, 0, 63, 47
4, 171878, Note_on_c, 0, 80, 34
4, 171884, Note_on_c, 0, 68, 42
4, 171908, Note_on_c, 0, 68, 0
4, 171920, Note_on_c, 0, 63, 0
4, 171924, Note_on_c, 0, 80, 0
4, 171972, Control_c, 0, 64, 0
4, 171998, Note_on_c, 0, 82, 61
4, 172000, Note_on_c, 0, 70, 55
4, 172002, Note_on_c, 0, 65, 42
4, 172006, Note_on_c, 0, 62, 24
4, 172010, Note_on_c, 0, 60, 38
4, 172022, Note_on_c, 0, 70, 0
4, 172024, Note_on_c, 0, 65, 0
4, 172028, Note_on_c, 0, 60, 0
4, 172032, Note_on_c, 0, 62, 0
4, 172040, Note_on_c, 0, 82, 0
4, 172224, Control_c, 0, 64, 127
4, 172262, Note_on_c, 0, 62, 30
4, 172264, Note_on_c, 0, 70, 62
4, 172266, Note_on_c, 0, 65, 31
4, 172266, Note_on_c, 0, 60, 37
4, 172266, Note_on_c, 0, 82, 60
4, 172288, Note_on_c, 0, 60, 0
4, 172288, Note_on_c, 0, 65, 0
4, 172294, Note_on_c, 0, 62, 0
4, 172298, Note_on_c, 0, 70, 0
4, 172312, Note_on_c, 0, 82, 0
4, 172374, Control_c, 0, 64, 0
4, 172642, Note_on_c, 0, 65, 55
4, 172646, Note_on_c, 0, 62, 42
4, 172652, Note_on_c, 0, 60, 50
4, 172656, Control_c, 0, 64, 127
4, 172662, Note_on_c, 0, 65, 0
4, 172672, Note_on_c, 0, 60, 0
4, 172680, Note_on_c, 0, 62, 0
4, 172732, Control_c, 0, 64, 0
4, 172786, Note_on_c, 0, 75, 56
4, 172788, Note_on_c, 0, 90, 62
4, 172842, Note_on_c, 0, 90, 0
4, 172842, Note_on_c, 0, 75, 0
4, 172900, Note_on_c, 0, 87, 36
4, 172920, Note_on_c, 0, 87, 0
4, 173018, Note_on_c, 0, 75, 71
4, 173020, Note_on_c, 0, 90, 72
4, 173032, Note_on_c, 0, 62, 26
4, 173040, Note_on_c, 0, 60, 30
4, 173056, Note_on_c, 0, 62, 0
4, 173060, Note_on_c, 0, 60, 0
4, 173106, Note_on_c, 0, 75, 0
4, 173128, Note_on_c, 0, 90, 0
4, 173158, Note_on_c, 0, 87, 52
4, 173306, Note_on_c, 0, 87, 0
4, 173410, Note_on_c, 0, 46, 50
4, 173492, Note_on_c, 0, 46, 0
4, 173548, Note_on_c, 0, 39, 35
4, 173562, Note_on_c, 0, 54, 31
4, 173618, Note_on_c, 0, 39, 0
4, 173662, Note_on_c, 0, 54, 0
4, 173810, Note_on_c, 0, 87, 46
4, 173872, Note_on_c, 0, 87, 0
4, 173928, Note_on_c, 0, 58, 36
4, 173930, Note_on_c, 0, 75, 60
4, 173934, Note_on_c, 0, 90, 59
4, 174010, Note_on_c, 0, 58, 0
4, 174026, Note_on_c, 0, 90, 0
4, 174028, Note_on_c, 0, 75, 0
4, 174052, Note_on_c, 0, 87, 43
4, 174080, Note_on_c, 0, 87, 0
4, 174172, Note_on_c, 0, 75, 55
4, 174174, Note_on_c, 0, 90, 50
4, 174218, Note_on_c, 0, 75, 0
4, 174272, Note_on_c, 0, 90, 0
4, 174294, Note_on_c, 0, 63, 35
4, 174306, Note_on_c, 0, 58, 36
4, 174308, Note_on_c, 0, 52, 36
4, 174510, Note_on_c, 0, 99, 76
4, 174586, Note_on_c, 0, 99, 0
4, 174596, Note_on_c, 0, 58, 0
4, 174640, Note_on_c, 0, 63, 0
4, 174642, Note_on_c, 0, 97, 38
4, 174662, Note_on_c, 0, 97, 0
4, 174686, Note_on_c, 0, 58, 1
4, 174704, Note_on_c, 0, 99, 74
4, 174768, Note_on_c, 0, 99, 0
4, 174780, Note_on_c, 0, 52, 0
4, 174788, Note_on_c, 0, 58, 0
4, 174832, Note_on_c, 0, 96, 41
4, 174852, Note_on_c, 0, 96, 0
4, 174884, Note_on_c, 0, 94, 62
4, 174940, Note_on_c, 0, 94, 0
4, 174954, Control_c, 0, 64, 127
4, 174988, Note_on_c, 0, 92, 47
4, 175038, Control_c, 0, 64, 0
4, 175064, Note_on_c, 0, 92, 0
4, 175064, Note_on_c, 0, 60, 25
4, 175066, Note_on_c, 0, 56, 25
4, 175074, Note_on_c, 0, 63, 20
4, 175078, Note_on_c, 0, 88, 45
4, 175154, Note_on_c, 0, 88, 0
4, 175194, Note_on_c, 0, 87, 45
4, 175242, Note_on_c, 0, 87, 0
4, 175312, Note_on_c, 0, 63, 0
4, 175340, Control_c, 0, 64, 127
4, 175380, Note_on_c, 0, 60, 0
4, 175386, Note_on_c, 0, 84, 44
4, 175426, Note_on_c, 0, 84, 0
4, 175442, Control_c, 0, 64, 0
4, 175458, Note_on_c, 0, 63, 28
4, 175462, Note_on_c, 0, 87, 83
4, 175464, Note_on_c, 0, 60, 1
4, 175466, Note_on_c, 0, 67, 19
4, 175494, Note_on_c, 0, 67, 0
4, 175552, Note_on_c, 0, 87, 0
4, 175590, Note_on_c, 0, 86, 71
4, 175640, Note_on_c, 0, 86, 0
4, 175678, Note_on_c, 0, 85, 38
4, 175706, Note_on_c, 0, 63, 0
4, 175718, Note_on_c, 0, 56, 0
4, 175722, Note_on_c, 0, 60, 0
4, 175734, Control_c, 0, 64, 127
4, 175770, Note_on_c, 0, 85, 0
4, 175786, Note_on_c, 0, 84, 68
4, 175822, Note_on_c, 0, 84, 0
4, 175854, Control_c, 0, 64, 0
4, 175876, Note_on_c, 0, 56, 32
4, 175878, Note_on_c, 0, 82, 57
4, 175880, Note_on_c, 0, 67, 33
4, 175884, Note_on_c, 0, 62, 34
4, 175912, Note_on_c, 0, 62, 0
4, 175914, Note_on_c, 0, 67, 0
4, 175958, Note_on_c, 0, 82, 0
4, 175960, Note_on_c, 0, 56, 0
4, 176020, Note_on_c, 0, 82, 69
4, 176024, Note_on_c, 0, 56, 40
4, 176032, Note_on_c, 0, 67, 32
4, 176034, Note_on_c, 0, 62, 41
4, 176060, Note_on_c, 0, 67, 0
4, 176062, Note_on_c, 0, 62, 0
4, 176064, Control_c, 0, 64, 127
4, 176092, Note_on_c, 0, 82, 0
4, 176094, Control_c, 0, 64, 0
4, 176118, Note_on_c, 0, 80, 47
4, 176122, Note_on_c, 0, 67, 22
4, 176128, Note_on_c, 0, 62, 27
4, 176142, Note_on_c, 0, 67, 0
4, 176150, Note_on_c, 0, 62, 0
4, 176160, Note_on_c, 0, 80, 0
4, 176172, Control_c, 0, 64, 127
4, 176212, Note_on_c, 0, 62, 36
4, 176214, Note_on_c, 0, 80, 68
4, 176218, Note_on_c, 0, 67, 26
4, 176238, Control_c, 0, 64, 0
4, 176240, Note_on_c, 0, 67, 0
4, 176280, Note_on_c, 0, 80, 0
4, 176306, Note_on_c, 0, 79, 53
4, 176346, Note_on_c, 0, 79, 0
4, 176348, Note_on_c, 0, 56, 0
4, 176376, Note_on_c, 0, 62, 0
4, 176382, Control_c, 0, 64, 127
4, 176392, Note_on_c, 0, 79, 57
4, 176428, Control_c, 0, 64, 0
4, 176446, Note_on_c, 0, 79, 0
4, 176460, Note_on_c, 0, 56, 39
4, 176462, Note_on_c, 0, 66, 39
4, 176470, Note_on_c, 0, 62, 13
4, 176482, Note_on_c, 0, 77, 39
4, 176520, Note_on_c, 0, 77, 0
4, 176542, Note_on_c, 0, 66, 0
4, 176546, Control_c, 0, 64, 127
4, 176560, Note_on_c, 0, 62, 0
4, 176574, Note_on_c, 0, 77, 54
4, 176600, Note_on_c, 0, 56, 0
4, 176616, Note_on_c, 0, 77, 0
4, 176652, Note_on_c, 0, 65, 32
4, 176654, Control_c, 0, 64, 0
4, 176658, Note_on_c, 0, 58, 31
4, 176660, Note_on_c, 0, 62, 18
4, 176666, Note_on_c, 0, 74, 47
4, 176668, Note_on_c, 0, 55, 35
4, 176706, Note_on_c, 0, 65, 0
4, 176720, Note_on_c, 0, 74, 0
4, 176760, Note_on_c, 0, 62, 0
4, 176768, Note_on_c, 0, 74, 55
4, 176824, Note_on_c, 0, 58, 0
4, 176838, Control_c, 0, 64, 127
4, 176844, Note_on_c, 0, 74, 0
4, 176960, Note_on_c, 0, 70, 59
4, 176972, Note_on_c, 0, 65, 37
4, 176976, Control_c, 0, 64, 0
4, 176980, Note_on_c, 0, 62, 33
4, 176982, Note_on_c, 0, 58, 28
4, 176994, Note_on_c, 0, 65, 0
4, 177038, Note_on_c, 0, 70, 0
4, 177044, Note_on_c, 0, 62, 0
4, 177060, Note_on_c, 0, 67, 46
4, 177112, Note_on_c, 0, 55, 0
4, 177118, Note_on_c, 0, 58, 0
4, 177128, Note_on_c, 0, 67, 0
4, 177146, Control_c, 0, 64, 127
4, 177182, Note_on_c, 0, 67, 58
4, 177238, Note_on_c, 0, 67, 0
4, 177284, Note_on_c, 0, 65, 59
4, 177336, Note_on_c, 0, 52, 22
4, 177336, Control_c, 0, 64, 0
4, 177354, Note_on_c, 0, 65, 0
4, 177382, Note_on_c, 0, 70, 42
4, 177428, Note_on_c, 0, 65, 46
4, 177444, Note_on_c, 0, 70, 0
4, 177474, Note_on_c, 0, 65, 0
4, 177488, Note_on_c, 0, 62, 44
4, 177500, Note_on_c, 0, 52, 0
4, 177544, Note_on_c, 0, 62, 0
4, 177578, Note_on_c, 0, 63, 51
4, 177634, Note_on_c, 0, 63, 0
4, 177674, Note_on_c, 0, 64, 55
4, 177680, Control_c, 0, 64, 127
4, 177734, Note_on_c, 0, 64, 0
4, 177738, Note_on_c, 0, 63, 33
4, 177754, Control_c, 0, 64, 0
4, 177760, Note_on_c, 0, 58, 20
4, 177766, Note_on_c, 0, 63, 0
4, 177796, Note_on_c, 0, 72, 72
4, 177806, Note_on_c, 0, 58, 0
4, 177848, Note_on_c, 0, 72, 0
4, 177920, Note_on_c, 0, 67, 66
4, 177966, Note_on_c, 0, 67, 0
4, 178022, Note_on_c, 0, 63, 59
4, 178080, Control_c, 0, 64, 127
4, 178094, Note_on_c, 0, 63, 0
4, 178120, Note_on_c, 0, 60, 58
4, 178148, Control_c, 0, 64, 0
4, 178152, Note_on_c, 0, 60, 0
4, 178210, Note_on_c, 0, 67, 69
4, 178276, Note_on_c, 0, 67, 0
4, 178306, Note_on_c, 0, 63, 57
4, 178362, Note_on_c, 0, 63, 0
4, 178394, Note_on_c, 0, 60, 55
4, 178450, Control_c, 0, 64, 127
4, 178454, Note_on_c, 0, 60, 0
4, 178480, Note_on_c, 0, 56, 49
4, 178538, Control_c, 0, 64, 0
4, 178542, Note_on_c, 0, 56, 0
4, 178560, Note_on_c, 0, 51, 21
4, 178566, Note_on_c, 0, 55, 46
4, 178570, Note_on_c, 0, 41, 24
4, 178634, Note_on_c, 0, 55, 0
4, 178664, Note_on_c, 0, 58, 62
4, 178682, Note_on_c, 0, 41, 0
4, 178732, Note_on_c, 0, 51, 0
4, 178734, Note_on_c, 0, 58, 0
4, 178762, Note_on_c, 0, 56, 25
4, 178840, Control_c, 0, 64, 127
4, 178860, Note_on_c, 0, 56, 0
4, 178862, Note_on_c, 0, 53, 38
4, 178896, Control_c, 0, 64, 0
4, 178904, Note_on_c, 0, 53, 0
4, 178936, Note_on_c, 0, 46, 21
4, 178940, Note_on_c, 0, 55, 48
4, 179014, Note_on_c, 0, 55, 0
4, 179030, Note_on_c, 0, 56, 56
4, 179104, Note_on_c, 0, 56, 0
4, 179124, Note_on_c, 0, 58, 46
4, 179164, Control_c, 0, 64, 127
4, 179180, Note_on_c, 0, 58, 0
4, 179210, Note_on_c, 0, 60, 81
4, 179266, Control_c, 0, 64, 0
4, 179274, Note_on_c, 0, 60, 0
4, 179302, Note_on_c, 0, 62, 58
4, 179302, Note_on_c, 0, 56, 34
4, 179348, Note_on_c, 0, 46, 0
4, 179364, Note_on_c, 0, 62, 0
4, 179366, Note_on_c, 0, 56, 0
4, 179410, Note_on_c, 0, 63, 56
4, 179452, Control_c, 0, 64, 127
4, 179460, Note_on_c, 0, 63, 0
4, 179490, Note_on_c, 0, 65, 64
4, 179542, Note_on_c, 0, 65, 0
4, 179562, Note_on_c, 0, 67, 48
4, 179586, Control_c, 0, 64, 0
4, 179614, Note_on_c, 0, 56, 23
4, 179628, Note_on_c, 0, 65, 19
4, 179630, Note_on_c, 0, 60, 27
4, 179630, Note_on_c, 0, 61, 32
4, 179634, Note_on_c, 0, 67, 0
4, 179638, Note_on_c, 0, 68, 54
4, 179702, Control_c, 0, 64, 127
4, 179706, Note_on_c, 0, 70, 46
4, 179714, Note_on_c, 0, 68, 0
4, 179726, Note_on_c, 0, 70, 0
4, 179738, Note_on_c, 0, 65, 0
4, 179762, Note_on_c, 0, 72, 46
4, 179792, Note_on_c, 0, 72, 0
4, 179812, Note_on_c, 0, 73, 62
4, 179850, Note_on_c, 0, 73, 0
4, 179856, Note_on_c, 0, 75, 59
4, 179868, Note_on_c, 0, 61, 0
4, 179872, Note_on_c, 0, 75, 0
4, 179904, Note_on_c, 0, 77, 62
4, 179956, Note_on_c, 0, 79, 46
4, 179960, Note_on_c, 0, 77, 0
4, 179984, Note_on_c, 0, 60, 0
4, 179996, Note_on_c, 0, 80, 57
4, 180014, Note_on_c, 0, 79, 0
4, 180042, Note_on_c, 0, 82, 43
4, 180046, Control_c, 0, 64, 0
4, 180048, Note_on_c, 0, 80, 0
4, 180060, Note_on_c, 0, 82, 0
4, 180080, Note_on_c, 0, 61, 26
4, 180082, Note_on_c, 0, 65, 31
4, 180082, Note_on_c, 0, 84, 71
4, 180092, Note_on_c, 0, 60, 17
4, 180122, Note_on_c, 0, 84, 0
4, 180140, Note_on_c, 0, 85, 59
4, 180172, Note_on_c, 0, 85, 0
4, 180182, Note_on_c, 0, 87, 36
4, 180200, Note_on_c, 0, 87, 0
4, 180214, Note_on_c, 0, 65, 0
4, 180226, Note_on_c, 0, 89, 63
4, 180248, Control_c, 0, 64, 127
4, 180258, Note_on_c, 0, 90, 31
4, 180272, Note_on_c, 0, 89, 0
4, 180272, Note_on_c, 0, 60, 0
4, 180276, Note_on_c, 0, 90, 0
4, 180296, Note_on_c, 0, 91, 24
4, 180312, Note_on_c, 0, 92, 46
4, 180314, Note_on_c, 0, 61, 0
4, 180322, Note_on_c, 0, 91, 0
4, 180364, Note_on_c, 0, 92, 0
4, 180366, Note_on_c, 0, 93, 58
4, 180370, Note_on_c, 0, 56, 0
4, 180444, Note_on_c, 0, 93, 0
4, 180444, Note_on_c, 0, 94, 78
4, 180448, Control_c, 0, 64, 0
4, 180448, Note_on_c, 0, 61, 30
4, 180458, Note_on_c, 0, 55, 33
4, 180458, Note_on_c, 0, 65, 29
4, 180490, Note_on_c, 0, 94, 0
4, 180590, Note_on_c, 0, 65, 0
4, 180602, Note_on_c, 0, 55, 0
4, 180614, Note_on_c, 0, 61, 0
4, 180996, Note_on_c, 0, 56, 14
4, 181050, Note_on_c, 0, 57, 69
4, 181062, Note_on_c, 0, 56, 0
4, 181080, Note_on_c, 0, 70, 79
4, 181084, Note_on_c, 0, 67, 68
4, 181086, Note_on_c, 0, 63, 83
4, 181086, Note_on_c, 0, 58, 87
4, 181090, Note_on_c, 0, 60, 91
4, 181100, Note_on_c, 0, 54, 42
4, 181108, Note_on_c, 0, 57, 0
4, 181118, Note_on_c, 0, 54, 0
4, 181196, Note_on_c, 0, 67, 0
4, 181204, Note_on_c, 0, 70, 0
4, 181230, Note_on_c, 0, 58, 0
4, 181232, Control_c, 0, 64, 127
4, 181236, Note_on_c, 0, 60, 0
4, 181236, Note_on_c, 0, 63, 0
4, 181314, Control_c, 0, 64, 0
4, 181350, Control_c, 0, 64, 127
4, 181432, Control_c, 0, 64, 0
4, 181456, Note_on_c, 0, 62, 66
4, 181462, Note_on_c, 0, 44, 57
4, 181466, Note_on_c, 0, 59, 68
4, 181466, Note_on_c, 0, 55, 65
4, 181526, Note_on_c, 0, 55, 0
4, 181548, Note_on_c, 0, 62, 0
4, 181560, Note_on_c, 0, 67, 64
4, 181574, Note_on_c, 0, 55, 34
4, 181592, Control_c, 0, 64, 127
4, 181598, Note_on_c, 0, 55, 0
4, 181598, Note_on_c, 0, 59, 0
4, 181616, Note_on_c, 0, 67, 0
4, 181668, Control_c, 0, 64, 0
4, 181694, Note_on_c, 0, 53, 34
4, 181698, Note_on_c, 0, 55, 57
4, 181700, Note_on_c, 0, 60, 48
4, 181708, Note_on_c, 0, 64, 47
4, 181712, Note_on_c, 0, 65, 49
4, 181794, Note_on_c, 0, 65, 0
4, 181802, Note_on_c, 0, 64, 0
4, 181824, Note_on_c, 0, 55, 0
4, 181828, Control_c, 0, 64, 127
4, 181830, Note_on_c, 0, 60, 0
4, 181894, Note_on_c, 0, 53, 0
4, 181902, Note_on_c, 0, 44, 0
4, 182002, Control_c, 0, 64, 0
4, 182016, Note_on_c, 0, 67, 54
4, 182026, Note_on_c, 0, 59, 64
4, 182028, Note_on_c, 0, 63, 53
4, 182064, Note_on_c, 0, 67, 0
4, 182066, Note_on_c, 0, 59, 0
4, 182076, Note_on_c, 0, 63, 0
4, 182134, Note_on_c, 0, 70, 77
4, 182142, Note_on_c, 0, 63, 53
4, 182142, Note_on_c, 0, 59, 45
4, 182164, Note_on_c, 0, 58, 28
4, 182190, Note_on_c, 0, 63, 0
4, 182198, Note_on_c, 0, 59, 0
4, 182204, Note_on_c, 0, 70, 0
4, 182210, Note_on_c, 0, 58, 0
4, 182256, Note_on_c, 0, 68, 59
4, 182258, Note_on_c, 0, 56, 44
4, 182260, Note_on_c, 0, 59, 47
4, 182260, Note_on_c, 0, 63, 55
4, 182398, Control_c, 0, 64, 127
4, 182408, Note_on_c, 0, 56, 0
4, 182436, Note_on_c, 0, 68, 0
4, 182438, Note_on_c, 0, 63, 0
4, 182444, Note_on_c, 0, 59, 0
4, 182464, Control_c, 0, 64, 0
4, 182496, Note_on_c, 0, 54, 44
4, 182502, Note_on_c, 0, 59, 43
4, 182504, Note_on_c, 0, 63, 50
4, 182532, Note_on_c, 0, 54, 0
4, 182538, Note_on_c, 0, 59, 0
4, 182558, Note_on_c, 0, 63, 0
4, 182578, Control_c, 0, 64, 127
4, 182606, Note_on_c, 0, 44, 40
4, 182676, Note_on_c, 0, 44, 0
4, 182676, Control_c, 0, 64, 0
4, 182724, Note_on_c, 0, 58, 43
4, 182730, Note_on_c, 0, 53, 47
4, 182732, Note_on_c, 0, 62, 38
4, 182734, Note_on_c, 0, 65, 48
4, 182734, Note_on_c, 0, 43, 39
4, 182830, Control_c, 0, 64, 127
4, 182848, Note_on_c, 0, 62, 0
4, 182850, Note_on_c, 0, 53, 0
4, 182856, Note_on_c, 0, 65, 0
4, 182882, Note_on_c, 0, 58, 0
4, 182986, Note_on_c, 0, 43, 0
4, 183010, Note_on_c, 0, 61, 71
4, 183014, Control_c, 0, 64, 0
4, 183018, Note_on_c, 0, 52, 71
4, 183018, Note_on_c, 0, 58, 74
4, 183018, Note_on_c, 0, 56, 69
4, 183034, Note_on_c, 0, 49, 54
4, 183162, Control_c, 0, 64, 127
4, 183336, Note_on_c, 0, 52, 0
4, 183362, Note_on_c, 0, 49, 0
4, 183386, Note_on_c, 0, 61, 0
4, 183402, Note_on_c, 0, 58, 0
4, 183402, Note_on_c, 0, 48, 32
4, 183436, Note_on_c, 0, 56, 0
4, 183472, Note_on_c, 0, 48, 0
4, 183482, Control_c, 0, 64, 0
4, 183522, Note_on_c, 0, 51, 38
4, 183522, Note_on_c, 0, 56, 50
4, 183524, Note_on_c, 0, 41, 39
4, 183532, Note_on_c, 0, 60, 57
4, 183538, Note_on_c, 0, 53, 43
4, 183554, Note_on_c, 0, 41, 0
4, 183596, Note_on_c, 0, 53, 0
4, 183616, Note_on_c, 0, 60, 0
4, 183620, Note_on_c, 0, 56, 0
4, 183628, Note_on_c, 0, 51, 0
4, 183712, Control_c, 0, 64, 127
4, 183792, Note_on_c, 0, 53, 40
4, 183856, Control_c, 0, 64, 0
4, 183878, Note_on_c, 0, 53, 0
4, 183886, Note_on_c, 0, 56, 46
4, 183890, Note_on_c, 0, 67, 42
4, 183890, Note_on_c, 0, 62, 37
4, 183894, Note_on_c, 0, 46, 30
4, 183898, Note_on_c, 0, 64, 36
4, 183898, Note_on_c, 0, 59, 46
4, 184034, Note_on_c, 0, 56, 0
4, 184036, Note_on_c, 0, 62, 0
4, 184036, Note_on_c, 0, 59, 0
4, 184040, Note_on_c, 0, 64, 0
4, 184040, Note_on_c, 0, 67, 0
4, 184060, Note_on_c, 0, 46, 0
4, 184158, Control_c, 0, 64, 127
4, 184214, Control_c, 0, 64, 0
4, 184292, Note_on_c, 0, 70, 52
4, 184298, Note_on_c, 0, 46, 33
4, 184302, Note_on_c, 0, 60, 44
4, 184306, Note_on_c, 0, 65, 43
4, 184328, Note_on_c, 0, 55, 15
4, 184362, Note_on_c, 0, 55, 0
4, 184362, Note_on_c, 0, 60, 0
4, 184370, Control_c, 0, 64, 127
4, 184376, Note_on_c, 0, 65, 0
4, 184400, Note_on_c, 0, 46, 0
4, 184420, Note_on_c, 0, 70, 0
4, 184662, Control_c, 0, 64, 0
4, 184682, Note_on_c, 0, 86, 89
4, 184684, Note_on_c, 0, 67, 32
4, 184684, Note_on_c, 0, 63, 35
4, 184684, Note_on_c, 0, 62, 44
4, 184688, Note_on_c, 0, 58, 27
4, 184772, Note_on_c, 0, 86, 0
4, 184806, Note_on_c, 0, 83, 35
4, 184846, Note_on_c, 0, 62, 0
4, 184868, Note_on_c, 0, 67, 0
4, 184880, Note_on_c, 0, 83, 0
4, 184892, Control_c, 0, 64, 127
4, 184926, Note_on_c, 0, 84, 76
4, 184958, Note_on_c, 0, 63, 0
4, 185004, Note_on_c, 0, 58, 0
4, 185036, Note_on_c, 0, 84, 0
4, 185036, Control_c, 0, 64, 0
4, 185042, Note_on_c, 0, 67, 37
4, 185048, Note_on_c, 0, 57, 41
4, 185054, Note_on_c, 0, 63, 29
4, 185070, Note_on_c, 0, 86, 53
4, 185158, Note_on_c, 0, 86, 0
4, 185184, Note_on_c, 0, 87, 49
4, 185212, Note_on_c, 0, 67, 0
4, 185222, Control_c, 0, 64, 127
4, 185246, Note_on_c, 0, 87, 0
4, 185250, Note_on_c, 0, 63, 0
4, 185304, Note_on_c, 0, 88, 71
4, 185334, Note_on_c, 0, 57, 0
4, 185384, Note_on_c, 0, 88, 0
4, 185386, Control_c, 0, 64, 0
4, 185412, Note_on_c, 0, 63, 30
4, 185420, Note_on_c, 0, 57, 17
4, 185434, Note_on_c, 0, 89, 41
4, 185476, Note_on_c, 0, 57, 0
4, 185498, Note_on_c, 0, 89, 0
4, 185500, Note_on_c, 0, 63, 0
4, 185534, Control_c, 0, 64, 127
4, 185554, Note_on_c, 0, 91, 40
4, 185604, Note_on_c, 0, 91, 0
4, 185658, Note_on_c, 0, 56, 31
4, 185664, Note_on_c, 0, 66, 25
4, 185676, Note_on_c, 0, 63, 25
4, 185680, Note_on_c, 0, 93, 48
4, 185686, Note_on_c, 0, 61, 25
4, 185704, Note_on_c, 0, 93, 0
4, 185722, Note_on_c, 0, 66, 0
4, 185748, Note_on_c, 0, 61, 0
4, 185754, Note_on_c, 0, 56, 0
4, 185758, Note_on_c, 0, 63, 0
4, 185796, Control_c, 0, 64, 0
4, 185814, Note_on_c, 0, 94, 62
4, 185816, Note_on_c, 0, 62, 17
4, 185824, Note_on_c, 0, 87, 69
4, 185842, Note_on_c, 0, 55, 27
4, 185874, Note_on_c, 0, 65, 2
4, 185932, Note_on_c, 0, 87, 0
4, 185934, Note_on_c, 0, 62, 0
4, 185958, Note_on_c, 0, 88, 28
4, 185972, Note_on_c, 0, 94, 0
4, 186010, Note_on_c, 0, 88, 0
4, 186018, Note_on_c, 0, 65, 0
4, 186052, Note_on_c, 0, 94, 31
4, 186060, Note_on_c, 0, 92, 46
4, 186106, Note_on_c, 0, 87, 40
4, 186128, Note_on_c, 0, 94, 0
4, 186144, Control_c, 0, 64, 127
4, 186158, Note_on_c, 0, 92, 0
4, 186184, Note_on_c, 0, 87, 0
4, 186186, Note_on_c, 0, 85, 51
4, 186208, Note_on_c, 0, 85, 0
4, 186216, Control_c, 0, 64, 0
4, 186222, Note_on_c, 0, 65, 18
4, 186268, Note_on_c, 0, 94, 77
4, 186270, Note_on_c, 0, 65, 0
4, 186270, Note_on_c, 0, 87, 82
4, 186398, Note_on_c, 0, 55, 0
4, 186470, Note_on_c, 0, 94, 0
4, 186494, Note_on_c, 0, 87, 0
4, 186528, Note_on_c, 0, 85, 37
4, 186540, Control_c, 0, 64, 127
4, 186582, Note_on_c, 0, 85, 0
4, 186596, Control_c, 0, 64, 0
4, 186628, Note_on_c, 0, 94, 59
4, 186638, Note_on_c, 0, 87, 39
4, 186822, Note_on_c, 0, 87, 0
4, 186826, Note_on_c, 0, 94, 0
4, 186868, Note_on_c, 0, 85, 64
4, 186882, Note_on_c, 0, 94, 29
4, 186904, Note_on_c, 0, 94, 0
4, 186904, Note_on_c, 0, 85, 0
4, 186930, Control_c, 0, 64, 127
4, 186950, Control_c, 0, 64, 0
4, 186990, Note_on_c, 0, 63, 46
4, 187000, Note_on_c, 0, 53, 40
4, 187016, Note_on_c, 0, 58, 29
4, 187024, Note_on_c, 0, 53, 0
4, 187030, Note_on_c, 0, 63, 0
4, 187042, Note_on_c, 0, 58, 0
4, 187370, Note_on_c, 0, 62, 45
4, 187382, Note_on_c, 0, 55, 50
4, 187390, Note_on_c, 0, 51, 21
4, 187398, Note_on_c, 0, 58, 25
4, 187420, Note_on_c, 0, 58, 0
4, 187422, Note_on_c, 0, 62, 0
4, 187434, Note_on_c, 0, 51, 0
4, 187434, Note_on_c, 0, 55, 0
4, 187768, Note_on_c, 0, 62, 61
4, 187774, Note_on_c, 0, 87, 95
4, 187776, Note_on_c, 0, 51, 34
4, 187780, Note_on_c, 0, 58, 37
4, 187792, Note_on_c, 0, 55, 32
4, 187800, Note_on_c, 0, 51, 0
4, 187812, Note_on_c, 0, 62, 0
4, 187814, Note_on_c, 0, 55, 0
4, 187862, Note_on_c, 0, 58, 0
4, 187876, Note_on_c, 0, 87, 0
4, 187888, Note_on_c, 0, 88, 52
4, 187966, Note_on_c, 0, 88, 0
4, 187966, Note_on_c, 0, 87, 44
4, 188014, Note_on_c, 0, 85, 45
4, 188018, Note_on_c, 0, 87, 0
4, 188028, Control_c, 0, 64, 127
4, 188068, Note_on_c, 0, 85, 0
4, 188086, Note_on_c, 0, 82, 52
4, 188122, Control_c, 0, 64, 0
4, 188124, Note_on_c, 0, 82, 0
4, 188160, Note_on_c, 0, 56, 29
4, 188162, Note_on_c, 0, 67, 19
4, 188166, Note_on_c, 0, 62, 32
4, 188172, Note_on_c, 0, 87, 81
4, 188262, Note_on_c, 0, 67, 0
4, 188282, Note_on_c, 0, 56, 0
4, 188286, Note_on_c, 0, 62, 0
4, 188318, Note_on_c, 0, 87, 0
4, 188424, Note_on_c, 0, 56, 43
4, 188424, Note_on_c, 0, 62, 44
4, 188426, Note_on_c, 0, 85, 70
4, 188430, Note_on_c, 0, 67, 30
4, 188460, Note_on_c, 0, 67, 0
4, 188466, Control_c, 0, 64, 127
4, 188478, Note_on_c, 0, 85, 0
4, 188504, Note_on_c, 0, 62, 0
4, 188506, Note_on_c, 0, 56, 0
4, 188522, Control_c, 0, 64, 0
4, 188562, Note_on_c, 0, 80, 48
4, 188566, Note_on_c, 0, 56, 27
4, 188602, Note_on_c, 0, 62, 36
4, 188620, Note_on_c, 0, 80, 0
4, 188620, Note_on_c, 0, 81, 48
4, 188624, Note_on_c, 0, 62, 0
4, 188658, Note_on_c, 0, 56, 0
4, 188750, Note_on_c, 0, 81, 0
4, 188802, Note_on_c, 0, 72, 50
4, 188804, Note_on_c, 0, 51, 28
4, 188818, Note_on_c, 0, 61, 14
4, 188820, Control_c, 0, 64, 127
4, 188824, Note_on_c, 0, 58, 26
4, 188830, Note_on_c, 0, 54, 34
4, 188864, Note_on_c, 0, 61, 0
4, 188874, Note_on_c, 0, 58, 0
4, 188878, Note_on_c, 0, 72, 0
4, 188888, Note_on_c, 0, 54, 0
4, 188894, Note_on_c, 0, 51, 0
4, 188912, Control_c, 0, 64, 0
4, 188932, Note_on_c, 0, 57, 36
4, 188938, Note_on_c, 0, 60, 25
4, 188940, Note_on_c, 0, 77, 50
4, 188942, Note_on_c, 0, 50, 34
4, 189016, Note_on_c, 0, 77, 0
4, 189052, Note_on_c, 0, 79, 56
4, 189080, Note_on_c, 0, 60, 0
4, 189112, Note_on_c, 0, 57, 0
4, 189124, Note_on_c, 0, 79, 0
4, 189158, Note_on_c, 0, 67, 34
4, 189190, Control_c, 0, 64, 127
4, 189236, Note_on_c, 0, 67, 0
4, 189276, Control_c, 0, 64, 0
4, 189284, Note_on_c, 0, 67, 45
4, 189302, Note_on_c, 0, 57, 30
4, 189308, Note_on_c, 0, 60, 24
4, 189356, Note_on_c, 0, 67, 0
4, 189366, Note_on_c, 0, 57, 0
4, 189410, Note_on_c, 0, 67, 38
4, 189434, Note_on_c, 0, 50, 0
4, 189496, Control_c, 0, 64, 127
4, 189504, Note_on_c, 0, 67, 0
4, 189530, Note_on_c, 0, 60, 0
4, 189586, Note_on_c, 0, 67, 47
4, 189636, Note_on_c, 0, 67, 0
4, 189676, Control_c, 0, 64, 0
4, 189696, Note_on_c, 0, 64, 26
4, 189708, Note_on_c, 0, 59, 35
4, 189716, Note_on_c, 0, 53, 22
4, 189720, Note_on_c, 0, 64, 0
4, 189778, Note_on_c, 0, 67, 48
4, 189852, Note_on_c, 0, 67, 0
4, 189868, Note_on_c, 0, 59, 0
4, 189942, Note_on_c, 0, 67, 63
4, 189984, Control_c, 0, 64, 127
4, 190016, Note_on_c, 0, 67, 0
4, 190030, Control_c, 0, 64, 0
4, 190042, Note_on_c, 0, 66, 55
4, 190088, Note_on_c, 0, 66, 0
4, 190096, Note_on_c, 0, 59, 16
4, 190140, Note_on_c, 0, 67, 32
4, 190164, Control_c, 0, 64, 127
4, 190190, Control_c, 0, 64, 0
4, 190196, Note_on_c, 0, 67, 0
4, 190246, Note_on_c, 0, 75, 72
4, 190258, Note_on_c, 0, 59, 0
4, 190258, Note_on_c, 0, 53, 0
4, 190292, Control_c, 0, 64, 127
4, 190452, Note_on_c, 0, 75, 0
4, 190452, Control_c, 0, 64, 0
4, 190474, Note_on_c, 0, 63, 29
4, 190474, Note_on_c, 0, 67, 24
4, 190476, Note_on_c, 0, 58, 20
4, 190482, Note_on_c, 0, 62, 33
4, 190590, Control_c, 0, 64, 127
4, 190706, Note_on_c, 0, 62, 0
4, 190708, Note_on_c, 0, 67, 0
4, 190714, Note_on_c, 0, 63, 0
4, 190816, Control_c, 0, 64, 0
4, 190834, Note_on_c, 0, 62, 32
4, 190836, Note_on_c, 0, 67, 34
4, 190838, Note_on_c, 0, 63, 36
4, 190914, Control_c, 0, 64, 127
4, 190970, Note_on_c, 0, 67, 0
4, 190984, Note_on_c, 0, 62, 0
4, 191094, Note_on_c, 0, 63, 0
4, 191098, Note_on_c, 0, 90, 79
4, 191108, Note_on_c, 0, 58, 0
4, 191144, Note_on_c, 0, 90, 0
4, 191176, Note_on_c, 0, 92, 67
4, 191212, Note_on_c, 0, 66, 37
4, 191216, Control_c, 0, 64, 0
4, 191236, Note_on_c, 0, 63, 25
4, 191238, Note_on_c, 0, 61, 29
4, 191246, Note_on_c, 0, 57, 24
4, 191250, Note_on_c, 0, 90, 44
4, 191284, Note_on_c, 0, 92, 0
4, 191290, Note_on_c, 0, 89, 26
4, 191310, Note_on_c, 0, 87, 45
4, 191316, Note_on_c, 0, 89, 0
4, 191318, Note_on_c, 0, 90, 0
4, 191330, Note_on_c, 0, 66, 0
4, 191368, Note_on_c, 0, 85, 55
4, 191388, Note_on_c, 0, 87, 0
4, 191432, Note_on_c, 0, 85, 0
4, 191450, Note_on_c, 0, 81, 37
4, 191482, Note_on_c, 0, 81, 0
4, 191494, Note_on_c, 0, 61, 0
4, 191504, Note_on_c, 0, 63, 0
4, 191508, Note_on_c, 0, 80, 38
4, 191550, Note_on_c, 0, 80, 0
4, 191570, Note_on_c, 0, 79, 35
4, 191610, Note_on_c, 0, 57, 0
4, 191616, Note_on_c, 0, 79, 0
4, 191632, Note_on_c, 0, 78, 46
4, 191678, Note_on_c, 0, 66, 23
4, 191680, Note_on_c, 0, 63, 34
4, 191682, Note_on_c, 0, 57, 24
4, 191688, Note_on_c, 0, 78, 0
4, 191688, Note_on_c, 0, 61, 28
4, 191694, Note_on_c, 0, 77, 31
4, 191744, Note_on_c, 0, 77, 0
4, 191758, Note_on_c, 0, 66, 0
4, 191812, Note_on_c, 0, 75, 60
4, 191850, Note_on_c, 0, 57, 0
4, 191862, Note_on_c, 0, 63, 0
4, 191864, Note_on_c, 0, 61, 0
4, 191868, Note_on_c, 0, 75, 0
4, 191898, Note_on_c, 0, 74, 35
4, 191948, Note_on_c, 0, 74, 0
4, 191976, Note_on_c, 0, 73, 56
4, 191996, Control_c, 0, 64, 127
4, 192022, Control_c, 0, 64, 0
4, 192060, Note_on_c, 0, 73, 0
4, 192078, Note_on_c, 0, 72, 36
4, 192130, Note_on_c, 0, 72, 0
4, 192162, Note_on_c, 0, 68, 51
4, 192214, Note_on_c, 0, 68, 0
4, 192232, Note_on_c, 0, 67, 32
4, 192272, Note_on_c, 0, 67, 0
4, 192320, Control_c, 0, 64, 127
4, 192330, Note_on_c, 0, 65, 51
4, 192366, Note_on_c, 0, 65, 0
4, 192396, Note_on_c, 0, 63, 33
4, 192402, Control_c, 0, 64, 0
4, 192404, Note_on_c, 0, 70, 71
4, 192412, Note_on_c, 0, 56, 33
4, 192422, Note_on_c, 0, 60, 28
4, 192468, Note_on_c, 0, 63, 0
4, 192474, Note_on_c, 0, 70, 0
4, 192524, Note_on_c, 0, 68, 63
4, 192534, Note_on_c, 0, 60, 0
4, 192572, Note_on_c, 0, 68, 0
4, 192572, Note_on_c, 0, 56, 0
4, 192626, Note_on_c, 0, 67, 63
4, 192654, Control_c, 0, 64, 127
4, 192686, Note_on_c, 0, 67, 0
4, 192746, Control_c, 0, 64, 0
4, 192756, Note_on_c, 0, 65, 65
4, 192766, Note_on_c, 0, 46, 29
4, 192772, Note_on_c, 0, 56, 18
4, 192816, Note_on_c, 0, 65, 0
4, 192842, Note_on_c, 0, 67, 36
4, 192866, Note_on_c, 0, 56, 0
4, 192884, Note_on_c, 0, 67, 0
4, 192884, Note_on_c, 0, 65, 36
4, 192922, Note_on_c, 0, 53, 20
4, 192930, Note_on_c, 0, 65, 0
4, 192932, Note_on_c, 0, 62, 53
4, 192978, Note_on_c, 0, 62, 0
4, 193022, Note_on_c, 0, 63, 57
4, 193076, Note_on_c, 0, 63, 0
4, 193094, Note_on_c, 0, 53, 0
4, 193118, Note_on_c, 0, 64, 74
4, 193136, Note_on_c, 0, 56, 28
4, 193188, Note_on_c, 0, 64, 0
4, 193222, Note_on_c, 0, 65, 69
4, 193232, Note_on_c, 0, 56, 0
4, 193274, Note_on_c, 0, 65, 0
4, 193306, Note_on_c, 0, 46, 0
4, 193308, Note_on_c, 0, 62, 49
4, 193378, Control_c, 0, 64, 127
4, 193382, Note_on_c, 0, 62, 0
4, 193398, Note_on_c, 0, 58, 45
4, 193484, Control_c, 0, 64, 0
4, 193496, Note_on_c, 0, 58, 0
4, 193502, Note_on_c, 0, 39, 29
4, 193510, Note_on_c, 0, 46, 26
4, 193528, Note_on_c, 0, 55, 25
4, 193568, Note_on_c, 0, 55, 0
4, 193640, Note_on_c, 0, 55, 45
4, 193668, Note_on_c, 0, 55, 0
4, 193766, Note_on_c, 0, 55, 60
4, 193802, Note_on_c, 0, 55, 0
4, 193828, Control_c, 0, 64, 127
4, 193844, Control_c, 0, 64, 0
4, 193888, Note_on_c, 0, 51, 28
4, 193898, Note_on_c, 0, 55, 60
4, 193924, Note_on_c, 0, 39, 0
4, 193954, Note_on_c, 0, 46, 0
4, 193978, Note_on_c, 0, 55, 0
4, 194002, Note_on_c, 0, 51, 0
4, 194008, Note_on_c, 0, 56, 46
4, 194096, Note_on_c, 0, 56, 0
4, 194130, Note_on_c, 0, 58, 51
4, 194132, Control_c, 0, 64, 127
4, 194240, Control_c, 0, 64, 0
4, 194260, Note_on_c, 0, 44, 35
4, 194316, Note_on_c, 0, 44, 0
4, 194454, Note_on_c, 0, 58, 0
4, 194528, Note_on_c, 0, 55, 72
4, 194594, Control_c, 0, 64, 127
4, 194602, Note_on_c, 0, 55, 0
4, 194634, Control_c, 0, 64, 0
4, 194666, Note_on_c, 0, 44, 31
4, 194668, Note_on_c, 0, 55, 68
4, 194714, Note_on_c, 0, 44, 0
4, 194724, Note_on_c, 0, 55, 0
4, 194782, Note_on_c, 0, 56, 56
4, 194852, Note_on_c, 0, 56, 0
4, 194892, Control_c, 0, 64, 127
4, 194908, Note_on_c, 0, 58, 61
4, 194984, Control_c, 0, 64, 0
4, 195010, Note_on_c, 0, 58, 0
4, 195042, Note_on_c, 0, 57, 48
4, 195046, Note_on_c, 0, 50, 27
4, 195048, Note_on_c, 0, 53, 37
4, 195072, Control_c, 0, 64, 127
4, 195094, Note_on_c, 0, 50, 0
4, 195114, Note_on_c, 0, 53, 0
4, 195122, Control_c, 0, 64, 0
4, 195126, Note_on_c, 0, 57, 0
4, 195142, Control_c, 0, 64, 127
4, 195160, Note_on_c, 0, 60, 61
4, 195204, Note_on_c, 0, 60, 0
4, 195220, Control_c, 0, 64, 0
4, 195266, Control_c, 0, 64, 127
4, 195282, Note_on_c, 0, 65, 66
4, 195328, Note_on_c, 0, 65, 0
4, 195390, Control_c, 0, 64, 0
4, 195412, Note_on_c, 0, 68, 58
4, 195418, Note_on_c, 0, 63, 56
4, 195418, Note_on_c, 0, 59, 38
4, 195430, Note_on_c, 0, 55, 34
4, 195466, Control_c, 0, 64, 127
4, 195476, Note_on_c, 0, 55, 0
4, 195482, Note_on_c, 0, 68, 0
4, 195494, Note_on_c, 0, 59, 0
4, 195518, Control_c, 0, 64, 0
4, 195542, Note_on_c, 0, 70, 72
4, 195542, Note_on_c, 0, 58, 48
4, 195550, Note_on_c, 0, 59, 35
4, 195590, Control_c, 0, 64, 127
4, 195668, Note_on_c, 0, 58, 0
4, 195670, Note_on_c, 0, 59, 0
4, 195688, Note_on_c, 0, 70, 0
4, 195714, Note_on_c, 0, 63, 0
4, 195754, Control_c, 0, 64, 0
4, 195790, Note_on_c, 0, 55, 42
4, 195794, Note_on_c, 0, 48, 36
4, 195796, Note_on_c, 0, 63, 46
4, 195802, Note_on_c, 0, 67, 32
4, 195822, Note_on_c, 0, 67, 0
4, 195822, Note_on_c, 0, 58, 32
4, 195822, Note_on_c, 0, 58, 0
4, 195824, Note_on_c, 0, 63, 0
4, 195826, Control_c, 0, 64, 127
4, 195842, Note_on_c, 0, 48, 0
4, 195908, Control_c, 0, 64, 0
4, 195918, Note_on_c, 0, 58, 52
4, 195922, Note_on_c, 0, 55, 0
4, 195930, Note_on_c, 0, 74, 45
4, 195948, Control_c, 0, 64, 127
4, 195960, Note_on_c, 0, 74, 0
4, 195980, Note_on_c, 0, 58, 0
4, 196048, Note_on_c, 0, 75, 56
4, 196050, Note_on_c, 0, 62, 54
4, 196058, Note_on_c, 0, 60, 43
4, 196074, Note_on_c, 0, 60, 0
4, 196078, Note_on_c, 0, 75, 0
4, 196100, Note_on_c, 0, 62, 0
4, 196164, Control_c, 0, 64, 0
4, 196182, Note_on_c, 0, 64, 51
4, 196182, Note_on_c, 0, 70, 70
4, 196182, Note_on_c, 0, 77, 74
4, 196188, Note_on_c, 0, 67, 64
4, 196194, Note_on_c, 0, 74, 44
4, 196242, Control_c, 0, 64, 127
4, 196244, Note_on_c, 0, 74, 0
4, 196254, Note_on_c, 0, 77, 0
4, 196260, Note_on_c, 0, 67, 0
4, 196262, Note_on_c, 0, 64, 0
4, 196272, Note_on_c, 0, 70, 0
4, 196316, Note_on_c, 0, 70, 49
4, 196318, Control_c, 0, 64, 0
4, 196320, Note_on_c, 0, 75, 25
4, 196322, Note_on_c, 0, 67, 30
4, 196324, Note_on_c, 0, 61, 25
4, 196336, Note_on_c, 0, 76, 27
4, 196356, Note_on_c, 0, 76, 0
4, 196384, Control_c, 0, 64, 127
4, 196438, Note_on_c, 0, 75, 0
4, 196442, Note_on_c, 0, 61, 0
4, 196446, Note_on_c, 0, 70, 0
4, 196452, Note_on_c, 0, 67, 0
4, 196560, Control_c, 0, 64, 0
4, 196586, Note_on_c, 0, 60, 41
4, 196586, Note_on_c, 0, 65, 60
4, 196588, Note_on_c, 0, 70, 43
4, 196590, Note_on_c, 0, 74, 38
4, 196606, Note_on_c, 0, 60, 0
4, 196612, Note_on_c, 0, 74, 0
4, 196628, Note_on_c, 0, 65, 0
4, 196630, Note_on_c, 0, 70, 0
4, 196720, Note_on_c, 0, 58, 31
4, 196750, Control_c, 0, 64, 127
4, 196760, Control_c, 0, 64, 0
4, 196790, Note_on_c, 0, 58, 0
4, 196836, Note_on_c, 0, 72, 58
4, 196840, Note_on_c, 0, 62, 59
4, 196842, Note_on_c, 0, 65, 61
4, 196848, Control_c, 0, 64, 127
4, 196856, Note_on_c, 0, 72, 0
4, 196860, Note_on_c, 0, 65, 0
4, 196882, Note_on_c, 0, 62, 0
4, 196970, Control_c, 0, 64, 0
4, 196972, Note_on_c, 0, 67, 59
4, 196978, Note_on_c, 0, 62, 62
4, 196978, Note_on_c, 0, 51, 46
4, 196982, Note_on_c, 0, 57, 51
4, 197176, Control_c, 0, 64, 127
4, 197190, Note_on_c, 0, 51, 0
4, 197212, Note_on_c, 0, 62, 0
4, 197230, Note_on_c, 0, 41, 40
4, 197240, Note_on_c, 0, 57, 0
4, 197252, Note_on_c, 0, 67, 0
4, 197294, Control_c, 0, 64, 0
4, 197348, Note_on_c, 0, 65, 55
4, 197352, Note_on_c, 0, 51, 51
4, 197354, Note_on_c, 0, 57, 55
4, 197354, Note_on_c, 0, 62, 48
4, 197382, Note_on_c, 0, 57, 0
4, 197416, Note_on_c, 0, 62, 0
4, 197428, Note_on_c, 0, 41, 0
4, 197428, Control_c, 0, 64, 127
4, 197438, Control_c, 0, 64, 0
4, 197440, Note_on_c, 0, 65, 0
4, 197596, Note_on_c, 0, 51, 0
4, 197618, Note_on_c, 0, 41, 66
4, 197622, Control_c, 0, 64, 127
4, 197622, Note_on_c, 0, 77, 95
4, 197684, Control_c, 0, 64, 0
4, 197698, Note_on_c, 0, 41, 0
4, 197704, Note_on_c, 0, 77, 0
4, 197752, Note_on_c, 0, 72, 42
4, 197792, Note_on_c, 0, 73, 35
4, 197820, Note_on_c, 0, 72, 0
4, 197838, Note_on_c, 0, 73, 0
4, 197856, Note_on_c, 0, 74, 32
4, 197894, Note_on_c, 0, 74, 0
4, 197996, Note_on_c, 0, 77, 81
4, 198006, Note_on_c, 0, 65, 38
4, 198028, Note_on_c, 0, 65, 0
4, 198052, Control_c, 0, 64, 127
4, 198064, Note_on_c, 0, 77, 0
4, 198090, Control_c, 0, 64, 0
4, 198122, Note_on_c, 0, 62, 37
4, 198128, Note_on_c, 0, 79, 77
4, 198132, Note_on_c, 0, 60, 42
4, 198132, Note_on_c, 0, 67, 70
4, 198174, Note_on_c, 0, 60, 0
4, 198180, Note_on_c, 0, 62, 0
4, 198300, Note_on_c, 0, 67, 0
4, 198332, Note_on_c, 0, 79, 0
4, 198356, Control_c, 0, 64, 127
4, 198412, Note_on_c, 0, 77, 55
4, 198448, Note_on_c, 0, 77, 0
4, 198458, Control_c, 0, 64, 0
4, 198522, Note_on_c, 0, 79, 82
4, 198524, Note_on_c, 0, 60, 40
4, 198526, Note_on_c, 0, 62, 43
4, 198528, Note_on_c, 0, 67, 76
4, 198666, Note_on_c, 0, 60, 0
4, 198668, Note_on_c, 0, 67, 0
4, 198676, Note_on_c, 0, 79, 0
4, 198688, Note_on_c, 0, 62, 0
4, 198726, Control_c, 0, 64, 127
4, 198774, Note_on_c, 0, 79, 71
4, 198786, Note_on_c, 0, 67, 43
4, 198822, Note_on_c, 0, 79, 0
4, 198830, Note_on_c, 0, 67, 0
4, 198864, Control_c, 0, 64, 0
4, 198894, Note_on_c, 0, 58, 30
4, 198900, Note_on_c, 0, 55, 36
4, 198904, Note_on_c, 0, 62, 24
4, 198906, Note_on_c, 0, 77, 53
4, 198918, Note_on_c, 0, 65, 48
4, 198978, Control_c, 0, 64, 127
4, 199050, Note_on_c, 0, 55, 0
4, 199052, Note_on_c, 0, 62, 0
4, 199072, Note_on_c, 0, 77, 0
4, 199074, Note_on_c, 0, 65, 0
4, 199078, Note_on_c, 0, 58, 0
4, 199146, Note_on_c, 0, 67, 66
4, 199146, Note_on_c, 0, 79, 75
4, 199148, Note_on_c, 0, 58, 33
4, 199152, Control_c, 0, 64, 0
4, 199154, Note_on_c, 0, 62, 40
4, 199160, Note_on_c, 0, 55, 37
4, 199254, Control_c, 0, 64, 127
4, 199330, Note_on_c, 0, 55, 0
4, 199336, Note_on_c, 0, 62, 0
4, 199348, Note_on_c, 0, 58, 0
4, 199356, Note_on_c, 0, 67, 0
4, 199536, Note_on_c, 0, 79, 0
4, 199618, Control_c, 0, 64, 0
4, 199644, Note_on_c, 0, 67, 33
4, 199646, Note_on_c, 0, 63, 36
4, 199650, Note_on_c, 0, 58, 25
4, 199822, Note_on_c, 0, 67, 0
4, 199824, Control_c, 0, 64, 127
4, 199844, Note_on_c, 0, 58, 0
4, 199880, Note_on_c, 0, 63, 0
4, 199898, Note_on_c, 0, 63, 33
4, 199904, Note_on_c, 0, 69, 60
4, 199904, Note_on_c, 0, 58, 32
4, 199906, Note_on_c, 0, 67, 18
4, 199912, Note_on_c, 0, 62, 27
4, 199970, Control_c, 0, 64, 0
4, 200060, Note_on_c, 0, 69, 0
4, 200074, Note_on_c, 0, 70, 42
4, 200126, Note_on_c, 0, 70, 0
4, 200250, Note_on_c, 0, 67, 0
4, 200258, Note_on_c, 0, 62, 0
4, 200308, Note_on_c, 0, 72, 67
4, 200326, Control_c, 0, 64, 127
4, 200358, Note_on_c, 0, 72, 0
4, 200370, Note_on_c, 0, 63, 0
4, 200390, Note_on_c, 0, 58, 0
4, 200402, Control_c, 0, 64, 0
4, 200440, Note_on_c, 0, 57, 49
4, 200450, Note_on_c, 0, 63, 40
4, 200458, Note_on_c, 0, 73, 73
4, 200470, Note_on_c, 0, 67, 26
4, 200618, Note_on_c, 0, 67, 0
4, 200644, Control_c, 0, 64, 127
4, 200646, Note_on_c, 0, 63, 0
4, 200672, Note_on_c, 0, 73, 0
4, 200692, Note_on_c, 0, 75, 77
4, 200696, Note_on_c, 0, 63, 42
4, 200764, Note_on_c, 0, 57, 0
4, 200782, Note_on_c, 0, 63, 0
4, 200824, Note_on_c, 0, 75, 0
4, 200824, Control_c, 0, 64, 0
4, 200832, Note_on_c, 0, 57, 48
4, 200834, Note_on_c, 0, 78, 58
4, 200840, Note_on_c, 0, 63, 43
4, 200844, Note_on_c, 0, 66, 64
4, 200906, Control_c, 0, 64, 127
4, 200982, Note_on_c, 0, 57, 0
4, 200984, Note_on_c, 0, 66, 0
4, 200992, Note_on_c, 0, 78, 0
4, 201020, Note_on_c, 0, 63, 0
4, 201066, Note_on_c, 0, 57, 60
4, 201070, Note_on_c, 0, 63, 35
4, 201074, Note_on_c, 0, 80, 78
4, 201078, Note_on_c, 0, 68, 77
4, 201088, Note_on_c, 0, 57, 0
4, 201090, Note_on_c, 0, 63, 0
4, 201120, Note_on_c, 0, 80, 0
4, 201124, Note_on_c, 0, 68, 0
4, 201200, Control_c, 0, 64, 0
4, 201218, Note_on_c, 0, 77, 62
4, 201220, Note_on_c, 0, 65, 54
4, 201228, Note_on_c, 0, 60, 42
4, 201232, Note_on_c, 0, 72, 50
4, 201242, Note_on_c, 0, 50, 22
4, 201252, Note_on_c, 0, 57, 25
4, 201264, Note_on_c, 0, 53, 34
4, 201368, Note_on_c, 0, 72, 0
4, 201384, Note_on_c, 0, 60, 0
4, 201390, Note_on_c, 0, 77, 0
4, 201392, Note_on_c, 0, 65, 0
4, 201394, Note_on_c, 0, 57, 0
4, 201408, Note_on_c, 0, 53, 0
4, 201430, Control_c, 0, 64, 127
4, 201466, Note_on_c, 0, 77, 56
4, 201474, Note_on_c, 0, 57, 33
4, 201476, Note_on_c, 0, 53, 27
4, 201478, Note_on_c, 0, 65, 60
4, 201480, Note_on_c, 0, 72, 58
4, 201518, Note_on_c, 0, 77, 0
4, 201522, Note_on_c, 0, 65, 0
4, 201534, Note_on_c, 0, 57, 0
4, 201536, Note_on_c, 0, 72, 0
4, 201586, Control_c, 0, 64, 0
4, 201606, Note_on_c, 0, 76, 35
4, 201620, Note_on_c, 0, 64, 34
4, 201626, Note_on_c, 0, 60, 34
4, 201702, Note_on_c, 0, 53, 0
4, 201718, Note_on_c, 0, 50, 0
4, 201720, Note_on_c, 0, 64, 0
4, 201726, Note_on_c, 0, 76, 0
4, 201778, Note_on_c, 0, 60, 0
4, 201846, Note_on_c, 0, 77, 59
4, 201846, Note_on_c, 0, 73, 63
4, 201848, Note_on_c, 0, 65, 52
4, 201854, Note_on_c, 0, 59, 62
4, 201854, Note_on_c, 0, 53, 59
4, 201858, Note_on_c, 0, 64, 62
4, 201886, Note_on_c, 0, 64, 0
4, 201892, Note_on_c, 0, 65, 0
4, 201902, Note_on_c, 0, 73, 0
4, 201906, Note_on_c, 0, 59, 0
4, 201916, Note_on_c, 0, 53, 0
4, 201930, Note_on_c, 0, 77, 0
4, 202340, Note_on_c, 0, 74, 87
4, 202346, Note_on_c, 0, 63, 97
4, 202348, Note_on_c, 0, 67, 85
4, 202348, Note_on_c, 0, 70, 82
4, 202354, Note_on_c, 0, 62, 92
4, 202754, Control_c, 0, 64, 127
4, 203044, Note_on_c, 0, 62, 0
4, 203054, Note_on_c, 0, 63, 0
4, 203060, Note_on_c, 0, 58, 20
4, 203062, Note_on_c, 0, 67, 0
4, 203080, Note_on_c, 0, 74, 0
4, 203092, Note_on_c, 0, 70, 0
4, 203094, Note_on_c, 0, 58, 0
4, 203104, Control_c, 0, 64, 0
4, 203114, Note_on_c, 0, 63, 33
4, 203114, Note_on_c, 0, 60, 44
4, 203122, Note_on_c, 0, 72, 41
4, 203128, Note_on_c, 0, 67, 32
4, 203138, Note_on_c, 0, 60, 0
4, 203148, Note_on_c, 0, 72, 0
4, 203152, Note_on_c, 0, 67, 0
4, 203156, Note_on_c, 0, 63, 0
4, 203378, Note_on_c, 0, 58, 35
4, 203378, Note_on_c, 0, 70, 47
4, 203380, Note_on_c, 0, 63, 33
4, 203394, Control_c, 0, 64, 127
4, 203446, Note_on_c, 0, 63, 0
4, 203446, Note_on_c, 0, 70, 0
4, 203482, Note_on_c, 0, 58, 0
4, 203492, Control_c, 0, 64, 0
4, 203512, Note_on_c, 0, 57, 46
4, 203518, Note_on_c, 0, 69, 50
4, 203544, Control_c, 0, 64, 127
4, 203546, Note_on_c, 0, 69, 0
4, 203568, Note_on_c, 0, 57, 0
4, 203748, Note_on_c, 0, 72, 65
4, 203788, Note_on_c, 0, 72, 0
4, 203856, Control_c, 0, 64, 0
4, 203878, Note_on_c, 0, 67, 55
4, 203878, Note_on_c, 0, 63, 36
4, 203880, Note_on_c, 0, 77, 80
4, 203910, Note_on_c, 0, 63, 0
4, 203918, Note_on_c, 0, 67, 0
4, 203968, Note_on_c, 0, 77, 0
4, 204098, Control_c, 0, 64, 127
4, 204136, Note_on_c, 0, 75, 62
4, 204198, Note_on_c, 0, 75, 0
4, 204242, Control_c, 0, 64, 0
4, 204262, Note_on_c, 0, 63, 37
4, 204266, Note_on_c, 0, 56, 35
4, 204268, Note_on_c, 0, 67, 33
4, 204270, Note_on_c, 0, 74, 48
4, 204270, Note_on_c, 0, 60, 32
4, 204272, Note_on_c, 0, 70, 46
4, 204324, Control_c, 0, 64, 127
4, 204330, Note_on_c, 0, 67, 0
4, 204342, Note_on_c, 0, 74, 0
4, 204344, Note_on_c, 0, 70, 0
4, 204348, Note_on_c, 0, 60, 0
4, 204354, Note_on_c, 0, 63, 0
4, 204396, Note_on_c, 0, 74, 48
4, 204398, Note_on_c, 0, 70, 53
4, 204452, Note_on_c, 0, 56, 0
4, 204456, Note_on_c, 0, 74, 0
4, 204486, Note_on_c, 0, 70, 0
4, 204524, Note_on_c, 0, 72, 49
4, 204532, Note_on_c, 0, 68, 49
4, 204546, Note_on_c, 0, 63, 27
4, 204600, Note_on_c, 0, 63, 0
4, 204606, Note_on_c, 0, 72, 0
4, 204612, Note_on_c, 0, 68, 0
4, 204624, Control_c, 0, 64, 0
4, 204658, Note_on_c, 0, 70, 67
4, 204664, Note_on_c, 0, 63, 29
4, 204664, Note_on_c, 0, 74, 57
4, 204664, Note_on_c, 0, 56, 27
4, 204674, Note_on_c, 0, 67, 20
4, 204676, Note_on_c, 0, 60, 44
4, 204698, Note_on_c, 0, 67, 0
4, 204708, Note_on_c, 0, 60, 0
4, 204714, Note_on_c, 0, 74, 0
4, 204720, Note_on_c, 0, 63, 0
4, 204728, Note_on_c, 0, 70, 0
4, 204740, Note_on_c, 0, 56, 0
4, 204788, Note_on_c, 0, 70, 60
4, 204790, Note_on_c, 0, 74, 51
4, 204800, Note_on_c, 0, 63, 23
4, 204846, Note_on_c, 0, 63, 0
4, 204848, Note_on_c, 0, 74, 0
4, 204858, Note_on_c, 0, 70, 0
4, 204906, Control_c, 0, 64, 127
4, 204910, Note_on_c, 0, 68, 50
4, 204918, Note_on_c, 0, 72, 42
4, 204924, Note_on_c, 0, 63, 21
4, 204938, Note_on_c, 0, 60, 28
4, 204956, Note_on_c, 0, 68, 0
4, 204960, Note_on_c, 0, 63, 0
4, 204964, Control_c, 0, 64, 0
4, 204966, Note_on_c, 0, 60, 0
4, 204984, Note_on_c, 0, 72, 0
4, 205040, Note_on_c, 0, 74, 40
4, 205040, Note_on_c, 0, 70, 39
4, 205046, Note_on_c, 0, 56, 33
4, 205060, Note_on_c, 0, 70, 0
4, 205066, Note_on_c, 0, 74, 0
4, 205068, Note_on_c, 0, 60, 26
4, 205090, Note_on_c, 0, 56, 0
4, 205096, Note_on_c, 0, 60, 0
4, 205156, Note_on_c, 0, 79, 68
4, 205164, Note_on_c, 0, 56, 65
4, 205164, Note_on_c, 0, 66, 72
4, 205166, Note_on_c, 0, 74, 78
4, 205168, Note_on_c, 0, 62, 66
4, 205248, Control_c, 0, 64, 127
4, 205350, Note_on_c, 0, 79, 0
4, 205362, Note_on_c, 0, 56, 0
4, 205366, Note_on_c, 0, 66, 0
4, 205372, Note_on_c, 0, 74, 0
4, 205408, Control_c, 0, 64, 0
4, 205418, Note_on_c, 0, 56, 57
4, 205424, Note_on_c, 0, 77, 68
4, 205428, Note_on_c, 0, 66, 54
4, 205484, Control_c, 0, 64, 127
4, 205562, Note_on_c, 0, 66, 0
4, 205592, Note_on_c, 0, 56, 0
4, 205610, Note_on_c, 0, 62, 0
4, 205616, Note_on_c, 0, 77, 0
4, 205638, Note_on_c, 0, 56, 32
4, 205654, Note_on_c, 0, 66, 38
4, 205666, Note_on_c, 0, 74, 58
4, 205686, Note_on_c, 0, 62, 20
4, 205700, Note_on_c, 0, 66, 0
4, 205722, Note_on_c, 0, 62, 0
4, 205764, Note_on_c, 0, 74, 0
4, 205790, Note_on_c, 0, 56, 0
4, 205790, Control_c, 0, 64, 0
4, 205798, Note_on_c, 0, 70, 53
4, 205802, Note_on_c, 0, 55, 54
4, 205804, Note_on_c, 0, 62, 34
4, 205808, Note_on_c, 0, 65, 46
4, 205810, Note_on_c, 0, 60, 33
4, 205952, Note_on_c, 0, 65, 0
4, 205952, Control_c, 0, 64, 127
4, 205972, Note_on_c, 0, 60, 0
4, 206048, Note_on_c, 0, 70, 0
4, 206072, Note_on_c, 0, 62, 0
4, 206086, Note_on_c, 0, 55, 0
4, 206166, Control_c, 0, 64, 0
4, 206192, Note_on_c, 0, 62, 36
4, 206194, Note_on_c, 0, 55, 43
4, 206194, Note_on_c, 0, 70, 71
4, 206200, Note_on_c, 0, 65, 40
4, 206204, Note_on_c, 0, 60, 37
4, 206230, Note_on_c, 0, 65, 0
4, 206252, Note_on_c, 0, 70, 0
4, 206260, Note_on_c, 0, 72, 57
4, 206298, Note_on_c, 0, 62, 0
4, 206324, Note_on_c, 0, 60, 0
4, 206338, Note_on_c, 0, 70, 45
4, 206348, Note_on_c, 0, 72, 0
4, 206380, Control_c, 0, 64, 127
4, 206396, Note_on_c, 0, 55, 0
4, 206418, Note_on_c, 0, 70, 0
4, 206446, Note_on_c, 0, 69, 46
4, 206524, Note_on_c, 0, 69, 0
4, 206548, Control_c, 0, 64, 0
4, 206560, Note_on_c, 0, 54, 28
4, 206560, Note_on_c, 0, 65, 32
4, 206566, Note_on_c, 0, 70, 64
4, 206570, Note_on_c, 0, 58, 27
4, 206578, Note_on_c, 0, 60, 36
4, 206650, Note_on_c, 0, 60, 0
4, 206682, Note_on_c, 0, 65, 0
4, 206704, Control_c, 0, 64, 127
4, 206712, Note_on_c, 0, 58, 0
4, 206726, Note_on_c, 0, 54, 0
4, 206794, Note_on_c, 0, 70, 0
4, 206816, Note_on_c, 0, 74, 66
4, 206826, Note_on_c, 0, 70, 17
4, 206826, Note_on_c, 0, 65, 33
4, 206830, Note_on_c, 0, 54, 28
4, 206834, Note_on_c, 0, 58, 26
4, 206842, Note_on_c, 0, 60, 30
4, 206846, Note_on_c, 0, 70, 0
4, 206856, Note_on_c, 0, 65, 0
4, 206864, Note_on_c, 0, 60, 0
4, 206882, Note_on_c, 0, 54, 0
4, 206894, Note_on_c, 0, 74, 0
4, 206896, Note_on_c, 0, 58, 0
4, 206930, Control_c, 0, 64, 0
4, 206944, Note_on_c, 0, 54, 64
4, 206948, Note_on_c, 0, 65, 64
4, 206952, Note_on_c, 0, 58, 53
4, 206960, Note_on_c, 0, 77, 91
4, 206960, Note_on_c, 0, 60, 66
4, 207038, Control_c, 0, 64, 127
4, 207060, Note_on_c, 0, 60, 0
4, 207070, Note_on_c, 0, 65, 0
4, 207090, Note_on_c, 0, 54, 0
4, 207122, Note_on_c, 0, 58, 0
4, 207158, Note_on_c, 0, 77, 0
4, 207166, Control_c, 0, 64, 0
4, 207172, Control_c, 0, 64, 127
4, 207206, Note_on_c, 0, 54, 55
4, 207212, Note_on_c, 0, 75, 71
4, 207226, Note_on_c, 0, 58, 23
4, 207232, Note_on_c, 0, 60, 33
4, 207252, Note_on_c, 0, 60, 0
4, 207276, Note_on_c, 0, 58, 0
4, 207288, Note_on_c, 0, 54, 0
4, 207294, Note_on_c, 0, 75, 0
4, 207340, Control_c, 0, 64, 0
4, 207344, Note_on_c, 0, 64, 30
4, 207356, Note_on_c, 0, 60, 35
4, 207366, Note_on_c, 0, 64, 0
4, 207366, Note_on_c, 0, 76, 31
4, 207372, Note_on_c, 0, 74, 30
4, 207378, Note_on_c, 0, 60, 0
4, 207378, Note_on_c, 0, 53, 24
4, 207390, Note_on_c, 0, 76, 0
4, 207404, Note_on_c, 0, 74, 0
4, 207412, Note_on_c, 0, 53, 0
4, 207584, Note_on_c, 0, 69, 68
4, 207586, Note_on_c, 0, 57, 53
4, 207596, Note_on_c, 0, 56, 31
4, 207616, Note_on_c, 0, 56, 0
4, 207734, Note_on_c, 0, 69, 0
4, 207746, Note_on_c, 0, 57, 0
4, 207748, Note_on_c, 0, 56, 43
4, 207758, Note_on_c, 0, 68, 55
4, 207888, Control_c, 0, 64, 127
4, 207950, Control_c, 0, 64, 0
4, 207956, Note_on_c, 0, 56, 0
4, 207962, Note_on_c, 0, 61, 64
4, 207964, Note_on_c, 0, 73, 75
4, 208026, Control_c, 0, 64, 127
4, 208078, Control_c, 0, 64, 0
4, 208092, Note_on_c, 0, 73, 0
4, 208092, Note_on_c, 0, 68, 0
4, 208100, Note_on_c, 0, 61, 0
4, 208120, Note_on_c, 0, 72, 53
4, 208124, Note_on_c, 0, 60, 50
4, 208182, Note_on_c, 0, 60, 0
4, 208320, Note_on_c, 0, 55, 53
4, 208338, Note_on_c, 0, 67, 59
4, 208348, Note_on_c, 0, 72, 0
4, 208368, Note_on_c, 0, 55, 0
4, 208380, Note_on_c, 0, 67, 0
4, 208488, Note_on_c, 0, 54, 44
4, 208538, Note_on_c, 0, 66, 55
4, 208578, Note_on_c, 0, 54, 0
4, 208618, Note_on_c, 0, 66, 0
4, 208678, Note_on_c, 0, 59, 44
4, 208704, Note_on_c, 0, 71, 44
4, 208766, Control_c, 0, 64, 127
4, 208776, Control_c, 0, 64, 0
4, 208796, Note_on_c, 0, 59, 0
4, 208822, Note_on_c, 0, 71, 0
4, 209002, Note_on_c, 0, 70, 64
4, 209008, Note_on_c, 0, 60, 54
4, 209010, Note_on_c, 0, 65, 63
4, 209024, Note_on_c, 0, 55, 52
4, 209074, Note_on_c, 0, 65, 0
4, 209076, Note_on_c, 0, 70, 0
4, 209076, Note_on_c, 0, 60, 0
4, 209106, Note_on_c, 0, 55, 0
4, 209136, Note_on_c, 0, 69, 46
4, 209136, Note_on_c, 0, 54, 43
4, 209146, Note_on_c, 0, 59, 32
4, 209170, Note_on_c, 0, 59, 0
4, 209178, Note_on_c, 0, 69, 0
4, 209246, Note_on_c, 0, 54, 0
4, 209258, Note_on_c, 0, 70, 63
4, 209264, Note_on_c, 0, 55, 57
4, 209264, Note_on_c, 0, 60, 57
4, 209268, Note_on_c, 0, 65, 49
4, 209286, Note_on_c, 0, 55, 0
4, 209288, Note_on_c, 0, 65, 0
4, 209298, Note_on_c, 0, 60, 0
4, 209298, Note_on_c, 0, 70, 0
4, 209516, Note_on_c, 0, 61, 79
4, 209516, Note_on_c, 0, 51, 78
4, 209516, Note_on_c, 0, 67, 76
4, 209518, Note_on_c, 0, 57, 78
4, 209636, Note_on_c, 0, 51, 0
4, 209646, Note_on_c, 0, 61, 0
4, 209648, Note_on_c, 0, 57, 0
4, 209674, Note_on_c, 0, 62, 30
4, 209678, Note_on_c, 0, 51, 53
4, 209682, Note_on_c, 0, 57, 33
4, 209816, Control_c, 0, 64, 127
4, 209956, Note_on_c, 0, 51, 0
4, 209964, Note_on_c, 0, 57, 0
4, 209974, Note_on_c, 0, 48, 34
4, 209980, Note_on_c, 0, 62, 0
4, 210000, Note_on_c, 0, 48, 0
4, 210024, Note_on_c, 0, 67, 0
4, 210024, Note_on_c, 0, 51, 31
4, 210036, Control_c, 0, 64, 0
4, 210040, Note_on_c, 0, 57, 32
4, 210042, Note_on_c, 0, 65, 55
4, 210046, Note_on_c, 0, 62, 36
4, 210060, Note_on_c, 0, 51, 0
4, 210064, Control_c, 0, 64, 127
4, 210164, Note_on_c, 0, 57, 0
4, 210200, Note_on_c, 0, 62, 0
4, 210206, Note_on_c, 0, 65, 0
4, 210284, Note_on_c, 0, 46, 40
4, 210328, Note_on_c, 0, 46, 0
4, 210378, Control_c, 0, 64, 0
4, 210396, Note_on_c, 0, 70, 60
4, 210406, Note_on_c, 0, 60, 44
4, 210406, Note_on_c, 0, 65, 54
4, 210410, Note_on_c, 0, 55, 42
4, 210546, Note_on_c, 0, 65, 0
4, 210582, Note_on_c, 0, 60, 0
4, 210588, Note_on_c, 0, 70, 0
4, 210636, Control_c, 0, 64, 127
4, 210662, Note_on_c, 0, 55, 0
4, 210672, Note_on_c, 0, 54, 44
4, 210674, Note_on_c, 0, 69, 29
4, 210674, Note_on_c, 0, 59, 20
4, 210682, Note_on_c, 0, 64, 30
4, 210704, Note_on_c, 0, 59, 0
4, 210706, Note_on_c, 0, 69, 0
4, 210712, Note_on_c, 0, 64, 0
4, 210758, Control_c, 0, 64, 0
4, 210790, Note_on_c, 0, 70, 61
4, 210798, Note_on_c, 0, 54, 0
4, 210798, Note_on_c, 0, 60, 42
4, 210806, Note_on_c, 0, 55, 44
4, 210808, Note_on_c, 0, 65, 46
4, 210966, Note_on_c, 0, 60, 0
4, 210972, Note_on_c, 0, 65, 0
4, 211004, Note_on_c, 0, 70, 0
4, 211032, Note_on_c, 0, 55, 0
4, 211048, Note_on_c, 0, 54, 45
4, 211058, Control_c, 0, 64, 127
4, 211144, Control_c, 0, 64, 0
4, 211168, Note_on_c, 0, 70, 43
4, 211174, Note_on_c, 0, 54, 0
4, 211176, Note_on_c, 0, 62, 43
4, 211180, Note_on_c, 0, 58, 36
4, 211186, Note_on_c, 0, 55, 45
4, 211358, Note_on_c, 0, 62, 0
4, 211368, Note_on_c, 0, 58, 0
4, 211406, Note_on_c, 0, 70, 0
4, 211428, Note_on_c, 0, 58, 47
4, 211430, Note_on_c, 0, 55, 0
4, 211432, Note_on_c, 0, 62, 37
4, 211438, Note_on_c, 0, 50, 44
4, 211462, Note_on_c, 0, 62, 0
4, 211462, Note_on_c, 0, 58, 0
4, 211464, Note_on_c, 0, 50, 0
4, 211682, Control_c, 0, 64, 127
4, 212162, Control_c, 0, 64, 0
4, 212178, Note_on_c, 0, 63, 74
4, 212184, Note_on_c, 0, 58, 61
4, 212184, Note_on_c, 0, 69, 69
4, 212188, Note_on_c, 0, 48, 57
4, 212188, Note_on_c, 0, 67, 61
4, 212294, Control_c, 0, 64, 127
4, 212304, Note_on_c, 0, 69, 0
4, 212322, Note_on_c, 0, 63, 0
4, 212322, Control_c, 0, 64, 0
4, 212328, Note_on_c, 0, 67, 0
4, 212328, Note_on_c, 0, 48, 0
4, 212332, Note_on_c, 0, 58, 0
4, 212348, Note_on_c, 0, 70, 50
4, 212356, Note_on_c, 0, 63, 18
4, 212360, Note_on_c, 0, 55, 34
4, 212376, Note_on_c, 0, 70, 0
4, 212386, Note_on_c, 0, 55, 0
4, 212414, Control_c, 0, 64, 127
4, 212458, Note_on_c, 0, 63, 0
4, 212484, Control_c, 0, 64, 0
4, 212556, Control_c, 0, 64, 127
4, 212574, Note_on_c, 0, 63, 64
4, 212578, Note_on_c, 0, 72, 70
4, 212642, Note_on_c, 0, 72, 0
4, 212648, Note_on_c, 0, 63, 0
4, 212710, Control_c, 0, 64, 0
4, 212728, Note_on_c, 0, 73, 56
4, 212734, Note_on_c, 0, 64, 48
4, 212736, Note_on_c, 0, 61, 55
4, 212742, Note_on_c, 0, 70, 45
4, 212742, Note_on_c, 0, 68, 39
4, 212778, Control_c, 0, 64, 127
4, 212786, Note_on_c, 0, 73, 0
4, 212808, Note_on_c, 0, 70, 0
4, 212816, Note_on_c, 0, 68, 0
4, 212820, Control_c, 0, 64, 0
4, 212844, Note_on_c, 0, 61, 0
4, 212844, Note_on_c, 0, 68, 23
4, 212850, Note_on_c, 0, 75, 60
4, 212852, Note_on_c, 0, 63, 51
4, 212854, Note_on_c, 0, 70, 31
4, 212912, Control_c, 0, 64, 127
4, 212946, Note_on_c, 0, 64, 0
4, 212966, Note_on_c, 0, 68, 0
4, 212966, Note_on_c, 0, 70, 0
4, 212976, Note_on_c, 0, 75, 0
4, 212988, Note_on_c, 0, 63, 0
4, 213094, Note_on_c, 0, 68, 43
4, 213096, Control_c, 0, 64, 0
4, 213108, Note_on_c, 0, 80, 71
4, 213112, Note_on_c, 0, 73, 55
4, 213114, Note_on_c, 0, 75, 53
4, 213122, Note_on_c, 0, 69, 46
4, 213198, Note_on_c, 0, 75, 0
4, 213208, Note_on_c, 0, 73, 0
4, 213210, Note_on_c, 0, 69, 0
4, 213214, Note_on_c, 0, 68, 0
4, 213234, Note_on_c, 0, 66, 40
4, 213240, Note_on_c, 0, 78, 52
4, 213244, Note_on_c, 0, 69, 34
4, 213254, Note_on_c, 0, 73, 29
4, 213256, Note_on_c, 0, 75, 32
4, 213292, Control_c, 0, 64, 127
4, 213328, Note_on_c, 0, 80, 0
4, 213420, Note_on_c, 0, 66, 0
4, 213428, Note_on_c, 0, 78, 0
4, 213436, Note_on_c, 0, 69, 0
4, 213458, Note_on_c, 0, 73, 0
4, 213458, Note_on_c, 0, 75, 0
4, 213472, Control_c, 0, 64, 0
4, 213486, Note_on_c, 0, 73, 27
4, 213500, Note_on_c, 0, 65, 42
4, 213504, Note_on_c, 0, 69, 42
4, 213512, Note_on_c, 0, 77, 54
4, 213550, Note_on_c, 0, 73, 0
4, 213582, Control_c, 0, 64, 127
4, 213750, Note_on_c, 0, 69, 0
4, 213800, Note_on_c, 0, 77, 0
4, 213806, Control_c, 0, 64, 0
4, 213830, Note_on_c, 0, 65, 0
4, 213838, Note_on_c, 0, 76, 39
4, 213846, Note_on_c, 0, 64, 27
4, 213864, Note_on_c, 0, 72, 39
4, 213864, Note_on_c, 0, 69, 38
4, 213892, Control_c, 0, 64, 127
4, 213924, Note_on_c, 0, 64, 0
4, 213934, Note_on_c, 0, 72, 0
4, 213958, Note_on_c, 0, 69, 0
4, 214048, Note_on_c, 0, 76, 0
4, 214104, Note_on_c, 0, 77, 65
4, 214106, Note_on_c, 0, 68, 72
4, 214112, Note_on_c, 0, 71, 62
4, 214114, Note_on_c, 0, 65, 60
4, 214118, Note_on_c, 0, 55, 47
4, 214124, Note_on_c, 0, 74, 37
4, 214124, Control_c, 0, 64, 0
4, 214154, Note_on_c, 0, 65, 0
4, 214178, Note_on_c, 0, 55, 0
4, 214180, Note_on_c, 0, 77, 0
4, 214182, Note_on_c, 0, 74, 0
4, 214188, Note_on_c, 0, 71, 0
4, 214216, Note_on_c, 0, 67, 44
4, 214224, Note_on_c, 0, 68, 0
4, 214282, Note_on_c, 0, 67, 0
4, 214294, Note_on_c, 0, 65, 46
4, 214316, Note_on_c, 0, 65, 0
4, 214382, Note_on_c, 0, 43, 44
4, 214404, Note_on_c, 0, 43, 0
4, 214548, Note_on_c, 0, 56, 60
4, 214556, Note_on_c, 0, 65, 47
4, 214558, Note_on_c, 0, 59, 54
4, 214560, Note_on_c, 0, 53, 49
4, 214562, Note_on_c, 0, 62, 46
4, 214766, Note_on_c, 0, 62, 0
4, 214772, Note_on_c, 0, 59, 0
4, 214798, Note_on_c, 0, 53, 0
4, 214806, Note_on_c, 0, 50, 53
4, 214814, Note_on_c, 0, 65, 0
4, 214820, Note_on_c, 0, 62, 58
4, 214832, Note_on_c, 0, 50, 0
4, 214838, Note_on_c, 0, 59, 28
4, 214860, Note_on_c, 0, 59, 0
4, 214866, Note_on_c, 0, 62, 0
4, 214866, Note_on_c, 0, 56, 0
4, 214912, Note_on_c, 0, 47, 35
4, 214916, Control_c, 0, 64, 127
4, 214950, Control_c, 0, 64, 0
4, 214990, Note_on_c, 0, 47, 0
4, 215028, Note_on_c, 0, 63, 47
4, 215036, Note_on_c, 0, 58, 40
4, 215036, Note_on_c, 0, 55, 31
4, 215040, Note_on_c, 0, 48, 39
4, 215064, Note_on_c, 0, 55, 0
4, 215088, Note_on_c, 0, 58, 0
4, 215106, Note_on_c, 0, 63, 0
4, 215112, Note_on_c, 0, 48, 0
4, 215258, Note_on_c, 0, 36, 62
4, 215276, Note_on_c, 0, 36, 0
4, 215286, Control_c, 0, 64, 127
4, 215374, Control_c, 0, 64, 0
4, 215396, Note_on_c, 0, 67, 72
4, 215396, Note_on_c, 0, 63, 73
4, 215398, Note_on_c, 0, 74, 75
4, 215398, Note_on_c, 0, 70, 67
4, 215408, Note_on_c, 0, 62, 73
4, 215460, Note_on_c, 0, 70, 0
4, 215468, Note_on_c, 0, 74, 0
4, 215468, Note_on_c, 0, 67, 0
4, 215468, Note_on_c, 0, 63, 0
4, 215504, Note_on_c, 0, 63, 42
4, 215510, Note_on_c, 0, 72, 61
4, 215512, Note_on_c, 0, 62, 0
4, 215534, Note_on_c, 0, 60, 43
4, 215558, Note_on_c, 0, 60, 0
4, 215564, Note_on_c, 0, 63, 0
4, 215574, Note_on_c, 0, 72, 0
4, 215628, Note_on_c, 0, 70, 56
4, 215630, Note_on_c, 0, 63, 49
4, 215642, Note_on_c, 0, 58, 45
4, 215680, Control_c, 0, 64, 127
4, 215688, Note_on_c, 0, 70, 0
4, 215702, Control_c, 0, 64, 0
4, 215706, Note_on_c, 0, 63, 0
4, 215734, Note_on_c, 0, 58, 0
4, 215760, Note_on_c, 0, 63, 46
4, 215764, Note_on_c, 0, 57, 38
4, 215780, Note_on_c, 0, 69, 45
4, 215844, Note_on_c, 0, 57, 0
4, 215850, Note_on_c, 0, 69, 0
4, 215892, Note_on_c, 0, 63, 0
4, 216014, Control_c, 0, 64, 127
4, 216014, Note_on_c, 0, 63, 60
4, 216018, Note_on_c, 0, 72, 54
4, 216024, Note_on_c, 0, 60, 62
4, 216028, Note_on_c, 0, 67, 31
4, 216044, Note_on_c, 0, 63, 0
4, 216050, Note_on_c, 0, 67, 0
4, 216052, Note_on_c, 0, 72, 0
4, 216072, Note_on_c, 0, 60, 0
4, 216134, Control_c, 0, 64, 0
4, 216162, Note_on_c, 0, 72, 61
4, 216162, Note_on_c, 0, 77, 60
4, 216164, Note_on_c, 0, 67, 38
4, 216168, Note_on_c, 0, 65, 28
4, 216172, Note_on_c, 0, 69, 43
4, 216188, Note_on_c, 0, 65, 0
4, 216192, Note_on_c, 0, 69, 0
4, 216194, Note_on_c, 0, 67, 0
4, 216210, Note_on_c, 0, 72, 0
4, 216220, Note_on_c, 0, 77, 0
4, 216278, Note_on_c, 0, 77, 55
4, 216294, Note_on_c, 0, 65, 58
4, 216298, Note_on_c, 0, 72, 39
4, 216308, Control_c, 0, 64, 127
4, 216310, Note_on_c, 0, 67, 20
4, 216320, Note_on_c, 0, 65, 0
4, 216330, Note_on_c, 0, 72, 0
4, 216336, Note_on_c, 0, 67, 0
4, 216342, Note_on_c, 0, 77, 0
4, 216348, Control_c, 0, 64, 0
4, 216408, Note_on_c, 0, 63, 52
4, 216410, Note_on_c, 0, 67, 34
4, 216412, Note_on_c, 0, 75, 39
4, 216424, Control_c, 0, 64, 127
4, 216430, Note_on_c, 0, 75, 0
4, 216434, Note_on_c, 0, 67, 0
4, 216468, Note_on_c, 0, 63, 0
4, 216538, Note_on_c, 0, 74, 71
4, 216538, Note_on_c, 0, 56, 52
4, 216540, Control_c, 0, 64, 0
4, 216544, Note_on_c, 0, 63, 61
4, 216546, Note_on_c, 0, 68, 62
4, 216552, Note_on_c, 0, 60, 67
4, 216666, Control_c, 0, 64, 127
4, 216760, Note_on_c, 0, 74, 0
4, 216778, Note_on_c, 0, 60, 0
4, 216786, Note_on_c, 0, 63, 0
4, 216788, Note_on_c, 0, 72, 46
4, 216836, Note_on_c, 0, 68, 0
4, 216846, Note_on_c, 0, 56, 0
4, 216860, Note_on_c, 0, 72, 0
4, 216904, Control_c, 0, 64, 0
4, 216922, Note_on_c, 0, 68, 43
4, 216924, Note_on_c, 0, 74, 41
4, 216932, Note_on_c, 0, 63, 27
4, 216934, Note_on_c, 0, 56, 30
4, 216936, Note_on_c, 0, 60, 44
4, 217012, Control_c, 0, 64, 127
4, 217030, Control_c, 0, 64, 0
4, 217036, Note_on_c, 0, 56, 0
4, 217078, Note_on_c, 0, 68, 0
4, 217094, Control_c, 0, 64, 127
4, 217096, Note_on_c, 0, 60, 0
4, 217114, Note_on_c, 0, 74, 0
4, 217118, Note_on_c, 0, 63, 0
4, 217188, Note_on_c, 0, 56, 34
4, 217192, Note_on_c, 0, 68, 38
4, 217196, Note_on_c, 0, 72, 50
4, 217242, Note_on_c, 0, 56, 0
4, 217250, Note_on_c, 0, 68, 0
4, 217272, Control_c, 0, 64, 0
4, 217274, Note_on_c, 0, 72, 0
4, 217316, Note_on_c, 0, 56, 30
4, 217328, Note_on_c, 0, 67, 33
4, 217330, Note_on_c, 0, 74, 26
4, 217332, Note_on_c, 0, 62, 34
4, 217334, Note_on_c, 0, 71, 33
4, 217350, Note_on_c, 0, 67, 0
4, 217362, Note_on_c, 0, 71, 0
4, 217366, Note_on_c, 0, 62, 0
4, 217376, Note_on_c, 0, 74, 0
4, 217376, Note_on_c, 0, 56, 0
4, 217560, Note_on_c, 0, 79, 80
4, 217562, Note_on_c, 0, 73, 78
4, 217564, Note_on_c, 0, 72, 82
4, 217564, Note_on_c, 0, 56, 70
4, 217566, Note_on_c, 0, 62, 60
4, 217568, Note_on_c, 0, 66, 77
4, 217622, Note_on_c, 0, 74, 57
4, 217628, Note_on_c, 0, 73, 0
4, 217664, Note_on_c, 0, 72, 0
4, 217672, Note_on_c, 0, 66, 0
4, 217678, Note_on_c, 0, 79, 0
4, 217686, Note_on_c, 0, 74, 0
4, 217688, Note_on_c, 0, 56, 0
4, 217738, Note_on_c, 0, 56, 50
4, 217738, Note_on_c, 0, 77, 62
4, 217746, Note_on_c, 0, 66, 42
4, 217762, Note_on_c, 0, 74, 38
4, 217796, Note_on_c, 0, 74, 0
4, 217810, Control_c, 0, 64, 127
4, 217820, Note_on_c, 0, 66, 0
4, 217830, Note_on_c, 0, 56, 0
4, 217848, Note_on_c, 0, 77, 0
4, 217874, Control_c, 0, 64, 0
4, 217878, Note_on_c, 0, 62, 0
4, 217958, Note_on_c, 0, 74, 56
4, 217964, Note_on_c, 0, 56, 59
4, 217968, Note_on_c, 0, 66, 48
4, 217974, Note_on_c, 0, 62, 29
4, 217978, Note_on_c, 0, 67, 34
4, 217990, Control_c, 0, 64, 127
4, 218010, Note_on_c, 0, 67, 0
4, 218022, Note_on_c, 0, 66, 0
4, 218056, Note_on_c, 0, 62, 0
4, 218064, Note_on_c, 0, 74, 0
4, 218070, Control_c, 0, 64, 0
4, 218100, Note_on_c, 0, 56, 0
4, 218100, Note_on_c, 0, 62, 18
4, 218102, Note_on_c, 0, 70, 44
4, 218110, Note_on_c, 0, 65, 43
4, 218116, Note_on_c, 0, 60, 30
4, 218122, Note_on_c, 0, 55, 40
4, 218196, Note_on_c, 0, 65, 0
4, 218212, Note_on_c, 0, 55, 0
4, 218216, Note_on_c, 0, 70, 0
4, 218220, Note_on_c, 0, 60, 0
4, 218250, Note_on_c, 0, 62, 0
4, 218330, Control_c, 0, 64, 127
4, 218394, Control_c, 0, 64, 0
4, 218466, Note_on_c, 0, 62, 43
4, 218470, Note_on_c, 0, 70, 58
4, 218478, Note_on_c, 0, 60, 37
4, 218484, Note_on_c, 0, 55, 44
4, 218502, Note_on_c, 0, 65, 17
4, 218530, Note_on_c, 0, 65, 0
4, 218558, Note_on_c, 0, 60, 0
4, 218558, Note_on_c, 0, 62, 0
4, 218572, Note_on_c, 0, 70, 0
4, 218592, Note_on_c, 0, 55, 0
4, 218676, Control_c, 0, 64, 127
4, 218720, Note_on_c, 0, 69, 41
4, 218792, Control_c, 0, 64, 0
4, 218808, Note_on_c, 0, 69, 0
4, 218852, Note_on_c, 0, 65, 30
4, 218860, Note_on_c, 0, 70, 43
4, 218870, Note_on_c, 0, 58, 19
4, 218880, Note_on_c, 0, 65, 0
4, 218906, Note_on_c, 0, 70, 0
4, 218920, Note_on_c, 0, 58, 0
4, 219096, Note_on_c, 0, 74, 80
4, 219102, Note_on_c, 0, 54, 64
4, 219102, Note_on_c, 0, 65, 66
4, 219112, Note_on_c, 0, 58, 42
4, 219112, Note_on_c, 0, 60, 59
4, 219132, Control_c, 0, 64, 127
4, 219154, Note_on_c, 0, 65, 0
4, 219172, Control_c, 0, 64, 0
4, 219180, Note_on_c, 0, 60, 0
4, 219208, Note_on_c, 0, 58, 0
4, 219208, Note_on_c, 0, 54, 0
4, 219210, Note_on_c, 0, 74, 0
4, 219246, Note_on_c, 0, 54, 36
4, 219250, Note_on_c, 0, 77, 74
4, 219254, Note_on_c, 0, 65, 58
4, 219258, Note_on_c, 0, 60, 51
4, 219262, Note_on_c, 0, 58, 30
4, 219304, Note_on_c, 0, 65, 0
4, 219326, Note_on_c, 0, 60, 0
4, 219344, Note_on_c, 0, 77, 0
4, 219360, Note_on_c, 0, 54, 0
4, 219364, Note_on_c, 0, 58, 0
4, 219488, Note_on_c, 0, 75, 59
4, 219502, Note_on_c, 0, 54, 42
4, 219546, Note_on_c, 0, 75, 0
4, 219564, Note_on_c, 0, 54, 0
4, 219618, Note_on_c, 0, 74, 69
4, 219620, Note_on_c, 0, 62, 48
4, 219698, Note_on_c, 0, 74, 0
4, 219736, Note_on_c, 0, 62, 0
4, 219870, Note_on_c, 0, 69, 68
4, 219872, Note_on_c, 0, 57, 53
4, 219960, Note_on_c, 0, 69, 0
4, 219964, Note_on_c, 0, 57, 0
4, 220010, Note_on_c, 0, 56, 39
4, 220022, Note_on_c, 0, 68, 49
4, 220052, Note_on_c, 0, 68, 0
4, 220064, Note_on_c, 0, 56, 0
4, 220246, Note_on_c, 0, 61, 46
4, 220246, Note_on_c, 0, 73, 68
4, 220342, Note_on_c, 0, 73, 0
4, 220356, Note_on_c, 0, 61, 0
4, 220390, Note_on_c, 0, 60, 49
4, 220392, Note_on_c, 0, 72, 66
4, 220462, Note_on_c, 0, 72, 0
4, 220472, Note_on_c, 0, 60, 0
4, 220624, Note_on_c, 0, 67, 60
4, 220626, Note_on_c, 0, 55, 47
4, 220734, Note_on_c, 0, 55, 0
4, 220738, Note_on_c, 0, 67, 0
4, 220772, Note_on_c, 0, 66, 46
4, 220772, Note_on_c, 0, 54, 47
4, 220828, Note_on_c, 0, 54, 0
4, 220846, Note_on_c, 0, 66, 0
4, 220998, Note_on_c, 0, 59, 55
4, 221006, Note_on_c, 0, 71, 57
4, 221018, Note_on_c, 0, 59, 0
4, 221038, Control_c, 0, 64, 127
4, 221046, Note_on_c, 0, 71, 0
4, 221120, Control_c, 0, 64, 0
4, 221150, Note_on_c, 0, 70, 55
4, 221150, Note_on_c, 0, 60, 58
4, 221152, Note_on_c, 0, 55, 59
4, 221156, Note_on_c, 0, 65, 46
4, 221174, Note_on_c, 0, 60, 0
4, 221176, Note_on_c, 0, 65, 0
4, 221178, Note_on_c, 0, 55, 0
4, 221182, Note_on_c, 0, 70, 0
4, 221538, Note_on_c, 0, 54, 38
4, 221542, Note_on_c, 0, 59, 39
4, 221548, Note_on_c, 0, 69, 32
4, 221550, Note_on_c, 0, 64, 27
4, 221628, Note_on_c, 0, 69, 0
4, 221636, Note_on_c, 0, 59, 0
4, 221638, Note_on_c, 0, 64, 0
4, 221788, Note_on_c, 0, 70, 64
4, 221798, Note_on_c, 0, 60, 56
4, 221800, Note_on_c, 0, 55, 60
4, 221802, Note_on_c, 0, 65, 54
4, 221818, Note_on_c, 0, 60, 0
4, 221818, Note_on_c, 0, 54, 0
4, 221824, Note_on_c, 0, 65, 0
4, 221846, Note_on_c, 0, 55, 0
4, 221856, Note_on_c, 0, 70, 0
4, 222090, Note_on_c, 0, 70, 67
4, 222132, Note_on_c, 0, 72, 63
4, 222134, Note_on_c, 0, 70, 0
4, 222184, Note_on_c, 0, 70, 46
4, 222202, Note_on_c, 0, 72, 0
4, 222276, Note_on_c, 0, 70, 0
4, 222282, Note_on_c, 0, 69, 49
4, 222328, Note_on_c, 0, 69, 0
4, 222378, Note_on_c, 0, 70, 69
4, 222438, Note_on_c, 0, 70, 0
4, 222472, Note_on_c, 0, 71, 59
4, 222512, Note_on_c, 0, 66, 25
4, 222514, Note_on_c, 0, 56, 30
4, 222516, Note_on_c, 0, 71, 0
4, 222560, Note_on_c, 0, 72, 55
4, 222568, Note_on_c, 0, 66, 0
4, 222614, Note_on_c, 0, 56, 0
4, 222614, Note_on_c, 0, 73, 54
4, 222620, Note_on_c, 0, 72, 0
4, 222666, Note_on_c, 0, 73, 0
4, 222666, Note_on_c, 0, 74, 59
4, 222684, Note_on_c, 0, 55, 35
4, 222684, Note_on_c, 0, 62, 24
4, 222688, Note_on_c, 0, 65, 18
4, 222698, Note_on_c, 0, 60, 28
4, 222718, Note_on_c, 0, 74, 0
4, 222766, Note_on_c, 0, 77, 71
4, 222854, Note_on_c, 0, 77, 0
4, 222870, Note_on_c, 0, 74, 69
4, 222916, Note_on_c, 0, 74, 0
4, 222970, Note_on_c, 0, 75, 81
4, 223116, Control_c, 0, 64, 127
4, 223180, Note_on_c, 0, 62, 0
4, 223186, Note_on_c, 0, 65, 0
4, 223214, Note_on_c, 0, 60, 0
4, 223252, Note_on_c, 0, 55, 0
4, 223320, Note_on_c, 0, 75, 0
4, 223402, Note_on_c, 0, 72, 25
4, 223438, Note_on_c, 0, 72, 0
4, 223480, Control_c, 0, 64, 0
4, 223536, Note_on_c, 0, 75, 47
4, 223566, Note_on_c, 0, 75, 0
4, 223742, Note_on_c, 0, 51, 46
4, 223752, Note_on_c, 0, 63, 48
4, 223756, Note_on_c, 0, 77, 70
4, 223766, Note_on_c, 0, 58, 37
4, 223792, Note_on_c, 0, 51, 0
4, 223822, Note_on_c, 0, 52, 29
4, 223846, Note_on_c, 0, 77, 0
4, 223894, Note_on_c, 0, 75, 56
4, 224044, Note_on_c, 0, 63, 0
4, 224048, Note_on_c, 0, 58, 0
4, 224068, Note_on_c, 0, 52, 0
4, 224070, Control_c, 0, 64, 127
4, 224212, Note_on_c, 0, 75, 0
4, 224266, Control_c, 0, 64, 0
4, 224304, Note_on_c, 0, 73, 33
4, 224312, Control_c, 0, 64, 127
4, 224332, Note_on_c, 0, 73, 0
4, 224354, Control_c, 0, 64, 0
4, 224440, Control_c, 0, 64, 127
4, 224482, Note_on_c, 0, 74, 60
4, 224486, Note_on_c, 0, 62, 58
4, 224496, Note_on_c, 0, 60, 51
4, 224496, Note_on_c, 0, 56, 34
4, 224536, Note_on_c, 0, 62, 0
4, 224546, Note_on_c, 0, 74, 0
4, 224548, Note_on_c, 0, 60, 0
4, 224562, Note_on_c, 0, 56, 0
4, 224632, Note_on_c, 0, 75, 70
4, 224642, Note_on_c, 0, 63, 39
4, 224646, Note_on_c, 0, 60, 34
4, 224648, Note_on_c, 0, 56, 23
4, 224662, Note_on_c, 0, 63, 0
4, 224676, Note_on_c, 0, 60, 0
4, 224684, Note_on_c, 0, 56, 0
4, 224688, Note_on_c, 0, 75, 0
4, 224722, Control_c, 0, 64, 0
4, 224856, Control_c, 0, 64, 127
4, 224884, Note_on_c, 0, 56, 46
4, 224890, Note_on_c, 0, 77, 69
4, 224894, Note_on_c, 0, 65, 71
4, 224896, Note_on_c, 0, 60, 43
4, 224914, Note_on_c, 0, 65, 0
4, 224920, Note_on_c, 0, 60, 0
4, 224934, Note_on_c, 0, 77, 0
4, 224940, Note_on_c, 0, 56, 0
4, 225014, Note_on_c, 0, 56, 62
4, 225020, Note_on_c, 0, 78, 62
4, 225024, Note_on_c, 0, 62, 59
4, 225026, Note_on_c, 0, 66, 59
4, 225064, Note_on_c, 0, 66, 0
4, 225072, Note_on_c, 0, 56, 0
4, 225074, Note_on_c, 0, 78, 0
4, 225092, Note_on_c, 0, 62, 0
4, 225120, Control_c, 0, 64, 0
4, 225128, Note_on_c, 0, 68, 63
4, 225128, Note_on_c, 0, 80, 67
4, 225138, Note_on_c, 0, 56, 50
4, 225146, Note_on_c, 0, 62, 50
4, 225150, Note_on_c, 0, 66, 56
4, 225178, Control_c, 0, 64, 127
4, 225296, Note_on_c, 0, 68, 0
4, 225306, Note_on_c, 0, 56, 0
4, 225312, Note_on_c, 0, 66, 0
4, 225320, Note_on_c, 0, 80, 0
4, 225342, Note_on_c, 0, 62, 0
4, 225420, Control_c, 0, 64, 0
4, 225438, Control_c, 0, 64, 127
4, 225552, Note_on_c, 0, 83, 71
4, 225554, Control_c, 0, 64, 0
4, 225558, Note_on_c, 0, 56, 49
4, 225558, Note_on_c, 0, 66, 49
4, 225562, Note_on_c, 0, 71, 62
4, 225562, Note_on_c, 0, 62, 38
4, 225594, Control_c, 0, 64, 127
4, 225604, Note_on_c, 0, 71, 0
4, 225612, Note_on_c, 0, 66, 0
4, 225614, Note_on_c, 0, 83, 0
4, 225620, Note_on_c, 0, 56, 0
4, 225648, Note_on_c, 0, 62, 0
4, 225698, Note_on_c, 0, 85, 62
4, 225698, Note_on_c, 0, 56, 56
4, 225700, Note_on_c, 0, 66, 45
4, 225704, Note_on_c, 0, 73, 32
4, 225708, Note_on_c, 0, 62, 37
4, 225772, Note_on_c, 0, 62, 0
4, 225776, Note_on_c, 0, 73, 0
4, 225788, Note_on_c, 0, 85, 0
4, 225790, Note_on_c, 0, 66, 0
4, 225804, Note_on_c, 0, 56, 0
4, 225860, Control_c, 0, 64, 0
4, 225862, Note_on_c, 0, 65, 52
4, 225870, Note_on_c, 0, 82, 35
4, 225878, Note_on_c, 0, 62, 27
4, 225880, Note_on_c, 0, 55, 39
4, 225880, Note_on_c, 0, 58, 38
4, 225884, Note_on_c, 0, 70, 36
4, 225954, Note_on_c, 0, 62, 0
4, 225964, Note_on_c, 0, 65, 0
4, 225976, Note_on_c, 0, 55, 0
4, 225980, Note_on_c, 0, 70, 0
4, 225984, Note_on_c, 0, 82, 0
4, 225984, Note_on_c, 0, 58, 0
4, 225998, Control_c, 0, 64, 127
4, 226124, Control_c, 0, 64, 0
4, 226156, Note_on_c, 0, 65, 46
4, 226158, Note_on_c, 0, 55, 46
4, 226160, Note_on_c, 0, 82, 51
4, 226162, Note_on_c, 0, 62, 38
4, 226164, Note_on_c, 0, 58, 35
4, 226166, Note_on_c, 0, 70, 51
4, 226216, Note_on_c, 0, 65, 0
4, 226226, Note_on_c, 0, 62, 0
4, 226234, Note_on_c, 0, 55, 0
4, 226244, Note_on_c, 0, 58, 0
4, 226250, Note_on_c, 0, 70, 0
4, 226260, Note_on_c, 0, 82, 0
4, 226408, Control_c, 0, 64, 127
4, 226434, Note_on_c, 0, 81, 53
4, 226440, Note_on_c, 0, 69, 36
4, 226458, Note_on_c, 0, 81, 0
4, 226464, Note_on_c, 0, 69, 0
4, 226536, Control_c, 0, 64, 0
4, 226552, Note_on_c, 0, 63, 47
4, 226554, Note_on_c, 0, 52, 56
4, 226560, Note_on_c, 0, 58, 42
4, 226564, Note_on_c, 0, 82, 61
4, 226564, Note_on_c, 0, 70, 57
4, 226714, Note_on_c, 0, 52, 0
4, 226730, Note_on_c, 0, 63, 0
4, 226734, Note_on_c, 0, 82, 0
4, 226738, Control_c, 0, 64, 127
4, 226746, Note_on_c, 0, 58, 0
4, 226750, Note_on_c, 0, 70, 0
4, 226808, Note_on_c, 0, 82, 59
4, 226814, Note_on_c, 0, 70, 52
4, 226818, Note_on_c, 0, 63, 47
4, 226822, Note_on_c, 0, 52, 53
4, 226826, Note_on_c, 0, 58, 39
4, 226864, Note_on_c, 0, 63, 0
4, 226864, Control_c, 0, 64, 0
4, 226866, Note_on_c, 0, 70, 0
4, 226870, Note_on_c, 0, 82, 0
4, 226888, Note_on_c, 0, 52, 0
4, 226896, Note_on_c, 0, 58, 0
4, 226974, Control_c, 0, 64, 127
4, 227162, Note_on_c, 0, 67, 74
4, 227164, Note_on_c, 0, 55, 90
4, 227166, Note_on_c, 0, 60, 79
4, 227168, Note_on_c, 0, 54, 72
4, 227168, Note_on_c, 0, 63, 59
4, 227172, Note_on_c, 0, 56, 65
4, 227194, Note_on_c, 0, 54, 0
4, 227200, Control_c, 0, 64, 0
4, 227470, Control_c, 0, 64, 127
4, 227598, Note_on_c, 0, 55, 0
4, 227608, Note_on_c, 0, 56, 0
4, 227616, Note_on_c, 0, 60, 0
4, 227626, Note_on_c, 0, 67, 0
4, 227628, Note_on_c, 0, 51, 34
4, 227644, Note_on_c, 0, 63, 0
4, 227662, Control_c, 0, 64, 0
4, 227676, Note_on_c, 0, 51, 0
4, 227678, Note_on_c, 0, 56, 37
4, 227688, Note_on_c, 0, 60, 48
4, 227690, Note_on_c, 0, 65, 36
4, 227712, Note_on_c, 0, 60, 0
4, 227724, Note_on_c, 0, 56, 0
4, 227726, Note_on_c, 0, 65, 0
4, 227938, Control_c, 0, 64, 127
4, 227948, Note_on_c, 0, 51, 42
4, 227950, Note_on_c, 0, 63, 43
4, 227954, Note_on_c, 0, 56, 36
4, 227960, Note_on_c, 0, 60, 48
4, 227986, Note_on_c, 0, 60, 0
4, 228014, Note_on_c, 0, 56, 0
4, 228032, Control_c, 0, 64, 0
4, 228052, Note_on_c, 0, 51, 0
4, 228060, Note_on_c, 0, 63, 0
4, 228098, Note_on_c, 0, 50, 44
4, 228100, Note_on_c, 0, 56, 20
4, 228102, Note_on_c, 0, 62, 37
4, 228166, Note_on_c, 0, 62, 0
4, 228174, Note_on_c, 0, 56, 0
4, 228262, Note_on_c, 0, 50, 0
4, 228296, Control_c, 0, 64, 127
4, 228350, Note_on_c, 0, 53, 30
4, 228390, Note_on_c, 0, 53, 0
4, 228424, Control_c, 0, 64, 0
4, 228454, Note_on_c, 0, 70, 60
4, 228458, Note_on_c, 0, 55, 38
4, 228464, Note_on_c, 0, 60, 44
4, 228470, Note_on_c, 0, 65, 32
4, 228486, Note_on_c, 0, 60, 0
4, 228494, Note_on_c, 0, 65, 0
4, 228494, Note_on_c, 0, 70, 0
4, 228506, Note_on_c, 0, 55, 0
4, 228684, Control_c, 0, 64, 127
4, 228710, Note_on_c, 0, 68, 54
4, 228712, Note_on_c, 0, 53, 37
4, 228720, Note_on_c, 0, 63, 39
4, 228736, Note_on_c, 0, 53, 0
4, 228738, Note_on_c, 0, 63, 0
4, 228752, Note_on_c, 0, 68, 0
4, 228828, Control_c, 0, 64, 0
4, 228976, Note_on_c, 0, 67, 59
4, 228988, Note_on_c, 0, 58, 49
4, 228990, Note_on_c, 0, 61, 53
4, 228994, Note_on_c, 0, 56, 31
4, 229008, Note_on_c, 0, 46, 37
4, 229064, Note_on_c, 0, 61, 0
4, 229068, Note_on_c, 0, 67, 0
4, 229082, Control_c, 0, 64, 127
4, 229088, Note_on_c, 0, 56, 0
4, 229110, Note_on_c, 0, 65, 43
4, 229118, Note_on_c, 0, 58, 0
4, 229140, Note_on_c, 0, 65, 0
4, 229174, Control_c, 0, 64, 0
4, 229222, Note_on_c, 0, 67, 61
4, 229230, Note_on_c, 0, 58, 49
4, 229232, Note_on_c, 0, 56, 35
4, 229232, Note_on_c, 0, 61, 55
4, 229400, Control_c, 0, 64, 127
4, 229406, Note_on_c, 0, 58, 0
4, 229412, Note_on_c, 0, 61, 0
4, 229430, Note_on_c, 0, 56, 0
4, 229432, Note_on_c, 0, 67, 0
4, 229472, Note_on_c, 0, 65, 50
4, 229538, Note_on_c, 0, 65, 0
4, 229544, Control_c, 0, 64, 0
4, 229594, Note_on_c, 0, 55, 44
4, 229608, Note_on_c, 0, 67, 24
4, 229610, Note_on_c, 0, 61, 35
4, 229616, Note_on_c, 0, 64, 31
4, 229632, Note_on_c, 0, 46, 0
4, 229636, Note_on_c, 0, 61, 0
4, 229644, Note_on_c, 0, 64, 0
4, 229648, Note_on_c, 0, 67, 0
4, 229674, Note_on_c, 0, 55, 0
4, 229864, Note_on_c, 0, 72, 77
4, 229868, Note_on_c, 0, 60, 50
4, 229874, Control_c, 0, 64, 127
4, 229874, Note_on_c, 0, 62, 70
4, 229902, Note_on_c, 0, 60, 0
4, 229926, Note_on_c, 0, 62, 0
4, 229926, Note_on_c, 0, 72, 0
4, 229936, Control_c, 0, 64, 0
4, 230010, Note_on_c, 0, 58, 50
4, 230010, Note_on_c, 0, 70, 59
4, 230038, Note_on_c, 0, 67, 20
4, 230056, Note_on_c, 0, 67, 0
4, 230056, Note_on_c, 0, 58, 0
4, 230072, Note_on_c, 0, 70, 0
4, 230086, Control_c, 0, 64, 127
4, 230144, Control_c, 0, 64, 0
4, 230224, Note_on_c, 0, 55, 45
4, 230230, Note_on_c, 0, 67, 45
4, 230236, Note_on_c, 0, 59, 55
4, 230236, Control_c, 0, 64, 127
4, 230240, Note_on_c, 0, 63, 46
4, 230268, Note_on_c, 0, 55, 0
4, 230276, Note_on_c, 0, 67, 0
4, 230282, Note_on_c, 0, 59, 0
4, 230296, Note_on_c, 0, 63, 0
4, 230346, Control_c, 0, 64, 0
4, 230380, Note_on_c, 0, 51, 34
4, 230382, Note_on_c, 0, 55, 49
4, 230384, Note_on_c, 0, 60, 54
4, 230384, Note_on_c, 0, 63, 31
4, 230388, Note_on_c, 0, 44, 27
4, 230560, Control_c, 0, 64, 127
4, 230616, Note_on_c, 0, 51, 0
4, 230632, Note_on_c, 0, 55, 0
4, 230640, Note_on_c, 0, 60, 0
4, 230658, Note_on_c, 0, 63, 0
4, 230722, Control_c, 0, 64, 0
4, 230746, Note_on_c, 0, 63, 47
4, 230748, Note_on_c, 0, 51, 43
4, 230752, Note_on_c, 0, 60, 54
4, 230754, Note_on_c, 0, 55, 48
4, 230910, Note_on_c, 0, 55, 0
4, 230942, Note_on_c, 0, 60, 0
4, 230964, Note_on_c, 0, 63, 0
4, 230970, Control_c, 0, 64, 127
4, 230974, Note_on_c, 0, 51, 0
4, 230998, Note_on_c, 0, 49, 26
4, 231086, Note_on_c, 0, 49, 0
4, 231102, Control_c, 0, 64, 0
4, 231134, Note_on_c, 0, 44, 0
4, 231150, Note_on_c, 0, 63, 38
4, 231162, Note_on_c, 0, 60, 22
4, 231172, Note_on_c, 0, 51, 33
4, 231184, Note_on_c, 0, 60, 0
4, 231200, Note_on_c, 0, 51, 0
4, 231216, Note_on_c, 0, 63, 0
4, 231362, Control_c, 0, 64, 127
4, 231376, Note_on_c, 0, 67, 44
4, 231376, Note_on_c, 0, 63, 57
4, 231382, Note_on_c, 0, 59, 50
4, 231396, Note_on_c, 0, 67, 0
4, 231404, Note_on_c, 0, 59, 0
4, 231420, Note_on_c, 0, 63, 0
4, 231518, Control_c, 0, 64, 0
4, 231524, Note_on_c, 0, 70, 70
4, 231528, Note_on_c, 0, 58, 59
4, 231534, Note_on_c, 0, 59, 55
4, 231536, Note_on_c, 0, 63, 57
4, 231622, Control_c, 0, 64, 127
4, 231692, Note_on_c, 0, 63, 0
4, 231698, Note_on_c, 0, 59, 0
4, 231698, Control_c, 0, 64, 0
4, 231700, Note_on_c, 0, 70, 0
4, 231710, Note_on_c, 0, 58, 0
4, 231752, Note_on_c, 0, 63, 60
4, 231760, Note_on_c, 0, 68, 51
4, 231760, Note_on_c, 0, 56, 54
4, 231762, Note_on_c, 0, 59, 53
4, 231768, Control_c, 0, 64, 127
4, 231778, Note_on_c, 0, 68, 0
4, 231818, Note_on_c, 0, 59, 0
4, 231818, Note_on_c, 0, 56, 0
4, 231838, Note_on_c, 0, 63, 0
4, 231888, Control_c, 0, 64, 0
4, 231912, Note_on_c, 0, 53, 42
4, 231920, Note_on_c, 0, 67, 44
4, 231934, Note_on_c, 0, 62, 28
4, 231954, Note_on_c, 0, 62, 0
4, 231968, Note_on_c, 0, 67, 0
4, 232012, Note_on_c, 0, 53, 0
4, 232126, Control_c, 0, 64, 127
4, 232132, Note_on_c, 0, 62, 60
4, 232140, Note_on_c, 0, 50, 43
4, 232200, Note_on_c, 0, 62, 0
4, 232232, Note_on_c, 0, 50, 0
4, 232240, Control_c, 0, 64, 0
4, 232288, Note_on_c, 0, 61, 46
4, 232304, Note_on_c, 0, 47, 37
4, 232306, Note_on_c, 0, 55, 49
4, 232330, Note_on_c, 0, 47, 0
4, 232334, Note_on_c, 0, 55, 0
4, 232356, Control_c, 0, 64, 127
4, 232358, Note_on_c, 0, 61, 0
4, 232454, Control_c, 0, 64, 0
4, 232514, Note_on_c, 0, 54, 39
4, 232518, Note_on_c, 0, 66, 64
4, 232520, Note_on_c, 0, 61, 63
4, 232524, Note_on_c, 0, 63, 56
4, 232532, Note_on_c, 0, 57, 47
4, 232534, Control_c, 0, 64, 127
4, 232548, Note_on_c, 0, 59, 32
4, 232570, Note_on_c, 0, 59, 0
4, 232594, Note_on_c, 0, 57, 0
4, 232612, Note_on_c, 0, 54, 0
4, 232612, Note_on_c, 0, 66, 0
4, 232636, Note_on_c, 0, 61, 0
4, 232662, Control_c, 0, 64, 0
4, 232694, Note_on_c, 0, 65, 53
4, 232700, Note_on_c, 0, 53, 38
4, 232710, Note_on_c, 0, 57, 30
4, 232716, Note_on_c, 0, 60, 33
4, 232720, Note_on_c, 0, 65, 0
4, 232726, Note_on_c, 0, 53, 0
4, 232736, Note_on_c, 0, 60, 0
4, 232756, Note_on_c, 0, 63, 0
4, 232796, Note_on_c, 0, 57, 0
4, 232928, Control_c, 0, 64, 127
4, 232930, Note_on_c, 0, 60, 62
4, 232954, Note_on_c, 0, 48, 35
4, 232996, Control_c, 0, 64, 0
4, 233016, Note_on_c, 0, 48, 0
4, 233048, Note_on_c, 0, 60, 0
4, 233096, Note_on_c, 0, 47, 27
4, 233120, Note_on_c, 0, 59, 25
4, 233148, Note_on_c, 0, 59, 0
4, 233168, Note_on_c, 0, 47, 0
4, 233194, Control_c, 0, 64, 127
4, 233262, Control_c, 0, 64, 0
4, 233302, Note_on_c, 0, 56, 23
4, 233302, Note_on_c, 0, 66, 53
4, 233306, Note_on_c, 0, 57, 69
4, 233322, Note_on_c, 0, 56, 0
4, 233356, Note_on_c, 0, 57, 0
4, 233360, Note_on_c, 0, 66, 0
4, 233372, Control_c, 0, 64, 127
4, 233466, Note_on_c, 0, 51, 59
4, 233466, Control_c, 0, 64, 0
4, 233476, Note_on_c, 0, 63, 32
4, 233484, Note_on_c, 0, 58, 50
4, 233484, Note_on_c, 0, 60, 49
4, 233484, Note_on_c, 0, 55, 44
4, 233632, Control_c, 0, 64, 127
4, 233680, Note_on_c, 0, 55, 0
4, 233684, Note_on_c, 0, 51, 0
4, 233702, Note_on_c, 0, 60, 0
4, 233714, Note_on_c, 0, 58, 0
4, 233736, Note_on_c, 0, 63, 0
4, 233746, Note_on_c, 0, 50, 39
4, 233782, Note_on_c, 0, 50, 0
4, 233788, Control_c, 0, 64, 0
4, 233840, Note_on_c, 0, 63, 35
4, 233840, Note_on_c, 0, 51, 49
4, 233846, Note_on_c, 0, 58, 35
4, 233854, Note_on_c, 0, 60, 33
4, 233858, Note_on_c, 0, 55, 39
4, 233900, Note_on_c, 0, 55, 0
4, 233910, Control_c, 0, 64, 127
4, 233912, Note_on_c, 0, 60, 0
4, 233944, Note_on_c, 0, 58, 0
4, 233944, Note_on_c, 0, 63, 0
4, 234014, Note_on_c, 0, 51, 0
4, 234080, Note_on_c, 0, 51, 36
4, 234086, Note_on_c, 0, 65, 60
4, 234088, Note_on_c, 0, 62, 49
4, 234090, Note_on_c, 0, 57, 57
4, 234094, Control_c, 0, 64, 0
4, 234102, Note_on_c, 0, 41, 40
4, 234158, Note_on_c, 0, 57, 0
4, 234198, Control_c, 0, 64, 127
4, 234210, Note_on_c, 0, 62, 0
4, 234212, Note_on_c, 0, 65, 0
4, 234474, Note_on_c, 0, 48, 30
4, 234520, Note_on_c, 0, 48, 0
4, 234544, Note_on_c, 0, 41, 0
4, 234590, Note_on_c, 0, 51, 0
4, 234590, Control_c, 0, 64, 0
4, 234604, Note_on_c, 0, 83, 82
4, 234608, Note_on_c, 0, 71, 75
4, 234666, Control_c, 0, 64, 127
4, 234834, Note_on_c, 0, 83, 0
4, 234848, Note_on_c, 0, 71, 0
4, 234960, Control_c, 0, 64, 0
4, 234970, Note_on_c, 0, 82, 47
4, 234974, Note_on_c, 0, 55, 31
4, 234980, Note_on_c, 0, 62, 24
4, 234988, Note_on_c, 0, 60, 24
4, 234992, Note_on_c, 0, 70, 35
4, 234994, Note_on_c, 0, 65, 13
4, 235074, Note_on_c, 0, 65, 0
4, 235076, Note_on_c, 0, 60, 0
4, 235088, Note_on_c, 0, 55, 0
4, 235096, Note_on_c, 0, 62, 0
4, 235098, Note_on_c, 0, 70, 0
4, 235112, Note_on_c, 0, 82, 0
4, 235362, Note_on_c, 0, 82, 56
4, 235376, Note_on_c, 0, 70, 36
4, 235380, Note_on_c, 0, 60, 25
4, 235442, Note_on_c, 0, 60, 0
4, 235464, Note_on_c, 0, 82, 0
4, 235474, Note_on_c, 0, 70, 0
4, 235602, Control_c, 0, 64, 127
4, 235620, Note_on_c, 0, 81, 45
4, 235638, Note_on_c, 0, 69, 29
4, 235656, Note_on_c, 0, 81, 0
4, 235660, Note_on_c, 0, 69, 0
4, 235694, Control_c, 0, 64, 0
4, 235754, Note_on_c, 0, 62, 22
4, 235754, Note_on_c, 0, 82, 47
4, 235758, Note_on_c, 0, 70, 35
4, 235760, Note_on_c, 0, 58, 27
4, 235764, Note_on_c, 0, 57, 29
4, 235770, Note_on_c, 0, 53, 31
4, 235816, Note_on_c, 0, 70, 0
4, 235838, Note_on_c, 0, 57, 0
4, 235840, Note_on_c, 0, 82, 0
4, 235840, Note_on_c, 0, 53, 0
4, 235846, Note_on_c, 0, 58, 0
4, 235856, Note_on_c, 0, 62, 0
4, 236150, Control_c, 0, 64, 127
4, 236378, Note_on_c, 0, 81, 63
4, 236380, Note_on_c, 0, 69, 73
4, 236382, Note_on_c, 0, 63, 43
4, 236390, Note_on_c, 0, 62, 44
4, 236392, Note_on_c, 0, 58, 34
4, 236400, Note_on_c, 0, 78, 29
4, 236404, Control_c, 0, 64, 0
4, 236420, Note_on_c, 0, 78, 0
4, 236480, Control_c, 0, 64, 127
4, 236614, Note_on_c, 0, 81, 0
4, 236620, Note_on_c, 0, 69, 0
4, 236642, Note_on_c, 0, 58, 0
4, 236648, Note_on_c, 0, 62, 0
4, 236666, Note_on_c, 0, 63, 0
4, 236776, Note_on_c, 0, 62, 44
4, 236778, Note_on_c, 0, 58, 53
4, 236780, Note_on_c, 0, 67, 53
4, 236780, Note_on_c, 0, 82, 74
4, 236782, Note_on_c, 0, 70, 71
4, 236784, Note_on_c, 0, 63, 43
4, 236856, Note_on_c, 0, 67, 0
4, 236860, Note_on_c, 0, 70, 0
4, 236864, Note_on_c, 0, 58, 0
4, 236872, Note_on_c, 0, 63, 0
4, 236874, Note_on_c, 0, 62, 0
4, 236882, Note_on_c, 0, 82, 0
4, 236912, Control_c, 0, 64, 0
4, 236932, Note_on_c, 0, 67, 31
4, 236934, Note_on_c, 0, 58, 35
4, 236936, Note_on_c, 0, 62, 40
4, 236938, Note_on_c, 0, 63, 35
4, 236942, Note_on_c, 0, 84, 62
4, 236968, Note_on_c, 0, 72, 16
4, 237014, Note_on_c, 0, 72, 0
4, 237016, Note_on_c, 0, 67, 0
4, 237016, Control_c, 0, 64, 127
4, 237020, Note_on_c, 0, 84, 0
4, 237026, Note_on_c, 0, 63, 0
4, 237034, Note_on_c, 0, 62, 0
4, 237040, Note_on_c, 0, 58, 0
4, 237172, Note_on_c, 0, 61, 53
4, 237174, Note_on_c, 0, 85, 74
4, 237174, Note_on_c, 0, 66, 58
4, 237178, Note_on_c, 0, 73, 71
4, 237180, Note_on_c, 0, 57, 55
4, 237184, Control_c, 0, 64, 0
4, 237184, Note_on_c, 0, 63, 46
4, 237304, Control_c, 0, 64, 127
4, 237326, Note_on_c, 0, 57, 0
4, 237334, Note_on_c, 0, 66, 0
4, 237340, Note_on_c, 0, 73, 0
4, 237348, Note_on_c, 0, 61, 0
4, 237352, Note_on_c, 0, 63, 0
4, 237356, Note_on_c, 0, 85, 0
4, 237414, Control_c, 0, 64, 0
4, 237422, Note_on_c, 0, 75, 67
4, 237424, Note_on_c, 0, 87, 71
4, 237428, Note_on_c, 0, 66, 54
4, 237438, Note_on_c, 0, 61, 40
4, 237438, Note_on_c, 0, 63, 42
4, 237442, Note_on_c, 0, 57, 42
4, 237450, Control_c, 0, 64, 127
4, 237520, Note_on_c, 0, 75, 0
4, 237540, Note_on_c, 0, 87, 0
4, 237556, Note_on_c, 0, 61, 0
4, 237566, Note_on_c, 0, 57, 0
4, 237576, Note_on_c, 0, 66, 0
4, 237586, Note_on_c, 0, 63, 0
4, 237652, Control_c, 0, 64, 0
4, 237682, Note_on_c, 0, 90, 64
4, 237682, Note_on_c, 0, 57, 48
4, 237684, Note_on_c, 0, 66, 49
4, 237688, Note_on_c, 0, 78, 45
4, 237694, Note_on_c, 0, 63, 43
4, 237696, Note_on_c, 0, 61, 40
4, 237700, Note_on_c, 0, 85, 49
4, 237726, Note_on_c, 0, 57, 0
4, 237728, Note_on_c, 0, 66, 0
4, 237732, Control_c, 0, 64, 127
4, 237750, Note_on_c, 0, 63, 0
4, 237750, Note_on_c, 0, 61, 0
4, 237760, Note_on_c, 0, 78, 0
4, 237764, Note_on_c, 0, 85, 0
4, 237778, Note_on_c, 0, 90, 0
4, 237910, Control_c, 0, 64, 0
4, 237938, Note_on_c, 0, 61, 42
4, 237940, Note_on_c, 0, 51, 38
4, 237942, Note_on_c, 0, 92, 63
4, 237946, Note_on_c, 0, 80, 46
4, 237948, Note_on_c, 0, 54, 52
4, 237952, Note_on_c, 0, 87, 57
4, 237954, Note_on_c, 0, 58, 38
4, 238046, Note_on_c, 0, 87, 0
4, 238050, Note_on_c, 0, 92, 0
4, 238086, Note_on_c, 0, 80, 0
4, 238098, Note_on_c, 0, 61, 0
4, 238104, Note_on_c, 0, 58, 0
4, 238114, Note_on_c, 0, 54, 0
4, 238114, Note_on_c, 0, 51, 0
4, 238160, Note_on_c, 0, 85, 57
4, 238174, Note_on_c, 0, 60, 41
4, 238178, Note_on_c, 0, 89, 56
4, 238180, Note_on_c, 0, 50, 34
4, 238182, Note_on_c, 0, 85, 0
4, 238186, Note_on_c, 0, 57, 47
4, 238188, Note_on_c, 0, 53, 35
4, 238196, Note_on_c, 0, 77, 35
4, 238206, Control_c, 0, 64, 127
4, 238318, Note_on_c, 0, 53, 0
4, 238324, Note_on_c, 0, 57, 0
4, 238326, Note_on_c, 0, 89, 0
4, 238330, Note_on_c, 0, 50, 0
4, 238334, Note_on_c, 0, 60, 0
4, 238348, Note_on_c, 0, 77, 0
4, 238390, Control_c, 0, 64, 0
4, 238428, Note_on_c, 0, 88, 35
4, 238430, Note_on_c, 0, 76, 31
4, 238432, Note_on_c, 0, 83, 40
4, 238434, Note_on_c, 0, 60, 29
4, 238438, Note_on_c, 0, 50, 25
4, 238440, Note_on_c, 0, 53, 25
4, 238440, Note_on_c, 0, 57, 34
4, 238470, Control_c, 0, 64, 127
4, 238500, Note_on_c, 0, 50, 0
4, 238502, Note_on_c, 0, 53, 0
4, 238504, Note_on_c, 0, 76, 0
4, 238504, Note_on_c, 0, 57, 0
4, 238520, Note_on_c, 0, 83, 0
4, 238536, Note_on_c, 0, 88, 0
4, 238554, Note_on_c, 0, 60, 0
4, 238678, Note_on_c, 0, 85, 55
4, 238680, Note_on_c, 0, 64, 41
4, 238680, Note_on_c, 0, 53, 47
4, 238680, Note_on_c, 0, 89, 62
4, 238682, Note_on_c, 0, 59, 51
4, 238686, Control_c, 0, 64, 0
4, 238688, Note_on_c, 0, 77, 43
4, 238776, Note_on_c, 0, 85, 0
4, 238794, Note_on_c, 0, 77, 0
4, 238812, Note_on_c, 0, 89, 0
4, 238814, Note_on_c, 0, 53, 0
4, 238824, Note_on_c, 0, 64, 0
4, 238834, Note_on_c, 0, 59, 0
4, 238920, Note_on_c, 0, 86, 58
4, 238928, Note_on_c, 0, 74, 37
4, 238934, Note_on_c, 0, 82, 51
4, 238936, Note_on_c, 0, 64, 36
4, 238936, Note_on_c, 0, 59, 46
4, 238944, Note_on_c, 0, 53, 35
4, 238968, Control_c, 0, 64, 127
4, 239042, Note_on_c, 0, 82, 0
4, 239082, Note_on_c, 0, 74, 0
4, 239110, Note_on_c, 0, 64, 0
4, 239110, Note_on_c, 0, 53, 0
4, 239120, Note_on_c, 0, 59, 0
4, 239140, Note_on_c, 0, 86, 0
4, 239176, Control_c, 0, 64, 0
4, 239206, Note_on_c, 0, 53, 44
4, 239208, Note_on_c, 0, 59, 35
4, 239212, Note_on_c, 0, 64, 34
4, 239216, Note_on_c, 0, 74, 40
4, 239256, Control_c, 0, 64, 127
4, 239304, Note_on_c, 0, 59, 0
4, 239306, Note_on_c, 0, 53, 0
4, 239376, Note_on_c, 0, 64, 0
4, 239416, Note_on_c, 0, 74, 0
4, 239464, Note_on_c, 0, 74, 61
4, 239476, Note_on_c, 0, 67, 54
4, 239482, Note_on_c, 0, 58, 36
4, 239486, Note_on_c, 0, 62, 42
4, 239486, Note_on_c, 0, 63, 32
4, 239494, Note_on_c, 0, 74, 0
4, 239506, Control_c, 0, 64, 0
4, 239510, Note_on_c, 0, 67, 0
4, 239512, Note_on_c, 0, 62, 0
4, 239514, Note_on_c, 0, 63, 0
4, 239516, Note_on_c, 0, 58, 0
4, 239864, Note_on_c, 0, 74, 94
4, 239864, Note_on_c, 0, 67, 65
4, 239866, Note_on_c, 0, 58, 61
4, 239870, Note_on_c, 0, 63, 44
4, 239872, Note_on_c, 0, 62, 47
4, 239972, Note_on_c, 0, 74, 0
4, 240018, Note_on_c, 0, 72, 46
4, 240150, Note_on_c, 0, 67, 0
4, 240164, Control_c, 0, 64, 127
4, 240182, Note_on_c, 0, 63, 0
4, 240184, Note_on_c, 0, 72, 0
4, 240228, Note_on_c, 0, 62, 0
4, 240264, Note_on_c, 0, 70, 61
4, 240326, Note_on_c, 0, 70, 0
4, 240344, Note_on_c, 0, 58, 0
4, 240372, Control_c, 0, 64, 0
4, 240400, Note_on_c, 0, 63, 35
4, 240402, Note_on_c, 0, 69, 68
4, 240408, Note_on_c, 0, 57, 48
4, 240570, Note_on_c, 0, 63, 0
4, 240574, Control_c, 0, 64, 127
4, 240604, Note_on_c, 0, 69, 0
4, 240638, Note_on_c, 0, 72, 54
4, 240646, Note_on_c, 0, 63, 33
4, 240650, Note_on_c, 0, 67, 25
4, 240676, Note_on_c, 0, 67, 0
4, 240710, Note_on_c, 0, 57, 0
4, 240714, Note_on_c, 0, 63, 0
4, 240730, Note_on_c, 0, 72, 0
4, 240748, Control_c, 0, 64, 0
4, 240766, Note_on_c, 0, 77, 77
4, 240770, Note_on_c, 0, 57, 53
4, 240770, Note_on_c, 0, 63, 45
4, 240774, Note_on_c, 0, 67, 35
4, 240828, Control_c, 0, 64, 127
4, 240858, Note_on_c, 0, 67, 0
4, 240902, Note_on_c, 0, 57, 0
4, 240922, Note_on_c, 0, 63, 0
4, 240964, Note_on_c, 0, 77, 0
4, 241012, Note_on_c, 0, 63, 40
4, 241018, Note_on_c, 0, 75, 62
4, 241088, Note_on_c, 0, 63, 0
4, 241116, Control_c, 0, 64, 0
4, 241126, Note_on_c, 0, 75, 0
4, 241136, Note_on_c, 0, 63, 31
4, 241142, Note_on_c, 0, 56, 33
4, 241148, Note_on_c, 0, 74, 50
4, 241148, Note_on_c, 0, 67, 19
4, 241152, Note_on_c, 0, 60, 38
4, 241250, Control_c, 0, 64, 127
4, 241346, Note_on_c, 0, 60, 0
4, 241358, Note_on_c, 0, 67, 0
4, 241362, Note_on_c, 0, 74, 0
4, 241384, Note_on_c, 0, 56, 0
4, 241384, Note_on_c, 0, 63, 0
4, 241480, Control_c, 0, 64, 0
4, 241500, Note_on_c, 0, 63, 44
4, 241500, Note_on_c, 0, 56, 46
4, 241504, Note_on_c, 0, 74, 82
4, 241506, Note_on_c, 0, 67, 42
4, 241512, Note_on_c, 0, 60, 57
4, 241594, Note_on_c, 0, 67, 0
4, 241602, Note_on_c, 0, 74, 0
4, 241608, Note_on_c, 0, 60, 0
4, 241610, Note_on_c, 0, 63, 0
4, 241612, Note_on_c, 0, 56, 0
4, 241768, Control_c, 0, 64, 127
4, 241768, Note_on_c, 0, 56, 50
4, 241772, Note_on_c, 0, 63, 47
4, 241776, Note_on_c, 0, 73, 83
4, 241780, Note_on_c, 0, 67, 36
4, 241790, Note_on_c, 0, 60, 40
4, 241802, Note_on_c, 0, 67, 0
4, 241840, Note_on_c, 0, 56, 0
4, 241850, Note_on_c, 0, 63, 0
4, 241868, Note_on_c, 0, 60, 0
4, 241878, Control_c, 0, 64, 0
4, 241880, Note_on_c, 0, 73, 0
4, 241912, Note_on_c, 0, 56, 34
4, 241918, Note_on_c, 0, 66, 42
4, 241918, Note_on_c, 0, 74, 55
4, 241930, Note_on_c, 0, 62, 35
4, 241964, Control_c, 0, 64, 127
4, 242014, Note_on_c, 0, 62, 0
4, 242014, Note_on_c, 0, 56, 0
4, 242018, Note_on_c, 0, 66, 0
4, 242028, Note_on_c, 0, 74, 0
4, 242168, Note_on_c, 0, 66, 83
4, 242168, Note_on_c, 0, 56, 72
4, 242168, Note_on_c, 0, 79, 95
4, 242174, Note_on_c, 0, 62, 68
4, 242180, Note_on_c, 0, 78, 75
4, 242180, Note_on_c, 0, 60, 61
4, 242198, Note_on_c, 0, 60, 0
4, 242198, Note_on_c, 0, 78, 0
4, 242242, Note_on_c, 0, 60, 22
4, 242244, Note_on_c, 0, 66, 0
4, 242266, Note_on_c, 0, 56, 0
4, 242270, Note_on_c, 0, 60, 0
4, 242272, Control_c, 0, 64, 0
4, 242286, Note_on_c, 0, 62, 0
4, 242294, Note_on_c, 0, 79, 0
4, 242312, Note_on_c, 0, 66, 52
4, 242314, Note_on_c, 0, 56, 44
4, 242320, Note_on_c, 0, 77, 60
4, 242324, Note_on_c, 0, 62, 27
4, 242328, Control_c, 0, 64, 127
4, 242422, Note_on_c, 0, 62, 0
4, 242422, Note_on_c, 0, 66, 0
4, 242432, Note_on_c, 0, 56, 0
4, 242438, Control_c, 0, 64, 0
4, 242446, Note_on_c, 0, 77, 0
4, 242532, Note_on_c, 0, 66, 52
4, 242536, Note_on_c, 0, 56, 54
4, 242544, Note_on_c, 0, 74, 66
4, 242556, Control_c, 0, 64, 127
4, 242556, Note_on_c, 0, 62, 30
4, 242588, Note_on_c, 0, 62, 0
4, 242594, Note_on_c, 0, 66, 0
4, 242620, Note_on_c, 0, 74, 0
4, 242636, Note_on_c, 0, 56, 0
4, 242658, Control_c, 0, 64, 0
4, 242680, Note_on_c, 0, 65, 34
4, 242682, Note_on_c, 0, 62, 29
4, 242684, Note_on_c, 0, 70, 45
4, 242690, Note_on_c, 0, 60, 24
4, 242692, Note_on_c, 0, 55, 40
4, 242826, Control_c, 0, 64, 127
4, 242836, Note_on_c, 0, 60, 0
4, 242846, Note_on_c, 0, 62, 0
4, 242866, Note_on_c, 0, 65, 0
4, 242872, Note_on_c, 0, 55, 0
4, 242888, Note_on_c, 0, 70, 0
4, 242986, Control_c, 0, 64, 0
4, 243040, Note_on_c, 0, 70, 62
4, 243046, Note_on_c, 0, 65, 35
4, 243048, Note_on_c, 0, 55, 33
4, 243048, Note_on_c, 0, 60, 36
4, 243050, Note_on_c, 0, 62, 24
4, 243106, Note_on_c, 0, 65, 0
4, 243120, Note_on_c, 0, 60, 0
4, 243124, Note_on_c, 0, 62, 0
4, 243132, Control_c, 0, 64, 127
4, 243164, Note_on_c, 0, 55, 0
4, 243304, Note_on_c, 0, 70, 0
4, 243304, Note_on_c, 0, 69, 36
4, 243372, Note_on_c, 0, 69, 0
4, 243374, Control_c, 0, 64, 0
4, 243422, Note_on_c, 0, 58, 26
4, 243422, Note_on_c, 0, 54, 32
4, 243424, Note_on_c, 0, 65, 18
4, 243428, Note_on_c, 0, 70, 44
4, 243434, Note_on_c, 0, 60, 31
4, 243468, Note_on_c, 0, 60, 0
4, 243502, Note_on_c, 0, 65, 0
4, 243524, Control_c, 0, 64, 127
4, 243528, Note_on_c, 0, 58, 0
4, 243536, Note_on_c, 0, 54, 0
4, 243632, Note_on_c, 0, 70, 0
4, 243660, Note_on_c, 0, 54, 44
4, 243670, Note_on_c, 0, 74, 56
4, 243672, Note_on_c, 0, 65, 33
4, 243674, Note_on_c, 0, 58, 37
4, 243676, Note_on_c, 0, 60, 51
4, 243710, Note_on_c, 0, 65, 0
4, 243736, Note_on_c, 0, 60, 0
4, 243756, Control_c, 0, 64, 0
4, 243764, Note_on_c, 0, 58, 0
4, 243766, Note_on_c, 0, 54, 0
4, 243786, Note_on_c, 0, 74, 0
4, 243814, Note_on_c, 0, 65, 40
4, 243818, Note_on_c, 0, 77, 64
4, 243822, Note_on_c, 0, 54, 30
4, 243824, Control_c, 0, 64, 127
4, 243826, Note_on_c, 0, 58, 21
4, 243826, Note_on_c, 0, 60, 37
4, 243840, Note_on_c, 0, 65, 0
4, 243848, Note_on_c, 0, 60, 0
4, 243874, Note_on_c, 0, 58, 0
4, 243886, Note_on_c, 0, 54, 0
4, 243898, Note_on_c, 0, 77, 0
4, 244040, Note_on_c, 0, 51, 55
4, 244046, Note_on_c, 0, 61, 43
4, 244054, Note_on_c, 0, 75, 52
4, 244108, Note_on_c, 0, 61, 0
4, 244112, Note_on_c, 0, 75, 0
4, 244142, Note_on_c, 0, 51, 0
4, 244154, Control_c, 0, 64, 0
4, 244194, Note_on_c, 0, 50, 52
4, 244196, Note_on_c, 0, 60, 32
4, 244206, Note_on_c, 0, 74, 49
4, 244242, Note_on_c, 0, 60, 0
4, 244252, Control_c, 0, 64, 127
4, 244258, Note_on_c, 0, 50, 0
4, 244282, Note_on_c, 0, 74, 0
4, 244434, Note_on_c, 0, 69, 80
4, 244540, Control_c, 0, 64, 0
4, 244546, Note_on_c, 0, 69, 0
4, 244568, Note_on_c, 0, 59, 35
4, 244586, Note_on_c, 0, 68, 50
4, 244644, Note_on_c, 0, 59, 0
4, 244656, Control_c, 0, 64, 127
4, 244758, Note_on_c, 0, 68, 0
4, 244800, Note_on_c, 0, 73, 64
4, 244862, Note_on_c, 0, 73, 0
4, 244922, Control_c, 0, 64, 0
4, 244946, Note_on_c, 0, 72, 60
4, 244996, Control_c, 0, 64, 127
4, 245116, Note_on_c, 0, 72, 0
4, 245202, Note_on_c, 0, 67, 36
4, 245292, Control_c, 0, 64, 0
4, 245324, Note_on_c, 0, 67, 0
4, 245338, Note_on_c, 0, 66, 36
4, 245356, Note_on_c, 0, 54, 35
4, 245378, Control_c, 0, 64, 127
4, 245428, Note_on_c, 0, 54, 0
4, 245476, Note_on_c, 0, 66, 0
4, 245568, Note_on_c, 0, 71, 60
4, 245640, Note_on_c, 0, 71, 0
4, 245700, Control_c, 0, 64, 0
4, 245722, Note_on_c, 0, 70, 83
4, 245722, Note_on_c, 0, 46, 73
4, 245722, Note_on_c, 0, 65, 85
4, 245724, Note_on_c, 0, 60, 91
4, 245834, Note_on_c, 0, 60, 0
4, 245840, Note_on_c, 0, 65, 0
4, 245842, Note_on_c, 0, 46, 0
4, 245850, Note_on_c, 0, 70, 0
4, 245850, End_track
5, 0, Start_track
5, 0, Title_t, "Drums -Brushes"
5, 0, Control_c, 9, 0, 3
5, 0, Control_c, 9, 7, 88
5, 0, Program_c, 9, 40
5, 1376, Note_on_c, 9, 40, 21
5, 1424, Note_on_c, 9, 40, 0
5, 1474, Note_on_c, 9, 35, 50
5, 1494, Note_on_c, 9, 40, 50
5, 1698, Note_on_c, 9, 35, 0
5, 1846, Note_on_c, 9, 40, 0
5, 1880, Note_on_c, 9, 42, 70
5, 1890, Note_on_c, 9, 40, 58
5, 1944, Note_on_c, 9, 42, 0
5, 2140, Note_on_c, 9, 35, 63
5, 2154, Note_on_c, 9, 40, 0
5, 2172, Note_on_c, 9, 35, 0
5, 2184, Note_on_c, 9, 40, 41
5, 2220, Note_on_c, 9, 40, 0
5, 2288, Note_on_c, 9, 40, 52
5, 2534, Note_on_c, 9, 39, 59
5, 2564, Note_on_c, 9, 39, 0
5, 2622, Note_on_c, 9, 40, 0
5, 2648, Note_on_c, 9, 42, 70
5, 2652, Note_on_c, 9, 37, 60
5, 2662, Note_on_c, 9, 40, 58
5, 2708, Note_on_c, 9, 37, 0
5, 2708, Note_on_c, 9, 42, 0
5, 2988, Note_on_c, 9, 40, 0
5, 3044, Note_on_c, 9, 40, 54
5, 3384, Note_on_c, 9, 40, 0
5, 3416, Note_on_c, 9, 42, 70
5, 3420, Note_on_c, 9, 40, 54
5, 3480, Note_on_c, 9, 42, 0
5, 3580, Note_on_c, 9, 39, 39
5, 3608, Note_on_c, 9, 39, 0
5, 3686, Note_on_c, 9, 39, 37
5, 3740, Note_on_c, 9, 39, 0
5, 3758, Note_on_c, 9, 40, 0
5, 3812, Note_on_c, 9, 40, 54
5, 4060, Note_on_c, 9, 40, 0
5, 4100, Note_on_c, 9, 40, 37
5, 4130, Note_on_c, 9, 40, 0
5, 4184, Note_on_c, 9, 42, 70
5, 4184, Note_on_c, 9, 37, 70
5, 4196, Note_on_c, 9, 40, 52
5, 4248, Note_on_c, 9, 37, 0
5, 4248, Note_on_c, 9, 42, 0
5, 4364, Note_on_c, 9, 40, 47
5, 4424, Note_on_c, 9, 40, 0
5, 4466, Note_on_c, 9, 40, 44
5, 4486, Note_on_c, 9, 40, 0
5, 4542, Note_on_c, 9, 40, 0
5, 4562, Note_on_c, 9, 46, 56
5, 4564, Note_on_c, 9, 40, 52
5, 4588, Note_on_c, 9, 35, 51
5, 4618, Note_on_c, 9, 46, 0
5, 4694, Note_on_c, 9, 35, 0
5, 4850, Note_on_c, 9, 40, 0
5, 4952, Note_on_c, 9, 42, 70
5, 4958, Note_on_c, 9, 40, 56
5, 5016, Note_on_c, 9, 42, 0
5, 5186, Note_on_c, 9, 40, 0
5, 5240, Note_on_c, 9, 40, 42
5, 5276, Note_on_c, 9, 40, 0
5, 5338, Note_on_c, 9, 40, 52
5, 5604, Note_on_c, 9, 39, 53
5, 5604, Note_on_c, 9, 40, 29
5, 5630, Note_on_c, 9, 39, 0
5, 5676, Note_on_c, 9, 40, 0
5, 5682, Note_on_c, 9, 40, 0
5, 5698, Note_on_c, 9, 46, 57
5, 5720, Note_on_c, 9, 37, 70
5, 5720, Note_on_c, 9, 42, 70
5, 5720, Note_on_c, 9, 35, 62
5, 5734, Note_on_c, 9, 40, 52
5, 5740, Note_on_c, 9, 36, 45
5, 5742, Note_on_c, 9, 46, 0
5, 5784, Note_on_c, 9, 42, 0
5, 5788, Note_on_c, 9, 37, 0
5, 5816, Note_on_c, 9, 36, 0
5, 5824, Note_on_c, 9, 35, 0
5, 5970, Note_on_c, 9, 40, 0
5, 6008, Note_on_c, 9, 36, 28
5, 6020, Note_on_c, 9, 40, 36
5, 6052, Note_on_c, 9, 40, 0
5, 6094, Note_on_c, 9, 36, 0
5, 6108, Note_on_c, 9, 40, 49
5, 6386, Note_on_c, 9, 40, 0
5, 6488, Note_on_c, 9, 42, 70
5, 6490, Note_on_c, 9, 40, 55
5, 6552, Note_on_c, 9, 42, 0
5, 6760, Note_on_c, 9, 40, 0
5, 6888, Note_on_c, 9, 40, 54
5, 7078, Note_on_c, 9, 40, 0
5, 7128, Note_on_c, 9, 40, 34
5, 7138, Note_on_c, 9, 35, 72
5, 7180, Note_on_c, 9, 40, 0
5, 7184, Note_on_c, 9, 35, 0
5, 7252, Note_on_c, 9, 40, 52
5, 7256, Note_on_c, 9, 42, 70
5, 7256, Note_on_c, 9, 37, 70
5, 7320, Note_on_c, 9, 37, 0
5, 7320, Note_on_c, 9, 42, 0
5, 7496, Note_on_c, 9, 40, 0
5, 7514, Note_on_c, 9, 40, 44
5, 7544, Note_on_c, 9, 40, 0
5, 7618, Note_on_c, 9, 40, 38
5, 7658, Note_on_c, 9, 35, 68
5, 7724, Note_on_c, 9, 35, 0
5, 7888, Note_on_c, 9, 39, 52
5, 7932, Note_on_c, 9, 40, 0
5, 7958, Note_on_c, 9, 39, 0
5, 8018, Note_on_c, 9, 40, 50
5, 8024, Note_on_c, 9, 42, 70
5, 8026, Note_on_c, 9, 36, 47
5, 8088, Note_on_c, 9, 42, 0
5, 8092, Note_on_c, 9, 36, 0
5, 8232, Note_on_c, 9, 40, 0
5, 8304, Note_on_c, 9, 36, 35
5, 8322, Note_on_c, 9, 40, 41
5, 8342, Note_on_c, 9, 36, 0
5, 8372, Note_on_c, 9, 40, 0
5, 8428, Note_on_c, 9, 40, 48
5, 8662, Note_on_c, 9, 40, 0
5, 8724, Note_on_c, 9, 40, 28
5, 8758, Note_on_c, 9, 40, 0
5, 8792, Note_on_c, 9, 37, 60
5, 8792, Note_on_c, 9, 42, 70
5, 8802, Note_on_c, 9, 40, 56
5, 8856, Note_on_c, 9, 42, 0
5, 8860, Note_on_c, 9, 37, 0
5, 9066, Note_on_c, 9, 35, 46
5, 9104, Note_on_c, 9, 40, 0
5, 9122, Note_on_c, 9, 35, 0
5, 9184, Note_on_c, 9, 40, 52
5, 9196, Note_on_c, 9, 35, 46
5, 9394, Note_on_c, 9, 35, 0
5, 9448, Note_on_c, 9, 40, 0
5, 9456, Note_on_c, 9, 35, 55
5, 9472, Note_on_c, 9, 40, 25
5, 9486, Note_on_c, 9, 35, 0
5, 9518, Note_on_c, 9, 40, 0
5, 9560, Note_on_c, 9, 42, 70
5, 9586, Note_on_c, 9, 40, 52
5, 9624, Note_on_c, 9, 42, 0
5, 9840, Note_on_c, 9, 40, 0
5, 9948, Note_on_c, 9, 40, 46
5, 10012, Note_on_c, 9, 40, 0
5, 10060, Note_on_c, 9, 40, 55
5, 10272, Note_on_c, 9, 40, 0
5, 10328, Note_on_c, 9, 42, 70
5, 10332, Note_on_c, 9, 37, 70
5, 10346, Note_on_c, 9, 35, 46
5, 10358, Note_on_c, 9, 40, 54
5, 10392, Note_on_c, 9, 37, 0
5, 10392, Note_on_c, 9, 42, 0
5, 10540, Note_on_c, 9, 35, 0
5, 10590, Note_on_c, 9, 40, 0
5, 10608, Note_on_c, 9, 35, 55
5, 10610, Note_on_c, 9, 40, 29
5, 10652, Note_on_c, 9, 35, 0
5, 10658, Note_on_c, 9, 40, 0
5, 10718, Note_on_c, 9, 40, 50
5, 10972, Note_on_c, 9, 39, 42
5, 11000, Note_on_c, 9, 40, 0
5, 11040, Note_on_c, 9, 39, 0
5, 11096, Note_on_c, 9, 42, 70
5, 11096, Note_on_c, 9, 40, 55
5, 11110, Note_on_c, 9, 39, 28
5, 11160, Note_on_c, 9, 42, 0
5, 11188, Note_on_c, 9, 39, 0
5, 11348, Note_on_c, 9, 40, 0
5, 11350, Note_on_c, 9, 36, 48
5, 11386, Note_on_c, 9, 40, 42
5, 11420, Note_on_c, 9, 36, 0
5, 11430, Note_on_c, 9, 40, 0
5, 11488, Note_on_c, 9, 40, 54
5, 11728, Note_on_c, 9, 35, 38
5, 11758, Note_on_c, 9, 39, 35
5, 11766, Note_on_c, 9, 35, 0
5, 11784, Note_on_c, 9, 40, 0
5, 11822, Note_on_c, 9, 39, 0
5, 11862, Note_on_c, 9, 40, 53
5, 11864, Note_on_c, 9, 42, 70
5, 11864, Note_on_c, 9, 37, 60
5, 11888, Note_on_c, 9, 39, 31
5, 11928, Note_on_c, 9, 37, 0
5, 11928, Note_on_c, 9, 42, 0
5, 12080, Note_on_c, 9, 39, 0
5, 12094, Note_on_c, 9, 40, 0
5, 12128, Note_on_c, 9, 36, 52
5, 12166, Note_on_c, 9, 40, 15
5, 12194, Note_on_c, 9, 36, 0
5, 12248, Note_on_c, 9, 40, 0
5, 12288, Note_on_c, 9, 40, 59
5, 12542, Note_on_c, 9, 35, 41
5, 12562, Note_on_c, 9, 40, 0
5, 12576, Note_on_c, 9, 35, 0
5, 12632, Note_on_c, 9, 42, 70
5, 12638, Note_on_c, 9, 40, 52
5, 12696, Note_on_c, 9, 42, 0
5, 12934, Note_on_c, 9, 40, 0
5, 13022, Note_on_c, 9, 40, 54
5, 13160, Note_on_c, 9, 40, 31
5, 13206, Note_on_c, 9, 40, 0
5, 13272, Note_on_c, 9, 40, 0
5, 13276, Note_on_c, 9, 40, 42
5, 13296, Note_on_c, 9, 38, 60
5, 13304, Note_on_c, 9, 40, 34
5, 13332, Note_on_c, 9, 40, 0
5, 13356, Note_on_c, 9, 40, 0
5, 13372, Note_on_c, 9, 38, 0
5, 13400, Note_on_c, 9, 42, 70
5, 13408, Note_on_c, 9, 40, 51
5, 13412, Note_on_c, 9, 40, 41
5, 13464, Note_on_c, 9, 42, 0
5, 13484, Note_on_c, 9, 40, 0
5, 13666, Note_on_c, 9, 39, 50
5, 13672, Note_on_c, 9, 40, 50
5, 13688, Note_on_c, 9, 38, 30
5, 13696, Note_on_c, 9, 40, 0
5, 13728, Note_on_c, 9, 39, 0
5, 13748, Note_on_c, 9, 38, 0
5, 13752, Note_on_c, 9, 40, 0
5, 13786, Note_on_c, 9, 40, 56
5, 13798, Note_on_c, 9, 35, 57
5, 13802, Note_on_c, 9, 57, 23
5, 13818, Note_on_c, 9, 36, 35
5, 13994, Note_on_c, 9, 35, 0
5, 14040, Note_on_c, 9, 40, 0
5, 14084, Note_on_c, 9, 40, 34
5, 14118, Note_on_c, 9, 40, 0
5, 14160, Note_on_c, 9, 57, 0
5, 14168, Note_on_c, 9, 42, 70
5, 14176, Note_on_c, 9, 40, 48
5, 14232, Note_on_c, 9, 42, 0
5, 14496, Note_on_c, 9, 40, 0
5, 14578, Note_on_c, 9, 40, 52
5, 14752, Note_on_c, 9, 36, 0
5, 14788, Note_on_c, 9, 39, 57
5, 14816, Note_on_c, 9, 40, 30
5, 14870, Note_on_c, 9, 39, 0
5, 14904, Note_on_c, 9, 40, 0
5, 14914, Note_on_c, 9, 40, 0
5, 14936, Note_on_c, 9, 37, 70
5, 14936, Note_on_c, 9, 42, 70
5, 14940, Note_on_c, 9, 57, 22
5, 14946, Note_on_c, 9, 35, 45
5, 14956, Note_on_c, 9, 36, 28
5, 14962, Note_on_c, 9, 40, 52
5, 14966, Note_on_c, 9, 57, 0
5, 14980, Note_on_c, 9, 35, 0
5, 15000, Note_on_c, 9, 42, 0
5, 15004, Note_on_c, 9, 37, 0
5, 15102, Note_on_c, 9, 36, 0
5, 15202, Note_on_c, 9, 36, 47
5, 15246, Note_on_c, 9, 40, 0
5, 15298, Note_on_c, 9, 36, 0
5, 15332, Note_on_c, 9, 40, 52
5, 15582, Note_on_c, 9, 40, 0
5, 15606, Note_on_c, 9, 40, 25
5, 15660, Note_on_c, 9, 40, 0
5, 15700, Note_on_c, 9, 42, 70
5, 15710, Note_on_c, 9, 40, 52
5, 15768, Note_on_c, 9, 42, 0
5, 15982, Note_on_c, 9, 40, 0
5, 16090, Note_on_c, 9, 40, 55
5, 16340, Note_on_c, 9, 40, 0
5, 16356, Note_on_c, 9, 40, 33
5, 16384, Note_on_c, 9, 40, 0
5, 16472, Note_on_c, 9, 42, 70
5, 16476, Note_on_c, 9, 37, 70
5, 16496, Note_on_c, 9, 35, 44
5, 16516, Note_on_c, 9, 40, 58
5, 16528, Note_on_c, 9, 35, 0
5, 16536, Note_on_c, 9, 42, 0
5, 16536, Note_on_c, 9, 37, 0
5, 16692, Note_on_c, 9, 40, 0
5, 16726, Note_on_c, 9, 35, 80
5, 16748, Note_on_c, 9, 40, 43
5, 16800, Note_on_c, 9, 40, 0
5, 16814, Note_on_c, 9, 35, 0
5, 16850, Note_on_c, 9, 40, 54
5, 16880, Note_on_c, 9, 35, 60
5, 17010, Note_on_c, 9, 35, 0
5, 17160, Note_on_c, 9, 40, 0
5, 17240, Note_on_c, 9, 42, 70
5, 17254, Note_on_c, 9, 40, 54
5, 17300, Note_on_c, 9, 42, 0
5, 17500, Note_on_c, 9, 40, 0
5, 17518, Note_on_c, 9, 35, 59
5, 17532, Note_on_c, 9, 40, 29
5, 17548, Note_on_c, 9, 35, 0
5, 17572, Note_on_c, 9, 40, 0
5, 17640, Note_on_c, 9, 40, 50
5, 17680, Note_on_c, 9, 39, 57
5, 17740, Note_on_c, 9, 39, 0
5, 17812, Note_on_c, 9, 39, 47
5, 17852, Note_on_c, 9, 39, 0
5, 17924, Note_on_c, 9, 40, 0
5, 18008, Note_on_c, 9, 42, 70
5, 18008, Note_on_c, 9, 37, 60
5, 18014, Note_on_c, 9, 40, 58
5, 18060, Note_on_c, 9, 39, 50
5, 18072, Note_on_c, 9, 42, 0
5, 18076, Note_on_c, 9, 37, 0
5, 18126, Note_on_c, 9, 39, 0
5, 18210, Note_on_c, 9, 40, 0
5, 18292, Note_on_c, 9, 40, 37
5, 18342, Note_on_c, 9, 40, 0
5, 18518, Note_on_c, 9, 40, 56
5, 18674, Note_on_c, 9, 35, 43
5, 18678, Note_on_c, 9, 40, 0
5, 18708, Note_on_c, 9, 35, 0
5, 18776, Note_on_c, 9, 42, 70
5, 18778, Note_on_c, 9, 40, 57
5, 18790, Note_on_c, 9, 35, 38
5, 18840, Note_on_c, 9, 42, 0
5, 18844, Note_on_c, 9, 35, 0
5, 19028, Note_on_c, 9, 40, 0
5, 19064, Note_on_c, 9, 35, 66
5, 19098, Note_on_c, 9, 35, 0
5, 19154, Note_on_c, 9, 40, 54
5, 19412, Note_on_c, 9, 38, 35
5, 19424, Note_on_c, 9, 40, 0
5, 19486, Note_on_c, 9, 38, 0
5, 19544, Note_on_c, 9, 37, 70
5, 19544, Note_on_c, 9, 42, 70
5, 19550, Note_on_c, 9, 40, 55
5, 19556, Note_on_c, 9, 38, 35
5, 19608, Note_on_c, 9, 42, 0
5, 19608, Note_on_c, 9, 37, 0
5, 19662, Note_on_c, 9, 38, 0
5, 19666, Note_on_c, 9, 40, 0
5, 19802, Note_on_c, 9, 38, 44
5, 19806, Note_on_c, 9, 40, 44
5, 19844, Note_on_c, 9, 38, 0
5, 19860, Note_on_c, 9, 40, 0
5, 19922, Note_on_c, 9, 40, 50
5, 19952, Note_on_c, 9, 39, 47
5, 20032, Note_on_c, 9, 39, 0
5, 20216, Note_on_c, 9, 40, 0
5, 20308, Note_on_c, 9, 42, 70
5, 20318, Note_on_c, 9, 40, 54
5, 20376, Note_on_c, 9, 42, 0
5, 20572, Note_on_c, 9, 35, 59
5, 20600, Note_on_c, 9, 35, 0
5, 20624, Note_on_c, 9, 40, 0
5, 20722, Note_on_c, 9, 40, 55
5, 20932, Note_on_c, 9, 40, 0
5, 20976, Note_on_c, 9, 39, 48
5, 20980, Note_on_c, 9, 40, 42
5, 21036, Note_on_c, 9, 39, 0
5, 21040, Note_on_c, 9, 40, 0
5, 21080, Note_on_c, 9, 42, 70
5, 21080, Note_on_c, 9, 37, 70
5, 21086, Note_on_c, 9, 40, 56
5, 21138, Note_on_c, 9, 36, 11
5, 21144, Note_on_c, 9, 37, 0
5, 21144, Note_on_c, 9, 42, 0
5, 21210, Note_on_c, 9, 36, 0
5, 21356, Note_on_c, 9, 36, 34
5, 21384, Note_on_c, 9, 40, 0
5, 21420, Note_on_c, 9, 36, 0
5, 21470, Note_on_c, 9, 40, 54
5, 21504, Note_on_c, 9, 36, 32
5, 21600, Note_on_c, 9, 36, 0
5, 21766, Note_on_c, 9, 40, 0
5, 21848, Note_on_c, 9, 42, 70
5, 21868, Note_on_c, 9, 40, 57
5, 21908, Note_on_c, 9, 42, 0
5, 22094, Note_on_c, 9, 40, 0
5, 22140, Note_on_c, 9, 40, 46
5, 22170, Note_on_c, 9, 40, 0
5, 22240, Note_on_c, 9, 40, 54
5, 22310, Note_on_c, 9, 40, 0
5, 22348, Note_on_c, 9, 40, 54
5, 22504, Note_on_c, 9, 40, 35
5, 22548, Note_on_c, 9, 40, 0
5, 22560, Note_on_c, 9, 40, 0
5, 22608, Note_on_c, 9, 35, 44
5, 22616, Note_on_c, 9, 42, 70
5, 22620, Note_on_c, 9, 37, 70
5, 22676, Note_on_c, 9, 40, 52
5, 22680, Note_on_c, 9, 42, 0
5, 22684, Note_on_c, 9, 37, 0
5, 22822, Note_on_c, 9, 35, 0
5, 22856, Note_on_c, 9, 40, 0
5, 22882, Note_on_c, 9, 35, 54
5, 22904, Note_on_c, 9, 40, 40
5, 22912, Note_on_c, 9, 35, 0
5, 22962, Note_on_c, 9, 40, 0
5, 23024, Note_on_c, 9, 40, 52
5, 23272, Note_on_c, 9, 39, 47
5, 23296, Note_on_c, 9, 40, 0
5, 23304, Note_on_c, 9, 39, 0
5, 23384, Note_on_c, 9, 42, 70
5, 23396, Note_on_c, 9, 40, 56
5, 23448, Note_on_c, 9, 42, 0
5, 23638, Note_on_c, 9, 39, 58
5, 23642, Note_on_c, 9, 40, 0
5, 23672, Note_on_c, 9, 39, 0
5, 23686, Note_on_c, 9, 40, 34
5, 23716, Note_on_c, 9, 40, 0
5, 23770, Note_on_c, 9, 40, 47
5, 23774, Note_on_c, 9, 35, 45
5, 23792, Note_on_c, 9, 36, 27
5, 23852, Note_on_c, 9, 36, 0
5, 23970, Note_on_c, 9, 35, 0
5, 24036, Note_on_c, 9, 39, 67
5, 24038, Note_on_c, 9, 35, 50
5, 24052, Note_on_c, 9, 40, 0
5, 24066, Note_on_c, 9, 35, 0
5, 24066, Note_on_c, 9, 39, 0
5, 24152, Note_on_c, 9, 42, 70
5, 24156, Note_on_c, 9, 37, 70
5, 24158, Note_on_c, 9, 40, 58
5, 24216, Note_on_c, 9, 37, 0
5, 24216, Note_on_c, 9, 42, 0
5, 24404, Note_on_c, 9, 39, 60
5, 24418, Note_on_c, 9, 40, 0
5, 24460, Note_on_c, 9, 39, 0
5, 24538, Note_on_c, 9, 40, 54
5, 24774, Note_on_c, 9, 39, 69
5, 24814, Note_on_c, 9, 40, 23
5, 24822, Note_on_c, 9, 40, 0
5, 24838, Note_on_c, 9, 39, 0
5, 24850, Note_on_c, 9, 40, 0
5, 24916, Note_on_c, 9, 46, 68
5, 24920, Note_on_c, 9, 42, 70
5, 24928, Note_on_c, 9, 35, 62
5, 24930, Note_on_c, 9, 40, 58
5, 24984, Note_on_c, 9, 42, 0
5, 25018, Note_on_c, 9, 46, 0
5, 25134, Note_on_c, 9, 35, 0
5, 25176, Note_on_c, 9, 39, 87
5, 25236, Note_on_c, 9, 40, 0
5, 25242, Note_on_c, 9, 39, 0
5, 25318, Note_on_c, 9, 40, 54
5, 25550, Note_on_c, 9, 39, 92
5, 25578, Note_on_c, 9, 40, 33
5, 25596, Note_on_c, 9, 38, 20
5, 25608, Note_on_c, 9, 40, 0
5, 25632, Note_on_c, 9, 39, 0
5, 25660, Note_on_c, 9, 40, 0
5, 25660, Note_on_c, 9, 38, 0
5, 25682, Note_on_c, 9, 46, 74
5, 25688, Note_on_c, 9, 38, 40
5, 25688, Note_on_c, 9, 42, 70
5, 25692, Note_on_c, 9, 35, 68
5, 25692, Note_on_c, 9, 37, 70
5, 25712, Note_on_c, 9, 40, 59
5, 25752, Note_on_c, 9, 42, 0
5, 25752, Note_on_c, 9, 38, 0
5, 25756, Note_on_c, 9, 37, 0
5, 25776, Note_on_c, 9, 46, 0
5, 25810, Note_on_c, 9, 35, 0
5, 25898, Note_on_c, 9, 40, 0
5, 25934, Note_on_c, 9, 36, 60
5, 25986, Note_on_c, 9, 36, 0
5, 25988, Note_on_c, 9, 40, 46
5, 26036, Note_on_c, 9, 40, 0
5, 26078, Note_on_c, 9, 36, 66
5, 26082, Note_on_c, 9, 40, 54
5, 26082, Note_on_c, 9, 57, 23
5, 26144, Note_on_c, 9, 57, 0
5, 26174, Note_on_c, 9, 36, 0
5, 26388, Note_on_c, 9, 40, 0
5, 26456, Note_on_c, 9, 42, 70
5, 26476, Note_on_c, 9, 40, 55
5, 26520, Note_on_c, 9, 42, 0
5, 26686, Note_on_c, 9, 40, 0
5, 26762, Note_on_c, 9, 40, 45
5, 26812, Note_on_c, 9, 40, 0
5, 26862, Note_on_c, 9, 40, 54
5, 27100, Note_on_c, 9, 39, 51
5, 27130, Note_on_c, 9, 35, 55
5, 27132, Note_on_c, 9, 39, 0
5, 27158, Note_on_c, 9, 35, 0
5, 27162, Note_on_c, 9, 40, 0
5, 27224, Note_on_c, 9, 37, 70
5, 27224, Note_on_c, 9, 42, 70
5, 27252, Note_on_c, 9, 40, 58
5, 27286, Note_on_c, 9, 35, 67
5, 27288, Note_on_c, 9, 42, 0
5, 27288, Note_on_c, 9, 37, 0
5, 27474, Note_on_c, 9, 39, 54
5, 27484, Note_on_c, 9, 35, 0
5, 27518, Note_on_c, 9, 39, 0
5, 27612, Note_on_c, 9, 40, 0
5, 27620, Note_on_c, 9, 35, 64
5, 27638, Note_on_c, 9, 40, 59
5, 27790, Note_on_c, 9, 35, 0
5, 27878, Note_on_c, 9, 36, 22
5, 27936, Note_on_c, 9, 36, 0
5, 27992, Note_on_c, 9, 42, 70
5, 28012, Note_on_c, 9, 40, 0
5, 28014, Note_on_c, 9, 36, 35
5, 28018, Note_on_c, 9, 40, 59
5, 28056, Note_on_c, 9, 42, 0
5, 28098, Note_on_c, 9, 36, 0
5, 28280, Note_on_c, 9, 40, 46
5, 28292, Note_on_c, 9, 40, 0
5, 28326, Note_on_c, 9, 40, 0
5, 28374, Note_on_c, 9, 40, 54
5, 28756, Note_on_c, 9, 40, 0
5, 28760, Note_on_c, 9, 37, 70
5, 28760, Note_on_c, 9, 42, 70
5, 28768, Note_on_c, 9, 40, 58
5, 28824, Note_on_c, 9, 42, 0
5, 28828, Note_on_c, 9, 37, 0
5, 29028, Note_on_c, 9, 40, 0
5, 29044, Note_on_c, 9, 40, 42
5, 29136, Note_on_c, 9, 40, 54
5, 29148, Note_on_c, 9, 40, 0
5, 29508, Note_on_c, 9, 40, 0
5, 29528, Note_on_c, 9, 42, 70
5, 29528, Note_on_c, 9, 40, 55
5, 29592, Note_on_c, 9, 42, 0
5, 29884, Note_on_c, 9, 40, 0
5, 29902, Note_on_c, 9, 40, 33
5, 29916, Note_on_c, 9, 40, 56
5, 29942, Note_on_c, 9, 40, 0
5, 30004, Note_on_c, 9, 40, 34
5, 30058, Note_on_c, 9, 40, 0
5, 30172, Note_on_c, 9, 39, 52
5, 30266, Note_on_c, 9, 39, 0
5, 30292, Note_on_c, 9, 40, 0
5, 30296, Note_on_c, 9, 37, 70
5, 30296, Note_on_c, 9, 42, 70
5, 30310, Note_on_c, 9, 40, 58
5, 30312, Note_on_c, 9, 40, 37
5, 30358, Note_on_c, 9, 40, 0
5, 30360, Note_on_c, 9, 37, 0
5, 30360, Note_on_c, 9, 42, 0
5, 30556, Note_on_c, 9, 39, 35
5, 30560, Note_on_c, 9, 35, 71
5, 30624, Note_on_c, 9, 35, 0
5, 30624, Note_on_c, 9, 39, 0
5, 30684, Note_on_c, 9, 40, 0
5, 30686, Note_on_c, 9, 39, 31
5, 30702, Note_on_c, 9, 40, 52
5, 30836, Note_on_c, 9, 39, 0
5, 30944, Note_on_c, 9, 36, 28
5, 31020, Note_on_c, 9, 36, 0
5, 31052, Note_on_c, 9, 40, 0
5, 31064, Note_on_c, 9, 42, 70
5, 31066, Note_on_c, 9, 40, 58
5, 31104, Note_on_c, 9, 40, 31
5, 31128, Note_on_c, 9, 42, 0
5, 31134, Note_on_c, 9, 40, 0
5, 31248, Note_on_c, 9, 40, 0
5, 31340, Note_on_c, 9, 40, 48
5, 31378, Note_on_c, 9, 40, 0
5, 31432, Note_on_c, 9, 40, 50
5, 31710, Note_on_c, 9, 40, 35
5, 31744, Note_on_c, 9, 40, 0
5, 31764, Note_on_c, 9, 40, 0
5, 31832, Note_on_c, 9, 42, 70
5, 31836, Note_on_c, 9, 37, 70
5, 31842, Note_on_c, 9, 35, 32
5, 31896, Note_on_c, 9, 37, 0
5, 31896, Note_on_c, 9, 42, 0
5, 31916, Note_on_c, 9, 40, 55
5, 32012, Note_on_c, 9, 35, 0
5, 32024, Note_on_c, 9, 40, 0
5, 32082, Note_on_c, 9, 35, 46
5, 32116, Note_on_c, 9, 35, 0
5, 32118, Note_on_c, 9, 40, 44
5, 32154, Note_on_c, 9, 40, 0
5, 32212, Note_on_c, 9, 40, 51
5, 32486, Note_on_c, 9, 40, 0
5, 32488, Note_on_c, 9, 39, 54
5, 32572, Note_on_c, 9, 39, 0
5, 32594, Note_on_c, 9, 40, 54
5, 32600, Note_on_c, 9, 42, 70
5, 32658, Note_on_c, 9, 36, 17
5, 32664, Note_on_c, 9, 42, 0
5, 32710, Note_on_c, 9, 36, 0
5, 32862, Note_on_c, 9, 36, 34
5, 32866, Note_on_c, 9, 40, 0
5, 32910, Note_on_c, 9, 36, 0
5, 32998, Note_on_c, 9, 40, 55
5, 33244, Note_on_c, 9, 40, 0
5, 33368, Note_on_c, 9, 37, 70
5, 33368, Note_on_c, 9, 42, 70
5, 33370, Note_on_c, 9, 35, 55
5, 33382, Note_on_c, 9, 40, 56
5, 33404, Note_on_c, 9, 35, 0
5, 33432, Note_on_c, 9, 37, 0
5, 33432, Note_on_c, 9, 42, 0
5, 33656, Note_on_c, 9, 39, 36
5, 33662, Note_on_c, 9, 40, 0
5, 33698, Note_on_c, 9, 39, 0
5, 33764, Note_on_c, 9, 40, 55
5, 33816, Note_on_c, 9, 39, 21
5, 33858, Note_on_c, 9, 39, 0
5, 33952, Note_on_c, 9, 40, 0
5, 34028, Note_on_c, 9, 36, 41
5, 34054, Note_on_c, 9, 40, 47
5, 34076, Note_on_c, 9, 36, 0
5, 34082, Note_on_c, 9, 40, 0
5, 34136, Note_on_c, 9, 42, 70
5, 34144, Note_on_c, 9, 40, 49
5, 34200, Note_on_c, 9, 42, 0
5, 34420, Note_on_c, 9, 40, 0
5, 34520, Note_on_c, 9, 40, 58
5, 34808, Note_on_c, 9, 40, 0
5, 34900, Note_on_c, 9, 42, 70
5, 34908, Note_on_c, 9, 37, 70
5, 34910, Note_on_c, 9, 40, 58
5, 34968, Note_on_c, 9, 42, 0
5, 34972, Note_on_c, 9, 37, 0
5, 35106, Note_on_c, 9, 40, 0
5, 35200, Note_on_c, 9, 40, 46
5, 35234, Note_on_c, 9, 40, 0
5, 35298, Note_on_c, 9, 40, 48
5, 35550, Note_on_c, 9, 39, 57
5, 35560, Note_on_c, 9, 35, 33
5, 35586, Note_on_c, 9, 40, 0
5, 35604, Note_on_c, 9, 35, 0
5, 35620, Note_on_c, 9, 39, 0
5, 35672, Note_on_c, 9, 42, 70
5, 35682, Note_on_c, 9, 40, 58
5, 35736, Note_on_c, 9, 42, 0
5, 35894, Note_on_c, 9, 40, 0
5, 35946, Note_on_c, 9, 39, 57
5, 35982, Note_on_c, 9, 40, 46
5, 36010, Note_on_c, 9, 39, 0
5, 36022, Note_on_c, 9, 40, 0
5, 36074, Note_on_c, 9, 40, 52
5, 36338, Note_on_c, 9, 39, 52
5, 36346, Note_on_c, 9, 35, 32
5, 36376, Note_on_c, 9, 40, 0
5, 36384, Note_on_c, 9, 35, 0
5, 36400, Note_on_c, 9, 39, 0
5, 36440, Note_on_c, 9, 42, 70
5, 36444, Note_on_c, 9, 37, 70
5, 36450, Note_on_c, 9, 35, 37
5, 36454, Note_on_c, 9, 40, 53
5, 36500, Note_on_c, 9, 37, 0
5, 36500, Note_on_c, 9, 42, 0
5, 36638, Note_on_c, 9, 40, 0
5, 36642, Note_on_c, 9, 35, 0
5, 36726, Note_on_c, 9, 35, 36
5, 36730, Note_on_c, 9, 39, 40
5, 36732, Note_on_c, 9, 40, 44
5, 36762, Note_on_c, 9, 35, 0
5, 36776, Note_on_c, 9, 39, 0
5, 36778, Note_on_c, 9, 40, 0
5, 36826, Note_on_c, 9, 40, 54
5, 37102, Note_on_c, 9, 50, 90
5, 37116, Note_on_c, 9, 35, 45
5, 37124, Note_on_c, 9, 40, 0
5, 37148, Note_on_c, 9, 50, 0
5, 37150, Note_on_c, 9, 35, 0
5, 37208, Note_on_c, 9, 42, 70
5, 37210, Note_on_c, 9, 46, 69
5, 37218, Note_on_c, 9, 40, 58
5, 37272, Note_on_c, 9, 42, 0
5, 37426, Note_on_c, 9, 40, 0
5, 37426, Note_on_c, 9, 46, 0
5, 37480, Note_on_c, 9, 48, 110
5, 37502, Note_on_c, 9, 40, 45
5, 37530, Note_on_c, 9, 48, 0
5, 37554, Note_on_c, 9, 40, 0
5, 37600, Note_on_c, 9, 35, 54
5, 37602, Note_on_c, 9, 40, 54
5, 37630, Note_on_c, 9, 35, 0
5, 37848, Note_on_c, 9, 46, 79
5, 37856, Note_on_c, 9, 47, 105
5, 37884, Note_on_c, 9, 38, 20
5, 37902, Note_on_c, 9, 40, 0
5, 37918, Note_on_c, 9, 47, 0
5, 37940, Note_on_c, 9, 38, 0
5, 37976, Note_on_c, 9, 38, 40
5, 37976, Note_on_c, 9, 42, 70
5, 37980, Note_on_c, 9, 37, 70
5, 37990, Note_on_c, 9, 40, 59
5, 38038, Note_on_c, 9, 46, 0
5, 38040, Note_on_c, 9, 38, 0
5, 38040, Note_on_c, 9, 42, 0
5, 38044, Note_on_c, 9, 37, 0
5, 38182, Note_on_c, 9, 40, 0
5, 38214, Note_on_c, 9, 39, 69
5, 38260, Note_on_c, 9, 35, 50
5, 38264, Note_on_c, 9, 40, 46
5, 38278, Note_on_c, 9, 39, 0
5, 38292, Note_on_c, 9, 35, 0
5, 38310, Note_on_c, 9, 40, 0
5, 38362, Note_on_c, 9, 40, 52
5, 38366, Note_on_c, 9, 36, 53
5, 38374, Note_on_c, 9, 57, 35
5, 38390, Note_on_c, 9, 35, 70
5, 38404, Note_on_c, 9, 33, 53
5, 38434, Note_on_c, 9, 33, 0
5, 38600, Note_on_c, 9, 35, 0
5, 38616, Note_on_c, 9, 40, 0
5, 38744, Note_on_c, 9, 42, 70
5, 38752, Note_on_c, 9, 40, 61
5, 38808, Note_on_c, 9, 42, 0
5, 38894, Note_on_c, 9, 57, 0
5, 38986, Note_on_c, 9, 40, 0
5, 39132, Note_on_c, 9, 40, 59
5, 39290, Note_on_c, 9, 36, 0
5, 39292, Note_on_c, 9, 39, 67
5, 39344, Note_on_c, 9, 39, 0
5, 39358, Note_on_c, 9, 40, 0
5, 39396, Note_on_c, 9, 39, 59
5, 39416, Note_on_c, 9, 40, 47
5, 39468, Note_on_c, 9, 39, 0
5, 39478, Note_on_c, 9, 40, 0
5, 39512, Note_on_c, 9, 37, 60
5, 39512, Note_on_c, 9, 42, 70
5, 39518, Note_on_c, 9, 40, 60
5, 39524, Note_on_c, 9, 36, 51
5, 39524, Note_on_c, 9, 57, 28
5, 39576, Note_on_c, 9, 42, 0
5, 39580, Note_on_c, 9, 37, 0
5, 39656, Note_on_c, 9, 57, 0
5, 39810, Note_on_c, 9, 40, 0
5, 39904, Note_on_c, 9, 40, 54
5, 40150, Note_on_c, 9, 36, 0
5, 40190, Note_on_c, 9, 40, 0
5, 40280, Note_on_c, 9, 42, 70
5, 40286, Note_on_c, 9, 40, 58
5, 40344, Note_on_c, 9, 42, 0
5, 40496, Note_on_c, 9, 40, 0
5, 40554, Note_on_c, 9, 40, 43
5, 40622, Note_on_c, 9, 40, 0
5, 40662, Note_on_c, 9, 40, 58
5, 40940, Note_on_c, 9, 40, 0
5, 40950, Note_on_c, 9, 35, 34
5, 40984, Note_on_c, 9, 35, 0
5, 41044, Note_on_c, 9, 40, 58
5, 41048, Note_on_c, 9, 42, 70
5, 41048, Note_on_c, 9, 37, 70
5, 41108, Note_on_c, 9, 37, 0
5, 41108, Note_on_c, 9, 42, 0
5, 41308, Note_on_c, 9, 40, 0
5, 41334, Note_on_c, 9, 35, 71
5, 41380, Note_on_c, 9, 35, 0
5, 41430, Note_on_c, 9, 40, 58
5, 41458, Note_on_c, 9, 35, 44
5, 41542, Note_on_c, 9, 35, 0
5, 41692, Note_on_c, 9, 40, 0
5, 41816, Note_on_c, 9, 42, 70
5, 41826, Note_on_c, 9, 40, 56
5, 41880, Note_on_c, 9, 42, 0
5, 42002, Note_on_c, 9, 40, 0
5, 42104, Note_on_c, 9, 40, 34
5, 42144, Note_on_c, 9, 40, 0
5, 42194, Note_on_c, 9, 40, 56
5, 42452, Note_on_c, 9, 40, 0
5, 42498, Note_on_c, 9, 39, 34
5, 42538, Note_on_c, 9, 39, 0
5, 42584, Note_on_c, 9, 37, 70
5, 42584, Note_on_c, 9, 42, 70
5, 42586, Note_on_c, 9, 40, 58
5, 42640, Note_on_c, 9, 39, 25
5, 42648, Note_on_c, 9, 42, 0
5, 42652, Note_on_c, 9, 37, 0
5, 42680, Note_on_c, 9, 39, 0
5, 42794, Note_on_c, 9, 40, 0
5, 42858, Note_on_c, 9, 39, 37
5, 42860, Note_on_c, 9, 40, 40
5, 42866, Note_on_c, 9, 35, 30
5, 42906, Note_on_c, 9, 35, 0
5, 42914, Note_on_c, 9, 40, 0
5, 42946, Note_on_c, 9, 39, 0
5, 42966, Note_on_c, 9, 40, 53
5, 42988, Note_on_c, 9, 35, 28
5, 43094, Note_on_c, 9, 35, 0
5, 43222, Note_on_c, 9, 40, 0
5, 43352, Note_on_c, 9, 42, 70
5, 43368, Note_on_c, 9, 40, 58
5, 43416, Note_on_c, 9, 42, 0
5, 43614, Note_on_c, 9, 40, 0
5, 43744, Note_on_c, 9, 40, 58
5, 43970, Note_on_c, 9, 40, 0
5, 44030, Note_on_c, 9, 40, 36
5, 44038, Note_on_c, 9, 39, 28
5, 44068, Note_on_c, 9, 40, 0
5, 44078, Note_on_c, 9, 39, 0
5, 44120, Note_on_c, 9, 42, 70
5, 44124, Note_on_c, 9, 37, 70
5, 44184, Note_on_c, 9, 42, 0
5, 44188, Note_on_c, 9, 37, 0
5, 44234, Note_on_c, 9, 40, 52
5, 44390, Note_on_c, 9, 40, 38
5, 44404, Note_on_c, 9, 40, 0
5, 44446, Note_on_c, 9, 40, 0
5, 44500, Note_on_c, 9, 35, 54
5, 44510, Note_on_c, 9, 40, 57
5, 44668, Note_on_c, 9, 35, 0
5, 44774, Note_on_c, 9, 40, 0
5, 44888, Note_on_c, 9, 42, 70
5, 44894, Note_on_c, 9, 40, 54
5, 44952, Note_on_c, 9, 42, 0
5, 45144, Note_on_c, 9, 40, 0
5, 45190, Note_on_c, 9, 39, 29
5, 45218, Note_on_c, 9, 39, 0
5, 45278, Note_on_c, 9, 40, 56
5, 45506, Note_on_c, 9, 40, 0
5, 45540, Note_on_c, 9, 39, 44
5, 45560, Note_on_c, 9, 40, 44
5, 45566, Note_on_c, 9, 40, 15
5, 45578, Note_on_c, 9, 39, 0
5, 45600, Note_on_c, 9, 40, 0
5, 45622, Note_on_c, 9, 40, 0
5, 45656, Note_on_c, 9, 37, 70
5, 45656, Note_on_c, 9, 42, 70
5, 45670, Note_on_c, 9, 40, 51
5, 45720, Note_on_c, 9, 42, 0
5, 45720, Note_on_c, 9, 37, 0
5, 45836, Note_on_c, 9, 35, 53
5, 45876, Note_on_c, 9, 35, 0
5, 45940, Note_on_c, 9, 40, 0
5, 45968, Note_on_c, 9, 35, 66
5, 46044, Note_on_c, 9, 40, 56
5, 46050, Note_on_c, 9, 35, 0
5, 46104, Note_on_c, 9, 35, 60
5, 46152, Note_on_c, 9, 35, 0
5, 46296, Note_on_c, 9, 40, 0
5, 46424, Note_on_c, 9, 42, 70
5, 46438, Note_on_c, 9, 40, 58
5, 46488, Note_on_c, 9, 42, 0
5, 46614, Note_on_c, 9, 40, 0
5, 46706, Note_on_c, 9, 40, 34
5, 46710, Note_on_c, 9, 39, 35
5, 46736, Note_on_c, 9, 39, 0
5, 46738, Note_on_c, 9, 40, 48
5, 46742, Note_on_c, 9, 40, 0
5, 46778, Note_on_c, 9, 40, 0
5, 46832, Note_on_c, 9, 40, 50
5, 46832, Note_on_c, 9, 35, 29
5, 46998, Note_on_c, 9, 35, 0
5, 47078, Note_on_c, 9, 35, 33
5, 47094, Note_on_c, 9, 40, 0
5, 47102, Note_on_c, 9, 39, 35
5, 47114, Note_on_c, 9, 35, 0
5, 47136, Note_on_c, 9, 39, 0
5, 47192, Note_on_c, 9, 37, 70
5, 47192, Note_on_c, 9, 42, 70
5, 47256, Note_on_c, 9, 42, 0
5, 47256, Note_on_c, 9, 37, 0
5, 47314, Note_on_c, 9, 40, 54
5, 47348, Note_on_c, 9, 40, 0
5, 47484, Note_on_c, 9, 40, 46
5, 47524, Note_on_c, 9, 40, 0
5, 47582, Note_on_c, 9, 40, 50
5, 47924, Note_on_c, 9, 40, 0
5, 47954, Note_on_c, 9, 40, 53
5, 47960, Note_on_c, 9, 42, 70
5, 48024, Note_on_c, 9, 42, 0
5, 48300, Note_on_c, 9, 40, 0
5, 48340, Note_on_c, 9, 40, 43
5, 48676, Note_on_c, 9, 40, 0
5, 48718, Note_on_c, 9, 51, 47
5, 48718, Note_on_c, 9, 40, 48
5, 48728, Note_on_c, 9, 37, 70
5, 48728, Note_on_c, 9, 42, 70
5, 48792, Note_on_c, 9, 42, 0
5, 48792, Note_on_c, 9, 37, 0
5, 49014, Note_on_c, 9, 51, 0
5, 49028, Note_on_c, 9, 40, 0
5, 49108, Note_on_c, 9, 40, 46
5, 49398, Note_on_c, 9, 35, 47
5, 49418, Note_on_c, 9, 40, 0
5, 49428, Note_on_c, 9, 35, 0
5, 49490, Note_on_c, 9, 59, 78
5, 49494, Note_on_c, 9, 40, 41
5, 49496, Note_on_c, 9, 51, 71
5, 49496, Note_on_c, 9, 42, 70
5, 49560, Note_on_c, 9, 42, 0
5, 49754, Note_on_c, 9, 59, 0
5, 49780, Note_on_c, 9, 39, 51
5, 49838, Note_on_c, 9, 39, 0
5, 49838, Note_on_c, 9, 40, 0
5, 49908, Note_on_c, 9, 40, 44
5, 49910, Note_on_c, 9, 59, 70
5, 49986, Note_on_c, 9, 59, 0
5, 50106, Note_on_c, 9, 51, 0
5, 50164, Note_on_c, 9, 39, 56
5, 50172, Note_on_c, 9, 38, 60
5, 50208, Note_on_c, 9, 40, 0
5, 50226, Note_on_c, 9, 39, 0
5, 50236, Note_on_c, 9, 38, 0
5, 50264, Note_on_c, 9, 42, 70
5, 50278, Note_on_c, 9, 40, 47
5, 50328, Note_on_c, 9, 42, 0
5, 50384, Note_on_c, 9, 51, 62
5, 50536, Note_on_c, 9, 51, 0
5, 50540, Note_on_c, 9, 39, 50
5, 50548, Note_on_c, 9, 38, 30
5, 50570, Note_on_c, 9, 40, 0
5, 50600, Note_on_c, 9, 39, 0
5, 50616, Note_on_c, 9, 38, 0
5, 50642, Note_on_c, 9, 40, 47
5, 50652, Note_on_c, 9, 49, 30
5, 50688, Program_c, 9, 32
5, 50704, Program_c, 9, 0
5, 50716, Note_on_c, 9, 49, 0
5, 50770, Note_on_c, 9, 40, 0
5, 51032, Note_on_c, 9, 42, 70
5, 51032, Note_on_c, 9, 51, 108
5, 51096, Note_on_c, 9, 42, 0
5, 51100, Note_on_c, 9, 51, 0
5, 51416, Note_on_c, 9, 51, 88
5, 51484, Note_on_c, 9, 51, 0
5, 51674, Note_on_c, 9, 37, 74
5, 51736, Note_on_c, 9, 37, 0
5, 51800, Note_on_c, 9, 42, 70
5, 51802, Note_on_c, 9, 37, 44
5, 51804, Note_on_c, 9, 51, 108
5, 51804, Note_on_c, 9, 37, 70
5, 51850, Note_on_c, 9, 37, 0
5, 51864, Note_on_c, 9, 42, 0
5, 51864, Note_on_c, 9, 37, 0
5, 51868, Note_on_c, 9, 51, 0
5, 52052, Note_on_c, 9, 37, 69
5, 52130, Note_on_c, 9, 37, 0
5, 52184, Note_on_c, 9, 51, 88
5, 52200, Note_on_c, 9, 35, 66
5, 52252, Note_on_c, 9, 51, 0
5, 52258, Note_on_c, 9, 35, 0
5, 52568, Note_on_c, 9, 42, 70
5, 52568, Note_on_c, 9, 51, 98
5, 52632, Note_on_c, 9, 42, 0
5, 52636, Note_on_c, 9, 51, 0
5, 52952, Note_on_c, 9, 51, 88
5, 53020, Note_on_c, 9, 51, 0
5, 53336, Note_on_c, 9, 37, 70
5, 53336, Note_on_c, 9, 42, 70
5, 53340, Note_on_c, 9, 51, 98
5, 53400, Note_on_c, 9, 42, 0
5, 53404, Note_on_c, 9, 51, 0
5, 53404, Note_on_c, 9, 37, 0
5, 53720, Note_on_c, 9, 51, 88
5, 53788, Note_on_c, 9, 51, 0
5, 54104, Note_on_c, 9, 42, 70
5, 54104, Note_on_c, 9, 51, 98
5, 54168, Note_on_c, 9, 42, 0
5, 54172, Note_on_c, 9, 51, 0
5, 54388, Note_on_c, 9, 51, 68
5, 54460, Note_on_c, 9, 51, 0
5, 54488, Note_on_c, 9, 51, 88
5, 54556, Note_on_c, 9, 51, 0
5, 54872, Note_on_c, 9, 37, 60
5, 54872, Note_on_c, 9, 42, 70
5, 54876, Note_on_c, 9, 51, 98
5, 54936, Note_on_c, 9, 42, 0
5, 54936, Note_on_c, 9, 37, 0
5, 54940, Note_on_c, 9, 51, 0
5, 55156, Note_on_c, 9, 51, 68
5, 55220, Note_on_c, 9, 51, 0
5, 55256, Note_on_c, 9, 51, 88
5, 55324, Note_on_c, 9, 51, 0
5, 55640, Note_on_c, 9, 51, 98
5, 55640, Note_on_c, 9, 42, 70
5, 55700, Note_on_c, 9, 42, 0
5, 55708, Note_on_c, 9, 51, 0
5, 55746, Note_on_c, 9, 40, 27
5, 55804, Note_on_c, 9, 40, 0
5, 56024, Note_on_c, 9, 51, 88
5, 56092, Note_on_c, 9, 51, 0
5, 56408, Note_on_c, 9, 42, 70
5, 56412, Note_on_c, 9, 37, 70
5, 56412, Note_on_c, 9, 51, 98
5, 56472, Note_on_c, 9, 42, 0
5, 56476, Note_on_c, 9, 51, 0
5, 56476, Note_on_c, 9, 37, 0
5, 56532, Note_on_c, 9, 40, 41
5, 56584, Note_on_c, 9, 40, 0
5, 56658, Note_on_c, 9, 37, 69
5, 56762, Note_on_c, 9, 37, 0
5, 56786, Note_on_c, 9, 35, 59
5, 56792, Note_on_c, 9, 51, 88
5, 56860, Note_on_c, 9, 51, 0
5, 56912, Note_on_c, 9, 35, 0
5, 57176, Note_on_c, 9, 42, 70
5, 57180, Note_on_c, 9, 51, 98
5, 57240, Note_on_c, 9, 42, 0
5, 57244, Note_on_c, 9, 51, 0
5, 57468, Note_on_c, 9, 51, 68
5, 57524, Note_on_c, 9, 51, 0
5, 57560, Note_on_c, 9, 51, 88
5, 57628, Note_on_c, 9, 51, 0
5, 57698, Note_on_c, 9, 40, 23
5, 57734, Note_on_c, 9, 40, 0
5, 57800, Note_on_c, 9, 40, 27
5, 57856, Note_on_c, 9, 40, 0
5, 57944, Note_on_c, 9, 42, 70
5, 57944, Note_on_c, 9, 40, 27
5, 57948, Note_on_c, 9, 37, 60
5, 57948, Note_on_c, 9, 51, 98
5, 57980, Note_on_c, 9, 40, 0
5, 58008, Note_on_c, 9, 42, 0
5, 58012, Note_on_c, 9, 37, 0
5, 58012, Note_on_c, 9, 51, 0
5, 58190, Note_on_c, 9, 40, 40
5, 58218, Note_on_c, 9, 40, 0
5, 58228, Note_on_c, 9, 51, 68
5, 58296, Note_on_c, 9, 51, 0
5, 58328, Note_on_c, 9, 51, 88
5, 58396, Note_on_c, 9, 51, 0
5, 58708, Note_on_c, 9, 42, 70
5, 58712, Note_on_c, 9, 51, 98
5, 58776, Note_on_c, 9, 42, 0
5, 58780, Note_on_c, 9, 51, 0
5, 59096, Note_on_c, 9, 51, 88
5, 59164, Note_on_c, 9, 51, 0
5, 59358, Note_on_c, 9, 40, 33
5, 59386, Note_on_c, 9, 40, 0
5, 59480, Note_on_c, 9, 42, 70
5, 59484, Note_on_c, 9, 37, 70
5, 59484, Note_on_c, 9, 51, 98
5, 59544, Note_on_c, 9, 37, 0
5, 59544, Note_on_c, 9, 42, 0
5, 59548, Note_on_c, 9, 51, 0
5, 59864, Note_on_c, 9, 51, 88
5, 59932, Note_on_c, 9, 51, 0
5, 60122, Note_on_c, 9, 40, 26
5, 60154, Note_on_c, 9, 40, 0
5, 60248, Note_on_c, 9, 51, 108
5, 60248, Note_on_c, 9, 42, 70
5, 60308, Note_on_c, 9, 42, 0
5, 60316, Note_on_c, 9, 51, 0
5, 60508, Note_on_c, 9, 40, 29
5, 60538, Note_on_c, 9, 40, 0
5, 60632, Note_on_c, 9, 51, 88
5, 60700, Note_on_c, 9, 51, 0
5, 60884, Note_on_c, 9, 40, 34
5, 60912, Note_on_c, 9, 40, 0
5, 61016, Note_on_c, 9, 42, 70
5, 61016, Note_on_c, 9, 51, 108
5, 61016, Note_on_c, 9, 37, 70
5, 61080, Note_on_c, 9, 37, 0
5, 61080, Note_on_c, 9, 42, 0
5, 61084, Note_on_c, 9, 51, 0
5, 61258, Note_on_c, 9, 40, 34
5, 61284, Note_on_c, 9, 40, 0
5, 61400, Note_on_c, 9, 51, 88
5, 61468, Note_on_c, 9, 51, 0
5, 61656, Note_on_c, 9, 40, 29
5, 61688, Note_on_c, 9, 40, 0
5, 61784, Note_on_c, 9, 42, 70
5, 61784, Note_on_c, 9, 51, 98
5, 61848, Note_on_c, 9, 42, 0
5, 61852, Note_on_c, 9, 51, 0
5, 62076, Note_on_c, 9, 51, 68
5, 62132, Note_on_c, 9, 51, 0
5, 62168, Note_on_c, 9, 51, 88
5, 62236, Note_on_c, 9, 51, 0
5, 62456, Note_on_c, 9, 38, 60
5, 62516, Note_on_c, 9, 38, 0
5, 62552, Note_on_c, 9, 51, 98
5, 62552, Note_on_c, 9, 42, 70
5, 62616, Note_on_c, 9, 42, 0
5, 62620, Note_on_c, 9, 51, 0
5, 62824, Note_on_c, 9, 37, 88
5, 62838, Note_on_c, 9, 57, 33
5, 62840, Note_on_c, 9, 38, 30
5, 62844, Note_on_c, 9, 51, 68
5, 62870, Note_on_c, 9, 57, 0
5, 62896, Note_on_c, 9, 51, 0
5, 62896, Note_on_c, 9, 38, 0
5, 62936, Note_on_c, 9, 51, 88
5, 62956, Note_on_c, 9, 35, 79
5, 62976, Note_on_c, 9, 37, 0
5, 63004, Note_on_c, 9, 51, 0
5, 63320, Note_on_c, 9, 51, 98
5, 63320, Note_on_c, 9, 42, 70
5, 63384, Note_on_c, 9, 42, 0
5, 63388, Note_on_c, 9, 51, 0
5, 63604, Note_on_c, 9, 51, 68
5, 63676, Note_on_c, 9, 51, 0
5, 63704, Note_on_c, 9, 51, 88
5, 63772, Note_on_c, 9, 51, 0
5, 63996, Note_on_c, 9, 35, 0
5, 64088, Note_on_c, 9, 37, 60
5, 64088, Note_on_c, 9, 42, 70
5, 64092, Note_on_c, 9, 51, 98
5, 64152, Note_on_c, 9, 42, 0
5, 64152, Note_on_c, 9, 37, 0
5, 64156, Note_on_c, 9, 51, 0
5, 64368, Note_on_c, 9, 51, 68
5, 64436, Note_on_c, 9, 51, 0
5, 64472, Note_on_c, 9, 51, 88
5, 64540, Note_on_c, 9, 51, 0
5, 64856, Note_on_c, 9, 42, 70
5, 64856, Note_on_c, 9, 51, 98
5, 64920, Note_on_c, 9, 42, 0
5, 64924, Note_on_c, 9, 51, 0
5, 65140, Note_on_c, 9, 51, 68
5, 65212, Note_on_c, 9, 51, 0
5, 65240, Note_on_c, 9, 51, 88
5, 65308, Note_on_c, 9, 51, 0
5, 65506, Note_on_c, 9, 37, 36
5, 65580, Note_on_c, 9, 37, 0
5, 65618, Note_on_c, 9, 35, 32
5, 65624, Note_on_c, 9, 42, 70
5, 65624, Note_on_c, 9, 37, 70
5, 65628, Note_on_c, 9, 51, 98
5, 65650, Note_on_c, 9, 35, 0
5, 65688, Note_on_c, 9, 42, 0
5, 65688, Note_on_c, 9, 37, 0
5, 65692, Note_on_c, 9, 51, 0
5, 65874, Note_on_c, 9, 35, 53
5, 65904, Note_on_c, 9, 51, 68
5, 65960, Note_on_c, 9, 35, 0
5, 65980, Note_on_c, 9, 51, 0
5, 66008, Note_on_c, 9, 51, 88
5, 66052, Note_on_c, 9, 35, 31
5, 66076, Note_on_c, 9, 51, 0
5, 66104, Note_on_c, 9, 35, 0
5, 66284, Note_on_c, 9, 35, 54
5, 66316, Note_on_c, 9, 35, 0
5, 66392, Note_on_c, 9, 42, 70
5, 66396, Note_on_c, 9, 51, 108
5, 66456, Note_on_c, 9, 42, 0
5, 66460, Note_on_c, 9, 51, 0
5, 66776, Note_on_c, 9, 51, 88
5, 66844, Note_on_c, 9, 51, 0
5, 67160, Note_on_c, 9, 42, 70
5, 67164, Note_on_c, 9, 51, 108
5, 67164, Note_on_c, 9, 37, 70
5, 67224, Note_on_c, 9, 42, 0
5, 67228, Note_on_c, 9, 37, 0
5, 67228, Note_on_c, 9, 51, 0
5, 67544, Note_on_c, 9, 51, 88
5, 67612, Note_on_c, 9, 51, 0
5, 67928, Note_on_c, 9, 42, 70
5, 67932, Note_on_c, 9, 51, 108
5, 67938, Note_on_c, 9, 40, 19
5, 67962, Note_on_c, 9, 40, 0
5, 67992, Note_on_c, 9, 42, 0
5, 67996, Note_on_c, 9, 51, 0
5, 68118, Note_on_c, 9, 40, 40
5, 68144, Note_on_c, 9, 40, 0
5, 68308, Note_on_c, 9, 51, 88
5, 68326, Note_on_c, 9, 40, 50
5, 68370, Note_on_c, 9, 40, 0
5, 68380, Note_on_c, 9, 51, 0
5, 68426, Note_on_c, 9, 40, 44
5, 68464, Note_on_c, 9, 40, 0
5, 68696, Note_on_c, 9, 42, 70
5, 68700, Note_on_c, 9, 37, 70
5, 68700, Note_on_c, 9, 51, 108
5, 68760, Note_on_c, 9, 37, 0
5, 68760, Note_on_c, 9, 42, 0
5, 68764, Note_on_c, 9, 51, 0
5, 68970, Note_on_c, 9, 37, 47
5, 69032, Note_on_c, 9, 37, 0
5, 69084, Note_on_c, 9, 51, 88
5, 69110, Note_on_c, 9, 35, 48
5, 69148, Note_on_c, 9, 51, 0
5, 69284, Note_on_c, 9, 35, 0
5, 69356, Note_on_c, 9, 35, 37
5, 69392, Note_on_c, 9, 35, 0
5, 69464, Note_on_c, 9, 42, 70
5, 69468, Note_on_c, 9, 51, 98
5, 69528, Note_on_c, 9, 42, 0
5, 69532, Note_on_c, 9, 51, 0
5, 69748, Note_on_c, 9, 51, 68
5, 69812, Note_on_c, 9, 51, 0
5, 69848, Note_on_c, 9, 51, 88
5, 69916, Note_on_c, 9, 51, 0
5, 70102, Note_on_c, 9, 40, 50
5, 70148, Note_on_c, 9, 40, 0
5, 70232, Note_on_c, 9, 42, 70
5, 70236, Note_on_c, 9, 35, 36
5, 70236, Note_on_c, 9, 51, 98
5, 70236, Note_on_c, 9, 37, 60
5, 70278, Note_on_c, 9, 35, 0
5, 70296, Note_on_c, 9, 42, 0
5, 70296, Note_on_c, 9, 37, 0
5, 70300, Note_on_c, 9, 51, 0
5, 70474, Note_on_c, 9, 40, 38
5, 70500, Note_on_c, 9, 40, 0
5, 70516, Note_on_c, 9, 51, 68
5, 70580, Note_on_c, 9, 51, 0
5, 70616, Note_on_c, 9, 51, 88
5, 70684, Note_on_c, 9, 51, 0
5, 71000, Note_on_c, 9, 42, 70
5, 71004, Note_on_c, 9, 51, 108
5, 71064, Note_on_c, 9, 42, 0
5, 71068, Note_on_c, 9, 51, 0
5, 71384, Note_on_c, 9, 51, 88
5, 71452, Note_on_c, 9, 51, 0
5, 71768, Note_on_c, 9, 37, 70
5, 71768, Note_on_c, 9, 42, 70
5, 71772, Note_on_c, 9, 51, 108
5, 71832, Note_on_c, 9, 42, 0
5, 71832, Note_on_c, 9, 37, 0
5, 71836, Note_on_c, 9, 51, 0
5, 72152, Note_on_c, 9, 51, 88
5, 72220, Note_on_c, 9, 51, 0
5, 72536, Note_on_c, 9, 42, 70
5, 72536, Note_on_c, 9, 51, 98
5, 72600, Note_on_c, 9, 42, 0
5, 72604, Note_on_c, 9, 51, 0
5, 72820, Note_on_c, 9, 51, 68
5, 72888, Note_on_c, 9, 51, 0
5, 72920, Note_on_c, 9, 51, 88
5, 72988, Note_on_c, 9, 51, 0
5, 73300, Note_on_c, 9, 42, 70
5, 73304, Note_on_c, 9, 51, 98
5, 73304, Note_on_c, 9, 37, 60
5, 73368, Note_on_c, 9, 37, 0
5, 73368, Note_on_c, 9, 42, 0
5, 73372, Note_on_c, 9, 51, 0
5, 73588, Note_on_c, 9, 51, 68
5, 73660, Note_on_c, 9, 51, 0
5, 73688, Note_on_c, 9, 51, 88
5, 73756, Note_on_c, 9, 51, 0
5, 73962, Note_on_c, 9, 37, 35
5, 74050, Note_on_c, 9, 37, 0
5, 74072, Note_on_c, 9, 42, 70
5, 74076, Note_on_c, 9, 51, 98
5, 74096, Note_on_c, 9, 35, 24
5, 74136, Note_on_c, 9, 42, 0
5, 74140, Note_on_c, 9, 51, 0
5, 74230, Note_on_c, 9, 35, 0
5, 74356, Note_on_c, 9, 51, 68
5, 74366, Note_on_c, 9, 35, 38
5, 74410, Note_on_c, 9, 35, 0
5, 74428, Note_on_c, 9, 51, 0
5, 74456, Note_on_c, 9, 51, 88
5, 74524, Note_on_c, 9, 51, 0
5, 74740, Note_on_c, 9, 38, 60
5, 74812, Note_on_c, 9, 38, 0
5, 74840, Note_on_c, 9, 42, 70
5, 74840, Note_on_c, 9, 51, 98
5, 74900, Note_on_c, 9, 42, 0
5, 74908, Note_on_c, 9, 51, 0
5, 75112, Note_on_c, 9, 37, 67
5, 75124, Note_on_c, 9, 51, 68
5, 75124, Note_on_c, 9, 38, 30
5, 75192, Note_on_c, 9, 38, 0
5, 75196, Note_on_c, 9, 51, 0
5, 75224, Note_on_c, 9, 51, 88
5, 75244, Note_on_c, 9, 57, 38
5, 75244, Note_on_c, 9, 35, 94
5, 75288, Note_on_c, 9, 37, 0
5, 75292, Note_on_c, 9, 51, 0
5, 75608, Note_on_c, 9, 42, 70
5, 75612, Note_on_c, 9, 51, 98
5, 75672, Note_on_c, 9, 42, 0
5, 75676, Note_on_c, 9, 51, 0
5, 75896, Note_on_c, 9, 51, 68
5, 75956, Note_on_c, 9, 51, 0
5, 75992, Note_on_c, 9, 51, 88
5, 76060, Note_on_c, 9, 51, 0
5, 76214, Note_on_c, 9, 57, 0
5, 76246, Note_on_c, 9, 35, 0
5, 76264, Note_on_c, 9, 37, 67
5, 76348, Note_on_c, 9, 37, 0
5, 76376, Note_on_c, 9, 42, 70
5, 76376, Note_on_c, 9, 37, 70
5, 76376, Note_on_c, 9, 57, 41
5, 76378, Note_on_c, 9, 35, 89
5, 76380, Note_on_c, 9, 51, 98
5, 76440, Note_on_c, 9, 42, 0
5, 76444, Note_on_c, 9, 37, 0
5, 76444, Note_on_c, 9, 51, 0
5, 76668, Note_on_c, 9, 51, 68
5, 76724, Note_on_c, 9, 51, 0
5, 76760, Note_on_c, 9, 51, 88
5, 76828, Note_on_c, 9, 51, 0
5, 77144, Note_on_c, 9, 42, 70
5, 77144, Note_on_c, 9, 51, 108
5, 77206, Note_on_c, 9, 57, 0
5, 77208, Note_on_c, 9, 42, 0
5, 77212, Note_on_c, 9, 51, 0
5, 77528, Note_on_c, 9, 51, 88
5, 77596, Note_on_c, 9, 51, 0
5, 77912, Note_on_c, 9, 42, 70
5, 77912, Note_on_c, 9, 51, 108
5, 77912, Note_on_c, 9, 37, 70
5, 77976, Note_on_c, 9, 37, 0
5, 77976, Note_on_c, 9, 42, 0
5, 77980, Note_on_c, 9, 51, 0
5, 77980, Note_on_c, 9, 35, 0
5, 78296, Note_on_c, 9, 51, 88
5, 78364, Note_on_c, 9, 51, 0
5, 78680, Note_on_c, 9, 51, 108
5, 78680, Note_on_c, 9, 42, 70
5, 78744, Note_on_c, 9, 42, 0
5, 78748, Note_on_c, 9, 51, 0
5, 79064, Note_on_c, 9, 51, 88
5, 79132, Note_on_c, 9, 51, 0
5, 79448, Note_on_c, 9, 37, 70
5, 79448, Note_on_c, 9, 42, 70
5, 79452, Note_on_c, 9, 51, 108
5, 79508, Note_on_c, 9, 42, 0
5, 79508, Note_on_c, 9, 37, 0
5, 79520, Note_on_c, 9, 51, 0
5, 79832, Note_on_c, 9, 51, 88
5, 79836, Note_on_c, 9, 40, 23
5, 79870, Note_on_c, 9, 40, 0
5, 79900, Note_on_c, 9, 51, 0
5, 80026, Note_on_c, 9, 40, 42
5, 80052, Note_on_c, 9, 40, 0
5, 80216, Note_on_c, 9, 42, 70
5, 80220, Note_on_c, 9, 51, 108
5, 80258, Note_on_c, 9, 40, 48
5, 80280, Note_on_c, 9, 42, 0
5, 80282, Note_on_c, 9, 40, 0
5, 80284, Note_on_c, 9, 51, 0
5, 80324, Note_on_c, 9, 40, 44
5, 80350, Note_on_c, 9, 40, 0
5, 80600, Note_on_c, 9, 51, 88
5, 80668, Note_on_c, 9, 51, 0
5, 80984, Note_on_c, 9, 42, 70
5, 80988, Note_on_c, 9, 51, 108
5, 80988, Note_on_c, 9, 37, 70
5, 81048, Note_on_c, 9, 42, 0
5, 81052, Note_on_c, 9, 37, 0
5, 81052, Note_on_c, 9, 51, 0
5, 81248, Note_on_c, 9, 37, 58
5, 81342, Note_on_c, 9, 37, 0
5, 81372, Note_on_c, 9, 51, 88
5, 81436, Note_on_c, 9, 51, 0
5, 81752, Note_on_c, 9, 42, 70
5, 81752, Note_on_c, 9, 51, 98
5, 81816, Note_on_c, 9, 42, 0
5, 81820, Note_on_c, 9, 51, 0
5, 82036, Note_on_c, 9, 51, 68
5, 82096, Note_on_c, 9, 51, 0
5, 82136, Note_on_c, 9, 51, 88
5, 82204, Note_on_c, 9, 51, 0
5, 82402, Note_on_c, 9, 35, 36
5, 82444, Note_on_c, 9, 35, 0
5, 82520, Note_on_c, 9, 37, 60
5, 82520, Note_on_c, 9, 42, 70
5, 82524, Note_on_c, 9, 51, 98
5, 82538, Note_on_c, 9, 35, 31
5, 82584, Note_on_c, 9, 42, 0
5, 82588, Note_on_c, 9, 37, 0
5, 82588, Note_on_c, 9, 51, 0
5, 82612, Note_on_c, 9, 35, 0
5, 82796, Note_on_c, 9, 35, 37
5, 82804, Note_on_c, 9, 51, 68
5, 82844, Note_on_c, 9, 35, 0
5, 82876, Note_on_c, 9, 51, 0
5, 82904, Note_on_c, 9, 51, 88
5, 82972, Note_on_c, 9, 51, 0
5, 83288, Note_on_c, 9, 42, 70
5, 83288, Note_on_c, 9, 51, 98
5, 83352, Note_on_c, 9, 42, 0
5, 83356, Note_on_c, 9, 51, 0
5, 83672, Note_on_c, 9, 51, 88
5, 83740, Note_on_c, 9, 51, 0
5, 83808, Note_on_c, 9, 37, 21
5, 83868, Note_on_c, 9, 37, 0
5, 83916, Note_on_c, 9, 37, 65
5, 84006, Note_on_c, 9, 37, 0
5, 84044, Note_on_c, 9, 37, 69
5, 84056, Note_on_c, 9, 37, 70
5, 84056, Note_on_c, 9, 42, 70
5, 84060, Note_on_c, 9, 51, 98
5, 84108, Note_on_c, 9, 37, 0
5, 84120, Note_on_c, 9, 37, 0
5, 84120, Note_on_c, 9, 42, 0
5, 84124, Note_on_c, 9, 51, 0
5, 84332, Note_on_c, 9, 35, 51
5, 84372, Note_on_c, 9, 35, 0
5, 84440, Note_on_c, 9, 51, 88
5, 84508, Note_on_c, 9, 51, 0
5, 84824, Note_on_c, 9, 51, 108
5, 84824, Note_on_c, 9, 42, 70
5, 84888, Note_on_c, 9, 42, 0
5, 84892, Note_on_c, 9, 51, 0
5, 85208, Note_on_c, 9, 51, 88
5, 85270, Note_on_c, 9, 46, 47
5, 85276, Note_on_c, 9, 51, 0
5, 85418, Note_on_c, 9, 46, 0
5, 85582, Note_on_c, 9, 46, 68
5, 85592, Note_on_c, 9, 42, 70
5, 85596, Note_on_c, 9, 37, 70
5, 85596, Note_on_c, 9, 51, 108
5, 85656, Note_on_c, 9, 37, 0
5, 85656, Note_on_c, 9, 42, 0
5, 85660, Note_on_c, 9, 51, 0
5, 85702, Note_on_c, 9, 46, 0
5, 85872, Note_on_c, 9, 46, 77
5, 85968, Note_on_c, 9, 46, 0
5, 85976, Note_on_c, 9, 51, 88
5, 86044, Note_on_c, 9, 51, 0
5, 86140, Note_on_c, 9, 46, 71
5, 86256, Note_on_c, 9, 46, 0
5, 86360, Note_on_c, 9, 42, 70
5, 86360, Note_on_c, 9, 51, 98
5, 86394, Note_on_c, 9, 46, 81
5, 86424, Note_on_c, 9, 42, 0
5, 86428, Note_on_c, 9, 51, 0
5, 86538, Note_on_c, 9, 46, 0
5, 86650, Note_on_c, 9, 46, 74
5, 86652, Note_on_c, 9, 51, 68
5, 86704, Note_on_c, 9, 51, 0
5, 86744, Note_on_c, 9, 51, 88
5, 86758, Note_on_c, 9, 46, 0
5, 86812, Note_on_c, 9, 51, 0
5, 86884, Note_on_c, 9, 46, 78
5, 87008, Note_on_c, 9, 46, 0
5, 87032, Note_on_c, 9, 38, 60
5, 87096, Note_on_c, 9, 38, 0
5, 87128, Note_on_c, 9, 42, 70
5, 87128, Note_on_c, 9, 51, 98
5, 87136, Note_on_c, 9, 46, 75
5, 87140, Note_on_c, 9, 37, 59
5, 87192, Note_on_c, 9, 42, 0
5, 87196, Note_on_c, 9, 51, 0
5, 87200, Note_on_c, 9, 46, 0
5, 87392, Note_on_c, 9, 57, 37
5, 87408, Note_on_c, 9, 35, 83
5, 87416, Note_on_c, 9, 38, 30
5, 87420, Note_on_c, 9, 51, 68
5, 87442, Note_on_c, 9, 37, 0
5, 87480, Note_on_c, 9, 38, 0
5, 87484, Note_on_c, 9, 51, 0
5, 87512, Note_on_c, 9, 51, 88
5, 87580, Note_on_c, 9, 51, 0
5, 87896, Note_on_c, 9, 51, 98
5, 87896, Note_on_c, 9, 42, 70
5, 87960, Note_on_c, 9, 42, 0
5, 87964, Note_on_c, 9, 51, 0
5, 88180, Note_on_c, 9, 51, 68
5, 88244, Note_on_c, 9, 51, 0
5, 88280, Note_on_c, 9, 51, 88
5, 88348, Note_on_c, 9, 51, 0
5, 88400, Note_on_c, 9, 57, 0
5, 88560, Note_on_c, 9, 35, 0
5, 88578, Note_on_c, 9, 37, 25
5, 88618, Note_on_c, 9, 37, 0
5, 88664, Note_on_c, 9, 37, 60
5, 88664, Note_on_c, 9, 42, 70
5, 88668, Note_on_c, 9, 51, 98
5, 88728, Note_on_c, 9, 42, 0
5, 88728, Note_on_c, 9, 37, 0
5, 88732, Note_on_c, 9, 51, 0
5, 88882, Note_on_c, 9, 35, 78
5, 88948, Note_on_c, 9, 51, 68
5, 88952, Note_on_c, 9, 35, 0
5, 89012, Note_on_c, 9, 51, 0
5, 89048, Note_on_c, 9, 51, 88
5, 89116, Note_on_c, 9, 51, 0
5, 89432, Note_on_c, 9, 51, 98
5, 89432, Note_on_c, 9, 42, 70
5, 89496, Note_on_c, 9, 42, 0
5, 89500, Note_on_c, 9, 51, 0
5, 89716, Note_on_c, 9, 51, 68
5, 89788, Note_on_c, 9, 51, 0
5, 89816, Note_on_c, 9, 51, 88
5, 89884, Note_on_c, 9, 51, 0
5, 90200, Note_on_c, 9, 42, 70
5, 90204, Note_on_c, 9, 37, 70
5, 90204, Note_on_c, 9, 51, 98
5, 90264, Note_on_c, 9, 42, 0
5, 90268, Note_on_c, 9, 51, 0
5, 90268, Note_on_c, 9, 37, 0
5, 90488, Note_on_c, 9, 51, 68
5, 90548, Note_on_c, 9, 51, 0
5, 90584, Note_on_c, 9, 51, 88
5, 90652, Note_on_c, 9, 51, 0
5, 90968, Note_on_c, 9, 42, 70
5, 90972, Note_on_c, 9, 51, 108
5, 91032, Note_on_c, 9, 42, 0
5, 91036, Note_on_c, 9, 51, 0
5, 91252, Note_on_c, 9, 35, 41
5, 91290, Note_on_c, 9, 35, 0
5, 91352, Note_on_c, 9, 51, 88
5, 91420, Note_on_c, 9, 51, 0
5, 91736, Note_on_c, 9, 42, 70
5, 91740, Note_on_c, 9, 51, 108
5, 91740, Note_on_c, 9, 37, 70
5, 91800, Note_on_c, 9, 42, 0
5, 91804, Note_on_c, 9, 37, 0
5, 91804, Note_on_c, 9, 51, 0
5, 92018, Note_on_c, 9, 35, 38
5, 92056, Note_on_c, 9, 35, 0
5, 92120, Note_on_c, 9, 51, 88
5, 92188, Note_on_c, 9, 51, 0
5, 92500, Note_on_c, 9, 42, 70
5, 92504, Note_on_c, 9, 51, 98
5, 92568, Note_on_c, 9, 42, 0
5, 92572, Note_on_c, 9, 51, 0
5, 92796, Note_on_c, 9, 51, 68
5, 92860, Note_on_c, 9, 51, 0
5, 92888, Note_on_c, 9, 51, 88
5, 92956, Note_on_c, 9, 51, 0
5, 93272, Note_on_c, 9, 42, 70
5, 93276, Note_on_c, 9, 51, 98
5, 93276, Note_on_c, 9, 37, 70
5, 93336, Note_on_c, 9, 37, 0
5, 93336, Note_on_c, 9, 42, 0
5, 93340, Note_on_c, 9, 51, 0
5, 93556, Note_on_c, 9, 51, 68
5, 93628, Note_on_c, 9, 51, 0
5, 93656, Note_on_c, 9, 51, 88
5, 93724, Note_on_c, 9, 51, 0
5, 94040, Note_on_c, 9, 51, 98
5, 94040, Note_on_c, 9, 42, 70
5, 94100, Note_on_c, 9, 42, 0
5, 94112, Note_on_c, 9, 51, 0
5, 94314, Note_on_c, 9, 35, 35
5, 94324, Note_on_c, 9, 51, 68
5, 94350, Note_on_c, 9, 35, 0
5, 94396, Note_on_c, 9, 51, 0
5, 94424, Note_on_c, 9, 51, 88
5, 94492, Note_on_c, 9, 51, 0
5, 94808, Note_on_c, 9, 42, 70
5, 94808, Note_on_c, 9, 37, 70
5, 94808, Note_on_c, 9, 51, 98
5, 94872, Note_on_c, 9, 42, 0
5, 94876, Note_on_c, 9, 51, 0
5, 94876, Note_on_c, 9, 37, 0
5, 95096, Note_on_c, 9, 51, 68
5, 95156, Note_on_c, 9, 51, 0
5, 95170, Note_on_c, 9, 40, 26
5, 95192, Note_on_c, 9, 51, 88
5, 95206, Note_on_c, 9, 40, 0
5, 95260, Note_on_c, 9, 51, 0
5, 95576, Note_on_c, 9, 51, 98
5, 95576, Note_on_c, 9, 42, 70
5, 95592, Note_on_c, 9, 40, 38
5, 95620, Note_on_c, 9, 40, 0
5, 95640, Note_on_c, 9, 42, 0
5, 95644, Note_on_c, 9, 51, 0
5, 95684, Note_on_c, 9, 40, 34
5, 95726, Note_on_c, 9, 40, 0
5, 95960, Note_on_c, 9, 51, 88
5, 96028, Note_on_c, 9, 51, 0
5, 96222, Note_on_c, 9, 35, 62
5, 96250, Note_on_c, 9, 35, 0
5, 96344, Note_on_c, 9, 37, 70
5, 96344, Note_on_c, 9, 42, 70
5, 96346, Note_on_c, 9, 35, 56
5, 96348, Note_on_c, 9, 51, 98
5, 96408, Note_on_c, 9, 42, 0
5, 96412, Note_on_c, 9, 37, 0
5, 96412, Note_on_c, 9, 51, 0
5, 96546, Note_on_c, 9, 35, 0
5, 96606, Note_on_c, 9, 35, 60
5, 96674, Note_on_c, 9, 35, 0
5, 96728, Note_on_c, 9, 51, 88
5, 96796, Note_on_c, 9, 51, 0
5, 97108, Note_on_c, 9, 42, 70
5, 97108, Note_on_c, 9, 51, 108
5, 97176, Note_on_c, 9, 42, 0
5, 97180, Note_on_c, 9, 51, 0
5, 97496, Note_on_c, 9, 51, 88
5, 97564, Note_on_c, 9, 51, 0
5, 97880, Note_on_c, 9, 42, 70
5, 97884, Note_on_c, 9, 37, 70
5, 97884, Note_on_c, 9, 51, 108
5, 97944, Note_on_c, 9, 37, 0
5, 97944, Note_on_c, 9, 42, 0
5, 97948, Note_on_c, 9, 51, 0
5, 98262, Note_on_c, 9, 40, 19
5, 98264, Note_on_c, 9, 51, 88
5, 98298, Note_on_c, 9, 40, 0
5, 98332, Note_on_c, 9, 51, 0
5, 98354, Note_on_c, 9, 40, 38
5, 98426, Note_on_c, 9, 40, 0
5, 98502, Note_on_c, 9, 40, 36
5, 98530, Note_on_c, 9, 40, 0
5, 98648, Note_on_c, 9, 42, 70
5, 98648, Note_on_c, 9, 51, 98
5, 98708, Note_on_c, 9, 42, 0
5, 98716, Note_on_c, 9, 51, 0
5, 98822, Note_on_c, 9, 40, 38
5, 98854, Note_on_c, 9, 40, 0
5, 98924, Note_on_c, 9, 40, 44
5, 98932, Note_on_c, 9, 51, 68
5, 98994, Note_on_c, 9, 40, 0
5, 99004, Note_on_c, 9, 51, 0
5, 99032, Note_on_c, 9, 51, 88
5, 99054, Note_on_c, 9, 40, 38
5, 99088, Note_on_c, 9, 40, 0
5, 99100, Note_on_c, 9, 51, 0
5, 99316, Note_on_c, 9, 38, 60
5, 99388, Note_on_c, 9, 38, 0
5, 99416, Note_on_c, 9, 42, 70
5, 99416, Note_on_c, 9, 51, 98
5, 99426, Note_on_c, 9, 40, 42
5, 99460, Note_on_c, 9, 40, 0
5, 99480, Note_on_c, 9, 42, 0
5, 99484, Note_on_c, 9, 51, 0
5, 99522, Note_on_c, 9, 40, 43
5, 99572, Note_on_c, 9, 40, 0
5, 99652, Note_on_c, 9, 37, 60
5, 99696, Note_on_c, 9, 38, 30
5, 99696, Note_on_c, 9, 51, 68
5, 99768, Note_on_c, 9, 38, 0
5, 99772, Note_on_c, 9, 51, 0
5, 99788, Note_on_c, 9, 37, 0
5, 99790, Note_on_c, 9, 35, 81
5, 99800, Note_on_c, 9, 51, 88
5, 99868, Note_on_c, 9, 51, 0
5, 100062, Note_on_c, 9, 35, 0
5, 100184, Note_on_c, 9, 51, 108
5, 100184, Note_on_c, 9, 42, 70
5, 100248, Note_on_c, 9, 42, 0
5, 100252, Note_on_c, 9, 51, 0
5, 100568, Note_on_c, 9, 51, 88
5, 100636, Note_on_c, 9, 51, 0
5, 100850, Note_on_c, 9, 35, 33
5, 100884, Note_on_c, 9, 35, 0
5, 100952, Note_on_c, 9, 42, 70
5, 100952, Note_on_c, 9, 37, 70
5, 100956, Note_on_c, 9, 51, 108
5, 101016, Note_on_c, 9, 42, 0
5, 101020, Note_on_c, 9, 51, 0
5, 101020, Note_on_c, 9, 37, 0
5, 101336, Note_on_c, 9, 51, 88
5, 101404, Note_on_c, 9, 51, 0
5, 101720, Note_on_c, 9, 51, 98
5, 101720, Note_on_c, 9, 42, 70
5, 101784, Note_on_c, 9, 42, 0
5, 101788, Note_on_c, 9, 51, 0
5, 102100, Note_on_c, 9, 51, 88
5, 102172, Note_on_c, 9, 51, 0
5, 102488, Note_on_c, 9, 42, 70
5, 102488, Note_on_c, 9, 37, 70
5, 102492, Note_on_c, 9, 51, 98
5, 102552, Note_on_c, 9, 37, 0
5, 102552, Note_on_c, 9, 42, 0
5, 102556, Note_on_c, 9, 51, 0
5, 102770, Note_on_c, 9, 35, 53
5, 102810, Note_on_c, 9, 35, 0
5, 102870, Note_on_c, 9, 35, 34
5, 102872, Note_on_c, 9, 51, 88
5, 102940, Note_on_c, 9, 51, 0
5, 103034, Note_on_c, 9, 35, 0
5, 103256, Note_on_c, 9, 42, 70
5, 103260, Note_on_c, 9, 51, 98
5, 103320, Note_on_c, 9, 42, 0
5, 103324, Note_on_c, 9, 51, 0
5, 103536, Note_on_c, 9, 35, 58
5, 103540, Note_on_c, 9, 51, 68
5, 103562, Note_on_c, 9, 35, 0
5, 103612, Note_on_c, 9, 51, 0
5, 103640, Note_on_c, 9, 51, 88
5, 103708, Note_on_c, 9, 51, 0
5, 104024, Note_on_c, 9, 42, 70
5, 104028, Note_on_c, 9, 37, 70
5, 104028, Note_on_c, 9, 51, 98
5, 104088, Note_on_c, 9, 37, 0
5, 104088, Note_on_c, 9, 42, 0
5, 104092, Note_on_c, 9, 51, 0
5, 104308, Note_on_c, 9, 51, 68
5, 104380, Note_on_c, 9, 51, 0
5, 104408, Note_on_c, 9, 51, 88
5, 104476, Note_on_c, 9, 51, 0
5, 104792, Note_on_c, 9, 42, 70
5, 104792, Note_on_c, 9, 51, 108
5, 104856, Note_on_c, 9, 42, 0
5, 104860, Note_on_c, 9, 51, 0
5, 105176, Note_on_c, 9, 51, 88
5, 105244, Note_on_c, 9, 51, 0
5, 105560, Note_on_c, 9, 37, 70
5, 105560, Note_on_c, 9, 42, 70
5, 105564, Note_on_c, 9, 51, 108
5, 105624, Note_on_c, 9, 42, 0
5, 105624, Note_on_c, 9, 37, 0
5, 105628, Note_on_c, 9, 51, 0
5, 105944, Note_on_c, 9, 51, 88
5, 106012, Note_on_c, 9, 51, 0
5, 106328, Note_on_c, 9, 42, 70
5, 106328, Note_on_c, 9, 51, 98
5, 106392, Note_on_c, 9, 42, 0
5, 106396, Note_on_c, 9, 51, 0
5, 106620, Note_on_c, 9, 51, 68
5, 106684, Note_on_c, 9, 51, 0
5, 106712, Note_on_c, 9, 51, 88
5, 106780, Note_on_c, 9, 51, 0
5, 106978, Note_on_c, 9, 40, 10
5, 107026, Note_on_c, 9, 40, 0
5, 107096, Note_on_c, 9, 42, 70
5, 107096, Note_on_c, 9, 37, 70
5, 107100, Note_on_c, 9, 51, 98
5, 107120, Note_on_c, 9, 40, 26
5, 107152, Note_on_c, 9, 40, 0
5, 107160, Note_on_c, 9, 42, 0
5, 107160, Note_on_c, 9, 37, 0
5, 107164, Note_on_c, 9, 51, 0
5, 107340, Note_on_c, 9, 40, 34
5, 107370, Note_on_c, 9, 40, 0
5, 107388, Note_on_c, 9, 51, 68
5, 107452, Note_on_c, 9, 51, 0
5, 107480, Note_on_c, 9, 51, 88
5, 107548, Note_on_c, 9, 51, 0
5, 107606, Note_on_c, 9, 40, 28
5, 107636, Note_on_c, 9, 40, 0
5, 107864, Note_on_c, 9, 42, 70
5, 107864, Note_on_c, 9, 51, 98
5, 107874, Note_on_c, 9, 40, 26
5, 107906, Note_on_c, 9, 40, 0
5, 107928, Note_on_c, 9, 42, 0
5, 107932, Note_on_c, 9, 51, 0
5, 108150, Note_on_c, 9, 35, 44
5, 108184, Note_on_c, 9, 35, 0
5, 108248, Note_on_c, 9, 51, 88
5, 108266, Note_on_c, 9, 35, 47
5, 108316, Note_on_c, 9, 51, 0
5, 108442, Note_on_c, 9, 35, 0
5, 108508, Note_on_c, 9, 35, 54
5, 108574, Note_on_c, 9, 35, 0
5, 108632, Note_on_c, 9, 37, 70
5, 108632, Note_on_c, 9, 42, 70
5, 108636, Note_on_c, 9, 51, 98
5, 108696, Note_on_c, 9, 42, 0
5, 108696, Note_on_c, 9, 37, 0
5, 108700, Note_on_c, 9, 51, 0
5, 109016, Note_on_c, 9, 51, 88
5, 109084, Note_on_c, 9, 51, 0
5, 109400, Note_on_c, 9, 42, 70
5, 109404, Note_on_c, 9, 51, 108
5, 109464, Note_on_c, 9, 42, 0
5, 109468, Note_on_c, 9, 51, 0
5, 109784, Note_on_c, 9, 51, 88
5, 109852, Note_on_c, 9, 51, 0
5, 110168, Note_on_c, 9, 42, 70
5, 110168, Note_on_c, 9, 37, 70
5, 110172, Note_on_c, 9, 51, 108
5, 110232, Note_on_c, 9, 37, 0
5, 110232, Note_on_c, 9, 42, 0
5, 110236, Note_on_c, 9, 51, 0
5, 110552, Note_on_c, 9, 51, 88
5, 110620, Note_on_c, 9, 51, 0
5, 110936, Note_on_c, 9, 42, 70
5, 110936, Note_on_c, 9, 51, 98
5, 111000, Note_on_c, 9, 42, 0
5, 111004, Note_on_c, 9, 51, 0
5, 111228, Note_on_c, 9, 51, 68
5, 111288, Note_on_c, 9, 51, 0
5, 111320, Note_on_c, 9, 51, 88
5, 111388, Note_on_c, 9, 51, 0
5, 111606, Note_on_c, 9, 31, 48
5, 111612, Note_on_c, 9, 38, 20
5, 111644, Note_on_c, 9, 32, 39
5, 111676, Note_on_c, 9, 38, 0
5, 111682, Note_on_c, 9, 31, 0
5, 111700, Note_on_c, 9, 38, 40
5, 111702, Note_on_c, 9, 37, 85
5, 111704, Note_on_c, 9, 37, 70
5, 111704, Note_on_c, 9, 51, 98
5, 111704, Note_on_c, 9, 42, 70
5, 111732, Note_on_c, 9, 32, 0
5, 111768, Note_on_c, 9, 38, 0
5, 111768, Note_on_c, 9, 42, 0
5, 111772, Note_on_c, 9, 37, 0
5, 111772, Note_on_c, 9, 51, 0
5, 111990, Note_on_c, 9, 57, 51
5, 111992, Note_on_c, 9, 35, 95
5, 111996, Note_on_c, 9, 51, 68
5, 112032, Note_on_c, 9, 37, 0
5, 112060, Note_on_c, 9, 51, 0
5, 112088, Note_on_c, 9, 49, 30
5, 112088, Note_on_c, 9, 51, 88
5, 112152, Note_on_c, 9, 51, 0
5, 112156, Note_on_c, 9, 49, 0
5, 112472, Note_on_c, 9, 51, 108
5, 112472, Note_on_c, 9, 42, 70
5, 112536, Note_on_c, 9, 42, 0
5, 112540, Note_on_c, 9, 51, 0
5, 112856, Note_on_c, 9, 51, 88
5, 112924, Note_on_c, 9, 51, 0
5, 113240, Note_on_c, 9, 42, 70
5, 113240, Note_on_c, 9, 37, 70
5, 113244, Note_on_c, 9, 51, 108
5, 113272, Note_on_c, 9, 57, 0
5, 113300, Note_on_c, 9, 37, 0
5, 113300, Note_on_c, 9, 42, 0
5, 113312, Note_on_c, 9, 51, 0
5, 113624, Note_on_c, 9, 51, 88
5, 113692, Note_on_c, 9, 51, 0
5, 113924, Note_on_c, 9, 35, 0
5, 113990, Note_on_c, 9, 40, 19
5, 114008, Note_on_c, 9, 42, 70
5, 114012, Note_on_c, 9, 51, 98
5, 114072, Note_on_c, 9, 42, 0
5, 114076, Note_on_c, 9, 51, 0
5, 114182, Note_on_c, 9, 40, 0
5, 114264, Note_on_c, 9, 40, 34
5, 114316, Note_on_c, 9, 40, 0
5, 114392, Note_on_c, 9, 51, 88
5, 114460, Note_on_c, 9, 51, 0
5, 114540, Note_on_c, 9, 40, 29
5, 114610, Note_on_c, 9, 40, 0
5, 114776, Note_on_c, 9, 42, 70
5, 114780, Note_on_c, 9, 51, 98
5, 114780, Note_on_c, 9, 37, 70
5, 114820, Note_on_c, 9, 40, 34
5, 114840, Note_on_c, 9, 42, 0
5, 114844, Note_on_c, 9, 51, 0
5, 114844, Note_on_c, 9, 37, 0
5, 114860, Note_on_c, 9, 40, 0
5, 115048, Note_on_c, 9, 37, 50
5, 115150, Note_on_c, 9, 37, 0
5, 115160, Note_on_c, 9, 51, 88
5, 115180, Note_on_c, 9, 35, 34
5, 115228, Note_on_c, 9, 51, 0
5, 115314, Note_on_c, 9, 35, 0
5, 115544, Note_on_c, 9, 42, 70
5, 115544, Note_on_c, 9, 51, 98
5, 115608, Note_on_c, 9, 42, 0
5, 115612, Note_on_c, 9, 51, 0
5, 115828, Note_on_c, 9, 51, 68
5, 115896, Note_on_c, 9, 51, 0
5, 115928, Note_on_c, 9, 51, 88
5, 115996, Note_on_c, 9, 51, 0
5, 116076, Note_on_c, 9, 40, 26
5, 116114, Note_on_c, 9, 40, 0
5, 116184, Note_on_c, 9, 40, 27
5, 116224, Note_on_c, 9, 40, 0
5, 116308, Note_on_c, 9, 42, 70
5, 116312, Note_on_c, 9, 37, 60
5, 116312, Note_on_c, 9, 51, 98
5, 116324, Note_on_c, 9, 35, 37
5, 116376, Note_on_c, 9, 42, 0
5, 116380, Note_on_c, 9, 37, 0
5, 116380, Note_on_c, 9, 51, 0
5, 116474, Note_on_c, 9, 35, 0
5, 116596, Note_on_c, 9, 51, 68
5, 116668, Note_on_c, 9, 51, 0
5, 116696, Note_on_c, 9, 51, 88
5, 116728, Note_on_c, 9, 40, 15
5, 116764, Note_on_c, 9, 51, 0
5, 116766, Note_on_c, 9, 40, 0
5, 116832, Note_on_c, 9, 40, 29
5, 116880, Note_on_c, 9, 40, 0
5, 116956, Note_on_c, 9, 35, 64
5, 117080, Note_on_c, 9, 42, 70
5, 117084, Note_on_c, 9, 51, 98
5, 117144, Note_on_c, 9, 42, 0
5, 117148, Note_on_c, 9, 51, 0
5, 117166, Note_on_c, 9, 35, 0
5, 117252, Note_on_c, 9, 40, 27
5, 117294, Note_on_c, 9, 40, 0
5, 117366, Note_on_c, 9, 40, 29
5, 117372, Note_on_c, 9, 51, 68
5, 117426, Note_on_c, 9, 40, 0
5, 117436, Note_on_c, 9, 51, 0
5, 117464, Note_on_c, 9, 51, 88
5, 117482, Note_on_c, 9, 35, 63
5, 117532, Note_on_c, 9, 51, 0
5, 117754, Note_on_c, 9, 35, 0
5, 117848, Note_on_c, 9, 37, 70
5, 117848, Note_on_c, 9, 42, 70
5, 117852, Note_on_c, 9, 51, 98
5, 117856, Note_on_c, 9, 40, 17
5, 117892, Note_on_c, 9, 40, 0
5, 117908, Note_on_c, 9, 42, 0
5, 117912, Note_on_c, 9, 37, 0
5, 117916, Note_on_c, 9, 51, 0
5, 117924, Note_on_c, 9, 40, 22
5, 117988, Note_on_c, 9, 40, 0
5, 118074, Note_on_c, 9, 35, 79
5, 118086, Note_on_c, 9, 46, 55
5, 118132, Note_on_c, 9, 51, 68
5, 118204, Note_on_c, 9, 51, 0
5, 118232, Note_on_c, 9, 51, 88
5, 118248, Note_on_c, 9, 46, 0
5, 118300, Note_on_c, 9, 51, 0
5, 118300, Note_on_c, 9, 35, 0
5, 118394, Note_on_c, 9, 40, 35
5, 118466, Note_on_c, 9, 40, 0
5, 118518, Note_on_c, 9, 40, 41
5, 118598, Note_on_c, 9, 40, 0
5, 118616, Note_on_c, 9, 51, 98
5, 118616, Note_on_c, 9, 42, 70
5, 118652, Note_on_c, 9, 35, 73
5, 118658, Note_on_c, 9, 46, 68
5, 118680, Note_on_c, 9, 42, 0
5, 118684, Note_on_c, 9, 51, 0
5, 118812, Note_on_c, 9, 46, 0
5, 118866, Note_on_c, 9, 35, 0
5, 118896, Note_on_c, 9, 51, 68
5, 118964, Note_on_c, 9, 51, 0
5, 119000, Note_on_c, 9, 51, 88
5, 119010, Note_on_c, 9, 40, 38
5, 119068, Note_on_c, 9, 51, 0
5, 119092, Note_on_c, 9, 40, 0
5, 119140, Note_on_c, 9, 40, 39
5, 119222, Note_on_c, 9, 40, 0
5, 119266, Note_on_c, 9, 46, 69
5, 119266, Note_on_c, 9, 35, 76
5, 119384, Note_on_c, 9, 37, 60
5, 119384, Note_on_c, 9, 42, 70
5, 119388, Note_on_c, 9, 51, 98
5, 119430, Note_on_c, 9, 46, 0
5, 119448, Note_on_c, 9, 42, 0
5, 119452, Note_on_c, 9, 51, 0
5, 119452, Note_on_c, 9, 37, 0
5, 119472, Note_on_c, 9, 35, 0
5, 119676, Note_on_c, 9, 51, 68
5, 119728, Note_on_c, 9, 51, 0
5, 119768, Note_on_c, 9, 51, 88
5, 119836, Note_on_c, 9, 51, 0
5, 120152, Note_on_c, 9, 51, 98
5, 120152, Note_on_c, 9, 42, 70
5, 120216, Note_on_c, 9, 42, 0
5, 120220, Note_on_c, 9, 51, 0
5, 120430, Note_on_c, 9, 35, 26
5, 120468, Note_on_c, 9, 35, 0
5, 120536, Note_on_c, 9, 51, 88
5, 120544, Note_on_c, 9, 35, 42
5, 120604, Note_on_c, 9, 51, 0
5, 120730, Note_on_c, 9, 35, 0
5, 120814, Note_on_c, 9, 35, 36
5, 120860, Note_on_c, 9, 35, 0
5, 120920, Note_on_c, 9, 42, 70
5, 120920, Note_on_c, 9, 37, 70
5, 120924, Note_on_c, 9, 51, 98
5, 120984, Note_on_c, 9, 42, 0
5, 120988, Note_on_c, 9, 51, 0
5, 120988, Note_on_c, 9, 37, 0
5, 121304, Note_on_c, 9, 51, 88
5, 121372, Note_on_c, 9, 51, 0
5, 121688, Note_on_c, 9, 42, 70
5, 121688, Note_on_c, 9, 51, 98
5, 121752, Note_on_c, 9, 42, 0
5, 121756, Note_on_c, 9, 51, 0
5, 121962, Note_on_c, 9, 35, 60
5, 121976, Note_on_c, 9, 51, 68
5, 122014, Note_on_c, 9, 35, 0
5, 122044, Note_on_c, 9, 51, 0
5, 122072, Note_on_c, 9, 51, 88
5, 122140, Note_on_c, 9, 51, 0
5, 122456, Note_on_c, 9, 37, 70
5, 122456, Note_on_c, 9, 42, 70
5, 122460, Note_on_c, 9, 51, 98
5, 122520, Note_on_c, 9, 42, 0
5, 122520, Note_on_c, 9, 37, 0
5, 122524, Note_on_c, 9, 51, 0
5, 122722, Note_on_c, 9, 35, 41
5, 122740, Note_on_c, 9, 51, 68
5, 122758, Note_on_c, 9, 35, 0
5, 122812, Note_on_c, 9, 51, 0
5, 122840, Note_on_c, 9, 51, 88
5, 122908, Note_on_c, 9, 51, 0
5, 123224, Note_on_c, 9, 42, 70
5, 123224, Note_on_c, 9, 51, 98
5, 123288, Note_on_c, 9, 42, 0
5, 123292, Note_on_c, 9, 51, 0
5, 123504, Note_on_c, 9, 51, 68
5, 123520, Note_on_c, 9, 35, 37
5, 123560, Note_on_c, 9, 35, 0
5, 123580, Note_on_c, 9, 51, 0
5, 123608, Note_on_c, 9, 51, 88
5, 123640, Note_on_c, 9, 35, 35
5, 123676, Note_on_c, 9, 51, 0
5, 123824, Note_on_c, 9, 35, 0
5, 123896, Note_on_c, 9, 38, 20
5, 123900, Note_on_c, 9, 35, 44
5, 123940, Note_on_c, 9, 35, 0
5, 123956, Note_on_c, 9, 38, 0
5, 123992, Note_on_c, 9, 38, 40
5, 123992, Note_on_c, 9, 42, 70
5, 123992, Note_on_c, 9, 37, 70
5, 123996, Note_on_c, 9, 51, 98
5, 124056, Note_on_c, 9, 42, 0
5, 124056, Note_on_c, 9, 38, 0
5, 124060, Note_on_c, 9, 37, 0
5, 124060, Note_on_c, 9, 51, 0
5, 124284, Note_on_c, 9, 51, 68
5, 124340, Note_on_c, 9, 51, 0
5, 124376, Note_on_c, 9, 51, 88
5, 124398, Note_on_c, 9, 35, 55
5, 124430, Note_on_c, 9, 35, 0
5, 124444, Note_on_c, 9, 51, 0
5, 124760, Note_on_c, 9, 51, 108
5, 124760, Note_on_c, 9, 42, 70
5, 124824, Note_on_c, 9, 42, 0
5, 124828, Note_on_c, 9, 51, 0
5, 125144, Note_on_c, 9, 51, 88
5, 125212, Note_on_c, 9, 51, 0
5, 125432, Note_on_c, 9, 35, 68
5, 125460, Note_on_c, 9, 35, 0
5, 125528, Note_on_c, 9, 42, 70
5, 125528, Note_on_c, 9, 37, 70
5, 125532, Note_on_c, 9, 51, 108
5, 125592, Note_on_c, 9, 42, 0
5, 125596, Note_on_c, 9, 51, 0
5, 125596, Note_on_c, 9, 37, 0
5, 125908, Note_on_c, 9, 51, 88
5, 125934, Note_on_c, 9, 35, 62
5, 125968, Note_on_c, 9, 35, 0
5, 125980, Note_on_c, 9, 51, 0
5, 126296, Note_on_c, 9, 51, 108
5, 126296, Note_on_c, 9, 42, 70
5, 126360, Note_on_c, 9, 42, 0
5, 126364, Note_on_c, 9, 51, 0
5, 126680, Note_on_c, 9, 51, 88
5, 126748, Note_on_c, 9, 51, 0
5, 127064, Note_on_c, 9, 42, 70
5, 127068, Note_on_c, 9, 37, 70
5, 127068, Note_on_c, 9, 51, 108
5, 127128, Note_on_c, 9, 37, 0
5, 127128, Note_on_c, 9, 42, 0
5, 127132, Note_on_c, 9, 51, 0
5, 127448, Note_on_c, 9, 51, 88
5, 127516, Note_on_c, 9, 51, 0
5, 127832, Note_on_c, 9, 42, 70
5, 127832, Note_on_c, 9, 51, 98
5, 127896, Note_on_c, 9, 42, 0
5, 127900, Note_on_c, 9, 51, 0
5, 128116, Note_on_c, 9, 51, 68
5, 128188, Note_on_c, 9, 51, 0
5, 128216, Note_on_c, 9, 51, 88
5, 128254, Note_on_c, 9, 40, 21
5, 128284, Note_on_c, 9, 51, 0
5, 128286, Note_on_c, 9, 40, 0
5, 128494, Note_on_c, 9, 40, 40
5, 128526, Note_on_c, 9, 40, 0
5, 128600, Note_on_c, 9, 51, 98
5, 128600, Note_on_c, 9, 42, 70
5, 128600, Note_on_c, 9, 37, 70
5, 128624, Note_on_c, 9, 40, 32
5, 128662, Note_on_c, 9, 40, 0
5, 128664, Note_on_c, 9, 42, 0
5, 128668, Note_on_c, 9, 37, 0
5, 128668, Note_on_c, 9, 51, 0
5, 128856, Note_on_c, 9, 35, 55
5, 128888, Note_on_c, 9, 35, 0
5, 128888, Note_on_c, 9, 51, 68
5, 128948, Note_on_c, 9, 51, 0
5, 128988, Note_on_c, 9, 51, 88
5, 128998, Note_on_c, 9, 35, 60
5, 129052, Note_on_c, 9, 51, 0
5, 129178, Note_on_c, 9, 35, 0
5, 129252, Note_on_c, 9, 35, 41
5, 129294, Note_on_c, 9, 35, 0
5, 129368, Note_on_c, 9, 42, 70
5, 129368, Note_on_c, 9, 51, 98
5, 129432, Note_on_c, 9, 42, 0
5, 129436, Note_on_c, 9, 51, 0
5, 129752, Note_on_c, 9, 51, 88
5, 129820, Note_on_c, 9, 51, 0
5, 130136, Note_on_c, 9, 42, 70
5, 130136, Note_on_c, 9, 37, 70
5, 130140, Note_on_c, 9, 51, 98
5, 130200, Note_on_c, 9, 42, 0
5, 130204, Note_on_c, 9, 51, 0
5, 130204, Note_on_c, 9, 37, 0
5, 130520, Note_on_c, 9, 51, 88
5, 130588, Note_on_c, 9, 51, 0
5, 130900, Note_on_c, 9, 42, 70
5, 130904, Note_on_c, 9, 51, 98
5, 130968, Note_on_c, 9, 42, 0
5, 130972, Note_on_c, 9, 51, 0
5, 131188, Note_on_c, 9, 51, 68
5, 131260, Note_on_c, 9, 51, 0
5, 131288, Note_on_c, 9, 51, 88
5, 131356, Note_on_c, 9, 51, 0
5, 131672, Note_on_c, 9, 42, 70
5, 131672, Note_on_c, 9, 37, 60
5, 131676, Note_on_c, 9, 51, 98
5, 131736, Note_on_c, 9, 37, 0
5, 131736, Note_on_c, 9, 42, 0
5, 131740, Note_on_c, 9, 51, 0
5, 131956, Note_on_c, 9, 51, 68
5, 132020, Note_on_c, 9, 51, 0
5, 132056, Note_on_c, 9, 51, 88
5, 132124, Note_on_c, 9, 51, 0
5, 132440, Note_on_c, 9, 42, 70
5, 132440, Note_on_c, 9, 51, 98
5, 132500, Note_on_c, 9, 42, 0
5, 132508, Note_on_c, 9, 51, 0
5, 132824, Note_on_c, 9, 51, 88
5, 132892, Note_on_c, 9, 51, 0
5, 133208, Note_on_c, 9, 42, 70
5, 133208, Note_on_c, 9, 37, 70
5, 133210, Note_on_c, 9, 37, 57
5, 133212, Note_on_c, 9, 51, 98
5, 133236, Note_on_c, 9, 37, 0
5, 133272, Note_on_c, 9, 42, 0
5, 133276, Note_on_c, 9, 37, 0
5, 133276, Note_on_c, 9, 51, 0
5, 133484, Note_on_c, 9, 37, 79
5, 133528, Note_on_c, 9, 37, 0
5, 133592, Note_on_c, 9, 51, 88
5, 133660, Note_on_c, 9, 51, 0
5, 133722, Note_on_c, 9, 37, 74
5, 133788, Note_on_c, 9, 37, 0
5, 133976, Note_on_c, 9, 51, 108
5, 133976, Note_on_c, 9, 42, 70
5, 134010, Note_on_c, 9, 35, 46
5, 134040, Note_on_c, 9, 42, 0
5, 134044, Note_on_c, 9, 51, 0
5, 134058, Note_on_c, 9, 35, 0
5, 134258, Note_on_c, 9, 35, 69
5, 134358, Note_on_c, 9, 35, 0
5, 134360, Note_on_c, 9, 51, 88
5, 134428, Note_on_c, 9, 51, 0
5, 134444, Note_on_c, 9, 35, 48
5, 134568, Note_on_c, 9, 35, 0
5, 134744, Note_on_c, 9, 42, 70
5, 134744, Note_on_c, 9, 37, 70
5, 134748, Note_on_c, 9, 51, 108
5, 134808, Note_on_c, 9, 37, 0
5, 134808, Note_on_c, 9, 42, 0
5, 134812, Note_on_c, 9, 51, 0
5, 135066, Note_on_c, 9, 35, 24
5, 135096, Note_on_c, 9, 35, 0
5, 135128, Note_on_c, 9, 51, 88
5, 135142, Note_on_c, 9, 40, 34
5, 135176, Note_on_c, 9, 40, 0
5, 135196, Note_on_c, 9, 51, 0
5, 135334, Note_on_c, 9, 40, 45
5, 135360, Note_on_c, 9, 40, 0
5, 135512, Note_on_c, 9, 51, 98
5, 135512, Note_on_c, 9, 42, 70
5, 135532, Note_on_c, 9, 40, 48
5, 135576, Note_on_c, 9, 42, 0
5, 135580, Note_on_c, 9, 51, 0
5, 135590, Note_on_c, 9, 40, 0
5, 135620, Note_on_c, 9, 40, 32
5, 135684, Note_on_c, 9, 40, 0
5, 135804, Note_on_c, 9, 51, 68
5, 135868, Note_on_c, 9, 51, 0
5, 135896, Note_on_c, 9, 51, 88
5, 135964, Note_on_c, 9, 51, 0
5, 136158, Note_on_c, 9, 40, 42
5, 136184, Note_on_c, 9, 40, 0
5, 136188, Note_on_c, 9, 38, 20
5, 136252, Note_on_c, 9, 38, 0
5, 136280, Note_on_c, 9, 42, 70
5, 136280, Note_on_c, 9, 38, 40
5, 136284, Note_on_c, 9, 37, 70
5, 136284, Note_on_c, 9, 51, 98
5, 136322, Note_on_c, 9, 40, 46
5, 136344, Note_on_c, 9, 37, 0
5, 136344, Note_on_c, 9, 42, 0
5, 136344, Note_on_c, 9, 38, 0
5, 136348, Note_on_c, 9, 51, 0
5, 136476, Note_on_c, 9, 40, 0
5, 136572, Note_on_c, 9, 51, 68
5, 136582, Note_on_c, 9, 37, 73
5, 136636, Note_on_c, 9, 51, 0
5, 136644, Note_on_c, 9, 37, 0
5, 136664, Note_on_c, 9, 51, 88
5, 136668, Note_on_c, 9, 49, 30
5, 136714, Note_on_c, 9, 35, 44
5, 136728, Note_on_c, 9, 51, 0
5, 136732, Note_on_c, 9, 49, 0
5, 136826, Note_on_c, 9, 35, 0
5, 137048, Note_on_c, 9, 42, 70
5, 137052, Note_on_c, 9, 51, 108
5, 137108, Note_on_c, 9, 42, 0
5, 137116, Note_on_c, 9, 51, 0
5, 137432, Note_on_c, 9, 51, 88
5, 137500, Note_on_c, 9, 51, 0
5, 137816, Note_on_c, 9, 42, 70
5, 137820, Note_on_c, 9, 37, 70
5, 137820, Note_on_c, 9, 51, 108
5, 137880, Note_on_c, 9, 42, 0
5, 137884, Note_on_c, 9, 51, 0
5, 137884, Note_on_c, 9, 37, 0
5, 138200, Note_on_c, 9, 51, 88
5, 138268, Note_on_c, 9, 51, 0
5, 138584, Note_on_c, 9, 42, 70
5, 138588, Note_on_c, 9, 51, 98
5, 138648, Note_on_c, 9, 42, 0
5, 138652, Note_on_c, 9, 51, 0
5, 138968, Note_on_c, 9, 51, 88
5, 139036, Note_on_c, 9, 51, 0
5, 139240, Note_on_c, 9, 37, 28
5, 139302, Note_on_c, 9, 37, 0
5, 139352, Note_on_c, 9, 37, 70
5, 139352, Note_on_c, 9, 42, 70
5, 139356, Note_on_c, 9, 51, 98
5, 139356, Note_on_c, 9, 46, 38
5, 139370, Note_on_c, 9, 35, 49
5, 139416, Note_on_c, 9, 42, 0
5, 139420, Note_on_c, 9, 37, 0
5, 139420, Note_on_c, 9, 51, 0
5, 139492, Note_on_c, 9, 46, 0
5, 139560, Note_on_c, 9, 35, 0
5, 139634, Note_on_c, 9, 46, 78
5, 139636, Note_on_c, 9, 35, 35
5, 139678, Note_on_c, 9, 35, 0
5, 139700, Note_on_c, 9, 46, 0
5, 139736, Note_on_c, 9, 51, 88
5, 139804, Note_on_c, 9, 51, 0
5, 140120, Note_on_c, 9, 51, 98
5, 140120, Note_on_c, 9, 42, 70
5, 140184, Note_on_c, 9, 42, 0
5, 140188, Note_on_c, 9, 51, 0
5, 140412, Note_on_c, 9, 51, 68
5, 140476, Note_on_c, 9, 51, 0
5, 140500, Note_on_c, 9, 51, 88
5, 140572, Note_on_c, 9, 51, 0
5, 140798, Note_on_c, 9, 35, 28
5, 140828, Note_on_c, 9, 35, 0
5, 140888, Note_on_c, 9, 37, 70
5, 140888, Note_on_c, 9, 42, 70
5, 140892, Note_on_c, 9, 51, 98
5, 140952, Note_on_c, 9, 42, 0
5, 140952, Note_on_c, 9, 37, 0
5, 140956, Note_on_c, 9, 51, 0
5, 141156, Note_on_c, 9, 35, 58
5, 141180, Note_on_c, 9, 51, 68
5, 141190, Note_on_c, 9, 35, 0
5, 141244, Note_on_c, 9, 51, 0
5, 141266, Note_on_c, 9, 35, 57
5, 141272, Note_on_c, 9, 51, 88
5, 141340, Note_on_c, 9, 51, 0
5, 141486, Note_on_c, 9, 35, 0
5, 141656, Note_on_c, 9, 51, 98
5, 141656, Note_on_c, 9, 42, 70
5, 141720, Note_on_c, 9, 42, 0
5, 141724, Note_on_c, 9, 51, 0
5, 142040, Note_on_c, 9, 51, 88
5, 142108, Note_on_c, 9, 51, 0
5, 142424, Note_on_c, 9, 37, 70
5, 142424, Note_on_c, 9, 42, 70
5, 142428, Note_on_c, 9, 51, 98
5, 142488, Note_on_c, 9, 42, 0
5, 142488, Note_on_c, 9, 37, 0
5, 142492, Note_on_c, 9, 51, 0
5, 142808, Note_on_c, 9, 51, 88
5, 142876, Note_on_c, 9, 51, 0
5, 143192, Note_on_c, 9, 51, 98
5, 143192, Note_on_c, 9, 42, 70
5, 143256, Note_on_c, 9, 42, 0
5, 143260, Note_on_c, 9, 51, 0
5, 143484, Note_on_c, 9, 51, 68
5, 143540, Note_on_c, 9, 51, 0
5, 143576, Note_on_c, 9, 51, 88
5, 143644, Note_on_c, 9, 51, 0
5, 143710, Note_on_c, 9, 42, 57
5, 143744, Note_on_c, 9, 42, 0
5, 143956, Note_on_c, 9, 42, 64
5, 143960, Note_on_c, 9, 37, 70
5, 143960, Note_on_c, 9, 42, 70
5, 143964, Note_on_c, 9, 51, 98
5, 144000, Note_on_c, 9, 42, 0
5, 144024, Note_on_c, 9, 37, 0
5, 144024, Note_on_c, 9, 42, 0
5, 144028, Note_on_c, 9, 51, 0
5, 144222, Note_on_c, 9, 42, 68
5, 144252, Note_on_c, 9, 51, 68
5, 144274, Note_on_c, 9, 42, 0
5, 144304, Note_on_c, 9, 51, 0
5, 144344, Note_on_c, 9, 51, 88
5, 144412, Note_on_c, 9, 51, 0
5, 144474, Note_on_c, 9, 42, 69
5, 144526, Note_on_c, 9, 42, 0
5, 144598, Note_on_c, 9, 37, 55
5, 144670, Note_on_c, 9, 37, 0
5, 144728, Note_on_c, 9, 42, 70
5, 144728, Note_on_c, 9, 51, 108
5, 144752, Note_on_c, 9, 35, 47
5, 144792, Note_on_c, 9, 42, 0
5, 144796, Note_on_c, 9, 51, 0
5, 144900, Note_on_c, 9, 35, 0
5, 145020, Note_on_c, 9, 35, 50
5, 145100, Note_on_c, 9, 35, 0
5, 145108, Note_on_c, 9, 51, 88
5, 145180, Note_on_c, 9, 51, 0
5, 145496, Note_on_c, 9, 37, 70
5, 145496, Note_on_c, 9, 42, 70
5, 145500, Note_on_c, 9, 51, 108
5, 145560, Note_on_c, 9, 42, 0
5, 145560, Note_on_c, 9, 37, 0
5, 145564, Note_on_c, 9, 51, 0
5, 145880, Note_on_c, 9, 51, 88
5, 145948, Note_on_c, 9, 51, 0
5, 146264, Note_on_c, 9, 42, 70
5, 146268, Note_on_c, 9, 51, 98
5, 146328, Note_on_c, 9, 42, 0
5, 146332, Note_on_c, 9, 51, 0
5, 146548, Note_on_c, 9, 51, 68
5, 146620, Note_on_c, 9, 51, 0
5, 146648, Note_on_c, 9, 51, 88
5, 146716, Note_on_c, 9, 51, 0
5, 147032, Note_on_c, 9, 42, 70
5, 147032, Note_on_c, 9, 37, 70
5, 147036, Note_on_c, 9, 51, 98
5, 147096, Note_on_c, 9, 37, 0
5, 147096, Note_on_c, 9, 42, 0
5, 147100, Note_on_c, 9, 51, 0
5, 147316, Note_on_c, 9, 51, 68
5, 147388, Note_on_c, 9, 51, 0
5, 147416, Note_on_c, 9, 51, 88
5, 147422, Note_on_c, 9, 42, 39
5, 147454, Note_on_c, 9, 42, 0
5, 147484, Note_on_c, 9, 51, 0
5, 147542, Note_on_c, 9, 42, 40
5, 147608, Note_on_c, 9, 42, 0
5, 147672, Note_on_c, 9, 46, 68
5, 147800, Note_on_c, 9, 42, 70
5, 147804, Note_on_c, 9, 51, 98
5, 147862, Note_on_c, 9, 46, 0
5, 147864, Note_on_c, 9, 42, 0
5, 147868, Note_on_c, 9, 51, 0
5, 147998, Note_on_c, 9, 42, 46
5, 148036, Note_on_c, 9, 42, 0
5, 148088, Note_on_c, 9, 51, 68
5, 148100, Note_on_c, 9, 42, 48
5, 148148, Note_on_c, 9, 51, 0
5, 148170, Note_on_c, 9, 42, 0
5, 148184, Note_on_c, 9, 51, 88
5, 148242, Note_on_c, 9, 46, 73
5, 148252, Note_on_c, 9, 51, 0
5, 148466, Note_on_c, 9, 46, 0
5, 148476, Note_on_c, 9, 38, 60
5, 148528, Note_on_c, 9, 38, 0
5, 148550, Note_on_c, 9, 42, 36
5, 148568, Note_on_c, 9, 42, 70
5, 148572, Note_on_c, 9, 51, 98
5, 148576, Note_on_c, 9, 42, 0
5, 148632, Note_on_c, 9, 42, 0
5, 148636, Note_on_c, 9, 51, 0
5, 148664, Note_on_c, 9, 42, 46
5, 148742, Note_on_c, 9, 42, 0
5, 148790, Note_on_c, 9, 46, 71
5, 148856, Note_on_c, 9, 38, 30
5, 148860, Note_on_c, 9, 51, 68
5, 148884, Note_on_c, 9, 46, 0
5, 148916, Note_on_c, 9, 51, 0
5, 148916, Note_on_c, 9, 38, 0
5, 148952, Note_on_c, 9, 51, 88
5, 148952, Note_on_c, 9, 49, 30
5, 149016, Note_on_c, 9, 51, 0
5, 149020, Note_on_c, 9, 49, 0
5, 149192, Note_on_c, 9, 35, 40
5, 149236, Note_on_c, 9, 35, 0
5, 149336, Note_on_c, 9, 51, 108
5, 149336, Note_on_c, 9, 42, 70
5, 149346, Note_on_c, 9, 35, 33
5, 149380, Note_on_c, 9, 35, 0
5, 149400, Note_on_c, 9, 42, 0
5, 149404, Note_on_c, 9, 51, 0
5, 149720, Note_on_c, 9, 51, 88
5, 149732, Note_on_c, 9, 35, 32
5, 149788, Note_on_c, 9, 51, 0
5, 149798, Note_on_c, 9, 35, 0
5, 150100, Note_on_c, 9, 42, 70
5, 150104, Note_on_c, 9, 51, 108
5, 150104, Note_on_c, 9, 37, 70
5, 150168, Note_on_c, 9, 42, 0
5, 150172, Note_on_c, 9, 37, 0
5, 150172, Note_on_c, 9, 51, 0
5, 150394, Note_on_c, 9, 35, 61
5, 150426, Note_on_c, 9, 35, 0
5, 150488, Note_on_c, 9, 51, 88
5, 150556, Note_on_c, 9, 51, 0
5, 150872, Note_on_c, 9, 42, 70
5, 150876, Note_on_c, 9, 51, 98
5, 150936, Note_on_c, 9, 42, 0
5, 150940, Note_on_c, 9, 51, 0
5, 151256, Note_on_c, 9, 51, 88
5, 151324, Note_on_c, 9, 51, 0
5, 151640, Note_on_c, 9, 42, 70
5, 151640, Note_on_c, 9, 37, 70
5, 151644, Note_on_c, 9, 51, 98
5, 151700, Note_on_c, 9, 37, 0
5, 151700, Note_on_c, 9, 42, 0
5, 151708, Note_on_c, 9, 51, 0
5, 151908, Note_on_c, 9, 45, 85
5, 151962, Note_on_c, 9, 45, 0
5, 152024, Note_on_c, 9, 51, 88
5, 152092, Note_on_c, 9, 51, 0
5, 152408, Note_on_c, 9, 42, 70
5, 152412, Note_on_c, 9, 51, 98
5, 152432, Note_on_c, 9, 35, 46
5, 152468, Note_on_c, 9, 35, 0
5, 152472, Note_on_c, 9, 42, 0
5, 152476, Note_on_c, 9, 51, 0
5, 152696, Note_on_c, 9, 51, 68
5, 152756, Note_on_c, 9, 51, 0
5, 152796, Note_on_c, 9, 51, 88
5, 152860, Note_on_c, 9, 51, 0
5, 153058, Note_on_c, 9, 35, 42
5, 153090, Note_on_c, 9, 35, 0
5, 153172, Note_on_c, 9, 43, 63
5, 153176, Note_on_c, 9, 42, 70
5, 153180, Note_on_c, 9, 51, 98
5, 153180, Note_on_c, 9, 37, 60
5, 153210, Note_on_c, 9, 43, 0
5, 153240, Note_on_c, 9, 42, 0
5, 153244, Note_on_c, 9, 51, 0
5, 153244, Note_on_c, 9, 37, 0
5, 153436, Note_on_c, 9, 43, 105
5, 153468, Note_on_c, 9, 51, 68
5, 153520, Note_on_c, 9, 51, 0
5, 153560, Note_on_c, 9, 51, 88
5, 153578, Note_on_c, 9, 43, 0
5, 153628, Note_on_c, 9, 51, 0
5, 153944, Note_on_c, 9, 42, 70
5, 153944, Note_on_c, 9, 51, 98
5, 153946, Note_on_c, 9, 35, 26
5, 153976, Note_on_c, 9, 35, 0
5, 154008, Note_on_c, 9, 42, 0
5, 154012, Note_on_c, 9, 51, 0
5, 154328, Note_on_c, 9, 51, 88
5, 154396, Note_on_c, 9, 51, 0
5, 154608, Note_on_c, 9, 35, 35
5, 154644, Note_on_c, 9, 35, 0
5, 154708, Note_on_c, 9, 42, 70
5, 154712, Note_on_c, 9, 37, 70
5, 154716, Note_on_c, 9, 51, 98
5, 154726, Note_on_c, 9, 45, 72
5, 154760, Note_on_c, 9, 45, 0
5, 154776, Note_on_c, 9, 42, 0
5, 154776, Note_on_c, 9, 37, 0
5, 154780, Note_on_c, 9, 51, 0
5, 154984, Note_on_c, 9, 45, 108
5, 155096, Note_on_c, 9, 51, 88
5, 155130, Note_on_c, 9, 45, 0
5, 155164, Note_on_c, 9, 51, 0
5, 155480, Note_on_c, 9, 42, 70
5, 155480, Note_on_c, 9, 51, 98
5, 155510, Note_on_c, 9, 35, 38
5, 155544, Note_on_c, 9, 42, 0
5, 155548, Note_on_c, 9, 51, 0
5, 155560, Note_on_c, 9, 35, 0
5, 155764, Note_on_c, 9, 51, 68
5, 155828, Note_on_c, 9, 51, 0
5, 155864, Note_on_c, 9, 51, 88
5, 155932, Note_on_c, 9, 51, 0
5, 156170, Note_on_c, 9, 35, 28
5, 156198, Note_on_c, 9, 35, 0
5, 156248, Note_on_c, 9, 37, 60
5, 156248, Note_on_c, 9, 42, 70
5, 156252, Note_on_c, 9, 51, 98
5, 156262, Note_on_c, 9, 45, 74
5, 156308, Note_on_c, 9, 42, 0
5, 156308, Note_on_c, 9, 37, 0
5, 156316, Note_on_c, 9, 51, 0
5, 156434, Note_on_c, 9, 45, 0
5, 156532, Note_on_c, 9, 51, 68
5, 156596, Note_on_c, 9, 51, 0
5, 156632, Note_on_c, 9, 51, 88
5, 156700, Note_on_c, 9, 51, 0
5, 157016, Note_on_c, 9, 51, 108
5, 157016, Note_on_c, 9, 42, 70
5, 157036, Note_on_c, 9, 35, 24
5, 157078, Note_on_c, 9, 35, 0
5, 157080, Note_on_c, 9, 42, 0
5, 157084, Note_on_c, 9, 51, 0
5, 157400, Note_on_c, 9, 51, 88
5, 157468, Note_on_c, 9, 51, 0
5, 157784, Note_on_c, 9, 37, 70
5, 157784, Note_on_c, 9, 42, 70
5, 157788, Note_on_c, 9, 51, 108
5, 157848, Note_on_c, 9, 42, 0
5, 157848, Note_on_c, 9, 37, 0
5, 157852, Note_on_c, 9, 51, 0
5, 158168, Note_on_c, 9, 51, 88
5, 158236, Note_on_c, 9, 51, 0
5, 158552, Note_on_c, 9, 51, 98
5, 158552, Note_on_c, 9, 42, 70
5, 158616, Note_on_c, 9, 42, 0
5, 158620, Note_on_c, 9, 51, 0
5, 158836, Note_on_c, 9, 51, 68
5, 158896, Note_on_c, 9, 51, 0
5, 158936, Note_on_c, 9, 51, 88
5, 159004, Note_on_c, 9, 51, 0
5, 159320, Note_on_c, 9, 42, 70
5, 159320, Note_on_c, 9, 37, 60
5, 159324, Note_on_c, 9, 51, 98
5, 159384, Note_on_c, 9, 37, 0
5, 159384, Note_on_c, 9, 42, 0
5, 159388, Note_on_c, 9, 51, 0
5, 159604, Note_on_c, 9, 51, 68
5, 159676, Note_on_c, 9, 51, 0
5, 159700, Note_on_c, 9, 51, 88
5, 159772, Note_on_c, 9, 51, 0
5, 160088, Note_on_c, 9, 51, 98
5, 160088, Note_on_c, 9, 42, 70
5, 160152, Note_on_c, 9, 42, 0
5, 160156, Note_on_c, 9, 51, 0
5, 160380, Note_on_c, 9, 51, 68
5, 160444, Note_on_c, 9, 51, 0
5, 160472, Note_on_c, 9, 51, 88
5, 160540, Note_on_c, 9, 51, 0
5, 160756, Note_on_c, 9, 38, 60
5, 160828, Note_on_c, 9, 38, 0
5, 160856, Note_on_c, 9, 42, 70
5, 160860, Note_on_c, 9, 51, 98
5, 160920, Note_on_c, 9, 42, 0
5, 160924, Note_on_c, 9, 51, 0
5, 161132, Note_on_c, 9, 37, 64
5, 161140, Note_on_c, 9, 38, 30
5, 161140, Note_on_c, 9, 51, 68
5, 161208, Note_on_c, 9, 38, 0
5, 161212, Note_on_c, 9, 51, 0
5, 161236, Note_on_c, 9, 37, 0
5, 161240, Note_on_c, 9, 51, 88
5, 161276, Note_on_c, 9, 35, 44
5, 161308, Note_on_c, 9, 51, 0
5, 161470, Note_on_c, 9, 35, 0
5, 161624, Note_on_c, 9, 42, 70
5, 161628, Note_on_c, 9, 51, 108
5, 161688, Note_on_c, 9, 42, 0
5, 161692, Note_on_c, 9, 51, 0
5, 162012, Note_on_c, 9, 51, 88
5, 162076, Note_on_c, 9, 51, 0
5, 162382, Note_on_c, 9, 37, 69
5, 162392, Note_on_c, 9, 37, 70
5, 162392, Note_on_c, 9, 42, 70
5, 162396, Note_on_c, 9, 51, 108
5, 162456, Note_on_c, 9, 42, 0
5, 162456, Note_on_c, 9, 37, 0
5, 162460, Note_on_c, 9, 51, 0
5, 162474, Note_on_c, 9, 37, 0
5, 162776, Note_on_c, 9, 51, 88
5, 162844, Note_on_c, 9, 51, 0
5, 163156, Note_on_c, 9, 37, 74
5, 163160, Note_on_c, 9, 42, 70
5, 163160, Note_on_c, 9, 51, 98
5, 163224, Note_on_c, 9, 42, 0
5, 163228, Note_on_c, 9, 51, 0
5, 163274, Note_on_c, 9, 37, 0
5, 163544, Note_on_c, 9, 51, 88
5, 163612, Note_on_c, 9, 51, 0
5, 163928, Note_on_c, 9, 42, 70
5, 163928, Note_on_c, 9, 37, 70
5, 163932, Note_on_c, 9, 51, 98
5, 163936, Note_on_c, 9, 37, 84
5, 163992, Note_on_c, 9, 42, 0
5, 163996, Note_on_c, 9, 37, 0
5, 163996, Note_on_c, 9, 51, 0
5, 164078, Note_on_c, 9, 37, 0
5, 164308, Note_on_c, 9, 51, 88
5, 164380, Note_on_c, 9, 51, 0
5, 164696, Note_on_c, 9, 42, 70
5, 164696, Note_on_c, 9, 37, 77
5, 164696, Note_on_c, 9, 51, 98
5, 164760, Note_on_c, 9, 42, 0
5, 164764, Note_on_c, 9, 51, 0
5, 164890, Note_on_c, 9, 37, 0
5, 164988, Note_on_c, 9, 51, 68
5, 165052, Note_on_c, 9, 51, 0
5, 165080, Note_on_c, 9, 51, 88
5, 165148, Note_on_c, 9, 51, 0
5, 165446, Note_on_c, 9, 37, 77
5, 165464, Note_on_c, 9, 37, 70
5, 165464, Note_on_c, 9, 42, 70
5, 165464, Note_on_c, 9, 51, 98
5, 165528, Note_on_c, 9, 42, 0
5, 165528, Note_on_c, 9, 37, 0
5, 165532, Note_on_c, 9, 51, 0
5, 165590, Note_on_c, 9, 37, 0
5, 165748, Note_on_c, 9, 51, 68
5, 165820, Note_on_c, 9, 51, 0
5, 165848, Note_on_c, 9, 51, 88
5, 165916, Note_on_c, 9, 51, 0
5, 166232, Note_on_c, 9, 42, 70
5, 166236, Note_on_c, 9, 51, 98
5, 166296, Note_on_c, 9, 42, 0
5, 166300, Note_on_c, 9, 51, 0
5, 166516, Note_on_c, 9, 51, 68
5, 166588, Note_on_c, 9, 51, 0
5, 166616, Note_on_c, 9, 51, 88
5, 166684, Note_on_c, 9, 51, 0
5, 167000, Note_on_c, 9, 37, 70
5, 167000, Note_on_c, 9, 42, 70
5, 167004, Note_on_c, 9, 51, 98
5, 167064, Note_on_c, 9, 42, 0
5, 167068, Note_on_c, 9, 51, 0
5, 167068, Note_on_c, 9, 37, 0
5, 167288, Note_on_c, 9, 51, 68
5, 167348, Note_on_c, 9, 51, 0
5, 167384, Note_on_c, 9, 51, 88
5, 167452, Note_on_c, 9, 51, 0
5, 167768, Note_on_c, 9, 42, 70
5, 167772, Note_on_c, 9, 51, 98
5, 167832, Note_on_c, 9, 42, 0
5, 167836, Note_on_c, 9, 51, 0
5, 168060, Note_on_c, 9, 51, 68
5, 168116, Note_on_c, 9, 51, 0
5, 168152, Note_on_c, 9, 51, 88
5, 168220, Note_on_c, 9, 51, 0
5, 168536, Note_on_c, 9, 37, 70
5, 168536, Note_on_c, 9, 42, 70
5, 168540, Note_on_c, 9, 51, 98
5, 168600, Note_on_c, 9, 42, 0
5, 168600, Note_on_c, 9, 37, 0
5, 168604, Note_on_c, 9, 51, 0
5, 168828, Note_on_c, 9, 51, 68
5, 168888, Note_on_c, 9, 51, 0
5, 168920, Note_on_c, 9, 51, 88
5, 168988, Note_on_c, 9, 51, 0
5, 169300, Note_on_c, 9, 37, 83
5, 169300, Note_on_c, 9, 42, 70
5, 169304, Note_on_c, 9, 51, 98
5, 169368, Note_on_c, 9, 42, 0
5, 169372, Note_on_c, 9, 51, 0
5, 169428, Note_on_c, 9, 37, 0
5, 169688, Note_on_c, 9, 51, 88
5, 169756, Note_on_c, 9, 51, 0
5, 170072, Note_on_c, 9, 37, 70
5, 170072, Note_on_c, 9, 42, 70
5, 170076, Note_on_c, 9, 51, 98
5, 170136, Note_on_c, 9, 42, 0
5, 170136, Note_on_c, 9, 37, 0
5, 170140, Note_on_c, 9, 51, 0
5, 170456, Note_on_c, 9, 51, 88
5, 170524, Note_on_c, 9, 51, 0
5, 170840, Note_on_c, 9, 42, 70
5, 170844, Note_on_c, 9, 51, 98
5, 170848, Note_on_c, 9, 37, 90
5, 170900, Note_on_c, 9, 42, 0
5, 170908, Note_on_c, 9, 51, 0
5, 170976, Note_on_c, 9, 37, 0
5, 171124, Note_on_c, 9, 51, 68
5, 171196, Note_on_c, 9, 51, 0
5, 171224, Note_on_c, 9, 51, 88
5, 171292, Note_on_c, 9, 51, 0
5, 171608, Note_on_c, 9, 42, 70
5, 171612, Note_on_c, 9, 37, 70
5, 171612, Note_on_c, 9, 51, 98
5, 171672, Note_on_c, 9, 37, 0
5, 171672, Note_on_c, 9, 42, 0
5, 171676, Note_on_c, 9, 51, 0
5, 171896, Note_on_c, 9, 51, 68
5, 171956, Note_on_c, 9, 51, 0
5, 171992, Note_on_c, 9, 51, 88
5, 172060, Note_on_c, 9, 51, 0
5, 172376, Note_on_c, 9, 42, 70
5, 172380, Note_on_c, 9, 51, 98
5, 172392, Note_on_c, 9, 37, 88
5, 172440, Note_on_c, 9, 42, 0
5, 172444, Note_on_c, 9, 51, 0
5, 172510, Note_on_c, 9, 37, 0
5, 172668, Note_on_c, 9, 51, 68
5, 172724, Note_on_c, 9, 51, 0
5, 172760, Note_on_c, 9, 51, 88
5, 172828, Note_on_c, 9, 51, 0
5, 173052, Note_on_c, 9, 38, 20
5, 173104, Note_on_c, 9, 38, 0
5, 173144, Note_on_c, 9, 42, 70
5, 173144, Note_on_c, 9, 38, 40
5, 173148, Note_on_c, 9, 37, 70
5, 173148, Note_on_c, 9, 51, 98
5, 173208, Note_on_c, 9, 38, 0
5, 173208, Note_on_c, 9, 42, 0
5, 173212, Note_on_c, 9, 37, 0
5, 173212, Note_on_c, 9, 51, 0
5, 173424, Note_on_c, 9, 35, 75
5, 173436, Note_on_c, 9, 51, 68
5, 173480, Note_on_c, 9, 35, 0
5, 173496, Note_on_c, 9, 51, 0
5, 173528, Note_on_c, 9, 51, 88
5, 173532, Note_on_c, 9, 49, 30
5, 173592, Note_on_c, 9, 51, 0
5, 173596, Note_on_c, 9, 49, 0
5, 173908, Note_on_c, 9, 42, 70
5, 173912, Note_on_c, 9, 51, 108
5, 173976, Note_on_c, 9, 42, 0
5, 173980, Note_on_c, 9, 51, 0
5, 174296, Note_on_c, 9, 51, 88
5, 174364, Note_on_c, 9, 51, 0
5, 174680, Note_on_c, 9, 37, 70
5, 174680, Note_on_c, 9, 42, 70
5, 174684, Note_on_c, 9, 51, 108
5, 174744, Note_on_c, 9, 42, 0
5, 174744, Note_on_c, 9, 37, 0
5, 174748, Note_on_c, 9, 51, 0
5, 175064, Note_on_c, 9, 51, 88
5, 175132, Note_on_c, 9, 51, 0
5, 175448, Note_on_c, 9, 42, 70
5, 175448, Note_on_c, 9, 51, 98
5, 175466, Note_on_c, 9, 37, 90
5, 175508, Note_on_c, 9, 42, 0
5, 175516, Note_on_c, 9, 51, 0
5, 175584, Note_on_c, 9, 37, 0
5, 175832, Note_on_c, 9, 51, 88
5, 175900, Note_on_c, 9, 51, 0
5, 176216, Note_on_c, 9, 42, 70
5, 176216, Note_on_c, 9, 37, 70
5, 176220, Note_on_c, 9, 51, 98
5, 176280, Note_on_c, 9, 42, 0
5, 176284, Note_on_c, 9, 51, 0
5, 176284, Note_on_c, 9, 37, 0
5, 176600, Note_on_c, 9, 51, 88
5, 176668, Note_on_c, 9, 51, 0
5, 176984, Note_on_c, 9, 51, 108
5, 176984, Note_on_c, 9, 42, 70
5, 176998, Note_on_c, 9, 37, 87
5, 177048, Note_on_c, 9, 42, 0
5, 177052, Note_on_c, 9, 51, 0
5, 177108, Note_on_c, 9, 37, 0
5, 177368, Note_on_c, 9, 51, 88
5, 177436, Note_on_c, 9, 51, 0
5, 177634, Note_on_c, 9, 35, 74
5, 177696, Note_on_c, 9, 35, 0
5, 177746, Note_on_c, 9, 35, 70
5, 177752, Note_on_c, 9, 42, 70
5, 177752, Note_on_c, 9, 37, 70
5, 177756, Note_on_c, 9, 51, 108
5, 177816, Note_on_c, 9, 42, 0
5, 177820, Note_on_c, 9, 35, 0
5, 177820, Note_on_c, 9, 37, 0
5, 177820, Note_on_c, 9, 51, 0
5, 178136, Note_on_c, 9, 51, 88
5, 178204, Note_on_c, 9, 51, 0
5, 178518, Note_on_c, 9, 37, 86
5, 178520, Note_on_c, 9, 51, 98
5, 178520, Note_on_c, 9, 42, 70
5, 178584, Note_on_c, 9, 42, 0
5, 178588, Note_on_c, 9, 51, 0
5, 178590, Note_on_c, 9, 37, 0
5, 178904, Note_on_c, 9, 51, 88
5, 178972, Note_on_c, 9, 51, 0
5, 179288, Note_on_c, 9, 37, 70
5, 179288, Note_on_c, 9, 42, 70
5, 179292, Note_on_c, 9, 51, 98
5, 179352, Note_on_c, 9, 42, 0
5, 179352, Note_on_c, 9, 37, 0
5, 179356, Note_on_c, 9, 51, 0
5, 179672, Note_on_c, 9, 51, 88
5, 179740, Note_on_c, 9, 51, 0
5, 180056, Note_on_c, 9, 51, 98
5, 180056, Note_on_c, 9, 42, 70
5, 180072, Note_on_c, 9, 37, 92
5, 180120, Note_on_c, 9, 42, 0
5, 180124, Note_on_c, 9, 51, 0
5, 180148, Note_on_c, 9, 37, 0
5, 180340, Note_on_c, 9, 51, 68
5, 180404, Note_on_c, 9, 51, 0
5, 180440, Note_on_c, 9, 51, 88
5, 180508, Note_on_c, 9, 51, 0
5, 180728, Note_on_c, 9, 35, 71
5, 180792, Note_on_c, 9, 35, 0
5, 180824, Note_on_c, 9, 42, 70
5, 180828, Note_on_c, 9, 51, 98
5, 180828, Note_on_c, 9, 37, 60
5, 180840, Note_on_c, 9, 35, 80
5, 180888, Note_on_c, 9, 37, 0
5, 180888, Note_on_c, 9, 42, 0
5, 180892, Note_on_c, 9, 51, 0
5, 180948, Note_on_c, 9, 35, 0
5, 181104, Note_on_c, 9, 51, 68
5, 181172, Note_on_c, 9, 51, 0
5, 181208, Note_on_c, 9, 51, 88
5, 181276, Note_on_c, 9, 51, 0
5, 181592, Note_on_c, 9, 42, 70
5, 181592, Note_on_c, 9, 51, 98
5, 181600, Note_on_c, 9, 37, 86
5, 181656, Note_on_c, 9, 42, 0
5, 181660, Note_on_c, 9, 51, 0
5, 181672, Note_on_c, 9, 37, 0
5, 181884, Note_on_c, 9, 51, 68
5, 181940, Note_on_c, 9, 51, 0
5, 181976, Note_on_c, 9, 51, 88
5, 182044, Note_on_c, 9, 51, 0
5, 182360, Note_on_c, 9, 37, 70
5, 182360, Note_on_c, 9, 42, 70
5, 182364, Note_on_c, 9, 51, 98
5, 182424, Note_on_c, 9, 42, 0
5, 182424, Note_on_c, 9, 37, 0
5, 182428, Note_on_c, 9, 51, 0
5, 182652, Note_on_c, 9, 51, 68
5, 182704, Note_on_c, 9, 51, 0
5, 182744, Note_on_c, 9, 51, 88
5, 182812, Note_on_c, 9, 51, 0
5, 183128, Note_on_c, 9, 42, 70
5, 183128, Note_on_c, 9, 51, 108
5, 183142, Note_on_c, 9, 37, 90
5, 183192, Note_on_c, 9, 42, 0
5, 183196, Note_on_c, 9, 51, 0
5, 183226, Note_on_c, 9, 37, 0
5, 183508, Note_on_c, 9, 51, 88
5, 183580, Note_on_c, 9, 51, 0
5, 183896, Note_on_c, 9, 37, 70
5, 183896, Note_on_c, 9, 42, 70
5, 183900, Note_on_c, 9, 51, 108
5, 183960, Note_on_c, 9, 42, 0
5, 183960, Note_on_c, 9, 37, 0
5, 183964, Note_on_c, 9, 51, 0
5, 184280, Note_on_c, 9, 51, 88
5, 184348, Note_on_c, 9, 51, 0
5, 184650, Note_on_c, 9, 40, 37
5, 184664, Note_on_c, 9, 42, 70
5, 184668, Note_on_c, 9, 51, 98
5, 184728, Note_on_c, 9, 42, 0
5, 184732, Note_on_c, 9, 51, 0
5, 184770, Note_on_c, 9, 40, 0
5, 184948, Note_on_c, 9, 51, 68
5, 185020, Note_on_c, 9, 51, 0
5, 185034, Note_on_c, 9, 40, 55
5, 185048, Note_on_c, 9, 51, 88
5, 185116, Note_on_c, 9, 51, 0
5, 185194, Note_on_c, 9, 40, 0
5, 185298, Note_on_c, 9, 40, 48
5, 185332, Note_on_c, 9, 38, 20
5, 185358, Note_on_c, 9, 40, 0
5, 185404, Note_on_c, 9, 38, 0
5, 185432, Note_on_c, 9, 42, 70
5, 185432, Note_on_c, 9, 38, 40
5, 185432, Note_on_c, 9, 37, 70
5, 185436, Note_on_c, 9, 51, 98
5, 185496, Note_on_c, 9, 38, 0
5, 185496, Note_on_c, 9, 42, 0
5, 185500, Note_on_c, 9, 37, 0
5, 185500, Note_on_c, 9, 51, 0
5, 185692, Note_on_c, 9, 37, 58
5, 185716, Note_on_c, 9, 51, 68
5, 185778, Note_on_c, 9, 37, 0
5, 185788, Note_on_c, 9, 51, 0
5, 185800, Note_on_c, 9, 57, 33
5, 185816, Note_on_c, 9, 35, 64
5, 185820, Note_on_c, 9, 51, 88
5, 185884, Note_on_c, 9, 51, 0
5, 186200, Note_on_c, 9, 42, 70
5, 186200, Note_on_c, 9, 51, 98
5, 186264, Note_on_c, 9, 42, 0
5, 186268, Note_on_c, 9, 51, 0
5, 186488, Note_on_c, 9, 51, 68
5, 186544, Note_on_c, 9, 51, 0
5, 186584, Note_on_c, 9, 51, 88
5, 186652, Note_on_c, 9, 51, 0
5, 186738, Note_on_c, 9, 57, 0
5, 186834, Note_on_c, 9, 35, 0
5, 186866, Note_on_c, 9, 37, 26
5, 186902, Note_on_c, 9, 37, 0
5, 186968, Note_on_c, 9, 42, 70
5, 186972, Note_on_c, 9, 51, 98
5, 186972, Note_on_c, 9, 37, 60
5, 186980, Note_on_c, 9, 35, 80
5, 187032, Note_on_c, 9, 37, 0
5, 187032, Note_on_c, 9, 42, 0
5, 187036, Note_on_c, 9, 51, 0
5, 187200, Note_on_c, 9, 35, 0
5, 187248, Note_on_c, 9, 35, 88
5, 187260, Note_on_c, 9, 51, 68
5, 187316, Note_on_c, 9, 51, 0
5, 187352, Note_on_c, 9, 51, 88
5, 187408, Note_on_c, 9, 35, 0
5, 187420, Note_on_c, 9, 51, 0
5, 187736, Note_on_c, 9, 51, 98
5, 187736, Note_on_c, 9, 42, 70
5, 187800, Note_on_c, 9, 42, 0
5, 187804, Note_on_c, 9, 51, 0
5, 188120, Note_on_c, 9, 51, 88
5, 188188, Note_on_c, 9, 51, 0
5, 188500, Note_on_c, 9, 42, 70
5, 188500, Note_on_c, 9, 37, 70
5, 188508, Note_on_c, 9, 51, 98
5, 188568, Note_on_c, 9, 42, 0
5, 188572, Note_on_c, 9, 51, 0
5, 188572, Note_on_c, 9, 37, 0
5, 188888, Note_on_c, 9, 51, 88
5, 188956, Note_on_c, 9, 51, 0
5, 189272, Note_on_c, 9, 42, 70
5, 189276, Note_on_c, 9, 51, 98
5, 189336, Note_on_c, 9, 42, 0
5, 189340, Note_on_c, 9, 51, 0
5, 189556, Note_on_c, 9, 51, 68
5, 189628, Note_on_c, 9, 51, 0
5, 189656, Note_on_c, 9, 51, 88
5, 189724, Note_on_c, 9, 51, 0
5, 190040, Note_on_c, 9, 42, 70
5, 190040, Note_on_c, 9, 37, 70
5, 190044, Note_on_c, 9, 51, 98
5, 190100, Note_on_c, 9, 37, 0
5, 190100, Note_on_c, 9, 42, 0
5, 190108, Note_on_c, 9, 51, 0
5, 190324, Note_on_c, 9, 51, 68
5, 190396, Note_on_c, 9, 51, 0
5, 190424, Note_on_c, 9, 51, 88
5, 190492, Note_on_c, 9, 51, 0
5, 190808, Note_on_c, 9, 42, 70
5, 190812, Note_on_c, 9, 51, 98
5, 190872, Note_on_c, 9, 42, 0
5, 190876, Note_on_c, 9, 51, 0
5, 191096, Note_on_c, 9, 51, 68
5, 191156, Note_on_c, 9, 51, 0
5, 191192, Note_on_c, 9, 51, 88
5, 191260, Note_on_c, 9, 51, 0
5, 191576, Note_on_c, 9, 37, 70
5, 191576, Note_on_c, 9, 42, 70
5, 191580, Note_on_c, 9, 51, 98
5, 191640, Note_on_c, 9, 42, 0
5, 191640, Note_on_c, 9, 37, 0
5, 191644, Note_on_c, 9, 51, 0
5, 191752, Note_on_c, 9, 37, 55
5, 191782, Note_on_c, 9, 37, 0
5, 191868, Note_on_c, 9, 51, 68
5, 191924, Note_on_c, 9, 51, 0
5, 191960, Note_on_c, 9, 51, 88
5, 192010, Note_on_c, 9, 37, 62
5, 192028, Note_on_c, 9, 51, 0
5, 192042, Note_on_c, 9, 37, 0
5, 192266, Note_on_c, 9, 37, 60
5, 192320, Note_on_c, 9, 37, 0
5, 192344, Note_on_c, 9, 42, 70
5, 192344, Note_on_c, 9, 51, 98
5, 192408, Note_on_c, 9, 42, 0
5, 192412, Note_on_c, 9, 51, 0
5, 192516, Note_on_c, 9, 37, 53
5, 192566, Note_on_c, 9, 37, 0
5, 192636, Note_on_c, 9, 51, 68
5, 192646, Note_on_c, 9, 35, 58
5, 192696, Note_on_c, 9, 51, 0
5, 192698, Note_on_c, 9, 35, 0
5, 192728, Note_on_c, 9, 51, 88
5, 192770, Note_on_c, 9, 37, 57
5, 192796, Note_on_c, 9, 51, 0
5, 192912, Note_on_c, 9, 37, 0
5, 192996, Note_on_c, 9, 37, 51
5, 193048, Note_on_c, 9, 37, 0
5, 193108, Note_on_c, 9, 42, 70
5, 193112, Note_on_c, 9, 51, 98
5, 193112, Note_on_c, 9, 37, 70
5, 193176, Note_on_c, 9, 37, 0
5, 193176, Note_on_c, 9, 42, 0
5, 193180, Note_on_c, 9, 51, 0
5, 193242, Note_on_c, 9, 37, 57
5, 193294, Note_on_c, 9, 37, 0
5, 193366, Note_on_c, 9, 35, 64
5, 193404, Note_on_c, 9, 51, 68
5, 193450, Note_on_c, 9, 35, 0
5, 193468, Note_on_c, 9, 51, 0
5, 193496, Note_on_c, 9, 51, 88
5, 193564, Note_on_c, 9, 51, 0
5, 193880, Note_on_c, 9, 51, 108
5, 193880, Note_on_c, 9, 42, 70
5, 193944, Note_on_c, 9, 42, 0
5, 193948, Note_on_c, 9, 51, 0
5, 194264, Note_on_c, 9, 51, 88
5, 194332, Note_on_c, 9, 51, 0
5, 194648, Note_on_c, 9, 42, 70
5, 194652, Note_on_c, 9, 37, 70
5, 194652, Note_on_c, 9, 51, 108
5, 194708, Note_on_c, 9, 37, 0
5, 194708, Note_on_c, 9, 42, 0
5, 194720, Note_on_c, 9, 51, 0
5, 195032, Note_on_c, 9, 51, 88
5, 195052, Note_on_c, 9, 40, 30
5, 195092, Note_on_c, 9, 40, 0
5, 195100, Note_on_c, 9, 51, 0
5, 195166, Note_on_c, 9, 40, 39
5, 195234, Note_on_c, 9, 40, 0
5, 195294, Note_on_c, 9, 35, 61
5, 195380, Note_on_c, 9, 35, 0
5, 195416, Note_on_c, 9, 42, 70
5, 195420, Note_on_c, 9, 51, 98
5, 195480, Note_on_c, 9, 42, 0
5, 195484, Note_on_c, 9, 51, 0
5, 195568, Note_on_c, 9, 40, 26
5, 195606, Note_on_c, 9, 40, 0
5, 195666, Note_on_c, 9, 40, 38
5, 195696, Note_on_c, 9, 51, 68
5, 195722, Note_on_c, 9, 40, 0
5, 195772, Note_on_c, 9, 51, 0
5, 195796, Note_on_c, 9, 35, 55
5, 195800, Note_on_c, 9, 51, 88
5, 195868, Note_on_c, 9, 51, 0
5, 195942, Note_on_c, 9, 35, 0
5, 196184, Note_on_c, 9, 42, 70
5, 196184, Note_on_c, 9, 37, 70
5, 196188, Note_on_c, 9, 51, 98
5, 196248, Note_on_c, 9, 37, 0
5, 196248, Note_on_c, 9, 42, 0
5, 196252, Note_on_c, 9, 51, 0
5, 196476, Note_on_c, 9, 51, 68
5, 196532, Note_on_c, 9, 51, 0
5, 196568, Note_on_c, 9, 51, 88
5, 196592, Note_on_c, 9, 40, 21
5, 196636, Note_on_c, 9, 40, 0
5, 196636, Note_on_c, 9, 51, 0
5, 196726, Note_on_c, 9, 40, 15
5, 196762, Note_on_c, 9, 40, 0
5, 196944, Note_on_c, 9, 40, 24
5, 196952, Note_on_c, 9, 42, 70
5, 196952, Note_on_c, 9, 51, 98
5, 197014, Note_on_c, 9, 40, 0
5, 197016, Note_on_c, 9, 42, 0
5, 197020, Note_on_c, 9, 51, 0
5, 197222, Note_on_c, 9, 40, 26
5, 197244, Note_on_c, 9, 51, 68
5, 197260, Note_on_c, 9, 40, 0
5, 197296, Note_on_c, 9, 51, 0
5, 197336, Note_on_c, 9, 51, 88
5, 197354, Note_on_c, 9, 40, 33
5, 197386, Note_on_c, 9, 40, 0
5, 197404, Note_on_c, 9, 51, 0
5, 197628, Note_on_c, 9, 38, 20
5, 197688, Note_on_c, 9, 38, 0
5, 197720, Note_on_c, 9, 38, 40
5, 197720, Note_on_c, 9, 42, 70
5, 197724, Note_on_c, 9, 37, 70
5, 197724, Note_on_c, 9, 51, 98
5, 197744, Note_on_c, 9, 40, 33
5, 197778, Note_on_c, 9, 40, 0
5, 197784, Note_on_c, 9, 38, 0
5, 197784, Note_on_c, 9, 42, 0
5, 197788, Note_on_c, 9, 37, 0
5, 197788, Note_on_c, 9, 51, 0
5, 197986, Note_on_c, 9, 37, 48
5, 198012, Note_on_c, 9, 51, 68
5, 198068, Note_on_c, 9, 37, 0
5, 198076, Note_on_c, 9, 51, 0
5, 198100, Note_on_c, 9, 51, 88
5, 198102, Note_on_c, 9, 57, 24
5, 198104, Note_on_c, 9, 49, 30
5, 198114, Note_on_c, 9, 35, 53
5, 198168, Note_on_c, 9, 51, 0
5, 198172, Note_on_c, 9, 49, 0
5, 198488, Note_on_c, 9, 42, 70
5, 198492, Note_on_c, 9, 51, 108
5, 198552, Note_on_c, 9, 42, 0
5, 198556, Note_on_c, 9, 51, 0
5, 198872, Note_on_c, 9, 51, 88
5, 198940, Note_on_c, 9, 51, 0
5, 198980, Note_on_c, 9, 57, 0
5, 199066, Note_on_c, 9, 35, 0
5, 199126, Note_on_c, 9, 37, 29
5, 199182, Note_on_c, 9, 37, 0
5, 199240, Note_on_c, 9, 35, 53
5, 199256, Note_on_c, 9, 42, 70
5, 199256, Note_on_c, 9, 37, 70
5, 199256, Note_on_c, 9, 51, 108
5, 199320, Note_on_c, 9, 37, 0
5, 199320, Note_on_c, 9, 42, 0
5, 199324, Note_on_c, 9, 51, 0
5, 199330, Note_on_c, 9, 35, 0
5, 199510, Note_on_c, 9, 57, 33
5, 199524, Note_on_c, 9, 35, 54
5, 199580, Note_on_c, 9, 57, 0
5, 199622, Note_on_c, 9, 35, 0
5, 199640, Note_on_c, 9, 51, 88
5, 199708, Note_on_c, 9, 51, 0
5, 199750, Note_on_c, 9, 35, 59
5, 199752, Note_on_c, 9, 57, 28
5, 199850, Note_on_c, 9, 57, 0
5, 199916, Note_on_c, 9, 35, 0
5, 200024, Note_on_c, 9, 42, 70
5, 200024, Note_on_c, 9, 51, 108
5, 200088, Note_on_c, 9, 42, 0
5, 200092, Note_on_c, 9, 51, 0
5, 200408, Note_on_c, 9, 51, 88
5, 200476, Note_on_c, 9, 51, 0
5, 200792, Note_on_c, 9, 42, 70
5, 200792, Note_on_c, 9, 37, 70
5, 200796, Note_on_c, 9, 51, 108
5, 200856, Note_on_c, 9, 42, 0
5, 200860, Note_on_c, 9, 51, 0
5, 200860, Note_on_c, 9, 37, 0
5, 201176, Note_on_c, 9, 51, 88
5, 201244, Note_on_c, 9, 51, 0
5, 201560, Note_on_c, 9, 42, 70
5, 201560, Note_on_c, 9, 51, 98
5, 201624, Note_on_c, 9, 42, 0
5, 201628, Note_on_c, 9, 51, 0
5, 201844, Note_on_c, 9, 51, 68
5, 201904, Note_on_c, 9, 51, 0
5, 201932, Note_on_c, 9, 35, 41
5, 201944, Note_on_c, 9, 51, 88
5, 201974, Note_on_c, 9, 35, 0
5, 202012, Note_on_c, 9, 51, 0
5, 202042, Note_on_c, 9, 35, 55
5, 202112, Note_on_c, 9, 35, 0
5, 202328, Note_on_c, 9, 37, 60
5, 202328, Note_on_c, 9, 42, 70
5, 202332, Note_on_c, 9, 51, 98
5, 202392, Note_on_c, 9, 42, 0
5, 202396, Note_on_c, 9, 51, 0
5, 202396, Note_on_c, 9, 37, 0
5, 202612, Note_on_c, 9, 51, 68
5, 202684, Note_on_c, 9, 51, 0
5, 202712, Note_on_c, 9, 51, 88
5, 202716, Note_on_c, 9, 35, 42
5, 202750, Note_on_c, 9, 35, 0
5, 202780, Note_on_c, 9, 51, 0
5, 202816, Note_on_c, 9, 35, 64
5, 202860, Note_on_c, 9, 35, 0
5, 203096, Note_on_c, 9, 42, 70
5, 203096, Note_on_c, 9, 51, 108
5, 203160, Note_on_c, 9, 42, 0
5, 203164, Note_on_c, 9, 51, 0
5, 203358, Note_on_c, 9, 35, 55
5, 203386, Note_on_c, 9, 35, 0
5, 203480, Note_on_c, 9, 51, 88
5, 203548, Note_on_c, 9, 51, 0
5, 203620, Note_on_c, 9, 35, 79
5, 203650, Note_on_c, 9, 35, 0
5, 203778, Note_on_c, 9, 35, 32
5, 203810, Note_on_c, 9, 35, 0
5, 203864, Note_on_c, 9, 37, 70
5, 203864, Note_on_c, 9, 42, 70
5, 203868, Note_on_c, 9, 51, 108
5, 203902, Note_on_c, 9, 35, 67
5, 203928, Note_on_c, 9, 42, 0
5, 203928, Note_on_c, 9, 37, 0
5, 203932, Note_on_c, 9, 51, 0
5, 203990, Note_on_c, 9, 35, 0
5, 204134, Note_on_c, 9, 35, 64
5, 204166, Note_on_c, 9, 35, 0
5, 204248, Note_on_c, 9, 51, 88
5, 204316, Note_on_c, 9, 51, 0
5, 204632, Note_on_c, 9, 51, 98
5, 204632, Note_on_c, 9, 42, 70
5, 204696, Note_on_c, 9, 42, 0
5, 204700, Note_on_c, 9, 51, 0
5, 204916, Note_on_c, 9, 51, 68
5, 204980, Note_on_c, 9, 51, 0
5, 205016, Note_on_c, 9, 51, 88
5, 205084, Note_on_c, 9, 51, 0
5, 205400, Note_on_c, 9, 42, 70
5, 205404, Note_on_c, 9, 37, 60
5, 205404, Note_on_c, 9, 51, 98
5, 205464, Note_on_c, 9, 37, 0
5, 205464, Note_on_c, 9, 42, 0
5, 205468, Note_on_c, 9, 51, 0
5, 205688, Note_on_c, 9, 51, 68
5, 205748, Note_on_c, 9, 51, 0
5, 205784, Note_on_c, 9, 51, 88
5, 205852, Note_on_c, 9, 51, 0
5, 206168, Note_on_c, 9, 51, 108
5, 206168, Note_on_c, 9, 42, 70
5, 206232, Note_on_c, 9, 42, 0
5, 206236, Note_on_c, 9, 51, 0
5, 206552, Note_on_c, 9, 51, 88
5, 206620, Note_on_c, 9, 51, 0
5, 206936, Note_on_c, 9, 37, 70
5, 206936, Note_on_c, 9, 42, 70
5, 206940, Note_on_c, 9, 51, 108
5, 207000, Note_on_c, 9, 42, 0
5, 207004, Note_on_c, 9, 51, 0
5, 207004, Note_on_c, 9, 37, 0
5, 207320, Note_on_c, 9, 51, 88
5, 207388, Note_on_c, 9, 51, 0
5, 207700, Note_on_c, 9, 42, 70
5, 207704, Note_on_c, 9, 51, 108
5, 207768, Note_on_c, 9, 42, 0
5, 207772, Note_on_c, 9, 51, 0
5, 208088, Note_on_c, 9, 51, 88
5, 208156, Note_on_c, 9, 51, 0
5, 208472, Note_on_c, 9, 51, 108
5, 208472, Note_on_c, 9, 37, 70
5, 208472, Note_on_c, 9, 42, 70
5, 208536, Note_on_c, 9, 42, 0
5, 208536, Note_on_c, 9, 37, 0
5, 208540, Note_on_c, 9, 51, 0
5, 208762, Note_on_c, 9, 40, 33
5, 208800, Note_on_c, 9, 40, 0
5, 208856, Note_on_c, 9, 51, 88
5, 208880, Note_on_c, 9, 46, 46
5, 208908, Note_on_c, 9, 35, 48
5, 208924, Note_on_c, 9, 51, 0
5, 208988, Note_on_c, 9, 46, 0
5, 209050, Note_on_c, 9, 35, 0
5, 209240, Note_on_c, 9, 51, 98
5, 209240, Note_on_c, 9, 42, 70
5, 209266, Note_on_c, 9, 40, 37
5, 209300, Note_on_c, 9, 42, 0
5, 209308, Note_on_c, 9, 51, 0
5, 209320, Note_on_c, 9, 40, 0
5, 209488, Note_on_c, 9, 46, 65
5, 209512, Note_on_c, 9, 35, 62
5, 209524, Note_on_c, 9, 51, 68
5, 209552, Note_on_c, 9, 46, 0
5, 209594, Note_on_c, 9, 35, 0
5, 209596, Note_on_c, 9, 51, 0
5, 209624, Note_on_c, 9, 51, 88
5, 209692, Note_on_c, 9, 51, 0
5, 209904, Note_on_c, 9, 38, 20
5, 209912, Note_on_c, 9, 40, 23
5, 209946, Note_on_c, 9, 40, 0
5, 209980, Note_on_c, 9, 38, 0
5, 210008, Note_on_c, 9, 42, 70
5, 210008, Note_on_c, 9, 38, 40
5, 210012, Note_on_c, 9, 37, 70
5, 210012, Note_on_c, 9, 51, 98
5, 210048, Note_on_c, 9, 46, 73
5, 210058, Note_on_c, 9, 35, 77
5, 210072, Note_on_c, 9, 38, 0
5, 210072, Note_on_c, 9, 42, 0
5, 210076, Note_on_c, 9, 51, 0
5, 210076, Note_on_c, 9, 37, 0
5, 210120, Note_on_c, 9, 46, 0
5, 210264, Note_on_c, 9, 35, 0
5, 210296, Note_on_c, 9, 51, 68
5, 210356, Note_on_c, 9, 51, 0
5, 210392, Note_on_c, 9, 51, 88
5, 210392, Note_on_c, 9, 49, 30
5, 210422, Note_on_c, 9, 40, 23
5, 210456, Note_on_c, 9, 51, 0
5, 210458, Note_on_c, 9, 40, 0
5, 210460, Note_on_c, 9, 49, 0
5, 210646, Note_on_c, 9, 46, 72
5, 210654, Note_on_c, 9, 35, 66
5, 210700, Note_on_c, 9, 46, 0
5, 210776, Note_on_c, 9, 51, 108
5, 210776, Note_on_c, 9, 42, 70
5, 210784, Note_on_c, 9, 35, 0
5, 210840, Note_on_c, 9, 42, 0
5, 210844, Note_on_c, 9, 51, 0
5, 211160, Note_on_c, 9, 51, 88
5, 211228, Note_on_c, 9, 51, 0
5, 211544, Note_on_c, 9, 42, 70
5, 211544, Note_on_c, 9, 37, 70
5, 211548, Note_on_c, 9, 51, 108
5, 211608, Note_on_c, 9, 37, 0
5, 211608, Note_on_c, 9, 42, 0
5, 211612, Note_on_c, 9, 51, 0
5, 211928, Note_on_c, 9, 51, 88
5, 211996, Note_on_c, 9, 51, 0
5, 212308, Note_on_c, 9, 42, 70
5, 212312, Note_on_c, 9, 51, 108
5, 212376, Note_on_c, 9, 42, 0
5, 212380, Note_on_c, 9, 51, 0
5, 212696, Note_on_c, 9, 51, 88
5, 212764, Note_on_c, 9, 51, 0
5, 212960, Note_on_c, 9, 40, 35
5, 212992, Note_on_c, 9, 40, 0
5, 213080, Note_on_c, 9, 42, 70
5, 213084, Note_on_c, 9, 37, 70
5, 213084, Note_on_c, 9, 51, 108
5, 213100, Note_on_c, 9, 40, 33
5, 213142, Note_on_c, 9, 40, 0
5, 213144, Note_on_c, 9, 42, 0
5, 213144, Note_on_c, 9, 37, 0
5, 213148, Note_on_c, 9, 51, 0
5, 213336, Note_on_c, 9, 35, 49
5, 213374, Note_on_c, 9, 35, 0
5, 213464, Note_on_c, 9, 51, 88
5, 213466, Note_on_c, 9, 35, 44
5, 213532, Note_on_c, 9, 51, 0
5, 213658, Note_on_c, 9, 35, 0
5, 213726, Note_on_c, 9, 35, 45
5, 213786, Note_on_c, 9, 35, 0
5, 213848, Note_on_c, 9, 42, 70
5, 213848, Note_on_c, 9, 51, 98
5, 213908, Note_on_c, 9, 42, 0
5, 213916, Note_on_c, 9, 51, 0
5, 214132, Note_on_c, 9, 51, 68
5, 214196, Note_on_c, 9, 51, 0
5, 214232, Note_on_c, 9, 51, 88
5, 214252, Note_on_c, 9, 35, 36
5, 214288, Note_on_c, 9, 35, 0
5, 214300, Note_on_c, 9, 51, 0
5, 214616, Note_on_c, 9, 42, 70
5, 214616, Note_on_c, 9, 37, 60
5, 214620, Note_on_c, 9, 51, 98
5, 214680, Note_on_c, 9, 37, 0
5, 214680, Note_on_c, 9, 42, 0
5, 214684, Note_on_c, 9, 51, 0
5, 214896, Note_on_c, 9, 51, 68
5, 214964, Note_on_c, 9, 51, 0
5, 215000, Note_on_c, 9, 51, 88
5, 215068, Note_on_c, 9, 51, 0
5, 215384, Note_on_c, 9, 42, 70
5, 215388, Note_on_c, 9, 51, 98
5, 215448, Note_on_c, 9, 42, 0
5, 215452, Note_on_c, 9, 51, 0
5, 215768, Note_on_c, 9, 51, 88
5, 215836, Note_on_c, 9, 51, 0
5, 216152, Note_on_c, 9, 37, 70
5, 216152, Note_on_c, 9, 42, 70
5, 216156, Note_on_c, 9, 51, 98
5, 216216, Note_on_c, 9, 42, 0
5, 216216, Note_on_c, 9, 37, 0
5, 216220, Note_on_c, 9, 51, 0
5, 216528, Note_on_c, 9, 35, 35
5, 216536, Note_on_c, 9, 51, 88
5, 216572, Note_on_c, 9, 35, 0
5, 216604, Note_on_c, 9, 51, 0
5, 216920, Note_on_c, 9, 51, 98
5, 216920, Note_on_c, 9, 42, 70
5, 216984, Note_on_c, 9, 42, 0
5, 216988, Note_on_c, 9, 51, 0
5, 217204, Note_on_c, 9, 51, 68
5, 217206, Note_on_c, 9, 35, 32
5, 217248, Note_on_c, 9, 35, 0
5, 217276, Note_on_c, 9, 51, 0
5, 217300, Note_on_c, 9, 51, 88
5, 217372, Note_on_c, 9, 51, 0
5, 217558, Note_on_c, 9, 40, 23
5, 217592, Note_on_c, 9, 40, 0
5, 217688, Note_on_c, 9, 37, 60
5, 217688, Note_on_c, 9, 42, 70
5, 217692, Note_on_c, 9, 51, 98
5, 217702, Note_on_c, 9, 40, 35
5, 217750, Note_on_c, 9, 40, 0
5, 217752, Note_on_c, 9, 37, 0
5, 217752, Note_on_c, 9, 42, 0
5, 217756, Note_on_c, 9, 51, 0
5, 217816, Note_on_c, 9, 40, 34
5, 217844, Note_on_c, 9, 40, 0
5, 217958, Note_on_c, 9, 35, 47
5, 217972, Note_on_c, 9, 51, 68
5, 217996, Note_on_c, 9, 35, 0
5, 218036, Note_on_c, 9, 51, 0
5, 218072, Note_on_c, 9, 51, 88
5, 218140, Note_on_c, 9, 51, 0
5, 218456, Note_on_c, 9, 42, 70
5, 218460, Note_on_c, 9, 51, 98
5, 218520, Note_on_c, 9, 42, 0
5, 218524, Note_on_c, 9, 51, 0
5, 218740, Note_on_c, 9, 51, 68
5, 218740, Note_on_c, 9, 40, 19
5, 218770, Note_on_c, 9, 40, 0
5, 218812, Note_on_c, 9, 51, 0
5, 218840, Note_on_c, 9, 51, 88
5, 218898, Note_on_c, 9, 40, 22
5, 218908, Note_on_c, 9, 51, 0
5, 218932, Note_on_c, 9, 40, 0
5, 219034, Note_on_c, 9, 40, 37
5, 219062, Note_on_c, 9, 40, 0
5, 219196, Note_on_c, 9, 35, 55
5, 219224, Note_on_c, 9, 42, 70
5, 219224, Note_on_c, 9, 51, 98
5, 219224, Note_on_c, 9, 37, 70
5, 219236, Note_on_c, 9, 35, 0
5, 219288, Note_on_c, 9, 42, 0
5, 219288, Note_on_c, 9, 37, 0
5, 219292, Note_on_c, 9, 51, 0
5, 219474, Note_on_c, 9, 40, 23
5, 219504, Note_on_c, 9, 51, 68
5, 219512, Note_on_c, 9, 40, 0
5, 219580, Note_on_c, 9, 51, 0
5, 219612, Note_on_c, 9, 51, 88
5, 219676, Note_on_c, 9, 51, 0
5, 219992, Note_on_c, 9, 42, 70
5, 219992, Note_on_c, 9, 51, 98
5, 220056, Note_on_c, 9, 42, 0
5, 220060, Note_on_c, 9, 51, 0
5, 220280, Note_on_c, 9, 51, 68
5, 220282, Note_on_c, 9, 35, 46
5, 220318, Note_on_c, 9, 35, 0
5, 220340, Note_on_c, 9, 51, 0
5, 220376, Note_on_c, 9, 51, 88
5, 220398, Note_on_c, 9, 40, 33
5, 220430, Note_on_c, 9, 40, 0
5, 220444, Note_on_c, 9, 51, 0
5, 220534, Note_on_c, 9, 35, 50
5, 220568, Note_on_c, 9, 35, 0
5, 220760, Note_on_c, 9, 37, 60
5, 220760, Note_on_c, 9, 42, 70
5, 220764, Note_on_c, 9, 51, 98
5, 220824, Note_on_c, 9, 42, 0
5, 220824, Note_on_c, 9, 37, 0
5, 220828, Note_on_c, 9, 51, 0
5, 221044, Note_on_c, 9, 51, 68
5, 221104, Note_on_c, 9, 51, 0
5, 221144, Note_on_c, 9, 51, 88
5, 221212, Note_on_c, 9, 51, 0
5, 221288, Note_on_c, 9, 40, 33
5, 221316, Note_on_c, 9, 40, 0
5, 221400, Note_on_c, 9, 35, 37
5, 221468, Note_on_c, 9, 35, 0
5, 221528, Note_on_c, 9, 42, 70
5, 221528, Note_on_c, 9, 51, 98
5, 221544, Note_on_c, 9, 40, 34
5, 221592, Note_on_c, 9, 42, 0
5, 221596, Note_on_c, 9, 51, 0
5, 221626, Note_on_c, 9, 40, 0
5, 221820, Note_on_c, 9, 51, 68
5, 221884, Note_on_c, 9, 51, 0
5, 221908, Note_on_c, 9, 51, 88
5, 221912, Note_on_c, 9, 40, 28
5, 221946, Note_on_c, 9, 40, 0
5, 221980, Note_on_c, 9, 51, 0
5, 222066, Note_on_c, 9, 35, 40
5, 222098, Note_on_c, 9, 35, 0
5, 222174, Note_on_c, 9, 40, 42
5, 222202, Note_on_c, 9, 40, 0
5, 222204, Note_on_c, 9, 38, 20
5, 222268, Note_on_c, 9, 38, 0
5, 222296, Note_on_c, 9, 42, 70
5, 222296, Note_on_c, 9, 38, 40
5, 222300, Note_on_c, 9, 37, 70
5, 222300, Note_on_c, 9, 51, 98
5, 222360, Note_on_c, 9, 38, 0
5, 222360, Note_on_c, 9, 42, 0
5, 222364, Note_on_c, 9, 37, 0
5, 222364, Note_on_c, 9, 51, 0
5, 222430, Note_on_c, 9, 40, 44
5, 222462, Note_on_c, 9, 40, 0
5, 222530, Note_on_c, 9, 35, 65
5, 222588, Note_on_c, 9, 51, 68
5, 222612, Note_on_c, 9, 35, 0
5, 222652, Note_on_c, 9, 51, 0
5, 222668, Note_on_c, 9, 37, 62
5, 222680, Note_on_c, 9, 51, 88
5, 222748, Note_on_c, 9, 51, 0
5, 222758, Note_on_c, 9, 37, 0
5, 222758, Note_on_c, 9, 35, 63
5, 223064, Note_on_c, 9, 51, 98
5, 223064, Note_on_c, 9, 42, 70
5, 223128, Note_on_c, 9, 42, 0
5, 223132, Note_on_c, 9, 51, 0
5, 223348, Note_on_c, 9, 51, 68
5, 223420, Note_on_c, 9, 51, 0
5, 223448, Note_on_c, 9, 51, 88
5, 223516, Note_on_c, 9, 51, 0
5, 223832, Note_on_c, 9, 37, 70
5, 223832, Note_on_c, 9, 42, 70
5, 223836, Note_on_c, 9, 51, 98
5, 223882, Note_on_c, 9, 35, 0
5, 223896, Note_on_c, 9, 37, 0
5, 223896, Note_on_c, 9, 42, 0
5, 223900, Note_on_c, 9, 51, 0
5, 224116, Note_on_c, 9, 51, 68
5, 224188, Note_on_c, 9, 51, 0
5, 224216, Note_on_c, 9, 51, 88
5, 224284, Note_on_c, 9, 51, 0
5, 224492, Note_on_c, 9, 40, 33
5, 224522, Note_on_c, 9, 40, 0
5, 224600, Note_on_c, 9, 42, 70
5, 224600, Note_on_c, 9, 51, 98
5, 224616, Note_on_c, 9, 35, 43
5, 224664, Note_on_c, 9, 42, 0
5, 224668, Note_on_c, 9, 51, 0
5, 224740, Note_on_c, 9, 35, 0
5, 224888, Note_on_c, 9, 51, 68
5, 224948, Note_on_c, 9, 51, 0
5, 224984, Note_on_c, 9, 51, 88
5, 225052, Note_on_c, 9, 51, 0
5, 225368, Note_on_c, 9, 37, 70
5, 225368, Note_on_c, 9, 42, 70
5, 225372, Note_on_c, 9, 51, 98
5, 225432, Note_on_c, 9, 42, 0
5, 225436, Note_on_c, 9, 51, 0
5, 225436, Note_on_c, 9, 37, 0
5, 225660, Note_on_c, 9, 51, 68
5, 225712, Note_on_c, 9, 51, 0
5, 225752, Note_on_c, 9, 51, 88
5, 225820, Note_on_c, 9, 51, 0
5, 226136, Note_on_c, 9, 42, 70
5, 226136, Note_on_c, 9, 51, 108
5, 226200, Note_on_c, 9, 42, 0
5, 226204, Note_on_c, 9, 51, 0
5, 226520, Note_on_c, 9, 51, 88
5, 226588, Note_on_c, 9, 51, 0
5, 226900, Note_on_c, 9, 42, 70
5, 226904, Note_on_c, 9, 37, 70
5, 226904, Note_on_c, 9, 51, 108
5, 226968, Note_on_c, 9, 37, 0
5, 226968, Note_on_c, 9, 42, 0
5, 226972, Note_on_c, 9, 51, 0
5, 227288, Note_on_c, 9, 51, 88
5, 227356, Note_on_c, 9, 51, 0
5, 227672, Note_on_c, 9, 42, 70
5, 227676, Note_on_c, 9, 51, 98
5, 227736, Note_on_c, 9, 42, 0
5, 227740, Note_on_c, 9, 51, 0
5, 227956, Note_on_c, 9, 51, 68
5, 228028, Note_on_c, 9, 51, 0
5, 228056, Note_on_c, 9, 51, 88
5, 228066, Note_on_c, 9, 40, 27
5, 228100, Note_on_c, 9, 40, 0
5, 228124, Note_on_c, 9, 51, 0
5, 228344, Note_on_c, 9, 40, 32
5, 228374, Note_on_c, 9, 40, 0
5, 228440, Note_on_c, 9, 42, 70
5, 228444, Note_on_c, 9, 37, 70
5, 228444, Note_on_c, 9, 51, 98
5, 228464, Note_on_c, 9, 35, 44
5, 228500, Note_on_c, 9, 37, 0
5, 228500, Note_on_c, 9, 42, 0
5, 228512, Note_on_c, 9, 51, 0
5, 228556, Note_on_c, 9, 35, 0
5, 228702, Note_on_c, 9, 35, 66
5, 228724, Note_on_c, 9, 51, 68
5, 228774, Note_on_c, 9, 35, 0
5, 228796, Note_on_c, 9, 51, 0
5, 228824, Note_on_c, 9, 51, 88
5, 228892, Note_on_c, 9, 51, 0
5, 229208, Note_on_c, 9, 42, 70
5, 229208, Note_on_c, 9, 51, 108
5, 229272, Note_on_c, 9, 42, 0
5, 229276, Note_on_c, 9, 51, 0
5, 229518, Note_on_c, 9, 40, 17
5, 229544, Note_on_c, 9, 40, 0
5, 229596, Note_on_c, 9, 51, 88
5, 229660, Note_on_c, 9, 51, 0
5, 229662, Note_on_c, 9, 40, 26
5, 229696, Note_on_c, 9, 40, 0
5, 229870, Note_on_c, 9, 40, 40
5, 229896, Note_on_c, 9, 40, 0
5, 229976, Note_on_c, 9, 42, 70
5, 229980, Note_on_c, 9, 37, 70
5, 229980, Note_on_c, 9, 51, 108
5, 230016, Note_on_c, 9, 35, 24
5, 230040, Note_on_c, 9, 42, 0
5, 230044, Note_on_c, 9, 37, 0
5, 230044, Note_on_c, 9, 51, 0
5, 230110, Note_on_c, 9, 35, 0
5, 230244, Note_on_c, 9, 35, 64
5, 230318, Note_on_c, 9, 35, 0
5, 230360, Note_on_c, 9, 51, 88
5, 230428, Note_on_c, 9, 51, 0
5, 230744, Note_on_c, 9, 42, 70
5, 230744, Note_on_c, 9, 51, 98
5, 230808, Note_on_c, 9, 42, 0
5, 230812, Note_on_c, 9, 51, 0
5, 231036, Note_on_c, 9, 51, 68
5, 231096, Note_on_c, 9, 51, 0
5, 231128, Note_on_c, 9, 51, 88
5, 231196, Note_on_c, 9, 51, 0
5, 231512, Note_on_c, 9, 42, 70
5, 231512, Note_on_c, 9, 51, 98
5, 231512, Note_on_c, 9, 37, 70
5, 231576, Note_on_c, 9, 37, 0
5, 231576, Note_on_c, 9, 42, 0
5, 231580, Note_on_c, 9, 51, 0
5, 231804, Note_on_c, 9, 51, 68
5, 231868, Note_on_c, 9, 51, 0
5, 231896, Note_on_c, 9, 51, 88
5, 231964, Note_on_c, 9, 51, 0
5, 232280, Note_on_c, 9, 42, 70
5, 232280, Note_on_c, 9, 51, 98
5, 232344, Note_on_c, 9, 42, 0
5, 232348, Note_on_c, 9, 51, 0
5, 232564, Note_on_c, 9, 51, 68
5, 232628, Note_on_c, 9, 51, 0
5, 232664, Note_on_c, 9, 51, 88
5, 232732, Note_on_c, 9, 51, 0
5, 233048, Note_on_c, 9, 37, 60
5, 233048, Note_on_c, 9, 42, 70
5, 233052, Note_on_c, 9, 51, 98
5, 233108, Note_on_c, 9, 42, 0
5, 233108, Note_on_c, 9, 37, 0
5, 233116, Note_on_c, 9, 51, 0
5, 233332, Note_on_c, 9, 51, 68
5, 233396, Note_on_c, 9, 51, 0
5, 233432, Note_on_c, 9, 51, 88
5, 233500, Note_on_c, 9, 51, 0
5, 233816, Note_on_c, 9, 42, 70
5, 233816, Note_on_c, 9, 51, 98
5, 233880, Note_on_c, 9, 42, 0
5, 233884, Note_on_c, 9, 51, 0
5, 234096, Note_on_c, 9, 51, 68
5, 234172, Note_on_c, 9, 51, 0
5, 234200, Note_on_c, 9, 51, 88
5, 234268, Note_on_c, 9, 51, 0
5, 234480, Note_on_c, 9, 31, 38
5, 234488, Note_on_c, 9, 38, 20
5, 234546, Note_on_c, 9, 31, 0
5, 234548, Note_on_c, 9, 38, 0
5, 234582, Note_on_c, 9, 37, 69
5, 234584, Note_on_c, 9, 38, 40
5, 234584, Note_on_c, 9, 42, 70
5, 234588, Note_on_c, 9, 37, 70
5, 234588, Note_on_c, 9, 51, 98
5, 234648, Note_on_c, 9, 42, 0
5, 234648, Note_on_c, 9, 38, 0
5, 234652, Note_on_c, 9, 51, 0
5, 234652, Note_on_c, 9, 37, 0
5, 234844, Note_on_c, 9, 57, 42
5, 234860, Note_on_c, 9, 35, 83
5, 234870, Note_on_c, 9, 37, 0
5, 234876, Note_on_c, 9, 51, 68
5, 234932, Note_on_c, 9, 51, 0
5, 234968, Note_on_c, 9, 51, 88
5, 235036, Note_on_c, 9, 51, 0
5, 235352, Note_on_c, 9, 42, 70
5, 235352, Note_on_c, 9, 51, 98
5, 235416, Note_on_c, 9, 42, 0
5, 235420, Note_on_c, 9, 51, 0
5, 235644, Note_on_c, 9, 51, 68
5, 235696, Note_on_c, 9, 51, 0
5, 235736, Note_on_c, 9, 51, 88
5, 235766, Note_on_c, 9, 57, 0
5, 235804, Note_on_c, 9, 51, 0
5, 236010, Note_on_c, 9, 35, 0
5, 236016, Note_on_c, 9, 37, 45
5, 236102, Note_on_c, 9, 37, 0
5, 236120, Note_on_c, 9, 42, 70
5, 236120, Note_on_c, 9, 37, 70
5, 236124, Note_on_c, 9, 51, 98
5, 236138, Note_on_c, 9, 35, 96
5, 236184, Note_on_c, 9, 37, 0
5, 236184, Note_on_c, 9, 42, 0
5, 236188, Note_on_c, 9, 51, 0
5, 236412, Note_on_c, 9, 51, 68
5, 236430, Note_on_c, 9, 35, 0
5, 236476, Note_on_c, 9, 51, 0
5, 236504, Note_on_c, 9, 51, 88
5, 236572, Note_on_c, 9, 51, 0
5, 236888, Note_on_c, 9, 51, 98
5, 236888, Note_on_c, 9, 42, 70
5, 236952, Note_on_c, 9, 42, 0
5, 236956, Note_on_c, 9, 51, 0
5, 237180, Note_on_c, 9, 51, 68
5, 237244, Note_on_c, 9, 51, 0
5, 237272, Note_on_c, 9, 51, 88
5, 237340, Note_on_c, 9, 51, 0
5, 237656, Note_on_c, 9, 42, 70
5, 237656, Note_on_c, 9, 37, 70
5, 237660, Note_on_c, 9, 51, 98
5, 237664, Note_on_c, 9, 35, 48
5, 237720, Note_on_c, 9, 37, 0
5, 237720, Note_on_c, 9, 42, 0
5, 237724, Note_on_c, 9, 51, 0
5, 237842, Note_on_c, 9, 35, 0
5, 237906, Note_on_c, 9, 35, 56
5, 237940, Note_on_c, 9, 51, 68
5, 237956, Note_on_c, 9, 35, 0
5, 238012, Note_on_c, 9, 51, 0
5, 238040, Note_on_c, 9, 51, 88
5, 238108, Note_on_c, 9, 51, 0
5, 238424, Note_on_c, 9, 42, 70
5, 238424, Note_on_c, 9, 51, 98
5, 238488, Note_on_c, 9, 42, 0
5, 238492, Note_on_c, 9, 51, 0
5, 238704, Note_on_c, 9, 51, 68
5, 238780, Note_on_c, 9, 51, 0
5, 238808, Note_on_c, 9, 51, 88
5, 238876, Note_on_c, 9, 51, 0
5, 239192, Note_on_c, 9, 42, 70
5, 239196, Note_on_c, 9, 37, 70
5, 239196, Note_on_c, 9, 51, 98
5, 239256, Note_on_c, 9, 42, 0
5, 239260, Note_on_c, 9, 51, 0
5, 239260, Note_on_c, 9, 37, 0
5, 239480, Note_on_c, 9, 35, 37
5, 239484, Note_on_c, 9, 51, 68
5, 239516, Note_on_c, 9, 35, 0
5, 239540, Note_on_c, 9, 51, 0
5, 239576, Note_on_c, 9, 51, 88
5, 239598, Note_on_c, 9, 35, 36
5, 239644, Note_on_c, 9, 51, 0
5, 239706, Note_on_c, 9, 35, 0
5, 239880, Note_on_c, 9, 35, 37
5, 239920, Note_on_c, 9, 35, 0
5, 239960, Note_on_c, 9, 42, 70
5, 239960, Note_on_c, 9, 51, 108
5, 240024, Note_on_c, 9, 42, 0
5, 240028, Note_on_c, 9, 51, 0
5, 240344, Note_on_c, 9, 51, 88
5, 240412, Note_on_c, 9, 51, 0
5, 240624, Note_on_c, 9, 40, 42
5, 240660, Note_on_c, 9, 40, 0
5, 240728, Note_on_c, 9, 42, 70
5, 240728, Note_on_c, 9, 37, 70
5, 240732, Note_on_c, 9, 51, 108
5, 240772, Note_on_c, 9, 35, 24
5, 240792, Note_on_c, 9, 42, 0
5, 240796, Note_on_c, 9, 37, 0
5, 240796, Note_on_c, 9, 51, 0
5, 240926, Note_on_c, 9, 35, 0
5, 241002, Note_on_c, 9, 40, 42
5, 241030, Note_on_c, 9, 40, 0
5, 241108, Note_on_c, 9, 51, 88
5, 241122, Note_on_c, 9, 35, 44
5, 241180, Note_on_c, 9, 51, 0
5, 241384, Note_on_c, 9, 35, 0
5, 241496, Note_on_c, 9, 42, 70
5, 241500, Note_on_c, 9, 51, 108
5, 241560, Note_on_c, 9, 42, 0
5, 241564, Note_on_c, 9, 51, 0
5, 241788, Note_on_c, 9, 40, 21
5, 241820, Note_on_c, 9, 40, 0
5, 241884, Note_on_c, 9, 51, 88
5, 241902, Note_on_c, 9, 40, 23
5, 241948, Note_on_c, 9, 51, 0
5, 242000, Note_on_c, 9, 40, 0
5, 242264, Note_on_c, 9, 42, 70
5, 242264, Note_on_c, 9, 37, 70
5, 242264, Note_on_c, 9, 51, 108
5, 242328, Note_on_c, 9, 37, 0
5, 242328, Note_on_c, 9, 42, 0
5, 242332, Note_on_c, 9, 51, 0
5, 242556, Note_on_c, 9, 40, 23
5, 242592, Note_on_c, 9, 40, 0
5, 242648, Note_on_c, 9, 51, 88
5, 242670, Note_on_c, 9, 40, 27
5, 242716, Note_on_c, 9, 51, 0
5, 242838, Note_on_c, 9, 40, 0
5, 243032, Note_on_c, 9, 42, 70
5, 243032, Note_on_c, 9, 51, 108
5, 243096, Note_on_c, 9, 42, 0
5, 243100, Note_on_c, 9, 51, 0
5, 243416, Note_on_c, 9, 51, 88
5, 243422, Note_on_c, 9, 40, 24
5, 243484, Note_on_c, 9, 51, 0
5, 243526, Note_on_c, 9, 40, 0
5, 243800, Note_on_c, 9, 51, 108
5, 243800, Note_on_c, 9, 37, 70
5, 243800, Note_on_c, 9, 42, 70
5, 243864, Note_on_c, 9, 42, 0
5, 243868, Note_on_c, 9, 37, 0
5, 243868, Note_on_c, 9, 51, 0
5, 244090, Note_on_c, 9, 40, 25
5, 244124, Note_on_c, 9, 40, 0
5, 244184, Note_on_c, 9, 51, 88
5, 244192, Note_on_c, 9, 40, 27
5, 244252, Note_on_c, 9, 51, 0
5, 244338, Note_on_c, 9, 40, 0
5, 244444, Note_on_c, 9, 40, 37
5, 244472, Note_on_c, 9, 40, 0
5, 244562, Note_on_c, 9, 40, 36
5, 244568, Note_on_c, 9, 42, 70
5, 244572, Note_on_c, 9, 51, 98
5, 244608, Note_on_c, 9, 40, 0
5, 244632, Note_on_c, 9, 42, 0
5, 244636, Note_on_c, 9, 51, 0
5, 244816, Note_on_c, 9, 40, 44
5, 244860, Note_on_c, 9, 51, 68
5, 244874, Note_on_c, 9, 40, 0
5, 244916, Note_on_c, 9, 51, 0
5, 244952, Note_on_c, 9, 51, 88
5, 244952, Note_on_c, 9, 40, 31
5, 244988, Note_on_c, 9, 40, 0
5, 245020, Note_on_c, 9, 51, 0
5, 245188, Note_on_c, 9, 40, 40
5, 245234, Note_on_c, 9, 40, 0
5, 245244, Note_on_c, 9, 38, 20
5, 245296, Note_on_c, 9, 38, 0
5, 245328, Note_on_c, 9, 40, 25
5, 245336, Note_on_c, 9, 38, 40
5, 245336, Note_on_c, 9, 42, 70
5, 245340, Note_on_c, 9, 37, 70
5, 245340, Note_on_c, 9, 51, 98
5, 245374, Note_on_c, 9, 40, 0
5, 245400, Note_on_c, 9, 38, 0
5, 245400, Note_on_c, 9, 42, 0
5, 245404, Note_on_c, 9, 37, 0
5, 245404, Note_on_c, 9, 51, 0
5, 245570, Note_on_c, 9, 37, 57
5, 245628, Note_on_c, 9, 51, 68
5, 245646, Note_on_c, 9, 37, 0
5, 245688, Note_on_c, 9, 51, 0
5, 245702, Note_on_c, 9, 35, 91
5, 245704, Note_on_c, 9, 57, 46
5, 245720, Note_on_c, 9, 51, 88
5, 245788, Note_on_c, 9, 51, 0
5, 245840, Note_on_c, 9, 57, 0
5, 245874, Note_on_c, 9, 35, 0
5, 247400, Control_c, 9, 123, 0
5, 247400, Control_c, 9, 64, 0
5, 247400, Control_c, 9, 123, 0
5, 247400, Control_c, 9, 64, 0
5, 247400, Control_c, 9, 123, 0
5, 247400, Control_c, 9, 64, 0
5, 247400, Program_c, 9, 0
5, 247400, Control_c, 9, 123, 0
5, 247400, Control_c, 9, 64, 0
5, 247400, Control_c, 9, 123, 0
5, 247400, Control_c, 9, 64, 0
5, 247400, Control_c, 9, 123, 0
5, 247400, Control_c, 9, 64, 0
5, 247400, Control_c, 9, 123, 0
5, 247400, Control_c, 9, 64, 0
5, 247400, Control_c, 9, 123, 0
5, 247400, Control_c, 9, 64, 0
5, 247400, Control_c, 9, 123, 0
5, 247400, Control_c, 9, 64, 0
5, 247400, Control_c, 9, 123, 0
5, 247400, Control_c, 9, 64, 0
5, 247400, End_track
0, 0, End_of_file
