0, 0, Header, 1, 13, 384
1, 0, Start_track
1, 0, Title_t, "GoodBait"
1, 0, Title_t, "Good Bait"
1, 0, Text_t, "Sequenced by Doug McKenzie dougmck@pipeline.com.au\012"
1, 0, Text_t, "Guitar - basically just 3rds and 7ths (Guidetones)\012"
1, 0, Text_t, "Track 3\012"
1, 0, Text_t, "Track 4\012"
1, 0, Text_t, "Drums -Brushes\012"
1, 0, Text_t, "Kontakt 1 Primary Out\012"
1, 0, System_exclusive, 5, 126, 127, 9, 1, 247
1, 1, System_exclusive, 8, 67, 16, 76, 0, 0, 126, 0, 247
1, 1, System_exclusive, 8, 67, 16, 76, 8, 15, 0, 1, 247
1, 1, System_exclusive, 8, 67, 16, 76, 8, 14, 0, 1, 247
1, 1, System_exclusive, 8, 67, 16, 76, 8, 13, 0, 1, 247
1, 1, System_exclusive, 8, 67, 16, 76, 8, 12, 0, 1, 247
1, 1, System_exclusive, 8, 67, 16, 76, 8, 11, 0, 1, 247
1, 1, System_exclusive, 8, 67, 16, 76, 8, 10, 0, 1, 247
1, 1, System_exclusive, 8, 67, 16, 76, 8, 9, 0, 0, 247
1, 1, System_exclusive, 8, 67, 16, 76, 8, 8, 0, 1, 247
1, 1, System_exclusive, 8, 67, 16, 76, 8, 7, 0, 1, 247
1, 1, System_exclusive, 8, 67, 16, 76, 8, 6, 0, 1, 247
1, 1, System_exclusive, 8, 67, 16, 76, 8, 5, 0, 1, 247
1, 1, System_exclusive, 8, 67, 16, 76, 8, 4, 0, 2, 247
1, 1, System_exclusive, 8, 67, 16, 76, 8, 3, 0, 2, 247
1, 1, System_exclusive, 8, 67, 16, 76, 8, 2, 0, 4, 247
1, 1, System_exclusive, 8, 67, 16, 76, 8, 1, 0, 4, 247
1, 1, System_exclusive, 8, 67, 16, 76, 8, 0, 0, 8, 247
1, 1, System_exclusive, 8, 67, 16, 76, 8, 0, 7, 0, 247
1, 1, System_exclusive, 8, 67, 16, 76, 8, 1, 7, 0, 247
1, 1, System_exclusive, 8, 67, 16, 76, 8, 2, 7, 0, 247
1, 1, System_exclusive, 8, 67, 16, 76, 8, 3, 7, 0, 247
1, 1, System_exclusive, 8, 67, 16, 76, 8, 4, 7, 0, 247
1, 1, System_exclusive, 8, 67, 16, 76, 8, 5, 7, 0, 247
1, 1, System_exclusive, 8, 67, 16, 76, 8, 6, 7, 0, 247
1, 1, System_exclusive, 8, 67, 16, 76, 8, 7, 7, 0, 247
1, 1, System_exclusive, 8, 67, 16, 76, 8, 8, 7, 0, 247
1, 1, System_exclusive, 8, 67, 16, 76, 8, 9, 7, 2, 247
1, 1, System_exclusive, 8, 67, 16, 76, 8, 10, 7, 0, 247
1, 1, System_exclusive, 8, 67, 16, 76, 8, 11, 7, 0, 247
1, 1, System_exclusive, 8, 67, 16, 76, 8, 12, 7, 0, 247
1, 1, System_exclusive, 8, 67, 16, 76, 8, 13, 7, 0, 247
1, 1, System_exclusive, 8, 67, 16, 76, 8, 14, 7, 0, 247
1, 1, System_exclusive, 8, 67, 16, 76, 8, 15, 7, 0, 247
1, 1, System_exclusive, 9, 67, 16, 76, 2, 1, 0, 2, 17, 247
1, 1, System_exclusive, 9, 67, 16, 76, 2, 1, 32, 65, 8, 247
1, 1, System_exclusive, 9, 67, 16, 76, 2, 1, 64, 5, 0, 247
1, 1, System_exclusive, 8, 67, 16, 76, 8, 9, 32, 16, 247
1, 1, System_exclusive, 8, 67, 115, 1, 17, 15, 89, 0, 247
1, 2, System_exclusive, 9, 67, 16, 76, 3, 0, 0, 66, 18, 247
1, 2, System_exclusive, 8, 67, 16, 76, 3, 0, 12, 127, 247
1, 2, System_exclusive, 9, 67, 16, 76, 3, 1, 0, 7, 0, 247
1, 2, System_exclusive, 9, 67, 16, 76, 3, 1, 66, 0, 25, 247
1, 2, System_exclusive, 8, 67, 16, 76, 3, 1, 12, 127, 247
1, 2, System_exclusive, 9, 67, 16, 76, 3, 2, 0, 66, 18, 247
1, 2, System_exclusive, 8, 67, 16, 76, 3, 2, 12, 127, 247
1, 2, System_exclusive, 8, 67, 16, 76, 8, 0, 114, 64, 247
1, 2, System_exclusive, 8, 67, 16, 76, 8, 0, 115, 64, 247
1, 2, System_exclusive, 8, 67, 16, 76, 8, 0, 119, 46, 247
1, 2, System_exclusive, 8, 67, 16, 76, 8, 0, 12, 71, 247
1, 2, System_exclusive, 8, 67, 16, 76, 8, 0, 13, 53, 247
1, 2, System_exclusive, 8, 67, 16, 76, 8, 1, 114, 64, 247
1, 2, System_exclusive, 8, 67, 16, 76, 8, 1, 115, 64, 247
1, 2, System_exclusive, 8, 67, 16, 76, 8, 1, 119, 46, 247
1, 2, System_exclusive, 8, 67, 16, 76, 8, 1, 13, 69, 247
1, 2, System_exclusive, 8, 67, 16, 76, 8, 2, 114, 64, 247
1, 2, System_exclusive, 8, 67, 16, 76, 8, 2, 115, 64, 247
1, 2, System_exclusive, 8, 67, 16, 76, 8, 2, 119, 46, 247
1, 2, System_exclusive, 8, 67, 16, 76, 8, 2, 12, 65, 247
1, 2, System_exclusive, 8, 67, 16, 76, 8, 2, 13, 62, 247
1, 2, System_exclusive, 8, 67, 16, 76, 8, 3, 114, 64, 247
1, 2, System_exclusive, 8, 67, 16, 76, 8, 3, 115, 64, 247
1, 2, System_exclusive, 8, 67, 16, 76, 8, 3, 119, 46, 247
1, 2, System_exclusive, 8, 67, 16, 76, 8, 3, 12, 77, 247
1, 2, System_exclusive, 8, 67, 16, 76, 8, 3, 13, 44, 247
1, 2, Time_signature, 4, 2, 24, 8
1, 2, Key_signature, -2, "major"
1, 2, Tempo, 600000
1, 4, Tempo, 545455
1, 4, Sequencer_specific, 21, 67, 115, 10, 0, 5, 75, 75, 75, 75, 79, 90, 90, 79, 79, 90, 79, 79, 79, 79, 79, 79
1, 4, Sequencer_specific, 6, 67, 115, 10, 0, 4, 1
1, 4, Sequencer_specific, 9, 67, 123, 0, 88, 70, 48, 50, 0, 0
1, 4, End_track
2, 0, Start_track
2, 0, Title_t, "Track 1"
2, 384, Control_c, 0, 0, 1
2, 384, Program_c, 0, 16
2, 385, Control_c, 0, 7, 93
2, 385, Control_c, 0, 10, 127
2, 385, Control_c, 0, 91, 26
2, 385, Control_c, 0, 93, 0
2, 770, Control_c, 0, 11, 127
2, 770, Control_c, 0, 94, 0
2, 770, Control_c, 0, 101, 0
2, 771, Control_c, 0, 100, 1
2, 772, Control_c, 0, 6, 64
2, 773, Control_c, 0, 38, 0
2, 773, Pitch_bend_c, 0, 8192
2, 4950, Note_on_c, 0, 70, 84
2, 5198, Note_on_c, 0, 70, 0
2, 5214, Note_on_c, 0, 69, 42
2, 5274, Note_on_c, 0, 69, 0
2, 5322, Note_on_c, 0, 70, 50
2, 5510, Note_on_c, 0, 70, 0
2, 6386, Note_on_c, 0, 57, 69
2, 6450, Note_on_c, 0, 57, 0
2, 6534, Note_on_c, 0, 58, 38
2, 6762, Note_on_c, 0, 60, 75
2, 6766, Note_on_c, 0, 58, 0
2, 6846, Note_on_c, 0, 60, 0
2, 6910, Note_on_c, 0, 61, 54
2, 7114, Note_on_c, 0, 61, 0
2, 7134, Note_on_c, 0, 63, 57
2, 7206, Note_on_c, 0, 63, 0
2, 7274, Note_on_c, 0, 66, 61
2, 7494, Note_on_c, 0, 66, 0
2, 7522, Note_on_c, 0, 68, 85
2, 7614, Note_on_c, 0, 68, 0
2, 7778, Note_on_c, 0, 65, 96
2, 7898, Note_on_c, 0, 65, 0
2, 8034, Note_on_c, 0, 65, 122
2, 8226, Note_on_c, 0, 64, 52
2, 8262, Note_on_c, 0, 65, 0
2, 8302, Note_on_c, 0, 63, 46
2, 8314, Note_on_c, 0, 64, 0
2, 8382, Note_on_c, 0, 62, 52
2, 8386, Note_on_c, 0, 63, 0
2, 8450, Note_on_c, 0, 62, 0
2, 8474, Note_on_c, 0, 65, 81
2, 8662, Note_on_c, 0, 65, 0
2, 8710, Note_on_c, 0, 65, 81
2, 8778, Note_on_c, 0, 65, 0
2, 9070, Note_on_c, 0, 62, 98
2, 9074, Note_on_c, 0, 58, 88
2, 9498, Note_on_c, 0, 62, 0
2, 9518, Note_on_c, 0, 58, 0
2, 9558, Note_on_c, 0, 57, 52
2, 9562, Note_on_c, 0, 60, 61
2, 9674, Note_on_c, 0, 57, 0
2, 9730, Note_on_c, 0, 60, 0
2, 9814, Note_on_c, 0, 58, 60
2, 9838, Note_on_c, 0, 57, 33
2, 9866, Note_on_c, 0, 57, 0
2, 9914, Note_on_c, 0, 58, 0
2, 9986, Note_on_c, 0, 57, 36
2, 9998, Note_on_c, 0, 53, 14
2, 10094, Note_on_c, 0, 53, 0
2, 10146, Note_on_c, 0, 57, 0
2, 10210, Note_on_c, 0, 60, 45
2, 10238, Note_on_c, 0, 60, 0
2, 10566, Note_on_c, 0, 63, 68
2, 10646, Note_on_c, 0, 63, 0
2, 10994, Note_on_c, 0, 62, 102
2, 11058, Note_on_c, 0, 62, 0
2, 11158, Note_on_c, 0, 62, 72
2, 11270, Note_on_c, 0, 62, 0
2, 11374, Note_on_c, 0, 61, 66
2, 11430, Note_on_c, 0, 61, 0
2, 11510, Note_on_c, 0, 62, 60
2, 11730, Note_on_c, 0, 62, 0
2, 11758, Note_on_c, 0, 67, 87
2, 11934, Note_on_c, 0, 67, 0
2, 12018, Note_on_c, 0, 65, 76
2, 12090, Note_on_c, 0, 65, 0
2, 12138, Note_on_c, 0, 62, 66
2, 12186, Note_on_c, 0, 62, 0
2, 12242, Note_on_c, 0, 58, 68
2, 12478, Note_on_c, 0, 58, 0
2, 12626, Note_on_c, 0, 58, 70
2, 12902, Note_on_c, 0, 58, 0
2, 12906, Note_on_c, 0, 57, 48
2, 12966, Note_on_c, 0, 57, 0
2, 13014, Note_on_c, 0, 58, 41
2, 13266, Note_on_c, 0, 58, 0
2, 13290, Note_on_c, 0, 62, 52
2, 13314, Note_on_c, 0, 62, 0
2, 13418, Note_on_c, 0, 65, 94
2, 13606, Note_on_c, 0, 65, 0
2, 13674, Note_on_c, 0, 63, 68
2, 13778, Note_on_c, 0, 63, 0
2, 13830, Note_on_c, 0, 62, 52
2, 13982, Note_on_c, 0, 62, 0
2, 14038, Note_on_c, 0, 57, 66
2, 14184, Note_on_c, 0, 56, 39
2, 14202, Note_on_c, 0, 57, 0
2, 14422, Note_on_c, 0, 61, 66
2, 14470, Note_on_c, 0, 56, 0
2, 14518, Note_on_c, 0, 61, 0
2, 14574, Note_on_c, 0, 60, 52
2, 14678, Note_on_c, 0, 60, 0
2, 14866, Note_on_c, 0, 54, 57
2, 14894, Note_on_c, 0, 54, 0
2, 15326, Note_on_c, 0, 58, 66
2, 15538, Note_on_c, 0, 58, 0
2, 15598, Note_on_c, 0, 53, 45
2, 15626, Note_on_c, 0, 53, 0
2, 16740, Note_on_c, 0, 65, 56
2, 16806, Note_on_c, 0, 65, 0
2, 16914, Note_on_c, 0, 70, 54
2, 17114, Note_on_c, 0, 70, 0
2, 17270, Note_on_c, 0, 70, 90
2, 17494, Note_on_c, 0, 70, 0
2, 17534, Note_on_c, 0, 69, 55
2, 17606, Note_on_c, 0, 69, 0
2, 17678, Note_on_c, 0, 70, 56
2, 17858, Note_on_c, 0, 70, 0
2, 17906, Note_on_c, 0, 67, 49
2, 17934, Note_on_c, 0, 67, 0
2, 18394, Note_on_c, 0, 65, 48
2, 18402, Note_on_c, 0, 69, 58
2, 18522, Note_on_c, 0, 65, 0
2, 18614, Note_on_c, 0, 69, 0
2, 18650, Note_on_c, 0, 70, 56
2, 18658, Note_on_c, 0, 67, 55
2, 18734, Note_on_c, 0, 67, 0
2, 18750, Note_on_c, 0, 70, 0
2, 18798, Note_on_c, 0, 69, 52
2, 18806, Note_on_c, 0, 72, 57
2, 18866, Note_on_c, 0, 69, 0
2, 18874, Note_on_c, 0, 72, 0
2, 19046, Note_on_c, 0, 73, 55
2, 19074, Note_on_c, 0, 73, 0
2, 19298, Note_on_c, 0, 61, 57
2, 19374, Note_on_c, 0, 61, 0
2, 19426, Note_on_c, 0, 63, 68
2, 19494, Note_on_c, 0, 63, 0
2, 19582, Note_on_c, 0, 68, 82
2, 19770, Note_on_c, 0, 68, 0
2, 19826, Note_on_c, 0, 66, 66
2, 19954, Note_on_c, 0, 66, 0
2, 20038, Note_on_c, 0, 65, 54
2, 20570, Note_on_c, 0, 65, 0
2, 20590, Note_on_c, 0, 64, 42
2, 20694, Note_on_c, 0, 64, 0
2, 20726, Note_on_c, 0, 65, 54
2, 20954, Note_on_c, 0, 65, 0
2, 20978, Note_on_c, 0, 62, 49
2, 21006, Note_on_c, 0, 62, 0
2, 21354, Note_on_c, 0, 61, 80
2, 21362, Note_on_c, 0, 62, 82
2, 21442, Note_on_c, 0, 61, 0
2, 21834, Note_on_c, 0, 62, 0
2, 21886, Note_on_c, 0, 60, 26
2, 22038, Note_on_c, 0, 60, 0
2, 22106, Note_on_c, 0, 58, 54
2, 22206, Note_on_c, 0, 58, 0
2, 22262, Note_on_c, 0, 57, 31
2, 22454, Note_on_c, 0, 57, 0
2, 22530, Note_on_c, 0, 62, 29
2, 22566, Note_on_c, 0, 62, 0
2, 22618, Note_on_c, 0, 65, 85
2, 22854, Note_on_c, 0, 65, 0
2, 22890, Note_on_c, 0, 63, 60
2, 22974, Note_on_c, 0, 63, 0
2, 23038, Note_on_c, 0, 62, 49
2, 23122, Note_on_c, 0, 62, 0
2, 23394, Note_on_c, 0, 62, 66
2, 23602, Note_on_c, 0, 62, 0
2, 23658, Note_on_c, 0, 61, 41
2, 23746, Note_on_c, 0, 61, 0
2, 23786, Note_on_c, 0, 62, 57
2, 23990, Note_on_c, 0, 62, 0
2, 24034, Note_on_c, 0, 67, 85
2, 24154, Note_on_c, 0, 67, 0
2, 24194, Note_on_c, 0, 65, 51
2, 24338, Note_on_c, 0, 65, 0
2, 24414, Note_on_c, 0, 62, 76
2, 24502, Note_on_c, 0, 62, 0
2, 24590, Note_on_c, 0, 58, 24
2, 24806, Note_on_c, 0, 58, 0
2, 24950, Note_on_c, 0, 58, 66
2, 25058, Note_on_c, 0, 58, 0
2, 25058, Note_on_c, 0, 60, 56
2, 25126, Note_on_c, 0, 58, 41
2, 25134, Note_on_c, 0, 60, 0
2, 25222, Note_on_c, 0, 58, 0
2, 25234, Note_on_c, 0, 57, 45
2, 25274, Note_on_c, 0, 57, 0
2, 25334, Note_on_c, 0, 58, 55
2, 25550, Note_on_c, 0, 58, 0
2, 25566, Note_on_c, 0, 61, 45
2, 25594, Note_on_c, 0, 61, 0
2, 25718, Note_on_c, 0, 65, 85
2, 25850, Note_on_c, 0, 65, 0
2, 25970, Note_on_c, 0, 63, 66
2, 26010, Note_on_c, 0, 63, 0
2, 26166, Note_on_c, 0, 62, 41
2, 26226, Note_on_c, 0, 62, 0
2, 26330, Note_on_c, 0, 57, 63
2, 26438, Note_on_c, 0, 57, 0
2, 26482, Note_on_c, 0, 56, 45
2, 26646, Note_on_c, 0, 56, 0
2, 26706, Note_on_c, 0, 61, 70
2, 26782, Note_on_c, 0, 61, 0
2, 26878, Note_on_c, 0, 60, 53
2, 26950, Note_on_c, 0, 60, 0
2, 27086, Note_on_c, 0, 55, 60
2, 27202, Note_on_c, 0, 55, 0
2, 27254, Note_on_c, 0, 54, 36
2, 27386, Note_on_c, 0, 54, 0
2, 27482, Note_on_c, 0, 60, 61
2, 27554, Note_on_c, 0, 60, 0
2, 27694, Note_on_c, 0, 58, 43
2, 27798, Note_on_c, 0, 58, 0
2, 40538, Note_on_c, 0, 65, 102
2, 40558, Note_on_c, 0, 64, 53
2, 40582, Note_on_c, 0, 64, 0
2, 42134, Note_on_c, 0, 63, 76
2, 42138, Note_on_c, 0, 65, 0
2, 42218, Note_on_c, 0, 63, 0
2, 42278, Note_on_c, 0, 62, 52
2, 42502, Note_on_c, 0, 62, 0
2, 42526, Note_on_c, 0, 58, 50
2, 42550, Note_on_c, 0, 58, 0
2, 43262, Note_on_c, 0, 69, 86
2, 43330, Note_on_c, 0, 69, 0
2, 43430, Note_on_c, 0, 70, 41
2, 43622, Note_on_c, 0, 70, 0
2, 43650, Note_on_c, 0, 72, 73
2, 43738, Note_on_c, 0, 72, 0
2, 43830, Note_on_c, 0, 73, 64
2, 44054, Note_on_c, 0, 73, 0
2, 44126, Note_on_c, 0, 73, 68
2, 44358, Note_on_c, 0, 73, 0
2, 44398, Note_on_c, 0, 72, 56
2, 44550, Note_on_c, 0, 72, 0
2, 44618, Note_on_c, 0, 70, 50
2, 44750, Note_on_c, 0, 70, 0
2, 44886, Note_on_c, 0, 68, 48
2, 44910, Note_on_c, 0, 69, 67
2, 44930, Note_on_c, 0, 68, 0
2, 45106, Note_on_c, 0, 69, 0
2, 45202, Note_on_c, 0, 62, 22
2, 45622, Note_on_c, 0, 62, 0
2, 45686, Note_on_c, 0, 62, 58
2, 45890, Note_on_c, 0, 62, 0
2, 45950, Note_on_c, 0, 62, 62
2, 45982, Note_on_c, 0, 62, 0
2, 46326, Note_on_c, 0, 60, 85
2, 46362, Note_on_c, 0, 62, 52
2, 46414, Note_on_c, 0, 60, 0
2, 46542, Note_on_c, 0, 62, 0
2, 46586, Note_on_c, 0, 60, 52
2, 46686, Note_on_c, 0, 60, 0
2, 46738, Note_on_c, 0, 58, 74
2, 46842, Note_on_c, 0, 58, 0
2, 47130, Note_on_c, 0, 62, 48
2, 47158, Note_on_c, 0, 62, 0
2, 47230, Note_on_c, 0, 65, 98
2, 47430, Note_on_c, 0, 65, 0
2, 47498, Note_on_c, 0, 63, 75
2, 47590, Note_on_c, 0, 63, 0
2, 47662, Note_on_c, 0, 62, 54
2, 47762, Note_on_c, 0, 62, 0
2, 47782, Note_on_c, 0, 63, 46
2, 47834, Note_on_c, 0, 62, 59
2, 47882, Note_on_c, 0, 63, 0
2, 47910, Note_on_c, 0, 61, 46
2, 47918, Note_on_c, 0, 62, 0
2, 47970, Note_on_c, 0, 61, 0
2, 48030, Note_on_c, 0, 62, 43
2, 48106, Note_on_c, 0, 62, 0
2, 48110, Note_on_c, 0, 63, 56
2, 48174, Note_on_c, 0, 62, 55
2, 48190, Note_on_c, 0, 63, 0
2, 48264, Note_on_c, 0, 62, 0
2, 48266, Note_on_c, 0, 61, 57
2, 48330, Note_on_c, 0, 61, 0
2, 48394, Note_on_c, 0, 62, 48
2, 48566, Note_on_c, 0, 62, 0
2, 48614, Note_on_c, 0, 67, 89
2, 48730, Note_on_c, 0, 67, 0
2, 48786, Note_on_c, 0, 65, 52
2, 48946, Note_on_c, 0, 65, 0
2, 48990, Note_on_c, 0, 62, 78
2, 49078, Note_on_c, 0, 62, 0
2, 49154, Note_on_c, 0, 58, 24
2, 49398, Note_on_c, 0, 58, 0
2, 49502, Note_on_c, 0, 58, 71
2, 49780, Note_on_c, 0, 58, 0
2, 49812, Note_on_c, 0, 57, 35
2, 49866, Note_on_c, 0, 57, 0
2, 49906, Note_on_c, 0, 58, 50
2, 50102, Note_on_c, 0, 58, 0
2, 50170, Note_on_c, 0, 62, 48
2, 50226, Note_on_c, 0, 62, 0
2, 50278, Note_on_c, 0, 65, 94
2, 50478, Note_on_c, 0, 65, 0
2, 50538, Note_on_c, 0, 63, 69
2, 50654, Note_on_c, 0, 63, 0
2, 50710, Note_on_c, 0, 62, 52
2, 50850, Note_on_c, 0, 62, 0
2, 50926, Note_on_c, 0, 57, 56
2, 51066, Note_on_c, 0, 57, 0
2, 51066, Note_on_c, 0, 56, 47
2, 51238, Note_on_c, 0, 56, 0
2, 51286, Note_on_c, 0, 61, 69
2, 51382, Note_on_c, 0, 61, 0
2, 51450, Note_on_c, 0, 60, 47
2, 51594, Note_on_c, 0, 60, 0
2, 51666, Note_on_c, 0, 55, 61
2, 51790, Note_on_c, 0, 55, 0
2, 51814, Note_on_c, 0, 54, 46
2, 51990, Note_on_c, 0, 54, 0
2, 52074, Note_on_c, 0, 58, 46
2, 52134, Note_on_c, 0, 58, 0
2, 52990, Note_on_c, 0, 60, 46
2, 53066, Note_on_c, 0, 61, 37
2, 53114, Note_on_c, 0, 60, 0
2, 53158, Note_on_c, 0, 61, 0
2, 53162, Note_on_c, 0, 62, 52
2, 53214, Note_on_c, 0, 62, 0
2, 53246, Note_on_c, 0, 65, 96
2, 53352, Note_on_c, 0, 65, 0
2, 53494, Note_on_c, 0, 61, 43
2, 53554, Note_on_c, 0, 61, 0
2, 53562, Note_on_c, 0, 62, 52
2, 53598, Note_on_c, 0, 62, 0
2, 53638, Note_on_c, 0, 65, 94
2, 53758, Note_on_c, 0, 65, 0
2, 53762, Note_on_c, 0, 60, 43
2, 53822, Note_on_c, 0, 61, 26
2, 53858, Note_on_c, 0, 61, 0
2, 53882, Note_on_c, 0, 60, 0
2, 53898, Note_on_c, 0, 62, 42
2, 53986, Note_on_c, 0, 62, 0
2, 54106, Note_on_c, 0, 55, 64
2, 54326, Note_on_c, 0, 55, 0
2, 54514, Note_on_c, 0, 55, 56
2, 55154, Note_on_c, 0, 55, 0
2, 55402, Note_on_c, 0, 57, 59
2, 55458, Note_on_c, 0, 57, 0
2, 55534, Note_on_c, 0, 58, 57
2, 55602, Note_on_c, 0, 58, 0
2, 55690, Note_on_c, 0, 59, 53
2, 55934, Note_on_c, 0, 59, 0
2, 56194, Note_on_c, 0, 61, 72
2, 56282, Note_on_c, 0, 61, 0
2, 56310, Note_on_c, 0, 63, 75
2, 56402, Note_on_c, 0, 63, 0
2, 56450, Note_on_c, 0, 64, 45
2, 56466, Note_on_c, 0, 65, 44
2, 56494, Note_on_c, 0, 65, 0
2, 56522, Note_on_c, 0, 64, 0
2, 56550, Note_on_c, 0, 66, 48
2, 56574, Note_on_c, 0, 65, 60
2, 56578, Note_on_c, 0, 66, 0
2, 56646, Note_on_c, 0, 65, 0
2, 56678, Note_on_c, 0, 69, 94
2, 56782, Note_on_c, 0, 69, 0
2, 56814, Note_on_c, 0, 72, 120
2, 56942, Note_on_c, 0, 72, 0
2, 56962, Note_on_c, 0, 69, 81
2, 57034, Note_on_c, 0, 69, 0
2, 57078, Note_on_c, 0, 72, 117
2, 57198, Note_on_c, 0, 72, 0
2, 57202, Note_on_c, 0, 69, 75
2, 57298, Note_on_c, 0, 69, 0
2, 57338, Note_on_c, 0, 65, 66
2, 57410, Note_on_c, 0, 65, 0
2, 57446, Note_on_c, 0, 62, 49
2, 57510, Note_on_c, 0, 62, 0
2, 57570, Note_on_c, 0, 58, 36
2, 57682, Note_on_c, 0, 58, 0
2, 57714, Note_on_c, 0, 55, 56
2, 57742, Note_on_c, 0, 55, 0
2, 57822, Note_on_c, 0, 65, 89
2, 57922, Note_on_c, 0, 65, 0
2, 57970, Note_on_c, 0, 62, 62
2, 57994, Note_on_c, 0, 62, 0
2, 58098, Note_on_c, 0, 63, 87
2, 58222, Note_on_c, 0, 63, 0
2, 58234, Note_on_c, 0, 58, 60
2, 58346, Note_on_c, 0, 58, 0
2, 58390, Note_on_c, 0, 55, 28
2, 58454, Note_on_c, 0, 55, 0
2, 59258, Note_on_c, 0, 61, 68
2, 59326, Note_on_c, 0, 61, 0
2, 59374, Note_on_c, 0, 62, 74
2, 59438, Note_on_c, 0, 62, 0
2, 59502, Note_on_c, 0, 65, 50
2, 59546, Note_on_c, 0, 65, 0
2, 59606, Note_on_c, 0, 69, 86
2, 59666, Note_on_c, 0, 69, 0
2, 59742, Note_on_c, 0, 72, 127
2, 60318, Note_on_c, 0, 69, 68
2, 60350, Note_on_c, 0, 72, 0
2, 60414, Note_on_c, 0, 69, 0
2, 60438, Note_on_c, 0, 65, 73
2, 60514, Note_on_c, 0, 65, 0
2, 60550, Note_on_c, 0, 62, 50
2, 60582, Note_on_c, 0, 62, 0
2, 60694, Note_on_c, 0, 70, 84
2, 60866, Note_on_c, 0, 70, 0
2, 60934, Note_on_c, 0, 67, 75
2, 61046, Note_on_c, 0, 67, 0
2, 61114, Note_on_c, 0, 63, 33
2, 61330, Note_on_c, 0, 63, 0
2, 61342, Note_on_c, 0, 60, 31
2, 61382, Note_on_c, 0, 60, 0
2, 61462, Note_on_c, 0, 64, 72
2, 61526, Note_on_c, 0, 64, 0
2, 61542, Note_on_c, 0, 65, 74
2, 61646, Note_on_c, 0, 65, 0
2, 61814, Note_on_c, 0, 65, 84
2, 62050, Note_on_c, 0, 65, 0
2, 62238, Note_on_c, 0, 64, 52
2, 62274, Note_on_c, 0, 65, 70
2, 62306, Note_on_c, 0, 64, 0
2, 62450, Note_on_c, 0, 65, 0
2, 62570, Note_on_c, 0, 65, 86
2, 62770, Note_on_c, 0, 65, 0
2, 62822, Note_on_c, 0, 63, 63
2, 62902, Note_on_c, 0, 63, 0
2, 62966, Note_on_c, 0, 62, 56
2, 63038, Note_on_c, 0, 62, 0
2, 63050, Note_on_c, 0, 63, 49
2, 63110, Note_on_c, 0, 62, 51
2, 63150, Note_on_c, 0, 63, 0
2, 63210, Note_on_c, 0, 62, 0
2, 63218, Note_on_c, 0, 61, 52
2, 63282, Note_on_c, 0, 61, 0
2, 63354, Note_on_c, 0, 62, 59
2, 63530, Note_on_c, 0, 62, 0
2, 63602, Note_on_c, 0, 65, 89
2, 63718, Note_on_c, 0, 65, 0
2, 63798, Note_on_c, 0, 63, 55
2, 63974, Note_on_c, 0, 63, 0
2, 63998, Note_on_c, 0, 59, 38
2, 64042, Note_on_c, 0, 59, 0
2, 64110, Note_on_c, 0, 62, 72
2, 64306, Note_on_c, 0, 62, 0
2, 64882, Note_on_c, 0, 65, 48
2, 64946, Note_on_c, 0, 65, 0
2, 64974, Note_on_c, 0, 67, 54
2, 65058, Note_on_c, 0, 67, 0
2, 65070, Note_on_c, 0, 65, 43
2, 65146, Note_on_c, 0, 65, 0
2, 65150, Note_on_c, 0, 64, 56
2, 65210, Note_on_c, 0, 64, 0
2, 65278, Note_on_c, 0, 65, 57
2, 65354, Note_on_c, 0, 65, 0
2, 65390, Note_on_c, 0, 70, 61
2, 65474, Note_on_c, 0, 70, 0
2, 65638, Note_on_c, 0, 65, 66
2, 65734, Note_on_c, 0, 65, 0
2, 65742, Note_on_c, 0, 67, 60
2, 65830, Note_on_c, 0, 65, 52
2, 65838, Note_on_c, 0, 67, 0
2, 65898, Note_on_c, 0, 65, 0
2, 65910, Note_on_c, 0, 64, 48
2, 66002, Note_on_c, 0, 64, 0
2, 66026, Note_on_c, 0, 65, 62
2, 66114, Note_on_c, 0, 65, 0
2, 66162, Note_on_c, 0, 74, 83
2, 66226, Note_on_c, 0, 74, 0
2, 66410, Note_on_c, 0, 74, 111
2, 67174, Note_on_c, 0, 67, 56
2, 67190, Note_on_c, 0, 74, 0
2, 67450, Note_on_c, 0, 63, 46
2, 67466, Note_on_c, 0, 67, 0
2, 68334, Note_on_c, 0, 75, 89
2, 68454, Note_on_c, 0, 63, 0
2, 68650, Note_on_c, 0, 75, 0
2, 68710, Note_on_c, 0, 72, 76
2, 68874, Note_on_c, 0, 73, 4
2, 68898, Note_on_c, 0, 72, 0
2, 68946, Note_on_c, 0, 73, 0
2, 68970, Note_on_c, 0, 66, 58
2, 69082, Note_on_c, 0, 66, 0
2, 69198, Note_on_c, 0, 65, 45
2, 69358, Note_on_c, 0, 65, 0
2, 69462, Note_on_c, 0, 63, 64
2, 69674, Note_on_c, 0, 63, 0
2, 69742, Note_on_c, 0, 62, 61
2, 69898, Note_on_c, 0, 62, 0
2, 69958, Note_on_c, 0, 58, 49
2, 70098, Note_on_c, 0, 58, 0
2, 70234, Note_on_c, 0, 55, 54
2, 70430, Note_on_c, 0, 55, 0
2, 71066, Note_on_c, 0, 59, 33
2, 71106, Note_on_c, 0, 59, 0
2, 71194, Note_on_c, 0, 60, 35
2, 71230, Note_on_c, 0, 60, 0
2, 71298, Note_on_c, 0, 62, 72
2, 71358, Note_on_c, 0, 62, 0
2, 71438, Note_on_c, 0, 60, 38
2, 71526, Note_on_c, 0, 60, 0
2, 71554, Note_on_c, 0, 62, 60
2, 71586, Note_on_c, 0, 62, 0
2, 71662, Note_on_c, 0, 63, 85
2, 71738, Note_on_c, 0, 63, 0
2, 71798, Note_on_c, 0, 64, 82
2, 71882, Note_on_c, 0, 64, 0
2, 71918, Note_on_c, 0, 67, 102
2, 72014, Note_on_c, 0, 67, 0
2, 72038, Note_on_c, 0, 64, 81
2, 72134, Note_on_c, 0, 64, 0
2, 72166, Note_on_c, 0, 65, 82
2, 72242, Note_on_c, 0, 65, 0
2, 72274, Note_on_c, 0, 63, 66
2, 72322, Note_on_c, 0, 63, 0
2, 72374, Note_on_c, 0, 60, 54
2, 72430, Note_on_c, 0, 60, 0
2, 72462, Note_on_c, 0, 56, 32
2, 72514, Note_on_c, 0, 56, 0
2, 72562, Note_on_c, 0, 55, 45
2, 72586, Note_on_c, 0, 55, 0
2, 72654, Note_on_c, 0, 58, 64
2, 72738, Note_on_c, 0, 58, 0
2, 72886, Note_on_c, 0, 56, 61
2, 72950, Note_on_c, 0, 56, 0
2, 72998, Note_on_c, 0, 53, 31
2, 73030, Note_on_c, 0, 53, 0
2, 73082, Note_on_c, 0, 55, 33
2, 73118, Note_on_c, 0, 55, 0
2, 74086, Note_on_c, 0, 55, 45
2, 74118, Note_on_c, 0, 55, 0
2, 74602, Note_on_c, 0, 70, 57
2, 74614, Note_on_c, 0, 58, 35
2, 74650, Note_on_c, 0, 58, 0
2, 74666, Note_on_c, 0, 70, 0
2, 74854, Note_on_c, 0, 70, 88
2, 74870, Note_on_c, 0, 58, 77
2, 75066, Note_on_c, 0, 70, 0
2, 75082, Note_on_c, 0, 58, 0
2, 75390, Note_on_c, 0, 69, 82
2, 75398, Note_on_c, 0, 57, 76
2, 75422, Note_on_c, 0, 68, 32
2, 75454, Note_on_c, 0, 68, 0
2, 75458, Note_on_c, 0, 57, 0
2, 75462, Note_on_c, 0, 69, 0
2, 75522, Note_on_c, 0, 65, 54
2, 75570, Note_on_c, 0, 68, 31
2, 75590, Note_on_c, 0, 65, 0
2, 75602, Note_on_c, 0, 68, 0
2, 75650, Note_on_c, 0, 68, 88
2, 75654, Note_on_c, 0, 56, 75
2, 75870, Note_on_c, 0, 68, 0
2, 75878, Note_on_c, 0, 56, 0
2, 75990, Note_on_c, 0, 67, 66
2, 75998, Note_on_c, 0, 55, 52
2, 76030, Note_on_c, 0, 55, 0
2, 76042, Note_on_c, 0, 67, 0
2, 76122, Note_on_c, 0, 63, 46
2, 76202, Note_on_c, 0, 63, 0
2, 76254, Note_on_c, 0, 66, 81
2, 76258, Note_on_c, 0, 54, 80
2, 76266, Note_on_c, 0, 63, 52
2, 76730, Note_on_c, 0, 63, 0
2, 76730, Note_on_c, 0, 66, 0
2, 76738, Note_on_c, 0, 54, 0
2, 76806, Note_on_c, 0, 65, 49
2, 76806, Note_on_c, 0, 53, 45
2, 76814, Note_on_c, 0, 62, 50
2, 77322, Note_on_c, 0, 53, 0
2, 77358, Note_on_c, 0, 65, 0
2, 77378, Note_on_c, 0, 62, 0
2, 77934, Note_on_c, 0, 70, 92
2, 77942, Note_on_c, 0, 58, 85
2, 77942, Note_on_c, 0, 65, 86
2, 78058, Note_on_c, 0, 65, 0
2, 78066, Note_on_c, 0, 70, 0
2, 78114, Note_on_c, 0, 58, 0
2, 78306, Note_on_c, 0, 67, 82
2, 78306, Note_on_c, 0, 62, 81
2, 78314, Note_on_c, 0, 55, 63
2, 78362, Note_on_c, 0, 67, 0
2, 78370, Note_on_c, 0, 62, 0
2, 78406, Note_on_c, 0, 55, 0
2, 90250, Note_on_c, 0, 53, 48
2, 90298, Note_on_c, 0, 53, 0
2, 90382, Note_on_c, 0, 55, 66
2, 90458, Note_on_c, 0, 55, 0
2, 90502, Note_on_c, 0, 58, 88
2, 90614, Note_on_c, 0, 58, 0
2, 90650, Note_on_c, 0, 57, 38
2, 90722, Note_on_c, 0, 57, 0
2, 91014, Note_on_c, 0, 57, 54
2, 91082, Note_on_c, 0, 57, 0
2, 91098, Note_on_c, 0, 58, 58
2, 91126, Note_on_c, 0, 58, 0
2, 91202, Note_on_c, 0, 62, 70
2, 91266, Note_on_c, 0, 62, 0
2, 91298, Note_on_c, 0, 65, 63
2, 91350, Note_on_c, 0, 65, 0
2, 91390, Note_on_c, 0, 69, 85
2, 91458, Note_on_c, 0, 69, 0
2, 91494, Note_on_c, 0, 72, 117
2, 91606, Note_on_c, 0, 70, 78
2, 91618, Note_on_c, 0, 72, 0
2, 91718, Note_on_c, 0, 70, 0
2, 91758, Note_on_c, 0, 67, 61
2, 91810, Note_on_c, 0, 67, 0
2, 91994, Note_on_c, 0, 63, 71
2, 92062, Note_on_c, 0, 63, 0
2, 92154, Note_on_c, 0, 62, 44
2, 92358, Note_on_c, 0, 62, 0
2, 92418, Note_on_c, 0, 63, 56
2, 92478, Note_on_c, 0, 63, 0
2, 92526, Note_on_c, 0, 65, 82
2, 92738, Note_on_c, 0, 65, 0
2, 92786, Note_on_c, 0, 62, 71
2, 92894, Note_on_c, 0, 62, 0
2, 92982, Note_on_c, 0, 57, 25
2, 93146, Note_on_c, 0, 57, 0
2, 93178, Note_on_c, 0, 60, 79
2, 93270, Note_on_c, 0, 60, 0
2, 93314, Note_on_c, 0, 58, 57
2, 93550, Note_on_c, 0, 58, 0
2, 93694, Note_on_c, 0, 58, 73
2, 94038, Note_on_c, 0, 58, 0
2, 94078, Note_on_c, 0, 55, 43
2, 94310, Note_on_c, 0, 55, 0
2, 94466, Note_on_c, 0, 53, 54
2, 94670, Note_on_c, 0, 53, 0
2, 95490, Note_on_c, 0, 62, 122
2, 95730, Note_on_c, 0, 61, 52
2, 95766, Note_on_c, 0, 62, 0
2, 95814, Note_on_c, 0, 60, 46
2, 95842, Note_on_c, 0, 61, 0
2, 95890, Note_on_c, 0, 60, 0
2, 95894, Note_on_c, 0, 59, 45
2, 95934, Note_on_c, 0, 59, 0
2, 96006, Note_on_c, 0, 62, 87
2, 96222, Note_on_c, 0, 61, 49
2, 96226, Note_on_c, 0, 62, 0
2, 96294, Note_on_c, 0, 60, 31
2, 96326, Note_on_c, 0, 61, 0
2, 96370, Note_on_c, 0, 60, 0
2, 96402, Note_on_c, 0, 59, 36
2, 96570, Note_on_c, 0, 59, 0
2, 96622, Note_on_c, 0, 60, 90
2, 96838, Note_on_c, 0, 59, 50
2, 96882, Note_on_c, 0, 58, 46
2, 96890, Note_on_c, 0, 60, 0
2, 96922, Note_on_c, 0, 59, 0
2, 96994, Note_on_c, 0, 58, 0
2, 97038, Note_on_c, 0, 57, 20
2, 97110, Note_on_c, 0, 57, 0
2, 97158, Note_on_c, 0, 60, 76
2, 97378, Note_on_c, 0, 60, 0
2, 97406, Note_on_c, 0, 57, 63
2, 97510, Note_on_c, 0, 57, 0
2, 97586, Note_on_c, 0, 58, 34
2, 97730, Note_on_c, 0, 58, 0
2, 97774, Note_on_c, 0, 60, 66
2, 97870, Note_on_c, 0, 60, 0
2, 97922, Note_on_c, 0, 62, 49
2, 97978, Note_on_c, 0, 62, 0
2, 98026, Note_on_c, 0, 63, 63
2, 98078, Note_on_c, 0, 63, 0
2, 98114, Note_on_c, 0, 64, 68
2, 98190, Note_on_c, 0, 64, 0
2, 98210, Note_on_c, 0, 65, 56
2, 98270, Note_on_c, 0, 65, 0
2, 98294, Note_on_c, 0, 66, 76
2, 98362, Note_on_c, 0, 66, 0
2, 98382, Note_on_c, 0, 67, 81
2, 98510, Note_on_c, 0, 67, 0
2, 98662, Note_on_c, 0, 65, 88
2, 98910, Note_on_c, 0, 65, 0
2, 98938, Note_on_c, 0, 62, 74
2, 99042, Note_on_c, 0, 62, 0
2, 99222, Note_on_c, 0, 68, 90
2, 99422, Note_on_c, 0, 68, 0
2, 99466, Note_on_c, 0, 56, 60
2, 99594, Note_on_c, 0, 56, 0
2, 99702, Note_on_c, 0, 53, 49
2, 99826, Note_on_c, 0, 53, 0
2, 99890, Note_on_c, 0, 65, 66
2, 99978, Note_on_c, 0, 65, 0
2, 101738, Note_on_c, 0, 65, 50
2, 101782, Note_on_c, 0, 65, 0
2, 101866, Note_on_c, 0, 67, 45
2, 101894, Note_on_c, 0, 67, 0
2, 101978, Note_on_c, 0, 70, 56
2, 102018, Note_on_c, 0, 70, 0
2, 102130, Note_on_c, 0, 73, 81
2, 102254, Note_on_c, 0, 74, 81
2, 102258, Note_on_c, 0, 73, 0
2, 102338, Note_on_c, 0, 74, 0
2, 102518, Note_on_c, 0, 75, 84
2, 102650, Note_on_c, 0, 75, 0
2, 102782, Note_on_c, 0, 76, 117
2, 102786, Note_on_c, 0, 75, 84
2, 102802, Note_on_c, 0, 74, 49
2, 102830, Note_on_c, 0, 75, 0
2, 102834, Note_on_c, 0, 74, 0
2, 102886, Note_on_c, 0, 76, 0
2, 102950, Note_on_c, 0, 77, 117
2, 103090, Note_on_c, 0, 77, 0
2, 103170, Note_on_c, 0, 74, 107
2, 103270, Note_on_c, 0, 74, 0
2, 103338, Note_on_c, 0, 70, 52
2, 103574, Note_on_c, 0, 70, 0
2, 103578, Note_on_c, 0, 67, 43
2, 103614, Note_on_c, 0, 67, 0
2, 103694, Note_on_c, 0, 70, 57
2, 103870, Note_on_c, 0, 70, 0
2, 105310, Note_on_c, 0, 75, 72
2, 105326, Note_on_c, 0, 76, 79
2, 105370, Note_on_c, 0, 75, 0
2, 105482, Note_on_c, 0, 76, 0
2, 105590, Note_on_c, 0, 75, 89
2, 105754, Note_on_c, 0, 75, 0
2, 105846, Note_on_c, 0, 73, 83
2, 105886, Note_on_c, 0, 74, 78
2, 105922, Note_on_c, 0, 73, 0
2, 105986, Note_on_c, 0, 74, 0
2, 106094, Note_on_c, 0, 70, 67
2, 106222, Note_on_c, 0, 70, 0
2, 106326, Note_on_c, 0, 65, 60
2, 106518, Note_on_c, 0, 65, 0
2, 106590, Note_on_c, 0, 64, 66
2, 106714, Note_on_c, 0, 64, 0
2, 106826, Note_on_c, 0, 63, 51
2, 106974, Note_on_c, 0, 63, 0
2, 107014, Note_on_c, 0, 61, 76
2, 107134, Note_on_c, 0, 61, 0
2, 107178, Note_on_c, 0, 58, 40
2, 107354, Note_on_c, 0, 58, 0
2, 107498, Note_on_c, 0, 60, 68
2, 107750, Note_on_c, 0, 60, 0
2, 107870, Note_on_c, 0, 58, 57
2, 108130, Note_on_c, 0, 58, 0
2, 108150, Note_on_c, 0, 60, 57
2, 108282, Note_on_c, 0, 60, 0
2, 108406, Note_on_c, 0, 62, 74
2, 108490, Note_on_c, 0, 62, 0
2, 108526, Note_on_c, 0, 63, 71
2, 108626, Note_on_c, 0, 63, 0
2, 108678, Note_on_c, 0, 65, 85
2, 108686, Note_on_c, 0, 53, 66
2, 108706, Note_on_c, 0, 55, 52
2, 108730, Note_on_c, 0, 55, 0
2, 108830, Note_on_c, 0, 53, 0
2, 108854, Note_on_c, 0, 64, 27
2, 108862, Note_on_c, 0, 65, 0
2, 108886, Note_on_c, 0, 64, 0
2, 109186, Note_on_c, 0, 67, 72
2, 109206, Note_on_c, 0, 65, 38
2, 109242, Note_on_c, 0, 65, 0
2, 109262, Note_on_c, 0, 67, 0
2, 109318, Note_on_c, 0, 63, 57
2, 109342, Note_on_c, 0, 63, 0
2, 109466, Note_on_c, 0, 68, 81
2, 109486, Note_on_c, 0, 56, 52
2, 109510, Note_on_c, 0, 56, 0
2, 109534, Note_on_c, 0, 68, 0
2, 109754, Note_on_c, 0, 69, 74
2, 109846, Note_on_c, 0, 69, 0
2, 109898, Note_on_c, 0, 62, 67
2, 109926, Note_on_c, 0, 62, 0
2, 110042, Note_on_c, 0, 70, 82
2, 110050, Note_on_c, 0, 58, 65
2, 110122, Note_on_c, 0, 58, 0
2, 110130, Note_on_c, 0, 70, 0
2, 110206, Note_on_c, 0, 66, 32
2, 110246, Note_on_c, 0, 66, 0
2, 110326, Note_on_c, 0, 71, 79
2, 110350, Note_on_c, 0, 59, 46
2, 110354, Note_on_c, 0, 70, 39
2, 110386, Note_on_c, 0, 70, 0
2, 110410, Note_on_c, 0, 71, 0
2, 110414, Note_on_c, 0, 59, 0
2, 110478, Note_on_c, 0, 68, 53
2, 110502, Note_on_c, 0, 68, 0
2, 110606, Note_on_c, 0, 72, 84
2, 110614, Note_on_c, 0, 60, 66
2, 110710, Note_on_c, 0, 60, 0
2, 110726, Note_on_c, 0, 72, 0
2, 110786, Note_on_c, 0, 67, 25
2, 110826, Note_on_c, 0, 67, 0
2, 110862, Note_on_c, 0, 73, 82
2, 110878, Note_on_c, 0, 61, 49
2, 110918, Note_on_c, 0, 61, 0
2, 110958, Note_on_c, 0, 73, 0
2, 111206, Note_on_c, 0, 74, 70
2, 111206, Note_on_c, 0, 62, 72
2, 111238, Note_on_c, 0, 72, 32
2, 111266, Note_on_c, 0, 62, 0
2, 111274, Note_on_c, 0, 74, 0
2, 111286, Note_on_c, 0, 72, 0
2, 111454, Note_on_c, 0, 75, 80
2, 111458, Note_on_c, 0, 63, 77
2, 111606, Note_on_c, 0, 75, 0
2, 111610, Note_on_c, 0, 63, 0
2, 111734, Note_on_c, 0, 72, 57
2, 111738, Note_on_c, 0, 60, 53
2, 111902, Note_on_c, 0, 60, 0
2, 111918, Note_on_c, 0, 72, 0
2, 111990, Note_on_c, 0, 68, 72
2, 112110, Note_on_c, 0, 68, 0
2, 112158, Note_on_c, 0, 69, 60
2, 112302, Note_on_c, 0, 69, 0
2, 112366, Note_on_c, 0, 65, 70
2, 112442, Note_on_c, 0, 65, 0
2, 112498, Note_on_c, 0, 67, 74
2, 112686, Note_on_c, 0, 67, 0
2, 112870, Note_on_c, 0, 65, 70
2, 113094, Note_on_c, 0, 65, 0
2, 113242, Note_on_c, 0, 63, 68
2, 113438, Note_on_c, 0, 63, 0
2, 113510, Note_on_c, 0, 62, 68
2, 113838, Note_on_c, 0, 62, 0
2, 113910, Note_on_c, 0, 58, 66
2, 114002, Note_on_c, 0, 58, 0
2, 114042, Note_on_c, 0, 55, 41
2, 114198, Note_on_c, 0, 55, 0
2, 114830, Note_on_c, 0, 62, 60
2, 114882, Note_on_c, 0, 62, 0
2, 115090, Note_on_c, 0, 62, 58
2, 115142, Note_on_c, 0, 62, 0
2, 115206, Note_on_c, 0, 62, 75
2, 115426, Note_on_c, 0, 62, 0
2, 115450, Note_on_c, 0, 65, 77
2, 115526, Note_on_c, 0, 65, 0
2, 115594, Note_on_c, 0, 62, 55
2, 115770, Note_on_c, 0, 62, 0
2, 115822, Note_on_c, 0, 58, 68
2, 115922, Note_on_c, 0, 58, 0
2, 115970, Note_on_c, 0, 57, 45
2, 116150, Note_on_c, 0, 57, 0
2, 116194, Note_on_c, 0, 60, 73
2, 116274, Note_on_c, 0, 60, 0
2, 116346, Note_on_c, 0, 58, 52
2, 116534, Note_on_c, 0, 58, 0
2, 116582, Note_on_c, 0, 55, 66
2, 116810, Note_on_c, 0, 55, 0
2, 116826, Note_on_c, 0, 57, 48
2, 116902, Note_on_c, 0, 55, 56
2, 116906, Note_on_c, 0, 57, 0
2, 116982, Note_on_c, 0, 54, 54
2, 116990, Note_on_c, 0, 55, 0
2, 117054, Note_on_c, 0, 54, 0
2, 117102, Note_on_c, 0, 55, 63
2, 117230, Note_on_c, 0, 57, 78
2, 117242, Note_on_c, 0, 55, 0
2, 117322, Note_on_c, 0, 57, 0
2, 117350, Note_on_c, 0, 59, 82
2, 117458, Note_on_c, 0, 59, 0
2, 117510, Note_on_c, 0, 60, 66
2, 117670, Note_on_c, 0, 60, 0
2, 117722, Note_on_c, 0, 62, 57
2, 117854, Note_on_c, 0, 62, 0
2, 117918, Note_on_c, 0, 63, 41
2, 118090, Note_on_c, 0, 63, 0
2, 118118, Note_on_c, 0, 65, 68
2, 118218, Note_on_c, 0, 65, 0
2, 118290, Note_on_c, 0, 62, 67
2, 118378, Note_on_c, 0, 62, 0
2, 118402, Note_on_c, 0, 58, 46
2, 118498, Note_on_c, 0, 58, 0
2, 118522, Note_on_c, 0, 57, 56
2, 118578, Note_on_c, 0, 57, 0
2, 118670, Note_on_c, 0, 72, 89
2, 118806, Note_on_c, 0, 72, 0
2, 118806, Note_on_c, 0, 69, 63
2, 118874, Note_on_c, 0, 69, 0
2, 118938, Note_on_c, 0, 65, 72
2, 119018, Note_on_c, 0, 65, 0
2, 119062, Note_on_c, 0, 62, 50
2, 119122, Note_on_c, 0, 62, 0
2, 119190, Note_on_c, 0, 58, 50
2, 119290, Note_on_c, 0, 58, 0
2, 119342, Note_on_c, 0, 53, 49
2, 119370, Note_on_c, 0, 53, 0
2, 119570, Note_on_c, 0, 74, 117
2, 119670, Note_on_c, 0, 74, 0
2, 119710, Note_on_c, 0, 70, 84
2, 119790, Note_on_c, 0, 70, 0
2, 119838, Note_on_c, 0, 67, 68
2, 119962, Note_on_c, 0, 67, 0
2, 119966, Note_on_c, 0, 63, 60
2, 120042, Note_on_c, 0, 63, 0
2, 120106, Note_on_c, 0, 62, 58
2, 120138, Note_on_c, 0, 62, 0
2, 120414, Note_on_c, 0, 81, 117
2, 120418, Note_on_c, 0, 79, 98
2, 120494, Note_on_c, 0, 81, 0
2, 120534, Note_on_c, 0, 79, 0
2, 120678, Note_on_c, 0, 78, 82
2, 120690, Note_on_c, 0, 79, 84
2, 120790, Note_on_c, 0, 79, 0
2, 120806, Note_on_c, 0, 78, 0
2, 120934, Note_on_c, 0, 77, 89
2, 121142, Note_on_c, 0, 77, 0
2, 121202, Note_on_c, 0, 75, 82
2, 121374, Note_on_c, 0, 75, 0
2, 121446, Note_on_c, 0, 74, 81
2, 121626, Note_on_c, 0, 74, 0
2, 121726, Note_on_c, 0, 72, 84
2, 121834, Note_on_c, 0, 71, 46
2, 121922, Note_on_c, 0, 71, 0
2, 121926, Note_on_c, 0, 72, 0
2, 121998, Note_on_c, 0, 71, 74
2, 122194, Note_on_c, 0, 71, 0
2, 122246, Note_on_c, 0, 70, 69
2, 122446, Note_on_c, 0, 70, 0
2, 122498, Note_on_c, 0, 68, 66
2, 122726, Note_on_c, 0, 68, 0
2, 122734, Note_on_c, 0, 67, 75
2, 123122, Note_on_c, 0, 67, 0
2, 123126, Note_on_c, 0, 66, 58
2, 123186, Note_on_c, 0, 66, 0
2, 123254, Note_on_c, 0, 67, 48
2, 123490, Note_on_c, 0, 67, 0
2, 123502, Note_on_c, 0, 72, 79
2, 123922, Note_on_c, 0, 72, 0
2, 123994, Note_on_c, 0, 70, 64
2, 124210, Note_on_c, 0, 70, 0
2, 124266, Note_on_c, 0, 69, 72
2, 124378, Note_on_c, 0, 69, 0
2, 124422, Note_on_c, 0, 65, 45
2, 124634, Note_on_c, 0, 65, 0
2, 124786, Note_on_c, 0, 68, 76
2, 125066, Note_on_c, 0, 68, 0
2, 125154, Note_on_c, 0, 67, 67
2, 125154, Note_on_c, 0, 63, 60
2, 125414, Note_on_c, 0, 63, 0
2, 125434, Note_on_c, 0, 67, 0
2, 125522, Note_on_c, 0, 66, 57
2, 125534, Note_on_c, 0, 62, 53
2, 125698, Note_on_c, 0, 62, 0
2, 125754, Note_on_c, 0, 66, 0
2, 125810, Note_on_c, 0, 65, 65
2, 125818, Note_on_c, 0, 62, 56
2, 125914, Note_on_c, 0, 62, 0
2, 125914, Note_on_c, 0, 65, 0
2, 138994, Note_on_c, 0, 65, 42
2, 139022, Note_on_c, 0, 65, 0
2, 139118, Note_on_c, 0, 65, 66
2, 139142, Note_on_c, 0, 65, 0
2, 139382, Note_on_c, 0, 65, 63
2, 139406, Note_on_c, 0, 65, 0
2, 139494, Note_on_c, 0, 65, 68
2, 139534, Note_on_c, 0, 65, 0
2, 139754, Note_on_c, 0, 65, 56
2, 139782, Note_on_c, 0, 65, 0
2, 139878, Note_on_c, 0, 65, 57
2, 139922, Note_on_c, 0, 65, 0
2, 140114, Note_on_c, 0, 65, 49
2, 140138, Note_on_c, 0, 65, 0
2, 140238, Note_on_c, 0, 65, 70
2, 140262, Note_on_c, 0, 65, 0
2, 140494, Note_on_c, 0, 65, 49
2, 140522, Note_on_c, 0, 65, 0
2, 140622, Note_on_c, 0, 65, 54
2, 140646, Note_on_c, 0, 65, 0
2, 140886, Note_on_c, 0, 65, 63
2, 140914, Note_on_c, 0, 65, 0
2, 141014, Note_on_c, 0, 65, 65
2, 141054, Note_on_c, 0, 65, 0
2, 141150, Note_on_c, 0, 70, 84
2, 141502, Note_on_c, 0, 70, 0
2, 141774, Note_on_c, 0, 65, 63
2, 141806, Note_on_c, 0, 65, 0
2, 142050, Note_on_c, 0, 65, 68
2, 142082, Note_on_c, 0, 65, 0
2, 142178, Note_on_c, 0, 65, 68
2, 142206, Note_on_c, 0, 65, 0
2, 142402, Note_on_c, 0, 65, 68
2, 142444, Note_on_c, 0, 65, 0
2, 142542, Note_on_c, 0, 65, 39
2, 142574, Note_on_c, 0, 65, 0
2, 142686, Note_on_c, 0, 71, 89
2, 142822, Note_on_c, 0, 71, 0
2, 142966, Note_on_c, 0, 65, 48
2, 142994, Note_on_c, 0, 65, 0
2, 143230, Note_on_c, 0, 72, 99
2, 143486, Note_on_c, 0, 72, 0
2, 143714, Note_on_c, 0, 60, 36
2, 143750, Note_on_c, 0, 60, 0
2, 143854, Note_on_c, 0, 73, 73
2, 143862, Note_on_c, 0, 61, 62
2, 144070, Note_on_c, 0, 73, 0
2, 144074, Note_on_c, 0, 61, 0
2, 144138, Note_on_c, 0, 74, 57
2, 144142, Note_on_c, 0, 62, 52
2, 144234, Note_on_c, 0, 74, 0
2, 144242, Note_on_c, 0, 62, 0
2, 144386, Note_on_c, 0, 63, 65
2, 144394, Note_on_c, 0, 75, 54
2, 144410, Note_on_c, 0, 73, 41
2, 144546, Note_on_c, 0, 73, 0
2, 144546, Note_on_c, 0, 75, 0
2, 144554, Note_on_c, 0, 63, 0
2, 144626, Note_on_c, 0, 76, 58
2, 144626, Note_on_c, 0, 64, 62
2, 144986, Note_on_c, 0, 64, 0
2, 145038, Note_on_c, 0, 76, 0
2, 145126, Note_on_c, 0, 77, 76
2, 145134, Note_on_c, 0, 65, 45
2, 145150, Note_on_c, 0, 67, 42
2, 145182, Note_on_c, 0, 67, 0
2, 145202, Note_on_c, 0, 65, 0
2, 145226, Note_on_c, 0, 77, 0
2, 145502, Note_on_c, 0, 79, 92
2, 145502, Note_on_c, 0, 75, 84
2, 146258, Note_on_c, 0, 75, 0
2, 146262, Note_on_c, 0, 79, 0
2, 146326, Note_on_c, 0, 74, 66
2, 146326, Note_on_c, 0, 77, 57
2, 146518, Note_on_c, 0, 74, 0
2, 146526, Note_on_c, 0, 77, 0
2, 146554, Note_on_c, 0, 75, 68
2, 146554, Note_on_c, 0, 72, 57
2, 146642, Note_on_c, 0, 72, 0
2, 146718, Note_on_c, 0, 75, 0
2, 146766, Note_on_c, 0, 70, 46
2, 146782, Note_on_c, 0, 74, 54
2, 146882, Note_on_c, 0, 70, 0
2, 146906, Note_on_c, 0, 74, 0
2, 146954, Note_on_c, 0, 72, 63
2, 146954, Note_on_c, 0, 69, 50
2, 147026, Note_on_c, 0, 72, 0
2, 147046, Note_on_c, 0, 69, 0
2, 147114, Note_on_c, 0, 70, 48
2, 147246, Note_on_c, 0, 70, 0
2, 147314, Note_on_c, 0, 68, 61
2, 147334, Note_on_c, 0, 65, 48
2, 147402, Note_on_c, 0, 65, 0
2, 147426, Note_on_c, 0, 68, 0
2, 147506, Note_on_c, 0, 67, 29
2, 147642, Note_on_c, 0, 67, 0
2, 147702, Note_on_c, 0, 68, 56
2, 147722, Note_on_c, 0, 65, 39
2, 147766, Note_on_c, 0, 65, 0
2, 147790, Note_on_c, 0, 68, 0
2, 147830, Note_on_c, 0, 70, 68
2, 147862, Note_on_c, 0, 67, 39
2, 147906, Note_on_c, 0, 67, 0
2, 148102, Note_on_c, 0, 70, 0
2, 148182, Note_on_c, 0, 63, 49
2, 148206, Note_on_c, 0, 60, 32
2, 148382, Note_on_c, 0, 60, 0
2, 148386, Note_on_c, 0, 63, 0
2, 148450, Note_on_c, 0, 63, 57
2, 148458, Note_on_c, 0, 60, 41
2, 148486, Note_on_c, 0, 60, 0
2, 148506, Note_on_c, 0, 63, 0
2, 148966, Note_on_c, 0, 69, 75
2, 149082, Note_on_c, 0, 69, 0
2, 149230, Note_on_c, 0, 73, 49
2, 149254, Note_on_c, 0, 74, 38
2, 149290, Note_on_c, 0, 74, 0
2, 149294, Note_on_c, 0, 73, 0
2, 149874, Note_on_c, 0, 77, 78
2, 149950, Note_on_c, 0, 77, 0
2, 149998, Note_on_c, 0, 71, 50
2, 150058, Note_on_c, 0, 71, 0
2, 150122, Note_on_c, 0, 75, 73
2, 150242, Note_on_c, 0, 75, 0
2, 150270, Note_on_c, 0, 70, 40
2, 150346, Note_on_c, 0, 70, 0
2, 150382, Note_on_c, 0, 74, 81
2, 150546, Note_on_c, 0, 74, 0
2, 150614, Note_on_c, 0, 69, 66
2, 150762, Note_on_c, 0, 69, 0
2, 151266, Note_on_c, 0, 69, 81
2, 151286, Note_on_c, 0, 68, 39
2, 151338, Note_on_c, 0, 68, 0
2, 151514, Note_on_c, 0, 68, 54
2, 151538, Note_on_c, 0, 69, 0
2, 151562, Note_on_c, 0, 68, 0
2, 151582, Note_on_c, 0, 67, 40
2, 151602, Note_on_c, 0, 66, 63
2, 151610, Note_on_c, 0, 67, 0
2, 151686, Note_on_c, 0, 66, 0
2, 151702, Note_on_c, 0, 65, 48
2, 152286, Note_on_c, 0, 69, 92
2, 152310, Note_on_c, 0, 65, 0
2, 152494, Note_on_c, 0, 68, 58
2, 152534, Note_on_c, 0, 69, 0
2, 152570, Note_on_c, 0, 68, 0
2, 152586, Note_on_c, 0, 67, 45
2, 152618, Note_on_c, 0, 67, 0
2, 152618, Note_on_c, 0, 66, 57
2, 152678, Note_on_c, 0, 66, 0
2, 152702, Note_on_c, 0, 65, 45
2, 152778, Note_on_c, 0, 65, 0
2, 152822, Note_on_c, 0, 69, 86
2, 153058, Note_on_c, 0, 69, 0
2, 153062, Note_on_c, 0, 68, 63
2, 153154, Note_on_c, 0, 68, 0
2, 153210, Note_on_c, 0, 67, 63
2, 153398, Note_on_c, 0, 67, 0
2, 153458, Note_on_c, 0, 65, 77
2, 153558, Note_on_c, 0, 65, 0
2, 153646, Note_on_c, 0, 63, 43
2, 153854, Note_on_c, 0, 63, 0
2, 153890, Note_on_c, 0, 62, 46
2, 153930, Note_on_c, 0, 62, 0
2, 153986, Note_on_c, 0, 63, 74
2, 154210, Note_on_c, 0, 63, 0
2, 154250, Note_on_c, 0, 65, 52
2, 154310, Note_on_c, 0, 65, 0
2, 154366, Note_on_c, 0, 59, 58
2, 154662, Note_on_c, 0, 59, 0
2, 154722, Note_on_c, 0, 59, 75
2, 155002, Note_on_c, 0, 60, 71
2, 155030, Note_on_c, 0, 59, 0
2, 155142, Note_on_c, 0, 60, 0
2, 155206, Note_on_c, 0, 57, 50
2, 155402, Note_on_c, 0, 57, 0
2, 155490, Note_on_c, 0, 57, 72
2, 155714, Note_on_c, 0, 57, 0
2, 155770, Note_on_c, 0, 58, 58
2, 155854, Note_on_c, 0, 58, 0
2, 155918, Note_on_c, 0, 55, 49
2, 156118, Note_on_c, 0, 55, 0
2, 156246, Note_on_c, 0, 55, 61
2, 156518, Note_on_c, 0, 55, 0
2, 157034, Note_on_c, 0, 57, 39
2, 157126, Note_on_c, 0, 57, 0
2, 157666, Note_on_c, 0, 57, 59
2, 157706, Note_on_c, 0, 57, 0
2, 157798, Note_on_c, 0, 58, 47
2, 157822, Note_on_c, 0, 58, 0
2, 157918, Note_on_c, 0, 60, 68
2, 157970, Note_on_c, 0, 60, 0
2, 158046, Note_on_c, 0, 63, 87
2, 158134, Note_on_c, 0, 63, 0
2, 158190, Note_on_c, 0, 67, 120
2, 158534, Note_on_c, 0, 67, 0
2, 158578, Note_on_c, 0, 63, 70
2, 158654, Note_on_c, 0, 63, 0
2, 158706, Note_on_c, 0, 60, 57
2, 158806, Note_on_c, 0, 60, 0
2, 158838, Note_on_c, 0, 56, 68
2, 158938, Note_on_c, 0, 56, 0
2, 158990, Note_on_c, 0, 55, 56
2, 159030, Note_on_c, 0, 55, 0
2, 159358, Note_on_c, 0, 70, 98
2, 159854, Note_on_c, 0, 70, 0
2, 159882, Note_on_c, 0, 67, 63
2, 159966, Note_on_c, 0, 67, 0
2, 160062, Note_on_c, 0, 66, 49
2, 160086, Note_on_c, 0, 66, 0
2, 160110, Note_on_c, 0, 62, 30
2, 160146, Note_on_c, 0, 62, 0
2, 160742, Note_on_c, 0, 74, 111
2, 161258, Note_on_c, 0, 70, 52
2, 161278, Note_on_c, 0, 74, 0
2, 161330, Note_on_c, 0, 70, 0
2, 161394, Note_on_c, 0, 67, 39
2, 161470, Note_on_c, 0, 67, 0
2, 161474, Note_on_c, 0, 63, 47
2, 161526, Note_on_c, 0, 63, 0
2, 161634, Note_on_c, 0, 62, 44
2, 161766, Note_on_c, 0, 62, 0
2, 161786, Note_on_c, 0, 69, 48
2, 161842, Note_on_c, 0, 69, 0
2, 162274, Note_on_c, 0, 63, 80
2, 162278, Note_on_c, 0, 67, 74
2, 162350, Note_on_c, 0, 67, 0
2, 162350, Note_on_c, 0, 63, 0
2, 162490, Note_on_c, 0, 66, 26
2, 162570, Note_on_c, 0, 66, 0
2, 162670, Note_on_c, 0, 65, 64
2, 162678, Note_on_c, 0, 62, 58
2, 162710, Note_on_c, 0, 62, 0
2, 162734, Note_on_c, 0, 65, 0
2, 163054, Note_on_c, 0, 62, 66
2, 163054, Note_on_c, 0, 65, 66
2, 163086, Note_on_c, 0, 65, 0
2, 163090, Note_on_c, 0, 62, 0
2, 163554, Note_on_c, 0, 65, 81
2, 163822, Note_on_c, 0, 65, 0
2, 163842, Note_on_c, 0, 64, 45
2, 163894, Note_on_c, 0, 64, 0
2, 163946, Note_on_c, 0, 65, 54
2, 164146, Note_on_c, 0, 65, 0
2, 164218, Note_on_c, 0, 70, 60
2, 164286, Note_on_c, 0, 70, 0
2, 164338, Note_on_c, 0, 65, 46
2, 164630, Note_on_c, 0, 65, 0
2, 164690, Note_on_c, 0, 74, 89
2, 164990, Note_on_c, 0, 74, 0
2, 165082, Note_on_c, 0, 65, 54
2, 165398, Note_on_c, 0, 65, 0
2, 165522, Note_on_c, 0, 74, 85
2, 165718, Note_on_c, 0, 74, 0
2, 165874, Note_on_c, 0, 65, 63
2, 166154, Note_on_c, 0, 65, 0
2, 166246, Note_on_c, 0, 74, 94
2, 166470, Note_on_c, 0, 74, 0
2, 166514, Note_on_c, 0, 72, 83
2, 167226, Note_on_c, 0, 72, 0
2, 167298, Note_on_c, 0, 70, 76
2, 167382, Note_on_c, 0, 70, 0
2, 167438, Note_on_c, 0, 69, 57
2, 167694, Note_on_c, 0, 69, 0
2, 167826, Note_on_c, 0, 74, 62
2, 167846, Note_on_c, 0, 72, 55
2, 167890, Note_on_c, 0, 74, 0
2, 168110, Note_on_c, 0, 72, 0
2, 168194, Note_on_c, 0, 70, 68
2, 168390, Note_on_c, 0, 70, 0
2, 168442, Note_on_c, 0, 67, 68
2, 168830, Note_on_c, 0, 65, 82
2, 168842, Note_on_c, 0, 67, 0
2, 168994, Note_on_c, 0, 65, 0
2, 169078, Note_on_c, 0, 64, 65
2, 169278, Note_on_c, 0, 64, 0
2, 169338, Note_on_c, 0, 67, 75
2, 169526, Note_on_c, 0, 67, 0
2, 169578, Note_on_c, 0, 63, 78
2, 169714, Note_on_c, 0, 63, 0
2, 169778, Note_on_c, 0, 61, 57
2, 169798, Note_on_c, 0, 63, 26
2, 169834, Note_on_c, 0, 63, 0
2, 169854, Note_on_c, 0, 61, 0
2, 169862, Note_on_c, 0, 62, 72
2, 169934, Note_on_c, 0, 62, 0
2, 169998, Note_on_c, 0, 58, 62
2, 170086, Note_on_c, 0, 58, 0
2, 170154, Note_on_c, 0, 57, 20
2, 170274, Note_on_c, 0, 57, 0
2, 170350, Note_on_c, 0, 54, 48
2, 170414, Note_on_c, 0, 54, 0
2, 170474, Note_on_c, 0, 58, 52
2, 171130, Note_on_c, 0, 58, 0
2, 171230, Note_on_c, 0, 56, 58
2, 171234, Note_on_c, 0, 60, 56
2, 171302, Note_on_c, 0, 60, 0
2, 171302, Note_on_c, 0, 56, 0
2, 171398, Note_on_c, 0, 58, 25
2, 171438, Note_on_c, 0, 58, 0
2, 171486, Note_on_c, 0, 60, 57
2, 171490, Note_on_c, 0, 56, 58
2, 171590, Note_on_c, 0, 60, 0
2, 171594, Note_on_c, 0, 56, 0
2, 171658, Note_on_c, 0, 55, 39
2, 171658, Note_on_c, 0, 58, 39
2, 171854, Note_on_c, 0, 55, 0
2, 171858, Note_on_c, 0, 58, 0
2, 172010, Note_on_c, 0, 62, 56
2, 172010, Note_on_c, 0, 58, 66
2, 172070, Note_on_c, 0, 58, 0
2, 172090, Note_on_c, 0, 62, 0
2, 172254, Note_on_c, 0, 58, 66
2, 172270, Note_on_c, 0, 62, 57
2, 172338, Note_on_c, 0, 62, 0
2, 172350, Note_on_c, 0, 58, 0
2, 172418, Note_on_c, 0, 57, 45
2, 172422, Note_on_c, 0, 60, 48
2, 172590, Note_on_c, 0, 60, 0
2, 172630, Note_on_c, 0, 57, 0
2, 172774, Note_on_c, 0, 63, 70
2, 172786, Note_on_c, 0, 60, 66
2, 172874, Note_on_c, 0, 60, 0
2, 172878, Note_on_c, 0, 63, 0
2, 173054, Note_on_c, 0, 63, 74
2, 173062, Note_on_c, 0, 60, 69
2, 173158, Note_on_c, 0, 60, 0
2, 173158, Note_on_c, 0, 63, 0
2, 173242, Note_on_c, 0, 62, 21
2, 173274, Note_on_c, 0, 58, 13
2, 173394, Note_on_c, 0, 62, 0
2, 173418, Note_on_c, 0, 58, 0
2, 173554, Note_on_c, 0, 65, 67
2, 173558, Note_on_c, 0, 60, 55
2, 173558, Note_on_c, 0, 53, 54
2, 173750, Note_on_c, 0, 65, 0
2, 173798, Note_on_c, 0, 60, 0
2, 173814, Note_on_c, 0, 53, 0
2, 173922, Note_on_c, 0, 59, 62
2, 173930, Note_on_c, 0, 64, 52
2, 173934, Note_on_c, 0, 52, 54
2, 174110, Note_on_c, 0, 64, 0
2, 174150, Note_on_c, 0, 59, 0
2, 174154, Note_on_c, 0, 52, 0
2, 174306, Note_on_c, 0, 63, 68
2, 174314, Note_on_c, 0, 58, 63
2, 174506, Note_on_c, 0, 58, 0
2, 174526, Note_on_c, 0, 63, 0
2, 174678, Note_on_c, 0, 62, 57
2, 174678, Note_on_c, 0, 56, 63
2, 174770, Note_on_c, 0, 62, 0
2, 174802, Note_on_c, 0, 56, 0
2, 174958, Note_on_c, 0, 60, 43
2, 174962, Note_on_c, 0, 55, 50
2, 175010, Note_on_c, 0, 60, 0
2, 175034, Note_on_c, 0, 55, 0
2, 188810, Note_on_c, 0, 62, 38
2, 188842, Note_on_c, 0, 62, 0
2, 188926, Note_on_c, 0, 62, 48
2, 188950, Note_on_c, 0, 62, 0
2, 189146, Note_on_c, 0, 65, 79
2, 189198, Note_on_c, 0, 65, 0
2, 189530, Note_on_c, 0, 62, 63
2, 189554, Note_on_c, 0, 62, 0
2, 189670, Note_on_c, 0, 62, 64
2, 189718, Note_on_c, 0, 62, 0
2, 189910, Note_on_c, 0, 62, 74
2, 189950, Note_on_c, 0, 62, 0
2, 190062, Note_on_c, 0, 53, 43
2, 190350, Note_on_c, 0, 53, 0
2, 190818, Note_on_c, 0, 62, 54
2, 190842, Note_on_c, 0, 62, 0
2, 191074, Note_on_c, 0, 62, 70
2, 191106, Note_on_c, 0, 62, 0
2, 191218, Note_on_c, 0, 62, 55
2, 191242, Note_on_c, 0, 62, 0
2, 191450, Note_on_c, 0, 62, 77
2, 191522, Note_on_c, 0, 62, 0
2, 191590, Note_on_c, 0, 65, 98
2, 191678, Note_on_c, 0, 65, 0
2, 191842, Note_on_c, 0, 65, 98
2, 191938, Note_on_c, 0, 65, 0
2, 191982, Note_on_c, 0, 61, 47
2, 192018, Note_on_c, 0, 61, 0
2, 192062, Note_on_c, 0, 62, 49
2, 192122, Note_on_c, 0, 62, 0
2, 192226, Note_on_c, 0, 62, 75
2, 192270, Note_on_c, 0, 62, 0
2, 192354, Note_on_c, 0, 53, 45
2, 192546, Note_on_c, 0, 53, 0
2, 192610, Note_on_c, 0, 53, 67
2, 192674, Note_on_c, 0, 53, 0
2, 193610, Note_on_c, 0, 54, 56
2, 193630, Note_on_c, 0, 57, 39
2, 193678, Note_on_c, 0, 57, 0
2, 193686, Note_on_c, 0, 54, 0
2, 193746, Note_on_c, 0, 58, 67
2, 193754, Note_on_c, 0, 55, 60
2, 193810, Note_on_c, 0, 55, 0
2, 193826, Note_on_c, 0, 58, 0
2, 193882, Note_on_c, 0, 59, 73
2, 193882, Note_on_c, 0, 56, 75
2, 194018, Note_on_c, 0, 59, 0
2, 194046, Note_on_c, 0, 56, 0
2, 194146, Note_on_c, 0, 57, 69
2, 194154, Note_on_c, 0, 60, 61
2, 194226, Note_on_c, 0, 57, 0
2, 194246, Note_on_c, 0, 60, 0
2, 194390, Note_on_c, 0, 61, 65
2, 194394, Note_on_c, 0, 58, 63
2, 194462, Note_on_c, 0, 58, 0
2, 194478, Note_on_c, 0, 61, 0
2, 194510, Note_on_c, 0, 59, 75
2, 194518, Note_on_c, 0, 62, 66
2, 194578, Note_on_c, 0, 62, 0
2, 194578, Note_on_c, 0, 59, 0
2, 194650, Note_on_c, 0, 63, 72
2, 194666, Note_on_c, 0, 60, 46
2, 194706, Note_on_c, 0, 60, 0
2, 194818, Note_on_c, 0, 63, 0
2, 194910, Note_on_c, 0, 60, 81
2, 194910, Note_on_c, 0, 65, 81
2, 195342, Note_on_c, 0, 65, 0
2, 195358, Note_on_c, 0, 60, 0
2, 195414, Note_on_c, 0, 63, 57
2, 195458, Note_on_c, 0, 60, 27
2, 195594, Note_on_c, 0, 60, 0
2, 195634, Note_on_c, 0, 63, 0
2, 195682, Note_on_c, 0, 63, 72
2, 195686, Note_on_c, 0, 60, 61
2, 195686, Note_on_c, 0, 67, 66
2, 195690, Note_on_c, 0, 55, 58
2, 195722, Note_on_c, 0, 55, 0
2, 195758, Note_on_c, 0, 60, 0
2, 195762, Note_on_c, 0, 67, 0
2, 195790, Note_on_c, 0, 63, 0
2, 195886, Note_on_c, 0, 58, 79
2, 195890, Note_on_c, 0, 70, 76
2, 195918, Note_on_c, 0, 68, 41
2, 196034, Note_on_c, 0, 70, 0
2, 196058, Note_on_c, 0, 68, 0
2, 196090, Note_on_c, 0, 58, 0
2, 196186, Note_on_c, 0, 66, 42
2, 196194, Note_on_c, 0, 54, 39
2, 196226, Note_on_c, 0, 62, 42
2, 196234, Note_on_c, 0, 67, 40
2, 196250, Note_on_c, 0, 66, 0
2, 196254, Note_on_c, 0, 54, 0
2, 196294, Note_on_c, 0, 55, 22
2, 196342, Note_on_c, 0, 62, 0
2, 196362, Note_on_c, 0, 67, 0
2, 196398, Note_on_c, 0, 55, 0
2, 196462, Note_on_c, 0, 65, 57
2, 196478, Note_on_c, 0, 53, 54
2, 196926, Note_on_c, 0, 65, 0
2, 196982, Note_on_c, 0, 63, 60
2, 197138, Note_on_c, 0, 53, 0
2, 197198, Note_on_c, 0, 63, 0
2, 197258, Note_on_c, 0, 65, 76
2, 197662, Note_on_c, 0, 65, 0
2, 197738, Note_on_c, 0, 63, 57
2, 197878, Note_on_c, 0, 63, 0
2, 197998, Note_on_c, 0, 62, 70
2, 198350, Note_on_c, 0, 62, 0
2, 198382, Note_on_c, 0, 61, 75
2, 198866, Note_on_c, 0, 61, 0
2, 198902, Note_on_c, 0, 60, 63
2, 199202, Note_on_c, 0, 60, 0
2, 199262, Note_on_c, 0, 59, 61
2, 199518, Note_on_c, 0, 59, 0
2, 199546, Note_on_c, 0, 58, 56
2, 199674, Note_on_c, 0, 58, 0
2, 200024, Control_c, 0, 0, 0
2, 200024, Control_c, 0, 32, 126
2, 200026, Control_c, 0, 32, 126
2, 200026, Control_c, 0, 0, 0
2, 200026, Control_c, 0, 0, 0
2, 200026, Control_c, 0, 32, 126
2, 200026, Program_c, 0, 4
2, 200034, Control_c, 0, 7, 114
2, 200034, Control_c, 0, 10, 64
2, 200034, Control_c, 0, 101, 0
2, 200035, Control_c, 0, 100, 1
2, 200036, Control_c, 0, 6, 64
2, 200037, Control_c, 0, 38, 0
2, 200044, Control_c, 0, 91, 22
2, 200044, System_exclusive, 9, 67, 16, 76, 2, 1, 0, 1, 19, 247
2, 200052, Control_c, 0, 93, 0
2, 201572, Note_on_c, 0, 73, 52
2, 201648, Note_on_c, 0, 73, 0
2, 201700, Note_on_c, 0, 74, 76
2, 201764, Note_on_c, 0, 74, 0
2, 201820, Note_on_c, 0, 77, 127
2, 201932, Note_on_c, 0, 77, 0
2, 201976, Note_on_c, 0, 74, 94
2, 202088, Note_on_c, 0, 74, 0
2, 202116, Note_on_c, 0, 70, 81
2, 202192, Note_on_c, 0, 70, 0
2, 202232, Note_on_c, 0, 67, 48
2, 202264, Note_on_c, 0, 67, 0
2, 202732, Note_on_c, 0, 74, 117
2, 202832, Note_on_c, 0, 74, 0
2, 202852, Note_on_c, 0, 71, 57
2, 202892, Note_on_c, 0, 71, 0
2, 202956, Note_on_c, 0, 72, 58
2, 203024, Note_on_c, 0, 72, 0
2, 203056, Note_on_c, 0, 74, 80
2, 203128, Note_on_c, 0, 74, 0
2, 203148, Note_on_c, 0, 75, 72
2, 203220, Note_on_c, 0, 75, 0
2, 203256, Note_on_c, 0, 77, 85
2, 203320, Note_on_c, 0, 77, 0
2, 203352, Note_on_c, 0, 78, 80
2, 203424, Note_on_c, 0, 78, 0
2, 203452, Note_on_c, 0, 80, 85
2, 203524, Note_on_c, 0, 80, 0
2, 203564, Note_on_c, 0, 81, 80
2, 203624, Note_on_c, 0, 81, 0
2, 203656, Note_on_c, 0, 82, 77
2, 203732, Note_on_c, 0, 82, 0
2, 203760, Note_on_c, 0, 83, 72
2, 203856, Note_on_c, 0, 83, 0
2, 203860, Note_on_c, 0, 84, 80
2, 203924, Note_on_c, 0, 84, 0
2, 203952, Note_on_c, 0, 85, 77
2, 204060, Note_on_c, 0, 85, 0
2, 204060, Note_on_c, 0, 86, 74
2, 204120, Note_on_c, 0, 86, 0
2, 204156, Note_on_c, 0, 87, 81
2, 204256, Note_on_c, 0, 87, 0
2, 204264, Note_on_c, 0, 88, 70
2, 204324, Note_on_c, 0, 88, 0
2, 204372, Note_on_c, 0, 89, 120
2, 204488, Note_on_c, 0, 89, 0
2, 204556, Note_on_c, 0, 86, 117
2, 204644, Note_on_c, 0, 86, 0
2, 204704, Note_on_c, 0, 82, 75
2, 204820, Note_on_c, 0, 82, 0
2, 204832, Note_on_c, 0, 79, 67
2, 204864, Note_on_c, 0, 79, 0
2, 204956, Note_on_c, 0, 86, 115
2, 205172, Note_on_c, 0, 86, 0
2, 205204, Note_on_c, 0, 82, 77
2, 205284, Note_on_c, 0, 82, 0
2, 205312, Note_on_c, 0, 79, 78
2, 205412, Note_on_c, 0, 79, 0
2, 205436, Note_on_c, 0, 75, 49
2, 205520, Note_on_c, 0, 75, 0
2, 205548, Note_on_c, 0, 74, 51
2, 205624, Note_on_c, 0, 74, 0
2, 206160, Note_on_c, 0, 86, 102
2, 206236, Note_on_c, 0, 86, 0
2, 206304, Note_on_c, 0, 82, 54
2, 206336, Note_on_c, 0, 82, 0
2, 206428, Note_on_c, 0, 84, 120
2, 206836, Note_on_c, 0, 82, 81
2, 206880, Note_on_c, 0, 84, 0
2, 206952, Note_on_c, 0, 82, 0
2, 207008, Note_on_c, 0, 81, 58
2, 207156, Note_on_c, 0, 81, 0
2, 207212, Note_on_c, 0, 80, 71
2, 207352, Note_on_c, 0, 80, 0
2, 207408, Note_on_c, 0, 79, 36
2, 207548, Note_on_c, 0, 79, 0
2, 207612, Note_on_c, 0, 78, 85
2, 207736, Note_on_c, 0, 78, 0
2, 207800, Note_on_c, 0, 77, 58
2, 207952, Note_on_c, 0, 77, 0
2, 208000, Note_on_c, 0, 75, 80
2, 208068, Note_on_c, 0, 75, 0
2, 208284, Note_on_c, 0, 77, 72
2, 208356, Note_on_c, 0, 75, 58
2, 208364, Note_on_c, 0, 77, 0
2, 208456, Note_on_c, 0, 74, 66
2, 208460, Note_on_c, 0, 75, 0
2, 208512, Note_on_c, 0, 74, 0
2, 208572, Note_on_c, 0, 75, 72
2, 208752, Note_on_c, 0, 75, 0
2, 208772, Note_on_c, 0, 77, 90
2, 208876, Note_on_c, 0, 77, 0
2, 208936, Note_on_c, 0, 74, 61
2, 209100, Note_on_c, 0, 74, 0
2, 209136, Note_on_c, 0, 70, 67
2, 209264, Note_on_c, 0, 70, 0
2, 209284, Note_on_c, 0, 67, 42
2, 209500, Note_on_c, 0, 67, 0
2, 209536, Note_on_c, 0, 72, 70
2, 209880, Note_on_c, 0, 72, 0
2, 210028, Note_on_c, 0, 68, 66
2, 210032, Note_on_c, 0, 80, 58
2, 210068, Note_on_c, 0, 68, 0
2, 210080, Note_on_c, 0, 80, 0
2, 210160, Note_on_c, 0, 78, 27
2, 210180, Note_on_c, 0, 69, 43
2, 210208, Note_on_c, 0, 69, 0
2, 210248, Note_on_c, 0, 78, 0
2, 210288, Note_on_c, 0, 81, 73
2, 210316, Note_on_c, 0, 69, 30
2, 210344, Note_on_c, 0, 81, 0
2, 210348, Note_on_c, 0, 69, 0
2, 210428, Note_on_c, 0, 68, 57
2, 210440, Note_on_c, 0, 80, 39
2, 210484, Note_on_c, 0, 80, 0
2, 210516, Note_on_c, 0, 68, 0
2, 210568, Note_on_c, 0, 69, 41
2, 210604, Note_on_c, 0, 69, 0
2, 210680, Note_on_c, 0, 81, 69
2, 210756, Note_on_c, 0, 81, 0
2, 210828, Note_on_c, 0, 80, 64
2, 210976, Note_on_c, 0, 80, 0
2, 211068, Note_on_c, 0, 79, 79
2, 211172, Note_on_c, 0, 79, 0
2, 211248, Note_on_c, 0, 78, 52
2, 211336, Note_on_c, 0, 78, 0
2, 211452, Note_on_c, 0, 75, 75
2, 211508, Note_on_c, 0, 75, 0
2, 211584, Note_on_c, 0, 77, 81
2, 211728, Note_on_c, 0, 77, 0
2, 211936, Note_on_c, 0, 75, 75
2, 212232, Note_on_c, 0, 75, 0
2, 212244, Note_on_c, 0, 73, 22
2, 212272, Note_on_c, 0, 73, 0
2, 212328, Note_on_c, 0, 74, 76
2, 212576, Note_on_c, 0, 74, 0
2, 212588, Note_on_c, 0, 69, 64
2, 212840, Note_on_c, 0, 69, 0
2, 212848, Note_on_c, 0, 70, 57
2, 212944, Note_on_c, 0, 70, 0
2, 212960, Note_on_c, 0, 71, 63
2, 213044, Note_on_c, 0, 71, 0
2, 213092, Note_on_c, 0, 72, 58
2, 213172, Note_on_c, 0, 72, 0
2, 213232, Note_on_c, 0, 73, 61
2, 213304, Note_on_c, 0, 73, 0
2, 213380, Note_on_c, 0, 74, 48
2, 213408, Note_on_c, 0, 74, 0
2, 213664, Note_on_c, 0, 70, 63
2, 213704, Note_on_c, 0, 70, 0
2, 213748, Note_on_c, 0, 72, 56
2, 213792, Note_on_c, 0, 70, 47
2, 213796, Note_on_c, 0, 72, 0
2, 213864, Note_on_c, 0, 70, 0
2, 213880, Note_on_c, 0, 69, 49
2, 213916, Note_on_c, 0, 69, 0
2, 213960, Note_on_c, 0, 70, 52
2, 214044, Note_on_c, 0, 70, 0
2, 214068, Note_on_c, 0, 72, 63
2, 214140, Note_on_c, 0, 72, 0
2, 214160, Note_on_c, 0, 73, 66
2, 214236, Note_on_c, 0, 73, 0
2, 214264, Note_on_c, 0, 75, 63
2, 214332, Note_on_c, 0, 75, 0
2, 214356, Note_on_c, 0, 76, 56
2, 214396, Note_on_c, 0, 76, 0
2, 214452, Note_on_c, 0, 78, 60
2, 214496, Note_on_c, 0, 78, 0
2, 214556, Note_on_c, 0, 79, 66
2, 214612, Note_on_c, 0, 79, 0
2, 214648, Note_on_c, 0, 81, 66
2, 214716, Note_on_c, 0, 81, 0
2, 214736, Note_on_c, 0, 82, 58
2, 214840, Note_on_c, 0, 82, 0
2, 214860, Note_on_c, 0, 83, 36
2, 214892, Note_on_c, 0, 83, 0
2, 214908, Note_on_c, 0, 86, 85
2, 214992, Note_on_c, 0, 86, 0
2, 215036, Note_on_c, 0, 83, 62
2, 215076, Note_on_c, 0, 83, 0
2, 215112, Note_on_c, 0, 84, 72
2, 215200, Note_on_c, 0, 84, 0
2, 215228, Note_on_c, 0, 79, 67
2, 215280, Note_on_c, 0, 79, 0
2, 215316, Note_on_c, 0, 77, 36
2, 215348, Note_on_c, 0, 77, 0
2, 215940, Note_on_c, 0, 80, 82
2, 216016, Note_on_c, 0, 80, 0
2, 216060, Note_on_c, 0, 78, 63
2, 216132, Note_on_c, 0, 78, 0
2, 216192, Note_on_c, 0, 80, 85
2, 216300, Note_on_c, 0, 80, 0
2, 216312, Note_on_c, 0, 78, 69
2, 216380, Note_on_c, 0, 78, 0
2, 216612, Note_on_c, 0, 79, 66
2, 216612, Note_on_c, 0, 77, 70
2, 216696, Note_on_c, 0, 76, 66
2, 216728, Note_on_c, 0, 79, 0
2, 216760, Note_on_c, 0, 76, 0
2, 216772, Note_on_c, 0, 77, 0
2, 216840, Note_on_c, 0, 79, 86
2, 216956, Note_on_c, 0, 78, 41
2, 216968, Note_on_c, 0, 77, 68
2, 216988, Note_on_c, 0, 78, 0
2, 216996, Note_on_c, 0, 79, 0
2, 217040, Note_on_c, 0, 77, 0
2, 217332, Note_on_c, 0, 77, 81
2, 217432, Note_on_c, 0, 77, 0
2, 217472, Note_on_c, 0, 75, 42
2, 217516, Note_on_c, 0, 75, 0
2, 217588, Note_on_c, 0, 77, 92
2, 217696, Note_on_c, 0, 77, 0
2, 217728, Note_on_c, 0, 75, 66
2, 217800, Note_on_c, 0, 75, 0
2, 218080, Note_on_c, 0, 75, 75
2, 218168, Note_on_c, 0, 75, 0
2, 218236, Note_on_c, 0, 74, 43
2, 218276, Note_on_c, 0, 74, 0
2, 218336, Note_on_c, 0, 75, 81
2, 218436, Note_on_c, 0, 75, 0
2, 218500, Note_on_c, 0, 74, 50
2, 218652, Note_on_c, 0, 74, 0
2, 218732, Note_on_c, 0, 73, 68
2, 218848, Note_on_c, 0, 73, 0
2, 218908, Note_on_c, 0, 72, 35
2, 219092, Note_on_c, 0, 72, 0
2, 219128, Note_on_c, 0, 69, 57
2, 219152, Note_on_c, 0, 69, 0
2, 219620, Note_on_c, 0, 68, 56
2, 219624, Note_on_c, 0, 65, 56
2, 219824, Note_on_c, 0, 65, 0
2, 219844, Note_on_c, 0, 68, 0
2, 219880, Note_on_c, 0, 70, 67
2, 219968, Note_on_c, 0, 70, 0
2, 220312, Note_on_c, 0, 67, 51
2, 220312, Note_on_c, 0, 70, 43
2, 220356, Note_on_c, 0, 73, 19
2, 220356, Note_on_c, 0, 74, 23
2, 220676, Note_on_c, 0, 74, 0
2, 220680, Note_on_c, 0, 73, 0
2, 220732, Note_on_c, 0, 67, 0
2, 220756, Note_on_c, 0, 70, 0
2, 220812, Note_on_c, 0, 75, 75
2, 220976, Note_on_c, 0, 75, 0
2, 221068, Note_on_c, 0, 77, 69
2, 221072, Note_on_c, 0, 65, 78
2, 221080, Note_on_c, 0, 64, 45
2, 221104, Note_on_c, 0, 64, 0
2, 221180, Note_on_c, 0, 65, 0
2, 221180, Note_on_c, 0, 77, 0
2, 221792, Note_on_c, 0, 80, 85
2, 221796, Note_on_c, 0, 68, 83
2, 221800, Note_on_c, 0, 75, 76
2, 222176, Note_on_c, 0, 80, 0
2, 222196, Note_on_c, 0, 68, 0
2, 222220, Note_on_c, 0, 75, 0
2, 222320, Note_on_c, 0, 78, 47
2, 222324, Note_on_c, 0, 66, 40
2, 222344, Note_on_c, 0, 73, 46
2, 222476, Note_on_c, 0, 78, 0
2, 222488, Note_on_c, 0, 73, 0
2, 222504, Note_on_c, 0, 66, 0
2, 222568, Note_on_c, 0, 65, 57
2, 222576, Note_on_c, 0, 77, 36
2, 222584, Note_on_c, 0, 72, 39
2, 222592, Note_on_c, 0, 65, 0
2, 222616, Note_on_c, 0, 72, 0
2, 222636, Note_on_c, 0, 77, 0
2, 224648, Note_on_c, 0, 86, 37
2, 224752, Note_on_c, 0, 86, 0
2, 224868, Note_on_c, 0, 86, 73
2, 224920, Note_on_c, 0, 86, 0
2, 225016, Note_on_c, 0, 89, 82
2, 225060, Note_on_c, 0, 89, 0
2, 225256, Note_on_c, 0, 89, 67
2, 225304, Note_on_c, 0, 89, 0
2, 225388, Note_on_c, 0, 82, 58
2, 225456, Note_on_c, 0, 82, 0
2, 225628, Note_on_c, 0, 82, 62
2, 225676, Note_on_c, 0, 82, 0
2, 225768, Note_on_c, 0, 86, 75
2, 225820, Note_on_c, 0, 86, 0
2, 225992, Note_on_c, 0, 86, 98
2, 226056, Note_on_c, 0, 86, 0
2, 226144, Note_on_c, 0, 79, 56
2, 226200, Note_on_c, 0, 79, 0
2, 226392, Note_on_c, 0, 79, 59
2, 226428, Note_on_c, 0, 79, 0
2, 226528, Note_on_c, 0, 82, 60
2, 226564, Note_on_c, 0, 82, 0
2, 226764, Note_on_c, 0, 82, 73
2, 226836, Note_on_c, 0, 82, 0
2, 226908, Note_on_c, 0, 75, 56
2, 226984, Note_on_c, 0, 75, 0
2, 227156, Note_on_c, 0, 75, 61
2, 227220, Note_on_c, 0, 75, 0
2, 227308, Note_on_c, 0, 79, 117
2, 227552, Note_on_c, 0, 78, 83
2, 227584, Note_on_c, 0, 79, 0
2, 227652, Note_on_c, 0, 78, 0
2, 227716, Note_on_c, 0, 77, 57
2, 227936, Note_on_c, 0, 77, 0
2, 227948, Note_on_c, 0, 76, 67
2, 228088, Note_on_c, 0, 76, 0
2, 228188, Note_on_c, 0, 75, 57
2, 228340, Note_on_c, 0, 75, 0
2, 228452, Note_on_c, 0, 74, 71
2, 228652, Note_on_c, 0, 74, 0
2, 228704, Note_on_c, 0, 74, 84
2, 229052, Note_on_c, 0, 74, 0
2, 229052, Note_on_c, 0, 75, 48
2, 229096, Note_on_c, 0, 75, 0
2, 229120, Note_on_c, 0, 76, 46
2, 229184, Note_on_c, 0, 76, 0
2, 229228, Note_on_c, 0, 77, 75
2, 229332, Note_on_c, 0, 77, 0
2, 229488, Note_on_c, 0, 82, 70
2, 229560, Note_on_c, 0, 82, 0
2, 229688, Note_on_c, 0, 86, 94
2, 229852, Note_on_c, 0, 86, 0
2, 229904, Note_on_c, 0, 79, 64
2, 230316, Note_on_c, 0, 79, 0
2, 230388, Note_on_c, 0, 82, 86
2, 230648, Note_on_c, 0, 77, 75
2, 230656, Note_on_c, 0, 82, 0
2, 231092, Note_on_c, 0, 77, 0
2, 231160, Note_on_c, 0, 80, 74
2, 231416, Note_on_c, 0, 74, 74
2, 231452, Note_on_c, 0, 80, 0
2, 231872, Note_on_c, 0, 74, 0
2, 231896, Note_on_c, 0, 76, 78
2, 231944, Note_on_c, 0, 77, 74
2, 232092, Note_on_c, 0, 76, 0
2, 232164, Note_on_c, 0, 77, 0
2, 232184, Note_on_c, 0, 76, 54
2, 232252, Note_on_c, 0, 76, 0
2, 232308, Note_on_c, 0, 77, 76
2, 232536, Note_on_c, 0, 77, 0
2, 232556, Note_on_c, 0, 78, 76
2, 232580, Note_on_c, 0, 78, 0
2, 232588, Note_on_c, 0, 79, 75
2, 232740, Note_on_c, 0, 79, 0
2, 232828, Note_on_c, 0, 77, 72
2, 233032, Note_on_c, 0, 77, 0
2, 233080, Note_on_c, 0, 76, 68
2, 233304, Note_on_c, 0, 76, 0
2, 233336, Note_on_c, 0, 75, 67
2, 233712, Note_on_c, 0, 75, 0
2, 233720, Note_on_c, 0, 72, 42
2, 233768, Note_on_c, 0, 72, 0
2, 233840, Note_on_c, 0, 75, 62
2, 234068, Note_on_c, 0, 75, 0
2, 234096, Note_on_c, 0, 82, 89
2, 234812, Note_on_c, 0, 82, 0
2, 234868, Note_on_c, 0, 80, 73
2, 234976, Note_on_c, 0, 80, 0
2, 235028, Note_on_c, 0, 79, 56
2, 235232, Note_on_c, 0, 79, 0
2, 235240, Note_on_c, 0, 74, 66
2, 235288, Note_on_c, 0, 74, 0
2, 235740, Note_on_c, 0, 77, 92
2, 235956, Note_on_c, 0, 77, 0
2, 236140, Note_on_c, 0, 76, 81
2, 236340, Note_on_c, 0, 76, 0
2, 236512, Note_on_c, 0, 75, 82
2, 236748, Note_on_c, 0, 75, 0
2, 236896, Note_on_c, 0, 74, 71
2, 237128, Note_on_c, 0, 74, 0
2, 237280, Note_on_c, 0, 75, 66
2, 237440, Note_on_c, 0, 75, 0
2, 237672, Note_on_c, 0, 85, 63
2, 237792, Note_on_c, 0, 85, 0
2, 237800, Note_on_c, 0, 86, 66
2, 237876, Note_on_c, 0, 86, 0
2, 237940, Note_on_c, 0, 89, 86
2, 238016, Note_on_c, 0, 89, 0
2, 238068, Note_on_c, 0, 77, 62
2, 238252, Note_on_c, 0, 77, 0
2, 238444, Note_on_c, 0, 85, 63
2, 238512, Note_on_c, 0, 85, 0
2, 238556, Note_on_c, 0, 86, 52
2, 238640, Note_on_c, 0, 86, 0
2, 238712, Note_on_c, 0, 89, 72
2, 238720, Note_on_c, 0, 88, 70
2, 238756, Note_on_c, 0, 88, 0
2, 238768, Note_on_c, 0, 89, 0
2, 238848, Note_on_c, 0, 77, 59
2, 239036, Note_on_c, 0, 77, 0
2, 239088, Note_on_c, 0, 77, 71
2, 239144, Note_on_c, 0, 77, 0
2, 239604, Note_on_c, 0, 85, 58
2, 239720, Note_on_c, 0, 85, 0
2, 239720, Note_on_c, 0, 86, 61
2, 239784, Note_on_c, 0, 86, 0
2, 239832, Note_on_c, 0, 89, 89
2, 239908, Note_on_c, 0, 89, 0
2, 239952, Note_on_c, 0, 87, 70
2, 240052, Note_on_c, 0, 87, 0
2, 240072, Note_on_c, 0, 83, 50
2, 240124, Note_on_c, 0, 83, 0
2, 240600, Note_on_c, 0, 91, 102
2, 240684, Note_on_c, 0, 91, 0
2, 240716, Note_on_c, 0, 90, 72
2, 240808, Note_on_c, 0, 85, 57
2, 240844, Note_on_c, 0, 90, 0
2, 240900, Note_on_c, 0, 85, 0
2, 240916, Note_on_c, 0, 84, 43
2, 240944, Note_on_c, 0, 84, 0
2, 241464, Note_on_c, 0, 89, 85
2, 241548, Note_on_c, 0, 89, 0
2, 242168, Note_on_c, 0, 83, 92
2, 242272, Note_on_c, 0, 83, 0
2, 242352, Note_on_c, 0, 81, 39
2, 242508, Note_on_c, 0, 81, 0
2, 242544, Note_on_c, 0, 86, 98
2, 242672, Note_on_c, 0, 86, 0
2, 242756, Note_on_c, 0, 82, 31
2, 242796, Note_on_c, 0, 82, 0
2, 243072, Note_on_c, 0, 80, 63
2, 243220, Note_on_c, 0, 80, 0
2, 243304, Note_on_c, 0, 86, 68
2, 243388, Note_on_c, 0, 86, 0
2, 243496, Note_on_c, 0, 78, 39
2, 243668, Note_on_c, 0, 78, 0
2, 243684, Note_on_c, 0, 77, 72
2, 243760, Note_on_c, 0, 77, 0
2, 243860, Note_on_c, 0, 75, 39
2, 243992, Note_on_c, 0, 75, 0
2, 244088, Note_on_c, 0, 73, 50
2, 244156, Note_on_c, 0, 73, 0
2, 244232, Note_on_c, 0, 74, 45
2, 244280, Note_on_c, 0, 74, 0
2, 244348, Note_on_c, 0, 75, 50
2, 244420, Note_on_c, 0, 75, 0
2, 244460, Note_on_c, 0, 76, 72
2, 244556, Note_on_c, 0, 76, 0
2, 244604, Note_on_c, 0, 77, 65
2, 244820, Note_on_c, 0, 77, 0
2, 244864, Note_on_c, 0, 75, 63
2, 244864, Note_on_c, 0, 79, 82
2, 244868, Note_on_c, 0, 67, 71
2, 244872, Note_on_c, 0, 72, 63
2, 245016, Note_on_c, 0, 67, 0
2, 245024, Note_on_c, 0, 79, 0
2, 245032, Note_on_c, 0, 72, 0
2, 245048, Note_on_c, 0, 75, 0
2, 245112, Note_on_c, 0, 77, 57
2, 245112, Note_on_c, 0, 75, 46
2, 245116, Note_on_c, 0, 72, 49
2, 245120, Note_on_c, 0, 65, 56
2, 245224, Note_on_c, 0, 65, 0
2, 245240, Note_on_c, 0, 72, 0
2, 245276, Note_on_c, 0, 77, 0
2, 245284, Note_on_c, 0, 75, 0
2, 245368, Note_on_c, 0, 79, 79
2, 245372, Note_on_c, 0, 73, 73
2, 245380, Note_on_c, 0, 67, 57
2, 245456, Note_on_c, 0, 73, 0
2, 245464, Note_on_c, 0, 74, 52
2, 245504, Note_on_c, 0, 67, 0
2, 245524, Note_on_c, 0, 79, 0
2, 245548, Note_on_c, 0, 74, 0
2, 245648, Note_on_c, 0, 82, 76
2, 245648, Note_on_c, 0, 70, 78
2, 245716, Note_on_c, 0, 82, 0
2, 245758, Note_on_c, 0, 70, 0
2, 245856, Note_on_c, 0, 73, 49
2, 245876, Note_on_c, 0, 79, 71
2, 245880, Note_on_c, 0, 73, 0
2, 245900, Note_on_c, 0, 67, 41
2, 245908, Note_on_c, 0, 74, 40
2, 246012, Note_on_c, 0, 67, 0
2, 246028, Note_on_c, 0, 74, 0
2, 246036, Note_on_c, 0, 79, 0
2, 247284, Note_on_c, 0, 77, 66
2, 247284, Note_on_c, 0, 81, 70
2, 247288, Note_on_c, 0, 69, 67
2, 247368, Note_on_c, 0, 81, 0
2, 247392, Note_on_c, 0, 69, 0
2, 247396, Note_on_c, 0, 77, 0
2, 247648, Note_on_c, 0, 80, 75
2, 247652, Note_on_c, 0, 68, 70
2, 247664, Note_on_c, 0, 77, 57
2, 247824, Note_on_c, 0, 77, 0
2, 247872, Note_on_c, 0, 80, 0
2, 247880, Note_on_c, 0, 68, 0
2, 248032, Note_on_c, 0, 75, 60
2, 248044, Note_on_c, 0, 67, 66
2, 248044, Note_on_c, 0, 79, 52
2, 248160, Note_on_c, 0, 79, 0
2, 248212, Note_on_c, 0, 67, 0
2, 248248, Note_on_c, 0, 75, 0
2, 248396, Note_on_c, 0, 66, 61
2, 248396, Note_on_c, 0, 78, 57
2, 248412, Note_on_c, 0, 73, 57
2, 248444, Note_on_c, 0, 75, 31
2, 248500, Note_on_c, 0, 75, 0
2, 248536, Note_on_c, 0, 73, 0
2, 248556, Note_on_c, 0, 78, 0
2, 248564, Note_on_c, 0, 66, 0
2, 248680, Note_on_c, 0, 77, 61
2, 248688, Note_on_c, 0, 65, 66
2, 248692, Note_on_c, 0, 72, 65
2, 248732, Note_on_c, 0, 77, 0
2, 248740, Note_on_c, 0, 72, 0
2, 248748, Note_on_c, 0, 65, 0
2, 249086, Control_c, 0, 0, 0
2, 249086, Control_c, 0, 32, 122
2, 249088, Control_c, 0, 32, 122
2, 249088, Control_c, 0, 0, 0
2, 249088, Control_c, 0, 0, 0
2, 249088, Control_c, 0, 32, 122
2, 249088, Program_c, 0, 0
2, 249096, Control_c, 0, 7, 107
2, 249096, Control_c, 0, 101, 0
2, 249097, Control_c, 0, 100, 1
2, 249098, Control_c, 0, 6, 64
2, 249099, Control_c, 0, 38, 0
2, 249102, Control_c, 0, 91, 10
2, 249102, System_exclusive, 9, 67, 16, 76, 2, 1, 0, 1, 19, 247
2, 249110, System_exclusive, 9, 67, 16, 76, 2, 1, 32, 65, 8, 247
2, 249110, System_exclusive, 8, 67, 16, 76, 8, 0, 115, 95, 247
2, 249110, Control_c, 0, 74, 46
2, 249110, Control_c, 0, 71, 43
2, 249118, System_exclusive, 9, 67, 16, 76, 3, 2, 0, 3, 18, 247
2, 249118, System_exclusive, 8, 67, 16, 76, 3, 2, 11, 5, 247
2, 249118, Control_c, 0, 11, 127
2, 249118, End_track
3, 0, Start_track
3, 0, Title_t, "Track 2"
3, 386, Control_c, 1, 0, 1
3, 386, Program_c, 1, 16
3, 387, Control_c, 1, 7, 82
3, 387, Control_c, 1, 10, 64
3, 387, Control_c, 1, 91, 26
3, 387, Control_c, 1, 93, 0
3, 776, Control_c, 1, 11, 127
3, 776, Control_c, 1, 94, 0
3, 776, Control_c, 1, 101, 0
3, 777, Control_c, 1, 100, 1
3, 778, Control_c, 1, 6, 64
3, 779, Control_c, 1, 38, 82
3, 4958, Note_on_c, 1, 58, 75
3, 5186, Note_on_c, 1, 58, 0
3, 5254, Note_on_c, 1, 57, 14
3, 5326, Note_on_c, 1, 57, 0
3, 5330, Note_on_c, 1, 58, 59
3, 5546, Note_on_c, 1, 58, 0
3, 5986, Note_on_c, 1, 63, 49
3, 5986, Note_on_c, 1, 67, 51
3, 6002, Note_on_c, 1, 58, 29
3, 6014, Note_on_c, 1, 67, 0
3, 6014, Note_on_c, 1, 62, 29
3, 6026, Note_on_c, 1, 63, 0
3, 6038, Note_on_c, 1, 58, 0
3, 6042, Note_on_c, 1, 62, 0
3, 6394, Note_on_c, 1, 63, 36
3, 6430, Note_on_c, 1, 63, 0
3, 6750, Note_on_c, 1, 66, 64
3, 6758, Note_on_c, 1, 63, 57
3, 6766, Note_on_c, 1, 61, 50
3, 6766, Note_on_c, 1, 57, 47
3, 7210, Note_on_c, 1, 66, 0
3, 7230, Note_on_c, 1, 57, 0
3, 7370, Note_on_c, 1, 63, 0
3, 7378, Note_on_c, 1, 61, 0
3, 7526, Note_on_c, 1, 62, 66
3, 7526, Note_on_c, 1, 60, 63
3, 7534, Note_on_c, 1, 65, 72
3, 7534, Note_on_c, 1, 55, 62
3, 8014, Note_on_c, 1, 65, 0
3, 8034, Note_on_c, 1, 62, 0
3, 8050, Note_on_c, 1, 60, 0
3, 8070, Note_on_c, 1, 55, 0
3, 8366, Note_on_c, 1, 58, 44
3, 8366, Note_on_c, 1, 53, 39
3, 8382, Note_on_c, 1, 55, 31
3, 8386, Note_on_c, 1, 62, 37
3, 8694, Note_on_c, 1, 55, 0
3, 8702, Note_on_c, 1, 53, 0
3, 8718, Note_on_c, 1, 58, 0
3, 8758, Note_on_c, 1, 62, 0
3, 9082, Note_on_c, 1, 58, 63
3, 9082, Note_on_c, 1, 63, 67
3, 9082, Note_on_c, 1, 60, 65
3, 9082, Note_on_c, 1, 67, 68
3, 9514, Note_on_c, 1, 67, 0
3, 9578, Note_on_c, 1, 60, 0
3, 9662, Note_on_c, 1, 58, 0
3, 9746, Note_on_c, 1, 63, 0
3, 9822, Note_on_c, 1, 63, 42
3, 9830, Note_on_c, 1, 57, 51
3, 9842, Note_on_c, 1, 67, 39
3, 9910, Note_on_c, 1, 67, 0
3, 10070, Note_on_c, 1, 63, 0
3, 10210, Note_on_c, 1, 63, 48
3, 10370, Note_on_c, 1, 57, 0
3, 10410, Note_on_c, 1, 63, 0
3, 10630, Note_on_c, 1, 62, 31
3, 10666, Note_on_c, 1, 62, 0
3, 10758, Note_on_c, 1, 62, 32
3, 10774, Note_on_c, 1, 60, 25
3, 10806, Note_on_c, 1, 60, 0
3, 10806, Note_on_c, 1, 62, 0
3, 10994, Note_on_c, 1, 65, 73
3, 10994, Note_on_c, 1, 62, 57
3, 10994, Note_on_c, 1, 60, 60
3, 11006, Note_on_c, 1, 55, 55
3, 11078, Note_on_c, 1, 65, 0
3, 11100, Note_on_c, 1, 62, 0
3, 11100, Note_on_c, 1, 60, 0
3, 11150, Note_on_c, 1, 62, 40
3, 11150, Note_on_c, 1, 65, 39
3, 11158, Note_on_c, 1, 60, 41
3, 11210, Note_on_c, 1, 65, 0
3, 11254, Note_on_c, 1, 60, 0
3, 11254, Note_on_c, 1, 62, 0
3, 11330, Note_on_c, 1, 55, 0
3, 11358, Note_on_c, 1, 58, 26
3, 11362, Note_on_c, 1, 65, 57
3, 11378, Note_on_c, 1, 60, 54
3, 11394, Note_on_c, 1, 65, 0
3, 11442, Note_on_c, 1, 60, 0
3, 11442, Note_on_c, 1, 58, 0
3, 11494, Note_on_c, 1, 67, 51
3, 11498, Note_on_c, 1, 56, 42
3, 11514, Note_on_c, 1, 60, 39
3, 11518, Note_on_c, 1, 63, 45
3, 11922, Note_on_c, 1, 67, 0
3, 11954, Note_on_c, 1, 56, 0
3, 11962, Note_on_c, 1, 60, 0
3, 11970, Note_on_c, 1, 63, 0
3, 12038, Note_on_c, 1, 66, 60
3, 12042, Note_on_c, 1, 56, 43
3, 12062, Note_on_c, 1, 66, 0
3, 12082, Note_on_c, 1, 56, 0
3, 12262, Note_on_c, 1, 62, 37
3, 12262, Note_on_c, 1, 65, 46
3, 12270, Note_on_c, 1, 60, 39
3, 12294, Note_on_c, 1, 55, 40
3, 12358, Note_on_c, 1, 65, 0
3, 12462, Note_on_c, 1, 62, 0
3, 12470, Note_on_c, 1, 60, 0
3, 12578, Note_on_c, 1, 55, 0
3, 12994, Note_on_c, 1, 60, 43
3, 12998, Note_on_c, 1, 54, 30
3, 13014, Note_on_c, 1, 58, 31
3, 13438, Note_on_c, 1, 60, 0
3, 13462, Note_on_c, 1, 58, 0
3, 13530, Note_on_c, 1, 54, 0
3, 13778, Note_on_c, 1, 60, 33
3, 13798, Note_on_c, 1, 53, 40
3, 13810, Note_on_c, 1, 57, 26
3, 13814, Note_on_c, 1, 60, 0
3, 13834, Note_on_c, 1, 53, 0
3, 13850, Note_on_c, 1, 57, 0
3, 14154, Note_on_c, 1, 63, 44
3, 14190, Note_on_c, 1, 59, 34
3, 14202, Note_on_c, 1, 58, 27
3, 14230, Note_on_c, 1, 59, 0
3, 14242, Note_on_c, 1, 58, 0
3, 14274, Note_on_c, 1, 63, 0
3, 14558, Note_on_c, 1, 67, 36
3, 14574, Note_on_c, 1, 63, 41
3, 14574, Note_on_c, 1, 58, 26
3, 14626, Note_on_c, 1, 58, 0
3, 14626, Note_on_c, 1, 63, 0
3, 14626, Note_on_c, 1, 67, 0
3, 14918, Note_on_c, 1, 66, 49
3, 14958, Note_on_c, 1, 63, 25
3, 14986, Note_on_c, 1, 66, 0
3, 14998, Note_on_c, 1, 63, 0
3, 15350, Note_on_c, 1, 62, 39
3, 15362, Note_on_c, 1, 60, 36
3, 15362, Note_on_c, 1, 65, 31
3, 15386, Note_on_c, 1, 55, 22
3, 15598, Note_on_c, 1, 55, 0
3, 15602, Note_on_c, 1, 62, 0
3, 15610, Note_on_c, 1, 65, 0
3, 15610, Note_on_c, 1, 60, 0
3, 15970, Note_on_c, 1, 66, 60
3, 15982, Note_on_c, 1, 63, 52
3, 15990, Note_on_c, 1, 61, 49
3, 15994, Note_on_c, 1, 57, 35
3, 16010, Note_on_c, 1, 66, 0
3, 16014, Note_on_c, 1, 63, 0
3, 16018, Note_on_c, 1, 61, 0
3, 16030, Note_on_c, 1, 57, 0
3, 16362, Note_on_c, 1, 66, 79
3, 16374, Note_on_c, 1, 57, 56
3, 16374, Note_on_c, 1, 63, 57
3, 16378, Note_on_c, 1, 61, 48
3, 16634, Note_on_c, 1, 57, 0
3, 16702, Note_on_c, 1, 66, 0
3, 16766, Note_on_c, 1, 61, 0
3, 16778, Note_on_c, 1, 63, 0
3, 16850, Note_on_c, 1, 62, 42
3, 16870, Note_on_c, 1, 65, 36
3, 16870, Note_on_c, 1, 60, 36
3, 16898, Note_on_c, 1, 55, 32
3, 17062, Note_on_c, 1, 62, 0
3, 17114, Note_on_c, 1, 60, 0
3, 17126, Note_on_c, 1, 65, 0
3, 17286, Note_on_c, 1, 55, 0
3, 17606, Note_on_c, 1, 58, 42
3, 17622, Note_on_c, 1, 53, 30
3, 17630, Note_on_c, 1, 62, 31
3, 17652, Note_on_c, 1, 55, 25
3, 17890, Note_on_c, 1, 53, 0
3, 17894, Note_on_c, 1, 58, 0
3, 17894, Note_on_c, 1, 62, 0
3, 17898, Note_on_c, 1, 55, 0
3, 18274, Note_on_c, 1, 67, 50
3, 18286, Note_on_c, 1, 63, 39
3, 18294, Note_on_c, 1, 58, 31
3, 18306, Note_on_c, 1, 67, 0
3, 18330, Note_on_c, 1, 63, 0
3, 18334, Note_on_c, 1, 58, 0
3, 18650, Note_on_c, 1, 67, 47
3, 18658, Note_on_c, 1, 63, 48
3, 18662, Note_on_c, 1, 62, 39
3, 18662, Note_on_c, 1, 58, 42
3, 18686, Note_on_c, 1, 67, 0
3, 18694, Note_on_c, 1, 62, 0
3, 18750, Note_on_c, 1, 63, 0
3, 18754, Note_on_c, 1, 58, 0
3, 19038, Note_on_c, 1, 66, 59
3, 19050, Note_on_c, 1, 63, 45
3, 19066, Note_on_c, 1, 61, 39
3, 19070, Note_on_c, 1, 66, 0
3, 19082, Note_on_c, 1, 63, 0
3, 19102, Note_on_c, 1, 61, 0
3, 19422, Note_on_c, 1, 66, 56
3, 19446, Note_on_c, 1, 66, 0
3, 19450, Note_on_c, 1, 61, 36
3, 19450, Note_on_c, 1, 63, 36
3, 19494, Note_on_c, 1, 63, 0
3, 19494, Note_on_c, 1, 61, 0
3, 19834, Note_on_c, 1, 65, 48
3, 19850, Note_on_c, 1, 62, 47
3, 19858, Note_on_c, 1, 60, 42
3, 19862, Note_on_c, 1, 65, 0
3, 19894, Note_on_c, 1, 60, 0
3, 19930, Note_on_c, 1, 62, 0
3, 20202, Note_on_c, 1, 65, 27
3, 20226, Note_on_c, 1, 62, 31
3, 20226, Note_on_c, 1, 60, 35
3, 20234, Note_on_c, 1, 65, 0
3, 20266, Note_on_c, 1, 62, 0
3, 20270, Note_on_c, 1, 60, 0
3, 20586, Note_on_c, 1, 58, 53
3, 20594, Note_on_c, 1, 62, 39
3, 20606, Note_on_c, 1, 55, 32
3, 20626, Note_on_c, 1, 62, 0
3, 20642, Note_on_c, 1, 55, 0
3, 20650, Note_on_c, 1, 58, 0
3, 20970, Note_on_c, 1, 62, 55
3, 20994, Note_on_c, 1, 62, 0
3, 21006, Note_on_c, 1, 58, 26
3, 21038, Note_on_c, 1, 58, 0
3, 21338, Note_on_c, 1, 63, 58
3, 21338, Note_on_c, 1, 67, 58
3, 21342, Note_on_c, 1, 60, 59
3, 21350, Note_on_c, 1, 58, 51
3, 21894, Note_on_c, 1, 67, 0
3, 21930, Note_on_c, 1, 63, 0
3, 21954, Note_on_c, 1, 60, 0
3, 22038, Note_on_c, 1, 58, 0
3, 22142, Note_on_c, 1, 63, 47
3, 22154, Note_on_c, 1, 57, 41
3, 22162, Note_on_c, 1, 67, 30
3, 22362, Note_on_c, 1, 67, 0
3, 22402, Note_on_c, 1, 63, 0
3, 22498, Note_on_c, 1, 63, 34
3, 22622, Note_on_c, 1, 63, 0
3, 22638, Note_on_c, 1, 57, 0
3, 23394, Note_on_c, 1, 67, 46
3, 23406, Note_on_c, 1, 62, 42
3, 23414, Note_on_c, 1, 56, 30
3, 23458, Note_on_c, 1, 67, 0
3, 23462, Note_on_c, 1, 56, 0
3, 23478, Note_on_c, 1, 62, 0
3, 23774, Note_on_c, 1, 67, 39
3, 23774, Note_on_c, 1, 63, 43
3, 23786, Note_on_c, 1, 56, 37
3, 23914, Note_on_c, 1, 67, 0
3, 23958, Note_on_c, 1, 56, 0
3, 23990, Note_on_c, 1, 63, 0
3, 24030, Note_on_c, 1, 56, 52
3, 24038, Note_on_c, 1, 66, 68
3, 24042, Note_on_c, 1, 62, 63
3, 24046, Note_on_c, 1, 60, 33
3, 24286, Note_on_c, 1, 60, 0
3, 24302, Note_on_c, 1, 66, 0
3, 24334, Note_on_c, 1, 62, 0
3, 24402, Note_on_c, 1, 56, 0
3, 24422, Note_on_c, 1, 65, 63
3, 24422, Note_on_c, 1, 62, 57
3, 24426, Note_on_c, 1, 60, 55
3, 24438, Note_on_c, 1, 55, 54
3, 24826, Note_on_c, 1, 65, 0
3, 24862, Note_on_c, 1, 58, 1
3, 24906, Note_on_c, 1, 62, 0
3, 24942, Note_on_c, 1, 60, 0
3, 24982, Note_on_c, 1, 55, 0
3, 25002, Note_on_c, 1, 58, 0
3, 25294, Note_on_c, 1, 60, 38
3, 25302, Note_on_c, 1, 54, 39
3, 25306, Note_on_c, 1, 65, 22
3, 25642, Note_on_c, 1, 65, 0
3, 25674, Note_on_c, 1, 60, 0
3, 25730, Note_on_c, 1, 54, 0
3, 26342, Note_on_c, 1, 63, 61
3, 26346, Note_on_c, 1, 59, 57
3, 26370, Note_on_c, 1, 63, 0
3, 26378, Note_on_c, 1, 59, 0
3, 26726, Note_on_c, 1, 61, 57
3, 26766, Note_on_c, 1, 61, 0
3, 27090, Note_on_c, 1, 66, 61
3, 27102, Note_on_c, 1, 63, 44
3, 27110, Note_on_c, 1, 61, 39
3, 27122, Note_on_c, 1, 66, 0
3, 27138, Note_on_c, 1, 57, 21
3, 27142, Note_on_c, 1, 63, 0
3, 27146, Note_on_c, 1, 61, 0
3, 27170, Note_on_c, 1, 57, 0
3, 27482, Note_on_c, 1, 65, 45
3, 27486, Note_on_c, 1, 62, 43
3, 27510, Note_on_c, 1, 65, 0
3, 27510, Note_on_c, 1, 60, 30
3, 27526, Note_on_c, 1, 62, 0
3, 27546, Note_on_c, 1, 60, 0
3, 27870, Note_on_c, 1, 65, 65
3, 27882, Note_on_c, 1, 62, 49
3, 27886, Note_on_c, 1, 60, 48
3, 27894, Note_on_c, 1, 65, 0
3, 27910, Note_on_c, 1, 62, 0
3, 27910, Note_on_c, 1, 74, 29
3, 27914, Note_on_c, 1, 60, 0
3, 27942, Note_on_c, 1, 74, 0
3, 28670, Note_on_c, 1, 54, 41
3, 28706, Note_on_c, 1, 54, 0
3, 28706, Note_on_c, 1, 56, 49
3, 28738, Note_on_c, 1, 58, 74
3, 28754, Note_on_c, 1, 70, 79
3, 28754, Note_on_c, 1, 63, 79
3, 28762, Note_on_c, 1, 67, 68
3, 28762, Note_on_c, 1, 60, 67
3, 28762, Note_on_c, 1, 59, 61
3, 28778, Note_on_c, 1, 56, 0
3, 28798, Note_on_c, 1, 58, 0
3, 28850, Note_on_c, 1, 59, 0
3, 28866, Note_on_c, 1, 70, 0
3, 28894, Note_on_c, 1, 67, 0
3, 28918, Note_on_c, 1, 63, 0
3, 28938, Note_on_c, 1, 60, 0
3, 29050, Note_on_c, 1, 49, 54
3, 29098, Note_on_c, 1, 50, 42
3, 29142, Note_on_c, 1, 49, 0
3, 29146, Note_on_c, 1, 63, 74
3, 29146, Note_on_c, 1, 58, 72
3, 29146, Note_on_c, 1, 60, 74
3, 29146, Note_on_c, 1, 51, 68
3, 29146, Note_on_c, 1, 55, 77
3, 29156, Note_on_c, 1, 50, 0
3, 29474, Note_on_c, 1, 55, 0
3, 29498, Note_on_c, 1, 60, 0
3, 29498, Note_on_c, 1, 63, 0
3, 29506, Note_on_c, 1, 58, 0
3, 29526, Note_on_c, 1, 51, 0
3, 29530, Note_on_c, 1, 50, 69
3, 29530, Note_on_c, 1, 62, 63
3, 29534, Note_on_c, 1, 55, 66
3, 29538, Note_on_c, 1, 58, 40
3, 29554, Note_on_c, 1, 60, 41
3, 29742, Note_on_c, 1, 60, 0
3, 29778, Note_on_c, 1, 55, 0
3, 29786, Note_on_c, 1, 58, 0
3, 29814, Note_on_c, 1, 62, 0
3, 29818, Note_on_c, 1, 49, 57
3, 29918, Note_on_c, 1, 49, 0
3, 29918, Note_on_c, 1, 51, 73
3, 29926, Note_on_c, 1, 50, 0
3, 29926, Note_on_c, 1, 63, 61
3, 29926, Note_on_c, 1, 60, 62
3, 29926, Note_on_c, 1, 58, 63
3, 29926, Note_on_c, 1, 55, 66
3, 30110, Note_on_c, 1, 63, 0
3, 30134, Note_on_c, 1, 55, 0
3, 30150, Note_on_c, 1, 51, 0
3, 30154, Note_on_c, 1, 58, 0
3, 30158, Note_on_c, 1, 60, 0
3, 30202, Note_on_c, 1, 51, 63
3, 30210, Note_on_c, 1, 63, 58
3, 30210, Note_on_c, 1, 58, 69
3, 30214, Note_on_c, 1, 55, 55
3, 30226, Note_on_c, 1, 60, 53
3, 30234, Note_on_c, 1, 55, 0
3, 30234, Note_on_c, 1, 63, 0
3, 30250, Note_on_c, 1, 60, 0
3, 30258, Note_on_c, 1, 51, 0
3, 30270, Note_on_c, 1, 58, 0
3, 30950, Note_on_c, 1, 62, 68
3, 30958, Note_on_c, 1, 53, 63
3, 30962, Note_on_c, 1, 48, 39
3, 30966, Note_on_c, 1, 56, 56
3, 30974, Note_on_c, 1, 60, 52
3, 31014, Note_on_c, 1, 60, 0
3, 31022, Note_on_c, 1, 53, 0
3, 31050, Note_on_c, 1, 56, 0
3, 31066, Note_on_c, 1, 48, 0
3, 31066, Note_on_c, 1, 62, 0
3, 31114, Note_on_c, 1, 50, 50
3, 31122, Note_on_c, 1, 63, 49
3, 31190, Note_on_c, 1, 63, 0
3, 31278, Note_on_c, 1, 50, 0
3, 31346, Note_on_c, 1, 51, 58
3, 31358, Note_on_c, 1, 60, 37
3, 31358, Note_on_c, 1, 56, 32
3, 31386, Note_on_c, 1, 63, 29
3, 31394, Note_on_c, 1, 56, 0
3, 31394, Note_on_c, 1, 60, 0
3, 31422, Note_on_c, 1, 63, 0
3, 31434, Note_on_c, 1, 51, 0
3, 31486, Note_on_c, 1, 61, 52
3, 31490, Note_on_c, 1, 66, 55
3, 31498, Note_on_c, 1, 54, 66
3, 31498, Note_on_c, 1, 58, 39
3, 31578, Note_on_c, 1, 66, 0
3, 31586, Note_on_c, 1, 61, 0
3, 31614, Note_on_c, 1, 58, 0
3, 31642, Note_on_c, 1, 54, 0
3, 31714, Note_on_c, 1, 68, 63
3, 31718, Note_on_c, 1, 56, 52
3, 31762, Note_on_c, 1, 68, 0
3, 31806, Note_on_c, 1, 56, 0
3, 31866, Note_on_c, 1, 58, 60
3, 31882, Note_on_c, 1, 61, 41
3, 31890, Note_on_c, 1, 58, 0
3, 31914, Note_on_c, 1, 61, 0
3, 32086, Note_on_c, 1, 73, 72
3, 32090, Note_on_c, 1, 61, 55
3, 32102, Note_on_c, 1, 66, 61
3, 32126, Note_on_c, 1, 66, 0
3, 32126, Note_on_c, 1, 61, 0
3, 32150, Note_on_c, 1, 73, 0
3, 32238, Note_on_c, 1, 66, 26
3, 32270, Note_on_c, 1, 66, 0
3, 32306, Note_on_c, 1, 70, 65
3, 32314, Note_on_c, 1, 65, 63
3, 32318, Note_on_c, 1, 60, 54
3, 32342, Note_on_c, 1, 55, 38
3, 32462, Note_on_c, 1, 65, 0
3, 32474, Note_on_c, 1, 60, 0
3, 32486, Note_on_c, 1, 70, 0
3, 32494, Note_on_c, 1, 55, 0
3, 32582, Note_on_c, 1, 69, 55
3, 32590, Note_on_c, 1, 54, 47
3, 32734, Note_on_c, 1, 69, 0
3, 32846, Note_on_c, 1, 70, 73
3, 32850, Note_on_c, 1, 63, 81
3, 32858, Note_on_c, 1, 55, 72
3, 32862, Note_on_c, 1, 54, 0
3, 32866, Note_on_c, 1, 67, 75
3, 32962, Note_on_c, 1, 67, 0
3, 32982, Note_on_c, 1, 55, 0
3, 32990, Note_on_c, 1, 63, 0
3, 32998, Note_on_c, 1, 70, 0
3, 33098, Note_on_c, 1, 70, 62
3, 33110, Note_on_c, 1, 63, 57
3, 33114, Note_on_c, 1, 55, 47
3, 33126, Note_on_c, 1, 67, 48
3, 33218, Note_on_c, 1, 70, 0
3, 33246, Note_on_c, 1, 63, 0
3, 33254, Note_on_c, 1, 67, 0
3, 33314, Note_on_c, 1, 55, 0
3, 33330, Note_on_c, 1, 50, 50
3, 33330, Note_on_c, 1, 63, 53
3, 33354, Note_on_c, 1, 58, 45
3, 33382, Note_on_c, 1, 50, 0
3, 33394, Note_on_c, 1, 63, 0
3, 33430, Note_on_c, 1, 58, 0
3, 33618, Note_on_c, 1, 53, 68
3, 33630, Note_on_c, 1, 60, 84
3, 33630, Note_on_c, 1, 63, 74
3, 33630, Note_on_c, 1, 67, 81
3, 33630, Note_on_c, 1, 56, 81
3, 33638, Note_on_c, 1, 55, 77
3, 33666, Note_on_c, 1, 53, 0
3, 34082, Note_on_c, 1, 67, 0
3, 34098, Note_on_c, 1, 56, 0
3, 34106, Note_on_c, 1, 60, 0
3, 34158, Note_on_c, 1, 55, 0
3, 34158, Note_on_c, 1, 65, 60
3, 34162, Note_on_c, 1, 53, 54
3, 34166, Note_on_c, 1, 56, 40
3, 34170, Note_on_c, 1, 60, 50
3, 34234, Note_on_c, 1, 63, 0
3, 34290, Note_on_c, 1, 56, 0
3, 34302, Note_on_c, 1, 60, 0
3, 34350, Note_on_c, 1, 65, 0
3, 34406, Note_on_c, 1, 51, 56
3, 34410, Note_on_c, 1, 63, 60
3, 34414, Note_on_c, 1, 56, 49
3, 34422, Note_on_c, 1, 60, 51
3, 34430, Note_on_c, 1, 53, 0
3, 34458, Note_on_c, 1, 60, 0
3, 34482, Note_on_c, 1, 56, 0
3, 34490, Note_on_c, 1, 51, 0
3, 34526, Note_on_c, 1, 63, 0
3, 34542, Note_on_c, 1, 50, 51
3, 34734, Note_on_c, 1, 50, 0
3, 34806, Note_on_c, 1, 53, 54
3, 34866, Note_on_c, 1, 53, 0
3, 34898, Note_on_c, 1, 63, 63
3, 34926, Note_on_c, 1, 70, 63
3, 34934, Note_on_c, 1, 58, 63
3, 35046, Note_on_c, 1, 58, 0
3, 35090, Note_on_c, 1, 63, 0
3, 35098, Note_on_c, 1, 70, 0
3, 35162, Note_on_c, 1, 68, 57
3, 35162, Note_on_c, 1, 63, 54
3, 35170, Note_on_c, 1, 56, 66
3, 35186, Note_on_c, 1, 68, 0
3, 35238, Note_on_c, 1, 63, 0
3, 35258, Note_on_c, 1, 56, 0
3, 35554, Note_on_c, 1, 58, 77
3, 35554, Note_on_c, 1, 67, 77
3, 35558, Note_on_c, 1, 53, 70
3, 35562, Note_on_c, 1, 62, 64
3, 35586, Note_on_c, 1, 62, 0
3, 35622, Note_on_c, 1, 53, 0
3, 35634, Note_on_c, 1, 67, 0
3, 35642, Note_on_c, 1, 58, 0
3, 35682, Note_on_c, 1, 66, 56
3, 35694, Note_on_c, 1, 52, 50
3, 35754, Note_on_c, 1, 66, 0
3, 35774, Note_on_c, 1, 52, 0
3, 35814, Note_on_c, 1, 58, 71
3, 35814, Note_on_c, 1, 67, 75
3, 35822, Note_on_c, 1, 62, 66
3, 35826, Note_on_c, 1, 53, 57
3, 35950, Note_on_c, 1, 62, 0
3, 35950, Note_on_c, 1, 67, 0
3, 35962, Note_on_c, 1, 58, 0
3, 35978, Note_on_c, 1, 53, 0
3, 35978, Note_on_c, 1, 51, 56
3, 36010, Note_on_c, 1, 51, 0
3, 36010, Note_on_c, 1, 66, 41
3, 36054, Note_on_c, 1, 66, 0
3, 36098, Note_on_c, 1, 67, 66
3, 36118, Note_on_c, 1, 54, 58
3, 36142, Note_on_c, 1, 54, 0
3, 36178, Note_on_c, 1, 67, 0
3, 36338, Note_on_c, 1, 72, 88
3, 36338, Note_on_c, 1, 65, 75
3, 36342, Note_on_c, 1, 61, 81
3, 36350, Note_on_c, 1, 62, 57
3, 36354, Note_on_c, 1, 60, 63
3, 36378, Note_on_c, 1, 62, 0
3, 36438, Note_on_c, 1, 60, 0
3, 36442, Note_on_c, 1, 61, 0
3, 36446, Note_on_c, 1, 72, 0
3, 36478, Note_on_c, 1, 65, 0
3, 36506, Note_on_c, 1, 58, 57
3, 36518, Note_on_c, 1, 70, 58
3, 36518, Note_on_c, 1, 61, 36
3, 36522, Note_on_c, 1, 65, 25
3, 36542, Note_on_c, 1, 58, 0
3, 36590, Note_on_c, 1, 65, 0
3, 36630, Note_on_c, 1, 70, 0
3, 36642, Note_on_c, 1, 61, 0
3, 36710, Note_on_c, 1, 61, 60
3, 36730, Note_on_c, 1, 51, 37
3, 36766, Note_on_c, 1, 51, 0
3, 36790, Note_on_c, 1, 61, 0
3, 36866, Note_on_c, 1, 44, 35
3, 36866, Note_on_c, 1, 63, 44
3, 36866, Note_on_c, 1, 60, 42
3, 36882, Note_on_c, 1, 55, 21
3, 37038, Note_on_c, 1, 55, 0
3, 37066, Note_on_c, 1, 60, 0
3, 37078, Note_on_c, 1, 44, 0
3, 37086, Note_on_c, 1, 63, 0
3, 37194, Note_on_c, 1, 51, 22
3, 37194, Note_on_c, 1, 44, 45
3, 37194, Note_on_c, 1, 63, 57
3, 37202, Note_on_c, 1, 60, 69
3, 37206, Note_on_c, 1, 55, 39
3, 37238, Note_on_c, 1, 55, 0
3, 37318, Note_on_c, 1, 51, 0
3, 37398, Note_on_c, 1, 60, 0
3, 37426, Note_on_c, 1, 63, 0
3, 37454, Note_on_c, 1, 51, 43
3, 37502, Note_on_c, 1, 51, 0
3, 37502, Note_on_c, 1, 44, 0
3, 37578, Note_on_c, 1, 49, 40
3, 37590, Note_on_c, 1, 63, 49
3, 37602, Note_on_c, 1, 59, 35
3, 37694, Note_on_c, 1, 63, 0
3, 37750, Note_on_c, 1, 59, 0
3, 37766, Note_on_c, 1, 49, 0
3, 37838, Note_on_c, 1, 70, 82
3, 37842, Note_on_c, 1, 59, 68
3, 37842, Note_on_c, 1, 58, 70
3, 37850, Note_on_c, 1, 63, 63
3, 37958, Note_on_c, 1, 58, 0
3, 37986, Note_on_c, 1, 63, 0
3, 38002, Note_on_c, 1, 59, 0
3, 38018, Note_on_c, 1, 70, 0
3, 38102, Note_on_c, 1, 56, 62
3, 38106, Note_on_c, 1, 68, 64
3, 38118, Note_on_c, 1, 63, 66
3, 38122, Note_on_c, 1, 59, 59
3, 38214, Note_on_c, 1, 59, 0
3, 38234, Note_on_c, 1, 68, 0
3, 38278, Note_on_c, 1, 56, 0
3, 38282, Note_on_c, 1, 54, 48
3, 38286, Note_on_c, 1, 63, 0
3, 38362, Note_on_c, 1, 54, 0
3, 38386, Note_on_c, 1, 58, 63
3, 38386, Note_on_c, 1, 67, 61
3, 38386, Note_on_c, 1, 55, 60
3, 38386, Note_on_c, 1, 62, 63
3, 38502, Note_on_c, 1, 62, 0
3, 38558, Note_on_c, 1, 67, 0
3, 38594, Note_on_c, 1, 55, 0
3, 38638, Note_on_c, 1, 49, 48
3, 38666, Note_on_c, 1, 58, 0
3, 38706, Note_on_c, 1, 49, 0
3, 38758, Note_on_c, 1, 66, 54
3, 38758, Note_on_c, 1, 54, 54
3, 38770, Note_on_c, 1, 58, 50
3, 38774, Note_on_c, 1, 61, 54
3, 38918, Note_on_c, 1, 54, 0
3, 38918, Note_on_c, 1, 66, 0
3, 38966, Note_on_c, 1, 61, 0
3, 38970, Note_on_c, 1, 58, 0
3, 39030, Note_on_c, 1, 51, 49
3, 39122, Note_on_c, 1, 51, 0
3, 39130, Note_on_c, 1, 56, 57
3, 39146, Note_on_c, 1, 65, 48
3, 39150, Note_on_c, 1, 53, 54
3, 39150, Note_on_c, 1, 60, 48
3, 39154, Note_on_c, 1, 63, 44
3, 39294, Note_on_c, 1, 56, 0
3, 39302, Note_on_c, 1, 60, 0
3, 39334, Note_on_c, 1, 65, 0
3, 39342, Note_on_c, 1, 53, 0
3, 39354, Note_on_c, 1, 63, 0
3, 39386, Note_on_c, 1, 46, 57
3, 39466, Note_on_c, 1, 46, 0
3, 39506, Note_on_c, 1, 56, 55
3, 39514, Note_on_c, 1, 65, 53
3, 39526, Note_on_c, 1, 62, 48
3, 39530, Note_on_c, 1, 59, 24
3, 39622, Note_on_c, 1, 56, 0
3, 39630, Note_on_c, 1, 62, 0
3, 39682, Note_on_c, 1, 65, 0
3, 39694, Note_on_c, 1, 59, 0
3, 39790, Note_on_c, 1, 63, 57
3, 39790, Note_on_c, 1, 60, 57
3, 39798, Note_on_c, 1, 55, 57
3, 39802, Note_on_c, 1, 51, 55
3, 39870, Note_on_c, 1, 55, 0
3, 39882, Note_on_c, 1, 60, 0
3, 39914, Note_on_c, 1, 63, 0
3, 39926, Note_on_c, 1, 51, 0
3, 40170, Note_on_c, 1, 51, 44
3, 40198, Note_on_c, 1, 51, 0
3, 41454, Note_on_c, 1, 65, 61
3, 41462, Note_on_c, 1, 62, 54
3, 41462, Note_on_c, 1, 60, 56
3, 41482, Note_on_c, 1, 65, 0
3, 41486, Note_on_c, 1, 62, 0
3, 41502, Note_on_c, 1, 60, 0
3, 42126, Note_on_c, 1, 58, 74
3, 42134, Note_on_c, 1, 62, 70
3, 42134, Note_on_c, 1, 55, 58
3, 42158, Note_on_c, 1, 55, 0
3, 42158, Note_on_c, 1, 62, 0
3, 42194, Note_on_c, 1, 58, 0
3, 42982, Note_on_c, 1, 67, 46
3, 42990, Note_on_c, 1, 63, 45
3, 43010, Note_on_c, 1, 58, 30
3, 43014, Note_on_c, 1, 60, 30
3, 43026, Note_on_c, 1, 67, 0
3, 43030, Note_on_c, 1, 63, 0
3, 43054, Note_on_c, 1, 58, 0
3, 43054, Note_on_c, 1, 60, 0
3, 43638, Note_on_c, 1, 66, 61
3, 43646, Note_on_c, 1, 63, 49
3, 43650, Note_on_c, 1, 61, 47
3, 43674, Note_on_c, 1, 66, 0
3, 43682, Note_on_c, 1, 63, 0
3, 43686, Note_on_c, 1, 61, 0
3, 44024, Note_on_c, 1, 66, 46
3, 44054, Note_on_c, 1, 66, 0
3, 44066, Note_on_c, 1, 63, 32
3, 44114, Note_on_c, 1, 63, 0
3, 44394, Note_on_c, 1, 62, 47
3, 44398, Note_on_c, 1, 60, 50
3, 44406, Note_on_c, 1, 65, 33
3, 44426, Note_on_c, 1, 60, 0
3, 44442, Note_on_c, 1, 65, 0
3, 44446, Note_on_c, 1, 62, 0
3, 44774, Note_on_c, 1, 60, 38
3, 44810, Note_on_c, 1, 60, 0
3, 45150, Note_on_c, 1, 58, 43
3, 45170, Note_on_c, 1, 62, 38
3, 45170, Note_on_c, 1, 53, 33
3, 45622, Note_on_c, 1, 53, 0
3, 45666, Note_on_c, 1, 58, 0
3, 45682, Note_on_c, 1, 62, 0
3, 45966, Note_on_c, 1, 67, 45
3, 45982, Note_on_c, 1, 63, 39
3, 45998, Note_on_c, 1, 67, 0
3, 46014, Note_on_c, 1, 63, 0
3, 46338, Note_on_c, 1, 67, 68
3, 46350, Note_on_c, 1, 60, 54
3, 46350, Note_on_c, 1, 63, 54
3, 46358, Note_on_c, 1, 58, 32
3, 46378, Note_on_c, 1, 60, 0
3, 46398, Note_on_c, 1, 67, 0
3, 46406, Note_on_c, 1, 58, 0
3, 46438, Note_on_c, 1, 63, 0
3, 46734, Note_on_c, 1, 66, 61
3, 46758, Note_on_c, 1, 63, 41
3, 46762, Note_on_c, 1, 66, 0
3, 46766, Note_on_c, 1, 61, 39
3, 46794, Note_on_c, 1, 63, 0
3, 46802, Note_on_c, 1, 61, 0
3, 47102, Note_on_c, 1, 66, 57
3, 47122, Note_on_c, 1, 63, 44
3, 47130, Note_on_c, 1, 66, 0
3, 47142, Note_on_c, 1, 61, 32
3, 47162, Note_on_c, 1, 63, 0
3, 47190, Note_on_c, 1, 61, 0
3, 47514, Note_on_c, 1, 65, 48
3, 47518, Note_on_c, 1, 62, 41
3, 47522, Note_on_c, 1, 60, 44
3, 47566, Note_on_c, 1, 55, 17
3, 47738, Note_on_c, 1, 65, 0
3, 47742, Note_on_c, 1, 62, 0
3, 47762, Note_on_c, 1, 60, 0
3, 47978, Note_on_c, 1, 55, 0
3, 48614, Note_on_c, 1, 66, 82
3, 48622, Note_on_c, 1, 56, 63
3, 48622, Note_on_c, 1, 62, 66
3, 48642, Note_on_c, 1, 60, 54
3, 48854, Note_on_c, 1, 60, 0
3, 48890, Note_on_c, 1, 66, 0
3, 48938, Note_on_c, 1, 56, 0
3, 48946, Note_on_c, 1, 62, 0
3, 48986, Note_on_c, 1, 62, 38
3, 48994, Note_on_c, 1, 65, 58
3, 48998, Note_on_c, 1, 60, 43
3, 49010, Note_on_c, 1, 55, 56
3, 49282, Note_on_c, 1, 62, 0
3, 49378, Note_on_c, 1, 62, 24
3, 49434, Note_on_c, 1, 58, 1
3, 49438, Note_on_c, 1, 65, 0
3, 49466, Note_on_c, 1, 62, 0
3, 49494, Note_on_c, 1, 60, 0
3, 49538, Note_on_c, 1, 55, 0
3, 49558, Note_on_c, 1, 58, 0
3, 49870, Note_on_c, 1, 60, 43
3, 49874, Note_on_c, 1, 54, 42
3, 49878, Note_on_c, 1, 65, 32
3, 49894, Note_on_c, 1, 58, 38
3, 50194, Note_on_c, 1, 65, 0
3, 50234, Note_on_c, 1, 60, 0
3, 50246, Note_on_c, 1, 58, 0
3, 50282, Note_on_c, 1, 54, 0
3, 50546, Note_on_c, 1, 60, 64
3, 50558, Note_on_c, 1, 53, 48
3, 50558, Note_on_c, 1, 57, 50
3, 50570, Note_on_c, 1, 60, 0
3, 50630, Note_on_c, 1, 57, 0
3, 50654, Note_on_c, 1, 53, 0
3, 51042, Note_on_c, 1, 59, 32
3, 51146, Note_on_c, 1, 59, 0
3, 51326, Note_on_c, 1, 62, 44
3, 51326, Note_on_c, 1, 58, 51
3, 51334, Note_on_c, 1, 52, 35
3, 51358, Note_on_c, 1, 62, 0
3, 51366, Note_on_c, 1, 52, 0
3, 51390, Note_on_c, 1, 58, 0
3, 52054, Note_on_c, 1, 65, 57
3, 52066, Note_on_c, 1, 62, 39
3, 52078, Note_on_c, 1, 65, 0
3, 52086, Note_on_c, 1, 60, 33
3, 52106, Note_on_c, 1, 62, 0
3, 52122, Note_on_c, 1, 60, 0
3, 52442, Note_on_c, 1, 53, 88
3, 52514, Note_on_c, 1, 53, 0
3, 52838, Note_on_c, 1, 41, 89
3, 52926, Note_on_c, 1, 41, 0
3, 53650, Note_on_c, 1, 65, 55
3, 53658, Note_on_c, 1, 62, 51
3, 53670, Note_on_c, 1, 60, 44
3, 53674, Note_on_c, 1, 65, 0
3, 53698, Note_on_c, 1, 60, 0
3, 53698, Note_on_c, 1, 62, 0
3, 54006, Note_on_c, 1, 65, 48
3, 54022, Note_on_c, 1, 60, 43
3, 54030, Note_on_c, 1, 65, 0
3, 54030, Note_on_c, 1, 62, 39
3, 54054, Note_on_c, 1, 60, 0
3, 54058, Note_on_c, 1, 62, 0
3, 54510, Note_on_c, 1, 62, 41
3, 54514, Note_on_c, 1, 58, 47
3, 54530, Note_on_c, 1, 55, 35
3, 54530, Note_on_c, 1, 53, 35
3, 54830, Note_on_c, 1, 55, 0
3, 54834, Note_on_c, 1, 53, 0
3, 54854, Note_on_c, 1, 58, 0
3, 54910, Note_on_c, 1, 62, 0
3, 55162, Note_on_c, 1, 63, 50
3, 55162, Note_on_c, 1, 67, 46
3, 55166, Note_on_c, 1, 60, 46
3, 55174, Note_on_c, 1, 58, 41
3, 55562, Note_on_c, 1, 67, 0
3, 55646, Note_on_c, 1, 60, 0
3, 55698, Note_on_c, 1, 58, 0
3, 55810, Note_on_c, 1, 63, 0
3, 55938, Note_on_c, 1, 66, 57
3, 55946, Note_on_c, 1, 63, 44
3, 55966, Note_on_c, 1, 61, 42
3, 55970, Note_on_c, 1, 66, 0
3, 55974, Note_on_c, 1, 57, 31
3, 55978, Note_on_c, 1, 63, 0
3, 55994, Note_on_c, 1, 61, 0
3, 56006, Note_on_c, 1, 57, 0
3, 56310, Note_on_c, 1, 66, 70
3, 56322, Note_on_c, 1, 63, 57
3, 56326, Note_on_c, 1, 57, 50
3, 56326, Note_on_c, 1, 61, 50
3, 56438, Note_on_c, 1, 57, 0
3, 56466, Note_on_c, 1, 66, 0
3, 56554, Note_on_c, 1, 61, 0
3, 56562, Note_on_c, 1, 63, 0
3, 56702, Note_on_c, 1, 65, 74
3, 56710, Note_on_c, 1, 60, 63
3, 56710, Note_on_c, 1, 62, 57
3, 56726, Note_on_c, 1, 55, 47
3, 56850, Note_on_c, 1, 65, 0
3, 56926, Note_on_c, 1, 62, 0
3, 56946, Note_on_c, 1, 60, 0
3, 57082, Note_on_c, 1, 62, 42
3, 57086, Note_on_c, 1, 60, 46
3, 57122, Note_on_c, 1, 62, 0
3, 57126, Note_on_c, 1, 60, 0
3, 57178, Note_on_c, 1, 55, 0
3, 57410, Note_on_c, 1, 58, 46
3, 57454, Note_on_c, 1, 55, 22
3, 57466, Note_on_c, 1, 53, 20
3, 57530, Note_on_c, 1, 53, 0
3, 57562, Note_on_c, 1, 58, 0
3, 57578, Note_on_c, 1, 55, 0
3, 57822, Note_on_c, 1, 58, 43
3, 57890, Note_on_c, 1, 58, 0
3, 58258, Note_on_c, 1, 63, 43
3, 58278, Note_on_c, 1, 58, 22
3, 58330, Note_on_c, 1, 58, 0
3, 58362, Note_on_c, 1, 63, 0
3, 58978, Note_on_c, 1, 66, 63
3, 58998, Note_on_c, 1, 63, 42
3, 59002, Note_on_c, 1, 66, 0
3, 59026, Note_on_c, 1, 63, 0
3, 59378, Note_on_c, 1, 63, 38
3, 59390, Note_on_c, 1, 61, 32
3, 59406, Note_on_c, 1, 63, 0
3, 59434, Note_on_c, 1, 61, 0
3, 59750, Note_on_c, 1, 65, 78
3, 59754, Note_on_c, 1, 62, 59
3, 59758, Note_on_c, 1, 60, 63
3, 59762, Note_on_c, 1, 55, 55
3, 59798, Note_on_c, 1, 58, 25
3, 60166, Note_on_c, 1, 55, 0
3, 60190, Note_on_c, 1, 62, 0
3, 60198, Note_on_c, 1, 58, 0
3, 60214, Note_on_c, 1, 60, 0
3, 60218, Note_on_c, 1, 65, 0
3, 60466, Note_on_c, 1, 63, 41
3, 60498, Note_on_c, 1, 63, 0
3, 60714, Note_on_c, 1, 67, 52
3, 60718, Note_on_c, 1, 63, 50
3, 60726, Note_on_c, 1, 56, 34
3, 60754, Note_on_c, 1, 60, 37
3, 60790, Note_on_c, 1, 67, 0
3, 60826, Note_on_c, 1, 63, 0
3, 60838, Note_on_c, 1, 56, 0
3, 60850, Note_on_c, 1, 60, 0
3, 60930, Note_on_c, 1, 66, 63
3, 60942, Note_on_c, 1, 56, 45
3, 60950, Note_on_c, 1, 60, 39
3, 60958, Note_on_c, 1, 62, 47
3, 61154, Note_on_c, 1, 60, 0
3, 61198, Note_on_c, 1, 66, 0
3, 61262, Note_on_c, 1, 62, 0
3, 61274, Note_on_c, 1, 56, 0
3, 61318, Note_on_c, 1, 62, 33
3, 61330, Note_on_c, 1, 60, 24
3, 61334, Note_on_c, 1, 65, 39
3, 61338, Note_on_c, 1, 55, 46
3, 61374, Note_on_c, 1, 65, 0
3, 61514, Note_on_c, 1, 62, 0
3, 61514, Note_on_c, 1, 60, 0
3, 61574, Note_on_c, 1, 55, 0
3, 61770, Note_on_c, 1, 58, 20
3, 61826, Note_on_c, 1, 58, 0
3, 62078, Note_on_c, 1, 65, 44
3, 62078, Note_on_c, 1, 58, 43
3, 62086, Note_on_c, 1, 54, 36
3, 62090, Note_on_c, 1, 60, 46
3, 62110, Note_on_c, 1, 65, 0
3, 62126, Note_on_c, 1, 54, 0
3, 62130, Note_on_c, 1, 60, 0
3, 62198, Note_on_c, 1, 58, 0
3, 62450, Note_on_c, 1, 54, 33
3, 62482, Note_on_c, 1, 58, 25
3, 62510, Note_on_c, 1, 54, 0
3, 62522, Note_on_c, 1, 58, 0
3, 62826, Note_on_c, 1, 53, 50
3, 62826, Note_on_c, 1, 57, 54
3, 62834, Note_on_c, 1, 60, 41
3, 62862, Note_on_c, 1, 60, 0
3, 62862, Note_on_c, 1, 57, 0
3, 62870, Note_on_c, 1, 53, 0
3, 63622, Note_on_c, 1, 63, 52
3, 63694, Note_on_c, 1, 63, 0
3, 63994, Note_on_c, 1, 63, 45
3, 64022, Note_on_c, 1, 63, 0
3, 64362, Note_on_c, 1, 65, 48
3, 64374, Note_on_c, 1, 62, 47
3, 64374, Note_on_c, 1, 60, 50
3, 64390, Note_on_c, 1, 65, 0
3, 64402, Note_on_c, 1, 62, 0
3, 64410, Note_on_c, 1, 60, 0
3, 64766, Note_on_c, 1, 53, 39
3, 64798, Note_on_c, 1, 53, 0
3, 65134, Note_on_c, 1, 60, 41
3, 65198, Note_on_c, 1, 60, 0
3, 65918, Note_on_c, 1, 60, 42
3, 65954, Note_on_c, 1, 60, 0
3, 66814, Note_on_c, 1, 62, 57
3, 66818, Note_on_c, 1, 58, 50
3, 66842, Note_on_c, 1, 62, 0
3, 66842, Note_on_c, 1, 55, 25
3, 66870, Note_on_c, 1, 55, 0
3, 66890, Note_on_c, 1, 58, 0
3, 67462, Note_on_c, 1, 63, 41
3, 67466, Note_on_c, 1, 67, 32
3, 67470, Note_on_c, 1, 60, 39
3, 67478, Note_on_c, 1, 58, 29
3, 67954, Note_on_c, 1, 67, 0
3, 67994, Note_on_c, 1, 60, 0
3, 68058, Note_on_c, 1, 58, 0
3, 68090, Note_on_c, 1, 63, 0
3, 68202, Note_on_c, 1, 66, 57
3, 68210, Note_on_c, 1, 63, 48
3, 68218, Note_on_c, 1, 61, 46
3, 68226, Note_on_c, 1, 66, 0
3, 68254, Note_on_c, 1, 61, 0
3, 68278, Note_on_c, 1, 63, 0
3, 68578, Note_on_c, 1, 66, 61
3, 68590, Note_on_c, 1, 63, 48
3, 68602, Note_on_c, 1, 66, 0
3, 68606, Note_on_c, 1, 61, 39
3, 68658, Note_on_c, 1, 61, 0
3, 68686, Note_on_c, 1, 63, 0
3, 68966, Note_on_c, 1, 62, 45
3, 68970, Note_on_c, 1, 60, 48
3, 68970, Note_on_c, 1, 65, 43
3, 68982, Note_on_c, 1, 55, 35
3, 69002, Note_on_c, 1, 65, 0
3, 69110, Note_on_c, 1, 55, 0
3, 69114, Note_on_c, 1, 60, 0
3, 69146, Note_on_c, 1, 62, 0
3, 69342, Note_on_c, 1, 65, 40
3, 69354, Note_on_c, 1, 62, 46
3, 69358, Note_on_c, 1, 60, 47
3, 69370, Note_on_c, 1, 65, 0
3, 69394, Note_on_c, 1, 62, 0
3, 69398, Note_on_c, 1, 60, 0
3, 69734, Note_on_c, 1, 58, 50
3, 69754, Note_on_c, 1, 62, 39
3, 69754, Note_on_c, 1, 55, 38
3, 69762, Note_on_c, 1, 53, 31
3, 69954, Note_on_c, 1, 58, 0
3, 69990, Note_on_c, 1, 62, 0
3, 70086, Note_on_c, 1, 58, 44
3, 70090, Note_on_c, 1, 62, 31
3, 70126, Note_on_c, 1, 62, 0
3, 70130, Note_on_c, 1, 53, 0
3, 70146, Note_on_c, 1, 55, 0
3, 70158, Note_on_c, 1, 58, 0
3, 70558, Note_on_c, 1, 67, 39
3, 70562, Note_on_c, 1, 63, 41
3, 70618, Note_on_c, 1, 67, 0
3, 70626, Note_on_c, 1, 63, 0
3, 70918, Note_on_c, 1, 63, 54
3, 70990, Note_on_c, 1, 63, 0
3, 71298, Note_on_c, 1, 63, 56
3, 71386, Note_on_c, 1, 63, 0
3, 71662, Note_on_c, 1, 63, 66
3, 71686, Note_on_c, 1, 57, 39
3, 71734, Note_on_c, 1, 57, 0
3, 71774, Note_on_c, 1, 63, 0
3, 72070, Note_on_c, 1, 62, 47
3, 72070, Note_on_c, 1, 65, 42
3, 72082, Note_on_c, 1, 60, 50
3, 72102, Note_on_c, 1, 65, 0
3, 72162, Note_on_c, 1, 62, 0
3, 72170, Note_on_c, 1, 60, 0
3, 72430, Note_on_c, 1, 65, 39
3, 72462, Note_on_c, 1, 65, 0
3, 73310, Note_on_c, 1, 67, 52
3, 73322, Note_on_c, 1, 63, 52
3, 73326, Note_on_c, 1, 56, 37
3, 73350, Note_on_c, 1, 60, 45
3, 73470, Note_on_c, 1, 67, 0
3, 73510, Note_on_c, 1, 56, 0
3, 73534, Note_on_c, 1, 60, 0
3, 73542, Note_on_c, 1, 63, 0
3, 73582, Note_on_c, 1, 56, 49
3, 73590, Note_on_c, 1, 66, 71
3, 73614, Note_on_c, 1, 62, 46
3, 73650, Note_on_c, 1, 60, 24
3, 73670, Note_on_c, 1, 66, 0
3, 73710, Note_on_c, 1, 56, 0
3, 73750, Note_on_c, 1, 55, 46
3, 73754, Note_on_c, 1, 65, 27
3, 73882, Note_on_c, 1, 62, 0
3, 73890, Note_on_c, 1, 60, 0
3, 73942, Note_on_c, 1, 65, 0
3, 73966, Note_on_c, 1, 62, 40
3, 73982, Note_on_c, 1, 58, 1
3, 73994, Note_on_c, 1, 60, 24
3, 74006, Note_on_c, 1, 62, 0
3, 74030, Note_on_c, 1, 60, 0
3, 74038, Note_on_c, 1, 58, 0
3, 74062, Note_on_c, 1, 55, 0
3, 74346, Note_on_c, 1, 65, 57
3, 74358, Note_on_c, 1, 60, 54
3, 74362, Note_on_c, 1, 58, 43
3, 74362, Note_on_c, 1, 54, 32
3, 74366, Note_on_c, 1, 65, 0
3, 74398, Note_on_c, 1, 54, 0
3, 74402, Note_on_c, 1, 58, 0
3, 74422, Note_on_c, 1, 60, 0
3, 74730, Note_on_c, 1, 65, 37
3, 74734, Note_on_c, 1, 58, 41
3, 74746, Note_on_c, 1, 60, 37
3, 74762, Note_on_c, 1, 65, 0
3, 74782, Note_on_c, 1, 60, 0
3, 74818, Note_on_c, 1, 58, 0
3, 75422, Note_on_c, 1, 60, 55
3, 75426, Note_on_c, 1, 57, 45
3, 75430, Note_on_c, 1, 53, 48
3, 75446, Note_on_c, 1, 60, 0
3, 75454, Note_on_c, 1, 57, 0
3, 75458, Note_on_c, 1, 53, 0
3, 75650, Note_on_c, 1, 63, 68
3, 75658, Note_on_c, 1, 53, 60
3, 75662, Note_on_c, 1, 59, 55
3, 75770, Note_on_c, 1, 53, 0
3, 75798, Note_on_c, 1, 59, 0
3, 75826, Note_on_c, 1, 63, 0
3, 75974, Note_on_c, 1, 58, 52
3, 75986, Note_on_c, 1, 63, 48
3, 75986, Note_on_c, 1, 67, 42
3, 76022, Note_on_c, 1, 67, 0
3, 76034, Note_on_c, 1, 63, 0
3, 76058, Note_on_c, 1, 58, 0
3, 76246, Note_on_c, 1, 66, 63
3, 76262, Note_on_c, 1, 63, 50
3, 76266, Note_on_c, 1, 57, 41
3, 76270, Note_on_c, 1, 61, 47
3, 76306, Note_on_c, 1, 61, 0
3, 76394, Note_on_c, 1, 61, 4
3, 76590, Note_on_c, 1, 57, 0
3, 76658, Note_on_c, 1, 66, 0
3, 76710, Note_on_c, 1, 63, 0
3, 76710, Note_on_c, 1, 61, 0
3, 76782, Note_on_c, 1, 65, 46
3, 76790, Note_on_c, 1, 62, 45
3, 76802, Note_on_c, 1, 60, 41
3, 76830, Note_on_c, 1, 55, 36
3, 77346, Note_on_c, 1, 62, 0
3, 77370, Note_on_c, 1, 60, 0
3, 77410, Note_on_c, 1, 65, 0
3, 77426, Note_on_c, 1, 55, 0
3, 77930, Note_on_c, 1, 66, 80
3, 77934, Note_on_c, 1, 56, 65
3, 77934, Note_on_c, 1, 62, 58
3, 77942, Note_on_c, 1, 60, 57
3, 78050, Note_on_c, 1, 62, 0
3, 78054, Note_on_c, 1, 60, 0
3, 78066, Note_on_c, 1, 66, 0
3, 78134, Note_on_c, 1, 56, 0
3, 78306, Note_on_c, 1, 65, 72
3, 78306, Note_on_c, 1, 62, 61
3, 78314, Note_on_c, 1, 60, 61
3, 78318, Note_on_c, 1, 55, 49
3, 78366, Note_on_c, 1, 65, 0
3, 78398, Note_on_c, 1, 62, 0
3, 78398, Note_on_c, 1, 60, 0
3, 78442, Note_on_c, 1, 55, 0
3, 78630, Note_on_c, 1, 53, 51
3, 78670, Note_on_c, 1, 54, 61
3, 78678, Note_on_c, 1, 53, 0
3, 78702, Note_on_c, 1, 70, 85
3, 78706, Note_on_c, 1, 65, 80
3, 78710, Note_on_c, 1, 60, 76
3, 78710, Note_on_c, 1, 55, 59
3, 78726, Note_on_c, 1, 54, 0
3, 79294, Note_on_c, 1, 65, 0
3, 79322, Note_on_c, 1, 60, 0
3, 79378, Note_on_c, 1, 70, 0
3, 79462, Note_on_c, 1, 55, 0
3, 79462, Note_on_c, 1, 67, 61
3, 79462, Note_on_c, 1, 51, 54
3, 79462, Note_on_c, 1, 63, 58
3, 79470, Note_on_c, 1, 58, 54
3, 79582, Note_on_c, 1, 67, 0
3, 79626, Note_on_c, 1, 63, 0
3, 79674, Note_on_c, 1, 58, 0
3, 79738, Note_on_c, 1, 51, 0
3, 79758, Note_on_c, 1, 49, 39
3, 79790, Note_on_c, 1, 49, 0
3, 79822, Note_on_c, 1, 48, 54
3, 79834, Note_on_c, 1, 56, 48
3, 79834, Note_on_c, 1, 60, 59
3, 80050, Note_on_c, 1, 56, 0
3, 80066, Note_on_c, 1, 60, 0
3, 80086, Note_on_c, 1, 48, 0
3, 80102, Note_on_c, 1, 67, 76
3, 80102, Note_on_c, 1, 56, 66
3, 80110, Note_on_c, 1, 60, 63
3, 80126, Note_on_c, 1, 63, 55
3, 80126, Note_on_c, 1, 55, 63
3, 80174, Note_on_c, 1, 67, 0
3, 80182, Note_on_c, 1, 56, 0
3, 80194, Note_on_c, 1, 60, 0
3, 80198, Note_on_c, 1, 55, 0
3, 80222, Note_on_c, 1, 63, 0
3, 80246, Note_on_c, 1, 51, 54
3, 80442, Note_on_c, 1, 51, 0
3, 80498, Note_on_c, 1, 62, 74
3, 80498, Note_on_c, 1, 59, 66
3, 80502, Note_on_c, 1, 56, 73
3, 80502, Note_on_c, 1, 66, 63
3, 80522, Note_on_c, 1, 59, 0
3, 80522, Note_on_c, 1, 62, 0
3, 80542, Note_on_c, 1, 56, 0
3, 80586, Note_on_c, 1, 66, 0
3, 80706, Note_on_c, 1, 61, 34
3, 80742, Note_on_c, 1, 61, 0
3, 80854, Note_on_c, 1, 62, 75
3, 80858, Note_on_c, 1, 70, 77
3, 80858, Note_on_c, 1, 58, 86
3, 80862, Note_on_c, 1, 65, 63
3, 80862, Note_on_c, 1, 59, 72
3, 80894, Note_on_c, 1, 59, 0
3, 80906, Note_on_c, 1, 65, 0
3, 80910, Note_on_c, 1, 58, 0
3, 80922, Note_on_c, 1, 70, 0
3, 80926, Note_on_c, 1, 62, 0
3, 80974, Note_on_c, 1, 56, 55
3, 81074, Note_on_c, 1, 56, 0
3, 81086, Note_on_c, 1, 58, 75
3, 81086, Note_on_c, 1, 70, 81
3, 81094, Note_on_c, 1, 62, 70
3, 81098, Note_on_c, 1, 59, 71
3, 81106, Note_on_c, 1, 65, 50
3, 81186, Note_on_c, 1, 59, 0
3, 81186, Note_on_c, 1, 70, 0
3, 81194, Note_on_c, 1, 58, 0
3, 81198, Note_on_c, 1, 65, 0
3, 81218, Note_on_c, 1, 62, 0
3, 81238, Note_on_c, 1, 56, 59
3, 81250, Note_on_c, 1, 68, 63
3, 81254, Note_on_c, 1, 59, 57
3, 81258, Note_on_c, 1, 62, 43
3, 81266, Note_on_c, 1, 65, 45
3, 81294, Note_on_c, 1, 65, 0
3, 81294, Note_on_c, 1, 59, 0
3, 81310, Note_on_c, 1, 68, 0
3, 81338, Note_on_c, 1, 54, 47
3, 81350, Note_on_c, 1, 62, 0
3, 81358, Note_on_c, 1, 56, 0
3, 81402, Note_on_c, 1, 54, 0
3, 81422, Note_on_c, 1, 62, 63
3, 81422, Note_on_c, 1, 58, 58
3, 81426, Note_on_c, 1, 55, 58
3, 81434, Note_on_c, 1, 67, 53
3, 81614, Note_on_c, 1, 67, 0
3, 81618, Note_on_c, 1, 62, 0
3, 81670, Note_on_c, 1, 58, 0
3, 81686, Note_on_c, 1, 55, 0
3, 81738, Note_on_c, 1, 50, 59
3, 81746, Note_on_c, 1, 62, 52
3, 81758, Note_on_c, 1, 58, 30
3, 81766, Note_on_c, 1, 55, 35
3, 81902, Note_on_c, 1, 55, 0
3, 81922, Note_on_c, 1, 49, 36
3, 81946, Note_on_c, 1, 58, 0
3, 81958, Note_on_c, 1, 62, 0
3, 81986, Note_on_c, 1, 50, 0
3, 82002, Note_on_c, 1, 58, 72
3, 82002, Note_on_c, 1, 65, 68
3, 82006, Note_on_c, 1, 53, 72
3, 82010, Note_on_c, 1, 49, 0
3, 82010, Note_on_c, 1, 62, 54
3, 82014, Note_on_c, 1, 55, 66
3, 82082, Note_on_c, 1, 65, 0
3, 82094, Note_on_c, 1, 55, 0
3, 82098, Note_on_c, 1, 62, 0
3, 82126, Note_on_c, 1, 58, 0
3, 82130, Note_on_c, 1, 53, 0
3, 82138, Note_on_c, 1, 51, 52
3, 82170, Note_on_c, 1, 63, 45
3, 82198, Note_on_c, 1, 55, 21
3, 82310, Note_on_c, 1, 55, 0
3, 82370, Note_on_c, 1, 51, 0
3, 82378, Note_on_c, 1, 63, 0
3, 82398, Note_on_c, 1, 58, 71
3, 82406, Note_on_c, 1, 48, 65
3, 82410, Note_on_c, 1, 55, 55
3, 82434, Note_on_c, 1, 55, 0
3, 82466, Note_on_c, 1, 58, 0
3, 82470, Note_on_c, 1, 48, 0
3, 82786, Note_on_c, 1, 58, 47
3, 82814, Note_on_c, 1, 58, 0
3, 82814, Note_on_c, 1, 61, 50
3, 82894, Note_on_c, 1, 75, 89
3, 82898, Note_on_c, 1, 68, 87
3, 82902, Note_on_c, 1, 61, 0
3, 82902, Note_on_c, 1, 65, 87
3, 82906, Note_on_c, 1, 72, 75
3, 82906, Note_on_c, 1, 63, 85
3, 83158, Note_on_c, 1, 72, 0
3, 83226, Note_on_c, 1, 65, 0
3, 83250, Note_on_c, 1, 68, 0
3, 83258, Note_on_c, 1, 75, 0
3, 83282, Note_on_c, 1, 63, 0
3, 83298, Note_on_c, 1, 72, 51
3, 83306, Note_on_c, 1, 60, 50
3, 83306, Note_on_c, 1, 65, 39
3, 83310, Note_on_c, 1, 68, 54
3, 83442, Note_on_c, 1, 65, 0
3, 83462, Note_on_c, 1, 68, 0
3, 83474, Note_on_c, 1, 72, 0
3, 83542, Note_on_c, 1, 75, 80
3, 83550, Note_on_c, 1, 63, 81
3, 83550, Note_on_c, 1, 68, 84
3, 83558, Note_on_c, 1, 65, 71
3, 83562, Note_on_c, 1, 72, 61
3, 83610, Note_on_c, 1, 60, 0
3, 83626, Note_on_c, 1, 72, 0
3, 83638, Note_on_c, 1, 75, 0
3, 83646, Note_on_c, 1, 65, 0
3, 83650, Note_on_c, 1, 63, 0
3, 83674, Note_on_c, 1, 68, 0
3, 83726, Note_on_c, 1, 62, 50
3, 83730, Note_on_c, 1, 65, 29
3, 83738, Note_on_c, 1, 74, 55
3, 83738, Note_on_c, 1, 71, 42
3, 83738, Note_on_c, 1, 67, 47
3, 83810, Note_on_c, 1, 71, 0
3, 83818, Note_on_c, 1, 73, 41
3, 83822, Note_on_c, 1, 74, 0
3, 83826, Note_on_c, 1, 67, 0
3, 83846, Note_on_c, 1, 73, 0
3, 83866, Note_on_c, 1, 65, 0
3, 83934, Note_on_c, 1, 62, 0
3, 83938, Note_on_c, 1, 61, 66
3, 83942, Note_on_c, 1, 65, 61
3, 83942, Note_on_c, 1, 73, 69
3, 83950, Note_on_c, 1, 67, 61
3, 83958, Note_on_c, 1, 70, 56
3, 84038, Note_on_c, 1, 67, 0
3, 84038, Note_on_c, 1, 65, 0
3, 84054, Note_on_c, 1, 73, 0
3, 84062, Note_on_c, 1, 70, 0
3, 84074, Note_on_c, 1, 61, 0
3, 84114, Note_on_c, 1, 60, 54
3, 84118, Note_on_c, 1, 72, 40
3, 84118, Note_on_c, 1, 65, 41
3, 84122, Note_on_c, 1, 67, 48
3, 84202, Note_on_c, 1, 67, 0
3, 84210, Note_on_c, 1, 72, 0
3, 84230, Note_on_c, 1, 60, 0
3, 84238, Note_on_c, 1, 65, 0
3, 84318, Note_on_c, 1, 71, 82
3, 84322, Note_on_c, 1, 59, 64
3, 84338, Note_on_c, 1, 67, 40
3, 84338, Note_on_c, 1, 65, 65
3, 84346, Note_on_c, 1, 62, 46
3, 84350, Note_on_c, 1, 64, 46
3, 84378, Note_on_c, 1, 64, 0
3, 84406, Note_on_c, 1, 71, 0
3, 84406, Note_on_c, 1, 62, 0
3, 84418, Note_on_c, 1, 67, 0
3, 84438, Note_on_c, 1, 65, 0
3, 84486, Note_on_c, 1, 59, 0
3, 84494, Note_on_c, 1, 58, 56
3, 84510, Note_on_c, 1, 67, 37
3, 84510, Note_on_c, 1, 65, 40
3, 84522, Note_on_c, 1, 62, 34
3, 84530, Note_on_c, 1, 70, 54
3, 84634, Note_on_c, 1, 67, 0
3, 84658, Note_on_c, 1, 58, 0
3, 84658, Note_on_c, 1, 70, 0
3, 84658, Note_on_c, 1, 65, 0
3, 84666, Note_on_c, 1, 62, 0
3, 84730, Note_on_c, 1, 57, 60
3, 84750, Note_on_c, 1, 69, 25
3, 84754, Note_on_c, 1, 62, 24
3, 84786, Note_on_c, 1, 62, 0
3, 84794, Note_on_c, 1, 69, 0
3, 84822, Note_on_c, 1, 57, 0
3, 84850, Note_on_c, 1, 58, 57
3, 84850, Note_on_c, 1, 70, 65
3, 84854, Note_on_c, 1, 62, 54
3, 84858, Note_on_c, 1, 65, 52
3, 84970, Note_on_c, 1, 62, 0
3, 85014, Note_on_c, 1, 70, 0
3, 85054, Note_on_c, 1, 65, 0
3, 85102, Note_on_c, 1, 65, 81
3, 85106, Note_on_c, 1, 58, 0
3, 85106, Note_on_c, 1, 72, 87
3, 85110, Note_on_c, 1, 61, 81
3, 85110, Note_on_c, 1, 60, 81
3, 85226, Note_on_c, 1, 72, 0
3, 85230, Note_on_c, 1, 61, 0
3, 85250, Note_on_c, 1, 65, 0
3, 85270, Note_on_c, 1, 60, 0
3, 85314, Note_on_c, 1, 58, 60
3, 85318, Note_on_c, 1, 70, 65
3, 85322, Note_on_c, 1, 65, 52
3, 85334, Note_on_c, 1, 61, 52
3, 85434, Note_on_c, 1, 70, 0
3, 85450, Note_on_c, 1, 65, 0
3, 85482, Note_on_c, 1, 54, 21
3, 85502, Note_on_c, 1, 58, 0
3, 85526, Note_on_c, 1, 61, 0
3, 85542, Note_on_c, 1, 54, 0
3, 85634, Note_on_c, 1, 55, 58
3, 85642, Note_on_c, 1, 64, 68
3, 85646, Note_on_c, 1, 61, 51
3, 85646, Note_on_c, 1, 67, 63
3, 85754, Note_on_c, 1, 64, 0
3, 85762, Note_on_c, 1, 67, 0
3, 85790, Note_on_c, 1, 61, 0
3, 85818, Note_on_c, 1, 55, 0
3, 85902, Note_on_c, 1, 63, 68
3, 85906, Note_on_c, 1, 55, 72
3, 85918, Note_on_c, 1, 51, 60
3, 85926, Note_on_c, 1, 60, 41
3, 85938, Note_on_c, 1, 59, 46
3, 85966, Note_on_c, 1, 59, 0
3, 86326, Note_on_c, 1, 55, 0
3, 86350, Note_on_c, 1, 63, 0
3, 86354, Note_on_c, 1, 60, 0
3, 86358, Note_on_c, 1, 51, 0
3, 86382, Note_on_c, 1, 50, 51
3, 86398, Note_on_c, 1, 55, 49
3, 86406, Note_on_c, 1, 62, 47
3, 86414, Note_on_c, 1, 58, 48
3, 86570, Note_on_c, 1, 58, 0
3, 86570, Note_on_c, 1, 62, 0
3, 86582, Note_on_c, 1, 55, 0
3, 86606, Note_on_c, 1, 50, 0
3, 86618, Note_on_c, 1, 58, 34
3, 86622, Note_on_c, 1, 51, 72
3, 86630, Note_on_c, 1, 63, 59
3, 86678, Note_on_c, 1, 58, 0
3, 86682, Note_on_c, 1, 63, 0
3, 86698, Note_on_c, 1, 51, 0
3, 86766, Note_on_c, 1, 59, 85
3, 86770, Note_on_c, 1, 70, 82
3, 86770, Note_on_c, 1, 63, 72
3, 86770, Note_on_c, 1, 58, 81
3, 86930, Note_on_c, 1, 59, 0
3, 86934, Note_on_c, 1, 70, 0
3, 86934, Note_on_c, 1, 58, 0
3, 86946, Note_on_c, 1, 63, 0
3, 87002, Note_on_c, 1, 70, 73
3, 87006, Note_on_c, 1, 58, 65
3, 87010, Note_on_c, 1, 63, 75
3, 87010, Note_on_c, 1, 59, 70
3, 87098, Note_on_c, 1, 58, 0
3, 87106, Note_on_c, 1, 59, 0
3, 87114, Note_on_c, 1, 70, 0
3, 87118, Note_on_c, 1, 63, 0
3, 87178, Note_on_c, 1, 68, 57
3, 87178, Note_on_c, 1, 63, 50
3, 87178, Note_on_c, 1, 56, 52
3, 87186, Note_on_c, 1, 59, 46
3, 87262, Note_on_c, 1, 59, 0
3, 87322, Note_on_c, 1, 68, 0
3, 87374, Note_on_c, 1, 63, 0
3, 87418, Note_on_c, 1, 58, 68
3, 87418, Note_on_c, 1, 67, 70
3, 87418, Note_on_c, 1, 62, 74
3, 87430, Note_on_c, 1, 56, 0
3, 87434, Note_on_c, 1, 55, 69
3, 87774, Note_on_c, 1, 67, 0
3, 87810, Note_on_c, 1, 62, 0
3, 87858, Note_on_c, 1, 58, 0
3, 87894, Note_on_c, 1, 55, 0
3, 87910, Note_on_c, 1, 54, 54
3, 87914, Note_on_c, 1, 66, 52
3, 87918, Note_on_c, 1, 57, 54
3, 87918, Note_on_c, 1, 61, 52
3, 88094, Note_on_c, 1, 57, 0
3, 88122, Note_on_c, 1, 66, 0
3, 88206, Note_on_c, 1, 61, 0
3, 88226, Note_on_c, 1, 51, 40
3, 88262, Note_on_c, 1, 54, 0
3, 88278, Note_on_c, 1, 51, 0
3, 88282, Note_on_c, 1, 53, 55
3, 88282, Note_on_c, 1, 56, 49
3, 88294, Note_on_c, 1, 63, 45
3, 88302, Note_on_c, 1, 65, 39
3, 88306, Note_on_c, 1, 60, 49
3, 88530, Note_on_c, 1, 63, 0
3, 88546, Note_on_c, 1, 65, 0
3, 88554, Note_on_c, 1, 56, 0
3, 88566, Note_on_c, 1, 60, 0
3, 88570, Note_on_c, 1, 53, 0
3, 88570, Note_on_c, 1, 49, 49
3, 88666, Note_on_c, 1, 56, 55
3, 88678, Note_on_c, 1, 52, 56
3, 88678, Note_on_c, 1, 66, 49
3, 88682, Note_on_c, 1, 49, 0
3, 88682, Note_on_c, 1, 62, 54
3, 88902, Note_on_c, 1, 62, 0
3, 88962, Note_on_c, 1, 66, 0
3, 88970, Note_on_c, 1, 56, 0
3, 89022, Note_on_c, 1, 52, 0
3, 89030, Note_on_c, 1, 51, 49
3, 89050, Note_on_c, 1, 63, 54
3, 89070, Note_on_c, 1, 55, 41
3, 89086, Note_on_c, 1, 58, 33
3, 89194, Note_on_c, 1, 55, 0
3, 89230, Note_on_c, 1, 58, 0
3, 89290, Note_on_c, 1, 63, 0
3, 89326, Note_on_c, 1, 49, 35
3, 89370, Note_on_c, 1, 49, 0
3, 89390, Note_on_c, 1, 51, 0
3, 89422, Note_on_c, 1, 54, 61
3, 89426, Note_on_c, 1, 58, 63
3, 89434, Note_on_c, 1, 66, 52
3, 89438, Note_on_c, 1, 61, 57
3, 89446, Note_on_c, 1, 63, 51
3, 89614, Note_on_c, 1, 49, 17
3, 89654, Note_on_c, 1, 54, 0
3, 89662, Note_on_c, 1, 66, 0
3, 89666, Note_on_c, 1, 63, 0
3, 89674, Note_on_c, 1, 58, 0
3, 89678, Note_on_c, 1, 61, 0
3, 89686, Note_on_c, 1, 51, 45
3, 89722, Note_on_c, 1, 65, 66
3, 89724, Note_on_c, 1, 63, 54
3, 89726, Note_on_c, 1, 57, 61
3, 89742, Note_on_c, 1, 60, 56
3, 89750, Note_on_c, 1, 49, 0
3, 89762, Note_on_c, 1, 51, 0
3, 89762, Note_on_c, 1, 53, 49
3, 89850, Note_on_c, 1, 57, 0
3, 89902, Note_on_c, 1, 60, 0
3, 89938, Note_on_c, 1, 65, 0
3, 89958, Note_on_c, 1, 63, 0
3, 90098, Note_on_c, 1, 41, 75
3, 90166, Note_on_c, 1, 41, 0
3, 90182, Note_on_c, 1, 53, 0
3, 90534, Note_on_c, 1, 65, 50
3, 90558, Note_on_c, 1, 62, 34
3, 90566, Note_on_c, 1, 60, 36
3, 90714, Note_on_c, 1, 65, 0
3, 90750, Note_on_c, 1, 62, 0
3, 90794, Note_on_c, 1, 60, 0
3, 90882, Note_on_c, 1, 65, 48
3, 90894, Note_on_c, 1, 62, 51
3, 90902, Note_on_c, 1, 60, 39
3, 90910, Note_on_c, 1, 65, 0
3, 90946, Note_on_c, 1, 60, 0
3, 90946, Note_on_c, 1, 62, 0
3, 91222, Note_on_c, 1, 65, 38
3, 91238, Note_on_c, 1, 62, 39
3, 91254, Note_on_c, 1, 65, 0
3, 91274, Note_on_c, 1, 62, 0
3, 92022, Note_on_c, 1, 63, 48
3, 92022, Note_on_c, 1, 67, 40
3, 92058, Note_on_c, 1, 67, 0
3, 92058, Note_on_c, 1, 63, 0
3, 92394, Note_on_c, 1, 66, 57
3, 92422, Note_on_c, 1, 66, 0
3, 92422, Note_on_c, 1, 63, 38
3, 92446, Note_on_c, 1, 61, 31
3, 92470, Note_on_c, 1, 63, 0
3, 92502, Note_on_c, 1, 61, 0
3, 92798, Note_on_c, 1, 63, 48
3, 92810, Note_on_c, 1, 61, 35
3, 92830, Note_on_c, 1, 63, 0
3, 92858, Note_on_c, 1, 61, 0
3, 93194, Note_on_c, 1, 62, 39
3, 93202, Note_on_c, 1, 60, 36
3, 93226, Note_on_c, 1, 62, 0
3, 93242, Note_on_c, 1, 60, 0
3, 93954, Note_on_c, 1, 62, 43
3, 93978, Note_on_c, 1, 60, 41
3, 93982, Note_on_c, 1, 62, 0
3, 94006, Note_on_c, 1, 60, 0
3, 94346, Note_on_c, 1, 74, 42
3, 94378, Note_on_c, 1, 74, 0
3, 94710, Note_on_c, 1, 62, 69
3, 94714, Note_on_c, 1, 58, 61
3, 94718, Note_on_c, 1, 55, 49
3, 94742, Note_on_c, 1, 62, 0
3, 94746, Note_on_c, 1, 55, 0
3, 94746, Note_on_c, 1, 53, 25
3, 94774, Note_on_c, 1, 53, 0
3, 94794, Note_on_c, 1, 58, 0
3, 95090, Note_on_c, 1, 63, 75
3, 95090, Note_on_c, 1, 58, 60
3, 95102, Note_on_c, 1, 52, 57
3, 95714, Note_on_c, 1, 63, 0
3, 95722, Note_on_c, 1, 52, 0
3, 95878, Note_on_c, 1, 58, 0
3, 95958, Note_on_c, 1, 57, 49
3, 95958, Note_on_c, 1, 51, 42
3, 95962, Note_on_c, 1, 62, 42
3, 96218, Note_on_c, 1, 57, 0
3, 96250, Note_on_c, 1, 51, 0
3, 96302, Note_on_c, 1, 62, 0
3, 96646, Note_on_c, 1, 65, 54
3, 96670, Note_on_c, 1, 65, 0
3, 96670, Note_on_c, 1, 62, 32
3, 96718, Note_on_c, 1, 62, 0
3, 97074, Note_on_c, 1, 63, 45
3, 97242, Note_on_c, 1, 63, 0
3, 97450, Note_on_c, 1, 60, 34
3, 97486, Note_on_c, 1, 60, 0
3, 97774, Note_on_c, 1, 66, 54
3, 97774, Note_on_c, 1, 62, 45
3, 97798, Note_on_c, 1, 56, 37
3, 97890, Note_on_c, 1, 66, 0
3, 98006, Note_on_c, 1, 62, 0
3, 98046, Note_on_c, 1, 56, 0
3, 98210, Note_on_c, 1, 62, 31
3, 98226, Note_on_c, 1, 60, 31
3, 98266, Note_on_c, 1, 60, 0
3, 98318, Note_on_c, 1, 62, 0
3, 98558, Note_on_c, 1, 62, 40
3, 98570, Note_on_c, 1, 60, 43
3, 98602, Note_on_c, 1, 62, 0
3, 98606, Note_on_c, 1, 60, 0
3, 98954, Note_on_c, 1, 60, 51
3, 98954, Note_on_c, 1, 58, 45
3, 98954, Note_on_c, 1, 54, 41
3, 98954, Note_on_c, 1, 65, 32
3, 99010, Note_on_c, 1, 65, 0
3, 99046, Note_on_c, 1, 60, 0
3, 99050, Note_on_c, 1, 54, 0
3, 99078, Note_on_c, 1, 58, 0
3, 99314, Note_on_c, 1, 54, 31
3, 99334, Note_on_c, 1, 60, 29
3, 99342, Note_on_c, 1, 58, 26
3, 99350, Note_on_c, 1, 54, 0
3, 99378, Note_on_c, 1, 60, 0
3, 99394, Note_on_c, 1, 58, 0
3, 99666, Note_on_c, 1, 60, 48
3, 99682, Note_on_c, 1, 57, 46
3, 99686, Note_on_c, 1, 53, 44
3, 99690, Note_on_c, 1, 60, 0
3, 99730, Note_on_c, 1, 57, 0
3, 99762, Note_on_c, 1, 53, 0
3, 100086, Note_on_c, 1, 63, 56
3, 100098, Note_on_c, 1, 59, 57
3, 100110, Note_on_c, 1, 63, 0
3, 100126, Note_on_c, 1, 59, 0
3, 100454, Note_on_c, 1, 63, 68
3, 100462, Note_on_c, 1, 58, 58
3, 100462, Note_on_c, 1, 67, 66
3, 100490, Note_on_c, 1, 67, 0
3, 100538, Note_on_c, 1, 58, 0
3, 100538, Note_on_c, 1, 63, 0
3, 100686, Note_on_c, 1, 66, 68
3, 100702, Note_on_c, 1, 57, 51
3, 100702, Note_on_c, 1, 63, 46
3, 100710, Note_on_c, 1, 61, 41
3, 100762, Note_on_c, 1, 61, 0
3, 100782, Note_on_c, 1, 66, 0
3, 100782, Note_on_c, 1, 57, 0
3, 100798, Note_on_c, 1, 63, 0
3, 100946, Note_on_c, 1, 56, 57
3, 100946, Note_on_c, 1, 66, 63
3, 100954, Note_on_c, 1, 63, 49
3, 100966, Note_on_c, 1, 61, 42
3, 101130, Note_on_c, 1, 56, 0
3, 101134, Note_on_c, 1, 66, 0
3, 101170, Note_on_c, 1, 61, 0
3, 101174, Note_on_c, 1, 63, 0
3, 101218, Note_on_c, 1, 62, 57
3, 101230, Note_on_c, 1, 65, 49
3, 101242, Note_on_c, 1, 60, 49
3, 101262, Note_on_c, 1, 55, 39
3, 101542, Note_on_c, 1, 62, 0
3, 101614, Note_on_c, 1, 62, 54
3, 101638, Note_on_c, 1, 65, 0
3, 101798, Note_on_c, 1, 55, 0
3, 101798, Note_on_c, 1, 60, 0
3, 101802, Note_on_c, 1, 62, 0
3, 101994, Note_on_c, 1, 62, 46
3, 102022, Note_on_c, 1, 60, 31
3, 102038, Note_on_c, 1, 62, 0
3, 102066, Note_on_c, 1, 60, 0
3, 102802, Note_on_c, 1, 65, 34
3, 102818, Note_on_c, 1, 62, 31
3, 102834, Note_on_c, 1, 65, 0
3, 102890, Note_on_c, 1, 62, 0
3, 103186, Note_on_c, 1, 62, 48
3, 103194, Note_on_c, 1, 58, 43
3, 103198, Note_on_c, 1, 55, 38
3, 103206, Note_on_c, 1, 53, 29
3, 103218, Note_on_c, 1, 62, 0
3, 103246, Note_on_c, 1, 53, 0
3, 103266, Note_on_c, 1, 58, 0
3, 103298, Note_on_c, 1, 55, 0
3, 104038, Note_on_c, 1, 67, 38
3, 104038, Note_on_c, 1, 58, 41
3, 104042, Note_on_c, 1, 63, 41
3, 104138, Note_on_c, 1, 67, 0
3, 104154, Note_on_c, 1, 63, 0
3, 104198, Note_on_c, 1, 58, 0
3, 104422, Note_on_c, 1, 66, 43
3, 104434, Note_on_c, 1, 63, 42
3, 104446, Note_on_c, 1, 61, 39
3, 104454, Note_on_c, 1, 57, 32
3, 104586, Note_on_c, 1, 63, 0
3, 104626, Note_on_c, 1, 61, 0
3, 104658, Note_on_c, 1, 57, 0
3, 104662, Note_on_c, 1, 66, 0
3, 105086, Note_on_c, 1, 66, 68
3, 105098, Note_on_c, 1, 56, 44
3, 105102, Note_on_c, 1, 62, 46
3, 105114, Note_on_c, 1, 66, 0
3, 105130, Note_on_c, 1, 62, 0
3, 105134, Note_on_c, 1, 56, 0
3, 105470, Note_on_c, 1, 66, 51
3, 105494, Note_on_c, 1, 66, 0
3, 105494, Note_on_c, 1, 56, 31
3, 105550, Note_on_c, 1, 56, 0
3, 105850, Note_on_c, 1, 57, 55
3, 105850, Note_on_c, 1, 60, 60
3, 105862, Note_on_c, 1, 53, 48
3, 105878, Note_on_c, 1, 60, 0
3, 105886, Note_on_c, 1, 50, 25
3, 105926, Note_on_c, 1, 50, 0
3, 105958, Note_on_c, 1, 57, 0
3, 105962, Note_on_c, 1, 53, 0
3, 106190, Note_on_c, 1, 60, 30
3, 106202, Note_on_c, 1, 57, 38
3, 106218, Note_on_c, 1, 60, 0
3, 106218, Note_on_c, 1, 53, 31
3, 106242, Note_on_c, 1, 57, 0
3, 106254, Note_on_c, 1, 53, 0
3, 106598, Note_on_c, 1, 62, 39
3, 106598, Note_on_c, 1, 58, 45
3, 106630, Note_on_c, 1, 62, 0
3, 106686, Note_on_c, 1, 58, 0
3, 106966, Note_on_c, 1, 58, 45
3, 107014, Note_on_c, 1, 58, 0
3, 107414, Note_on_c, 1, 57, 37
3, 107470, Note_on_c, 1, 57, 0
3, 107758, Note_on_c, 1, 57, 40
3, 107790, Note_on_c, 1, 57, 0
3, 108154, Note_on_c, 1, 63, 42
3, 108194, Note_on_c, 1, 63, 0
3, 108578, Note_on_c, 1, 63, 27
3, 108614, Note_on_c, 1, 63, 0
3, 109314, Note_on_c, 1, 63, 47
3, 109402, Note_on_c, 1, 63, 0
3, 109738, Note_on_c, 1, 66, 39
3, 109762, Note_on_c, 1, 62, 24
3, 109774, Note_on_c, 1, 66, 0
3, 109866, Note_on_c, 1, 62, 0
3, 110058, Note_on_c, 1, 66, 63
3, 110074, Note_on_c, 1, 62, 40
3, 110078, Note_on_c, 1, 56, 39
3, 110094, Note_on_c, 1, 66, 0
3, 110106, Note_on_c, 1, 62, 0
3, 110122, Note_on_c, 1, 56, 0
3, 110354, Note_on_c, 1, 66, 53
3, 110354, Note_on_c, 1, 56, 46
3, 110386, Note_on_c, 1, 62, 17
3, 110414, Note_on_c, 1, 66, 0
3, 110438, Note_on_c, 1, 62, 0
3, 110458, Note_on_c, 1, 56, 0
3, 110598, Note_on_c, 1, 62, 48
3, 110606, Note_on_c, 1, 65, 47
3, 110618, Note_on_c, 1, 55, 39
3, 110618, Note_on_c, 1, 60, 37
3, 110638, Note_on_c, 1, 65, 0
3, 110702, Note_on_c, 1, 60, 0
3, 110714, Note_on_c, 1, 55, 0
3, 110714, Note_on_c, 1, 62, 0
3, 110846, Note_on_c, 1, 62, 25
3, 110862, Note_on_c, 1, 60, 31
3, 110906, Note_on_c, 1, 60, 0
3, 110906, Note_on_c, 1, 62, 0
3, 111206, Note_on_c, 1, 62, 49
3, 111222, Note_on_c, 1, 55, 48
3, 111234, Note_on_c, 1, 62, 0
3, 111254, Note_on_c, 1, 55, 0
3, 111454, Note_on_c, 1, 65, 63
3, 111458, Note_on_c, 1, 54, 55
3, 111474, Note_on_c, 1, 60, 47
3, 111598, Note_on_c, 1, 65, 0
3, 111610, Note_on_c, 1, 60, 0
3, 111622, Note_on_c, 1, 54, 0
3, 111730, Note_on_c, 1, 54, 57
3, 111806, Note_on_c, 1, 54, 0
3, 111978, Note_on_c, 1, 60, 56
3, 111994, Note_on_c, 1, 57, 49
3, 111994, Note_on_c, 1, 50, 27
3, 112002, Note_on_c, 1, 53, 37
3, 112010, Note_on_c, 1, 60, 0
3, 112050, Note_on_c, 1, 50, 0
3, 112074, Note_on_c, 1, 57, 0
3, 112090, Note_on_c, 1, 53, 0
3, 112374, Note_on_c, 1, 63, 57
3, 112374, Note_on_c, 1, 53, 41
3, 112394, Note_on_c, 1, 59, 48
3, 112398, Note_on_c, 1, 63, 0
3, 112406, Note_on_c, 1, 53, 0
3, 112422, Note_on_c, 1, 59, 0
3, 112870, Note_on_c, 1, 66, 61
3, 112878, Note_on_c, 1, 57, 48
3, 112886, Note_on_c, 1, 63, 53
3, 112890, Note_on_c, 1, 61, 50
3, 113054, Note_on_c, 1, 63, 0
3, 113074, Note_on_c, 1, 66, 0
3, 113078, Note_on_c, 1, 61, 0
3, 113150, Note_on_c, 1, 63, 32
3, 113190, Note_on_c, 1, 57, 0
3, 113198, Note_on_c, 1, 63, 0
3, 113514, Note_on_c, 1, 65, 33
3, 113518, Note_on_c, 1, 60, 43
3, 113522, Note_on_c, 1, 62, 37
3, 113546, Note_on_c, 1, 55, 31
3, 113666, Note_on_c, 1, 65, 0
3, 113710, Note_on_c, 1, 60, 0
3, 113726, Note_on_c, 1, 62, 0
3, 113818, Note_on_c, 1, 55, 0
3, 113918, Note_on_c, 1, 62, 40
3, 113938, Note_on_c, 1, 60, 33
3, 113954, Note_on_c, 1, 62, 0
3, 113974, Note_on_c, 1, 60, 0
3, 114318, Note_on_c, 1, 62, 54
3, 114326, Note_on_c, 1, 60, 49
3, 114326, Note_on_c, 1, 65, 32
3, 114358, Note_on_c, 1, 60, 0
3, 114362, Note_on_c, 1, 65, 0
3, 114362, Note_on_c, 1, 62, 0
3, 114690, Note_on_c, 1, 62, 52
3, 114694, Note_on_c, 1, 60, 49
3, 114722, Note_on_c, 1, 62, 0
3, 114730, Note_on_c, 1, 60, 0
3, 115450, Note_on_c, 1, 65, 48
3, 115478, Note_on_c, 1, 65, 0
3, 115482, Note_on_c, 1, 62, 40
3, 115510, Note_on_c, 1, 62, 0
3, 115834, Note_on_c, 1, 58, 54
3, 115882, Note_on_c, 1, 58, 0
3, 116222, Note_on_c, 1, 62, 38
3, 116226, Note_on_c, 1, 58, 44
3, 116258, Note_on_c, 1, 58, 0
3, 116258, Note_on_c, 1, 62, 0
3, 116594, Note_on_c, 1, 63, 44
3, 116598, Note_on_c, 1, 67, 43
3, 116606, Note_on_c, 1, 58, 31
3, 116618, Note_on_c, 1, 62, 35
3, 116638, Note_on_c, 1, 67, 0
3, 116814, Note_on_c, 1, 63, 0
3, 116858, Note_on_c, 1, 62, 0
3, 116950, Note_on_c, 1, 63, 37
3, 116962, Note_on_c, 1, 61, 22
3, 117038, Note_on_c, 1, 63, 0
3, 117070, Note_on_c, 1, 61, 0
3, 117138, Note_on_c, 1, 58, 0
3, 117402, Note_on_c, 1, 66, 47
3, 117418, Note_on_c, 1, 63, 41
3, 117426, Note_on_c, 1, 61, 43
3, 117510, Note_on_c, 1, 57, 16
3, 117578, Note_on_c, 1, 66, 0
3, 117594, Note_on_c, 1, 61, 0
3, 117610, Note_on_c, 1, 63, 0
3, 117646, Note_on_c, 1, 57, 0
3, 117762, Note_on_c, 1, 66, 39
3, 117782, Note_on_c, 1, 63, 39
3, 117798, Note_on_c, 1, 66, 0
3, 117818, Note_on_c, 1, 63, 0
3, 118146, Note_on_c, 1, 62, 39
3, 118150, Note_on_c, 1, 65, 30
3, 118154, Note_on_c, 1, 60, 46
3, 118182, Note_on_c, 1, 65, 0
3, 118214, Note_on_c, 1, 60, 0
3, 118226, Note_on_c, 1, 62, 0
3, 118542, Note_on_c, 1, 62, 39
3, 118546, Note_on_c, 1, 60, 41
3, 118578, Note_on_c, 1, 62, 0
3, 118582, Note_on_c, 1, 60, 0
3, 118946, Note_on_c, 1, 58, 48
3, 118978, Note_on_c, 1, 55, 26
3, 119026, Note_on_c, 1, 58, 0
3, 119074, Note_on_c, 1, 55, 0
3, 119638, Note_on_c, 1, 67, 42
3, 119654, Note_on_c, 1, 63, 41
3, 119674, Note_on_c, 1, 67, 0
3, 119686, Note_on_c, 1, 63, 0
3, 120038, Note_on_c, 1, 63, 41
3, 120074, Note_on_c, 1, 63, 0
3, 120418, Note_on_c, 1, 63, 57
3, 120422, Note_on_c, 1, 67, 51
3, 120446, Note_on_c, 1, 67, 0
3, 120486, Note_on_c, 1, 63, 0
3, 120770, Note_on_c, 1, 63, 46
3, 120778, Note_on_c, 1, 67, 36
3, 120810, Note_on_c, 1, 57, 29
3, 120814, Note_on_c, 1, 67, 0
3, 120858, Note_on_c, 1, 57, 0
3, 120862, Note_on_c, 1, 63, 0
3, 121246, Note_on_c, 1, 56, 31
3, 121270, Note_on_c, 1, 60, 17
3, 121290, Note_on_c, 1, 56, 0
3, 121318, Note_on_c, 1, 60, 0
3, 121446, Note_on_c, 1, 67, 59
3, 121450, Note_on_c, 1, 56, 49
3, 121454, Note_on_c, 1, 63, 56
3, 121462, Note_on_c, 1, 60, 48
3, 121610, Note_on_c, 1, 67, 0
3, 121630, Note_on_c, 1, 56, 0
3, 121650, Note_on_c, 1, 60, 0
3, 121658, Note_on_c, 1, 63, 0
3, 121726, Note_on_c, 1, 63, 52
3, 121732, Note_on_c, 1, 67, 67
3, 121738, Note_on_c, 1, 56, 52
3, 121750, Note_on_c, 1, 60, 43
3, 121886, Note_on_c, 1, 67, 0
3, 121914, Note_on_c, 1, 56, 0
3, 121942, Note_on_c, 1, 63, 0
3, 122002, Note_on_c, 1, 66, 66
3, 122014, Note_on_c, 1, 62, 60
3, 122018, Note_on_c, 1, 56, 44
3, 122162, Note_on_c, 1, 56, 0
3, 122170, Note_on_c, 1, 66, 0
3, 122178, Note_on_c, 1, 60, 0
3, 122206, Note_on_c, 1, 62, 0
3, 122266, Note_on_c, 1, 66, 63
3, 122278, Note_on_c, 1, 56, 52
3, 122282, Note_on_c, 1, 62, 53
3, 122310, Note_on_c, 1, 60, 37
3, 122394, Note_on_c, 1, 66, 0
3, 122414, Note_on_c, 1, 56, 0
3, 122422, Note_on_c, 1, 60, 0
3, 122458, Note_on_c, 1, 62, 0
3, 122486, Note_on_c, 1, 56, 56
3, 122486, Note_on_c, 1, 66, 60
3, 122518, Note_on_c, 1, 62, 26
3, 122594, Note_on_c, 1, 66, 0
3, 122658, Note_on_c, 1, 56, 0
3, 122674, Note_on_c, 1, 62, 0
3, 122734, Note_on_c, 1, 62, 27
3, 122738, Note_on_c, 1, 65, 56
3, 122746, Note_on_c, 1, 60, 54
3, 122758, Note_on_c, 1, 55, 46
3, 123058, Note_on_c, 1, 65, 0
3, 123142, Note_on_c, 1, 65, 27
3, 123154, Note_on_c, 1, 58, 18
3, 123182, Note_on_c, 1, 62, 0
3, 123186, Note_on_c, 1, 65, 0
3, 123222, Note_on_c, 1, 60, 0
3, 123282, Note_on_c, 1, 55, 0
3, 123306, Note_on_c, 1, 58, 0
3, 123502, Note_on_c, 1, 54, 54
3, 123502, Note_on_c, 1, 65, 53
3, 123510, Note_on_c, 1, 60, 54
3, 123786, Note_on_c, 1, 60, 0
3, 123918, Note_on_c, 1, 65, 0
3, 123918, Note_on_c, 1, 60, 40
3, 123962, Note_on_c, 1, 60, 0
3, 124006, Note_on_c, 1, 54, 0
3, 124250, Note_on_c, 1, 60, 56
3, 124258, Note_on_c, 1, 57, 45
3, 124262, Note_on_c, 1, 50, 29
3, 124266, Note_on_c, 1, 53, 42
3, 124310, Note_on_c, 1, 50, 0
3, 124326, Note_on_c, 1, 60, 0
3, 124330, Note_on_c, 1, 53, 0
3, 124362, Note_on_c, 1, 57, 0
3, 124694, Note_on_c, 1, 63, 48
3, 124698, Note_on_c, 1, 59, 49
3, 124750, Note_on_c, 1, 63, 0
3, 124758, Note_on_c, 1, 59, 0
3, 125030, Note_on_c, 1, 63, 32
3, 125066, Note_on_c, 1, 63, 0
3, 125146, Note_on_c, 1, 57, 58
3, 125154, Note_on_c, 1, 67, 49
3, 125154, Note_on_c, 1, 63, 35
3, 125190, Note_on_c, 1, 67, 0
3, 125202, Note_on_c, 1, 63, 0
3, 125326, Note_on_c, 1, 57, 0
3, 125514, Note_on_c, 1, 56, 48
3, 125514, Note_on_c, 1, 63, 38
3, 125522, Note_on_c, 1, 66, 43
3, 125522, Note_on_c, 1, 61, 3
3, 125642, Note_on_c, 1, 66, 0
3, 125662, Note_on_c, 1, 56, 0
3, 125702, Note_on_c, 1, 61, 0
3, 125718, Note_on_c, 1, 63, 0
3, 125802, Note_on_c, 1, 65, 41
3, 125806, Note_on_c, 1, 62, 45
3, 125818, Note_on_c, 1, 60, 43
3, 125858, Note_on_c, 1, 55, 31
3, 125878, Note_on_c, 1, 65, 0
3, 125918, Note_on_c, 1, 62, 0
3, 125922, Note_on_c, 1, 60, 0
3, 125962, Note_on_c, 1, 55, 0
3, 126202, Note_on_c, 1, 54, 36
3, 126294, Note_on_c, 1, 54, 0
3, 126302, Note_on_c, 1, 56, 13
3, 126322, Note_on_c, 1, 70, 57
3, 126322, Note_on_c, 1, 58, 58
3, 126330, Note_on_c, 1, 60, 49
3, 126330, Note_on_c, 1, 63, 46
3, 126342, Note_on_c, 1, 56, 0
3, 126342, Note_on_c, 1, 67, 41
3, 126458, Note_on_c, 1, 60, 0
3, 126466, Note_on_c, 1, 70, 0
3, 126470, Note_on_c, 1, 63, 0
3, 126470, Note_on_c, 1, 58, 0
3, 126474, Note_on_c, 1, 67, 0
3, 126622, Note_on_c, 1, 56, 36
3, 126702, Note_on_c, 1, 56, 0
3, 126706, Note_on_c, 1, 58, 55
3, 126710, Note_on_c, 1, 70, 57
3, 126710, Note_on_c, 1, 67, 47
3, 126710, Note_on_c, 1, 63, 49
3, 126718, Note_on_c, 1, 60, 52
3, 126874, Note_on_c, 1, 60, 0
3, 126894, Note_on_c, 1, 67, 0
3, 126894, Note_on_c, 1, 63, 0
3, 126894, Note_on_c, 1, 70, 0
3, 126918, Note_on_c, 1, 58, 0
3, 126986, Note_on_c, 1, 54, 34
3, 127030, Note_on_c, 1, 54, 0
3, 127034, Note_on_c, 1, 56, 39
3, 127086, Note_on_c, 1, 67, 48
3, 127094, Note_on_c, 1, 58, 47
3, 127094, Note_on_c, 1, 63, 56
3, 127098, Note_on_c, 1, 70, 49
3, 127102, Note_on_c, 1, 60, 51
3, 127110, Note_on_c, 1, 56, 0
3, 127226, Note_on_c, 1, 58, 0
3, 127270, Note_on_c, 1, 70, 0
3, 127294, Note_on_c, 1, 60, 0
3, 127298, Note_on_c, 1, 63, 0
3, 127314, Note_on_c, 1, 67, 0
3, 127386, Note_on_c, 1, 54, 39
3, 127462, Note_on_c, 1, 55, 52
3, 127470, Note_on_c, 1, 70, 57
3, 127478, Note_on_c, 1, 60, 54
3, 127478, Note_on_c, 1, 65, 50
3, 127482, Note_on_c, 1, 54, 0
3, 127646, Note_on_c, 1, 70, 0
3, 127658, Note_on_c, 1, 60, 0
3, 127674, Note_on_c, 1, 65, 0
3, 127702, Note_on_c, 1, 55, 0
3, 127754, Note_on_c, 1, 54, 46
3, 127842, Note_on_c, 1, 70, 71
3, 127850, Note_on_c, 1, 55, 52
3, 127850, Note_on_c, 1, 60, 66
3, 127850, Note_on_c, 1, 65, 66
3, 127858, Note_on_c, 1, 54, 0
3, 128058, Note_on_c, 1, 60, 0
3, 128070, Note_on_c, 1, 70, 0
3, 128070, Note_on_c, 1, 65, 0
3, 128094, Note_on_c, 1, 55, 0
3, 128122, Note_on_c, 1, 51, 39
3, 128162, Note_on_c, 1, 54, 42
3, 128242, Note_on_c, 1, 70, 77
3, 128250, Note_on_c, 1, 51, 0
3, 128250, Note_on_c, 1, 63, 68
3, 128254, Note_on_c, 1, 67, 65
3, 128254, Note_on_c, 1, 60, 71
3, 128262, Note_on_c, 1, 54, 0
3, 128262, Note_on_c, 1, 55, 63
3, 128434, Note_on_c, 1, 60, 0
3, 128442, Note_on_c, 1, 70, 0
3, 128454, Note_on_c, 1, 63, 0
3, 128458, Note_on_c, 1, 67, 0
3, 128502, Note_on_c, 1, 55, 0
3, 128550, Note_on_c, 1, 54, 49
3, 128630, Note_on_c, 1, 70, 92
3, 128630, Note_on_c, 1, 63, 87
3, 128634, Note_on_c, 1, 60, 99
3, 128634, Note_on_c, 1, 67, 80
3, 128642, Note_on_c, 1, 55, 70
3, 128678, Note_on_c, 1, 54, 0
3, 128842, Note_on_c, 1, 67, 0
3, 128842, Note_on_c, 1, 60, 0
3, 128862, Note_on_c, 1, 63, 0
3, 128870, Note_on_c, 1, 70, 0
3, 128882, Note_on_c, 1, 55, 0
3, 128918, Note_on_c, 1, 51, 46
3, 129018, Note_on_c, 1, 70, 96
3, 129026, Note_on_c, 1, 51, 0
3, 129026, Note_on_c, 1, 63, 87
3, 129026, Note_on_c, 1, 53, 68
3, 129030, Note_on_c, 1, 60, 86
3, 129034, Note_on_c, 1, 68, 64
3, 129222, Note_on_c, 1, 60, 0
3, 129226, Note_on_c, 1, 70, 0
3, 129234, Note_on_c, 1, 63, 0
3, 129254, Note_on_c, 1, 68, 0
3, 129282, Note_on_c, 1, 53, 0
3, 129306, Note_on_c, 1, 51, 56
3, 129394, Note_on_c, 1, 51, 0
3, 129394, Note_on_c, 1, 70, 90
3, 129394, Note_on_c, 1, 63, 90
3, 129394, Note_on_c, 1, 53, 75
3, 129402, Note_on_c, 1, 60, 90
3, 129402, Note_on_c, 1, 68, 81
3, 129642, Note_on_c, 1, 60, 0
3, 129670, Note_on_c, 1, 70, 0
3, 129682, Note_on_c, 1, 63, 0
3, 129694, Note_on_c, 1, 54, 70
3, 129706, Note_on_c, 1, 53, 0
3, 129718, Note_on_c, 1, 68, 0
3, 129790, Note_on_c, 1, 71, 94
3, 129794, Note_on_c, 1, 54, 0
3, 129794, Note_on_c, 1, 66, 92
3, 129794, Note_on_c, 1, 62, 107
3, 129806, Note_on_c, 1, 56, 85
3, 129970, Note_on_c, 1, 67, 56
3, 130042, Note_on_c, 1, 66, 0
3, 130086, Note_on_c, 1, 67, 0
3, 130086, Note_on_c, 1, 62, 0
3, 130094, Note_on_c, 1, 71, 0
3, 130098, Note_on_c, 1, 56, 0
3, 130098, Note_on_c, 1, 54, 49
3, 130166, Note_on_c, 1, 56, 75
3, 130170, Note_on_c, 1, 71, 84
3, 130170, Note_on_c, 1, 66, 85
3, 130178, Note_on_c, 1, 62, 83
3, 130202, Note_on_c, 1, 54, 0
3, 130274, Note_on_c, 1, 67, 62
3, 130370, Note_on_c, 1, 66, 0
3, 130370, Note_on_c, 1, 62, 0
3, 130382, Note_on_c, 1, 71, 0
3, 130394, Note_on_c, 1, 56, 0
3, 130394, Note_on_c, 1, 67, 0
3, 130394, Note_on_c, 1, 54, 39
3, 130438, Note_on_c, 1, 70, 98
3, 130446, Note_on_c, 1, 65, 88
3, 130446, Note_on_c, 1, 55, 88
3, 130450, Note_on_c, 1, 60, 85
3, 130450, Note_on_c, 1, 68, 75
3, 130494, Note_on_c, 1, 54, 0
3, 130554, Note_on_c, 1, 68, 0
3, 130838, Note_on_c, 1, 60, 0
3, 130858, Note_on_c, 1, 70, 0
3, 130874, Note_on_c, 1, 65, 0
3, 130930, Note_on_c, 1, 54, 61
3, 130946, Note_on_c, 1, 69, 52
3, 130954, Note_on_c, 1, 55, 0
3, 130954, Note_on_c, 1, 68, 38
3, 130954, Note_on_c, 1, 59, 34
3, 130962, Note_on_c, 1, 64, 48
3, 131114, Note_on_c, 1, 59, 0
3, 131122, Note_on_c, 1, 69, 0
3, 131134, Note_on_c, 1, 68, 0
3, 131182, Note_on_c, 1, 55, 63
3, 131190, Note_on_c, 1, 70, 76
3, 131210, Note_on_c, 1, 54, 0
3, 131230, Note_on_c, 1, 64, 0
3, 131238, Note_on_c, 1, 55, 0
3, 131262, Note_on_c, 1, 70, 0
3, 131314, Note_on_c, 1, 67, 53
3, 131326, Note_on_c, 1, 48, 42
3, 131328, Note_on_c, 1, 58, 58
3, 131334, Note_on_c, 1, 55, 42
3, 131470, Note_on_c, 1, 48, 0
3, 131478, Note_on_c, 1, 55, 0
3, 131486, Note_on_c, 1, 58, 0
3, 131534, Note_on_c, 1, 67, 0
3, 131570, Note_on_c, 1, 55, 43
3, 131574, Note_on_c, 1, 63, 61
3, 131610, Note_on_c, 1, 63, 0
3, 131630, Note_on_c, 1, 55, 0
3, 131926, Note_on_c, 1, 63, 63
3, 131942, Note_on_c, 1, 56, 49
3, 131974, Note_on_c, 1, 63, 0
3, 132014, Note_on_c, 1, 56, 0
3, 132318, Note_on_c, 1, 58, 57
3, 132338, Note_on_c, 1, 56, 51
3, 132386, Note_on_c, 1, 58, 0
3, 132442, Note_on_c, 1, 56, 0
3, 132462, Note_on_c, 1, 55, 35
3, 132494, Note_on_c, 1, 55, 0
3, 132518, Note_on_c, 1, 56, 49
3, 132590, Note_on_c, 1, 56, 0
3, 132610, Note_on_c, 1, 58, 53
3, 132638, Note_on_c, 1, 58, 0
3, 132678, Note_on_c, 1, 60, 80
3, 132754, Note_on_c, 1, 60, 0
3, 132770, Note_on_c, 1, 62, 89
3, 132838, Note_on_c, 1, 62, 0
3, 132866, Note_on_c, 1, 63, 96
3, 132898, Note_on_c, 1, 62, 30
3, 132934, Note_on_c, 1, 62, 0
3, 132974, Note_on_c, 1, 63, 0
3, 133078, Note_on_c, 1, 65, 122
3, 133106, Note_on_c, 1, 56, 63
3, 133126, Note_on_c, 1, 46, 43
3, 133178, Note_on_c, 1, 56, 0
3, 133202, Note_on_c, 1, 46, 0
3, 133210, Note_on_c, 1, 65, 0
3, 133294, Note_on_c, 1, 66, 66
3, 133382, Note_on_c, 1, 67, 77
3, 133386, Note_on_c, 1, 66, 0
3, 133450, Note_on_c, 1, 67, 0
3, 133498, Note_on_c, 1, 70, 99
3, 133510, Note_on_c, 1, 58, 22
3, 133546, Note_on_c, 1, 58, 0
3, 133694, Note_on_c, 1, 70, 0
3, 133722, Note_on_c, 1, 65, 65
3, 133802, Note_on_c, 1, 65, 0
3, 133814, Note_on_c, 1, 67, 56
3, 133866, Note_on_c, 1, 67, 0
3, 133894, Note_on_c, 1, 70, 98
3, 133894, Note_on_c, 1, 60, 58
3, 133926, Note_on_c, 1, 58, 30
3, 133926, Note_on_c, 1, 55, 34
3, 133962, Note_on_c, 1, 55, 0
3, 133962, Note_on_c, 1, 58, 0
3, 133962, Note_on_c, 1, 60, 0
3, 134014, Note_on_c, 1, 70, 0
3, 134014, Note_on_c, 1, 65, 33
3, 134090, Note_on_c, 1, 66, 42
3, 134114, Note_on_c, 1, 65, 0
3, 134134, Note_on_c, 1, 66, 0
3, 134166, Note_on_c, 1, 67, 44
3, 134230, Note_on_c, 1, 67, 0
3, 134262, Note_on_c, 1, 70, 99
3, 134270, Note_on_c, 1, 65, 66
3, 134274, Note_on_c, 1, 61, 62
3, 134294, Note_on_c, 1, 65, 0
3, 134306, Note_on_c, 1, 55, 22
3, 134346, Note_on_c, 1, 55, 0
3, 134374, Note_on_c, 1, 61, 0
3, 134386, Note_on_c, 1, 70, 0
3, 134430, Note_on_c, 1, 67, 68
3, 134618, Note_on_c, 1, 67, 0
3, 134642, Note_on_c, 1, 63, 68
3, 134650, Note_on_c, 1, 55, 48
3, 134682, Note_on_c, 1, 55, 0
3, 134730, Note_on_c, 1, 63, 0
3, 134918, Note_on_c, 1, 60, 4
3, 135006, Note_on_c, 1, 44, 56
3, 135010, Note_on_c, 1, 60, 0
3, 135038, Note_on_c, 1, 55, 48
3, 135074, Note_on_c, 1, 55, 0
3, 135078, Note_on_c, 1, 44, 0
3, 135138, Note_on_c, 1, 63, 46
3, 135142, Note_on_c, 1, 60, 47
3, 135150, Note_on_c, 1, 58, 31
3, 135150, Note_on_c, 1, 51, 42
3, 135154, Note_on_c, 1, 55, 40
3, 135338, Note_on_c, 1, 55, 0
3, 135346, Note_on_c, 1, 63, 0
3, 135350, Note_on_c, 1, 51, 0
3, 135354, Note_on_c, 1, 60, 0
3, 135362, Note_on_c, 1, 58, 0
3, 135398, Note_on_c, 1, 44, 49
3, 135506, Note_on_c, 1, 51, 52
3, 135514, Note_on_c, 1, 63, 56
3, 135514, Note_on_c, 1, 58, 60
3, 135514, Note_on_c, 1, 55, 63
3, 135622, Note_on_c, 1, 44, 0
3, 135666, Note_on_c, 1, 55, 0
3, 135690, Note_on_c, 1, 63, 0
3, 135698, Note_on_c, 1, 51, 0
3, 135702, Note_on_c, 1, 58, 0
3, 135762, Note_on_c, 1, 49, 58
3, 135878, Note_on_c, 1, 49, 0
3, 135894, Note_on_c, 1, 70, 84
3, 135894, Note_on_c, 1, 63, 82
3, 135898, Note_on_c, 1, 58, 85
3, 135898, Note_on_c, 1, 65, 73
3, 135898, Note_on_c, 1, 59, 84
3, 136114, Note_on_c, 1, 59, 0
3, 136118, Note_on_c, 1, 70, 0
3, 136126, Note_on_c, 1, 63, 0
3, 136138, Note_on_c, 1, 65, 0
3, 136150, Note_on_c, 1, 58, 0
3, 136182, Note_on_c, 1, 59, 75
3, 136182, Note_on_c, 1, 63, 68
3, 136182, Note_on_c, 1, 68, 77
3, 136182, Note_on_c, 1, 56, 70
3, 136190, Note_on_c, 1, 65, 79
3, 136458, Note_on_c, 1, 59, 0
3, 136514, Note_on_c, 1, 68, 0
3, 136522, Note_on_c, 1, 54, 56
3, 136530, Note_on_c, 1, 63, 0
3, 136566, Note_on_c, 1, 67, 76
3, 136570, Note_on_c, 1, 56, 0
3, 136570, Note_on_c, 1, 58, 83
3, 136574, Note_on_c, 1, 62, 80
3, 136574, Note_on_c, 1, 55, 81
3, 136626, Note_on_c, 1, 54, 0
3, 136874, Note_on_c, 1, 67, 0
3, 136958, Note_on_c, 1, 62, 0
3, 136982, Note_on_c, 1, 65, 0
3, 136994, Note_on_c, 1, 51, 52
3, 137014, Note_on_c, 1, 58, 0
3, 137050, Note_on_c, 1, 55, 0
3, 137062, Note_on_c, 1, 54, 61
3, 137062, Note_on_c, 1, 61, 63
3, 137066, Note_on_c, 1, 66, 58
3, 137070, Note_on_c, 1, 57, 63
3, 137098, Note_on_c, 1, 64, 41
3, 137106, Note_on_c, 1, 51, 0
3, 137158, Note_on_c, 1, 64, 0
3, 137298, Note_on_c, 1, 57, 0
3, 137310, Note_on_c, 1, 66, 0
3, 137354, Note_on_c, 1, 51, 49
3, 137362, Note_on_c, 1, 61, 0
3, 137430, Note_on_c, 1, 54, 0
3, 137430, Note_on_c, 1, 65, 57
3, 137434, Note_on_c, 1, 56, 61
3, 137438, Note_on_c, 1, 53, 56
3, 137454, Note_on_c, 1, 60, 54
3, 137458, Note_on_c, 1, 63, 43
3, 137462, Note_on_c, 1, 51, 0
3, 137546, Note_on_c, 1, 56, 0
3, 137562, Note_on_c, 1, 60, 0
3, 137578, Note_on_c, 1, 65, 0
3, 137594, Note_on_c, 1, 63, 0
3, 137726, Note_on_c, 1, 54, 54
3, 137738, Note_on_c, 1, 53, 0
3, 137810, Note_on_c, 1, 66, 65
3, 137818, Note_on_c, 1, 62, 63
3, 137830, Note_on_c, 1, 54, 0
3, 137830, Note_on_c, 1, 71, 55
3, 137830, Note_on_c, 1, 56, 52
3, 137846, Note_on_c, 1, 70, 45
3, 137894, Note_on_c, 1, 67, 39
3, 138010, Note_on_c, 1, 71, 0
3, 138018, Note_on_c, 1, 62, 0
3, 138038, Note_on_c, 1, 66, 0
3, 138050, Note_on_c, 1, 70, 0
3, 138062, Note_on_c, 1, 54, 50
3, 138094, Note_on_c, 1, 67, 0
3, 138146, Note_on_c, 1, 56, 0
3, 138186, Note_on_c, 1, 54, 0
3, 138194, Note_on_c, 1, 55, 58
3, 138198, Note_on_c, 1, 70, 57
3, 138210, Note_on_c, 1, 65, 47
3, 138210, Note_on_c, 1, 60, 47
3, 138242, Note_on_c, 1, 60, 0
3, 138298, Note_on_c, 1, 65, 0
3, 138362, Note_on_c, 1, 70, 0
3, 138474, Note_on_c, 1, 54, 55
3, 138554, Note_on_c, 1, 54, 0
3, 138870, Note_on_c, 1, 54, 56
3, 138914, Note_on_c, 1, 55, 0
3, 138922, Note_on_c, 1, 54, 0
3, 139274, Note_on_c, 1, 62, 32
3, 139310, Note_on_c, 1, 62, 0
3, 139634, Note_on_c, 1, 65, 42
3, 139634, Note_on_c, 1, 62, 49
3, 139646, Note_on_c, 1, 60, 42
3, 139662, Note_on_c, 1, 65, 0
3, 139670, Note_on_c, 1, 62, 0
3, 139678, Note_on_c, 1, 60, 0
3, 140010, Note_on_c, 1, 62, 61
3, 140010, Note_on_c, 1, 65, 49
3, 140026, Note_on_c, 1, 60, 43
3, 140038, Note_on_c, 1, 65, 0
3, 140038, Note_on_c, 1, 62, 0
3, 140054, Note_on_c, 1, 60, 0
3, 140374, Note_on_c, 1, 58, 57
3, 140378, Note_on_c, 1, 55, 50
3, 140378, Note_on_c, 1, 62, 51
3, 140402, Note_on_c, 1, 62, 0
3, 140406, Note_on_c, 1, 55, 0
3, 140410, Note_on_c, 1, 58, 0
3, 140746, Note_on_c, 1, 58, 66
3, 140754, Note_on_c, 1, 55, 57
3, 140754, Note_on_c, 1, 62, 45
3, 140774, Note_on_c, 1, 55, 0
3, 140786, Note_on_c, 1, 62, 0
3, 140802, Note_on_c, 1, 58, 0
3, 141538, Note_on_c, 1, 67, 70
3, 141542, Note_on_c, 1, 63, 54
3, 141554, Note_on_c, 1, 60, 45
3, 141558, Note_on_c, 1, 67, 0
3, 141578, Note_on_c, 1, 63, 0
3, 141582, Note_on_c, 1, 60, 0
3, 141902, Note_on_c, 1, 66, 76
3, 141918, Note_on_c, 1, 63, 49
3, 141926, Note_on_c, 1, 66, 0
3, 141942, Note_on_c, 1, 63, 0
3, 141942, Note_on_c, 1, 61, 28
3, 141978, Note_on_c, 1, 61, 0
3, 142290, Note_on_c, 1, 66, 68
3, 142302, Note_on_c, 1, 63, 45
3, 142310, Note_on_c, 1, 66, 0
3, 142318, Note_on_c, 1, 61, 34
3, 142334, Note_on_c, 1, 63, 0
3, 142362, Note_on_c, 1, 61, 0
3, 142746, Note_on_c, 1, 62, 29
3, 142778, Note_on_c, 1, 62, 0
3, 143062, Note_on_c, 1, 66, 50
3, 143082, Note_on_c, 1, 62, 41
3, 143086, Note_on_c, 1, 66, 0
3, 143126, Note_on_c, 1, 62, 0
3, 143450, Note_on_c, 1, 62, 51
3, 143458, Note_on_c, 1, 60, 47
3, 143486, Note_on_c, 1, 62, 0
3, 143490, Note_on_c, 1, 60, 0
3, 144246, Note_on_c, 1, 58, 54
3, 144246, Note_on_c, 1, 55, 50
3, 144254, Note_on_c, 1, 62, 29
3, 144282, Note_on_c, 1, 55, 0
3, 144290, Note_on_c, 1, 62, 0
3, 144290, Note_on_c, 1, 58, 0
3, 144610, Note_on_c, 1, 63, 66
3, 144618, Note_on_c, 1, 58, 57
3, 144622, Note_on_c, 1, 52, 50
3, 144986, Note_on_c, 1, 52, 0
3, 145038, Note_on_c, 1, 63, 0
3, 145078, Note_on_c, 1, 58, 0
3, 145118, Note_on_c, 1, 62, 51
3, 145122, Note_on_c, 1, 51, 50
3, 145130, Note_on_c, 1, 57, 48
3, 145182, Note_on_c, 1, 62, 0
3, 145190, Note_on_c, 1, 57, 0
3, 145194, Note_on_c, 1, 51, 0
3, 145498, Note_on_c, 1, 63, 66
3, 145502, Note_on_c, 1, 56, 65
3, 145502, Note_on_c, 1, 67, 77
3, 145514, Note_on_c, 1, 60, 58
3, 146294, Note_on_c, 1, 67, 0
3, 146362, Note_on_c, 1, 63, 0
3, 146362, Note_on_c, 1, 56, 0
3, 146418, Note_on_c, 1, 60, 0
3, 146534, Note_on_c, 1, 56, 64
3, 146554, Note_on_c, 1, 67, 54
3, 146554, Note_on_c, 1, 62, 59
3, 146622, Note_on_c, 1, 67, 0
3, 146874, Note_on_c, 1, 56, 0
3, 146918, Note_on_c, 1, 62, 0
3, 146938, Note_on_c, 1, 56, 51
3, 146946, Note_on_c, 1, 62, 22
3, 146946, Note_on_c, 1, 66, 66
3, 147106, Note_on_c, 1, 66, 0
3, 147246, Note_on_c, 1, 56, 0
3, 147314, Note_on_c, 1, 60, 9
3, 147326, Note_on_c, 1, 55, 48
3, 147326, Note_on_c, 1, 65, 39
3, 147422, Note_on_c, 1, 65, 0
3, 147494, Note_on_c, 1, 60, 0
3, 147510, Note_on_c, 1, 62, 0
3, 147698, Note_on_c, 1, 62, 40
3, 147722, Note_on_c, 1, 60, 38
3, 147778, Note_on_c, 1, 62, 0
3, 147802, Note_on_c, 1, 60, 0
3, 147898, Note_on_c, 1, 55, 0
3, 148442, Note_on_c, 1, 58, 55
3, 148470, Note_on_c, 1, 58, 0
3, 148850, Note_on_c, 1, 57, 56
3, 148858, Note_on_c, 1, 60, 40
3, 148862, Note_on_c, 1, 53, 41
3, 148886, Note_on_c, 1, 60, 0
3, 148890, Note_on_c, 1, 53, 0
3, 148906, Note_on_c, 1, 57, 0
3, 149214, Note_on_c, 1, 63, 61
3, 149222, Note_on_c, 1, 59, 55
3, 149222, Note_on_c, 1, 53, 43
3, 149246, Note_on_c, 1, 59, 0
3, 149246, Note_on_c, 1, 63, 0
3, 149250, Note_on_c, 1, 53, 0
3, 149622, Note_on_c, 1, 63, 63
3, 149622, Note_on_c, 1, 57, 67
3, 149642, Note_on_c, 1, 61, 46
3, 149886, Note_on_c, 1, 63, 0
3, 149918, Note_on_c, 1, 61, 0
3, 150010, Note_on_c, 1, 66, 52
3, 150022, Note_on_c, 1, 63, 46
3, 150042, Note_on_c, 1, 66, 0
3, 150110, Note_on_c, 1, 57, 0
3, 150230, Note_on_c, 1, 63, 0
3, 150386, Note_on_c, 1, 62, 50
3, 150390, Note_on_c, 1, 65, 57
3, 150402, Note_on_c, 1, 60, 48
3, 150418, Note_on_c, 1, 55, 37
3, 150778, Note_on_c, 1, 65, 0
3, 150806, Note_on_c, 1, 55, 0
3, 150814, Note_on_c, 1, 60, 0
3, 150814, Note_on_c, 1, 62, 0
3, 151150, Note_on_c, 1, 63, 57
3, 151150, Note_on_c, 1, 65, 54
3, 151174, Note_on_c, 1, 65, 0
3, 151218, Note_on_c, 1, 63, 0
3, 151566, Note_on_c, 1, 63, 31
3, 151602, Note_on_c, 1, 63, 0
3, 151958, Note_on_c, 1, 62, 35
3, 151990, Note_on_c, 1, 62, 0
3, 152346, Note_on_c, 1, 56, 29
3, 152382, Note_on_c, 1, 56, 0
3, 152750, Note_on_c, 1, 58, 42
3, 152786, Note_on_c, 1, 58, 0
3, 153082, Note_on_c, 1, 58, 46
3, 153106, Note_on_c, 1, 58, 0
3, 153466, Note_on_c, 1, 67, 40
3, 153474, Note_on_c, 1, 63, 52
3, 153486, Note_on_c, 1, 60, 40
3, 153494, Note_on_c, 1, 58, 27
3, 153542, Note_on_c, 1, 67, 0
3, 153550, Note_on_c, 1, 58, 0
3, 153662, Note_on_c, 1, 63, 0
3, 153670, Note_on_c, 1, 60, 0
3, 153842, Note_on_c, 1, 63, 50
3, 153934, Note_on_c, 1, 63, 0
3, 154234, Note_on_c, 1, 66, 61
3, 154258, Note_on_c, 1, 63, 41
3, 154270, Note_on_c, 1, 66, 0
3, 154282, Note_on_c, 1, 57, 26
3, 154294, Note_on_c, 1, 61, 26
3, 154330, Note_on_c, 1, 57, 0
3, 154354, Note_on_c, 1, 61, 0
3, 154418, Note_on_c, 1, 63, 0
3, 154606, Note_on_c, 1, 66, 54
3, 154634, Note_on_c, 1, 66, 0
3, 154642, Note_on_c, 1, 63, 39
3, 154686, Note_on_c, 1, 63, 0
3, 155002, Note_on_c, 1, 56, 48
3, 155022, Note_on_c, 1, 67, 29
3, 155026, Note_on_c, 1, 62, 43
3, 155050, Note_on_c, 1, 67, 0
3, 155066, Note_on_c, 1, 56, 0
3, 155166, Note_on_c, 1, 62, 0
3, 155394, Note_on_c, 1, 62, 40
3, 155450, Note_on_c, 1, 62, 0
3, 155750, Note_on_c, 1, 58, 57
3, 155762, Note_on_c, 1, 62, 43
3, 155770, Note_on_c, 1, 55, 42
3, 155790, Note_on_c, 1, 62, 0
3, 155814, Note_on_c, 1, 58, 0
3, 155854, Note_on_c, 1, 55, 0
3, 156154, Note_on_c, 1, 58, 32
3, 156190, Note_on_c, 1, 58, 0
3, 156542, Note_on_c, 1, 67, 44
3, 156542, Note_on_c, 1, 63, 52
3, 156558, Note_on_c, 1, 58, 33
3, 156562, Note_on_c, 1, 60, 42
3, 156602, Note_on_c, 1, 60, 0
3, 156614, Note_on_c, 1, 67, 0
3, 156622, Note_on_c, 1, 58, 0
3, 156638, Note_on_c, 1, 63, 0
3, 156906, Note_on_c, 1, 67, 43
3, 156914, Note_on_c, 1, 63, 49
3, 156942, Note_on_c, 1, 67, 0
3, 157002, Note_on_c, 1, 63, 0
3, 157270, Note_on_c, 1, 66, 71
3, 157286, Note_on_c, 1, 61, 49
3, 157286, Note_on_c, 1, 63, 49
3, 157318, Note_on_c, 1, 63, 0
3, 157326, Note_on_c, 1, 61, 0
3, 157330, Note_on_c, 1, 66, 0
3, 157658, Note_on_c, 1, 66, 61
3, 157666, Note_on_c, 1, 63, 47
3, 157674, Note_on_c, 1, 61, 39
3, 157674, Note_on_c, 1, 57, 37
3, 157698, Note_on_c, 1, 63, 0
3, 157698, Note_on_c, 1, 66, 0
3, 157718, Note_on_c, 1, 61, 0
3, 157814, Note_on_c, 1, 57, 0
3, 158078, Note_on_c, 1, 63, 41
3, 158086, Note_on_c, 1, 67, 34
3, 158118, Note_on_c, 1, 63, 0
3, 158122, Note_on_c, 1, 67, 0
3, 158190, Note_on_c, 1, 67, 63
3, 158190, Note_on_c, 1, 56, 49
3, 158190, Note_on_c, 1, 63, 56
3, 158202, Note_on_c, 1, 60, 58
3, 158590, Note_on_c, 1, 67, 0
3, 158622, Note_on_c, 1, 63, 0
3, 158634, Note_on_c, 1, 56, 0
3, 158634, Note_on_c, 1, 60, 0
3, 158862, Note_on_c, 1, 56, 45
3, 158870, Note_on_c, 1, 66, 50
3, 158890, Note_on_c, 1, 56, 0
3, 158898, Note_on_c, 1, 66, 0
3, 159390, Note_on_c, 1, 62, 39
3, 159434, Note_on_c, 1, 62, 0
3, 159602, Note_on_c, 1, 62, 63
3, 159670, Note_on_c, 1, 62, 0
3, 159926, Note_on_c, 1, 62, 51
3, 159934, Note_on_c, 1, 60, 43
3, 159970, Note_on_c, 1, 60, 0
3, 160014, Note_on_c, 1, 62, 0
3, 160190, Note_on_c, 1, 62, 49
3, 160218, Note_on_c, 1, 62, 0
3, 160782, Note_on_c, 1, 58, 61
3, 160782, Note_on_c, 1, 62, 64
3, 160806, Note_on_c, 1, 62, 0
3, 160822, Note_on_c, 1, 58, 0
3, 161110, Note_on_c, 1, 54, 38
3, 161126, Note_on_c, 1, 60, 46
3, 161146, Note_on_c, 1, 54, 0
3, 161198, Note_on_c, 1, 60, 0
3, 161490, Note_on_c, 1, 60, 48
3, 161510, Note_on_c, 1, 58, 25
3, 161518, Note_on_c, 1, 60, 0
3, 161546, Note_on_c, 1, 58, 0
3, 162278, Note_on_c, 1, 63, 61
3, 162290, Note_on_c, 1, 57, 43
3, 162314, Note_on_c, 1, 57, 0
3, 162334, Note_on_c, 1, 63, 0
3, 162426, Note_on_c, 1, 66, 54
3, 162462, Note_on_c, 1, 63, 30
3, 162490, Note_on_c, 1, 66, 0
3, 162514, Note_on_c, 1, 63, 0
3, 162670, Note_on_c, 1, 62, 57
3, 162678, Note_on_c, 1, 65, 58
3, 162686, Note_on_c, 1, 60, 48
3, 162702, Note_on_c, 1, 65, 0
3, 162718, Note_on_c, 1, 60, 0
3, 162746, Note_on_c, 1, 62, 0
3, 163050, Note_on_c, 1, 65, 58
3, 163058, Note_on_c, 1, 62, 54
3, 163066, Note_on_c, 1, 60, 48
3, 163074, Note_on_c, 1, 65, 0
3, 163090, Note_on_c, 1, 62, 0
3, 163094, Note_on_c, 1, 60, 0
3, 163454, Note_on_c, 1, 62, 52
3, 163462, Note_on_c, 1, 65, 31
3, 163466, Note_on_c, 1, 60, 41
3, 163482, Note_on_c, 1, 62, 0
3, 163494, Note_on_c, 1, 60, 0
3, 163494, Note_on_c, 1, 65, 0
3, 163846, Note_on_c, 1, 62, 38
3, 163878, Note_on_c, 1, 62, 0
3, 164598, Note_on_c, 1, 62, 51
3, 164622, Note_on_c, 1, 62, 0
3, 165086, Note_on_c, 1, 58, 47
3, 165086, Note_on_c, 1, 62, 39
3, 165126, Note_on_c, 1, 62, 0
3, 165162, Note_on_c, 1, 58, 0
3, 165794, Note_on_c, 1, 63, 48
3, 165882, Note_on_c, 1, 63, 0
3, 166178, Note_on_c, 1, 63, 40
3, 166234, Note_on_c, 1, 63, 0
3, 166518, Note_on_c, 1, 63, 55
3, 166526, Note_on_c, 1, 67, 50
3, 166530, Note_on_c, 1, 57, 47
3, 166938, Note_on_c, 1, 67, 0
3, 166990, Note_on_c, 1, 63, 0
3, 166998, Note_on_c, 1, 57, 0
3, 167290, Note_on_c, 1, 60, 60
3, 167298, Note_on_c, 1, 57, 57
3, 167302, Note_on_c, 1, 53, 45
3, 167314, Note_on_c, 1, 60, 0
3, 167358, Note_on_c, 1, 57, 0
3, 167390, Note_on_c, 1, 53, 0
3, 167694, Note_on_c, 1, 57, 37
3, 167726, Note_on_c, 1, 57, 0
3, 168086, Note_on_c, 1, 58, 46
3, 168114, Note_on_c, 1, 58, 0
3, 168114, Note_on_c, 1, 55, 28
3, 168154, Note_on_c, 1, 55, 0
3, 168450, Note_on_c, 1, 58, 51
3, 168478, Note_on_c, 1, 58, 0
3, 168842, Note_on_c, 1, 63, 52
3, 168886, Note_on_c, 1, 63, 0
3, 169194, Note_on_c, 1, 63, 49
3, 169282, Note_on_c, 1, 63, 0
3, 169610, Note_on_c, 1, 63, 55
3, 169642, Note_on_c, 1, 63, 0
3, 169998, Note_on_c, 1, 63, 39
3, 170030, Note_on_c, 1, 63, 0
3, 170466, Note_on_c, 1, 63, 46
3, 170474, Note_on_c, 1, 67, 24
3, 170482, Note_on_c, 1, 56, 33
3, 170514, Note_on_c, 1, 60, 25
3, 171074, Note_on_c, 1, 67, 0
3, 171122, Note_on_c, 1, 56, 0
3, 171146, Note_on_c, 1, 63, 0
3, 171194, Note_on_c, 1, 60, 0
3, 171218, Note_on_c, 1, 67, 45
3, 171226, Note_on_c, 1, 56, 27
3, 171226, Note_on_c, 1, 62, 41
3, 171270, Note_on_c, 1, 67, 0
3, 171314, Note_on_c, 1, 62, 0
3, 171350, Note_on_c, 1, 56, 0
3, 171490, Note_on_c, 1, 66, 51
3, 171510, Note_on_c, 1, 56, 35
3, 171562, Note_on_c, 1, 62, 10
3, 171574, Note_on_c, 1, 60, 22
3, 171638, Note_on_c, 1, 60, 0
3, 171642, Note_on_c, 1, 62, 0
3, 171666, Note_on_c, 1, 66, 0
3, 171934, Note_on_c, 1, 62, 38
3, 171938, Note_on_c, 1, 56, 0
3, 171950, Note_on_c, 1, 60, 39
3, 172038, Note_on_c, 1, 62, 0
3, 172050, Note_on_c, 1, 60, 0
3, 172250, Note_on_c, 1, 65, 35
3, 172254, Note_on_c, 1, 62, 39
3, 172266, Note_on_c, 1, 60, 36
3, 172302, Note_on_c, 1, 65, 0
3, 172318, Note_on_c, 1, 60, 0
3, 172330, Note_on_c, 1, 55, 22
3, 172350, Note_on_c, 1, 62, 0
3, 172450, Note_on_c, 1, 55, 0
3, 172674, Note_on_c, 1, 60, 52
3, 172674, Note_on_c, 1, 58, 42
3, 172678, Note_on_c, 1, 65, 27
3, 172698, Note_on_c, 1, 60, 0
3, 172710, Note_on_c, 1, 65, 0
3, 172718, Note_on_c, 1, 58, 0
3, 173046, Note_on_c, 1, 65, 55
3, 173054, Note_on_c, 1, 54, 39
3, 173062, Note_on_c, 1, 60, 50
3, 173070, Note_on_c, 1, 65, 0
3, 173094, Note_on_c, 1, 60, 0
3, 173098, Note_on_c, 1, 54, 0
3, 173442, Note_on_c, 1, 57, 49
3, 173446, Note_on_c, 1, 60, 31
3, 173470, Note_on_c, 1, 53, 34
3, 173482, Note_on_c, 1, 60, 0
3, 173514, Note_on_c, 1, 57, 0
3, 173526, Note_on_c, 1, 53, 0
3, 173830, Note_on_c, 1, 59, 51
3, 173922, Note_on_c, 1, 63, 61
3, 173942, Note_on_c, 1, 59, 0
3, 174050, Note_on_c, 1, 63, 0
3, 174206, Note_on_c, 1, 63, 33
3, 174246, Note_on_c, 1, 63, 0
3, 174314, Note_on_c, 1, 75, 56
3, 174326, Note_on_c, 1, 63, 42
3, 174466, Note_on_c, 1, 63, 0
3, 174538, Note_on_c, 1, 75, 0
3, 174650, Note_on_c, 1, 66, 65
3, 174686, Note_on_c, 1, 74, 49
3, 174702, Note_on_c, 1, 63, 35
3, 174762, Note_on_c, 1, 66, 0
3, 174834, Note_on_c, 1, 74, 0
3, 174874, Note_on_c, 1, 63, 0
3, 174946, Note_on_c, 1, 65, 56
3, 174958, Note_on_c, 1, 62, 43
3, 174962, Note_on_c, 1, 72, 41
3, 174970, Note_on_c, 1, 60, 42
3, 175006, Note_on_c, 1, 60, 0
3, 175010, Note_on_c, 1, 65, 0
3, 175022, Note_on_c, 1, 62, 0
3, 175062, Note_on_c, 1, 72, 0
3, 175742, Note_on_c, 1, 53, 39
3, 175778, Note_on_c, 1, 53, 0
3, 175802, Note_on_c, 1, 54, 40
3, 175830, Note_on_c, 1, 70, 66
3, 175838, Note_on_c, 1, 65, 61
3, 175838, Note_on_c, 1, 55, 47
3, 175838, Note_on_c, 1, 60, 39
3, 175854, Note_on_c, 1, 62, 43
3, 175882, Note_on_c, 1, 62, 0
3, 175886, Note_on_c, 1, 54, 0
3, 176026, Note_on_c, 1, 70, 0
3, 176030, Note_on_c, 1, 60, 0
3, 176042, Note_on_c, 1, 65, 0
3, 176046, Note_on_c, 1, 55, 0
3, 176114, Note_on_c, 1, 53, 44
3, 176174, Note_on_c, 1, 54, 54
3, 176182, Note_on_c, 1, 53, 0
3, 176218, Note_on_c, 1, 55, 58
3, 176218, Note_on_c, 1, 70, 83
3, 176218, Note_on_c, 1, 65, 76
3, 176222, Note_on_c, 1, 60, 75
3, 176262, Note_on_c, 1, 54, 0
3, 176494, Note_on_c, 1, 70, 0
3, 176518, Note_on_c, 1, 60, 0
3, 176522, Note_on_c, 1, 65, 0
3, 176598, Note_on_c, 1, 55, 0
3, 176614, Note_on_c, 1, 54, 50
3, 176622, Note_on_c, 1, 59, 39
3, 176630, Note_on_c, 1, 64, 46
3, 176630, Note_on_c, 1, 69, 35
3, 176670, Note_on_c, 1, 69, 0
3, 176738, Note_on_c, 1, 59, 0
3, 176778, Note_on_c, 1, 64, 0
3, 176854, Note_on_c, 1, 54, 0
3, 176874, Note_on_c, 1, 55, 43
3, 176914, Note_on_c, 1, 55, 0
3, 176990, Note_on_c, 1, 74, 79
3, 176994, Note_on_c, 1, 63, 75
3, 176998, Note_on_c, 1, 67, 71
3, 177010, Note_on_c, 1, 62, 81
3, 177214, Note_on_c, 1, 63, 0
3, 177230, Note_on_c, 1, 67, 0
3, 177234, Note_on_c, 1, 74, 0
3, 177250, Note_on_c, 1, 62, 0
3, 177266, Note_on_c, 1, 58, 54
3, 177338, Note_on_c, 1, 58, 0
3, 177366, Note_on_c, 1, 60, 58
3, 177370, Note_on_c, 1, 72, 66
3, 177374, Note_on_c, 1, 67, 63
3, 177374, Note_on_c, 1, 63, 57
3, 177514, Note_on_c, 1, 67, 0
3, 177566, Note_on_c, 1, 63, 0
3, 177614, Note_on_c, 1, 60, 0
3, 177618, Note_on_c, 1, 72, 0
3, 177634, Note_on_c, 1, 63, 57
3, 177642, Note_on_c, 1, 67, 63
3, 177650, Note_on_c, 1, 55, 56
3, 177686, Note_on_c, 1, 67, 0
3, 177698, Note_on_c, 1, 63, 0
3, 177722, Note_on_c, 1, 55, 0
3, 178026, Note_on_c, 1, 41, 78
3, 178058, Note_on_c, 1, 48, 26
3, 178086, Note_on_c, 1, 48, 0
3, 178206, Note_on_c, 1, 41, 0
3, 178306, Note_on_c, 1, 52, 85
3, 178438, Note_on_c, 1, 52, 0
3, 178442, Note_on_c, 1, 53, 74
3, 178454, Note_on_c, 1, 48, 33
3, 178494, Note_on_c, 1, 48, 0
3, 178534, Note_on_c, 1, 53, 0
3, 178570, Note_on_c, 1, 55, 83
3, 178682, Note_on_c, 1, 55, 0
3, 178698, Note_on_c, 1, 56, 84
3, 178810, Note_on_c, 1, 56, 0
3, 178850, Note_on_c, 1, 58, 94
3, 178870, Note_on_c, 1, 46, 56
3, 178874, Note_on_c, 1, 56, 43
3, 178906, Note_on_c, 1, 56, 0
3, 178918, Note_on_c, 1, 46, 0
3, 178962, Note_on_c, 1, 58, 0
3, 178998, Note_on_c, 1, 59, 66
3, 179026, Note_on_c, 1, 57, 28
3, 179074, Note_on_c, 1, 57, 0
3, 179074, Note_on_c, 1, 59, 0
3, 179130, Note_on_c, 1, 61, 87
3, 179166, Note_on_c, 1, 56, 62
3, 179182, Note_on_c, 1, 46, 48
3, 179246, Note_on_c, 1, 61, 0
3, 179262, Note_on_c, 1, 62, 87
3, 179270, Note_on_c, 1, 56, 0
3, 179286, Note_on_c, 1, 46, 0
3, 179346, Note_on_c, 1, 62, 0
3, 179370, Note_on_c, 1, 63, 71
3, 179470, Note_on_c, 1, 63, 0
3, 179486, Note_on_c, 1, 64, 57
3, 179546, Note_on_c, 1, 64, 0
3, 179598, Note_on_c, 1, 65, 94
3, 179634, Note_on_c, 1, 55, 52
3, 179642, Note_on_c, 1, 54, 40
3, 179670, Note_on_c, 1, 55, 0
3, 179674, Note_on_c, 1, 54, 0
3, 179818, Note_on_c, 1, 62, 43
3, 179830, Note_on_c, 1, 65, 0
3, 179918, Note_on_c, 1, 58, 63
3, 179958, Note_on_c, 1, 62, 0
3, 179958, Note_on_c, 1, 51, 38
3, 180002, Note_on_c, 1, 51, 0
3, 180014, Note_on_c, 1, 58, 0
3, 180034, Note_on_c, 1, 55, 30
3, 180050, Note_on_c, 1, 57, 35
3, 180070, Note_on_c, 1, 55, 0
3, 180082, Note_on_c, 1, 57, 0
3, 180122, Note_on_c, 1, 70, 88
3, 180318, Note_on_c, 1, 67, 56
3, 180334, Note_on_c, 1, 56, 54
3, 180358, Note_on_c, 1, 56, 0
3, 180374, Note_on_c, 1, 63, 57
3, 180386, Note_on_c, 1, 70, 0
3, 180426, Note_on_c, 1, 67, 0
3, 180466, Note_on_c, 1, 63, 0
3, 180482, Note_on_c, 1, 62, 56
3, 180638, Note_on_c, 1, 62, 0
3, 180686, Note_on_c, 1, 58, 72
3, 180706, Note_on_c, 1, 48, 45
3, 180710, Note_on_c, 1, 58, 0
3, 180750, Note_on_c, 1, 48, 0
3, 180938, Note_on_c, 1, 74, 39
3, 180982, Note_on_c, 1, 74, 0
3, 180994, Note_on_c, 1, 70, 47
3, 181050, Note_on_c, 1, 58, 49
3, 181070, Note_on_c, 1, 70, 0
3, 181078, Note_on_c, 1, 67, 50
3, 181118, Note_on_c, 1, 67, 0
3, 181118, Note_on_c, 1, 58, 0
3, 181162, Note_on_c, 1, 74, 90
3, 181202, Note_on_c, 1, 73, 38
3, 181238, Note_on_c, 1, 73, 0
3, 181498, Note_on_c, 1, 58, 46
3, 181506, Note_on_c, 1, 60, 30
3, 181526, Note_on_c, 1, 58, 0
3, 181538, Note_on_c, 1, 60, 0
3, 181674, Note_on_c, 1, 72, 59
3, 181750, Note_on_c, 1, 74, 0
3, 181754, Note_on_c, 1, 68, 51
3, 181802, Note_on_c, 1, 72, 0
3, 181858, Note_on_c, 1, 53, 48
3, 181874, Note_on_c, 1, 68, 0
3, 181946, Note_on_c, 1, 53, 0
3, 181974, Note_on_c, 1, 62, 60
3, 181974, Note_on_c, 1, 71, 68
3, 181978, Note_on_c, 1, 56, 49
3, 181990, Note_on_c, 1, 66, 59
3, 182090, Note_on_c, 1, 66, 0
3, 182110, Note_on_c, 1, 67, 46
3, 182282, Note_on_c, 1, 56, 0
3, 182290, Note_on_c, 1, 67, 0
3, 182290, Note_on_c, 1, 62, 0
3, 182290, Note_on_c, 1, 54, 50
3, 182302, Note_on_c, 1, 51, 27
3, 182306, Note_on_c, 1, 71, 0
3, 182354, Note_on_c, 1, 51, 0
3, 182366, Note_on_c, 1, 71, 61
3, 182378, Note_on_c, 1, 62, 56
3, 182378, Note_on_c, 1, 66, 61
3, 182382, Note_on_c, 1, 56, 55
3, 182390, Note_on_c, 1, 54, 0
3, 182566, Note_on_c, 1, 67, 50
3, 182570, Note_on_c, 1, 66, 0
3, 182650, Note_on_c, 1, 67, 0
3, 182650, Note_on_c, 1, 51, 33
3, 182662, Note_on_c, 1, 71, 0
3, 182666, Note_on_c, 1, 62, 0
3, 182674, Note_on_c, 1, 54, 49
3, 182682, Note_on_c, 1, 56, 0
3, 182750, Note_on_c, 1, 70, 64
3, 182758, Note_on_c, 1, 55, 55
3, 182758, Note_on_c, 1, 60, 54
3, 182766, Note_on_c, 1, 51, 0
3, 182778, Note_on_c, 1, 54, 0
3, 182782, Note_on_c, 1, 65, 40
3, 183010, Note_on_c, 1, 60, 0
3, 183050, Note_on_c, 1, 65, 0
3, 183050, Note_on_c, 1, 70, 0
3, 183114, Note_on_c, 1, 55, 0
3, 183118, Note_on_c, 1, 54, 49
3, 183126, Note_on_c, 1, 69, 57
3, 183126, Note_on_c, 1, 65, 45
3, 183138, Note_on_c, 1, 60, 44
3, 183246, Note_on_c, 1, 60, 0
3, 183326, Note_on_c, 1, 65, 0
3, 183350, Note_on_c, 1, 69, 0
3, 183394, Note_on_c, 1, 70, 71
3, 183402, Note_on_c, 1, 54, 0
3, 183402, Note_on_c, 1, 65, 65
3, 183402, Note_on_c, 1, 61, 66
3, 183402, Note_on_c, 1, 55, 56
3, 183454, Note_on_c, 1, 55, 0
3, 183486, Note_on_c, 1, 70, 0
3, 183494, Note_on_c, 1, 61, 0
3, 183510, Note_on_c, 1, 65, 0
3, 183526, Note_on_c, 1, 60, 81
3, 183538, Note_on_c, 1, 65, 44
3, 183542, Note_on_c, 1, 61, 68
3, 183542, Note_on_c, 1, 72, 75
3, 183706, Note_on_c, 1, 72, 0
3, 183726, Note_on_c, 1, 61, 0
3, 183742, Note_on_c, 1, 65, 0
3, 183766, Note_on_c, 1, 60, 0
3, 183782, Note_on_c, 1, 70, 75
3, 183790, Note_on_c, 1, 61, 50
3, 183794, Note_on_c, 1, 58, 68
3, 183798, Note_on_c, 1, 65, 72
3, 183882, Note_on_c, 1, 61, 0
3, 183894, Note_on_c, 1, 65, 0
3, 183898, Note_on_c, 1, 70, 0
3, 183926, Note_on_c, 1, 56, 62
3, 183934, Note_on_c, 1, 61, 36
3, 183946, Note_on_c, 1, 58, 0
3, 183958, Note_on_c, 1, 68, 45
3, 184134, Note_on_c, 1, 61, 0
3, 184150, Note_on_c, 1, 68, 0
3, 184162, Note_on_c, 1, 56, 0
3, 184170, Note_on_c, 1, 67, 70
3, 184174, Note_on_c, 1, 55, 66
3, 184178, Note_on_c, 1, 63, 63
3, 184182, Note_on_c, 1, 60, 62
3, 184558, Note_on_c, 1, 63, 0
3, 184570, Note_on_c, 1, 55, 0
3, 184574, Note_on_c, 1, 51, 54
3, 184590, Note_on_c, 1, 60, 0
3, 184602, Note_on_c, 1, 44, 57
3, 184638, Note_on_c, 1, 51, 0
3, 184646, Note_on_c, 1, 67, 0
3, 184694, Note_on_c, 1, 63, 52
3, 184694, Note_on_c, 1, 60, 56
3, 184698, Note_on_c, 1, 53, 51
3, 184834, Note_on_c, 1, 44, 0
3, 184862, Note_on_c, 1, 53, 0
3, 184862, Note_on_c, 1, 51, 39
3, 184874, Note_on_c, 1, 60, 0
3, 184898, Note_on_c, 1, 63, 0
3, 184902, Note_on_c, 1, 51, 0
3, 184942, Note_on_c, 1, 63, 87
3, 184942, Note_on_c, 1, 70, 88
3, 184950, Note_on_c, 1, 59, 85
3, 184950, Note_on_c, 1, 65, 76
3, 184966, Note_on_c, 1, 58, 78
3, 185394, Note_on_c, 1, 59, 0
3, 185410, Note_on_c, 1, 65, 0
3, 185414, Note_on_c, 1, 70, 0
3, 185454, Note_on_c, 1, 58, 0
3, 185458, Note_on_c, 1, 56, 53
3, 185458, Note_on_c, 1, 68, 57
3, 185482, Note_on_c, 1, 59, 31
3, 185490, Note_on_c, 1, 65, 40
3, 185526, Note_on_c, 1, 59, 0
3, 185618, Note_on_c, 1, 68, 0
3, 185658, Note_on_c, 1, 65, 0
3, 185670, Note_on_c, 1, 63, 0
3, 185686, Note_on_c, 1, 56, 0
3, 185710, Note_on_c, 1, 67, 60
3, 185714, Note_on_c, 1, 58, 60
3, 185718, Note_on_c, 1, 62, 66
3, 185730, Note_on_c, 1, 55, 54
3, 185746, Note_on_c, 1, 65, 33
3, 185786, Note_on_c, 1, 65, 0
3, 185786, Note_on_c, 1, 58, 0
3, 185794, Note_on_c, 1, 55, 0
3, 185794, Note_on_c, 1, 62, 0
3, 185834, Note_on_c, 1, 67, 0
3, 186082, Note_on_c, 1, 63, 75
3, 186090, Note_on_c, 1, 75, 68
3, 186094, Note_on_c, 1, 68, 66
3, 186106, Note_on_c, 1, 64, 56
3, 186110, Note_on_c, 1, 72, 46
3, 186130, Note_on_c, 1, 64, 0
3, 186138, Note_on_c, 1, 72, 0
3, 186142, Note_on_c, 1, 63, 0
3, 186162, Note_on_c, 1, 75, 0
3, 186166, Note_on_c, 1, 68, 0
3, 186330, Note_on_c, 1, 73, 62
3, 186330, Note_on_c, 1, 61, 55
3, 186338, Note_on_c, 1, 68, 63
3, 186346, Note_on_c, 1, 64, 57
3, 186430, Note_on_c, 1, 64, 0
3, 186430, Note_on_c, 1, 73, 0
3, 186450, Note_on_c, 1, 68, 0
3, 186474, Note_on_c, 1, 61, 0
3, 186578, Note_on_c, 1, 72, 60
3, 186598, Note_on_c, 1, 63, 62
3, 186598, Note_on_c, 1, 67, 61
3, 186598, Note_on_c, 1, 60, 52
3, 186658, Note_on_c, 1, 60, 0
3, 186666, Note_on_c, 1, 72, 0
3, 186674, Note_on_c, 1, 67, 0
3, 186690, Note_on_c, 1, 63, 0
3, 186842, Note_on_c, 1, 66, 65
3, 186842, Note_on_c, 1, 56, 51
3, 186926, Note_on_c, 1, 56, 0
3, 186934, Note_on_c, 1, 66, 0
3, 187082, Note_on_c, 1, 71, 70
3, 187094, Note_on_c, 1, 59, 54
3, 187094, Note_on_c, 1, 66, 51
3, 187098, Note_on_c, 1, 62, 58
3, 187178, Note_on_c, 1, 71, 0
3, 187186, Note_on_c, 1, 66, 0
3, 187218, Note_on_c, 1, 62, 0
3, 187222, Note_on_c, 1, 59, 0
3, 187358, Note_on_c, 1, 56, 61
3, 187362, Note_on_c, 1, 66, 56
3, 187374, Note_on_c, 1, 70, 56
3, 187450, Note_on_c, 1, 66, 0
3, 187454, Note_on_c, 1, 70, 0
3, 187590, Note_on_c, 1, 56, 0
3, 187630, Note_on_c, 1, 70, 66
3, 187638, Note_on_c, 1, 65, 57
3, 187642, Note_on_c, 1, 60, 56
3, 187642, Note_on_c, 1, 55, 57
3, 187978, Note_on_c, 1, 65, 0
3, 187978, Note_on_c, 1, 70, 0
3, 187982, Note_on_c, 1, 60, 0
3, 188014, Note_on_c, 1, 54, 41
3, 188042, Note_on_c, 1, 55, 0
3, 188078, Note_on_c, 1, 54, 0
3, 188134, Note_on_c, 1, 63, 61
3, 188150, Note_on_c, 1, 60, 43
3, 188186, Note_on_c, 1, 60, 0
3, 188222, Note_on_c, 1, 63, 0
3, 188406, Note_on_c, 1, 53, 70
3, 188410, Note_on_c, 1, 41, 66
3, 188430, Note_on_c, 1, 53, 0
3, 188446, Note_on_c, 1, 41, 0
3, 189190, Note_on_c, 1, 62, 31
3, 189194, Note_on_c, 1, 60, 31
3, 189222, Note_on_c, 1, 62, 0
3, 189234, Note_on_c, 1, 60, 0
3, 189558, Note_on_c, 1, 62, 44
3, 189586, Note_on_c, 1, 62, 0
3, 189922, Note_on_c, 1, 62, 49
3, 189926, Note_on_c, 1, 65, 33
3, 189954, Note_on_c, 1, 62, 0
3, 189958, Note_on_c, 1, 65, 0
3, 189958, Note_on_c, 1, 60, 22
3, 189982, Note_on_c, 1, 60, 0
3, 190426, Note_on_c, 1, 63, 27
3, 190470, Note_on_c, 1, 63, 0
3, 190710, Note_on_c, 1, 63, 45
3, 190714, Note_on_c, 1, 67, 31
3, 190714, Note_on_c, 1, 60, 42
3, 190746, Note_on_c, 1, 67, 0
3, 190746, Note_on_c, 1, 63, 0
3, 190750, Note_on_c, 1, 60, 0
3, 191078, Note_on_c, 1, 63, 57
3, 191114, Note_on_c, 1, 63, 0
3, 191442, Note_on_c, 1, 66, 60
3, 191450, Note_on_c, 1, 63, 50
3, 191458, Note_on_c, 1, 61, 45
3, 191466, Note_on_c, 1, 66, 0
3, 191470, Note_on_c, 1, 57, 32
3, 191494, Note_on_c, 1, 61, 0
3, 191494, Note_on_c, 1, 63, 0
3, 191514, Note_on_c, 1, 57, 0
3, 191874, Note_on_c, 1, 65, 52
3, 191874, Note_on_c, 1, 62, 51
3, 191886, Note_on_c, 1, 60, 48
3, 191898, Note_on_c, 1, 65, 0
3, 191918, Note_on_c, 1, 60, 0
3, 191970, Note_on_c, 1, 62, 0
3, 192222, Note_on_c, 1, 62, 51
3, 192230, Note_on_c, 1, 60, 49
3, 192234, Note_on_c, 1, 65, 31
3, 192250, Note_on_c, 1, 62, 0
3, 192258, Note_on_c, 1, 60, 0
3, 192266, Note_on_c, 1, 65, 0
3, 192642, Note_on_c, 1, 62, 41
3, 192642, Note_on_c, 1, 58, 44
3, 192674, Note_on_c, 1, 62, 0
3, 192678, Note_on_c, 1, 58, 0
3, 192998, Note_on_c, 1, 62, 54
3, 193006, Note_on_c, 1, 58, 52
3, 193026, Note_on_c, 1, 62, 0
3, 193042, Note_on_c, 1, 58, 0
3, 193378, Note_on_c, 1, 67, 56
3, 193390, Note_on_c, 1, 63, 43
3, 193398, Note_on_c, 1, 62, 38
3, 193406, Note_on_c, 1, 67, 0
3, 193442, Note_on_c, 1, 62, 0
3, 193442, Note_on_c, 1, 63, 0
3, 193746, Note_on_c, 1, 67, 50
3, 193758, Note_on_c, 1, 63, 46
3, 193762, Note_on_c, 1, 58, 39
3, 193766, Note_on_c, 1, 62, 39
3, 193830, Note_on_c, 1, 67, 0
3, 193862, Note_on_c, 1, 62, 0
3, 193970, Note_on_c, 1, 58, 0
3, 193990, Note_on_c, 1, 63, 0
3, 194138, Note_on_c, 1, 66, 70
3, 194162, Note_on_c, 1, 57, 39
3, 194166, Note_on_c, 1, 63, 39
3, 194170, Note_on_c, 1, 61, 39
3, 194202, Note_on_c, 1, 63, 0
3, 194202, Note_on_c, 1, 66, 0
3, 194206, Note_on_c, 1, 57, 0
3, 194206, Note_on_c, 1, 61, 0
3, 194402, Note_on_c, 1, 66, 68
3, 194422, Note_on_c, 1, 57, 41
3, 194426, Note_on_c, 1, 61, 42
3, 194426, Note_on_c, 1, 63, 40
3, 194446, Note_on_c, 1, 66, 0
3, 194454, Note_on_c, 1, 57, 0
3, 194458, Note_on_c, 1, 61, 0
3, 194462, Note_on_c, 1, 63, 0
3, 194522, Note_on_c, 1, 66, 57
3, 194534, Note_on_c, 1, 63, 42
3, 194534, Note_on_c, 1, 61, 45
3, 194534, Note_on_c, 1, 57, 48
3, 194570, Note_on_c, 1, 57, 0
3, 194574, Note_on_c, 1, 63, 0
3, 194582, Note_on_c, 1, 61, 0
3, 194582, Note_on_c, 1, 66, 0
3, 194646, Note_on_c, 1, 66, 61
3, 194658, Note_on_c, 1, 57, 55
3, 194682, Note_on_c, 1, 61, 40
3, 194682, Note_on_c, 1, 63, 38
3, 194742, Note_on_c, 1, 57, 0
3, 194798, Note_on_c, 1, 61, 0
3, 194814, Note_on_c, 1, 66, 0
3, 194850, Note_on_c, 1, 63, 0
3, 194910, Note_on_c, 1, 67, 68
3, 194910, Note_on_c, 1, 63, 56
3, 194918, Note_on_c, 1, 60, 61
3, 194918, Note_on_c, 1, 56, 58
3, 195318, Note_on_c, 1, 67, 0
3, 195346, Note_on_c, 1, 56, 0
3, 195358, Note_on_c, 1, 63, 0
3, 195366, Note_on_c, 1, 60, 0
3, 195402, Note_on_c, 1, 56, 29
3, 195406, Note_on_c, 1, 67, 45
3, 195414, Note_on_c, 1, 63, 44
3, 195426, Note_on_c, 1, 60, 31
3, 195578, Note_on_c, 1, 67, 0
3, 195578, Note_on_c, 1, 56, 0
3, 195630, Note_on_c, 1, 60, 0
3, 195634, Note_on_c, 1, 63, 0
3, 195686, Note_on_c, 1, 67, 71
3, 195686, Note_on_c, 1, 56, 57
3, 195698, Note_on_c, 1, 60, 50
3, 195706, Note_on_c, 1, 62, 56
3, 195746, Note_on_c, 1, 67, 0
3, 195786, Note_on_c, 1, 56, 0
3, 195802, Note_on_c, 1, 60, 0
3, 195822, Note_on_c, 1, 62, 0
3, 195882, Note_on_c, 1, 66, 66
3, 195886, Note_on_c, 1, 56, 54
3, 195894, Note_on_c, 1, 62, 46
3, 195906, Note_on_c, 1, 60, 37
3, 196058, Note_on_c, 1, 60, 0
3, 196082, Note_on_c, 1, 62, 0
3, 196098, Note_on_c, 1, 66, 0
3, 196118, Note_on_c, 1, 56, 0
3, 196174, Note_on_c, 1, 56, 62
3, 196178, Note_on_c, 1, 66, 61
3, 196202, Note_on_c, 1, 62, 46
3, 196230, Note_on_c, 1, 60, 30
3, 196286, Note_on_c, 1, 66, 0
3, 196362, Note_on_c, 1, 56, 0
3, 196390, Note_on_c, 1, 62, 0
3, 196390, Note_on_c, 1, 60, 0
3, 196454, Note_on_c, 1, 65, 58
3, 196458, Note_on_c, 1, 60, 24
3, 196462, Note_on_c, 1, 62, 44
3, 196470, Note_on_c, 1, 55, 48
3, 196974, Note_on_c, 1, 62, 0
3, 196990, Note_on_c, 1, 60, 0
3, 197002, Note_on_c, 1, 58, 10
3, 197050, Note_on_c, 1, 65, 0
3, 197050, Note_on_c, 1, 55, 0
3, 197062, Note_on_c, 1, 58, 0
3, 197274, Note_on_c, 1, 65, 52
3, 197278, Note_on_c, 1, 54, 42
3, 197278, Note_on_c, 1, 58, 44
3, 197290, Note_on_c, 1, 60, 46
3, 197626, Note_on_c, 1, 65, 0
3, 197670, Note_on_c, 1, 58, 0
3, 197674, Note_on_c, 1, 60, 0
3, 197714, Note_on_c, 1, 54, 0
3, 197990, Note_on_c, 1, 60, 58
3, 197998, Note_on_c, 1, 53, 45
3, 197998, Note_on_c, 1, 57, 54
3, 197998, Note_on_c, 1, 50, 36
3, 198042, Note_on_c, 1, 50, 0
3, 198070, Note_on_c, 1, 53, 0
3, 198098, Note_on_c, 1, 57, 0
3, 198138, Note_on_c, 1, 60, 0
3, 198378, Note_on_c, 1, 63, 68
3, 198390, Note_on_c, 1, 53, 45
3, 198402, Note_on_c, 1, 56, 39
3, 198402, Note_on_c, 1, 59, 49
3, 198510, Note_on_c, 1, 53, 0
3, 198514, Note_on_c, 1, 59, 0
3, 198562, Note_on_c, 1, 56, 0
3, 198630, Note_on_c, 1, 63, 0
3, 198878, Note_on_c, 1, 57, 51
3, 198910, Note_on_c, 1, 63, 42
3, 199002, Note_on_c, 1, 63, 0
3, 199018, Note_on_c, 1, 57, 0
3, 199234, Note_on_c, 1, 57, 54
3, 199254, Note_on_c, 1, 66, 52
3, 199258, Note_on_c, 1, 63, 39
3, 199346, Note_on_c, 1, 66, 0
3, 199354, Note_on_c, 1, 57, 0
3, 199442, Note_on_c, 1, 63, 0
3, 199546, Note_on_c, 1, 65, 41
3, 199546, Note_on_c, 1, 62, 47
3, 199566, Note_on_c, 1, 60, 49
3, 199570, Note_on_c, 1, 55, 29
3, 200022, Note_on_c, 1, 65, 0
3, 200052, Note_on_c, 1, 62, 0
3, 200052, Note_on_c, 1, 55, 0
3, 200064, Note_on_c, 1, 60, 0
3, 201456, Note_on_c, 1, 65, 56
3, 201460, Note_on_c, 1, 62, 56
3, 201472, Note_on_c, 1, 60, 39
3, 201480, Note_on_c, 1, 65, 0
3, 201496, Note_on_c, 1, 62, 0
3, 201504, Note_on_c, 1, 60, 0
3, 201916, Note_on_c, 1, 58, 31
3, 201952, Note_on_c, 1, 58, 0
3, 202240, Note_on_c, 1, 58, 51
3, 202256, Note_on_c, 1, 62, 30
3, 202272, Note_on_c, 1, 58, 0
3, 202288, Note_on_c, 1, 62, 0
3, 202608, Note_on_c, 1, 63, 52
3, 202612, Note_on_c, 1, 67, 40
3, 202624, Note_on_c, 1, 60, 42
3, 202644, Note_on_c, 1, 67, 0
3, 202644, Note_on_c, 1, 63, 0
3, 202656, Note_on_c, 1, 60, 0
3, 203008, Note_on_c, 1, 63, 44
3, 203096, Note_on_c, 1, 63, 0
3, 203460, Note_on_c, 1, 66, 62
3, 203480, Note_on_c, 1, 63, 41
3, 203480, Note_on_c, 1, 61, 43
3, 203488, Note_on_c, 1, 66, 0
3, 203512, Note_on_c, 1, 61, 0
3, 203512, Note_on_c, 1, 63, 0
3, 203768, Note_on_c, 1, 66, 60
3, 203784, Note_on_c, 1, 63, 50
3, 203792, Note_on_c, 1, 61, 46
3, 203796, Note_on_c, 1, 57, 37
3, 203832, Note_on_c, 1, 57, 0
3, 203836, Note_on_c, 1, 66, 0
3, 203916, Note_on_c, 1, 63, 0
3, 203936, Note_on_c, 1, 61, 0
3, 204200, Note_on_c, 1, 62, 49
3, 204200, Note_on_c, 1, 65, 49
3, 204212, Note_on_c, 1, 60, 49
3, 204236, Note_on_c, 1, 65, 0
3, 204320, Note_on_c, 1, 60, 0
3, 204332, Note_on_c, 1, 62, 0
3, 204560, Note_on_c, 1, 62, 49
3, 204560, Note_on_c, 1, 60, 52
3, 204588, Note_on_c, 1, 62, 0
3, 204592, Note_on_c, 1, 60, 0
3, 204952, Note_on_c, 1, 62, 46
3, 204952, Note_on_c, 1, 58, 55
3, 204988, Note_on_c, 1, 55, 29
3, 205004, Note_on_c, 1, 62, 0
3, 205036, Note_on_c, 1, 55, 0
3, 205040, Note_on_c, 1, 58, 0
3, 205308, Note_on_c, 1, 58, 45
3, 205376, Note_on_c, 1, 58, 0
3, 205684, Note_on_c, 1, 67, 49
3, 205692, Note_on_c, 1, 63, 42
3, 205708, Note_on_c, 1, 62, 31
3, 205712, Note_on_c, 1, 67, 0
3, 205724, Note_on_c, 1, 63, 0
3, 205744, Note_on_c, 1, 62, 0
3, 206056, Note_on_c, 1, 67, 72
3, 206064, Note_on_c, 1, 62, 57
3, 206064, Note_on_c, 1, 63, 54
3, 206064, Note_on_c, 1, 58, 49
3, 206080, Note_on_c, 1, 67, 0
3, 206092, Note_on_c, 1, 62, 0
3, 206092, Note_on_c, 1, 58, 0
3, 206096, Note_on_c, 1, 63, 0
3, 206428, Note_on_c, 1, 66, 82
3, 206436, Note_on_c, 1, 61, 60
3, 206440, Note_on_c, 1, 63, 63
3, 206440, Note_on_c, 1, 57, 63
3, 207028, Note_on_c, 1, 66, 0
3, 207056, Note_on_c, 1, 57, 0
3, 207172, Note_on_c, 1, 61, 0
3, 207176, Note_on_c, 1, 63, 0
3, 207224, Note_on_c, 1, 65, 71
3, 207228, Note_on_c, 1, 62, 60
3, 207232, Note_on_c, 1, 60, 52
3, 207248, Note_on_c, 1, 55, 46
3, 207496, Note_on_c, 1, 65, 0
3, 207516, Note_on_c, 1, 62, 0
3, 207532, Note_on_c, 1, 60, 0
3, 207612, Note_on_c, 1, 65, 71
3, 207612, Note_on_c, 1, 60, 57
3, 207612, Note_on_c, 1, 62, 60
3, 207808, Note_on_c, 1, 58, 1
3, 207828, Note_on_c, 1, 62, 0
3, 207832, Note_on_c, 1, 55, 0
3, 207884, Note_on_c, 1, 65, 0
3, 207904, Note_on_c, 1, 58, 0
3, 207932, Note_on_c, 1, 60, 0
3, 208000, Note_on_c, 1, 56, 60
3, 208000, Note_on_c, 1, 67, 71
3, 208008, Note_on_c, 1, 60, 50
3, 208008, Note_on_c, 1, 63, 60
3, 208248, Note_on_c, 1, 67, 0
3, 208332, Note_on_c, 1, 63, 0
3, 208372, Note_on_c, 1, 56, 0
3, 208412, Note_on_c, 1, 60, 0
3, 208512, Note_on_c, 1, 66, 58
3, 208516, Note_on_c, 1, 62, 16
3, 208524, Note_on_c, 1, 56, 49
3, 208720, Note_on_c, 1, 66, 0
3, 208752, Note_on_c, 1, 62, 0
3, 208788, Note_on_c, 1, 56, 0
3, 208788, Note_on_c, 1, 65, 66
3, 208796, Note_on_c, 1, 62, 31
3, 208804, Note_on_c, 1, 55, 56
3, 208804, Note_on_c, 1, 60, 35
3, 208984, Note_on_c, 1, 65, 0
3, 209040, Note_on_c, 1, 62, 0
3, 209052, Note_on_c, 1, 60, 0
3, 209160, Note_on_c, 1, 65, 50
3, 209160, Note_on_c, 1, 60, 34
3, 209160, Note_on_c, 1, 62, 48
3, 209184, Note_on_c, 1, 65, 0
3, 209196, Note_on_c, 1, 58, 19
3, 209200, Note_on_c, 1, 62, 0
3, 209204, Note_on_c, 1, 60, 0
3, 209332, Note_on_c, 1, 55, 0
3, 209424, Note_on_c, 1, 58, 0
3, 209540, Note_on_c, 1, 54, 52
3, 209544, Note_on_c, 1, 65, 49
3, 209548, Note_on_c, 1, 58, 42
3, 209556, Note_on_c, 1, 60, 50
3, 209780, Note_on_c, 1, 60, 0
3, 209816, Note_on_c, 1, 58, 0
3, 209896, Note_on_c, 1, 65, 0
3, 209908, Note_on_c, 1, 58, 37
3, 209916, Note_on_c, 1, 60, 51
3, 209988, Note_on_c, 1, 60, 0
3, 209996, Note_on_c, 1, 58, 0
3, 210020, Note_on_c, 1, 54, 0
3, 210328, Note_on_c, 1, 60, 57
3, 210356, Note_on_c, 1, 60, 0
3, 210356, Note_on_c, 1, 57, 43
3, 210360, Note_on_c, 1, 53, 39
3, 210396, Note_on_c, 1, 53, 0
3, 210420, Note_on_c, 1, 57, 0
3, 210764, Note_on_c, 1, 59, 48
3, 210828, Note_on_c, 1, 59, 0
3, 211088, Note_on_c, 1, 57, 46
3, 211092, Note_on_c, 1, 63, 39
3, 211132, Note_on_c, 1, 57, 0
3, 211148, Note_on_c, 1, 63, 0
3, 211420, Note_on_c, 1, 66, 64
3, 211460, Note_on_c, 1, 57, 35
3, 211468, Note_on_c, 1, 63, 38
3, 211476, Note_on_c, 1, 66, 0
3, 211500, Note_on_c, 1, 57, 0
3, 211508, Note_on_c, 1, 63, 0
3, 211832, Note_on_c, 1, 62, 45
3, 211836, Note_on_c, 1, 65, 31
3, 211844, Note_on_c, 1, 60, 36
3, 211868, Note_on_c, 1, 65, 0
3, 211872, Note_on_c, 1, 62, 0
3, 211880, Note_on_c, 1, 60, 0
3, 212208, Note_on_c, 1, 65, 36
3, 212208, Note_on_c, 1, 62, 48
3, 212244, Note_on_c, 1, 62, 0
3, 212244, Note_on_c, 1, 65, 0
3, 212600, Note_on_c, 1, 63, 48
3, 212624, Note_on_c, 1, 63, 0
3, 212980, Note_on_c, 1, 63, 49
3, 212980, Note_on_c, 1, 65, 45
3, 212992, Note_on_c, 1, 57, 41
3, 213016, Note_on_c, 1, 65, 0
3, 213028, Note_on_c, 1, 57, 0
3, 213060, Note_on_c, 1, 63, 0
3, 213364, Note_on_c, 1, 62, 55
3, 213364, Note_on_c, 1, 65, 49
3, 213372, Note_on_c, 1, 60, 49
3, 213548, Note_on_c, 1, 62, 0
3, 213572, Note_on_c, 1, 65, 0
3, 213636, Note_on_c, 1, 60, 0
3, 213764, Note_on_c, 1, 62, 39
3, 213788, Note_on_c, 1, 60, 28
3, 213832, Note_on_c, 1, 62, 0
3, 213856, Note_on_c, 1, 60, 0
3, 214188, Note_on_c, 1, 62, 39
3, 214220, Note_on_c, 1, 62, 0
3, 214628, Note_on_c, 1, 63, 23
3, 214696, Note_on_c, 1, 63, 0
3, 214988, Note_on_c, 1, 63, 29
3, 215032, Note_on_c, 1, 63, 0
3, 215672, Note_on_c, 1, 66, 79
3, 215688, Note_on_c, 1, 63, 48
3, 215688, Note_on_c, 1, 61, 49
3, 215720, Note_on_c, 1, 61, 0
3, 215720, Note_on_c, 1, 63, 0
3, 215724, Note_on_c, 1, 66, 0
3, 216136, Note_on_c, 1, 66, 52
3, 216164, Note_on_c, 1, 61, 35
3, 216172, Note_on_c, 1, 66, 0
3, 216176, Note_on_c, 1, 63, 33
3, 216260, Note_on_c, 1, 63, 0
3, 216312, Note_on_c, 1, 61, 0
3, 216460, Note_on_c, 1, 62, 63
3, 216464, Note_on_c, 1, 65, 66
3, 216464, Note_on_c, 1, 60, 59
3, 216488, Note_on_c, 1, 65, 0
3, 216552, Note_on_c, 1, 62, 0
3, 216556, Note_on_c, 1, 60, 0
3, 216836, Note_on_c, 1, 65, 43
3, 216840, Note_on_c, 1, 62, 51
3, 216844, Note_on_c, 1, 60, 50
3, 216864, Note_on_c, 1, 65, 0
3, 216880, Note_on_c, 1, 62, 0
3, 216952, Note_on_c, 1, 60, 0
3, 217188, Note_on_c, 1, 60, 58
3, 217208, Note_on_c, 1, 62, 32
3, 217224, Note_on_c, 1, 60, 0
3, 217244, Note_on_c, 1, 62, 0
3, 217588, Note_on_c, 1, 58, 57
3, 217588, Note_on_c, 1, 62, 54
3, 217600, Note_on_c, 1, 55, 41
3, 217612, Note_on_c, 1, 62, 0
3, 217636, Note_on_c, 1, 55, 0
3, 217660, Note_on_c, 1, 58, 0
3, 217952, Note_on_c, 1, 63, 52
3, 217956, Note_on_c, 1, 67, 42
3, 217964, Note_on_c, 1, 60, 49
3, 217988, Note_on_c, 1, 67, 0
3, 217992, Note_on_c, 1, 60, 0
3, 218028, Note_on_c, 1, 63, 0
3, 218340, Note_on_c, 1, 67, 54
3, 218340, Note_on_c, 1, 58, 48
3, 218348, Note_on_c, 1, 63, 52
3, 218360, Note_on_c, 1, 60, 45
3, 218396, Note_on_c, 1, 60, 0
3, 218404, Note_on_c, 1, 67, 0
3, 218552, Note_on_c, 1, 58, 0
3, 218612, Note_on_c, 1, 63, 0
3, 218732, Note_on_c, 1, 66, 63
3, 218744, Note_on_c, 1, 63, 47
3, 218756, Note_on_c, 1, 61, 46
3, 218760, Note_on_c, 1, 57, 29
3, 218796, Note_on_c, 1, 66, 0
3, 218828, Note_on_c, 1, 57, 0
3, 218940, Note_on_c, 1, 61, 0
3, 218944, Note_on_c, 1, 63, 0
3, 219116, Note_on_c, 1, 66, 63
3, 219120, Note_on_c, 1, 57, 45
3, 219124, Note_on_c, 1, 63, 52
3, 219132, Note_on_c, 1, 61, 45
3, 219160, Note_on_c, 1, 66, 0
3, 219184, Note_on_c, 1, 57, 0
3, 219236, Note_on_c, 1, 61, 0
3, 219352, Note_on_c, 1, 63, 0
3, 219492, Note_on_c, 1, 56, 50
3, 219496, Note_on_c, 1, 63, 51
3, 219504, Note_on_c, 1, 67, 39
3, 219532, Note_on_c, 1, 60, 29
3, 219540, Note_on_c, 1, 67, 0
3, 219560, Note_on_c, 1, 56, 0
3, 219568, Note_on_c, 1, 60, 0
3, 219576, Note_on_c, 1, 63, 0
3, 219624, Note_on_c, 1, 56, 45
3, 219628, Note_on_c, 1, 67, 48
3, 219636, Note_on_c, 1, 63, 43
3, 219640, Note_on_c, 1, 60, 48
3, 219800, Note_on_c, 1, 67, 0
3, 219816, Note_on_c, 1, 60, 0
3, 219824, Note_on_c, 1, 56, 0
3, 219832, Note_on_c, 1, 63, 0
3, 219888, Note_on_c, 1, 63, 57
3, 219892, Note_on_c, 1, 56, 52
3, 219892, Note_on_c, 1, 67, 56
3, 219904, Note_on_c, 1, 60, 42
3, 219924, Note_on_c, 1, 67, 0
3, 219936, Note_on_c, 1, 60, 0
3, 219960, Note_on_c, 1, 56, 0
3, 219964, Note_on_c, 1, 63, 0
3, 220008, Note_on_c, 1, 56, 35
3, 220020, Note_on_c, 1, 63, 57
3, 220028, Note_on_c, 1, 60, 52
3, 220048, Note_on_c, 1, 72, 49
3, 220084, Note_on_c, 1, 72, 0
3, 220180, Note_on_c, 1, 56, 0
3, 220228, Note_on_c, 1, 63, 0
3, 220236, Note_on_c, 1, 60, 0
3, 220292, Note_on_c, 1, 62, 68
3, 220296, Note_on_c, 1, 66, 75
3, 220296, Note_on_c, 1, 56, 56
3, 220316, Note_on_c, 1, 73, 43
3, 220428, Note_on_c, 1, 73, 0
3, 220444, Note_on_c, 1, 74, 42
3, 220564, Note_on_c, 1, 66, 0
3, 220584, Note_on_c, 1, 62, 0
3, 220700, Note_on_c, 1, 62, 49
3, 220708, Note_on_c, 1, 74, 0
3, 220728, Note_on_c, 1, 56, 0
3, 220804, Note_on_c, 1, 56, 52
3, 220808, Note_on_c, 1, 66, 66
3, 220812, Note_on_c, 1, 75, 74
3, 220964, Note_on_c, 1, 66, 0
3, 220996, Note_on_c, 1, 62, 0
3, 220996, Note_on_c, 1, 56, 0
3, 220996, Note_on_c, 1, 75, 0
3, 221068, Note_on_c, 1, 62, 51
3, 221068, Note_on_c, 1, 65, 49
3, 221084, Note_on_c, 1, 55, 45
3, 221096, Note_on_c, 1, 60, 35
3, 221144, Note_on_c, 1, 60, 0
3, 221144, Note_on_c, 1, 65, 0
3, 221172, Note_on_c, 1, 55, 0
3, 221196, Note_on_c, 1, 62, 0
3, 221404, Note_on_c, 1, 62, 63
3, 221416, Note_on_c, 1, 60, 40
3, 221428, Note_on_c, 1, 62, 0
3, 221444, Note_on_c, 1, 60, 0
3, 221800, Note_on_c, 1, 54, 72
3, 221804, Note_on_c, 1, 65, 76
3, 221812, Note_on_c, 1, 58, 50
3, 221812, Note_on_c, 1, 60, 62
3, 222124, Note_on_c, 1, 60, 0
3, 222192, Note_on_c, 1, 65, 0
3, 222208, Note_on_c, 1, 60, 47
3, 222336, Note_on_c, 1, 60, 0
3, 222340, Note_on_c, 1, 58, 0
3, 222372, Note_on_c, 1, 54, 0
3, 222564, Note_on_c, 1, 60, 49
3, 222568, Note_on_c, 1, 57, 53
3, 222580, Note_on_c, 1, 53, 43
3, 222588, Note_on_c, 1, 60, 0
3, 222600, Note_on_c, 1, 57, 0
3, 222608, Note_on_c, 1, 53, 0
3, 222952, Note_on_c, 1, 63, 79
3, 222964, Note_on_c, 1, 58, 49
3, 222968, Note_on_c, 1, 59, 56
3, 222980, Note_on_c, 1, 53, 32
3, 223184, Note_on_c, 1, 53, 0
3, 223296, Note_on_c, 1, 59, 0
3, 223316, Note_on_c, 1, 58, 0
3, 223356, Note_on_c, 1, 63, 0
3, 223432, Note_on_c, 1, 61, 37
3, 223444, Note_on_c, 1, 67, 62
3, 223456, Note_on_c, 1, 58, 47
3, 223460, Note_on_c, 1, 63, 48
3, 223484, Note_on_c, 1, 62, 39
3, 223492, Note_on_c, 1, 61, 0
3, 223640, Note_on_c, 1, 62, 0
3, 223704, Note_on_c, 1, 67, 0
3, 223768, Note_on_c, 1, 58, 0
3, 223800, Note_on_c, 1, 63, 0
3, 223836, Note_on_c, 1, 66, 69
3, 223840, Note_on_c, 1, 57, 54
3, 223860, Note_on_c, 1, 63, 56
3, 223872, Note_on_c, 1, 61, 37
3, 223968, Note_on_c, 1, 57, 0
3, 224008, Note_on_c, 1, 66, 0
3, 224068, Note_on_c, 1, 63, 0
3, 224072, Note_on_c, 1, 61, 0
3, 224112, Note_on_c, 1, 62, 58
3, 224116, Note_on_c, 1, 65, 61
3, 224132, Note_on_c, 1, 60, 45
3, 224144, Note_on_c, 1, 55, 43
3, 224408, Note_on_c, 1, 62, 0
3, 224480, Note_on_c, 1, 62, 49
3, 224500, Note_on_c, 1, 65, 0
3, 224632, Note_on_c, 1, 62, 0
3, 224668, Note_on_c, 1, 60, 0
3, 224744, Note_on_c, 1, 55, 0
3, 225272, Note_on_c, 1, 62, 39
3, 225304, Note_on_c, 1, 62, 0
3, 225624, Note_on_c, 1, 62, 67
3, 225628, Note_on_c, 1, 58, 58
3, 225644, Note_on_c, 1, 62, 0
3, 225648, Note_on_c, 1, 55, 39
3, 225672, Note_on_c, 1, 58, 0
3, 225680, Note_on_c, 1, 55, 0
3, 226024, Note_on_c, 1, 62, 52
3, 226040, Note_on_c, 1, 58, 35
3, 226048, Note_on_c, 1, 62, 0
3, 226092, Note_on_c, 1, 58, 0
3, 226412, Note_on_c, 1, 63, 36
3, 226464, Note_on_c, 1, 63, 0
3, 226796, Note_on_c, 1, 67, 46
3, 226796, Note_on_c, 1, 63, 47
3, 226800, Note_on_c, 1, 60, 43
3, 226824, Note_on_c, 1, 67, 0
3, 226836, Note_on_c, 1, 60, 0
3, 226844, Note_on_c, 1, 63, 0
3, 227220, Note_on_c, 1, 67, 39
3, 227220, Note_on_c, 1, 63, 45
3, 227244, Note_on_c, 1, 60, 31
3, 227256, Note_on_c, 1, 67, 0
3, 227284, Note_on_c, 1, 60, 0
3, 227300, Note_on_c, 1, 63, 0
3, 227584, Note_on_c, 1, 67, 50
3, 227588, Note_on_c, 1, 63, 49
3, 227608, Note_on_c, 1, 67, 0
3, 227608, Note_on_c, 1, 60, 37
3, 227652, Note_on_c, 1, 60, 0
3, 227664, Note_on_c, 1, 63, 0
3, 227952, Note_on_c, 1, 56, 59
3, 227956, Note_on_c, 1, 67, 66
3, 227972, Note_on_c, 1, 62, 50
3, 227980, Note_on_c, 1, 67, 0
3, 228272, Note_on_c, 1, 56, 0
3, 228396, Note_on_c, 1, 62, 0
3, 228432, Note_on_c, 1, 66, 57
3, 228432, Note_on_c, 1, 56, 54
3, 228452, Note_on_c, 1, 62, 12
3, 228544, Note_on_c, 1, 66, 0
3, 228640, Note_on_c, 1, 56, 0
3, 228644, Note_on_c, 1, 62, 0
3, 228720, Note_on_c, 1, 62, 57
3, 228728, Note_on_c, 1, 65, 46
3, 228732, Note_on_c, 1, 60, 55
3, 228736, Note_on_c, 1, 55, 45
3, 228988, Note_on_c, 1, 62, 0
3, 229080, Note_on_c, 1, 62, 36
3, 229116, Note_on_c, 1, 65, 0
3, 229180, Note_on_c, 1, 62, 0
3, 229196, Note_on_c, 1, 60, 0
3, 229236, Note_on_c, 1, 55, 0
3, 229492, Note_on_c, 1, 58, 55
3, 229544, Note_on_c, 1, 58, 0
3, 229888, Note_on_c, 1, 58, 43
3, 229932, Note_on_c, 1, 58, 0
3, 230280, Note_on_c, 1, 63, 54
3, 230288, Note_on_c, 1, 67, 39
3, 230288, Note_on_c, 1, 56, 34
3, 230312, Note_on_c, 1, 60, 37
3, 230324, Note_on_c, 1, 67, 0
3, 230332, Note_on_c, 1, 56, 0
3, 230352, Note_on_c, 1, 60, 0
3, 230368, Note_on_c, 1, 63, 0
3, 230668, Note_on_c, 1, 67, 46
3, 230672, Note_on_c, 1, 56, 38
3, 230672, Note_on_c, 1, 63, 48
3, 230700, Note_on_c, 1, 67, 0
3, 230852, Note_on_c, 1, 63, 0
3, 230920, Note_on_c, 1, 56, 0
3, 231060, Note_on_c, 1, 62, 45
3, 231108, Note_on_c, 1, 62, 0
3, 231164, Note_on_c, 1, 66, 61
3, 231172, Note_on_c, 1, 56, 51
3, 231172, Note_on_c, 1, 62, 23
3, 231332, Note_on_c, 1, 62, 0
3, 231348, Note_on_c, 1, 66, 0
3, 231428, Note_on_c, 1, 66, 59
3, 231432, Note_on_c, 1, 62, 26
3, 231552, Note_on_c, 1, 62, 0
3, 231676, Note_on_c, 1, 66, 0
3, 231792, Note_on_c, 1, 60, 57
3, 231800, Note_on_c, 1, 61, 42
3, 231824, Note_on_c, 1, 56, 0
3, 231848, Note_on_c, 1, 61, 0
3, 231908, Note_on_c, 1, 55, 37
3, 231912, Note_on_c, 1, 65, 57
3, 231936, Note_on_c, 1, 58, 3
3, 232044, Note_on_c, 1, 60, 0
3, 232184, Note_on_c, 1, 65, 0
3, 232192, Note_on_c, 1, 62, 47
3, 232232, Note_on_c, 1, 62, 0
3, 232360, Note_on_c, 1, 55, 0
3, 232392, Note_on_c, 1, 60, 1
3, 232456, Note_on_c, 1, 58, 0
3, 232480, Note_on_c, 1, 60, 0
3, 232564, Note_on_c, 1, 65, 56
3, 232568, Note_on_c, 1, 61, 52
3, 232576, Note_on_c, 1, 56, 47
3, 232576, Note_on_c, 1, 60, 46
3, 232768, Note_on_c, 1, 65, 0
3, 232796, Note_on_c, 1, 61, 0
3, 232848, Note_on_c, 1, 65, 53
3, 232864, Note_on_c, 1, 61, 38
3, 232920, Note_on_c, 1, 65, 0
3, 232940, Note_on_c, 1, 60, 0
3, 232968, Note_on_c, 1, 61, 0
3, 233040, Note_on_c, 1, 56, 0
3, 233084, Note_on_c, 1, 64, 52
3, 233084, Note_on_c, 1, 61, 46
3, 233088, Note_on_c, 1, 55, 49
3, 233160, Note_on_c, 1, 55, 0
3, 233172, Note_on_c, 1, 64, 0
3, 233280, Note_on_c, 1, 61, 0
3, 233340, Note_on_c, 1, 58, 46
3, 233340, Note_on_c, 1, 63, 54
3, 233352, Note_on_c, 1, 60, 52
3, 233356, Note_on_c, 1, 53, 45
3, 233824, Note_on_c, 1, 63, 0
3, 233844, Note_on_c, 1, 58, 0
3, 233856, Note_on_c, 1, 60, 0
3, 233956, Note_on_c, 1, 53, 0
3, 234104, Note_on_c, 1, 63, 81
3, 234112, Note_on_c, 1, 53, 63
3, 234112, Note_on_c, 1, 59, 66
3, 234124, Note_on_c, 1, 56, 53
3, 234648, Note_on_c, 1, 53, 0
3, 234656, Note_on_c, 1, 59, 0
3, 234684, Note_on_c, 1, 63, 0
3, 234704, Note_on_c, 1, 56, 0
3, 234880, Note_on_c, 1, 62, 62
3, 234884, Note_on_c, 1, 58, 50
3, 234908, Note_on_c, 1, 62, 0
3, 234912, Note_on_c, 1, 55, 36
3, 234924, Note_on_c, 1, 58, 0
3, 234952, Note_on_c, 1, 55, 0
3, 235256, Note_on_c, 1, 58, 49
3, 235260, Note_on_c, 1, 52, 39
3, 235264, Note_on_c, 1, 63, 30
3, 235288, Note_on_c, 1, 52, 0
3, 235300, Note_on_c, 1, 63, 0
3, 235320, Note_on_c, 1, 58, 0
3, 235652, Note_on_c, 1, 63, 31
3, 235688, Note_on_c, 1, 63, 0
3, 235756, Note_on_c, 1, 63, 47
3, 235760, Note_on_c, 1, 56, 54
3, 235760, Note_on_c, 1, 67, 63
3, 235768, Note_on_c, 1, 60, 40
3, 235864, Note_on_c, 1, 67, 0
3, 235892, Note_on_c, 1, 63, 0
3, 235904, Note_on_c, 1, 60, 0
3, 235924, Note_on_c, 1, 56, 0
3, 236116, Note_on_c, 1, 66, 66
3, 236136, Note_on_c, 1, 56, 48
3, 236136, Note_on_c, 1, 62, 47
3, 236176, Note_on_c, 1, 62, 0
3, 236212, Note_on_c, 1, 66, 0
3, 236340, Note_on_c, 1, 56, 0
3, 236512, Note_on_c, 1, 62, 46
3, 236512, Note_on_c, 1, 65, 49
3, 236524, Note_on_c, 1, 60, 44
3, 236528, Note_on_c, 1, 55, 37
3, 236676, Note_on_c, 1, 60, 0
3, 236676, Note_on_c, 1, 65, 0
3, 236684, Note_on_c, 1, 62, 0
3, 236704, Note_on_c, 1, 55, 0
3, 236892, Note_on_c, 1, 65, 51
3, 236904, Note_on_c, 1, 60, 42
3, 236928, Note_on_c, 1, 62, 24
3, 236968, Note_on_c, 1, 62, 0
3, 237000, Note_on_c, 1, 60, 0
3, 237012, Note_on_c, 1, 65, 0
3, 237288, Note_on_c, 1, 63, 51
3, 237288, Note_on_c, 1, 67, 48
3, 237292, Note_on_c, 1, 57, 47
3, 237432, Note_on_c, 1, 67, 0
3, 237476, Note_on_c, 1, 57, 0
3, 237480, Note_on_c, 1, 63, 0
3, 237552, Note_on_c, 1, 63, 56
3, 237556, Note_on_c, 1, 57, 52
3, 237572, Note_on_c, 1, 67, 31
3, 237584, Note_on_c, 1, 57, 0
3, 237604, Note_on_c, 1, 67, 0
3, 237636, Note_on_c, 1, 63, 0
3, 237964, Note_on_c, 1, 65, 49
3, 237972, Note_on_c, 1, 62, 48
3, 237992, Note_on_c, 1, 65, 0
3, 237992, Note_on_c, 1, 60, 31
3, 238004, Note_on_c, 1, 62, 0
3, 238032, Note_on_c, 1, 60, 0
3, 238316, Note_on_c, 1, 65, 39
3, 238328, Note_on_c, 1, 62, 50
3, 238348, Note_on_c, 1, 65, 0
3, 238356, Note_on_c, 1, 62, 0
3, 238716, Note_on_c, 1, 62, 63
3, 238720, Note_on_c, 1, 58, 50
3, 238744, Note_on_c, 1, 55, 34
3, 238752, Note_on_c, 1, 62, 0
3, 238788, Note_on_c, 1, 55, 0
3, 238800, Note_on_c, 1, 58, 0
3, 239104, Note_on_c, 1, 62, 46
3, 239132, Note_on_c, 1, 62, 0
3, 239132, Note_on_c, 1, 58, 24
3, 239164, Note_on_c, 1, 58, 0
3, 239476, Note_on_c, 1, 67, 58
3, 239480, Note_on_c, 1, 63, 57
3, 239480, Note_on_c, 1, 60, 54
3, 239500, Note_on_c, 1, 67, 0
3, 239508, Note_on_c, 1, 60, 0
3, 239548, Note_on_c, 1, 63, 0
3, 239872, Note_on_c, 1, 67, 54
3, 239888, Note_on_c, 1, 63, 45
3, 239888, Note_on_c, 1, 58, 38
3, 239916, Note_on_c, 1, 67, 0
3, 240064, Note_on_c, 1, 58, 0
3, 240148, Note_on_c, 1, 63, 0
3, 240284, Note_on_c, 1, 66, 68
3, 240304, Note_on_c, 1, 63, 49
3, 240316, Note_on_c, 1, 61, 45
3, 240340, Note_on_c, 1, 57, 26
3, 240540, Note_on_c, 1, 63, 0
3, 240620, Note_on_c, 1, 63, 41
3, 240652, Note_on_c, 1, 66, 0
3, 240776, Note_on_c, 1, 57, 0
3, 240824, Note_on_c, 1, 61, 0
3, 240840, Note_on_c, 1, 63, 0
3, 240964, Note_on_c, 1, 63, 41
3, 240996, Note_on_c, 1, 61, 27
3, 241052, Note_on_c, 1, 61, 0
3, 241068, Note_on_c, 1, 63, 0
3, 241288, Note_on_c, 1, 65, 51
3, 241300, Note_on_c, 1, 62, 42
3, 241312, Note_on_c, 1, 65, 0
3, 241324, Note_on_c, 1, 60, 32
3, 241340, Note_on_c, 1, 62, 0
3, 241360, Note_on_c, 1, 60, 0
3, 241800, Note_on_c, 1, 62, 46
3, 241812, Note_on_c, 1, 60, 42
3, 241832, Note_on_c, 1, 62, 0
3, 241848, Note_on_c, 1, 60, 0
3, 242172, Note_on_c, 1, 62, 63
3, 242176, Note_on_c, 1, 58, 52
3, 242184, Note_on_c, 1, 55, 41
3, 242200, Note_on_c, 1, 62, 0
3, 242216, Note_on_c, 1, 55, 0
3, 242252, Note_on_c, 1, 58, 0
3, 242556, Note_on_c, 1, 67, 50
3, 242564, Note_on_c, 1, 63, 56
3, 242588, Note_on_c, 1, 58, 26
3, 242596, Note_on_c, 1, 67, 0
3, 242632, Note_on_c, 1, 58, 0
3, 242676, Note_on_c, 1, 63, 0
3, 242940, Note_on_c, 1, 63, 52
3, 242968, Note_on_c, 1, 63, 0
3, 242968, Note_on_c, 1, 61, 30
3, 243008, Note_on_c, 1, 61, 0
3, 243312, Note_on_c, 1, 66, 61
3, 243336, Note_on_c, 1, 66, 0
3, 243348, Note_on_c, 1, 63, 37
3, 243388, Note_on_c, 1, 63, 0
3, 243700, Note_on_c, 1, 66, 58
3, 243700, Note_on_c, 1, 56, 51
3, 243724, Note_on_c, 1, 61, 36
3, 243728, Note_on_c, 1, 66, 0
3, 243740, Note_on_c, 1, 63, 27
3, 243820, Note_on_c, 1, 63, 0
3, 243824, Note_on_c, 1, 56, 0
3, 243836, Note_on_c, 1, 61, 0
3, 244108, Note_on_c, 1, 63, 39
3, 244140, Note_on_c, 1, 63, 0
3, 244472, Note_on_c, 1, 58, 49
3, 244484, Note_on_c, 1, 63, 46
3, 244488, Note_on_c, 1, 60, 48
3, 244488, Note_on_c, 1, 68, 41
3, 244536, Note_on_c, 1, 68, 0
3, 244568, Note_on_c, 1, 60, 0
3, 244600, Note_on_c, 1, 68, 52
3, 244620, Note_on_c, 1, 60, 15
3, 244744, Note_on_c, 1, 68, 0
3, 244772, Note_on_c, 1, 60, 0
3, 244772, Note_on_c, 1, 58, 0
3, 244844, Note_on_c, 1, 63, 0
3, 244864, Note_on_c, 1, 56, 67
3, 244868, Note_on_c, 1, 67, 68
3, 244888, Note_on_c, 1, 62, 50
3, 245020, Note_on_c, 1, 67, 0
3, 245044, Note_on_c, 1, 56, 0
3, 245056, Note_on_c, 1, 62, 0
3, 245092, Note_on_c, 1, 56, 43
3, 245108, Note_on_c, 1, 67, 52
3, 245136, Note_on_c, 1, 62, 49
3, 245244, Note_on_c, 1, 67, 0
3, 245292, Note_on_c, 1, 56, 0
3, 245344, Note_on_c, 1, 62, 0
3, 245368, Note_on_c, 1, 56, 55
3, 245376, Note_on_c, 1, 66, 68
3, 245380, Note_on_c, 1, 62, 27
3, 245532, Note_on_c, 1, 66, 0
3, 245564, Note_on_c, 1, 56, 0
3, 245588, Note_on_c, 1, 62, 0
3, 245628, Note_on_c, 1, 62, 50
3, 245636, Note_on_c, 1, 65, 68
3, 245644, Note_on_c, 1, 60, 57
3, 245664, Note_on_c, 1, 55, 42
3, 245696, Note_on_c, 1, 65, 0
3, 245704, Note_on_c, 1, 55, 0
3, 245744, Note_on_c, 1, 60, 0
3, 245780, Note_on_c, 1, 62, 0
3, 245884, Note_on_c, 1, 65, 55
3, 245888, Note_on_c, 1, 62, 48
3, 245896, Note_on_c, 1, 55, 44
3, 245896, Note_on_c, 1, 60, 50
3, 245960, Note_on_c, 1, 65, 0
3, 246004, Note_on_c, 1, 55, 0
3, 246024, Note_on_c, 1, 62, 0
3, 246028, Note_on_c, 1, 60, 0
3, 246156, Note_on_c, 1, 55, 34
3, 246156, Note_on_c, 1, 65, 33
3, 246176, Note_on_c, 1, 58, 32
3, 246192, Note_on_c, 1, 65, 0
3, 246216, Note_on_c, 1, 58, 0
3, 246220, Note_on_c, 1, 55, 0
3, 246772, Note_on_c, 1, 60, 63
3, 246776, Note_on_c, 1, 57, 57
3, 246784, Note_on_c, 1, 53, 46
3, 246796, Note_on_c, 1, 60, 0
3, 246812, Note_on_c, 1, 53, 0
3, 246820, Note_on_c, 1, 57, 0
3, 247160, Note_on_c, 1, 60, 73
3, 247176, Note_on_c, 1, 64, 46
3, 247188, Note_on_c, 1, 53, 30
3, 247204, Note_on_c, 1, 64, 0
3, 247204, Note_on_c, 1, 60, 0
3, 247220, Note_on_c, 1, 53, 0
3, 247280, Note_on_c, 1, 60, 57
3, 247284, Note_on_c, 1, 53, 48
3, 247296, Note_on_c, 1, 57, 53
3, 247356, Note_on_c, 1, 60, 0
3, 247364, Note_on_c, 1, 57, 0
3, 247392, Note_on_c, 1, 53, 0
3, 247652, Note_on_c, 1, 63, 66
3, 247680, Note_on_c, 1, 59, 40
3, 247680, Note_on_c, 1, 56, 30
3, 247708, Note_on_c, 1, 59, 0
3, 247724, Note_on_c, 1, 56, 0
3, 247740, Note_on_c, 1, 63, 0
3, 248032, Note_on_c, 1, 57, 57
3, 248032, Note_on_c, 1, 67, 45
3, 248032, Note_on_c, 1, 63, 48
3, 248072, Note_on_c, 1, 61, 25
3, 248076, Note_on_c, 1, 67, 0
3, 248116, Note_on_c, 1, 61, 0
3, 248140, Note_on_c, 1, 57, 0
3, 248152, Note_on_c, 1, 63, 0
3, 248272, Note_on_c, 1, 63, 44
3, 248284, Note_on_c, 1, 61, 39
3, 248312, Note_on_c, 1, 63, 0
3, 248320, Note_on_c, 1, 61, 0
3, 248396, Note_on_c, 1, 63, 43
3, 248400, Note_on_c, 1, 66, 60
3, 248432, Note_on_c, 1, 61, 19
3, 248448, Note_on_c, 1, 66, 0
3, 248536, Note_on_c, 1, 63, 0
3, 248540, Note_on_c, 1, 61, 0
3, 248684, Note_on_c, 1, 62, 51
3, 248684, Note_on_c, 1, 65, 58
3, 248692, Note_on_c, 1, 60, 54
3, 248724, Note_on_c, 1, 65, 0
3, 248782, Note_on_c, 1, 62, 0
3, 248788, Note_on_c, 1, 60, 0
3, 248788, End_track
4, 0, Start_track
4, 0, Title_t, "Track 3"
4, 388, Control_c, 2, 0, 0
4, 388, Control_c, 2, 32, 1
4, 388, Program_c, 2, 17
4, 389, Control_c, 2, 7, 112
4, 389, Control_c, 2, 10, 64
4, 389, Control_c, 2, 91, 24
4, 389, Control_c, 2, 93, 0
4, 389, End_track
5, 0, Start_track
5, 0, Title_t, "Track 4"
5, 390, Control_c, 3, 0, 1
5, 390, Program_c, 3, 16
5, 391, Control_c, 3, 7, 49
5, 391, Control_c, 3, 10, 64
5, 391, Control_c, 3, 91, 24
5, 391, Control_c, 3, 93, 0
5, 391, End_track
6, 0, Start_track
6, 0, Title_t, "Track 5"
6, 0, End_track
7, 0, Start_track
7, 0, Title_t, "Track 6"
7, 394, Control_c, 5, 0, 1
7, 394, Program_c, 5, 32
7, 395, Control_c, 5, 7, 127
7, 395, Control_c, 5, 10, 64
7, 395, Control_c, 5, 91, 16
7, 395, Control_c, 5, 93, 0
7, 782, Control_c, 5, 11, 127
7, 782, Control_c, 5, 94, 0
7, 782, Control_c, 5, 101, 0
7, 783, Control_c, 5, 100, 1
7, 784, Control_c, 5, 6, 64
7, 785, Control_c, 5, 38, 0
7, 4570, Note_on_c, 5, 34, 81
7, 4954, Note_on_c, 5, 41, 80
7, 5022, Note_on_c, 5, 34, 0
7, 5338, Note_on_c, 5, 41, 0
7, 5338, Note_on_c, 5, 43, 87
7, 5550, Note_on_c, 5, 43, 0
7, 5622, Note_on_c, 5, 43, 80
7, 5722, Note_on_c, 5, 50, 73
7, 5742, Note_on_c, 5, 43, 0
7, 6106, Note_on_c, 5, 50, 0
7, 6106, Note_on_c, 5, 36, 91
7, 6490, Note_on_c, 5, 39, 88
7, 6542, Note_on_c, 5, 36, 0
7, 6838, Note_on_c, 5, 39, 0
7, 6874, Note_on_c, 5, 41, 87
7, 7074, Note_on_c, 5, 41, 0
7, 7162, Note_on_c, 5, 41, 80
7, 7258, Note_on_c, 5, 48, 73
7, 7262, Note_on_c, 5, 41, 0
7, 7642, Note_on_c, 5, 48, 0
7, 7642, Note_on_c, 5, 50, 78
7, 8026, Note_on_c, 5, 45, 77
7, 8078, Note_on_c, 5, 50, 0
7, 8406, Note_on_c, 5, 45, 0
7, 8410, Note_on_c, 5, 43, 86
7, 8770, Note_on_c, 5, 43, 0
7, 8794, Note_on_c, 5, 35, 80
7, 9170, Note_on_c, 5, 35, 0
7, 9174, Note_on_c, 5, 48, 78
7, 9562, Note_on_c, 5, 43, 77
7, 9606, Note_on_c, 5, 48, 0
7, 9946, Note_on_c, 5, 43, 0
7, 9946, Note_on_c, 5, 41, 81
7, 10330, Note_on_c, 5, 48, 80
7, 10398, Note_on_c, 5, 41, 0
7, 10714, Note_on_c, 5, 48, 0
7, 10714, Note_on_c, 5, 41, 86
7, 11078, Note_on_c, 5, 41, 0
7, 11098, Note_on_c, 5, 33, 80
7, 11482, Note_on_c, 5, 33, 0
7, 11482, Note_on_c, 5, 46, 78
7, 11866, Note_on_c, 5, 41, 77
7, 11918, Note_on_c, 5, 46, 0
7, 12250, Note_on_c, 5, 41, 0
7, 12250, Note_on_c, 5, 39, 87
7, 12450, Note_on_c, 5, 39, 0
7, 12542, Note_on_c, 5, 39, 80
7, 12634, Note_on_c, 5, 46, 73
7, 12642, Note_on_c, 5, 39, 0
7, 13014, Note_on_c, 5, 46, 0
7, 13018, Note_on_c, 5, 44, 98
7, 13306, Note_on_c, 5, 32, 91
7, 13310, Note_on_c, 5, 44, 0
7, 13398, Note_on_c, 5, 32, 0
7, 13402, Note_on_c, 5, 44, 100
7, 13778, Note_on_c, 5, 44, 0
7, 13782, Note_on_c, 5, 38, 72
7, 14074, Note_on_c, 5, 38, 0
7, 14078, Note_on_c, 5, 26, 69
7, 14102, Note_on_c, 5, 26, 0
7, 14170, Note_on_c, 5, 43, 72
7, 14458, Note_on_c, 5, 43, 0
7, 14462, Note_on_c, 5, 31, 69
7, 14486, Note_on_c, 5, 31, 0
7, 14554, Note_on_c, 5, 36, 72
7, 14842, Note_on_c, 5, 36, 0
7, 14846, Note_on_c, 5, 24, 69
7, 14870, Note_on_c, 5, 24, 0
7, 14938, Note_on_c, 5, 41, 72
7, 15222, Note_on_c, 5, 41, 0
7, 15230, Note_on_c, 5, 29, 69
7, 15254, Note_on_c, 5, 29, 0
7, 15322, Note_on_c, 5, 34, 93
7, 15706, Note_on_c, 5, 34, 0
7, 15706, Note_on_c, 5, 34, 100
7, 16090, Note_on_c, 5, 34, 0
7, 16090, Note_on_c, 5, 41, 81
7, 16474, Note_on_c, 5, 48, 80
7, 16546, Note_on_c, 5, 41, 0
7, 16858, Note_on_c, 5, 48, 0
7, 16858, Note_on_c, 5, 34, 82
7, 17070, Note_on_c, 5, 34, 0
7, 17150, Note_on_c, 5, 34, 94
7, 17238, Note_on_c, 5, 34, 0
7, 17242, Note_on_c, 5, 42, 75
7, 17622, Note_on_c, 5, 42, 0
7, 17626, Note_on_c, 5, 43, 98
7, 18006, Note_on_c, 5, 43, 0
7, 18010, Note_on_c, 5, 37, 105
7, 18390, Note_on_c, 5, 37, 0
7, 18394, Note_on_c, 5, 36, 87
7, 18594, Note_on_c, 5, 36, 0
7, 18686, Note_on_c, 5, 36, 80
7, 18774, Note_on_c, 5, 43, 73
7, 18786, Note_on_c, 5, 36, 0
7, 19162, Note_on_c, 5, 43, 0
7, 19162, Note_on_c, 5, 41, 98
7, 19450, Note_on_c, 5, 29, 91
7, 19454, Note_on_c, 5, 41, 0
7, 19546, Note_on_c, 5, 29, 0
7, 19546, Note_on_c, 5, 41, 100
7, 19930, Note_on_c, 5, 41, 0
7, 19930, Note_on_c, 5, 38, 91
7, 20314, Note_on_c, 5, 41, 88
7, 20362, Note_on_c, 5, 38, 0
7, 20662, Note_on_c, 5, 41, 0
7, 20698, Note_on_c, 5, 43, 87
7, 20902, Note_on_c, 5, 43, 0
7, 20978, Note_on_c, 5, 43, 80
7, 21082, Note_on_c, 5, 50, 73
7, 21086, Note_on_c, 5, 43, 0
7, 21466, Note_on_c, 5, 50, 0
7, 21466, Note_on_c, 5, 36, 86
7, 21830, Note_on_c, 5, 36, 0
7, 21850, Note_on_c, 5, 40, 80
7, 22230, Note_on_c, 5, 40, 0
7, 22234, Note_on_c, 5, 41, 82
7, 22446, Note_on_c, 5, 41, 0
7, 22526, Note_on_c, 5, 41, 94
7, 22614, Note_on_c, 5, 41, 0
7, 22618, Note_on_c, 5, 40, 75
7, 22994, Note_on_c, 5, 40, 0
7, 23002, Note_on_c, 5, 41, 81
7, 23382, Note_on_c, 5, 48, 80
7, 23454, Note_on_c, 5, 41, 0
7, 23770, Note_on_c, 5, 48, 0
7, 23770, Note_on_c, 5, 34, 86
7, 24142, Note_on_c, 5, 34, 0
7, 24154, Note_on_c, 5, 38, 80
7, 24538, Note_on_c, 5, 38, 0
7, 24538, Note_on_c, 5, 39, 91
7, 24922, Note_on_c, 5, 43, 88
7, 24970, Note_on_c, 5, 39, 0
7, 25270, Note_on_c, 5, 43, 0
7, 25306, Note_on_c, 5, 44, 86
7, 25670, Note_on_c, 5, 44, 0
7, 25690, Note_on_c, 5, 37, 80
7, 26074, Note_on_c, 5, 37, 0
7, 26074, Note_on_c, 5, 38, 72
7, 26362, Note_on_c, 5, 38, 0
7, 26366, Note_on_c, 5, 26, 69
7, 26382, Note_on_c, 5, 26, 0
7, 26458, Note_on_c, 5, 43, 70
7, 26842, Note_on_c, 5, 43, 0
7, 26842, Note_on_c, 5, 36, 72
7, 27130, Note_on_c, 5, 36, 0
7, 27134, Note_on_c, 5, 24, 69
7, 27158, Note_on_c, 5, 24, 0
7, 27226, Note_on_c, 5, 41, 70
7, 27606, Note_on_c, 5, 41, 0
7, 27610, Note_on_c, 5, 34, 98
7, 27990, Note_on_c, 5, 34, 0
7, 27994, Note_on_c, 5, 35, 105
7, 28370, Note_on_c, 5, 35, 0
7, 28374, Note_on_c, 5, 34, 93
7, 28762, Note_on_c, 5, 34, 0
7, 28762, Note_on_c, 5, 34, 100
7, 29146, Note_on_c, 5, 34, 0
7, 29146, Note_on_c, 5, 39, 93
7, 29530, Note_on_c, 5, 39, 0
7, 29530, Note_on_c, 5, 39, 100
7, 29914, Note_on_c, 5, 39, 0
7, 29914, Note_on_c, 5, 36, 91
7, 30298, Note_on_c, 5, 40, 88
7, 30350, Note_on_c, 5, 36, 0
7, 30646, Note_on_c, 5, 40, 0
7, 30682, Note_on_c, 5, 41, 87
7, 30882, Note_on_c, 5, 41, 0
7, 30970, Note_on_c, 5, 41, 80
7, 31066, Note_on_c, 5, 48, 73
7, 31070, Note_on_c, 5, 41, 0
7, 31450, Note_on_c, 5, 48, 0
7, 31450, Note_on_c, 5, 34, 86
7, 31742, Note_on_c, 5, 29, 62
7, 31794, Note_on_c, 5, 29, 0
7, 31814, Note_on_c, 5, 34, 0
7, 31834, Note_on_c, 5, 41, 79
7, 32118, Note_on_c, 5, 41, 0
7, 32126, Note_on_c, 5, 29, 64
7, 32174, Note_on_c, 5, 29, 0
7, 32218, Note_on_c, 5, 43, 86
7, 32510, Note_on_c, 5, 38, 62
7, 32570, Note_on_c, 5, 38, 0
7, 32578, Note_on_c, 5, 43, 0
7, 32602, Note_on_c, 5, 50, 79
7, 32886, Note_on_c, 5, 50, 0
7, 32894, Note_on_c, 5, 38, 64
7, 32942, Note_on_c, 5, 38, 0
7, 32982, Note_on_c, 5, 36, 98
7, 33274, Note_on_c, 5, 24, 91
7, 33278, Note_on_c, 5, 36, 0
7, 33370, Note_on_c, 5, 24, 0
7, 33370, Note_on_c, 5, 36, 100
7, 33754, Note_on_c, 5, 36, 0
7, 33754, Note_on_c, 5, 41, 93
7, 34138, Note_on_c, 5, 41, 0
7, 34138, Note_on_c, 5, 41, 100
7, 34522, Note_on_c, 5, 41, 0
7, 34522, Note_on_c, 5, 34, 93
7, 34906, Note_on_c, 5, 34, 0
7, 34906, Note_on_c, 5, 34, 100
7, 35290, Note_on_c, 5, 34, 0
7, 35290, Note_on_c, 5, 34, 93
7, 35674, Note_on_c, 5, 34, 0
7, 35674, Note_on_c, 5, 34, 100
7, 36058, Note_on_c, 5, 34, 0
7, 36058, Note_on_c, 5, 39, 98
7, 36442, Note_on_c, 5, 39, 0
7, 36442, Note_on_c, 5, 45, 105
7, 36822, Note_on_c, 5, 45, 0
7, 36826, Note_on_c, 5, 44, 93
7, 37206, Note_on_c, 5, 44, 0
7, 37210, Note_on_c, 5, 44, 100
7, 37590, Note_on_c, 5, 44, 0
7, 37594, Note_on_c, 5, 37, 91
7, 37974, Note_on_c, 5, 41, 88
7, 38022, Note_on_c, 5, 37, 0
7, 38330, Note_on_c, 5, 41, 0
7, 38362, Note_on_c, 5, 43, 70
7, 38746, Note_on_c, 5, 43, 0
7, 38746, Note_on_c, 5, 36, 72
7, 39030, Note_on_c, 5, 36, 0
7, 39038, Note_on_c, 5, 24, 69
7, 39062, Note_on_c, 5, 24, 0
7, 39130, Note_on_c, 5, 41, 72
7, 39414, Note_on_c, 5, 41, 0
7, 39422, Note_on_c, 5, 29, 69
7, 39446, Note_on_c, 5, 29, 0
7, 39514, Note_on_c, 5, 34, 72
7, 39798, Note_on_c, 5, 34, 0
7, 39806, Note_on_c, 5, 22, 69
7, 39830, Note_on_c, 5, 22, 0
7, 39898, Note_on_c, 5, 39, 93
7, 40282, Note_on_c, 5, 39, 0
7, 40282, Note_on_c, 5, 39, 100
7, 40666, Note_on_c, 5, 39, 0
7, 40666, Note_on_c, 5, 41, 87
7, 40866, Note_on_c, 5, 41, 0
7, 40954, Note_on_c, 5, 41, 80
7, 41050, Note_on_c, 5, 48, 73
7, 41054, Note_on_c, 5, 41, 0
7, 41430, Note_on_c, 5, 48, 0
7, 41434, Note_on_c, 5, 34, 82
7, 41646, Note_on_c, 5, 34, 0
7, 41726, Note_on_c, 5, 34, 94
7, 41814, Note_on_c, 5, 34, 0
7, 41818, Note_on_c, 5, 42, 75
7, 42198, Note_on_c, 5, 42, 0
7, 42202, Note_on_c, 5, 43, 86
7, 42494, Note_on_c, 5, 38, 62
7, 42558, Note_on_c, 5, 38, 0
7, 42570, Note_on_c, 5, 43, 0
7, 42582, Note_on_c, 5, 50, 79
7, 42870, Note_on_c, 5, 50, 0
7, 42878, Note_on_c, 5, 38, 64
7, 42926, Note_on_c, 5, 38, 0
7, 42970, Note_on_c, 5, 36, 91
7, 43354, Note_on_c, 5, 39, 88
7, 43394, Note_on_c, 5, 36, 0
7, 43702, Note_on_c, 5, 39, 0
7, 43738, Note_on_c, 5, 41, 87
7, 44022, Note_on_c, 5, 29, 64
7, 44086, Note_on_c, 5, 41, 0
7, 44122, Note_on_c, 5, 29, 0
7, 44126, Note_on_c, 5, 39, 87
7, 44506, Note_on_c, 5, 39, 0
7, 44506, Note_on_c, 5, 38, 86
7, 44790, Note_on_c, 5, 33, 62
7, 44854, Note_on_c, 5, 33, 0
7, 44878, Note_on_c, 5, 38, 0
7, 44890, Note_on_c, 5, 45, 79
7, 45170, Note_on_c, 5, 45, 0
7, 45170, Note_on_c, 5, 33, 64
7, 45230, Note_on_c, 5, 33, 0
7, 45274, Note_on_c, 5, 43, 86
7, 45638, Note_on_c, 5, 43, 0
7, 45658, Note_on_c, 5, 35, 80
7, 46042, Note_on_c, 5, 35, 0
7, 46042, Note_on_c, 5, 36, 81
7, 46426, Note_on_c, 5, 43, 80
7, 46498, Note_on_c, 5, 36, 0
7, 46806, Note_on_c, 5, 43, 0
7, 46810, Note_on_c, 5, 41, 86
7, 47102, Note_on_c, 5, 36, 62
7, 47162, Note_on_c, 5, 36, 0
7, 47170, Note_on_c, 5, 41, 0
7, 47194, Note_on_c, 5, 48, 79
7, 47478, Note_on_c, 5, 48, 0
7, 47486, Note_on_c, 5, 36, 64
7, 47534, Note_on_c, 5, 36, 0
7, 47574, Note_on_c, 5, 41, 93
7, 47962, Note_on_c, 5, 41, 0
7, 47962, Note_on_c, 5, 41, 100
7, 48346, Note_on_c, 5, 41, 0
7, 48346, Note_on_c, 5, 34, 82
7, 48566, Note_on_c, 5, 34, 0
7, 48630, Note_on_c, 5, 34, 94
7, 48726, Note_on_c, 5, 34, 0
7, 48730, Note_on_c, 5, 38, 75
7, 49114, Note_on_c, 5, 38, 0
7, 49114, Note_on_c, 5, 39, 91
7, 49498, Note_on_c, 5, 43, 88
7, 49550, Note_on_c, 5, 39, 0
7, 49846, Note_on_c, 5, 43, 0
7, 49882, Note_on_c, 5, 44, 98
7, 50170, Note_on_c, 5, 32, 91
7, 50174, Note_on_c, 5, 44, 0
7, 50266, Note_on_c, 5, 32, 0
7, 50266, Note_on_c, 5, 44, 100
7, 50646, Note_on_c, 5, 44, 0
7, 50650, Note_on_c, 5, 38, 72
7, 50938, Note_on_c, 5, 38, 0
7, 50942, Note_on_c, 5, 26, 69
7, 50966, Note_on_c, 5, 26, 0
7, 51034, Note_on_c, 5, 43, 72
7, 51322, Note_on_c, 5, 43, 0
7, 51326, Note_on_c, 5, 31, 69
7, 51350, Note_on_c, 5, 31, 0
7, 51418, Note_on_c, 5, 36, 72
7, 51706, Note_on_c, 5, 36, 0
7, 51710, Note_on_c, 5, 24, 69
7, 51734, Note_on_c, 5, 24, 0
7, 51802, Note_on_c, 5, 41, 70
7, 52178, Note_on_c, 5, 41, 0
7, 52182, Note_on_c, 5, 34, 86
7, 52558, Note_on_c, 5, 34, 0
7, 52570, Note_on_c, 5, 40, 80
7, 52954, Note_on_c, 5, 40, 0
7, 52954, Note_on_c, 5, 41, 87
7, 53162, Note_on_c, 5, 41, 0
7, 53242, Note_on_c, 5, 41, 80
7, 53338, Note_on_c, 5, 48, 73
7, 53358, Note_on_c, 5, 41, 0
7, 53722, Note_on_c, 5, 48, 0
7, 53722, Note_on_c, 5, 34, 86
7, 54006, Note_on_c, 5, 29, 62
7, 54070, Note_on_c, 5, 29, 0
7, 54094, Note_on_c, 5, 34, 0
7, 54106, Note_on_c, 5, 41, 79
7, 54390, Note_on_c, 5, 41, 0
7, 54390, Note_on_c, 5, 29, 64
7, 54446, Note_on_c, 5, 29, 0
7, 54490, Note_on_c, 5, 43, 93
7, 54874, Note_on_c, 5, 43, 0
7, 54874, Note_on_c, 5, 43, 100
7, 55258, Note_on_c, 5, 43, 0
7, 55258, Note_on_c, 5, 36, 87
7, 55458, Note_on_c, 5, 36, 0
7, 55550, Note_on_c, 5, 36, 80
7, 55642, Note_on_c, 5, 43, 73
7, 55646, Note_on_c, 5, 36, 0
7, 56022, Note_on_c, 5, 43, 0
7, 56026, Note_on_c, 5, 41, 93
7, 56406, Note_on_c, 5, 41, 0
7, 56410, Note_on_c, 5, 41, 100
7, 56790, Note_on_c, 5, 41, 0
7, 56794, Note_on_c, 5, 38, 86
7, 57086, Note_on_c, 5, 33, 62
7, 57150, Note_on_c, 5, 33, 0
7, 57162, Note_on_c, 5, 38, 0
7, 57174, Note_on_c, 5, 45, 79
7, 57462, Note_on_c, 5, 45, 0
7, 57470, Note_on_c, 5, 33, 64
7, 57518, Note_on_c, 5, 33, 0
7, 57562, Note_on_c, 5, 43, 87
7, 57770, Note_on_c, 5, 43, 0
7, 57854, Note_on_c, 5, 43, 80
7, 57946, Note_on_c, 5, 50, 73
7, 57958, Note_on_c, 5, 43, 0
7, 58330, Note_on_c, 5, 50, 0
7, 58330, Note_on_c, 5, 36, 82
7, 58550, Note_on_c, 5, 36, 0
7, 58614, Note_on_c, 5, 36, 94
7, 58710, Note_on_c, 5, 36, 0
7, 58714, Note_on_c, 5, 40, 75
7, 59098, Note_on_c, 5, 40, 0
7, 59098, Note_on_c, 5, 41, 82
7, 59318, Note_on_c, 5, 41, 0
7, 59378, Note_on_c, 5, 41, 94
7, 59478, Note_on_c, 5, 41, 0
7, 59482, Note_on_c, 5, 40, 75
7, 59866, Note_on_c, 5, 40, 0
7, 59866, Note_on_c, 5, 41, 87
7, 60066, Note_on_c, 5, 41, 0
7, 60158, Note_on_c, 5, 41, 80
7, 60250, Note_on_c, 5, 48, 73
7, 60258, Note_on_c, 5, 41, 0
7, 60630, Note_on_c, 5, 48, 0
7, 60634, Note_on_c, 5, 34, 91
7, 61018, Note_on_c, 5, 38, 88
7, 61070, Note_on_c, 5, 34, 0
7, 61370, Note_on_c, 5, 38, 0
7, 61402, Note_on_c, 5, 39, 86
7, 61694, Note_on_c, 5, 34, 62
7, 61758, Note_on_c, 5, 34, 0
7, 61770, Note_on_c, 5, 39, 0
7, 61782, Note_on_c, 5, 46, 79
7, 62070, Note_on_c, 5, 46, 0
7, 62078, Note_on_c, 5, 34, 64
7, 62126, Note_on_c, 5, 34, 0
7, 62170, Note_on_c, 5, 44, 86
7, 62542, Note_on_c, 5, 44, 0
7, 62554, Note_on_c, 5, 37, 80
7, 62938, Note_on_c, 5, 37, 0
7, 62938, Note_on_c, 5, 38, 70
7, 63322, Note_on_c, 5, 38, 0
7, 63322, Note_on_c, 5, 43, 72
7, 63606, Note_on_c, 5, 43, 0
7, 63614, Note_on_c, 5, 31, 69
7, 63638, Note_on_c, 5, 31, 0
7, 63706, Note_on_c, 5, 36, 72
7, 63990, Note_on_c, 5, 36, 0
7, 63998, Note_on_c, 5, 24, 69
7, 64022, Note_on_c, 5, 24, 0
7, 64090, Note_on_c, 5, 41, 72
7, 64370, Note_on_c, 5, 41, 0
7, 64382, Note_on_c, 5, 29, 69
7, 64406, Note_on_c, 5, 29, 0
7, 64474, Note_on_c, 5, 34, 86
7, 64838, Note_on_c, 5, 34, 0
7, 64858, Note_on_c, 5, 40, 80
7, 65242, Note_on_c, 5, 40, 0
7, 65242, Note_on_c, 5, 41, 98
7, 65530, Note_on_c, 5, 29, 91
7, 65534, Note_on_c, 5, 41, 0
7, 65622, Note_on_c, 5, 29, 0
7, 65626, Note_on_c, 5, 41, 100
7, 66006, Note_on_c, 5, 41, 0
7, 66010, Note_on_c, 5, 34, 98
7, 66298, Note_on_c, 5, 22, 91
7, 66302, Note_on_c, 5, 34, 0
7, 66390, Note_on_c, 5, 22, 0
7, 66394, Note_on_c, 5, 34, 100
7, 66770, Note_on_c, 5, 34, 0
7, 66774, Note_on_c, 5, 43, 86
7, 67150, Note_on_c, 5, 43, 0
7, 67162, Note_on_c, 5, 35, 80
7, 67546, Note_on_c, 5, 35, 0
7, 67546, Note_on_c, 5, 36, 86
7, 67910, Note_on_c, 5, 36, 0
7, 67930, Note_on_c, 5, 40, 80
7, 68314, Note_on_c, 5, 40, 0
7, 68314, Note_on_c, 5, 41, 87
7, 68598, Note_on_c, 5, 29, 64
7, 68662, Note_on_c, 5, 41, 0
7, 68698, Note_on_c, 5, 29, 0
7, 68702, Note_on_c, 5, 39, 87
7, 69082, Note_on_c, 5, 39, 0
7, 69082, Note_on_c, 5, 38, 98
7, 69466, Note_on_c, 5, 38, 0
7, 69466, Note_on_c, 5, 44, 105
7, 69850, Note_on_c, 5, 44, 0
7, 69850, Note_on_c, 5, 43, 81
7, 70234, Note_on_c, 5, 50, 80
7, 70306, Note_on_c, 5, 43, 0
7, 70614, Note_on_c, 5, 50, 0
7, 70618, Note_on_c, 5, 48, 78
7, 71002, Note_on_c, 5, 43, 77
7, 71054, Note_on_c, 5, 48, 0
7, 71378, Note_on_c, 5, 43, 0
7, 71382, Note_on_c, 5, 41, 87
7, 71678, Note_on_c, 5, 29, 64
7, 71734, Note_on_c, 5, 41, 0
7, 71770, Note_on_c, 5, 29, 0
7, 71774, Note_on_c, 5, 42, 87
7, 72154, Note_on_c, 5, 42, 0
7, 72154, Note_on_c, 5, 41, 87
7, 72362, Note_on_c, 5, 41, 0
7, 72446, Note_on_c, 5, 41, 80
7, 72538, Note_on_c, 5, 48, 73
7, 72558, Note_on_c, 5, 41, 0
7, 72922, Note_on_c, 5, 48, 0
7, 72922, Note_on_c, 5, 34, 81
7, 73306, Note_on_c, 5, 41, 80
7, 73374, Note_on_c, 5, 34, 0
7, 73690, Note_on_c, 5, 41, 0
7, 73690, Note_on_c, 5, 39, 86
7, 73970, Note_on_c, 5, 34, 62
7, 74038, Note_on_c, 5, 34, 0
7, 74062, Note_on_c, 5, 39, 0
7, 74074, Note_on_c, 5, 46, 79
7, 74362, Note_on_c, 5, 46, 0
7, 74362, Note_on_c, 5, 34, 64
7, 74414, Note_on_c, 5, 34, 0
7, 74458, Note_on_c, 5, 44, 98
7, 74746, Note_on_c, 5, 32, 91
7, 74750, Note_on_c, 5, 44, 0
7, 74842, Note_on_c, 5, 32, 0
7, 74842, Note_on_c, 5, 44, 100
7, 75222, Note_on_c, 5, 44, 0
7, 75226, Note_on_c, 5, 38, 70
7, 75606, Note_on_c, 5, 38, 0
7, 75610, Note_on_c, 5, 43, 70
7, 75990, Note_on_c, 5, 43, 0
7, 75994, Note_on_c, 5, 36, 70
7, 76370, Note_on_c, 5, 36, 0
7, 76374, Note_on_c, 5, 41, 72
7, 76666, Note_on_c, 5, 41, 0
7, 76670, Note_on_c, 5, 29, 69
7, 76694, Note_on_c, 5, 29, 0
7, 76762, Note_on_c, 5, 34, 98
7, 77146, Note_on_c, 5, 34, 0
7, 77146, Note_on_c, 5, 35, 105
7, 77530, Note_on_c, 5, 35, 0
7, 77530, Note_on_c, 5, 34, 87
7, 77742, Note_on_c, 5, 34, 0
7, 77814, Note_on_c, 5, 34, 80
7, 77914, Note_on_c, 5, 41, 73
7, 77934, Note_on_c, 5, 34, 0
7, 78298, Note_on_c, 5, 41, 0
7, 78298, Note_on_c, 5, 39, 93
7, 78682, Note_on_c, 5, 39, 0
7, 78682, Note_on_c, 5, 39, 100
7, 79066, Note_on_c, 5, 39, 0
7, 79066, Note_on_c, 5, 36, 82
7, 79278, Note_on_c, 5, 36, 0
7, 79358, Note_on_c, 5, 36, 94
7, 79446, Note_on_c, 5, 36, 0
7, 79450, Note_on_c, 5, 40, 75
7, 79826, Note_on_c, 5, 40, 0
7, 79834, Note_on_c, 5, 41, 82
7, 80046, Note_on_c, 5, 41, 0
7, 80126, Note_on_c, 5, 41, 94
7, 80214, Note_on_c, 5, 41, 0
7, 80218, Note_on_c, 5, 33, 75
7, 80598, Note_on_c, 5, 33, 0
7, 80602, Note_on_c, 5, 34, 86
7, 80970, Note_on_c, 5, 34, 0
7, 80982, Note_on_c, 5, 42, 80
7, 81370, Note_on_c, 5, 42, 0
7, 81370, Note_on_c, 5, 43, 82
7, 81582, Note_on_c, 5, 43, 0
7, 81662, Note_on_c, 5, 43, 94
7, 81750, Note_on_c, 5, 43, 0
7, 81754, Note_on_c, 5, 35, 75
7, 82138, Note_on_c, 5, 35, 0
7, 82138, Note_on_c, 5, 36, 82
7, 82358, Note_on_c, 5, 36, 0
7, 82422, Note_on_c, 5, 36, 94
7, 82518, Note_on_c, 5, 36, 0
7, 82522, Note_on_c, 5, 40, 75
7, 82906, Note_on_c, 5, 40, 0
7, 82906, Note_on_c, 5, 41, 86
7, 83190, Note_on_c, 5, 36, 62
7, 83254, Note_on_c, 5, 36, 0
7, 83278, Note_on_c, 5, 41, 0
7, 83290, Note_on_c, 5, 48, 79
7, 83570, Note_on_c, 5, 48, 0
7, 83570, Note_on_c, 5, 36, 64
7, 83630, Note_on_c, 5, 36, 0
7, 83674, Note_on_c, 5, 34, 81
7, 84058, Note_on_c, 5, 41, 80
7, 84130, Note_on_c, 5, 34, 0
7, 84442, Note_on_c, 5, 41, 0
7, 84442, Note_on_c, 5, 34, 82
7, 84654, Note_on_c, 5, 34, 0
7, 84734, Note_on_c, 5, 34, 94
7, 84822, Note_on_c, 5, 34, 0
7, 84826, Note_on_c, 5, 38, 75
7, 85206, Note_on_c, 5, 38, 0
7, 85210, Note_on_c, 5, 39, 98
7, 85498, Note_on_c, 5, 27, 91
7, 85502, Note_on_c, 5, 39, 0
7, 85590, Note_on_c, 5, 27, 0
7, 85594, Note_on_c, 5, 39, 100
7, 85970, Note_on_c, 5, 39, 0
7, 85974, Note_on_c, 5, 44, 87
7, 86178, Note_on_c, 5, 44, 0
7, 86270, Note_on_c, 5, 44, 80
7, 86362, Note_on_c, 5, 51, 73
7, 86366, Note_on_c, 5, 44, 0
7, 86746, Note_on_c, 5, 51, 0
7, 86746, Note_on_c, 5, 37, 86
7, 87110, Note_on_c, 5, 37, 0
7, 87130, Note_on_c, 5, 42, 80
7, 87514, Note_on_c, 5, 42, 0
7, 87514, Note_on_c, 5, 43, 70
7, 87898, Note_on_c, 5, 43, 0
7, 87898, Note_on_c, 5, 36, 70
7, 88282, Note_on_c, 5, 36, 0
7, 88282, Note_on_c, 5, 41, 70
7, 88666, Note_on_c, 5, 41, 0
7, 88666, Note_on_c, 5, 34, 72
7, 88954, Note_on_c, 5, 34, 0
7, 88958, Note_on_c, 5, 22, 69
7, 88974, Note_on_c, 5, 22, 0
7, 89050, Note_on_c, 5, 39, 87
7, 89250, Note_on_c, 5, 39, 0
7, 89342, Note_on_c, 5, 39, 80
7, 89434, Note_on_c, 5, 46, 73
7, 89438, Note_on_c, 5, 39, 0
7, 89814, Note_on_c, 5, 46, 0
7, 89818, Note_on_c, 5, 41, 98
7, 90106, Note_on_c, 5, 29, 91
7, 90110, Note_on_c, 5, 41, 0
7, 90194, Note_on_c, 5, 29, 0
7, 90202, Note_on_c, 5, 41, 100
7, 90578, Note_on_c, 5, 41, 0
7, 90582, Note_on_c, 5, 34, 81
7, 90970, Note_on_c, 5, 41, 80
7, 91038, Note_on_c, 5, 34, 0
7, 91354, Note_on_c, 5, 41, 0
7, 91354, Note_on_c, 5, 43, 86
7, 91718, Note_on_c, 5, 43, 0
7, 91738, Note_on_c, 5, 35, 80
7, 92122, Note_on_c, 5, 35, 0
7, 92122, Note_on_c, 5, 36, 86
7, 92406, Note_on_c, 5, 31, 62
7, 92470, Note_on_c, 5, 31, 0
7, 92494, Note_on_c, 5, 36, 0
7, 92506, Note_on_c, 5, 43, 79
7, 92790, Note_on_c, 5, 43, 0
7, 92790, Note_on_c, 5, 31, 64
7, 92846, Note_on_c, 5, 31, 0
7, 92890, Note_on_c, 5, 41, 81
7, 93274, Note_on_c, 5, 48, 80
7, 93346, Note_on_c, 5, 41, 0
7, 93658, Note_on_c, 5, 48, 0
7, 93658, Note_on_c, 5, 38, 98
7, 94042, Note_on_c, 5, 38, 0
7, 94042, Note_on_c, 5, 44, 105
7, 94422, Note_on_c, 5, 44, 0
7, 94426, Note_on_c, 5, 43, 86
7, 94718, Note_on_c, 5, 38, 62
7, 94770, Note_on_c, 5, 38, 0
7, 94790, Note_on_c, 5, 43, 0
7, 94810, Note_on_c, 5, 50, 79
7, 95094, Note_on_c, 5, 50, 0
7, 95102, Note_on_c, 5, 38, 64
7, 95150, Note_on_c, 5, 38, 0
7, 95194, Note_on_c, 5, 36, 81
7, 95574, Note_on_c, 5, 43, 80
7, 95646, Note_on_c, 5, 36, 0
7, 95962, Note_on_c, 5, 43, 0
7, 95962, Note_on_c, 5, 41, 87
7, 96170, Note_on_c, 5, 41, 0
7, 96254, Note_on_c, 5, 41, 80
7, 96346, Note_on_c, 5, 48, 73
7, 96358, Note_on_c, 5, 41, 0
7, 96730, Note_on_c, 5, 48, 0
7, 96730, Note_on_c, 5, 41, 98
7, 97014, Note_on_c, 5, 29, 91
7, 97022, Note_on_c, 5, 41, 0
7, 97114, Note_on_c, 5, 29, 0
7, 97114, Note_on_c, 5, 41, 100
7, 97494, Note_on_c, 5, 41, 0
7, 97498, Note_on_c, 5, 34, 86
7, 97862, Note_on_c, 5, 34, 0
7, 97882, Note_on_c, 5, 38, 80
7, 98266, Note_on_c, 5, 38, 0
7, 98266, Note_on_c, 5, 39, 86
7, 98630, Note_on_c, 5, 39, 0
7, 98650, Note_on_c, 5, 43, 80
7, 99030, Note_on_c, 5, 43, 0
7, 99034, Note_on_c, 5, 44, 87
7, 99234, Note_on_c, 5, 44, 0
7, 99326, Note_on_c, 5, 44, 80
7, 99418, Note_on_c, 5, 51, 73
7, 99422, Note_on_c, 5, 44, 0
7, 99798, Note_on_c, 5, 51, 0
7, 99802, Note_on_c, 5, 38, 70
7, 100178, Note_on_c, 5, 38, 0
7, 100182, Note_on_c, 5, 43, 72
7, 100474, Note_on_c, 5, 43, 0
7, 100478, Note_on_c, 5, 31, 69
7, 100502, Note_on_c, 5, 31, 0
7, 100570, Note_on_c, 5, 36, 70
7, 100954, Note_on_c, 5, 36, 0
7, 100954, Note_on_c, 5, 41, 72
7, 101242, Note_on_c, 5, 41, 0
7, 101246, Note_on_c, 5, 29, 69
7, 101270, Note_on_c, 5, 29, 0
7, 101338, Note_on_c, 5, 34, 82
7, 101558, Note_on_c, 5, 34, 0
7, 101622, Note_on_c, 5, 34, 94
7, 101718, Note_on_c, 5, 34, 0
7, 101722, Note_on_c, 5, 40, 75
7, 102106, Note_on_c, 5, 40, 0
7, 102106, Note_on_c, 5, 41, 86
7, 102466, Note_on_c, 5, 41, 0
7, 102490, Note_on_c, 5, 33, 80
7, 102874, Note_on_c, 5, 33, 0
7, 102874, Note_on_c, 5, 34, 82
7, 103094, Note_on_c, 5, 34, 0
7, 103162, Note_on_c, 5, 34, 94
7, 103254, Note_on_c, 5, 34, 0
7, 103258, Note_on_c, 5, 42, 75
7, 103642, Note_on_c, 5, 42, 0
7, 103642, Note_on_c, 5, 43, 81
7, 104026, Note_on_c, 5, 50, 80
7, 104098, Note_on_c, 5, 43, 0
7, 104406, Note_on_c, 5, 50, 0
7, 104410, Note_on_c, 5, 36, 87
7, 104610, Note_on_c, 5, 36, 0
7, 104702, Note_on_c, 5, 36, 80
7, 104794, Note_on_c, 5, 43, 73
7, 104798, Note_on_c, 5, 36, 0
7, 105170, Note_on_c, 5, 43, 0
7, 105174, Note_on_c, 5, 41, 98
7, 105466, Note_on_c, 5, 29, 91
7, 105470, Note_on_c, 5, 41, 0
7, 105562, Note_on_c, 5, 29, 0
7, 105562, Note_on_c, 5, 41, 100
7, 105946, Note_on_c, 5, 41, 0
7, 105946, Note_on_c, 5, 50, 78
7, 106330, Note_on_c, 5, 45, 77
7, 106370, Note_on_c, 5, 50, 0
7, 106714, Note_on_c, 5, 45, 0
7, 106714, Note_on_c, 5, 43, 86
7, 106998, Note_on_c, 5, 38, 62
7, 107062, Note_on_c, 5, 38, 0
7, 107086, Note_on_c, 5, 43, 0
7, 107098, Note_on_c, 5, 50, 79
7, 107378, Note_on_c, 5, 50, 0
7, 107378, Note_on_c, 5, 38, 64
7, 107438, Note_on_c, 5, 38, 0
7, 107482, Note_on_c, 5, 36, 81
7, 107866, Note_on_c, 5, 43, 80
7, 107938, Note_on_c, 5, 36, 0
7, 108250, Note_on_c, 5, 43, 0
7, 108250, Note_on_c, 5, 41, 87
7, 108450, Note_on_c, 5, 41, 0
7, 108542, Note_on_c, 5, 41, 80
7, 108634, Note_on_c, 5, 48, 73
7, 108638, Note_on_c, 5, 41, 0
7, 109014, Note_on_c, 5, 48, 0
7, 109018, Note_on_c, 5, 41, 81
7, 109402, Note_on_c, 5, 48, 80
7, 109470, Note_on_c, 5, 41, 0
7, 109778, Note_on_c, 5, 48, 0
7, 109782, Note_on_c, 5, 34, 93
7, 110170, Note_on_c, 5, 34, 0
7, 110170, Note_on_c, 5, 34, 100
7, 110554, Note_on_c, 5, 34, 0
7, 110554, Note_on_c, 5, 39, 82
7, 110766, Note_on_c, 5, 39, 0
7, 110846, Note_on_c, 5, 39, 94
7, 110934, Note_on_c, 5, 39, 0
7, 110938, Note_on_c, 5, 43, 75
7, 111322, Note_on_c, 5, 43, 0
7, 111322, Note_on_c, 5, 44, 98
7, 111706, Note_on_c, 5, 44, 0
7, 111706, Note_on_c, 5, 39, 105
7, 112090, Note_on_c, 5, 39, 0
7, 112090, Note_on_c, 5, 38, 70
7, 112474, Note_on_c, 5, 38, 0
7, 112474, Note_on_c, 5, 43, 70
7, 112858, Note_on_c, 5, 43, 0
7, 112858, Note_on_c, 5, 36, 72
7, 113146, Note_on_c, 5, 36, 0
7, 113150, Note_on_c, 5, 24, 69
7, 113166, Note_on_c, 5, 24, 0
7, 113242, Note_on_c, 5, 41, 70
7, 113622, Note_on_c, 5, 41, 0
7, 113626, Note_on_c, 5, 34, 98
7, 113914, Note_on_c, 5, 22, 91
7, 113918, Note_on_c, 5, 34, 0
7, 114006, Note_on_c, 5, 22, 0
7, 114010, Note_on_c, 5, 34, 100
7, 114390, Note_on_c, 5, 34, 0
7, 114394, Note_on_c, 5, 41, 87
7, 114594, Note_on_c, 5, 41, 0
7, 114682, Note_on_c, 5, 41, 80
7, 114774, Note_on_c, 5, 48, 73
7, 114786, Note_on_c, 5, 41, 0
7, 115162, Note_on_c, 5, 48, 0
7, 115162, Note_on_c, 5, 34, 81
7, 115546, Note_on_c, 5, 41, 80
7, 115614, Note_on_c, 5, 34, 0
7, 115930, Note_on_c, 5, 41, 0
7, 115930, Note_on_c, 5, 43, 87
7, 116214, Note_on_c, 5, 31, 64
7, 116278, Note_on_c, 5, 43, 0
7, 116314, Note_on_c, 5, 31, 0
7, 116318, Note_on_c, 5, 37, 87
7, 116698, Note_on_c, 5, 37, 0
7, 116698, Note_on_c, 5, 36, 86
7, 117062, Note_on_c, 5, 36, 0
7, 117082, Note_on_c, 5, 40, 80
7, 117466, Note_on_c, 5, 40, 0
7, 117466, Note_on_c, 5, 41, 81
7, 117850, Note_on_c, 5, 48, 80
7, 117922, Note_on_c, 5, 41, 0
7, 118230, Note_on_c, 5, 48, 0
7, 118234, Note_on_c, 5, 38, 91
7, 118618, Note_on_c, 5, 41, 88
7, 118670, Note_on_c, 5, 38, 0
7, 118970, Note_on_c, 5, 41, 0
7, 119002, Note_on_c, 5, 43, 86
7, 119370, Note_on_c, 5, 43, 0
7, 119382, Note_on_c, 5, 35, 80
7, 119770, Note_on_c, 5, 35, 0
7, 119770, Note_on_c, 5, 48, 78
7, 120154, Note_on_c, 5, 43, 77
7, 120198, Note_on_c, 5, 48, 0
7, 120538, Note_on_c, 5, 43, 0
7, 120538, Note_on_c, 5, 41, 82
7, 120758, Note_on_c, 5, 41, 0
7, 120818, Note_on_c, 5, 41, 94
7, 120918, Note_on_c, 5, 41, 0
7, 120922, Note_on_c, 5, 40, 75
7, 121306, Note_on_c, 5, 40, 0
7, 121306, Note_on_c, 5, 41, 98
7, 121586, Note_on_c, 5, 29, 91
7, 121598, Note_on_c, 5, 41, 0
7, 121690, Note_on_c, 5, 29, 0
7, 121690, Note_on_c, 5, 41, 100
7, 122070, Note_on_c, 5, 41, 0
7, 122074, Note_on_c, 5, 46, 78
7, 122458, Note_on_c, 5, 41, 77
7, 122510, Note_on_c, 5, 46, 0
7, 122842, Note_on_c, 5, 41, 0
7, 122842, Note_on_c, 5, 39, 87
7, 123134, Note_on_c, 5, 27, 64
7, 123182, Note_on_c, 5, 39, 0
7, 123226, Note_on_c, 5, 27, 0
7, 123230, Note_on_c, 5, 45, 87
7, 123606, Note_on_c, 5, 45, 0
7, 123610, Note_on_c, 5, 44, 82
7, 123822, Note_on_c, 5, 44, 0
7, 123902, Note_on_c, 5, 44, 94
7, 123982, Note_on_c, 5, 44, 0
7, 123994, Note_on_c, 5, 37, 75
7, 124370, Note_on_c, 5, 37, 0
7, 124374, Note_on_c, 5, 38, 72
7, 124666, Note_on_c, 5, 38, 0
7, 124670, Note_on_c, 5, 26, 69
7, 124694, Note_on_c, 5, 26, 0
7, 124762, Note_on_c, 5, 43, 72
7, 125050, Note_on_c, 5, 43, 0
7, 125054, Note_on_c, 5, 31, 69
7, 125078, Note_on_c, 5, 31, 0
7, 125146, Note_on_c, 5, 36, 72
7, 125430, Note_on_c, 5, 36, 0
7, 125438, Note_on_c, 5, 24, 69
7, 125462, Note_on_c, 5, 24, 0
7, 125530, Note_on_c, 5, 41, 72
7, 125814, Note_on_c, 5, 41, 0
7, 125822, Note_on_c, 5, 29, 69
7, 125846, Note_on_c, 5, 29, 0
7, 125914, Note_on_c, 5, 34, 86
7, 126278, Note_on_c, 5, 34, 0
7, 126298, Note_on_c, 5, 33, 80
7, 126682, Note_on_c, 5, 33, 0
7, 126682, Note_on_c, 5, 34, 87
7, 126970, Note_on_c, 5, 22, 64
7, 127030, Note_on_c, 5, 34, 0
7, 127066, Note_on_c, 5, 22, 0
7, 127070, Note_on_c, 5, 40, 87
7, 127450, Note_on_c, 5, 40, 0
7, 127450, Note_on_c, 5, 39, 81
7, 127834, Note_on_c, 5, 46, 80
7, 127906, Note_on_c, 5, 39, 0
7, 128214, Note_on_c, 5, 46, 0
7, 128218, Note_on_c, 5, 36, 86
7, 128510, Note_on_c, 5, 32, 62
7, 128570, Note_on_c, 5, 32, 0
7, 128578, Note_on_c, 5, 36, 0
7, 128602, Note_on_c, 5, 44, 79
7, 128886, Note_on_c, 5, 44, 0
7, 128894, Note_on_c, 5, 32, 64
7, 128942, Note_on_c, 5, 32, 0
7, 128982, Note_on_c, 5, 41, 87
7, 129186, Note_on_c, 5, 41, 0
7, 129278, Note_on_c, 5, 41, 80
7, 129370, Note_on_c, 5, 48, 73
7, 129374, Note_on_c, 5, 41, 0
7, 129754, Note_on_c, 5, 48, 0
7, 129754, Note_on_c, 5, 34, 87
7, 129962, Note_on_c, 5, 34, 0
7, 130046, Note_on_c, 5, 34, 80
7, 130138, Note_on_c, 5, 41, 73
7, 130158, Note_on_c, 5, 34, 0
7, 130522, Note_on_c, 5, 41, 0
7, 130522, Note_on_c, 5, 43, 98
7, 130806, Note_on_c, 5, 31, 91
7, 130814, Note_on_c, 5, 43, 0
7, 130906, Note_on_c, 5, 31, 0
7, 130906, Note_on_c, 5, 43, 100
7, 131286, Note_on_c, 5, 43, 0
7, 131290, Note_on_c, 5, 36, 81
7, 131674, Note_on_c, 5, 43, 80
7, 131746, Note_on_c, 5, 36, 0
7, 132058, Note_on_c, 5, 43, 0
7, 132058, Note_on_c, 5, 41, 81
7, 132442, Note_on_c, 5, 48, 80
7, 132514, Note_on_c, 5, 41, 0
7, 132822, Note_on_c, 5, 48, 0
7, 132826, Note_on_c, 5, 34, 86
7, 133190, Note_on_c, 5, 34, 0
7, 133210, Note_on_c, 5, 33, 80
7, 133590, Note_on_c, 5, 33, 0
7, 133594, Note_on_c, 5, 34, 86
7, 133962, Note_on_c, 5, 34, 0
7, 133974, Note_on_c, 5, 38, 80
7, 134362, Note_on_c, 5, 38, 0
7, 134362, Note_on_c, 5, 39, 86
7, 134734, Note_on_c, 5, 39, 0
7, 134746, Note_on_c, 5, 43, 80
7, 135130, Note_on_c, 5, 43, 0
7, 135130, Note_on_c, 5, 44, 81
7, 135514, Note_on_c, 5, 51, 80
7, 135582, Note_on_c, 5, 44, 0
7, 135898, Note_on_c, 5, 51, 0
7, 135898, Note_on_c, 5, 37, 91
7, 136282, Note_on_c, 5, 41, 88
7, 136334, Note_on_c, 5, 37, 0
7, 136630, Note_on_c, 5, 41, 0
7, 136666, Note_on_c, 5, 43, 72
7, 136954, Note_on_c, 5, 43, 0
7, 136958, Note_on_c, 5, 31, 69
7, 136974, Note_on_c, 5, 31, 0
7, 137050, Note_on_c, 5, 36, 72
7, 137338, Note_on_c, 5, 36, 0
7, 137342, Note_on_c, 5, 24, 69
7, 137366, Note_on_c, 5, 24, 0
7, 137434, Note_on_c, 5, 41, 70
7, 137814, Note_on_c, 5, 41, 0
7, 137818, Note_on_c, 5, 34, 72
7, 138106, Note_on_c, 5, 34, 0
7, 138110, Note_on_c, 5, 22, 69
7, 138134, Note_on_c, 5, 22, 0
7, 138202, Note_on_c, 5, 39, 82
7, 138414, Note_on_c, 5, 39, 0
7, 138494, Note_on_c, 5, 39, 94
7, 138574, Note_on_c, 5, 39, 0
7, 138582, Note_on_c, 5, 40, 75
7, 138970, Note_on_c, 5, 40, 0
7, 138970, Note_on_c, 5, 41, 81
7, 139354, Note_on_c, 5, 48, 80
7, 139422, Note_on_c, 5, 41, 0
7, 139738, Note_on_c, 5, 48, 0
7, 139738, Note_on_c, 5, 34, 93
7, 140122, Note_on_c, 5, 34, 0
7, 140122, Note_on_c, 5, 34, 100
7, 140506, Note_on_c, 5, 34, 0
7, 140506, Note_on_c, 5, 43, 87
7, 140790, Note_on_c, 5, 31, 64
7, 140854, Note_on_c, 5, 43, 0
7, 140890, Note_on_c, 5, 31, 0
7, 140898, Note_on_c, 5, 37, 87
7, 141274, Note_on_c, 5, 37, 0
7, 141274, Note_on_c, 5, 36, 81
7, 141658, Note_on_c, 5, 43, 80
7, 141730, Note_on_c, 5, 36, 0
7, 142042, Note_on_c, 5, 43, 0
7, 142042, Note_on_c, 5, 41, 87
7, 142334, Note_on_c, 5, 29, 64
7, 142382, Note_on_c, 5, 41, 0
7, 142426, Note_on_c, 5, 29, 0
7, 142430, Note_on_c, 5, 39, 87
7, 142806, Note_on_c, 5, 39, 0
7, 142810, Note_on_c, 5, 38, 82
7, 143022, Note_on_c, 5, 38, 0
7, 143102, Note_on_c, 5, 38, 94
7, 143182, Note_on_c, 5, 38, 0
7, 143194, Note_on_c, 5, 42, 75
7, 143570, Note_on_c, 5, 42, 0
7, 143574, Note_on_c, 5, 43, 86
7, 143950, Note_on_c, 5, 43, 0
7, 143962, Note_on_c, 5, 35, 80
7, 144346, Note_on_c, 5, 35, 0
7, 144346, Note_on_c, 5, 36, 86
7, 144630, Note_on_c, 5, 31, 62
7, 144694, Note_on_c, 5, 31, 0
7, 144718, Note_on_c, 5, 36, 0
7, 144730, Note_on_c, 5, 43, 79
7, 145014, Note_on_c, 5, 43, 0
7, 145014, Note_on_c, 5, 31, 64
7, 145070, Note_on_c, 5, 31, 0
7, 145114, Note_on_c, 5, 41, 86
7, 145478, Note_on_c, 5, 41, 0
7, 145498, Note_on_c, 5, 40, 80
7, 145882, Note_on_c, 5, 40, 0
7, 145882, Note_on_c, 5, 41, 87
7, 146170, Note_on_c, 5, 29, 64
7, 146230, Note_on_c, 5, 41, 0
7, 146266, Note_on_c, 5, 29, 0
7, 146270, Note_on_c, 5, 35, 87
7, 146650, Note_on_c, 5, 35, 0
7, 146650, Note_on_c, 5, 34, 86
7, 147014, Note_on_c, 5, 34, 0
7, 147034, Note_on_c, 5, 38, 80
7, 147414, Note_on_c, 5, 38, 0
7, 147418, Note_on_c, 5, 39, 82
7, 147630, Note_on_c, 5, 39, 0
7, 147710, Note_on_c, 5, 39, 94
7, 147790, Note_on_c, 5, 39, 0
7, 147802, Note_on_c, 5, 43, 75
7, 148178, Note_on_c, 5, 43, 0
7, 148182, Note_on_c, 5, 44, 82
7, 148398, Note_on_c, 5, 44, 0
7, 148478, Note_on_c, 5, 44, 94
7, 148566, Note_on_c, 5, 44, 0
7, 148570, Note_on_c, 5, 37, 75
7, 148954, Note_on_c, 5, 37, 0
7, 148954, Note_on_c, 5, 38, 70
7, 149338, Note_on_c, 5, 38, 0
7, 149338, Note_on_c, 5, 43, 72
7, 149622, Note_on_c, 5, 43, 0
7, 149630, Note_on_c, 5, 31, 69
7, 149654, Note_on_c, 5, 31, 0
7, 149722, Note_on_c, 5, 36, 72
7, 150006, Note_on_c, 5, 36, 0
7, 150014, Note_on_c, 5, 24, 69
7, 150038, Note_on_c, 5, 24, 0
7, 150106, Note_on_c, 5, 41, 72
7, 150390, Note_on_c, 5, 41, 0
7, 150398, Note_on_c, 5, 29, 69
7, 150422, Note_on_c, 5, 29, 0
7, 150490, Note_on_c, 5, 34, 93
7, 150874, Note_on_c, 5, 34, 0
7, 150874, Note_on_c, 5, 34, 100
7, 151258, Note_on_c, 5, 34, 0
7, 151258, Note_on_c, 5, 41, 82
7, 151470, Note_on_c, 5, 41, 0
7, 151546, Note_on_c, 5, 41, 94
7, 151638, Note_on_c, 5, 41, 0
7, 151642, Note_on_c, 5, 33, 75
7, 152022, Note_on_c, 5, 33, 0
7, 152026, Note_on_c, 5, 34, 98
7, 152314, Note_on_c, 5, 22, 91
7, 152318, Note_on_c, 5, 34, 0
7, 152406, Note_on_c, 5, 22, 0
7, 152410, Note_on_c, 5, 34, 100
7, 152790, Note_on_c, 5, 34, 0
7, 152794, Note_on_c, 5, 43, 87
7, 152994, Note_on_c, 5, 43, 0
7, 153086, Note_on_c, 5, 43, 80
7, 153174, Note_on_c, 5, 50, 73
7, 153186, Note_on_c, 5, 43, 0
7, 153562, Note_on_c, 5, 50, 0
7, 153562, Note_on_c, 5, 36, 87
7, 153770, Note_on_c, 5, 36, 0
7, 153854, Note_on_c, 5, 36, 80
7, 153946, Note_on_c, 5, 43, 73
7, 153958, Note_on_c, 5, 36, 0
7, 154330, Note_on_c, 5, 43, 0
7, 154330, Note_on_c, 5, 41, 98
7, 154614, Note_on_c, 5, 29, 91
7, 154622, Note_on_c, 5, 41, 0
7, 154714, Note_on_c, 5, 29, 0
7, 154714, Note_on_c, 5, 41, 100
7, 155094, Note_on_c, 5, 41, 0
7, 155098, Note_on_c, 5, 38, 87
7, 155298, Note_on_c, 5, 38, 0
7, 155378, Note_on_c, 5, 38, 80
7, 155482, Note_on_c, 5, 45, 73
7, 155490, Note_on_c, 5, 38, 0
7, 155866, Note_on_c, 5, 45, 0
7, 155866, Note_on_c, 5, 43, 98
7, 156154, Note_on_c, 5, 31, 91
7, 156158, Note_on_c, 5, 43, 0
7, 156250, Note_on_c, 5, 31, 0
7, 156250, Note_on_c, 5, 43, 100
7, 156630, Note_on_c, 5, 43, 0
7, 156634, Note_on_c, 5, 36, 93
7, 157014, Note_on_c, 5, 36, 0
7, 157018, Note_on_c, 5, 36, 100
7, 157398, Note_on_c, 5, 36, 0
7, 157402, Note_on_c, 5, 41, 87
7, 157602, Note_on_c, 5, 41, 0
7, 157694, Note_on_c, 5, 41, 80
7, 157782, Note_on_c, 5, 48, 73
7, 157790, Note_on_c, 5, 41, 0
7, 158170, Note_on_c, 5, 48, 0
7, 158170, Note_on_c, 5, 41, 81
7, 158554, Note_on_c, 5, 48, 80
7, 158622, Note_on_c, 5, 41, 0
7, 158938, Note_on_c, 5, 48, 0
7, 158938, Note_on_c, 5, 34, 91
7, 159322, Note_on_c, 5, 38, 88
7, 159370, Note_on_c, 5, 34, 0
7, 159670, Note_on_c, 5, 38, 0
7, 159706, Note_on_c, 5, 39, 87
7, 159906, Note_on_c, 5, 39, 0
7, 159990, Note_on_c, 5, 39, 80
7, 160090, Note_on_c, 5, 46, 73
7, 160094, Note_on_c, 5, 39, 0
7, 160474, Note_on_c, 5, 46, 0
7, 160474, Note_on_c, 5, 44, 82
7, 160694, Note_on_c, 5, 44, 0
7, 160762, Note_on_c, 5, 44, 94
7, 160854, Note_on_c, 5, 44, 0
7, 160858, Note_on_c, 5, 37, 75
7, 161242, Note_on_c, 5, 37, 0
7, 161242, Note_on_c, 5, 38, 70
7, 161622, Note_on_c, 5, 38, 0
7, 161626, Note_on_c, 5, 43, 72
7, 161914, Note_on_c, 5, 43, 0
7, 161918, Note_on_c, 5, 31, 69
7, 161942, Note_on_c, 5, 31, 0
7, 162010, Note_on_c, 5, 36, 72
7, 162298, Note_on_c, 5, 36, 0
7, 162302, Note_on_c, 5, 24, 69
7, 162326, Note_on_c, 5, 24, 0
7, 162394, Note_on_c, 5, 41, 70
7, 162770, Note_on_c, 5, 41, 0
7, 162774, Note_on_c, 5, 34, 86
7, 163150, Note_on_c, 5, 34, 0
7, 163162, Note_on_c, 5, 40, 80
7, 163546, Note_on_c, 5, 40, 0
7, 163546, Note_on_c, 5, 41, 93
7, 163930, Note_on_c, 5, 41, 0
7, 163930, Note_on_c, 5, 41, 100
7, 164314, Note_on_c, 5, 41, 0
7, 164314, Note_on_c, 5, 34, 81
7, 164698, Note_on_c, 5, 41, 80
7, 164766, Note_on_c, 5, 34, 0
7, 165082, Note_on_c, 5, 41, 0
7, 165082, Note_on_c, 5, 43, 98
7, 165370, Note_on_c, 5, 31, 91
7, 165374, Note_on_c, 5, 43, 0
7, 165466, Note_on_c, 5, 31, 0
7, 165466, Note_on_c, 5, 43, 100
7, 165846, Note_on_c, 5, 43, 0
7, 165850, Note_on_c, 5, 36, 82
7, 166062, Note_on_c, 5, 36, 0
7, 166142, Note_on_c, 5, 36, 94
7, 166230, Note_on_c, 5, 36, 0
7, 166234, Note_on_c, 5, 40, 75
7, 166614, Note_on_c, 5, 40, 0
7, 166618, Note_on_c, 5, 41, 93
7, 166998, Note_on_c, 5, 41, 0
7, 167002, Note_on_c, 5, 41, 100
7, 167378, Note_on_c, 5, 41, 0
7, 167382, Note_on_c, 5, 38, 91
7, 167770, Note_on_c, 5, 41, 88
7, 167814, Note_on_c, 5, 38, 0
7, 168118, Note_on_c, 5, 41, 0
7, 168154, Note_on_c, 5, 43, 81
7, 168538, Note_on_c, 5, 50, 80
7, 168606, Note_on_c, 5, 43, 0
7, 168922, Note_on_c, 5, 50, 0
7, 168922, Note_on_c, 5, 36, 93
7, 169306, Note_on_c, 5, 36, 0
7, 169306, Note_on_c, 5, 36, 100
7, 169690, Note_on_c, 5, 36, 0
7, 169690, Note_on_c, 5, 41, 81
7, 170074, Note_on_c, 5, 48, 80
7, 170146, Note_on_c, 5, 41, 0
7, 170458, Note_on_c, 5, 48, 0
7, 170458, Note_on_c, 5, 41, 98
7, 170746, Note_on_c, 5, 29, 91
7, 170750, Note_on_c, 5, 41, 0
7, 170842, Note_on_c, 5, 29, 0
7, 170842, Note_on_c, 5, 41, 100
7, 171222, Note_on_c, 5, 41, 0
7, 171226, Note_on_c, 5, 34, 87
7, 171426, Note_on_c, 5, 34, 0
7, 171518, Note_on_c, 5, 34, 80
7, 171610, Note_on_c, 5, 41, 73
7, 171614, Note_on_c, 5, 34, 0
7, 171990, Note_on_c, 5, 41, 0
7, 171994, Note_on_c, 5, 39, 91
7, 172374, Note_on_c, 5, 43, 88
7, 172422, Note_on_c, 5, 39, 0
7, 172734, Note_on_c, 5, 43, 0
7, 172762, Note_on_c, 5, 44, 86
7, 173134, Note_on_c, 5, 44, 0
7, 173146, Note_on_c, 5, 37, 80
7, 173530, Note_on_c, 5, 37, 0
7, 173530, Note_on_c, 5, 38, 72
7, 173814, Note_on_c, 5, 38, 0
7, 173822, Note_on_c, 5, 26, 69
7, 173846, Note_on_c, 5, 26, 0
7, 173914, Note_on_c, 5, 43, 72
7, 174198, Note_on_c, 5, 43, 0
7, 174206, Note_on_c, 5, 31, 69
7, 174230, Note_on_c, 5, 31, 0
7, 174298, Note_on_c, 5, 36, 72
7, 174578, Note_on_c, 5, 36, 0
7, 174590, Note_on_c, 5, 24, 69
7, 174614, Note_on_c, 5, 24, 0
7, 174682, Note_on_c, 5, 41, 70
7, 175066, Note_on_c, 5, 41, 0
7, 175066, Note_on_c, 5, 34, 86
7, 175430, Note_on_c, 5, 34, 0
7, 175450, Note_on_c, 5, 33, 80
7, 175830, Note_on_c, 5, 33, 0
7, 175834, Note_on_c, 5, 34, 81
7, 176218, Note_on_c, 5, 41, 80
7, 176286, Note_on_c, 5, 34, 0
7, 176598, Note_on_c, 5, 41, 0
7, 176602, Note_on_c, 5, 39, 87
7, 176802, Note_on_c, 5, 39, 0
7, 176894, Note_on_c, 5, 39, 80
7, 176982, Note_on_c, 5, 46, 73
7, 176994, Note_on_c, 5, 39, 0
7, 177370, Note_on_c, 5, 46, 0
7, 177370, Note_on_c, 5, 36, 93
7, 177754, Note_on_c, 5, 36, 0
7, 177754, Note_on_c, 5, 36, 100
7, 178138, Note_on_c, 5, 36, 0
7, 178138, Note_on_c, 5, 41, 93
7, 178522, Note_on_c, 5, 41, 0
7, 178522, Note_on_c, 5, 41, 100
7, 178906, Note_on_c, 5, 41, 0
7, 178906, Note_on_c, 5, 34, 87
7, 179106, Note_on_c, 5, 34, 0
7, 179190, Note_on_c, 5, 34, 80
7, 179290, Note_on_c, 5, 41, 73
7, 179294, Note_on_c, 5, 34, 0
7, 179674, Note_on_c, 5, 41, 0
7, 179674, Note_on_c, 5, 43, 86
7, 179962, Note_on_c, 5, 38, 62
7, 180022, Note_on_c, 5, 38, 0
7, 180046, Note_on_c, 5, 43, 0
7, 180058, Note_on_c, 5, 50, 79
7, 180346, Note_on_c, 5, 50, 0
7, 180350, Note_on_c, 5, 38, 64
7, 180398, Note_on_c, 5, 38, 0
7, 180442, Note_on_c, 5, 36, 91
7, 180826, Note_on_c, 5, 40, 88
7, 180878, Note_on_c, 5, 36, 0
7, 181170, Note_on_c, 5, 40, 0
7, 181210, Note_on_c, 5, 41, 86
7, 181570, Note_on_c, 5, 41, 0
7, 181594, Note_on_c, 5, 33, 80
7, 181970, Note_on_c, 5, 33, 0
7, 181974, Note_on_c, 5, 34, 87
7, 182178, Note_on_c, 5, 34, 0
7, 182270, Note_on_c, 5, 34, 80
7, 182362, Note_on_c, 5, 41, 73
7, 182366, Note_on_c, 5, 34, 0
7, 182746, Note_on_c, 5, 41, 0
7, 182746, Note_on_c, 5, 34, 81
7, 183130, Note_on_c, 5, 41, 80
7, 183198, Note_on_c, 5, 34, 0
7, 183514, Note_on_c, 5, 41, 0
7, 183514, Note_on_c, 5, 39, 98
7, 183798, Note_on_c, 5, 27, 91
7, 183806, Note_on_c, 5, 39, 0
7, 183898, Note_on_c, 5, 27, 0
7, 183898, Note_on_c, 5, 39, 100
7, 184274, Note_on_c, 5, 39, 0
7, 184282, Note_on_c, 5, 44, 81
7, 184666, Note_on_c, 5, 51, 80
7, 184738, Note_on_c, 5, 44, 0
7, 185050, Note_on_c, 5, 51, 0
7, 185050, Note_on_c, 5, 37, 98
7, 185338, Note_on_c, 5, 25, 91
7, 185342, Note_on_c, 5, 37, 0
7, 185430, Note_on_c, 5, 25, 0
7, 185434, Note_on_c, 5, 37, 100
7, 185814, Note_on_c, 5, 37, 0
7, 185818, Note_on_c, 5, 43, 72
7, 186106, Note_on_c, 5, 43, 0
7, 186110, Note_on_c, 5, 31, 69
7, 186134, Note_on_c, 5, 31, 0
7, 186202, Note_on_c, 5, 36, 70
7, 186578, Note_on_c, 5, 36, 0
7, 186582, Note_on_c, 5, 41, 70
7, 186970, Note_on_c, 5, 41, 0
7, 186970, Note_on_c, 5, 34, 72
7, 187258, Note_on_c, 5, 34, 0
7, 187262, Note_on_c, 5, 22, 69
7, 187286, Note_on_c, 5, 22, 0
7, 187354, Note_on_c, 5, 39, 86
7, 187646, Note_on_c, 5, 34, 62
7, 187702, Note_on_c, 5, 34, 0
7, 187726, Note_on_c, 5, 39, 0
7, 187738, Note_on_c, 5, 46, 79
7, 188022, Note_on_c, 5, 46, 0
7, 188022, Note_on_c, 5, 34, 64
7, 188078, Note_on_c, 5, 34, 0
7, 188122, Note_on_c, 5, 41, 86
7, 188482, Note_on_c, 5, 41, 0
7, 188506, Note_on_c, 5, 33, 80
7, 188890, Note_on_c, 5, 33, 0
7, 188890, Note_on_c, 5, 34, 86
7, 189170, Note_on_c, 5, 29, 62
7, 189238, Note_on_c, 5, 29, 0
7, 189262, Note_on_c, 5, 34, 0
7, 189274, Note_on_c, 5, 41, 79
7, 189562, Note_on_c, 5, 41, 0
7, 189562, Note_on_c, 5, 29, 64
7, 189614, Note_on_c, 5, 29, 0
7, 189658, Note_on_c, 5, 43, 98
7, 189946, Note_on_c, 5, 31, 91
7, 189950, Note_on_c, 5, 43, 0
7, 190042, Note_on_c, 5, 31, 0
7, 190042, Note_on_c, 5, 43, 100
7, 190422, Note_on_c, 5, 43, 0
7, 190426, Note_on_c, 5, 36, 87
7, 190626, Note_on_c, 5, 36, 0
7, 190718, Note_on_c, 5, 36, 80
7, 190810, Note_on_c, 5, 43, 73
7, 190814, Note_on_c, 5, 36, 0
7, 191190, Note_on_c, 5, 43, 0
7, 191194, Note_on_c, 5, 41, 82
7, 191406, Note_on_c, 5, 41, 0
7, 191486, Note_on_c, 5, 41, 94
7, 191566, Note_on_c, 5, 41, 0
7, 191574, Note_on_c, 5, 37, 75
7, 191962, Note_on_c, 5, 37, 0
7, 191962, Note_on_c, 5, 38, 93
7, 192346, Note_on_c, 5, 38, 0
7, 192346, Note_on_c, 5, 38, 100
7, 192730, Note_on_c, 5, 38, 0
7, 192730, Note_on_c, 5, 43, 87
7, 192942, Note_on_c, 5, 43, 0
7, 193014, Note_on_c, 5, 43, 80
7, 193114, Note_on_c, 5, 50, 73
7, 193134, Note_on_c, 5, 43, 0
7, 193498, Note_on_c, 5, 50, 0
7, 193498, Note_on_c, 5, 36, 93
7, 193882, Note_on_c, 5, 36, 0
7, 193882, Note_on_c, 5, 36, 100
7, 194266, Note_on_c, 5, 36, 0
7, 194266, Note_on_c, 5, 41, 87
7, 194558, Note_on_c, 5, 29, 64
7, 194614, Note_on_c, 5, 41, 0
7, 194650, Note_on_c, 5, 29, 0
7, 194654, Note_on_c, 5, 42, 87
7, 195030, Note_on_c, 5, 42, 0
7, 195034, Note_on_c, 5, 41, 86
7, 195326, Note_on_c, 5, 36, 62
7, 195378, Note_on_c, 5, 36, 0
7, 195398, Note_on_c, 5, 41, 0
7, 195418, Note_on_c, 5, 48, 79
7, 195702, Note_on_c, 5, 48, 0
7, 195706, Note_on_c, 5, 36, 64
7, 195758, Note_on_c, 5, 36, 0
7, 195802, Note_on_c, 5, 34, 87
7, 196002, Note_on_c, 5, 34, 0
7, 196094, Note_on_c, 5, 34, 80
7, 196182, Note_on_c, 5, 41, 73
7, 196194, Note_on_c, 5, 34, 0
7, 196570, Note_on_c, 5, 41, 0
7, 196570, Note_on_c, 5, 39, 98
7, 196954, Note_on_c, 5, 39, 0
7, 196954, Note_on_c, 5, 45, 105
7, 197338, Note_on_c, 5, 45, 0
7, 197338, Note_on_c, 5, 44, 81
7, 197722, Note_on_c, 5, 51, 80
7, 197794, Note_on_c, 5, 44, 0
7, 198106, Note_on_c, 5, 51, 0
7, 198106, Note_on_c, 5, 38, 72
7, 198390, Note_on_c, 5, 38, 0
7, 198398, Note_on_c, 5, 26, 69
7, 198422, Note_on_c, 5, 26, 0
7, 198490, Note_on_c, 5, 43, 70
7, 198874, Note_on_c, 5, 43, 0
7, 198874, Note_on_c, 5, 36, 70
7, 199258, Note_on_c, 5, 36, 0
7, 199258, Note_on_c, 5, 41, 70
7, 199642, Note_on_c, 5, 41, 0
7, 199642, Note_on_c, 5, 34, 86
7, 200006, Note_on_c, 5, 34, 0
7, 200026, Note_on_c, 5, 40, 80
7, 200412, Note_on_c, 5, 40, 0
7, 200416, Note_on_c, 5, 41, 86
7, 200704, Note_on_c, 5, 36, 62
7, 200768, Note_on_c, 5, 36, 0
7, 200776, Note_on_c, 5, 41, 0
7, 200800, Note_on_c, 5, 48, 79
7, 201084, Note_on_c, 5, 48, 0
7, 201088, Note_on_c, 5, 36, 64
7, 201140, Note_on_c, 5, 36, 0
7, 201180, Note_on_c, 5, 34, 81
7, 201568, Note_on_c, 5, 41, 80
7, 201636, Note_on_c, 5, 34, 0
7, 201952, Note_on_c, 5, 41, 0
7, 201952, Note_on_c, 5, 43, 82
7, 202172, Note_on_c, 5, 43, 0
7, 202236, Note_on_c, 5, 43, 94
7, 202332, Note_on_c, 5, 43, 0
7, 202336, Note_on_c, 5, 35, 75
7, 202720, Note_on_c, 5, 35, 0
7, 202720, Note_on_c, 5, 48, 78
7, 203104, Note_on_c, 5, 43, 77
7, 203156, Note_on_c, 5, 48, 0
7, 203488, Note_on_c, 5, 43, 0
7, 203488, Note_on_c, 5, 41, 82
7, 203708, Note_on_c, 5, 41, 0
7, 203776, Note_on_c, 5, 41, 94
7, 203864, Note_on_c, 5, 41, 0
7, 203872, Note_on_c, 5, 37, 75
7, 204256, Note_on_c, 5, 37, 0
7, 204256, Note_on_c, 5, 50, 78
7, 204640, Note_on_c, 5, 45, 77
7, 204692, Note_on_c, 5, 50, 0
7, 205020, Note_on_c, 5, 45, 0
7, 205024, Note_on_c, 5, 43, 98
7, 205400, Note_on_c, 5, 43, 0
7, 205408, Note_on_c, 5, 37, 105
7, 205784, Note_on_c, 5, 37, 0
7, 205788, Note_on_c, 5, 36, 86
7, 206084, Note_on_c, 5, 31, 62
7, 206148, Note_on_c, 5, 31, 0
7, 206164, Note_on_c, 5, 36, 0
7, 206176, Note_on_c, 5, 43, 79
7, 206460, Note_on_c, 5, 43, 0
7, 206468, Note_on_c, 5, 31, 64
7, 206516, Note_on_c, 5, 31, 0
7, 206560, Note_on_c, 5, 41, 81
7, 206944, Note_on_c, 5, 48, 80
7, 207012, Note_on_c, 5, 41, 0
7, 207328, Note_on_c, 5, 48, 0
7, 207328, Note_on_c, 5, 41, 87
7, 207540, Note_on_c, 5, 41, 0
7, 207612, Note_on_c, 5, 41, 80
7, 207712, Note_on_c, 5, 48, 73
7, 207716, Note_on_c, 5, 41, 0
7, 208096, Note_on_c, 5, 48, 0
7, 208096, Note_on_c, 5, 34, 93
7, 208480, Note_on_c, 5, 34, 0
7, 208480, Note_on_c, 5, 34, 100
7, 208864, Note_on_c, 5, 34, 0
7, 208864, Note_on_c, 5, 39, 81
7, 209248, Note_on_c, 5, 46, 80
7, 209320, Note_on_c, 5, 39, 0
7, 209628, Note_on_c, 5, 46, 0
7, 209632, Note_on_c, 5, 44, 86
7, 209924, Note_on_c, 5, 39, 62
7, 209976, Note_on_c, 5, 39, 0
7, 209996, Note_on_c, 5, 44, 0
7, 210016, Note_on_c, 5, 51, 79
7, 210300, Note_on_c, 5, 51, 0
7, 210308, Note_on_c, 5, 39, 64
7, 210356, Note_on_c, 5, 39, 0
7, 210400, Note_on_c, 5, 38, 72
7, 210688, Note_on_c, 5, 38, 0
7, 210692, Note_on_c, 5, 26, 69
7, 210716, Note_on_c, 5, 26, 0
7, 210780, Note_on_c, 5, 43, 70
7, 211168, Note_on_c, 5, 43, 0
7, 211168, Note_on_c, 5, 36, 72
7, 211456, Note_on_c, 5, 36, 0
7, 211460, Note_on_c, 5, 24, 69
7, 211484, Note_on_c, 5, 24, 0
7, 211552, Note_on_c, 5, 41, 70
7, 211936, Note_on_c, 5, 41, 0
7, 211936, Note_on_c, 5, 34, 86
7, 212220, Note_on_c, 5, 29, 62
7, 212284, Note_on_c, 5, 29, 0
7, 212308, Note_on_c, 5, 34, 0
7, 212320, Note_on_c, 5, 41, 79
7, 212604, Note_on_c, 5, 41, 0
7, 212604, Note_on_c, 5, 29, 64
7, 212660, Note_on_c, 5, 29, 0
7, 212704, Note_on_c, 5, 41, 81
7, 213088, Note_on_c, 5, 48, 80
7, 213160, Note_on_c, 5, 41, 0
7, 213472, Note_on_c, 5, 48, 0
7, 213472, Note_on_c, 5, 34, 82
7, 213684, Note_on_c, 5, 34, 0
7, 213764, Note_on_c, 5, 34, 94
7, 213852, Note_on_c, 5, 34, 0
7, 213856, Note_on_c, 5, 42, 75
7, 214236, Note_on_c, 5, 42, 0
7, 214240, Note_on_c, 5, 43, 87
7, 214532, Note_on_c, 5, 31, 64
7, 214580, Note_on_c, 5, 43, 0
7, 214624, Note_on_c, 5, 31, 0
7, 214628, Note_on_c, 5, 37, 87
7, 215004, Note_on_c, 5, 37, 0
7, 215008, Note_on_c, 5, 36, 93
7, 215384, Note_on_c, 5, 36, 0
7, 215388, Note_on_c, 5, 36, 100
7, 215776, Note_on_c, 5, 36, 0
7, 215776, Note_on_c, 5, 41, 93
7, 216160, Note_on_c, 5, 41, 0
7, 216160, Note_on_c, 5, 41, 100
7, 216544, Note_on_c, 5, 41, 0
7, 216544, Note_on_c, 5, 38, 91
7, 216928, Note_on_c, 5, 41, 88
7, 216976, Note_on_c, 5, 38, 0
7, 217276, Note_on_c, 5, 41, 0
7, 217312, Note_on_c, 5, 43, 86
7, 217676, Note_on_c, 5, 43, 0
7, 217696, Note_on_c, 5, 35, 80
7, 218080, Note_on_c, 5, 35, 0
7, 218080, Note_on_c, 5, 36, 93
7, 218464, Note_on_c, 5, 36, 0
7, 218464, Note_on_c, 5, 36, 100
7, 218848, Note_on_c, 5, 36, 0
7, 218848, Note_on_c, 5, 41, 87
7, 219048, Note_on_c, 5, 41, 0
7, 219140, Note_on_c, 5, 41, 80
7, 219232, Note_on_c, 5, 48, 73
7, 219236, Note_on_c, 5, 41, 0
7, 219612, Note_on_c, 5, 48, 0
7, 219616, Note_on_c, 5, 41, 98
7, 219996, Note_on_c, 5, 41, 0
7, 220000, Note_on_c, 5, 35, 105
7, 220376, Note_on_c, 5, 35, 0
7, 220380, Note_on_c, 5, 46, 78
7, 220768, Note_on_c, 5, 41, 77
7, 220812, Note_on_c, 5, 46, 0
7, 221152, Note_on_c, 5, 41, 0
7, 221152, Note_on_c, 5, 39, 86
7, 221436, Note_on_c, 5, 34, 62
7, 221500, Note_on_c, 5, 34, 0
7, 221524, Note_on_c, 5, 39, 0
7, 221536, Note_on_c, 5, 46, 79
7, 221816, Note_on_c, 5, 46, 0
7, 221820, Note_on_c, 5, 34, 64
7, 221876, Note_on_c, 5, 34, 0
7, 221920, Note_on_c, 5, 44, 81
7, 222304, Note_on_c, 5, 51, 80
7, 222372, Note_on_c, 5, 44, 0
7, 222688, Note_on_c, 5, 51, 0
7, 222688, Note_on_c, 5, 38, 72
7, 222976, Note_on_c, 5, 38, 0
7, 222980, Note_on_c, 5, 26, 69
7, 222996, Note_on_c, 5, 26, 0
7, 223072, Note_on_c, 5, 43, 72
7, 223360, Note_on_c, 5, 43, 0
7, 223364, Note_on_c, 5, 31, 69
7, 223380, Note_on_c, 5, 31, 0
7, 223456, Note_on_c, 5, 36, 72
7, 223744, Note_on_c, 5, 36, 0
7, 223748, Note_on_c, 5, 24, 69
7, 223772, Note_on_c, 5, 24, 0
7, 223840, Note_on_c, 5, 41, 70
7, 224216, Note_on_c, 5, 41, 0
7, 224224, Note_on_c, 5, 34, 81
7, 224608, Note_on_c, 5, 41, 80
7, 224676, Note_on_c, 5, 34, 0
7, 224984, Note_on_c, 5, 41, 0
7, 224988, Note_on_c, 5, 34, 82
7, 225204, Note_on_c, 5, 34, 0
7, 225280, Note_on_c, 5, 34, 94
7, 225372, Note_on_c, 5, 34, 0
7, 225376, Note_on_c, 5, 38, 75
7, 225760, Note_on_c, 5, 38, 0
7, 225760, Note_on_c, 5, 39, 81
7, 226144, Note_on_c, 5, 46, 80
7, 226212, Note_on_c, 5, 39, 0
7, 226528, Note_on_c, 5, 46, 0
7, 226528, Note_on_c, 5, 36, 86
7, 226892, Note_on_c, 5, 36, 0
7, 226912, Note_on_c, 5, 40, 80
7, 227296, Note_on_c, 5, 40, 0
7, 227296, Note_on_c, 5, 41, 82
7, 227516, Note_on_c, 5, 41, 0
7, 227576, Note_on_c, 5, 41, 94
7, 227676, Note_on_c, 5, 41, 0
7, 227680, Note_on_c, 5, 33, 75
7, 228064, Note_on_c, 5, 33, 0
7, 228064, Note_on_c, 5, 34, 87
7, 228356, Note_on_c, 5, 22, 64
7, 228412, Note_on_c, 5, 34, 0
7, 228448, Note_on_c, 5, 22, 0
7, 228452, Note_on_c, 5, 44, 87
7, 228828, Note_on_c, 5, 44, 0
7, 228832, Note_on_c, 5, 43, 98
7, 229120, Note_on_c, 5, 31, 91
7, 229124, Note_on_c, 5, 43, 0
7, 229212, Note_on_c, 5, 31, 0
7, 229216, Note_on_c, 5, 43, 100
7, 229596, Note_on_c, 5, 43, 0
7, 229600, Note_on_c, 5, 36, 86
7, 229968, Note_on_c, 5, 36, 0
7, 229980, Note_on_c, 5, 40, 80
7, 230368, Note_on_c, 5, 40, 0
7, 230368, Note_on_c, 5, 41, 86
7, 230740, Note_on_c, 5, 41, 0
7, 230752, Note_on_c, 5, 33, 80
7, 231136, Note_on_c, 5, 33, 0
7, 231136, Note_on_c, 5, 34, 87
7, 231420, Note_on_c, 5, 22, 64
7, 231480, Note_on_c, 5, 34, 0
7, 231520, Note_on_c, 5, 22, 0
7, 231528, Note_on_c, 5, 35, 87
7, 231904, Note_on_c, 5, 35, 0
7, 231904, Note_on_c, 5, 34, 87
7, 232104, Note_on_c, 5, 34, 0
7, 232184, Note_on_c, 5, 34, 80
7, 232288, Note_on_c, 5, 41, 73
7, 232292, Note_on_c, 5, 34, 0
7, 232672, Note_on_c, 5, 41, 0
7, 232672, Note_on_c, 5, 39, 98
7, 232960, Note_on_c, 5, 27, 91
7, 232964, Note_on_c, 5, 39, 0
7, 233056, Note_on_c, 5, 27, 0
7, 233056, Note_on_c, 5, 39, 100
7, 233436, Note_on_c, 5, 39, 0
7, 233440, Note_on_c, 5, 44, 81
7, 233824, Note_on_c, 5, 51, 80
7, 233896, Note_on_c, 5, 44, 0
7, 234204, Note_on_c, 5, 51, 0
7, 234208, Note_on_c, 5, 37, 91
7, 234588, Note_on_c, 5, 41, 88
7, 234636, Note_on_c, 5, 37, 0
7, 234944, Note_on_c, 5, 41, 0
7, 234976, Note_on_c, 5, 43, 72
7, 235264, Note_on_c, 5, 43, 0
7, 235268, Note_on_c, 5, 31, 69
7, 235292, Note_on_c, 5, 31, 0
7, 235360, Note_on_c, 5, 36, 72
7, 235648, Note_on_c, 5, 36, 0
7, 235652, Note_on_c, 5, 24, 69
7, 235676, Note_on_c, 5, 24, 0
7, 235744, Note_on_c, 5, 41, 70
7, 236128, Note_on_c, 5, 41, 0
7, 236128, Note_on_c, 5, 34, 72
7, 236412, Note_on_c, 5, 34, 0
7, 236420, Note_on_c, 5, 22, 69
7, 236444, Note_on_c, 5, 22, 0
7, 236512, Note_on_c, 5, 39, 82
7, 236732, Note_on_c, 5, 39, 0
7, 236796, Note_on_c, 5, 39, 94
7, 236892, Note_on_c, 5, 39, 0
7, 236896, Note_on_c, 5, 40, 75
7, 237280, Note_on_c, 5, 40, 0
7, 237280, Note_on_c, 5, 41, 81
7, 237664, Note_on_c, 5, 48, 80
7, 237736, Note_on_c, 5, 41, 0
7, 238048, Note_on_c, 5, 48, 0
7, 238048, Note_on_c, 5, 34, 82
7, 238260, Note_on_c, 5, 34, 0
7, 238340, Note_on_c, 5, 34, 94
7, 238428, Note_on_c, 5, 34, 0
7, 238432, Note_on_c, 5, 42, 75
7, 238812, Note_on_c, 5, 42, 0
7, 238816, Note_on_c, 5, 43, 98
7, 239104, Note_on_c, 5, 31, 91
7, 239108, Note_on_c, 5, 43, 0
7, 239196, Note_on_c, 5, 31, 0
7, 239200, Note_on_c, 5, 43, 100
7, 239576, Note_on_c, 5, 43, 0
7, 239580, Note_on_c, 5, 36, 98
7, 239872, Note_on_c, 5, 24, 91
7, 239876, Note_on_c, 5, 36, 0
7, 239968, Note_on_c, 5, 24, 0
7, 239968, Note_on_c, 5, 36, 100
7, 240352, Note_on_c, 5, 36, 0
7, 240352, Note_on_c, 5, 41, 81
7, 240736, Note_on_c, 5, 48, 80
7, 240804, Note_on_c, 5, 41, 0
7, 241120, Note_on_c, 5, 48, 0
7, 241120, Note_on_c, 5, 38, 87
7, 241320, Note_on_c, 5, 38, 0
7, 241400, Note_on_c, 5, 38, 80
7, 241504, Note_on_c, 5, 45, 73
7, 241508, Note_on_c, 5, 38, 0
7, 241888, Note_on_c, 5, 45, 0
7, 241888, Note_on_c, 5, 43, 98
7, 242176, Note_on_c, 5, 31, 91
7, 242180, Note_on_c, 5, 43, 0
7, 242272, Note_on_c, 5, 31, 0
7, 242272, Note_on_c, 5, 43, 100
7, 242652, Note_on_c, 5, 43, 0
7, 242656, Note_on_c, 5, 36, 98
7, 242944, Note_on_c, 5, 24, 91
7, 242948, Note_on_c, 5, 36, 0
7, 243036, Note_on_c, 5, 24, 0
7, 243040, Note_on_c, 5, 36, 100
7, 243420, Note_on_c, 5, 36, 0
7, 243424, Note_on_c, 5, 41, 87
7, 243624, Note_on_c, 5, 41, 0
7, 243716, Note_on_c, 5, 41, 80
7, 243808, Note_on_c, 5, 48, 73
7, 243812, Note_on_c, 5, 41, 0
7, 244184, Note_on_c, 5, 48, 0
7, 244188, Note_on_c, 5, 41, 86
7, 244564, Note_on_c, 5, 41, 0
7, 244576, Note_on_c, 5, 33, 80
7, 244960, Note_on_c, 5, 33, 0
7, 244960, Note_on_c, 5, 34, 86
7, 245252, Note_on_c, 5, 29, 62
7, 245308, Note_on_c, 5, 29, 0
7, 245332, Note_on_c, 5, 34, 0
7, 245344, Note_on_c, 5, 41, 79
7, 245628, Note_on_c, 5, 41, 0
7, 245628, Note_on_c, 5, 29, 64
7, 245684, Note_on_c, 5, 29, 0
7, 245728, Note_on_c, 5, 39, 86
7, 246012, Note_on_c, 5, 34, 62
7, 246076, Note_on_c, 5, 34, 0
7, 246100, Note_on_c, 5, 39, 0
7, 246112, Note_on_c, 5, 46, 79
7, 246396, Note_on_c, 5, 46, 0
7, 246396, Note_on_c, 5, 34, 64
7, 246452, Note_on_c, 5, 34, 0
7, 246496, Note_on_c, 5, 44, 86
7, 246776, Note_on_c, 5, 39, 62
7, 246844, Note_on_c, 5, 39, 0
7, 246868, Note_on_c, 5, 44, 0
7, 246880, Note_on_c, 5, 51, 79
7, 247168, Note_on_c, 5, 51, 0
7, 247168, Note_on_c, 5, 39, 64
7, 247220, Note_on_c, 5, 39, 0
7, 247264, Note_on_c, 5, 38, 70
7, 247648, Note_on_c, 5, 38, 0
7, 247648, Note_on_c, 5, 43, 70
7, 248028, Note_on_c, 5, 43, 0
7, 248032, Note_on_c, 5, 36, 70
7, 248412, Note_on_c, 5, 36, 0
7, 248416, Note_on_c, 5, 41, 70
7, 248796, Note_on_c, 5, 41, 0
7, 248800, Note_on_c, 5, 34, 78
7, 248944, Program_c, 5, 32
7, 248944, Control_c, 5, 123, 0
7, 248944, Control_c, 5, 64, 0
7, 251874, Note_on_c, 5, 34, 0
7, 254018, System_exclusive, 9, 67, 16, 76, 3, 1, 0, 64, 0, 247
7, 254018, System_exclusive, 9, 67, 16, 76, 3, 2, 0, 64, 0, 247
7, 254018, System_exclusive, 8, 67, 16, 76, 3, 2, 12, 127, 247
7, 254018, End_track
8, 0, Start_track
8, 0, Title_t, "Track 7"
8, 396, Control_c, 6, 0, 1
8, 396, Program_c, 6, 24
8, 397, Control_c, 6, 7, 59
8, 784, Program_c, 6, 24
8, 784, Control_c, 6, 64, 0
8, 4574, Note_on_c, 6, 50, 55
8, 4574, Note_on_c, 6, 55, 64
8, 4686, Note_on_c, 6, 55, 0
8, 4766, Note_on_c, 6, 50, 0
8, 4958, Control_c, 6, 64, 127
8, 4958, Note_on_c, 6, 55, 49
8, 4958, Note_on_c, 6, 50, 41
8, 5014, Note_on_c, 6, 50, 0
8, 5046, Note_on_c, 6, 55, 0
8, 5046, Control_c, 6, 64, 0
8, 5338, Note_on_c, 6, 53, 55
8, 5342, Note_on_c, 6, 58, 64
8, 5454, Note_on_c, 6, 58, 0
8, 5534, Note_on_c, 6, 53, 0
8, 5726, Control_c, 6, 64, 127
8, 5726, Note_on_c, 6, 58, 49
8, 5726, Note_on_c, 6, 53, 41
8, 5778, Note_on_c, 6, 53, 0
8, 5814, Note_on_c, 6, 58, 0
8, 5814, Control_c, 6, 64, 0
8, 6106, Note_on_c, 6, 51, 55
8, 6110, Note_on_c, 6, 58, 64
8, 6222, Note_on_c, 6, 58, 0
8, 6302, Note_on_c, 6, 51, 0
8, 6494, Control_c, 6, 64, 127
8, 6494, Note_on_c, 6, 58, 49
8, 6494, Note_on_c, 6, 51, 41
8, 6554, Note_on_c, 6, 51, 0
8, 6574, Note_on_c, 6, 58, 0
8, 6578, Control_c, 6, 64, 0
8, 6874, Note_on_c, 6, 51, 55
8, 6878, Note_on_c, 6, 57, 64
8, 6990, Note_on_c, 6, 57, 0
8, 7070, Note_on_c, 6, 51, 0
8, 7262, Control_c, 6, 64, 127
8, 7262, Note_on_c, 6, 57, 49
8, 7262, Note_on_c, 6, 51, 41
8, 7322, Note_on_c, 6, 51, 0
8, 7350, Note_on_c, 6, 57, 0
8, 7358, Control_c, 6, 64, 0
8, 7646, Note_on_c, 6, 53, 55
8, 7646, Note_on_c, 6, 60, 64
8, 7758, Note_on_c, 6, 60, 0
8, 7838, Note_on_c, 6, 53, 0
8, 8030, Control_c, 6, 64, 127
8, 8030, Note_on_c, 6, 60, 49
8, 8030, Note_on_c, 6, 53, 41
8, 8090, Note_on_c, 6, 53, 0
8, 8118, Note_on_c, 6, 60, 0
8, 8118, Control_c, 6, 64, 0
8, 8410, Note_on_c, 6, 53, 55
8, 8414, Note_on_c, 6, 59, 64
8, 8526, Note_on_c, 6, 59, 0
8, 8606, Note_on_c, 6, 53, 0
8, 8798, Control_c, 6, 64, 127
8, 8798, Note_on_c, 6, 59, 49
8, 8798, Note_on_c, 6, 53, 41
8, 8858, Note_on_c, 6, 53, 0
8, 8886, Note_on_c, 6, 59, 0
8, 8890, Control_c, 6, 64, 0
8, 9178, Note_on_c, 6, 51, 55
8, 9182, Note_on_c, 6, 58, 64
8, 9294, Note_on_c, 6, 58, 0
8, 9374, Note_on_c, 6, 51, 0
8, 9566, Control_c, 6, 64, 127
8, 9566, Note_on_c, 6, 58, 49
8, 9566, Note_on_c, 6, 51, 41
8, 9622, Note_on_c, 6, 51, 0
8, 9654, Note_on_c, 6, 58, 0
8, 9654, Control_c, 6, 64, 0
8, 9950, Note_on_c, 6, 51, 55
8, 9950, Note_on_c, 6, 57, 64
8, 10062, Note_on_c, 6, 57, 0
8, 10142, Note_on_c, 6, 51, 0
8, 10334, Control_c, 6, 64, 127
8, 10334, Note_on_c, 6, 57, 49
8, 10334, Note_on_c, 6, 51, 41
8, 10386, Note_on_c, 6, 51, 0
8, 10422, Note_on_c, 6, 57, 0
8, 10422, Control_c, 6, 64, 0
8, 10718, Note_on_c, 6, 51, 55
8, 10718, Note_on_c, 6, 56, 64
8, 10830, Note_on_c, 6, 56, 0
8, 10910, Note_on_c, 6, 51, 0
8, 11102, Control_c, 6, 64, 127
8, 11102, Note_on_c, 6, 56, 49
8, 11102, Note_on_c, 6, 51, 41
8, 11162, Note_on_c, 6, 51, 0
8, 11182, Note_on_c, 6, 56, 0
8, 11190, Control_c, 6, 64, 0
8, 11486, Note_on_c, 6, 50, 55
8, 11486, Note_on_c, 6, 56, 64
8, 11598, Note_on_c, 6, 56, 0
8, 11678, Note_on_c, 6, 50, 0
8, 11870, Control_c, 6, 64, 127
8, 11870, Note_on_c, 6, 56, 49
8, 11870, Note_on_c, 6, 50, 41
8, 11930, Note_on_c, 6, 50, 0
8, 11958, Note_on_c, 6, 56, 0
8, 11962, Control_c, 6, 64, 0
8, 12254, Note_on_c, 6, 48, 55
8, 12254, Note_on_c, 6, 55, 64
8, 12366, Note_on_c, 6, 55, 0
8, 12446, Note_on_c, 6, 48, 0
8, 12638, Control_c, 6, 64, 127
8, 12638, Note_on_c, 6, 55, 49
8, 12638, Note_on_c, 6, 48, 41
8, 12698, Note_on_c, 6, 48, 0
8, 12726, Note_on_c, 6, 55, 0
8, 12734, Control_c, 6, 64, 0
8, 13018, Note_on_c, 6, 54, 55
8, 13022, Note_on_c, 6, 60, 64
8, 13134, Note_on_c, 6, 60, 0
8, 13214, Note_on_c, 6, 54, 0
8, 13406, Control_c, 6, 64, 127
8, 13406, Note_on_c, 6, 60, 49
8, 13406, Note_on_c, 6, 54, 41
8, 13466, Note_on_c, 6, 54, 0
8, 13494, Note_on_c, 6, 60, 0
8, 13494, Control_c, 6, 64, 0
8, 13786, Note_on_c, 6, 53, 55
8, 13790, Note_on_c, 6, 60, 64
8, 13902, Note_on_c, 6, 60, 0
8, 13982, Note_on_c, 6, 53, 0
8, 14174, Control_c, 6, 64, 0
8, 14174, Control_c, 6, 64, 0
8, 14174, Note_on_c, 6, 53, 55
8, 14174, Note_on_c, 6, 59, 64
8, 14286, Note_on_c, 6, 59, 0
8, 14366, Note_on_c, 6, 53, 0
8, 14558, Control_c, 6, 64, 0
8, 14558, Control_c, 6, 64, 0
8, 14558, Note_on_c, 6, 51, 55
8, 14558, Note_on_c, 6, 58, 64
8, 14670, Note_on_c, 6, 58, 0
8, 14750, Note_on_c, 6, 51, 0
8, 14942, Control_c, 6, 64, 0
8, 14942, Control_c, 6, 64, 0
8, 14942, Note_on_c, 6, 51, 55
8, 14942, Note_on_c, 6, 57, 64
8, 15054, Note_on_c, 6, 57, 0
8, 15134, Note_on_c, 6, 51, 0
8, 15326, Control_c, 6, 64, 0
8, 15326, Control_c, 6, 64, 0
8, 15326, Note_on_c, 6, 50, 55
8, 15326, Note_on_c, 6, 55, 64
8, 15438, Note_on_c, 6, 55, 0
8, 15518, Note_on_c, 6, 50, 0
8, 15710, Control_c, 6, 64, 127
8, 15710, Note_on_c, 6, 55, 49
8, 15710, Note_on_c, 6, 50, 41
8, 15770, Note_on_c, 6, 50, 0
8, 15790, Note_on_c, 6, 55, 0
8, 15798, Control_c, 6, 64, 0
8, 16090, Note_on_c, 6, 51, 55
8, 16094, Note_on_c, 6, 57, 64
8, 16206, Note_on_c, 6, 57, 0
8, 16286, Note_on_c, 6, 51, 0
8, 16478, Control_c, 6, 64, 127
8, 16478, Note_on_c, 6, 57, 49
8, 16478, Note_on_c, 6, 51, 41
8, 16538, Note_on_c, 6, 51, 0
8, 16566, Note_on_c, 6, 57, 0
8, 16570, Control_c, 6, 64, 0
8, 16858, Note_on_c, 6, 50, 55
8, 16862, Note_on_c, 6, 55, 64
8, 16974, Note_on_c, 6, 55, 0
8, 17054, Note_on_c, 6, 50, 0
8, 17242, Control_c, 6, 64, 127
8, 17246, Note_on_c, 6, 55, 49
8, 17246, Note_on_c, 6, 50, 41
8, 17306, Note_on_c, 6, 50, 0
8, 17334, Note_on_c, 6, 55, 0
8, 17342, Control_c, 6, 64, 0
8, 17626, Note_on_c, 6, 53, 55
8, 17630, Note_on_c, 6, 58, 64
8, 17742, Note_on_c, 6, 58, 0
8, 17822, Note_on_c, 6, 53, 0
8, 18014, Control_c, 6, 64, 127
8, 18014, Note_on_c, 6, 58, 49
8, 18014, Note_on_c, 6, 53, 41
8, 18074, Note_on_c, 6, 53, 0
8, 18102, Note_on_c, 6, 58, 0
8, 18106, Control_c, 6, 64, 0
8, 18394, Note_on_c, 6, 51, 55
8, 18398, Note_on_c, 6, 58, 64
8, 18510, Note_on_c, 6, 58, 0
8, 18590, Note_on_c, 6, 51, 0
8, 18778, Control_c, 6, 64, 127
8, 18782, Note_on_c, 6, 58, 49
8, 18782, Note_on_c, 6, 51, 41
8, 18842, Note_on_c, 6, 51, 0
8, 18870, Note_on_c, 6, 58, 0
8, 18870, Control_c, 6, 64, 0
8, 19162, Note_on_c, 6, 51, 55
8, 19166, Note_on_c, 6, 57, 64
8, 19278, Note_on_c, 6, 57, 0
8, 19358, Note_on_c, 6, 51, 0
8, 19550, Control_c, 6, 64, 127
8, 19550, Note_on_c, 6, 57, 49
8, 19550, Note_on_c, 6, 51, 41
8, 19606, Note_on_c, 6, 51, 0
8, 19638, Note_on_c, 6, 57, 0
8, 19638, Control_c, 6, 64, 0
8, 19934, Note_on_c, 6, 53, 55
8, 19934, Note_on_c, 6, 60, 64
8, 20046, Note_on_c, 6, 60, 0
8, 20126, Note_on_c, 6, 53, 0
8, 20318, Control_c, 6, 64, 127
8, 20318, Note_on_c, 6, 60, 49
8, 20318, Note_on_c, 6, 53, 41
8, 20370, Note_on_c, 6, 53, 0
8, 20406, Note_on_c, 6, 60, 0
8, 20406, Control_c, 6, 64, 0
8, 20698, Note_on_c, 6, 53, 55
8, 20702, Note_on_c, 6, 59, 64
8, 20814, Note_on_c, 6, 59, 0
8, 20894, Note_on_c, 6, 53, 0
8, 21086, Control_c, 6, 64, 127
8, 21086, Note_on_c, 6, 59, 49
8, 21086, Note_on_c, 6, 53, 41
8, 21146, Note_on_c, 6, 53, 0
8, 21166, Note_on_c, 6, 59, 0
8, 21170, Control_c, 6, 64, 0
8, 21470, Note_on_c, 6, 51, 55
8, 21470, Note_on_c, 6, 58, 64
8, 21582, Note_on_c, 6, 58, 0
8, 21662, Note_on_c, 6, 51, 0
8, 21854, Control_c, 6, 64, 127
8, 21854, Note_on_c, 6, 58, 49
8, 21854, Note_on_c, 6, 51, 41
8, 21914, Note_on_c, 6, 51, 0
8, 21942, Note_on_c, 6, 58, 0
8, 21950, Control_c, 6, 64, 0
8, 22234, Note_on_c, 6, 51, 55
8, 22238, Note_on_c, 6, 57, 64
8, 22350, Note_on_c, 6, 57, 0
8, 22430, Note_on_c, 6, 51, 0
8, 22622, Control_c, 6, 64, 127
8, 22622, Note_on_c, 6, 57, 49
8, 22622, Note_on_c, 6, 51, 41
8, 22682, Note_on_c, 6, 51, 0
8, 22710, Note_on_c, 6, 57, 0
8, 22714, Control_c, 6, 64, 0
8, 23002, Note_on_c, 6, 51, 55
8, 23006, Note_on_c, 6, 56, 64
8, 23118, Note_on_c, 6, 56, 0
8, 23198, Note_on_c, 6, 51, 0
8, 23386, Control_c, 6, 64, 127
8, 23390, Note_on_c, 6, 56, 49
8, 23390, Note_on_c, 6, 51, 41
8, 23450, Note_on_c, 6, 51, 0
8, 23478, Note_on_c, 6, 56, 0
8, 23478, Control_c, 6, 64, 0
8, 23770, Note_on_c, 6, 50, 55
8, 23774, Note_on_c, 6, 56, 64
8, 23886, Note_on_c, 6, 56, 0
8, 23966, Note_on_c, 6, 50, 0
8, 24158, Control_c, 6, 64, 127
8, 24158, Note_on_c, 6, 56, 49
8, 24158, Note_on_c, 6, 50, 41
8, 24214, Note_on_c, 6, 50, 0
8, 24246, Note_on_c, 6, 56, 0
8, 24246, Control_c, 6, 64, 0
8, 24538, Note_on_c, 6, 48, 55
8, 24542, Note_on_c, 6, 55, 64
8, 24654, Note_on_c, 6, 55, 0
8, 24734, Note_on_c, 6, 48, 0
8, 24926, Control_c, 6, 64, 127
8, 24926, Note_on_c, 6, 55, 49
8, 24926, Note_on_c, 6, 48, 41
8, 24978, Note_on_c, 6, 48, 0
8, 25014, Note_on_c, 6, 55, 0
8, 25014, Control_c, 6, 64, 0
8, 25310, Note_on_c, 6, 54, 55
8, 25310, Note_on_c, 6, 60, 64
8, 25422, Note_on_c, 6, 60, 0
8, 25502, Note_on_c, 6, 54, 0
8, 25694, Control_c, 6, 64, 127
8, 25694, Note_on_c, 6, 60, 49
8, 25694, Note_on_c, 6, 54, 41
8, 25754, Note_on_c, 6, 54, 0
8, 25774, Note_on_c, 6, 60, 0
8, 25778, Control_c, 6, 64, 0
8, 26078, Note_on_c, 6, 53, 55
8, 26078, Note_on_c, 6, 60, 64
8, 26190, Note_on_c, 6, 60, 0
8, 26270, Note_on_c, 6, 53, 0
8, 26462, Control_c, 6, 64, 0
8, 26462, Control_c, 6, 64, 0
8, 26462, Note_on_c, 6, 53, 55
8, 26462, Note_on_c, 6, 59, 64
8, 26574, Note_on_c, 6, 59, 0
8, 26654, Note_on_c, 6, 53, 0
8, 26846, Control_c, 6, 64, 0
8, 26846, Control_c, 6, 64, 0
8, 26846, Note_on_c, 6, 51, 55
8, 26846, Note_on_c, 6, 58, 64
8, 26958, Note_on_c, 6, 58, 0
8, 27038, Note_on_c, 6, 51, 0
8, 27230, Control_c, 6, 64, 0
8, 27230, Control_c, 6, 64, 0
8, 27230, Note_on_c, 6, 51, 55
8, 27230, Note_on_c, 6, 57, 64
8, 27342, Note_on_c, 6, 57, 0
8, 27422, Note_on_c, 6, 51, 0
8, 27614, Control_c, 6, 64, 0
8, 27614, Control_c, 6, 64, 0
8, 27614, Note_on_c, 6, 50, 55
8, 27614, Note_on_c, 6, 55, 64
8, 27650, System_exclusive, 9, 67, 16, 76, 2, 1, 0, 2, 17, 247
8, 27650, System_exclusive, 9, 67, 16, 76, 2, 1, 32, 65, 8, 247
8, 27726, Note_on_c, 6, 55, 0
8, 27806, Note_on_c, 6, 50, 0
8, 27998, Control_c, 6, 64, 127
8, 27998, Note_on_c, 6, 55, 49
8, 27998, Note_on_c, 6, 50, 41
8, 28058, Note_on_c, 6, 50, 0
8, 28086, Note_on_c, 6, 55, 0
8, 28086, Control_c, 6, 64, 0
8, 28378, Note_on_c, 6, 50, 55
8, 28382, Note_on_c, 6, 56, 64
8, 28494, Note_on_c, 6, 56, 0
8, 28574, Note_on_c, 6, 50, 0
8, 28766, Control_c, 6, 64, 127
8, 28766, Note_on_c, 6, 56, 49
8, 28766, Note_on_c, 6, 50, 41
8, 28822, Note_on_c, 6, 50, 0
8, 28854, Note_on_c, 6, 56, 0
8, 28854, Control_c, 6, 64, 0
8, 29146, Note_on_c, 6, 48, 55
8, 29150, Note_on_c, 6, 55, 64
8, 29262, Note_on_c, 6, 55, 0
8, 29342, Note_on_c, 6, 48, 0
8, 29534, Control_c, 6, 64, 127
8, 29534, Note_on_c, 6, 55, 49
8, 29534, Note_on_c, 6, 48, 41
8, 29590, Note_on_c, 6, 48, 0
8, 29622, Note_on_c, 6, 55, 0
8, 29622, Control_c, 6, 64, 0
8, 29918, Note_on_c, 6, 52, 55
8, 29918, Note_on_c, 6, 58, 64
8, 30030, Note_on_c, 6, 58, 0
8, 30110, Note_on_c, 6, 52, 0
8, 30302, Control_c, 6, 64, 127
8, 30302, Note_on_c, 6, 58, 49
8, 30302, Note_on_c, 6, 52, 41
8, 30362, Note_on_c, 6, 52, 0
8, 30382, Note_on_c, 6, 58, 0
8, 30390, Control_c, 6, 64, 0
8, 30686, Note_on_c, 6, 51, 55
8, 30686, Note_on_c, 6, 56, 64
8, 30798, Note_on_c, 6, 56, 0
8, 30878, Note_on_c, 6, 51, 0
8, 31070, Control_c, 6, 64, 127
8, 31070, Note_on_c, 6, 56, 49
8, 31070, Note_on_c, 6, 51, 41
8, 31130, Note_on_c, 6, 51, 0
8, 31158, Note_on_c, 6, 56, 0
8, 31162, Control_c, 6, 64, 0
8, 31454, Note_on_c, 6, 50, 55
8, 31454, Note_on_c, 6, 56, 64
8, 31566, Note_on_c, 6, 56, 0
8, 31646, Note_on_c, 6, 50, 0
8, 31838, Control_c, 6, 64, 127
8, 31838, Note_on_c, 6, 56, 49
8, 31838, Note_on_c, 6, 50, 41
8, 31898, Note_on_c, 6, 50, 0
8, 31926, Note_on_c, 6, 56, 0
8, 31934, Control_c, 6, 64, 0
8, 32218, Note_on_c, 6, 53, 55
8, 32222, Note_on_c, 6, 58, 64
8, 32334, Note_on_c, 6, 58, 0
8, 32414, Note_on_c, 6, 53, 0
8, 32606, Control_c, 6, 64, 127
8, 32606, Note_on_c, 6, 58, 49
8, 32606, Note_on_c, 6, 53, 41
8, 32666, Note_on_c, 6, 53, 0
8, 32694, Note_on_c, 6, 58, 0
8, 32694, Control_c, 6, 64, 0
8, 32986, Note_on_c, 6, 52, 55
8, 32990, Note_on_c, 6, 58, 64
8, 33102, Note_on_c, 6, 58, 0
8, 33182, Note_on_c, 6, 52, 0
8, 33374, Control_c, 6, 64, 127
8, 33374, Note_on_c, 6, 58, 49
8, 33374, Note_on_c, 6, 52, 41
8, 33430, Note_on_c, 6, 52, 0
8, 33462, Note_on_c, 6, 58, 0
8, 33462, Control_c, 6, 64, 0
8, 33758, Note_on_c, 6, 51, 55
8, 33758, Note_on_c, 6, 56, 64
8, 33870, Note_on_c, 6, 56, 0
8, 33950, Note_on_c, 6, 51, 0
8, 34142, Control_c, 6, 64, 127
8, 34142, Note_on_c, 6, 56, 49
8, 34142, Note_on_c, 6, 51, 41
8, 34194, Note_on_c, 6, 51, 0
8, 34230, Note_on_c, 6, 56, 0
8, 34230, Control_c, 6, 64, 0
8, 34526, Note_on_c, 6, 50, 55
8, 34526, Note_on_c, 6, 56, 64
8, 34638, Note_on_c, 6, 56, 0
8, 34718, Note_on_c, 6, 50, 0
8, 34910, Control_c, 6, 64, 127
8, 34910, Note_on_c, 6, 56, 49
8, 34910, Note_on_c, 6, 50, 41
8, 34970, Note_on_c, 6, 50, 0
8, 34990, Note_on_c, 6, 56, 0
8, 34998, Control_c, 6, 64, 0
8, 35294, Note_on_c, 6, 49, 55
8, 35294, Note_on_c, 6, 56, 64
8, 35406, Note_on_c, 6, 56, 0
8, 35486, Note_on_c, 6, 49, 0
8, 35678, Control_c, 6, 64, 127
8, 35678, Note_on_c, 6, 56, 49
8, 35678, Note_on_c, 6, 49, 41
8, 35738, Note_on_c, 6, 49, 0
8, 35766, Note_on_c, 6, 56, 0
8, 35770, Control_c, 6, 64, 0
8, 36062, Note_on_c, 6, 49, 55
8, 36062, Note_on_c, 6, 55, 64
8, 36174, Note_on_c, 6, 55, 0
8, 36254, Note_on_c, 6, 49, 0
8, 36446, Control_c, 6, 64, 127
8, 36446, Note_on_c, 6, 55, 49
8, 36446, Note_on_c, 6, 49, 41
8, 36506, Note_on_c, 6, 49, 0
8, 36534, Note_on_c, 6, 55, 0
8, 36542, Control_c, 6, 64, 0
8, 36826, Note_on_c, 6, 55, 55
8, 36830, Note_on_c, 6, 60, 64
8, 36942, Note_on_c, 6, 60, 0
8, 37022, Note_on_c, 6, 55, 0
8, 37214, Control_c, 6, 64, 127
8, 37214, Note_on_c, 6, 60, 49
8, 37214, Note_on_c, 6, 55, 41
8, 37274, Note_on_c, 6, 55, 0
8, 37302, Note_on_c, 6, 60, 0
8, 37302, Control_c, 6, 64, 0
8, 37594, Note_on_c, 6, 53, 55
8, 37598, Note_on_c, 6, 59, 64
8, 37710, Note_on_c, 6, 59, 0
8, 37790, Note_on_c, 6, 53, 0
8, 37982, Control_c, 6, 64, 127
8, 37982, Note_on_c, 6, 59, 49
8, 37982, Note_on_c, 6, 53, 41
8, 38042, Note_on_c, 6, 53, 0
8, 38070, Note_on_c, 6, 59, 0
8, 38070, Control_c, 6, 64, 0
8, 38366, Note_on_c, 6, 53, 55
8, 38366, Note_on_c, 6, 58, 64
8, 38478, Note_on_c, 6, 58, 0
8, 38558, Note_on_c, 6, 53, 0
8, 38750, Control_c, 6, 64, 0
8, 38750, Control_c, 6, 64, 0
8, 38750, Note_on_c, 6, 52, 55
8, 38750, Note_on_c, 6, 58, 64
8, 38862, Note_on_c, 6, 58, 0
8, 38942, Note_on_c, 6, 52, 0
8, 39130, Control_c, 6, 64, 0
8, 39134, Control_c, 6, 64, 0
8, 39134, Note_on_c, 6, 51, 55
8, 39134, Note_on_c, 6, 56, 64
8, 39246, Note_on_c, 6, 56, 0
8, 39326, Note_on_c, 6, 51, 0
8, 39518, Control_c, 6, 64, 0
8, 39518, Control_c, 6, 64, 0
8, 39518, Note_on_c, 6, 50, 55
8, 39518, Note_on_c, 6, 56, 64
8, 39630, Note_on_c, 6, 56, 0
8, 39710, Note_on_c, 6, 50, 0
8, 39898, Control_c, 6, 64, 0
8, 39898, Control_c, 6, 64, 0
8, 39902, Note_on_c, 6, 48, 55
8, 39902, Note_on_c, 6, 55, 64
8, 40014, Note_on_c, 6, 55, 0
8, 40094, Note_on_c, 6, 48, 0
8, 40286, Control_c, 6, 64, 127
8, 40286, Note_on_c, 6, 55, 49
8, 40286, Note_on_c, 6, 48, 41
8, 40346, Note_on_c, 6, 48, 0
8, 40366, Note_on_c, 6, 55, 0
8, 40370, Control_c, 6, 64, 0
8, 40670, Note_on_c, 6, 51, 55
8, 40670, Note_on_c, 6, 57, 64
8, 40782, Note_on_c, 6, 57, 0
8, 40862, Note_on_c, 6, 51, 0
8, 41054, Control_c, 6, 64, 127
8, 41054, Note_on_c, 6, 57, 49
8, 41054, Note_on_c, 6, 51, 41
8, 41114, Note_on_c, 6, 51, 0
8, 41146, Note_on_c, 6, 57, 0
8, 41150, Control_c, 6, 64, 0
8, 41434, Note_on_c, 6, 50, 55
8, 41438, Note_on_c, 6, 55, 64
8, 41550, Note_on_c, 6, 55, 0
8, 41630, Note_on_c, 6, 50, 0
8, 41822, Control_c, 6, 64, 127
8, 41822, Note_on_c, 6, 55, 49
8, 41822, Note_on_c, 6, 50, 41
8, 41882, Note_on_c, 6, 50, 0
8, 41910, Note_on_c, 6, 55, 0
8, 41910, Control_c, 6, 64, 0
8, 42202, Note_on_c, 6, 53, 55
8, 42206, Note_on_c, 6, 58, 64
8, 42318, Note_on_c, 6, 58, 0
8, 42398, Note_on_c, 6, 53, 0
8, 42590, Control_c, 6, 64, 127
8, 42590, Note_on_c, 6, 58, 49
8, 42590, Note_on_c, 6, 53, 41
8, 42650, Note_on_c, 6, 53, 0
8, 42678, Note_on_c, 6, 58, 0
8, 42682, Control_c, 6, 64, 0
8, 42970, Note_on_c, 6, 51, 55
8, 42974, Note_on_c, 6, 58, 64
8, 43086, Note_on_c, 6, 58, 0
8, 43166, Note_on_c, 6, 51, 0
8, 43358, Control_c, 6, 64, 127
8, 43358, Note_on_c, 6, 58, 49
8, 43358, Note_on_c, 6, 51, 41
8, 43414, Note_on_c, 6, 51, 0
8, 43446, Note_on_c, 6, 58, 0
8, 43446, Control_c, 6, 64, 0
8, 43738, Note_on_c, 6, 51, 55
8, 43742, Note_on_c, 6, 57, 64
8, 43854, Note_on_c, 6, 57, 0
8, 43934, Note_on_c, 6, 51, 0
8, 44126, Control_c, 6, 64, 127
8, 44126, Note_on_c, 6, 57, 49
8, 44126, Note_on_c, 6, 51, 41
8, 44178, Note_on_c, 6, 51, 0
8, 44214, Note_on_c, 6, 57, 0
8, 44214, Control_c, 6, 64, 0
8, 44510, Note_on_c, 6, 53, 55
8, 44510, Note_on_c, 6, 60, 64
8, 44622, Note_on_c, 6, 60, 0
8, 44702, Note_on_c, 6, 53, 0
8, 44894, Control_c, 6, 64, 127
8, 44894, Note_on_c, 6, 60, 49
8, 44894, Note_on_c, 6, 53, 41
8, 44954, Note_on_c, 6, 53, 0
8, 44974, Note_on_c, 6, 60, 0
8, 44978, Control_c, 6, 64, 0
8, 45274, Note_on_c, 6, 53, 55
8, 45278, Note_on_c, 6, 59, 64
8, 45390, Note_on_c, 6, 59, 0
8, 45470, Note_on_c, 6, 53, 0
8, 45662, Control_c, 6, 64, 127
8, 45662, Note_on_c, 6, 59, 49
8, 45662, Note_on_c, 6, 53, 41
8, 45722, Note_on_c, 6, 53, 0
8, 45750, Note_on_c, 6, 59, 0
8, 45758, Control_c, 6, 64, 0
8, 46046, Note_on_c, 6, 51, 55
8, 46046, Note_on_c, 6, 58, 64
8, 46158, Note_on_c, 6, 58, 0
8, 46238, Note_on_c, 6, 51, 0
8, 46430, Control_c, 6, 64, 127
8, 46430, Note_on_c, 6, 58, 49
8, 46430, Note_on_c, 6, 51, 41
8, 46490, Note_on_c, 6, 51, 0
8, 46518, Note_on_c, 6, 58, 0
8, 46518, Control_c, 6, 64, 0
8, 46810, Note_on_c, 6, 51, 55
8, 46814, Note_on_c, 6, 57, 64
8, 46926, Note_on_c, 6, 57, 0
8, 47006, Note_on_c, 6, 51, 0
8, 47198, Control_c, 6, 64, 127
8, 47198, Note_on_c, 6, 57, 49
8, 47198, Note_on_c, 6, 51, 41
8, 47258, Note_on_c, 6, 51, 0
8, 47286, Note_on_c, 6, 57, 0
8, 47290, Control_c, 6, 64, 0
8, 47578, Note_on_c, 6, 51, 55
8, 47582, Note_on_c, 6, 56, 64
8, 47694, Note_on_c, 6, 56, 0
8, 47774, Note_on_c, 6, 51, 0
8, 47966, Control_c, 6, 64, 127
8, 47966, Note_on_c, 6, 56, 49
8, 47966, Note_on_c, 6, 51, 41
8, 48022, Note_on_c, 6, 51, 0
8, 48054, Note_on_c, 6, 56, 0
8, 48054, Control_c, 6, 64, 0
8, 48350, Note_on_c, 6, 50, 55
8, 48350, Note_on_c, 6, 56, 64
8, 48462, Note_on_c, 6, 56, 0
8, 48542, Note_on_c, 6, 50, 0
8, 48734, Control_c, 6, 64, 127
8, 48734, Note_on_c, 6, 56, 49
8, 48734, Note_on_c, 6, 50, 41
8, 48790, Note_on_c, 6, 50, 0
8, 48822, Note_on_c, 6, 56, 0
8, 48822, Control_c, 6, 64, 0
8, 49114, Note_on_c, 6, 48, 55
8, 49118, Note_on_c, 6, 55, 64
8, 49230, Note_on_c, 6, 55, 0
8, 49310, Note_on_c, 6, 48, 0
8, 49502, Control_c, 6, 64, 127
8, 49502, Note_on_c, 6, 55, 49
8, 49502, Note_on_c, 6, 48, 41
8, 49562, Note_on_c, 6, 48, 0
8, 49582, Note_on_c, 6, 55, 0
8, 49590, Control_c, 6, 64, 0
8, 49882, Note_on_c, 6, 54, 55
8, 49886, Note_on_c, 6, 60, 64
8, 49998, Note_on_c, 6, 60, 0
8, 50078, Note_on_c, 6, 54, 0
8, 50270, Control_c, 6, 64, 127
8, 50270, Note_on_c, 6, 60, 49
8, 50270, Note_on_c, 6, 54, 41
8, 50330, Note_on_c, 6, 54, 0
8, 50358, Note_on_c, 6, 60, 0
8, 50362, Control_c, 6, 64, 0
8, 50654, Note_on_c, 6, 53, 55
8, 50654, Note_on_c, 6, 60, 64
8, 50766, Note_on_c, 6, 60, 0
8, 50846, Note_on_c, 6, 53, 0
8, 51038, Control_c, 6, 64, 0
8, 51038, Control_c, 6, 64, 0
8, 51038, Note_on_c, 6, 53, 55
8, 51038, Note_on_c, 6, 59, 64
8, 51150, Note_on_c, 6, 59, 0
8, 51230, Note_on_c, 6, 53, 0
8, 51422, Control_c, 6, 64, 0
8, 51422, Control_c, 6, 64, 0
8, 51422, Note_on_c, 6, 51, 55
8, 51422, Note_on_c, 6, 58, 64
8, 51534, Note_on_c, 6, 58, 0
8, 51614, Note_on_c, 6, 51, 0
8, 51806, Control_c, 6, 64, 0
8, 51806, Control_c, 6, 64, 0
8, 51806, Note_on_c, 6, 51, 55
8, 51806, Note_on_c, 6, 57, 64
8, 51918, Note_on_c, 6, 57, 0
8, 51998, Note_on_c, 6, 51, 0
8, 52186, Control_c, 6, 64, 0
8, 52186, Control_c, 6, 64, 0
8, 52190, Note_on_c, 6, 50, 55
8, 52190, Note_on_c, 6, 55, 64
8, 52302, Note_on_c, 6, 55, 0
8, 52382, Note_on_c, 6, 50, 0
8, 52574, Control_c, 6, 64, 127
8, 52574, Note_on_c, 6, 55, 49
8, 52574, Note_on_c, 6, 50, 41
8, 52630, Note_on_c, 6, 50, 0
8, 52662, Note_on_c, 6, 55, 0
8, 52662, Control_c, 6, 64, 0
8, 52958, Note_on_c, 6, 51, 55
8, 52958, Note_on_c, 6, 57, 64
8, 53070, Note_on_c, 6, 57, 0
8, 53150, Note_on_c, 6, 51, 0
8, 53342, Control_c, 6, 64, 127
8, 53342, Note_on_c, 6, 57, 49
8, 53342, Note_on_c, 6, 51, 41
8, 53398, Note_on_c, 6, 51, 0
8, 53430, Note_on_c, 6, 57, 0
8, 53430, Control_c, 6, 64, 0
8, 53726, Note_on_c, 6, 50, 55
8, 53726, Note_on_c, 6, 55, 64
8, 53838, Note_on_c, 6, 55, 0
8, 53918, Note_on_c, 6, 50, 0
8, 53942, System_exclusive, 9, 67, 16, 76, 2, 1, 0, 2, 17, 247
8, 53942, System_exclusive, 9, 67, 16, 76, 2, 1, 32, 65, 8, 247
8, 54106, Control_c, 6, 64, 127
8, 54110, Note_on_c, 6, 55, 49
8, 54110, Note_on_c, 6, 50, 41
8, 54170, Note_on_c, 6, 50, 0
8, 54190, Note_on_c, 6, 55, 0
8, 54198, Control_c, 6, 64, 0
8, 54490, Note_on_c, 6, 53, 55
8, 54494, Note_on_c, 6, 58, 64
8, 54606, Note_on_c, 6, 58, 0
8, 54686, Note_on_c, 6, 53, 0
8, 54878, Control_c, 6, 64, 127
8, 54878, Note_on_c, 6, 58, 49
8, 54878, Note_on_c, 6, 53, 41
8, 54938, Note_on_c, 6, 53, 0
8, 54966, Note_on_c, 6, 58, 0
8, 54970, Control_c, 6, 64, 0
8, 55262, Note_on_c, 6, 51, 55
8, 55262, Note_on_c, 6, 58, 64
8, 55374, Note_on_c, 6, 58, 0
8, 55454, Note_on_c, 6, 51, 0
8, 55646, Control_c, 6, 64, 127
8, 55646, Note_on_c, 6, 58, 49
8, 55646, Note_on_c, 6, 51, 41
8, 55706, Note_on_c, 6, 51, 0
8, 55734, Note_on_c, 6, 58, 0
8, 55742, Control_c, 6, 64, 0
8, 56026, Note_on_c, 6, 51, 55
8, 56030, Note_on_c, 6, 57, 64
8, 56142, Note_on_c, 6, 57, 0
8, 56222, Note_on_c, 6, 51, 0
8, 56414, Control_c, 6, 64, 127
8, 56414, Note_on_c, 6, 57, 49
8, 56414, Note_on_c, 6, 51, 41
8, 56474, Note_on_c, 6, 51, 0
8, 56502, Note_on_c, 6, 57, 0
8, 56506, Control_c, 6, 64, 0
8, 56794, Note_on_c, 6, 53, 55
8, 56798, Note_on_c, 6, 60, 64
8, 56910, Note_on_c, 6, 60, 0
8, 56990, Note_on_c, 6, 53, 0
8, 57182, Control_c, 6, 64, 127
8, 57182, Note_on_c, 6, 60, 49
8, 57182, Note_on_c, 6, 53, 41
8, 57242, Note_on_c, 6, 53, 0
8, 57270, Note_on_c, 6, 60, 0
8, 57270, Control_c, 6, 64, 0
8, 57562, Note_on_c, 6, 53, 55
8, 57566, Note_on_c, 6, 59, 64
8, 57678, Note_on_c, 6, 59, 0
8, 57758, Note_on_c, 6, 53, 0
8, 57950, Control_c, 6, 64, 127
8, 57950, Note_on_c, 6, 59, 49
8, 57950, Note_on_c, 6, 53, 41
8, 58006, Note_on_c, 6, 53, 0
8, 58038, Note_on_c, 6, 59, 0
8, 58038, Control_c, 6, 64, 0
8, 58334, Note_on_c, 6, 51, 55
8, 58334, Note_on_c, 6, 58, 64
8, 58446, Note_on_c, 6, 58, 0
8, 58526, Note_on_c, 6, 51, 0
8, 58718, Control_c, 6, 64, 127
8, 58718, Note_on_c, 6, 58, 49
8, 58718, Note_on_c, 6, 51, 41
8, 58770, Note_on_c, 6, 51, 0
8, 58806, Note_on_c, 6, 58, 0
8, 58806, Control_c, 6, 64, 0
8, 59102, Note_on_c, 6, 51, 55
8, 59102, Note_on_c, 6, 57, 64
8, 59214, Note_on_c, 6, 57, 0
8, 59294, Note_on_c, 6, 51, 0
8, 59486, Control_c, 6, 64, 127
8, 59486, Note_on_c, 6, 57, 49
8, 59486, Note_on_c, 6, 51, 41
8, 59546, Note_on_c, 6, 51, 0
8, 59566, Note_on_c, 6, 57, 0
8, 59570, Control_c, 6, 64, 0
8, 59870, Note_on_c, 6, 51, 55
8, 59870, Note_on_c, 6, 56, 64
8, 59982, Note_on_c, 6, 56, 0
8, 60062, Note_on_c, 6, 51, 0
8, 60254, Control_c, 6, 64, 127
8, 60254, Note_on_c, 6, 56, 49
8, 60254, Note_on_c, 6, 51, 41
8, 60314, Note_on_c, 6, 51, 0
8, 60342, Note_on_c, 6, 56, 0
8, 60350, Control_c, 6, 64, 0
8, 60634, Note_on_c, 6, 50, 55
8, 60638, Note_on_c, 6, 56, 64
8, 60750, Note_on_c, 6, 56, 0
8, 60830, Note_on_c, 6, 50, 0
8, 61022, Control_c, 6, 64, 127
8, 61022, Note_on_c, 6, 56, 49
8, 61022, Note_on_c, 6, 50, 41
8, 61082, Note_on_c, 6, 50, 0
8, 61110, Note_on_c, 6, 56, 0
8, 61110, Control_c, 6, 64, 0
8, 61406, Note_on_c, 6, 48, 55
8, 61406, Note_on_c, 6, 55, 64
8, 61518, Note_on_c, 6, 55, 0
8, 61598, Note_on_c, 6, 48, 0
8, 61786, Control_c, 6, 64, 127
8, 61790, Note_on_c, 6, 55, 49
8, 61790, Note_on_c, 6, 48, 41
8, 61850, Note_on_c, 6, 48, 0
8, 61878, Note_on_c, 6, 55, 0
8, 61878, Control_c, 6, 64, 0
8, 62174, Note_on_c, 6, 54, 55
8, 62174, Note_on_c, 6, 60, 64
8, 62286, Note_on_c, 6, 60, 0
8, 62366, Note_on_c, 6, 54, 0
8, 62558, Control_c, 6, 64, 127
8, 62558, Note_on_c, 6, 60, 49
8, 62558, Note_on_c, 6, 54, 41
8, 62614, Note_on_c, 6, 54, 0
8, 62646, Note_on_c, 6, 60, 0
8, 62646, Control_c, 6, 64, 0
8, 62938, Note_on_c, 6, 53, 55
8, 62942, Note_on_c, 6, 60, 64
8, 63054, Note_on_c, 6, 60, 0
8, 63134, Note_on_c, 6, 53, 0
8, 63326, Control_c, 6, 64, 0
8, 63326, Control_c, 6, 64, 0
8, 63326, Note_on_c, 6, 53, 55
8, 63326, Note_on_c, 6, 59, 64
8, 63438, Note_on_c, 6, 59, 0
8, 63518, Note_on_c, 6, 53, 0
8, 63706, Control_c, 6, 64, 0
8, 63710, Control_c, 6, 64, 0
8, 63710, Note_on_c, 6, 51, 55
8, 63710, Note_on_c, 6, 58, 64
8, 63822, Note_on_c, 6, 58, 0
8, 63902, Note_on_c, 6, 51, 0
8, 64094, Control_c, 6, 64, 0
8, 64094, Control_c, 6, 64, 0
8, 64094, Note_on_c, 6, 51, 55
8, 64094, Note_on_c, 6, 57, 64
8, 64206, Note_on_c, 6, 57, 0
8, 64286, Note_on_c, 6, 51, 0
8, 64474, Control_c, 6, 64, 0
8, 64478, Control_c, 6, 64, 0
8, 64478, Note_on_c, 6, 50, 55
8, 64478, Note_on_c, 6, 55, 64
8, 64590, Note_on_c, 6, 55, 0
8, 64670, Note_on_c, 6, 50, 0
8, 64858, Control_c, 6, 64, 127
8, 64862, Note_on_c, 6, 55, 49
8, 64862, Note_on_c, 6, 50, 41
8, 64922, Note_on_c, 6, 50, 0
8, 64950, Note_on_c, 6, 55, 0
8, 64958, Control_c, 6, 64, 0
8, 65246, Note_on_c, 6, 51, 55
8, 65246, Note_on_c, 6, 57, 64
8, 65358, Note_on_c, 6, 57, 0
8, 65438, Note_on_c, 6, 51, 0
8, 65630, Control_c, 6, 64, 127
8, 65630, Note_on_c, 6, 57, 49
8, 65630, Note_on_c, 6, 51, 41
8, 65690, Note_on_c, 6, 51, 0
8, 65718, Note_on_c, 6, 57, 0
8, 65718, Control_c, 6, 64, 0
8, 66010, Note_on_c, 6, 50, 55
8, 66014, Note_on_c, 6, 55, 64
8, 66126, Note_on_c, 6, 55, 0
8, 66206, Note_on_c, 6, 50, 0
8, 66398, Control_c, 6, 64, 127
8, 66398, Note_on_c, 6, 55, 49
8, 66398, Note_on_c, 6, 50, 41
8, 66458, Note_on_c, 6, 50, 0
8, 66486, Note_on_c, 6, 55, 0
8, 66486, Control_c, 6, 64, 0
8, 66778, Note_on_c, 6, 53, 55
8, 66782, Note_on_c, 6, 58, 64
8, 66894, Note_on_c, 6, 58, 0
8, 66974, Note_on_c, 6, 53, 0
8, 67166, Control_c, 6, 64, 127
8, 67166, Note_on_c, 6, 58, 49
8, 67166, Note_on_c, 6, 53, 41
8, 67222, Note_on_c, 6, 53, 0
8, 67254, Note_on_c, 6, 58, 0
8, 67254, Control_c, 6, 64, 0
8, 67550, Note_on_c, 6, 51, 55
8, 67550, Note_on_c, 6, 58, 64
8, 67662, Note_on_c, 6, 58, 0
8, 67742, Note_on_c, 6, 51, 0
8, 67934, Control_c, 6, 64, 127
8, 67934, Note_on_c, 6, 58, 49
8, 67934, Note_on_c, 6, 51, 41
8, 67990, Note_on_c, 6, 51, 0
8, 68022, Note_on_c, 6, 58, 0
8, 68022, Control_c, 6, 64, 0
8, 68318, Note_on_c, 6, 51, 55
8, 68318, Note_on_c, 6, 57, 64
8, 68430, Note_on_c, 6, 57, 0
8, 68510, Note_on_c, 6, 51, 0
8, 68702, Control_c, 6, 64, 127
8, 68702, Note_on_c, 6, 57, 49
8, 68702, Note_on_c, 6, 51, 41
8, 68762, Note_on_c, 6, 51, 0
8, 68782, Note_on_c, 6, 57, 0
8, 68790, Control_c, 6, 64, 0
8, 69086, Note_on_c, 6, 53, 55
8, 69086, Note_on_c, 6, 60, 64
8, 69198, Note_on_c, 6, 60, 0
8, 69278, Note_on_c, 6, 53, 0
8, 69470, Control_c, 6, 64, 127
8, 69470, Note_on_c, 6, 60, 49
8, 69470, Note_on_c, 6, 53, 41
8, 69530, Note_on_c, 6, 53, 0
8, 69558, Note_on_c, 6, 60, 0
8, 69562, Control_c, 6, 64, 0
8, 69854, Note_on_c, 6, 53, 55
8, 69854, Note_on_c, 6, 59, 64
8, 69966, Note_on_c, 6, 59, 0
8, 70046, Note_on_c, 6, 53, 0
8, 70238, Control_c, 6, 64, 127
8, 70238, Note_on_c, 6, 59, 49
8, 70238, Note_on_c, 6, 53, 41
8, 70298, Note_on_c, 6, 53, 0
8, 70326, Note_on_c, 6, 59, 0
8, 70334, Control_c, 6, 64, 0
8, 70618, Note_on_c, 6, 51, 55
8, 70622, Note_on_c, 6, 58, 64
8, 70734, Note_on_c, 6, 58, 0
8, 70814, Note_on_c, 6, 51, 0
8, 71006, Control_c, 6, 64, 127
8, 71006, Note_on_c, 6, 58, 49
8, 71006, Note_on_c, 6, 51, 41
8, 71066, Note_on_c, 6, 51, 0
8, 71094, Note_on_c, 6, 58, 0
8, 71094, Control_c, 6, 64, 0
8, 71382, Note_on_c, 6, 51, 55
8, 71390, Note_on_c, 6, 57, 64
8, 71502, Note_on_c, 6, 57, 0
8, 71582, Note_on_c, 6, 51, 0
8, 71774, Control_c, 6, 64, 127
8, 71774, Note_on_c, 6, 57, 49
8, 71774, Note_on_c, 6, 51, 41
8, 71830, Note_on_c, 6, 51, 0
8, 71862, Note_on_c, 6, 57, 0
8, 71862, Control_c, 6, 64, 0
8, 72158, Note_on_c, 6, 51, 55
8, 72158, Note_on_c, 6, 56, 64
8, 72270, Note_on_c, 6, 56, 0
8, 72350, Note_on_c, 6, 51, 0
8, 72542, Control_c, 6, 64, 127
8, 72542, Note_on_c, 6, 56, 49
8, 72542, Note_on_c, 6, 51, 41
8, 72598, Note_on_c, 6, 51, 0
8, 72630, Note_on_c, 6, 56, 0
8, 72630, Control_c, 6, 64, 0
8, 72922, Note_on_c, 6, 50, 55
8, 72926, Note_on_c, 6, 56, 64
8, 73038, Note_on_c, 6, 56, 0
8, 73118, Note_on_c, 6, 50, 0
8, 73310, Control_c, 6, 64, 127
8, 73310, Note_on_c, 6, 56, 49
8, 73310, Note_on_c, 6, 50, 41
8, 73370, Note_on_c, 6, 50, 0
8, 73394, Note_on_c, 6, 56, 0
8, 73402, Control_c, 6, 64, 0
8, 73690, Note_on_c, 6, 48, 55
8, 73694, Note_on_c, 6, 55, 64
8, 73806, Note_on_c, 6, 55, 0
8, 73886, Note_on_c, 6, 48, 0
8, 74078, Control_c, 6, 64, 127
8, 74078, Note_on_c, 6, 55, 49
8, 74078, Note_on_c, 6, 48, 41
8, 74138, Note_on_c, 6, 48, 0
8, 74166, Note_on_c, 6, 55, 0
8, 74170, Control_c, 6, 64, 0
8, 74458, Note_on_c, 6, 54, 55
8, 74462, Note_on_c, 6, 60, 64
8, 74574, Note_on_c, 6, 60, 0
8, 74654, Note_on_c, 6, 54, 0
8, 74846, Control_c, 6, 64, 127
8, 74846, Note_on_c, 6, 60, 49
8, 74846, Note_on_c, 6, 54, 41
8, 74906, Note_on_c, 6, 54, 0
8, 74934, Note_on_c, 6, 60, 0
8, 74942, Control_c, 6, 64, 0
8, 75230, Note_on_c, 6, 53, 55
8, 75230, Note_on_c, 6, 60, 64
8, 75342, Note_on_c, 6, 60, 0
8, 75422, Note_on_c, 6, 53, 0
8, 75610, Control_c, 6, 64, 0
8, 75614, Control_c, 6, 64, 0
8, 75614, Note_on_c, 6, 53, 55
8, 75614, Note_on_c, 6, 59, 64
8, 75726, Note_on_c, 6, 59, 0
8, 75806, Note_on_c, 6, 53, 0
8, 75994, Control_c, 6, 64, 0
8, 75998, Control_c, 6, 64, 0
8, 75998, Note_on_c, 6, 51, 55
8, 75998, Note_on_c, 6, 58, 64
8, 76110, Note_on_c, 6, 58, 0
8, 76190, Note_on_c, 6, 51, 0
8, 76378, Control_c, 6, 64, 0
8, 76382, Control_c, 6, 64, 0
8, 76382, Note_on_c, 6, 51, 55
8, 76386, Note_on_c, 6, 57, 64
8, 76494, Note_on_c, 6, 57, 0
8, 76574, Note_on_c, 6, 51, 0
8, 76762, Control_c, 6, 64, 0
8, 76762, Control_c, 6, 64, 0
8, 76766, Note_on_c, 6, 50, 55
8, 76766, Note_on_c, 6, 55, 64
8, 76878, Note_on_c, 6, 55, 0
8, 76958, Note_on_c, 6, 50, 0
8, 77150, Control_c, 6, 64, 127
8, 77150, Note_on_c, 6, 55, 49
8, 77150, Note_on_c, 6, 50, 41
8, 77206, Note_on_c, 6, 50, 0
8, 77238, Note_on_c, 6, 55, 0
8, 77238, Control_c, 6, 64, 0
8, 77534, Note_on_c, 6, 50, 55
8, 77534, Note_on_c, 6, 56, 64
8, 77646, Note_on_c, 6, 56, 0
8, 77726, Note_on_c, 6, 50, 0
8, 77918, Control_c, 6, 64, 127
8, 77918, Note_on_c, 6, 56, 49
8, 77918, Note_on_c, 6, 50, 41
8, 77970, Note_on_c, 6, 50, 0
8, 78006, Note_on_c, 6, 56, 0
8, 78006, Control_c, 6, 64, 0
8, 78302, Note_on_c, 6, 48, 55
8, 78302, Note_on_c, 6, 55, 64
8, 78414, Note_on_c, 6, 55, 0
8, 78494, Note_on_c, 6, 48, 0
8, 78686, Control_c, 6, 64, 127
8, 78686, Note_on_c, 6, 55, 49
8, 78686, Note_on_c, 6, 48, 41
8, 78746, Note_on_c, 6, 48, 0
8, 78766, Note_on_c, 6, 55, 0
8, 78770, Control_c, 6, 64, 0
8, 79070, Note_on_c, 6, 52, 55
8, 79070, Note_on_c, 6, 58, 64
8, 79182, Note_on_c, 6, 58, 0
8, 79262, Note_on_c, 6, 52, 0
8, 79454, Control_c, 6, 64, 127
8, 79454, Note_on_c, 6, 58, 49
8, 79454, Note_on_c, 6, 52, 41
8, 79514, Note_on_c, 6, 52, 0
8, 79542, Note_on_c, 6, 58, 0
8, 79550, Control_c, 6, 64, 0
8, 79834, Note_on_c, 6, 51, 55
8, 79838, Note_on_c, 6, 56, 64
8, 79950, Note_on_c, 6, 56, 0
8, 80030, Note_on_c, 6, 51, 0
8, 80222, Control_c, 6, 64, 127
8, 80222, Note_on_c, 6, 56, 49
8, 80222, Note_on_c, 6, 51, 41
8, 80282, Note_on_c, 6, 51, 0
8, 80310, Note_on_c, 6, 56, 0
8, 80310, Control_c, 6, 64, 0
8, 80602, Note_on_c, 6, 50, 55
8, 80606, Note_on_c, 6, 56, 64
8, 80718, Note_on_c, 6, 56, 0
8, 80798, Note_on_c, 6, 50, 0
8, 80986, Control_c, 6, 64, 127
8, 80990, Note_on_c, 6, 56, 49
8, 80994, Note_on_c, 6, 50, 41
8, 81050, Note_on_c, 6, 50, 0
8, 81078, Note_on_c, 6, 56, 0
8, 81082, Control_c, 6, 64, 0
8, 81370, Note_on_c, 6, 53, 55
8, 81374, Note_on_c, 6, 58, 64
8, 81486, Note_on_c, 6, 58, 0
8, 81566, Note_on_c, 6, 53, 0
8, 81758, Control_c, 6, 64, 127
8, 81758, Note_on_c, 6, 58, 49
8, 81758, Note_on_c, 6, 53, 41
8, 81814, Note_on_c, 6, 53, 0
8, 81846, Note_on_c, 6, 58, 0
8, 81846, Control_c, 6, 64, 0
8, 82142, Note_on_c, 6, 52, 55
8, 82142, Note_on_c, 6, 58, 64
8, 82254, Note_on_c, 6, 58, 0
8, 82334, Note_on_c, 6, 52, 0
8, 82526, Control_c, 6, 64, 127
8, 82526, Note_on_c, 6, 58, 49
8, 82526, Note_on_c, 6, 52, 41
8, 82578, Note_on_c, 6, 52, 0
8, 82614, Note_on_c, 6, 58, 0
8, 82614, Control_c, 6, 64, 0
8, 82910, Note_on_c, 6, 51, 55
8, 82910, Note_on_c, 6, 56, 64
8, 83022, Note_on_c, 6, 56, 0
8, 83102, Note_on_c, 6, 51, 0
8, 83294, Control_c, 6, 64, 127
8, 83294, Note_on_c, 6, 56, 49
8, 83294, Note_on_c, 6, 51, 41
8, 83354, Note_on_c, 6, 51, 0
8, 83374, Note_on_c, 6, 56, 0
8, 83378, Control_c, 6, 64, 0
8, 83674, Note_on_c, 6, 50, 55
8, 83678, Note_on_c, 6, 56, 64
8, 83790, Note_on_c, 6, 56, 0
8, 83870, Note_on_c, 6, 50, 0
8, 84062, Control_c, 6, 64, 127
8, 84062, Note_on_c, 6, 56, 49
8, 84062, Note_on_c, 6, 50, 41
8, 84122, Note_on_c, 6, 50, 0
8, 84150, Note_on_c, 6, 56, 0
8, 84158, Control_c, 6, 64, 0
8, 84446, Note_on_c, 6, 49, 55
8, 84446, Note_on_c, 6, 56, 64
8, 84558, Note_on_c, 6, 56, 0
8, 84638, Note_on_c, 6, 49, 0
8, 84826, Control_c, 6, 64, 127
8, 84830, Note_on_c, 6, 56, 49
8, 84830, Note_on_c, 6, 49, 41
8, 84890, Note_on_c, 6, 49, 0
8, 84918, Note_on_c, 6, 56, 0
8, 84918, Control_c, 6, 64, 0
8, 85214, Note_on_c, 6, 49, 55
8, 85214, Note_on_c, 6, 55, 64
8, 85326, Note_on_c, 6, 55, 0
8, 85406, Note_on_c, 6, 49, 0
8, 85598, Control_c, 6, 64, 127
8, 85598, Note_on_c, 6, 55, 49
8, 85598, Note_on_c, 6, 49, 41
8, 85658, Note_on_c, 6, 49, 0
8, 85686, Note_on_c, 6, 55, 0
8, 85686, Control_c, 6, 64, 0
8, 85978, Note_on_c, 6, 55, 55
8, 85982, Note_on_c, 6, 60, 64
8, 86094, Note_on_c, 6, 60, 0
8, 86174, Note_on_c, 6, 55, 0
8, 86362, Control_c, 6, 64, 127
8, 86366, Note_on_c, 6, 60, 49
8, 86366, Note_on_c, 6, 55, 41
8, 86422, Note_on_c, 6, 55, 0
8, 86454, Note_on_c, 6, 60, 0
8, 86454, Control_c, 6, 64, 0
8, 86746, Note_on_c, 6, 53, 55
8, 86750, Note_on_c, 6, 59, 64
8, 86862, Note_on_c, 6, 59, 0
8, 86942, Note_on_c, 6, 53, 0
8, 87134, Control_c, 6, 64, 127
8, 87134, Note_on_c, 6, 59, 49
8, 87134, Note_on_c, 6, 53, 41
8, 87190, Note_on_c, 6, 53, 0
8, 87222, Note_on_c, 6, 59, 0
8, 87222, Control_c, 6, 64, 0
8, 87518, Note_on_c, 6, 53, 55
8, 87518, Note_on_c, 6, 58, 64
8, 87630, Note_on_c, 6, 58, 0
8, 87710, Note_on_c, 6, 53, 0
8, 87902, Control_c, 6, 64, 0
8, 87902, Control_c, 6, 64, 0
8, 87902, Note_on_c, 6, 52, 55
8, 87902, Note_on_c, 6, 58, 64
8, 88014, Note_on_c, 6, 58, 0
8, 88094, Note_on_c, 6, 52, 0
8, 88286, Control_c, 6, 64, 0
8, 88286, Control_c, 6, 64, 0
8, 88286, Note_on_c, 6, 51, 55
8, 88286, Note_on_c, 6, 56, 64
8, 88398, Note_on_c, 6, 56, 0
8, 88478, Note_on_c, 6, 51, 0
8, 88670, Control_c, 6, 64, 0
8, 88670, Control_c, 6, 64, 0
8, 88670, Note_on_c, 6, 50, 55
8, 88670, Note_on_c, 6, 56, 64
8, 88782, Note_on_c, 6, 56, 0
8, 88862, Note_on_c, 6, 50, 0
8, 89050, Control_c, 6, 64, 0
8, 89054, Control_c, 6, 64, 0
8, 89054, Note_on_c, 6, 48, 55
8, 89054, Note_on_c, 6, 55, 64
8, 89166, Note_on_c, 6, 55, 0
8, 89246, Note_on_c, 6, 48, 0
8, 89438, Control_c, 6, 64, 127
8, 89438, Note_on_c, 6, 55, 49
8, 89438, Note_on_c, 6, 48, 41
8, 89498, Note_on_c, 6, 48, 0
8, 89526, Note_on_c, 6, 55, 0
8, 89534, Control_c, 6, 64, 0
8, 89818, Note_on_c, 6, 51, 55
8, 89822, Note_on_c, 6, 57, 64
8, 89934, Note_on_c, 6, 57, 0
8, 90014, Note_on_c, 6, 51, 0
8, 90206, Control_c, 6, 64, 127
8, 90206, Note_on_c, 6, 57, 49
8, 90206, Note_on_c, 6, 51, 41
8, 90266, Note_on_c, 6, 51, 0
8, 90294, Note_on_c, 6, 57, 0
8, 90294, Control_c, 6, 64, 0
8, 90586, Note_on_c, 6, 50, 55
8, 90590, Note_on_c, 6, 55, 64
8, 90702, Note_on_c, 6, 55, 0
8, 90782, Note_on_c, 6, 50, 0
8, 90974, Control_c, 6, 64, 127
8, 90974, Note_on_c, 6, 55, 49
8, 90974, Note_on_c, 6, 50, 41
8, 91026, Note_on_c, 6, 50, 0
8, 91062, Note_on_c, 6, 55, 0
8, 91062, Control_c, 6, 64, 0
8, 91358, Note_on_c, 6, 53, 55
8, 91358, Note_on_c, 6, 58, 64
8, 91470, Note_on_c, 6, 58, 0
8, 91550, Note_on_c, 6, 53, 0
8, 91742, Control_c, 6, 64, 127
8, 91742, Note_on_c, 6, 58, 49
8, 91742, Note_on_c, 6, 53, 41
8, 91798, Note_on_c, 6, 53, 0
8, 91830, Note_on_c, 6, 58, 0
8, 91830, Control_c, 6, 64, 0
8, 92126, Note_on_c, 6, 51, 55
8, 92126, Note_on_c, 6, 58, 64
8, 92238, Note_on_c, 6, 58, 0
8, 92318, Note_on_c, 6, 51, 0
8, 92510, Control_c, 6, 64, 127
8, 92510, Note_on_c, 6, 58, 49
8, 92510, Note_on_c, 6, 51, 41
8, 92570, Note_on_c, 6, 51, 0
8, 92590, Note_on_c, 6, 58, 0
8, 92598, Control_c, 6, 64, 0
8, 92890, Note_on_c, 6, 51, 55
8, 92894, Note_on_c, 6, 57, 64
8, 93006, Note_on_c, 6, 57, 0
8, 93086, Note_on_c, 6, 51, 0
8, 93278, Control_c, 6, 64, 127
8, 93278, Note_on_c, 6, 57, 49
8, 93278, Note_on_c, 6, 51, 41
8, 93338, Note_on_c, 6, 51, 0
8, 93366, Note_on_c, 6, 57, 0
8, 93370, Control_c, 6, 64, 0
8, 93662, Note_on_c, 6, 53, 55
8, 93662, Note_on_c, 6, 60, 64
8, 93774, Note_on_c, 6, 60, 0
8, 93854, Note_on_c, 6, 53, 0
8, 94046, Control_c, 6, 64, 127
8, 94046, Note_on_c, 6, 60, 49
8, 94046, Note_on_c, 6, 53, 41
8, 94106, Note_on_c, 6, 53, 0
8, 94134, Note_on_c, 6, 60, 0
8, 94142, Control_c, 6, 64, 0
8, 94426, Note_on_c, 6, 53, 55
8, 94430, Note_on_c, 6, 59, 64
8, 94542, Note_on_c, 6, 59, 0
8, 94622, Note_on_c, 6, 53, 0
8, 94814, Control_c, 6, 64, 127
8, 94814, Note_on_c, 6, 59, 49
8, 94814, Note_on_c, 6, 53, 41
8, 94874, Note_on_c, 6, 53, 0
8, 94902, Note_on_c, 6, 59, 0
8, 94906, Control_c, 6, 64, 0
8, 95198, Note_on_c, 6, 51, 55
8, 95198, Note_on_c, 6, 58, 64
8, 95310, Note_on_c, 6, 58, 0
8, 95390, Note_on_c, 6, 51, 0
8, 95578, Control_c, 6, 64, 127
8, 95582, Note_on_c, 6, 58, 49
8, 95582, Note_on_c, 6, 51, 41
8, 95642, Note_on_c, 6, 51, 0
8, 95670, Note_on_c, 6, 58, 0
8, 95670, Control_c, 6, 64, 0
8, 95966, Note_on_c, 6, 51, 55
8, 95966, Note_on_c, 6, 57, 64
8, 96078, Note_on_c, 6, 57, 0
8, 96158, Note_on_c, 6, 51, 0
8, 96350, Control_c, 6, 64, 127
8, 96350, Note_on_c, 6, 57, 49
8, 96350, Note_on_c, 6, 51, 41
8, 96406, Note_on_c, 6, 51, 0
8, 96438, Note_on_c, 6, 57, 0
8, 96438, Control_c, 6, 64, 0
8, 96730, Note_on_c, 6, 51, 55
8, 96734, Note_on_c, 6, 56, 64
8, 96846, Note_on_c, 6, 56, 0
8, 96926, Note_on_c, 6, 51, 0
8, 97118, Control_c, 6, 64, 127
8, 97118, Note_on_c, 6, 56, 49
8, 97118, Note_on_c, 6, 51, 41
8, 97170, Note_on_c, 6, 51, 0
8, 97206, Note_on_c, 6, 56, 0
8, 97206, Control_c, 6, 64, 0
8, 97498, Note_on_c, 6, 50, 55
8, 97502, Note_on_c, 6, 56, 64
8, 97614, Note_on_c, 6, 56, 0
8, 97694, Note_on_c, 6, 50, 0
8, 97886, Control_c, 6, 64, 127
8, 97886, Note_on_c, 6, 56, 49
8, 97886, Note_on_c, 6, 50, 41
8, 97946, Note_on_c, 6, 50, 0
8, 97966, Note_on_c, 6, 56, 0
8, 97970, Control_c, 6, 64, 0
8, 98270, Note_on_c, 6, 48, 55
8, 98270, Note_on_c, 6, 55, 64
8, 98382, Note_on_c, 6, 55, 0
8, 98462, Note_on_c, 6, 48, 0
8, 98650, Control_c, 6, 64, 127
8, 98654, Note_on_c, 6, 55, 49
8, 98654, Note_on_c, 6, 48, 41
8, 98714, Note_on_c, 6, 48, 0
8, 98742, Note_on_c, 6, 55, 0
8, 98750, Control_c, 6, 64, 0
8, 99034, Note_on_c, 6, 54, 55
8, 99038, Note_on_c, 6, 60, 64
8, 99150, Note_on_c, 6, 60, 0
8, 99230, Note_on_c, 6, 54, 0
8, 99422, Control_c, 6, 64, 127
8, 99422, Note_on_c, 6, 60, 49
8, 99422, Note_on_c, 6, 54, 41
8, 99482, Note_on_c, 6, 54, 0
8, 99510, Note_on_c, 6, 60, 0
8, 99514, Control_c, 6, 64, 0
8, 99802, Note_on_c, 6, 53, 55
8, 99806, Note_on_c, 6, 60, 64
8, 99918, Note_on_c, 6, 60, 0
8, 99998, Note_on_c, 6, 53, 0
8, 100186, Control_c, 6, 64, 0
8, 100186, Control_c, 6, 64, 0
8, 100190, Note_on_c, 6, 53, 55
8, 100190, Note_on_c, 6, 59, 64
8, 100302, Note_on_c, 6, 59, 0
8, 100382, Note_on_c, 6, 53, 0
8, 100570, Control_c, 6, 64, 0
8, 100570, Control_c, 6, 64, 0
8, 100574, Note_on_c, 6, 51, 55
8, 100574, Note_on_c, 6, 58, 64
8, 100686, Note_on_c, 6, 58, 0
8, 100766, Note_on_c, 6, 51, 0
8, 100958, Control_c, 6, 64, 0
8, 100958, Control_c, 6, 64, 0
8, 100958, Note_on_c, 6, 51, 55
8, 100958, Note_on_c, 6, 57, 64
8, 101070, Note_on_c, 6, 57, 0
8, 101150, Note_on_c, 6, 51, 0
8, 101338, Control_c, 6, 64, 0
8, 101342, Control_c, 6, 64, 0
8, 101342, Note_on_c, 6, 50, 55
8, 101342, Note_on_c, 6, 55, 64
8, 101454, Note_on_c, 6, 55, 0
8, 101534, Note_on_c, 6, 50, 0
8, 101726, Control_c, 6, 64, 127
8, 101726, Note_on_c, 6, 55, 49
8, 101726, Note_on_c, 6, 50, 41
8, 101778, Note_on_c, 6, 50, 0
8, 101814, Note_on_c, 6, 55, 0
8, 101814, Control_c, 6, 64, 0
8, 102110, Note_on_c, 6, 51, 55
8, 102110, Note_on_c, 6, 57, 64
8, 102222, Note_on_c, 6, 57, 0
8, 102302, Note_on_c, 6, 51, 0
8, 102494, Control_c, 6, 64, 127
8, 102494, Note_on_c, 6, 57, 49
8, 102494, Note_on_c, 6, 51, 41
8, 102554, Note_on_c, 6, 51, 0
8, 102574, Note_on_c, 6, 57, 0
8, 102578, Control_c, 6, 64, 0
8, 102878, Note_on_c, 6, 50, 55
8, 102878, Note_on_c, 6, 55, 64
8, 102990, Note_on_c, 6, 55, 0
8, 103070, Note_on_c, 6, 50, 0
8, 103262, Control_c, 6, 64, 127
8, 103262, Note_on_c, 6, 55, 49
8, 103262, Note_on_c, 6, 50, 41
8, 103322, Note_on_c, 6, 50, 0
8, 103350, Note_on_c, 6, 55, 0
8, 103358, Control_c, 6, 64, 0
8, 103646, Note_on_c, 6, 53, 55
8, 103646, Note_on_c, 6, 58, 64
8, 103758, Note_on_c, 6, 58, 0
8, 103838, Note_on_c, 6, 53, 0
8, 104030, Control_c, 6, 64, 127
8, 104030, Note_on_c, 6, 58, 49
8, 104030, Note_on_c, 6, 53, 41
8, 104090, Note_on_c, 6, 53, 0
8, 104118, Note_on_c, 6, 58, 0
8, 104122, Control_c, 6, 64, 0
8, 104410, Note_on_c, 6, 51, 55
8, 104414, Note_on_c, 6, 58, 64
8, 104526, Note_on_c, 6, 58, 0
8, 104606, Note_on_c, 6, 51, 0
8, 104798, Control_c, 6, 64, 127
8, 104798, Note_on_c, 6, 58, 49
8, 104798, Note_on_c, 6, 51, 41
8, 104858, Note_on_c, 6, 51, 0
8, 104886, Note_on_c, 6, 58, 0
8, 104886, Control_c, 6, 64, 0
8, 105178, Note_on_c, 6, 51, 55
8, 105182, Note_on_c, 6, 57, 64
8, 105294, Note_on_c, 6, 57, 0
8, 105374, Note_on_c, 6, 51, 0
8, 105566, Control_c, 6, 64, 127
8, 105566, Note_on_c, 6, 57, 49
8, 105566, Note_on_c, 6, 51, 41
8, 105622, Note_on_c, 6, 51, 0
8, 105654, Note_on_c, 6, 57, 0
8, 105654, Control_c, 6, 64, 0
8, 105950, Note_on_c, 6, 53, 55
8, 105950, Note_on_c, 6, 60, 64
8, 106062, Note_on_c, 6, 60, 0
8, 106142, Note_on_c, 6, 53, 0
8, 106334, Control_c, 6, 64, 127
8, 106334, Note_on_c, 6, 60, 49
8, 106334, Note_on_c, 6, 53, 41
8, 106386, Note_on_c, 6, 53, 0
8, 106422, Note_on_c, 6, 60, 0
8, 106422, Control_c, 6, 64, 0
8, 106718, Note_on_c, 6, 53, 55
8, 106718, Note_on_c, 6, 59, 64
8, 106830, Note_on_c, 6, 59, 0
8, 106910, Note_on_c, 6, 53, 0
8, 107102, Control_c, 6, 64, 127
8, 107102, Note_on_c, 6, 59, 49
8, 107102, Note_on_c, 6, 53, 41
8, 107162, Note_on_c, 6, 53, 0
8, 107186, Note_on_c, 6, 59, 0
8, 107194, Control_c, 6, 64, 0
8, 107482, Note_on_c, 6, 51, 55
8, 107486, Note_on_c, 6, 58, 64
8, 107598, Note_on_c, 6, 58, 0
8, 107678, Note_on_c, 6, 51, 0
8, 107866, Control_c, 6, 64, 127
8, 107870, Note_on_c, 6, 58, 49
8, 107870, Note_on_c, 6, 51, 41
8, 107930, Note_on_c, 6, 51, 0
8, 107958, Note_on_c, 6, 58, 0
8, 107962, Control_c, 6, 64, 0
8, 108250, Note_on_c, 6, 51, 55
8, 108254, Note_on_c, 6, 57, 64
8, 108366, Note_on_c, 6, 57, 0
8, 108446, Note_on_c, 6, 51, 0
8, 108638, Control_c, 6, 64, 127
8, 108638, Note_on_c, 6, 57, 49
8, 108638, Note_on_c, 6, 51, 41
8, 108698, Note_on_c, 6, 51, 0
8, 108726, Note_on_c, 6, 57, 0
8, 108734, Control_c, 6, 64, 0
8, 109022, Note_on_c, 6, 51, 55
8, 109022, Note_on_c, 6, 56, 64
8, 109134, Note_on_c, 6, 56, 0
8, 109214, Note_on_c, 6, 51, 0
8, 109406, Control_c, 6, 64, 127
8, 109406, Note_on_c, 6, 56, 49
8, 109406, Note_on_c, 6, 51, 41
8, 109466, Note_on_c, 6, 51, 0
8, 109494, Note_on_c, 6, 56, 0
8, 109494, Control_c, 6, 64, 0
8, 109786, Note_on_c, 6, 50, 55
8, 109790, Note_on_c, 6, 56, 64
8, 109902, Note_on_c, 6, 56, 0
8, 109982, Note_on_c, 6, 50, 0
8, 110174, Control_c, 6, 64, 127
8, 110174, Note_on_c, 6, 56, 49
8, 110174, Note_on_c, 6, 50, 41
8, 110230, Note_on_c, 6, 50, 0
8, 110262, Note_on_c, 6, 56, 0
8, 110262, Control_c, 6, 64, 0
8, 110558, Note_on_c, 6, 48, 55
8, 110558, Note_on_c, 6, 55, 64
8, 110670, Note_on_c, 6, 55, 0
8, 110750, Note_on_c, 6, 48, 0
8, 110938, Control_c, 6, 64, 127
8, 110942, Note_on_c, 6, 55, 49
8, 110942, Note_on_c, 6, 48, 41
8, 110998, Note_on_c, 6, 48, 0
8, 111030, Note_on_c, 6, 55, 0
8, 111030, Control_c, 6, 64, 0
8, 111326, Note_on_c, 6, 54, 55
8, 111326, Note_on_c, 6, 60, 64
8, 111438, Note_on_c, 6, 60, 0
8, 111518, Note_on_c, 6, 54, 0
8, 111710, Control_c, 6, 64, 127
8, 111710, Note_on_c, 6, 60, 49
8, 111710, Note_on_c, 6, 54, 41
8, 111770, Note_on_c, 6, 54, 0
8, 111790, Note_on_c, 6, 60, 0
8, 111798, Control_c, 6, 64, 0
8, 112094, Note_on_c, 6, 53, 55
8, 112094, Note_on_c, 6, 60, 64
8, 112206, Note_on_c, 6, 60, 0
8, 112286, Note_on_c, 6, 53, 0
8, 112478, Control_c, 6, 64, 0
8, 112478, Control_c, 6, 64, 0
8, 112478, Note_on_c, 6, 53, 55
8, 112478, Note_on_c, 6, 59, 64
8, 112590, Note_on_c, 6, 59, 0
8, 112670, Note_on_c, 6, 53, 0
8, 112862, Control_c, 6, 64, 0
8, 112862, Control_c, 6, 64, 0
8, 112862, Note_on_c, 6, 51, 55
8, 112862, Note_on_c, 6, 58, 64
8, 112974, Note_on_c, 6, 58, 0
8, 113054, Note_on_c, 6, 51, 0
8, 113246, Control_c, 6, 64, 0
8, 113246, Control_c, 6, 64, 0
8, 113246, Note_on_c, 6, 51, 55
8, 113246, Note_on_c, 6, 57, 64
8, 113358, Note_on_c, 6, 57, 0
8, 113438, Note_on_c, 6, 51, 0
8, 113626, Control_c, 6, 64, 0
8, 113630, Control_c, 6, 64, 0
8, 113630, Note_on_c, 6, 50, 55
8, 113630, Note_on_c, 6, 55, 64
8, 113742, Note_on_c, 6, 55, 0
8, 113822, Note_on_c, 6, 50, 0
8, 114014, Control_c, 6, 64, 127
8, 114014, Note_on_c, 6, 55, 49
8, 114014, Note_on_c, 6, 50, 41
8, 114074, Note_on_c, 6, 50, 0
8, 114102, Note_on_c, 6, 55, 0
8, 114102, Control_c, 6, 64, 0
8, 114394, Note_on_c, 6, 51, 55
8, 114398, Note_on_c, 6, 57, 64
8, 114510, Note_on_c, 6, 57, 0
8, 114590, Note_on_c, 6, 51, 0
8, 114782, Control_c, 6, 64, 127
8, 114786, Note_on_c, 6, 57, 49
8, 114786, Note_on_c, 6, 51, 41
8, 114842, Note_on_c, 6, 51, 0
8, 114870, Note_on_c, 6, 57, 0
8, 114874, Control_c, 6, 64, 0
8, 115166, Note_on_c, 6, 50, 55
8, 115166, Note_on_c, 6, 55, 64
8, 115278, Note_on_c, 6, 55, 0
8, 115358, Note_on_c, 6, 50, 0
8, 115550, Control_c, 6, 64, 127
8, 115550, Note_on_c, 6, 55, 49
8, 115550, Note_on_c, 6, 50, 41
8, 115602, Note_on_c, 6, 50, 0
8, 115638, Note_on_c, 6, 55, 0
8, 115638, Control_c, 6, 64, 0
8, 115934, Note_on_c, 6, 53, 55
8, 115934, Note_on_c, 6, 58, 64
8, 116046, Note_on_c, 6, 58, 0
8, 116126, Note_on_c, 6, 53, 0
8, 116318, Control_c, 6, 64, 127
8, 116318, Note_on_c, 6, 58, 49
8, 116318, Note_on_c, 6, 53, 41
8, 116370, Note_on_c, 6, 53, 0
8, 116406, Note_on_c, 6, 58, 0
8, 116406, Control_c, 6, 64, 0
8, 116702, Note_on_c, 6, 51, 55
8, 116702, Note_on_c, 6, 58, 64
8, 116814, Note_on_c, 6, 58, 0
8, 116894, Note_on_c, 6, 51, 0
8, 117086, Control_c, 6, 64, 127
8, 117086, Note_on_c, 6, 58, 49
8, 117086, Note_on_c, 6, 51, 41
8, 117146, Note_on_c, 6, 51, 0
8, 117166, Note_on_c, 6, 58, 0
8, 117170, Control_c, 6, 64, 0
8, 117470, Note_on_c, 6, 51, 55
8, 117470, Note_on_c, 6, 57, 64
8, 117582, Note_on_c, 6, 57, 0
8, 117662, Note_on_c, 6, 51, 0
8, 117854, Control_c, 6, 64, 127
8, 117854, Note_on_c, 6, 57, 49
8, 117854, Note_on_c, 6, 51, 41
8, 117914, Note_on_c, 6, 51, 0
8, 117942, Note_on_c, 6, 57, 0
8, 117950, Control_c, 6, 64, 0
8, 118238, Note_on_c, 6, 53, 55
8, 118238, Note_on_c, 6, 60, 64
8, 118350, Note_on_c, 6, 60, 0
8, 118430, Note_on_c, 6, 53, 0
8, 118618, Control_c, 6, 64, 127
8, 118622, Note_on_c, 6, 60, 49
8, 118622, Note_on_c, 6, 53, 41
8, 118682, Note_on_c, 6, 53, 0
8, 118710, Note_on_c, 6, 60, 0
8, 118710, Control_c, 6, 64, 0
8, 119006, Note_on_c, 6, 53, 55
8, 119006, Note_on_c, 6, 59, 64
8, 119118, Note_on_c, 6, 59, 0
8, 119198, Note_on_c, 6, 53, 0
8, 119390, Control_c, 6, 64, 127
8, 119390, Note_on_c, 6, 59, 49
8, 119390, Note_on_c, 6, 53, 41
8, 119450, Note_on_c, 6, 53, 0
8, 119478, Note_on_c, 6, 59, 0
8, 119482, Control_c, 6, 64, 0
8, 119774, Note_on_c, 6, 51, 55
8, 119774, Note_on_c, 6, 58, 64
8, 119886, Note_on_c, 6, 58, 0
8, 119966, Note_on_c, 6, 51, 0
8, 120158, Control_c, 6, 64, 127
8, 120158, Note_on_c, 6, 58, 49
8, 120158, Note_on_c, 6, 51, 41
8, 120214, Note_on_c, 6, 51, 0
8, 120246, Note_on_c, 6, 58, 0
8, 120246, Control_c, 6, 64, 0
8, 120542, Note_on_c, 6, 51, 55
8, 120542, Note_on_c, 6, 57, 64
8, 120654, Note_on_c, 6, 57, 0
8, 120734, Note_on_c, 6, 51, 0
8, 120926, Control_c, 6, 64, 127
8, 120926, Note_on_c, 6, 57, 49
8, 120926, Note_on_c, 6, 51, 41
8, 120978, Note_on_c, 6, 51, 0
8, 121014, Note_on_c, 6, 57, 0
8, 121014, Control_c, 6, 64, 0
8, 121310, Note_on_c, 6, 51, 55
8, 121310, Note_on_c, 6, 56, 64
8, 121422, Note_on_c, 6, 56, 0
8, 121502, Note_on_c, 6, 51, 0
8, 121694, Control_c, 6, 64, 127
8, 121694, Note_on_c, 6, 56, 49
8, 121694, Note_on_c, 6, 51, 41
8, 121754, Note_on_c, 6, 51, 0
8, 121774, Note_on_c, 6, 56, 0
8, 121778, Control_c, 6, 64, 0
8, 122074, Note_on_c, 6, 50, 55
8, 122078, Note_on_c, 6, 56, 64
8, 122190, Note_on_c, 6, 56, 0
8, 122270, Note_on_c, 6, 50, 0
8, 122462, Control_c, 6, 64, 127
8, 122462, Note_on_c, 6, 56, 49
8, 122462, Note_on_c, 6, 50, 41
8, 122522, Note_on_c, 6, 50, 0
8, 122550, Note_on_c, 6, 56, 0
8, 122558, Control_c, 6, 64, 0
8, 122846, Note_on_c, 6, 48, 55
8, 122846, Note_on_c, 6, 55, 64
8, 122958, Note_on_c, 6, 55, 0
8, 123038, Note_on_c, 6, 48, 0
8, 123230, Control_c, 6, 64, 127
8, 123230, Note_on_c, 6, 55, 49
8, 123230, Note_on_c, 6, 48, 41
8, 123290, Note_on_c, 6, 48, 0
8, 123318, Note_on_c, 6, 55, 0
8, 123318, Control_c, 6, 64, 0
8, 123610, Note_on_c, 6, 54, 55
8, 123614, Note_on_c, 6, 60, 64
8, 123726, Note_on_c, 6, 60, 0
8, 123806, Note_on_c, 6, 54, 0
8, 123998, Control_c, 6, 64, 127
8, 123998, Note_on_c, 6, 60, 49
8, 123998, Note_on_c, 6, 54, 41
8, 124058, Note_on_c, 6, 54, 0
8, 124086, Note_on_c, 6, 60, 0
8, 124090, Control_c, 6, 64, 0
8, 124378, Note_on_c, 6, 53, 55
8, 124382, Note_on_c, 6, 60, 64
8, 124494, Note_on_c, 6, 60, 0
8, 124574, Note_on_c, 6, 53, 0
8, 124766, Control_c, 6, 64, 0
8, 124766, Control_c, 6, 64, 0
8, 124766, Note_on_c, 6, 53, 55
8, 124766, Note_on_c, 6, 59, 64
8, 124878, Note_on_c, 6, 59, 0
8, 124958, Note_on_c, 6, 53, 0
8, 125146, Control_c, 6, 64, 0
8, 125150, Control_c, 6, 64, 0
8, 125150, Note_on_c, 6, 51, 55
8, 125150, Note_on_c, 6, 58, 64
8, 125262, Note_on_c, 6, 58, 0
8, 125342, Note_on_c, 6, 51, 0
8, 125534, Control_c, 6, 64, 0
8, 125534, Control_c, 6, 64, 0
8, 125534, Note_on_c, 6, 51, 55
8, 125534, Note_on_c, 6, 57, 64
8, 125646, Note_on_c, 6, 57, 0
8, 125726, Note_on_c, 6, 51, 0
8, 125914, Control_c, 6, 64, 0
8, 125918, Control_c, 6, 64, 0
8, 125918, Note_on_c, 6, 50, 55
8, 125918, Note_on_c, 6, 55, 64
8, 126030, Note_on_c, 6, 55, 0
8, 126110, Note_on_c, 6, 50, 0
8, 126298, Control_c, 6, 64, 127
8, 126302, Note_on_c, 6, 55, 49
8, 126302, Note_on_c, 6, 50, 41
8, 126362, Note_on_c, 6, 50, 0
8, 126382, Note_on_c, 6, 55, 0
8, 126390, Control_c, 6, 64, 0
8, 126686, Note_on_c, 6, 50, 55
8, 126686, Note_on_c, 6, 56, 64
8, 126798, Note_on_c, 6, 56, 0
8, 126878, Note_on_c, 6, 50, 0
8, 127070, Control_c, 6, 64, 127
8, 127070, Note_on_c, 6, 56, 49
8, 127070, Note_on_c, 6, 50, 41
8, 127130, Note_on_c, 6, 50, 0
8, 127158, Note_on_c, 6, 56, 0
8, 127162, Control_c, 6, 64, 0
8, 127454, Note_on_c, 6, 48, 55
8, 127454, Note_on_c, 6, 55, 64
8, 127566, Note_on_c, 6, 55, 0
8, 127646, Note_on_c, 6, 48, 0
8, 127838, Control_c, 6, 64, 127
8, 127838, Note_on_c, 6, 55, 49
8, 127838, Note_on_c, 6, 48, 41
8, 127898, Note_on_c, 6, 48, 0
8, 127926, Note_on_c, 6, 55, 0
8, 127934, Control_c, 6, 64, 0
8, 128218, Note_on_c, 6, 52, 55
8, 128222, Note_on_c, 6, 58, 64
8, 128334, Note_on_c, 6, 58, 0
8, 128414, Note_on_c, 6, 52, 0
8, 128606, Control_c, 6, 64, 127
8, 128606, Note_on_c, 6, 58, 49
8, 128606, Note_on_c, 6, 52, 41
8, 128666, Note_on_c, 6, 52, 0
8, 128694, Note_on_c, 6, 58, 0
8, 128698, Control_c, 6, 64, 0
8, 128986, Note_on_c, 6, 51, 55
8, 128990, Note_on_c, 6, 56, 64
8, 129102, Note_on_c, 6, 56, 0
8, 129182, Note_on_c, 6, 51, 0
8, 129374, Control_c, 6, 64, 127
8, 129374, Note_on_c, 6, 56, 49
8, 129374, Note_on_c, 6, 51, 41
8, 129430, Note_on_c, 6, 51, 0
8, 129462, Note_on_c, 6, 56, 0
8, 129462, Control_c, 6, 64, 0
8, 129754, Note_on_c, 6, 50, 55
8, 129758, Note_on_c, 6, 56, 64
8, 129870, Note_on_c, 6, 56, 0
8, 129950, Note_on_c, 6, 50, 0
8, 130142, Control_c, 6, 64, 127
8, 130142, Note_on_c, 6, 56, 49
8, 130142, Note_on_c, 6, 50, 41
8, 130198, Note_on_c, 6, 50, 0
8, 130230, Note_on_c, 6, 56, 0
8, 130230, Control_c, 6, 64, 0
8, 130526, Note_on_c, 6, 53, 55
8, 130526, Note_on_c, 6, 58, 64
8, 130638, Note_on_c, 6, 58, 0
8, 130718, Note_on_c, 6, 53, 0
8, 130910, Control_c, 6, 64, 127
8, 130910, Note_on_c, 6, 58, 49
8, 130910, Note_on_c, 6, 53, 41
8, 130970, Note_on_c, 6, 53, 0
8, 130990, Note_on_c, 6, 58, 0
8, 130998, Control_c, 6, 64, 0
8, 131294, Note_on_c, 6, 52, 55
8, 131294, Note_on_c, 6, 58, 64
8, 131406, Note_on_c, 6, 58, 0
8, 131486, Note_on_c, 6, 52, 0
8, 131678, Control_c, 6, 64, 127
8, 131678, Note_on_c, 6, 58, 49
8, 131682, Note_on_c, 6, 52, 41
8, 131738, Note_on_c, 6, 52, 0
8, 131766, Note_on_c, 6, 58, 0
8, 131770, Control_c, 6, 64, 0
8, 132062, Note_on_c, 6, 51, 55
8, 132062, Note_on_c, 6, 56, 64
8, 132174, Note_on_c, 6, 56, 0
8, 132254, Note_on_c, 6, 51, 0
8, 132442, Control_c, 6, 64, 127
8, 132446, Note_on_c, 6, 56, 49
8, 132446, Note_on_c, 6, 51, 41
8, 132506, Note_on_c, 6, 51, 0
8, 132534, Note_on_c, 6, 56, 0
8, 132542, Control_c, 6, 64, 0
8, 132826, Note_on_c, 6, 50, 55
8, 132830, Note_on_c, 6, 56, 64
8, 132942, Note_on_c, 6, 56, 0
8, 133022, Note_on_c, 6, 50, 0
8, 133214, Control_c, 6, 64, 127
8, 133214, Note_on_c, 6, 56, 49
8, 133214, Note_on_c, 6, 50, 41
8, 133274, Note_on_c, 6, 50, 0
8, 133302, Note_on_c, 6, 56, 0
8, 133302, Control_c, 6, 64, 0
8, 133594, Note_on_c, 6, 49, 55
8, 133598, Note_on_c, 6, 56, 64
8, 133710, Note_on_c, 6, 56, 0
8, 133790, Note_on_c, 6, 49, 0
8, 133978, Control_c, 6, 64, 127
8, 133982, Note_on_c, 6, 56, 49
8, 133982, Note_on_c, 6, 49, 41
8, 134042, Note_on_c, 6, 49, 0
8, 134070, Note_on_c, 6, 56, 0
8, 134070, Control_c, 6, 64, 0
8, 134362, Note_on_c, 6, 49, 55
8, 134366, Note_on_c, 6, 55, 64
8, 134478, Note_on_c, 6, 55, 0
8, 134558, Note_on_c, 6, 49, 0
8, 134750, Control_c, 6, 64, 127
8, 134750, Note_on_c, 6, 55, 49
8, 134750, Note_on_c, 6, 49, 41
8, 134806, Note_on_c, 6, 49, 0
8, 134838, Note_on_c, 6, 55, 0
8, 134838, Control_c, 6, 64, 0
8, 135134, Note_on_c, 6, 55, 55
8, 135134, Note_on_c, 6, 60, 64
8, 135246, Note_on_c, 6, 60, 0
8, 135326, Note_on_c, 6, 55, 0
8, 135518, Control_c, 6, 64, 127
8, 135518, Note_on_c, 6, 60, 49
8, 135518, Note_on_c, 6, 55, 41
8, 135570, Note_on_c, 6, 55, 0
8, 135606, Note_on_c, 6, 60, 0
8, 135606, Control_c, 6, 64, 0
8, 135902, Note_on_c, 6, 53, 55
8, 135902, Note_on_c, 6, 59, 64
8, 136014, Note_on_c, 6, 59, 0
8, 136094, Note_on_c, 6, 53, 0
8, 136286, Control_c, 6, 64, 127
8, 136286, Note_on_c, 6, 59, 49
8, 136286, Note_on_c, 6, 53, 41
8, 136346, Note_on_c, 6, 53, 0
8, 136366, Note_on_c, 6, 59, 0
8, 136370, Control_c, 6, 64, 0
8, 136666, Note_on_c, 6, 53, 55
8, 136670, Note_on_c, 6, 58, 64
8, 136782, Note_on_c, 6, 58, 0
8, 136862, Note_on_c, 6, 53, 0
8, 137054, Control_c, 6, 64, 0
8, 137054, Control_c, 6, 64, 0
8, 137054, Note_on_c, 6, 52, 55
8, 137054, Note_on_c, 6, 58, 64
8, 137166, Note_on_c, 6, 58, 0
8, 137246, Note_on_c, 6, 52, 0
8, 137434, Control_c, 6, 64, 0
8, 137438, Control_c, 6, 64, 0
8, 137438, Note_on_c, 6, 51, 55
8, 137438, Note_on_c, 6, 56, 64
8, 137550, Note_on_c, 6, 56, 0
8, 137630, Note_on_c, 6, 51, 0
8, 137822, Control_c, 6, 64, 0
8, 137822, Control_c, 6, 64, 0
8, 137822, Note_on_c, 6, 50, 55
8, 137822, Note_on_c, 6, 56, 64
8, 137934, Note_on_c, 6, 56, 0
8, 138014, Note_on_c, 6, 50, 0
8, 138202, Control_c, 6, 64, 0
8, 138206, Control_c, 6, 64, 0
8, 138206, Note_on_c, 6, 48, 55
8, 138206, Note_on_c, 6, 55, 64
8, 138318, Note_on_c, 6, 55, 0
8, 138398, Note_on_c, 6, 48, 0
8, 138586, Control_c, 6, 64, 127
8, 138590, Note_on_c, 6, 55, 49
8, 138590, Note_on_c, 6, 48, 41
8, 138650, Note_on_c, 6, 48, 0
8, 138678, Note_on_c, 6, 55, 0
8, 138678, Control_c, 6, 64, 0
8, 138970, Note_on_c, 6, 51, 55
8, 138974, Note_on_c, 6, 57, 64
8, 139086, Note_on_c, 6, 57, 0
8, 139166, Note_on_c, 6, 51, 0
8, 139358, Control_c, 6, 64, 127
8, 139358, Note_on_c, 6, 57, 49
8, 139358, Note_on_c, 6, 51, 41
8, 139414, Note_on_c, 6, 51, 0
8, 139446, Note_on_c, 6, 57, 0
8, 139450, Control_c, 6, 64, 0
8, 139742, Note_on_c, 6, 50, 55
8, 139742, Note_on_c, 6, 55, 64
8, 139854, Note_on_c, 6, 55, 0
8, 139934, Note_on_c, 6, 50, 0
8, 140126, Control_c, 6, 64, 127
8, 140126, Note_on_c, 6, 55, 49
8, 140126, Note_on_c, 6, 50, 41
8, 140178, Note_on_c, 6, 50, 0
8, 140214, Note_on_c, 6, 55, 0
8, 140214, Control_c, 6, 64, 0
8, 140510, Note_on_c, 6, 53, 55
8, 140510, Note_on_c, 6, 58, 64
8, 140622, Note_on_c, 6, 58, 0
8, 140702, Note_on_c, 6, 53, 0
8, 140894, Control_c, 6, 64, 127
8, 140894, Note_on_c, 6, 58, 49
8, 140894, Note_on_c, 6, 53, 41
8, 140954, Note_on_c, 6, 53, 0
8, 140974, Note_on_c, 6, 58, 0
8, 140978, Control_c, 6, 64, 0
8, 141278, Note_on_c, 6, 51, 55
8, 141278, Note_on_c, 6, 58, 64
8, 141390, Note_on_c, 6, 58, 0
8, 141470, Note_on_c, 6, 51, 0
8, 141662, Control_c, 6, 64, 127
8, 141662, Note_on_c, 6, 58, 49
8, 141662, Note_on_c, 6, 51, 41
8, 141722, Note_on_c, 6, 51, 0
8, 141750, Note_on_c, 6, 58, 0
8, 141758, Control_c, 6, 64, 0
8, 142042, Note_on_c, 6, 51, 55
8, 142046, Note_on_c, 6, 57, 64
8, 142158, Note_on_c, 6, 57, 0
8, 142238, Note_on_c, 6, 51, 0
8, 142430, Control_c, 6, 64, 127
8, 142430, Note_on_c, 6, 57, 49
8, 142430, Note_on_c, 6, 51, 41
8, 142490, Note_on_c, 6, 51, 0
8, 142518, Note_on_c, 6, 57, 0
8, 142518, Control_c, 6, 64, 0
8, 142814, Note_on_c, 6, 53, 55
8, 142814, Note_on_c, 6, 60, 64
8, 142926, Note_on_c, 6, 60, 0
8, 143006, Note_on_c, 6, 53, 0
8, 143198, Control_c, 6, 64, 127
8, 143198, Note_on_c, 6, 60, 49
8, 143198, Note_on_c, 6, 53, 41
8, 143258, Note_on_c, 6, 53, 0
8, 143286, Note_on_c, 6, 60, 0
8, 143286, Control_c, 6, 64, 0
8, 143578, Note_on_c, 6, 53, 55
8, 143582, Note_on_c, 6, 59, 64
8, 143694, Note_on_c, 6, 59, 0
8, 143774, Note_on_c, 6, 53, 0
8, 143966, Control_c, 6, 64, 127
8, 143966, Note_on_c, 6, 59, 49
8, 143966, Note_on_c, 6, 53, 41
8, 144022, Note_on_c, 6, 53, 0
8, 144054, Note_on_c, 6, 59, 0
8, 144054, Control_c, 6, 64, 0
8, 144350, Note_on_c, 6, 51, 55
8, 144350, Note_on_c, 6, 58, 64
8, 144462, Note_on_c, 6, 58, 0
8, 144542, Note_on_c, 6, 51, 0
8, 144730, Control_c, 6, 64, 127
8, 144734, Note_on_c, 6, 58, 49
8, 144734, Note_on_c, 6, 51, 41
8, 144790, Note_on_c, 6, 51, 0
8, 144822, Note_on_c, 6, 58, 0
8, 144822, Control_c, 6, 64, 0
8, 145114, Note_on_c, 6, 51, 55
8, 145118, Note_on_c, 6, 57, 64
8, 145230, Note_on_c, 6, 57, 0
8, 145310, Note_on_c, 6, 51, 0
8, 145502, Control_c, 6, 64, 127
8, 145502, Note_on_c, 6, 57, 49
8, 145502, Note_on_c, 6, 51, 41
8, 145562, Note_on_c, 6, 51, 0
8, 145582, Note_on_c, 6, 57, 0
8, 145590, Control_c, 6, 64, 0
8, 145886, Note_on_c, 6, 51, 55
8, 145886, Note_on_c, 6, 56, 64
8, 145998, Note_on_c, 6, 56, 0
8, 146078, Note_on_c, 6, 51, 0
8, 146270, Control_c, 6, 64, 127
8, 146270, Note_on_c, 6, 56, 49
8, 146270, Note_on_c, 6, 51, 41
8, 146330, Note_on_c, 6, 51, 0
8, 146358, Note_on_c, 6, 56, 0
8, 146362, Control_c, 6, 64, 0
8, 146654, Note_on_c, 6, 50, 55
8, 146654, Note_on_c, 6, 56, 64
8, 146766, Note_on_c, 6, 56, 0
8, 146846, Note_on_c, 6, 50, 0
8, 147038, Control_c, 6, 64, 127
8, 147038, Note_on_c, 6, 56, 49
8, 147038, Note_on_c, 6, 50, 41
8, 147098, Note_on_c, 6, 50, 0
8, 147126, Note_on_c, 6, 56, 0
8, 147134, Control_c, 6, 64, 0
8, 147418, Note_on_c, 6, 48, 55
8, 147422, Note_on_c, 6, 55, 64
8, 147534, Note_on_c, 6, 55, 0
8, 147614, Note_on_c, 6, 48, 0
8, 147806, Control_c, 6, 64, 127
8, 147806, Note_on_c, 6, 55, 49
8, 147806, Note_on_c, 6, 48, 41
8, 147866, Note_on_c, 6, 48, 0
8, 147894, Note_on_c, 6, 55, 0
8, 147894, Control_c, 6, 64, 0
8, 148182, Note_on_c, 6, 54, 55
8, 148190, Note_on_c, 6, 60, 64
8, 148302, Note_on_c, 6, 60, 0
8, 148382, Note_on_c, 6, 54, 0
8, 148574, Control_c, 6, 64, 127
8, 148574, Note_on_c, 6, 60, 49
8, 148574, Note_on_c, 6, 54, 41
8, 148630, Note_on_c, 6, 54, 0
8, 148662, Note_on_c, 6, 60, 0
8, 148662, Control_c, 6, 64, 0
8, 148958, Note_on_c, 6, 53, 55
8, 148958, Note_on_c, 6, 60, 64
8, 149070, Note_on_c, 6, 60, 0
8, 149150, Note_on_c, 6, 53, 0
8, 149342, Control_c, 6, 64, 0
8, 149342, Control_c, 6, 64, 0
8, 149342, Note_on_c, 6, 53, 55
8, 149342, Note_on_c, 6, 59, 64
8, 149454, Note_on_c, 6, 59, 0
8, 149534, Note_on_c, 6, 53, 0
8, 149722, Control_c, 6, 64, 0
8, 149726, Control_c, 6, 64, 0
8, 149726, Note_on_c, 6, 51, 55
8, 149726, Note_on_c, 6, 58, 64
8, 149838, Note_on_c, 6, 58, 0
8, 149918, Note_on_c, 6, 51, 0
8, 150110, Control_c, 6, 64, 0
8, 150110, Control_c, 6, 64, 0
8, 150110, Note_on_c, 6, 51, 55
8, 150110, Note_on_c, 6, 57, 64
8, 150222, Note_on_c, 6, 57, 0
8, 150302, Note_on_c, 6, 51, 0
8, 150490, Control_c, 6, 64, 0
8, 150494, Control_c, 6, 64, 0
8, 150494, Note_on_c, 6, 50, 55
8, 150494, Note_on_c, 6, 55, 64
8, 150606, Note_on_c, 6, 55, 0
8, 150686, Note_on_c, 6, 50, 0
8, 150878, Control_c, 6, 64, 127
8, 150878, Note_on_c, 6, 55, 49
8, 150878, Note_on_c, 6, 50, 41
8, 150938, Note_on_c, 6, 50, 0
8, 150966, Note_on_c, 6, 55, 0
8, 150970, Control_c, 6, 64, 0
8, 151262, Note_on_c, 6, 51, 55
8, 151262, Note_on_c, 6, 57, 64
8, 151374, Note_on_c, 6, 57, 0
8, 151454, Note_on_c, 6, 51, 0
8, 151646, Control_c, 6, 64, 127
8, 151646, Note_on_c, 6, 57, 49
8, 151646, Note_on_c, 6, 51, 41
8, 151706, Note_on_c, 6, 51, 0
8, 151734, Note_on_c, 6, 57, 0
8, 151742, Control_c, 6, 64, 0
8, 152030, Note_on_c, 6, 50, 55
8, 152030, Note_on_c, 6, 55, 64
8, 152142, Note_on_c, 6, 55, 0
8, 152222, Note_on_c, 6, 50, 0
8, 152414, Control_c, 6, 64, 127
8, 152414, Note_on_c, 6, 55, 49
8, 152414, Note_on_c, 6, 50, 41
8, 152474, Note_on_c, 6, 50, 0
8, 152502, Note_on_c, 6, 55, 0
8, 152502, Control_c, 6, 64, 0
8, 152798, Note_on_c, 6, 53, 55
8, 152798, Note_on_c, 6, 58, 64
8, 152910, Note_on_c, 6, 58, 0
8, 152990, Note_on_c, 6, 53, 0
8, 153182, Control_c, 6, 64, 127
8, 153182, Note_on_c, 6, 58, 49
8, 153182, Note_on_c, 6, 53, 41
8, 153242, Note_on_c, 6, 53, 0
8, 153270, Note_on_c, 6, 58, 0
8, 153274, Control_c, 6, 64, 0
8, 153566, Note_on_c, 6, 51, 55
8, 153566, Note_on_c, 6, 58, 64
8, 153678, Note_on_c, 6, 58, 0
8, 153758, Note_on_c, 6, 51, 0
8, 153950, Control_c, 6, 64, 127
8, 153950, Note_on_c, 6, 58, 49
8, 153950, Note_on_c, 6, 51, 41
8, 154006, Note_on_c, 6, 51, 0
8, 154038, Note_on_c, 6, 58, 0
8, 154038, Control_c, 6, 64, 0
8, 154334, Note_on_c, 6, 51, 55
8, 154334, Note_on_c, 6, 57, 64
8, 154446, Note_on_c, 6, 57, 0
8, 154526, Note_on_c, 6, 51, 0
8, 154718, Control_c, 6, 64, 127
8, 154718, Note_on_c, 6, 57, 49
8, 154718, Note_on_c, 6, 51, 41
8, 154770, Note_on_c, 6, 51, 0
8, 154806, Note_on_c, 6, 57, 0
8, 154806, Control_c, 6, 64, 0
8, 155102, Note_on_c, 6, 53, 55
8, 155102, Note_on_c, 6, 60, 64
8, 155214, Note_on_c, 6, 60, 0
8, 155294, Note_on_c, 6, 53, 0
8, 155486, Control_c, 6, 64, 127
8, 155486, Note_on_c, 6, 60, 49
8, 155486, Note_on_c, 6, 53, 41
8, 155546, Note_on_c, 6, 53, 0
8, 155566, Note_on_c, 6, 60, 0
8, 155570, Control_c, 6, 64, 0
8, 155870, Note_on_c, 6, 53, 55
8, 155870, Note_on_c, 6, 59, 64
8, 155982, Note_on_c, 6, 59, 0
8, 156062, Note_on_c, 6, 53, 0
8, 156254, Control_c, 6, 64, 127
8, 156254, Note_on_c, 6, 59, 49
8, 156254, Note_on_c, 6, 53, 41
8, 156314, Note_on_c, 6, 53, 0
8, 156342, Note_on_c, 6, 59, 0
8, 156350, Control_c, 6, 64, 0
8, 156634, Note_on_c, 6, 51, 55
8, 156638, Note_on_c, 6, 58, 64
8, 156750, Note_on_c, 6, 58, 0
8, 156830, Note_on_c, 6, 51, 0
8, 157022, Control_c, 6, 64, 127
8, 157022, Note_on_c, 6, 58, 49
8, 157022, Note_on_c, 6, 51, 41
8, 157082, Note_on_c, 6, 51, 0
8, 157110, Note_on_c, 6, 58, 0
8, 157110, Control_c, 6, 64, 0
8, 157402, Note_on_c, 6, 51, 55
8, 157406, Note_on_c, 6, 57, 64
8, 157518, Note_on_c, 6, 57, 0
8, 157598, Note_on_c, 6, 51, 0
8, 157790, Control_c, 6, 64, 127
8, 157790, Note_on_c, 6, 57, 49
8, 157790, Note_on_c, 6, 51, 41
8, 157850, Note_on_c, 6, 51, 0
8, 157878, Note_on_c, 6, 57, 0
8, 157878, Control_c, 6, 64, 0
8, 158170, Note_on_c, 6, 51, 55
8, 158174, Note_on_c, 6, 56, 64
8, 158286, Note_on_c, 6, 56, 0
8, 158366, Note_on_c, 6, 51, 0
8, 158558, Control_c, 6, 64, 127
8, 158558, Note_on_c, 6, 56, 49
8, 158558, Note_on_c, 6, 51, 41
8, 158614, Note_on_c, 6, 51, 0
8, 158646, Note_on_c, 6, 56, 0
8, 158646, Control_c, 6, 64, 0
8, 158942, Note_on_c, 6, 50, 55
8, 158942, Note_on_c, 6, 56, 64
8, 159054, Note_on_c, 6, 56, 0
8, 159134, Note_on_c, 6, 50, 0
8, 159326, Control_c, 6, 64, 127
8, 159326, Note_on_c, 6, 56, 49
8, 159326, Note_on_c, 6, 50, 41
8, 159378, Note_on_c, 6, 50, 0
8, 159418, Note_on_c, 6, 56, 0
8, 159418, Control_c, 6, 64, 0
8, 159706, Note_on_c, 6, 48, 55
8, 159710, Note_on_c, 6, 55, 64
8, 159822, Note_on_c, 6, 55, 0
8, 159902, Note_on_c, 6, 48, 0
8, 160094, Control_c, 6, 64, 127
8, 160094, Note_on_c, 6, 55, 49
8, 160094, Note_on_c, 6, 48, 41
8, 160154, Note_on_c, 6, 48, 0
8, 160174, Note_on_c, 6, 55, 0
8, 160178, Control_c, 6, 64, 0
8, 160478, Note_on_c, 6, 54, 55
8, 160478, Note_on_c, 6, 60, 64
8, 160590, Note_on_c, 6, 60, 0
8, 160670, Note_on_c, 6, 54, 0
8, 160862, Control_c, 6, 64, 127
8, 160862, Note_on_c, 6, 60, 49
8, 160862, Note_on_c, 6, 54, 41
8, 160922, Note_on_c, 6, 54, 0
8, 160950, Note_on_c, 6, 60, 0
8, 160958, Control_c, 6, 64, 0
8, 161246, Note_on_c, 6, 53, 55
8, 161246, Note_on_c, 6, 60, 64
8, 161358, Note_on_c, 6, 60, 0
8, 161438, Note_on_c, 6, 53, 0
8, 161630, Control_c, 6, 64, 0
8, 161630, Control_c, 6, 64, 0
8, 161630, Note_on_c, 6, 53, 55
8, 161630, Note_on_c, 6, 59, 64
8, 161742, Note_on_c, 6, 59, 0
8, 161822, Note_on_c, 6, 53, 0
8, 162010, Control_c, 6, 64, 0
8, 162014, Control_c, 6, 64, 0
8, 162014, Note_on_c, 6, 51, 55
8, 162014, Note_on_c, 6, 58, 64
8, 162126, Note_on_c, 6, 58, 0
8, 162206, Note_on_c, 6, 51, 0
8, 162398, Control_c, 6, 64, 0
8, 162398, Control_c, 6, 64, 0
8, 162398, Note_on_c, 6, 51, 55
8, 162398, Note_on_c, 6, 57, 64
8, 162510, Note_on_c, 6, 57, 0
8, 162590, Note_on_c, 6, 51, 0
8, 162778, Control_c, 6, 64, 0
8, 162778, Control_c, 6, 64, 0
8, 162782, Note_on_c, 6, 50, 55
8, 162782, Note_on_c, 6, 55, 64
8, 162894, Note_on_c, 6, 55, 0
8, 162974, Note_on_c, 6, 50, 0
8, 163166, Control_c, 6, 64, 127
8, 163166, Note_on_c, 6, 55, 49
8, 163166, Note_on_c, 6, 50, 41
8, 163222, Note_on_c, 6, 50, 0
8, 163254, Note_on_c, 6, 55, 0
8, 163254, Control_c, 6, 64, 0
8, 163550, Note_on_c, 6, 51, 55
8, 163550, Note_on_c, 6, 57, 64
8, 163662, Note_on_c, 6, 57, 0
8, 163742, Note_on_c, 6, 51, 0
8, 163934, Control_c, 6, 64, 127
8, 163934, Note_on_c, 6, 57, 49
8, 163934, Note_on_c, 6, 51, 41
8, 163990, Note_on_c, 6, 51, 0
8, 164022, Note_on_c, 6, 57, 0
8, 164022, Control_c, 6, 64, 0
8, 164318, Note_on_c, 6, 50, 55
8, 164318, Note_on_c, 6, 55, 64
8, 164430, Note_on_c, 6, 55, 0
8, 164510, Note_on_c, 6, 50, 0
8, 164702, Control_c, 6, 64, 127
8, 164702, Note_on_c, 6, 55, 49
8, 164702, Note_on_c, 6, 50, 41
8, 164762, Note_on_c, 6, 50, 0
8, 164782, Note_on_c, 6, 55, 0
8, 164790, Control_c, 6, 64, 0
8, 165086, Note_on_c, 6, 53, 55
8, 165086, Note_on_c, 6, 58, 64
8, 165198, Note_on_c, 6, 58, 0
8, 165278, Note_on_c, 6, 53, 0
8, 165470, Control_c, 6, 64, 127
8, 165470, Note_on_c, 6, 58, 49
8, 165470, Note_on_c, 6, 53, 41
8, 165530, Note_on_c, 6, 53, 0
8, 165558, Note_on_c, 6, 58, 0
8, 165562, Control_c, 6, 64, 0
8, 165854, Note_on_c, 6, 51, 55
8, 165854, Note_on_c, 6, 58, 64
8, 165966, Note_on_c, 6, 58, 0
8, 166046, Note_on_c, 6, 51, 0
8, 166234, Control_c, 6, 64, 127
8, 166238, Note_on_c, 6, 58, 49
8, 166238, Note_on_c, 6, 51, 41
8, 166298, Note_on_c, 6, 51, 0
8, 166326, Note_on_c, 6, 58, 0
8, 166334, Control_c, 6, 64, 0
8, 166622, Note_on_c, 6, 51, 55
8, 166622, Note_on_c, 6, 57, 64
8, 166734, Note_on_c, 6, 57, 0
8, 166814, Note_on_c, 6, 51, 0
8, 167006, Control_c, 6, 64, 127
8, 167006, Note_on_c, 6, 57, 49
8, 167006, Note_on_c, 6, 51, 41
8, 167066, Note_on_c, 6, 51, 0
8, 167094, Note_on_c, 6, 57, 0
8, 167094, Control_c, 6, 64, 0
8, 167386, Note_on_c, 6, 53, 55
8, 167390, Note_on_c, 6, 60, 64
8, 167502, Note_on_c, 6, 60, 0
8, 167582, Note_on_c, 6, 53, 0
8, 167774, Control_c, 6, 64, 127
8, 167774, Note_on_c, 6, 60, 49
8, 167774, Note_on_c, 6, 53, 41
8, 167830, Note_on_c, 6, 53, 0
8, 167862, Note_on_c, 6, 60, 0
8, 167862, Control_c, 6, 64, 0
8, 168154, Note_on_c, 6, 53, 55
8, 168158, Note_on_c, 6, 59, 64
8, 168270, Note_on_c, 6, 59, 0
8, 168350, Note_on_c, 6, 53, 0
8, 168542, Control_c, 6, 64, 127
8, 168542, Note_on_c, 6, 59, 49
8, 168542, Note_on_c, 6, 53, 41
8, 168598, Note_on_c, 6, 53, 0
8, 168630, Note_on_c, 6, 59, 0
8, 168630, Control_c, 6, 64, 0
8, 168926, Note_on_c, 6, 51, 55
8, 168926, Note_on_c, 6, 58, 64
8, 169038, Note_on_c, 6, 58, 0
8, 169118, Note_on_c, 6, 51, 0
8, 169310, Control_c, 6, 64, 127
8, 169310, Note_on_c, 6, 58, 49
8, 169310, Note_on_c, 6, 51, 41
8, 169370, Note_on_c, 6, 51, 0
8, 169390, Note_on_c, 6, 58, 0
8, 169398, Control_c, 6, 64, 0
8, 169694, Note_on_c, 6, 51, 55
8, 169694, Note_on_c, 6, 57, 64
8, 169806, Note_on_c, 6, 57, 0
8, 169886, Note_on_c, 6, 51, 0
8, 170078, Control_c, 6, 64, 127
8, 170078, Note_on_c, 6, 57, 49
8, 170078, Note_on_c, 6, 51, 41
8, 170138, Note_on_c, 6, 51, 0
8, 170166, Note_on_c, 6, 57, 0
8, 170170, Control_c, 6, 64, 0
8, 170462, Note_on_c, 6, 51, 55
8, 170462, Note_on_c, 6, 56, 64
8, 170574, Note_on_c, 6, 56, 0
8, 170654, Note_on_c, 6, 51, 0
8, 170846, Control_c, 6, 64, 127
8, 170846, Note_on_c, 6, 56, 49
8, 170846, Note_on_c, 6, 51, 41
8, 170906, Note_on_c, 6, 51, 0
8, 170934, Note_on_c, 6, 56, 0
8, 170942, Control_c, 6, 64, 0
8, 171226, Note_on_c, 6, 50, 55
8, 171230, Note_on_c, 6, 56, 64
8, 171342, Note_on_c, 6, 56, 0
8, 171422, Note_on_c, 6, 50, 0
8, 171614, Control_c, 6, 64, 127
8, 171614, Note_on_c, 6, 56, 49
8, 171614, Note_on_c, 6, 50, 41
8, 171674, Note_on_c, 6, 50, 0
8, 171702, Note_on_c, 6, 56, 0
8, 171706, Control_c, 6, 64, 0
8, 171994, Note_on_c, 6, 48, 55
8, 171998, Note_on_c, 6, 55, 64
8, 172110, Note_on_c, 6, 55, 0
8, 172190, Note_on_c, 6, 48, 0
8, 172378, Control_c, 6, 64, 127
8, 172382, Note_on_c, 6, 55, 49
8, 172382, Note_on_c, 6, 48, 41
8, 172442, Note_on_c, 6, 48, 0
8, 172470, Note_on_c, 6, 55, 0
8, 172470, Control_c, 6, 64, 0
8, 172762, Note_on_c, 6, 54, 55
8, 172766, Note_on_c, 6, 60, 64
8, 172878, Note_on_c, 6, 60, 0
8, 172958, Note_on_c, 6, 54, 0
8, 173150, Control_c, 6, 64, 127
8, 173150, Note_on_c, 6, 60, 49
8, 173150, Note_on_c, 6, 54, 41
8, 173206, Note_on_c, 6, 54, 0
8, 173238, Note_on_c, 6, 60, 0
8, 173238, Control_c, 6, 64, 0
8, 173534, Note_on_c, 6, 53, 55
8, 173534, Note_on_c, 6, 60, 64
8, 173646, Note_on_c, 6, 60, 0
8, 173726, Note_on_c, 6, 53, 0
8, 173918, Control_c, 6, 64, 0
8, 173918, Control_c, 6, 64, 0
8, 173918, Note_on_c, 6, 53, 55
8, 173918, Note_on_c, 6, 59, 64
8, 174030, Note_on_c, 6, 59, 0
8, 174110, Note_on_c, 6, 53, 0
8, 174298, Control_c, 6, 64, 0
8, 174302, Control_c, 6, 64, 0
8, 174302, Note_on_c, 6, 51, 55
8, 174302, Note_on_c, 6, 58, 64
8, 174414, Note_on_c, 6, 58, 0
8, 174494, Note_on_c, 6, 51, 0
8, 174686, Control_c, 6, 64, 0
8, 174686, Control_c, 6, 64, 0
8, 174686, Note_on_c, 6, 51, 55
8, 174686, Note_on_c, 6, 57, 64
8, 174798, Note_on_c, 6, 57, 0
8, 174878, Note_on_c, 6, 51, 0
8, 175070, Control_c, 6, 64, 0
8, 175070, Control_c, 6, 64, 0
8, 175070, Note_on_c, 6, 50, 55
8, 175070, Note_on_c, 6, 55, 64
8, 175182, Note_on_c, 6, 55, 0
8, 175262, Note_on_c, 6, 50, 0
8, 175454, Control_c, 6, 64, 127
8, 175454, Note_on_c, 6, 55, 49
8, 175454, Note_on_c, 6, 50, 41
8, 175514, Note_on_c, 6, 50, 0
8, 175542, Note_on_c, 6, 55, 0
8, 175550, Control_c, 6, 64, 0
8, 175838, Note_on_c, 6, 50, 55
8, 175838, Note_on_c, 6, 56, 64
8, 175950, Note_on_c, 6, 56, 0
8, 176030, Note_on_c, 6, 50, 0
8, 176222, Control_c, 6, 64, 127
8, 176222, Note_on_c, 6, 56, 49
8, 176222, Note_on_c, 6, 50, 41
8, 176282, Note_on_c, 6, 50, 0
8, 176314, Note_on_c, 6, 56, 0
8, 176314, Control_c, 6, 64, 0
8, 176606, Note_on_c, 6, 48, 55
8, 176606, Note_on_c, 6, 55, 64
8, 176718, Note_on_c, 6, 55, 0
8, 176798, Note_on_c, 6, 48, 0
8, 176986, Control_c, 6, 64, 127
8, 176990, Note_on_c, 6, 55, 49
8, 176990, Note_on_c, 6, 48, 41
8, 177050, Note_on_c, 6, 48, 0
8, 177078, Note_on_c, 6, 55, 0
8, 177078, Control_c, 6, 64, 0
8, 177374, Note_on_c, 6, 52, 55
8, 177374, Note_on_c, 6, 58, 64
8, 177486, Note_on_c, 6, 58, 0
8, 177566, Note_on_c, 6, 52, 0
8, 177758, Control_c, 6, 64, 127
8, 177758, Note_on_c, 6, 58, 49
8, 177758, Note_on_c, 6, 52, 41
8, 177814, Note_on_c, 6, 52, 0
8, 177846, Note_on_c, 6, 58, 0
8, 177846, Control_c, 6, 64, 0
8, 178138, Note_on_c, 6, 51, 55
8, 178142, Note_on_c, 6, 56, 64
8, 178254, Note_on_c, 6, 56, 0
8, 178334, Note_on_c, 6, 51, 0
8, 178526, Control_c, 6, 64, 127
8, 178526, Note_on_c, 6, 56, 49
8, 178526, Note_on_c, 6, 51, 41
8, 178578, Note_on_c, 6, 51, 0
8, 178614, Note_on_c, 6, 56, 0
8, 178614, Control_c, 6, 64, 0
8, 178910, Note_on_c, 6, 50, 55
8, 178910, Note_on_c, 6, 56, 64
8, 179022, Note_on_c, 6, 56, 0
8, 179102, Note_on_c, 6, 50, 0
8, 179294, Control_c, 6, 64, 127
8, 179294, Note_on_c, 6, 56, 49
8, 179294, Note_on_c, 6, 50, 41
8, 179354, Note_on_c, 6, 50, 0
8, 179374, Note_on_c, 6, 56, 0
8, 179378, Control_c, 6, 64, 0
8, 179674, Note_on_c, 6, 53, 55
8, 179678, Note_on_c, 6, 58, 64
8, 179790, Note_on_c, 6, 58, 0
8, 179870, Note_on_c, 6, 53, 0
8, 180062, Control_c, 6, 64, 127
8, 180062, Note_on_c, 6, 58, 49
8, 180062, Note_on_c, 6, 53, 41
8, 180122, Note_on_c, 6, 53, 0
8, 180150, Note_on_c, 6, 58, 0
8, 180158, Control_c, 6, 64, 0
8, 180442, Note_on_c, 6, 52, 55
8, 180446, Note_on_c, 6, 58, 64
8, 180558, Note_on_c, 6, 58, 0
8, 180638, Note_on_c, 6, 52, 0
8, 180830, Control_c, 6, 64, 127
8, 180830, Note_on_c, 6, 58, 49
8, 180830, Note_on_c, 6, 52, 41
8, 180890, Note_on_c, 6, 52, 0
8, 180918, Note_on_c, 6, 58, 0
8, 180918, Control_c, 6, 64, 0
8, 181210, Note_on_c, 6, 51, 55
8, 181214, Note_on_c, 6, 56, 64
8, 181326, Note_on_c, 6, 56, 0
8, 181406, Note_on_c, 6, 51, 0
8, 181598, Control_c, 6, 64, 127
8, 181598, Note_on_c, 6, 56, 49
8, 181598, Note_on_c, 6, 51, 41
8, 181658, Note_on_c, 6, 51, 0
8, 181686, Note_on_c, 6, 56, 0
8, 181686, Control_c, 6, 64, 0
8, 181978, Note_on_c, 6, 50, 55
8, 181982, Note_on_c, 6, 56, 64
8, 182094, Note_on_c, 6, 56, 0
8, 182174, Note_on_c, 6, 50, 0
8, 182366, Control_c, 6, 64, 127
8, 182366, Note_on_c, 6, 56, 49
8, 182366, Note_on_c, 6, 50, 41
8, 182422, Note_on_c, 6, 50, 0
8, 182454, Note_on_c, 6, 56, 0
8, 182454, Control_c, 6, 64, 0
8, 182750, Note_on_c, 6, 49, 55
8, 182750, Note_on_c, 6, 56, 64
8, 182862, Note_on_c, 6, 56, 0
8, 182942, Note_on_c, 6, 49, 0
8, 183134, Control_c, 6, 64, 127
8, 183134, Note_on_c, 6, 56, 49
8, 183134, Note_on_c, 6, 49, 41
8, 183190, Note_on_c, 6, 49, 0
8, 183222, Note_on_c, 6, 56, 0
8, 183222, Control_c, 6, 64, 0
8, 183518, Note_on_c, 6, 49, 55
8, 183518, Note_on_c, 6, 55, 64
8, 183630, Note_on_c, 6, 55, 0
8, 183710, Note_on_c, 6, 49, 0
8, 183902, Control_c, 6, 64, 127
8, 183902, Note_on_c, 6, 55, 49
8, 183902, Note_on_c, 6, 49, 41
8, 183962, Note_on_c, 6, 49, 0
8, 183982, Note_on_c, 6, 55, 0
8, 183990, Control_c, 6, 64, 0
8, 184282, Note_on_c, 6, 55, 55
8, 184286, Note_on_c, 6, 60, 64
8, 184398, Note_on_c, 6, 60, 0
8, 184478, Note_on_c, 6, 55, 0
8, 184670, Control_c, 6, 64, 127
8, 184670, Note_on_c, 6, 60, 49
8, 184670, Note_on_c, 6, 55, 41
8, 184730, Note_on_c, 6, 55, 0
8, 184758, Note_on_c, 6, 60, 0
8, 184762, Control_c, 6, 64, 0
8, 185054, Note_on_c, 6, 53, 55
8, 185054, Note_on_c, 6, 59, 64
8, 185166, Note_on_c, 6, 59, 0
8, 185246, Note_on_c, 6, 53, 0
8, 185438, Control_c, 6, 64, 127
8, 185438, Note_on_c, 6, 59, 49
8, 185438, Note_on_c, 6, 53, 41
8, 185498, Note_on_c, 6, 53, 0
8, 185526, Note_on_c, 6, 59, 0
8, 185534, Control_c, 6, 64, 0
8, 185818, Note_on_c, 6, 53, 55
8, 185822, Note_on_c, 6, 58, 64
8, 185934, Note_on_c, 6, 58, 0
8, 186014, Note_on_c, 6, 53, 0
8, 186206, Control_c, 6, 64, 0
8, 186206, Control_c, 6, 64, 0
8, 186206, Note_on_c, 6, 52, 55
8, 186206, Note_on_c, 6, 58, 64
8, 186318, Note_on_c, 6, 58, 0
8, 186398, Note_on_c, 6, 52, 0
8, 186590, Control_c, 6, 64, 0
8, 186590, Control_c, 6, 64, 0
8, 186590, Note_on_c, 6, 51, 55
8, 186590, Note_on_c, 6, 56, 64
8, 186702, Note_on_c, 6, 56, 0
8, 186782, Note_on_c, 6, 51, 0
8, 186974, Control_c, 6, 64, 0
8, 186974, Control_c, 6, 64, 0
8, 186974, Note_on_c, 6, 50, 55
8, 186974, Note_on_c, 6, 56, 64
8, 187086, Note_on_c, 6, 56, 0
8, 187166, Note_on_c, 6, 50, 0
8, 187354, Control_c, 6, 64, 0
8, 187358, Control_c, 6, 64, 0
8, 187358, Note_on_c, 6, 48, 55
8, 187358, Note_on_c, 6, 55, 64
8, 187470, Note_on_c, 6, 55, 0
8, 187550, Note_on_c, 6, 48, 0
8, 187742, Control_c, 6, 64, 127
8, 187742, Note_on_c, 6, 55, 49
8, 187742, Note_on_c, 6, 48, 41
8, 187798, Note_on_c, 6, 48, 0
8, 187830, Note_on_c, 6, 55, 0
8, 187830, Control_c, 6, 64, 0
8, 188126, Note_on_c, 6, 51, 55
8, 188126, Note_on_c, 6, 57, 64
8, 188238, Note_on_c, 6, 57, 0
8, 188318, Note_on_c, 6, 51, 0
8, 188510, Control_c, 6, 64, 127
8, 188510, Note_on_c, 6, 57, 49
8, 188510, Note_on_c, 6, 51, 41
8, 188570, Note_on_c, 6, 51, 0
8, 188590, Note_on_c, 6, 57, 0
8, 188598, Control_c, 6, 64, 0
8, 188894, Note_on_c, 6, 50, 55
8, 188894, Note_on_c, 6, 55, 64
8, 189006, Note_on_c, 6, 55, 0
8, 189086, Note_on_c, 6, 50, 0
8, 189274, Control_c, 6, 64, 127
8, 189278, Note_on_c, 6, 55, 49
8, 189278, Note_on_c, 6, 50, 41
8, 189338, Note_on_c, 6, 50, 0
8, 189366, Note_on_c, 6, 55, 0
8, 189370, Control_c, 6, 64, 0
8, 189662, Note_on_c, 6, 53, 55
8, 189662, Note_on_c, 6, 58, 64
8, 189774, Note_on_c, 6, 58, 0
8, 189854, Note_on_c, 6, 53, 0
8, 190046, Control_c, 6, 64, 127
8, 190046, Note_on_c, 6, 58, 49
8, 190046, Note_on_c, 6, 53, 41
8, 190106, Note_on_c, 6, 53, 0
8, 190134, Note_on_c, 6, 58, 0
8, 190142, Control_c, 6, 64, 0
8, 190426, Note_on_c, 6, 51, 55
8, 190430, Note_on_c, 6, 58, 64
8, 190542, Note_on_c, 6, 58, 0
8, 190622, Note_on_c, 6, 51, 0
8, 190814, Control_c, 6, 64, 127
8, 190814, Note_on_c, 6, 58, 49
8, 190814, Note_on_c, 6, 51, 41
8, 190874, Note_on_c, 6, 51, 0
8, 190902, Note_on_c, 6, 58, 0
8, 190902, Control_c, 6, 64, 0
8, 191194, Note_on_c, 6, 51, 55
8, 191198, Note_on_c, 6, 57, 64
8, 191310, Note_on_c, 6, 57, 0
8, 191390, Note_on_c, 6, 51, 0
8, 191582, Control_c, 6, 64, 127
8, 191582, Note_on_c, 6, 57, 49
8, 191582, Note_on_c, 6, 51, 41
8, 191642, Note_on_c, 6, 51, 0
8, 191670, Note_on_c, 6, 57, 0
8, 191670, Control_c, 6, 64, 0
8, 191962, Note_on_c, 6, 53, 55
8, 191966, Note_on_c, 6, 60, 64
8, 192078, Note_on_c, 6, 60, 0
8, 192158, Note_on_c, 6, 53, 0
8, 192350, Control_c, 6, 64, 127
8, 192350, Note_on_c, 6, 60, 49
8, 192350, Note_on_c, 6, 53, 41
8, 192406, Note_on_c, 6, 53, 0
8, 192438, Note_on_c, 6, 60, 0
8, 192438, Control_c, 6, 64, 0
8, 192734, Note_on_c, 6, 53, 55
8, 192734, Note_on_c, 6, 59, 64
8, 192846, Note_on_c, 6, 59, 0
8, 192926, Note_on_c, 6, 53, 0
8, 193118, Control_c, 6, 64, 127
8, 193118, Note_on_c, 6, 59, 49
8, 193118, Note_on_c, 6, 53, 41
8, 193170, Note_on_c, 6, 53, 0
8, 193206, Note_on_c, 6, 59, 0
8, 193206, Control_c, 6, 64, 0
8, 193502, Note_on_c, 6, 51, 55
8, 193502, Note_on_c, 6, 58, 64
8, 193614, Note_on_c, 6, 58, 0
8, 193694, Note_on_c, 6, 51, 0
8, 193886, Control_c, 6, 64, 127
8, 193886, Note_on_c, 6, 58, 49
8, 193886, Note_on_c, 6, 51, 41
8, 193946, Note_on_c, 6, 51, 0
8, 193966, Note_on_c, 6, 58, 0
8, 193970, Control_c, 6, 64, 0
8, 194270, Note_on_c, 6, 51, 55
8, 194270, Note_on_c, 6, 57, 64
8, 194382, Note_on_c, 6, 57, 0
8, 194462, Note_on_c, 6, 51, 0
8, 194654, Control_c, 6, 64, 127
8, 194654, Note_on_c, 6, 57, 49
8, 194654, Note_on_c, 6, 51, 41
8, 194714, Note_on_c, 6, 51, 0
8, 194742, Note_on_c, 6, 57, 0
8, 194750, Control_c, 6, 64, 0
8, 195034, Note_on_c, 6, 51, 55
8, 195038, Note_on_c, 6, 56, 64
8, 195150, Note_on_c, 6, 56, 0
8, 195230, Note_on_c, 6, 51, 0
8, 195422, Control_c, 6, 64, 127
8, 195422, Note_on_c, 6, 56, 49
8, 195422, Note_on_c, 6, 51, 41
8, 195482, Note_on_c, 6, 51, 0
8, 195510, Note_on_c, 6, 56, 0
8, 195510, Control_c, 6, 64, 0
8, 195802, Note_on_c, 6, 50, 55
8, 195806, Note_on_c, 6, 56, 64
8, 195918, Note_on_c, 6, 56, 0
8, 195998, Note_on_c, 6, 50, 0
8, 196190, Control_c, 6, 64, 127
8, 196190, Note_on_c, 6, 56, 49
8, 196194, Note_on_c, 6, 50, 41
8, 196250, Note_on_c, 6, 50, 0
8, 196278, Note_on_c, 6, 56, 0
8, 196282, Control_c, 6, 64, 0
8, 196574, Note_on_c, 6, 48, 55
8, 196574, Note_on_c, 6, 55, 64
8, 196686, Note_on_c, 6, 55, 0
8, 196766, Note_on_c, 6, 48, 0
8, 196958, Control_c, 6, 64, 127
8, 196958, Note_on_c, 6, 55, 49
8, 196958, Note_on_c, 6, 48, 41
8, 197014, Note_on_c, 6, 48, 0
8, 197046, Note_on_c, 6, 55, 0
8, 197046, Control_c, 6, 64, 0
8, 197342, Note_on_c, 6, 54, 55
8, 197342, Note_on_c, 6, 60, 64
8, 197454, Note_on_c, 6, 60, 0
8, 197534, Note_on_c, 6, 54, 0
8, 197726, Control_c, 6, 64, 127
8, 197726, Note_on_c, 6, 60, 49
8, 197726, Note_on_c, 6, 54, 41
8, 197778, Note_on_c, 6, 54, 0
8, 197814, Note_on_c, 6, 60, 0
8, 197814, Control_c, 6, 64, 0
8, 198110, Note_on_c, 6, 53, 55
8, 198110, Note_on_c, 6, 60, 64
8, 198222, Note_on_c, 6, 60, 0
8, 198302, Note_on_c, 6, 53, 0
8, 198494, Control_c, 6, 64, 0
8, 198494, Control_c, 6, 64, 0
8, 198494, Note_on_c, 6, 53, 55
8, 198494, Note_on_c, 6, 59, 64
8, 198606, Note_on_c, 6, 59, 0
8, 198686, Note_on_c, 6, 53, 0
8, 198878, Control_c, 6, 64, 0
8, 198878, Control_c, 6, 64, 0
8, 198878, Note_on_c, 6, 51, 55
8, 198878, Note_on_c, 6, 58, 64
8, 198990, Note_on_c, 6, 58, 0
8, 199070, Note_on_c, 6, 51, 0
8, 199262, Control_c, 6, 64, 0
8, 199262, Control_c, 6, 64, 0
8, 199262, Note_on_c, 6, 51, 55
8, 199262, Note_on_c, 6, 57, 64
8, 199374, Note_on_c, 6, 57, 0
8, 199454, Note_on_c, 6, 51, 0
8, 199646, Control_c, 6, 64, 0
8, 199646, Control_c, 6, 64, 0
8, 199646, Note_on_c, 6, 50, 55
8, 199646, Note_on_c, 6, 55, 64
8, 199758, Note_on_c, 6, 55, 0
8, 199838, Note_on_c, 6, 50, 0
8, 200030, Control_c, 6, 64, 127
8, 200030, Note_on_c, 6, 55, 49
8, 200030, Note_on_c, 6, 50, 41
8, 200096, Note_on_c, 6, 50, 0
8, 200124, Note_on_c, 6, 55, 0
8, 200124, Control_c, 6, 64, 0
8, 200420, Note_on_c, 6, 51, 55
8, 200420, Note_on_c, 6, 57, 64
8, 200532, Note_on_c, 6, 57, 0
8, 200612, Note_on_c, 6, 51, 0
8, 200804, Control_c, 6, 64, 127
8, 200804, Note_on_c, 6, 57, 49
8, 200804, Note_on_c, 6, 51, 41
8, 200864, Note_on_c, 6, 51, 0
8, 200896, Note_on_c, 6, 57, 0
8, 200896, Control_c, 6, 64, 0
8, 201184, Note_on_c, 6, 50, 55
8, 201192, Note_on_c, 6, 55, 64
8, 201300, Note_on_c, 6, 55, 0
8, 201380, Note_on_c, 6, 50, 0
8, 201572, Control_c, 6, 64, 127
8, 201572, Note_on_c, 6, 55, 49
8, 201572, Note_on_c, 6, 50, 41
8, 201628, Note_on_c, 6, 50, 0
8, 201660, Note_on_c, 6, 55, 0
8, 201660, Control_c, 6, 64, 0
8, 201956, Note_on_c, 6, 53, 55
8, 201956, Note_on_c, 6, 58, 64
8, 202068, Note_on_c, 6, 58, 0
8, 202148, Note_on_c, 6, 53, 0
8, 202340, Control_c, 6, 64, 127
8, 202340, Note_on_c, 6, 58, 49
8, 202340, Note_on_c, 6, 53, 41
8, 202396, Note_on_c, 6, 53, 0
8, 202428, Note_on_c, 6, 58, 0
8, 202428, Control_c, 6, 64, 0
8, 202724, Note_on_c, 6, 51, 55
8, 202724, Note_on_c, 6, 58, 64
8, 202836, Note_on_c, 6, 58, 0
8, 202916, Note_on_c, 6, 51, 0
8, 203108, Control_c, 6, 64, 127
8, 203108, Note_on_c, 6, 58, 49
8, 203108, Note_on_c, 6, 51, 41
8, 203168, Note_on_c, 6, 51, 0
8, 203188, Note_on_c, 6, 58, 0
8, 203196, Control_c, 6, 64, 0
8, 203492, Note_on_c, 6, 51, 55
8, 203492, Note_on_c, 6, 57, 64
8, 203604, Note_on_c, 6, 57, 0
8, 203684, Note_on_c, 6, 51, 0
8, 203876, Control_c, 6, 64, 127
8, 203876, Note_on_c, 6, 57, 49
8, 203876, Note_on_c, 6, 51, 41
8, 203936, Note_on_c, 6, 51, 0
8, 203964, Note_on_c, 6, 57, 0
8, 203968, Control_c, 6, 64, 0
8, 204256, Note_on_c, 6, 53, 55
8, 204260, Note_on_c, 6, 60, 64
8, 204372, Note_on_c, 6, 60, 0
8, 204452, Note_on_c, 6, 53, 0
8, 204644, Control_c, 6, 64, 127
8, 204644, Note_on_c, 6, 60, 49
8, 204644, Note_on_c, 6, 53, 41
8, 204704, Note_on_c, 6, 53, 0
8, 204732, Note_on_c, 6, 60, 0
8, 204740, Control_c, 6, 64, 0
8, 205024, Note_on_c, 6, 53, 55
8, 205028, Note_on_c, 6, 59, 64
8, 205140, Note_on_c, 6, 59, 0
8, 205220, Note_on_c, 6, 53, 0
8, 205412, Control_c, 6, 64, 127
8, 205412, Note_on_c, 6, 59, 49
8, 205412, Note_on_c, 6, 53, 41
8, 205472, Note_on_c, 6, 53, 0
8, 205500, Note_on_c, 6, 59, 0
8, 205500, Control_c, 6, 64, 0
8, 205792, Note_on_c, 6, 51, 55
8, 205796, Note_on_c, 6, 58, 64
8, 205908, Note_on_c, 6, 58, 0
8, 205988, Note_on_c, 6, 51, 0
8, 206180, Control_c, 6, 64, 127
8, 206180, Note_on_c, 6, 58, 49
8, 206180, Note_on_c, 6, 51, 41
8, 206236, Note_on_c, 6, 51, 0
8, 206268, Note_on_c, 6, 58, 0
8, 206268, Control_c, 6, 64, 0
8, 206560, Note_on_c, 6, 51, 55
8, 206564, Note_on_c, 6, 57, 64
8, 206676, Note_on_c, 6, 57, 0
8, 206756, Note_on_c, 6, 51, 0
8, 206948, Control_c, 6, 64, 127
8, 206948, Note_on_c, 6, 57, 49
8, 206948, Note_on_c, 6, 51, 41
8, 207004, Note_on_c, 6, 51, 0
8, 207036, Note_on_c, 6, 57, 0
8, 207036, Control_c, 6, 64, 0
8, 207332, Note_on_c, 6, 51, 55
8, 207332, Note_on_c, 6, 56, 64
8, 207444, Note_on_c, 6, 56, 0
8, 207524, Note_on_c, 6, 51, 0
8, 207716, Control_c, 6, 64, 127
8, 207716, Note_on_c, 6, 56, 49
8, 207716, Note_on_c, 6, 51, 41
8, 207776, Note_on_c, 6, 51, 0
8, 207796, Note_on_c, 6, 56, 0
8, 207804, Control_c, 6, 64, 0
8, 208100, Note_on_c, 6, 50, 55
8, 208100, Note_on_c, 6, 56, 64
8, 208212, Note_on_c, 6, 56, 0
8, 208292, Note_on_c, 6, 50, 0
8, 208484, Control_c, 6, 64, 127
8, 208484, Note_on_c, 6, 56, 49
8, 208484, Note_on_c, 6, 50, 41
8, 208544, Note_on_c, 6, 50, 0
8, 208572, Note_on_c, 6, 56, 0
8, 208576, Control_c, 6, 64, 0
8, 208868, Note_on_c, 6, 48, 55
8, 208868, Note_on_c, 6, 55, 64
8, 208980, Note_on_c, 6, 55, 0
8, 209060, Note_on_c, 6, 48, 0
8, 209252, Control_c, 6, 64, 127
8, 209252, Note_on_c, 6, 55, 49
8, 209252, Note_on_c, 6, 48, 41
8, 209312, Note_on_c, 6, 48, 0
8, 209340, Note_on_c, 6, 55, 0
8, 209348, Control_c, 6, 64, 0
8, 209636, Note_on_c, 6, 54, 55
8, 209636, Note_on_c, 6, 60, 64
8, 209748, Note_on_c, 6, 60, 0
8, 209828, Note_on_c, 6, 54, 0
8, 210020, Control_c, 6, 64, 127
8, 210020, Note_on_c, 6, 60, 49
8, 210020, Note_on_c, 6, 54, 41
8, 210080, Note_on_c, 6, 54, 0
8, 210108, Note_on_c, 6, 60, 0
8, 210112, Control_c, 6, 64, 0
8, 210404, Note_on_c, 6, 53, 55
8, 210404, Note_on_c, 6, 60, 64
8, 210516, Note_on_c, 6, 60, 0
8, 210596, Note_on_c, 6, 53, 0
8, 210784, Control_c, 6, 64, 0
8, 210788, Control_c, 6, 64, 0
8, 210788, Note_on_c, 6, 53, 55
8, 210788, Note_on_c, 6, 59, 64
8, 210900, Note_on_c, 6, 59, 0
8, 210980, Note_on_c, 6, 53, 0
8, 211168, Control_c, 6, 64, 0
8, 211172, Control_c, 6, 64, 0
8, 211172, Note_on_c, 6, 51, 55
8, 211172, Note_on_c, 6, 58, 64
8, 211284, Note_on_c, 6, 58, 0
8, 211364, Note_on_c, 6, 51, 0
8, 211556, Control_c, 6, 64, 0
8, 211556, Control_c, 6, 64, 0
8, 211556, Note_on_c, 6, 51, 55
8, 211556, Note_on_c, 6, 57, 64
8, 211668, Note_on_c, 6, 57, 0
8, 211748, Note_on_c, 6, 51, 0
8, 211936, Control_c, 6, 64, 0
8, 211940, Control_c, 6, 64, 0
8, 211940, Note_on_c, 6, 50, 55
8, 211940, Note_on_c, 6, 55, 64
8, 212052, Note_on_c, 6, 55, 0
8, 212132, Note_on_c, 6, 50, 0
8, 212320, Control_c, 6, 64, 127
8, 212324, Note_on_c, 6, 55, 49
8, 212324, Note_on_c, 6, 50, 41
8, 212376, Note_on_c, 6, 50, 0
8, 212412, Note_on_c, 6, 55, 0
8, 212412, Control_c, 6, 64, 0
8, 212708, Note_on_c, 6, 51, 55
8, 212708, Note_on_c, 6, 57, 64
8, 212820, Note_on_c, 6, 57, 0
8, 212900, Note_on_c, 6, 51, 0
8, 213092, Control_c, 6, 64, 127
8, 213092, Note_on_c, 6, 57, 49
8, 213092, Note_on_c, 6, 51, 41
8, 213152, Note_on_c, 6, 51, 0
8, 213172, Note_on_c, 6, 57, 0
8, 213176, Control_c, 6, 64, 0
8, 213476, Note_on_c, 6, 50, 55
8, 213476, Note_on_c, 6, 55, 64
8, 213588, Note_on_c, 6, 55, 0
8, 213668, Note_on_c, 6, 50, 0
8, 213860, Control_c, 6, 64, 127
8, 213860, Note_on_c, 6, 55, 49
8, 213860, Note_on_c, 6, 50, 41
8, 213920, Note_on_c, 6, 50, 0
8, 213948, Note_on_c, 6, 55, 0
8, 213956, Control_c, 6, 64, 0
8, 214240, Note_on_c, 6, 53, 55
8, 214244, Note_on_c, 6, 58, 64
8, 214356, Note_on_c, 6, 58, 0
8, 214436, Note_on_c, 6, 53, 0
8, 214628, Control_c, 6, 64, 127
8, 214628, Note_on_c, 6, 58, 49
8, 214628, Note_on_c, 6, 53, 41
8, 214688, Note_on_c, 6, 53, 0
8, 214716, Note_on_c, 6, 58, 0
8, 214716, Control_c, 6, 64, 0
8, 215008, Note_on_c, 6, 51, 55
8, 215012, Note_on_c, 6, 58, 64
8, 215124, Note_on_c, 6, 58, 0
8, 215204, Note_on_c, 6, 51, 0
8, 215392, Control_c, 6, 64, 127
8, 215396, Note_on_c, 6, 58, 49
8, 215396, Note_on_c, 6, 51, 41
8, 215456, Note_on_c, 6, 51, 0
8, 215488, Note_on_c, 6, 58, 0
8, 215488, Control_c, 6, 64, 0
8, 215780, Note_on_c, 6, 51, 55
8, 215780, Note_on_c, 6, 57, 64
8, 215892, Note_on_c, 6, 57, 0
8, 215972, Note_on_c, 6, 51, 0
8, 216164, Control_c, 6, 64, 127
8, 216164, Note_on_c, 6, 57, 49
8, 216164, Note_on_c, 6, 51, 41
8, 216220, Note_on_c, 6, 51, 0
8, 216252, Note_on_c, 6, 57, 0
8, 216252, Control_c, 6, 64, 0
8, 216548, Note_on_c, 6, 53, 55
8, 216548, Note_on_c, 6, 60, 64
8, 216660, Note_on_c, 6, 60, 0
8, 216740, Note_on_c, 6, 53, 0
8, 216932, Control_c, 6, 64, 127
8, 216932, Note_on_c, 6, 60, 49
8, 216932, Note_on_c, 6, 53, 41
8, 216984, Note_on_c, 6, 53, 0
8, 217020, Note_on_c, 6, 60, 0
8, 217020, Control_c, 6, 64, 0
8, 217312, Note_on_c, 6, 53, 55
8, 217316, Note_on_c, 6, 59, 64
8, 217428, Note_on_c, 6, 59, 0
8, 217508, Note_on_c, 6, 53, 0
8, 217700, Control_c, 6, 64, 127
8, 217700, Note_on_c, 6, 59, 49
8, 217700, Note_on_c, 6, 53, 41
8, 217760, Note_on_c, 6, 53, 0
8, 217780, Note_on_c, 6, 59, 0
8, 217784, Control_c, 6, 64, 0
8, 218084, Note_on_c, 6, 51, 55
8, 218084, Note_on_c, 6, 58, 64
8, 218196, Note_on_c, 6, 58, 0
8, 218276, Note_on_c, 6, 51, 0
8, 218468, Control_c, 6, 64, 127
8, 218468, Note_on_c, 6, 58, 49
8, 218468, Note_on_c, 6, 51, 41
8, 218528, Note_on_c, 6, 51, 0
8, 218556, Note_on_c, 6, 58, 0
8, 218564, Control_c, 6, 64, 0
8, 218852, Note_on_c, 6, 51, 55
8, 218852, Note_on_c, 6, 57, 64
8, 218964, Note_on_c, 6, 57, 0
8, 219044, Note_on_c, 6, 51, 0
8, 219236, Control_c, 6, 64, 127
8, 219236, Note_on_c, 6, 57, 49
8, 219236, Note_on_c, 6, 51, 41
8, 219296, Note_on_c, 6, 51, 0
8, 219324, Note_on_c, 6, 57, 0
8, 219328, Control_c, 6, 64, 0
8, 219616, Note_on_c, 6, 51, 55
8, 219620, Note_on_c, 6, 56, 64
8, 219732, Note_on_c, 6, 56, 0
8, 219812, Note_on_c, 6, 51, 0
8, 220004, Control_c, 6, 64, 127
8, 220004, Note_on_c, 6, 56, 49
8, 220004, Note_on_c, 6, 51, 41
8, 220064, Note_on_c, 6, 51, 0
8, 220092, Note_on_c, 6, 56, 0
8, 220092, Control_c, 6, 64, 0
8, 220384, Note_on_c, 6, 50, 55
8, 220388, Note_on_c, 6, 56, 64
8, 220500, Note_on_c, 6, 56, 0
8, 220580, Note_on_c, 6, 50, 0
8, 220772, Control_c, 6, 64, 127
8, 220772, Note_on_c, 6, 56, 49
8, 220772, Note_on_c, 6, 50, 41
8, 220828, Note_on_c, 6, 50, 0
8, 220860, Note_on_c, 6, 56, 0
8, 220860, Control_c, 6, 64, 0
8, 221156, Note_on_c, 6, 48, 55
8, 221156, Note_on_c, 6, 55, 64
8, 221268, Note_on_c, 6, 55, 0
8, 221348, Note_on_c, 6, 48, 0
8, 221540, Control_c, 6, 64, 127
8, 221540, Note_on_c, 6, 55, 49
8, 221540, Note_on_c, 6, 48, 41
8, 221596, Note_on_c, 6, 48, 0
8, 221628, Note_on_c, 6, 55, 0
8, 221628, Control_c, 6, 64, 0
8, 221924, Note_on_c, 6, 54, 55
8, 221924, Note_on_c, 6, 60, 64
8, 222036, Note_on_c, 6, 60, 0
8, 222116, Note_on_c, 6, 54, 0
8, 222308, Control_c, 6, 64, 127
8, 222308, Note_on_c, 6, 60, 49
8, 222308, Note_on_c, 6, 54, 41
8, 222368, Note_on_c, 6, 54, 0
8, 222388, Note_on_c, 6, 60, 0
8, 222396, Control_c, 6, 64, 0
8, 222692, Note_on_c, 6, 53, 55
8, 222692, Note_on_c, 6, 60, 64
8, 222804, Note_on_c, 6, 60, 0
8, 222884, Note_on_c, 6, 53, 0
8, 223072, Control_c, 6, 64, 0
8, 223076, Control_c, 6, 64, 0
8, 223076, Note_on_c, 6, 53, 55
8, 223076, Note_on_c, 6, 59, 64
8, 223188, Note_on_c, 6, 59, 0
8, 223268, Note_on_c, 6, 53, 0
8, 223460, Control_c, 6, 64, 0
8, 223460, Control_c, 6, 64, 0
8, 223460, Note_on_c, 6, 51, 55
8, 223460, Note_on_c, 6, 58, 64
8, 223572, Note_on_c, 6, 58, 0
8, 223652, Note_on_c, 6, 51, 0
8, 223844, Control_c, 6, 64, 0
8, 223844, Control_c, 6, 64, 0
8, 223844, Note_on_c, 6, 51, 55
8, 223844, Note_on_c, 6, 57, 64
8, 223956, Note_on_c, 6, 57, 0
8, 224036, Note_on_c, 6, 51, 0
8, 224224, Control_c, 6, 64, 0
8, 224228, Control_c, 6, 64, 0
8, 224228, Note_on_c, 6, 50, 55
8, 224228, Note_on_c, 6, 55, 64
8, 224340, Note_on_c, 6, 55, 0
8, 224420, Note_on_c, 6, 50, 0
8, 224612, Control_c, 6, 64, 127
8, 224612, Note_on_c, 6, 55, 49
8, 224612, Note_on_c, 6, 50, 41
8, 224672, Note_on_c, 6, 50, 0
8, 224700, Note_on_c, 6, 55, 0
8, 224700, Control_c, 6, 64, 0
8, 224992, Note_on_c, 6, 50, 55
8, 224996, Note_on_c, 6, 56, 64
8, 225108, Note_on_c, 6, 56, 0
8, 225188, Note_on_c, 6, 50, 0
8, 225380, Control_c, 6, 64, 127
8, 225380, Note_on_c, 6, 56, 49
8, 225380, Note_on_c, 6, 50, 41
8, 225436, Note_on_c, 6, 50, 0
8, 225468, Note_on_c, 6, 56, 0
8, 225472, Control_c, 6, 64, 0
8, 225764, Note_on_c, 6, 48, 55
8, 225764, Note_on_c, 6, 55, 64
8, 225876, Note_on_c, 6, 55, 0
8, 225956, Note_on_c, 6, 48, 0
8, 226148, Control_c, 6, 64, 127
8, 226148, Note_on_c, 6, 55, 49
8, 226148, Note_on_c, 6, 48, 41
8, 226204, Note_on_c, 6, 48, 0
8, 226236, Note_on_c, 6, 55, 0
8, 226236, Control_c, 6, 64, 0
8, 226532, Note_on_c, 6, 52, 55
8, 226532, Note_on_c, 6, 58, 64
8, 226644, Note_on_c, 6, 58, 0
8, 226724, Note_on_c, 6, 52, 0
8, 226916, Control_c, 6, 64, 127
8, 226916, Note_on_c, 6, 58, 49
8, 226916, Note_on_c, 6, 52, 41
8, 226976, Note_on_c, 6, 52, 0
8, 227000, Note_on_c, 6, 58, 0
8, 227008, Control_c, 6, 64, 0
8, 227300, Note_on_c, 6, 51, 55
8, 227300, Note_on_c, 6, 56, 64
8, 227412, Note_on_c, 6, 56, 0
8, 227492, Note_on_c, 6, 51, 0
8, 227684, Control_c, 6, 64, 127
8, 227684, Note_on_c, 6, 56, 49
8, 227684, Note_on_c, 6, 51, 41
8, 227744, Note_on_c, 6, 51, 0
8, 227772, Note_on_c, 6, 56, 0
8, 227776, Control_c, 6, 64, 0
8, 228068, Note_on_c, 6, 50, 55
8, 228068, Note_on_c, 6, 56, 64
8, 228180, Note_on_c, 6, 56, 0
8, 228260, Note_on_c, 6, 50, 0
8, 228452, Control_c, 6, 64, 127
8, 228452, Note_on_c, 6, 56, 49
8, 228452, Note_on_c, 6, 50, 41
8, 228512, Note_on_c, 6, 50, 0
8, 228540, Note_on_c, 6, 56, 0
8, 228548, Control_c, 6, 64, 0
8, 228832, Note_on_c, 6, 53, 55
8, 228836, Note_on_c, 6, 58, 64
8, 228948, Note_on_c, 6, 58, 0
8, 229028, Note_on_c, 6, 53, 0
8, 229220, Control_c, 6, 64, 127
8, 229220, Note_on_c, 6, 58, 49
8, 229220, Note_on_c, 6, 53, 41
8, 229280, Note_on_c, 6, 53, 0
8, 229308, Note_on_c, 6, 58, 0
8, 229308, Control_c, 6, 64, 0
8, 229600, Note_on_c, 6, 52, 55
8, 229604, Note_on_c, 6, 58, 64
8, 229716, Note_on_c, 6, 58, 0
8, 229796, Note_on_c, 6, 52, 0
8, 229988, Control_c, 6, 64, 127
8, 229988, Note_on_c, 6, 58, 49
8, 229988, Note_on_c, 6, 52, 41
8, 230048, Note_on_c, 6, 52, 0
8, 230076, Note_on_c, 6, 58, 0
8, 230076, Control_c, 6, 64, 0
8, 230368, Note_on_c, 6, 51, 55
8, 230372, Note_on_c, 6, 56, 64
8, 230484, Note_on_c, 6, 56, 0
8, 230564, Note_on_c, 6, 51, 0
8, 230756, Control_c, 6, 64, 127
8, 230756, Note_on_c, 6, 56, 49
8, 230756, Note_on_c, 6, 51, 41
8, 230812, Note_on_c, 6, 51, 0
8, 230844, Note_on_c, 6, 56, 0
8, 230844, Control_c, 6, 64, 0
8, 231140, Note_on_c, 6, 50, 55
8, 231140, Note_on_c, 6, 56, 64
8, 231252, Note_on_c, 6, 56, 0
8, 231332, Note_on_c, 6, 50, 0
8, 231524, Control_c, 6, 64, 127
8, 231524, Note_on_c, 6, 56, 49
8, 231524, Note_on_c, 6, 50, 41
8, 231576, Note_on_c, 6, 50, 0
8, 231612, Note_on_c, 6, 56, 0
8, 231612, Control_c, 6, 64, 0
8, 231908, Note_on_c, 6, 49, 55
8, 231908, Note_on_c, 6, 56, 64
8, 232020, Note_on_c, 6, 56, 0
8, 232100, Note_on_c, 6, 49, 0
8, 232292, Control_c, 6, 64, 127
8, 232292, Note_on_c, 6, 56, 49
8, 232292, Note_on_c, 6, 49, 41
8, 232352, Note_on_c, 6, 49, 0
8, 232372, Note_on_c, 6, 56, 0
8, 232376, Control_c, 6, 64, 0
8, 232676, Note_on_c, 6, 49, 55
8, 232676, Note_on_c, 6, 55, 64
8, 232788, Note_on_c, 6, 55, 0
8, 232868, Note_on_c, 6, 49, 0
8, 233060, Control_c, 6, 64, 127
8, 233060, Note_on_c, 6, 55, 49
8, 233060, Note_on_c, 6, 49, 41
8, 233120, Note_on_c, 6, 49, 0
8, 233148, Note_on_c, 6, 55, 0
8, 233156, Control_c, 6, 64, 0
8, 233444, Note_on_c, 6, 55, 55
8, 233444, Note_on_c, 6, 60, 64
8, 233556, Note_on_c, 6, 60, 0
8, 233636, Note_on_c, 6, 55, 0
8, 233828, Control_c, 6, 64, 127
8, 233828, Note_on_c, 6, 60, 49
8, 233828, Note_on_c, 6, 55, 41
8, 233888, Note_on_c, 6, 55, 0
8, 233916, Note_on_c, 6, 60, 0
8, 233916, Control_c, 6, 64, 0
8, 234212, Note_on_c, 6, 53, 55
8, 234212, Note_on_c, 6, 59, 64
8, 234324, Note_on_c, 6, 59, 0
8, 234404, Note_on_c, 6, 53, 0
8, 234596, Control_c, 6, 64, 127
8, 234596, Note_on_c, 6, 59, 49
8, 234596, Note_on_c, 6, 53, 41
8, 234656, Note_on_c, 6, 53, 0
8, 234684, Note_on_c, 6, 59, 0
8, 234688, Control_c, 6, 64, 0
8, 234976, Note_on_c, 6, 53, 55
8, 234980, Note_on_c, 6, 58, 64
8, 235092, Note_on_c, 6, 58, 0
8, 235172, Note_on_c, 6, 53, 0
8, 235360, Control_c, 6, 64, 0
8, 235364, Control_c, 6, 64, 0
8, 235364, Note_on_c, 6, 52, 55
8, 235364, Note_on_c, 6, 58, 64
8, 235476, Note_on_c, 6, 58, 0
8, 235556, Note_on_c, 6, 52, 0
8, 235748, Control_c, 6, 64, 0
8, 235748, Control_c, 6, 64, 0
8, 235748, Note_on_c, 6, 51, 55
8, 235748, Note_on_c, 6, 56, 64
8, 235860, Note_on_c, 6, 56, 0
8, 235940, Note_on_c, 6, 51, 0
8, 236132, Control_c, 6, 64, 0
8, 236132, Control_c, 6, 64, 0
8, 236132, Note_on_c, 6, 50, 55
8, 236132, Note_on_c, 6, 56, 64
8, 236244, Note_on_c, 6, 56, 0
8, 236324, Note_on_c, 6, 50, 0
8, 236516, Control_c, 6, 64, 0
8, 236516, Control_c, 6, 64, 0
8, 236516, Note_on_c, 6, 48, 55
8, 236516, Note_on_c, 6, 55, 64
8, 236628, Note_on_c, 6, 55, 0
8, 236708, Note_on_c, 6, 48, 0
8, 236900, Control_c, 6, 64, 127
8, 236900, Note_on_c, 6, 55, 49
8, 236900, Note_on_c, 6, 48, 41
8, 236960, Note_on_c, 6, 48, 0
8, 236980, Note_on_c, 6, 55, 0
8, 236984, Control_c, 6, 64, 0
8, 237280, Note_on_c, 6, 51, 55
8, 237284, Note_on_c, 6, 57, 64
8, 237396, Note_on_c, 6, 57, 0
8, 237476, Note_on_c, 6, 51, 0
8, 237668, Control_c, 6, 64, 127
8, 237668, Note_on_c, 6, 57, 49
8, 237668, Note_on_c, 6, 51, 41
8, 237728, Note_on_c, 6, 51, 0
8, 237756, Note_on_c, 6, 57, 0
8, 237764, Control_c, 6, 64, 0
8, 238048, Note_on_c, 6, 50, 55
8, 238052, Note_on_c, 6, 55, 64
8, 238164, Note_on_c, 6, 55, 0
8, 238244, Note_on_c, 6, 50, 0
8, 238436, Control_c, 6, 64, 127
8, 238436, Note_on_c, 6, 55, 49
8, 238436, Note_on_c, 6, 50, 41
8, 238496, Note_on_c, 6, 50, 0
8, 238524, Note_on_c, 6, 55, 0
8, 238524, Control_c, 6, 64, 0
8, 238816, Note_on_c, 6, 53, 55
8, 238820, Note_on_c, 6, 58, 64
8, 238932, Note_on_c, 6, 58, 0
8, 239012, Note_on_c, 6, 53, 0
8, 239204, Control_c, 6, 64, 127
8, 239204, Note_on_c, 6, 58, 49
8, 239204, Note_on_c, 6, 53, 41
8, 239264, Note_on_c, 6, 53, 0
8, 239292, Note_on_c, 6, 58, 0
8, 239292, Control_c, 6, 64, 0
8, 239584, Note_on_c, 6, 51, 55
8, 239588, Note_on_c, 6, 58, 64
8, 239700, Note_on_c, 6, 58, 0
8, 239780, Note_on_c, 6, 51, 0
8, 239972, Control_c, 6, 64, 127
8, 239972, Note_on_c, 6, 58, 49
8, 239972, Note_on_c, 6, 51, 41
8, 240028, Note_on_c, 6, 51, 0
8, 240060, Note_on_c, 6, 58, 0
8, 240060, Control_c, 6, 64, 0
8, 240356, Note_on_c, 6, 51, 55
8, 240356, Note_on_c, 6, 57, 64
8, 240468, Note_on_c, 6, 57, 0
8, 240548, Note_on_c, 6, 51, 0
8, 240740, Control_c, 6, 64, 127
8, 240740, Note_on_c, 6, 57, 49
8, 240740, Note_on_c, 6, 51, 41
8, 240796, Note_on_c, 6, 51, 0
8, 240828, Note_on_c, 6, 57, 0
8, 240828, Control_c, 6, 64, 0
8, 241124, Note_on_c, 6, 53, 55
8, 241124, Note_on_c, 6, 60, 64
8, 241236, Note_on_c, 6, 60, 0
8, 241316, Note_on_c, 6, 53, 0
8, 241508, Control_c, 6, 64, 127
8, 241508, Note_on_c, 6, 60, 49
8, 241508, Note_on_c, 6, 53, 41
8, 241568, Note_on_c, 6, 53, 0
8, 241588, Note_on_c, 6, 60, 0
8, 241596, Control_c, 6, 64, 0
8, 241892, Note_on_c, 6, 53, 55
8, 241892, Note_on_c, 6, 59, 64
8, 242004, Note_on_c, 6, 59, 0
8, 242084, Note_on_c, 6, 53, 0
8, 242276, Control_c, 6, 64, 127
8, 242276, Note_on_c, 6, 59, 49
8, 242276, Note_on_c, 6, 53, 41
8, 242336, Note_on_c, 6, 53, 0
8, 242364, Note_on_c, 6, 59, 0
8, 242368, Control_c, 6, 64, 0
8, 242656, Note_on_c, 6, 51, 55
8, 242660, Note_on_c, 6, 58, 64
8, 242772, Note_on_c, 6, 58, 0
8, 242852, Note_on_c, 6, 51, 0
8, 243044, Control_c, 6, 64, 127
8, 243044, Note_on_c, 6, 58, 49
8, 243044, Note_on_c, 6, 51, 41
8, 243104, Note_on_c, 6, 51, 0
8, 243132, Note_on_c, 6, 58, 0
8, 243140, Control_c, 6, 64, 0
8, 243428, Note_on_c, 6, 51, 55
8, 243428, Note_on_c, 6, 57, 64
8, 243540, Note_on_c, 6, 57, 0
8, 243620, Note_on_c, 6, 51, 0
8, 243812, Control_c, 6, 64, 127
8, 243812, Note_on_c, 6, 57, 49
8, 243812, Note_on_c, 6, 51, 41
8, 243872, Note_on_c, 6, 51, 0
8, 243900, Note_on_c, 6, 57, 0
8, 243904, Control_c, 6, 64, 0
8, 244196, Note_on_c, 6, 51, 55
8, 244196, Note_on_c, 6, 56, 64
8, 244308, Note_on_c, 6, 56, 0
8, 244388, Note_on_c, 6, 51, 0
8, 244580, Control_c, 6, 64, 127
8, 244580, Note_on_c, 6, 56, 49
8, 244580, Note_on_c, 6, 51, 41
8, 244636, Note_on_c, 6, 51, 0
8, 244668, Note_on_c, 6, 56, 0
8, 244668, Control_c, 6, 64, 0
8, 244964, Note_on_c, 6, 50, 55
8, 244964, Note_on_c, 6, 56, 64
8, 245076, Note_on_c, 6, 56, 0
8, 245156, Note_on_c, 6, 50, 0
8, 245348, Control_c, 6, 64, 127
8, 245348, Note_on_c, 6, 56, 49
8, 245352, Note_on_c, 6, 50, 41
8, 245404, Note_on_c, 6, 50, 0
8, 245436, Note_on_c, 6, 56, 0
8, 245436, Control_c, 6, 64, 0
8, 245732, Note_on_c, 6, 48, 55
8, 245732, Note_on_c, 6, 55, 64
8, 245844, Note_on_c, 6, 55, 0
8, 245924, Note_on_c, 6, 48, 0
8, 246112, Control_c, 6, 64, 127
8, 246116, Note_on_c, 6, 55, 49
8, 246116, Note_on_c, 6, 48, 41
8, 246176, Note_on_c, 6, 48, 0
8, 246196, Note_on_c, 6, 55, 0
8, 246204, Control_c, 6, 64, 0
8, 246500, Note_on_c, 6, 54, 55
8, 246500, Note_on_c, 6, 60, 64
8, 246612, Note_on_c, 6, 60, 0
8, 246692, Note_on_c, 6, 54, 0
8, 246884, Control_c, 6, 64, 127
8, 246884, Note_on_c, 6, 60, 49
8, 246888, Note_on_c, 6, 54, 41
8, 246944, Note_on_c, 6, 54, 0
8, 246972, Note_on_c, 6, 60, 0
8, 246976, Control_c, 6, 64, 0
8, 247268, Note_on_c, 6, 53, 55
8, 247268, Note_on_c, 6, 60, 64
8, 247380, Note_on_c, 6, 60, 0
8, 247460, Note_on_c, 6, 53, 0
8, 247652, Control_c, 6, 64, 0
8, 247652, Control_c, 6, 64, 0
8, 247652, Note_on_c, 6, 53, 55
8, 247652, Note_on_c, 6, 59, 64
8, 247764, Note_on_c, 6, 59, 0
8, 247844, Note_on_c, 6, 53, 0
8, 248032, Control_c, 6, 64, 0
8, 248036, Control_c, 6, 64, 0
8, 248036, Note_on_c, 6, 51, 55
8, 248036, Note_on_c, 6, 58, 64
8, 248148, Note_on_c, 6, 58, 0
8, 248228, Note_on_c, 6, 51, 0
8, 248420, Control_c, 6, 64, 0
8, 248420, Control_c, 6, 64, 0
8, 248420, Note_on_c, 6, 51, 55
8, 248420, Note_on_c, 6, 57, 64
8, 248532, Note_on_c, 6, 57, 0
8, 248612, Note_on_c, 6, 51, 0
8, 248800, Control_c, 6, 64, 0
8, 248804, Control_c, 6, 64, 0
8, 248804, Note_on_c, 6, 50, 55
8, 248804, Note_on_c, 6, 55, 64
8, 248944, Program_c, 6, 24
8, 248944, Control_c, 6, 123, 0
8, 248944, Control_c, 6, 64, 0
8, 249634, Note_on_c, 6, 50, 0
8, 249938, System_exclusive, 9, 67, 16, 76, 3, 2, 0, 66, 18, 247
8, 249938, System_exclusive, 8, 67, 16, 76, 3, 2, 12, 127, 247
8, 249938, System_exclusive, 9, 67, 16, 76, 2, 1, 0, 2, 17, 247
8, 249938, System_exclusive, 8, 67, 16, 76, 2, 1, 12, 64, 247
8, 249938, System_exclusive, 8, 67, 16, 76, 2, 1, 13, 64, 247
8, 251166, Note_on_c, 6, 55, 0
8, 251166, End_track
9, 0, Start_track
9, 0, Title_t, "Track 8"
9, 0, End_track
10, 0, Start_track
10, 0, Title_t, "Track 9"
10, 0, End_track
11, 0, Start_track
11, 0, Title_t, "Track 10"
11, 402, Control_c, 9, 0, 0
11, 402, Control_c, 9, 32, 1
11, 402, Program_c, 9, 40
11, 403, Control_c, 9, 7, 58
11, 4450, Note_on_c, 9, 40, 21
11, 4498, Note_on_c, 9, 40, 0
11, 4548, Note_on_c, 9, 35, 50
11, 4568, Note_on_c, 9, 40, 50
11, 4772, Note_on_c, 9, 35, 0
11, 4920, Note_on_c, 9, 40, 0
11, 4954, Note_on_c, 9, 44, 70
11, 4964, Note_on_c, 9, 40, 58
11, 5018, Note_on_c, 9, 44, 0
11, 5214, Note_on_c, 9, 35, 63
11, 5228, Note_on_c, 9, 40, 0
11, 5246, Note_on_c, 9, 35, 0
11, 5258, Note_on_c, 9, 40, 41
11, 5294, Note_on_c, 9, 40, 0
11, 5362, Note_on_c, 9, 40, 52
11, 5608, Note_on_c, 9, 39, 59
11, 5638, Note_on_c, 9, 39, 0
11, 5696, Note_on_c, 9, 40, 0
11, 5722, Note_on_c, 9, 44, 70
11, 5726, Note_on_c, 9, 37, 60
11, 5736, Note_on_c, 9, 40, 58
11, 5782, Note_on_c, 9, 37, 0
11, 5782, Note_on_c, 9, 44, 0
11, 6062, Note_on_c, 9, 40, 0
11, 6118, Note_on_c, 9, 40, 54
11, 6458, Note_on_c, 9, 40, 0
11, 6490, Note_on_c, 9, 44, 70
11, 6494, Note_on_c, 9, 40, 54
11, 6554, Note_on_c, 9, 44, 0
11, 6654, Note_on_c, 9, 39, 39
11, 6682, Note_on_c, 9, 39, 0
11, 6760, Note_on_c, 9, 39, 37
11, 6814, Note_on_c, 9, 39, 0
11, 6832, Note_on_c, 9, 40, 0
11, 6886, Note_on_c, 9, 40, 54
11, 7134, Note_on_c, 9, 40, 0
11, 7174, Note_on_c, 9, 40, 37
11, 7204, Note_on_c, 9, 40, 0
11, 7258, Note_on_c, 9, 44, 70
11, 7258, Note_on_c, 9, 37, 70
11, 7270, Note_on_c, 9, 40, 52
11, 7322, Note_on_c, 9, 37, 0
11, 7322, Note_on_c, 9, 44, 0
11, 7438, Note_on_c, 9, 40, 47
11, 7498, Note_on_c, 9, 40, 0
11, 7540, Note_on_c, 9, 40, 44
11, 7560, Note_on_c, 9, 40, 0
11, 7616, Note_on_c, 9, 40, 0
11, 7636, Note_on_c, 9, 46, 56
11, 7638, Note_on_c, 9, 40, 52
11, 7662, Note_on_c, 9, 35, 51
11, 7692, Note_on_c, 9, 46, 0
11, 7768, Note_on_c, 9, 35, 0
11, 7924, Note_on_c, 9, 40, 0
11, 8026, Note_on_c, 9, 44, 70
11, 8032, Note_on_c, 9, 40, 56
11, 8090, Note_on_c, 9, 44, 0
11, 8260, Note_on_c, 9, 40, 0
11, 8314, Note_on_c, 9, 40, 42
11, 8350, Note_on_c, 9, 40, 0
11, 8412, Note_on_c, 9, 40, 52
11, 8678, Note_on_c, 9, 39, 53
11, 8678, Note_on_c, 9, 40, 29
11, 8704, Note_on_c, 9, 39, 0
11, 8750, Note_on_c, 9, 40, 0
11, 8756, Note_on_c, 9, 40, 0
11, 8772, Note_on_c, 9, 46, 57
11, 8794, Note_on_c, 9, 37, 70
11, 8794, Note_on_c, 9, 44, 70
11, 8794, Note_on_c, 9, 35, 62
11, 8808, Note_on_c, 9, 40, 52
11, 8814, Note_on_c, 9, 36, 45
11, 8816, Note_on_c, 9, 46, 0
11, 8858, Note_on_c, 9, 44, 0
11, 8862, Note_on_c, 9, 37, 0
11, 8890, Note_on_c, 9, 36, 0
11, 8898, Note_on_c, 9, 35, 0
11, 9044, Note_on_c, 9, 40, 0
11, 9082, Note_on_c, 9, 36, 28
11, 9094, Note_on_c, 9, 40, 36
11, 9126, Note_on_c, 9, 40, 0
11, 9168, Note_on_c, 9, 36, 0
11, 9182, Note_on_c, 9, 40, 49
11, 9460, Note_on_c, 9, 40, 0
11, 9562, Note_on_c, 9, 44, 70
11, 9564, Note_on_c, 9, 40, 55
11, 9626, Note_on_c, 9, 44, 0
11, 9834, Note_on_c, 9, 40, 0
11, 9962, Note_on_c, 9, 40, 54
11, 10152, Note_on_c, 9, 40, 0
11, 10202, Note_on_c, 9, 40, 34
11, 10212, Note_on_c, 9, 35, 72
11, 10254, Note_on_c, 9, 40, 0
11, 10258, Note_on_c, 9, 35, 0
11, 10326, Note_on_c, 9, 40, 52
11, 10330, Note_on_c, 9, 44, 70
11, 10330, Note_on_c, 9, 37, 70
11, 10394, Note_on_c, 9, 37, 0
11, 10394, Note_on_c, 9, 44, 0
11, 10570, Note_on_c, 9, 40, 0
11, 10588, Note_on_c, 9, 40, 44
11, 10618, Note_on_c, 9, 40, 0
11, 10692, Note_on_c, 9, 40, 38
11, 10732, Note_on_c, 9, 35, 68
11, 10798, Note_on_c, 9, 35, 0
11, 10962, Note_on_c, 9, 39, 52
11, 11006, Note_on_c, 9, 40, 0
11, 11032, Note_on_c, 9, 39, 0
11, 11092, Note_on_c, 9, 40, 50
11, 11098, Note_on_c, 9, 44, 70
11, 11100, Note_on_c, 9, 36, 47
11, 11162, Note_on_c, 9, 44, 0
11, 11166, Note_on_c, 9, 36, 0
11, 11306, Note_on_c, 9, 40, 0
11, 11378, Note_on_c, 9, 36, 35
11, 11396, Note_on_c, 9, 40, 41
11, 11416, Note_on_c, 9, 36, 0
11, 11446, Note_on_c, 9, 40, 0
11, 11502, Note_on_c, 9, 40, 48
11, 11736, Note_on_c, 9, 40, 0
11, 11798, Note_on_c, 9, 40, 28
11, 11832, Note_on_c, 9, 40, 0
11, 11866, Note_on_c, 9, 37, 60
11, 11866, Note_on_c, 9, 44, 70
11, 11876, Note_on_c, 9, 40, 56
11, 11930, Note_on_c, 9, 44, 0
11, 11934, Note_on_c, 9, 37, 0
11, 12140, Note_on_c, 9, 35, 46
11, 12178, Note_on_c, 9, 40, 0
11, 12196, Note_on_c, 9, 35, 0
11, 12258, Note_on_c, 9, 40, 52
11, 12270, Note_on_c, 9, 35, 46
11, 12468, Note_on_c, 9, 35, 0
11, 12522, Note_on_c, 9, 40, 0
11, 12530, Note_on_c, 9, 35, 55
11, 12546, Note_on_c, 9, 40, 25
11, 12560, Note_on_c, 9, 35, 0
11, 12592, Note_on_c, 9, 40, 0
11, 12634, Note_on_c, 9, 44, 70
11, 12660, Note_on_c, 9, 40, 52
11, 12698, Note_on_c, 9, 44, 0
11, 12914, Note_on_c, 9, 40, 0
11, 13022, Note_on_c, 9, 40, 46
11, 13086, Note_on_c, 9, 40, 0
11, 13134, Note_on_c, 9, 40, 55
11, 13346, Note_on_c, 9, 40, 0
11, 13402, Note_on_c, 9, 44, 70
11, 13406, Note_on_c, 9, 37, 70
11, 13420, Note_on_c, 9, 35, 46
11, 13432, Note_on_c, 9, 40, 54
11, 13466, Note_on_c, 9, 37, 0
11, 13466, Note_on_c, 9, 44, 0
11, 13614, Note_on_c, 9, 35, 0
11, 13664, Note_on_c, 9, 40, 0
11, 13682, Note_on_c, 9, 35, 55
11, 13684, Note_on_c, 9, 40, 29
11, 13726, Note_on_c, 9, 35, 0
11, 13732, Note_on_c, 9, 40, 0
11, 13792, Note_on_c, 9, 40, 50
11, 14046, Note_on_c, 9, 39, 42
11, 14074, Note_on_c, 9, 40, 0
11, 14114, Note_on_c, 9, 39, 0
11, 14170, Note_on_c, 9, 44, 70
11, 14170, Note_on_c, 9, 40, 55
11, 14184, Note_on_c, 9, 39, 28
11, 14234, Note_on_c, 9, 44, 0
11, 14262, Note_on_c, 9, 39, 0
11, 14422, Note_on_c, 9, 40, 0
11, 14424, Note_on_c, 9, 36, 48
11, 14460, Note_on_c, 9, 40, 42
11, 14494, Note_on_c, 9, 36, 0
11, 14504, Note_on_c, 9, 40, 0
11, 14562, Note_on_c, 9, 40, 54
11, 14802, Note_on_c, 9, 35, 38
11, 14832, Note_on_c, 9, 39, 35
11, 14840, Note_on_c, 9, 35, 0
11, 14858, Note_on_c, 9, 40, 0
11, 14896, Note_on_c, 9, 39, 0
11, 14936, Note_on_c, 9, 40, 53
11, 14938, Note_on_c, 9, 44, 70
11, 14938, Note_on_c, 9, 37, 60
11, 14962, Note_on_c, 9, 39, 31
11, 15002, Note_on_c, 9, 37, 0
11, 15002, Note_on_c, 9, 44, 0
11, 15154, Note_on_c, 9, 39, 0
11, 15168, Note_on_c, 9, 40, 0
11, 15202, Note_on_c, 9, 36, 52
11, 15240, Note_on_c, 9, 40, 15
11, 15268, Note_on_c, 9, 36, 0
11, 15322, Note_on_c, 9, 40, 0
11, 15362, Note_on_c, 9, 40, 59
11, 15616, Note_on_c, 9, 35, 41
11, 15636, Note_on_c, 9, 40, 0
11, 15650, Note_on_c, 9, 35, 0
11, 15706, Note_on_c, 9, 44, 70
11, 15712, Note_on_c, 9, 40, 52
11, 15770, Note_on_c, 9, 44, 0
11, 16008, Note_on_c, 9, 40, 0
11, 16096, Note_on_c, 9, 40, 54
11, 16234, Note_on_c, 9, 40, 31
11, 16280, Note_on_c, 9, 40, 0
11, 16346, Note_on_c, 9, 40, 0
11, 16350, Note_on_c, 9, 40, 42
11, 16370, Note_on_c, 9, 38, 60
11, 16378, Note_on_c, 9, 40, 34
11, 16406, Note_on_c, 9, 40, 0
11, 16430, Note_on_c, 9, 40, 0
11, 16446, Note_on_c, 9, 38, 0
11, 16474, Note_on_c, 9, 44, 70
11, 16482, Note_on_c, 9, 40, 51
11, 16486, Note_on_c, 9, 40, 41
11, 16538, Note_on_c, 9, 44, 0
11, 16558, Note_on_c, 9, 40, 0
11, 16740, Note_on_c, 9, 39, 50
11, 16746, Note_on_c, 9, 40, 50
11, 16762, Note_on_c, 9, 38, 30
11, 16770, Note_on_c, 9, 40, 0
11, 16802, Note_on_c, 9, 39, 0
11, 16822, Note_on_c, 9, 38, 0
11, 16826, Note_on_c, 9, 40, 0
11, 16860, Note_on_c, 9, 40, 56
11, 16872, Note_on_c, 9, 35, 57
11, 16876, Note_on_c, 9, 57, 23
11, 16892, Note_on_c, 9, 36, 35
11, 17068, Note_on_c, 9, 35, 0
11, 17114, Note_on_c, 9, 40, 0
11, 17158, Note_on_c, 9, 40, 34
11, 17192, Note_on_c, 9, 40, 0
11, 17234, Note_on_c, 9, 57, 0
11, 17242, Note_on_c, 9, 44, 70
11, 17250, Note_on_c, 9, 40, 48
11, 17306, Note_on_c, 9, 44, 0
11, 17570, Note_on_c, 9, 40, 0
11, 17652, Note_on_c, 9, 40, 52
11, 17826, Note_on_c, 9, 36, 0
11, 17862, Note_on_c, 9, 39, 57
11, 17890, Note_on_c, 9, 40, 30
11, 17944, Note_on_c, 9, 39, 0
11, 17978, Note_on_c, 9, 40, 0
11, 17988, Note_on_c, 9, 40, 0
11, 18010, Note_on_c, 9, 37, 70
11, 18010, Note_on_c, 9, 44, 70
11, 18014, Note_on_c, 9, 57, 22
11, 18020, Note_on_c, 9, 35, 45
11, 18030, Note_on_c, 9, 36, 28
11, 18036, Note_on_c, 9, 40, 52
11, 18040, Note_on_c, 9, 57, 0
11, 18054, Note_on_c, 9, 35, 0
11, 18074, Note_on_c, 9, 44, 0
11, 18078, Note_on_c, 9, 37, 0
11, 18176, Note_on_c, 9, 36, 0
11, 18276, Note_on_c, 9, 36, 47
11, 18320, Note_on_c, 9, 40, 0
11, 18372, Note_on_c, 9, 36, 0
11, 18406, Note_on_c, 9, 40, 52
11, 18656, Note_on_c, 9, 40, 0
11, 18680, Note_on_c, 9, 40, 25
11, 18734, Note_on_c, 9, 40, 0
11, 18774, Note_on_c, 9, 44, 70
11, 18784, Note_on_c, 9, 40, 52
11, 18842, Note_on_c, 9, 44, 0
11, 19056, Note_on_c, 9, 40, 0
11, 19164, Note_on_c, 9, 40, 55
11, 19414, Note_on_c, 9, 40, 0
11, 19430, Note_on_c, 9, 40, 33
11, 19458, Note_on_c, 9, 40, 0
11, 19546, Note_on_c, 9, 44, 70
11, 19550, Note_on_c, 9, 37, 70
11, 19570, Note_on_c, 9, 35, 44
11, 19590, Note_on_c, 9, 40, 58
11, 19602, Note_on_c, 9, 35, 0
11, 19610, Note_on_c, 9, 44, 0
11, 19610, Note_on_c, 9, 37, 0
11, 19766, Note_on_c, 9, 40, 0
11, 19800, Note_on_c, 9, 35, 80
11, 19822, Note_on_c, 9, 40, 43
11, 19874, Note_on_c, 9, 40, 0
11, 19888, Note_on_c, 9, 35, 0
11, 19924, Note_on_c, 9, 40, 54
11, 19954, Note_on_c, 9, 35, 60
11, 20084, Note_on_c, 9, 35, 0
11, 20234, Note_on_c, 9, 40, 0
11, 20314, Note_on_c, 9, 44, 70
11, 20328, Note_on_c, 9, 40, 54
11, 20374, Note_on_c, 9, 44, 0
11, 20574, Note_on_c, 9, 40, 0
11, 20592, Note_on_c, 9, 35, 59
11, 20606, Note_on_c, 9, 40, 29
11, 20622, Note_on_c, 9, 35, 0
11, 20646, Note_on_c, 9, 40, 0
11, 20714, Note_on_c, 9, 40, 50
11, 20754, Note_on_c, 9, 39, 57
11, 20814, Note_on_c, 9, 39, 0
11, 20886, Note_on_c, 9, 39, 47
11, 20926, Note_on_c, 9, 39, 0
11, 20998, Note_on_c, 9, 40, 0
11, 21082, Note_on_c, 9, 44, 70
11, 21082, Note_on_c, 9, 37, 60
11, 21088, Note_on_c, 9, 40, 58
11, 21134, Note_on_c, 9, 39, 50
11, 21146, Note_on_c, 9, 44, 0
11, 21150, Note_on_c, 9, 37, 0
11, 21200, Note_on_c, 9, 39, 0
11, 21284, Note_on_c, 9, 40, 0
11, 21366, Note_on_c, 9, 40, 37
11, 21416, Note_on_c, 9, 40, 0
11, 21592, Note_on_c, 9, 40, 56
11, 21748, Note_on_c, 9, 35, 43
11, 21752, Note_on_c, 9, 40, 0
11, 21782, Note_on_c, 9, 35, 0
11, 21850, Note_on_c, 9, 44, 70
11, 21852, Note_on_c, 9, 40, 57
11, 21864, Note_on_c, 9, 35, 38
11, 21914, Note_on_c, 9, 44, 0
11, 21918, Note_on_c, 9, 35, 0
11, 22100, Note_on_c, 9, 40, 0
11, 22138, Note_on_c, 9, 35, 66
11, 22172, Note_on_c, 9, 35, 0
11, 22228, Note_on_c, 9, 40, 54
11, 22486, Note_on_c, 9, 38, 35
11, 22498, Note_on_c, 9, 40, 0
11, 22560, Note_on_c, 9, 38, 0
11, 22618, Note_on_c, 9, 37, 70
11, 22618, Note_on_c, 9, 44, 70
11, 22624, Note_on_c, 9, 40, 55
11, 22630, Note_on_c, 9, 38, 35
11, 22682, Note_on_c, 9, 44, 0
11, 22682, Note_on_c, 9, 37, 0
11, 22736, Note_on_c, 9, 38, 0
11, 22740, Note_on_c, 9, 40, 0
11, 22876, Note_on_c, 9, 38, 44
11, 22880, Note_on_c, 9, 40, 44
11, 22918, Note_on_c, 9, 38, 0
11, 22934, Note_on_c, 9, 40, 0
11, 22996, Note_on_c, 9, 40, 50
11, 23026, Note_on_c, 9, 39, 47
11, 23106, Note_on_c, 9, 39, 0
11, 23290, Note_on_c, 9, 40, 0
11, 23382, Note_on_c, 9, 44, 70
11, 23392, Note_on_c, 9, 40, 54
11, 23450, Note_on_c, 9, 44, 0
11, 23646, Note_on_c, 9, 35, 59
11, 23674, Note_on_c, 9, 35, 0
11, 23698, Note_on_c, 9, 40, 0
11, 23796, Note_on_c, 9, 40, 55
11, 24006, Note_on_c, 9, 40, 0
11, 24050, Note_on_c, 9, 39, 48
11, 24054, Note_on_c, 9, 40, 42
11, 24110, Note_on_c, 9, 39, 0
11, 24114, Note_on_c, 9, 40, 0
11, 24154, Note_on_c, 9, 44, 70
11, 24154, Note_on_c, 9, 37, 70
11, 24160, Note_on_c, 9, 40, 56
11, 24212, Note_on_c, 9, 36, 11
11, 24218, Note_on_c, 9, 37, 0
11, 24218, Note_on_c, 9, 44, 0
11, 24284, Note_on_c, 9, 36, 0
11, 24430, Note_on_c, 9, 36, 34
11, 24458, Note_on_c, 9, 40, 0
11, 24494, Note_on_c, 9, 36, 0
11, 24544, Note_on_c, 9, 40, 54
11, 24578, Note_on_c, 9, 36, 32
11, 24674, Note_on_c, 9, 36, 0
11, 24840, Note_on_c, 9, 40, 0
11, 24922, Note_on_c, 9, 44, 70
11, 24942, Note_on_c, 9, 40, 57
11, 24982, Note_on_c, 9, 44, 0
11, 25168, Note_on_c, 9, 40, 0
11, 25214, Note_on_c, 9, 40, 46
11, 25244, Note_on_c, 9, 40, 0
11, 25314, Note_on_c, 9, 40, 54
11, 25384, Note_on_c, 9, 40, 0
11, 25422, Note_on_c, 9, 40, 54
11, 25578, Note_on_c, 9, 40, 35
11, 25622, Note_on_c, 9, 40, 0
11, 25634, Note_on_c, 9, 40, 0
11, 25682, Note_on_c, 9, 35, 44
11, 25690, Note_on_c, 9, 44, 70
11, 25694, Note_on_c, 9, 37, 70
11, 25750, Note_on_c, 9, 40, 52
11, 25754, Note_on_c, 9, 44, 0
11, 25758, Note_on_c, 9, 37, 0
11, 25896, Note_on_c, 9, 35, 0
11, 25930, Note_on_c, 9, 40, 0
11, 25956, Note_on_c, 9, 35, 54
11, 25978, Note_on_c, 9, 40, 40
11, 25986, Note_on_c, 9, 35, 0
11, 26036, Note_on_c, 9, 40, 0
11, 26098, Note_on_c, 9, 40, 52
11, 26114, System_exclusive, 9, 67, 16, 76, 2, 1, 0, 2, 17, 247
11, 26114, System_exclusive, 9, 67, 16, 76, 2, 1, 32, 65, 8, 247
11, 26346, Note_on_c, 9, 39, 47
11, 26370, Note_on_c, 9, 40, 0
11, 26378, Note_on_c, 9, 39, 0
11, 26458, Note_on_c, 9, 44, 70
11, 26470, Note_on_c, 9, 40, 56
11, 26522, Note_on_c, 9, 44, 0
11, 26712, Note_on_c, 9, 39, 58
11, 26716, Note_on_c, 9, 40, 0
11, 26746, Note_on_c, 9, 39, 0
11, 26760, Note_on_c, 9, 40, 34
11, 26790, Note_on_c, 9, 40, 0
11, 26844, Note_on_c, 9, 40, 47
11, 26848, Note_on_c, 9, 35, 45
11, 26866, Note_on_c, 9, 36, 27
11, 26926, Note_on_c, 9, 36, 0
11, 27044, Note_on_c, 9, 35, 0
11, 27110, Note_on_c, 9, 39, 67
11, 27112, Note_on_c, 9, 35, 50
11, 27126, Note_on_c, 9, 40, 0
11, 27140, Note_on_c, 9, 35, 0
11, 27140, Note_on_c, 9, 39, 0
11, 27226, Note_on_c, 9, 44, 70
11, 27230, Note_on_c, 9, 37, 70
11, 27232, Note_on_c, 9, 40, 58
11, 27290, Note_on_c, 9, 37, 0
11, 27290, Note_on_c, 9, 44, 0
11, 27478, Note_on_c, 9, 39, 60
11, 27492, Note_on_c, 9, 40, 0
11, 27534, Note_on_c, 9, 39, 0
11, 27612, Note_on_c, 9, 40, 54
11, 27848, Note_on_c, 9, 39, 69
11, 27888, Note_on_c, 9, 40, 23
11, 27896, Note_on_c, 9, 40, 0
11, 27912, Note_on_c, 9, 39, 0
11, 27924, Note_on_c, 9, 40, 0
11, 27990, Note_on_c, 9, 46, 68
11, 27994, Note_on_c, 9, 44, 70
11, 28002, Note_on_c, 9, 35, 62
11, 28004, Note_on_c, 9, 40, 58
11, 28058, Note_on_c, 9, 44, 0
11, 28092, Note_on_c, 9, 46, 0
11, 28208, Note_on_c, 9, 35, 0
11, 28250, Note_on_c, 9, 39, 87
11, 28310, Note_on_c, 9, 40, 0
11, 28316, Note_on_c, 9, 39, 0
11, 28392, Note_on_c, 9, 40, 54
11, 28624, Note_on_c, 9, 39, 92
11, 28652, Note_on_c, 9, 40, 33
11, 28670, Note_on_c, 9, 38, 20
11, 28682, Note_on_c, 9, 40, 0
11, 28706, Note_on_c, 9, 39, 0
11, 28734, Note_on_c, 9, 40, 0
11, 28734, Note_on_c, 9, 38, 0
11, 28756, Note_on_c, 9, 46, 74
11, 28762, Note_on_c, 9, 38, 40
11, 28762, Note_on_c, 9, 44, 70
11, 28766, Note_on_c, 9, 35, 68
11, 28766, Note_on_c, 9, 37, 70
11, 28786, Note_on_c, 9, 40, 59
11, 28826, Note_on_c, 9, 44, 0
11, 28826, Note_on_c, 9, 38, 0
11, 28830, Note_on_c, 9, 37, 0
11, 28850, Note_on_c, 9, 46, 0
11, 28884, Note_on_c, 9, 35, 0
11, 28972, Note_on_c, 9, 40, 0
11, 29008, Note_on_c, 9, 36, 60
11, 29060, Note_on_c, 9, 36, 0
11, 29062, Note_on_c, 9, 40, 46
11, 29110, Note_on_c, 9, 40, 0
11, 29152, Note_on_c, 9, 36, 66
11, 29156, Note_on_c, 9, 40, 54
11, 29156, Note_on_c, 9, 57, 23
11, 29218, Note_on_c, 9, 57, 0
11, 29248, Note_on_c, 9, 36, 0
11, 29462, Note_on_c, 9, 40, 0
11, 29530, Note_on_c, 9, 44, 70
11, 29550, Note_on_c, 9, 40, 55
11, 29594, Note_on_c, 9, 44, 0
11, 29760, Note_on_c, 9, 40, 0
11, 29836, Note_on_c, 9, 40, 45
11, 29886, Note_on_c, 9, 40, 0
11, 29936, Note_on_c, 9, 40, 54
11, 30174, Note_on_c, 9, 39, 51
11, 30204, Note_on_c, 9, 35, 55
11, 30206, Note_on_c, 9, 39, 0
11, 30232, Note_on_c, 9, 35, 0
11, 30236, Note_on_c, 9, 40, 0
11, 30298, Note_on_c, 9, 37, 70
11, 30298, Note_on_c, 9, 44, 70
11, 30326, Note_on_c, 9, 40, 58
11, 30360, Note_on_c, 9, 35, 67
11, 30362, Note_on_c, 9, 44, 0
11, 30362, Note_on_c, 9, 37, 0
11, 30548, Note_on_c, 9, 39, 54
11, 30558, Note_on_c, 9, 35, 0
11, 30592, Note_on_c, 9, 39, 0
11, 30686, Note_on_c, 9, 40, 0
11, 30694, Note_on_c, 9, 35, 64
11, 30712, Note_on_c, 9, 40, 59
11, 30864, Note_on_c, 9, 35, 0
11, 30952, Note_on_c, 9, 36, 22
11, 31010, Note_on_c, 9, 36, 0
11, 31066, Note_on_c, 9, 44, 70
11, 31086, Note_on_c, 9, 40, 0
11, 31088, Note_on_c, 9, 36, 35
11, 31092, Note_on_c, 9, 40, 59
11, 31130, Note_on_c, 9, 44, 0
11, 31172, Note_on_c, 9, 36, 0
11, 31354, Note_on_c, 9, 40, 46
11, 31366, Note_on_c, 9, 40, 0
11, 31400, Note_on_c, 9, 40, 0
11, 31448, Note_on_c, 9, 40, 54
11, 31830, Note_on_c, 9, 40, 0
11, 31834, Note_on_c, 9, 37, 70
11, 31834, Note_on_c, 9, 44, 70
11, 31842, Note_on_c, 9, 40, 58
11, 31898, Note_on_c, 9, 44, 0
11, 31902, Note_on_c, 9, 37, 0
11, 32102, Note_on_c, 9, 40, 0
11, 32118, Note_on_c, 9, 40, 42
11, 32210, Note_on_c, 9, 40, 54
11, 32222, Note_on_c, 9, 40, 0
11, 32582, Note_on_c, 9, 40, 0
11, 32602, Note_on_c, 9, 44, 70
11, 32602, Note_on_c, 9, 40, 55
11, 32666, Note_on_c, 9, 44, 0
11, 32958, Note_on_c, 9, 40, 0
11, 32976, Note_on_c, 9, 40, 33
11, 32990, Note_on_c, 9, 40, 56
11, 33016, Note_on_c, 9, 40, 0
11, 33078, Note_on_c, 9, 40, 34
11, 33132, Note_on_c, 9, 40, 0
11, 33246, Note_on_c, 9, 39, 52
11, 33340, Note_on_c, 9, 39, 0
11, 33366, Note_on_c, 9, 40, 0
11, 33370, Note_on_c, 9, 37, 70
11, 33370, Note_on_c, 9, 44, 70
11, 33384, Note_on_c, 9, 40, 58
11, 33386, Note_on_c, 9, 40, 37
11, 33432, Note_on_c, 9, 40, 0
11, 33434, Note_on_c, 9, 37, 0
11, 33434, Note_on_c, 9, 44, 0
11, 33630, Note_on_c, 9, 39, 35
11, 33634, Note_on_c, 9, 35, 71
11, 33698, Note_on_c, 9, 35, 0
11, 33698, Note_on_c, 9, 39, 0
11, 33758, Note_on_c, 9, 40, 0
11, 33760, Note_on_c, 9, 39, 31
11, 33776, Note_on_c, 9, 40, 52
11, 33910, Note_on_c, 9, 39, 0
11, 34018, Note_on_c, 9, 36, 28
11, 34094, Note_on_c, 9, 36, 0
11, 34126, Note_on_c, 9, 40, 0
11, 34138, Note_on_c, 9, 44, 70
11, 34140, Note_on_c, 9, 40, 58
11, 34178, Note_on_c, 9, 40, 31
11, 34202, Note_on_c, 9, 44, 0
11, 34208, Note_on_c, 9, 40, 0
11, 34322, Note_on_c, 9, 40, 0
11, 34414, Note_on_c, 9, 40, 48
11, 34452, Note_on_c, 9, 40, 0
11, 34506, Note_on_c, 9, 40, 50
11, 34784, Note_on_c, 9, 40, 35
11, 34818, Note_on_c, 9, 40, 0
11, 34838, Note_on_c, 9, 40, 0
11, 34906, Note_on_c, 9, 44, 70
11, 34910, Note_on_c, 9, 37, 70
11, 34916, Note_on_c, 9, 35, 32
11, 34970, Note_on_c, 9, 37, 0
11, 34970, Note_on_c, 9, 44, 0
11, 34990, Note_on_c, 9, 40, 55
11, 35086, Note_on_c, 9, 35, 0
11, 35098, Note_on_c, 9, 40, 0
11, 35156, Note_on_c, 9, 35, 46
11, 35190, Note_on_c, 9, 35, 0
11, 35192, Note_on_c, 9, 40, 44
11, 35228, Note_on_c, 9, 40, 0
11, 35286, Note_on_c, 9, 40, 51
11, 35560, Note_on_c, 9, 40, 0
11, 35562, Note_on_c, 9, 39, 54
11, 35646, Note_on_c, 9, 39, 0
11, 35668, Note_on_c, 9, 40, 54
11, 35674, Note_on_c, 9, 44, 70
11, 35732, Note_on_c, 9, 36, 17
11, 35738, Note_on_c, 9, 44, 0
11, 35784, Note_on_c, 9, 36, 0
11, 35936, Note_on_c, 9, 36, 34
11, 35940, Note_on_c, 9, 40, 0
11, 35984, Note_on_c, 9, 36, 0
11, 36072, Note_on_c, 9, 40, 55
11, 36318, Note_on_c, 9, 40, 0
11, 36442, Note_on_c, 9, 37, 70
11, 36442, Note_on_c, 9, 44, 70
11, 36444, Note_on_c, 9, 35, 55
11, 36456, Note_on_c, 9, 40, 56
11, 36478, Note_on_c, 9, 35, 0
11, 36506, Note_on_c, 9, 37, 0
11, 36506, Note_on_c, 9, 44, 0
11, 36730, Note_on_c, 9, 39, 36
11, 36736, Note_on_c, 9, 40, 0
11, 36772, Note_on_c, 9, 39, 0
11, 36838, Note_on_c, 9, 40, 55
11, 36890, Note_on_c, 9, 39, 21
11, 36932, Note_on_c, 9, 39, 0
11, 37026, Note_on_c, 9, 40, 0
11, 37102, Note_on_c, 9, 36, 41
11, 37128, Note_on_c, 9, 40, 47
11, 37150, Note_on_c, 9, 36, 0
11, 37156, Note_on_c, 9, 40, 0
11, 37210, Note_on_c, 9, 44, 70
11, 37218, Note_on_c, 9, 40, 49
11, 37274, Note_on_c, 9, 44, 0
11, 37494, Note_on_c, 9, 40, 0
11, 37594, Note_on_c, 9, 40, 58
11, 37882, Note_on_c, 9, 40, 0
11, 37974, Note_on_c, 9, 44, 70
11, 37982, Note_on_c, 9, 37, 70
11, 37984, Note_on_c, 9, 40, 58
11, 38042, Note_on_c, 9, 44, 0
11, 38046, Note_on_c, 9, 37, 0
11, 38180, Note_on_c, 9, 40, 0
11, 38274, Note_on_c, 9, 40, 46
11, 38308, Note_on_c, 9, 40, 0
11, 38372, Note_on_c, 9, 40, 48
11, 38624, Note_on_c, 9, 39, 57
11, 38634, Note_on_c, 9, 35, 33
11, 38660, Note_on_c, 9, 40, 0
11, 38678, Note_on_c, 9, 35, 0
11, 38694, Note_on_c, 9, 39, 0
11, 38746, Note_on_c, 9, 44, 70
11, 38756, Note_on_c, 9, 40, 58
11, 38810, Note_on_c, 9, 44, 0
11, 38968, Note_on_c, 9, 40, 0
11, 39020, Note_on_c, 9, 39, 57
11, 39056, Note_on_c, 9, 40, 46
11, 39084, Note_on_c, 9, 39, 0
11, 39096, Note_on_c, 9, 40, 0
11, 39148, Note_on_c, 9, 40, 52
11, 39412, Note_on_c, 9, 39, 52
11, 39420, Note_on_c, 9, 35, 32
11, 39450, Note_on_c, 9, 40, 0
11, 39458, Note_on_c, 9, 35, 0
11, 39474, Note_on_c, 9, 39, 0
11, 39514, Note_on_c, 9, 44, 70
11, 39518, Note_on_c, 9, 37, 70
11, 39524, Note_on_c, 9, 35, 37
11, 39528, Note_on_c, 9, 40, 53
11, 39574, Note_on_c, 9, 37, 0
11, 39574, Note_on_c, 9, 44, 0
11, 39712, Note_on_c, 9, 40, 0
11, 39716, Note_on_c, 9, 35, 0
11, 39800, Note_on_c, 9, 35, 36
11, 39804, Note_on_c, 9, 39, 40
11, 39806, Note_on_c, 9, 40, 44
11, 39836, Note_on_c, 9, 35, 0
11, 39850, Note_on_c, 9, 39, 0
11, 39852, Note_on_c, 9, 40, 0
11, 39900, Note_on_c, 9, 40, 54
11, 40176, Note_on_c, 9, 50, 90
11, 40190, Note_on_c, 9, 35, 45
11, 40198, Note_on_c, 9, 40, 0
11, 40222, Note_on_c, 9, 50, 0
11, 40224, Note_on_c, 9, 35, 0
11, 40282, Note_on_c, 9, 44, 70
11, 40284, Note_on_c, 9, 46, 69
11, 40292, Note_on_c, 9, 40, 58
11, 40346, Note_on_c, 9, 44, 0
11, 40500, Note_on_c, 9, 40, 0
11, 40500, Note_on_c, 9, 46, 0
11, 40554, Note_on_c, 9, 48, 110
11, 40576, Note_on_c, 9, 40, 45
11, 40604, Note_on_c, 9, 48, 0
11, 40628, Note_on_c, 9, 40, 0
11, 40674, Note_on_c, 9, 35, 54
11, 40676, Note_on_c, 9, 40, 54
11, 40704, Note_on_c, 9, 35, 0
11, 40922, Note_on_c, 9, 46, 79
11, 40930, Note_on_c, 9, 47, 105
11, 40958, Note_on_c, 9, 38, 20
11, 40976, Note_on_c, 9, 40, 0
11, 40992, Note_on_c, 9, 47, 0
11, 41014, Note_on_c, 9, 38, 0
11, 41050, Note_on_c, 9, 38, 40
11, 41050, Note_on_c, 9, 44, 70
11, 41054, Note_on_c, 9, 37, 70
11, 41064, Note_on_c, 9, 40, 59
11, 41112, Note_on_c, 9, 46, 0
11, 41114, Note_on_c, 9, 38, 0
11, 41114, Note_on_c, 9, 44, 0
11, 41118, Note_on_c, 9, 37, 0
11, 41256, Note_on_c, 9, 40, 0
11, 41288, Note_on_c, 9, 39, 69
11, 41334, Note_on_c, 9, 35, 50
11, 41338, Note_on_c, 9, 40, 46
11, 41352, Note_on_c, 9, 39, 0
11, 41366, Note_on_c, 9, 35, 0
11, 41384, Note_on_c, 9, 40, 0
11, 41436, Note_on_c, 9, 40, 52
11, 41440, Note_on_c, 9, 36, 53
11, 41448, Note_on_c, 9, 57, 35
11, 41464, Note_on_c, 9, 35, 70
11, 41478, Note_on_c, 9, 33, 53
11, 41508, Note_on_c, 9, 33, 0
11, 41674, Note_on_c, 9, 35, 0
11, 41690, Note_on_c, 9, 40, 0
11, 41818, Note_on_c, 9, 44, 70
11, 41826, Note_on_c, 9, 40, 61
11, 41882, Note_on_c, 9, 44, 0
11, 41968, Note_on_c, 9, 57, 0
11, 42060, Note_on_c, 9, 40, 0
11, 42206, Note_on_c, 9, 40, 59
11, 42364, Note_on_c, 9, 36, 0
11, 42366, Note_on_c, 9, 39, 67
11, 42418, Note_on_c, 9, 39, 0
11, 42432, Note_on_c, 9, 40, 0
11, 42470, Note_on_c, 9, 39, 59
11, 42490, Note_on_c, 9, 40, 47
11, 42542, Note_on_c, 9, 39, 0
11, 42552, Note_on_c, 9, 40, 0
11, 42586, Note_on_c, 9, 37, 60
11, 42586, Note_on_c, 9, 44, 70
11, 42592, Note_on_c, 9, 40, 60
11, 42598, Note_on_c, 9, 36, 51
11, 42598, Note_on_c, 9, 57, 28
11, 42650, Note_on_c, 9, 44, 0
11, 42654, Note_on_c, 9, 37, 0
11, 42730, Note_on_c, 9, 57, 0
11, 42884, Note_on_c, 9, 40, 0
11, 42978, Note_on_c, 9, 40, 54
11, 43224, Note_on_c, 9, 36, 0
11, 43264, Note_on_c, 9, 40, 0
11, 43354, Note_on_c, 9, 44, 70
11, 43360, Note_on_c, 9, 40, 58
11, 43418, Note_on_c, 9, 44, 0
11, 43570, Note_on_c, 9, 40, 0
11, 43628, Note_on_c, 9, 40, 43
11, 43696, Note_on_c, 9, 40, 0
11, 43736, Note_on_c, 9, 40, 58
11, 44014, Note_on_c, 9, 40, 0
11, 44024, Note_on_c, 9, 35, 34
11, 44058, Note_on_c, 9, 35, 0
11, 44118, Note_on_c, 9, 40, 58
11, 44122, Note_on_c, 9, 44, 70
11, 44122, Note_on_c, 9, 37, 70
11, 44182, Note_on_c, 9, 37, 0
11, 44182, Note_on_c, 9, 44, 0
11, 44382, Note_on_c, 9, 40, 0
11, 44408, Note_on_c, 9, 35, 71
11, 44454, Note_on_c, 9, 35, 0
11, 44504, Note_on_c, 9, 40, 58
11, 44532, Note_on_c, 9, 35, 44
11, 44616, Note_on_c, 9, 35, 0
11, 44766, Note_on_c, 9, 40, 0
11, 44890, Note_on_c, 9, 44, 70
11, 44900, Note_on_c, 9, 40, 56
11, 44954, Note_on_c, 9, 44, 0
11, 45076, Note_on_c, 9, 40, 0
11, 45178, Note_on_c, 9, 40, 34
11, 45218, Note_on_c, 9, 40, 0
11, 45268, Note_on_c, 9, 40, 56
11, 45526, Note_on_c, 9, 40, 0
11, 45572, Note_on_c, 9, 39, 34
11, 45612, Note_on_c, 9, 39, 0
11, 45658, Note_on_c, 9, 37, 70
11, 45658, Note_on_c, 9, 44, 70
11, 45660, Note_on_c, 9, 40, 58
11, 45714, Note_on_c, 9, 39, 25
11, 45722, Note_on_c, 9, 44, 0
11, 45726, Note_on_c, 9, 37, 0
11, 45754, Note_on_c, 9, 39, 0
11, 45868, Note_on_c, 9, 40, 0
11, 45932, Note_on_c, 9, 39, 37
11, 45934, Note_on_c, 9, 40, 40
11, 45940, Note_on_c, 9, 35, 30
11, 45980, Note_on_c, 9, 35, 0
11, 45988, Note_on_c, 9, 40, 0
11, 46020, Note_on_c, 9, 39, 0
11, 46040, Note_on_c, 9, 40, 53
11, 46062, Note_on_c, 9, 35, 28
11, 46168, Note_on_c, 9, 35, 0
11, 46296, Note_on_c, 9, 40, 0
11, 46426, Note_on_c, 9, 44, 70
11, 46442, Note_on_c, 9, 40, 58
11, 46490, Note_on_c, 9, 44, 0
11, 46688, Note_on_c, 9, 40, 0
11, 46818, Note_on_c, 9, 40, 58
11, 47044, Note_on_c, 9, 40, 0
11, 47104, Note_on_c, 9, 40, 36
11, 47112, Note_on_c, 9, 39, 28
11, 47142, Note_on_c, 9, 40, 0
11, 47152, Note_on_c, 9, 39, 0
11, 47194, Note_on_c, 9, 44, 70
11, 47198, Note_on_c, 9, 37, 70
11, 47258, Note_on_c, 9, 44, 0
11, 47262, Note_on_c, 9, 37, 0
11, 47308, Note_on_c, 9, 40, 52
11, 47464, Note_on_c, 9, 40, 38
11, 47478, Note_on_c, 9, 40, 0
11, 47520, Note_on_c, 9, 40, 0
11, 47574, Note_on_c, 9, 35, 54
11, 47584, Note_on_c, 9, 40, 57
11, 47742, Note_on_c, 9, 35, 0
11, 47848, Note_on_c, 9, 40, 0
11, 47962, Note_on_c, 9, 44, 70
11, 47968, Note_on_c, 9, 40, 54
11, 48026, Note_on_c, 9, 44, 0
11, 48218, Note_on_c, 9, 40, 0
11, 48264, Note_on_c, 9, 39, 29
11, 48292, Note_on_c, 9, 39, 0
11, 48352, Note_on_c, 9, 40, 56
11, 48580, Note_on_c, 9, 40, 0
11, 48614, Note_on_c, 9, 39, 44
11, 48634, Note_on_c, 9, 40, 44
11, 48640, Note_on_c, 9, 40, 15
11, 48652, Note_on_c, 9, 39, 0
11, 48674, Note_on_c, 9, 40, 0
11, 48696, Note_on_c, 9, 40, 0
11, 48730, Note_on_c, 9, 37, 70
11, 48730, Note_on_c, 9, 44, 70
11, 48744, Note_on_c, 9, 40, 51
11, 48794, Note_on_c, 9, 44, 0
11, 48794, Note_on_c, 9, 37, 0
11, 48910, Note_on_c, 9, 35, 53
11, 48950, Note_on_c, 9, 35, 0
11, 49014, Note_on_c, 9, 40, 0
11, 49042, Note_on_c, 9, 35, 66
11, 49118, Note_on_c, 9, 40, 56
11, 49124, Note_on_c, 9, 35, 0
11, 49178, Note_on_c, 9, 35, 60
11, 49226, Note_on_c, 9, 35, 0
11, 49370, Note_on_c, 9, 40, 0
11, 49498, Note_on_c, 9, 44, 70
11, 49512, Note_on_c, 9, 40, 58
11, 49562, Note_on_c, 9, 44, 0
11, 49688, Note_on_c, 9, 40, 0
11, 49780, Note_on_c, 9, 40, 34
11, 49784, Note_on_c, 9, 39, 35
11, 49810, Note_on_c, 9, 39, 0
11, 49812, Note_on_c, 9, 40, 48
11, 49816, Note_on_c, 9, 40, 0
11, 49852, Note_on_c, 9, 40, 0
11, 49906, Note_on_c, 9, 40, 50
11, 49906, Note_on_c, 9, 35, 29
11, 50072, Note_on_c, 9, 35, 0
11, 50152, Note_on_c, 9, 35, 33
11, 50168, Note_on_c, 9, 40, 0
11, 50176, Note_on_c, 9, 39, 35
11, 50188, Note_on_c, 9, 35, 0
11, 50210, Note_on_c, 9, 39, 0
11, 50266, Note_on_c, 9, 37, 70
11, 50266, Note_on_c, 9, 44, 70
11, 50330, Note_on_c, 9, 44, 0
11, 50330, Note_on_c, 9, 37, 0
11, 50388, Note_on_c, 9, 40, 54
11, 50422, Note_on_c, 9, 40, 0
11, 50558, Note_on_c, 9, 40, 46
11, 50598, Note_on_c, 9, 40, 0
11, 50656, Note_on_c, 9, 40, 50
11, 50998, Note_on_c, 9, 40, 0
11, 51028, Note_on_c, 9, 40, 53
11, 51034, Note_on_c, 9, 44, 70
11, 51098, Note_on_c, 9, 44, 0
11, 51374, Note_on_c, 9, 40, 0
11, 51414, Note_on_c, 9, 40, 43
11, 51750, Note_on_c, 9, 40, 0
11, 51792, Note_on_c, 9, 51, 47
11, 51792, Note_on_c, 9, 40, 48
11, 51802, Note_on_c, 9, 37, 70
11, 51802, Note_on_c, 9, 44, 70
11, 51866, Note_on_c, 9, 44, 0
11, 51866, Note_on_c, 9, 37, 0
11, 52088, Note_on_c, 9, 51, 0
11, 52102, Note_on_c, 9, 40, 0
11, 52182, Note_on_c, 9, 40, 46
11, 52472, Note_on_c, 9, 35, 47
11, 52492, Note_on_c, 9, 40, 0
11, 52502, Note_on_c, 9, 35, 0
11, 52564, Note_on_c, 9, 59, 78
11, 52568, Note_on_c, 9, 40, 41
11, 52570, Note_on_c, 9, 51, 71
11, 52570, Note_on_c, 9, 44, 70
11, 52634, Note_on_c, 9, 44, 0
11, 52828, Note_on_c, 9, 59, 0
11, 52854, Note_on_c, 9, 39, 51
11, 52912, Note_on_c, 9, 39, 0
11, 52912, Note_on_c, 9, 40, 0
11, 52982, Note_on_c, 9, 40, 44
11, 52984, Note_on_c, 9, 59, 70
11, 53060, Note_on_c, 9, 59, 0
11, 53180, Note_on_c, 9, 51, 0
11, 53238, Note_on_c, 9, 39, 56
11, 53246, Note_on_c, 9, 38, 60
11, 53282, Note_on_c, 9, 40, 0
11, 53300, Note_on_c, 9, 39, 0
11, 53310, Note_on_c, 9, 38, 0
11, 53338, Note_on_c, 9, 44, 70
11, 53352, Note_on_c, 9, 40, 47
11, 53402, Note_on_c, 9, 44, 0
11, 53458, Note_on_c, 9, 51, 62
11, 53610, Note_on_c, 9, 51, 0
11, 53614, Note_on_c, 9, 39, 50
11, 53622, Note_on_c, 9, 38, 30
11, 53644, Note_on_c, 9, 40, 0
11, 53674, Note_on_c, 9, 39, 0
11, 53690, Note_on_c, 9, 38, 0
11, 53716, Note_on_c, 9, 40, 47
11, 53726, Note_on_c, 9, 49, 30
11, 53762, Program_c, 9, 32
11, 53778, System_exclusive, 8, 67, 16, 76, 3, 0, 12, 127, 247
11, 53778, System_exclusive, 8, 67, 16, 76, 3, 1, 12, 127, 247
11, 53778, System_exclusive, 8, 67, 16, 76, 3, 2, 12, 127, 247
11, 53778, Program_c, 9, 0
11, 53790, Note_on_c, 9, 49, 0
11, 53844, Note_on_c, 9, 40, 0
11, 54106, Note_on_c, 9, 44, 70
11, 54106, Note_on_c, 9, 51, 108
11, 54170, Note_on_c, 9, 44, 0
11, 54174, Note_on_c, 9, 51, 0
11, 54490, Note_on_c, 9, 51, 88
11, 54558, Note_on_c, 9, 51, 0
11, 54748, Note_on_c, 9, 37, 74
11, 54810, Note_on_c, 9, 37, 0
11, 54874, Note_on_c, 9, 44, 70
11, 54876, Note_on_c, 9, 37, 44
11, 54878, Note_on_c, 9, 51, 108
11, 54878, Note_on_c, 9, 37, 70
11, 54924, Note_on_c, 9, 37, 0
11, 54938, Note_on_c, 9, 44, 0
11, 54938, Note_on_c, 9, 37, 0
11, 54942, Note_on_c, 9, 51, 0
11, 55126, Note_on_c, 9, 37, 69
11, 55204, Note_on_c, 9, 37, 0
11, 55258, Note_on_c, 9, 51, 88
11, 55274, Note_on_c, 9, 35, 66
11, 55326, Note_on_c, 9, 51, 0
11, 55332, Note_on_c, 9, 35, 0
11, 55642, Note_on_c, 9, 44, 70
11, 55642, Note_on_c, 9, 51, 98
11, 55706, Note_on_c, 9, 44, 0
11, 55710, Note_on_c, 9, 51, 0
11, 56026, Note_on_c, 9, 51, 88
11, 56094, Note_on_c, 9, 51, 0
11, 56410, Note_on_c, 9, 37, 70
11, 56410, Note_on_c, 9, 44, 70
11, 56414, Note_on_c, 9, 51, 98
11, 56474, Note_on_c, 9, 44, 0
11, 56478, Note_on_c, 9, 51, 0
11, 56478, Note_on_c, 9, 37, 0
11, 56794, Note_on_c, 9, 51, 88
11, 56862, Note_on_c, 9, 51, 0
11, 57178, Note_on_c, 9, 44, 70
11, 57178, Note_on_c, 9, 51, 98
11, 57242, Note_on_c, 9, 44, 0
11, 57246, Note_on_c, 9, 51, 0
11, 57462, Note_on_c, 9, 51, 68
11, 57534, Note_on_c, 9, 51, 0
11, 57562, Note_on_c, 9, 51, 88
11, 57630, Note_on_c, 9, 51, 0
11, 57946, Note_on_c, 9, 37, 60
11, 57946, Note_on_c, 9, 44, 70
11, 57950, Note_on_c, 9, 51, 98
11, 58010, Note_on_c, 9, 44, 0
11, 58010, Note_on_c, 9, 37, 0
11, 58014, Note_on_c, 9, 51, 0
11, 58230, Note_on_c, 9, 51, 68
11, 58294, Note_on_c, 9, 51, 0
11, 58330, Note_on_c, 9, 51, 88
11, 58398, Note_on_c, 9, 51, 0
11, 58714, Note_on_c, 9, 51, 98
11, 58714, Note_on_c, 9, 44, 70
11, 58774, Note_on_c, 9, 44, 0
11, 58782, Note_on_c, 9, 51, 0
11, 58820, Note_on_c, 9, 40, 27
11, 58878, Note_on_c, 9, 40, 0
11, 59098, Note_on_c, 9, 51, 88
11, 59166, Note_on_c, 9, 51, 0
11, 59482, Note_on_c, 9, 44, 70
11, 59486, Note_on_c, 9, 37, 70
11, 59486, Note_on_c, 9, 51, 98
11, 59546, Note_on_c, 9, 44, 0
11, 59550, Note_on_c, 9, 51, 0
11, 59550, Note_on_c, 9, 37, 0
11, 59606, Note_on_c, 9, 40, 41
11, 59658, Note_on_c, 9, 40, 0
11, 59732, Note_on_c, 9, 37, 69
11, 59836, Note_on_c, 9, 37, 0
11, 59860, Note_on_c, 9, 35, 59
11, 59866, Note_on_c, 9, 51, 88
11, 59934, Note_on_c, 9, 51, 0
11, 59986, Note_on_c, 9, 35, 0
11, 60250, Note_on_c, 9, 44, 70
11, 60254, Note_on_c, 9, 51, 98
11, 60314, Note_on_c, 9, 44, 0
11, 60318, Note_on_c, 9, 51, 0
11, 60542, Note_on_c, 9, 51, 68
11, 60598, Note_on_c, 9, 51, 0
11, 60634, Note_on_c, 9, 51, 88
11, 60702, Note_on_c, 9, 51, 0
11, 60772, Note_on_c, 9, 40, 23
11, 60808, Note_on_c, 9, 40, 0
11, 60874, Note_on_c, 9, 40, 27
11, 60930, Note_on_c, 9, 40, 0
11, 61018, Note_on_c, 9, 44, 70
11, 61018, Note_on_c, 9, 40, 27
11, 61022, Note_on_c, 9, 37, 60
11, 61022, Note_on_c, 9, 51, 98
11, 61054, Note_on_c, 9, 40, 0
11, 61082, Note_on_c, 9, 44, 0
11, 61086, Note_on_c, 9, 37, 0
11, 61086, Note_on_c, 9, 51, 0
11, 61264, Note_on_c, 9, 40, 40
11, 61292, Note_on_c, 9, 40, 0
11, 61302, Note_on_c, 9, 51, 68
11, 61370, Note_on_c, 9, 51, 0
11, 61402, Note_on_c, 9, 51, 88
11, 61470, Note_on_c, 9, 51, 0
11, 61782, Note_on_c, 9, 44, 70
11, 61786, Note_on_c, 9, 51, 98
11, 61850, Note_on_c, 9, 44, 0
11, 61854, Note_on_c, 9, 51, 0
11, 62170, Note_on_c, 9, 51, 88
11, 62238, Note_on_c, 9, 51, 0
11, 62432, Note_on_c, 9, 40, 33
11, 62460, Note_on_c, 9, 40, 0
11, 62554, Note_on_c, 9, 44, 70
11, 62558, Note_on_c, 9, 37, 70
11, 62558, Note_on_c, 9, 51, 98
11, 62618, Note_on_c, 9, 37, 0
11, 62618, Note_on_c, 9, 44, 0
11, 62622, Note_on_c, 9, 51, 0
11, 62938, Note_on_c, 9, 51, 88
11, 63006, Note_on_c, 9, 51, 0
11, 63196, Note_on_c, 9, 40, 26
11, 63228, Note_on_c, 9, 40, 0
11, 63322, Note_on_c, 9, 51, 108
11, 63322, Note_on_c, 9, 44, 70
11, 63382, Note_on_c, 9, 44, 0
11, 63390, Note_on_c, 9, 51, 0
11, 63582, Note_on_c, 9, 40, 29
11, 63612, Note_on_c, 9, 40, 0
11, 63706, Note_on_c, 9, 51, 88
11, 63774, Note_on_c, 9, 51, 0
11, 63958, Note_on_c, 9, 40, 34
11, 63986, Note_on_c, 9, 40, 0
11, 64090, Note_on_c, 9, 44, 70
11, 64090, Note_on_c, 9, 51, 108
11, 64090, Note_on_c, 9, 37, 70
11, 64154, Note_on_c, 9, 37, 0
11, 64154, Note_on_c, 9, 44, 0
11, 64158, Note_on_c, 9, 51, 0
11, 64332, Note_on_c, 9, 40, 34
11, 64358, Note_on_c, 9, 40, 0
11, 64474, Note_on_c, 9, 51, 88
11, 64542, Note_on_c, 9, 51, 0
11, 64730, Note_on_c, 9, 40, 29
11, 64762, Note_on_c, 9, 40, 0
11, 64858, Note_on_c, 9, 44, 70
11, 64858, Note_on_c, 9, 51, 98
11, 64922, Note_on_c, 9, 44, 0
11, 64926, Note_on_c, 9, 51, 0
11, 65150, Note_on_c, 9, 51, 68
11, 65206, Note_on_c, 9, 51, 0
11, 65242, Note_on_c, 9, 51, 88
11, 65310, Note_on_c, 9, 51, 0
11, 65530, Note_on_c, 9, 38, 60
11, 65590, Note_on_c, 9, 38, 0
11, 65626, Note_on_c, 9, 51, 98
11, 65626, Note_on_c, 9, 44, 70
11, 65690, Note_on_c, 9, 44, 0
11, 65694, Note_on_c, 9, 51, 0
11, 65898, Note_on_c, 9, 37, 88
11, 65912, Note_on_c, 9, 57, 33
11, 65914, Note_on_c, 9, 38, 30
11, 65918, Note_on_c, 9, 51, 68
11, 65944, Note_on_c, 9, 57, 0
11, 65970, Note_on_c, 9, 51, 0
11, 65970, Note_on_c, 9, 38, 0
11, 66010, Note_on_c, 9, 51, 88
11, 66030, Note_on_c, 9, 35, 79
11, 66050, Note_on_c, 9, 37, 0
11, 66078, Note_on_c, 9, 51, 0
11, 66394, Note_on_c, 9, 51, 98
11, 66394, Note_on_c, 9, 44, 70
11, 66458, Note_on_c, 9, 44, 0
11, 66462, Note_on_c, 9, 51, 0
11, 66678, Note_on_c, 9, 51, 68
11, 66750, Note_on_c, 9, 51, 0
11, 66778, Note_on_c, 9, 51, 88
11, 66846, Note_on_c, 9, 51, 0
11, 67070, Note_on_c, 9, 35, 0
11, 67162, Note_on_c, 9, 37, 60
11, 67162, Note_on_c, 9, 44, 70
11, 67166, Note_on_c, 9, 51, 98
11, 67226, Note_on_c, 9, 44, 0
11, 67226, Note_on_c, 9, 37, 0
11, 67230, Note_on_c, 9, 51, 0
11, 67442, Note_on_c, 9, 51, 68
11, 67510, Note_on_c, 9, 51, 0
11, 67546, Note_on_c, 9, 51, 88
11, 67614, Note_on_c, 9, 51, 0
11, 67930, Note_on_c, 9, 44, 70
11, 67930, Note_on_c, 9, 51, 98
11, 67994, Note_on_c, 9, 44, 0
11, 67998, Note_on_c, 9, 51, 0
11, 68214, Note_on_c, 9, 51, 68
11, 68286, Note_on_c, 9, 51, 0
11, 68314, Note_on_c, 9, 51, 88
11, 68382, Note_on_c, 9, 51, 0
11, 68580, Note_on_c, 9, 37, 36
11, 68654, Note_on_c, 9, 37, 0
11, 68692, Note_on_c, 9, 35, 32
11, 68698, Note_on_c, 9, 44, 70
11, 68698, Note_on_c, 9, 37, 70
11, 68702, Note_on_c, 9, 51, 98
11, 68724, Note_on_c, 9, 35, 0
11, 68762, Note_on_c, 9, 44, 0
11, 68762, Note_on_c, 9, 37, 0
11, 68766, Note_on_c, 9, 51, 0
11, 68948, Note_on_c, 9, 35, 53
11, 68978, Note_on_c, 9, 51, 68
11, 69034, Note_on_c, 9, 35, 0
11, 69054, Note_on_c, 9, 51, 0
11, 69082, Note_on_c, 9, 51, 88
11, 69126, Note_on_c, 9, 35, 31
11, 69150, Note_on_c, 9, 51, 0
11, 69178, Note_on_c, 9, 35, 0
11, 69358, Note_on_c, 9, 35, 54
11, 69390, Note_on_c, 9, 35, 0
11, 69466, Note_on_c, 9, 44, 70
11, 69470, Note_on_c, 9, 51, 108
11, 69530, Note_on_c, 9, 44, 0
11, 69534, Note_on_c, 9, 51, 0
11, 69850, Note_on_c, 9, 51, 88
11, 69918, Note_on_c, 9, 51, 0
11, 70234, Note_on_c, 9, 44, 70
11, 70238, Note_on_c, 9, 51, 108
11, 70238, Note_on_c, 9, 37, 70
11, 70298, Note_on_c, 9, 44, 0
11, 70302, Note_on_c, 9, 37, 0
11, 70302, Note_on_c, 9, 51, 0
11, 70618, Note_on_c, 9, 51, 88
11, 70686, Note_on_c, 9, 51, 0
11, 71002, Note_on_c, 9, 44, 70
11, 71006, Note_on_c, 9, 51, 108
11, 71012, Note_on_c, 9, 40, 19
11, 71036, Note_on_c, 9, 40, 0
11, 71066, Note_on_c, 9, 44, 0
11, 71070, Note_on_c, 9, 51, 0
11, 71192, Note_on_c, 9, 40, 40
11, 71218, Note_on_c, 9, 40, 0
11, 71382, Note_on_c, 9, 51, 88
11, 71400, Note_on_c, 9, 40, 50
11, 71444, Note_on_c, 9, 40, 0
11, 71454, Note_on_c, 9, 51, 0
11, 71500, Note_on_c, 9, 40, 44
11, 71538, Note_on_c, 9, 40, 0
11, 71770, Note_on_c, 9, 44, 70
11, 71774, Note_on_c, 9, 37, 70
11, 71774, Note_on_c, 9, 51, 108
11, 71834, Note_on_c, 9, 37, 0
11, 71834, Note_on_c, 9, 44, 0
11, 71838, Note_on_c, 9, 51, 0
11, 72044, Note_on_c, 9, 37, 47
11, 72106, Note_on_c, 9, 37, 0
11, 72158, Note_on_c, 9, 51, 88
11, 72184, Note_on_c, 9, 35, 48
11, 72222, Note_on_c, 9, 51, 0
11, 72358, Note_on_c, 9, 35, 0
11, 72430, Note_on_c, 9, 35, 37
11, 72466, Note_on_c, 9, 35, 0
11, 72538, Note_on_c, 9, 44, 70
11, 72542, Note_on_c, 9, 51, 98
11, 72602, Note_on_c, 9, 44, 0
11, 72606, Note_on_c, 9, 51, 0
11, 72822, Note_on_c, 9, 51, 68
11, 72886, Note_on_c, 9, 51, 0
11, 72922, Note_on_c, 9, 51, 88
11, 72990, Note_on_c, 9, 51, 0
11, 73176, Note_on_c, 9, 40, 50
11, 73222, Note_on_c, 9, 40, 0
11, 73306, Note_on_c, 9, 44, 70
11, 73310, Note_on_c, 9, 35, 36
11, 73310, Note_on_c, 9, 51, 98
11, 73310, Note_on_c, 9, 37, 60
11, 73352, Note_on_c, 9, 35, 0
11, 73370, Note_on_c, 9, 44, 0
11, 73370, Note_on_c, 9, 37, 0
11, 73374, Note_on_c, 9, 51, 0
11, 73548, Note_on_c, 9, 40, 38
11, 73574, Note_on_c, 9, 40, 0
11, 73590, Note_on_c, 9, 51, 68
11, 73654, Note_on_c, 9, 51, 0
11, 73690, Note_on_c, 9, 51, 88
11, 73758, Note_on_c, 9, 51, 0
11, 74074, Note_on_c, 9, 44, 70
11, 74078, Note_on_c, 9, 51, 108
11, 74138, Note_on_c, 9, 44, 0
11, 74142, Note_on_c, 9, 51, 0
11, 74458, Note_on_c, 9, 51, 88
11, 74526, Note_on_c, 9, 51, 0
11, 74842, Note_on_c, 9, 37, 70
11, 74842, Note_on_c, 9, 44, 70
11, 74846, Note_on_c, 9, 51, 108
11, 74906, Note_on_c, 9, 44, 0
11, 74906, Note_on_c, 9, 37, 0
11, 74910, Note_on_c, 9, 51, 0
11, 75226, Note_on_c, 9, 51, 88
11, 75294, Note_on_c, 9, 51, 0
11, 75610, Note_on_c, 9, 44, 70
11, 75610, Note_on_c, 9, 51, 98
11, 75674, Note_on_c, 9, 44, 0
11, 75678, Note_on_c, 9, 51, 0
11, 75894, Note_on_c, 9, 51, 68
11, 75962, Note_on_c, 9, 51, 0
11, 75994, Note_on_c, 9, 51, 88
11, 76062, Note_on_c, 9, 51, 0
11, 76374, Note_on_c, 9, 44, 70
11, 76378, Note_on_c, 9, 51, 98
11, 76378, Note_on_c, 9, 37, 60
11, 76442, Note_on_c, 9, 37, 0
11, 76442, Note_on_c, 9, 44, 0
11, 76446, Note_on_c, 9, 51, 0
11, 76662, Note_on_c, 9, 51, 68
11, 76734, Note_on_c, 9, 51, 0
11, 76762, Note_on_c, 9, 51, 88
11, 76830, Note_on_c, 9, 51, 0
11, 77036, Note_on_c, 9, 37, 35
11, 77124, Note_on_c, 9, 37, 0
11, 77146, Note_on_c, 9, 44, 70
11, 77150, Note_on_c, 9, 51, 98
11, 77170, Note_on_c, 9, 35, 24
11, 77210, Note_on_c, 9, 44, 0
11, 77214, Note_on_c, 9, 51, 0
11, 77304, Note_on_c, 9, 35, 0
11, 77430, Note_on_c, 9, 51, 68
11, 77440, Note_on_c, 9, 35, 38
11, 77484, Note_on_c, 9, 35, 0
11, 77502, Note_on_c, 9, 51, 0
11, 77530, Note_on_c, 9, 51, 88
11, 77598, Note_on_c, 9, 51, 0
11, 77814, Note_on_c, 9, 38, 60
11, 77886, Note_on_c, 9, 38, 0
11, 77914, Note_on_c, 9, 44, 70
11, 77914, Note_on_c, 9, 51, 98
11, 77974, Note_on_c, 9, 44, 0
11, 77982, Note_on_c, 9, 51, 0
11, 78186, Note_on_c, 9, 37, 67
11, 78198, Note_on_c, 9, 51, 68
11, 78198, Note_on_c, 9, 38, 30
11, 78266, Note_on_c, 9, 38, 0
11, 78270, Note_on_c, 9, 51, 0
11, 78298, Note_on_c, 9, 51, 88
11, 78318, Note_on_c, 9, 57, 38
11, 78318, Note_on_c, 9, 35, 94
11, 78362, Note_on_c, 9, 37, 0
11, 78366, Note_on_c, 9, 51, 0
11, 78682, Note_on_c, 9, 44, 70
11, 78686, Note_on_c, 9, 51, 98
11, 78746, Note_on_c, 9, 44, 0
11, 78750, Note_on_c, 9, 51, 0
11, 78970, Note_on_c, 9, 51, 68
11, 79030, Note_on_c, 9, 51, 0
11, 79066, Note_on_c, 9, 51, 88
11, 79134, Note_on_c, 9, 51, 0
11, 79288, Note_on_c, 9, 57, 0
11, 79320, Note_on_c, 9, 35, 0
11, 79338, Note_on_c, 9, 37, 67
11, 79422, Note_on_c, 9, 37, 0
11, 79450, Note_on_c, 9, 44, 70
11, 79450, Note_on_c, 9, 37, 70
11, 79450, Note_on_c, 9, 57, 41
11, 79452, Note_on_c, 9, 35, 89
11, 79454, Note_on_c, 9, 51, 98
11, 79514, Note_on_c, 9, 44, 0
11, 79518, Note_on_c, 9, 37, 0
11, 79518, Note_on_c, 9, 51, 0
11, 79742, Note_on_c, 9, 51, 68
11, 79798, Note_on_c, 9, 51, 0
11, 79834, Note_on_c, 9, 51, 88
11, 79902, Note_on_c, 9, 51, 0
11, 80218, Note_on_c, 9, 44, 70
11, 80218, Note_on_c, 9, 51, 108
11, 80280, Note_on_c, 9, 57, 0
11, 80282, Note_on_c, 9, 44, 0
11, 80286, Note_on_c, 9, 51, 0
11, 80602, Note_on_c, 9, 51, 88
11, 80670, Note_on_c, 9, 51, 0
11, 80986, Note_on_c, 9, 44, 70
11, 80986, Note_on_c, 9, 51, 108
11, 80986, Note_on_c, 9, 37, 70
11, 81050, Note_on_c, 9, 37, 0
11, 81050, Note_on_c, 9, 44, 0
11, 81054, Note_on_c, 9, 51, 0
11, 81054, Note_on_c, 9, 35, 0
11, 81370, Note_on_c, 9, 51, 88
11, 81438, Note_on_c, 9, 51, 0
11, 81754, Note_on_c, 9, 51, 108
11, 81754, Note_on_c, 9, 44, 70
11, 81818, Note_on_c, 9, 44, 0
11, 81822, Note_on_c, 9, 51, 0
11, 82138, Note_on_c, 9, 51, 88
11, 82206, Note_on_c, 9, 51, 0
11, 82522, Note_on_c, 9, 37, 70
11, 82522, Note_on_c, 9, 44, 70
11, 82526, Note_on_c, 9, 51, 108
11, 82582, Note_on_c, 9, 44, 0
11, 82582, Note_on_c, 9, 37, 0
11, 82594, Note_on_c, 9, 51, 0
11, 82906, Note_on_c, 9, 51, 88
11, 82910, Note_on_c, 9, 40, 23
11, 82944, Note_on_c, 9, 40, 0
11, 82974, Note_on_c, 9, 51, 0
11, 83100, Note_on_c, 9, 40, 42
11, 83126, Note_on_c, 9, 40, 0
11, 83290, Note_on_c, 9, 44, 70
11, 83294, Note_on_c, 9, 51, 108
11, 83332, Note_on_c, 9, 40, 48
11, 83354, Note_on_c, 9, 44, 0
11, 83356, Note_on_c, 9, 40, 0
11, 83358, Note_on_c, 9, 51, 0
11, 83398, Note_on_c, 9, 40, 44
11, 83424, Note_on_c, 9, 40, 0
11, 83674, Note_on_c, 9, 51, 88
11, 83742, Note_on_c, 9, 51, 0
11, 84058, Note_on_c, 9, 44, 70
11, 84062, Note_on_c, 9, 51, 108
11, 84062, Note_on_c, 9, 37, 70
11, 84122, Note_on_c, 9, 44, 0
11, 84126, Note_on_c, 9, 37, 0
11, 84126, Note_on_c, 9, 51, 0
11, 84322, Note_on_c, 9, 37, 58
11, 84416, Note_on_c, 9, 37, 0
11, 84446, Note_on_c, 9, 51, 88
11, 84510, Note_on_c, 9, 51, 0
11, 84826, Note_on_c, 9, 44, 70
11, 84826, Note_on_c, 9, 51, 98
11, 84890, Note_on_c, 9, 44, 0
11, 84894, Note_on_c, 9, 51, 0
11, 85110, Note_on_c, 9, 51, 68
11, 85170, Note_on_c, 9, 51, 0
11, 85210, Note_on_c, 9, 51, 88
11, 85278, Note_on_c, 9, 51, 0
11, 85476, Note_on_c, 9, 35, 36
11, 85518, Note_on_c, 9, 35, 0
11, 85594, Note_on_c, 9, 37, 60
11, 85594, Note_on_c, 9, 44, 70
11, 85598, Note_on_c, 9, 51, 98
11, 85612, Note_on_c, 9, 35, 31
11, 85658, Note_on_c, 9, 44, 0
11, 85662, Note_on_c, 9, 37, 0
11, 85662, Note_on_c, 9, 51, 0
11, 85686, Note_on_c, 9, 35, 0
11, 85870, Note_on_c, 9, 35, 37
11, 85878, Note_on_c, 9, 51, 68
11, 85918, Note_on_c, 9, 35, 0
11, 85950, Note_on_c, 9, 51, 0
11, 85978, Note_on_c, 9, 51, 88
11, 86046, Note_on_c, 9, 51, 0
11, 86362, Note_on_c, 9, 44, 70
11, 86362, Note_on_c, 9, 51, 98
11, 86426, Note_on_c, 9, 44, 0
11, 86430, Note_on_c, 9, 51, 0
11, 86746, Note_on_c, 9, 51, 88
11, 86814, Note_on_c, 9, 51, 0
11, 86882, Note_on_c, 9, 37, 21
11, 86942, Note_on_c, 9, 37, 0
11, 86990, Note_on_c, 9, 37, 65
11, 87080, Note_on_c, 9, 37, 0
11, 87118, Note_on_c, 9, 37, 69
11, 87130, Note_on_c, 9, 37, 70
11, 87130, Note_on_c, 9, 44, 70
11, 87134, Note_on_c, 9, 51, 98
11, 87182, Note_on_c, 9, 37, 0
11, 87194, Note_on_c, 9, 37, 0
11, 87194, Note_on_c, 9, 44, 0
11, 87198, Note_on_c, 9, 51, 0
11, 87406, Note_on_c, 9, 35, 51
11, 87446, Note_on_c, 9, 35, 0
11, 87514, Note_on_c, 9, 51, 88
11, 87582, Note_on_c, 9, 51, 0
11, 87898, Note_on_c, 9, 51, 108
11, 87898, Note_on_c, 9, 44, 70
11, 87962, Note_on_c, 9, 44, 0
11, 87966, Note_on_c, 9, 51, 0
11, 88282, Note_on_c, 9, 51, 88
11, 88344, Note_on_c, 9, 46, 47
11, 88350, Note_on_c, 9, 51, 0
11, 88492, Note_on_c, 9, 46, 0
11, 88656, Note_on_c, 9, 46, 68
11, 88666, Note_on_c, 9, 44, 70
11, 88670, Note_on_c, 9, 37, 70
11, 88670, Note_on_c, 9, 51, 108
11, 88730, Note_on_c, 9, 37, 0
11, 88730, Note_on_c, 9, 44, 0
11, 88734, Note_on_c, 9, 51, 0
11, 88776, Note_on_c, 9, 46, 0
11, 88946, Note_on_c, 9, 46, 77
11, 89042, Note_on_c, 9, 46, 0
11, 89050, Note_on_c, 9, 51, 88
11, 89118, Note_on_c, 9, 51, 0
11, 89214, Note_on_c, 9, 46, 71
11, 89330, Note_on_c, 9, 46, 0
11, 89434, Note_on_c, 9, 44, 70
11, 89434, Note_on_c, 9, 51, 98
11, 89468, Note_on_c, 9, 46, 81
11, 89498, Note_on_c, 9, 44, 0
11, 89502, Note_on_c, 9, 51, 0
11, 89612, Note_on_c, 9, 46, 0
11, 89724, Note_on_c, 9, 46, 74
11, 89726, Note_on_c, 9, 51, 68
11, 89778, Note_on_c, 9, 51, 0
11, 89818, Note_on_c, 9, 51, 88
11, 89832, Note_on_c, 9, 46, 0
11, 89886, Note_on_c, 9, 51, 0
11, 89958, Note_on_c, 9, 46, 78
11, 90082, Note_on_c, 9, 46, 0
11, 90106, Note_on_c, 9, 38, 60
11, 90170, Note_on_c, 9, 38, 0
11, 90202, Note_on_c, 9, 44, 70
11, 90202, Note_on_c, 9, 51, 98
11, 90210, Note_on_c, 9, 46, 75
11, 90214, Note_on_c, 9, 37, 59
11, 90266, Note_on_c, 9, 44, 0
11, 90270, Note_on_c, 9, 51, 0
11, 90274, Note_on_c, 9, 46, 0
11, 90466, Note_on_c, 9, 57, 37
11, 90482, Note_on_c, 9, 35, 83
11, 90490, Note_on_c, 9, 38, 30
11, 90494, Note_on_c, 9, 51, 68
11, 90516, Note_on_c, 9, 37, 0
11, 90554, Note_on_c, 9, 38, 0
11, 90558, Note_on_c, 9, 51, 0
11, 90586, Note_on_c, 9, 51, 88
11, 90654, Note_on_c, 9, 51, 0
11, 90970, Note_on_c, 9, 51, 98
11, 90970, Note_on_c, 9, 44, 70
11, 91034, Note_on_c, 9, 44, 0
11, 91038, Note_on_c, 9, 51, 0
11, 91254, Note_on_c, 9, 51, 68
11, 91318, Note_on_c, 9, 51, 0
11, 91354, Note_on_c, 9, 51, 88
11, 91422, Note_on_c, 9, 51, 0
11, 91474, Note_on_c, 9, 57, 0
11, 91634, Note_on_c, 9, 35, 0
11, 91652, Note_on_c, 9, 37, 25
11, 91692, Note_on_c, 9, 37, 0
11, 91738, Note_on_c, 9, 37, 60
11, 91738, Note_on_c, 9, 44, 70
11, 91742, Note_on_c, 9, 51, 98
11, 91802, Note_on_c, 9, 44, 0
11, 91802, Note_on_c, 9, 37, 0
11, 91806, Note_on_c, 9, 51, 0
11, 91956, Note_on_c, 9, 35, 78
11, 92022, Note_on_c, 9, 51, 68
11, 92026, Note_on_c, 9, 35, 0
11, 92086, Note_on_c, 9, 51, 0
11, 92122, Note_on_c, 9, 51, 88
11, 92190, Note_on_c, 9, 51, 0
11, 92506, Note_on_c, 9, 51, 98
11, 92506, Note_on_c, 9, 44, 70
11, 92570, Note_on_c, 9, 44, 0
11, 92574, Note_on_c, 9, 51, 0
11, 92790, Note_on_c, 9, 51, 68
11, 92862, Note_on_c, 9, 51, 0
11, 92890, Note_on_c, 9, 51, 88
11, 92958, Note_on_c, 9, 51, 0
11, 93274, Note_on_c, 9, 44, 70
11, 93278, Note_on_c, 9, 37, 70
11, 93278, Note_on_c, 9, 51, 98
11, 93338, Note_on_c, 9, 44, 0
11, 93342, Note_on_c, 9, 51, 0
11, 93342, Note_on_c, 9, 37, 0
11, 93562, Note_on_c, 9, 51, 68
11, 93622, Note_on_c, 9, 51, 0
11, 93658, Note_on_c, 9, 51, 88
11, 93726, Note_on_c, 9, 51, 0
11, 94042, Note_on_c, 9, 44, 70
11, 94046, Note_on_c, 9, 51, 108
11, 94106, Note_on_c, 9, 44, 0
11, 94110, Note_on_c, 9, 51, 0
11, 94326, Note_on_c, 9, 35, 41
11, 94364, Note_on_c, 9, 35, 0
11, 94426, Note_on_c, 9, 51, 88
11, 94494, Note_on_c, 9, 51, 0
11, 94810, Note_on_c, 9, 44, 70
11, 94814, Note_on_c, 9, 51, 108
11, 94814, Note_on_c, 9, 37, 70
11, 94874, Note_on_c, 9, 44, 0
11, 94878, Note_on_c, 9, 37, 0
11, 94878, Note_on_c, 9, 51, 0
11, 95092, Note_on_c, 9, 35, 38
11, 95130, Note_on_c, 9, 35, 0
11, 95194, Note_on_c, 9, 51, 88
11, 95262, Note_on_c, 9, 51, 0
11, 95574, Note_on_c, 9, 44, 70
11, 95578, Note_on_c, 9, 51, 98
11, 95642, Note_on_c, 9, 44, 0
11, 95646, Note_on_c, 9, 51, 0
11, 95870, Note_on_c, 9, 51, 68
11, 95934, Note_on_c, 9, 51, 0
11, 95962, Note_on_c, 9, 51, 88
11, 96030, Note_on_c, 9, 51, 0
11, 96346, Note_on_c, 9, 44, 70
11, 96350, Note_on_c, 9, 51, 98
11, 96350, Note_on_c, 9, 37, 70
11, 96410, Note_on_c, 9, 37, 0
11, 96410, Note_on_c, 9, 44, 0
11, 96414, Note_on_c, 9, 51, 0
11, 96630, Note_on_c, 9, 51, 68
11, 96702, Note_on_c, 9, 51, 0
11, 96730, Note_on_c, 9, 51, 88
11, 96798, Note_on_c, 9, 51, 0
11, 97114, Note_on_c, 9, 51, 98
11, 97114, Note_on_c, 9, 44, 70
11, 97174, Note_on_c, 9, 44, 0
11, 97186, Note_on_c, 9, 51, 0
11, 97388, Note_on_c, 9, 35, 35
11, 97398, Note_on_c, 9, 51, 68
11, 97424, Note_on_c, 9, 35, 0
11, 97470, Note_on_c, 9, 51, 0
11, 97498, Note_on_c, 9, 51, 88
11, 97566, Note_on_c, 9, 51, 0
11, 97882, Note_on_c, 9, 44, 70
11, 97882, Note_on_c, 9, 37, 70
11, 97882, Note_on_c, 9, 51, 98
11, 97946, Note_on_c, 9, 44, 0
11, 97950, Note_on_c, 9, 51, 0
11, 97950, Note_on_c, 9, 37, 0
11, 98170, Note_on_c, 9, 51, 68
11, 98230, Note_on_c, 9, 51, 0
11, 98244, Note_on_c, 9, 40, 26
11, 98266, Note_on_c, 9, 51, 88
11, 98280, Note_on_c, 9, 40, 0
11, 98334, Note_on_c, 9, 51, 0
11, 98650, Note_on_c, 9, 51, 98
11, 98650, Note_on_c, 9, 44, 70
11, 98666, Note_on_c, 9, 40, 38
11, 98694, Note_on_c, 9, 40, 0
11, 98714, Note_on_c, 9, 44, 0
11, 98718, Note_on_c, 9, 51, 0
11, 98758, Note_on_c, 9, 40, 34
11, 98800, Note_on_c, 9, 40, 0
11, 99034, Note_on_c, 9, 51, 88
11, 99102, Note_on_c, 9, 51, 0
11, 99296, Note_on_c, 9, 35, 62
11, 99324, Note_on_c, 9, 35, 0
11, 99418, Note_on_c, 9, 37, 70
11, 99418, Note_on_c, 9, 44, 70
11, 99420, Note_on_c, 9, 35, 56
11, 99422, Note_on_c, 9, 51, 98
11, 99482, Note_on_c, 9, 44, 0
11, 99486, Note_on_c, 9, 37, 0
11, 99486, Note_on_c, 9, 51, 0
11, 99620, Note_on_c, 9, 35, 0
11, 99680, Note_on_c, 9, 35, 60
11, 99748, Note_on_c, 9, 35, 0
11, 99802, Note_on_c, 9, 51, 88
11, 99870, Note_on_c, 9, 51, 0
11, 100182, Note_on_c, 9, 44, 70
11, 100182, Note_on_c, 9, 51, 108
11, 100250, Note_on_c, 9, 44, 0
11, 100254, Note_on_c, 9, 51, 0
11, 100570, Note_on_c, 9, 51, 88
11, 100638, Note_on_c, 9, 51, 0
11, 100954, Note_on_c, 9, 44, 70
11, 100958, Note_on_c, 9, 37, 70
11, 100958, Note_on_c, 9, 51, 108
11, 101018, Note_on_c, 9, 37, 0
11, 101018, Note_on_c, 9, 44, 0
11, 101022, Note_on_c, 9, 51, 0
11, 101336, Note_on_c, 9, 40, 19
11, 101338, Note_on_c, 9, 51, 88
11, 101372, Note_on_c, 9, 40, 0
11, 101406, Note_on_c, 9, 51, 0
11, 101428, Note_on_c, 9, 40, 38
11, 101500, Note_on_c, 9, 40, 0
11, 101576, Note_on_c, 9, 40, 36
11, 101604, Note_on_c, 9, 40, 0
11, 101722, Note_on_c, 9, 44, 70
11, 101722, Note_on_c, 9, 51, 98
11, 101782, Note_on_c, 9, 44, 0
11, 101790, Note_on_c, 9, 51, 0
11, 101896, Note_on_c, 9, 40, 38
11, 101928, Note_on_c, 9, 40, 0
11, 101998, Note_on_c, 9, 40, 44
11, 102006, Note_on_c, 9, 51, 68
11, 102068, Note_on_c, 9, 40, 0
11, 102078, Note_on_c, 9, 51, 0
11, 102106, Note_on_c, 9, 51, 88
11, 102128, Note_on_c, 9, 40, 38
11, 102162, Note_on_c, 9, 40, 0
11, 102174, Note_on_c, 9, 51, 0
11, 102390, Note_on_c, 9, 38, 60
11, 102462, Note_on_c, 9, 38, 0
11, 102490, Note_on_c, 9, 44, 70
11, 102490, Note_on_c, 9, 51, 98
11, 102500, Note_on_c, 9, 40, 42
11, 102534, Note_on_c, 9, 40, 0
11, 102554, Note_on_c, 9, 44, 0
11, 102558, Note_on_c, 9, 51, 0
11, 102596, Note_on_c, 9, 40, 43
11, 102646, Note_on_c, 9, 40, 0
11, 102726, Note_on_c, 9, 37, 60
11, 102770, Note_on_c, 9, 38, 30
11, 102770, Note_on_c, 9, 51, 68
11, 102842, Note_on_c, 9, 38, 0
11, 102846, Note_on_c, 9, 51, 0
11, 102862, Note_on_c, 9, 37, 0
11, 102864, Note_on_c, 9, 35, 81
11, 102874, Note_on_c, 9, 51, 88
11, 102942, Note_on_c, 9, 51, 0
11, 103136, Note_on_c, 9, 35, 0
11, 103258, Note_on_c, 9, 51, 108
11, 103258, Note_on_c, 9, 44, 70
11, 103322, Note_on_c, 9, 44, 0
11, 103326, Note_on_c, 9, 51, 0
11, 103642, Note_on_c, 9, 51, 88
11, 103710, Note_on_c, 9, 51, 0
11, 103924, Note_on_c, 9, 35, 33
11, 103958, Note_on_c, 9, 35, 0
11, 104026, Note_on_c, 9, 44, 70
11, 104026, Note_on_c, 9, 37, 70
11, 104030, Note_on_c, 9, 51, 108
11, 104090, Note_on_c, 9, 44, 0
11, 104094, Note_on_c, 9, 51, 0
11, 104094, Note_on_c, 9, 37, 0
11, 104410, Note_on_c, 9, 51, 88
11, 104478, Note_on_c, 9, 51, 0
11, 104794, Note_on_c, 9, 51, 98
11, 104794, Note_on_c, 9, 44, 70
11, 104858, Note_on_c, 9, 44, 0
11, 104862, Note_on_c, 9, 51, 0
11, 105174, Note_on_c, 9, 51, 88
11, 105246, Note_on_c, 9, 51, 0
11, 105562, Note_on_c, 9, 44, 70
11, 105562, Note_on_c, 9, 37, 70
11, 105566, Note_on_c, 9, 51, 98
11, 105626, Note_on_c, 9, 37, 0
11, 105626, Note_on_c, 9, 44, 0
11, 105630, Note_on_c, 9, 51, 0
11, 105844, Note_on_c, 9, 35, 53
11, 105884, Note_on_c, 9, 35, 0
11, 105944, Note_on_c, 9, 35, 34
11, 105946, Note_on_c, 9, 51, 88
11, 106014, Note_on_c, 9, 51, 0
11, 106108, Note_on_c, 9, 35, 0
11, 106330, Note_on_c, 9, 44, 70
11, 106334, Note_on_c, 9, 51, 98
11, 106394, Note_on_c, 9, 44, 0
11, 106398, Note_on_c, 9, 51, 0
11, 106610, Note_on_c, 9, 35, 58
11, 106614, Note_on_c, 9, 51, 68
11, 106636, Note_on_c, 9, 35, 0
11, 106686, Note_on_c, 9, 51, 0
11, 106714, Note_on_c, 9, 51, 88
11, 106782, Note_on_c, 9, 51, 0
11, 107098, Note_on_c, 9, 44, 70
11, 107102, Note_on_c, 9, 37, 70
11, 107102, Note_on_c, 9, 51, 98
11, 107162, Note_on_c, 9, 37, 0
11, 107162, Note_on_c, 9, 44, 0
11, 107166, Note_on_c, 9, 51, 0
11, 107382, Note_on_c, 9, 51, 68
11, 107454, Note_on_c, 9, 51, 0
11, 107482, Note_on_c, 9, 51, 88
11, 107550, Note_on_c, 9, 51, 0
11, 107866, Note_on_c, 9, 44, 70
11, 107866, Note_on_c, 9, 51, 108
11, 107930, Note_on_c, 9, 44, 0
11, 107934, Note_on_c, 9, 51, 0
11, 108250, Note_on_c, 9, 51, 88
11, 108318, Note_on_c, 9, 51, 0
11, 108634, Note_on_c, 9, 37, 70
11, 108634, Note_on_c, 9, 44, 70
11, 108638, Note_on_c, 9, 51, 108
11, 108698, Note_on_c, 9, 44, 0
11, 108698, Note_on_c, 9, 37, 0
11, 108702, Note_on_c, 9, 51, 0
11, 109018, Note_on_c, 9, 51, 88
11, 109086, Note_on_c, 9, 51, 0
11, 109402, Note_on_c, 9, 44, 70
11, 109402, Note_on_c, 9, 51, 98
11, 109466, Note_on_c, 9, 44, 0
11, 109470, Note_on_c, 9, 51, 0
11, 109694, Note_on_c, 9, 51, 68
11, 109758, Note_on_c, 9, 51, 0
11, 109786, Note_on_c, 9, 51, 88
11, 109854, Note_on_c, 9, 51, 0
11, 110052, Note_on_c, 9, 40, 10
11, 110100, Note_on_c, 9, 40, 0
11, 110170, Note_on_c, 9, 44, 70
11, 110170, Note_on_c, 9, 37, 70
11, 110174, Note_on_c, 9, 51, 98
11, 110194, Note_on_c, 9, 40, 26
11, 110226, Note_on_c, 9, 40, 0
11, 110234, Note_on_c, 9, 44, 0
11, 110234, Note_on_c, 9, 37, 0
11, 110238, Note_on_c, 9, 51, 0
11, 110414, Note_on_c, 9, 40, 34
11, 110444, Note_on_c, 9, 40, 0
11, 110462, Note_on_c, 9, 51, 68
11, 110526, Note_on_c, 9, 51, 0
11, 110554, Note_on_c, 9, 51, 88
11, 110622, Note_on_c, 9, 51, 0
11, 110680, Note_on_c, 9, 40, 28
11, 110710, Note_on_c, 9, 40, 0
11, 110938, Note_on_c, 9, 44, 70
11, 110938, Note_on_c, 9, 51, 98
11, 110948, Note_on_c, 9, 40, 26
11, 110980, Note_on_c, 9, 40, 0
11, 111002, Note_on_c, 9, 44, 0
11, 111006, Note_on_c, 9, 51, 0
11, 111224, Note_on_c, 9, 35, 44
11, 111258, Note_on_c, 9, 35, 0
11, 111322, Note_on_c, 9, 51, 88
11, 111340, Note_on_c, 9, 35, 47
11, 111390, Note_on_c, 9, 51, 0
11, 111516, Note_on_c, 9, 35, 0
11, 111582, Note_on_c, 9, 35, 54
11, 111648, Note_on_c, 9, 35, 0
11, 111706, Note_on_c, 9, 37, 70
11, 111706, Note_on_c, 9, 44, 70
11, 111710, Note_on_c, 9, 51, 98
11, 111770, Note_on_c, 9, 44, 0
11, 111770, Note_on_c, 9, 37, 0
11, 111774, Note_on_c, 9, 51, 0
11, 112090, Note_on_c, 9, 51, 88
11, 112158, Note_on_c, 9, 51, 0
11, 112474, Note_on_c, 9, 44, 70
11, 112478, Note_on_c, 9, 51, 108
11, 112538, Note_on_c, 9, 44, 0
11, 112542, Note_on_c, 9, 51, 0
11, 112858, Note_on_c, 9, 51, 88
11, 112926, Note_on_c, 9, 51, 0
11, 113242, Note_on_c, 9, 44, 70
11, 113242, Note_on_c, 9, 37, 70
11, 113246, Note_on_c, 9, 51, 108
11, 113306, Note_on_c, 9, 37, 0
11, 113306, Note_on_c, 9, 44, 0
11, 113310, Note_on_c, 9, 51, 0
11, 113626, Note_on_c, 9, 51, 88
11, 113694, Note_on_c, 9, 51, 0
11, 114010, Note_on_c, 9, 44, 70
11, 114010, Note_on_c, 9, 51, 98
11, 114074, Note_on_c, 9, 44, 0
11, 114078, Note_on_c, 9, 51, 0
11, 114302, Note_on_c, 9, 51, 68
11, 114362, Note_on_c, 9, 51, 0
11, 114394, Note_on_c, 9, 51, 88
11, 114462, Note_on_c, 9, 51, 0
11, 114680, Note_on_c, 9, 31, 48
11, 114686, Note_on_c, 9, 38, 20
11, 114718, Note_on_c, 9, 32, 39
11, 114750, Note_on_c, 9, 38, 0
11, 114756, Note_on_c, 9, 31, 0
11, 114774, Note_on_c, 9, 38, 40
11, 114776, Note_on_c, 9, 37, 85
11, 114778, Note_on_c, 9, 37, 70
11, 114778, Note_on_c, 9, 51, 98
11, 114778, Note_on_c, 9, 44, 70
11, 114806, Note_on_c, 9, 32, 0
11, 114842, Note_on_c, 9, 38, 0
11, 114842, Note_on_c, 9, 44, 0
11, 114846, Note_on_c, 9, 37, 0
11, 114846, Note_on_c, 9, 51, 0
11, 115064, Note_on_c, 9, 57, 51
11, 115066, Note_on_c, 9, 35, 95
11, 115070, Note_on_c, 9, 51, 68
11, 115106, Note_on_c, 9, 37, 0
11, 115134, Note_on_c, 9, 51, 0
11, 115162, Note_on_c, 9, 49, 30
11, 115162, Note_on_c, 9, 51, 88
11, 115226, Note_on_c, 9, 51, 0
11, 115230, Note_on_c, 9, 49, 0
11, 115546, Note_on_c, 9, 51, 108
11, 115546, Note_on_c, 9, 44, 70
11, 115610, Note_on_c, 9, 44, 0
11, 115614, Note_on_c, 9, 51, 0
11, 115930, Note_on_c, 9, 51, 88
11, 115998, Note_on_c, 9, 51, 0
11, 116314, Note_on_c, 9, 44, 70
11, 116314, Note_on_c, 9, 37, 70
11, 116318, Note_on_c, 9, 51, 108
11, 116346, Note_on_c, 9, 57, 0
11, 116374, Note_on_c, 9, 37, 0
11, 116374, Note_on_c, 9, 44, 0
11, 116386, Note_on_c, 9, 51, 0
11, 116698, Note_on_c, 9, 51, 88
11, 116766, Note_on_c, 9, 51, 0
11, 116998, Note_on_c, 9, 35, 0
11, 117064, Note_on_c, 9, 40, 19
11, 117082, Note_on_c, 9, 44, 70
11, 117086, Note_on_c, 9, 51, 98
11, 117146, Note_on_c, 9, 44, 0
11, 117150, Note_on_c, 9, 51, 0
11, 117256, Note_on_c, 9, 40, 0
11, 117338, Note_on_c, 9, 40, 34
11, 117390, Note_on_c, 9, 40, 0
11, 117466, Note_on_c, 9, 51, 88
11, 117534, Note_on_c, 9, 51, 0
11, 117614, Note_on_c, 9, 40, 29
11, 117684, Note_on_c, 9, 40, 0
11, 117850, Note_on_c, 9, 44, 70
11, 117854, Note_on_c, 9, 51, 98
11, 117854, Note_on_c, 9, 37, 70
11, 117894, Note_on_c, 9, 40, 34
11, 117914, Note_on_c, 9, 44, 0
11, 117918, Note_on_c, 9, 51, 0
11, 117918, Note_on_c, 9, 37, 0
11, 117934, Note_on_c, 9, 40, 0
11, 118122, Note_on_c, 9, 37, 50
11, 118224, Note_on_c, 9, 37, 0
11, 118234, Note_on_c, 9, 51, 88
11, 118254, Note_on_c, 9, 35, 34
11, 118302, Note_on_c, 9, 51, 0
11, 118388, Note_on_c, 9, 35, 0
11, 118618, Note_on_c, 9, 44, 70
11, 118618, Note_on_c, 9, 51, 98
11, 118682, Note_on_c, 9, 44, 0
11, 118686, Note_on_c, 9, 51, 0
11, 118902, Note_on_c, 9, 51, 68
11, 118970, Note_on_c, 9, 51, 0
11, 119002, Note_on_c, 9, 51, 88
11, 119070, Note_on_c, 9, 51, 0
11, 119150, Note_on_c, 9, 40, 26
11, 119188, Note_on_c, 9, 40, 0
11, 119258, Note_on_c, 9, 40, 27
11, 119298, Note_on_c, 9, 40, 0
11, 119382, Note_on_c, 9, 44, 70
11, 119386, Note_on_c, 9, 37, 60
11, 119386, Note_on_c, 9, 51, 98
11, 119398, Note_on_c, 9, 35, 37
11, 119450, Note_on_c, 9, 44, 0
11, 119454, Note_on_c, 9, 37, 0
11, 119454, Note_on_c, 9, 51, 0
11, 119548, Note_on_c, 9, 35, 0
11, 119670, Note_on_c, 9, 51, 68
11, 119742, Note_on_c, 9, 51, 0
11, 119770, Note_on_c, 9, 51, 88
11, 119802, Note_on_c, 9, 40, 15
11, 119838, Note_on_c, 9, 51, 0
11, 119840, Note_on_c, 9, 40, 0
11, 119906, Note_on_c, 9, 40, 29
11, 119954, Note_on_c, 9, 40, 0
11, 120030, Note_on_c, 9, 35, 64
11, 120154, Note_on_c, 9, 44, 70
11, 120158, Note_on_c, 9, 51, 98
11, 120218, Note_on_c, 9, 44, 0
11, 120222, Note_on_c, 9, 51, 0
11, 120240, Note_on_c, 9, 35, 0
11, 120326, Note_on_c, 9, 40, 27
11, 120368, Note_on_c, 9, 40, 0
11, 120440, Note_on_c, 9, 40, 29
11, 120446, Note_on_c, 9, 51, 68
11, 120500, Note_on_c, 9, 40, 0
11, 120510, Note_on_c, 9, 51, 0
11, 120538, Note_on_c, 9, 51, 88
11, 120556, Note_on_c, 9, 35, 63
11, 120606, Note_on_c, 9, 51, 0
11, 120828, Note_on_c, 9, 35, 0
11, 120922, Note_on_c, 9, 37, 70
11, 120922, Note_on_c, 9, 44, 70
11, 120926, Note_on_c, 9, 51, 98
11, 120930, Note_on_c, 9, 40, 17
11, 120966, Note_on_c, 9, 40, 0
11, 120982, Note_on_c, 9, 44, 0
11, 120986, Note_on_c, 9, 37, 0
11, 120990, Note_on_c, 9, 51, 0
11, 120998, Note_on_c, 9, 40, 22
11, 121062, Note_on_c, 9, 40, 0
11, 121148, Note_on_c, 9, 35, 79
11, 121160, Note_on_c, 9, 46, 55
11, 121206, Note_on_c, 9, 51, 68
11, 121278, Note_on_c, 9, 51, 0
11, 121306, Note_on_c, 9, 51, 88
11, 121322, Note_on_c, 9, 46, 0
11, 121374, Note_on_c, 9, 51, 0
11, 121374, Note_on_c, 9, 35, 0
11, 121468, Note_on_c, 9, 40, 35
11, 121540, Note_on_c, 9, 40, 0
11, 121592, Note_on_c, 9, 40, 41
11, 121672, Note_on_c, 9, 40, 0
11, 121690, Note_on_c, 9, 51, 98
11, 121690, Note_on_c, 9, 44, 70
11, 121726, Note_on_c, 9, 35, 73
11, 121732, Note_on_c, 9, 46, 68
11, 121754, Note_on_c, 9, 44, 0
11, 121758, Note_on_c, 9, 51, 0
11, 121886, Note_on_c, 9, 46, 0
11, 121940, Note_on_c, 9, 35, 0
11, 121970, Note_on_c, 9, 51, 68
11, 122038, Note_on_c, 9, 51, 0
11, 122074, Note_on_c, 9, 51, 88
11, 122084, Note_on_c, 9, 40, 38
11, 122142, Note_on_c, 9, 51, 0
11, 122166, Note_on_c, 9, 40, 0
11, 122214, Note_on_c, 9, 40, 39
11, 122296, Note_on_c, 9, 40, 0
11, 122340, Note_on_c, 9, 46, 69
11, 122340, Note_on_c, 9, 35, 76
11, 122458, Note_on_c, 9, 37, 60
11, 122458, Note_on_c, 9, 44, 70
11, 122462, Note_on_c, 9, 51, 98
11, 122504, Note_on_c, 9, 46, 0
11, 122522, Note_on_c, 9, 44, 0
11, 122526, Note_on_c, 9, 51, 0
11, 122526, Note_on_c, 9, 37, 0
11, 122546, Note_on_c, 9, 35, 0
11, 122750, Note_on_c, 9, 51, 68
11, 122802, Note_on_c, 9, 51, 0
11, 122842, Note_on_c, 9, 51, 88
11, 122910, Note_on_c, 9, 51, 0
11, 123226, Note_on_c, 9, 51, 98
11, 123226, Note_on_c, 9, 44, 70
11, 123290, Note_on_c, 9, 44, 0
11, 123294, Note_on_c, 9, 51, 0
11, 123504, Note_on_c, 9, 35, 26
11, 123542, Note_on_c, 9, 35, 0
11, 123610, Note_on_c, 9, 51, 88
11, 123618, Note_on_c, 9, 35, 42
11, 123678, Note_on_c, 9, 51, 0
11, 123804, Note_on_c, 9, 35, 0
11, 123888, Note_on_c, 9, 35, 36
11, 123934, Note_on_c, 9, 35, 0
11, 123994, Note_on_c, 9, 44, 70
11, 123994, Note_on_c, 9, 37, 70
11, 123998, Note_on_c, 9, 51, 98
11, 124058, Note_on_c, 9, 44, 0
11, 124062, Note_on_c, 9, 51, 0
11, 124062, Note_on_c, 9, 37, 0
11, 124378, Note_on_c, 9, 51, 88
11, 124446, Note_on_c, 9, 51, 0
11, 124762, Note_on_c, 9, 44, 70
11, 124762, Note_on_c, 9, 51, 98
11, 124826, Note_on_c, 9, 44, 0
11, 124830, Note_on_c, 9, 51, 0
11, 125036, Note_on_c, 9, 35, 60
11, 125050, Note_on_c, 9, 51, 68
11, 125088, Note_on_c, 9, 35, 0
11, 125118, Note_on_c, 9, 51, 0
11, 125146, Note_on_c, 9, 51, 88
11, 125214, Note_on_c, 9, 51, 0
11, 125530, Note_on_c, 9, 37, 70
11, 125530, Note_on_c, 9, 44, 70
11, 125534, Note_on_c, 9, 51, 98
11, 125594, Note_on_c, 9, 44, 0
11, 125594, Note_on_c, 9, 37, 0
11, 125598, Note_on_c, 9, 51, 0
11, 125796, Note_on_c, 9, 35, 41
11, 125814, Note_on_c, 9, 51, 68
11, 125832, Note_on_c, 9, 35, 0
11, 125886, Note_on_c, 9, 51, 0
11, 125914, Note_on_c, 9, 51, 88
11, 125982, Note_on_c, 9, 51, 0
11, 126298, Note_on_c, 9, 44, 70
11, 126298, Note_on_c, 9, 51, 98
11, 126362, Note_on_c, 9, 44, 0
11, 126366, Note_on_c, 9, 51, 0
11, 126578, Note_on_c, 9, 51, 68
11, 126594, Note_on_c, 9, 35, 37
11, 126634, Note_on_c, 9, 35, 0
11, 126654, Note_on_c, 9, 51, 0
11, 126682, Note_on_c, 9, 51, 88
11, 126714, Note_on_c, 9, 35, 35
11, 126750, Note_on_c, 9, 51, 0
11, 126898, Note_on_c, 9, 35, 0
11, 126970, Note_on_c, 9, 38, 20
11, 126974, Note_on_c, 9, 35, 44
11, 127014, Note_on_c, 9, 35, 0
11, 127030, Note_on_c, 9, 38, 0
11, 127066, Note_on_c, 9, 38, 40
11, 127066, Note_on_c, 9, 44, 70
11, 127066, Note_on_c, 9, 37, 70
11, 127070, Note_on_c, 9, 51, 98
11, 127130, Note_on_c, 9, 44, 0
11, 127130, Note_on_c, 9, 38, 0
11, 127134, Note_on_c, 9, 37, 0
11, 127134, Note_on_c, 9, 51, 0
11, 127358, Note_on_c, 9, 51, 68
11, 127414, Note_on_c, 9, 51, 0
11, 127450, Note_on_c, 9, 51, 88
11, 127472, Note_on_c, 9, 35, 55
11, 127504, Note_on_c, 9, 35, 0
11, 127518, Note_on_c, 9, 51, 0
11, 127834, Note_on_c, 9, 51, 108
11, 127834, Note_on_c, 9, 44, 70
11, 127898, Note_on_c, 9, 44, 0
11, 127902, Note_on_c, 9, 51, 0
11, 128218, Note_on_c, 9, 51, 88
11, 128286, Note_on_c, 9, 51, 0
11, 128506, Note_on_c, 9, 35, 68
11, 128534, Note_on_c, 9, 35, 0
11, 128602, Note_on_c, 9, 44, 70
11, 128602, Note_on_c, 9, 37, 70
11, 128606, Note_on_c, 9, 51, 108
11, 128666, Note_on_c, 9, 44, 0
11, 128670, Note_on_c, 9, 51, 0
11, 128670, Note_on_c, 9, 37, 0
11, 128982, Note_on_c, 9, 51, 88
11, 129008, Note_on_c, 9, 35, 62
11, 129042, Note_on_c, 9, 35, 0
11, 129054, Note_on_c, 9, 51, 0
11, 129370, Note_on_c, 9, 51, 108
11, 129370, Note_on_c, 9, 44, 70
11, 129434, Note_on_c, 9, 44, 0
11, 129438, Note_on_c, 9, 51, 0
11, 129754, Note_on_c, 9, 51, 88
11, 129822, Note_on_c, 9, 51, 0
11, 130138, Note_on_c, 9, 44, 70
11, 130142, Note_on_c, 9, 37, 70
11, 130142, Note_on_c, 9, 51, 108
11, 130202, Note_on_c, 9, 37, 0
11, 130202, Note_on_c, 9, 44, 0
11, 130206, Note_on_c, 9, 51, 0
11, 130522, Note_on_c, 9, 51, 88
11, 130590, Note_on_c, 9, 51, 0
11, 130906, Note_on_c, 9, 44, 70
11, 130906, Note_on_c, 9, 51, 98
11, 130970, Note_on_c, 9, 44, 0
11, 130974, Note_on_c, 9, 51, 0
11, 131190, Note_on_c, 9, 51, 68
11, 131262, Note_on_c, 9, 51, 0
11, 131290, Note_on_c, 9, 51, 88
11, 131328, Note_on_c, 9, 40, 21
11, 131358, Note_on_c, 9, 51, 0
11, 131360, Note_on_c, 9, 40, 0
11, 131568, Note_on_c, 9, 40, 40
11, 131600, Note_on_c, 9, 40, 0
11, 131674, Note_on_c, 9, 51, 98
11, 131674, Note_on_c, 9, 44, 70
11, 131674, Note_on_c, 9, 37, 70
11, 131698, Note_on_c, 9, 40, 32
11, 131736, Note_on_c, 9, 40, 0
11, 131738, Note_on_c, 9, 44, 0
11, 131742, Note_on_c, 9, 37, 0
11, 131742, Note_on_c, 9, 51, 0
11, 131930, Note_on_c, 9, 35, 55
11, 131962, Note_on_c, 9, 35, 0
11, 131962, Note_on_c, 9, 51, 68
11, 132022, Note_on_c, 9, 51, 0
11, 132062, Note_on_c, 9, 51, 88
11, 132072, Note_on_c, 9, 35, 60
11, 132126, Note_on_c, 9, 51, 0
11, 132252, Note_on_c, 9, 35, 0
11, 132326, Note_on_c, 9, 35, 41
11, 132368, Note_on_c, 9, 35, 0
11, 132442, Note_on_c, 9, 44, 70
11, 132442, Note_on_c, 9, 51, 98
11, 132506, Note_on_c, 9, 44, 0
11, 132510, Note_on_c, 9, 51, 0
11, 132826, Note_on_c, 9, 51, 88
11, 132894, Note_on_c, 9, 51, 0
11, 133210, Note_on_c, 9, 44, 70
11, 133210, Note_on_c, 9, 37, 70
11, 133214, Note_on_c, 9, 51, 98
11, 133274, Note_on_c, 9, 44, 0
11, 133278, Note_on_c, 9, 51, 0
11, 133278, Note_on_c, 9, 37, 0
11, 133594, Note_on_c, 9, 51, 88
11, 133662, Note_on_c, 9, 51, 0
11, 133974, Note_on_c, 9, 44, 70
11, 133978, Note_on_c, 9, 51, 98
11, 134042, Note_on_c, 9, 44, 0
11, 134046, Note_on_c, 9, 51, 0
11, 134262, Note_on_c, 9, 51, 68
11, 134334, Note_on_c, 9, 51, 0
11, 134362, Note_on_c, 9, 51, 88
11, 134430, Note_on_c, 9, 51, 0
11, 134746, Note_on_c, 9, 44, 70
11, 134746, Note_on_c, 9, 37, 60
11, 134750, Note_on_c, 9, 51, 98
11, 134810, Note_on_c, 9, 37, 0
11, 134810, Note_on_c, 9, 44, 0
11, 134814, Note_on_c, 9, 51, 0
11, 135030, Note_on_c, 9, 51, 68
11, 135094, Note_on_c, 9, 51, 0
11, 135130, Note_on_c, 9, 51, 88
11, 135198, Note_on_c, 9, 51, 0
11, 135514, Note_on_c, 9, 44, 70
11, 135514, Note_on_c, 9, 51, 98
11, 135574, Note_on_c, 9, 44, 0
11, 135582, Note_on_c, 9, 51, 0
11, 135898, Note_on_c, 9, 51, 88
11, 135966, Note_on_c, 9, 51, 0
11, 136282, Note_on_c, 9, 44, 70
11, 136282, Note_on_c, 9, 37, 70
11, 136284, Note_on_c, 9, 37, 57
11, 136286, Note_on_c, 9, 51, 98
11, 136310, Note_on_c, 9, 37, 0
11, 136346, Note_on_c, 9, 44, 0
11, 136350, Note_on_c, 9, 37, 0
11, 136350, Note_on_c, 9, 51, 0
11, 136558, Note_on_c, 9, 37, 79
11, 136602, Note_on_c, 9, 37, 0
11, 136666, Note_on_c, 9, 51, 88
11, 136734, Note_on_c, 9, 51, 0
11, 136796, Note_on_c, 9, 37, 74
11, 136862, Note_on_c, 9, 37, 0
11, 137050, Note_on_c, 9, 51, 108
11, 137050, Note_on_c, 9, 44, 70
11, 137084, Note_on_c, 9, 35, 46
11, 137114, Note_on_c, 9, 44, 0
11, 137118, Note_on_c, 9, 51, 0
11, 137132, Note_on_c, 9, 35, 0
11, 137332, Note_on_c, 9, 35, 69
11, 137432, Note_on_c, 9, 35, 0
11, 137434, Note_on_c, 9, 51, 88
11, 137502, Note_on_c, 9, 51, 0
11, 137518, Note_on_c, 9, 35, 48
11, 137642, Note_on_c, 9, 35, 0
11, 137818, Note_on_c, 9, 44, 70
11, 137818, Note_on_c, 9, 37, 70
11, 137822, Note_on_c, 9, 51, 108
11, 137882, Note_on_c, 9, 37, 0
11, 137882, Note_on_c, 9, 44, 0
11, 137886, Note_on_c, 9, 51, 0
11, 138140, Note_on_c, 9, 35, 24
11, 138170, Note_on_c, 9, 35, 0
11, 138202, Note_on_c, 9, 51, 88
11, 138216, Note_on_c, 9, 40, 34
11, 138250, Note_on_c, 9, 40, 0
11, 138270, Note_on_c, 9, 51, 0
11, 138408, Note_on_c, 9, 40, 45
11, 138434, Note_on_c, 9, 40, 0
11, 138586, Note_on_c, 9, 51, 98
11, 138586, Note_on_c, 9, 44, 70
11, 138606, Note_on_c, 9, 40, 48
11, 138650, Note_on_c, 9, 44, 0
11, 138654, Note_on_c, 9, 51, 0
11, 138664, Note_on_c, 9, 40, 0
11, 138694, Note_on_c, 9, 40, 32
11, 138758, Note_on_c, 9, 40, 0
11, 138878, Note_on_c, 9, 51, 68
11, 138942, Note_on_c, 9, 51, 0
11, 138970, Note_on_c, 9, 51, 88
11, 139038, Note_on_c, 9, 51, 0
11, 139232, Note_on_c, 9, 40, 42
11, 139258, Note_on_c, 9, 40, 0
11, 139262, Note_on_c, 9, 38, 20
11, 139326, Note_on_c, 9, 38, 0
11, 139354, Note_on_c, 9, 44, 70
11, 139354, Note_on_c, 9, 38, 40
11, 139358, Note_on_c, 9, 37, 70
11, 139358, Note_on_c, 9, 51, 98
11, 139396, Note_on_c, 9, 40, 46
11, 139418, Note_on_c, 9, 37, 0
11, 139418, Note_on_c, 9, 44, 0
11, 139418, Note_on_c, 9, 38, 0
11, 139422, Note_on_c, 9, 51, 0
11, 139550, Note_on_c, 9, 40, 0
11, 139646, Note_on_c, 9, 51, 68
11, 139656, Note_on_c, 9, 37, 73
11, 139710, Note_on_c, 9, 51, 0
11, 139718, Note_on_c, 9, 37, 0
11, 139738, Note_on_c, 9, 51, 88
11, 139742, Note_on_c, 9, 49, 30
11, 139788, Note_on_c, 9, 35, 44
11, 139802, Note_on_c, 9, 51, 0
11, 139806, Note_on_c, 9, 49, 0
11, 139900, Note_on_c, 9, 35, 0
11, 140122, Note_on_c, 9, 44, 70
11, 140126, Note_on_c, 9, 51, 108
11, 140182, Note_on_c, 9, 44, 0
11, 140190, Note_on_c, 9, 51, 0
11, 140506, Note_on_c, 9, 51, 88
11, 140574, Note_on_c, 9, 51, 0
11, 140890, Note_on_c, 9, 44, 70
11, 140894, Note_on_c, 9, 37, 70
11, 140894, Note_on_c, 9, 51, 108
11, 140954, Note_on_c, 9, 44, 0
11, 140958, Note_on_c, 9, 51, 0
11, 140958, Note_on_c, 9, 37, 0
11, 141274, Note_on_c, 9, 51, 88
11, 141342, Note_on_c, 9, 51, 0
11, 141658, Note_on_c, 9, 44, 70
11, 141662, Note_on_c, 9, 51, 98
11, 141722, Note_on_c, 9, 44, 0
11, 141726, Note_on_c, 9, 51, 0
11, 142042, Note_on_c, 9, 51, 88
11, 142110, Note_on_c, 9, 51, 0
11, 142314, Note_on_c, 9, 37, 28
11, 142376, Note_on_c, 9, 37, 0
11, 142426, Note_on_c, 9, 37, 70
11, 142426, Note_on_c, 9, 44, 70
11, 142430, Note_on_c, 9, 51, 98
11, 142430, Note_on_c, 9, 46, 38
11, 142444, Note_on_c, 9, 35, 49
11, 142490, Note_on_c, 9, 44, 0
11, 142494, Note_on_c, 9, 37, 0
11, 142494, Note_on_c, 9, 51, 0
11, 142566, Note_on_c, 9, 46, 0
11, 142634, Note_on_c, 9, 35, 0
11, 142708, Note_on_c, 9, 46, 78
11, 142710, Note_on_c, 9, 35, 35
11, 142752, Note_on_c, 9, 35, 0
11, 142774, Note_on_c, 9, 46, 0
11, 142810, Note_on_c, 9, 51, 88
11, 142878, Note_on_c, 9, 51, 0
11, 143194, Note_on_c, 9, 51, 98
11, 143194, Note_on_c, 9, 44, 70
11, 143258, Note_on_c, 9, 44, 0
11, 143262, Note_on_c, 9, 51, 0
11, 143486, Note_on_c, 9, 51, 68
11, 143550, Note_on_c, 9, 51, 0
11, 143574, Note_on_c, 9, 51, 88
11, 143646, Note_on_c, 9, 51, 0
11, 143872, Note_on_c, 9, 35, 28
11, 143902, Note_on_c, 9, 35, 0
11, 143962, Note_on_c, 9, 37, 70
11, 143962, Note_on_c, 9, 44, 70
11, 143966, Note_on_c, 9, 51, 98
11, 144026, Note_on_c, 9, 44, 0
11, 144026, Note_on_c, 9, 37, 0
11, 144030, Note_on_c, 9, 51, 0
11, 144230, Note_on_c, 9, 35, 58
11, 144254, Note_on_c, 9, 51, 68
11, 144264, Note_on_c, 9, 35, 0
11, 144318, Note_on_c, 9, 51, 0
11, 144340, Note_on_c, 9, 35, 57
11, 144346, Note_on_c, 9, 51, 88
11, 144414, Note_on_c, 9, 51, 0
11, 144560, Note_on_c, 9, 35, 0
11, 144730, Note_on_c, 9, 51, 98
11, 144730, Note_on_c, 9, 44, 70
11, 144794, Note_on_c, 9, 44, 0
11, 144798, Note_on_c, 9, 51, 0
11, 145114, Note_on_c, 9, 51, 88
11, 145182, Note_on_c, 9, 51, 0
11, 145498, Note_on_c, 9, 37, 70
11, 145498, Note_on_c, 9, 44, 70
11, 145502, Note_on_c, 9, 51, 98
11, 145562, Note_on_c, 9, 44, 0
11, 145562, Note_on_c, 9, 37, 0
11, 145566, Note_on_c, 9, 51, 0
11, 145882, Note_on_c, 9, 51, 88
11, 145950, Note_on_c, 9, 51, 0
11, 146266, Note_on_c, 9, 51, 98
11, 146266, Note_on_c, 9, 44, 70
11, 146330, Note_on_c, 9, 44, 0
11, 146334, Note_on_c, 9, 51, 0
11, 146558, Note_on_c, 9, 51, 68
11, 146614, Note_on_c, 9, 51, 0
11, 146650, Note_on_c, 9, 51, 88
11, 146718, Note_on_c, 9, 51, 0
11, 146784, Note_on_c, 9, 44, 57
11, 146818, Note_on_c, 9, 44, 0
11, 147030, Note_on_c, 9, 44, 64
11, 147034, Note_on_c, 9, 37, 70
11, 147034, Note_on_c, 9, 44, 70
11, 147038, Note_on_c, 9, 51, 98
11, 147074, Note_on_c, 9, 44, 0
11, 147098, Note_on_c, 9, 37, 0
11, 147098, Note_on_c, 9, 44, 0
11, 147102, Note_on_c, 9, 51, 0
11, 147296, Note_on_c, 9, 44, 68
11, 147326, Note_on_c, 9, 51, 68
11, 147348, Note_on_c, 9, 44, 0
11, 147378, Note_on_c, 9, 51, 0
11, 147418, Note_on_c, 9, 51, 88
11, 147486, Note_on_c, 9, 51, 0
11, 147548, Note_on_c, 9, 44, 69
11, 147600, Note_on_c, 9, 44, 0
11, 147672, Note_on_c, 9, 37, 55
11, 147744, Note_on_c, 9, 37, 0
11, 147802, Note_on_c, 9, 44, 70
11, 147802, Note_on_c, 9, 51, 108
11, 147826, Note_on_c, 9, 35, 47
11, 147866, Note_on_c, 9, 44, 0
11, 147870, Note_on_c, 9, 51, 0
11, 147974, Note_on_c, 9, 35, 0
11, 148094, Note_on_c, 9, 35, 50
11, 148174, Note_on_c, 9, 35, 0
11, 148182, Note_on_c, 9, 51, 88
11, 148254, Note_on_c, 9, 51, 0
11, 148570, Note_on_c, 9, 37, 70
11, 148570, Note_on_c, 9, 44, 70
11, 148574, Note_on_c, 9, 51, 108
11, 148634, Note_on_c, 9, 44, 0
11, 148634, Note_on_c, 9, 37, 0
11, 148638, Note_on_c, 9, 51, 0
11, 148954, Note_on_c, 9, 51, 88
11, 149022, Note_on_c, 9, 51, 0
11, 149338, Note_on_c, 9, 44, 70
11, 149342, Note_on_c, 9, 51, 98
11, 149402, Note_on_c, 9, 44, 0
11, 149406, Note_on_c, 9, 51, 0
11, 149622, Note_on_c, 9, 51, 68
11, 149694, Note_on_c, 9, 51, 0
11, 149722, Note_on_c, 9, 51, 88
11, 149790, Note_on_c, 9, 51, 0
11, 150106, Note_on_c, 9, 44, 70
11, 150106, Note_on_c, 9, 37, 70
11, 150110, Note_on_c, 9, 51, 98
11, 150170, Note_on_c, 9, 37, 0
11, 150170, Note_on_c, 9, 44, 0
11, 150174, Note_on_c, 9, 51, 0
11, 150390, Note_on_c, 9, 51, 68
11, 150462, Note_on_c, 9, 51, 0
11, 150490, Note_on_c, 9, 51, 88
11, 150496, Note_on_c, 9, 44, 39
11, 150528, Note_on_c, 9, 44, 0
11, 150558, Note_on_c, 9, 51, 0
11, 150616, Note_on_c, 9, 44, 40
11, 150682, Note_on_c, 9, 44, 0
11, 150746, Note_on_c, 9, 46, 68
11, 150874, Note_on_c, 9, 44, 70
11, 150878, Note_on_c, 9, 51, 98
11, 150936, Note_on_c, 9, 46, 0
11, 150938, Note_on_c, 9, 44, 0
11, 150942, Note_on_c, 9, 51, 0
11, 151072, Note_on_c, 9, 44, 46
11, 151110, Note_on_c, 9, 44, 0
11, 151162, Note_on_c, 9, 51, 68
11, 151174, Note_on_c, 9, 44, 48
11, 151222, Note_on_c, 9, 51, 0
11, 151244, Note_on_c, 9, 44, 0
11, 151258, Note_on_c, 9, 51, 88
11, 151316, Note_on_c, 9, 46, 73
11, 151326, Note_on_c, 9, 51, 0
11, 151540, Note_on_c, 9, 46, 0
11, 151550, Note_on_c, 9, 38, 60
11, 151602, Note_on_c, 9, 38, 0
11, 151624, Note_on_c, 9, 44, 36
11, 151642, Note_on_c, 9, 44, 70
11, 151646, Note_on_c, 9, 51, 98
11, 151650, Note_on_c, 9, 44, 0
11, 151706, Note_on_c, 9, 44, 0
11, 151710, Note_on_c, 9, 51, 0
11, 151738, Note_on_c, 9, 44, 46
11, 151816, Note_on_c, 9, 44, 0
11, 151864, Note_on_c, 9, 46, 71
11, 151930, Note_on_c, 9, 38, 30
11, 151934, Note_on_c, 9, 51, 68
11, 151958, Note_on_c, 9, 46, 0
11, 151990, Note_on_c, 9, 51, 0
11, 151990, Note_on_c, 9, 38, 0
11, 152026, Note_on_c, 9, 51, 88
11, 152026, Note_on_c, 9, 49, 30
11, 152090, Note_on_c, 9, 51, 0
11, 152094, Note_on_c, 9, 49, 0
11, 152266, Note_on_c, 9, 35, 40
11, 152310, Note_on_c, 9, 35, 0
11, 152410, Note_on_c, 9, 51, 108
11, 152410, Note_on_c, 9, 44, 70
11, 152420, Note_on_c, 9, 35, 33
11, 152454, Note_on_c, 9, 35, 0
11, 152474, Note_on_c, 9, 44, 0
11, 152478, Note_on_c, 9, 51, 0
11, 152794, Note_on_c, 9, 51, 88
11, 152806, Note_on_c, 9, 35, 32
11, 152862, Note_on_c, 9, 51, 0
11, 152872, Note_on_c, 9, 35, 0
11, 153174, Note_on_c, 9, 44, 70
11, 153178, Note_on_c, 9, 51, 108
11, 153178, Note_on_c, 9, 37, 70
11, 153242, Note_on_c, 9, 44, 0
11, 153246, Note_on_c, 9, 37, 0
11, 153246, Note_on_c, 9, 51, 0
11, 153468, Note_on_c, 9, 35, 61
11, 153500, Note_on_c, 9, 35, 0
11, 153562, Note_on_c, 9, 51, 88
11, 153630, Note_on_c, 9, 51, 0
11, 153946, Note_on_c, 9, 44, 70
11, 153950, Note_on_c, 9, 51, 98
11, 154010, Note_on_c, 9, 44, 0
11, 154014, Note_on_c, 9, 51, 0
11, 154330, Note_on_c, 9, 51, 88
11, 154398, Note_on_c, 9, 51, 0
11, 154714, Note_on_c, 9, 44, 70
11, 154714, Note_on_c, 9, 37, 70
11, 154718, Note_on_c, 9, 51, 98
11, 154774, Note_on_c, 9, 37, 0
11, 154774, Note_on_c, 9, 44, 0
11, 154782, Note_on_c, 9, 51, 0
11, 154982, Note_on_c, 9, 45, 85
11, 155036, Note_on_c, 9, 45, 0
11, 155098, Note_on_c, 9, 51, 88
11, 155166, Note_on_c, 9, 51, 0
11, 155482, Note_on_c, 9, 44, 70
11, 155486, Note_on_c, 9, 51, 98
11, 155506, Note_on_c, 9, 35, 46
11, 155542, Note_on_c, 9, 35, 0
11, 155546, Note_on_c, 9, 44, 0
11, 155550, Note_on_c, 9, 51, 0
11, 155770, Note_on_c, 9, 51, 68
11, 155830, Note_on_c, 9, 51, 0
11, 155870, Note_on_c, 9, 51, 88
11, 155934, Note_on_c, 9, 51, 0
11, 156132, Note_on_c, 9, 35, 42
11, 156164, Note_on_c, 9, 35, 0
11, 156246, Note_on_c, 9, 43, 63
11, 156250, Note_on_c, 9, 44, 70
11, 156254, Note_on_c, 9, 51, 98
11, 156254, Note_on_c, 9, 37, 60
11, 156284, Note_on_c, 9, 43, 0
11, 156314, Note_on_c, 9, 44, 0
11, 156318, Note_on_c, 9, 51, 0
11, 156318, Note_on_c, 9, 37, 0
11, 156510, Note_on_c, 9, 43, 105
11, 156542, Note_on_c, 9, 51, 68
11, 156594, Note_on_c, 9, 51, 0
11, 156634, Note_on_c, 9, 51, 88
11, 156652, Note_on_c, 9, 43, 0
11, 156702, Note_on_c, 9, 51, 0
11, 157018, Note_on_c, 9, 44, 70
11, 157018, Note_on_c, 9, 51, 98
11, 157020, Note_on_c, 9, 35, 26
11, 157050, Note_on_c, 9, 35, 0
11, 157082, Note_on_c, 9, 44, 0
11, 157086, Note_on_c, 9, 51, 0
11, 157402, Note_on_c, 9, 51, 88
11, 157470, Note_on_c, 9, 51, 0
11, 157682, Note_on_c, 9, 35, 35
11, 157718, Note_on_c, 9, 35, 0
11, 157782, Note_on_c, 9, 44, 70
11, 157786, Note_on_c, 9, 37, 70
11, 157790, Note_on_c, 9, 51, 98
11, 157800, Note_on_c, 9, 45, 72
11, 157834, Note_on_c, 9, 45, 0
11, 157850, Note_on_c, 9, 44, 0
11, 157850, Note_on_c, 9, 37, 0
11, 157854, Note_on_c, 9, 51, 0
11, 158058, Note_on_c, 9, 45, 108
11, 158170, Note_on_c, 9, 51, 88
11, 158204, Note_on_c, 9, 45, 0
11, 158238, Note_on_c, 9, 51, 0
11, 158554, Note_on_c, 9, 44, 70
11, 158554, Note_on_c, 9, 51, 98
11, 158584, Note_on_c, 9, 35, 38
11, 158618, Note_on_c, 9, 44, 0
11, 158622, Note_on_c, 9, 51, 0
11, 158634, Note_on_c, 9, 35, 0
11, 158838, Note_on_c, 9, 51, 68
11, 158902, Note_on_c, 9, 51, 0
11, 158938, Note_on_c, 9, 51, 88
11, 159006, Note_on_c, 9, 51, 0
11, 159244, Note_on_c, 9, 35, 28
11, 159272, Note_on_c, 9, 35, 0
11, 159322, Note_on_c, 9, 37, 60
11, 159322, Note_on_c, 9, 44, 70
11, 159326, Note_on_c, 9, 51, 98
11, 159336, Note_on_c, 9, 45, 74
11, 159382, Note_on_c, 9, 44, 0
11, 159382, Note_on_c, 9, 37, 0
11, 159390, Note_on_c, 9, 51, 0
11, 159508, Note_on_c, 9, 45, 0
11, 159606, Note_on_c, 9, 51, 68
11, 159670, Note_on_c, 9, 51, 0
11, 159706, Note_on_c, 9, 51, 88
11, 159774, Note_on_c, 9, 51, 0
11, 160090, Note_on_c, 9, 51, 108
11, 160090, Note_on_c, 9, 44, 70
11, 160110, Note_on_c, 9, 35, 24
11, 160152, Note_on_c, 9, 35, 0
11, 160154, Note_on_c, 9, 44, 0
11, 160158, Note_on_c, 9, 51, 0
11, 160474, Note_on_c, 9, 51, 88
11, 160542, Note_on_c, 9, 51, 0
11, 160858, Note_on_c, 9, 37, 70
11, 160858, Note_on_c, 9, 44, 70
11, 160862, Note_on_c, 9, 51, 108
11, 160922, Note_on_c, 9, 44, 0
11, 160922, Note_on_c, 9, 37, 0
11, 160926, Note_on_c, 9, 51, 0
11, 161242, Note_on_c, 9, 51, 88
11, 161310, Note_on_c, 9, 51, 0
11, 161626, Note_on_c, 9, 51, 98
11, 161626, Note_on_c, 9, 44, 70
11, 161690, Note_on_c, 9, 44, 0
11, 161694, Note_on_c, 9, 51, 0
11, 161910, Note_on_c, 9, 51, 68
11, 161970, Note_on_c, 9, 51, 0
11, 162010, Note_on_c, 9, 51, 88
11, 162078, Note_on_c, 9, 51, 0
11, 162394, Note_on_c, 9, 44, 70
11, 162394, Note_on_c, 9, 37, 60
11, 162398, Note_on_c, 9, 51, 98
11, 162458, Note_on_c, 9, 37, 0
11, 162458, Note_on_c, 9, 44, 0
11, 162462, Note_on_c, 9, 51, 0
11, 162678, Note_on_c, 9, 51, 68
11, 162750, Note_on_c, 9, 51, 0
11, 162774, Note_on_c, 9, 51, 88
11, 162846, Note_on_c, 9, 51, 0
11, 163162, Note_on_c, 9, 51, 98
11, 163162, Note_on_c, 9, 44, 70
11, 163226, Note_on_c, 9, 44, 0
11, 163230, Note_on_c, 9, 51, 0
11, 163454, Note_on_c, 9, 51, 68
11, 163518, Note_on_c, 9, 51, 0
11, 163546, Note_on_c, 9, 51, 88
11, 163614, Note_on_c, 9, 51, 0
11, 163830, Note_on_c, 9, 38, 60
11, 163902, Note_on_c, 9, 38, 0
11, 163930, Note_on_c, 9, 44, 70
11, 163934, Note_on_c, 9, 51, 98
11, 163994, Note_on_c, 9, 44, 0
11, 163998, Note_on_c, 9, 51, 0
11, 164206, Note_on_c, 9, 37, 64
11, 164214, Note_on_c, 9, 38, 30
11, 164214, Note_on_c, 9, 51, 68
11, 164282, Note_on_c, 9, 38, 0
11, 164286, Note_on_c, 9, 51, 0
11, 164310, Note_on_c, 9, 37, 0
11, 164314, Note_on_c, 9, 51, 88
11, 164350, Note_on_c, 9, 35, 44
11, 164382, Note_on_c, 9, 51, 0
11, 164544, Note_on_c, 9, 35, 0
11, 164698, Note_on_c, 9, 44, 70
11, 164702, Note_on_c, 9, 51, 108
11, 164762, Note_on_c, 9, 44, 0
11, 164766, Note_on_c, 9, 51, 0
11, 165086, Note_on_c, 9, 51, 88
11, 165150, Note_on_c, 9, 51, 0
11, 165456, Note_on_c, 9, 37, 69
11, 165466, Note_on_c, 9, 37, 70
11, 165466, Note_on_c, 9, 44, 70
11, 165470, Note_on_c, 9, 51, 108
11, 165530, Note_on_c, 9, 44, 0
11, 165530, Note_on_c, 9, 37, 0
11, 165534, Note_on_c, 9, 51, 0
11, 165548, Note_on_c, 9, 37, 0
11, 165850, Note_on_c, 9, 51, 88
11, 165918, Note_on_c, 9, 51, 0
11, 166230, Note_on_c, 9, 37, 74
11, 166234, Note_on_c, 9, 44, 70
11, 166234, Note_on_c, 9, 51, 98
11, 166298, Note_on_c, 9, 44, 0
11, 166302, Note_on_c, 9, 51, 0
11, 166348, Note_on_c, 9, 37, 0
11, 166618, Note_on_c, 9, 51, 88
11, 166686, Note_on_c, 9, 51, 0
11, 167002, Note_on_c, 9, 44, 70
11, 167002, Note_on_c, 9, 37, 70
11, 167006, Note_on_c, 9, 51, 98
11, 167010, Note_on_c, 9, 37, 84
11, 167066, Note_on_c, 9, 44, 0
11, 167070, Note_on_c, 9, 37, 0
11, 167070, Note_on_c, 9, 51, 0
11, 167152, Note_on_c, 9, 37, 0
11, 167382, Note_on_c, 9, 51, 88
11, 167454, Note_on_c, 9, 51, 0
11, 167770, Note_on_c, 9, 44, 70
11, 167770, Note_on_c, 9, 37, 77
11, 167770, Note_on_c, 9, 51, 98
11, 167834, Note_on_c, 9, 44, 0
11, 167838, Note_on_c, 9, 51, 0
11, 167964, Note_on_c, 9, 37, 0
11, 168062, Note_on_c, 9, 51, 68
11, 168126, Note_on_c, 9, 51, 0
11, 168154, Note_on_c, 9, 51, 88
11, 168222, Note_on_c, 9, 51, 0
11, 168520, Note_on_c, 9, 37, 77
11, 168538, Note_on_c, 9, 37, 70
11, 168538, Note_on_c, 9, 44, 70
11, 168538, Note_on_c, 9, 51, 98
11, 168602, Note_on_c, 9, 44, 0
11, 168602, Note_on_c, 9, 37, 0
11, 168606, Note_on_c, 9, 51, 0
11, 168664, Note_on_c, 9, 37, 0
11, 168822, Note_on_c, 9, 51, 68
11, 168894, Note_on_c, 9, 51, 0
11, 168922, Note_on_c, 9, 51, 88
11, 168990, Note_on_c, 9, 51, 0
11, 169306, Note_on_c, 9, 44, 70
11, 169310, Note_on_c, 9, 51, 98
11, 169370, Note_on_c, 9, 44, 0
11, 169374, Note_on_c, 9, 51, 0
11, 169590, Note_on_c, 9, 51, 68
11, 169662, Note_on_c, 9, 51, 0
11, 169690, Note_on_c, 9, 51, 88
11, 169758, Note_on_c, 9, 51, 0
11, 170074, Note_on_c, 9, 37, 70
11, 170074, Note_on_c, 9, 44, 70
11, 170078, Note_on_c, 9, 51, 98
11, 170138, Note_on_c, 9, 44, 0
11, 170142, Note_on_c, 9, 51, 0
11, 170142, Note_on_c, 9, 37, 0
11, 170362, Note_on_c, 9, 51, 68
11, 170422, Note_on_c, 9, 51, 0
11, 170458, Note_on_c, 9, 51, 88
11, 170526, Note_on_c, 9, 51, 0
11, 170842, Note_on_c, 9, 44, 70
11, 170846, Note_on_c, 9, 51, 98
11, 170906, Note_on_c, 9, 44, 0
11, 170910, Note_on_c, 9, 51, 0
11, 171134, Note_on_c, 9, 51, 68
11, 171190, Note_on_c, 9, 51, 0
11, 171226, Note_on_c, 9, 51, 88
11, 171294, Note_on_c, 9, 51, 0
11, 171610, Note_on_c, 9, 37, 70
11, 171610, Note_on_c, 9, 44, 70
11, 171614, Note_on_c, 9, 51, 98
11, 171674, Note_on_c, 9, 44, 0
11, 171674, Note_on_c, 9, 37, 0
11, 171678, Note_on_c, 9, 51, 0
11, 171902, Note_on_c, 9, 51, 68
11, 171962, Note_on_c, 9, 51, 0
11, 171994, Note_on_c, 9, 51, 88
11, 172062, Note_on_c, 9, 51, 0
11, 172374, Note_on_c, 9, 37, 83
11, 172374, Note_on_c, 9, 44, 70
11, 172378, Note_on_c, 9, 51, 98
11, 172442, Note_on_c, 9, 44, 0
11, 172446, Note_on_c, 9, 51, 0
11, 172502, Note_on_c, 9, 37, 0
11, 172762, Note_on_c, 9, 51, 88
11, 172830, Note_on_c, 9, 51, 0
11, 173146, Note_on_c, 9, 37, 70
11, 173146, Note_on_c, 9, 44, 70
11, 173150, Note_on_c, 9, 51, 98
11, 173210, Note_on_c, 9, 44, 0
11, 173210, Note_on_c, 9, 37, 0
11, 173214, Note_on_c, 9, 51, 0
11, 173530, Note_on_c, 9, 51, 88
11, 173598, Note_on_c, 9, 51, 0
11, 173914, Note_on_c, 9, 44, 70
11, 173918, Note_on_c, 9, 51, 98
11, 173922, Note_on_c, 9, 37, 90
11, 173974, Note_on_c, 9, 44, 0
11, 173982, Note_on_c, 9, 51, 0
11, 174050, Note_on_c, 9, 37, 0
11, 174198, Note_on_c, 9, 51, 68
11, 174270, Note_on_c, 9, 51, 0
11, 174298, Note_on_c, 9, 51, 88
11, 174366, Note_on_c, 9, 51, 0
11, 174682, Note_on_c, 9, 44, 70
11, 174686, Note_on_c, 9, 37, 70
11, 174686, Note_on_c, 9, 51, 98
11, 174746, Note_on_c, 9, 37, 0
11, 174746, Note_on_c, 9, 44, 0
11, 174750, Note_on_c, 9, 51, 0
11, 174970, Note_on_c, 9, 51, 68
11, 175030, Note_on_c, 9, 51, 0
11, 175066, Note_on_c, 9, 51, 88
11, 175134, Note_on_c, 9, 51, 0
11, 175450, Note_on_c, 9, 44, 70
11, 175454, Note_on_c, 9, 51, 98
11, 175466, Note_on_c, 9, 37, 88
11, 175514, Note_on_c, 9, 44, 0
11, 175518, Note_on_c, 9, 51, 0
11, 175584, Note_on_c, 9, 37, 0
11, 175742, Note_on_c, 9, 51, 68
11, 175798, Note_on_c, 9, 51, 0
11, 175834, Note_on_c, 9, 51, 88
11, 175902, Note_on_c, 9, 51, 0
11, 176126, Note_on_c, 9, 38, 20
11, 176178, Note_on_c, 9, 38, 0
11, 176218, Note_on_c, 9, 44, 70
11, 176218, Note_on_c, 9, 38, 40
11, 176222, Note_on_c, 9, 37, 70
11, 176222, Note_on_c, 9, 51, 98
11, 176282, Note_on_c, 9, 38, 0
11, 176282, Note_on_c, 9, 44, 0
11, 176286, Note_on_c, 9, 37, 0
11, 176286, Note_on_c, 9, 51, 0
11, 176498, Note_on_c, 9, 35, 75
11, 176510, Note_on_c, 9, 51, 68
11, 176554, Note_on_c, 9, 35, 0
11, 176570, Note_on_c, 9, 51, 0
11, 176602, Note_on_c, 9, 51, 88
11, 176606, Note_on_c, 9, 49, 30
11, 176666, Note_on_c, 9, 51, 0
11, 176670, Note_on_c, 9, 49, 0
11, 176982, Note_on_c, 9, 44, 70
11, 176986, Note_on_c, 9, 51, 108
11, 177050, Note_on_c, 9, 44, 0
11, 177054, Note_on_c, 9, 51, 0
11, 177370, Note_on_c, 9, 51, 88
11, 177438, Note_on_c, 9, 51, 0
11, 177754, Note_on_c, 9, 37, 70
11, 177754, Note_on_c, 9, 44, 70
11, 177758, Note_on_c, 9, 51, 108
11, 177818, Note_on_c, 9, 44, 0
11, 177818, Note_on_c, 9, 37, 0
11, 177822, Note_on_c, 9, 51, 0
11, 178138, Note_on_c, 9, 51, 88
11, 178206, Note_on_c, 9, 51, 0
11, 178522, Note_on_c, 9, 44, 70
11, 178522, Note_on_c, 9, 51, 98
11, 178540, Note_on_c, 9, 37, 90
11, 178582, Note_on_c, 9, 44, 0
11, 178590, Note_on_c, 9, 51, 0
11, 178658, Note_on_c, 9, 37, 0
11, 178906, Note_on_c, 9, 51, 88
11, 178974, Note_on_c, 9, 51, 0
11, 179290, Note_on_c, 9, 44, 70
11, 179290, Note_on_c, 9, 37, 70
11, 179294, Note_on_c, 9, 51, 98
11, 179354, Note_on_c, 9, 44, 0
11, 179358, Note_on_c, 9, 51, 0
11, 179358, Note_on_c, 9, 37, 0
11, 179674, Note_on_c, 9, 51, 88
11, 179742, Note_on_c, 9, 51, 0
11, 180058, Note_on_c, 9, 51, 108
11, 180058, Note_on_c, 9, 44, 70
11, 180072, Note_on_c, 9, 37, 87
11, 180122, Note_on_c, 9, 44, 0
11, 180126, Note_on_c, 9, 51, 0
11, 180182, Note_on_c, 9, 37, 0
11, 180442, Note_on_c, 9, 51, 88
11, 180510, Note_on_c, 9, 51, 0
11, 180708, Note_on_c, 9, 35, 74
11, 180770, Note_on_c, 9, 35, 0
11, 180820, Note_on_c, 9, 35, 70
11, 180826, Note_on_c, 9, 44, 70
11, 180826, Note_on_c, 9, 37, 70
11, 180830, Note_on_c, 9, 51, 108
11, 180890, Note_on_c, 9, 44, 0
11, 180894, Note_on_c, 9, 35, 0
11, 180894, Note_on_c, 9, 37, 0
11, 180894, Note_on_c, 9, 51, 0
11, 181210, Note_on_c, 9, 51, 88
11, 181278, Note_on_c, 9, 51, 0
11, 181592, Note_on_c, 9, 37, 86
11, 181594, Note_on_c, 9, 51, 98
11, 181594, Note_on_c, 9, 44, 70
11, 181658, Note_on_c, 9, 44, 0
11, 181662, Note_on_c, 9, 51, 0
11, 181664, Note_on_c, 9, 37, 0
11, 181978, Note_on_c, 9, 51, 88
11, 182046, Note_on_c, 9, 51, 0
11, 182362, Note_on_c, 9, 37, 70
11, 182362, Note_on_c, 9, 44, 70
11, 182366, Note_on_c, 9, 51, 98
11, 182426, Note_on_c, 9, 44, 0
11, 182426, Note_on_c, 9, 37, 0
11, 182430, Note_on_c, 9, 51, 0
11, 182746, Note_on_c, 9, 51, 88
11, 182814, Note_on_c, 9, 51, 0
11, 183130, Note_on_c, 9, 51, 98
11, 183130, Note_on_c, 9, 44, 70
11, 183146, Note_on_c, 9, 37, 92
11, 183194, Note_on_c, 9, 44, 0
11, 183198, Note_on_c, 9, 51, 0
11, 183222, Note_on_c, 9, 37, 0
11, 183414, Note_on_c, 9, 51, 68
11, 183478, Note_on_c, 9, 51, 0
11, 183514, Note_on_c, 9, 51, 88
11, 183582, Note_on_c, 9, 51, 0
11, 183802, Note_on_c, 9, 35, 71
11, 183866, Note_on_c, 9, 35, 0
11, 183898, Note_on_c, 9, 44, 70
11, 183902, Note_on_c, 9, 51, 98
11, 183902, Note_on_c, 9, 37, 60
11, 183914, Note_on_c, 9, 35, 80
11, 183962, Note_on_c, 9, 37, 0
11, 183962, Note_on_c, 9, 44, 0
11, 183966, Note_on_c, 9, 51, 0
11, 184022, Note_on_c, 9, 35, 0
11, 184178, Note_on_c, 9, 51, 68
11, 184246, Note_on_c, 9, 51, 0
11, 184282, Note_on_c, 9, 51, 88
11, 184350, Note_on_c, 9, 51, 0
11, 184666, Note_on_c, 9, 44, 70
11, 184666, Note_on_c, 9, 51, 98
11, 184674, Note_on_c, 9, 37, 86
11, 184730, Note_on_c, 9, 44, 0
11, 184734, Note_on_c, 9, 51, 0
11, 184746, Note_on_c, 9, 37, 0
11, 184958, Note_on_c, 9, 51, 68
11, 185014, Note_on_c, 9, 51, 0
11, 185050, Note_on_c, 9, 51, 88
11, 185118, Note_on_c, 9, 51, 0
11, 185434, Note_on_c, 9, 37, 70
11, 185434, Note_on_c, 9, 44, 70
11, 185438, Note_on_c, 9, 51, 98
11, 185498, Note_on_c, 9, 44, 0
11, 185498, Note_on_c, 9, 37, 0
11, 185502, Note_on_c, 9, 51, 0
11, 185726, Note_on_c, 9, 51, 68
11, 185778, Note_on_c, 9, 51, 0
11, 185818, Note_on_c, 9, 51, 88
11, 185886, Note_on_c, 9, 51, 0
11, 186202, Note_on_c, 9, 44, 70
11, 186202, Note_on_c, 9, 51, 108
11, 186216, Note_on_c, 9, 37, 90
11, 186266, Note_on_c, 9, 44, 0
11, 186270, Note_on_c, 9, 51, 0
11, 186300, Note_on_c, 9, 37, 0
11, 186582, Note_on_c, 9, 51, 88
11, 186654, Note_on_c, 9, 51, 0
11, 186970, Note_on_c, 9, 37, 70
11, 186970, Note_on_c, 9, 44, 70
11, 186974, Note_on_c, 9, 51, 108
11, 187034, Note_on_c, 9, 44, 0
11, 187034, Note_on_c, 9, 37, 0
11, 187038, Note_on_c, 9, 51, 0
11, 187354, Note_on_c, 9, 51, 88
11, 187422, Note_on_c, 9, 51, 0
11, 187724, Note_on_c, 9, 40, 37
11, 187738, Note_on_c, 9, 44, 70
11, 187742, Note_on_c, 9, 51, 98
11, 187802, Note_on_c, 9, 44, 0
11, 187806, Note_on_c, 9, 51, 0
11, 187844, Note_on_c, 9, 40, 0
11, 188022, Note_on_c, 9, 51, 68
11, 188094, Note_on_c, 9, 51, 0
11, 188108, Note_on_c, 9, 40, 55
11, 188122, Note_on_c, 9, 51, 88
11, 188190, Note_on_c, 9, 51, 0
11, 188268, Note_on_c, 9, 40, 0
11, 188372, Note_on_c, 9, 40, 48
11, 188406, Note_on_c, 9, 38, 20
11, 188432, Note_on_c, 9, 40, 0
11, 188478, Note_on_c, 9, 38, 0
11, 188506, Note_on_c, 9, 44, 70
11, 188506, Note_on_c, 9, 38, 40
11, 188506, Note_on_c, 9, 37, 70
11, 188510, Note_on_c, 9, 51, 98
11, 188570, Note_on_c, 9, 38, 0
11, 188570, Note_on_c, 9, 44, 0
11, 188574, Note_on_c, 9, 37, 0
11, 188574, Note_on_c, 9, 51, 0
11, 188766, Note_on_c, 9, 37, 58
11, 188790, Note_on_c, 9, 51, 68
11, 188852, Note_on_c, 9, 37, 0
11, 188862, Note_on_c, 9, 51, 0
11, 188874, Note_on_c, 9, 57, 33
11, 188890, Note_on_c, 9, 35, 64
11, 188894, Note_on_c, 9, 51, 88
11, 188958, Note_on_c, 9, 51, 0
11, 189274, Note_on_c, 9, 44, 70
11, 189274, Note_on_c, 9, 51, 98
11, 189338, Note_on_c, 9, 44, 0
11, 189342, Note_on_c, 9, 51, 0
11, 189562, Note_on_c, 9, 51, 68
11, 189618, Note_on_c, 9, 51, 0
11, 189658, Note_on_c, 9, 51, 88
11, 189726, Note_on_c, 9, 51, 0
11, 189812, Note_on_c, 9, 57, 0
11, 189908, Note_on_c, 9, 35, 0
11, 189940, Note_on_c, 9, 37, 26
11, 189976, Note_on_c, 9, 37, 0
11, 190042, Note_on_c, 9, 44, 70
11, 190046, Note_on_c, 9, 51, 98
11, 190046, Note_on_c, 9, 37, 60
11, 190054, Note_on_c, 9, 35, 80
11, 190106, Note_on_c, 9, 37, 0
11, 190106, Note_on_c, 9, 44, 0
11, 190110, Note_on_c, 9, 51, 0
11, 190274, Note_on_c, 9, 35, 0
11, 190322, Note_on_c, 9, 35, 88
11, 190334, Note_on_c, 9, 51, 68
11, 190390, Note_on_c, 9, 51, 0
11, 190426, Note_on_c, 9, 51, 88
11, 190482, Note_on_c, 9, 35, 0
11, 190494, Note_on_c, 9, 51, 0
11, 190810, Note_on_c, 9, 51, 98
11, 190810, Note_on_c, 9, 44, 70
11, 190874, Note_on_c, 9, 44, 0
11, 190878, Note_on_c, 9, 51, 0
11, 191194, Note_on_c, 9, 51, 88
11, 191262, Note_on_c, 9, 51, 0
11, 191574, Note_on_c, 9, 44, 70
11, 191574, Note_on_c, 9, 37, 70
11, 191582, Note_on_c, 9, 51, 98
11, 191642, Note_on_c, 9, 44, 0
11, 191646, Note_on_c, 9, 51, 0
11, 191646, Note_on_c, 9, 37, 0
11, 191962, Note_on_c, 9, 51, 88
11, 192030, Note_on_c, 9, 51, 0
11, 192346, Note_on_c, 9, 44, 70
11, 192350, Note_on_c, 9, 51, 98
11, 192410, Note_on_c, 9, 44, 0
11, 192414, Note_on_c, 9, 51, 0
11, 192630, Note_on_c, 9, 51, 68
11, 192702, Note_on_c, 9, 51, 0
11, 192730, Note_on_c, 9, 51, 88
11, 192798, Note_on_c, 9, 51, 0
11, 193114, Note_on_c, 9, 44, 70
11, 193114, Note_on_c, 9, 37, 70
11, 193118, Note_on_c, 9, 51, 98
11, 193174, Note_on_c, 9, 37, 0
11, 193174, Note_on_c, 9, 44, 0
11, 193182, Note_on_c, 9, 51, 0
11, 193398, Note_on_c, 9, 51, 68
11, 193470, Note_on_c, 9, 51, 0
11, 193498, Note_on_c, 9, 51, 88
11, 193566, Note_on_c, 9, 51, 0
11, 193882, Note_on_c, 9, 44, 70
11, 193886, Note_on_c, 9, 51, 98
11, 193946, Note_on_c, 9, 44, 0
11, 193950, Note_on_c, 9, 51, 0
11, 194170, Note_on_c, 9, 51, 68
11, 194230, Note_on_c, 9, 51, 0
11, 194266, Note_on_c, 9, 51, 88
11, 194334, Note_on_c, 9, 51, 0
11, 194650, Note_on_c, 9, 37, 70
11, 194650, Note_on_c, 9, 44, 70
11, 194654, Note_on_c, 9, 51, 98
11, 194714, Note_on_c, 9, 44, 0
11, 194714, Note_on_c, 9, 37, 0
11, 194718, Note_on_c, 9, 51, 0
11, 194826, Note_on_c, 9, 37, 55
11, 194856, Note_on_c, 9, 37, 0
11, 194942, Note_on_c, 9, 51, 68
11, 194998, Note_on_c, 9, 51, 0
11, 195034, Note_on_c, 9, 51, 88
11, 195084, Note_on_c, 9, 37, 62
11, 195102, Note_on_c, 9, 51, 0
11, 195116, Note_on_c, 9, 37, 0
11, 195340, Note_on_c, 9, 37, 60
11, 195394, Note_on_c, 9, 37, 0
11, 195418, Note_on_c, 9, 44, 70
11, 195418, Note_on_c, 9, 51, 98
11, 195482, Note_on_c, 9, 44, 0
11, 195486, Note_on_c, 9, 51, 0
11, 195590, Note_on_c, 9, 37, 53
11, 195640, Note_on_c, 9, 37, 0
11, 195710, Note_on_c, 9, 51, 68
11, 195720, Note_on_c, 9, 35, 58
11, 195770, Note_on_c, 9, 51, 0
11, 195772, Note_on_c, 9, 35, 0
11, 195802, Note_on_c, 9, 51, 88
11, 195844, Note_on_c, 9, 37, 57
11, 195870, Note_on_c, 9, 51, 0
11, 195986, Note_on_c, 9, 37, 0
11, 196070, Note_on_c, 9, 37, 51
11, 196122, Note_on_c, 9, 37, 0
11, 196182, Note_on_c, 9, 44, 70
11, 196186, Note_on_c, 9, 51, 98
11, 196186, Note_on_c, 9, 37, 70
11, 196250, Note_on_c, 9, 37, 0
11, 196250, Note_on_c, 9, 44, 0
11, 196254, Note_on_c, 9, 51, 0
11, 196316, Note_on_c, 9, 37, 57
11, 196368, Note_on_c, 9, 37, 0
11, 196440, Note_on_c, 9, 35, 64
11, 196478, Note_on_c, 9, 51, 68
11, 196524, Note_on_c, 9, 35, 0
11, 196542, Note_on_c, 9, 51, 0
11, 196570, Note_on_c, 9, 51, 88
11, 196638, Note_on_c, 9, 51, 0
11, 196954, Note_on_c, 9, 51, 108
11, 196954, Note_on_c, 9, 44, 70
11, 197018, Note_on_c, 9, 44, 0
11, 197022, Note_on_c, 9, 51, 0
11, 197338, Note_on_c, 9, 51, 88
11, 197406, Note_on_c, 9, 51, 0
11, 197722, Note_on_c, 9, 44, 70
11, 197726, Note_on_c, 9, 37, 70
11, 197726, Note_on_c, 9, 51, 108
11, 197782, Note_on_c, 9, 37, 0
11, 197782, Note_on_c, 9, 44, 0
11, 197794, Note_on_c, 9, 51, 0
11, 198106, Note_on_c, 9, 51, 88
11, 198126, Note_on_c, 9, 40, 30
11, 198166, Note_on_c, 9, 40, 0
11, 198174, Note_on_c, 9, 51, 0
11, 198240, Note_on_c, 9, 40, 39
11, 198308, Note_on_c, 9, 40, 0
11, 198368, Note_on_c, 9, 35, 61
11, 198454, Note_on_c, 9, 35, 0
11, 198490, Note_on_c, 9, 44, 70
11, 198494, Note_on_c, 9, 51, 98
11, 198554, Note_on_c, 9, 44, 0
11, 198558, Note_on_c, 9, 51, 0
11, 198642, Note_on_c, 9, 40, 26
11, 198680, Note_on_c, 9, 40, 0
11, 198740, Note_on_c, 9, 40, 38
11, 198770, Note_on_c, 9, 51, 68
11, 198796, Note_on_c, 9, 40, 0
11, 198846, Note_on_c, 9, 51, 0
11, 198870, Note_on_c, 9, 35, 55
11, 198874, Note_on_c, 9, 51, 88
11, 198942, Note_on_c, 9, 51, 0
11, 199016, Note_on_c, 9, 35, 0
11, 199258, Note_on_c, 9, 44, 70
11, 199258, Note_on_c, 9, 37, 70
11, 199262, Note_on_c, 9, 51, 98
11, 199322, Note_on_c, 9, 37, 0
11, 199322, Note_on_c, 9, 44, 0
11, 199326, Note_on_c, 9, 51, 0
11, 199550, Note_on_c, 9, 51, 68
11, 199606, Note_on_c, 9, 51, 0
11, 199642, Note_on_c, 9, 51, 88
11, 199666, Note_on_c, 9, 40, 21
11, 199710, Note_on_c, 9, 40, 0
11, 199710, Note_on_c, 9, 51, 0
11, 199800, Note_on_c, 9, 40, 15
11, 199836, Note_on_c, 9, 40, 0
11, 200018, Note_on_c, 9, 40, 24
11, 200026, Note_on_c, 9, 44, 70
11, 200026, Note_on_c, 9, 51, 98
11, 200094, Note_on_c, 9, 40, 0
11, 200096, Note_on_c, 9, 44, 0
11, 200100, Note_on_c, 9, 51, 0
11, 200302, Note_on_c, 9, 40, 26
11, 200324, Note_on_c, 9, 51, 68
11, 200340, Note_on_c, 9, 40, 0
11, 200376, Note_on_c, 9, 51, 0
11, 200416, Note_on_c, 9, 51, 88
11, 200434, Note_on_c, 9, 40, 33
11, 200466, Note_on_c, 9, 40, 0
11, 200484, Note_on_c, 9, 51, 0
11, 200708, Note_on_c, 9, 38, 20
11, 200768, Note_on_c, 9, 38, 0
11, 200800, Note_on_c, 9, 38, 40
11, 200800, Note_on_c, 9, 44, 70
11, 200804, Note_on_c, 9, 37, 70
11, 200804, Note_on_c, 9, 51, 98
11, 200824, Note_on_c, 9, 40, 33
11, 200858, Note_on_c, 9, 40, 0
11, 200864, Note_on_c, 9, 38, 0
11, 200864, Note_on_c, 9, 44, 0
11, 200868, Note_on_c, 9, 37, 0
11, 200868, Note_on_c, 9, 51, 0
11, 201066, Note_on_c, 9, 37, 48
11, 201092, Note_on_c, 9, 51, 68
11, 201148, Note_on_c, 9, 37, 0
11, 201156, Note_on_c, 9, 51, 0
11, 201180, Note_on_c, 9, 51, 88
11, 201182, Note_on_c, 9, 57, 24
11, 201184, Note_on_c, 9, 49, 30
11, 201194, Note_on_c, 9, 35, 53
11, 201248, Note_on_c, 9, 51, 0
11, 201252, Note_on_c, 9, 49, 0
11, 201568, Note_on_c, 9, 44, 70
11, 201572, Note_on_c, 9, 51, 108
11, 201632, Note_on_c, 9, 44, 0
11, 201636, Note_on_c, 9, 51, 0
11, 201952, Note_on_c, 9, 51, 88
11, 202020, Note_on_c, 9, 51, 0
11, 202060, Note_on_c, 9, 57, 0
11, 202146, Note_on_c, 9, 35, 0
11, 202206, Note_on_c, 9, 37, 29
11, 202262, Note_on_c, 9, 37, 0
11, 202320, Note_on_c, 9, 35, 53
11, 202336, Note_on_c, 9, 44, 70
11, 202336, Note_on_c, 9, 37, 70
11, 202336, Note_on_c, 9, 51, 108
11, 202400, Note_on_c, 9, 37, 0
11, 202400, Note_on_c, 9, 44, 0
11, 202404, Note_on_c, 9, 51, 0
11, 202410, Note_on_c, 9, 35, 0
11, 202590, Note_on_c, 9, 57, 33
11, 202604, Note_on_c, 9, 35, 54
11, 202660, Note_on_c, 9, 57, 0
11, 202702, Note_on_c, 9, 35, 0
11, 202720, Note_on_c, 9, 51, 88
11, 202788, Note_on_c, 9, 51, 0
11, 202830, Note_on_c, 9, 35, 59
11, 202832, Note_on_c, 9, 57, 28
11, 202930, Note_on_c, 9, 57, 0
11, 202996, Note_on_c, 9, 35, 0
11, 203104, Note_on_c, 9, 44, 70
11, 203104, Note_on_c, 9, 51, 108
11, 203168, Note_on_c, 9, 44, 0
11, 203172, Note_on_c, 9, 51, 0
11, 203488, Note_on_c, 9, 51, 88
11, 203556, Note_on_c, 9, 51, 0
11, 203872, Note_on_c, 9, 44, 70
11, 203872, Note_on_c, 9, 37, 70
11, 203876, Note_on_c, 9, 51, 108
11, 203936, Note_on_c, 9, 44, 0
11, 203940, Note_on_c, 9, 51, 0
11, 203940, Note_on_c, 9, 37, 0
11, 204256, Note_on_c, 9, 51, 88
11, 204324, Note_on_c, 9, 51, 0
11, 204640, Note_on_c, 9, 44, 70
11, 204640, Note_on_c, 9, 51, 98
11, 204704, Note_on_c, 9, 44, 0
11, 204708, Note_on_c, 9, 51, 0
11, 204924, Note_on_c, 9, 51, 68
11, 204984, Note_on_c, 9, 51, 0
11, 205012, Note_on_c, 9, 35, 41
11, 205024, Note_on_c, 9, 51, 88
11, 205054, Note_on_c, 9, 35, 0
11, 205092, Note_on_c, 9, 51, 0
11, 205122, Note_on_c, 9, 35, 55
11, 205192, Note_on_c, 9, 35, 0
11, 205408, Note_on_c, 9, 37, 60
11, 205408, Note_on_c, 9, 44, 70
11, 205412, Note_on_c, 9, 51, 98
11, 205472, Note_on_c, 9, 44, 0
11, 205476, Note_on_c, 9, 51, 0
11, 205476, Note_on_c, 9, 37, 0
11, 205692, Note_on_c, 9, 51, 68
11, 205764, Note_on_c, 9, 51, 0
11, 205792, Note_on_c, 9, 51, 88
11, 205796, Note_on_c, 9, 35, 42
11, 205830, Note_on_c, 9, 35, 0
11, 205860, Note_on_c, 9, 51, 0
11, 205896, Note_on_c, 9, 35, 64
11, 205940, Note_on_c, 9, 35, 0
11, 206176, Note_on_c, 9, 44, 70
11, 206176, Note_on_c, 9, 51, 108
11, 206240, Note_on_c, 9, 44, 0
11, 206244, Note_on_c, 9, 51, 0
11, 206438, Note_on_c, 9, 35, 55
11, 206466, Note_on_c, 9, 35, 0
11, 206560, Note_on_c, 9, 51, 88
11, 206628, Note_on_c, 9, 51, 0
11, 206700, Note_on_c, 9, 35, 79
11, 206730, Note_on_c, 9, 35, 0
11, 206858, Note_on_c, 9, 35, 32
11, 206890, Note_on_c, 9, 35, 0
11, 206944, Note_on_c, 9, 37, 70
11, 206944, Note_on_c, 9, 44, 70
11, 206948, Note_on_c, 9, 51, 108
11, 206982, Note_on_c, 9, 35, 67
11, 207008, Note_on_c, 9, 44, 0
11, 207008, Note_on_c, 9, 37, 0
11, 207012, Note_on_c, 9, 51, 0
11, 207070, Note_on_c, 9, 35, 0
11, 207214, Note_on_c, 9, 35, 64
11, 207246, Note_on_c, 9, 35, 0
11, 207328, Note_on_c, 9, 51, 88
11, 207396, Note_on_c, 9, 51, 0
11, 207712, Note_on_c, 9, 51, 98
11, 207712, Note_on_c, 9, 44, 70
11, 207776, Note_on_c, 9, 44, 0
11, 207780, Note_on_c, 9, 51, 0
11, 207996, Note_on_c, 9, 51, 68
11, 208060, Note_on_c, 9, 51, 0
11, 208096, Note_on_c, 9, 51, 88
11, 208164, Note_on_c, 9, 51, 0
11, 208480, Note_on_c, 9, 44, 70
11, 208484, Note_on_c, 9, 37, 60
11, 208484, Note_on_c, 9, 51, 98
11, 208544, Note_on_c, 9, 37, 0
11, 208544, Note_on_c, 9, 44, 0
11, 208548, Note_on_c, 9, 51, 0
11, 208768, Note_on_c, 9, 51, 68
11, 208828, Note_on_c, 9, 51, 0
11, 208864, Note_on_c, 9, 51, 88
11, 208932, Note_on_c, 9, 51, 0
11, 209248, Note_on_c, 9, 51, 108
11, 209248, Note_on_c, 9, 44, 70
11, 209312, Note_on_c, 9, 44, 0
11, 209316, Note_on_c, 9, 51, 0
11, 209632, Note_on_c, 9, 51, 88
11, 209700, Note_on_c, 9, 51, 0
11, 210016, Note_on_c, 9, 37, 70
11, 210016, Note_on_c, 9, 44, 70
11, 210020, Note_on_c, 9, 51, 108
11, 210080, Note_on_c, 9, 44, 0
11, 210084, Note_on_c, 9, 51, 0
11, 210084, Note_on_c, 9, 37, 0
11, 210400, Note_on_c, 9, 51, 88
11, 210468, Note_on_c, 9, 51, 0
11, 210780, Note_on_c, 9, 44, 70
11, 210784, Note_on_c, 9, 51, 108
11, 210848, Note_on_c, 9, 44, 0
11, 210852, Note_on_c, 9, 51, 0
11, 211168, Note_on_c, 9, 51, 88
11, 211236, Note_on_c, 9, 51, 0
11, 211552, Note_on_c, 9, 51, 108
11, 211552, Note_on_c, 9, 37, 70
11, 211552, Note_on_c, 9, 44, 70
11, 211616, Note_on_c, 9, 44, 0
11, 211616, Note_on_c, 9, 37, 0
11, 211620, Note_on_c, 9, 51, 0
11, 211842, Note_on_c, 9, 40, 33
11, 211880, Note_on_c, 9, 40, 0
11, 211936, Note_on_c, 9, 51, 88
11, 211960, Note_on_c, 9, 46, 46
11, 211988, Note_on_c, 9, 35, 48
11, 212004, Note_on_c, 9, 51, 0
11, 212068, Note_on_c, 9, 46, 0
11, 212130, Note_on_c, 9, 35, 0
11, 212320, Note_on_c, 9, 51, 98
11, 212320, Note_on_c, 9, 44, 70
11, 212346, Note_on_c, 9, 40, 37
11, 212380, Note_on_c, 9, 44, 0
11, 212388, Note_on_c, 9, 51, 0
11, 212400, Note_on_c, 9, 40, 0
11, 212568, Note_on_c, 9, 46, 65
11, 212592, Note_on_c, 9, 35, 62
11, 212604, Note_on_c, 9, 51, 68
11, 212632, Note_on_c, 9, 46, 0
11, 212674, Note_on_c, 9, 35, 0
11, 212676, Note_on_c, 9, 51, 0
11, 212704, Note_on_c, 9, 51, 88
11, 212772, Note_on_c, 9, 51, 0
11, 212984, Note_on_c, 9, 38, 20
11, 212992, Note_on_c, 9, 40, 23
11, 213026, Note_on_c, 9, 40, 0
11, 213060, Note_on_c, 9, 38, 0
11, 213088, Note_on_c, 9, 44, 70
11, 213088, Note_on_c, 9, 38, 40
11, 213092, Note_on_c, 9, 37, 70
11, 213092, Note_on_c, 9, 51, 98
11, 213128, Note_on_c, 9, 46, 73
11, 213138, Note_on_c, 9, 35, 77
11, 213152, Note_on_c, 9, 38, 0
11, 213152, Note_on_c, 9, 44, 0
11, 213156, Note_on_c, 9, 51, 0
11, 213156, Note_on_c, 9, 37, 0
11, 213200, Note_on_c, 9, 46, 0
11, 213344, Note_on_c, 9, 35, 0
11, 213376, Note_on_c, 9, 51, 68
11, 213436, Note_on_c, 9, 51, 0
11, 213472, Note_on_c, 9, 51, 88
11, 213472, Note_on_c, 9, 49, 30
11, 213502, Note_on_c, 9, 40, 23
11, 213536, Note_on_c, 9, 51, 0
11, 213538, Note_on_c, 9, 40, 0
11, 213540, Note_on_c, 9, 49, 0
11, 213726, Note_on_c, 9, 46, 72
11, 213734, Note_on_c, 9, 35, 66
11, 213780, Note_on_c, 9, 46, 0
11, 213856, Note_on_c, 9, 51, 108
11, 213856, Note_on_c, 9, 44, 70
11, 213864, Note_on_c, 9, 35, 0
11, 213920, Note_on_c, 9, 44, 0
11, 213924, Note_on_c, 9, 51, 0
11, 214240, Note_on_c, 9, 51, 88
11, 214308, Note_on_c, 9, 51, 0
11, 214624, Note_on_c, 9, 44, 70
11, 214624, Note_on_c, 9, 37, 70
11, 214628, Note_on_c, 9, 51, 108
11, 214688, Note_on_c, 9, 37, 0
11, 214688, Note_on_c, 9, 44, 0
11, 214692, Note_on_c, 9, 51, 0
11, 215008, Note_on_c, 9, 51, 88
11, 215076, Note_on_c, 9, 51, 0
11, 215388, Note_on_c, 9, 44, 70
11, 215392, Note_on_c, 9, 51, 108
11, 215456, Note_on_c, 9, 44, 0
11, 215460, Note_on_c, 9, 51, 0
11, 215776, Note_on_c, 9, 51, 88
11, 215844, Note_on_c, 9, 51, 0
11, 216040, Note_on_c, 9, 40, 35
11, 216072, Note_on_c, 9, 40, 0
11, 216160, Note_on_c, 9, 44, 70
11, 216164, Note_on_c, 9, 37, 70
11, 216164, Note_on_c, 9, 51, 108
11, 216180, Note_on_c, 9, 40, 33
11, 216222, Note_on_c, 9, 40, 0
11, 216224, Note_on_c, 9, 44, 0
11, 216224, Note_on_c, 9, 37, 0
11, 216228, Note_on_c, 9, 51, 0
11, 216416, Note_on_c, 9, 35, 49
11, 216454, Note_on_c, 9, 35, 0
11, 216544, Note_on_c, 9, 51, 88
11, 216546, Note_on_c, 9, 35, 44
11, 216612, Note_on_c, 9, 51, 0
11, 216738, Note_on_c, 9, 35, 0
11, 216806, Note_on_c, 9, 35, 45
11, 216866, Note_on_c, 9, 35, 0
11, 216928, Note_on_c, 9, 44, 70
11, 216928, Note_on_c, 9, 51, 98
11, 216988, Note_on_c, 9, 44, 0
11, 216996, Note_on_c, 9, 51, 0
11, 217212, Note_on_c, 9, 51, 68
11, 217276, Note_on_c, 9, 51, 0
11, 217312, Note_on_c, 9, 51, 88
11, 217332, Note_on_c, 9, 35, 36
11, 217368, Note_on_c, 9, 35, 0
11, 217380, Note_on_c, 9, 51, 0
11, 217696, Note_on_c, 9, 44, 70
11, 217696, Note_on_c, 9, 37, 60
11, 217700, Note_on_c, 9, 51, 98
11, 217760, Note_on_c, 9, 37, 0
11, 217760, Note_on_c, 9, 44, 0
11, 217764, Note_on_c, 9, 51, 0
11, 217976, Note_on_c, 9, 51, 68
11, 218044, Note_on_c, 9, 51, 0
11, 218080, Note_on_c, 9, 51, 88
11, 218148, Note_on_c, 9, 51, 0
11, 218464, Note_on_c, 9, 44, 70
11, 218468, Note_on_c, 9, 51, 98
11, 218528, Note_on_c, 9, 44, 0
11, 218532, Note_on_c, 9, 51, 0
11, 218848, Note_on_c, 9, 51, 88
11, 218916, Note_on_c, 9, 51, 0
11, 219232, Note_on_c, 9, 37, 70
11, 219232, Note_on_c, 9, 44, 70
11, 219236, Note_on_c, 9, 51, 98
11, 219296, Note_on_c, 9, 44, 0
11, 219296, Note_on_c, 9, 37, 0
11, 219300, Note_on_c, 9, 51, 0
11, 219608, Note_on_c, 9, 35, 35
11, 219616, Note_on_c, 9, 51, 88
11, 219652, Note_on_c, 9, 35, 0
11, 219684, Note_on_c, 9, 51, 0
11, 220000, Note_on_c, 9, 51, 98
11, 220000, Note_on_c, 9, 44, 70
11, 220064, Note_on_c, 9, 44, 0
11, 220068, Note_on_c, 9, 51, 0
11, 220284, Note_on_c, 9, 51, 68
11, 220286, Note_on_c, 9, 35, 32
11, 220328, Note_on_c, 9, 35, 0
11, 220356, Note_on_c, 9, 51, 0
11, 220380, Note_on_c, 9, 51, 88
11, 220452, Note_on_c, 9, 51, 0
11, 220638, Note_on_c, 9, 40, 23
11, 220672, Note_on_c, 9, 40, 0
11, 220768, Note_on_c, 9, 37, 60
11, 220768, Note_on_c, 9, 44, 70
11, 220772, Note_on_c, 9, 51, 98
11, 220782, Note_on_c, 9, 40, 35
11, 220830, Note_on_c, 9, 40, 0
11, 220832, Note_on_c, 9, 37, 0
11, 220832, Note_on_c, 9, 44, 0
11, 220836, Note_on_c, 9, 51, 0
11, 220896, Note_on_c, 9, 40, 34
11, 220924, Note_on_c, 9, 40, 0
11, 221038, Note_on_c, 9, 35, 47
11, 221052, Note_on_c, 9, 51, 68
11, 221076, Note_on_c, 9, 35, 0
11, 221116, Note_on_c, 9, 51, 0
11, 221152, Note_on_c, 9, 51, 88
11, 221220, Note_on_c, 9, 51, 0
11, 221536, Note_on_c, 9, 44, 70
11, 221540, Note_on_c, 9, 51, 98
11, 221600, Note_on_c, 9, 44, 0
11, 221604, Note_on_c, 9, 51, 0
11, 221820, Note_on_c, 9, 51, 68
11, 221820, Note_on_c, 9, 40, 19
11, 221850, Note_on_c, 9, 40, 0
11, 221892, Note_on_c, 9, 51, 0
11, 221920, Note_on_c, 9, 51, 88
11, 221978, Note_on_c, 9, 40, 22
11, 221988, Note_on_c, 9, 51, 0
11, 222012, Note_on_c, 9, 40, 0
11, 222114, Note_on_c, 9, 40, 37
11, 222142, Note_on_c, 9, 40, 0
11, 222276, Note_on_c, 9, 35, 55
11, 222304, Note_on_c, 9, 44, 70
11, 222304, Note_on_c, 9, 51, 98
11, 222304, Note_on_c, 9, 37, 70
11, 222316, Note_on_c, 9, 35, 0
11, 222368, Note_on_c, 9, 44, 0
11, 222368, Note_on_c, 9, 37, 0
11, 222372, Note_on_c, 9, 51, 0
11, 222554, Note_on_c, 9, 40, 23
11, 222584, Note_on_c, 9, 51, 68
11, 222592, Note_on_c, 9, 40, 0
11, 222660, Note_on_c, 9, 51, 0
11, 222692, Note_on_c, 9, 51, 88
11, 222756, Note_on_c, 9, 51, 0
11, 223072, Note_on_c, 9, 44, 70
11, 223072, Note_on_c, 9, 51, 98
11, 223136, Note_on_c, 9, 44, 0
11, 223140, Note_on_c, 9, 51, 0
11, 223360, Note_on_c, 9, 51, 68
11, 223362, Note_on_c, 9, 35, 46
11, 223398, Note_on_c, 9, 35, 0
11, 223420, Note_on_c, 9, 51, 0
11, 223456, Note_on_c, 9, 51, 88
11, 223478, Note_on_c, 9, 40, 33
11, 223510, Note_on_c, 9, 40, 0
11, 223524, Note_on_c, 9, 51, 0
11, 223614, Note_on_c, 9, 35, 50
11, 223648, Note_on_c, 9, 35, 0
11, 223840, Note_on_c, 9, 37, 60
11, 223840, Note_on_c, 9, 44, 70
11, 223844, Note_on_c, 9, 51, 98
11, 223904, Note_on_c, 9, 44, 0
11, 223904, Note_on_c, 9, 37, 0
11, 223908, Note_on_c, 9, 51, 0
11, 224124, Note_on_c, 9, 51, 68
11, 224184, Note_on_c, 9, 51, 0
11, 224224, Note_on_c, 9, 51, 88
11, 224292, Note_on_c, 9, 51, 0
11, 224368, Note_on_c, 9, 40, 33
11, 224396, Note_on_c, 9, 40, 0
11, 224480, Note_on_c, 9, 35, 37
11, 224548, Note_on_c, 9, 35, 0
11, 224608, Note_on_c, 9, 44, 70
11, 224608, Note_on_c, 9, 51, 98
11, 224624, Note_on_c, 9, 40, 34
11, 224672, Note_on_c, 9, 44, 0
11, 224676, Note_on_c, 9, 51, 0
11, 224706, Note_on_c, 9, 40, 0
11, 224900, Note_on_c, 9, 51, 68
11, 224964, Note_on_c, 9, 51, 0
11, 224988, Note_on_c, 9, 51, 88
11, 224992, Note_on_c, 9, 40, 28
11, 225026, Note_on_c, 9, 40, 0
11, 225060, Note_on_c, 9, 51, 0
11, 225146, Note_on_c, 9, 35, 40
11, 225178, Note_on_c, 9, 35, 0
11, 225254, Note_on_c, 9, 40, 42
11, 225282, Note_on_c, 9, 40, 0
11, 225284, Note_on_c, 9, 38, 20
11, 225348, Note_on_c, 9, 38, 0
11, 225376, Note_on_c, 9, 44, 70
11, 225376, Note_on_c, 9, 38, 40
11, 225380, Note_on_c, 9, 37, 70
11, 225380, Note_on_c, 9, 51, 98
11, 225440, Note_on_c, 9, 38, 0
11, 225440, Note_on_c, 9, 44, 0
11, 225444, Note_on_c, 9, 37, 0
11, 225444, Note_on_c, 9, 51, 0
11, 225510, Note_on_c, 9, 40, 44
11, 225542, Note_on_c, 9, 40, 0
11, 225610, Note_on_c, 9, 35, 65
11, 225668, Note_on_c, 9, 51, 68
11, 225692, Note_on_c, 9, 35, 0
11, 225732, Note_on_c, 9, 51, 0
11, 225748, Note_on_c, 9, 37, 62
11, 225760, Note_on_c, 9, 51, 88
11, 225828, Note_on_c, 9, 51, 0
11, 225838, Note_on_c, 9, 37, 0
11, 225838, Note_on_c, 9, 35, 63
11, 226144, Note_on_c, 9, 51, 98
11, 226144, Note_on_c, 9, 44, 70
11, 226208, Note_on_c, 9, 44, 0
11, 226212, Note_on_c, 9, 51, 0
11, 226428, Note_on_c, 9, 51, 68
11, 226500, Note_on_c, 9, 51, 0
11, 226528, Note_on_c, 9, 51, 88
11, 226596, Note_on_c, 9, 51, 0
11, 226912, Note_on_c, 9, 37, 70
11, 226912, Note_on_c, 9, 44, 70
11, 226916, Note_on_c, 9, 51, 98
11, 226962, Note_on_c, 9, 35, 0
11, 226976, Note_on_c, 9, 37, 0
11, 226976, Note_on_c, 9, 44, 0
11, 226980, Note_on_c, 9, 51, 0
11, 227196, Note_on_c, 9, 51, 68
11, 227268, Note_on_c, 9, 51, 0
11, 227296, Note_on_c, 9, 51, 88
11, 227364, Note_on_c, 9, 51, 0
11, 227572, Note_on_c, 9, 40, 33
11, 227602, Note_on_c, 9, 40, 0
11, 227680, Note_on_c, 9, 44, 70
11, 227680, Note_on_c, 9, 51, 98
11, 227696, Note_on_c, 9, 35, 43
11, 227744, Note_on_c, 9, 44, 0
11, 227748, Note_on_c, 9, 51, 0
11, 227820, Note_on_c, 9, 35, 0
11, 227968, Note_on_c, 9, 51, 68
11, 228028, Note_on_c, 9, 51, 0
11, 228064, Note_on_c, 9, 51, 88
11, 228132, Note_on_c, 9, 51, 0
11, 228448, Note_on_c, 9, 37, 70
11, 228448, Note_on_c, 9, 44, 70
11, 228452, Note_on_c, 9, 51, 98
11, 228512, Note_on_c, 9, 44, 0
11, 228516, Note_on_c, 9, 51, 0
11, 228516, Note_on_c, 9, 37, 0
11, 228740, Note_on_c, 9, 51, 68
11, 228792, Note_on_c, 9, 51, 0
11, 228832, Note_on_c, 9, 51, 88
11, 228900, Note_on_c, 9, 51, 0
11, 229216, Note_on_c, 9, 44, 70
11, 229216, Note_on_c, 9, 51, 108
11, 229280, Note_on_c, 9, 44, 0
11, 229284, Note_on_c, 9, 51, 0
11, 229600, Note_on_c, 9, 51, 88
11, 229668, Note_on_c, 9, 51, 0
11, 229980, Note_on_c, 9, 44, 70
11, 229984, Note_on_c, 9, 37, 70
11, 229984, Note_on_c, 9, 51, 108
11, 230048, Note_on_c, 9, 37, 0
11, 230048, Note_on_c, 9, 44, 0
11, 230052, Note_on_c, 9, 51, 0
11, 230368, Note_on_c, 9, 51, 88
11, 230436, Note_on_c, 9, 51, 0
11, 230752, Note_on_c, 9, 44, 70
11, 230756, Note_on_c, 9, 51, 98
11, 230816, Note_on_c, 9, 44, 0
11, 230820, Note_on_c, 9, 51, 0
11, 231036, Note_on_c, 9, 51, 68
11, 231108, Note_on_c, 9, 51, 0
11, 231136, Note_on_c, 9, 51, 88
11, 231146, Note_on_c, 9, 40, 27
11, 231180, Note_on_c, 9, 40, 0
11, 231204, Note_on_c, 9, 51, 0
11, 231424, Note_on_c, 9, 40, 32
11, 231454, Note_on_c, 9, 40, 0
11, 231520, Note_on_c, 9, 44, 70
11, 231524, Note_on_c, 9, 37, 70
11, 231524, Note_on_c, 9, 51, 98
11, 231544, Note_on_c, 9, 35, 44
11, 231580, Note_on_c, 9, 37, 0
11, 231580, Note_on_c, 9, 44, 0
11, 231592, Note_on_c, 9, 51, 0
11, 231636, Note_on_c, 9, 35, 0
11, 231782, Note_on_c, 9, 35, 66
11, 231804, Note_on_c, 9, 51, 68
11, 231854, Note_on_c, 9, 35, 0
11, 231876, Note_on_c, 9, 51, 0
11, 231904, Note_on_c, 9, 51, 88
11, 231972, Note_on_c, 9, 51, 0
11, 232288, Note_on_c, 9, 44, 70
11, 232288, Note_on_c, 9, 51, 108
11, 232352, Note_on_c, 9, 44, 0
11, 232356, Note_on_c, 9, 51, 0
11, 232598, Note_on_c, 9, 40, 17
11, 232624, Note_on_c, 9, 40, 0
11, 232676, Note_on_c, 9, 51, 88
11, 232740, Note_on_c, 9, 51, 0
11, 232742, Note_on_c, 9, 40, 26
11, 232776, Note_on_c, 9, 40, 0
11, 232950, Note_on_c, 9, 40, 40
11, 232976, Note_on_c, 9, 40, 0
11, 233056, Note_on_c, 9, 44, 70
11, 233060, Note_on_c, 9, 37, 70
11, 233060, Note_on_c, 9, 51, 108
11, 233096, Note_on_c, 9, 35, 24
11, 233120, Note_on_c, 9, 44, 0
11, 233124, Note_on_c, 9, 37, 0
11, 233124, Note_on_c, 9, 51, 0
11, 233190, Note_on_c, 9, 35, 0
11, 233324, Note_on_c, 9, 35, 64
11, 233398, Note_on_c, 9, 35, 0
11, 233440, Note_on_c, 9, 51, 88
11, 233508, Note_on_c, 9, 51, 0
11, 233824, Note_on_c, 9, 44, 70
11, 233824, Note_on_c, 9, 51, 98
11, 233888, Note_on_c, 9, 44, 0
11, 233892, Note_on_c, 9, 51, 0
11, 234116, Note_on_c, 9, 51, 68
11, 234176, Note_on_c, 9, 51, 0
11, 234208, Note_on_c, 9, 51, 88
11, 234276, Note_on_c, 9, 51, 0
11, 234592, Note_on_c, 9, 44, 70
11, 234592, Note_on_c, 9, 51, 98
11, 234592, Note_on_c, 9, 37, 70
11, 234656, Note_on_c, 9, 37, 0
11, 234656, Note_on_c, 9, 44, 0
11, 234660, Note_on_c, 9, 51, 0
11, 234884, Note_on_c, 9, 51, 68
11, 234948, Note_on_c, 9, 51, 0
11, 234976, Note_on_c, 9, 51, 88
11, 235044, Note_on_c, 9, 51, 0
11, 235360, Note_on_c, 9, 44, 70
11, 235360, Note_on_c, 9, 51, 98
11, 235424, Note_on_c, 9, 44, 0
11, 235428, Note_on_c, 9, 51, 0
11, 235644, Note_on_c, 9, 51, 68
11, 235708, Note_on_c, 9, 51, 0
11, 235744, Note_on_c, 9, 51, 88
11, 235812, Note_on_c, 9, 51, 0
11, 236128, Note_on_c, 9, 37, 60
11, 236128, Note_on_c, 9, 44, 70
11, 236132, Note_on_c, 9, 51, 98
11, 236188, Note_on_c, 9, 44, 0
11, 236188, Note_on_c, 9, 37, 0
11, 236196, Note_on_c, 9, 51, 0
11, 236412, Note_on_c, 9, 51, 68
11, 236476, Note_on_c, 9, 51, 0
11, 236512, Note_on_c, 9, 51, 88
11, 236580, Note_on_c, 9, 51, 0
11, 236896, Note_on_c, 9, 44, 70
11, 236896, Note_on_c, 9, 51, 98
11, 236960, Note_on_c, 9, 44, 0
11, 236964, Note_on_c, 9, 51, 0
11, 237176, Note_on_c, 9, 51, 68
11, 237252, Note_on_c, 9, 51, 0
11, 237280, Note_on_c, 9, 51, 88
11, 237348, Note_on_c, 9, 51, 0
11, 237560, Note_on_c, 9, 31, 38
11, 237568, Note_on_c, 9, 38, 20
11, 237626, Note_on_c, 9, 31, 0
11, 237628, Note_on_c, 9, 38, 0
11, 237662, Note_on_c, 9, 37, 69
11, 237664, Note_on_c, 9, 38, 40
11, 237664, Note_on_c, 9, 44, 70
11, 237668, Note_on_c, 9, 37, 70
11, 237668, Note_on_c, 9, 51, 98
11, 237728, Note_on_c, 9, 44, 0
11, 237728, Note_on_c, 9, 38, 0
11, 237732, Note_on_c, 9, 51, 0
11, 237732, Note_on_c, 9, 37, 0
11, 237924, Note_on_c, 9, 57, 42
11, 237940, Note_on_c, 9, 35, 83
11, 237950, Note_on_c, 9, 37, 0
11, 237956, Note_on_c, 9, 51, 68
11, 238012, Note_on_c, 9, 51, 0
11, 238048, Note_on_c, 9, 51, 88
11, 238116, Note_on_c, 9, 51, 0
11, 238432, Note_on_c, 9, 44, 70
11, 238432, Note_on_c, 9, 51, 98
11, 238496, Note_on_c, 9, 44, 0
11, 238500, Note_on_c, 9, 51, 0
11, 238724, Note_on_c, 9, 51, 68
11, 238776, Note_on_c, 9, 51, 0
11, 238816, Note_on_c, 9, 51, 88
11, 238846, Note_on_c, 9, 57, 0
11, 238884, Note_on_c, 9, 51, 0
11, 239090, Note_on_c, 9, 35, 0
11, 239096, Note_on_c, 9, 37, 45
11, 239182, Note_on_c, 9, 37, 0
11, 239200, Note_on_c, 9, 44, 70
11, 239200, Note_on_c, 9, 37, 70
11, 239204, Note_on_c, 9, 51, 98
11, 239218, Note_on_c, 9, 35, 96
11, 239264, Note_on_c, 9, 37, 0
11, 239264, Note_on_c, 9, 44, 0
11, 239268, Note_on_c, 9, 51, 0
11, 239492, Note_on_c, 9, 51, 68
11, 239510, Note_on_c, 9, 35, 0
11, 239556, Note_on_c, 9, 51, 0
11, 239584, Note_on_c, 9, 51, 88
11, 239652, Note_on_c, 9, 51, 0
11, 239968, Note_on_c, 9, 51, 98
11, 239968, Note_on_c, 9, 44, 70
11, 240032, Note_on_c, 9, 44, 0
11, 240036, Note_on_c, 9, 51, 0
11, 240260, Note_on_c, 9, 51, 68
11, 240324, Note_on_c, 9, 51, 0
11, 240352, Note_on_c, 9, 51, 88
11, 240420, Note_on_c, 9, 51, 0
11, 240736, Note_on_c, 9, 44, 70
11, 240736, Note_on_c, 9, 37, 70
11, 240740, Note_on_c, 9, 51, 98
11, 240744, Note_on_c, 9, 35, 48
11, 240800, Note_on_c, 9, 37, 0
11, 240800, Note_on_c, 9, 44, 0
11, 240804, Note_on_c, 9, 51, 0
11, 240922, Note_on_c, 9, 35, 0
11, 240986, Note_on_c, 9, 35, 56
11, 241020, Note_on_c, 9, 51, 68
11, 241036, Note_on_c, 9, 35, 0
11, 241092, Note_on_c, 9, 51, 0
11, 241120, Note_on_c, 9, 51, 88
11, 241188, Note_on_c, 9, 51, 0
11, 241504, Note_on_c, 9, 44, 70
11, 241504, Note_on_c, 9, 51, 98
11, 241568, Note_on_c, 9, 44, 0
11, 241572, Note_on_c, 9, 51, 0
11, 241784, Note_on_c, 9, 51, 68
11, 241860, Note_on_c, 9, 51, 0
11, 241888, Note_on_c, 9, 51, 88
11, 241956, Note_on_c, 9, 51, 0
11, 242272, Note_on_c, 9, 44, 70
11, 242276, Note_on_c, 9, 37, 70
11, 242276, Note_on_c, 9, 51, 98
11, 242336, Note_on_c, 9, 44, 0
11, 242340, Note_on_c, 9, 51, 0
11, 242340, Note_on_c, 9, 37, 0
11, 242560, Note_on_c, 9, 35, 37
11, 242564, Note_on_c, 9, 51, 68
11, 242596, Note_on_c, 9, 35, 0
11, 242620, Note_on_c, 9, 51, 0
11, 242656, Note_on_c, 9, 51, 88
11, 242678, Note_on_c, 9, 35, 36
11, 242724, Note_on_c, 9, 51, 0
11, 242786, Note_on_c, 9, 35, 0
11, 242960, Note_on_c, 9, 35, 37
11, 243000, Note_on_c, 9, 35, 0
11, 243040, Note_on_c, 9, 44, 70
11, 243040, Note_on_c, 9, 51, 108
11, 243104, Note_on_c, 9, 44, 0
11, 243108, Note_on_c, 9, 51, 0
11, 243424, Note_on_c, 9, 51, 88
11, 243492, Note_on_c, 9, 51, 0
11, 243704, Note_on_c, 9, 40, 42
11, 243740, Note_on_c, 9, 40, 0
11, 243808, Note_on_c, 9, 44, 70
11, 243808, Note_on_c, 9, 37, 70
11, 243812, Note_on_c, 9, 51, 108
11, 243852, Note_on_c, 9, 35, 24
11, 243872, Note_on_c, 9, 44, 0
11, 243876, Note_on_c, 9, 37, 0
11, 243876, Note_on_c, 9, 51, 0
11, 244006, Note_on_c, 9, 35, 0
11, 244082, Note_on_c, 9, 40, 42
11, 244110, Note_on_c, 9, 40, 0
11, 244188, Note_on_c, 9, 51, 88
11, 244202, Note_on_c, 9, 35, 44
11, 244260, Note_on_c, 9, 51, 0
11, 244464, Note_on_c, 9, 35, 0
11, 244576, Note_on_c, 9, 44, 70
11, 244580, Note_on_c, 9, 51, 108
11, 244640, Note_on_c, 9, 44, 0
11, 244644, Note_on_c, 9, 51, 0
11, 244868, Note_on_c, 9, 40, 21
11, 244900, Note_on_c, 9, 40, 0
11, 244964, Note_on_c, 9, 51, 88
11, 244982, Note_on_c, 9, 40, 23
11, 245028, Note_on_c, 9, 51, 0
11, 245080, Note_on_c, 9, 40, 0
11, 245344, Note_on_c, 9, 44, 70
11, 245344, Note_on_c, 9, 37, 70
11, 245344, Note_on_c, 9, 51, 108
11, 245408, Note_on_c, 9, 37, 0
11, 245408, Note_on_c, 9, 44, 0
11, 245412, Note_on_c, 9, 51, 0
11, 245636, Note_on_c, 9, 40, 23
11, 245672, Note_on_c, 9, 40, 0
11, 245728, Note_on_c, 9, 51, 88
11, 245750, Note_on_c, 9, 40, 27
11, 245796, Note_on_c, 9, 51, 0
11, 245918, Note_on_c, 9, 40, 0
11, 246112, Note_on_c, 9, 44, 70
11, 246112, Note_on_c, 9, 51, 108
11, 246176, Note_on_c, 9, 44, 0
11, 246180, Note_on_c, 9, 51, 0
11, 246496, Note_on_c, 9, 51, 88
11, 246502, Note_on_c, 9, 40, 24
11, 246564, Note_on_c, 9, 51, 0
11, 246606, Note_on_c, 9, 40, 0
11, 246880, Note_on_c, 9, 51, 108
11, 246880, Note_on_c, 9, 37, 70
11, 246880, Note_on_c, 9, 44, 70
11, 246944, Note_on_c, 9, 44, 0
11, 246948, Note_on_c, 9, 37, 0
11, 246948, Note_on_c, 9, 51, 0
11, 247170, Note_on_c, 9, 40, 25
11, 247204, Note_on_c, 9, 40, 0
11, 247264, Note_on_c, 9, 51, 88
11, 247272, Note_on_c, 9, 40, 27
11, 247332, Note_on_c, 9, 51, 0
11, 247418, Note_on_c, 9, 40, 0
11, 247524, Note_on_c, 9, 40, 37
11, 247552, Note_on_c, 9, 40, 0
11, 247642, Note_on_c, 9, 40, 36
11, 247648, Note_on_c, 9, 44, 70
11, 247652, Note_on_c, 9, 51, 98
11, 247688, Note_on_c, 9, 40, 0
11, 247712, Note_on_c, 9, 44, 0
11, 247716, Note_on_c, 9, 51, 0
11, 247896, Note_on_c, 9, 40, 44
11, 247940, Note_on_c, 9, 51, 68
11, 247954, Note_on_c, 9, 40, 0
11, 247996, Note_on_c, 9, 51, 0
11, 248032, Note_on_c, 9, 51, 88
11, 248032, Note_on_c, 9, 40, 31
11, 248068, Note_on_c, 9, 40, 0
11, 248100, Note_on_c, 9, 51, 0
11, 248268, Note_on_c, 9, 40, 40
11, 248314, Note_on_c, 9, 40, 0
11, 248324, Note_on_c, 9, 38, 20
11, 248376, Note_on_c, 9, 38, 0
11, 248408, Note_on_c, 9, 40, 25
11, 248416, Note_on_c, 9, 38, 40
11, 248416, Note_on_c, 9, 44, 70
11, 248420, Note_on_c, 9, 37, 70
11, 248420, Note_on_c, 9, 51, 98
11, 248454, Note_on_c, 9, 40, 0
11, 248480, Note_on_c, 9, 38, 0
11, 248480, Note_on_c, 9, 44, 0
11, 248484, Note_on_c, 9, 37, 0
11, 248484, Note_on_c, 9, 51, 0
11, 248650, Note_on_c, 9, 37, 57
11, 248708, Note_on_c, 9, 51, 68
11, 248726, Note_on_c, 9, 37, 0
11, 248768, Note_on_c, 9, 51, 0
11, 248782, Note_on_c, 9, 35, 91
11, 248784, Note_on_c, 9, 57, 46
11, 248800, Note_on_c, 9, 51, 88
11, 248868, Note_on_c, 9, 51, 0
11, 248920, Note_on_c, 9, 57, 0
11, 248954, Note_on_c, 9, 35, 0
11, 250482, Control_c, 9, 123, 0
11, 250482, Control_c, 9, 64, 0
11, 250482, Control_c, 9, 123, 0
11, 250482, Control_c, 9, 64, 0
11, 250482, Control_c, 9, 123, 0
11, 250482, Control_c, 9, 64, 0
11, 250482, Program_c, 9, 0
11, 250482, Control_c, 9, 123, 0
11, 250482, Control_c, 9, 64, 0
11, 250482, Control_c, 9, 123, 0
11, 250482, Control_c, 9, 64, 0
11, 250482, Control_c, 9, 123, 0
11, 250482, Control_c, 9, 64, 0
11, 250482, Control_c, 9, 123, 0
11, 250482, Control_c, 9, 64, 0
11, 250482, Control_c, 9, 123, 0
11, 250482, Control_c, 9, 64, 0
11, 250482, Control_c, 9, 123, 0
11, 250482, Control_c, 9, 64, 0
11, 250482, Control_c, 9, 123, 0
11, 250482, Control_c, 9, 64, 0
11, 250482, End_track
12, 0, Start_track
12, 0, Title_t, "VSC 1 Output 1"
12, 385, Control_c, 0, 7, 101
12, 385, Control_c, 0, 10, 64
12, 385, End_track
13, 0, Start_track
13, 0, Title_t, "VSC 1"
13, 0, End_track
0, 0, End_of_file
