0, 0, Header, 1, 4, 120
1, 0, Start_track
1, 0, Title_t, "Green Dolphin Street"
1, 0, Copyright_t, "Copyright © 1999 by Doug McKenzie"
1, 0, Text_t, "Doug McKenzie\012"
1, 0, Time_signature, 4, 2, 24, 8
1, 0, Key_signature, 0, "major"
1, 0, Tempo, 333333
1, 0, End_track
2, 0, Start_track
2, 0, MIDI_port, 0
2, 2, Note_on_c, 0, 65, 75
2, 242, Note_on_c, 0, 57, 42
2, 246, Note_on_c, 0, 55, 56
2, 255, Note_on_c, 0, 60, 17
2, 258, Control_c, 0, 64, 127
2, 272, Control_c, 0, 64, 0
2, 371, Control_c, 0, 64, 127
2, 427, Control_c, 0, 64, 0
2, 437, Note_on_c, 0, 48, 61
2, 595, Control_c, 0, 64, 127
2, 649, Note_on_c, 0, 55, 0
2, 651, Note_on_c, 0, 57, 0
2, 658, Note_on_c, 0, 65, 0
2, 662, Note_on_c, 0, 60, 0
2, 729, Note_on_c, 0, 64, 108
2, 809, Note_on_c, 0, 60, 49
2, 812, Note_on_c, 0, 64, 0
2, 914, Note_on_c, 0, 60, 0
2, 927, Note_on_c, 0, 63, 57
2, 928, Note_on_c, 0, 60, 27
2, 929, Note_on_c, 0, 56, 53
2, 934, Note_on_c, 0, 55, 51
2, 936, Control_c, 0, 64, 0
2, 983, Control_c, 0, 64, 127
2, 1063, Note_on_c, 0, 48, 0
2, 1084, Note_on_c, 0, 55, 0
2, 1121, Note_on_c, 0, 56, 0
2, 1122, Note_on_c, 0, 60, 0
2, 1128, Note_on_c, 0, 63, 0
2, 1205, Note_on_c, 0, 48, 39
2, 1304, Control_c, 0, 64, 0
2, 1320, Note_on_c, 0, 56, 29
2, 1323, Note_on_c, 0, 68, 51
2, 1323, Note_on_c, 0, 75, 53
2, 1326, Note_on_c, 0, 72, 37
2, 1327, Note_on_c, 0, 60, 37
2, 1330, Note_on_c, 0, 67, 38
2, 1337, Control_c, 0, 64, 127
2, 1463, Note_on_c, 0, 67, 0
2, 1467, Note_on_c, 0, 72, 0
2, 1484, Note_on_c, 0, 68, 0
2, 1487, Note_on_c, 0, 75, 0
2, 1687, Note_on_c, 0, 79, 96
2, 1690, Note_on_c, 0, 48, 0
2, 1733, Note_on_c, 0, 79, 0
2, 1764, Note_on_c, 0, 75, 64
2, 1818, Note_on_c, 0, 72, 22
2, 1839, Note_on_c, 0, 72, 0
2, 1840, Note_on_c, 0, 60, 0
2, 1867, Note_on_c, 0, 75, 0
2, 1870, Note_on_c, 0, 56, 0
2, 1883, Note_on_c, 0, 71, 44
2, 1884, Note_on_c, 0, 67, 38
2, 1890, Control_c, 0, 64, 0
2, 1891, Note_on_c, 0, 74, 34
2, 1894, Note_on_c, 0, 55, 35
2, 1898, Note_on_c, 0, 48, 33
2, 1899, Note_on_c, 0, 59, 33
2, 1944, Control_c, 0, 64, 127
2, 2115, Note_on_c, 0, 74, 0
2, 2119, Note_on_c, 0, 71, 0
2, 2136, Note_on_c, 0, 67, 0
2, 2164, Note_on_c, 0, 48, 0
2, 2243, Note_on_c, 0, 48, 48
2, 2247, Note_on_c, 0, 59, 0
2, 2280, Note_on_c, 0, 59, 45
2, 2280, Note_on_c, 0, 71, 64
2, 2281, Note_on_c, 0, 67, 62
2, 2283, Note_on_c, 0, 62, 58
2, 2286, Control_c, 0, 64, 0
2, 2333, Note_on_c, 0, 59, 0
2, 2335, Note_on_c, 0, 62, 0
2, 2338, Note_on_c, 0, 67, 0
2, 2340, Note_on_c, 0, 48, 0
2, 2345, Note_on_c, 0, 71, 0
2, 2355, Note_on_c, 0, 55, 0
2, 2364, Note_on_c, 0, 62, 66
2, 2365, Note_on_c, 0, 67, 58
2, 2367, Note_on_c, 0, 55, 17
2, 2367, Note_on_c, 0, 59, 24
2, 2368, Note_on_c, 0, 48, 22
2, 2368, Note_on_c, 0, 71, 47
2, 2379, Note_on_c, 0, 71, 0
2, 2380, Note_on_c, 0, 67, 0
2, 2382, Note_on_c, 0, 59, 0
2, 2384, Note_on_c, 0, 62, 0
2, 2384, Note_on_c, 0, 55, 0
2, 2387, Note_on_c, 0, 48, 0
2, 2567, Control_c, 0, 64, 127
2, 2625, Control_c, 0, 64, 0
2, 2644, Note_on_c, 0, 70, 47
2, 2647, Note_on_c, 0, 61, 42
2, 2653, Note_on_c, 0, 55, 28
2, 2654, Note_on_c, 0, 48, 39
2, 2654, Note_on_c, 0, 65, 41
2, 2658, Note_on_c, 0, 66, 30
2, 2668, Note_on_c, 0, 65, 0
2, 2672, Note_on_c, 0, 61, 0
2, 2676, Note_on_c, 0, 55, 0
2, 2678, Note_on_c, 0, 66, 0
2, 2680, Note_on_c, 0, 48, 0
2, 2686, Note_on_c, 0, 70, 0
2, 2769, Note_on_c, 0, 61, 48
2, 2769, Note_on_c, 0, 70, 55
2, 2770, Note_on_c, 0, 55, 31
2, 2771, Note_on_c, 0, 48, 41
2, 2774, Note_on_c, 0, 66, 37
2, 2778, Note_on_c, 0, 65, 45
2, 2787, Note_on_c, 0, 65, 0
2, 2787, Note_on_c, 0, 48, 0
2, 2801, Note_on_c, 0, 55, 0
2, 2801, Note_on_c, 0, 61, 0
2, 2802, Note_on_c, 0, 66, 0
2, 2805, Note_on_c, 0, 70, 0
2, 2887, Note_on_c, 0, 64, 36
2, 2887, Note_on_c, 0, 48, 36
2, 2888, Note_on_c, 0, 60, 40
2, 2891, Note_on_c, 0, 69, 49
2, 2899, Note_on_c, 0, 57, 20
2, 2943, Control_c, 0, 64, 127
2, 3021, Note_on_c, 0, 60, 0
2, 3051, Note_on_c, 0, 64, 0
2, 3054, Note_on_c, 0, 69, 0
2, 3058, Note_on_c, 0, 48, 0
2, 3071, Note_on_c, 0, 57, 0
2, 3208, Note_on_c, 0, 77, 87
2, 3259, Note_on_c, 0, 74, 67
2, 3261, Note_on_c, 0, 77, 0
2, 3274, Note_on_c, 0, 65, 50
2, 3290, Note_on_c, 0, 70, 29
2, 3337, Note_on_c, 0, 60, 59
2, 3340, Note_on_c, 0, 65, 0
2, 3341, Note_on_c, 0, 54, 52
2, 3342, Control_c, 0, 64, 0
2, 3342, Note_on_c, 0, 50, 42
2, 3352, Note_on_c, 0, 70, 0
2, 3362, Note_on_c, 0, 74, 0
2, 3367, Control_c, 0, 64, 127
2, 3451, Note_on_c, 0, 89, 71
2, 3452, Note_on_c, 0, 91, 66
2, 3464, Note_on_c, 0, 50, 0
2, 3471, Note_on_c, 0, 91, 0
2, 3472, Note_on_c, 0, 60, 0
2, 3474, Note_on_c, 0, 54, 0
2, 3486, Note_on_c, 0, 89, 0
2, 3497, Note_on_c, 0, 86, 63
2, 3521, Note_on_c, 0, 77, 10
2, 3559, Note_on_c, 0, 77, 0
2, 3573, Note_on_c, 0, 86, 0
2, 3575, Note_on_c, 0, 65, 62
2, 3577, Note_on_c, 0, 60, 54
2, 3580, Note_on_c, 0, 58, 47
2, 3580, Note_on_c, 0, 54, 40
2, 3683, Note_on_c, 0, 101, 78
2, 3687, Note_on_c, 0, 65, 0
2, 3698, Note_on_c, 0, 60, 0
2, 3706, Note_on_c, 0, 58, 0
2, 3711, Note_on_c, 0, 54, 0
2, 3714, Note_on_c, 0, 101, 0
2, 3724, Note_on_c, 0, 98, 70
2, 3734, Note_on_c, 0, 98, 0
2, 3806, Note_on_c, 0, 43, 32
2, 3814, Control_c, 0, 64, 0
2, 3823, Note_on_c, 0, 43, 0
2, 3841, Control_c, 0, 64, 127
2, 3925, Note_on_c, 0, 62, 60
2, 3926, Note_on_c, 0, 69, 65
2, 3926, Note_on_c, 0, 58, 50
2, 3930, Note_on_c, 0, 57, 47
2, 3931, Note_on_c, 0, 65, 48
2, 3954, Control_c, 0, 64, 0
2, 4018, Control_c, 0, 64, 127
2, 4038, Note_on_c, 0, 65, 0
2, 4038, Note_on_c, 0, 58, 0
2, 4038, Note_on_c, 0, 62, 0
2, 4052, Note_on_c, 0, 69, 0
2, 4075, Control_c, 0, 64, 0
2, 4085, Note_on_c, 0, 58, 35
2, 4086, Note_on_c, 0, 57, 0
2, 4086, Note_on_c, 0, 62, 33
2, 4087, Note_on_c, 0, 67, 36
2, 4090, Note_on_c, 0, 65, 30
2, 4105, Note_on_c, 0, 65, 0
2, 4121, Note_on_c, 0, 62, 0
2, 4123, Control_c, 0, 64, 127
2, 4135, Note_on_c, 0, 67, 0
2, 4144, Note_on_c, 0, 58, 0
2, 4176, Control_c, 0, 64, 0
2, 4196, Note_on_c, 0, 36, 54
2, 4211, Note_on_c, 0, 36, 0
2, 4223, Control_c, 0, 64, 127
2, 4314, Control_c, 0, 64, 0
2, 4319, Note_on_c, 0, 75, 64
2, 4320, Note_on_c, 0, 63, 68
2, 4320, Note_on_c, 0, 68, 63
2, 4324, Note_on_c, 0, 72, 51
2, 4325, Note_on_c, 0, 64, 49
2, 4333, Note_on_c, 0, 72, 0
2, 4334, Note_on_c, 0, 64, 0
2, 4339, Note_on_c, 0, 68, 0
2, 4341, Note_on_c, 0, 63, 0
2, 4342, Note_on_c, 0, 75, 0
2, 4435, Note_on_c, 0, 73, 64
2, 4441, Note_on_c, 0, 68, 62
2, 4442, Note_on_c, 0, 61, 48
2, 4445, Note_on_c, 0, 64, 45
2, 4471, Control_c, 0, 64, 127
2, 4511, Note_on_c, 0, 64, 0
2, 4514, Note_on_c, 0, 68, 0
2, 4524, Control_c, 0, 64, 0
2, 4525, Note_on_c, 0, 73, 0
2, 4546, Note_on_c, 0, 61, 0
2, 4557, Note_on_c, 0, 64, 32
2, 4559, Note_on_c, 0, 60, 38
2, 4562, Note_on_c, 0, 72, 41
2, 4565, Note_on_c, 0, 67, 28
2, 4566, Control_c, 0, 64, 127
2, 4596, Note_on_c, 0, 64, 0
2, 4606, Note_on_c, 0, 72, 0
2, 4608, Note_on_c, 0, 67, 0
2, 4639, Note_on_c, 0, 70, 40
2, 4641, Note_on_c, 0, 60, 0
2, 4645, Control_c, 0, 64, 0
2, 4647, Note_on_c, 0, 58, 39
2, 4677, Note_on_c, 0, 70, 0
2, 4712, Control_c, 0, 64, 127
2, 4740, Note_on_c, 0, 56, 34
2, 4743, Control_c, 0, 64, 0
2, 4757, Note_on_c, 0, 72, 52
2, 4757, Note_on_c, 0, 62, 55
2, 4758, Note_on_c, 0, 67, 43
2, 4760, Note_on_c, 0, 58, 0
2, 4765, Note_on_c, 0, 57, 41
2, 4779, Note_on_c, 0, 56, 0
2, 4803, Note_on_c, 0, 67, 0
2, 4809, Note_on_c, 0, 72, 0
2, 4810, Note_on_c, 0, 62, 0
2, 4864, Control_c, 0, 64, 127
2, 4868, Note_on_c, 0, 57, 0
2, 4874, Note_on_c, 0, 56, 47
2, 4875, Note_on_c, 0, 61, 43
2, 4876, Note_on_c, 0, 71, 26
2, 4881, Note_on_c, 0, 66, 37
2, 4891, Note_on_c, 0, 66, 0
2, 4896, Note_on_c, 0, 71, 0
2, 4898, Note_on_c, 0, 61, 0
2, 4898, Control_c, 0, 64, 0
2, 4913, Note_on_c, 0, 72, 53
2, 4916, Note_on_c, 0, 56, 0
2, 4916, Note_on_c, 0, 57, 54
2, 4919, Note_on_c, 0, 67, 44
2, 4922, Note_on_c, 0, 62, 40
2, 4944, Note_on_c, 0, 72, 0
2, 4949, Note_on_c, 0, 67, 0
2, 4951, Control_c, 0, 64, 127
2, 4975, Note_on_c, 0, 62, 0
2, 4981, Note_on_c, 0, 57, 0
2, 5012, Control_c, 0, 64, 0
2, 5035, Note_on_c, 0, 67, 48
2, 5036, Note_on_c, 0, 52, 42
2, 5036, Note_on_c, 0, 62, 45
2, 5041, Note_on_c, 0, 57, 49
2, 5102, Note_on_c, 0, 67, 0
2, 5112, Note_on_c, 0, 62, 0
2, 5113, Note_on_c, 0, 57, 0
2, 5115, Note_on_c, 0, 52, 0
2, 5124, Note_on_c, 0, 51, 34
2, 5158, Note_on_c, 0, 51, 0
2, 5159, Note_on_c, 0, 67, 49
2, 5164, Note_on_c, 0, 62, 53
2, 5164, Note_on_c, 0, 52, 40
2, 5166, Note_on_c, 0, 57, 44
2, 5196, Note_on_c, 0, 67, 0
2, 5201, Note_on_c, 0, 62, 0
2, 5217, Note_on_c, 0, 57, 0
2, 5220, Control_c, 0, 64, 127
2, 5226, Note_on_c, 0, 52, 0
2, 5240, Control_c, 0, 64, 0
2, 5251, Note_on_c, 0, 46, 32
2, 5275, Note_on_c, 0, 46, 0
2, 5284, Note_on_c, 0, 48, 40
2, 5288, Note_on_c, 0, 57, 40
2, 5290, Note_on_c, 0, 55, 40
2, 5290, Note_on_c, 0, 52, 35
2, 5290, Note_on_c, 0, 60, 43
2, 5353, Control_c, 0, 64, 127
2, 5358, Note_on_c, 0, 60, 0
2, 5364, Control_c, 0, 64, 0
2, 5365, Note_on_c, 0, 55, 0
2, 5365, Note_on_c, 0, 48, 0
2, 5368, Note_on_c, 0, 52, 0
2, 5377, Note_on_c, 0, 57, 0
2, 5387, Note_on_c, 0, 47, 29
2, 5400, Note_on_c, 0, 47, 0
2, 5403, Note_on_c, 0, 48, 50
2, 5411, Note_on_c, 0, 60, 51
2, 5414, Note_on_c, 0, 55, 44
2, 5414, Note_on_c, 0, 57, 38
2, 5432, Control_c, 0, 64, 127
2, 5461, Note_on_c, 0, 57, 0
2, 5480, Note_on_c, 0, 55, 0
2, 5483, Note_on_c, 0, 48, 0
2, 5503, Note_on_c, 0, 60, 0
2, 5508, Control_c, 0, 64, 0
2, 5527, Note_on_c, 0, 55, 42
2, 5528, Note_on_c, 0, 52, 44
2, 5529, Note_on_c, 0, 57, 44
2, 5535, Control_c, 0, 64, 127
2, 5586, Note_on_c, 0, 52, 0
2, 5606, Control_c, 0, 64, 0
2, 5608, Note_on_c, 0, 29, 51
2, 5620, Note_on_c, 0, 55, 0
2, 5624, Note_on_c, 0, 57, 0
2, 5634, Note_on_c, 0, 29, 0
2, 5637, Control_c, 0, 64, 127
2, 5726, Note_on_c, 0, 56, 55
2, 5727, Note_on_c, 0, 65, 65
2, 5727, Note_on_c, 0, 60, 61
2, 5729, Control_c, 0, 64, 0
2, 5731, Note_on_c, 0, 61, 49
2, 5745, Note_on_c, 0, 56, 0
2, 5748, Note_on_c, 0, 46, 13
2, 5765, Note_on_c, 0, 60, 0
2, 5768, Control_c, 0, 64, 127
2, 5773, Note_on_c, 0, 65, 0
2, 5780, Note_on_c, 0, 61, 0
2, 5849, Note_on_c, 0, 46, 0
2, 5850, Note_on_c, 0, 61, 56
2, 5850, Note_on_c, 0, 72, 71
2, 5853, Note_on_c, 0, 65, 58
2, 5862, Control_c, 0, 64, 0
2, 5867, Note_on_c, 0, 60, 35
2, 5869, Note_on_c, 0, 59, 30
2, 5874, Note_on_c, 0, 65, 0
2, 5882, Note_on_c, 0, 60, 0
2, 5882, Note_on_c, 0, 59, 0
2, 5882, Note_on_c, 0, 72, 0
2, 5883, Note_on_c, 0, 61, 0
2, 5903, Note_on_c, 0, 68, 25
2, 5908, Note_on_c, 0, 58, 38
2, 5919, Note_on_c, 0, 68, 0
2, 5945, Control_c, 0, 64, 127
2, 5975, Note_on_c, 0, 61, 69
2, 5976, Note_on_c, 0, 72, 74
2, 5977, Note_on_c, 0, 65, 80
2, 5978, Note_on_c, 0, 68, 64
2, 5982, Control_c, 0, 64, 0
2, 5988, Note_on_c, 0, 60, 68
2, 6001, Note_on_c, 0, 58, 0
2, 6030, Control_c, 0, 64, 127
2, 6098, Note_on_c, 0, 68, 0
2, 6099, Note_on_c, 0, 65, 0
2, 6100, Note_on_c, 0, 61, 0
2, 6108, Control_c, 0, 64, 0
2, 6114, Note_on_c, 0, 72, 0
2, 6122, Note_on_c, 0, 60, 0
2, 6124, Note_on_c, 0, 58, 45
2, 6133, Control_c, 0, 64, 127
2, 6137, Note_on_c, 0, 61, 21
2, 6138, Note_on_c, 0, 68, 26
2, 6138, Note_on_c, 0, 65, 48
2, 6138, Note_on_c, 0, 70, 51
2, 6140, Note_on_c, 0, 58, 0
2, 6171, Note_on_c, 0, 68, 0
2, 6177, Note_on_c, 0, 65, 0
2, 6210, Note_on_c, 0, 61, 0
2, 6222, Note_on_c, 0, 70, 0
2, 6237, Note_on_c, 0, 27, 55
2, 6245, Note_on_c, 0, 61, 26
2, 6246, Note_on_c, 0, 64, 47
2, 6246, Note_on_c, 0, 72, 37
2, 6252, Control_c, 0, 64, 0
2, 6296, Control_c, 0, 64, 127
2, 6347, Note_on_c, 0, 27, 0
2, 6451, Note_on_c, 0, 64, 0
2, 6457, Note_on_c, 0, 61, 0
2, 6476, Note_on_c, 0, 72, 0
2, 6582, Control_c, 0, 64, 0
2, 6603, Note_on_c, 0, 61, 34
2, 6603, Note_on_c, 0, 55, 44
2, 6606, Note_on_c, 0, 64, 38
2, 6609, Note_on_c, 0, 59, 32
2, 6609, Note_on_c, 0, 45, 40
2, 6617, Control_c, 0, 64, 127
2, 6640, Note_on_c, 0, 64, 0
2, 6649, Note_on_c, 0, 59, 0
2, 6650, Note_on_c, 0, 45, 0
2, 6659, Note_on_c, 0, 55, 0
2, 6659, Note_on_c, 0, 61, 0
2, 6692, Control_c, 0, 64, 0
2, 6693, Note_on_c, 0, 60, 29
2, 6694, Note_on_c, 0, 63, 46
2, 6696, Note_on_c, 0, 55, 39
2, 6700, Note_on_c, 0, 51, 39
2, 6701, Note_on_c, 0, 58, 37
2, 6702, Note_on_c, 0, 44, 45
2, 6737, Control_c, 0, 64, 127
2, 6796, Note_on_c, 0, 55, 0
2, 6814, Note_on_c, 0, 60, 0
2, 6824, Note_on_c, 0, 58, 0
2, 6828, Note_on_c, 0, 63, 0
2, 6923, Note_on_c, 0, 44, 0
2, 6944, Note_on_c, 0, 51, 0
2, 6959, Note_on_c, 0, 70, 83
2, 6959, Note_on_c, 0, 55, 72
2, 6960, Control_c, 0, 64, 0
2, 6960, Note_on_c, 0, 63, 77
2, 6960, Note_on_c, 0, 60, 88
2, 6961, Note_on_c, 0, 67, 65
2, 7018, Note_on_c, 0, 67, 0
2, 7020, Note_on_c, 0, 60, 0
2, 7023, Note_on_c, 0, 63, 0
2, 7025, Note_on_c, 0, 70, 0
2, 7040, Note_on_c, 0, 55, 0
2, 7055, Note_on_c, 0, 53, 46
2, 7076, Note_on_c, 0, 53, 0
2, 7083, Note_on_c, 0, 70, 77
2, 7085, Note_on_c, 0, 55, 69
2, 7086, Note_on_c, 0, 60, 76
2, 7087, Note_on_c, 0, 63, 62
2, 7088, Note_on_c, 0, 67, 48
2, 7133, Control_c, 0, 64, 127
2, 7141, Note_on_c, 0, 70, 0
2, 7144, Note_on_c, 0, 60, 0
2, 7146, Note_on_c, 0, 55, 0
2, 7151, Note_on_c, 0, 63, 0
2, 7153, Note_on_c, 0, 67, 0
2, 7158, Control_c, 0, 64, 0
2, 7168, Note_on_c, 0, 55, 72
2, 7169, Note_on_c, 0, 70, 60
2, 7169, Note_on_c, 0, 63, 68
2, 7171, Note_on_c, 0, 60, 72
2, 7174, Note_on_c, 0, 67, 63
2, 7195, Note_on_c, 0, 60, 0
2, 7198, Note_on_c, 0, 67, 0
2, 7200, Note_on_c, 0, 55, 0
2, 7205, Note_on_c, 0, 70, 0
2, 7213, Note_on_c, 0, 63, 0
2, 7334, Note_on_c, 0, 65, 60
2, 7335, Note_on_c, 0, 72, 50
2, 7336, Note_on_c, 0, 48, 52
2, 7337, Note_on_c, 0, 62, 56
2, 7338, Note_on_c, 0, 60, 54
2, 7340, Note_on_c, 0, 58, 38
2, 7360, Control_c, 0, 64, 127
2, 7408, Note_on_c, 0, 72, 0
2, 7422, Note_on_c, 0, 65, 0
2, 7434, Note_on_c, 0, 62, 0
2, 7439, Note_on_c, 0, 60, 0
2, 7439, Note_on_c, 0, 58, 0
2, 7444, Note_on_c, 0, 48, 0
2, 7516, Note_on_c, 0, 69, 48
2, 7519, Note_on_c, 0, 61, 49
2, 7521, Note_on_c, 0, 48, 47
2, 7522, Note_on_c, 0, 64, 48
2, 7523, Note_on_c, 0, 58, 33
2, 7523, Control_c, 0, 64, 0
2, 7524, Note_on_c, 0, 57, 36
2, 7561, Note_on_c, 0, 69, 0
2, 7562, Control_c, 0, 64, 127
2, 7586, Note_on_c, 0, 58, 0
2, 7589, Note_on_c, 0, 64, 0
2, 7589, Note_on_c, 0, 57, 0
2, 7612, Note_on_c, 0, 48, 0
2, 7614, Note_on_c, 0, 61, 0
2, 7661, Control_c, 0, 64, 0
2, 7676, Note_on_c, 0, 65, 55
2, 7678, Note_on_c, 0, 60, 43
2, 7680, Note_on_c, 0, 62, 44
2, 7680, Note_on_c, 0, 57, 43
2, 7684, Note_on_c, 0, 48, 47
2, 7709, Control_c, 0, 64, 127
2, 7740, Note_on_c, 0, 57, 0
2, 7769, Note_on_c, 0, 60, 0
2, 7773, Note_on_c, 0, 62, 0
2, 7778, Note_on_c, 0, 65, 0
2, 7877, Note_on_c, 0, 74, 66
2, 7878, Note_on_c, 0, 58, 69
2, 7880, Note_on_c, 0, 68, 71
2, 7880, Control_c, 0, 64, 0
2, 7883, Note_on_c, 0, 64, 58
2, 7915, Note_on_c, 0, 74, 0
2, 7916, Note_on_c, 0, 64, 0
2, 7932, Note_on_c, 0, 58, 0
2, 7934, Note_on_c, 0, 68, 0
2, 7942, Control_c, 0, 64, 127
2, 7947, Note_on_c, 0, 72, 64
2, 7948, Note_on_c, 0, 57, 53
2, 7954, Note_on_c, 0, 62, 26
2, 7955, Note_on_c, 0, 67, 32
2, 8003, Note_on_c, 0, 62, 0
2, 8003, Note_on_c, 0, 48, 0
2, 8035, Note_on_c, 0, 67, 0
2, 8036, Note_on_c, 0, 48, 61
2, 8038, Note_on_c, 0, 72, 0
2, 8107, Note_on_c, 0, 57, 0
2, 8127, Note_on_c, 0, 57, 64
2, 8128, Note_on_c, 0, 77, 78
2, 8130, Control_c, 0, 64, 0
2, 8131, Note_on_c, 0, 72, 85
2, 8131, Note_on_c, 0, 67, 79
2, 8186, Control_c, 0, 64, 127
2, 8193, Note_on_c, 0, 48, 0
2, 8250, Note_on_c, 0, 48, 74
2, 8442, Note_on_c, 0, 48, 0
2, 8485, Note_on_c, 0, 48, 71
2, 8510, Note_on_c, 0, 77, 0
2, 8524, Note_on_c, 0, 72, 0
2, 8524, Note_on_c, 0, 57, 0
2, 8565, Note_on_c, 0, 67, 0
2, 8707, Note_on_c, 0, 55, 60
2, 8710, Note_on_c, 0, 75, 71
2, 8714, Note_on_c, 0, 60, 75
2, 8714, Note_on_c, 0, 72, 75
2, 8715, Note_on_c, 0, 68, 78
2, 8718, Note_on_c, 0, 67, 73
2, 8718, Note_on_c, 0, 56, 49
2, 8728, Control_c, 0, 64, 0
2, 8784, Control_c, 0, 64, 127
2, 8822, Note_on_c, 0, 55, 0
2, 8831, Note_on_c, 0, 48, 0
2, 8850, Note_on_c, 0, 56, 0
2, 8870, Note_on_c, 0, 72, 0
2, 8873, Note_on_c, 0, 75, 0
2, 8881, Note_on_c, 0, 68, 0
2, 8882, Note_on_c, 0, 48, 36
2, 8914, Note_on_c, 0, 48, 0
2, 8950, Note_on_c, 0, 67, 0
2, 8960, Note_on_c, 0, 48, 49
2, 8989, Note_on_c, 0, 60, 0
2, 9072, Note_on_c, 0, 56, 38
2, 9073, Note_on_c, 0, 60, 51
2, 9073, Control_c, 0, 64, 0
2, 9107, Control_c, 0, 64, 127
2, 9153, Note_on_c, 0, 48, 0
2, 9193, Note_on_c, 0, 48, 55
2, 9214, Control_c, 0, 64, 0
2, 9242, Note_on_c, 0, 56, 0
2, 9247, Note_on_c, 0, 60, 0
2, 9259, Control_c, 0, 64, 127
2, 9311, Note_on_c, 0, 75, 76
2, 9311, Note_on_c, 0, 70, 82
2, 9313, Control_c, 0, 64, 0
2, 9314, Note_on_c, 0, 56, 45
2, 9314, Note_on_c, 0, 65, 78
2, 9315, Note_on_c, 0, 60, 63
2, 9365, Control_c, 0, 64, 127
2, 9399, Note_on_c, 0, 48, 0
2, 9422, Note_on_c, 0, 65, 0
2, 9443, Note_on_c, 0, 48, 41
2, 9445, Note_on_c, 0, 60, 0
2, 9446, Note_on_c, 0, 70, 0
2, 9449, Note_on_c, 0, 75, 0
2, 9468, Note_on_c, 0, 56, 0
2, 9478, Control_c, 0, 64, 0
2, 9482, Note_on_c, 0, 56, 44
2, 9485, Note_on_c, 0, 77, 79
2, 9486, Note_on_c, 0, 72, 78
2, 9486, Note_on_c, 0, 67, 80
2, 9488, Note_on_c, 0, 60, 82
2, 9534, Control_c, 0, 64, 127
2, 9535, Note_on_c, 0, 48, 0
2, 9571, Control_c, 0, 64, 0
2, 9593, Control_c, 0, 64, 127
2, 9598, Note_on_c, 0, 48, 38
2, 9602, Note_on_c, 0, 77, 0
2, 9606, Note_on_c, 0, 72, 0
2, 9606, Note_on_c, 0, 60, 0
2, 9619, Note_on_c, 0, 67, 0
2, 9623, Note_on_c, 0, 56, 0
2, 9688, Note_on_c, 0, 76, 61
2, 9690, Note_on_c, 0, 71, 61
2, 9690, Note_on_c, 0, 65, 69
2, 9693, Note_on_c, 0, 59, 47
2, 9695, Control_c, 0, 64, 0
2, 9736, Control_c, 0, 64, 127
2, 9741, Note_on_c, 0, 48, 0
2, 9795, Note_on_c, 0, 76, 0
2, 9797, Note_on_c, 0, 59, 0
2, 9800, Note_on_c, 0, 71, 0
2, 9806, Note_on_c, 0, 48, 64
2, 9817, Note_on_c, 0, 65, 0
2, 9835, Note_on_c, 0, 48, 0
2, 9897, Note_on_c, 0, 36, 49
2, 9980, Control_c, 0, 64, 0
2, 9988, Note_on_c, 0, 48, 55
2, 9992, Control_c, 0, 64, 127
2, 10047, Note_on_c, 0, 36, 0
2, 10077, Note_on_c, 0, 36, 68
2, 10079, Control_c, 0, 64, 0
2, 10112, Control_c, 0, 64, 127
2, 10165, Note_on_c, 0, 48, 0
2, 10185, Note_on_c, 0, 53, 69
2, 10187, Note_on_c, 0, 61, 52
2, 10189, Note_on_c, 0, 54, 75
2, 10190, Note_on_c, 0, 58, 60
2, 10217, Control_c, 0, 64, 0
2, 10222, Note_on_c, 0, 48, 20
2, 10242, Note_on_c, 0, 48, 0
2, 10306, Note_on_c, 0, 48, 60
2, 10320, Note_on_c, 0, 48, 0
2, 10324, Note_on_c, 0, 36, 0
2, 10379, Note_on_c, 0, 48, 66
2, 10468, Note_on_c, 0, 36, 49
2, 10474, Control_c, 0, 64, 127
2, 10500, Note_on_c, 0, 48, 0
2, 10506, Note_on_c, 0, 53, 0
2, 10514, Note_on_c, 0, 54, 0
2, 10515, Note_on_c, 0, 61, 0
2, 10520, Note_on_c, 0, 58, 0
2, 10548, Note_on_c, 0, 60, 49
2, 10550, Control_c, 0, 64, 0
2, 10551, Note_on_c, 0, 52, 46
2, 10552, Note_on_c, 0, 55, 51
2, 10553, Note_on_c, 0, 57, 50
2, 10556, Note_on_c, 0, 48, 54
2, 10575, Note_on_c, 0, 36, 0
2, 10613, Note_on_c, 0, 48, 0
2, 10656, Note_on_c, 0, 48, 63
2, 10673, Note_on_c, 0, 48, 0
2, 10770, Note_on_c, 0, 47, 58
2, 10792, Note_on_c, 0, 47, 0
2, 10815, Note_on_c, 0, 48, 59
2, 10980, Note_on_c, 0, 48, 0
2, 10997, Note_on_c, 0, 46, 39
2, 11011, Note_on_c, 0, 52, 0
2, 11014, Note_on_c, 0, 55, 0
2, 11021, Note_on_c, 0, 57, 0
2, 11023, Note_on_c, 0, 46, 0
2, 11034, Note_on_c, 0, 60, 0
2, 11047, Note_on_c, 0, 39, 37
2, 11076, Note_on_c, 0, 39, 0
2, 11130, Note_on_c, 0, 38, 64
2, 11139, Note_on_c, 0, 38, 0
2, 11168, Note_on_c, 0, 77, 59
2, 11172, Note_on_c, 0, 72, 71
2, 11174, Note_on_c, 0, 66, 61
2, 11245, Note_on_c, 0, 60, 58
2, 11246, Note_on_c, 0, 54, 59
2, 11269, Note_on_c, 0, 72, 0
2, 11271, Note_on_c, 0, 77, 0
2, 11275, Control_c, 0, 64, 127
2, 11281, Note_on_c, 0, 66, 0
2, 11292, Note_on_c, 0, 60, 0
2, 11312, Note_on_c, 0, 54, 0
2, 11351, Note_on_c, 0, 74, 53
2, 11353, Note_on_c, 0, 54, 74
2, 11354, Note_on_c, 0, 68, 69
2, 11354, Note_on_c, 0, 44, 67
2, 11359, Control_c, 0, 64, 0
2, 11361, Note_on_c, 0, 62, 35
2, 11368, Note_on_c, 0, 74, 0
2, 11371, Note_on_c, 0, 62, 0
2, 11373, Note_on_c, 0, 68, 0
2, 11418, Control_c, 0, 64, 127
2, 11474, Note_on_c, 0, 54, 0
2, 11479, Note_on_c, 0, 50, 50
2, 11499, Note_on_c, 0, 44, 0
2, 11507, Note_on_c, 0, 50, 0
2, 11508, Control_c, 0, 64, 0
2, 11513, Note_on_c, 0, 62, 62
2, 11514, Note_on_c, 0, 69, 66
2, 11515, Note_on_c, 0, 58, 50
2, 11522, Note_on_c, 0, 65, 48
2, 11603, Note_on_c, 0, 55, 71
2, 11657, Control_c, 0, 64, 127
2, 11720, Note_on_c, 0, 65, 0
2, 11727, Note_on_c, 0, 55, 0
2, 11729, Note_on_c, 0, 51, 37
2, 11731, Note_on_c, 0, 62, 0
2, 11732, Note_on_c, 0, 58, 0
2, 11749, Control_c, 0, 64, 0
2, 11750, Note_on_c, 0, 69, 0
2, 11762, Note_on_c, 0, 51, 0
2, 11762, Note_on_c, 0, 53, 50
2, 11848, Note_on_c, 0, 62, 49
2, 11848, Note_on_c, 0, 58, 39
2, 11850, Note_on_c, 0, 65, 53
2, 11890, Control_c, 0, 64, 127
2, 11946, Note_on_c, 0, 65, 0
2, 11957, Note_on_c, 0, 58, 0
2, 11963, Note_on_c, 0, 62, 0
2, 11963, Note_on_c, 0, 53, 0
2, 11970, Note_on_c, 0, 51, 44
2, 11994, Control_c, 0, 64, 0
2, 11998, Note_on_c, 0, 62, 30
2, 12000, Note_on_c, 0, 51, 0
2, 12000, Note_on_c, 0, 58, 35
2, 12001, Note_on_c, 0, 64, 46
2, 12003, Note_on_c, 0, 67, 35
2, 12010, Note_on_c, 0, 52, 36
2, 12077, Note_on_c, 0, 52, 0
2, 12092, Note_on_c, 0, 46, 65
2, 12095, Note_on_c, 0, 58, 0
2, 12107, Note_on_c, 0, 62, 0
2, 12113, Note_on_c, 0, 64, 0
2, 12118, Note_on_c, 0, 67, 0
2, 12153, Control_c, 0, 64, 127
2, 12194, Control_c, 0, 64, 0
2, 12204, Note_on_c, 0, 70, 73
2, 12205, Note_on_c, 0, 61, 71
2, 12206, Note_on_c, 0, 66, 63
2, 12211, Note_on_c, 0, 45, 48
2, 12213, Note_on_c, 0, 46, 0
2, 12218, Note_on_c, 0, 61, 0
2, 12225, Note_on_c, 0, 66, 0
2, 12227, Note_on_c, 0, 70, 0
2, 12277, Control_c, 0, 64, 127
2, 12319, Note_on_c, 0, 69, 67
2, 12323, Note_on_c, 0, 58, 62
2, 12324, Note_on_c, 0, 61, 56
2, 12325, Note_on_c, 0, 57, 36
2, 12325, Note_on_c, 0, 64, 60
2, 12330, Control_c, 0, 64, 0
2, 12335, Note_on_c, 0, 57, 0
2, 12344, Note_on_c, 0, 45, 0
2, 12357, Note_on_c, 0, 51, 28
2, 12421, Control_c, 0, 64, 127
2, 12430, Note_on_c, 0, 69, 0
2, 12436, Note_on_c, 0, 58, 0
2, 12437, Note_on_c, 0, 64, 0
2, 12442, Note_on_c, 0, 61, 0
2, 12453, Note_on_c, 0, 49, 38
2, 12474, Control_c, 0, 64, 0
2, 12475, Note_on_c, 0, 51, 0
2, 12481, Note_on_c, 0, 62, 53
2, 12482, Note_on_c, 0, 57, 52
2, 12484, Note_on_c, 0, 67, 38
2, 12487, Note_on_c, 0, 50, 36
2, 12494, Note_on_c, 0, 49, 0
2, 12598, Control_c, 0, 64, 127
2, 12655, Note_on_c, 0, 57, 0
2, 12661, Note_on_c, 0, 62, 0
2, 12667, Note_on_c, 0, 50, 0
2, 12682, Note_on_c, 0, 46, 33
2, 12685, Note_on_c, 0, 67, 0
2, 12693, Control_c, 0, 64, 0
2, 12711, Note_on_c, 0, 46, 0
2, 12711, Note_on_c, 0, 57, 41
2, 12711, Note_on_c, 0, 62, 40
2, 12716, Note_on_c, 0, 65, 43
2, 12719, Note_on_c, 0, 48, 47
2, 12746, Control_c, 0, 64, 127
2, 12789, Control_c, 0, 64, 0
2, 12803, Note_on_c, 0, 57, 0
2, 12820, Control_c, 0, 64, 127
2, 12835, Note_on_c, 0, 62, 0
2, 12839, Note_on_c, 0, 65, 0
2, 12849, Note_on_c, 0, 48, 0
2, 12903, Control_c, 0, 64, 0
2, 12910, Note_on_c, 0, 35, 53
2, 12914, Note_on_c, 0, 47, 40
2, 12925, Note_on_c, 0, 35, 0
2, 12940, Control_c, 0, 64, 127
2, 12941, Note_on_c, 0, 47, 0
2, 13030, Note_on_c, 0, 76, 61
2, 13031, Note_on_c, 0, 57, 66
2, 13034, Note_on_c, 0, 73, 58
2, 13035, Note_on_c, 0, 69, 66
2, 13036, Note_on_c, 0, 63, 56
2, 13044, Control_c, 0, 64, 0
2, 13069, Control_c, 0, 64, 127
2, 13116, Note_on_c, 0, 69, 0
2, 13122, Note_on_c, 0, 76, 0
2, 13128, Note_on_c, 0, 73, 0
2, 13143, Note_on_c, 0, 57, 0
2, 13187, Note_on_c, 0, 63, 0
2, 13199, Control_c, 0, 64, 0
2, 13201, Note_on_c, 0, 79, 66
2, 13202, Note_on_c, 0, 76, 46
2, 13202, Note_on_c, 0, 62, 66
2, 13202, Note_on_c, 0, 72, 61
2, 13203, Note_on_c, 0, 56, 60
2, 13206, Note_on_c, 0, 67, 50
2, 13297, Control_c, 0, 64, 127
2, 13301, Note_on_c, 0, 62, 0
2, 13318, Note_on_c, 0, 79, 0
2, 13321, Note_on_c, 0, 76, 0
2, 13324, Note_on_c, 0, 67, 0
2, 13332, Note_on_c, 0, 72, 0
2, 13339, Note_on_c, 0, 56, 0
2, 13393, Note_on_c, 0, 55, 50
2, 13393, Note_on_c, 0, 71, 57
2, 13395, Note_on_c, 0, 64, 48
2, 13397, Note_on_c, 0, 67, 43
2, 13398, Control_c, 0, 64, 0
2, 13401, Note_on_c, 0, 60, 37
2, 13471, Control_c, 0, 64, 127
2, 13539, Note_on_c, 0, 67, 0
2, 13548, Note_on_c, 0, 71, 0
2, 13569, Note_on_c, 0, 64, 0
2, 13574, Note_on_c, 0, 60, 0
2, 13582, Note_on_c, 0, 55, 0
2, 13673, Control_c, 0, 64, 0
2, 13681, Note_on_c, 0, 70, 53
2, 13682, Note_on_c, 0, 74, 36
2, 13683, Note_on_c, 0, 60, 54
2, 13683, Note_on_c, 0, 77, 53
2, 13684, Note_on_c, 0, 65, 60
2, 13687, Note_on_c, 0, 54, 49
2, 13730, Control_c, 0, 64, 127
2, 13786, Note_on_c, 0, 65, 0
2, 13796, Note_on_c, 0, 60, 0
2, 13801, Note_on_c, 0, 70, 0
2, 13804, Note_on_c, 0, 74, 0
2, 13814, Note_on_c, 0, 77, 0
2, 13835, Note_on_c, 0, 54, 0
2, 13913, Control_c, 0, 64, 0
2, 13919, Note_on_c, 0, 82, 56
2, 13921, Note_on_c, 0, 59, 42
2, 13922, Note_on_c, 0, 64, 49
2, 13925, Note_on_c, 0, 75, 53
2, 13926, Note_on_c, 0, 53, 45
2, 13926, Note_on_c, 0, 70, 36
2, 13928, Note_on_c, 0, 79, 34
2, 13958, Control_c, 0, 64, 127
2, 13999, Note_on_c, 0, 79, 0
2, 14010, Note_on_c, 0, 64, 0
2, 14017, Note_on_c, 0, 70, 0
2, 14018, Note_on_c, 0, 59, 0
2, 14025, Note_on_c, 0, 53, 0
2, 14029, Note_on_c, 0, 82, 0
2, 14033, Note_on_c, 0, 75, 0
2, 14109, Control_c, 0, 64, 0
2, 14114, Note_on_c, 0, 81, 55
2, 14116, Note_on_c, 0, 76, 37
2, 14117, Note_on_c, 0, 63, 47
2, 14117, Note_on_c, 0, 73, 48
2, 14119, Note_on_c, 0, 69, 37
2, 14122, Note_on_c, 0, 52, 41
2, 14122, Note_on_c, 0, 58, 44
2, 14154, Control_c, 0, 64, 127
2, 14169, Note_on_c, 0, 81, 0
2, 14174, Note_on_c, 0, 76, 0
2, 14176, Note_on_c, 0, 63, 0
2, 14181, Note_on_c, 0, 58, 0
2, 14182, Note_on_c, 0, 73, 0
2, 14183, Note_on_c, 0, 69, 0
2, 14184, Note_on_c, 0, 52, 0
2, 14276, Note_on_c, 0, 77, 57
2, 14277, Note_on_c, 0, 69, 63
2, 14280, Note_on_c, 0, 72, 54
2, 14281, Note_on_c, 0, 48, 72
2, 14281, Note_on_c, 0, 47, 70
2, 14283, Note_on_c, 0, 74, 35
2, 14284, Control_c, 0, 64, 0
2, 14289, Note_on_c, 0, 72, 0
2, 14291, Note_on_c, 0, 47, 0
2, 14296, Note_on_c, 0, 69, 0
2, 14296, Note_on_c, 0, 74, 0
2, 14300, Note_on_c, 0, 77, 0
2, 14477, Note_on_c, 0, 47, 36
2, 14490, Note_on_c, 0, 47, 0
2, 14518, Note_on_c, 0, 62, 34
2, 14521, Note_on_c, 0, 65, 31
2, 14521, Note_on_c, 0, 60, 32
2, 14535, Note_on_c, 0, 65, 0
2, 14544, Note_on_c, 0, 60, 0
2, 14550, Note_on_c, 0, 62, 0
2, 14602, Note_on_c, 0, 47, 35
2, 14614, Note_on_c, 0, 47, 0
2, 14632, Note_on_c, 0, 60, 42
2, 14633, Note_on_c, 0, 57, 33
2, 14633, Note_on_c, 0, 65, 33
2, 14635, Note_on_c, 0, 62, 35
2, 14661, Note_on_c, 0, 60, 0
2, 14663, Note_on_c, 0, 65, 0
2, 14664, Note_on_c, 0, 57, 0
2, 14666, Note_on_c, 0, 62, 0
2, 14827, Note_on_c, 0, 57, 51
2, 14829, Note_on_c, 0, 65, 44
2, 14829, Note_on_c, 0, 60, 55
2, 14832, Note_on_c, 0, 62, 36
2, 14840, Note_on_c, 0, 60, 0
2, 14842, Note_on_c, 0, 65, 0
2, 14844, Note_on_c, 0, 57, 0
2, 14845, Note_on_c, 0, 62, 0
2, 14894, Note_on_c, 0, 48, 0
2, 14946, Note_on_c, 0, 65, 47
2, 14946, Note_on_c, 0, 57, 44
2, 14947, Note_on_c, 0, 62, 46
2, 14948, Note_on_c, 0, 60, 51
2, 14952, Note_on_c, 0, 48, 45
2, 14994, Note_on_c, 0, 48, 0
2, 15070, Note_on_c, 0, 39, 57
2, 15091, Note_on_c, 0, 39, 0
2, 15121, Note_on_c, 0, 43, 53
2, 15186, Note_on_c, 0, 43, 0
2, 15204, Note_on_c, 0, 40, 50
2, 15219, Note_on_c, 0, 40, 0
2, 15318, Note_on_c, 0, 62, 0
2, 15318, Note_on_c, 0, 65, 0
2, 15320, Note_on_c, 0, 60, 0
2, 15322, Note_on_c, 0, 57, 0
2, 15326, Note_on_c, 0, 40, 55
2, 15354, Note_on_c, 0, 40, 0
2, 15369, Note_on_c, 0, 41, 47
2, 15434, Note_on_c, 0, 41, 0
2, 15440, Note_on_c, 0, 34, 52
2, 15463, Note_on_c, 0, 34, 0
2, 15482, Note_on_c, 0, 55, 35
2, 15485, Note_on_c, 0, 64, 34
2, 15485, Note_on_c, 0, 60, 47
2, 15485, Note_on_c, 0, 57, 49
2, 15494, Note_on_c, 0, 36, 56
2, 15588, Note_on_c, 0, 36, 0
2, 15607, Note_on_c, 0, 38, 31
2, 15639, Note_on_c, 0, 38, 0
2, 15654, Control_c, 0, 64, 127
2, 15695, Note_on_c, 0, 45, 41
2, 15707, Note_on_c, 0, 45, 0
2, 15722, Control_c, 0, 64, 0
2, 15727, Note_on_c, 0, 50, 53
2, 15809, Note_on_c, 0, 50, 0
2, 15841, Note_on_c, 0, 55, 0
2, 15845, Note_on_c, 0, 48, 39
2, 15873, Control_c, 0, 64, 127
2, 15892, Note_on_c, 0, 57, 0
2, 15902, Note_on_c, 0, 60, 0
2, 15921, Note_on_c, 0, 64, 0
2, 15948, Note_on_c, 0, 48, 0
2, 15948, Control_c, 0, 64, 0
2, 15953, Note_on_c, 0, 46, 36
2, 16046, Note_on_c, 0, 44, 37
2, 16058, Note_on_c, 0, 46, 0
2, 16067, Note_on_c, 0, 44, 0
2, 16080, Note_on_c, 0, 45, 38
2, 16134, Control_c, 0, 64, 127
2, 16145, Note_on_c, 0, 45, 0
2, 16157, Note_on_c, 0, 64, 75
2, 16187, Control_c, 0, 64, 0
2, 16189, Note_on_c, 0, 64, 0
2, 16191, Note_on_c, 0, 43, 31
2, 16265, Note_on_c, 0, 43, 0
2, 16276, Note_on_c, 0, 39, 47
2, 16308, Note_on_c, 0, 39, 0
2, 16313, Note_on_c, 0, 63, 51
2, 16319, Note_on_c, 0, 60, 48
2, 16320, Note_on_c, 0, 56, 43
2, 16320, Note_on_c, 0, 55, 32
2, 16323, Note_on_c, 0, 41, 41
2, 16399, Note_on_c, 0, 29, 48
2, 16403, Note_on_c, 0, 55, 0
2, 16410, Control_c, 0, 64, 127
2, 16419, Note_on_c, 0, 29, 0
2, 16420, Note_on_c, 0, 60, 0
2, 16422, Note_on_c, 0, 56, 0
2, 16430, Note_on_c, 0, 41, 0
2, 16433, Note_on_c, 0, 63, 0
2, 16517, Note_on_c, 0, 67, 62
2, 16518, Note_on_c, 0, 56, 59
2, 16518, Note_on_c, 0, 63, 54
2, 16521, Note_on_c, 0, 60, 67
2, 16532, Note_on_c, 0, 55, 60
2, 16538, Control_c, 0, 64, 0
2, 16634, Note_on_c, 0, 55, 0
2, 16637, Note_on_c, 0, 51, 40
2, 16662, Note_on_c, 0, 51, 0
2, 16680, Note_on_c, 0, 53, 48
2, 16735, Control_c, 0, 64, 127
2, 16763, Control_c, 0, 64, 0
2, 16764, Note_on_c, 0, 48, 55
2, 16773, Note_on_c, 0, 48, 0
2, 16783, Note_on_c, 0, 53, 0
2, 16807, Note_on_c, 0, 41, 52
2, 16827, Control_c, 0, 64, 127
2, 16867, Note_on_c, 0, 41, 0
2, 16883, Note_on_c, 0, 48, 53
2, 16887, Control_c, 0, 64, 0
2, 16906, Note_on_c, 0, 48, 0
2, 16918, Note_on_c, 0, 55, 68
2, 16948, Control_c, 0, 64, 127
2, 16996, Note_on_c, 0, 55, 0
2, 16996, Note_on_c, 0, 56, 0
2, 17011, Note_on_c, 0, 60, 0
2, 17016, Note_on_c, 0, 48, 36
2, 17018, Control_c, 0, 64, 0
2, 17029, Note_on_c, 0, 48, 0
2, 17040, Note_on_c, 0, 56, 67
2, 17047, Note_on_c, 0, 48, 22
2, 17069, Control_c, 0, 64, 127
2, 17085, Note_on_c, 0, 48, 0
2, 17091, Note_on_c, 0, 63, 0
2, 17108, Note_on_c, 0, 56, 0
2, 17127, Note_on_c, 0, 55, 66
2, 17150, Control_c, 0, 64, 0
2, 17168, Note_on_c, 0, 48, 60
2, 17171, Note_on_c, 0, 55, 0
2, 17201, Control_c, 0, 64, 127
2, 17244, Note_on_c, 0, 41, 83
2, 17252, Control_c, 0, 64, 0
2, 17294, Control_c, 0, 64, 127
2, 17325, Note_on_c, 0, 67, 0
2, 17328, Note_on_c, 0, 41, 0
2, 17358, Note_on_c, 0, 48, 0
2, 17359, Note_on_c, 0, 67, 53
2, 17362, Note_on_c, 0, 59, 65
2, 17366, Note_on_c, 0, 62, 52
2, 17366, Note_on_c, 0, 55, 62
2, 17366, Note_on_c, 0, 41, 66
2, 17366, Control_c, 0, 64, 0
2, 17403, Control_c, 0, 64, 127
2, 17414, Note_on_c, 0, 55, 0
2, 17464, Note_on_c, 0, 62, 0
2, 17466, Note_on_c, 0, 59, 0
2, 17482, Note_on_c, 0, 50, 58
2, 17496, Control_c, 0, 64, 0
2, 17499, Note_on_c, 0, 67, 0
2, 17504, Note_on_c, 0, 41, 0
2, 17513, Control_c, 0, 64, 127
2, 17568, Note_on_c, 0, 55, 74
2, 17571, Note_on_c, 0, 74, 60
2, 17577, Note_on_c, 0, 62, 67
2, 17623, Note_on_c, 0, 50, 0
2, 17628, Note_on_c, 0, 62, 0
2, 17642, Control_c, 0, 64, 0
2, 17650, Note_on_c, 0, 67, 50
2, 17650, Note_on_c, 0, 62, 53
2, 17655, Note_on_c, 0, 50, 55
2, 17656, Control_c, 0, 64, 127
2, 17657, Note_on_c, 0, 55, 0
2, 17661, Note_on_c, 0, 74, 0
2, 17728, Note_on_c, 0, 50, 0
2, 17731, Control_c, 0, 64, 0
2, 17737, Note_on_c, 0, 41, 66
2, 17738, Note_on_c, 0, 62, 0
2, 17744, Note_on_c, 0, 67, 0
2, 17773, Control_c, 0, 64, 127
2, 17799, Note_on_c, 0, 41, 0
2, 17830, Note_on_c, 0, 41, 57
2, 17878, Note_on_c, 0, 41, 0
2, 17897, Note_on_c, 0, 70, 64
2, 17898, Note_on_c, 0, 49, 69
2, 17898, Note_on_c, 0, 66, 62
2, 17899, Note_on_c, 0, 61, 57
2, 17962, Control_c, 0, 64, 0
2, 17980, Note_on_c, 0, 54, 74
2, 17989, Note_on_c, 0, 49, 0
2, 17990, Control_c, 0, 64, 127
2, 18006, Note_on_c, 0, 54, 0
2, 18025, Note_on_c, 0, 61, 0
2, 18038, Note_on_c, 0, 66, 0
2, 18040, Note_on_c, 0, 70, 0
2, 18062, Note_on_c, 0, 73, 67
2, 18064, Note_on_c, 0, 61, 55
2, 18064, Note_on_c, 0, 66, 50
2, 18067, Note_on_c, 0, 70, 37
2, 18104, Note_on_c, 0, 70, 0
2, 18116, Note_on_c, 0, 61, 0
2, 18117, Note_on_c, 0, 66, 0
2, 18138, Note_on_c, 0, 58, 45
2, 18143, Note_on_c, 0, 73, 0
2, 18191, Note_on_c, 0, 58, 0
2, 18206, Control_c, 0, 64, 0
2, 18208, Note_on_c, 0, 62, 62
2, 18208, Note_on_c, 0, 67, 53
2, 18208, Note_on_c, 0, 72, 58
2, 18209, Note_on_c, 0, 57, 66
2, 18257, Control_c, 0, 64, 127
2, 18305, Note_on_c, 0, 62, 0
2, 18310, Note_on_c, 0, 72, 0
2, 18315, Note_on_c, 0, 67, 0
2, 18352, Control_c, 0, 64, 0
2, 18357, Note_on_c, 0, 57, 0
2, 18364, Note_on_c, 0, 56, 42
2, 18365, Note_on_c, 0, 61, 42
2, 18367, Note_on_c, 0, 71, 33
2, 18367, Note_on_c, 0, 66, 43
2, 18397, Control_c, 0, 64, 127
2, 18417, Note_on_c, 0, 71, 0
2, 18419, Note_on_c, 0, 66, 0
2, 18424, Note_on_c, 0, 61, 0
2, 18431, Control_c, 0, 64, 0
2, 18442, Note_on_c, 0, 72, 66
2, 18446, Note_on_c, 0, 67, 55
2, 18447, Note_on_c, 0, 56, 0
2, 18447, Note_on_c, 0, 62, 64
2, 18448, Note_on_c, 0, 57, 59
2, 18455, Note_on_c, 0, 71, 27
2, 18473, Control_c, 0, 64, 127
2, 18484, Note_on_c, 0, 57, 0
2, 18485, Note_on_c, 0, 72, 0
2, 18486, Note_on_c, 0, 67, 0
2, 18490, Note_on_c, 0, 71, 0
2, 18510, Note_on_c, 0, 62, 0
2, 18579, Control_c, 0, 64, 0
2, 18596, Note_on_c, 0, 51, 47
2, 18639, Control_c, 0, 64, 127
2, 18659, Control_c, 0, 64, 0
2, 18678, Note_on_c, 0, 67, 60
2, 18679, Note_on_c, 0, 57, 61
2, 18682, Note_on_c, 0, 62, 53
2, 18683, Note_on_c, 0, 51, 0
2, 18684, Note_on_c, 0, 52, 51
2, 18723, Control_c, 0, 64, 127
2, 18743, Note_on_c, 0, 62, 0
2, 18756, Note_on_c, 0, 52, 0
2, 18760, Note_on_c, 0, 67, 0
2, 18788, Note_on_c, 0, 57, 0
2, 18795, Note_on_c, 0, 38, 61
2, 18819, Control_c, 0, 64, 0
2, 18827, Note_on_c, 0, 38, 0
2, 18837, Note_on_c, 0, 65, 64
2, 18838, Note_on_c, 0, 60, 63
2, 18841, Note_on_c, 0, 54, 55
2, 18846, Note_on_c, 0, 50, 45
2, 18904, Note_on_c, 0, 50, 0
2, 18924, Note_on_c, 0, 45, 71
2, 19003, Control_c, 0, 64, 127
2, 19039, Note_on_c, 0, 45, 0
2, 19050, Note_on_c, 0, 41, 45
2, 19052, Control_c, 0, 64, 0
2, 19075, Note_on_c, 0, 41, 0
2, 19091, Note_on_c, 0, 42, 67
2, 19107, Note_on_c, 0, 60, 0
2, 19118, Note_on_c, 0, 54, 0
2, 19133, Control_c, 0, 64, 127
2, 19169, Note_on_c, 0, 65, 0
2, 19185, Note_on_c, 0, 39, 20
2, 19191, Control_c, 0, 64, 0
2, 19200, Note_on_c, 0, 39, 0
2, 19202, Note_on_c, 0, 42, 0
2, 19205, Note_on_c, 0, 62, 34
2, 19207, Note_on_c, 0, 58, 33
2, 19209, Note_on_c, 0, 43, 36
2, 19209, Note_on_c, 0, 53, 26
2, 19285, Note_on_c, 0, 43, 0
2, 19287, Note_on_c, 0, 42, 47
2, 19308, Note_on_c, 0, 53, 0
2, 19316, Note_on_c, 0, 62, 0
2, 19324, Note_on_c, 0, 42, 0
2, 19326, Note_on_c, 0, 58, 0
2, 19334, Note_on_c, 0, 45, 26
2, 19439, Note_on_c, 0, 45, 0
2, 19442, Note_on_c, 0, 46, 36
2, 19519, Note_on_c, 0, 58, 69
2, 19519, Note_on_c, 0, 69, 64
2, 19520, Note_on_c, 0, 62, 70
2, 19528, Note_on_c, 0, 58, 0
2, 19529, Note_on_c, 0, 69, 0
2, 19530, Note_on_c, 0, 62, 0
2, 19531, Note_on_c, 0, 65, 37
2, 19533, Note_on_c, 0, 46, 0
2, 19541, Note_on_c, 0, 65, 0
2, 19546, Note_on_c, 0, 47, 36
2, 19645, Note_on_c, 0, 46, 30
2, 19667, Note_on_c, 0, 47, 0
2, 19671, Note_on_c, 0, 46, 0
2, 19676, Note_on_c, 0, 69, 62
2, 19682, Note_on_c, 0, 58, 37
2, 19682, Note_on_c, 0, 48, 45
2, 19682, Note_on_c, 0, 64, 53
2, 19683, Note_on_c, 0, 61, 46
2, 19765, Note_on_c, 0, 36, 68
2, 19768, Note_on_c, 0, 58, 0
2, 19785, Note_on_c, 0, 61, 0
2, 19789, Note_on_c, 0, 64, 0
2, 19796, Note_on_c, 0, 69, 0
2, 19798, Control_c, 0, 64, 127
2, 19834, Note_on_c, 0, 36, 0
2, 19854, Note_on_c, 0, 48, 0
2, 19920, Note_on_c, 0, 75, 67
2, 19920, Note_on_c, 0, 68, 70
2, 19922, Control_c, 0, 64, 0
2, 19923, Note_on_c, 0, 72, 58
2, 19924, Note_on_c, 0, 64, 67
2, 19925, Note_on_c, 0, 60, 71
2, 20001, Note_on_c, 0, 64, 0
2, 20002, Note_on_c, 0, 75, 0
2, 20003, Note_on_c, 0, 72, 0
2, 20009, Note_on_c, 0, 68, 0
2, 20019, Note_on_c, 0, 60, 0
2, 20036, Note_on_c, 0, 68, 50
2, 20036, Note_on_c, 0, 73, 56
2, 20038, Note_on_c, 0, 58, 50
2, 20043, Note_on_c, 0, 64, 48
2, 20046, Control_c, 0, 64, 127
2, 20096, Note_on_c, 0, 64, 0
2, 20100, Note_on_c, 0, 73, 0
2, 20107, Note_on_c, 0, 68, 0
2, 20126, Note_on_c, 0, 72, 57
2, 20127, Control_c, 0, 64, 0
2, 20128, Note_on_c, 0, 67, 53
2, 20130, Note_on_c, 0, 58, 0
2, 20133, Note_on_c, 0, 62, 60
2, 20138, Note_on_c, 0, 57, 45
2, 20180, Control_c, 0, 64, 127
2, 20188, Note_on_c, 0, 67, 0
2, 20193, Note_on_c, 0, 62, 0
2, 20209, Note_on_c, 0, 72, 0
2, 20242, Control_c, 0, 64, 0
2, 20263, Note_on_c, 0, 57, 0
2, 20271, Note_on_c, 0, 66, 52
2, 20273, Note_on_c, 0, 56, 47
2, 20274, Note_on_c, 0, 61, 49
2, 20279, Note_on_c, 0, 71, 30
2, 20301, Control_c, 0, 64, 127
2, 20318, Note_on_c, 0, 66, 0
2, 20319, Note_on_c, 0, 71, 0
2, 20330, Note_on_c, 0, 61, 0
2, 20346, Control_c, 0, 64, 0
2, 20356, Note_on_c, 0, 72, 64
2, 20359, Note_on_c, 0, 62, 65
2, 20359, Note_on_c, 0, 67, 57
2, 20368, Note_on_c, 0, 56, 0
2, 20368, Note_on_c, 0, 57, 52
2, 20370, Note_on_c, 0, 67, 0
2, 20376, Note_on_c, 0, 72, 0
2, 20380, Note_on_c, 0, 62, 0
2, 20380, Note_on_c, 0, 57, 0
2, 20400, Control_c, 0, 64, 127
2, 20466, Note_on_c, 0, 67, 44
2, 20466, Note_on_c, 0, 57, 61
2, 20469, Note_on_c, 0, 60, 58
2, 20474, Note_on_c, 0, 52, 38
2, 20481, Note_on_c, 0, 60, 0
2, 20482, Note_on_c, 0, 57, 0
2, 20493, Note_on_c, 0, 52, 0
2, 20496, Note_on_c, 0, 67, 0
2, 20497, Control_c, 0, 64, 0
2, 20505, Note_on_c, 0, 51, 45
2, 20584, Note_on_c, 0, 67, 54
2, 20587, Note_on_c, 0, 57, 62
2, 20588, Note_on_c, 0, 60, 68
2, 20593, Note_on_c, 0, 51, 0
2, 20596, Note_on_c, 0, 52, 41
2, 20615, Note_on_c, 0, 67, 0
2, 20617, Note_on_c, 0, 60, 0
2, 20623, Note_on_c, 0, 57, 0
2, 20624, Note_on_c, 0, 52, 0
2, 20641, Control_c, 0, 64, 127
2, 20703, Note_on_c, 0, 60, 48
2, 20705, Note_on_c, 0, 52, 46
2, 20706, Note_on_c, 0, 55, 58
2, 20711, Note_on_c, 0, 57, 38
2, 20713, Note_on_c, 0, 60, 0
2, 20713, Note_on_c, 0, 48, 42
2, 20716, Note_on_c, 0, 52, 0
2, 20722, Note_on_c, 0, 55, 0
2, 20724, Note_on_c, 0, 57, 0
2, 20727, Note_on_c, 0, 48, 0
2, 20733, Control_c, 0, 64, 0
2, 20759, Note_on_c, 0, 47, 35
2, 20783, Control_c, 0, 64, 127
2, 20811, Control_c, 0, 64, 0
2, 20823, Note_on_c, 0, 60, 57
2, 20823, Note_on_c, 0, 52, 50
2, 20824, Note_on_c, 0, 55, 59
2, 20829, Note_on_c, 0, 47, 0
2, 20829, Note_on_c, 0, 57, 42
2, 20831, Note_on_c, 0, 48, 46
2, 20838, Note_on_c, 0, 52, 0
2, 20852, Note_on_c, 0, 55, 0
2, 20856, Note_on_c, 0, 57, 0
2, 20860, Note_on_c, 0, 60, 0
2, 20863, Note_on_c, 0, 48, 0
2, 20863, Control_c, 0, 64, 127
2, 20937, Note_on_c, 0, 46, 70
2, 20946, Control_c, 0, 64, 0
2, 20978, Note_on_c, 0, 46, 0
2, 20986, Control_c, 0, 64, 127
2, 21063, Note_on_c, 0, 84, 74
2, 21063, Note_on_c, 0, 80, 59
2, 21064, Note_on_c, 0, 77, 67
2, 21064, Note_on_c, 0, 72, 69
2, 21087, Control_c, 0, 64, 0
2, 21092, Note_on_c, 0, 65, 50
2, 21095, Note_on_c, 0, 60, 34
2, 21097, Note_on_c, 0, 61, 30
2, 21103, Note_on_c, 0, 56, 25
2, 21108, Note_on_c, 0, 65, 0
2, 21119, Note_on_c, 0, 60, 0
2, 21132, Control_c, 0, 64, 127
2, 21133, Note_on_c, 0, 61, 0
2, 21134, Note_on_c, 0, 56, 0
2, 21160, Note_on_c, 0, 84, 0
2, 21181, Note_on_c, 0, 77, 0
2, 21184, Note_on_c, 0, 72, 0
2, 21187, Note_on_c, 0, 80, 0
2, 21227, Note_on_c, 0, 46, 54
2, 21228, Control_c, 0, 64, 0
2, 21231, Note_on_c, 0, 82, 56
2, 21234, Note_on_c, 0, 75, 56
2, 21234, Note_on_c, 0, 70, 44
2, 21235, Note_on_c, 0, 79, 50
2, 21237, Note_on_c, 0, 46, 0
2, 21273, Control_c, 0, 64, 127
2, 21331, Control_c, 0, 64, 0
2, 21356, Note_on_c, 0, 28, 47
2, 21383, Note_on_c, 0, 28, 0
2, 21419, Control_c, 0, 64, 127
2, 21427, Control_c, 0, 64, 0
2, 21473, Note_on_c, 0, 28, 72
2, 21491, Control_c, 0, 64, 127
2, 21532, Note_on_c, 0, 28, 0
2, 21573, Note_on_c, 0, 79, 0
2, 21576, Control_c, 0, 64, 0
2, 21578, Note_on_c, 0, 70, 0
2, 21581, Note_on_c, 0, 82, 0
2, 21583, Note_on_c, 0, 75, 0
2, 21600, Note_on_c, 0, 27, 67
2, 21604, Note_on_c, 0, 39, 65
2, 21618, Control_c, 0, 64, 127
2, 21627, Note_on_c, 0, 27, 0
2, 21628, Note_on_c, 0, 39, 0
2, 21800, Note_on_c, 0, 76, 80
2, 21803, Note_on_c, 0, 71, 80
2, 21804, Note_on_c, 0, 73, 64
2, 21805, Note_on_c, 0, 67, 71
2, 21806, Control_c, 0, 64, 0
2, 21806, Note_on_c, 0, 61, 74
2, 21807, Note_on_c, 0, 64, 73
2, 21843, Control_c, 0, 64, 127
2, 21886, Note_on_c, 0, 64, 0
2, 21892, Note_on_c, 0, 67, 0
2, 21894, Note_on_c, 0, 76, 0
2, 21896, Note_on_c, 0, 71, 0
2, 21900, Note_on_c, 0, 73, 0
2, 21911, Note_on_c, 0, 55, 68
2, 21922, Note_on_c, 0, 61, 0
2, 21939, Note_on_c, 0, 55, 0
2, 22027, Note_on_c, 0, 51, 54
2, 22051, Note_on_c, 0, 51, 0
2, 22077, Note_on_c, 0, 70, 78
2, 22080, Note_on_c, 0, 63, 77
2, 22080, Note_on_c, 0, 67, 72
2, 22082, Note_on_c, 0, 60, 80
2, 22084, Control_c, 0, 64, 0
2, 22085, Note_on_c, 0, 55, 87
2, 22171, Note_on_c, 0, 67, 0
2, 22172, Note_on_c, 0, 60, 0
2, 22173, Note_on_c, 0, 70, 0
2, 22178, Note_on_c, 0, 55, 0
2, 22181, Note_on_c, 0, 63, 0
2, 22187, Note_on_c, 0, 51, 35
2, 22199, Note_on_c, 0, 51, 0
2, 22200, Note_on_c, 0, 63, 54
2, 22201, Note_on_c, 0, 68, 65
2, 22205, Note_on_c, 0, 60, 51
2, 22208, Note_on_c, 0, 53, 55
2, 22228, Control_c, 0, 64, 127
2, 22247, Note_on_c, 0, 60, 0
2, 22267, Note_on_c, 0, 63, 0
2, 22272, Note_on_c, 0, 68, 0
2, 22272, Control_c, 0, 64, 0
2, 22278, Note_on_c, 0, 53, 0
2, 22283, Note_on_c, 0, 63, 31
2, 22287, Note_on_c, 0, 67, 37
2, 22290, Note_on_c, 0, 60, 47
2, 22294, Note_on_c, 0, 51, 43
2, 22339, Control_c, 0, 64, 127
2, 22346, Note_on_c, 0, 60, 0
2, 22353, Note_on_c, 0, 63, 0
2, 22371, Note_on_c, 0, 67, 0
2, 22393, Control_c, 0, 64, 0
2, 22401, Note_on_c, 0, 68, 64
2, 22402, Note_on_c, 0, 63, 70
2, 22407, Note_on_c, 0, 53, 49
2, 22408, Note_on_c, 0, 60, 62
2, 22432, Note_on_c, 0, 51, 0
2, 22441, Control_c, 0, 64, 127
2, 22467, Note_on_c, 0, 68, 0
2, 22474, Note_on_c, 0, 63, 0
2, 22487, Note_on_c, 0, 60, 0
2, 22519, Note_on_c, 0, 53, 0
2, 22558, Note_on_c, 0, 67, 57
2, 22561, Control_c, 0, 64, 0
2, 22562, Note_on_c, 0, 58, 60
2, 22562, Note_on_c, 0, 65, 60
2, 22564, Note_on_c, 0, 62, 62
2, 22649, Note_on_c, 0, 55, 59
2, 22670, Note_on_c, 0, 55, 0
2, 22701, Control_c, 0, 64, 127
2, 22714, Note_on_c, 0, 62, 0
2, 22742, Note_on_c, 0, 58, 0
2, 22748, Note_on_c, 0, 67, 0
2, 22751, Note_on_c, 0, 65, 0
2, 22763, Note_on_c, 0, 58, 48
2, 22766, Control_c, 0, 64, 0
2, 22767, Note_on_c, 0, 61, 51
2, 22769, Note_on_c, 0, 48, 45
2, 22771, Note_on_c, 0, 67, 50
2, 22774, Note_on_c, 0, 64, 31
2, 22820, Control_c, 0, 64, 127
2, 22876, Control_c, 0, 64, 0
2, 22879, Note_on_c, 0, 36, 80
2, 22911, Note_on_c, 0, 64, 0
2, 22927, Note_on_c, 0, 58, 0
2, 22929, Control_c, 0, 64, 127
2, 22930, Note_on_c, 0, 67, 0
2, 22993, Note_on_c, 0, 61, 0
2, 23078, Note_on_c, 0, 48, 0
2, 23158, Note_on_c, 0, 55, 55
2, 23160, Note_on_c, 0, 60, 52
2, 23163, Note_on_c, 0, 48, 42
2, 23163, Note_on_c, 0, 57, 43
2, 23165, Control_c, 0, 64, 0
2, 23171, Note_on_c, 0, 55, 0
2, 23176, Note_on_c, 0, 57, 0
2, 23188, Note_on_c, 0, 60, 0
2, 23240, Note_on_c, 0, 55, 50
2, 23240, Note_on_c, 0, 57, 52
2, 23241, Note_on_c, 0, 60, 38
2, 23249, Note_on_c, 0, 55, 0
2, 23250, Note_on_c, 0, 57, 0
2, 23253, Note_on_c, 0, 60, 0
2, 23283, Note_on_c, 0, 57, 47
2, 23285, Note_on_c, 0, 55, 32
2, 23285, Note_on_c, 0, 60, 36
2, 23308, Note_on_c, 0, 60, 0
2, 23309, Note_on_c, 0, 55, 0
2, 23312, Note_on_c, 0, 57, 0
2, 23332, Note_on_c, 0, 36, 0
2, 23362, Note_on_c, 0, 36, 58
2, 23484, Note_on_c, 0, 43, 22
2, 23484, Note_on_c, 0, 60, 60
2, 23485, Note_on_c, 0, 55, 38
2, 23486, Note_on_c, 0, 57, 52
2, 23495, Note_on_c, 0, 55, 0
2, 23498, Note_on_c, 0, 57, 0
2, 23502, Note_on_c, 0, 43, 0
2, 23505, Note_on_c, 0, 60, 0
2, 23558, Note_on_c, 0, 48, 0
2, 23569, Control_c, 0, 64, 127
2, 23603, Note_on_c, 0, 60, 58
2, 23605, Note_on_c, 0, 48, 46
2, 23612, Note_on_c, 0, 60, 0
2, 23640, Control_c, 0, 64, 0
2, 23649, Note_on_c, 0, 65, 64
2, 23650, Note_on_c, 0, 57, 60
2, 23650, Note_on_c, 0, 62, 60
2, 23651, Note_on_c, 0, 60, 58
2, 23672, Note_on_c, 0, 48, 0
2, 23734, Note_on_c, 0, 48, 60
2, 23756, Note_on_c, 0, 48, 0
2, 23834, Control_c, 0, 64, 127
2, 23842, Control_c, 0, 64, 0
2, 23845, Note_on_c, 0, 48, 80
2, 23870, Note_on_c, 0, 65, 0
2, 23881, Note_on_c, 0, 62, 0
2, 23887, Note_on_c, 0, 60, 0
2, 23894, Note_on_c, 0, 48, 0
2, 23895, Control_c, 0, 64, 127
2, 23896, Note_on_c, 0, 57, 0
2, 23959, Note_on_c, 0, 60, 74
2, 23960, Note_on_c, 0, 56, 57
2, 23962, Note_on_c, 0, 55, 56
2, 23965, Note_on_c, 0, 48, 68
2, 23972, Note_on_c, 0, 55, 0
2, 23973, Control_c, 0, 64, 0
2, 23979, Note_on_c, 0, 56, 0
2, 23985, Note_on_c, 0, 60, 0
2, 23998, Note_on_c, 0, 48, 0
2, 24050, Control_c, 0, 64, 127
2, 24075, Note_on_c, 0, 48, 66
2, 24077, Note_on_c, 0, 56, 60
2, 24079, Note_on_c, 0, 60, 66
2, 24080, Note_on_c, 0, 55, 62
2, 24091, Note_on_c, 0, 60, 0
2, 24092, Note_on_c, 0, 55, 0
2, 24095, Control_c, 0, 64, 0
2, 24099, Note_on_c, 0, 56, 0
2, 24128, Note_on_c, 0, 56, 33
2, 24128, Note_on_c, 0, 55, 36
2, 24133, Note_on_c, 0, 60, 44
2, 24148, Note_on_c, 0, 36, 0
2, 24151, Note_on_c, 0, 55, 0
2, 24158, Note_on_c, 0, 60, 0
2, 24160, Note_on_c, 0, 56, 0
2, 24185, Control_c, 0, 64, 127
2, 24203, Note_on_c, 0, 56, 56
2, 24204, Control_c, 0, 64, 0
2, 24207, Note_on_c, 0, 55, 48
2, 24208, Note_on_c, 0, 60, 55
2, 24216, Note_on_c, 0, 55, 0
2, 24217, Note_on_c, 0, 60, 0
2, 24224, Note_on_c, 0, 56, 0
2, 24248, Note_on_c, 0, 56, 52
2, 24253, Note_on_c, 0, 55, 60
2, 24253, Note_on_c, 0, 36, 71
2, 24253, Note_on_c, 0, 60, 51
2, 24261, Note_on_c, 0, 55, 0
2, 24264, Note_on_c, 0, 60, 0
2, 24270, Note_on_c, 0, 56, 0
2, 24352, Note_on_c, 0, 48, 0
2, 24362, Note_on_c, 0, 56, 56
2, 24365, Note_on_c, 0, 55, 56
2, 24365, Note_on_c, 0, 60, 57
2, 24369, Control_c, 0, 64, 127
2, 24373, Note_on_c, 0, 55, 0
2, 24376, Note_on_c, 0, 60, 0
2, 24382, Note_on_c, 0, 56, 0
2, 24432, Control_c, 0, 64, 0
2, 24435, Note_on_c, 0, 56, 62
2, 24437, Note_on_c, 0, 48, 66
2, 24437, Note_on_c, 0, 60, 67
2, 24438, Note_on_c, 0, 55, 62
2, 24446, Note_on_c, 0, 55, 0
2, 24454, Note_on_c, 0, 56, 0
2, 24457, Note_on_c, 0, 60, 0
2, 24471, Note_on_c, 0, 48, 0
2, 24524, Control_c, 0, 64, 127
2, 24552, Note_on_c, 0, 56, 39
2, 24553, Note_on_c, 0, 48, 75
2, 24554, Note_on_c, 0, 55, 52
2, 24556, Note_on_c, 0, 60, 43
2, 24564, Note_on_c, 0, 55, 0
2, 24564, Note_on_c, 0, 56, 0
2, 24568, Note_on_c, 0, 60, 0
2, 24606, Control_c, 0, 64, 0
2, 24615, Note_on_c, 0, 56, 73
2, 24619, Note_on_c, 0, 63, 57
2, 24619, Note_on_c, 0, 65, 70
2, 24621, Note_on_c, 0, 60, 60
2, 24627, Note_on_c, 0, 48, 0
2, 24692, Note_on_c, 0, 48, 68
2, 24717, Note_on_c, 0, 48, 0
2, 24754, Control_c, 0, 64, 127
2, 24786, Control_c, 0, 64, 0
2, 24805, Note_on_c, 0, 48, 80
2, 24833, Note_on_c, 0, 48, 0
2, 24901, Note_on_c, 0, 60, 0
2, 24915, Note_on_c, 0, 65, 0
2, 24916, Note_on_c, 0, 56, 0
2, 24917, Control_c, 0, 64, 127
2, 24922, Note_on_c, 0, 48, 76
2, 24941, Note_on_c, 0, 63, 0
2, 24948, Note_on_c, 0, 48, 0
2, 24968, Control_c, 0, 64, 0
2, 24972, Note_on_c, 0, 55, 61
2, 24973, Note_on_c, 0, 59, 61
2, 24976, Note_on_c, 0, 48, 51
2, 25011, Note_on_c, 0, 55, 0
2, 25013, Note_on_c, 0, 59, 0
2, 25043, Note_on_c, 0, 59, 54
2, 25048, Note_on_c, 0, 55, 44
2, 25048, Note_on_c, 0, 53, 45
2, 25064, Note_on_c, 0, 53, 0
2, 25068, Note_on_c, 0, 55, 0
2, 25075, Note_on_c, 0, 59, 0
2, 25093, Note_on_c, 0, 59, 28
2, 25095, Note_on_c, 0, 55, 19
2, 25106, Note_on_c, 0, 36, 0
2, 25115, Note_on_c, 0, 55, 0
2, 25126, Note_on_c, 0, 59, 0
2, 25154, Note_on_c, 0, 36, 71
2, 25156, Note_on_c, 0, 59, 46
2, 25159, Note_on_c, 0, 55, 35
2, 25160, Note_on_c, 0, 53, 34
2, 25165, Note_on_c, 0, 62, 29
2, 25176, Note_on_c, 0, 53, 0
2, 25177, Note_on_c, 0, 62, 0
2, 25178, Note_on_c, 0, 55, 0
2, 25188, Note_on_c, 0, 59, 0
2, 25207, Note_on_c, 0, 48, 0
2, 25207, Note_on_c, 0, 59, 34
2, 25215, Control_c, 0, 64, 127
2, 25215, Note_on_c, 0, 55, 26
2, 25216, Note_on_c, 0, 53, 24
2, 25255, Note_on_c, 0, 53, 0
2, 25257, Note_on_c, 0, 55, 0
2, 25265, Note_on_c, 0, 59, 0
2, 25285, Control_c, 0, 64, 0
2, 25319, Note_on_c, 0, 48, 45
2, 25321, Note_on_c, 0, 59, 51
2, 25325, Note_on_c, 0, 55, 35
2, 25326, Note_on_c, 0, 53, 34
2, 25338, Control_c, 0, 64, 127
2, 25348, Note_on_c, 0, 53, 0
2, 25348, Note_on_c, 0, 48, 0
2, 25352, Note_on_c, 0, 55, 0
2, 25373, Note_on_c, 0, 59, 0
2, 25392, Note_on_c, 0, 55, 59
2, 25396, Note_on_c, 0, 59, 61
2, 25396, Note_on_c, 0, 48, 55
2, 25397, Note_on_c, 0, 62, 52
2, 25398, Control_c, 0, 64, 0
2, 25412, Note_on_c, 0, 59, 0
2, 25412, Note_on_c, 0, 55, 0
2, 25413, Note_on_c, 0, 62, 0
2, 25424, Note_on_c, 0, 48, 0
2, 25487, Control_c, 0, 64, 127
2, 25510, Note_on_c, 0, 48, 59
2, 25512, Note_on_c, 0, 62, 46
2, 25512, Note_on_c, 0, 59, 57
2, 25513, Note_on_c, 0, 55, 51
2, 25524, Note_on_c, 0, 55, 0
2, 25528, Note_on_c, 0, 62, 0
2, 25534, Note_on_c, 0, 59, 0
2, 25537, Note_on_c, 0, 48, 0
2, 25560, Control_c, 0, 64, 0
2, 25570, Note_on_c, 0, 58, 64
2, 25571, Note_on_c, 0, 61, 54
2, 25573, Note_on_c, 0, 54, 56
2, 25575, Note_on_c, 0, 48, 50
2, 25609, Note_on_c, 0, 36, 0
2, 25653, Note_on_c, 0, 36, 58
2, 25683, Control_c, 0, 64, 127
2, 25688, Note_on_c, 0, 36, 0
2, 25761, Note_on_c, 0, 36, 72
2, 25765, Control_c, 0, 64, 0
2, 25796, Note_on_c, 0, 36, 0
2, 25822, Control_c, 0, 64, 127
2, 25858, Note_on_c, 0, 58, 0
2, 25861, Note_on_c, 0, 61, 0
2, 25864, Note_on_c, 0, 54, 0
2, 25877, Note_on_c, 0, 36, 62
2, 25887, Note_on_c, 0, 48, 0
2, 25911, Control_c, 0, 64, 0
2, 25919, Note_on_c, 0, 36, 0
2, 25919, Note_on_c, 0, 55, 59
2, 25920, Note_on_c, 0, 60, 63
2, 25920, Note_on_c, 0, 57, 62
2, 25927, Note_on_c, 0, 48, 43
2, 25938, Note_on_c, 0, 48, 0
2, 25999, Note_on_c, 0, 48, 70
2, 26017, Note_on_c, 0, 48, 0
2, 26122, Note_on_c, 0, 47, 48
2, 26139, Note_on_c, 0, 47, 0
2, 26164, Note_on_c, 0, 48, 78
2, 26195, Control_c, 0, 64, 127
2, 26234, Control_c, 0, 64, 0
2, 26270, Control_c, 0, 64, 127
2, 26273, Note_on_c, 0, 48, 0
2, 26345, Note_on_c, 0, 57, 0
2, 26349, Note_on_c, 0, 49, 64
2, 26353, Note_on_c, 0, 60, 0
2, 26359, Note_on_c, 0, 55, 0
2, 26371, Note_on_c, 0, 49, 0
2, 26381, Control_c, 0, 64, 0
2, 26396, Note_on_c, 0, 50, 70
2, 26475, Note_on_c, 0, 54, 78
2, 26479, Note_on_c, 0, 65, 59
2, 26480, Note_on_c, 0, 38, 57
2, 26481, Note_on_c, 0, 60, 54
2, 26490, Note_on_c, 0, 60, 0
2, 26491, Note_on_c, 0, 54, 0
2, 26491, Note_on_c, 0, 38, 0
2, 26498, Control_c, 0, 64, 127
2, 26499, Note_on_c, 0, 50, 0
2, 26508, Note_on_c, 0, 65, 0
2, 26591, Control_c, 0, 64, 0
2, 26591, Note_on_c, 0, 70, 88
2, 26592, Note_on_c, 0, 77, 75
2, 26595, Note_on_c, 0, 60, 67
2, 26595, Note_on_c, 0, 54, 67
2, 26596, Note_on_c, 0, 65, 72
2, 26605, Note_on_c, 0, 67, 34
2, 26614, Note_on_c, 0, 67, 0
2, 26633, Control_c, 0, 64, 127
2, 26685, Note_on_c, 0, 60, 0
2, 26693, Note_on_c, 0, 77, 0
2, 26712, Note_on_c, 0, 54, 0
2, 26724, Note_on_c, 0, 65, 0
2, 26725, Note_on_c, 0, 70, 0
2, 26757, Control_c, 0, 64, 0
2, 26761, Note_on_c, 0, 54, 58
2, 26762, Note_on_c, 0, 74, 54
2, 26763, Note_on_c, 0, 70, 58
2, 26767, Note_on_c, 0, 44, 42
2, 26768, Note_on_c, 0, 65, 57
2, 26793, Control_c, 0, 64, 127
2, 26798, Note_on_c, 0, 74, 0
2, 26808, Note_on_c, 0, 65, 0
2, 26814, Note_on_c, 0, 70, 0
2, 26846, Note_on_c, 0, 54, 0
2, 26862, Note_on_c, 0, 44, 0
2, 26964, Note_on_c, 0, 69, 71
2, 26964, Note_on_c, 0, 58, 61
2, 26965, Note_on_c, 0, 57, 73
2, 26967, Note_on_c, 0, 62, 64
2, 26969, Note_on_c, 0, 65, 57
2, 26976, Control_c, 0, 64, 0
2, 27051, Control_c, 0, 64, 127
2, 27059, Note_on_c, 0, 57, 0
2, 27080, Note_on_c, 0, 55, 78
2, 27115, Control_c, 0, 64, 0
2, 27138, Note_on_c, 0, 55, 0
2, 27171, Note_on_c, 0, 53, 61
2, 27172, Control_c, 0, 64, 127
2, 27226, Note_on_c, 0, 53, 0
2, 27240, Control_c, 0, 64, 0
2, 27255, Note_on_c, 0, 53, 58
2, 27259, Control_c, 0, 64, 127
2, 27276, Note_on_c, 0, 65, 0
2, 27278, Note_on_c, 0, 69, 0
2, 27287, Note_on_c, 0, 62, 0
2, 27302, Note_on_c, 0, 58, 0
2, 27325, Note_on_c, 0, 53, 0
2, 27333, Note_on_c, 0, 58, 57
2, 27335, Note_on_c, 0, 67, 55
2, 27338, Control_c, 0, 64, 0
2, 27339, Note_on_c, 0, 62, 58
2, 27340, Note_on_c, 0, 64, 54
2, 27342, Note_on_c, 0, 52, 40
2, 27380, Control_c, 0, 64, 127
2, 27442, Control_c, 0, 64, 0
2, 27449, Note_on_c, 0, 40, 50
2, 27454, Note_on_c, 0, 38, 28
2, 27464, Note_on_c, 0, 38, 0
2, 27466, Note_on_c, 0, 58, 0
2, 27473, Note_on_c, 0, 40, 0
2, 27481, Control_c, 0, 64, 127
2, 27483, Note_on_c, 0, 62, 0
2, 27495, Note_on_c, 0, 64, 0
2, 27505, Note_on_c, 0, 67, 0
2, 27507, Note_on_c, 0, 52, 0
2, 27563, Note_on_c, 0, 61, 84
2, 27565, Note_on_c, 0, 66, 72
2, 27567, Note_on_c, 0, 70, 68
2, 27568, Note_on_c, 0, 55, 75
2, 27577, Control_c, 0, 64, 0
2, 27670, Note_on_c, 0, 55, 0
2, 27680, Note_on_c, 0, 49, 64
2, 27707, Note_on_c, 0, 49, 0
2, 27726, Note_on_c, 0, 51, 59
2, 27729, Note_on_c, 0, 61, 0
2, 27733, Note_on_c, 0, 66, 0
2, 27737, Note_on_c, 0, 70, 0
2, 27756, Control_c, 0, 64, 127
2, 27796, Control_c, 0, 64, 0
2, 27800, Note_on_c, 0, 51, 0
2, 27805, Note_on_c, 0, 69, 69
2, 27806, Note_on_c, 0, 65, 74
2, 27806, Note_on_c, 0, 60, 70
2, 27810, Note_on_c, 0, 50, 47
2, 27860, Control_c, 0, 64, 127
2, 27921, Note_on_c, 0, 38, 77
2, 27924, Control_c, 0, 64, 0
2, 27940, Note_on_c, 0, 65, 0
2, 27973, Control_c, 0, 64, 127
2, 27999, Note_on_c, 0, 69, 0
2, 28024, Note_on_c, 0, 60, 0
2, 28046, Note_on_c, 0, 50, 0
2, 28056, Note_on_c, 0, 42, 31
2, 28071, Note_on_c, 0, 42, 0
2, 28073, Control_c, 0, 64, 0
2, 28075, Note_on_c, 0, 38, 0
2, 28082, Note_on_c, 0, 48, 71
2, 28107, Control_c, 0, 64, 127
2, 28149, Control_c, 0, 64, 0
2, 28168, Note_on_c, 0, 36, 80
2, 28189, Control_c, 0, 64, 127
2, 28226, Note_on_c, 0, 48, 0
2, 28231, Note_on_c, 0, 36, 0
2, 28261, Control_c, 0, 64, 0
2, 28276, Note_on_c, 0, 35, 72
2, 28296, Note_on_c, 0, 35, 0
2, 28306, Control_c, 0, 64, 127
2, 28391, Note_on_c, 0, 76, 71
2, 28394, Note_on_c, 0, 69, 77
2, 28396, Note_on_c, 0, 73, 57
2, 28400, Note_on_c, 0, 62, 39
2, 28405, Note_on_c, 0, 69, 0
2, 28405, Control_c, 0, 64, 0
2, 28406, Note_on_c, 0, 73, 0
2, 28411, Note_on_c, 0, 62, 0
2, 28414, Note_on_c, 0, 76, 0
2, 28463, Control_c, 0, 64, 127
2, 28475, Note_on_c, 0, 66, 52
2, 28477, Note_on_c, 0, 76, 71
2, 28478, Note_on_c, 0, 73, 72
2, 28481, Note_on_c, 0, 69, 80
2, 28483, Note_on_c, 0, 62, 34
2, 28498, Note_on_c, 0, 62, 0
2, 28501, Note_on_c, 0, 66, 0
2, 28502, Note_on_c, 0, 69, 0
2, 28510, Note_on_c, 0, 76, 0
2, 28524, Note_on_c, 0, 73, 0
2, 28546, Control_c, 0, 64, 0
2, 28567, Note_on_c, 0, 62, 58
2, 28567, Note_on_c, 0, 72, 78
2, 28568, Note_on_c, 0, 77, 73
2, 28568, Note_on_c, 0, 56, 67
2, 28571, Note_on_c, 0, 67, 68
2, 28590, Control_c, 0, 64, 127
2, 28641, Note_on_c, 0, 67, 0
2, 28645, Note_on_c, 0, 77, 0
2, 28659, Note_on_c, 0, 76, 63
2, 28664, Note_on_c, 0, 62, 0
2, 28712, Note_on_c, 0, 56, 0
2, 28718, Note_on_c, 0, 76, 0
2, 28719, Note_on_c, 0, 72, 0
2, 28770, Control_c, 0, 64, 0
2, 28772, Note_on_c, 0, 71, 58
2, 28772, Note_on_c, 0, 64, 57
2, 28774, Note_on_c, 0, 67, 61
2, 28776, Note_on_c, 0, 59, 42
2, 28776, Note_on_c, 0, 74, 67
2, 28777, Note_on_c, 0, 60, 50
2, 28809, Note_on_c, 0, 74, 0
2, 28823, Control_c, 0, 64, 127
2, 28923, Note_on_c, 0, 67, 0
2, 28926, Note_on_c, 0, 71, 0
2, 28931, Note_on_c, 0, 64, 0
2, 28940, Note_on_c, 0, 60, 0
2, 28943, Note_on_c, 0, 59, 0
2, 28992, Note_on_c, 0, 71, 49
2, 28994, Note_on_c, 0, 68, 63
2, 28996, Note_on_c, 0, 64, 60
2, 28997, Control_c, 0, 64, 0
2, 29000, Note_on_c, 0, 60, 50
2, 29002, Note_on_c, 0, 54, 53
2, 29042, Control_c, 0, 64, 127
2, 29116, Note_on_c, 0, 74, 66
2, 29135, Note_on_c, 0, 60, 0
2, 29152, Note_on_c, 0, 64, 0
2, 29158, Note_on_c, 0, 71, 0
2, 29160, Note_on_c, 0, 54, 0
2, 29181, Note_on_c, 0, 74, 0
2, 29188, Note_on_c, 0, 68, 0
2, 29207, Note_on_c, 0, 72, 77
2, 29263, Note_on_c, 0, 72, 0
2, 29278, Control_c, 0, 64, 0
2, 29287, Note_on_c, 0, 69, 64
2, 29288, Note_on_c, 0, 65, 55
2, 29288, Note_on_c, 0, 62, 44
2, 29293, Note_on_c, 0, 60, 48
2, 29296, Note_on_c, 0, 58, 31
2, 29317, Control_c, 0, 64, 127
2, 29368, Note_on_c, 0, 62, 0
2, 29372, Note_on_c, 0, 60, 0
2, 29374, Note_on_c, 0, 72, 61
2, 29385, Note_on_c, 0, 69, 0
2, 29386, Note_on_c, 0, 58, 0
2, 29396, Note_on_c, 0, 65, 0
2, 29423, Note_on_c, 0, 72, 0
2, 29476, Note_on_c, 0, 70, 53
2, 29478, Control_c, 0, 64, 0
2, 29480, Note_on_c, 0, 68, 52
2, 29482, Note_on_c, 0, 64, 50
2, 29484, Note_on_c, 0, 58, 45
2, 29522, Control_c, 0, 64, 127
2, 29594, Note_on_c, 0, 48, 61
2, 29608, Note_on_c, 0, 58, 0
2, 29620, Note_on_c, 0, 68, 0
2, 29627, Note_on_c, 0, 70, 0
2, 29634, Note_on_c, 0, 64, 0
2, 29878, Note_on_c, 0, 60, 51
2, 29879, Note_on_c, 0, 55, 49
2, 29882, Note_on_c, 0, 57, 55
2, 29902, Note_on_c, 0, 48, 0
2, 29920, Control_c, 0, 64, 0
2, 29998, Note_on_c, 0, 48, 66
2, 30007, Note_on_c, 0, 47, 64
2, 30016, Note_on_c, 0, 47, 0
2, 30137, Note_on_c, 0, 48, 0
2, 30205, Note_on_c, 0, 48, 68
2, 30206, Note_on_c, 0, 47, 66
2, 30216, Note_on_c, 0, 47, 0
2, 30217, Note_on_c, 0, 55, 0
2, 30228, Note_on_c, 0, 57, 0
2, 30236, Note_on_c, 0, 60, 0
2, 30312, Note_on_c, 0, 47, 50
2, 30323, Note_on_c, 0, 47, 0
2, 30354, Note_on_c, 0, 74, 89
2, 30405, Note_on_c, 0, 74, 0
2, 30432, Note_on_c, 0, 72, 73
2, 30463, Note_on_c, 0, 72, 0
2, 30490, Note_on_c, 0, 69, 35
2, 30532, Note_on_c, 0, 69, 0
2, 30552, Note_on_c, 0, 65, 57
2, 30577, Note_on_c, 0, 65, 0
2, 30600, Note_on_c, 0, 62, 33
2, 30633, Note_on_c, 0, 62, 0
2, 30662, Control_c, 0, 64, 127
2, 30668, Note_on_c, 0, 66, 25
2, 30669, Note_on_c, 0, 58, 49
2, 30680, Note_on_c, 0, 66, 0
2, 30680, Note_on_c, 0, 65, 24
2, 30690, Note_on_c, 0, 65, 0
2, 30704, Note_on_c, 0, 58, 0
2, 30708, Control_c, 0, 64, 0
2, 30721, Note_on_c, 0, 65, 40
2, 30724, Note_on_c, 0, 57, 54
2, 30726, Note_on_c, 0, 41, 37
2, 30833, Control_c, 0, 64, 127
2, 30883, Note_on_c, 0, 57, 0
2, 30914, Note_on_c, 0, 48, 0
2, 30914, Note_on_c, 0, 53, 58
2, 30925, Note_on_c, 0, 41, 0
2, 30927, Note_on_c, 0, 65, 0
2, 30941, Note_on_c, 0, 53, 0
2, 31067, Note_on_c, 0, 57, 55
2, 31069, Note_on_c, 0, 62, 55
2, 31071, Note_on_c, 0, 67, 55
2, 31136, Note_on_c, 0, 67, 0
2, 31148, Note_on_c, 0, 62, 0
2, 31168, Note_on_c, 0, 57, 0
2, 31256, Note_on_c, 0, 48, 58
2, 31259, Note_on_c, 0, 41, 68
2, 31266, Control_c, 0, 64, 0
2, 31302, Control_c, 0, 64, 127
2, 31316, Note_on_c, 0, 41, 0
2, 31330, Note_on_c, 0, 48, 0
2, 31518, Note_on_c, 0, 67, 64
2, 31519, Note_on_c, 0, 57, 64
2, 31519, Note_on_c, 0, 62, 62
2, 31538, Note_on_c, 0, 67, 0
2, 31557, Note_on_c, 0, 62, 0
2, 31567, Note_on_c, 0, 57, 0
2, 31628, Note_on_c, 0, 72, 87
2, 31655, Note_on_c, 0, 72, 0
2, 31677, Note_on_c, 0, 79, 79
2, 31711, Note_on_c, 0, 79, 0
2, 31716, Control_c, 0, 64, 0
2, 31724, Note_on_c, 0, 41, 71
2, 31726, Note_on_c, 0, 77, 71
2, 31752, Control_c, 0, 64, 127
2, 31761, Note_on_c, 0, 41, 0
2, 31892, Note_on_c, 0, 77, 0
2, 31903, Note_on_c, 0, 72, 63
2, 31905, Note_on_c, 0, 63, 60
2, 31908, Note_on_c, 0, 53, 50
2, 31908, Note_on_c, 0, 58, 51
2, 31914, Control_c, 0, 64, 0
2, 31949, Control_c, 0, 64, 127
2, 32008, Note_on_c, 0, 53, 0
2, 32008, Note_on_c, 0, 63, 0
2, 32017, Note_on_c, 0, 58, 0
2, 32129, Note_on_c, 0, 41, 66
2, 32131, Note_on_c, 0, 48, 61
2, 32131, Control_c, 0, 64, 0
2, 32156, Control_c, 0, 64, 127
2, 32178, Note_on_c, 0, 41, 0
2, 32194, Note_on_c, 0, 48, 0
2, 32360, Note_on_c, 0, 58, 67
2, 32361, Note_on_c, 0, 68, 71
2, 32363, Note_on_c, 0, 63, 65
2, 32370, Control_c, 0, 64, 0
2, 32403, Control_c, 0, 64, 127
2, 32477, Note_on_c, 0, 68, 0
2, 32482, Note_on_c, 0, 63, 0
2, 32483, Note_on_c, 0, 58, 0
2, 32622, Control_c, 0, 64, 0
2, 32632, Note_on_c, 0, 48, 78
2, 32635, Note_on_c, 0, 41, 77
2, 32653, Control_c, 0, 64, 127
2, 32682, Note_on_c, 0, 41, 0
2, 32694, Note_on_c, 0, 48, 0
2, 32882, Note_on_c, 0, 57, 67
2, 32883, Note_on_c, 0, 62, 61
2, 32883, Control_c, 0, 64, 0
2, 32884, Note_on_c, 0, 67, 64
2, 32920, Control_c, 0, 64, 127
2, 32965, Note_on_c, 0, 67, 0
2, 32969, Note_on_c, 0, 62, 0
2, 32984, Note_on_c, 0, 57, 0
2, 33070, Note_on_c, 0, 41, 73
2, 33079, Control_c, 0, 64, 0
2, 33102, Note_on_c, 0, 41, 0
2, 33108, Control_c, 0, 64, 127
2, 33208, Note_on_c, 0, 72, 0
2, 33240, Note_on_c, 0, 65, 62
2, 33244, Note_on_c, 0, 60, 49
2, 33247, Note_on_c, 0, 54, 46
2, 33248, Note_on_c, 0, 58, 37
2, 33256, Control_c, 0, 64, 0
2, 33361, Control_c, 0, 64, 127
2, 33365, Note_on_c, 0, 84, 99
2, 33393, Note_on_c, 0, 65, 0
2, 33401, Note_on_c, 0, 84, 0
2, 33405, Note_on_c, 0, 60, 0
2, 33414, Note_on_c, 0, 54, 0
2, 33418, Note_on_c, 0, 58, 0
2, 33435, Note_on_c, 0, 82, 72
2, 33475, Note_on_c, 0, 82, 0
2, 33491, Note_on_c, 0, 72, 46
2, 33535, Control_c, 0, 64, 0
2, 33554, Note_on_c, 0, 41, 62
2, 33570, Note_on_c, 0, 72, 0
2, 33574, Control_c, 0, 64, 127
2, 33575, Note_on_c, 0, 41, 0
2, 33668, Note_on_c, 0, 73, 67
2, 33671, Note_on_c, 0, 68, 67
2, 33672, Note_on_c, 0, 58, 67
2, 33675, Note_on_c, 0, 63, 48
2, 33677, Control_c, 0, 64, 0
2, 33696, Note_on_c, 0, 63, 0
2, 33700, Note_on_c, 0, 73, 0
2, 33702, Note_on_c, 0, 58, 0
2, 33715, Note_on_c, 0, 68, 0
2, 33728, Note_on_c, 0, 72, 33
2, 33732, Control_c, 0, 64, 127
2, 33732, Note_on_c, 0, 62, 31
2, 33732, Note_on_c, 0, 67, 35
2, 33736, Note_on_c, 0, 57, 48
2, 33774, Note_on_c, 0, 72, 0
2, 33827, Note_on_c, 0, 67, 0
2, 33851, Note_on_c, 0, 62, 0
2, 33892, Note_on_c, 0, 57, 0
2, 33927, Note_on_c, 0, 64, 66
2, 33927, Note_on_c, 0, 69, 64
2, 33930, Note_on_c, 0, 60, 58
2, 33930, Note_on_c, 0, 53, 61
2, 33934, Control_c, 0, 64, 0
2, 33979, Control_c, 0, 64, 127
2, 34020, Note_on_c, 0, 69, 0
2, 34026, Note_on_c, 0, 64, 0
2, 34027, Note_on_c, 0, 53, 0
2, 34035, Note_on_c, 0, 60, 0
2, 34110, Note_on_c, 0, 58, 50
2, 34111, Note_on_c, 0, 54, 57
2, 34114, Note_on_c, 0, 50, 63
2, 34114, Note_on_c, 0, 65, 43
2, 34116, Control_c, 0, 64, 0
2, 34124, Note_on_c, 0, 60, 24
2, 34212, Note_on_c, 0, 38, 68
2, 34232, Note_on_c, 0, 50, 0
2, 34256, Control_c, 0, 64, 127
2, 34321, Note_on_c, 0, 60, 0
2, 34383, Note_on_c, 0, 54, 0
2, 34387, Note_on_c, 0, 65, 0
2, 34390, Note_on_c, 0, 58, 0
2, 34411, Note_on_c, 0, 54, 70
2, 34412, Note_on_c, 0, 38, 0
2, 34414, Note_on_c, 0, 63, 51
2, 34415, Note_on_c, 0, 45, 64
2, 34415, Note_on_c, 0, 58, 43
2, 34423, Note_on_c, 0, 60, 43
2, 34430, Control_c, 0, 64, 0
2, 34478, Control_c, 0, 64, 127
2, 34532, Note_on_c, 0, 45, 0
2, 34534, Note_on_c, 0, 42, 46
2, 34535, Note_on_c, 0, 58, 0
2, 34535, Note_on_c, 0, 54, 0
2, 34544, Note_on_c, 0, 60, 0
2, 34548, Note_on_c, 0, 63, 0
2, 34554, Control_c, 0, 64, 0
2, 34570, Note_on_c, 0, 42, 0
2, 34574, Note_on_c, 0, 62, 47
2, 34574, Note_on_c, 0, 58, 37
2, 34576, Note_on_c, 0, 53, 44
2, 34579, Note_on_c, 0, 43, 49
2, 34593, Control_c, 0, 64, 127
2, 34643, Control_c, 0, 64, 0
2, 34655, Note_on_c, 0, 31, 65
2, 34658, Note_on_c, 0, 53, 0
2, 34677, Control_c, 0, 64, 127
2, 34679, Note_on_c, 0, 31, 0
2, 34691, Note_on_c, 0, 43, 0
2, 34692, Note_on_c, 0, 58, 0
2, 34698, Note_on_c, 0, 62, 0
2, 34883, Note_on_c, 0, 57, 68
2, 34889, Note_on_c, 0, 55, 58
2, 34889, Note_on_c, 0, 53, 61
2, 34891, Note_on_c, 0, 64, 80
2, 34896, Control_c, 0, 64, 0
2, 34942, Control_c, 0, 64, 127
2, 34960, Note_on_c, 0, 64, 0
2, 34964, Note_on_c, 0, 55, 0
2, 34970, Note_on_c, 0, 53, 0
2, 34973, Note_on_c, 0, 57, 0
2, 34975, Note_on_c, 0, 72, 84
2, 35017, Note_on_c, 0, 72, 0
2, 35059, Note_on_c, 0, 75, 84
2, 35061, Note_on_c, 0, 64, 87
2, 35061, Note_on_c, 0, 68, 79
2, 35062, Note_on_c, 0, 63, 76
2, 35062, Control_c, 0, 64, 0
2, 35093, Control_c, 0, 64, 127
2, 35131, Note_on_c, 0, 75, 0
2, 35136, Control_c, 0, 64, 0
2, 35146, Note_on_c, 0, 73, 69
2, 35147, Note_on_c, 0, 63, 0
2, 35148, Note_on_c, 0, 61, 55
2, 35166, Control_c, 0, 64, 127
2, 35197, Note_on_c, 0, 73, 0
2, 35198, Note_on_c, 0, 64, 0
2, 35200, Note_on_c, 0, 68, 0
2, 35222, Note_on_c, 0, 61, 0
2, 35236, Control_c, 0, 64, 0
2, 35248, Note_on_c, 0, 72, 65
2, 35249, Note_on_c, 0, 67, 60
2, 35250, Note_on_c, 0, 64, 59
2, 35252, Note_on_c, 0, 60, 49
2, 35299, Note_on_c, 0, 67, 0
2, 35300, Note_on_c, 0, 64, 0
2, 35304, Note_on_c, 0, 72, 0
2, 35310, Control_c, 0, 64, 127
2, 35334, Note_on_c, 0, 60, 0
2, 35356, Note_on_c, 0, 58, 40
2, 35357, Note_on_c, 0, 70, 52
2, 35363, Control_c, 0, 64, 0
2, 35393, Note_on_c, 0, 70, 0
2, 35400, Note_on_c, 0, 58, 0
2, 35411, Note_on_c, 0, 67, 55
2, 35413, Note_on_c, 0, 60, 53
2, 35413, Note_on_c, 0, 64, 58
2, 35413, Note_on_c, 0, 72, 63
2, 35430, Control_c, 0, 64, 127
2, 35436, Note_on_c, 0, 60, 0
2, 35446, Note_on_c, 0, 72, 0
2, 35450, Note_on_c, 0, 67, 0
2, 35467, Note_on_c, 0, 64, 0
2, 35498, Control_c, 0, 64, 0
2, 35502, Note_on_c, 0, 69, 50
2, 35505, Note_on_c, 0, 55, 45
2, 35512, Note_on_c, 0, 64, 31
2, 35515, Note_on_c, 0, 60, 22
2, 35521, Note_on_c, 0, 55, 0
2, 35524, Note_on_c, 0, 60, 0
2, 35527, Note_on_c, 0, 69, 0
2, 35530, Note_on_c, 0, 64, 0
2, 35565, Control_c, 0, 64, 127
2, 35607, Note_on_c, 0, 67, 46
2, 35613, Control_c, 0, 64, 0
2, 35613, Note_on_c, 0, 52, 57
2, 35617, Note_on_c, 0, 57, 44
2, 35618, Note_on_c, 0, 60, 54
2, 35618, Note_on_c, 0, 64, 33
2, 35628, Note_on_c, 0, 57, 0
2, 35629, Note_on_c, 0, 60, 0
2, 35634, Note_on_c, 0, 64, 0
2, 35638, Note_on_c, 0, 52, 0
2, 35639, Note_on_c, 0, 67, 0
2, 35725, Note_on_c, 0, 65, 55
2, 35728, Note_on_c, 0, 60, 55
2, 35732, Note_on_c, 0, 50, 41
2, 35734, Note_on_c, 0, 57, 34
2, 35744, Note_on_c, 0, 60, 0
2, 35744, Note_on_c, 0, 65, 0
2, 35745, Note_on_c, 0, 57, 0
2, 35749, Note_on_c, 0, 50, 0
2, 35783, Note_on_c, 0, 67, 39
2, 35784, Note_on_c, 0, 60, 37
2, 35785, Note_on_c, 0, 52, 55
2, 35787, Note_on_c, 0, 57, 39
2, 35809, Control_c, 0, 64, 127
2, 35847, Control_c, 0, 64, 0
2, 35853, Note_on_c, 0, 67, 0
2, 35863, Note_on_c, 0, 57, 0
2, 35868, Note_on_c, 0, 60, 0
2, 35889, Note_on_c, 0, 52, 0
2, 35891, Note_on_c, 0, 65, 45
2, 35892, Control_c, 0, 64, 127
2, 35893, Note_on_c, 0, 50, 53
2, 35899, Note_on_c, 0, 60, 43
2, 35900, Note_on_c, 0, 57, 22
2, 35919, Note_on_c, 0, 65, 0
2, 35930, Note_on_c, 0, 60, 0
2, 35934, Note_on_c, 0, 57, 0
2, 35942, Control_c, 0, 64, 0
2, 35966, Note_on_c, 0, 50, 0
2, 35968, Note_on_c, 0, 57, 42
2, 35968, Note_on_c, 0, 67, 55
2, 35968, Note_on_c, 0, 60, 53
2, 35972, Note_on_c, 0, 52, 60
2, 35973, Note_on_c, 0, 63, 27
2, 35983, Note_on_c, 0, 63, 0
2, 35990, Note_on_c, 0, 57, 0
2, 35993, Note_on_c, 0, 60, 0
2, 35994, Note_on_c, 0, 67, 0
2, 35997, Note_on_c, 0, 52, 0
2, 36023, Note_on_c, 0, 67, 48
2, 36024, Control_c, 0, 64, 127
2, 36027, Note_on_c, 0, 60, 51
2, 36027, Note_on_c, 0, 52, 40
2, 36030, Note_on_c, 0, 57, 46
2, 36077, Note_on_c, 0, 60, 0
2, 36080, Note_on_c, 0, 57, 0
2, 36080, Control_c, 0, 64, 0
2, 36086, Note_on_c, 0, 67, 0
2, 36099, Note_on_c, 0, 52, 0
2, 36105, Note_on_c, 0, 50, 43
2, 36108, Note_on_c, 0, 65, 34
2, 36133, Control_c, 0, 64, 127
2, 36161, Note_on_c, 0, 65, 0
2, 36180, Control_c, 0, 64, 0
2, 36188, Note_on_c, 0, 50, 0
2, 36195, Note_on_c, 0, 67, 70
2, 36198, Note_on_c, 0, 60, 67
2, 36199, Note_on_c, 0, 57, 68
2, 36202, Note_on_c, 0, 52, 68
2, 36203, Note_on_c, 0, 63, 36
2, 36234, Control_c, 0, 64, 127
2, 36265, Note_on_c, 0, 57, 0
2, 36273, Note_on_c, 0, 63, 0
2, 36275, Note_on_c, 0, 60, 0
2, 36283, Note_on_c, 0, 67, 0
2, 36302, Control_c, 0, 64, 0
2, 36305, Note_on_c, 0, 60, 50
2, 36308, Note_on_c, 0, 65, 55
2, 36310, Note_on_c, 0, 57, 46
2, 36311, Note_on_c, 0, 50, 60
2, 36322, Note_on_c, 0, 57, 0
2, 36331, Note_on_c, 0, 60, 0
2, 36331, Note_on_c, 0, 52, 0
2, 36340, Note_on_c, 0, 50, 0
2, 36343, Control_c, 0, 64, 127
2, 36381, Note_on_c, 0, 65, 0
2, 36407, Note_on_c, 0, 67, 62
2, 36411, Note_on_c, 0, 61, 73
2, 36413, Note_on_c, 0, 56, 55
2, 36424, Note_on_c, 0, 53, 48
2, 36448, Control_c, 0, 64, 0
2, 36449, Note_on_c, 0, 56, 0
2, 36453, Note_on_c, 0, 67, 0
2, 36464, Note_on_c, 0, 61, 0
2, 36484, Note_on_c, 0, 67, 53
2, 36488, Note_on_c, 0, 61, 68
2, 36490, Note_on_c, 0, 56, 56
2, 36492, Control_c, 0, 64, 127
2, 36498, Note_on_c, 0, 46, 53
2, 36537, Control_c, 0, 64, 0
2, 36539, Note_on_c, 0, 46, 0
2, 36551, Note_on_c, 0, 67, 0
2, 36552, Note_on_c, 0, 56, 0
2, 36560, Note_on_c, 0, 46, 29
2, 36577, Note_on_c, 0, 65, 61
2, 36581, Note_on_c, 0, 53, 0
2, 36587, Control_c, 0, 64, 127
2, 36609, Note_on_c, 0, 61, 0
2, 36624, Note_on_c, 0, 65, 0
2, 36625, Note_on_c, 0, 46, 0
2, 36664, Control_c, 0, 64, 0
2, 36665, Note_on_c, 0, 61, 69
2, 36665, Note_on_c, 0, 67, 66
2, 36667, Note_on_c, 0, 56, 52
2, 36670, Note_on_c, 0, 53, 56
2, 36717, Control_c, 0, 64, 127
2, 36741, Note_on_c, 0, 67, 0
2, 36753, Note_on_c, 0, 56, 0
2, 36779, Note_on_c, 0, 56, 58
2, 36781, Control_c, 0, 64, 0
2, 36784, Note_on_c, 0, 46, 50
2, 36787, Note_on_c, 0, 65, 62
2, 36791, Note_on_c, 0, 53, 0
2, 36809, Note_on_c, 0, 56, 0
2, 36813, Note_on_c, 0, 61, 0
2, 36823, Note_on_c, 0, 46, 0
2, 36826, Note_on_c, 0, 65, 0
2, 36832, Control_c, 0, 64, 127
2, 36902, Note_on_c, 0, 67, 59
2, 36906, Note_on_c, 0, 61, 51
2, 36908, Note_on_c, 0, 59, 62
2, 36909, Note_on_c, 0, 39, 42
2, 36911, Note_on_c, 0, 55, 58
2, 36914, Control_c, 0, 64, 0
2, 36948, Note_on_c, 0, 55, 0
2, 36948, Note_on_c, 0, 59, 0
2, 36956, Note_on_c, 0, 67, 0
2, 36960, Note_on_c, 0, 61, 0
2, 36975, Control_c, 0, 64, 127
2, 36976, Note_on_c, 0, 67, 52
2, 36979, Note_on_c, 0, 61, 27
2, 36980, Note_on_c, 0, 59, 56
2, 36982, Note_on_c, 0, 55, 44
2, 37046, Note_on_c, 0, 55, 0
2, 37047, Note_on_c, 0, 67, 0
2, 37051, Control_c, 0, 64, 0
2, 37055, Note_on_c, 0, 61, 0
2, 37072, Note_on_c, 0, 27, 50
2, 37074, Control_c, 0, 64, 127
2, 37076, Note_on_c, 0, 65, 46
2, 37101, Note_on_c, 0, 39, 0
2, 37108, Note_on_c, 0, 59, 0
2, 37124, Note_on_c, 0, 65, 0
2, 37146, Control_c, 0, 64, 0
2, 37157, Note_on_c, 0, 67, 52
2, 37157, Note_on_c, 0, 61, 40
2, 37159, Note_on_c, 0, 59, 54
2, 37160, Note_on_c, 0, 55, 43
2, 37165, Note_on_c, 0, 39, 46
2, 37181, Note_on_c, 0, 27, 0
2, 37197, Control_c, 0, 64, 127
2, 37217, Note_on_c, 0, 55, 0
2, 37218, Note_on_c, 0, 39, 0
2, 37223, Note_on_c, 0, 67, 0
2, 37226, Note_on_c, 0, 59, 0
2, 37233, Note_on_c, 0, 61, 0
2, 37273, Note_on_c, 0, 65, 65
2, 37274, Note_on_c, 0, 55, 55
2, 37278, Note_on_c, 0, 59, 57
2, 37279, Note_on_c, 0, 61, 38
2, 37282, Control_c, 0, 64, 0
2, 37283, Note_on_c, 0, 43, 60
2, 37284, Note_on_c, 0, 31, 54
2, 37335, Control_c, 0, 64, 127
2, 37349, Note_on_c, 0, 65, 0
2, 37359, Note_on_c, 0, 59, 0
2, 37374, Note_on_c, 0, 61, 0
2, 37389, Note_on_c, 0, 43, 0
2, 37395, Note_on_c, 0, 55, 0
2, 37408, Note_on_c, 0, 31, 0
2, 37413, Note_on_c, 0, 37, 20
2, 37425, Note_on_c, 0, 37, 0
2, 37428, Control_c, 0, 64, 0
2, 37443, Note_on_c, 0, 55, 61
2, 37446, Note_on_c, 0, 63, 59
2, 37446, Note_on_c, 0, 58, 49
2, 37449, Note_on_c, 0, 60, 31
2, 37454, Note_on_c, 0, 44, 35
2, 37456, Note_on_c, 0, 32, 39
2, 37467, Control_c, 0, 64, 127
2, 37486, Note_on_c, 0, 32, 0
2, 37486, Note_on_c, 0, 55, 0
2, 37491, Note_on_c, 0, 60, 0
2, 37500, Note_on_c, 0, 58, 0
2, 37501, Note_on_c, 0, 44, 0
2, 37507, Note_on_c, 0, 63, 0
2, 37564, Note_on_c, 0, 70, 72
2, 37565, Control_c, 0, 64, 0
2, 37565, Note_on_c, 0, 57, 64
2, 37567, Note_on_c, 0, 63, 73
2, 37567, Note_on_c, 0, 55, 67
2, 37570, Note_on_c, 0, 60, 71
2, 37577, Note_on_c, 0, 55, 0
2, 37598, Control_c, 0, 64, 127
2, 37607, Note_on_c, 0, 57, 0
2, 37626, Note_on_c, 0, 60, 0
2, 37628, Note_on_c, 0, 70, 0
2, 37634, Note_on_c, 0, 63, 0
2, 37641, Control_c, 0, 64, 0
2, 37651, Note_on_c, 0, 63, 53
2, 37652, Note_on_c, 0, 68, 58
2, 37656, Note_on_c, 0, 54, 59
2, 37656, Note_on_c, 0, 60, 64
2, 37679, Note_on_c, 0, 54, 0
2, 37680, Note_on_c, 0, 63, 0
2, 37680, Control_c, 0, 64, 127
2, 37681, Note_on_c, 0, 68, 0
2, 37681, Note_on_c, 0, 60, 0
2, 37764, Control_c, 0, 64, 0
2, 37767, Note_on_c, 0, 60, 62
2, 37768, Note_on_c, 0, 63, 52
2, 37768, Note_on_c, 0, 55, 56
2, 37770, Note_on_c, 0, 51, 55
2, 37817, Control_c, 0, 64, 127
2, 37848, Note_on_c, 0, 55, 0
2, 37849, Note_on_c, 0, 60, 0
2, 37874, Note_on_c, 0, 63, 0
2, 37899, Note_on_c, 0, 51, 0
2, 37918, Control_c, 0, 64, 0
2, 37925, Note_on_c, 0, 58, 52
2, 37926, Note_on_c, 0, 62, 58
2, 37928, Note_on_c, 0, 53, 51
2, 37929, Note_on_c, 0, 43, 48
2, 37958, Control_c, 0, 64, 127
2, 37966, Note_on_c, 0, 53, 0
2, 37971, Note_on_c, 0, 62, 0
2, 37989, Note_on_c, 0, 58, 0
2, 38012, Control_c, 0, 64, 0
2, 38012, Note_on_c, 0, 58, 59
2, 38015, Note_on_c, 0, 65, 66
2, 38017, Note_on_c, 0, 55, 61
2, 38018, Note_on_c, 0, 43, 0
2, 38022, Note_on_c, 0, 62, 42
2, 38026, Control_c, 0, 64, 127
2, 38044, Note_on_c, 0, 62, 0
2, 38045, Note_on_c, 0, 58, 0
2, 38051, Note_on_c, 0, 65, 0
2, 38054, Note_on_c, 0, 55, 0
2, 38099, Control_c, 0, 64, 0
2, 38109, Note_on_c, 0, 69, 74
2, 38113, Note_on_c, 0, 62, 69
2, 38113, Note_on_c, 0, 57, 69
2, 38114, Note_on_c, 0, 58, 67
2, 38118, Note_on_c, 0, 65, 58
2, 38123, Control_c, 0, 64, 127
2, 38136, Note_on_c, 0, 58, 0
2, 38140, Note_on_c, 0, 62, 0
2, 38146, Note_on_c, 0, 65, 0
2, 38148, Note_on_c, 0, 69, 0
2, 38149, Note_on_c, 0, 57, 0
2, 38185, Control_c, 0, 64, 0
2, 38202, Note_on_c, 0, 75, 87
2, 38203, Note_on_c, 0, 64, 92
2, 38210, Note_on_c, 0, 73, 55
2, 38211, Note_on_c, 0, 61, 63
2, 38230, Control_c, 0, 64, 127
2, 38253, Note_on_c, 0, 61, 0
2, 38260, Note_on_c, 0, 73, 0
2, 38263, Note_on_c, 0, 64, 0
2, 38263, Note_on_c, 0, 75, 0
2, 38276, Control_c, 0, 64, 0
2, 38282, Note_on_c, 0, 73, 61
2, 38289, Note_on_c, 0, 68, 76
2, 38289, Note_on_c, 0, 64, 71
2, 38290, Note_on_c, 0, 58, 62
2, 38309, Control_c, 0, 64, 127
2, 38323, Note_on_c, 0, 64, 0
2, 38330, Note_on_c, 0, 73, 0
2, 38333, Note_on_c, 0, 68, 0
2, 38367, Control_c, 0, 64, 0
2, 38372, Note_on_c, 0, 58, 0
2, 38377, Note_on_c, 0, 72, 63
2, 38378, Note_on_c, 0, 57, 61
2, 38378, Note_on_c, 0, 67, 60
2, 38380, Note_on_c, 0, 62, 68
2, 38415, Control_c, 0, 64, 127
2, 38497, Note_on_c, 0, 62, 0
2, 38497, Note_on_c, 0, 57, 0
2, 38510, Note_on_c, 0, 67, 0
2, 38510, Note_on_c, 0, 48, 54
2, 38510, Note_on_c, 0, 57, 24
2, 38519, Note_on_c, 0, 72, 0
2, 38574, Note_on_c, 0, 57, 0
2, 38589, Control_c, 0, 64, 0
2, 38603, Note_on_c, 0, 77, 83
2, 38604, Note_on_c, 0, 72, 85
2, 38604, Note_on_c, 0, 67, 81
2, 38612, Note_on_c, 0, 57, 74
2, 38617, Note_on_c, 0, 69, 26
2, 38625, Note_on_c, 0, 69, 0
2, 38632, Control_c, 0, 64, 127
2, 38665, Note_on_c, 0, 48, 0
2, 38711, Note_on_c, 0, 48, 65
2, 38791, Note_on_c, 0, 48, 0
2, 38824, Note_on_c, 0, 48, 67
2, 38844, Note_on_c, 0, 67, 0
2, 38850, Note_on_c, 0, 72, 0
2, 38854, Note_on_c, 0, 77, 0
2, 38864, Note_on_c, 0, 48, 0
2, 38898, Note_on_c, 0, 48, 60
2, 38955, Note_on_c, 0, 57, 0
2, 38979, Note_on_c, 0, 76, 62
2, 38982, Note_on_c, 0, 69, 69
2, 38983, Note_on_c, 0, 72, 64
2, 38983, Note_on_c, 0, 67, 60
2, 38990, Note_on_c, 0, 57, 47
2, 39024, Note_on_c, 0, 48, 0
2, 39076, Note_on_c, 0, 48, 66
2, 39082, Note_on_c, 0, 72, 0
2, 39091, Note_on_c, 0, 69, 0
2, 39094, Note_on_c, 0, 76, 0
2, 39101, Note_on_c, 0, 48, 0
2, 39108, Note_on_c, 0, 67, 0
2, 39157, Note_on_c, 0, 48, 64
2, 39202, Note_on_c, 0, 48, 0
2, 39237, Note_on_c, 0, 48, 66
2, 39238, Note_on_c, 0, 72, 60
2, 39239, Note_on_c, 0, 67, 56
2, 39242, Note_on_c, 0, 64, 59
2, 39244, Note_on_c, 0, 69, 54
2, 39295, Note_on_c, 0, 57, 0
2, 39308, Note_on_c, 0, 48, 0
2, 39338, Note_on_c, 0, 48, 71
2, 39380, Note_on_c, 0, 48, 0
2, 39429, Note_on_c, 0, 48, 73
2, 39478, Note_on_c, 0, 48, 0
2, 39483, Note_on_c, 0, 64, 0
2, 39501, Note_on_c, 0, 69, 0
2, 39503, Note_on_c, 0, 67, 0
2, 39518, Note_on_c, 0, 48, 66
2, 39535, Note_on_c, 0, 72, 0
2, 39602, Note_on_c, 0, 67, 64
2, 39604, Note_on_c, 0, 63, 64
2, 39605, Note_on_c, 0, 56, 50
2, 39607, Note_on_c, 0, 60, 65
2, 39618, Control_c, 0, 64, 0
2, 39657, Control_c, 0, 64, 127
2, 39668, Note_on_c, 0, 48, 0
2, 39703, Note_on_c, 0, 48, 64
2, 39743, Note_on_c, 0, 48, 0
2, 39816, Note_on_c, 0, 48, 75
2, 39873, Note_on_c, 0, 48, 0
2, 39928, Note_on_c, 0, 48, 72
2, 39965, Note_on_c, 0, 67, 0
2, 39966, Note_on_c, 0, 48, 0
2, 40002, Note_on_c, 0, 60, 0
2, 40032, Note_on_c, 0, 63, 0
2, 40040, Note_on_c, 0, 56, 0
2, 40041, Note_on_c, 0, 48, 63
2, 40081, Control_c, 0, 64, 0
2, 40087, Note_on_c, 0, 63, 51
2, 40088, Note_on_c, 0, 60, 56
2, 40089, Note_on_c, 0, 67, 47
2, 40095, Note_on_c, 0, 56, 47
2, 40101, Control_c, 0, 64, 127
2, 40136, Note_on_c, 0, 48, 0
2, 40200, Note_on_c, 0, 48, 41
2, 40219, Note_on_c, 0, 67, 0
2, 40222, Note_on_c, 0, 48, 0
2, 40282, Note_on_c, 0, 67, 5
2, 40284, Note_on_c, 0, 48, 78
2, 40348, Note_on_c, 0, 48, 0
2, 40366, Note_on_c, 0, 56, 0
2, 40390, Note_on_c, 0, 67, 0
2, 40401, Note_on_c, 0, 60, 0
2, 40401, Note_on_c, 0, 48, 70
2, 40423, Note_on_c, 0, 63, 0
2, 40428, Note_on_c, 0, 48, 0
2, 40449, Note_on_c, 0, 67, 68
2, 40451, Note_on_c, 0, 62, 69
2, 40454, Note_on_c, 0, 59, 58
2, 40459, Note_on_c, 0, 48, 38
2, 40462, Note_on_c, 0, 55, 67
2, 40466, Control_c, 0, 64, 0
2, 40481, Note_on_c, 0, 48, 0
2, 40497, Control_c, 0, 64, 127
2, 40527, Note_on_c, 0, 48, 75
2, 40574, Note_on_c, 0, 48, 0
2, 40593, Note_on_c, 0, 59, 0
2, 40619, Note_on_c, 0, 55, 0
2, 40627, Note_on_c, 0, 62, 0
2, 40640, Note_on_c, 0, 48, 66
2, 40644, Note_on_c, 0, 55, 45
2, 40647, Note_on_c, 0, 67, 0
2, 40695, Note_on_c, 0, 48, 0
2, 40720, Note_on_c, 0, 55, 0
2, 40746, Note_on_c, 0, 48, 85
2, 40789, Note_on_c, 0, 48, 0
2, 40823, Note_on_c, 0, 48, 85
2, 40886, Note_on_c, 0, 48, 0
2, 40914, Note_on_c, 0, 65, 62
2, 40916, Note_on_c, 0, 54, 53
2, 40919, Note_on_c, 0, 61, 46
2, 40920, Note_on_c, 0, 58, 49
2, 40920, Note_on_c, 0, 48, 64
2, 40964, Note_on_c, 0, 48, 0
2, 40998, Control_c, 0, 64, 0
2, 41001, Note_on_c, 0, 48, 67
2, 41033, Control_c, 0, 64, 127
2, 41034, Note_on_c, 0, 48, 0
2, 41118, Note_on_c, 0, 48, 88
2, 41145, Control_c, 0, 64, 0
2, 41161, Note_on_c, 0, 48, 0
2, 41184, Control_c, 0, 64, 127
2, 41213, Note_on_c, 0, 54, 0
2, 41226, Note_on_c, 0, 65, 0
2, 41244, Note_on_c, 0, 47, 57
2, 41247, Note_on_c, 0, 61, 0
2, 41250, Note_on_c, 0, 58, 0
2, 41275, Note_on_c, 0, 47, 0
2, 41286, Note_on_c, 0, 48, 58
2, 41286, Note_on_c, 0, 55, 51
2, 41288, Note_on_c, 0, 57, 56
2, 41290, Note_on_c, 0, 60, 47
2, 41297, Control_c, 0, 64, 0
2, 41316, Note_on_c, 0, 48, 0
2, 41374, Note_on_c, 0, 48, 63
2, 41390, Note_on_c, 0, 48, 0
2, 41488, Note_on_c, 0, 47, 65
2, 41516, Note_on_c, 0, 47, 0
2, 41539, Note_on_c, 0, 48, 71
2, 41656, Control_c, 0, 64, 127
2, 41699, Note_on_c, 0, 48, 0
2, 41725, Note_on_c, 0, 47, 58
2, 41751, Control_c, 0, 64, 0
2, 41754, Note_on_c, 0, 47, 0
2, 41774, Note_on_c, 0, 48, 66
2, 41799, Note_on_c, 0, 48, 0
2, 41822, Note_on_c, 0, 57, 0
2, 41828, Note_on_c, 0, 55, 0
2, 41832, Note_on_c, 0, 60, 0
2, 41850, Control_c, 0, 64, 127
2, 41862, Note_on_c, 0, 49, 62
2, 41881, Control_c, 0, 64, 0
2, 41891, Note_on_c, 0, 49, 0
2, 41909, Note_on_c, 0, 50, 55
2, 41909, Note_on_c, 0, 54, 52
2, 41910, Note_on_c, 0, 60, 59
2, 41986, Note_on_c, 0, 38, 54
2, 41995, Note_on_c, 0, 50, 0
2, 42028, Note_on_c, 0, 38, 0
2, 42103, Note_on_c, 0, 45, 71
2, 42133, Note_on_c, 0, 45, 0
2, 42196, Control_c, 0, 64, 127
2, 42215, Note_on_c, 0, 44, 58
2, 42219, Note_on_c, 0, 54, 0
2, 42226, Note_on_c, 0, 60, 0
2, 42253, Note_on_c, 0, 44, 0
2, 42260, Control_c, 0, 64, 0
2, 42265, Note_on_c, 0, 62, 49
2, 42267, Note_on_c, 0, 58, 46
2, 42268, Note_on_c, 0, 43, 60
2, 42272, Note_on_c, 0, 53, 44
2, 42285, Control_c, 0, 64, 127
2, 42345, Note_on_c, 0, 31, 68
2, 42348, Control_c, 0, 64, 0
2, 42376, Control_c, 0, 64, 127
2, 42415, Note_on_c, 0, 62, 0
2, 42434, Note_on_c, 0, 53, 0
2, 42458, Note_on_c, 0, 58, 0
2, 42461, Note_on_c, 0, 43, 0
2, 42487, Control_c, 0, 64, 0
2, 42492, Note_on_c, 0, 31, 0
2, 42500, Note_on_c, 0, 41, 55
2, 42532, Control_c, 0, 64, 127
2, 42547, Control_c, 0, 64, 0
2, 42575, Note_on_c, 0, 29, 55
2, 42603, Control_c, 0, 64, 127
2, 42631, Note_on_c, 0, 41, 0
2, 42663, Note_on_c, 0, 29, 0
2, 42678, Control_c, 0, 64, 0
2, 42684, Note_on_c, 0, 69, 72
2, 42686, Note_on_c, 0, 58, 62
2, 42686, Note_on_c, 0, 62, 66
2, 42689, Note_on_c, 0, 40, 45
2, 42691, Note_on_c, 0, 64, 54
2, 42718, Control_c, 0, 64, 127
2, 42757, Note_on_c, 0, 58, 0
2, 42773, Note_on_c, 0, 69, 0
2, 42792, Note_on_c, 0, 62, 0
2, 42793, Note_on_c, 0, 28, 66
2, 42800, Note_on_c, 0, 64, 0
2, 42817, Note_on_c, 0, 28, 0
2, 42821, Note_on_c, 0, 40, 0
2, 42919, Note_on_c, 0, 70, 82
2, 42920, Note_on_c, 0, 61, 87
2, 42921, Note_on_c, 0, 66, 83
2, 42922, Note_on_c, 0, 55, 83
2, 42924, Control_c, 0, 64, 0
2, 42972, Control_c, 0, 64, 127
2, 43024, Control_c, 0, 64, 0
2, 43036, Note_on_c, 0, 45, 66
2, 43051, Note_on_c, 0, 55, 0
2, 43066, Control_c, 0, 64, 127
2, 43153, Note_on_c, 0, 61, 0
2, 43155, Note_on_c, 0, 66, 0
2, 43157, Note_on_c, 0, 70, 0
2, 43157, Note_on_c, 0, 49, 32
2, 43168, Note_on_c, 0, 45, 0
2, 43185, Note_on_c, 0, 49, 0
2, 43193, Control_c, 0, 64, 0
2, 43197, Note_on_c, 0, 50, 31
2, 43199, Note_on_c, 0, 69, 59
2, 43199, Note_on_c, 0, 65, 58
2, 43200, Note_on_c, 0, 60, 46
2, 43309, Control_c, 0, 64, 127
2, 43326, Note_on_c, 0, 65, 0
2, 43329, Note_on_c, 0, 69, 0
2, 43352, Note_on_c, 0, 60, 0
2, 43400, Note_on_c, 0, 50, 0
2, 43412, Note_on_c, 0, 46, 27
2, 43434, Note_on_c, 0, 67, 41
2, 43435, Control_c, 0, 64, 0
2, 43436, Note_on_c, 0, 57, 49
2, 43437, Note_on_c, 0, 46, 0
2, 43437, Note_on_c, 0, 62, 50
2, 43445, Note_on_c, 0, 48, 36
2, 43522, Note_on_c, 0, 67, 0
2, 43533, Control_c, 0, 64, 127
2, 43533, Note_on_c, 0, 65, 52
2, 43535, Note_on_c, 0, 57, 0
2, 43550, Note_on_c, 0, 48, 0
2, 43557, Note_on_c, 0, 62, 0
2, 43578, Note_on_c, 0, 65, 0
2, 43620, Control_c, 0, 64, 0
2, 43628, Control_c, 0, 64, 127
2, 43645, Note_on_c, 0, 47, 24
2, 43655, Note_on_c, 0, 47, 0
2, 43766, Note_on_c, 0, 76, 74
2, 43767, Note_on_c, 0, 73, 74
2, 43768, Note_on_c, 0, 66, 67
2, 43768, Note_on_c, 0, 62, 55
2, 43769, Note_on_c, 0, 69, 75
2, 43771, Note_on_c, 0, 64, 63
2, 43780, Control_c, 0, 64, 0
2, 43808, Control_c, 0, 64, 127
2, 43828, Note_on_c, 0, 76, 0
2, 43832, Note_on_c, 0, 66, 0
2, 43843, Note_on_c, 0, 69, 0
2, 43852, Note_on_c, 0, 73, 0
2, 43855, Note_on_c, 0, 64, 0
2, 43858, Note_on_c, 0, 62, 0
2, 43867, Note_on_c, 0, 77, 68
2, 43915, Note_on_c, 0, 77, 0
2, 43948, Note_on_c, 0, 62, 53
2, 43948, Note_on_c, 0, 72, 54
2, 43952, Control_c, 0, 64, 0
2, 43953, Note_on_c, 0, 56, 47
2, 43955, Note_on_c, 0, 67, 41
2, 43996, Control_c, 0, 64, 127
2, 44047, Note_on_c, 0, 76, 57
2, 44056, Note_on_c, 0, 62, 0
2, 44072, Note_on_c, 0, 67, 0
2, 44088, Note_on_c, 0, 72, 0
2, 44096, Note_on_c, 0, 76, 0
2, 44099, Note_on_c, 0, 56, 0
2, 44142, Note_on_c, 0, 71, 64
2, 44144, Note_on_c, 0, 67, 45
2, 44145, Note_on_c, 0, 64, 49
2, 44147, Note_on_c, 0, 60, 56
2, 44148, Control_c, 0, 64, 0
2, 44168, Note_on_c, 0, 57, 18
2, 44177, Note_on_c, 0, 67, 0
2, 44193, Note_on_c, 0, 71, 0
2, 44201, Control_c, 0, 64, 127
2, 44207, Note_on_c, 0, 57, 0
2, 44213, Note_on_c, 0, 64, 0
2, 44213, Note_on_c, 0, 60, 0
2, 44240, Control_c, 0, 64, 0
2, 44247, Note_on_c, 0, 72, 77
2, 44247, Note_on_c, 0, 84, 77
2, 44250, Note_on_c, 0, 60, 51
2, 44252, Note_on_c, 0, 55, 48
2, 44264, Note_on_c, 0, 72, 0
2, 44266, Note_on_c, 0, 60, 0
2, 44268, Note_on_c, 0, 55, 0
2, 44269, Note_on_c, 0, 84, 0
2, 44314, Control_c, 0, 64, 127
2, 44398, Control_c, 0, 64, 0
2, 44417, Note_on_c, 0, 65, 59
2, 44417, Note_on_c, 0, 89, 68
2, 44419, Note_on_c, 0, 60, 42
2, 44419, Note_on_c, 0, 77, 43
2, 44422, Note_on_c, 0, 54, 36
2, 44425, Note_on_c, 0, 58, 32
2, 44437, Control_c, 0, 64, 127
2, 44514, Note_on_c, 0, 77, 0
2, 44514, Note_on_c, 0, 65, 0
2, 44515, Note_on_c, 0, 60, 0
2, 44526, Note_on_c, 0, 89, 0
2, 44536, Note_on_c, 0, 58, 0
2, 44554, Note_on_c, 0, 54, 0
2, 44639, Control_c, 0, 64, 0
2, 44653, Note_on_c, 0, 94, 65
2, 44654, Note_on_c, 0, 59, 36
2, 44655, Note_on_c, 0, 53, 43
2, 44658, Note_on_c, 0, 82, 34
2, 44659, Note_on_c, 0, 64, 26
2, 44690, Control_c, 0, 64, 127
2, 44734, Note_on_c, 0, 64, 0
2, 44742, Note_on_c, 0, 59, 0
2, 44744, Note_on_c, 0, 53, 0
2, 44747, Note_on_c, 0, 94, 0
2, 44762, Note_on_c, 0, 82, 0
2, 44848, Note_on_c, 0, 93, 62
2, 44851, Note_on_c, 0, 63, 55
2, 44851, Note_on_c, 0, 81, 54
2, 44852, Note_on_c, 0, 58, 48
2, 44853, Note_on_c, 0, 85, 34
2, 44855, Note_on_c, 0, 88, 45
2, 44856, Note_on_c, 0, 52, 37
2, 44862, Note_on_c, 0, 85, 0
2, 44866, Note_on_c, 0, 63, 0
2, 44866, Note_on_c, 0, 88, 0
2, 44867, Note_on_c, 0, 81, 0
2, 44869, Note_on_c, 0, 52, 0
2, 44870, Note_on_c, 0, 93, 0
2, 44872, Control_c, 0, 64, 0
2, 44875, Note_on_c, 0, 58, 0
2, 44966, Note_on_c, 0, 46, 56
2, 44970, Note_on_c, 0, 34, 56
2, 44985, Note_on_c, 0, 34, 0
2, 44988, Note_on_c, 0, 46, 0
2, 45083, Note_on_c, 0, 33, 60
2, 45091, Note_on_c, 0, 45, 42
2, 45107, Note_on_c, 0, 45, 0
2, 45107, Note_on_c, 0, 33, 0
2, 45125, Control_c, 0, 64, 127
2, 45198, Note_on_c, 0, 60, 74
2, 45202, Note_on_c, 0, 55, 82
2, 45203, Note_on_c, 0, 61, 77
2, 45204, Note_on_c, 0, 84, 87
2, 45204, Note_on_c, 0, 65, 87
2, 45205, Note_on_c, 0, 58, 60
2, 45206, Note_on_c, 0, 77, 84
2, 45206, Note_on_c, 0, 81, 78
2, 45206, Note_on_c, 0, 72, 91
2, 45215, Control_c, 0, 64, 0
2, 45246, Note_on_c, 0, 72, 0
2, 45250, Note_on_c, 0, 77, 0
2, 45251, Note_on_c, 0, 65, 0
2, 45256, Note_on_c, 0, 84, 0
2, 45256, Note_on_c, 0, 81, 0
2, 45259, Note_on_c, 0, 55, 0
2, 45262, Note_on_c, 0, 60, 0
2, 45264, Note_on_c, 0, 61, 0
2, 45269, Note_on_c, 0, 58, 0
2, 45291, Control_c, 0, 64, 127
2, 45311, Note_on_c, 0, 61, 67
2, 45311, Note_on_c, 0, 60, 55
2, 45312, Note_on_c, 0, 65, 81
2, 45312, Note_on_c, 0, 55, 74
2, 45313, Note_on_c, 0, 72, 85
2, 45313, Note_on_c, 0, 84, 80
2, 45313, Note_on_c, 0, 77, 74
2, 45314, Note_on_c, 0, 81, 73
2, 45317, Note_on_c, 0, 58, 42
2, 45322, Note_on_c, 0, 60, 0
2, 45327, Note_on_c, 0, 77, 0
2, 45327, Note_on_c, 0, 65, 0
2, 45329, Note_on_c, 0, 72, 0
2, 45341, Note_on_c, 0, 81, 0
2, 45341, Note_on_c, 0, 55, 0
2, 45341, Note_on_c, 0, 61, 0
2, 45344, Note_on_c, 0, 84, 0
2, 45345, Note_on_c, 0, 58, 0
2, 45377, Control_c, 0, 64, 0
2, 45391, Note_on_c, 0, 54, 79
2, 45392, Note_on_c, 0, 82, 86
2, 45392, Note_on_c, 0, 65, 82
2, 45392, Note_on_c, 0, 58, 60
2, 45393, Note_on_c, 0, 60, 71
2, 45394, Note_on_c, 0, 77, 78
2, 45395, Note_on_c, 0, 89, 84
2, 45395, Note_on_c, 0, 86, 70
2, 45422, Control_c, 0, 64, 127
2, 45444, Note_on_c, 0, 77, 0
2, 45446, Note_on_c, 0, 82, 0
2, 45448, Note_on_c, 0, 89, 0
2, 45449, Note_on_c, 0, 65, 0
2, 45450, Note_on_c, 0, 54, 0
2, 45453, Note_on_c, 0, 86, 0
2, 45454, Note_on_c, 0, 60, 0
2, 45458, Control_c, 0, 64, 0
2, 45474, Note_on_c, 0, 89, 66
2, 45474, Note_on_c, 0, 65, 71
2, 45475, Note_on_c, 0, 82, 71
2, 45475, Note_on_c, 0, 54, 77
2, 45478, Note_on_c, 0, 86, 52
2, 45479, Note_on_c, 0, 77, 48
2, 45483, Note_on_c, 0, 60, 57
2, 45490, Note_on_c, 0, 77, 0
2, 45492, Note_on_c, 0, 60, 0
2, 45497, Note_on_c, 0, 82, 0
2, 45499, Note_on_c, 0, 86, 0
2, 45503, Note_on_c, 0, 65, 0
2, 45508, Note_on_c, 0, 89, 0
2, 45521, Note_on_c, 0, 58, 0
2, 45523, Note_on_c, 0, 54, 0
2, 45523, Control_c, 0, 64, 127
2, 45546, Control_c, 0, 64, 0
2, 45576, Note_on_c, 0, 94, 88
2, 45577, Note_on_c, 0, 53, 94
2, 45577, Note_on_c, 0, 59, 84
2, 45577, Note_on_c, 0, 64, 99
2, 45579, Note_on_c, 0, 82, 92
2, 45580, Note_on_c, 0, 87, 86
2, 45616, Control_c, 0, 64, 127
2, 45706, Note_on_c, 0, 87, 0
2, 45707, Note_on_c, 0, 59, 0
2, 45710, Note_on_c, 0, 64, 0
2, 45714, Note_on_c, 0, 53, 0
2, 45720, Note_on_c, 0, 94, 0
2, 45721, Note_on_c, 0, 82, 0
2, 45802, Note_on_c, 0, 85, 92
2, 45803, Note_on_c, 0, 58, 83
2, 45803, Note_on_c, 0, 93, 88
2, 45803, Note_on_c, 0, 88, 84
2, 45803, Note_on_c, 0, 81, 89
2, 45804, Note_on_c, 0, 63, 91
2, 45804, Control_c, 0, 64, 0
2, 45805, Note_on_c, 0, 52, 89
2, 45808, Note_on_c, 0, 91, 57
2, 45863, Control_c, 0, 64, 127
2, 45937, Note_on_c, 0, 93, 0
2, 45947, Note_on_c, 0, 88, 0
2, 45950, Note_on_c, 0, 91, 0
2, 45964, Note_on_c, 0, 63, 0
2, 45967, Note_on_c, 0, 85, 0
2, 45976, Note_on_c, 0, 81, 0
2, 45988, Note_on_c, 0, 52, 0
2, 46038, Note_on_c, 0, 58, 0
2, 46206, Control_c, 0, 64, 0
2, 46207, Note_on_c, 0, 58, 71
2, 46207, Note_on_c, 0, 55, 75
2, 46208, Note_on_c, 0, 45, 75
2, 46208, Note_on_c, 0, 65, 71
2, 46209, Note_on_c, 0, 61, 59
2, 46226, Note_on_c, 0, 55, 0
2, 46238, Note_on_c, 0, 45, 0
2, 46246, Note_on_c, 0, 58, 0
2, 46249, Note_on_c, 0, 65, 0
2, 46250, Note_on_c, 0, 61, 0
2, 46333, Control_c, 0, 64, 127
2, 46401, Note_on_c, 0, 65, 74
2, 46402, Note_on_c, 0, 50, 74
2, 46404, Note_on_c, 0, 63, 49
2, 46407, Note_on_c, 0, 49, 37
2, 46408, Control_c, 0, 64, 0
2, 46411, Note_on_c, 0, 65, 0
2, 46413, Note_on_c, 0, 63, 0
2, 46417, Note_on_c, 0, 49, 0
2, 46422, Note_on_c, 0, 50, 0
2, 46639, Note_on_c, 0, 70, 70
2, 46641, Note_on_c, 0, 63, 71
2, 46642, Note_on_c, 0, 59, 68
2, 46643, Note_on_c, 0, 67, 59
2, 46645, Note_on_c, 0, 53, 69
2, 46655, Note_on_c, 0, 59, 0
2, 46659, Note_on_c, 0, 53, 0
2, 46662, Note_on_c, 0, 63, 0
2, 46663, Note_on_c, 0, 67, 0
2, 46672, Note_on_c, 0, 70, 0
2, 46737, Control_c, 0, 64, 127
2, 46765, Control_c, 0, 64, 0
2, 46805, Note_on_c, 0, 58, 50
2, 46806, Note_on_c, 0, 61, 49
2, 46807, Note_on_c, 0, 48, 58
2, 46807, Note_on_c, 0, 69, 57
2, 46808, Note_on_c, 0, 64, 57
2, 46812, Note_on_c, 0, 36, 36
2, 46835, Note_on_c, 0, 48, 0
2, 46840, Control_c, 0, 64, 127
2, 46849, Note_on_c, 0, 36, 0
2, 46869, Note_on_c, 0, 69, 0
2, 46905, Note_on_c, 0, 64, 0
2, 46912, Note_on_c, 0, 58, 0
2, 46956, Note_on_c, 0, 61, 0
2, 47029, Control_c, 0, 64, 0
2, 47040, Note_on_c, 0, 65, 48
2, 47041, Note_on_c, 0, 55, 52
2, 47043, Note_on_c, 0, 60, 52
2, 47046, Note_on_c, 0, 41, 39
2, 47048, Note_on_c, 0, 29, 28
2, 47055, Note_on_c, 0, 55, 0
2, 47064, Note_on_c, 0, 29, 0
2, 47064, Note_on_c, 0, 60, 0
2, 47068, Note_on_c, 0, 65, 0
2, 47079, Note_on_c, 0, 41, 0
2, 47288, Note_on_c, 0, 103, 35
2, 47290, Note_on_c, 0, 93, 44
2, 47290, Note_on_c, 0, 98, 43
2, 47290, Note_on_c, 0, 88, 51
2, 47311, Note_on_c, 0, 93, 0
2, 47312, Note_on_c, 0, 88, 0
2, 47312, Note_on_c, 0, 98, 0
2, 47326, Note_on_c, 0, 103, 0
2, 47522, Note_on_c, 0, 88, 44
2, 47523, Note_on_c, 0, 92, 44
2, 47526, Note_on_c, 0, 102, 40
2, 47528, Note_on_c, 0, 87, 37
2, 47528, Note_on_c, 0, 97, 48
2, 47548, Note_on_c, 0, 87, 0
2, 47549, Note_on_c, 0, 88, 0
2, 47553, Note_on_c, 0, 92, 0
2, 47555, Note_on_c, 0, 97, 0
2, 47556, Note_on_c, 0, 102, 0
2, 47703, Note_on_c, 0, 103, 29
2, 47703, Note_on_c, 0, 88, 30
2, 47703, Note_on_c, 0, 91, 35
2, 47707, Note_on_c, 0, 98, 52
2, 47707, Note_on_c, 0, 93, 40
2, 47708, Note_on_c, 0, 86, 27
2, 47709, Note_on_c, 0, 87, 32
2, 47796, Note_on_c, 0, 93, 0
2, 47802, Note_on_c, 0, 91, 0
2, 47805, Note_on_c, 0, 98, 0
2, 47808, Note_on_c, 0, 103, 0
2, 47814, Note_on_c, 0, 87, 0
2, 47816, Note_on_c, 0, 88, 0
2, 47820, Note_on_c, 0, 86, 0
2, 48669, Lyric_t, " "
2, 48669, End_track
3, 0, Start_track
3, 0, MIDI_port, 0
3, 0, Program_c, 1, 32
3, 0, End_track
4, 0, Start_track
4, 0, MIDI_port, 0
4, 0, End_track
0, 0, End_of_file
