0, 0, Header, 0, 1, 120
1, 0, Start_track
1, 0, Title_t, "Michel Pettrucciani's Latin song]"
1, 0, Time_signature, 4, 2, 24, 8
1, 0, Key_signature, 0, "major"
1, 0, Tempo, 315789
1, 0, Program_c, 0, 0
1, 0, Control_c, 0, 7, 101
1, 0, Program_c, 1, 37
1, 0, Control_c, 1, 7, 94
1, 0, Control_c, 1, 10, 60
1, 0, Note_on_c, 1, 31, 66
1, 0, Program_c, 9, 0
1, 0, Control_c, 9, 7, 93
1, 0, Program_c, 9, 0
1, 0, Control_c, 9, 7, 105
1, 0, Control_c, 9, 10, 60
1, 4, Note_on_c, 9, 35, 79
1, 9, Note_on_c, 0, 79, 83
1, 31, Note_on_c, 9, 35, 0
1, 111, Note_on_c, 9, 37, 71
1, 124, Note_on_c, 9, 59, 72
1, 135, Note_on_c, 9, 59, 0
1, 151, Note_on_c, 9, 37, 0
1, 182, Note_on_c, 1, 31, 0
1, 183, Note_on_c, 1, 38, 68
1, 184, Note_on_c, 9, 35, 52
1, 198, Note_on_c, 0, 72, 61
1, 198, Note_on_c, 0, 68, 46
1, 200, Note_on_c, 0, 62, 53
1, 203, Note_on_c, 0, 55, 36
1, 210, Note_on_c, 9, 35, 0
1, 210, Note_on_c, 0, 60, 34
1, 214, Note_on_c, 0, 62, 0
1, 217, Note_on_c, 0, 68, 0
1, 220, Note_on_c, 0, 55, 0
1, 222, Note_on_c, 0, 72, 0
1, 222, Note_on_c, 0, 60, 0
1, 237, Note_on_c, 0, 79, 0
1, 239, Note_on_c, 9, 37, 79
1, 240, Note_on_c, 9, 59, 72
1, 244, Note_on_c, 9, 35, 52
1, 253, Note_on_c, 9, 59, 0
1, 284, Note_on_c, 9, 37, 0
1, 297, Note_on_c, 9, 59, 75
1, 308, Note_on_c, 9, 59, 0
1, 343, Note_on_c, 9, 35, 0
1, 360, Note_on_c, 1, 38, 0
1, 368, Note_on_c, 1, 43, 76
1, 369, Note_on_c, 0, 62, 45
1, 370, Note_on_c, 0, 55, 44
1, 374, Note_on_c, 0, 60, 44
1, 386, Note_on_c, 0, 55, 0
1, 386, Note_on_c, 0, 62, 0
1, 387, Note_on_c, 0, 60, 0
1, 413, Note_on_c, 9, 59, 74
1, 424, Note_on_c, 9, 35, 45
1, 425, Note_on_c, 9, 59, 0
1, 447, Note_on_c, 9, 35, 0
1, 484, Note_on_c, 9, 35, 49
1, 490, Note_on_c, 9, 37, 80
1, 526, Note_on_c, 9, 35, 0
1, 528, Note_on_c, 9, 37, 0
1, 536, Note_on_c, 9, 59, 62
1, 546, Note_on_c, 9, 59, 0
1, 561, Note_on_c, 0, 62, 47
1, 568, Note_on_c, 0, 56, 20
1, 568, Note_on_c, 0, 60, 35
1, 570, Note_on_c, 0, 55, 33
1, 582, Note_on_c, 0, 60, 0
1, 583, Note_on_c, 0, 62, 0
1, 587, Note_on_c, 0, 55, 0
1, 603, Note_on_c, 0, 56, 0
1, 650, Note_on_c, 9, 37, 81
1, 659, Note_on_c, 1, 43, 0
1, 663, Note_on_c, 9, 59, 68
1, 664, Note_on_c, 9, 35, 44
1, 665, Note_on_c, 1, 38, 71
1, 679, Note_on_c, 9, 59, 0
1, 691, Note_on_c, 9, 35, 0
1, 703, Note_on_c, 9, 37, 0
1, 724, Note_on_c, 9, 35, 47
1, 724, Note_on_c, 9, 59, 66
1, 733, Note_on_c, 0, 62, 47
1, 735, Note_on_c, 0, 56, 36
1, 736, Note_on_c, 0, 60, 44
1, 738, Note_on_c, 0, 55, 34
1, 746, Note_on_c, 9, 59, 0
1, 747, Note_on_c, 0, 62, 0
1, 750, Note_on_c, 0, 55, 0
1, 751, Note_on_c, 0, 60, 0
1, 757, Note_on_c, 9, 35, 0
1, 765, Note_on_c, 0, 56, 0
1, 784, Note_on_c, 9, 35, 47
1, 814, Note_on_c, 9, 35, 0
1, 835, Note_on_c, 9, 37, 77
1, 844, Note_on_c, 9, 59, 84
1, 849, Note_on_c, 1, 31, 80
1, 852, Note_on_c, 1, 38, 0
1, 865, Note_on_c, 9, 59, 0
1, 883, Note_on_c, 9, 37, 0
1, 904, Note_on_c, 9, 35, 40
1, 930, Note_on_c, 9, 35, 0
1, 964, Note_on_c, 9, 35, 41
1, 972, Note_on_c, 9, 59, 58
1, 973, Note_on_c, 0, 62, 54
1, 975, Note_on_c, 0, 60, 54
1, 976, Note_on_c, 0, 56, 34
1, 981, Note_on_c, 0, 55, 29
1, 984, Note_on_c, 0, 62, 0
1, 986, Note_on_c, 9, 59, 0
1, 988, Note_on_c, 0, 60, 0
1, 991, Note_on_c, 0, 55, 0
1, 992, Note_on_c, 9, 35, 0
1, 1001, Note_on_c, 0, 56, 0
1, 1034, Note_on_c, 9, 59, 72
1, 1055, Note_on_c, 9, 59, 0
1, 1082, Note_on_c, 9, 37, 83
1, 1116, Note_on_c, 9, 37, 0
1, 1144, Note_on_c, 9, 35, 54
1, 1146, Note_on_c, 1, 31, 0
1, 1146, Note_on_c, 0, 78, 93
1, 1147, Note_on_c, 9, 59, 74
1, 1148, Note_on_c, 1, 38, 84
1, 1149, Note_on_c, 0, 56, 57
1, 1149, Note_on_c, 0, 62, 81
1, 1149, Note_on_c, 0, 60, 76
1, 1152, Note_on_c, 0, 91, 64
1, 1152, Note_on_c, 0, 55, 64
1, 1152, Note_on_c, 0, 89, 65
1, 1155, Note_on_c, 0, 85, 34
1, 1159, Note_on_c, 0, 88, 41
1, 1162, Note_on_c, 0, 55, 0
1, 1164, Note_on_c, 0, 60, 0
1, 1165, Note_on_c, 0, 85, 0
1, 1166, Note_on_c, 0, 62, 0
1, 1167, Note_on_c, 9, 35, 0
1, 1170, Note_on_c, 9, 59, 0
1, 1172, Note_on_c, 0, 88, 0
1, 1176, Note_on_c, 0, 56, 0
1, 1179, Note_on_c, 0, 78, 0
1, 1180, Note_on_c, 0, 79, 62
1, 1200, Note_on_c, 0, 91, 0
1, 1201, Note_on_c, 9, 37, 87
1, 1204, Note_on_c, 0, 89, 0
1, 1204, Note_on_c, 9, 35, 44
1, 1206, Note_on_c, 0, 79, 0
1, 1232, Note_on_c, 0, 89, 66
1, 1237, Note_on_c, 0, 77, 71
1, 1238, Note_on_c, 9, 35, 0
1, 1242, Note_on_c, 9, 37, 0
1, 1266, Note_on_c, 9, 59, 71
1, 1274, Note_on_c, 0, 89, 0
1, 1277, Note_on_c, 0, 77, 0
1, 1296, Note_on_c, 9, 59, 0
1, 1321, Note_on_c, 0, 87, 79
1, 1321, Note_on_c, 0, 75, 74
1, 1324, Note_on_c, 9, 37, 25
1, 1326, Note_on_c, 0, 62, 54
1, 1327, Note_on_c, 1, 43, 85
1, 1328, Note_on_c, 0, 60, 47
1, 1329, Note_on_c, 0, 56, 34
1, 1337, Note_on_c, 0, 62, 0
1, 1341, Note_on_c, 9, 37, 0
1, 1342, Note_on_c, 1, 38, 0
1, 1342, Note_on_c, 0, 60, 0
1, 1352, Note_on_c, 0, 56, 0
1, 1359, Note_on_c, 0, 87, 0
1, 1360, Note_on_c, 0, 75, 0
1, 1379, Note_on_c, 9, 59, 60
1, 1384, Note_on_c, 9, 35, 45
1, 1395, Note_on_c, 9, 59, 0
1, 1407, Note_on_c, 0, 74, 68
1, 1410, Note_on_c, 9, 35, 0
1, 1412, Note_on_c, 0, 86, 46
1, 1428, Note_on_c, 0, 74, 0
1, 1435, Note_on_c, 0, 86, 0
1, 1435, Note_on_c, 9, 59, 50
1, 1444, Note_on_c, 9, 35, 52
1, 1447, Note_on_c, 9, 37, 83
1, 1474, Note_on_c, 9, 35, 0
1, 1482, Note_on_c, 9, 59, 0
1, 1497, Note_on_c, 9, 37, 0
1, 1510, Note_on_c, 0, 56, 50
1, 1511, Note_on_c, 0, 62, 62
1, 1512, Note_on_c, 0, 60, 62
1, 1515, Note_on_c, 0, 91, 75
1, 1515, Note_on_c, 0, 79, 68
1, 1515, Note_on_c, 0, 55, 40
1, 1522, Note_on_c, 0, 62, 0
1, 1526, Note_on_c, 0, 55, 0
1, 1530, Note_on_c, 0, 60, 0
1, 1537, Note_on_c, 0, 79, 0
1, 1538, Note_on_c, 0, 56, 0
1, 1538, Note_on_c, 0, 91, 0
1, 1558, Note_on_c, 9, 59, 55
1, 1568, Note_on_c, 9, 59, 0
1, 1614, Note_on_c, 9, 37, 78
1, 1622, Note_on_c, 1, 43, 0
1, 1624, Note_on_c, 9, 35, 50
1, 1625, Note_on_c, 9, 59, 76
1, 1630, Note_on_c, 1, 38, 84
1, 1632, Note_on_c, 0, 89, 82
1, 1632, Note_on_c, 0, 77, 74
1, 1636, Note_on_c, 0, 62, 42
1, 1638, Note_on_c, 0, 56, 29
1, 1641, Note_on_c, 0, 60, 27
1, 1647, Note_on_c, 0, 62, 0
1, 1648, Note_on_c, 9, 35, 0
1, 1651, Note_on_c, 9, 59, 0
1, 1652, Note_on_c, 0, 60, 0
1, 1653, Note_on_c, 0, 56, 0
1, 1656, Note_on_c, 0, 89, 0
1, 1656, Note_on_c, 0, 77, 0
1, 1678, Note_on_c, 9, 37, 0
1, 1684, Note_on_c, 9, 35, 47
1, 1713, Note_on_c, 9, 35, 0
1, 1744, Note_on_c, 9, 35, 46
1, 1747, Note_on_c, 0, 87, 87
1, 1747, Note_on_c, 0, 75, 83
1, 1750, Note_on_c, 0, 56, 53
1, 1750, Note_on_c, 0, 62, 73
1, 1752, Note_on_c, 0, 60, 61
1, 1752, Note_on_c, 9, 59, 44
1, 1760, Note_on_c, 0, 62, 0
1, 1762, Note_on_c, 0, 60, 0
1, 1767, Note_on_c, 9, 59, 0
1, 1769, Note_on_c, 0, 75, 0
1, 1775, Note_on_c, 9, 35, 0
1, 1782, Note_on_c, 0, 56, 0
1, 1783, Note_on_c, 0, 87, 0
1, 1803, Note_on_c, 9, 37, 79
1, 1804, Note_on_c, 1, 38, 0
1, 1810, Note_on_c, 9, 59, 75
1, 1811, Note_on_c, 1, 36, 87
1, 1854, Note_on_c, 9, 59, 0
1, 1854, Note_on_c, 9, 37, 0
1, 1864, Note_on_c, 9, 35, 42
1, 1873, Note_on_c, 0, 86, 57
1, 1874, Note_on_c, 0, 74, 56
1, 1890, Note_on_c, 0, 86, 0
1, 1890, Note_on_c, 9, 35, 0
1, 1894, Note_on_c, 0, 74, 0
1, 1914, Note_on_c, 0, 63, 57
1, 1924, Note_on_c, 9, 35, 50
1, 1924, Note_on_c, 9, 59, 43
1, 1929, Note_on_c, 0, 58, 39
1, 1930, Note_on_c, 0, 86, 53
1, 1933, Note_on_c, 0, 74, 54
1, 1936, Note_on_c, 0, 63, 0
1, 1938, Note_on_c, 9, 59, 0
1, 1951, Note_on_c, 9, 35, 0
1, 1971, Note_on_c, 0, 58, 0
1, 1974, Note_on_c, 0, 86, 0
1, 1977, Note_on_c, 0, 74, 0
1, 1996, Note_on_c, 9, 59, 71
1, 2019, Note_on_c, 9, 59, 0
1, 2047, Note_on_c, 9, 37, 82
1, 2053, Note_on_c, 0, 87, 68
1, 2055, Note_on_c, 0, 75, 65
1, 2069, Note_on_c, 0, 75, 0
1, 2073, Note_on_c, 0, 87, 0
1, 2090, Note_on_c, 9, 37, 0
1, 2104, Note_on_c, 9, 35, 49
1, 2106, Note_on_c, 1, 43, 85
1, 2112, Note_on_c, 1, 36, 0
1, 2120, Note_on_c, 9, 59, 57
1, 2124, Note_on_c, 0, 63, 51
1, 2127, Note_on_c, 9, 35, 0
1, 2130, Note_on_c, 9, 59, 0
1, 2132, Note_on_c, 0, 58, 26
1, 2134, Note_on_c, 0, 63, 0
1, 2160, Note_on_c, 0, 58, 0
1, 2164, Note_on_c, 9, 35, 41
1, 2167, Note_on_c, 9, 37, 81
1, 2172, Note_on_c, 9, 59, 52
1, 2178, Note_on_c, 0, 84, 69
1, 2178, Note_on_c, 0, 72, 68
1, 2194, Note_on_c, 9, 35, 0
1, 2208, Note_on_c, 9, 59, 0
1, 2213, Note_on_c, 0, 84, 0
1, 2220, Note_on_c, 0, 72, 0
1, 2225, Note_on_c, 9, 37, 0
1, 2234, Note_on_c, 9, 53, 69
1, 2257, Note_on_c, 9, 53, 0
1, 2287, Note_on_c, 1, 51, 85
1, 2307, Note_on_c, 1, 43, 0
1, 2344, Note_on_c, 9, 35, 53
1, 2350, Note_on_c, 0, 55, 68
1, 2351, Note_on_c, 9, 59, 55
1, 2359, Note_on_c, 0, 48, 29
1, 2360, Note_on_c, 0, 55, 0
1, 2362, Note_on_c, 0, 51, 23
1, 2363, Note_on_c, 9, 59, 0
1, 2366, Note_on_c, 9, 35, 0
1, 2370, Note_on_c, 0, 48, 0
1, 2372, Note_on_c, 0, 51, 0
1, 2404, Note_on_c, 0, 67, 47
1, 2404, Note_on_c, 9, 35, 40
1, 2407, Note_on_c, 9, 59, 53
1, 2408, Note_on_c, 0, 63, 32
1, 2411, Note_on_c, 0, 62, 45
1, 2413, Note_on_c, 9, 37, 82
1, 2434, Note_on_c, 9, 35, 0
1, 2439, Note_on_c, 0, 63, 0
1, 2439, Note_on_c, 0, 62, 0
1, 2446, Note_on_c, 0, 67, 0
1, 2459, Note_on_c, 9, 37, 0
1, 2461, Note_on_c, 9, 59, 0
1, 2475, Note_on_c, 0, 62, 53
1, 2477, Note_on_c, 0, 67, 58
1, 2478, Note_on_c, 0, 63, 51
1, 2496, Note_on_c, 0, 62, 0
1, 2497, Note_on_c, 0, 63, 0
1, 2501, Note_on_c, 0, 67, 0
1, 2521, Note_on_c, 9, 59, 47
1, 2535, Note_on_c, 9, 59, 0
1, 2582, Note_on_c, 9, 59, 75
1, 2584, Note_on_c, 9, 35, 49
1, 2585, Note_on_c, 9, 37, 81
1, 2587, Note_on_c, 1, 43, 79
1, 2592, Note_on_c, 0, 55, 40
1, 2601, Note_on_c, 1, 51, 0
1, 2601, Note_on_c, 0, 48, 34
1, 2609, Note_on_c, 9, 35, 0
1, 2612, Note_on_c, 9, 59, 0
1, 2623, Note_on_c, 0, 55, 0
1, 2633, Note_on_c, 0, 48, 0
1, 2643, Note_on_c, 9, 37, 0
1, 2644, Note_on_c, 9, 35, 40
1, 2648, Note_on_c, 0, 60, 62
1, 2649, Note_on_c, 0, 63, 46
1, 2649, Note_on_c, 0, 48, 14
1, 2649, Note_on_c, 0, 69, 63
1, 2653, Note_on_c, 0, 57, 47
1, 2672, Note_on_c, 0, 60, 0
1, 2674, Note_on_c, 9, 35, 0
1, 2674, Note_on_c, 0, 63, 0
1, 2674, Note_on_c, 0, 57, 0
1, 2690, Note_on_c, 0, 69, 0
1, 2710, Note_on_c, 9, 59, 25
1, 2716, Note_on_c, 0, 69, 58
1, 2718, Note_on_c, 0, 60, 59
1, 2719, Note_on_c, 0, 63, 45
1, 2722, Note_on_c, 9, 59, 0
1, 2723, Note_on_c, 0, 57, 50
1, 2735, Note_on_c, 0, 63, 0
1, 2740, Note_on_c, 0, 60, 0
1, 2748, Note_on_c, 0, 57, 0
1, 2754, Note_on_c, 0, 69, 0
1, 2767, Note_on_c, 1, 43, 0
1, 2768, Note_on_c, 1, 36, 89
1, 2769, Note_on_c, 9, 59, 77
1, 2770, Note_on_c, 9, 37, 87
1, 2813, Note_on_c, 9, 59, 0
1, 2819, Note_on_c, 9, 37, 0
1, 2824, Note_on_c, 9, 35, 50
1, 2832, Note_on_c, 0, 59, 60
1, 2833, Note_on_c, 0, 71, 66
1, 2833, Note_on_c, 0, 63, 55
1, 2834, Note_on_c, 0, 60, 71
1, 2836, Note_on_c, 0, 67, 43
1, 2849, Note_on_c, 9, 35, 0
1, 2859, Note_on_c, 0, 60, 0
1, 2869, Note_on_c, 0, 67, 0
1, 2869, Note_on_c, 0, 63, 0
1, 2876, Note_on_c, 0, 71, 0
1, 2884, Note_on_c, 9, 35, 50
1, 2886, Note_on_c, 9, 59, 80
1, 2887, Note_on_c, 0, 59, 0
1, 2894, Note_on_c, 0, 48, 0
1, 2912, Note_on_c, 9, 35, 0
1, 2921, Note_on_c, 9, 59, 0
1, 2951, Note_on_c, 0, 71, 58
1, 2952, Note_on_c, 0, 63, 53
1, 2952, Note_on_c, 0, 48, 46
1, 2953, Note_on_c, 0, 67, 46
1, 2954, Note_on_c, 0, 59, 49
1, 2955, Note_on_c, 0, 60, 66
1, 2964, Note_on_c, 0, 60, 0
1, 2972, Note_on_c, 0, 59, 0
1, 2973, Note_on_c, 0, 63, 0
1, 2978, Note_on_c, 0, 67, 0
1, 2979, Note_on_c, 0, 71, 0
1, 2983, Note_on_c, 0, 48, 0
1, 3001, Note_on_c, 9, 37, 80
1, 3003, Note_on_c, 9, 59, 83
1, 3039, Note_on_c, 9, 59, 0
1, 3039, Note_on_c, 9, 37, 0
1, 3064, Note_on_c, 9, 35, 50
1, 3069, Note_on_c, 1, 36, 0
1, 3069, Note_on_c, 0, 58, 71
1, 3070, Note_on_c, 0, 70, 63
1, 3071, Note_on_c, 1, 43, 87
1, 3072, Note_on_c, 0, 63, 53
1, 3072, Note_on_c, 0, 48, 54
1, 3073, Note_on_c, 0, 67, 50
1, 3075, Note_on_c, 0, 60, 60
1, 3085, Note_on_c, 9, 35, 0
1, 3086, Note_on_c, 0, 60, 0
1, 3098, Note_on_c, 0, 58, 0
1, 3102, Note_on_c, 0, 67, 0
1, 3105, Note_on_c, 0, 70, 0
1, 3124, Note_on_c, 9, 35, 56
1, 3125, Note_on_c, 9, 37, 81
1, 3130, Note_on_c, 0, 69, 49
1, 3130, Note_on_c, 9, 59, 31
1, 3131, Note_on_c, 0, 57, 59
1, 3133, Note_on_c, 0, 60, 34
1, 3143, Note_on_c, 9, 59, 0
1, 3154, Note_on_c, 9, 35, 0
1, 3169, Note_on_c, 9, 37, 0
1, 3189, Note_on_c, 9, 59, 74
1, 3201, Note_on_c, 0, 60, 0
1, 3201, Note_on_c, 0, 69, 0
1, 3205, Note_on_c, 0, 48, 0
1, 3228, Note_on_c, 0, 63, 0
1, 3231, Note_on_c, 9, 59, 0
1, 3236, Note_on_c, 1, 51, 90
1, 3246, Note_on_c, 0, 48, 46
1, 3248, Note_on_c, 1, 43, 0
1, 3258, Note_on_c, 0, 57, 0
1, 3304, Note_on_c, 9, 35, 56
1, 3308, Note_on_c, 0, 71, 58
1, 3309, Note_on_c, 0, 63, 43
1, 3311, Note_on_c, 0, 60, 62
1, 3313, Note_on_c, 0, 59, 56
1, 3313, Note_on_c, 9, 59, 40
1, 3314, Note_on_c, 0, 67, 41
1, 3325, Note_on_c, 0, 59, 0
1, 3326, Note_on_c, 9, 59, 0
1, 3328, Note_on_c, 0, 60, 0
1, 3331, Note_on_c, 9, 35, 0
1, 3335, Note_on_c, 0, 71, 0
1, 3336, Note_on_c, 0, 63, 0
1, 3338, Note_on_c, 0, 48, 0
1, 3345, Note_on_c, 0, 67, 0
1, 3361, Note_on_c, 9, 37, 79
1, 3378, Note_on_c, 9, 59, 83
1, 3406, Note_on_c, 9, 37, 0
1, 3415, Note_on_c, 0, 58, 76
1, 3416, Note_on_c, 0, 63, 52
1, 3418, Note_on_c, 0, 70, 56
1, 3418, Note_on_c, 0, 48, 57
1, 3423, Note_on_c, 0, 60, 51
1, 3424, Note_on_c, 9, 35, 54
1, 3430, Note_on_c, 0, 70, 0
1, 3433, Note_on_c, 9, 59, 0
1, 3433, Note_on_c, 0, 60, 0
1, 3441, Note_on_c, 0, 63, 0
1, 3452, Note_on_c, 9, 35, 0
1, 3470, Note_on_c, 0, 58, 0
1, 3477, Note_on_c, 0, 57, 63
1, 3483, Note_on_c, 9, 59, 30
1, 3496, Note_on_c, 9, 59, 0
1, 3516, Note_on_c, 0, 48, 0
1, 3533, Note_on_c, 9, 37, 80
1, 3543, Note_on_c, 0, 48, 60
1, 3544, Note_on_c, 9, 35, 46
1, 3545, Note_on_c, 1, 43, 85
1, 3551, Note_on_c, 1, 51, 0
1, 3552, Note_on_c, 9, 59, 80
1, 3555, Note_on_c, 0, 57, 0
1, 3570, Note_on_c, 9, 35, 0
1, 3583, Note_on_c, 9, 37, 0
1, 3585, Note_on_c, 9, 59, 0
1, 3599, Note_on_c, 0, 79, 94
1, 3603, Note_on_c, 0, 57, 73
1, 3649, Note_on_c, 0, 79, 0
1, 3664, Note_on_c, 9, 35, 50
1, 3666, Note_on_c, 0, 48, 0
1, 3666, Note_on_c, 0, 77, 70
1, 3666, Note_on_c, 9, 59, 54
1, 3677, Note_on_c, 9, 59, 0
1, 3677, Note_on_c, 0, 57, 0
1, 3691, Note_on_c, 9, 35, 0
1, 3710, Note_on_c, 0, 77, 0
1, 3715, Note_on_c, 1, 43, 0
1, 3721, Note_on_c, 9, 59, 68
1, 3721, Note_on_c, 9, 37, 82
1, 3722, Note_on_c, 0, 75, 53
1, 3722, Note_on_c, 1, 31, 90
1, 3744, Note_on_c, 9, 59, 0
1, 3752, Note_on_c, 0, 75, 0
1, 3777, Note_on_c, 9, 37, 0
1, 3784, Note_on_c, 9, 35, 54
1, 3785, Note_on_c, 9, 59, 57
1, 3792, Note_on_c, 0, 75, 62
1, 3796, Note_on_c, 9, 59, 0
1, 3808, Note_on_c, 9, 35, 0
1, 3827, Note_on_c, 0, 75, 0
1, 3844, Note_on_c, 9, 35, 57
1, 3844, Note_on_c, 9, 35, 79
1, 3844, Note_on_c, 9, 59, 85
1, 3845, Note_on_c, 9, 49, 36
1, 3847, Note_on_c, 0, 62, 34
1, 3848, Note_on_c, 0, 75, 55
1, 3851, Note_on_c, 0, 55, 33
1, 3856, Note_on_c, 0, 60, 36
1, 3858, Note_on_c, 0, 74, 54
1, 3871, Note_on_c, 9, 35, 0
1, 3871, Note_on_c, 9, 35, 0
1, 3887, Note_on_c, 0, 60, 0
1, 3889, Note_on_c, 9, 59, 0
1, 3894, Note_on_c, 0, 74, 0
1, 3895, Note_on_c, 0, 75, 0
1, 3896, Note_on_c, 0, 62, 0
1, 3904, Note_on_c, 0, 55, 0
1, 3957, Note_on_c, 9, 59, 51
1, 3969, Note_on_c, 0, 74, 53
1, 3969, Note_on_c, 9, 37, 80
1, 3973, Note_on_c, 9, 59, 0
1, 3973, Note_on_c, 0, 75, 42
1, 4008, Note_on_c, 0, 75, 0
1, 4008, Note_on_c, 9, 37, 0
1, 4012, Note_on_c, 0, 74, 0
1, 4018, Note_on_c, 1, 31, 0
1, 4024, Note_on_c, 9, 35, 52
1, 4026, Note_on_c, 1, 38, 85
1, 4026, Note_on_c, 9, 59, 65
1, 4044, Note_on_c, 9, 59, 0
1, 4050, Note_on_c, 9, 35, 0
1, 4084, Note_on_c, 9, 35, 52
1, 4089, Note_on_c, 9, 59, 80
1, 4091, Note_on_c, 9, 37, 84
1, 4135, Note_on_c, 9, 59, 0
1, 4136, Note_on_c, 9, 37, 0
1, 4150, Note_on_c, 0, 62, 27
1, 4161, Note_on_c, 0, 60, 32
1, 4163, Note_on_c, 0, 56, 26
1, 4167, Note_on_c, 0, 55, 20
1, 4178, Note_on_c, 0, 55, 0
1, 4178, Note_on_c, 0, 60, 0
1, 4179, Note_on_c, 0, 62, 0
1, 4183, Note_on_c, 9, 35, 0
1, 4184, Note_on_c, 0, 56, 0
1, 4196, Note_on_c, 9, 59, 60
1, 4203, Note_on_c, 1, 43, 89
1, 4209, Note_on_c, 9, 59, 0
1, 4222, Note_on_c, 1, 38, 0
1, 4264, Note_on_c, 9, 35, 45
1, 4268, Note_on_c, 9, 59, 89
1, 4287, Note_on_c, 9, 35, 0
1, 4314, Note_on_c, 9, 59, 0
1, 4324, Note_on_c, 9, 35, 49
1, 4325, Note_on_c, 0, 62, 49
1, 4325, Note_on_c, 9, 37, 81
1, 4336, Note_on_c, 0, 60, 39
1, 4339, Note_on_c, 0, 56, 25
1, 4340, Note_on_c, 0, 55, 26
1, 4349, Note_on_c, 0, 60, 0
1, 4353, Note_on_c, 0, 55, 0
1, 4360, Note_on_c, 0, 62, 0
1, 4363, Note_on_c, 0, 56, 0
1, 4366, Note_on_c, 9, 35, 0
1, 4367, Note_on_c, 9, 37, 0
1, 4384, Note_on_c, 9, 59, 76
1, 4413, Note_on_c, 9, 49, 0
1, 4420, Note_on_c, 9, 59, 0
1, 4488, Note_on_c, 1, 43, 0
1, 4496, Note_on_c, 9, 37, 80
1, 4501, Note_on_c, 1, 38, 84
1, 4504, Note_on_c, 9, 35, 44
1, 4514, Note_on_c, 9, 59, 72
1, 4525, Note_on_c, 0, 62, 19
1, 4531, Note_on_c, 9, 35, 0
1, 4535, Note_on_c, 9, 59, 0
1, 4549, Note_on_c, 9, 37, 0
1, 4553, Note_on_c, 0, 62, 0
1, 4564, Note_on_c, 9, 35, 47
1, 4573, Note_on_c, 9, 59, 74
1, 4597, Note_on_c, 9, 35, 0
1, 4624, Note_on_c, 9, 35, 47
1, 4637, Note_on_c, 9, 59, 0
1, 4654, Note_on_c, 9, 35, 0
1, 4679, Note_on_c, 1, 38, 0
1, 4683, Note_on_c, 1, 31, 84
1, 4685, Note_on_c, 0, 62, 60
1, 4686, Note_on_c, 9, 37, 81
1, 4690, Note_on_c, 0, 60, 47
1, 4690, Note_on_c, 9, 59, 28
1, 4692, Note_on_c, 0, 56, 29
1, 4703, Note_on_c, 9, 59, 0
1, 4712, Note_on_c, 0, 62, 0
1, 4727, Note_on_c, 0, 60, 0
1, 4733, Note_on_c, 9, 37, 0
1, 4744, Note_on_c, 9, 35, 40
1, 4746, Note_on_c, 0, 56, 0
1, 4757, Note_on_c, 9, 59, 77
1, 4770, Note_on_c, 9, 35, 0
1, 4798, Note_on_c, 9, 59, 0
1, 4804, Note_on_c, 9, 35, 41
1, 4832, Note_on_c, 9, 35, 0
1, 4877, Note_on_c, 9, 59, 65
1, 4878, Note_on_c, 0, 62, 67
1, 4879, Note_on_c, 0, 60, 62
1, 4884, Note_on_c, 0, 56, 32
1, 4887, Note_on_c, 0, 55, 36
1, 4889, Note_on_c, 9, 59, 0
1, 4892, Note_on_c, 0, 60, 0
1, 4892, Note_on_c, 0, 62, 0
1, 4897, Note_on_c, 0, 55, 0
1, 4906, Note_on_c, 0, 56, 0
1, 4922, Note_on_c, 9, 37, 80
1, 4943, Note_on_c, 9, 59, 89
1, 4968, Note_on_c, 9, 37, 0
1, 4979, Note_on_c, 1, 31, 0
1, 4984, Note_on_c, 0, 90, 60
1, 4984, Note_on_c, 1, 38, 88
1, 4984, Note_on_c, 9, 35, 54
1, 4985, Note_on_c, 0, 78, 83
1, 4992, Note_on_c, 0, 91, 69
1, 4996, Note_on_c, 0, 62, 61
1, 4997, Note_on_c, 0, 89, 51
1, 4999, Note_on_c, 0, 60, 58
1, 5001, Note_on_c, 9, 59, 0
1, 5001, Note_on_c, 0, 56, 32
1, 5005, Note_on_c, 0, 90, 0
1, 5005, Note_on_c, 0, 55, 34
1, 5007, Note_on_c, 9, 35, 0
1, 5007, Note_on_c, 0, 78, 0
1, 5010, Note_on_c, 0, 79, 68
1, 5011, Note_on_c, 0, 89, 0
1, 5013, Note_on_c, 0, 62, 0
1, 5018, Note_on_c, 0, 55, 0
1, 5026, Note_on_c, 0, 60, 0
1, 5029, Note_on_c, 0, 56, 0
1, 5040, Note_on_c, 0, 79, 0
1, 5044, Note_on_c, 9, 35, 44
1, 5045, Note_on_c, 9, 37, 83
1, 5046, Note_on_c, 0, 91, 0
1, 5054, Note_on_c, 9, 59, 58
1, 5073, Note_on_c, 9, 59, 0
1, 5078, Note_on_c, 9, 35, 0
1, 5097, Note_on_c, 9, 37, 0
1, 5114, Note_on_c, 0, 89, 85
1, 5114, Note_on_c, 0, 77, 83
1, 5116, Note_on_c, 9, 59, 80
1, 5117, Note_on_c, 0, 62, 68
1, 5121, Note_on_c, 0, 60, 55
1, 5121, Note_on_c, 0, 56, 35
1, 5125, Note_on_c, 0, 79, 31
1, 5132, Note_on_c, 0, 62, 0
1, 5133, Note_on_c, 0, 60, 0
1, 5136, Note_on_c, 0, 79, 0
1, 5143, Note_on_c, 0, 77, 0
1, 5147, Note_on_c, 0, 89, 0
1, 5148, Note_on_c, 9, 59, 0
1, 5151, Note_on_c, 0, 56, 0
1, 5166, Note_on_c, 1, 43, 94
1, 5186, Note_on_c, 1, 38, 0
1, 5224, Note_on_c, 9, 35, 45
1, 5232, Note_on_c, 9, 59, 83
1, 5235, Note_on_c, 0, 60, 60
1, 5235, Note_on_c, 0, 56, 38
1, 5236, Note_on_c, 0, 62, 64
1, 5236, Note_on_c, 0, 87, 72
1, 5239, Note_on_c, 0, 75, 74
1, 5243, Note_on_c, 0, 55, 36
1, 5250, Note_on_c, 9, 35, 0
1, 5254, Note_on_c, 0, 55, 0
1, 5257, Note_on_c, 0, 62, 0
1, 5266, Note_on_c, 0, 75, 0
1, 5269, Note_on_c, 0, 60, 0
1, 5270, Note_on_c, 9, 59, 0
1, 5271, Note_on_c, 0, 56, 0
1, 5272, Note_on_c, 0, 87, 0
1, 5284, Note_on_c, 9, 35, 52
1, 5284, Note_on_c, 9, 37, 80
1, 5310, Note_on_c, 0, 74, 64
1, 5311, Note_on_c, 0, 86, 50
1, 5314, Note_on_c, 9, 35, 0
1, 5321, Note_on_c, 0, 85, 35
1, 5334, Note_on_c, 0, 85, 0
1, 5334, Note_on_c, 9, 37, 0
1, 5336, Note_on_c, 0, 74, 0
1, 5340, Note_on_c, 0, 86, 0
1, 5356, Note_on_c, 9, 59, 81
1, 5385, Note_on_c, 0, 62, 60
1, 5395, Note_on_c, 0, 60, 32
1, 5396, Note_on_c, 0, 62, 0
1, 5400, Note_on_c, 9, 59, 0
1, 5406, Note_on_c, 0, 60, 0
1, 5456, Note_on_c, 1, 43, 0
1, 5459, Note_on_c, 9, 37, 81
1, 5462, Note_on_c, 1, 38, 88
1, 5464, Note_on_c, 9, 35, 50
1, 5477, Note_on_c, 0, 89, 89
1, 5477, Note_on_c, 0, 77, 87
1, 5477, Note_on_c, 9, 59, 65
1, 5488, Note_on_c, 9, 35, 0
1, 5493, Note_on_c, 9, 59, 0
1, 5511, Note_on_c, 0, 77, 0
1, 5513, Note_on_c, 0, 89, 0
1, 5513, Note_on_c, 9, 37, 0
1, 5524, Note_on_c, 9, 35, 47
1, 5539, Note_on_c, 9, 59, 66
1, 5549, Note_on_c, 0, 87, 60
1, 5552, Note_on_c, 0, 75, 39
1, 5553, Note_on_c, 9, 35, 0
1, 5555, Note_on_c, 0, 88, 67
1, 5558, Note_on_c, 0, 76, 53
1, 5562, Note_on_c, 0, 75, 0
1, 5565, Note_on_c, 0, 88, 0
1, 5571, Note_on_c, 0, 76, 0
1, 5574, Note_on_c, 9, 59, 0
1, 5584, Note_on_c, 9, 35, 46
1, 5592, Note_on_c, 0, 87, 0
1, 5615, Note_on_c, 9, 35, 0
1, 5622, Note_on_c, 0, 62, 47
1, 5627, Note_on_c, 0, 74, 58
1, 5628, Note_on_c, 0, 60, 43
1, 5628, Note_on_c, 0, 86, 47
1, 5630, Note_on_c, 1, 38, 0
1, 5633, Note_on_c, 0, 56, 28
1, 5635, Note_on_c, 0, 62, 0
1, 5635, Note_on_c, 9, 37, 83
1, 5639, Note_on_c, 0, 60, 0
1, 5642, Note_on_c, 1, 36, 90
1, 5651, Note_on_c, 9, 59, 96
1, 5654, Control_c, 0, 64, 127
1, 5655, Note_on_c, 0, 56, 0
1, 5657, Note_on_c, 0, 74, 0
1, 5659, Note_on_c, 0, 86, 0
1, 5688, Note_on_c, 9, 59, 0
1, 5689, Note_on_c, 9, 37, 0
1, 5704, Note_on_c, 9, 35, 42
1, 5729, Control_c, 0, 64, 0
1, 5730, Note_on_c, 9, 35, 0
1, 5764, Note_on_c, 9, 35, 50
1, 5770, Note_on_c, 0, 48, 60
1, 5772, Note_on_c, 0, 86, 69
1, 5772, Note_on_c, 9, 59, 90
1, 5773, Note_on_c, 0, 74, 82
1, 5773, Note_on_c, 0, 55, 57
1, 5780, Note_on_c, 0, 85, 54
1, 5790, Note_on_c, 0, 85, 0
1, 5791, Note_on_c, 9, 35, 0
1, 5802, Note_on_c, 0, 74, 0
1, 5803, Note_on_c, 0, 86, 0
1, 5807, Note_on_c, 0, 48, 0
1, 5807, Note_on_c, 0, 55, 0
1, 5810, Note_on_c, 9, 59, 0
1, 5879, Note_on_c, 9, 37, 81
1, 5889, Control_c, 0, 64, 127
1, 5891, Note_on_c, 0, 87, 68
1, 5892, Note_on_c, 9, 59, 90
1, 5893, Note_on_c, 0, 75, 73
1, 5908, Note_on_c, 0, 75, 0
1, 5910, Note_on_c, 0, 87, 0
1, 5920, Note_on_c, 9, 37, 0
1, 5930, Note_on_c, 9, 59, 0
1, 5944, Note_on_c, 9, 35, 49
1, 5946, Note_on_c, 1, 43, 88
1, 5947, Note_on_c, 1, 36, 0
1, 5967, Note_on_c, 9, 35, 0
1, 5972, Note_on_c, 0, 67, 49
1, 5972, Note_on_c, 0, 48, 39
1, 5973, Note_on_c, 0, 55, 27
1, 5976, Note_on_c, 0, 69, 35
1, 5982, Note_on_c, 0, 67, 0
1, 5985, Control_c, 0, 64, 0
1, 5987, Note_on_c, 0, 55, 0
1, 5988, Note_on_c, 0, 69, 0
1, 5988, Note_on_c, 0, 48, 0
1, 6004, Note_on_c, 9, 35, 41
1, 6006, Note_on_c, 9, 37, 83
1, 6025, Note_on_c, 9, 59, 68
1, 6034, Note_on_c, 9, 35, 0
1, 6049, Note_on_c, 9, 59, 0
1, 6056, Note_on_c, 9, 37, 0
1, 6058, Note_on_c, 0, 84, 71
1, 6060, Note_on_c, 0, 72, 69
1, 6084, Note_on_c, 9, 59, 65
1, 6099, Note_on_c, 0, 72, 0
1, 6102, Note_on_c, 0, 84, 0
1, 6107, Note_on_c, 9, 59, 0
1, 6126, Note_on_c, 1, 51, 84
1, 6143, Note_on_c, 1, 43, 0
1, 6154, Note_on_c, 0, 84, 57
1, 6160, Note_on_c, 0, 72, 69
1, 6183, Note_on_c, 0, 72, 0
1, 6184, Note_on_c, 9, 35, 53
1, 6185, Note_on_c, 0, 84, 0
1, 6198, Note_on_c, 9, 59, 80
1, 6206, Note_on_c, 9, 35, 0
1, 6225, Note_on_c, 9, 59, 0
1, 6244, Note_on_c, 9, 35, 40
1, 6248, Note_on_c, 9, 37, 83
1, 6274, Note_on_c, 9, 35, 0
1, 6291, Note_on_c, 9, 37, 0
1, 6315, Note_on_c, 9, 59, 79
1, 6339, Note_on_c, 9, 59, 0
1, 6421, Note_on_c, 9, 59, 69
1, 6422, Note_on_c, 9, 37, 85
1, 6424, Note_on_c, 9, 35, 49
1, 6427, Note_on_c, 1, 43, 87
1, 6438, Note_on_c, 0, 62, 66
1, 6441, Note_on_c, 9, 59, 0
1, 6444, Note_on_c, 0, 59, 55
1, 6445, Note_on_c, 0, 51, 33
1, 6446, Note_on_c, 1, 51, 0
1, 6449, Note_on_c, 9, 35, 0
1, 6451, Note_on_c, 0, 55, 42
1, 6462, Note_on_c, 0, 62, 0
1, 6463, Note_on_c, 0, 59, 0
1, 6465, Note_on_c, 0, 55, 0
1, 6468, Note_on_c, 9, 37, 0
1, 6476, Note_on_c, 0, 51, 0
1, 6476, Note_on_c, 9, 59, 80
1, 6484, Note_on_c, 9, 35, 40
1, 6513, Note_on_c, 0, 62, 58
1, 6514, Note_on_c, 9, 35, 0
1, 6516, Note_on_c, 0, 59, 44
1, 6517, Note_on_c, 9, 59, 0
1, 6518, Note_on_c, 0, 51, 31
1, 6521, Note_on_c, 0, 55, 46
1, 6565, Note_on_c, 0, 51, 0
1, 6565, Note_on_c, 0, 62, 0
1, 6568, Note_on_c, 0, 55, 0
1, 6570, Note_on_c, 0, 59, 0
1, 6599, Note_on_c, 9, 59, 78
1, 6600, Note_on_c, 1, 36, 95
1, 6602, Note_on_c, 9, 37, 83
1, 6610, Note_on_c, 1, 43, 0
1, 6623, Note_on_c, 9, 59, 0
1, 6652, Note_on_c, 9, 37, 0
1, 6664, Note_on_c, 9, 35, 50
1, 6670, Note_on_c, 9, 59, 70
1, 6681, Note_on_c, 0, 62, 70
1, 6682, Note_on_c, 9, 59, 0
1, 6686, Note_on_c, 0, 59, 39
1, 6689, Note_on_c, 9, 35, 0
1, 6690, Note_on_c, 0, 51, 29
1, 6697, Note_on_c, 0, 55, 24
1, 6699, Note_on_c, 0, 62, 0
1, 6700, Note_on_c, 0, 59, 0
1, 6708, Note_on_c, 0, 55, 0
1, 6709, Note_on_c, 0, 51, 0
1, 6724, Note_on_c, 9, 35, 50
1, 6724, Note_on_c, 9, 59, 64
1, 6738, Note_on_c, 9, 59, 0
1, 6752, Note_on_c, 9, 35, 0
1, 6784, Note_on_c, 9, 53, 57
1, 6799, Note_on_c, 9, 53, 0
1, 6836, Note_on_c, 0, 59, 45
1, 6836, Note_on_c, 0, 51, 44
1, 6837, Note_on_c, 0, 62, 63
1, 6839, Note_on_c, 9, 37, 82
1, 6844, Note_on_c, 9, 59, 57
1, 6846, Note_on_c, 0, 55, 41
1, 6857, Note_on_c, 9, 59, 0
1, 6861, Note_on_c, 0, 62, 0
1, 6873, Note_on_c, 0, 51, 0
1, 6875, Note_on_c, 0, 59, 0
1, 6880, Note_on_c, 0, 55, 0
1, 6882, Note_on_c, 9, 37, 0
1, 6902, Note_on_c, 1, 43, 89
1, 6904, Note_on_c, 9, 35, 50
1, 6908, Note_on_c, 9, 59, 67
1, 6909, Note_on_c, 1, 36, 0
1, 6925, Note_on_c, 9, 35, 0
1, 6928, Note_on_c, 9, 59, 0
1, 6964, Note_on_c, 9, 35, 56
1, 6965, Note_on_c, 9, 37, 83
1, 6970, Note_on_c, 9, 59, 83
1, 6994, Note_on_c, 9, 35, 0
1, 7014, Note_on_c, 9, 37, 0
1, 7020, Note_on_c, 9, 59, 0
1, 7023, Control_c, 0, 64, 127
1, 7041, Control_c, 0, 64, 0
1, 7041, Note_on_c, 0, 62, 70
1, 7045, Note_on_c, 0, 59, 48
1, 7048, Note_on_c, 0, 51, 32
1, 7050, Note_on_c, 0, 55, 62
1, 7068, Note_on_c, 0, 51, 0
1, 7068, Note_on_c, 0, 62, 0
1, 7076, Note_on_c, 0, 55, 0
1, 7077, Note_on_c, 0, 59, 0
1, 7079, Note_on_c, 1, 51, 93
1, 7088, Note_on_c, 9, 59, 43
1, 7089, Note_on_c, 1, 43, 0
1, 7100, Note_on_c, 9, 59, 0
1, 7144, Note_on_c, 9, 35, 56
1, 7145, Note_on_c, 9, 59, 85
1, 7171, Note_on_c, 9, 35, 0
1, 7193, Note_on_c, 9, 59, 0
1, 7207, Note_on_c, 9, 37, 81
1, 7213, Note_on_c, 0, 62, 71
1, 7213, Note_on_c, 0, 59, 54
1, 7221, Note_on_c, 0, 55, 49
1, 7228, Note_on_c, 0, 62, 0
1, 7232, Note_on_c, 0, 55, 0
1, 7238, Note_on_c, 0, 59, 0
1, 7249, Note_on_c, 9, 37, 0
1, 7258, Note_on_c, 9, 53, 72
1, 7264, Note_on_c, 9, 35, 54
1, 7283, Note_on_c, 9, 53, 0
1, 7292, Note_on_c, 9, 35, 0
1, 7322, Note_on_c, 9, 59, 49
1, 7340, Note_on_c, 9, 59, 0
1, 7375, Note_on_c, 1, 43, 90
1, 7376, Note_on_c, 9, 37, 83
1, 7384, Note_on_c, 9, 35, 46
1, 7385, Note_on_c, 1, 51, 0
1, 7390, Note_on_c, 0, 51, 43
1, 7390, Note_on_c, 0, 59, 68
1, 7393, Note_on_c, 0, 62, 63
1, 7393, Note_on_c, 9, 59, 71
1, 7396, Note_on_c, 0, 55, 55
1, 7400, Note_on_c, 0, 51, 0
1, 7403, Note_on_c, 0, 62, 0
1, 7410, Note_on_c, 9, 35, 0
1, 7417, Note_on_c, 9, 59, 0
1, 7420, Note_on_c, 0, 59, 0
1, 7440, Note_on_c, 0, 75, 85
1, 7445, Note_on_c, 0, 55, 0
1, 7449, Note_on_c, 9, 37, 0
1, 7452, Note_on_c, 9, 59, 83
1, 7503, Note_on_c, 0, 73, 67
1, 7504, Note_on_c, 9, 35, 50
1, 7512, Note_on_c, 9, 59, 0
1, 7526, Note_on_c, 0, 75, 0
1, 7531, Note_on_c, 9, 35, 0
1, 7545, Note_on_c, 0, 73, 0
1, 7553, Note_on_c, 1, 43, 0
1, 7562, Note_on_c, 1, 36, 95
1, 7563, Note_on_c, 9, 37, 85
1, 7564, Note_on_c, 0, 72, 57
1, 7569, Note_on_c, 9, 59, 40
1, 7587, Note_on_c, 9, 59, 0
1, 7596, Note_on_c, 0, 72, 0
1, 7606, Note_on_c, 9, 37, 0
1, 7624, Note_on_c, 9, 35, 54
1, 7628, Note_on_c, 9, 59, 67
1, 7640, Note_on_c, 0, 72, 55
1, 7648, Note_on_c, 9, 35, 0
1, 7649, Note_on_c, 0, 71, 22
1, 7650, Note_on_c, 9, 59, 0
1, 7661, Note_on_c, 0, 72, 0
1, 7682, Note_on_c, 0, 71, 0
1, 7684, Note_on_c, 9, 35, 57
1, 7685, Note_on_c, 9, 49, 37
1, 7687, Note_on_c, 9, 59, 87
1, 7690, Note_on_c, 0, 61, 37
1, 7693, Note_on_c, 0, 70, 62
1, 7701, Note_on_c, 0, 58, 38
1, 7703, Note_on_c, 0, 52, 38
1, 7707, Note_on_c, 0, 61, 0
1, 7711, Note_on_c, 9, 35, 0
1, 7716, Note_on_c, 0, 52, 0
1, 7734, Note_on_c, 0, 58, 0
1, 7749, Note_on_c, 9, 59, 0
1, 7757, Note_on_c, 0, 70, 0
1, 7806, Note_on_c, 9, 59, 46
1, 7808, Note_on_c, 0, 70, 61
1, 7827, Note_on_c, 9, 59, 0
1, 7842, Note_on_c, 0, 70, 0
1, 7862, Note_on_c, 1, 36, 0
1, 7864, Note_on_c, 9, 35, 63
1, 7869, Note_on_c, 1, 46, 91
1, 7876, Note_on_c, 9, 59, 89
1, 7888, Note_on_c, 9, 35, 0
1, 7920, Note_on_c, 0, 61, 38
1, 7924, Note_on_c, 9, 35, 52
1, 7925, Note_on_c, 0, 52, 24
1, 7926, Note_on_c, 0, 58, 31
1, 7932, Note_on_c, 9, 59, 0
1, 7933, Note_on_c, 0, 55, 36
1, 7941, Note_on_c, 0, 61, 0
1, 7943, Note_on_c, 0, 52, 0
1, 7946, Note_on_c, 0, 55, 0
1, 7952, Note_on_c, 0, 58, 0
1, 7953, Note_on_c, 9, 35, 0
1, 7988, Note_on_c, 9, 59, 47
1, 8000, Note_on_c, 9, 59, 0
1, 8034, Control_c, 0, 64, 127
1, 8038, Note_on_c, 1, 52, 95
1, 8048, Note_on_c, 9, 59, 52
1, 8064, Note_on_c, 9, 59, 0
1, 8104, Note_on_c, 9, 35, 61
1, 8106, Control_c, 0, 64, 0
1, 8113, Note_on_c, 9, 59, 64
1, 8116, Note_on_c, 0, 61, 35
1, 8121, Note_on_c, 0, 58, 31
1, 8127, Note_on_c, 0, 61, 0
1, 8128, Note_on_c, 9, 59, 0
1, 8129, Note_on_c, 9, 35, 0
1, 8146, Note_on_c, 1, 46, 0
1, 8151, Note_on_c, 0, 58, 0
1, 8151, Control_c, 0, 64, 127
1, 8164, Note_on_c, 9, 35, 52
1, 8171, Note_on_c, 9, 59, 89
1, 8196, Note_on_c, 9, 49, 0
1, 8198, Note_on_c, 9, 35, 0
1, 8219, Note_on_c, 9, 59, 0
1, 8220, Control_c, 0, 64, 0
1, 8222, Note_on_c, 0, 68, 75
1, 8222, Note_on_c, 0, 63, 79
1, 8223, Note_on_c, 0, 75, 67
1, 8223, Note_on_c, 0, 58, 76
1, 8226, Note_on_c, 0, 72, 64
1, 8226, Note_on_c, 0, 64, 82
1, 8235, Note_on_c, 0, 73, 25
1, 8265, Note_on_c, 0, 63, 0
1, 8268, Note_on_c, 0, 73, 0
1, 8269, Note_on_c, 0, 75, 0
1, 8272, Note_on_c, 0, 68, 0
1, 8273, Note_on_c, 0, 64, 0
1, 8277, Note_on_c, 0, 72, 0
1, 8284, Note_on_c, 0, 58, 0
1, 8298, Note_on_c, 9, 59, 36
1, 8308, Note_on_c, 0, 75, 75
1, 8310, Note_on_c, 9, 59, 0
1, 8311, Note_on_c, 0, 58, 83
1, 8312, Note_on_c, 0, 68, 77
1, 8312, Note_on_c, 0, 64, 81
1, 8313, Note_on_c, 0, 63, 77
1, 8314, Note_on_c, 0, 72, 62
1, 8344, Control_c, 0, 64, 127
1, 8344, Note_on_c, 9, 35, 58
1, 8348, Note_on_c, 1, 46, 90
1, 8356, Note_on_c, 9, 59, 88
1, 8357, Note_on_c, 0, 75, 0
1, 8359, Control_c, 0, 64, 0
1, 8364, Note_on_c, 1, 52, 0
1, 8365, Note_on_c, 0, 64, 0
1, 8366, Note_on_c, 0, 63, 0
1, 8368, Note_on_c, 9, 35, 0
1, 8368, Note_on_c, 0, 68, 0
1, 8370, Note_on_c, 0, 72, 0
1, 8378, Note_on_c, 0, 58, 0
1, 8393, Note_on_c, 0, 75, 70
1, 8396, Note_on_c, 0, 68, 65
1, 8397, Note_on_c, 0, 64, 63
1, 8398, Note_on_c, 0, 72, 57
1, 8399, Note_on_c, 0, 63, 68
1, 8400, Note_on_c, 0, 58, 67
1, 8404, Note_on_c, 9, 35, 52
1, 8412, Note_on_c, 9, 59, 0
1, 8432, Note_on_c, 9, 35, 0
1, 8448, Note_on_c, 0, 72, 0
1, 8451, Note_on_c, 0, 68, 0
1, 8452, Note_on_c, 0, 58, 0
1, 8452, Note_on_c, 0, 63, 0
1, 8457, Note_on_c, 0, 75, 0
1, 8462, Note_on_c, 0, 64, 0
1, 8464, Note_on_c, 9, 35, 53
1, 8471, Note_on_c, 9, 59, 88
1, 8481, Note_on_c, 0, 73, 42
1, 8482, Note_on_c, 0, 63, 49
1, 8482, Note_on_c, 0, 68, 52
1, 8483, Note_on_c, 0, 58, 56
1, 8493, Note_on_c, 9, 35, 0
1, 8498, Note_on_c, 0, 68, 0
1, 8499, Note_on_c, 0, 63, 0
1, 8501, Note_on_c, 0, 58, 0
1, 8512, Note_on_c, 0, 73, 0
1, 8519, Note_on_c, 9, 59, 0
1, 8525, Note_on_c, 1, 46, 0
1, 8530, Note_on_c, 1, 36, 85
1, 8584, Note_on_c, 9, 35, 58
1, 8588, Note_on_c, 9, 59, 63
1, 8593, Note_on_c, 0, 64, 68
1, 8594, Note_on_c, 0, 68, 46
1, 8595, Note_on_c, 0, 72, 48
1, 8598, Note_on_c, 0, 58, 40
1, 8601, Note_on_c, 9, 59, 0
1, 8603, Note_on_c, 0, 64, 0
1, 8605, Note_on_c, 0, 48, 29
1, 8607, Note_on_c, 0, 72, 0
1, 8611, Note_on_c, 0, 58, 0
1, 8611, Note_on_c, 0, 68, 0
1, 8611, Note_on_c, 9, 35, 0
1, 8617, Note_on_c, 0, 48, 0
1, 8644, Note_on_c, 9, 35, 53
1, 8647, Note_on_c, 9, 59, 88
1, 8672, Note_on_c, 9, 35, 0
1, 8702, Note_on_c, 9, 59, 0
1, 8706, Note_on_c, 0, 64, 66
1, 8708, Note_on_c, 0, 58, 56
1, 8719, Note_on_c, 0, 64, 0
1, 8729, Note_on_c, 0, 58, 0
1, 8771, Note_on_c, 9, 59, 57
1, 8787, Note_on_c, 9, 59, 0
1, 8818, Note_on_c, 1, 36, 0
1, 8824, Note_on_c, 9, 35, 57
1, 8825, Note_on_c, 1, 46, 88
1, 8829, Note_on_c, 0, 72, 80
1, 8838, Note_on_c, 9, 59, 85
1, 8850, Note_on_c, 9, 35, 0
1, 8864, Note_on_c, 0, 72, 0
1, 8880, Note_on_c, 9, 59, 0
1, 8884, Note_on_c, 9, 35, 42
1, 8889, Note_on_c, 0, 63, 58
1, 8891, Note_on_c, 0, 73, 67
1, 8893, Note_on_c, 0, 58, 58
1, 8903, Note_on_c, 0, 52, 28
1, 8909, Note_on_c, 0, 63, 0
1, 8913, Note_on_c, 9, 35, 0
1, 8916, Note_on_c, 0, 52, 0
1, 8935, Note_on_c, 0, 73, 0
1, 8945, Note_on_c, 0, 58, 0
1, 8946, Note_on_c, 9, 59, 76
1, 8967, Note_on_c, 0, 75, 74
1, 8978, Note_on_c, 9, 59, 0
1, 8999, Note_on_c, 0, 75, 0
1, 9003, Note_on_c, 1, 52, 92
1, 9014, Note_on_c, 1, 46, 0
1, 9063, Note_on_c, 9, 59, 62
1, 9064, Note_on_c, 9, 35, 63
1, 9075, Note_on_c, 0, 73, 60
1, 9078, Note_on_c, 0, 63, 51
1, 9078, Note_on_c, 0, 58, 49
1, 9079, Note_on_c, 9, 59, 0
1, 9086, Note_on_c, 0, 52, 31
1, 9088, Note_on_c, 0, 63, 0
1, 9092, Note_on_c, 9, 35, 0
1, 9099, Note_on_c, 0, 52, 0
1, 9111, Note_on_c, 0, 58, 0
1, 9112, Note_on_c, 0, 73, 0
1, 9124, Note_on_c, 9, 35, 42
1, 9125, Note_on_c, 9, 59, 84
1, 9155, Note_on_c, 9, 35, 0
1, 9168, Note_on_c, 9, 59, 0
1, 9190, Note_on_c, 0, 72, 82
1, 9239, Note_on_c, 9, 59, 40
1, 9252, Note_on_c, 9, 59, 0
1, 9263, Note_on_c, 0, 72, 0
1, 9301, Note_on_c, 0, 63, 71
1, 9303, Note_on_c, 0, 58, 57
1, 9303, Note_on_c, 0, 75, 87
1, 9304, Note_on_c, 9, 35, 40
1, 9307, Note_on_c, 0, 52, 54
1, 9310, Note_on_c, 1, 46, 91
1, 9312, Note_on_c, 9, 59, 71
1, 9319, Note_on_c, 0, 52, 0
1, 9327, Note_on_c, 0, 63, 0
1, 9330, Note_on_c, 9, 35, 0
1, 9330, Note_on_c, 1, 52, 0
1, 9335, Note_on_c, 9, 59, 0
1, 9353, Note_on_c, 0, 75, 0
1, 9364, Note_on_c, 9, 35, 53
1, 9369, Note_on_c, 0, 73, 46
1, 9373, Note_on_c, 0, 58, 0
1, 9375, Note_on_c, 9, 59, 91
1, 9391, Note_on_c, 9, 35, 0
1, 9426, Note_on_c, 0, 73, 0
1, 9430, Note_on_c, 9, 59, 0
1, 9473, Note_on_c, 1, 46, 0
1, 9481, Note_on_c, 9, 59, 55
1, 9485, Note_on_c, 0, 63, 43
1, 9485, Note_on_c, 1, 41, 84
1, 9487, Note_on_c, 0, 58, 29
1, 9489, Note_on_c, 0, 72, 75
1, 9493, Note_on_c, 9, 59, 0
1, 9512, Note_on_c, 0, 63, 0
1, 9519, Note_on_c, 0, 72, 0
1, 9526, Note_on_c, 0, 58, 0
1, 9544, Note_on_c, 9, 35, 58
1, 9546, Note_on_c, 9, 59, 81
1, 9556, Note_on_c, 0, 70, 65
1, 9572, Note_on_c, 9, 59, 0
1, 9572, Note_on_c, 9, 35, 0
1, 9588, Note_on_c, 0, 70, 0
1, 9604, Note_on_c, 9, 35, 52
1, 9607, Note_on_c, 9, 59, 82
1, 9625, Note_on_c, 0, 62, 20
1, 9626, Note_on_c, 0, 70, 65
1, 9626, Note_on_c, 0, 60, 29
1, 9629, Note_on_c, 0, 56, 28
1, 9630, Note_on_c, 9, 35, 0
1, 9635, Note_on_c, 0, 53, 22
1, 9658, Note_on_c, 9, 59, 0
1, 9718, Note_on_c, 0, 70, 0
1, 9725, Note_on_c, 0, 65, 58
1, 9729, Note_on_c, 9, 59, 72
1, 9752, Note_on_c, 0, 60, 0
1, 9755, Note_on_c, 0, 65, 0
1, 9756, Note_on_c, 0, 62, 0
1, 9761, Note_on_c, 0, 53, 0
1, 9764, Note_on_c, 9, 59, 0
1, 9775, Note_on_c, 0, 56, 0
1, 9784, Note_on_c, 9, 35, 53
1, 9785, Note_on_c, 1, 48, 89
1, 9794, Note_on_c, 0, 68, 69
1, 9796, Note_on_c, 1, 41, 0
1, 9809, Note_on_c, 9, 35, 0
1, 9844, Note_on_c, 9, 35, 50
1, 9851, Note_on_c, 9, 59, 75
1, 9872, Note_on_c, 9, 35, 0
1, 9876, Note_on_c, 9, 59, 0
1, 9908, Note_on_c, 0, 60, 48
1, 9910, Note_on_c, 9, 53, 69
1, 9912, Note_on_c, 0, 56, 25
1, 9917, Note_on_c, 0, 53, 24
1, 9922, Note_on_c, 9, 53, 0
1, 9926, Note_on_c, 0, 60, 0
1, 9929, Note_on_c, 0, 53, 0
1, 9937, Note_on_c, 0, 56, 0
1, 9965, Note_on_c, 1, 49, 95
1, 9967, Note_on_c, 1, 48, 0
1, 10024, Note_on_c, 9, 35, 54
1, 10026, Note_on_c, 9, 59, 76
1, 10051, Note_on_c, 9, 35, 0
1, 10070, Note_on_c, 9, 59, 0
1, 10084, Note_on_c, 9, 35, 40
1, 10091, Note_on_c, 0, 61, 56
1, 10101, Note_on_c, 0, 56, 26
1, 10116, Note_on_c, 9, 35, 0
1, 10131, Note_on_c, 0, 61, 0
1, 10137, Note_on_c, 9, 59, 81
1, 10146, Note_on_c, 0, 56, 0
1, 10187, Note_on_c, 9, 59, 0
1, 10216, Note_on_c, 0, 61, 52
1, 10219, Note_on_c, 0, 53, 36
1, 10220, Note_on_c, 0, 60, 54
1, 10226, Note_on_c, 0, 56, 29
1, 10245, Note_on_c, 0, 61, 0
1, 10249, Note_on_c, 0, 60, 0
1, 10251, Note_on_c, 0, 53, 0
1, 10263, Note_on_c, 9, 59, 79
1, 10264, Note_on_c, 9, 35, 60
1, 10272, Note_on_c, 1, 41, 91
1, 10285, Note_on_c, 9, 59, 0
1, 10287, Note_on_c, 9, 35, 0
1, 10289, Note_on_c, 1, 49, 0
1, 10306, Note_on_c, 0, 56, 0
1, 10321, Note_on_c, 9, 59, 71
1, 10324, Note_on_c, 9, 35, 49
1, 10348, Note_on_c, 9, 35, 0
1, 10357, Note_on_c, 9, 59, 0
1, 10357, Control_c, 0, 64, 127
1, 10378, Note_on_c, 9, 53, 75
1, 10384, Note_on_c, 9, 35, 60
1, 10393, Control_c, 0, 64, 0
1, 10393, Note_on_c, 0, 61, 54
1, 10395, Note_on_c, 0, 60, 54
1, 10401, Note_on_c, 9, 53, 0
1, 10412, Note_on_c, 9, 35, 0
1, 10423, Note_on_c, 0, 60, 0
1, 10431, Note_on_c, 0, 61, 0
1, 10447, Note_on_c, 1, 50, 91
1, 10447, Note_on_c, 9, 59, 45
1, 10456, Note_on_c, 1, 51, 40
1, 10463, Note_on_c, 9, 59, 0
1, 10466, Note_on_c, 1, 51, 0
1, 10473, Note_on_c, 1, 41, 0
1, 10504, Note_on_c, 0, 62, 62
1, 10504, Note_on_c, 9, 35, 50
1, 10509, Note_on_c, 0, 56, 50
1, 10511, Note_on_c, 0, 53, 43
1, 10511, Note_on_c, 9, 59, 68
1, 10529, Note_on_c, 9, 35, 0
1, 10530, Note_on_c, 9, 59, 0
1, 10537, Note_on_c, 0, 62, 0
1, 10539, Note_on_c, 0, 53, 0
1, 10562, Note_on_c, 0, 56, 0
1, 10564, Note_on_c, 9, 35, 50
1, 10575, Note_on_c, 9, 59, 84
1, 10580, Note_on_c, 0, 62, 51
1, 10581, Note_on_c, 0, 56, 25
1, 10591, Note_on_c, 0, 53, 34
1, 10593, Note_on_c, 9, 35, 0
1, 10617, Note_on_c, 0, 53, 0
1, 10618, Note_on_c, 0, 62, 0
1, 10632, Note_on_c, 9, 59, 0
1, 10638, Note_on_c, 0, 56, 0
1, 10695, Note_on_c, 0, 62, 57
1, 10698, Note_on_c, 0, 56, 34
1, 10701, Note_on_c, 0, 53, 44
1, 10701, Note_on_c, 9, 59, 78
1, 10744, Note_on_c, 9, 59, 0
1, 10744, Note_on_c, 9, 35, 49
1, 10745, Note_on_c, 0, 53, 0
1, 10757, Note_on_c, 1, 41, 99
1, 10762, Note_on_c, 0, 68, 0
1, 10771, Note_on_c, 9, 35, 0
1, 10776, Note_on_c, 0, 62, 0
1, 10804, Note_on_c, 9, 35, 53
1, 10808, Note_on_c, 1, 50, 0
1, 10817, Note_on_c, 9, 59, 75
1, 10822, Note_on_c, 0, 56, 0
1, 10835, Note_on_c, 9, 35, 0
1, 10841, Control_c, 0, 64, 127
1, 10845, Note_on_c, 9, 59, 0
1, 10877, Control_c, 0, 64, 0
1, 10880, Note_on_c, 0, 62, 66
1, 10880, Note_on_c, 9, 59, 58
1, 10885, Note_on_c, 0, 56, 34
1, 10886, Note_on_c, 0, 53, 50
1, 10902, Note_on_c, 9, 59, 0
1, 10913, Note_on_c, 0, 53, 0
1, 10918, Note_on_c, 1, 49, 95
1, 10926, Note_on_c, 0, 62, 0
1, 10936, Note_on_c, 1, 41, 0
1, 10957, Note_on_c, 0, 56, 0
1, 10980, Control_c, 0, 64, 127
1, 10984, Note_on_c, 9, 35, 57
1, 10986, Control_c, 0, 64, 0
1, 11002, Note_on_c, 0, 61, 70
1, 11006, Note_on_c, 0, 56, 44
1, 11007, Note_on_c, 0, 53, 62
1, 11009, Note_on_c, 9, 35, 0
1, 11009, Note_on_c, 9, 59, 51
1, 11013, Note_on_c, 9, 60, 46
1, 11022, Note_on_c, 9, 60, 0
1, 11028, Note_on_c, 9, 59, 0
1, 11032, Note_on_c, 0, 61, 0
1, 11036, Note_on_c, 0, 53, 0
1, 11044, Note_on_c, 9, 35, 50
1, 11054, Note_on_c, 0, 56, 0
1, 11075, Note_on_c, 9, 35, 0
1, 11105, Note_on_c, 9, 59, 85
1, 11117, Note_on_c, 0, 84, 91
1, 11118, Note_on_c, 0, 72, 103
1, 11139, Note_on_c, 9, 59, 0
1, 11185, Note_on_c, 0, 72, 0
1, 11190, Note_on_c, 0, 84, 0
1, 11224, Note_on_c, 9, 35, 57
1, 11224, Note_on_c, 9, 59, 68
1, 11226, Note_on_c, 0, 61, 68
1, 11226, Note_on_c, 1, 41, 94
1, 11235, Note_on_c, 1, 49, 0
1, 11240, Note_on_c, 0, 61, 0
1, 11240, Note_on_c, 0, 80, 35
1, 11245, Note_on_c, 9, 59, 0
1, 11249, Note_on_c, 9, 35, 0
1, 11256, Note_on_c, 0, 80, 0
1, 11284, Note_on_c, 9, 35, 58
1, 11287, Note_on_c, 9, 59, 83
1, 11291, Note_on_c, 0, 84, 87
1, 11293, Note_on_c, 0, 72, 91
1, 11295, Control_c, 0, 64, 127
1, 11309, Note_on_c, 9, 35, 0
1, 11324, Note_on_c, 0, 84, 0
1, 11325, Note_on_c, 0, 72, 0
1, 11333, Note_on_c, 9, 59, 0
1, 11344, Note_on_c, 9, 35, 46
1, 11360, Note_on_c, 0, 56, 49
1, 11361, Note_on_c, 0, 53, 57
1, 11362, Note_on_c, 0, 60, 63
1, 11364, Note_on_c, 0, 82, 73
1, 11364, Note_on_c, 0, 70, 75
1, 11372, Note_on_c, 9, 35, 0
1, 11379, Control_c, 0, 64, 0
1, 11380, Note_on_c, 0, 60, 0
1, 11383, Note_on_c, 1, 41, 0
1, 11390, Note_on_c, 0, 82, 0
1, 11401, Note_on_c, 0, 53, 0
1, 11402, Note_on_c, 1, 38, 83
1, 11402, Note_on_c, 9, 59, 50
1, 11403, Note_on_c, 0, 70, 0
1, 11412, Note_on_c, 0, 69, 49
1, 11424, Note_on_c, 0, 56, 0
1, 11424, Note_on_c, 9, 59, 0
1, 11433, Note_on_c, 0, 69, 0
1, 11464, Control_c, 0, 64, 127
1, 11464, Note_on_c, 9, 35, 60
1, 11467, Note_on_c, 9, 59, 82
1, 11476, Note_on_c, 0, 68, 68
1, 11479, Note_on_c, 0, 80, 46
1, 11488, Note_on_c, 9, 35, 0
1, 11496, Note_on_c, 9, 59, 0
1, 11510, Note_on_c, 0, 80, 0
1, 11513, Note_on_c, 0, 68, 0
1, 11524, Control_c, 0, 64, 0
1, 11524, Note_on_c, 9, 35, 66
1, 11525, Note_on_c, 9, 49, 35
1, 11531, Note_on_c, 9, 59, 77
1, 11534, Note_on_c, 0, 67, 46
1, 11536, Note_on_c, 0, 60, 49
1, 11537, Note_on_c, 0, 50, 39
1, 11537, Note_on_c, 0, 56, 34
1, 11538, Note_on_c, 0, 79, 28
1, 11565, Note_on_c, 9, 49, 0
1, 11581, Note_on_c, 9, 59, 0
1, 11583, Note_on_c, 9, 35, 0
1, 11584, Note_on_c, 0, 67, 0
1, 11585, Note_on_c, 0, 79, 0
1, 11648, Note_on_c, 0, 79, 60
1, 11656, Note_on_c, 0, 67, 55
1, 11658, Note_on_c, 0, 72, 50
1, 11678, Note_on_c, 0, 67, 0
1, 11686, Note_on_c, 0, 72, 0
1, 11696, Note_on_c, 0, 79, 0
1, 11704, Note_on_c, 9, 35, 52
1, 11707, Note_on_c, 1, 44, 88
1, 11718, Note_on_c, 0, 60, 0
1, 11718, Note_on_c, 9, 59, 74
1, 11720, Note_on_c, 1, 38, 0
1, 11730, Note_on_c, 9, 35, 0
1, 11740, Note_on_c, 9, 59, 0
1, 11754, Note_on_c, 0, 56, 0
1, 11759, Control_c, 0, 64, 127
1, 11763, Note_on_c, 0, 50, 0
1, 11764, Note_on_c, 9, 35, 52
1, 11780, Note_on_c, 9, 59, 81
1, 11824, Note_on_c, 9, 59, 0
1, 11832, Note_on_c, 0, 79, 57
1, 11834, Control_c, 0, 64, 0
1, 11840, Note_on_c, 0, 68, 48
1, 11841, Note_on_c, 0, 72, 52
1, 11846, Note_on_c, 0, 60, 40
1, 11852, Note_on_c, 0, 56, 25
1, 11854, Note_on_c, 0, 50, 24
1, 11863, Note_on_c, 9, 35, 0
1, 11879, Note_on_c, 1, 50, 79
1, 11882, Control_c, 0, 64, 127
1, 11885, Note_on_c, 0, 72, 0
1, 11886, Note_on_c, 0, 68, 0
1, 11890, Note_on_c, 1, 44, 0
1, 11890, Note_on_c, 0, 79, 0
1, 11894, Note_on_c, 9, 59, 50
1, 11903, Note_on_c, 0, 50, 0
1, 11904, Note_on_c, 9, 59, 0
1, 11904, Note_on_c, 0, 60, 0
1, 11914, Note_on_c, 0, 56, 0
1, 11944, Note_on_c, 9, 35, 45
1, 11953, Note_on_c, 0, 77, 38
1, 11953, Note_on_c, 9, 59, 80
1, 11954, Control_c, 0, 64, 0
1, 11967, Note_on_c, 9, 35, 0
1, 11976, Note_on_c, 0, 77, 0
1, 11994, Note_on_c, 9, 59, 0
1, 12004, Note_on_c, 9, 35, 49
1, 12007, Note_on_c, 0, 79, 54
1, 12011, Note_on_c, 0, 68, 38
1, 12011, Note_on_c, 0, 72, 47
1, 12012, Note_on_c, 0, 60, 44
1, 12014, Note_on_c, 0, 56, 32
1, 12018, Note_on_c, 0, 50, 28
1, 12035, Note_on_c, 0, 50, 0
1, 12039, Note_on_c, 0, 72, 0
1, 12040, Note_on_c, 0, 68, 0
1, 12042, Note_on_c, 0, 60, 0
1, 12046, Note_on_c, 9, 35, 0
1, 12050, Note_on_c, 0, 79, 0
1, 12068, Note_on_c, 0, 56, 0
1, 12072, Note_on_c, 9, 59, 76
1, 12100, Note_on_c, 9, 59, 0
1, 12135, Control_c, 0, 64, 127
1, 12184, Note_on_c, 1, 50, 0
1, 12184, Note_on_c, 1, 44, 85
1, 12184, Note_on_c, 9, 35, 44
1, 12186, Control_c, 0, 64, 0
1, 12189, Note_on_c, 0, 60, 53
1, 12191, Note_on_c, 9, 59, 64
1, 12192, Note_on_c, 0, 56, 33
1, 12198, Note_on_c, 0, 50, 24
1, 12207, Note_on_c, 9, 59, 0
1, 12208, Note_on_c, 0, 50, 0
1, 12210, Note_on_c, 0, 60, 0
1, 12211, Note_on_c, 9, 35, 0
1, 12233, Note_on_c, 0, 56, 0
1, 12241, Note_on_c, 9, 59, 73
1, 12244, Note_on_c, 9, 35, 47
1, 12277, Note_on_c, 9, 35, 0
1, 12284, Note_on_c, 9, 59, 0
1, 12304, Note_on_c, 9, 35, 47
1, 12330, Control_c, 0, 64, 127
1, 12334, Note_on_c, 9, 35, 0
1, 12354, Control_c, 0, 64, 0
1, 12355, Note_on_c, 0, 63, 59
1, 12362, Note_on_c, 1, 44, 0
1, 12362, Note_on_c, 0, 59, 44
1, 12363, Note_on_c, 9, 59, 84
1, 12371, Note_on_c, 1, 43, 90
1, 12375, Note_on_c, 0, 59, 0
1, 12394, Note_on_c, 0, 63, 0
1, 12396, Note_on_c, 9, 59, 0
1, 12424, Note_on_c, 9, 35, 40
1, 12450, Note_on_c, 9, 35, 0
1, 12469, Control_c, 0, 64, 127
1, 12484, Note_on_c, 9, 35, 41
1, 12492, Note_on_c, 9, 59, 79
1, 12512, Note_on_c, 9, 35, 0
1, 12515, Note_on_c, 9, 59, 0
1, 12544, Note_on_c, 0, 63, 46
1, 12547, Control_c, 0, 64, 0
1, 12550, Note_on_c, 0, 58, 37
1, 12554, Note_on_c, 9, 59, 68
1, 12573, Note_on_c, 9, 59, 0
1, 12575, Note_on_c, 0, 63, 0
1, 12604, Control_c, 0, 64, 127
1, 12609, Note_on_c, 0, 58, 0
1, 12664, Note_on_c, 9, 35, 54
1, 12667, Note_on_c, 9, 59, 62
1, 12671, Note_on_c, 0, 63, 74
1, 12672, Note_on_c, 0, 58, 56
1, 12673, Note_on_c, 0, 92, 81
1, 12676, Note_on_c, 0, 59, 62
1, 12676, Note_on_c, 0, 80, 80
1, 12676, Note_on_c, 1, 31, 94
1, 12678, Note_on_c, 0, 53, 54
1, 12686, Note_on_c, 9, 59, 0
1, 12687, Note_on_c, 9, 35, 0
1, 12702, Note_on_c, 0, 59, 0
1, 12703, Note_on_c, 0, 63, 0
1, 12703, Control_c, 0, 64, 0
1, 12705, Note_on_c, 0, 53, 0
1, 12721, Note_on_c, 0, 80, 0
1, 12724, Note_on_c, 9, 35, 44
1, 12725, Note_on_c, 0, 92, 0
1, 12727, Note_on_c, 9, 59, 74
1, 12731, Note_on_c, 0, 63, 47
1, 12740, Note_on_c, 0, 53, 54
1, 12742, Note_on_c, 0, 59, 45
1, 12743, Note_on_c, 0, 91, 61
1, 12744, Note_on_c, 0, 79, 60
1, 12750, Note_on_c, 9, 59, 0
1, 12753, Note_on_c, 0, 90, 25
1, 12758, Note_on_c, 9, 35, 0
1, 12767, Note_on_c, 0, 90, 0
1, 12773, Note_on_c, 0, 53, 0
1, 12773, Control_c, 0, 64, 127
1, 12774, Note_on_c, 0, 91, 0
1, 12776, Note_on_c, 0, 79, 0
1, 12777, Note_on_c, 0, 63, 0
1, 12781, Note_on_c, 0, 59, 0
1, 12787, Note_on_c, 9, 53, 76
1, 12791, Note_on_c, 0, 58, 0
1, 12797, Control_c, 0, 64, 0
1, 12811, Note_on_c, 0, 63, 55
1, 12812, Note_on_c, 9, 53, 0
1, 12815, Note_on_c, 0, 58, 38
1, 12818, Note_on_c, 1, 43, 0
1, 12818, Note_on_c, 0, 80, 55
1, 12820, Note_on_c, 0, 92, 55
1, 12823, Note_on_c, 0, 59, 26
1, 12833, Note_on_c, 0, 63, 0
1, 12841, Note_on_c, 0, 92, 0
1, 12841, Note_on_c, 0, 80, 0
1, 12845, Note_on_c, 0, 59, 0
1, 12850, Note_on_c, 1, 43, 89
1, 12863, Note_on_c, 0, 58, 0
1, 12878, Control_c, 0, 64, 127
1, 12899, Control_c, 0, 64, 0
1, 12904, Note_on_c, 9, 35, 45
1, 12908, Note_on_c, 9, 59, 81
1, 12919, Note_on_c, 0, 63, 76
1, 12920, Note_on_c, 0, 94, 84
1, 12921, Note_on_c, 0, 58, 46
1, 12922, Note_on_c, 0, 82, 80
1, 12923, Note_on_c, 0, 59, 68
1, 12925, Note_on_c, 0, 53, 62
1, 12930, Note_on_c, 9, 35, 0
1, 12950, Note_on_c, 9, 59, 0
1, 12962, Control_c, 0, 64, 127
1, 12964, Note_on_c, 9, 35, 52
1, 12981, Note_on_c, 1, 31, 0
1, 12994, Note_on_c, 9, 35, 0
1, 13027, Note_on_c, 9, 59, 83
1, 13048, Note_on_c, 0, 53, 0
1, 13057, Note_on_c, 0, 59, 0
1, 13058, Note_on_c, 0, 63, 0
1, 13058, Note_on_c, 0, 94, 0
1, 13063, Note_on_c, 0, 82, 0
1, 13064, Note_on_c, 9, 59, 0
1, 13074, Note_on_c, 0, 58, 0
1, 13091, Note_on_c, 0, 63, 57
1, 13092, Note_on_c, 0, 59, 54
1, 13097, Note_on_c, 0, 58, 23
1, 13098, Control_c, 0, 64, 0
1, 13098, Note_on_c, 0, 53, 46
1, 13100, Note_on_c, 0, 79, 37
1, 13103, Note_on_c, 0, 81, 44
1, 13114, Note_on_c, 0, 81, 0
1, 13116, Note_on_c, 0, 91, 18
1, 13122, Note_on_c, 0, 79, 0
1, 13127, Note_on_c, 0, 91, 0
1, 13130, Note_on_c, 0, 63, 0
1, 13130, Note_on_c, 0, 53, 0
1, 13141, Note_on_c, 0, 59, 0
1, 13144, Note_on_c, 9, 35, 50
1, 13146, Note_on_c, 0, 58, 0
1, 13147, Note_on_c, 9, 59, 75
1, 13157, Note_on_c, 1, 43, 0
1, 13157, Note_on_c, 1, 35, 84
1, 13168, Note_on_c, 9, 35, 0
1, 13170, Note_on_c, 9, 59, 0
1, 13204, Note_on_c, 9, 35, 47
1, 13207, Note_on_c, 9, 59, 73
1, 13212, Control_c, 0, 64, 127
1, 13233, Note_on_c, 9, 35, 0
1, 13240, Note_on_c, 9, 59, 0
1, 13264, Note_on_c, 9, 35, 46
1, 13269, Note_on_c, 9, 53, 77
1, 13277, Note_on_c, 0, 63, 69
1, 13278, Note_on_c, 0, 58, 46
1, 13279, Note_on_c, 0, 95, 80
1, 13281, Control_c, 0, 64, 0
1, 13281, Note_on_c, 0, 92, 52
1, 13282, Note_on_c, 0, 83, 65
1, 13284, Note_on_c, 0, 59, 62
1, 13287, Note_on_c, 9, 53, 0
1, 13287, Note_on_c, 0, 53, 48
1, 13287, Note_on_c, 0, 88, 48
1, 13295, Note_on_c, 9, 35, 0
1, 13307, Note_on_c, 1, 35, 0
1, 13314, Note_on_c, 0, 88, 0
1, 13317, Note_on_c, 0, 92, 0
1, 13320, Note_on_c, 0, 63, 0
1, 13323, Note_on_c, 0, 53, 0
1, 13323, Note_on_c, 1, 36, 110
1, 13325, Note_on_c, 0, 59, 0
1, 13326, Control_c, 0, 64, 127
1, 13329, Note_on_c, 1, 35, 71
1, 13331, Note_on_c, 9, 59, 58
1, 13333, Note_on_c, 0, 83, 0
1, 13340, Note_on_c, 1, 35, 0
1, 13343, Note_on_c, 0, 95, 0
1, 13350, Note_on_c, 0, 58, 0
1, 13352, Note_on_c, 9, 59, 0
1, 13384, Note_on_c, 9, 35, 42
1, 13395, Note_on_c, 0, 92, 60
1, 13400, Note_on_c, 9, 59, 73
1, 13410, Note_on_c, 9, 35, 0
1, 13423, Note_on_c, 9, 59, 0
1, 13425, Note_on_c, 0, 92, 0
1, 13443, Control_c, 0, 64, 0
1, 13444, Note_on_c, 9, 35, 50
1, 13448, Note_on_c, 0, 62, 66
1, 13451, Note_on_c, 0, 96, 84
1, 13452, Note_on_c, 0, 51, 48
1, 13452, Note_on_c, 0, 90, 62
1, 13454, Note_on_c, 0, 84, 57
1, 13455, Note_on_c, 1, 36, 0
1, 13455, Note_on_c, 0, 55, 61
1, 13455, Note_on_c, 9, 59, 72
1, 13456, Note_on_c, 0, 57, 61
1, 13471, Note_on_c, 9, 35, 0
1, 13491, Note_on_c, 9, 59, 0
1, 13514, Note_on_c, 0, 84, 0
1, 13520, Note_on_c, 0, 57, 0
1, 13521, Note_on_c, 0, 51, 0
1, 13522, Note_on_c, 0, 55, 0
1, 13522, Note_on_c, 0, 96, 0
1, 13527, Note_on_c, 0, 90, 0
1, 13534, Note_on_c, 0, 62, 0
1, 13568, Note_on_c, 9, 59, 68
1, 13607, Note_on_c, 9, 59, 0
1, 13624, Note_on_c, 9, 35, 49
1, 13647, Note_on_c, 9, 35, 0
1, 13684, Note_on_c, 9, 35, 41
1, 13691, Note_on_c, 9, 59, 65
1, 13714, Note_on_c, 9, 35, 0
1, 13719, Note_on_c, 9, 59, 0
1, 13743, Note_on_c, 9, 59, 67
1, 13767, Note_on_c, 1, 43, 83
1, 13780, Note_on_c, 9, 59, 0
1, 13806, Note_on_c, 0, 43, 59
1, 13826, Note_on_c, 0, 43, 0
1, 13858, Note_on_c, 9, 59, 52
1, 13864, Note_on_c, 9, 35, 53
1, 13886, Note_on_c, 9, 35, 0
1, 13898, Note_on_c, 9, 59, 0
1, 13924, Note_on_c, 0, 75, 63
1, 13924, Note_on_c, 9, 35, 40
1, 13925, Note_on_c, 0, 71, 58
1, 13929, Note_on_c, 0, 65, 54
1, 13930, Note_on_c, 0, 68, 39
1, 13931, Note_on_c, 1, 43, 0
1, 13931, Note_on_c, 0, 63, 39
1, 13940, Note_on_c, 1, 48, 92
1, 13950, Note_on_c, 0, 75, 0
1, 13954, Note_on_c, 9, 35, 0
1, 13962, Note_on_c, 0, 71, 0
1, 13963, Note_on_c, 0, 68, 0
1, 13965, Note_on_c, 0, 65, 0
1, 13970, Note_on_c, 0, 63, 0
1, 13974, Note_on_c, 9, 59, 73
1, 14021, Note_on_c, 9, 59, 0
1, 14095, Note_on_c, 9, 59, 68
1, 14104, Note_on_c, 9, 35, 49
1, 14121, Note_on_c, 9, 59, 0
1, 14129, Note_on_c, 9, 35, 0
1, 14151, Note_on_c, 9, 59, 64
1, 14161, Note_on_c, 0, 75, 76
1, 14164, Note_on_c, 9, 35, 40
1, 14166, Note_on_c, 0, 68, 57
1, 14166, Note_on_c, 0, 63, 69
1, 14166, Note_on_c, 0, 65, 68
1, 14171, Note_on_c, 0, 71, 41
1, 14171, Note_on_c, 0, 72, 38
1, 14183, Note_on_c, 0, 72, 0
1, 14184, Note_on_c, 0, 65, 0
1, 14189, Note_on_c, 0, 71, 0
1, 14191, Note_on_c, 0, 68, 0
1, 14194, Note_on_c, 9, 35, 0
1, 14195, Note_on_c, 0, 75, 0
1, 14197, Note_on_c, 0, 63, 0
1, 14201, Note_on_c, 9, 59, 0
1, 14241, Note_on_c, 1, 43, 85
1, 14253, Note_on_c, 1, 48, 0
1, 14274, Note_on_c, 9, 59, 79
1, 14287, Note_on_c, 0, 59, 34
1, 14304, Note_on_c, 0, 59, 0
1, 14321, Note_on_c, 9, 59, 0
1, 14344, Note_on_c, 9, 35, 50
1, 14352, Note_on_c, 0, 74, 74
1, 14354, Note_on_c, 0, 63, 65
1, 14355, Note_on_c, 0, 67, 70
1, 14358, Note_on_c, 0, 70, 53
1, 14361, Note_on_c, 0, 62, 64
1, 14369, Note_on_c, 9, 35, 0
1, 14402, Note_on_c, 9, 59, 80
1, 14404, Note_on_c, 9, 35, 50
1, 14412, Note_on_c, 1, 36, 84
1, 14419, Control_c, 0, 64, 127
1, 14421, Note_on_c, 1, 43, 0
1, 14432, Note_on_c, 9, 35, 0
1, 14451, Note_on_c, 9, 59, 0
1, 14487, Note_on_c, 0, 63, 0
1, 14488, Note_on_c, 0, 67, 0
1, 14493, Note_on_c, 0, 70, 0
1, 14504, Note_on_c, 0, 74, 0
1, 14509, Control_c, 0, 64, 0
1, 14516, Note_on_c, 0, 62, 0
1, 14520, Note_on_c, 0, 63, 69
1, 14523, Note_on_c, 0, 67, 43
1, 14526, Note_on_c, 0, 72, 60
1, 14527, Note_on_c, 9, 59, 71
1, 14528, Note_on_c, 0, 70, 32
1, 14529, Note_on_c, 0, 60, 55
1, 14541, Note_on_c, 0, 70, 0
1, 14551, Note_on_c, 0, 60, 0
1, 14552, Note_on_c, 0, 67, 0
1, 14557, Note_on_c, 0, 63, 0
1, 14559, Note_on_c, 0, 72, 0
1, 14569, Note_on_c, 9, 59, 0
1, 14584, Note_on_c, 9, 35, 50
1, 14605, Note_on_c, 9, 35, 0
1, 14636, Control_c, 0, 64, 127
1, 14644, Note_on_c, 9, 35, 56
1, 14646, Note_on_c, 9, 59, 66
1, 14674, Note_on_c, 9, 35, 0
1, 14682, Note_on_c, 9, 59, 0
1, 14705, Note_on_c, 0, 70, 55
1, 14708, Note_on_c, 0, 63, 51
1, 14710, Note_on_c, 0, 67, 50
1, 14710, Note_on_c, 9, 59, 62
1, 14711, Control_c, 0, 64, 0
1, 14711, Note_on_c, 1, 43, 87
1, 14712, Note_on_c, 0, 53, 48
1, 14713, Note_on_c, 0, 43, 37
1, 14714, Note_on_c, 0, 59, 31
1, 14719, Note_on_c, 1, 36, 0
1, 14747, Note_on_c, 9, 59, 0
1, 14777, Control_c, 0, 64, 127
1, 14782, Note_on_c, 0, 67, 0
1, 14802, Note_on_c, 0, 70, 0
1, 14806, Note_on_c, 0, 59, 0
1, 14822, Note_on_c, 0, 63, 0
1, 14823, Note_on_c, 0, 53, 0
1, 14824, Note_on_c, 9, 35, 56
1, 14830, Note_on_c, 9, 59, 80
1, 14844, Note_on_c, 0, 43, 0
1, 14851, Note_on_c, 9, 35, 0
1, 14853, Note_on_c, 0, 50, 44
1, 14871, Note_on_c, 0, 50, 0
1, 14880, Note_on_c, 9, 59, 0
1, 14883, Note_on_c, 1, 43, 0
1, 14883, Note_on_c, 0, 58, 74
1, 14885, Control_c, 0, 64, 0
1, 14886, Note_on_c, 0, 63, 59
1, 14887, Note_on_c, 0, 55, 71
1, 14891, Note_on_c, 0, 51, 73
1, 14895, Note_on_c, 1, 48, 92
1, 14923, Note_on_c, 0, 58, 0
1, 14940, Note_on_c, 0, 55, 0
1, 14944, Note_on_c, 9, 35, 54
1, 14949, Note_on_c, 0, 63, 0
1, 14949, Note_on_c, 0, 51, 0
1, 14951, Note_on_c, 9, 59, 79
1, 14972, Note_on_c, 9, 35, 0
1, 14988, Note_on_c, 0, 49, 32
1, 15000, Note_on_c, 9, 59, 0
1, 15007, Note_on_c, 0, 62, 56
1, 15009, Note_on_c, 0, 50, 57
1, 15009, Note_on_c, 0, 58, 52
1, 15012, Note_on_c, 0, 55, 63
1, 15030, Note_on_c, 0, 49, 0
1, 15064, Note_on_c, 9, 35, 46
1, 15068, Note_on_c, 1, 48, 0
1, 15074, Note_on_c, 9, 59, 72
1, 15075, Note_on_c, 0, 58, 0
1, 15075, Note_on_c, 0, 55, 0
1, 15076, Note_on_c, 1, 42, 79
1, 15079, Note_on_c, 0, 50, 0
1, 15090, Note_on_c, 9, 35, 0
1, 15095, Note_on_c, 0, 46, 33
1, 15100, Note_on_c, 9, 59, 0
1, 15102, Note_on_c, 0, 62, 0
1, 15121, Note_on_c, 0, 46, 0
1, 15131, Note_on_c, 9, 59, 68
1, 15132, Note_on_c, 0, 55, 65
1, 15133, Note_on_c, 0, 57, 60
1, 15133, Note_on_c, 0, 60, 68
1, 15135, Note_on_c, 0, 48, 50
1, 15177, Control_c, 0, 64, 127
1, 15180, Note_on_c, 9, 59, 0
1, 15184, Note_on_c, 9, 35, 50
1, 15198, Note_on_c, 0, 48, 0
1, 15207, Note_on_c, 0, 57, 0
1, 15207, Control_c, 0, 64, 0
1, 15208, Note_on_c, 0, 55, 0
1, 15211, Note_on_c, 9, 35, 0
1, 15218, Note_on_c, 0, 60, 0
1, 15246, Note_on_c, 1, 42, 0
1, 15247, Note_on_c, 9, 59, 81
1, 15253, Note_on_c, 0, 44, 79
1, 15253, Note_on_c, 1, 43, 89
1, 15270, Control_c, 0, 64, 127
1, 15288, Control_c, 0, 64, 0
1, 15290, Note_on_c, 9, 59, 0
1, 15304, Note_on_c, 9, 35, 54
1, 15328, Note_on_c, 9, 35, 0
1, 15339, Note_on_c, 0, 44, 0
1, 15357, Note_on_c, 9, 51, 115
1, 15364, Note_on_c, 9, 35, 57
1, 15366, Note_on_c, 9, 59, 84
1, 15370, Note_on_c, 0, 56, 72
1, 15371, Note_on_c, 0, 62, 71
1, 15372, Note_on_c, 0, 43, 72
1, 15374, Note_on_c, 0, 60, 76
1, 15391, Note_on_c, 9, 35, 0
1, 15392, Note_on_c, 0, 43, 0
1, 15401, Note_on_c, 0, 56, 0
1, 15402, Note_on_c, 9, 59, 0
1, 15406, Note_on_c, 0, 60, 0
1, 15420, Note_on_c, 0, 62, 0
1, 15428, Note_on_c, 9, 51, 0
1, 15488, Note_on_c, 9, 62, 56
1, 15489, Note_on_c, 9, 51, 44
1, 15494, Note_on_c, 9, 63, 30
1, 15497, Note_on_c, 9, 75, 78
1, 15502, Note_on_c, 9, 51, 0
1, 15510, Note_on_c, 9, 63, 0
1, 15511, Note_on_c, 9, 62, 0
1, 15518, Note_on_c, 9, 75, 0
1, 15544, Note_on_c, 9, 35, 63
1, 15544, Note_on_c, 9, 51, 86
1, 15548, Note_on_c, 9, 63, 56
1, 15552, Note_on_c, 9, 62, 28
1, 15561, Note_on_c, 1, 38, 58
1, 15564, Note_on_c, 9, 62, 0
1, 15566, Note_on_c, 0, 67, 60
1, 15568, Note_on_c, 9, 35, 0
1, 15576, Note_on_c, 9, 51, 0
1, 15577, Note_on_c, 9, 63, 0
1, 15592, Note_on_c, 0, 67, 0
1, 15596, Note_on_c, 1, 38, 0
1, 15604, Note_on_c, 9, 35, 52
1, 15608, Note_on_c, 9, 51, 43
1, 15619, Note_on_c, 9, 75, 80
1, 15633, Note_on_c, 9, 35, 0
1, 15636, Note_on_c, 9, 51, 0
1, 15644, Note_on_c, 9, 75, 0
1, 15678, Note_on_c, 0, 68, 63
1, 15681, Note_on_c, 9, 51, 15
1, 15682, Note_on_c, 0, 62, 44
1, 15683, Note_on_c, 0, 60, 33
1, 15685, Note_on_c, 0, 56, 21
1, 15692, Note_on_c, 0, 62, 0
1, 15693, Note_on_c, 9, 51, 0
1, 15696, Note_on_c, 0, 60, 0
1, 15704, Note_on_c, 0, 68, 0
1, 15713, Note_on_c, 0, 56, 0
1, 15719, Note_on_c, 9, 64, 69
1, 15720, Note_on_c, 1, 31, 87
1, 15744, Note_on_c, 9, 64, 0
1, 15776, Note_on_c, 9, 51, 82
1, 15784, Note_on_c, 9, 35, 61
1, 15788, Note_on_c, 9, 64, 69
1, 15792, Note_on_c, 0, 72, 33
1, 15800, Note_on_c, 9, 51, 0
1, 15809, Note_on_c, 9, 35, 0
1, 15816, Note_on_c, 0, 72, 0
1, 15825, Note_on_c, 9, 64, 0
1, 15840, Note_on_c, 9, 51, 34
1, 15844, Note_on_c, 9, 35, 52
1, 15845, Note_on_c, 9, 75, 76
1, 15853, Note_on_c, 0, 76, 53
1, 15858, Note_on_c, 9, 51, 0
1, 15870, Note_on_c, 9, 75, 0
1, 15878, Note_on_c, 9, 35, 0
1, 15903, Note_on_c, 0, 76, 0
1, 15905, Note_on_c, 9, 51, 50
1, 15911, Note_on_c, 0, 79, 57
1, 15925, Note_on_c, 9, 51, 0
1, 15938, Note_on_c, 0, 62, 40
1, 15945, Note_on_c, 0, 60, 31
1, 15949, Note_on_c, 0, 62, 0
1, 15953, Note_on_c, 9, 62, 54
1, 15960, Note_on_c, 0, 60, 0
1, 15961, Note_on_c, 0, 79, 0
1, 15962, Note_on_c, 9, 63, 47
1, 15970, Note_on_c, 9, 51, 24
1, 15974, Note_on_c, 0, 77, 47
1, 15984, Note_on_c, 9, 62, 0
1, 15986, Note_on_c, 9, 51, 0
1, 15991, Note_on_c, 9, 63, 0
1, 16008, Note_on_c, 1, 43, 0
1, 16020, Note_on_c, 1, 31, 0
1, 16022, Note_on_c, 0, 77, 0
1, 16022, Note_on_c, 9, 62, 56
1, 16023, Note_on_c, 9, 51, 127
1, 16024, Note_on_c, 9, 35, 58
1, 16024, Note_on_c, 9, 63, 50
1, 16025, Note_on_c, 9, 75, 78
1, 16028, Note_on_c, 1, 38, 68
1, 16048, Note_on_c, 9, 35, 0
1, 16052, Note_on_c, 9, 51, 0
1, 16055, Note_on_c, 9, 62, 0
1, 16064, Note_on_c, 9, 75, 0
1, 16069, Note_on_c, 9, 63, 0
1, 16083, Note_on_c, 9, 51, 62
1, 16084, Note_on_c, 9, 35, 52
1, 16086, Note_on_c, 0, 68, 43
1, 16112, Note_on_c, 9, 35, 0
1, 16119, Note_on_c, 9, 51, 0
1, 16132, Note_on_c, 0, 68, 0
1, 16144, Note_on_c, 9, 35, 53
1, 16152, Note_on_c, 9, 51, 62
1, 16170, Note_on_c, 9, 51, 0
1, 16173, Note_on_c, 9, 35, 0
1, 16192, Note_on_c, 1, 38, 0
1, 16200, Note_on_c, 0, 62, 43
1, 16200, Note_on_c, 9, 64, 72
1, 16202, Note_on_c, 9, 51, 106
1, 16206, Note_on_c, 0, 60, 41
1, 16209, Note_on_c, 0, 68, 45
1, 16212, Note_on_c, 1, 43, 92
1, 16214, Note_on_c, 0, 55, 25
1, 16215, Note_on_c, 9, 75, 76
1, 16216, Note_on_c, 0, 56, 25
1, 16227, Note_on_c, 0, 62, 0
1, 16229, Note_on_c, 0, 55, 0
1, 16234, Note_on_c, 9, 51, 0
1, 16237, Note_on_c, 0, 60, 0
1, 16242, Note_on_c, 9, 64, 0
1, 16244, Note_on_c, 9, 75, 0
1, 16248, Note_on_c, 0, 56, 0
1, 16264, Note_on_c, 9, 35, 58
1, 16267, Note_on_c, 9, 51, 65
1, 16269, Note_on_c, 0, 68, 0
1, 16269, Note_on_c, 9, 64, 76
1, 16289, Note_on_c, 9, 51, 0
1, 16291, Note_on_c, 9, 35, 0
1, 16306, Note_on_c, 9, 64, 0
1, 16321, Note_on_c, 9, 51, 115
1, 16324, Note_on_c, 9, 35, 53
1, 16334, Note_on_c, 0, 67, 37
1, 16352, Note_on_c, 9, 35, 0
1, 16364, Note_on_c, 0, 67, 0
1, 16399, Note_on_c, 9, 51, 0
1, 16401, Note_on_c, 0, 62, 27
1, 16402, Note_on_c, 0, 60, 40
1, 16413, Note_on_c, 0, 62, 0
1, 16417, Note_on_c, 0, 60, 0
1, 16451, Note_on_c, 9, 75, 79
1, 16455, Note_on_c, 9, 63, 38
1, 16457, Note_on_c, 9, 62, 44
1, 16478, Note_on_c, 9, 62, 0
1, 16478, Note_on_c, 9, 75, 0
1, 16494, Note_on_c, 9, 63, 0
1, 16504, Note_on_c, 9, 35, 57
1, 16511, Note_on_c, 9, 51, 96
1, 16513, Note_on_c, 1, 50, 80
1, 16517, Note_on_c, 9, 62, 54
1, 16519, Note_on_c, 0, 62, 54
1, 16520, Note_on_c, 9, 63, 52
1, 16522, Note_on_c, 0, 60, 48
1, 16522, Note_on_c, 0, 56, 28
1, 16530, Note_on_c, 0, 62, 0
1, 16530, Note_on_c, 9, 35, 0
1, 16534, Note_on_c, 0, 60, 0
1, 16538, Note_on_c, 9, 51, 0
1, 16542, Note_on_c, 9, 62, 0
1, 16549, Note_on_c, 9, 63, 0
1, 16551, Note_on_c, 0, 56, 0
1, 16564, Note_on_c, 9, 35, 42
1, 16567, Note_on_c, 9, 51, 50
1, 16572, Note_on_c, 9, 75, 78
1, 16587, Note_on_c, 9, 51, 0
1, 16593, Note_on_c, 9, 35, 0
1, 16600, Note_on_c, 9, 75, 0
1, 16627, Note_on_c, 9, 51, 65
1, 16638, Note_on_c, 0, 91, 77
1, 16644, Note_on_c, 1, 43, 0
1, 16658, Note_on_c, 9, 51, 0
1, 16675, Note_on_c, 0, 91, 0
1, 16686, Note_on_c, 1, 43, 90
1, 16698, Note_on_c, 9, 51, 21
1, 16701, Note_on_c, 1, 50, 0
1, 16704, Note_on_c, 9, 64, 105
1, 16707, Note_on_c, 9, 51, 0
1, 16739, Note_on_c, 9, 64, 0
1, 16741, Note_on_c, 0, 89, 95
1, 16741, Note_on_c, 0, 62, 57
1, 16743, Note_on_c, 9, 51, 82
1, 16744, Note_on_c, 0, 60, 48
1, 16744, Note_on_c, 9, 35, 63
1, 16746, Note_on_c, 0, 55, 36
1, 16746, Note_on_c, 0, 56, 31
1, 16760, Note_on_c, 0, 55, 0
1, 16760, Note_on_c, 9, 64, 105
1, 16767, Note_on_c, 0, 62, 0
1, 16767, Note_on_c, 9, 51, 0
1, 16772, Note_on_c, 9, 35, 0
1, 16775, Note_on_c, 0, 89, 0
1, 16784, Note_on_c, 0, 60, 0
1, 16789, Note_on_c, 0, 56, 0
1, 16804, Note_on_c, 9, 35, 42
1, 16805, Note_on_c, 9, 51, 77
1, 16807, Note_on_c, 9, 75, 79
1, 16816, Note_on_c, 9, 64, 0
1, 16830, Note_on_c, 0, 87, 77
1, 16834, Note_on_c, 9, 75, 0
1, 16835, Note_on_c, 9, 35, 0
1, 16835, Control_c, 0, 64, 127
1, 16840, Note_on_c, 9, 51, 0
1, 16870, Note_on_c, 0, 87, 0
1, 16873, Note_on_c, 9, 51, 31
1, 16888, Note_on_c, 9, 51, 0
1, 16892, Control_c, 0, 64, 0
1, 16907, Note_on_c, 0, 60, 42
1, 16907, Note_on_c, 0, 86, 66
1, 16911, Note_on_c, 0, 56, 25
1, 16918, Note_on_c, 9, 62, 42
1, 16924, Note_on_c, 9, 63, 45
1, 16928, Note_on_c, 0, 60, 0
1, 16932, Note_on_c, 0, 56, 0
1, 16934, Note_on_c, 0, 86, 0
1, 16952, Note_on_c, 9, 62, 0
1, 16955, Control_c, 0, 64, 127
1, 16960, Note_on_c, 9, 63, 0
1, 16961, Control_c, 0, 64, 0
1, 16981, Note_on_c, 9, 51, 92
1, 16983, Note_on_c, 9, 62, 58
1, 16984, Note_on_c, 9, 35, 40
1, 16984, Note_on_c, 9, 63, 60
1, 16987, Note_on_c, 1, 50, 89
1, 16991, Note_on_c, 9, 75, 77
1, 17004, Note_on_c, 0, 91, 99
1, 17006, Note_on_c, 9, 51, 0
1, 17010, Note_on_c, 9, 35, 0
1, 17013, Note_on_c, 9, 62, 0
1, 17021, Note_on_c, 1, 43, 0
1, 17024, Note_on_c, 9, 63, 0
1, 17031, Note_on_c, 9, 75, 0
1, 17034, Note_on_c, 0, 91, 0
1, 17038, Note_on_c, 9, 51, 73
1, 17044, Note_on_c, 9, 35, 53
1, 17065, Note_on_c, 9, 51, 0
1, 17071, Note_on_c, 9, 35, 0
1, 17079, Note_on_c, 0, 89, 91
1, 17099, Note_on_c, 9, 51, 92
1, 17106, Control_c, 0, 64, 127
1, 17115, Control_c, 0, 64, 0
1, 17121, Note_on_c, 0, 89, 0
1, 17130, Note_on_c, 9, 51, 0
1, 17149, Note_on_c, 9, 64, 68
1, 17161, Note_on_c, 0, 62, 50
1, 17162, Note_on_c, 0, 87, 85
1, 17164, Note_on_c, 0, 56, 35
1, 17164, Note_on_c, 0, 60, 41
1, 17164, Note_on_c, 9, 51, 56
1, 17165, Note_on_c, 1, 50, 0
1, 17167, Note_on_c, 1, 48, 87
1, 17168, Note_on_c, 9, 75, 81
1, 17174, Note_on_c, 0, 62, 0
1, 17181, Note_on_c, 9, 51, 0
1, 17181, Note_on_c, 0, 60, 0
1, 17187, Note_on_c, 9, 64, 0
1, 17195, Note_on_c, 0, 87, 0
1, 17200, Note_on_c, 9, 75, 0
1, 17204, Note_on_c, 0, 56, 0
1, 17215, Note_on_c, 9, 64, 70
1, 17223, Note_on_c, 9, 51, 59
1, 17224, Note_on_c, 9, 35, 58
1, 17242, Note_on_c, 9, 51, 0
1, 17249, Note_on_c, 9, 64, 0
1, 17252, Note_on_c, 9, 35, 0
1, 17253, Note_on_c, 0, 86, 80
1, 17271, Note_on_c, 0, 62, 62
1, 17273, Note_on_c, 0, 51, 37
1, 17274, Note_on_c, 0, 57, 48
1, 17279, Note_on_c, 0, 55, 45
1, 17284, Note_on_c, 0, 86, 0
1, 17284, Note_on_c, 9, 35, 52
1, 17285, Note_on_c, 9, 51, 96
1, 17292, Note_on_c, 0, 55, 0
1, 17303, Note_on_c, 0, 62, 0
1, 17310, Note_on_c, 9, 35, 0
1, 17322, Note_on_c, 0, 51, 0
1, 17342, Note_on_c, 0, 86, 83
1, 17351, Note_on_c, 0, 57, 0
1, 17362, Note_on_c, 9, 51, 0
1, 17407, Note_on_c, 9, 63, 68
1, 17415, Note_on_c, 9, 75, 82
1, 17435, Note_on_c, 9, 63, 0
1, 17446, Note_on_c, 9, 75, 0
1, 17464, Note_on_c, 9, 35, 53
1, 17466, Note_on_c, 9, 51, 96
1, 17473, Note_on_c, 9, 63, 90
1, 17478, Note_on_c, 1, 43, 85
1, 17486, Note_on_c, 0, 86, 0
1, 17489, Note_on_c, 9, 35, 0
1, 17495, Note_on_c, 9, 51, 0
1, 17495, Note_on_c, 0, 87, 59
1, 17498, Note_on_c, 1, 48, 0
1, 17514, Note_on_c, 0, 57, 41
1, 17518, Note_on_c, 0, 86, 40
1, 17524, Note_on_c, 9, 35, 50
1, 17531, Note_on_c, 9, 75, 77
1, 17532, Note_on_c, 0, 57, 0
1, 17536, Note_on_c, 0, 87, 0
1, 17541, Note_on_c, 0, 86, 0
1, 17552, Note_on_c, 9, 35, 0
1, 17553, Note_on_c, 0, 79, 42
1, 17558, Note_on_c, 9, 75, 0
1, 17582, Note_on_c, 9, 63, 0
1, 17612, Note_on_c, 0, 79, 0
1, 17623, Note_on_c, 0, 86, 79
1, 17642, Note_on_c, 9, 51, 50
1, 17647, Note_on_c, 9, 64, 54
1, 17653, Note_on_c, 1, 36, 91
1, 17654, Note_on_c, 9, 51, 0
1, 17658, Note_on_c, 0, 86, 0
1, 17661, Note_on_c, 1, 43, 0
1, 17680, Note_on_c, 9, 64, 0
1, 17695, Note_on_c, 0, 84, 78
1, 17698, Note_on_c, 9, 51, 96
1, 17704, Note_on_c, 9, 35, 54
1, 17716, Note_on_c, 9, 64, 75
1, 17727, Note_on_c, 9, 51, 0
1, 17731, Note_on_c, 9, 35, 0
1, 17735, Note_on_c, 0, 84, 0
1, 17764, Note_on_c, 9, 35, 40
1, 17767, Note_on_c, 9, 51, 31
1, 17775, Note_on_c, 9, 75, 82
1, 17780, Note_on_c, 0, 79, 58
1, 17784, Note_on_c, 9, 64, 0
1, 17788, Note_on_c, 9, 51, 0
1, 17796, Note_on_c, 9, 35, 0
1, 17805, Note_on_c, 9, 75, 0
1, 17817, Note_on_c, 0, 79, 0
1, 17828, Note_on_c, 9, 51, 86
1, 17857, Note_on_c, 0, 75, 67
1, 17862, Note_on_c, 9, 51, 0
1, 17886, Note_on_c, 0, 75, 0
1, 17892, Note_on_c, 9, 62, 51
1, 17893, Note_on_c, 9, 63, 36
1, 17899, Note_on_c, 9, 51, 33
1, 17915, Note_on_c, 9, 62, 0
1, 17917, Note_on_c, 9, 51, 0
1, 17920, Note_on_c, 9, 63, 0
1, 17944, Note_on_c, 9, 35, 60
1, 17948, Note_on_c, 1, 36, 0
1, 17948, Note_on_c, 0, 74, 59
1, 17953, Note_on_c, 1, 43, 90
1, 17960, Note_on_c, 9, 75, 77
1, 17962, Note_on_c, 9, 51, 44
1, 17962, Note_on_c, 9, 62, 42
1, 17965, Note_on_c, 9, 63, 46
1, 17967, Note_on_c, 9, 35, 0
1, 17973, Note_on_c, 9, 51, 0
1, 17988, Note_on_c, 9, 62, 0
1, 17989, Note_on_c, 0, 74, 0
1, 18001, Note_on_c, 9, 75, 0
1, 18004, Note_on_c, 9, 63, 0
1, 18004, Note_on_c, 9, 35, 49
1, 18009, Note_on_c, 9, 51, 44
1, 18018, Note_on_c, 0, 77, 68
1, 18021, Note_on_c, 0, 63, 51
1, 18024, Note_on_c, 9, 51, 0
1, 18028, Note_on_c, 9, 35, 0
1, 18033, Note_on_c, 0, 53, 33
1, 18035, Note_on_c, 0, 58, 23
1, 18060, Note_on_c, 0, 63, 0
1, 18064, Note_on_c, 9, 35, 60
1, 18067, Note_on_c, 0, 53, 0
1, 18067, Note_on_c, 9, 51, 106
1, 18069, Note_on_c, 0, 77, 0
1, 18072, Note_on_c, 0, 58, 0
1, 18092, Note_on_c, 9, 35, 0
1, 18102, Note_on_c, 9, 51, 0
1, 18125, Note_on_c, 9, 64, 67
1, 18127, Note_on_c, 0, 63, 42
1, 18128, Note_on_c, 0, 53, 50
1, 18130, Note_on_c, 9, 75, 81
1, 18130, Note_on_c, 9, 51, 62
1, 18133, Note_on_c, 0, 77, 55
1, 18137, Note_on_c, 0, 58, 33
1, 18142, Note_on_c, 1, 51, 86
1, 18153, Note_on_c, 1, 49, 35
1, 18154, Note_on_c, 9, 51, 0
1, 18161, Note_on_c, 9, 64, 0
1, 18163, Note_on_c, 9, 75, 0
1, 18166, Note_on_c, 1, 49, 0
1, 18166, Note_on_c, 0, 77, 0
1, 18175, Note_on_c, 0, 53, 0
1, 18184, Note_on_c, 9, 35, 50
1, 18190, Note_on_c, 9, 51, 68
1, 18195, Note_on_c, 9, 64, 60
1, 18209, Note_on_c, 9, 51, 0
1, 18209, Note_on_c, 9, 35, 0
1, 18210, Note_on_c, 0, 63, 0
1, 18227, Note_on_c, 9, 64, 0
1, 18233, Note_on_c, 0, 58, 0
1, 18244, Note_on_c, 9, 51, 115
1, 18244, Note_on_c, 9, 35, 50
1, 18254, Note_on_c, 0, 62, 47
1, 18258, Note_on_c, 0, 57, 49
1, 18261, Note_on_c, 0, 51, 30
1, 18270, Note_on_c, 0, 55, 32
1, 18273, Note_on_c, 9, 35, 0
1, 18292, Note_on_c, 0, 55, 0
1, 18299, Note_on_c, 0, 57, 0
1, 18307, Note_on_c, 9, 62, 84
1, 18310, Note_on_c, 0, 51, 0
1, 18312, Note_on_c, 0, 62, 0
1, 18316, Note_on_c, 9, 63, 53
1, 18327, Note_on_c, 9, 51, 0
1, 18337, Note_on_c, 9, 62, 0
1, 18351, Note_on_c, 9, 63, 0
1, 18369, Note_on_c, 1, 43, 0
1, 18371, Note_on_c, 9, 51, 13
1, 18379, Note_on_c, 9, 63, 70
1, 18380, Note_on_c, 9, 51, 0
1, 18380, Note_on_c, 9, 75, 81
1, 18380, Note_on_c, 9, 62, 66
1, 18410, Note_on_c, 9, 75, 0
1, 18411, Note_on_c, 1, 51, 0
1, 18419, Note_on_c, 9, 51, 115
1, 18424, Note_on_c, 9, 35, 49
1, 18429, Note_on_c, 1, 43, 77
1, 18437, Note_on_c, 0, 62, 57
1, 18438, Note_on_c, 9, 62, 0
1, 18444, Note_on_c, 0, 57, 47
1, 18449, Note_on_c, 0, 51, 20
1, 18451, Note_on_c, 9, 35, 0
1, 18451, Note_on_c, 0, 55, 37
1, 18454, Note_on_c, 9, 63, 0
1, 18459, Note_on_c, 9, 51, 0
1, 18460, Note_on_c, 0, 51, 0
1, 18464, Note_on_c, 0, 62, 0
1, 18465, Note_on_c, 0, 55, 0
1, 18469, Note_on_c, 0, 57, 0
1, 18483, Note_on_c, 9, 51, 30
1, 18484, Note_on_c, 9, 35, 53
1, 18498, Note_on_c, 9, 75, 79
1, 18510, Note_on_c, 9, 51, 0
1, 18515, Note_on_c, 9, 35, 0
1, 18528, Note_on_c, 9, 75, 0
1, 18557, Note_on_c, 9, 51, 30
1, 18570, Note_on_c, 9, 51, 0
1, 18603, Note_on_c, 0, 62, 62
1, 18604, Note_on_c, 1, 36, 85
1, 18606, Note_on_c, 9, 64, 64
1, 18609, Note_on_c, 9, 51, 56
1, 18612, Note_on_c, 0, 57, 46
1, 18613, Note_on_c, 0, 51, 26
1, 18616, Note_on_c, 0, 62, 0
1, 18617, Note_on_c, 0, 55, 34
1, 18618, Note_on_c, 1, 43, 0
1, 18623, Note_on_c, 0, 51, 0
1, 18628, Note_on_c, 0, 57, 0
1, 18628, Note_on_c, 9, 51, 0
1, 18632, Note_on_c, 0, 55, 0
1, 18636, Note_on_c, 9, 64, 0
1, 18660, Note_on_c, 9, 51, 127
1, 18664, Note_on_c, 9, 35, 57
1, 18664, Note_on_c, 9, 64, 81
1, 18689, Note_on_c, 9, 35, 0
1, 18711, Note_on_c, 9, 51, 0
1, 18721, Note_on_c, 0, 90, 75
1, 18722, Note_on_c, 9, 64, 0
1, 18723, Note_on_c, 0, 78, 90
1, 18724, Note_on_c, 9, 35, 50
1, 18729, Note_on_c, 9, 75, 81
1, 18755, Note_on_c, 9, 35, 0
1, 18756, Note_on_c, 9, 75, 0
1, 18772, Note_on_c, 0, 57, 27
1, 18781, Note_on_c, 0, 78, 0
1, 18781, Note_on_c, 0, 90, 0
1, 18782, Note_on_c, 0, 79, 57
1, 18789, Note_on_c, 9, 51, 77
1, 18790, Note_on_c, 0, 57, 0
1, 18809, Note_on_c, 9, 51, 0
1, 18812, Note_on_c, 0, 79, 0
1, 18830, Note_on_c, 0, 91, 38
1, 18838, Note_on_c, 9, 63, 57
1, 18841, Note_on_c, 0, 91, 0
1, 18841, Note_on_c, 9, 51, 65
1, 18845, Note_on_c, 9, 62, 41
1, 18862, Note_on_c, 9, 51, 0
1, 18867, Note_on_c, 9, 62, 0
1, 18867, Note_on_c, 9, 63, 0
1, 18892, Note_on_c, 0, 62, 67
1, 18898, Note_on_c, 1, 36, 0
1, 18899, Note_on_c, 0, 57, 44
1, 18901, Note_on_c, 9, 75, 79
1, 18901, Note_on_c, 9, 51, 127
1, 18902, Note_on_c, 0, 55, 33
1, 18904, Note_on_c, 9, 35, 57
1, 18905, Note_on_c, 1, 43, 90
1, 18906, Note_on_c, 0, 62, 0
1, 18906, Note_on_c, 9, 62, 77
1, 18912, Note_on_c, 0, 57, 0
1, 18915, Note_on_c, 9, 63, 67
1, 18916, Note_on_c, 0, 55, 0
1, 18929, Note_on_c, 9, 35, 0
1, 18938, Note_on_c, 9, 51, 0
1, 18938, Note_on_c, 9, 75, 0
1, 18961, Note_on_c, 9, 51, 68
1, 18964, Note_on_c, 9, 35, 58
1, 18967, Note_on_c, 9, 62, 0
1, 18982, Note_on_c, 9, 63, 0
1, 18989, Note_on_c, 9, 35, 0
1, 18990, Note_on_c, 9, 51, 0
1, 19011, Note_on_c, 9, 63, 71
1, 19015, Note_on_c, 0, 89, 87
1, 19016, Note_on_c, 0, 77, 88
1, 19016, Note_on_c, 9, 62, 82
1, 19017, Note_on_c, 0, 62, 74
1, 19021, Note_on_c, 9, 51, 68
1, 19023, Note_on_c, 0, 51, 38
1, 19023, Note_on_c, 0, 57, 48
1, 19024, Note_on_c, 9, 35, 46
1, 19029, Note_on_c, 0, 62, 0
1, 19033, Note_on_c, 0, 51, 0
1, 19034, Note_on_c, 0, 57, 0
1, 19045, Note_on_c, 1, 43, 0
1, 19047, Note_on_c, 9, 51, 0
1, 19049, Note_on_c, 0, 77, 0
1, 19050, Note_on_c, 0, 89, 0
1, 19052, Note_on_c, 9, 35, 0
1, 19067, Note_on_c, 9, 62, 0
1, 19077, Note_on_c, 9, 63, 0
1, 19078, Note_on_c, 9, 75, 83
1, 19080, Note_on_c, 1, 43, 85
1, 19084, Note_on_c, 9, 51, 82
1, 19085, Note_on_c, 0, 87, 59
1, 19107, Note_on_c, 9, 75, 0
1, 19110, Note_on_c, 9, 62, 77
1, 19115, Note_on_c, 9, 63, 76
1, 19116, Note_on_c, 9, 51, 0
1, 19126, Note_on_c, 0, 87, 0
1, 19144, Note_on_c, 9, 35, 60
1, 19147, Note_on_c, 9, 51, 56
1, 19153, Note_on_c, 0, 86, 53
1, 19157, Note_on_c, 9, 62, 0
1, 19164, Note_on_c, 9, 51, 0
1, 19168, Note_on_c, 9, 35, 0
1, 19179, Note_on_c, 0, 86, 0
1, 19180, Note_on_c, 9, 63, 0
1, 19202, Note_on_c, 0, 55, 45
1, 19202, Note_on_c, 9, 49, 41
1, 19203, Note_on_c, 0, 62, 41
1, 19204, Note_on_c, 9, 35, 79
1, 19204, Note_on_c, 9, 51, 127
1, 19210, Note_on_c, 0, 60, 44
1, 19211, Note_on_c, 0, 56, 35
1, 19225, Note_on_c, 0, 60, 0
1, 19226, Note_on_c, 0, 62, 0
1, 19231, Note_on_c, 9, 35, 0
1, 19237, Note_on_c, 0, 55, 0
1, 19245, Note_on_c, 0, 56, 0
1, 19293, Note_on_c, 9, 51, 0
1, 19332, Note_on_c, 9, 62, 32
1, 19333, Note_on_c, 9, 75, 61
1, 19335, Note_on_c, 9, 51, 127
1, 19343, Note_on_c, 9, 64, 30
1, 19344, Note_on_c, 9, 62, 0
1, 19355, Note_on_c, 9, 64, 0
1, 19361, Note_on_c, 9, 75, 0
1, 19384, Note_on_c, 9, 35, 52
1, 19388, Note_on_c, 0, 62, 44
1, 19388, Note_on_c, 1, 31, 81
1, 19388, Note_on_c, 9, 64, 84
1, 19389, Note_on_c, 9, 51, 0
1, 19392, Note_on_c, 0, 60, 42
1, 19408, Note_on_c, 0, 60, 0
1, 19410, Note_on_c, 9, 35, 0
1, 19419, Note_on_c, 0, 62, 0
1, 19444, Note_on_c, 9, 51, 62
1, 19444, Note_on_c, 9, 35, 52
1, 19451, Note_on_c, 9, 75, 75
1, 19464, Note_on_c, 9, 51, 0
1, 19479, Note_on_c, 1, 43, 0
1, 19487, Note_on_c, 9, 75, 0
1, 19491, Note_on_c, 9, 64, 0
1, 19500, Note_on_c, 9, 51, 106
1, 19540, Note_on_c, 1, 31, 0
1, 19543, Note_on_c, 9, 51, 0
1, 19543, Note_on_c, 9, 35, 0
1, 19548, Note_on_c, 9, 62, 72
1, 19551, Note_on_c, 9, 63, 47
1, 19561, Note_on_c, 0, 62, 49
1, 19565, Note_on_c, 9, 49, 0
1, 19566, Note_on_c, 0, 60, 58
1, 19567, Note_on_c, 9, 51, 41
1, 19571, Note_on_c, 9, 62, 0
1, 19574, Note_on_c, 0, 55, 31
1, 19575, Note_on_c, 1, 43, 74
1, 19577, Note_on_c, 1, 41, 85
1, 19578, Note_on_c, 0, 60, 0
1, 19578, Note_on_c, 9, 63, 0
1, 19578, Note_on_c, 0, 56, 19
1, 19585, Note_on_c, 0, 62, 0
1, 19586, Note_on_c, 0, 55, 0
1, 19589, Note_on_c, 9, 51, 0
1, 19605, Note_on_c, 0, 56, 0
1, 19613, Note_on_c, 9, 62, 62
1, 19616, Note_on_c, 9, 63, 60
1, 19619, Note_on_c, 1, 41, 0
1, 19621, Note_on_c, 9, 51, 127
1, 19624, Note_on_c, 9, 35, 45
1, 19635, Note_on_c, 9, 62, 0
1, 19647, Note_on_c, 9, 35, 0
1, 19651, Note_on_c, 9, 63, 0
1, 19682, Note_on_c, 0, 79, 90
1, 19684, Note_on_c, 9, 35, 49
1, 19685, Note_on_c, 9, 35, 79
1, 19688, Note_on_c, 9, 75, 62
1, 19700, Note_on_c, 9, 51, 0
1, 19712, Note_on_c, 9, 35, 0
1, 19716, Note_on_c, 0, 79, 0
1, 19718, Note_on_c, 9, 75, 0
1, 19726, Note_on_c, 9, 35, 0
1, 19743, Note_on_c, 9, 51, 53
1, 19747, Note_on_c, 0, 68, 64
1, 19764, Note_on_c, 9, 51, 0
1, 19790, Note_on_c, 0, 68, 0
1, 19801, Note_on_c, 9, 51, 56
1, 19811, Note_on_c, 9, 64, 71
1, 19818, Note_on_c, 9, 51, 0
1, 19836, Note_on_c, 0, 67, 20
1, 19849, Note_on_c, 9, 64, 0
1, 19857, Note_on_c, 0, 67, 0
1, 19857, Note_on_c, 9, 51, 106
1, 19860, Note_on_c, 9, 75, 59
1, 19865, Note_on_c, 9, 35, 52
1, 19872, Note_on_c, 1, 44, 97
1, 19874, Note_on_c, 9, 64, 80
1, 19891, Note_on_c, 9, 35, 0
1, 19898, Note_on_c, 9, 51, 0
1, 19910, Note_on_c, 1, 43, 0
1, 19920, Note_on_c, 9, 75, 0
1, 19925, Note_on_c, 9, 35, 52
1, 19926, Note_on_c, 0, 62, 45
1, 19928, Note_on_c, 0, 56, 36
1, 19931, Note_on_c, 0, 60, 36
1, 19934, Note_on_c, 9, 64, 0
1, 19935, Note_on_c, 0, 55, 32
1, 19940, Note_on_c, 0, 62, 0
1, 19944, Note_on_c, 0, 60, 0
1, 19947, Note_on_c, 0, 55, 0
1, 19962, Note_on_c, 0, 56, 0
1, 19982, Note_on_c, 9, 51, 96
1, 20013, Note_on_c, 9, 51, 0
1, 20024, Note_on_c, 9, 35, 0
1, 20042, Note_on_c, 9, 51, 62
1, 20046, Note_on_c, 9, 75, 75
1, 20047, Note_on_c, 9, 62, 58
1, 20049, Note_on_c, 1, 44, 0
1, 20052, Note_on_c, 1, 43, 99
1, 20073, Note_on_c, 9, 51, 0
1, 20078, Note_on_c, 9, 62, 0
1, 20079, Note_on_c, 9, 75, 0
1, 20105, Note_on_c, 9, 35, 45
1, 20107, Note_on_c, 9, 51, 44
1, 20111, Note_on_c, 9, 62, 64
1, 20118, Note_on_c, 0, 62, 60
1, 20122, Note_on_c, 9, 51, 0
1, 20122, Note_on_c, 0, 60, 48
1, 20123, Note_on_c, 0, 56, 30
1, 20127, Note_on_c, 0, 55, 29
1, 20128, Note_on_c, 9, 35, 0
1, 20131, Note_on_c, 0, 62, 0
1, 20137, Note_on_c, 0, 60, 0
1, 20138, Note_on_c, 0, 55, 0
1, 20151, Note_on_c, 0, 56, 0
1, 20162, Note_on_c, 9, 62, 0
1, 20165, Note_on_c, 9, 51, 50
1, 20165, Note_on_c, 9, 35, 49
1, 20185, Note_on_c, 9, 51, 0
1, 20207, Note_on_c, 9, 35, 0
1, 20237, Note_on_c, 0, 78, 69
1, 20238, Note_on_c, 0, 79, 76
1, 20247, Note_on_c, 0, 78, 0
1, 20286, Note_on_c, 9, 51, 106
1, 20290, Note_on_c, 0, 79, 0
1, 20290, Note_on_c, 9, 64, 66
1, 20293, Note_on_c, 9, 75, 71
1, 20314, Note_on_c, 9, 64, 0
1, 20319, Note_on_c, 9, 75, 0
1, 20319, Note_on_c, 9, 51, 0
1, 20343, Note_on_c, 0, 77, 82
1, 20345, Note_on_c, 9, 35, 44
1, 20355, Note_on_c, 0, 62, 58
1, 20355, Note_on_c, 0, 56, 37
1, 20355, Note_on_c, 1, 44, 93
1, 20355, Note_on_c, 9, 51, 50
1, 20355, Note_on_c, 9, 64, 66
1, 20356, Note_on_c, 0, 60, 52
1, 20365, Note_on_c, 0, 55, 30
1, 20372, Note_on_c, 9, 51, 0
1, 20372, Note_on_c, 9, 35, 0
1, 20373, Note_on_c, 0, 62, 0
1, 20377, Note_on_c, 0, 55, 0
1, 20386, Note_on_c, 0, 60, 0
1, 20386, Note_on_c, 1, 43, 0
1, 20394, Note_on_c, 0, 56, 0
1, 20396, Note_on_c, 0, 77, 0
1, 20405, Note_on_c, 9, 35, 47
1, 20409, Note_on_c, 9, 51, 21
1, 20424, Note_on_c, 9, 75, 70
1, 20431, Note_on_c, 9, 51, 0
1, 20432, Note_on_c, 0, 75, 82
1, 20438, Note_on_c, 9, 35, 0
1, 20449, Note_on_c, 9, 75, 0
1, 20465, Note_on_c, 9, 35, 47
1, 20476, Note_on_c, 9, 64, 0
1, 20491, Note_on_c, 0, 75, 0
1, 20495, Note_on_c, 9, 35, 0
1, 20509, Note_on_c, 0, 74, 74
1, 20510, Note_on_c, 0, 60, 40
1, 20513, Note_on_c, 1, 44, 0
1, 20521, Note_on_c, 1, 43, 89
1, 20524, Note_on_c, 9, 51, 36
1, 20532, Note_on_c, 9, 63, 77
1, 20536, Note_on_c, 9, 51, 0
1, 20536, Note_on_c, 0, 60, 0
1, 20541, Note_on_c, 0, 74, 0
1, 20570, Note_on_c, 9, 63, 0
1, 20574, Note_on_c, 9, 51, 92
1, 20585, Note_on_c, 9, 35, 40
1, 20593, Note_on_c, 9, 63, 62
1, 20608, Note_on_c, 0, 77, 82
1, 20611, Note_on_c, 9, 35, 0
1, 20611, Note_on_c, 0, 56, 47
1, 20613, Note_on_c, 0, 62, 57
1, 20614, Note_on_c, 9, 51, 0
1, 20614, Note_on_c, 0, 60, 54
1, 20624, Note_on_c, 0, 62, 0
1, 20627, Note_on_c, 0, 60, 0
1, 20645, Note_on_c, 9, 35, 41
1, 20649, Note_on_c, 0, 56, 0
1, 20654, Note_on_c, 0, 77, 0
1, 20655, Note_on_c, 9, 63, 0
1, 20669, Note_on_c, 9, 75, 75
1, 20673, Note_on_c, 9, 35, 0
1, 20701, Note_on_c, 9, 51, 68
1, 20706, Note_on_c, 9, 75, 0
1, 20714, Note_on_c, 0, 75, 87
1, 20720, Note_on_c, 1, 31, 91
1, 20723, Note_on_c, 0, 56, 46
1, 20726, Note_on_c, 0, 62, 57
1, 20727, Note_on_c, 9, 51, 0
1, 20733, Note_on_c, 0, 60, 33
1, 20740, Note_on_c, 1, 43, 0
1, 20742, Note_on_c, 0, 62, 0
1, 20746, Note_on_c, 0, 60, 0
1, 20761, Note_on_c, 9, 64, 75
1, 20763, Note_on_c, 0, 75, 0
1, 20767, Note_on_c, 0, 56, 0
1, 20786, Note_on_c, 0, 74, 73
1, 20796, Note_on_c, 9, 64, 0
1, 20815, Note_on_c, 9, 51, 62
1, 20825, Note_on_c, 9, 35, 54
1, 20827, Note_on_c, 0, 74, 0
1, 20828, Note_on_c, 9, 64, 66
1, 20840, Note_on_c, 9, 51, 0
1, 20845, Note_on_c, 9, 75, 75
1, 20848, Note_on_c, 9, 35, 0
1, 20865, Note_on_c, 1, 31, 0
1, 20873, Note_on_c, 9, 51, 62
1, 20877, Note_on_c, 1, 35, 88
1, 20880, Note_on_c, 9, 75, 0
1, 20885, Note_on_c, 9, 35, 44
1, 20888, Note_on_c, 0, 77, 108
1, 20895, Note_on_c, 9, 51, 0
1, 20919, Note_on_c, 9, 35, 0
1, 20940, Note_on_c, 0, 77, 0
1, 20942, Note_on_c, 9, 51, 82
1, 20956, Note_on_c, 9, 64, 0
1, 20959, Note_on_c, 0, 75, 73
1, 20964, Note_on_c, 0, 56, 33
1, 20967, Note_on_c, 0, 62, 42
1, 20970, Note_on_c, 9, 51, 0
1, 20978, Note_on_c, 0, 62, 0
1, 20983, Note_on_c, 0, 56, 0
1, 20999, Note_on_c, 0, 75, 0
1, 21000, Note_on_c, 9, 51, 68
1, 21009, Note_on_c, 0, 74, 34
1, 21025, Note_on_c, 9, 75, 78
1, 21027, Note_on_c, 9, 51, 0
1, 21050, Note_on_c, 9, 75, 0
1, 21054, Note_on_c, 1, 35, 0
1, 21064, Note_on_c, 1, 36, 101
1, 21064, Note_on_c, 9, 51, 50
1, 21065, Note_on_c, 9, 35, 45
1, 21066, Note_on_c, 0, 74, 0
1, 21069, Note_on_c, 1, 35, 45
1, 21070, Note_on_c, 9, 64, 78
1, 21075, Note_on_c, 0, 67, 56
1, 21083, Note_on_c, 1, 35, 0
1, 21083, Note_on_c, 9, 51, 0
1, 21087, Note_on_c, 0, 67, 0
1, 21091, Note_on_c, 9, 35, 0
1, 21094, Note_on_c, 9, 64, 0
1, 21119, Note_on_c, 9, 51, 68
1, 21122, Note_on_c, 0, 62, 46
1, 21125, Note_on_c, 9, 35, 52
1, 21129, Note_on_c, 0, 51, 31
1, 21129, Note_on_c, 0, 74, 83
1, 21132, Note_on_c, 0, 57, 46
1, 21134, Note_on_c, 0, 55, 39
1, 21147, Note_on_c, 9, 51, 0
1, 21150, Note_on_c, 0, 62, 0
1, 21152, Note_on_c, 0, 55, 0
1, 21155, Note_on_c, 9, 35, 0
1, 21158, Note_on_c, 0, 51, 0
1, 21168, Note_on_c, 0, 57, 0
1, 21190, Note_on_c, 0, 74, 0
1, 21201, Note_on_c, 0, 75, 35
1, 21229, Note_on_c, 0, 74, 24
1, 21236, Note_on_c, 0, 75, 0
1, 21245, Note_on_c, 0, 74, 0
1, 21245, Note_on_c, 9, 64, 78
1, 21251, Note_on_c, 9, 51, 86
1, 21256, Note_on_c, 9, 75, 75
1, 21280, Note_on_c, 9, 51, 0
1, 21281, Note_on_c, 9, 75, 0
1, 21283, Note_on_c, 9, 64, 0
1, 21305, Note_on_c, 9, 35, 50
1, 21313, Note_on_c, 0, 62, 60
1, 21313, Note_on_c, 9, 64, 72
1, 21315, Note_on_c, 0, 74, 81
1, 21315, Note_on_c, 1, 43, 89
1, 21324, Note_on_c, 0, 57, 43
1, 21326, Note_on_c, 0, 51, 23
1, 21327, Note_on_c, 9, 51, 36
1, 21328, Note_on_c, 0, 55, 31
1, 21329, Note_on_c, 9, 35, 0
1, 21335, Note_on_c, 0, 57, 0
1, 21337, Note_on_c, 0, 62, 0
1, 21338, Note_on_c, 0, 51, 0
1, 21340, Note_on_c, 9, 51, 0
1, 21342, Note_on_c, 0, 55, 0
1, 21345, Note_on_c, 1, 43, 0
1, 21365, Note_on_c, 9, 35, 47
1, 21373, Note_on_c, 9, 51, 43
1, 21379, Note_on_c, 9, 75, 74
1, 21381, Note_on_c, 0, 74, 0
1, 21385, Note_on_c, 9, 51, 0
1, 21394, Note_on_c, 9, 35, 0
1, 21407, Note_on_c, 9, 75, 0
1, 21423, Note_on_c, 9, 64, 0
1, 21424, Note_on_c, 9, 51, 86
1, 21425, Note_on_c, 9, 35, 46
1, 21426, Note_on_c, 0, 72, 65
1, 21445, Note_on_c, 9, 51, 0
1, 21456, Note_on_c, 9, 35, 0
1, 21456, Note_on_c, 0, 62, 58
1, 21457, Note_on_c, 0, 59, 43
1, 21466, Note_on_c, 0, 62, 0
1, 21469, Note_on_c, 0, 72, 0
1, 21475, Note_on_c, 0, 55, 24
1, 21483, Note_on_c, 9, 62, 66
1, 21484, Note_on_c, 1, 51, 87
1, 21485, Note_on_c, 0, 67, 33
1, 21489, Note_on_c, 9, 51, 36
1, 21491, Note_on_c, 9, 63, 31
1, 21492, Note_on_c, 0, 55, 0
1, 21499, Note_on_c, 9, 51, 0
1, 21499, Note_on_c, 0, 59, 0
1, 21504, Note_on_c, 9, 62, 0
1, 21510, Note_on_c, 1, 36, 0
1, 21514, Note_on_c, 9, 63, 0
1, 21538, Note_on_c, 0, 67, 0
1, 21544, Note_on_c, 9, 51, 59
1, 21545, Note_on_c, 9, 35, 42
1, 21557, Note_on_c, 0, 63, 35
1, 21560, Note_on_c, 9, 51, 0
1, 21561, Note_on_c, 9, 63, 64
1, 21563, Note_on_c, 9, 62, 81
1, 21571, Note_on_c, 9, 35, 0
1, 21588, Note_on_c, 0, 63, 0
1, 21598, Note_on_c, 9, 51, 92
1, 21605, Note_on_c, 9, 35, 50
1, 21608, Note_on_c, 9, 75, 78
1, 21612, Note_on_c, 0, 59, 34
1, 21612, Note_on_c, 0, 62, 36
1, 21622, Note_on_c, 0, 55, 41
1, 21623, Note_on_c, 0, 51, 25
1, 21632, Note_on_c, 9, 35, 0
1, 21635, Note_on_c, 9, 75, 0
1, 21638, Note_on_c, 9, 51, 0
1, 21645, Note_on_c, 9, 62, 0
1, 21648, Note_on_c, 0, 51, 0
1, 21663, Note_on_c, 0, 55, 0
1, 21667, Note_on_c, 9, 51, 43
1, 21670, Note_on_c, 9, 63, 0
1, 21681, Note_on_c, 0, 62, 0
1, 21688, Note_on_c, 9, 51, 0
1, 21690, Note_on_c, 0, 59, 0
1, 21716, Note_on_c, 9, 51, 23
1, 21724, Note_on_c, 0, 65, 79
1, 21726, Note_on_c, 0, 62, 60
1, 21727, Note_on_c, 9, 64, 64
1, 21739, Note_on_c, 9, 51, 0
1, 21767, Note_on_c, 9, 64, 0
1, 21781, Note_on_c, 1, 43, 88
1, 21785, Note_on_c, 9, 35, 49
1, 21785, Note_on_c, 9, 51, 86
1, 21791, Note_on_c, 0, 65, 0
1, 21793, Note_on_c, 9, 75, 78
1, 21797, Note_on_c, 0, 62, 0
1, 21798, Note_on_c, 9, 64, 74
1, 21808, Note_on_c, 9, 35, 0
1, 21808, Note_on_c, 1, 51, 0
1, 21816, Note_on_c, 9, 51, 0
1, 21839, Note_on_c, 0, 65, 74
1, 21840, Note_on_c, 0, 62, 47
1, 21844, Note_on_c, 9, 75, 0
1, 21845, Note_on_c, 9, 35, 41
1, 21845, Note_on_c, 9, 51, 47
1, 21852, Note_on_c, 0, 51, 26
1, 21853, Note_on_c, 0, 55, 27
1, 21859, Note_on_c, 9, 51, 0
1, 21875, Note_on_c, 9, 35, 0
1, 21879, Note_on_c, 0, 51, 0
1, 21881, Note_on_c, 0, 59, 1
1, 21888, Note_on_c, 0, 62, 0
1, 21891, Note_on_c, 0, 65, 0
1, 21904, Note_on_c, 9, 51, 92
1, 21917, Note_on_c, 0, 65, 71
1, 21921, Note_on_c, 0, 62, 45
1, 21923, Note_on_c, 9, 64, 0
1, 21933, Note_on_c, 9, 51, 0
1, 21939, Note_on_c, 0, 59, 0
1, 21943, Note_on_c, 0, 55, 0
1, 21954, Note_on_c, 0, 62, 0
1, 21962, Note_on_c, 1, 43, 0
1, 21962, Note_on_c, 0, 65, 0
1, 21963, Note_on_c, 1, 36, 92
1, 21964, Note_on_c, 9, 63, 71
1, 21970, Note_on_c, 9, 51, 30
1, 21976, Note_on_c, 9, 75, 80
1, 21979, Note_on_c, 9, 51, 0
1, 22007, Note_on_c, 9, 75, 0
1, 22009, Note_on_c, 9, 63, 0
1, 22023, Note_on_c, 0, 63, 49
1, 22023, Note_on_c, 9, 51, 62
1, 22024, Note_on_c, 0, 60, 53
1, 22025, Note_on_c, 9, 35, 53
1, 22035, Note_on_c, 9, 63, 78
1, 22039, Note_on_c, 9, 51, 0
1, 22044, Note_on_c, 0, 51, 25
1, 22045, Note_on_c, 0, 55, 28
1, 22047, Note_on_c, 9, 35, 0
1, 22058, Note_on_c, 0, 60, 0
1, 22070, Note_on_c, 0, 51, 0
1, 22071, Note_on_c, 0, 55, 0
1, 22079, Note_on_c, 0, 63, 0
1, 22083, Note_on_c, 9, 51, 106
1, 22085, Note_on_c, 9, 35, 40
1, 22095, Note_on_c, 0, 62, 57
1, 22100, Note_on_c, 0, 65, 62
1, 22115, Note_on_c, 9, 35, 0
1, 22142, Note_on_c, 9, 63, 0
1, 22157, Note_on_c, 0, 59, 20
1, 22158, Note_on_c, 0, 55, 1
1, 22164, Note_on_c, 0, 62, 0
1, 22168, Note_on_c, 9, 51, 0
1, 22182, Note_on_c, 0, 65, 0
1, 22197, Note_on_c, 0, 59, 0
1, 22203, Note_on_c, 0, 55, 0
1, 22204, Note_on_c, 9, 51, 106
1, 22207, Note_on_c, 0, 60, 28
1, 22208, Note_on_c, 9, 64, 80
1, 22209, Note_on_c, 0, 63, 18
1, 22218, Note_on_c, 9, 75, 68
1, 22234, Note_on_c, 0, 60, 0
1, 22238, Note_on_c, 9, 51, 0
1, 22241, Note_on_c, 9, 75, 0
1, 22253, Note_on_c, 9, 64, 0
1, 22256, Note_on_c, 1, 36, 0
1, 22260, Note_on_c, 0, 63, 0
1, 22263, Note_on_c, 1, 43, 92
1, 22265, Note_on_c, 9, 35, 49
1, 22269, Note_on_c, 9, 51, 59
1, 22272, Note_on_c, 0, 62, 56
1, 22278, Note_on_c, 9, 64, 84
1, 22281, Note_on_c, 0, 65, 49
1, 22284, Note_on_c, 0, 62, 0
1, 22290, Note_on_c, 9, 35, 0
1, 22294, Note_on_c, 0, 65, 0
1, 22297, Note_on_c, 9, 51, 0
1, 22325, Note_on_c, 9, 35, 40
1, 22330, Note_on_c, 9, 51, 41
1, 22335, Note_on_c, 9, 75, 79
1, 22351, Note_on_c, 9, 51, 0
1, 22355, Note_on_c, 9, 35, 0
1, 22366, Note_on_c, 9, 75, 0
1, 22386, Note_on_c, 0, 59, 42
1, 22389, Note_on_c, 0, 62, 38
1, 22391, Note_on_c, 9, 51, 96
1, 22395, Note_on_c, 0, 55, 35
1, 22401, Note_on_c, 0, 62, 0
1, 22403, Note_on_c, 9, 64, 0
1, 22412, Note_on_c, 0, 55, 0
1, 22413, Note_on_c, 0, 59, 0
1, 22425, Note_on_c, 9, 51, 0
1, 22442, Note_on_c, 9, 63, 59
1, 22443, Note_on_c, 1, 51, 97
1, 22449, Note_on_c, 9, 51, 56
1, 22459, Note_on_c, 1, 43, 0
1, 22472, Note_on_c, 9, 51, 0
1, 22480, Note_on_c, 9, 63, 0
1, 22504, Note_on_c, 9, 51, 65
1, 22504, Note_on_c, 9, 49, 62
1, 22505, Note_on_c, 9, 35, 50
1, 22511, Note_on_c, 9, 63, 83
1, 22523, Note_on_c, 9, 49, 0
1, 22529, Note_on_c, 9, 51, 0
1, 22530, Note_on_c, 9, 35, 0
1, 22565, Note_on_c, 9, 35, 50
1, 22567, Note_on_c, 0, 59, 36
1, 22568, Note_on_c, 9, 75, 80
1, 22569, Note_on_c, 0, 62, 52
1, 22573, Note_on_c, 9, 51, 33
1, 22578, Note_on_c, 0, 55, 38
1, 22580, Note_on_c, 0, 51, 18
1, 22584, Note_on_c, 9, 51, 0
1, 22587, Note_on_c, 0, 62, 0
1, 22590, Note_on_c, 0, 51, 0
1, 22593, Note_on_c, 9, 35, 0
1, 22594, Note_on_c, 0, 55, 0
1, 22598, Note_on_c, 9, 75, 0
1, 22601, Note_on_c, 0, 59, 0
1, 22624, Note_on_c, 9, 51, 73
1, 22630, Note_on_c, 9, 63, 0
1, 22649, Note_on_c, 9, 51, 0
1, 22682, Note_on_c, 9, 51, 59
1, 22690, Note_on_c, 9, 64, 71
1, 22692, Note_on_c, 0, 87, 93
1, 22693, Note_on_c, 0, 75, 97
1, 22700, Note_on_c, 9, 51, 0
1, 22716, Note_on_c, 9, 64, 0
1, 22733, Note_on_c, 9, 51, 73
1, 22734, Note_on_c, 9, 49, 59
1, 22736, Note_on_c, 1, 43, 80
1, 22743, Note_on_c, 9, 75, 74
1, 22745, Note_on_c, 9, 35, 50
1, 22747, Note_on_c, 9, 49, 0
1, 22752, Note_on_c, 0, 59, 44
1, 22753, Note_on_c, 0, 62, 64
1, 22756, Note_on_c, 9, 51, 0
1, 22756, Note_on_c, 9, 64, 87
1, 22762, Note_on_c, 1, 43, 0
1, 22763, Note_on_c, 0, 62, 0
1, 22766, Note_on_c, 9, 35, 0
1, 22766, Note_on_c, 0, 55, 28
1, 22774, Note_on_c, 1, 51, 0
1, 22783, Note_on_c, 0, 55, 0
1, 22788, Note_on_c, 9, 75, 0
1, 22792, Note_on_c, 1, 49, 88
1, 22795, Note_on_c, 0, 59, 0
1, 22803, Note_on_c, 9, 51, 34
1, 22805, Note_on_c, 9, 35, 56
1, 22817, Note_on_c, 9, 51, 0
1, 22833, Note_on_c, 0, 87, 0
1, 22835, Note_on_c, 9, 35, 0
1, 22842, Note_on_c, 0, 75, 0
1, 22860, Note_on_c, 9, 51, 68
1, 22870, Note_on_c, 0, 85, 75
1, 22871, Note_on_c, 9, 64, 0
1, 22873, Note_on_c, 0, 73, 49
1, 22878, Note_on_c, 0, 75, 46
1, 22886, Note_on_c, 9, 51, 0
1, 22888, Note_on_c, 0, 75, 0
1, 22894, Note_on_c, 1, 49, 0
1, 22921, Note_on_c, 1, 48, 101
1, 22922, Note_on_c, 9, 51, 82
1, 22923, Note_on_c, 9, 62, 78
1, 22924, Note_on_c, 9, 75, 81
1, 22924, Note_on_c, 9, 63, 67
1, 22930, Note_on_c, 0, 85, 0
1, 22937, Note_on_c, 0, 73, 0
1, 22942, Note_on_c, 9, 62, 0
1, 22954, Note_on_c, 9, 75, 0
1, 22956, Note_on_c, 9, 63, 0
1, 22959, Note_on_c, 9, 51, 0
1, 22970, Note_on_c, 0, 84, 65
1, 22978, Note_on_c, 0, 72, 69
1, 22985, Note_on_c, 9, 35, 56
1, 22996, Note_on_c, 9, 63, 77
1, 22997, Note_on_c, 9, 62, 83
1, 22998, Note_on_c, 0, 61, 63
1, 23004, Note_on_c, 0, 58, 52
1, 23011, Note_on_c, 0, 51, 49
1, 23012, Note_on_c, 9, 35, 0
1, 23015, Note_on_c, 0, 84, 0
1, 23018, Note_on_c, 0, 72, 0
1, 23020, Note_on_c, 0, 61, 0
1, 23021, Note_on_c, 0, 51, 0
1, 23041, Note_on_c, 9, 51, 86
1, 23045, Note_on_c, 9, 62, 0
1, 23049, Note_on_c, 0, 58, 0
1, 23057, Note_on_c, 0, 82, 64
1, 23062, Note_on_c, 0, 70, 60
1, 23064, Note_on_c, 9, 63, 0
1, 23088, Note_on_c, 9, 62, 72
1, 23089, Note_on_c, 9, 63, 69
1, 23105, Note_on_c, 9, 35, 54
1, 23118, Note_on_c, 0, 82, 0
1, 23119, Note_on_c, 0, 70, 0
1, 23122, Note_on_c, 9, 51, 0
1, 23133, Note_on_c, 9, 35, 0
1, 23140, Note_on_c, 9, 62, 0
1, 23148, Note_on_c, 9, 63, 0
1, 23163, Note_on_c, 9, 75, 76
1, 23167, Note_on_c, 0, 82, 61
1, 23171, Note_on_c, 0, 70, 56
1, 23184, Note_on_c, 9, 62, 64
1, 23184, Note_on_c, 9, 63, 76
1, 23191, Note_on_c, 9, 75, 0
1, 23199, Note_on_c, 0, 70, 0
1, 23211, Note_on_c, 0, 82, 0
1, 23223, Note_on_c, 9, 62, 0
1, 23225, Note_on_c, 9, 35, 46
1, 23228, Note_on_c, 9, 51, 77
1, 23230, Note_on_c, 0, 61, 53
1, 23234, Note_on_c, 1, 43, 81
1, 23241, Note_on_c, 0, 58, 44
1, 23242, Note_on_c, 9, 63, 0
1, 23243, Note_on_c, 0, 55, 51
1, 23247, Note_on_c, 9, 51, 0
1, 23251, Note_on_c, 9, 35, 0
1, 23254, Note_on_c, 0, 61, 0
1, 23255, Note_on_c, 0, 55, 0
1, 23263, Note_on_c, 1, 48, 0
1, 23265, Note_on_c, 9, 62, 75
1, 23267, Note_on_c, 9, 63, 61
1, 23285, Note_on_c, 0, 58, 0
1, 23287, Note_on_c, 9, 51, 43
1, 23290, Note_on_c, 9, 75, 77
1, 23302, Note_on_c, 9, 51, 0
1, 23310, Note_on_c, 9, 62, 0
1, 23320, Note_on_c, 9, 75, 0
1, 23331, Note_on_c, 9, 63, 0
1, 23344, Note_on_c, 9, 51, 92
1, 23345, Note_on_c, 9, 35, 50
1, 23365, Note_on_c, 9, 64, 84
1, 23371, Note_on_c, 9, 51, 0
1, 23372, Note_on_c, 9, 35, 0
1, 23401, Note_on_c, 1, 36, 82
1, 23404, Note_on_c, 1, 43, 0
1, 23407, Note_on_c, 0, 61, 44
1, 23409, Note_on_c, 0, 64, 55
1, 23409, Note_on_c, 9, 51, 56
1, 23410, Note_on_c, 0, 58, 39
1, 23422, Note_on_c, 0, 64, 0
1, 23423, Note_on_c, 9, 51, 0
1, 23423, Note_on_c, 9, 64, 0
1, 23433, Note_on_c, 0, 61, 0
1, 23442, Note_on_c, 0, 58, 0
1, 23453, Note_on_c, 9, 64, 76
1, 23465, Note_on_c, 9, 35, 54
1, 23469, Note_on_c, 9, 51, 92
1, 23485, Note_on_c, 9, 51, 0
1, 23489, Note_on_c, 9, 35, 0
1, 23501, Note_on_c, 9, 64, 0
1, 23522, Note_on_c, 9, 75, 80
1, 23525, Note_on_c, 9, 35, 57
1, 23528, Note_on_c, 9, 51, 106
1, 23531, Note_on_c, 9, 62, 80
1, 23543, Note_on_c, 9, 63, 69
1, 23551, Note_on_c, 9, 75, 0
1, 23552, Note_on_c, 9, 35, 0
1, 23554, Note_on_c, 9, 62, 0
1, 23580, Note_on_c, 9, 51, 0
1, 23583, Note_on_c, 0, 61, 61
1, 23585, Note_on_c, 0, 64, 68
1, 23589, Note_on_c, 0, 58, 32
1, 23595, Note_on_c, 0, 64, 0
1, 23601, Note_on_c, 9, 63, 0
1, 23607, Note_on_c, 0, 61, 0
1, 23616, Note_on_c, 0, 58, 0
1, 23646, Note_on_c, 9, 51, 68
1, 23650, Note_on_c, 9, 62, 80
1, 23652, Note_on_c, 9, 63, 76
1, 23666, Note_on_c, 9, 51, 0
1, 23671, Note_on_c, 9, 62, 0
1, 23696, Note_on_c, 9, 63, 0
1, 23703, Note_on_c, 9, 75, 75
1, 23703, Note_on_c, 9, 51, 96
1, 23705, Note_on_c, 9, 35, 63
1, 23707, Note_on_c, 0, 61, 73
1, 23707, Note_on_c, 1, 43, 80
1, 23709, Note_on_c, 0, 64, 79
1, 23710, Note_on_c, 0, 58, 60
1, 23716, Note_on_c, 9, 64, 79
1, 23719, Note_on_c, 0, 64, 0
1, 23729, Note_on_c, 9, 35, 0
1, 23730, Note_on_c, 1, 36, 0
1, 23732, Note_on_c, 9, 51, 0
1, 23734, Note_on_c, 0, 61, 0
1, 23739, Note_on_c, 9, 75, 0
1, 23747, Note_on_c, 0, 58, 0
1, 23765, Note_on_c, 9, 35, 52
1, 23768, Note_on_c, 9, 51, 92
1, 23770, Note_on_c, 9, 64, 0
1, 23770, Note_on_c, 0, 94, 74
1, 23786, Note_on_c, 9, 64, 75
1, 23794, Note_on_c, 9, 35, 0
1, 23795, Note_on_c, 0, 94, 0
1, 23832, Note_on_c, 0, 94, 78
1, 23847, Note_on_c, 9, 64, 0
1, 23848, Note_on_c, 9, 51, 0
1, 23868, Note_on_c, 0, 94, 0
1, 23879, Note_on_c, 1, 49, 95
1, 23880, Note_on_c, 0, 61, 51
1, 23882, Note_on_c, 0, 58, 37
1, 23884, Note_on_c, 9, 75, 80
1, 23885, Note_on_c, 9, 51, 56
1, 23889, Note_on_c, 9, 64, 85
1, 23892, Note_on_c, 1, 43, 0
1, 23893, Note_on_c, 0, 89, 38
1, 23901, Note_on_c, 0, 61, 0
1, 23907, Note_on_c, 0, 89, 0
1, 23908, Note_on_c, 9, 51, 0
1, 23911, Note_on_c, 9, 75, 0
1, 23943, Note_on_c, 0, 58, 0
1, 23944, Note_on_c, 9, 51, 86
1, 23945, Note_on_c, 9, 35, 61
1, 23953, Note_on_c, 9, 64, 0
1, 23961, Note_on_c, 0, 89, 55
1, 23964, Note_on_c, 0, 91, 40
1, 23965, Note_on_c, 9, 51, 0
1, 23970, Note_on_c, 9, 35, 0
1, 23975, Note_on_c, 0, 91, 0
1, 23985, Note_on_c, 0, 89, 0
1, 24005, Note_on_c, 9, 35, 52
1, 24006, Note_on_c, 9, 51, 106
1, 24017, Note_on_c, 0, 88, 70
1, 24017, Note_on_c, 0, 61, 35
1, 24020, Note_on_c, 0, 58, 30
1, 24029, Note_on_c, 0, 61, 0
1, 24039, Note_on_c, 9, 35, 0
1, 24044, Note_on_c, 0, 88, 0
1, 24076, Note_on_c, 0, 58, 0
1, 24076, Note_on_c, 0, 88, 58
1, 24080, Note_on_c, 9, 51, 0
1, 24114, Note_on_c, 0, 88, 0
1, 24119, Note_on_c, 9, 51, 50
1, 24127, Note_on_c, 9, 75, 74
1, 24127, Note_on_c, 9, 64, 84
1, 24130, Note_on_c, 0, 85, 50
1, 24138, Note_on_c, 9, 51, 0
1, 24148, Note_on_c, 0, 85, 0
1, 24153, Note_on_c, 9, 75, 0
1, 24162, Note_on_c, 9, 64, 0
1, 24180, Note_on_c, 9, 51, 127
1, 24185, Note_on_c, 9, 35, 58
1, 24191, Note_on_c, 9, 64, 80
1, 24196, Note_on_c, 0, 61, 69
1, 24198, Note_on_c, 1, 43, 87
1, 24203, Note_on_c, 0, 58, 49
1, 24209, Note_on_c, 9, 35, 0
1, 24213, Note_on_c, 9, 51, 0
1, 24214, Note_on_c, 0, 55, 32
1, 24218, Note_on_c, 0, 61, 0
1, 24228, Note_on_c, 0, 55, 0
1, 24244, Note_on_c, 9, 51, 65
1, 24245, Note_on_c, 9, 35, 52
1, 24248, Note_on_c, 1, 49, 0
1, 24253, Note_on_c, 9, 75, 77
1, 24259, Note_on_c, 0, 58, 0
1, 24269, Note_on_c, 9, 51, 0
1, 24273, Note_on_c, 9, 35, 0
1, 24282, Note_on_c, 9, 75, 0
1, 24305, Note_on_c, 9, 35, 53
1, 24306, Note_on_c, 9, 64, 0
1, 24306, Note_on_c, 9, 51, 50
1, 24319, Note_on_c, 0, 70, 87
1, 24324, Note_on_c, 9, 51, 0
1, 24334, Note_on_c, 9, 35, 0
1, 24346, Note_on_c, 0, 70, 0
1, 24368, Note_on_c, 9, 51, 56
1, 24369, Note_on_c, 1, 36, 95
1, 24372, Note_on_c, 9, 64, 91
1, 24376, Note_on_c, 1, 43, 0
1, 24380, Note_on_c, 9, 51, 0
1, 24414, Note_on_c, 9, 64, 0
1, 24417, Note_on_c, 9, 51, 115
1, 24425, Note_on_c, 9, 35, 58
1, 24432, Note_on_c, 0, 72, 101
1, 24435, Note_on_c, 0, 61, 59
1, 24435, Note_on_c, 0, 58, 55
1, 24437, Note_on_c, 9, 64, 88
1, 24440, Note_on_c, 0, 52, 40
1, 24444, Note_on_c, 9, 51, 0
1, 24444, Note_on_c, 0, 55, 40
1, 24450, Note_on_c, 0, 61, 0
1, 24452, Note_on_c, 9, 35, 0
1, 24453, Note_on_c, 0, 52, 0
1, 24457, Note_on_c, 0, 55, 0
1, 24470, Note_on_c, 0, 72, 0
1, 24478, Note_on_c, 9, 51, 96
1, 24485, Note_on_c, 9, 35, 53
1, 24487, Note_on_c, 0, 58, 0
1, 24488, Note_on_c, 9, 64, 0
1, 24490, Note_on_c, 9, 75, 77
1, 24513, Note_on_c, 9, 35, 0
1, 24517, Note_on_c, 0, 73, 68
1, 24518, Note_on_c, 9, 75, 0
1, 24550, Note_on_c, 9, 51, 0
1, 24561, Note_on_c, 0, 73, 0
1, 24592, Note_on_c, 0, 75, 83
1, 24594, Note_on_c, 9, 51, 50
1, 24608, Note_on_c, 9, 62, 80
1, 24608, Note_on_c, 9, 63, 60
1, 24612, Note_on_c, 9, 51, 0
1, 24633, Note_on_c, 0, 75, 0
1, 24640, Note_on_c, 9, 62, 0
1, 24650, Note_on_c, 9, 63, 0
1, 24655, Note_on_c, 9, 51, 106
1, 24665, Note_on_c, 9, 35, 57
1, 24671, Note_on_c, 9, 75, 75
1, 24672, Note_on_c, 9, 62, 67
1, 24674, Note_on_c, 9, 63, 60
1, 24676, Note_on_c, 1, 48, 108
1, 24683, Note_on_c, 0, 61, 49
1, 24685, Note_on_c, 0, 58, 43
1, 24686, Note_on_c, 0, 73, 70
1, 24687, Note_on_c, 9, 51, 0
1, 24691, Note_on_c, 9, 35, 0
1, 24697, Note_on_c, 0, 61, 0
1, 24698, Note_on_c, 9, 75, 0
1, 24703, Note_on_c, 1, 36, 0
1, 24707, Note_on_c, 9, 62, 0
1, 24723, Note_on_c, 9, 51, 86
1, 24725, Note_on_c, 9, 35, 42
1, 24726, Note_on_c, 0, 73, 0
1, 24730, Note_on_c, 9, 63, 0
1, 24747, Note_on_c, 0, 58, 0
1, 24748, Note_on_c, 0, 72, 80
1, 24754, Note_on_c, 9, 35, 0
1, 24782, Note_on_c, 9, 51, 0
1, 24806, Note_on_c, 0, 72, 0
1, 24813, Note_on_c, 0, 73, 37
1, 24828, Note_on_c, 0, 72, 48
1, 24829, Note_on_c, 0, 61, 35
1, 24831, Note_on_c, 9, 51, 77
1, 24833, Note_on_c, 0, 58, 34
1, 24843, Note_on_c, 1, 48, 0
1, 24845, Note_on_c, 1, 41, 101
1, 24847, Note_on_c, 9, 64, 90
1, 24851, Note_on_c, 9, 75, 80
1, 24852, Note_on_c, 0, 73, 0
1, 24853, Note_on_c, 9, 51, 0
1, 24862, Note_on_c, 0, 61, 0
1, 24863, Note_on_c, 0, 70, 51
1, 24878, Note_on_c, 9, 75, 0
1, 24883, Note_on_c, 9, 64, 0
1, 24892, Note_on_c, 9, 51, 96
1, 24902, Note_on_c, 0, 58, 0
1, 24905, Note_on_c, 9, 35, 63
1, 24908, Note_on_c, 0, 72, 0
1, 24914, Note_on_c, 9, 64, 76
1, 24919, Note_on_c, 9, 51, 0
1, 24933, Note_on_c, 9, 35, 0
1, 24933, Note_on_c, 0, 69, 70
1, 24936, Note_on_c, 0, 62, 40
1, 24937, Note_on_c, 0, 70, 0
1, 24940, Note_on_c, 0, 60, 47
1, 24948, Note_on_c, 0, 56, 28
1, 24952, Note_on_c, 9, 51, 86
1, 24957, Note_on_c, 0, 62, 0
1, 24965, Note_on_c, 9, 35, 42
1, 24974, Note_on_c, 0, 69, 0
1, 24975, Note_on_c, 9, 64, 0
1, 24976, Note_on_c, 0, 60, 0
1, 24990, Note_on_c, 0, 56, 0
1, 24996, Note_on_c, 9, 35, 0
1, 25002, Note_on_c, 0, 70, 71
1, 25025, Note_on_c, 9, 51, 0
1, 25066, Note_on_c, 0, 70, 0
1, 25075, Note_on_c, 9, 51, 43
1, 25092, Note_on_c, 9, 51, 0
1, 25093, Note_on_c, 9, 75, 74
1, 25097, Note_on_c, 0, 67, 43
1, 25099, Note_on_c, 9, 63, 79
1, 25119, Note_on_c, 9, 75, 0
1, 25136, Note_on_c, 9, 63, 0
1, 25139, Note_on_c, 9, 51, 92
1, 25142, Note_on_c, 0, 67, 0
1, 25145, Note_on_c, 9, 35, 40
1, 25154, Note_on_c, 1, 48, 83
1, 25162, Note_on_c, 9, 63, 73
1, 25165, Note_on_c, 0, 68, 68
1, 25167, Note_on_c, 0, 62, 41
1, 25169, Note_on_c, 9, 51, 0
1, 25171, Note_on_c, 9, 35, 0
1, 25171, Note_on_c, 0, 60, 36
1, 25178, Note_on_c, 1, 48, 0
1, 25179, Note_on_c, 0, 56, 21
1, 25180, Note_on_c, 0, 62, 0
1, 25180, Note_on_c, 0, 70, 23
1, 25196, Note_on_c, 0, 60, 0
1, 25205, Note_on_c, 9, 35, 53
1, 25209, Note_on_c, 0, 56, 0
1, 25211, Note_on_c, 9, 51, 20
1, 25217, Note_on_c, 9, 75, 79
1, 25220, Note_on_c, 9, 51, 0
1, 25232, Note_on_c, 9, 35, 0
1, 25245, Note_on_c, 0, 70, 0
1, 25246, Note_on_c, 9, 75, 0
1, 25247, Note_on_c, 9, 63, 0
1, 25258, Note_on_c, 9, 51, 92
1, 25272, Note_on_c, 0, 65, 56
1, 25286, Note_on_c, 0, 65, 0
1, 25287, Note_on_c, 9, 51, 0
1, 25287, Note_on_c, 0, 68, 0
1, 25294, Note_on_c, 1, 39, 26
1, 25323, Note_on_c, 1, 49, 91
1, 25325, Note_on_c, 0, 67, 64
1, 25325, Note_on_c, 9, 51, 43
1, 25333, Note_on_c, 9, 64, 89
1, 25342, Note_on_c, 1, 41, 0
1, 25343, Note_on_c, 9, 51, 0
1, 25343, Note_on_c, 1, 39, 0
1, 25345, Note_on_c, 0, 56, 20
1, 25369, Note_on_c, 9, 64, 0
1, 25379, Note_on_c, 9, 51, 96
1, 25385, Note_on_c, 9, 35, 58
1, 25387, Note_on_c, 0, 56, 0
1, 25401, Note_on_c, 9, 64, 85
1, 25406, Note_on_c, 9, 51, 0
1, 25413, Note_on_c, 9, 35, 0
1, 25442, Note_on_c, 9, 51, 92
1, 25445, Note_on_c, 9, 35, 52
1, 25451, Note_on_c, 0, 60, 53
1, 25452, Note_on_c, 9, 75, 78
1, 25457, Note_on_c, 0, 67, 0
1, 25462, Note_on_c, 9, 64, 0
1, 25471, Note_on_c, 9, 35, 0
1, 25471, Note_on_c, 0, 60, 0
1, 25479, Note_on_c, 9, 75, 0
1, 25530, Note_on_c, 9, 51, 0
1, 25562, Note_on_c, 9, 51, 68
1, 25563, Note_on_c, 0, 61, 34
1, 25566, Note_on_c, 0, 60, 45
1, 25569, Note_on_c, 9, 63, 77
1, 25584, Note_on_c, 0, 53, 19
1, 25585, Note_on_c, 9, 51, 0
1, 25596, Note_on_c, 0, 53, 0
1, 25604, Note_on_c, 0, 60, 0
1, 25605, Note_on_c, 0, 61, 0
1, 25608, Note_on_c, 9, 63, 0
1, 25623, Note_on_c, 9, 51, 115
1, 25625, Note_on_c, 9, 35, 53
1, 25632, Note_on_c, 9, 75, 76
1, 25633, Note_on_c, 9, 63, 73
1, 25648, Note_on_c, 1, 41, 74
1, 25650, Note_on_c, 9, 35, 0
1, 25661, Note_on_c, 9, 75, 0
1, 25661, Note_on_c, 9, 51, 0
1, 25665, Note_on_c, 1, 41, 0
1, 25678, Note_on_c, 0, 61, 44
1, 25685, Note_on_c, 9, 35, 50
1, 25686, Note_on_c, 0, 60, 44
1, 25688, Note_on_c, 9, 51, 50
1, 25695, Note_on_c, 0, 53, 28
1, 25707, Note_on_c, 0, 60, 0
1, 25710, Note_on_c, 9, 51, 0
1, 25713, Note_on_c, 9, 35, 0
1, 25713, Note_on_c, 0, 53, 0
1, 25724, Note_on_c, 0, 61, 0
1, 25745, Note_on_c, 9, 51, 96
1, 25748, Note_on_c, 0, 61, 32
1, 25751, Note_on_c, 9, 63, 0
1, 25780, Note_on_c, 9, 51, 0
1, 25798, Note_on_c, 0, 61, 0
1, 25803, Note_on_c, 9, 64, 80
1, 25812, Note_on_c, 9, 51, 44
1, 25815, Note_on_c, 1, 41, 105
1, 25815, Note_on_c, 9, 75, 82
1, 25826, Note_on_c, 9, 51, 0
1, 25835, Note_on_c, 9, 64, 0
1, 25844, Note_on_c, 9, 75, 0
1, 25845, Note_on_c, 1, 49, 0
1, 25861, Note_on_c, 0, 62, 49
1, 25865, Note_on_c, 9, 35, 54
1, 25868, Note_on_c, 0, 60, 40
1, 25869, Note_on_c, 0, 53, 39
1, 25869, Note_on_c, 9, 51, 86
1, 25869, Note_on_c, 9, 64, 83
1, 25870, Note_on_c, 0, 56, 35
1, 25887, Note_on_c, 9, 51, 0
1, 25892, Note_on_c, 9, 35, 0
1, 25910, Note_on_c, 0, 60, 0
1, 25921, Note_on_c, 0, 53, 0
1, 25925, Note_on_c, 9, 51, 115
1, 25925, Note_on_c, 9, 35, 40
1, 25926, Note_on_c, 0, 62, 0
1, 25928, Note_on_c, 0, 56, 0
1, 25948, Note_on_c, 9, 64, 0
1, 25957, Note_on_c, 9, 35, 0
1, 25992, Note_on_c, 0, 62, 51
1, 25996, Note_on_c, 0, 60, 50
1, 26000, Note_on_c, 0, 56, 33
1, 26005, Note_on_c, 0, 53, 31
1, 26016, Note_on_c, 9, 51, 0
1, 26022, Note_on_c, 0, 62, 0
1, 26024, Note_on_c, 0, 53, 0
1, 26026, Note_on_c, 0, 60, 0
1, 26038, Note_on_c, 9, 51, 59
1, 26045, Note_on_c, 0, 56, 0
1, 26045, Note_on_c, 1, 50, 110
1, 26049, Note_on_c, 9, 62, 79
1, 26049, Note_on_c, 9, 63, 60
1, 26057, Note_on_c, 9, 75, 77
1, 26063, Note_on_c, 9, 51, 0
1, 26071, Note_on_c, 9, 62, 0
1, 26074, Note_on_c, 9, 63, 0
1, 26083, Note_on_c, 9, 75, 0
1, 26099, Note_on_c, 1, 41, 0
1, 26103, Note_on_c, 9, 51, 115
1, 26105, Note_on_c, 9, 35, 60
1, 26110, Note_on_c, 0, 62, 56
1, 26112, Note_on_c, 0, 56, 23
1, 26116, Note_on_c, 0, 60, 28
1, 26120, Note_on_c, 9, 63, 77
1, 26121, Note_on_c, 9, 62, 74
1, 26128, Note_on_c, 9, 35, 0
1, 26133, Note_on_c, 0, 62, 0
1, 26136, Note_on_c, 9, 51, 0
1, 26139, Note_on_c, 0, 60, 0
1, 26163, Note_on_c, 0, 56, 0
1, 26165, Note_on_c, 9, 35, 49
1, 26170, Note_on_c, 9, 51, 73
1, 26175, Note_on_c, 0, 62, 46
1, 26179, Note_on_c, 9, 62, 0
1, 26179, Note_on_c, 9, 75, 77
1, 26180, Note_on_c, 0, 60, 43
1, 26184, Note_on_c, 0, 56, 18
1, 26189, Note_on_c, 9, 35, 0
1, 26189, Note_on_c, 9, 63, 0
1, 26189, Note_on_c, 0, 53, 24
1, 26205, Note_on_c, 0, 53, 0
1, 26206, Note_on_c, 9, 75, 0
1, 26206, Note_on_c, 9, 51, 0
1, 26206, Note_on_c, 0, 62, 0
1, 26212, Note_on_c, 0, 60, 0
1, 26225, Note_on_c, 9, 35, 60
1, 26228, Note_on_c, 9, 51, 82
1, 26230, Note_on_c, 1, 41, 103
1, 26231, Note_on_c, 0, 56, 0
1, 26231, Note_on_c, 9, 63, 77
1, 26238, Note_on_c, 9, 62, 71
1, 26253, Note_on_c, 9, 35, 0
1, 26272, Note_on_c, 9, 62, 0
1, 26285, Note_on_c, 9, 63, 0
1, 26289, Note_on_c, 0, 62, 62
1, 26290, Note_on_c, 0, 56, 35
1, 26291, Note_on_c, 0, 60, 54
1, 26301, Note_on_c, 9, 51, 0
1, 26301, Note_on_c, 0, 53, 32
1, 26326, Note_on_c, 0, 53, 0
1, 26328, Note_on_c, 0, 62, 0
1, 26329, Note_on_c, 1, 50, 0
1, 26335, Note_on_c, 0, 60, 0
1, 26340, Note_on_c, 9, 51, 82
1, 26345, Note_on_c, 9, 35, 50
1, 26351, Note_on_c, 9, 64, 85
1, 26370, Note_on_c, 9, 35, 0
1, 26376, Note_on_c, 9, 64, 0
1, 26381, Note_on_c, 9, 51, 0
1, 26390, Note_on_c, 0, 56, 0
1, 26405, Note_on_c, 9, 35, 50
1, 26408, Note_on_c, 9, 64, 84
1, 26409, Note_on_c, 1, 49, 98
1, 26410, Note_on_c, 9, 51, 41
1, 26413, Note_on_c, 9, 75, 80
1, 26430, Note_on_c, 9, 51, 0
1, 26431, Note_on_c, 1, 41, 0
1, 26434, Note_on_c, 9, 35, 0
1, 26438, Note_on_c, 9, 75, 0
1, 26468, Note_on_c, 9, 51, 115
1, 26473, Note_on_c, 0, 61, 53
1, 26473, Note_on_c, 0, 60, 58
1, 26474, Note_on_c, 9, 64, 0
1, 26495, Note_on_c, 0, 61, 0
1, 26511, Note_on_c, 9, 51, 0
1, 26512, Note_on_c, 0, 60, 0
1, 26527, Note_on_c, 9, 64, 71
1, 26530, Note_on_c, 9, 51, 82
1, 26554, Note_on_c, 9, 64, 0
1, 26566, Note_on_c, 9, 51, 0
1, 26578, Note_on_c, 9, 75, 78
1, 26583, Note_on_c, 9, 51, 92
1, 26584, Note_on_c, 1, 49, 0
1, 26585, Note_on_c, 9, 35, 49
1, 26587, Note_on_c, 9, 64, 72
1, 26593, Note_on_c, 1, 48, 91
1, 26595, Note_on_c, 0, 82, 53
1, 26609, Note_on_c, 9, 75, 0
1, 26612, Note_on_c, 9, 35, 0
1, 26618, Note_on_c, 9, 64, 0
1, 26619, Note_on_c, 0, 82, 0
1, 26623, Note_on_c, 9, 51, 0
1, 26645, Note_on_c, 9, 35, 53
1, 26650, Note_on_c, 0, 84, 84
1, 26652, Note_on_c, 0, 72, 87
1, 26660, Note_on_c, 9, 51, 34
1, 26665, Note_on_c, 0, 60, 46
1, 26668, Note_on_c, 0, 61, 40
1, 26676, Note_on_c, 9, 35, 0
1, 26678, Note_on_c, 9, 51, 0
1, 26695, Note_on_c, 0, 84, 0
1, 26702, Note_on_c, 0, 60, 0
1, 26709, Note_on_c, 0, 72, 0
1, 26709, Note_on_c, 9, 64, 68
1, 26712, Note_on_c, 0, 61, 0
1, 26714, Note_on_c, 9, 51, 127
1, 26719, Note_on_c, 0, 82, 72
1, 26725, Note_on_c, 9, 64, 0
1, 26745, Note_on_c, 9, 51, 0
1, 26757, Note_on_c, 1, 48, 0
1, 26760, Note_on_c, 0, 82, 0
1, 26766, Note_on_c, 9, 75, 83
1, 26771, Note_on_c, 1, 38, 101
1, 26778, Note_on_c, 0, 80, 55
1, 26778, Note_on_c, 9, 51, 62
1, 26795, Note_on_c, 9, 75, 0
1, 26801, Note_on_c, 9, 51, 0
1, 26817, Note_on_c, 0, 80, 0
1, 26825, Note_on_c, 9, 35, 57
1, 26837, Note_on_c, 9, 51, 62
1, 26844, Note_on_c, 0, 79, 70
1, 26850, Note_on_c, 9, 35, 0
1, 26856, Note_on_c, 9, 51, 0
1, 26885, Note_on_c, 9, 35, 50
1, 26889, Note_on_c, 9, 51, 127
1, 26892, Note_on_c, 0, 60, 57
1, 26892, Note_on_c, 0, 50, 47
1, 26896, Note_on_c, 0, 56, 35
1, 26916, Note_on_c, 9, 35, 0
1, 26919, Note_on_c, 0, 60, 0
1, 26922, Note_on_c, 0, 50, 0
1, 26947, Note_on_c, 0, 56, 0
1, 26973, Note_on_c, 9, 51, 0
1, 27010, Note_on_c, 9, 75, 74
1, 27016, Note_on_c, 9, 51, 39
1, 27026, Note_on_c, 9, 75, 0
1, 27031, Note_on_c, 9, 51, 0
1, 27065, Note_on_c, 9, 35, 57
1, 27077, Note_on_c, 9, 51, 92
1, 27084, Note_on_c, 0, 50, 49
1, 27084, Note_on_c, 0, 60, 58
1, 27085, Note_on_c, 0, 56, 38
1, 27087, Note_on_c, 1, 44, 86
1, 27090, Note_on_c, 9, 35, 0
1, 27094, Note_on_c, 0, 50, 0
1, 27100, Note_on_c, 0, 60, 0
1, 27109, Note_on_c, 1, 38, 0
1, 27113, Note_on_c, 9, 51, 0
1, 27121, Note_on_c, 0, 56, 0
1, 27125, Note_on_c, 9, 35, 58
1, 27142, Control_c, 0, 64, 127
1, 27142, Note_on_c, 9, 75, 81
1, 27150, Note_on_c, 9, 35, 0
1, 27169, Note_on_c, 9, 75, 0
1, 27176, Note_on_c, 0, 79, 0
1, 27185, Note_on_c, 9, 35, 46
1, 27195, Note_on_c, 9, 51, 92
1, 27213, Note_on_c, 9, 35, 0
1, 27228, Note_on_c, 9, 51, 0
1, 27247, Note_on_c, 0, 65, 77
1, 27247, Note_on_c, 1, 55, 118
1, 27248, Note_on_c, 0, 58, 55
1, 27249, Note_on_c, 0, 60, 66
1, 27251, Note_on_c, 0, 54, 51
1, 27252, Note_on_c, 9, 64, 80
1, 27277, Note_on_c, 9, 64, 0
1, 27292, Control_c, 0, 64, 0
1, 27302, Note_on_c, 9, 51, 96
1, 27305, Note_on_c, 9, 35, 60
1, 27316, Note_on_c, 9, 64, 84
1, 27329, Note_on_c, 9, 35, 0
1, 27340, Control_c, 0, 64, 127
1, 27343, Note_on_c, 9, 51, 0
1, 27365, Note_on_c, 9, 35, 79
1, 27375, Note_on_c, 9, 75, 80
1, 27389, Note_on_c, 9, 35, 0
1, 27390, Note_on_c, 9, 64, 0
1, 27403, Note_on_c, 9, 75, 0
1, 27423, Note_on_c, 9, 51, 96
1, 27451, Note_on_c, 0, 54, 0
1, 27452, Note_on_c, 0, 65, 0
1, 27452, Note_on_c, 9, 51, 0
1, 27462, Note_on_c, 0, 60, 0
1, 27479, Note_on_c, 0, 65, 64
1, 27481, Note_on_c, 0, 54, 46
1, 27483, Note_on_c, 0, 70, 95
1, 27484, Note_on_c, 1, 44, 0
1, 27486, Note_on_c, 0, 60, 62
1, 27486, Note_on_c, 9, 51, 56
1, 27492, Note_on_c, 9, 63, 48
1, 27494, Note_on_c, 9, 62, 59
1, 27497, Control_c, 0, 64, 0
1, 27505, Note_on_c, 9, 51, 0
1, 27517, Note_on_c, 9, 62, 0
1, 27524, Note_on_c, 9, 63, 0
1, 27534, Note_on_c, 0, 70, 0
1, 27544, Note_on_c, 1, 53, 89
1, 27544, Note_on_c, 9, 51, 106
1, 27545, Note_on_c, 9, 35, 52
1, 27549, Note_on_c, 9, 75, 74
1, 27552, Note_on_c, 0, 65, 0
1, 27558, Note_on_c, 0, 74, 68
1, 27561, Note_on_c, 9, 63, 78
1, 27561, Note_on_c, 9, 62, 77
1, 27563, Note_on_c, 1, 55, 0
1, 27567, Note_on_c, 0, 54, 0
1, 27571, Note_on_c, 9, 35, 0
1, 27577, Note_on_c, 9, 75, 0
1, 27578, Note_on_c, 9, 64, 43
1, 27584, Note_on_c, 9, 51, 0
1, 27590, Note_on_c, 0, 74, 0
1, 27605, Note_on_c, 9, 35, 52
1, 27608, Note_on_c, 0, 77, 60
1, 27609, Note_on_c, 9, 51, 19
1, 27612, Note_on_c, 9, 64, 0
1, 27619, Note_on_c, 0, 60, 0
1, 27624, Note_on_c, 9, 51, 0
1, 27625, Note_on_c, 0, 58, 0
1, 27629, Note_on_c, 9, 62, 0
1, 27630, Note_on_c, 9, 63, 0
1, 27632, Note_on_c, 0, 77, 0
1, 27664, Note_on_c, 9, 51, 96
1, 27670, Note_on_c, 0, 68, 75
1, 27674, Note_on_c, 0, 80, 43
1, 27675, Note_on_c, 0, 78, 51
1, 27678, Note_on_c, 0, 58, 39
1, 27680, Note_on_c, 0, 54, 51
1, 27680, Note_on_c, 0, 60, 47
1, 27695, Note_on_c, 9, 51, 0
1, 27698, Note_on_c, 0, 68, 0
1, 27699, Note_on_c, 0, 78, 0
1, 27704, Note_on_c, 9, 35, 0
1, 27705, Note_on_c, 0, 80, 0
1, 27710, Note_on_c, 0, 60, 0
1, 27722, Note_on_c, 9, 64, 71
1, 27723, Note_on_c, 9, 75, 78
1, 27728, Note_on_c, 1, 53, 0
1, 27732, Note_on_c, 0, 54, 0
1, 27732, Note_on_c, 9, 51, 50
1, 27738, Note_on_c, 1, 43, 95
1, 27749, Note_on_c, 9, 75, 0
1, 27751, Note_on_c, 0, 58, 0
1, 27752, Note_on_c, 9, 51, 0
1, 27764, Note_on_c, 9, 64, 0
1, 27785, Note_on_c, 9, 35, 45
1, 27788, Note_on_c, 0, 59, 62
1, 27789, Note_on_c, 0, 64, 74
1, 27790, Note_on_c, 0, 82, 79
1, 27790, Note_on_c, 0, 53, 68
1, 27791, Note_on_c, 0, 70, 84
1, 27791, Note_on_c, 9, 64, 75
1, 27793, Note_on_c, 9, 51, 68
1, 27800, Note_on_c, 0, 83, 51
1, 27807, Note_on_c, 9, 51, 0
1, 27808, Note_on_c, 9, 35, 0
1, 27810, Note_on_c, 0, 83, 0
1, 27816, Note_on_c, 0, 64, 0
1, 27828, Note_on_c, 0, 53, 0
1, 27837, Note_on_c, 9, 64, 0
1, 27837, Note_on_c, 0, 82, 0
1, 27845, Note_on_c, 9, 35, 49
1, 27846, Note_on_c, 0, 70, 0
1, 27851, Note_on_c, 9, 51, 86
1, 27852, Note_on_c, 0, 59, 0
1, 27887, Note_on_c, 9, 35, 0
1, 27919, Note_on_c, 0, 80, 56
1, 27921, Note_on_c, 9, 51, 0
1, 27923, Note_on_c, 0, 59, 54
1, 27924, Note_on_c, 0, 64, 65
1, 27924, Note_on_c, 0, 68, 68
1, 27929, Note_on_c, 0, 53, 38
1, 27933, Note_on_c, 0, 64, 0
1, 27945, Note_on_c, 0, 53, 0
1, 27950, Note_on_c, 0, 59, 0
1, 27959, Note_on_c, 9, 75, 86
1, 27964, Note_on_c, 0, 68, 0
1, 27969, Note_on_c, 9, 51, 62
1, 27976, Note_on_c, 9, 63, 80
1, 27976, Note_on_c, 9, 62, 108
1, 27983, Note_on_c, 9, 75, 0
1, 27990, Note_on_c, 9, 51, 0
1, 27996, Note_on_c, 0, 80, 0
1, 28013, Note_on_c, 9, 62, 0
1, 28025, Note_on_c, 9, 35, 44
1, 28032, Note_on_c, 9, 51, 106
1, 28036, Note_on_c, 9, 63, 0
1, 28038, Note_on_c, 1, 50, 92
1, 28048, Note_on_c, 0, 75, 56
1, 28052, Note_on_c, 9, 35, 0
1, 28058, Note_on_c, 9, 51, 0
1, 28071, Note_on_c, 0, 75, 0
1, 28085, Note_on_c, 9, 35, 47
1, 28089, Note_on_c, 9, 75, 83
1, 28098, Note_on_c, 9, 51, 68
1, 28105, Note_on_c, 0, 82, 82
1, 28107, Note_on_c, 0, 70, 84
1, 28118, Note_on_c, 9, 75, 0
1, 28118, Note_on_c, 9, 35, 0
1, 28145, Note_on_c, 9, 35, 47
1, 28163, Note_on_c, 0, 82, 0
1, 28163, Note_on_c, 0, 70, 0
1, 28172, Note_on_c, 9, 51, 0
1, 28175, Note_on_c, 1, 43, 0
1, 28175, Note_on_c, 9, 35, 0
1, 28182, Note_on_c, 1, 50, 0
1, 28199, Note_on_c, 1, 47, 91
1, 28208, Note_on_c, 9, 51, 96
1, 28212, Note_on_c, 9, 64, 88
1, 28222, Note_on_c, 0, 55, 53
1, 28224, Note_on_c, 0, 80, 69
1, 28226, Note_on_c, 0, 62, 49
1, 28227, Note_on_c, 0, 68, 70
1, 28228, Note_on_c, 0, 60, 48
1, 28229, Note_on_c, 0, 56, 38
1, 28232, Note_on_c, 9, 51, 0
1, 28243, Note_on_c, 9, 64, 0
1, 28262, Note_on_c, 0, 62, 0
1, 28265, Note_on_c, 9, 35, 40
1, 28267, Note_on_c, 9, 51, 106
1, 28269, Note_on_c, 0, 55, 0
1, 28270, Note_on_c, 0, 60, 0
1, 28272, Note_on_c, 9, 64, 80
1, 28276, Note_on_c, 0, 68, 0
1, 28277, Note_on_c, 0, 80, 0
1, 28283, Note_on_c, 0, 56, 0
1, 28291, Note_on_c, 9, 35, 0
1, 28323, Note_on_c, 9, 64, 0
1, 28325, Note_on_c, 9, 35, 41
1, 28336, Note_on_c, 9, 75, 76
1, 28340, Note_on_c, 0, 79, 57
1, 28346, Note_on_c, 0, 67, 63
1, 28347, Note_on_c, 9, 51, 0
1, 28353, Note_on_c, 9, 75, 0
1, 28353, Note_on_c, 9, 35, 0
1, 28380, Note_on_c, 0, 67, 0
1, 28387, Note_on_c, 9, 51, 96
1, 28399, Note_on_c, 0, 79, 0
1, 28450, Note_on_c, 9, 62, 83
1, 28451, Note_on_c, 0, 62, 38
1, 28451, Note_on_c, 9, 63, 56
1, 28456, Note_on_c, 0, 55, 36
1, 28457, Note_on_c, 0, 60, 37
1, 28459, Note_on_c, 0, 56, 36
1, 28460, Note_on_c, 9, 75, 83
1, 28462, Note_on_c, 9, 51, 0
1, 28470, Note_on_c, 0, 62, 0
1, 28472, Note_on_c, 0, 60, 0
1, 28473, Note_on_c, 0, 55, 0
1, 28473, Note_on_c, 9, 62, 0
1, 28478, Note_on_c, 9, 63, 0
1, 28483, Note_on_c, 9, 75, 0
1, 28488, Note_on_c, 0, 56, 0
1, 28504, Note_on_c, 1, 43, 83
1, 28505, Note_on_c, 9, 35, 54
1, 28514, Note_on_c, 9, 51, 106
1, 28514, Note_on_c, 9, 62, 70
1, 28514, Note_on_c, 9, 63, 79
1, 28528, Note_on_c, 9, 35, 0
1, 28541, Note_on_c, 9, 51, 0
1, 28553, Note_on_c, 9, 62, 0
1, 28564, Note_on_c, 9, 63, 0
1, 28565, Note_on_c, 9, 35, 44
1, 28574, Note_on_c, 0, 62, 65
1, 28575, Note_on_c, 0, 56, 49
1, 28576, Note_on_c, 0, 82, 76
1, 28579, Note_on_c, 0, 55, 56
1, 28580, Note_on_c, 0, 60, 47
1, 28597, Note_on_c, 1, 47, 0
1, 28599, Note_on_c, 9, 35, 0
1, 28614, Note_on_c, 0, 82, 0
1, 28632, Note_on_c, 9, 64, 96
1, 28635, Note_on_c, 9, 51, 77
1, 28650, Note_on_c, 0, 82, 78
1, 28653, Note_on_c, 0, 60, 0
1, 28658, Note_on_c, 0, 62, 0
1, 28659, Note_on_c, 9, 51, 0
1, 28668, Note_on_c, 0, 55, 0
1, 28678, Note_on_c, 0, 56, 0
1, 28684, Note_on_c, 9, 51, 47
1, 28686, Note_on_c, 9, 75, 77
1, 28687, Note_on_c, 1, 36, 83
1, 28701, Note_on_c, 9, 75, 0
1, 28702, Note_on_c, 9, 64, 0
1, 28703, Note_on_c, 1, 43, 0
1, 28704, Note_on_c, 0, 82, 0
1, 28704, Note_on_c, 0, 83, 77
1, 28713, Note_on_c, 9, 51, 0
1, 28724, Note_on_c, 1, 36, 0
1, 28742, Note_on_c, 0, 83, 0
1, 28745, Note_on_c, 9, 35, 45
1, 28749, Note_on_c, 9, 51, 62
1, 28751, Note_on_c, 9, 64, 78
1, 28765, Note_on_c, 9, 51, 0
1, 28771, Note_on_c, 9, 35, 0
1, 28801, Note_on_c, 9, 64, 0
1, 28805, Note_on_c, 1, 36, 101
1, 28805, Note_on_c, 9, 35, 52
1, 28816, Note_on_c, 9, 51, 96
1, 28822, Note_on_c, 0, 62, 71
1, 28825, Note_on_c, 0, 84, 83
1, 28826, Note_on_c, 0, 51, 51
1, 28827, Note_on_c, 0, 57, 57
1, 28828, Note_on_c, 0, 72, 89
1, 28830, Note_on_c, 0, 55, 55
1, 28835, Note_on_c, 9, 35, 0
1, 28856, Note_on_c, 9, 51, 0
1, 28880, Note_on_c, 0, 84, 0
1, 28880, Note_on_c, 0, 57, 0
1, 28881, Note_on_c, 0, 72, 0
1, 28884, Note_on_c, 0, 62, 0
1, 28885, Note_on_c, 0, 55, 0
1, 28889, Note_on_c, 1, 36, 0
1, 28891, Note_on_c, 0, 51, 0
1, 28928, Note_on_c, 9, 51, 96
1, 28932, Note_on_c, 9, 75, 81
1, 28940, Note_on_c, 9, 63, 47
1, 28942, Note_on_c, 9, 62, 58
1, 28952, Note_on_c, 9, 51, 0
1, 28956, Note_on_c, 9, 75, 0
1, 28961, Note_on_c, 9, 62, 0
1, 28965, Note_on_c, 9, 63, 0
1, 28985, Note_on_c, 9, 35, 50
1, 28992, Note_on_c, 9, 51, 68
1, 29004, Note_on_c, 0, 62, 78
1, 29007, Note_on_c, 0, 57, 65
1, 29008, Note_on_c, 9, 63, 62
1, 29009, Note_on_c, 9, 35, 0
1, 29009, Note_on_c, 9, 62, 63
1, 29010, Note_on_c, 0, 51, 45
1, 29012, Note_on_c, 0, 55, 55
1, 29027, Note_on_c, 0, 51, 0
1, 29033, Note_on_c, 0, 62, 0
1, 29041, Note_on_c, 0, 55, 0
1, 29041, Note_on_c, 1, 36, 90
1, 29045, Note_on_c, 9, 62, 0
1, 29045, Note_on_c, 9, 35, 47
1, 29047, Note_on_c, 0, 57, 0
1, 29059, Note_on_c, 9, 75, 79
1, 29060, Note_on_c, 9, 63, 0
1, 29074, Note_on_c, 9, 35, 0
1, 29080, Note_on_c, 9, 51, 0
1, 29085, Note_on_c, 9, 75, 0
1, 29105, Note_on_c, 9, 35, 46
1, 29109, Note_on_c, 9, 51, 96
1, 29134, Note_on_c, 9, 51, 0
1, 29136, Note_on_c, 9, 35, 0
1, 29157, Note_on_c, 1, 36, 0
1, 29165, Note_on_c, 9, 51, 77
1, 29173, Note_on_c, 9, 64, 73
1, 29174, Note_on_c, 0, 63, 68
1, 29175, Note_on_c, 0, 59, 64
1, 29178, Note_on_c, 0, 53, 54
1, 29180, Note_on_c, 0, 56, 43
1, 29184, Note_on_c, 9, 51, 0
1, 29198, Note_on_c, 9, 64, 0
1, 29216, Note_on_c, 1, 43, 95
1, 29225, Note_on_c, 9, 35, 42
1, 29227, Note_on_c, 9, 51, 115
1, 29233, Note_on_c, 9, 64, 78
1, 29244, Note_on_c, 0, 63, 0
1, 29245, Note_on_c, 0, 53, 0
1, 29251, Note_on_c, 9, 35, 0
1, 29252, Note_on_c, 0, 59, 0
1, 29270, Note_on_c, 9, 64, 0
1, 29279, Note_on_c, 0, 56, 0
1, 29285, Note_on_c, 9, 35, 50
1, 29295, Note_on_c, 9, 75, 80
1, 29312, Note_on_c, 9, 35, 0
1, 29315, Note_on_c, 9, 51, 0
1, 29323, Note_on_c, 9, 75, 0
1, 29332, Note_on_c, 1, 43, 0
1, 29350, Note_on_c, 9, 51, 65
1, 29354, Note_on_c, 0, 63, 69
1, 29358, Note_on_c, 0, 59, 58
1, 29362, Note_on_c, 0, 56, 29
1, 29363, Note_on_c, 0, 53, 33
1, 29371, Note_on_c, 9, 51, 0
1, 29385, Note_on_c, 0, 53, 0
1, 29387, Note_on_c, 9, 63, 65
1, 29388, Note_on_c, 9, 62, 78
1, 29397, Note_on_c, 0, 63, 0
1, 29401, Note_on_c, 0, 59, 0
1, 29406, Note_on_c, 1, 31, 90
1, 29407, Note_on_c, 9, 51, 39
1, 29411, Note_on_c, 9, 62, 0
1, 29417, Note_on_c, 0, 56, 0
1, 29425, Note_on_c, 9, 51, 0
1, 29430, Note_on_c, 9, 63, 0
1, 29458, Note_on_c, 9, 75, 81
1, 29465, Note_on_c, 9, 51, 92
1, 29465, Note_on_c, 9, 35, 49
1, 29475, Note_on_c, 0, 82, 57
1, 29478, Note_on_c, 9, 63, 64
1, 29479, Note_on_c, 9, 62, 64
1, 29488, Note_on_c, 9, 35, 0
1, 29491, Note_on_c, 9, 75, 0
1, 29496, Note_on_c, 9, 51, 0
1, 29500, Note_on_c, 9, 62, 0
1, 29502, Note_on_c, 0, 82, 0
1, 29520, Note_on_c, 0, 63, 67
1, 29521, Note_on_c, 0, 59, 63
1, 29524, Note_on_c, 0, 53, 61
1, 29525, Note_on_c, 0, 86, 75
1, 29525, Note_on_c, 0, 74, 85
1, 29525, Note_on_c, 9, 35, 41
1, 29526, Note_on_c, 9, 63, 0
1, 29528, Note_on_c, 0, 56, 37
1, 29530, Note_on_c, 0, 82, 31
1, 29534, Note_on_c, 0, 84, 32
1, 29537, Note_on_c, 9, 51, 19
1, 29540, Note_on_c, 0, 82, 0
1, 29548, Note_on_c, 0, 84, 0
1, 29549, Note_on_c, 9, 51, 0
1, 29555, Note_on_c, 9, 35, 0
1, 29557, Note_on_c, 0, 63, 0
1, 29559, Note_on_c, 0, 53, 0
1, 29559, Note_on_c, 0, 74, 0
1, 29567, Note_on_c, 0, 86, 0
1, 29567, Note_on_c, 9, 62, 73
1, 29573, Note_on_c, 0, 59, 0
1, 29573, Note_on_c, 9, 63, 74
1, 29579, Note_on_c, 1, 31, 0
1, 29581, Note_on_c, 0, 56, 0
1, 29588, Note_on_c, 1, 34, 63
1, 29590, Note_on_c, 9, 51, 50
1, 29598, Note_on_c, 9, 62, 0
1, 29603, Note_on_c, 9, 51, 0
1, 29618, Note_on_c, 9, 63, 0
1, 29625, Note_on_c, 1, 34, 0
1, 29634, Note_on_c, 0, 63, 62
1, 29638, Note_on_c, 0, 53, 58
1, 29641, Note_on_c, 9, 75, 83
1, 29643, Note_on_c, 0, 86, 72
1, 29643, Note_on_c, 0, 59, 42
1, 29643, Note_on_c, 0, 74, 84
1, 29644, Note_on_c, 0, 56, 35
1, 29645, Note_on_c, 1, 35, 79
1, 29649, Note_on_c, 9, 51, 73
1, 29653, Note_on_c, 9, 64, 69
1, 29654, Note_on_c, 0, 84, 27
1, 29656, Note_on_c, 0, 59, 0
1, 29665, Note_on_c, 0, 84, 0
1, 29669, Note_on_c, 0, 53, 0
1, 29670, Note_on_c, 9, 75, 0
1, 29673, Note_on_c, 9, 51, 0
1, 29674, Note_on_c, 0, 74, 0
1, 29676, Note_on_c, 0, 86, 0
1, 29677, Note_on_c, 0, 63, 0
1, 29679, Note_on_c, 9, 64, 0
1, 29705, Note_on_c, 9, 35, 53
1, 29725, Note_on_c, 9, 64, 87
1, 29727, Note_on_c, 9, 35, 0
1, 29738, Note_on_c, 0, 56, 0
1, 29740, Note_on_c, 1, 35, 0
1, 29761, Note_on_c, 0, 62, 70
1, 29763, Note_on_c, 0, 51, 57
1, 29765, Note_on_c, 0, 84, 76
1, 29765, Note_on_c, 0, 55, 60
1, 29765, Note_on_c, 9, 35, 40
1, 29767, Note_on_c, 0, 57, 54
1, 29768, Note_on_c, 0, 72, 79
1, 29768, Note_on_c, 1, 36, 92
1, 29770, Note_on_c, 9, 51, 106
1, 29795, Note_on_c, 9, 35, 0
1, 29800, Note_on_c, 9, 64, 0
1, 29836, Note_on_c, 0, 72, 0
1, 29837, Note_on_c, 9, 51, 0
1, 29842, Note_on_c, 0, 84, 0
1, 29849, Note_on_c, 0, 57, 0
1, 29850, Note_on_c, 0, 55, 0
1, 29850, Note_on_c, 0, 62, 0
1, 29860, Note_on_c, 0, 51, 0
1, 29886, Note_on_c, 9, 75, 79
1, 29887, Note_on_c, 9, 51, 53
1, 29893, Note_on_c, 9, 62, 44
1, 29898, Note_on_c, 9, 51, 0
1, 29905, Note_on_c, 9, 62, 0
1, 29911, Note_on_c, 9, 75, 0
1, 29939, Note_on_c, 9, 51, 106
1, 29945, Note_on_c, 9, 35, 49
1, 29955, Note_on_c, 9, 63, 71
1, 29958, Note_on_c, 9, 62, 85
1, 29970, Note_on_c, 9, 35, 0
1, 29970, Note_on_c, 9, 51, 0
1, 29991, Note_on_c, 9, 62, 0
1, 30004, Note_on_c, 0, 63, 63
1, 30005, Note_on_c, 9, 35, 40
1, 30006, Note_on_c, 0, 59, 58
1, 30007, Note_on_c, 0, 56, 47
1, 30009, Note_on_c, 0, 53, 53
1, 30009, Note_on_c, 0, 86, 80
1, 30009, Note_on_c, 0, 74, 88
1, 30012, Note_on_c, 9, 63, 0
1, 30016, Note_on_c, 9, 75, 83
1, 30035, Note_on_c, 9, 35, 0
1, 30043, Note_on_c, 9, 75, 0
1, 30062, Note_on_c, 9, 51, 96
1, 30068, Note_on_c, 0, 59, 0
1, 30068, Note_on_c, 9, 63, 65
1, 30068, Note_on_c, 9, 62, 81
1, 30078, Note_on_c, 0, 53, 0
1, 30079, Note_on_c, 0, 74, 0
1, 30079, Note_on_c, 0, 86, 0
1, 30083, Note_on_c, 0, 63, 0
1, 30097, Note_on_c, 9, 51, 0
1, 30107, Note_on_c, 0, 56, 0
1, 30112, Note_on_c, 9, 62, 0
1, 30129, Note_on_c, 9, 63, 0
1, 30129, Note_on_c, 1, 48, 101
1, 30163, Note_on_c, 1, 36, 0
1, 30179, Note_on_c, 0, 51, 63
1, 30180, Note_on_c, 0, 62, 68
1, 30181, Note_on_c, 0, 87, 83
1, 30182, Note_on_c, 0, 57, 62
1, 30183, Note_on_c, 0, 75, 83
1, 30183, Note_on_c, 9, 51, 106
1, 30185, Note_on_c, 9, 35, 50
1, 30186, Note_on_c, 0, 55, 54
1, 30188, Note_on_c, 9, 62, 46
1, 30201, Note_on_c, 9, 62, 0
1, 30205, Note_on_c, 9, 51, 0
1, 30210, Note_on_c, 9, 35, 0
1, 30228, Control_c, 0, 64, 127
1, 30237, Note_on_c, 0, 55, 0
1, 30237, Note_on_c, 0, 57, 0
1, 30245, Note_on_c, 9, 35, 50
1, 30249, Note_on_c, 9, 75, 83
1, 30250, Note_on_c, 9, 51, 68
1, 30255, Note_on_c, 0, 51, 0
1, 30261, Note_on_c, 9, 62, 94
1, 30265, Note_on_c, 9, 51, 0
1, 30266, Note_on_c, 0, 62, 0
1, 30270, Note_on_c, 9, 63, 68
1, 30273, Note_on_c, 9, 35, 0
1, 30278, Note_on_c, 9, 75, 0
1, 30282, Note_on_c, 0, 87, 0
1, 30297, Note_on_c, 0, 75, 0
1, 30308, Note_on_c, 9, 51, 115
1, 30309, Note_on_c, 9, 62, 0
1, 30330, Note_on_c, 9, 63, 0
1, 30347, Note_on_c, 9, 51, 0
1, 30354, Control_c, 0, 64, 0
1, 30358, Note_on_c, 0, 63, 59
1, 30360, Note_on_c, 0, 53, 53
1, 30362, Note_on_c, 0, 56, 34
1, 30367, Note_on_c, 9, 62, 75
1, 30369, Note_on_c, 0, 58, 42
1, 30369, Note_on_c, 0, 86, 70
1, 30374, Note_on_c, 0, 74, 65
1, 30381, Note_on_c, 0, 76, 36
1, 30387, Note_on_c, 9, 62, 0
1, 30387, Note_on_c, 0, 53, 0
1, 30393, Note_on_c, 0, 76, 0
1, 30401, Note_on_c, 0, 74, 0
1, 30403, Note_on_c, 0, 86, 0
1, 30409, Note_on_c, 0, 56, 0
1, 30409, Note_on_c, 0, 63, 0
1, 30425, Note_on_c, 9, 35, 50
1, 30427, Note_on_c, 9, 75, 81
1, 30431, Note_on_c, 9, 51, 68
1, 30439, Note_on_c, 0, 58, 0
1, 30446, Note_on_c, 9, 35, 0
1, 30447, Note_on_c, 9, 62, 99
1, 30453, Note_on_c, 9, 51, 0
1, 30455, Note_on_c, 9, 63, 70
1, 30471, Note_on_c, 9, 75, 0
1, 30485, Note_on_c, 0, 62, 68
1, 30485, Note_on_c, 0, 58, 52
1, 30485, Note_on_c, 9, 35, 56
1, 30488, Note_on_c, 0, 84, 68
1, 30489, Note_on_c, 9, 62, 0
1, 30489, Note_on_c, 9, 51, 96
1, 30490, Note_on_c, 0, 52, 46
1, 30493, Note_on_c, 0, 72, 69
1, 30501, Note_on_c, 0, 52, 0
1, 30504, Note_on_c, 0, 62, 0
1, 30510, Note_on_c, 0, 84, 0
1, 30511, Note_on_c, 9, 63, 0
1, 30512, Note_on_c, 0, 72, 0
1, 30515, Note_on_c, 9, 35, 0
1, 30516, Note_on_c, 9, 51, 0
1, 30524, Note_on_c, 0, 58, 0
1, 30554, Note_on_c, 9, 51, 50
1, 30557, Note_on_c, 9, 62, 89
1, 30558, Note_on_c, 9, 63, 70
1, 30565, Note_on_c, 9, 51, 0
1, 30584, Note_on_c, 1, 48, 0
1, 30592, Control_c, 0, 64, 127
1, 30593, Note_on_c, 9, 62, 0
1, 30597, Note_on_c, 9, 75, 74
1, 30606, Note_on_c, 9, 51, 127
1, 30607, Note_on_c, 9, 63, 0
1, 30621, Note_on_c, 9, 75, 0
1, 30639, Note_on_c, 9, 51, 0
1, 30665, Note_on_c, 9, 35, 56
1, 30665, Note_on_c, 9, 63, 72
1, 30666, Note_on_c, 9, 62, 73
1, 30675, Note_on_c, 9, 51, 34
1, 30686, Note_on_c, 9, 62, 0
1, 30689, Note_on_c, 9, 51, 0
1, 30692, Note_on_c, 9, 35, 0
1, 30699, Note_on_c, 9, 63, 0
1, 30727, Note_on_c, 9, 62, 37
1, 30728, Note_on_c, 9, 37, 59
1, 30729, Note_on_c, 0, 79, 75
1, 30731, Note_on_c, 0, 68, 77
1, 30732, Note_on_c, 0, 67, 91
1, 30732, Note_on_c, 9, 51, 106
1, 30733, Note_on_c, 1, 55, 105
1, 30735, Note_on_c, 0, 74, 55
1, 30736, Control_c, 0, 64, 0
1, 30740, Note_on_c, 9, 62, 0
1, 30741, Note_on_c, 9, 37, 0
1, 30764, Note_on_c, 0, 68, 0
1, 30778, Control_c, 0, 64, 127
1, 30781, Note_on_c, 0, 74, 0
1, 30785, Note_on_c, 9, 35, 54
1, 30790, Note_on_c, 9, 51, 0
1, 30793, Note_on_c, 0, 68, 57
1, 30809, Note_on_c, 0, 74, 41
1, 30813, Note_on_c, 0, 68, 0
1, 30813, Note_on_c, 9, 35, 0
1, 30818, Note_on_c, 0, 72, 54
1, 30831, Note_on_c, 0, 72, 0
1, 30837, Pitch_bend_c, 1, 8192
1, 30839, Pitch_bend_c, 1, 8192
1, 30840, Note_on_c, 0, 79, 0
1, 30844, Note_on_c, 0, 74, 0
1, 30844, Pitch_bend_c, 1, 7552
1, 30846, Note_on_c, 0, 68, 39
1, 30847, Pitch_bend_c, 1, 7296
1, 30849, Pitch_bend_c, 1, 7040
1, 30852, Pitch_bend_c, 1, 6656
1, 30855, Pitch_bend_c, 1, 6400
1, 30855, Note_on_c, 9, 37, 73
1, 30858, Pitch_bend_c, 1, 6016
1, 30860, Pitch_bend_c, 1, 5760
1, 30863, Pitch_bend_c, 1, 5632
1, 30864, Note_on_c, 0, 79, 18
1, 30864, Note_on_c, 9, 64, 41
1, 30866, Note_on_c, 0, 68, 0
1, 30866, Pitch_bend_c, 1, 5504
1, 30876, Note_on_c, 9, 37, 0
1, 30877, Note_on_c, 0, 72, 37
1, 30878, Note_on_c, 9, 64, 0
1, 30891, Pitch_bend_c, 1, 5632
1, 30894, Note_on_c, 0, 68, 51
1, 30894, Pitch_bend_c, 1, 5760
1, 30896, Pitch_bend_c, 1, 6016
1, 30899, Pitch_bend_c, 1, 6400
1, 30901, Pitch_bend_c, 1, 6784
1, 30903, Note_on_c, 0, 79, 0
1, 30903, Note_on_c, 0, 72, 0
1, 30904, Pitch_bend_c, 1, 7296
1, 30905, Note_on_c, 0, 67, 0
1, 30905, Note_on_c, 9, 35, 46
1, 30907, Pitch_bend_c, 1, 7680
1, 30910, Note_on_c, 1, 55, 0
1, 30910, Pitch_bend_c, 1, 8192
1, 30910, Note_on_c, 9, 51, 92
1, 30911, Pitch_bend_c, 1, 8192
1, 30915, Note_on_c, 9, 64, 88
1, 30928, Note_on_c, 0, 68, 0
1, 30931, Note_on_c, 9, 35, 0
1, 30932, Note_on_c, 9, 51, 0
1, 30972, Note_on_c, 9, 51, 68
1, 30983, Note_on_c, 9, 37, 77
1, 30999, Note_on_c, 9, 51, 0
1, 31000, Note_on_c, 9, 64, 0
1, 31007, Note_on_c, 9, 37, 0
1, 31025, Note_on_c, 9, 35, 50
1, 31038, Note_on_c, 9, 51, 56
1, 31052, Note_on_c, 9, 35, 0
1, 31078, Note_on_c, 9, 51, 0
1, 31079, Note_on_c, 0, 60, 83
1, 31079, Note_on_c, 0, 67, 75
1, 31080, Note_on_c, 0, 55, 101
1, 31080, Note_on_c, 0, 56, 79
1, 31081, Note_on_c, 0, 62, 66
1, 31101, Note_on_c, 1, 55, 115
1, 31109, Control_c, 0, 64, 0
1, 31138, Note_on_c, 9, 63, 59
1, 31145, Note_on_c, 9, 35, 54
1, 31151, Note_on_c, 9, 63, 0
1, 31152, Note_on_c, 9, 51, 106
1, 31169, Note_on_c, 9, 35, 0
1, 31170, Control_c, 0, 64, 127
1, 31182, Note_on_c, 9, 51, 0
1, 31201, Note_on_c, 9, 62, 80
1, 31205, Note_on_c, 9, 35, 57
1, 31205, Note_on_c, 9, 63, 68
1, 31218, Note_on_c, 9, 37, 74
1, 31232, Note_on_c, 9, 35, 0
1, 31242, Note_on_c, 9, 37, 0
1, 31272, Note_on_c, 9, 51, 86
1, 31279, Note_on_c, 9, 62, 0
1, 31284, Note_on_c, 9, 63, 0
1, 31298, Pitch_bend_c, 1, 8192
1, 31303, Note_on_c, 9, 51, 0
1, 31304, Pitch_bend_c, 1, 8192
1, 31314, Note_on_c, 0, 62, 0
1, 31317, Pitch_bend_c, 1, 8192
1, 31323, Note_on_c, 0, 56, 0
1, 31326, Note_on_c, 0, 60, 0
1, 31329, Note_on_c, 0, 67, 0
1, 31335, Note_on_c, 1, 55, 0
1, 31339, Note_on_c, 9, 51, 36
1, 31341, Pitch_bend_c, 1, 8192
1, 31346, Pitch_bend_c, 1, 8192
1, 31351, Note_on_c, 9, 51, 0
1, 31353, Pitch_bend_c, 1, 8192
1, 31385, Note_on_c, 9, 35, 63
1, 31390, Note_on_c, 9, 51, 86
1, 31393, Note_on_c, 9, 37, 78
1, 31396, Note_on_c, 9, 64, 88
1, 31409, Note_on_c, 9, 35, 0
1, 31415, Note_on_c, 9, 37, 0
1, 31424, Note_on_c, 9, 51, 0
1, 31432, Note_on_c, 0, 55, 0
1, 31445, Note_on_c, 9, 35, 52
1, 31446, Note_on_c, 0, 68, 74
1, 31446, Note_on_c, 0, 56, 64
1, 31447, Note_on_c, 0, 63, 60
1, 31447, Note_on_c, 1, 55, 105
1, 31448, Note_on_c, 0, 60, 72
1, 31449, Note_on_c, 0, 57, 75
1, 31451, Note_on_c, 9, 51, 50
1, 31461, Control_c, 0, 64, 0
1, 31474, Note_on_c, 0, 57, 0
1, 31474, Note_on_c, 9, 35, 0
1, 31476, Note_on_c, 9, 51, 0
1, 31479, Note_on_c, 0, 56, 0
1, 31479, Note_on_c, 0, 68, 0
1, 31480, Note_on_c, 1, 55, 0
1, 31484, Note_on_c, 0, 60, 0
1, 31485, Note_on_c, 0, 63, 0
1, 31503, Note_on_c, 9, 64, 0
1, 31511, Note_on_c, 9, 51, 106
1, 31546, Note_on_c, 9, 51, 0
1, 31557, Note_on_c, 9, 64, 58
1, 31566, Note_on_c, 0, 67, 57
1, 31568, Note_on_c, 0, 56, 54
1, 31568, Note_on_c, 0, 62, 54
1, 31569, Note_on_c, 0, 59, 50
1, 31569, Note_on_c, 0, 55, 76
1, 31569, Note_on_c, 1, 55, 110
1, 31572, Note_on_c, 9, 37, 81
1, 31572, Note_on_c, 9, 51, 59
1, 31577, Note_on_c, 0, 67, 0
1, 31586, Note_on_c, 9, 64, 0
1, 31588, Note_on_c, 0, 59, 0
1, 31589, Note_on_c, 0, 62, 0
1, 31591, Note_on_c, 0, 55, 0
1, 31598, Note_on_c, 9, 51, 0
1, 31600, Note_on_c, 9, 37, 0
1, 31612, Note_on_c, 0, 56, 0
1, 31614, Note_on_c, 1, 55, 0
1, 31622, Note_on_c, 9, 64, 83
1, 31625, Note_on_c, 9, 35, 61
1, 31635, Note_on_c, 9, 51, 59
1, 31650, Note_on_c, 9, 35, 0
1, 31654, Note_on_c, 9, 51, 0
1, 31677, Note_on_c, 9, 64, 0
1, 31681, Note_on_c, 9, 51, 127
1, 31685, Note_on_c, 9, 35, 52
1, 31688, Note_on_c, 0, 65, 80
1, 31688, Note_on_c, 1, 53, 90
1, 31689, Note_on_c, 0, 58, 69
1, 31690, Note_on_c, 0, 54, 71
1, 31693, Note_on_c, 0, 53, 80
1, 31695, Note_on_c, 0, 60, 71
1, 31705, Note_on_c, 0, 63, 28
1, 31719, Note_on_c, 9, 35, 0
1, 31772, Note_on_c, 9, 51, 0
1, 31789, Control_c, 0, 64, 127
1, 31801, Note_on_c, 9, 63, 53
1, 31803, Note_on_c, 9, 62, 57
1, 31810, Note_on_c, 9, 51, 36
1, 31814, Note_on_c, 9, 37, 79
1, 31824, Note_on_c, 9, 51, 0
1, 31830, Note_on_c, 9, 62, 0
1, 31837, Note_on_c, 9, 37, 0
1, 31838, Note_on_c, 9, 63, 0
1, 31863, Note_on_c, 9, 51, 115
1, 31865, Note_on_c, 9, 35, 58
1, 31868, Note_on_c, 9, 62, 58
1, 31870, Note_on_c, 1, 48, 53
1, 31871, Note_on_c, 1, 53, 0
1, 31871, Note_on_c, 9, 63, 64
1, 31883, Note_on_c, 1, 48, 0
1, 31889, Note_on_c, 9, 35, 0
1, 31893, Note_on_c, 9, 51, 0
1, 31904, Note_on_c, 9, 62, 0
1, 31920, Note_on_c, 1, 41, 77
1, 31925, Note_on_c, 9, 35, 52
1, 31936, Note_on_c, 9, 37, 83
1, 31939, Note_on_c, 9, 63, 0
1, 31953, Note_on_c, 9, 35, 0
1, 31962, Note_on_c, 9, 37, 0
1, 31985, Note_on_c, 9, 35, 53
1, 31993, Note_on_c, 9, 51, 92
1, 32014, Note_on_c, 9, 35, 0
1, 32030, Note_on_c, 9, 51, 0
1, 32034, Note_on_c, 0, 65, 0
1, 32038, Note_on_c, 9, 64, 68
1, 32046, Note_on_c, 0, 60, 0
1, 32050, Note_on_c, 0, 53, 0
1, 32052, Note_on_c, 0, 63, 0
1, 32053, Note_on_c, 0, 54, 0
1, 32058, Note_on_c, 9, 51, 23
1, 32064, Note_on_c, 9, 64, 0
1, 32076, Note_on_c, 9, 51, 0
1, 32085, Note_on_c, 0, 58, 0
1, 32105, Note_on_c, 9, 35, 58
1, 32106, Note_on_c, 9, 51, 106
1, 32108, Note_on_c, 9, 64, 94
1, 32120, Note_on_c, 1, 41, 0
1, 32132, Note_on_c, 9, 35, 0
1, 32152, Note_on_c, 1, 31, 81
1, 32163, Note_on_c, 9, 64, 0
1, 32163, Note_on_c, 0, 63, 52
1, 32165, Note_on_c, 9, 35, 53
1, 32167, Note_on_c, 0, 59, 51
1, 32168, Note_on_c, 0, 53, 50
1, 32168, Note_on_c, 0, 58, 39
1, 32169, Control_c, 0, 64, 0
1, 32172, Note_on_c, 9, 37, 80
1, 32175, Note_on_c, 0, 43, 43
1, 32193, Note_on_c, 9, 35, 0
1, 32193, Note_on_c, 9, 51, 0
1, 32196, Note_on_c, 9, 37, 0
1, 32228, Note_on_c, 9, 51, 65
1, 32249, Note_on_c, 9, 51, 0
1, 32269, Note_on_c, 9, 63, 51
1, 32275, Note_on_c, 9, 62, 34
1, 32288, Note_on_c, 1, 31, 0
1, 32289, Note_on_c, 9, 62, 0
1, 32289, Control_c, 0, 64, 127
1, 32296, Note_on_c, 9, 63, 0
1, 32335, Note_on_c, 9, 37, 77
1, 32340, Note_on_c, 1, 31, 80
1, 32341, Note_on_c, 9, 62, 76
1, 32342, Note_on_c, 9, 51, 96
1, 32344, Note_on_c, 9, 63, 70
1, 32345, Note_on_c, 9, 35, 57
1, 32362, Note_on_c, 9, 37, 0
1, 32371, Note_on_c, 9, 35, 0
1, 32373, Note_on_c, 9, 62, 0
1, 32373, Note_on_c, 9, 51, 0
1, 32403, Note_on_c, 0, 43, 0
1, 32405, Note_on_c, 9, 35, 42
1, 32409, Note_on_c, 9, 63, 0
1, 32423, Note_on_c, 1, 31, 0
1, 32434, Note_on_c, 9, 35, 0
1, 32459, Note_on_c, 9, 51, 86
1, 32478, Note_on_c, 0, 53, 0
1, 32479, Note_on_c, 0, 63, 0
1, 32491, Note_on_c, 9, 51, 0
1, 32508, Note_on_c, 9, 64, 73
1, 32513, Note_on_c, 9, 37, 78
1, 32515, Note_on_c, 1, 36, 115
1, 32532, Note_on_c, 9, 51, 38
1, 32533, Note_on_c, 9, 64, 0
1, 32541, Note_on_c, 9, 37, 0
1, 32546, Note_on_c, 9, 51, 0
1, 32571, Note_on_c, 0, 59, 0
1, 32577, Note_on_c, 9, 64, 95
1, 32581, Note_on_c, 9, 51, 62
1, 32585, Note_on_c, 9, 35, 63
1, 32587, Note_on_c, 0, 58, 0
1, 32607, Note_on_c, 9, 51, 0
1, 32613, Note_on_c, 9, 35, 0
1, 32636, Note_on_c, 0, 36, 99
1, 32638, Note_on_c, 9, 64, 0
1, 32638, Note_on_c, 0, 24, 96
1, 32640, Control_c, 0, 64, 0
1, 32640, Note_on_c, 9, 51, 127
1, 32645, Note_on_c, 9, 35, 42
1, 32662, Note_on_c, 0, 24, 0
1, 32676, Note_on_c, 9, 35, 0
1, 32681, Note_on_c, 0, 36, 0
1, 32720, Note_on_c, 9, 51, 0
1, 32758, Note_on_c, 9, 63, 48
1, 32759, Note_on_c, 9, 62, 48
1, 32766, Note_on_c, 9, 51, 127
1, 32770, Note_on_c, 9, 37, 77
1, 32771, Note_on_c, 9, 62, 0
1, 32778, Note_on_c, 9, 63, 0
1, 32796, Note_on_c, 9, 37, 0
1, 32809, Note_on_c, 9, 51, 0
1, 32825, Note_on_c, 9, 35, 40
1, 32826, Note_on_c, 9, 62, 74
1, 32828, Note_on_c, 9, 63, 53
1, 32832, Note_on_c, 9, 51, 59
1, 32851, Note_on_c, 9, 35, 0
1, 32856, Note_on_c, 9, 62, 0
1, 32864, Note_on_c, 9, 51, 0
1, 32871, Note_on_c, 9, 63, 0
1, 32874, Note_on_c, 0, 57, 42
1, 32876, Note_on_c, 0, 69, 55
1, 32882, Note_on_c, 0, 63, 39
1, 32884, Note_on_c, 0, 60, 34
1, 32885, Note_on_c, 9, 35, 53
1, 32892, Note_on_c, 9, 37, 79
1, 32912, Note_on_c, 9, 35, 0
1, 32921, Note_on_c, 0, 63, 0
1, 32921, Note_on_c, 9, 37, 0
1, 32923, Note_on_c, 0, 60, 0
1, 32928, Note_on_c, 0, 69, 0
1, 32934, Note_on_c, 0, 57, 0
1, 32949, Note_on_c, 9, 51, 106
1, 32985, Note_on_c, 9, 51, 0
1, 32998, Note_on_c, 9, 64, 84
1, 33028, Note_on_c, 9, 64, 0
1, 33062, Note_on_c, 9, 51, 92
1, 33063, Note_on_c, 9, 64, 94
1, 33065, Note_on_c, 9, 35, 58
1, 33085, Note_on_c, 9, 51, 0
1, 33093, Note_on_c, 9, 35, 0
1, 33117, Note_on_c, 0, 67, 58
1, 33119, Note_on_c, 9, 37, 83
1, 33120, Note_on_c, 0, 63, 42
1, 33120, Note_on_c, 0, 55, 61
1, 33121, Note_on_c, 0, 60, 47
1, 33125, Note_on_c, 9, 64, 0
1, 33125, Note_on_c, 9, 35, 52
1, 33138, Note_on_c, 1, 50, 81
1, 33144, Note_on_c, 9, 37, 0
1, 33151, Note_on_c, 9, 35, 0
1, 33151, Note_on_c, 0, 60, 0
1, 33158, Note_on_c, 0, 55, 0
1, 33160, Note_on_c, 0, 63, 0
1, 33164, Note_on_c, 1, 50, 0
1, 33164, Note_on_c, 0, 67, 0
1, 33190, Note_on_c, 9, 51, 96
1, 33191, Note_on_c, 0, 55, 46
1, 33192, Note_on_c, 0, 67, 48
1, 33195, Note_on_c, 0, 63, 43
1, 33195, Note_on_c, 0, 60, 47
1, 33207, Note_on_c, 1, 51, 76
1, 33221, Note_on_c, 0, 60, 0
1, 33225, Note_on_c, 0, 63, 0
1, 33226, Note_on_c, 0, 67, 0
1, 33226, Note_on_c, 9, 51, 0
1, 33228, Note_on_c, 0, 55, 0
1, 33239, Note_on_c, 1, 51, 0
1, 33239, Note_on_c, 9, 62, 81
1, 33245, Note_on_c, 9, 63, 62
1, 33256, Note_on_c, 9, 62, 0
1, 33257, Note_on_c, 9, 63, 0
1, 33292, Note_on_c, 9, 37, 79
1, 33305, Note_on_c, 9, 35, 53
1, 33306, Note_on_c, 0, 68, 49
1, 33306, Note_on_c, 0, 56, 48
1, 33308, Note_on_c, 0, 63, 42
1, 33308, Note_on_c, 9, 51, 96
1, 33310, Note_on_c, 0, 66, 38
1, 33311, Note_on_c, 0, 60, 45
1, 33311, Note_on_c, 9, 63, 80
1, 33316, Note_on_c, 9, 62, 81
1, 33322, Note_on_c, 9, 37, 0
1, 33329, Note_on_c, 1, 50, 82
1, 33330, Note_on_c, 0, 60, 0
1, 33330, Note_on_c, 9, 35, 0
1, 33336, Note_on_c, 0, 68, 0
1, 33337, Note_on_c, 9, 51, 0
1, 33340, Note_on_c, 0, 63, 0
1, 33346, Note_on_c, 0, 66, 0
1, 33352, Note_on_c, 0, 56, 0
1, 33363, Note_on_c, 9, 62, 0
1, 33363, Note_on_c, 0, 63, 34
1, 33364, Note_on_c, 0, 57, 50
1, 33365, Note_on_c, 9, 35, 50
1, 33366, Note_on_c, 0, 69, 59
1, 33367, Note_on_c, 0, 60, 48
1, 33380, Note_on_c, 9, 63, 0
1, 33393, Note_on_c, 9, 35, 0
1, 33397, Note_on_c, 0, 69, 0
1, 33398, Note_on_c, 0, 60, 0
1, 33403, Note_on_c, 0, 57, 0
1, 33406, Note_on_c, 0, 63, 0
1, 33425, Note_on_c, 9, 51, 106
1, 33429, Note_on_c, 9, 64, 74
1, 33431, Note_on_c, 0, 69, 52
1, 33435, Note_on_c, 0, 57, 43
1, 33436, Note_on_c, 0, 63, 39
1, 33438, Note_on_c, 0, 60, 47
1, 33457, Note_on_c, 0, 60, 0
1, 33458, Note_on_c, 9, 64, 0
1, 33460, Note_on_c, 9, 51, 0
1, 33460, Note_on_c, 0, 63, 0
1, 33462, Note_on_c, 0, 69, 0
1, 33471, Note_on_c, 0, 57, 0
1, 33485, Note_on_c, 0, 68, 44
1, 33485, Note_on_c, 9, 37, 79
1, 33491, Note_on_c, 9, 51, 39
1, 33492, Note_on_c, 0, 63, 25
1, 33493, Note_on_c, 0, 60, 24
1, 33496, Note_on_c, 0, 56, 31
1, 33515, Note_on_c, 9, 37, 0
1, 33517, Note_on_c, 9, 51, 0
1, 33529, Note_on_c, 0, 60, 0
1, 33530, Note_on_c, 0, 63, 0
1, 33538, Note_on_c, 1, 36, 0
1, 33543, Note_on_c, 0, 68, 0
1, 33545, Note_on_c, 9, 35, 54
1, 33546, Note_on_c, 9, 64, 72
1, 33547, Note_on_c, 9, 51, 38
1, 33568, Note_on_c, 9, 51, 0
1, 33572, Note_on_c, 9, 35, 0
1, 33576, Note_on_c, 9, 64, 0
1, 33588, Note_on_c, 0, 56, 0
1, 33603, Note_on_c, 9, 51, 115
1, 33605, Note_on_c, 0, 55, 50
1, 33605, Note_on_c, 9, 35, 40
1, 33606, Note_on_c, 0, 67, 47
1, 33607, Note_on_c, 0, 63, 39
1, 33607, Note_on_c, 0, 60, 50
1, 33619, Note_on_c, 1, 36, 105
1, 33622, Note_on_c, 1, 50, 0
1, 33637, Note_on_c, 9, 35, 0
1, 33642, Note_on_c, 0, 60, 0
1, 33644, Note_on_c, 0, 63, 0
1, 33645, Note_on_c, 0, 67, 0
1, 33662, Note_on_c, 0, 55, 0
1, 33678, Note_on_c, 9, 51, 0
1, 33716, Note_on_c, 9, 51, 115
1, 33724, Note_on_c, 0, 68, 51
1, 33729, Note_on_c, 0, 63, 40
1, 33730, Note_on_c, 0, 56, 34
1, 33734, Note_on_c, 9, 37, 76
1, 33734, Note_on_c, 9, 62, 74
1, 33736, Note_on_c, 0, 60, 43
1, 33737, Note_on_c, 9, 63, 55
1, 33747, Note_on_c, 0, 66, 20
1, 33748, Note_on_c, 9, 62, 0
1, 33755, Note_on_c, 9, 51, 0
1, 33761, Note_on_c, 9, 63, 0
1, 33764, Note_on_c, 9, 37, 0
1, 33765, Note_on_c, 0, 60, 0
1, 33767, Note_on_c, 0, 66, 0
1, 33772, Note_on_c, 0, 63, 0
1, 33775, Note_on_c, 0, 68, 0
1, 33785, Note_on_c, 9, 35, 60
1, 33787, Note_on_c, 9, 51, 62
1, 33803, Note_on_c, 9, 63, 68
1, 33807, Note_on_c, 9, 62, 66
1, 33808, Note_on_c, 9, 35, 0
1, 33818, Note_on_c, 9, 62, 0
1, 33827, Note_on_c, 0, 56, 0
1, 33833, Note_on_c, 9, 51, 0
1, 33845, Note_on_c, 9, 35, 49
1, 33847, Note_on_c, 9, 63, 0
1, 33848, Note_on_c, 0, 69, 67
1, 33848, Note_on_c, 0, 63, 51
1, 33852, Note_on_c, 0, 60, 61
1, 33854, Note_on_c, 0, 57, 51
1, 33859, Note_on_c, 9, 37, 80
1, 33869, Note_on_c, 9, 35, 0
1, 33887, Note_on_c, 9, 37, 0
1, 33893, Note_on_c, 9, 63, 73
1, 33896, Note_on_c, 9, 62, 46
1, 33902, Note_on_c, 9, 51, 115
1, 33905, Note_on_c, 9, 35, 60
1, 33906, Note_on_c, 0, 60, 0
1, 33907, Note_on_c, 0, 63, 0
1, 33908, Note_on_c, 9, 62, 0
1, 33913, Note_on_c, 0, 69, 0
1, 33933, Note_on_c, 9, 35, 0
1, 33941, Note_on_c, 9, 63, 0
1, 33944, Note_on_c, 0, 57, 0
1, 33963, Note_on_c, 0, 68, 49
1, 33964, Note_on_c, 9, 51, 0
1, 33966, Note_on_c, 1, 50, 95
1, 33967, Note_on_c, 0, 56, 33
1, 33974, Note_on_c, 0, 63, 29
1, 33975, Note_on_c, 0, 60, 32
1, 33978, Note_on_c, 9, 62, 71
1, 33988, Note_on_c, 1, 50, 0
1, 33997, Note_on_c, 0, 60, 0
1, 34001, Note_on_c, 9, 62, 0
1, 34006, Note_on_c, 0, 68, 0
1, 34017, Note_on_c, 0, 63, 0
1, 34022, Note_on_c, 9, 51, 115
1, 34025, Note_on_c, 9, 35, 50
1, 34032, Note_on_c, 1, 51, 85
1, 34036, Note_on_c, 0, 63, 25
1, 34038, Note_on_c, 0, 67, 55
1, 34040, Note_on_c, 0, 56, 0
1, 34040, Note_on_c, 0, 60, 51
1, 34044, Note_on_c, 0, 55, 62
1, 34050, Note_on_c, 9, 35, 0
1, 34061, Note_on_c, 0, 60, 0
1, 34064, Note_on_c, 9, 62, 77
1, 34065, Note_on_c, 9, 63, 37
1, 34066, Note_on_c, 1, 51, 0
1, 34069, Note_on_c, 0, 63, 0
1, 34080, Note_on_c, 0, 67, 0
1, 34085, Note_on_c, 9, 35, 50
1, 34090, Note_on_c, 9, 62, 0
1, 34090, Note_on_c, 9, 37, 74
1, 34103, Note_on_c, 0, 55, 0
1, 34103, Note_on_c, 9, 51, 0
1, 34110, Note_on_c, 9, 63, 0
1, 34114, Note_on_c, 9, 35, 0
1, 34117, Note_on_c, 9, 37, 0
1, 34130, Control_c, 0, 64, 127
1, 34150, Note_on_c, 9, 51, 73
1, 34153, Note_on_c, 1, 50, 101
1, 34156, Note_on_c, 9, 63, 71
1, 34157, Note_on_c, 9, 62, 75
1, 34183, Note_on_c, 9, 51, 0
1, 34187, Note_on_c, 1, 50, 0
1, 34193, Note_on_c, 9, 62, 0
1, 34202, Control_c, 0, 64, 0
1, 34211, Note_on_c, 9, 63, 0
1, 34256, Note_on_c, 9, 62, 80
1, 34259, Note_on_c, 9, 51, 106
1, 34264, Note_on_c, 9, 37, 78
1, 34265, Note_on_c, 9, 35, 49
1, 34278, Note_on_c, 9, 62, 0
1, 34279, Note_on_c, 1, 48, 91
1, 34282, Note_on_c, 0, 67, 66
1, 34292, Note_on_c, 9, 35, 0
1, 34294, Note_on_c, 9, 37, 0
1, 34297, Note_on_c, 9, 51, 0
1, 34304, Note_on_c, 1, 48, 0
1, 34313, Control_c, 0, 64, 127
1, 34322, Note_on_c, 0, 67, 0
1, 34325, Note_on_c, 9, 35, 53
1, 34330, Note_on_c, 1, 36, 0
1, 34339, Note_on_c, 0, 68, 52
1, 34344, Note_on_c, 9, 62, 84
1, 34347, Note_on_c, 1, 44, 74
1, 34355, Note_on_c, 9, 63, 60
1, 34356, Note_on_c, 9, 35, 0
1, 34374, Note_on_c, 9, 51, 86
1, 34375, Note_on_c, 0, 68, 0
1, 34388, Note_on_c, 9, 62, 0
1, 34403, Note_on_c, 0, 72, 80
1, 34409, Note_on_c, 9, 51, 0
1, 34411, Note_on_c, 9, 63, 0
1, 34417, Note_on_c, 1, 44, 0
1, 34430, Note_on_c, 9, 51, 65
1, 34435, Note_on_c, 0, 72, 0
1, 34452, Note_on_c, 9, 37, 81
1, 34454, Note_on_c, 1, 42, 94
1, 34458, Note_on_c, 9, 51, 0
1, 34458, Note_on_c, 9, 63, 67
1, 34459, Note_on_c, 0, 77, 60
1, 34464, Note_on_c, 9, 62, 71
1, 34465, Note_on_c, 9, 64, 73
1, 34476, Note_on_c, 9, 64, 0
1, 34480, Note_on_c, 9, 37, 0
1, 34484, Note_on_c, 9, 62, 0
1, 34489, Note_on_c, 9, 63, 0
1, 34493, Note_on_c, 9, 51, 59
1, 34499, Note_on_c, 0, 77, 0
1, 34505, Note_on_c, 9, 35, 57
1, 34509, Note_on_c, 9, 51, 0
1, 34522, Note_on_c, 0, 79, 81
1, 34530, Note_on_c, 9, 35, 0
1, 34553, Note_on_c, 9, 51, 127
1, 34559, Note_on_c, 1, 42, 0
1, 34563, Note_on_c, 0, 79, 0
1, 34565, Note_on_c, 9, 35, 50
1, 34567, Note_on_c, 9, 49, 56
1, 34571, Note_on_c, 1, 43, 91
1, 34577, Note_on_c, 0, 80, 74
1, 34583, Note_on_c, 0, 65, 62
1, 34583, Note_on_c, 0, 56, 47
1, 34584, Note_on_c, 0, 55, 49
1, 34587, Note_on_c, 0, 60, 45
1, 34593, Control_c, 0, 64, 0
1, 34596, Note_on_c, 9, 35, 0
1, 34621, Note_on_c, 9, 51, 0
1, 34682, Note_on_c, 9, 51, 127
1, 34684, Note_on_c, 0, 80, 0
1, 34689, Control_c, 0, 64, 127
1, 34692, Note_on_c, 9, 62, 56
1, 34695, Note_on_c, 9, 63, 32
1, 34700, Note_on_c, 0, 79, 57
1, 34706, Note_on_c, 9, 37, 77
1, 34710, Note_on_c, 9, 62, 0
1, 34720, Note_on_c, 9, 63, 0
1, 34734, Note_on_c, 9, 37, 0
1, 34745, Note_on_c, 9, 35, 57
1, 34753, Note_on_c, 1, 31, 80
1, 34757, Note_on_c, 9, 63, 76
1, 34761, Note_on_c, 9, 62, 64
1, 34763, Note_on_c, 0, 65, 0
1, 34765, Note_on_c, 9, 51, 0
1, 34766, Note_on_c, 0, 55, 0
1, 34770, Note_on_c, 9, 35, 0
1, 34777, Note_on_c, 0, 60, 0
1, 34780, Note_on_c, 9, 62, 0
1, 34783, Note_on_c, 0, 56, 0
1, 34805, Note_on_c, 9, 35, 58
1, 34806, Note_on_c, 9, 51, 44
1, 34808, Note_on_c, 1, 31, 0
1, 34812, Note_on_c, 0, 65, 43
1, 34812, Note_on_c, 0, 71, 45
1, 34816, Note_on_c, 0, 55, 32
1, 34821, Note_on_c, 0, 56, 27
1, 34821, Note_on_c, 0, 60, 29
1, 34824, Note_on_c, 9, 63, 0
1, 34824, Note_on_c, 9, 51, 0
1, 34829, Note_on_c, 9, 37, 78
1, 34830, Note_on_c, 9, 35, 0
1, 34859, Note_on_c, 9, 37, 0
1, 34862, Note_on_c, 9, 51, 115
1, 34865, Note_on_c, 9, 35, 46
1, 34890, Note_on_c, 0, 71, 0
1, 34893, Note_on_c, 9, 35, 0
1, 34899, Note_on_c, 9, 51, 0
1, 34916, Note_on_c, 0, 65, 0
1, 34917, Note_on_c, 0, 55, 0
1, 34920, Note_on_c, 0, 60, 0
1, 34927, Note_on_c, 1, 31, 94
1, 34935, Note_on_c, 9, 64, 82
1, 34944, Note_on_c, 0, 56, 0
1, 34961, Note_on_c, 0, 79, 0
1, 34965, Note_on_c, 9, 64, 0
1, 34985, Note_on_c, 9, 35, 60
1, 34990, Note_on_c, 9, 51, 82
1, 34997, Note_on_c, 0, 65, 53
1, 35001, Note_on_c, 0, 56, 31
1, 35001, Note_on_c, 0, 67, 39
1, 35001, Note_on_c, 9, 64, 96
1, 35003, Note_on_c, 0, 55, 43
1, 35006, Note_on_c, 0, 60, 36
1, 35009, Note_on_c, 9, 35, 0
1, 35010, Note_on_c, 9, 51, 0
1, 35045, Note_on_c, 9, 35, 79
1, 35059, Note_on_c, 9, 37, 77
1, 35064, Note_on_c, 9, 64, 0
1, 35067, Note_on_c, 9, 49, 0
1, 35072, Note_on_c, 9, 35, 0
1, 35089, Note_on_c, 9, 37, 0
1, 35102, Note_on_c, 9, 51, 115
1, 35103, Note_on_c, 0, 55, 0
1, 35103, Note_on_c, 0, 65, 0
1, 35109, Note_on_c, 0, 60, 0
1, 35124, Note_on_c, 0, 56, 0
1, 35125, Note_on_c, 0, 67, 0
1, 35137, Note_on_c, 9, 51, 0
1, 35165, Control_c, 0, 64, 0
1, 35169, Note_on_c, 9, 63, 56
1, 35171, Note_on_c, 0, 67, 40
1, 35173, Note_on_c, 0, 65, 51
1, 35176, Note_on_c, 9, 62, 51
1, 35177, Note_on_c, 0, 55, 42
1, 35178, Note_on_c, 0, 56, 29
1, 35179, Note_on_c, 0, 60, 37
1, 35180, Control_c, 0, 64, 127
1, 35190, Note_on_c, 9, 62, 0
1, 35199, Note_on_c, 9, 63, 0
1, 35216, Note_on_c, 0, 65, 0
1, 35218, Note_on_c, 9, 51, 115
1, 35224, Note_on_c, 0, 67, 0
1, 35225, Note_on_c, 9, 35, 52
1, 35227, Note_on_c, 0, 60, 0
1, 35228, Note_on_c, 9, 37, 76
1, 35233, Note_on_c, 9, 62, 79
1, 35234, Note_on_c, 0, 55, 0
1, 35239, Note_on_c, 9, 63, 67
1, 35248, Note_on_c, 0, 56, 0
1, 35250, Note_on_c, 9, 51, 0
1, 35251, Note_on_c, 9, 35, 0
1, 35261, Note_on_c, 9, 37, 0
1, 35272, Note_on_c, 1, 55, 118
1, 35285, Note_on_c, 9, 35, 52
1, 35286, Note_on_c, 9, 62, 0
1, 35295, Note_on_c, 9, 63, 0
1, 35308, Note_on_c, 1, 55, 0
1, 35335, Note_on_c, 9, 51, 92
1, 35340, Note_on_c, 1, 55, 95
1, 35354, Note_on_c, 0, 92, 86
1, 35355, Note_on_c, 0, 80, 85
1, 35357, Note_on_c, 0, 87, 85
1, 35358, Note_on_c, 0, 56, 64
1, 35358, Note_on_c, 0, 65, 91
1, 35358, Note_on_c, 0, 60, 79
1, 35359, Note_on_c, 0, 55, 84
1, 35366, Note_on_c, 9, 51, 0
1, 35370, Control_c, 0, 64, 0
1, 35380, Note_on_c, 1, 55, 0
1, 35384, Note_on_c, 9, 35, 0
1, 35401, Note_on_c, 1, 54, 86
1, 35401, Note_on_c, 9, 64, 80
1, 35402, Note_on_c, 9, 51, 41
1, 35406, Note_on_c, 0, 87, 0
1, 35407, Note_on_c, 0, 65, 0
1, 35407, Note_on_c, 0, 55, 0
1, 35407, Note_on_c, 9, 37, 79
1, 35411, Note_on_c, 0, 80, 0
1, 35415, Note_on_c, 0, 60, 0
1, 35415, Note_on_c, 0, 92, 0
1, 35416, Note_on_c, 9, 51, 0
1, 35418, Control_c, 0, 64, 127
1, 35419, Note_on_c, 0, 56, 0
1, 35427, Note_on_c, 9, 64, 0
1, 35436, Note_on_c, 9, 37, 0
1, 35439, Note_on_c, 0, 87, 62
1, 35443, Note_on_c, 0, 55, 72
1, 35443, Note_on_c, 0, 60, 74
1, 35444, Note_on_c, 0, 56, 67
1, 35444, Note_on_c, 0, 91, 73
1, 35445, Note_on_c, 0, 65, 76
1, 35450, Note_on_c, 0, 90, 44
1, 35450, Note_on_c, 0, 79, 52
1, 35462, Note_on_c, 9, 51, 62
1, 35465, Note_on_c, 9, 35, 45
1, 35470, Note_on_c, 9, 64, 83
1, 35471, Note_on_c, 1, 54, 0
1, 35475, Note_on_c, 9, 51, 0
1, 35485, Note_on_c, 0, 65, 0
1, 35488, Note_on_c, 0, 55, 0
1, 35488, Note_on_c, 9, 35, 0
1, 35489, Note_on_c, 0, 87, 0
1, 35492, Note_on_c, 0, 91, 0
1, 35493, Note_on_c, 0, 60, 0
1, 35498, Note_on_c, 0, 90, 0
1, 35504, Note_on_c, 0, 56, 0
1, 35504, Note_on_c, 0, 79, 0
1, 35521, Note_on_c, 9, 51, 115
1, 35524, Note_on_c, 9, 64, 0
1, 35524, Note_on_c, 9, 35, 41
1, 35525, Note_on_c, 9, 35, 49
1, 35527, Note_on_c, 1, 53, 110
1, 35537, Note_on_c, 0, 89, 79
1, 35537, Note_on_c, 0, 77, 74
1, 35538, Note_on_c, 1, 31, 0
1, 35538, Note_on_c, 0, 59, 70
1, 35539, Note_on_c, 0, 63, 78
1, 35539, Note_on_c, 0, 53, 79
1, 35541, Note_on_c, 1, 43, 0
1, 35542, Control_c, 0, 64, 0
1, 35552, Note_on_c, 9, 35, 0
1, 35566, Note_on_c, 9, 35, 0
1, 35573, Note_on_c, 0, 56, 6
1, 35582, Note_on_c, 9, 51, 0
1, 35617, Control_c, 0, 64, 127
1, 35636, Note_on_c, 9, 37, 77
1, 35644, Note_on_c, 9, 63, 56
1, 35648, Note_on_c, 9, 51, 73
1, 35650, Note_on_c, 9, 62, 24
1, 35662, Note_on_c, 9, 62, 0
1, 35662, Note_on_c, 9, 37, 0
1, 35663, Note_on_c, 9, 51, 0
1, 35672, Note_on_c, 9, 63, 0
1, 35704, Note_on_c, 9, 35, 54
1, 35706, Note_on_c, 9, 51, 115
1, 35717, Note_on_c, 9, 62, 87
1, 35720, Note_on_c, 9, 63, 73
1, 35721, Note_on_c, 1, 41, 96
1, 35727, Note_on_c, 9, 35, 0
1, 35747, Note_on_c, 0, 63, 0
1, 35760, Note_on_c, 9, 62, 0
1, 35764, Note_on_c, 9, 35, 44
1, 35770, Note_on_c, 0, 63, 33
1, 35770, Note_on_c, 9, 37, 74
1, 35789, Note_on_c, 9, 63, 0
1, 35797, Note_on_c, 9, 51, 0
1, 35798, Note_on_c, 9, 35, 0
1, 35800, Note_on_c, 9, 37, 0
1, 35838, Note_on_c, 9, 51, 77
1, 35856, Note_on_c, 0, 59, 0
1, 35858, Note_on_c, 9, 51, 0
1, 35864, Note_on_c, 0, 53, 0
1, 35870, Note_on_c, 0, 63, 0
1, 35880, Note_on_c, 0, 89, 0
1, 35893, Note_on_c, 9, 64, 87
1, 35902, Note_on_c, 0, 77, 0
1, 35902, Note_on_c, 0, 56, 0
1, 35923, Note_on_c, 9, 64, 0
1, 35944, Note_on_c, 9, 35, 45
1, 35944, Note_on_c, 9, 51, 96
1, 35959, Note_on_c, 9, 64, 84
1, 35970, Note_on_c, 9, 35, 0
1, 35972, Note_on_c, 1, 39, 55
1, 35978, Note_on_c, 9, 51, 0
1, 35978, Note_on_c, 1, 41, 0
1, 35994, Note_on_c, 1, 39, 0
1, 36000, Note_on_c, 0, 87, 48
1, 36003, Note_on_c, 0, 59, 47
1, 36003, Note_on_c, 0, 63, 44
1, 36004, Note_on_c, 9, 35, 52
1, 36008, Control_c, 0, 64, 0
1, 36010, Note_on_c, 0, 53, 32
1, 36010, Note_on_c, 0, 56, 26
1, 36011, Note_on_c, 9, 64, 0
1, 36011, Note_on_c, 0, 75, 34
1, 36012, Note_on_c, 1, 43, 89
1, 36012, Note_on_c, 9, 37, 76
1, 36014, Note_on_c, 0, 83, 38
1, 36027, Note_on_c, 9, 51, 21
1, 36034, Note_on_c, 9, 35, 0
1, 36036, Note_on_c, 9, 51, 0
1, 36043, Note_on_c, 9, 37, 0
1, 36059, Control_c, 0, 64, 127
1, 36066, Note_on_c, 9, 51, 96
1, 36108, Note_on_c, 0, 83, 0
1, 36109, Note_on_c, 0, 59, 0
1, 36110, Note_on_c, 0, 87, 0
1, 36111, Note_on_c, 0, 63, 0
1, 36124, Note_on_c, 0, 75, 0
1, 36126, Note_on_c, 0, 53, 0
1, 36129, Note_on_c, 9, 63, 52
1, 36129, Note_on_c, 9, 62, 60
1, 36137, Note_on_c, 0, 56, 0
1, 36156, Note_on_c, 9, 62, 0
1, 36160, Note_on_c, 9, 63, 0
1, 36169, Note_on_c, 9, 51, 0
1, 36184, Note_on_c, 9, 35, 50
1, 36188, Note_on_c, 9, 51, 82
1, 36190, Note_on_c, 9, 62, 67
1, 36192, Note_on_c, 9, 37, 75
1, 36195, Note_on_c, 9, 63, 63
1, 36208, Note_on_c, 9, 35, 0
1, 36219, Note_on_c, 9, 37, 0
1, 36220, Note_on_c, 9, 51, 0
1, 36237, Note_on_c, 9, 62, 0
1, 36242, Note_on_c, 0, 43, 49
1, 36242, Note_on_c, 9, 51, 41
1, 36244, Note_on_c, 9, 35, 47
1, 36249, Note_on_c, 1, 43, 0
1, 36249, Note_on_c, 9, 63, 0
1, 36254, Note_on_c, 1, 35, 90
1, 36273, Note_on_c, 9, 35, 0
1, 36282, Note_on_c, 9, 51, 0
1, 36304, Note_on_c, 9, 35, 46
1, 36311, Note_on_c, 9, 51, 68
1, 36326, Note_on_c, 0, 43, 0
1, 36335, Note_on_c, 9, 35, 0
1, 36335, Note_on_c, 9, 51, 0
1, 36361, Note_on_c, 9, 51, 106
1, 36361, Note_on_c, 9, 64, 72
1, 36376, Note_on_c, 9, 37, 76
1, 36387, Note_on_c, 9, 64, 0
1, 36401, Note_on_c, 9, 51, 0
1, 36405, Note_on_c, 9, 37, 0
1, 36416, Note_on_c, 1, 35, 0
1, 36423, Note_on_c, 9, 51, 50
1, 36424, Note_on_c, 9, 35, 42
1, 36430, Note_on_c, 1, 53, 0
1, 36432, Note_on_c, 9, 64, 71
1, 36438, Note_on_c, 1, 36, 101
1, 36448, Note_on_c, 9, 51, 0
1, 36450, Note_on_c, 9, 35, 0
1, 36461, Note_on_c, 9, 64, 0
1, 36479, Note_on_c, 9, 51, 127
1, 36482, Note_on_c, 0, 43, 95
1, 36483, Note_on_c, 0, 36, 94
1, 36484, Note_on_c, 9, 35, 50
1, 36498, Control_c, 0, 64, 0
1, 36508, Note_on_c, 0, 43, 0
1, 36511, Note_on_c, 9, 35, 0
1, 36515, Note_on_c, 0, 36, 0
1, 36564, Note_on_c, 9, 51, 0
1, 36597, Note_on_c, 9, 63, 67
1, 36605, Note_on_c, 0, 63, 53
1, 36606, Note_on_c, 9, 51, 115
1, 36607, Note_on_c, 0, 58, 48
1, 36607, Note_on_c, 9, 62, 40
1, 36610, Note_on_c, 0, 53, 48
1, 36613, Note_on_c, 9, 37, 79
1, 36619, Note_on_c, 9, 62, 0
1, 36623, Note_on_c, 9, 63, 0
1, 36627, Note_on_c, 0, 53, 0
1, 36637, Note_on_c, 9, 37, 0
1, 36641, Note_on_c, 0, 63, 0
1, 36642, Note_on_c, 0, 58, 0
1, 36664, Note_on_c, 9, 35, 49
1, 36675, Note_on_c, 9, 63, 74
1, 36680, Note_on_c, 9, 62, 70
1, 36682, Note_on_c, 9, 51, 0
1, 36687, Note_on_c, 9, 35, 0
1, 36715, Note_on_c, 9, 62, 0
1, 36723, Note_on_c, 9, 51, 65
1, 36724, Note_on_c, 0, 65, 60
1, 36724, Note_on_c, 9, 35, 41
1, 36725, Note_on_c, 0, 55, 60
1, 36729, Note_on_c, 0, 60, 51
1, 36732, Note_on_c, 9, 63, 0
1, 36735, Note_on_c, 9, 37, 77
1, 36744, Note_on_c, 9, 51, 0
1, 36750, Note_on_c, 0, 65, 0
1, 36751, Note_on_c, 0, 55, 0
1, 36754, Note_on_c, 9, 35, 0
1, 36754, Note_on_c, 0, 60, 0
1, 36765, Note_on_c, 9, 37, 0
1, 36779, Note_on_c, 9, 63, 69
1, 36781, Note_on_c, 9, 51, 127
1, 36781, Note_on_c, 9, 62, 51
1, 36792, Note_on_c, 9, 62, 0
1, 36812, Note_on_c, 9, 63, 0
1, 36839, Note_on_c, 0, 63, 42
1, 36843, Note_on_c, 0, 58, 34
1, 36849, Note_on_c, 0, 53, 22
1, 36849, Note_on_c, 1, 48, 99
1, 36862, Note_on_c, 9, 51, 0
1, 36863, Note_on_c, 0, 53, 0
1, 36872, Note_on_c, 1, 48, 0
1, 36876, Note_on_c, 0, 58, 0
1, 36884, Note_on_c, 0, 63, 0
1, 36904, Note_on_c, 9, 35, 53
1, 36911, Note_on_c, 9, 51, 50
1, 36915, Note_on_c, 0, 55, 51
1, 36918, Note_on_c, 0, 60, 47
1, 36918, Note_on_c, 0, 65, 44
1, 36926, Note_on_c, 9, 51, 0
1, 36926, Note_on_c, 9, 35, 0
1, 36937, Note_on_c, 0, 55, 0
1, 36941, Note_on_c, 0, 65, 0
1, 36944, Note_on_c, 0, 60, 0
1, 36964, Note_on_c, 9, 35, 40
1, 36965, Note_on_c, 9, 51, 92
1, 36970, Note_on_c, 9, 37, 78
1, 36976, Note_on_c, 1, 48, 115
1, 36994, Note_on_c, 9, 35, 0
1, 36998, Note_on_c, 9, 37, 0
1, 37021, Note_on_c, 0, 66, 57
1, 37023, Note_on_c, 0, 56, 67
1, 37027, Note_on_c, 0, 61, 52
1, 37037, Note_on_c, 9, 51, 0
1, 37063, Note_on_c, 0, 61, 0
1, 37065, Note_on_c, 0, 66, 0
1, 37068, Note_on_c, 0, 56, 0
1, 37083, Note_on_c, 9, 51, 44
1, 37089, Note_on_c, 0, 65, 30
1, 37089, Note_on_c, 9, 62, 66
1, 37091, Note_on_c, 9, 63, 77
1, 37096, Note_on_c, 0, 60, 31
1, 37097, Note_on_c, 0, 55, 19
1, 37102, Note_on_c, 9, 62, 0
1, 37105, Note_on_c, 9, 51, 0
1, 37123, Note_on_c, 9, 63, 0
1, 37141, Note_on_c, 0, 65, 0
1, 37144, Note_on_c, 9, 35, 49
1, 37146, Note_on_c, 9, 51, 96
1, 37150, Note_on_c, 0, 60, 0
1, 37151, Note_on_c, 0, 55, 0
1, 37158, Note_on_c, 9, 37, 80
1, 37168, Note_on_c, 9, 62, 84
1, 37169, Note_on_c, 9, 35, 0
1, 37173, Note_on_c, 9, 63, 81
1, 37184, Note_on_c, 9, 37, 0
1, 37190, Note_on_c, 9, 62, 0
1, 37204, Note_on_c, 9, 35, 40
1, 37205, Note_on_c, 0, 58, 48
1, 37207, Note_on_c, 9, 63, 0
1, 37207, Note_on_c, 0, 63, 34
1, 37208, Note_on_c, 0, 53, 40
1, 37215, Note_on_c, 9, 51, 0
1, 37234, Note_on_c, 9, 35, 0
1, 37257, Note_on_c, 9, 63, 75
1, 37258, Note_on_c, 9, 62, 68
1, 37273, Note_on_c, 9, 51, 96
1, 37289, Note_on_c, 9, 62, 0
1, 37309, Note_on_c, 9, 51, 0
1, 37313, Note_on_c, 9, 63, 0
1, 37329, Note_on_c, 9, 37, 63
1, 37339, Note_on_c, 9, 62, 57
1, 37357, Note_on_c, 9, 37, 0
1, 37360, Note_on_c, 9, 62, 0
1, 37384, Note_on_c, 9, 35, 50
1, 37389, Note_on_c, 9, 51, 77
1, 37409, Note_on_c, 9, 35, 0
1, 37414, Note_on_c, 9, 51, 0
1, 37424, Note_on_c, 9, 63, 67
1, 37426, Note_on_c, 9, 62, 66
1, 37437, Note_on_c, 9, 62, 0
1, 37444, Note_on_c, 9, 35, 50
1, 37447, Note_on_c, 9, 51, 96
1, 37470, Note_on_c, 1, 36, 0
1, 37471, Note_on_c, 9, 63, 0
1, 37472, Note_on_c, 9, 35, 0
1, 37491, Note_on_c, 0, 53, 0
1, 37503, Note_on_c, 0, 63, 0
1, 37516, Note_on_c, 0, 58, 0
1, 37520, Note_on_c, 9, 51, 0
1, 37568, Note_on_c, 9, 51, 73
1, 37573, Note_on_c, 9, 37, 64
1, 37575, Note_on_c, 1, 36, 108
1, 37586, Note_on_c, 9, 51, 0
1, 37611, Note_on_c, 9, 37, 0
1, 37617, Note_on_c, 1, 48, 0
1, 37624, Note_on_c, 9, 35, 50
1, 37627, Note_on_c, 9, 51, 115
1, 37645, Note_on_c, 9, 35, 0
1, 37684, Note_on_c, 9, 35, 56
1, 37689, Note_on_c, 0, 51, 51
1, 37691, Note_on_c, 0, 60, 48
1, 37696, Note_on_c, 0, 55, 59
1, 37697, Note_on_c, 9, 37, 70
1, 37714, Note_on_c, 9, 35, 0
1, 37714, Note_on_c, 9, 51, 0
1, 37727, Note_on_c, 0, 51, 0
1, 37730, Note_on_c, 0, 55, 0
1, 37731, Note_on_c, 9, 37, 0
1, 37734, Note_on_c, 0, 60, 0
1, 37748, Note_on_c, 9, 51, 68
1, 37772, Note_on_c, 9, 51, 0
1, 37811, Note_on_c, 9, 51, 33
1, 37811, Note_on_c, 9, 62, 56
1, 37819, Note_on_c, 9, 51, 0
1, 37822, Note_on_c, 9, 62, 0
1, 37863, Note_on_c, 9, 51, 127
1, 37864, Note_on_c, 9, 35, 56
1, 37886, Note_on_c, 9, 63, 46
1, 37887, Note_on_c, 9, 62, 63
1, 37891, Note_on_c, 9, 35, 0
1, 37897, Note_on_c, 1, 36, 0
1, 37898, Note_on_c, 9, 62, 0
1, 37899, Note_on_c, 9, 51, 0
1, 37900, Note_on_c, 9, 63, 0
1, 37928, Note_on_c, 1, 36, 83
1, 37930, Note_on_c, 9, 37, 69
1, 37961, Note_on_c, 9, 37, 0
1, 37981, Note_on_c, 9, 51, 127
1, 37984, Note_on_c, 9, 35, 54
1, 37996, Note_on_c, 0, 55, 36
1, 38012, Note_on_c, 0, 55, 0
1, 38012, Note_on_c, 9, 35, 0
1, 38040, Note_on_c, 9, 62, 58
1, 38044, Note_on_c, 9, 63, 26
1, 38052, Note_on_c, 9, 62, 0
1, 38053, Note_on_c, 0, 60, 46
1, 38056, Note_on_c, 9, 63, 0
1, 38063, Note_on_c, 9, 51, 0
1, 38072, Note_on_c, 1, 36, 0
1, 38104, Note_on_c, 9, 35, 46
1, 38108, Note_on_c, 9, 51, 92
1, 38109, Note_on_c, 9, 37, 69
1, 38109, Note_on_c, 9, 63, 62
1, 38112, Note_on_c, 9, 62, 74
1, 38114, Note_on_c, 0, 60, 0
1, 38114, Note_on_c, 0, 63, 63
1, 38121, Note_on_c, 9, 51, 0
1, 38121, Note_on_c, 1, 36, 95
1, 38130, Note_on_c, 9, 35, 0
1, 38137, Note_on_c, 9, 62, 0
1, 38138, Note_on_c, 0, 63, 0
1, 38145, Note_on_c, 9, 37, 0
1, 38158, Note_on_c, 9, 63, 0
1, 38171, Note_on_c, 0, 65, 57
1, 38171, Note_on_c, 0, 67, 61
1, 38176, Note_on_c, 1, 36, 0
1, 38181, Note_on_c, 0, 65, 0
1, 38183, Note_on_c, 9, 51, 47
1, 38199, Note_on_c, 9, 51, 0
1, 38215, Note_on_c, 0, 67, 0
1, 38224, Note_on_c, 9, 35, 50
1, 38230, Note_on_c, 0, 68, 69
1, 38234, Note_on_c, 9, 51, 77
1, 38243, Note_on_c, 1, 36, 75
1, 38251, Note_on_c, 9, 35, 0
1, 38256, Note_on_c, 1, 36, 0
1, 38261, Note_on_c, 9, 51, 0
1, 38265, Note_on_c, 0, 68, 0
1, 38285, Note_on_c, 9, 64, 96
1, 38288, Note_on_c, 0, 72, 70
1, 38292, Note_on_c, 9, 37, 69
1, 38293, Note_on_c, 1, 44, 77
1, 38293, Note_on_c, 9, 51, 96
1, 38313, Note_on_c, 9, 51, 0
1, 38313, Note_on_c, 9, 64, 0
1, 38319, Note_on_c, 9, 37, 0
1, 38334, Note_on_c, 0, 72, 0
1, 38344, Note_on_c, 9, 35, 54
1, 38345, Note_on_c, 9, 51, 65
1, 38354, Note_on_c, 0, 76, 76
1, 38357, Note_on_c, 9, 64, 103
1, 38368, Note_on_c, 9, 35, 0
1, 38384, Note_on_c, 9, 51, 0
1, 38386, Note_on_c, 1, 44, 0
1, 38392, Note_on_c, 0, 76, 0
1, 38404, Note_on_c, 9, 35, 57
1, 38410, Note_on_c, 9, 64, 0
1, 38414, Note_on_c, 1, 43, 70
1, 38415, Note_on_c, 0, 79, 77
1, 38417, Note_on_c, 0, 60, 36
1, 38421, Note_on_c, 0, 56, 36
1, 38424, Note_on_c, 0, 55, 36
1, 38431, Note_on_c, 9, 35, 0
1, 38472, Note_on_c, 0, 79, 0
1, 38508, Note_on_c, 0, 55, 0
1, 38510, Note_on_c, 0, 76, 42
1, 38512, Note_on_c, 0, 60, 0
1, 38516, Note_on_c, 0, 56, 0
1, 38525, Note_on_c, 9, 75, 75
1, 38529, Note_on_c, 9, 62, 60
1, 38530, Note_on_c, 9, 63, 46
1, 38545, Note_on_c, 9, 75, 0
1, 38547, Note_on_c, 9, 62, 0
1, 38549, Note_on_c, 0, 76, 0
1, 38558, Note_on_c, 9, 63, 0
1, 38574, Note_on_c, 1, 43, 0
1, 38582, Note_on_c, 1, 38, 78
1, 38583, Note_on_c, 0, 77, 60
1, 38584, Note_on_c, 9, 35, 63
1, 38595, Note_on_c, 0, 62, 34
1, 38596, Note_on_c, 0, 60, 36
1, 38599, Note_on_c, 9, 62, 69
1, 38600, Note_on_c, 9, 63, 56
1, 38606, Note_on_c, 0, 62, 0
1, 38608, Note_on_c, 9, 35, 0
1, 38615, Note_on_c, 0, 60, 0
1, 38626, Note_on_c, 0, 77, 0
1, 38628, Note_on_c, 9, 62, 0
1, 38642, Note_on_c, 9, 63, 0
1, 38644, Note_on_c, 9, 35, 52
1, 38653, Note_on_c, 0, 79, 74
1, 38655, Note_on_c, 9, 75, 72
1, 38673, Note_on_c, 9, 35, 0
1, 38680, Note_on_c, 9, 75, 0
1, 38705, Note_on_c, 9, 51, 96
1, 38715, Note_on_c, 0, 79, 0
1, 38739, Note_on_c, 0, 80, 58
1, 38747, Note_on_c, 9, 51, 0
1, 38763, Note_on_c, 1, 38, 0
1, 38764, Note_on_c, 9, 64, 67
1, 38776, Note_on_c, 1, 31, 81
1, 38788, Note_on_c, 0, 80, 0
1, 38798, Note_on_c, 9, 64, 0
1, 38821, Note_on_c, 0, 62, 52
1, 38823, Note_on_c, 0, 82, 68
1, 38824, Note_on_c, 9, 35, 61
1, 38827, Note_on_c, 9, 51, 96
1, 38829, Note_on_c, 0, 60, 40
1, 38830, Note_on_c, 9, 64, 62
1, 38838, Note_on_c, 0, 62, 0
1, 38844, Note_on_c, 0, 60, 0
1, 38849, Note_on_c, 9, 35, 0
1, 38866, Note_on_c, 0, 82, 0
1, 38867, Note_on_c, 9, 51, 0
1, 38872, Note_on_c, 9, 64, 0
1, 38884, Note_on_c, 9, 35, 52
1, 38892, Note_on_c, 9, 75, 72
1, 38907, Note_on_c, 0, 84, 72
1, 38918, Note_on_c, 9, 35, 0
1, 38919, Note_on_c, 9, 75, 0
1, 38943, Note_on_c, 9, 51, 68
1, 38977, Note_on_c, 0, 84, 0
1, 38980, Note_on_c, 9, 51, 0
1, 39001, Note_on_c, 0, 79, 39
1, 39008, Note_on_c, 9, 62, 58
1, 39009, Note_on_c, 9, 63, 38
1, 39029, Note_on_c, 9, 62, 0
1, 39036, Note_on_c, 9, 63, 0
1, 39042, Note_on_c, 0, 79, 0
1, 39061, Note_on_c, 1, 31, 0
1, 39064, Note_on_c, 9, 35, 58
1, 39071, Note_on_c, 9, 62, 48
1, 39072, Note_on_c, 9, 75, 67
1, 39072, Note_on_c, 9, 63, 54
1, 39075, Note_on_c, 0, 79, 36
1, 39076, Note_on_c, 1, 38, 80
1, 39088, Note_on_c, 9, 35, 0
1, 39094, Note_on_c, 0, 79, 0
1, 39095, Note_on_c, 9, 62, 0
1, 39100, Note_on_c, 9, 75, 0
1, 39106, Note_on_c, 9, 63, 0
1, 39124, Note_on_c, 9, 35, 52
1, 39152, Note_on_c, 9, 35, 0
1, 39176, Note_on_c, 9, 51, 106
1, 39184, Note_on_c, 9, 35, 53
1, 39192, Note_on_c, 0, 62, 32
1, 39194, Note_on_c, 0, 60, 40
1, 39209, Note_on_c, 9, 51, 0
1, 39210, Note_on_c, 0, 62, 0
1, 39213, Note_on_c, 9, 35, 0
1, 39217, Note_on_c, 0, 60, 0
1, 39233, Note_on_c, 9, 51, 86
1, 39249, Note_on_c, 1, 44, 92
1, 39251, Note_on_c, 9, 64, 71
1, 39253, Note_on_c, 1, 38, 0
1, 39259, Note_on_c, 9, 75, 72
1, 39267, Note_on_c, 9, 64, 0
1, 39279, Note_on_c, 9, 51, 0
1, 39287, Note_on_c, 9, 75, 0
1, 39304, Note_on_c, 9, 35, 58
1, 39308, Note_on_c, 9, 64, 96
1, 39331, Note_on_c, 9, 35, 0
1, 39346, Note_on_c, 9, 64, 0
1, 39364, Note_on_c, 9, 35, 53
1, 39367, Note_on_c, 9, 64, 91
1, 39370, Note_on_c, 9, 51, 96
1, 39374, Note_on_c, 0, 60, 35
1, 39374, Note_on_c, 0, 62, 34
1, 39383, Note_on_c, 0, 56, 18
1, 39392, Note_on_c, 0, 62, 0
1, 39392, Note_on_c, 9, 35, 0
1, 39399, Note_on_c, 0, 60, 0
1, 39418, Note_on_c, 0, 56, 0
1, 39422, Note_on_c, 9, 64, 0
1, 39425, Note_on_c, 9, 51, 0
1, 39486, Note_on_c, 9, 62, 36
1, 39488, Note_on_c, 9, 63, 15
1, 39495, Note_on_c, 9, 75, 74
1, 39508, Note_on_c, 9, 63, 0
1, 39512, Note_on_c, 9, 62, 0
1, 39522, Note_on_c, 9, 75, 0
1, 39535, Note_on_c, 1, 44, 0
1, 39543, Note_on_c, 9, 51, 106
1, 39544, Note_on_c, 9, 35, 57
1, 39547, Note_on_c, 1, 43, 78
1, 39549, Note_on_c, 9, 62, 61
1, 39551, Note_on_c, 9, 63, 63
1, 39565, Note_on_c, 0, 62, 44
1, 39565, Note_on_c, 0, 60, 45
1, 39570, Note_on_c, 9, 35, 0
1, 39576, Note_on_c, 0, 62, 0
1, 39578, Note_on_c, 9, 51, 0
1, 39583, Note_on_c, 0, 60, 0
1, 39586, Note_on_c, 9, 62, 0
1, 39604, Note_on_c, 9, 35, 42
1, 39608, Note_on_c, 9, 63, 0
1, 39613, Note_on_c, 9, 75, 74
1, 39633, Note_on_c, 9, 35, 0
1, 39640, Note_on_c, 9, 75, 0
1, 39655, Note_on_c, 9, 51, 106
1, 39693, Note_on_c, 9, 51, 0
1, 39706, Note_on_c, 1, 43, 0
1, 39719, Note_on_c, 1, 38, 89
1, 39723, Note_on_c, 0, 62, 35
1, 39724, Note_on_c, 9, 64, 101
1, 39726, Note_on_c, 0, 60, 32
1, 39734, Note_on_c, 0, 56, 23
1, 39737, Note_on_c, 0, 55, 22
1, 39743, Note_on_c, 0, 62, 0
1, 39749, Note_on_c, 0, 60, 0
1, 39749, Note_on_c, 0, 55, 0
1, 39759, Note_on_c, 0, 56, 0
1, 39783, Note_on_c, 9, 64, 0
1, 39784, Note_on_c, 9, 35, 63
1, 39812, Note_on_c, 9, 35, 0
1, 39837, Note_on_c, 0, 91, 78
1, 39839, Note_on_c, 9, 75, 76
1, 39844, Note_on_c, 9, 35, 42
1, 39867, Note_on_c, 9, 75, 0
1, 39875, Note_on_c, 9, 35, 0
1, 39886, Note_on_c, 0, 91, 0
1, 39900, Note_on_c, 0, 92, 74
1, 39910, Note_on_c, 9, 51, 106
1, 39911, Note_on_c, 0, 60, 40
1, 39912, Note_on_c, 0, 62, 34
1, 39923, Note_on_c, 0, 62, 0
1, 39927, Note_on_c, 0, 60, 0
1, 39932, Note_on_c, 0, 92, 0
1, 39956, Note_on_c, 0, 94, 60
1, 39967, Note_on_c, 9, 51, 0
1, 39969, Note_on_c, 9, 62, 51
1, 39980, Note_on_c, 9, 62, 0
1, 39990, Note_on_c, 0, 94, 0
1, 40010, Note_on_c, 1, 38, 0
1, 40011, Note_on_c, 9, 75, 77
1, 40022, Note_on_c, 1, 35, 83
1, 40024, Note_on_c, 0, 96, 59
1, 40024, Note_on_c, 9, 35, 40
1, 40026, Note_on_c, 0, 62, 39
1, 40027, Note_on_c, 0, 98, 61
1, 40029, Note_on_c, 0, 60, 31
1, 40029, Note_on_c, 9, 63, 71
1, 40030, Note_on_c, 9, 62, 74
1, 40037, Note_on_c, 0, 62, 0
1, 40037, Note_on_c, 9, 75, 0
1, 40038, Note_on_c, 0, 98, 0
1, 40043, Note_on_c, 0, 60, 0
1, 40046, Note_on_c, 0, 96, 0
1, 40050, Note_on_c, 9, 35, 0
1, 40080, Note_on_c, 0, 99, 56
1, 40084, Note_on_c, 9, 35, 53
1, 40086, Note_on_c, 9, 62, 0
1, 40102, Note_on_c, 9, 63, 0
1, 40106, Note_on_c, 0, 99, 0
1, 40111, Note_on_c, 9, 35, 0
1, 40134, Note_on_c, 0, 60, 64
1, 40135, Note_on_c, 0, 62, 68
1, 40137, Note_on_c, 0, 56, 44
1, 40145, Note_on_c, 9, 51, 115
1, 40155, Note_on_c, 0, 100, 53
1, 40167, Note_on_c, 0, 100, 0
1, 40177, Note_on_c, 0, 62, 0
1, 40192, Note_on_c, 1, 35, 0
1, 40194, Note_on_c, 9, 51, 0
1, 40195, Note_on_c, 9, 75, 77
1, 40197, Note_on_c, 0, 60, 0
1, 40200, Note_on_c, 0, 103, 94
1, 40211, Note_on_c, 1, 36, 94
1, 40216, Note_on_c, 9, 64, 32
1, 40218, Note_on_c, 0, 56, 0
1, 40223, Note_on_c, 9, 75, 0
1, 40229, Note_on_c, 9, 64, 0
1, 40240, Note_on_c, 0, 103, 0
1, 40264, Note_on_c, 9, 35, 58
1, 40266, Note_on_c, 0, 102, 71
1, 40268, Note_on_c, 9, 64, 96
1, 40292, Note_on_c, 9, 35, 0
1, 40294, Note_on_c, 0, 102, 0
1, 40300, Note_on_c, 0, 62, 41
1, 40305, Note_on_c, 0, 57, 30
1, 40307, Note_on_c, 0, 51, 49
1, 40315, Note_on_c, 9, 51, 96
1, 40318, Note_on_c, 0, 101, 58
1, 40324, Note_on_c, 9, 35, 52
1, 40331, Note_on_c, 9, 64, 0
1, 40350, Note_on_c, 9, 35, 0
1, 40351, Note_on_c, 0, 51, 0
1, 40355, Note_on_c, 0, 62, 0
1, 40387, Note_on_c, 0, 101, 0
1, 40390, Note_on_c, 0, 98, 42
1, 40404, Note_on_c, 9, 51, 0
1, 40406, Note_on_c, 0, 98, 0
1, 40429, Note_on_c, 0, 57, 0
1, 40431, Note_on_c, 0, 99, 77
1, 40436, Note_on_c, 9, 75, 74
1, 40438, Note_on_c, 9, 63, 40
1, 40444, Note_on_c, 9, 51, 106
1, 40452, Note_on_c, 9, 63, 0
1, 40463, Note_on_c, 9, 75, 0
1, 40501, Note_on_c, 0, 99, 0
1, 40502, Note_on_c, 1, 36, 0
1, 40504, Note_on_c, 9, 35, 53
1, 40506, Note_on_c, 0, 62, 35
1, 40506, Note_on_c, 1, 43, 80
1, 40509, Note_on_c, 0, 57, 46
1, 40509, Note_on_c, 9, 62, 83
1, 40509, Note_on_c, 9, 63, 74
1, 40513, Note_on_c, 9, 51, 0
1, 40524, Note_on_c, 0, 91, 20
1, 40529, Note_on_c, 9, 35, 0
1, 40530, Note_on_c, 0, 62, 0
1, 40531, Note_on_c, 9, 62, 0
1, 40537, Note_on_c, 0, 91, 0
1, 40550, Note_on_c, 9, 63, 0
1, 40558, Note_on_c, 0, 98, 83
1, 40561, Note_on_c, 9, 75, 75
1, 40564, Note_on_c, 9, 35, 50
1, 40573, Note_on_c, 0, 57, 0
1, 40588, Note_on_c, 9, 62, 84
1, 40591, Note_on_c, 9, 75, 0
1, 40592, Note_on_c, 9, 35, 0
1, 40592, Note_on_c, 9, 63, 81
1, 40614, Note_on_c, 0, 98, 0
1, 40615, Note_on_c, 9, 62, 0
1, 40634, Note_on_c, 0, 57, 32
1, 40635, Note_on_c, 0, 91, 55
1, 40645, Note_on_c, 9, 63, 0
1, 40653, Note_on_c, 0, 57, 0
1, 40673, Note_on_c, 0, 91, 0
1, 40685, Note_on_c, 1, 51, 95
1, 40694, Note_on_c, 9, 51, 59
1, 40694, Note_on_c, 9, 62, 36
1, 40706, Note_on_c, 9, 62, 0
1, 40714, Note_on_c, 9, 51, 0
1, 40725, Note_on_c, 0, 91, 69
1, 40736, Note_on_c, 0, 62, 51
1, 40743, Note_on_c, 0, 57, 48
1, 40744, Note_on_c, 9, 51, 96
1, 40744, Note_on_c, 9, 35, 54
1, 40753, Note_on_c, 0, 62, 0
1, 40755, Note_on_c, 1, 43, 0
1, 40764, Note_on_c, 0, 91, 0
1, 40771, Note_on_c, 9, 35, 0
1, 40776, Note_on_c, 0, 57, 0
1, 40799, Note_on_c, 9, 75, 76
1, 40802, Note_on_c, 9, 51, 0
1, 40804, Note_on_c, 9, 35, 40
1, 40811, Note_on_c, 0, 86, 45
1, 40828, Note_on_c, 9, 75, 0
1, 40836, Note_on_c, 9, 35, 0
1, 40853, Note_on_c, 0, 86, 0
1, 40932, Note_on_c, 9, 62, 70
1, 40932, Note_on_c, 9, 63, 43
1, 40945, Note_on_c, 9, 63, 0
1, 40946, Note_on_c, 9, 62, 0
1, 40978, Note_on_c, 9, 51, 115
1, 40982, Note_on_c, 9, 75, 72
1, 40984, Note_on_c, 9, 35, 60
1, 40987, Note_on_c, 1, 43, 84
1, 40996, Note_on_c, 9, 63, 59
1, 40997, Note_on_c, 0, 62, 35
1, 40998, Note_on_c, 9, 62, 64
1, 40999, Note_on_c, 1, 51, 0
1, 41001, Note_on_c, 0, 57, 48
1, 41003, Note_on_c, 0, 51, 25
1, 41007, Note_on_c, 9, 35, 0
1, 41010, Note_on_c, 9, 51, 0
1, 41010, Note_on_c, 9, 75, 0
1, 41013, Note_on_c, 0, 62, 0
1, 41016, Note_on_c, 0, 57, 0
1, 41021, Note_on_c, 0, 51, 0
1, 41043, Note_on_c, 9, 51, 86
1, 41044, Note_on_c, 9, 35, 49
1, 41068, Note_on_c, 9, 35, 0
1, 41075, Note_on_c, 9, 62, 0
1, 41079, Note_on_c, 9, 63, 0
1, 41090, Note_on_c, 9, 51, 0
1, 41104, Note_on_c, 9, 35, 60
1, 41124, Note_on_c, 0, 86, 38
1, 41132, Note_on_c, 9, 35, 0
1, 41138, Note_on_c, 0, 86, 0
1, 41139, Note_on_c, 0, 57, 36
1, 41148, Note_on_c, 1, 43, 0
1, 41158, Note_on_c, 1, 36, 89
1, 41161, Note_on_c, 9, 64, 115
1, 41167, Note_on_c, 0, 57, 0
1, 41168, Note_on_c, 0, 89, 77
1, 41168, Note_on_c, 9, 75, 74
1, 41172, Note_on_c, 0, 77, 62
1, 41197, Note_on_c, 9, 75, 0
1, 41198, Note_on_c, 0, 77, 0
1, 41202, Note_on_c, 0, 89, 0
1, 41204, Note_on_c, 9, 64, 0
1, 41221, Note_on_c, 0, 86, 55
1, 41224, Note_on_c, 9, 35, 50
1, 41229, Note_on_c, 9, 51, 65
1, 41235, Note_on_c, 0, 86, 0
1, 41235, Note_on_c, 0, 57, 35
1, 41235, Note_on_c, 9, 64, 105
1, 41246, Note_on_c, 9, 51, 0
1, 41249, Note_on_c, 9, 35, 0
1, 41259, Note_on_c, 0, 87, 73
1, 41272, Note_on_c, 0, 57, 0
1, 41284, Note_on_c, 9, 35, 50
1, 41294, Note_on_c, 9, 64, 0
1, 41294, Note_on_c, 9, 51, 86
1, 41297, Note_on_c, 0, 87, 0
1, 41310, Note_on_c, 0, 83, 44
1, 41313, Note_on_c, 9, 35, 0
1, 41329, Note_on_c, 0, 83, 0
1, 41332, Note_on_c, 9, 51, 0
1, 41350, Note_on_c, 0, 86, 72
1, 41371, Note_on_c, 0, 57, 31
1, 41390, Note_on_c, 0, 84, 55
1, 41391, Note_on_c, 0, 57, 0
1, 41391, Note_on_c, 9, 51, 96
1, 41395, Note_on_c, 0, 86, 0
1, 41400, Note_on_c, 9, 62, 70
1, 41402, Note_on_c, 9, 75, 75
1, 41403, Note_on_c, 9, 63, 51
1, 41418, Note_on_c, 0, 84, 0
1, 41429, Note_on_c, 9, 75, 0
1, 41430, Note_on_c, 9, 62, 0
1, 41430, Note_on_c, 0, 79, 54
1, 41434, Note_on_c, 9, 63, 0
1, 41442, Note_on_c, 9, 51, 0
1, 41454, Note_on_c, 0, 79, 0
1, 41464, Note_on_c, 9, 35, 49
1, 41470, Note_on_c, 1, 36, 0
1, 41473, Note_on_c, 1, 43, 95
1, 41473, Note_on_c, 9, 62, 60
1, 41474, Note_on_c, 9, 63, 69
1, 41491, Note_on_c, 9, 35, 0
1, 41509, Note_on_c, 9, 62, 0
1, 41524, Note_on_c, 9, 63, 0
1, 41524, Note_on_c, 9, 35, 53
1, 41527, Note_on_c, 9, 75, 77
1, 41554, Note_on_c, 9, 75, 0
1, 41555, Note_on_c, 9, 35, 0
1, 41580, Note_on_c, 9, 51, 86
1, 41600, Note_on_c, 0, 62, 57
1, 41610, Note_on_c, 0, 57, 45
1, 41622, Note_on_c, 0, 57, 0
1, 41623, Note_on_c, 0, 62, 0
1, 41629, Note_on_c, 9, 51, 0
1, 41646, Note_on_c, 1, 51, 94
1, 41654, Note_on_c, 9, 64, 95
1, 41663, Note_on_c, 1, 43, 0
1, 41694, Note_on_c, 9, 64, 0
1, 41699, Note_on_c, 9, 51, 96
1, 41704, Note_on_c, 9, 35, 57
1, 41715, Note_on_c, 9, 64, 90
1, 41729, Note_on_c, 9, 35, 0
1, 41752, Note_on_c, 9, 51, 0
1, 41757, Note_on_c, 9, 64, 0
1, 41764, Note_on_c, 9, 75, 77
1, 41764, Note_on_c, 9, 35, 50
1, 41770, Note_on_c, 0, 62, 57
1, 41775, Note_on_c, 0, 57, 54
1, 41779, Note_on_c, 0, 51, 27
1, 41779, Note_on_c, 9, 64, 88
1, 41792, Note_on_c, 0, 51, 0
1, 41793, Note_on_c, 0, 62, 0
1, 41794, Note_on_c, 9, 75, 0
1, 41795, Note_on_c, 9, 35, 0
1, 41797, Note_on_c, 0, 57, 0
1, 41838, Note_on_c, 9, 64, 0
1, 41893, Note_on_c, 9, 62, 49
1, 41894, Note_on_c, 9, 63, 60
1, 41910, Note_on_c, 9, 62, 0
1, 41922, Note_on_c, 9, 63, 0
1, 41937, Note_on_c, 9, 51, 96
1, 41942, Note_on_c, 9, 75, 74
1, 41944, Note_on_c, 9, 35, 57
1, 41950, Note_on_c, 1, 43, 84
1, 41956, Note_on_c, 0, 62, 56
1, 41957, Note_on_c, 0, 57, 54
1, 41958, Note_on_c, 0, 51, 42
1, 41958, Note_on_c, 9, 62, 83
1, 41961, Note_on_c, 9, 63, 76
1, 41967, Note_on_c, 0, 62, 0
1, 41969, Note_on_c, 9, 35, 0
1, 41973, Note_on_c, 9, 75, 0
1, 41976, Note_on_c, 0, 57, 0
1, 41978, Note_on_c, 0, 51, 0
1, 42004, Note_on_c, 9, 35, 58
1, 42005, Note_on_c, 9, 62, 0
1, 42006, Note_on_c, 9, 51, 0
1, 42006, Note_on_c, 0, 74, 108
1, 42025, Note_on_c, 9, 63, 0
1, 42029, Note_on_c, 9, 35, 0
1, 42046, Note_on_c, 0, 74, 0
1, 42050, Note_on_c, 1, 51, 0
1, 42064, Note_on_c, 9, 35, 46
1, 42066, Note_on_c, 0, 77, 75
1, 42066, Note_on_c, 9, 51, 96
1, 42092, Note_on_c, 9, 35, 0
1, 42114, Note_on_c, 0, 77, 0
1, 42122, Note_on_c, 0, 75, 56
1, 42123, Note_on_c, 9, 51, 0
1, 42125, Note_on_c, 9, 64, 84
1, 42126, Note_on_c, 1, 31, 90
1, 42129, Note_on_c, 9, 75, 74
1, 42158, Note_on_c, 0, 75, 0
1, 42160, Note_on_c, 9, 75, 0
1, 42161, Note_on_c, 1, 43, 0
1, 42164, Note_on_c, 9, 64, 0
1, 42184, Note_on_c, 9, 35, 60
1, 42186, Note_on_c, 0, 72, 65
1, 42188, Note_on_c, 9, 51, 20
1, 42197, Note_on_c, 9, 51, 0
1, 42204, Note_on_c, 0, 60, 33
1, 42208, Note_on_c, 9, 35, 0
1, 42214, Note_on_c, 0, 72, 0
1, 42238, Note_on_c, 0, 60, 0
1, 42240, Note_on_c, 0, 68, 33
1, 42242, Note_on_c, 9, 51, 115
1, 42243, Note_on_c, 9, 59, 60
1, 42244, Note_on_c, 9, 35, 79
1, 42261, Note_on_c, 9, 59, 0
1, 42268, Note_on_c, 9, 35, 0
1, 42293, Note_on_c, 0, 68, 0
1, 42312, Note_on_c, 0, 67, 29
1, 42334, Note_on_c, 0, 67, 0
1, 42353, Note_on_c, 9, 51, 0
1, 42358, Note_on_c, 0, 70, 71
1, 42365, Note_on_c, 9, 75, 77
1, 42368, Note_on_c, 9, 63, 35
1, 42381, Note_on_c, 9, 63, 0
1, 42391, Note_on_c, 9, 75, 0
1, 42419, Note_on_c, 9, 51, 82
1, 42424, Note_on_c, 9, 35, 52
1, 42428, Note_on_c, 1, 43, 88
1, 42431, Note_on_c, 0, 70, 0
1, 42431, Note_on_c, 0, 68, 55
1, 42432, Note_on_c, 9, 63, 69
1, 42434, Note_on_c, 9, 62, 60
1, 42450, Note_on_c, 9, 35, 0
1, 42453, Note_on_c, 9, 62, 0
1, 42471, Note_on_c, 9, 63, 0
1, 42478, Note_on_c, 0, 68, 0
1, 42484, Note_on_c, 9, 35, 52
1, 42494, Note_on_c, 0, 67, 43
1, 42496, Note_on_c, 9, 75, 68
1, 42506, Note_on_c, 9, 51, 0
1, 42522, Note_on_c, 0, 67, 0
1, 42524, Note_on_c, 9, 75, 0
1, 42537, Note_on_c, 9, 51, 115
1, 42583, Note_on_c, 9, 35, 0
1, 42600, Note_on_c, 1, 44, 98
1, 42602, Note_on_c, 1, 43, 0
1, 42603, Note_on_c, 9, 64, 91
1, 42628, Note_on_c, 9, 51, 0
1, 42635, Note_on_c, 9, 64, 0
1, 42656, Note_on_c, 9, 51, 127
1, 42664, Note_on_c, 9, 35, 45
1, 42672, Note_on_c, 0, 62, 58
1, 42687, Note_on_c, 9, 35, 0
1, 42707, Note_on_c, 0, 62, 0
1, 42724, Note_on_c, 9, 35, 49
1, 42725, Note_on_c, 9, 75, 75
1, 42732, Note_on_c, 0, 63, 57
1, 42753, Note_on_c, 9, 75, 0
1, 42756, Note_on_c, 9, 51, 0
1, 42766, Note_on_c, 9, 35, 0
1, 42768, Note_on_c, 0, 63, 0
1, 42780, Note_on_c, 0, 66, 56
1, 42794, Note_on_c, 0, 67, 64
1, 42819, Note_on_c, 0, 66, 0
1, 42823, Note_on_c, 0, 67, 0
1, 42844, Note_on_c, 9, 63, 63
1, 42845, Note_on_c, 9, 59, 64
1, 42846, Note_on_c, 0, 70, 68
1, 42857, Note_on_c, 9, 59, 0
1, 42859, Note_on_c, 9, 63, 0
1, 42896, Note_on_c, 9, 75, 78
1, 42897, Note_on_c, 0, 70, 0
1, 42901, Note_on_c, 1, 44, 0
1, 42904, Note_on_c, 9, 35, 44
1, 42905, Note_on_c, 1, 43, 88
1, 42912, Note_on_c, 9, 63, 75
1, 42915, Note_on_c, 0, 65, 27
1, 42926, Note_on_c, 9, 75, 0
1, 42928, Note_on_c, 0, 65, 0
1, 42931, Note_on_c, 9, 35, 0
1, 42964, Note_on_c, 9, 35, 47
1, 42971, Note_on_c, 9, 59, 69
1, 42976, Note_on_c, 9, 63, 0
1, 42984, Note_on_c, 9, 59, 0
1, 42997, Note_on_c, 9, 35, 0
1, 43000, Note_on_c, 1, 31, 0
1, 43024, Note_on_c, 9, 35, 47
1, 43025, Note_on_c, 0, 62, 41
1, 43029, Note_on_c, 0, 60, 36
1, 43032, Note_on_c, 9, 59, 88
1, 43036, Note_on_c, 0, 62, 0
1, 43042, Note_on_c, 0, 60, 0
1, 43044, Note_on_c, 0, 67, 76
1, 43052, Note_on_c, 9, 59, 0
1, 43054, Note_on_c, 9, 35, 0
1, 43084, Note_on_c, 9, 75, 79
1, 43084, Note_on_c, 9, 64, 85
1, 43086, Note_on_c, 1, 31, 91
1, 43090, Note_on_c, 0, 67, 0
1, 43095, Note_on_c, 0, 68, 68
1, 43113, Note_on_c, 9, 75, 0
1, 43118, Note_on_c, 9, 64, 0
1, 43126, Note_on_c, 0, 68, 0
1, 43144, Note_on_c, 9, 35, 40
1, 43149, Note_on_c, 0, 72, 67
1, 43153, Note_on_c, 9, 59, 91
1, 43153, Note_on_c, 9, 64, 75
1, 43170, Note_on_c, 9, 35, 0
1, 43176, Note_on_c, 9, 59, 0
1, 43183, Note_on_c, 0, 72, 0
1, 43194, Note_on_c, 0, 75, 45
1, 43204, Note_on_c, 9, 35, 41
1, 43213, Note_on_c, 9, 64, 0
1, 43232, Note_on_c, 9, 35, 0
1, 43234, Note_on_c, 0, 75, 0
1, 43239, Note_on_c, 0, 76, 58
1, 43266, Note_on_c, 0, 76, 0
1, 43271, Note_on_c, 9, 59, 74
1, 43275, Note_on_c, 9, 57, 72
1, 43283, Note_on_c, 9, 57, 0
1, 43287, Note_on_c, 0, 79, 71
1, 43287, Note_on_c, 0, 81, 78
1, 43293, Note_on_c, 9, 59, 0
1, 43313, Note_on_c, 0, 81, 0
1, 43327, Note_on_c, 0, 79, 0
1, 43328, Note_on_c, 9, 63, 69
1, 43330, Note_on_c, 9, 75, 77
1, 43332, Note_on_c, 0, 76, 62
1, 43351, Note_on_c, 9, 63, 0
1, 43355, Note_on_c, 9, 75, 0
1, 43357, Note_on_c, 0, 76, 0
1, 43373, Note_on_c, 0, 77, 53
1, 43384, Note_on_c, 9, 35, 54
1, 43393, Note_on_c, 9, 59, 78
1, 43399, Note_on_c, 9, 63, 82
1, 43401, Note_on_c, 0, 60, 31
1, 43402, Note_on_c, 1, 50, 92
1, 43407, Note_on_c, 9, 35, 0
1, 43408, Note_on_c, 0, 77, 0
1, 43408, Note_on_c, 0, 72, 55
1, 43415, Note_on_c, 9, 59, 0
1, 43421, Note_on_c, 0, 60, 0
1, 43438, Note_on_c, 0, 72, 0
1, 43444, Note_on_c, 9, 35, 44
1, 43445, Note_on_c, 9, 59, 80
1, 43455, Note_on_c, 0, 68, 31
1, 43458, Note_on_c, 9, 75, 74
1, 43478, Note_on_c, 9, 35, 0
1, 43479, Note_on_c, 0, 68, 0
1, 43479, Note_on_c, 9, 59, 0
1, 43486, Note_on_c, 9, 75, 0
1, 43494, Note_on_c, 9, 63, 0
1, 43530, Note_on_c, 0, 70, 78
1, 43531, Note_on_c, 1, 43, 0
1, 43548, Note_on_c, 0, 60, 24
1, 43561, Note_on_c, 1, 50, 0
1, 43563, Note_on_c, 0, 70, 0
1, 43564, Note_on_c, 9, 59, 75
1, 43566, Note_on_c, 0, 60, 0
1, 43566, Note_on_c, 1, 44, 91
1, 43577, Note_on_c, 9, 64, 82
1, 43581, Note_on_c, 0, 68, 71
1, 43596, Note_on_c, 9, 59, 0
1, 43609, Note_on_c, 9, 64, 0
1, 43610, Note_on_c, 0, 68, 0
1, 43621, Note_on_c, 0, 70, 53
1, 43624, Note_on_c, 9, 35, 45
1, 43646, Note_on_c, 9, 64, 87
1, 43650, Note_on_c, 9, 35, 0
1, 43658, Note_on_c, 0, 68, 26
1, 43667, Note_on_c, 0, 70, 0
1, 43672, Note_on_c, 0, 68, 0
1, 43679, Note_on_c, 0, 67, 54
1, 43682, Note_on_c, 9, 59, 80
1, 43683, Note_on_c, 0, 60, 18
1, 43684, Note_on_c, 9, 35, 52
1, 43688, Note_on_c, 9, 75, 75
1, 43695, Note_on_c, 0, 60, 0
1, 43699, Note_on_c, 0, 67, 0
1, 43702, Note_on_c, 9, 64, 0
1, 43712, Note_on_c, 9, 59, 0
1, 43714, Note_on_c, 9, 75, 0
1, 43714, Note_on_c, 9, 35, 0
1, 43724, Note_on_c, 0, 65, 71
1, 43755, Note_on_c, 0, 65, 0
1, 43783, Note_on_c, 0, 63, 60
1, 43810, Note_on_c, 9, 63, 71
1, 43818, Note_on_c, 0, 63, 0
1, 43836, Note_on_c, 9, 63, 0
1, 43836, Note_on_c, 1, 31, 0
1, 43862, Note_on_c, 1, 43, 82
1, 43862, Note_on_c, 9, 59, 76
1, 43864, Note_on_c, 9, 35, 50
1, 43874, Note_on_c, 9, 63, 81
1, 43881, Note_on_c, 9, 75, 78
1, 43884, Note_on_c, 1, 44, 0
1, 43888, Note_on_c, 9, 35, 0
1, 43893, Note_on_c, 9, 59, 0
1, 43895, Note_on_c, 0, 65, 94
1, 43896, Note_on_c, 0, 60, 38
1, 43907, Note_on_c, 0, 60, 0
1, 43910, Note_on_c, 9, 75, 0
1, 43924, Note_on_c, 9, 35, 47
1, 43930, Note_on_c, 9, 63, 0
1, 43946, Note_on_c, 0, 63, 52
1, 43950, Note_on_c, 0, 65, 0
1, 43953, Note_on_c, 9, 35, 0
1, 43984, Note_on_c, 9, 35, 46
1, 43999, Note_on_c, 0, 63, 0
1, 44008, Note_on_c, 0, 59, 59
1, 44015, Note_on_c, 9, 35, 0
1, 44021, Note_on_c, 0, 59, 0
1, 44037, Note_on_c, 9, 51, 85
1, 44048, Note_on_c, 9, 64, 83
1, 44049, Note_on_c, 0, 62, 73
1, 44050, Note_on_c, 1, 43, 0
1, 44051, Note_on_c, 9, 75, 79
1, 44053, Note_on_c, 9, 51, 0
1, 44054, Note_on_c, 1, 36, 95
1, 44082, Note_on_c, 9, 75, 0
1, 44083, Note_on_c, 9, 64, 0
1, 44104, Note_on_c, 9, 35, 42
1, 44113, Note_on_c, 9, 64, 74
1, 44119, Note_on_c, 0, 62, 0
1, 44127, Note_on_c, 0, 59, 43
1, 44130, Note_on_c, 9, 35, 0
1, 44139, Note_on_c, 0, 59, 0
1, 44163, Note_on_c, 9, 64, 0
1, 44164, Note_on_c, 9, 35, 50
1, 44168, Note_on_c, 9, 51, 93
1, 44173, Note_on_c, 0, 60, 74
1, 44187, Note_on_c, 9, 51, 0
1, 44191, Note_on_c, 9, 35, 0
1, 44265, Note_on_c, 0, 60, 0
1, 44287, Note_on_c, 0, 55, 54
1, 44288, Note_on_c, 9, 75, 82
1, 44292, Note_on_c, 9, 63, 69
1, 44296, Note_on_c, 9, 51, 87
1, 44313, Note_on_c, 9, 51, 0
1, 44315, Note_on_c, 9, 75, 0
1, 44316, Note_on_c, 9, 63, 0
1, 44344, Note_on_c, 9, 35, 49
1, 44349, Note_on_c, 0, 55, 0
1, 44354, Note_on_c, 9, 63, 76
1, 44355, Note_on_c, 1, 43, 76
1, 44367, Note_on_c, 9, 35, 0
1, 44382, Note_on_c, 1, 43, 0
1, 44404, Note_on_c, 9, 35, 41
1, 44406, Note_on_c, 0, 53, 52
1, 44407, Note_on_c, 0, 60, 48
1, 44411, Note_on_c, 9, 51, 71
1, 44415, Note_on_c, 9, 63, 0
1, 44419, Note_on_c, 9, 51, 0
1, 44419, Note_on_c, 9, 75, 76
1, 44434, Note_on_c, 9, 35, 0
1, 44448, Note_on_c, 9, 75, 0
1, 44468, Note_on_c, 9, 51, 80
1, 44479, Note_on_c, 0, 53, 0
1, 44481, Note_on_c, 0, 51, 49
1, 44483, Note_on_c, 9, 51, 0
1, 44500, Note_on_c, 0, 51, 0
1, 44505, Note_on_c, 0, 60, 0
1, 44524, Note_on_c, 9, 64, 76
1, 44526, Note_on_c, 1, 51, 88
1, 44550, Note_on_c, 9, 64, 0
1, 44584, Note_on_c, 9, 35, 53
1, 44588, Note_on_c, 0, 53, 55
1, 44589, Note_on_c, 0, 60, 60
1, 44590, Note_on_c, 9, 51, 81
1, 44590, Note_on_c, 9, 64, 68
1, 44605, Note_on_c, 9, 51, 0
1, 44606, Note_on_c, 9, 35, 0
1, 44626, Note_on_c, 9, 64, 0
1, 44644, Note_on_c, 9, 35, 40
1, 44652, Note_on_c, 9, 75, 75
1, 44661, Note_on_c, 0, 60, 0
1, 44674, Note_on_c, 9, 35, 0
1, 44680, Note_on_c, 9, 75, 0
1, 44684, Note_on_c, 0, 53, 0
1, 44705, Note_on_c, 0, 51, 48
1, 44713, Note_on_c, 9, 62, 85
1, 44713, Note_on_c, 9, 63, 69
1, 44714, Note_on_c, 0, 48, 30
1, 44717, Note_on_c, 9, 51, 77
1, 44725, Note_on_c, 0, 48, 0
1, 44728, Note_on_c, 0, 51, 0
1, 44736, Note_on_c, 9, 51, 0
1, 44740, Note_on_c, 9, 62, 0
1, 44760, Note_on_c, 9, 63, 0
1, 44760, Note_on_c, 0, 53, 57
1, 44768, Note_on_c, 0, 60, 35
1, 44792, Note_on_c, 0, 60, 0
1, 44793, Note_on_c, 0, 53, 0
1, 44815, Note_on_c, 9, 63, 68
1, 44815, Note_on_c, 9, 62, 80
1, 44821, Note_on_c, 0, 54, 77
1, 44822, Note_on_c, 0, 60, 64
1, 44824, Note_on_c, 9, 35, 49
1, 44828, Note_on_c, 0, 48, 36
1, 44829, Note_on_c, 9, 49, 43
1, 44830, Note_on_c, 1, 51, 0
1, 44831, Note_on_c, 9, 75, 76
1, 44832, Note_on_c, 0, 60, 0
1, 44837, Note_on_c, 9, 51, 73
1, 44839, Note_on_c, 9, 49, 0
1, 44839, Note_on_c, 0, 43, 24
1, 44840, Note_on_c, 0, 48, 0
1, 44843, Note_on_c, 9, 62, 0
1, 44843, Note_on_c, 1, 50, 79
1, 44849, Note_on_c, 9, 51, 0
1, 44849, Note_on_c, 9, 35, 0
1, 44852, Note_on_c, 0, 43, 0
1, 44857, Note_on_c, 9, 63, 0
1, 44860, Note_on_c, 9, 75, 0
1, 44864, Note_on_c, 0, 54, 0
1, 44868, Note_on_c, 0, 60, 8
1, 44869, Note_on_c, 0, 53, 57
1, 44884, Note_on_c, 9, 35, 40
1, 44893, Note_on_c, 9, 51, 83
1, 44903, Note_on_c, 0, 60, 0
1, 44903, Note_on_c, 9, 62, 79
1, 44909, Note_on_c, 9, 63, 77
1, 44914, Note_on_c, 9, 35, 0
1, 44915, Note_on_c, 9, 51, 0
1, 44919, Note_on_c, 1, 36, 0
1, 44933, Note_on_c, 9, 62, 0
1, 44936, Note_on_c, 0, 51, 59
1, 44943, Note_on_c, 0, 53, 0
1, 44949, Note_on_c, 0, 51, 0
1, 44961, Note_on_c, 9, 63, 0
1, 44975, Note_on_c, 0, 36, 38
1, 44979, Note_on_c, 1, 50, 0
1, 44984, Note_on_c, 0, 48, 54
1, 45000, Note_on_c, 9, 51, 83
1, 45003, Note_on_c, 1, 48, 89
1, 45005, Note_on_c, 9, 75, 80
1, 45018, Note_on_c, 9, 51, 0
1, 45032, Note_on_c, 9, 75, 0
1, 45052, Note_on_c, 0, 48, 0
1, 45064, Note_on_c, 9, 35, 50
1, 45078, Note_on_c, 9, 64, 90
1, 45085, Note_on_c, 0, 36, 0
1, 45089, Note_on_c, 9, 35, 0
1, 45113, Note_on_c, 0, 24, 49
1, 45120, Note_on_c, 9, 51, 88
1, 45124, Note_on_c, 9, 35, 50
1, 45130, Note_on_c, 0, 24, 0
1, 45142, Note_on_c, 9, 51, 0
1, 45143, Note_on_c, 9, 64, 0
1, 45152, Note_on_c, 9, 35, 0
1, 45239, Note_on_c, 9, 63, 69
1, 45242, Note_on_c, 9, 75, 81
1, 45254, Note_on_c, 1, 51, 18
1, 45268, Note_on_c, 9, 75, 0
1, 45273, Note_on_c, 9, 63, 0
1, 45304, Note_on_c, 9, 35, 50
1, 45305, Note_on_c, 9, 51, 84
1, 45312, Note_on_c, 1, 43, 71
1, 45312, Note_on_c, 9, 63, 62
1, 45315, Note_on_c, 9, 62, 43
1, 45318, Note_on_c, 0, 60, 28
1, 45321, Note_on_c, 0, 58, 31
1, 45324, Note_on_c, 9, 51, 0
1, 45325, Note_on_c, 9, 35, 0
1, 45326, Note_on_c, 9, 62, 0
1, 45329, Note_on_c, 0, 60, 0
1, 45344, Note_on_c, 0, 58, 0
1, 45344, Note_on_c, 9, 63, 0
1, 45352, Note_on_c, 1, 48, 0
1, 45362, Note_on_c, 9, 51, 83
1, 45364, Note_on_c, 9, 35, 56
1, 45368, Note_on_c, 9, 75, 79
1, 45394, Note_on_c, 9, 35, 0
1, 45399, Note_on_c, 9, 75, 0
1, 45411, Note_on_c, 9, 51, 0
1, 45478, Note_on_c, 9, 64, 77
1, 45480, Note_on_c, 9, 51, 94
1, 45484, Note_on_c, 1, 36, 99
1, 45486, Note_on_c, 1, 43, 0
1, 45490, Note_on_c, 1, 51, 0
1, 45512, Note_on_c, 9, 64, 0
1, 45526, Note_on_c, 9, 51, 0
1, 45543, Note_on_c, 9, 64, 74
1, 45544, Note_on_c, 9, 35, 56
1, 45571, Note_on_c, 9, 35, 0
1, 45597, Note_on_c, 9, 64, 0
1, 45603, Note_on_c, 9, 51, 90
1, 45607, Note_on_c, 9, 75, 79
1, 45610, Note_on_c, 0, 67, 68
1, 45613, Note_on_c, 0, 62, 54
1, 45615, Note_on_c, 0, 63, 32
1, 45622, Note_on_c, 9, 51, 0
1, 45627, Note_on_c, 0, 67, 0
1, 45629, Note_on_c, 0, 62, 0
1, 45635, Note_on_c, 9, 75, 0
1, 45635, Note_on_c, 0, 63, 0
1, 45662, Note_on_c, 9, 51, 71
1, 45664, Note_on_c, 9, 35, 54
1, 45685, Note_on_c, 9, 51, 0
1, 45692, Note_on_c, 9, 35, 0
1, 45723, Note_on_c, 9, 63, 69
1, 45724, Note_on_c, 9, 62, 81
1, 45730, Note_on_c, 0, 67, 63
1, 45730, Note_on_c, 0, 63, 50
1, 45732, Note_on_c, 0, 62, 44
1, 45745, Note_on_c, 0, 62, 0
1, 45745, Note_on_c, 9, 62, 0
1, 45754, Note_on_c, 0, 67, 0
1, 45765, Note_on_c, 0, 63, 0
1, 45766, Note_on_c, 1, 36, 0
1, 45778, Note_on_c, 1, 35, 81
1, 45781, Note_on_c, 9, 63, 0
1, 45784, Note_on_c, 9, 35, 46
1, 45784, Note_on_c, 9, 75, 83
1, 45787, Note_on_c, 9, 51, 91
1, 45810, Note_on_c, 9, 75, 0
1, 45810, Note_on_c, 9, 35, 0
1, 45845, Note_on_c, 9, 51, 0
1, 45904, Note_on_c, 9, 35, 50
1, 45906, Note_on_c, 9, 51, 88
1, 45921, Note_on_c, 0, 63, 68
1, 45931, Note_on_c, 9, 35, 0
1, 45934, Note_on_c, 9, 51, 0
1, 45946, Note_on_c, 1, 35, 0
1, 45957, Note_on_c, 0, 63, 0
1, 45963, Note_on_c, 1, 36, 105
1, 45963, Note_on_c, 9, 51, 76
1, 45966, Note_on_c, 9, 75, 85
1, 45967, Note_on_c, 9, 64, 83
1, 45977, Note_on_c, 0, 64, 57
1, 45979, Note_on_c, 1, 35, 24
1, 45992, Note_on_c, 1, 35, 0
1, 45996, Note_on_c, 9, 75, 0
1, 45999, Note_on_c, 9, 64, 0
1, 46010, Note_on_c, 9, 51, 0
1, 46018, Note_on_c, 0, 64, 0
1, 46024, Note_on_c, 9, 35, 54
1, 46029, Note_on_c, 9, 64, 80
1, 46039, Note_on_c, 0, 66, 60
1, 46047, Note_on_c, 0, 64, 46
1, 46048, Note_on_c, 9, 35, 0
1, 46056, Note_on_c, 0, 61, 35
1, 46064, Note_on_c, 0, 58, 23
1, 46071, Note_on_c, 9, 64, 0
1, 46074, Note_on_c, 0, 66, 0
1, 46080, Note_on_c, 9, 49, 73
1, 46080, Note_on_c, 9, 51, 90
1, 46084, Note_on_c, 0, 58, 0
1, 46084, Note_on_c, 9, 35, 57
1, 46091, Note_on_c, 0, 64, 0
1, 46094, Note_on_c, 0, 69, 66
1, 46111, Note_on_c, 9, 35, 0
1, 46125, Note_on_c, 9, 51, 0
1, 46127, Note_on_c, 0, 61, 0
1, 46130, Note_on_c, 9, 49, 0
1, 46151, Note_on_c, 0, 69, 0
1, 46161, Note_on_c, 0, 66, 42
1, 46192, Note_on_c, 0, 66, 0
1, 46204, Note_on_c, 9, 51, 90
1, 46207, Note_on_c, 9, 75, 82
1, 46212, Note_on_c, 9, 63, 75
1, 46214, Note_on_c, 0, 67, 46
1, 46214, Note_on_c, 9, 62, 84
1, 46233, Note_on_c, 9, 75, 0
1, 46237, Note_on_c, 9, 62, 0
1, 46255, Note_on_c, 9, 51, 0
1, 46256, Note_on_c, 0, 67, 0
1, 46259, Note_on_c, 9, 63, 0
1, 46264, Note_on_c, 9, 35, 63
1, 46273, Note_on_c, 0, 69, 73
1, 46274, Note_on_c, 0, 61, 72
1, 46274, Note_on_c, 1, 46, 87
1, 46280, Note_on_c, 0, 58, 53
1, 46288, Note_on_c, 9, 35, 0
1, 46293, Note_on_c, 0, 61, 0
1, 46312, Note_on_c, 0, 58, 0
1, 46313, Note_on_c, 1, 46, 0
1, 46321, Note_on_c, 0, 69, 0
1, 46324, Note_on_c, 9, 35, 52
1, 46325, Note_on_c, 9, 51, 87
1, 46333, Note_on_c, 0, 70, 40
1, 46335, Note_on_c, 9, 75, 83
1, 46349, Note_on_c, 9, 51, 0
1, 46353, Note_on_c, 9, 35, 0
1, 46367, Note_on_c, 9, 75, 0
1, 46380, Note_on_c, 0, 70, 0
1, 46390, Note_on_c, 9, 51, 76
1, 46395, Note_on_c, 0, 72, 68
1, 46412, Note_on_c, 0, 36, 49
1, 46420, Note_on_c, 9, 51, 0
1, 46423, Note_on_c, 0, 36, 0
1, 46430, Note_on_c, 1, 49, 92
1, 46437, Note_on_c, 0, 72, 0
1, 46445, Note_on_c, 9, 64, 105
1, 46452, Note_on_c, 9, 51, 73
1, 46470, Note_on_c, 1, 36, 0
1, 46483, Note_on_c, 9, 64, 0
1, 46488, Note_on_c, 9, 51, 0
1, 46504, Note_on_c, 9, 35, 61
1, 46508, Note_on_c, 9, 64, 87
1, 46511, Note_on_c, 9, 51, 88
1, 46527, Note_on_c, 9, 35, 0
1, 46556, Note_on_c, 9, 64, 0
1, 46564, Note_on_c, 9, 35, 52
1, 46568, Note_on_c, 9, 75, 82
1, 46576, Note_on_c, 0, 61, 62
1, 46583, Note_on_c, 9, 51, 0
1, 46583, Note_on_c, 0, 58, 43
1, 46587, Note_on_c, 0, 52, 41
1, 46597, Note_on_c, 9, 75, 0
1, 46598, Note_on_c, 9, 35, 0
1, 46606, Note_on_c, 0, 52, 0
1, 46616, Note_on_c, 0, 61, 0
1, 46628, Note_on_c, 9, 51, 93
1, 46637, Note_on_c, 0, 58, 0
1, 46689, Note_on_c, 9, 63, 64
1, 46691, Note_on_c, 9, 62, 75
1, 46696, Note_on_c, 9, 51, 0
1, 46715, Note_on_c, 9, 62, 0
1, 46724, Note_on_c, 9, 63, 0
1, 46744, Note_on_c, 9, 35, 58
1, 46747, Note_on_c, 1, 46, 85
1, 46748, Note_on_c, 9, 62, 66
1, 46749, Note_on_c, 0, 61, 52
1, 46750, Note_on_c, 9, 63, 59
1, 46752, Note_on_c, 9, 51, 91
1, 46753, Note_on_c, 0, 58, 44
1, 46753, Note_on_c, 9, 75, 79
1, 46768, Note_on_c, 9, 35, 0
1, 46774, Note_on_c, 1, 49, 0
1, 46778, Note_on_c, 9, 62, 0
1, 46778, Note_on_c, 0, 61, 0
1, 46782, Note_on_c, 9, 75, 0
1, 46793, Note_on_c, 9, 63, 0
1, 46799, Note_on_c, 0, 58, 0
1, 46804, Note_on_c, 9, 35, 52
1, 46820, Note_on_c, 9, 51, 0
1, 46832, Note_on_c, 9, 35, 0
1, 46839, Note_on_c, 1, 46, 0
1, 46864, Note_on_c, 9, 35, 53
1, 46866, Note_on_c, 9, 51, 48
1, 46872, Note_on_c, 9, 64, 89
1, 46884, Note_on_c, 9, 51, 0
1, 46884, Note_on_c, 1, 36, 45
1, 46893, Note_on_c, 9, 35, 0
1, 46900, Note_on_c, 1, 36, 0
1, 46903, Note_on_c, 9, 64, 0
1, 46909, Note_on_c, 0, 61, 48
1, 46917, Note_on_c, 0, 58, 31
1, 46919, Note_on_c, 1, 43, 82
1, 46927, Note_on_c, 9, 51, 95
1, 46931, Note_on_c, 9, 64, 94
1, 46932, Note_on_c, 9, 75, 81
1, 46940, Note_on_c, 0, 61, 0
1, 46963, Note_on_c, 9, 75, 0
1, 46984, Note_on_c, 9, 35, 58
1, 46986, Note_on_c, 0, 58, 0
1, 46998, Note_on_c, 9, 64, 0
1, 47001, Note_on_c, 9, 51, 0
1, 47010, Note_on_c, 9, 35, 0
1, 47033, Note_on_c, 0, 84, 99
1, 47039, Note_on_c, 9, 51, 62
1, 47044, Note_on_c, 9, 35, 53
1, 47051, Note_on_c, 9, 51, 0
1, 47072, Note_on_c, 9, 35, 0
1, 47086, Note_on_c, 0, 84, 0
1, 47095, Note_on_c, 9, 51, 74
1, 47102, Note_on_c, 0, 78, 40
1, 47104, Note_on_c, 0, 58, 33
1, 47111, Note_on_c, 9, 51, 0
1, 47130, Note_on_c, 0, 78, 0
1, 47143, Note_on_c, 0, 58, 0
1, 47154, Note_on_c, 0, 82, 79
1, 47154, Note_on_c, 9, 63, 62
1, 47155, Note_on_c, 9, 51, 93
1, 47155, Note_on_c, 9, 62, 80
1, 47162, Note_on_c, 9, 75, 81
1, 47182, Note_on_c, 9, 62, 0
1, 47186, Note_on_c, 9, 75, 0
1, 47189, Note_on_c, 9, 63, 0
1, 47216, Note_on_c, 0, 80, 67
1, 47221, Note_on_c, 9, 62, 65
1, 47222, Note_on_c, 0, 61, 37
1, 47224, Note_on_c, 9, 35, 57
1, 47224, Note_on_c, 9, 63, 59
1, 47225, Note_on_c, 9, 51, 0
1, 47226, Note_on_c, 1, 43, 0
1, 47227, Note_on_c, 0, 58, 35
1, 47229, Note_on_c, 1, 40, 77
1, 47233, Note_on_c, 0, 82, 0
1, 47239, Note_on_c, 0, 61, 0
1, 47247, Note_on_c, 9, 35, 0
1, 47254, Note_on_c, 9, 62, 0
1, 47258, Note_on_c, 0, 80, 0
1, 47265, Note_on_c, 9, 63, 0
1, 47270, Note_on_c, 9, 51, 59
1, 47278, Note_on_c, 0, 76, 33
1, 47279, Note_on_c, 1, 40, 0
1, 47282, Note_on_c, 9, 51, 0
1, 47283, Note_on_c, 9, 75, 79
1, 47284, Note_on_c, 9, 35, 42
1, 47302, Note_on_c, 0, 58, 0
1, 47312, Note_on_c, 9, 75, 0
1, 47313, Note_on_c, 9, 35, 0
1, 47323, Note_on_c, 0, 76, 0
1, 47333, Note_on_c, 9, 51, 95
1, 47336, Note_on_c, 0, 75, 59
1, 47354, Note_on_c, 0, 58, 20
1, 47376, Note_on_c, 0, 75, 0
1, 47388, Note_on_c, 0, 58, 0
1, 47392, Note_on_c, 0, 73, 31
1, 47392, Note_on_c, 9, 64, 113
1, 47396, Note_on_c, 9, 51, 0
1, 47402, Note_on_c, 1, 36, 99
1, 47440, Note_on_c, 9, 64, 0
1, 47446, Note_on_c, 0, 73, 0
1, 47452, Note_on_c, 0, 72, 64
1, 47464, Note_on_c, 9, 35, 63
1, 47465, Note_on_c, 9, 51, 60
1, 47473, Note_on_c, 0, 61, 37
1, 47475, Note_on_c, 0, 58, 31
1, 47481, Note_on_c, 9, 51, 0
1, 47483, Note_on_c, 0, 72, 0
1, 47484, Note_on_c, 0, 61, 0
1, 47490, Note_on_c, 9, 35, 0
1, 47510, Note_on_c, 0, 70, 52
1, 47520, Note_on_c, 0, 58, 0
1, 47520, Note_on_c, 9, 75, 83
1, 47521, Note_on_c, 9, 51, 90
1, 47524, Note_on_c, 9, 35, 42
1, 47548, Note_on_c, 9, 75, 0
1, 47554, Note_on_c, 9, 35, 0
1, 47560, Note_on_c, 0, 70, 0
1, 47571, Note_on_c, 0, 66, 62
1, 47585, Note_on_c, 9, 51, 0
1, 47608, Note_on_c, 0, 66, 0
1, 47632, Note_on_c, 0, 64, 33
1, 47637, Note_on_c, 9, 51, 55
1, 47641, Note_on_c, 9, 62, 73
1, 47641, Note_on_c, 9, 64, 62
1, 47650, Note_on_c, 9, 51, 0
1, 47656, Note_on_c, 9, 64, 0
1, 47661, Note_on_c, 9, 62, 0
1, 47678, Note_on_c, 0, 64, 0
1, 47691, Note_on_c, 0, 63, 52
1, 47695, Note_on_c, 0, 58, 43
1, 47704, Note_on_c, 9, 35, 40
1, 47704, Note_on_c, 9, 75, 80
1, 47704, Note_on_c, 9, 51, 91
1, 47707, Note_on_c, 1, 36, 0
1, 47708, Note_on_c, 0, 52, 30
1, 47709, Note_on_c, 9, 64, 83
1, 47716, Note_on_c, 1, 43, 92
1, 47724, Note_on_c, 0, 58, 0
1, 47727, Note_on_c, 0, 52, 0
1, 47728, Note_on_c, 9, 35, 0
1, 47731, Note_on_c, 9, 75, 0
1, 47733, Note_on_c, 9, 64, 0
1, 47745, Note_on_c, 1, 43, 0
1, 47746, Note_on_c, 0, 61, 52
1, 47750, Note_on_c, 0, 63, 0
1, 47764, Note_on_c, 9, 35, 53
1, 47767, Note_on_c, 9, 51, 0
1, 47791, Note_on_c, 9, 35, 0
1, 47808, Note_on_c, 0, 61, 0
1, 47808, Note_on_c, 9, 62, 92
1, 47813, Note_on_c, 0, 60, 70
1, 47819, Note_on_c, 9, 64, 66
1, 47823, Note_on_c, 9, 51, 61
1, 47824, Note_on_c, 9, 35, 46
1, 47828, Note_on_c, 1, 41, 74
1, 47835, Note_on_c, 9, 62, 0
1, 47836, Note_on_c, 1, 40, 36
1, 47839, Note_on_c, 9, 51, 0
1, 47841, Note_on_c, 0, 60, 0
1, 47851, Note_on_c, 1, 40, 0
1, 47853, Note_on_c, 1, 41, 0
1, 47853, Note_on_c, 0, 42, 23
1, 47855, Note_on_c, 9, 35, 0
1, 47865, Note_on_c, 0, 58, 50
1, 47867, Note_on_c, 9, 64, 0
1, 47877, Note_on_c, 9, 51, 74
1, 47880, Note_on_c, 1, 41, 84
1, 47881, Note_on_c, 9, 75, 81
1, 47895, Note_on_c, 9, 51, 0
1, 47912, Note_on_c, 9, 75, 0
1, 47912, Note_on_c, 9, 64, 85
1, 47916, Note_on_c, 9, 62, 80
1, 47933, Note_on_c, 0, 49, 27
1, 47936, Note_on_c, 9, 51, 57
1, 47943, Note_on_c, 9, 62, 0
1, 47944, Note_on_c, 9, 35, 58
1, 47945, Note_on_c, 0, 42, 0
1, 47946, Note_on_c, 9, 51, 0
1, 47958, Note_on_c, 9, 64, 0
1, 47963, Note_on_c, 0, 58, 0
1, 47970, Note_on_c, 0, 49, 0
1, 47970, Note_on_c, 9, 35, 0
1, 47983, Note_on_c, 1, 41, 0
1, 47996, Note_on_c, 0, 56, 60
1, 47996, Note_on_c, 0, 48, 32
1, 47999, Note_on_c, 9, 51, 90
1, 48003, Note_on_c, 0, 41, 34
1, 48004, Note_on_c, 9, 35, 52
1, 48005, Note_on_c, 9, 62, 85
1, 48007, Note_on_c, 1, 41, 89
1, 48007, Note_on_c, 9, 64, 79
1, 48026, Note_on_c, 9, 62, 0
1, 48030, Note_on_c, 9, 35, 0
1, 48049, Note_on_c, 9, 51, 0
1, 48056, Note_on_c, 9, 64, 0
1, 48099, Note_on_c, 0, 56, 0
1, 48111, Note_on_c, 9, 64, 83
1, 48115, Note_on_c, 9, 62, 72
1, 48116, Note_on_c, 0, 48, 0
1, 48121, Note_on_c, 9, 51, 64
1, 48123, Note_on_c, 0, 55, 65
1, 48126, Note_on_c, 9, 75, 78
1, 48135, Note_on_c, 9, 51, 0
1, 48136, Note_on_c, 9, 64, 0
1, 48140, Note_on_c, 9, 62, 0
1, 48151, Note_on_c, 9, 75, 0
1, 48156, Note_on_c, 1, 41, 0
1, 48179, Note_on_c, 0, 55, 0
1, 48183, Note_on_c, 1, 41, 77
1, 48183, Note_on_c, 9, 51, 61
1, 48184, Note_on_c, 9, 35, 53
1, 48188, Note_on_c, 0, 41, 0
1, 48189, Note_on_c, 0, 48, 24
1, 48192, Note_on_c, 9, 51, 0
1, 48202, Note_on_c, 9, 62, 90
1, 48203, Note_on_c, 9, 64, 71
1, 48207, Note_on_c, 9, 35, 0
1, 48208, Note_on_c, 0, 52, 24
1, 48219, Note_on_c, 0, 52, 0
1, 48219, Note_on_c, 0, 48, 0
1, 48232, Note_on_c, 9, 62, 0
1, 48242, Note_on_c, 9, 64, 0
1, 48244, Note_on_c, 9, 35, 50
1, 48244, Note_on_c, 9, 51, 62
1, 48246, Note_on_c, 0, 53, 53
1, 48251, Note_on_c, 9, 75, 77
1, 48256, Note_on_c, 9, 51, 0
1, 48272, Note_on_c, 9, 35, 0
1, 48280, Note_on_c, 9, 75, 0
1, 48301, Note_on_c, 9, 62, 82
1, 48301, Note_on_c, 9, 63, 64
1, 48303, Note_on_c, 0, 53, 0
1, 48308, Note_on_c, 9, 51, 78
1, 48322, Note_on_c, 0, 55, 46
1, 48328, Note_on_c, 9, 62, 0
1, 48330, Note_on_c, 9, 51, 0
1, 48340, Note_on_c, 0, 41, 25
1, 48344, Note_on_c, 9, 63, 0
1, 48344, Note_on_c, 0, 53, 51
1, 48345, Note_on_c, 1, 41, 0
1, 48349, Note_on_c, 0, 55, 0
1, 48356, Note_on_c, 0, 41, 0
1, 48362, Note_on_c, 1, 29, 78
1, 48371, Note_on_c, 0, 53, 0
1, 48381, Note_on_c, 0, 52, 33
1, 48398, Note_on_c, 9, 63, 69
1, 48399, Note_on_c, 9, 62, 74
1, 48423, Note_on_c, 0, 52, 0
1, 48424, Note_on_c, 9, 35, 54
1, 48426, Note_on_c, 9, 51, 82
1, 48430, Note_on_c, 9, 57, 73
1, 48433, Note_on_c, 9, 62, 0
1, 48442, Note_on_c, 0, 53, 68
1, 48446, Note_on_c, 9, 51, 0
1, 48446, Note_on_c, 9, 35, 0
1, 48450, Note_on_c, 9, 63, 0
1, 48450, Note_on_c, 9, 57, 0
1, 48458, Note_on_c, 0, 48, 24
1, 48478, Note_on_c, 0, 53, 0
1, 48479, Note_on_c, 0, 48, 0
1, 48484, Note_on_c, 9, 35, 40
1, 48485, Note_on_c, 9, 75, 83
1, 48498, Note_on_c, 0, 55, 57
1, 48513, Note_on_c, 9, 75, 0
1, 48514, Note_on_c, 9, 35, 0
1, 48539, Note_on_c, 0, 55, 0
1, 48557, Note_on_c, 9, 51, 71
1, 48563, Note_on_c, 0, 56, 57
1, 48568, Note_on_c, 0, 49, 50
1, 48574, Note_on_c, 0, 41, 40
1, 48579, Note_on_c, 9, 51, 0
1, 48592, Note_on_c, 1, 49, 82
1, 48594, Note_on_c, 0, 56, 0
1, 48620, Note_on_c, 9, 51, 35
1, 48632, Note_on_c, 9, 51, 0
1, 48636, Note_on_c, 0, 61, 74
1, 48658, Note_on_c, 1, 29, 0
1, 48664, Note_on_c, 0, 61, 0
1, 48664, Note_on_c, 9, 35, 60
1, 48676, Note_on_c, 9, 51, 84
1, 48677, Note_on_c, 9, 75, 73
1, 48687, Note_on_c, 9, 35, 0
1, 48692, Note_on_c, 0, 64, 64
1, 48693, Note_on_c, 0, 65, 73
1, 48699, Note_on_c, 9, 51, 0
1, 48710, Note_on_c, 9, 75, 0
1, 48717, Note_on_c, 0, 65, 0
1, 48718, Note_on_c, 0, 64, 0
1, 48724, Note_on_c, 9, 35, 49
1, 48729, Note_on_c, 0, 49, 0
1, 48735, Note_on_c, 9, 51, 82
1, 48748, Note_on_c, 9, 35, 0
1, 48748, Note_on_c, 0, 69, 99
1, 48765, Note_on_c, 0, 41, 0
1, 48771, Note_on_c, 1, 49, 0
1, 48784, Note_on_c, 9, 35, 60
1, 48792, Note_on_c, 0, 69, 0
1, 48797, Note_on_c, 9, 51, 0
1, 48799, Note_on_c, 1, 49, 87
1, 48812, Note_on_c, 9, 35, 0
1, 48828, Note_on_c, 0, 69, 80
1, 48840, Note_on_c, 9, 51, 69
1, 48841, Note_on_c, 0, 49, 42
1, 48848, Note_on_c, 0, 41, 36
1, 48848, Note_on_c, 9, 75, 75
1, 48850, Note_on_c, 9, 64, 68
1, 48856, Note_on_c, 9, 51, 0
1, 48863, Note_on_c, 0, 69, 0
1, 48866, Note_on_c, 9, 64, 0
1, 48870, Note_on_c, 0, 49, 0
1, 48884, Note_on_c, 9, 75, 0
1, 48904, Note_on_c, 9, 35, 50
1, 48909, Note_on_c, 9, 51, 91
1, 48914, Note_on_c, 0, 68, 77
1, 48917, Note_on_c, 9, 64, 89
1, 48929, Note_on_c, 9, 35, 0
1, 48952, Note_on_c, 1, 49, 0
1, 48953, Note_on_c, 9, 64, 0
1, 48956, Note_on_c, 9, 51, 0
1, 48957, Note_on_c, 0, 68, 0
1, 48957, Note_on_c, 0, 41, 0
1, 48964, Note_on_c, 9, 35, 50
1, 48970, Note_on_c, 9, 49, 35
1, 48971, Note_on_c, 1, 50, 90
1, 48992, Note_on_c, 9, 35, 0
1, 48992, Note_on_c, 0, 68, 74
1, 49030, Note_on_c, 9, 51, 56
1, 49050, Note_on_c, 9, 51, 0
1, 49054, Note_on_c, 9, 49, 0
1, 49060, Note_on_c, 0, 68, 0
1, 49086, Note_on_c, 9, 51, 59
1, 49089, Note_on_c, 9, 63, 63
1, 49091, Note_on_c, 0, 67, 65
1, 49093, Note_on_c, 9, 62, 71
1, 49097, Note_on_c, 9, 75, 72
1, 49103, Note_on_c, 9, 51, 0
1, 49107, Note_on_c, 9, 62, 0
1, 49116, Note_on_c, 9, 63, 0
1, 49132, Note_on_c, 9, 75, 0
1, 49134, Note_on_c, 0, 67, 0
1, 49144, Note_on_c, 9, 35, 49
1, 49148, Note_on_c, 9, 51, 79
1, 49151, Note_on_c, 9, 62, 61
1, 49155, Note_on_c, 9, 63, 55
1, 49158, Note_on_c, 1, 50, 0
1, 49162, Note_on_c, 0, 67, 55
1, 49164, Note_on_c, 9, 51, 0
1, 49165, Note_on_c, 9, 35, 0
1, 49166, Note_on_c, 1, 50, 49
1, 49176, Note_on_c, 9, 62, 0
1, 49186, Note_on_c, 9, 63, 0
1, 49204, Note_on_c, 9, 35, 53
1, 49207, Note_on_c, 1, 49, 34
1, 49211, Note_on_c, 9, 51, 88
1, 49214, Note_on_c, 9, 75, 72
1, 49220, Note_on_c, 1, 49, 0
1, 49220, Note_on_c, 1, 50, 0
1, 49226, Note_on_c, 0, 67, 0
1, 49234, Note_on_c, 9, 35, 0
1, 49247, Note_on_c, 9, 51, 0
1, 49250, Note_on_c, 9, 75, 0
1, 49260, Note_on_c, 0, 65, 71
1, 49278, Note_on_c, 0, 48, 36
1, 49279, Note_on_c, 0, 41, 37
1, 49297, Note_on_c, 0, 48, 0
1, 49301, Note_on_c, 0, 65, 0
1, 49302, Note_on_c, 0, 41, 0
1, 49319, Note_on_c, 9, 51, 46
1, 49323, Note_on_c, 9, 64, 82
1, 49326, Note_on_c, 0, 60, 40
1, 49329, Note_on_c, 9, 51, 0
1, 49336, Note_on_c, 1, 49, 90
1, 49350, Note_on_c, 9, 64, 0
1, 49383, Note_on_c, 9, 51, 81
1, 49384, Note_on_c, 9, 35, 57
1, 49389, Note_on_c, 0, 60, 0
1, 49394, Note_on_c, 9, 64, 79
1, 49409, Note_on_c, 9, 35, 0
1, 49432, Note_on_c, 9, 64, 0
1, 49444, Note_on_c, 9, 35, 50
1, 49452, Note_on_c, 9, 75, 81
1, 49453, Note_on_c, 9, 51, 0
1, 49462, Note_on_c, 0, 48, 42
1, 49467, Note_on_c, 0, 41, 36
1, 49475, Note_on_c, 9, 35, 0
1, 49482, Note_on_c, 9, 75, 0
1, 49487, Note_on_c, 0, 48, 0
1, 49496, Note_on_c, 0, 41, 0
1, 49504, Note_on_c, 9, 35, 54
1, 49505, Note_on_c, 9, 51, 53
1, 49512, Note_on_c, 1, 49, 0
1, 49518, Note_on_c, 9, 51, 0
1, 49526, Note_on_c, 1, 48, 83
1, 49532, Note_on_c, 9, 35, 0
1, 49569, Note_on_c, 9, 51, 54
1, 49571, Note_on_c, 9, 63, 77
1, 49574, Note_on_c, 0, 56, 88
1, 49575, Note_on_c, 9, 62, 72
1, 49580, Note_on_c, 9, 51, 0
1, 49587, Note_on_c, 9, 62, 0
1, 49623, Note_on_c, 0, 56, 0
1, 49624, Note_on_c, 9, 35, 57
1, 49629, Note_on_c, 9, 51, 76
1, 49632, Note_on_c, 9, 63, 0
1, 49633, Note_on_c, 9, 75, 81
1, 49636, Note_on_c, 0, 53, 57
1, 49647, Note_on_c, 9, 51, 0
1, 49649, Note_on_c, 9, 35, 0
1, 49655, Note_on_c, 0, 53, 0
1, 49659, Note_on_c, 0, 41, 33
1, 49667, Note_on_c, 9, 75, 0
1, 49677, Note_on_c, 0, 41, 0
1, 49684, Note_on_c, 9, 35, 58
1, 49689, Note_on_c, 1, 41, 83
1, 49690, Note_on_c, 0, 55, 61
1, 49691, Note_on_c, 1, 48, 0
1, 49692, Note_on_c, 9, 51, 81
1, 49709, Note_on_c, 9, 35, 0
1, 49714, Note_on_c, 9, 51, 0
1, 49724, Note_on_c, 1, 41, 0
1, 49731, Note_on_c, 0, 55, 0
1, 49744, Note_on_c, 9, 35, 46
1, 49748, Note_on_c, 9, 51, 56
1, 49752, Note_on_c, 0, 56, 55
1, 49763, Note_on_c, 9, 51, 0
1, 49771, Note_on_c, 9, 35, 0
1, 49785, Note_on_c, 0, 56, 0
1, 49803, Note_on_c, 1, 39, 76
1, 49809, Note_on_c, 0, 60, 54
1, 49813, Note_on_c, 9, 75, 80
1, 49813, Note_on_c, 9, 51, 39
1, 49813, Note_on_c, 9, 64, 87
1, 49821, Note_on_c, 9, 51, 0
1, 49837, Note_on_c, 9, 64, 0
1, 49840, Note_on_c, 9, 75, 0
1, 49855, Note_on_c, 0, 60, 0
1, 49860, Note_on_c, 9, 49, 44
1, 49864, Note_on_c, 9, 35, 60
1, 49867, Note_on_c, 9, 51, 88
1, 49871, Note_on_c, 9, 64, 79
1, 49877, Note_on_c, 0, 62, 56
1, 49887, Note_on_c, 1, 39, 0
1, 49888, Note_on_c, 9, 35, 0
1, 49894, Note_on_c, 9, 51, 0
1, 49903, Note_on_c, 0, 62, 0
1, 49916, Note_on_c, 9, 64, 0
1, 49924, Note_on_c, 9, 35, 41
1, 49925, Note_on_c, 1, 38, 80
1, 49925, Note_on_c, 9, 49, 36
1, 49926, Note_on_c, 9, 51, 64
1, 49928, Note_on_c, 0, 60, 46
1, 49929, Note_on_c, 0, 56, 31
1, 49940, Note_on_c, 9, 51, 0
1, 49941, Note_on_c, 0, 63, 45
1, 49942, Note_on_c, 0, 60, 0
1, 49951, Note_on_c, 9, 35, 0
1, 49980, Note_on_c, 0, 56, 0
1, 50028, Note_on_c, 0, 63, 0
1, 50039, Note_on_c, 0, 62, 46
1, 50047, Note_on_c, 9, 75, 77
1, 50047, Note_on_c, 9, 63, 69
1, 50049, Note_on_c, 9, 62, 82
1, 50056, Note_on_c, 9, 51, 56
1, 50064, Note_on_c, 9, 51, 0
1, 50072, Note_on_c, 9, 75, 0
1, 50075, Note_on_c, 9, 62, 0
1, 50096, Note_on_c, 0, 62, 0
1, 50101, Note_on_c, 9, 63, 0
1, 50104, Note_on_c, 9, 35, 54
1, 50110, Note_on_c, 1, 44, 79
1, 50112, Note_on_c, 0, 62, 66
1, 50114, Note_on_c, 9, 51, 94
1, 50120, Note_on_c, 0, 56, 29
1, 50127, Note_on_c, 9, 35, 0
1, 50142, Note_on_c, 0, 56, 0
1, 50151, Note_on_c, 9, 51, 0
1, 50164, Note_on_c, 9, 35, 44
1, 50167, Note_on_c, 9, 75, 83
1, 50172, Note_on_c, 1, 44, 0
1, 50195, Note_on_c, 9, 75, 0
1, 50198, Note_on_c, 9, 35, 0
1, 50218, Note_on_c, 0, 62, 0
1, 50226, Note_on_c, 0, 60, 68
1, 50230, Note_on_c, 9, 64, 95
1, 50231, Note_on_c, 9, 51, 54
1, 50239, Note_on_c, 9, 51, 0
1, 50259, Note_on_c, 0, 60, 0
1, 50267, Note_on_c, 9, 64, 0
1, 50282, Note_on_c, 1, 48, 110
1, 50287, Note_on_c, 0, 56, 47
1, 50291, Note_on_c, 9, 51, 95
1, 50305, Note_on_c, 1, 38, 0
1, 50325, Note_on_c, 9, 51, 0
1, 50331, Note_on_c, 9, 49, 0
1, 50336, Note_on_c, 9, 64, 83
1, 50344, Note_on_c, 9, 35, 45
1, 50367, Note_on_c, 9, 35, 0
1, 50368, Note_on_c, 9, 64, 0
1, 50373, Note_on_c, 0, 56, 0
1, 50404, Note_on_c, 9, 35, 52
1, 50405, Note_on_c, 0, 56, 46
1, 50408, Note_on_c, 9, 51, 28
1, 50409, Note_on_c, 9, 75, 80
1, 50416, Note_on_c, 9, 51, 0
1, 50434, Note_on_c, 9, 35, 0
1, 50435, Note_on_c, 9, 75, 0
1, 50467, Note_on_c, 9, 51, 65
1, 50470, Note_on_c, 0, 56, 0
1, 50485, Note_on_c, 9, 51, 0
1, 50493, Note_on_c, 9, 49, 0
1, 50514, Note_on_c, 1, 38, 43
1, 50527, Note_on_c, 9, 63, 76
1, 50529, Note_on_c, 1, 38, 0
1, 50529, Note_on_c, 9, 62, 81
1, 50532, Note_on_c, 9, 51, 34
1, 50541, Note_on_c, 9, 51, 0
1, 50550, Note_on_c, 9, 62, 0
1, 50581, Note_on_c, 9, 63, 0
1, 50584, Note_on_c, 1, 44, 83
1, 50584, Note_on_c, 9, 35, 50
1, 50588, Note_on_c, 9, 51, 69
1, 50590, Note_on_c, 9, 75, 80
1, 50601, Note_on_c, 1, 48, 0
1, 50604, Note_on_c, 9, 51, 0
1, 50604, Note_on_c, 0, 60, 47
1, 50606, Note_on_c, 0, 56, 32
1, 50608, Note_on_c, 9, 35, 0
1, 50616, Note_on_c, 9, 75, 0
1, 50619, Note_on_c, 0, 60, 0
1, 50642, Note_on_c, 0, 56, 0
1, 50644, Note_on_c, 9, 35, 47
1, 50649, Note_on_c, 9, 51, 77
1, 50667, Note_on_c, 9, 51, 0
1, 50673, Note_on_c, 9, 35, 0
1, 50704, Note_on_c, 9, 35, 46
1, 50706, Note_on_c, 9, 64, 89
1, 50707, Note_on_c, 9, 51, 76
1, 50721, Note_on_c, 9, 62, 31
1, 50726, Note_on_c, 9, 51, 0
1, 50732, Note_on_c, 9, 62, 0
1, 50734, Note_on_c, 9, 35, 0
1, 50746, Note_on_c, 1, 44, 0
1, 50751, Note_on_c, 9, 64, 0
1, 50757, Note_on_c, 1, 31, 95
1, 50765, Note_on_c, 9, 51, 92
1, 50770, Note_on_c, 9, 75, 81
1, 50796, Note_on_c, 9, 75, 0
1, 50824, Note_on_c, 9, 35, 42
1, 50829, Note_on_c, 9, 64, 87
1, 50839, Note_on_c, 0, 65, 46
1, 50840, Note_on_c, 9, 51, 0
1, 50845, Note_on_c, 0, 56, 30
1, 50850, Note_on_c, 9, 35, 0
1, 50852, Note_on_c, 0, 65, 0
1, 50853, Note_on_c, 9, 64, 0
1, 50853, Note_on_c, 0, 55, 22
1, 50865, Note_on_c, 0, 55, 0
1, 50872, Note_on_c, 9, 49, 44
1, 50882, Note_on_c, 0, 56, 0
1, 50884, Note_on_c, 9, 35, 50
1, 50886, Note_on_c, 9, 51, 69
1, 50905, Note_on_c, 9, 51, 0
1, 50906, Note_on_c, 9, 49, 0
1, 50911, Note_on_c, 9, 35, 0
1, 50942, Note_on_c, 9, 51, 59
1, 50956, Note_on_c, 9, 51, 0
1, 50999, Note_on_c, 0, 61, 37
1, 51000, Note_on_c, 9, 51, 53
1, 51002, Note_on_c, 0, 65, 47
1, 51005, Note_on_c, 0, 56, 34
1, 51005, Note_on_c, 9, 63, 63
1, 51005, Note_on_c, 9, 62, 80
1, 51009, Note_on_c, 9, 51, 0
1, 51009, Note_on_c, 9, 75, 78
1, 51013, Note_on_c, 0, 55, 24
1, 51017, Note_on_c, 0, 65, 0
1, 51023, Note_on_c, 0, 55, 0
1, 51029, Note_on_c, 9, 62, 0
1, 51033, Note_on_c, 0, 61, 0
1, 51033, Note_on_c, 9, 75, 0
1, 51039, Note_on_c, 9, 63, 0
1, 51039, Note_on_c, 0, 56, 0
1, 51062, Note_on_c, 1, 43, 88
1, 51063, Note_on_c, 9, 51, 87
1, 51064, Note_on_c, 9, 35, 49
1, 51067, Note_on_c, 9, 63, 69
1, 51068, Note_on_c, 9, 62, 53
1, 51087, Note_on_c, 9, 35, 0
1, 51093, Note_on_c, 9, 62, 0
1, 51098, Note_on_c, 1, 43, 0
1, 51107, Note_on_c, 9, 63, 0
1, 51120, Note_on_c, 0, 79, 71
1, 51124, Note_on_c, 9, 35, 41
1, 51129, Note_on_c, 9, 75, 78
1, 51145, Note_on_c, 9, 51, 0
1, 51154, Note_on_c, 9, 35, 0
1, 51155, Note_on_c, 9, 75, 0
1, 51156, Note_on_c, 0, 79, 0
1, 51180, Note_on_c, 9, 51, 51
1, 51181, Note_on_c, 9, 64, 78
1, 51186, Note_on_c, 0, 61, 47
1, 51188, Note_on_c, 0, 80, 73
1, 51189, Note_on_c, 9, 51, 0
1, 51190, Note_on_c, 0, 65, 52
1, 51197, Note_on_c, 0, 56, 25
1, 51201, Note_on_c, 0, 65, 0
1, 51207, Note_on_c, 9, 64, 0
1, 51218, Note_on_c, 0, 80, 0
1, 51219, Note_on_c, 0, 61, 0
1, 51226, Note_on_c, 0, 56, 0
1, 51234, Note_on_c, 9, 64, 74
1, 51240, Note_on_c, 9, 51, 85
1, 51247, Note_on_c, 1, 43, 94
1, 51249, Note_on_c, 0, 82, 60
1, 51279, Note_on_c, 0, 82, 0
1, 51293, Note_on_c, 9, 64, 0
1, 51304, Note_on_c, 9, 35, 53
1, 51305, Note_on_c, 9, 51, 0
1, 51323, Note_on_c, 0, 61, 20
1, 51326, Note_on_c, 9, 35, 0
1, 51333, Note_on_c, 0, 61, 0
1, 51353, Note_on_c, 9, 51, 33
1, 51362, Note_on_c, 9, 75, 71
1, 51363, Note_on_c, 9, 51, 0
1, 51364, Note_on_c, 9, 35, 40
1, 51388, Note_on_c, 9, 75, 0
1, 51394, Note_on_c, 9, 35, 0
1, 51424, Note_on_c, 9, 51, 83
1, 51426, Note_on_c, 0, 61, 59
1, 51428, Note_on_c, 0, 65, 61
1, 51431, Note_on_c, 1, 31, 0
1, 51431, Note_on_c, 0, 56, 38
1, 51440, Note_on_c, 0, 65, 0
1, 51452, Note_on_c, 0, 61, 0
1, 51464, Note_on_c, 0, 56, 0
1, 51485, Note_on_c, 1, 34, 72
1, 51488, Note_on_c, 9, 62, 85
1, 51489, Note_on_c, 9, 63, 51
1, 51496, Note_on_c, 9, 51, 0
1, 51506, Note_on_c, 1, 43, 0
1, 51508, Note_on_c, 9, 63, 0
1, 51511, Note_on_c, 9, 62, 0
1, 51530, Note_on_c, 1, 34, 0
1, 51544, Note_on_c, 9, 35, 49
1, 51545, Note_on_c, 0, 61, 68
1, 51546, Note_on_c, 0, 65, 81
1, 51547, Note_on_c, 9, 51, 25
1, 51549, Note_on_c, 0, 85, 84
1, 51549, Note_on_c, 9, 75, 69
1, 51550, Note_on_c, 0, 56, 44
1, 51550, Note_on_c, 0, 73, 77
1, 51554, Note_on_c, 0, 55, 48
1, 51555, Note_on_c, 9, 51, 0
1, 51563, Note_on_c, 0, 86, 67
1, 51564, Note_on_c, 0, 55, 0
1, 51566, Note_on_c, 0, 73, 0
1, 51568, Note_on_c, 9, 35, 0
1, 51570, Note_on_c, 0, 74, 36
1, 51572, Note_on_c, 0, 85, 0
1, 51572, Note_on_c, 9, 75, 0
1, 51575, Note_on_c, 0, 65, 0
1, 51582, Note_on_c, 0, 56, 0
1, 51589, Note_on_c, 0, 74, 0
1, 51590, Note_on_c, 0, 86, 0
1, 51591, Note_on_c, 0, 55, 18
1, 51599, Note_on_c, 1, 35, 80
1, 51604, Note_on_c, 9, 35, 40
1, 51607, Note_on_c, 0, 55, 0
1, 51616, Note_on_c, 9, 51, 77
1, 51628, Note_on_c, 9, 51, 0
1, 51629, Note_on_c, 0, 85, 57
1, 51633, Note_on_c, 9, 35, 0
1, 51633, Note_on_c, 0, 61, 0
1, 51634, Note_on_c, 0, 73, 56
1, 51640, Note_on_c, 0, 86, 62
1, 51650, Note_on_c, 0, 84, 26
1, 51652, Note_on_c, 0, 85, 0
1, 51654, Note_on_c, 0, 73, 0
1, 51655, Note_on_c, 0, 74, 75
1, 51664, Note_on_c, 9, 35, 46
1, 51674, Note_on_c, 9, 51, 95
1, 51680, Note_on_c, 0, 74, 0
1, 51680, Note_on_c, 0, 86, 0
1, 51685, Note_on_c, 0, 84, 0
1, 51695, Note_on_c, 9, 35, 0
1, 51696, Note_on_c, 9, 51, 0
1, 51696, Note_on_c, 0, 61, 33
1, 51700, Note_on_c, 0, 65, 41
1, 51711, Note_on_c, 0, 56, 17
1, 51712, Note_on_c, 0, 65, 0
1, 51723, Note_on_c, 0, 61, 0
1, 51728, Note_on_c, 9, 75, 80
1, 51729, Note_on_c, 0, 83, 44
1, 51729, Note_on_c, 0, 71, 47
1, 51732, Note_on_c, 0, 56, 0
1, 51734, Note_on_c, 9, 64, 88
1, 51740, Note_on_c, 0, 71, 0
1, 51752, Note_on_c, 0, 83, 0
1, 51757, Note_on_c, 9, 75, 0
1, 51764, Note_on_c, 9, 64, 0
1, 51784, Note_on_c, 9, 35, 50
1, 51791, Note_on_c, 9, 51, 55
1, 51791, Note_on_c, 9, 64, 80
1, 51796, Note_on_c, 0, 62, 50
1, 51797, Note_on_c, 0, 85, 70
1, 51798, Note_on_c, 0, 73, 64
1, 51800, Note_on_c, 0, 51, 42
1, 51802, Note_on_c, 9, 51, 0
1, 51802, Note_on_c, 0, 55, 47
1, 51804, Note_on_c, 0, 57, 45
1, 51805, Note_on_c, 0, 86, 66
1, 51809, Note_on_c, 9, 35, 0
1, 51817, Note_on_c, 0, 85, 0
1, 51824, Note_on_c, 0, 62, 0
1, 51825, Note_on_c, 0, 73, 0
1, 51826, Note_on_c, 1, 35, 0
1, 51826, Note_on_c, 0, 74, 54
1, 51828, Note_on_c, 0, 51, 0
1, 51838, Note_on_c, 9, 64, 0
1, 51841, Note_on_c, 0, 55, 0
1, 51842, Note_on_c, 0, 57, 0
1, 51844, Note_on_c, 1, 36, 79
1, 51844, Note_on_c, 9, 35, 50
1, 51844, Note_on_c, 9, 49, 42
1, 51849, Note_on_c, 9, 51, 86
1, 51871, Note_on_c, 9, 35, 0
1, 51872, Note_on_c, 1, 36, 0
1, 51889, Note_on_c, 0, 74, 0
1, 51890, Note_on_c, 0, 86, 0
1, 51918, Note_on_c, 9, 51, 0
1, 51923, Note_on_c, 0, 57, 22
1, 51927, Note_on_c, 0, 71, 50
1, 51935, Note_on_c, 0, 57, 0
1, 51937, Note_on_c, 0, 71, 0
1, 51962, Note_on_c, 9, 51, 49
1, 51967, Note_on_c, 9, 75, 79
1, 51970, Note_on_c, 9, 63, 71
1, 51972, Note_on_c, 9, 51, 0
1, 51973, Note_on_c, 1, 36, 89
1, 51973, Note_on_c, 9, 62, 78
1, 51975, Note_on_c, 0, 84, 62
1, 51976, Note_on_c, 0, 72, 62
1, 51986, Note_on_c, 9, 62, 0
1, 51992, Note_on_c, 9, 75, 0
1, 52003, Note_on_c, 9, 63, 0
1, 52024, Note_on_c, 9, 35, 50
1, 52030, Note_on_c, 0, 84, 0
1, 52032, Note_on_c, 9, 51, 84
1, 52036, Note_on_c, 0, 72, 0
1, 52045, Note_on_c, 9, 35, 0
1, 52060, Note_on_c, 9, 51, 0
1, 52084, Note_on_c, 9, 35, 56
1, 52093, Note_on_c, 9, 75, 80
1, 52093, Note_on_c, 9, 51, 67
1, 52096, Note_on_c, 0, 84, 68
1, 52102, Note_on_c, 0, 72, 60
1, 52114, Note_on_c, 9, 35, 0
1, 52121, Note_on_c, 9, 75, 0
1, 52133, Note_on_c, 0, 72, 0
1, 52150, Note_on_c, 9, 51, 0
1, 52152, Note_on_c, 0, 84, 0
1, 52203, Note_on_c, 9, 51, 53
1, 52208, Note_on_c, 1, 36, 0
1, 52208, Note_on_c, 9, 64, 84
1, 52210, Note_on_c, 1, 43, 59
1, 52211, Note_on_c, 9, 51, 0
1, 52214, Note_on_c, 0, 79, 62
1, 52223, Note_on_c, 9, 49, 0
1, 52240, Note_on_c, 9, 64, 0
1, 52246, Note_on_c, 1, 43, 0
1, 52257, Note_on_c, 0, 79, 0
1, 52264, Note_on_c, 9, 35, 56
1, 52268, Note_on_c, 9, 64, 74
1, 52272, Note_on_c, 1, 43, 76
1, 52276, Note_on_c, 9, 51, 61
1, 52286, Note_on_c, 9, 35, 0
1, 52295, Note_on_c, 9, 51, 0
1, 52305, Note_on_c, 9, 64, 0
1, 52324, Note_on_c, 9, 35, 40
1, 52325, Note_on_c, 9, 51, 59
1, 52331, Note_on_c, 9, 75, 81
1, 52335, Note_on_c, 0, 59, 33
1, 52335, Note_on_c, 0, 63, 28
1, 52341, Note_on_c, 0, 53, 19
1, 52354, Note_on_c, 9, 35, 0
1, 52359, Note_on_c, 9, 75, 0
1, 52361, Note_on_c, 0, 63, 0
1, 52363, Note_on_c, 0, 53, 0
1, 52376, Note_on_c, 1, 43, 0
1, 52376, Note_on_c, 0, 59, 0
1, 52382, Note_on_c, 9, 51, 0
1, 52384, Note_on_c, 9, 35, 54
1, 52412, Note_on_c, 9, 35, 0
1, 52440, Note_on_c, 9, 51, 83
1, 52450, Note_on_c, 1, 31, 80
1, 52452, Note_on_c, 0, 63, 46
1, 52453, Note_on_c, 9, 63, 69
1, 52456, Note_on_c, 9, 62, 79
1, 52458, Note_on_c, 0, 59, 46
1, 52460, Note_on_c, 0, 53, 34
1, 52466, Note_on_c, 0, 56, 23
1, 52480, Note_on_c, 9, 51, 0
1, 52481, Note_on_c, 9, 62, 0
1, 52490, Note_on_c, 9, 63, 0
1, 52493, Note_on_c, 0, 63, 0
1, 52498, Note_on_c, 0, 53, 0
1, 52503, Note_on_c, 0, 59, 0
1, 52504, Note_on_c, 9, 35, 46
1, 52509, Note_on_c, 9, 75, 80
1, 52528, Note_on_c, 0, 56, 0
1, 52529, Note_on_c, 9, 35, 0
1, 52529, Note_on_c, 9, 51, 50
1, 52534, Note_on_c, 9, 75, 0
1, 52539, Note_on_c, 9, 51, 0
1, 52564, Note_on_c, 9, 35, 40
1, 52566, Note_on_c, 9, 51, 67
1, 52577, Note_on_c, 1, 31, 0
1, 52594, Note_on_c, 9, 35, 0
1, 52622, Note_on_c, 1, 31, 76
1, 52624, Note_on_c, 9, 35, 50
1, 52634, Note_on_c, 9, 51, 0
1, 52635, Note_on_c, 0, 63, 54
1, 52637, Note_on_c, 0, 53, 47
1, 52638, Note_on_c, 0, 59, 48
1, 52651, Note_on_c, 9, 35, 0
1, 52652, Note_on_c, 1, 31, 0
1, 52654, Note_on_c, 0, 56, 19
1, 52672, Note_on_c, 9, 64, 78
1, 52673, Note_on_c, 1, 31, 64
1, 52674, Note_on_c, 0, 59, 0
1, 52679, Note_on_c, 0, 53, 0
1, 52680, Note_on_c, 9, 51, 86
1, 52691, Note_on_c, 0, 63, 0
1, 52691, Note_on_c, 9, 75, 83
1, 52701, Note_on_c, 9, 64, 0
1, 52722, Note_on_c, 9, 75, 0
1, 52734, Note_on_c, 0, 56, 0
1, 52738, Note_on_c, 9, 64, 69
1, 52744, Note_on_c, 9, 35, 54
1, 52751, Note_on_c, 9, 51, 0
1, 52768, Note_on_c, 9, 35, 0
1, 52769, Note_on_c, 1, 31, 0
1, 52776, Note_on_c, 9, 64, 0
1, 52796, Note_on_c, 1, 36, 91
1, 52798, Note_on_c, 9, 51, 82
1, 52799, Note_on_c, 0, 62, 57
1, 52802, Note_on_c, 0, 51, 45
1, 52802, Note_on_c, 9, 49, 36
1, 52804, Note_on_c, 9, 35, 57
1, 52809, Note_on_c, 0, 55, 38
1, 52809, Note_on_c, 0, 57, 40
1, 52828, Note_on_c, 0, 57, 0
1, 52830, Note_on_c, 0, 62, 0
1, 52831, Note_on_c, 9, 35, 0
1, 52834, Note_on_c, 0, 55, 0
1, 52842, Note_on_c, 9, 51, 0
1, 52844, Note_on_c, 0, 51, 0
1, 52869, Note_on_c, 9, 51, 58
1, 52887, Note_on_c, 9, 51, 0
1, 52918, Note_on_c, 0, 89, 92
1, 52919, Note_on_c, 0, 86, 103
1, 52928, Note_on_c, 9, 75, 80
1, 52928, Note_on_c, 9, 51, 65
1, 52931, Note_on_c, 9, 63, 65
1, 52934, Note_on_c, 9, 62, 73
1, 52940, Note_on_c, 1, 36, 0
1, 52944, Note_on_c, 9, 51, 0
1, 52948, Note_on_c, 9, 62, 0
1, 52952, Note_on_c, 0, 86, 0
1, 52953, Note_on_c, 9, 75, 0
1, 52960, Note_on_c, 9, 63, 0
1, 52961, Note_on_c, 0, 89, 0
1, 52984, Note_on_c, 9, 35, 63
1, 52987, Note_on_c, 1, 36, 99
1, 52990, Note_on_c, 9, 51, 95
1, 52991, Note_on_c, 9, 62, 71
1, 52992, Note_on_c, 0, 89, 64
1, 52992, Note_on_c, 0, 86, 78
1, 52992, Note_on_c, 9, 63, 64
1, 53005, Note_on_c, 9, 35, 0
1, 53022, Note_on_c, 9, 62, 0
1, 53027, Note_on_c, 0, 62, 24
1, 53028, Note_on_c, 0, 89, 0
1, 53028, Note_on_c, 0, 86, 0
1, 53036, Note_on_c, 9, 63, 0
1, 53037, Note_on_c, 0, 62, 0
1, 53041, Note_on_c, 0, 57, 27
1, 53044, Note_on_c, 9, 35, 52
1, 53049, Note_on_c, 9, 75, 79
1, 53056, Note_on_c, 0, 89, 70
1, 53057, Note_on_c, 0, 86, 79
1, 53059, Note_on_c, 0, 57, 0
1, 53060, Note_on_c, 9, 51, 0
1, 53073, Note_on_c, 9, 35, 0
1, 53077, Note_on_c, 9, 75, 0
1, 53106, Note_on_c, 9, 51, 60
1, 53115, Note_on_c, 0, 89, 0
1, 53118, Note_on_c, 0, 86, 0
1, 53123, Note_on_c, 9, 51, 0
1, 53129, Note_on_c, 1, 36, 0
1, 53141, Note_on_c, 0, 87, 50
1, 53149, Note_on_c, 0, 84, 36
1, 53164, Note_on_c, 0, 84, 0
1, 53164, Note_on_c, 9, 51, 84
1, 53170, Note_on_c, 9, 64, 87
1, 53171, Note_on_c, 1, 36, 99
1, 53179, Note_on_c, 0, 87, 0
1, 53196, Note_on_c, 9, 64, 0
1, 53206, Note_on_c, 9, 51, 0
1, 53224, Note_on_c, 9, 35, 61
1, 53227, Note_on_c, 0, 86, 95
1, 53229, Note_on_c, 0, 62, 64
1, 53229, Note_on_c, 0, 89, 81
1, 53230, Note_on_c, 9, 49, 0
1, 53233, Note_on_c, 0, 51, 39
1, 53233, Note_on_c, 9, 64, 75
1, 53235, Note_on_c, 0, 57, 52
1, 53241, Note_on_c, 9, 51, 87
1, 53249, Note_on_c, 9, 35, 0
1, 53253, Note_on_c, 0, 62, 0
1, 53257, Note_on_c, 0, 51, 0
1, 53271, Note_on_c, 0, 86, 0
1, 53274, Note_on_c, 9, 64, 0
1, 53274, Note_on_c, 0, 89, 0
1, 53276, Note_on_c, 9, 75, 77
1, 53284, Note_on_c, 9, 35, 52
1, 53300, Note_on_c, 9, 75, 0
1, 53307, Note_on_c, 0, 86, 87
1, 53308, Note_on_c, 0, 89, 71
1, 53311, Note_on_c, 9, 51, 0
1, 53318, Note_on_c, 9, 35, 0
1, 53321, Note_on_c, 0, 57, 0
1, 53344, Note_on_c, 9, 35, 54
1, 53355, Note_on_c, 9, 51, 80
1, 53366, Note_on_c, 0, 89, 0
1, 53372, Note_on_c, 9, 35, 0
1, 53373, Note_on_c, 0, 86, 0
1, 53400, Note_on_c, 0, 87, 49
1, 53400, Note_on_c, 0, 84, 50
1, 53404, Note_on_c, 9, 51, 0
1, 53411, Note_on_c, 9, 63, 61
1, 53414, Note_on_c, 9, 62, 71
1, 53418, Note_on_c, 0, 84, 0
1, 53427, Note_on_c, 0, 87, 0
1, 53435, Note_on_c, 9, 62, 0
1, 53444, Note_on_c, 9, 63, 0
1, 53464, Note_on_c, 9, 35, 58
1, 53469, Note_on_c, 9, 51, 83
1, 53475, Note_on_c, 9, 62, 64
1, 53476, Note_on_c, 9, 63, 59
1, 53477, Note_on_c, 9, 75, 77
1, 53488, Note_on_c, 9, 35, 0
1, 53493, Note_on_c, 0, 86, 105
1, 53494, Note_on_c, 0, 89, 88
1, 53495, Note_on_c, 0, 62, 60
1, 53498, Note_on_c, 0, 57, 53
1, 53501, Note_on_c, 9, 75, 0
1, 53501, Note_on_c, 0, 51, 29
1, 53502, Note_on_c, 0, 55, 45
1, 53504, Note_on_c, 9, 62, 0
1, 53514, Note_on_c, 0, 62, 0
1, 53516, Note_on_c, 0, 55, 0
1, 53518, Note_on_c, 9, 63, 0
1, 53524, Note_on_c, 9, 35, 52
1, 53525, Note_on_c, 0, 51, 0
1, 53534, Note_on_c, 0, 57, 0
1, 53541, Note_on_c, 0, 86, 0
1, 53548, Note_on_c, 0, 89, 0
1, 53552, Note_on_c, 9, 35, 0
1, 53552, Note_on_c, 9, 51, 0
1, 53584, Note_on_c, 9, 35, 53
1, 53592, Note_on_c, 9, 51, 69
1, 53604, Note_on_c, 0, 87, 83
1, 53607, Note_on_c, 0, 84, 78
1, 53611, Note_on_c, 9, 35, 0
1, 53613, Note_on_c, 0, 55, 54
1, 53614, Note_on_c, 9, 51, 0
1, 53615, Note_on_c, 0, 62, 48
1, 53619, Note_on_c, 0, 57, 33
1, 53629, Note_on_c, 0, 62, 0
1, 53631, Note_on_c, 0, 57, 0
1, 53635, Note_on_c, 0, 55, 0
1, 53649, Note_on_c, 0, 84, 0
1, 53649, Note_on_c, 9, 64, 83
1, 53655, Note_on_c, 9, 75, 79
1, 53656, Note_on_c, 9, 51, 55
1, 53660, Note_on_c, 0, 87, 0
1, 53667, Note_on_c, 9, 51, 0
1, 53682, Note_on_c, 9, 64, 0
1, 53686, Note_on_c, 9, 75, 0
1, 53704, Note_on_c, 9, 35, 58
1, 53711, Note_on_c, 9, 51, 84
1, 53712, Note_on_c, 0, 86, 85
1, 53713, Note_on_c, 0, 89, 77
1, 53717, Note_on_c, 9, 64, 74
1, 53728, Note_on_c, 9, 35, 0
1, 53735, Note_on_c, 0, 86, 0
1, 53741, Note_on_c, 9, 51, 0
1, 53746, Note_on_c, 1, 36, 0
1, 53750, Note_on_c, 0, 89, 0
1, 53754, Note_on_c, 9, 64, 0
1, 53762, Note_on_c, 1, 43, 79
1, 53763, Note_on_c, 9, 49, 36
1, 53764, Note_on_c, 9, 35, 53
1, 53765, Note_on_c, 9, 49, 37
1, 53772, Note_on_c, 9, 51, 93
1, 53778, Note_on_c, 0, 62, 38
1, 53780, Note_on_c, 0, 79, 68
1, 53780, Note_on_c, 0, 60, 44
1, 53781, Note_on_c, 0, 91, 71
1, 53782, Note_on_c, 0, 87, 53
1, 53785, Note_on_c, 0, 84, 56
1, 53786, Note_on_c, 0, 56, 32
1, 53787, Note_on_c, 0, 55, 48
1, 53791, Note_on_c, 9, 35, 0
1, 53820, Note_on_c, 9, 51, 0
1, 53832, Note_on_c, 0, 79, 0
1, 53833, Note_on_c, 0, 84, 0
1, 53835, Note_on_c, 0, 91, 0
1, 53838, Note_on_c, 0, 87, 0
1, 53842, Note_on_c, 0, 62, 0
1, 53843, Note_on_c, 0, 55, 0
1, 53870, Note_on_c, 0, 56, 0
1, 53889, Note_on_c, 0, 60, 0
1, 53890, Note_on_c, 9, 59, 75
1, 53890, Note_on_c, 9, 63, 58
1, 53894, Note_on_c, 0, 78, 53
1, 53894, Note_on_c, 0, 90, 44
1, 53896, Note_on_c, 9, 75, 76
1, 53900, Note_on_c, 0, 84, 39
1, 53902, Note_on_c, 0, 87, 37
1, 53921, Note_on_c, 9, 75, 0
1, 53925, Note_on_c, 9, 63, 0
1, 53928, Note_on_c, 9, 59, 0
1, 53931, Note_on_c, 0, 84, 0
1, 53944, Note_on_c, 0, 78, 0
1, 53944, Note_on_c, 9, 35, 57
1, 53945, Note_on_c, 0, 87, 0
1, 53954, Note_on_c, 9, 63, 60
1, 53964, Note_on_c, 0, 90, 0
1, 53964, Note_on_c, 0, 84, 44
1, 53965, Note_on_c, 0, 89, 65
1, 53966, Note_on_c, 0, 77, 38
1, 53968, Note_on_c, 9, 35, 0
1, 53975, Note_on_c, 0, 60, 36
1, 53975, Note_on_c, 0, 62, 31
1, 53982, Note_on_c, 1, 44, 81
1, 53989, Note_on_c, 0, 62, 0
1, 53997, Note_on_c, 0, 77, 0
1, 53997, Note_on_c, 1, 43, 0
1, 53998, Note_on_c, 9, 63, 0
1, 54002, Note_on_c, 0, 60, 0
1, 54004, Note_on_c, 9, 35, 42
1, 54007, Note_on_c, 9, 59, 80
1, 54011, Note_on_c, 0, 84, 0
1, 54015, Note_on_c, 0, 89, 0
1, 54019, Note_on_c, 9, 75, 79
1, 54026, Note_on_c, 9, 59, 0
1, 54027, Note_on_c, 0, 77, 42
1, 54032, Note_on_c, 1, 44, 0
1, 54033, Note_on_c, 9, 35, 0
1, 54047, Note_on_c, 9, 75, 0
1, 54054, Note_on_c, 0, 89, 24
1, 54054, Note_on_c, 0, 84, 28
1, 54055, Note_on_c, 0, 77, 0
1, 54066, Note_on_c, 9, 59, 79
1, 54087, Note_on_c, 9, 59, 0
1, 54087, Note_on_c, 0, 84, 0
1, 54087, Note_on_c, 0, 89, 0
1, 54088, Note_on_c, 0, 77, 37
1, 54113, Note_on_c, 0, 89, 27
1, 54114, Note_on_c, 0, 77, 0
1, 54119, Note_on_c, 0, 84, 47
1, 54130, Note_on_c, 9, 64, 71
1, 54133, Note_on_c, 0, 84, 0
1, 54138, Note_on_c, 0, 89, 0
1, 54141, Note_on_c, 1, 43, 101
1, 54162, Note_on_c, 9, 64, 0
1, 54169, Note_on_c, 9, 49, 0
1, 54184, Note_on_c, 9, 35, 63
1, 54184, Note_on_c, 9, 59, 81
1, 54190, Note_on_c, 9, 64, 62
1, 54209, Note_on_c, 9, 35, 0
1, 54223, Note_on_c, 9, 64, 0
1, 54241, Note_on_c, 9, 59, 0
1, 54244, Note_on_c, 9, 35, 42
1, 54247, Note_on_c, 9, 75, 77
1, 54272, Note_on_c, 9, 75, 0
1, 54275, Note_on_c, 9, 35, 0
1, 54276, Note_on_c, 9, 49, 0
1, 54277, Note_on_c, 0, 56, 32
1, 54280, Note_on_c, 0, 60, 31
1, 54280, Note_on_c, 0, 62, 28
1, 54290, Note_on_c, 0, 62, 0
1, 54291, Note_on_c, 0, 60, 0
1, 54297, Note_on_c, 0, 56, 0
1, 54314, Note_on_c, 9, 59, 76
1, 54338, Note_on_c, 9, 59, 0
1, 54370, Note_on_c, 9, 63, 64
1, 54391, Note_on_c, 0, 62, 60
1, 54393, Note_on_c, 0, 56, 32
1, 54397, Note_on_c, 0, 60, 37
1, 54400, Note_on_c, 9, 63, 0
1, 54401, Note_on_c, 0, 62, 0
1, 54410, Note_on_c, 0, 60, 0
1, 54420, Note_on_c, 0, 56, 0
1, 54422, Note_on_c, 9, 59, 78
1, 54424, Note_on_c, 9, 35, 40
1, 54429, Note_on_c, 9, 63, 60
1, 54439, Note_on_c, 9, 75, 81
1, 54442, Note_on_c, 1, 32, 72
1, 54447, Note_on_c, 1, 43, 0
1, 54448, Note_on_c, 9, 35, 0
1, 54450, Note_on_c, 9, 59, 0
1, 54464, Note_on_c, 9, 63, 0
1, 54464, Note_on_c, 9, 75, 0
1, 54479, Note_on_c, 9, 59, 68
1, 54484, Note_on_c, 9, 35, 53
1, 54511, Note_on_c, 9, 35, 0
1, 54524, Note_on_c, 9, 59, 0
1, 54536, Note_on_c, 9, 49, 41
1, 54544, Note_on_c, 9, 35, 53
1, 54570, Note_on_c, 0, 62, 62
1, 54571, Note_on_c, 9, 49, 0
1, 54571, Note_on_c, 0, 56, 39
1, 54571, Note_on_c, 0, 60, 62
1, 54573, Note_on_c, 9, 35, 0
1, 54581, Note_on_c, 0, 62, 0
1, 54583, Note_on_c, 0, 60, 0
1, 54597, Note_on_c, 0, 56, 0
1, 54600, Note_on_c, 9, 59, 87
1, 54602, Note_on_c, 1, 32, 0
1, 54612, Note_on_c, 9, 64, 68
1, 54613, Note_on_c, 1, 31, 71
1, 54616, Note_on_c, 9, 75, 82
1, 54625, Note_on_c, 9, 59, 0
1, 54635, Note_on_c, 9, 64, 0
1, 54647, Note_on_c, 9, 75, 0
1, 54664, Note_on_c, 9, 35, 58
1, 54672, Note_on_c, 9, 64, 66
1, 54691, Note_on_c, 9, 35, 0
1, 54705, Note_on_c, 9, 64, 0
1, 54721, Note_on_c, 9, 49, 51
1, 54724, Note_on_c, 9, 35, 52
1, 54724, Note_on_c, 9, 59, 87
1, 54734, Note_on_c, 0, 56, 42
1, 54735, Note_on_c, 0, 60, 59
1, 54736, Note_on_c, 0, 62, 50
1, 54747, Note_on_c, 0, 62, 0
1, 54750, Note_on_c, 9, 35, 0
1, 54750, Note_on_c, 9, 59, 0
1, 54755, Note_on_c, 0, 60, 0
1, 54764, Note_on_c, 0, 56, 0
1, 54780, Note_on_c, 9, 49, 0
1, 54842, Note_on_c, 9, 59, 83
1, 54853, Note_on_c, 9, 63, 72
1, 54856, Note_on_c, 9, 75, 80
1, 54866, Note_on_c, 9, 59, 0
1, 54881, Note_on_c, 9, 75, 0
1, 54882, Note_on_c, 9, 63, 0
1, 54898, Note_on_c, 1, 44, 71
1, 54904, Note_on_c, 9, 35, 53
1, 54910, Note_on_c, 0, 56, 53
1, 54910, Note_on_c, 0, 62, 74
1, 54910, Note_on_c, 9, 63, 61
1, 54911, Note_on_c, 0, 60, 66
1, 54920, Note_on_c, 0, 62, 0
1, 54921, Note_on_c, 0, 60, 0
1, 54929, Note_on_c, 9, 35, 0
1, 54934, Note_on_c, 0, 56, 0
1, 54948, Note_on_c, 9, 63, 0
1, 54954, Note_on_c, 0, 90, 35
1, 54958, Note_on_c, 0, 78, 76
1, 54960, Note_on_c, 9, 59, 75
1, 54964, Note_on_c, 9, 35, 50
1, 54976, Note_on_c, 9, 75, 82
1, 54984, Note_on_c, 9, 59, 0
1, 54984, Note_on_c, 0, 91, 27
1, 54992, Note_on_c, 9, 35, 0
1, 54993, Note_on_c, 0, 90, 0
1, 54996, Note_on_c, 0, 78, 0
1, 54998, Note_on_c, 0, 79, 64
1, 55007, Note_on_c, 9, 75, 0
1, 55018, Note_on_c, 1, 38, 42
1, 55020, Note_on_c, 9, 59, 78
1, 55023, Note_on_c, 0, 91, 0
1, 55027, Note_on_c, 0, 79, 0
1, 55036, Note_on_c, 1, 44, 0
1, 55038, Note_on_c, 9, 59, 0
1, 55038, Note_on_c, 1, 38, 0
1, 55038, Note_on_c, 0, 60, 36
1, 55053, Note_on_c, 0, 60, 0
1, 55074, Note_on_c, 0, 89, 85
1, 55076, Note_on_c, 0, 77, 83
1, 55081, Note_on_c, 1, 43, 82
1, 55082, Note_on_c, 9, 64, 82
1, 55109, Note_on_c, 9, 64, 0
1, 55115, Note_on_c, 1, 31, 0
1, 55130, Note_on_c, 0, 77, 0
1, 55132, Note_on_c, 0, 89, 0
1, 55137, Note_on_c, 9, 59, 80
1, 55141, Note_on_c, 9, 64, 68
1, 55144, Note_on_c, 9, 35, 54
1, 55162, Note_on_c, 9, 59, 0
1, 55171, Note_on_c, 9, 35, 0
1, 55175, Note_on_c, 9, 64, 0
1, 55190, Note_on_c, 0, 62, 66
1, 55192, Note_on_c, 0, 87, 83
1, 55194, Note_on_c, 0, 56, 44
1, 55194, Note_on_c, 0, 60, 58
1, 55198, Note_on_c, 9, 75, 83
1, 55198, Note_on_c, 9, 59, 80
1, 55199, Note_on_c, 0, 55, 35
1, 55204, Note_on_c, 9, 35, 40
1, 55209, Note_on_c, 0, 62, 0
1, 55210, Note_on_c, 0, 55, 0
1, 55212, Note_on_c, 0, 60, 0
1, 55228, Note_on_c, 9, 75, 0
1, 55229, Note_on_c, 0, 56, 0
1, 55235, Note_on_c, 9, 35, 0
1, 55244, Note_on_c, 0, 87, 0
1, 55253, Note_on_c, 9, 59, 0
1, 55312, Note_on_c, 0, 83, 74
1, 55312, Note_on_c, 9, 59, 87
1, 55320, Note_on_c, 9, 63, 71
1, 55336, Note_on_c, 0, 83, 0
1, 55341, Note_on_c, 9, 59, 0
1, 55346, Note_on_c, 9, 63, 0
1, 55375, Note_on_c, 9, 75, 80
1, 55379, Note_on_c, 9, 63, 65
1, 55384, Note_on_c, 9, 35, 60
1, 55386, Note_on_c, 1, 35, 78
1, 55387, Note_on_c, 0, 86, 87
1, 55388, Note_on_c, 1, 43, 0
1, 55389, Note_on_c, 0, 56, 39
1, 55390, Note_on_c, 0, 62, 57
1, 55391, Note_on_c, 0, 60, 51
1, 55400, Note_on_c, 0, 55, 31
1, 55403, Note_on_c, 9, 75, 0
1, 55407, Note_on_c, 9, 35, 0
1, 55407, Note_on_c, 0, 62, 0
1, 55411, Note_on_c, 0, 55, 0
1, 55411, Note_on_c, 9, 63, 0
1, 55418, Note_on_c, 0, 60, 0
1, 55430, Note_on_c, 0, 86, 0
1, 55432, Note_on_c, 9, 59, 73
1, 55435, Note_on_c, 0, 56, 0
1, 55444, Note_on_c, 9, 35, 49
1, 55450, Note_on_c, 9, 59, 0
1, 55468, Note_on_c, 9, 35, 0
1, 55494, Note_on_c, 9, 59, 79
1, 55503, Note_on_c, 0, 84, 87
1, 55504, Note_on_c, 0, 56, 51
1, 55504, Note_on_c, 9, 35, 60
1, 55505, Note_on_c, 0, 60, 62
1, 55506, Note_on_c, 0, 62, 63
1, 55511, Note_on_c, 0, 55, 36
1, 55512, Note_on_c, 9, 59, 0
1, 55516, Note_on_c, 0, 62, 0
1, 55521, Note_on_c, 0, 60, 0
1, 55525, Note_on_c, 0, 55, 0
1, 55532, Note_on_c, 9, 35, 0
1, 55544, Note_on_c, 1, 35, 0
1, 55546, Note_on_c, 0, 56, 0
1, 55547, Note_on_c, 9, 75, 83
1, 55557, Note_on_c, 9, 64, 80
1, 55560, Note_on_c, 0, 84, 0
1, 55562, Note_on_c, 1, 36, 85
1, 55580, Note_on_c, 9, 75, 0
1, 55588, Note_on_c, 9, 64, 0
1, 55623, Note_on_c, 9, 59, 78
1, 55624, Note_on_c, 9, 35, 50
1, 55624, Note_on_c, 9, 64, 72
1, 55632, Note_on_c, 0, 79, 53
1, 55641, Note_on_c, 0, 62, 59
1, 55645, Note_on_c, 0, 51, 33
1, 55646, Note_on_c, 9, 59, 0
1, 55648, Note_on_c, 0, 57, 46
1, 55649, Note_on_c, 9, 35, 0
1, 55651, Note_on_c, 0, 62, 0
1, 55656, Note_on_c, 0, 51, 0
1, 55661, Note_on_c, 9, 64, 0
1, 55662, Note_on_c, 0, 79, 0
1, 55666, Note_on_c, 0, 57, 0
1, 55681, Note_on_c, 9, 59, 83
1, 55684, Note_on_c, 9, 35, 50
1, 55685, Note_on_c, 9, 49, 44
1, 55694, Note_on_c, 0, 77, 64
1, 55710, Note_on_c, 9, 35, 0
1, 55734, Note_on_c, 9, 49, 0
1, 55738, Note_on_c, 9, 59, 0
1, 55759, Note_on_c, 0, 77, 0
1, 55792, Note_on_c, 9, 75, 83
1, 55800, Note_on_c, 0, 75, 80
1, 55800, Note_on_c, 9, 59, 81
1, 55816, Note_on_c, 9, 75, 0
1, 55816, Note_on_c, 9, 62, 30
1, 55828, Note_on_c, 9, 62, 0
1, 55830, Note_on_c, 9, 59, 0
1, 55846, Note_on_c, 0, 75, 0
1, 55858, Note_on_c, 1, 43, 66
1, 55864, Note_on_c, 9, 35, 49
1, 55867, Note_on_c, 9, 63, 72
1, 55889, Note_on_c, 9, 35, 0
1, 55895, Note_on_c, 1, 43, 0
1, 55899, Note_on_c, 9, 63, 0
1, 55918, Note_on_c, 0, 55, 50
1, 55918, Note_on_c, 0, 74, 99
1, 55922, Note_on_c, 9, 59, 65
1, 55924, Note_on_c, 9, 35, 53
1, 55924, Note_on_c, 9, 75, 80
1, 55925, Note_on_c, 0, 48, 27
1, 55933, Note_on_c, 0, 55, 0
1, 55938, Note_on_c, 9, 59, 0
1, 55944, Note_on_c, 0, 48, 0
1, 55952, Note_on_c, 9, 35, 0
1, 55952, Note_on_c, 9, 75, 0
1, 55986, Note_on_c, 0, 75, 42
1, 55988, Note_on_c, 9, 59, 71
1, 55990, Note_on_c, 9, 60, 69
1, 55998, Note_on_c, 9, 60, 0
1, 56000, Note_on_c, 0, 74, 0
1, 56013, Note_on_c, 0, 75, 0
1, 56017, Note_on_c, 0, 76, 59
1, 56035, Note_on_c, 1, 51, 86
1, 56049, Note_on_c, 9, 64, 38
1, 56050, Note_on_c, 9, 59, 0
1, 56057, Note_on_c, 0, 76, 0
1, 56059, Note_on_c, 0, 77, 62
1, 56062, Note_on_c, 9, 64, 0
1, 56096, Note_on_c, 0, 77, 0
1, 56100, Note_on_c, 9, 59, 66
1, 56104, Note_on_c, 9, 35, 57
1, 56107, Note_on_c, 9, 64, 75
1, 56111, Note_on_c, 9, 49, 45
1, 56119, Note_on_c, 0, 58, 39
1, 56120, Note_on_c, 0, 55, 41
1, 56120, Note_on_c, 0, 74, 75
1, 56127, Note_on_c, 9, 59, 0
1, 56127, Note_on_c, 0, 48, 26
1, 56129, Note_on_c, 9, 35, 0
1, 56130, Note_on_c, 0, 58, 0
1, 56132, Note_on_c, 0, 55, 0
1, 56136, Note_on_c, 9, 64, 0
1, 56140, Note_on_c, 0, 48, 0
1, 56155, Note_on_c, 0, 74, 0
1, 56155, Note_on_c, 9, 75, 78
1, 56164, Note_on_c, 9, 35, 50
1, 56164, Note_on_c, 9, 59, 81
1, 56168, Note_on_c, 9, 64, 89
1, 56181, Note_on_c, 9, 75, 0
1, 56195, Note_on_c, 9, 35, 0
1, 56222, Note_on_c, 0, 71, 69
1, 56226, Note_on_c, 9, 64, 0
1, 56235, Note_on_c, 9, 59, 0
1, 56250, Note_on_c, 0, 71, 0
1, 56281, Note_on_c, 0, 67, 40
1, 56284, Note_on_c, 9, 59, 60
1, 56285, Note_on_c, 9, 63, 36
1, 56292, Note_on_c, 9, 59, 0
1, 56304, Note_on_c, 9, 63, 0
1, 56322, Note_on_c, 0, 67, 0
1, 56329, Note_on_c, 1, 51, 0
1, 56339, Note_on_c, 1, 50, 74
1, 56344, Note_on_c, 9, 35, 57
1, 56345, Note_on_c, 0, 58, 48
1, 56345, Note_on_c, 9, 59, 91
1, 56346, Note_on_c, 0, 65, 75
1, 56346, Note_on_c, 0, 72, 61
1, 56349, Note_on_c, 0, 55, 40
1, 56349, Note_on_c, 9, 75, 76
1, 56349, Note_on_c, 9, 63, 70
1, 56361, Note_on_c, 0, 58, 0
1, 56362, Note_on_c, 0, 55, 0
1, 56367, Note_on_c, 9, 35, 0
1, 56374, Note_on_c, 9, 75, 0
1, 56380, Note_on_c, 1, 36, 0
1, 56382, Note_on_c, 0, 72, 0
1, 56388, Note_on_c, 0, 65, 0
1, 56395, Note_on_c, 0, 72, 18
1, 56403, Note_on_c, 0, 63, 36
1, 56404, Note_on_c, 9, 35, 58
1, 56408, Note_on_c, 9, 47, 82
1, 56415, Note_on_c, 9, 59, 0
1, 56421, Note_on_c, 9, 63, 0
1, 56428, Note_on_c, 9, 35, 0
1, 56430, Note_on_c, 9, 47, 0
1, 56451, Note_on_c, 0, 72, 0
1, 56462, Note_on_c, 9, 59, 58
1, 56464, Note_on_c, 9, 35, 46
1, 56470, Note_on_c, 9, 47, 62
1, 56474, Note_on_c, 9, 59, 0
1, 56476, Note_on_c, 0, 63, 0
1, 56492, Note_on_c, 9, 35, 0
1, 56495, Note_on_c, 9, 47, 0
1, 56502, Note_on_c, 1, 50, 0
1, 56515, Note_on_c, 9, 64, 68
1, 56519, Note_on_c, 0, 65, 87
1, 56521, Note_on_c, 0, 72, 79
1, 56524, Note_on_c, 1, 48, 76
1, 56525, Note_on_c, 9, 75, 81
1, 56526, Note_on_c, 9, 49, 0
1, 56528, Note_on_c, 9, 59, 36
1, 56530, Note_on_c, 9, 64, 0
1, 56530, Note_on_c, 9, 45, 56
1, 56532, Note_on_c, 9, 57, 40
1, 56538, Note_on_c, 9, 59, 0
1, 56540, Note_on_c, 9, 57, 0
1, 56551, Note_on_c, 9, 75, 0
1, 56552, Note_on_c, 9, 45, 0
1, 56564, Note_on_c, 0, 65, 0
1, 56566, Note_on_c, 0, 72, 0
1, 56584, Note_on_c, 9, 35, 60
1, 56584, Note_on_c, 9, 64, 123
1, 56586, Note_on_c, 9, 59, 80
1, 56589, Note_on_c, 9, 45, 62
1, 56605, Note_on_c, 9, 59, 0
1, 56608, Note_on_c, 9, 35, 0
1, 56616, Note_on_c, 9, 45, 0
1, 56638, Note_on_c, 9, 49, 40
1, 56644, Note_on_c, 9, 35, 79
1, 56645, Note_on_c, 0, 58, 46
1, 56646, Note_on_c, 9, 59, 89
1, 56650, Note_on_c, 9, 64, 0
1, 56650, Note_on_c, 0, 55, 46
1, 56652, Note_on_c, 9, 43, 79
1, 56661, Note_on_c, 0, 55, 0
1, 56668, Note_on_c, 9, 35, 0
1, 56668, Note_on_c, 0, 58, 0
1, 56689, Note_on_c, 9, 43, 0
1, 56708, Note_on_c, 9, 59, 0
1, 56758, Note_on_c, 9, 63, 57
1, 56765, Note_on_c, 9, 75, 72
1, 56769, Note_on_c, 9, 59, 58
1, 56783, Note_on_c, 9, 63, 0
1, 56786, Note_on_c, 9, 59, 0
1, 56792, Note_on_c, 9, 75, 0
1, 56802, Note_on_c, 9, 49, 0
1, 56824, Note_on_c, 9, 35, 49
1, 56824, Note_on_c, 9, 59, 75
1, 56827, Note_on_c, 0, 62, 44
1, 56827, Note_on_c, 1, 43, 71
1, 56828, Note_on_c, 9, 63, 75
1, 56831, Note_on_c, 0, 55, 40
1, 56838, Note_on_c, 0, 57, 30
1, 56849, Note_on_c, 9, 59, 0
1, 56850, Note_on_c, 0, 57, 0
1, 56850, Note_on_c, 0, 62, 0
1, 56851, Note_on_c, 9, 35, 0
1, 56855, Note_on_c, 0, 55, 0
1, 56871, Note_on_c, 9, 63, 0
1, 56883, Note_on_c, 9, 59, 80
1, 56884, Note_on_c, 9, 35, 53
1, 56893, Note_on_c, 9, 75, 78
1, 56895, Note_on_c, 1, 48, 0
1, 56908, Note_on_c, 9, 59, 0
1, 56915, Note_on_c, 9, 35, 0
1, 56922, Note_on_c, 9, 75, 0
1, 56945, Note_on_c, 9, 59, 83
1, 56955, Note_on_c, 1, 43, 0
1, 56971, Note_on_c, 9, 59, 0
1, 56997, Note_on_c, 1, 36, 94
1, 57003, Note_on_c, 0, 59, 43
1, 57003, Note_on_c, 9, 59, 91
1, 57008, Note_on_c, 0, 62, 46
1, 57008, Note_on_c, 0, 51, 33
1, 57011, Note_on_c, 9, 64, 108
1, 57015, Note_on_c, 0, 55, 30
1, 57019, Note_on_c, 0, 62, 0
1, 57030, Note_on_c, 0, 59, 0
1, 57030, Note_on_c, 0, 55, 0
1, 57034, Note_on_c, 0, 51, 0
1, 57064, Note_on_c, 9, 35, 57
1, 57068, Note_on_c, 9, 64, 0
1, 57075, Note_on_c, 9, 59, 0
1, 57089, Note_on_c, 9, 35, 0
1, 57124, Note_on_c, 9, 35, 50
1, 57124, Note_on_c, 9, 59, 74
1, 57126, Note_on_c, 9, 75, 79
1, 57154, Note_on_c, 9, 75, 0
1, 57155, Note_on_c, 9, 35, 0
1, 57164, Note_on_c, 9, 59, 0
1, 57187, Note_on_c, 0, 51, 43
1, 57187, Note_on_c, 0, 59, 49
1, 57191, Note_on_c, 0, 62, 51
1, 57204, Note_on_c, 0, 62, 0
1, 57213, Note_on_c, 0, 51, 0
1, 57218, Note_on_c, 0, 59, 0
1, 57240, Note_on_c, 9, 59, 84
1, 57276, Note_on_c, 9, 59, 0
1, 57290, Note_on_c, 1, 32, 83
1, 57292, Note_on_c, 1, 36, 0
1, 57297, Note_on_c, 9, 63, 73
1, 57304, Note_on_c, 9, 35, 57
1, 57305, Note_on_c, 9, 75, 83
1, 57312, Note_on_c, 0, 83, 34
1, 57326, Note_on_c, 0, 83, 0
1, 57329, Note_on_c, 9, 35, 0
1, 57331, Note_on_c, 9, 75, 0
1, 57359, Note_on_c, 0, 59, 38
1, 57359, Note_on_c, 0, 62, 62
1, 57361, Note_on_c, 0, 51, 45
1, 57362, Note_on_c, 0, 86, 82
1, 57363, Note_on_c, 0, 74, 84
1, 57364, Note_on_c, 9, 35, 58
1, 57366, Note_on_c, 0, 55, 48
1, 57382, Note_on_c, 9, 63, 0
1, 57389, Note_on_c, 9, 35, 0
1, 57417, Note_on_c, 9, 59, 76
1, 57424, Note_on_c, 9, 35, 46
1, 57429, Note_on_c, 0, 62, 0
1, 57431, Note_on_c, 0, 55, 0
1, 57432, Note_on_c, 0, 51, 0
1, 57440, Note_on_c, 9, 63, 19
1, 57442, Note_on_c, 9, 59, 0
1, 57444, Note_on_c, 0, 59, 0
1, 57451, Note_on_c, 9, 63, 0
1, 57452, Note_on_c, 9, 35, 0
1, 57455, Note_on_c, 1, 32, 0
1, 57455, Note_on_c, 0, 74, 0
1, 57459, Note_on_c, 0, 86, 0
1, 57479, Note_on_c, 1, 31, 82
1, 57481, Note_on_c, 9, 59, 59
1, 57487, Note_on_c, 9, 75, 83
1, 57489, Note_on_c, 0, 83, 34
1, 57492, Note_on_c, 9, 64, 90
1, 57496, Note_on_c, 9, 59, 0
1, 57501, Note_on_c, 0, 83, 0
1, 57517, Note_on_c, 9, 75, 0
1, 57541, Note_on_c, 9, 64, 0
1, 57544, Note_on_c, 9, 35, 60
1, 57546, Note_on_c, 9, 59, 91
1, 57548, Note_on_c, 0, 86, 81
1, 57560, Note_on_c, 9, 64, 99
1, 57561, Note_on_c, 0, 62, 48
1, 57566, Note_on_c, 0, 55, 30
1, 57567, Note_on_c, 0, 60, 52
1, 57568, Note_on_c, 9, 35, 0
1, 57570, Note_on_c, 0, 56, 39
1, 57578, Note_on_c, 0, 86, 0
1, 57585, Note_on_c, 0, 62, 0
1, 57588, Note_on_c, 0, 55, 0
1, 57589, Note_on_c, 0, 60, 0
1, 57603, Note_on_c, 9, 64, 0
1, 57604, Note_on_c, 0, 86, 71
1, 57604, Note_on_c, 9, 35, 79
1, 57605, Note_on_c, 9, 49, 35
1, 57606, Note_on_c, 0, 56, 0
1, 57628, Note_on_c, 9, 35, 0
1, 57634, Note_on_c, 9, 59, 0
1, 57645, Note_on_c, 9, 49, 0
1, 57677, Note_on_c, 9, 59, 45
1, 57683, Note_on_c, 0, 86, 0
1, 57687, Note_on_c, 9, 59, 0
1, 57716, Note_on_c, 0, 80, 37
1, 57725, Note_on_c, 9, 49, 82
1, 57726, Note_on_c, 9, 63, 43
1, 57728, Note_on_c, 9, 75, 77
1, 57728, Note_on_c, 9, 59, 62
1, 57739, Note_on_c, 9, 63, 0
1, 57742, Note_on_c, 9, 59, 0
1, 57755, Note_on_c, 0, 80, 0
1, 57755, Note_on_c, 9, 75, 0
1, 57776, Note_on_c, 9, 49, 0
1, 57784, Note_on_c, 9, 35, 52
1, 57790, Note_on_c, 1, 38, 76
1, 57790, Note_on_c, 9, 63, 72
1, 57791, Note_on_c, 9, 59, 84
1, 57793, Note_on_c, 0, 62, 40
1, 57796, Note_on_c, 0, 56, 25
1, 57797, Note_on_c, 0, 60, 34
1, 57804, Note_on_c, 0, 62, 0
1, 57809, Note_on_c, 0, 60, 0
1, 57810, Note_on_c, 9, 35, 0
1, 57814, Note_on_c, 1, 38, 0
1, 57821, Note_on_c, 0, 56, 0
1, 57831, Note_on_c, 9, 63, 0
1, 57844, Note_on_c, 9, 35, 52
1, 57851, Note_on_c, 9, 59, 0
1, 57857, Note_on_c, 9, 75, 80
1, 57887, Note_on_c, 9, 75, 0
1, 57913, Note_on_c, 9, 59, 55
1, 57915, Note_on_c, 0, 86, 84
1, 57928, Note_on_c, 9, 59, 0
1, 57942, Note_on_c, 0, 86, 0
1, 57943, Note_on_c, 9, 35, 0
1, 57957, Note_on_c, 1, 44, 97
1, 57964, Note_on_c, 9, 64, 90
1, 57969, Note_on_c, 9, 59, 73
1, 57985, Note_on_c, 0, 86, 84
1, 57986, Note_on_c, 9, 59, 0
1, 58023, Note_on_c, 9, 64, 0
1, 58024, Note_on_c, 9, 35, 45
1, 58036, Note_on_c, 0, 62, 54
1, 58040, Note_on_c, 9, 59, 68
1, 58041, Note_on_c, 0, 60, 47
1, 58047, Note_on_c, 0, 62, 0
1, 58047, Note_on_c, 9, 35, 0
1, 58050, Note_on_c, 0, 86, 0
1, 58052, Note_on_c, 0, 60, 0
1, 58063, Note_on_c, 9, 59, 0
1, 58084, Note_on_c, 9, 35, 49
1, 58089, Note_on_c, 0, 79, 50
1, 58089, Note_on_c, 9, 75, 77
1, 58114, Note_on_c, 9, 75, 0
1, 58126, Note_on_c, 9, 35, 0
1, 58130, Note_on_c, 0, 79, 0
1, 58152, Note_on_c, 9, 59, 64
1, 58163, Note_on_c, 0, 79, 37
1, 58182, Note_on_c, 9, 59, 0
1, 58184, Note_on_c, 0, 79, 0
1, 58188, Note_on_c, 1, 31, 0
1, 58204, Note_on_c, 9, 63, 67
1, 58206, Note_on_c, 9, 59, 46
1, 58207, Note_on_c, 9, 62, 79
1, 58223, Note_on_c, 9, 62, 0
1, 58231, Note_on_c, 9, 59, 0
1, 58232, Note_on_c, 9, 63, 0
1, 58241, Note_on_c, 1, 38, 83
1, 58257, Note_on_c, 1, 44, 0
1, 58264, Note_on_c, 0, 56, 56
1, 58264, Note_on_c, 0, 62, 80
1, 58264, Note_on_c, 9, 35, 44
1, 58267, Note_on_c, 0, 60, 64
1, 58269, Note_on_c, 0, 55, 54
1, 58269, Note_on_c, 9, 59, 77
1, 58270, Note_on_c, 0, 91, 105
1, 58277, Note_on_c, 0, 60, 0
1, 58279, Note_on_c, 0, 55, 0
1, 58283, Note_on_c, 0, 62, 0
1, 58283, Note_on_c, 9, 62, 85
1, 58286, Note_on_c, 9, 75, 78
1, 58287, Note_on_c, 9, 63, 67
1, 58291, Note_on_c, 9, 35, 0
1, 58298, Note_on_c, 0, 56, 0
1, 58303, Note_on_c, 9, 59, 0
1, 58312, Note_on_c, 0, 91, 0
1, 58313, Note_on_c, 9, 75, 0
1, 58324, Note_on_c, 9, 62, 0
1, 58324, Note_on_c, 9, 35, 47
1, 58326, Note_on_c, 9, 59, 66
1, 58347, Note_on_c, 9, 63, 0
1, 58350, Note_on_c, 0, 91, 83
1, 58357, Note_on_c, 9, 35, 0
1, 58384, Note_on_c, 9, 35, 47
1, 58391, Note_on_c, 9, 59, 0
1, 58395, Note_on_c, 0, 91, 0
1, 58414, Note_on_c, 9, 35, 0
1, 58424, Note_on_c, 1, 38, 0
1, 58437, Note_on_c, 1, 31, 94
1, 58441, Note_on_c, 0, 84, 60
1, 58443, Note_on_c, 9, 64, 83
1, 58450, Note_on_c, 9, 59, 76
1, 58465, Note_on_c, 9, 75, 78
1, 58469, Note_on_c, 0, 84, 0
1, 58491, Note_on_c, 9, 75, 0
1, 58491, Note_on_c, 9, 64, 0
1, 58504, Note_on_c, 9, 35, 40
1, 58506, Note_on_c, 9, 59, 0
1, 58511, Note_on_c, 9, 64, 83
1, 58514, Note_on_c, 0, 62, 49
1, 58519, Note_on_c, 0, 60, 36
1, 58523, Note_on_c, 0, 84, 40
1, 58525, Note_on_c, 0, 62, 0
1, 58530, Note_on_c, 9, 35, 0
1, 58533, Note_on_c, 0, 60, 0
1, 58547, Note_on_c, 0, 84, 0
1, 58551, Note_on_c, 9, 64, 0
1, 58564, Note_on_c, 9, 35, 41
1, 58565, Note_on_c, 9, 59, 70
1, 58592, Note_on_c, 9, 35, 0
1, 58607, Note_on_c, 0, 80, 67
1, 58615, Note_on_c, 9, 59, 0
1, 58647, Note_on_c, 0, 80, 0
1, 58682, Note_on_c, 9, 63, 50
1, 58684, Note_on_c, 9, 62, 64
1, 58686, Note_on_c, 9, 75, 82
1, 58688, Note_on_c, 9, 59, 74
1, 58694, Note_on_c, 0, 62, 51
1, 58695, Note_on_c, 0, 60, 44
1, 58695, Note_on_c, 0, 80, 67
1, 58701, Note_on_c, 0, 56, 18
1, 58706, Note_on_c, 9, 62, 0
1, 58709, Note_on_c, 0, 62, 0
1, 58710, Note_on_c, 9, 75, 0
1, 58718, Note_on_c, 9, 63, 0
1, 58722, Note_on_c, 0, 56, 0
1, 58725, Note_on_c, 0, 60, 0
1, 58744, Note_on_c, 9, 35, 54
1, 58746, Note_on_c, 9, 59, 0
1, 58755, Note_on_c, 1, 44, 83
1, 58759, Note_on_c, 0, 80, 0
1, 58761, Note_on_c, 9, 63, 72
1, 58765, Note_on_c, 9, 62, 87
1, 58767, Note_on_c, 9, 35, 0
1, 58788, Note_on_c, 0, 79, 39
1, 58789, Note_on_c, 1, 44, 0
1, 58795, Note_on_c, 9, 62, 0
1, 58804, Note_on_c, 9, 35, 44
1, 58810, Note_on_c, 9, 75, 80
1, 58811, Note_on_c, 9, 63, 0
1, 58820, Note_on_c, 0, 79, 0
1, 58836, Note_on_c, 9, 75, 0
1, 58838, Note_on_c, 9, 35, 0
1, 58840, Note_on_c, 9, 63, 80
1, 58845, Note_on_c, 9, 62, 60
1, 58857, Note_on_c, 9, 62, 0
1, 58863, Note_on_c, 9, 59, 70
1, 58870, Note_on_c, 0, 79, 63
1, 58875, Note_on_c, 0, 60, 49
1, 58877, Note_on_c, 0, 62, 36
1, 58888, Note_on_c, 0, 62, 0
1, 58891, Note_on_c, 9, 59, 0
1, 58893, Note_on_c, 9, 63, 0
1, 58896, Note_on_c, 0, 60, 0
1, 58905, Note_on_c, 0, 79, 0
1, 58916, Note_on_c, 1, 44, 98
1, 58927, Note_on_c, 9, 59, 55
1, 58933, Note_on_c, 9, 64, 74
1, 58956, Note_on_c, 9, 59, 0
1, 58967, Note_on_c, 9, 64, 0
1, 58984, Note_on_c, 9, 35, 45
1, 58984, Note_on_c, 9, 59, 60
1, 58989, Note_on_c, 0, 56, 53
1, 58989, Note_on_c, 0, 62, 74
1, 58990, Note_on_c, 0, 77, 78
1, 58991, Note_on_c, 0, 79, 79
1, 58992, Note_on_c, 0, 60, 63
1, 59006, Note_on_c, 9, 64, 88
1, 59010, Note_on_c, 9, 35, 0
1, 59012, Note_on_c, 0, 62, 0
1, 59014, Note_on_c, 0, 79, 0
1, 59029, Note_on_c, 0, 56, 0
1, 59029, Note_on_c, 0, 77, 0
1, 59030, Note_on_c, 0, 60, 0
1, 59040, Note_on_c, 9, 75, 83
1, 59044, Note_on_c, 9, 35, 52
1, 59052, Note_on_c, 0, 77, 67
1, 59061, Note_on_c, 9, 59, 0
1, 59061, Note_on_c, 1, 31, 0
1, 59073, Note_on_c, 9, 75, 0
1, 59074, Note_on_c, 9, 35, 0
1, 59084, Note_on_c, 9, 64, 0
1, 59100, Note_on_c, 0, 77, 0
1, 59106, Note_on_c, 1, 43, 88
1, 59108, Note_on_c, 9, 59, 69
1, 59109, Note_on_c, 1, 44, 0
1, 59115, Note_on_c, 0, 72, 68
1, 59123, Note_on_c, 0, 60, 35
1, 59124, Note_on_c, 0, 62, 24
1, 59134, Note_on_c, 0, 62, 0
1, 59134, Note_on_c, 9, 59, 0
1, 59140, Note_on_c, 0, 60, 0
1, 59146, Note_on_c, 0, 72, 0
1, 59168, Note_on_c, 9, 63, 55
1, 59169, Note_on_c, 9, 62, 59
1, 59175, Note_on_c, 0, 68, 32
1, 59190, Note_on_c, 9, 62, 0
1, 59198, Note_on_c, 9, 63, 0
1, 59224, Note_on_c, 9, 35, 50
1, 59225, Note_on_c, 9, 75, 83
1, 59232, Note_on_c, 9, 46, 69
1, 59232, Note_on_c, 9, 59, 68
1, 59236, Note_on_c, 0, 67, 51
1, 59240, Note_on_c, 9, 63, 64
1, 59240, Note_on_c, 9, 62, 67
1, 59241, Note_on_c, 0, 68, 0
1, 59248, Note_on_c, 9, 35, 0
1, 59252, Note_on_c, 9, 46, 0
1, 59253, Note_on_c, 9, 59, 0
1, 59254, Note_on_c, 9, 75, 0
1, 59262, Note_on_c, 0, 67, 0
1, 59267, Note_on_c, 9, 62, 0
1, 59270, Note_on_c, 1, 43, 0
1, 59279, Note_on_c, 9, 63, 0
1, 59279, Note_on_c, 1, 35, 94
1, 59284, Note_on_c, 9, 35, 47
1, 59289, Note_on_c, 0, 70, 85
1, 59291, Note_on_c, 9, 46, 69
1, 59293, Note_on_c, 9, 59, 79
1, 59297, Note_on_c, 0, 62, 43
1, 59307, Note_on_c, 0, 60, 24
1, 59313, Note_on_c, 9, 35, 0
1, 59313, Note_on_c, 0, 56, 21
1, 59316, Note_on_c, 0, 62, 0
1, 59326, Note_on_c, 0, 60, 0
1, 59344, Note_on_c, 9, 35, 46
1, 59352, Note_on_c, 0, 68, 70
1, 59353, Note_on_c, 9, 64, 85
1, 59359, Note_on_c, 9, 46, 0
1, 59361, Note_on_c, 9, 59, 0
1, 59375, Note_on_c, 9, 35, 0
1, 59378, Note_on_c, 0, 70, 0
1, 59382, Note_on_c, 0, 56, 0
1, 59388, Note_on_c, 9, 64, 0
1, 59396, Note_on_c, 0, 68, 0
1, 59406, Note_on_c, 9, 46, 78
1, 59408, Note_on_c, 9, 59, 88
1, 59411, Note_on_c, 0, 67, 54
1, 59413, Note_on_c, 9, 64, 96
1, 59414, Note_on_c, 9, 75, 81
1, 59446, Note_on_c, 9, 75, 0
1, 59446, Note_on_c, 9, 46, 0
1, 59451, Note_on_c, 1, 35, 0
1, 59452, Note_on_c, 9, 59, 0
1, 59458, Note_on_c, 0, 67, 0
1, 59464, Note_on_c, 9, 35, 42
1, 59468, Note_on_c, 1, 36, 99
1, 59483, Note_on_c, 0, 62, 48
1, 59484, Note_on_c, 0, 55, 40
1, 59485, Note_on_c, 9, 64, 0
1, 59489, Note_on_c, 0, 48, 38
1, 59490, Note_on_c, 9, 35, 0
1, 59507, Note_on_c, 0, 48, 0
1, 59509, Note_on_c, 0, 55, 0
1, 59524, Note_on_c, 0, 62, 0
1, 59524, Note_on_c, 9, 35, 50
1, 59531, Note_on_c, 9, 59, 62
1, 59541, Note_on_c, 0, 65, 71
1, 59551, Note_on_c, 9, 35, 0
1, 59563, Note_on_c, 9, 59, 0
1, 59592, Note_on_c, 9, 59, 55
1, 59602, Note_on_c, 0, 65, 0
1, 59606, Note_on_c, 0, 63, 53
1, 59612, Note_on_c, 9, 59, 0
1, 59647, Note_on_c, 9, 59, 58
1, 59649, Note_on_c, 0, 63, 0
1, 59654, Note_on_c, 9, 62, 71
1, 59654, Note_on_c, 9, 63, 53
1, 59656, Note_on_c, 9, 75, 80
1, 59661, Note_on_c, 0, 59, 41
1, 59673, Note_on_c, 9, 59, 0
1, 59678, Note_on_c, 9, 62, 0
1, 59682, Note_on_c, 9, 75, 0
1, 59684, Note_on_c, 9, 63, 0
1, 59704, Note_on_c, 9, 35, 49
1, 59705, Note_on_c, 9, 59, 91
1, 59713, Note_on_c, 0, 59, 0
1, 59717, Note_on_c, 9, 62, 60
1, 59721, Note_on_c, 9, 63, 60
1, 59726, Note_on_c, 0, 62, 73
1, 59727, Note_on_c, 9, 35, 0
1, 59727, Note_on_c, 0, 55, 36
1, 59742, Note_on_c, 0, 55, 0
1, 59753, Note_on_c, 9, 62, 0
1, 59762, Note_on_c, 9, 63, 0
1, 59764, Note_on_c, 9, 35, 41
1, 59781, Note_on_c, 9, 75, 80
1, 59785, Note_on_c, 0, 55, 41
1, 59793, Note_on_c, 9, 59, 0
1, 59794, Note_on_c, 9, 35, 0
1, 59808, Note_on_c, 9, 75, 0
1, 59823, Note_on_c, 9, 59, 47
1, 59830, Note_on_c, 1, 43, 83
1, 59835, Note_on_c, 9, 59, 0
1, 59865, Note_on_c, 0, 55, 0
1, 59881, Note_on_c, 9, 59, 81
1, 59890, Note_on_c, 1, 43, 0
1, 59891, Note_on_c, 0, 55, 72
1, 59901, Note_on_c, 9, 64, 105
1, 59933, Note_on_c, 0, 62, 0
1, 59939, Note_on_c, 9, 64, 0
1, 59944, Note_on_c, 9, 35, 53
1, 59948, Note_on_c, 9, 59, 0
1, 59962, Note_on_c, 0, 55, 0
1, 59964, Note_on_c, 9, 64, 89
1, 59966, Note_on_c, 9, 35, 0
1, 60000, Note_on_c, 9, 59, 69
1, 60004, Note_on_c, 9, 35, 40
1, 60005, Note_on_c, 1, 51, 85
1, 60008, Note_on_c, 9, 75, 79
1, 60014, Note_on_c, 9, 64, 0
1, 60017, Note_on_c, 9, 59, 0
1, 60034, Note_on_c, 9, 35, 0
1, 60039, Note_on_c, 9, 75, 0
1, 60049, Note_on_c, 1, 36, 0
1, 60065, Note_on_c, 9, 59, 77
1, 60078, Note_on_c, 0, 55, 64
1, 60080, Note_on_c, 0, 48, 40
1, 60081, Note_on_c, 0, 58, 42
1, 60090, Note_on_c, 0, 55, 0
1, 60091, Note_on_c, 0, 58, 0
1, 60092, Note_on_c, 0, 48, 0
1, 60104, Note_on_c, 9, 59, 0
1, 60131, Note_on_c, 9, 63, 64
1, 60132, Note_on_c, 9, 62, 79
1, 60167, Note_on_c, 9, 62, 0
1, 60178, Note_on_c, 1, 43, 78
1, 60183, Note_on_c, 9, 59, 79
1, 60184, Note_on_c, 9, 35, 49
1, 60187, Note_on_c, 9, 63, 0
1, 60188, Note_on_c, 9, 75, 79
1, 60209, Note_on_c, 9, 35, 0
1, 60216, Note_on_c, 9, 75, 0
1, 60240, Note_on_c, 9, 59, 0
1, 60244, Note_on_c, 9, 35, 40
1, 60252, Note_on_c, 0, 57, 123
1, 60274, Note_on_c, 9, 35, 0
1, 60285, Note_on_c, 1, 51, 0
1, 60296, Note_on_c, 0, 57, 0
1, 60307, Note_on_c, 9, 59, 58
1, 60311, Note_on_c, 9, 62, 87
1, 60311, Note_on_c, 9, 63, 64
1, 60316, Note_on_c, 0, 57, 72
1, 60317, Note_on_c, 9, 59, 0
1, 60356, Note_on_c, 9, 62, 0
1, 60365, Note_on_c, 1, 43, 0
1, 60366, Note_on_c, 0, 57, 0
1, 60366, Note_on_c, 9, 59, 84
1, 60371, Note_on_c, 9, 63, 0
1, 60371, Note_on_c, 0, 55, 55
1, 60373, Note_on_c, 1, 36, 108
1, 60374, Note_on_c, 9, 75, 81
1, 60405, Note_on_c, 9, 75, 0
1, 60422, Note_on_c, 0, 55, 0
1, 60424, Note_on_c, 9, 35, 50
1, 60428, Note_on_c, 9, 62, 74
1, 60434, Note_on_c, 9, 59, 0
1, 60443, Note_on_c, 0, 62, 87
1, 60449, Note_on_c, 9, 35, 0
1, 60450, Note_on_c, 9, 62, 0
1, 60484, Note_on_c, 9, 35, 50
1, 60494, Note_on_c, 9, 59, 51
1, 60501, Note_on_c, 0, 62, 0
1, 60502, Note_on_c, 9, 62, 94
1, 60504, Note_on_c, 9, 59, 0
1, 60505, Note_on_c, 9, 63, 67
1, 60512, Note_on_c, 9, 35, 0
1, 60551, Note_on_c, 9, 59, 83
1, 60555, Note_on_c, 9, 62, 0
1, 60557, Note_on_c, 0, 62, 89
1, 60568, Note_on_c, 0, 55, 60
1, 60574, Note_on_c, 9, 63, 0
1, 60581, Note_on_c, 0, 55, 0
1, 60611, Note_on_c, 9, 75, 78
1, 60613, Note_on_c, 9, 62, 79
1, 60618, Note_on_c, 9, 59, 0
1, 60634, Note_on_c, 9, 62, 0
1, 60636, Note_on_c, 0, 62, 0
1, 60637, Note_on_c, 9, 75, 0
1, 60664, Note_on_c, 9, 35, 50
1, 60667, Note_on_c, 9, 59, 65
1, 60672, Note_on_c, 0, 57, 89
1, 60677, Note_on_c, 9, 59, 0
1, 60677, Note_on_c, 1, 43, 74
1, 60685, Note_on_c, 9, 35, 0
1, 60693, Note_on_c, 9, 63, 83
1, 60694, Note_on_c, 9, 62, 96
1, 60709, Note_on_c, 0, 57, 0
1, 60717, Note_on_c, 1, 43, 0
1, 60724, Note_on_c, 9, 35, 56
1, 60727, Note_on_c, 9, 59, 83
1, 60730, Note_on_c, 0, 57, 74
1, 60739, Note_on_c, 9, 75, 75
1, 60745, Note_on_c, 9, 62, 0
1, 60754, Note_on_c, 9, 35, 0
1, 60758, Note_on_c, 9, 63, 0
1, 60766, Note_on_c, 9, 75, 0
1, 60792, Note_on_c, 0, 57, 0
1, 60792, Note_on_c, 9, 59, 0
1, 60798, Note_on_c, 9, 62, 73
1, 60799, Note_on_c, 0, 48, 32
1, 60812, Note_on_c, 0, 48, 0
1, 60819, Note_on_c, 9, 62, 0
1, 60836, Note_on_c, 0, 55, 63
1, 60840, Note_on_c, 9, 59, 60
1, 60844, Note_on_c, 1, 51, 85
1, 60851, Note_on_c, 9, 59, 0
1, 60865, Note_on_c, 1, 36, 0
1, 60876, Note_on_c, 9, 62, 99
1, 60884, Note_on_c, 9, 63, 68
1, 60896, Note_on_c, 0, 55, 0
1, 60904, Note_on_c, 9, 35, 56
1, 60906, Note_on_c, 9, 59, 87
1, 60912, Note_on_c, 0, 63, 77
1, 60922, Note_on_c, 9, 62, 0
1, 60930, Note_on_c, 9, 59, 0
1, 60931, Note_on_c, 9, 35, 0
1, 60939, Note_on_c, 9, 63, 0
1, 60959, Note_on_c, 9, 59, 80
1, 60966, Note_on_c, 0, 63, 0
1, 60968, Note_on_c, 9, 75, 78
1, 60982, Note_on_c, 9, 62, 84
1, 60996, Note_on_c, 9, 75, 0
1, 61001, Note_on_c, 9, 62, 0
1, 61024, Note_on_c, 9, 35, 54
1, 61028, Note_on_c, 9, 59, 0
1, 61029, Note_on_c, 0, 63, 71
1, 61033, Note_on_c, 0, 48, 50
1, 61046, Note_on_c, 0, 48, 0
1, 61052, Note_on_c, 9, 35, 0
1, 61058, Note_on_c, 9, 63, 77
1, 61059, Note_on_c, 9, 62, 94
1, 61074, Note_on_c, 0, 63, 0
1, 61082, Note_on_c, 9, 59, 48
1, 61088, Note_on_c, 0, 55, 46
1, 61091, Note_on_c, 9, 59, 0
1, 61099, Note_on_c, 9, 62, 0
1, 61111, Note_on_c, 9, 63, 0
1, 61124, Note_on_c, 0, 55, 0
1, 61142, Note_on_c, 1, 43, 81
1, 61144, Note_on_c, 9, 35, 46
1, 61150, Note_on_c, 9, 75, 77
1, 61150, Note_on_c, 9, 59, 89
1, 61151, Note_on_c, 0, 57, 57
1, 61155, Note_on_c, 9, 62, 81
1, 61164, Note_on_c, 0, 57, 0
1, 61170, Note_on_c, 9, 35, 0
1, 61175, Note_on_c, 9, 62, 0
1, 61177, Note_on_c, 9, 75, 0
1, 61207, Note_on_c, 0, 62, 57
1, 61217, Note_on_c, 9, 62, 81
1, 61218, Note_on_c, 9, 63, 81
1, 61231, Note_on_c, 9, 59, 0
1, 61246, Note_on_c, 0, 62, 0
1, 61258, Note_on_c, 9, 62, 0
1, 61263, Note_on_c, 9, 59, 50
1, 61264, Note_on_c, 9, 35, 50
1, 61267, Note_on_c, 0, 63, 53
1, 61273, Note_on_c, 9, 59, 0
1, 61277, Note_on_c, 9, 63, 0
1, 61280, Note_on_c, 0, 63, 0
1, 61291, Note_on_c, 9, 35, 0
1, 61295, Note_on_c, 1, 43, 0
1, 61304, Note_on_c, 1, 51, 0
1, 61323, Note_on_c, 0, 64, 46
1, 61323, Note_on_c, 1, 36, 118
1, 61325, Note_on_c, 9, 59, 81
1, 61329, Note_on_c, 9, 63, 69
1, 61334, Note_on_c, 9, 62, 64
1, 61335, Note_on_c, 9, 75, 80
1, 61352, Note_on_c, 9, 63, 0
1, 61354, Note_on_c, 9, 62, 0
1, 61355, Note_on_c, 9, 59, 0
1, 61358, Note_on_c, 0, 64, 0
1, 61364, Note_on_c, 9, 75, 0
1, 61384, Note_on_c, 9, 35, 54
1, 61384, Note_on_c, 9, 59, 68
1, 61393, Note_on_c, 0, 67, 75
1, 61402, Note_on_c, 9, 62, 50
1, 61405, Note_on_c, 0, 58, 42
1, 61408, Note_on_c, 9, 59, 0
1, 61408, Note_on_c, 9, 35, 0
1, 61409, Note_on_c, 9, 63, 32
1, 61414, Note_on_c, 9, 62, 0
1, 61420, Note_on_c, 9, 63, 0
1, 61440, Note_on_c, 0, 67, 0
1, 61444, Note_on_c, 9, 35, 57
1, 61445, Note_on_c, 9, 59, 55
1, 61457, Note_on_c, 0, 58, 0
1, 61458, Note_on_c, 0, 66, 38
1, 61465, Note_on_c, 9, 59, 0
1, 61471, Note_on_c, 9, 35, 0
1, 61506, Note_on_c, 0, 66, 0
1, 61509, Note_on_c, 9, 59, 82
1, 61512, Note_on_c, 0, 67, 62
1, 61542, Note_on_c, 0, 67, 0
1, 61553, Note_on_c, 9, 59, 0
1, 61571, Note_on_c, 9, 75, 78
1, 61573, Note_on_c, 0, 69, 85
1, 61578, Note_on_c, 9, 59, 27
1, 61578, Note_on_c, 9, 62, 71
1, 61581, Note_on_c, 9, 63, 45
1, 61596, Note_on_c, 9, 75, 0
1, 61597, Note_on_c, 9, 62, 0
1, 61600, Note_on_c, 9, 63, 0
1, 61602, Note_on_c, 9, 59, 0
1, 61617, Note_on_c, 0, 69, 0
1, 61624, Note_on_c, 9, 35, 63
1, 61633, Note_on_c, 9, 59, 76
1, 61635, Note_on_c, 0, 70, 79
1, 61637, Note_on_c, 1, 48, 83
1, 61638, Note_on_c, 9, 62, 68
1, 61639, Note_on_c, 9, 63, 74
1, 61641, Note_on_c, 0, 61, 45
1, 61643, Note_on_c, 0, 58, 43
1, 61648, Note_on_c, 9, 35, 0
1, 61657, Note_on_c, 0, 61, 0
1, 61657, Note_on_c, 9, 59, 0
1, 61665, Note_on_c, 9, 62, 0
1, 61681, Note_on_c, 0, 70, 0
1, 61682, Note_on_c, 9, 63, 0
1, 61684, Note_on_c, 9, 35, 52
1, 61689, Note_on_c, 0, 58, 0
1, 61693, Note_on_c, 0, 67, 62
1, 61693, Note_on_c, 9, 59, 81
1, 61695, Note_on_c, 9, 75, 80
1, 61713, Note_on_c, 9, 35, 0
1, 61724, Note_on_c, 9, 75, 0
1, 61743, Note_on_c, 1, 48, 0
1, 61752, Note_on_c, 0, 67, 0
1, 61752, Note_on_c, 0, 68, 58
1, 61781, Note_on_c, 9, 59, 0
1, 61791, Note_on_c, 0, 68, 0
1, 61801, Note_on_c, 0, 70, 38
1, 61804, Note_on_c, 1, 49, 93
1, 61808, Note_on_c, 9, 59, 57
1, 61808, Note_on_c, 9, 64, 87
1, 61812, Note_on_c, 0, 70, 0
1, 61824, Note_on_c, 9, 59, 0
1, 61829, Note_on_c, 0, 72, 60
1, 61841, Note_on_c, 9, 64, 0
1, 61855, Note_on_c, 1, 36, 0
1, 61860, Note_on_c, 0, 72, 0
1, 61864, Note_on_c, 9, 35, 61
1, 61866, Note_on_c, 0, 73, 45
1, 61869, Note_on_c, 9, 64, 82
1, 61870, Note_on_c, 9, 59, 85
1, 61889, Note_on_c, 9, 35, 0
1, 61900, Note_on_c, 9, 59, 0
1, 61903, Note_on_c, 0, 73, 0
1, 61908, Note_on_c, 0, 75, 45
1, 61922, Note_on_c, 9, 64, 0
1, 61924, Note_on_c, 0, 75, 0
1, 61924, Note_on_c, 9, 35, 52
1, 61928, Note_on_c, 9, 75, 77
1, 61941, Note_on_c, 0, 76, 53
1, 61955, Note_on_c, 9, 75, 0
1, 61958, Note_on_c, 9, 35, 0
1, 61974, Note_on_c, 0, 76, 0
1, 61978, Note_on_c, 0, 78, 56
1, 61985, Note_on_c, 9, 59, 68
1, 62015, Note_on_c, 9, 59, 0
1, 62022, Note_on_c, 0, 80, 45
1, 62027, Note_on_c, 0, 78, 0
1, 62042, Note_on_c, 9, 59, 66
1, 62049, Note_on_c, 0, 82, 59
1, 62049, Note_on_c, 9, 62, 79
1, 62051, Note_on_c, 9, 63, 54
1, 62058, Note_on_c, 0, 80, 0
1, 62071, Note_on_c, 0, 82, 0
1, 62076, Note_on_c, 9, 63, 0
1, 62077, Note_on_c, 9, 62, 0
1, 62088, Note_on_c, 9, 59, 0
1, 62093, Note_on_c, 0, 84, 68
1, 62100, Note_on_c, 1, 49, 0
1, 62104, Note_on_c, 9, 35, 58
1, 62109, Note_on_c, 1, 48, 77
1, 62109, Note_on_c, 9, 75, 77
1, 62119, Note_on_c, 0, 84, 0
1, 62121, Note_on_c, 0, 85, 72
1, 62123, Note_on_c, 0, 58, 26
1, 62124, Note_on_c, 9, 63, 69
1, 62125, Note_on_c, 9, 62, 59
1, 62128, Note_on_c, 9, 35, 0
1, 62136, Note_on_c, 9, 75, 0
1, 62149, Note_on_c, 0, 58, 0
1, 62156, Note_on_c, 0, 85, 0
1, 62157, Note_on_c, 9, 62, 0
1, 62162, Note_on_c, 0, 87, 53
1, 62164, Note_on_c, 9, 35, 52
1, 62169, Note_on_c, 9, 59, 75
1, 62175, Note_on_c, 9, 63, 0
1, 62179, Note_on_c, 0, 87, 0
1, 62192, Note_on_c, 9, 35, 0
1, 62194, Note_on_c, 0, 88, 40
1, 62213, Note_on_c, 0, 88, 0
1, 62223, Note_on_c, 0, 90, 47
1, 62224, Note_on_c, 9, 35, 53
1, 62229, Note_on_c, 9, 59, 0
1, 62250, Note_on_c, 0, 92, 44
1, 62253, Note_on_c, 9, 35, 0
1, 62270, Note_on_c, 0, 90, 0
1, 62279, Note_on_c, 1, 48, 0
1, 62282, Note_on_c, 0, 94, 69
1, 62283, Note_on_c, 9, 59, 78
1, 62289, Note_on_c, 1, 43, 80
1, 62292, Note_on_c, 9, 64, 78
1, 62295, Note_on_c, 9, 75, 74
1, 62301, Note_on_c, 0, 92, 0
1, 62322, Note_on_c, 0, 63, 69
1, 62323, Note_on_c, 0, 58, 48
1, 62324, Note_on_c, 9, 75, 0
1, 62326, Note_on_c, 9, 64, 0
1, 62326, Note_on_c, 0, 96, 89
1, 62327, Note_on_c, 0, 94, 0
1, 62327, Note_on_c, 9, 59, 0
1, 62329, Note_on_c, 0, 52, 76
1, 62331, Note_on_c, 0, 84, 63
1, 62334, Note_on_c, 0, 86, 66
1, 62344, Note_on_c, 0, 86, 0
1, 62344, Note_on_c, 9, 35, 58
1, 62346, Note_on_c, 9, 59, 63
1, 62355, Note_on_c, 9, 64, 75
1, 62371, Note_on_c, 9, 35, 0
1, 62375, Note_on_c, 9, 59, 0
1, 62394, Note_on_c, 0, 96, 0
1, 62398, Note_on_c, 9, 64, 0
1, 62399, Note_on_c, 9, 59, 70
1, 62403, Note_on_c, 0, 84, 0
1, 62404, Note_on_c, 9, 35, 53
1, 62405, Note_on_c, 0, 52, 0
1, 62421, Note_on_c, 0, 58, 0
1, 62427, Note_on_c, 0, 63, 0
1, 62432, Note_on_c, 9, 35, 0
1, 62471, Note_on_c, 9, 59, 0
1, 62523, Note_on_c, 9, 59, 77
1, 62528, Note_on_c, 9, 75, 67
1, 62532, Note_on_c, 9, 63, 59
1, 62539, Note_on_c, 9, 62, 55
1, 62554, Note_on_c, 9, 62, 0
1, 62566, Note_on_c, 9, 63, 0
1, 62574, Note_on_c, 9, 75, 0
1, 62584, Note_on_c, 9, 35, 57
1, 62587, Note_on_c, 1, 40, 90
1, 62588, Note_on_c, 1, 43, 0
1, 62590, Note_on_c, 9, 63, 62
1, 62593, Note_on_c, 9, 62, 57
1, 62597, Note_on_c, 9, 59, 0
1, 62605, Note_on_c, 9, 62, 0
1, 62610, Note_on_c, 9, 35, 0
1, 62628, Note_on_c, 9, 63, 0
1, 62644, Note_on_c, 9, 35, 42
1, 62646, Note_on_c, 9, 59, 72
1, 62652, Note_on_c, 9, 75, 68
1, 62673, Note_on_c, 9, 35, 0
1, 62674, Note_on_c, 9, 59, 0
1, 62694, Note_on_c, 9, 75, 0
1, 62701, Note_on_c, 9, 59, 74
1, 62744, Note_on_c, 1, 40, 0
1, 62759, Note_on_c, 1, 37, 90
1, 62761, Note_on_c, 9, 64, 87
1, 62774, Note_on_c, 9, 59, 0
1, 62775, Note_on_c, 0, 61, 55
1, 62778, Note_on_c, 0, 58, 46
1, 62778, Note_on_c, 0, 52, 47
1, 62787, Note_on_c, 9, 64, 0
1, 62796, Note_on_c, 0, 61, 0
1, 62802, Note_on_c, 0, 52, 0
1, 62808, Note_on_c, 0, 58, 0
1, 62824, Note_on_c, 9, 35, 63
1, 62827, Note_on_c, 9, 64, 74
1, 62828, Note_on_c, 9, 59, 88
1, 62852, Note_on_c, 9, 35, 0
1, 62853, Note_on_c, 9, 64, 0
1, 62883, Note_on_c, 9, 75, 70
1, 62884, Note_on_c, 9, 35, 42
1, 62903, Note_on_c, 9, 59, 0
1, 62915, Note_on_c, 9, 35, 0
1, 62921, Note_on_c, 9, 75, 0
1, 62951, Note_on_c, 9, 59, 88
1, 62959, Note_on_c, 1, 37, 0
1, 62963, Note_on_c, 0, 58, 55
1, 62964, Note_on_c, 0, 60, 58
1, 62971, Note_on_c, 1, 36, 108
1, 62974, Note_on_c, 0, 60, 0
1, 62982, Note_on_c, 0, 58, 0
1, 63008, Note_on_c, 0, 84, 87
1, 63010, Note_on_c, 0, 72, 87
1, 63032, Note_on_c, 9, 59, 0
1, 63064, Note_on_c, 9, 35, 40
1, 63068, Note_on_c, 9, 59, 82
1, 63070, Note_on_c, 9, 62, 58
1, 63073, Note_on_c, 0, 84, 0
1, 63073, Note_on_c, 9, 75, 72
1, 63073, Note_on_c, 9, 63, 36
1, 63074, Note_on_c, 0, 72, 0
1, 63090, Note_on_c, 9, 35, 0
1, 63104, Note_on_c, 9, 59, 0
1, 63108, Note_on_c, 9, 63, 0
1, 63109, Note_on_c, 1, 36, 0
1, 63109, Note_on_c, 9, 75, 0
1, 63113, Note_on_c, 9, 62, 0
1, 63121, Note_on_c, 1, 30, 78
1, 63124, Note_on_c, 9, 35, 53
1, 63128, Note_on_c, 9, 59, 74
1, 63130, Note_on_c, 0, 85, 86
1, 63131, Note_on_c, 0, 73, 71
1, 63151, Note_on_c, 9, 35, 0
1, 63164, Note_on_c, 1, 30, 0
1, 63169, Note_on_c, 0, 73, 0
1, 63174, Note_on_c, 0, 85, 0
1, 63204, Note_on_c, 0, 75, 80
1, 63204, Note_on_c, 0, 87, 83
1, 63206, Note_on_c, 9, 59, 0
1, 63210, Note_on_c, 0, 58, 38
1, 63213, Note_on_c, 0, 60, 51
1, 63213, Note_on_c, 0, 52, 40
1, 63225, Note_on_c, 0, 60, 0
1, 63228, Note_on_c, 0, 87, 0
1, 63229, Note_on_c, 0, 75, 0
1, 63232, Note_on_c, 0, 52, 0
1, 63234, Note_on_c, 1, 30, 74
1, 63243, Note_on_c, 9, 59, 81
1, 63246, Note_on_c, 9, 64, 91
1, 63255, Note_on_c, 0, 58, 0
1, 63255, Note_on_c, 9, 75, 76
1, 63260, Note_on_c, 0, 85, 61
1, 63261, Note_on_c, 0, 73, 45
1, 63281, Note_on_c, 9, 75, 0
1, 63281, Note_on_c, 9, 64, 0
1, 63286, Note_on_c, 9, 59, 0
1, 63304, Note_on_c, 9, 35, 58
1, 63307, Note_on_c, 0, 85, 0
1, 63310, Note_on_c, 9, 59, 66
1, 63312, Note_on_c, 0, 73, 0
1, 63316, Note_on_c, 9, 64, 75
1, 63328, Note_on_c, 1, 30, 0
1, 63331, Note_on_c, 0, 84, 66
1, 63332, Note_on_c, 9, 35, 0
1, 63334, Note_on_c, 0, 72, 75
1, 63336, Note_on_c, 9, 59, 0
1, 63345, Note_on_c, 9, 64, 0
1, 63355, Note_on_c, 1, 29, 72
1, 63360, Note_on_c, 0, 62, 46
1, 63361, Note_on_c, 9, 59, 76
1, 63364, Note_on_c, 9, 35, 52
1, 63365, Note_on_c, 0, 84, 0
1, 63366, Note_on_c, 0, 60, 39
1, 63368, Note_on_c, 0, 72, 0
1, 63369, Note_on_c, 0, 56, 35
1, 63373, Note_on_c, 0, 62, 0
1, 63390, Note_on_c, 9, 35, 0
1, 63397, Note_on_c, 0, 60, 0
1, 63407, Note_on_c, 0, 82, 42
1, 63411, Note_on_c, 0, 56, 0
1, 63413, Note_on_c, 0, 70, 45
1, 63436, Note_on_c, 9, 59, 0
1, 63449, Note_on_c, 0, 82, 0
1, 63451, Note_on_c, 0, 70, 0
1, 63475, Note_on_c, 9, 59, 79
1, 63485, Note_on_c, 9, 75, 79
1, 63492, Note_on_c, 9, 63, 47
1, 63494, Note_on_c, 0, 80, 42
1, 63498, Note_on_c, 0, 68, 50
1, 63508, Note_on_c, 9, 75, 0
1, 63521, Note_on_c, 9, 63, 0
1, 63540, Note_on_c, 0, 80, 0
1, 63544, Note_on_c, 9, 35, 53
1, 63545, Note_on_c, 1, 36, 80
1, 63546, Note_on_c, 9, 59, 0
1, 63546, Note_on_c, 0, 68, 0
1, 63555, Note_on_c, 9, 63, 55
1, 63569, Note_on_c, 9, 35, 0
1, 63572, Note_on_c, 0, 79, 44
1, 63573, Note_on_c, 0, 67, 60
1, 63579, Note_on_c, 0, 62, 28
1, 63582, Note_on_c, 0, 60, 31
1, 63586, Note_on_c, 0, 56, 28
1, 63588, Note_on_c, 1, 29, 0
1, 63592, Note_on_c, 0, 53, 22
1, 63597, Note_on_c, 9, 63, 0
1, 63598, Note_on_c, 9, 59, 82
1, 63604, Note_on_c, 9, 35, 50
1, 63612, Note_on_c, 9, 75, 79
1, 63623, Note_on_c, 0, 79, 0
1, 63627, Note_on_c, 0, 67, 0
1, 63632, Note_on_c, 9, 35, 0
1, 63636, Note_on_c, 9, 59, 0
1, 63636, Note_on_c, 9, 75, 0
1, 63658, Note_on_c, 9, 59, 62
1, 63673, Note_on_c, 0, 80, 59
1, 63675, Note_on_c, 0, 68, 57
1, 63690, Note_on_c, 9, 59, 0
1, 63706, Note_on_c, 0, 80, 0
1, 63712, Note_on_c, 0, 68, 0
1, 63720, Note_on_c, 9, 59, 56
1, 63721, Note_on_c, 9, 64, 82
1, 63735, Note_on_c, 0, 79, 49
1, 63739, Note_on_c, 0, 62, 0
1, 63740, Note_on_c, 0, 67, 54
1, 63743, Note_on_c, 1, 43, 72
1, 63747, Note_on_c, 1, 41, 66
1, 63756, Note_on_c, 9, 59, 0
1, 63757, Note_on_c, 1, 43, 0
1, 63757, Note_on_c, 9, 64, 0
1, 63760, Note_on_c, 1, 41, 0
1, 63784, Note_on_c, 9, 35, 54
1, 63789, Note_on_c, 9, 59, 90
1, 63791, Note_on_c, 0, 53, 0
1, 63794, Note_on_c, 9, 64, 69
1, 63803, Note_on_c, 0, 67, 0
1, 63806, Note_on_c, 0, 60, 0
1, 63808, Note_on_c, 0, 79, 0
1, 63811, Note_on_c, 9, 35, 0
1, 63833, Note_on_c, 0, 56, 0
1, 63841, Note_on_c, 9, 64, 0
1, 63844, Note_on_c, 9, 35, 40
1, 63845, Note_on_c, 9, 75, 78
1, 63850, Note_on_c, 0, 77, 45
1, 63857, Note_on_c, 0, 65, 66
1, 63868, Note_on_c, 9, 75, 0
1, 63874, Note_on_c, 9, 59, 0
1, 63876, Note_on_c, 9, 35, 0
1, 63899, Note_on_c, 1, 36, 0
1, 63913, Note_on_c, 9, 59, 78
1, 63917, Note_on_c, 1, 36, 38
1, 63918, Note_on_c, 1, 44, 88
1, 63954, Note_on_c, 9, 59, 0
1, 63973, Note_on_c, 9, 59, 70
1, 63979, Note_on_c, 9, 63, 74
1, 63982, Note_on_c, 1, 44, 0
1, 64016, Note_on_c, 9, 63, 0
1, 64024, Note_on_c, 9, 35, 60
1, 64028, Note_on_c, 9, 75, 81
1, 64042, Note_on_c, 9, 59, 0
1, 64044, Note_on_c, 9, 63, 77
1, 64047, Note_on_c, 9, 35, 0
1, 64049, Note_on_c, 1, 36, 0
1, 64056, Note_on_c, 9, 75, 0
1, 64082, Note_on_c, 1, 37, 85
1, 64084, Note_on_c, 9, 35, 49
1, 64088, Note_on_c, 9, 59, 82
1, 64103, Note_on_c, 9, 63, 0
1, 64108, Note_on_c, 9, 35, 0
1, 64144, Note_on_c, 9, 35, 60
1, 64145, Note_on_c, 9, 59, 0
1, 64159, Note_on_c, 1, 37, 0
1, 64172, Note_on_c, 9, 35, 0
1, 64184, Note_on_c, 0, 65, 0
1, 64192, Note_on_c, 1, 37, 72
1, 64198, Note_on_c, 9, 59, 83
1, 64200, Note_on_c, 0, 61, 58
1, 64208, Note_on_c, 0, 53, 43
1, 64212, Note_on_c, 9, 75, 83
1, 64214, Note_on_c, 9, 64, 83
1, 64215, Note_on_c, 0, 77, 0
1, 64237, Note_on_c, 0, 53, 0
1, 64239, Note_on_c, 9, 75, 0
1, 64251, Note_on_c, 9, 64, 0
1, 64254, Note_on_c, 0, 61, 0
1, 64257, Note_on_c, 9, 59, 0
1, 64264, Note_on_c, 9, 35, 50
1, 64277, Note_on_c, 9, 64, 75
1, 64289, Note_on_c, 9, 35, 0
1, 64299, Note_on_c, 1, 37, 0
1, 64319, Note_on_c, 1, 29, 77
1, 64320, Note_on_c, 9, 59, 77
1, 64324, Note_on_c, 0, 62, 62
1, 64324, Note_on_c, 9, 35, 50
1, 64328, Note_on_c, 0, 53, 45
1, 64331, Note_on_c, 9, 64, 0
1, 64332, Note_on_c, 0, 56, 29
1, 64351, Note_on_c, 9, 59, 0
1, 64353, Note_on_c, 9, 35, 0
1, 64392, Note_on_c, 9, 63, 75
1, 64420, Note_on_c, 9, 63, 0
1, 64437, Note_on_c, 9, 59, 75
1, 64443, Note_on_c, 9, 63, 71
1, 64448, Note_on_c, 9, 75, 80
1, 64473, Note_on_c, 9, 75, 0
1, 64487, Note_on_c, 9, 59, 0
1, 64499, Note_on_c, 9, 63, 0
1, 64504, Note_on_c, 9, 35, 49
1, 64506, Note_on_c, 1, 38, 80
1, 64516, Note_on_c, 9, 63, 87
1, 64522, Note_on_c, 0, 79, 80
1, 64531, Note_on_c, 9, 35, 0
1, 64564, Note_on_c, 9, 35, 53
1, 64568, Note_on_c, 0, 79, 0
1, 64568, Note_on_c, 9, 63, 0
1, 64568, Note_on_c, 9, 59, 53
1, 64578, Note_on_c, 0, 80, 50
1, 64579, Note_on_c, 9, 59, 0
1, 64595, Note_on_c, 9, 35, 0
1, 64607, Note_on_c, 0, 80, 0
1, 64637, Note_on_c, 0, 84, 74
1, 64639, Note_on_c, 9, 64, 91
1, 64643, Note_on_c, 1, 38, 0
1, 64658, Note_on_c, 0, 62, 0
1, 64671, Note_on_c, 0, 84, 0
1, 64683, Note_on_c, 1, 39, 83
1, 64692, Note_on_c, 0, 53, 0
1, 64697, Note_on_c, 0, 88, 66
1, 64697, Note_on_c, 9, 59, 28
1, 64708, Note_on_c, 9, 59, 0
1, 64708, Note_on_c, 9, 64, 0
1, 64719, Note_on_c, 0, 56, 0
1, 64731, Note_on_c, 0, 88, 0
1, 64744, Note_on_c, 9, 35, 57
1, 64753, Note_on_c, 0, 91, 91
1, 64755, Note_on_c, 9, 59, 83
1, 64769, Note_on_c, 9, 35, 0
1, 64772, Note_on_c, 0, 62, 27
1, 64778, Note_on_c, 9, 59, 0
1, 64782, Note_on_c, 0, 62, 0
1, 64790, Note_on_c, 0, 91, 0
1, 64804, Note_on_c, 9, 35, 50
1, 64810, Note_on_c, 0, 89, 69
1, 64811, Note_on_c, 9, 59, 74
1, 64835, Note_on_c, 9, 35, 0
1, 64841, Note_on_c, 1, 39, 0
1, 64849, Note_on_c, 0, 89, 0
1, 64869, Note_on_c, 1, 38, 84
1, 64872, Note_on_c, 0, 84, 65
1, 64879, Note_on_c, 9, 59, 0
1, 64914, Note_on_c, 0, 84, 0
1, 64927, Note_on_c, 9, 59, 33
1, 64927, Note_on_c, 9, 63, 77
1, 64928, Note_on_c, 0, 80, 25
1, 64938, Note_on_c, 9, 59, 0
1, 64960, Note_on_c, 9, 63, 0
1, 64984, Note_on_c, 9, 35, 57
1, 64985, Note_on_c, 0, 80, 0
1, 64991, Note_on_c, 9, 59, 83
1, 64993, Note_on_c, 9, 63, 81
1, 64994, Note_on_c, 0, 79, 28
1, 65000, Note_on_c, 9, 75, 74
1, 65009, Note_on_c, 9, 35, 0
1, 65012, Note_on_c, 0, 79, 0
1, 65014, Note_on_c, 9, 75, 0
1, 65025, Note_on_c, 9, 59, 0
1, 65038, Note_on_c, 0, 62, 48
1, 65039, Note_on_c, 1, 34, 77
1, 65041, Note_on_c, 0, 82, 77
1, 65042, Note_on_c, 1, 29, 0
1, 65044, Note_on_c, 9, 35, 58
1, 65045, Note_on_c, 9, 59, 68
1, 65046, Note_on_c, 0, 60, 35
1, 65048, Note_on_c, 9, 63, 0
1, 65055, Note_on_c, 1, 38, 0
1, 65056, Note_on_c, 0, 56, 17
1, 65061, Note_on_c, 0, 62, 0
1, 65069, Note_on_c, 9, 35, 0
1, 65078, Note_on_c, 0, 53, 11
1, 65091, Note_on_c, 0, 82, 0
1, 65104, Note_on_c, 9, 35, 46
1, 65110, Note_on_c, 9, 59, 0
1, 65114, Note_on_c, 0, 80, 70
1, 65121, Note_on_c, 0, 60, 0
1, 65129, Note_on_c, 0, 53, 0
1, 65132, Note_on_c, 0, 56, 0
1, 65132, Note_on_c, 9, 35, 0
1, 65134, Note_on_c, 1, 34, 0
1, 65151, Note_on_c, 0, 80, 0
1, 65159, Note_on_c, 1, 35, 71
1, 65163, Note_on_c, 9, 59, 55
1, 65167, Note_on_c, 9, 75, 81
1, 65167, Note_on_c, 9, 64, 90
1, 65174, Note_on_c, 0, 79, 32
1, 65190, Note_on_c, 9, 59, 0
1, 65192, Note_on_c, 9, 75, 0
1, 65204, Note_on_c, 9, 64, 0
1, 65210, Note_on_c, 0, 79, 0
1, 65224, Note_on_c, 9, 35, 60
1, 65226, Note_on_c, 9, 59, 89
1, 65234, Note_on_c, 9, 64, 78
1, 65236, Note_on_c, 0, 77, 60
1, 65248, Note_on_c, 9, 35, 0
1, 65259, Note_on_c, 0, 60, 26
1, 65265, Note_on_c, 0, 56, 25
1, 65272, Note_on_c, 0, 60, 0
1, 65272, Note_on_c, 9, 64, 0
1, 65273, Note_on_c, 0, 77, 0
1, 65278, Note_on_c, 1, 35, 0
1, 65282, Note_on_c, 9, 49, 41
1, 65284, Note_on_c, 9, 35, 79
1, 65294, Note_on_c, 0, 79, 73
1, 65298, Note_on_c, 9, 59, 0
1, 65311, Note_on_c, 9, 35, 0
1, 65338, Note_on_c, 0, 56, 0
1, 65343, Note_on_c, 9, 59, 57
1, 65347, Note_on_c, 0, 79, 0
1, 65366, Note_on_c, 9, 59, 0
1, 65400, Note_on_c, 1, 37, 45
1, 65405, Note_on_c, 9, 75, 82
1, 65405, Note_on_c, 9, 59, 74
1, 65407, Note_on_c, 1, 36, 74
1, 65410, Note_on_c, 9, 62, 91
1, 65413, Note_on_c, 1, 37, 0
1, 65413, Note_on_c, 9, 63, 67
1, 65428, Note_on_c, 9, 62, 0
1, 65430, Note_on_c, 0, 72, 51
1, 65432, Note_on_c, 9, 75, 0
1, 65437, Note_on_c, 9, 63, 0
1, 65463, Note_on_c, 1, 36, 0
1, 65463, Note_on_c, 0, 72, 0
1, 65464, Note_on_c, 9, 35, 52
1, 65476, Note_on_c, 9, 63, 78
1, 65479, Note_on_c, 9, 62, 75
1, 65486, Note_on_c, 0, 72, 61
1, 65490, Note_on_c, 9, 35, 0
1, 65490, Note_on_c, 9, 59, 0
1, 65506, Note_on_c, 9, 62, 0
1, 65515, Note_on_c, 9, 63, 0
1, 65516, Note_on_c, 0, 72, 0
1, 65524, Note_on_c, 9, 35, 52
1, 65529, Note_on_c, 9, 59, 58
1, 65536, Note_on_c, 9, 75, 83
1, 65539, Note_on_c, 0, 72, 62
1, 65547, Note_on_c, 9, 59, 0
1, 65563, Note_on_c, 9, 75, 0
1, 65585, Note_on_c, 0, 72, 0
1, 65586, Note_on_c, 1, 31, 69
1, 65587, Note_on_c, 1, 33, 70
1, 65594, Note_on_c, 9, 59, 81
1, 65602, Note_on_c, 1, 33, 0
1, 65623, Note_on_c, 9, 35, 0
1, 65645, Note_on_c, 9, 49, 0
1, 65646, Note_on_c, 0, 72, 68
1, 65647, Note_on_c, 1, 31, 0
1, 65648, Note_on_c, 0, 60, 50
1, 65653, Note_on_c, 0, 56, 25
1, 65656, Note_on_c, 0, 50, 27
1, 65656, Note_on_c, 9, 64, 99
1, 65657, Note_on_c, 9, 59, 0
1, 65664, Note_on_c, 0, 60, 0
1, 65670, Note_on_c, 0, 50, 0
1, 65687, Note_on_c, 9, 64, 0
1, 65693, Note_on_c, 0, 72, 0
1, 65700, Note_on_c, 0, 56, 0
1, 65704, Note_on_c, 9, 35, 45
1, 65709, Note_on_c, 9, 59, 64
1, 65716, Note_on_c, 9, 64, 85
1, 65727, Note_on_c, 9, 35, 0
1, 65731, Note_on_c, 9, 59, 0
1, 65758, Note_on_c, 1, 31, 74
1, 65763, Note_on_c, 9, 64, 0
1, 65764, Note_on_c, 9, 35, 49
1, 65765, Note_on_c, 9, 35, 79
1, 65767, Note_on_c, 0, 72, 77
1, 65772, Note_on_c, 9, 59, 81
1, 65778, Note_on_c, 9, 75, 81
1, 65792, Note_on_c, 9, 35, 0
1, 65804, Note_on_c, 9, 75, 0
1, 65806, Note_on_c, 9, 35, 0
1, 65834, Note_on_c, 9, 59, 0
1, 65871, Note_on_c, 1, 31, 0
1, 65886, Note_on_c, 9, 59, 33
1, 65890, Note_on_c, 9, 62, 82
1, 65891, Note_on_c, 9, 63, 57
1, 65897, Note_on_c, 9, 59, 0
1, 65916, Note_on_c, 9, 62, 0
1, 65923, Note_on_c, 9, 63, 0
1, 65945, Note_on_c, 9, 35, 52
1, 65947, Note_on_c, 9, 59, 84
1, 65949, Note_on_c, 1, 38, 90
1, 65949, Note_on_c, 9, 75, 84
1, 65951, Note_on_c, 9, 62, 64
1, 65952, Note_on_c, 9, 63, 62
1, 65954, Note_on_c, 0, 56, 27
1, 65971, Note_on_c, 9, 35, 0
1, 65980, Note_on_c, 9, 75, 0
1, 65980, Note_on_c, 9, 62, 0
1, 65992, Note_on_c, 0, 56, 0
1, 65993, Note_on_c, 9, 63, 0
1, 66005, Note_on_c, 9, 35, 52
1, 66021, Note_on_c, 9, 59, 0
1, 66067, Note_on_c, 9, 59, 59
1, 66087, Note_on_c, 9, 59, 0
1, 66104, Note_on_c, 9, 35, 0
1, 66120, Note_on_c, 9, 64, 80
1, 66123, Note_on_c, 0, 60, 59
1, 66125, Note_on_c, 1, 44, 90
1, 66125, Note_on_c, 9, 59, 80
1, 66129, Note_on_c, 0, 55, 34
1, 66130, Note_on_c, 0, 56, 25
1, 66131, Note_on_c, 9, 75, 85
1, 66132, Note_on_c, 1, 38, 0
1, 66148, Note_on_c, 0, 60, 0
1, 66149, Note_on_c, 9, 64, 0
1, 66159, Note_on_c, 9, 75, 0
1, 66160, Note_on_c, 0, 55, 0
1, 66170, Note_on_c, 0, 56, 0
1, 66184, Note_on_c, 9, 59, 0
1, 66185, Note_on_c, 9, 35, 45
1, 66194, Note_on_c, 9, 64, 90
1, 66208, Note_on_c, 9, 35, 0
1, 66242, Note_on_c, 9, 64, 0
1, 66244, Note_on_c, 9, 59, 77
1, 66245, Note_on_c, 9, 35, 49
1, 66281, Note_on_c, 1, 44, 0
1, 66282, Note_on_c, 9, 59, 0
1, 66287, Note_on_c, 9, 35, 0
1, 66308, Note_on_c, 9, 59, 47
1, 66311, Note_on_c, 0, 63, 51
1, 66311, Note_on_c, 1, 44, 79
1, 66312, Note_on_c, 0, 58, 40
1, 66315, Note_on_c, 0, 59, 43
1, 66321, Note_on_c, 0, 53, 29
1, 66325, Note_on_c, 0, 72, 0
1, 66338, Note_on_c, 9, 59, 0
1, 66348, Note_on_c, 0, 63, 0
1, 66351, Note_on_c, 0, 59, 0
1, 66354, Note_on_c, 0, 53, 0
1, 66366, Note_on_c, 9, 59, 37
1, 66373, Note_on_c, 9, 75, 67
1, 66375, Note_on_c, 9, 63, 67
1, 66376, Note_on_c, 9, 62, 80
1, 66384, Note_on_c, 0, 58, 0
1, 66393, Note_on_c, 9, 59, 0
1, 66403, Note_on_c, 9, 62, 0
1, 66409, Note_on_c, 9, 75, 0
1, 66411, Note_on_c, 9, 63, 0
1, 66425, Note_on_c, 9, 35, 44
1, 66430, Note_on_c, 9, 59, 77
1, 66439, Note_on_c, 9, 62, 66
1, 66440, Note_on_c, 9, 63, 62
1, 66443, Note_on_c, 1, 38, 29
1, 66452, Note_on_c, 9, 35, 0
1, 66457, Note_on_c, 1, 38, 0
1, 66463, Note_on_c, 9, 59, 0
1, 66471, Note_on_c, 1, 44, 0
1, 66474, Note_on_c, 9, 62, 0
1, 66485, Note_on_c, 1, 43, 79
1, 66485, Note_on_c, 9, 35, 47
1, 66486, Note_on_c, 9, 63, 0
1, 66487, Note_on_c, 0, 80, 83
1, 66488, Note_on_c, 0, 68, 88
1, 66490, Note_on_c, 9, 59, 70
1, 66499, Note_on_c, 9, 75, 67
1, 66518, Note_on_c, 9, 35, 0
1, 66537, Note_on_c, 9, 75, 0
1, 66543, Note_on_c, 9, 59, 0
1, 66545, Note_on_c, 9, 35, 47
1, 66559, Note_on_c, 9, 59, 53
1, 66570, Note_on_c, 0, 80, 0
1, 66573, Note_on_c, 0, 68, 0
1, 66575, Note_on_c, 9, 35, 0
1, 66587, Note_on_c, 9, 59, 0
1, 66597, Note_on_c, 0, 63, 51
1, 66603, Note_on_c, 0, 79, 59
1, 66604, Note_on_c, 0, 58, 26
1, 66605, Note_on_c, 0, 59, 49
1, 66607, Note_on_c, 0, 67, 71
1, 66608, Note_on_c, 0, 53, 35
1, 66612, Note_on_c, 9, 64, 83
1, 66615, Note_on_c, 0, 77, 33
1, 66617, Note_on_c, 9, 62, 52
1, 66628, Note_on_c, 0, 77, 0
1, 66629, Note_on_c, 9, 62, 0
1, 66639, Note_on_c, 0, 63, 0
1, 66640, Note_on_c, 9, 64, 0
1, 66641, Note_on_c, 0, 53, 0
1, 66648, Note_on_c, 0, 79, 0
1, 66648, Note_on_c, 0, 67, 0
1, 66649, Note_on_c, 0, 59, 0
1, 66664, Note_on_c, 0, 58, 0
1, 66665, Note_on_c, 9, 35, 40
1, 66665, Note_on_c, 9, 59, 82
1, 66673, Note_on_c, 9, 64, 80
1, 66691, Note_on_c, 9, 35, 0
1, 66694, Note_on_c, 1, 38, 55
1, 66702, Note_on_c, 9, 59, 0
1, 66703, Note_on_c, 1, 43, 0
1, 66707, Note_on_c, 1, 38, 0
1, 66715, Note_on_c, 9, 64, 0
1, 66721, Note_on_c, 9, 59, 66
1, 66722, Note_on_c, 1, 50, 82
1, 66725, Note_on_c, 9, 35, 41
1, 66727, Note_on_c, 0, 63, 64
1, 66729, Note_on_c, 0, 80, 77
1, 66730, Note_on_c, 0, 58, 37
1, 66730, Note_on_c, 0, 68, 83
1, 66732, Note_on_c, 0, 59, 55
1, 66734, Note_on_c, 0, 53, 46
1, 66734, Note_on_c, 9, 75, 77
1, 66739, Note_on_c, 0, 70, 37
1, 66749, Note_on_c, 0, 70, 0
1, 66753, Note_on_c, 9, 35, 0
1, 66756, Note_on_c, 0, 63, 0
1, 66763, Note_on_c, 0, 59, 0
1, 66765, Note_on_c, 0, 53, 0
1, 66770, Note_on_c, 0, 80, 0
1, 66770, Note_on_c, 9, 75, 0
1, 66771, Note_on_c, 1, 50, 0
1, 66771, Note_on_c, 0, 68, 0
1, 66780, Note_on_c, 0, 58, 0
1, 66790, Note_on_c, 9, 59, 0
1, 66836, Note_on_c, 9, 59, 81
1, 66847, Note_on_c, 1, 50, 95
1, 66851, Note_on_c, 9, 62, 82
1, 66852, Note_on_c, 0, 67, 78
1, 66852, Note_on_c, 0, 79, 51
1, 66853, Note_on_c, 0, 59, 45
1, 66853, Note_on_c, 0, 58, 31
1, 66853, Note_on_c, 9, 63, 49
1, 66856, Note_on_c, 0, 77, 59
1, 66868, Note_on_c, 0, 77, 0
1, 66869, Note_on_c, 9, 62, 0
1, 66870, Note_on_c, 9, 63, 0
1, 66879, Note_on_c, 0, 67, 0
1, 66880, Note_on_c, 0, 59, 0
1, 66882, Note_on_c, 0, 58, 0
1, 66884, Note_on_c, 0, 79, 0
1, 66904, Note_on_c, 9, 59, 0
1, 66905, Note_on_c, 9, 35, 54
1, 66912, Note_on_c, 9, 75, 72
1, 66928, Note_on_c, 9, 35, 0
1, 66928, Note_on_c, 9, 63, 63
1, 66929, Note_on_c, 9, 62, 82
1, 66957, Note_on_c, 9, 62, 0
1, 66957, Note_on_c, 1, 50, 0
1, 66957, Note_on_c, 9, 75, 0
1, 66964, Note_on_c, 9, 59, 69
1, 66965, Note_on_c, 9, 35, 44
1, 66974, Note_on_c, 9, 63, 0
1, 66974, Note_on_c, 0, 82, 76
1, 66974, Note_on_c, 1, 35, 46
1, 66976, Note_on_c, 0, 70, 77
1, 66977, Note_on_c, 0, 63, 58
1, 66978, Control_c, 0, 64, 127
1, 66979, Note_on_c, 0, 58, 35
1, 66979, Note_on_c, 0, 59, 54
1, 66984, Note_on_c, 0, 53, 41
1, 66993, Note_on_c, 9, 59, 0
1, 66999, Note_on_c, 9, 35, 0
1, 67002, Note_on_c, 0, 63, 0
1, 67009, Note_on_c, 0, 70, 0
1, 67011, Note_on_c, 0, 53, 0
1, 67011, Note_on_c, 1, 35, 0
1, 67017, Note_on_c, 0, 59, 0
1, 67023, Note_on_c, 0, 82, 0
1, 67025, Note_on_c, 9, 59, 62
1, 67033, Note_on_c, 0, 58, 0
1, 67040, Control_c, 0, 64, 0
1, 67040, Note_on_c, 9, 63, 69
1, 67044, Note_on_c, 9, 62, 78
1, 67056, Note_on_c, 9, 59, 0
1, 67062, Note_on_c, 0, 71, 72
1, 67063, Note_on_c, 0, 83, 56
1, 67065, Note_on_c, 0, 63, 47
1, 67070, Note_on_c, 0, 58, 23
1, 67070, Note_on_c, 0, 59, 36
1, 67074, Note_on_c, 9, 62, 0
1, 67082, Note_on_c, 0, 59, 0
1, 67085, Note_on_c, 0, 63, 0
1, 67085, Note_on_c, 9, 63, 0
1, 67085, Note_on_c, 0, 71, 0
1, 67087, Note_on_c, 0, 58, 0
1, 67088, Note_on_c, 9, 75, 78
1, 67089, Note_on_c, 9, 59, 62
1, 67091, Note_on_c, 1, 35, 63
1, 67095, Note_on_c, 0, 83, 0
1, 67107, Control_c, 0, 64, 127
1, 67114, Note_on_c, 9, 59, 0
1, 67122, Note_on_c, 9, 75, 0
1, 67129, Note_on_c, 9, 62, 82
1, 67133, Note_on_c, 9, 63, 58
1, 67145, Note_on_c, 9, 35, 45
1, 67152, Note_on_c, 9, 59, 78
1, 67159, Note_on_c, 9, 62, 0
1, 67171, Note_on_c, 9, 35, 0
1, 67175, Note_on_c, 1, 35, 0
1, 67175, Note_on_c, 9, 63, 0
1, 67182, Note_on_c, 9, 59, 0
1, 67197, Control_c, 0, 64, 0
1, 67205, Note_on_c, 9, 35, 52
1, 67210, Note_on_c, 1, 36, 81
1, 67216, Note_on_c, 0, 51, 62
1, 67217, Note_on_c, 0, 55, 77
1, 67219, Note_on_c, 0, 84, 83
1, 67219, Note_on_c, 0, 72, 94
1, 67222, Note_on_c, 0, 48, 60
1, 67235, Note_on_c, 0, 48, 0
1, 67235, Note_on_c, 9, 35, 0
1, 67237, Note_on_c, 0, 72, 0
1, 67240, Note_on_c, 0, 55, 0
1, 67242, Note_on_c, 0, 84, 0
1, 67255, Note_on_c, 0, 51, 0
1, 67272, Note_on_c, 9, 59, 69
1, 67292, Note_on_c, 9, 59, 0
1, 67327, Note_on_c, 9, 59, 73
1, 67333, Note_on_c, 9, 75, 78
1, 67338, Note_on_c, 9, 62, 84
1, 67339, Note_on_c, 9, 63, 56
1, 67344, Note_on_c, 9, 59, 0
1, 67358, Note_on_c, 9, 62, 0
1, 67359, Note_on_c, 9, 63, 0
1, 67360, Note_on_c, 9, 75, 0
1, 67385, Note_on_c, 1, 43, 70
1, 67385, Note_on_c, 9, 35, 50
1, 67385, Note_on_c, 9, 59, 78
1, 67400, Note_on_c, 9, 62, 69
1, 67401, Note_on_c, 9, 63, 67
1, 67404, Note_on_c, 9, 59, 0
1, 67409, Note_on_c, 9, 35, 0
1, 67413, Note_on_c, 1, 43, 0
1, 67428, Note_on_c, 9, 62, 0
1, 67443, Note_on_c, 9, 63, 0
1, 67445, Note_on_c, 9, 35, 47
1, 67447, Note_on_c, 9, 59, 103
1, 67453, Note_on_c, 0, 67, 74
1, 67453, Note_on_c, 0, 63, 71
1, 67454, Note_on_c, 0, 60, 82
1, 67459, Note_on_c, 0, 55, 55
1, 67461, Note_on_c, 9, 75, 82
1, 67472, Note_on_c, 0, 55, 0
1, 67474, Note_on_c, 9, 35, 0
1, 67476, Note_on_c, 0, 60, 0
1, 67484, Note_on_c, 0, 63, 0
1, 67488, Note_on_c, 9, 75, 0
1, 67490, Note_on_c, 0, 67, 0
1, 67505, Note_on_c, 9, 35, 46
1, 67516, Note_on_c, 0, 67, 62
1, 67518, Note_on_c, 0, 63, 59
1, 67522, Note_on_c, 0, 60, 55
1, 67523, Note_on_c, 9, 59, 0
1, 67524, Note_on_c, 0, 55, 34
1, 67536, Note_on_c, 9, 35, 0
1, 67536, Note_on_c, 0, 60, 0
1, 67538, Note_on_c, 0, 55, 0
1, 67539, Note_on_c, 0, 67, 0
1, 67549, Note_on_c, 0, 63, 0
1, 67558, Note_on_c, 9, 59, 57
1, 67564, Note_on_c, 9, 64, 91
1, 67567, Note_on_c, 1, 51, 90
1, 67574, Note_on_c, 9, 59, 0
1, 67594, Note_on_c, 9, 64, 0
1, 67625, Note_on_c, 9, 35, 42
1, 67630, Note_on_c, 9, 59, 85
1, 67630, Note_on_c, 9, 64, 82
1, 67631, Note_on_c, 9, 57, 80
1, 67632, Note_on_c, 0, 59, 62
1, 67632, Note_on_c, 0, 63, 62
1, 67634, Note_on_c, 0, 43, 48
1, 67638, Note_on_c, 0, 53, 43
1, 67640, Note_on_c, 0, 66, 27
1, 67649, Note_on_c, 9, 57, 0
1, 67651, Note_on_c, 9, 35, 0
1, 67672, Note_on_c, 9, 64, 0
1, 67682, Note_on_c, 9, 59, 0
1, 67682, Note_on_c, 1, 36, 0
1, 67685, Note_on_c, 9, 35, 50
1, 67692, Note_on_c, 9, 75, 85
1, 67712, Note_on_c, 9, 35, 0
1, 67719, Note_on_c, 9, 75, 0
1, 67749, Note_on_c, 0, 66, 0
1, 67753, Note_on_c, 0, 59, 0
1, 67757, Note_on_c, 9, 59, 51
1, 67765, Note_on_c, 0, 63, 0
1, 67766, Note_on_c, 0, 53, 0
1, 67766, Note_on_c, 0, 43, 0
1, 67777, Note_on_c, 9, 59, 0
1, 67805, Note_on_c, 9, 63, 60
1, 67806, Note_on_c, 9, 62, 80
1, 67808, Note_on_c, 0, 63, 62
1, 67810, Note_on_c, 9, 59, 53
1, 67811, Note_on_c, 0, 59, 60
1, 67811, Note_on_c, 0, 53, 56
1, 67815, Note_on_c, 0, 43, 40
1, 67828, Note_on_c, 9, 62, 0
1, 67830, Note_on_c, 9, 59, 0
1, 67833, Note_on_c, 9, 63, 0
1, 67865, Note_on_c, 9, 35, 49
1, 67871, Note_on_c, 9, 59, 67
1, 67871, Note_on_c, 9, 62, 66
1, 67871, Note_on_c, 9, 63, 69
1, 67872, Note_on_c, 1, 43, 55
1, 67879, Note_on_c, 9, 75, 81
1, 67888, Note_on_c, 9, 35, 0
1, 67895, Note_on_c, 9, 59, 0
1, 67901, Note_on_c, 9, 62, 0
1, 67910, Note_on_c, 9, 75, 0
1, 67915, Note_on_c, 9, 63, 0
1, 67925, Note_on_c, 9, 35, 41
1, 67933, Note_on_c, 9, 59, 63
1, 67941, Note_on_c, 0, 43, 0
1, 67941, Note_on_c, 0, 53, 0
1, 67948, Note_on_c, 0, 59, 0
1, 67953, Note_on_c, 9, 59, 0
1, 67954, Note_on_c, 0, 63, 0
1, 67955, Note_on_c, 9, 35, 0
1, 67990, Note_on_c, 9, 59, 70
1, 67991, Note_on_c, 0, 43, 43
1, 67992, Note_on_c, 0, 63, 61
1, 67992, Note_on_c, 0, 53, 50
1, 67996, Note_on_c, 0, 59, 60
1, 68007, Note_on_c, 9, 59, 0
1, 68046, Note_on_c, 1, 51, 0
1, 68046, Note_on_c, 9, 59, 63
1, 68052, Note_on_c, 9, 75, 78
1, 68053, Note_on_c, 9, 64, 89
1, 68055, Note_on_c, 9, 59, 0
1, 68081, Note_on_c, 9, 75, 0
1, 68082, Note_on_c, 0, 53, 0
1, 68086, Note_on_c, 9, 64, 0
1, 68092, Note_on_c, 0, 59, 0
1, 68102, Note_on_c, 0, 46, 38
1, 68105, Note_on_c, 9, 35, 53
1, 68113, Note_on_c, 9, 59, 115
1, 68114, Note_on_c, 9, 64, 81
1, 68120, Note_on_c, 1, 43, 0
1, 68121, Note_on_c, 0, 63, 0
1, 68126, Note_on_c, 0, 43, 0
1, 68127, Note_on_c, 9, 35, 0
1, 68160, Note_on_c, 0, 46, 0
1, 68160, Note_on_c, 9, 64, 0
1, 68163, Note_on_c, 0, 48, 46
1, 68164, Note_on_c, 0, 63, 50
1, 68165, Note_on_c, 9, 35, 40
1, 68169, Note_on_c, 0, 55, 55
1, 68171, Note_on_c, 0, 60, 42
1, 68195, Note_on_c, 9, 35, 0
1, 68196, Note_on_c, 9, 59, 0
1, 68206, Note_on_c, 0, 55, 0
1, 68207, Note_on_c, 0, 48, 0
1, 68213, Note_on_c, 0, 60, 0
1, 68223, Note_on_c, 0, 63, 0
1, 68232, Note_on_c, 9, 59, 58
1, 68241, Note_on_c, 9, 59, 0
1, 68286, Note_on_c, 1, 36, 76
1, 68290, Note_on_c, 9, 59, 101
1, 68292, Note_on_c, 9, 63, 56
1, 68292, Note_on_c, 9, 62, 87
1, 68295, Note_on_c, 9, 75, 76
1, 68317, Note_on_c, 9, 62, 0
1, 68323, Note_on_c, 9, 63, 0
1, 68323, Note_on_c, 9, 75, 0
1, 68345, Note_on_c, 9, 35, 49
1, 68352, Note_on_c, 1, 36, 0
1, 68360, Note_on_c, 9, 63, 74
1, 68365, Note_on_c, 0, 50, 35
1, 68365, Note_on_c, 9, 62, 59
1, 68369, Note_on_c, 9, 59, 0
1, 68370, Note_on_c, 9, 35, 0
1, 68382, Note_on_c, 9, 62, 0
1, 68399, Note_on_c, 9, 63, 0
1, 68405, Note_on_c, 9, 35, 40
1, 68408, Note_on_c, 9, 59, 52
1, 68412, Note_on_c, 0, 53, 34
1, 68414, Note_on_c, 0, 61, 39
1, 68414, Note_on_c, 0, 56, 45
1, 68416, Note_on_c, 0, 50, 0
1, 68416, Note_on_c, 0, 59, 47
1, 68417, Note_on_c, 9, 59, 0
1, 68418, Note_on_c, 9, 75, 83
1, 68427, Note_on_c, 0, 53, 0
1, 68435, Note_on_c, 9, 35, 0
1, 68449, Note_on_c, 9, 75, 0
1, 68450, Note_on_c, 9, 63, 57
1, 68450, Note_on_c, 9, 62, 77
1, 68459, Note_on_c, 0, 59, 0
1, 68471, Note_on_c, 9, 62, 0
1, 68476, Note_on_c, 1, 36, 72
1, 68477, Note_on_c, 9, 59, 105
1, 68478, Note_on_c, 0, 56, 0
1, 68491, Note_on_c, 9, 63, 0
1, 68523, Note_on_c, 1, 36, 0
1, 68523, Note_on_c, 0, 61, 0
1, 68537, Note_on_c, 9, 62, 72
1, 68560, Note_on_c, 9, 62, 0
1, 68571, Note_on_c, 9, 59, 0
1, 68585, Note_on_c, 0, 48, 45
1, 68585, Note_on_c, 9, 35, 50
1, 68588, Note_on_c, 0, 63, 45
1, 68594, Note_on_c, 0, 55, 55
1, 68594, Note_on_c, 0, 60, 38
1, 68594, Note_on_c, 9, 59, 45
1, 68604, Note_on_c, 9, 59, 0
1, 68610, Note_on_c, 9, 35, 0
1, 68612, Note_on_c, 9, 62, 87
1, 68614, Note_on_c, 9, 63, 59
1, 68619, Note_on_c, 0, 48, 0
1, 68621, Note_on_c, 0, 55, 0
1, 68631, Note_on_c, 0, 60, 0
1, 68641, Note_on_c, 1, 36, 80
1, 68645, Note_on_c, 0, 63, 0
1, 68645, Note_on_c, 9, 35, 50
1, 68648, Note_on_c, 9, 62, 0
1, 68654, Note_on_c, 9, 59, 103
1, 68657, Note_on_c, 9, 75, 84
1, 68673, Note_on_c, 9, 35, 0
1, 68674, Note_on_c, 9, 63, 0
1, 68684, Note_on_c, 9, 75, 0
1, 68715, Note_on_c, 0, 46, 53
1, 68719, Note_on_c, 9, 62, 70
1, 68741, Note_on_c, 9, 62, 0
1, 68741, Note_on_c, 9, 59, 0
1, 68742, Note_on_c, 0, 46, 0
1, 68759, Note_on_c, 0, 62, 50
1, 68762, Note_on_c, 0, 47, 47
1, 68763, Note_on_c, 0, 56, 33
1, 68763, Note_on_c, 0, 59, 36
1, 68770, Note_on_c, 1, 36, 0
1, 68770, Note_on_c, 9, 59, 45
1, 68776, Note_on_c, 9, 62, 80
1, 68781, Note_on_c, 9, 59, 0
1, 68783, Note_on_c, 9, 63, 67
1, 68784, Note_on_c, 0, 59, 0
1, 68810, Note_on_c, 0, 62, 0
1, 68810, Note_on_c, 1, 36, 64
1, 68816, Note_on_c, 0, 56, 0
1, 68825, Note_on_c, 9, 62, 0
1, 68825, Note_on_c, 9, 35, 50
1, 68830, Note_on_c, 9, 59, 105
1, 68833, Note_on_c, 9, 75, 83
1, 68839, Note_on_c, 0, 47, 0
1, 68846, Note_on_c, 9, 35, 0
1, 68853, Note_on_c, 9, 63, 0
1, 68880, Note_on_c, 0, 48, 58
1, 68885, Note_on_c, 0, 63, 46
1, 68885, Note_on_c, 9, 35, 56
1, 68886, Note_on_c, 0, 60, 54
1, 68888, Note_on_c, 0, 55, 59
1, 68890, Note_on_c, 9, 62, 68
1, 68901, Note_on_c, 9, 63, 30
1, 68909, Control_c, 0, 64, 127
1, 68910, Note_on_c, 9, 62, 0
1, 68911, Note_on_c, 9, 75, 0
1, 68912, Note_on_c, 9, 63, 0
1, 68915, Note_on_c, 9, 35, 0
1, 68916, Note_on_c, 9, 59, 0
1, 68922, Note_on_c, 0, 55, 0
1, 68938, Note_on_c, 0, 60, 0
1, 68948, Note_on_c, 9, 59, 57
1, 68953, Note_on_c, 0, 63, 0
1, 68959, Note_on_c, 0, 48, 0
1, 68959, Note_on_c, 9, 62, 82
1, 68960, Note_on_c, 9, 59, 0
1, 68960, Note_on_c, 9, 63, 70
1, 68965, Note_on_c, 0, 36, 64
1, 68975, Note_on_c, 0, 36, 0
1, 68987, Note_on_c, 9, 62, 0
1, 68999, Note_on_c, 9, 63, 0
1, 68999, Note_on_c, 9, 59, 66
1, 69008, Note_on_c, 9, 59, 0
1, 69009, Note_on_c, 9, 75, 83
1, 69041, Note_on_c, 9, 75, 0
1, 69065, Note_on_c, 9, 35, 56
1, 69077, Note_on_c, 9, 62, 36
1, 69091, Note_on_c, 9, 62, 0
1, 69092, Note_on_c, 9, 35, 0
1, 69117, Note_on_c, 1, 36, 0
1, 69121, Note_on_c, 1, 45, 87
1, 69125, Note_on_c, 0, 71, 85
1, 69126, Note_on_c, 0, 68, 91
1, 69127, Note_on_c, 0, 79, 78
1, 69127, Note_on_c, 0, 74, 70
1, 69128, Note_on_c, 0, 67, 101
1, 69130, Note_on_c, 1, 43, 51
1, 69131, Note_on_c, 0, 78, 36
1, 69134, Note_on_c, 9, 53, 96
1, 69135, Note_on_c, 9, 51, 69
1, 69137, Control_c, 0, 64, 0
1, 69140, Note_on_c, 0, 62, 51
1, 69143, Note_on_c, 1, 43, 0
1, 69147, Note_on_c, 0, 60, 24
1, 69150, Note_on_c, 0, 62, 0
1, 69153, Note_on_c, 9, 53, 0
1, 69155, Note_on_c, 9, 51, 0
1, 69158, Note_on_c, 0, 60, 0
1, 69162, Note_on_c, 0, 68, 0
1, 69185, Note_on_c, 9, 35, 54
1, 69186, Note_on_c, 0, 68, 37
1, 69213, Note_on_c, 9, 35, 0
1, 69222, Control_c, 0, 64, 127
1, 69255, Note_on_c, 9, 62, 76
1, 69256, Note_on_c, 9, 37, 78
1, 69258, Note_on_c, 9, 63, 42
1, 69276, Note_on_c, 9, 62, 0
1, 69281, Note_on_c, 9, 63, 0
1, 69281, Note_on_c, 9, 37, 0
1, 69296, Note_on_c, 1, 45, 0
1, 69305, Note_on_c, 9, 35, 46
1, 69309, Note_on_c, 9, 51, 71
1, 69311, Note_on_c, 9, 53, 85
1, 69314, Note_on_c, 9, 62, 62
1, 69316, Note_on_c, 9, 63, 59
1, 69325, Note_on_c, 1, 43, 76
1, 69331, Note_on_c, 9, 35, 0
1, 69333, Note_on_c, 9, 53, 0
1, 69333, Note_on_c, 9, 51, 0
1, 69343, Note_on_c, 9, 62, 0
1, 69356, Note_on_c, 9, 63, 0
1, 69379, Note_on_c, 9, 37, 77
1, 69381, Note_on_c, 9, 51, 77
1, 69384, Note_on_c, 9, 53, 83
1, 69408, Note_on_c, 9, 37, 0
1, 69423, Note_on_c, 9, 51, 0
1, 69425, Note_on_c, 9, 35, 50
1, 69430, Note_on_c, 9, 53, 0
1, 69434, Note_on_c, 0, 71, 0
1, 69436, Note_on_c, 0, 68, 0
1, 69443, Note_on_c, 0, 79, 0
1, 69444, Note_on_c, 0, 67, 0
1, 69450, Note_on_c, 0, 74, 0
1, 69452, Note_on_c, 9, 35, 0
1, 69467, Note_on_c, 0, 78, 0
1, 69487, Note_on_c, 9, 64, 89
1, 69488, Note_on_c, 1, 31, 87
1, 69514, Note_on_c, 9, 64, 0
1, 69545, Note_on_c, 9, 35, 54
1, 69550, Note_on_c, 9, 64, 80
1, 69554, Note_on_c, 9, 51, 79
1, 69556, Note_on_c, 9, 53, 92
1, 69569, Note_on_c, 9, 35, 0
1, 69581, Note_on_c, 9, 51, 0
1, 69582, Note_on_c, 9, 53, 0
1, 69596, Note_on_c, 9, 64, 0
1, 69605, Note_on_c, 9, 35, 57
1, 69618, Note_on_c, 9, 37, 75
1, 69621, Note_on_c, 9, 53, 74
1, 69623, Note_on_c, 9, 51, 77
1, 69632, Note_on_c, 9, 35, 0
1, 69644, Note_on_c, 9, 37, 0
1, 69658, Note_on_c, 9, 53, 0
1, 69661, Note_on_c, 9, 51, 0
1, 69684, Note_on_c, 0, 62, 58
1, 69693, Note_on_c, 0, 55, 29
1, 69694, Note_on_c, 0, 60, 34
1, 69695, Note_on_c, 0, 62, 0
1, 69705, Note_on_c, 0, 55, 0
1, 69705, Note_on_c, 0, 60, 0
1, 69712, Control_c, 0, 64, 0
1, 69737, Note_on_c, 9, 62, 78
1, 69751, Note_on_c, 1, 43, 0
1, 69759, Note_on_c, 9, 62, 0
1, 69781, Note_on_c, 1, 43, 81
1, 69781, Note_on_c, 9, 53, 78
1, 69782, Note_on_c, 9, 51, 64
1, 69785, Note_on_c, 9, 35, 63
1, 69792, Note_on_c, 9, 37, 81
1, 69797, Note_on_c, 9, 53, 0
1, 69798, Note_on_c, 9, 62, 65
1, 69802, Note_on_c, 9, 63, 65
1, 69809, Note_on_c, 9, 35, 0
1, 69814, Note_on_c, 9, 51, 0
1, 69820, Note_on_c, 9, 37, 0
1, 69828, Note_on_c, 9, 62, 0
1, 69835, Note_on_c, 0, 62, 58
1, 69843, Note_on_c, 9, 63, 0
1, 69843, Note_on_c, 9, 53, 79
1, 69844, Note_on_c, 0, 60, 41
1, 69845, Note_on_c, 9, 35, 52
1, 69845, Note_on_c, 9, 51, 78
1, 69848, Note_on_c, 0, 55, 25
1, 69852, Note_on_c, 0, 62, 0
1, 69855, Note_on_c, 0, 60, 0
1, 69859, Note_on_c, 0, 55, 0
1, 69874, Note_on_c, 9, 35, 0
1, 69875, Note_on_c, 9, 53, 0
1, 69879, Note_on_c, 9, 51, 0
1, 69909, Note_on_c, 9, 57, 76
1, 69916, Note_on_c, 1, 43, 0
1, 69926, Note_on_c, 9, 57, 0
1, 69949, Note_on_c, 1, 41, 94
1, 69965, Note_on_c, 9, 37, 82
1, 69976, Note_on_c, 9, 64, 87
1, 69994, Note_on_c, 9, 37, 0
1, 69998, Note_on_c, 9, 64, 0
1, 70019, Note_on_c, 9, 53, 81
1, 70021, Note_on_c, 9, 51, 67
1, 70025, Note_on_c, 9, 35, 61
1, 70033, Note_on_c, 9, 64, 82
1, 70036, Note_on_c, 9, 53, 0
1, 70042, Note_on_c, 9, 51, 0
1, 70050, Note_on_c, 9, 35, 0
1, 70073, Note_on_c, 0, 62, 46
1, 70075, Note_on_c, 9, 64, 0
1, 70078, Note_on_c, 9, 51, 77
1, 70079, Note_on_c, 9, 53, 88
1, 70082, Note_on_c, 0, 60, 38
1, 70085, Note_on_c, 9, 35, 52
1, 70098, Note_on_c, 0, 60, 0
1, 70099, Note_on_c, 0, 62, 0
1, 70119, Note_on_c, 9, 35, 0
1, 70124, Note_on_c, 9, 53, 0
1, 70125, Note_on_c, 9, 51, 0
1, 70192, Note_on_c, 9, 53, 89
1, 70193, Note_on_c, 9, 51, 76
1, 70208, Note_on_c, 9, 62, 80
1, 70209, Note_on_c, 9, 63, 53
1, 70212, Note_on_c, 9, 37, 80
1, 70231, Note_on_c, 9, 62, 0
1, 70236, Note_on_c, 9, 53, 0
1, 70236, Note_on_c, 9, 63, 0
1, 70238, Note_on_c, 9, 51, 0
1, 70239, Note_on_c, 9, 37, 0
1, 70256, Note_on_c, 0, 62, 54
1, 70259, Note_on_c, 0, 56, 42
1, 70260, Note_on_c, 0, 60, 46
1, 70263, Note_on_c, 9, 62, 68
1, 70265, Note_on_c, 9, 35, 58
1, 70265, Note_on_c, 9, 63, 55
1, 70266, Note_on_c, 0, 62, 0
1, 70266, Note_on_c, 0, 55, 28
1, 70271, Note_on_c, 0, 60, 0
1, 70277, Note_on_c, 0, 55, 0
1, 70289, Note_on_c, 9, 35, 0
1, 70295, Note_on_c, 9, 62, 0
1, 70297, Note_on_c, 0, 56, 0
1, 70297, Note_on_c, 1, 31, 0
1, 70306, Note_on_c, 9, 63, 0
1, 70313, Note_on_c, 9, 53, 90
1, 70315, Note_on_c, 9, 51, 76
1, 70325, Note_on_c, 9, 35, 52
1, 70333, Note_on_c, 9, 37, 79
1, 70342, Note_on_c, 9, 53, 0
1, 70348, Note_on_c, 9, 51, 0
1, 70353, Note_on_c, 9, 35, 0
1, 70362, Note_on_c, 9, 37, 0
1, 70373, Note_on_c, 9, 51, 70
1, 70374, Note_on_c, 9, 53, 82
1, 70385, Note_on_c, 9, 35, 53
1, 70395, Note_on_c, 9, 53, 0
1, 70402, Note_on_c, 9, 51, 0
1, 70414, Note_on_c, 9, 35, 0
1, 70431, Note_on_c, 0, 89, 88
1, 70431, Note_on_c, 0, 63, 77
1, 70431, Note_on_c, 0, 77, 83
1, 70432, Note_on_c, 0, 59, 71
1, 70432, Note_on_c, 0, 83, 81
1, 70434, Note_on_c, 0, 53, 71
1, 70435, Note_on_c, 0, 56, 55
1, 70441, Note_on_c, 9, 64, 92
1, 70464, Note_on_c, 9, 64, 0
1, 70503, Note_on_c, 9, 64, 83
1, 70504, Note_on_c, 9, 53, 96
1, 70504, Note_on_c, 9, 51, 83
1, 70505, Note_on_c, 9, 35, 58
1, 70532, Note_on_c, 9, 35, 0
1, 70541, Note_on_c, 9, 64, 0
1, 70544, Note_on_c, 9, 53, 0
1, 70546, Control_c, 0, 64, 127
1, 70550, Note_on_c, 9, 51, 0
1, 70555, Note_on_c, 1, 41, 0
1, 70565, Note_on_c, 9, 35, 53
1, 70566, Note_on_c, 9, 37, 83
1, 70567, Note_on_c, 1, 39, 91
1, 70574, Note_on_c, 0, 89, 0
1, 70577, Note_on_c, 0, 77, 0
1, 70577, Note_on_c, 0, 53, 0
1, 70588, Note_on_c, 0, 63, 0
1, 70589, Note_on_c, 9, 37, 0
1, 70593, Note_on_c, 9, 35, 0
1, 70593, Note_on_c, 0, 59, 0
1, 70595, Note_on_c, 0, 83, 0
1, 70610, Note_on_c, 0, 56, 0
1, 70632, Note_on_c, 9, 53, 87
1, 70633, Note_on_c, 9, 51, 80
1, 70636, Note_on_c, 0, 63, 75
1, 70637, Note_on_c, 0, 87, 80
1, 70638, Note_on_c, 0, 53, 71
1, 70638, Note_on_c, 0, 75, 84
1, 70638, Note_on_c, 0, 82, 76
1, 70641, Note_on_c, 0, 59, 68
1, 70641, Note_on_c, 0, 56, 28
1, 70648, Control_c, 0, 64, 0
1, 70663, Note_on_c, 9, 53, 0
1, 70668, Note_on_c, 9, 51, 0
1, 70686, Note_on_c, 9, 63, 52
1, 70686, Note_on_c, 9, 62, 77
1, 70696, Control_c, 0, 64, 127
1, 70704, Note_on_c, 9, 62, 0
1, 70706, Note_on_c, 9, 63, 0
1, 70743, Note_on_c, 9, 62, 66
1, 70745, Note_on_c, 9, 35, 57
1, 70746, Note_on_c, 9, 63, 57
1, 70752, Note_on_c, 9, 37, 78
1, 70754, Note_on_c, 0, 82, 0
1, 70755, Note_on_c, 0, 75, 0
1, 70758, Note_on_c, 9, 51, 78
1, 70760, Note_on_c, 0, 53, 0
1, 70760, Note_on_c, 9, 53, 83
1, 70761, Note_on_c, 0, 63, 0
1, 70766, Note_on_c, 0, 87, 0
1, 70771, Note_on_c, 0, 59, 0
1, 70771, Note_on_c, 9, 35, 0
1, 70772, Note_on_c, 9, 62, 0
1, 70779, Note_on_c, 9, 63, 0
1, 70779, Note_on_c, 9, 37, 0
1, 70780, Note_on_c, 9, 53, 0
1, 70782, Note_on_c, 0, 56, 0
1, 70786, Note_on_c, 9, 51, 0
1, 70802, Note_on_c, 0, 63, 57
1, 70804, Note_on_c, 0, 89, 79
1, 70805, Control_c, 0, 64, 0
1, 70805, Note_on_c, 0, 59, 55
1, 70805, Note_on_c, 0, 77, 72
1, 70805, Note_on_c, 9, 35, 42
1, 70806, Note_on_c, 0, 53, 60
1, 70809, Note_on_c, 0, 56, 20
1, 70818, Note_on_c, 0, 53, 0
1, 70818, Note_on_c, 9, 51, 74
1, 70818, Note_on_c, 9, 53, 81
1, 70823, Note_on_c, 0, 63, 0
1, 70834, Note_on_c, 0, 77, 0
1, 70834, Note_on_c, 0, 89, 0
1, 70834, Note_on_c, 9, 35, 0
1, 70843, Note_on_c, 0, 59, 0
1, 70846, Note_on_c, 9, 53, 0
1, 70857, Note_on_c, 9, 51, 0
1, 70860, Note_on_c, 0, 56, 0
1, 70931, Note_on_c, 0, 63, 60
1, 70932, Note_on_c, 0, 87, 73
1, 70932, Note_on_c, 0, 75, 77
1, 70934, Note_on_c, 9, 64, 92
1, 70935, Note_on_c, 0, 53, 56
1, 70937, Note_on_c, 0, 59, 49
1, 70940, Note_on_c, 0, 80, 33
1, 70940, Note_on_c, 9, 37, 79
1, 70946, Note_on_c, 0, 53, 0
1, 70948, Note_on_c, 0, 59, 0
1, 70950, Note_on_c, 0, 75, 0
1, 70951, Note_on_c, 0, 80, 0
1, 70954, Note_on_c, 0, 63, 0
1, 70956, Note_on_c, 0, 87, 0
1, 70963, Note_on_c, 9, 64, 0
1, 70969, Note_on_c, 9, 37, 0
1, 70985, Note_on_c, 9, 35, 63
1, 70985, Note_on_c, 9, 53, 69
1, 70985, Note_on_c, 9, 51, 67
1, 70993, Note_on_c, 9, 53, 0
1, 70994, Note_on_c, 9, 64, 82
1, 71002, Note_on_c, 9, 51, 0
1, 71013, Note_on_c, 9, 35, 0
1, 71033, Note_on_c, 9, 64, 0
1, 71036, Note_on_c, 1, 39, 0
1, 71042, Note_on_c, 1, 36, 88
1, 71045, Note_on_c, 9, 35, 42
1, 71048, Note_on_c, 0, 85, 56
1, 71048, Note_on_c, 9, 51, 83
1, 71049, Note_on_c, 9, 53, 96
1, 71052, Note_on_c, 0, 73, 67
1, 71055, Note_on_c, 0, 62, 74
1, 71059, Note_on_c, 0, 57, 62
1, 71059, Note_on_c, 0, 51, 60
1, 71060, Note_on_c, 0, 55, 63
1, 71076, Note_on_c, 9, 35, 0
1, 71090, Note_on_c, 9, 51, 0
1, 71091, Note_on_c, 0, 85, 0
1, 71096, Note_on_c, 9, 53, 0
1, 71103, Note_on_c, 0, 73, 0
1, 71106, Note_on_c, 0, 74, 54
1, 71110, Note_on_c, 0, 57, 0
1, 71111, Note_on_c, 0, 62, 0
1, 71116, Note_on_c, 0, 55, 0
1, 71135, Note_on_c, 0, 74, 0
1, 71145, Note_on_c, 0, 86, 42
1, 71163, Note_on_c, 9, 51, 58
1, 71164, Note_on_c, 9, 53, 64
1, 71171, Note_on_c, 0, 51, 0
1, 71172, Note_on_c, 9, 53, 0
1, 71172, Note_on_c, 0, 74, 36
1, 71177, Note_on_c, 0, 86, 0
1, 71178, Note_on_c, 9, 51, 0
1, 71178, Note_on_c, 9, 37, 74
1, 71182, Note_on_c, 9, 63, 62
1, 71184, Note_on_c, 9, 62, 78
1, 71196, Note_on_c, 9, 62, 0
1, 71201, Note_on_c, 9, 63, 0
1, 71206, Note_on_c, 9, 37, 0
1, 71216, Note_on_c, 1, 36, 0
1, 71217, Note_on_c, 0, 86, 22
1, 71224, Note_on_c, 0, 74, 0
1, 71225, Note_on_c, 9, 35, 40
1, 71227, Note_on_c, 1, 39, 77
1, 71227, Note_on_c, 9, 53, 88
1, 71228, Note_on_c, 9, 51, 81
1, 71235, Note_on_c, 0, 86, 0
1, 71240, Note_on_c, 0, 54, 67
1, 71242, Note_on_c, 9, 62, 74
1, 71242, Note_on_c, 9, 63, 69
1, 71243, Note_on_c, 0, 55, 77
1, 71251, Note_on_c, 9, 35, 0
1, 71258, Note_on_c, 9, 53, 0
1, 71261, Note_on_c, 9, 51, 0
1, 71274, Note_on_c, 9, 62, 0
1, 71285, Note_on_c, 9, 63, 0
1, 71285, Note_on_c, 9, 35, 53
1, 71290, Note_on_c, 1, 39, 0
1, 71294, Note_on_c, 0, 54, 0
1, 71301, Note_on_c, 9, 37, 76
1, 71312, Note_on_c, 9, 35, 0
1, 71329, Note_on_c, 9, 37, 0
1, 71349, Note_on_c, 9, 51, 76
1, 71350, Note_on_c, 9, 53, 82
1, 71375, Note_on_c, 0, 55, 0
1, 71376, Note_on_c, 9, 51, 0
1, 71378, Note_on_c, 9, 53, 0
1, 71408, Note_on_c, 0, 54, 49
1, 71409, Note_on_c, 1, 41, 95
1, 71412, Note_on_c, 0, 55, 67
1, 71415, Note_on_c, 9, 64, 83
1, 71429, Note_on_c, 0, 54, 0
1, 71440, Note_on_c, 9, 64, 0
1, 71465, Note_on_c, 9, 35, 58
1, 71466, Note_on_c, 9, 59, 80
1, 71479, Note_on_c, 9, 64, 83
1, 71492, Note_on_c, 9, 59, 0
1, 71493, Note_on_c, 9, 35, 0
1, 71523, Note_on_c, 9, 51, 59
1, 71525, Note_on_c, 9, 35, 52
1, 71527, Note_on_c, 9, 53, 66
1, 71538, Note_on_c, 9, 37, 75
1, 71543, Note_on_c, 9, 53, 0
1, 71545, Note_on_c, 9, 51, 0
1, 71551, Note_on_c, 9, 35, 0
1, 71566, Note_on_c, 9, 37, 0
1, 71568, Note_on_c, 9, 64, 0
1, 71582, Note_on_c, 0, 68, 59
1, 71584, Note_on_c, 9, 51, 42
1, 71587, Note_on_c, 0, 59, 53
1, 71590, Note_on_c, 0, 63, 39
1, 71590, Note_on_c, 9, 53, 45
1, 71592, Note_on_c, 0, 65, 51
1, 71604, Note_on_c, 9, 53, 0
1, 71608, Note_on_c, 9, 51, 0
1, 71647, Note_on_c, 9, 51, 44
1, 71650, Note_on_c, 9, 53, 53
1, 71653, Note_on_c, 9, 63, 51
1, 71655, Note_on_c, 9, 62, 70
1, 71661, Note_on_c, 9, 53, 0
1, 71667, Note_on_c, 9, 62, 0
1, 71667, Note_on_c, 9, 51, 0
1, 71674, Note_on_c, 9, 63, 0
1, 71705, Note_on_c, 9, 35, 53
1, 71712, Note_on_c, 0, 59, 0
1, 71713, Note_on_c, 9, 63, 62
1, 71713, Note_on_c, 9, 62, 60
1, 71714, Note_on_c, 9, 37, 76
1, 71716, Note_on_c, 0, 63, 0
1, 71720, Note_on_c, 0, 55, 0
1, 71722, Note_on_c, 0, 68, 0
1, 71730, Note_on_c, 9, 35, 0
1, 71735, Note_on_c, 0, 65, 0
1, 71740, Note_on_c, 9, 37, 0
1, 71742, Note_on_c, 9, 62, 0
1, 71756, Note_on_c, 9, 63, 0
1, 71761, Note_on_c, 0, 63, 44
1, 71762, Note_on_c, 0, 67, 49
1, 71764, Note_on_c, 0, 59, 45
1, 71765, Note_on_c, 9, 35, 50
1, 71789, Note_on_c, 0, 59, 0
1, 71793, Note_on_c, 9, 35, 0
1, 71806, Note_on_c, 0, 63, 0
1, 71813, Note_on_c, 0, 67, 0
1, 71823, Note_on_c, 9, 53, 51
1, 71825, Note_on_c, 1, 39, 77
1, 71825, Note_on_c, 9, 51, 59
1, 71831, Note_on_c, 9, 53, 0
1, 71842, Note_on_c, 1, 41, 0
1, 71842, Note_on_c, 9, 51, 0
1, 71877, Note_on_c, 0, 63, 43
1, 71878, Note_on_c, 0, 59, 48
1, 71878, Note_on_c, 0, 65, 53
1, 71892, Note_on_c, 9, 64, 87
1, 71898, Note_on_c, 9, 37, 77
1, 71916, Note_on_c, 0, 65, 0
1, 71916, Note_on_c, 0, 59, 0
1, 71919, Note_on_c, 9, 64, 0
1, 71926, Note_on_c, 9, 37, 0
1, 71928, Note_on_c, 0, 63, 0
1, 71942, Note_on_c, 9, 51, 77
1, 71945, Note_on_c, 9, 35, 54
1, 71950, Note_on_c, 9, 64, 76
1, 71961, Note_on_c, 9, 51, 0
1, 71972, Note_on_c, 9, 35, 0
1, 71988, Note_on_c, 9, 64, 0
1, 71994, Note_on_c, 0, 63, 49
1, 71998, Note_on_c, 0, 60, 48
1, 71999, Note_on_c, 9, 51, 74
1, 72001, Note_on_c, 0, 55, 47
1, 72003, Note_on_c, 0, 48, 34
1, 72005, Note_on_c, 9, 35, 40
1, 72006, Note_on_c, 1, 31, 49
1, 72028, Note_on_c, 1, 39, 0
1, 72033, Note_on_c, 1, 31, 0
1, 72037, Note_on_c, 9, 35, 0
1, 72059, Note_on_c, 9, 51, 0
1, 72118, Note_on_c, 9, 51, 90
1, 72120, Note_on_c, 1, 36, 71
1, 72127, Note_on_c, 9, 37, 76
1, 72128, Note_on_c, 9, 63, 48
1, 72129, Note_on_c, 9, 62, 74
1, 72132, Note_on_c, 0, 55, 0
1, 72139, Note_on_c, 0, 48, 0
1, 72141, Note_on_c, 0, 60, 0
1, 72146, Note_on_c, 9, 62, 0
1, 72149, Note_on_c, 9, 63, 0
1, 72152, Note_on_c, 9, 51, 0
1, 72152, Note_on_c, 9, 37, 0
1, 72159, Note_on_c, 0, 63, 0
1, 72161, Note_on_c, 1, 36, 0
1, 72185, Note_on_c, 9, 35, 60
1, 72185, Note_on_c, 9, 62, 60
1, 72186, Note_on_c, 0, 62, 42
1, 72187, Note_on_c, 9, 63, 56
1, 72188, Note_on_c, 0, 55, 49
1, 72195, Note_on_c, 0, 60, 36
1, 72195, Note_on_c, 0, 48, 39
1, 72208, Note_on_c, 9, 35, 0
1, 72210, Note_on_c, 9, 62, 0
1, 72213, Note_on_c, 0, 60, 0
1, 72218, Note_on_c, 0, 48, 0
1, 72220, Note_on_c, 9, 63, 0
1, 72220, Note_on_c, 0, 55, 0
1, 72237, Note_on_c, 9, 51, 71
1, 72238, Note_on_c, 1, 39, 83
1, 72243, Note_on_c, 0, 62, 0
1, 72245, Note_on_c, 9, 35, 49
1, 72252, Note_on_c, 9, 51, 0
1, 72254, Note_on_c, 9, 37, 73
1, 72269, Note_on_c, 9, 35, 0
1, 72282, Note_on_c, 9, 37, 0
1, 72302, Note_on_c, 9, 51, 77
1, 72305, Note_on_c, 9, 35, 60
1, 72318, Note_on_c, 9, 51, 0
1, 72333, Note_on_c, 9, 35, 0
1, 72351, Note_on_c, 0, 63, 55
1, 72356, Note_on_c, 0, 48, 49
1, 72357, Note_on_c, 0, 55, 55
1, 72359, Note_on_c, 0, 60, 50
1, 72368, Note_on_c, 9, 64, 88
1, 72390, Control_c, 0, 64, 127
1, 72394, Note_on_c, 9, 64, 0
1, 72404, Note_on_c, 1, 39, 0
1, 72410, Note_on_c, 1, 41, 92
1, 72415, Note_on_c, 0, 55, 0
1, 72425, Note_on_c, 9, 35, 50
1, 72427, Note_on_c, 9, 51, 81
1, 72450, Note_on_c, 9, 35, 0
1, 72452, Note_on_c, 9, 51, 0
1, 72454, Note_on_c, 0, 60, 0
1, 72464, Note_on_c, 0, 63, 0
1, 72482, Note_on_c, 0, 48, 0
1, 72484, Note_on_c, 9, 37, 71
1, 72485, Note_on_c, 9, 35, 50
1, 72511, Note_on_c, 9, 37, 0
1, 72514, Note_on_c, 9, 35, 0
1, 72539, Note_on_c, 9, 51, 75
1, 72566, Note_on_c, 9, 51, 0
1, 72610, Note_on_c, 9, 63, 67
1, 72632, Note_on_c, 9, 63, 0
1, 72665, Note_on_c, 9, 35, 49
1, 72668, Note_on_c, 9, 63, 79
1, 72670, Note_on_c, 9, 51, 74
1, 72672, Note_on_c, 9, 37, 71
1, 72690, Note_on_c, 9, 51, 0
1, 72690, Note_on_c, 1, 41, 0
1, 72692, Note_on_c, 9, 35, 0
1, 72698, Note_on_c, 9, 37, 0
1, 72702, Note_on_c, 1, 41, 26
1, 72703, Note_on_c, 9, 63, 0
1, 72723, Note_on_c, 9, 51, 69
1, 72725, Note_on_c, 9, 35, 53
1, 72740, Note_on_c, 9, 51, 0
1, 72756, Note_on_c, 9, 35, 0
1, 72781, Note_on_c, 9, 51, 59
1, 72800, Note_on_c, 9, 51, 0
1, 72811, Note_on_c, 1, 41, 0
1, 72835, Note_on_c, 1, 42, 79
1, 72841, Note_on_c, 9, 51, 58
1, 72847, Note_on_c, 9, 64, 84
1, 72855, Note_on_c, 9, 37, 75
1, 72860, Note_on_c, 9, 51, 0
1, 72869, Note_on_c, 1, 42, 0
1, 72872, Note_on_c, 9, 64, 0
1, 72885, Note_on_c, 9, 37, 0
1, 72900, Note_on_c, 9, 51, 75
1, 72905, Note_on_c, 9, 35, 57
1, 72911, Note_on_c, 9, 64, 79
1, 72920, Note_on_c, 9, 51, 0
1, 72930, Note_on_c, 9, 35, 0
1, 72949, Note_on_c, 9, 64, 0
1, 72961, Note_on_c, 9, 57, 80
1, 72962, Note_on_c, 9, 51, 70
1, 72965, Note_on_c, 9, 35, 50
1, 72965, Note_on_c, 9, 53, 61
1, 72966, Note_on_c, 0, 67, 81
1, 72967, Note_on_c, 0, 61, 80
1, 72968, Note_on_c, 0, 64, 79
1, 72968, Note_on_c, 0, 59, 90
1, 72968, Note_on_c, 1, 43, 101
1, 72972, Note_on_c, 0, 65, 77
1, 72973, Note_on_c, 9, 53, 0
1, 72973, Note_on_c, 9, 57, 0
1, 72977, Control_c, 0, 64, 0
1, 72977, Note_on_c, 0, 55, 85
1, 72982, Note_on_c, 0, 65, 0
1, 72984, Note_on_c, 9, 51, 0
1, 72996, Note_on_c, 9, 35, 0
1, 72997, Note_on_c, 0, 59, 0
1, 73023, Note_on_c, 0, 64, 0
1, 73028, Note_on_c, 0, 59, 51
1, 73032, Note_on_c, 0, 67, 0
1, 73050, Note_on_c, 0, 67, 16
1, 73055, Note_on_c, 0, 59, 0
1, 73088, Note_on_c, 0, 67, 0
1, 73088, Note_on_c, 0, 59, 36
1, 73092, Note_on_c, 9, 37, 71
1, 73101, Note_on_c, 9, 63, 57
1, 73102, Note_on_c, 9, 62, 78
1, 73116, Note_on_c, 0, 59, 0
1, 73118, Note_on_c, 9, 37, 0
1, 73118, Note_on_c, 0, 67, 28
1, 73124, Note_on_c, 9, 62, 0
1, 73127, Note_on_c, 9, 63, 0
1, 73135, Note_on_c, 1, 31, 79
1, 73145, Note_on_c, 9, 35, 57
1, 73147, Note_on_c, 9, 51, 76
1, 73149, Note_on_c, 0, 67, 0
1, 73151, Note_on_c, 0, 59, 58
1, 73152, Note_on_c, 0, 61, 0
1, 73158, Note_on_c, 0, 55, 0
1, 73159, Note_on_c, 9, 62, 60
1, 73160, Note_on_c, 9, 51, 0
1, 73161, Note_on_c, 0, 61, 25
1, 73163, Note_on_c, 9, 63, 64
1, 73165, Note_on_c, 0, 43, 68
1, 73169, Note_on_c, 0, 67, 34
1, 73170, Note_on_c, 9, 35, 0
1, 73177, Note_on_c, 0, 59, 0
1, 73190, Note_on_c, 9, 62, 0
1, 73192, Note_on_c, 1, 31, 0
1, 73201, Note_on_c, 9, 63, 0
1, 73202, Note_on_c, 0, 59, 41
1, 73205, Note_on_c, 9, 35, 58
1, 73210, Note_on_c, 9, 51, 73
1, 73223, Note_on_c, 9, 51, 0
1, 73223, Note_on_c, 9, 37, 75
1, 73230, Note_on_c, 9, 35, 0
1, 73236, Note_on_c, 0, 59, 0
1, 73239, Control_c, 0, 64, 127
1, 73244, Note_on_c, 0, 63, 32
1, 73250, Note_on_c, 0, 61, 0
1, 73252, Note_on_c, 9, 37, 0
1, 73265, Note_on_c, 9, 35, 46
1, 73272, Note_on_c, 0, 67, 0
1, 73274, Note_on_c, 9, 51, 86
1, 73277, Note_on_c, 9, 53, 74
1, 73292, Note_on_c, 0, 63, 0
1, 73293, Note_on_c, 9, 35, 0
1, 73307, Note_on_c, 0, 43, 0
1, 73313, Note_on_c, 0, 61, 74
1, 73314, Note_on_c, 0, 59, 74
1, 73314, Note_on_c, 0, 63, 62
1, 73315, Note_on_c, 9, 51, 0
1, 73315, Note_on_c, 0, 67, 69
1, 73317, Note_on_c, 1, 31, 92
1, 73319, Note_on_c, 0, 55, 80
1, 73320, Note_on_c, 9, 53, 0
1, 73323, Control_c, 0, 64, 0
1, 73329, Note_on_c, 9, 64, 74
1, 73346, Note_on_c, 0, 61, 0
1, 73347, Note_on_c, 9, 64, 0
1, 73385, Note_on_c, 9, 35, 60
1, 73391, Note_on_c, 9, 51, 60
1, 73400, Note_on_c, 9, 51, 0
1, 73401, Note_on_c, 9, 64, 80
1, 73409, Note_on_c, 9, 35, 0
1, 73431, Control_c, 0, 64, 127
1, 73439, Note_on_c, 9, 64, 0
1, 73445, Note_on_c, 9, 35, 79
1, 73453, Note_on_c, 9, 51, 87
1, 73456, Note_on_c, 9, 53, 77
1, 73460, Note_on_c, 9, 37, 77
1, 73469, Note_on_c, 9, 35, 0
1, 73478, Note_on_c, 1, 43, 0
1, 73488, Note_on_c, 9, 37, 0
1, 73496, Note_on_c, 9, 51, 0
1, 73500, Note_on_c, 9, 53, 0
1, 73502, Note_on_c, 9, 62, 82
1, 73504, Note_on_c, 9, 63, 64
1, 73528, Note_on_c, 9, 62, 0
1, 73546, Note_on_c, 9, 63, 0
1, 73564, Note_on_c, 9, 51, 60
1, 73580, Note_on_c, 9, 51, 0
1, 73603, Note_on_c, 9, 62, 69
1, 73605, Note_on_c, 9, 63, 74
1, 73622, Note_on_c, 9, 62, 0
1, 73625, Note_on_c, 9, 35, 52
1, 73630, Note_on_c, 9, 51, 88
1, 73632, Note_on_c, 9, 53, 78
1, 73634, Note_on_c, 0, 67, 0
1, 73639, Note_on_c, 9, 37, 74
1, 73649, Note_on_c, 9, 63, 0
1, 73651, Note_on_c, 9, 35, 0
1, 73661, Note_on_c, 0, 55, 0
1, 73662, Note_on_c, 9, 51, 0
1, 73665, Note_on_c, 9, 37, 0
1, 73666, Note_on_c, 9, 53, 0
1, 73685, Note_on_c, 9, 35, 52
1, 73686, Note_on_c, 0, 63, 0
1, 73692, Note_on_c, 0, 59, 0
1, 73702, Note_on_c, 9, 62, 80
1, 73720, Note_on_c, 9, 62, 0
1, 73743, Note_on_c, 0, 68, 69
1, 73744, Note_on_c, 0, 63, 71
1, 73745, Note_on_c, 9, 51, 64
1, 73749, Note_on_c, 0, 59, 61
1, 73749, Note_on_c, 0, 55, 68
1, 73764, Note_on_c, 9, 51, 0
1, 73772, Note_on_c, 0, 55, 0
1, 73779, Note_on_c, 0, 59, 0
1, 73780, Control_c, 0, 64, 0
1, 73781, Note_on_c, 0, 68, 0
1, 73784, Note_on_c, 9, 35, 0
1, 73788, Note_on_c, 9, 62, 92
1, 73790, Note_on_c, 9, 63, 73
1, 73793, Note_on_c, 0, 63, 0
1, 73804, Note_on_c, 9, 51, 53
1, 73811, Note_on_c, 9, 62, 0
1, 73811, Note_on_c, 9, 37, 77
1, 73818, Note_on_c, 9, 51, 0
1, 73824, Note_on_c, 0, 67, 54
1, 73827, Note_on_c, 0, 59, 45
1, 73834, Control_c, 0, 64, 127
1, 73837, Note_on_c, 0, 63, 30
1, 73840, Note_on_c, 9, 37, 0
1, 73844, Note_on_c, 9, 63, 0
1, 73845, Note_on_c, 0, 59, 0
1, 73848, Note_on_c, 0, 67, 0
1, 73864, Note_on_c, 9, 51, 92
1, 73865, Note_on_c, 0, 63, 0
1, 73865, Note_on_c, 9, 35, 45
1, 73877, Note_on_c, 9, 62, 83
1, 73884, Note_on_c, 9, 63, 56
1, 73886, Note_on_c, 9, 51, 0
1, 73888, Note_on_c, 9, 35, 0
1, 73896, Note_on_c, 9, 63, 0
1, 73904, Note_on_c, 9, 62, 0
1, 73924, Note_on_c, 9, 51, 87
1, 73925, Note_on_c, 9, 35, 49
1, 73926, Note_on_c, 9, 53, 81
1, 73927, Note_on_c, 1, 31, 0
1, 73935, Note_on_c, 0, 65, 68
1, 73936, Note_on_c, 0, 56, 57
1, 73936, Note_on_c, 1, 41, 110
1, 73940, Note_on_c, 0, 60, 67
1, 73941, Note_on_c, 1, 37, 67
1, 73943, Note_on_c, 0, 41, 57
1, 73945, Control_c, 0, 64, 0
1, 73954, Note_on_c, 1, 37, 0
1, 73955, Note_on_c, 9, 62, 87
1, 73956, Note_on_c, 0, 53, 25
1, 73963, Note_on_c, 9, 63, 75
1, 73965, Note_on_c, 9, 51, 0
1, 73967, Note_on_c, 9, 35, 0
1, 73971, Note_on_c, 9, 53, 0
1, 74000, Note_on_c, 9, 62, 0
1, 74020, Note_on_c, 9, 63, 0
1, 74046, Note_on_c, 9, 51, 57
1, 74048, Control_c, 0, 64, 127
1, 74050, Note_on_c, 9, 37, 69
1, 74054, Note_on_c, 9, 62, 70
1, 74059, Note_on_c, 9, 51, 0
1, 74077, Note_on_c, 9, 62, 0
1, 74077, Note_on_c, 9, 37, 0
1, 74104, Note_on_c, 9, 51, 86
1, 74105, Note_on_c, 9, 35, 44
1, 74106, Note_on_c, 9, 53, 79
1, 74131, Note_on_c, 9, 63, 79
1, 74132, Note_on_c, 9, 35, 0
1, 74133, Note_on_c, 9, 62, 84
1, 74142, Note_on_c, 9, 51, 0
1, 74143, Note_on_c, 9, 53, 0
1, 74165, Note_on_c, 0, 53, 0
1, 74165, Note_on_c, 9, 35, 47
1, 74174, Note_on_c, 9, 37, 77
1, 74185, Note_on_c, 9, 62, 0
1, 74193, Note_on_c, 0, 65, 0
1, 74197, Note_on_c, 0, 60, 0
1, 74198, Note_on_c, 9, 35, 0
1, 74202, Note_on_c, 9, 37, 0
1, 74207, Note_on_c, 9, 63, 0
1, 74218, Note_on_c, 0, 56, 0
1, 74220, Note_on_c, 0, 41, 0
1, 74225, Note_on_c, 9, 35, 47
1, 74227, Note_on_c, 9, 51, 48
1, 74237, Note_on_c, 9, 62, 60
1, 74245, Note_on_c, 9, 51, 0
1, 74255, Note_on_c, 9, 62, 0
1, 74255, Note_on_c, 9, 35, 0
1, 74281, Note_on_c, 9, 51, 48
1, 74291, Note_on_c, 9, 51, 0
1, 74310, Note_on_c, 9, 62, 99
1, 74317, Note_on_c, 9, 63, 57
1, 74345, Note_on_c, 9, 35, 40
1, 74345, Note_on_c, 9, 51, 75
1, 74346, Note_on_c, 9, 57, 68
1, 74348, Note_on_c, 9, 53, 65
1, 74356, Note_on_c, 9, 53, 0
1, 74358, Note_on_c, 9, 62, 0
1, 74366, Note_on_c, 9, 51, 0
1, 74366, Note_on_c, 9, 57, 0
1, 74371, Note_on_c, 9, 35, 0
1, 74372, Note_on_c, 9, 63, 0
1, 74386, Note_on_c, 1, 41, 0
1, 74400, Note_on_c, 1, 39, 95
1, 74405, Note_on_c, 0, 63, 51
1, 74405, Note_on_c, 9, 35, 41
1, 74407, Note_on_c, 9, 37, 74
1, 74409, Note_on_c, 0, 43, 45
1, 74412, Control_c, 0, 64, 0
1, 74412, Note_on_c, 0, 58, 33
1, 74412, Note_on_c, 1, 41, 57
1, 74413, Note_on_c, 0, 53, 33
1, 74415, Note_on_c, 0, 59, 29
1, 74417, Note_on_c, 9, 62, 81
1, 74425, Note_on_c, 1, 41, 0
1, 74433, Note_on_c, 9, 35, 0
1, 74433, Note_on_c, 9, 37, 0
1, 74436, Note_on_c, 9, 62, 0
1, 74464, Note_on_c, 9, 51, 63
1, 74482, Note_on_c, 9, 51, 0
1, 74490, Note_on_c, 9, 63, 82
1, 74495, Note_on_c, 9, 62, 91
1, 74520, Control_c, 0, 64, 127
1, 74521, Note_on_c, 9, 51, 49
1, 74528, Note_on_c, 9, 62, 0
1, 74535, Note_on_c, 9, 63, 0
1, 74537, Note_on_c, 9, 51, 0
1, 74582, Note_on_c, 9, 51, 54
1, 74585, Note_on_c, 9, 35, 54
1, 74585, Note_on_c, 9, 53, 40
1, 74589, Note_on_c, 9, 37, 73
1, 74590, Note_on_c, 9, 62, 76
1, 74594, Note_on_c, 9, 53, 0
1, 74598, Note_on_c, 9, 51, 0
1, 74608, Note_on_c, 9, 35, 0
1, 74608, Note_on_c, 9, 62, 0
1, 74619, Note_on_c, 9, 37, 0
1, 74621, Note_on_c, 0, 53, 0
1, 74642, Note_on_c, 9, 57, 71
1, 74642, Note_on_c, 9, 51, 71
1, 74645, Note_on_c, 9, 35, 44
1, 74646, Note_on_c, 9, 53, 55
1, 74650, Note_on_c, 9, 62, 79
1, 74654, Note_on_c, 9, 63, 72
1, 74655, Note_on_c, 9, 53, 0
1, 74661, Note_on_c, 9, 51, 0
1, 74662, Note_on_c, 9, 57, 0
1, 74679, Note_on_c, 9, 35, 0
1, 74681, Note_on_c, 9, 62, 0
1, 74700, Note_on_c, 9, 63, 0
1, 74717, Note_on_c, 0, 58, 0
1, 74721, Note_on_c, 0, 55, 60
1, 74725, Note_on_c, 0, 59, 0
1, 74744, Note_on_c, 0, 55, 0
1, 74751, Note_on_c, 0, 63, 0
1, 74762, Note_on_c, 9, 62, 57
1, 74763, Note_on_c, 9, 51, 56
1, 74766, Note_on_c, 9, 63, 44
1, 74770, Note_on_c, 9, 37, 75
1, 74771, Note_on_c, 0, 58, 42
1, 74775, Note_on_c, 9, 51, 0
1, 74777, Note_on_c, 9, 63, 0
1, 74779, Control_c, 0, 64, 0
1, 74783, Note_on_c, 9, 62, 0
1, 74801, Note_on_c, 9, 37, 0
1, 74825, Note_on_c, 9, 35, 45
1, 74825, Note_on_c, 9, 51, 58
1, 74829, Note_on_c, 9, 63, 71
1, 74830, Note_on_c, 9, 53, 42
1, 74838, Note_on_c, 9, 53, 0
1, 74838, Note_on_c, 9, 62, 35
1, 74843, Note_on_c, 9, 51, 0
1, 74846, Note_on_c, 0, 58, 0
1, 74847, Note_on_c, 0, 43, 0
1, 74850, Note_on_c, 9, 62, 0
1, 74851, Note_on_c, 9, 35, 0
1, 74852, Note_on_c, 1, 39, 0
1, 74854, Note_on_c, 9, 63, 0
1, 74877, Note_on_c, 1, 36, 92
1, 74884, Note_on_c, 9, 57, 73
1, 74885, Note_on_c, 9, 35, 52
1, 74885, Note_on_c, 9, 51, 75
1, 74886, Note_on_c, 0, 60, 84
1, 74888, Note_on_c, 9, 53, 55
1, 74896, Note_on_c, 9, 53, 0
1, 74901, Note_on_c, 9, 51, 0
1, 74903, Note_on_c, 9, 57, 0
1, 74915, Note_on_c, 9, 35, 0
1, 74940, Note_on_c, 0, 60, 0
1, 75003, Note_on_c, 9, 51, 36
1, 75007, Note_on_c, 0, 58, 32
1, 75007, Note_on_c, 9, 37, 71
1, 75012, Note_on_c, 9, 62, 69
1, 75013, Note_on_c, 9, 63, 49
1, 75016, Note_on_c, 9, 51, 0
1, 75031, Note_on_c, 9, 62, 0
1, 75031, Note_on_c, 9, 37, 0
1, 75040, Note_on_c, 9, 63, 0
1, 75061, Note_on_c, 9, 51, 53
1, 75063, Note_on_c, 9, 53, 48
1, 75065, Note_on_c, 9, 35, 50
1, 75070, Note_on_c, 0, 58, 0
1, 75071, Note_on_c, 9, 53, 0
1, 75075, Note_on_c, 9, 62, 66
1, 75076, Note_on_c, 9, 51, 0
1, 75079, Note_on_c, 9, 63, 54
1, 75089, Note_on_c, 9, 35, 0
1, 75111, Note_on_c, 9, 62, 0
1, 75117, Note_on_c, 9, 51, 70
1, 75118, Note_on_c, 9, 63, 0
1, 75119, Note_on_c, 9, 53, 67
1, 75125, Note_on_c, 9, 35, 47
1, 75133, Note_on_c, 9, 37, 74
1, 75138, Note_on_c, 0, 60, 57
1, 75144, Note_on_c, 9, 53, 0
1, 75149, Note_on_c, 9, 51, 0
1, 75154, Note_on_c, 9, 35, 0
1, 75163, Note_on_c, 9, 37, 0
1, 75185, Note_on_c, 9, 35, 46
1, 75191, Note_on_c, 0, 60, 0
1, 75216, Note_on_c, 9, 35, 0
1, 75260, Note_on_c, 9, 64, 78
1, 75287, Note_on_c, 9, 64, 0
1, 75305, Note_on_c, 9, 35, 42
1, 75316, Note_on_c, 9, 64, 74
1, 75331, Note_on_c, 9, 35, 0
1, 75362, Note_on_c, 9, 64, 0
1, 75365, Note_on_c, 9, 35, 50
1, 75373, Note_on_c, 0, 63, 55
1, 75374, Note_on_c, 0, 51, 34
1, 75392, Note_on_c, 9, 35, 0
1, 75408, Note_on_c, 0, 51, 0
1, 75421, Note_on_c, 9, 51, 50
1, 75422, Note_on_c, 0, 63, 0
1, 75424, Note_on_c, 9, 53, 39
1, 75439, Note_on_c, 0, 48, 27
1, 75444, Note_on_c, 9, 53, 0
1, 75444, Note_on_c, 9, 51, 0
1, 75444, Note_on_c, 0, 60, 25
1, 75460, Note_on_c, 0, 60, 0
1, 75467, Note_on_c, 0, 48, 0
1, 75481, Note_on_c, 9, 53, 39
1, 75482, Note_on_c, 9, 51, 37
1, 75483, Note_on_c, 0, 51, 35
1, 75485, Note_on_c, 0, 63, 48
1, 75492, Note_on_c, 9, 37, 59
1, 75495, Note_on_c, 9, 62, 59
1, 75495, Note_on_c, 9, 63, 44
1, 75501, Note_on_c, 9, 53, 0
1, 75503, Note_on_c, 9, 51, 0
1, 75505, Note_on_c, 9, 37, 0
1, 75511, Note_on_c, 9, 62, 0
1, 75516, Note_on_c, 9, 63, 0
1, 75523, Note_on_c, 0, 51, 0
1, 75526, Note_on_c, 0, 63, 0
1, 75545, Note_on_c, 9, 35, 49
1, 75545, Note_on_c, 9, 51, 70
1, 75545, Note_on_c, 9, 53, 72
1, 75551, Note_on_c, 9, 62, 54
1, 75555, Note_on_c, 0, 53, 42
1, 75555, Note_on_c, 9, 63, 52
1, 75560, Note_on_c, 0, 65, 84
1, 75562, Note_on_c, 9, 37, 61
1, 75568, Note_on_c, 9, 35, 0
1, 75574, Note_on_c, 9, 53, 0
1, 75576, Note_on_c, 9, 37, 0
1, 75576, Note_on_c, 0, 53, 0
1, 75577, Note_on_c, 9, 62, 0
1, 75581, Note_on_c, 9, 51, 0
1, 75585, Note_on_c, 9, 63, 0
1, 75602, Note_on_c, 0, 65, 0
1, 75605, Note_on_c, 9, 35, 41
1, 75610, Note_on_c, 0, 66, 34
1, 75635, Note_on_c, 9, 35, 0
1, 75639, Note_on_c, 0, 65, 35
1, 75658, Note_on_c, 0, 66, 0
1, 75663, Note_on_c, 9, 51, 53
1, 75674, Note_on_c, 0, 65, 0
1, 75678, Note_on_c, 0, 63, 39
1, 75681, Note_on_c, 9, 51, 0
1, 75703, Note_on_c, 0, 60, 50
1, 75709, Note_on_c, 0, 63, 0
1, 75717, Note_on_c, 9, 51, 67
1, 75721, Note_on_c, 9, 53, 67
1, 75722, Note_on_c, 0, 60, 0
1, 75732, Note_on_c, 0, 53, 66
1, 75735, Note_on_c, 9, 64, 72
1, 75737, Note_on_c, 0, 65, 92
1, 75752, Note_on_c, 9, 64, 0
1, 75761, Note_on_c, 9, 53, 0
1, 75763, Note_on_c, 9, 51, 0
1, 75785, Note_on_c, 9, 35, 53
1, 75803, Note_on_c, 9, 64, 71
1, 75807, Note_on_c, 9, 35, 0
1, 75822, Note_on_c, 0, 53, 0
1, 75825, Note_on_c, 0, 65, 0
1, 75832, Note_on_c, 9, 64, 0
1, 75845, Note_on_c, 9, 35, 40
1, 75852, Note_on_c, 0, 63, 54
1, 75852, Note_on_c, 9, 51, 65
1, 75854, Note_on_c, 9, 53, 62
1, 75859, Note_on_c, 0, 51, 34
1, 75871, Note_on_c, 0, 51, 0
1, 75875, Note_on_c, 9, 35, 0
1, 75876, Note_on_c, 9, 53, 0
1, 75884, Note_on_c, 9, 51, 0
1, 75908, Note_on_c, 0, 63, 0
1, 75919, Note_on_c, 0, 60, 57
1, 75951, Note_on_c, 0, 60, 0
1, 75978, Note_on_c, 0, 55, 35
1, 75980, Note_on_c, 9, 62, 34
1, 75982, Note_on_c, 9, 63, 36
1, 76009, Note_on_c, 9, 63, 0
1, 76011, Note_on_c, 9, 62, 0
1, 76022, Note_on_c, 0, 55, 0
1, 76022, Note_on_c, 9, 51, 48
1, 76025, Note_on_c, 9, 35, 49
1, 76036, Note_on_c, 0, 54, 62
1, 76042, Note_on_c, 9, 62, 51
1, 76043, Note_on_c, 9, 51, 0
1, 76043, Note_on_c, 9, 63, 54
1, 76050, Note_on_c, 9, 35, 0
1, 76055, Note_on_c, 0, 43, 22
1, 76065, Note_on_c, 0, 43, 0
1, 76072, Note_on_c, 9, 62, 0
1, 76076, Note_on_c, 9, 63, 0
1, 76082, Note_on_c, 9, 51, 64
1, 76085, Note_on_c, 9, 35, 40
1, 76086, Note_on_c, 9, 53, 57
1, 76115, Note_on_c, 9, 35, 0
1, 76123, Note_on_c, 0, 54, 0
1, 76123, Note_on_c, 0, 53, 47
1, 76126, Note_on_c, 9, 53, 0
1, 76127, Note_on_c, 9, 51, 0
1, 76153, Note_on_c, 0, 53, 0
1, 76172, Note_on_c, 0, 51, 56
1, 76185, Note_on_c, 0, 39, 28
1, 76189, Note_on_c, 0, 51, 0
1, 76197, Note_on_c, 0, 39, 0
1, 76202, Note_on_c, 9, 64, 72
1, 76213, Note_on_c, 0, 41, 44
1, 76215, Note_on_c, 0, 53, 71
1, 76216, Note_on_c, 0, 60, 69
1, 76241, Note_on_c, 9, 64, 0
1, 76265, Note_on_c, 9, 35, 50
1, 76272, Note_on_c, 0, 60, 0
1, 76277, Note_on_c, 9, 64, 66
1, 76280, Note_on_c, 9, 51, 70
1, 76284, Note_on_c, 9, 53, 64
1, 76285, Note_on_c, 0, 53, 0
1, 76290, Note_on_c, 9, 35, 0
1, 76307, Note_on_c, 0, 41, 0
1, 76307, Note_on_c, 9, 53, 0
1, 76316, Note_on_c, 9, 51, 0
1, 76316, Note_on_c, 9, 64, 0
1, 76327, Note_on_c, 0, 51, 55
1, 76329, Note_on_c, 0, 39, 31
1, 76340, Note_on_c, 1, 36, 0
1, 76348, Note_on_c, 0, 39, 0
1, 76384, Note_on_c, 0, 51, 0
1, 76398, Note_on_c, 0, 48, 37
1, 76401, Note_on_c, 9, 51, 34
1, 76416, Note_on_c, 9, 51, 0
1, 76431, Note_on_c, 0, 48, 0
1, 76437, Note_on_c, 0, 34, 21
1, 76443, Note_on_c, 0, 46, 52
1, 76452, Note_on_c, 9, 63, 27
1, 76453, Note_on_c, 9, 51, 59
1, 76454, Note_on_c, 9, 62, 26
1, 76457, Note_on_c, 9, 53, 60
1, 76486, Note_on_c, 9, 63, 0
1, 76490, Note_on_c, 9, 62, 0
1, 76502, Note_on_c, 9, 53, 0
1, 76507, Note_on_c, 9, 51, 0
1, 76519, Note_on_c, 9, 63, 39
1, 76520, Note_on_c, 9, 62, 53
1, 76540, Note_on_c, 0, 34, 0
1, 76542, Note_on_c, 0, 46, 0
1, 76543, Note_on_c, 9, 63, 0
1, 76544, Note_on_c, 9, 62, 0
1, 76573, Note_on_c, 0, 36, 36
1, 76574, Note_on_c, 0, 48, 42
1, 76626, Note_on_c, 9, 51, 60
1, 76645, Note_on_c, 9, 62, 37
1, 76653, Note_on_c, 9, 51, 0
1, 76673, Note_on_c, 9, 62, 0
1, 76760, Note_on_c, 9, 63, 25
1, 76782, Note_on_c, 9, 63, 0
1, 76784, Note_on_c, 9, 62, 22
1, 76813, Note_on_c, 9, 62, 0
1, 76823, Note_on_c, 9, 63, 26
1, 76846, Note_on_c, 9, 63, 0
1, 77017, Note_on_c, 0, 48, 0
1, 77154, Note_on_c, 0, 24, 65
1, 77557, Note_on_c, 0, 24, 0
1, 77571, Note_on_c, 0, 36, 0
1, 81120, Tempo, 375000
1, 81121, Tempo, 375000
1, 81192, Tempo, 377358
1, 81264, Tempo, 379747
1, 81336, Tempo, 382166
1, 81408, Tempo, 384615
1, 81480, Tempo, 387097
1, 81552, Tempo, 389610
1, 81624, Tempo, 392157
1, 81696, Tempo, 394737
1, 81768, Tempo, 397351
1, 81840, Tempo, 400000
1, 81912, Tempo, 402685
1, 81984, Tempo, 405405
1, 82056, Tempo, 408163
1, 82128, Tempo, 410959
1, 82200, Tempo, 413793
1, 82272, Tempo, 416667
1, 82344, Tempo, 419580
1, 82416, Tempo, 422535
1, 82488, Tempo, 425532
1, 82560, Tempo, 428571
1, 82631, Tempo, 431655
1, 82703, Tempo, 434783
1, 82775, Tempo, 437956
1, 82847, Tempo, 441176
1, 82919, Tempo, 444444
1, 82991, Tempo, 447761
1, 83063, Tempo, 451128
1, 83135, Tempo, 454545
1, 83207, Tempo, 458015
1, 83279, Tempo, 461538
1, 83351, Tempo, 465116
1, 83423, Tempo, 468750
1, 83495, Tempo, 472441
1, 83567, Tempo, 476190
1, 83639, Tempo, 480000
1, 83711, Tempo, 483871
1, 83783, Tempo, 487805
1, 83855, Tempo, 491803
1, 83927, Tempo, 495868
1, 83999, Tempo, 500000
1, 84000, Tempo, 375000
1, 84000, End_track
0, 0, End_of_file
