0, 0, Header, 1, 3, 120
1, 0, Start_track
1, 0, Title_t, "Gymnopedie No 1 (Satie)/It Never Entered My Mind (Rodgers & Hart)"
1, 0, Text_t, "Doug McKenzie"
1, 0, Text_t, "Gymnopedie No1 (Satie)/It Never Entered My Mind (Rodgers & Hart) - the idea for this combination was 'stolen' from George Shearing who cleverly combined the two themes. \012"
1, 0, Text_t, "dougmck@pipeline.com.au\012"
1, 0, Time_signature, 3, 2, 24, 8
1, 0, Key_signature, 0, "major"
1, 0, Tempo, 714286
1, 0, Marker_t, "Gymnopedie No 1(Satie)/It Never Entered My Mind (Rodgers & Hart) - The idea for this combination was 'stolen' from George Shearing who cleverly combined the two themes."
1, 0, End_track
2, 0, Start_track
2, 0, Title_t, "Played in Real Time"
2, 0, Control_c, 0, 64, 127
2, 0, Control_c, 0, 64, 0
2, 7, Note_on_c, 0, 41, 50
2, 8, Control_c, 0, 64, 127
2, 17, Note_on_c, 0, 41, 0
2, 135, Note_on_c, 0, 53, 17
2, 137, Note_on_c, 0, 60, 37
2, 138, Note_on_c, 0, 57, 27
2, 139, Note_on_c, 0, 64, 22
2, 139, Note_on_c, 0, 88, 54
2, 203, Note_on_c, 0, 60, 0
2, 206, Note_on_c, 0, 64, 0
2, 206, Note_on_c, 0, 53, 0
2, 207, Note_on_c, 0, 57, 0
2, 230, Note_on_c, 0, 88, 0
2, 269, Note_on_c, 0, 91, 89
2, 379, Control_c, 0, 64, 0
2, 383, Note_on_c, 0, 91, 0
2, 389, Note_on_c, 0, 36, 57
2, 389, Note_on_c, 0, 89, 72
2, 406, Control_c, 0, 64, 127
2, 419, Note_on_c, 0, 36, 0
2, 506, Note_on_c, 0, 89, 0
2, 516, Note_on_c, 0, 64, 22
2, 516, Note_on_c, 0, 59, 36
2, 517, Note_on_c, 0, 60, 41
2, 517, Note_on_c, 0, 88, 52
2, 519, Note_on_c, 0, 55, 31
2, 550, Note_on_c, 0, 88, 0
2, 642, Note_on_c, 0, 64, 0
2, 644, Note_on_c, 0, 60, 0
2, 647, Note_on_c, 0, 59, 0
2, 647, Note_on_c, 0, 83, 74
2, 655, Note_on_c, 0, 55, 0
2, 766, Control_c, 0, 64, 0
2, 769, Note_on_c, 0, 83, 0
2, 772, Note_on_c, 0, 41, 45
2, 772, Note_on_c, 0, 81, 57
2, 802, Control_c, 0, 64, 127
2, 809, Note_on_c, 0, 41, 0
2, 892, Note_on_c, 0, 83, 71
2, 898, Note_on_c, 0, 60, 35
2, 899, Note_on_c, 0, 57, 32
2, 899, Note_on_c, 0, 53, 17
2, 900, Note_on_c, 0, 64, 18
2, 904, Note_on_c, 0, 81, 0
2, 985, Note_on_c, 0, 57, 0
2, 985, Note_on_c, 0, 64, 0
2, 996, Note_on_c, 0, 60, 0
2, 998, Note_on_c, 0, 53, 0
2, 1009, Note_on_c, 0, 83, 0
2, 1016, Note_on_c, 0, 84, 65
2, 1132, Control_c, 0, 64, 0
2, 1137, Note_on_c, 0, 84, 0
2, 1137, Note_on_c, 0, 79, 64
2, 1140, Note_on_c, 0, 36, 40
2, 1164, Control_c, 0, 64, 127
2, 1177, Note_on_c, 0, 36, 0
2, 1269, Note_on_c, 0, 55, 41
2, 1270, Note_on_c, 0, 59, 36
2, 1271, Note_on_c, 0, 64, 31
2, 1271, Note_on_c, 0, 60, 42
2, 1314, Note_on_c, 0, 55, 0
2, 1356, Note_on_c, 0, 59, 0
2, 1359, Note_on_c, 0, 60, 0
2, 1362, Note_on_c, 0, 64, 0
2, 1504, Control_c, 0, 64, 0
2, 1515, Note_on_c, 0, 41, 75
2, 1536, Control_c, 0, 64, 127
2, 1561, Note_on_c, 0, 41, 0
2, 1652, Note_on_c, 0, 64, 60
2, 1653, Note_on_c, 0, 60, 58
2, 1653, Note_on_c, 0, 53, 60
2, 1653, Note_on_c, 0, 57, 61
2, 1769, Note_on_c, 0, 60, 0
2, 1774, Note_on_c, 0, 57, 0
2, 1774, Note_on_c, 0, 64, 0
2, 1786, Note_on_c, 0, 53, 0
2, 1912, Control_c, 0, 64, 0
2, 1914, Note_on_c, 0, 79, 0
2, 1914, Note_on_c, 0, 48, 36
2, 1915, Note_on_c, 0, 83, 51
2, 1916, Note_on_c, 0, 36, 34
2, 1940, Control_c, 0, 64, 127
2, 1953, Note_on_c, 0, 36, 0
2, 1965, Note_on_c, 0, 48, 0
2, 2050, Note_on_c, 0, 64, 31
2, 2052, Note_on_c, 0, 59, 41
2, 2053, Note_on_c, 0, 55, 34
2, 2053, Note_on_c, 0, 60, 41
2, 2139, Note_on_c, 0, 60, 0
2, 2139, Note_on_c, 0, 59, 0
2, 2141, Note_on_c, 0, 55, 0
2, 2142, Note_on_c, 0, 64, 0
2, 2237, Note_on_c, 0, 83, 0
2, 2316, Control_c, 0, 64, 0
2, 2316, Note_on_c, 0, 41, 54
2, 2318, Note_on_c, 0, 83, 80
2, 2346, Control_c, 0, 64, 127
2, 2361, Note_on_c, 0, 41, 0
2, 2446, Note_on_c, 0, 53, 35
2, 2448, Note_on_c, 0, 64, 43
2, 2449, Note_on_c, 0, 57, 53
2, 2449, Note_on_c, 0, 60, 57
2, 2517, Note_on_c, 0, 60, 0
2, 2519, Note_on_c, 0, 57, 0
2, 2523, Note_on_c, 0, 53, 0
2, 2524, Note_on_c, 0, 64, 0
2, 2594, Note_on_c, 0, 83, 0
2, 2702, Control_c, 0, 64, 0
2, 2710, Note_on_c, 0, 24, 37
2, 2713, Note_on_c, 0, 36, 35
2, 2713, Note_on_c, 0, 83, 45
2, 2729, Control_c, 0, 64, 127
2, 2740, Note_on_c, 0, 24, 0
2, 2751, Note_on_c, 0, 36, 0
2, 2843, Note_on_c, 0, 64, 34
2, 2846, Note_on_c, 0, 60, 42
2, 2848, Note_on_c, 0, 59, 41
2, 2850, Note_on_c, 0, 55, 35
2, 2929, Note_on_c, 0, 60, 0
2, 2931, Note_on_c, 0, 64, 0
2, 2932, Note_on_c, 0, 59, 0
2, 2936, Note_on_c, 0, 55, 0
2, 3088, Control_c, 0, 64, 0
2, 3099, Note_on_c, 0, 41, 46
2, 3101, Note_on_c, 0, 48, 43
2, 3113, Control_c, 0, 64, 127
2, 3133, Note_on_c, 0, 41, 0
2, 3135, Note_on_c, 0, 48, 0
2, 3155, Note_on_c, 0, 83, 0
2, 3240, Note_on_c, 0, 64, 27
2, 3242, Note_on_c, 0, 60, 40
2, 3242, Note_on_c, 0, 57, 37
2, 3243, Note_on_c, 0, 53, 18
2, 3334, Note_on_c, 0, 76, 94
2, 3351, Note_on_c, 0, 64, 0
2, 3353, Note_on_c, 0, 60, 0
2, 3356, Note_on_c, 0, 57, 0
2, 3361, Note_on_c, 0, 53, 0
2, 3421, Note_on_c, 0, 76, 0
2, 3441, Note_on_c, 0, 76, 78
2, 3502, Note_on_c, 0, 76, 0
2, 3514, Control_c, 0, 64, 0
2, 3517, Note_on_c, 0, 24, 47
2, 3518, Note_on_c, 0, 36, 42
2, 3520, Note_on_c, 0, 76, 68
2, 3533, Note_on_c, 0, 24, 0
2, 3539, Control_c, 0, 64, 127
2, 3543, Note_on_c, 0, 36, 0
2, 3590, Note_on_c, 0, 76, 0
2, 3621, Note_on_c, 0, 76, 77
2, 3632, Note_on_c, 0, 64, 22
2, 3635, Note_on_c, 0, 60, 34
2, 3637, Note_on_c, 0, 59, 28
2, 3641, Note_on_c, 0, 55, 53
2, 3728, Note_on_c, 0, 76, 0
2, 3743, Note_on_c, 0, 64, 0
2, 3759, Note_on_c, 0, 60, 0
2, 3761, Note_on_c, 0, 59, 0
2, 3765, Note_on_c, 0, 76, 64
2, 3769, Note_on_c, 0, 55, 0
2, 3876, Control_c, 0, 64, 0
2, 3881, Note_on_c, 0, 41, 46
2, 3898, Control_c, 0, 64, 127
2, 3910, Note_on_c, 0, 41, 0
2, 4005, Note_on_c, 0, 60, 36
2, 4006, Note_on_c, 0, 57, 37
2, 4007, Note_on_c, 0, 53, 22
2, 4007, Note_on_c, 0, 64, 20
2, 4036, Note_on_c, 0, 76, 0
2, 4074, Note_on_c, 0, 76, 101
2, 4106, Note_on_c, 0, 60, 0
2, 4107, Note_on_c, 0, 57, 0
2, 4109, Note_on_c, 0, 64, 0
2, 4118, Note_on_c, 0, 53, 0
2, 4135, Note_on_c, 0, 74, 87
2, 4145, Note_on_c, 0, 76, 0
2, 4188, Note_on_c, 0, 74, 0
2, 4193, Note_on_c, 0, 72, 70
2, 4245, Note_on_c, 0, 72, 0
2, 4253, Control_c, 0, 64, 0
2, 4254, Note_on_c, 0, 71, 60
2, 4258, Note_on_c, 0, 48, 32
2, 4259, Note_on_c, 0, 36, 27
2, 4284, Control_c, 0, 64, 127
2, 4287, Note_on_c, 0, 36, 0
2, 4299, Note_on_c, 0, 48, 0
2, 4342, Note_on_c, 0, 71, 0
2, 4382, Note_on_c, 0, 71, 57
2, 4385, Note_on_c, 0, 55, 29
2, 4386, Note_on_c, 0, 60, 32
2, 4386, Note_on_c, 0, 64, 22
2, 4470, Note_on_c, 0, 64, 0
2, 4473, Note_on_c, 0, 60, 0
2, 4478, Note_on_c, 0, 55, 0
2, 4626, Control_c, 0, 64, 0
2, 4629, Note_on_c, 0, 41, 43
2, 4647, Note_on_c, 0, 41, 0
2, 4651, Control_c, 0, 64, 127
2, 4727, Note_on_c, 0, 71, 0
2, 4765, Note_on_c, 0, 60, 34
2, 4765, Note_on_c, 0, 57, 33
2, 4767, Note_on_c, 0, 53, 17
2, 4768, Note_on_c, 0, 64, 15
2, 4826, Note_on_c, 0, 84, 83
2, 4832, Note_on_c, 0, 76, 75
2, 4861, Note_on_c, 0, 84, 0
2, 4874, Note_on_c, 0, 76, 0
2, 4888, Note_on_c, 0, 83, 69
2, 4891, Note_on_c, 0, 74, 73
2, 4901, Note_on_c, 0, 64, 0
2, 4904, Note_on_c, 0, 60, 0
2, 4911, Note_on_c, 0, 57, 0
2, 4918, Note_on_c, 0, 83, 0
2, 4923, Note_on_c, 0, 74, 0
2, 4938, Note_on_c, 0, 53, 0
2, 4945, Note_on_c, 0, 81, 71
2, 4947, Note_on_c, 0, 72, 60
2, 4969, Note_on_c, 0, 81, 0
2, 4973, Note_on_c, 0, 72, 0
2, 5010, Control_c, 0, 64, 0
2, 5010, Note_on_c, 0, 71, 60
2, 5010, Note_on_c, 0, 48, 46
2, 5012, Note_on_c, 0, 79, 60
2, 5040, Control_c, 0, 64, 127
2, 5059, Note_on_c, 0, 71, 0
2, 5140, Note_on_c, 0, 67, 46
2, 5145, Note_on_c, 0, 62, 29
2, 5146, Note_on_c, 0, 71, 37
2, 5147, Note_on_c, 0, 59, 24
2, 5186, Note_on_c, 0, 79, 0
2, 5206, Note_on_c, 0, 62, 0
2, 5208, Note_on_c, 0, 59, 0
2, 5211, Note_on_c, 0, 48, 0
2, 5250, Note_on_c, 0, 67, 0
2, 5324, Note_on_c, 0, 71, 0
2, 5328, Note_on_c, 0, 67, 37
2, 5383, Note_on_c, 0, 67, 0
2, 5386, Control_c, 0, 64, 0
2, 5388, Note_on_c, 0, 72, 74
2, 5388, Note_on_c, 0, 41, 49
2, 5418, Note_on_c, 0, 41, 0
2, 5418, Control_c, 0, 64, 127
2, 5517, Note_on_c, 0, 64, 27
2, 5521, Note_on_c, 0, 60, 38
2, 5523, Note_on_c, 0, 53, 18
2, 5524, Note_on_c, 0, 57, 30
2, 5547, Note_on_c, 0, 72, 0
2, 5557, Note_on_c, 0, 64, 0
2, 5558, Note_on_c, 0, 60, 0
2, 5561, Note_on_c, 0, 57, 0
2, 5581, Note_on_c, 0, 53, 0
2, 5652, Note_on_c, 0, 71, 58
2, 5659, Note_on_c, 0, 62, 43
2, 5688, Note_on_c, 0, 71, 0
2, 5701, Note_on_c, 0, 62, 0
2, 5787, Control_c, 0, 64, 0
2, 5788, Note_on_c, 0, 67, 47
2, 5790, Note_on_c, 0, 24, 32
2, 5792, Note_on_c, 0, 59, 40
2, 5794, Note_on_c, 0, 36, 27
2, 5807, Note_on_c, 0, 24, 0
2, 5812, Control_c, 0, 64, 127
2, 5818, Note_on_c, 0, 36, 0
2, 5825, Note_on_c, 0, 59, 0
2, 5851, Note_on_c, 0, 67, 0
2, 5934, Note_on_c, 0, 64, 33
2, 5936, Note_on_c, 0, 60, 37
2, 6007, Note_on_c, 0, 100, 71
2, 6025, Note_on_c, 0, 64, 0
2, 6030, Note_on_c, 0, 60, 0
2, 6071, Note_on_c, 0, 103, 73
2, 6074, Note_on_c, 0, 100, 0
2, 6115, Note_on_c, 0, 103, 0
2, 6133, Note_on_c, 0, 103, 58
2, 6171, Note_on_c, 0, 103, 0
2, 6190, Note_on_c, 0, 41, 43
2, 6192, Control_c, 0, 64, 0
2, 6193, Note_on_c, 0, 101, 61
2, 6210, Note_on_c, 0, 41, 0
2, 6216, Control_c, 0, 64, 127
2, 6299, Note_on_c, 0, 101, 0
2, 6315, Note_on_c, 0, 64, 24
2, 6316, Note_on_c, 0, 100, 57
2, 6318, Note_on_c, 0, 60, 33
2, 6318, Note_on_c, 0, 57, 29
2, 6319, Note_on_c, 0, 53, 20
2, 6345, Note_on_c, 0, 100, 0
2, 6396, Note_on_c, 0, 64, 0
2, 6403, Note_on_c, 0, 57, 0
2, 6403, Note_on_c, 0, 53, 0
2, 6410, Note_on_c, 0, 60, 0
2, 6442, Note_on_c, 0, 95, 43
2, 6557, Note_on_c, 0, 95, 0
2, 6559, Control_c, 0, 64, 0
2, 6560, Note_on_c, 0, 93, 51
2, 6561, Note_on_c, 0, 48, 26
2, 6563, Note_on_c, 0, 36, 31
2, 6581, Note_on_c, 0, 36, 0
2, 6584, Control_c, 0, 64, 127
2, 6596, Note_on_c, 0, 48, 0
2, 6688, Note_on_c, 0, 64, 30
2, 6691, Note_on_c, 0, 95, 48
2, 6693, Note_on_c, 0, 55, 33
2, 6693, Note_on_c, 0, 59, 37
2, 6693, Note_on_c, 0, 60, 40
2, 6699, Note_on_c, 0, 93, 0
2, 6752, Note_on_c, 0, 64, 0
2, 6755, Note_on_c, 0, 60, 0
2, 6763, Note_on_c, 0, 59, 0
2, 6773, Note_on_c, 0, 55, 0
2, 6817, Note_on_c, 0, 95, 0
2, 6825, Note_on_c, 0, 96, 62
2, 6938, Control_c, 0, 64, 0
2, 6945, Note_on_c, 0, 41, 44
2, 6946, Note_on_c, 0, 91, 59
2, 6963, Control_c, 0, 64, 127
2, 6967, Note_on_c, 0, 41, 0
2, 6971, Note_on_c, 0, 96, 0
2, 6998, Note_on_c, 0, 91, 0
2, 7072, Note_on_c, 0, 64, 35
2, 7074, Note_on_c, 0, 60, 53
2, 7076, Note_on_c, 0, 57, 41
2, 7076, Note_on_c, 0, 53, 34
2, 7157, Note_on_c, 0, 60, 0
2, 7158, Note_on_c, 0, 64, 0
2, 7158, Note_on_c, 0, 57, 0
2, 7164, Note_on_c, 0, 53, 0
2, 7315, Control_c, 0, 64, 0
2, 7320, Note_on_c, 0, 36, 49
2, 7335, Control_c, 0, 64, 127
2, 7339, Note_on_c, 0, 36, 0
2, 7456, Note_on_c, 0, 64, 22
2, 7458, Note_on_c, 0, 60, 37
2, 7458, Note_on_c, 0, 59, 38
2, 7459, Note_on_c, 0, 55, 34
2, 7527, Note_on_c, 0, 72, 91
2, 7556, Note_on_c, 0, 60, 0
2, 7561, Note_on_c, 0, 64, 0
2, 7562, Note_on_c, 0, 59, 0
2, 7578, Note_on_c, 0, 55, 0
2, 7591, Note_on_c, 0, 71, 85
2, 7600, Note_on_c, 0, 72, 0
2, 7652, Note_on_c, 0, 69, 74
2, 7654, Note_on_c, 0, 71, 0
2, 7715, Control_c, 0, 64, 0
2, 7716, Note_on_c, 0, 69, 0
2, 7716, Note_on_c, 0, 67, 71
2, 7719, Note_on_c, 0, 41, 48
2, 7742, Control_c, 0, 64, 127
2, 7750, Note_on_c, 0, 41, 0
2, 7851, Note_on_c, 0, 64, 26
2, 7852, Note_on_c, 0, 60, 44
2, 7853, Note_on_c, 0, 57, 38
2, 7854, Note_on_c, 0, 53, 20
2, 7872, Note_on_c, 0, 67, 0
2, 7925, Note_on_c, 0, 64, 0
2, 7934, Note_on_c, 0, 57, 0
2, 7936, Note_on_c, 0, 60, 0
2, 7937, Note_on_c, 0, 53, 0
2, 7984, Note_on_c, 0, 67, 78
2, 8084, Note_on_c, 0, 67, 0
2, 8115, Note_on_c, 0, 40, 61
2, 8118, Note_on_c, 0, 72, 79
2, 8128, Control_c, 0, 64, 0
2, 8156, Note_on_c, 0, 40, 0
2, 8158, Control_c, 0, 64, 127
2, 8244, Note_on_c, 0, 55, 47
2, 8248, Note_on_c, 0, 64, 45
2, 8251, Note_on_c, 0, 60, 47
2, 8259, Note_on_c, 0, 59, 20
2, 8273, Note_on_c, 0, 55, 0
2, 8275, Note_on_c, 0, 59, 0
2, 8281, Note_on_c, 0, 60, 0
2, 8284, Note_on_c, 0, 64, 0
2, 8354, Note_on_c, 0, 72, 0
2, 8372, Note_on_c, 0, 71, 82
2, 8494, Note_on_c, 0, 71, 0
2, 8495, Control_c, 0, 64, 0
2, 8495, Note_on_c, 0, 45, 50
2, 8496, Note_on_c, 0, 33, 51
2, 8496, Note_on_c, 0, 67, 76
2, 8517, Note_on_c, 0, 33, 0
2, 8522, Control_c, 0, 64, 127
2, 8529, Note_on_c, 0, 45, 0
2, 8634, Note_on_c, 0, 55, 46
2, 8635, Note_on_c, 0, 65, 45
2, 8635, Note_on_c, 0, 61, 47
2, 8707, Note_on_c, 0, 65, 0
2, 8711, Note_on_c, 0, 55, 0
2, 8722, Note_on_c, 0, 61, 0
2, 8787, Note_on_c, 0, 61, 35
2, 8787, Note_on_c, 0, 55, 41
2, 8788, Note_on_c, 0, 64, 34
2, 8802, Note_on_c, 0, 64, 0
2, 8807, Note_on_c, 0, 61, 0
2, 8809, Note_on_c, 0, 55, 0
2, 8935, Control_c, 0, 64, 0
2, 8935, Note_on_c, 0, 38, 45
2, 8936, Note_on_c, 0, 26, 46
2, 8954, Note_on_c, 0, 26, 0
2, 8961, Control_c, 0, 64, 127
2, 8967, Note_on_c, 0, 38, 0
2, 9010, Note_on_c, 0, 67, 0
2, 9075, Note_on_c, 0, 64, 25
2, 9076, Note_on_c, 0, 57, 36
2, 9078, Note_on_c, 0, 60, 39
2, 9080, Note_on_c, 0, 53, 15
2, 9156, Note_on_c, 0, 69, 60
2, 9209, Note_on_c, 0, 69, 0
2, 9218, Note_on_c, 0, 64, 0
2, 9222, Note_on_c, 0, 72, 69
2, 9225, Note_on_c, 0, 60, 0
2, 9227, Note_on_c, 0, 57, 0
2, 9234, Note_on_c, 0, 53, 0
2, 9276, Note_on_c, 0, 72, 0
2, 9285, Note_on_c, 0, 74, 68
2, 9342, Note_on_c, 0, 74, 0
2, 9356, Note_on_c, 0, 52, 36
2, 9356, Note_on_c, 0, 76, 79
2, 9359, Control_c, 0, 64, 0
2, 9383, Control_c, 0, 64, 127
2, 9397, Note_on_c, 0, 52, 0
2, 9472, Note_on_c, 0, 59, 36
2, 9474, Note_on_c, 0, 64, 36
2, 9475, Note_on_c, 0, 55, 36
2, 9475, Note_on_c, 0, 60, 36
2, 9562, Note_on_c, 0, 59, 0
2, 9564, Note_on_c, 0, 64, 0
2, 9565, Note_on_c, 0, 60, 0
2, 9565, Note_on_c, 0, 55, 0
2, 9618, Note_on_c, 0, 72, 44
2, 9625, Note_on_c, 0, 76, 0
2, 9689, Note_on_c, 0, 69, 32
2, 9691, Note_on_c, 0, 72, 0
2, 9754, Note_on_c, 0, 69, 0
2, 9757, Control_c, 0, 64, 0
2, 9763, Note_on_c, 0, 74, 52
2, 9764, Note_on_c, 0, 41, 36
2, 9779, Control_c, 0, 64, 127
2, 9790, Note_on_c, 0, 41, 0
2, 9860, Note_on_c, 0, 74, 0
2, 9911, Note_on_c, 0, 69, 37
2, 9913, Note_on_c, 0, 57, 30
2, 9913, Note_on_c, 0, 62, 25
2, 9913, Note_on_c, 0, 65, 40
2, 9931, Note_on_c, 0, 57, 0
2, 9955, Note_on_c, 0, 69, 0
2, 9965, Note_on_c, 0, 65, 0
2, 9968, Note_on_c, 0, 62, 0
2, 10065, Note_on_c, 0, 54, 29
2, 10068, Control_c, 0, 64, 0
2, 10069, Note_on_c, 0, 60, 28
2, 10069, Note_on_c, 0, 44, 25
2, 10070, Note_on_c, 0, 66, 35
2, 10071, Note_on_c, 0, 63, 31
2, 10087, Control_c, 0, 64, 127
2, 10121, Note_on_c, 0, 66, 0
2, 10122, Note_on_c, 0, 54, 0
2, 10123, Note_on_c, 0, 63, 0
2, 10123, Note_on_c, 0, 44, 0
2, 10127, Note_on_c, 0, 60, 0
2, 10237, Note_on_c, 0, 67, 33
2, 10239, Note_on_c, 0, 65, 38
2, 10241, Note_on_c, 0, 43, 30
2, 10243, Note_on_c, 0, 60, 41
2, 10243, Note_on_c, 0, 57, 25
2, 10245, Note_on_c, 0, 55, 26
2, 10247, Control_c, 0, 64, 0
2, 10287, Control_c, 0, 64, 127
2, 10299, Note_on_c, 0, 55, 0
2, 10312, Note_on_c, 0, 43, 0
2, 10445, Note_on_c, 0, 31, 42
2, 10478, Note_on_c, 0, 60, 0
2, 10487, Note_on_c, 0, 57, 0
2, 10590, Note_on_c, 0, 67, 0
2, 10594, Note_on_c, 0, 65, 0
2, 10683, Note_on_c, 0, 67, 17
2, 10686, Note_on_c, 0, 43, 28
2, 10686, Note_on_c, 0, 59, 26
2, 10688, Note_on_c, 0, 55, 26
2, 10800, Note_on_c, 0, 55, 0
2, 10809, Note_on_c, 0, 59, 0
2, 10818, Note_on_c, 0, 43, 0
2, 10824, Note_on_c, 0, 31, 0
2, 10834, Note_on_c, 0, 67, 0
2, 10995, Control_c, 0, 64, 0
2, 11000, Note_on_c, 0, 29, 35
2, 11000, Note_on_c, 0, 41, 39
2, 11021, Note_on_c, 0, 29, 0
2, 11024, Control_c, 0, 64, 127
2, 11035, Note_on_c, 0, 41, 0
2, 11144, Note_on_c, 0, 57, 42
2, 11145, Note_on_c, 0, 100, 79
2, 11146, Note_on_c, 0, 64, 28
2, 11146, Note_on_c, 0, 60, 43
2, 11147, Note_on_c, 0, 53, 30
2, 11211, Note_on_c, 0, 100, 0
2, 11250, Note_on_c, 0, 64, 0
2, 11259, Note_on_c, 0, 60, 0
2, 11260, Note_on_c, 0, 53, 0
2, 11264, Note_on_c, 0, 57, 0
2, 11276, Note_on_c, 0, 103, 82
2, 11382, Note_on_c, 0, 103, 0
2, 11398, Control_c, 0, 64, 0
2, 11399, Note_on_c, 0, 101, 53
2, 11400, Note_on_c, 0, 24, 46
2, 11401, Note_on_c, 0, 36, 36
2, 11417, Note_on_c, 0, 24, 0
2, 11421, Control_c, 0, 64, 127
2, 11430, Note_on_c, 0, 36, 0
2, 11481, Note_on_c, 0, 101, 0
2, 11530, Note_on_c, 0, 60, 44
2, 11530, Note_on_c, 0, 55, 39
2, 11531, Note_on_c, 0, 64, 27
2, 11531, Note_on_c, 0, 100, 60
2, 11532, Note_on_c, 0, 59, 36
2, 11546, Note_on_c, 0, 55, 0
2, 11548, Note_on_c, 0, 60, 0
2, 11549, Note_on_c, 0, 64, 0
2, 11622, Note_on_c, 0, 59, 0
2, 11646, Note_on_c, 0, 100, 0
2, 11659, Note_on_c, 0, 95, 64
2, 11760, Control_c, 0, 64, 0
2, 11779, Note_on_c, 0, 95, 0
2, 11779, Note_on_c, 0, 41, 50
2, 11782, Note_on_c, 0, 93, 62
2, 11795, Control_c, 0, 64, 127
2, 11806, Note_on_c, 0, 41, 0
2, 11900, Note_on_c, 0, 93, 0
2, 11901, Note_on_c, 0, 57, 39
2, 11902, Note_on_c, 0, 64, 32
2, 11903, Note_on_c, 0, 53, 20
2, 11905, Note_on_c, 0, 60, 32
2, 11908, Note_on_c, 0, 95, 63
2, 11952, Note_on_c, 0, 64, 0
2, 11965, Note_on_c, 0, 53, 0
2, 11967, Note_on_c, 0, 57, 0
2, 11967, Note_on_c, 0, 60, 0
2, 12015, Note_on_c, 0, 95, 0
2, 12025, Note_on_c, 0, 96, 70
2, 12072, Note_on_c, 0, 96, 0
2, 12136, Control_c, 0, 64, 0
2, 12140, Note_on_c, 0, 24, 44
2, 12141, Note_on_c, 0, 91, 62
2, 12144, Note_on_c, 0, 36, 38
2, 12160, Note_on_c, 0, 24, 0
2, 12166, Control_c, 0, 64, 127
2, 12172, Note_on_c, 0, 36, 0
2, 12266, Note_on_c, 0, 64, 53
2, 12267, Note_on_c, 0, 60, 57
2, 12268, Note_on_c, 0, 59, 61
2, 12268, Note_on_c, 0, 55, 40
2, 12342, Note_on_c, 0, 60, 0
2, 12342, Note_on_c, 0, 64, 0
2, 12345, Note_on_c, 0, 59, 0
2, 12357, Note_on_c, 0, 55, 0
2, 12496, Control_c, 0, 64, 0
2, 12509, Note_on_c, 0, 41, 59
2, 12520, Control_c, 0, 64, 127
2, 12527, Note_on_c, 0, 41, 0
2, 12570, Note_on_c, 0, 91, 0
2, 12642, Note_on_c, 0, 64, 25
2, 12642, Note_on_c, 0, 57, 35
2, 12642, Note_on_c, 0, 60, 42
2, 12643, Note_on_c, 0, 53, 24
2, 12728, Note_on_c, 0, 76, 88
2, 12739, Note_on_c, 0, 64, 0
2, 12744, Note_on_c, 0, 57, 0
2, 12744, Note_on_c, 0, 60, 0
2, 12761, Note_on_c, 0, 53, 0
2, 12827, Note_on_c, 0, 76, 0
2, 12845, Note_on_c, 0, 76, 65
2, 12902, Note_on_c, 0, 76, 0
2, 12906, Control_c, 0, 64, 0
2, 12912, Note_on_c, 0, 24, 37
2, 12913, Note_on_c, 0, 76, 60
2, 12916, Note_on_c, 0, 36, 26
2, 12932, Control_c, 0, 64, 127
2, 12938, Note_on_c, 0, 24, 0
2, 12951, Note_on_c, 0, 36, 0
2, 12986, Note_on_c, 0, 76, 0
2, 12998, Note_on_c, 0, 76, 63
2, 13046, Note_on_c, 0, 60, 36
2, 13048, Note_on_c, 0, 64, 27
2, 13051, Note_on_c, 0, 59, 33
2, 13053, Note_on_c, 0, 55, 30
2, 13120, Note_on_c, 0, 59, 0
2, 13127, Note_on_c, 0, 64, 0
2, 13127, Note_on_c, 0, 55, 0
2, 13127, Note_on_c, 0, 60, 0
2, 13276, Control_c, 0, 64, 0
2, 13282, Note_on_c, 0, 41, 38
2, 13284, Note_on_c, 0, 48, 31
2, 13300, Control_c, 0, 64, 127
2, 13308, Note_on_c, 0, 41, 0
2, 13310, Note_on_c, 0, 48, 0
2, 13411, Note_on_c, 0, 76, 0
2, 13411, Note_on_c, 0, 60, 38
2, 13412, Note_on_c, 0, 64, 24
2, 13414, Note_on_c, 0, 57, 30
2, 13415, Note_on_c, 0, 53, 22
2, 13481, Note_on_c, 0, 76, 92
2, 13499, Note_on_c, 0, 64, 0
2, 13503, Note_on_c, 0, 60, 0
2, 13506, Note_on_c, 0, 57, 0
2, 13515, Note_on_c, 0, 53, 0
2, 13536, Note_on_c, 0, 76, 0
2, 13540, Note_on_c, 0, 74, 82
2, 13544, Note_on_c, 0, 76, 26
2, 13551, Note_on_c, 0, 76, 0
2, 13592, Note_on_c, 0, 74, 0
2, 13600, Note_on_c, 0, 72, 80
2, 13645, Control_c, 0, 64, 0
2, 13652, Note_on_c, 0, 72, 0
2, 13658, Note_on_c, 0, 71, 66
2, 13659, Note_on_c, 0, 36, 30
2, 13659, Note_on_c, 0, 48, 26
2, 13677, Control_c, 0, 64, 127
2, 13690, Note_on_c, 0, 36, 0
2, 13704, Note_on_c, 0, 48, 0
2, 13754, Note_on_c, 0, 71, 0
2, 13787, Note_on_c, 0, 71, 58
2, 13794, Note_on_c, 0, 64, 19
2, 13794, Note_on_c, 0, 60, 30
2, 13794, Note_on_c, 0, 59, 33
2, 13795, Note_on_c, 0, 55, 40
2, 13890, Note_on_c, 0, 60, 0
2, 13893, Note_on_c, 0, 64, 0
2, 13894, Note_on_c, 0, 59, 0
2, 13903, Note_on_c, 0, 55, 0
2, 14022, Control_c, 0, 64, 0
2, 14034, Note_on_c, 0, 41, 36
2, 14046, Control_c, 0, 64, 127
2, 14052, Note_on_c, 0, 41, 0
2, 14158, Note_on_c, 0, 64, 27
2, 14161, Note_on_c, 0, 60, 36
2, 14163, Note_on_c, 0, 57, 38
2, 14163, Note_on_c, 0, 53, 25
2, 14164, Note_on_c, 0, 71, 0
2, 14224, Note_on_c, 0, 72, 90
2, 14238, Note_on_c, 0, 60, 0
2, 14243, Note_on_c, 0, 57, 0
2, 14243, Note_on_c, 0, 64, 0
2, 14253, Note_on_c, 0, 53, 0
2, 14276, Note_on_c, 0, 72, 0
2, 14282, Note_on_c, 0, 71, 81
2, 14333, Note_on_c, 0, 71, 0
2, 14338, Note_on_c, 0, 69, 85
2, 14393, Control_c, 0, 64, 0
2, 14394, Note_on_c, 0, 69, 0
2, 14400, Note_on_c, 0, 67, 76
2, 14402, Note_on_c, 0, 36, 45
2, 14427, Control_c, 0, 64, 127
2, 14430, Note_on_c, 0, 36, 0
2, 14635, Note_on_c, 0, 67, 0
2, 14698, Note_on_c, 0, 67, 59
2, 14743, Note_on_c, 0, 67, 0
2, 14755, Control_c, 0, 64, 0
2, 14759, Note_on_c, 0, 72, 64
2, 14760, Note_on_c, 0, 41, 46
2, 14784, Control_c, 0, 64, 127
2, 14786, Note_on_c, 0, 41, 0
2, 14883, Note_on_c, 0, 60, 36
2, 14883, Note_on_c, 0, 64, 19
2, 14883, Note_on_c, 0, 53, 24
2, 14884, Note_on_c, 0, 57, 31
2, 14927, Note_on_c, 0, 72, 0
2, 14971, Note_on_c, 0, 57, 0
2, 14974, Note_on_c, 0, 64, 0
2, 14981, Note_on_c, 0, 60, 0
2, 14988, Note_on_c, 0, 53, 0
2, 15009, Note_on_c, 0, 71, 57
2, 15131, Control_c, 0, 64, 0
2, 15134, Note_on_c, 0, 71, 0
2, 15134, Note_on_c, 0, 24, 39
2, 15135, Note_on_c, 0, 67, 50
2, 15137, Note_on_c, 0, 36, 30
2, 15155, Note_on_c, 0, 24, 0
2, 15161, Control_c, 0, 64, 127
2, 15169, Note_on_c, 0, 36, 0
2, 15271, Note_on_c, 0, 64, 24
2, 15271, Note_on_c, 0, 60, 37
2, 15272, Note_on_c, 0, 59, 37
2, 15272, Note_on_c, 0, 55, 27
2, 15290, Note_on_c, 0, 67, 0
2, 15400, Note_on_c, 0, 76, 85
2, 15402, Note_on_c, 0, 64, 0
2, 15402, Note_on_c, 0, 60, 0
2, 15404, Note_on_c, 0, 59, 0
2, 15412, Note_on_c, 0, 55, 0
2, 15457, Note_on_c, 0, 76, 0
2, 15469, Note_on_c, 0, 79, 73
2, 15499, Note_on_c, 0, 79, 0
2, 15529, Control_c, 0, 64, 0
2, 15529, Note_on_c, 0, 77, 60
2, 15533, Note_on_c, 0, 69, 45
2, 15534, Note_on_c, 0, 41, 34
2, 15552, Control_c, 0, 64, 127
2, 15553, Note_on_c, 0, 41, 0
2, 15589, Note_on_c, 0, 77, 0
2, 15603, Note_on_c, 0, 69, 0
2, 15659, Note_on_c, 0, 76, 37
2, 15660, Note_on_c, 0, 67, 29
2, 15663, Note_on_c, 0, 64, 15
2, 15663, Note_on_c, 0, 60, 27
2, 15664, Note_on_c, 0, 57, 24
2, 15694, Note_on_c, 0, 67, 0
2, 15719, Note_on_c, 0, 76, 0
2, 15811, Note_on_c, 0, 64, 0
2, 15824, Note_on_c, 0, 57, 0
2, 15825, Note_on_c, 0, 60, 0
2, 15858, Note_on_c, 0, 83, 51
2, 15862, Note_on_c, 0, 74, 44
2, 15883, Note_on_c, 0, 83, 0
2, 15894, Note_on_c, 0, 74, 0
2, 15932, Note_on_c, 0, 81, 62
2, 15935, Note_on_c, 0, 24, 41
2, 15935, Note_on_c, 0, 36, 41
2, 15935, Note_on_c, 0, 72, 34
2, 15938, Control_c, 0, 64, 0
2, 15965, Control_c, 0, 64, 127
2, 15980, Note_on_c, 0, 36, 0
2, 15980, Note_on_c, 0, 24, 0
2, 15981, Note_on_c, 0, 81, 0
2, 15982, Note_on_c, 0, 72, 0
2, 16047, Note_on_c, 0, 83, 60
2, 16050, Note_on_c, 0, 55, 31
2, 16050, Note_on_c, 0, 74, 47
2, 16051, Note_on_c, 0, 64, 30
2, 16052, Note_on_c, 0, 60, 32
2, 16053, Note_on_c, 0, 59, 28
2, 16080, Note_on_c, 0, 74, 0
2, 16083, Note_on_c, 0, 83, 0
2, 16095, Note_on_c, 0, 55, 0
2, 16113, Note_on_c, 0, 64, 0
2, 16114, Note_on_c, 0, 60, 0
2, 16123, Note_on_c, 0, 59, 0
2, 16180, Note_on_c, 0, 84, 54
2, 16184, Note_on_c, 0, 76, 34
2, 16202, Note_on_c, 0, 84, 0
2, 16212, Note_on_c, 0, 76, 0
2, 16293, Control_c, 0, 64, 0
2, 16298, Note_on_c, 0, 41, 43
2, 16299, Note_on_c, 0, 48, 32
2, 16300, Note_on_c, 0, 79, 45
2, 16320, Control_c, 0, 64, 127
2, 16323, Note_on_c, 0, 41, 0
2, 16329, Note_on_c, 0, 48, 0
2, 16440, Note_on_c, 0, 60, 30
2, 16442, Note_on_c, 0, 64, 18
2, 16444, Note_on_c, 0, 57, 41
2, 16444, Note_on_c, 0, 53, 14
2, 16472, Note_on_c, 0, 60, 0
2, 16477, Note_on_c, 0, 64, 0
2, 16487, Note_on_c, 0, 53, 0
2, 16489, Note_on_c, 0, 57, 0
2, 16669, Control_c, 0, 64, 0
2, 16678, Note_on_c, 0, 24, 32
2, 16682, Note_on_c, 0, 36, 24
2, 16691, Control_c, 0, 64, 127
2, 16693, Note_on_c, 0, 24, 0
2, 16705, Note_on_c, 0, 36, 0
2, 16758, Note_on_c, 0, 79, 0
2, 16813, Note_on_c, 0, 64, 20
2, 16814, Note_on_c, 0, 60, 34
2, 16815, Note_on_c, 0, 59, 34
2, 16816, Note_on_c, 0, 55, 29
2, 16885, Note_on_c, 0, 72, 96
2, 16915, Note_on_c, 0, 64, 0
2, 16922, Note_on_c, 0, 60, 0
2, 16923, Note_on_c, 0, 59, 0
2, 16924, Note_on_c, 0, 55, 0
2, 16945, Note_on_c, 0, 71, 89
2, 16955, Note_on_c, 0, 72, 0
2, 17004, Note_on_c, 0, 71, 0
2, 17005, Note_on_c, 0, 69, 73
2, 17051, Note_on_c, 0, 69, 0
2, 17067, Control_c, 0, 64, 0
2, 17071, Note_on_c, 0, 41, 46
2, 17072, Note_on_c, 0, 48, 44
2, 17073, Note_on_c, 0, 67, 88
2, 17097, Control_c, 0, 64, 127
2, 17099, Note_on_c, 0, 41, 0
2, 17106, Note_on_c, 0, 48, 0
2, 17204, Note_on_c, 0, 60, 37
2, 17205, Note_on_c, 0, 57, 33
2, 17206, Note_on_c, 0, 64, 22
2, 17206, Note_on_c, 0, 53, 13
2, 17236, Note_on_c, 0, 67, 0
2, 17288, Note_on_c, 0, 64, 0
2, 17302, Note_on_c, 0, 57, 0
2, 17305, Note_on_c, 0, 60, 0
2, 17332, Note_on_c, 0, 53, 0
2, 17336, Note_on_c, 0, 67, 61
2, 17383, Note_on_c, 0, 67, 0
2, 17461, Note_on_c, 0, 72, 80
2, 17462, Note_on_c, 0, 52, 42
2, 17469, Control_c, 0, 64, 0
2, 17503, Control_c, 0, 64, 127
2, 17597, Note_on_c, 0, 67, 35
2, 17598, Note_on_c, 0, 64, 30
2, 17608, Note_on_c, 0, 60, 14
2, 17627, Note_on_c, 0, 72, 0
2, 17695, Note_on_c, 0, 60, 0
2, 17719, Note_on_c, 0, 67, 0
2, 17722, Note_on_c, 0, 52, 0
2, 17730, Note_on_c, 0, 71, 57
2, 17760, Note_on_c, 0, 71, 0
2, 17767, Note_on_c, 0, 64, 0
2, 17865, Note_on_c, 0, 67, 32
2, 17868, Note_on_c, 0, 62, 33
2, 17869, Note_on_c, 0, 45, 31
2, 17869, Note_on_c, 0, 64, 35
2, 17870, Note_on_c, 0, 59, 26
2, 17871, Note_on_c, 0, 55, 25
2, 17872, Control_c, 0, 64, 0
2, 17907, Control_c, 0, 64, 127
2, 17966, Note_on_c, 0, 62, 0
2, 18009, Note_on_c, 0, 62, 40
2, 18035, Note_on_c, 0, 64, 0
2, 18042, Note_on_c, 0, 59, 0
2, 18051, Note_on_c, 0, 55, 0
2, 18053, Note_on_c, 0, 62, 0
2, 18119, Note_on_c, 0, 67, 0
2, 18147, Note_on_c, 0, 61, 36
2, 18148, Note_on_c, 0, 58, 31
2, 18171, Note_on_c, 0, 45, 0
2, 18201, Note_on_c, 0, 58, 0
2, 18238, Note_on_c, 0, 61, 0
2, 18292, Control_c, 0, 64, 0
2, 18294, Note_on_c, 0, 38, 29
2, 18295, Note_on_c, 0, 26, 31
2, 18295, Note_on_c, 0, 60, 36
2, 18295, Note_on_c, 0, 57, 24
2, 18318, Note_on_c, 0, 26, 0
2, 18319, Control_c, 0, 64, 127
2, 18328, Note_on_c, 0, 38, 0
2, 18347, Note_on_c, 0, 57, 0
2, 18375, Note_on_c, 0, 60, 0
2, 18432, Note_on_c, 0, 57, 30
2, 18434, Note_on_c, 0, 53, 32
2, 18439, Note_on_c, 0, 50, 17
2, 18443, Note_on_c, 0, 57, 0
2, 18455, Note_on_c, 0, 50, 0
2, 18457, Note_on_c, 0, 53, 0
2, 18500, Note_on_c, 0, 57, 65
2, 18524, Note_on_c, 0, 57, 0
2, 18561, Note_on_c, 0, 60, 78
2, 18601, Note_on_c, 0, 60, 0
2, 18619, Note_on_c, 0, 62, 74
2, 18658, Note_on_c, 0, 62, 0
2, 18688, Note_on_c, 0, 64, 55
2, 18689, Note_on_c, 0, 40, 34
2, 18689, Control_c, 0, 64, 0
2, 18690, Note_on_c, 0, 55, 55
2, 18690, Note_on_c, 0, 60, 54
2, 18690, Note_on_c, 0, 48, 30
2, 18726, Control_c, 0, 64, 127
2, 18785, Note_on_c, 0, 60, 0
2, 18798, Note_on_c, 0, 55, 0
2, 18838, Note_on_c, 0, 60, 53
2, 18842, Note_on_c, 0, 64, 0
2, 18842, Note_on_c, 0, 55, 27
2, 18878, Note_on_c, 0, 55, 0
2, 18923, Note_on_c, 0, 60, 0
2, 19020, Note_on_c, 0, 40, 0
2, 19023, Note_on_c, 0, 64, 46
2, 19032, Note_on_c, 0, 48, 0
2, 19089, Note_on_c, 0, 64, 0
2, 19112, Note_on_c, 0, 41, 36
2, 19114, Note_on_c, 0, 67, 57
2, 19122, Control_c, 0, 64, 0
2, 19156, Control_c, 0, 64, 127
2, 19258, Note_on_c, 0, 60, 29
2, 19259, Note_on_c, 0, 57, 33
2, 19263, Note_on_c, 0, 53, 18
2, 19297, Note_on_c, 0, 53, 0
2, 19308, Note_on_c, 0, 41, 0
2, 19321, Note_on_c, 0, 57, 0
2, 19329, Note_on_c, 0, 60, 0
2, 19371, Note_on_c, 0, 67, 0
2, 19410, Note_on_c, 0, 42, 32
2, 19413, Note_on_c, 0, 60, 35
2, 19414, Note_on_c, 0, 52, 22
2, 19414, Note_on_c, 0, 57, 27
2, 19417, Control_c, 0, 64, 0
2, 19444, Control_c, 0, 64, 127
2, 19470, Note_on_c, 0, 42, 0
2, 19471, Note_on_c, 0, 52, 0
2, 19475, Note_on_c, 0, 60, 0
2, 19482, Note_on_c, 0, 57, 0
2, 19595, Note_on_c, 0, 53, 31
2, 19597, Note_on_c, 0, 43, 31
2, 19598, Note_on_c, 0, 60, 38
2, 19598, Note_on_c, 0, 50, 31
2, 19599, Note_on_c, 0, 57, 32
2, 19606, Control_c, 0, 64, 0
2, 19646, Control_c, 0, 64, 127
2, 19769, Note_on_c, 0, 53, 0
2, 19772, Note_on_c, 0, 43, 0
2, 19784, Note_on_c, 0, 50, 0
2, 19793, Note_on_c, 0, 57, 0
2, 19794, Note_on_c, 0, 60, 0
2, 19909, Note_on_c, 0, 62, 29
2, 19910, Note_on_c, 0, 43, 32
2, 19910, Note_on_c, 0, 56, 23
2, 19912, Note_on_c, 0, 59, 41
2, 19916, Note_on_c, 0, 53, 19
2, 19921, Control_c, 0, 64, 0
2, 19956, Control_c, 0, 64, 127
2, 20021, Note_on_c, 0, 59, 0
2, 20022, Note_on_c, 0, 56, 0
2, 20022, Note_on_c, 0, 62, 0
2, 20155, Note_on_c, 0, 53, 0
2, 20162, Note_on_c, 0, 43, 0
2, 20177, Note_on_c, 0, 60, 32
2, 20205, Note_on_c, 0, 60, 0
2, 20209, Note_on_c, 0, 61, 60
2, 20235, Note_on_c, 0, 61, 0
2, 20235, Note_on_c, 0, 62, 69
2, 20256, Note_on_c, 0, 63, 75
2, 20260, Note_on_c, 0, 62, 0
2, 20280, Note_on_c, 0, 63, 0
2, 20281, Note_on_c, 0, 64, 79
2, 20304, Note_on_c, 0, 65, 76
2, 20306, Note_on_c, 0, 64, 0
2, 20325, Note_on_c, 0, 66, 74
2, 20328, Note_on_c, 0, 65, 0
2, 20342, Note_on_c, 0, 66, 0
2, 20346, Note_on_c, 0, 67, 67
2, 20369, Note_on_c, 0, 67, 0
2, 20373, Note_on_c, 0, 68, 67
2, 20392, Note_on_c, 0, 42, 48
2, 20395, Note_on_c, 0, 68, 0
2, 20395, Note_on_c, 0, 69, 85
2, 20406, Control_c, 0, 64, 0
2, 20443, Control_c, 0, 64, 127
2, 20533, Note_on_c, 0, 64, 25
2, 20534, Note_on_c, 0, 57, 19
2, 20536, Note_on_c, 0, 52, 17
2, 20555, Note_on_c, 0, 57, 0
2, 20560, Note_on_c, 0, 69, 0
2, 20565, Note_on_c, 0, 64, 0
2, 20614, Note_on_c, 0, 42, 0
2, 20631, Note_on_c, 0, 72, 73
2, 20637, Note_on_c, 0, 52, 0
2, 20683, Note_on_c, 0, 72, 0
2, 20716, Note_on_c, 0, 41, 48
2, 20716, Note_on_c, 0, 72, 70
2, 20719, Control_c, 0, 64, 0
2, 20741, Control_c, 0, 64, 127
2, 20765, Note_on_c, 0, 41, 0
2, 20771, Note_on_c, 0, 53, 43
2, 20785, Note_on_c, 0, 53, 0
2, 20825, Note_on_c, 0, 56, 50
2, 20879, Note_on_c, 0, 60, 34
2, 20880, Note_on_c, 0, 72, 0
2, 20930, Note_on_c, 0, 65, 62
2, 20935, Note_on_c, 0, 63, 28
2, 20962, Note_on_c, 0, 60, 0
2, 20971, Note_on_c, 0, 65, 0
2, 20980, Note_on_c, 0, 68, 74
2, 20982, Note_on_c, 0, 60, 33
2, 20995, Note_on_c, 0, 63, 0
2, 21009, Note_on_c, 0, 60, 0
2, 21017, Note_on_c, 0, 68, 0
2, 21035, Note_on_c, 0, 56, 0
2, 21041, Note_on_c, 0, 67, 74
2, 21044, Note_on_c, 0, 62, 37
2, 21052, Note_on_c, 0, 52, 28
2, 21065, Control_c, 0, 64, 0
2, 21090, Note_on_c, 0, 71, 71
2, 21092, Control_c, 0, 64, 127
2, 21103, Note_on_c, 0, 67, 0
2, 21139, Note_on_c, 0, 71, 0
2, 21152, Note_on_c, 0, 74, 80
2, 21152, Note_on_c, 0, 59, 37
2, 21156, Control_c, 0, 64, 0
2, 21183, Control_c, 0, 64, 127
2, 21187, Note_on_c, 0, 62, 0
2, 21197, Note_on_c, 0, 74, 0
2, 21220, Note_on_c, 0, 62, 46
2, 21220, Note_on_c, 0, 72, 45
2, 21229, Note_on_c, 0, 71, 30
2, 21242, Note_on_c, 0, 62, 0
2, 21249, Note_on_c, 0, 59, 0
2, 21256, Note_on_c, 0, 52, 0
2, 21260, Note_on_c, 0, 72, 0
2, 21271, Note_on_c, 0, 71, 0
2, 21299, Note_on_c, 0, 72, 36
2, 21299, Note_on_c, 0, 65, 39
2, 21303, Note_on_c, 0, 50, 33
2, 21304, Control_c, 0, 64, 0
2, 21305, Note_on_c, 0, 60, 31
2, 21341, Control_c, 0, 64, 127
2, 21377, Note_on_c, 0, 57, 33
2, 21387, Note_on_c, 0, 57, 0
2, 21395, Note_on_c, 0, 65, 0
2, 21396, Note_on_c, 0, 50, 0
2, 21399, Note_on_c, 0, 72, 0
2, 21405, Note_on_c, 0, 60, 0
2, 21498, Note_on_c, 0, 53, 24
2, 21499, Note_on_c, 0, 43, 32
2, 21500, Note_on_c, 0, 60, 39
2, 21502, Note_on_c, 0, 50, 29
2, 21510, Control_c, 0, 64, 0
2, 21540, Control_c, 0, 64, 127
2, 21554, Note_on_c, 0, 53, 0
2, 21560, Note_on_c, 0, 60, 0
2, 21754, Note_on_c, 0, 71, 60
2, 21767, Note_on_c, 0, 43, 0
2, 21772, Note_on_c, 0, 50, 0
2, 21817, Note_on_c, 0, 71, 0
2, 22005, Note_on_c, 0, 48, 42
2, 22006, Note_on_c, 0, 76, 58
2, 22006, Note_on_c, 0, 71, 48
2, 22007, Note_on_c, 0, 64, 54
2, 22008, Note_on_c, 0, 59, 41
2, 22010, Control_c, 0, 64, 0
2, 22039, Control_c, 0, 64, 127
2, 22057, Note_on_c, 0, 74, 1
2, 22071, Note_on_c, 0, 64, 0
2, 22076, Note_on_c, 0, 59, 0
2, 22079, Note_on_c, 0, 68, 48
2, 22081, Note_on_c, 0, 56, 36
2, 22082, Note_on_c, 0, 64, 30
2, 22125, Note_on_c, 0, 64, 0
2, 22126, Note_on_c, 0, 71, 0
2, 22127, Note_on_c, 0, 68, 0
2, 22135, Note_on_c, 0, 76, 0
2, 22137, Note_on_c, 0, 69, 64
2, 22138, Note_on_c, 0, 74, 0
2, 22138, Note_on_c, 0, 64, 24
2, 22140, Note_on_c, 0, 57, 50
2, 22155, Note_on_c, 0, 48, 0
2, 22159, Note_on_c, 0, 64, 0
2, 22167, Note_on_c, 0, 69, 0
2, 22168, Note_on_c, 0, 57, 0
2, 22178, Note_on_c, 0, 56, 0
2, 22205, Note_on_c, 0, 50, 49
2, 22205, Note_on_c, 0, 77, 68
2, 22207, Note_on_c, 0, 69, 51
2, 22208, Note_on_c, 0, 65, 55
2, 22210, Note_on_c, 0, 60, 41
2, 22210, Control_c, 0, 64, 0
2, 22241, Control_c, 0, 64, 127
2, 22243, Note_on_c, 0, 69, 0
2, 22275, Note_on_c, 0, 65, 0
2, 22308, Note_on_c, 0, 70, 48
2, 22309, Note_on_c, 0, 65, 25
2, 22315, Note_on_c, 0, 58, 33
2, 22338, Note_on_c, 0, 60, 0
2, 22352, Note_on_c, 0, 58, 0
2, 22373, Note_on_c, 0, 70, 0
2, 22380, Control_c, 0, 64, 0
2, 22382, Note_on_c, 0, 71, 57
2, 22385, Note_on_c, 0, 59, 33
2, 22407, Control_c, 0, 64, 127
2, 22411, Note_on_c, 0, 50, 0
2, 22426, Note_on_c, 0, 65, 0
2, 22443, Note_on_c, 0, 71, 0
2, 22448, Note_on_c, 0, 77, 0
2, 22517, Note_on_c, 0, 59, 0
2, 22524, Note_on_c, 0, 79, 72
2, 22525, Note_on_c, 0, 72, 68
2, 22525, Note_on_c, 0, 52, 45
2, 22526, Note_on_c, 0, 67, 69
2, 22527, Control_c, 0, 64, 0
2, 22554, Control_c, 0, 64, 127
2, 22562, Note_on_c, 0, 72, 0
2, 22578, Note_on_c, 0, 79, 0
2, 22605, Note_on_c, 0, 71, 64
2, 22606, Note_on_c, 0, 59, 46
2, 22665, Control_c, 0, 64, 0
2, 22668, Note_on_c, 0, 72, 68
2, 22673, Note_on_c, 0, 60, 47
2, 22677, Control_c, 0, 64, 127
2, 22682, Note_on_c, 0, 52, 0
2, 22691, Note_on_c, 0, 72, 0
2, 22692, Note_on_c, 0, 71, 0
2, 22726, Note_on_c, 0, 60, 0
2, 22727, Note_on_c, 0, 67, 0
2, 22738, Note_on_c, 0, 59, 0
2, 22861, Note_on_c, 0, 53, 35
2, 22864, Note_on_c, 0, 69, 60
2, 22866, Note_on_c, 0, 81, 50
2, 22867, Note_on_c, 0, 64, 29
2, 22869, Note_on_c, 0, 76, 53
2, 22869, Note_on_c, 0, 60, 46
2, 22871, Control_c, 0, 64, 0
2, 22904, Control_c, 0, 64, 127
2, 22917, Note_on_c, 0, 64, 0
2, 22952, Note_on_c, 0, 69, 0
2, 22966, Note_on_c, 0, 76, 0
2, 22968, Note_on_c, 0, 60, 0
2, 22971, Note_on_c, 0, 69, 42
2, 22973, Note_on_c, 0, 73, 31
2, 22973, Note_on_c, 0, 61, 38
2, 23055, Note_on_c, 0, 61, 0
2, 23056, Note_on_c, 0, 69, 0
2, 23061, Note_on_c, 0, 73, 0
2, 23075, Note_on_c, 0, 74, 42
2, 23077, Note_on_c, 0, 69, 22
2, 23083, Control_c, 0, 64, 0
2, 23090, Note_on_c, 0, 62, 7
2, 23100, Control_c, 0, 64, 127
2, 23124, Note_on_c, 0, 69, 0
2, 23135, Note_on_c, 0, 53, 0
2, 23136, Note_on_c, 0, 74, 0
2, 23139, Note_on_c, 0, 62, 0
2, 23142, Note_on_c, 0, 81, 0
2, 23195, Note_on_c, 0, 83, 55
2, 23196, Note_on_c, 0, 52, 42
2, 23199, Note_on_c, 0, 74, 51
2, 23199, Control_c, 0, 64, 0
2, 23202, Note_on_c, 0, 62, 22
2, 23238, Control_c, 0, 64, 127
2, 23282, Note_on_c, 0, 62, 0
2, 23283, Note_on_c, 0, 59, 36
2, 23378, Note_on_c, 0, 83, 0
2, 23379, Note_on_c, 0, 62, 39
2, 23391, Note_on_c, 0, 74, 0
2, 23450, Note_on_c, 0, 62, 0
2, 23452, Note_on_c, 0, 52, 0
2, 23453, Note_on_c, 0, 59, 0
2, 23472, Note_on_c, 0, 79, 51
2, 23526, Note_on_c, 0, 79, 0
2, 23597, Control_c, 0, 64, 0
2, 23599, Note_on_c, 0, 33, 41
2, 23600, Note_on_c, 0, 79, 44
2, 23621, Control_c, 0, 64, 127
2, 23627, Note_on_c, 0, 33, 0
2, 23742, Note_on_c, 0, 55, 29
2, 23743, Note_on_c, 0, 61, 25
2, 23745, Note_on_c, 0, 65, 24
2, 23745, Note_on_c, 0, 60, 44
2, 23848, Note_on_c, 0, 60, 0
2, 23849, Note_on_c, 0, 55, 0
2, 23849, Note_on_c, 0, 65, 0
2, 23851, Note_on_c, 0, 61, 0
2, 23860, Note_on_c, 0, 79, 0
2, 24004, Note_on_c, 0, 84, 84
2, 24006, Note_on_c, 0, 81, 79
2, 24007, Note_on_c, 0, 60, 62
2, 24008, Note_on_c, 0, 77, 79
2, 24008, Note_on_c, 0, 65, 61
2, 24009, Note_on_c, 0, 61, 48
2, 24010, Note_on_c, 0, 72, 66
2, 24010, Note_on_c, 0, 55, 50
2, 24020, Control_c, 0, 64, 0
2, 24023, Control_c, 0, 64, 127
2, 24047, Note_on_c, 0, 81, 0
2, 24047, Note_on_c, 0, 84, 0
2, 24049, Note_on_c, 0, 77, 0
2, 24051, Note_on_c, 0, 55, 0
2, 24055, Note_on_c, 0, 65, 0
2, 24055, Note_on_c, 0, 60, 0
2, 24055, Note_on_c, 0, 61, 0
2, 24059, Note_on_c, 0, 72, 0
2, 24098, Note_on_c, 0, 82, 51
2, 24102, Note_on_c, 0, 79, 58
2, 24104, Note_on_c, 0, 75, 59
2, 24104, Note_on_c, 0, 60, 48
2, 24104, Note_on_c, 0, 65, 46
2, 24105, Note_on_c, 0, 70, 57
2, 24106, Note_on_c, 0, 55, 41
2, 24108, Note_on_c, 0, 61, 29
2, 24121, Note_on_c, 0, 65, 0
2, 24126, Note_on_c, 0, 79, 0
2, 24127, Note_on_c, 0, 60, 0
2, 24131, Note_on_c, 0, 61, 0
2, 24132, Note_on_c, 0, 70, 0
2, 24135, Note_on_c, 0, 55, 0
2, 24135, Note_on_c, 0, 82, 0
2, 24135, Note_on_c, 0, 75, 0
2, 24201, Note_on_c, 0, 79, 51
2, 24206, Note_on_c, 0, 67, 39
2, 24206, Note_on_c, 0, 72, 35
2, 24207, Control_c, 0, 64, 0
2, 24207, Note_on_c, 0, 65, 50
2, 24209, Note_on_c, 0, 44, 36
2, 24209, Note_on_c, 0, 51, 31
2, 24242, Control_c, 0, 64, 127
2, 24266, Note_on_c, 0, 79, 0
2, 24270, Note_on_c, 0, 72, 0
2, 24276, Note_on_c, 0, 44, 0
2, 24278, Note_on_c, 0, 51, 0
2, 24278, Note_on_c, 0, 55, 51
2, 24279, Note_on_c, 0, 67, 0
2, 24281, Note_on_c, 0, 65, 0
2, 24334, Note_on_c, 0, 55, 0
2, 24351, Note_on_c, 0, 58, 34
2, 24352, Note_on_c, 0, 67, 40
2, 24352, Note_on_c, 0, 63, 30
2, 24354, Note_on_c, 0, 60, 32
2, 24365, Note_on_c, 0, 60, 0
2, 24376, Note_on_c, 0, 63, 0
2, 24381, Note_on_c, 0, 67, 0
2, 24425, Note_on_c, 0, 60, 35
2, 24500, Note_on_c, 0, 60, 0
2, 24500, Note_on_c, 0, 65, 48
2, 24502, Note_on_c, 0, 63, 25
2, 24577, Note_on_c, 0, 75, 48
2, 24579, Note_on_c, 0, 63, 0
2, 24594, Note_on_c, 0, 75, 0
2, 24600, Note_on_c, 0, 65, 0
2, 24600, Note_on_c, 0, 58, 0
2, 24681, Note_on_c, 0, 43, 34
2, 24681, Note_on_c, 0, 53, 24
2, 24684, Note_on_c, 0, 50, 24
2, 24684, Note_on_c, 0, 60, 34
2, 24685, Note_on_c, 0, 57, 24
2, 24699, Control_c, 0, 64, 0
2, 24731, Control_c, 0, 64, 127
2, 24773, Note_on_c, 0, 50, 0
2, 24779, Note_on_c, 0, 43, 0
2, 24887, Note_on_c, 0, 31, 37
2, 24930, Note_on_c, 0, 31, 0
2, 24975, Note_on_c, 0, 57, 0
2, 24977, Note_on_c, 0, 53, 0
2, 24981, Note_on_c, 0, 60, 0
2, 25045, Note_on_c, 0, 67, 38
2, 25307, Note_on_c, 0, 67, 0
2, 25433, Control_c, 0, 64, 0
2, 25436, Note_on_c, 0, 29, 32
2, 25442, Note_on_c, 0, 41, 19
2, 25445, Control_c, 0, 64, 127
2, 25464, Note_on_c, 0, 29, 0
2, 25473, Note_on_c, 0, 41, 0
2, 25571, Note_on_c, 0, 57, 34
2, 25572, Note_on_c, 0, 60, 36
2, 25572, Note_on_c, 0, 53, 20
2, 25572, Note_on_c, 0, 100, 58
2, 25573, Note_on_c, 0, 64, 24
2, 25608, Note_on_c, 0, 100, 0
2, 25667, Note_on_c, 0, 64, 0
2, 25673, Note_on_c, 0, 57, 0
2, 25675, Note_on_c, 0, 60, 0
2, 25680, Note_on_c, 0, 53, 0
2, 25698, Note_on_c, 0, 103, 71
2, 25792, Note_on_c, 0, 103, 0
2, 25812, Note_on_c, 0, 24, 37
2, 25814, Control_c, 0, 64, 0
2, 25818, Note_on_c, 0, 36, 19
2, 25820, Note_on_c, 0, 101, 62
2, 25831, Note_on_c, 0, 24, 0
2, 25836, Control_c, 0, 64, 127
2, 25841, Note_on_c, 0, 36, 0
2, 25929, Note_on_c, 0, 101, 0
2, 25946, Note_on_c, 0, 64, 27
2, 25948, Note_on_c, 0, 100, 60
2, 25949, Note_on_c, 0, 55, 24
2, 25950, Note_on_c, 0, 60, 31
2, 25950, Note_on_c, 0, 59, 38
2, 25973, Note_on_c, 0, 100, 0
2, 26014, Note_on_c, 0, 64, 0
2, 26019, Note_on_c, 0, 60, 0
2, 26024, Note_on_c, 0, 59, 0
2, 26030, Note_on_c, 0, 55, 0
2, 26075, Note_on_c, 0, 95, 51
2, 26190, Control_c, 0, 64, 0
2, 26193, Note_on_c, 0, 41, 34
2, 26194, Note_on_c, 0, 95, 0
2, 26195, Note_on_c, 0, 48, 33
2, 26198, Note_on_c, 0, 93, 56
2, 26219, Control_c, 0, 64, 127
2, 26224, Note_on_c, 0, 41, 0
2, 26229, Note_on_c, 0, 48, 0
2, 26325, Note_on_c, 0, 93, 0
2, 26325, Note_on_c, 0, 53, 20
2, 26325, Note_on_c, 0, 64, 22
2, 26325, Note_on_c, 0, 60, 42
2, 26326, Note_on_c, 0, 57, 31
2, 26327, Note_on_c, 0, 95, 48
2, 26354, Note_on_c, 0, 60, 0
2, 26357, Note_on_c, 0, 64, 0
2, 26358, Note_on_c, 0, 53, 0
2, 26358, Note_on_c, 0, 57, 0
2, 26440, Note_on_c, 0, 95, 0
2, 26454, Note_on_c, 0, 96, 38
2, 26538, Note_on_c, 0, 96, 0
2, 26564, Control_c, 0, 64, 0
2, 26570, Note_on_c, 0, 24, 44
2, 26572, Note_on_c, 0, 91, 50
2, 26574, Note_on_c, 0, 36, 33
2, 26587, Note_on_c, 0, 24, 0
2, 26591, Control_c, 0, 64, 127
2, 26596, Note_on_c, 0, 36, 0
2, 26701, Note_on_c, 0, 64, 33
2, 26703, Note_on_c, 0, 60, 42
2, 26704, Note_on_c, 0, 59, 47
2, 26704, Note_on_c, 0, 55, 31
2, 26715, Note_on_c, 0, 91, 0
2, 26783, Note_on_c, 0, 60, 0
2, 26786, Note_on_c, 0, 64, 0
2, 26790, Note_on_c, 0, 59, 0
2, 26798, Note_on_c, 0, 55, 0
2, 26950, Note_on_c, 0, 95, 65
2, 26953, Control_c, 0, 64, 0
2, 26956, Note_on_c, 0, 41, 50
2, 26960, Note_on_c, 0, 83, 64
2, 26980, Control_c, 0, 64, 127
2, 26983, Note_on_c, 0, 41, 0
2, 27089, Note_on_c, 0, 64, 37
2, 27092, Note_on_c, 0, 57, 44
2, 27094, Note_on_c, 0, 60, 36
2, 27094, Note_on_c, 0, 53, 28
2, 27117, Note_on_c, 0, 60, 0
2, 27125, Note_on_c, 0, 53, 0
2, 27126, Note_on_c, 0, 64, 0
2, 27126, Note_on_c, 0, 57, 0
2, 27332, Control_c, 0, 64, 0
2, 27337, Note_on_c, 0, 36, 53
2, 27338, Note_on_c, 0, 48, 46
2, 27368, Control_c, 0, 64, 127
2, 27369, Note_on_c, 0, 36, 0
2, 27379, Note_on_c, 0, 48, 0
2, 27468, Note_on_c, 0, 64, 44
2, 27469, Note_on_c, 0, 55, 45
2, 27471, Note_on_c, 0, 59, 57
2, 27471, Note_on_c, 0, 60, 58
2, 27548, Note_on_c, 0, 60, 0
2, 27548, Note_on_c, 0, 59, 0
2, 27552, Note_on_c, 0, 64, 0
2, 27555, Note_on_c, 0, 55, 0
2, 27681, Note_on_c, 0, 83, 0
2, 27690, Note_on_c, 0, 95, 0
2, 27724, Note_on_c, 0, 95, 72
2, 27725, Note_on_c, 0, 41, 54
2, 27728, Note_on_c, 0, 48, 38
2, 27730, Control_c, 0, 64, 0
2, 27731, Note_on_c, 0, 83, 64
2, 27759, Control_c, 0, 64, 127
2, 27760, Note_on_c, 0, 41, 0
2, 27762, Note_on_c, 0, 48, 0
2, 27861, Note_on_c, 0, 64, 31
2, 27861, Note_on_c, 0, 57, 38
2, 27862, Note_on_c, 0, 60, 45
2, 27863, Note_on_c, 0, 53, 26
2, 27920, Note_on_c, 0, 60, 0
2, 27923, Note_on_c, 0, 57, 0
2, 27924, Note_on_c, 0, 64, 0
2, 27928, Note_on_c, 0, 53, 0
2, 28002, Note_on_c, 0, 83, 0
2, 28004, Note_on_c, 0, 95, 0
2, 28104, Control_c, 0, 64, 0
2, 28108, Note_on_c, 0, 95, 46
2, 28112, Note_on_c, 0, 48, 29
2, 28112, Note_on_c, 0, 83, 34
2, 28114, Note_on_c, 0, 36, 32
2, 28128, Control_c, 0, 64, 127
2, 28129, Note_on_c, 0, 36, 0
2, 28144, Note_on_c, 0, 48, 0
2, 28227, Note_on_c, 0, 64, 29
2, 28231, Note_on_c, 0, 60, 36
2, 28232, Note_on_c, 0, 59, 40
2, 28232, Note_on_c, 0, 55, 33
2, 28283, Note_on_c, 0, 60, 0
2, 28286, Note_on_c, 0, 59, 0
2, 28288, Note_on_c, 0, 64, 0
2, 28293, Note_on_c, 0, 55, 0
2, 28468, Note_on_c, 0, 41, 47
2, 28470, Control_c, 0, 64, 0
2, 28492, Note_on_c, 0, 41, 0
2, 28493, Control_c, 0, 64, 127
2, 28540, Note_on_c, 0, 95, 0
2, 28552, Note_on_c, 0, 83, 0
2, 28602, Note_on_c, 0, 64, 19
2, 28603, Note_on_c, 0, 60, 42
2, 28605, Note_on_c, 0, 57, 34
2, 28607, Note_on_c, 0, 53, 16
2, 28729, Note_on_c, 0, 64, 0
2, 28732, Note_on_c, 0, 76, 90
2, 28733, Note_on_c, 0, 57, 0
2, 28734, Note_on_c, 0, 60, 0
2, 28749, Note_on_c, 0, 53, 0
2, 28791, Note_on_c, 0, 76, 0
2, 28812, Note_on_c, 0, 76, 80
2, 28859, Control_c, 0, 64, 0
2, 28862, Note_on_c, 0, 48, 33
2, 28862, Note_on_c, 0, 36, 38
2, 28878, Note_on_c, 0, 76, 0
2, 28882, Control_c, 0, 64, 127
2, 28887, Note_on_c, 0, 36, 0
2, 28893, Note_on_c, 0, 76, 63
2, 28900, Note_on_c, 0, 48, 0
2, 28968, Note_on_c, 0, 76, 0
2, 28991, Note_on_c, 0, 76, 59
2, 28992, Note_on_c, 0, 59, 34
2, 28993, Note_on_c, 0, 64, 28
2, 28993, Note_on_c, 0, 60, 34
2, 29063, Note_on_c, 0, 76, 0
2, 29087, Note_on_c, 0, 76, 62
2, 29093, Note_on_c, 0, 64, 0
2, 29094, Note_on_c, 0, 60, 0
2, 29097, Note_on_c, 0, 59, 0
2, 29240, Note_on_c, 0, 41, 50
2, 29241, Control_c, 0, 64, 0
2, 29266, Control_c, 0, 64, 127
2, 29274, Note_on_c, 0, 41, 0
2, 29362, Note_on_c, 0, 76, 0
2, 29368, Note_on_c, 0, 64, 20
2, 29371, Note_on_c, 0, 60, 38
2, 29372, Note_on_c, 0, 57, 31
2, 29375, Note_on_c, 0, 53, 15
2, 29410, Note_on_c, 0, 64, 0
2, 29436, Note_on_c, 0, 76, 69
2, 29443, Note_on_c, 0, 67, 75
2, 29452, Note_on_c, 0, 60, 0
2, 29459, Note_on_c, 0, 57, 0
2, 29475, Note_on_c, 0, 76, 0
2, 29478, Note_on_c, 0, 53, 0
2, 29484, Note_on_c, 0, 67, 0
2, 29502, Note_on_c, 0, 74, 61
2, 29508, Note_on_c, 0, 65, 71
2, 29531, Note_on_c, 0, 74, 0
2, 29537, Note_on_c, 0, 65, 0
2, 29564, Note_on_c, 0, 72, 54
2, 29567, Note_on_c, 0, 64, 61
2, 29586, Note_on_c, 0, 72, 0
2, 29591, Note_on_c, 0, 64, 0
2, 29627, Note_on_c, 0, 71, 55
2, 29629, Note_on_c, 0, 48, 37
2, 29630, Control_c, 0, 64, 0
2, 29632, Note_on_c, 0, 64, 58
2, 29666, Control_c, 0, 64, 127
2, 29694, Note_on_c, 0, 64, 0
2, 29731, Note_on_c, 0, 71, 0
2, 29758, Note_on_c, 0, 71, 35
2, 29763, Note_on_c, 0, 59, 36
2, 29764, Note_on_c, 0, 64, 39
2, 29769, Note_on_c, 0, 55, 20
2, 29837, Note_on_c, 0, 48, 0
2, 29850, Note_on_c, 0, 55, 0
2, 29907, Note_on_c, 0, 59, 0
2, 29910, Note_on_c, 0, 64, 0
2, 29934, Note_on_c, 0, 71, 0
2, 30001, Control_c, 0, 64, 0
2, 30004, Note_on_c, 0, 41, 47
2, 30023, Note_on_c, 0, 41, 0
2, 30025, Control_c, 0, 64, 127
2, 30132, Note_on_c, 0, 53, 19
2, 30132, Note_on_c, 0, 60, 33
2, 30133, Note_on_c, 0, 64, 17
2, 30134, Note_on_c, 0, 57, 24
2, 30189, Note_on_c, 0, 84, 78
2, 30196, Note_on_c, 0, 76, 70
2, 30227, Note_on_c, 0, 84, 0
2, 30235, Note_on_c, 0, 76, 0
2, 30253, Note_on_c, 0, 83, 69
2, 30256, Note_on_c, 0, 74, 71
2, 30260, Note_on_c, 0, 60, 0
2, 30261, Note_on_c, 0, 64, 0
2, 30268, Note_on_c, 0, 57, 0
2, 30281, Note_on_c, 0, 83, 0
2, 30285, Note_on_c, 0, 74, 0
2, 30298, Note_on_c, 0, 53, 0
2, 30313, Note_on_c, 0, 81, 57
2, 30314, Note_on_c, 0, 72, 50
2, 30334, Note_on_c, 0, 81, 0
2, 30336, Note_on_c, 0, 72, 0
2, 30377, Note_on_c, 0, 48, 53
2, 30380, Note_on_c, 0, 79, 47
2, 30383, Control_c, 0, 64, 0
2, 30413, Note_on_c, 0, 48, 0
2, 30414, Control_c, 0, 64, 127
2, 30505, Note_on_c, 0, 59, 49
2, 30509, Note_on_c, 0, 55, 24
2, 30512, Note_on_c, 0, 64, 22
2, 30514, Note_on_c, 0, 60, 29
2, 30550, Note_on_c, 0, 59, 0
2, 30573, Note_on_c, 0, 79, 0
2, 30580, Note_on_c, 0, 64, 0
2, 30582, Note_on_c, 0, 60, 0
2, 30595, Note_on_c, 0, 55, 0
2, 30637, Note_on_c, 0, 79, 36
2, 30639, Note_on_c, 0, 67, 41
2, 30650, Note_on_c, 0, 67, 0
2, 30662, Note_on_c, 0, 79, 0
2, 30764, Note_on_c, 0, 84, 68
2, 30765, Note_on_c, 0, 41, 47
2, 30766, Note_on_c, 0, 29, 30
2, 30769, Note_on_c, 0, 76, 62
2, 30769, Control_c, 0, 64, 0
2, 30792, Note_on_c, 0, 29, 0
2, 30800, Control_c, 0, 64, 127
2, 30803, Note_on_c, 0, 41, 0
2, 30897, Note_on_c, 0, 64, 32
2, 30899, Note_on_c, 0, 60, 41
2, 30900, Note_on_c, 0, 53, 24
2, 30901, Note_on_c, 0, 57, 32
2, 30931, Note_on_c, 0, 84, 0
2, 30947, Note_on_c, 0, 76, 0
2, 31015, Note_on_c, 0, 64, 0
2, 31018, Note_on_c, 0, 60, 0
2, 31025, Note_on_c, 0, 57, 0
2, 31030, Note_on_c, 0, 83, 60
2, 31033, Note_on_c, 0, 53, 0
2, 31034, Note_on_c, 0, 74, 43
2, 31057, Note_on_c, 0, 83, 0
2, 31061, Note_on_c, 0, 74, 0
2, 31155, Control_c, 0, 64, 0
2, 31155, Note_on_c, 0, 79, 50
2, 31159, Note_on_c, 0, 67, 40
2, 31160, Note_on_c, 0, 36, 40
2, 31160, Note_on_c, 0, 48, 32
2, 31172, Note_on_c, 0, 36, 0
2, 31182, Control_c, 0, 64, 127
2, 31184, Note_on_c, 0, 48, 0
2, 31217, Note_on_c, 0, 67, 0
2, 31240, Note_on_c, 0, 79, 0
2, 31285, Note_on_c, 0, 55, 31
2, 31287, Note_on_c, 0, 59, 31
2, 31291, Note_on_c, 0, 60, 30
2, 31296, Note_on_c, 0, 64, 13
2, 31332, Note_on_c, 0, 59, 0
2, 31351, Note_on_c, 0, 64, 0
2, 31351, Note_on_c, 0, 60, 0
2, 31363, Note_on_c, 0, 55, 0
2, 31363, Note_on_c, 0, 100, 60
2, 31432, Note_on_c, 0, 100, 0
2, 31441, Note_on_c, 0, 103, 74
2, 31474, Note_on_c, 0, 103, 0
2, 31520, Note_on_c, 0, 101, 68
2, 31521, Control_c, 0, 64, 0
2, 31524, Note_on_c, 0, 41, 53
2, 31525, Note_on_c, 0, 93, 62
2, 31542, Control_c, 0, 64, 127
2, 31543, Note_on_c, 0, 41, 0
2, 31561, Note_on_c, 0, 101, 0
2, 31574, Note_on_c, 0, 93, 0
2, 31646, Note_on_c, 0, 100, 69
2, 31649, Note_on_c, 0, 64, 30
2, 31651, Note_on_c, 0, 60, 38
2, 31651, Note_on_c, 0, 91, 36
2, 31651, Note_on_c, 0, 57, 36
2, 31654, Note_on_c, 0, 53, 22
2, 31674, Note_on_c, 0, 100, 0
2, 31681, Note_on_c, 0, 91, 0
2, 31732, Note_on_c, 0, 64, 0
2, 31746, Note_on_c, 0, 60, 0
2, 31750, Note_on_c, 0, 57, 0
2, 31764, Note_on_c, 0, 53, 0
2, 31768, Note_on_c, 0, 95, 67
2, 31774, Note_on_c, 0, 86, 74
2, 31814, Note_on_c, 0, 95, 0
2, 31826, Note_on_c, 0, 86, 0
2, 31881, Control_c, 0, 64, 0
2, 31888, Note_on_c, 0, 93, 63
2, 31890, Note_on_c, 0, 48, 37
2, 31893, Note_on_c, 0, 36, 36
2, 31893, Note_on_c, 0, 84, 56
2, 31904, Note_on_c, 0, 36, 0
2, 31907, Control_c, 0, 64, 127
2, 31920, Note_on_c, 0, 48, 0
2, 31936, Note_on_c, 0, 84, 0
2, 31937, Note_on_c, 0, 93, 0
2, 32012, Note_on_c, 0, 95, 58
2, 32013, Note_on_c, 0, 64, 34
2, 32015, Note_on_c, 0, 86, 57
2, 32015, Note_on_c, 0, 59, 41
2, 32017, Note_on_c, 0, 60, 40
2, 32055, Note_on_c, 0, 86, 0
2, 32055, Note_on_c, 0, 95, 0
2, 32081, Note_on_c, 0, 64, 0
2, 32084, Note_on_c, 0, 60, 0
2, 32084, Note_on_c, 0, 59, 0
2, 32144, Note_on_c, 0, 96, 63
2, 32146, Note_on_c, 0, 88, 51
2, 32171, Note_on_c, 0, 96, 0
2, 32179, Note_on_c, 0, 88, 0
2, 32262, Control_c, 0, 64, 0
2, 32267, Note_on_c, 0, 41, 51
2, 32268, Note_on_c, 0, 91, 49
2, 32287, Control_c, 0, 64, 127
2, 32291, Note_on_c, 0, 41, 0
2, 32401, Note_on_c, 0, 79, 44
2, 32404, Note_on_c, 0, 64, 24
2, 32404, Note_on_c, 0, 57, 33
2, 32404, Note_on_c, 0, 60, 41
2, 32406, Note_on_c, 0, 53, 18
2, 32456, Note_on_c, 0, 60, 0
2, 32458, Note_on_c, 0, 64, 0
2, 32459, Note_on_c, 0, 57, 0
2, 32469, Note_on_c, 0, 53, 0
2, 32536, Note_on_c, 0, 91, 0
2, 32539, Note_on_c, 0, 79, 0
2, 32651, Control_c, 0, 64, 0
2, 32661, Note_on_c, 0, 48, 36
2, 32662, Note_on_c, 0, 36, 35
2, 32671, Control_c, 0, 64, 127
2, 32678, Note_on_c, 0, 36, 0
2, 32691, Note_on_c, 0, 48, 0
2, 32793, Note_on_c, 0, 59, 31
2, 32793, Note_on_c, 0, 55, 38
2, 32796, Note_on_c, 0, 64, 24
2, 32796, Note_on_c, 0, 60, 38
2, 32838, Note_on_c, 0, 59, 0
2, 32862, Note_on_c, 0, 84, 79
2, 32865, Note_on_c, 0, 76, 78
2, 32895, Note_on_c, 0, 64, 0
2, 32897, Note_on_c, 0, 84, 0
2, 32901, Note_on_c, 0, 60, 0
2, 32903, Note_on_c, 0, 76, 0
2, 32912, Note_on_c, 0, 55, 0
2, 32924, Note_on_c, 0, 83, 72
2, 32926, Note_on_c, 0, 74, 74
2, 32956, Note_on_c, 0, 83, 0
2, 32960, Note_on_c, 0, 74, 0
2, 32985, Note_on_c, 0, 81, 74
2, 32987, Note_on_c, 0, 72, 62
2, 33010, Note_on_c, 0, 81, 0
2, 33011, Note_on_c, 0, 72, 0
2, 33052, Control_c, 0, 64, 0
2, 33056, Note_on_c, 0, 41, 62
2, 33056, Note_on_c, 0, 79, 68
2, 33081, Control_c, 0, 64, 127
2, 33097, Note_on_c, 0, 41, 0
2, 33189, Note_on_c, 0, 79, 0
2, 33191, Note_on_c, 0, 67, 34
2, 33193, Note_on_c, 0, 64, 24
2, 33193, Note_on_c, 0, 60, 35
2, 33194, Note_on_c, 0, 72, 24
2, 33194, Note_on_c, 0, 57, 28
2, 33197, Note_on_c, 0, 53, 13
2, 33252, Note_on_c, 0, 67, 0
2, 33265, Note_on_c, 0, 72, 0
2, 33373, Note_on_c, 0, 64, 0
2, 33375, Note_on_c, 0, 60, 0
2, 33382, Note_on_c, 0, 57, 0
2, 33383, Note_on_c, 0, 79, 75
2, 33393, Note_on_c, 0, 53, 0
2, 33417, Note_on_c, 0, 79, 0
2, 33452, Note_on_c, 0, 79, 84
2, 33455, Control_c, 0, 64, 0
2, 33455, Note_on_c, 0, 52, 66
2, 33489, Control_c, 0, 64, 127
2, 33566, Note_on_c, 0, 79, 0
2, 33589, Note_on_c, 0, 67, 54
2, 33589, Note_on_c, 0, 62, 35
2, 33591, Note_on_c, 0, 70, 42
2, 33594, Note_on_c, 0, 58, 32
2, 33677, Note_on_c, 0, 67, 0
2, 33692, Note_on_c, 0, 70, 0
2, 33712, Note_on_c, 0, 62, 0
2, 33726, Note_on_c, 0, 58, 0
2, 33736, Note_on_c, 0, 52, 0
2, 33738, Note_on_c, 0, 77, 57
2, 33782, Note_on_c, 0, 77, 0
2, 33878, Control_c, 0, 64, 0
2, 33880, Note_on_c, 0, 33, 37
2, 33881, Note_on_c, 0, 76, 49
2, 33882, Note_on_c, 0, 45, 25
2, 33901, Control_c, 0, 64, 127
2, 33908, Note_on_c, 0, 33, 0
2, 33921, Note_on_c, 0, 45, 0
2, 34041, Note_on_c, 0, 67, 48
2, 34042, Note_on_c, 0, 70, 36
2, 34043, Note_on_c, 0, 61, 30
2, 34044, Note_on_c, 0, 55, 34
2, 34046, Note_on_c, 0, 64, 25
2, 34157, Note_on_c, 0, 64, 0
2, 34165, Note_on_c, 0, 61, 0
2, 34178, Note_on_c, 0, 67, 0
2, 34201, Note_on_c, 0, 70, 0
2, 34238, Note_on_c, 0, 67, 33
2, 34241, Note_on_c, 0, 69, 40
2, 34243, Note_on_c, 0, 61, 13
2, 34244, Note_on_c, 0, 64, 22
2, 34330, Note_on_c, 0, 64, 0
2, 34334, Note_on_c, 0, 61, 0
2, 34339, Note_on_c, 0, 55, 0
2, 34362, Note_on_c, 0, 67, 0
2, 34363, Note_on_c, 0, 76, 0
2, 34370, Note_on_c, 0, 69, 0
2, 34446, Note_on_c, 0, 65, 39
2, 34448, Note_on_c, 0, 64, 30
2, 34452, Note_on_c, 0, 50, 24
2, 34455, Note_on_c, 0, 57, 29
2, 34456, Control_c, 0, 64, 0
2, 34457, Note_on_c, 0, 60, 26
2, 34488, Control_c, 0, 64, 127
2, 34537, Note_on_c, 0, 57, 0
2, 34544, Note_on_c, 0, 60, 0
2, 34563, Note_on_c, 0, 64, 0
2, 34564, Note_on_c, 0, 65, 0
2, 34609, Note_on_c, 0, 57, 30
2, 34611, Note_on_c, 0, 60, 27
2, 34689, Note_on_c, 0, 77, 85
2, 34825, Note_on_c, 0, 77, 0
2, 34835, Note_on_c, 0, 69, 48
2, 34850, Note_on_c, 0, 50, 0
2, 34869, Note_on_c, 0, 69, 0
2, 34876, Note_on_c, 0, 74, 71
2, 34878, Note_on_c, 0, 57, 0
2, 34908, Note_on_c, 0, 74, 0
2, 34925, Note_on_c, 0, 72, 63
2, 34928, Note_on_c, 0, 52, 51
2, 34929, Note_on_c, 0, 60, 0
2, 34932, Control_c, 0, 64, 0
2, 34966, Control_c, 0, 64, 127
2, 35064, Note_on_c, 0, 69, 36
2, 35064, Note_on_c, 0, 65, 28
2, 35065, Note_on_c, 0, 60, 24
2, 35069, Note_on_c, 0, 57, 29
2, 35135, Note_on_c, 0, 65, 0
2, 35138, Note_on_c, 0, 69, 0
2, 35147, Note_on_c, 0, 60, 0
2, 35151, Note_on_c, 0, 72, 0
2, 35169, Note_on_c, 0, 57, 0
2, 35208, Note_on_c, 0, 71, 48
2, 35211, Note_on_c, 0, 68, 47
2, 35212, Note_on_c, 0, 64, 45
2, 35213, Note_on_c, 0, 56, 37
2, 35215, Note_on_c, 0, 62, 33
2, 35219, Control_c, 0, 64, 0
2, 35251, Control_c, 0, 64, 127
2, 35264, Note_on_c, 0, 62, 0
2, 35274, Note_on_c, 0, 56, 0
2, 35277, Note_on_c, 0, 52, 0
2, 35283, Note_on_c, 0, 64, 0
2, 35291, Note_on_c, 0, 71, 0
2, 35297, Note_on_c, 0, 68, 0
2, 35356, Note_on_c, 0, 45, 58
2, 35357, Control_c, 0, 64, 0
2, 35357, Note_on_c, 0, 76, 71
2, 35379, Note_on_c, 0, 45, 0
2, 35384, Control_c, 0, 64, 127
2, 35524, Note_on_c, 0, 76, 0
2, 35525, Note_on_c, 0, 64, 40
2, 35525, Note_on_c, 0, 67, 43
2, 35525, Note_on_c, 0, 71, 42
2, 35525, Note_on_c, 0, 74, 51
2, 35526, Note_on_c, 0, 76, 36
2, 35613, Note_on_c, 0, 71, 0
2, 35616, Note_on_c, 0, 76, 0
2, 35627, Note_on_c, 0, 67, 0
2, 35629, Note_on_c, 0, 74, 0
2, 35645, Note_on_c, 0, 64, 0
2, 35677, Note_on_c, 0, 71, 63
2, 35744, Note_on_c, 0, 71, 0
2, 35878, Note_on_c, 0, 70, 40
2, 35882, Note_on_c, 0, 61, 20
2, 35883, Note_on_c, 0, 45, 32
2, 35884, Note_on_c, 0, 55, 25
2, 35886, Note_on_c, 0, 64, 34
2, 35888, Note_on_c, 0, 67, 26
2, 35893, Control_c, 0, 64, 0
2, 35936, Control_c, 0, 64, 127
2, 35967, Note_on_c, 0, 55, 0
2, 35978, Note_on_c, 0, 64, 0
2, 35987, Note_on_c, 0, 67, 0
2, 35996, Note_on_c, 0, 61, 0
2, 36055, Note_on_c, 0, 61, 18
2, 36057, Note_on_c, 0, 64, 34
2, 36060, Note_on_c, 0, 55, 27
2, 36145, Note_on_c, 0, 64, 0
2, 36150, Note_on_c, 0, 55, 0
2, 36158, Note_on_c, 0, 61, 0
2, 36231, Note_on_c, 0, 61, 21
2, 36234, Note_on_c, 0, 64, 39
2, 36237, Note_on_c, 0, 55, 20
2, 36258, Note_on_c, 0, 55, 0
2, 36282, Note_on_c, 0, 45, 0
2, 36282, Note_on_c, 0, 64, 0
2, 36287, Note_on_c, 0, 70, 0
2, 36303, Note_on_c, 0, 61, 0
2, 36427, Note_on_c, 0, 65, 29
2, 36428, Note_on_c, 0, 38, 32
2, 36429, Note_on_c, 0, 60, 37
2, 36430, Note_on_c, 0, 57, 27
2, 36433, Note_on_c, 0, 26, 24
2, 36435, Control_c, 0, 64, 0
2, 36475, Control_c, 0, 64, 127
2, 36535, Note_on_c, 0, 57, 0
2, 36563, Note_on_c, 0, 26, 0
2, 36577, Note_on_c, 0, 65, 0
2, 36577, Note_on_c, 0, 38, 0
2, 36579, Note_on_c, 0, 60, 0
2, 36756, Note_on_c, 0, 69, 67
2, 36758, Note_on_c, 0, 57, 44
2, 36824, Note_on_c, 0, 69, 0
2, 36829, Note_on_c, 0, 57, 0
2, 36836, Note_on_c, 0, 60, 45
2, 36837, Note_on_c, 0, 72, 62
2, 36905, Note_on_c, 0, 60, 0
2, 36909, Note_on_c, 0, 62, 39
2, 36910, Note_on_c, 0, 74, 57
2, 36925, Note_on_c, 0, 72, 0
2, 36931, Note_on_c, 0, 74, 0
2, 36931, Note_on_c, 0, 62, 0
2, 37078, Note_on_c, 0, 55, 36
2, 37086, Note_on_c, 0, 65, 44
2, 37095, Note_on_c, 0, 69, 55
2, 37103, Note_on_c, 0, 72, 44
2, 37109, Control_c, 0, 64, 0
2, 37117, Note_on_c, 0, 76, 52
2, 37143, Control_c, 0, 64, 127
2, 37241, Note_on_c, 0, 72, 0
2, 37298, Note_on_c, 0, 76, 0
2, 37300, Note_on_c, 0, 72, 24
2, 37364, Note_on_c, 0, 55, 0
2, 37425, Note_on_c, 0, 65, 0
2, 37431, Note_on_c, 0, 72, 0
2, 37434, Note_on_c, 0, 69, 0
2, 37543, Note_on_c, 0, 74, 43
2, 37547, Note_on_c, 0, 71, 37
2, 37548, Note_on_c, 0, 65, 25
2, 37548, Note_on_c, 0, 68, 28
2, 37549, Note_on_c, 0, 55, 40
2, 37559, Control_c, 0, 64, 0
2, 37572, Control_c, 0, 64, 127
2, 37628, Note_on_c, 0, 55, 0
2, 37803, Note_on_c, 0, 74, 0
2, 37846, Note_on_c, 0, 65, 0
2, 37863, Note_on_c, 0, 68, 0
2, 37869, Note_on_c, 0, 71, 0
2, 37959, Note_on_c, 0, 72, 51
2, 37961, Note_on_c, 0, 41, 36
2, 37963, Control_c, 0, 64, 0
2, 37987, Note_on_c, 0, 41, 0
2, 37987, Control_c, 0, 64, 127
2, 38051, Note_on_c, 0, 72, 0
2, 38112, Note_on_c, 0, 53, 13
2, 38113, Note_on_c, 0, 60, 34
2, 38114, Note_on_c, 0, 57, 28
2, 38115, Note_on_c, 0, 64, 18
2, 38250, Note_on_c, 0, 88, 59
2, 38251, Note_on_c, 0, 64, 0
2, 38251, Note_on_c, 0, 60, 0
2, 38257, Note_on_c, 0, 57, 0
2, 38280, Note_on_c, 0, 53, 0
2, 38335, Note_on_c, 0, 91, 57
2, 38342, Note_on_c, 0, 88, 0
2, 38380, Note_on_c, 0, 91, 0
2, 38393, Control_c, 0, 64, 0
2, 38394, Note_on_c, 0, 24, 36
2, 38396, Note_on_c, 0, 36, 30
2, 38398, Note_on_c, 0, 89, 54
2, 38409, Note_on_c, 0, 24, 0
2, 38413, Note_on_c, 0, 36, 0
2, 38416, Control_c, 0, 64, 127
2, 38477, Note_on_c, 0, 89, 0
2, 38529, Note_on_c, 0, 55, 42
2, 38531, Note_on_c, 0, 88, 55
2, 38531, Note_on_c, 0, 64, 24
2, 38532, Note_on_c, 0, 60, 40
2, 38562, Note_on_c, 0, 88, 0
2, 38615, Note_on_c, 0, 64, 0
2, 38618, Note_on_c, 0, 60, 0
2, 38634, Note_on_c, 0, 55, 0
2, 38666, Note_on_c, 0, 83, 64
2, 38693, Note_on_c, 0, 83, 0
2, 38789, Control_c, 0, 64, 0
2, 38790, Note_on_c, 0, 81, 53
2, 38795, Note_on_c, 0, 48, 29
2, 38796, Note_on_c, 0, 41, 36
2, 38798, Note_on_c, 0, 72, 35
2, 38816, Note_on_c, 0, 41, 0
2, 38816, Control_c, 0, 64, 127
2, 38822, Note_on_c, 0, 48, 0
2, 38852, Note_on_c, 0, 72, 0
2, 38853, Note_on_c, 0, 81, 0
2, 38921, Note_on_c, 0, 83, 53
2, 38925, Note_on_c, 0, 60, 30
2, 38925, Note_on_c, 0, 57, 40
2, 38926, Note_on_c, 0, 53, 19
2, 38926, Note_on_c, 0, 64, 17
2, 38927, Note_on_c, 0, 74, 45
2, 38953, Note_on_c, 0, 64, 0
2, 38955, Note_on_c, 0, 60, 0
2, 38958, Note_on_c, 0, 74, 0
2, 38959, Note_on_c, 0, 57, 0
2, 38961, Note_on_c, 0, 53, 0
2, 38961, Note_on_c, 0, 83, 0
2, 39057, Note_on_c, 0, 84, 44
2, 39060, Note_on_c, 0, 76, 30
2, 39075, Note_on_c, 0, 84, 0
2, 39086, Note_on_c, 0, 76, 0
2, 39175, Control_c, 0, 64, 0
2, 39182, Note_on_c, 0, 71, 44
2, 39182, Note_on_c, 0, 24, 36
2, 39182, Note_on_c, 0, 79, 38
2, 39187, Note_on_c, 0, 36, 25
2, 39196, Control_c, 0, 64, 127
2, 39205, Note_on_c, 0, 24, 0
2, 39214, Note_on_c, 0, 36, 0
2, 39327, Note_on_c, 0, 64, 28
2, 39329, Note_on_c, 0, 59, 38
2, 39329, Note_on_c, 0, 60, 36
2, 39337, Note_on_c, 0, 71, 0
2, 39357, Note_on_c, 0, 79, 0
2, 39410, Note_on_c, 0, 64, 0
2, 39414, Note_on_c, 0, 60, 0
2, 39419, Note_on_c, 0, 59, 0
2, 39484, Note_on_c, 0, 98, 74
2, 39519, Note_on_c, 0, 91, 38
2, 39528, Note_on_c, 0, 98, 0
2, 39557, Note_on_c, 0, 95, 66
2, 39565, Note_on_c, 0, 91, 0
2, 39599, Note_on_c, 0, 48, 36
2, 39600, Note_on_c, 0, 95, 0
2, 39600, Note_on_c, 0, 41, 33
2, 39600, Note_on_c, 0, 86, 36
2, 39602, Note_on_c, 0, 88, 27
2, 39602, Control_c, 0, 64, 0
2, 39604, Note_on_c, 0, 57, 30
2, 39623, Control_c, 0, 64, 127
2, 39636, Note_on_c, 0, 88, 0
2, 39644, Note_on_c, 0, 86, 0
2, 39657, Note_on_c, 0, 41, 0
2, 39659, Note_on_c, 0, 91, 50
2, 39662, Note_on_c, 0, 48, 0
2, 39676, Note_on_c, 0, 57, 0
2, 39702, Note_on_c, 0, 83, 53
2, 39704, Note_on_c, 0, 91, 0
2, 39721, Note_on_c, 0, 83, 0
2, 39763, Note_on_c, 0, 57, 30
2, 39763, Note_on_c, 0, 64, 15
2, 39763, Note_on_c, 0, 53, 20
2, 39765, Note_on_c, 0, 60, 30
2, 39816, Note_on_c, 0, 60, 0
2, 39820, Note_on_c, 0, 64, 0
2, 39821, Note_on_c, 0, 57, 0
2, 39832, Note_on_c, 0, 53, 0
2, 40012, Control_c, 0, 64, 0
2, 40019, Note_on_c, 0, 24, 36
2, 40019, Note_on_c, 0, 36, 34
2, 40032, Control_c, 0, 64, 127
2, 40036, Note_on_c, 0, 24, 0
2, 40047, Note_on_c, 0, 36, 0
2, 40161, Note_on_c, 0, 59, 36
2, 40162, Note_on_c, 0, 64, 20
2, 40163, Note_on_c, 0, 60, 34
2, 40163, Note_on_c, 0, 55, 30
2, 40249, Note_on_c, 0, 95, 55
2, 40280, Note_on_c, 0, 64, 0
2, 40282, Note_on_c, 0, 60, 0
2, 40290, Note_on_c, 0, 59, 0
2, 40292, Note_on_c, 0, 55, 0
2, 40361, Note_on_c, 0, 96, 45
2, 40381, Note_on_c, 0, 95, 0
2, 40416, Note_on_c, 0, 96, 0
2, 40419, Note_on_c, 0, 101, 72
2, 40453, Control_c, 0, 64, 0
2, 40455, Note_on_c, 0, 41, 46
2, 40475, Control_c, 0, 64, 127
2, 40492, Note_on_c, 0, 41, 0
2, 40506, Note_on_c, 0, 100, 73
2, 40541, Note_on_c, 0, 101, 0
2, 40562, Note_on_c, 0, 91, 50
2, 40572, Note_on_c, 0, 100, 0
2, 40622, Note_on_c, 0, 98, 79
2, 40624, Note_on_c, 0, 91, 0
2, 40633, Note_on_c, 0, 60, 36
2, 40633, Note_on_c, 0, 64, 20
2, 40684, Note_on_c, 0, 98, 0
2, 40689, Note_on_c, 0, 96, 67
2, 40725, Note_on_c, 0, 96, 0
2, 40726, Note_on_c, 0, 64, 0
2, 40737, Note_on_c, 0, 60, 0
2, 40737, Note_on_c, 0, 86, 56
2, 40772, Note_on_c, 0, 86, 0
2, 40780, Note_on_c, 0, 95, 67
2, 40816, Note_on_c, 0, 95, 0
2, 40818, Note_on_c, 0, 93, 65
2, 40856, Note_on_c, 0, 88, 53
2, 40859, Control_c, 0, 64, 0
2, 40861, Note_on_c, 0, 36, 34
2, 40879, Note_on_c, 0, 36, 0
2, 40881, Control_c, 0, 64, 127
2, 40916, Note_on_c, 0, 88, 0
2, 40917, Note_on_c, 0, 83, 36
2, 40967, Note_on_c, 0, 83, 0
2, 40980, Note_on_c, 0, 93, 0
2, 40990, Note_on_c, 0, 83, 36
2, 40991, Note_on_c, 0, 64, 28
2, 40994, Note_on_c, 0, 59, 34
2, 40996, Note_on_c, 0, 60, 32
2, 41060, Note_on_c, 0, 64, 0
2, 41067, Note_on_c, 0, 60, 0
2, 41078, Note_on_c, 0, 59, 0
2, 41103, Note_on_c, 0, 83, 0
2, 41124, Note_on_c, 0, 83, 36
2, 41190, Note_on_c, 0, 95, 38
2, 41246, Note_on_c, 0, 88, 42
2, 41248, Control_c, 0, 64, 0
2, 41249, Note_on_c, 0, 41, 31
2, 41272, Control_c, 0, 64, 127
2, 41282, Note_on_c, 0, 41, 0
2, 41305, Note_on_c, 0, 88, 0
2, 41315, Note_on_c, 0, 95, 0
2, 41323, Note_on_c, 0, 88, 37
2, 41380, Note_on_c, 0, 60, 37
2, 41382, Note_on_c, 0, 53, 22
2, 41382, Note_on_c, 0, 57, 28
2, 41383, Note_on_c, 0, 64, 13
2, 41460, Note_on_c, 0, 64, 0
2, 41460, Note_on_c, 0, 57, 0
2, 41461, Note_on_c, 0, 53, 0
2, 41462, Note_on_c, 0, 60, 0
2, 41498, Note_on_c, 0, 83, 0
2, 41508, Note_on_c, 0, 88, 0
2, 41624, Control_c, 0, 64, 0
2, 41633, Note_on_c, 0, 36, 36
2, 41639, Control_c, 0, 64, 127
2, 41642, Note_on_c, 0, 36, 0
2, 41761, Note_on_c, 0, 60, 36
2, 41761, Note_on_c, 0, 64, 26
2, 41836, Note_on_c, 0, 100, 56
2, 41836, Note_on_c, 0, 107, 64
2, 41885, Note_on_c, 0, 107, 0
2, 41891, Note_on_c, 0, 95, 37
2, 41913, Note_on_c, 0, 100, 0
2, 41919, Note_on_c, 0, 64, 0
2, 41924, Note_on_c, 0, 60, 0
2, 41937, Note_on_c, 0, 95, 0
2, 41952, Note_on_c, 0, 105, 67
2, 41953, Note_on_c, 0, 98, 51
2, 41988, Note_on_c, 0, 105, 0
2, 42011, Note_on_c, 0, 93, 54
2, 42013, Note_on_c, 0, 41, 36
2, 42014, Note_on_c, 0, 48, 33
2, 42019, Note_on_c, 0, 98, 0
2, 42022, Control_c, 0, 64, 0
2, 42042, Control_c, 0, 64, 127
2, 42055, Note_on_c, 0, 41, 0
2, 42062, Note_on_c, 0, 48, 0
2, 42063, Note_on_c, 0, 93, 0
2, 42075, Note_on_c, 0, 103, 41
2, 42076, Note_on_c, 0, 96, 33
2, 42077, Note_on_c, 0, 101, 40
2, 42099, Note_on_c, 0, 103, 0
2, 42102, Note_on_c, 0, 101, 0
2, 42118, Note_on_c, 0, 96, 0
2, 42137, Note_on_c, 0, 53, 27
2, 42141, Note_on_c, 0, 64, 26
2, 42141, Note_on_c, 0, 60, 36
2, 42154, Note_on_c, 0, 57, 27
2, 42229, Note_on_c, 0, 60, 0
2, 42231, Note_on_c, 0, 57, 0
2, 42231, Note_on_c, 0, 64, 0
2, 42236, Note_on_c, 0, 53, 0
2, 42339, Note_on_c, 0, 100, 62
2, 42341, Note_on_c, 0, 95, 55
2, 42364, Note_on_c, 0, 95, 0
2, 42370, Note_on_c, 0, 100, 0
2, 42401, Note_on_c, 0, 88, 41
2, 42403, Note_on_c, 0, 36, 35
2, 42406, Control_c, 0, 64, 0
2, 42421, Note_on_c, 0, 36, 0
2, 42423, Control_c, 0, 64, 127
2, 42459, Note_on_c, 0, 88, 0
2, 42466, Note_on_c, 0, 98, 60
2, 42479, Note_on_c, 0, 98, 0
2, 42527, Note_on_c, 0, 83, 36
2, 42529, Note_on_c, 0, 88, 45
2, 42532, Note_on_c, 0, 60, 31
2, 42532, Note_on_c, 0, 59, 35
2, 42532, Note_on_c, 0, 64, 26
2, 42623, Note_on_c, 0, 64, 0
2, 42625, Note_on_c, 0, 60, 0
2, 42628, Note_on_c, 0, 59, 0
2, 42748, Note_on_c, 0, 95, 42
2, 42758, Note_on_c, 0, 88, 0
2, 42775, Note_on_c, 0, 83, 0
2, 42803, Note_on_c, 0, 95, 0
2, 42808, Note_on_c, 0, 83, 43
2, 42810, Note_on_c, 0, 91, 39
2, 42810, Control_c, 0, 64, 0
2, 42811, Note_on_c, 0, 41, 31
2, 42812, Note_on_c, 0, 48, 24
2, 42832, Control_c, 0, 64, 127
2, 42834, Note_on_c, 0, 41, 0
2, 42839, Note_on_c, 0, 48, 0
2, 42944, Note_on_c, 0, 64, 34
2, 42946, Note_on_c, 0, 60, 40
2, 42947, Note_on_c, 0, 57, 37
2, 42948, Note_on_c, 0, 53, 24
2, 43006, Note_on_c, 0, 91, 0
2, 43020, Note_on_c, 0, 83, 0
2, 43024, Note_on_c, 0, 64, 0
2, 43030, Note_on_c, 0, 60, 0
2, 43035, Note_on_c, 0, 57, 0
2, 43042, Note_on_c, 0, 53, 0
2, 43225, Control_c, 0, 64, 0
2, 43228, Note_on_c, 0, 24, 42
2, 43230, Note_on_c, 0, 36, 32
2, 43248, Control_c, 0, 64, 127
2, 43255, Note_on_c, 0, 24, 0
2, 43267, Note_on_c, 0, 36, 0
2, 43376, Note_on_c, 0, 59, 31
2, 43376, Note_on_c, 0, 55, 38
2, 43377, Note_on_c, 0, 60, 38
2, 43379, Note_on_c, 0, 64, 20
2, 43421, Note_on_c, 0, 59, 0
2, 43438, Note_on_c, 0, 64, 0
2, 43443, Note_on_c, 0, 60, 0
2, 43455, Note_on_c, 0, 55, 0
2, 43661, Control_c, 0, 64, 0
2, 43667, Note_on_c, 0, 41, 30
2, 43695, Control_c, 0, 64, 127
2, 43832, Note_on_c, 0, 64, 29
2, 43834, Note_on_c, 0, 53, 26
2, 43835, Note_on_c, 0, 60, 33
2, 43836, Note_on_c, 0, 57, 32
2, 43913, Note_on_c, 0, 41, 0
2, 44141, Note_on_c, 0, 57, 0
2, 44150, Note_on_c, 0, 60, 0
2, 44157, Note_on_c, 0, 53, 0
2, 44171, Note_on_c, 0, 64, 0
2, 44187, Note_on_c, 0, 24, 34
2, 44198, Control_c, 0, 64, 0
2, 44239, Control_c, 0, 64, 127
2, 44401, Note_on_c, 0, 60, 31
2, 44402, Note_on_c, 0, 64, 32
2, 44403, Note_on_c, 0, 59, 38
2, 44405, Note_on_c, 0, 55, 24
2, 44414, Note_on_c, 0, 36, 11
2, 44446, Note_on_c, 0, 60, 0
2, 44887, Control_c, 0, 64, 0
2, 44992, Note_on_c, 0, 55, 0
2, 44995, Note_on_c, 0, 59, 0
2, 45003, Note_on_c, 0, 64, 0
2, 45006, Note_on_c, 0, 24, 0
2, 45009, Note_on_c, 0, 36, 0
2, 45009, End_track
3, 0, Start_track
3, 0, Title_t, "dougmck@pipeline.com.au"
3, 0, End_track
0, 0, End_of_file
