0, 0, Header, 1, 3, 960
1, 0, Start_track
1, 0, Title_t, "Have You Met Miss Jones - Duet"
1, 0, Text_t, "dougmck@pipeline.com.au\012"
1, 0, Time_signature, 4, 2, 24, 8
1, 0, Key_signature, 0, "major"
1, 0, Tempo, 428571
1, 185127, Marker_t, "Use of Augmented scale - using patterns Major 7th arpeggios a major 3rd apart  - Bbmaj7,DMaj7,GbMaj7"
1, 185127, End_track
2, 0, Start_track
2, 0, Title_t, "Solo over accompaniment "
2, 0, Note_on_c, 0, 56, 19
2, 29, Note_on_c, 0, 80, 44
2, 73, Note_on_c, 0, 81, 60
2, 89, Note_on_c, 0, 57, 54
2, 112, Note_on_c, 0, 56, 0
2, 149, Note_on_c, 0, 80, 0
2, 485, Note_on_c, 0, 57, 0
2, 529, Note_on_c, 0, 81, 0
2, 1671, Note_on_c, 0, 50, 71
2, 1687, Note_on_c, 0, 74, 95
2, 1963, Note_on_c, 0, 50, 0
2, 1997, Note_on_c, 0, 74, 0
2, 2116, Note_on_c, 0, 48, 38
2, 2180, Note_on_c, 0, 72, 46
2, 2630, Note_on_c, 0, 72, 0
2, 2701, Note_on_c, 0, 74, 62
2, 2722, Note_on_c, 0, 48, 0
2, 2732, Note_on_c, 0, 50, 39
2, 3523, Note_on_c, 0, 74, 0
2, 3556, Note_on_c, 0, 72, 49
2, 3574, Note_on_c, 0, 50, 0
2, 3596, Note_on_c, 0, 48, 51
2, 4588, Note_on_c, 0, 72, 0
2, 4767, Note_on_c, 0, 48, 0
2, 8713, Note_on_c, 0, 62, 108
2, 9037, Note_on_c, 0, 61, 81
2, 9060, Note_on_c, 0, 62, 0
2, 9234, Note_on_c, 0, 61, 0
2, 9369, Note_on_c, 0, 62, 92
2, 9966, Note_on_c, 0, 62, 0
2, 10035, Note_on_c, 0, 64, 87
2, 10343, Note_on_c, 0, 65, 85
2, 10420, Note_on_c, 0, 64, 0
2, 10635, Note_on_c, 0, 65, 0
2, 10733, Note_on_c, 0, 67, 89
2, 11275, Note_on_c, 0, 67, 0
2, 11348, Note_on_c, 0, 69, 84
2, 11802, Note_on_c, 0, 69, 0
2, 11932, Note_on_c, 0, 69, 76
2, 12145, Control_c, 0, 64, 127
2, 12303, Control_c, 0, 64, 0
2, 12447, Note_on_c, 0, 69, 0
2, 12576, Note_on_c, 0, 70, 54
2, 12657, Control_c, 0, 64, 127
2, 13127, Note_on_c, 0, 70, 0
2, 13134, Control_c, 0, 64, 0
2, 13203, Note_on_c, 0, 72, 55
2, 13521, Control_c, 0, 64, 127
2, 14185, Note_on_c, 0, 72, 0
2, 14952, Control_c, 0, 64, 0
2, 15054, Note_on_c, 0, 56, 69
2, 15056, Note_on_c, 0, 67, 81
2, 15058, Note_on_c, 0, 84, 90
2, 15061, Note_on_c, 0, 72, 90
2, 15066, Note_on_c, 0, 62, 69
2, 15119, Control_c, 0, 64, 127
2, 15223, Note_on_c, 0, 67, 0
2, 15242, Note_on_c, 0, 62, 0
2, 15346, Note_on_c, 0, 72, 0
2, 15360, Note_on_c, 0, 84, 0
2, 15364, Note_on_c, 0, 56, 0
2, 15489, Control_c, 0, 64, 0
2, 15524, Note_on_c, 0, 55, 74
2, 15540, Note_on_c, 0, 64, 71
2, 15543, Note_on_c, 0, 57, 69
2, 15563, Note_on_c, 0, 86, 89
2, 15564, Note_on_c, 0, 74, 84
2, 15577, Note_on_c, 0, 60, 62
2, 16094, Note_on_c, 0, 86, 0
2, 16107, Note_on_c, 0, 55, 0
2, 16115, Note_on_c, 0, 64, 0
2, 16136, Note_on_c, 0, 60, 0
2, 16145, Note_on_c, 0, 74, 0
2, 16159, Note_on_c, 0, 57, 0
2, 16239, Note_on_c, 0, 86, 60
2, 16255, Note_on_c, 0, 74, 68
2, 16258, Note_on_c, 0, 64, 58
2, 16267, Note_on_c, 0, 55, 58
2, 16270, Note_on_c, 0, 60, 47
2, 16281, Note_on_c, 0, 57, 37
2, 16371, Note_on_c, 0, 60, 0
2, 16381, Note_on_c, 0, 55, 0
2, 16383, Note_on_c, 0, 86, 0
2, 16393, Note_on_c, 0, 64, 0
2, 16406, Note_on_c, 0, 74, 0
2, 16427, Note_on_c, 0, 57, 0
2, 17412, Control_c, 0, 64, 127
2, 17659, Control_c, 0, 64, 0
2, 17826, Note_on_c, 0, 60, 44
2, 17835, Note_on_c, 0, 67, 45
2, 17838, Note_on_c, 0, 55, 54
2, 17844, Note_on_c, 0, 57, 37
2, 17861, Note_on_c, 0, 59, 44
2, 17925, Note_on_c, 0, 59, 0
2, 17960, Note_on_c, 0, 57, 0
2, 17979, Note_on_c, 0, 60, 0
2, 18007, Note_on_c, 0, 55, 0
2, 18020, Note_on_c, 0, 67, 0
2, 18074, Note_on_c, 0, 53, 52
2, 18321, Note_on_c, 0, 53, 0
2, 18373, Note_on_c, 0, 57, 65
2, 18379, Note_on_c, 0, 67, 62
2, 18387, Note_on_c, 0, 60, 54
2, 18398, Note_on_c, 0, 55, 56
2, 18403, Note_on_c, 0, 64, 42
2, 18997, Note_on_c, 0, 67, 0
2, 19046, Note_on_c, 0, 64, 0
2, 19364, Note_on_c, 0, 60, 0
2, 19405, Note_on_c, 0, 57, 0
2, 19491, Note_on_c, 0, 55, 0
2, 19882, Note_on_c, 0, 65, 51
2, 19889, Note_on_c, 0, 60, 30
2, 19891, Note_on_c, 0, 57, 45
2, 19912, Note_on_c, 0, 53, 48
2, 21179, Note_on_c, 0, 57, 0
2, 21339, Note_on_c, 0, 60, 0
2, 21362, Note_on_c, 0, 65, 0
2, 21751, Note_on_c, 0, 61, 53
2, 21927, Note_on_c, 0, 61, 0
2, 21962, Note_on_c, 0, 53, 0
2, 22057, Note_on_c, 0, 62, 53
2, 22223, Note_on_c, 0, 62, 0
2, 22321, Note_on_c, 0, 65, 71
2, 22478, Note_on_c, 0, 65, 0
2, 22657, Note_on_c, 0, 69, 101
2, 22879, Note_on_c, 0, 69, 0
2, 23007, Note_on_c, 0, 72, 95
2, 23351, Note_on_c, 0, 72, 0
2, 23354, Note_on_c, 0, 69, 49
2, 23472, Note_on_c, 0, 69, 0
2, 23652, Note_on_c, 0, 70, 51
2, 23835, Note_on_c, 0, 70, 0
2, 23990, Note_on_c, 0, 74, 57
2, 24201, Note_on_c, 0, 74, 0
2, 24329, Note_on_c, 0, 77, 37
2, 24502, Note_on_c, 0, 77, 0
2, 24613, Note_on_c, 0, 81, 73
2, 24803, Note_on_c, 0, 81, 0
2, 24945, Note_on_c, 0, 84, 89
2, 24954, Note_on_c, 0, 72, 84
2, 25429, Note_on_c, 0, 84, 0
2, 25498, Note_on_c, 0, 72, 0
2, 25609, Note_on_c, 0, 72, 77
2, 25611, Note_on_c, 0, 84, 68
2, 25873, Note_on_c, 0, 72, 0
2, 25915, Note_on_c, 0, 84, 0
2, 25978, Note_on_c, 0, 81, 44
2, 26482, Control_c, 0, 64, 127
2, 26563, Note_on_c, 0, 72, 53
2, 26596, Note_on_c, 0, 81, 0
2, 26605, Control_c, 0, 64, 0
2, 26700, Note_on_c, 0, 72, 0
2, 27823, Control_c, 0, 64, 127
2, 28539, Note_on_c, 0, 61, 39
2, 28564, Control_c, 0, 64, 0
2, 28699, Note_on_c, 0, 61, 0
2, 28786, Note_on_c, 0, 75, 84
2, 28791, Note_on_c, 0, 68, 84
2, 28793, Note_on_c, 0, 64, 91
2, 28796, Note_on_c, 0, 63, 74
2, 29273, Note_on_c, 0, 68, 0
2, 29299, Note_on_c, 0, 75, 0
2, 29308, Note_on_c, 0, 64, 0
2, 29389, Note_on_c, 0, 63, 0
2, 29403, Note_on_c, 0, 73, 56
2, 29412, Note_on_c, 0, 61, 62
2, 29421, Note_on_c, 0, 68, 48
2, 29442, Note_on_c, 0, 64, 71
2, 29660, Note_on_c, 0, 64, 0
2, 29669, Note_on_c, 0, 61, 0
2, 29689, Note_on_c, 0, 73, 0
2, 29743, Note_on_c, 0, 68, 0
2, 29780, Note_on_c, 0, 60, 24
2, 29803, Note_on_c, 0, 72, 55
2, 29808, Note_on_c, 0, 64, 46
2, 29850, Note_on_c, 0, 68, 15
2, 30079, Note_on_c, 0, 68, 0
2, 30218, Note_on_c, 0, 64, 0
2, 30248, Note_on_c, 0, 72, 0
2, 30324, Note_on_c, 0, 60, 0
2, 30438, Note_on_c, 0, 58, 38
2, 30451, Note_on_c, 0, 70, 37
2, 30641, Note_on_c, 0, 70, 0
2, 30649, Note_on_c, 0, 58, 0
2, 30727, Note_on_c, 0, 57, 38
2, 30737, Note_on_c, 0, 72, 57
2, 30808, Note_on_c, 0, 64, 34
2, 30908, Note_on_c, 0, 57, 0
2, 30957, Note_on_c, 0, 72, 0
2, 31007, Note_on_c, 0, 64, 0
2, 31746, Note_on_c, 0, 62, 115
2, 33663, Note_on_c, 0, 62, 0
2, 33699, Note_on_c, 0, 60, 48
2, 33949, Note_on_c, 0, 60, 0
2, 34025, Note_on_c, 0, 62, 39
2, 34235, Note_on_c, 0, 62, 0
2, 34317, Note_on_c, 0, 60, 99
2, 39215, Note_on_c, 0, 60, 0
2, 39251, Note_on_c, 0, 49, 43
2, 39413, Note_on_c, 0, 62, 96
2, 39435, Note_on_c, 0, 49, 0
2, 39439, Note_on_c, 0, 50, 56
2, 39921, Note_on_c, 0, 50, 0
2, 39955, Note_on_c, 0, 49, 43
2, 40021, Note_on_c, 0, 61, 49
2, 40051, Note_on_c, 0, 62, 0
2, 40227, Note_on_c, 0, 49, 0
2, 40280, Note_on_c, 0, 61, 0
2, 40282, Note_on_c, 0, 50, 32
2, 40353, Note_on_c, 0, 62, 36
2, 40776, Note_on_c, 0, 50, 0
2, 40803, Note_on_c, 0, 62, 0
2, 40901, Note_on_c, 0, 64, 70
2, 40908, Note_on_c, 0, 52, 31
2, 41107, Note_on_c, 0, 52, 0
2, 41143, Note_on_c, 0, 64, 0
2, 41215, Note_on_c, 0, 53, 29
2, 41292, Note_on_c, 0, 65, 53
2, 41688, Note_on_c, 0, 53, 0
2, 41743, Note_on_c, 0, 65, 0
2, 41845, Note_on_c, 0, 67, 55
2, 41864, Note_on_c, 0, 55, 45
2, 42067, Note_on_c, 0, 67, 0
2, 42132, Note_on_c, 0, 55, 0
2, 42214, Note_on_c, 0, 58, 52
2, 42223, Note_on_c, 0, 69, 49
2, 42239, Note_on_c, 0, 62, 50
2, 42248, Note_on_c, 0, 57, 39
2, 42308, Note_on_c, 0, 65, 29
2, 42619, Note_on_c, 0, 69, 0
2, 42630, Note_on_c, 0, 58, 0
2, 42631, Note_on_c, 0, 65, 0
2, 42661, Note_on_c, 0, 62, 0
2, 42730, Note_on_c, 0, 57, 0
2, 42862, Note_on_c, 0, 48, 54
2, 42957, Note_on_c, 0, 48, 0
2, 44759, Note_on_c, 0, 82, 59
2, 44763, Note_on_c, 0, 67, 68
2, 44765, Note_on_c, 0, 56, 52
2, 44780, Note_on_c, 0, 70, 53
2, 44782, Note_on_c, 0, 75, 46
2, 44796, Note_on_c, 0, 62, 44
2, 44833, Note_on_c, 0, 67, 0
2, 44846, Note_on_c, 0, 75, 0
2, 44869, Note_on_c, 0, 62, 0
2, 44874, Note_on_c, 0, 56, 0
2, 44881, Note_on_c, 0, 70, 0
2, 44956, Note_on_c, 0, 82, 0
2, 45361, Note_on_c, 0, 84, 78
2, 45367, Note_on_c, 0, 72, 71
2, 45382, Note_on_c, 0, 56, 63
2, 45389, Note_on_c, 0, 67, 73
2, 45403, Note_on_c, 0, 62, 56
2, 45546, Note_on_c, 0, 67, 0
2, 45572, Note_on_c, 0, 62, 0
2, 45615, Control_c, 0, 64, 127
2, 45652, Note_on_c, 0, 84, 0
2, 45713, Note_on_c, 0, 72, 0
2, 45743, Note_on_c, 0, 56, 0
2, 45861, Control_c, 0, 64, 0
2, 46014, Note_on_c, 0, 55, 61
2, 46030, Note_on_c, 0, 64, 67
2, 46035, Note_on_c, 0, 86, 69
2, 46050, Note_on_c, 0, 74, 61
2, 46053, Note_on_c, 0, 57, 45
2, 46060, Note_on_c, 0, 60, 44
2, 46067, Note_on_c, 0, 79, 49
2, 46974, Control_c, 0, 64, 127
2, 47044, Note_on_c, 0, 86, 0
2, 47128, Note_on_c, 0, 60, 0
2, 47130, Note_on_c, 0, 79, 0
2, 47150, Note_on_c, 0, 55, 0
2, 47162, Note_on_c, 0, 64, 0
2, 47195, Note_on_c, 0, 57, 0
2, 47215, Note_on_c, 0, 74, 0
2, 47943, Control_c, 0, 64, 0
2, 47979, Note_on_c, 0, 62, 34
2, 48075, Note_on_c, 0, 79, 81
2, 48077, Note_on_c, 0, 76, 78
2, 48080, Note_on_c, 0, 72, 81
2, 48082, Note_on_c, 0, 69, 89
2, 48094, Note_on_c, 0, 64, 72
2, 48114, Note_on_c, 0, 62, 0
2, 48118, Note_on_c, 0, 71, 64
2, 48179, Note_on_c, 0, 71, 0
2, 48483, Note_on_c, 0, 76, 0
2, 48507, Note_on_c, 0, 79, 0
2, 48564, Note_on_c, 0, 72, 0
2, 48575, Note_on_c, 0, 69, 0
2, 48635, Note_on_c, 0, 64, 0
2, 48754, Note_on_c, 0, 62, 45
2, 48973, Note_on_c, 0, 79, 74
2, 48976, Note_on_c, 0, 72, 71
2, 48990, Note_on_c, 0, 69, 71
2, 49011, Note_on_c, 0, 62, 0
2, 49036, Note_on_c, 0, 64, 57
2, 49355, Note_on_c, 0, 79, 0
2, 49423, Note_on_c, 0, 69, 0
2, 49436, Note_on_c, 0, 72, 0
2, 49446, Note_on_c, 0, 64, 0
2, 49495, Control_c, 0, 64, 127
2, 49548, Control_c, 0, 64, 0
2, 49617, Note_on_c, 0, 77, 60
2, 49622, Note_on_c, 0, 72, 50
2, 49631, Note_on_c, 0, 69, 61
2, 49659, Note_on_c, 0, 62, 60
2, 50956, Note_on_c, 0, 77, 0
2, 50963, Note_on_c, 0, 72, 0
2, 51050, Control_c, 0, 64, 127
2, 51122, Note_on_c, 0, 69, 0
2, 51650, Control_c, 0, 64, 0
2, 51727, Note_on_c, 0, 62, 0
2, 51810, Note_on_c, 0, 76, 61
2, 51813, Note_on_c, 0, 61, 58
2, 51822, Note_on_c, 0, 65, 55
2, 51834, Note_on_c, 0, 69, 57
2, 52259, Note_on_c, 0, 65, 0
2, 52317, Note_on_c, 0, 69, 0
2, 52399, Note_on_c, 0, 76, 0
2, 52475, Note_on_c, 0, 61, 0
2, 52488, Note_on_c, 0, 60, 47
2, 52502, Note_on_c, 0, 74, 49
2, 52507, Note_on_c, 0, 65, 45
2, 52519, Note_on_c, 0, 69, 34
2, 52597, Note_on_c, 0, 65, 0
2, 52598, Note_on_c, 0, 69, 0
2, 52611, Note_on_c, 0, 60, 0
2, 52630, Note_on_c, 0, 74, 0
2, 53448, Control_c, 0, 64, 127
2, 54541, Control_c, 0, 64, 0
2, 54797, Note_on_c, 0, 62, 80
2, 55029, Note_on_c, 0, 62, 0
2, 55068, Note_on_c, 0, 59, 50
2, 55295, Note_on_c, 0, 59, 0
2, 55404, Note_on_c, 0, 60, 66
2, 55578, Note_on_c, 0, 60, 0
2, 55729, Note_on_c, 0, 62, 74
2, 55890, Note_on_c, 0, 62, 0
2, 56030, Note_on_c, 0, 63, 64
2, 56161, Note_on_c, 0, 63, 0
2, 56342, Note_on_c, 0, 65, 60
2, 56497, Note_on_c, 0, 65, 0
2, 56676, Note_on_c, 0, 71, 74
2, 56868, Note_on_c, 0, 71, 0
2, 56963, Note_on_c, 0, 74, 87
2, 57224, Note_on_c, 0, 74, 0
2, 57261, Note_on_c, 0, 71, 71
2, 57356, Note_on_c, 0, 67, 33
2, 57386, Note_on_c, 0, 63, 20
2, 57400, Note_on_c, 0, 57, 26
2, 57401, Note_on_c, 0, 62, 39
2, 57495, Note_on_c, 0, 71, 0
2, 57567, Note_on_c, 0, 72, 60
2, 57774, Note_on_c, 0, 72, 0
2, 57801, Note_on_c, 0, 57, 0
2, 57889, Note_on_c, 0, 67, 0
2, 57928, Note_on_c, 0, 74, 60
2, 57963, Note_on_c, 0, 62, 0
2, 58010, Note_on_c, 0, 63, 0
2, 58086, Note_on_c, 0, 74, 0
2, 58181, Note_on_c, 0, 75, 67
2, 58366, Note_on_c, 0, 75, 0
2, 58526, Note_on_c, 0, 77, 60
2, 58688, Note_on_c, 0, 77, 0
2, 59124, Note_on_c, 0, 67, 35
2, 59144, Note_on_c, 0, 81, 65
2, 59207, Note_on_c, 0, 67, 0
2, 59292, Note_on_c, 0, 81, 0
2, 59455, Note_on_c, 0, 86, 71
2, 59652, Note_on_c, 0, 86, 0
2, 60068, Note_on_c, 0, 86, 71
2, 60105, Note_on_c, 0, 63, 34
2, 60107, Note_on_c, 0, 67, 40
2, 60194, Note_on_c, 0, 67, 0
2, 60242, Note_on_c, 0, 86, 0
2, 60316, Note_on_c, 0, 63, 0
2, 60439, Note_on_c, 0, 81, 46
2, 60557, Note_on_c, 0, 81, 0
2, 61085, Note_on_c, 0, 81, 45
2, 61187, Note_on_c, 0, 81, 0
2, 61374, Note_on_c, 0, 65, 37
2, 61414, Note_on_c, 0, 62, 25
2, 61425, Note_on_c, 0, 86, 43
2, 61432, Note_on_c, 0, 84, 52
2, 61499, Note_on_c, 0, 86, 0
2, 61511, Note_on_c, 0, 65, 0
2, 61527, Note_on_c, 0, 84, 0
2, 61548, Note_on_c, 0, 62, 0
2, 62421, Note_on_c, 0, 65, 33
2, 62430, Note_on_c, 0, 82, 59
2, 62458, Note_on_c, 0, 62, 32
2, 62465, Note_on_c, 0, 60, 26
2, 62959, Control_c, 0, 64, 127
2, 63104, Note_on_c, 0, 65, 0
2, 63208, Note_on_c, 0, 62, 0
2, 63232, Note_on_c, 0, 60, 0
2, 63986, Note_on_c, 0, 53, 50
2, 64028, Note_on_c, 0, 77, 30
2, 64123, Control_c, 0, 64, 0
2, 64130, Note_on_c, 0, 77, 0
2, 64172, Note_on_c, 0, 53, 0
2, 64223, Note_on_c, 0, 82, 0
2, 64318, Note_on_c, 0, 55, 47
2, 64327, Note_on_c, 0, 79, 58
2, 64742, Note_on_c, 0, 55, 0
2, 64811, Control_c, 0, 64, 127
2, 64827, Note_on_c, 0, 79, 0
2, 64918, Control_c, 0, 64, 0
2, 64950, Note_on_c, 0, 56, 56
2, 64962, Note_on_c, 0, 80, 71
2, 65839, Note_on_c, 0, 80, 0
2, 65841, Note_on_c, 0, 56, 0
2, 65904, Note_on_c, 0, 58, 39
2, 65922, Note_on_c, 0, 82, 53
2, 66180, Note_on_c, 0, 82, 0
2, 66222, Note_on_c, 0, 58, 0
2, 66242, Note_on_c, 0, 56, 36
2, 66289, Note_on_c, 0, 80, 44
2, 66652, Note_on_c, 0, 80, 0
2, 66678, Note_on_c, 0, 56, 0
2, 70036, Note_on_c, 0, 63, 97
2, 70046, Note_on_c, 0, 68, 78
2, 70068, Note_on_c, 0, 56, 69
2, 70160, Note_on_c, 0, 68, 0
2, 70513, Note_on_c, 0, 56, 0
2, 70526, Note_on_c, 0, 63, 0
2, 70709, Note_on_c, 0, 54, 37
2, 70744, Note_on_c, 0, 66, 42
2, 70823, Note_on_c, 0, 66, 0
2, 71013, Note_on_c, 0, 54, 0
2, 71038, Note_on_c, 0, 68, 77
2, 71040, Note_on_c, 0, 56, 56
2, 71045, Note_on_c, 0, 63, 84
2, 71504, Note_on_c, 0, 68, 0
2, 71529, Note_on_c, 0, 56, 0
2, 71542, Note_on_c, 0, 63, 0
2, 71634, Note_on_c, 0, 54, 46
2, 71664, Note_on_c, 0, 66, 59
2, 71881, Note_on_c, 0, 54, 0
2, 71925, Note_on_c, 0, 66, 0
2, 72013, Note_on_c, 0, 61, 40
2, 72022, Note_on_c, 0, 49, 27
2, 72402, Note_on_c, 0, 61, 0
2, 72483, Note_on_c, 0, 49, 0
2, 72574, Note_on_c, 0, 63, 67
2, 72585, Note_on_c, 0, 51, 51
2, 72865, Note_on_c, 0, 63, 0
2, 72874, Note_on_c, 0, 51, 0
2, 73004, Note_on_c, 0, 52, 39
2, 73007, Note_on_c, 0, 64, 61
2, 73476, Note_on_c, 0, 52, 0
2, 73484, Note_on_c, 0, 64, 0
2, 73563, Note_on_c, 0, 51, 36
2, 73567, Note_on_c, 0, 63, 44
2, 73782, Note_on_c, 0, 63, 0
2, 73805, Note_on_c, 0, 51, 0
2, 73854, Note_on_c, 0, 52, 28
2, 73933, Note_on_c, 0, 64, 38
2, 74062, Note_on_c, 0, 52, 0
2, 74180, Note_on_c, 0, 64, 0
2, 75521, Note_on_c, 0, 61, 37
2, 75524, Note_on_c, 0, 66, 48
2, 75596, Note_on_c, 0, 66, 0
2, 75725, Note_on_c, 0, 61, 0
2, 75924, Note_on_c, 0, 73, 33
2, 76019, Note_on_c, 0, 73, 0
2, 76193, Note_on_c, 0, 74, 80
2, 76367, Note_on_c, 0, 74, 0
2, 76482, Note_on_c, 0, 76, 94
2, 76568, Note_on_c, 0, 61, 59
2, 76591, Note_on_c, 0, 64, 53
2, 76594, Note_on_c, 0, 54, 33
2, 76663, Note_on_c, 0, 64, 0
2, 76694, Note_on_c, 0, 76, 0
2, 76728, Note_on_c, 0, 54, 0
2, 76775, Note_on_c, 0, 61, 0
2, 76823, Note_on_c, 0, 78, 60
2, 77031, Note_on_c, 0, 78, 0
2, 77143, Note_on_c, 0, 81, 78
2, 77347, Note_on_c, 0, 81, 0
2, 77742, Note_on_c, 0, 73, 51
2, 78016, Note_on_c, 0, 73, 0
2, 78087, Note_on_c, 0, 69, 57
2, 78409, Note_on_c, 0, 69, 0
2, 78467, Note_on_c, 0, 64, 36
2, 78469, Note_on_c, 0, 61, 36
2, 78559, Note_on_c, 0, 64, 0
2, 78660, Note_on_c, 0, 61, 0
2, 78726, Note_on_c, 0, 69, 54
2, 79180, Note_on_c, 0, 69, 0
2, 79232, Control_c, 0, 64, 127
2, 79269, Note_on_c, 0, 59, 24
2, 79347, Note_on_c, 0, 59, 0
2, 79389, Note_on_c, 0, 69, 57
2, 79408, Control_c, 0, 64, 0
2, 80338, Note_on_c, 0, 63, 51
2, 80382, Note_on_c, 0, 59, 48
2, 80394, Note_on_c, 0, 58, 29
2, 80454, Note_on_c, 0, 63, 0
2, 80456, Note_on_c, 0, 59, 0
2, 80538, Note_on_c, 0, 58, 0
2, 80618, Note_on_c, 0, 69, 0
2, 80640, Note_on_c, 0, 73, 74
2, 81170, Note_on_c, 0, 73, 0
2, 81279, Note_on_c, 0, 75, 82
2, 81508, Note_on_c, 0, 75, 0
2, 81658, Note_on_c, 0, 73, 39
2, 82192, Note_on_c, 0, 73, 0
2, 82231, Note_on_c, 0, 71, 61
2, 82247, Note_on_c, 0, 63, 47
2, 82270, Note_on_c, 0, 59, 43
2, 82353, Note_on_c, 0, 59, 0
2, 82420, Note_on_c, 0, 63, 0
2, 83187, Note_on_c, 0, 71, 0
2, 83194, Note_on_c, 0, 73, 60
2, 83511, Note_on_c, 0, 73, 0
2, 83578, Note_on_c, 0, 71, 54
2, 84050, Control_c, 0, 64, 127
2, 84138, Note_on_c, 0, 71, 0
2, 84173, Control_c, 0, 64, 0
2, 84206, Note_on_c, 0, 70, 61
2, 84210, Note_on_c, 0, 61, 57
2, 84245, Note_on_c, 0, 58, 42
2, 84324, Note_on_c, 0, 61, 0
2, 84338, Note_on_c, 0, 58, 0
2, 85132, Note_on_c, 0, 70, 0
2, 85137, Note_on_c, 0, 73, 60
2, 85355, Note_on_c, 0, 73, 0
2, 85519, Note_on_c, 0, 70, 52
2, 86037, Note_on_c, 0, 70, 0
2, 86058, Note_on_c, 0, 66, 65
2, 86084, Note_on_c, 0, 61, 40
2, 86191, Note_on_c, 0, 61, 0
2, 86837, Control_c, 0, 64, 127
2, 86987, Note_on_c, 0, 66, 0
2, 87020, Note_on_c, 0, 63, 76
2, 87031, Control_c, 0, 64, 0
2, 87264, Note_on_c, 0, 63, 0
2, 88970, Note_on_c, 0, 62, 85
2, 89187, Note_on_c, 0, 62, 0
2, 89317, Note_on_c, 0, 57, 60
2, 89516, Note_on_c, 0, 57, 0
2, 89592, Note_on_c, 0, 58, 57
2, 89750, Note_on_c, 0, 58, 0
2, 89893, Note_on_c, 0, 62, 80
2, 90104, Note_on_c, 0, 62, 0
2, 90204, Note_on_c, 0, 65, 74
2, 90401, Note_on_c, 0, 65, 0
2, 90534, Note_on_c, 0, 69, 74
2, 90704, Note_on_c, 0, 69, 0
2, 90847, Note_on_c, 0, 70, 78
2, 91070, Note_on_c, 0, 70, 0
2, 91176, Note_on_c, 0, 72, 64
2, 91373, Note_on_c, 0, 72, 0
2, 91457, Note_on_c, 0, 73, 50
2, 91741, Note_on_c, 0, 73, 0
2, 91752, Note_on_c, 0, 75, 56
2, 91892, Note_on_c, 0, 75, 0
2, 91896, Note_on_c, 0, 76, 47
2, 92084, Note_on_c, 0, 76, 0
2, 92109, Note_on_c, 0, 79, 85
2, 92357, Note_on_c, 0, 76, 64
2, 92830, Note_on_c, 0, 76, 0
2, 92836, Note_on_c, 0, 79, 0
2, 92976, Note_on_c, 0, 72, 55
2, 93084, Control_c, 0, 64, 127
2, 93154, Control_c, 0, 64, 0
2, 93455, Control_c, 0, 64, 127
2, 93596, Note_on_c, 0, 72, 0
2, 93645, Note_on_c, 0, 69, 55
2, 93651, Control_c, 0, 64, 0
2, 94055, Control_c, 0, 64, 127
2, 95877, Note_on_c, 0, 69, 0
2, 96896, Control_c, 0, 64, 0
2, 97408, Note_on_c, 0, 67, 64
2, 97485, Note_on_c, 0, 67, 0
2, 97679, Note_on_c, 0, 72, 73
2, 97901, Note_on_c, 0, 72, 0
2, 97971, Note_on_c, 0, 74, 87
2, 98038, Note_on_c, 0, 72, 33
2, 98117, Note_on_c, 0, 72, 0
2, 98286, Note_on_c, 0, 74, 0
2, 98561, Note_on_c, 0, 75, 85
2, 98818, Note_on_c, 0, 75, 0
2, 98921, Note_on_c, 0, 74, 57
2, 99353, Note_on_c, 0, 74, 0
2, 99509, Note_on_c, 0, 72, 60
2, 99606, Note_on_c, 0, 62, 40
2, 99705, Note_on_c, 0, 62, 0
2, 99710, Note_on_c, 0, 72, 0
2, 99881, Note_on_c, 0, 70, 57
2, 100291, Note_on_c, 0, 70, 0
2, 100421, Note_on_c, 0, 72, 47
2, 100520, Note_on_c, 0, 70, 37
2, 100669, Note_on_c, 0, 72, 0
2, 100740, Note_on_c, 0, 70, 0
2, 100757, Note_on_c, 0, 69, 47
2, 101269, Note_on_c, 0, 69, 0
2, 101416, Note_on_c, 0, 62, 58
2, 101417, Note_on_c, 0, 67, 60
2, 101449, Note_on_c, 0, 58, 29
2, 101493, Note_on_c, 0, 62, 0
2, 101525, Note_on_c, 0, 58, 0
2, 103373, Note_on_c, 0, 67, 0
2, 103388, Note_on_c, 0, 62, 45
2, 103598, Note_on_c, 0, 62, 0
2, 103770, Note_on_c, 0, 65, 53
2, 104230, Note_on_c, 0, 65, 0
2, 104370, Note_on_c, 0, 64, 64
2, 104377, Note_on_c, 0, 67, 84
2, 104394, Note_on_c, 0, 58, 49
2, 104548, Note_on_c, 0, 64, 0
2, 104629, Note_on_c, 0, 58, 0
2, 104659, Note_on_c, 0, 67, 0
2, 104729, Note_on_c, 0, 58, 36
2, 104754, Note_on_c, 0, 65, 69
2, 105006, Note_on_c, 0, 58, 0
2, 105129, Note_on_c, 0, 65, 0
2, 105259, Control_c, 0, 64, 127
2, 105347, Control_c, 0, 64, 0
2, 105379, Note_on_c, 0, 64, 63
2, 105384, Note_on_c, 0, 60, 50
2, 105441, Note_on_c, 0, 56, 25
2, 105592, Note_on_c, 0, 56, 0
2, 105807, Control_c, 0, 64, 127
2, 105824, Control_c, 0, 64, 0
2, 106002, Note_on_c, 0, 60, 0
2, 106141, Control_c, 0, 64, 127
2, 106194, Note_on_c, 0, 64, 0
2, 106321, Note_on_c, 0, 56, 38
2, 106326, Note_on_c, 0, 46, 45
2, 106328, Note_on_c, 0, 65, 68
2, 106342, Note_on_c, 0, 60, 35
2, 106444, Note_on_c, 0, 56, 0
2, 106460, Control_c, 0, 64, 0
2, 106500, Note_on_c, 0, 46, 0
2, 106530, Note_on_c, 0, 60, 0
2, 106613, Note_on_c, 0, 65, 0
2, 106680, Note_on_c, 0, 56, 30
2, 106685, Note_on_c, 0, 46, 36
2, 106717, Note_on_c, 0, 64, 50
2, 106829, Control_c, 0, 64, 127
2, 106859, Note_on_c, 0, 56, 0
2, 107115, Note_on_c, 0, 64, 0
2, 107128, Note_on_c, 0, 46, 0
2, 107271, Control_c, 0, 64, 0
2, 107285, Note_on_c, 0, 60, 45
2, 107327, Note_on_c, 0, 55, 48
2, 107354, Note_on_c, 0, 45, 37
2, 107678, Control_c, 0, 64, 127
2, 107991, Note_on_c, 0, 60, 0
2, 108109, Note_on_c, 0, 45, 0
2, 108271, Note_on_c, 0, 55, 0
2, 109494, Control_c, 0, 64, 0
2, 109670, Control_c, 0, 64, 127
2, 109971, Control_c, 0, 64, 0
2, 110078, Note_on_c, 0, 60, 62
2, 110084, Note_on_c, 0, 54, 68
2, 110089, Note_on_c, 0, 77, 85
2, 110090, Note_on_c, 0, 65, 78
2, 110092, Note_on_c, 0, 89, 91
2, 110134, Note_on_c, 0, 85, 59
2, 110446, Note_on_c, 0, 86, 62
2, 110465, Note_on_c, 0, 85, 0
2, 110476, Note_on_c, 0, 65, 0
2, 110486, Note_on_c, 0, 77, 0
2, 110508, Note_on_c, 0, 86, 0
2, 110513, Note_on_c, 0, 89, 0
2, 110531, Note_on_c, 0, 54, 0
2, 110557, Note_on_c, 0, 60, 0
2, 110747, Note_on_c, 0, 54, 47
2, 110750, Note_on_c, 0, 60, 41
2, 110757, Note_on_c, 0, 65, 68
2, 110766, Note_on_c, 0, 86, 68
2, 110780, Note_on_c, 0, 74, 69
2, 110844, Note_on_c, 0, 85, 29
2, 110904, Note_on_c, 0, 85, 0
2, 110999, Control_c, 0, 64, 127
2, 111036, Note_on_c, 0, 65, 0
2, 111065, Note_on_c, 0, 60, 0
2, 111069, Note_on_c, 0, 86, 0
2, 111161, Note_on_c, 0, 74, 0
2, 111226, Note_on_c, 0, 54, 0
2, 111317, Control_c, 0, 64, 0
2, 111381, Note_on_c, 0, 72, 59
2, 111396, Note_on_c, 0, 84, 58
2, 111398, Note_on_c, 0, 80, 53
2, 111402, Note_on_c, 0, 62, 64
2, 111434, Note_on_c, 0, 53, 36
2, 111439, Note_on_c, 0, 57, 46
2, 111442, Note_on_c, 0, 58, 49
2, 111780, Note_on_c, 0, 80, 0
2, 111870, Note_on_c, 0, 72, 0
2, 111944, Note_on_c, 0, 84, 0
2, 111958, Note_on_c, 0, 53, 0
2, 112033, Note_on_c, 0, 58, 0
2, 112044, Note_on_c, 0, 57, 0
2, 112065, Note_on_c, 0, 72, 24
2, 112067, Note_on_c, 0, 62, 0
2, 112144, Note_on_c, 0, 72, 0
2, 113855, Note_on_c, 0, 69, 72
2, 113862, Note_on_c, 0, 73, 51
2, 113873, Note_on_c, 0, 70, 65
2, 113876, Note_on_c, 0, 81, 62
2, 113969, Note_on_c, 0, 76, 24
2, 114073, Note_on_c, 0, 69, 0
2, 114095, Note_on_c, 0, 81, 0
2, 114128, Note_on_c, 0, 76, 0
2, 114137, Note_on_c, 0, 70, 0
2, 114163, Note_on_c, 0, 73, 0
2, 114237, Note_on_c, 0, 79, 27
2, 114245, Note_on_c, 0, 67, 41
2, 114334, Note_on_c, 0, 79, 0
2, 114557, Note_on_c, 0, 67, 0
2, 115196, Note_on_c, 0, 69, 63
2, 115198, Note_on_c, 0, 77, 57
2, 115205, Note_on_c, 0, 72, 55
2, 115251, Note_on_c, 0, 74, 39
2, 115333, Note_on_c, 0, 69, 0
2, 115362, Note_on_c, 0, 74, 0
2, 115427, Note_on_c, 0, 77, 0
2, 115429, Note_on_c, 0, 72, 0
2, 116794, Note_on_c, 0, 48, 68
2, 116810, Note_on_c, 0, 62, 89
2, 116839, Note_on_c, 0, 47, 50
2, 116896, Note_on_c, 0, 47, 0
2, 117078, Note_on_c, 0, 62, 0
2, 117227, Note_on_c, 0, 60, 46
2, 117678, Note_on_c, 0, 60, 0
2, 117799, Note_on_c, 0, 62, 71
2, 117993, Note_on_c, 0, 62, 0
2, 118115, Note_on_c, 0, 60, 26
2, 118655, Note_on_c, 0, 60, 0
2, 118737, Note_on_c, 0, 47, 43
2, 118926, Note_on_c, 0, 47, 0
2, 118929, Note_on_c, 0, 48, 0
2, 119600, Note_on_c, 0, 63, 80
2, 119638, Note_on_c, 0, 48, 60
2, 119922, Note_on_c, 0, 63, 0
2, 120056, Note_on_c, 0, 61, 27
2, 120550, Note_on_c, 0, 61, 0
2, 120562, Note_on_c, 0, 46, 32
2, 120584, Note_on_c, 0, 63, 72
2, 120709, Note_on_c, 0, 46, 0
2, 120821, Note_on_c, 0, 63, 0
2, 120944, Note_on_c, 0, 62, 55
2, 121536, Note_on_c, 0, 63, 71
2, 121545, Note_on_c, 0, 46, 44
2, 121583, Note_on_c, 0, 62, 0
2, 121684, Note_on_c, 0, 48, 0
2, 121726, Note_on_c, 0, 46, 0
2, 121842, Note_on_c, 0, 63, 0
2, 121944, Note_on_c, 0, 64, 60
2, 122412, Note_on_c, 0, 64, 0
2, 122520, Note_on_c, 0, 67, 83
2, 122578, Note_on_c, 0, 60, 34
2, 122581, Note_on_c, 0, 57, 50
2, 122676, Note_on_c, 0, 57, 0
2, 122680, Note_on_c, 0, 60, 0
2, 122792, Note_on_c, 0, 67, 0
2, 122925, Note_on_c, 0, 64, 61
2, 123361, Note_on_c, 0, 64, 0
2, 123477, Note_on_c, 0, 65, 68
2, 123537, Note_on_c, 0, 57, 34
2, 123620, Note_on_c, 0, 57, 0
2, 123632, Note_on_c, 0, 65, 0
2, 123792, Note_on_c, 0, 69, 63
2, 124325, Control_c, 0, 64, 127
2, 124336, Note_on_c, 0, 69, 0
2, 124447, Note_on_c, 0, 72, 64
2, 124566, Note_on_c, 0, 72, 0
2, 124572, Control_c, 0, 64, 0
2, 124804, Note_on_c, 0, 74, 22
2, 125013, Note_on_c, 0, 75, 33
2, 125163, Note_on_c, 0, 76, 59
2, 125181, Note_on_c, 0, 75, 0
2, 125218, Note_on_c, 0, 74, 0
2, 125353, Note_on_c, 0, 76, 0
2, 125455, Note_on_c, 0, 79, 88
2, 125707, Note_on_c, 0, 79, 0
2, 125754, Note_on_c, 0, 74, 64
2, 125776, Note_on_c, 0, 79, 44
2, 126300, Note_on_c, 0, 74, 0
2, 126339, Note_on_c, 0, 79, 0
2, 126367, Note_on_c, 0, 72, 63
2, 126971, Note_on_c, 0, 72, 0
2, 127085, Note_on_c, 0, 72, 72
2, 127525, Note_on_c, 0, 72, 0
2, 127675, Note_on_c, 0, 69, 66
2, 128227, Note_on_c, 0, 69, 0
2, 128361, Note_on_c, 0, 64, 43
2, 128757, Note_on_c, 0, 64, 0
2, 128893, Note_on_c, 0, 66, 53
2, 130246, Note_on_c, 0, 62, 54
2, 130290, Note_on_c, 0, 66, 0
2, 130547, Note_on_c, 0, 62, 0
2, 130631, Note_on_c, 0, 58, 52
2, 132414, Note_on_c, 0, 58, 0
2, 132772, Note_on_c, 0, 42, 43
2, 132784, Note_on_c, 0, 54, 37
2, 132939, Note_on_c, 0, 54, 0
2, 132956, Note_on_c, 0, 42, 0
2, 133034, Note_on_c, 0, 57, 68
2, 133053, Note_on_c, 0, 45, 51
2, 133197, Note_on_c, 0, 45, 0
2, 133234, Note_on_c, 0, 57, 0
2, 133243, Note_on_c, 0, 42, 44
2, 133282, Note_on_c, 0, 54, 51
2, 133437, Note_on_c, 0, 54, 0
2, 133484, Note_on_c, 0, 42, 0
2, 133546, Note_on_c, 0, 55, 43
2, 133608, Note_on_c, 0, 45, 37
2, 133654, Note_on_c, 0, 55, 0
2, 133727, Note_on_c, 0, 45, 0
2, 133778, Note_on_c, 0, 57, 70
2, 133835, Note_on_c, 0, 46, 51
2, 133972, Note_on_c, 0, 57, 0
2, 133982, Note_on_c, 0, 46, 0
2, 134026, Note_on_c, 0, 58, 47
2, 134102, Note_on_c, 0, 58, 0
2, 134104, Note_on_c, 0, 48, 35
2, 134174, Note_on_c, 0, 48, 0
2, 134225, Note_on_c, 0, 62, 62
2, 134361, Note_on_c, 0, 62, 0
2, 134414, Note_on_c, 0, 66, 67
2, 134429, Note_on_c, 0, 54, 34
2, 134591, Note_on_c, 0, 66, 0
2, 134611, Note_on_c, 0, 54, 0
2, 134683, Note_on_c, 0, 69, 72
2, 134685, Note_on_c, 0, 57, 50
2, 134877, Note_on_c, 0, 57, 0
2, 134887, Note_on_c, 0, 69, 0
2, 134915, Note_on_c, 0, 66, 67
2, 134940, Note_on_c, 0, 54, 30
2, 135026, Note_on_c, 0, 54, 0
2, 135067, Note_on_c, 0, 66, 0
2, 135165, Note_on_c, 0, 55, 25
2, 135167, Note_on_c, 0, 67, 61
2, 135275, Note_on_c, 0, 67, 0
2, 135331, Note_on_c, 0, 55, 0
2, 135390, Note_on_c, 0, 69, 53
2, 135394, Note_on_c, 0, 57, 41
2, 135500, Note_on_c, 0, 69, 0
2, 135519, Note_on_c, 0, 57, 0
2, 135665, Note_on_c, 0, 58, 42
2, 135693, Note_on_c, 0, 70, 38
2, 135794, Note_on_c, 0, 70, 0
2, 135845, Note_on_c, 0, 58, 0
2, 135918, Note_on_c, 0, 72, 68
2, 135941, Note_on_c, 0, 60, 59
2, 136054, Note_on_c, 0, 72, 0
2, 136080, Note_on_c, 0, 60, 0
2, 136232, Note_on_c, 0, 73, 48
2, 136253, Note_on_c, 0, 61, 55
2, 136367, Note_on_c, 0, 73, 0
2, 136417, Note_on_c, 0, 61, 0
2, 136550, Note_on_c, 0, 75, 62
2, 136617, Note_on_c, 0, 63, 40
2, 136702, Note_on_c, 0, 75, 0
2, 136821, Note_on_c, 0, 63, 0
2, 136865, Note_on_c, 0, 76, 73
2, 136918, Note_on_c, 0, 64, 57
2, 137050, Note_on_c, 0, 76, 0
2, 137080, Note_on_c, 0, 64, 0
2, 137198, Note_on_c, 0, 66, 52
2, 137201, Note_on_c, 0, 78, 56
2, 137339, Note_on_c, 0, 78, 0
2, 137346, Note_on_c, 0, 66, 0
2, 137511, Note_on_c, 0, 79, 61
2, 137666, Note_on_c, 0, 79, 0
2, 137834, Note_on_c, 0, 82, 70
2, 137999, Note_on_c, 0, 82, 0
2, 138171, Note_on_c, 0, 83, 67
2, 138184, Note_on_c, 0, 60, 22
2, 138272, Note_on_c, 0, 60, 0
2, 138330, Note_on_c, 0, 83, 0
2, 138492, Note_on_c, 0, 86, 84
2, 138514, Note_on_c, 0, 74, 60
2, 138532, Note_on_c, 0, 76, 78
2, 138592, Note_on_c, 0, 76, 0
2, 138919, Note_on_c, 0, 86, 0
2, 138970, Note_on_c, 0, 74, 0
2, 139150, Note_on_c, 0, 86, 80
2, 139160, Note_on_c, 0, 74, 63
2, 139430, Control_c, 0, 64, 127
2, 139449, Note_on_c, 0, 86, 0
2, 139553, Note_on_c, 0, 74, 0
2, 139773, Note_on_c, 0, 84, 73
2, 139789, Note_on_c, 0, 72, 56
2, 139799, Control_c, 0, 64, 0
2, 139803, Note_on_c, 0, 64, 43
2, 139822, Note_on_c, 0, 57, 35
2, 139847, Note_on_c, 0, 60, 27
2, 139877, Note_on_c, 0, 64, 0
2, 139956, Note_on_c, 0, 72, 0
2, 139990, Note_on_c, 0, 60, 0
2, 139993, Note_on_c, 0, 84, 0
2, 140077, Note_on_c, 0, 57, 0
2, 140248, Note_on_c, 0, 85, 50
2, 140303, Note_on_c, 0, 73, 44
2, 140443, Note_on_c, 0, 85, 0
2, 140556, Note_on_c, 0, 73, 0
2, 140619, Note_on_c, 0, 74, 26
2, 140711, Note_on_c, 0, 74, 0
2, 140748, Note_on_c, 0, 86, 59
2, 140956, Note_on_c, 0, 74, 33
2, 140971, Note_on_c, 0, 86, 0
2, 140985, Note_on_c, 0, 64, 32
2, 141065, Note_on_c, 0, 74, 0
2, 141066, Note_on_c, 0, 64, 0
2, 141160, Note_on_c, 0, 84, 54
2, 141234, Note_on_c, 0, 72, 54
2, 141605, Note_on_c, 0, 84, 0
2, 141658, Note_on_c, 0, 72, 0
2, 141670, Control_c, 0, 64, 127
2, 141846, Control_c, 0, 64, 0
2, 141848, Note_on_c, 0, 60, 54
2, 141873, Note_on_c, 0, 50, 44
2, 141948, Note_on_c, 0, 50, 0
2, 141989, Note_on_c, 0, 60, 0
2, 142737, Note_on_c, 0, 64, 67
2, 142738, Note_on_c, 0, 76, 71
2, 142740, Note_on_c, 0, 69, 73
2, 142742, Note_on_c, 0, 65, 78
2, 142765, Note_on_c, 0, 72, 42
2, 142920, Note_on_c, 0, 65, 0
2, 142925, Note_on_c, 0, 64, 0
2, 142934, Note_on_c, 0, 69, 0
2, 142959, Note_on_c, 0, 72, 0
2, 142992, Note_on_c, 0, 76, 0
2, 143082, Note_on_c, 0, 62, 56
2, 143655, Note_on_c, 0, 61, 52
2, 143687, Note_on_c, 0, 62, 0
2, 143853, Note_on_c, 0, 61, 0
2, 143969, Note_on_c, 0, 60, 34
2, 143976, Note_on_c, 0, 72, 44
2, 143997, Note_on_c, 0, 65, 43
2, 144014, Note_on_c, 0, 69, 42
2, 144298, Note_on_c, 0, 69, 0
2, 144423, Note_on_c, 0, 65, 0
2, 144546, Control_c, 0, 64, 127
2, 144548, Note_on_c, 0, 60, 0
2, 144794, Control_c, 0, 64, 0
2, 144903, Note_on_c, 0, 72, 0
2, 144932, Note_on_c, 0, 62, 35
2, 144933, Note_on_c, 0, 69, 42
2, 144953, Note_on_c, 0, 65, 38
2, 145076, Control_c, 0, 64, 127
2, 145336, Note_on_c, 0, 62, 0
2, 145385, Note_on_c, 0, 72, 13
2, 145482, Note_on_c, 0, 69, 0
2, 145484, Note_on_c, 0, 65, 0
2, 145570, Note_on_c, 0, 72, 0
2, 145834, Control_c, 0, 64, 0
2, 145884, Note_on_c, 0, 63, 34
2, 145903, Note_on_c, 0, 59, 42
2, 145908, Note_on_c, 0, 53, 36
2, 145933, Note_on_c, 0, 70, 67
2, 146149, Note_on_c, 0, 70, 0
2, 146195, Note_on_c, 0, 67, 43
2, 146348, Note_on_c, 0, 67, 0
2, 146450, Note_on_c, 0, 68, 46
2, 146623, Note_on_c, 0, 68, 0
2, 146737, Note_on_c, 0, 70, 47
2, 146866, Note_on_c, 0, 70, 0
2, 147003, Note_on_c, 0, 71, 40
2, 147244, Note_on_c, 0, 71, 0
2, 147506, Note_on_c, 0, 73, 63
2, 147696, Note_on_c, 0, 73, 0
2, 147798, Note_on_c, 0, 53, 0
2, 147893, Note_on_c, 0, 75, 56
2, 147969, Note_on_c, 0, 63, 0
2, 147976, Note_on_c, 0, 59, 0
2, 148041, Note_on_c, 0, 75, 0
2, 148184, Note_on_c, 0, 77, 55
2, 148316, Note_on_c, 0, 77, 0
2, 148485, Note_on_c, 0, 79, 76
2, 148492, Note_on_c, 0, 63, 48
2, 148501, Note_on_c, 0, 59, 51
2, 148527, Note_on_c, 0, 53, 39
2, 148671, Note_on_c, 0, 79, 0
2, 148719, Note_on_c, 0, 53, 0
2, 148772, Note_on_c, 0, 59, 0
2, 148796, Note_on_c, 0, 63, 0
2, 148870, Note_on_c, 0, 80, 50
2, 149013, Note_on_c, 0, 80, 0
2, 149187, Note_on_c, 0, 82, 55
2, 149347, Note_on_c, 0, 82, 0
2, 149490, Note_on_c, 0, 83, 71
2, 149657, Note_on_c, 0, 83, 0
2, 149833, Note_on_c, 0, 84, 64
2, 149951, Note_on_c, 0, 84, 0
2, 150150, Note_on_c, 0, 85, 71
2, 150287, Note_on_c, 0, 85, 0
2, 150447, Note_on_c, 0, 86, 87
2, 150465, Note_on_c, 0, 62, 54
2, 150488, Note_on_c, 0, 57, 38
2, 150489, Note_on_c, 0, 58, 38
2, 150618, Note_on_c, 0, 62, 0
2, 150651, Note_on_c, 0, 86, 0
2, 150657, Note_on_c, 0, 57, 0
2, 150713, Note_on_c, 0, 58, 0
2, 150755, Note_on_c, 0, 89, 85
2, 150762, Note_on_c, 0, 77, 75
2, 151197, Note_on_c, 0, 89, 0
2, 151264, Note_on_c, 0, 77, 0
2, 151377, Note_on_c, 0, 89, 75
2, 151387, Note_on_c, 0, 77, 74
2, 151611, Note_on_c, 0, 77, 0
2, 151630, Note_on_c, 0, 89, 0
2, 152312, Note_on_c, 0, 89, 74
2, 152315, Note_on_c, 0, 62, 63
2, 152330, Note_on_c, 0, 77, 76
2, 152348, Note_on_c, 0, 58, 34
2, 152357, Note_on_c, 0, 86, 60
2, 152381, Control_c, 0, 64, 127
2, 152417, Note_on_c, 0, 86, 0
2, 152477, Note_on_c, 0, 62, 0
2, 152485, Note_on_c, 0, 58, 0
2, 152498, Note_on_c, 0, 89, 0
2, 152508, Note_on_c, 0, 77, 0
2, 152522, Control_c, 0, 64, 0
2, 152672, Note_on_c, 0, 64, 57
2, 152679, Note_on_c, 0, 88, 73
2, 152691, Note_on_c, 0, 76, 73
2, 152709, Note_on_c, 0, 85, 55
2, 152712, Note_on_c, 0, 61, 37
2, 152716, Note_on_c, 0, 58, 28
2, 153103, Note_on_c, 0, 76, 0
2, 153130, Note_on_c, 0, 85, 0
2, 153140, Note_on_c, 0, 88, 0
2, 153158, Control_c, 0, 64, 127
2, 153256, Note_on_c, 0, 64, 0
2, 153355, Note_on_c, 0, 61, 0
2, 153376, Note_on_c, 0, 58, 0
2, 153527, Control_c, 0, 64, 0
2, 153601, Note_on_c, 0, 67, 77
2, 153605, Note_on_c, 0, 57, 64
2, 153617, Note_on_c, 0, 91, 81
2, 153622, Note_on_c, 0, 79, 81
2, 153624, Note_on_c, 0, 84, 83
2, 153626, Note_on_c, 0, 88, 78
2, 153629, Note_on_c, 0, 62, 44
2, 153922, Note_on_c, 0, 88, 0
2, 153934, Control_c, 0, 64, 127
2, 153952, Note_on_c, 0, 91, 0
2, 153972, Note_on_c, 0, 84, 0
2, 154045, Note_on_c, 0, 79, 0
2, 154194, Note_on_c, 0, 62, 0
2, 154200, Note_on_c, 0, 57, 0
2, 154251, Note_on_c, 0, 67, 0
2, 154358, Control_c, 0, 64, 0
2, 154532, Note_on_c, 0, 88, 61
2, 154534, Note_on_c, 0, 67, 61
2, 154543, Note_on_c, 0, 57, 51
2, 154544, Note_on_c, 0, 84, 59
2, 154554, Note_on_c, 0, 76, 59
2, 154555, Note_on_c, 0, 81, 50
2, 154557, Note_on_c, 0, 62, 58
2, 154610, Control_c, 0, 64, 127
2, 154699, Note_on_c, 0, 67, 0
2, 154754, Note_on_c, 0, 84, 0
2, 154765, Note_on_c, 0, 57, 0
2, 154787, Note_on_c, 0, 62, 0
2, 154789, Note_on_c, 0, 88, 0
2, 154817, Note_on_c, 0, 81, 0
2, 154902, Note_on_c, 0, 76, 0
2, 155474, Control_c, 0, 64, 0
2, 155487, Note_on_c, 0, 76, 68
2, 155504, Note_on_c, 0, 84, 65
2, 155511, Note_on_c, 0, 67, 67
2, 155512, Note_on_c, 0, 79, 50
2, 155514, Note_on_c, 0, 72, 60
2, 155522, Note_on_c, 0, 62, 64
2, 155530, Note_on_c, 0, 56, 55
2, 156077, Control_c, 0, 64, 127
2, 156468, Note_on_c, 0, 67, 0
2, 156475, Note_on_c, 0, 62, 0
2, 156507, Note_on_c, 0, 84, 0
2, 156607, Note_on_c, 0, 56, 0
2, 156644, Note_on_c, 0, 79, 0
2, 156658, Note_on_c, 0, 72, 0
2, 156676, Note_on_c, 0, 76, 0
2, 157295, Control_c, 0, 64, 0
2, 157387, Note_on_c, 0, 64, 44
2, 157408, Note_on_c, 0, 79, 37
2, 157410, Note_on_c, 0, 57, 33
2, 157413, Note_on_c, 0, 67, 49
2, 157417, Note_on_c, 0, 72, 39
2, 157428, Note_on_c, 0, 60, 36
2, 157429, Note_on_c, 0, 76, 44
2, 157691, Note_on_c, 0, 60, 0
2, 157746, Note_on_c, 0, 67, 0
2, 157748, Note_on_c, 0, 64, 0
2, 157749, Note_on_c, 0, 79, 0
2, 157753, Note_on_c, 0, 76, 0
2, 157792, Note_on_c, 0, 72, 0
2, 157850, Note_on_c, 0, 57, 0
2, 160006, Note_on_c, 0, 66, 91
2, 160008, Note_on_c, 0, 72, 75
2, 160062, Note_on_c, 0, 60, 44
2, 160103, Note_on_c, 0, 57, 37
2, 160148, Note_on_c, 0, 60, 0
2, 160185, Note_on_c, 0, 57, 0
2, 160270, Note_on_c, 0, 72, 0
2, 160349, Note_on_c, 0, 66, 0
2, 160377, Note_on_c, 0, 65, 55
2, 160550, Note_on_c, 0, 65, 0
2, 160721, Note_on_c, 0, 63, 36
2, 160990, Note_on_c, 0, 60, 32
2, 161056, Note_on_c, 0, 63, 0
2, 161264, Note_on_c, 0, 60, 0
2, 161343, Note_on_c, 0, 61, 49
2, 161553, Note_on_c, 0, 61, 0
2, 161592, Note_on_c, 0, 62, 62
2, 161965, Note_on_c, 0, 50, 39
2, 161968, Note_on_c, 0, 62, 0
2, 162102, Note_on_c, 0, 50, 0
2, 162178, Note_on_c, 0, 65, 101
2, 162997, Note_on_c, 0, 50, 24
2, 163110, Note_on_c, 0, 50, 0
2, 163818, Note_on_c, 0, 53, 53
2, 163864, Note_on_c, 0, 50, 48
2, 163894, Note_on_c, 0, 53, 0
2, 163927, Note_on_c, 0, 50, 0
2, 163968, Note_on_c, 0, 65, 0
2, 164078, Note_on_c, 0, 60, 26
2, 164138, Note_on_c, 0, 61, 42
2, 164276, Note_on_c, 0, 60, 0
2, 164381, Note_on_c, 0, 61, 0
2, 164432, Note_on_c, 0, 62, 38
2, 164680, Note_on_c, 0, 62, 0
2, 164788, Note_on_c, 0, 65, 96
2, 165126, Note_on_c, 0, 65, 0
2, 165358, Note_on_c, 0, 65, 85
2, 165818, Note_on_c, 0, 57, 34
2, 165867, Note_on_c, 0, 55, 36
2, 165888, Note_on_c, 0, 57, 0
2, 165900, Note_on_c, 0, 65, 0
2, 165944, Note_on_c, 0, 55, 0
2, 166092, Note_on_c, 0, 62, 63
2, 166597, Note_on_c, 0, 62, 0
2, 166724, Note_on_c, 0, 65, 91
2, 167009, Note_on_c, 0, 65, 0
2, 167134, Note_on_c, 0, 64, 75
2, 167562, Note_on_c, 0, 64, 0
2, 167683, Note_on_c, 0, 62, 79
2, 167979, Note_on_c, 0, 62, 0
2, 168105, Note_on_c, 0, 60, 24
2, 168514, Note_on_c, 0, 60, 0
2, 168661, Note_on_c, 0, 58, 60
2, 168936, Note_on_c, 0, 58, 0
2, 169052, Note_on_c, 0, 57, 46
2, 169517, Note_on_c, 0, 57, 0
2, 169642, Note_on_c, 0, 58, 38
2, 169798, Note_on_c, 0, 58, 0
2, 169934, Note_on_c, 0, 60, 37
2, 170599, Note_on_c, 0, 60, 0
2, 170876, Note_on_c, 0, 60, 46
2, 171486, Note_on_c, 0, 60, 0
2, 172495, Note_on_c, 0, 50, 48
2, 172576, Note_on_c, 0, 50, 0
2, 173737, Note_on_c, 0, 79, 74
2, 173746, Note_on_c, 0, 72, 77
2, 173753, Note_on_c, 0, 64, 72
2, 173755, Note_on_c, 0, 69, 80
2, 173757, Note_on_c, 0, 76, 62
2, 174271, Note_on_c, 0, 79, 0
2, 174274, Note_on_c, 0, 69, 0
2, 174301, Note_on_c, 0, 76, 0
2, 174308, Note_on_c, 0, 72, 0
2, 174440, Note_on_c, 0, 72, 61
2, 174443, Note_on_c, 0, 77, 66
2, 174459, Note_on_c, 0, 69, 62
2, 174461, Note_on_c, 0, 64, 0
2, 174484, Note_on_c, 0, 62, 66
2, 175121, Control_c, 0, 64, 127
2, 175378, Note_on_c, 0, 69, 0
2, 175439, Control_c, 0, 64, 0
2, 175446, Note_on_c, 0, 72, 0
2, 175555, Note_on_c, 0, 62, 0
2, 175620, Note_on_c, 0, 77, 0
2, 175698, Note_on_c, 0, 60, 38
2, 175703, Note_on_c, 0, 69, 52
2, 175717, Note_on_c, 0, 72, 40
2, 175728, Note_on_c, 0, 76, 37
2, 175904, Note_on_c, 0, 69, 0
2, 175909, Note_on_c, 0, 76, 0
2, 175958, Note_on_c, 0, 72, 0
2, 176002, Control_c, 0, 64, 127
2, 176244, Note_on_c, 0, 60, 0
2, 176286, Control_c, 0, 64, 0
2, 176337, Note_on_c, 0, 75, 70
2, 176346, Note_on_c, 0, 70, 72
2, 176363, Note_on_c, 0, 67, 64
2, 176372, Note_on_c, 0, 58, 57
2, 176710, Control_c, 0, 64, 127
2, 176927, Note_on_c, 0, 75, 0
2, 176992, Note_on_c, 0, 70, 0
2, 177060, Note_on_c, 0, 67, 0
2, 177416, Control_c, 0, 64, 0
2, 177542, Note_on_c, 0, 58, 0
2, 177576, Note_on_c, 0, 74, 46
2, 177586, Note_on_c, 0, 63, 45
2, 177611, Note_on_c, 0, 57, 37
2, 177613, Note_on_c, 0, 67, 50
2, 177616, Note_on_c, 0, 70, 42
2, 177942, Note_on_c, 0, 67, 0
2, 177963, Control_c, 0, 64, 127
2, 178002, Note_on_c, 0, 70, 0
2, 178026, Note_on_c, 0, 74, 0
2, 178065, Note_on_c, 0, 63, 0
2, 178169, Note_on_c, 0, 57, 0
2, 178174, Control_c, 0, 64, 0
2, 178255, Note_on_c, 0, 63, 44
2, 178257, Note_on_c, 0, 72, 46
2, 178264, Note_on_c, 0, 67, 60
2, 178317, Note_on_c, 0, 55, 40
2, 179109, Control_c, 0, 64, 127
2, 179302, Note_on_c, 0, 55, 0
2, 179440, Note_on_c, 0, 67, 0
2, 179586, Note_on_c, 0, 63, 0
2, 179658, Note_on_c, 0, 72, 0
2, 180133, Control_c, 0, 64, 0
2, 180219, Note_on_c, 0, 66, 30
2, 180223, Note_on_c, 0, 62, 40
2, 180232, Note_on_c, 0, 57, 44
2, 180249, Note_on_c, 0, 69, 39
2, 180255, Note_on_c, 0, 51, 33
2, 180431, Note_on_c, 0, 62, 0
2, 180459, Note_on_c, 0, 57, 0
2, 180485, Note_on_c, 0, 51, 0
2, 180531, Note_on_c, 0, 69, 0
2, 180538, Control_c, 0, 64, 127
2, 180548, Note_on_c, 0, 66, 0
2, 181421, Control_c, 0, 64, 0
2, 181508, Note_on_c, 0, 61, 62
2, 181524, Note_on_c, 0, 85, 71
2, 181742, Note_on_c, 0, 85, 0
2, 181812, Note_on_c, 0, 61, 0
2, 181832, Note_on_c, 0, 86, 70
2, 181833, Note_on_c, 0, 62, 60
2, 181999, Note_on_c, 0, 86, 0
2, 182015, Note_on_c, 0, 62, 0
2, 182127, Note_on_c, 0, 62, 62
2, 182131, Note_on_c, 0, 86, 71
2, 182337, Note_on_c, 0, 86, 0
2, 182338, Note_on_c, 0, 62, 0
2, 182462, Note_on_c, 0, 61, 50
2, 182488, Note_on_c, 0, 85, 43
2, 182648, Note_on_c, 0, 85, 0
2, 182752, Note_on_c, 0, 61, 0
2, 182770, Note_on_c, 0, 86, 57
2, 182822, Note_on_c, 0, 62, 57
2, 182924, Note_on_c, 0, 86, 0
2, 182997, Note_on_c, 0, 62, 0
2, 183058, Note_on_c, 0, 86, 75
2, 183062, Note_on_c, 0, 62, 54
2, 183273, Note_on_c, 0, 86, 0
2, 183344, Note_on_c, 0, 62, 0
2, 183347, Note_on_c, 0, 61, 55
2, 183349, Note_on_c, 0, 85, 51
2, 183505, Note_on_c, 0, 85, 0
2, 183648, Note_on_c, 0, 86, 68
2, 183664, Note_on_c, 0, 61, 0
2, 183718, Note_on_c, 0, 62, 43
2, 183797, Note_on_c, 0, 62, 0
2, 183803, Note_on_c, 0, 86, 0
2, 183928, Note_on_c, 0, 86, 71
2, 183954, Note_on_c, 0, 62, 48
2, 184016, Control_c, 0, 64, 127
2, 184039, Note_on_c, 0, 62, 0
2, 184139, Control_c, 0, 64, 0
2, 184153, Note_on_c, 0, 86, 0
2, 184278, Note_on_c, 0, 65, 53
2, 184296, Note_on_c, 0, 84, 66
2, 184325, Note_on_c, 0, 60, 33
2, 184329, Note_on_c, 0, 62, 34
2, 184500, Note_on_c, 0, 65, 0
2, 184561, Control_c, 0, 64, 127
2, 184653, Note_on_c, 0, 84, 0
2, 185197, Control_c, 0, 64, 0
2, 185241, Note_on_c, 0, 53, 40
2, 185276, Note_on_c, 0, 69, 69
2, 185366, Note_on_c, 0, 69, 0
2, 185443, Note_on_c, 0, 62, 0
2, 185510, Note_on_c, 0, 70, 61
2, 185584, Note_on_c, 0, 60, 0
2, 185691, Note_on_c, 0, 70, 0
2, 185763, Note_on_c, 0, 74, 53
2, 185955, Control_c, 0, 64, 127
2, 185985, Note_on_c, 0, 77, 54
2, 185996, Note_on_c, 0, 74, 0
2, 186066, Note_on_c, 0, 77, 0
2, 186085, Note_on_c, 0, 62, 37
2, 186131, Control_c, 0, 64, 0
2, 186163, Note_on_c, 0, 60, 22
2, 186177, Note_on_c, 0, 73, 46
2, 186253, Note_on_c, 0, 53, 0
2, 186265, Note_on_c, 0, 60, 0
2, 186311, Note_on_c, 0, 62, 0
2, 186353, Note_on_c, 0, 73, 0
2, 186378, Note_on_c, 0, 74, 49
2, 186606, Note_on_c, 0, 77, 38
2, 186668, Note_on_c, 0, 74, 0
2, 186830, Note_on_c, 0, 77, 0
2, 186839, Control_c, 0, 64, 127
2, 186951, Note_on_c, 0, 81, 41
2, 186990, Note_on_c, 0, 65, 29
2, 187033, Control_c, 0, 64, 0
2, 187034, Note_on_c, 0, 81, 0
2, 187036, Note_on_c, 0, 62, 27
2, 187070, Note_on_c, 0, 65, 0
2, 187180, Note_on_c, 0, 77, 34
2, 187284, Note_on_c, 0, 62, 0
2, 187393, Note_on_c, 0, 78, 52
2, 187405, Note_on_c, 0, 77, 0
2, 187437, Control_c, 0, 64, 127
2, 187652, Note_on_c, 0, 82, 59
2, 187668, Note_on_c, 0, 78, 0
2, 187905, Note_on_c, 0, 85, 49
2, 187907, Note_on_c, 0, 82, 0
2, 187949, Note_on_c, 0, 62, 24
2, 187995, Note_on_c, 0, 85, 0
2, 188037, Control_c, 0, 64, 0
2, 188039, Note_on_c, 0, 62, 0
2, 188060, Note_on_c, 0, 60, 20
2, 188146, Note_on_c, 0, 60, 0
2, 188226, Note_on_c, 0, 81, 17
2, 188377, Note_on_c, 0, 82, 46
2, 188386, Note_on_c, 0, 81, 0
2, 188650, Note_on_c, 0, 82, 0
2, 188667, Note_on_c, 0, 86, 63
2, 188884, Note_on_c, 0, 86, 0
2, 188916, Note_on_c, 0, 89, 59
2, 188991, Note_on_c, 0, 63, 46
2, 189021, Note_on_c, 0, 54, 31
2, 189056, Note_on_c, 0, 59, 38
2, 189063, Note_on_c, 0, 89, 0
2, 189447, Note_on_c, 0, 58, 1
2, 190021, Note_on_c, 0, 85, 76
2, 190109, Note_on_c, 0, 63, 0
2, 190177, Note_on_c, 0, 85, 0
2, 190264, Note_on_c, 0, 86, 68
2, 190302, Note_on_c, 0, 87, 31
2, 190324, Note_on_c, 0, 54, 0
2, 190368, Control_c, 0, 64, 127
2, 190396, Note_on_c, 0, 58, 0
2, 190410, Note_on_c, 0, 87, 0
2, 190415, Note_on_c, 0, 59, 0
2, 190466, Note_on_c, 0, 86, 0
2, 190507, Note_on_c, 0, 90, 64
2, 190781, Note_on_c, 0, 93, 78
2, 190898, Control_c, 0, 64, 0
2, 190903, Note_on_c, 0, 90, 0
2, 190906, Note_on_c, 0, 63, 58
2, 190947, Note_on_c, 0, 93, 0
2, 190984, Note_on_c, 0, 59, 34
2, 191131, Note_on_c, 0, 89, 55
2, 191302, Control_c, 0, 64, 127
2, 191346, Note_on_c, 0, 59, 0
2, 191353, Note_on_c, 0, 89, 0
2, 191378, Note_on_c, 0, 90, 52
2, 191381, Note_on_c, 0, 63, 0
2, 191647, Note_on_c, 0, 94, 60
2, 191721, Note_on_c, 0, 90, 0
2, 191827, Note_on_c, 0, 94, 0
2, 191862, Note_on_c, 0, 97, 104
2, 191937, Control_c, 0, 64, 0
2, 192017, Note_on_c, 0, 61, 36
2, 192047, Note_on_c, 0, 58, 39
2, 192069, Note_on_c, 0, 51, 49
2, 192129, Note_on_c, 0, 56, 19
2, 192142, Note_on_c, 0, 94, 62
2, 192538, Note_on_c, 0, 97, 0
2, 192627, Note_on_c, 0, 94, 0
2, 192965, Note_on_c, 0, 90, 79
2, 193094, Note_on_c, 0, 61, 0
2, 193120, Note_on_c, 0, 56, 0
2, 193150, Note_on_c, 0, 90, 0
2, 193182, Note_on_c, 0, 58, 0
2, 193233, Note_on_c, 0, 94, 74
2, 193502, Note_on_c, 0, 90, 71
2, 193557, Note_on_c, 0, 94, 0
2, 193796, Note_on_c, 0, 90, 0
2, 193829, Note_on_c, 0, 89, 72
2, 193840, Note_on_c, 0, 61, 50
2, 193863, Note_on_c, 0, 58, 38
2, 194115, Note_on_c, 0, 89, 0
2, 194132, Note_on_c, 0, 90, 57
2, 194169, Note_on_c, 0, 58, 0
2, 194180, Note_on_c, 0, 61, 0
2, 194354, Control_c, 0, 64, 127
2, 194423, Note_on_c, 0, 90, 0
2, 194447, Note_on_c, 0, 89, 78
2, 194489, Note_on_c, 0, 61, 51
2, 194497, Control_c, 0, 64, 0
2, 194547, Note_on_c, 0, 58, 32
2, 194697, Note_on_c, 0, 51, 0
2, 194746, Note_on_c, 0, 58, 0
2, 194782, Note_on_c, 0, 61, 0
2, 194868, Control_c, 0, 64, 127
2, 194975, Note_on_c, 0, 61, 21
2, 195081, Note_on_c, 0, 61, 0
2, 195172, Note_on_c, 0, 89, 0
2, 195470, Note_on_c, 0, 62, 74
2, 195481, Note_on_c, 0, 66, 77
2, 195496, Note_on_c, 0, 55, 60
2, 195501, Control_c, 0, 64, 0
2, 195516, Note_on_c, 0, 59, 69
2, 196191, Note_on_c, 0, 88, 92
2, 196353, Note_on_c, 0, 88, 0
2, 196485, Note_on_c, 0, 90, 79
2, 196520, Note_on_c, 0, 88, 40
2, 196591, Note_on_c, 0, 88, 0
2, 196707, Note_on_c, 0, 90, 0
2, 196828, Note_on_c, 0, 91, 77
2, 196862, Note_on_c, 0, 62, 0
2, 196978, Note_on_c, 0, 59, 0
2, 197001, Note_on_c, 0, 55, 0
2, 197040, Note_on_c, 0, 91, 0
2, 197093, Note_on_c, 0, 66, 0
2, 197432, Note_on_c, 0, 88, 84
2, 197448, Note_on_c, 0, 66, 73
2, 197451, Note_on_c, 0, 61, 60
2, 197487, Note_on_c, 0, 55, 48
2, 197559, Note_on_c, 0, 55, 0
2, 197594, Note_on_c, 0, 66, 0
2, 197627, Note_on_c, 0, 88, 0
2, 197657, Note_on_c, 0, 61, 0
2, 197847, Note_on_c, 0, 66, 58
2, 197853, Note_on_c, 0, 86, 63
2, 197874, Note_on_c, 0, 61, 35
2, 197943, Note_on_c, 0, 86, 0
2, 197951, Note_on_c, 0, 61, 0
2, 197964, Note_on_c, 0, 66, 0
2, 198367, Note_on_c, 0, 85, 82
2, 198391, Note_on_c, 0, 66, 74
2, 198402, Note_on_c, 0, 61, 62
2, 198419, Note_on_c, 0, 55, 62
2, 198668, Note_on_c, 0, 85, 0
2, 198773, Note_on_c, 0, 86, 68
2, 198879, Note_on_c, 0, 55, 0
2, 198932, Note_on_c, 0, 61, 0
2, 198962, Note_on_c, 0, 66, 0
2, 198983, Note_on_c, 0, 86, 0
2, 199292, Note_on_c, 0, 61, 55
2, 199307, Note_on_c, 0, 88, 85
2, 199454, Control_c, 0, 64, 127
2, 199488, Note_on_c, 0, 88, 0
2, 199507, Control_c, 0, 64, 0
2, 199643, Note_on_c, 0, 64, 55
2, 199655, Note_on_c, 0, 85, 69
2, 199662, Note_on_c, 0, 54, 29
2, 199701, Note_on_c, 0, 59, 31
2, 199875, Note_on_c, 0, 85, 0
2, 199954, Note_on_c, 0, 78, 58
2, 200162, Note_on_c, 0, 74, 52
2, 200172, Note_on_c, 0, 78, 0
2, 200514, Note_on_c, 0, 59, 0
2, 200528, Note_on_c, 0, 74, 0
2, 200717, Note_on_c, 0, 54, 0
2, 200729, Note_on_c, 0, 64, 0
2, 200804, Note_on_c, 0, 61, 0
2, 201165, Control_c, 0, 64, 127
2, 201185, Control_c, 0, 64, 0
2, 201234, Note_on_c, 0, 61, 45
2, 201248, Note_on_c, 0, 64, 54
2, 201271, Note_on_c, 0, 59, 47
2, 201274, Note_on_c, 0, 54, 23
2, 201642, Control_c, 0, 64, 127
2, 201924, Note_on_c, 0, 64, 0
2, 201957, Note_on_c, 0, 61, 0
2, 201966, Note_on_c, 0, 59, 0
2, 202152, Note_on_c, 0, 61, 31
2, 202177, Note_on_c, 0, 64, 24
2, 202330, Note_on_c, 0, 64, 0
2, 202453, Control_c, 0, 64, 0
2, 202467, Note_on_c, 0, 61, 0
2, 202675, Note_on_c, 0, 54, 0
2, 202976, Note_on_c, 0, 85, 64
2, 202997, Note_on_c, 0, 63, 59
2, 203004, Note_on_c, 0, 70, 30
2, 203059, Note_on_c, 0, 59, 44
2, 203140, Note_on_c, 0, 70, 0
2, 203142, Note_on_c, 0, 59, 0
2, 203147, Note_on_c, 0, 63, 0
2, 203173, Note_on_c, 0, 85, 0
2, 203318, Note_on_c, 0, 82, 48
2, 203481, Note_on_c, 0, 82, 0
2, 203643, Note_on_c, 0, 70, 58
2, 203655, Note_on_c, 0, 85, 56
2, 203868, Note_on_c, 0, 70, 0
2, 203911, Note_on_c, 0, 85, 0
2, 204176, Note_on_c, 0, 63, 40
2, 204189, Note_on_c, 0, 54, 32
2, 204249, Note_on_c, 0, 87, 71
2, 204266, Note_on_c, 0, 59, 31
2, 204275, Note_on_c, 0, 73, 34
2, 204277, Note_on_c, 0, 75, 34
2, 204319, Note_on_c, 0, 63, 0
2, 204342, Note_on_c, 0, 59, 0
2, 204367, Note_on_c, 0, 75, 0
2, 204384, Note_on_c, 0, 54, 0
2, 204397, Note_on_c, 0, 87, 0
2, 204451, Note_on_c, 0, 73, 0
2, 204740, Note_on_c, 0, 70, 60
2, 204775, Note_on_c, 0, 63, 46
2, 204789, Note_on_c, 0, 54, 31
2, 204854, Note_on_c, 0, 58, 23
2, 205007, Note_on_c, 0, 70, 0
2, 205014, Note_on_c, 0, 63, 0
2, 205042, Note_on_c, 0, 54, 0
2, 205044, Note_on_c, 0, 58, 0
2, 205912, Control_c, 0, 64, 127
2, 206283, Control_c, 0, 64, 0
2, 206989, Note_on_c, 0, 61, 75
2, 206993, Note_on_c, 0, 87, 80
2, 207005, Note_on_c, 0, 82, 75
2, 207007, Note_on_c, 0, 75, 79
2, 207022, Note_on_c, 0, 58, 52
2, 207124, Note_on_c, 0, 61, 0
2, 207202, Note_on_c, 0, 87, 0
2, 207204, Note_on_c, 0, 58, 0
2, 207237, Note_on_c, 0, 75, 0
2, 207274, Note_on_c, 0, 82, 0
2, 207478, Note_on_c, 0, 61, 62
2, 207483, Note_on_c, 0, 85, 52
2, 207499, Note_on_c, 0, 80, 50
2, 207503, Note_on_c, 0, 73, 35
2, 207508, Note_on_c, 0, 51, 37
2, 207559, Note_on_c, 0, 58, 23
2, 207638, Note_on_c, 0, 61, 0
2, 207652, Note_on_c, 0, 58, 0
2, 207675, Note_on_c, 0, 51, 0
2, 207686, Note_on_c, 0, 85, 0
2, 207712, Note_on_c, 0, 80, 0
2, 207718, Note_on_c, 0, 73, 0
2, 208098, Note_on_c, 0, 70, 54
2, 208105, Note_on_c, 0, 61, 59
2, 208108, Note_on_c, 0, 82, 33
2, 208136, Note_on_c, 0, 58, 40
2, 208203, Note_on_c, 0, 58, 0
2, 208225, Note_on_c, 0, 61, 0
2, 208263, Note_on_c, 0, 82, 0
2, 208288, Note_on_c, 0, 70, 0
2, 208964, Note_on_c, 0, 82, 56
2, 208970, Note_on_c, 0, 75, 51
2, 208979, Note_on_c, 0, 61, 55
2, 208981, Note_on_c, 0, 70, 35
2, 209016, Note_on_c, 0, 58, 37
2, 209235, Control_c, 0, 64, 127
2, 209360, Note_on_c, 0, 82, 0
2, 209430, Note_on_c, 0, 75, 0
2, 209432, Note_on_c, 0, 58, 0
2, 209437, Note_on_c, 0, 61, 0
2, 209471, Note_on_c, 0, 70, 0
2, 210134, Control_c, 0, 64, 0
2, 210266, Note_on_c, 0, 70, 79
2, 210279, Note_on_c, 0, 77, 62
2, 210280, Note_on_c, 0, 65, 68
2, 210282, Note_on_c, 0, 67, 81
2, 210285, Note_on_c, 0, 74, 60
2, 210384, Note_on_c, 0, 67, 0
2, 210421, Note_on_c, 0, 70, 0
2, 210442, Note_on_c, 0, 74, 0
2, 210444, Note_on_c, 0, 65, 0
2, 210479, Note_on_c, 0, 77, 0
2, 210944, Note_on_c, 0, 81, 65
2, 210947, Note_on_c, 0, 74, 71
2, 210956, Note_on_c, 0, 70, 69
2, 210958, Note_on_c, 0, 69, 81
2, 210981, Note_on_c, 0, 77, 50
2, 211143, Note_on_c, 0, 69, 0
2, 211155, Note_on_c, 0, 81, 0
2, 211188, Note_on_c, 0, 74, 0
2, 211208, Note_on_c, 0, 77, 0
2, 211259, Note_on_c, 0, 70, 0
2, 211510, Note_on_c, 0, 77, 53
2, 211523, Note_on_c, 0, 67, 68
2, 211524, Note_on_c, 0, 70, 54
2, 211532, Note_on_c, 0, 65, 60
2, 211533, Note_on_c, 0, 74, 48
2, 211847, Control_c, 0, 64, 127
2, 211917, Note_on_c, 0, 74, 0
2, 211977, Note_on_c, 0, 70, 0
2, 211980, Note_on_c, 0, 67, 0
2, 212023, Control_c, 0, 64, 0
2, 212076, Note_on_c, 0, 77, 0
2, 212091, Note_on_c, 0, 65, 0
2, 212186, Note_on_c, 0, 67, 47
2, 212199, Note_on_c, 0, 70, 42
2, 212225, Note_on_c, 0, 74, 26
2, 212230, Note_on_c, 0, 62, 44
2, 212327, Note_on_c, 0, 74, 0
2, 212410, Control_c, 0, 64, 127
2, 212431, Note_on_c, 0, 67, 0
2, 212491, Note_on_c, 0, 70, 0
2, 212746, Control_c, 0, 64, 0
2, 212800, Note_on_c, 0, 76, 62
2, 212802, Note_on_c, 0, 73, 44
2, 212809, Note_on_c, 0, 62, 0
2, 212817, Note_on_c, 0, 70, 63
2, 212820, Note_on_c, 0, 64, 58
2, 212822, Note_on_c, 0, 67, 68
2, 213101, Note_on_c, 0, 73, 0
2, 213105, Note_on_c, 0, 70, 0
2, 213140, Note_on_c, 0, 76, 0
2, 213151, Control_c, 0, 64, 127
2, 213152, Note_on_c, 0, 64, 0
2, 213182, Note_on_c, 0, 67, 0
2, 213735, Note_on_c, 0, 75, 78
2, 213753, Note_on_c, 0, 64, 65
2, 213760, Note_on_c, 0, 62, 78
2, 213762, Note_on_c, 0, 67, 65
2, 213793, Note_on_c, 0, 70, 36
2, 213874, Control_c, 0, 64, 0
2, 214011, Note_on_c, 0, 70, 0
2, 214017, Note_on_c, 0, 75, 0
2, 214031, Note_on_c, 0, 67, 0
2, 214092, Note_on_c, 0, 64, 0
2, 214135, Note_on_c, 0, 62, 0
2, 214175, Note_on_c, 0, 74, 51
2, 214180, Note_on_c, 0, 61, 67
2, 214186, Note_on_c, 0, 64, 30
2, 214214, Note_on_c, 0, 67, 33
2, 214251, Note_on_c, 0, 74, 0
2, 214363, Note_on_c, 0, 67, 0
2, 214432, Note_on_c, 0, 64, 0
2, 214582, Note_on_c, 0, 61, 0
2, 214668, Control_c, 0, 64, 127
2, 214694, Note_on_c, 0, 73, 44
2, 214696, Note_on_c, 0, 60, 57
2, 214729, Note_on_c, 0, 64, 65
2, 214759, Note_on_c, 0, 70, 36
2, 214780, Note_on_c, 0, 67, 37
2, 214867, Note_on_c, 0, 67, 0
2, 214916, Control_c, 0, 64, 0
2, 214918, Note_on_c, 0, 64, 0
2, 214930, Note_on_c, 0, 60, 0
2, 214934, Note_on_c, 0, 73, 0
2, 214979, Note_on_c, 0, 70, 0
2, 215087, Note_on_c, 0, 72, 60
2, 215110, Note_on_c, 0, 67, 64
2, 215124, Note_on_c, 0, 62, 67
2, 215143, Note_on_c, 0, 57, 57
2, 215361, Note_on_c, 0, 67, 0
2, 215411, Note_on_c, 0, 72, 0
2, 215675, Control_c, 0, 64, 127
2, 215676, Note_on_c, 0, 62, 0
2, 215833, Control_c, 0, 64, 0
2, 215921, Note_on_c, 0, 57, 0
2, 216007, Note_on_c, 0, 69, 68
2, 216009, Note_on_c, 0, 60, 47
2, 216011, Note_on_c, 0, 64, 64
2, 216039, Note_on_c, 0, 53, 49
2, 216579, Control_c, 0, 64, 127
2, 216951, Control_c, 0, 64, 0
2, 217037, Control_c, 0, 64, 127
2, 217149, Note_on_c, 0, 60, 0
2, 217257, Note_on_c, 0, 53, 0
2, 217280, Note_on_c, 0, 69, 0
2, 217301, Note_on_c, 0, 64, 0
2, 217885, Control_c, 0, 64, 0
2, 217938, Note_on_c, 0, 72, 105
2, 218228, Note_on_c, 0, 72, 0
2, 218249, Note_on_c, 0, 74, 70
2, 218505, Note_on_c, 0, 74, 0
2, 218582, Note_on_c, 0, 60, 48
2, 218588, Note_on_c, 0, 63, 62
2, 218589, Note_on_c, 0, 54, 51
2, 218591, Note_on_c, 0, 75, 84
2, 219239, Note_on_c, 0, 69, 67
2, 219288, Note_on_c, 0, 75, 0
2, 219531, Control_c, 0, 64, 127
2, 219654, Control_c, 0, 64, 0
2, 219712, Note_on_c, 0, 69, 0
2, 219818, Note_on_c, 0, 70, 55
2, 219978, Note_on_c, 0, 69, 38
2, 220068, Note_on_c, 0, 69, 0
2, 220075, Note_on_c, 0, 70, 0
2, 220129, Note_on_c, 0, 60, 0
2, 220170, Note_on_c, 0, 63, 0
2, 220462, Note_on_c, 0, 63, 44
2, 220473, Note_on_c, 0, 72, 63
2, 220486, Note_on_c, 0, 60, 35
2, 220844, Note_on_c, 0, 63, 0
2, 220900, Note_on_c, 0, 60, 0
2, 221020, Note_on_c, 0, 72, 0
2, 221175, Note_on_c, 0, 54, 0
2, 221189, Note_on_c, 0, 60, 50
2, 221206, Control_c, 0, 64, 127
2, 221560, Control_c, 0, 64, 0
2, 221646, Note_on_c, 0, 60, 0
2, 221747, Note_on_c, 0, 63, 69
2, 222371, Control_c, 0, 64, 127
2, 222373, Note_on_c, 0, 69, 74
2, 222509, Note_on_c, 0, 63, 0
2, 222635, Control_c, 0, 64, 0
2, 222660, Note_on_c, 0, 69, 0
2, 222929, Note_on_c, 0, 67, 66
2, 222956, Note_on_c, 0, 58, 37
2, 222963, Note_on_c, 0, 62, 50
2, 223040, Note_on_c, 0, 62, 0
2, 223070, Note_on_c, 0, 67, 0
2, 223153, Note_on_c, 0, 58, 0
2, 223306, Control_c, 0, 64, 127
2, 223411, Control_c, 0, 64, 0
2, 223621, Note_on_c, 0, 50, 46
2, 223658, Note_on_c, 0, 62, 49
2, 223668, Note_on_c, 0, 53, 38
2, 223683, Note_on_c, 0, 55, 42
2, 223686, Note_on_c, 0, 58, 32
2, 223800, Control_c, 0, 64, 127
2, 223881, Note_on_c, 0, 55, 0
2, 223918, Note_on_c, 0, 62, 0
2, 224013, Note_on_c, 0, 58, 0
2, 224091, Note_on_c, 0, 53, 0
2, 224216, Note_on_c, 0, 50, 0
2, 224322, Note_on_c, 0, 58, 67
2, 224329, Note_on_c, 0, 64, 68
2, 224330, Note_on_c, 0, 55, 70
2, 224337, Note_on_c, 0, 52, 62
2, 224383, Control_c, 0, 64, 0
2, 224543, Note_on_c, 0, 64, 0
2, 224614, Note_on_c, 0, 55, 0
2, 224633, Note_on_c, 0, 58, 0
2, 224772, Note_on_c, 0, 58, 53
2, 224779, Note_on_c, 0, 52, 0
2, 224802, Note_on_c, 0, 65, 60
2, 224811, Note_on_c, 0, 55, 55
2, 224860, Note_on_c, 0, 53, 50
2, 225001, Control_c, 0, 64, 127
2, 225003, Note_on_c, 0, 65, 0
2, 225043, Note_on_c, 0, 55, 0
2, 225052, Note_on_c, 0, 58, 0
2, 225212, Note_on_c, 0, 53, 0
2, 225460, Control_c, 0, 64, 0
2, 225497, Note_on_c, 0, 67, 68
2, 225513, Note_on_c, 0, 58, 58
2, 225527, Note_on_c, 0, 62, 68
2, 225536, Note_on_c, 0, 55, 60
2, 225740, Note_on_c, 0, 67, 0
2, 225772, Note_on_c, 0, 58, 0
2, 225791, Note_on_c, 0, 62, 0
2, 225948, Note_on_c, 0, 55, 0
2, 226310, Note_on_c, 0, 69, 64
2, 226312, Note_on_c, 0, 60, 50
2, 226314, Note_on_c, 0, 64, 62
2, 226321, Note_on_c, 0, 57, 47
2, 226525, Note_on_c, 0, 57, 0
2, 226618, Note_on_c, 0, 60, 0
2, 226646, Note_on_c, 0, 57, 12
2, 226659, Control_c, 0, 64, 127
2, 226801, Note_on_c, 0, 64, 0
2, 226819, Note_on_c, 0, 69, 0
2, 227171, Note_on_c, 0, 57, 0
2, 228188, Note_on_c, 0, 70, 76
2, 228192, Note_on_c, 0, 82, 69
2, 228232, Note_on_c, 0, 67, 54
2, 228241, Note_on_c, 0, 75, 34
2, 228301, Note_on_c, 0, 75, 0
2, 228343, Note_on_c, 0, 67, 0
2, 228420, Note_on_c, 0, 70, 0
2, 228442, Control_c, 0, 64, 0
2, 228470, Note_on_c, 0, 82, 0
2, 228674, Note_on_c, 0, 56, 54
2, 228690, Note_on_c, 0, 67, 60
2, 228702, Note_on_c, 0, 72, 64
2, 228706, Note_on_c, 0, 84, 68
2, 228737, Note_on_c, 0, 62, 48
2, 228882, Control_c, 0, 64, 127
2, 229091, Note_on_c, 0, 56, 0
2, 229117, Note_on_c, 0, 84, 0
2, 229135, Note_on_c, 0, 67, 0
2, 229161, Note_on_c, 0, 72, 0
2, 229172, Note_on_c, 0, 62, 0
2, 229288, Control_c, 0, 64, 0
2, 229424, Note_on_c, 0, 86, 71
2, 229429, Note_on_c, 0, 56, 52
2, 229431, Note_on_c, 0, 67, 56
2, 229432, Note_on_c, 0, 74, 61
2, 229455, Note_on_c, 0, 62, 57
2, 229561, Note_on_c, 0, 67, 0
2, 229605, Control_c, 0, 64, 127
2, 229619, Note_on_c, 0, 62, 0
2, 229668, Note_on_c, 0, 74, 0
2, 229684, Note_on_c, 0, 86, 0
2, 229762, Note_on_c, 0, 56, 0
2, 230047, Control_c, 0, 64, 0
2, 230109, Note_on_c, 0, 88, 81
2, 230110, Note_on_c, 0, 55, 67
2, 230112, Note_on_c, 0, 57, 65
2, 230114, Note_on_c, 0, 64, 74
2, 230115, Note_on_c, 0, 76, 78
2, 230121, Note_on_c, 0, 81, 71
2, 230135, Note_on_c, 0, 60, 58
2, 230288, Note_on_c, 0, 76, 0
2, 230327, Note_on_c, 0, 64, 0
2, 230343, Note_on_c, 0, 60, 0
2, 230395, Note_on_c, 0, 88, 0
2, 230413, Note_on_c, 0, 81, 0
2, 230418, Control_c, 0, 64, 127
2, 230437, Note_on_c, 0, 76, 51
2, 230474, Note_on_c, 0, 55, 0
2, 230562, Note_on_c, 0, 55, 22
2, 230571, Note_on_c, 0, 88, 31
2, 230585, Note_on_c, 0, 64, 25
2, 230620, Note_on_c, 0, 60, 9
2, 230624, Note_on_c, 0, 76, 0
2, 230649, Note_on_c, 0, 81, 39
2, 230650, Note_on_c, 0, 55, 0
2, 230763, Note_on_c, 0, 88, 0
2, 230777, Note_on_c, 0, 60, 0
2, 230805, Note_on_c, 0, 76, 57
2, 230879, Note_on_c, 0, 81, 0
2, 231008, Note_on_c, 0, 64, 0
2, 231027, Note_on_c, 0, 60, 24
2, 231041, Note_on_c, 0, 88, 52
2, 231103, Note_on_c, 0, 76, 0
2, 231110, Note_on_c, 0, 81, 32
2, 231247, Note_on_c, 0, 60, 0
2, 231287, Note_on_c, 0, 57, 0
2, 231328, Note_on_c, 0, 81, 0
2, 231330, Note_on_c, 0, 88, 0
2, 231335, Control_c, 0, 64, 0
2, 231347, Note_on_c, 0, 76, 48
2, 231476, Note_on_c, 0, 55, 26
2, 231501, Note_on_c, 0, 76, 0
2, 231551, Note_on_c, 0, 57, 26
2, 231592, Note_on_c, 0, 55, 0
2, 231655, Note_on_c, 0, 57, 0
2, 232048, Note_on_c, 0, 86, 58
2, 232062, Note_on_c, 0, 74, 46
2, 232071, Note_on_c, 0, 54, 42
2, 232072, Note_on_c, 0, 64, 53
2, 232076, Note_on_c, 0, 60, 39
2, 232087, Note_on_c, 0, 81, 40
2, 232428, Control_c, 0, 64, 127
2, 232553, Control_c, 0, 64, 0
2, 232641, Control_c, 0, 64, 127
2, 233262, Note_on_c, 0, 60, 0
2, 233285, Note_on_c, 0, 64, 0
2, 233311, Note_on_c, 0, 86, 0
2, 233382, Note_on_c, 0, 81, 0
2, 233442, Note_on_c, 0, 74, 0
2, 233451, Note_on_c, 0, 54, 0
2, 234070, Control_c, 0, 64, 0
2, 234241, Note_on_c, 0, 74, 55
2, 234263, Note_on_c, 0, 62, 40
2, 234267, Note_on_c, 0, 65, 45
2, 234281, Note_on_c, 0, 70, 37
2, 234283, Note_on_c, 0, 67, 44
2, 234440, Note_on_c, 0, 62, 0
2, 234443, Note_on_c, 0, 67, 0
2, 234449, Note_on_c, 0, 65, 0
2, 234517, Note_on_c, 0, 70, 0
2, 234559, Note_on_c, 0, 74, 0
2, 236062, Note_on_c, 0, 48, 33
2, 236136, Note_on_c, 0, 48, 0
2, 236346, Control_c, 0, 64, 127
2, 236787, Control_c, 0, 64, 0
2, 236817, Note_on_c, 0, 73, 46
2, 236826, Note_on_c, 0, 69, 71
2, 236828, Note_on_c, 0, 81, 51
2, 236835, Note_on_c, 0, 76, 54
2, 236851, Note_on_c, 0, 58, 57
2, 236853, Note_on_c, 0, 64, 48
2, 236888, Note_on_c, 0, 79, 33
2, 237175, Control_c, 0, 64, 127
2, 237426, Note_on_c, 0, 81, 0
2, 237472, Note_on_c, 0, 79, 0
2, 237504, Note_on_c, 0, 76, 0
2, 237525, Note_on_c, 0, 69, 0
2, 237529, Note_on_c, 0, 64, 0
2, 237685, Note_on_c, 0, 73, 0
2, 237828, Note_on_c, 0, 58, 0
2, 237988, Control_c, 0, 64, 0
2, 238072, Note_on_c, 0, 77, 46
2, 238085, Note_on_c, 0, 67, 45
2, 238088, Note_on_c, 0, 62, 48
2, 238104, Note_on_c, 0, 72, 33
2, 238160, Note_on_c, 0, 57, 27
2, 238224, Note_on_c, 0, 67, 0
2, 238247, Note_on_c, 0, 57, 0
2, 238299, Note_on_c, 0, 62, 0
2, 238313, Note_on_c, 0, 72, 0
2, 238417, Note_on_c, 0, 77, 0
2, 240047, Note_on_c, 0, 86, 58
2, 240080, Note_on_c, 0, 93, 50
2, 240117, Note_on_c, 0, 101, 36
2, 240314, Note_on_c, 0, 86, 0
2, 240359, Note_on_c, 0, 93, 0
2, 240383, Note_on_c, 0, 101, 0
2, 241967, Note_on_c, 0, 94, 56
2, 241971, Note_on_c, 0, 86, 44
2, 241992, Note_on_c, 0, 101, 46
2, 242226, Note_on_c, 0, 86, 0
2, 242260, Note_on_c, 0, 101, 0
2, 242321, Note_on_c, 0, 94, 0
2, 242851, Note_on_c, 0, 95, 50
2, 242852, Note_on_c, 0, 101, 36
2, 242859, Note_on_c, 0, 86, 42
2, 243051, Control_c, 0, 64, 127
2, 243166, Note_on_c, 0, 86, 0
2, 243182, Note_on_c, 0, 95, 0
2, 243239, Note_on_c, 0, 101, 0
2, 243333, Control_c, 0, 64, 0
2, 243491, Note_on_c, 0, 86, 51
2, 243514, Note_on_c, 0, 96, 31
2, 243526, Note_on_c, 0, 101, 32
2, 243560, Note_on_c, 0, 86, 0
2, 243629, Note_on_c, 0, 96, 0
2, 243631, Note_on_c, 0, 101, 0
2, 243652, Control_c, 0, 64, 127
2, 243687, Control_c, 0, 64, 0
2, 244790, Note_on_c, 0, 41, 26
2, 244799, Note_on_c, 0, 29, 27
2, 245026, Control_c, 0, 64, 127
2, 245507, Note_on_c, 0, 41, 0
2, 245510, Note_on_c, 0, 29, 0
2, 247303, Control_c, 0, 64, 0
2, 247303, End_track
3, 0, Start_track
3, 0, Title_t, "Accompaniment"
3, 0, Program_c, 1, 0
3, 0, Control_c, 1, 7, 101
3, 68, Note_on_c, 1, 60, 38
3, 75, Note_on_c, 1, 55, 33
3, 96, Note_on_c, 1, 57, 33
3, 99, Note_on_c, 1, 41, 30
3, 129, Note_on_c, 1, 48, 24
3, 393, Note_on_c, 1, 55, 0
3, 429, Note_on_c, 1, 60, 0
3, 430, Note_on_c, 1, 57, 0
3, 939, Note_on_c, 1, 48, 0
3, 1007, Note_on_c, 1, 55, 45
3, 1016, Note_on_c, 1, 60, 33
3, 1027, Note_on_c, 1, 57, 29
3, 1340, Note_on_c, 1, 55, 0
3, 1347, Note_on_c, 1, 60, 0
3, 1351, Note_on_c, 1, 57, 0
3, 1954, Note_on_c, 1, 60, 32
3, 1981, Note_on_c, 1, 55, 28
3, 2030, Note_on_c, 1, 41, 0
3, 2183, Note_on_c, 1, 55, 0
3, 2375, Control_c, 1, 64, 127
3, 2377, Note_on_c, 1, 60, 0
3, 2847, Note_on_c, 1, 34, 55
3, 2852, Control_c, 1, 64, 0
3, 2873, Note_on_c, 1, 58, 58
3, 2878, Note_on_c, 1, 46, 48
3, 2883, Note_on_c, 1, 53, 66
3, 2884, Note_on_c, 1, 62, 62
3, 3408, Note_on_c, 1, 53, 0
3, 3607, Note_on_c, 1, 46, 0
3, 3656, Note_on_c, 1, 62, 0
3, 3674, Note_on_c, 1, 58, 0
3, 3743, Note_on_c, 1, 34, 0
3, 3827, Note_on_c, 1, 55, 41
3, 3838, Note_on_c, 1, 60, 26
3, 3860, Note_on_c, 1, 64, 24
3, 3873, Note_on_c, 1, 45, 36
3, 3894, Note_on_c, 1, 33, 28
3, 3959, Note_on_c, 1, 55, 0
3, 4047, Note_on_c, 1, 64, 0
3, 4065, Note_on_c, 1, 60, 0
3, 4805, Note_on_c, 1, 55, 39
3, 4813, Note_on_c, 1, 60, 29
3, 4818, Note_on_c, 1, 64, 31
3, 4960, Note_on_c, 1, 64, 0
3, 4968, Note_on_c, 1, 55, 0
3, 5010, Note_on_c, 1, 60, 0
3, 5742, Note_on_c, 1, 45, 0
3, 5762, Note_on_c, 1, 54, 40
3, 5781, Note_on_c, 1, 64, 40
3, 5788, Note_on_c, 1, 60, 36
3, 5809, Note_on_c, 1, 33, 0
3, 5818, Note_on_c, 1, 38, 39
3, 6229, Note_on_c, 1, 38, 0
3, 6244, Note_on_c, 1, 64, 0
3, 6245, Note_on_c, 1, 54, 0
3, 6266, Note_on_c, 1, 60, 0
3, 6310, Control_c, 1, 64, 127
3, 6481, Note_on_c, 1, 38, 37
3, 6666, Note_on_c, 1, 38, 0
3, 6682, Control_c, 1, 64, 0
3, 6757, Note_on_c, 1, 54, 67
3, 6770, Note_on_c, 1, 60, 54
3, 6773, Note_on_c, 1, 44, 60
3, 6787, Note_on_c, 1, 64, 60
3, 6825, Note_on_c, 1, 46, 34
3, 7000, Note_on_c, 1, 46, 0
3, 7106, Control_c, 1, 64, 127
3, 7222, Note_on_c, 1, 64, 0
3, 7280, Note_on_c, 1, 60, 0
3, 7307, Note_on_c, 1, 54, 0
3, 7423, Control_c, 1, 64, 0
3, 7433, Note_on_c, 1, 62, 64
3, 7446, Note_on_c, 1, 44, 0
3, 7454, Note_on_c, 1, 53, 61
3, 7468, Note_on_c, 1, 58, 50
3, 7475, Note_on_c, 1, 43, 55
3, 7739, Control_c, 1, 64, 127
3, 7845, Note_on_c, 1, 43, 0
3, 7847, Note_on_c, 1, 53, 0
3, 7886, Note_on_c, 1, 62, 0
3, 7981, Note_on_c, 1, 58, 0
3, 8403, Note_on_c, 1, 58, 75
3, 8410, Note_on_c, 1, 55, 84
3, 8412, Note_on_c, 1, 62, 75
3, 8419, Note_on_c, 1, 65, 69
3, 8421, Note_on_c, 1, 53, 83
3, 8480, Control_c, 1, 64, 0
3, 8853, Control_c, 1, 64, 127
3, 9109, Note_on_c, 1, 62, 0
3, 9126, Note_on_c, 1, 65, 0
3, 9214, Note_on_c, 1, 58, 0
3, 9304, Note_on_c, 1, 55, 0
3, 9322, Note_on_c, 1, 53, 0
3, 9681, Control_c, 1, 64, 0
3, 9698, Note_on_c, 1, 53, 44
3, 9725, Note_on_c, 1, 58, 42
3, 9727, Note_on_c, 1, 62, 35
3, 9732, Note_on_c, 1, 55, 45
3, 9741, Note_on_c, 1, 50, 36
3, 10094, Note_on_c, 1, 55, 0
3, 10096, Note_on_c, 1, 50, 0
3, 10144, Note_on_c, 1, 62, 0
3, 10147, Note_on_c, 1, 58, 0
3, 10158, Note_on_c, 1, 53, 0
3, 10637, Note_on_c, 1, 53, 38
3, 10651, Note_on_c, 1, 62, 32
3, 10652, Note_on_c, 1, 55, 44
3, 10656, Note_on_c, 1, 50, 34
3, 10661, Note_on_c, 1, 58, 31
3, 10723, Control_c, 1, 64, 127
3, 10839, Note_on_c, 1, 50, 0
3, 10841, Note_on_c, 1, 55, 0
3, 10856, Note_on_c, 1, 53, 0
3, 10865, Note_on_c, 1, 62, 0
3, 10915, Note_on_c, 1, 58, 0
3, 11552, Control_c, 1, 64, 0
3, 11594, Note_on_c, 1, 69, 48
3, 11603, Note_on_c, 1, 58, 37
3, 11606, Note_on_c, 1, 61, 42
3, 11642, Note_on_c, 1, 64, 43
3, 11648, Note_on_c, 1, 57, 45
3, 11664, Note_on_c, 1, 48, 30
3, 11905, Control_c, 1, 64, 127
3, 12330, Note_on_c, 1, 57, 0
3, 12504, Note_on_c, 1, 48, 0
3, 12833, Note_on_c, 1, 69, 0
3, 12965, Note_on_c, 1, 64, 0
3, 13041, Note_on_c, 1, 58, 0
3, 13145, Note_on_c, 1, 61, 0
3, 13440, Control_c, 1, 64, 0
3, 13477, Note_on_c, 1, 60, 49
3, 13481, Note_on_c, 1, 64, 49
3, 13489, Note_on_c, 1, 34, 51
3, 13502, Note_on_c, 1, 55, 46
3, 13512, Note_on_c, 1, 46, 31
3, 13829, Control_c, 1, 64, 127
3, 14017, Note_on_c, 1, 64, 0
3, 14163, Control_c, 1, 64, 0
3, 14165, Note_on_c, 1, 67, 74
3, 14410, Control_c, 1, 64, 127
3, 14537, Note_on_c, 1, 67, 0
3, 14681, Note_on_c, 1, 60, 0
3, 14716, Note_on_c, 1, 55, 0
3, 14739, Note_on_c, 1, 65, 61
3, 14850, Note_on_c, 1, 46, 0
3, 14945, Note_on_c, 1, 65, 0
3, 15035, Note_on_c, 1, 34, 0
3, 15417, Control_c, 1, 64, 0
3, 15448, Note_on_c, 1, 60, 37
3, 15459, Note_on_c, 1, 55, 50
3, 15461, Note_on_c, 1, 52, 52
3, 15494, Note_on_c, 1, 45, 32
3, 15496, Note_on_c, 1, 33, 36
3, 16158, Control_c, 1, 64, 127
3, 16441, Note_on_c, 1, 33, 0
3, 16451, Note_on_c, 1, 52, 0
3, 16686, Note_on_c, 1, 60, 0
3, 16696, Note_on_c, 1, 55, 0
3, 16701, Note_on_c, 1, 45, 0
3, 17926, Note_on_c, 1, 52, 82
3, 17932, Note_on_c, 1, 67, 71
3, 17933, Note_on_c, 1, 60, 70
3, 17939, Control_c, 1, 64, 0
3, 17949, Note_on_c, 1, 57, 71
3, 17969, Note_on_c, 1, 64, 35
3, 18400, Note_on_c, 1, 64, 0
3, 18643, Note_on_c, 1, 57, 0
3, 18655, Note_on_c, 1, 60, 0
3, 18664, Note_on_c, 1, 67, 0
3, 18826, Note_on_c, 1, 66, 75
3, 18833, Note_on_c, 1, 51, 77
3, 18856, Note_on_c, 1, 57, 44
3, 18870, Note_on_c, 1, 63, 32
3, 18884, Note_on_c, 1, 52, 0
3, 19229, Note_on_c, 1, 66, 0
3, 19253, Note_on_c, 1, 57, 0
3, 19359, Note_on_c, 1, 51, 0
3, 19384, Note_on_c, 1, 63, 0
3, 19412, Note_on_c, 1, 50, 45
3, 19414, Note_on_c, 1, 57, 45
3, 19415, Note_on_c, 1, 60, 38
3, 19429, Note_on_c, 1, 65, 54
3, 19810, Control_c, 1, 64, 127
3, 20003, Control_c, 1, 64, 0
3, 20039, Note_on_c, 1, 50, 0
3, 20040, Note_on_c, 1, 60, 0
3, 20047, Note_on_c, 1, 65, 0
3, 20111, Note_on_c, 1, 38, 52
3, 20177, Note_on_c, 1, 57, 0
3, 20392, Control_c, 1, 64, 127
3, 20762, Control_c, 1, 64, 0
3, 20795, Note_on_c, 1, 64, 53
3, 20804, Note_on_c, 1, 53, 51
3, 20811, Note_on_c, 1, 57, 49
3, 20818, Note_on_c, 1, 49, 46
3, 21013, Note_on_c, 1, 53, 0
3, 21063, Note_on_c, 1, 57, 0
3, 21170, Note_on_c, 1, 49, 0
3, 21390, Note_on_c, 1, 64, 0
3, 21703, Note_on_c, 1, 48, 62
3, 21741, Note_on_c, 1, 57, 40
3, 21742, Note_on_c, 1, 53, 47
3, 21751, Note_on_c, 1, 62, 53
3, 22113, Note_on_c, 1, 45, 55
3, 22122, Note_on_c, 1, 38, 0
3, 22164, Note_on_c, 1, 48, 0
3, 22411, Note_on_c, 1, 53, 0
3, 22443, Note_on_c, 1, 57, 0
3, 22571, Note_on_c, 1, 62, 0
3, 22608, Note_on_c, 1, 45, 0
3, 22668, Control_c, 1, 64, 127
3, 22740, Note_on_c, 1, 38, 54
3, 22847, Note_on_c, 1, 38, 0
3, 23022, Control_c, 1, 64, 0
3, 23129, Note_on_c, 1, 37, 45
3, 23321, Control_c, 1, 64, 127
3, 23484, Note_on_c, 1, 37, 0
3, 23761, Note_on_c, 1, 58, 50
3, 23764, Note_on_c, 1, 63, 55
3, 23768, Note_on_c, 1, 70, 47
3, 23778, Note_on_c, 1, 67, 62
3, 23785, Note_on_c, 1, 53, 40
3, 23791, Note_on_c, 1, 44, 39
3, 23798, Control_c, 1, 64, 0
3, 24503, Control_c, 1, 64, 127
3, 24801, Note_on_c, 1, 53, 0
3, 24812, Note_on_c, 1, 67, 0
3, 24852, Note_on_c, 1, 58, 0
3, 24889, Note_on_c, 1, 63, 0
3, 25012, Note_on_c, 1, 70, 0
3, 25046, Note_on_c, 1, 67, 45
3, 25084, Note_on_c, 1, 58, 26
3, 25093, Note_on_c, 1, 53, 51
3, 25097, Note_on_c, 1, 63, 25
3, 25119, Control_c, 1, 64, 0
3, 25315, Control_c, 1, 64, 127
3, 25679, Note_on_c, 1, 44, 0
3, 25832, Note_on_c, 1, 53, 0
3, 25864, Note_on_c, 1, 58, 0
3, 25934, Note_on_c, 1, 67, 0
3, 26038, Note_on_c, 1, 63, 0
3, 26515, Control_c, 1, 64, 0
3, 26593, Note_on_c, 1, 65, 54
3, 26598, Note_on_c, 1, 72, 45
3, 26601, Note_on_c, 1, 48, 40
3, 26608, Note_on_c, 1, 62, 55
3, 26615, Note_on_c, 1, 58, 42
3, 26756, Note_on_c, 1, 62, 0
3, 26784, Note_on_c, 1, 65, 0
3, 26797, Control_c, 1, 64, 127
3, 26860, Note_on_c, 1, 72, 0
3, 26960, Note_on_c, 1, 58, 0
3, 27492, Note_on_c, 1, 60, 70
3, 27499, Note_on_c, 1, 84, 92
3, 27534, Note_on_c, 1, 48, 0
3, 27941, Note_on_c, 1, 72, 46
3, 28015, Control_c, 1, 64, 0
3, 28050, Control_c, 1, 64, 127
3, 28509, Control_c, 1, 64, 0
3, 28511, Note_on_c, 1, 48, 64
3, 28516, Note_on_c, 1, 84, 0
3, 28662, Note_on_c, 1, 72, 0
3, 28756, Control_c, 1, 64, 127
3, 28842, Note_on_c, 1, 60, 0
3, 29451, Note_on_c, 1, 74, 75
3, 29454, Note_on_c, 1, 68, 78
3, 29458, Note_on_c, 1, 58, 70
3, 29460, Note_on_c, 1, 64, 82
3, 29479, Control_c, 1, 64, 0
3, 29849, Control_c, 1, 64, 127
3, 30382, Note_on_c, 1, 74, 0
3, 30426, Note_on_c, 1, 58, 0
3, 30433, Note_on_c, 1, 64, 0
3, 30502, Note_on_c, 1, 68, 0
3, 30697, Control_c, 1, 64, 0
3, 30729, Note_on_c, 1, 57, 58
3, 30730, Note_on_c, 1, 72, 60
3, 30732, Note_on_c, 1, 62, 66
3, 30734, Note_on_c, 1, 67, 74
3, 30744, Note_on_c, 1, 48, 0
3, 31336, Control_c, 1, 64, 127
3, 31767, Note_on_c, 1, 67, 0
3, 31818, Note_on_c, 1, 57, 0
3, 32031, Note_on_c, 1, 72, 0
3, 32033, Note_on_c, 1, 62, 0
3, 32659, Control_c, 1, 64, 0
3, 32709, Note_on_c, 1, 67, 69
3, 32719, Note_on_c, 1, 46, 64
3, 32721, Note_on_c, 1, 60, 59
3, 32723, Note_on_c, 1, 64, 66
3, 32724, Note_on_c, 1, 56, 54
3, 33119, Control_c, 1, 64, 127
3, 33414, Note_on_c, 1, 56, 0
3, 33464, Note_on_c, 1, 67, 0
3, 33592, Note_on_c, 1, 60, 0
3, 33603, Note_on_c, 1, 64, 0
3, 33689, Note_on_c, 1, 46, 0
3, 34271, Note_on_c, 1, 64, 48
3, 34289, Note_on_c, 1, 60, 33
3, 34293, Note_on_c, 1, 55, 41
3, 34302, Control_c, 1, 64, 0
3, 34308, Note_on_c, 1, 45, 47
3, 34352, Note_on_c, 1, 52, 27
3, 34497, Note_on_c, 1, 52, 0
3, 34560, Note_on_c, 1, 45, 0
3, 34587, Note_on_c, 1, 64, 0
3, 34595, Note_on_c, 1, 60, 0
3, 34636, Note_on_c, 1, 55, 0
3, 35547, Note_on_c, 1, 54, 40
3, 35570, Note_on_c, 1, 58, 40
3, 35572, Note_on_c, 1, 38, 37
3, 35576, Note_on_c, 1, 65, 40
3, 35595, Note_on_c, 1, 26, 37
3, 35984, Note_on_c, 1, 65, 0
3, 36044, Note_on_c, 1, 54, 0
3, 36070, Note_on_c, 1, 58, 0
3, 36116, Note_on_c, 1, 38, 0
3, 36118, Note_on_c, 1, 26, 0
3, 36186, Note_on_c, 1, 54, 49
3, 36195, Note_on_c, 1, 65, 51
3, 36204, Note_on_c, 1, 58, 38
3, 36225, Note_on_c, 1, 38, 38
3, 36236, Note_on_c, 1, 26, 33
3, 36243, Note_on_c, 1, 60, 26
3, 36317, Note_on_c, 1, 54, 0
3, 36334, Note_on_c, 1, 65, 0
3, 36340, Note_on_c, 1, 60, 0
3, 36371, Note_on_c, 1, 58, 0
3, 36375, Note_on_c, 1, 26, 0
3, 36382, Note_on_c, 1, 38, 0
3, 37526, Note_on_c, 1, 62, 80
3, 37531, Note_on_c, 1, 55, 80
3, 37533, Note_on_c, 1, 53, 84
3, 37535, Note_on_c, 1, 58, 62
3, 37547, Note_on_c, 1, 50, 64
3, 38003, Note_on_c, 1, 50, 0
3, 38005, Note_on_c, 1, 62, 0
3, 38017, Note_on_c, 1, 55, 0
3, 38019, Note_on_c, 1, 53, 0
3, 38071, Note_on_c, 1, 58, 0
3, 38153, Note_on_c, 1, 58, 38
3, 38154, Note_on_c, 1, 62, 71
3, 38156, Note_on_c, 1, 50, 47
3, 38158, Note_on_c, 1, 53, 68
3, 38161, Note_on_c, 1, 55, 65
3, 38501, Control_c, 1, 64, 127
3, 38619, Note_on_c, 1, 55, 0
3, 38629, Note_on_c, 1, 62, 0
3, 38708, Note_on_c, 1, 58, 0
3, 38853, Note_on_c, 1, 53, 0
3, 39064, Note_on_c, 1, 65, 62
3, 39066, Note_on_c, 1, 58, 65
3, 39069, Note_on_c, 1, 55, 73
3, 39073, Note_on_c, 1, 62, 74
3, 39082, Control_c, 1, 64, 0
3, 39099, Note_on_c, 1, 43, 66
3, 39166, Note_on_c, 1, 50, 0
3, 39453, Control_c, 1, 64, 127
3, 39661, Note_on_c, 1, 55, 0
3, 39666, Note_on_c, 1, 43, 0
3, 39676, Note_on_c, 1, 62, 0
3, 39721, Note_on_c, 1, 65, 0
3, 39722, Note_on_c, 1, 58, 0
3, 40266, Control_c, 1, 64, 0
3, 40343, Note_on_c, 1, 58, 64
3, 40347, Note_on_c, 1, 62, 71
3, 40351, Note_on_c, 1, 69, 51
3, 40384, Note_on_c, 1, 57, 57
3, 40391, Note_on_c, 1, 65, 44
3, 40475, Control_c, 1, 64, 127
3, 40631, Note_on_c, 1, 65, 0
3, 40632, Note_on_c, 1, 58, 0
3, 40646, Note_on_c, 1, 62, 0
3, 40699, Note_on_c, 1, 69, 0
3, 40761, Note_on_c, 1, 57, 0
3, 41183, Control_c, 1, 64, 0
3, 41271, Note_on_c, 1, 60, 70
3, 41273, Note_on_c, 1, 72, 71
3, 41275, Note_on_c, 1, 65, 87
3, 41276, Note_on_c, 1, 69, 76
3, 41282, Note_on_c, 1, 62, 90
3, 41341, Note_on_c, 1, 71, 42
3, 41628, Control_c, 1, 64, 127
3, 41669, Note_on_c, 1, 65, 0
3, 41722, Note_on_c, 1, 69, 0
3, 41785, Note_on_c, 1, 72, 0
3, 41803, Note_on_c, 1, 62, 0
3, 41817, Note_on_c, 1, 71, 0
3, 41855, Note_on_c, 1, 60, 0
3, 42176, Control_c, 1, 64, 0
3, 42213, Note_on_c, 1, 73, 59
3, 42225, Note_on_c, 1, 70, 67
3, 42228, Note_on_c, 1, 67, 74
3, 42239, Note_on_c, 1, 64, 68
3, 42245, Note_on_c, 1, 63, 77
3, 42598, Control_c, 1, 64, 127
3, 42737, Note_on_c, 1, 73, 0
3, 42756, Note_on_c, 1, 64, 0
3, 42809, Note_on_c, 1, 70, 0
3, 42818, Note_on_c, 1, 67, 0
3, 42866, Note_on_c, 1, 63, 0
3, 42899, Note_on_c, 1, 61, 67
3, 42901, Note_on_c, 1, 75, 62
3, 42920, Note_on_c, 1, 67, 38
3, 42927, Note_on_c, 1, 70, 35
3, 42929, Note_on_c, 1, 64, 35
3, 43075, Control_c, 1, 64, 0
3, 43135, Note_on_c, 1, 64, 0
3, 43161, Note_on_c, 1, 70, 0
3, 43168, Note_on_c, 1, 75, 0
3, 43191, Note_on_c, 1, 67, 0
3, 43202, Note_on_c, 1, 61, 0
3, 43300, Note_on_c, 1, 73, 28
3, 43316, Note_on_c, 1, 58, 34
3, 43409, Control_c, 1, 64, 127
3, 43607, Note_on_c, 1, 73, 0
3, 43751, Note_on_c, 1, 58, 0
3, 43901, Note_on_c, 1, 75, 76
3, 43902, Note_on_c, 1, 64, 74
3, 43913, Note_on_c, 1, 67, 71
3, 43915, Note_on_c, 1, 61, 63
3, 43922, Control_c, 1, 64, 0
3, 43995, Note_on_c, 1, 61, 0
3, 44019, Note_on_c, 1, 64, 0
3, 44034, Note_on_c, 1, 67, 0
3, 44105, Note_on_c, 1, 75, 0
3, 44364, Control_c, 1, 64, 127
3, 44786, Control_c, 1, 64, 0
3, 44853, Note_on_c, 1, 72, 55
3, 44860, Note_on_c, 1, 67, 55
3, 44879, Note_on_c, 1, 48, 40
3, 44883, Note_on_c, 1, 64, 48
3, 44890, Note_on_c, 1, 58, 47
3, 45071, Note_on_c, 1, 58, 0
3, 45089, Note_on_c, 1, 48, 0
3, 45090, Note_on_c, 1, 64, 0
3, 45112, Note_on_c, 1, 67, 0
3, 45175, Control_c, 1, 64, 127
3, 45315, Control_c, 1, 64, 0
3, 45485, Note_on_c, 1, 56, 57
3, 45579, Control_c, 1, 64, 127
3, 45667, Note_on_c, 1, 56, 0
3, 45796, Note_on_c, 1, 46, 47
3, 45900, Note_on_c, 1, 72, 0
3, 46004, Control_c, 1, 64, 0
3, 46007, Note_on_c, 1, 46, 0
3, 46138, Note_on_c, 1, 60, 34
3, 46139, Note_on_c, 1, 64, 48
3, 46146, Note_on_c, 1, 55, 48
3, 46181, Note_on_c, 1, 45, 37
3, 46322, Control_c, 1, 64, 127
3, 46391, Note_on_c, 1, 60, 0
3, 46393, Note_on_c, 1, 64, 0
3, 46590, Note_on_c, 1, 55, 0
3, 46789, Note_on_c, 1, 74, 73
3, 46797, Control_c, 1, 64, 0
3, 46799, Note_on_c, 1, 67, 77
3, 46815, Note_on_c, 1, 62, 58
3, 46824, Note_on_c, 1, 64, 60
3, 46831, Note_on_c, 1, 55, 61
3, 47151, Control_c, 1, 64, 127
3, 47343, Note_on_c, 1, 67, 0
3, 47345, Note_on_c, 1, 74, 0
3, 47433, Note_on_c, 1, 55, 0
3, 47450, Note_on_c, 1, 64, 0
3, 47517, Note_on_c, 1, 62, 0
3, 48563, Control_c, 1, 64, 0
3, 48575, Note_on_c, 1, 57, 54
3, 48584, Note_on_c, 1, 60, 40
3, 48586, Note_on_c, 1, 52, 51
3, 48614, Note_on_c, 1, 67, 31
3, 48718, Note_on_c, 1, 57, 0
3, 48725, Note_on_c, 1, 60, 0
3, 48737, Note_on_c, 1, 67, 0
3, 48742, Note_on_c, 1, 52, 0
3, 48830, Note_on_c, 1, 50, 32
3, 49062, Note_on_c, 1, 50, 0
3, 49124, Note_on_c, 1, 57, 56
3, 49131, Note_on_c, 1, 67, 46
3, 49133, Note_on_c, 1, 52, 42
3, 49137, Note_on_c, 1, 60, 40
3, 49187, Note_on_c, 1, 64, 24
3, 49374, Control_c, 1, 64, 127
3, 49436, Note_on_c, 1, 64, 0
3, 49640, Note_on_c, 1, 60, 0
3, 49647, Note_on_c, 1, 57, 0
3, 49657, Note_on_c, 1, 67, 0
3, 49716, Note_on_c, 1, 52, 0
3, 49916, Note_on_c, 1, 45, 0
3, 49957, Control_c, 1, 64, 0
3, 49960, Note_on_c, 1, 57, 44
3, 49962, Note_on_c, 1, 50, 37
3, 49964, Note_on_c, 1, 65, 43
3, 49978, Note_on_c, 1, 60, 28
3, 50581, Note_on_c, 1, 38, 42
3, 50793, Note_on_c, 1, 60, 0
3, 50838, Control_c, 1, 64, 127
3, 50883, Note_on_c, 1, 65, 0
3, 50949, Note_on_c, 1, 57, 0
3, 51013, Note_on_c, 1, 50, 0
3, 51828, Control_c, 1, 64, 0
3, 51877, Note_on_c, 1, 50, 38
3, 51903, Note_on_c, 1, 53, 25
3, 51908, Note_on_c, 1, 60, 22
3, 52151, Note_on_c, 1, 38, 0
3, 52503, Note_on_c, 1, 38, 57
3, 52744, Control_c, 1, 64, 127
3, 53320, Note_on_c, 1, 38, 0
3, 53684, Note_on_c, 1, 53, 0
3, 53764, Note_on_c, 1, 50, 0
3, 53800, Note_on_c, 1, 60, 0
3, 54633, Control_c, 1, 64, 0
3, 54717, Note_on_c, 1, 67, 63
3, 54720, Note_on_c, 1, 58, 53
3, 54724, Note_on_c, 1, 48, 45
3, 54728, Note_on_c, 1, 63, 40
3, 55075, Control_c, 1, 64, 127
3, 55159, Note_on_c, 1, 67, 0
3, 55398, Note_on_c, 1, 63, 0
3, 55611, Note_on_c, 1, 58, 0
3, 56208, Note_on_c, 1, 48, 0
3, 56277, Note_on_c, 1, 74, 81
3, 56648, Note_on_c, 1, 74, 0
3, 56856, Note_on_c, 1, 74, 65
3, 57451, Note_on_c, 1, 62, 44
3, 57456, Control_c, 1, 64, 0
3, 57458, Note_on_c, 1, 66, 35
3, 57486, Note_on_c, 1, 51, 40
3, 57505, Note_on_c, 1, 57, 34
3, 57523, Note_on_c, 1, 69, 36
3, 58074, Control_c, 1, 64, 127
3, 58586, Note_on_c, 1, 69, 0
3, 58744, Note_on_c, 1, 57, 0
3, 58765, Note_on_c, 1, 51, 0
3, 58882, Note_on_c, 1, 62, 0
3, 58987, Note_on_c, 1, 66, 0
3, 59163, Note_on_c, 1, 74, 0
3, 59450, Control_c, 1, 64, 0
3, 59497, Note_on_c, 1, 66, 32
3, 59512, Note_on_c, 1, 57, 35
3, 59515, Note_on_c, 1, 69, 44
3, 59524, Note_on_c, 1, 62, 32
3, 59531, Note_on_c, 1, 51, 33
3, 59696, Control_c, 1, 64, 127
3, 59716, Note_on_c, 1, 69, 0
3, 59809, Note_on_c, 1, 66, 0
3, 59939, Note_on_c, 1, 62, 0
3, 60218, Note_on_c, 1, 57, 0
3, 60473, Control_c, 1, 64, 0
3, 60476, Note_on_c, 1, 60, 32
3, 60487, Note_on_c, 1, 62, 34
3, 60488, Note_on_c, 1, 57, 24
3, 60490, Note_on_c, 1, 65, 34
3, 60837, Note_on_c, 1, 65, 0
3, 60862, Note_on_c, 1, 60, 0
3, 60878, Note_on_c, 1, 57, 0
3, 60893, Note_on_c, 1, 62, 0
3, 61421, Note_on_c, 1, 57, 31
3, 61426, Note_on_c, 1, 65, 35
3, 61428, Note_on_c, 1, 62, 48
3, 61443, Note_on_c, 1, 60, 33
3, 61470, Note_on_c, 1, 51, 0
3, 62009, Note_on_c, 1, 50, 12
3, 62069, Note_on_c, 1, 65, 0
3, 62104, Note_on_c, 1, 57, 0
3, 62118, Note_on_c, 1, 62, 0
3, 62140, Note_on_c, 1, 60, 0
3, 62174, Note_on_c, 1, 51, 19
3, 62241, Note_on_c, 1, 52, 55
3, 62247, Note_on_c, 1, 51, 0
3, 62278, Note_on_c, 1, 50, 0
3, 62365, Note_on_c, 1, 52, 0
3, 62394, Note_on_c, 1, 53, 53
3, 62401, Note_on_c, 1, 57, 35
3, 62410, Note_on_c, 1, 65, 39
3, 62426, Note_on_c, 1, 60, 38
3, 62440, Note_on_c, 1, 62, 32
3, 62836, Note_on_c, 1, 65, 0
3, 62859, Note_on_c, 1, 60, 0
3, 62914, Note_on_c, 1, 62, 0
3, 62921, Note_on_c, 1, 57, 0
3, 63345, Note_on_c, 1, 65, 32
3, 63370, Note_on_c, 1, 60, 29
3, 63385, Note_on_c, 1, 62, 28
3, 63410, Note_on_c, 1, 57, 15
3, 63690, Note_on_c, 1, 65, 0
3, 63785, Note_on_c, 1, 60, 0
3, 63834, Note_on_c, 1, 57, 0
3, 63926, Note_on_c, 1, 62, 0
3, 64211, Note_on_c, 1, 53, 0
3, 64286, Note_on_c, 1, 62, 32
3, 64288, Note_on_c, 1, 57, 47
3, 64301, Note_on_c, 1, 65, 48
3, 64306, Note_on_c, 1, 60, 35
3, 64760, Note_on_c, 1, 62, 0
3, 64801, Note_on_c, 1, 65, 0
3, 64890, Note_on_c, 1, 60, 0
3, 64908, Note_on_c, 1, 42, 33
3, 64961, Note_on_c, 1, 57, 0
3, 65040, Note_on_c, 1, 43, 41
3, 65130, Note_on_c, 1, 42, 0
3, 65198, Note_on_c, 1, 43, 0
3, 65230, Note_on_c, 1, 44, 40
3, 65253, Note_on_c, 1, 63, 28
3, 65269, Note_on_c, 1, 54, 31
3, 65286, Note_on_c, 1, 59, 48
3, 65300, Note_on_c, 1, 58, 32
3, 65735, Note_on_c, 1, 59, 0
3, 65756, Note_on_c, 1, 63, 0
3, 65774, Note_on_c, 1, 58, 0
3, 65814, Note_on_c, 1, 54, 0
3, 66173, Note_on_c, 1, 54, 31
3, 66224, Note_on_c, 1, 59, 45
3, 66233, Note_on_c, 1, 63, 17
3, 66768, Note_on_c, 1, 59, 0
3, 66840, Note_on_c, 1, 63, 0
3, 66942, Note_on_c, 1, 54, 0
3, 67148, Note_on_c, 1, 53, 36
3, 67161, Note_on_c, 1, 63, 23
3, 67175, Note_on_c, 1, 59, 40
3, 67724, Note_on_c, 1, 59, 0
3, 67754, Note_on_c, 1, 53, 0
3, 67843, Note_on_c, 1, 63, 0
3, 68139, Note_on_c, 1, 37, 42
3, 68143, Note_on_c, 1, 53, 51
3, 68146, Note_on_c, 1, 44, 0
3, 68148, Note_on_c, 1, 63, 32
3, 68158, Note_on_c, 1, 59, 49
3, 68606, Note_on_c, 1, 59, 0
3, 68650, Note_on_c, 1, 53, 0
3, 68961, Note_on_c, 1, 63, 0
3, 69072, Note_on_c, 1, 53, 41
3, 69075, Note_on_c, 1, 61, 37
3, 69092, Note_on_c, 1, 58, 35
3, 69660, Note_on_c, 1, 53, 0
3, 69727, Note_on_c, 1, 58, 0
3, 69783, Note_on_c, 1, 61, 0
3, 69994, Note_on_c, 1, 37, 0
3, 70043, Note_on_c, 1, 58, 56
3, 70050, Note_on_c, 1, 53, 57
3, 70052, Note_on_c, 1, 49, 72
3, 70054, Note_on_c, 1, 61, 56
3, 70499, Note_on_c, 1, 53, 0
3, 70526, Note_on_c, 1, 58, 0
3, 70568, Note_on_c, 1, 61, 0
3, 71024, Note_on_c, 1, 61, 42
3, 71034, Note_on_c, 1, 53, 34
3, 71049, Note_on_c, 1, 58, 36
3, 71194, Note_on_c, 1, 53, 0
3, 71453, Control_c, 1, 64, 127
3, 71510, Note_on_c, 1, 58, 0
3, 71714, Note_on_c, 1, 61, 0
3, 71895, Note_on_c, 1, 56, 62
3, 71897, Note_on_c, 1, 49, 0
3, 71911, Control_c, 1, 64, 0
3, 71916, Note_on_c, 1, 61, 74
3, 71930, Note_on_c, 1, 58, 76
3, 72338, Note_on_c, 1, 56, 0
3, 72548, Control_c, 1, 64, 127
3, 72590, Note_on_c, 1, 51, 39
3, 72766, Note_on_c, 1, 58, 0
3, 72770, Note_on_c, 1, 61, 0
3, 72794, Control_c, 1, 64, 0
3, 72842, Note_on_c, 1, 51, 0
3, 72918, Note_on_c, 1, 52, 33
3, 72926, Note_on_c, 1, 62, 57
3, 72944, Note_on_c, 1, 55, 37
3, 72946, Note_on_c, 1, 59, 49
3, 73498, Note_on_c, 1, 59, 0
3, 73502, Note_on_c, 1, 55, 0
3, 73553, Note_on_c, 1, 62, 0
3, 73773, Note_on_c, 1, 52, 0
3, 73877, Note_on_c, 1, 62, 64
3, 73882, Note_on_c, 1, 55, 60
3, 73889, Note_on_c, 1, 59, 60
3, 73898, Note_on_c, 1, 45, 45
3, 74276, Note_on_c, 1, 59, 0
3, 74481, Note_on_c, 1, 55, 0
3, 74634, Note_on_c, 1, 62, 0
3, 74843, Note_on_c, 1, 61, 40
3, 74864, Note_on_c, 1, 64, 39
3, 74869, Note_on_c, 1, 58, 35
3, 74876, Note_on_c, 1, 55, 25
3, 75353, Note_on_c, 1, 61, 0
3, 75366, Note_on_c, 1, 55, 0
3, 75367, Note_on_c, 1, 64, 0
3, 75401, Note_on_c, 1, 58, 0
3, 75806, Note_on_c, 1, 33, 50
3, 75820, Note_on_c, 1, 64, 49
3, 75839, Note_on_c, 1, 55, 46
3, 75846, Note_on_c, 1, 58, 36
3, 75866, Note_on_c, 1, 61, 31
3, 76237, Note_on_c, 1, 55, 0
3, 76367, Note_on_c, 1, 64, 0
3, 76390, Note_on_c, 1, 61, 0
3, 76464, Note_on_c, 1, 58, 0
3, 76482, Control_c, 1, 64, 127
3, 76680, Note_on_c, 1, 33, 0
3, 76693, Control_c, 1, 64, 0
3, 76756, Note_on_c, 1, 64, 48
3, 76760, Note_on_c, 1, 54, 45
3, 76767, Note_on_c, 1, 45, 0
3, 76775, Note_on_c, 1, 57, 55
3, 76790, Note_on_c, 1, 38, 45
3, 76790, Note_on_c, 1, 61, 38
3, 77002, Note_on_c, 1, 57, 0
3, 77027, Note_on_c, 1, 54, 0
3, 77052, Note_on_c, 1, 64, 0
3, 77124, Note_on_c, 1, 61, 0
3, 77728, Note_on_c, 1, 54, 46
3, 77731, Note_on_c, 1, 64, 56
3, 77743, Note_on_c, 1, 61, 42
3, 77752, Note_on_c, 1, 57, 53
3, 78164, Note_on_c, 1, 57, 0
3, 78170, Note_on_c, 1, 64, 0
3, 78171, Note_on_c, 1, 54, 0
3, 78219, Note_on_c, 1, 61, 0
3, 78307, Note_on_c, 1, 38, 0
3, 78382, Note_on_c, 1, 52, 92
3, 78454, Note_on_c, 1, 43, 36
3, 78525, Note_on_c, 1, 43, 0
3, 78729, Note_on_c, 1, 54, 47
3, 78752, Note_on_c, 1, 64, 47
3, 78766, Note_on_c, 1, 61, 42
3, 78778, Note_on_c, 1, 57, 46
3, 79065, Note_on_c, 1, 57, 0
3, 79113, Note_on_c, 1, 54, 0
3, 79192, Note_on_c, 1, 64, 0
3, 79229, Note_on_c, 1, 61, 0
3, 79287, Control_c, 1, 64, 127
3, 79588, Control_c, 1, 64, 0
3, 79684, Note_on_c, 1, 64, 55
3, 79685, Note_on_c, 1, 54, 49
3, 79710, Note_on_c, 1, 61, 44
3, 79713, Note_on_c, 1, 45, 51
3, 79730, Note_on_c, 1, 57, 46
3, 79734, Note_on_c, 1, 52, 0
3, 80183, Note_on_c, 1, 64, 0
3, 80253, Note_on_c, 1, 57, 0
3, 80294, Note_on_c, 1, 61, 0
3, 80348, Note_on_c, 1, 54, 0
3, 80566, Note_on_c, 1, 45, 0
3, 80607, Note_on_c, 1, 54, 48
3, 80628, Note_on_c, 1, 63, 34
3, 80653, Note_on_c, 1, 44, 37
3, 80663, Note_on_c, 1, 59, 38
3, 81072, Note_on_c, 1, 63, 0
3, 81082, Note_on_c, 1, 59, 0
3, 81131, Note_on_c, 1, 54, 0
3, 81521, Note_on_c, 1, 54, 49
3, 81559, Note_on_c, 1, 63, 33
3, 81575, Note_on_c, 1, 59, 55
3, 82034, Note_on_c, 1, 59, 0
3, 82075, Control_c, 1, 64, 127
3, 82108, Note_on_c, 1, 63, 0
3, 82133, Note_on_c, 1, 37, 47
3, 82161, Note_on_c, 1, 54, 0
3, 82186, Note_on_c, 1, 44, 0
3, 82288, Control_c, 1, 64, 0
3, 82606, Note_on_c, 1, 53, 41
3, 82608, Note_on_c, 1, 63, 30
3, 82620, Note_on_c, 1, 59, 53
3, 83009, Control_c, 1, 64, 127
3, 83080, Note_on_c, 1, 59, 0
3, 83089, Note_on_c, 1, 53, 0
3, 83118, Note_on_c, 1, 63, 0
3, 83516, Note_on_c, 1, 63, 46
3, 83522, Note_on_c, 1, 53, 54
3, 83524, Note_on_c, 1, 59, 59
3, 83601, Note_on_c, 1, 37, 0
3, 83775, Note_on_c, 1, 59, 0
3, 83881, Note_on_c, 1, 63, 0
3, 84044, Note_on_c, 1, 53, 0
3, 84387, Control_c, 1, 64, 0
3, 84446, Note_on_c, 1, 61, 74
3, 84447, Note_on_c, 1, 54, 70
3, 84449, Note_on_c, 1, 58, 70
3, 84456, Note_on_c, 1, 53, 80
3, 85392, Note_on_c, 1, 42, 58
3, 85834, Control_c, 1, 64, 127
3, 85913, Note_on_c, 1, 53, 0
3, 86024, Note_on_c, 1, 49, 40
3, 86056, Note_on_c, 1, 53, 77
3, 86151, Control_c, 1, 64, 0
3, 86220, Note_on_c, 1, 54, 0
3, 86295, Note_on_c, 1, 58, 0
3, 86487, Control_c, 1, 64, 127
3, 86732, Note_on_c, 1, 54, 76
3, 86846, Note_on_c, 1, 61, 0
3, 87189, Note_on_c, 1, 42, 0
3, 87239, Note_on_c, 1, 53, 0
3, 87246, Control_c, 1, 64, 0
3, 87339, Note_on_c, 1, 58, 70
3, 87355, Note_on_c, 1, 42, 34
3, 87457, Control_c, 1, 64, 127
3, 87476, Note_on_c, 1, 54, 0
3, 87805, Note_on_c, 1, 49, 0
3, 87849, Note_on_c, 1, 58, 0
3, 87916, Control_c, 1, 64, 0
3, 87964, Note_on_c, 1, 58, 21
3, 87973, Note_on_c, 1, 42, 0
3, 87999, Note_on_c, 1, 53, 49
3, 88010, Note_on_c, 1, 55, 43
3, 88024, Note_on_c, 1, 62, 34
3, 88039, Note_on_c, 1, 48, 46
3, 88133, Note_on_c, 1, 55, 0
3, 88170, Note_on_c, 1, 62, 0
3, 88251, Control_c, 1, 64, 127
3, 88256, Note_on_c, 1, 58, 0
3, 88342, Note_on_c, 1, 53, 0
3, 88594, Note_on_c, 1, 48, 0
3, 88608, Note_on_c, 1, 58, 36
3, 88613, Note_on_c, 1, 65, 41
3, 88627, Note_on_c, 1, 55, 49
3, 88652, Note_on_c, 1, 62, 48
3, 88714, Note_on_c, 1, 53, 38
3, 88791, Note_on_c, 1, 53, 0
3, 88796, Note_on_c, 1, 55, 0
3, 88810, Note_on_c, 1, 62, 0
3, 88823, Note_on_c, 1, 58, 0
3, 88867, Note_on_c, 1, 65, 0
3, 89205, Control_c, 1, 64, 0
3, 89286, Note_on_c, 1, 69, 54
3, 89288, Note_on_c, 1, 58, 56
3, 89289, Note_on_c, 1, 57, 51
3, 89314, Note_on_c, 1, 62, 58
3, 89331, Note_on_c, 1, 65, 39
3, 89416, Control_c, 1, 64, 127
3, 89453, Note_on_c, 1, 62, 0
3, 89474, Note_on_c, 1, 58, 0
3, 89484, Note_on_c, 1, 65, 0
3, 89491, Note_on_c, 1, 57, 0
3, 89550, Note_on_c, 1, 69, 0
3, 89928, Control_c, 1, 64, 0
3, 89931, Note_on_c, 1, 72, 45
3, 89935, Note_on_c, 1, 68, 46
3, 89951, Note_on_c, 1, 64, 60
3, 89963, Note_on_c, 1, 58, 50
3, 89995, Note_on_c, 1, 66, 37
3, 90208, Note_on_c, 1, 66, 0
3, 90246, Note_on_c, 1, 72, 0
3, 90283, Note_on_c, 1, 64, 0
3, 90298, Control_c, 1, 64, 127
3, 90301, Note_on_c, 1, 68, 0
3, 90528, Note_on_c, 1, 48, 53
3, 90530, Note_on_c, 1, 73, 36
3, 90537, Note_on_c, 1, 64, 50
3, 90553, Note_on_c, 1, 68, 36
3, 90576, Note_on_c, 1, 70, 29
3, 90785, Note_on_c, 1, 68, 0
3, 90817, Note_on_c, 1, 58, 0
3, 90820, Note_on_c, 1, 70, 0
3, 90864, Note_on_c, 1, 64, 0
3, 90973, Note_on_c, 1, 73, 0
3, 91076, Control_c, 1, 64, 0
3, 91179, Note_on_c, 1, 58, 53
3, 91185, Note_on_c, 1, 70, 49
3, 91209, Note_on_c, 1, 64, 48
3, 91250, Note_on_c, 1, 68, 27
3, 91357, Control_c, 1, 64, 127
3, 91378, Note_on_c, 1, 68, 0
3, 91415, Note_on_c, 1, 64, 0
3, 91537, Note_on_c, 1, 58, 0
3, 91589, Note_on_c, 1, 70, 0
3, 91744, Note_on_c, 1, 48, 0
3, 91829, Note_on_c, 1, 72, 56
3, 91843, Note_on_c, 1, 57, 50
3, 91846, Note_on_c, 1, 65, 60
3, 91848, Note_on_c, 1, 69, 53
3, 91850, Note_on_c, 1, 60, 47
3, 91855, Control_c, 1, 64, 0
3, 91922, Note_on_c, 1, 71, 30
3, 92003, Note_on_c, 1, 71, 0
3, 92135, Note_on_c, 1, 57, 0
3, 92192, Control_c, 1, 64, 127
3, 92760, Note_on_c, 1, 48, 57
3, 92774, Note_on_c, 1, 47, 58
3, 92790, Control_c, 1, 64, 0
3, 92832, Note_on_c, 1, 47, 0
3, 93143, Control_c, 1, 64, 127
3, 93263, Note_on_c, 1, 69, 0
3, 93370, Note_on_c, 1, 72, 0
3, 93953, Note_on_c, 1, 65, 0
3, 94025, Control_c, 1, 64, 0
3, 94066, Note_on_c, 1, 46, 48
3, 94067, Note_on_c, 1, 48, 0
3, 94103, Note_on_c, 1, 60, 0
3, 94750, Note_on_c, 1, 55, 68
3, 94756, Note_on_c, 1, 65, 62
3, 94786, Note_on_c, 1, 60, 34
3, 94810, Note_on_c, 1, 55, 0
3, 94833, Note_on_c, 1, 65, 0
3, 94856, Note_on_c, 1, 60, 0
3, 95704, Note_on_c, 1, 44, 33
3, 95916, Note_on_c, 1, 46, 0
3, 95938, Note_on_c, 1, 44, 0
3, 95989, Note_on_c, 1, 54, 33
3, 95995, Note_on_c, 1, 63, 37
3, 96007, Note_on_c, 1, 45, 43
3, 96011, Note_on_c, 1, 57, 46
3, 96021, Note_on_c, 1, 60, 28
3, 96972, Control_c, 1, 64, 127
3, 97103, Note_on_c, 1, 60, 0
3, 97139, Note_on_c, 1, 57, 0
3, 97222, Note_on_c, 1, 63, 0
3, 97461, Note_on_c, 1, 54, 0
3, 97631, Note_on_c, 1, 39, 31
3, 97756, Note_on_c, 1, 45, 0
3, 97837, Control_c, 1, 64, 0
3, 97871, Note_on_c, 1, 39, 0
3, 97885, Note_on_c, 1, 54, 39
3, 97887, Note_on_c, 1, 42, 32
3, 97908, Note_on_c, 1, 51, 44
3, 97911, Note_on_c, 1, 60, 32
3, 97941, Note_on_c, 1, 57, 39
3, 98849, Note_on_c, 1, 60, 0
3, 98911, Note_on_c, 1, 57, 0
3, 98955, Note_on_c, 1, 51, 0
3, 99001, Control_c, 1, 64, 127
3, 99170, Note_on_c, 1, 54, 0
3, 99478, Control_c, 1, 64, 0
3, 99527, Note_on_c, 1, 55, 56
3, 99532, Note_on_c, 1, 62, 56
3, 99534, Note_on_c, 1, 58, 42
3, 99546, Note_on_c, 1, 53, 49
3, 99585, Note_on_c, 1, 42, 0
3, 99591, Note_on_c, 1, 43, 48
3, 100361, Control_c, 1, 64, 127
3, 101134, Note_on_c, 1, 53, 0
3, 101139, Note_on_c, 1, 55, 0
3, 101215, Note_on_c, 1, 62, 0
3, 101250, Note_on_c, 1, 58, 0
3, 101701, Control_c, 1, 64, 0
3, 101767, Note_on_c, 1, 43, 0
3, 101804, Note_on_c, 1, 63, 61
3, 101824, Note_on_c, 1, 59, 69
3, 101834, Note_on_c, 1, 67, 64
3, 101870, Note_on_c, 1, 37, 39
3, 102195, Control_c, 1, 64, 127
3, 102512, Note_on_c, 1, 37, 0
3, 102952, Note_on_c, 1, 59, 0
3, 103214, Note_on_c, 1, 63, 0
3, 103327, Note_on_c, 1, 67, 0
3, 103624, Control_c, 1, 64, 0
3, 103754, Note_on_c, 1, 58, 38
3, 103772, Note_on_c, 1, 48, 38
3, 103788, Note_on_c, 1, 64, 48
3, 103793, Note_on_c, 1, 62, 48
3, 103807, Note_on_c, 1, 36, 36
3, 104031, Control_c, 1, 64, 127
3, 104473, Note_on_c, 1, 36, 0
3, 104620, Note_on_c, 1, 64, 0
3, 104642, Note_on_c, 1, 58, 0
3, 104644, Note_on_c, 1, 62, 0
3, 104654, Note_on_c, 1, 48, 0
3, 105689, Control_c, 1, 64, 0
3, 105847, Control_c, 1, 64, 127
3, 106241, Note_on_c, 1, 64, 68
3, 106248, Note_on_c, 1, 72, 58
3, 106257, Note_on_c, 1, 56, 39
3, 106259, Note_on_c, 1, 60, 55
3, 106261, Note_on_c, 1, 46, 48
3, 106271, Control_c, 1, 64, 0
3, 106275, Note_on_c, 1, 67, 56
3, 106660, Control_c, 1, 64, 127
3, 106797, Note_on_c, 1, 56, 0
3, 106838, Note_on_c, 1, 72, 0
3, 106863, Note_on_c, 1, 67, 0
3, 106875, Note_on_c, 1, 64, 0
3, 106933, Note_on_c, 1, 60, 0
3, 107028, Note_on_c, 1, 46, 0
3, 107510, Note_on_c, 1, 61, 38
3, 107525, Control_c, 1, 64, 0
3, 107560, Note_on_c, 1, 55, 56
3, 107586, Note_on_c, 1, 45, 35
3, 107590, Note_on_c, 1, 52, 41
3, 107663, Note_on_c, 1, 61, 0
3, 107674, Note_on_c, 1, 64, 24
3, 107699, Note_on_c, 1, 60, 38
3, 108054, Control_c, 1, 64, 127
3, 108239, Note_on_c, 1, 52, 0
3, 108359, Note_on_c, 1, 45, 0
3, 108498, Note_on_c, 1, 60, 0
3, 108579, Note_on_c, 1, 64, 0
3, 108628, Note_on_c, 1, 55, 0
3, 109144, Note_on_c, 1, 54, 44
3, 109149, Note_on_c, 1, 65, 51
3, 109152, Note_on_c, 1, 58, 50
3, 109165, Control_c, 1, 64, 0
3, 109172, Note_on_c, 1, 60, 35
3, 109209, Note_on_c, 1, 38, 36
3, 110147, Note_on_c, 1, 44, 79
3, 110252, Note_on_c, 1, 38, 0
3, 110961, Note_on_c, 1, 65, 0
3, 111051, Note_on_c, 1, 60, 0
3, 111058, Note_on_c, 1, 42, 38
3, 111106, Note_on_c, 1, 58, 0
3, 111120, Note_on_c, 1, 54, 0
3, 111295, Note_on_c, 1, 44, 0
3, 111305, Note_on_c, 1, 42, 0
3, 111347, Note_on_c, 1, 43, 44
3, 111370, Note_on_c, 1, 53, 37
3, 111375, Note_on_c, 1, 58, 30
3, 111388, Note_on_c, 1, 62, 53
3, 112644, Note_on_c, 1, 53, 0
3, 112729, Control_c, 1, 64, 127
3, 112730, Note_on_c, 1, 43, 0
3, 112825, Note_on_c, 1, 58, 0
3, 112924, Note_on_c, 1, 34, 52
3, 113054, Note_on_c, 1, 62, 0
3, 113118, Control_c, 1, 64, 0
3, 113135, Note_on_c, 1, 34, 0
3, 113255, Note_on_c, 1, 36, 48
3, 113287, Note_on_c, 1, 52, 26
3, 113295, Note_on_c, 1, 56, 21
3, 113310, Note_on_c, 1, 61, 28
3, 113343, Note_on_c, 1, 64, 15
3, 113871, Note_on_c, 1, 24, 54
3, 114135, Note_on_c, 1, 52, 0
3, 114559, Note_on_c, 1, 56, 0
3, 114600, Control_c, 1, 64, 127
3, 114614, Note_on_c, 1, 61, 0
3, 114953, Note_on_c, 1, 64, 0
3, 115059, Control_c, 1, 64, 0
3, 115115, Note_on_c, 1, 24, 0
3, 115150, Note_on_c, 1, 60, 30
3, 115157, Note_on_c, 1, 55, 45
3, 115159, Note_on_c, 1, 57, 42
3, 115223, Note_on_c, 1, 36, 0
3, 115793, Note_on_c, 1, 48, 68
3, 115832, Note_on_c, 1, 47, 59
3, 115892, Note_on_c, 1, 47, 0
3, 116784, Note_on_c, 1, 57, 0
3, 116787, Note_on_c, 1, 55, 0
3, 116812, Note_on_c, 1, 60, 0
3, 117129, Note_on_c, 1, 55, 40
3, 117146, Note_on_c, 1, 57, 38
3, 117154, Note_on_c, 1, 60, 29
3, 117625, Note_on_c, 1, 48, 0
3, 117762, Note_on_c, 1, 47, 59
3, 117776, Note_on_c, 1, 48, 66
3, 117822, Note_on_c, 1, 47, 0
3, 118480, Note_on_c, 1, 57, 0
3, 118697, Note_on_c, 1, 55, 0
3, 118857, Note_on_c, 1, 60, 0
3, 118975, Note_on_c, 1, 62, 50
3, 118996, Note_on_c, 1, 58, 33
3, 119000, Note_on_c, 1, 53, 37
3, 119075, Note_on_c, 1, 48, 0
3, 119640, Note_on_c, 1, 48, 63
3, 119661, Note_on_c, 1, 47, 66
3, 119721, Note_on_c, 1, 47, 0
3, 120483, Note_on_c, 1, 53, 0
3, 120677, Note_on_c, 1, 58, 0
3, 120825, Note_on_c, 1, 62, 0
3, 120914, Note_on_c, 1, 55, 45
3, 120921, Note_on_c, 1, 64, 43
3, 120925, Note_on_c, 1, 61, 40
3, 120930, Note_on_c, 1, 58, 34
3, 121519, Note_on_c, 1, 48, 0
3, 121552, Note_on_c, 1, 39, 49
3, 121745, Note_on_c, 1, 39, 0
3, 121787, Note_on_c, 1, 55, 0
3, 121847, Note_on_c, 1, 40, 43
3, 121993, Note_on_c, 1, 61, 0
3, 122074, Note_on_c, 1, 58, 0
3, 122521, Note_on_c, 1, 64, 0
3, 122754, Note_on_c, 1, 40, 0
3, 122819, Note_on_c, 1, 41, 26
3, 122824, Note_on_c, 1, 60, 35
3, 122866, Note_on_c, 1, 55, 19
3, 123077, Note_on_c, 1, 55, 0
3, 123095, Note_on_c, 1, 60, 0
3, 123794, Note_on_c, 1, 33, 37
3, 123820, Note_on_c, 1, 41, 0
3, 124713, Note_on_c, 1, 33, 0
3, 124781, Note_on_c, 1, 34, 40
3, 124792, Note_on_c, 1, 65, 40
3, 124797, Note_on_c, 1, 57, 37
3, 124801, Note_on_c, 1, 58, 29
3, 124806, Note_on_c, 1, 62, 32
3, 125554, Note_on_c, 1, 34, 0
3, 125742, Note_on_c, 1, 46, 81
3, 125823, Note_on_c, 1, 57, 0
3, 126194, Note_on_c, 1, 58, 0
3, 126353, Note_on_c, 1, 65, 0
3, 126541, Note_on_c, 1, 62, 0
3, 126555, Note_on_c, 1, 46, 0
3, 126668, Note_on_c, 1, 45, 47
3, 126677, Note_on_c, 1, 55, 43
3, 126680, Note_on_c, 1, 60, 35
3, 126719, Note_on_c, 1, 64, 31
3, 127375, Note_on_c, 1, 55, 0
3, 127393, Control_c, 1, 64, 127
3, 127499, Control_c, 1, 64, 0
3, 127559, Note_on_c, 1, 60, 0
3, 127562, Note_on_c, 1, 64, 0
3, 127620, Note_on_c, 1, 45, 0
3, 127634, Note_on_c, 1, 39, 35
3, 127662, Note_on_c, 1, 55, 39
3, 128108, Note_on_c, 1, 55, 0
3, 128116, Control_c, 1, 64, 127
3, 128319, Note_on_c, 1, 54, 60
3, 128345, Control_c, 1, 64, 0
3, 128382, Note_on_c, 1, 38, 49
3, 128387, Note_on_c, 1, 39, 0
3, 129051, Control_c, 1, 64, 127
3, 129083, Note_on_c, 1, 54, 0
3, 129248, Note_on_c, 1, 38, 0
3, 129262, Control_c, 1, 64, 0
3, 129276, Note_on_c, 1, 54, 50
3, 129303, Note_on_c, 1, 44, 53
3, 129304, Note_on_c, 1, 60, 48
3, 129308, Note_on_c, 1, 64, 57
3, 129903, Note_on_c, 1, 64, 0
3, 130058, Control_c, 1, 64, 127
3, 130095, Note_on_c, 1, 60, 0
3, 130218, Note_on_c, 1, 54, 0
3, 130246, Note_on_c, 1, 42, 42
3, 130325, Note_on_c, 1, 44, 0
3, 130374, Control_c, 1, 64, 0
3, 130513, Note_on_c, 1, 42, 0
3, 130531, Note_on_c, 1, 62, 44
3, 130533, Note_on_c, 1, 53, 35
3, 130568, Note_on_c, 1, 43, 38
3, 130577, Note_on_c, 1, 58, 25
3, 130832, Note_on_c, 1, 62, 0
3, 130899, Note_on_c, 1, 58, 0
3, 130950, Note_on_c, 1, 53, 0
3, 131367, Note_on_c, 1, 43, 0
3, 131423, Note_on_c, 1, 38, 38
3, 132157, Note_on_c, 1, 50, 54
3, 132161, Note_on_c, 1, 58, 37
3, 132171, Note_on_c, 1, 53, 40
3, 132217, Note_on_c, 1, 50, 0
3, 132251, Note_on_c, 1, 53, 0
3, 132304, Note_on_c, 1, 58, 0
3, 132319, Note_on_c, 1, 38, 0
3, 132365, Note_on_c, 1, 31, 32
3, 133090, Note_on_c, 1, 58, 75
3, 133106, Note_on_c, 1, 55, 74
3, 133111, Note_on_c, 1, 65, 58
3, 133150, Note_on_c, 1, 62, 32
3, 133164, Note_on_c, 1, 55, 0
3, 133199, Note_on_c, 1, 58, 0
3, 133222, Note_on_c, 1, 62, 0
3, 133224, Note_on_c, 1, 65, 0
3, 133266, Note_on_c, 1, 31, 0
3, 133335, Note_on_c, 1, 38, 54
3, 134044, Note_on_c, 1, 34, 35
3, 134125, Note_on_c, 1, 38, 0
3, 134271, Note_on_c, 1, 34, 0
3, 134328, Note_on_c, 1, 64, 37
3, 134331, Note_on_c, 1, 55, 50
3, 134336, Note_on_c, 1, 36, 34
3, 134343, Note_on_c, 1, 58, 36
3, 134919, Note_on_c, 1, 55, 0
3, 134950, Note_on_c, 1, 24, 66
3, 135001, Control_c, 1, 64, 127
3, 135098, Note_on_c, 1, 58, 0
3, 135153, Note_on_c, 1, 64, 0
3, 135355, Note_on_c, 1, 24, 0
3, 135441, Note_on_c, 1, 36, 0
3, 136202, Control_c, 1, 64, 0
3, 136262, Note_on_c, 1, 67, 75
3, 136263, Note_on_c, 1, 56, 58
3, 136265, Note_on_c, 1, 64, 75
3, 136283, Note_on_c, 1, 60, 64
3, 137152, Note_on_c, 1, 56, 0
3, 137179, Note_on_c, 1, 60, 0
3, 137195, Note_on_c, 1, 64, 0
3, 137223, Note_on_c, 1, 46, 46
3, 137316, Note_on_c, 1, 67, 0
3, 137332, Control_c, 1, 64, 127
3, 137849, Note_on_c, 1, 46, 0
3, 138090, Control_c, 1, 64, 0
3, 138154, Note_on_c, 1, 55, 45
3, 138166, Note_on_c, 1, 45, 46
3, 138182, Note_on_c, 1, 60, 34
3, 138201, Note_on_c, 1, 64, 35
3, 138400, Note_on_c, 1, 55, 0
3, 138425, Control_c, 1, 64, 127
3, 138822, Note_on_c, 1, 60, 0
3, 138858, Note_on_c, 1, 45, 0
3, 138891, Note_on_c, 1, 52, 41
3, 139000, Note_on_c, 1, 52, 0
3, 139115, Note_on_c, 1, 59, 71
3, 139130, Control_c, 1, 64, 0
3, 139643, Control_c, 1, 64, 127
3, 139951, Note_on_c, 1, 59, 0
3, 139970, Note_on_c, 1, 64, 0
3, 140067, Control_c, 1, 64, 0
3, 140120, Note_on_c, 1, 60, 45
3, 140122, Note_on_c, 1, 64, 57
3, 140135, Note_on_c, 1, 57, 60
3, 140560, Control_c, 1, 64, 127
3, 140978, Note_on_c, 1, 57, 0
3, 141054, Control_c, 1, 64, 0
3, 141068, Note_on_c, 1, 54, 62
3, 141478, Control_c, 1, 64, 127
3, 141524, Note_on_c, 1, 60, 0
3, 141839, Note_on_c, 1, 64, 0
3, 141980, Note_on_c, 1, 54, 0
3, 142026, Control_c, 1, 64, 0
3, 142043, Note_on_c, 1, 53, 48
3, 142045, Note_on_c, 1, 57, 34
3, 142047, Note_on_c, 1, 65, 40
3, 142052, Note_on_c, 1, 60, 36
3, 142819, Control_c, 1, 64, 127
3, 142921, Note_on_c, 1, 53, 0
3, 142967, Note_on_c, 1, 50, 51
3, 142988, Note_on_c, 1, 60, 0
3, 143075, Note_on_c, 1, 65, 0
3, 143215, Note_on_c, 1, 57, 0
3, 143266, Note_on_c, 1, 50, 0
3, 143965, Control_c, 1, 64, 0
3, 143976, Note_on_c, 1, 53, 35
3, 143990, Note_on_c, 1, 62, 42
3, 144016, Note_on_c, 1, 57, 24
3, 144020, Note_on_c, 1, 45, 31
3, 144548, Control_c, 1, 64, 127
3, 144831, Control_c, 1, 64, 0
3, 144879, Note_on_c, 1, 45, 0
3, 144917, Note_on_c, 1, 38, 47
3, 144988, Note_on_c, 1, 53, 0
3, 144993, Note_on_c, 1, 57, 0
3, 145218, Control_c, 1, 64, 127
3, 145227, Note_on_c, 1, 62, 0
3, 145801, Control_c, 1, 64, 0
3, 145811, Note_on_c, 1, 38, 0
3, 145884, Note_on_c, 1, 67, 43
3, 145885, Note_on_c, 1, 63, 37
3, 145889, Note_on_c, 1, 37, 34
3, 145917, Note_on_c, 1, 58, 21
3, 146208, Control_c, 1, 64, 127
3, 146237, Note_on_c, 1, 37, 0
3, 146820, Note_on_c, 1, 53, 39
3, 146938, Note_on_c, 1, 67, 0
3, 146941, Note_on_c, 1, 58, 0
3, 147017, Note_on_c, 1, 63, 0
3, 147272, Note_on_c, 1, 53, 0
3, 147792, Note_on_c, 1, 67, 52
3, 147793, Note_on_c, 1, 63, 34
3, 147795, Note_on_c, 1, 58, 37
3, 147800, Control_c, 1, 64, 0
3, 147804, Note_on_c, 1, 59, 48
3, 148135, Control_c, 1, 64, 127
3, 148464, Note_on_c, 1, 67, 0
3, 148469, Note_on_c, 1, 58, 0
3, 148545, Note_on_c, 1, 59, 0
3, 148673, Note_on_c, 1, 63, 0
3, 148735, Control_c, 1, 64, 0
3, 148791, Note_on_c, 1, 65, 57
3, 148793, Note_on_c, 1, 58, 50
3, 148796, Note_on_c, 1, 62, 57
3, 149212, Control_c, 1, 64, 127
3, 149704, Note_on_c, 1, 48, 50
3, 149724, Control_c, 1, 64, 0
3, 149826, Note_on_c, 1, 65, 0
3, 149838, Note_on_c, 1, 62, 0
3, 150005, Control_c, 1, 64, 127
3, 150007, Note_on_c, 1, 58, 0
3, 150588, Note_on_c, 1, 48, 0
3, 150641, Control_c, 1, 64, 0
3, 150669, Note_on_c, 1, 36, 38
3, 151350, Note_on_c, 1, 52, 60
3, 151365, Note_on_c, 1, 56, 37
3, 151368, Note_on_c, 1, 61, 39
3, 151373, Note_on_c, 1, 58, 44
3, 151500, Note_on_c, 1, 46, 17
3, 151612, Note_on_c, 1, 36, 0
3, 151912, Control_c, 1, 64, 127
3, 152135, Note_on_c, 1, 56, 0
3, 152163, Note_on_c, 1, 61, 0
3, 152223, Note_on_c, 1, 58, 0
3, 152297, Note_on_c, 1, 46, 0
3, 152309, Note_on_c, 1, 56, 34
3, 152313, Note_on_c, 1, 58, 33
3, 152322, Note_on_c, 1, 63, 71
3, 152457, Note_on_c, 1, 46, 37
3, 152557, Note_on_c, 1, 58, 0
3, 152580, Control_c, 1, 64, 0
3, 152582, Note_on_c, 1, 56, 0
3, 152630, Note_on_c, 1, 52, 0
3, 152653, Note_on_c, 1, 63, 0
3, 152741, Note_on_c, 1, 61, 53
3, 152755, Note_on_c, 1, 52, 33
3, 152832, Note_on_c, 1, 58, 30
3, 152846, Note_on_c, 1, 56, 20
3, 153096, Note_on_c, 1, 46, 0
3, 153156, Note_on_c, 1, 61, 0
3, 153159, Note_on_c, 1, 52, 0
3, 153239, Note_on_c, 1, 58, 0
3, 153246, Note_on_c, 1, 56, 0
3, 153320, Note_on_c, 1, 60, 36
3, 153332, Note_on_c, 1, 52, 46
3, 153349, Note_on_c, 1, 45, 36
3, 154064, Control_c, 1, 64, 127
3, 154324, Note_on_c, 1, 45, 0
3, 154434, Control_c, 1, 64, 0
3, 154538, Note_on_c, 1, 45, 42
3, 154698, Control_c, 1, 64, 127
3, 154747, Note_on_c, 1, 52, 0
3, 154858, Note_on_c, 1, 60, 0
3, 155282, Note_on_c, 1, 45, 0
3, 155458, Control_c, 1, 64, 0
3, 155481, Note_on_c, 1, 60, 49
3, 155484, Note_on_c, 1, 64, 62
3, 155495, Note_on_c, 1, 55, 63
3, 155525, Note_on_c, 1, 46, 46
3, 156216, Control_c, 1, 64, 127
3, 156245, Note_on_c, 1, 46, 0
3, 156375, Control_c, 1, 64, 0
3, 156459, Note_on_c, 1, 46, 57
3, 156547, Note_on_c, 1, 64, 0
3, 156553, Note_on_c, 1, 60, 0
3, 156672, Note_on_c, 1, 55, 0
3, 156922, Control_c, 1, 64, 127
3, 157128, Note_on_c, 1, 46, 0
3, 157382, Control_c, 1, 64, 0
3, 157426, Note_on_c, 1, 60, 37
3, 157434, Note_on_c, 1, 52, 50
3, 157445, Note_on_c, 1, 55, 44
3, 157450, Note_on_c, 1, 45, 42
3, 157461, Note_on_c, 1, 57, 35
3, 157964, Control_c, 1, 64, 127
3, 158152, Note_on_c, 1, 52, 0
3, 158163, Note_on_c, 1, 55, 0
3, 158251, Note_on_c, 1, 45, 0
3, 158283, Note_on_c, 1, 57, 0
3, 158316, Control_c, 1, 64, 0
3, 158320, Note_on_c, 1, 60, 0
3, 158364, Note_on_c, 1, 33, 47
3, 158475, Control_c, 1, 64, 127
3, 158506, Note_on_c, 1, 33, 0
3, 158673, Note_on_c, 1, 33, 13
3, 159047, Note_on_c, 1, 33, 0
3, 159050, Note_on_c, 1, 54, 64
3, 159059, Note_on_c, 1, 58, 60
3, 159061, Note_on_c, 1, 60, 53
3, 159064, Note_on_c, 1, 65, 63
3, 159128, Control_c, 1, 64, 0
3, 159201, Note_on_c, 1, 38, 41
3, 160143, Note_on_c, 1, 38, 0
3, 160203, Note_on_c, 1, 44, 65
3, 160400, Note_on_c, 1, 60, 0
3, 160719, Note_on_c, 1, 65, 0
3, 160779, Note_on_c, 1, 54, 0
3, 160792, Note_on_c, 1, 58, 0
3, 160923, Note_on_c, 1, 58, 45
3, 160942, Note_on_c, 1, 53, 66
3, 160956, Note_on_c, 1, 62, 67
3, 160974, Note_on_c, 1, 44, 0
3, 161039, Note_on_c, 1, 43, 44
3, 161875, Note_on_c, 1, 38, 57
3, 161882, Note_on_c, 1, 62, 0
3, 161899, Note_on_c, 1, 43, 0
3, 161951, Note_on_c, 1, 58, 0
3, 162026, Note_on_c, 1, 53, 0
3, 162804, Note_on_c, 1, 50, 62
3, 162825, Note_on_c, 1, 57, 57
3, 162833, Note_on_c, 1, 53, 49
3, 163044, Note_on_c, 1, 34, 45
3, 163081, Note_on_c, 1, 38, 0
3, 164122, Note_on_c, 1, 34, 0
3, 164168, Note_on_c, 1, 35, 33
3, 164584, Note_on_c, 1, 53, 0
3, 164585, Note_on_c, 1, 50, 0
3, 164925, Note_on_c, 1, 57, 0
3, 165071, Note_on_c, 1, 35, 0
3, 165103, Note_on_c, 1, 52, 42
3, 165127, Note_on_c, 1, 36, 33
3, 165444, Control_c, 1, 64, 127
3, 165516, Note_on_c, 1, 52, 0
3, 165983, Note_on_c, 1, 24, 47
3, 166060, Note_on_c, 1, 24, 0
3, 166101, Note_on_c, 1, 36, 0
3, 166998, Control_c, 1, 64, 0
3, 167018, Note_on_c, 1, 72, 61
3, 167030, Note_on_c, 1, 64, 67
3, 167048, Note_on_c, 1, 67, 56
3, 167060, Note_on_c, 1, 60, 59
3, 167070, Note_on_c, 1, 56, 31
3, 167614, Control_c, 1, 64, 127
3, 167787, Note_on_c, 1, 60, 0
3, 167917, Note_on_c, 1, 64, 0
3, 167975, Note_on_c, 1, 67, 0
3, 168019, Note_on_c, 1, 72, 0
3, 168065, Note_on_c, 1, 46, 29
3, 168079, Note_on_c, 1, 56, 0
3, 168313, Note_on_c, 1, 46, 0
3, 168885, Control_c, 1, 64, 0
3, 168973, Note_on_c, 1, 45, 34
3, 168984, Note_on_c, 1, 60, 44
3, 168989, Note_on_c, 1, 67, 52
3, 168991, Note_on_c, 1, 74, 50
3, 168994, Note_on_c, 1, 52, 32
3, 169015, Note_on_c, 1, 59, 41
3, 169352, Note_on_c, 1, 60, 0
3, 169374, Note_on_c, 1, 59, 0
3, 169381, Note_on_c, 1, 67, 0
3, 169394, Note_on_c, 1, 74, 0
3, 169404, Note_on_c, 1, 45, 0
3, 169408, Note_on_c, 1, 52, 0
3, 169911, Note_on_c, 1, 74, 47
3, 169943, Note_on_c, 1, 67, 41
3, 169944, Note_on_c, 1, 60, 29
3, 169946, Note_on_c, 1, 45, 32
3, 169960, Note_on_c, 1, 52, 36
3, 169994, Note_on_c, 1, 59, 17
3, 170284, Control_c, 1, 64, 127
3, 170421, Note_on_c, 1, 59, 0
3, 170469, Note_on_c, 1, 74, 0
3, 170471, Note_on_c, 1, 60, 0
3, 170478, Control_c, 1, 64, 0
3, 170483, Note_on_c, 1, 67, 0
3, 170520, Note_on_c, 1, 52, 0
3, 170524, Note_on_c, 1, 45, 0
3, 170874, Note_on_c, 1, 45, 33
3, 170883, Note_on_c, 1, 74, 54
3, 170899, Note_on_c, 1, 52, 36
3, 170911, Note_on_c, 1, 67, 40
3, 170916, Note_on_c, 1, 60, 32
3, 170935, Note_on_c, 1, 59, 33
3, 171131, Control_c, 1, 64, 127
3, 171298, Note_on_c, 1, 74, 0
3, 171300, Note_on_c, 1, 45, 0
3, 171330, Note_on_c, 1, 60, 0
3, 171379, Note_on_c, 1, 67, 0
3, 171389, Note_on_c, 1, 59, 0
3, 171499, Note_on_c, 1, 74, 50
3, 171518, Note_on_c, 1, 60, 39
3, 171527, Note_on_c, 1, 67, 60
3, 171546, Note_on_c, 1, 45, 45
3, 171676, Control_c, 1, 64, 0
3, 171678, Note_on_c, 1, 74, 0
3, 171690, Note_on_c, 1, 67, 0
3, 171696, Note_on_c, 1, 52, 0
3, 171734, Note_on_c, 1, 60, 0
3, 171766, Note_on_c, 1, 45, 0
3, 172048, Control_c, 1, 64, 127
3, 172401, Control_c, 1, 64, 0
3, 172426, Note_on_c, 1, 67, 64
3, 172437, Note_on_c, 1, 57, 65
3, 172438, Note_on_c, 1, 60, 54
3, 172476, Note_on_c, 1, 40, 45
3, 172665, Note_on_c, 1, 40, 0
3, 173354, Control_c, 1, 64, 127
3, 173399, Note_on_c, 1, 53, 84
3, 173472, Note_on_c, 1, 67, 0
3, 173523, Note_on_c, 1, 57, 0
3, 173539, Note_on_c, 1, 60, 0
3, 173707, Control_c, 1, 64, 0
3, 173788, Note_on_c, 1, 65, 41
3, 173808, Note_on_c, 1, 57, 30
3, 173822, Note_on_c, 1, 60, 43
3, 174223, Note_on_c, 1, 53, 0
3, 174413, Note_on_c, 1, 52, 66
3, 174587, Note_on_c, 1, 60, 0
3, 174619, Note_on_c, 1, 65, 0
3, 174746, Note_on_c, 1, 57, 0
3, 175154, Control_c, 1, 64, 127
3, 175224, Control_c, 1, 64, 0
3, 175373, Note_on_c, 1, 57, 44
3, 175374, Note_on_c, 1, 64, 40
3, 175376, Note_on_c, 1, 53, 55
3, 175379, Note_on_c, 1, 52, 0
3, 175399, Note_on_c, 1, 60, 31
3, 175400, Note_on_c, 1, 50, 51
3, 175687, Note_on_c, 1, 53, 0
3, 175825, Note_on_c, 1, 53, 18
3, 176087, Note_on_c, 1, 53, 0
3, 176147, Note_on_c, 1, 57, 0
3, 176168, Note_on_c, 1, 60, 0
3, 176207, Note_on_c, 1, 64, 0
3, 176214, Control_c, 1, 64, 127
3, 176566, Control_c, 1, 64, 0
3, 176676, Note_on_c, 1, 58, 59
3, 176694, Note_on_c, 1, 67, 70
3, 177241, Note_on_c, 1, 50, 0
3, 177294, Note_on_c, 1, 48, 48
3, 177500, Control_c, 1, 64, 127
3, 177544, Note_on_c, 1, 58, 0
3, 177599, Note_on_c, 1, 67, 0
3, 178243, Control_c, 1, 64, 0
3, 178250, Note_on_c, 1, 74, 66
3, 178264, Note_on_c, 1, 63, 59
3, 178278, Note_on_c, 1, 62, 74
3, 178280, Note_on_c, 1, 67, 66
3, 178683, Control_c, 1, 64, 127
3, 178919, Note_on_c, 1, 72, 62
3, 179014, Note_on_c, 1, 74, 0
3, 179140, Note_on_c, 1, 67, 0
3, 179230, Note_on_c, 1, 48, 0
3, 179368, Note_on_c, 1, 63, 0
3, 179389, Note_on_c, 1, 62, 0
3, 179494, Control_c, 1, 64, 0
3, 179547, Note_on_c, 1, 48, 36
3, 179591, Note_on_c, 1, 67, 32
3, 179617, Control_c, 1, 64, 127
3, 179764, Note_on_c, 1, 67, 0
3, 180047, Note_on_c, 1, 72, 0
3, 180165, Control_c, 1, 64, 0
3, 180181, Note_on_c, 1, 66, 46
3, 180202, Note_on_c, 1, 62, 50
3, 180204, Note_on_c, 1, 57, 47
3, 180554, Control_c, 1, 64, 127
3, 180684, Note_on_c, 1, 48, 0
3, 181091, Note_on_c, 1, 74, 70
3, 181099, Note_on_c, 1, 48, 59
3, 181137, Control_c, 1, 64, 0
3, 181524, Control_c, 1, 64, 127
3, 181552, Note_on_c, 1, 57, 0
3, 181861, Note_on_c, 1, 62, 0
3, 182034, Note_on_c, 1, 66, 0
3, 182198, Note_on_c, 1, 74, 0
3, 182264, Control_c, 1, 64, 0
3, 182370, Note_on_c, 1, 72, 54
3, 182393, Note_on_c, 1, 62, 37
3, 182396, Note_on_c, 1, 57, 36
3, 182421, Note_on_c, 1, 66, 23
3, 182601, Control_c, 1, 64, 127
3, 182794, Note_on_c, 1, 48, 0
3, 182852, Note_on_c, 1, 66, 0
3, 182924, Note_on_c, 1, 62, 0
3, 183183, Note_on_c, 1, 57, 0
3, 183201, Control_c, 1, 64, 0
3, 183222, Note_on_c, 1, 72, 0
3, 183292, Note_on_c, 1, 48, 33
3, 183333, Note_on_c, 1, 66, 53
3, 183342, Note_on_c, 1, 62, 61
3, 183363, Note_on_c, 1, 57, 32
3, 183518, Control_c, 1, 64, 127
3, 183584, Note_on_c, 1, 48, 0
3, 183709, Note_on_c, 1, 57, 0
3, 183838, Note_on_c, 1, 62, 0
3, 183894, Note_on_c, 1, 66, 0
3, 184030, Control_c, 1, 64, 0
3, 184049, Note_on_c, 1, 65, 49
3, 184063, Note_on_c, 1, 62, 29
3, 184097, Note_on_c, 1, 57, 43
3, 184102, Note_on_c, 1, 46, 33
3, 184417, Control_c, 1, 64, 127
3, 184674, Note_on_c, 1, 62, 0
3, 184736, Note_on_c, 1, 57, 0
3, 184922, Note_on_c, 1, 74, 72
3, 184982, Control_c, 1, 64, 0
3, 185007, Note_on_c, 1, 57, 50
3, 185300, Control_c, 1, 64, 127
3, 185777, Note_on_c, 1, 57, 0
3, 186061, Note_on_c, 1, 65, 0
3, 186112, Note_on_c, 1, 74, 0
3, 186182, Control_c, 1, 64, 0
3, 186212, Note_on_c, 1, 62, 58
3, 186232, Note_on_c, 1, 65, 35
3, 186244, Note_on_c, 1, 57, 38
3, 186260, Note_on_c, 1, 69, 50
3, 186481, Note_on_c, 1, 46, 0
3, 186694, Control_c, 1, 64, 127
3, 186816, Note_on_c, 1, 62, 0
3, 186948, Note_on_c, 1, 69, 0
3, 187048, Control_c, 1, 64, 0
3, 187055, Note_on_c, 1, 57, 0
3, 187149, Note_on_c, 1, 65, 0
3, 187168, Note_on_c, 1, 46, 30
3, 187200, Note_on_c, 1, 62, 35
3, 187277, Control_c, 1, 64, 127
3, 187391, Note_on_c, 1, 62, 0
3, 187428, Note_on_c, 1, 46, 0
3, 187981, Note_on_c, 1, 43, 24
3, 188097, Note_on_c, 1, 54, 31
3, 188102, Note_on_c, 1, 63, 38
3, 188115, Note_on_c, 1, 43, 0
3, 188120, Note_on_c, 1, 44, 37
3, 188125, Control_c, 1, 64, 0
3, 188171, Note_on_c, 1, 59, 44
3, 188727, Note_on_c, 1, 59, 0
3, 188831, Note_on_c, 1, 54, 0
3, 188884, Note_on_c, 1, 63, 0
3, 189070, Note_on_c, 1, 54, 31
3, 189099, Note_on_c, 1, 63, 28
3, 189153, Note_on_c, 1, 59, 40
3, 189808, Note_on_c, 1, 59, 0
3, 189838, Note_on_c, 1, 63, 0
3, 189912, Note_on_c, 1, 54, 0
3, 190091, Note_on_c, 1, 59, 40
3, 190093, Note_on_c, 1, 63, 18
3, 190097, Note_on_c, 1, 53, 31
3, 190206, Control_c, 1, 64, 127
3, 190311, Control_c, 1, 64, 0
3, 190364, Control_c, 1, 64, 127
3, 190551, Note_on_c, 1, 53, 0
3, 190647, Note_on_c, 1, 44, 0
3, 190661, Note_on_c, 1, 37, 48
3, 190693, Note_on_c, 1, 59, 0
3, 190864, Note_on_c, 1, 63, 0
3, 190947, Control_c, 1, 64, 0
3, 190961, Note_on_c, 1, 37, 0
3, 190986, Note_on_c, 1, 44, 38
3, 191029, Note_on_c, 1, 53, 31
3, 191121, Note_on_c, 1, 53, 0
3, 191248, Control_c, 1, 64, 127
3, 191666, Note_on_c, 1, 54, 61
3, 191670, Note_on_c, 1, 61, 55
3, 191672, Note_on_c, 1, 53, 64
3, 191677, Note_on_c, 1, 58, 53
3, 191689, Note_on_c, 1, 65, 60
3, 191705, Control_c, 1, 64, 0
3, 191717, Note_on_c, 1, 44, 0
3, 192393, Control_c, 1, 64, 127
3, 192629, Note_on_c, 1, 54, 0
3, 192684, Note_on_c, 1, 58, 0
3, 192736, Note_on_c, 1, 61, 0
3, 192756, Note_on_c, 1, 65, 0
3, 192780, Control_c, 1, 64, 0
3, 192826, Note_on_c, 1, 53, 0
3, 192874, Note_on_c, 1, 51, 43
3, 192877, Note_on_c, 1, 54, 37
3, 192893, Note_on_c, 1, 58, 34
3, 192898, Note_on_c, 1, 63, 37
3, 192930, Note_on_c, 1, 61, 37
3, 193275, Control_c, 1, 64, 127
3, 193298, Note_on_c, 1, 51, 0
3, 193456, Note_on_c, 1, 58, 0
3, 193462, Note_on_c, 1, 61, 0
3, 193525, Note_on_c, 1, 54, 0
3, 193805, Note_on_c, 1, 63, 0
3, 193822, Control_c, 1, 64, 0
3, 193843, Note_on_c, 1, 54, 39
3, 193847, Note_on_c, 1, 61, 37
3, 193860, Note_on_c, 1, 42, 31
3, 193902, Note_on_c, 1, 58, 37
3, 193919, Note_on_c, 1, 49, 46
3, 194268, Note_on_c, 1, 54, 0
3, 194352, Control_c, 1, 64, 127
3, 194459, Note_on_c, 1, 58, 0
3, 194555, Note_on_c, 1, 61, 0
3, 194678, Note_on_c, 1, 49, 0
3, 194687, Control_c, 1, 64, 0
3, 194766, Note_on_c, 1, 51, 35
3, 194828, Note_on_c, 1, 54, 48
3, 194849, Note_on_c, 1, 63, 45
3, 194863, Note_on_c, 1, 51, 0
3, 194864, Note_on_c, 1, 58, 35
3, 194887, Note_on_c, 1, 42, 0
3, 194935, Control_c, 1, 64, 127
3, 195058, Note_on_c, 1, 54, 0
3, 195225, Note_on_c, 1, 63, 0
3, 195336, Note_on_c, 1, 58, 0
3, 195623, Control_c, 1, 64, 0
3, 195781, Note_on_c, 1, 40, 38
3, 195789, Note_on_c, 1, 59, 58
3, 195790, Note_on_c, 1, 67, 49
3, 195803, Note_on_c, 1, 41, 32
3, 195847, Note_on_c, 1, 62, 30
3, 195880, Note_on_c, 1, 47, 1
3, 195940, Control_c, 1, 64, 127
3, 196001, Note_on_c, 1, 40, 0
3, 196040, Note_on_c, 1, 41, 0
3, 196091, Note_on_c, 1, 47, 0
3, 196109, Note_on_c, 1, 59, 0
3, 196123, Note_on_c, 1, 62, 0
3, 196193, Note_on_c, 1, 67, 0
3, 196698, Control_c, 1, 64, 0
3, 196744, Note_on_c, 1, 71, 70
3, 196753, Note_on_c, 1, 46, 43
3, 196758, Note_on_c, 1, 67, 74
3, 196765, Note_on_c, 1, 62, 77
3, 197034, Control_c, 1, 64, 127
3, 197091, Note_on_c, 1, 67, 0
3, 197126, Note_on_c, 1, 71, 0
3, 197184, Note_on_c, 1, 46, 0
3, 197200, Note_on_c, 1, 62, 0
3, 197600, Control_c, 1, 64, 0
3, 197710, Note_on_c, 1, 69, 65
3, 197714, Note_on_c, 1, 61, 50
3, 197719, Note_on_c, 1, 58, 35
3, 197745, Note_on_c, 1, 55, 47
3, 197754, Note_on_c, 1, 64, 45
3, 197756, Note_on_c, 1, 45, 33
3, 198004, Control_c, 1, 64, 127
3, 198184, Note_on_c, 1, 64, 0
3, 198252, Note_on_c, 1, 58, 0
3, 198326, Note_on_c, 1, 61, 0
3, 198397, Note_on_c, 1, 69, 0
3, 198448, Note_on_c, 1, 55, 0
3, 198604, Control_c, 1, 64, 0
3, 198639, Note_on_c, 1, 45, 0
3, 198668, Note_on_c, 1, 52, 42
3, 198671, Note_on_c, 1, 58, 59
3, 198703, Note_on_c, 1, 61, 37
3, 198705, Note_on_c, 1, 67, 43
3, 198754, Note_on_c, 1, 64, 33
3, 198958, Control_c, 1, 64, 127
3, 198974, Note_on_c, 1, 67, 0
3, 199053, Note_on_c, 1, 58, 0
3, 199184, Note_on_c, 1, 64, 0
3, 199247, Note_on_c, 1, 61, 0
3, 199410, Note_on_c, 1, 52, 0
3, 199558, Control_c, 1, 64, 0
3, 199613, Note_on_c, 1, 50, 29
3, 199622, Note_on_c, 1, 66, 48
3, 199657, Note_on_c, 1, 57, 48
3, 199659, Note_on_c, 1, 61, 47
3, 199875, Control_c, 1, 64, 127
3, 199928, Note_on_c, 1, 57, 0
3, 199945, Note_on_c, 1, 50, 0
3, 200044, Note_on_c, 1, 61, 0
3, 200155, Note_on_c, 1, 66, 0
3, 200510, Control_c, 1, 64, 0
3, 200602, Note_on_c, 1, 69, 58
3, 200604, Note_on_c, 1, 54, 33
3, 200607, Note_on_c, 1, 66, 44
3, 200628, Note_on_c, 1, 61, 37
3, 200759, Control_c, 1, 64, 127
3, 200808, Note_on_c, 1, 61, 0
3, 200841, Note_on_c, 1, 69, 0
3, 200878, Note_on_c, 1, 66, 0
3, 201401, Note_on_c, 1, 54, 0
3, 201498, Control_c, 1, 64, 0
3, 201524, Note_on_c, 1, 76, 76
3, 201538, Note_on_c, 1, 66, 59
3, 201549, Note_on_c, 1, 69, 69
3, 201558, Note_on_c, 1, 64, 51
3, 201851, Control_c, 1, 64, 127
3, 202187, Note_on_c, 1, 69, 0
3, 202198, Note_on_c, 1, 66, 0
3, 202290, Note_on_c, 1, 76, 0
3, 202371, Note_on_c, 1, 64, 0
3, 202485, Note_on_c, 1, 74, 60
3, 202487, Note_on_c, 1, 62, 45
3, 202489, Note_on_c, 1, 66, 56
3, 202524, Note_on_c, 1, 69, 61
3, 202596, Note_on_c, 1, 62, 0
3, 202682, Note_on_c, 1, 74, 0
3, 202702, Note_on_c, 1, 69, 0
3, 202749, Note_on_c, 1, 66, 0
3, 203386, Control_c, 1, 64, 0
3, 203460, Note_on_c, 1, 63, 38
3, 203462, Note_on_c, 1, 59, 51
3, 203469, Note_on_c, 1, 54, 32
3, 203492, Note_on_c, 1, 44, 33
3, 203721, Control_c, 1, 64, 127
3, 204175, Note_on_c, 1, 59, 0
3, 204280, Note_on_c, 1, 63, 0
3, 204391, Control_c, 1, 64, 0
3, 204458, Note_on_c, 1, 51, 36
3, 204465, Note_on_c, 1, 63, 28
3, 204469, Note_on_c, 1, 59, 40
3, 204585, Note_on_c, 1, 54, 0
3, 204622, Control_c, 1, 64, 127
3, 204785, Note_on_c, 1, 44, 0
3, 204967, Note_on_c, 1, 59, 0
3, 205028, Note_on_c, 1, 63, 0
3, 205327, Control_c, 1, 64, 0
3, 205364, Note_on_c, 1, 67, 50
3, 205380, Note_on_c, 1, 59, 45
3, 205388, Note_on_c, 1, 63, 34
3, 205389, Note_on_c, 1, 51, 0
3, 205410, Note_on_c, 1, 56, 23
3, 205767, Control_c, 1, 64, 127
3, 206104, Note_on_c, 1, 59, 0
3, 206156, Control_c, 1, 64, 0
3, 206165, Note_on_c, 1, 63, 0
3, 206297, Note_on_c, 1, 56, 0
3, 206324, Note_on_c, 1, 49, 35
3, 206473, Control_c, 1, 64, 127
3, 206575, Note_on_c, 1, 49, 0
3, 206684, Note_on_c, 1, 67, 0
3, 207269, Control_c, 1, 64, 0
3, 207271, Note_on_c, 1, 58, 55
3, 207286, Note_on_c, 1, 65, 51
3, 207292, Note_on_c, 1, 61, 39
3, 207953, Note_on_c, 1, 53, 55
3, 208196, Note_on_c, 1, 53, 0
3, 208319, Note_on_c, 1, 51, 46
3, 208543, Note_on_c, 1, 58, 0
3, 208545, Note_on_c, 1, 61, 0
3, 208698, Control_c, 1, 64, 127
3, 208939, Note_on_c, 1, 54, 55
3, 208951, Note_on_c, 1, 61, 50
3, 208962, Control_c, 1, 64, 0
3, 208967, Note_on_c, 1, 58, 49
3, 208999, Note_on_c, 1, 51, 0
3, 209006, Note_on_c, 1, 49, 43
3, 209738, Control_c, 1, 64, 127
3, 209914, Note_on_c, 1, 51, 61
3, 209960, Note_on_c, 1, 49, 0
3, 210109, Control_c, 1, 64, 0
3, 210245, Note_on_c, 1, 51, 0
3, 210284, Note_on_c, 1, 53, 59
3, 210444, Note_on_c, 1, 54, 0
3, 210551, Control_c, 1, 64, 127
3, 210655, Note_on_c, 1, 61, 0
3, 210738, Note_on_c, 1, 58, 0
3, 210806, Note_on_c, 1, 53, 0
3, 210833, Note_on_c, 1, 65, 0
3, 210905, Note_on_c, 1, 58, 58
3, 210921, Control_c, 1, 64, 0
3, 210926, Note_on_c, 1, 62, 66
3, 210937, Note_on_c, 1, 53, 57
3, 210959, Note_on_c, 1, 43, 38
3, 211722, Note_on_c, 1, 43, 0
3, 211806, Note_on_c, 1, 49, 70
3, 211908, Control_c, 1, 64, 127
3, 212033, Control_c, 1, 64, 0
3, 212135, Note_on_c, 1, 49, 0
3, 212186, Note_on_c, 1, 53, 0
3, 212200, Note_on_c, 1, 50, 51
3, 212480, Note_on_c, 1, 62, 0
3, 212619, Note_on_c, 1, 58, 0
3, 212649, Note_on_c, 1, 50, 0
3, 212667, Control_c, 1, 64, 127
3, 212795, Note_on_c, 1, 58, 46
3, 212797, Note_on_c, 1, 62, 58
3, 212811, Note_on_c, 1, 55, 52
3, 212827, Control_c, 1, 64, 0
3, 212836, Note_on_c, 1, 52, 62
3, 213249, Control_c, 1, 64, 127
3, 213288, Note_on_c, 1, 62, 0
3, 213387, Note_on_c, 1, 52, 0
3, 213431, Note_on_c, 1, 55, 0
3, 213577, Note_on_c, 1, 58, 0
3, 213726, Control_c, 1, 64, 0
3, 213744, Note_on_c, 1, 61, 49
3, 213746, Note_on_c, 1, 64, 55
3, 213751, Note_on_c, 1, 58, 48
3, 213755, Note_on_c, 1, 55, 51
3, 213756, Note_on_c, 1, 48, 48
3, 214062, Note_on_c, 1, 48, 0
3, 214098, Control_c, 1, 64, 127
3, 214270, Note_on_c, 1, 55, 0
3, 214377, Note_on_c, 1, 64, 0
3, 214390, Note_on_c, 1, 58, 0
3, 214406, Note_on_c, 1, 61, 0
3, 214680, Note_on_c, 1, 48, 36
3, 214872, Note_on_c, 1, 48, 0
3, 214944, Control_c, 1, 64, 0
3, 215004, Note_on_c, 1, 69, 55
3, 215015, Note_on_c, 1, 60, 40
3, 215018, Note_on_c, 1, 53, 46
3, 215020, Note_on_c, 1, 65, 51
3, 215025, Note_on_c, 1, 62, 53
3, 215527, Control_c, 1, 64, 127
3, 215657, Note_on_c, 1, 60, 0
3, 215666, Note_on_c, 1, 65, 0
3, 215687, Note_on_c, 1, 53, 0
3, 215690, Note_on_c, 1, 62, 0
3, 215833, Note_on_c, 1, 69, 0
3, 215949, Control_c, 1, 64, 0
3, 215995, Note_on_c, 1, 65, 43
3, 216001, Note_on_c, 1, 62, 43
3, 216011, Note_on_c, 1, 60, 33
3, 216014, Note_on_c, 1, 53, 34
3, 216162, Control_c, 1, 64, 127
3, 216187, Note_on_c, 1, 65, 0
3, 216199, Note_on_c, 1, 53, 0
3, 216218, Note_on_c, 1, 62, 0
3, 216283, Note_on_c, 1, 60, 0
3, 216868, Control_c, 1, 64, 0
3, 216938, Note_on_c, 1, 46, 33
3, 216947, Note_on_c, 1, 62, 62
3, 216965, Note_on_c, 1, 58, 38
3, 216979, Note_on_c, 1, 53, 34
3, 217167, Note_on_c, 1, 46, 0
3, 217185, Control_c, 1, 64, 127
3, 217186, Note_on_c, 1, 53, 0
3, 217281, Note_on_c, 1, 58, 0
3, 217294, Note_on_c, 1, 62, 0
3, 217802, Control_c, 1, 64, 0
3, 217866, Note_on_c, 1, 46, 47
3, 217894, Note_on_c, 1, 74, 70
3, 217896, Note_on_c, 1, 65, 74
3, 217899, Note_on_c, 1, 56, 39
3, 217913, Note_on_c, 1, 70, 56
3, 217915, Note_on_c, 1, 67, 66
3, 218139, Control_c, 1, 64, 127
3, 218218, Note_on_c, 1, 65, 0
3, 218248, Note_on_c, 1, 74, 0
3, 218322, Note_on_c, 1, 56, 0
3, 218345, Note_on_c, 1, 67, 0
3, 218399, Note_on_c, 1, 70, 0
3, 218493, Note_on_c, 1, 46, 0
3, 218719, Control_c, 1, 64, 0
3, 218828, Note_on_c, 1, 72, 58
3, 218846, Note_on_c, 1, 67, 62
3, 218850, Note_on_c, 1, 55, 48
3, 218851, Note_on_c, 1, 60, 46
3, 218881, Note_on_c, 1, 45, 35
3, 219073, Control_c, 1, 64, 127
3, 219131, Note_on_c, 1, 67, 0
3, 219140, Note_on_c, 1, 72, 0
3, 219293, Note_on_c, 1, 55, 0
3, 219304, Note_on_c, 1, 60, 0
3, 219779, Control_c, 1, 64, 0
3, 219789, Note_on_c, 1, 67, 53
3, 219795, Note_on_c, 1, 60, 42
3, 219800, Note_on_c, 1, 64, 41
3, 219807, Note_on_c, 1, 55, 32
3, 219816, Note_on_c, 1, 52, 32
3, 219958, Note_on_c, 1, 55, 0
3, 219999, Note_on_c, 1, 52, 0
3, 220096, Control_c, 1, 64, 127
3, 220113, Note_on_c, 1, 64, 0
3, 220193, Note_on_c, 1, 60, 0
3, 220207, Note_on_c, 1, 67, 0
3, 220251, Note_on_c, 1, 45, 0
3, 220733, Control_c, 1, 64, 0
3, 220743, Note_on_c, 1, 54, 36
3, 220749, Note_on_c, 1, 66, 37
3, 220759, Note_on_c, 1, 63, 37
3, 220761, Note_on_c, 1, 57, 36
3, 220771, Note_on_c, 1, 60, 35
3, 221155, Control_c, 1, 64, 127
3, 221308, Note_on_c, 1, 57, 0
3, 221324, Note_on_c, 1, 63, 0
3, 221329, Note_on_c, 1, 60, 0
3, 221632, Control_c, 1, 64, 0
3, 221634, Note_on_c, 1, 66, 0
3, 221704, Note_on_c, 1, 63, 34
3, 221706, Note_on_c, 1, 57, 41
3, 221710, Note_on_c, 1, 44, 34
3, 221778, Note_on_c, 1, 60, 20
3, 221785, Note_on_c, 1, 54, 0
3, 221905, Note_on_c, 1, 60, 0
3, 221931, Control_c, 1, 64, 127
3, 222009, Note_on_c, 1, 63, 0
3, 222039, Note_on_c, 1, 57, 0
3, 222081, Note_on_c, 1, 44, 0
3, 222531, Control_c, 1, 64, 0
3, 222665, Note_on_c, 1, 58, 32
3, 222676, Note_on_c, 1, 55, 39
3, 222687, Note_on_c, 1, 53, 34
3, 222693, Note_on_c, 1, 62, 33
3, 222702, Note_on_c, 1, 50, 30
3, 222722, Note_on_c, 1, 43, 24
3, 222832, Control_c, 1, 64, 127
3, 222971, Note_on_c, 1, 55, 0
3, 223010, Note_on_c, 1, 62, 0
3, 223132, Note_on_c, 1, 58, 0
3, 223201, Note_on_c, 1, 53, 0
3, 223260, Note_on_c, 1, 50, 0
3, 223572, Control_c, 1, 64, 0
3, 223642, Note_on_c, 1, 64, 64
3, 223653, Note_on_c, 1, 55, 64
3, 223658, Note_on_c, 1, 58, 54
3, 223684, Note_on_c, 1, 52, 51
3, 223697, Note_on_c, 1, 60, 25
3, 223873, Control_c, 1, 64, 127
3, 223966, Note_on_c, 1, 60, 0
3, 224045, Note_on_c, 1, 64, 0
3, 224128, Note_on_c, 1, 58, 0
3, 224237, Note_on_c, 1, 55, 0
3, 224309, Note_on_c, 1, 52, 0
3, 224508, Control_c, 1, 64, 0
3, 224605, Note_on_c, 1, 58, 53
3, 224608, Note_on_c, 1, 53, 58
3, 224612, Note_on_c, 1, 65, 60
3, 224621, Note_on_c, 1, 62, 59
3, 224628, Note_on_c, 1, 55, 62
3, 224830, Note_on_c, 1, 53, 0
3, 224860, Control_c, 1, 64, 127
3, 224916, Note_on_c, 1, 43, 0
3, 225451, Note_on_c, 1, 55, 0
3, 225480, Control_c, 1, 64, 0
3, 225555, Note_on_c, 1, 48, 73
3, 225569, Note_on_c, 1, 36, 74
3, 225590, Note_on_c, 1, 58, 0
3, 225592, Note_on_c, 1, 62, 0
3, 225684, Note_on_c, 1, 65, 0
3, 225744, Control_c, 1, 64, 127
3, 225752, Note_on_c, 1, 36, 0
3, 225759, Note_on_c, 1, 48, 0
3, 226520, Control_c, 1, 64, 0
3, 226521, Note_on_c, 1, 60, 57
3, 226525, Note_on_c, 1, 72, 74
3, 226527, Note_on_c, 1, 67, 88
3, 226528, Note_on_c, 1, 58, 62
3, 226530, Note_on_c, 1, 64, 81
3, 226701, Control_c, 1, 64, 127
3, 226912, Note_on_c, 1, 64, 0
3, 226983, Note_on_c, 1, 60, 0
3, 226991, Note_on_c, 1, 67, 0
3, 227039, Note_on_c, 1, 72, 0
3, 227069, Note_on_c, 1, 58, 0
3, 227425, Control_c, 1, 64, 0
3, 227477, Note_on_c, 1, 58, 62
3, 227493, Note_on_c, 1, 74, 69
3, 227498, Note_on_c, 1, 60, 41
3, 227586, Note_on_c, 1, 68, 35
3, 227618, Note_on_c, 1, 60, 0
3, 227653, Control_c, 1, 64, 127
3, 227748, Note_on_c, 1, 68, 0
3, 227805, Note_on_c, 1, 58, 0
3, 227915, Note_on_c, 1, 74, 0
3, 228359, Control_c, 1, 64, 0
3, 228438, Note_on_c, 1, 46, 61
3, 228442, Note_on_c, 1, 76, 81
3, 228443, Note_on_c, 1, 56, 62
3, 228459, Note_on_c, 1, 72, 68
3, 228461, Note_on_c, 1, 67, 84
3, 228677, Control_c, 1, 64, 127
3, 229087, Note_on_c, 1, 56, 0
3, 229107, Note_on_c, 1, 46, 0
3, 229369, Note_on_c, 1, 67, 0
3, 229380, Note_on_c, 1, 72, 0
3, 229403, Note_on_c, 1, 76, 0
3, 229404, Note_on_c, 1, 46, 38
3, 229735, Note_on_c, 1, 46, 0
3, 230318, Control_c, 1, 64, 0
3, 230400, Note_on_c, 1, 76, 57
3, 230425, Note_on_c, 1, 69, 44
3, 230432, Note_on_c, 1, 45, 39
3, 230436, Note_on_c, 1, 55, 36
3, 230448, Note_on_c, 1, 62, 35
3, 230480, Note_on_c, 1, 52, 34
3, 230860, Note_on_c, 1, 55, 0
3, 230862, Note_on_c, 1, 76, 0
3, 230863, Note_on_c, 1, 45, 0
3, 230885, Note_on_c, 1, 52, 0
3, 230909, Note_on_c, 1, 69, 0
3, 230927, Note_on_c, 1, 62, 0
3, 231055, Note_on_c, 1, 45, 36
3, 231060, Note_on_c, 1, 76, 42
3, 231084, Note_on_c, 1, 69, 51
3, 231096, Note_on_c, 1, 55, 28
3, 231104, Note_on_c, 1, 62, 24
3, 231192, Note_on_c, 1, 45, 0
3, 231201, Note_on_c, 1, 62, 0
3, 231215, Note_on_c, 1, 69, 0
3, 231242, Note_on_c, 1, 55, 0
3, 231245, Note_on_c, 1, 76, 0
3, 231694, Control_c, 1, 64, 127
3, 231923, Control_c, 1, 64, 0
3, 231977, Note_on_c, 1, 74, 47
3, 231988, Note_on_c, 1, 60, 40
3, 231993, Note_on_c, 1, 71, 46
3, 231995, Note_on_c, 1, 64, 45
3, 231997, Note_on_c, 1, 68, 37
3, 232004, Note_on_c, 1, 54, 25
3, 232018, Note_on_c, 1, 50, 26
3, 232312, Control_c, 1, 64, 127
3, 232863, Note_on_c, 1, 60, 0
3, 232961, Note_on_c, 1, 74, 0
3, 233090, Note_on_c, 1, 54, 0
3, 233113, Note_on_c, 1, 68, 0
3, 233121, Note_on_c, 1, 50, 0
3, 233130, Note_on_c, 1, 71, 0
3, 233181, Note_on_c, 1, 64, 0
3, 234012, Note_on_c, 1, 43, 25
3, 234218, Control_c, 1, 64, 0
3, 234229, Note_on_c, 1, 58, 31
3, 234236, Note_on_c, 1, 53, 28
3, 234237, Note_on_c, 1, 55, 42
3, 234252, Note_on_c, 1, 50, 40
3, 234260, Note_on_c, 1, 62, 25
3, 234829, Note_on_c, 1, 50, 0
3, 234834, Note_on_c, 1, 55, 0
3, 234862, Note_on_c, 1, 62, 0
3, 234878, Note_on_c, 1, 53, 0
3, 234903, Note_on_c, 1, 58, 0
3, 234973, Note_on_c, 1, 49, 25
3, 235205, Note_on_c, 1, 53, 36
3, 235207, Note_on_c, 1, 49, 0
3, 235209, Note_on_c, 1, 50, 41
3, 235214, Note_on_c, 1, 58, 33
3, 235216, Note_on_c, 1, 55, 48
3, 235230, Note_on_c, 1, 62, 36
3, 235663, Note_on_c, 1, 55, 0
3, 235677, Note_on_c, 1, 53, 0
3, 235740, Note_on_c, 1, 62, 0
3, 235753, Control_c, 1, 64, 127
3, 235756, Note_on_c, 1, 50, 0
3, 235768, Note_on_c, 1, 58, 0
3, 235871, Note_on_c, 1, 46, 25
3, 235916, Note_on_c, 1, 43, 0
3, 236087, Control_c, 1, 64, 0
3, 236091, Note_on_c, 1, 47, 28
3, 236149, Note_on_c, 1, 55, 60
3, 236152, Note_on_c, 1, 46, 0
3, 236157, Note_on_c, 1, 60, 42
3, 236161, Note_on_c, 1, 48, 46
3, 236163, Note_on_c, 1, 64, 48
3, 236251, Note_on_c, 1, 47, 0
3, 236546, Control_c, 1, 64, 127
3, 236606, Note_on_c, 1, 60, 0
3, 236626, Note_on_c, 1, 55, 0
3, 236659, Note_on_c, 1, 64, 0
3, 236692, Note_on_c, 1, 48, 0
3, 236839, Note_on_c, 1, 64, 47
3, 236861, Note_on_c, 1, 60, 44
3, 236872, Note_on_c, 1, 55, 40
3, 236875, Note_on_c, 1, 48, 26
3, 237039, Note_on_c, 1, 48, 0
3, 237048, Note_on_c, 1, 55, 0
3, 237154, Note_on_c, 1, 60, 0
3, 237212, Note_on_c, 1, 64, 0
3, 237993, Control_c, 1, 64, 0
3, 238083, Note_on_c, 1, 41, 50
3, 238470, Control_c, 1, 64, 127
3, 238760, Note_on_c, 1, 65, 47
3, 238767, Note_on_c, 1, 60, 35
3, 238769, Note_on_c, 1, 48, 34
3, 238796, Note_on_c, 1, 57, 45
3, 240821, Note_on_c, 1, 60, 0
3, 240904, Note_on_c, 1, 65, 0
3, 240929, Note_on_c, 1, 57, 0
3, 240953, Note_on_c, 1, 48, 0
3, 241008, Note_on_c, 1, 41, 0
3, 241258, Control_c, 1, 64, 0
3, 241258, End_track
0, 0, End_of_file
