0, 0, Header, 1, 3, 120
1, 0, Start_track
1, 0, Title_t, "Have You Met Miss Jones"
1, 0, Text_t, "dougmck@pipeline.com.au\012"
1, 0, Text_t, "Rogers and Hart - tried to get a loose salsa-ish stride sort of style - see Keyboard magazine  September 2002 page 52 - Michel Camilo's 'Latin Stride' (example 6a)\012"
1, 0, Time_signature, 4, 2, 24, 8
1, 0, Key_signature, -1, "major"
1, 0, Tempo, 461538
1, 0, Marker_t, "Michel Camilo's 'Latin Stride' in Left Hand for first few bars."
1, 5942, Marker_t, "Good minor eleventh voicing on this Am11 - LH plays cluster of b3,4,5 and RH plays 7,9,11"
1, 7669, Marker_t, "Bill Evans often used this Left Hand voicing  of a Major 7th with the Major 7th on the bottom and the root played a minor 2nd above it"
1, 10101, Marker_t, "An easy wide stretch in RH for smallish hands on Abm7,Db7,GbMaj7 in LH and (from bottom up) Bb,Gb,Db in RH"
1, 21225, Marker_t, "Melodic line in LH with chords in RH played on 'ands'"
1, 23146, Marker_t, "Phrase based on Augmented scale on BbMaj7 - 1,#2,3,5,b6,7 "
1, 23146, End_track
2, 0, Start_track
2, 0, Program_c, 0, 0
2, 0, Control_c, 0, 64, 127
2, 0, Control_c, 0, 64, 0
2, 5, Note_on_c, 0, 41, 43
2, 11, Note_on_c, 0, 81, 56
2, 13, Note_on_c, 0, 41, 0
2, 25, Control_c, 0, 64, 127
2, 74, Control_c, 0, 64, 0
2, 78, Note_on_c, 0, 62, 60
2, 79, Note_on_c, 0, 53, 30
2, 80, Note_on_c, 0, 60, 35
2, 82, Note_on_c, 0, 57, 43
2, 85, Note_on_c, 0, 62, 0
2, 88, Note_on_c, 0, 60, 0
2, 92, Note_on_c, 0, 57, 0
2, 92, Note_on_c, 0, 53, 0
2, 182, Note_on_c, 0, 46, 50
2, 183, Note_on_c, 0, 74, 70
2, 236, Note_on_c, 0, 81, 0
2, 241, Note_on_c, 0, 74, 0
2, 243, Note_on_c, 0, 72, 58
2, 246, Control_c, 0, 64, 127
2, 248, Control_c, 0, 64, 0
2, 296, Note_on_c, 0, 72, 0
2, 306, Note_on_c, 0, 74, 60
2, 332, Note_on_c, 0, 46, 0
2, 357, Note_on_c, 0, 74, 0
2, 362, Note_on_c, 0, 45, 47
2, 362, Note_on_c, 0, 55, 44
2, 364, Note_on_c, 0, 72, 52
2, 483, Control_c, 0, 64, 127
2, 507, Note_on_c, 0, 45, 0
2, 512, Note_on_c, 0, 55, 0
2, 543, Note_on_c, 0, 64, 64
2, 544, Note_on_c, 0, 60, 42
2, 547, Control_c, 0, 64, 0
2, 547, Note_on_c, 0, 59, 41
2, 548, Note_on_c, 0, 55, 32
2, 550, Note_on_c, 0, 64, 0
2, 554, Note_on_c, 0, 59, 0
2, 556, Note_on_c, 0, 60, 0
2, 560, Note_on_c, 0, 55, 0
2, 660, Note_on_c, 0, 38, 67
2, 706, Note_on_c, 0, 38, 0
2, 706, Control_c, 0, 64, 127
2, 806, Control_c, 0, 64, 0
2, 840, Note_on_c, 0, 43, 72
2, 848, Control_c, 0, 64, 127
2, 934, Note_on_c, 0, 43, 0
2, 957, Note_on_c, 0, 72, 0
2, 1019, Note_on_c, 0, 65, 61
2, 1020, Note_on_c, 0, 62, 56
2, 1021, Note_on_c, 0, 67, 62
2, 1021, Note_on_c, 0, 74, 51
2, 1021, Note_on_c, 0, 58, 48
2, 1023, Note_on_c, 0, 53, 37
2, 1023, Note_on_c, 0, 57, 28
2, 1026, Control_c, 0, 64, 0
2, 1039, Note_on_c, 0, 57, 0
2, 1039, Note_on_c, 0, 65, 0
2, 1039, Note_on_c, 0, 67, 0
2, 1043, Note_on_c, 0, 62, 0
2, 1048, Note_on_c, 0, 53, 0
2, 1049, Note_on_c, 0, 74, 0
2, 1050, Note_on_c, 0, 58, 0
2, 1137, Note_on_c, 0, 50, 63
2, 1140, Note_on_c, 0, 76, 71
2, 1143, Control_c, 0, 64, 127
2, 1143, Note_on_c, 0, 70, 70
2, 1143, Note_on_c, 0, 67, 72
2, 1145, Note_on_c, 0, 58, 32
2, 1147, Note_on_c, 0, 64, 59
2, 1160, Note_on_c, 0, 76, 0
2, 1172, Note_on_c, 0, 67, 0
2, 1172, Note_on_c, 0, 64, 0
2, 1174, Note_on_c, 0, 70, 0
2, 1176, Note_on_c, 0, 58, 0
2, 1187, Note_on_c, 0, 50, 0
2, 1199, Control_c, 0, 64, 0
2, 1201, Note_on_c, 0, 70, 64
2, 1203, Note_on_c, 0, 67, 72
2, 1204, Note_on_c, 0, 74, 62
2, 1204, Note_on_c, 0, 77, 55
2, 1205, Note_on_c, 0, 65, 69
2, 1225, Control_c, 0, 64, 127
2, 1231, Note_on_c, 0, 74, 0
2, 1232, Note_on_c, 0, 77, 0
2, 1235, Note_on_c, 0, 67, 0
2, 1236, Note_on_c, 0, 70, 0
2, 1244, Note_on_c, 0, 65, 0
2, 1279, Note_on_c, 0, 79, 63
2, 1280, Note_on_c, 0, 67, 66
2, 1280, Note_on_c, 0, 70, 68
2, 1281, Note_on_c, 0, 73, 46
2, 1282, Control_c, 0, 64, 0
2, 1317, Note_on_c, 0, 79, 0
2, 1319, Note_on_c, 0, 48, 74
2, 1321, Control_c, 0, 64, 127
2, 1326, Note_on_c, 0, 67, 0
2, 1327, Note_on_c, 0, 73, 0
2, 1332, Note_on_c, 0, 70, 0
2, 1392, Note_on_c, 0, 70, 45
2, 1392, Note_on_c, 0, 81, 49
2, 1394, Note_on_c, 0, 73, 33
2, 1394, Control_c, 0, 64, 0
2, 1394, Note_on_c, 0, 64, 49
2, 1396, Note_on_c, 0, 76, 55
2, 1428, Control_c, 0, 64, 127
2, 1439, Note_on_c, 0, 48, 0
2, 1446, Note_on_c, 0, 81, 0
2, 1454, Note_on_c, 0, 76, 0
2, 1455, Note_on_c, 0, 64, 0
2, 1458, Note_on_c, 0, 73, 0
2, 1484, Note_on_c, 0, 70, 0
2, 1506, Note_on_c, 0, 70, 60
2, 1507, Note_on_c, 0, 82, 67
2, 1533, Note_on_c, 0, 70, 0
2, 1540, Note_on_c, 0, 82, 0
2, 1572, Control_c, 0, 64, 0
2, 1573, Note_on_c, 0, 84, 74
2, 1574, Note_on_c, 0, 72, 63
2, 1578, Note_on_c, 0, 79, 54
2, 1619, Note_on_c, 0, 46, 58
2, 1658, Note_on_c, 0, 79, 0
2, 1659, Note_on_c, 0, 84, 0
2, 1677, Note_on_c, 0, 72, 0
2, 1678, Control_c, 0, 64, 127
2, 1747, Note_on_c, 0, 64, 57
2, 1747, Note_on_c, 0, 60, 40
2, 1751, Note_on_c, 0, 56, 20
2, 1755, Control_c, 0, 64, 0
2, 1803, Control_c, 0, 64, 127
2, 1842, Note_on_c, 0, 60, 0
2, 1850, Note_on_c, 0, 64, 0
2, 1856, Note_on_c, 0, 56, 0
2, 1858, Note_on_c, 0, 46, 0
2, 1861, Note_on_c, 0, 52, 46
2, 1890, Note_on_c, 0, 52, 0
2, 1911, Control_c, 0, 64, 0
2, 1917, Note_on_c, 0, 45, 49
2, 1985, Note_on_c, 0, 74, 36
2, 1986, Note_on_c, 0, 67, 44
2, 1988, Note_on_c, 0, 57, 49
2, 1989, Note_on_c, 0, 60, 18
2, 2000, Note_on_c, 0, 57, 0
2, 2003, Note_on_c, 0, 45, 0
2, 2003, Note_on_c, 0, 60, 0
2, 2006, Note_on_c, 0, 67, 0
2, 2014, Note_on_c, 0, 74, 0
2, 2120, Note_on_c, 0, 66, 21
2, 2138, Note_on_c, 0, 66, 0
2, 2167, Note_on_c, 0, 57, 31
2, 2167, Note_on_c, 0, 60, 25
2, 2168, Note_on_c, 0, 55, 57
2, 2168, Note_on_c, 0, 67, 35
2, 2170, Note_on_c, 0, 64, 30
2, 2216, Note_on_c, 0, 57, 0
2, 2217, Note_on_c, 0, 60, 0
2, 2219, Note_on_c, 0, 55, 0
2, 2220, Note_on_c, 0, 64, 0
2, 2224, Note_on_c, 0, 67, 0
2, 2231, Note_on_c, 0, 53, 33
2, 2269, Note_on_c, 0, 53, 0
2, 2280, Note_on_c, 0, 55, 36
2, 2282, Note_on_c, 0, 57, 56
2, 2284, Note_on_c, 0, 67, 42
2, 2285, Note_on_c, 0, 60, 36
2, 2292, Note_on_c, 0, 64, 17
2, 2299, Note_on_c, 0, 55, 0
2, 2305, Note_on_c, 0, 64, 0
2, 2328, Note_on_c, 0, 60, 0
2, 2329, Note_on_c, 0, 67, 0
2, 2332, Note_on_c, 0, 57, 0
2, 2344, Note_on_c, 0, 38, 51
2, 2367, Note_on_c, 0, 38, 0
2, 2401, Note_on_c, 0, 57, 22
2, 2403, Note_on_c, 0, 65, 24
2, 2403, Note_on_c, 0, 60, 34
2, 2407, Note_on_c, 0, 62, 24
2, 2445, Note_on_c, 0, 62, 0
2, 2451, Note_on_c, 0, 60, 0
2, 2464, Note_on_c, 0, 45, 45
2, 2469, Note_on_c, 0, 57, 0
2, 2484, Note_on_c, 0, 65, 0
2, 2586, Note_on_c, 0, 50, 37
2, 2586, Note_on_c, 0, 53, 43
2, 2587, Note_on_c, 0, 45, 0
2, 2588, Note_on_c, 0, 57, 34
2, 2588, Note_on_c, 0, 60, 29
2, 2606, Note_on_c, 0, 53, 0
2, 2609, Note_on_c, 0, 57, 0
2, 2610, Note_on_c, 0, 60, 0
2, 2612, Note_on_c, 0, 50, 0
2, 2698, Note_on_c, 0, 45, 41
2, 2707, Note_on_c, 0, 45, 0
2, 2751, Note_on_c, 0, 60, 56
2, 2754, Note_on_c, 0, 69, 50
2, 2756, Note_on_c, 0, 65, 44
2, 2766, Note_on_c, 0, 65, 0
2, 2767, Note_on_c, 0, 60, 0
2, 2771, Note_on_c, 0, 69, 0
2, 2815, Note_on_c, 0, 37, 37
2, 2828, Note_on_c, 0, 37, 0
2, 2867, Note_on_c, 0, 53, 52
2, 2868, Note_on_c, 0, 59, 54
2, 2869, Note_on_c, 0, 70, 36
2, 2869, Note_on_c, 0, 63, 38
2, 2871, Note_on_c, 0, 67, 44
2, 2906, Control_c, 0, 64, 127
2, 2961, Note_on_c, 0, 67, 0
2, 2963, Note_on_c, 0, 59, 0
2, 2963, Note_on_c, 0, 63, 0
2, 2978, Note_on_c, 0, 70, 0
2, 2980, Control_c, 0, 64, 0
2, 2983, Note_on_c, 0, 53, 0
2, 2986, Note_on_c, 0, 59, 51
2, 2987, Note_on_c, 0, 56, 30
2, 2989, Note_on_c, 0, 63, 31
2, 2990, Note_on_c, 0, 68, 35
2, 3014, Control_c, 0, 64, 127
2, 3021, Note_on_c, 0, 59, 0
2, 3040, Note_on_c, 0, 63, 0
2, 3043, Note_on_c, 0, 68, 0
2, 3054, Note_on_c, 0, 56, 0
2, 3062, Note_on_c, 0, 59, 58
2, 3063, Note_on_c, 0, 63, 37
2, 3064, Control_c, 0, 64, 0
2, 3065, Note_on_c, 0, 70, 42
2, 3067, Note_on_c, 0, 67, 42
2, 3067, Note_on_c, 0, 58, 29
2, 3104, Control_c, 0, 64, 127
2, 3138, Note_on_c, 0, 67, 0
2, 3149, Note_on_c, 0, 59, 0
2, 3155, Note_on_c, 0, 63, 0
2, 3175, Note_on_c, 0, 58, 0
2, 3175, Note_on_c, 0, 59, 57
2, 3176, Note_on_c, 0, 63, 38
2, 3176, Note_on_c, 0, 56, 31
2, 3177, Note_on_c, 0, 68, 44
2, 3187, Note_on_c, 0, 56, 0
2, 3221, Note_on_c, 0, 59, 0
2, 3237, Note_on_c, 0, 68, 0
2, 3244, Note_on_c, 0, 70, 0
2, 3251, Note_on_c, 0, 63, 0
2, 3298, Note_on_c, 0, 58, 50
2, 3301, Note_on_c, 0, 62, 57
2, 3303, Control_c, 0, 64, 0
2, 3303, Note_on_c, 0, 65, 52
2, 3304, Note_on_c, 0, 48, 34
2, 3315, Note_on_c, 0, 58, 0
2, 3323, Note_on_c, 0, 62, 0
2, 3328, Note_on_c, 0, 65, 0
2, 3350, Note_on_c, 0, 48, 0
2, 3362, Note_on_c, 0, 36, 36
2, 3371, Note_on_c, 0, 36, 0
2, 3418, Note_on_c, 0, 84, 74
2, 3445, Note_on_c, 0, 84, 0
2, 3470, Note_on_c, 0, 72, 47
2, 3510, Note_on_c, 0, 72, 0
2, 3536, Note_on_c, 0, 64, 24
2, 3568, Note_on_c, 0, 64, 0
2, 3589, Note_on_c, 0, 70, 43
2, 3630, Note_on_c, 0, 70, 0
2, 3652, Note_on_c, 0, 73, 39
2, 3658, Note_on_c, 0, 58, 25
2, 3672, Note_on_c, 0, 58, 0
2, 3678, Control_c, 0, 64, 127
2, 3698, Control_c, 0, 64, 0
2, 3704, Note_on_c, 0, 64, 50
2, 3709, Note_on_c, 0, 73, 0
2, 3709, Note_on_c, 0, 68, 32
2, 3764, Note_on_c, 0, 68, 0
2, 3767, Note_on_c, 0, 42, 32
2, 3770, Control_c, 0, 64, 127
2, 3788, Note_on_c, 0, 64, 0
2, 3803, Note_on_c, 0, 42, 0
2, 3816, Control_c, 0, 64, 0
2, 3825, Note_on_c, 0, 72, 33
2, 3827, Note_on_c, 0, 67, 40
2, 3827, Note_on_c, 0, 62, 49
2, 3831, Note_on_c, 0, 41, 32
2, 3840, Note_on_c, 0, 67, 0
2, 3845, Note_on_c, 0, 72, 0
2, 3852, Note_on_c, 0, 62, 0
2, 3861, Note_on_c, 0, 41, 0
2, 3895, Note_on_c, 0, 69, 56
2, 3898, Note_on_c, 0, 60, 27
2, 3910, Note_on_c, 0, 60, 0
2, 3928, Note_on_c, 0, 69, 0
2, 4016, Note_on_c, 0, 60, 38
2, 4016, Note_on_c, 0, 56, 31
2, 4017, Note_on_c, 0, 46, 33
2, 4033, Note_on_c, 0, 56, 0
2, 4038, Note_on_c, 0, 60, 0
2, 4048, Note_on_c, 0, 46, 0
2, 4126, Note_on_c, 0, 62, 69
2, 4165, Note_on_c, 0, 62, 0
2, 4190, Note_on_c, 0, 60, 43
2, 4194, Note_on_c, 0, 45, 46
2, 4208, Note_on_c, 0, 60, 0
2, 4253, Note_on_c, 0, 45, 0
2, 4257, Note_on_c, 0, 55, 54
2, 4265, Note_on_c, 0, 55, 0
2, 4309, Note_on_c, 0, 60, 40
2, 4324, Note_on_c, 0, 60, 0
2, 4374, Note_on_c, 0, 64, 58
2, 4375, Note_on_c, 0, 67, 54
2, 4383, Note_on_c, 0, 67, 0
2, 4384, Note_on_c, 0, 64, 0
2, 4425, Note_on_c, 0, 38, 51
2, 4442, Note_on_c, 0, 38, 0
2, 4484, Note_on_c, 0, 54, 46
2, 4486, Note_on_c, 0, 60, 36
2, 4487, Note_on_c, 0, 58, 39
2, 4620, Note_on_c, 0, 50, 78
2, 4661, Note_on_c, 0, 54, 0
2, 4675, Note_on_c, 0, 50, 0
2, 4680, Note_on_c, 0, 54, 26
2, 4682, Note_on_c, 0, 45, 58
2, 4691, Note_on_c, 0, 45, 0
2, 4734, Note_on_c, 0, 54, 0
2, 4742, Note_on_c, 0, 29, 64
2, 4745, Note_on_c, 0, 58, 0
2, 4746, Note_on_c, 0, 60, 0
2, 4749, Note_on_c, 0, 29, 0
2, 4770, Control_c, 0, 64, 127
2, 4792, Control_c, 0, 64, 0
2, 4798, Note_on_c, 0, 53, 64
2, 4799, Note_on_c, 0, 58, 62
2, 4799, Note_on_c, 0, 62, 62
2, 4799, Note_on_c, 0, 43, 62
2, 4833, Control_c, 0, 64, 127
2, 4876, Note_on_c, 0, 62, 0
2, 4890, Note_on_c, 0, 53, 0
2, 4899, Note_on_c, 0, 58, 0
2, 4907, Note_on_c, 0, 43, 0
2, 4911, Control_c, 0, 64, 0
2, 4917, Note_on_c, 0, 64, 57
2, 4918, Note_on_c, 0, 58, 38
2, 4919, Note_on_c, 0, 55, 55
2, 4921, Note_on_c, 0, 49, 48
2, 4945, Control_c, 0, 64, 127
2, 4951, Note_on_c, 0, 64, 0
2, 4970, Note_on_c, 0, 55, 0
2, 4980, Note_on_c, 0, 58, 0
2, 4993, Control_c, 0, 64, 0
2, 4994, Note_on_c, 0, 49, 0
2, 4994, Note_on_c, 0, 58, 31
2, 4997, Note_on_c, 0, 65, 50
2, 4998, Note_on_c, 0, 62, 52
2, 4999, Note_on_c, 0, 55, 42
2, 5002, Note_on_c, 0, 46, 31
2, 5009, Note_on_c, 0, 55, 0
2, 5017, Note_on_c, 0, 62, 0
2, 5019, Note_on_c, 0, 46, 0
2, 5022, Note_on_c, 0, 65, 0
2, 5023, Note_on_c, 0, 58, 0
2, 5079, Control_c, 0, 64, 127
2, 5172, Control_c, 0, 64, 0
2, 5173, Note_on_c, 0, 67, 81
2, 5174, Note_on_c, 0, 58, 77
2, 5177, Note_on_c, 0, 62, 79
2, 5183, Note_on_c, 0, 57, 58
2, 5191, Control_c, 0, 64, 127
2, 5213, Note_on_c, 0, 67, 0
2, 5238, Note_on_c, 0, 58, 0
2, 5238, Note_on_c, 0, 62, 0
2, 5353, Note_on_c, 0, 69, 62
2, 5354, Note_on_c, 0, 58, 46
2, 5355, Note_on_c, 0, 61, 51
2, 5356, Control_c, 0, 64, 0
2, 5356, Note_on_c, 0, 48, 40
2, 5357, Note_on_c, 0, 64, 50
2, 5385, Note_on_c, 0, 69, 0
2, 5386, Note_on_c, 0, 57, 0
2, 5390, Control_c, 0, 64, 127
2, 5425, Note_on_c, 0, 64, 0
2, 5438, Note_on_c, 0, 70, 70
2, 5441, Note_on_c, 0, 57, 49
2, 5456, Note_on_c, 0, 61, 0
2, 5460, Note_on_c, 0, 58, 0
2, 5477, Note_on_c, 0, 57, 0
2, 5481, Note_on_c, 0, 70, 0
2, 5518, Control_c, 0, 64, 0
2, 5523, Note_on_c, 0, 72, 59
2, 5524, Note_on_c, 0, 64, 62
2, 5527, Note_on_c, 0, 58, 36
2, 5528, Note_on_c, 0, 67, 54
2, 5552, Control_c, 0, 64, 127
2, 5618, Note_on_c, 0, 64, 0
2, 5632, Note_on_c, 0, 72, 0
2, 5633, Note_on_c, 0, 67, 0
2, 5638, Note_on_c, 0, 58, 0
2, 5647, Note_on_c, 0, 48, 0
2, 5695, Control_c, 0, 64, 0
2, 5704, Note_on_c, 0, 73, 35
2, 5706, Note_on_c, 0, 66, 56
2, 5707, Note_on_c, 0, 61, 47
2, 5708, Note_on_c, 0, 46, 40
2, 5727, Control_c, 0, 64, 127
2, 5743, Note_on_c, 0, 61, 0
2, 5751, Note_on_c, 0, 73, 0
2, 5756, Note_on_c, 0, 66, 0
2, 5758, Note_on_c, 0, 46, 0
2, 5765, Control_c, 0, 64, 0
2, 5773, Note_on_c, 0, 74, 38
2, 5775, Note_on_c, 0, 67, 40
2, 5777, Note_on_c, 0, 60, 31
2, 5778, Note_on_c, 0, 45, 38
2, 5778, Note_on_c, 0, 55, 36
2, 5801, Control_c, 0, 64, 127
2, 5834, Note_on_c, 0, 60, 0
2, 5837, Note_on_c, 0, 55, 0
2, 5844, Note_on_c, 0, 52, 48
2, 5853, Note_on_c, 0, 45, 0
2, 5862, Note_on_c, 0, 52, 0
2, 5880, Note_on_c, 0, 67, 0
2, 5921, Note_on_c, 0, 74, 0
2, 5953, Note_on_c, 0, 74, 85
2, 5954, Control_c, 0, 64, 0
2, 5954, Note_on_c, 0, 60, 66
2, 5954, Note_on_c, 0, 64, 82
2, 5954, Note_on_c, 0, 71, 90
2, 5955, Note_on_c, 0, 62, 74
2, 5955, Note_on_c, 0, 67, 99
2, 5994, Control_c, 0, 64, 127
2, 6044, Note_on_c, 0, 74, 0
2, 6067, Note_on_c, 0, 71, 0
2, 6067, Note_on_c, 0, 76, 75
2, 6096, Note_on_c, 0, 76, 0
2, 6111, Note_on_c, 0, 64, 0
2, 6112, Note_on_c, 0, 67, 0
2, 6115, Note_on_c, 0, 62, 0
2, 6116, Note_on_c, 0, 60, 0
2, 6124, Note_on_c, 0, 74, 61
2, 6183, Note_on_c, 0, 65, 40
2, 6184, Control_c, 0, 64, 0
2, 6185, Note_on_c, 0, 69, 51
2, 6188, Note_on_c, 0, 60, 39
2, 6188, Note_on_c, 0, 50, 38
2, 6250, Control_c, 0, 64, 127
2, 6260, Note_on_c, 0, 69, 0
2, 6285, Note_on_c, 0, 74, 0
2, 6292, Note_on_c, 0, 65, 0
2, 6299, Note_on_c, 0, 57, 32
2, 6316, Note_on_c, 0, 60, 0
2, 6354, Note_on_c, 0, 64, 47
2, 6354, Control_c, 0, 64, 0
2, 6356, Note_on_c, 0, 67, 53
2, 6356, Note_on_c, 0, 60, 32
2, 6385, Control_c, 0, 64, 127
2, 6397, Note_on_c, 0, 50, 0
2, 6407, Note_on_c, 0, 64, 0
2, 6416, Note_on_c, 0, 60, 0
2, 6421, Note_on_c, 0, 67, 0
2, 6425, Note_on_c, 0, 50, 35
2, 6426, Note_on_c, 0, 62, 49
2, 6427, Note_on_c, 0, 65, 51
2, 6433, Control_c, 0, 64, 0
2, 6465, Control_c, 0, 64, 127
2, 6475, Note_on_c, 0, 62, 0
2, 6526, Note_on_c, 0, 65, 0
2, 6541, Note_on_c, 0, 60, 39
2, 6543, Note_on_c, 0, 64, 58
2, 6545, Note_on_c, 0, 67, 58
2, 6554, Note_on_c, 0, 57, 0
2, 6575, Note_on_c, 0, 64, 0
2, 6575, Note_on_c, 0, 60, 0
2, 6585, Control_c, 0, 64, 0
2, 6599, Note_on_c, 0, 57, 41
2, 6601, Note_on_c, 0, 65, 54
2, 6602, Note_on_c, 0, 62, 43
2, 6608, Note_on_c, 0, 57, 0
2, 6611, Note_on_c, 0, 67, 0
2, 6611, Control_c, 0, 64, 127
2, 6616, Note_on_c, 0, 50, 0
2, 6632, Note_on_c, 0, 65, 0
2, 6638, Note_on_c, 0, 62, 0
2, 6669, Note_on_c, 0, 63, 44
2, 6670, Note_on_c, 0, 62, 42
2, 6671, Note_on_c, 0, 48, 49
2, 6673, Control_c, 0, 64, 0
2, 6675, Note_on_c, 0, 58, 44
2, 6715, Control_c, 0, 64, 127
2, 6780, Note_on_c, 0, 62, 0
2, 6784, Note_on_c, 0, 63, 0
2, 6789, Note_on_c, 0, 55, 51
2, 6790, Note_on_c, 0, 58, 0
2, 6887, Note_on_c, 0, 55, 0
2, 6889, Note_on_c, 0, 48, 0
2, 6889, Note_on_c, 0, 67, 64
2, 6907, Note_on_c, 0, 67, 0
2, 6922, Note_on_c, 0, 74, 82
2, 6959, Note_on_c, 0, 63, 70
2, 6960, Control_c, 0, 64, 0
2, 6961, Note_on_c, 0, 67, 67
2, 6968, Note_on_c, 0, 62, 50
2, 6994, Control_c, 0, 64, 127
2, 7009, Note_on_c, 0, 62, 0
2, 7026, Note_on_c, 0, 62, 58
2, 7070, Note_on_c, 0, 63, 0
2, 7071, Note_on_c, 0, 67, 0
2, 7085, Note_on_c, 0, 63, 35
2, 7085, Note_on_c, 0, 67, 32
2, 7086, Note_on_c, 0, 62, 0
2, 7113, Note_on_c, 0, 63, 0
2, 7136, Note_on_c, 0, 63, 46
2, 7145, Note_on_c, 0, 67, 0
2, 7165, Note_on_c, 0, 63, 0
2, 7179, Note_on_c, 0, 74, 0
2, 7198, Note_on_c, 0, 66, 50
2, 7199, Control_c, 0, 64, 0
2, 7200, Note_on_c, 0, 62, 44
2, 7204, Note_on_c, 0, 57, 36
2, 7205, Note_on_c, 0, 51, 38
2, 7245, Control_c, 0, 64, 127
2, 7306, Note_on_c, 0, 51, 0
2, 7315, Note_on_c, 0, 62, 0
2, 7331, Note_on_c, 0, 57, 0
2, 7333, Note_on_c, 0, 66, 0
2, 7374, Note_on_c, 0, 57, 51
2, 7375, Note_on_c, 0, 51, 45
2, 7437, Note_on_c, 0, 86, 92
2, 7468, Note_on_c, 0, 86, 0
2, 7489, Note_on_c, 0, 51, 0
2, 7496, Note_on_c, 0, 57, 0
2, 7496, Note_on_c, 0, 86, 90
2, 7525, Note_on_c, 0, 86, 0
2, 7550, Note_on_c, 0, 86, 85
2, 7575, Note_on_c, 0, 86, 0
2, 7610, Note_on_c, 0, 86, 94
2, 7652, Note_on_c, 0, 86, 0
2, 7664, Control_c, 0, 64, 0
2, 7668, Note_on_c, 0, 58, 54
2, 7669, Note_on_c, 0, 62, 65
2, 7669, Note_on_c, 0, 57, 57
2, 7670, Note_on_c, 0, 65, 65
2, 7671, Note_on_c, 0, 84, 74
2, 7712, Control_c, 0, 64, 127
2, 7719, Note_on_c, 0, 65, 0
2, 7721, Note_on_c, 0, 57, 0
2, 7724, Note_on_c, 0, 62, 0
2, 7728, Note_on_c, 0, 58, 0
2, 7751, Note_on_c, 0, 65, 36
2, 7752, Note_on_c, 0, 58, 33
2, 7754, Note_on_c, 0, 62, 42
2, 7754, Note_on_c, 0, 57, 32
2, 7783, Note_on_c, 0, 62, 0
2, 7787, Note_on_c, 0, 57, 0
2, 7790, Note_on_c, 0, 58, 0
2, 7791, Note_on_c, 0, 65, 0
2, 7849, Note_on_c, 0, 84, 0
2, 7863, Note_on_c, 0, 82, 60
2, 7865, Note_on_c, 0, 65, 59
2, 7865, Note_on_c, 0, 58, 46
2, 7867, Note_on_c, 0, 57, 50
2, 7868, Note_on_c, 0, 62, 49
2, 7876, Control_c, 0, 64, 0
2, 7894, Control_c, 0, 64, 127
2, 7910, Note_on_c, 0, 57, 0
2, 7916, Note_on_c, 0, 65, 0
2, 7916, Note_on_c, 0, 62, 0
2, 7919, Note_on_c, 0, 58, 0
2, 7945, Note_on_c, 0, 77, 46
2, 7948, Note_on_c, 0, 65, 41
2, 7948, Note_on_c, 0, 58, 37
2, 7949, Note_on_c, 0, 62, 46
2, 7950, Note_on_c, 0, 57, 35
2, 7975, Note_on_c, 0, 57, 0
2, 7975, Note_on_c, 0, 65, 0
2, 7983, Note_on_c, 0, 62, 0
2, 7984, Note_on_c, 0, 58, 0
2, 8019, Note_on_c, 0, 77, 0
2, 8019, Note_on_c, 0, 82, 0
2, 8019, Control_c, 0, 64, 0
2, 8028, Note_on_c, 0, 65, 43
2, 8028, Note_on_c, 0, 62, 46
2, 8030, Note_on_c, 0, 79, 49
2, 8033, Note_on_c, 0, 57, 26
2, 8036, Note_on_c, 0, 58, 23
2, 8037, Control_c, 0, 64, 127
2, 8039, Note_on_c, 0, 65, 0
2, 8042, Note_on_c, 0, 62, 0
2, 8044, Note_on_c, 0, 57, 0
2, 8050, Note_on_c, 0, 58, 0
2, 8087, Note_on_c, 0, 79, 0
2, 8110, Note_on_c, 0, 54, 29
2, 8111, Note_on_c, 0, 63, 30
2, 8113, Note_on_c, 0, 80, 39
2, 8114, Note_on_c, 0, 59, 45
2, 8115, Note_on_c, 0, 58, 33
2, 8117, Control_c, 0, 64, 0
2, 8149, Control_c, 0, 64, 127
2, 8163, Note_on_c, 0, 80, 0
2, 8173, Note_on_c, 0, 54, 0
2, 8189, Note_on_c, 0, 63, 0
2, 8213, Note_on_c, 0, 59, 0
2, 8219, Note_on_c, 0, 54, 47
2, 8233, Note_on_c, 0, 58, 0
2, 8248, Note_on_c, 0, 54, 0
2, 8269, Control_c, 0, 64, 0
2, 8281, Note_on_c, 0, 59, 40
2, 8322, Note_on_c, 0, 59, 0
2, 8340, Note_on_c, 0, 58, 76
2, 8458, Note_on_c, 0, 58, 0
2, 8462, Note_on_c, 0, 56, 46
2, 8501, Note_on_c, 0, 56, 0
2, 8523, Note_on_c, 0, 59, 40
2, 8527, Note_on_c, 0, 63, 20
2, 8566, Note_on_c, 0, 59, 0
2, 8582, Note_on_c, 0, 63, 0
2, 8584, Note_on_c, 0, 49, 38
2, 8605, Note_on_c, 0, 49, 0
2, 8635, Note_on_c, 0, 54, 34
2, 8639, Note_on_c, 0, 68, 34
2, 8642, Note_on_c, 0, 61, 43
2, 8647, Note_on_c, 0, 63, 25
2, 8690, Note_on_c, 0, 54, 0
2, 8694, Note_on_c, 0, 61, 0
2, 8696, Note_on_c, 0, 68, 0
2, 8701, Note_on_c, 0, 42, 33
2, 8711, Note_on_c, 0, 63, 0
2, 8721, Control_c, 0, 64, 127
2, 8753, Control_c, 0, 64, 0
2, 8758, Note_on_c, 0, 66, 45
2, 8760, Note_on_c, 0, 54, 33
2, 8760, Note_on_c, 0, 56, 34
2, 8762, Note_on_c, 0, 58, 40
2, 8763, Note_on_c, 0, 61, 38
2, 8792, Note_on_c, 0, 42, 0
2, 8807, Note_on_c, 0, 54, 0
2, 8814, Note_on_c, 0, 56, 0
2, 8814, Note_on_c, 0, 58, 0
2, 8814, Note_on_c, 0, 61, 0
2, 8819, Note_on_c, 0, 42, 44
2, 8831, Control_c, 0, 64, 127
2, 8841, Note_on_c, 0, 66, 0
2, 8859, Control_c, 0, 64, 0
2, 8875, Note_on_c, 0, 54, 40
2, 8876, Note_on_c, 0, 49, 47
2, 8878, Note_on_c, 0, 61, 42
2, 8879, Note_on_c, 0, 58, 44
2, 8901, Control_c, 0, 64, 127
2, 8907, Note_on_c, 0, 61, 0
2, 8917, Note_on_c, 0, 54, 0
2, 8918, Note_on_c, 0, 49, 0
2, 8921, Note_on_c, 0, 58, 0
2, 8951, Control_c, 0, 64, 0
2, 8991, Control_c, 0, 64, 127
2, 9001, Note_on_c, 0, 54, 48
2, 9003, Note_on_c, 0, 51, 46
2, 9004, Note_on_c, 0, 63, 53
2, 9004, Note_on_c, 0, 58, 39
2, 9009, Note_on_c, 0, 61, 30
2, 9042, Note_on_c, 0, 42, 0
2, 9053, Control_c, 0, 64, 0
2, 9086, Note_on_c, 0, 54, 0
2, 9087, Note_on_c, 0, 58, 0
2, 9087, Note_on_c, 0, 63, 0
2, 9091, Note_on_c, 0, 51, 0
2, 9092, Control_c, 0, 64, 127
2, 9114, Note_on_c, 0, 61, 0
2, 9120, Note_on_c, 0, 64, 53
2, 9120, Note_on_c, 0, 55, 59
2, 9121, Note_on_c, 0, 52, 52
2, 9122, Note_on_c, 0, 59, 58
2, 9131, Note_on_c, 0, 62, 20
2, 9163, Note_on_c, 0, 55, 0
2, 9167, Note_on_c, 0, 62, 0
2, 9170, Note_on_c, 0, 59, 0
2, 9171, Note_on_c, 0, 64, 0
2, 9172, Control_c, 0, 64, 0
2, 9178, Note_on_c, 0, 52, 0
2, 9180, Note_on_c, 0, 55, 31
2, 9181, Note_on_c, 0, 64, 71
2, 9182, Note_on_c, 0, 62, 40
2, 9182, Note_on_c, 0, 67, 30
2, 9183, Note_on_c, 0, 59, 50
2, 9218, Note_on_c, 0, 59, 0
2, 9225, Note_on_c, 0, 64, 0
2, 9226, Note_on_c, 0, 62, 0
2, 9230, Note_on_c, 0, 67, 0
2, 9236, Note_on_c, 0, 45, 52
2, 9242, Note_on_c, 0, 55, 0
2, 9297, Control_c, 0, 64, 127
2, 9299, Note_on_c, 0, 63, 62
2, 9301, Control_c, 0, 64, 0
2, 9301, Note_on_c, 0, 55, 66
2, 9303, Note_on_c, 0, 61, 39
2, 9303, Note_on_c, 0, 51, 50
2, 9303, Note_on_c, 0, 58, 46
2, 9330, Control_c, 0, 64, 127
2, 9338, Note_on_c, 0, 55, 0
2, 9340, Note_on_c, 0, 58, 0
2, 9344, Control_c, 0, 64, 0
2, 9345, Note_on_c, 0, 61, 0
2, 9345, Note_on_c, 0, 63, 0
2, 9354, Note_on_c, 0, 51, 0
2, 9361, Note_on_c, 0, 61, 44
2, 9362, Note_on_c, 0, 55, 50
2, 9363, Note_on_c, 0, 64, 51
2, 9363, Note_on_c, 0, 58, 38
2, 9364, Note_on_c, 0, 52, 43
2, 9420, Control_c, 0, 64, 127
2, 9430, Note_on_c, 0, 45, 0
2, 9441, Note_on_c, 0, 61, 0
2, 9443, Note_on_c, 0, 58, 0
2, 9444, Note_on_c, 0, 55, 0
2, 9458, Note_on_c, 0, 64, 0
2, 9476, Control_c, 0, 64, 0
2, 9484, Note_on_c, 0, 61, 37
2, 9485, Note_on_c, 0, 64, 36
2, 9486, Note_on_c, 0, 58, 35
2, 9487, Note_on_c, 0, 55, 34
2, 9494, Note_on_c, 0, 52, 0
2, 9524, Note_on_c, 0, 64, 0
2, 9525, Note_on_c, 0, 55, 0
2, 9532, Note_on_c, 0, 61, 0
2, 9535, Note_on_c, 0, 58, 0
2, 9546, Control_c, 0, 64, 127
2, 9590, Control_c, 0, 64, 0
2, 9601, Note_on_c, 0, 54, 39
2, 9604, Note_on_c, 0, 61, 40
2, 9604, Note_on_c, 0, 64, 40
2, 9604, Note_on_c, 0, 57, 49
2, 9644, Note_on_c, 0, 54, 0
2, 9647, Note_on_c, 0, 57, 0
2, 9650, Control_c, 0, 64, 127
2, 9662, Note_on_c, 0, 61, 0
2, 9663, Note_on_c, 0, 38, 49
2, 9667, Note_on_c, 0, 64, 0
2, 9708, Note_on_c, 0, 38, 0
2, 9711, Control_c, 0, 64, 0
2, 9720, Note_on_c, 0, 45, 37
2, 9737, Control_c, 0, 64, 127
2, 9779, Control_c, 0, 64, 0
2, 9781, Note_on_c, 0, 54, 51
2, 9783, Note_on_c, 0, 69, 63
2, 9784, Note_on_c, 0, 61, 58
2, 9785, Note_on_c, 0, 66, 53
2, 9786, Note_on_c, 0, 57, 60
2, 9847, Control_c, 0, 64, 127
2, 9849, Note_on_c, 0, 45, 0
2, 9897, Note_on_c, 0, 57, 0
2, 9901, Note_on_c, 0, 45, 56
2, 9905, Note_on_c, 0, 61, 0
2, 9920, Note_on_c, 0, 66, 0
2, 9923, Note_on_c, 0, 54, 0
2, 9924, Note_on_c, 0, 45, 0
2, 9941, Control_c, 0, 64, 0
2, 9945, Note_on_c, 0, 69, 0
2, 9957, Note_on_c, 0, 61, 43
2, 9958, Note_on_c, 0, 66, 32
2, 9959, Control_c, 0, 64, 127
2, 9960, Note_on_c, 0, 57, 32
2, 9970, Note_on_c, 0, 57, 0
2, 9975, Note_on_c, 0, 61, 0
2, 9989, Note_on_c, 0, 66, 0
2, 10019, Note_on_c, 0, 44, 59
2, 10032, Note_on_c, 0, 44, 0
2, 10072, Control_c, 0, 64, 0
2, 10138, Note_on_c, 0, 63, 62
2, 10139, Note_on_c, 0, 85, 63
2, 10140, Note_on_c, 0, 54, 47
2, 10141, Note_on_c, 0, 70, 54
2, 10142, Note_on_c, 0, 59, 60
2, 10146, Note_on_c, 0, 58, 36
2, 10166, Control_c, 0, 64, 127
2, 10167, Note_on_c, 0, 70, 0
2, 10168, Note_on_c, 0, 59, 0
2, 10169, Note_on_c, 0, 63, 0
2, 10171, Note_on_c, 0, 85, 0
2, 10175, Note_on_c, 0, 58, 0
2, 10176, Note_on_c, 0, 54, 0
2, 10204, Control_c, 0, 64, 0
2, 10261, Note_on_c, 0, 70, 64
2, 10261, Note_on_c, 0, 85, 55
2, 10262, Note_on_c, 0, 63, 58
2, 10263, Note_on_c, 0, 59, 56
2, 10265, Note_on_c, 0, 53, 56
2, 10265, Note_on_c, 0, 58, 31
2, 10314, Note_on_c, 0, 85, 0
2, 10316, Control_c, 0, 64, 127
2, 10324, Note_on_c, 0, 59, 0
2, 10331, Note_on_c, 0, 53, 0
2, 10342, Note_on_c, 0, 70, 0
2, 10343, Note_on_c, 0, 58, 0
2, 10343, Note_on_c, 0, 63, 0
2, 10382, Note_on_c, 0, 63, 58
2, 10382, Note_on_c, 0, 85, 65
2, 10383, Note_on_c, 0, 70, 52
2, 10384, Control_c, 0, 64, 0
2, 10385, Note_on_c, 0, 53, 42
2, 10386, Note_on_c, 0, 59, 50
2, 10415, Note_on_c, 0, 70, 0
2, 10419, Note_on_c, 0, 85, 0
2, 10427, Note_on_c, 0, 59, 0
2, 10446, Note_on_c, 0, 82, 30
2, 10448, Note_on_c, 0, 63, 0
2, 10450, Note_on_c, 0, 53, 0
2, 10453, Control_c, 0, 64, 127
2, 10475, Note_on_c, 0, 82, 0
2, 10497, Note_on_c, 0, 61, 68
2, 10499, Control_c, 0, 64, 0
2, 10499, Note_on_c, 0, 70, 58
2, 10500, Note_on_c, 0, 85, 62
2, 10501, Note_on_c, 0, 51, 51
2, 10501, Note_on_c, 0, 58, 52
2, 10506, Note_on_c, 0, 56, 28
2, 10541, Control_c, 0, 64, 127
2, 10543, Note_on_c, 0, 56, 0
2, 10547, Note_on_c, 0, 61, 0
2, 10554, Note_on_c, 0, 58, 0
2, 10558, Note_on_c, 0, 51, 0
2, 10600, Note_on_c, 0, 70, 0
2, 10601, Control_c, 0, 64, 0
2, 10609, Note_on_c, 0, 85, 0
2, 10620, Note_on_c, 0, 30, 56
2, 10622, Note_on_c, 0, 42, 39
2, 10625, Control_c, 0, 64, 127
2, 10627, Note_on_c, 0, 82, 23
2, 10629, Note_on_c, 0, 42, 0
2, 10629, Note_on_c, 0, 30, 0
2, 10648, Note_on_c, 0, 82, 0
2, 10657, Control_c, 0, 64, 0
2, 10683, Note_on_c, 0, 70, 62
2, 10684, Note_on_c, 0, 85, 58
2, 10686, Note_on_c, 0, 63, 69
2, 10690, Note_on_c, 0, 82, 25
2, 10691, Control_c, 0, 64, 127
2, 10693, Note_on_c, 0, 63, 0
2, 10718, Note_on_c, 0, 82, 0
2, 10718, Note_on_c, 0, 85, 0
2, 10722, Note_on_c, 0, 70, 0
2, 10741, Note_on_c, 0, 61, 61
2, 10743, Note_on_c, 0, 85, 62
2, 10744, Note_on_c, 0, 70, 53
2, 10745, Note_on_c, 0, 58, 49
2, 10777, Note_on_c, 0, 70, 0
2, 10780, Note_on_c, 0, 58, 0
2, 10782, Note_on_c, 0, 85, 0
2, 10789, Note_on_c, 0, 61, 0
2, 10791, Control_c, 0, 64, 0
2, 10805, Note_on_c, 0, 82, 36
2, 10809, Control_c, 0, 64, 127
2, 10814, Note_on_c, 0, 70, 15
2, 10841, Note_on_c, 0, 70, 0
2, 10842, Note_on_c, 0, 82, 0
2, 10860, Note_on_c, 0, 58, 58
2, 10863, Note_on_c, 0, 85, 63
2, 10863, Note_on_c, 0, 70, 52
2, 10873, Note_on_c, 0, 58, 0
2, 10889, Note_on_c, 0, 85, 0
2, 10906, Note_on_c, 0, 70, 0
2, 10910, Control_c, 0, 64, 0
2, 10916, Note_on_c, 0, 44, 61
2, 10950, Control_c, 0, 64, 127
2, 10972, Note_on_c, 0, 44, 0
2, 10984, Note_on_c, 0, 58, 55
2, 10987, Note_on_c, 0, 65, 58
2, 10988, Note_on_c, 0, 53, 49
2, 10989, Note_on_c, 0, 43, 38
2, 10989, Note_on_c, 0, 62, 48
2, 10992, Control_c, 0, 64, 0
2, 11038, Control_c, 0, 64, 127
2, 11066, Note_on_c, 0, 43, 0
2, 11077, Note_on_c, 0, 53, 0
2, 11105, Note_on_c, 0, 50, 82
2, 11136, Control_c, 0, 64, 0
2, 11139, Note_on_c, 0, 58, 0
2, 11153, Note_on_c, 0, 50, 0
2, 11162, Note_on_c, 0, 58, 27
2, 11180, Control_c, 0, 64, 127
2, 11211, Note_on_c, 0, 65, 0
2, 11217, Note_on_c, 0, 62, 0
2, 11221, Note_on_c, 0, 48, 80
2, 11241, Note_on_c, 0, 58, 0
2, 11259, Control_c, 0, 64, 0
2, 11281, Note_on_c, 0, 58, 43
2, 11282, Note_on_c, 0, 61, 49
2, 11285, Note_on_c, 0, 64, 47
2, 11301, Control_c, 0, 64, 127
2, 11344, Note_on_c, 0, 58, 0
2, 11357, Note_on_c, 0, 64, 0
2, 11364, Note_on_c, 0, 61, 0
2, 11406, Note_on_c, 0, 61, 53
2, 11409, Note_on_c, 0, 48, 0
2, 11409, Control_c, 0, 64, 0
2, 11413, Note_on_c, 0, 64, 35
2, 11413, Control_c, 0, 64, 127
2, 11427, Note_on_c, 0, 64, 0
2, 11429, Note_on_c, 0, 61, 0
2, 11460, Note_on_c, 0, 48, 41
2, 11497, Note_on_c, 0, 48, 0
2, 11505, Control_c, 0, 64, 0
2, 11517, Note_on_c, 0, 81, 61
2, 11518, Note_on_c, 0, 41, 41
2, 11526, Note_on_c, 0, 41, 0
2, 11537, Control_c, 0, 64, 127
2, 11586, Note_on_c, 0, 57, 26
2, 11586, Note_on_c, 0, 62, 66
2, 11595, Note_on_c, 0, 57, 0
2, 11597, Note_on_c, 0, 62, 0
2, 11606, Control_c, 0, 64, 0
2, 11693, Note_on_c, 0, 46, 36
2, 11697, Note_on_c, 0, 56, 15
2, 11701, Note_on_c, 0, 74, 53
2, 11716, Control_c, 0, 64, 127
2, 11750, Note_on_c, 0, 56, 0
2, 11750, Control_c, 0, 64, 0
2, 11751, Note_on_c, 0, 74, 0
2, 11759, Note_on_c, 0, 72, 36
2, 11815, Note_on_c, 0, 72, 0
2, 11819, Note_on_c, 0, 74, 45
2, 11823, Note_on_c, 0, 46, 0
2, 11877, Note_on_c, 0, 74, 0
2, 11878, Note_on_c, 0, 72, 46
2, 11882, Note_on_c, 0, 45, 58
2, 11982, Control_c, 0, 64, 127
2, 12012, Note_on_c, 0, 45, 0
2, 12059, Note_on_c, 0, 64, 58
2, 12062, Note_on_c, 0, 60, 40
2, 12064, Note_on_c, 0, 57, 44
2, 12065, Note_on_c, 0, 55, 27
2, 12067, Note_on_c, 0, 64, 0
2, 12071, Note_on_c, 0, 60, 0
2, 12074, Note_on_c, 0, 55, 0
2, 12075, Control_c, 0, 64, 0
2, 12076, Note_on_c, 0, 57, 0
2, 12181, Note_on_c, 0, 38, 41
2, 12217, Control_c, 0, 64, 127
2, 12243, Control_c, 0, 64, 0
2, 12259, Control_c, 0, 64, 127
2, 12311, Note_on_c, 0, 38, 0
2, 12345, Control_c, 0, 64, 0
2, 12360, Note_on_c, 0, 43, 60
2, 12381, Control_c, 0, 64, 127
2, 12453, Note_on_c, 0, 81, 0
2, 12467, Note_on_c, 0, 72, 0
2, 12480, Note_on_c, 0, 43, 0
2, 12546, Note_on_c, 0, 74, 47
2, 12548, Note_on_c, 0, 67, 41
2, 12549, Note_on_c, 0, 70, 46
2, 12549, Note_on_c, 0, 65, 41
2, 12550, Control_c, 0, 64, 0
2, 12550, Note_on_c, 0, 62, 54
2, 12551, Note_on_c, 0, 55, 44
2, 12557, Note_on_c, 0, 58, 21
2, 12559, Note_on_c, 0, 62, 0
2, 12562, Note_on_c, 0, 55, 0
2, 12568, Note_on_c, 0, 65, 0
2, 12568, Note_on_c, 0, 67, 0
2, 12569, Note_on_c, 0, 58, 0
2, 12576, Note_on_c, 0, 74, 0
2, 12576, Note_on_c, 0, 70, 0
2, 12653, Note_on_c, 0, 76, 66
2, 12656, Note_on_c, 0, 67, 53
2, 12657, Note_on_c, 0, 70, 50
2, 12659, Note_on_c, 0, 38, 76
2, 12677, Note_on_c, 0, 76, 0
2, 12682, Note_on_c, 0, 67, 0
2, 12684, Note_on_c, 0, 70, 0
2, 12718, Note_on_c, 0, 77, 55
2, 12722, Note_on_c, 0, 65, 52
2, 12751, Note_on_c, 0, 65, 0
2, 12758, Note_on_c, 0, 77, 0
2, 12785, Note_on_c, 0, 79, 51
2, 12785, Note_on_c, 0, 67, 61
2, 12799, Note_on_c, 0, 38, 0
2, 12840, Note_on_c, 0, 79, 0
2, 12840, Note_on_c, 0, 36, 38
2, 12847, Note_on_c, 0, 67, 0
2, 12897, Note_on_c, 0, 81, 60
2, 12899, Note_on_c, 0, 69, 58
2, 12901, Note_on_c, 0, 74, 52
2, 12925, Note_on_c, 0, 74, 0
2, 12925, Note_on_c, 0, 69, 0
2, 12929, Control_c, 0, 64, 127
2, 12933, Note_on_c, 0, 81, 0
2, 12960, Note_on_c, 0, 36, 0
2, 12989, Control_c, 0, 64, 0
2, 13011, Note_on_c, 0, 82, 49
2, 13012, Note_on_c, 0, 75, 55
2, 13014, Note_on_c, 0, 67, 54
2, 13016, Note_on_c, 0, 70, 37
2, 13017, Note_on_c, 0, 62, 36
2, 13019, Note_on_c, 0, 56, 20
2, 13045, Note_on_c, 0, 67, 0
2, 13047, Note_on_c, 0, 62, 0
2, 13050, Note_on_c, 0, 75, 0
2, 13050, Note_on_c, 0, 56, 0
2, 13053, Note_on_c, 0, 70, 0
2, 13063, Note_on_c, 0, 82, 0
2, 13131, Note_on_c, 0, 84, 71
2, 13132, Note_on_c, 0, 56, 67
2, 13133, Note_on_c, 0, 72, 64
2, 13134, Note_on_c, 0, 46, 60
2, 13135, Note_on_c, 0, 79, 57
2, 13149, Note_on_c, 0, 56, 0
2, 13155, Note_on_c, 0, 46, 0
2, 13170, Note_on_c, 0, 84, 0
2, 13171, Note_on_c, 0, 72, 0
2, 13171, Note_on_c, 0, 79, 0
2, 13193, Note_on_c, 0, 56, 50
2, 13194, Note_on_c, 0, 72, 55
2, 13194, Note_on_c, 0, 84, 61
2, 13196, Note_on_c, 0, 79, 51
2, 13212, Control_c, 0, 64, 127
2, 13220, Control_c, 0, 64, 0
2, 13233, Note_on_c, 0, 56, 0
2, 13236, Note_on_c, 0, 72, 0
2, 13237, Note_on_c, 0, 84, 0
2, 13240, Control_c, 0, 64, 127
2, 13245, Note_on_c, 0, 79, 0
2, 13292, Control_c, 0, 64, 0
2, 13315, Note_on_c, 0, 86, 68
2, 13316, Note_on_c, 0, 79, 64
2, 13317, Note_on_c, 0, 56, 71
2, 13317, Note_on_c, 0, 46, 64
2, 13317, Note_on_c, 0, 74, 60
2, 13354, Note_on_c, 0, 56, 0
2, 13360, Note_on_c, 0, 46, 0
2, 13366, Note_on_c, 0, 74, 0
2, 13367, Note_on_c, 0, 79, 0
2, 13378, Note_on_c, 0, 86, 0
2, 13380, Note_on_c, 0, 45, 73
2, 13432, Note_on_c, 0, 45, 0
2, 13436, Note_on_c, 0, 55, 70
2, 13438, Note_on_c, 0, 88, 75
2, 13440, Note_on_c, 0, 84, 69
2, 13440, Control_c, 0, 64, 127
2, 13440, Note_on_c, 0, 76, 69
2, 13441, Note_on_c, 0, 81, 66
2, 13452, Note_on_c, 0, 55, 0
2, 13506, Note_on_c, 0, 64, 54
2, 13509, Note_on_c, 0, 57, 31
2, 13511, Note_on_c, 0, 60, 37
2, 13523, Note_on_c, 0, 88, 0
2, 13526, Note_on_c, 0, 76, 0
2, 13527, Note_on_c, 0, 84, 0
2, 13529, Note_on_c, 0, 81, 0
2, 13557, Note_on_c, 0, 60, 0
2, 13566, Note_on_c, 0, 64, 0
2, 13566, Note_on_c, 0, 55, 44
2, 13570, Note_on_c, 0, 57, 0
2, 13577, Note_on_c, 0, 55, 0
2, 13630, Note_on_c, 0, 54, 28
2, 13631, Control_c, 0, 64, 0
2, 13631, Note_on_c, 0, 74, 50
2, 13631, Note_on_c, 0, 65, 52
2, 13632, Note_on_c, 0, 70, 48
2, 13634, Note_on_c, 0, 60, 40
2, 13691, Control_c, 0, 64, 127
2, 13745, Note_on_c, 0, 50, 55
2, 13760, Note_on_c, 0, 65, 0
2, 13761, Note_on_c, 0, 60, 0
2, 13769, Note_on_c, 0, 54, 0
2, 13775, Note_on_c, 0, 50, 0
2, 13798, Note_on_c, 0, 70, 0
2, 13799, Note_on_c, 0, 74, 0
2, 13799, Note_on_c, 0, 65, 35
2, 13801, Note_on_c, 0, 43, 36
2, 13816, Note_on_c, 0, 65, 0
2, 13913, Control_c, 0, 64, 0
2, 13918, Note_on_c, 0, 69, 66
2, 13920, Note_on_c, 0, 58, 58
2, 13921, Note_on_c, 0, 53, 52
2, 13921, Note_on_c, 0, 62, 62
2, 13924, Note_on_c, 0, 65, 51
2, 13964, Control_c, 0, 64, 127
2, 14025, Note_on_c, 0, 53, 0
2, 14038, Note_on_c, 0, 65, 0
2, 14042, Note_on_c, 0, 62, 0
2, 14046, Note_on_c, 0, 43, 0
2, 14056, Note_on_c, 0, 58, 0
2, 14059, Note_on_c, 0, 69, 0
2, 14114, Note_on_c, 0, 58, 53
2, 14114, Note_on_c, 0, 69, 60
2, 14116, Control_c, 0, 64, 0
2, 14116, Note_on_c, 0, 61, 50
2, 14118, Note_on_c, 0, 64, 51
2, 14158, Control_c, 0, 64, 127
2, 14235, Note_on_c, 0, 48, 73
2, 14239, Note_on_c, 0, 47, 58
2, 14246, Note_on_c, 0, 47, 0
2, 14248, Control_c, 0, 64, 0
2, 14259, Note_on_c, 0, 58, 0
2, 14260, Note_on_c, 0, 69, 0
2, 14298, Note_on_c, 0, 58, 15
2, 14316, Control_c, 0, 64, 127
2, 14342, Note_on_c, 0, 48, 0
2, 14347, Note_on_c, 0, 64, 0
2, 14358, Note_on_c, 0, 48, 55
2, 14361, Note_on_c, 0, 58, 0
2, 14365, Note_on_c, 0, 61, 0
2, 14368, Note_on_c, 0, 47, 28
2, 14374, Note_on_c, 0, 47, 0
2, 14402, Note_on_c, 0, 57, 49
2, 14402, Note_on_c, 0, 60, 39
2, 14461, Note_on_c, 0, 48, 0
2, 14468, Note_on_c, 0, 48, 51
2, 14498, Note_on_c, 0, 48, 0
2, 14524, Note_on_c, 0, 48, 36
2, 14553, Note_on_c, 0, 48, 0
2, 14589, Note_on_c, 0, 48, 58
2, 14611, Note_on_c, 0, 48, 0
2, 14707, Note_on_c, 0, 48, 54
2, 14730, Note_on_c, 0, 48, 0
2, 14761, Note_on_c, 0, 57, 0
2, 14765, Note_on_c, 0, 48, 39
2, 14768, Note_on_c, 0, 60, 0
2, 14780, Note_on_c, 0, 48, 0
2, 14823, Note_on_c, 0, 58, 46
2, 14827, Note_on_c, 0, 53, 41
2, 14828, Note_on_c, 0, 65, 37
2, 14829, Note_on_c, 0, 62, 44
2, 14829, Note_on_c, 0, 48, 43
2, 14834, Control_c, 0, 64, 0
2, 14873, Note_on_c, 0, 48, 0
2, 14882, Control_c, 0, 64, 127
2, 14915, Note_on_c, 0, 53, 0
2, 14944, Note_on_c, 0, 62, 0
2, 14947, Note_on_c, 0, 48, 54
2, 14955, Note_on_c, 0, 58, 0
2, 14968, Note_on_c, 0, 48, 0
2, 14979, Note_on_c, 0, 65, 0
2, 15006, Note_on_c, 0, 48, 36
2, 15023, Note_on_c, 0, 48, 0
2, 15065, Note_on_c, 0, 73, 49
2, 15068, Note_on_c, 0, 68, 61
2, 15069, Note_on_c, 0, 64, 55
2, 15073, Note_on_c, 0, 53, 34
2, 15077, Control_c, 0, 64, 0
2, 15093, Note_on_c, 0, 53, 0
2, 15127, Control_c, 0, 64, 127
2, 15180, Note_on_c, 0, 49, 42
2, 15195, Note_on_c, 0, 49, 0
2, 15212, Note_on_c, 0, 64, 0
2, 15237, Note_on_c, 0, 48, 45
2, 15241, Control_c, 0, 64, 0
2, 15283, Note_on_c, 0, 68, 0
2, 15283, Note_on_c, 0, 73, 0
2, 15285, Note_on_c, 0, 48, 0
2, 15302, Note_on_c, 0, 41, 62
2, 15343, Note_on_c, 0, 41, 0
2, 15354, Note_on_c, 0, 72, 50
2, 15359, Note_on_c, 0, 67, 58
2, 15361, Note_on_c, 0, 62, 28
2, 15370, Note_on_c, 0, 62, 0
2, 15390, Note_on_c, 0, 67, 0
2, 15402, Note_on_c, 0, 72, 0
2, 15419, Note_on_c, 0, 62, 47
2, 15422, Note_on_c, 0, 57, 36
2, 15432, Note_on_c, 0, 62, 0
2, 15437, Note_on_c, 0, 57, 0
2, 15477, Note_on_c, 0, 81, 90
2, 15543, Note_on_c, 0, 74, 53
2, 15570, Control_c, 0, 64, 127
2, 15580, Control_c, 0, 64, 0
2, 15587, Note_on_c, 0, 74, 0
2, 15594, Note_on_c, 0, 81, 0
2, 15594, Note_on_c, 0, 67, 42
2, 15600, Note_on_c, 0, 62, 31
2, 15602, Note_on_c, 0, 56, 15
2, 15603, Note_on_c, 0, 72, 32
2, 15648, Note_on_c, 0, 72, 0
2, 15659, Note_on_c, 0, 74, 50
2, 15697, Note_on_c, 0, 74, 0
2, 15708, Note_on_c, 0, 72, 37
2, 15714, Note_on_c, 0, 62, 0
2, 15714, Note_on_c, 0, 67, 0
2, 15732, Control_c, 0, 64, 127
2, 15741, Note_on_c, 0, 56, 0
2, 15753, Note_on_c, 0, 72, 0
2, 15774, Note_on_c, 0, 72, 36
2, 15777, Note_on_c, 0, 64, 30
2, 15778, Note_on_c, 0, 55, 29
2, 15780, Note_on_c, 0, 57, 31
2, 15782, Note_on_c, 0, 60, 24
2, 15792, Control_c, 0, 64, 0
2, 15807, Control_c, 0, 64, 127
2, 15815, Note_on_c, 0, 60, 0
2, 15819, Note_on_c, 0, 64, 0
2, 15825, Note_on_c, 0, 55, 0
2, 15827, Note_on_c, 0, 57, 0
2, 15833, Note_on_c, 0, 72, 0
2, 15900, Note_on_c, 0, 45, 37
2, 15914, Note_on_c, 0, 45, 0
2, 15935, Control_c, 0, 64, 0
2, 16016, Note_on_c, 0, 38, 40
2, 16038, Note_on_c, 0, 38, 0
2, 16076, Note_on_c, 0, 65, 45
2, 16077, Note_on_c, 0, 54, 35
2, 16078, Note_on_c, 0, 58, 38
2, 16134, Note_on_c, 0, 50, 43
2, 16146, Note_on_c, 0, 54, 0
2, 16151, Note_on_c, 0, 58, 0
2, 16152, Note_on_c, 0, 65, 0
2, 16154, Note_on_c, 0, 50, 0
2, 16193, Note_on_c, 0, 54, 46
2, 16197, Note_on_c, 0, 63, 31
2, 16201, Note_on_c, 0, 58, 30
2, 16234, Note_on_c, 0, 58, 0
2, 16239, Note_on_c, 0, 54, 0
2, 16248, Note_on_c, 0, 63, 0
2, 16248, Control_c, 0, 64, 127
2, 16260, Note_on_c, 0, 31, 41
2, 16261, Note_on_c, 0, 53, 49
2, 16262, Note_on_c, 0, 58, 34
2, 16263, Note_on_c, 0, 43, 26
2, 16264, Note_on_c, 0, 62, 46
2, 16283, Note_on_c, 0, 31, 0
2, 16297, Note_on_c, 0, 62, 0
2, 16298, Note_on_c, 0, 43, 0
2, 16311, Note_on_c, 0, 58, 0
2, 16338, Note_on_c, 0, 53, 0
2, 16378, Control_c, 0, 64, 0
2, 16387, Note_on_c, 0, 61, 64
2, 16388, Note_on_c, 0, 53, 67
2, 16389, Note_on_c, 0, 58, 50
2, 16389, Note_on_c, 0, 55, 62
2, 16391, Note_on_c, 0, 49, 56
2, 16393, Note_on_c, 0, 43, 44
2, 16420, Note_on_c, 0, 55, 0
2, 16428, Note_on_c, 0, 53, 0
2, 16432, Note_on_c, 0, 61, 0
2, 16441, Note_on_c, 0, 49, 0
2, 16444, Note_on_c, 0, 50, 40
2, 16446, Note_on_c, 0, 58, 0
2, 16446, Control_c, 0, 64, 127
2, 16446, Note_on_c, 0, 53, 17
2, 16455, Note_on_c, 0, 43, 0
2, 16467, Note_on_c, 0, 53, 0
2, 16477, Note_on_c, 0, 50, 0
2, 16498, Control_c, 0, 64, 0
2, 16504, Note_on_c, 0, 65, 62
2, 16505, Note_on_c, 0, 58, 46
2, 16506, Note_on_c, 0, 53, 64
2, 16506, Note_on_c, 0, 55, 59
2, 16510, Note_on_c, 0, 62, 42
2, 16518, Note_on_c, 0, 62, 0
2, 16519, Control_c, 0, 64, 127
2, 16520, Note_on_c, 0, 55, 0
2, 16521, Note_on_c, 0, 58, 0
2, 16524, Note_on_c, 0, 65, 0
2, 16531, Note_on_c, 0, 53, 0
2, 16555, Control_c, 0, 64, 0
2, 16560, Note_on_c, 0, 57, 62
2, 16562, Note_on_c, 0, 69, 75
2, 16563, Note_on_c, 0, 58, 68
2, 16564, Note_on_c, 0, 62, 71
2, 16566, Note_on_c, 0, 65, 53
2, 16591, Control_c, 0, 64, 127
2, 16592, Note_on_c, 0, 65, 0
2, 16592, Note_on_c, 0, 58, 0
2, 16592, Note_on_c, 0, 57, 0
2, 16594, Note_on_c, 0, 62, 0
2, 16597, Note_on_c, 0, 69, 0
2, 16617, Control_c, 0, 64, 0
2, 16625, Note_on_c, 0, 60, 66
2, 16625, Note_on_c, 0, 72, 79
2, 16626, Note_on_c, 0, 62, 85
2, 16627, Note_on_c, 0, 65, 83
2, 16631, Note_on_c, 0, 69, 64
2, 16647, Control_c, 0, 64, 127
2, 16659, Note_on_c, 0, 69, 0
2, 16663, Note_on_c, 0, 62, 0
2, 16663, Note_on_c, 0, 65, 0
2, 16665, Control_c, 0, 64, 0
2, 16669, Note_on_c, 0, 72, 0
2, 16672, Note_on_c, 0, 60, 0
2, 16680, Note_on_c, 0, 57, 53
2, 16699, Control_c, 0, 64, 127
2, 16734, Note_on_c, 0, 57, 0
2, 16743, Note_on_c, 0, 58, 34
2, 16745, Note_on_c, 0, 53, 38
2, 16751, Note_on_c, 0, 58, 0
2, 16758, Note_on_c, 0, 53, 0
2, 16786, Control_c, 0, 64, 0
2, 16798, Note_on_c, 0, 72, 47
2, 16799, Note_on_c, 0, 60, 46
2, 16799, Note_on_c, 0, 65, 57
2, 16799, Note_on_c, 0, 62, 42
2, 16801, Note_on_c, 0, 69, 44
2, 16845, Note_on_c, 0, 62, 0
2, 16849, Note_on_c, 0, 69, 0
2, 16850, Note_on_c, 0, 65, 0
2, 16850, Control_c, 0, 64, 127
2, 16857, Note_on_c, 0, 60, 0
2, 16861, Note_on_c, 0, 72, 0
2, 16904, Control_c, 0, 64, 0
2, 16912, Note_on_c, 0, 73, 37
2, 16914, Note_on_c, 0, 64, 48
2, 16914, Note_on_c, 0, 70, 40
2, 16916, Note_on_c, 0, 68, 37
2, 16936, Control_c, 0, 64, 127
2, 16956, Note_on_c, 0, 64, 0
2, 16960, Note_on_c, 0, 73, 0
2, 16963, Note_on_c, 0, 70, 0
2, 16969, Note_on_c, 0, 68, 0
2, 16984, Control_c, 0, 64, 0
2, 16986, Note_on_c, 0, 68, 32
2, 16988, Note_on_c, 0, 75, 55
2, 16992, Note_on_c, 0, 46, 39
2, 17002, Note_on_c, 0, 46, 0
2, 17008, Control_c, 0, 64, 127
2, 17010, Note_on_c, 0, 68, 0
2, 17017, Note_on_c, 0, 75, 0
2, 17042, Control_c, 0, 64, 0
2, 17059, Note_on_c, 0, 79, 71
2, 17060, Note_on_c, 0, 56, 52
2, 17060, Note_on_c, 0, 67, 71
2, 17060, Note_on_c, 0, 72, 68
2, 17066, Note_on_c, 0, 62, 49
2, 17069, Control_c, 0, 64, 127
2, 17097, Note_on_c, 0, 56, 0
2, 17099, Note_on_c, 0, 67, 0
2, 17110, Note_on_c, 0, 62, 0
2, 17111, Note_on_c, 0, 72, 0
2, 17129, Control_c, 0, 64, 0
2, 17130, Note_on_c, 0, 79, 0
2, 17146, Note_on_c, 0, 77, 61
2, 17147, Note_on_c, 0, 56, 37
2, 17150, Note_on_c, 0, 72, 59
2, 17155, Control_c, 0, 64, 127
2, 17166, Note_on_c, 0, 77, 0
2, 17168, Note_on_c, 0, 72, 0
2, 17176, Note_on_c, 0, 56, 0
2, 17233, Note_on_c, 0, 71, 52
2, 17234, Note_on_c, 0, 67, 55
2, 17234, Note_on_c, 0, 64, 53
2, 17234, Note_on_c, 0, 74, 55
2, 17235, Control_c, 0, 64, 0
2, 17239, Note_on_c, 0, 59, 28
2, 17240, Note_on_c, 0, 60, 31
2, 17275, Control_c, 0, 64, 127
2, 17293, Note_on_c, 0, 60, 0
2, 17294, Note_on_c, 0, 59, 0
2, 17313, Note_on_c, 0, 64, 0
2, 17330, Note_on_c, 0, 67, 0
2, 17336, Note_on_c, 0, 71, 0
2, 17336, Note_on_c, 0, 74, 0
2, 17350, Note_on_c, 0, 71, 65
2, 17350, Note_on_c, 0, 67, 44
2, 17351, Note_on_c, 0, 64, 56
2, 17351, Note_on_c, 0, 74, 66
2, 17354, Note_on_c, 0, 59, 47
2, 17354, Note_on_c, 0, 60, 32
2, 17375, Note_on_c, 0, 60, 0
2, 17375, Note_on_c, 0, 64, 0
2, 17382, Note_on_c, 0, 59, 0
2, 17448, Note_on_c, 0, 67, 0
2, 17454, Note_on_c, 0, 74, 0
2, 17455, Note_on_c, 0, 71, 0
2, 17469, Note_on_c, 0, 72, 61
2, 17470, Note_on_c, 0, 45, 54
2, 17473, Note_on_c, 0, 67, 31
2, 17487, Note_on_c, 0, 67, 0
2, 17490, Note_on_c, 0, 72, 0
2, 17516, Control_c, 0, 64, 0
2, 17529, Note_on_c, 0, 74, 71
2, 17531, Note_on_c, 0, 57, 52
2, 17531, Note_on_c, 0, 71, 71
2, 17532, Note_on_c, 0, 67, 74
2, 17550, Control_c, 0, 64, 127
2, 17567, Note_on_c, 0, 71, 0
2, 17567, Note_on_c, 0, 74, 0
2, 17575, Note_on_c, 0, 67, 0
2, 17575, Note_on_c, 0, 57, 0
2, 17594, Note_on_c, 0, 52, 30
2, 17641, Note_on_c, 0, 52, 0
2, 17644, Control_c, 0, 64, 0
2, 17646, Note_on_c, 0, 71, 54
2, 17649, Note_on_c, 0, 55, 43
2, 17650, Note_on_c, 0, 60, 46
2, 17650, Note_on_c, 0, 64, 56
2, 17652, Note_on_c, 0, 45, 0
2, 17678, Control_c, 0, 64, 127
2, 17688, Note_on_c, 0, 71, 0
2, 17688, Note_on_c, 0, 55, 0
2, 17691, Note_on_c, 0, 64, 0
2, 17705, Note_on_c, 0, 60, 0
2, 17711, Note_on_c, 0, 45, 35
2, 17726, Note_on_c, 0, 45, 0
2, 17763, Control_c, 0, 64, 0
2, 17764, Note_on_c, 0, 57, 51
2, 17765, Note_on_c, 0, 60, 33
2, 17765, Note_on_c, 0, 67, 42
2, 17767, Note_on_c, 0, 55, 37
2, 17767, Note_on_c, 0, 64, 32
2, 17816, Note_on_c, 0, 64, 0
2, 17818, Note_on_c, 0, 55, 0
2, 17823, Note_on_c, 0, 54, 46
2, 17831, Note_on_c, 0, 57, 0
2, 17831, Note_on_c, 0, 60, 0
2, 17834, Note_on_c, 0, 67, 0
2, 17849, Control_c, 0, 64, 127
2, 17869, Note_on_c, 0, 54, 0
2, 17869, Control_c, 0, 64, 0
2, 17877, Note_on_c, 0, 57, 50
2, 17878, Note_on_c, 0, 65, 41
2, 17878, Note_on_c, 0, 60, 36
2, 17881, Note_on_c, 0, 53, 34
2, 17914, Note_on_c, 0, 53, 0
2, 17923, Note_on_c, 0, 65, 0
2, 17925, Note_on_c, 0, 60, 0
2, 17932, Note_on_c, 0, 43, 43
2, 17933, Note_on_c, 0, 57, 0
2, 17959, Control_c, 0, 64, 127
2, 17961, Note_on_c, 0, 43, 0
2, 17990, Note_on_c, 0, 52, 40
2, 17991, Control_c, 0, 64, 0
2, 17992, Note_on_c, 0, 64, 56
2, 17993, Note_on_c, 0, 53, 60
2, 17995, Note_on_c, 0, 57, 62
2, 18032, Note_on_c, 0, 64, 0
2, 18034, Note_on_c, 0, 53, 0
2, 18039, Note_on_c, 0, 57, 0
2, 18052, Note_on_c, 0, 52, 0
2, 18054, Note_on_c, 0, 51, 49
2, 18055, Note_on_c, 0, 53, 24
2, 18056, Note_on_c, 0, 63, 29
2, 18057, Note_on_c, 0, 57, 16
2, 18082, Note_on_c, 0, 63, 0
2, 18089, Note_on_c, 0, 53, 0
2, 18099, Note_on_c, 0, 51, 0
2, 18103, Note_on_c, 0, 57, 0
2, 18109, Note_on_c, 0, 62, 63
2, 18125, Control_c, 0, 64, 127
2, 18157, Note_on_c, 0, 62, 0
2, 18172, Note_on_c, 0, 37, 53
2, 18208, Control_c, 0, 64, 0
2, 18219, Note_on_c, 0, 37, 0
2, 18226, Note_on_c, 0, 44, 57
2, 18231, Note_on_c, 0, 58, 73
2, 18231, Note_on_c, 0, 67, 74
2, 18235, Note_on_c, 0, 63, 55
2, 18268, Control_c, 0, 64, 127
2, 18271, Note_on_c, 0, 67, 0
2, 18277, Note_on_c, 0, 44, 0
2, 18290, Note_on_c, 0, 53, 49
2, 18291, Note_on_c, 0, 58, 0
2, 18294, Note_on_c, 0, 63, 0
2, 18329, Note_on_c, 0, 53, 0
2, 18347, Note_on_c, 0, 56, 37
2, 18404, Note_on_c, 0, 56, 0
2, 18410, Control_c, 0, 64, 0
2, 18411, Note_on_c, 0, 63, 60
2, 18412, Note_on_c, 0, 70, 59
2, 18413, Note_on_c, 0, 59, 66
2, 18414, Note_on_c, 0, 67, 57
2, 18416, Note_on_c, 0, 58, 54
2, 18446, Control_c, 0, 64, 127
2, 18502, Note_on_c, 0, 67, 0
2, 18511, Note_on_c, 0, 59, 0
2, 18514, Note_on_c, 0, 63, 0
2, 18532, Note_on_c, 0, 58, 0
2, 18535, Note_on_c, 0, 59, 59
2, 18535, Note_on_c, 0, 63, 46
2, 18535, Note_on_c, 0, 68, 51
2, 18541, Note_on_c, 0, 56, 31
2, 18549, Note_on_c, 0, 70, 0
2, 18566, Note_on_c, 0, 56, 0
2, 18579, Note_on_c, 0, 59, 0
2, 18599, Note_on_c, 0, 68, 0
2, 18602, Note_on_c, 0, 63, 0
2, 18663, Control_c, 0, 64, 0
2, 18663, Note_on_c, 0, 65, 51
2, 18664, Note_on_c, 0, 62, 66
2, 18666, Note_on_c, 0, 48, 45
2, 18666, Note_on_c, 0, 58, 37
2, 18699, Control_c, 0, 64, 127
2, 18732, Note_on_c, 0, 65, 0
2, 18750, Note_on_c, 0, 62, 0
2, 18763, Note_on_c, 0, 60, 49
2, 18763, Control_c, 0, 64, 0
2, 18786, Note_on_c, 0, 60, 0
2, 18797, Control_c, 0, 64, 127
2, 18799, Note_on_c, 0, 62, 53
2, 18820, Note_on_c, 0, 62, 0
2, 18831, Note_on_c, 0, 62, 64
2, 18841, Control_c, 0, 64, 0
2, 18849, Note_on_c, 0, 62, 0
2, 18859, Note_on_c, 0, 64, 54
2, 18880, Note_on_c, 0, 64, 0
2, 18882, Note_on_c, 0, 58, 0
2, 18893, Note_on_c, 0, 64, 65
2, 18906, Note_on_c, 0, 64, 0
2, 18925, Note_on_c, 0, 65, 51
2, 18942, Note_on_c, 0, 65, 0
2, 18958, Note_on_c, 0, 65, 57
2, 18960, Note_on_c, 0, 58, 46
2, 18968, Note_on_c, 0, 65, 0
2, 18989, Note_on_c, 0, 48, 0
2, 19016, Note_on_c, 0, 67, 76
2, 19037, Note_on_c, 0, 67, 0
2, 19071, Note_on_c, 0, 48, 34
2, 19076, Note_on_c, 0, 69, 81
2, 19077, Note_on_c, 0, 58, 0
2, 19088, Note_on_c, 0, 48, 0
2, 19095, Note_on_c, 0, 69, 0
2, 19110, Note_on_c, 0, 70, 69
2, 19129, Note_on_c, 0, 70, 0
2, 19139, Note_on_c, 0, 72, 68
2, 19165, Note_on_c, 0, 72, 0
2, 19174, Note_on_c, 0, 68, 39
2, 19174, Control_c, 0, 64, 127
2, 19191, Note_on_c, 0, 68, 0
2, 19194, Control_c, 0, 64, 0
2, 19203, Note_on_c, 0, 69, 54
2, 19209, Note_on_c, 0, 48, 27
2, 19213, Note_on_c, 0, 57, 24
2, 19238, Note_on_c, 0, 57, 0
2, 19244, Note_on_c, 0, 69, 0
2, 19259, Note_on_c, 0, 60, 33
2, 19297, Note_on_c, 0, 60, 0
2, 19319, Note_on_c, 0, 60, 38
2, 19327, Note_on_c, 0, 57, 22
2, 19333, Control_c, 0, 64, 127
2, 19339, Note_on_c, 0, 57, 0
2, 19341, Control_c, 0, 64, 0
2, 19376, Note_on_c, 0, 41, 39
2, 19379, Note_on_c, 0, 48, 0
2, 19385, Note_on_c, 0, 41, 0
2, 19385, Control_c, 0, 64, 127
2, 19405, Note_on_c, 0, 60, 0
2, 19437, Control_c, 0, 64, 0
2, 19438, Note_on_c, 0, 46, 47
2, 19439, Note_on_c, 0, 67, 58
2, 19440, Note_on_c, 0, 64, 64
2, 19444, Note_on_c, 0, 56, 25
2, 19481, Note_on_c, 0, 56, 0
2, 19492, Note_on_c, 0, 64, 0
2, 19503, Note_on_c, 0, 60, 35
2, 19507, Note_on_c, 0, 56, 26
2, 19520, Note_on_c, 0, 56, 0
2, 19525, Control_c, 0, 64, 127
2, 19530, Note_on_c, 0, 60, 0
2, 19537, Note_on_c, 0, 67, 0
2, 19547, Control_c, 0, 64, 0
2, 19563, Note_on_c, 0, 60, 36
2, 19573, Control_c, 0, 64, 127
2, 19580, Note_on_c, 0, 46, 0
2, 19583, Note_on_c, 0, 60, 0
2, 19601, Control_c, 0, 64, 0
2, 19619, Note_on_c, 0, 46, 48
2, 19621, Control_c, 0, 64, 127
2, 19662, Note_on_c, 0, 46, 0
2, 19671, Control_c, 0, 64, 0
2, 19680, Note_on_c, 0, 74, 63
2, 19680, Note_on_c, 0, 67, 71
2, 19682, Note_on_c, 0, 55, 62
2, 19685, Note_on_c, 0, 45, 35
2, 19686, Note_on_c, 0, 62, 39
2, 19687, Note_on_c, 0, 60, 33
2, 19725, Note_on_c, 0, 62, 0
2, 19726, Note_on_c, 0, 60, 0
2, 19728, Note_on_c, 0, 67, 0
2, 19738, Control_c, 0, 64, 127
2, 19743, Note_on_c, 0, 55, 0
2, 19744, Note_on_c, 0, 52, 32
2, 19747, Note_on_c, 0, 67, 53
2, 19770, Note_on_c, 0, 67, 0
2, 19790, Control_c, 0, 64, 0
2, 19799, Note_on_c, 0, 52, 0
2, 19799, Note_on_c, 0, 45, 0
2, 19800, Note_on_c, 0, 74, 0
2, 19804, Note_on_c, 0, 55, 47
2, 19814, Control_c, 0, 64, 127
2, 19816, Note_on_c, 0, 55, 0
2, 19864, Note_on_c, 0, 76, 69
2, 19865, Note_on_c, 0, 68, 49
2, 19866, Note_on_c, 0, 64, 59
2, 19866, Note_on_c, 0, 71, 55
2, 19868, Control_c, 0, 64, 0
2, 19869, Note_on_c, 0, 54, 40
2, 19869, Note_on_c, 0, 60, 43
2, 19912, Control_c, 0, 64, 127
2, 19987, Note_on_c, 0, 50, 57
2, 20024, Note_on_c, 0, 76, 0
2, 20032, Note_on_c, 0, 68, 0
2, 20075, Note_on_c, 0, 71, 0
2, 20100, Note_on_c, 0, 50, 0
2, 20106, Note_on_c, 0, 54, 0
2, 20107, Note_on_c, 0, 75, 72
2, 20114, Note_on_c, 0, 68, 20
2, 20116, Note_on_c, 0, 60, 0
2, 20118, Note_on_c, 0, 64, 0
2, 20130, Note_on_c, 0, 68, 0
2, 20141, Note_on_c, 0, 75, 0
2, 20157, Control_c, 0, 64, 0
2, 20161, Note_on_c, 0, 74, 57
2, 20165, Note_on_c, 0, 62, 57
2, 20167, Note_on_c, 0, 58, 38
2, 20168, Note_on_c, 0, 69, 48
2, 20169, Note_on_c, 0, 65, 31
2, 20193, Control_c, 0, 64, 127
2, 20196, Note_on_c, 0, 65, 0
2, 20197, Note_on_c, 0, 74, 0
2, 20197, Note_on_c, 0, 69, 0
2, 20206, Note_on_c, 0, 62, 0
2, 20223, Note_on_c, 0, 58, 0
2, 20339, Control_c, 0, 64, 0
2, 20345, Note_on_c, 0, 81, 60
2, 20346, Note_on_c, 0, 74, 67
2, 20346, Note_on_c, 0, 77, 52
2, 20346, Note_on_c, 0, 62, 66
2, 20347, Note_on_c, 0, 58, 40
2, 20347, Note_on_c, 0, 53, 54
2, 20347, Note_on_c, 0, 69, 72
2, 20348, Note_on_c, 0, 57, 32
2, 20376, Control_c, 0, 64, 127
2, 20377, Note_on_c, 0, 69, 0
2, 20381, Note_on_c, 0, 74, 0
2, 20389, Note_on_c, 0, 81, 0
2, 20390, Note_on_c, 0, 77, 0
2, 20393, Note_on_c, 0, 62, 0
2, 20396, Note_on_c, 0, 57, 0
2, 20396, Note_on_c, 0, 53, 0
2, 20401, Note_on_c, 0, 58, 0
2, 20412, Control_c, 0, 64, 0
2, 20419, Note_on_c, 0, 72, 69
2, 20420, Note_on_c, 0, 80, 57
2, 20421, Note_on_c, 0, 78, 43
2, 20421, Note_on_c, 0, 84, 69
2, 20425, Note_on_c, 0, 62, 66
2, 20426, Note_on_c, 0, 53, 45
2, 20427, Note_on_c, 0, 58, 40
2, 20429, Note_on_c, 0, 57, 43
2, 20451, Note_on_c, 0, 78, 0
2, 20452, Note_on_c, 0, 80, 0
2, 20453, Note_on_c, 0, 81, 44
2, 20472, Note_on_c, 0, 81, 0
2, 20474, Note_on_c, 0, 53, 0
2, 20475, Note_on_c, 0, 57, 0
2, 20475, Note_on_c, 0, 84, 0
2, 20475, Note_on_c, 0, 58, 0
2, 20476, Note_on_c, 0, 62, 0
2, 20477, Note_on_c, 0, 72, 0
2, 20492, Control_c, 0, 64, 127
2, 20504, Control_c, 0, 64, 0
2, 20542, Control_c, 0, 64, 127
2, 20570, Control_c, 0, 64, 0
2, 20590, Note_on_c, 0, 81, 49
2, 20593, Note_on_c, 0, 69, 45
2, 20593, Note_on_c, 0, 77, 35
2, 20593, Note_on_c, 0, 74, 37
2, 20594, Note_on_c, 0, 62, 50
2, 20597, Note_on_c, 0, 58, 28
2, 20601, Note_on_c, 0, 69, 0
2, 20602, Note_on_c, 0, 74, 0
2, 20604, Control_c, 0, 64, 127
2, 20605, Note_on_c, 0, 62, 0
2, 20606, Note_on_c, 0, 77, 0
2, 20611, Note_on_c, 0, 58, 0
2, 20612, Note_on_c, 0, 81, 0
2, 20638, Control_c, 0, 64, 0
2, 20654, Note_on_c, 0, 84, 58
2, 20656, Note_on_c, 0, 77, 44
2, 20656, Note_on_c, 0, 64, 43
2, 20657, Note_on_c, 0, 58, 35
2, 20657, Note_on_c, 0, 72, 41
2, 20658, Note_on_c, 0, 81, 39
2, 20667, Note_on_c, 0, 81, 0
2, 20670, Note_on_c, 0, 77, 0
2, 20672, Note_on_c, 0, 84, 0
2, 20672, Control_c, 0, 64, 127
2, 20675, Note_on_c, 0, 64, 0
2, 20679, Note_on_c, 0, 72, 0
2, 20683, Note_on_c, 0, 58, 0
2, 20727, Control_c, 0, 64, 0
2, 20728, Note_on_c, 0, 81, 36
2, 20732, Note_on_c, 0, 58, 35
2, 20733, Note_on_c, 0, 69, 34
2, 20733, Note_on_c, 0, 73, 17
2, 20733, Note_on_c, 0, 61, 35
2, 20735, Note_on_c, 0, 64, 28
2, 20737, Note_on_c, 0, 76, 29
2, 20756, Note_on_c, 0, 64, 0
2, 20757, Note_on_c, 0, 61, 0
2, 20761, Note_on_c, 0, 81, 0
2, 20761, Control_c, 0, 64, 127
2, 20764, Note_on_c, 0, 58, 0
2, 20765, Note_on_c, 0, 76, 0
2, 20769, Note_on_c, 0, 69, 0
2, 20770, Note_on_c, 0, 73, 0
2, 20837, Control_c, 0, 64, 0
2, 20837, Note_on_c, 0, 79, 55
2, 20840, Note_on_c, 0, 67, 38
2, 20844, Note_on_c, 0, 61, 34
2, 20845, Note_on_c, 0, 58, 38
2, 20845, Note_on_c, 0, 64, 30
2, 20849, Note_on_c, 0, 77, 24
2, 20870, Note_on_c, 0, 64, 0
2, 20874, Note_on_c, 0, 61, 0
2, 20875, Control_c, 0, 64, 127
2, 20882, Note_on_c, 0, 79, 0
2, 20885, Note_on_c, 0, 58, 0
2, 20887, Note_on_c, 0, 77, 0
2, 20887, Note_on_c, 0, 67, 0
2, 20953, Note_on_c, 0, 76, 46
2, 20953, Control_c, 0, 64, 0
2, 20953, Note_on_c, 0, 68, 36
2, 20955, Note_on_c, 0, 64, 42
2, 20955, Note_on_c, 0, 46, 45
2, 20960, Note_on_c, 0, 56, 20
2, 20991, Note_on_c, 0, 76, 0
2, 20991, Control_c, 0, 64, 127
2, 20995, Note_on_c, 0, 64, 0
2, 21001, Note_on_c, 0, 56, 0
2, 21004, Note_on_c, 0, 68, 0
2, 21017, Note_on_c, 0, 46, 0
2, 21069, Control_c, 0, 64, 0
2, 21073, Note_on_c, 0, 74, 35
2, 21075, Note_on_c, 0, 60, 24
2, 21076, Note_on_c, 0, 67, 37
2, 21078, Note_on_c, 0, 45, 30
2, 21078, Note_on_c, 0, 55, 36
2, 21079, Note_on_c, 0, 72, 25
2, 21083, Note_on_c, 0, 52, 38
2, 21088, Note_on_c, 0, 72, 0
2, 21122, Control_c, 0, 64, 127
2, 21140, Note_on_c, 0, 52, 0
2, 21170, Note_on_c, 0, 67, 0
2, 21172, Note_on_c, 0, 55, 0
2, 21176, Note_on_c, 0, 74, 0
2, 21197, Note_on_c, 0, 45, 0
2, 21198, Note_on_c, 0, 52, 28
2, 21205, Note_on_c, 0, 60, 0
2, 21218, Note_on_c, 0, 52, 0
2, 21246, Note_on_c, 0, 60, 44
2, 21248, Note_on_c, 0, 64, 47
2, 21249, Note_on_c, 0, 67, 44
2, 21254, Control_c, 0, 64, 0
2, 21312, Note_on_c, 0, 59, 91
2, 21336, Note_on_c, 0, 60, 0
2, 21339, Note_on_c, 0, 64, 0
2, 21353, Note_on_c, 0, 67, 0
2, 21375, Note_on_c, 0, 60, 18
2, 21378, Note_on_c, 0, 64, 20
2, 21428, Note_on_c, 0, 64, 0
2, 21430, Note_on_c, 0, 59, 0
2, 21430, Note_on_c, 0, 56, 71
2, 21442, Note_on_c, 0, 60, 0
2, 21487, Note_on_c, 0, 60, 34
2, 21493, Note_on_c, 0, 64, 31
2, 21495, Note_on_c, 0, 67, 25
2, 21533, Note_on_c, 0, 64, 0
2, 21548, Note_on_c, 0, 56, 0
2, 21549, Note_on_c, 0, 57, 72
2, 21577, Note_on_c, 0, 60, 0
2, 21598, Note_on_c, 0, 67, 0
2, 21611, Note_on_c, 0, 60, 27
2, 21615, Note_on_c, 0, 65, 36
2, 21619, Note_on_c, 0, 69, 20
2, 21656, Note_on_c, 0, 60, 0
2, 21672, Note_on_c, 0, 65, 0
2, 21672, Note_on_c, 0, 50, 48
2, 21674, Note_on_c, 0, 69, 0
2, 21679, Note_on_c, 0, 57, 0
2, 21681, Control_c, 0, 64, 127
2, 21717, Note_on_c, 0, 50, 0
2, 21723, Control_c, 0, 64, 0
2, 21729, Note_on_c, 0, 65, 47
2, 21733, Note_on_c, 0, 69, 52
2, 21747, Control_c, 0, 64, 127
2, 21790, Note_on_c, 0, 64, 83
2, 21800, Note_on_c, 0, 69, 0
2, 21804, Note_on_c, 0, 65, 0
2, 21811, Control_c, 0, 64, 0
2, 21847, Note_on_c, 0, 65, 43
2, 21847, Control_c, 0, 64, 127
2, 21853, Note_on_c, 0, 69, 35
2, 21895, Note_on_c, 0, 65, 0
2, 21898, Note_on_c, 0, 69, 0
2, 21911, Note_on_c, 0, 62, 69
2, 21917, Note_on_c, 0, 64, 0
2, 21928, Control_c, 0, 64, 0
2, 21958, Control_c, 0, 64, 127
2, 21970, Note_on_c, 0, 65, 26
2, 21980, Note_on_c, 0, 65, 0
2, 22008, Note_on_c, 0, 62, 0
2, 22026, Note_on_c, 0, 70, 53
2, 22027, Note_on_c, 0, 63, 49
2, 22028, Note_on_c, 0, 67, 58
2, 22029, Note_on_c, 0, 60, 50
2, 22034, Control_c, 0, 64, 0
2, 22074, Control_c, 0, 64, 127
2, 22104, Note_on_c, 0, 60, 0
2, 22142, Note_on_c, 0, 62, 88
2, 22164, Note_on_c, 0, 67, 0
2, 22182, Note_on_c, 0, 63, 0
2, 22186, Control_c, 0, 64, 0
2, 22192, Note_on_c, 0, 70, 0
2, 22193, Note_on_c, 0, 62, 0
2, 22203, Note_on_c, 0, 63, 47
2, 22209, Note_on_c, 0, 74, 31
2, 22210, Note_on_c, 0, 67, 42
2, 22214, Note_on_c, 0, 70, 25
2, 22245, Control_c, 0, 64, 127
2, 22258, Note_on_c, 0, 51, 46
2, 22261, Note_on_c, 0, 67, 0
2, 22278, Note_on_c, 0, 63, 0
2, 22283, Note_on_c, 0, 70, 0
2, 22295, Note_on_c, 0, 74, 0
2, 22307, Control_c, 0, 64, 0
2, 22314, Note_on_c, 0, 66, 44
2, 22315, Note_on_c, 0, 62, 47
2, 22316, Note_on_c, 0, 51, 0
2, 22318, Note_on_c, 0, 74, 24
2, 22321, Note_on_c, 0, 57, 41
2, 22336, Note_on_c, 0, 57, 0
2, 22374, Note_on_c, 0, 74, 0
2, 22379, Note_on_c, 0, 41, 37
2, 22391, Note_on_c, 0, 62, 0
2, 22401, Control_c, 0, 64, 127
2, 22419, Control_c, 0, 64, 0
2, 22430, Note_on_c, 0, 66, 0
2, 22436, Note_on_c, 0, 62, 47
2, 22446, Note_on_c, 0, 62, 0
2, 22449, Control_c, 0, 64, 127
2, 22501, Note_on_c, 0, 66, 40
2, 22502, Note_on_c, 0, 51, 39
2, 22504, Note_on_c, 0, 57, 37
2, 22505, Note_on_c, 0, 62, 43
2, 22505, Control_c, 0, 64, 0
2, 22559, Control_c, 0, 64, 127
2, 22574, Note_on_c, 0, 51, 0
2, 22586, Note_on_c, 0, 57, 0
2, 22589, Note_on_c, 0, 62, 0
2, 22592, Note_on_c, 0, 66, 0
2, 22623, Note_on_c, 0, 57, 42
2, 22623, Note_on_c, 0, 51, 36
2, 22624, Note_on_c, 0, 66, 38
2, 22625, Note_on_c, 0, 62, 47
2, 22650, Note_on_c, 0, 57, 0
2, 22658, Note_on_c, 0, 51, 0
2, 22659, Note_on_c, 0, 41, 0
2, 22664, Note_on_c, 0, 62, 0
2, 22673, Note_on_c, 0, 66, 0
2, 22737, Note_on_c, 0, 41, 64
2, 22746, Control_c, 0, 64, 0
2, 22754, Note_on_c, 0, 41, 0
2, 22795, Note_on_c, 0, 62, 73
2, 22796, Note_on_c, 0, 66, 47
2, 22797, Note_on_c, 0, 51, 52
2, 22797, Note_on_c, 0, 74, 44
2, 22798, Note_on_c, 0, 57, 60
2, 22799, Note_on_c, 0, 69, 54
2, 22808, Note_on_c, 0, 69, 0
2, 22808, Note_on_c, 0, 57, 0
2, 22811, Note_on_c, 0, 62, 0
2, 22811, Note_on_c, 0, 66, 0
2, 22824, Note_on_c, 0, 62, 30
2, 22825, Note_on_c, 0, 66, 26
2, 22828, Note_on_c, 0, 69, 38
2, 22832, Note_on_c, 0, 57, 16
2, 22838, Note_on_c, 0, 69, 0
2, 22843, Note_on_c, 0, 57, 0
2, 22844, Note_on_c, 0, 62, 0
2, 22844, Note_on_c, 0, 66, 0
2, 22846, Note_on_c, 0, 74, 0
2, 22851, Note_on_c, 0, 51, 0
2, 22916, Note_on_c, 0, 74, 50
2, 22918, Note_on_c, 0, 66, 42
2, 22918, Control_c, 0, 64, 127
2, 22919, Note_on_c, 0, 62, 50
2, 22920, Note_on_c, 0, 57, 49
2, 22920, Note_on_c, 0, 51, 47
2, 22921, Note_on_c, 0, 69, 45
2, 22944, Note_on_c, 0, 57, 0
2, 22951, Note_on_c, 0, 69, 0
2, 22952, Note_on_c, 0, 62, 0
2, 22957, Note_on_c, 0, 51, 0
2, 22967, Note_on_c, 0, 66, 0
2, 22988, Note_on_c, 0, 74, 0
2, 23037, Control_c, 0, 64, 0
2, 23040, Note_on_c, 0, 72, 65
2, 23040, Note_on_c, 0, 65, 42
2, 23046, Note_on_c, 0, 60, 24
2, 23049, Note_on_c, 0, 62, 32
2, 23072, Note_on_c, 0, 65, 0
2, 23117, Control_c, 0, 64, 127
2, 23140, Note_on_c, 0, 72, 0
2, 23149, Control_c, 0, 64, 0
2, 23154, Note_on_c, 0, 69, 62
2, 23155, Note_on_c, 0, 53, 37
2, 23169, Note_on_c, 0, 69, 0
2, 23185, Note_on_c, 0, 60, 0
2, 23187, Note_on_c, 0, 70, 57
2, 23199, Note_on_c, 0, 62, 0
2, 23201, Note_on_c, 0, 70, 0
2, 23217, Note_on_c, 0, 74, 62
2, 23227, Control_c, 0, 64, 127
2, 23236, Note_on_c, 0, 74, 0
2, 23249, Note_on_c, 0, 77, 67
2, 23266, Note_on_c, 0, 77, 0
2, 23267, Control_c, 0, 64, 0
2, 23272, Note_on_c, 0, 65, 31
2, 23279, Note_on_c, 0, 62, 31
2, 23281, Note_on_c, 0, 73, 45
2, 23283, Note_on_c, 0, 60, 24
2, 23294, Note_on_c, 0, 65, 0
2, 23295, Note_on_c, 0, 73, 0
2, 23311, Note_on_c, 0, 74, 45
2, 23318, Note_on_c, 0, 53, 0
2, 23332, Note_on_c, 0, 74, 0
2, 23343, Note_on_c, 0, 77, 24
2, 23347, Control_c, 0, 64, 127
2, 23356, Note_on_c, 0, 77, 0
2, 23366, Note_on_c, 0, 80, 63
2, 23385, Note_on_c, 0, 80, 0
2, 23397, Control_c, 0, 64, 0
2, 23400, Note_on_c, 0, 77, 57
2, 23400, Note_on_c, 0, 53, 48
2, 23427, Note_on_c, 0, 77, 0
2, 23434, Note_on_c, 0, 78, 50
2, 23438, Control_c, 0, 64, 127
2, 23444, Note_on_c, 0, 60, 0
2, 23448, Note_on_c, 0, 53, 0
2, 23451, Note_on_c, 0, 62, 0
2, 23461, Note_on_c, 0, 82, 61
2, 23462, Note_on_c, 0, 78, 0
2, 23490, Note_on_c, 0, 82, 0
2, 23493, Note_on_c, 0, 85, 71
2, 23518, Note_on_c, 0, 85, 0
2, 23521, Note_on_c, 0, 63, 52
2, 23522, Control_c, 0, 64, 0
2, 23524, Note_on_c, 0, 54, 29
2, 23527, Note_on_c, 0, 58, 35
2, 23528, Note_on_c, 0, 59, 54
2, 23587, Note_on_c, 0, 83, 63
2, 23602, Control_c, 0, 64, 127
2, 23614, Note_on_c, 0, 63, 0
2, 23618, Note_on_c, 0, 59, 0
2, 23619, Note_on_c, 0, 83, 0
2, 23620, Note_on_c, 0, 85, 68
2, 23636, Control_c, 0, 64, 0
2, 23638, Note_on_c, 0, 85, 0
2, 23644, Note_on_c, 0, 63, 29
2, 23647, Note_on_c, 0, 59, 43
2, 23647, Note_on_c, 0, 87, 67
2, 23661, Note_on_c, 0, 87, 0
2, 23668, Control_c, 0, 64, 127
2, 23687, Note_on_c, 0, 94, 76
2, 23703, Note_on_c, 0, 59, 0
2, 23713, Note_on_c, 0, 58, 0
2, 23714, Note_on_c, 0, 94, 0
2, 23714, Note_on_c, 0, 63, 0
2, 23722, Note_on_c, 0, 54, 0
2, 23733, Note_on_c, 0, 94, 69
2, 23758, Note_on_c, 0, 94, 0
2, 23763, Note_on_c, 0, 63, 45
2, 23764, Control_c, 0, 64, 0
2, 23771, Note_on_c, 0, 53, 33
2, 23771, Note_on_c, 0, 59, 40
2, 23775, Note_on_c, 0, 58, 30
2, 23775, Note_on_c, 0, 94, 53
2, 23798, Control_c, 0, 64, 127
2, 23807, Note_on_c, 0, 94, 0
2, 23825, Note_on_c, 0, 92, 55
2, 23830, Note_on_c, 0, 80, 46
2, 23840, Note_on_c, 0, 59, 0
2, 23847, Note_on_c, 0, 63, 0
2, 23855, Note_on_c, 0, 92, 0
2, 23855, Note_on_c, 0, 80, 0
2, 23883, Control_c, 0, 64, 0
2, 23886, Note_on_c, 0, 90, 38
2, 23889, Note_on_c, 0, 78, 38
2, 23891, Control_c, 0, 64, 127
2, 23893, Note_on_c, 0, 59, 37
2, 23904, Note_on_c, 0, 53, 0
2, 23918, Note_on_c, 0, 78, 0
2, 23920, Note_on_c, 0, 90, 0
2, 23947, Note_on_c, 0, 89, 58
2, 23950, Note_on_c, 0, 77, 47
2, 23951, Note_on_c, 0, 53, 35
2, 23959, Note_on_c, 0, 58, 0
2, 23960, Note_on_c, 0, 59, 0
2, 23971, Note_on_c, 0, 89, 0
2, 23975, Note_on_c, 0, 77, 0
2, 23980, Note_on_c, 0, 53, 0
2, 24003, Control_c, 0, 64, 0
2, 24010, Note_on_c, 0, 87, 55
2, 24011, Note_on_c, 0, 61, 35
2, 24012, Note_on_c, 0, 58, 36
2, 24013, Note_on_c, 0, 75, 49
2, 24015, Note_on_c, 0, 51, 26
2, 24043, Control_c, 0, 64, 127
2, 24051, Note_on_c, 0, 87, 0
2, 24052, Note_on_c, 0, 75, 0
2, 24057, Note_on_c, 0, 61, 0
2, 24060, Note_on_c, 0, 58, 0
2, 24069, Note_on_c, 0, 85, 40
2, 24072, Note_on_c, 0, 73, 31
2, 24073, Note_on_c, 0, 61, 33
2, 24081, Note_on_c, 0, 58, 25
2, 24093, Note_on_c, 0, 61, 0
2, 24094, Note_on_c, 0, 58, 0
2, 24095, Note_on_c, 0, 73, 0
2, 24097, Note_on_c, 0, 85, 0
2, 24099, Note_on_c, 0, 51, 0
2, 24117, Control_c, 0, 64, 0
2, 24125, Note_on_c, 0, 85, 51
2, 24125, Note_on_c, 0, 61, 42
2, 24128, Note_on_c, 0, 51, 43
2, 24129, Note_on_c, 0, 73, 32
2, 24132, Note_on_c, 0, 58, 34
2, 24133, Control_c, 0, 64, 127
2, 24146, Note_on_c, 0, 85, 0
2, 24148, Note_on_c, 0, 73, 0
2, 24154, Note_on_c, 0, 61, 0
2, 24154, Note_on_c, 0, 51, 0
2, 24156, Note_on_c, 0, 58, 0
2, 24189, Note_on_c, 0, 82, 48
2, 24192, Note_on_c, 0, 61, 47
2, 24194, Control_c, 0, 64, 0
2, 24195, Note_on_c, 0, 70, 48
2, 24197, Note_on_c, 0, 51, 31
2, 24199, Note_on_c, 0, 58, 32
2, 24229, Note_on_c, 0, 82, 0
2, 24236, Note_on_c, 0, 70, 0
2, 24236, Control_c, 0, 64, 127
2, 24259, Note_on_c, 0, 51, 0
2, 24260, Note_on_c, 0, 58, 0
2, 24262, Note_on_c, 0, 61, 0
2, 24311, Note_on_c, 0, 78, 38
2, 24312, Note_on_c, 0, 61, 46
2, 24315, Note_on_c, 0, 66, 34
2, 24315, Note_on_c, 0, 73, 33
2, 24317, Note_on_c, 0, 51, 27
2, 24323, Note_on_c, 0, 58, 25
2, 24340, Note_on_c, 0, 61, 0
2, 24346, Note_on_c, 0, 78, 0
2, 24349, Note_on_c, 0, 73, 0
2, 24350, Note_on_c, 0, 58, 0
2, 24355, Note_on_c, 0, 66, 0
2, 24367, Note_on_c, 0, 51, 0
2, 24454, Note_on_c, 0, 51, 36
2, 24475, Note_on_c, 0, 53, 36
2, 24476, Note_on_c, 0, 66, 40
2, 24478, Note_on_c, 0, 54, 46
2, 24478, Control_c, 0, 64, 0
2, 24479, Note_on_c, 0, 55, 45
2, 24479, Note_on_c, 0, 59, 58
2, 24481, Note_on_c, 0, 62, 45
2, 24484, Note_on_c, 0, 53, 0
2, 24485, Note_on_c, 0, 51, 0
2, 24505, Note_on_c, 0, 59, 0
2, 24510, Note_on_c, 0, 55, 0
2, 24515, Note_on_c, 0, 66, 0
2, 24516, Note_on_c, 0, 54, 0
2, 24516, Note_on_c, 0, 62, 0
2, 24525, Note_on_c, 0, 52, 36
2, 24541, Note_on_c, 0, 66, 52
2, 24542, Note_on_c, 0, 52, 0
2, 24543, Note_on_c, 0, 55, 55
2, 24544, Note_on_c, 0, 54, 48
2, 24545, Note_on_c, 0, 59, 61
2, 24546, Note_on_c, 0, 62, 49
2, 24603, Note_on_c, 0, 54, 0
2, 24604, Note_on_c, 0, 52, 45
2, 24611, Note_on_c, 0, 66, 0
2, 24611, Control_c, 0, 64, 127
2, 24612, Note_on_c, 0, 64, 30
2, 24627, Note_on_c, 0, 62, 0
2, 24636, Note_on_c, 0, 55, 0
2, 24636, Note_on_c, 0, 59, 0
2, 24643, Control_c, 0, 64, 0
2, 24647, Note_on_c, 0, 64, 0
2, 24663, Note_on_c, 0, 52, 0
2, 24664, Note_on_c, 0, 54, 51
2, 24664, Note_on_c, 0, 66, 56
2, 24666, Note_on_c, 0, 55, 59
2, 24667, Note_on_c, 0, 59, 63
2, 24673, Control_c, 0, 64, 127
2, 24674, Note_on_c, 0, 62, 26
2, 24684, Note_on_c, 0, 62, 0
2, 24685, Note_on_c, 0, 54, 0
2, 24691, Note_on_c, 0, 59, 0
2, 24697, Note_on_c, 0, 66, 0
2, 24704, Note_on_c, 0, 55, 0
2, 24721, Control_c, 0, 64, 0
2, 24727, Note_on_c, 0, 55, 45
2, 24727, Note_on_c, 0, 63, 38
2, 24729, Note_on_c, 0, 58, 46
2, 24729, Note_on_c, 0, 43, 56
2, 24732, Note_on_c, 0, 61, 46
2, 24769, Control_c, 0, 64, 127
2, 24771, Note_on_c, 0, 58, 0
2, 24778, Note_on_c, 0, 55, 0
2, 24787, Note_on_c, 0, 63, 0
2, 24789, Note_on_c, 0, 43, 0
2, 24793, Note_on_c, 0, 58, 50
2, 24793, Note_on_c, 0, 52, 47
2, 24793, Note_on_c, 0, 55, 64
2, 24795, Note_on_c, 0, 64, 64
2, 24795, Control_c, 0, 64, 0
2, 24827, Control_c, 0, 64, 127
2, 24835, Note_on_c, 0, 55, 0
2, 24839, Note_on_c, 0, 64, 0
2, 24842, Note_on_c, 0, 58, 0
2, 24843, Note_on_c, 0, 61, 0
2, 24848, Note_on_c, 0, 52, 0
2, 24897, Control_c, 0, 64, 0
2, 24900, Note_on_c, 0, 66, 65
2, 24901, Note_on_c, 0, 61, 63
2, 24905, Note_on_c, 0, 57, 47
2, 24905, Control_c, 0, 64, 127
2, 24906, Note_on_c, 0, 59, 46
2, 24906, Note_on_c, 0, 52, 35
2, 24913, Note_on_c, 0, 57, 0
2, 24914, Note_on_c, 0, 59, 0
2, 24923, Note_on_c, 0, 66, 0
2, 24927, Note_on_c, 0, 61, 0
2, 24940, Note_on_c, 0, 52, 0
2, 24966, Control_c, 0, 64, 0
2, 24971, Note_on_c, 0, 61, 53
2, 24972, Note_on_c, 0, 69, 58
2, 24973, Note_on_c, 0, 66, 45
2, 24975, Note_on_c, 0, 50, 33
2, 24976, Note_on_c, 0, 57, 40
2, 24977, Note_on_c, 0, 62, 53
2, 24985, Note_on_c, 0, 62, 0
2, 25008, Control_c, 0, 64, 127
2, 25041, Note_on_c, 0, 50, 0
2, 25054, Note_on_c, 0, 61, 0
2, 25055, Note_on_c, 0, 57, 0
2, 25079, Note_on_c, 0, 66, 0
2, 25082, Note_on_c, 0, 69, 0
2, 25145, Note_on_c, 0, 61, 46
2, 25146, Note_on_c, 0, 54, 37
2, 25146, Note_on_c, 0, 64, 60
2, 25149, Note_on_c, 0, 59, 49
2, 25172, Control_c, 0, 64, 0
2, 25202, Control_c, 0, 64, 127
2, 25243, Note_on_c, 0, 74, 66
2, 25262, Note_on_c, 0, 74, 0
2, 25279, Note_on_c, 0, 76, 77
2, 25305, Note_on_c, 0, 76, 0
2, 25320, Note_on_c, 0, 78, 60
2, 25342, Note_on_c, 0, 59, 0
2, 25346, Note_on_c, 0, 78, 0
2, 25349, Note_on_c, 0, 64, 0
2, 25359, Note_on_c, 0, 80, 60
2, 25361, Note_on_c, 0, 61, 0
2, 25362, Note_on_c, 0, 54, 0
2, 25381, Note_on_c, 0, 80, 0
2, 25402, Note_on_c, 0, 82, 68
2, 25426, Note_on_c, 0, 82, 0
2, 25433, Control_c, 0, 64, 0
2, 25434, Note_on_c, 0, 63, 21
2, 25437, Note_on_c, 0, 54, 25
2, 25438, Note_on_c, 0, 59, 45
2, 25439, Note_on_c, 0, 58, 32
2, 25445, Note_on_c, 0, 83, 57
2, 25474, Note_on_c, 0, 83, 0
2, 25487, Note_on_c, 0, 85, 74
2, 25495, Control_c, 0, 64, 127
2, 25501, Control_c, 0, 64, 0
2, 25511, Note_on_c, 0, 85, 0
2, 25527, Control_c, 0, 64, 127
2, 25528, Note_on_c, 0, 87, 69
2, 25552, Note_on_c, 0, 87, 0
2, 25568, Note_on_c, 0, 89, 57
2, 25580, Note_on_c, 0, 59, 0
2, 25588, Note_on_c, 0, 63, 0
2, 25589, Note_on_c, 0, 89, 0
2, 25594, Note_on_c, 0, 58, 0
2, 25594, Note_on_c, 0, 54, 0
2, 25610, Note_on_c, 0, 90, 67
2, 25618, Note_on_c, 0, 63, 59
2, 25619, Control_c, 0, 64, 0
2, 25620, Note_on_c, 0, 59, 48
2, 25622, Note_on_c, 0, 58, 26
2, 25624, Note_on_c, 0, 53, 50
2, 25641, Note_on_c, 0, 90, 0
2, 25655, Note_on_c, 0, 92, 62
2, 25665, Control_c, 0, 64, 127
2, 25680, Note_on_c, 0, 92, 0
2, 25695, Note_on_c, 0, 94, 60
2, 25718, Note_on_c, 0, 94, 0
2, 25733, Note_on_c, 0, 95, 66
2, 25756, Note_on_c, 0, 95, 0
2, 25772, Note_on_c, 0, 97, 87
2, 25788, Note_on_c, 0, 59, 0
2, 25798, Note_on_c, 0, 58, 0
2, 25798, Note_on_c, 0, 97, 0
2, 25801, Note_on_c, 0, 63, 0
2, 25805, Note_on_c, 0, 53, 0
2, 25811, Note_on_c, 0, 99, 54
2, 25837, Note_on_c, 0, 99, 0
2, 25850, Note_on_c, 0, 101, 58
2, 25873, Note_on_c, 0, 101, 0
2, 25888, Note_on_c, 0, 102, 54
2, 25890, Note_on_c, 0, 90, 44
2, 25905, Note_on_c, 0, 90, 0
2, 25908, Note_on_c, 0, 102, 0
2, 25920, Control_c, 0, 64, 0
2, 25928, Note_on_c, 0, 61, 32
2, 25929, Note_on_c, 0, 51, 40
2, 25930, Note_on_c, 0, 58, 36
2, 25932, Note_on_c, 0, 94, 51
2, 25933, Note_on_c, 0, 106, 67
2, 25951, Note_on_c, 0, 106, 0
2, 25959, Note_on_c, 0, 94, 0
2, 25965, Note_on_c, 0, 51, 0
2, 25966, Note_on_c, 0, 61, 0
2, 25968, Note_on_c, 0, 58, 0
2, 26004, Note_on_c, 0, 90, 43
2, 26007, Note_on_c, 0, 102, 33
2, 26007, Note_on_c, 0, 61, 54
2, 26011, Note_on_c, 0, 58, 43
2, 26012, Note_on_c, 0, 51, 31
2, 26025, Note_on_c, 0, 61, 0
2, 26027, Note_on_c, 0, 90, 0
2, 26028, Note_on_c, 0, 58, 0
2, 26029, Note_on_c, 0, 51, 0
2, 26030, Note_on_c, 0, 102, 0
2, 26075, Note_on_c, 0, 61, 50
2, 26077, Note_on_c, 0, 102, 50
2, 26077, Note_on_c, 0, 90, 51
2, 26078, Note_on_c, 0, 51, 37
2, 26080, Note_on_c, 0, 58, 34
2, 26084, Control_c, 0, 64, 127
2, 26110, Note_on_c, 0, 102, 0
2, 26111, Note_on_c, 0, 61, 0
2, 26111, Note_on_c, 0, 58, 0
2, 26115, Note_on_c, 0, 51, 0
2, 26118, Note_on_c, 0, 90, 0
2, 26152, Note_on_c, 0, 61, 47
2, 26153, Note_on_c, 0, 99, 59
2, 26155, Note_on_c, 0, 87, 46
2, 26156, Note_on_c, 0, 51, 39
2, 26157, Note_on_c, 0, 58, 39
2, 26193, Note_on_c, 0, 99, 0
2, 26200, Note_on_c, 0, 51, 0
2, 26201, Note_on_c, 0, 58, 0
2, 26201, Note_on_c, 0, 87, 0
2, 26202, Note_on_c, 0, 61, 0
2, 26234, Note_on_c, 0, 97, 71
2, 26236, Note_on_c, 0, 85, 48
2, 26237, Note_on_c, 0, 61, 46
2, 26241, Note_on_c, 0, 58, 37
2, 26242, Note_on_c, 0, 51, 30
2, 26268, Note_on_c, 0, 97, 0
2, 26278, Note_on_c, 0, 85, 0
2, 26289, Note_on_c, 0, 61, 0
2, 26308, Note_on_c, 0, 58, 0
2, 26308, Note_on_c, 0, 51, 0
2, 26346, Note_on_c, 0, 51, 51
2, 26364, Note_on_c, 0, 51, 0
2, 26403, Control_c, 0, 64, 0
2, 26405, Note_on_c, 0, 69, 72
2, 26406, Note_on_c, 0, 58, 73
2, 26406, Note_on_c, 0, 57, 72
2, 26407, Note_on_c, 0, 62, 73
2, 26408, Note_on_c, 0, 65, 60
2, 26467, Note_on_c, 0, 48, 56
2, 26483, Control_c, 0, 64, 127
2, 26490, Note_on_c, 0, 48, 0
2, 26496, Note_on_c, 0, 58, 0
2, 26506, Note_on_c, 0, 69, 0
2, 26508, Note_on_c, 0, 62, 0
2, 26511, Note_on_c, 0, 65, 0
2, 26527, Note_on_c, 0, 48, 46
2, 26528, Note_on_c, 0, 57, 0
2, 26591, Note_on_c, 0, 72, 50
2, 26592, Control_c, 0, 64, 0
2, 26594, Note_on_c, 0, 64, 47
2, 26594, Note_on_c, 0, 68, 37
2, 26595, Note_on_c, 0, 58, 36
2, 26636, Control_c, 0, 64, 127
2, 26646, Note_on_c, 0, 72, 0
2, 26647, Note_on_c, 0, 68, 0
2, 26648, Note_on_c, 0, 48, 0
2, 26672, Note_on_c, 0, 58, 0
2, 26673, Note_on_c, 0, 64, 0
2, 26711, Note_on_c, 0, 73, 45
2, 26714, Note_on_c, 0, 64, 55
2, 26715, Note_on_c, 0, 68, 46
2, 26716, Control_c, 0, 64, 0
2, 26717, Note_on_c, 0, 58, 48
2, 26722, Note_on_c, 0, 48, 1
2, 26724, Note_on_c, 0, 70, 21
2, 26766, Control_c, 0, 64, 127
2, 26780, Note_on_c, 0, 64, 0
2, 26781, Note_on_c, 0, 73, 0
2, 26786, Note_on_c, 0, 58, 0
2, 26795, Note_on_c, 0, 68, 0
2, 26795, Note_on_c, 0, 70, 0
2, 26834, Note_on_c, 0, 72, 38
2, 26834, Control_c, 0, 64, 0
2, 26836, Note_on_c, 0, 57, 40
2, 26839, Note_on_c, 0, 67, 55
2, 26839, Note_on_c, 0, 62, 37
2, 26880, Control_c, 0, 64, 127
2, 26886, Note_on_c, 0, 48, 0
2, 26893, Note_on_c, 0, 67, 0
2, 26896, Note_on_c, 0, 72, 0
2, 26912, Note_on_c, 0, 62, 0
2, 26946, Control_c, 0, 64, 0
2, 26956, Note_on_c, 0, 62, 53
2, 26956, Note_on_c, 0, 48, 39
2, 27013, Note_on_c, 0, 62, 0
2, 27021, Note_on_c, 0, 60, 33
2, 27056, Note_on_c, 0, 48, 0
2, 27070, Note_on_c, 0, 60, 0
2, 27077, Note_on_c, 0, 48, 35
2, 27080, Note_on_c, 0, 62, 74
2, 27107, Control_c, 0, 64, 127
2, 27108, Note_on_c, 0, 48, 0
2, 27110, Note_on_c, 0, 57, 0
2, 27133, Note_on_c, 0, 62, 0
2, 27141, Control_c, 0, 64, 0
2, 27141, Note_on_c, 0, 60, 65
2, 27205, Note_on_c, 0, 56, 55
2, 27207, Note_on_c, 0, 46, 54
2, 27213, Control_c, 0, 64, 127
2, 27223, Control_c, 0, 64, 0
2, 27267, Control_c, 0, 64, 127
2, 27301, Note_on_c, 0, 46, 0
2, 27319, Note_on_c, 0, 46, 39
2, 27323, Note_on_c, 0, 56, 0
2, 27323, Note_on_c, 0, 62, 67
2, 27334, Note_on_c, 0, 60, 0
2, 27362, Note_on_c, 0, 46, 0
2, 27374, Control_c, 0, 64, 0
2, 27375, Note_on_c, 0, 62, 0
2, 27385, Note_on_c, 0, 60, 40
2, 27385, Note_on_c, 0, 55, 49
2, 27385, Note_on_c, 0, 45, 41
2, 27430, Note_on_c, 0, 55, 0
2, 27444, Note_on_c, 0, 62, 60
2, 27445, Note_on_c, 0, 52, 45
2, 27447, Note_on_c, 0, 55, 27
2, 27456, Control_c, 0, 64, 127
2, 27461, Note_on_c, 0, 45, 0
2, 27462, Note_on_c, 0, 60, 0
2, 27474, Note_on_c, 0, 55, 0
2, 27482, Control_c, 0, 64, 0
2, 27492, Note_on_c, 0, 62, 0
2, 27497, Note_on_c, 0, 52, 0
2, 27498, Note_on_c, 0, 45, 37
2, 27500, Note_on_c, 0, 60, 32
2, 27502, Note_on_c, 0, 55, 38
2, 27516, Control_c, 0, 64, 127
2, 27519, Note_on_c, 0, 45, 0
2, 27522, Note_on_c, 0, 55, 0
2, 27524, Note_on_c, 0, 60, 0
2, 27562, Note_on_c, 0, 58, 42
2, 27562, Note_on_c, 0, 54, 34
2, 27565, Note_on_c, 0, 60, 31
2, 27568, Control_c, 0, 64, 0
2, 27569, Note_on_c, 0, 38, 32
2, 27612, Control_c, 0, 64, 127
2, 27619, Note_on_c, 0, 54, 0
2, 27636, Note_on_c, 0, 58, 0
2, 27649, Note_on_c, 0, 60, 0
2, 27672, Note_on_c, 0, 54, 46
2, 27674, Note_on_c, 0, 58, 43
2, 27674, Control_c, 0, 64, 0
2, 27677, Note_on_c, 0, 45, 36
2, 27677, Note_on_c, 0, 62, 44
2, 27696, Note_on_c, 0, 38, 0
2, 27701, Note_on_c, 0, 45, 0
2, 27706, Control_c, 0, 64, 127
2, 27711, Note_on_c, 0, 62, 0
2, 27714, Note_on_c, 0, 54, 0
2, 27722, Note_on_c, 0, 58, 0
2, 27787, Control_c, 0, 64, 0
2, 27787, Note_on_c, 0, 50, 46
2, 27788, Note_on_c, 0, 62, 51
2, 27788, Note_on_c, 0, 53, 49
2, 27790, Note_on_c, 0, 58, 37
2, 27791, Note_on_c, 0, 43, 27
2, 27791, Note_on_c, 0, 55, 48
2, 27829, Control_c, 0, 64, 127
2, 27831, Note_on_c, 0, 55, 0
2, 27833, Note_on_c, 0, 62, 0
2, 27849, Note_on_c, 0, 58, 0
2, 27887, Note_on_c, 0, 53, 0
2, 27967, Note_on_c, 0, 50, 0
2, 27997, Note_on_c, 0, 43, 0
2, 28069, Control_c, 0, 64, 0
2, 28075, Note_on_c, 0, 64, 71
2, 28076, Note_on_c, 0, 58, 71
2, 28078, Note_on_c, 0, 55, 77
2, 28078, Note_on_c, 0, 52, 68
2, 28080, Note_on_c, 0, 49, 70
2, 28100, Control_c, 0, 64, 127
2, 28102, Note_on_c, 0, 64, 0
2, 28114, Note_on_c, 0, 58, 0
2, 28118, Note_on_c, 0, 55, 0
2, 28126, Note_on_c, 0, 52, 0
2, 28152, Control_c, 0, 64, 0
2, 28155, Note_on_c, 0, 65, 64
2, 28155, Note_on_c, 0, 58, 62
2, 28156, Note_on_c, 0, 55, 67
2, 28159, Note_on_c, 0, 53, 56
2, 28163, Note_on_c, 0, 62, 25
2, 28173, Note_on_c, 0, 62, 0
2, 28176, Note_on_c, 0, 65, 0
2, 28178, Control_c, 0, 64, 127
2, 28181, Note_on_c, 0, 55, 0
2, 28182, Note_on_c, 0, 58, 0
2, 28197, Note_on_c, 0, 53, 0
2, 28200, Note_on_c, 0, 49, 0
2, 28222, Control_c, 0, 64, 0
2, 28229, Note_on_c, 0, 67, 62
2, 28231, Note_on_c, 0, 55, 57
2, 28231, Note_on_c, 0, 58, 59
2, 28232, Note_on_c, 0, 62, 68
2, 28246, Control_c, 0, 64, 127
2, 28255, Note_on_c, 0, 67, 0
2, 28260, Note_on_c, 0, 55, 0
2, 28260, Note_on_c, 0, 58, 0
2, 28262, Note_on_c, 0, 62, 0
2, 28304, Control_c, 0, 64, 0
2, 28309, Note_on_c, 0, 69, 66
2, 28311, Note_on_c, 0, 57, 51
2, 28312, Note_on_c, 0, 60, 38
2, 28313, Note_on_c, 0, 64, 59
2, 28338, Control_c, 0, 64, 127
2, 28345, Note_on_c, 0, 69, 0
2, 28363, Note_on_c, 0, 57, 0
2, 28365, Note_on_c, 0, 64, 0
2, 28366, Note_on_c, 0, 60, 0
2, 28393, Note_on_c, 0, 70, 55
2, 28394, Note_on_c, 0, 64, 51
2, 28396, Note_on_c, 0, 60, 40
2, 28396, Note_on_c, 0, 57, 42
2, 28398, Control_c, 0, 64, 0
2, 28416, Control_c, 0, 64, 127
2, 28417, Note_on_c, 0, 57, 0
2, 28420, Note_on_c, 0, 60, 0
2, 28420, Note_on_c, 0, 64, 0
2, 28433, Note_on_c, 0, 70, 0
2, 28507, Control_c, 0, 64, 0
2, 28507, Note_on_c, 0, 79, 64
2, 28508, Note_on_c, 0, 72, 66
2, 28509, Note_on_c, 0, 56, 63
2, 28510, Note_on_c, 0, 67, 72
2, 28515, Note_on_c, 0, 62, 55
2, 28539, Control_c, 0, 64, 127
2, 28555, Note_on_c, 0, 67, 0
2, 28572, Note_on_c, 0, 56, 0
2, 28580, Note_on_c, 0, 72, 0
2, 28591, Note_on_c, 0, 62, 0
2, 28607, Note_on_c, 0, 79, 0
2, 28621, Note_on_c, 0, 76, 48
2, 28622, Note_on_c, 0, 62, 22
2, 28623, Note_on_c, 0, 56, 29
2, 28624, Note_on_c, 0, 72, 35
2, 28624, Note_on_c, 0, 67, 44
2, 28625, Control_c, 0, 64, 0
2, 28647, Control_c, 0, 64, 127
2, 28651, Note_on_c, 0, 62, 0
2, 28656, Note_on_c, 0, 76, 0
2, 28657, Note_on_c, 0, 56, 0
2, 28659, Note_on_c, 0, 72, 0
2, 28665, Note_on_c, 0, 67, 0
2, 28793, Control_c, 0, 64, 0
2, 28796, Note_on_c, 0, 74, 33
2, 28798, Note_on_c, 0, 45, 31
2, 28798, Note_on_c, 0, 67, 32
2, 28799, Note_on_c, 0, 60, 19
2, 28800, Note_on_c, 0, 52, 29
2, 28802, Note_on_c, 0, 57, 31
2, 28828, Note_on_c, 0, 57, 0
2, 28832, Note_on_c, 0, 60, 0
2, 28832, Note_on_c, 0, 52, 0
2, 28834, Note_on_c, 0, 45, 0
2, 28836, Note_on_c, 0, 67, 0
2, 28838, Note_on_c, 0, 74, 0
2, 28914, Note_on_c, 0, 74, 39
2, 28915, Note_on_c, 0, 60, 33
2, 28917, Note_on_c, 0, 52, 36
2, 28917, Note_on_c, 0, 67, 38
2, 28917, Note_on_c, 0, 45, 34
2, 28919, Note_on_c, 0, 57, 32
2, 28920, Control_c, 0, 64, 127
2, 28940, Note_on_c, 0, 45, 0
2, 28942, Note_on_c, 0, 60, 0
2, 28943, Note_on_c, 0, 52, 0
2, 28948, Note_on_c, 0, 67, 0
2, 28952, Note_on_c, 0, 74, 0
2, 28955, Note_on_c, 0, 57, 0
2, 29034, Control_c, 0, 64, 0
2, 29035, Note_on_c, 0, 77, 64
2, 29037, Note_on_c, 0, 66, 65
2, 29038, Note_on_c, 0, 70, 69
2, 29040, Note_on_c, 0, 72, 58
2, 29044, Note_on_c, 0, 60, 41
2, 29047, Note_on_c, 0, 75, 25
2, 29098, Control_c, 0, 64, 127
2, 29114, Note_on_c, 0, 50, 41
2, 29134, Note_on_c, 0, 60, 0
2, 29144, Note_on_c, 0, 50, 0
2, 29145, Note_on_c, 0, 77, 0
2, 29157, Note_on_c, 0, 72, 0
2, 29159, Note_on_c, 0, 70, 0
2, 29163, Note_on_c, 0, 75, 0
2, 29167, Note_on_c, 0, 66, 0
2, 29228, Note_on_c, 0, 43, 38
2, 29283, Control_c, 0, 64, 0
2, 29286, Note_on_c, 0, 53, 49
2, 29288, Note_on_c, 0, 62, 33
2, 29289, Note_on_c, 0, 57, 25
2, 29289, Note_on_c, 0, 58, 29
2, 29328, Note_on_c, 0, 53, 0
2, 29331, Note_on_c, 0, 57, 0
2, 29332, Note_on_c, 0, 58, 0
2, 29333, Note_on_c, 0, 62, 0
2, 29337, Control_c, 0, 64, 127
2, 29349, Note_on_c, 0, 62, 35
2, 29351, Note_on_c, 0, 58, 27
2, 29351, Note_on_c, 0, 53, 49
2, 29352, Note_on_c, 0, 57, 32
2, 29373, Note_on_c, 0, 53, 0
2, 29379, Note_on_c, 0, 57, 0
2, 29380, Note_on_c, 0, 58, 0
2, 29381, Note_on_c, 0, 62, 0
2, 29404, Note_on_c, 0, 62, 63
2, 29405, Note_on_c, 0, 53, 47
2, 29407, Note_on_c, 0, 57, 33
2, 29408, Note_on_c, 0, 58, 28
2, 29421, Note_on_c, 0, 53, 0
2, 29431, Note_on_c, 0, 57, 0
2, 29439, Note_on_c, 0, 58, 0
2, 29450, Note_on_c, 0, 62, 0
2, 29465, Note_on_c, 0, 58, 40
2, 29468, Note_on_c, 0, 57, 50
2, 29469, Note_on_c, 0, 62, 26
2, 29486, Note_on_c, 0, 62, 0
2, 29487, Note_on_c, 0, 57, 0
2, 29494, Note_on_c, 0, 58, 0
2, 29506, Note_on_c, 0, 43, 0
2, 29521, Control_c, 0, 64, 0
2, 29521, Note_on_c, 0, 48, 53
2, 29524, Note_on_c, 0, 61, 46
2, 29525, Note_on_c, 0, 64, 50
2, 29525, Note_on_c, 0, 58, 38
2, 29525, Note_on_c, 0, 55, 54
2, 29525, Note_on_c, 0, 47, 55
2, 29532, Note_on_c, 0, 47, 0
2, 29550, Note_on_c, 0, 58, 0
2, 29550, Note_on_c, 0, 55, 0
2, 29551, Note_on_c, 0, 61, 0
2, 29555, Note_on_c, 0, 64, 0
2, 29558, Note_on_c, 0, 48, 0
2, 29637, Note_on_c, 0, 64, 38
2, 29638, Note_on_c, 0, 48, 32
2, 29641, Note_on_c, 0, 55, 45
2, 29641, Note_on_c, 0, 58, 37
2, 29642, Note_on_c, 0, 61, 35
2, 29672, Note_on_c, 0, 55, 0
2, 29677, Note_on_c, 0, 64, 0
2, 29679, Note_on_c, 0, 48, 0
2, 29681, Note_on_c, 0, 61, 0
2, 29684, Note_on_c, 0, 58, 0
2, 29708, Control_c, 0, 64, 127
2, 29742, Control_c, 0, 64, 0
2, 29755, Note_on_c, 0, 65, 45
2, 29755, Note_on_c, 0, 47, 36
2, 29757, Note_on_c, 0, 57, 47
2, 29760, Note_on_c, 0, 62, 42
2, 29792, Note_on_c, 0, 47, 0
2, 29802, Note_on_c, 0, 57, 0
2, 29804, Note_on_c, 0, 65, 0
2, 29805, Note_on_c, 0, 62, 0
2, 29814, Control_c, 0, 64, 127
2, 29824, Note_on_c, 0, 57, 37
2, 29824, Note_on_c, 0, 65, 43
2, 29825, Note_on_c, 0, 47, 40
2, 29826, Note_on_c, 0, 62, 37
2, 29838, Note_on_c, 0, 47, 0
2, 29844, Note_on_c, 0, 57, 0
2, 29851, Note_on_c, 0, 65, 0
2, 29856, Note_on_c, 0, 62, 0
2, 29867, Control_c, 0, 64, 0
2, 29947, Note_on_c, 0, 56, 35
2, 29947, Note_on_c, 0, 65, 46
2, 29949, Note_on_c, 0, 34, 37
2, 29949, Note_on_c, 0, 46, 27
2, 29950, Note_on_c, 0, 61, 47
2, 29976, Note_on_c, 0, 65, 0
2, 29978, Note_on_c, 0, 56, 0
2, 29986, Note_on_c, 0, 61, 0
2, 29989, Note_on_c, 0, 46, 0
2, 29993, Note_on_c, 0, 34, 0
2, 30106, Note_on_c, 0, 65, 42
2, 30110, Note_on_c, 0, 55, 33
2, 30111, Note_on_c, 0, 45, 31
2, 30112, Note_on_c, 0, 60, 32
2, 30114, Note_on_c, 0, 33, 33
2, 30121, Control_c, 0, 64, 127
2, 30155, Note_on_c, 0, 60, 0
2, 30157, Note_on_c, 0, 65, 0
2, 30159, Note_on_c, 0, 33, 0
2, 30159, Note_on_c, 0, 45, 0
2, 30161, Note_on_c, 0, 55, 0
2, 30185, Note_on_c, 0, 55, 47
2, 30187, Note_on_c, 0, 65, 39
2, 30187, Note_on_c, 0, 60, 38
2, 30188, Note_on_c, 0, 33, 30
2, 30190, Note_on_c, 0, 45, 33
2, 30203, Note_on_c, 0, 60, 0
2, 30203, Control_c, 0, 64, 0
2, 30204, Note_on_c, 0, 55, 0
2, 30205, Note_on_c, 0, 65, 0
2, 30209, Note_on_c, 0, 45, 0
2, 30210, Note_on_c, 0, 33, 0
2, 30307, Note_on_c, 0, 65, 50
2, 30308, Note_on_c, 0, 54, 40
2, 30308, Note_on_c, 0, 32, 49
2, 30308, Note_on_c, 0, 44, 37
2, 30310, Note_on_c, 0, 60, 38
2, 30410, Note_on_c, 0, 65, 0
2, 30412, Note_on_c, 0, 60, 0
2, 30425, Note_on_c, 0, 54, 0
2, 30426, Note_on_c, 0, 32, 0
2, 30428, Note_on_c, 0, 44, 0
2, 30442, Control_c, 0, 64, 127
2, 30450, Control_c, 0, 64, 0
2, 30477, Note_on_c, 0, 54, 38
2, 30478, Note_on_c, 0, 32, 42
2, 30480, Note_on_c, 0, 44, 29
2, 30481, Note_on_c, 0, 65, 34
2, 30483, Note_on_c, 0, 60, 32
2, 30514, Note_on_c, 0, 65, 0
2, 30518, Note_on_c, 0, 60, 0
2, 30523, Note_on_c, 0, 32, 0
2, 30527, Note_on_c, 0, 54, 0
2, 30528, Note_on_c, 0, 44, 0
2, 30594, Note_on_c, 0, 54, 36
2, 30598, Note_on_c, 0, 44, 29
2, 30599, Note_on_c, 0, 32, 30
2, 30600, Note_on_c, 0, 60, 33
2, 30622, Note_on_c, 0, 32, 0
2, 30628, Note_on_c, 0, 60, 0
2, 30630, Note_on_c, 0, 54, 0
2, 30656, Note_on_c, 0, 32, 37
2, 30673, Note_on_c, 0, 44, 0
2, 30690, Note_on_c, 0, 32, 0
2, 30717, Note_on_c, 0, 43, 34
2, 30717, Note_on_c, 0, 65, 58
2, 30718, Note_on_c, 0, 31, 40
2, 30720, Note_on_c, 0, 58, 50
2, 30720, Note_on_c, 0, 53, 47
2, 30749, Control_c, 0, 64, 127
2, 30751, Note_on_c, 0, 31, 0
2, 30753, Note_on_c, 0, 65, 0
2, 30754, Note_on_c, 0, 58, 0
2, 30755, Note_on_c, 0, 53, 0
2, 30756, Note_on_c, 0, 43, 0
2, 30783, Note_on_c, 0, 31, 46
2, 30785, Note_on_c, 0, 43, 42
2, 30785, Note_on_c, 0, 58, 65
2, 30786, Note_on_c, 0, 65, 62
2, 30787, Note_on_c, 0, 53, 50
2, 30805, Note_on_c, 0, 43, 0
2, 30813, Note_on_c, 0, 65, 0
2, 30813, Note_on_c, 0, 31, 0
2, 30814, Note_on_c, 0, 58, 0
2, 30814, Note_on_c, 0, 53, 0
2, 30841, Note_on_c, 0, 31, 41
2, 30841, Note_on_c, 0, 58, 51
2, 30843, Note_on_c, 0, 43, 34
2, 30843, Note_on_c, 0, 53, 42
2, 30844, Note_on_c, 0, 65, 33
2, 30857, Note_on_c, 0, 65, 0
2, 30857, Note_on_c, 0, 43, 0
2, 30861, Note_on_c, 0, 53, 0
2, 30862, Note_on_c, 0, 31, 0
2, 30863, Note_on_c, 0, 58, 0
2, 30881, Control_c, 0, 64, 0
2, 30902, Note_on_c, 0, 31, 38
2, 30902, Note_on_c, 0, 58, 67
2, 30903, Note_on_c, 0, 43, 34
2, 30904, Note_on_c, 0, 53, 53
2, 30908, Note_on_c, 0, 65, 27
2, 30913, Note_on_c, 0, 53, 0
2, 30915, Note_on_c, 0, 43, 0
2, 30917, Note_on_c, 0, 65, 0
2, 30917, Control_c, 0, 64, 127
2, 30920, Note_on_c, 0, 31, 0
2, 30927, Note_on_c, 0, 58, 0
2, 30962, Note_on_c, 0, 58, 90
2, 30962, Note_on_c, 0, 65, 88
2, 30963, Note_on_c, 0, 60, 78
2, 30964, Note_on_c, 0, 42, 83
2, 30964, Note_on_c, 0, 30, 72
2, 30967, Control_c, 0, 64, 0
2, 30970, Note_on_c, 0, 57, 30
2, 30977, Note_on_c, 0, 57, 0
2, 31030, Control_c, 0, 64, 127
2, 31193, Note_on_c, 0, 58, 0
2, 31241, Note_on_c, 0, 30, 0
2, 31249, Note_on_c, 0, 42, 0
2, 31258, Note_on_c, 0, 60, 0
2, 31260, Note_on_c, 0, 65, 0
2, 31626, Note_on_c, 0, 35, 91
2, 31626, Note_on_c, 0, 83, 101
2, 31628, Note_on_c, 0, 81, 83
2, 31634, Note_on_c, 0, 81, 0
2, 31665, Control_c, 0, 64, 0
2, 31671, Note_on_c, 0, 83, 0
2, 31675, Note_on_c, 0, 35, 0
2, 31675, Note_on_c, 0, 84, 59
2, 31679, Note_on_c, 0, 36, 57
2, 31743, Note_on_c, 0, 84, 0
2, 31747, Note_on_c, 0, 36, 0
2, 31748, Note_on_c, 0, 29, 48
2, 31749, Note_on_c, 0, 77, 41
2, 31763, Note_on_c, 0, 77, 0
2, 31765, Note_on_c, 0, 29, 0
2, 31765, End_track
3, 0, Start_track
3, 0, End_track
0, 0, End_of_file
