0, 0, Header, 0, 1, 120
1, 0, Start_track
1, 0, Title_t, "How Deep Is The Ocean"
1, 0, Copyright_t, "Copyright © 1996 by dougmck"
1, 0, Text_t, "dougmck\012"
1, 0, SMPTE_offset, 96, 0, 3, 0, 0
1, 0, Time_signature, 4, 2, 24, 8
1, 0, Key_signature, -3, "major"
1, 0, Tempo, 461538
1, 0, Marker_t, "Sequence by dougmck@deakin.edu.au"
1, 0, Program_c, 0, 0
1, 0, Control_c, 0, 7, 95
1, 0, Program_c, 1, 35
1, 0, Control_c, 1, 7, 93
1, 0, Program_c, 2, 32
1, 0, Control_c, 2, 7, 56
1, 0, Program_c, 3, 43
1, 0, Control_c, 3, 7, 80
1, 0, Program_c, 9, 0
1, 0, Control_c, 9, 7, 87
1, 0, Control_c, 9, 7, 80
1, 512, Control_c, 0, 64, 127
1, 685, Note_on_c, 0, 36, 55
1, 707, Note_on_c, 0, 36, 0
1, 866, Note_on_c, 0, 63, 80
1, 868, Note_on_c, 0, 51, 69
1, 951, Note_on_c, 0, 63, 0
1, 958, Note_on_c, 0, 51, 0
1, 976, Note_on_c, 0, 63, 75
1, 977, Note_on_c, 0, 51, 62
1, 1083, Note_on_c, 0, 51, 0
1, 1084, Note_on_c, 0, 63, 0
1, 1091, Note_on_c, 0, 62, 64
1, 1092, Note_on_c, 0, 50, 45
1, 1187, Note_on_c, 0, 50, 0
1, 1194, Note_on_c, 0, 62, 0
1, 1202, Note_on_c, 0, 63, 55
1, 1207, Note_on_c, 0, 51, 35
1, 1234, Note_on_c, 0, 51, 0
1, 1257, Note_on_c, 0, 63, 0
1, 1347, Note_on_c, 0, 67, 54
1, 1358, Note_on_c, 0, 60, 53
1, 1360, Note_on_c, 0, 65, 48
1, 1361, Note_on_c, 0, 57, 36
1, 1364, Note_on_c, 0, 56, 34
1, 1366, Control_c, 0, 64, 0
1, 1369, Note_on_c, 0, 50, 24
1, 1421, Control_c, 0, 64, 127
1, 1430, Note_on_c, 0, 56, 0
1, 1437, Note_on_c, 0, 60, 0
1, 1447, Note_on_c, 0, 67, 0
1, 1449, Note_on_c, 0, 65, 0
1, 1482, Note_on_c, 0, 57, 0
1, 1503, Note_on_c, 0, 56, 27
1, 1512, Note_on_c, 0, 79, 64
1, 1531, Note_on_c, 0, 50, 0
1, 1546, Note_on_c, 0, 56, 0
1, 1598, Note_on_c, 0, 79, 0
1, 1971, Note_on_c, 0, 59, 31
1, 1978, Note_on_c, 0, 61, 33
1, 1982, Note_on_c, 0, 43, 29
1, 1986, Note_on_c, 0, 53, 17
1, 2000, Control_c, 0, 64, 0
1, 2057, Note_on_c, 0, 62, 47
1, 2059, Note_on_c, 0, 61, 0
1, 2059, Control_c, 0, 64, 127
1, 2098, Note_on_c, 0, 62, 0
1, 2120, Note_on_c, 0, 59, 0
1, 2141, Note_on_c, 0, 65, 67
1, 2181, Note_on_c, 0, 43, 0
1, 2196, Note_on_c, 0, 65, 0
1, 2216, Note_on_c, 0, 67, 61
1, 2266, Note_on_c, 0, 53, 0
1, 2268, Note_on_c, 0, 67, 0
1, 2310, Note_on_c, 0, 63, 38
1, 2314, Note_on_c, 0, 48, 30
1, 2320, Control_c, 0, 64, 0
1, 2378, Control_c, 0, 64, 127
1, 2413, Note_on_c, 0, 55, 41
1, 2438, Note_on_c, 0, 55, 0
1, 2522, Note_on_c, 0, 55, 29
1, 2560, Note_on_c, 0, 63, 0
1, 2621, Note_on_c, 0, 55, 0
1, 2635, Note_on_c, 0, 63, 50
1, 2643, Note_on_c, 0, 48, 0
1, 2718, Note_on_c, 0, 63, 0
1, 2762, Note_on_c, 0, 63, 28
1, 2763, Note_on_c, 0, 46, 25
1, 2763, Note_on_c, 0, 56, 23
1, 2766, Note_on_c, 0, 60, 39
1, 2773, Control_c, 0, 64, 0
1, 2818, Control_c, 0, 64, 127
1, 2840, Note_on_c, 0, 56, 0
1, 2871, Note_on_c, 0, 56, 18
1, 2917, Note_on_c, 0, 60, 0
1, 2942, Note_on_c, 0, 63, 0
1, 2944, Note_on_c, 0, 62, 58
1, 2981, Note_on_c, 0, 56, 0
1, 2992, Note_on_c, 0, 62, 0
1, 3012, Note_on_c, 0, 63, 59
1, 3024, Note_on_c, 0, 46, 0
1, 3037, Note_on_c, 0, 63, 0
1, 3094, Control_c, 0, 64, 0
1, 3095, Note_on_c, 0, 45, 44
1, 3098, Note_on_c, 0, 67, 47
1, 3103, Note_on_c, 0, 60, 42
1, 3105, Note_on_c, 0, 63, 34
1, 3106, Note_on_c, 0, 57, 18
1, 3121, Note_on_c, 0, 57, 0
1, 3128, Control_c, 0, 64, 127
1, 3140, Note_on_c, 0, 60, 0
1, 3149, Note_on_c, 0, 63, 0
1, 3156, Note_on_c, 0, 67, 0
1, 3201, Note_on_c, 0, 79, 68
1, 3204, Note_on_c, 0, 55, 31
1, 3205, Note_on_c, 0, 45, 0
1, 3219, Note_on_c, 0, 55, 0
1, 3273, Note_on_c, 0, 79, 0
1, 3323, Note_on_c, 0, 79, 36
1, 3334, Note_on_c, 0, 60, 26
1, 3336, Note_on_c, 0, 72, 20
1, 3405, Note_on_c, 0, 79, 0
1, 3409, Note_on_c, 0, 72, 0
1, 3449, Note_on_c, 0, 79, 44
1, 3463, Note_on_c, 0, 60, 0
1, 3493, Note_on_c, 0, 79, 0
1, 3605, Note_on_c, 0, 72, 64
1, 3610, Note_on_c, 0, 67, 34
1, 3610, Note_on_c, 0, 79, 46
1, 3612, Note_on_c, 0, 44, 39
1, 3613, Control_c, 0, 64, 0
1, 3655, Control_c, 0, 64, 127
1, 3722, Note_on_c, 0, 44, 0
1, 3810, Note_on_c, 0, 55, 24
1, 3865, Note_on_c, 0, 67, 0
1, 3876, Note_on_c, 0, 72, 0
1, 3885, Note_on_c, 0, 79, 0
1, 3886, Note_on_c, 0, 56, 38
1, 3942, Note_on_c, 0, 60, 34
1, 3992, Note_on_c, 0, 67, 54
1, 4026, Note_on_c, 0, 67, 0
1, 4041, Note_on_c, 0, 72, 55
1, 4082, Note_on_c, 0, 72, 0
1, 4096, Note_on_c, 0, 77, 62
1, 4137, Note_on_c, 0, 77, 0
1, 4148, Note_on_c, 0, 79, 47
1, 4162, Note_on_c, 0, 79, 0
1, 4204, Note_on_c, 0, 79, 54
1, 4266, Note_on_c, 0, 84, 52
1, 4330, Note_on_c, 0, 89, 57
1, 4405, Note_on_c, 0, 89, 0
1, 4408, Note_on_c, 0, 91, 49
1, 4449, Note_on_c, 0, 91, 0
1, 4509, Note_on_c, 0, 91, 44
1, 4712, Note_on_c, 0, 91, 0
1, 4750, Note_on_c, 0, 91, 39
1, 4772, Note_on_c, 0, 84, 0
1, 4787, Note_on_c, 0, 91, 0
1, 4799, Note_on_c, 0, 79, 0
1, 4830, Note_on_c, 0, 55, 0
1, 4838, Note_on_c, 0, 56, 0
1, 4847, Note_on_c, 0, 60, 0
1, 4853, Note_on_c, 0, 92, 54
1, 4884, Note_on_c, 0, 92, 0
1, 4914, Note_on_c, 0, 92, 57
1, 4973, Note_on_c, 0, 92, 0
1, 4992, Note_on_c, 0, 94, 55
1, 4998, Note_on_c, 0, 55, 53
1, 5013, Control_c, 0, 64, 0
1, 5055, Control_c, 0, 64, 127
1, 5080, Note_on_c, 0, 94, 0
1, 5091, Note_on_c, 0, 62, 29
1, 5193, Note_on_c, 0, 82, 57
1, 5208, Note_on_c, 0, 67, 31
1, 5210, Note_on_c, 0, 74, 36
1, 5224, Note_on_c, 0, 70, 25
1, 5264, Note_on_c, 0, 67, 0
1, 5284, Note_on_c, 0, 82, 0
1, 5294, Note_on_c, 0, 62, 0
1, 5316, Note_on_c, 0, 55, 0
1, 5319, Note_on_c, 0, 82, 64
1, 5339, Note_on_c, 0, 74, 0
1, 5345, Note_on_c, 0, 70, 0
1, 5361, Note_on_c, 0, 82, 0
1, 5424, Note_on_c, 0, 82, 73
1, 5435, Note_on_c, 0, 62, 35
1, 5439, Note_on_c, 0, 74, 67
1, 5440, Note_on_c, 0, 52, 36
1, 5445, Control_c, 0, 64, 0
1, 5465, Note_on_c, 0, 70, 13
1, 5511, Control_c, 0, 64, 127
1, 5534, Note_on_c, 0, 62, 0
1, 5548, Note_on_c, 0, 52, 0
1, 5549, Note_on_c, 0, 58, 44
1, 5564, Note_on_c, 0, 58, 0
1, 5602, Note_on_c, 0, 74, 0
1, 5613, Note_on_c, 0, 70, 0
1, 5647, Note_on_c, 0, 82, 0
1, 5657, Note_on_c, 0, 70, 30
1, 5661, Note_on_c, 0, 74, 45
1, 5665, Note_on_c, 0, 62, 22
1, 5736, Note_on_c, 0, 70, 0
1, 5759, Note_on_c, 0, 81, 64
1, 5760, Note_on_c, 0, 74, 0
1, 5775, Note_on_c, 0, 62, 0
1, 5795, Note_on_c, 0, 81, 0
1, 5845, Note_on_c, 0, 82, 62
1, 5956, Note_on_c, 0, 82, 0
1, 6002, Note_on_c, 0, 57, 44
1, 6010, Note_on_c, 0, 62, 28
1, 6015, Note_on_c, 0, 84, 74
1, 6024, Note_on_c, 0, 77, 67
1, 6024, Note_on_c, 0, 63, 39
1, 6030, Note_on_c, 0, 67, 64
1, 6037, Control_c, 0, 64, 0
1, 6088, Control_c, 0, 64, 127
1, 6129, Note_on_c, 0, 84, 0
1, 6135, Note_on_c, 0, 62, 0
1, 6137, Note_on_c, 0, 67, 0
1, 6147, Note_on_c, 0, 63, 0
1, 6153, Note_on_c, 0, 84, 67
1, 6155, Note_on_c, 0, 57, 0
1, 6201, Note_on_c, 0, 77, 0
1, 6240, Note_on_c, 0, 84, 0
1, 6289, Note_on_c, 0, 84, 68
1, 6291, Note_on_c, 0, 55, 35
1, 6295, Note_on_c, 0, 60, 34
1, 6300, Note_on_c, 0, 77, 67
1, 6302, Note_on_c, 0, 81, 47
1, 6307, Note_on_c, 0, 65, 57
1, 6307, Note_on_c, 0, 61, 25
1, 6309, Note_on_c, 0, 72, 47
1, 6312, Control_c, 0, 64, 0
1, 6370, Control_c, 0, 64, 127
1, 6412, Note_on_c, 0, 84, 0
1, 6438, Note_on_c, 0, 72, 0
1, 6472, Note_on_c, 0, 84, 65
1, 6476, Note_on_c, 0, 60, 0
1, 6488, Note_on_c, 0, 65, 0
1, 6507, Note_on_c, 0, 81, 0
1, 6517, Note_on_c, 0, 61, 0
1, 6522, Note_on_c, 0, 55, 0
1, 6522, Note_on_c, 0, 77, 0
1, 6558, Note_on_c, 0, 84, 0
1, 6660, Note_on_c, 0, 84, 45
1, 6664, Note_on_c, 0, 77, 44
1, 6666, Note_on_c, 0, 54, 33
1, 6667, Note_on_c, 0, 60, 29
1, 6668, Control_c, 0, 64, 0
1, 6670, Note_on_c, 0, 64, 22
1, 6714, Control_c, 0, 64, 127
1, 6730, Note_on_c, 0, 84, 0
1, 6742, Note_on_c, 0, 77, 0
1, 6831, Note_on_c, 0, 72, 58
1, 6837, Note_on_c, 0, 64, 0
1, 6846, Note_on_c, 0, 60, 0
1, 6872, Note_on_c, 0, 54, 0
1, 6938, Note_on_c, 0, 72, 0
1, 7005, Note_on_c, 0, 72, 46
1, 7007, Note_on_c, 0, 64, 33
1, 7008, Note_on_c, 0, 68, 39
1, 7009, Note_on_c, 0, 50, 24
1, 7012, Note_on_c, 0, 54, 29
1, 7015, Note_on_c, 0, 60, 24
1, 7020, Control_c, 0, 64, 0
1, 7063, Control_c, 0, 64, 127
1, 7178, Note_on_c, 0, 68, 0
1, 7285, Note_on_c, 0, 64, 0
1, 7304, Note_on_c, 0, 67, 51
1, 7307, Note_on_c, 0, 72, 0
1, 7309, Note_on_c, 0, 60, 0
1, 7325, Note_on_c, 0, 54, 0
1, 7327, Note_on_c, 0, 50, 0
1, 7394, Note_on_c, 0, 67, 0
1, 7414, Note_on_c, 0, 70, 50
1, 7418, Note_on_c, 0, 43, 37
1, 7434, Control_c, 0, 64, 0
1, 7466, Control_c, 0, 64, 127
1, 7495, Note_on_c, 0, 43, 0
1, 7590, Note_on_c, 0, 58, 35
1, 7677, Note_on_c, 0, 58, 0
1, 7679, Note_on_c, 0, 62, 44
1, 7699, Note_on_c, 0, 62, 0
1, 7751, Note_on_c, 0, 70, 0
1, 7829, Note_on_c, 0, 70, 69
1, 7831, Note_on_c, 0, 64, 64
1, 7832, Note_on_c, 0, 66, 64
1, 7956, Note_on_c, 0, 54, 61
1, 7972, Control_c, 0, 64, 0
1, 8033, Control_c, 0, 64, 127
1, 8082, Note_on_c, 0, 69, 68
1, 8085, Note_on_c, 0, 70, 0
1, 8171, Note_on_c, 0, 69, 0
1, 8186, Note_on_c, 0, 64, 0
1, 8192, Note_on_c, 0, 70, 61
1, 8193, Note_on_c, 0, 54, 0
1, 8219, Note_on_c, 0, 66, 0
1, 8256, Note_on_c, 0, 70, 0
1, 8324, Note_on_c, 0, 41, 50
1, 8325, Note_on_c, 0, 72, 53
1, 8326, Note_on_c, 0, 63, 38
1, 8327, Control_c, 0, 64, 0
1, 8329, Note_on_c, 0, 68, 46
1, 8364, Control_c, 0, 64, 127
1, 8367, Note_on_c, 0, 72, 0
1, 8378, Note_on_c, 0, 68, 0
1, 8382, Note_on_c, 0, 63, 0
1, 8473, Note_on_c, 0, 60, 68
1, 8473, Note_on_c, 0, 56, 54
1, 8477, Note_on_c, 0, 55, 51
1, 8499, Note_on_c, 0, 55, 0
1, 8508, Note_on_c, 0, 56, 0
1, 8508, Note_on_c, 0, 41, 0
1, 8511, Note_on_c, 0, 60, 0
1, 8603, Note_on_c, 0, 67, 65
1, 8606, Note_on_c, 0, 63, 57
1, 8607, Note_on_c, 0, 60, 66
1, 8609, Note_on_c, 0, 56, 54
1, 8612, Control_c, 0, 64, 0
1, 8614, Note_on_c, 0, 55, 44
1, 8639, Control_c, 0, 64, 127
1, 8695, Note_on_c, 0, 56, 0
1, 8700, Note_on_c, 0, 60, 0
1, 8703, Note_on_c, 0, 67, 0
1, 8712, Note_on_c, 0, 63, 0
1, 8714, Note_on_c, 0, 55, 0
1, 8728, Note_on_c, 0, 56, 55
1, 8733, Note_on_c, 0, 53, 36
1, 8735, Note_on_c, 0, 65, 58
1, 8738, Note_on_c, 0, 60, 33
1, 8739, Note_on_c, 0, 63, 35
1, 8749, Note_on_c, 0, 60, 0
1, 8777, Note_on_c, 0, 56, 0
1, 8782, Note_on_c, 0, 53, 0
1, 8855, Note_on_c, 0, 63, 0
1, 8981, Note_on_c, 0, 65, 0
1, 8995, Note_on_c, 0, 34, 79
1, 8995, Note_on_c, 0, 22, 71
1, 8999, Control_c, 0, 64, 0
1, 9041, Control_c, 0, 64, 127
1, 9095, Note_on_c, 0, 22, 0
1, 9114, Note_on_c, 0, 34, 0
1, 9221, Note_on_c, 0, 46, 76
1, 9369, Note_on_c, 0, 47, 81
1, 9380, Note_on_c, 0, 46, 0
1, 9507, Note_on_c, 0, 50, 76
1, 9515, Note_on_c, 0, 47, 0
1, 9590, Note_on_c, 0, 50, 0
1, 9598, Note_on_c, 0, 51, 73
1, 9628, Control_c, 0, 64, 0
1, 9652, Note_on_c, 0, 51, 0
1, 9659, Note_on_c, 0, 52, 65
1, 9710, Note_on_c, 0, 52, 0
1, 9713, Note_on_c, 0, 53, 58
1, 9719, Control_c, 0, 64, 127
1, 9749, Note_on_c, 0, 53, 0
1, 9767, Note_on_c, 0, 56, 47
1, 9807, Note_on_c, 0, 56, 0
1, 9827, Note_on_c, 0, 59, 61
1, 9832, Note_on_c, 0, 46, 36
1, 9838, Note_on_c, 0, 56, 47
1, 9858, Control_c, 0, 64, 0
1, 9881, Note_on_c, 0, 59, 0
1, 9886, Note_on_c, 0, 62, 50
1, 9898, Control_c, 0, 64, 127
1, 9923, Note_on_c, 0, 56, 0
1, 9935, Note_on_c, 0, 62, 0
1, 9943, Note_on_c, 0, 56, 23
1, 9951, Note_on_c, 0, 65, 49
1, 9952, Note_on_c, 0, 46, 0
1, 9965, Note_on_c, 0, 56, 0
1, 9977, Note_on_c, 0, 65, 0
1, 10015, Note_on_c, 0, 68, 34
1, 10065, Note_on_c, 0, 68, 0
1, 10082, Note_on_c, 0, 71, 49
1, 10131, Note_on_c, 0, 56, 14
1, 10137, Note_on_c, 0, 71, 0
1, 10158, Note_on_c, 0, 74, 37
1, 10181, Note_on_c, 0, 74, 0
1, 10201, Note_on_c, 0, 62, 1
1, 10240, Note_on_c, 0, 77, 36
1, 10243, Note_on_c, 0, 62, 0
1, 10313, Note_on_c, 0, 77, 0
1, 10329, Note_on_c, 0, 80, 42
1, 10549, Note_on_c, 0, 86, 38
1, 10658, Note_on_c, 0, 86, 0
1, 10692, Note_on_c, 0, 56, 0
1, 10693, Note_on_c, 0, 80, 0
1, 10912, Note_on_c, 0, 75, 39
1, 10917, Note_on_c, 0, 63, 28
1, 10924, Note_on_c, 0, 68, 25
1, 10924, Note_on_c, 0, 70, 34
1, 10927, Note_on_c, 0, 65, 36
1, 10949, Control_c, 0, 64, 0
1, 11015, Control_c, 0, 64, 127
1, 11034, Note_on_c, 0, 75, 0
1, 11051, Note_on_c, 0, 75, 52
1, 11156, Note_on_c, 0, 75, 0
1, 11192, Note_on_c, 0, 75, 38
1, 11357, Note_on_c, 0, 65, 0
1, 11373, Note_on_c, 0, 68, 0
1, 11427, Note_on_c, 0, 63, 0
1, 11486, Note_on_c, 0, 70, 0
1, 11496, Note_on_c, 0, 75, 0
1, 11538, Note_on_c, 0, 73, 32
1, 11580, Note_on_c, 0, 73, 0
1, 11714, Note_on_c, 0, 73, 35
1, 11714, Note_on_c, 0, 64, 27
1, 11716, Note_on_c, 0, 69, 48
1, 11719, Note_on_c, 0, 48, 32
1, 11726, Control_c, 0, 64, 0
1, 11765, Control_c, 0, 64, 127
1, 11801, Note_on_c, 0, 69, 0
1, 11806, Note_on_c, 0, 64, 0
1, 11808, Note_on_c, 0, 48, 0
1, 11810, Note_on_c, 0, 73, 0
1, 11870, Note_on_c, 0, 58, 35
1, 11870, Note_on_c, 0, 63, 42
1, 11872, Note_on_c, 0, 68, 48
1, 11875, Note_on_c, 0, 72, 53
1, 11892, Control_c, 0, 64, 0
1, 11906, Control_c, 0, 64, 127
1, 11971, Note_on_c, 0, 63, 0
1, 11983, Note_on_c, 0, 72, 0
1, 11991, Note_on_c, 0, 68, 0
1, 12067, Note_on_c, 0, 63, 25
1, 12067, Note_on_c, 0, 68, 43
1, 12068, Note_on_c, 0, 72, 48
1, 12070, Note_on_c, 0, 64, 40
1, 12283, Note_on_c, 0, 72, 0
1, 12295, Note_on_c, 0, 64, 0
1, 12337, Note_on_c, 0, 68, 0
1, 12360, Note_on_c, 0, 58, 0
1, 12382, Note_on_c, 0, 63, 0
1, 12424, Note_on_c, 0, 70, 59
1, 12462, Note_on_c, 0, 70, 0
1, 12591, Note_on_c, 0, 68, 40
1, 12603, Note_on_c, 0, 63, 47
1, 12605, Note_on_c, 0, 56, 37
1, 12607, Note_on_c, 0, 41, 33
1, 12617, Control_c, 0, 64, 0
1, 12677, Control_c, 0, 64, 127
1, 12728, Note_on_c, 0, 41, 0
1, 12736, Note_on_c, 0, 53, 37
1, 12795, Note_on_c, 0, 56, 0
1, 12811, Note_on_c, 0, 63, 0
1, 12832, Note_on_c, 0, 68, 0
1, 12865, Note_on_c, 0, 53, 0
1, 12876, Note_on_c, 0, 68, 51
1, 12877, Note_on_c, 0, 55, 48
1, 12882, Note_on_c, 0, 63, 46
1, 12883, Note_on_c, 0, 56, 29
1, 12894, Control_c, 0, 64, 0
1, 12915, Control_c, 0, 64, 127
1, 12997, Note_on_c, 0, 68, 0
1, 13046, Note_on_c, 0, 67, 53
1, 13106, Note_on_c, 0, 55, 0
1, 13110, Note_on_c, 0, 67, 0
1, 13131, Note_on_c, 0, 65, 56
1, 13137, Note_on_c, 0, 56, 0
1, 13156, Note_on_c, 0, 63, 0
1, 13264, Note_on_c, 0, 44, 19
1, 13265, Note_on_c, 0, 59, 40
1, 13276, Control_c, 0, 64, 0
1, 13280, Note_on_c, 0, 53, 24
1, 13288, Note_on_c, 0, 65, 0
1, 13319, Control_c, 0, 64, 127
1, 13384, Note_on_c, 0, 44, 0
1, 13448, Note_on_c, 0, 68, 47
1, 13459, Note_on_c, 0, 53, 0
1, 13464, Note_on_c, 0, 56, 13
1, 13562, Note_on_c, 0, 56, 0
1, 13603, Note_on_c, 0, 68, 0
1, 13605, Note_on_c, 0, 59, 0
1, 13721, Note_on_c, 0, 68, 34
1, 13725, Note_on_c, 0, 63, 35
1, 13725, Note_on_c, 0, 59, 31
1, 13740, Note_on_c, 0, 58, 14
1, 13743, Note_on_c, 0, 49, 17
1, 13748, Control_c, 0, 64, 0
1, 13791, Control_c, 0, 64, 127
1, 13858, Note_on_c, 0, 58, 0
1, 13869, Note_on_c, 0, 49, 0
1, 14040, Note_on_c, 0, 25, 35
1, 14047, Note_on_c, 0, 37, 25
1, 14299, Note_on_c, 0, 25, 0
1, 14316, Note_on_c, 0, 37, 0
1, 14433, Note_on_c, 0, 68, 0
1, 14435, Note_on_c, 0, 59, 0
1, 14452, Note_on_c, 0, 63, 0
1, 14826, Note_on_c, 0, 67, 38
1, 14829, Note_on_c, 0, 46, 30
1, 14830, Note_on_c, 0, 58, 30
1, 14832, Note_on_c, 0, 63, 27
1, 14841, Note_on_c, 0, 55, 37
1, 14867, Control_c, 0, 64, 0
1, 14935, Control_c, 0, 64, 127
1, 14977, Note_on_c, 0, 67, 0
1, 15002, Note_on_c, 0, 67, 50
1, 15097, Note_on_c, 0, 55, 0
1, 15119, Note_on_c, 0, 67, 0
1, 15119, Note_on_c, 0, 58, 0
1, 15125, Note_on_c, 0, 63, 0
1, 15176, Note_on_c, 0, 58, 25
1, 15179, Note_on_c, 0, 62, 36
1, 15181, Note_on_c, 0, 65, 50
1, 15183, Note_on_c, 0, 55, 27
1, 15332, Note_on_c, 0, 62, 0
1, 15336, Note_on_c, 0, 55, 0
1, 15348, Note_on_c, 0, 58, 0
1, 15372, Note_on_c, 0, 46, 0
1, 15376, Note_on_c, 0, 65, 0
1, 15377, Note_on_c, 0, 63, 47
1, 15383, Note_on_c, 0, 58, 25
1, 15433, Note_on_c, 0, 58, 0
1, 15473, Note_on_c, 0, 63, 0
1, 15754, Note_on_c, 0, 61, 38
1, 15758, Note_on_c, 0, 57, 28
1, 15766, Note_on_c, 0, 51, 28
1, 15766, Note_on_c, 0, 67, 33
1, 15766, Note_on_c, 0, 41, 33
1, 15793, Note_on_c, 0, 61, 0
1, 15799, Control_c, 0, 64, 0
1, 15800, Note_on_c, 0, 62, 12
1, 15944, Note_on_c, 0, 61, 30
1, 15954, Note_on_c, 0, 62, 0
1, 15958, Control_c, 0, 64, 127
1, 15974, Control_c, 0, 64, 0
1, 16007, Control_c, 0, 64, 127
1, 16038, Note_on_c, 0, 61, 0
1, 16053, Note_on_c, 0, 60, 35
1, 16080, Note_on_c, 0, 57, 0
1, 16086, Note_on_c, 0, 60, 0
1, 16103, Note_on_c, 0, 67, 0
1, 16158, Note_on_c, 0, 67, 42
1, 16217, Note_on_c, 0, 41, 0
1, 16222, Note_on_c, 0, 67, 0
1, 16242, Note_on_c, 0, 51, 0
1, 16261, Note_on_c, 0, 71, 56
1, 16264, Note_on_c, 0, 62, 32
1, 16269, Note_on_c, 0, 67, 31
1, 16281, Note_on_c, 0, 62, 0
1, 16283, Note_on_c, 0, 67, 0
1, 16293, Note_on_c, 0, 71, 0
1, 16378, Note_on_c, 0, 67, 41
1, 16381, Note_on_c, 0, 74, 42
1, 16386, Note_on_c, 0, 63, 25
1, 16399, Note_on_c, 0, 67, 0
1, 16411, Note_on_c, 0, 74, 0
1, 16424, Note_on_c, 0, 63, 0
1, 16631, Note_on_c, 0, 86, 42
1, 16634, Note_on_c, 0, 79, 24
1, 16645, Note_on_c, 0, 67, 18
1, 16681, Note_on_c, 0, 63, 1
1, 16747, Note_on_c, 0, 79, 0
1, 16770, Note_on_c, 0, 86, 0
1, 16783, Note_on_c, 0, 83, 30
1, 16791, Note_on_c, 0, 74, 16
1, 16815, Note_on_c, 0, 67, 0
1, 16830, Note_on_c, 0, 63, 0
1, 16859, Note_on_c, 0, 83, 0
1, 16878, Note_on_c, 0, 74, 0
1, 17245, Note_on_c, 0, 65, 29
1, 17246, Note_on_c, 0, 56, 21
1, 17246, Note_on_c, 0, 60, 32
1, 17248, Note_on_c, 0, 51, 18
1, 17249, Note_on_c, 0, 41, 29
1, 17251, Note_on_c, 0, 55, 20
1, 17254, Control_c, 0, 64, 0
1, 17359, Control_c, 0, 64, 127
1, 17392, Note_on_c, 0, 55, 0
1, 17398, Note_on_c, 0, 60, 0
1, 17401, Note_on_c, 0, 56, 0
1, 17406, Note_on_c, 0, 65, 0
1, 17441, Note_on_c, 0, 65, 53
1, 17519, Note_on_c, 0, 65, 0
1, 17529, Note_on_c, 0, 41, 0
1, 17569, Note_on_c, 0, 51, 0
1, 17578, Note_on_c, 0, 65, 52
1, 17638, Note_on_c, 0, 65, 0
1, 17734, Note_on_c, 0, 77, 72
1, 17793, Note_on_c, 0, 77, 0
1, 17932, Note_on_c, 0, 46, 46
1, 17938, Note_on_c, 0, 77, 77
1, 17940, Control_c, 0, 64, 0
1, 17989, Control_c, 0, 64, 127
1, 18167, Note_on_c, 0, 56, 18
1, 18203, Note_on_c, 0, 46, 0
1, 18214, Note_on_c, 0, 56, 0
1, 18324, Note_on_c, 0, 77, 0
1, 18640, Note_on_c, 0, 75, 49
1, 18648, Note_on_c, 0, 68, 38
1, 18654, Note_on_c, 0, 65, 36
1, 18655, Note_on_c, 0, 56, 30
1, 18656, Note_on_c, 0, 62, 22
1, 18679, Control_c, 0, 64, 0
1, 18722, Control_c, 0, 64, 127
1, 18784, Note_on_c, 0, 75, 0
1, 18888, Note_on_c, 0, 62, 0
1, 18892, Note_on_c, 0, 74, 52
1, 18912, Note_on_c, 0, 56, 0
1, 18927, Note_on_c, 0, 65, 0
1, 18949, Note_on_c, 0, 74, 0
1, 19012, Note_on_c, 0, 68, 0
1, 19280, Note_on_c, 0, 75, 50
1, 19289, Note_on_c, 0, 39, 34
1, 19298, Control_c, 0, 64, 0
1, 19322, Control_c, 0, 64, 127
1, 19395, Note_on_c, 0, 39, 0
1, 19396, Note_on_c, 0, 75, 0
1, 19405, Note_on_c, 0, 46, 37
1, 19545, Note_on_c, 0, 63, 43
1, 19548, Note_on_c, 0, 55, 30
1, 19549, Note_on_c, 0, 58, 20
1, 19666, Note_on_c, 0, 58, 0
1, 19684, Note_on_c, 0, 46, 0
1, 19685, Note_on_c, 0, 67, 57
1, 19699, Note_on_c, 0, 55, 0
1, 19744, Note_on_c, 0, 67, 0
1, 19759, Note_on_c, 0, 63, 0
1, 19884, Note_on_c, 0, 70, 69
1, 19889, Note_on_c, 0, 63, 43
1, 19889, Note_on_c, 0, 43, 32
1, 19892, Note_on_c, 0, 65, 53
1, 19904, Note_on_c, 0, 53, 33
1, 19908, Control_c, 0, 64, 0
1, 19914, Note_on_c, 0, 59, 17
1, 20044, Control_c, 0, 64, 127
1, 20091, Note_on_c, 0, 70, 0
1, 20092, Note_on_c, 0, 68, 51
1, 20154, Note_on_c, 0, 43, 0
1, 20158, Note_on_c, 0, 53, 0
1, 20180, Note_on_c, 0, 63, 0
1, 20188, Note_on_c, 0, 65, 0
1, 20189, Note_on_c, 0, 59, 0
1, 20195, Note_on_c, 0, 68, 0
1, 20346, Note_on_c, 0, 67, 29
1, 20353, Note_on_c, 0, 63, 26
1, 20356, Note_on_c, 0, 59, 34
1, 20362, Note_on_c, 0, 53, 24
1, 20363, Note_on_c, 0, 43, 19
1, 20367, Control_c, 0, 64, 0
1, 20503, Control_c, 0, 64, 127
1, 20580, Note_on_c, 0, 63, 0
1, 20640, Note_on_c, 0, 64, 0
1, 20640, Note_on_c, 0, 64, 0
1, 20640, Note_on_c, 0, 64, 0
1, 20640, Note_on_c, 0, 64, 0
1, 20640, Note_on_c, 0, 64, 0
1, 20640, Note_on_c, 0, 64, 0
1, 20640, Note_on_c, 0, 64, 0
1, 20640, Note_on_c, 0, 64, 0
1, 20640, Note_on_c, 0, 64, 0
1, 20640, Note_on_c, 0, 64, 0
1, 20640, Note_on_c, 0, 64, 0
1, 20640, Note_on_c, 0, 64, 0
1, 20640, Note_on_c, 0, 64, 0
1, 20640, Note_on_c, 0, 64, 0
1, 20640, Note_on_c, 0, 64, 0
1, 20640, Note_on_c, 0, 64, 0
1, 20640, Note_on_c, 0, 64, 0
1, 20640, Note_on_c, 0, 64, 0
1, 20640, Note_on_c, 0, 64, 0
1, 20640, Note_on_c, 0, 64, 0
1, 20640, Note_on_c, 0, 64, 0
1, 20640, Note_on_c, 0, 64, 0
1, 20640, Note_on_c, 0, 64, 0
1, 20640, Note_on_c, 0, 64, 0
1, 20640, Note_on_c, 0, 64, 0
1, 20640, Note_on_c, 0, 64, 0
1, 20640, Note_on_c, 0, 64, 0
1, 20640, Note_on_c, 0, 64, 0
1, 20640, Note_on_c, 0, 64, 0
1, 20640, Note_on_c, 0, 64, 0
1, 20640, Note_on_c, 0, 64, 0
1, 20640, Note_on_c, 0, 64, 0
1, 20640, Note_on_c, 0, 64, 0
1, 20640, Note_on_c, 0, 64, 0
1, 20640, Note_on_c, 0, 64, 0
1, 20640, Note_on_c, 0, 64, 0
1, 20640, Note_on_c, 0, 64, 0
1, 20640, Note_on_c, 0, 64, 0
1, 20640, Note_on_c, 0, 64, 0
1, 20640, Note_on_c, 0, 64, 0
1, 20640, Note_on_c, 0, 64, 0
1, 20640, Note_on_c, 0, 64, 0
1, 20640, Note_on_c, 0, 64, 0
1, 20640, Note_on_c, 0, 64, 0
1, 20640, Note_on_c, 0, 64, 0
1, 20640, Note_on_c, 0, 64, 0
1, 20640, Note_on_c, 0, 64, 0
1, 20640, Note_on_c, 0, 64, 0
1, 20640, Note_on_c, 0, 64, 0
1, 20640, Note_on_c, 0, 64, 0
1, 20640, Note_on_c, 0, 64, 0
1, 20640, Note_on_c, 0, 64, 0
1, 20640, Note_on_c, 0, 64, 0
1, 20640, Note_on_c, 0, 64, 0
1, 20640, Note_on_c, 0, 64, 0
1, 20640, Note_on_c, 0, 64, 0
1, 20640, Note_on_c, 0, 64, 0
1, 20640, Note_on_c, 0, 64, 0
1, 20640, Note_on_c, 0, 64, 0
1, 20640, Note_on_c, 0, 64, 0
1, 20640, Note_on_c, 0, 64, 0
1, 20640, Note_on_c, 0, 64, 0
1, 20640, Note_on_c, 0, 64, 0
1, 20640, Note_on_c, 0, 64, 0
1, 20640, Note_on_c, 1, 36, 0
1, 20640, Note_on_c, 1, 36, 0
1, 20640, Note_on_c, 1, 36, 0
1, 20640, Note_on_c, 1, 36, 0
1, 20640, Note_on_c, 1, 36, 0
1, 20640, Note_on_c, 1, 36, 0
1, 20640, Note_on_c, 1, 36, 0
1, 20640, Note_on_c, 1, 36, 0
1, 20640, Note_on_c, 1, 36, 0
1, 20640, Note_on_c, 1, 36, 0
1, 20640, Note_on_c, 1, 36, 0
1, 20640, Note_on_c, 1, 36, 0
1, 20640, Note_on_c, 1, 36, 0
1, 20640, Note_on_c, 1, 36, 0
1, 20640, Note_on_c, 1, 36, 0
1, 20640, Note_on_c, 1, 36, 0
1, 20640, Note_on_c, 1, 36, 0
1, 20640, Note_on_c, 1, 36, 0
1, 20640, Note_on_c, 1, 36, 0
1, 20640, Note_on_c, 1, 36, 0
1, 20640, Note_on_c, 1, 36, 0
1, 20640, Note_on_c, 1, 36, 0
1, 20640, Note_on_c, 1, 36, 0
1, 20640, Note_on_c, 1, 36, 0
1, 20640, Note_on_c, 1, 36, 0
1, 20640, Note_on_c, 1, 36, 0
1, 20640, Note_on_c, 1, 36, 0
1, 20640, Note_on_c, 1, 36, 0
1, 20640, Note_on_c, 1, 36, 0
1, 20640, Note_on_c, 1, 36, 0
1, 20640, Note_on_c, 1, 36, 0
1, 20640, Note_on_c, 1, 36, 0
1, 20640, Note_on_c, 1, 36, 0
1, 20640, Note_on_c, 1, 36, 0
1, 20640, Note_on_c, 1, 36, 0
1, 20640, Note_on_c, 1, 36, 0
1, 20640, Note_on_c, 1, 36, 0
1, 20640, Note_on_c, 1, 36, 0
1, 20640, Note_on_c, 1, 36, 0
1, 20640, Note_on_c, 1, 36, 0
1, 20640, Note_on_c, 1, 36, 0
1, 20640, Note_on_c, 1, 36, 0
1, 20640, Note_on_c, 1, 36, 0
1, 20640, Note_on_c, 1, 36, 0
1, 20640, Note_on_c, 1, 36, 0
1, 20640, Note_on_c, 1, 36, 0
1, 20640, Note_on_c, 1, 36, 0
1, 20640, Note_on_c, 1, 36, 0
1, 20640, Note_on_c, 1, 36, 0
1, 20640, Note_on_c, 1, 36, 0
1, 20640, Note_on_c, 1, 36, 0
1, 20640, Note_on_c, 1, 36, 0
1, 20640, Note_on_c, 1, 36, 0
1, 20640, Note_on_c, 1, 36, 0
1, 20640, Note_on_c, 1, 36, 0
1, 20640, Note_on_c, 1, 36, 0
1, 20640, Note_on_c, 1, 36, 0
1, 20640, Note_on_c, 1, 36, 0
1, 20640, Note_on_c, 1, 36, 0
1, 20640, Note_on_c, 1, 36, 0
1, 20640, Note_on_c, 1, 36, 0
1, 20640, Note_on_c, 1, 36, 0
1, 20640, Note_on_c, 1, 36, 0
1, 20640, Note_on_c, 1, 36, 0
1, 20640, Note_on_c, 2, 36, 0
1, 20640, Note_on_c, 2, 36, 0
1, 20640, Note_on_c, 2, 36, 0
1, 20640, Note_on_c, 2, 36, 0
1, 20640, Note_on_c, 2, 36, 0
1, 20640, Note_on_c, 2, 36, 0
1, 20640, Note_on_c, 2, 36, 0
1, 20640, Note_on_c, 2, 36, 0
1, 20640, Note_on_c, 2, 36, 0
1, 20640, Note_on_c, 2, 36, 0
1, 20640, Note_on_c, 2, 36, 0
1, 20640, Note_on_c, 2, 36, 0
1, 20640, Note_on_c, 2, 36, 0
1, 20640, Note_on_c, 2, 36, 0
1, 20640, Note_on_c, 2, 36, 0
1, 20640, Note_on_c, 2, 36, 0
1, 20640, Note_on_c, 2, 36, 0
1, 20640, Note_on_c, 2, 36, 0
1, 20640, Note_on_c, 2, 36, 0
1, 20640, Note_on_c, 2, 36, 0
1, 20640, Note_on_c, 2, 36, 0
1, 20640, Note_on_c, 2, 36, 0
1, 20640, Note_on_c, 2, 36, 0
1, 20640, Note_on_c, 2, 36, 0
1, 20640, Note_on_c, 2, 36, 0
1, 20640, Note_on_c, 2, 36, 0
1, 20640, Note_on_c, 2, 36, 0
1, 20640, Note_on_c, 2, 36, 0
1, 20640, Note_on_c, 2, 36, 0
1, 20640, Note_on_c, 2, 36, 0
1, 20640, Note_on_c, 2, 36, 0
1, 20640, Note_on_c, 2, 36, 0
1, 20640, Note_on_c, 2, 36, 0
1, 20640, Note_on_c, 2, 36, 0
1, 20640, Note_on_c, 2, 36, 0
1, 20640, Note_on_c, 2, 36, 0
1, 20640, Note_on_c, 2, 36, 0
1, 20640, Note_on_c, 2, 36, 0
1, 20640, Note_on_c, 2, 36, 0
1, 20640, Note_on_c, 2, 36, 0
1, 20640, Note_on_c, 2, 36, 0
1, 20640, Note_on_c, 2, 36, 0
1, 20640, Note_on_c, 2, 36, 0
1, 20640, Note_on_c, 2, 36, 0
1, 20640, Note_on_c, 2, 36, 0
1, 20640, Note_on_c, 2, 36, 0
1, 20640, Note_on_c, 2, 36, 0
1, 20640, Note_on_c, 2, 36, 0
1, 20640, Note_on_c, 2, 36, 0
1, 20640, Note_on_c, 2, 36, 0
1, 20640, Note_on_c, 2, 36, 0
1, 20640, Note_on_c, 2, 36, 0
1, 20640, Note_on_c, 2, 36, 0
1, 20640, Note_on_c, 2, 36, 0
1, 20640, Note_on_c, 2, 36, 0
1, 20640, Note_on_c, 2, 36, 0
1, 20640, Note_on_c, 2, 36, 0
1, 20640, Note_on_c, 2, 36, 0
1, 20640, Note_on_c, 2, 36, 0
1, 20640, Note_on_c, 2, 36, 0
1, 20640, Note_on_c, 2, 36, 0
1, 20640, Note_on_c, 2, 36, 0
1, 20640, Note_on_c, 2, 36, 0
1, 20640, Note_on_c, 2, 36, 0
1, 20640, Note_on_c, 9, 107, 60
1, 20640, Note_on_c, 9, 107, 0
1, 20640, Note_on_c, 9, 28, 32
1, 20640, Note_on_c, 9, 28, 0
1, 20640, Note_on_c, 9, 34, 16
1, 20640, Note_on_c, 9, 34, 0
1, 20640, Note_on_c, 9, 34, 16
1, 20640, Note_on_c, 9, 34, 0
1, 20640, Note_on_c, 9, 34, 16
1, 20640, Note_on_c, 9, 34, 0
1, 20640, Note_on_c, 9, 34, 16
1, 20640, Note_on_c, 9, 34, 0
1, 20640, Note_on_c, 9, 34, 16
1, 20640, Note_on_c, 9, 34, 0
1, 20640, Note_on_c, 9, 34, 16
1, 20640, Note_on_c, 9, 34, 0
1, 20640, Note_on_c, 9, 34, 16
1, 20640, Note_on_c, 9, 34, 0
1, 20640, Note_on_c, 9, 34, 16
1, 20640, Note_on_c, 9, 34, 0
1, 20648, Note_on_c, 0, 62, 26
1, 20797, Control_c, 0, 64, 127
1, 20811, Note_on_c, 0, 43, 0
1, 20822, Note_on_c, 0, 53, 0
1, 20893, Note_on_c, 0, 62, 0
1, 20901, Note_on_c, 0, 59, 0
1, 20920, Note_on_c, 0, 67, 0
1, 21082, Note_on_c, 9, 34, 50
1, 21106, Note_on_c, 9, 34, 0
1, 21116, Note_on_c, 1, 36, 17
1, 21116, Note_on_c, 2, 36, 17
1, 21118, Note_on_c, 0, 75, 67
1, 21119, Note_on_c, 9, 35, 49
1, 21120, Note_on_c, 9, 28, 44
1, 21126, Note_on_c, 0, 67, 52
1, 21129, Note_on_c, 0, 62, 41
1, 21131, Note_on_c, 0, 63, 35
1, 21134, Control_c, 0, 64, 0
1, 21164, Control_c, 0, 64, 127
1, 21228, Note_on_c, 0, 67, 0
1, 21232, Note_on_c, 0, 63, 0
1, 21240, Note_on_c, 9, 28, 0
1, 21240, Note_on_c, 9, 44, 86
1, 21240, Note_on_c, 9, 28, 54
1, 21253, Note_on_c, 0, 62, 0
1, 21254, Control_c, 0, 64, 0
1, 21256, Note_on_c, 0, 75, 0
1, 21295, Note_on_c, 9, 35, 0
1, 21313, Note_on_c, 1, 36, 0
1, 21313, Note_on_c, 2, 36, 0
1, 21313, Note_on_c, 1, 44, 63
1, 21313, Note_on_c, 2, 44, 63
1, 21330, Note_on_c, 9, 35, 59
1, 21342, Note_on_c, 9, 35, 0
1, 21343, Note_on_c, 1, 44, 0
1, 21343, Note_on_c, 2, 44, 0
1, 21357, Note_on_c, 0, 65, 36
1, 21357, Note_on_c, 1, 45, 57
1, 21357, Note_on_c, 2, 45, 57
1, 21359, Note_on_c, 0, 61, 26
1, 21360, Note_on_c, 9, 44, 0
1, 21360, Note_on_c, 9, 28, 0
1, 21360, Note_on_c, 9, 28, 68
1, 21363, Note_on_c, 0, 60, 32
1, 21364, Note_on_c, 0, 55, 32
1, 21367, Note_on_c, 9, 35, 52
1, 21442, Note_on_c, 0, 74, 105
1, 21480, Note_on_c, 9, 28, 0
1, 21480, Note_on_c, 9, 44, 95
1, 21480, Note_on_c, 9, 28, 61
1, 21496, Note_on_c, 0, 65, 0
1, 21498, Note_on_c, 0, 60, 0
1, 21499, Note_on_c, 0, 74, 0
1, 21502, Note_on_c, 0, 61, 0
1, 21504, Note_on_c, 0, 55, 0
1, 21521, Note_on_c, 0, 75, 84
1, 21526, Note_on_c, 1, 40, 52
1, 21526, Note_on_c, 2, 40, 52
1, 21528, Note_on_c, 1, 45, 0
1, 21528, Note_on_c, 2, 45, 0
1, 21543, Note_on_c, 2, 40, 0
1, 21543, Note_on_c, 1, 40, 0
1, 21550, Note_on_c, 0, 75, 0
1, 21559, Note_on_c, 1, 39, 74
1, 21559, Note_on_c, 2, 39, 74
1, 21560, Note_on_c, 9, 28, 0
1, 21560, Note_on_c, 9, 28, 61
1, 21560, Note_on_c, 9, 28, 53
1, 21575, Note_on_c, 1, 39, 0
1, 21575, Note_on_c, 2, 39, 0
1, 21599, Note_on_c, 0, 79, 82
1, 21600, Note_on_c, 9, 28, 0
1, 21600, Note_on_c, 9, 44, 0
1, 21600, Note_on_c, 9, 34, 16
1, 21600, Note_on_c, 9, 34, 0
1, 21600, Note_on_c, 9, 34, 16
1, 21600, Note_on_c, 9, 34, 0
1, 21600, Note_on_c, 9, 34, 16
1, 21600, Note_on_c, 9, 34, 0
1, 21600, Note_on_c, 9, 34, 16
1, 21600, Note_on_c, 9, 34, 0
1, 21600, Note_on_c, 9, 34, 16
1, 21600, Note_on_c, 9, 34, 0
1, 21600, Note_on_c, 9, 34, 16
1, 21600, Note_on_c, 9, 34, 0
1, 21600, Note_on_c, 9, 34, 16
1, 21600, Note_on_c, 9, 34, 0
1, 21600, Note_on_c, 9, 34, 16
1, 21600, Note_on_c, 9, 34, 0
1, 21602, Control_c, 0, 64, 0
1, 21604, Note_on_c, 1, 38, 55
1, 21604, Note_on_c, 2, 38, 55
1, 21605, Note_on_c, 0, 72, 80
1, 21607, Note_on_c, 0, 50, 51
1, 21608, Note_on_c, 0, 60, 39
1, 21610, Note_on_c, 0, 56, 33
1, 21613, Note_on_c, 0, 67, 40
1, 21669, Control_c, 0, 64, 127
1, 21682, Note_on_c, 1, 44, 69
1, 21682, Note_on_c, 2, 44, 69
1, 21706, Note_on_c, 2, 38, 0
1, 21706, Note_on_c, 1, 38, 0
1, 21712, Note_on_c, 1, 44, 0
1, 21712, Note_on_c, 2, 44, 0
1, 21720, Note_on_c, 9, 28, 0
1, 21720, Note_on_c, 9, 46, 86
1, 21720, Note_on_c, 9, 28, 50
1, 21728, Note_on_c, 0, 79, 0
1, 21728, Note_on_c, 1, 43, 47
1, 21728, Note_on_c, 2, 43, 47
1, 21736, Note_on_c, 0, 60, 0
1, 21739, Note_on_c, 0, 72, 0
1, 21744, Note_on_c, 0, 67, 0
1, 21746, Note_on_c, 0, 56, 0
1, 21748, Note_on_c, 0, 50, 0
1, 21796, Note_on_c, 1, 43, 0
1, 21796, Note_on_c, 2, 43, 0
1, 21801, Note_on_c, 1, 38, 47
1, 21801, Note_on_c, 2, 38, 47
1, 21832, Note_on_c, 2, 38, 0
1, 21832, Note_on_c, 1, 38, 0
1, 21838, Note_on_c, 0, 61, 52
1, 21840, Note_on_c, 9, 46, 0
1, 21840, Note_on_c, 9, 28, 0
1, 21840, Note_on_c, 9, 28, 55
1, 21841, Note_on_c, 0, 59, 56
1, 21842, Control_c, 0, 64, 0
1, 21844, Note_on_c, 1, 31, 53
1, 21844, Note_on_c, 2, 31, 53
1, 21846, Note_on_c, 0, 43, 33
1, 21846, Note_on_c, 0, 53, 31
1, 21868, Note_on_c, 0, 61, 0
1, 21872, Note_on_c, 0, 62, 49
1, 21893, Control_c, 0, 64, 127
1, 21920, Note_on_c, 9, 28, 0
1, 21958, Note_on_c, 0, 53, 0
1, 21960, Note_on_c, 9, 44, 82
1, 21960, Note_on_c, 9, 28, 53
1, 21963, Note_on_c, 0, 62, 0
1, 21969, Note_on_c, 0, 63, 55
1, 21995, Note_on_c, 0, 63, 0
1, 22003, Note_on_c, 1, 31, 0
1, 22003, Note_on_c, 2, 31, 0
1, 22004, Note_on_c, 1, 34, 45
1, 22004, Note_on_c, 2, 34, 45
1, 22006, Note_on_c, 0, 43, 0
1, 22007, Note_on_c, 0, 65, 61
1, 22009, Note_on_c, 0, 53, 20
1, 22020, Note_on_c, 1, 34, 0
1, 22020, Note_on_c, 2, 34, 0
1, 22022, Note_on_c, 0, 53, 0
1, 22034, Note_on_c, 1, 35, 48
1, 22034, Note_on_c, 2, 35, 48
1, 22040, Note_on_c, 9, 28, 0
1, 22040, Note_on_c, 0, 59, 0
1, 22058, Note_on_c, 0, 65, 0
1, 22062, Note_on_c, 2, 35, 0
1, 22062, Note_on_c, 1, 35, 0
1, 22075, Note_on_c, 1, 36, 54
1, 22075, Note_on_c, 2, 36, 54
1, 22080, Note_on_c, 9, 44, 0
1, 22080, Note_on_c, 9, 28, 56
1, 22085, Note_on_c, 0, 63, 34
1, 22087, Note_on_c, 0, 48, 38
1, 22090, Note_on_c, 0, 62, 45
1, 22090, Control_c, 0, 64, 0
1, 22092, Note_on_c, 0, 55, 24
1, 22134, Control_c, 0, 64, 127
1, 22153, Note_on_c, 0, 62, 0
1, 22160, Note_on_c, 0, 63, 0
1, 22174, Note_on_c, 0, 55, 0
1, 22181, Note_on_c, 0, 48, 0
1, 22200, Note_on_c, 9, 28, 0
1, 22200, Note_on_c, 9, 44, 87
1, 22200, Note_on_c, 9, 28, 70
1, 22276, Note_on_c, 9, 35, 0
1, 22279, Note_on_c, 0, 75, 93
1, 22279, Note_on_c, 9, 32, 63
1, 22308, Note_on_c, 9, 32, 0
1, 22313, Note_on_c, 0, 75, 0
1, 22320, Note_on_c, 9, 28, 0
1, 22320, Note_on_c, 2, 36, 0
1, 22320, Note_on_c, 1, 36, 0
1, 22320, Note_on_c, 9, 44, 0
1, 22320, Note_on_c, 9, 28, 63
1, 22324, Note_on_c, 1, 34, 59
1, 22324, Note_on_c, 2, 34, 59
1, 22326, Note_on_c, 9, 35, 44
1, 22334, Note_on_c, 0, 75, 80
1, 22335, Note_on_c, 0, 60, 48
1, 22335, Note_on_c, 0, 61, 37
1, 22336, Note_on_c, 0, 65, 49
1, 22338, Note_on_c, 0, 56, 34
1, 22339, Control_c, 0, 64, 0
1, 22386, Control_c, 0, 64, 127
1, 22415, Note_on_c, 0, 75, 0
1, 22419, Note_on_c, 0, 74, 71
1, 22440, Note_on_c, 9, 28, 0
1, 22440, Note_on_c, 9, 44, 85
1, 22440, Note_on_c, 9, 28, 61
1, 22477, Note_on_c, 0, 74, 0
1, 22490, Note_on_c, 0, 75, 68
1, 22493, Note_on_c, 0, 65, 0
1, 22498, Note_on_c, 0, 60, 0
1, 22513, Note_on_c, 0, 61, 0
1, 22520, Note_on_c, 0, 56, 0
1, 22520, Note_on_c, 9, 28, 0
1, 22520, Note_on_c, 9, 28, 67
1, 22549, Note_on_c, 0, 75, 0
1, 22560, Note_on_c, 9, 44, 0
1, 22560, Note_on_c, 9, 28, 0
1, 22560, Note_on_c, 1, 33, 65
1, 22560, Note_on_c, 2, 33, 65
1, 22560, Note_on_c, 9, 28, 64
1, 22561, Note_on_c, 1, 34, 0
1, 22561, Note_on_c, 2, 34, 0
1, 22564, Note_on_c, 0, 65, 67
1, 22564, Note_on_c, 0, 79, 76
1, 22567, Note_on_c, 0, 61, 38
1, 22567, Note_on_c, 0, 55, 55
1, 22568, Note_on_c, 0, 60, 53
1, 22571, Control_c, 0, 64, 0
1, 22640, Control_c, 0, 64, 127
1, 22680, Note_on_c, 9, 28, 0
1, 22680, Note_on_c, 9, 44, 84
1, 22680, Note_on_c, 9, 28, 61
1, 22689, Note_on_c, 0, 60, 0
1, 22716, Note_on_c, 0, 61, 0
1, 22718, Note_on_c, 0, 65, 0
1, 22718, Note_on_c, 0, 55, 0
1, 22760, Note_on_c, 9, 28, 0
1, 22800, Note_on_c, 9, 44, 0
1, 22800, Note_on_c, 9, 28, 58
1, 22801, Note_on_c, 1, 32, 80
1, 22801, Note_on_c, 2, 32, 80
1, 22807, Note_on_c, 2, 33, 0
1, 22807, Note_on_c, 1, 33, 0
1, 22869, Note_on_c, 0, 79, 0
1, 22880, Note_on_c, 9, 28, 0
1, 22880, Note_on_c, 9, 27, 63
1, 22882, Note_on_c, 0, 72, 46
1, 22886, Note_on_c, 0, 65, 44
1, 22886, Note_on_c, 0, 60, 37
1, 22888, Control_c, 0, 64, 0
1, 22890, Note_on_c, 9, 35, 0
1, 22892, Note_on_c, 0, 54, 34
1, 22893, Note_on_c, 9, 32, 54
1, 22915, Control_c, 0, 64, 127
1, 22920, Note_on_c, 9, 27, 0
1, 22920, Note_on_c, 9, 44, 113
1, 22920, Note_on_c, 9, 28, 57
1, 22923, Note_on_c, 9, 32, 0
1, 22938, Note_on_c, 9, 35, 59
1, 22953, Note_on_c, 9, 35, 0
1, 22953, Note_on_c, 0, 65, 0
1, 22960, Note_on_c, 9, 28, 0
1, 22960, Note_on_c, 0, 77, 82
1, 22961, Note_on_c, 0, 60, 0
1, 22969, Note_on_c, 0, 54, 0
1, 22972, Note_on_c, 0, 72, 0
1, 23000, Note_on_c, 1, 44, 88
1, 23000, Note_on_c, 2, 44, 88
1, 23000, Note_on_c, 9, 28, 62
1, 23003, Note_on_c, 9, 32, 58
1, 23019, Note_on_c, 1, 32, 0
1, 23019, Note_on_c, 2, 32, 0
1, 23029, Note_on_c, 0, 77, 0
1, 23032, Note_on_c, 1, 44, 0
1, 23032, Note_on_c, 2, 44, 0
1, 23037, Note_on_c, 9, 32, 0
1, 23040, Note_on_c, 9, 28, 0
1, 23040, Note_on_c, 9, 44, 0
1, 23040, Note_on_c, 0, 74, 51
1, 23040, Note_on_c, 0, 55, 41
1, 23040, Note_on_c, 9, 28, 64
1, 23041, Note_on_c, 1, 43, 67
1, 23041, Note_on_c, 2, 43, 67
1, 23044, Note_on_c, 9, 46, 64
1, 23046, Note_on_c, 0, 62, 26
1, 23046, Note_on_c, 0, 70, 43
1, 23046, Control_c, 0, 64, 0
1, 23046, Note_on_c, 0, 69, 38
1, 23046, Note_on_c, 0, 65, 31
1, 23051, Note_on_c, 0, 58, 25
1, 23053, Note_on_c, 9, 35, 64
1, 23092, Control_c, 0, 64, 127
1, 23104, Note_on_c, 0, 70, 0
1, 23104, Note_on_c, 0, 74, 0
1, 23122, Note_on_c, 0, 69, 0
1, 23160, Note_on_c, 9, 28, 0
1, 23160, Note_on_c, 9, 44, 94
1, 23160, Note_on_c, 9, 28, 50
1, 23180, Note_on_c, 0, 65, 0
1, 23180, Note_on_c, 0, 62, 0
1, 23188, Note_on_c, 9, 46, 0
1, 23190, Note_on_c, 0, 55, 0
1, 23198, Note_on_c, 0, 58, 0
1, 23200, Note_on_c, 9, 28, 0
1, 23200, Note_on_c, 9, 27, 38
1, 23237, Note_on_c, 0, 82, 91
1, 23240, Note_on_c, 9, 27, 0
1, 23240, Note_on_c, 9, 28, 60
1, 23244, Note_on_c, 0, 70, 75
1, 23266, Note_on_c, 0, 82, 0
1, 23267, Note_on_c, 0, 70, 0
1, 23270, Note_on_c, 2, 43, 0
1, 23270, Note_on_c, 1, 43, 0
1, 23276, Note_on_c, 1, 40, 47
1, 23276, Note_on_c, 2, 40, 47
1, 23280, Note_on_c, 9, 44, 0
1, 23280, Note_on_c, 9, 28, 0
1, 23280, Note_on_c, 9, 28, 58
1, 23287, Note_on_c, 0, 82, 81
1, 23287, Note_on_c, 0, 70, 73
1, 23292, Note_on_c, 0, 62, 36
1, 23292, Note_on_c, 0, 58, 27
1, 23292, Control_c, 0, 64, 0
1, 23293, Note_on_c, 0, 57, 31
1, 23294, Note_on_c, 0, 52, 42
1, 23313, Note_on_c, 0, 70, 0
1, 23320, Note_on_c, 0, 82, 0
1, 23331, Note_on_c, 0, 81, 40
1, 23346, Note_on_c, 9, 35, 0
1, 23352, Note_on_c, 0, 81, 0
1, 23358, Note_on_c, 1, 46, 77
1, 23358, Note_on_c, 2, 46, 77
1, 23360, Note_on_c, 9, 32, 39
1, 23368, Note_on_c, 0, 82, 80
1, 23368, Note_on_c, 0, 70, 65
1, 23380, Note_on_c, 9, 32, 0
1, 23386, Note_on_c, 2, 46, 0
1, 23386, Note_on_c, 1, 46, 0
1, 23396, Note_on_c, 1, 40, 0
1, 23396, Note_on_c, 2, 40, 0
1, 23397, Note_on_c, 0, 70, 0
1, 23397, Note_on_c, 9, 35, 63
1, 23399, Note_on_c, 1, 44, 63
1, 23399, Note_on_c, 2, 44, 63
1, 23400, Note_on_c, 9, 28, 0
1, 23400, Note_on_c, 9, 44, 89
1, 23400, Note_on_c, 9, 28, 53
1, 23402, Note_on_c, 0, 82, 0
1, 23405, Control_c, 0, 64, 127
1, 23416, Note_on_c, 0, 81, 29
1, 23431, Note_on_c, 0, 81, 0
1, 23440, Note_on_c, 9, 28, 0
1, 23447, Note_on_c, 0, 82, 86
1, 23448, Note_on_c, 0, 57, 0
1, 23448, Note_on_c, 0, 52, 0
1, 23448, Note_on_c, 0, 70, 74
1, 23458, Note_on_c, 0, 58, 0
1, 23473, Note_on_c, 0, 62, 0
1, 23477, Note_on_c, 1, 40, 48
1, 23477, Note_on_c, 2, 40, 48
1, 23480, Note_on_c, 9, 28, 62
1, 23486, Note_on_c, 2, 40, 0
1, 23486, Note_on_c, 1, 40, 0
1, 23487, Note_on_c, 0, 70, 0
1, 23498, Note_on_c, 0, 82, 0
1, 23509, Note_on_c, 1, 44, 0
1, 23509, Note_on_c, 2, 44, 0
1, 23516, Note_on_c, 1, 45, 62
1, 23516, Note_on_c, 2, 45, 62
1, 23520, Note_on_c, 9, 28, 0
1, 23520, Note_on_c, 9, 44, 0
1, 23520, Note_on_c, 9, 28, 77
1, 23524, Note_on_c, 2, 45, 0
1, 23524, Note_on_c, 1, 45, 0
1, 23528, Note_on_c, 0, 72, 60
1, 23528, Note_on_c, 0, 84, 75
1, 23529, Control_c, 0, 64, 0
1, 23530, Note_on_c, 0, 65, 46
1, 23531, Note_on_c, 0, 60, 32
1, 23534, Note_on_c, 0, 61, 25
1, 23536, Note_on_c, 0, 55, 34
1, 23554, Note_on_c, 1, 40, 58
1, 23554, Note_on_c, 2, 40, 58
1, 23572, Control_c, 0, 64, 127
1, 23594, Note_on_c, 0, 84, 0
1, 23604, Note_on_c, 0, 72, 0
1, 23614, Note_on_c, 0, 84, 68
1, 23615, Note_on_c, 0, 72, 62
1, 23624, Note_on_c, 1, 40, 0
1, 23624, Note_on_c, 2, 40, 0
1, 23624, Control_c, 0, 64, 0
1, 23633, Note_on_c, 1, 37, 47
1, 23633, Note_on_c, 2, 37, 47
1, 23638, Control_c, 0, 64, 127
1, 23640, Note_on_c, 9, 28, 0
1, 23640, Note_on_c, 9, 44, 91
1, 23640, Note_on_c, 9, 28, 66
1, 23662, Note_on_c, 0, 60, 0
1, 23665, Note_on_c, 0, 72, 0
1, 23668, Note_on_c, 0, 61, 0
1, 23669, Note_on_c, 0, 65, 0
1, 23670, Note_on_c, 0, 55, 0
1, 23686, Note_on_c, 0, 84, 0
1, 23719, Note_on_c, 0, 86, 80
1, 23719, Note_on_c, 0, 77, 77
1, 23722, Note_on_c, 0, 58, 39
1, 23722, Note_on_c, 0, 65, 56
1, 23722, Note_on_c, 0, 60, 47
1, 23723, Note_on_c, 0, 54, 43
1, 23729, Control_c, 0, 64, 0
1, 23760, Note_on_c, 9, 28, 0
1, 23760, Note_on_c, 9, 44, 0
1, 23760, Note_on_c, 9, 28, 84
1, 23769, Control_c, 0, 64, 127
1, 23824, Note_on_c, 0, 86, 0
1, 23837, Note_on_c, 2, 37, 0
1, 23837, Note_on_c, 1, 37, 0
1, 23841, Note_on_c, 1, 38, 72
1, 23841, Note_on_c, 2, 38, 72
1, 23852, Note_on_c, 0, 77, 0
1, 23878, Note_on_c, 0, 65, 0
1, 23880, Note_on_c, 9, 28, 0
1, 23880, Note_on_c, 0, 60, 0
1, 23880, Note_on_c, 9, 44, 102
1, 23880, Note_on_c, 9, 44, 102
1, 23880, Note_on_c, 9, 28, 88
1, 23894, Note_on_c, 0, 58, 0
1, 23900, Note_on_c, 0, 54, 0
1, 23917, Note_on_c, 0, 82, 51
1, 23919, Note_on_c, 1, 38, 0
1, 23919, Note_on_c, 2, 38, 0
1, 23928, Note_on_c, 1, 50, 57
1, 23928, Note_on_c, 2, 50, 57
1, 23935, Note_on_c, 2, 50, 0
1, 23935, Note_on_c, 1, 50, 0
1, 23952, Note_on_c, 0, 82, 0
1, 23954, Note_on_c, 0, 78, 45
1, 23957, Note_on_c, 9, 35, 0
1, 23960, Note_on_c, 9, 28, 0
1, 23961, Note_on_c, 9, 32, 63
1, 23963, Note_on_c, 1, 42, 47
1, 23963, Note_on_c, 2, 42, 47
1, 23976, Note_on_c, 0, 78, 0
1, 23987, Control_c, 0, 64, 0
1, 23989, Note_on_c, 0, 57, 36
1, 23991, Note_on_c, 0, 62, 24
1, 23992, Note_on_c, 0, 58, 25
1, 23992, Note_on_c, 0, 81, 55
1, 23995, Note_on_c, 0, 55, 26
1, 23998, Note_on_c, 9, 32, 0
1, 23999, Note_on_c, 1, 42, 0
1, 23999, Note_on_c, 2, 42, 0
1, 24000, Note_on_c, 9, 44, 0
1, 24000, Note_on_c, 9, 44, 0
1, 24000, Note_on_c, 9, 28, 64
1, 24005, Note_on_c, 9, 55, 51
1, 24007, Note_on_c, 1, 43, 38
1, 24007, Note_on_c, 2, 43, 38
1, 24007, Note_on_c, 9, 35, 61
1, 24017, Note_on_c, 9, 55, 0
1, 24020, Note_on_c, 0, 81, 0
1, 24026, Note_on_c, 0, 78, 29
1, 24046, Note_on_c, 0, 78, 0
1, 24060, Note_on_c, 0, 79, 69
1, 24083, Note_on_c, 0, 79, 0
1, 24094, Note_on_c, 0, 74, 54
1, 24112, Note_on_c, 0, 74, 0
1, 24120, Note_on_c, 9, 28, 0
1, 24120, Note_on_c, 9, 44, 94
1, 24120, Note_on_c, 9, 28, 58
1, 24131, Note_on_c, 0, 74, 60
1, 24139, Control_c, 0, 64, 127
1, 24166, Note_on_c, 0, 74, 0
1, 24190, Note_on_c, 0, 62, 0
1, 24190, Note_on_c, 0, 55, 0
1, 24194, Note_on_c, 0, 57, 0
1, 24200, Note_on_c, 9, 28, 0
1, 24200, Note_on_c, 1, 39, 36
1, 24200, Note_on_c, 2, 39, 36
1, 24200, Note_on_c, 9, 27, 56
1, 24204, Note_on_c, 0, 58, 0
1, 24204, Note_on_c, 0, 82, 79
1, 24206, Note_on_c, 0, 70, 77
1, 24212, Note_on_c, 2, 43, 0
1, 24212, Note_on_c, 1, 43, 0
1, 24221, Note_on_c, 1, 39, 0
1, 24221, Note_on_c, 2, 39, 0
1, 24233, Note_on_c, 0, 82, 0
1, 24234, Note_on_c, 1, 42, 48
1, 24234, Note_on_c, 2, 42, 48
1, 24236, Note_on_c, 0, 70, 0
1, 24240, Note_on_c, 9, 44, 0
1, 24240, Note_on_c, 9, 28, 60
1, 24241, Note_on_c, 0, 54, 42
1, 24245, Control_c, 0, 64, 0
1, 24246, Note_on_c, 0, 62, 36
1, 24246, Note_on_c, 0, 82, 65
1, 24246, Note_on_c, 0, 58, 42
1, 24248, Note_on_c, 0, 70, 67
1, 24280, Note_on_c, 9, 27, 0
1, 24285, Control_c, 0, 64, 127
1, 24291, Note_on_c, 9, 35, 0
1, 24297, Note_on_c, 0, 82, 0
1, 24300, Note_on_c, 0, 70, 0
1, 24320, Note_on_c, 9, 28, 0
1, 24321, Note_on_c, 0, 69, 54
1, 24331, Note_on_c, 0, 69, 0
1, 24333, Note_on_c, 9, 32, 30
1, 24340, Control_c, 0, 64, 0
1, 24353, Note_on_c, 9, 32, 0
1, 24360, Note_on_c, 9, 46, 100
1, 24360, Note_on_c, 9, 28, 74
1, 24361, Control_c, 0, 64, 127
1, 24362, Note_on_c, 0, 70, 47
1, 24363, Note_on_c, 0, 82, 62
1, 24363, Note_on_c, 9, 35, 75
1, 24366, Note_on_c, 0, 54, 0
1, 24368, Note_on_c, 0, 62, 0
1, 24370, Note_on_c, 0, 58, 0
1, 24378, Note_on_c, 0, 70, 0
1, 24383, Note_on_c, 0, 82, 0
1, 24434, Note_on_c, 1, 42, 0
1, 24434, Note_on_c, 2, 42, 0
1, 24434, Note_on_c, 1, 40, 40
1, 24434, Note_on_c, 2, 40, 40
1, 24438, Note_on_c, 0, 84, 52
1, 24438, Note_on_c, 0, 72, 42
1, 24439, Note_on_c, 0, 80, 34
1, 24440, Note_on_c, 9, 28, 0
1, 24440, Note_on_c, 0, 77, 45
1, 24440, Note_on_c, 0, 63, 31
1, 24441, Note_on_c, 0, 60, 33
1, 24442, Control_c, 0, 64, 0
1, 24442, Note_on_c, 0, 56, 35
1, 24446, Note_on_c, 0, 53, 24
1, 24461, Note_on_c, 2, 40, 0
1, 24461, Note_on_c, 1, 40, 0
1, 24465, Note_on_c, 0, 84, 0
1, 24470, Control_c, 0, 64, 127
1, 24472, Note_on_c, 0, 77, 0
1, 24475, Note_on_c, 1, 41, 58
1, 24475, Note_on_c, 2, 41, 58
1, 24477, Note_on_c, 0, 80, 0
1, 24479, Note_on_c, 0, 72, 0
1, 24480, Note_on_c, 9, 46, 0
1, 24480, Note_on_c, 9, 28, 70
1, 24493, Note_on_c, 1, 41, 0
1, 24493, Note_on_c, 2, 41, 0
1, 24512, Note_on_c, 9, 35, 0
1, 24526, Note_on_c, 0, 67, 54
1, 24541, Note_on_c, 0, 53, 0
1, 24543, Control_c, 0, 64, 0
1, 24544, Note_on_c, 0, 67, 0
1, 24546, Note_on_c, 0, 60, 0
1, 24546, Note_on_c, 0, 68, 52
1, 24555, Note_on_c, 0, 56, 0
1, 24557, Note_on_c, 1, 36, 55
1, 24557, Note_on_c, 2, 36, 55
1, 24558, Note_on_c, 0, 63, 0
1, 24560, Note_on_c, 9, 28, 0
1, 24560, Note_on_c, 9, 27, 60
1, 24563, Note_on_c, 0, 68, 0
1, 24568, Note_on_c, 0, 70, 54
1, 24575, Note_on_c, 0, 70, 0
1, 24587, Note_on_c, 1, 36, 0
1, 24587, Note_on_c, 2, 36, 0
1, 24595, Note_on_c, 0, 72, 52
1, 24600, Note_on_c, 9, 27, 0
1, 24600, Note_on_c, 9, 44, 98
1, 24600, Note_on_c, 9, 28, 64
1, 24602, Note_on_c, 1, 34, 64
1, 24602, Note_on_c, 2, 34, 64
1, 24605, Note_on_c, 0, 72, 0
1, 24622, Note_on_c, 0, 74, 73
1, 24629, Note_on_c, 0, 74, 0
1, 24651, Note_on_c, 0, 75, 69
1, 24660, Note_on_c, 0, 75, 0
1, 24675, Note_on_c, 9, 35, 90
1, 24679, Note_on_c, 0, 77, 67
1, 24687, Note_on_c, 0, 77, 0
1, 24697, Note_on_c, 9, 35, 0
1, 24716, Note_on_c, 9, 35, 78
1, 24720, Note_on_c, 9, 44, 0
1, 24720, Note_on_c, 9, 28, 0
1, 24720, Note_on_c, 0, 79, 73
1, 24720, Note_on_c, 9, 28, 66
1, 24722, Note_on_c, 0, 66, 40
1, 24727, Note_on_c, 0, 62, 32
1, 24734, Note_on_c, 0, 79, 0
1, 24737, Note_on_c, 0, 62, 0
1, 24738, Note_on_c, 0, 66, 0
1, 24758, Note_on_c, 0, 80, 73
1, 24774, Note_on_c, 0, 80, 0
1, 24792, Note_on_c, 0, 66, 44
1, 24793, Note_on_c, 0, 82, 78
1, 24793, Note_on_c, 0, 56, 40
1, 24795, Note_on_c, 0, 62, 42
1, 24808, Control_c, 0, 64, 127
1, 24839, Note_on_c, 1, 46, 81
1, 24839, Note_on_c, 2, 46, 81
1, 24840, Note_on_c, 9, 28, 0
1, 24840, Note_on_c, 9, 44, 98
1, 24840, Note_on_c, 9, 28, 66
1, 24843, Note_on_c, 0, 66, 0
1, 24843, Note_on_c, 0, 82, 0
1, 24845, Note_on_c, 0, 62, 0
1, 24853, Note_on_c, 0, 83, 78
1, 24855, Note_on_c, 2, 34, 0
1, 24855, Note_on_c, 1, 34, 0
1, 24855, Note_on_c, 0, 66, 28
1, 24858, Note_on_c, 0, 62, 30
1, 24867, Note_on_c, 9, 35, 0
1, 24871, Note_on_c, 0, 66, 0
1, 24872, Note_on_c, 0, 83, 0
1, 24876, Note_on_c, 0, 62, 0
1, 24878, Note_on_c, 0, 56, 0
1, 24887, Note_on_c, 0, 86, 71
1, 24905, Note_on_c, 0, 86, 0
1, 24926, Note_on_c, 0, 66, 48
1, 24926, Note_on_c, 0, 56, 55
1, 24928, Note_on_c, 0, 89, 85
1, 24929, Note_on_c, 0, 62, 41
1, 24939, Note_on_c, 0, 62, 0
1, 24942, Note_on_c, 0, 66, 0
1, 24960, Note_on_c, 9, 44, 0
1, 24960, Note_on_c, 9, 28, 0
1, 24960, Note_on_c, 0, 56, 0
1, 24960, Note_on_c, 9, 28, 65
1, 24961, Note_on_c, 0, 89, 0
1, 24962, Note_on_c, 2, 46, 0
1, 24962, Note_on_c, 1, 46, 0
1, 24963, Note_on_c, 1, 39, 65
1, 24963, Note_on_c, 2, 39, 65
1, 24967, Control_c, 0, 64, 0
1, 24975, Note_on_c, 0, 65, 34
1, 24975, Note_on_c, 0, 87, 56
1, 24977, Note_on_c, 0, 60, 33
1, 24985, Note_on_c, 0, 65, 0
1, 24987, Note_on_c, 0, 60, 0
1, 24991, Note_on_c, 0, 87, 0
1, 25029, Control_c, 0, 64, 127
1, 25069, Control_c, 0, 64, 0
1, 25077, Control_c, 0, 64, 127
1, 25080, Note_on_c, 9, 28, 0
1, 25080, Note_on_c, 9, 44, 90
1, 25080, Note_on_c, 9, 28, 63
1, 25156, Note_on_c, 9, 32, 60
1, 25160, Note_on_c, 9, 28, 0
1, 25160, Note_on_c, 9, 27, 58
1, 25169, Note_on_c, 9, 32, 0
1, 25200, Note_on_c, 9, 44, 0
1, 25200, Note_on_c, 9, 27, 0
1, 25200, Control_c, 0, 64, 0
1, 25200, Note_on_c, 9, 28, 50
1, 25205, Note_on_c, 0, 85, 83
1, 25205, Note_on_c, 0, 97, 83
1, 25205, Note_on_c, 0, 92, 80
1, 25207, Note_on_c, 0, 64, 68
1, 25207, Note_on_c, 0, 53, 73
1, 25209, Note_on_c, 0, 59, 66
1, 25219, Control_c, 0, 64, 127
1, 25237, Note_on_c, 0, 56, 18
1, 25238, Note_on_c, 0, 53, 0
1, 25245, Note_on_c, 0, 56, 0
1, 25245, Note_on_c, 9, 32, 73
1, 25250, Note_on_c, 0, 64, 0
1, 25250, Note_on_c, 0, 59, 0
1, 25251, Note_on_c, 0, 85, 0
1, 25253, Note_on_c, 0, 97, 0
1, 25253, Note_on_c, 0, 92, 0
1, 25274, Note_on_c, 9, 32, 0
1, 25281, Control_c, 0, 64, 0
1, 25283, Note_on_c, 0, 54, 59
1, 25286, Note_on_c, 0, 86, 74
1, 25286, Note_on_c, 0, 59, 33
1, 25287, Note_on_c, 0, 98, 73
1, 25288, Note_on_c, 0, 64, 54
1, 25289, Note_on_c, 0, 93, 66
1, 25293, Control_c, 0, 64, 127
1, 25298, Note_on_c, 0, 59, 0
1, 25302, Note_on_c, 0, 86, 0
1, 25303, Note_on_c, 0, 64, 0
1, 25303, Note_on_c, 0, 98, 0
1, 25306, Note_on_c, 0, 54, 0
1, 25307, Note_on_c, 0, 93, 0
1, 25320, Note_on_c, 9, 28, 0
1, 25320, Control_c, 0, 64, 0
1, 25320, Note_on_c, 9, 44, 98
1, 25320, Note_on_c, 9, 28, 62
1, 25329, Note_on_c, 0, 61, 39
1, 25334, Note_on_c, 0, 60, 40
1, 25334, Note_on_c, 0, 65, 52
1, 25334, Note_on_c, 0, 55, 40
1, 25334, Note_on_c, 0, 99, 64
1, 25334, Note_on_c, 0, 87, 56
1, 25336, Note_on_c, 0, 94, 57
1, 25337, Note_on_c, 9, 32, 73
1, 25346, Control_c, 0, 64, 127
1, 25364, Note_on_c, 9, 32, 0
1, 25370, Note_on_c, 0, 65, 0
1, 25371, Note_on_c, 0, 55, 0
1, 25373, Note_on_c, 0, 60, 0
1, 25376, Note_on_c, 0, 99, 0
1, 25376, Note_on_c, 0, 87, 0
1, 25377, Note_on_c, 0, 94, 0
1, 25381, Note_on_c, 0, 61, 0
1, 25409, Note_on_c, 0, 65, 55
1, 25410, Note_on_c, 9, 35, 89
1, 25411, Note_on_c, 0, 61, 37
1, 25412, Note_on_c, 0, 60, 51
1, 25417, Note_on_c, 0, 89, 80
1, 25417, Note_on_c, 0, 101, 75
1, 25418, Note_on_c, 0, 65, 0
1, 25421, Note_on_c, 0, 61, 0
1, 25422, Note_on_c, 0, 99, 29
1, 25426, Note_on_c, 0, 96, 29
1, 25433, Note_on_c, 0, 99, 0
1, 25436, Note_on_c, 0, 89, 0
1, 25438, Note_on_c, 0, 60, 0
1, 25438, Note_on_c, 0, 101, 0
1, 25440, Note_on_c, 9, 28, 0
1, 25440, Note_on_c, 9, 44, 0
1, 25440, Note_on_c, 9, 28, 67
1, 25443, Note_on_c, 9, 35, 0
1, 25444, Note_on_c, 0, 96, 0
1, 25446, Control_c, 0, 64, 0
1, 25462, Note_on_c, 0, 60, 37
1, 25463, Note_on_c, 9, 35, 70
1, 25464, Note_on_c, 0, 65, 47
1, 25466, Note_on_c, 0, 99, 56
1, 25466, Note_on_c, 0, 61, 29
1, 25467, Note_on_c, 0, 87, 43
1, 25468, Note_on_c, 0, 56, 32
1, 25474, Note_on_c, 0, 65, 0
1, 25478, Note_on_c, 0, 60, 0
1, 25479, Note_on_c, 0, 87, 0
1, 25485, Note_on_c, 0, 61, 0
1, 25485, Note_on_c, 0, 99, 0
1, 25486, Note_on_c, 0, 56, 0
1, 25490, Control_c, 0, 64, 127
1, 25494, Control_c, 0, 64, 0
1, 25498, Control_c, 0, 64, 127
1, 25512, Control_c, 0, 64, 0
1, 25522, Note_on_c, 9, 35, 0
1, 25537, Note_on_c, 0, 85, 51
1, 25538, Note_on_c, 0, 97, 53
1, 25539, Note_on_c, 0, 56, 35
1, 25539, Note_on_c, 0, 60, 39
1, 25539, Note_on_c, 0, 61, 33
1, 25539, Note_on_c, 0, 65, 36
1, 25541, Note_on_c, 0, 92, 39
1, 25551, Note_on_c, 0, 92, 0
1, 25554, Note_on_c, 0, 85, 0
1, 25555, Note_on_c, 0, 97, 0
1, 25557, Note_on_c, 1, 46, 81
1, 25557, Note_on_c, 2, 46, 81
1, 25559, Note_on_c, 2, 39, 0
1, 25559, Note_on_c, 1, 39, 0
1, 25560, Note_on_c, 9, 28, 0
1, 25560, Note_on_c, 9, 44, 100
1, 25560, Note_on_c, 9, 28, 79
1, 25562, Control_c, 0, 64, 127
1, 25573, Note_on_c, 0, 65, 0
1, 25574, Note_on_c, 0, 60, 0
1, 25581, Note_on_c, 0, 61, 0
1, 25592, Note_on_c, 0, 56, 0
1, 25645, Control_c, 0, 64, 0
1, 25647, Note_on_c, 0, 94, 58
1, 25648, Note_on_c, 0, 82, 53
1, 25648, Note_on_c, 0, 87, 64
1, 25649, Note_on_c, 0, 55, 61
1, 25651, Note_on_c, 0, 61, 39
1, 25651, Note_on_c, 0, 91, 44
1, 25651, Note_on_c, 9, 35, 84
1, 25652, Note_on_c, 0, 65, 43
1, 25668, Note_on_c, 0, 91, 0
1, 25669, Note_on_c, 0, 94, 0
1, 25672, Note_on_c, 0, 65, 0
1, 25674, Note_on_c, 9, 35, 0
1, 25677, Note_on_c, 0, 87, 0
1, 25677, Control_c, 0, 64, 127
1, 25680, Note_on_c, 9, 28, 0
1, 25680, Note_on_c, 9, 44, 0
1, 25680, Note_on_c, 9, 28, 65
1, 25681, Note_on_c, 0, 82, 0
1, 25686, Note_on_c, 0, 61, 0
1, 25687, Note_on_c, 0, 55, 0
1, 25753, Note_on_c, 1, 46, 0
1, 25753, Note_on_c, 2, 46, 0
1, 25760, Note_on_c, 9, 28, 0
1, 25760, Note_on_c, 9, 27, 51
1, 25764, Note_on_c, 1, 39, 43
1, 25764, Note_on_c, 2, 39, 43
1, 25768, Note_on_c, 0, 64, 69
1, 25768, Note_on_c, 0, 61, 45
1, 25768, Note_on_c, 0, 59, 64
1, 25768, Note_on_c, 0, 55, 62
1, 25772, Note_on_c, 0, 45, 54
1, 25773, Note_on_c, 0, 52, 63
1, 25779, Control_c, 0, 64, 0
1, 25788, Note_on_c, 2, 39, 0
1, 25788, Note_on_c, 1, 39, 0
1, 25800, Note_on_c, 9, 27, 0
1, 25800, Note_on_c, 9, 44, 98
1, 25800, Note_on_c, 9, 28, 60
1, 25805, Note_on_c, 1, 33, 64
1, 25805, Note_on_c, 2, 33, 64
1, 25818, Control_c, 0, 64, 127
1, 25840, Note_on_c, 9, 28, 0
1, 25857, Note_on_c, 0, 64, 0
1, 25862, Note_on_c, 0, 52, 0
1, 25863, Note_on_c, 0, 59, 0
1, 25872, Note_on_c, 0, 45, 0
1, 25876, Note_on_c, 0, 55, 0
1, 25876, Note_on_c, 0, 61, 0
1, 25880, Note_on_c, 9, 28, 78
1, 25892, Note_on_c, 9, 35, 80
1, 25904, Note_on_c, 1, 33, 0
1, 25904, Note_on_c, 2, 33, 0
1, 25912, Note_on_c, 9, 35, 0
1, 25915, Note_on_c, 1, 32, 52
1, 25915, Note_on_c, 2, 32, 52
1, 25917, Control_c, 0, 64, 0
1, 25920, Note_on_c, 9, 28, 0
1, 25920, Note_on_c, 9, 44, 0
1, 25920, Note_on_c, 9, 28, 72
1, 25926, Note_on_c, 0, 63, 35
1, 25927, Note_on_c, 0, 58, 37
1, 25929, Note_on_c, 0, 44, 30
1, 25930, Note_on_c, 0, 55, 44
1, 25931, Note_on_c, 0, 51, 28
1, 25932, Note_on_c, 9, 35, 65
1, 25943, Control_c, 0, 64, 127
1, 25951, Note_on_c, 0, 55, 0
1, 25957, Note_on_c, 9, 35, 0
1, 25958, Note_on_c, 0, 58, 0
1, 25964, Note_on_c, 0, 63, 0
1, 25964, Note_on_c, 0, 51, 0
1, 25964, Note_on_c, 0, 44, 0
1, 26037, Note_on_c, 0, 54, 76
1, 26038, Control_c, 0, 64, 0
1, 26040, Note_on_c, 9, 28, 0
1, 26040, Note_on_c, 0, 65, 92
1, 26040, Note_on_c, 9, 44, 100
1, 26040, Note_on_c, 9, 28, 63
1, 26041, Note_on_c, 0, 70, 88
1, 26042, Note_on_c, 0, 60, 88
1, 26043, Note_on_c, 0, 55, 85
1, 26053, Note_on_c, 0, 54, 0
1, 26101, Control_c, 0, 64, 127
1, 26115, Note_on_c, 1, 39, 43
1, 26115, Note_on_c, 2, 39, 43
1, 26120, Note_on_c, 9, 28, 0
1, 26120, Note_on_c, 9, 28, 62
1, 26140, Note_on_c, 2, 39, 0
1, 26140, Note_on_c, 1, 39, 0
1, 26141, Note_on_c, 2, 32, 0
1, 26141, Note_on_c, 1, 32, 0
1, 26153, Note_on_c, 1, 44, 69
1, 26153, Note_on_c, 2, 44, 69
1, 26160, Note_on_c, 9, 44, 0
1, 26160, Note_on_c, 9, 28, 0
1, 26160, Note_on_c, 9, 28, 67
1, 26172, Note_on_c, 0, 55, 0
1, 26178, Note_on_c, 0, 70, 0
1, 26181, Note_on_c, 0, 65, 0
1, 26191, Note_on_c, 0, 60, 0
1, 26240, Note_on_c, 9, 28, 0
1, 26271, Control_c, 0, 64, 0
1, 26272, Note_on_c, 0, 44, 36
1, 26273, Note_on_c, 0, 66, 50
1, 26274, Note_on_c, 0, 58, 49
1, 26275, Note_on_c, 0, 54, 30
1, 26276, Note_on_c, 0, 61, 38
1, 26280, Note_on_c, 9, 44, 98
1, 26280, Note_on_c, 9, 28, 63
1, 26307, Note_on_c, 0, 66, 0
1, 26313, Note_on_c, 0, 58, 0
1, 26316, Note_on_c, 0, 44, 0
1, 26316, Note_on_c, 0, 54, 0
1, 26316, Note_on_c, 0, 61, 0
1, 26320, Note_on_c, 9, 28, 0
1, 26320, Note_on_c, 9, 27, 48
1, 26358, Note_on_c, 0, 66, 47
1, 26358, Note_on_c, 1, 46, 47
1, 26358, Note_on_c, 2, 46, 47
1, 26359, Note_on_c, 0, 58, 44
1, 26360, Note_on_c, 9, 27, 0
1, 26360, Note_on_c, 9, 28, 56
1, 26362, Note_on_c, 0, 61, 46
1, 26362, Note_on_c, 0, 44, 42
1, 26362, Note_on_c, 0, 54, 40
1, 26368, Note_on_c, 2, 46, 0
1, 26368, Note_on_c, 1, 46, 0
1, 26398, Note_on_c, 1, 44, 0
1, 26398, Note_on_c, 2, 44, 0
1, 26400, Note_on_c, 9, 28, 0
1, 26400, Note_on_c, 9, 44, 0
1, 26400, Note_on_c, 9, 28, 67
1, 26401, Note_on_c, 1, 48, 57
1, 26401, Note_on_c, 2, 48, 57
1, 26408, Note_on_c, 2, 48, 0
1, 26408, Note_on_c, 1, 48, 0
1, 26418, Control_c, 0, 64, 127
1, 26480, Note_on_c, 9, 28, 0
1, 26481, Note_on_c, 1, 46, 47
1, 26481, Note_on_c, 2, 46, 47
1, 26498, Note_on_c, 2, 46, 0
1, 26498, Note_on_c, 1, 46, 0
1, 26520, Note_on_c, 9, 44, 99
1, 26520, Note_on_c, 9, 28, 69
1, 26524, Note_on_c, 1, 44, 61
1, 26524, Note_on_c, 2, 44, 61
1, 26560, Note_on_c, 9, 28, 0
1, 26560, Note_on_c, 9, 27, 46
1, 26581, Note_on_c, 0, 61, 0
1, 26582, Note_on_c, 0, 58, 0
1, 26584, Note_on_c, 0, 54, 0
1, 26600, Note_on_c, 9, 27, 0
1, 26600, Note_on_c, 9, 28, 59
1, 26604, Note_on_c, 1, 39, 40
1, 26604, Note_on_c, 2, 39, 40
1, 26610, Note_on_c, 2, 39, 0
1, 26610, Note_on_c, 1, 39, 0
1, 26610, Note_on_c, 1, 44, 0
1, 26610, Note_on_c, 2, 44, 0
1, 26639, Note_on_c, 1, 32, 63
1, 26639, Note_on_c, 2, 32, 63
1, 26640, Note_on_c, 9, 44, 0
1, 26640, Note_on_c, 9, 28, 0
1, 26640, Note_on_c, 0, 61, 32
1, 26640, Note_on_c, 9, 28, 73
1, 26641, Note_on_c, 0, 58, 31
1, 26649, Note_on_c, 0, 54, 15
1, 26657, Note_on_c, 0, 66, 0
1, 26701, Note_on_c, 0, 58, 0
1, 26714, Note_on_c, 0, 61, 0
1, 26716, Note_on_c, 0, 44, 0
1, 26718, Note_on_c, 0, 54, 0
1, 26730, Note_on_c, 9, 32, 66
1, 26742, Note_on_c, 9, 32, 0
1, 26754, Note_on_c, 2, 32, 0
1, 26754, Note_on_c, 1, 32, 0
1, 26758, Note_on_c, 1, 42, 68
1, 26758, Note_on_c, 2, 42, 68
1, 26760, Note_on_c, 9, 28, 0
1, 26760, Note_on_c, 9, 44, 100
1, 26760, Note_on_c, 9, 28, 66
1, 26845, Note_on_c, 9, 32, 80
1, 26871, Note_on_c, 9, 32, 0
1, 26873, Note_on_c, 1, 42, 0
1, 26873, Note_on_c, 2, 42, 0
1, 26879, Note_on_c, 1, 41, 66
1, 26879, Note_on_c, 2, 41, 66
1, 26880, Note_on_c, 9, 44, 0
1, 26880, Note_on_c, 9, 28, 0
1, 26880, Note_on_c, 0, 67, 60
1, 26880, Note_on_c, 0, 78, 64
1, 26880, Note_on_c, 0, 63, 35
1, 26880, Note_on_c, 9, 28, 62
1, 26882, Note_on_c, 0, 62, 40
1, 26883, Note_on_c, 0, 69, 58
1, 26884, Note_on_c, 0, 57, 42
1, 26885, Control_c, 0, 64, 0
1, 26891, Note_on_c, 9, 46, 59
1, 26894, Note_on_c, 9, 35, 62
1, 26896, Note_on_c, 0, 57, 0
1, 26896, Note_on_c, 0, 67, 0
1, 26897, Note_on_c, 0, 62, 0
1, 26899, Note_on_c, 0, 63, 0
1, 26900, Note_on_c, 0, 69, 0
1, 26911, Note_on_c, 0, 78, 0
1, 26923, Note_on_c, 0, 74, 49
1, 26931, Note_on_c, 0, 74, 0
1, 26946, Note_on_c, 9, 35, 0
1, 26958, Note_on_c, 9, 46, 0
1, 26961, Note_on_c, 0, 62, 53
1, 26962, Note_on_c, 0, 78, 67
1, 26962, Note_on_c, 0, 67, 60
1, 26964, Note_on_c, 0, 63, 37
1, 26965, Note_on_c, 0, 74, 58
1, 26965, Note_on_c, 0, 69, 60
1, 26967, Note_on_c, 0, 57, 36
1, 26980, Note_on_c, 0, 74, 0
1, 26981, Note_on_c, 0, 69, 0
1, 26982, Note_on_c, 0, 57, 0
1, 26983, Note_on_c, 0, 63, 0
1, 26983, Note_on_c, 0, 67, 0
1, 26986, Note_on_c, 0, 62, 0
1, 26988, Note_on_c, 0, 78, 0
1, 27000, Note_on_c, 9, 28, 0
1, 27000, Note_on_c, 9, 44, 106
1, 27000, Note_on_c, 9, 28, 66
1, 27034, Control_c, 0, 64, 127
1, 27046, Note_on_c, 1, 36, 53
1, 27046, Note_on_c, 2, 36, 53
1, 27049, Note_on_c, 2, 41, 0
1, 27049, Note_on_c, 1, 41, 0
1, 27056, Note_on_c, 1, 36, 0
1, 27056, Note_on_c, 2, 36, 0
1, 27079, Note_on_c, 1, 30, 51
1, 27079, Note_on_c, 2, 30, 51
1, 27080, Note_on_c, 9, 28, 0
1, 27080, Note_on_c, 9, 27, 55
1, 27099, Note_on_c, 2, 30, 0
1, 27099, Note_on_c, 1, 30, 0
1, 27120, Note_on_c, 9, 44, 0
1, 27120, Note_on_c, 9, 27, 0
1, 27120, Note_on_c, 9, 28, 56
1, 27122, Note_on_c, 1, 29, 59
1, 27122, Note_on_c, 2, 29, 59
1, 27207, Note_on_c, 0, 41, 36
1, 27224, Note_on_c, 0, 41, 0
1, 27232, Control_c, 0, 64, 0
1, 27240, Note_on_c, 9, 28, 0
1, 27240, Note_on_c, 9, 44, 105
1, 27240, Note_on_c, 9, 28, 68
1, 27259, Control_c, 0, 64, 127
1, 27291, Note_on_c, 2, 29, 0
1, 27291, Note_on_c, 1, 29, 0
1, 27292, Note_on_c, 1, 31, 57
1, 27292, Note_on_c, 2, 31, 57
1, 27315, Note_on_c, 2, 31, 0
1, 27315, Note_on_c, 1, 31, 0
1, 27320, Note_on_c, 1, 32, 61
1, 27320, Note_on_c, 2, 32, 61
1, 27325, Note_on_c, 0, 63, 49
1, 27327, Note_on_c, 0, 54, 57
1, 27330, Note_on_c, 0, 57, 54
1, 27334, Note_on_c, 0, 54, 0
1, 27334, Note_on_c, 0, 60, 36
1, 27334, Control_c, 0, 64, 0
1, 27336, Note_on_c, 0, 57, 0
1, 27338, Note_on_c, 1, 32, 0
1, 27338, Note_on_c, 2, 32, 0
1, 27341, Note_on_c, 0, 60, 0
1, 27344, Note_on_c, 0, 63, 0
1, 27360, Note_on_c, 9, 44, 0
1, 27360, Note_on_c, 9, 28, 0
1, 27360, Note_on_c, 9, 28, 69
1, 27361, Note_on_c, 1, 33, 60
1, 27361, Note_on_c, 2, 33, 60
1, 27440, Note_on_c, 9, 28, 0
1, 27448, Note_on_c, 0, 63, 50
1, 27448, Note_on_c, 0, 75, 67
1, 27449, Note_on_c, 0, 69, 75
1, 27450, Note_on_c, 0, 72, 65
1, 27452, Note_on_c, 0, 65, 62
1, 27480, Note_on_c, 9, 44, 102
1, 27480, Note_on_c, 9, 28, 64
1, 27481, Note_on_c, 0, 63, 0
1, 27484, Note_on_c, 0, 75, 0
1, 27485, Note_on_c, 0, 65, 0
1, 27486, Note_on_c, 0, 72, 0
1, 27487, Note_on_c, 0, 69, 0
1, 27553, Note_on_c, 1, 33, 0
1, 27553, Note_on_c, 2, 33, 0
1, 27555, Note_on_c, 1, 36, 48
1, 27555, Note_on_c, 2, 36, 48
1, 27559, Control_c, 0, 64, 127
1, 27560, Note_on_c, 9, 27, 50
1, 27564, Note_on_c, 2, 36, 0
1, 27564, Note_on_c, 1, 36, 0
1, 27570, Note_on_c, 0, 66, 63
1, 27571, Note_on_c, 0, 63, 60
1, 27573, Note_on_c, 0, 69, 55
1, 27573, Note_on_c, 0, 72, 58
1, 27574, Note_on_c, 0, 60, 61
1, 27581, Control_c, 0, 64, 0
1, 27589, Note_on_c, 0, 69, 0
1, 27591, Note_on_c, 0, 72, 0
1, 27594, Note_on_c, 1, 41, 73
1, 27594, Note_on_c, 2, 41, 73
1, 27598, Note_on_c, 0, 60, 0
1, 27600, Note_on_c, 0, 63, 0
1, 27600, Note_on_c, 9, 28, 0
1, 27600, Note_on_c, 9, 27, 0
1, 27600, Note_on_c, 9, 44, 0
1, 27600, Note_on_c, 9, 28, 49
1, 27601, Note_on_c, 0, 66, 0
1, 27617, Note_on_c, 0, 66, 35
1, 27635, Note_on_c, 0, 57, 38
1, 27641, Note_on_c, 0, 63, 23
1, 27653, Note_on_c, 0, 63, 0
1, 27657, Note_on_c, 0, 66, 0
1, 27664, Control_c, 0, 64, 127
1, 27680, Note_on_c, 9, 28, 0
1, 27680, Note_on_c, 9, 27, 58
1, 27689, Note_on_c, 9, 27, 76
1, 27702, Control_c, 0, 64, 0
1, 27703, Note_on_c, 9, 27, 0
1, 27707, Note_on_c, 0, 57, 0
1, 27720, Note_on_c, 9, 27, 0
1, 27720, Note_on_c, 9, 46, 88
1, 27720, Note_on_c, 9, 28, 56
1, 27723, Note_on_c, 0, 63, 34
1, 27727, Note_on_c, 9, 35, 54
1, 27728, Note_on_c, 0, 60, 27
1, 27730, Note_on_c, 0, 65, 33
1, 27731, Control_c, 0, 64, 127
1, 27739, Note_on_c, 0, 60, 0
1, 27743, Note_on_c, 0, 65, 0
1, 27749, Note_on_c, 0, 63, 0
1, 27767, Note_on_c, 1, 41, 0
1, 27767, Note_on_c, 2, 41, 0
1, 27767, Note_on_c, 1, 36, 50
1, 27767, Note_on_c, 2, 36, 50
1, 27769, Note_on_c, 9, 35, 0
1, 27779, Note_on_c, 1, 36, 0
1, 27779, Note_on_c, 2, 36, 0
1, 27797, Note_on_c, 1, 35, 58
1, 27797, Note_on_c, 2, 35, 58
1, 27800, Note_on_c, 9, 28, 0
1, 27800, Note_on_c, 9, 28, 69
1, 27816, Note_on_c, 2, 35, 0
1, 27816, Note_on_c, 1, 35, 0
1, 27839, Note_on_c, 1, 34, 75
1, 27839, Note_on_c, 2, 34, 75
1, 27840, Note_on_c, 9, 46, 0
1, 27840, Note_on_c, 9, 28, 0
1, 27840, Note_on_c, 9, 28, 67
1, 27880, Note_on_c, 9, 27, 46
1, 27909, Note_on_c, 9, 27, 75
1, 27920, Note_on_c, 9, 27, 0
1, 27920, Note_on_c, 9, 27, 45
1, 27921, Note_on_c, 0, 66, 74
1, 27921, Note_on_c, 0, 62, 68
1, 27922, Note_on_c, 0, 78, 84
1, 27923, Note_on_c, 0, 56, 74
1, 27923, Note_on_c, 0, 90, 82
1, 27923, Note_on_c, 0, 82, 80
1, 27925, Control_c, 0, 64, 0
1, 27925, Note_on_c, 0, 85, 74
1, 27936, Note_on_c, 9, 27, 0
1, 27950, Note_on_c, 9, 35, 75
1, 27951, Note_on_c, 9, 46, 66
1, 27954, Note_on_c, 0, 66, 0
1, 27955, Note_on_c, 0, 82, 0
1, 27955, Note_on_c, 0, 78, 0
1, 27956, Note_on_c, 0, 56, 0
1, 27960, Note_on_c, 0, 90, 0
1, 27960, Note_on_c, 9, 27, 0
1, 27960, Note_on_c, 9, 28, 0
1, 27960, Note_on_c, 0, 85, 0
1, 27960, Control_c, 0, 64, 127
1, 27960, Note_on_c, 9, 44, 96
1, 27960, Note_on_c, 9, 28, 44
1, 27966, Note_on_c, 1, 46, 84
1, 27966, Note_on_c, 2, 46, 84
1, 27970, Note_on_c, 0, 62, 0
1, 27978, Note_on_c, 0, 90, 60
1, 27978, Note_on_c, 0, 62, 31
1, 27979, Note_on_c, 0, 78, 57
1, 27980, Note_on_c, 0, 66, 62
1, 27980, Note_on_c, 0, 85, 47
1, 27980, Note_on_c, 0, 56, 59
1, 27980, Note_on_c, 0, 82, 68
1, 27990, Note_on_c, 9, 35, 0
1, 27992, Note_on_c, 9, 46, 0
1, 28007, Note_on_c, 0, 82, 0
1, 28009, Note_on_c, 0, 78, 0
1, 28009, Note_on_c, 0, 62, 0
1, 28009, Note_on_c, 0, 85, 0
1, 28011, Note_on_c, 0, 90, 0
1, 28013, Note_on_c, 0, 66, 0
1, 28017, Note_on_c, 0, 56, 0
1, 28040, Note_on_c, 9, 27, 60
1, 28040, Note_on_c, 9, 27, 30
1, 28045, Control_c, 0, 64, 0
1, 28048, Note_on_c, 0, 89, 75
1, 28048, Note_on_c, 0, 77, 79
1, 28048, Note_on_c, 0, 61, 60
1, 28048, Note_on_c, 0, 65, 79
1, 28049, Note_on_c, 0, 60, 64
1, 28049, Note_on_c, 0, 81, 77
1, 28050, Note_on_c, 0, 84, 68
1, 28051, Note_on_c, 0, 55, 69
1, 28056, Note_on_c, 0, 84, 0
1, 28056, Note_on_c, 0, 58, 34
1, 28065, Note_on_c, 0, 58, 0
1, 28065, Note_on_c, 2, 46, 0
1, 28065, Note_on_c, 1, 46, 0
1, 28065, Note_on_c, 0, 84, 22
1, 28080, Note_on_c, 9, 27, 0
1, 28080, Note_on_c, 9, 28, 0
1, 28080, Note_on_c, 9, 44, 0
1, 28080, Note_on_c, 9, 27, 0
1, 28080, Note_on_c, 9, 28, 58
1, 28086, Note_on_c, 1, 45, 69
1, 28086, Note_on_c, 2, 45, 69
1, 28087, Note_on_c, 0, 81, 0
1, 28087, Note_on_c, 0, 55, 0
1, 28088, Note_on_c, 0, 77, 0
1, 28089, Note_on_c, 0, 84, 0
1, 28090, Note_on_c, 0, 65, 0
1, 28093, Note_on_c, 0, 61, 0
1, 28094, Note_on_c, 0, 89, 0
1, 28094, Note_on_c, 0, 60, 0
1, 28096, Note_on_c, 1, 34, 0
1, 28096, Note_on_c, 2, 34, 0
1, 28107, Note_on_c, 0, 89, 71
1, 28108, Note_on_c, 0, 61, 56
1, 28109, Note_on_c, 0, 65, 69
1, 28109, Note_on_c, 0, 60, 71
1, 28109, Note_on_c, 0, 81, 66
1, 28110, Note_on_c, 0, 84, 59
1, 28112, Note_on_c, 0, 77, 46
1, 28112, Note_on_c, 0, 55, 62
1, 28155, Note_on_c, 0, 55, 0
1, 28156, Note_on_c, 0, 81, 0
1, 28158, Note_on_c, 0, 77, 0
1, 28159, Note_on_c, 0, 84, 0
1, 28160, Note_on_c, 9, 28, 0
1, 28160, Note_on_c, 0, 89, 0
1, 28161, Note_on_c, 0, 61, 0
1, 28161, Note_on_c, 0, 65, 0
1, 28163, Note_on_c, 0, 60, 0
1, 28200, Note_on_c, 9, 44, 94
1, 28200, Note_on_c, 9, 28, 69
1, 28202, Note_on_c, 0, 60, 51
1, 28205, Note_on_c, 0, 89, 68
1, 28206, Note_on_c, 0, 84, 64
1, 28206, Note_on_c, 0, 65, 60
1, 28207, Note_on_c, 0, 81, 57
1, 28208, Note_on_c, 0, 77, 40
1, 28209, Note_on_c, 0, 55, 51
1, 28209, Note_on_c, 0, 61, 43
1, 28215, Control_c, 0, 64, 127
1, 28242, Note_on_c, 0, 81, 0
1, 28246, Note_on_c, 0, 84, 0
1, 28248, Note_on_c, 0, 60, 0
1, 28249, Note_on_c, 0, 89, 0
1, 28252, Note_on_c, 0, 77, 0
1, 28252, Note_on_c, 0, 61, 0
1, 28255, Note_on_c, 0, 55, 0
1, 28256, Note_on_c, 0, 65, 0
1, 28280, Note_on_c, 9, 28, 0
1, 28280, Note_on_c, 9, 27, 47
1, 28288, Note_on_c, 0, 82, 73
1, 28289, Note_on_c, 0, 77, 79
1, 28289, Note_on_c, 0, 89, 74
1, 28290, Note_on_c, 0, 86, 71
1, 28293, Note_on_c, 0, 65, 75
1, 28293, Note_on_c, 0, 58, 67
1, 28293, Note_on_c, 0, 60, 71
1, 28296, Note_on_c, 0, 54, 70
1, 28297, Control_c, 0, 64, 0
1, 28320, Note_on_c, 9, 27, 0
1, 28320, Note_on_c, 9, 44, 0
1, 28320, Note_on_c, 9, 28, 59
1, 28324, Note_on_c, 2, 45, 0
1, 28324, Note_on_c, 1, 45, 0
1, 28327, Note_on_c, 1, 32, 65
1, 28327, Note_on_c, 2, 32, 65
1, 28335, Note_on_c, 0, 77, 0
1, 28336, Note_on_c, 0, 82, 0
1, 28338, Note_on_c, 0, 54, 0
1, 28340, Note_on_c, 0, 65, 0
1, 28340, Note_on_c, 0, 89, 0
1, 28342, Note_on_c, 0, 86, 0
1, 28342, Note_on_c, 0, 60, 0
1, 28343, Note_on_c, 0, 58, 0
1, 28357, Note_on_c, 0, 89, 60
1, 28358, Note_on_c, 0, 54, 54
1, 28359, Note_on_c, 0, 86, 48
1, 28359, Note_on_c, 0, 58, 50
1, 28359, Note_on_c, 0, 65, 49
1, 28360, Note_on_c, 0, 82, 49
1, 28360, Note_on_c, 0, 60, 54
1, 28362, Note_on_c, 0, 77, 42
1, 28371, Control_c, 0, 64, 127
1, 28400, Note_on_c, 9, 28, 0
1, 28400, Note_on_c, 9, 27, 63
1, 28407, Note_on_c, 9, 27, 62
1, 28416, Note_on_c, 0, 82, 0
1, 28416, Note_on_c, 0, 65, 0
1, 28417, Note_on_c, 0, 77, 0
1, 28419, Note_on_c, 0, 54, 0
1, 28419, Note_on_c, 0, 86, 0
1, 28420, Note_on_c, 0, 60, 0
1, 28420, Note_on_c, 0, 89, 0
1, 28420, Note_on_c, 0, 58, 0
1, 28437, Note_on_c, 9, 27, 0
1, 28440, Note_on_c, 9, 27, 0
1, 28440, Note_on_c, 9, 44, 95
1, 28440, Note_on_c, 9, 28, 65
1, 28449, Note_on_c, 0, 82, 52
1, 28450, Note_on_c, 0, 65, 44
1, 28451, Note_on_c, 0, 77, 46
1, 28451, Note_on_c, 0, 58, 35
1, 28452, Note_on_c, 0, 89, 51
1, 28452, Note_on_c, 0, 54, 45
1, 28452, Note_on_c, 0, 60, 39
1, 28452, Note_on_c, 9, 35, 50
1, 28453, Note_on_c, 0, 86, 37
1, 28464, Note_on_c, 9, 35, 0
1, 28474, Note_on_c, 0, 86, 0
1, 28484, Note_on_c, 0, 60, 0
1, 28492, Note_on_c, 0, 65, 0
1, 28496, Note_on_c, 0, 82, 0
1, 28500, Note_on_c, 0, 77, 0
1, 28502, Note_on_c, 0, 58, 0
1, 28508, Note_on_c, 0, 89, 0
1, 28509, Note_on_c, 0, 54, 0
1, 28523, Note_on_c, 9, 46, 86
1, 28527, Note_on_c, 0, 85, 53
1, 28528, Note_on_c, 0, 77, 38
1, 28529, Note_on_c, 9, 35, 84
1, 28530, Note_on_c, 0, 64, 51
1, 28530, Note_on_c, 0, 59, 59
1, 28530, Note_on_c, 0, 83, 54
1, 28533, Note_on_c, 0, 53, 48
1, 28534, Control_c, 0, 64, 0
1, 28556, Note_on_c, 9, 46, 0
1, 28559, Note_on_c, 1, 43, 44
1, 28559, Note_on_c, 2, 43, 44
1, 28560, Note_on_c, 9, 44, 0
1, 28560, Note_on_c, 2, 32, 0
1, 28560, Note_on_c, 1, 32, 0
1, 28560, Note_on_c, 9, 28, 0
1, 28560, Note_on_c, 9, 28, 63
1, 28563, Note_on_c, 9, 35, 0
1, 28566, Control_c, 0, 64, 127
1, 28600, Note_on_c, 9, 27, 33
1, 28605, Note_on_c, 1, 43, 0
1, 28605, Note_on_c, 2, 43, 0
1, 28610, Note_on_c, 0, 53, 0
1, 28611, Note_on_c, 9, 46, 77
1, 28612, Note_on_c, 0, 64, 0
1, 28612, Note_on_c, 9, 35, 77
1, 28625, Note_on_c, 0, 59, 0
1, 28634, Note_on_c, 0, 77, 0
1, 28639, Note_on_c, 1, 38, 40
1, 28639, Note_on_c, 2, 38, 40
1, 28640, Note_on_c, 9, 27, 0
1, 28640, Note_on_c, 9, 28, 0
1, 28640, Note_on_c, 9, 46, 0
1, 28640, Note_on_c, 0, 83, 0
1, 28640, Note_on_c, 9, 28, 32
1, 28645, Note_on_c, 9, 35, 0
1, 28647, Note_on_c, 0, 63, 79
1, 28647, Note_on_c, 0, 59, 64
1, 28648, Note_on_c, 0, 56, 60
1, 28649, Note_on_c, 1, 38, 0
1, 28649, Note_on_c, 2, 38, 0
1, 28649, Note_on_c, 0, 85, 0
1, 28649, Note_on_c, 0, 53, 71
1, 28664, Control_c, 0, 64, 0
1, 28675, Note_on_c, 1, 35, 55
1, 28675, Note_on_c, 2, 35, 55
1, 28680, Note_on_c, 9, 28, 0
1, 28680, Note_on_c, 9, 46, 90
1, 28680, Note_on_c, 9, 28, 70
1, 28690, Control_c, 0, 64, 127
1, 28698, Note_on_c, 9, 46, 85
1, 28700, Note_on_c, 9, 35, 75
1, 28720, Note_on_c, 9, 28, 0
1, 28720, Note_on_c, 9, 27, 17
1, 28730, Note_on_c, 9, 46, 0
1, 28730, Note_on_c, 0, 59, 0
1, 28731, Note_on_c, 9, 35, 0
1, 28744, Note_on_c, 0, 53, 0
1, 28757, Note_on_c, 0, 63, 0
1, 28760, Note_on_c, 9, 27, 0
1, 28760, Note_on_c, 9, 28, 73
1, 28766, Note_on_c, 0, 56, 0
1, 28777, Note_on_c, 9, 35, 92
1, 28796, Note_on_c, 2, 35, 0
1, 28796, Note_on_c, 1, 35, 0
1, 28800, Note_on_c, 9, 46, 0
1, 28800, Note_on_c, 9, 28, 0
1, 28800, Note_on_c, 9, 28, 67
1, 28802, Note_on_c, 0, 62, 41
1, 28805, Note_on_c, 0, 75, 55
1, 28805, Note_on_c, 1, 36, 51
1, 28805, Note_on_c, 2, 36, 51
1, 28807, Control_c, 0, 64, 0
1, 28807, Note_on_c, 0, 67, 52
1, 28808, Note_on_c, 0, 57, 41
1, 28808, Note_on_c, 0, 51, 23
1, 28809, Note_on_c, 0, 63, 38
1, 28816, Note_on_c, 0, 55, 26
1, 28822, Note_on_c, 9, 35, 0
1, 28839, Note_on_c, 0, 63, 0
1, 28846, Note_on_c, 0, 67, 0
1, 28847, Control_c, 0, 64, 127
1, 28864, Note_on_c, 0, 75, 0
1, 28920, Note_on_c, 9, 28, 0
1, 28920, Note_on_c, 9, 44, 89
1, 28920, Note_on_c, 9, 28, 70
1, 28935, Note_on_c, 0, 75, 78
1, 28939, Note_on_c, 0, 55, 0
1, 28941, Note_on_c, 0, 57, 0
1, 28950, Note_on_c, 0, 51, 0
1, 28956, Note_on_c, 0, 75, 0
1, 28959, Note_on_c, 0, 62, 0
1, 28960, Note_on_c, 0, 77, 62
1, 28961, Control_c, 0, 64, 0
1, 28984, Note_on_c, 0, 75, 47
1, 28995, Note_on_c, 0, 77, 0
1, 29000, Note_on_c, 9, 28, 0
1, 29005, Control_c, 0, 64, 127
1, 29015, Note_on_c, 0, 75, 0
1, 29015, Note_on_c, 0, 74, 66
1, 29038, Note_on_c, 0, 74, 0
1, 29040, Note_on_c, 9, 44, 0
1, 29040, Note_on_c, 1, 45, 66
1, 29040, Note_on_c, 2, 45, 66
1, 29040, Note_on_c, 9, 28, 62
1, 29045, Note_on_c, 2, 36, 0
1, 29045, Note_on_c, 1, 36, 0
1, 29045, Control_c, 0, 64, 0
1, 29057, Note_on_c, 0, 75, 67
1, 29076, Note_on_c, 0, 75, 0
1, 29080, Note_on_c, 0, 77, 57
1, 29105, Note_on_c, 0, 75, 38
1, 29110, Control_c, 0, 64, 127
1, 29112, Note_on_c, 0, 77, 0
1, 29120, Note_on_c, 9, 28, 0
1, 29120, Note_on_c, 9, 27, 50
1, 29123, Note_on_c, 9, 35, 96
1, 29126, Note_on_c, 0, 65, 57
1, 29127, Note_on_c, 0, 61, 49
1, 29127, Note_on_c, 0, 55, 52
1, 29127, Note_on_c, 0, 60, 49
1, 29134, Control_c, 0, 64, 0
1, 29136, Note_on_c, 0, 75, 0
1, 29136, Note_on_c, 0, 74, 58
1, 29159, Note_on_c, 0, 74, 0
1, 29160, Note_on_c, 9, 27, 0
1, 29160, Note_on_c, 9, 44, 98
1, 29160, Note_on_c, 9, 28, 74
1, 29161, Note_on_c, 9, 35, 0
1, 29176, Note_on_c, 0, 75, 69
1, 29188, Note_on_c, 0, 60, 0
1, 29192, Note_on_c, 0, 65, 0
1, 29194, Note_on_c, 0, 75, 0
1, 29199, Note_on_c, 0, 55, 0
1, 29199, Note_on_c, 0, 61, 0
1, 29202, Note_on_c, 0, 77, 54
1, 29224, Control_c, 0, 64, 127
1, 29226, Note_on_c, 0, 75, 39
1, 29232, Note_on_c, 0, 77, 0
1, 29240, Note_on_c, 9, 28, 0
1, 29255, Note_on_c, 0, 74, 54
1, 29260, Note_on_c, 0, 75, 0
1, 29265, Note_on_c, 0, 74, 0
1, 29270, Control_c, 0, 64, 0
1, 29277, Note_on_c, 0, 60, 40
1, 29277, Note_on_c, 0, 56, 25
1, 29278, Note_on_c, 0, 50, 25
1, 29279, Note_on_c, 1, 38, 61
1, 29279, Note_on_c, 2, 38, 61
1, 29280, Note_on_c, 9, 44, 0
1, 29280, Note_on_c, 9, 28, 73
1, 29281, Note_on_c, 2, 45, 0
1, 29281, Note_on_c, 1, 45, 0
1, 29291, Note_on_c, 0, 79, 67
1, 29301, Note_on_c, 0, 50, 0
1, 29304, Control_c, 0, 64, 127
1, 29306, Note_on_c, 0, 56, 0
1, 29310, Note_on_c, 0, 60, 0
1, 29360, Note_on_c, 9, 28, 0
1, 29362, Note_on_c, 0, 79, 0
1, 29365, Note_on_c, 0, 67, 45
1, 29368, Note_on_c, 0, 65, 42
1, 29369, Note_on_c, 0, 54, 34
1, 29369, Note_on_c, 0, 60, 34
1, 29378, Control_c, 0, 64, 0
1, 29400, Note_on_c, 9, 44, 95
1, 29400, Note_on_c, 9, 28, 62
1, 29405, Note_on_c, 2, 38, 0
1, 29405, Note_on_c, 1, 38, 0
1, 29406, Note_on_c, 1, 44, 75
1, 29406, Note_on_c, 2, 44, 75
1, 29407, Control_c, 0, 64, 127
1, 29468, Note_on_c, 0, 60, 0
1, 29477, Note_on_c, 0, 65, 0
1, 29480, Note_on_c, 9, 28, 0
1, 29480, Note_on_c, 9, 27, 55
1, 29491, Note_on_c, 0, 67, 0
1, 29494, Note_on_c, 0, 54, 0
1, 29520, Note_on_c, 9, 44, 0
1, 29520, Note_on_c, 9, 27, 0
1, 29520, Note_on_c, 9, 28, 75
1, 29524, Note_on_c, 0, 64, 47
1, 29525, Note_on_c, 0, 53, 47
1, 29526, Note_on_c, 0, 71, 76
1, 29528, Note_on_c, 0, 59, 40
1, 29528, Control_c, 0, 64, 0
1, 29550, Note_on_c, 0, 71, 0
1, 29566, Note_on_c, 0, 73, 67
1, 29571, Control_c, 0, 64, 127
1, 29600, Note_on_c, 9, 28, 0
1, 29602, Note_on_c, 1, 38, 33
1, 29602, Note_on_c, 2, 38, 33
1, 29607, Note_on_c, 1, 44, 0
1, 29607, Note_on_c, 2, 44, 0
1, 29610, Note_on_c, 0, 64, 0
1, 29616, Note_on_c, 0, 53, 0
1, 29626, Note_on_c, 2, 38, 0
1, 29626, Note_on_c, 1, 38, 0
1, 29633, Note_on_c, 0, 73, 0
1, 29634, Note_on_c, 1, 43, 51
1, 29634, Note_on_c, 2, 43, 51
1, 29637, Note_on_c, 0, 59, 0
1, 29640, Note_on_c, 9, 44, 100
1, 29640, Note_on_c, 9, 28, 56
1, 29640, Note_on_c, 9, 27, 63
1, 29643, Control_c, 0, 64, 0
1, 29648, Note_on_c, 0, 59, 22
1, 29651, Note_on_c, 0, 63, 31
1, 29652, Note_on_c, 0, 74, 60
1, 29656, Note_on_c, 0, 53, 22
1, 29656, Note_on_c, 9, 46, 47
1, 29660, Note_on_c, 2, 43, 0
1, 29660, Note_on_c, 1, 43, 0
1, 29660, Note_on_c, 0, 56, 23
1, 29667, Note_on_c, 0, 74, 0
1, 29667, Note_on_c, 9, 46, 0
1, 29674, Note_on_c, 1, 38, 55
1, 29674, Note_on_c, 2, 38, 55
1, 29680, Note_on_c, 9, 27, 0
1, 29680, Note_on_c, 9, 28, 0
1, 29685, Control_c, 0, 64, 127
1, 29690, Note_on_c, 0, 77, 68
1, 29692, Note_on_c, 0, 59, 0
1, 29704, Note_on_c, 0, 53, 0
1, 29705, Note_on_c, 0, 63, 0
1, 29712, Note_on_c, 0, 56, 0
1, 29720, Note_on_c, 9, 28, 67
1, 29725, Note_on_c, 9, 34, 53
1, 29745, Note_on_c, 9, 34, 0
1, 29746, Note_on_c, 0, 77, 0
1, 29755, Note_on_c, 2, 38, 0
1, 29755, Note_on_c, 1, 38, 0
1, 29760, Note_on_c, 9, 44, 0
1, 29760, Note_on_c, 9, 28, 0
1, 29760, Note_on_c, 0, 55, 34
1, 29760, Note_on_c, 1, 36, 68
1, 29760, Note_on_c, 2, 36, 68
1, 29760, Note_on_c, 9, 28, 65
1, 29761, Note_on_c, 9, 35, 65
1, 29761, Note_on_c, 9, 57, 73
1, 29762, Control_c, 0, 64, 0
1, 29763, Note_on_c, 0, 58, 30
1, 29764, Note_on_c, 0, 75, 51
1, 29772, Note_on_c, 9, 57, 0
1, 29778, Note_on_c, 9, 35, 0
1, 29806, Control_c, 0, 64, 127
1, 29843, Note_on_c, 0, 63, 40
1, 29876, Note_on_c, 0, 55, 0
1, 29880, Note_on_c, 9, 28, 0
1, 29880, Note_on_c, 9, 44, 102
1, 29880, Note_on_c, 9, 28, 56
1, 29882, Note_on_c, 0, 63, 0
1, 29897, Note_on_c, 0, 75, 0
1, 29899, Note_on_c, 0, 58, 0
1, 29920, Note_on_c, 9, 28, 0
1, 29920, Note_on_c, 9, 27, 35
1, 29959, Note_on_c, 0, 75, 78
1, 29960, Note_on_c, 9, 27, 0
1, 29960, Note_on_c, 9, 28, 61
1, 29984, Note_on_c, 0, 75, 0
1, 29991, Note_on_c, 2, 36, 0
1, 29991, Note_on_c, 1, 36, 0
1, 29998, Note_on_c, 1, 34, 56
1, 29998, Note_on_c, 2, 34, 56
1, 30000, Note_on_c, 9, 44, 0
1, 30000, Note_on_c, 9, 28, 0
1, 30000, Note_on_c, 9, 28, 31
1, 30001, Note_on_c, 0, 75, 71
1, 30006, Note_on_c, 0, 72, 72
1, 30007, Note_on_c, 0, 68, 60
1, 30008, Control_c, 0, 64, 0
1, 30009, Note_on_c, 0, 60, 40
1, 30010, Note_on_c, 0, 61, 52
1, 30012, Note_on_c, 0, 65, 61
1, 30056, Control_c, 0, 64, 127
1, 30120, Note_on_c, 9, 28, 0
1, 30120, Note_on_c, 9, 44, 105
1, 30120, Note_on_c, 9, 28, 64
1, 30167, Note_on_c, 0, 65, 0
1, 30167, Note_on_c, 0, 60, 0
1, 30176, Note_on_c, 0, 61, 0
1, 30225, Note_on_c, 0, 72, 0
1, 30227, Note_on_c, 0, 68, 0
1, 30240, Note_on_c, 1, 34, 0
1, 30240, Note_on_c, 9, 28, 0
1, 30240, Note_on_c, 9, 44, 0
1, 30240, Note_on_c, 2, 34, 0
1, 30240, Note_on_c, 1, 33, 57
1, 30240, Note_on_c, 2, 33, 57
1, 30240, Note_on_c, 9, 28, 67
1, 30298, Note_on_c, 0, 75, 0
1, 30319, Note_on_c, 9, 27, 65
1, 30323, Note_on_c, 0, 61, 36
1, 30323, Note_on_c, 0, 60, 37
1, 30323, Note_on_c, 0, 65, 52
1, 30325, Note_on_c, 0, 55, 43
1, 30332, Control_c, 0, 64, 0
1, 30345, Note_on_c, 9, 27, 0
1, 30360, Note_on_c, 1, 33, 0
1, 30360, Note_on_c, 9, 28, 0
1, 30360, Note_on_c, 2, 33, 0
1, 30360, Note_on_c, 9, 44, 101
1, 30360, Note_on_c, 9, 28, 54
1, 30362, Note_on_c, 1, 45, 73
1, 30362, Note_on_c, 2, 45, 73
1, 30375, Note_on_c, 9, 35, 28
1, 30385, Control_c, 0, 64, 127
1, 30400, Note_on_c, 9, 35, 0
1, 30426, Note_on_c, 0, 69, 62
1, 30436, Note_on_c, 0, 69, 0
1, 30440, Note_on_c, 9, 28, 0
1, 30440, Note_on_c, 0, 65, 0
1, 30440, Note_on_c, 0, 60, 0
1, 30440, Note_on_c, 9, 27, 54
1, 30446, Note_on_c, 0, 55, 0
1, 30449, Note_on_c, 0, 61, 0
1, 30454, Note_on_c, 0, 70, 64
1, 30473, Note_on_c, 0, 70, 0
1, 30480, Note_on_c, 9, 44, 0
1, 30480, Note_on_c, 9, 27, 0
1, 30480, Note_on_c, 9, 28, 67
1, 30482, Note_on_c, 2, 45, 0
1, 30482, Note_on_c, 1, 45, 0
1, 30482, Note_on_c, 1, 44, 71
1, 30482, Note_on_c, 2, 44, 71
1, 30485, Control_c, 0, 64, 0
1, 30488, Note_on_c, 0, 65, 54
1, 30488, Note_on_c, 0, 60, 43
1, 30490, Note_on_c, 0, 58, 35
1, 30491, Note_on_c, 0, 54, 39
1, 30495, Note_on_c, 0, 71, 41
1, 30498, Note_on_c, 0, 72, 34
1, 30503, Control_c, 0, 64, 127
1, 30516, Note_on_c, 0, 71, 0
1, 30520, Note_on_c, 0, 72, 0
1, 30528, Note_on_c, 0, 58, 0
1, 30528, Note_on_c, 0, 65, 0
1, 30529, Note_on_c, 0, 60, 0
1, 30531, Note_on_c, 0, 54, 0
1, 30555, Note_on_c, 9, 27, 94
1, 30581, Note_on_c, 0, 77, 56
1, 30582, Note_on_c, 0, 65, 67
1, 30582, Note_on_c, 0, 58, 53
1, 30582, Note_on_c, 0, 54, 59
1, 30585, Note_on_c, 0, 60, 58
1, 30585, Note_on_c, 0, 79, 57
1, 30590, Note_on_c, 0, 79, 0
1, 30591, Note_on_c, 9, 27, 0
1, 30598, Control_c, 0, 64, 0
1, 30600, Note_on_c, 9, 28, 0
1, 30600, Note_on_c, 9, 44, 100
1, 30600, Note_on_c, 9, 28, 63
1, 30607, Note_on_c, 9, 35, 43
1, 30622, Note_on_c, 0, 65, 0
1, 30625, Note_on_c, 0, 58, 0
1, 30627, Note_on_c, 0, 77, 0
1, 30628, Note_on_c, 0, 60, 0
1, 30628, Note_on_c, 0, 54, 0
1, 30636, Control_c, 0, 64, 127
1, 30641, Note_on_c, 9, 35, 0
1, 30651, Note_on_c, 0, 82, 73
1, 30678, Note_on_c, 0, 82, 0
1, 30680, Note_on_c, 1, 42, 46
1, 30680, Note_on_c, 2, 42, 46
1, 30683, Note_on_c, 1, 44, 0
1, 30683, Note_on_c, 2, 44, 0
1, 30683, Note_on_c, 0, 86, 76
1, 30684, Note_on_c, 0, 54, 40
1, 30689, Note_on_c, 0, 58, 12
1, 30705, Note_on_c, 1, 42, 0
1, 30705, Note_on_c, 2, 42, 0
1, 30710, Note_on_c, 0, 58, 0
1, 30712, Note_on_c, 0, 86, 0
1, 30714, Note_on_c, 0, 54, 0
1, 30719, Note_on_c, 1, 43, 49
1, 30719, Note_on_c, 2, 43, 49
1, 30720, Note_on_c, 9, 28, 0
1, 30720, Note_on_c, 9, 44, 0
1, 30720, Note_on_c, 9, 28, 62
1, 30728, Control_c, 0, 64, 0
1, 30728, Note_on_c, 0, 62, 50
1, 30729, Note_on_c, 0, 82, 69
1, 30735, Note_on_c, 0, 57, 32
1, 30736, Note_on_c, 0, 55, 39
1, 30737, Note_on_c, 0, 58, 18
1, 30778, Control_c, 0, 64, 127
1, 30783, Note_on_c, 0, 62, 0
1, 30791, Note_on_c, 0, 57, 0
1, 30800, Note_on_c, 9, 28, 0
1, 30802, Note_on_c, 0, 62, 48
1, 30804, Note_on_c, 0, 57, 20
1, 30804, Note_on_c, 0, 74, 57
1, 30839, Note_on_c, 0, 82, 0
1, 30840, Note_on_c, 0, 74, 0
1, 30840, Note_on_c, 9, 44, 102
1, 30840, Note_on_c, 9, 28, 56
1, 30890, Note_on_c, 0, 57, 0
1, 30891, Note_on_c, 0, 55, 0
1, 30897, Note_on_c, 0, 62, 0
1, 30907, Note_on_c, 0, 58, 0
1, 30920, Note_on_c, 9, 28, 0
1, 30924, Note_on_c, 0, 82, 63
1, 30926, Note_on_c, 0, 70, 60
1, 30933, Note_on_c, 0, 82, 0
1, 30937, Note_on_c, 0, 70, 0
1, 30956, Note_on_c, 2, 43, 0
1, 30956, Note_on_c, 1, 43, 0
1, 30958, Control_c, 0, 64, 0
1, 30960, Note_on_c, 9, 44, 0
1, 30960, Note_on_c, 9, 28, 61
1, 30961, Note_on_c, 1, 40, 57
1, 30961, Note_on_c, 2, 40, 57
1, 30962, Note_on_c, 0, 82, 74
1, 30963, Note_on_c, 0, 70, 54
1, 30964, Note_on_c, 0, 58, 25
1, 30965, Note_on_c, 0, 62, 35
1, 30969, Note_on_c, 0, 52, 34
1, 30984, Note_on_c, 0, 70, 0
1, 30990, Note_on_c, 0, 82, 0
1, 31008, Note_on_c, 0, 81, 51
1, 31013, Note_on_c, 0, 58, 0
1, 31013, Note_on_c, 0, 62, 0
1, 31014, Control_c, 0, 64, 127
1, 31030, Note_on_c, 0, 81, 0
1, 31040, Note_on_c, 9, 28, 0
1, 31040, Note_on_c, 9, 27, 53
1, 31049, Note_on_c, 0, 82, 74
1, 31049, Note_on_c, 0, 58, 28
1, 31050, Note_on_c, 0, 62, 36
1, 31051, Control_c, 0, 64, 0
1, 31053, Note_on_c, 0, 70, 51
1, 31071, Note_on_c, 0, 82, 0
1, 31080, Note_on_c, 0, 70, 0
1, 31080, Note_on_c, 9, 27, 0
1, 31080, Note_on_c, 9, 44, 94
1, 31080, Note_on_c, 9, 28, 69
1, 31082, Note_on_c, 1, 33, 80
1, 31082, Note_on_c, 2, 33, 80
1, 31086, Note_on_c, 1, 40, 0
1, 31086, Note_on_c, 2, 40, 0
1, 31094, Note_on_c, 0, 58, 0
1, 31094, Note_on_c, 0, 62, 0
1, 31101, Control_c, 0, 64, 127
1, 31106, Note_on_c, 0, 81, 19
1, 31113, Control_c, 0, 64, 0
1, 31115, Note_on_c, 0, 81, 0
1, 31127, Control_c, 0, 64, 127
1, 31134, Note_on_c, 0, 82, 73
1, 31136, Note_on_c, 0, 52, 0
1, 31137, Note_on_c, 0, 70, 57
1, 31140, Note_on_c, 0, 62, 30
1, 31155, Note_on_c, 0, 70, 0
1, 31158, Note_on_c, 0, 62, 0
1, 31168, Note_on_c, 0, 82, 0
1, 31174, Note_on_c, 0, 83, 65
1, 31176, Note_on_c, 0, 71, 53
1, 31181, Note_on_c, 0, 82, 32
1, 31192, Note_on_c, 0, 82, 0
1, 31192, Note_on_c, 0, 71, 0
1, 31193, Note_on_c, 0, 83, 0
1, 31198, Note_on_c, 1, 39, 83
1, 31198, Note_on_c, 2, 39, 83
1, 31200, Note_on_c, 9, 28, 0
1, 31200, Note_on_c, 9, 44, 0
1, 31200, Note_on_c, 9, 28, 64
1, 31201, Note_on_c, 1, 33, 0
1, 31201, Note_on_c, 2, 33, 0
1, 31206, Control_c, 0, 64, 0
1, 31213, Note_on_c, 0, 65, 42
1, 31215, Note_on_c, 0, 60, 30
1, 31215, Note_on_c, 0, 72, 64
1, 31215, Note_on_c, 0, 84, 74
1, 31215, Note_on_c, 0, 61, 36
1, 31216, Note_on_c, 0, 55, 40
1, 31241, Note_on_c, 0, 84, 0
1, 31241, Note_on_c, 0, 72, 0
1, 31261, Note_on_c, 0, 83, 48
1, 31263, Note_on_c, 0, 61, 0
1, 31269, Note_on_c, 0, 65, 0
1, 31271, Note_on_c, 0, 60, 0
1, 31272, Note_on_c, 0, 83, 0
1, 31280, Control_c, 0, 64, 127
1, 31284, Note_on_c, 9, 27, 55
1, 31295, Note_on_c, 0, 84, 84
1, 31297, Note_on_c, 0, 72, 68
1, 31299, Control_c, 0, 64, 0
1, 31300, Note_on_c, 0, 60, 35
1, 31300, Note_on_c, 0, 65, 47
1, 31301, Note_on_c, 0, 61, 34
1, 31305, Note_on_c, 9, 27, 0
1, 31320, Note_on_c, 9, 28, 0
1, 31320, Note_on_c, 9, 44, 99
1, 31320, Note_on_c, 9, 28, 64
1, 31320, Note_on_c, 9, 46, 73
1, 31322, Note_on_c, 9, 35, 76
1, 31324, Note_on_c, 0, 84, 0
1, 31331, Note_on_c, 0, 72, 0
1, 31346, Note_on_c, 0, 82, 36
1, 31349, Control_c, 0, 64, 127
1, 31350, Note_on_c, 0, 55, 0
1, 31357, Note_on_c, 0, 60, 0
1, 31358, Note_on_c, 0, 65, 0
1, 31359, Note_on_c, 0, 82, 0
1, 31366, Note_on_c, 0, 61, 0
1, 31379, Note_on_c, 0, 84, 71
1, 31383, Note_on_c, 0, 72, 59
1, 31389, Note_on_c, 0, 55, 33
1, 31392, Note_on_c, 0, 72, 0
1, 31396, Note_on_c, 0, 84, 0
1, 31399, Note_on_c, 1, 39, 0
1, 31399, Note_on_c, 9, 46, 0
1, 31399, Note_on_c, 2, 39, 0
1, 31399, Note_on_c, 1, 37, 59
1, 31399, Note_on_c, 2, 37, 59
1, 31400, Note_on_c, 9, 27, 60
1, 31402, Note_on_c, 9, 35, 0
1, 31408, Note_on_c, 0, 55, 0
1, 31420, Note_on_c, 0, 73, 75
1, 31420, Note_on_c, 0, 85, 83
1, 31421, Note_on_c, 1, 37, 0
1, 31421, Note_on_c, 2, 37, 0
1, 31436, Note_on_c, 1, 38, 63
1, 31436, Note_on_c, 2, 38, 63
1, 31439, Control_c, 0, 64, 0
1, 31440, Note_on_c, 9, 28, 0
1, 31440, Note_on_c, 9, 44, 0
1, 31440, Note_on_c, 9, 27, 0
1, 31440, Note_on_c, 9, 28, 64
1, 31446, Note_on_c, 0, 58, 25
1, 31448, Note_on_c, 0, 73, 0
1, 31450, Note_on_c, 0, 85, 0
1, 31450, Note_on_c, 0, 65, 27
1, 31450, Note_on_c, 0, 54, 23
1, 31452, Note_on_c, 0, 60, 32
1, 31464, Note_on_c, 0, 74, 68
1, 31464, Note_on_c, 0, 86, 73
1, 31479, Note_on_c, 1, 38, 0
1, 31479, Note_on_c, 2, 38, 0
1, 31485, Note_on_c, 0, 65, 0
1, 31489, Note_on_c, 0, 60, 0
1, 31493, Note_on_c, 0, 86, 0
1, 31493, Note_on_c, 0, 74, 0
1, 31497, Control_c, 0, 64, 127
1, 31508, Note_on_c, 0, 82, 28
1, 31520, Note_on_c, 0, 82, 0
1, 31520, Note_on_c, 9, 27, 49
1, 31523, Note_on_c, 9, 27, 75
1, 31535, Note_on_c, 0, 86, 80
1, 31536, Note_on_c, 0, 60, 49
1, 31536, Note_on_c, 0, 74, 76
1, 31537, Note_on_c, 0, 65, 53
1, 31537, Control_c, 0, 64, 0
1, 31548, Note_on_c, 9, 27, 0
1, 31559, Note_on_c, 1, 44, 56
1, 31559, Note_on_c, 2, 44, 56
1, 31560, Note_on_c, 9, 27, 0
1, 31560, Note_on_c, 9, 28, 0
1, 31560, Note_on_c, 9, 46, 91
1, 31560, Note_on_c, 9, 28, 60
1, 31564, Note_on_c, 9, 35, 83
1, 31564, Note_on_c, 9, 46, 90
1, 31570, Note_on_c, 0, 74, 0
1, 31570, Note_on_c, 0, 86, 0
1, 31572, Control_c, 0, 64, 127
1, 31579, Note_on_c, 0, 84, 49
1, 31580, Note_on_c, 0, 65, 0
1, 31592, Note_on_c, 0, 60, 0
1, 31593, Note_on_c, 0, 84, 0
1, 31598, Note_on_c, 0, 58, 0
1, 31598, Note_on_c, 0, 54, 0
1, 31618, Control_c, 0, 64, 0
1, 31620, Control_c, 0, 64, 127
1, 31629, Note_on_c, 0, 54, 30
1, 31638, Note_on_c, 2, 44, 0
1, 31638, Note_on_c, 1, 44, 0
1, 31639, Note_on_c, 9, 46, 0
1, 31643, Note_on_c, 9, 35, 0
1, 31643, Note_on_c, 1, 42, 37
1, 31643, Note_on_c, 2, 42, 37
1, 31656, Note_on_c, 0, 84, 88
1, 31660, Note_on_c, 0, 54, 0
1, 31668, Note_on_c, 2, 42, 0
1, 31668, Note_on_c, 1, 42, 0
1, 31680, Note_on_c, 9, 46, 0
1, 31680, Note_on_c, 9, 28, 0
1, 31680, Control_c, 0, 64, 0
1, 31680, Note_on_c, 1, 43, 52
1, 31680, Note_on_c, 2, 43, 52
1, 31680, Note_on_c, 9, 28, 79
1, 31684, Note_on_c, 0, 62, 43
1, 31688, Note_on_c, 0, 84, 0
1, 31690, Note_on_c, 0, 55, 29
1, 31691, Note_on_c, 0, 58, 18
1, 31700, Note_on_c, 0, 82, 55
1, 31715, Note_on_c, 0, 57, 2
1, 31729, Control_c, 0, 64, 127
1, 31753, Note_on_c, 0, 62, 0
1, 31760, Note_on_c, 9, 28, 0
1, 31760, Note_on_c, 0, 82, 0
1, 31762, Note_on_c, 1, 38, 57
1, 31762, Note_on_c, 2, 38, 57
1, 31768, Note_on_c, 2, 38, 0
1, 31768, Note_on_c, 1, 38, 0
1, 31771, Note_on_c, 0, 62, 51
1, 31772, Note_on_c, 0, 79, 45
1, 31780, Note_on_c, 0, 79, 0
1, 31800, Note_on_c, 9, 44, 93
1, 31800, Note_on_c, 9, 28, 64
1, 31801, Note_on_c, 1, 31, 72
1, 31801, Note_on_c, 2, 31, 72
1, 31811, Note_on_c, 0, 82, 63
1, 31813, Note_on_c, 0, 62, 0
1, 31816, Note_on_c, 0, 70, 49
1, 31820, Note_on_c, 0, 58, 0
1, 31835, Note_on_c, 0, 57, 0
1, 31837, Note_on_c, 0, 82, 0
1, 31843, Note_on_c, 0, 55, 0
1, 31845, Note_on_c, 0, 70, 0
1, 31880, Note_on_c, 9, 27, 61
1, 31887, Note_on_c, 0, 82, 75
1, 31888, Note_on_c, 9, 35, 80
1, 31895, Note_on_c, 0, 70, 53
1, 31903, Note_on_c, 0, 70, 0
1, 31908, Note_on_c, 0, 82, 0
1, 31915, Note_on_c, 9, 35, 0
1, 31920, Note_on_c, 9, 27, 0
1, 31920, Note_on_c, 9, 44, 0
1, 31920, Note_on_c, 9, 28, 0
1, 31920, Note_on_c, 9, 28, 69
1, 31927, Control_c, 0, 64, 0
1, 31930, Note_on_c, 0, 82, 67
1, 31932, Note_on_c, 0, 70, 47
1, 31933, Note_on_c, 0, 63, 36
1, 31933, Note_on_c, 0, 58, 38
1, 31934, Note_on_c, 0, 76, 58
1, 31939, Note_on_c, 0, 52, 24
1, 31949, Control_c, 0, 64, 127
1, 31976, Note_on_c, 0, 76, 0
1, 31977, Note_on_c, 0, 52, 0
1, 31980, Note_on_c, 0, 82, 0
1, 31980, Note_on_c, 0, 63, 0
1, 31986, Note_on_c, 0, 58, 0
1, 31986, Note_on_c, 0, 70, 0
1, 31989, Note_on_c, 1, 31, 0
1, 31989, Note_on_c, 2, 31, 0
1, 31998, Note_on_c, 1, 42, 70
1, 31998, Note_on_c, 2, 42, 70
1, 32006, Note_on_c, 0, 81, 53
1, 32008, Note_on_c, 1, 43, 0
1, 32008, Note_on_c, 2, 43, 0
1, 32008, Note_on_c, 0, 69, 57
1, 32008, Note_on_c, 0, 63, 35
1, 32010, Note_on_c, 0, 58, 25
1, 32011, Note_on_c, 0, 52, 30
1, 32015, Note_on_c, 0, 69, 0
1, 32015, Note_on_c, 0, 81, 0
1, 32018, Note_on_c, 0, 63, 0
1, 32022, Note_on_c, 0, 52, 0
1, 32022, Note_on_c, 1, 42, 0
1, 32022, Note_on_c, 2, 42, 0
1, 32025, Note_on_c, 0, 58, 0
1, 32035, Note_on_c, 1, 30, 67
1, 32035, Note_on_c, 2, 30, 67
1, 32040, Note_on_c, 9, 28, 0
1, 32040, Note_on_c, 9, 44, 93
1, 32040, Note_on_c, 9, 28, 63
1, 32046, Note_on_c, 0, 52, 41
1, 32046, Note_on_c, 0, 82, 67
1, 32046, Note_on_c, 0, 63, 38
1, 32046, Note_on_c, 0, 70, 57
1, 32048, Note_on_c, 0, 76, 38
1, 32048, Note_on_c, 0, 58, 46
1, 32056, Note_on_c, 0, 76, 0
1, 32064, Note_on_c, 0, 70, 0
1, 32070, Note_on_c, 0, 52, 0
1, 32072, Note_on_c, 0, 82, 0
1, 32080, Note_on_c, 9, 40, 37
1, 32081, Note_on_c, 0, 63, 0
1, 32083, Note_on_c, 0, 58, 0
1, 32115, Note_on_c, 0, 63, 52
1, 32117, Note_on_c, 0, 77, 64
1, 32118, Note_on_c, 0, 80, 46
1, 32118, Note_on_c, 0, 84, 69
1, 32120, Note_on_c, 9, 28, 0
1, 32120, Note_on_c, 9, 40, 0
1, 32120, Note_on_c, 0, 60, 51
1, 32120, Note_on_c, 0, 53, 38
1, 32120, Note_on_c, 0, 72, 58
1, 32120, Note_on_c, 9, 27, 42
1, 32120, Note_on_c, 9, 28, 38
1, 32122, Note_on_c, 0, 56, 36
1, 32124, Control_c, 0, 64, 0
1, 32126, Note_on_c, 9, 35, 96
1, 32131, Note_on_c, 0, 84, 0
1, 32137, Note_on_c, 0, 80, 0
1, 32138, Note_on_c, 0, 77, 0
1, 32140, Note_on_c, 0, 63, 0
1, 32140, Control_c, 0, 64, 127
1, 32142, Note_on_c, 0, 72, 0
1, 32149, Note_on_c, 0, 60, 0
1, 32149, Note_on_c, 9, 35, 0
1, 32159, Note_on_c, 0, 53, 0
1, 32159, Note_on_c, 0, 56, 0
1, 32160, Note_on_c, 9, 27, 0
1, 32160, Note_on_c, 9, 44, 0
1, 32160, Note_on_c, 9, 28, 0
1, 32160, Note_on_c, 9, 28, 67
1, 32161, Note_on_c, 1, 41, 82
1, 32161, Note_on_c, 2, 41, 82
1, 32168, Note_on_c, 9, 35, 66
1, 32183, Note_on_c, 1, 30, 0
1, 32183, Note_on_c, 2, 30, 0
1, 32196, Note_on_c, 9, 35, 0
1, 32213, Note_on_c, 0, 58, 48
1, 32222, Note_on_c, 0, 56, 65
1, 32224, Note_on_c, 0, 58, 0
1, 32234, Note_on_c, 1, 41, 0
1, 32234, Note_on_c, 2, 41, 0
1, 32238, Note_on_c, 1, 29, 61
1, 32238, Note_on_c, 2, 29, 61
1, 32240, Note_on_c, 9, 28, 0
1, 32241, Note_on_c, 0, 56, 0
1, 32246, Control_c, 0, 64, 0
1, 32247, Note_on_c, 0, 55, 62
1, 32254, Note_on_c, 0, 55, 0
1, 32264, Note_on_c, 0, 56, 43
1, 32279, Note_on_c, 0, 56, 0
1, 32279, Note_on_c, 0, 58, 44
1, 32280, Note_on_c, 9, 44, 93
1, 32280, Note_on_c, 9, 28, 65
1, 32286, Note_on_c, 0, 58, 0
1, 32298, Note_on_c, 0, 60, 63
1, 32318, Note_on_c, 0, 60, 0
1, 32319, Note_on_c, 0, 62, 58
1, 32320, Note_on_c, 9, 28, 0
1, 32320, Note_on_c, 9, 41, 30
1, 32320, Note_on_c, 9, 40, 31
1, 32337, Note_on_c, 0, 62, 0
1, 32340, Note_on_c, 0, 63, 64
1, 32353, Note_on_c, 0, 63, 0
1, 32360, Note_on_c, 9, 40, 0
1, 32360, Note_on_c, 9, 41, 0
1, 32360, Note_on_c, 9, 28, 63
1, 32365, Note_on_c, 0, 65, 67
1, 32365, Note_on_c, 9, 27, 51
1, 32376, Note_on_c, 0, 65, 0
1, 32388, Note_on_c, 0, 67, 40
1, 32394, Note_on_c, 9, 27, 0
1, 32395, Note_on_c, 1, 29, 0
1, 32395, Note_on_c, 2, 29, 0
1, 32397, Note_on_c, 0, 68, 62
1, 32398, Note_on_c, 1, 34, 69
1, 32398, Note_on_c, 2, 34, 69
1, 32400, Note_on_c, 9, 44, 0
1, 32400, Note_on_c, 9, 28, 0
1, 32400, Note_on_c, 9, 41, 56
1, 32402, Note_on_c, 0, 67, 0
1, 32403, Note_on_c, 9, 35, 67
1, 32409, Note_on_c, 9, 46, 43
1, 32411, Note_on_c, 0, 68, 0
1, 32424, Note_on_c, 0, 70, 72
1, 32425, Note_on_c, 9, 46, 0
1, 32437, Note_on_c, 9, 35, 0
1, 32438, Note_on_c, 0, 70, 0
1, 32440, Note_on_c, 9, 41, 0
1, 32440, Note_on_c, 9, 28, 51
1, 32450, Note_on_c, 0, 71, 67
1, 32460, Note_on_c, 0, 71, 0
1, 32479, Note_on_c, 0, 72, 74
1, 32480, Note_on_c, 9, 28, 0
1, 32480, Note_on_c, 9, 41, 64
1, 32490, Note_on_c, 0, 72, 0
1, 32508, Note_on_c, 0, 73, 71
1, 32520, Note_on_c, 9, 41, 0
1, 32520, Note_on_c, 9, 44, 99
1, 32520, Note_on_c, 9, 28, 46
1, 32526, Note_on_c, 0, 73, 0
1, 32534, Note_on_c, 0, 74, 79
1, 32542, Note_on_c, 0, 66, 43
1, 32544, Note_on_c, 0, 62, 35
1, 32548, Note_on_c, 0, 56, 29
1, 32549, Note_on_c, 0, 74, 0
1, 32560, Note_on_c, 9, 28, 0
1, 32560, Note_on_c, 9, 27, 49
1, 32564, Note_on_c, 0, 75, 55
1, 32567, Note_on_c, 1, 37, 49
1, 32567, Note_on_c, 2, 37, 49
1, 32577, Note_on_c, 1, 34, 0
1, 32577, Note_on_c, 2, 34, 0
1, 32583, Note_on_c, 2, 37, 0
1, 32583, Note_on_c, 1, 37, 0
1, 32588, Note_on_c, 0, 62, 0
1, 32590, Note_on_c, 0, 75, 0
1, 32595, Note_on_c, 0, 76, 57
1, 32596, Control_c, 0, 64, 127
1, 32600, Note_on_c, 9, 27, 0
1, 32600, Note_on_c, 9, 28, 67
1, 32601, Note_on_c, 0, 66, 0
1, 32602, Note_on_c, 1, 38, 56
1, 32602, Note_on_c, 2, 38, 56
1, 32612, Note_on_c, 0, 76, 0
1, 32617, Note_on_c, 1, 38, 0
1, 32617, Note_on_c, 2, 38, 0
1, 32620, Note_on_c, 0, 77, 73
1, 32629, Note_on_c, 0, 56, 0
1, 32636, Note_on_c, 9, 35, 74
1, 32639, Note_on_c, 1, 39, 60
1, 32639, Note_on_c, 2, 39, 60
1, 32640, Note_on_c, 9, 28, 0
1, 32640, Note_on_c, 9, 44, 0
1, 32640, Note_on_c, 9, 28, 70
1, 32640, Note_on_c, 9, 46, 51
1, 32646, Control_c, 0, 64, 0
1, 32647, Note_on_c, 0, 77, 0
1, 32647, Note_on_c, 0, 65, 37
1, 32649, Note_on_c, 0, 55, 35
1, 32650, Note_on_c, 0, 75, 59
1, 32653, Note_on_c, 0, 61, 38
1, 32666, Note_on_c, 9, 35, 0
1, 32666, Note_on_c, 9, 46, 0
1, 32678, Control_c, 0, 64, 127
1, 32736, Note_on_c, 0, 55, 0
1, 32737, Note_on_c, 0, 65, 0
1, 32739, Note_on_c, 0, 75, 0
1, 32742, Note_on_c, 0, 61, 0
1, 32760, Note_on_c, 9, 28, 0
1, 32760, Note_on_c, 9, 44, 93
1, 32760, Note_on_c, 9, 28, 67
1, 32839, Note_on_c, 0, 85, 81
1, 32839, Note_on_c, 0, 87, 80
1, 32840, Note_on_c, 0, 75, 88
1, 32840, Note_on_c, 9, 27, 52
1, 32840, Note_on_c, 9, 35, 95
1, 32842, Note_on_c, 0, 61, 81
1, 32842, Note_on_c, 0, 60, 80
1, 32844, Note_on_c, 0, 65, 83
1, 32869, Note_on_c, 9, 35, 0
1, 32871, Note_on_c, 0, 75, 0
1, 32873, Note_on_c, 0, 85, 0
1, 32879, Note_on_c, 1, 39, 0
1, 32879, Note_on_c, 2, 39, 0
1, 32880, Note_on_c, 9, 28, 0
1, 32880, Note_on_c, 0, 87, 0
1, 32880, Note_on_c, 9, 27, 0
1, 32880, Note_on_c, 9, 44, 0
1, 32880, Note_on_c, 0, 65, 0
1, 32880, Note_on_c, 9, 28, 73
1, 32881, Note_on_c, 1, 51, 84
1, 32881, Note_on_c, 2, 51, 84
1, 32884, Note_on_c, 0, 60, 0
1, 32884, Note_on_c, 0, 61, 0
1, 32892, Note_on_c, 0, 87, 69
1, 32895, Control_c, 0, 64, 0
1, 32895, Note_on_c, 0, 75, 74
1, 32895, Note_on_c, 0, 80, 71
1, 32898, Note_on_c, 0, 61, 72
1, 32898, Note_on_c, 0, 65, 72
1, 32899, Note_on_c, 0, 60, 78
1, 32918, Control_c, 0, 64, 127
1, 32925, Note_on_c, 0, 80, 0
1, 32929, Note_on_c, 0, 75, 0
1, 32938, Note_on_c, 0, 87, 0
1, 32940, Note_on_c, 0, 65, 0
1, 32942, Note_on_c, 0, 61, 0
1, 32946, Note_on_c, 0, 60, 0
1, 32966, Note_on_c, 0, 89, 77
1, 32970, Note_on_c, 0, 84, 77
1, 32970, Note_on_c, 0, 77, 68
1, 32972, Note_on_c, 0, 61, 68
1, 32972, Note_on_c, 0, 60, 71
1, 32972, Note_on_c, 0, 65, 69
1, 32986, Note_on_c, 0, 89, 0
1, 32987, Note_on_c, 0, 65, 0
1, 32991, Note_on_c, 0, 77, 0
1, 32992, Note_on_c, 0, 60, 0
1, 33000, Note_on_c, 0, 84, 0
1, 33000, Note_on_c, 9, 28, 0
1, 33000, Note_on_c, 9, 44, 96
1, 33000, Note_on_c, 9, 28, 65
1, 33012, Note_on_c, 0, 65, 58
1, 33016, Note_on_c, 0, 60, 39
1, 33020, Note_on_c, 0, 87, 39
1, 33022, Note_on_c, 0, 65, 0
1, 33024, Note_on_c, 0, 60, 0
1, 33027, Note_on_c, 0, 87, 0
1, 33036, Note_on_c, 0, 61, 0
1, 33080, Note_on_c, 9, 28, 0
1, 33080, Note_on_c, 9, 27, 38
1, 33090, Note_on_c, 0, 85, 81
1, 33091, Note_on_c, 0, 73, 84
1, 33092, Note_on_c, 0, 58, 83
1, 33092, Note_on_c, 9, 35, 105
1, 33093, Note_on_c, 0, 64, 85
1, 33093, Note_on_c, 0, 82, 71
1, 33094, Note_on_c, 0, 80, 57
1, 33096, Control_c, 0, 64, 0
1, 33118, Note_on_c, 9, 35, 0
1, 33120, Note_on_c, 9, 27, 0
1, 33120, Note_on_c, 1, 51, 0
1, 33120, Note_on_c, 9, 44, 0
1, 33120, Note_on_c, 2, 51, 0
1, 33120, Note_on_c, 1, 48, 64
1, 33120, Note_on_c, 2, 48, 64
1, 33120, Note_on_c, 9, 28, 64
1, 33126, Control_c, 0, 64, 127
1, 33139, Note_on_c, 0, 85, 0
1, 33139, Note_on_c, 0, 80, 0
1, 33143, Note_on_c, 0, 82, 0
1, 33143, Note_on_c, 0, 58, 0
1, 33143, Note_on_c, 0, 73, 0
1, 33146, Note_on_c, 0, 64, 0
1, 33199, Control_c, 0, 64, 0
1, 33203, Note_on_c, 0, 84, 83
1, 33203, Note_on_c, 0, 76, 88
1, 33205, Note_on_c, 0, 73, 82
1, 33205, Note_on_c, 0, 72, 84
1, 33208, Note_on_c, 0, 82, 51
1, 33210, Note_on_c, 0, 79, 50
1, 33212, Note_on_c, 0, 80, 36
1, 33224, Control_c, 0, 64, 127
1, 33227, Note_on_c, 0, 80, 0
1, 33229, Note_on_c, 0, 79, 0
1, 33230, Note_on_c, 0, 84, 0
1, 33232, Note_on_c, 0, 82, 0
1, 33234, Note_on_c, 0, 76, 0
1, 33238, Note_on_c, 0, 72, 0
1, 33240, Note_on_c, 9, 28, 0
1, 33240, Note_on_c, 9, 44, 102
1, 33240, Note_on_c, 9, 28, 54
1, 33249, Note_on_c, 0, 73, 0
1, 33280, Note_on_c, 0, 69, 70
1, 33282, Note_on_c, 0, 81, 65
1, 33282, Note_on_c, 0, 73, 64
1, 33282, Control_c, 0, 64, 0
1, 33284, Note_on_c, 0, 70, 67
1, 33285, Note_on_c, 0, 76, 65
1, 33298, Control_c, 0, 64, 127
1, 33307, Note_on_c, 0, 81, 0
1, 33313, Note_on_c, 0, 76, 0
1, 33320, Note_on_c, 0, 73, 0
1, 33320, Note_on_c, 9, 28, 0
1, 33322, Note_on_c, 0, 70, 0
1, 33326, Note_on_c, 0, 69, 0
1, 33355, Control_c, 0, 64, 0
1, 33358, Note_on_c, 0, 78, 57
1, 33360, Note_on_c, 9, 44, 0
1, 33360, Note_on_c, 9, 28, 60
1, 33362, Note_on_c, 0, 73, 57
1, 33363, Note_on_c, 0, 70, 53
1, 33364, Note_on_c, 0, 66, 51
1, 33365, Note_on_c, 1, 55, 74
1, 33365, Note_on_c, 2, 55, 74
1, 33368, Note_on_c, 0, 67, 32
1, 33370, Note_on_c, 0, 65, 32
1, 33373, Note_on_c, 2, 48, 0
1, 33373, Note_on_c, 1, 48, 0
1, 33375, Control_c, 0, 64, 127
1, 33384, Note_on_c, 0, 78, 0
1, 33386, Note_on_c, 0, 73, 0
1, 33388, Note_on_c, 0, 67, 0
1, 33388, Note_on_c, 0, 70, 0
1, 33396, Note_on_c, 0, 65, 0
1, 33403, Note_on_c, 0, 66, 0
1, 33440, Note_on_c, 9, 28, 0
1, 33444, Note_on_c, 0, 75, 59
1, 33445, Note_on_c, 0, 70, 62
1, 33445, Note_on_c, 9, 27, 58
1, 33446, Note_on_c, 0, 64, 66
1, 33447, Control_c, 0, 64, 0
1, 33447, Note_on_c, 0, 63, 52
1, 33449, Note_on_c, 0, 67, 57
1, 33459, Note_on_c, 0, 67, 0
1, 33459, Note_on_c, 0, 75, 0
1, 33462, Note_on_c, 9, 27, 0
1, 33462, Note_on_c, 0, 70, 0
1, 33468, Note_on_c, 0, 63, 0
1, 33473, Note_on_c, 0, 64, 0
1, 33480, Control_c, 0, 64, 127
1, 33480, Note_on_c, 9, 44, 102
1, 33480, Note_on_c, 9, 28, 58
1, 33484, Note_on_c, 2, 55, 0
1, 33484, Note_on_c, 1, 55, 0
1, 33489, Note_on_c, 1, 54, 53
1, 33489, Note_on_c, 2, 54, 53
1, 33497, Note_on_c, 9, 35, 85
1, 33516, Note_on_c, 9, 35, 0
1, 33531, Control_c, 0, 64, 0
1, 33532, Note_on_c, 0, 61, 65
1, 33532, Note_on_c, 0, 64, 69
1, 33535, Note_on_c, 0, 72, 45
1, 33539, Note_on_c, 0, 60, 41
1, 33547, Note_on_c, 0, 61, 0
1, 33552, Note_on_c, 0, 72, 0
1, 33553, Note_on_c, 0, 60, 0
1, 33553, Note_on_c, 0, 64, 0
1, 33555, Control_c, 0, 64, 127
1, 33560, Note_on_c, 9, 28, 0
1, 33560, Note_on_c, 9, 27, 49
1, 33567, Note_on_c, 9, 35, 103
1, 33574, Note_on_c, 0, 58, 25
1, 33581, Note_on_c, 0, 58, 0
1, 33581, Note_on_c, 0, 56, 44
1, 33598, Note_on_c, 1, 54, 0
1, 33598, Note_on_c, 2, 54, 0
1, 33598, Note_on_c, 9, 35, 0
1, 33600, Note_on_c, 9, 44, 0
1, 33600, Note_on_c, 9, 27, 0
1, 33600, Note_on_c, 9, 28, 64
1, 33604, Note_on_c, 0, 56, 0
1, 33608, Note_on_c, 1, 53, 47
1, 33608, Note_on_c, 2, 53, 47
1, 33611, Control_c, 0, 64, 0
1, 33616, Note_on_c, 0, 63, 55
1, 33616, Note_on_c, 0, 60, 48
1, 33616, Note_on_c, 0, 68, 59
1, 33617, Note_on_c, 0, 56, 52
1, 33645, Control_c, 0, 64, 127
1, 33680, Note_on_c, 0, 68, 0
1, 33683, Note_on_c, 2, 53, 0
1, 33683, Note_on_c, 1, 53, 0
1, 33684, Note_on_c, 0, 63, 0
1, 33686, Note_on_c, 0, 56, 0
1, 33687, Note_on_c, 0, 60, 0
1, 33692, Note_on_c, 1, 48, 25
1, 33692, Note_on_c, 2, 48, 25
1, 33705, Note_on_c, 2, 48, 0
1, 33705, Note_on_c, 1, 48, 0
1, 33720, Note_on_c, 9, 28, 0
1, 33720, Note_on_c, 9, 44, 101
1, 33720, Note_on_c, 9, 28, 61
1, 33721, Note_on_c, 1, 44, 56
1, 33721, Note_on_c, 2, 44, 56
1, 33794, Note_on_c, 0, 54, 46
1, 33799, Note_on_c, 0, 55, 71
1, 33806, Note_on_c, 0, 68, 71
1, 33807, Note_on_c, 0, 63, 69
1, 33808, Note_on_c, 0, 60, 78
1, 33808, Note_on_c, 0, 65, 70
1, 33810, Note_on_c, 0, 56, 65
1, 33821, Note_on_c, 0, 55, 0
1, 33826, Control_c, 0, 64, 0
1, 33833, Note_on_c, 1, 44, 0
1, 33833, Note_on_c, 2, 44, 0
1, 33838, Note_on_c, 1, 43, 50
1, 33838, Note_on_c, 2, 43, 50
1, 33840, Note_on_c, 9, 44, 0
1, 33840, Note_on_c, 9, 28, 0
1, 33840, Note_on_c, 0, 68, 0
1, 33840, Note_on_c, 9, 28, 62
1, 33844, Note_on_c, 0, 56, 0
1, 33846, Note_on_c, 0, 60, 0
1, 33847, Note_on_c, 0, 63, 0
1, 33853, Note_on_c, 0, 54, 0
1, 33857, Note_on_c, 0, 65, 0
1, 33858, Note_on_c, 0, 56, 52
1, 33858, Note_on_c, 0, 68, 48
1, 33863, Note_on_c, 0, 63, 42
1, 33863, Note_on_c, 0, 60, 58
1, 33864, Note_on_c, 0, 65, 24
1, 33867, Control_c, 0, 64, 127
1, 33903, Note_on_c, 0, 63, 0
1, 33905, Note_on_c, 0, 60, 0
1, 33906, Note_on_c, 0, 56, 0
1, 33910, Note_on_c, 0, 68, 0
1, 33916, Note_on_c, 0, 65, 0
1, 33928, Note_on_c, 0, 63, 43
1, 33930, Note_on_c, 0, 60, 66
1, 33930, Note_on_c, 0, 55, 61
1, 33932, Note_on_c, 0, 67, 60
1, 33946, Note_on_c, 1, 43, 0
1, 33946, Note_on_c, 2, 43, 0
1, 33951, Note_on_c, 1, 41, 53
1, 33951, Note_on_c, 2, 41, 53
1, 33956, Control_c, 0, 64, 0
1, 33958, Note_on_c, 0, 60, 0
1, 33960, Note_on_c, 9, 28, 0
1, 33960, Note_on_c, 9, 44, 102
1, 33960, Note_on_c, 9, 28, 51
1, 33962, Note_on_c, 0, 63, 0
1, 33962, Note_on_c, 0, 67, 0
1, 33966, Control_c, 0, 64, 127
1, 33967, Note_on_c, 0, 55, 0
1, 33970, Note_on_c, 0, 53, 38
1, 33976, Note_on_c, 0, 65, 33
1, 33980, Note_on_c, 0, 53, 0
1, 34000, Note_on_c, 9, 27, 38
1, 34002, Note_on_c, 0, 65, 0
1, 34039, Note_on_c, 0, 68, 71
1, 34040, Note_on_c, 9, 28, 0
1, 34040, Note_on_c, 9, 27, 0
1, 34040, Note_on_c, 9, 28, 74
1, 34041, Note_on_c, 0, 63, 58
1, 34042, Note_on_c, 0, 59, 68
1, 34043, Note_on_c, 0, 53, 60
1, 34044, Note_on_c, 0, 44, 46
1, 34046, Note_on_c, 0, 65, 36
1, 34052, Control_c, 0, 64, 0
1, 34054, Note_on_c, 0, 65, 0
1, 34060, Note_on_c, 0, 68, 0
1, 34062, Note_on_c, 0, 63, 0
1, 34063, Note_on_c, 1, 41, 0
1, 34063, Note_on_c, 2, 41, 0
1, 34067, Note_on_c, 0, 59, 0
1, 34069, Note_on_c, 0, 53, 0
1, 34070, Note_on_c, 1, 44, 77
1, 34070, Note_on_c, 2, 44, 77
1, 34080, Note_on_c, 9, 44, 0
1, 34080, Note_on_c, 9, 44, 77
1, 34120, Note_on_c, 9, 28, 0
1, 34120, Note_on_c, 9, 27, 32
1, 34131, Note_on_c, 0, 56, 51
1, 34138, Note_on_c, 0, 58, 30
1, 34144, Note_on_c, 0, 54, 56
1, 34145, Note_on_c, 0, 58, 0
1, 34150, Note_on_c, 0, 56, 0
1, 34158, Note_on_c, 9, 27, 66
1, 34160, Note_on_c, 9, 27, 0
1, 34160, Note_on_c, 9, 28, 63
1, 34162, Note_on_c, 0, 54, 0
1, 34162, Note_on_c, 0, 53, 59
1, 34179, Note_on_c, 0, 53, 0
1, 34182, Note_on_c, 0, 54, 31
1, 34184, Note_on_c, 9, 27, 0
1, 34196, Note_on_c, 9, 46, 53
1, 34199, Note_on_c, 0, 54, 0
1, 34199, Note_on_c, 0, 56, 39
1, 34200, Note_on_c, 9, 44, 0
1, 34200, Note_on_c, 9, 28, 0
1, 34200, Note_on_c, 9, 44, 93
1, 34200, Note_on_c, 9, 28, 58
1, 34202, Note_on_c, 9, 35, 50
1, 34209, Note_on_c, 9, 46, 0
1, 34216, Note_on_c, 9, 35, 0
1, 34219, Note_on_c, 0, 58, 50
1, 34222, Note_on_c, 0, 56, 0
1, 34230, Note_on_c, 0, 58, 0
1, 34240, Note_on_c, 0, 59, 66
1, 34255, Note_on_c, 0, 59, 0
1, 34258, Note_on_c, 0, 44, 0
1, 34264, Note_on_c, 0, 61, 49
1, 34280, Note_on_c, 9, 28, 0
1, 34289, Note_on_c, 0, 61, 0
1, 34290, Note_on_c, 0, 63, 49
1, 34299, Note_on_c, 0, 63, 0
1, 34316, Note_on_c, 0, 65, 64
1, 34320, Note_on_c, 9, 44, 0
1, 34320, Note_on_c, 9, 28, 60
1, 34324, Note_on_c, 0, 65, 0
1, 34325, Note_on_c, 1, 37, 44
1, 34325, Note_on_c, 2, 37, 44
1, 34338, Note_on_c, 1, 44, 0
1, 34338, Note_on_c, 2, 44, 0
1, 34340, Note_on_c, 0, 66, 77
1, 34352, Note_on_c, 0, 66, 0
1, 34374, Note_on_c, 0, 68, 76
1, 34385, Note_on_c, 0, 68, 0
1, 34398, Note_on_c, 0, 70, 70
1, 34400, Note_on_c, 9, 27, 66
1, 34412, Note_on_c, 0, 70, 0
1, 34420, Note_on_c, 9, 27, 0
1, 34428, Note_on_c, 0, 71, 65
1, 34437, Note_on_c, 0, 71, 0
1, 34440, Note_on_c, 9, 28, 0
1, 34440, Note_on_c, 9, 44, 93
1, 34440, Note_on_c, 9, 28, 57
1, 34445, Control_c, 0, 64, 127
1, 34454, Note_on_c, 0, 73, 74
1, 34458, Note_on_c, 0, 64, 33
1, 34462, Note_on_c, 0, 53, 31
1, 34465, Note_on_c, 0, 59, 27
1, 34471, Note_on_c, 0, 73, 0
1, 34490, Note_on_c, 0, 74, 51
1, 34492, Note_on_c, 0, 53, 0
1, 34494, Note_on_c, 0, 59, 0
1, 34503, Note_on_c, 0, 64, 0
1, 34505, Note_on_c, 0, 74, 0
1, 34514, Note_on_c, 0, 75, 56
1, 34516, Note_on_c, 9, 27, 80
1, 34520, Note_on_c, 9, 27, 35
1, 34534, Note_on_c, 0, 75, 0
1, 34541, Note_on_c, 1, 37, 0
1, 34541, Note_on_c, 2, 37, 0
1, 34544, Note_on_c, 9, 27, 0
1, 34548, Note_on_c, 0, 77, 45
1, 34560, Note_on_c, 9, 44, 0
1, 34560, Note_on_c, 9, 28, 0
1, 34560, Note_on_c, 9, 27, 0
1, 34560, Note_on_c, 1, 34, 57
1, 34560, Note_on_c, 2, 34, 57
1, 34560, Note_on_c, 9, 28, 54
1, 34564, Note_on_c, 9, 35, 77
1, 34567, Note_on_c, 9, 57, 68
1, 34574, Note_on_c, 0, 77, 0
1, 34574, Control_c, 0, 64, 0
1, 34579, Note_on_c, 0, 75, 53
1, 34587, Note_on_c, 9, 57, 0
1, 34599, Note_on_c, 9, 35, 0
1, 34603, Control_c, 0, 64, 127
1, 34636, Note_on_c, 0, 67, 50
1, 34637, Note_on_c, 0, 63, 25
1, 34641, Note_on_c, 0, 58, 32
1, 34641, Note_on_c, 1, 46, 64
1, 34641, Note_on_c, 2, 46, 64
1, 34680, Note_on_c, 9, 28, 0
1, 34680, Note_on_c, 9, 44, 91
1, 34680, Note_on_c, 9, 28, 60
1, 34687, Note_on_c, 0, 63, 0
1, 34692, Note_on_c, 0, 75, 0
1, 34697, Note_on_c, 0, 58, 0
1, 34699, Note_on_c, 0, 67, 0
1, 34715, Note_on_c, 2, 46, 0
1, 34715, Note_on_c, 1, 46, 0
1, 34760, Note_on_c, 9, 28, 0
1, 34765, Note_on_c, 0, 68, 69
1, 34766, Note_on_c, 0, 63, 53
1, 34768, Note_on_c, 0, 56, 49
1, 34769, Note_on_c, 0, 60, 50
1, 34790, Note_on_c, 0, 60, 0
1, 34792, Note_on_c, 0, 56, 0
1, 34793, Note_on_c, 0, 68, 0
1, 34800, Note_on_c, 9, 44, 0
1, 34800, Note_on_c, 9, 28, 55
1, 34801, Note_on_c, 0, 63, 0
1, 34802, Note_on_c, 1, 46, 57
1, 34802, Note_on_c, 2, 46, 57
1, 34808, Control_c, 0, 64, 0
1, 34809, Note_on_c, 0, 67, 34
1, 34814, Note_on_c, 0, 58, 45
1, 34814, Note_on_c, 0, 63, 57
1, 34819, Note_on_c, 0, 55, 36
1, 34852, Control_c, 0, 64, 127
1, 34867, Note_on_c, 0, 58, 0
1, 34871, Note_on_c, 0, 67, 0
1, 34872, Note_on_c, 0, 63, 0
1, 34880, Note_on_c, 9, 27, 48
1, 34884, Note_on_c, 0, 55, 0
1, 34884, Note_on_c, 0, 65, 64
1, 34884, Note_on_c, 0, 58, 38
1, 34887, Note_on_c, 0, 53, 46
1, 34888, Note_on_c, 9, 34, 67
1, 34904, Control_c, 0, 64, 0
1, 34908, Note_on_c, 9, 34, 0
1, 34910, Note_on_c, 0, 58, 0
1, 34920, Note_on_c, 9, 28, 0
1, 34920, Note_on_c, 0, 53, 0
1, 34920, Note_on_c, 9, 27, 0
1, 34920, Note_on_c, 9, 46, 89
1, 34920, Note_on_c, 9, 28, 58
1, 34921, Note_on_c, 0, 65, 0
1, 34929, Note_on_c, 0, 58, 29
1, 34930, Note_on_c, 0, 51, 36
1, 34932, Note_on_c, 0, 63, 33
1, 34934, Control_c, 0, 64, 127
1, 34935, Note_on_c, 9, 35, 66
1, 34945, Note_on_c, 0, 51, 0
1, 34948, Note_on_c, 0, 58, 0
1, 34959, Note_on_c, 2, 46, 0
1, 34959, Note_on_c, 1, 46, 0
1, 34960, Note_on_c, 9, 35, 0
1, 34962, Note_on_c, 2, 34, 0
1, 34962, Note_on_c, 1, 34, 0
1, 34967, Note_on_c, 1, 39, 48
1, 34967, Note_on_c, 2, 39, 48
1, 34968, Note_on_c, 0, 63, 0
1, 34984, Note_on_c, 1, 39, 0
1, 34984, Note_on_c, 2, 39, 0
1, 35002, Note_on_c, 1, 40, 54
1, 35002, Note_on_c, 2, 40, 54
1, 35026, Note_on_c, 2, 40, 0
1, 35026, Note_on_c, 1, 40, 0
1, 35040, Note_on_c, 9, 46, 0
1, 35040, Note_on_c, 9, 28, 0
1, 35040, Note_on_c, 9, 28, 56
1, 35041, Note_on_c, 1, 41, 54
1, 35041, Note_on_c, 2, 41, 54
1, 35066, Note_on_c, 2, 41, 0
1, 35066, Note_on_c, 1, 41, 0
1, 35115, Note_on_c, 0, 63, 9
1, 35119, Note_on_c, 0, 70, 60
1, 35119, Note_on_c, 1, 36, 62
1, 35119, Note_on_c, 2, 36, 62
1, 35122, Note_on_c, 0, 69, 55
1, 35130, Note_on_c, 0, 69, 0
1, 35135, Note_on_c, 0, 70, 0
1, 35136, Note_on_c, 1, 36, 0
1, 35136, Note_on_c, 2, 36, 0
1, 35137, Control_c, 0, 64, 0
1, 35138, Note_on_c, 0, 63, 0
1, 35160, Note_on_c, 9, 28, 0
1, 35160, Note_on_c, 9, 46, 78
1, 35160, Note_on_c, 9, 28, 66
1, 35162, Note_on_c, 0, 71, 62
1, 35163, Note_on_c, 1, 29, 44
1, 35163, Note_on_c, 2, 29, 44
1, 35173, Control_c, 0, 64, 127
1, 35182, Note_on_c, 0, 71, 0
1, 35199, Note_on_c, 0, 74, 66
1, 35203, Note_on_c, 0, 63, 35
1, 35204, Note_on_c, 0, 67, 48
1, 35204, Note_on_c, 0, 62, 42
1, 35208, Note_on_c, 0, 57, 36
1, 35214, Note_on_c, 0, 67, 0
1, 35216, Note_on_c, 0, 57, 0
1, 35216, Note_on_c, 0, 74, 0
1, 35217, Note_on_c, 0, 62, 0
1, 35219, Note_on_c, 0, 63, 0
1, 35236, Note_on_c, 0, 79, 70
1, 35236, Note_on_c, 0, 63, 37
1, 35238, Note_on_c, 0, 67, 56
1, 35239, Note_on_c, 0, 62, 36
1, 35240, Note_on_c, 0, 57, 43
1, 35260, Note_on_c, 0, 67, 0
1, 35262, Note_on_c, 0, 57, 0
1, 35264, Note_on_c, 0, 62, 0
1, 35264, Note_on_c, 0, 63, 0
1, 35267, Note_on_c, 0, 79, 0
1, 35278, Note_on_c, 0, 83, 80
1, 35279, Note_on_c, 0, 63, 47
1, 35279, Note_on_c, 0, 67, 46
1, 35280, Note_on_c, 9, 46, 0
1, 35280, Note_on_c, 9, 28, 0
1, 35280, Note_on_c, 0, 62, 60
1, 35280, Note_on_c, 9, 28, 63
1, 35281, Note_on_c, 0, 57, 43
1, 35299, Note_on_c, 0, 67, 0
1, 35301, Note_on_c, 0, 57, 0
1, 35303, Note_on_c, 0, 83, 0
1, 35304, Note_on_c, 0, 62, 0
1, 35305, Note_on_c, 0, 63, 0
1, 35317, Note_on_c, 0, 86, 90
1, 35317, Note_on_c, 0, 67, 61
1, 35318, Note_on_c, 0, 63, 56
1, 35318, Note_on_c, 0, 74, 80
1, 35319, Note_on_c, 0, 57, 64
1, 35320, Note_on_c, 0, 62, 70
1, 35326, Note_on_c, 0, 76, 34
1, 35334, Note_on_c, 0, 76, 0
1, 35354, Note_on_c, 1, 41, 67
1, 35354, Note_on_c, 2, 41, 67
1, 35360, Note_on_c, 9, 28, 0
1, 35360, Note_on_c, 9, 27, 48
1, 35369, Note_on_c, 1, 29, 0
1, 35369, Note_on_c, 2, 29, 0
1, 35373, Note_on_c, 0, 57, 0
1, 35378, Note_on_c, 0, 67, 0
1, 35380, Note_on_c, 0, 62, 0
1, 35380, Note_on_c, 0, 86, 0
1, 35380, Note_on_c, 0, 74, 0
1, 35381, Note_on_c, 0, 63, 0
1, 35398, Control_c, 0, 64, 0
1, 35399, Note_on_c, 0, 62, 48
1, 35399, Note_on_c, 0, 63, 38
1, 35400, Note_on_c, 9, 27, 0
1, 35400, Note_on_c, 0, 67, 57
1, 35400, Note_on_c, 9, 44, 87
1, 35400, Note_on_c, 9, 28, 69
1, 35402, Note_on_c, 0, 86, 66
1, 35403, Note_on_c, 0, 57, 62
1, 35403, Note_on_c, 0, 74, 69
1, 35410, Control_c, 0, 64, 127
1, 35419, Note_on_c, 0, 67, 0
1, 35422, Note_on_c, 0, 63, 0
1, 35425, Note_on_c, 0, 62, 0
1, 35425, Note_on_c, 0, 74, 0
1, 35428, Note_on_c, 0, 86, 0
1, 35430, Note_on_c, 0, 57, 0
1, 35437, Note_on_c, 0, 83, 59
1, 35440, Note_on_c, 0, 57, 15
1, 35441, Note_on_c, 0, 63, 36
1, 35442, Note_on_c, 0, 67, 32
1, 35444, Note_on_c, 0, 62, 31
1, 35454, Note_on_c, 0, 62, 0
1, 35455, Note_on_c, 0, 67, 0
1, 35460, Note_on_c, 0, 83, 0
1, 35462, Note_on_c, 0, 57, 0
1, 35462, Note_on_c, 0, 63, 0
1, 35477, Note_on_c, 0, 79, 49
1, 35480, Note_on_c, 9, 28, 0
1, 35486, Note_on_c, 0, 79, 0
1, 35489, Note_on_c, 9, 35, 46
1, 35492, Note_on_c, 9, 33, 46
1, 35502, Note_on_c, 9, 35, 0
1, 35503, Note_on_c, 9, 33, 0
1, 35505, Control_c, 0, 64, 0
1, 35510, Note_on_c, 0, 63, 50
1, 35511, Note_on_c, 0, 67, 57
1, 35511, Note_on_c, 0, 56, 50
1, 35513, Note_on_c, 0, 60, 57
1, 35514, Note_on_c, 0, 72, 57
1, 35515, Note_on_c, 0, 84, 58
1, 35516, Note_on_c, 2, 41, 0
1, 35516, Note_on_c, 1, 41, 0
1, 35519, Note_on_c, 1, 34, 58
1, 35519, Note_on_c, 2, 34, 58
1, 35520, Note_on_c, 9, 44, 0
1, 35520, Note_on_c, 9, 28, 61
1, 35522, Note_on_c, 9, 35, 74
1, 35525, Note_on_c, 0, 67, 0
1, 35527, Note_on_c, 0, 84, 0
1, 35528, Control_c, 0, 64, 127
1, 35530, Note_on_c, 0, 60, 0
1, 35534, Note_on_c, 0, 72, 0
1, 35537, Note_on_c, 0, 63, 0
1, 35537, Note_on_c, 0, 56, 0
1, 35548, Note_on_c, 9, 35, 0
1, 35598, Note_on_c, 9, 51, 38
1, 35600, Note_on_c, 9, 28, 0
1, 35601, Note_on_c, 1, 46, 61
1, 35601, Note_on_c, 2, 46, 61
1, 35608, Note_on_c, 9, 51, 0
1, 35635, Note_on_c, 0, 63, 53
1, 35637, Note_on_c, 0, 67, 51
1, 35637, Note_on_c, 0, 56, 40
1, 35637, Note_on_c, 0, 77, 82
1, 35640, Note_on_c, 9, 44, 89
1, 35640, Note_on_c, 9, 28, 62
1, 35641, Note_on_c, 0, 60, 44
1, 35672, Note_on_c, 0, 77, 0
1, 35672, Note_on_c, 0, 79, 49
1, 35698, Note_on_c, 0, 67, 0
1, 35701, Note_on_c, 0, 63, 0
1, 35704, Note_on_c, 0, 77, 46
1, 35707, Note_on_c, 0, 79, 0
1, 35709, Note_on_c, 0, 56, 0
1, 35720, Note_on_c, 9, 28, 0
1, 35721, Note_on_c, 9, 27, 68
1, 35729, Note_on_c, 0, 60, 0
1, 35734, Note_on_c, 0, 77, 0
1, 35734, Note_on_c, 0, 76, 60
1, 35737, Note_on_c, 9, 27, 0
1, 35750, Note_on_c, 9, 35, 70
1, 35751, Note_on_c, 0, 76, 0
1, 35756, Note_on_c, 0, 62, 37
1, 35758, Control_c, 0, 64, 0
1, 35760, Note_on_c, 9, 44, 0
1, 35760, Note_on_c, 9, 28, 60
1, 35761, Note_on_c, 0, 56, 31
1, 35764, Note_on_c, 0, 66, 33
1, 35766, Note_on_c, 0, 77, 55
1, 35774, Note_on_c, 9, 35, 0
1, 35780, Control_c, 0, 64, 127
1, 35812, Note_on_c, 1, 34, 0
1, 35812, Note_on_c, 2, 34, 0
1, 35816, Note_on_c, 0, 56, 0
1, 35817, Note_on_c, 0, 62, 0
1, 35819, Note_on_c, 0, 66, 0
1, 35830, Note_on_c, 0, 77, 0
1, 35840, Note_on_c, 0, 75, 69
1, 35843, Note_on_c, 0, 66, 45
1, 35845, Note_on_c, 1, 34, 46
1, 35845, Note_on_c, 2, 34, 46
1, 35845, Note_on_c, 9, 51, 60
1, 35846, Note_on_c, 0, 62, 50
1, 35849, Note_on_c, 0, 56, 30
1, 35853, Note_on_c, 2, 46, 0
1, 35853, Note_on_c, 1, 46, 0
1, 35859, Note_on_c, 0, 56, 0
1, 35859, Note_on_c, 9, 51, 0
1, 35860, Note_on_c, 0, 66, 0
1, 35871, Note_on_c, 0, 75, 0
1, 35879, Note_on_c, 0, 56, 34
1, 35879, Note_on_c, 0, 66, 38
1, 35880, Note_on_c, 9, 28, 0
1, 35880, Note_on_c, 9, 44, 96
1, 35880, Note_on_c, 9, 28, 52
1, 35884, Note_on_c, 1, 46, 59
1, 35884, Note_on_c, 2, 46, 59
1, 35888, Note_on_c, 0, 74, 30
1, 35899, Note_on_c, 0, 62, 0
1, 35913, Note_on_c, 0, 66, 0
1, 35932, Note_on_c, 0, 56, 0
1, 35940, Note_on_c, 0, 74, 0
1, 35960, Note_on_c, 9, 28, 0
1, 35960, Note_on_c, 9, 53, 54
1, 35967, Note_on_c, 0, 55, 56
1, 35968, Note_on_c, 0, 65, 53
1, 35969, Note_on_c, 0, 61, 42
1, 35970, Note_on_c, 0, 75, 61
1, 35970, Note_on_c, 9, 35, 78
1, 35979, Control_c, 0, 64, 0
1, 35981, Note_on_c, 9, 35, 0
1, 36000, Note_on_c, 9, 53, 0
1, 36000, Note_on_c, 9, 44, 0
1, 36000, Note_on_c, 9, 28, 55
1, 36010, Control_c, 0, 64, 127
1, 36045, Note_on_c, 2, 34, 0
1, 36045, Note_on_c, 1, 34, 0
1, 36046, Note_on_c, 0, 75, 0
1, 36054, Note_on_c, 0, 67, 61
1, 36068, Note_on_c, 0, 67, 0
1, 36075, Note_on_c, 1, 34, 46
1, 36075, Note_on_c, 2, 34, 46
1, 36077, Note_on_c, 9, 35, 43
1, 36083, Note_on_c, 2, 46, 0
1, 36083, Note_on_c, 1, 46, 0
1, 36085, Note_on_c, 9, 35, 0
1, 36086, Note_on_c, 0, 69, 71
1, 36088, Control_c, 0, 64, 0
1, 36090, Note_on_c, 9, 51, 59
1, 36107, Note_on_c, 0, 69, 0
1, 36112, Note_on_c, 9, 51, 0
1, 36116, Note_on_c, 1, 46, 56
1, 36116, Note_on_c, 2, 46, 56
1, 36119, Note_on_c, 9, 35, 45
1, 36120, Note_on_c, 9, 28, 0
1, 36120, Note_on_c, 9, 44, 99
1, 36120, Note_on_c, 9, 28, 59
1, 36125, Note_on_c, 9, 35, 0
1, 36125, Note_on_c, 0, 70, 67
1, 36133, Note_on_c, 0, 65, 0
1, 36143, Note_on_c, 1, 34, 0
1, 36143, Note_on_c, 2, 34, 0
1, 36147, Note_on_c, 0, 55, 0
1, 36148, Note_on_c, 0, 70, 0
1, 36152, Note_on_c, 0, 61, 0
1, 36163, Control_c, 0, 64, 127
1, 36164, Note_on_c, 0, 71, 62
1, 36183, Note_on_c, 0, 71, 0
1, 36189, Note_on_c, 1, 34, 54
1, 36189, Note_on_c, 2, 34, 54
1, 36194, Control_c, 0, 64, 0
1, 36197, Note_on_c, 0, 64, 55
1, 36197, Note_on_c, 0, 53, 53
1, 36198, Note_on_c, 0, 74, 74
1, 36200, Note_on_c, 9, 28, 0
1, 36200, Note_on_c, 0, 59, 45
1, 36200, Note_on_c, 9, 55, 59
1, 36208, Note_on_c, 2, 46, 0
1, 36208, Note_on_c, 1, 46, 0
1, 36215, Note_on_c, 1, 34, 0
1, 36215, Note_on_c, 2, 34, 0
1, 36224, Control_c, 0, 64, 127
1, 36231, Note_on_c, 1, 47, 62
1, 36231, Note_on_c, 2, 47, 62
1, 36238, Note_on_c, 0, 74, 0
1, 36240, Note_on_c, 9, 55, 0
1, 36240, Note_on_c, 9, 44, 0
1, 36240, Note_on_c, 9, 28, 45
1, 36243, Note_on_c, 0, 77, 58
1, 36260, Note_on_c, 0, 77, 0
1, 36279, Note_on_c, 0, 80, 74
1, 36292, Note_on_c, 0, 80, 0
1, 36305, Note_on_c, 9, 29, 57
1, 36312, Note_on_c, 1, 35, 68
1, 36312, Note_on_c, 2, 35, 68
1, 36316, Note_on_c, 0, 83, 83
1, 36320, Note_on_c, 9, 28, 0
1, 36328, Control_c, 0, 64, 0
1, 36338, Note_on_c, 0, 83, 0
1, 36355, Note_on_c, 0, 86, 89
1, 36355, Note_on_c, 0, 74, 79
1, 36360, Note_on_c, 9, 46, 98
1, 36360, Note_on_c, 9, 28, 62
1, 36364, Note_on_c, 0, 76, 32
1, 36367, Note_on_c, 0, 53, 0
1, 36371, Note_on_c, 0, 76, 0
1, 36372, Note_on_c, 0, 59, 0
1, 36374, Note_on_c, 0, 74, 0
1, 36383, Note_on_c, 0, 86, 0
1, 36384, Control_c, 0, 64, 127
1, 36388, Note_on_c, 0, 64, 0
1, 36401, Note_on_c, 0, 83, 42
1, 36412, Note_on_c, 0, 83, 0
1, 36432, Note_on_c, 0, 86, 87
1, 36434, Note_on_c, 0, 74, 84
1, 36437, Note_on_c, 9, 32, 39
1, 36440, Note_on_c, 9, 28, 0
1, 36440, Note_on_c, 9, 27, 31
1, 36441, Note_on_c, 9, 53, 61
1, 36442, Note_on_c, 9, 34, 48
1, 36442, Note_on_c, 9, 34, 71
1, 36446, Note_on_c, 9, 32, 0
1, 36450, Note_on_c, 9, 53, 0
1, 36456, Note_on_c, 9, 34, 0
1, 36459, Note_on_c, 2, 35, 0
1, 36459, Note_on_c, 0, 74, 0
1, 36459, Note_on_c, 1, 35, 0
1, 36462, Note_on_c, 0, 86, 0
1, 36462, Note_on_c, 0, 67, 38
1, 36466, Note_on_c, 2, 47, 0
1, 36466, Note_on_c, 1, 47, 0
1, 36468, Note_on_c, 0, 62, 35
1, 36469, Note_on_c, 0, 63, 26
1, 36472, Note_on_c, 0, 60, 36
1, 36474, Control_c, 0, 64, 0
1, 36475, Note_on_c, 1, 36, 61
1, 36475, Note_on_c, 2, 36, 61
1, 36477, Note_on_c, 9, 29, 0
1, 36478, Note_on_c, 0, 83, 39
1, 36479, Note_on_c, 9, 51, 42
1, 36480, Note_on_c, 9, 27, 0
1, 36480, Note_on_c, 9, 46, 0
1, 36480, Note_on_c, 9, 28, 50
1, 36480, Note_on_c, 9, 53, 76
1, 36480, Note_on_c, 9, 35, 70
1, 36482, Note_on_c, 9, 57, 107
1, 36482, Note_on_c, 9, 35, 100
1, 36483, Note_on_c, 9, 57, 38
1, 36485, Note_on_c, 9, 34, 0
1, 36488, Note_on_c, 9, 57, 0
1, 36493, Note_on_c, 9, 35, 0
1, 36496, Note_on_c, 0, 83, 0
1, 36497, Note_on_c, 9, 51, 0
1, 36504, Note_on_c, 9, 57, 0
1, 36513, Note_on_c, 0, 86, 82
1, 36520, Note_on_c, 9, 53, 0
1, 36520, Note_on_c, 9, 28, 0
1, 36537, Note_on_c, 9, 35, 0
1, 36542, Note_on_c, 0, 86, 0
1, 36554, Note_on_c, 0, 83, 51
1, 36563, Note_on_c, 0, 67, 0
1, 36563, Note_on_c, 1, 43, 39
1, 36563, Note_on_c, 2, 43, 39
1, 36566, Note_on_c, 0, 83, 0
1, 36570, Control_c, 0, 64, 127
1, 36572, Note_on_c, 2, 43, 0
1, 36572, Note_on_c, 1, 43, 0
1, 36590, Note_on_c, 0, 84, 83
1, 36592, Control_c, 0, 64, 0
1, 36595, Note_on_c, 0, 67, 49
1, 36597, Note_on_c, 1, 48, 70
1, 36597, Note_on_c, 2, 48, 70
1, 36600, Note_on_c, 9, 44, 85
1, 36617, Note_on_c, 2, 36, 0
1, 36617, Note_on_c, 1, 36, 0
1, 36619, Note_on_c, 0, 67, 0
1, 36622, Control_c, 0, 64, 127
1, 36632, Note_on_c, 0, 79, 64
1, 36636, Note_on_c, 0, 62, 0
1, 36638, Note_on_c, 0, 63, 0
1, 36647, Note_on_c, 0, 84, 0
1, 36651, Note_on_c, 0, 60, 0
1, 36661, Note_on_c, 0, 79, 0
1, 36675, Note_on_c, 0, 77, 38
1, 36677, Note_on_c, 9, 51, 65
1, 36693, Note_on_c, 9, 51, 0
1, 36716, Note_on_c, 0, 65, 50
1, 36720, Note_on_c, 9, 44, 0
1, 36720, Note_on_c, 0, 61, 33
1, 36720, Note_on_c, 0, 60, 44
1, 36721, Control_c, 0, 64, 0
1, 36723, Note_on_c, 0, 55, 35
1, 36724, Note_on_c, 1, 44, 34
1, 36724, Note_on_c, 2, 44, 34
1, 36729, Note_on_c, 1, 48, 0
1, 36729, Note_on_c, 2, 48, 0
1, 36795, Note_on_c, 9, 29, 45
1, 36839, Control_c, 0, 64, 127
1, 36840, Note_on_c, 2, 44, 0
1, 36840, Note_on_c, 1, 44, 0
1, 36840, Note_on_c, 9, 44, 95
1, 36842, Note_on_c, 1, 45, 50
1, 36842, Note_on_c, 2, 45, 50
1, 36843, Note_on_c, 0, 65, 0
1, 36846, Note_on_c, 0, 60, 0
1, 36848, Note_on_c, 0, 61, 0
1, 36855, Note_on_c, 0, 55, 0
1, 36859, Note_on_c, 0, 77, 0
1, 36910, Note_on_c, 9, 34, 40
1, 36928, Note_on_c, 9, 51, 65
1, 36948, Note_on_c, 9, 51, 0
1, 36951, Note_on_c, 9, 29, 0
1, 36951, Note_on_c, 9, 57, 53
1, 36953, Note_on_c, 9, 35, 60
1, 36957, Note_on_c, 9, 57, 0
1, 36957, Note_on_c, 1, 45, 0
1, 36957, Note_on_c, 9, 34, 0
1, 36957, Note_on_c, 2, 45, 0
1, 36960, Note_on_c, 9, 44, 0
1, 36961, Note_on_c, 1, 38, 47
1, 36961, Note_on_c, 2, 38, 47
1, 36963, Note_on_c, 9, 51, 59
1, 36970, Note_on_c, 9, 35, 0
1, 36989, Note_on_c, 9, 51, 0
1, 37038, Control_c, 0, 64, 0
1, 37038, Note_on_c, 0, 67, 76
1, 37038, Note_on_c, 0, 56, 57
1, 37039, Note_on_c, 0, 64, 80
1, 37040, Note_on_c, 0, 60, 80
1, 37042, Note_on_c, 0, 55, 57
1, 37044, Note_on_c, 0, 53, 53
1, 37074, Note_on_c, 2, 38, 0
1, 37074, Note_on_c, 1, 38, 0
1, 37076, Note_on_c, 0, 56, 0
1, 37078, Note_on_c, 1, 44, 55
1, 37078, Note_on_c, 2, 44, 55
1, 37080, Note_on_c, 9, 44, 95
1, 37088, Note_on_c, 0, 56, 51
1, 37090, Note_on_c, 0, 68, 63
1, 37106, Control_c, 0, 64, 127
1, 37117, Note_on_c, 0, 55, 0
1, 37120, Note_on_c, 0, 56, 0
1, 37123, Note_on_c, 0, 64, 0
1, 37124, Note_on_c, 0, 53, 0
1, 37125, Note_on_c, 0, 67, 0
1, 37126, Note_on_c, 0, 60, 0
1, 37128, Note_on_c, 0, 68, 0
1, 37165, Note_on_c, 2, 44, 0
1, 37165, Note_on_c, 1, 44, 0
1, 37167, Note_on_c, 1, 42, 36
1, 37167, Note_on_c, 2, 42, 36
1, 37167, Note_on_c, 9, 51, 76
1, 37186, Note_on_c, 2, 42, 0
1, 37186, Note_on_c, 1, 42, 0
1, 37189, Note_on_c, 9, 51, 0
1, 37192, Control_c, 0, 64, 0
1, 37200, Note_on_c, 9, 44, 0
1, 37200, Note_on_c, 1, 43, 51
1, 37200, Note_on_c, 2, 43, 51
1, 37206, Note_on_c, 0, 63, 56
1, 37207, Note_on_c, 0, 68, 58
1, 37207, Note_on_c, 0, 59, 62
1, 37207, Note_on_c, 9, 51, 77
1, 37208, Note_on_c, 0, 53, 36
1, 37210, Note_on_c, 0, 43, 33
1, 37224, Note_on_c, 0, 53, 0
1, 37229, Note_on_c, 0, 43, 0
1, 37231, Note_on_c, 0, 59, 0
1, 37233, Note_on_c, 9, 51, 0
1, 37235, Note_on_c, 0, 63, 0
1, 37236, Note_on_c, 0, 68, 0
1, 37245, Note_on_c, 9, 40, 22
1, 37250, Note_on_c, 9, 40, 0
1, 37273, Note_on_c, 2, 43, 0
1, 37273, Note_on_c, 1, 43, 0
1, 37276, Note_on_c, 9, 40, 46
1, 37280, Note_on_c, 1, 38, 48
1, 37280, Note_on_c, 2, 38, 48
1, 37283, Note_on_c, 9, 40, 0
1, 37301, Note_on_c, 2, 38, 0
1, 37301, Note_on_c, 1, 38, 0
1, 37315, Note_on_c, 9, 40, 69
1, 37317, Note_on_c, 1, 35, 45
1, 37317, Note_on_c, 2, 35, 45
1, 37320, Note_on_c, 9, 44, 91
1, 37321, Note_on_c, 9, 40, 0
1, 37324, Note_on_c, 0, 67, 50
1, 37325, Note_on_c, 0, 43, 28
1, 37326, Note_on_c, 0, 53, 34
1, 37328, Note_on_c, 0, 59, 35
1, 37328, Note_on_c, 0, 62, 40
1, 37340, Note_on_c, 0, 43, 0
1, 37349, Note_on_c, 9, 34, 45
1, 37350, Note_on_c, 0, 62, 0
1, 37351, Note_on_c, 0, 59, 0
1, 37353, Note_on_c, 0, 53, 0
1, 37357, Note_on_c, 0, 67, 0
1, 37359, Note_on_c, 9, 34, 0
1, 37384, Note_on_c, 9, 35, 82
1, 37410, Note_on_c, 9, 51, 83
1, 37417, Note_on_c, 9, 35, 0
1, 37431, Note_on_c, 1, 35, 0
1, 37431, Note_on_c, 2, 35, 0
1, 37433, Note_on_c, 9, 51, 0
1, 37440, Note_on_c, 9, 44, 0
1, 37442, Note_on_c, 1, 36, 47
1, 37442, Note_on_c, 2, 36, 47
1, 37443, Note_on_c, 0, 67, 26
1, 37445, Note_on_c, 0, 65, 43
1, 37445, Note_on_c, 0, 62, 38
1, 37445, Note_on_c, 0, 60, 32
1, 37445, Note_on_c, 0, 63, 25
1, 37448, Note_on_c, 0, 62, 32
1, 37449, Note_on_c, 0, 48, 30
1, 37451, Note_on_c, 0, 55, 24
1, 37452, Note_on_c, 9, 51, 77
1, 37482, Note_on_c, 9, 51, 0
1, 37502, Note_on_c, 0, 55, 0
1, 37512, Note_on_c, 0, 65, 0
1, 37513, Note_on_c, 0, 62, 0
1, 37523, Note_on_c, 0, 63, 31
1, 37528, Note_on_c, 0, 60, 31
1, 37528, Note_on_c, 0, 55, 36
1, 37559, Control_c, 0, 64, 127
1, 37560, Note_on_c, 9, 44, 95
1, 37601, Note_on_c, 0, 55, 0
1, 37602, Note_on_c, 0, 48, 0
1, 37602, Note_on_c, 0, 60, 0
1, 37614, Note_on_c, 0, 63, 0
1, 37649, Note_on_c, 9, 51, 75
1, 37669, Note_on_c, 9, 51, 0
1, 37677, Note_on_c, 1, 36, 0
1, 37677, Note_on_c, 0, 67, 0
1, 37677, Note_on_c, 2, 36, 0
1, 37680, Note_on_c, 9, 44, 0
1, 37680, Note_on_c, 0, 62, 0
1, 37682, Note_on_c, 1, 34, 52
1, 37682, Note_on_c, 2, 34, 52
1, 37684, Note_on_c, 0, 63, 0
1, 37684, Note_on_c, 0, 75, 83
1, 37693, Note_on_c, 0, 60, 0
1, 37693, Note_on_c, 0, 61, 39
1, 37693, Note_on_c, 0, 65, 47
1, 37694, Note_on_c, 9, 51, 53
1, 37697, Note_on_c, 0, 60, 39
1, 37714, Control_c, 0, 64, 0
1, 37717, Note_on_c, 9, 51, 0
1, 37765, Note_on_c, 9, 53, 91
1, 37782, Note_on_c, 9, 53, 0
1, 37800, Note_on_c, 9, 44, 95
1, 37804, Note_on_c, 1, 46, 63
1, 37804, Note_on_c, 2, 46, 63
1, 37854, Note_on_c, 0, 75, 0
1, 37858, Note_on_c, 0, 74, 52
1, 37860, Note_on_c, 2, 34, 0
1, 37860, Note_on_c, 1, 34, 0
1, 37870, Note_on_c, 0, 74, 0
1, 37879, Note_on_c, 9, 34, 33
1, 37883, Note_on_c, 1, 39, 32
1, 37883, Note_on_c, 2, 39, 32
1, 37888, Note_on_c, 1, 46, 0
1, 37888, Note_on_c, 2, 46, 0
1, 37888, Note_on_c, 0, 75, 48
1, 37892, Note_on_c, 9, 34, 0
1, 37907, Note_on_c, 0, 65, 0
1, 37908, Note_on_c, 0, 75, 0
1, 37910, Note_on_c, 0, 60, 0
1, 37912, Note_on_c, 1, 39, 0
1, 37912, Note_on_c, 2, 39, 0
1, 37914, Note_on_c, 1, 45, 48
1, 37914, Note_on_c, 2, 45, 48
1, 37920, Note_on_c, 9, 44, 0
1, 37923, Note_on_c, 0, 55, 33
1, 37924, Note_on_c, 9, 51, 56
1, 37925, Note_on_c, 0, 61, 0
1, 37925, Note_on_c, 0, 66, 23
1, 37926, Note_on_c, 0, 79, 66
1, 37930, Note_on_c, 0, 61, 30
1, 37945, Note_on_c, 9, 51, 0
1, 38022, Note_on_c, 2, 45, 0
1, 38022, Note_on_c, 1, 45, 0
1, 38035, Note_on_c, 1, 45, 64
1, 38035, Note_on_c, 2, 45, 64
1, 38040, Note_on_c, 9, 44, 98
1, 38046, Control_c, 0, 64, 127
1, 38079, Note_on_c, 0, 79, 0
1, 38086, Note_on_c, 0, 55, 0
1, 38090, Note_on_c, 0, 66, 0
1, 38124, Note_on_c, 9, 51, 60
1, 38128, Note_on_c, 0, 61, 0
1, 38142, Note_on_c, 9, 51, 0
1, 38147, Note_on_c, 1, 45, 0
1, 38147, Note_on_c, 2, 45, 0
1, 38156, Note_on_c, 1, 44, 37
1, 38156, Note_on_c, 2, 44, 37
1, 38160, Note_on_c, 9, 44, 0
1, 38160, Note_on_c, 9, 51, 67
1, 38201, Note_on_c, 9, 40, 17
1, 38208, Note_on_c, 9, 40, 0
1, 38241, Note_on_c, 0, 86, 87
1, 38244, Note_on_c, 0, 82, 74
1, 38244, Note_on_c, 0, 65, 74
1, 38244, Note_on_c, 0, 77, 87
1, 38244, Note_on_c, 0, 60, 58
1, 38244, Note_on_c, 0, 58, 49
1, 38247, Note_on_c, 0, 54, 53
1, 38250, Control_c, 0, 64, 0
1, 38257, Note_on_c, 9, 51, 0
1, 38274, Note_on_c, 1, 42, 49
1, 38274, Note_on_c, 2, 42, 49
1, 38279, Note_on_c, 1, 44, 0
1, 38279, Note_on_c, 2, 44, 0
1, 38280, Note_on_c, 9, 44, 100
1, 38283, Control_c, 0, 64, 127
1, 38321, Note_on_c, 9, 31, 33
1, 38327, Note_on_c, 0, 65, 0
1, 38330, Note_on_c, 0, 60, 0
1, 38332, Note_on_c, 9, 31, 0
1, 38341, Note_on_c, 0, 77, 0
1, 38343, Note_on_c, 0, 86, 0
1, 38343, Note_on_c, 0, 82, 0
1, 38344, Note_on_c, 0, 58, 0
1, 38352, Note_on_c, 9, 34, 43
1, 38354, Note_on_c, 0, 54, 0
1, 38365, Note_on_c, 9, 51, 65
1, 38381, Note_on_c, 9, 34, 0
1, 38382, Note_on_c, 9, 51, 0
1, 38391, Note_on_c, 1, 42, 0
1, 38391, Note_on_c, 2, 42, 0
1, 38392, Note_on_c, 9, 35, 35
1, 38395, Note_on_c, 0, 82, 43
1, 38397, Note_on_c, 0, 62, 34
1, 38398, Note_on_c, 0, 58, 31
1, 38398, Note_on_c, 0, 74, 45
1, 38399, Note_on_c, 0, 79, 43
1, 38399, Note_on_c, 1, 43, 53
1, 38399, Note_on_c, 2, 43, 53
1, 38400, Note_on_c, 9, 44, 0
1, 38400, Control_c, 0, 64, 0
1, 38401, Note_on_c, 0, 53, 28
1, 38403, Note_on_c, 9, 35, 0
1, 38404, Note_on_c, 0, 57, 47
1, 38406, Note_on_c, 9, 51, 74
1, 38456, Note_on_c, 0, 79, 0
1, 38465, Note_on_c, 0, 82, 0
1, 38471, Note_on_c, 0, 74, 0
1, 38479, Note_on_c, 1, 43, 0
1, 38479, Note_on_c, 2, 43, 0
1, 38484, Note_on_c, 1, 38, 33
1, 38484, Note_on_c, 2, 38, 33
1, 38490, Note_on_c, 9, 51, 0
1, 38501, Note_on_c, 1, 38, 0
1, 38501, Note_on_c, 2, 38, 0
1, 38513, Note_on_c, 1, 34, 60
1, 38513, Note_on_c, 2, 34, 60
1, 38519, Note_on_c, 9, 51, 70
1, 38520, Note_on_c, 9, 44, 105
1, 38532, Note_on_c, 0, 70, 67
1, 38556, Note_on_c, 0, 70, 0
1, 38572, Note_on_c, 0, 69, 50
1, 38581, Note_on_c, 0, 69, 0
1, 38607, Note_on_c, 0, 70, 81
1, 38621, Note_on_c, 9, 51, 0
1, 38633, Note_on_c, 1, 40, 51
1, 38633, Note_on_c, 2, 40, 51
1, 38636, Note_on_c, 0, 70, 0
1, 38637, Note_on_c, 2, 34, 0
1, 38637, Note_on_c, 1, 34, 0
1, 38640, Note_on_c, 9, 44, 0
1, 38645, Note_on_c, 0, 57, 0
1, 38648, Note_on_c, 0, 62, 0
1, 38648, Note_on_c, 0, 53, 0
1, 38651, Note_on_c, 0, 69, 46
1, 38654, Note_on_c, 0, 58, 0
1, 38677, Note_on_c, 0, 69, 0
1, 38689, Note_on_c, 0, 70, 68
1, 38715, Note_on_c, 0, 70, 0
1, 38725, Note_on_c, 9, 51, 54
1, 38727, Note_on_c, 0, 69, 52
1, 38738, Note_on_c, 9, 51, 0
1, 38746, Note_on_c, 1, 40, 0
1, 38746, Note_on_c, 2, 40, 0
1, 38748, Note_on_c, 0, 69, 0
1, 38750, Note_on_c, 1, 34, 52
1, 38750, Note_on_c, 2, 34, 52
1, 38754, Note_on_c, 0, 62, 26
1, 38756, Note_on_c, 9, 51, 69
1, 38757, Note_on_c, 0, 58, 20
1, 38760, Note_on_c, 9, 44, 107
1, 38765, Note_on_c, 0, 70, 56
1, 38786, Note_on_c, 0, 70, 0
1, 38792, Note_on_c, 0, 58, 0
1, 38795, Note_on_c, 0, 62, 0
1, 38810, Note_on_c, 0, 71, 50
1, 38829, Note_on_c, 0, 71, 0
1, 38845, Note_on_c, 0, 72, 81
1, 38847, Note_on_c, 9, 51, 0
1, 38869, Note_on_c, 1, 33, 53
1, 38869, Note_on_c, 2, 33, 53
1, 38870, Note_on_c, 1, 34, 0
1, 38870, Note_on_c, 2, 34, 0
1, 38874, Note_on_c, 0, 65, 38
1, 38876, Note_on_c, 0, 61, 32
1, 38878, Note_on_c, 0, 60, 30
1, 38879, Note_on_c, 0, 72, 0
1, 38880, Note_on_c, 9, 44, 0
1, 38880, Note_on_c, 9, 51, 77
1, 38889, Note_on_c, 0, 60, 0
1, 38891, Note_on_c, 0, 65, 0
1, 38894, Note_on_c, 0, 61, 0
1, 38968, Note_on_c, 9, 51, 0
1, 38992, Note_on_c, 1, 39, 63
1, 38992, Note_on_c, 2, 39, 63
1, 38994, Note_on_c, 1, 33, 0
1, 38994, Note_on_c, 2, 33, 0
1, 39000, Note_on_c, 9, 44, 100
1, 39000, Note_on_c, 9, 51, 75
1, 39069, Note_on_c, 9, 51, 0
1, 39078, Note_on_c, 2, 39, 0
1, 39078, Note_on_c, 1, 39, 0
1, 39081, Note_on_c, 1, 37, 33
1, 39081, Note_on_c, 2, 37, 33
1, 39082, Note_on_c, 9, 37, 48
1, 39083, Note_on_c, 0, 65, 65
1, 39083, Note_on_c, 0, 86, 95
1, 39083, Note_on_c, 0, 58, 35
1, 39086, Note_on_c, 0, 60, 43
1, 39086, Note_on_c, 0, 54, 31
1, 39093, Note_on_c, 9, 51, 52
1, 39102, Note_on_c, 0, 86, 0
1, 39103, Note_on_c, 9, 37, 0
1, 39109, Note_on_c, 2, 37, 0
1, 39109, Note_on_c, 1, 37, 0
1, 39111, Note_on_c, 9, 51, 0
1, 39114, Note_on_c, 0, 65, 0
1, 39114, Note_on_c, 1, 38, 53
1, 39114, Note_on_c, 2, 38, 53
1, 39120, Note_on_c, 9, 44, 0
1, 39122, Note_on_c, 0, 54, 0
1, 39122, Note_on_c, 9, 51, 75
1, 39126, Note_on_c, 0, 82, 59
1, 39139, Note_on_c, 0, 58, 0
1, 39141, Note_on_c, 0, 60, 0
1, 39146, Note_on_c, 0, 82, 0
1, 39164, Note_on_c, 0, 77, 60
1, 39166, Note_on_c, 9, 37, 67
1, 39184, Note_on_c, 0, 77, 0
1, 39199, Note_on_c, 0, 65, 48
1, 39201, Note_on_c, 0, 74, 49
1, 39202, Note_on_c, 9, 37, 0
1, 39202, Note_on_c, 0, 60, 40
1, 39206, Note_on_c, 0, 54, 33
1, 39206, Note_on_c, 0, 58, 31
1, 39208, Note_on_c, 9, 51, 0
1, 39221, Note_on_c, 0, 74, 0
1, 39235, Note_on_c, 1, 38, 0
1, 39235, Note_on_c, 2, 38, 0
1, 39235, Note_on_c, 1, 44, 60
1, 39235, Note_on_c, 2, 44, 60
1, 39236, Note_on_c, 9, 51, 79
1, 39240, Note_on_c, 9, 44, 103
1, 39244, Note_on_c, 9, 37, 77
1, 39248, Note_on_c, 0, 65, 0
1, 39259, Note_on_c, 0, 72, 16
1, 39260, Note_on_c, 0, 60, 0
1, 39271, Note_on_c, 0, 72, 0
1, 39276, Note_on_c, 9, 37, 0
1, 39288, Note_on_c, 0, 70, 59
1, 39308, Note_on_c, 0, 70, 0
1, 39311, Note_on_c, 0, 54, 0
1, 39312, Note_on_c, 9, 51, 0
1, 39314, Note_on_c, 0, 58, 0
1, 39316, Note_on_c, 1, 42, 40
1, 39316, Note_on_c, 2, 42, 40
1, 39318, Note_on_c, 9, 37, 85
1, 39319, Note_on_c, 1, 37, 27
1, 39319, Note_on_c, 2, 37, 27
1, 39322, Note_on_c, 1, 44, 0
1, 39322, Note_on_c, 2, 44, 0
1, 39324, Note_on_c, 9, 51, 60
1, 39329, Note_on_c, 0, 69, 57
1, 39334, Note_on_c, 2, 37, 0
1, 39334, Note_on_c, 1, 37, 0
1, 39340, Note_on_c, 9, 51, 0
1, 39344, Note_on_c, 2, 42, 0
1, 39344, Note_on_c, 1, 42, 0
1, 39347, Note_on_c, 9, 37, 0
1, 39348, Note_on_c, 0, 58, 23
1, 39349, Note_on_c, 0, 62, 32
1, 39350, Note_on_c, 0, 69, 0
1, 39350, Note_on_c, 0, 57, 27
1, 39354, Note_on_c, 0, 55, 22
1, 39354, Note_on_c, 1, 43, 57
1, 39354, Note_on_c, 2, 43, 57
1, 39358, Note_on_c, 9, 51, 73
1, 39360, Note_on_c, 9, 44, 0
1, 39371, Note_on_c, 0, 70, 69
1, 39392, Note_on_c, 9, 37, 85
1, 39397, Note_on_c, 0, 70, 0
1, 39423, Note_on_c, 9, 37, 0
1, 39428, Note_on_c, 0, 62, 0
1, 39431, Note_on_c, 0, 57, 0
1, 39443, Note_on_c, 0, 58, 0
1, 39444, Note_on_c, 9, 51, 0
1, 39447, Note_on_c, 0, 69, 80
1, 39462, Note_on_c, 2, 43, 0
1, 39462, Note_on_c, 1, 43, 0
1, 39469, Note_on_c, 9, 37, 85
1, 39475, Note_on_c, 1, 43, 55
1, 39475, Note_on_c, 2, 43, 55
1, 39476, Note_on_c, 0, 69, 0
1, 39476, Note_on_c, 9, 51, 83
1, 39480, Note_on_c, 9, 44, 105
1, 39489, Note_on_c, 0, 58, 25
1, 39489, Note_on_c, 0, 66, 32
1, 39491, Note_on_c, 0, 62, 22
1, 39497, Note_on_c, 9, 37, 0
1, 39511, Note_on_c, 0, 66, 0
1, 39523, Note_on_c, 0, 67, 47
1, 39544, Note_on_c, 0, 67, 0
1, 39552, Note_on_c, 9, 37, 85
1, 39557, Note_on_c, 0, 69, 65
1, 39560, Note_on_c, 9, 51, 0
1, 39573, Note_on_c, 9, 37, 0
1, 39575, Note_on_c, 0, 69, 0
1, 39586, Note_on_c, 0, 62, 0
1, 39586, Note_on_c, 0, 70, 56
1, 39589, Note_on_c, 2, 43, 0
1, 39589, Note_on_c, 1, 43, 0
1, 39592, Note_on_c, 0, 55, 0
1, 39599, Note_on_c, 9, 51, 78
1, 39600, Note_on_c, 9, 44, 0
1, 39600, Note_on_c, 1, 42, 60
1, 39600, Note_on_c, 2, 42, 60
1, 39601, Note_on_c, 0, 70, 0
1, 39606, Note_on_c, 0, 58, 0
1, 39619, Note_on_c, 0, 72, 44
1, 39640, Note_on_c, 9, 37, 77
1, 39641, Pitch_bend_c, 1, 8192
1, 39641, Pitch_bend_c, 2, 8192
1, 39642, Pitch_bend_c, 1, 8192
1, 39642, Pitch_bend_c, 2, 8192
1, 39643, Note_on_c, 0, 72, 0
1, 39644, Pitch_bend_c, 1, 8712
1, 39644, Pitch_bend_c, 1, 8972
1, 39644, Pitch_bend_c, 2, 8712
1, 39644, Pitch_bend_c, 2, 8972
1, 39646, Pitch_bend_c, 1, 9232
1, 39646, Pitch_bend_c, 2, 9232
1, 39648, Pitch_bend_c, 1, 9622
1, 39648, Pitch_bend_c, 1, 9752
1, 39648, Pitch_bend_c, 2, 9622
1, 39648, Pitch_bend_c, 2, 9752
1, 39650, Pitch_bend_c, 1, 10012
1, 39650, Pitch_bend_c, 2, 10012
1, 39651, Note_on_c, 0, 73, 56
1, 39652, Pitch_bend_c, 1, 10142
1, 39652, Pitch_bend_c, 2, 10142
1, 39658, Pitch_bend_c, 1, 9882
1, 39658, Pitch_bend_c, 2, 9882
1, 39659, Note_on_c, 9, 37, 0
1, 39659, Pitch_bend_c, 1, 9752
1, 39659, Pitch_bend_c, 2, 9752
1, 39661, Pitch_bend_c, 1, 9492
1, 39661, Pitch_bend_c, 2, 9492
1, 39662, Pitch_bend_c, 1, 9362
1, 39662, Pitch_bend_c, 2, 9362
1, 39663, Pitch_bend_c, 1, 9102
1, 39663, Pitch_bend_c, 2, 9102
1, 39665, Pitch_bend_c, 1, 8842
1, 39665, Pitch_bend_c, 2, 8842
1, 39666, Pitch_bend_c, 1, 8192
1, 39666, Pitch_bend_c, 1, 8192
1, 39666, Pitch_bend_c, 2, 8192
1, 39666, Pitch_bend_c, 2, 8192
1, 39673, Note_on_c, 0, 73, 0
1, 39680, Note_on_c, 0, 75, 39
1, 39694, Note_on_c, 0, 75, 0
1, 39696, Note_on_c, 9, 51, 0
1, 39700, Pitch_bend_c, 1, 8192
1, 39700, Pitch_bend_c, 2, 8192
1, 39701, Pitch_bend_c, 1, 8192
1, 39701, Pitch_bend_c, 2, 8192
1, 39702, Pitch_bend_c, 1, 8712
1, 39702, Pitch_bend_c, 2, 8712
1, 39704, Pitch_bend_c, 1, 9102
1, 39704, Pitch_bend_c, 2, 9102
1, 39705, Pitch_bend_c, 1, 9362
1, 39705, Pitch_bend_c, 2, 9362
1, 39706, Pitch_bend_c, 1, 9622
1, 39706, Pitch_bend_c, 2, 9622
1, 39707, Pitch_bend_c, 1, 9882
1, 39707, Pitch_bend_c, 2, 9882
1, 39708, Pitch_bend_c, 1, 10012
1, 39708, Pitch_bend_c, 2, 10012
1, 39710, Pitch_bend_c, 1, 10142
1, 39710, Pitch_bend_c, 2, 10142
1, 39711, Pitch_bend_c, 1, 10272
1, 39711, Pitch_bend_c, 2, 10272
1, 39712, Note_on_c, 0, 76, 50
1, 39712, Note_on_c, 0, 63, 31
1, 39716, Pitch_bend_c, 1, 10142
1, 39716, Pitch_bend_c, 2, 10142
1, 39717, Pitch_bend_c, 1, 10012
1, 39717, Pitch_bend_c, 2, 10012
1, 39719, Note_on_c, 0, 58, 21
1, 39719, Pitch_bend_c, 1, 9752
1, 39719, Pitch_bend_c, 1, 9492
1, 39719, Pitch_bend_c, 2, 9752
1, 39719, Pitch_bend_c, 2, 9492
1, 39720, Note_on_c, 9, 44, 103
1, 39721, Pitch_bend_c, 1, 9232
1, 39721, Pitch_bend_c, 2, 9232
1, 39722, Pitch_bend_c, 1, 8842
1, 39722, Pitch_bend_c, 2, 8842
1, 39724, Pitch_bend_c, 1, 8192
1, 39724, Pitch_bend_c, 1, 8192
1, 39724, Pitch_bend_c, 2, 8192
1, 39724, Pitch_bend_c, 2, 8192
1, 39724, Note_on_c, 9, 51, 69
1, 39727, Note_on_c, 9, 37, 72
1, 39728, Note_on_c, 0, 76, 0
1, 39730, Note_on_c, 0, 52, 22
1, 39738, Note_on_c, 9, 37, 0
1, 39741, Note_on_c, 0, 78, 42
1, 39771, Note_on_c, 0, 63, 0
1, 39772, Note_on_c, 0, 80, 44
1, 39774, Note_on_c, 0, 78, 0
1, 39799, Note_on_c, 0, 82, 49
1, 39801, Note_on_c, 9, 51, 0
1, 39803, Note_on_c, 0, 80, 0
1, 39811, Note_on_c, 0, 82, 0
1, 39811, Note_on_c, 9, 37, 72
1, 39814, Note_on_c, 9, 53, 76
1, 39827, Note_on_c, 0, 63, 11
1, 39829, Note_on_c, 0, 84, 45
1, 39838, Note_on_c, 9, 37, 0
1, 39838, Note_on_c, 0, 52, 0
1, 39840, Note_on_c, 9, 44, 0
1, 39842, Note_on_c, 1, 42, 0
1, 39842, Note_on_c, 2, 42, 0
1, 39845, Note_on_c, 1, 41, 51
1, 39845, Note_on_c, 2, 41, 51
1, 39846, Note_on_c, 9, 53, 0
1, 39846, Note_on_c, 0, 84, 0
1, 39848, Note_on_c, 0, 58, 0
1, 39848, Note_on_c, 0, 63, 0
1, 39855, Note_on_c, 9, 51, 47
1, 39859, Note_on_c, 0, 85, 42
1, 39873, Note_on_c, 0, 85, 0
1, 39893, Note_on_c, 0, 86, 51
1, 39901, Note_on_c, 0, 86, 0
1, 39922, Note_on_c, 0, 87, 42
1, 39922, Note_on_c, 1, 36, 45
1, 39922, Note_on_c, 2, 36, 45
1, 39931, Note_on_c, 9, 34, 34
1, 39933, Note_on_c, 2, 36, 0
1, 39933, Note_on_c, 1, 36, 0
1, 39939, Note_on_c, 0, 87, 0
1, 39940, Note_on_c, 9, 51, 0
1, 39943, Note_on_c, 1, 41, 0
1, 39943, Note_on_c, 9, 34, 0
1, 39943, Note_on_c, 2, 41, 0
1, 39950, Note_on_c, 0, 89, 73
1, 39952, Note_on_c, 0, 63, 33
1, 39956, Note_on_c, 0, 60, 33
1, 39958, Note_on_c, 1, 33, 58
1, 39958, Note_on_c, 2, 33, 58
1, 39960, Note_on_c, 9, 44, 102
1, 39961, Note_on_c, 0, 56, 28
1, 39963, Note_on_c, 9, 51, 54
1, 39966, Note_on_c, 0, 53, 22
1, 39979, Note_on_c, 0, 89, 0
1, 39981, Note_on_c, 0, 87, 63
1, 39997, Note_on_c, 0, 87, 0
1, 40008, Note_on_c, 0, 84, 62
1, 40035, Note_on_c, 0, 84, 0
1, 40039, Note_on_c, 0, 80, 51
1, 40045, Note_on_c, 9, 34, 26
1, 40058, Note_on_c, 0, 80, 0
1, 40058, Note_on_c, 9, 51, 0
1, 40059, Note_on_c, 9, 34, 0
1, 40063, Note_on_c, 0, 60, 0
1, 40065, Note_on_c, 0, 53, 0
1, 40075, Note_on_c, 0, 79, 41
1, 40076, Note_on_c, 2, 33, 0
1, 40076, Note_on_c, 1, 33, 0
1, 40079, Note_on_c, 0, 56, 0
1, 40080, Note_on_c, 9, 44, 0
1, 40080, Note_on_c, 1, 34, 46
1, 40080, Note_on_c, 2, 34, 46
1, 40082, Note_on_c, 0, 79, 0
1, 40088, Note_on_c, 0, 63, 0
1, 40089, Note_on_c, 9, 51, 72
1, 40099, Note_on_c, 0, 86, 81
1, 40121, Note_on_c, 0, 86, 0
1, 40129, Note_on_c, 0, 82, 53
1, 40134, Note_on_c, 0, 83, 82
1, 40136, Note_on_c, 0, 82, 0
1, 40152, Note_on_c, 0, 83, 0
1, 40160, Note_on_c, 0, 80, 60
1, 40173, Note_on_c, 0, 66, 21
1, 40174, Note_on_c, 0, 62, 17
1, 40177, Note_on_c, 9, 51, 0
1, 40182, Note_on_c, 0, 56, 31
1, 40184, Note_on_c, 0, 80, 0
1, 40194, Note_on_c, 0, 77, 54
1, 40200, Note_on_c, 9, 44, 95
1, 40202, Note_on_c, 2, 34, 0
1, 40202, Note_on_c, 1, 34, 0
1, 40202, Note_on_c, 1, 38, 55
1, 40202, Note_on_c, 2, 38, 55
1, 40203, Note_on_c, 0, 77, 0
1, 40207, Note_on_c, 9, 51, 74
1, 40272, Note_on_c, 0, 71, 31
1, 40273, Note_on_c, 9, 51, 0
1, 40277, Note_on_c, 0, 62, 0
1, 40283, Note_on_c, 0, 71, 0
1, 40292, Note_on_c, 0, 66, 0
1, 40293, Note_on_c, 1, 38, 0
1, 40293, Note_on_c, 2, 38, 0
1, 40293, Note_on_c, 9, 51, 56
1, 40302, Note_on_c, 0, 77, 72
1, 40311, Note_on_c, 9, 51, 0
1, 40312, Note_on_c, 0, 56, 0
1, 40316, Note_on_c, 0, 65, 31
1, 40319, Note_on_c, 1, 39, 69
1, 40319, Note_on_c, 2, 39, 69
1, 40320, Note_on_c, 9, 44, 0
1, 40320, Note_on_c, 0, 62, 27
1, 40324, Note_on_c, 0, 77, 0
1, 40325, Note_on_c, 0, 60, 18
1, 40325, Note_on_c, 9, 51, 76
1, 40327, Note_on_c, 0, 55, 24
1, 40335, Control_c, 1, 1, 6
1, 40335, Control_c, 2, 1, 6
1, 40336, Control_c, 1, 1, 9
1, 40336, Control_c, 1, 1, 13
1, 40336, Control_c, 1, 1, 16
1, 40336, Control_c, 2, 1, 9
1, 40336, Control_c, 2, 1, 13
1, 40336, Control_c, 2, 1, 16
1, 40337, Control_c, 1, 1, 19
1, 40337, Control_c, 2, 1, 19
1, 40338, Control_c, 1, 1, 22
1, 40338, Control_c, 2, 1, 22
1, 40339, Control_c, 1, 1, 25
1, 40339, Control_c, 2, 1, 25
1, 40340, Control_c, 1, 1, 27
1, 40340, Control_c, 2, 1, 27
1, 40341, Note_on_c, 0, 74, 51
1, 40341, Control_c, 1, 1, 30
1, 40341, Control_c, 1, 1, 32
1, 40341, Control_c, 2, 1, 30
1, 40341, Control_c, 2, 1, 32
1, 40342, Control_c, 1, 1, 34
1, 40342, Control_c, 1, 1, 36
1, 40342, Control_c, 2, 1, 34
1, 40342, Control_c, 2, 1, 36
1, 40343, Control_c, 1, 1, 38
1, 40343, Control_c, 1, 1, 40
1, 40343, Control_c, 2, 1, 38
1, 40343, Control_c, 2, 1, 40
1, 40344, Control_c, 1, 1, 42
1, 40344, Control_c, 2, 1, 42
1, 40345, Control_c, 1, 1, 44
1, 40345, Control_c, 2, 1, 44
1, 40346, Control_c, 1, 1, 46
1, 40346, Control_c, 2, 1, 46
1, 40347, Control_c, 1, 1, 48
1, 40347, Control_c, 1, 1, 50
1, 40347, Control_c, 2, 1, 48
1, 40347, Control_c, 2, 1, 50
1, 40348, Control_c, 1, 1, 52
1, 40348, Control_c, 1, 1, 54
1, 40348, Control_c, 2, 1, 52
1, 40348, Control_c, 2, 1, 54
1, 40349, Note_on_c, 0, 74, 0
1, 40349, Control_c, 1, 1, 56
1, 40349, Control_c, 2, 1, 56
1, 40350, Control_c, 1, 1, 59
1, 40350, Control_c, 1, 1, 61
1, 40350, Control_c, 2, 1, 59
1, 40350, Control_c, 2, 1, 61
1, 40352, Control_c, 1, 1, 63
1, 40352, Control_c, 1, 1, 66
1, 40352, Control_c, 2, 1, 63
1, 40352, Control_c, 2, 1, 66
1, 40353, Control_c, 1, 1, 68
1, 40353, Control_c, 1, 1, 71
1, 40353, Control_c, 2, 1, 68
1, 40353, Control_c, 2, 1, 71
1, 40356, Control_c, 1, 1, 73
1, 40356, Control_c, 1, 1, 75
1, 40356, Control_c, 1, 1, 77
1, 40356, Control_c, 1, 1, 79
1, 40356, Control_c, 1, 1, 82
1, 40356, Control_c, 2, 1, 73
1, 40356, Control_c, 2, 1, 75
1, 40356, Control_c, 2, 1, 77
1, 40356, Control_c, 2, 1, 79
1, 40356, Control_c, 2, 1, 82
1, 40360, Control_c, 1, 1, 84
1, 40360, Control_c, 1, 1, 86
1, 40360, Control_c, 1, 1, 88
1, 40360, Control_c, 1, 1, 90
1, 40360, Control_c, 1, 1, 92
1, 40360, Control_c, 2, 1, 84
1, 40360, Control_c, 2, 1, 86
1, 40360, Control_c, 2, 1, 88
1, 40360, Control_c, 2, 1, 90
1, 40360, Control_c, 2, 1, 92
1, 40361, Control_c, 1, 1, 94
1, 40361, Control_c, 2, 1, 94
1, 40362, Control_c, 1, 1, 96
1, 40362, Control_c, 2, 1, 96
1, 40365, Control_c, 1, 1, 98
1, 40365, Control_c, 1, 1, 99
1, 40365, Control_c, 1, 1, 101
1, 40365, Control_c, 1, 1, 103
1, 40365, Control_c, 1, 1, 105
1, 40365, Control_c, 2, 1, 98
1, 40365, Control_c, 2, 1, 99
1, 40365, Control_c, 2, 1, 101
1, 40365, Control_c, 2, 1, 103
1, 40365, Control_c, 2, 1, 105
1, 40367, Control_c, 1, 1, 106
1, 40367, Control_c, 1, 1, 108
1, 40367, Control_c, 1, 1, 109
1, 40367, Control_c, 2, 1, 106
1, 40367, Control_c, 2, 1, 108
1, 40367, Control_c, 2, 1, 109
1, 40369, Control_c, 1, 1, 111
1, 40369, Control_c, 1, 1, 112
1, 40369, Control_c, 1, 1, 113
1, 40369, Control_c, 2, 1, 111
1, 40369, Control_c, 2, 1, 112
1, 40369, Control_c, 2, 1, 113
1, 40371, Control_c, 1, 1, 115
1, 40371, Control_c, 2, 1, 115
1, 40372, Note_on_c, 0, 75, 67
1, 40372, Control_c, 1, 1, 116
1, 40372, Control_c, 1, 1, 117
1, 40372, Control_c, 2, 1, 116
1, 40372, Control_c, 2, 1, 117
1, 40374, Control_c, 1, 1, 118
1, 40374, Control_c, 1, 1, 119
1, 40374, Control_c, 1, 1, 120
1, 40374, Control_c, 1, 1, 121
1, 40374, Control_c, 1, 1, 122
1, 40374, Control_c, 2, 1, 118
1, 40374, Control_c, 2, 1, 119
1, 40374, Control_c, 2, 1, 120
1, 40374, Control_c, 2, 1, 121
1, 40374, Control_c, 2, 1, 122
1, 40376, Control_c, 1, 1, 124
1, 40376, Control_c, 2, 1, 124
1, 40377, Control_c, 1, 1, 125
1, 40377, Control_c, 2, 1, 125
1, 40380, Control_c, 1, 1, 126
1, 40380, Control_c, 2, 1, 126
1, 40382, Control_c, 1, 1, 127
1, 40382, Control_c, 2, 1, 127
1, 40397, Control_c, 1, 1, 126
1, 40397, Control_c, 2, 1, 126
1, 40399, Control_c, 1, 1, 125
1, 40399, Control_c, 2, 1, 125
1, 40400, Note_on_c, 9, 35, 43
1, 40401, Control_c, 1, 1, 123
1, 40401, Control_c, 2, 1, 123
1, 40403, Control_c, 1, 1, 121
1, 40403, Control_c, 2, 1, 121
1, 40404, Control_c, 1, 1, 120
1, 40404, Control_c, 1, 1, 119
1, 40404, Control_c, 1, 1, 118
1, 40404, Control_c, 2, 1, 120
1, 40404, Control_c, 2, 1, 119
1, 40404, Control_c, 2, 1, 118
1, 40405, Control_c, 1, 1, 117
1, 40405, Control_c, 2, 1, 117
1, 40406, Control_c, 1, 1, 116
1, 40406, Control_c, 2, 1, 116
1, 40407, Control_c, 1, 1, 114
1, 40407, Control_c, 2, 1, 114
1, 40408, Control_c, 1, 1, 113
1, 40408, Control_c, 1, 1, 112
1, 40408, Control_c, 2, 1, 113
1, 40408, Control_c, 2, 1, 112
1, 40409, Control_c, 1, 1, 111
1, 40409, Control_c, 1, 1, 109
1, 40409, Control_c, 2, 1, 111
1, 40409, Control_c, 2, 1, 109
1, 40410, Note_on_c, 9, 35, 0
1, 40410, Control_c, 1, 1, 108
1, 40410, Control_c, 2, 1, 108
1, 40411, Control_c, 1, 1, 106
1, 40411, Control_c, 2, 1, 106
1, 40412, Note_on_c, 9, 51, 0
1, 40412, Control_c, 1, 1, 105
1, 40412, Control_c, 1, 1, 104
1, 40412, Control_c, 2, 1, 105
1, 40412, Control_c, 2, 1, 104
1, 40413, Control_c, 1, 1, 102
1, 40413, Control_c, 1, 1, 100
1, 40413, Control_c, 2, 1, 102
1, 40413, Control_c, 2, 1, 100
1, 40414, Control_c, 1, 1, 99
1, 40414, Control_c, 2, 1, 99
1, 40415, Control_c, 1, 1, 97
1, 40415, Control_c, 2, 1, 97
1, 40416, Control_c, 1, 1, 95
1, 40416, Control_c, 1, 1, 94
1, 40416, Control_c, 2, 1, 95
1, 40416, Control_c, 2, 1, 94
1, 40417, Control_c, 1, 1, 91
1, 40417, Control_c, 2, 1, 91
1, 40418, Control_c, 1, 1, 90
1, 40418, Control_c, 1, 1, 88
1, 40418, Control_c, 2, 1, 90
1, 40418, Control_c, 2, 1, 88
1, 40419, Control_c, 1, 1, 86
1, 40419, Control_c, 1, 1, 84
1, 40419, Control_c, 2, 1, 86
1, 40419, Control_c, 2, 1, 84
1, 40420, Control_c, 1, 1, 82
1, 40420, Control_c, 2, 1, 82
1, 40421, Control_c, 1, 1, 80
1, 40421, Control_c, 2, 1, 80
1, 40422, Control_c, 1, 1, 78
1, 40422, Control_c, 2, 1, 78
1, 40423, Control_c, 1, 1, 76
1, 40423, Control_c, 1, 1, 74
1, 40423, Control_c, 2, 1, 76
1, 40423, Control_c, 2, 1, 74
1, 40424, Control_c, 1, 1, 71
1, 40424, Control_c, 1, 1, 69
1, 40424, Control_c, 2, 1, 71
1, 40424, Control_c, 2, 1, 69
1, 40425, Control_c, 1, 1, 67
1, 40425, Control_c, 2, 1, 67
1, 40426, Control_c, 1, 1, 65
1, 40426, Control_c, 2, 1, 65
1, 40427, Control_c, 1, 1, 62
1, 40427, Control_c, 1, 1, 60
1, 40427, Control_c, 2, 1, 62
1, 40427, Control_c, 2, 1, 60
1, 40428, Control_c, 1, 1, 57
1, 40428, Control_c, 2, 1, 57
1, 40429, Control_c, 1, 1, 55
1, 40429, Control_c, 1, 1, 52
1, 40429, Control_c, 2, 1, 55
1, 40429, Control_c, 2, 1, 52
1, 40430, Control_c, 1, 1, 50
1, 40430, Control_c, 1, 1, 47
1, 40430, Control_c, 2, 1, 50
1, 40430, Control_c, 2, 1, 47
1, 40431, Control_c, 1, 1, 44
1, 40431, Control_c, 2, 1, 44
1, 40432, Control_c, 1, 1, 41
1, 40432, Control_c, 2, 1, 41
1, 40433, Control_c, 1, 1, 39
1, 40433, Control_c, 1, 1, 35
1, 40433, Control_c, 2, 1, 39
1, 40433, Control_c, 2, 1, 35
1, 40434, Control_c, 1, 1, 33
1, 40434, Control_c, 2, 1, 33
1, 40435, Control_c, 1, 1, 29
1, 40435, Control_c, 1, 1, 26
1, 40435, Control_c, 2, 1, 29
1, 40435, Control_c, 2, 1, 26
1, 40436, Control_c, 1, 1, 23
1, 40436, Control_c, 1, 1, 19
1, 40436, Control_c, 2, 1, 23
1, 40436, Control_c, 2, 1, 19
1, 40437, Control_c, 1, 1, 16
1, 40437, Control_c, 2, 1, 16
1, 40438, Control_c, 1, 1, 12
1, 40438, Control_c, 1, 1, 9
1, 40438, Control_c, 2, 1, 12
1, 40438, Control_c, 2, 1, 9
1, 40439, Control_c, 1, 1, 5
1, 40439, Control_c, 2, 1, 5
1, 40440, Control_c, 1, 1, 2
1, 40440, Control_c, 2, 1, 2
1, 40440, Note_on_c, 9, 44, 98
1, 40441, Control_c, 1, 1, 0
1, 40441, Control_c, 2, 1, 0
1, 40442, Note_on_c, 9, 35, 28
1, 40443, Note_on_c, 9, 51, 79
1, 40463, Note_on_c, 9, 35, 0
1, 40518, Note_on_c, 9, 51, 0
1, 40537, Note_on_c, 9, 51, 51
1, 40549, Note_on_c, 1, 39, 0
1, 40549, Note_on_c, 2, 39, 0
1, 40555, Note_on_c, 9, 51, 0
1, 40560, Note_on_c, 9, 44, 0
1, 40563, Note_on_c, 1, 39, 65
1, 40563, Note_on_c, 2, 39, 65
1, 40568, Note_on_c, 9, 51, 83
1, 40573, Note_on_c, 0, 67, 26
1, 40574, Control_c, 0, 64, 127
1, 40627, Control_c, 1, 1, 4
1, 40627, Control_c, 2, 1, 4
1, 40628, Control_c, 1, 1, 6
1, 40628, Control_c, 1, 1, 9
1, 40628, Control_c, 1, 1, 12
1, 40628, Control_c, 2, 1, 6
1, 40628, Control_c, 2, 1, 9
1, 40628, Control_c, 2, 1, 12
1, 40629, Control_c, 1, 1, 14
1, 40629, Control_c, 2, 1, 14
1, 40630, Control_c, 1, 1, 17
1, 40630, Control_c, 2, 1, 17
1, 40631, Control_c, 1, 1, 20
1, 40631, Control_c, 2, 1, 20
1, 40632, Control_c, 1, 1, 23
1, 40632, Control_c, 2, 1, 23
1, 40633, Control_c, 1, 1, 26
1, 40633, Control_c, 1, 1, 29
1, 40633, Control_c, 2, 1, 26
1, 40633, Control_c, 2, 1, 29
1, 40634, Control_c, 1, 1, 32
1, 40634, Control_c, 1, 1, 35
1, 40634, Control_c, 2, 1, 32
1, 40634, Control_c, 2, 1, 35
1, 40635, Control_c, 1, 1, 37
1, 40635, Control_c, 2, 1, 37
1, 40636, Control_c, 1, 1, 40
1, 40636, Control_c, 2, 1, 40
1, 40637, Control_c, 1, 1, 43
1, 40637, Control_c, 1, 1, 46
1, 40637, Control_c, 2, 1, 43
1, 40637, Control_c, 2, 1, 46
1, 40638, Control_c, 1, 1, 49
1, 40638, Control_c, 2, 1, 49
1, 40639, Control_c, 1, 1, 52
1, 40639, Control_c, 1, 1, 54
1, 40639, Control_c, 1, 1, 57
1, 40639, Control_c, 2, 1, 52
1, 40639, Control_c, 2, 1, 54
1, 40639, Control_c, 2, 1, 57
1, 40640, Control_c, 1, 1, 60
1, 40640, Control_c, 2, 1, 60
1, 40641, Control_c, 1, 1, 63
1, 40641, Control_c, 2, 1, 63
1, 40642, Control_c, 1, 1, 66
1, 40642, Control_c, 1, 1, 68
1, 40642, Control_c, 2, 1, 66
1, 40642, Control_c, 2, 1, 68
1, 40643, Control_c, 1, 1, 71
1, 40643, Control_c, 2, 1, 71
1, 40644, Control_c, 1, 1, 74
1, 40644, Control_c, 2, 1, 74
1, 40645, Control_c, 1, 1, 76
1, 40645, Control_c, 2, 1, 76
1, 40646, Control_c, 1, 1, 79
1, 40646, Control_c, 1, 1, 81
1, 40646, Control_c, 2, 1, 79
1, 40646, Control_c, 2, 1, 81
1, 40647, Control_c, 1, 1, 84
1, 40647, Control_c, 1, 1, 87
1, 40647, Control_c, 2, 1, 84
1, 40647, Control_c, 2, 1, 87
1, 40648, Control_c, 1, 1, 89
1, 40648, Control_c, 2, 1, 89
1, 40649, Control_c, 1, 1, 91
1, 40649, Control_c, 2, 1, 91
1, 40649, Note_on_c, 9, 35, 31
1, 40650, Control_c, 1, 1, 93
1, 40650, Control_c, 1, 1, 95
1, 40650, Control_c, 2, 1, 93
1, 40650, Control_c, 2, 1, 95
1, 40651, Control_c, 1, 1, 97
1, 40651, Control_c, 1, 1, 99
1, 40651, Control_c, 2, 1, 97
1, 40651, Control_c, 2, 1, 99
1, 40652, Control_c, 1, 1, 101
1, 40652, Control_c, 2, 1, 101
1, 40653, Control_c, 1, 1, 103
1, 40653, Control_c, 2, 1, 103
1, 40654, Control_c, 1, 1, 105
1, 40654, Control_c, 1, 1, 106
1, 40654, Control_c, 2, 1, 105
1, 40654, Control_c, 2, 1, 106
1, 40655, Control_c, 1, 1, 108
1, 40655, Control_c, 2, 1, 108
1, 40656, Control_c, 1, 1, 110
1, 40656, Control_c, 2, 1, 110
1, 40657, Control_c, 1, 1, 112
1, 40657, Control_c, 1, 1, 113
1, 40657, Control_c, 2, 1, 112
1, 40657, Control_c, 2, 1, 113
1, 40658, Note_on_c, 9, 51, 0
1, 40658, Control_c, 1, 1, 114
1, 40658, Control_c, 1, 1, 115
1, 40658, Control_c, 2, 1, 114
1, 40658, Control_c, 2, 1, 115
1, 40659, Control_c, 1, 1, 116
1, 40659, Control_c, 2, 1, 116
1, 40660, Control_c, 1, 1, 117
1, 40660, Control_c, 2, 1, 117
1, 40661, Control_c, 1, 1, 118
1, 40661, Control_c, 1, 1, 119
1, 40661, Control_c, 2, 1, 118
1, 40661, Control_c, 2, 1, 119
1, 40663, Control_c, 1, 1, 121
1, 40663, Control_c, 2, 1, 121
1, 40665, Control_c, 1, 1, 122
1, 40665, Control_c, 2, 1, 122
1, 40666, Note_on_c, 9, 35, 0
1, 40671, Note_on_c, 0, 62, 0
1, 40673, Control_c, 1, 1, 121
1, 40673, Control_c, 2, 1, 121
1, 40675, Note_on_c, 0, 67, 0
1, 40675, Control_c, 1, 1, 120
1, 40675, Control_c, 2, 1, 120
1, 40677, Control_c, 1, 1, 118
1, 40677, Control_c, 2, 1, 118
1, 40679, Control_c, 1, 1, 116
1, 40679, Control_c, 2, 1, 116
1, 40680, Note_on_c, 9, 44, 105
1, 40681, Control_c, 1, 1, 114
1, 40681, Control_c, 2, 1, 114
1, 40682, Control_c, 1, 1, 113
1, 40682, Control_c, 2, 1, 113
1, 40683, Note_on_c, 0, 55, 0
1, 40683, Note_on_c, 0, 65, 0
1, 40684, Control_c, 1, 1, 110
1, 40684, Control_c, 2, 1, 110
1, 40685, Control_c, 1, 1, 108
1, 40685, Control_c, 1, 1, 106
1, 40685, Control_c, 2, 1, 108
1, 40685, Control_c, 2, 1, 106
1, 40686, Note_on_c, 0, 60, 0
1, 40686, Control_c, 1, 1, 105
1, 40686, Control_c, 1, 1, 103
1, 40686, Control_c, 2, 1, 105
1, 40686, Control_c, 2, 1, 103
1, 40687, Control_c, 1, 1, 101
1, 40687, Control_c, 2, 1, 101
1, 40688, Control_c, 1, 1, 99
1, 40688, Control_c, 1, 1, 97
1, 40688, Control_c, 2, 1, 99
1, 40688, Control_c, 2, 1, 97
1, 40688, Note_on_c, 9, 51, 75
1, 40689, Control_c, 1, 1, 95
1, 40689, Control_c, 1, 1, 92
1, 40689, Control_c, 2, 1, 95
1, 40689, Control_c, 2, 1, 92
1, 40690, Control_c, 1, 1, 90
1, 40690, Control_c, 2, 1, 90
1, 40691, Control_c, 1, 1, 87
1, 40691, Control_c, 2, 1, 87
1, 40692, Control_c, 1, 1, 84
1, 40692, Control_c, 1, 1, 81
1, 40692, Control_c, 2, 1, 84
1, 40692, Control_c, 2, 1, 81
1, 40693, Control_c, 1, 1, 78
1, 40693, Control_c, 2, 1, 78
1, 40694, Note_on_c, 0, 75, 0
1, 40694, Control_c, 1, 1, 75
1, 40694, Control_c, 2, 1, 75
1, 40694, Note_on_c, 9, 35, 34
1, 40695, Control_c, 1, 1, 71
1, 40695, Control_c, 2, 1, 71
1, 40696, Control_c, 1, 1, 68
1, 40696, Control_c, 1, 1, 64
1, 40696, Control_c, 2, 1, 68
1, 40696, Control_c, 2, 1, 64
1, 40697, Control_c, 1, 1, 60
1, 40697, Control_c, 1, 1, 55
1, 40697, Control_c, 2, 1, 60
1, 40697, Control_c, 2, 1, 55
1, 40698, Control_c, 1, 1, 51
1, 40698, Control_c, 2, 1, 51
1, 40699, Control_c, 1, 1, 47
1, 40699, Control_c, 2, 1, 47
1, 40700, Control_c, 1, 1, 42
1, 40700, Control_c, 1, 1, 37
1, 40700, Control_c, 1, 1, 33
1, 40700, Control_c, 2, 1, 42
1, 40700, Control_c, 2, 1, 37
1, 40700, Control_c, 2, 1, 33
1, 40701, Control_c, 1, 1, 29
1, 40701, Control_c, 2, 1, 29
1, 40702, Control_c, 1, 1, 24
1, 40702, Control_c, 2, 1, 24
1, 40703, Note_on_c, 9, 35, 0
1, 40703, Control_c, 1, 1, 19
1, 40703, Control_c, 2, 1, 19
1, 40704, Control_c, 1, 1, 14
1, 40704, Control_c, 1, 1, 9
1, 40704, Control_c, 1, 1, 5
1, 40704, Control_c, 2, 1, 14
1, 40704, Control_c, 2, 1, 9
1, 40704, Control_c, 2, 1, 5
1, 40705, Control_c, 1, 1, 1
1, 40705, Control_c, 2, 1, 1
1, 40733, Note_on_c, 9, 34, 23
1, 40740, Note_on_c, 9, 34, 0
1, 40758, Note_on_c, 1, 38, 57
1, 40758, Note_on_c, 2, 38, 57
1, 40763, Note_on_c, 9, 51, 0
1, 40770, Note_on_c, 2, 39, 0
1, 40770, Note_on_c, 1, 39, 0
1, 40771, Note_on_c, 9, 35, 43
1, 40786, Note_on_c, 9, 35, 0
1, 40800, Note_on_c, 9, 44, 0
1, 40803, Note_on_c, 1, 38, 0
1, 40803, Note_on_c, 2, 38, 0
1, 40803, Note_on_c, 9, 51, 79
1, 40805, Note_on_c, 1, 34, 61
1, 40805, Note_on_c, 2, 34, 61
1, 40810, Note_on_c, 9, 35, 42
1, 40814, Control_c, 0, 64, 0
1, 40815, Note_on_c, 0, 72, 53
1, 40816, Note_on_c, 0, 80, 36
1, 40817, Note_on_c, 0, 61, 38
1, 40818, Note_on_c, 0, 65, 38
1, 40819, Note_on_c, 0, 84, 50
1, 40819, Control_c, 0, 64, 127
1, 40819, Note_on_c, 0, 77, 44
1, 40820, Note_on_c, 0, 60, 30
1, 40822, Note_on_c, 0, 56, 27
1, 40831, Note_on_c, 9, 35, 0
1, 40844, Note_on_c, 0, 77, 0
1, 40850, Note_on_c, 0, 72, 0
1, 40851, Note_on_c, 0, 84, 0
1, 40860, Note_on_c, 0, 80, 0
1, 40862, Note_on_c, 0, 60, 0
1, 40863, Note_on_c, 0, 65, 0
1, 40863, Note_on_c, 0, 56, 0
1, 40870, Note_on_c, 0, 61, 0
1, 40883, Note_on_c, 9, 51, 0
1, 40891, Note_on_c, 0, 85, 69
1, 40893, Note_on_c, 0, 73, 59
1, 40898, Note_on_c, 0, 61, 37
1, 40898, Note_on_c, 0, 65, 43
1, 40900, Note_on_c, 0, 60, 33
1, 40900, Note_on_c, 0, 56, 25
1, 40904, Control_c, 0, 64, 0
1, 40906, Note_on_c, 0, 73, 0
1, 40908, Note_on_c, 0, 85, 0
1, 40908, Note_on_c, 0, 65, 0
1, 40908, Note_on_c, 0, 60, 0
1, 40910, Note_on_c, 0, 56, 0
1, 40916, Note_on_c, 0, 61, 0
1, 40919, Control_c, 0, 64, 127
1, 40919, Note_on_c, 1, 46, 74
1, 40919, Note_on_c, 2, 46, 74
1, 40920, Note_on_c, 9, 44, 105
1, 40926, Note_on_c, 9, 51, 80
1, 40927, Note_on_c, 1, 47, 38
1, 40927, Note_on_c, 2, 47, 38
1, 40930, Note_on_c, 0, 65, 48
1, 40931, Note_on_c, 0, 87, 71
1, 40931, Note_on_c, 0, 75, 56
1, 40934, Note_on_c, 0, 56, 34
1, 40934, Note_on_c, 0, 61, 46
1, 40945, Note_on_c, 2, 34, 0
1, 40945, Note_on_c, 1, 34, 0
1, 40956, Note_on_c, 0, 65, 0
1, 40969, Note_on_c, 0, 75, 0
1, 40971, Note_on_c, 0, 87, 0
1, 40971, Note_on_c, 0, 61, 0
1, 40984, Note_on_c, 0, 56, 0
1, 41000, Note_on_c, 9, 51, 0
1, 41006, Note_on_c, 0, 76, 60
1, 41007, Note_on_c, 0, 55, 48
1, 41007, Note_on_c, 0, 64, 41
1, 41009, Note_on_c, 0, 88, 52
1, 41009, Note_on_c, 0, 61, 35
1, 41010, Note_on_c, 0, 85, 33
1, 41011, Note_on_c, 0, 81, 53
1, 41013, Control_c, 0, 64, 0
1, 41033, Note_on_c, 2, 47, 0
1, 41033, Note_on_c, 1, 47, 0
1, 41040, Note_on_c, 9, 44, 0
1, 41040, Control_c, 0, 64, 127
1, 41040, Note_on_c, 1, 39, 46
1, 41040, Note_on_c, 2, 39, 46
1, 41046, Note_on_c, 2, 46, 0
1, 41046, Note_on_c, 1, 46, 0
1, 41046, Note_on_c, 0, 76, 0
1, 41046, Note_on_c, 0, 81, 0
1, 41046, Note_on_c, 9, 51, 81
1, 41047, Note_on_c, 9, 40, 46
1, 41051, Note_on_c, 0, 85, 0
1, 41055, Note_on_c, 9, 40, 0
1, 41056, Note_on_c, 0, 88, 0
1, 41071, Note_on_c, 0, 55, 0
1, 41073, Note_on_c, 0, 64, 0
1, 41079, Note_on_c, 0, 61, 0
1, 41088, Note_on_c, 0, 91, 66
1, 41089, Note_on_c, 0, 79, 47
1, 41091, Note_on_c, 0, 55, 50
1, 41091, Note_on_c, 0, 64, 57
1, 41093, Note_on_c, 0, 61, 45
1, 41096, Note_on_c, 0, 86, 39
1, 41103, Note_on_c, 9, 40, 66
1, 41108, Note_on_c, 0, 86, 0
1, 41112, Note_on_c, 9, 40, 0
1, 41119, Note_on_c, 0, 79, 0
1, 41120, Note_on_c, 9, 51, 0
1, 41130, Note_on_c, 0, 91, 0
1, 41134, Note_on_c, 0, 64, 0
1, 41141, Note_on_c, 0, 55, 0
1, 41141, Note_on_c, 0, 61, 0
1, 41160, Note_on_c, 1, 51, 69
1, 41160, Note_on_c, 2, 51, 69
1, 41160, Note_on_c, 9, 46, 98
1, 41162, Control_c, 0, 64, 0
1, 41164, Note_on_c, 9, 51, 79
1, 41164, Note_on_c, 9, 40, 74
1, 41166, Note_on_c, 0, 55, 47
1, 41167, Note_on_c, 2, 39, 0
1, 41167, Note_on_c, 1, 39, 0
1, 41167, Note_on_c, 0, 61, 56
1, 41167, Note_on_c, 0, 82, 72
1, 41168, Note_on_c, 0, 94, 63
1, 41169, Note_on_c, 0, 64, 51
1, 41172, Note_on_c, 9, 40, 0
1, 41180, Control_c, 0, 64, 127
1, 41194, Note_on_c, 0, 82, 0
1, 41195, Note_on_c, 0, 55, 0
1, 41199, Note_on_c, 9, 31, 38
1, 41201, Note_on_c, 0, 64, 0
1, 41207, Note_on_c, 0, 94, 0
1, 41208, Note_on_c, 9, 31, 0
1, 41213, Note_on_c, 0, 61, 0
1, 41224, Note_on_c, 9, 51, 0
1, 41245, Note_on_c, 0, 82, 71
1, 41247, Note_on_c, 0, 94, 57
1, 41249, Note_on_c, 0, 63, 59
1, 41250, Note_on_c, 0, 60, 50
1, 41252, Control_c, 0, 64, 0
1, 41253, Note_on_c, 0, 94, 0
1, 41255, Note_on_c, 0, 58, 27
1, 41257, Note_on_c, 0, 82, 0
1, 41257, Note_on_c, 0, 60, 0
1, 41257, Note_on_c, 9, 51, 48
1, 41259, Note_on_c, 0, 63, 0
1, 41265, Note_on_c, 0, 58, 0
1, 41266, Note_on_c, 9, 51, 0
1, 41266, Note_on_c, 9, 34, 61
1, 41278, Note_on_c, 9, 34, 0
1, 41280, Note_on_c, 9, 46, 0
1, 41280, Note_on_c, 1, 44, 63
1, 41280, Note_on_c, 2, 44, 63
1, 41282, Note_on_c, 1, 51, 0
1, 41282, Note_on_c, 2, 51, 0
1, 41286, Note_on_c, 9, 51, 67
1, 41294, Note_on_c, 9, 57, 46
1, 41294, Note_on_c, 9, 35, 38
1, 41303, Note_on_c, 9, 57, 0
1, 41311, Note_on_c, 9, 35, 0
1, 41369, Note_on_c, 9, 51, 0
1, 41369, Note_on_c, 1, 39, 25
1, 41369, Note_on_c, 2, 39, 25
1, 41394, Note_on_c, 2, 39, 0
1, 41394, Note_on_c, 1, 39, 0
1, 41398, Note_on_c, 1, 50, 65
1, 41398, Note_on_c, 2, 50, 65
1, 41400, Note_on_c, 9, 44, 88
1, 41407, Note_on_c, 9, 51, 80
1, 41415, Note_on_c, 1, 44, 0
1, 41415, Note_on_c, 2, 44, 0
1, 41477, Note_on_c, 9, 51, 0
1, 41479, Note_on_c, 9, 35, 43
1, 41485, Note_on_c, 9, 35, 0
1, 41503, Note_on_c, 1, 50, 0
1, 41503, Note_on_c, 2, 50, 0
1, 41517, Note_on_c, 1, 44, 36
1, 41517, Note_on_c, 2, 44, 36
1, 41520, Note_on_c, 9, 44, 0
1, 41522, Note_on_c, 9, 51, 76
1, 41523, Note_on_c, 0, 58, 62
1, 41525, Note_on_c, 0, 70, 67
1, 41526, Note_on_c, 0, 61, 62
1, 41529, Note_on_c, 0, 66, 54
1, 41533, Note_on_c, 0, 61, 0
1, 41536, Note_on_c, 0, 58, 0
1, 41536, Note_on_c, 0, 66, 0
1, 41541, Note_on_c, 0, 70, 0
1, 41587, Note_on_c, 9, 51, 0
1, 41599, Note_on_c, 1, 39, 44
1, 41599, Note_on_c, 2, 39, 44
1, 41609, Note_on_c, 2, 39, 0
1, 41609, Note_on_c, 1, 39, 0
1, 41640, Note_on_c, 9, 44, 91
1, 41648, Note_on_c, 9, 51, 78
1, 41671, Control_c, 0, 64, 127
1, 41719, Note_on_c, 1, 34, 30
1, 41719, Note_on_c, 2, 34, 30
1, 41723, Note_on_c, 9, 51, 0
1, 41740, Note_on_c, 1, 34, 0
1, 41740, Note_on_c, 2, 34, 0
1, 41757, Note_on_c, 1, 32, 51
1, 41757, Note_on_c, 2, 32, 51
1, 41760, Note_on_c, 9, 44, 0
1, 41761, Note_on_c, 0, 68, 69
1, 41761, Note_on_c, 0, 59, 75
1, 41761, Note_on_c, 0, 64, 71
1, 41762, Control_c, 0, 64, 0
1, 41764, Note_on_c, 0, 54, 62
1, 41765, Note_on_c, 9, 51, 77
1, 41794, Control_c, 0, 64, 127
1, 41846, Note_on_c, 9, 51, 0
1, 41868, Note_on_c, 1, 32, 0
1, 41868, Note_on_c, 2, 32, 0
1, 41878, Note_on_c, 1, 34, 46
1, 41878, Note_on_c, 2, 34, 46
1, 41880, Note_on_c, 9, 46, 93
1, 41889, Note_on_c, 9, 51, 73
1, 41957, Note_on_c, 9, 51, 0
1, 41993, Note_on_c, 2, 34, 0
1, 41993, Note_on_c, 1, 34, 0
1, 42000, Note_on_c, 9, 46, 0
1, 42001, Note_on_c, 1, 36, 46
1, 42001, Note_on_c, 2, 36, 46
1, 42009, Note_on_c, 9, 51, 70
1, 42013, Note_on_c, 0, 64, 0
1, 42025, Note_on_c, 0, 68, 0
1, 42041, Note_on_c, 0, 59, 0
1, 42070, Note_on_c, 9, 51, 0
1, 42082, Note_on_c, 0, 66, 46
1, 42084, Note_on_c, 0, 54, 0
1, 42084, Note_on_c, 0, 62, 49
1, 42084, Note_on_c, 0, 57, 47
1, 42086, Note_on_c, 9, 31, 17
1, 42087, Note_on_c, 0, 52, 37
1, 42089, Control_c, 0, 64, 0
1, 42093, Note_on_c, 9, 31, 0
1, 42111, Note_on_c, 1, 36, 0
1, 42111, Note_on_c, 2, 36, 0
1, 42118, Control_c, 0, 64, 127
1, 42119, Note_on_c, 0, 57, 0
1, 42120, Note_on_c, 9, 44, 87
1, 42121, Note_on_c, 1, 39, 52
1, 42121, Note_on_c, 2, 39, 52
1, 42122, Note_on_c, 9, 46, 66
1, 42123, Note_on_c, 2, 44, 0
1, 42123, Note_on_c, 1, 44, 0
1, 42123, Note_on_c, 9, 51, 78
1, 42126, Note_on_c, 0, 62, 0
1, 42131, Note_on_c, 0, 66, 0
1, 42148, Note_on_c, 9, 46, 0
1, 42152, Note_on_c, 0, 52, 0
1, 42156, Control_c, 0, 64, 0
1, 42163, Note_on_c, 0, 56, 53
1, 42164, Note_on_c, 0, 61, 51
1, 42166, Note_on_c, 0, 65, 47
1, 42169, Note_on_c, 0, 48, 35
1, 42172, Control_c, 0, 64, 127
1, 42174, Note_on_c, 0, 65, 0
1, 42174, Note_on_c, 0, 56, 0
1, 42177, Note_on_c, 0, 61, 0
1, 42180, Note_on_c, 0, 48, 0
1, 42182, Note_on_c, 9, 51, 0
1, 42201, Note_on_c, 9, 31, 35
1, 42205, Note_on_c, 9, 34, 45
1, 42206, Note_on_c, 0, 48, 29
1, 42229, Note_on_c, 0, 48, 0
1, 42229, Note_on_c, 9, 34, 0
1, 42231, Note_on_c, 9, 31, 0
1, 42234, Note_on_c, 1, 39, 0
1, 42234, Note_on_c, 2, 39, 0
1, 42235, Control_c, 0, 64, 0
1, 42237, Note_on_c, 9, 35, 27
1, 42240, Note_on_c, 9, 44, 0
1, 42241, Note_on_c, 9, 51, 48
1, 42242, Note_on_c, 1, 41, 54
1, 42242, Note_on_c, 2, 41, 54
1, 42245, Note_on_c, 0, 57, 55
1, 42246, Note_on_c, 0, 66, 46
1, 42248, Note_on_c, 0, 51, 35
1, 42248, Note_on_c, 0, 62, 49
1, 42252, Note_on_c, 0, 41, 33
1, 42288, Note_on_c, 9, 51, 0
1, 42292, Note_on_c, 9, 35, 0
1, 42318, Note_on_c, 9, 35, 29
1, 42324, Note_on_c, 1, 36, 53
1, 42324, Note_on_c, 2, 36, 53
1, 42326, Note_on_c, 9, 35, 0
1, 42332, Note_on_c, 2, 36, 0
1, 42332, Note_on_c, 1, 36, 0
1, 42353, Control_c, 0, 64, 127
1, 42354, Note_on_c, 0, 41, 0
1, 42355, Note_on_c, 9, 51, 79
1, 42356, Note_on_c, 1, 30, 62
1, 42356, Note_on_c, 2, 30, 62
1, 42360, Note_on_c, 9, 44, 100
1, 42365, Note_on_c, 0, 62, 0
1, 42374, Note_on_c, 0, 51, 0
1, 42380, Note_on_c, 0, 57, 0
1, 42383, Note_on_c, 0, 66, 0
1, 42404, Note_on_c, 9, 51, 0
1, 42450, Note_on_c, 9, 51, 33
1, 42461, Note_on_c, 9, 51, 0
1, 42464, Note_on_c, 1, 30, 0
1, 42464, Note_on_c, 2, 30, 0
1, 42479, Note_on_c, 2, 41, 0
1, 42479, Note_on_c, 1, 41, 0
1, 42479, Note_on_c, 1, 29, 63
1, 42479, Note_on_c, 2, 29, 63
1, 42480, Note_on_c, 9, 44, 0
1, 42482, Note_on_c, 9, 51, 58
1, 42559, Note_on_c, 0, 50, 54
1, 42561, Note_on_c, 9, 29, 25
1, 42562, Note_on_c, 0, 63, 45
1, 42563, Note_on_c, 9, 51, 0
1, 42563, Note_on_c, 0, 55, 64
1, 42565, Note_on_c, 0, 57, 54
1, 42567, Note_on_c, 0, 51, 45
1, 42567, Note_on_c, 0, 60, 54
1, 42574, Note_on_c, 0, 50, 0
1, 42576, Control_c, 0, 64, 0
1, 42590, Note_on_c, 0, 55, 0
1, 42595, Note_on_c, 0, 57, 0
1, 42598, Note_on_c, 0, 63, 0
1, 42600, Note_on_c, 0, 60, 0
1, 42600, Note_on_c, 1, 41, 72
1, 42600, Note_on_c, 2, 41, 72
1, 42600, Note_on_c, 9, 44, 102
1, 42602, Note_on_c, 9, 51, 74
1, 42610, Note_on_c, 0, 51, 0
1, 42612, Note_on_c, 1, 29, 0
1, 42612, Note_on_c, 2, 29, 0
1, 42617, Note_on_c, 0, 50, 30
1, 42672, Note_on_c, 9, 51, 0
1, 42679, Note_on_c, 9, 34, 41
1, 42681, Note_on_c, 0, 50, 0
1, 42683, Note_on_c, 9, 57, 27
1, 42684, Note_on_c, 0, 63, 38
1, 42685, Note_on_c, 0, 51, 44
1, 42686, Note_on_c, 0, 55, 46
1, 42687, Note_on_c, 0, 57, 51
1, 42688, Note_on_c, 9, 57, 0
1, 42689, Note_on_c, 0, 60, 50
1, 42693, Note_on_c, 9, 51, 47
1, 42695, Note_on_c, 0, 55, 0
1, 42701, Note_on_c, 0, 57, 0
1, 42704, Note_on_c, 0, 60, 0
1, 42704, Note_on_c, 1, 39, 20
1, 42704, Note_on_c, 2, 39, 20
1, 42707, Note_on_c, 0, 51, 0
1, 42707, Note_on_c, 0, 63, 0
1, 42710, Note_on_c, 9, 51, 0
1, 42717, Note_on_c, 1, 39, 0
1, 42717, Note_on_c, 2, 39, 0
1, 42718, Control_c, 0, 64, 127
1, 42720, Note_on_c, 9, 44, 0
1, 42724, Note_on_c, 1, 45, 74
1, 42724, Note_on_c, 2, 45, 74
1, 42725, Note_on_c, 2, 41, 0
1, 42725, Note_on_c, 1, 41, 0
1, 42725, Note_on_c, 9, 51, 73
1, 42728, Note_on_c, 9, 29, 0
1, 42728, Note_on_c, 9, 34, 0
1, 42729, Note_on_c, 9, 35, 28
1, 42730, Note_on_c, 9, 57, 17
1, 42735, Note_on_c, 9, 57, 0
1, 42742, Note_on_c, 9, 35, 0
1, 42799, Control_c, 0, 64, 0
1, 42807, Note_on_c, 0, 67, 77
1, 42808, Note_on_c, 0, 63, 74
1, 42809, Note_on_c, 0, 74, 84
1, 42809, Note_on_c, 0, 62, 71
1, 42809, Note_on_c, 1, 41, 22
1, 42809, Note_on_c, 2, 41, 22
1, 42810, Note_on_c, 9, 51, 0
1, 42812, Note_on_c, 0, 71, 50
1, 42815, Note_on_c, 2, 41, 0
1, 42815, Note_on_c, 1, 41, 0
1, 42816, Note_on_c, 0, 72, 43
1, 42823, Note_on_c, 0, 72, 0
1, 42830, Note_on_c, 2, 45, 0
1, 42830, Note_on_c, 1, 45, 0
1, 42839, Note_on_c, 1, 43, 49
1, 42839, Note_on_c, 2, 43, 49
1, 42840, Note_on_c, 9, 44, 96
1, 42841, Note_on_c, 0, 71, 0
1, 42842, Note_on_c, 0, 63, 0
1, 42844, Note_on_c, 0, 67, 0
1, 42846, Note_on_c, 0, 74, 0
1, 42846, Note_on_c, 9, 51, 76
1, 42849, Note_on_c, 0, 62, 0
1, 42858, Note_on_c, 0, 60, 34
1, 42924, Note_on_c, 0, 62, 60
1, 42925, Note_on_c, 0, 63, 74
1, 42925, Note_on_c, 0, 74, 80
1, 42926, Note_on_c, 9, 51, 0
1, 42926, Note_on_c, 0, 67, 73
1, 42927, Note_on_c, 0, 60, 0
1, 42955, Note_on_c, 0, 74, 0
1, 42955, Note_on_c, 0, 63, 0
1, 42956, Note_on_c, 2, 43, 0
1, 42956, Note_on_c, 1, 43, 0
1, 42957, Note_on_c, 0, 67, 0
1, 42957, Note_on_c, 1, 41, 47
1, 42957, Note_on_c, 2, 41, 47
1, 42960, Note_on_c, 9, 44, 0
1, 42966, Note_on_c, 0, 62, 0
1, 42968, Note_on_c, 9, 51, 76
1, 42979, Note_on_c, 0, 60, 34
1, 42982, Note_on_c, 0, 63, 42
1, 42983, Note_on_c, 0, 72, 55
1, 42984, Note_on_c, 0, 67, 31
1, 43007, Control_c, 0, 64, 127
1, 43011, Note_on_c, 0, 67, 0
1, 43012, Note_on_c, 9, 51, 0
1, 43037, Note_on_c, 0, 63, 0
1, 43037, Note_on_c, 0, 60, 0
1, 43040, Note_on_c, 2, 41, 0
1, 43040, Note_on_c, 1, 41, 0
1, 43040, Note_on_c, 1, 36, 48
1, 43040, Note_on_c, 2, 36, 48
1, 43051, Note_on_c, 0, 72, 0
1, 43055, Note_on_c, 9, 53, 75
1, 43060, Note_on_c, 2, 36, 0
1, 43060, Note_on_c, 1, 36, 0
1, 43076, Note_on_c, 1, 35, 49
1, 43076, Note_on_c, 2, 35, 49
1, 43080, Note_on_c, 9, 53, 0
1, 43080, Note_on_c, 9, 44, 95
1, 43084, Note_on_c, 9, 29, 32
1, 43091, Note_on_c, 9, 51, 57
1, 43155, Note_on_c, 9, 29, 0
1, 43156, Note_on_c, 9, 40, 59
1, 43158, Note_on_c, 9, 35, 65
1, 43165, Note_on_c, 9, 40, 0
1, 43173, Note_on_c, 9, 51, 0
1, 43185, Control_c, 0, 64, 0
1, 43191, Note_on_c, 9, 35, 0
1, 43193, Note_on_c, 1, 35, 0
1, 43193, Note_on_c, 2, 35, 0
1, 43194, Note_on_c, 1, 34, 46
1, 43194, Note_on_c, 2, 34, 46
1, 43196, Control_c, 0, 64, 127
1, 43200, Note_on_c, 9, 44, 0
1, 43203, Note_on_c, 0, 66, 51
1, 43203, Note_on_c, 0, 78, 46
1, 43203, Note_on_c, 0, 56, 49
1, 43203, Note_on_c, 0, 62, 41
1, 43203, Note_on_c, 0, 82, 53
1, 43203, Note_on_c, 0, 85, 53
1, 43203, Note_on_c, 9, 51, 64
1, 43205, Note_on_c, 0, 90, 43
1, 43227, Note_on_c, 0, 82, 0
1, 43237, Note_on_c, 0, 85, 0
1, 43237, Note_on_c, 0, 78, 0
1, 43240, Note_on_c, 0, 56, 0
1, 43242, Note_on_c, 0, 90, 0
1, 43243, Note_on_c, 0, 66, 0
1, 43245, Note_on_c, 0, 62, 0
1, 43279, Note_on_c, 9, 51, 0
1, 43286, Note_on_c, 0, 92, 73
1, 43286, Note_on_c, 0, 80, 65
1, 43287, Note_on_c, 0, 66, 62
1, 43288, Note_on_c, 0, 56, 62
1, 43289, Note_on_c, 0, 62, 60
1, 43289, Note_on_c, 0, 87, 61
1, 43295, Note_on_c, 0, 87, 0
1, 43300, Note_on_c, 0, 66, 0
1, 43306, Note_on_c, 0, 56, 0
1, 43307, Note_on_c, 0, 92, 0
1, 43311, Note_on_c, 0, 80, 0
1, 43316, Note_on_c, 1, 46, 67
1, 43316, Note_on_c, 2, 46, 67
1, 43320, Note_on_c, 9, 44, 99
1, 43321, Control_c, 0, 64, 0
1, 43325, Note_on_c, 9, 51, 65
1, 43327, Control_c, 0, 64, 127
1, 43327, Note_on_c, 0, 56, 39
1, 43327, Note_on_c, 0, 66, 42
1, 43330, Note_on_c, 0, 78, 55
1, 43334, Note_on_c, 0, 90, 40
1, 43343, Note_on_c, 2, 34, 0
1, 43343, Note_on_c, 1, 34, 0
1, 43348, Note_on_c, 0, 62, 0
1, 43359, Note_on_c, 0, 78, 0
1, 43361, Note_on_c, 0, 66, 0
1, 43367, Note_on_c, 0, 90, 0
1, 43370, Note_on_c, 0, 56, 0
1, 43402, Note_on_c, 0, 65, 71
1, 43402, Note_on_c, 0, 61, 56
1, 43403, Note_on_c, 0, 89, 76
1, 43404, Note_on_c, 0, 60, 58
1, 43404, Note_on_c, 0, 55, 62
1, 43405, Note_on_c, 0, 77, 68
1, 43405, Note_on_c, 0, 84, 76
1, 43407, Control_c, 0, 64, 0
1, 43408, Note_on_c, 1, 34, 21
1, 43408, Note_on_c, 2, 34, 21
1, 43410, Note_on_c, 0, 58, 37
1, 43419, Note_on_c, 0, 58, 0
1, 43423, Note_on_c, 2, 34, 0
1, 43423, Note_on_c, 1, 34, 0
1, 43435, Note_on_c, 1, 46, 0
1, 43435, Note_on_c, 2, 46, 0
1, 43436, Control_c, 0, 64, 127
1, 43436, Note_on_c, 1, 45, 55
1, 43436, Note_on_c, 2, 45, 55
1, 43440, Note_on_c, 9, 44, 0
1, 43492, Note_on_c, 0, 77, 0
1, 43494, Note_on_c, 9, 51, 0
1, 43496, Note_on_c, 0, 84, 0
1, 43503, Note_on_c, 0, 89, 0
1, 43519, Note_on_c, 0, 55, 0
1, 43521, Note_on_c, 1, 33, 73
1, 43521, Note_on_c, 2, 33, 73
1, 43526, Note_on_c, 2, 45, 0
1, 43526, Note_on_c, 1, 45, 0
1, 43527, Note_on_c, 9, 51, 53
1, 43529, Note_on_c, 0, 65, 0
1, 43530, Note_on_c, 0, 60, 0
1, 43535, Note_on_c, 0, 61, 0
1, 43538, Note_on_c, 9, 51, 0
1, 43560, Note_on_c, 1, 49, 71
1, 43560, Note_on_c, 2, 49, 71
1, 43560, Note_on_c, 9, 44, 93
1, 43563, Note_on_c, 0, 65, 54
1, 43563, Note_on_c, 9, 51, 67
1, 43564, Note_on_c, 0, 60, 39
1, 43566, Note_on_c, 0, 93, 59
1, 43566, Note_on_c, 0, 61, 30
1, 43566, Note_on_c, 0, 55, 48
1, 43568, Note_on_c, 0, 81, 44
1, 43577, Note_on_c, 0, 81, 0
1, 43581, Note_on_c, 0, 93, 0
1, 43587, Note_on_c, 0, 60, 0
1, 43591, Note_on_c, 0, 61, 0
1, 43596, Note_on_c, 0, 55, 0
1, 43602, Note_on_c, 0, 65, 0
1, 43643, Note_on_c, 9, 29, 17
1, 43644, Control_c, 0, 64, 0
1, 43645, Note_on_c, 0, 65, 79
1, 43646, Note_on_c, 0, 54, 72
1, 43647, Note_on_c, 0, 58, 63
1, 43648, Note_on_c, 0, 60, 70
1, 43648, Note_on_c, 0, 96, 83
1, 43649, Note_on_c, 0, 84, 78
1, 43650, Note_on_c, 0, 91, 68
1, 43680, Note_on_c, 9, 44, 0
1, 43681, Note_on_c, 1, 32, 64
1, 43681, Note_on_c, 2, 32, 64
1, 43684, Note_on_c, 2, 33, 0
1, 43684, Note_on_c, 1, 33, 0
1, 43689, Control_c, 0, 64, 127
1, 43698, Note_on_c, 2, 49, 0
1, 43698, Note_on_c, 1, 49, 0
1, 43715, Note_on_c, 9, 51, 0
1, 43765, Note_on_c, 1, 48, 63
1, 43765, Note_on_c, 2, 48, 63
1, 43769, Note_on_c, 9, 56, 56
1, 43770, Note_on_c, 9, 34, 50
1, 43799, Note_on_c, 0, 96, 0
1, 43800, Note_on_c, 9, 46, 91
1, 43802, Note_on_c, 9, 56, 0
1, 43804, Note_on_c, 0, 91, 0
1, 43806, Note_on_c, 9, 34, 0
1, 43808, Note_on_c, 9, 29, 0
1, 43811, Note_on_c, 9, 35, 35
1, 43814, Note_on_c, 9, 57, 29
1, 43815, Note_on_c, 0, 84, 0
1, 43827, Note_on_c, 2, 32, 0
1, 43827, Note_on_c, 1, 32, 0
1, 43831, Note_on_c, 0, 60, 0
1, 43842, Note_on_c, 9, 57, 0
1, 43845, Note_on_c, 0, 65, 0
1, 43852, Note_on_c, 9, 35, 0
1, 43859, Note_on_c, 1, 33, 43
1, 43859, Note_on_c, 2, 33, 43
1, 43867, Note_on_c, 2, 33, 0
1, 43867, Note_on_c, 1, 33, 0
1, 43887, Note_on_c, 1, 32, 60
1, 43887, Note_on_c, 2, 32, 60
1, 43891, Note_on_c, 2, 48, 0
1, 43891, Note_on_c, 1, 48, 0
1, 43894, Note_on_c, 9, 51, 64
1, 43898, Note_on_c, 0, 58, 0
1, 43899, Note_on_c, 0, 54, 0
1, 43909, Note_on_c, 1, 32, 0
1, 43909, Note_on_c, 2, 32, 0
1, 43913, Note_on_c, 9, 51, 0
1, 43917, Note_on_c, 0, 53, 49
1, 43920, Note_on_c, 9, 46, 0
1, 43920, Note_on_c, 0, 64, 36
1, 43924, Note_on_c, 0, 59, 36
1, 43925, Note_on_c, 1, 31, 68
1, 43925, Note_on_c, 2, 31, 68
1, 43927, Note_on_c, 9, 51, 68
1, 43937, Control_c, 0, 64, 0
1, 43962, Note_on_c, 0, 79, 68
1, 43962, Note_on_c, 0, 73, 77
1, 44005, Note_on_c, 9, 51, 0
1, 44005, Note_on_c, 1, 47, 71
1, 44005, Note_on_c, 2, 47, 71
1, 44039, Note_on_c, 0, 79, 0
1, 44041, Note_on_c, 0, 64, 0
1, 44044, Note_on_c, 1, 34, 46
1, 44044, Note_on_c, 2, 34, 46
1, 44044, Note_on_c, 9, 51, 84
1, 44045, Note_on_c, 0, 73, 0
1, 44045, Note_on_c, 2, 31, 0
1, 44045, Note_on_c, 1, 31, 0
1, 44048, Note_on_c, 0, 71, 69
1, 44051, Note_on_c, 0, 59, 0
1, 44052, Note_on_c, 1, 47, 0
1, 44052, Note_on_c, 2, 47, 0
1, 44059, Note_on_c, 0, 53, 0
1, 44062, Note_on_c, 2, 34, 0
1, 44062, Note_on_c, 1, 34, 0
1, 44065, Note_on_c, 0, 71, 0
1, 44085, Note_on_c, 1, 35, 53
1, 44085, Note_on_c, 2, 35, 53
1, 44093, Note_on_c, 0, 67, 25
1, 44108, Note_on_c, 2, 35, 0
1, 44108, Note_on_c, 1, 35, 0
1, 44114, Note_on_c, 0, 67, 0
1, 44117, Note_on_c, 9, 34, 34
1, 44121, Note_on_c, 1, 36, 91
1, 44121, Note_on_c, 2, 36, 91
1, 44123, Note_on_c, 9, 34, 0
1, 44143, Note_on_c, 0, 58, 23
1, 44146, Note_on_c, 0, 48, 32
1, 44158, Note_on_c, 9, 34, 42
1, 44159, Note_on_c, 9, 51, 0
1, 44173, Note_on_c, 9, 34, 0
1, 44228, Note_on_c, 0, 65, 71
1, 44229, Note_on_c, 9, 35, 55
1, 44244, Note_on_c, 9, 51, 45
1, 44254, Note_on_c, 9, 51, 0
1, 44256, Note_on_c, 0, 65, 0
1, 44265, Note_on_c, 0, 62, 36
1, 44270, Note_on_c, 2, 36, 0
1, 44270, Note_on_c, 1, 36, 0
1, 44275, Note_on_c, 1, 43, 53
1, 44275, Note_on_c, 2, 43, 53
1, 44276, Note_on_c, 9, 51, 59
1, 44280, Note_on_c, 9, 44, 101
1, 44284, Note_on_c, 0, 62, 0
1, 44303, Note_on_c, 0, 63, 55
1, 44307, Note_on_c, 0, 58, 0
1, 44312, Note_on_c, 9, 35, 0
1, 44333, Note_on_c, 0, 60, 35
1, 44337, Note_on_c, 0, 63, 0
1, 44348, Note_on_c, 9, 35, 45
1, 44352, Note_on_c, 0, 60, 0
1, 44363, Note_on_c, 9, 51, 0
1, 44363, Note_on_c, 0, 58, 25
1, 44370, Note_on_c, 9, 35, 0
1, 44371, Note_on_c, 0, 62, 34
1, 44387, Note_on_c, 1, 43, 0
1, 44387, Note_on_c, 2, 43, 0
1, 44390, Note_on_c, 0, 62, 0
1, 44395, Note_on_c, 0, 48, 0
1, 44396, Note_on_c, 1, 48, 47
1, 44396, Note_on_c, 2, 48, 47
1, 44397, Note_on_c, 9, 51, 67
1, 44400, Note_on_c, 9, 44, 0
1, 44401, Note_on_c, 0, 63, 39
1, 44412, Note_on_c, 0, 58, 0
1, 44421, Note_on_c, 0, 63, 0
1, 44434, Note_on_c, 0, 65, 40
1, 44462, Note_on_c, 0, 65, 0
1, 44479, Note_on_c, 9, 51, 0
1, 44485, Note_on_c, 1, 39, 27
1, 44485, Note_on_c, 2, 39, 27
1, 44492, Note_on_c, 2, 39, 0
1, 44492, Note_on_c, 1, 39, 0
1, 44511, Note_on_c, 1, 48, 0
1, 44511, Note_on_c, 2, 48, 0
1, 44519, Note_on_c, 1, 45, 49
1, 44519, Note_on_c, 2, 45, 49
1, 44520, Note_on_c, 9, 44, 102
1, 44520, Note_on_c, 9, 51, 52
1, 44533, Control_c, 0, 64, 127
1, 44599, Note_on_c, 9, 35, 69
1, 44600, Note_on_c, 0, 65, 61
1, 44600, Note_on_c, 0, 60, 58
1, 44601, Control_c, 0, 64, 0
1, 44601, Note_on_c, 0, 61, 39
1, 44603, Note_on_c, 9, 51, 0
1, 44608, Note_on_c, 0, 55, 26
1, 44620, Note_on_c, 0, 65, 0
1, 44624, Note_on_c, 0, 60, 0
1, 44627, Note_on_c, 0, 61, 0
1, 44628, Note_on_c, 2, 45, 0
1, 44628, Note_on_c, 1, 45, 0
1, 44629, Note_on_c, 9, 35, 0
1, 44630, Note_on_c, 0, 55, 0
1, 44637, Note_on_c, 1, 38, 52
1, 44637, Note_on_c, 2, 38, 52
1, 44639, Note_on_c, 9, 51, 60
1, 44640, Note_on_c, 9, 44, 0
1, 44665, Note_on_c, 0, 50, 60
1, 44665, Note_on_c, 0, 56, 50
1, 44665, Note_on_c, 0, 60, 53
1, 44685, Control_c, 0, 64, 127
1, 44691, Note_on_c, 0, 50, 0
1, 44693, Note_on_c, 0, 60, 0
1, 44694, Note_on_c, 0, 56, 0
1, 44713, Note_on_c, 9, 51, 0
1, 44741, Control_c, 0, 64, 0
1, 44755, Note_on_c, 0, 65, 68
1, 44755, Note_on_c, 0, 60, 55
1, 44756, Note_on_c, 0, 54, 49
1, 44758, Note_on_c, 0, 58, 49
1, 44758, Note_on_c, 1, 44, 69
1, 44758, Note_on_c, 2, 44, 69
1, 44758, Note_on_c, 9, 51, 65
1, 44760, Note_on_c, 9, 44, 107
1, 44762, Note_on_c, 2, 38, 0
1, 44762, Note_on_c, 1, 38, 0
1, 44778, Control_c, 0, 64, 127
1, 44815, Note_on_c, 0, 60, 0
1, 44815, Note_on_c, 0, 65, 0
1, 44831, Note_on_c, 9, 51, 0
1, 44834, Note_on_c, 0, 54, 0
1, 44837, Note_on_c, 0, 58, 0
1, 44839, Note_on_c, 1, 38, 46
1, 44839, Note_on_c, 2, 38, 46
1, 44842, Control_c, 0, 64, 0
1, 44846, Note_on_c, 0, 64, 60
1, 44847, Note_on_c, 2, 38, 0
1, 44847, Note_on_c, 1, 38, 0
1, 44850, Note_on_c, 0, 53, 51
1, 44853, Note_on_c, 0, 59, 54
1, 44858, Note_on_c, 9, 51, 36
1, 44861, Note_on_c, 2, 44, 0
1, 44861, Note_on_c, 1, 44, 0
1, 44869, Note_on_c, 9, 51, 0
1, 44874, Note_on_c, 1, 43, 62
1, 44874, Note_on_c, 2, 43, 62
1, 44880, Note_on_c, 9, 44, 0
1, 44882, Note_on_c, 1, 43, 0
1, 44882, Note_on_c, 2, 43, 0
1, 44885, Note_on_c, 9, 51, 59
1, 44911, Note_on_c, 1, 38, 58
1, 44911, Note_on_c, 2, 38, 58
1, 44932, Note_on_c, 0, 73, 63
1, 44950, Note_on_c, 9, 40, 30
1, 44957, Note_on_c, 9, 40, 0
1, 44957, Note_on_c, 0, 73, 0
1, 44967, Note_on_c, 0, 71, 49
1, 44970, Control_c, 0, 64, 127
1, 44975, Note_on_c, 9, 51, 0
1, 44984, Note_on_c, 1, 38, 0
1, 44984, Note_on_c, 2, 38, 0
1, 44990, Note_on_c, 1, 32, 56
1, 44990, Note_on_c, 2, 32, 56
1, 44993, Note_on_c, 0, 71, 0
1, 44997, Control_c, 0, 64, 0
1, 44999, Note_on_c, 9, 51, 64
1, 45000, Note_on_c, 9, 44, 98
1, 45007, Note_on_c, 0, 74, 75
1, 45033, Note_on_c, 0, 59, 0
1, 45033, Note_on_c, 0, 64, 0
1, 45039, Note_on_c, 9, 40, 25
1, 45040, Note_on_c, 0, 74, 0
1, 45041, Note_on_c, 0, 53, 0
1, 45045, Note_on_c, 0, 71, 40
1, 45050, Note_on_c, 9, 40, 0
1, 45071, Note_on_c, 2, 32, 0
1, 45071, Note_on_c, 1, 32, 0
1, 45071, Note_on_c, 0, 71, 0
1, 45079, Note_on_c, 1, 31, 51
1, 45079, Note_on_c, 2, 31, 51
1, 45084, Note_on_c, 9, 51, 0
1, 45086, Note_on_c, 0, 62, 47
1, 45088, Note_on_c, 0, 72, 68
1, 45090, Note_on_c, 0, 51, 29
1, 45092, Note_on_c, 0, 57, 32
1, 45093, Note_on_c, 0, 55, 29
1, 45100, Note_on_c, 9, 40, 29
1, 45108, Note_on_c, 2, 31, 0
1, 45108, Note_on_c, 1, 31, 0
1, 45114, Note_on_c, 9, 40, 0
1, 45116, Note_on_c, 1, 36, 62
1, 45116, Note_on_c, 2, 36, 62
1, 45120, Note_on_c, 9, 44, 0
1, 45120, Note_on_c, 9, 51, 72
1, 45127, Note_on_c, 0, 72, 0
1, 45159, Note_on_c, 9, 40, 29
1, 45166, Note_on_c, 9, 40, 0
1, 45172, Note_on_c, 0, 75, 74
1, 45189, Note_on_c, 9, 51, 0
1, 45191, Control_c, 0, 64, 127
1, 45208, Note_on_c, 9, 51, 42
1, 45212, Note_on_c, 0, 75, 0
1, 45218, Note_on_c, 9, 51, 0
1, 45220, Control_c, 0, 64, 0
1, 45224, Note_on_c, 2, 36, 0
1, 45224, Note_on_c, 1, 36, 0
1, 45238, Note_on_c, 9, 51, 60
1, 45239, Note_on_c, 1, 36, 56
1, 45239, Note_on_c, 2, 36, 56
1, 45240, Note_on_c, 9, 44, 96
1, 45241, Note_on_c, 9, 40, 35
1, 45250, Note_on_c, 0, 77, 68
1, 45256, Note_on_c, 9, 40, 0
1, 45256, Note_on_c, 0, 57, 0
1, 45256, Note_on_c, 0, 55, 0
1, 45263, Note_on_c, 0, 51, 0
1, 45263, Control_c, 0, 64, 127
1, 45285, Note_on_c, 0, 62, 0
1, 45289, Note_on_c, 0, 77, 0
1, 45336, Note_on_c, 9, 51, 0
1, 45336, Note_on_c, 0, 79, 36
1, 45343, Note_on_c, 0, 79, 0
1, 45345, Control_c, 0, 64, 0
1, 45355, Note_on_c, 2, 36, 0
1, 45355, Note_on_c, 1, 36, 0
1, 45360, Note_on_c, 9, 44, 0
1, 45360, Note_on_c, 1, 34, 54
1, 45360, Note_on_c, 2, 34, 54
1, 45364, Note_on_c, 9, 51, 65
1, 45434, Note_on_c, 9, 35, 51
1, 45438, Control_c, 0, 64, 127
1, 45445, Note_on_c, 0, 65, 52
1, 45445, Control_c, 0, 64, 0
1, 45446, Note_on_c, 0, 61, 38
1, 45446, Note_on_c, 0, 60, 40
1, 45450, Note_on_c, 0, 56, 29
1, 45456, Note_on_c, 9, 51, 0
1, 45464, Note_on_c, 9, 35, 0
1, 45479, Note_on_c, 9, 35, 23
1, 45480, Note_on_c, 1, 46, 64
1, 45480, Note_on_c, 2, 46, 64
1, 45480, Note_on_c, 9, 44, 100
1, 45481, Note_on_c, 1, 34, 0
1, 45481, Note_on_c, 2, 34, 0
1, 45490, Control_c, 0, 64, 127
1, 45491, Note_on_c, 9, 51, 71
1, 45500, Note_on_c, 9, 35, 0
1, 45531, Note_on_c, 0, 60, 0
1, 45541, Note_on_c, 9, 51, 0
1, 45545, Note_on_c, 0, 65, 0
1, 45545, Note_on_c, 0, 61, 0
1, 45556, Note_on_c, 0, 56, 0
1, 45587, Control_c, 0, 64, 0
1, 45591, Note_on_c, 1, 46, 0
1, 45591, Note_on_c, 2, 46, 0
1, 45600, Note_on_c, 9, 44, 0
1, 45602, Note_on_c, 1, 45, 61
1, 45602, Note_on_c, 2, 45, 61
1, 45603, Note_on_c, 0, 65, 33
1, 45603, Note_on_c, 0, 61, 29
1, 45605, Note_on_c, 0, 55, 34
1, 45605, Note_on_c, 0, 60, 32
1, 45612, Note_on_c, 9, 51, 56
1, 45617, Control_c, 0, 64, 127
1, 45650, Note_on_c, 0, 60, 0
1, 45652, Note_on_c, 0, 65, 0
1, 45652, Note_on_c, 0, 55, 0
1, 45657, Note_on_c, 0, 61, 0
1, 45687, Note_on_c, 0, 61, 42
1, 45690, Note_on_c, 0, 65, 59
1, 45690, Note_on_c, 0, 60, 53
1, 45690, Note_on_c, 0, 55, 49
1, 45691, Note_on_c, 9, 51, 0
1, 45692, Note_on_c, 0, 91, 70
1, 45692, Note_on_c, 0, 79, 64
1, 45696, Control_c, 0, 64, 0
1, 45703, Note_on_c, 0, 90, 25
1, 45706, Note_on_c, 0, 91, 0
1, 45708, Note_on_c, 1, 45, 0
1, 45708, Note_on_c, 2, 45, 0
1, 45709, Note_on_c, 0, 65, 0
1, 45710, Note_on_c, 0, 55, 0
1, 45710, Note_on_c, 0, 60, 0
1, 45711, Note_on_c, 0, 90, 0
1, 45711, Note_on_c, 0, 79, 0
1, 45714, Note_on_c, 0, 61, 0
1, 45719, Control_c, 0, 64, 127
1, 45720, Note_on_c, 9, 44, 102
1, 45722, Note_on_c, 1, 45, 62
1, 45722, Note_on_c, 2, 45, 62
1, 45727, Note_on_c, 9, 51, 71
1, 45733, Note_on_c, 0, 61, 37
1, 45734, Note_on_c, 0, 60, 40
1, 45734, Note_on_c, 0, 65, 50
1, 45735, Note_on_c, 0, 55, 45
1, 45737, Note_on_c, 0, 80, 48
1, 45737, Note_on_c, 0, 92, 49
1, 45748, Note_on_c, 0, 80, 0
1, 45752, Note_on_c, 0, 65, 0
1, 45753, Note_on_c, 0, 92, 0
1, 45755, Note_on_c, 0, 55, 0
1, 45756, Note_on_c, 0, 60, 0
1, 45759, Note_on_c, 0, 61, 0
1, 45797, Control_c, 0, 64, 0
1, 45805, Note_on_c, 9, 35, 66
1, 45809, Note_on_c, 0, 61, 39
1, 45810, Note_on_c, 0, 65, 55
1, 45811, Note_on_c, 9, 51, 0
1, 45811, Note_on_c, 0, 60, 36
1, 45812, Note_on_c, 0, 81, 74
1, 45813, Note_on_c, 0, 55, 24
1, 45813, Note_on_c, 0, 93, 69
1, 45817, Note_on_c, 0, 65, 0
1, 45818, Note_on_c, 0, 60, 0
1, 45820, Note_on_c, 0, 92, 26
1, 45821, Note_on_c, 2, 45, 0
1, 45821, Note_on_c, 1, 45, 0
1, 45821, Note_on_c, 0, 61, 0
1, 45823, Note_on_c, 0, 55, 0
1, 45823, Note_on_c, 0, 93, 0
1, 45824, Note_on_c, 0, 81, 0
1, 45827, Note_on_c, 0, 92, 0
1, 45840, Note_on_c, 9, 35, 0
1, 45840, Note_on_c, 9, 44, 0
1, 45840, Note_on_c, 1, 44, 63
1, 45840, Note_on_c, 2, 44, 63
1, 45851, Note_on_c, 9, 35, 45
1, 45853, Note_on_c, 9, 51, 67
1, 45855, Note_on_c, 0, 65, 68
1, 45855, Note_on_c, 0, 58, 51
1, 45856, Note_on_c, 0, 82, 62
1, 45857, Note_on_c, 0, 94, 65
1, 45857, Note_on_c, 0, 54, 38
1, 45862, Note_on_c, 0, 60, 34
1, 45871, Note_on_c, 0, 60, 0
1, 45878, Note_on_c, 0, 65, 0
1, 45878, Note_on_c, 9, 35, 0
1, 45884, Note_on_c, 0, 82, 0
1, 45885, Note_on_c, 0, 58, 0
1, 45886, Note_on_c, 0, 94, 0
1, 45886, Note_on_c, 0, 54, 0
1, 45923, Note_on_c, 1, 44, 0
1, 45923, Note_on_c, 2, 44, 0
1, 45926, Note_on_c, 0, 54, 61
1, 45927, Note_on_c, 0, 65, 69
1, 45927, Note_on_c, 0, 58, 51
1, 45929, Note_on_c, 0, 84, 72
1, 45929, Note_on_c, 0, 96, 69
1, 45930, Note_on_c, 0, 60, 49
1, 45931, Note_on_c, 1, 38, 31
1, 45931, Note_on_c, 2, 38, 31
1, 45937, Note_on_c, 9, 51, 0
1, 45940, Note_on_c, 0, 60, 0
1, 45942, Note_on_c, 0, 65, 0
1, 45943, Note_on_c, 2, 38, 0
1, 45943, Note_on_c, 1, 38, 0
1, 45945, Note_on_c, 0, 84, 0
1, 45946, Note_on_c, 0, 96, 0
1, 45947, Note_on_c, 0, 54, 0
1, 45950, Note_on_c, 0, 58, 0
1, 45960, Note_on_c, 9, 44, 100
1, 45961, Note_on_c, 1, 42, 51
1, 45961, Note_on_c, 2, 42, 51
1, 45972, Note_on_c, 9, 51, 68
1, 45979, Note_on_c, 0, 58, 44
1, 45980, Note_on_c, 0, 54, 44
1, 45980, Note_on_c, 9, 40, 39
1, 45981, Note_on_c, 0, 65, 52
1, 45981, Note_on_c, 0, 85, 55
1, 45982, Note_on_c, 0, 60, 38
1, 45983, Control_c, 0, 64, 127
1, 45984, Note_on_c, 0, 97, 44
1, 45985, Note_on_c, 9, 40, 0
1, 45987, Note_on_c, 0, 85, 0
1, 45988, Note_on_c, 0, 65, 0
1, 45989, Note_on_c, 0, 60, 0
1, 45990, Note_on_c, 0, 97, 0
1, 45993, Note_on_c, 0, 54, 0
1, 45995, Note_on_c, 0, 58, 0
1, 46014, Note_on_c, 9, 40, 58
1, 46018, Note_on_c, 9, 40, 0
1, 46028, Note_on_c, 9, 51, 0
1, 46042, Note_on_c, 0, 54, 59
1, 46044, Note_on_c, 0, 65, 48
1, 46044, Note_on_c, 0, 58, 37
1, 46045, Note_on_c, 0, 86, 71
1, 46047, Note_on_c, 0, 98, 62
1, 46048, Note_on_c, 9, 35, 31
1, 46049, Note_on_c, 0, 60, 32
1, 46052, Note_on_c, 0, 65, 0
1, 46054, Note_on_c, 0, 86, 0
1, 46055, Note_on_c, 9, 51, 41
1, 46056, Note_on_c, 9, 35, 0
1, 46057, Note_on_c, 0, 60, 0
1, 46059, Note_on_c, 0, 58, 0
1, 46061, Control_c, 0, 64, 0
1, 46062, Note_on_c, 0, 98, 0
1, 46064, Note_on_c, 0, 54, 0
1, 46065, Note_on_c, 9, 51, 0
1, 46075, Note_on_c, 2, 42, 0
1, 46075, Note_on_c, 1, 42, 0
1, 46080, Note_on_c, 9, 44, 0
1, 46082, Note_on_c, 1, 43, 59
1, 46082, Note_on_c, 2, 43, 59
1, 46083, Note_on_c, 9, 35, 47
1, 46086, Note_on_c, 9, 51, 53
1, 46089, Note_on_c, 0, 58, 34
1, 46089, Note_on_c, 0, 62, 56
1, 46092, Note_on_c, 0, 57, 47
1, 46094, Note_on_c, 0, 55, 40
1, 46095, Note_on_c, 0, 89, 71
1, 46095, Note_on_c, 0, 101, 68
1, 46104, Note_on_c, 9, 35, 0
1, 46145, Note_on_c, 0, 58, 0
1, 46145, Note_on_c, 0, 62, 0
1, 46147, Note_on_c, 0, 55, 0
1, 46149, Note_on_c, 0, 57, 0
1, 46155, Note_on_c, 0, 101, 0
1, 46161, Note_on_c, 9, 51, 0
1, 46169, Note_on_c, 0, 57, 47
1, 46171, Note_on_c, 0, 62, 36
1, 46171, Note_on_c, 0, 98, 62
1, 46172, Note_on_c, 0, 58, 36
1, 46172, Note_on_c, 0, 55, 36
1, 46183, Note_on_c, 0, 89, 0
1, 46190, Note_on_c, 1, 43, 0
1, 46190, Note_on_c, 2, 43, 0
1, 46198, Note_on_c, 0, 98, 0
1, 46198, Note_on_c, 1, 38, 43
1, 46198, Note_on_c, 2, 38, 43
1, 46200, Note_on_c, 9, 44, 98
1, 46201, Note_on_c, 9, 51, 67
1, 46219, Note_on_c, 0, 94, 39
1, 46238, Note_on_c, 0, 57, 0
1, 46246, Note_on_c, 0, 62, 0
1, 46249, Note_on_c, 0, 55, 0
1, 46254, Note_on_c, 0, 58, 0
1, 46258, Note_on_c, 0, 94, 0
1, 46265, Note_on_c, 9, 51, 0
1, 46267, Note_on_c, 0, 91, 35
1, 46277, Note_on_c, 0, 91, 0
1, 46306, Note_on_c, 0, 93, 84
1, 46308, Note_on_c, 0, 58, 34
1, 46311, Note_on_c, 1, 38, 0
1, 46311, Note_on_c, 2, 38, 0
1, 46312, Note_on_c, 0, 52, 43
1, 46312, Note_on_c, 0, 62, 36
1, 46315, Note_on_c, 1, 40, 50
1, 46315, Note_on_c, 2, 40, 50
1, 46320, Note_on_c, 9, 44, 0
1, 46321, Note_on_c, 9, 51, 57
1, 46338, Note_on_c, 0, 93, 0
1, 46346, Note_on_c, 0, 94, 44
1, 46366, Note_on_c, 0, 62, 0
1, 46372, Note_on_c, 0, 58, 0
1, 46372, Note_on_c, 0, 93, 41
1, 46379, Note_on_c, 0, 94, 0
1, 46396, Note_on_c, 9, 51, 0
1, 46397, Note_on_c, 0, 93, 0
1, 46402, Note_on_c, 0, 91, 59
1, 46419, Note_on_c, 0, 91, 0
1, 46429, Note_on_c, 1, 40, 0
1, 46429, Note_on_c, 2, 40, 0
1, 46433, Note_on_c, 1, 34, 55
1, 46433, Note_on_c, 2, 34, 55
1, 46434, Note_on_c, 0, 58, 31
1, 46438, Note_on_c, 9, 51, 32
1, 46439, Note_on_c, 0, 62, 30
1, 46440, Note_on_c, 9, 44, 94
1, 46443, Note_on_c, 0, 86, 52
1, 46470, Note_on_c, 0, 86, 0
1, 46476, Note_on_c, 0, 52, 0
1, 46482, Note_on_c, 0, 58, 0
1, 46486, Note_on_c, 0, 82, 53
1, 46489, Note_on_c, 9, 51, 0
1, 46497, Note_on_c, 0, 62, 0
1, 46515, Note_on_c, 0, 82, 0
1, 46537, Note_on_c, 9, 51, 65
1, 46554, Note_on_c, 1, 34, 0
1, 46554, Note_on_c, 2, 34, 0
1, 46555, Note_on_c, 1, 33, 48
1, 46555, Note_on_c, 2, 33, 48
1, 46560, Note_on_c, 9, 44, 0
1, 46562, Note_on_c, 9, 40, 21
1, 46569, Note_on_c, 9, 40, 0
1, 46570, Note_on_c, 9, 51, 0
1, 46570, Note_on_c, 9, 59, 46
1, 46579, Note_on_c, 9, 59, 0
1, 46580, Note_on_c, 0, 86, 75
1, 46611, Note_on_c, 0, 86, 0
1, 46615, Note_on_c, 9, 40, 22
1, 46617, Note_on_c, 0, 87, 53
1, 46624, Note_on_c, 9, 40, 0
1, 46643, Note_on_c, 0, 86, 54
1, 46644, Note_on_c, 0, 87, 0
1, 46644, Note_on_c, 9, 40, 26
1, 46658, Note_on_c, 9, 40, 0
1, 46664, Note_on_c, 0, 86, 0
1, 46668, Note_on_c, 0, 84, 58
1, 46670, Note_on_c, 9, 40, 37
1, 46675, Note_on_c, 1, 33, 0
1, 46675, Note_on_c, 2, 33, 0
1, 46675, Note_on_c, 1, 39, 53
1, 46675, Note_on_c, 2, 39, 53
1, 46678, Note_on_c, 9, 40, 0
1, 46679, Note_on_c, 0, 63, 38
1, 46680, Note_on_c, 0, 67, 48
1, 46680, Note_on_c, 9, 44, 100
1, 46680, Note_on_c, 9, 51, 56
1, 46685, Note_on_c, 0, 62, 38
1, 46686, Note_on_c, 0, 84, 0
1, 46687, Note_on_c, 0, 57, 34
1, 46699, Note_on_c, 9, 35, 55
1, 46714, Note_on_c, 9, 35, 0
1, 46715, Note_on_c, 9, 51, 0
1, 46725, Note_on_c, 9, 35, 45
1, 46730, Note_on_c, 0, 67, 0
1, 46732, Note_on_c, 0, 62, 0
1, 46735, Note_on_c, 0, 63, 0
1, 46742, Note_on_c, 0, 57, 0
1, 46744, Note_on_c, 9, 35, 0
1, 46755, Note_on_c, 9, 35, 56
1, 46758, Note_on_c, 1, 39, 0
1, 46758, Note_on_c, 2, 39, 0
1, 46761, Note_on_c, 1, 37, 34
1, 46761, Note_on_c, 2, 37, 34
1, 46766, Note_on_c, 0, 77, 50
1, 46769, Note_on_c, 0, 65, 66
1, 46769, Note_on_c, 0, 54, 56
1, 46774, Note_on_c, 0, 77, 0
1, 46774, Note_on_c, 0, 60, 46
1, 46775, Note_on_c, 0, 58, 35
1, 46776, Note_on_c, 9, 35, 0
1, 46781, Note_on_c, 2, 37, 0
1, 46781, Note_on_c, 1, 37, 0
1, 46784, Note_on_c, 9, 35, 83
1, 46798, Note_on_c, 1, 38, 51
1, 46798, Note_on_c, 2, 38, 51
1, 46800, Note_on_c, 9, 44, 0
1, 46808, Note_on_c, 9, 51, 51
1, 46826, Note_on_c, 9, 35, 0
1, 46853, Note_on_c, 9, 51, 0
1, 46888, Note_on_c, 0, 86, 83
1, 46888, Note_on_c, 9, 51, 42
1, 46906, Note_on_c, 0, 86, 0
1, 46914, Note_on_c, 2, 38, 0
1, 46914, Note_on_c, 1, 38, 0
1, 46918, Note_on_c, 1, 45, 53
1, 46918, Note_on_c, 2, 45, 53
1, 46920, Note_on_c, 9, 44, 98
1, 46921, Note_on_c, 0, 65, 0
1, 46922, Note_on_c, 9, 51, 0
1, 46923, Note_on_c, 9, 59, 63
1, 46926, Note_on_c, 0, 82, 64
1, 46941, Note_on_c, 0, 60, 0
1, 46942, Note_on_c, 9, 59, 0
1, 46949, Note_on_c, 0, 82, 0
1, 46965, Note_on_c, 0, 77, 35
1, 46966, Note_on_c, 0, 79, 30
1, 46976, Note_on_c, 0, 79, 0
1, 46978, Note_on_c, 0, 77, 0
1, 46984, Note_on_c, 0, 58, 0
1, 46995, Note_on_c, 0, 74, 40
1, 46998, Note_on_c, 0, 54, 0
1, 47002, Note_on_c, 2, 45, 0
1, 47002, Note_on_c, 1, 45, 0
1, 47004, Note_on_c, 1, 44, 39
1, 47004, Note_on_c, 2, 44, 39
1, 47006, Note_on_c, 0, 74, 0
1, 47009, Note_on_c, 9, 51, 58
1, 47029, Note_on_c, 2, 44, 0
1, 47029, Note_on_c, 1, 44, 0
1, 47029, Note_on_c, 0, 72, 53
1, 47033, Note_on_c, 9, 51, 0
1, 47034, Note_on_c, 0, 62, 30
1, 47034, Note_on_c, 0, 57, 30
1, 47035, Note_on_c, 0, 58, 21
1, 47040, Note_on_c, 9, 44, 0
1, 47041, Note_on_c, 1, 43, 44
1, 47041, Note_on_c, 2, 43, 44
1, 47049, Note_on_c, 0, 72, 0
1, 47050, Note_on_c, 9, 51, 55
1, 47071, Note_on_c, 0, 70, 49
1, 47083, Note_on_c, 9, 51, 0
1, 47098, Note_on_c, 0, 70, 0
1, 47109, Note_on_c, 0, 69, 41
1, 47111, Note_on_c, 0, 62, 0
1, 47120, Note_on_c, 0, 69, 0
1, 47123, Note_on_c, 9, 34, 37
1, 47143, Note_on_c, 0, 72, 70
1, 47147, Note_on_c, 9, 34, 0
1, 47151, Note_on_c, 0, 62, 30
1, 47157, Note_on_c, 9, 51, 64
1, 47157, Note_on_c, 9, 35, 47
1, 47159, Note_on_c, 9, 57, 45
1, 47160, Note_on_c, 9, 44, 103
1, 47163, Note_on_c, 1, 31, 66
1, 47163, Note_on_c, 2, 31, 66
1, 47167, Note_on_c, 0, 72, 0
1, 47175, Note_on_c, 1, 43, 0
1, 47175, Note_on_c, 2, 43, 0
1, 47181, Note_on_c, 0, 69, 45
1, 47197, Note_on_c, 0, 62, 0
1, 47198, Note_on_c, 0, 69, 0
1, 47199, Note_on_c, 0, 55, 1
1, 47204, Note_on_c, 9, 57, 0
1, 47218, Note_on_c, 0, 70, 60
1, 47222, Note_on_c, 9, 51, 0
1, 47244, Note_on_c, 0, 70, 0
1, 47253, Note_on_c, 0, 66, 49
1, 47260, Note_on_c, 0, 62, 28
1, 47261, Note_on_c, 0, 66, 0
1, 47273, Note_on_c, 0, 62, 0
1, 47280, Note_on_c, 9, 44, 0
1, 47284, Note_on_c, 9, 51, 63
1, 47295, Note_on_c, 0, 57, 0
1, 47300, Note_on_c, 0, 55, 0
1, 47300, Note_on_c, 0, 58, 0
1, 47343, Note_on_c, 9, 51, 0
1, 47349, Note_on_c, 2, 31, 0
1, 47349, Note_on_c, 1, 31, 0
1, 47355, Note_on_c, 1, 42, 65
1, 47355, Note_on_c, 2, 42, 65
1, 47368, Note_on_c, 2, 42, 0
1, 47368, Note_on_c, 1, 42, 0
1, 47368, Note_on_c, 0, 63, 47
1, 47368, Note_on_c, 0, 58, 37
1, 47372, Note_on_c, 0, 52, 39
1, 47374, Note_on_c, 0, 56, 31
1, 47385, Note_on_c, 9, 35, 0
1, 47397, Note_on_c, 1, 30, 62
1, 47397, Note_on_c, 2, 30, 62
1, 47400, Note_on_c, 9, 44, 105
1, 47403, Note_on_c, 9, 51, 63
1, 47439, Control_c, 0, 64, 127
1, 47441, Note_on_c, 9, 51, 0
1, 47487, Note_on_c, 9, 51, 60
1, 47494, Note_on_c, 0, 52, 0
1, 47495, Control_c, 0, 64, 0
1, 47500, Note_on_c, 0, 56, 0
1, 47503, Note_on_c, 0, 58, 0
1, 47504, Note_on_c, 9, 51, 0
1, 47506, Note_on_c, 0, 63, 0
1, 47520, Note_on_c, 9, 44, 0
1, 47520, Note_on_c, 9, 51, 68
1, 47523, Note_on_c, 0, 60, 48
1, 47523, Note_on_c, 0, 56, 32
1, 47523, Control_c, 0, 64, 127
1, 47526, Note_on_c, 0, 67, 81
1, 47532, Note_on_c, 0, 53, 33
1, 47549, Note_on_c, 0, 67, 0
1, 47550, Control_c, 0, 64, 0
1, 47580, Note_on_c, 9, 51, 0
1, 47593, Note_on_c, 0, 67, 78
1, 47599, Note_on_c, 1, 30, 0
1, 47599, Note_on_c, 2, 30, 0
1, 47600, Note_on_c, 1, 41, 61
1, 47600, Note_on_c, 2, 41, 61
1, 47619, Note_on_c, 0, 67, 0
1, 47621, Note_on_c, 1, 41, 0
1, 47621, Note_on_c, 2, 41, 0
1, 47632, Note_on_c, 0, 64, 37
1, 47640, Note_on_c, 9, 44, 105
1, 47641, Note_on_c, 1, 29, 44
1, 47641, Note_on_c, 2, 29, 44
1, 47644, Note_on_c, 9, 51, 61
1, 47653, Note_on_c, 0, 64, 0
1, 47661, Note_on_c, 0, 65, 48
1, 47668, Note_on_c, 0, 60, 0
1, 47672, Note_on_c, 2, 29, 0
1, 47672, Note_on_c, 1, 29, 0
1, 47680, Note_on_c, 0, 65, 0
1, 47692, Note_on_c, 9, 51, 0
1, 47692, Note_on_c, 0, 67, 69
1, 47709, Note_on_c, 0, 67, 0
1, 47714, Note_on_c, 0, 60, 24
1, 47718, Note_on_c, 0, 63, 14
1, 47723, Note_on_c, 1, 36, 69
1, 47723, Note_on_c, 2, 36, 69
1, 47726, Note_on_c, 0, 68, 51
1, 47733, Note_on_c, 9, 51, 48
1, 47743, Note_on_c, 9, 51, 0
1, 47743, Note_on_c, 2, 36, 0
1, 47743, Note_on_c, 1, 36, 0
1, 47753, Note_on_c, 0, 68, 0
1, 47759, Note_on_c, 0, 65, 56
1, 47760, Note_on_c, 9, 44, 0
1, 47760, Note_on_c, 9, 51, 61
1, 47762, Note_on_c, 1, 34, 52
1, 47762, Note_on_c, 2, 34, 52
1, 47763, Note_on_c, 0, 60, 0
1, 47769, Note_on_c, 0, 53, 0
1, 47774, Note_on_c, 0, 56, 0
1, 47779, Note_on_c, 0, 65, 0
1, 47779, Note_on_c, 0, 63, 0
1, 47791, Note_on_c, 0, 67, 51
1, 47799, Note_on_c, 0, 67, 0
1, 47805, Note_on_c, 9, 51, 0
1, 47819, Note_on_c, 0, 68, 73
1, 47835, Note_on_c, 0, 68, 0
1, 47848, Note_on_c, 0, 70, 69
1, 47859, Note_on_c, 0, 66, 31
1, 47867, Note_on_c, 0, 56, 20
1, 47871, Note_on_c, 0, 70, 0
1, 47877, Note_on_c, 0, 66, 0
1, 47880, Note_on_c, 9, 44, 105
1, 47881, Note_on_c, 1, 46, 60
1, 47881, Note_on_c, 2, 46, 60
1, 47885, Note_on_c, 0, 67, 18
1, 47887, Note_on_c, 0, 62, 11
1, 47887, Note_on_c, 9, 51, 66
1, 47901, Note_on_c, 2, 46, 0
1, 47901, Note_on_c, 1, 46, 0
1, 47903, Note_on_c, 2, 34, 0
1, 47903, Note_on_c, 1, 34, 0
1, 47907, Note_on_c, 0, 67, 0
1, 47915, Note_on_c, 0, 68, 43
1, 47922, Note_on_c, 9, 51, 0
1, 47934, Note_on_c, 0, 68, 0
1, 47943, Note_on_c, 0, 70, 59
1, 47946, Note_on_c, 0, 56, 0
1, 47948, Note_on_c, 9, 34, 26
1, 47960, Note_on_c, 9, 34, 0
1, 47961, Note_on_c, 0, 70, 0
1, 47966, Note_on_c, 0, 56, 23
1, 47968, Note_on_c, 0, 66, 29
1, 47970, Note_on_c, 0, 72, 49
1, 47970, Note_on_c, 1, 38, 29
1, 47970, Note_on_c, 2, 38, 29
1, 47987, Note_on_c, 2, 38, 0
1, 47987, Note_on_c, 0, 62, 0
1, 47987, Note_on_c, 1, 38, 0
1, 47989, Note_on_c, 9, 40, 42
1, 47992, Note_on_c, 0, 72, 0
1, 47997, Note_on_c, 0, 66, 0
1, 47998, Note_on_c, 9, 51, 73
1, 47998, Note_on_c, 9, 35, 17
1, 47999, Note_on_c, 9, 40, 0
1, 48000, Note_on_c, 9, 44, 0
1, 48004, Note_on_c, 0, 74, 58
1, 48005, Note_on_c, 9, 35, 0
1, 48007, Note_on_c, 1, 39, 46
1, 48007, Note_on_c, 2, 39, 46
1, 48016, Note_on_c, 0, 74, 0
1, 48030, Note_on_c, 0, 56, 0
1, 48038, Note_on_c, 9, 51, 0
1, 48039, Note_on_c, 0, 75, 56
1, 48064, Note_on_c, 0, 75, 0
1, 48072, Note_on_c, 0, 72, 49
1, 48077, Note_on_c, 0, 65, 33
1, 48079, Note_on_c, 0, 61, 33
1, 48081, Note_on_c, 0, 72, 0
1, 48084, Note_on_c, 0, 60, 28
1, 48085, Note_on_c, 0, 56, 25
1, 48103, Note_on_c, 0, 73, 52
1, 48120, Note_on_c, 9, 44, 101
1, 48125, Note_on_c, 0, 73, 0
1, 48127, Note_on_c, 9, 51, 73
1, 48132, Note_on_c, 0, 75, 52
1, 48144, Control_c, 0, 64, 127
1, 48147, Note_on_c, 0, 75, 0
1, 48156, Note_on_c, 9, 51, 0
1, 48160, Note_on_c, 0, 77, 68
1, 48180, Note_on_c, 0, 77, 0
1, 48180, Note_on_c, 0, 65, 0
1, 48180, Note_on_c, 9, 40, 24
1, 48185, Note_on_c, 0, 60, 0
1, 48187, Note_on_c, 9, 40, 0
1, 48189, Note_on_c, 0, 79, 68
1, 48190, Note_on_c, 0, 65, 22
1, 48194, Note_on_c, 0, 60, 14
1, 48204, Note_on_c, 0, 60, 0
1, 48204, Note_on_c, 0, 65, 0
1, 48204, Note_on_c, 0, 79, 0
1, 48209, Note_on_c, 0, 61, 0
1, 48217, Note_on_c, 0, 80, 78
1, 48218, Note_on_c, 0, 65, 58
1, 48220, Note_on_c, 0, 61, 26
1, 48222, Note_on_c, 0, 60, 40
1, 48230, Note_on_c, 0, 60, 0
1, 48234, Note_on_c, 0, 65, 0
1, 48236, Note_on_c, 1, 39, 0
1, 48236, Note_on_c, 2, 39, 0
1, 48236, Note_on_c, 0, 80, 0
1, 48238, Note_on_c, 0, 61, 0
1, 48240, Note_on_c, 9, 44, 0
1, 48241, Note_on_c, 1, 51, 60
1, 48241, Note_on_c, 2, 51, 60
1, 48244, Note_on_c, 9, 51, 70
1, 48246, Note_on_c, 0, 82, 75
1, 48248, Note_on_c, 0, 65, 51
1, 48249, Note_on_c, 0, 61, 23
1, 48251, Note_on_c, 0, 60, 45
1, 48251, Note_on_c, 0, 80, 25
1, 48252, Note_on_c, 9, 40, 29
1, 48258, Note_on_c, 0, 80, 0
1, 48258, Note_on_c, 0, 60, 0
1, 48260, Note_on_c, 0, 65, 0
1, 48260, Note_on_c, 9, 40, 0
1, 48263, Note_on_c, 0, 56, 0
1, 48264, Note_on_c, 0, 82, 0
1, 48265, Note_on_c, 0, 61, 0
1, 48269, Note_on_c, 9, 51, 0
1, 48274, Note_on_c, 0, 65, 72
1, 48276, Note_on_c, 0, 56, 67
1, 48276, Note_on_c, 0, 84, 88
1, 48277, Note_on_c, 0, 61, 74
1, 48277, Note_on_c, 0, 60, 67
1, 48282, Control_c, 0, 64, 0
1, 48282, Note_on_c, 9, 40, 25
1, 48292, Control_c, 0, 64, 127
1, 48294, Note_on_c, 9, 40, 0
1, 48298, Note_on_c, 0, 84, 0
1, 48305, Note_on_c, 0, 65, 0
1, 48305, Note_on_c, 0, 85, 65
1, 48307, Note_on_c, 0, 60, 0
1, 48308, Note_on_c, 0, 61, 0
1, 48319, Note_on_c, 0, 65, 24
1, 48319, Note_on_c, 0, 61, 30
1, 48322, Note_on_c, 0, 60, 35
1, 48329, Note_on_c, 0, 85, 0
1, 48336, Note_on_c, 0, 87, 74
1, 48339, Note_on_c, 9, 40, 41
1, 48348, Note_on_c, 9, 40, 0
1, 48351, Note_on_c, 0, 65, 0
1, 48352, Note_on_c, 0, 87, 0
1, 48356, Note_on_c, 0, 60, 0
1, 48358, Note_on_c, 0, 61, 0
1, 48360, Note_on_c, 9, 44, 105
1, 48365, Note_on_c, 0, 89, 71
1, 48369, Note_on_c, 9, 51, 77
1, 48370, Note_on_c, 9, 40, 32
1, 48376, Note_on_c, 9, 40, 0
1, 48382, Note_on_c, 0, 89, 0
1, 48395, Note_on_c, 0, 91, 66
1, 48396, Note_on_c, 0, 65, 54
1, 48397, Note_on_c, 9, 51, 0
1, 48397, Note_on_c, 0, 61, 46
1, 48397, Note_on_c, 0, 60, 57
1, 48397, Note_on_c, 0, 89, 51
1, 48397, Note_on_c, 9, 40, 28
1, 48404, Note_on_c, 0, 89, 0
1, 48406, Note_on_c, 9, 40, 0
1, 48425, Note_on_c, 9, 34, 34
1, 48427, Note_on_c, 0, 65, 0
1, 48428, Note_on_c, 0, 91, 0
1, 48431, Note_on_c, 9, 40, 24
1, 48434, Note_on_c, 0, 92, 71
1, 48436, Note_on_c, 9, 40, 0
1, 48438, Note_on_c, 0, 65, 29
1, 48447, Note_on_c, 9, 34, 0
1, 48455, Note_on_c, 0, 92, 0
1, 48455, Note_on_c, 9, 34, 53
1, 48457, Note_on_c, 0, 65, 0
1, 48457, Note_on_c, 9, 51, 43
1, 48457, Note_on_c, 9, 40, 53
1, 48462, Note_on_c, 2, 51, 0
1, 48462, Note_on_c, 0, 60, 0
1, 48462, Note_on_c, 1, 51, 0
1, 48467, Note_on_c, 9, 51, 0
1, 48470, Note_on_c, 0, 94, 72
1, 48472, Note_on_c, 9, 40, 0
1, 48474, Note_on_c, 0, 61, 0
1, 48475, Note_on_c, 1, 48, 76
1, 48475, Note_on_c, 2, 48, 76
1, 48480, Note_on_c, 9, 44, 0
1, 48481, Note_on_c, 0, 56, 0
1, 48486, Note_on_c, 9, 40, 45
1, 48487, Note_on_c, 9, 51, 65
1, 48488, Note_on_c, 9, 34, 0
1, 48488, Note_on_c, 9, 35, 50
1, 48492, Note_on_c, 0, 94, 0
1, 48503, Note_on_c, 9, 40, 0
1, 48505, Note_on_c, 0, 58, 57
1, 48506, Note_on_c, 0, 62, 57
1, 48509, Note_on_c, 0, 96, 74
1, 48510, Control_c, 0, 64, 0
1, 48510, Note_on_c, 0, 52, 53
1, 48510, Note_on_c, 0, 84, 66
1, 48513, Note_on_c, 9, 35, 0
1, 48527, Control_c, 0, 64, 127
1, 48538, Note_on_c, 9, 51, 0
1, 48543, Note_on_c, 0, 62, 0
1, 48544, Note_on_c, 0, 96, 0
1, 48546, Note_on_c, 0, 95, 34
1, 48548, Note_on_c, 0, 84, 0
1, 48551, Note_on_c, 0, 52, 0
1, 48551, Pitch_bend_c, 1, 8192
1, 48551, Pitch_bend_c, 2, 8192
1, 48552, Pitch_bend_c, 1, 8192
1, 48552, Pitch_bend_c, 2, 8192
1, 48553, Pitch_bend_c, 1, 8712
1, 48553, Pitch_bend_c, 2, 8712
1, 48554, Pitch_bend_c, 1, 9102
1, 48554, Pitch_bend_c, 2, 9102
1, 48555, Note_on_c, 0, 95, 0
1, 48556, Pitch_bend_c, 1, 9362
1, 48556, Pitch_bend_c, 2, 9362
1, 48558, Pitch_bend_c, 1, 9752
1, 48558, Pitch_bend_c, 2, 9752
1, 48559, Pitch_bend_c, 1, 10012
1, 48559, Pitch_bend_c, 2, 10012
1, 48560, Pitch_bend_c, 1, 10272
1, 48560, Pitch_bend_c, 2, 10272
1, 48562, Pitch_bend_c, 1, 10662
1, 48562, Pitch_bend_c, 2, 10662
1, 48563, Pitch_bend_c, 1, 10922
1, 48563, Pitch_bend_c, 2, 10922
1, 48564, Note_on_c, 0, 58, 0
1, 48564, Pitch_bend_c, 1, 11312
1, 48564, Pitch_bend_c, 2, 11312
1, 48566, Pitch_bend_c, 1, 11702
1, 48566, Pitch_bend_c, 1, 11962
1, 48566, Pitch_bend_c, 2, 11702
1, 48566, Pitch_bend_c, 2, 11962
1, 48568, Pitch_bend_c, 1, 12222
1, 48568, Pitch_bend_c, 2, 12222
1, 48569, Pitch_bend_c, 1, 12612
1, 48569, Pitch_bend_c, 2, 12612
1, 48571, Pitch_bend_c, 1, 13002
1, 48571, Pitch_bend_c, 2, 13002
1, 48572, Pitch_bend_c, 1, 13262
1, 48572, Pitch_bend_c, 2, 13262
1, 48573, Pitch_bend_c, 1, 13652
1, 48573, Pitch_bend_c, 2, 13652
1, 48575, Pitch_bend_c, 1, 14042
1, 48575, Pitch_bend_c, 1, 14302
1, 48575, Pitch_bend_c, 2, 14042
1, 48575, Pitch_bend_c, 2, 14302
1, 48577, Pitch_bend_c, 1, 14692
1, 48577, Pitch_bend_c, 2, 14692
1, 48578, Pitch_bend_c, 1, 14968
1, 48578, Pitch_bend_c, 2, 14968
1, 48579, Pitch_bend_c, 1, 15212
1, 48579, Pitch_bend_c, 2, 15212
1, 48580, Note_on_c, 0, 63, 51
1, 48580, Note_on_c, 0, 58, 59
1, 48580, Note_on_c, 0, 85, 73
1, 48581, Note_on_c, 0, 97, 74
1, 48581, Pitch_bend_c, 1, 15472
1, 48581, Pitch_bend_c, 2, 15472
1, 48582, Note_on_c, 0, 52, 56
1, 48582, Pitch_bend_c, 1, 15732
1, 48582, Pitch_bend_c, 2, 15732
1, 48584, Pitch_bend_c, 1, 15992
1, 48584, Pitch_bend_c, 2, 15992
1, 48585, Pitch_bend_c, 1, 16122
1, 48585, Pitch_bend_c, 2, 16122
1, 48586, Note_on_c, 0, 92, 51
1, 48586, Pitch_bend_c, 1, 16252
1, 48586, Pitch_bend_c, 2, 16252
1, 48587, Pitch_bend_c, 1, 16382
1, 48587, Pitch_bend_c, 2, 16382
1, 48590, Control_c, 0, 64, 0
1, 48595, Note_on_c, 9, 51, 82
1, 48597, Pitch_bend_c, 1, 16252
1, 48597, Pitch_bend_c, 1, 15992
1, 48597, Pitch_bend_c, 2, 16252
1, 48597, Pitch_bend_c, 2, 15992
1, 48599, Note_on_c, 0, 85, 0
1, 48599, Pitch_bend_c, 1, 15862
1, 48599, Pitch_bend_c, 2, 15862
1, 48600, Note_on_c, 9, 44, 99
1, 48601, Pitch_bend_c, 1, 15732
1, 48601, Pitch_bend_c, 1, 15472
1, 48601, Pitch_bend_c, 2, 15732
1, 48601, Pitch_bend_c, 2, 15472
1, 48602, Note_on_c, 0, 52, 0
1, 48602, Note_on_c, 0, 97, 0
1, 48603, Note_on_c, 0, 63, 0
1, 48603, Pitch_bend_c, 1, 15212
1, 48603, Pitch_bend_c, 1, 14968
1, 48603, Pitch_bend_c, 2, 15212
1, 48603, Pitch_bend_c, 2, 14968
1, 48605, Note_on_c, 0, 92, 0
1, 48605, Pitch_bend_c, 1, 14562
1, 48605, Pitch_bend_c, 2, 14562
1, 48606, Pitch_bend_c, 1, 14172
1, 48606, Pitch_bend_c, 2, 14172
1, 48609, Pitch_bend_c, 1, 13782
1, 48609, Pitch_bend_c, 1, 13262
1, 48609, Pitch_bend_c, 2, 13782
1, 48609, Pitch_bend_c, 2, 13262
1, 48610, Pitch_bend_c, 1, 13002
1, 48610, Pitch_bend_c, 2, 13002
1, 48611, Note_on_c, 0, 58, 0
1, 48611, Pitch_bend_c, 1, 12612
1, 48611, Pitch_bend_c, 2, 12612
1, 48613, Pitch_bend_c, 1, 12222
1, 48613, Pitch_bend_c, 2, 12222
1, 48614, Pitch_bend_c, 1, 11832
1, 48614, Pitch_bend_c, 2, 11832
1, 48615, Control_c, 0, 64, 127
1, 48615, Pitch_bend_c, 1, 11442
1, 48615, Pitch_bend_c, 2, 11442
1, 48616, Note_on_c, 0, 63, 47
1, 48616, Pitch_bend_c, 1, 11052
1, 48616, Pitch_bend_c, 2, 11052
1, 48618, Note_on_c, 0, 58, 28
1, 48618, Pitch_bend_c, 1, 10662
1, 48618, Pitch_bend_c, 2, 10662
1, 48619, Pitch_bend_c, 1, 10272
1, 48619, Pitch_bend_c, 2, 10272
1, 48620, Note_on_c, 0, 99, 68
1, 48620, Pitch_bend_c, 1, 10012
1, 48620, Pitch_bend_c, 2, 10012
1, 48621, Note_on_c, 0, 87, 57
1, 48622, Pitch_bend_c, 1, 9752
1, 48622, Pitch_bend_c, 2, 9752
1, 48623, Note_on_c, 0, 52, 38
1, 48623, Pitch_bend_c, 1, 9362
1, 48623, Pitch_bend_c, 2, 9362
1, 48625, Note_on_c, 0, 94, 52
1, 48625, Pitch_bend_c, 1, 9102
1, 48625, Pitch_bend_c, 1, 8842
1, 48625, Pitch_bend_c, 2, 9102
1, 48625, Pitch_bend_c, 2, 8842
1, 48627, Pitch_bend_c, 1, 8712
1, 48627, Pitch_bend_c, 2, 8712
1, 48628, Note_on_c, 9, 51, 0
1, 48629, Pitch_bend_c, 1, 8192
1, 48629, Pitch_bend_c, 2, 8192
1, 48630, Pitch_bend_c, 1, 8192
1, 48630, Pitch_bend_c, 2, 8192
1, 48638, Pitch_bend_c, 1, 8192
1, 48638, Pitch_bend_c, 2, 8192
1, 48641, Pitch_bend_c, 1, 8712
1, 48641, Pitch_bend_c, 2, 8712
1, 48642, Pitch_bend_c, 1, 8972
1, 48642, Pitch_bend_c, 2, 8972
1, 48643, Pitch_bend_c, 1, 9232
1, 48643, Pitch_bend_c, 2, 9232
1, 48645, Pitch_bend_c, 1, 9622
1, 48645, Pitch_bend_c, 2, 9622
1, 48646, Note_on_c, 0, 99, 0
1, 48646, Pitch_bend_c, 1, 9882
1, 48646, Pitch_bend_c, 2, 9882
1, 48647, Pitch_bend_c, 1, 10272
1, 48647, Pitch_bend_c, 2, 10272
1, 48649, Note_on_c, 0, 87, 0
1, 48649, Pitch_bend_c, 1, 10532
1, 48649, Pitch_bend_c, 1, 10792
1, 48649, Pitch_bend_c, 2, 10532
1, 48649, Pitch_bend_c, 2, 10792
1, 48651, Pitch_bend_c, 1, 11052
1, 48651, Pitch_bend_c, 2, 11052
1, 48652, Note_on_c, 0, 94, 0
1, 48652, Pitch_bend_c, 1, 11442
1, 48652, Pitch_bend_c, 2, 11442
1, 48653, Note_on_c, 0, 52, 0
1, 48654, Pitch_bend_c, 1, 11572
1, 48654, Pitch_bend_c, 1, 11702
1, 48654, Pitch_bend_c, 2, 11572
1, 48654, Pitch_bend_c, 2, 11702
1, 48657, Note_on_c, 0, 63, 0
1, 48657, Pitch_bend_c, 1, 11832
1, 48657, Pitch_bend_c, 2, 11832
1, 48664, Pitch_bend_c, 1, 11702
1, 48664, Pitch_bend_c, 2, 11702
1, 48666, Pitch_bend_c, 1, 11442
1, 48666, Pitch_bend_c, 2, 11442
1, 48667, Note_on_c, 0, 58, 0
1, 48668, Pitch_bend_c, 1, 11312
1, 48668, Pitch_bend_c, 2, 11312
1, 48669, Pitch_bend_c, 1, 10922
1, 48669, Pitch_bend_c, 2, 10922
1, 48670, Pitch_bend_c, 1, 10662
1, 48670, Pitch_bend_c, 2, 10662
1, 48671, Pitch_bend_c, 1, 10402
1, 48671, Pitch_bend_c, 2, 10402
1, 48673, Pitch_bend_c, 1, 10142
1, 48673, Pitch_bend_c, 1, 9882
1, 48673, Pitch_bend_c, 2, 10142
1, 48673, Pitch_bend_c, 2, 9882
1, 48675, Pitch_bend_c, 1, 9622
1, 48675, Pitch_bend_c, 2, 9622
1, 48677, Pitch_bend_c, 1, 9232
1, 48677, Pitch_bend_c, 2, 9232
1, 48678, Pitch_bend_c, 1, 8972
1, 48678, Pitch_bend_c, 2, 8972
1, 48679, Pitch_bend_c, 1, 8712
1, 48679, Pitch_bend_c, 2, 8712
1, 48681, Pitch_bend_c, 1, 8192
1, 48681, Pitch_bend_c, 1, 8192
1, 48681, Pitch_bend_c, 2, 8192
1, 48681, Pitch_bend_c, 2, 8192
1, 48682, Pitch_bend_c, 1, 8192
1, 48682, Pitch_bend_c, 2, 8192
1, 48686, Note_on_c, 0, 58, 47
1, 48687, Note_on_c, 0, 61, 49
1, 48688, Note_on_c, 0, 97, 71
1, 48689, Note_on_c, 0, 85, 70
1, 48689, Control_c, 0, 64, 0
1, 48689, Note_on_c, 0, 52, 47
1, 48692, Note_on_c, 0, 92, 53
1, 48711, Note_on_c, 0, 61, 0
1, 48712, Pitch_bend_c, 1, 8192
1, 48712, Pitch_bend_c, 1, 8192
1, 48712, Pitch_bend_c, 2, 8192
1, 48712, Pitch_bend_c, 2, 8192
1, 48712, Note_on_c, 9, 51, 79
1, 48714, Note_on_c, 0, 52, 0
1, 48714, Pitch_bend_c, 1, 8712
1, 48714, Pitch_bend_c, 2, 8712
1, 48715, Pitch_bend_c, 1, 8972
1, 48715, Pitch_bend_c, 2, 8972
1, 48717, Note_on_c, 0, 85, 0
1, 48717, Note_on_c, 0, 97, 0
1, 48717, Pitch_bend_c, 1, 9232
1, 48717, Pitch_bend_c, 1, 9492
1, 48717, Pitch_bend_c, 2, 9232
1, 48717, Pitch_bend_c, 2, 9492
1, 48719, Note_on_c, 0, 92, 0
1, 48719, Pitch_bend_c, 1, 9752
1, 48719, Pitch_bend_c, 2, 9752
1, 48720, Note_on_c, 9, 44, 0
1, 48721, Pitch_bend_c, 1, 9882
1, 48721, Pitch_bend_c, 2, 9882
1, 48722, Pitch_bend_c, 1, 10142
1, 48722, Pitch_bend_c, 2, 10142
1, 48724, Pitch_bend_c, 1, 10272
1, 48724, Pitch_bend_c, 2, 10272
1, 48725, Note_on_c, 0, 61, 32
1, 48728, Control_c, 0, 64, 127
1, 48730, Note_on_c, 0, 52, 12
1, 48732, Note_on_c, 0, 61, 0
1, 48732, Note_on_c, 0, 92, 36
1, 48733, Pitch_bend_c, 1, 10142
1, 48733, Pitch_bend_c, 2, 10142
1, 48735, Pitch_bend_c, 1, 9882
1, 48735, Pitch_bend_c, 2, 9882
1, 48737, Note_on_c, 0, 96, 46
1, 48737, Pitch_bend_c, 1, 9622
1, 48737, Pitch_bend_c, 2, 9622
1, 48738, Pitch_bend_c, 1, 9102
1, 48738, Pitch_bend_c, 2, 9102
1, 48739, Pitch_bend_c, 1, 8192
1, 48739, Pitch_bend_c, 2, 8192
1, 48740, Pitch_bend_c, 1, 8192
1, 48740, Pitch_bend_c, 2, 8192
1, 48741, Note_on_c, 0, 84, 37
1, 48742, Note_on_c, 9, 51, 0
1, 48745, Note_on_c, 0, 96, 0
1, 48755, Note_on_c, 0, 84, 0
1, 48755, Note_on_c, 0, 92, 0
1, 48755, Control_c, 0, 64, 0
1, 48769, Note_on_c, 0, 58, 0
1, 48770, Note_on_c, 0, 52, 0
1, 48805, Note_on_c, 0, 61, 43
1, 48805, Note_on_c, 0, 94, 56
1, 48806, Note_on_c, 0, 58, 39
1, 48808, Note_on_c, 0, 82, 55
1, 48809, Note_on_c, 0, 52, 29
1, 48821, Note_on_c, 0, 52, 0
1, 48823, Note_on_c, 0, 94, 0
1, 48824, Note_on_c, 0, 61, 0
1, 48826, Note_on_c, 0, 82, 0
1, 48829, Note_on_c, 0, 58, 0
1, 48837, Note_on_c, 9, 51, 75
1, 48840, Note_on_c, 9, 44, 101
1, 48847, Note_on_c, 0, 61, 39
1, 48848, Note_on_c, 0, 58, 35
1, 48850, Control_c, 0, 64, 127
1, 48850, Note_on_c, 0, 52, 34
1, 48850, Note_on_c, 0, 91, 36
1, 48850, Note_on_c, 0, 79, 47
1, 48866, Note_on_c, 9, 51, 0
1, 48882, Note_on_c, 9, 31, 40
1, 48891, Note_on_c, 9, 31, 0
1, 48894, Note_on_c, 0, 79, 0
1, 48895, Note_on_c, 0, 61, 0
1, 48898, Note_on_c, 0, 58, 0
1, 48900, Note_on_c, 0, 91, 0
1, 48918, Note_on_c, 9, 34, 59
1, 48919, Note_on_c, 0, 61, 35
1, 48924, Note_on_c, 1, 36, 40
1, 48924, Note_on_c, 2, 36, 40
1, 48925, Note_on_c, 0, 52, 0
1, 48933, Note_on_c, 9, 51, 51
1, 48935, Note_on_c, 2, 36, 0
1, 48935, Note_on_c, 1, 36, 0
1, 48937, Note_on_c, 0, 61, 0
1, 48945, Note_on_c, 9, 51, 0
1, 48952, Note_on_c, 1, 48, 0
1, 48952, Note_on_c, 2, 48, 0
1, 48954, Note_on_c, 9, 34, 0
1, 48958, Note_on_c, 9, 57, 62
1, 48959, Note_on_c, 1, 41, 53
1, 48959, Note_on_c, 2, 41, 53
1, 48960, Note_on_c, 9, 44, 0
1, 48960, Note_on_c, 9, 35, 57
1, 48961, Note_on_c, 0, 63, 29
1, 48962, Note_on_c, 0, 92, 45
1, 48964, Control_c, 0, 64, 0
1, 48964, Note_on_c, 0, 80, 31
1, 48964, Note_on_c, 0, 56, 35
1, 48965, Note_on_c, 9, 51, 63
1, 48967, Note_on_c, 0, 53, 33
1, 48967, Note_on_c, 0, 87, 44
1, 48969, Note_on_c, 0, 60, 38
1, 49004, Note_on_c, 9, 51, 0
1, 49004, Control_c, 0, 64, 127
1, 49040, Note_on_c, 0, 92, 0
1, 49053, Note_on_c, 0, 87, 0
1, 49062, Note_on_c, 0, 80, 0
1, 49078, Note_on_c, 9, 51, 80
1, 49080, Note_on_c, 1, 41, 0
1, 49080, Note_on_c, 2, 41, 0
1, 49080, Note_on_c, 9, 44, 96
1, 49084, Note_on_c, 0, 63, 0
1, 49084, Note_on_c, 1, 43, 46
1, 49084, Note_on_c, 2, 43, 46
1, 49089, Note_on_c, 0, 60, 0
1, 49103, Note_on_c, 0, 56, 0
1, 49105, Note_on_c, 0, 53, 0
1, 49116, Note_on_c, 9, 51, 0
1, 49148, Note_on_c, 9, 57, 0
1, 49164, Note_on_c, 1, 41, 53
1, 49164, Note_on_c, 2, 41, 53
1, 49172, Note_on_c, 2, 41, 0
1, 49172, Note_on_c, 1, 41, 0
1, 49176, Note_on_c, 9, 51, 45
1, 49187, Note_on_c, 9, 51, 0
1, 49187, Note_on_c, 1, 43, 0
1, 49187, Note_on_c, 2, 43, 0
1, 49192, Control_c, 0, 64, 0
1, 49199, Note_on_c, 1, 44, 43
1, 49199, Note_on_c, 2, 44, 43
1, 49200, Note_on_c, 9, 44, 0
1, 49208, Note_on_c, 9, 51, 69
1, 49211, Note_on_c, 0, 68, 50
1, 49214, Note_on_c, 0, 56, 38
1, 49215, Note_on_c, 0, 63, 40
1, 49218, Note_on_c, 0, 60, 43
1, 49219, Control_c, 0, 64, 127
1, 49256, Note_on_c, 0, 68, 0
1, 49262, Note_on_c, 0, 60, 0
1, 49269, Note_on_c, 9, 51, 0
1, 49269, Note_on_c, 0, 63, 0
1, 49283, Note_on_c, 0, 56, 0
1, 49284, Note_on_c, 0, 58, 57
1, 49285, Note_on_c, 0, 63, 48
1, 49288, Note_on_c, 0, 60, 66
1, 49290, Note_on_c, 0, 70, 64
1, 49290, Note_on_c, 0, 65, 39
1, 49312, Note_on_c, 0, 70, 0
1, 49313, Note_on_c, 0, 65, 0
1, 49316, Control_c, 0, 64, 0
1, 49319, Note_on_c, 0, 60, 0
1, 49320, Note_on_c, 1, 44, 0
1, 49320, Note_on_c, 2, 44, 0
1, 49320, Note_on_c, 1, 41, 48
1, 49320, Note_on_c, 2, 41, 48
1, 49320, Note_on_c, 9, 44, 102
1, 49322, Note_on_c, 9, 51, 86
1, 49327, Note_on_c, 0, 56, 51
1, 49329, Note_on_c, 0, 58, 0
1, 49330, Note_on_c, 9, 35, 0
1, 49333, Note_on_c, 0, 68, 32
1, 49334, Control_c, 0, 64, 127
1, 49342, Note_on_c, 0, 63, 0
1, 49344, Note_on_c, 0, 56, 0
1, 49347, Note_on_c, 0, 68, 0
1, 49363, Note_on_c, 9, 51, 0
1, 49401, Note_on_c, 1, 39, 25
1, 49401, Note_on_c, 2, 39, 25
1, 49406, Control_c, 0, 64, 0
1, 49407, Note_on_c, 2, 39, 0
1, 49407, Note_on_c, 1, 39, 0
1, 49407, Note_on_c, 0, 59, 66
1, 49407, Note_on_c, 0, 58, 47
1, 49408, Note_on_c, 0, 63, 57
1, 49408, Note_on_c, 0, 54, 51
1, 49412, Note_on_c, 9, 51, 42
1, 49423, Note_on_c, 9, 51, 0
1, 49425, Note_on_c, 2, 41, 0
1, 49425, Note_on_c, 1, 41, 0
1, 49436, Note_on_c, 1, 44, 50
1, 49436, Note_on_c, 2, 44, 50
1, 49437, Control_c, 0, 64, 127
1, 49440, Note_on_c, 9, 44, 0
1, 49447, Note_on_c, 9, 51, 56
1, 49459, Note_on_c, 1, 44, 0
1, 49459, Note_on_c, 2, 44, 0
1, 49485, Note_on_c, 9, 51, 0
1, 49497, Note_on_c, 9, 40, 26
1, 49500, Note_on_c, 0, 82, 74
1, 49501, Note_on_c, 0, 78, 77
1, 49503, Note_on_c, 9, 40, 0
1, 49523, Note_on_c, 1, 39, 32
1, 49523, Note_on_c, 2, 39, 32
1, 49526, Control_c, 0, 64, 0
1, 49530, Note_on_c, 0, 82, 0
1, 49531, Note_on_c, 2, 39, 0
1, 49531, Note_on_c, 1, 39, 0
1, 49531, Note_on_c, 9, 51, 73
1, 49538, Note_on_c, 0, 78, 0
1, 49542, Note_on_c, 0, 77, 36
1, 49547, Note_on_c, 9, 51, 0
1, 49560, Note_on_c, 0, 63, 0
1, 49560, Note_on_c, 9, 44, 96
1, 49562, Note_on_c, 0, 77, 0
1, 49562, Note_on_c, 9, 51, 76
1, 49562, Note_on_c, 9, 40, 42
1, 49564, Note_on_c, 1, 37, 37
1, 49564, Note_on_c, 2, 37, 37
1, 49572, Note_on_c, 2, 37, 0
1, 49572, Note_on_c, 1, 37, 0
1, 49576, Note_on_c, 0, 80, 47
1, 49577, Note_on_c, 0, 75, 57
1, 49578, Note_on_c, 9, 40, 0
1, 49579, Note_on_c, 1, 37, 31
1, 49579, Note_on_c, 2, 37, 31
1, 49582, Note_on_c, 0, 63, 31
1, 49592, Note_on_c, 9, 40, 37
1, 49599, Note_on_c, 9, 40, 0
1, 49603, Note_on_c, 0, 80, 0
1, 49604, Note_on_c, 0, 63, 0
1, 49609, Note_on_c, 0, 74, 60
1, 49611, Note_on_c, 0, 75, 0
1, 49633, Note_on_c, 0, 74, 0
1, 49641, Note_on_c, 9, 51, 0
1, 49646, Note_on_c, 0, 73, 55
1, 49646, Note_on_c, 0, 63, 38
1, 49675, Note_on_c, 2, 37, 0
1, 49675, Note_on_c, 1, 37, 0
1, 49680, Note_on_c, 9, 44, 0
1, 49680, Note_on_c, 0, 63, 0
1, 49680, Note_on_c, 0, 73, 0
1, 49683, Note_on_c, 9, 51, 76
1, 49685, Note_on_c, 0, 72, 50
1, 49689, Note_on_c, 1, 37, 51
1, 49689, Note_on_c, 2, 37, 51
1, 49706, Note_on_c, 0, 72, 0
1, 49723, Note_on_c, 0, 70, 53
1, 49724, Note_on_c, 0, 63, 47
1, 49736, Control_c, 0, 64, 127
1, 49739, Note_on_c, 9, 51, 0
1, 49755, Note_on_c, 0, 70, 0
1, 49756, Note_on_c, 0, 63, 0
1, 49766, Note_on_c, 0, 69, 46
1, 49770, Note_on_c, 9, 51, 41
1, 49775, Control_c, 0, 64, 0
1, 49781, Note_on_c, 9, 51, 0
1, 49787, Note_on_c, 0, 69, 0
1, 49800, Note_on_c, 9, 44, 98
1, 49803, Note_on_c, 0, 66, 51
1, 49803, Note_on_c, 0, 63, 46
1, 49805, Note_on_c, 9, 51, 81
1, 49807, Note_on_c, 1, 49, 56
1, 49807, Note_on_c, 2, 49, 56
1, 49821, Note_on_c, 0, 63, 0
1, 49824, Note_on_c, 2, 37, 0
1, 49824, Note_on_c, 0, 54, 0
1, 49824, Note_on_c, 1, 37, 0
1, 49839, Note_on_c, 0, 66, 0
1, 49845, Note_on_c, 0, 65, 39
1, 49850, Note_on_c, 9, 34, 27
1, 49857, Note_on_c, 9, 34, 0
1, 49862, Note_on_c, 0, 65, 0
1, 49872, Note_on_c, 0, 59, 0
1, 49884, Note_on_c, 9, 51, 0
1, 49885, Note_on_c, 9, 34, 18
1, 49886, Note_on_c, 0, 58, 0
1, 49889, Control_c, 0, 64, 127
1, 49894, Note_on_c, 1, 37, 23
1, 49894, Note_on_c, 2, 37, 23
1, 49899, Note_on_c, 9, 34, 0
1, 49904, Note_on_c, 1, 37, 0
1, 49904, Note_on_c, 2, 37, 0
1, 49909, Control_c, 0, 64, 0
1, 49915, Note_on_c, 2, 49, 0
1, 49915, Note_on_c, 1, 49, 0
1, 49920, Note_on_c, 9, 44, 0
1, 49924, Note_on_c, 9, 51, 47
1, 49927, Note_on_c, 9, 40, 26
1, 49928, Note_on_c, 1, 39, 51
1, 49928, Note_on_c, 2, 39, 51
1, 49929, Note_on_c, 9, 35, 26
1, 49939, Note_on_c, 9, 40, 0
1, 49940, Note_on_c, 0, 66, 23
1, 49954, Note_on_c, 9, 35, 0
1, 49966, Note_on_c, 9, 51, 0
1, 49966, Note_on_c, 0, 66, 0
1, 49998, Control_c, 0, 64, 127
1, 50008, Note_on_c, 9, 35, 17
1, 50011, Note_on_c, 0, 46, 25
1, 50021, Control_c, 0, 64, 0
1, 50024, Note_on_c, 0, 46, 0
1, 50027, Note_on_c, 9, 35, 0
1, 50040, Note_on_c, 9, 44, 102
1, 50043, Note_on_c, 0, 55, 33
1, 50043, Note_on_c, 0, 63, 44
1, 50045, Note_on_c, 0, 58, 35
1, 50049, Note_on_c, 9, 35, 62
1, 50050, Note_on_c, 0, 67, 30
1, 50054, Control_c, 0, 64, 127
1, 50064, Note_on_c, 0, 67, 0
1, 50073, Note_on_c, 9, 51, 48
1, 50082, Note_on_c, 0, 58, 0
1, 50083, Note_on_c, 9, 51, 0
1, 50083, Note_on_c, 9, 35, 0
1, 50087, Note_on_c, 0, 55, 0
1, 50087, Note_on_c, 0, 63, 0
1, 50120, Note_on_c, 9, 35, 87
1, 50131, Note_on_c, 0, 63, 45
1, 50135, Note_on_c, 0, 58, 52
1, 50136, Note_on_c, 0, 55, 41
1, 50137, Note_on_c, 0, 46, 35
1, 50138, Control_c, 0, 64, 0
1, 50139, Note_on_c, 9, 51, 73
1, 50152, Note_on_c, 9, 35, 0
1, 50157, Note_on_c, 9, 51, 0
1, 50159, Note_on_c, 0, 55, 0
1, 50160, Note_on_c, 9, 44, 0
1, 50165, Note_on_c, 1, 51, 65
1, 50165, Note_on_c, 2, 51, 65
1, 50166, Note_on_c, 0, 58, 0
1, 50169, Control_c, 0, 64, 127
1, 50180, Note_on_c, 0, 63, 0
1, 50180, Note_on_c, 9, 51, 60
1, 50233, Note_on_c, 9, 51, 0
1, 50250, Note_on_c, 0, 58, 48
1, 50251, Note_on_c, 0, 63, 44
1, 50252, Note_on_c, 0, 67, 46
1, 50254, Note_on_c, 0, 55, 45
1, 50259, Control_c, 0, 64, 0
1, 50272, Note_on_c, 0, 55, 0
1, 50272, Note_on_c, 0, 46, 0
1, 50274, Note_on_c, 0, 58, 0
1, 50276, Control_c, 0, 64, 127
1, 50278, Note_on_c, 0, 67, 0
1, 50280, Note_on_c, 9, 44, 100
1, 50287, Note_on_c, 9, 51, 44
1, 50295, Note_on_c, 0, 63, 0
1, 50299, Note_on_c, 9, 51, 0
1, 50303, Note_on_c, 2, 39, 0
1, 50303, Note_on_c, 1, 39, 0
1, 50362, Note_on_c, 1, 39, 33
1, 50362, Note_on_c, 2, 39, 33
1, 50364, Note_on_c, 0, 66, 67
1, 50365, Note_on_c, 9, 34, 17
1, 50370, Note_on_c, 9, 51, 67
1, 50378, Note_on_c, 9, 34, 0
1, 50378, Note_on_c, 2, 51, 0
1, 50378, Note_on_c, 1, 51, 0
1, 50381, Note_on_c, 0, 66, 0
1, 50388, Note_on_c, 1, 39, 0
1, 50388, Note_on_c, 2, 39, 0
1, 50390, Note_on_c, 9, 51, 0
1, 50395, Note_on_c, 0, 67, 57
1, 50396, Control_c, 0, 64, 0
1, 50398, Note_on_c, 0, 63, 31
1, 50399, Note_on_c, 1, 41, 51
1, 50399, Note_on_c, 2, 41, 51
1, 50400, Note_on_c, 9, 44, 0
1, 50403, Note_on_c, 0, 62, 28
1, 50410, Note_on_c, 0, 57, 31
1, 50415, Note_on_c, 9, 51, 49
1, 50417, Note_on_c, 0, 67, 0
1, 50430, Note_on_c, 0, 70, 54
1, 50445, Note_on_c, 0, 70, 0
1, 50449, Note_on_c, 9, 51, 0
1, 50456, Note_on_c, 0, 71, 56
1, 50476, Note_on_c, 0, 71, 0
1, 50482, Note_on_c, 0, 73, 62
1, 50498, Note_on_c, 0, 73, 0
1, 50515, Note_on_c, 0, 74, 60
1, 50520, Note_on_c, 9, 44, 102
1, 50526, Note_on_c, 0, 74, 0
1, 50526, Note_on_c, 9, 51, 64
1, 50540, Note_on_c, 0, 62, 0
1, 50545, Note_on_c, 9, 51, 0
1, 50546, Note_on_c, 0, 63, 0
1, 50593, Note_on_c, 0, 78, 56
1, 50598, Note_on_c, 0, 67, 38
1, 50599, Note_on_c, 0, 63, 28
1, 50602, Note_on_c, 9, 51, 41
1, 50603, Note_on_c, 1, 53, 56
1, 50603, Note_on_c, 2, 53, 56
1, 50609, Note_on_c, 0, 78, 0
1, 50612, Note_on_c, 0, 67, 0
1, 50616, Note_on_c, 9, 51, 0
1, 50621, Note_on_c, 0, 79, 61
1, 50626, Note_on_c, 0, 63, 0
1, 50636, Note_on_c, 0, 79, 0
1, 50640, Note_on_c, 9, 44, 0
1, 50644, Note_on_c, 9, 53, 54
1, 50650, Note_on_c, 0, 82, 62
1, 50656, Note_on_c, 9, 53, 0
1, 50664, Note_on_c, 0, 82, 0
1, 50677, Note_on_c, 0, 63, 29
1, 50677, Note_on_c, 0, 62, 24
1, 50680, Note_on_c, 0, 83, 66
1, 50690, Note_on_c, 1, 36, 32
1, 50690, Note_on_c, 2, 36, 32
1, 50691, Note_on_c, 0, 62, 0
1, 50695, Note_on_c, 0, 83, 0
1, 50696, Note_on_c, 0, 63, 0
1, 50697, Note_on_c, 1, 36, 0
1, 50697, Note_on_c, 2, 36, 0
1, 50707, Note_on_c, 0, 85, 65
1, 50719, Note_on_c, 0, 85, 0
1, 50720, Control_c, 0, 64, 127
1, 50723, Note_on_c, 9, 51, 51
1, 50724, Note_on_c, 1, 30, 46
1, 50724, Note_on_c, 2, 30, 46
1, 50738, Note_on_c, 2, 30, 0
1, 50738, Note_on_c, 1, 30, 0
1, 50738, Note_on_c, 9, 51, 0
1, 50740, Note_on_c, 0, 86, 53
1, 50749, Note_on_c, 0, 86, 0
1, 50756, Note_on_c, 0, 63, 28
1, 50757, Note_on_c, 0, 62, 27
1, 50760, Note_on_c, 9, 46, 86
1, 50763, Note_on_c, 9, 53, 61
1, 50764, Control_c, 0, 64, 0
1, 50764, Note_on_c, 1, 29, 60
1, 50764, Note_on_c, 2, 29, 60
1, 50798, Note_on_c, 0, 95, 52
1, 50803, Control_c, 0, 64, 127
1, 50810, Note_on_c, 9, 53, 0
1, 50816, Note_on_c, 0, 62, 0
1, 50818, Note_on_c, 0, 95, 0
1, 50825, Note_on_c, 0, 98, 74
1, 50830, Note_on_c, 0, 63, 0
1, 50833, Note_on_c, 0, 57, 0
1, 50838, Note_on_c, 9, 35, 41
1, 50842, Note_on_c, 9, 51, 59
1, 50851, Note_on_c, 0, 98, 0
1, 50857, Note_on_c, 9, 35, 0
1, 50860, Note_on_c, 9, 51, 0
1, 50863, Note_on_c, 0, 95, 54
1, 50872, Note_on_c, 0, 95, 0
1, 50877, Note_on_c, 9, 51, 66
1, 50880, Note_on_c, 9, 46, 0
1, 50880, Control_c, 0, 64, 0
1, 50880, Note_on_c, 9, 35, 36
1, 50890, Note_on_c, 0, 96, 83
1, 50893, Note_on_c, 0, 67, 27
1, 50893, Note_on_c, 0, 63, 35
1, 50896, Note_on_c, 0, 56, 32
1, 50897, Note_on_c, 0, 60, 41
1, 50911, Note_on_c, 0, 67, 0
1, 50913, Note_on_c, 0, 96, 0
1, 50914, Note_on_c, 9, 35, 0
1, 50919, Note_on_c, 0, 60, 0
1, 50920, Note_on_c, 0, 63, 0
1, 50929, Note_on_c, 0, 92, 71
1, 50934, Note_on_c, 0, 63, 42
1, 50934, Note_on_c, 0, 67, 34
1, 50938, Note_on_c, 9, 51, 0
1, 50938, Note_on_c, 0, 60, 54
1, 50950, Control_c, 0, 64, 127
1, 50958, Note_on_c, 1, 34, 46
1, 50958, Note_on_c, 2, 34, 46
1, 50965, Note_on_c, 2, 34, 0
1, 50965, Note_on_c, 1, 34, 0
1, 50968, Note_on_c, 1, 41, 0
1, 50968, Note_on_c, 2, 41, 0
1, 50974, Note_on_c, 2, 29, 0
1, 50974, Note_on_c, 1, 29, 0
1, 50981, Note_on_c, 0, 56, 0
1, 50981, Note_on_c, 0, 67, 0
1, 50982, Note_on_c, 0, 60, 0
1, 50986, Note_on_c, 0, 63, 0
1, 50991, Note_on_c, 0, 92, 0
1, 50998, Control_c, 0, 64, 0
1, 50999, Note_on_c, 1, 53, 0
1, 50999, Note_on_c, 2, 53, 0
1, 51000, Note_on_c, 9, 44, 96
1, 51000, Note_on_c, 9, 51, 63
1, 51002, Note_on_c, 1, 34, 53
1, 51002, Note_on_c, 2, 34, 53
1, 51006, Note_on_c, 0, 63, 38
1, 51009, Note_on_c, 0, 91, 64
1, 51010, Note_on_c, 0, 56, 40
1, 51010, Note_on_c, 0, 60, 44
1, 51011, Note_on_c, 0, 67, 45
1, 51017, Control_c, 0, 64, 127
1, 51024, Note_on_c, 0, 67, 0
1, 51039, Note_on_c, 0, 60, 0
1, 51042, Note_on_c, 0, 91, 0
1, 51042, Note_on_c, 0, 63, 0
1, 51044, Note_on_c, 9, 51, 0
1, 51046, Note_on_c, 0, 92, 62
1, 51049, Note_on_c, 0, 63, 28
1, 51054, Note_on_c, 0, 67, 46
1, 51054, Note_on_c, 0, 60, 32
1, 51059, Control_c, 0, 64, 0
1, 51076, Control_c, 0, 64, 127
1, 51087, Note_on_c, 0, 67, 0
1, 51087, Note_on_c, 9, 35, 31
1, 51096, Note_on_c, 9, 51, 63
1, 51100, Note_on_c, 0, 56, 0
1, 51103, Note_on_c, 9, 35, 0
1, 51104, Note_on_c, 0, 92, 0
1, 51105, Note_on_c, 9, 51, 0
1, 51105, Note_on_c, 0, 63, 0
1, 51107, Note_on_c, 0, 60, 0
1, 51117, Control_c, 0, 64, 0
1, 51118, Note_on_c, 1, 46, 63
1, 51118, Note_on_c, 2, 46, 63
1, 51120, Note_on_c, 9, 44, 0
1, 51121, Note_on_c, 0, 89, 66
1, 51124, Note_on_c, 0, 62, 59
1, 51125, Note_on_c, 0, 66, 54
1, 51125, Note_on_c, 9, 51, 67
1, 51127, Note_on_c, 0, 56, 29
1, 51128, Note_on_c, 9, 35, 78
1, 51136, Control_c, 0, 64, 127
1, 51153, Note_on_c, 0, 66, 0
1, 51153, Note_on_c, 0, 89, 0
1, 51161, Note_on_c, 9, 35, 0
1, 51161, Note_on_c, 0, 56, 0
1, 51162, Note_on_c, 0, 62, 0
1, 51167, Note_on_c, 0, 89, 47
1, 51169, Note_on_c, 0, 66, 32
1, 51174, Note_on_c, 0, 56, 21
1, 51177, Note_on_c, 0, 62, 27
1, 51180, Note_on_c, 9, 51, 0
1, 51212, Note_on_c, 0, 62, 0
1, 51216, Note_on_c, 0, 66, 0
1, 51223, Note_on_c, 0, 56, 0
1, 51237, Note_on_c, 0, 89, 0
1, 51240, Note_on_c, 0, 66, 46
1, 51240, Note_on_c, 9, 44, 100
1, 51242, Note_on_c, 9, 51, 70
1, 51243, Control_c, 0, 64, 0
1, 51243, Note_on_c, 0, 86, 57
1, 51243, Note_on_c, 0, 56, 33
1, 51243, Note_on_c, 0, 62, 33
1, 51258, Note_on_c, 0, 62, 0
1, 51258, Note_on_c, 0, 66, 0
1, 51259, Note_on_c, 0, 56, 0
1, 51263, Note_on_c, 0, 86, 0
1, 51264, Note_on_c, 2, 34, 0
1, 51264, Note_on_c, 1, 34, 0
1, 51269, Control_c, 0, 64, 127
1, 51274, Note_on_c, 0, 66, 31
1, 51275, Note_on_c, 0, 87, 57
1, 51275, Note_on_c, 0, 56, 33
1, 51278, Note_on_c, 0, 62, 29
1, 51293, Note_on_c, 9, 51, 0
1, 51299, Note_on_c, 0, 66, 0
1, 51302, Note_on_c, 0, 62, 0
1, 51317, Note_on_c, 1, 34, 32
1, 51317, Note_on_c, 2, 34, 32
1, 51319, Note_on_c, 9, 35, 35
1, 51325, Note_on_c, 2, 34, 0
1, 51325, Note_on_c, 1, 34, 0
1, 51326, Note_on_c, 0, 56, 0
1, 51333, Note_on_c, 9, 35, 0
1, 51335, Note_on_c, 0, 87, 0
1, 51351, Control_c, 0, 64, 0
1, 51352, Note_on_c, 0, 87, 40
1, 51357, Note_on_c, 0, 62, 35
1, 51357, Note_on_c, 0, 65, 35
1, 51357, Note_on_c, 0, 55, 41
1, 51360, Note_on_c, 9, 44, 0
1, 51360, Note_on_c, 0, 60, 36
1, 51362, Note_on_c, 1, 34, 62
1, 51362, Note_on_c, 2, 34, 62
1, 51362, Note_on_c, 9, 35, 44
1, 51371, Note_on_c, 9, 51, 56
1, 51373, Note_on_c, 9, 35, 0
1, 51378, Control_c, 0, 64, 127
1, 51380, Note_on_c, 2, 46, 0
1, 51380, Note_on_c, 1, 46, 0
1, 51388, Note_on_c, 0, 65, 0
1, 51390, Note_on_c, 0, 60, 0
1, 51392, Note_on_c, 0, 62, 0
1, 51394, Note_on_c, 0, 55, 0
1, 51401, Note_on_c, 0, 79, 58
1, 51403, Note_on_c, 0, 55, 24
1, 51407, Note_on_c, 0, 62, 30
1, 51407, Note_on_c, 0, 65, 53
1, 51410, Note_on_c, 0, 60, 33
1, 51411, Note_on_c, 9, 51, 0
1, 51428, Note_on_c, 0, 65, 0
1, 51429, Note_on_c, 0, 79, 0
1, 51433, Note_on_c, 0, 60, 0
1, 51438, Note_on_c, 0, 62, 0
1, 51443, Note_on_c, 0, 55, 0
1, 51445, Note_on_c, 0, 87, 0
1, 51451, Control_c, 0, 64, 0
1, 51462, Note_on_c, 9, 51, 30
1, 51472, Note_on_c, 9, 51, 0
1, 51479, Control_c, 0, 64, 127
1, 51479, Note_on_c, 0, 62, 45
1, 51480, Note_on_c, 0, 65, 53
1, 51480, Note_on_c, 9, 44, 102
1, 51481, Note_on_c, 0, 79, 56
1, 51482, Note_on_c, 0, 55, 44
1, 51483, Note_on_c, 0, 60, 37
1, 51485, Note_on_c, 1, 46, 62
1, 51485, Note_on_c, 2, 46, 62
1, 51489, Note_on_c, 9, 40, 26
1, 51495, Note_on_c, 9, 40, 0
1, 51495, Note_on_c, 0, 65, 0
1, 51496, Note_on_c, 9, 51, 38
1, 51499, Note_on_c, 0, 62, 0
1, 51499, Note_on_c, 0, 79, 0
1, 51501, Note_on_c, 0, 60, 0
1, 51517, Note_on_c, 0, 55, 0
1, 51518, Note_on_c, 9, 51, 0
1, 51520, Note_on_c, 9, 31, 29
1, 51535, Note_on_c, 9, 31, 0
1, 51541, Note_on_c, 2, 34, 0
1, 51541, Note_on_c, 1, 34, 0
1, 51555, Note_on_c, 2, 46, 0
1, 51555, Note_on_c, 1, 46, 0
1, 51569, Note_on_c, 1, 35, 51
1, 51569, Note_on_c, 2, 35, 51
1, 51572, Note_on_c, 9, 51, 74
1, 51600, Note_on_c, 9, 44, 0
1, 51601, Control_c, 0, 64, 0
1, 51604, Note_on_c, 0, 61, 49
1, 51607, Note_on_c, 0, 59, 47
1, 51608, Note_on_c, 1, 47, 60
1, 51608, Note_on_c, 2, 47, 60
1, 51610, Note_on_c, 0, 53, 24
1, 51610, Note_on_c, 0, 43, 26
1, 51615, Note_on_c, 9, 51, 0
1, 51619, Control_c, 0, 64, 127
1, 51651, Note_on_c, 0, 59, 0
1, 51660, Note_on_c, 9, 40, 26
1, 51664, Note_on_c, 0, 53, 0
1, 51674, Note_on_c, 0, 61, 0
1, 51679, Note_on_c, 0, 43, 0
1, 51684, Note_on_c, 0, 59, 38
1, 51684, Note_on_c, 0, 62, 46
1, 51685, Note_on_c, 0, 50, 47
1, 51686, Note_on_c, 9, 40, 0
1, 51688, Note_on_c, 9, 51, 75
1, 51697, Note_on_c, 1, 47, 0
1, 51697, Note_on_c, 2, 47, 0
1, 51704, Note_on_c, 0, 59, 0
1, 51706, Note_on_c, 0, 50, 0
1, 51708, Note_on_c, 0, 62, 0
1, 51710, Control_c, 0, 64, 0
1, 51720, Note_on_c, 0, 59, 33
1, 51720, Note_on_c, 9, 46, 105
1, 51723, Note_on_c, 1, 47, 58
1, 51723, Note_on_c, 2, 47, 58
1, 51726, Note_on_c, 0, 47, 47
1, 51726, Control_c, 0, 64, 127
1, 51726, Note_on_c, 0, 65, 57
1, 51727, Note_on_c, 9, 57, 64
1, 51728, Note_on_c, 0, 62, 29
1, 51729, Note_on_c, 9, 40, 62
1, 51731, Note_on_c, 9, 51, 0
1, 51740, Note_on_c, 9, 40, 0
1, 51752, Note_on_c, 0, 59, 0
1, 51756, Note_on_c, 9, 57, 0
1, 51764, Note_on_c, 9, 40, 66
1, 51765, Note_on_c, 2, 35, 0
1, 51765, Note_on_c, 1, 35, 0
1, 51772, Note_on_c, 9, 40, 0
1, 51772, Note_on_c, 0, 62, 0
1, 51775, Note_on_c, 0, 65, 0
1, 51788, Note_on_c, 9, 31, 42
1, 51795, Note_on_c, 0, 47, 0
1, 51799, Control_c, 0, 64, 0
1, 51799, Note_on_c, 9, 51, 81
1, 51802, Note_on_c, 0, 63, 39
1, 51803, Note_on_c, 9, 31, 0
1, 51805, Note_on_c, 0, 60, 43
1, 51807, Note_on_c, 0, 48, 40
1, 51807, Note_on_c, 0, 55, 40
1, 51810, Note_on_c, 1, 35, 46
1, 51810, Note_on_c, 2, 35, 46
1, 51816, Note_on_c, 2, 47, 0
1, 51816, Note_on_c, 1, 47, 0
1, 51820, Note_on_c, 9, 51, 0
1, 51821, Note_on_c, 9, 34, 62
1, 51824, Note_on_c, 0, 55, 0
1, 51827, Control_c, 0, 64, 127
1, 51828, Note_on_c, 1, 35, 0
1, 51828, Note_on_c, 2, 35, 0
1, 51829, Note_on_c, 0, 48, 0
1, 51833, Note_on_c, 0, 60, 0
1, 51840, Note_on_c, 9, 46, 0
1, 51841, Note_on_c, 9, 59, 90
1, 51844, Note_on_c, 9, 57, 57
1, 51846, Note_on_c, 0, 63, 0
1, 51846, Note_on_c, 9, 35, 72
1, 51847, Note_on_c, 1, 48, 52
1, 51847, Note_on_c, 2, 48, 52
1, 51852, Note_on_c, 9, 34, 0
1, 51856, Note_on_c, 9, 57, 0
1, 51879, Note_on_c, 9, 35, 0
1, 51914, Note_on_c, 1, 48, 0
1, 51914, Note_on_c, 2, 48, 0
1, 51927, Note_on_c, 1, 42, 30
1, 51927, Note_on_c, 2, 42, 30
1, 51930, Note_on_c, 0, 63, 37
1, 51931, Note_on_c, 0, 75, 54
1, 51931, Note_on_c, 0, 87, 81
1, 51932, Note_on_c, 9, 59, 0
1, 51932, Note_on_c, 0, 62, 47
1, 51932, Note_on_c, 0, 82, 61
1, 51932, Note_on_c, 0, 58, 36
1, 51934, Note_on_c, 0, 67, 51
1, 51945, Control_c, 0, 64, 0
1, 51953, Note_on_c, 1, 42, 0
1, 51953, Note_on_c, 2, 42, 0
1, 51960, Note_on_c, 9, 44, 96
1, 51962, Note_on_c, 1, 43, 31
1, 51962, Note_on_c, 2, 43, 31
1, 51962, Note_on_c, 9, 59, 74
1, 51974, Control_c, 0, 64, 127
1, 52023, Note_on_c, 0, 62, 0
1, 52030, Note_on_c, 0, 67, 0
1, 52033, Note_on_c, 9, 59, 0
1, 52034, Note_on_c, 0, 63, 0
1, 52044, Note_on_c, 0, 58, 0
1, 52050, Note_on_c, 0, 87, 0
1, 52052, Note_on_c, 0, 75, 0
1, 52058, Note_on_c, 0, 82, 0
1, 52066, Note_on_c, 2, 43, 0
1, 52066, Note_on_c, 1, 43, 0
1, 52080, Note_on_c, 9, 44, 0
1, 52083, Note_on_c, 9, 59, 109
1, 52084, Note_on_c, 1, 45, 55
1, 52084, Note_on_c, 2, 45, 55
1, 52088, Note_on_c, 0, 60, 55
1, 52089, Note_on_c, 0, 61, 43
1, 52089, Note_on_c, 0, 65, 58
1, 52091, Note_on_c, 0, 87, 73
1, 52091, Note_on_c, 0, 82, 71
1, 52092, Note_on_c, 0, 75, 67
1, 52092, Control_c, 0, 64, 0
1, 52095, Note_on_c, 0, 55, 48
1, 52120, Control_c, 0, 64, 127
1, 52120, Note_on_c, 9, 31, 37
1, 52126, Note_on_c, 9, 31, 0
1, 52155, Note_on_c, 9, 34, 62
1, 52158, Note_on_c, 9, 59, 0
1, 52180, Note_on_c, 9, 34, 0
1, 52192, Note_on_c, 1, 45, 0
1, 52192, Note_on_c, 2, 45, 0
1, 52197, Note_on_c, 9, 57, 78
1, 52197, Note_on_c, 9, 35, 67
1, 52200, Note_on_c, 1, 39, 44
1, 52200, Note_on_c, 2, 39, 44
1, 52200, Note_on_c, 9, 44, 100
1, 52200, Note_on_c, 9, 59, 91
1, 52237, Note_on_c, 0, 55, 0
1, 52238, Note_on_c, 0, 82, 0
1, 52241, Note_on_c, 0, 75, 0
1, 52241, Note_on_c, 0, 87, 0
1, 52244, Note_on_c, 9, 57, 0
1, 52245, Note_on_c, 9, 35, 0
1, 52252, Note_on_c, 0, 60, 0
1, 52255, Note_on_c, 0, 65, 0
1, 52261, Note_on_c, 9, 59, 0
1, 52272, Note_on_c, 0, 74, 36
1, 52274, Note_on_c, 0, 86, 29
1, 52274, Note_on_c, 9, 57, 94
1, 52274, Note_on_c, 9, 35, 86
1, 52281, Note_on_c, 0, 74, 0
1, 52284, Note_on_c, 0, 86, 0
1, 52287, Note_on_c, 0, 61, 0
1, 52298, Note_on_c, 9, 59, 67
1, 52308, Note_on_c, 9, 59, 0
1, 52311, Note_on_c, 9, 57, 0
1, 52313, Note_on_c, 0, 87, 33
1, 52320, Note_on_c, 0, 87, 0
1, 52320, Note_on_c, 9, 44, 0
1, 52321, Note_on_c, 1, 39, 0
1, 52321, Note_on_c, 2, 39, 0
1, 52321, Note_on_c, 1, 38, 49
1, 52321, Note_on_c, 2, 38, 49
1, 52328, Note_on_c, 9, 59, 83
1, 52329, Note_on_c, 9, 35, 0
1, 52364, Note_on_c, 0, 68, 25
1, 52371, Note_on_c, 0, 68, 0
1, 52393, Note_on_c, 9, 59, 0
1, 52410, Note_on_c, 0, 56, 60
1, 52412, Note_on_c, 0, 67, 68
1, 52412, Note_on_c, 0, 60, 74
1, 52413, Note_on_c, 0, 64, 73
1, 52414, Note_on_c, 0, 55, 66
1, 52415, Note_on_c, 0, 53, 57
1, 52430, Control_c, 0, 64, 0
1, 52436, Note_on_c, 0, 60, 0
1, 52439, Note_on_c, 9, 59, 92
1, 52440, Note_on_c, 9, 44, 98
1, 52443, Note_on_c, 0, 64, 0
1, 52444, Note_on_c, 0, 53, 0
1, 52444, Note_on_c, 0, 56, 0
1, 52444, Note_on_c, 0, 55, 0
1, 52444, Note_on_c, 1, 32, 52
1, 52444, Note_on_c, 2, 32, 52
1, 52446, Note_on_c, 1, 38, 0
1, 52446, Note_on_c, 2, 38, 0
1, 52448, Note_on_c, 0, 67, 0
1, 52475, Control_c, 0, 64, 127
1, 52482, Note_on_c, 0, 67, 58
1, 52484, Note_on_c, 0, 56, 46
1, 52484, Note_on_c, 0, 64, 57
1, 52485, Note_on_c, 0, 60, 58
1, 52490, Note_on_c, 0, 55, 47
1, 52492, Note_on_c, 0, 53, 42
1, 52508, Note_on_c, 9, 59, 0
1, 52521, Note_on_c, 0, 55, 0
1, 52530, Note_on_c, 0, 64, 0
1, 52533, Note_on_c, 0, 60, 0
1, 52534, Note_on_c, 0, 53, 0
1, 52536, Note_on_c, 0, 56, 0
1, 52547, Note_on_c, 0, 67, 0
1, 52549, Note_on_c, 1, 32, 0
1, 52549, Note_on_c, 2, 32, 0
1, 52559, Note_on_c, 1, 31, 53
1, 52559, Note_on_c, 2, 31, 53
1, 52560, Note_on_c, 9, 44, 0
1, 52562, Note_on_c, 9, 59, 90
1, 52568, Note_on_c, 0, 67, 43
1, 52570, Note_on_c, 0, 63, 51
1, 52573, Note_on_c, 0, 53, 57
1, 52574, Note_on_c, 0, 59, 47
1, 52576, Control_c, 0, 64, 0
1, 52601, Control_c, 0, 64, 127
1, 52622, Note_on_c, 0, 67, 0
1, 52639, Note_on_c, 0, 63, 0
1, 52639, Note_on_c, 9, 59, 0
1, 52639, Note_on_c, 0, 59, 0
1, 52647, Note_on_c, 9, 29, 60
1, 52650, Note_on_c, 0, 53, 0
1, 52678, Note_on_c, 1, 31, 0
1, 52678, Note_on_c, 2, 31, 0
1, 52680, Note_on_c, 1, 35, 45
1, 52680, Note_on_c, 2, 35, 45
1, 52680, Note_on_c, 9, 44, 100
1, 52686, Note_on_c, 9, 59, 87
1, 52754, Note_on_c, 9, 59, 0
1, 52765, Note_on_c, 0, 62, 58
1, 52765, Note_on_c, 0, 56, 56
1, 52770, Note_on_c, 0, 59, 45
1, 52771, Note_on_c, 0, 47, 49
1, 52771, Note_on_c, 9, 34, 63
1, 52773, Note_on_c, 9, 39, 51
1, 52778, Note_on_c, 0, 59, 0
1, 52779, Note_on_c, 9, 59, 51
1, 52796, Note_on_c, 9, 59, 0
1, 52796, Note_on_c, 0, 56, 0
1, 52798, Note_on_c, 0, 62, 0
1, 52800, Note_on_c, 9, 44, 0
1, 52800, Note_on_c, 1, 36, 57
1, 52800, Note_on_c, 2, 36, 57
1, 52805, Note_on_c, 2, 35, 0
1, 52805, Note_on_c, 1, 35, 0
1, 52809, Note_on_c, 9, 39, 0
1, 52811, Note_on_c, 0, 47, 0
1, 52811, Control_c, 0, 64, 0
1, 52813, Note_on_c, 9, 59, 86
1, 52817, Note_on_c, 9, 29, 0
1, 52818, Note_on_c, 0, 55, 36
1, 52819, Note_on_c, 9, 35, 29
1, 52820, Note_on_c, 0, 48, 46
1, 52820, Note_on_c, 0, 63, 36
1, 52821, Note_on_c, 9, 34, 0
1, 52821, Note_on_c, 9, 40, 19
1, 52822, Note_on_c, 0, 60, 30
1, 52830, Note_on_c, 9, 40, 0
1, 52852, Note_on_c, 9, 35, 0
1, 52856, Control_c, 0, 64, 127
1, 52857, Note_on_c, 2, 36, 0
1, 52857, Note_on_c, 1, 36, 0
1, 52882, Note_on_c, 1, 36, 37
1, 52882, Note_on_c, 2, 36, 37
1, 52890, Note_on_c, 9, 59, 0
1, 52894, Note_on_c, 0, 36, 58
1, 52895, Note_on_c, 0, 48, 0
1, 52895, Note_on_c, 0, 55, 0
1, 52907, Note_on_c, 2, 36, 0
1, 52907, Note_on_c, 1, 36, 0
1, 52907, Note_on_c, 0, 36, 0
1, 52914, Note_on_c, 1, 38, 57
1, 52914, Note_on_c, 2, 38, 57
1, 52918, Note_on_c, 0, 60, 0
1, 52920, Note_on_c, 9, 44, 102
1, 52929, Note_on_c, 9, 59, 85
1, 52941, Note_on_c, 0, 63, 0
1, 52994, Note_on_c, 9, 59, 0
1, 52999, Note_on_c, 9, 35, 79
1, 53010, Note_on_c, 9, 35, 0
1, 53021, Note_on_c, 9, 59, 54
1, 53031, Note_on_c, 2, 38, 0
1, 53031, Note_on_c, 1, 38, 0
1, 53033, Note_on_c, 9, 59, 0
1, 53034, Note_on_c, 1, 39, 59
1, 53034, Note_on_c, 2, 39, 59
1, 53040, Note_on_c, 9, 44, 0
1, 53041, Note_on_c, 0, 72, 74
1, 53041, Note_on_c, 0, 65, 70
1, 53041, Note_on_c, 0, 68, 74
1, 53042, Note_on_c, 0, 61, 56
1, 53042, Note_on_c, 0, 56, 50
1, 53042, Note_on_c, 0, 75, 58
1, 53043, Note_on_c, 0, 60, 58
1, 53049, Note_on_c, 0, 75, 0
1, 53052, Control_c, 0, 64, 0
1, 53054, Note_on_c, 9, 59, 76
1, 53073, Control_c, 0, 64, 127
1, 53133, Note_on_c, 0, 77, 76
1, 53134, Note_on_c, 9, 59, 0
1, 53150, Control_c, 0, 64, 0
1, 53155, Note_on_c, 1, 46, 75
1, 53155, Note_on_c, 2, 46, 75
1, 53160, Note_on_c, 9, 44, 99
1, 53164, Note_on_c, 2, 39, 0
1, 53164, Note_on_c, 1, 39, 0
1, 53170, Control_c, 0, 64, 127
1, 53170, Note_on_c, 9, 59, 83
1, 53194, Note_on_c, 0, 77, 0
1, 53211, Note_on_c, 0, 68, 0
1, 53211, Note_on_c, 0, 65, 0
1, 53215, Note_on_c, 0, 60, 0
1, 53216, Note_on_c, 0, 72, 0
1, 53218, Note_on_c, 0, 61, 0
1, 53231, Note_on_c, 9, 59, 0
1, 53235, Note_on_c, 0, 56, 0
1, 53241, Note_on_c, 9, 35, 83
1, 53243, Note_on_c, 9, 34, 39
1, 53248, Note_on_c, 9, 34, 0
1, 53254, Note_on_c, 9, 59, 46
1, 53267, Note_on_c, 1, 46, 0
1, 53267, Note_on_c, 2, 46, 0
1, 53271, Note_on_c, 9, 59, 0
1, 53275, Note_on_c, 9, 35, 0
1, 53277, Note_on_c, 1, 45, 58
1, 53277, Note_on_c, 2, 45, 58
1, 53280, Note_on_c, 9, 44, 0
1, 53290, Note_on_c, 9, 59, 79
1, 53356, Note_on_c, 9, 59, 0
1, 53400, Note_on_c, 9, 44, 99
1, 53404, Note_on_c, 9, 59, 86
1, 53409, Note_on_c, 0, 79, 78
1, 53409, Note_on_c, 0, 77, 75
1, 53410, Note_on_c, 0, 61, 59
1, 53410, Note_on_c, 0, 66, 58
1, 53410, Note_on_c, 0, 72, 71
1, 53411, Note_on_c, 0, 69, 80
1, 53412, Note_on_c, 0, 55, 66
1, 53415, Control_c, 0, 64, 0
1, 53415, Note_on_c, 0, 75, 39
1, 53422, Note_on_c, 0, 75, 0
1, 53448, Control_c, 0, 64, 127
1, 53472, Note_on_c, 9, 59, 0
1, 53497, Note_on_c, 2, 45, 0
1, 53497, Note_on_c, 1, 45, 0
1, 53520, Note_on_c, 9, 44, 0
1, 53521, Note_on_c, 0, 66, 0
1, 53522, Note_on_c, 0, 55, 0
1, 53523, Note_on_c, 1, 44, 71
1, 53523, Note_on_c, 2, 44, 71
1, 53524, Note_on_c, 0, 79, 0
1, 53527, Note_on_c, 9, 59, 86
1, 53533, Note_on_c, 0, 69, 0
1, 53534, Note_on_c, 0, 77, 0
1, 53539, Note_on_c, 0, 72, 0
1, 53586, Note_on_c, 0, 61, 0
1, 53588, Note_on_c, 9, 59, 0
1, 53609, Note_on_c, 9, 31, 23
1, 53610, Note_on_c, 0, 65, 51
1, 53610, Note_on_c, 0, 70, 50
1, 53611, Note_on_c, 0, 74, 49
1, 53611, Note_on_c, 0, 60, 49
1, 53615, Note_on_c, 0, 54, 39
1, 53617, Note_on_c, 9, 31, 0
1, 53618, Control_c, 0, 64, 0
1, 53640, Note_on_c, 9, 44, 101
1, 53642, Note_on_c, 2, 44, 0
1, 53642, Note_on_c, 1, 44, 0
1, 53645, Note_on_c, 1, 38, 47
1, 53645, Note_on_c, 2, 38, 47
1, 53645, Note_on_c, 9, 59, 90
1, 53649, Control_c, 0, 64, 127
1, 53656, Note_on_c, 9, 31, 23
1, 53664, Note_on_c, 9, 31, 0
1, 53685, Note_on_c, 0, 70, 0
1, 53692, Note_on_c, 0, 74, 0
1, 53694, Note_on_c, 0, 60, 0
1, 53703, Note_on_c, 9, 59, 0
1, 53704, Note_on_c, 0, 65, 0
1, 53714, Note_on_c, 0, 54, 0
1, 53722, Note_on_c, 9, 35, 24
1, 53734, Note_on_c, 9, 35, 0
1, 53737, Note_on_c, 9, 59, 58
1, 53750, Note_on_c, 9, 59, 0
1, 53760, Note_on_c, 9, 44, 0
1, 53761, Note_on_c, 0, 65, 48
1, 53763, Note_on_c, 2, 38, 0
1, 53763, Note_on_c, 1, 38, 0
1, 53763, Note_on_c, 0, 62, 44
1, 53763, Note_on_c, 1, 43, 53
1, 53763, Note_on_c, 2, 43, 53
1, 53764, Note_on_c, 0, 67, 49
1, 53764, Note_on_c, 0, 58, 33
1, 53765, Note_on_c, 0, 55, 38
1, 53765, Note_on_c, 0, 70, 44
1, 53767, Note_on_c, 0, 57, 45
1, 53767, Note_on_c, 9, 35, 40
1, 53769, Note_on_c, 9, 59, 81
1, 53770, Control_c, 0, 64, 0
1, 53775, Note_on_c, 9, 35, 0
1, 53811, Control_c, 0, 64, 127
1, 53839, Note_on_c, 9, 31, 25
1, 53844, Note_on_c, 9, 59, 0
1, 53849, Note_on_c, 9, 31, 0
1, 53880, Note_on_c, 9, 44, 100
1, 53881, Note_on_c, 2, 43, 0
1, 53881, Note_on_c, 1, 43, 0
1, 53882, Note_on_c, 1, 31, 41
1, 53882, Note_on_c, 2, 31, 41
1, 53886, Note_on_c, 9, 31, 25
1, 53890, Note_on_c, 9, 59, 83
1, 53893, Note_on_c, 9, 31, 0
1, 53925, Note_on_c, 0, 65, 0
1, 53936, Note_on_c, 0, 67, 0
1, 53936, Note_on_c, 0, 62, 0
1, 53936, Note_on_c, 0, 70, 0
1, 53945, Note_on_c, 0, 57, 0
1, 53948, Note_on_c, 0, 55, 0
1, 53956, Note_on_c, 0, 58, 0
1, 53960, Note_on_c, 9, 40, 17
1, 53963, Note_on_c, 9, 59, 0
1, 53969, Note_on_c, 0, 70, 83
1, 53970, Note_on_c, 9, 40, 0
1, 53997, Note_on_c, 0, 70, 0
1, 54000, Note_on_c, 9, 44, 0
1, 54000, Note_on_c, 1, 40, 49
1, 54000, Note_on_c, 2, 40, 49
1, 54008, Note_on_c, 9, 59, 80
1, 54012, Note_on_c, 0, 70, 64
1, 54013, Control_c, 0, 64, 0
1, 54013, Note_on_c, 0, 58, 50
1, 54015, Note_on_c, 0, 62, 63
1, 54015, Note_on_c, 0, 67, 60
1, 54017, Note_on_c, 1, 31, 0
1, 54017, Note_on_c, 2, 31, 0
1, 54036, Control_c, 0, 64, 127
1, 54047, Note_on_c, 9, 40, 32
1, 54062, Note_on_c, 9, 40, 0
1, 54071, Note_on_c, 9, 59, 0
1, 54083, Note_on_c, 0, 62, 0
1, 54085, Note_on_c, 9, 31, 26
1, 54087, Note_on_c, 0, 67, 0
1, 54087, Note_on_c, 0, 58, 0
1, 54093, Note_on_c, 0, 57, 37
1, 54098, Note_on_c, 0, 70, 0
1, 54100, Note_on_c, 9, 31, 0
1, 54112, Control_c, 0, 64, 0
1, 54117, Note_on_c, 2, 40, 0
1, 54117, Note_on_c, 1, 40, 0
1, 54118, Note_on_c, 1, 34, 51
1, 54118, Note_on_c, 2, 34, 51
1, 54120, Note_on_c, 9, 44, 101
1, 54129, Note_on_c, 9, 59, 97
1, 54131, Control_c, 0, 64, 127
1, 54132, Note_on_c, 0, 57, 0
1, 54132, Note_on_c, 0, 67, 60
1, 54132, Note_on_c, 0, 58, 48
1, 54134, Note_on_c, 0, 70, 52
1, 54135, Note_on_c, 0, 62, 55
1, 54154, Note_on_c, 0, 62, 0
1, 54154, Note_on_c, 0, 58, 0
1, 54175, Note_on_c, 0, 67, 0
1, 54183, Note_on_c, 0, 70, 0
1, 54213, Note_on_c, 0, 61, 43
1, 54214, Note_on_c, 0, 55, 55
1, 54215, Note_on_c, 0, 69, 77
1, 54216, Note_on_c, 9, 59, 0
1, 54216, Note_on_c, 0, 72, 74
1, 54216, Note_on_c, 0, 65, 72
1, 54217, Control_c, 0, 64, 0
1, 54237, Note_on_c, 1, 34, 0
1, 54237, Note_on_c, 2, 34, 0
1, 54240, Note_on_c, 9, 44, 0
1, 54240, Control_c, 0, 64, 127
1, 54244, Note_on_c, 0, 65, 0
1, 54244, Note_on_c, 1, 33, 50
1, 54244, Note_on_c, 2, 33, 50
1, 54253, Note_on_c, 0, 69, 0
1, 54255, Note_on_c, 0, 72, 0
1, 54262, Note_on_c, 9, 59, 43
1, 54283, Note_on_c, 9, 59, 0
1, 54284, Note_on_c, 9, 40, 26
1, 54293, Note_on_c, 9, 40, 0
1, 54325, Note_on_c, 1, 39, 53
1, 54325, Note_on_c, 2, 39, 53
1, 54326, Note_on_c, 9, 31, 18
1, 54329, Note_on_c, 0, 77, 76
1, 54330, Note_on_c, 0, 84, 82
1, 54332, Note_on_c, 9, 59, 58
1, 54333, Note_on_c, 9, 31, 0
1, 54334, Note_on_c, 1, 33, 0
1, 54334, Note_on_c, 2, 33, 0
1, 54342, Note_on_c, 9, 59, 0
1, 54348, Note_on_c, 1, 39, 0
1, 54348, Note_on_c, 2, 39, 0
1, 54360, Note_on_c, 9, 44, 101
1, 54365, Note_on_c, 0, 84, 0
1, 54366, Note_on_c, 1, 37, 47
1, 54366, Note_on_c, 2, 37, 47
1, 54368, Note_on_c, 0, 77, 0
1, 54370, Note_on_c, 0, 55, 0
1, 54371, Note_on_c, 9, 59, 90
1, 54375, Note_on_c, 0, 81, 35
1, 54381, Note_on_c, 0, 72, 35
1, 54389, Note_on_c, 0, 61, 0
1, 54409, Note_on_c, 0, 72, 0
1, 54411, Note_on_c, 9, 37, 26
1, 54420, Note_on_c, 9, 37, 0
1, 54426, Note_on_c, 0, 81, 0
1, 54447, Note_on_c, 0, 58, 49
1, 54448, Note_on_c, 0, 54, 44
1, 54449, Note_on_c, 0, 65, 48
1, 54449, Note_on_c, 0, 60, 57
1, 54452, Note_on_c, 9, 31, 23
1, 54457, Control_c, 0, 64, 0
1, 54463, Note_on_c, 9, 59, 0
1, 54465, Note_on_c, 9, 31, 0
1, 54476, Note_on_c, 1, 37, 0
1, 54476, Note_on_c, 2, 37, 0
1, 54480, Note_on_c, 9, 44, 0
1, 54483, Note_on_c, 1, 38, 51
1, 54483, Note_on_c, 2, 38, 51
1, 54485, Control_c, 0, 64, 127
1, 54491, Note_on_c, 9, 40, 69
1, 54493, Note_on_c, 9, 59, 54
1, 54510, Note_on_c, 9, 59, 0
1, 54517, Note_on_c, 9, 40, 0
1, 54533, Note_on_c, 9, 31, 17
1, 54549, Note_on_c, 9, 31, 0
1, 54568, Note_on_c, 1, 44, 84
1, 54568, Note_on_c, 2, 44, 84
1, 54568, Note_on_c, 9, 37, 18
1, 54570, Note_on_c, 0, 82, 74
1, 54571, Note_on_c, 0, 89, 74
1, 54572, Note_on_c, 9, 59, 49
1, 54581, Note_on_c, 9, 59, 0
1, 54587, Control_c, 0, 64, 0
1, 54589, Note_on_c, 9, 37, 0
1, 54590, Note_on_c, 2, 38, 0
1, 54590, Note_on_c, 1, 38, 0
1, 54596, Note_on_c, 0, 89, 0
1, 54600, Note_on_c, 9, 46, 98
1, 54601, Control_c, 0, 64, 127
1, 54605, Note_on_c, 2, 44, 0
1, 54605, Note_on_c, 1, 44, 0
1, 54607, Note_on_c, 9, 59, 84
1, 54609, Note_on_c, 0, 65, 0
1, 54613, Note_on_c, 0, 77, 40
1, 54613, Note_on_c, 1, 42, 19
1, 54613, Note_on_c, 2, 42, 19
1, 54616, Note_on_c, 0, 60, 0
1, 54637, Note_on_c, 0, 77, 0
1, 54639, Note_on_c, 0, 54, 0
1, 54640, Note_on_c, 0, 82, 0
1, 54647, Note_on_c, 9, 40, 62
1, 54652, Note_on_c, 0, 58, 0
1, 54671, Note_on_c, 9, 40, 0
1, 54679, Note_on_c, 0, 62, 51
1, 54680, Note_on_c, 0, 57, 49
1, 54680, Note_on_c, 0, 58, 35
1, 54681, Note_on_c, 9, 31, 38
1, 54682, Note_on_c, 0, 55, 44
1, 54684, Note_on_c, 1, 37, 34
1, 54684, Note_on_c, 2, 37, 34
1, 54693, Note_on_c, 9, 31, 0
1, 54695, Note_on_c, 2, 37, 0
1, 54695, Note_on_c, 1, 37, 0
1, 54695, Control_c, 0, 64, 0
1, 54698, Note_on_c, 9, 59, 0
1, 54712, Note_on_c, 1, 42, 0
1, 54712, Note_on_c, 2, 42, 0
1, 54720, Note_on_c, 9, 46, 0
1, 54720, Note_on_c, 1, 43, 56
1, 54720, Note_on_c, 2, 43, 56
1, 54721, Control_c, 0, 64, 127
1, 54729, Note_on_c, 9, 59, 51
1, 54740, Note_on_c, 2, 43, 0
1, 54740, Note_on_c, 1, 43, 0
1, 54750, Note_on_c, 9, 59, 0
1, 54773, Note_on_c, 0, 93, 72
1, 54773, Note_on_c, 0, 81, 63
1, 54791, Note_on_c, 0, 93, 0
1, 54795, Note_on_c, 0, 81, 0
1, 54797, Note_on_c, 9, 31, 17
1, 54798, Note_on_c, 0, 57, 0
1, 54802, Note_on_c, 1, 38, 53
1, 54802, Note_on_c, 2, 38, 53
1, 54803, Note_on_c, 0, 62, 0
1, 54805, Note_on_c, 0, 58, 0
1, 54809, Note_on_c, 9, 59, 53
1, 54810, Note_on_c, 0, 89, 27
1, 54820, Note_on_c, 9, 59, 0
1, 54822, Control_c, 0, 64, 0
1, 54823, Note_on_c, 9, 31, 0
1, 54823, Note_on_c, 1, 38, 0
1, 54823, Note_on_c, 2, 38, 0
1, 54825, Note_on_c, 0, 89, 0
1, 54840, Note_on_c, 9, 44, 96
1, 54841, Note_on_c, 9, 59, 77
1, 54842, Note_on_c, 1, 34, 37
1, 54842, Note_on_c, 2, 34, 37
1, 54843, Note_on_c, 9, 40, 41
1, 54846, Note_on_c, 0, 93, 78
1, 54846, Note_on_c, 0, 57, 39
1, 54847, Note_on_c, 0, 58, 35
1, 54847, Note_on_c, 0, 81, 62
1, 54848, Control_c, 0, 64, 127
1, 54850, Note_on_c, 0, 62, 20
1, 54853, Note_on_c, 0, 86, 37
1, 54861, Note_on_c, 0, 86, 0
1, 54864, Note_on_c, 0, 55, 0
1, 54864, Note_on_c, 0, 62, 0
1, 54865, Note_on_c, 0, 57, 0
1, 54870, Note_on_c, 0, 58, 0
1, 54871, Note_on_c, 0, 81, 0
1, 54871, Note_on_c, 0, 93, 0
1, 54876, Note_on_c, 9, 40, 0
1, 54884, Note_on_c, 9, 31, 46
1, 54898, Note_on_c, 9, 31, 0
1, 54925, Note_on_c, 0, 58, 42
1, 54925, Note_on_c, 0, 62, 47
1, 54927, Note_on_c, 0, 81, 63
1, 54929, Control_c, 0, 64, 0
1, 54930, Note_on_c, 0, 89, 40
1, 54930, Note_on_c, 0, 93, 37
1, 54933, Note_on_c, 9, 59, 0
1, 54935, Note_on_c, 0, 62, 0
1, 54936, Note_on_c, 0, 81, 0
1, 54938, Note_on_c, 0, 93, 0
1, 54942, Note_on_c, 0, 89, 0
1, 54946, Note_on_c, 0, 58, 0
1, 54960, Note_on_c, 9, 44, 0
1, 54963, Note_on_c, 9, 59, 70
1, 54966, Control_c, 0, 64, 127
1, 54973, Note_on_c, 0, 63, 48
1, 54974, Note_on_c, 0, 58, 40
1, 54974, Note_on_c, 0, 87, 52
1, 54975, Note_on_c, 0, 92, 39
1, 54975, Note_on_c, 0, 56, 29
1, 54977, Note_on_c, 0, 80, 25
1, 54991, Note_on_c, 0, 90, 18
1, 54996, Note_on_c, 1, 42, 51
1, 54996, Note_on_c, 2, 42, 51
1, 54999, Note_on_c, 2, 34, 0
1, 54999, Note_on_c, 1, 34, 0
1, 55002, Note_on_c, 1, 42, 0
1, 55002, Note_on_c, 2, 42, 0
1, 55008, Note_on_c, 0, 92, 0
1, 55013, Note_on_c, 0, 56, 0
1, 55014, Note_on_c, 9, 40, 21
1, 55015, Note_on_c, 0, 63, 0
1, 55018, Note_on_c, 0, 90, 0
1, 55018, Note_on_c, 0, 58, 0
1, 55018, Note_on_c, 0, 87, 0
1, 55019, Note_on_c, 0, 80, 0
1, 55024, Note_on_c, 9, 40, 0
1, 55031, Note_on_c, 9, 59, 0
1, 55037, Note_on_c, 1, 37, 52
1, 55037, Note_on_c, 2, 37, 52
1, 55045, Note_on_c, 0, 94, 70
1, 55046, Note_on_c, 0, 82, 62
1, 55046, Note_on_c, 0, 63, 51
1, 55048, Note_on_c, 0, 58, 38
1, 55049, Note_on_c, 0, 87, 54
1, 55052, Note_on_c, 0, 56, 29
1, 55052, Note_on_c, 0, 52, 32
1, 55053, Note_on_c, 2, 37, 0
1, 55053, Note_on_c, 1, 37, 0
1, 55062, Note_on_c, 0, 56, 0
1, 55063, Note_on_c, 0, 52, 0
1, 55063, Note_on_c, 0, 63, 0
1, 55065, Note_on_c, 0, 87, 0
1, 55068, Note_on_c, 0, 94, 0
1, 55068, Note_on_c, 0, 58, 0
1, 55074, Note_on_c, 0, 82, 0
1, 55078, Note_on_c, 1, 30, 55
1, 55078, Note_on_c, 2, 30, 55
1, 55080, Note_on_c, 9, 44, 100
1, 55081, Control_c, 0, 64, 0
1, 55082, Note_on_c, 9, 59, 83
1, 55088, Control_c, 0, 64, 127
1, 55090, Note_on_c, 0, 63, 43
1, 55090, Note_on_c, 9, 40, 31
1, 55092, Note_on_c, 0, 92, 45
1, 55092, Note_on_c, 0, 58, 28
1, 55093, Note_on_c, 0, 80, 32
1, 55096, Note_on_c, 9, 40, 0
1, 55096, Note_on_c, 0, 87, 49
1, 55096, Note_on_c, 0, 52, 32
1, 55101, Note_on_c, 0, 56, 25
1, 55119, Note_on_c, 0, 52, 0
1, 55124, Note_on_c, 9, 35, 51
1, 55125, Note_on_c, 0, 56, 0
1, 55126, Note_on_c, 0, 87, 0
1, 55130, Note_on_c, 9, 59, 0
1, 55132, Note_on_c, 0, 92, 0
1, 55133, Note_on_c, 0, 80, 0
1, 55135, Note_on_c, 0, 58, 0
1, 55135, Note_on_c, 0, 63, 0
1, 55136, Note_on_c, 9, 35, 0
1, 55168, Note_on_c, 0, 63, 48
1, 55168, Note_on_c, 0, 56, 42
1, 55168, Note_on_c, 0, 53, 58
1, 55170, Note_on_c, 0, 87, 60
1, 55170, Note_on_c, 0, 79, 56
1, 55170, Note_on_c, 0, 60, 56
1, 55171, Note_on_c, 0, 91, 57
1, 55175, Note_on_c, 9, 59, 63
1, 55179, Control_c, 0, 64, 0
1, 55186, Note_on_c, 9, 59, 0
1, 55193, Note_on_c, 1, 30, 0
1, 55193, Note_on_c, 2, 30, 0
1, 55195, Control_c, 0, 64, 127
1, 55199, Note_on_c, 1, 29, 46
1, 55199, Note_on_c, 2, 29, 46
1, 55200, Note_on_c, 9, 44, 0
1, 55212, Note_on_c, 9, 59, 70
1, 55228, Note_on_c, 0, 91, 0
1, 55231, Note_on_c, 0, 53, 0
1, 55233, Note_on_c, 0, 79, 0
1, 55233, Note_on_c, 0, 56, 0
1, 55238, Note_on_c, 0, 60, 0
1, 55241, Note_on_c, 0, 63, 0
1, 55247, Note_on_c, 0, 87, 0
1, 55267, Note_on_c, 2, 29, 0
1, 55267, Note_on_c, 1, 29, 0
1, 55281, Note_on_c, 1, 29, 39
1, 55281, Note_on_c, 2, 29, 39
1, 55283, Note_on_c, 0, 92, 71
1, 55284, Note_on_c, 0, 87, 72
1, 55285, Note_on_c, 0, 80, 68
1, 55286, Note_on_c, 9, 59, 0
1, 55286, Note_on_c, 0, 63, 49
1, 55288, Note_on_c, 0, 60, 49
1, 55291, Note_on_c, 0, 53, 48
1, 55291, Note_on_c, 0, 56, 36
1, 55302, Note_on_c, 1, 29, 0
1, 55302, Note_on_c, 2, 29, 0
1, 55308, Note_on_c, 9, 59, 67
1, 55310, Note_on_c, 0, 63, 0
1, 55316, Note_on_c, 0, 80, 0
1, 55317, Note_on_c, 0, 87, 0
1, 55318, Note_on_c, 0, 92, 0
1, 55318, Note_on_c, 0, 60, 0
1, 55319, Note_on_c, 1, 31, 30
1, 55319, Note_on_c, 2, 31, 30
1, 55320, Note_on_c, 9, 44, 102
1, 55324, Control_c, 0, 64, 0
1, 55328, Note_on_c, 9, 59, 0
1, 55328, Control_c, 0, 64, 127
1, 55333, Note_on_c, 0, 63, 34
1, 55339, Note_on_c, 0, 91, 35
1, 55340, Note_on_c, 9, 59, 86
1, 55342, Note_on_c, 0, 86, 33
1, 55342, Note_on_c, 0, 79, 34
1, 55346, Note_on_c, 0, 53, 0
1, 55355, Note_on_c, 0, 86, 0
1, 55355, Note_on_c, 0, 91, 0
1, 55355, Note_on_c, 0, 56, 0
1, 55364, Note_on_c, 0, 79, 0
1, 55367, Note_on_c, 0, 63, 0
1, 55372, Note_on_c, 9, 31, 19
1, 55382, Note_on_c, 9, 31, 0
1, 55411, Note_on_c, 0, 90, 71
1, 55411, Note_on_c, 0, 66, 51
1, 55411, Note_on_c, 9, 31, 38
1, 55412, Note_on_c, 0, 78, 68
1, 55412, Note_on_c, 0, 62, 45
1, 55413, Note_on_c, 0, 56, 42
1, 55421, Note_on_c, 9, 59, 0
1, 55424, Control_c, 0, 64, 0
1, 55434, Note_on_c, 2, 31, 0
1, 55434, Note_on_c, 1, 31, 0
1, 55436, Note_on_c, 9, 31, 0
1, 55440, Note_on_c, 9, 44, 0
1, 55440, Note_on_c, 1, 32, 45
1, 55440, Note_on_c, 2, 32, 45
1, 55444, Control_c, 0, 64, 127
1, 55445, Note_on_c, 0, 66, 0
1, 55446, Note_on_c, 0, 56, 0
1, 55448, Note_on_c, 9, 59, 68
1, 55450, Note_on_c, 0, 78, 0
1, 55453, Note_on_c, 0, 62, 0
1, 55457, Note_on_c, 0, 90, 0
1, 55468, Note_on_c, 0, 66, 33
1, 55468, Note_on_c, 0, 89, 36
1, 55471, Note_on_c, 0, 77, 44
1, 55474, Note_on_c, 0, 62, 24
1, 55474, Note_on_c, 0, 56, 18
1, 55477, Note_on_c, 0, 89, 0
1, 55479, Note_on_c, 0, 77, 0
1, 55488, Note_on_c, 0, 56, 0
1, 55488, Note_on_c, 0, 66, 0
1, 55488, Note_on_c, 0, 62, 0
1, 55491, Note_on_c, 9, 31, 30
1, 55499, Note_on_c, 9, 31, 0
1, 55520, Note_on_c, 9, 59, 0
1, 55531, Note_on_c, 0, 66, 69
1, 55531, Note_on_c, 0, 86, 74
1, 55531, Note_on_c, 0, 62, 60
1, 55531, Note_on_c, 9, 31, 46
1, 55532, Note_on_c, 0, 56, 57
1, 55543, Note_on_c, 9, 31, 0
1, 55560, Note_on_c, 9, 44, 98
1, 55565, Note_on_c, 2, 32, 0
1, 55565, Note_on_c, 1, 32, 0
1, 55566, Note_on_c, 1, 34, 40
1, 55566, Note_on_c, 2, 34, 40
1, 55566, Note_on_c, 9, 59, 85
1, 55576, Note_on_c, 0, 86, 0
1, 55576, Control_c, 0, 64, 0
1, 55577, Control_c, 0, 64, 127
1, 55590, Note_on_c, 0, 81, 44
1, 55610, Note_on_c, 9, 31, 38
1, 55613, Note_on_c, 0, 62, 0
1, 55623, Note_on_c, 0, 66, 0
1, 55625, Note_on_c, 9, 31, 0
1, 55627, Note_on_c, 0, 81, 0
1, 55642, Note_on_c, 9, 59, 0
1, 55645, Note_on_c, 0, 56, 0
1, 55647, Note_on_c, 9, 34, 38
1, 55648, Note_on_c, 9, 57, 37
1, 55651, Note_on_c, 0, 78, 62
1, 55661, Note_on_c, 9, 59, 61
1, 55665, Note_on_c, 0, 55, 22
1, 55672, Note_on_c, 9, 57, 0
1, 55680, Note_on_c, 9, 44, 0
1, 55682, Note_on_c, 9, 59, 0
1, 55683, Note_on_c, 1, 39, 43
1, 55683, Note_on_c, 2, 39, 43
1, 55686, Note_on_c, 0, 78, 0
1, 55687, Note_on_c, 2, 34, 0
1, 55687, Note_on_c, 1, 34, 0
1, 55691, Note_on_c, 9, 57, 58
1, 55693, Note_on_c, 9, 34, 0
1, 55693, Note_on_c, 9, 35, 65
1, 55697, Note_on_c, 9, 59, 78
1, 55702, Note_on_c, 0, 65, 24
1, 55702, Control_c, 0, 64, 0
1, 55703, Note_on_c, 0, 60, 19
1, 55706, Note_on_c, 0, 77, 37
1, 55715, Note_on_c, 9, 57, 0
1, 55718, Note_on_c, 0, 65, 0
1, 55722, Note_on_c, 0, 60, 0
1, 55734, Note_on_c, 0, 55, 0
1, 55738, Control_c, 0, 64, 127
1, 55740, Note_on_c, 0, 77, 0
1, 55757, Note_on_c, 9, 35, 0
1, 55774, Note_on_c, 0, 61, 51
1, 55775, Note_on_c, 0, 65, 58
1, 55779, Note_on_c, 9, 59, 0
1, 55779, Note_on_c, 0, 55, 36
1, 55782, Note_on_c, 0, 65, 0
1, 55790, Note_on_c, 2, 39, 0
1, 55790, Note_on_c, 1, 39, 0
1, 55791, Control_c, 0, 64, 0
1, 55795, Note_on_c, 0, 61, 0
1, 55795, Note_on_c, 0, 55, 0
1, 55800, Note_on_c, 1, 39, 42
1, 55800, Note_on_c, 2, 39, 42
1, 55800, Note_on_c, 9, 44, 99
1, 55805, Note_on_c, 9, 59, 73
1, 55809, Control_c, 0, 64, 127
1, 55875, Note_on_c, 9, 35, 48
1, 55883, Note_on_c, 9, 59, 0
1, 55900, Note_on_c, 9, 35, 0
1, 55913, Control_c, 0, 64, 0
1, 55918, Note_on_c, 1, 43, 60
1, 55918, Note_on_c, 2, 43, 60
1, 55920, Note_on_c, 9, 44, 0
1, 55920, Note_on_c, 0, 54, 56
1, 55921, Note_on_c, 0, 64, 41
1, 55921, Note_on_c, 0, 59, 55
1, 55923, Note_on_c, 0, 85, 63
1, 55924, Note_on_c, 0, 73, 57
1, 55924, Note_on_c, 0, 80, 55
1, 55925, Note_on_c, 9, 59, 78
1, 55927, Note_on_c, 0, 62, 31
1, 55934, Note_on_c, 0, 62, 0
1, 55935, Note_on_c, 1, 39, 0
1, 55935, Note_on_c, 2, 39, 0
1, 55935, Control_c, 0, 64, 127
1, 55942, Note_on_c, 0, 64, 0
1, 55949, Note_on_c, 0, 59, 0
1, 55960, Note_on_c, 0, 54, 0
1, 55964, Note_on_c, 0, 80, 0
1, 55965, Note_on_c, 0, 73, 0
1, 55972, Note_on_c, 0, 85, 0
1, 56000, Note_on_c, 9, 59, 0
1, 56032, Note_on_c, 1, 43, 0
1, 56032, Note_on_c, 2, 43, 0
1, 56034, Control_c, 0, 64, 0
1, 56040, Note_on_c, 9, 44, 95
1, 56041, Note_on_c, 0, 55, 60
1, 56042, Note_on_c, 1, 43, 73
1, 56042, Note_on_c, 2, 43, 73
1, 56043, Note_on_c, 0, 60, 53
1, 56043, Note_on_c, 9, 59, 77
1, 56045, Note_on_c, 0, 86, 60
1, 56046, Note_on_c, 0, 81, 48
1, 56046, Note_on_c, 0, 74, 52
1, 56059, Control_c, 0, 64, 127
1, 56074, Note_on_c, 0, 55, 0
1, 56075, Note_on_c, 0, 60, 0
1, 56087, Note_on_c, 0, 74, 0
1, 56087, Note_on_c, 0, 86, 0
1, 56094, Note_on_c, 0, 81, 0
1, 56111, Note_on_c, 9, 59, 0
1, 56123, Note_on_c, 9, 31, 35
1, 56131, Note_on_c, 9, 31, 0
1, 56136, Note_on_c, 9, 59, 54
1, 56141, Note_on_c, 1, 43, 0
1, 56141, Note_on_c, 2, 43, 0
1, 56151, Note_on_c, 9, 59, 0
1, 56153, Control_c, 0, 64, 0
1, 56160, Note_on_c, 9, 44, 0
1, 56161, Note_on_c, 1, 46, 67
1, 56161, Note_on_c, 2, 46, 67
1, 56162, Note_on_c, 0, 87, 57
1, 56163, Note_on_c, 0, 65, 53
1, 56164, Note_on_c, 0, 61, 38
1, 56165, Note_on_c, 0, 75, 47
1, 56165, Note_on_c, 0, 60, 37
1, 56165, Note_on_c, 0, 80, 47
1, 56165, Note_on_c, 0, 56, 32
1, 56166, Note_on_c, 9, 31, 37
1, 56170, Note_on_c, 9, 59, 76
1, 56171, Note_on_c, 0, 84, 40
1, 56172, Note_on_c, 9, 31, 0
1, 56175, Control_c, 0, 64, 127
1, 56196, Note_on_c, 0, 84, 0
1, 56201, Note_on_c, 0, 80, 0
1, 56201, Note_on_c, 0, 87, 0
1, 56203, Note_on_c, 0, 75, 0
1, 56216, Note_on_c, 0, 65, 0
1, 56222, Note_on_c, 0, 61, 0
1, 56224, Note_on_c, 0, 56, 0
1, 56228, Note_on_c, 0, 60, 0
1, 56251, Note_on_c, 9, 59, 0
1, 56271, Note_on_c, 1, 46, 0
1, 56271, Note_on_c, 2, 46, 0
1, 56279, Note_on_c, 0, 82, 51
1, 56280, Note_on_c, 9, 44, 91
1, 56281, Control_c, 0, 64, 0
1, 56281, Note_on_c, 0, 61, 38
1, 56282, Note_on_c, 0, 65, 51
1, 56282, Note_on_c, 1, 46, 70
1, 56282, Note_on_c, 2, 46, 70
1, 56283, Note_on_c, 0, 75, 44
1, 56284, Note_on_c, 9, 59, 76
1, 56285, Note_on_c, 0, 70, 34
1, 56286, Note_on_c, 0, 56, 31
1, 56287, Control_c, 0, 64, 127
1, 56287, Note_on_c, 0, 60, 26
1, 56317, Note_on_c, 0, 60, 0
1, 56326, Note_on_c, 0, 61, 0
1, 56327, Note_on_c, 0, 65, 0
1, 56341, Note_on_c, 0, 56, 0
1, 56345, Note_on_c, 0, 70, 0
1, 56351, Note_on_c, 0, 75, 0
1, 56353, Note_on_c, 9, 59, 0
1, 56365, Note_on_c, 0, 82, 0
1, 56393, Control_c, 0, 64, 0
1, 56396, Note_on_c, 1, 51, 52
1, 56396, Note_on_c, 2, 51, 52
1, 56400, Note_on_c, 9, 44, 0
1, 56401, Note_on_c, 0, 55, 48
1, 56401, Note_on_c, 0, 82, 49
1, 56402, Note_on_c, 9, 59, 77
1, 56403, Note_on_c, 0, 64, 42
1, 56405, Note_on_c, 2, 46, 0
1, 56405, Note_on_c, 1, 46, 0
1, 56405, Note_on_c, 0, 61, 37
1, 56405, Note_on_c, 0, 70, 39
1, 56405, Note_on_c, 0, 76, 51
1, 56411, Control_c, 0, 64, 127
1, 56425, Note_on_c, 0, 64, 0
1, 56429, Note_on_c, 0, 76, 0
1, 56430, Note_on_c, 0, 82, 0
1, 56432, Note_on_c, 0, 61, 0
1, 56437, Note_on_c, 0, 55, 0
1, 56441, Note_on_c, 0, 70, 0
1, 56467, Note_on_c, 9, 59, 0
1, 56508, Note_on_c, 1, 51, 0
1, 56508, Note_on_c, 2, 51, 0
1, 56515, Note_on_c, 1, 45, 57
1, 56515, Note_on_c, 2, 45, 57
1, 56520, Note_on_c, 0, 70, 60
1, 56520, Note_on_c, 9, 44, 100
1, 56521, Note_on_c, 9, 40, 25
1, 56522, Note_on_c, 0, 61, 71
1, 56523, Control_c, 0, 64, 0
1, 56523, Note_on_c, 0, 64, 63
1, 56524, Note_on_c, 0, 67, 59
1, 56524, Note_on_c, 0, 45, 50
1, 56526, Note_on_c, 0, 55, 47
1, 56527, Note_on_c, 9, 59, 67
1, 56529, Note_on_c, 9, 40, 0
1, 56541, Control_c, 0, 64, 127
1, 56556, Note_on_c, 9, 31, 30
1, 56565, Note_on_c, 9, 31, 0
1, 56579, Note_on_c, 9, 59, 0
1, 56591, Note_on_c, 0, 67, 0
1, 56595, Note_on_c, 0, 64, 0
1, 56601, Note_on_c, 0, 70, 0
1, 56603, Note_on_c, 0, 61, 0
1, 56606, Note_on_c, 0, 45, 0
1, 56608, Note_on_c, 0, 55, 0
1, 56632, Note_on_c, 2, 45, 0
1, 56632, Note_on_c, 1, 45, 0
1, 56640, Note_on_c, 9, 44, 0
1, 56641, Note_on_c, 1, 44, 55
1, 56641, Note_on_c, 2, 44, 55
1, 56647, Control_c, 0, 64, 0
1, 56647, Note_on_c, 9, 59, 73
1, 56725, Note_on_c, 9, 59, 0
1, 56729, Note_on_c, 9, 54, 68
1, 56730, Note_on_c, 0, 51, 39
1, 56731, Note_on_c, 0, 58, 47
1, 56731, Note_on_c, 0, 44, 39
1, 56732, Note_on_c, 0, 54, 39
1, 56733, Note_on_c, 0, 61, 42
1, 56733, Note_on_c, 0, 65, 43
1, 56746, Note_on_c, 9, 54, 0
1, 56753, Note_on_c, 1, 44, 0
1, 56753, Note_on_c, 2, 44, 0
1, 56760, Note_on_c, 0, 54, 0
1, 56760, Note_on_c, 9, 44, 101
1, 56763, Note_on_c, 0, 58, 0
1, 56763, Note_on_c, 1, 44, 67
1, 56763, Note_on_c, 2, 44, 67
1, 56764, Note_on_c, 0, 51, 0
1, 56768, Note_on_c, 0, 65, 0
1, 56768, Note_on_c, 0, 44, 0
1, 56769, Note_on_c, 0, 61, 0
1, 56780, Note_on_c, 9, 59, 37
1, 56786, Control_c, 0, 64, 127
1, 56847, Note_on_c, 9, 59, 0
1, 56863, Control_c, 0, 64, 0
1, 56869, Note_on_c, 2, 44, 0
1, 56869, Note_on_c, 1, 44, 0
1, 56880, Note_on_c, 9, 44, 0
1, 56880, Control_c, 0, 64, 127
1, 56880, Note_on_c, 1, 39, 49
1, 56880, Note_on_c, 2, 39, 49
1, 56885, Note_on_c, 9, 59, 68
1, 56916, Control_c, 0, 64, 0
1, 56925, Note_on_c, 0, 82, 65
1, 56925, Note_on_c, 0, 65, 64
1, 56927, Note_on_c, 0, 72, 54
1, 56927, Note_on_c, 0, 60, 44
1, 56927, Note_on_c, 0, 77, 59
1, 56929, Note_on_c, 0, 58, 34
1, 56930, Note_on_c, 0, 54, 25
1, 56933, Note_on_c, 0, 65, 0
1, 56934, Note_on_c, 0, 77, 0
1, 56934, Note_on_c, 0, 72, 0
1, 56935, Note_on_c, 0, 60, 0
1, 56936, Note_on_c, 0, 58, 0
1, 56938, Note_on_c, 0, 54, 0
1, 56941, Note_on_c, 0, 82, 0
1, 56943, Control_c, 0, 64, 127
1, 56956, Note_on_c, 9, 59, 0
1, 56959, Note_on_c, 0, 54, 44
1, 56960, Note_on_c, 0, 65, 49
1, 56961, Note_on_c, 0, 60, 38
1, 56962, Note_on_c, 0, 82, 50
1, 56964, Note_on_c, 0, 72, 45
1, 56965, Note_on_c, 0, 77, 48
1, 56969, Note_on_c, 0, 65, 0
1, 56970, Note_on_c, 0, 60, 0
1, 56972, Note_on_c, 0, 77, 0
1, 56974, Note_on_c, 0, 72, 0
1, 56977, Note_on_c, 0, 54, 0
1, 56977, Note_on_c, 0, 82, 0
1, 56985, Control_c, 0, 64, 0
1, 56987, Note_on_c, 2, 39, 0
1, 56987, Note_on_c, 1, 39, 0
1, 57000, Note_on_c, 9, 44, 98
1, 57001, Note_on_c, 1, 39, 45
1, 57001, Note_on_c, 2, 39, 45
1, 57001, Note_on_c, 9, 59, 72
1, 57014, Note_on_c, 0, 78, 54
1, 57014, Note_on_c, 0, 69, 60
1, 57016, Note_on_c, 0, 74, 54
1, 57016, Note_on_c, 0, 54, 57
1, 57020, Note_on_c, 0, 65, 57
1, 57020, Note_on_c, 0, 60, 49
1, 57027, Note_on_c, 0, 65, 0
1, 57029, Note_on_c, 0, 60, 0
1, 57029, Note_on_c, 0, 69, 0
1, 57031, Note_on_c, 0, 74, 0
1, 57034, Note_on_c, 0, 54, 0
1, 57035, Note_on_c, 0, 78, 0
1, 57054, Note_on_c, 0, 78, 36
1, 57054, Note_on_c, 0, 69, 37
1, 57055, Note_on_c, 0, 74, 39
1, 57058, Note_on_c, 0, 54, 25
1, 57063, Note_on_c, 0, 69, 0
1, 57064, Note_on_c, 0, 74, 0
1, 57067, Note_on_c, 0, 54, 0
1, 57074, Note_on_c, 0, 78, 0
1, 57075, Note_on_c, 9, 59, 0
1, 57075, Control_c, 0, 64, 127
1, 57088, Control_c, 0, 64, 0
1, 57102, Note_on_c, 0, 78, 67
1, 57107, Note_on_c, 0, 82, 64
1, 57108, Note_on_c, 0, 54, 67
1, 57108, Note_on_c, 0, 65, 64
1, 57109, Note_on_c, 0, 72, 49
1, 57109, Note_on_c, 0, 60, 60
1, 57117, Note_on_c, 0, 72, 0
1, 57120, Note_on_c, 9, 44, 0
1, 57121, Note_on_c, 9, 40, 55
1, 57122, Note_on_c, 1, 32, 50
1, 57122, Note_on_c, 2, 32, 50
1, 57125, Note_on_c, 1, 39, 0
1, 57125, Note_on_c, 2, 39, 0
1, 57125, Note_on_c, 9, 59, 72
1, 57128, Note_on_c, 9, 40, 0
1, 57138, Note_on_c, 0, 72, 14
1, 57146, Note_on_c, 0, 78, 0
1, 57155, Note_on_c, 9, 40, 56
1, 57163, Note_on_c, 0, 65, 0
1, 57165, Note_on_c, 0, 72, 0
1, 57166, Note_on_c, 9, 40, 0
1, 57167, Note_on_c, 0, 82, 0
1, 57167, Note_on_c, 0, 54, 0
1, 57168, Note_on_c, 0, 60, 0
1, 57203, Note_on_c, 9, 59, 0
1, 57211, Note_on_c, 9, 53, 72
1, 57223, Note_on_c, 0, 82, 77
1, 57224, Note_on_c, 0, 54, 64
1, 57224, Note_on_c, 0, 72, 74
1, 57224, Note_on_c, 0, 60, 62
1, 57224, Note_on_c, 0, 65, 68
1, 57225, Note_on_c, 9, 40, 50
1, 57226, Note_on_c, 0, 77, 68
1, 57228, Note_on_c, 9, 53, 0
1, 57230, Note_on_c, 0, 78, 28
1, 57238, Note_on_c, 0, 78, 0
1, 57239, Note_on_c, 9, 40, 0
1, 57240, Note_on_c, 9, 44, 96
1, 57246, Note_on_c, 1, 39, 57
1, 57246, Note_on_c, 2, 39, 57
1, 57247, Note_on_c, 1, 32, 0
1, 57247, Note_on_c, 2, 32, 0
1, 57249, Note_on_c, 9, 59, 57
1, 57257, Control_c, 0, 64, 127
1, 57264, Note_on_c, 9, 35, 48
1, 57265, Note_on_c, 0, 77, 0
1, 57268, Note_on_c, 0, 82, 0
1, 57269, Note_on_c, 0, 65, 0
1, 57270, Note_on_c, 0, 72, 0
1, 57271, Control_c, 0, 64, 0
1, 57272, Note_on_c, 0, 60, 0
1, 57275, Note_on_c, 0, 54, 0
1, 57281, Note_on_c, 9, 35, 0
1, 57292, Note_on_c, 0, 69, 57
1, 57292, Note_on_c, 0, 78, 36
1, 57294, Note_on_c, 0, 60, 48
1, 57294, Note_on_c, 0, 54, 46
1, 57297, Note_on_c, 0, 74, 39
1, 57297, Note_on_c, 0, 65, 33
1, 57310, Note_on_c, 0, 65, 0
1, 57313, Note_on_c, 0, 69, 0
1, 57319, Note_on_c, 0, 74, 0
1, 57319, Note_on_c, 0, 60, 0
1, 57325, Control_c, 0, 64, 127
1, 57326, Note_on_c, 0, 78, 0
1, 57328, Note_on_c, 0, 54, 0
1, 57335, Note_on_c, 9, 59, 0
1, 57344, Control_c, 0, 64, 0
1, 57347, Note_on_c, 2, 39, 0
1, 57347, Note_on_c, 1, 39, 0
1, 57360, Note_on_c, 9, 44, 0
1, 57367, Note_on_c, 1, 44, 71
1, 57367, Note_on_c, 2, 44, 71
1, 57368, Note_on_c, 9, 59, 59
1, 57383, Note_on_c, 0, 78, 58
1, 57383, Note_on_c, 0, 65, 51
1, 57384, Note_on_c, 0, 54, 48
1, 57386, Note_on_c, 0, 69, 53
1, 57386, Note_on_c, 0, 60, 46
1, 57387, Note_on_c, 0, 74, 58
1, 57392, Control_c, 0, 64, 127
1, 57406, Pitch_bend_c, 1, 8192
1, 57406, Pitch_bend_c, 2, 8192
1, 57409, Pitch_bend_c, 1, 8712
1, 57409, Pitch_bend_c, 2, 8712
1, 57410, Note_on_c, 0, 69, 0
1, 57410, Pitch_bend_c, 1, 9232
1, 57410, Pitch_bend_c, 2, 9232
1, 57411, Pitch_bend_c, 1, 9882
1, 57411, Pitch_bend_c, 1, 10402
1, 57411, Pitch_bend_c, 2, 9882
1, 57411, Pitch_bend_c, 2, 10402
1, 57413, Note_on_c, 0, 65, 0
1, 57414, Note_on_c, 0, 74, 0
1, 57414, Pitch_bend_c, 1, 10922
1, 57414, Pitch_bend_c, 2, 10922
1, 57415, Note_on_c, 0, 60, 0
1, 57415, Pitch_bend_c, 1, 11572
1, 57415, Pitch_bend_c, 2, 11572
1, 57416, Pitch_bend_c, 1, 12092
1, 57416, Pitch_bend_c, 2, 12092
1, 57417, Pitch_bend_c, 1, 12482
1, 57417, Pitch_bend_c, 2, 12482
1, 57418, Pitch_bend_c, 1, 12872
1, 57418, Pitch_bend_c, 2, 12872
1, 57419, Pitch_bend_c, 1, 13262
1, 57419, Pitch_bend_c, 2, 13262
1, 57420, Pitch_bend_c, 1, 13522
1, 57420, Pitch_bend_c, 2, 13522
1, 57420, Note_on_c, 9, 40, 62
1, 57422, Pitch_bend_c, 1, 13782
1, 57422, Pitch_bend_c, 2, 13782
1, 57423, Pitch_bend_c, 1, 13912
1, 57423, Pitch_bend_c, 2, 13912
1, 57425, Note_on_c, 0, 54, 0
1, 57425, Pitch_bend_c, 1, 14042
1, 57425, Pitch_bend_c, 2, 14042
1, 57430, Note_on_c, 0, 78, 0
1, 57433, Pitch_bend_c, 1, 13912
1, 57433, Pitch_bend_c, 1, 13652
1, 57433, Pitch_bend_c, 2, 13912
1, 57433, Pitch_bend_c, 2, 13652
1, 57435, Pitch_bend_c, 1, 13392
1, 57435, Pitch_bend_c, 2, 13392
1, 57437, Pitch_bend_c, 1, 13132
1, 57437, Pitch_bend_c, 2, 13132
1, 57438, Pitch_bend_c, 1, 12872
1, 57438, Pitch_bend_c, 2, 12872
1, 57440, Pitch_bend_c, 1, 12482
1, 57440, Pitch_bend_c, 1, 12092
1, 57440, Pitch_bend_c, 2, 12482
1, 57440, Pitch_bend_c, 2, 12092
1, 57441, Pitch_bend_c, 1, 11572
1, 57441, Pitch_bend_c, 2, 11572
1, 57444, Pitch_bend_c, 1, 10922
1, 57444, Pitch_bend_c, 2, 10922
1, 57445, Note_on_c, 9, 40, 0
1, 57445, Pitch_bend_c, 1, 10402
1, 57445, Pitch_bend_c, 2, 10402
1, 57446, Note_on_c, 9, 59, 0
1, 57446, Pitch_bend_c, 1, 9882
1, 57446, Pitch_bend_c, 2, 9882
1, 57447, Pitch_bend_c, 1, 9362
1, 57447, Pitch_bend_c, 2, 9362
1, 57449, Pitch_bend_c, 1, 8972
1, 57449, Pitch_bend_c, 2, 8972
1, 57450, Pitch_bend_c, 1, 8192
1, 57450, Pitch_bend_c, 1, 8192
1, 57450, Pitch_bend_c, 2, 8192
1, 57450, Pitch_bend_c, 2, 8192
1, 57451, Pitch_bend_c, 1, 8192
1, 57451, Pitch_bend_c, 2, 8192
1, 57452, Pitch_bend_c, 1, 8192
1, 57452, Pitch_bend_c, 2, 8192
1, 57459, Note_on_c, 0, 55, 58
1, 57459, Note_on_c, 0, 80, 60
1, 57459, Note_on_c, 0, 70, 73
1, 57461, Note_on_c, 0, 75, 60
1, 57461, Note_on_c, 0, 66, 45
1, 57461, Pitch_bend_c, 1, 8192
1, 57461, Pitch_bend_c, 1, 8192
1, 57461, Pitch_bend_c, 2, 8192
1, 57461, Pitch_bend_c, 2, 8192
1, 57462, Note_on_c, 0, 61, 47
1, 57463, Pitch_bend_c, 1, 8712
1, 57463, Pitch_bend_c, 1, 8972
1, 57463, Pitch_bend_c, 2, 8712
1, 57463, Pitch_bend_c, 2, 8972
1, 57465, Pitch_bend_c, 1, 9362
1, 57465, Pitch_bend_c, 2, 9362
1, 57467, Pitch_bend_c, 1, 9882
1, 57467, Pitch_bend_c, 2, 9882
1, 57468, Pitch_bend_c, 1, 10272
1, 57468, Pitch_bend_c, 2, 10272
1, 57469, Pitch_bend_c, 1, 10792
1, 57469, Pitch_bend_c, 2, 10792
1, 57470, Note_on_c, 0, 66, 0
1, 57470, Note_on_c, 0, 55, 0
1, 57471, Pitch_bend_c, 1, 11442
1, 57471, Pitch_bend_c, 2, 11442
1, 57472, Pitch_bend_c, 1, 11832
1, 57472, Pitch_bend_c, 1, 12222
1, 57472, Pitch_bend_c, 2, 11832
1, 57472, Pitch_bend_c, 2, 12222
1, 57475, Pitch_bend_c, 1, 12612
1, 57475, Pitch_bend_c, 2, 12612
1, 57476, Control_c, 0, 64, 0
1, 57476, Pitch_bend_c, 1, 13002
1, 57476, Pitch_bend_c, 2, 13002
1, 57477, Pitch_bend_c, 1, 13262
1, 57477, Pitch_bend_c, 2, 13262
1, 57478, Pitch_bend_c, 1, 13652
1, 57478, Pitch_bend_c, 2, 13652
1, 57480, Pitch_bend_c, 1, 13912
1, 57480, Pitch_bend_c, 2, 13912
1, 57480, Note_on_c, 9, 44, 99
1, 57481, Pitch_bend_c, 1, 14042
1, 57481, Pitch_bend_c, 2, 14042
1, 57482, Pitch_bend_c, 1, 14172
1, 57482, Pitch_bend_c, 2, 14172
1, 57484, Note_on_c, 9, 40, 67
1, 57485, Note_on_c, 0, 70, 0
1, 57486, Note_on_c, 0, 75, 0
1, 57489, Note_on_c, 0, 80, 0
1, 57489, Pitch_bend_c, 1, 14042
1, 57489, Pitch_bend_c, 2, 14042
1, 57490, Pitch_bend_c, 1, 13782
1, 57490, Pitch_bend_c, 2, 13782
1, 57492, Pitch_bend_c, 1, 13262
1, 57492, Pitch_bend_c, 1, 13002
1, 57492, Pitch_bend_c, 2, 13262
1, 57492, Pitch_bend_c, 2, 13002
1, 57492, Note_on_c, 9, 59, 66
1, 57495, Pitch_bend_c, 1, 12482
1, 57495, Pitch_bend_c, 2, 12482
1, 57496, Pitch_bend_c, 1, 11962
1, 57496, Pitch_bend_c, 2, 11962
1, 57497, Pitch_bend_c, 1, 11442
1, 57497, Pitch_bend_c, 2, 11442
1, 57498, Pitch_bend_c, 1, 10662
1, 57498, Pitch_bend_c, 2, 10662
1, 57499, Pitch_bend_c, 1, 9752
1, 57499, Pitch_bend_c, 2, 9752
1, 57501, Pitch_bend_c, 1, 8192
1, 57501, Pitch_bend_c, 2, 8192
1, 57502, Pitch_bend_c, 1, 8192
1, 57502, Pitch_bend_c, 2, 8192
1, 57503, Note_on_c, 9, 40, 0
1, 57504, Control_c, 0, 64, 127
1, 57504, Note_on_c, 0, 64, 39
1, 57506, Note_on_c, 0, 54, 37
1, 57514, Note_on_c, 9, 40, 57
1, 57525, Note_on_c, 9, 40, 0
1, 57539, Note_on_c, 0, 64, 0
1, 57543, Note_on_c, 9, 59, 0
1, 57543, Note_on_c, 9, 35, 34
1, 57554, Note_on_c, 0, 54, 0
1, 57555, Note_on_c, 0, 61, 0
1, 57558, Note_on_c, 9, 35, 0
1, 57572, Note_on_c, 0, 60, 39
1, 57574, Note_on_c, 0, 63, 37
1, 57574, Note_on_c, 0, 78, 50
1, 57575, Note_on_c, 0, 74, 58
1, 57575, Note_on_c, 9, 31, 38
1, 57577, Note_on_c, 0, 69, 51
1, 57579, Note_on_c, 0, 57, 40
1, 57580, Control_c, 0, 64, 0
1, 57580, Note_on_c, 0, 53, 29
1, 57581, Note_on_c, 9, 59, 64
1, 57591, Note_on_c, 9, 31, 0
1, 57599, Note_on_c, 9, 59, 0
1, 57600, Note_on_c, 9, 44, 0
1, 57606, Note_on_c, 2, 44, 0
1, 57606, Note_on_c, 1, 44, 0
1, 57606, Note_on_c, 9, 35, 49
1, 57606, Note_on_c, 9, 40, 40
1, 57607, Control_c, 0, 64, 127
1, 57615, Note_on_c, 9, 40, 0
1, 57615, Note_on_c, 1, 44, 46
1, 57615, Note_on_c, 2, 44, 46
1, 57621, Note_on_c, 9, 59, 70
1, 57623, Note_on_c, 0, 74, 0
1, 57627, Note_on_c, 2, 44, 0
1, 57627, Note_on_c, 1, 44, 0
1, 57627, Note_on_c, 1, 43, 42
1, 57627, Note_on_c, 2, 43, 42
1, 57629, Note_on_c, 9, 35, 0
1, 57631, Note_on_c, 0, 78, 0
1, 57646, Note_on_c, 2, 43, 0
1, 57646, Note_on_c, 1, 43, 0
1, 57649, Note_on_c, 0, 69, 0
1, 57654, Note_on_c, 0, 63, 0
1, 57666, Note_on_c, 0, 57, 0
1, 57668, Note_on_c, 0, 60, 0
1, 57695, Note_on_c, 9, 59, 0
1, 57702, Note_on_c, 0, 53, 0
1, 57720, Note_on_c, 9, 44, 102
1, 57729, Note_on_c, 1, 41, 51
1, 57729, Note_on_c, 2, 41, 51
1, 57734, Note_on_c, 9, 59, 77
1, 57738, Note_on_c, 0, 53, 35
1, 57746, Control_c, 0, 64, 0
1, 57760, Note_on_c, 0, 53, 0
1, 57769, Note_on_c, 0, 54, 50
1, 57782, Note_on_c, 0, 54, 0
1, 57798, Note_on_c, 0, 57, 59
1, 57806, Note_on_c, 9, 59, 0
1, 57808, Note_on_c, 9, 35, 19
1, 57810, Note_on_c, 1, 36, 40
1, 57810, Note_on_c, 2, 36, 40
1, 57813, Note_on_c, 2, 41, 0
1, 57813, Note_on_c, 1, 41, 0
1, 57817, Note_on_c, 0, 57, 0
1, 57820, Note_on_c, 9, 35, 0
1, 57821, Note_on_c, 0, 61, 62
1, 57823, Note_on_c, 1, 36, 0
1, 57823, Note_on_c, 2, 36, 0
1, 57840, Note_on_c, 9, 44, 0
1, 57840, Control_c, 0, 64, 127
1, 57842, Note_on_c, 1, 29, 44
1, 57842, Note_on_c, 2, 29, 44
1, 57846, Note_on_c, 9, 35, 27
1, 57852, Note_on_c, 0, 63, 57
1, 57853, Note_on_c, 0, 61, 0
1, 57856, Note_on_c, 9, 59, 79
1, 57858, Note_on_c, 9, 35, 0
1, 57867, Note_on_c, 0, 63, 0
1, 57878, Note_on_c, 0, 65, 57
1, 57896, Note_on_c, 0, 65, 0
1, 57905, Note_on_c, 0, 66, 48
1, 57912, Note_on_c, 0, 66, 0
1, 57929, Note_on_c, 9, 59, 0
1, 57934, Note_on_c, 0, 69, 43
1, 57951, Note_on_c, 2, 29, 0
1, 57951, Note_on_c, 1, 29, 0
1, 57955, Note_on_c, 0, 69, 0
1, 57956, Note_on_c, 1, 31, 54
1, 57956, Note_on_c, 2, 31, 54
1, 57960, Control_c, 0, 64, 0
1, 57960, Note_on_c, 9, 44, 100
1, 57974, Note_on_c, 9, 59, 77
1, 57993, Control_c, 0, 64, 127
1, 57996, Note_on_c, 0, 75, 45
1, 58007, Note_on_c, 0, 75, 0
1, 58030, Note_on_c, 0, 77, 66
1, 58034, Note_on_c, 9, 59, 0
1, 58040, Note_on_c, 0, 77, 0
1, 58041, Control_c, 0, 64, 0
1, 58062, Note_on_c, 0, 78, 60
1, 58074, Note_on_c, 1, 31, 0
1, 58074, Note_on_c, 2, 31, 0
1, 58077, Note_on_c, 1, 33, 48
1, 58077, Note_on_c, 2, 33, 48
1, 58078, Note_on_c, 0, 78, 0
1, 58080, Note_on_c, 9, 44, 0
1, 58084, Control_c, 0, 64, 127
1, 58087, Note_on_c, 9, 59, 77
1, 58102, Note_on_c, 0, 63, 40
1, 58106, Note_on_c, 0, 81, 44
1, 58122, Note_on_c, 0, 81, 0
1, 58122, Note_on_c, 0, 63, 0
1, 58148, Control_c, 0, 64, 0
1, 58159, Note_on_c, 9, 59, 0
1, 58162, Control_c, 0, 64, 127
1, 58166, Note_on_c, 1, 36, 39
1, 58166, Note_on_c, 2, 36, 39
1, 58169, Note_on_c, 0, 82, 59
1, 58170, Note_on_c, 0, 63, 34
1, 58171, Note_on_c, 0, 67, 33
1, 58172, Note_on_c, 0, 57, 34
1, 58175, Note_on_c, 2, 36, 0
1, 58175, Note_on_c, 1, 36, 0
1, 58186, Note_on_c, 0, 57, 0
1, 58186, Note_on_c, 0, 67, 0
1, 58194, Note_on_c, 0, 63, 0
1, 58198, Note_on_c, 1, 42, 71
1, 58198, Note_on_c, 2, 42, 71
1, 58200, Note_on_c, 9, 44, 101
1, 58201, Note_on_c, 0, 82, 0
1, 58204, Note_on_c, 9, 59, 76
1, 58207, Note_on_c, 2, 33, 0
1, 58207, Note_on_c, 1, 33, 0
1, 58223, Note_on_c, 0, 85, 60
1, 58225, Note_on_c, 0, 63, 30
1, 58226, Note_on_c, 0, 67, 36
1, 58242, Note_on_c, 0, 67, 0
1, 58249, Note_on_c, 0, 63, 0
1, 58255, Note_on_c, 0, 85, 0
1, 58265, Note_on_c, 9, 59, 0
1, 58294, Note_on_c, 0, 63, 44
1, 58294, Note_on_c, 0, 67, 49
1, 58295, Note_on_c, 9, 59, 56
1, 58296, Note_on_c, 0, 87, 64
1, 58296, Note_on_c, 0, 57, 47
1, 58308, Note_on_c, 0, 57, 0
1, 58309, Note_on_c, 0, 67, 0
1, 58312, Note_on_c, 9, 59, 0
1, 58314, Note_on_c, 0, 63, 0
1, 58317, Note_on_c, 1, 42, 0
1, 58317, Note_on_c, 2, 42, 0
1, 58317, Note_on_c, 1, 41, 56
1, 58317, Note_on_c, 2, 41, 56
1, 58320, Note_on_c, 9, 44, 0
1, 58324, Note_on_c, 2, 41, 0
1, 58324, Note_on_c, 1, 41, 0
1, 58326, Note_on_c, 0, 87, 0
1, 58333, Note_on_c, 9, 59, 74
1, 58337, Control_c, 0, 64, 0
1, 58344, Note_on_c, 0, 63, 37
1, 58346, Note_on_c, 0, 67, 38
1, 58346, Note_on_c, 0, 57, 32
1, 58350, Note_on_c, 0, 85, 25
1, 58354, Control_c, 0, 64, 127
1, 58358, Note_on_c, 0, 67, 0
1, 58359, Note_on_c, 0, 57, 0
1, 58363, Note_on_c, 0, 85, 0
1, 58365, Note_on_c, 0, 63, 0
1, 58380, Note_on_c, 9, 34, 17
1, 58394, Note_on_c, 1, 36, 66
1, 58394, Note_on_c, 2, 36, 66
1, 58403, Note_on_c, 9, 34, 0
1, 58406, Note_on_c, 9, 59, 0
1, 58409, Note_on_c, 9, 35, 22
1, 58410, Note_on_c, 1, 36, 0
1, 58410, Note_on_c, 2, 36, 0
1, 58412, Note_on_c, 0, 84, 55
1, 58415, Note_on_c, 0, 63, 43
1, 58416, Note_on_c, 0, 57, 53
1, 58418, Note_on_c, 0, 67, 38
1, 58430, Note_on_c, 0, 67, 0
1, 58433, Note_on_c, 1, 33, 54
1, 58433, Note_on_c, 2, 33, 54
1, 58434, Control_c, 0, 64, 0
1, 58435, Note_on_c, 9, 35, 0
1, 58437, Note_on_c, 0, 57, 0
1, 58440, Note_on_c, 0, 63, 0
1, 58440, Note_on_c, 9, 44, 100
1, 58441, Note_on_c, 9, 59, 80
1, 58444, Note_on_c, 0, 84, 0
1, 58461, Control_c, 0, 64, 127
1, 58462, Note_on_c, 0, 63, 28
1, 58466, Note_on_c, 0, 57, 30
1, 58466, Note_on_c, 0, 82, 37
1, 58476, Note_on_c, 0, 57, 0
1, 58483, Note_on_c, 9, 34, 33
1, 58484, Note_on_c, 0, 63, 0
1, 58500, Note_on_c, 9, 34, 0
1, 58506, Note_on_c, 9, 59, 0
1, 58517, Note_on_c, 9, 35, 40
1, 58524, Note_on_c, 0, 63, 46
1, 58529, Note_on_c, 9, 59, 58
1, 58534, Note_on_c, 9, 35, 0
1, 58542, Note_on_c, 0, 63, 0
1, 58549, Note_on_c, 9, 59, 0
1, 58551, Note_on_c, 0, 82, 0
1, 58553, Note_on_c, 1, 33, 0
1, 58553, Note_on_c, 2, 33, 0
1, 58554, Note_on_c, 1, 34, 48
1, 58554, Note_on_c, 2, 34, 48
1, 58560, Note_on_c, 9, 44, 0
1, 58563, Note_on_c, 9, 59, 67
1, 58564, Control_c, 0, 64, 0
1, 58583, Control_c, 0, 64, 127
1, 58640, Note_on_c, 1, 46, 58
1, 58640, Note_on_c, 2, 46, 58
1, 58641, Note_on_c, 9, 59, 0
1, 58645, Note_on_c, 0, 62, 57
1, 58645, Note_on_c, 0, 66, 63
1, 58647, Note_on_c, 0, 90, 71
1, 58648, Note_on_c, 0, 56, 50
1, 58648, Note_on_c, 0, 82, 67
1, 58649, Note_on_c, 0, 85, 63
1, 58651, Note_on_c, 0, 78, 48
1, 58657, Control_c, 0, 64, 0
1, 58680, Note_on_c, 9, 44, 102
1, 58680, Note_on_c, 9, 59, 81
1, 58684, Note_on_c, 0, 82, 0
1, 58684, Control_c, 0, 64, 127
1, 58689, Note_on_c, 0, 85, 0
1, 58701, Note_on_c, 0, 90, 0
1, 58706, Note_on_c, 0, 82, 42
1, 58718, Note_on_c, 0, 78, 0
1, 58726, Note_on_c, 0, 82, 0
1, 58726, Note_on_c, 0, 62, 0
1, 58730, Note_on_c, 0, 66, 0
1, 58739, Note_on_c, 9, 59, 0
1, 58756, Note_on_c, 0, 56, 0
1, 58777, Note_on_c, 0, 61, 56
1, 58777, Note_on_c, 0, 65, 71
1, 58777, Note_on_c, 0, 77, 74
1, 58778, Note_on_c, 0, 89, 80
1, 58778, Note_on_c, 0, 60, 58
1, 58780, Note_on_c, 0, 84, 72
1, 58780, Note_on_c, 0, 55, 55
1, 58787, Control_c, 0, 64, 0
1, 58799, Note_on_c, 1, 46, 0
1, 58799, Note_on_c, 2, 46, 0
1, 58800, Note_on_c, 9, 44, 0
1, 58802, Note_on_c, 9, 59, 78
1, 58806, Note_on_c, 1, 45, 42
1, 58806, Note_on_c, 2, 45, 42
1, 58810, Note_on_c, 2, 34, 0
1, 58810, Note_on_c, 1, 34, 0
1, 58823, Control_c, 0, 64, 127
1, 58867, Note_on_c, 9, 59, 0
1, 58920, Note_on_c, 9, 46, 98
1, 58924, Note_on_c, 1, 33, 44
1, 58924, Note_on_c, 2, 33, 44
1, 58927, Note_on_c, 0, 60, 0
1, 58928, Note_on_c, 0, 65, 0
1, 58928, Note_on_c, 9, 59, 81
1, 58939, Note_on_c, 0, 84, 0
1, 58941, Note_on_c, 0, 55, 0
1, 58947, Note_on_c, 0, 61, 0
1, 58978, Note_on_c, 0, 77, 0
1, 58985, Note_on_c, 0, 89, 0
1, 58987, Note_on_c, 9, 59, 0
1, 59007, Note_on_c, 0, 54, 37
1, 59009, Note_on_c, 0, 65, 47
1, 59010, Note_on_c, 0, 60, 46
1, 59012, Note_on_c, 0, 82, 51
1, 59013, Note_on_c, 0, 58, 35
1, 59015, Note_on_c, 0, 77, 35
1, 59016, Control_c, 0, 64, 0
1, 59017, Note_on_c, 9, 59, 60
1, 59037, Note_on_c, 9, 59, 0
1, 59040, Note_on_c, 9, 46, 0
1, 59040, Note_on_c, 1, 32, 53
1, 59040, Note_on_c, 2, 32, 53
1, 59043, Note_on_c, 2, 33, 0
1, 59043, Note_on_c, 1, 33, 0
1, 59043, Control_c, 0, 64, 127
1, 59046, Note_on_c, 0, 77, 0
1, 59050, Note_on_c, 9, 40, 73
1, 59051, Note_on_c, 1, 45, 0
1, 59051, Note_on_c, 2, 45, 0
1, 59053, Note_on_c, 9, 59, 73
1, 59054, Note_on_c, 0, 82, 0
1, 59056, Note_on_c, 0, 65, 0
1, 59059, Note_on_c, 0, 60, 0
1, 59059, Note_on_c, 9, 40, 0
1, 59064, Note_on_c, 0, 58, 0
1, 59071, Note_on_c, 0, 54, 0
1, 59104, Note_on_c, 9, 40, 76
1, 59119, Note_on_c, 9, 59, 0
1, 59126, Note_on_c, 1, 34, 31
1, 59126, Note_on_c, 2, 34, 31
1, 59127, Note_on_c, 9, 40, 0
1, 59127, Note_on_c, 0, 54, 57
1, 59129, Note_on_c, 0, 60, 55
1, 59130, Note_on_c, 0, 65, 55
1, 59131, Note_on_c, 0, 58, 42
1, 59132, Note_on_c, 0, 98, 76
1, 59139, Note_on_c, 1, 34, 0
1, 59139, Note_on_c, 2, 34, 0
1, 59146, Note_on_c, 2, 32, 0
1, 59146, Note_on_c, 1, 32, 0
1, 59160, Note_on_c, 9, 44, 91
1, 59161, Note_on_c, 1, 44, 55
1, 59161, Note_on_c, 2, 44, 55
1, 59165, Note_on_c, 9, 59, 83
1, 59167, Note_on_c, 0, 98, 0
1, 59193, Note_on_c, 0, 94, 25
1, 59198, Note_on_c, 0, 65, 0
1, 59200, Note_on_c, 0, 60, 0
1, 59214, Note_on_c, 9, 59, 0
1, 59234, Note_on_c, 0, 94, 0
1, 59237, Note_on_c, 0, 58, 0
1, 59238, Note_on_c, 0, 54, 0
1, 59252, Note_on_c, 0, 95, 77
1, 59253, Note_on_c, 0, 64, 53
1, 59254, Note_on_c, 0, 53, 53
1, 59254, Note_on_c, 9, 59, 56
1, 59259, Note_on_c, 0, 59, 45
1, 59262, Control_c, 0, 64, 0
1, 59265, Note_on_c, 9, 59, 0
1, 59280, Note_on_c, 1, 44, 0
1, 59280, Note_on_c, 9, 44, 0
1, 59280, Note_on_c, 2, 44, 0
1, 59280, Note_on_c, 1, 43, 55
1, 59280, Note_on_c, 2, 43, 55
1, 59281, Note_on_c, 0, 95, 0
1, 59283, Note_on_c, 9, 40, 52
1, 59285, Note_on_c, 9, 59, 67
1, 59287, Note_on_c, 9, 40, 0
1, 59303, Note_on_c, 0, 64, 0
1, 59303, Note_on_c, 9, 40, 80
1, 59312, Note_on_c, 0, 94, 35
1, 59320, Note_on_c, 0, 53, 0
1, 59322, Note_on_c, 0, 94, 0
1, 59330, Note_on_c, 0, 95, 61
1, 59334, Note_on_c, 9, 40, 0
1, 59341, Note_on_c, 9, 40, 73
1, 59352, Note_on_c, 9, 40, 0
1, 59354, Note_on_c, 0, 94, 49
1, 59358, Note_on_c, 0, 95, 0
1, 59362, Note_on_c, 9, 59, 0
1, 59363, Note_on_c, 1, 38, 49
1, 59363, Note_on_c, 2, 38, 49
1, 59376, Note_on_c, 1, 43, 0
1, 59376, Note_on_c, 2, 43, 0
1, 59376, Note_on_c, 0, 59, 0
1, 59379, Note_on_c, 1, 38, 0
1, 59379, Note_on_c, 2, 38, 0
1, 59385, Note_on_c, 0, 92, 55
1, 59394, Note_on_c, 1, 35, 59
1, 59394, Note_on_c, 2, 35, 59
1, 59400, Note_on_c, 9, 46, 101
1, 59402, Note_on_c, 0, 94, 0
1, 59404, Note_on_c, 9, 59, 79
1, 59408, Note_on_c, 0, 63, 27
1, 59408, Note_on_c, 0, 53, 31
1, 59411, Note_on_c, 0, 59, 19
1, 59413, Note_on_c, 0, 56, 25
1, 59415, Note_on_c, 0, 92, 0
1, 59415, Note_on_c, 9, 40, 61
1, 59421, Note_on_c, 9, 40, 0
1, 59421, Note_on_c, 0, 91, 48
1, 59432, Note_on_c, 0, 59, 0
1, 59437, Note_on_c, 0, 53, 0
1, 59452, Note_on_c, 0, 63, 0
1, 59455, Note_on_c, 9, 31, 23
1, 59462, Note_on_c, 9, 31, 0
1, 59462, Note_on_c, 9, 59, 0
1, 59467, Note_on_c, 0, 56, 0
1, 59472, Note_on_c, 0, 91, 0
1, 59487, Note_on_c, 0, 58, 28
1, 59489, Note_on_c, 0, 51, 36
1, 59490, Note_on_c, 0, 62, 20
1, 59491, Note_on_c, 0, 55, 38
1, 59496, Note_on_c, 9, 59, 31
1, 59498, Note_on_c, 0, 89, 27
1, 59501, Note_on_c, 9, 56, 50
1, 59501, Note_on_c, 9, 34, 42
1, 59503, Note_on_c, 0, 88, 20
1, 59509, Note_on_c, 9, 59, 0
1, 59511, Note_on_c, 9, 56, 0
1, 59516, Note_on_c, 0, 88, 0
1, 59517, Note_on_c, 1, 35, 0
1, 59517, Note_on_c, 0, 89, 0
1, 59517, Note_on_c, 2, 35, 0
1, 59520, Note_on_c, 9, 46, 0
1, 59521, Note_on_c, 1, 36, 51
1, 59521, Note_on_c, 2, 36, 51
1, 59523, Note_on_c, 9, 34, 0
1, 59529, Note_on_c, 9, 57, 48
1, 59531, Note_on_c, 9, 59, 64
1, 59531, Note_on_c, 9, 35, 31
1, 59539, Note_on_c, 0, 87, 58
1, 59548, Note_on_c, 9, 57, 0
1, 59552, Note_on_c, 0, 62, 0
1, 59561, Note_on_c, 9, 35, 0
1, 59570, Note_on_c, 0, 87, 0
1, 59570, Note_on_c, 0, 58, 0
1, 59578, Note_on_c, 0, 89, 54
1, 59600, Note_on_c, 9, 59, 0
1, 59604, Note_on_c, 0, 87, 36
1, 59608, Note_on_c, 0, 89, 0
1, 59610, Note_on_c, 1, 34, 37
1, 59610, Note_on_c, 2, 34, 37
1, 59624, Note_on_c, 1, 36, 0
1, 59624, Note_on_c, 2, 36, 0
1, 59624, Note_on_c, 0, 87, 0
1, 59627, Note_on_c, 2, 34, 0
1, 59627, Note_on_c, 1, 34, 0
1, 59628, Note_on_c, 0, 86, 63
1, 59637, Note_on_c, 0, 58, 15
1, 59637, Note_on_c, 1, 46, 64
1, 59637, Note_on_c, 2, 46, 64
1, 59640, Note_on_c, 0, 86, 0
1, 59640, Note_on_c, 9, 44, 91
1, 59645, Note_on_c, 9, 59, 83
1, 59651, Note_on_c, 0, 62, 11
1, 59660, Note_on_c, 0, 55, 0
1, 59662, Note_on_c, 0, 51, 0
1, 59662, Note_on_c, 0, 87, 71
1, 59675, Note_on_c, 0, 58, 0
1, 59713, Note_on_c, 0, 62, 0
1, 59717, Note_on_c, 9, 59, 0
1, 59719, Note_on_c, 0, 87, 0
1, 59727, Note_on_c, 0, 88, 65
1, 59736, Note_on_c, 0, 61, 45
1, 59736, Note_on_c, 0, 55, 46
1, 59743, Note_on_c, 0, 88, 0
1, 59755, Note_on_c, 2, 46, 0
1, 59755, Note_on_c, 1, 46, 0
1, 59760, Note_on_c, 9, 44, 0
1, 59761, Note_on_c, 1, 45, 39
1, 59761, Note_on_c, 2, 45, 39
1, 59766, Note_on_c, 9, 59, 78
1, 59783, Note_on_c, 0, 93, 57
1, 59793, Note_on_c, 0, 55, 0
1, 59801, Note_on_c, 0, 94, 61
1, 59802, Note_on_c, 0, 93, 0
1, 59815, Note_on_c, 9, 59, 0
1, 59825, Note_on_c, 0, 61, 0
1, 59826, Note_on_c, 0, 93, 60
1, 59833, Note_on_c, 0, 94, 0
1, 59847, Note_on_c, 0, 93, 0
1, 59851, Note_on_c, 0, 91, 66
1, 59862, Note_on_c, 0, 61, 37
1, 59867, Note_on_c, 0, 55, 24
1, 59869, Note_on_c, 0, 91, 0
1, 59875, Note_on_c, 1, 45, 0
1, 59875, Note_on_c, 0, 55, 0
1, 59875, Note_on_c, 2, 45, 0
1, 59875, Note_on_c, 1, 39, 51
1, 59875, Note_on_c, 2, 39, 51
1, 59878, Note_on_c, 9, 37, 70
1, 59880, Note_on_c, 9, 44, 102
1, 59883, Note_on_c, 9, 59, 77
1, 59885, Note_on_c, 0, 90, 51
1, 59886, Note_on_c, 9, 37, 0
1, 59911, Note_on_c, 0, 90, 0
1, 59912, Note_on_c, 0, 91, 62
1, 59916, Note_on_c, 0, 61, 0
1, 59929, Note_on_c, 9, 59, 0
1, 59937, Note_on_c, 0, 90, 43
1, 59941, Note_on_c, 0, 91, 0
1, 59963, Note_on_c, 0, 90, 0
1, 59965, Note_on_c, 0, 88, 61
1, 59971, Note_on_c, 9, 59, 60
1, 59983, Note_on_c, 9, 59, 0
1, 59984, Note_on_c, 0, 88, 0
1, 59988, Note_on_c, 2, 39, 0
1, 59988, Note_on_c, 1, 39, 0
1, 59994, Note_on_c, 1, 38, 47
1, 59994, Note_on_c, 2, 38, 47
1, 59998, Note_on_c, 0, 65, 34
1, 60000, Note_on_c, 9, 44, 0
1, 60000, Note_on_c, 0, 87, 59
1, 60005, Note_on_c, 0, 60, 31
1, 60005, Note_on_c, 0, 54, 15
1, 60007, Note_on_c, 9, 59, 67
1, 60014, Note_on_c, 0, 65, 0
1, 60021, Note_on_c, 0, 60, 0
1, 60035, Note_on_c, 0, 54, 0
1, 60036, Note_on_c, 0, 87, 0
1, 60041, Note_on_c, 0, 85, 55
1, 60065, Note_on_c, 0, 85, 0
1, 60066, Note_on_c, 9, 59, 0
1, 60079, Note_on_c, 2, 38, 0
1, 60079, Note_on_c, 1, 38, 0
1, 60080, Note_on_c, 1, 44, 64
1, 60080, Note_on_c, 2, 44, 64
1, 60101, Note_on_c, 0, 84, 78
1, 60103, Note_on_c, 0, 60, 43
1, 60103, Note_on_c, 0, 56, 37
1, 60103, Note_on_c, 0, 50, 39
1, 60114, Note_on_c, 0, 50, 0
1, 60117, Note_on_c, 9, 59, 79
1, 60119, Note_on_c, 1, 44, 0
1, 60119, Note_on_c, 2, 44, 0
1, 60120, Note_on_c, 9, 44, 100
1, 60121, Note_on_c, 0, 60, 0
1, 60122, Note_on_c, 0, 56, 0
1, 60122, Note_on_c, 0, 84, 0
1, 60124, Note_on_c, 1, 43, 44
1, 60124, Note_on_c, 2, 43, 44
1, 60149, Note_on_c, 0, 65, 69
1, 60150, Note_on_c, 0, 54, 59
1, 60150, Note_on_c, 0, 86, 78
1, 60150, Note_on_c, 0, 60, 55
1, 60176, Note_on_c, 2, 43, 0
1, 60176, Note_on_c, 1, 43, 0
1, 60188, Note_on_c, 0, 65, 0
1, 60191, Note_on_c, 9, 59, 0
1, 60194, Note_on_c, 0, 86, 0
1, 60199, Note_on_c, 1, 38, 56
1, 60199, Note_on_c, 2, 38, 56
1, 60212, Note_on_c, 2, 38, 0
1, 60212, Note_on_c, 1, 38, 0
1, 60213, Note_on_c, 0, 65, 26
1, 60213, Note_on_c, 0, 87, 76
1, 60226, Note_on_c, 0, 65, 0
1, 60232, Note_on_c, 0, 60, 0
1, 60236, Note_on_c, 1, 31, 54
1, 60236, Note_on_c, 2, 31, 54
1, 60239, Note_on_c, 0, 87, 0
1, 60240, Note_on_c, 9, 44, 0
1, 60240, Note_on_c, 9, 59, 76
1, 60246, Note_on_c, 0, 54, 0
1, 60254, Note_on_c, 0, 64, 28
1, 60257, Note_on_c, 0, 86, 65
1, 60257, Note_on_c, 0, 53, 34
1, 60264, Note_on_c, 0, 59, 22
1, 60282, Note_on_c, 0, 86, 0
1, 60293, Note_on_c, 9, 59, 0
1, 60297, Note_on_c, 0, 64, 0
1, 60305, Note_on_c, 0, 59, 0
1, 60324, Note_on_c, 0, 83, 68
1, 60326, Note_on_c, 0, 64, 54
1, 60327, Note_on_c, 0, 59, 37
1, 60354, Note_on_c, 2, 31, 0
1, 60354, Note_on_c, 1, 31, 0
1, 60356, Note_on_c, 1, 35, 59
1, 60356, Note_on_c, 2, 35, 59
1, 60357, Note_on_c, 0, 83, 0
1, 60358, Note_on_c, 9, 59, 76
1, 60360, Note_on_c, 9, 44, 96
1, 60363, Note_on_c, 9, 37, 76
1, 60373, Note_on_c, 0, 79, 47
1, 60375, Note_on_c, 0, 59, 0
1, 60376, Note_on_c, 0, 64, 0
1, 60377, Note_on_c, 9, 37, 0
1, 60380, Note_on_c, 0, 53, 0
1, 60393, Note_on_c, 9, 37, 68
1, 60399, Note_on_c, 9, 59, 0
1, 60401, Note_on_c, 0, 79, 0
1, 60410, Note_on_c, 9, 37, 0
1, 60410, Note_on_c, 0, 77, 55
1, 60428, Note_on_c, 0, 77, 0
1, 60438, Note_on_c, 9, 34, 31
1, 60446, Note_on_c, 0, 51, 42
1, 60447, Note_on_c, 0, 62, 38
1, 60448, Note_on_c, 0, 75, 55
1, 60450, Note_on_c, 9, 59, 64
1, 60456, Note_on_c, 0, 62, 0
1, 60459, Note_on_c, 9, 34, 0
1, 60462, Note_on_c, 9, 59, 0
1, 60463, Note_on_c, 0, 51, 0
1, 60475, Note_on_c, 2, 35, 0
1, 60475, Note_on_c, 1, 35, 0
1, 60478, Note_on_c, 9, 35, 50
1, 60479, Note_on_c, 1, 36, 60
1, 60479, Note_on_c, 2, 36, 60
1, 60480, Note_on_c, 0, 75, 0
1, 60480, Note_on_c, 9, 44, 0
1, 60483, Note_on_c, 9, 59, 75
1, 60494, Note_on_c, 0, 74, 50
1, 60514, Note_on_c, 9, 35, 0
1, 60519, Note_on_c, 0, 74, 0
1, 60525, Note_on_c, 9, 59, 0
1, 60529, Note_on_c, 0, 77, 78
1, 60555, Note_on_c, 0, 77, 0
1, 60564, Note_on_c, 0, 55, 33
1, 60566, Note_on_c, 0, 48, 35
1, 60569, Note_on_c, 0, 75, 59
1, 60573, Note_on_c, 0, 55, 0
1, 60574, Note_on_c, 0, 48, 0
1, 60588, Note_on_c, 2, 36, 0
1, 60588, Note_on_c, 1, 36, 0
1, 60596, Note_on_c, 9, 59, 79
1, 60600, Note_on_c, 9, 44, 99
1, 60602, Note_on_c, 0, 75, 0
1, 60603, Note_on_c, 1, 36, 68
1, 60603, Note_on_c, 2, 36, 68
1, 60612, Note_on_c, 0, 74, 50
1, 60633, Note_on_c, 0, 74, 0
1, 60646, Note_on_c, 9, 59, 0
1, 60648, Note_on_c, 0, 67, 44
1, 60678, Note_on_c, 0, 67, 0
1, 60710, Note_on_c, 0, 67, 52
1, 60717, Note_on_c, 2, 36, 0
1, 60717, Note_on_c, 1, 36, 0
1, 60720, Note_on_c, 9, 44, 0
1, 60720, Note_on_c, 9, 59, 83
1, 60726, Note_on_c, 1, 34, 53
1, 60726, Note_on_c, 2, 34, 53
1, 60727, Note_on_c, 0, 67, 0
1, 60765, Note_on_c, 0, 67, 43
1, 60770, Note_on_c, 9, 59, 0
1, 60785, Control_c, 0, 64, 127
1, 60792, Note_on_c, 0, 67, 0
1, 60829, Note_on_c, 1, 34, 0
1, 60829, Note_on_c, 2, 34, 0
1, 60832, Control_c, 0, 64, 0
1, 60840, Note_on_c, 0, 61, 36
1, 60840, Note_on_c, 9, 44, 99
1, 60842, Note_on_c, 0, 65, 26
1, 60842, Note_on_c, 9, 59, 80
1, 60843, Note_on_c, 0, 60, 34
1, 60845, Note_on_c, 0, 67, 39
1, 60845, Note_on_c, 1, 34, 58
1, 60845, Note_on_c, 2, 34, 58
1, 60847, Note_on_c, 9, 37, 74
1, 60864, Control_c, 0, 64, 127
1, 60878, Note_on_c, 9, 37, 0
1, 60878, Note_on_c, 9, 59, 0
1, 60930, Note_on_c, 9, 34, 71
1, 60934, Note_on_c, 9, 37, 70
1, 60938, Note_on_c, 9, 59, 61
1, 60941, Note_on_c, 0, 60, 0
1, 60947, Note_on_c, 0, 65, 0
1, 60949, Note_on_c, 9, 59, 0
1, 60960, Note_on_c, 9, 44, 0
1, 60962, Note_on_c, 9, 37, 0
1, 60963, Note_on_c, 1, 33, 54
1, 60963, Note_on_c, 2, 33, 54
1, 60965, Note_on_c, 2, 34, 0
1, 60965, Note_on_c, 1, 34, 0
1, 60970, Note_on_c, 9, 59, 68
1, 60974, Note_on_c, 9, 34, 0
1, 60974, Note_on_c, 9, 37, 44
1, 60975, Note_on_c, 0, 67, 0
1, 60976, Note_on_c, 0, 61, 0
1, 60976, Note_on_c, 9, 35, 55
1, 61003, Note_on_c, 9, 37, 0
1, 61014, Note_on_c, 9, 35, 0
1, 61034, Note_on_c, 9, 59, 0
1, 61079, Control_c, 0, 64, 0
1, 61080, Note_on_c, 9, 44, 100
1, 61084, Note_on_c, 1, 45, 62
1, 61084, Note_on_c, 2, 45, 62
1, 61084, Note_on_c, 9, 59, 83
1, 61086, Note_on_c, 0, 61, 42
1, 61087, Note_on_c, 0, 79, 60
1, 61089, Note_on_c, 0, 60, 26
1, 61089, Note_on_c, 0, 72, 41
1, 61090, Note_on_c, 0, 65, 57
1, 61092, Note_on_c, 0, 55, 45
1, 61092, Note_on_c, 0, 67, 54
1, 61105, Control_c, 0, 64, 127
1, 61127, Note_on_c, 0, 72, 0
1, 61129, Note_on_c, 0, 67, 0
1, 61133, Note_on_c, 9, 59, 0
1, 61134, Note_on_c, 0, 65, 0
1, 61134, Note_on_c, 0, 60, 0
1, 61137, Note_on_c, 0, 79, 0
1, 61146, Note_on_c, 0, 55, 0
1, 61148, Note_on_c, 0, 61, 0
1, 61168, Note_on_c, 1, 45, 0
1, 61168, Note_on_c, 2, 45, 0
1, 61177, Note_on_c, 9, 59, 56
1, 61194, Note_on_c, 9, 59, 0
1, 61200, Note_on_c, 9, 44, 0
1, 61201, Control_c, 0, 64, 0
1, 61202, Note_on_c, 1, 33, 0
1, 61202, Note_on_c, 2, 33, 0
1, 61202, Note_on_c, 1, 44, 52
1, 61202, Note_on_c, 2, 44, 52
1, 61206, Note_on_c, 0, 80, 56
1, 61206, Note_on_c, 0, 65, 46
1, 61207, Note_on_c, 0, 54, 39
1, 61208, Note_on_c, 0, 58, 31
1, 61208, Note_on_c, 0, 75, 55
1, 61209, Note_on_c, 0, 60, 40
1, 61213, Note_on_c, 0, 68, 40
1, 61216, Note_on_c, 9, 59, 64
1, 61225, Control_c, 0, 64, 127
1, 61245, Note_on_c, 9, 59, 0
1, 61253, Note_on_c, 0, 68, 0
1, 61259, Note_on_c, 0, 58, 0
1, 61259, Note_on_c, 0, 65, 0
1, 61260, Note_on_c, 0, 60, 0
1, 61263, Note_on_c, 0, 80, 0
1, 61268, Note_on_c, 0, 54, 0
1, 61270, Note_on_c, 0, 75, 0
1, 61295, Note_on_c, 0, 54, 48
1, 61296, Note_on_c, 0, 75, 59
1, 61296, Note_on_c, 0, 65, 41
1, 61296, Note_on_c, 9, 59, 86
1, 61297, Note_on_c, 0, 70, 54
1, 61297, Note_on_c, 0, 82, 59
1, 61297, Note_on_c, 0, 58, 38
1, 61298, Note_on_c, 0, 60, 48
1, 61311, Note_on_c, 0, 65, 0
1, 61312, Note_on_c, 0, 75, 0
1, 61313, Note_on_c, 9, 59, 0
1, 61315, Note_on_c, 0, 70, 0
1, 61317, Note_on_c, 0, 60, 0
1, 61320, Note_on_c, 0, 58, 0
1, 61320, Note_on_c, 0, 82, 0
1, 61320, Note_on_c, 9, 44, 99
1, 61321, Note_on_c, 0, 54, 0
1, 61321, Control_c, 0, 64, 0
1, 61321, Note_on_c, 1, 32, 48
1, 61321, Note_on_c, 2, 32, 48
1, 61329, Note_on_c, 2, 44, 0
1, 61329, Note_on_c, 1, 44, 0
1, 61334, Note_on_c, 0, 54, 29
1, 61335, Note_on_c, 9, 59, 71
1, 61338, Note_on_c, 0, 65, 42
1, 61340, Control_c, 0, 64, 127
1, 61340, Note_on_c, 0, 58, 37
1, 61341, Note_on_c, 0, 86, 41
1, 61341, Note_on_c, 0, 84, 37
1, 61341, Note_on_c, 0, 60, 53
1, 61351, Note_on_c, 0, 86, 0
1, 61351, Note_on_c, 0, 72, 15
1, 61363, Note_on_c, 0, 65, 0
1, 61365, Note_on_c, 0, 60, 0
1, 61367, Note_on_c, 0, 84, 0
1, 61381, Note_on_c, 0, 72, 0
1, 61392, Note_on_c, 0, 54, 0
1, 61395, Note_on_c, 0, 58, 0
1, 61412, Note_on_c, 9, 31, 36
1, 61414, Note_on_c, 9, 59, 0
1, 61416, Note_on_c, 0, 58, 25
1, 61416, Note_on_c, 0, 62, 42
1, 61418, Note_on_c, 0, 57, 38
1, 61419, Note_on_c, 0, 82, 53
1, 61423, Note_on_c, 0, 70, 38
1, 61428, Note_on_c, 0, 55, 24
1, 61430, Control_c, 0, 64, 0
1, 61432, Note_on_c, 2, 32, 0
1, 61432, Note_on_c, 1, 32, 0
1, 61439, Note_on_c, 9, 31, 0
1, 61440, Note_on_c, 9, 44, 0
1, 61450, Note_on_c, 1, 31, 42
1, 61450, Note_on_c, 2, 31, 42
1, 61451, Note_on_c, 9, 59, 78
1, 61452, Note_on_c, 9, 35, 27
1, 61455, Control_c, 0, 64, 127
1, 61474, Note_on_c, 0, 82, 0
1, 61482, Note_on_c, 0, 70, 0
1, 61488, Note_on_c, 9, 35, 0
1, 61492, Note_on_c, 0, 55, 0
1, 61494, Note_on_c, 0, 57, 0
1, 61496, Note_on_c, 0, 62, 0
1, 61506, Note_on_c, 0, 58, 0
1, 61509, Note_on_c, 9, 59, 0
1, 61527, Note_on_c, 9, 35, 49
1, 61539, Note_on_c, 0, 79, 32
1, 61539, Note_on_c, 9, 59, 55
1, 61540, Note_on_c, 0, 62, 28
1, 61540, Note_on_c, 0, 67, 30
1, 61540, Note_on_c, 0, 74, 35
1, 61545, Note_on_c, 0, 58, 25
1, 61546, Note_on_c, 0, 57, 32
1, 61546, Note_on_c, 0, 55, 33
1, 61552, Note_on_c, 9, 59, 0
1, 61560, Control_c, 0, 64, 0
1, 61560, Note_on_c, 9, 44, 93
1, 61562, Note_on_c, 9, 35, 0
1, 61564, Note_on_c, 1, 43, 59
1, 61564, Note_on_c, 2, 43, 59
1, 61565, Note_on_c, 2, 31, 0
1, 61565, Note_on_c, 1, 31, 0
1, 61573, Control_c, 0, 64, 127
1, 61575, Note_on_c, 9, 59, 79
1, 61579, Note_on_c, 0, 79, 0
1, 61582, Note_on_c, 0, 74, 0
1, 61587, Note_on_c, 0, 62, 0
1, 61588, Note_on_c, 0, 57, 0
1, 61594, Note_on_c, 0, 58, 0
1, 61600, Note_on_c, 0, 67, 0
1, 61608, Note_on_c, 0, 55, 0
1, 61650, Note_on_c, 9, 35, 23
1, 61661, Note_on_c, 9, 35, 0
1, 61661, Note_on_c, 9, 59, 0
1, 61673, Note_on_c, 0, 56, 25
1, 61677, Note_on_c, 0, 57, 53
1, 61678, Note_on_c, 1, 43, 0
1, 61678, Note_on_c, 2, 43, 0
1, 61679, Note_on_c, 1, 40, 53
1, 61679, Note_on_c, 2, 40, 53
1, 61680, Note_on_c, 9, 44, 0
1, 61684, Note_on_c, 0, 56, 0
1, 61685, Note_on_c, 0, 57, 0
1, 61687, Note_on_c, 0, 65, 54
1, 61687, Note_on_c, 0, 70, 57
1, 61688, Note_on_c, 0, 62, 51
1, 61689, Note_on_c, 0, 67, 46
1, 61689, Note_on_c, 9, 35, 74
1, 61691, Note_on_c, 0, 58, 52
1, 61693, Note_on_c, 9, 59, 42
1, 61697, Control_c, 0, 64, 0
1, 61722, Note_on_c, 9, 59, 0
1, 61731, Note_on_c, 9, 35, 0
1, 61747, Control_c, 0, 64, 127
1, 61777, Note_on_c, 9, 59, 58
1, 61783, Control_c, 0, 64, 0
1, 61784, Note_on_c, 0, 62, 0
1, 61787, Note_on_c, 0, 65, 0
1, 61789, Note_on_c, 9, 59, 0
1, 61790, Note_on_c, 0, 70, 0
1, 61790, Note_on_c, 0, 67, 0
1, 61798, Note_on_c, 1, 46, 74
1, 61798, Note_on_c, 2, 46, 74
1, 61800, Note_on_c, 9, 44, 98
1, 61805, Note_on_c, 0, 58, 0
1, 61810, Note_on_c, 0, 69, 50
1, 61811, Note_on_c, 0, 57, 41
1, 61812, Note_on_c, 0, 62, 29
1, 61813, Control_c, 0, 64, 127
1, 61814, Note_on_c, 9, 59, 78
1, 61826, Note_on_c, 0, 62, 0
1, 61842, Note_on_c, 0, 69, 0
1, 61868, Note_on_c, 0, 57, 0
1, 61881, Note_on_c, 9, 35, 90
1, 61885, Note_on_c, 0, 58, 50
1, 61895, Note_on_c, 9, 59, 0
1, 61898, Note_on_c, 0, 58, 0
1, 61910, Note_on_c, 1, 40, 0
1, 61910, Note_on_c, 2, 46, 0
1, 61910, Note_on_c, 1, 46, 0
1, 61910, Note_on_c, 2, 40, 0
1, 61916, Note_on_c, 9, 35, 0
1, 61918, Note_on_c, 1, 45, 62
1, 61918, Note_on_c, 2, 45, 62
1, 61920, Note_on_c, 9, 44, 0
1, 61934, Note_on_c, 9, 59, 47
1, 61947, Note_on_c, 9, 59, 0
1, 62015, Note_on_c, 9, 59, 62
1, 62025, Note_on_c, 9, 59, 0
1, 62040, Note_on_c, 1, 39, 59
1, 62040, Note_on_c, 2, 39, 59
1, 62040, Note_on_c, 9, 44, 96
1, 62041, Note_on_c, 2, 45, 0
1, 62041, Note_on_c, 1, 45, 0
1, 62052, Note_on_c, 0, 63, 39
1, 62052, Note_on_c, 0, 72, 70
1, 62053, Note_on_c, 0, 62, 44
1, 62054, Note_on_c, 0, 65, 76
1, 62054, Note_on_c, 9, 59, 76
1, 62056, Note_on_c, 0, 57, 46
1, 62056, Control_c, 0, 64, 0
1, 62056, Note_on_c, 0, 69, 60
1, 62056, Note_on_c, 0, 67, 62
1, 62064, Note_on_c, 0, 67, 0
1, 62073, Note_on_c, 0, 67, 17
1, 62086, Control_c, 0, 64, 127
1, 62094, Note_on_c, 0, 62, 0
1, 62099, Note_on_c, 0, 67, 0
1, 62100, Note_on_c, 0, 63, 0
1, 62104, Note_on_c, 0, 65, 0
1, 62105, Note_on_c, 0, 57, 0
1, 62108, Note_on_c, 0, 69, 0
1, 62125, Note_on_c, 0, 72, 0
1, 62127, Note_on_c, 9, 35, 92
1, 62134, Note_on_c, 9, 59, 0
1, 62151, Note_on_c, 0, 72, 67
1, 62151, Note_on_c, 0, 68, 71
1, 62152, Note_on_c, 0, 64, 73
1, 62156, Note_on_c, 1, 39, 0
1, 62156, Note_on_c, 2, 39, 0
1, 62156, Note_on_c, 0, 60, 54
1, 62156, Note_on_c, 0, 54, 50
1, 62160, Note_on_c, 9, 44, 0
1, 62164, Note_on_c, 1, 38, 52
1, 62164, Note_on_c, 2, 38, 52
1, 62165, Note_on_c, 9, 35, 0
1, 62165, Control_c, 0, 64, 0
1, 62171, Note_on_c, 9, 59, 74
1, 62233, Control_c, 0, 64, 127
1, 62237, Note_on_c, 9, 59, 0
1, 62280, Note_on_c, 9, 44, 96
1, 62281, Note_on_c, 1, 44, 64
1, 62281, Note_on_c, 2, 44, 64
1, 62285, Note_on_c, 2, 38, 0
1, 62285, Note_on_c, 1, 38, 0
1, 62295, Note_on_c, 9, 35, 28
1, 62300, Note_on_c, 9, 59, 47
1, 62301, Note_on_c, 0, 60, 0
1, 62302, Note_on_c, 9, 35, 0
1, 62304, Note_on_c, 9, 57, 52
1, 62317, Note_on_c, 0, 64, 0
1, 62320, Note_on_c, 0, 68, 0
1, 62322, Note_on_c, 0, 54, 0
1, 62327, Note_on_c, 9, 57, 0
1, 62361, Note_on_c, 9, 59, 0
1, 62366, Note_on_c, 9, 35, 78
1, 62371, Note_on_c, 1, 44, 0
1, 62371, Note_on_c, 2, 44, 0
1, 62371, Note_on_c, 1, 39, 31
1, 62371, Note_on_c, 2, 39, 31
1, 62378, Note_on_c, 0, 72, 0
1, 62390, Note_on_c, 9, 35, 0
1, 62395, Note_on_c, 2, 39, 0
1, 62395, Note_on_c, 1, 39, 0
1, 62398, Note_on_c, 1, 43, 62
1, 62398, Note_on_c, 2, 43, 62
1, 62400, Note_on_c, 9, 44, 0
1, 62403, Note_on_c, 0, 70, 42
1, 62404, Control_c, 0, 64, 0
1, 62406, Note_on_c, 0, 62, 28
1, 62407, Note_on_c, 0, 67, 41
1, 62408, Note_on_c, 0, 57, 30
1, 62409, Note_on_c, 0, 58, 25
1, 62409, Note_on_c, 0, 55, 34
1, 62427, Control_c, 0, 64, 127
1, 62434, Note_on_c, 0, 67, 0
1, 62437, Note_on_c, 0, 57, 0
1, 62443, Note_on_c, 0, 70, 0
1, 62445, Note_on_c, 0, 58, 0
1, 62451, Note_on_c, 0, 62, 0
1, 62453, Note_on_c, 0, 55, 0
1, 62490, Note_on_c, 9, 59, 61
1, 62499, Note_on_c, 9, 59, 0
1, 62509, Note_on_c, 2, 43, 0
1, 62509, Note_on_c, 1, 43, 0
1, 62520, Note_on_c, 9, 44, 100
1, 62521, Note_on_c, 1, 43, 72
1, 62521, Note_on_c, 2, 43, 72
1, 62526, Note_on_c, 0, 70, 55
1, 62526, Control_c, 0, 64, 0
1, 62528, Note_on_c, 0, 62, 51
1, 62528, Note_on_c, 0, 65, 55
1, 62529, Note_on_c, 0, 58, 50
1, 62529, Note_on_c, 0, 67, 46
1, 62532, Note_on_c, 0, 66, 32
1, 62532, Note_on_c, 9, 59, 60
1, 62542, Control_c, 0, 64, 127
1, 62554, Note_on_c, 0, 62, 0
1, 62556, Note_on_c, 0, 66, 0
1, 62557, Note_on_c, 0, 65, 0
1, 62560, Note_on_c, 0, 67, 0
1, 62560, Note_on_c, 0, 58, 0
1, 62569, Note_on_c, 0, 70, 0
1, 62606, Note_on_c, 9, 59, 0
1, 62629, Note_on_c, 1, 43, 0
1, 62629, Note_on_c, 2, 43, 0
1, 62640, Note_on_c, 9, 44, 0
1, 62640, Note_on_c, 1, 42, 33
1, 62640, Note_on_c, 2, 42, 33
1, 62647, Control_c, 0, 64, 0
1, 62647, Note_on_c, 9, 59, 62
1, 62648, Note_on_c, 0, 75, 69
1, 62650, Note_on_c, 0, 72, 72
1, 62650, Note_on_c, 0, 68, 78
1, 62651, Note_on_c, 0, 63, 83
1, 62652, Note_on_c, 0, 64, 78
1, 62699, Control_c, 0, 64, 127
1, 62710, Note_on_c, 9, 59, 0
1, 62726, Note_on_c, 9, 40, 23
1, 62736, Note_on_c, 9, 40, 0
1, 62750, Note_on_c, 1, 42, 0
1, 62750, Note_on_c, 2, 42, 0
1, 62755, Note_on_c, 0, 64, 0
1, 62755, Note_on_c, 0, 68, 0
1, 62758, Note_on_c, 0, 72, 0
1, 62760, Note_on_c, 1, 42, 74
1, 62760, Note_on_c, 2, 42, 74
1, 62760, Note_on_c, 9, 46, 93
1, 62764, Note_on_c, 0, 75, 0
1, 62767, Control_c, 0, 64, 0
1, 62769, Note_on_c, 9, 40, 22
1, 62773, Note_on_c, 0, 68, 49
1, 62773, Note_on_c, 0, 73, 48
1, 62773, Note_on_c, 9, 59, 70
1, 62774, Note_on_c, 0, 64, 61
1, 62776, Note_on_c, 0, 61, 50
1, 62777, Note_on_c, 9, 40, 0
1, 62777, Control_c, 0, 64, 127
1, 62779, Note_on_c, 0, 63, 0
1, 62812, Note_on_c, 0, 61, 0
1, 62813, Note_on_c, 0, 73, 0
1, 62816, Note_on_c, 0, 68, 0
1, 62826, Note_on_c, 0, 64, 0
1, 62844, Note_on_c, 9, 59, 0
1, 62844, Note_on_c, 9, 31, 22
1, 62851, Note_on_c, 9, 31, 0
1, 62854, Note_on_c, 9, 53, 69
1, 62873, Note_on_c, 9, 53, 0
1, 62880, Note_on_c, 1, 42, 0
1, 62880, Note_on_c, 2, 42, 0
1, 62880, Note_on_c, 9, 46, 0
1, 62885, Note_on_c, 1, 41, 45
1, 62885, Note_on_c, 2, 41, 45
1, 62887, Control_c, 0, 64, 0
1, 62887, Note_on_c, 0, 63, 71
1, 62888, Note_on_c, 0, 70, 71
1, 62888, Note_on_c, 0, 67, 66
1, 62889, Note_on_c, 0, 60, 72
1, 62889, Note_on_c, 0, 58, 69
1, 62903, Note_on_c, 9, 59, 37
1, 62929, Note_on_c, 9, 40, 33
1, 62936, Control_c, 0, 64, 127
1, 62937, Note_on_c, 9, 40, 0
1, 62948, Note_on_c, 9, 59, 0
1, 62969, Note_on_c, 9, 40, 33
1, 62972, Note_on_c, 9, 53, 77
1, 62975, Note_on_c, 9, 40, 0
1, 62980, Note_on_c, 0, 67, 0
1, 62985, Note_on_c, 0, 63, 0
1, 62987, Note_on_c, 0, 70, 0
1, 62990, Note_on_c, 0, 60, 0
1, 62992, Note_on_c, 9, 53, 0
1, 63000, Note_on_c, 9, 44, 98
1, 63004, Note_on_c, 1, 36, 83
1, 63004, Note_on_c, 2, 36, 83
1, 63005, Note_on_c, 0, 58, 0
1, 63006, Note_on_c, 1, 41, 0
1, 63006, Note_on_c, 2, 41, 0
1, 63007, Note_on_c, 1, 37, 37
1, 63007, Note_on_c, 2, 37, 37
1, 63008, Note_on_c, 9, 40, 53
1, 63009, Control_c, 0, 64, 0
1, 63009, Note_on_c, 0, 68, 52
1, 63009, Note_on_c, 0, 60, 38
1, 63010, Note_on_c, 0, 63, 46
1, 63010, Note_on_c, 0, 56, 52
1, 63015, Note_on_c, 9, 40, 0
1, 63019, Note_on_c, 9, 59, 40
1, 63021, Note_on_c, 1, 37, 0
1, 63021, Note_on_c, 2, 37, 0
1, 63028, Control_c, 0, 64, 127
1, 63047, Note_on_c, 9, 31, 30
1, 63051, Note_on_c, 0, 56, 0
1, 63053, Note_on_c, 9, 31, 0
1, 63054, Note_on_c, 0, 60, 0
1, 63064, Note_on_c, 0, 63, 0
1, 63066, Note_on_c, 0, 68, 0
1, 63071, Note_on_c, 9, 59, 0
1, 63084, Note_on_c, 9, 40, 23
1, 63091, Note_on_c, 9, 40, 0
1, 63095, Note_on_c, 9, 53, 73
1, 63111, Note_on_c, 9, 53, 0
1, 63120, Note_on_c, 9, 44, 0
1, 63122, Note_on_c, 1, 36, 0
1, 63122, Note_on_c, 2, 36, 0
1, 63127, Note_on_c, 1, 34, 46
1, 63127, Note_on_c, 2, 34, 46
1, 63133, Note_on_c, 0, 71, 75
1, 63135, Note_on_c, 0, 62, 78
1, 63135, Note_on_c, 0, 67, 75
1, 63135, Note_on_c, 0, 59, 71
1, 63142, Control_c, 0, 64, 0
1, 63148, Note_on_c, 9, 59, 32
1, 63171, Note_on_c, 9, 40, 40
1, 63176, Note_on_c, 9, 40, 0
1, 63178, Control_c, 0, 64, 127
1, 63186, Note_on_c, 9, 59, 0
1, 63200, Note_on_c, 0, 62, 0
1, 63208, Note_on_c, 0, 67, 0
1, 63208, Note_on_c, 0, 71, 0
1, 63208, Note_on_c, 9, 31, 31
1, 63215, Note_on_c, 9, 31, 0
1, 63217, Note_on_c, 9, 53, 83
1, 63240, Note_on_c, 1, 46, 85
1, 63240, Note_on_c, 2, 46, 85
1, 63240, Note_on_c, 9, 44, 96
1, 63244, Note_on_c, 9, 53, 0
1, 63246, Note_on_c, 0, 59, 0
1, 63251, Note_on_c, 9, 40, 46
1, 63254, Note_on_c, 0, 74, 57
1, 63254, Control_c, 0, 64, 0
1, 63255, Note_on_c, 9, 40, 0
1, 63255, Note_on_c, 0, 62, 52
1, 63255, Note_on_c, 0, 67, 47
1, 63257, Note_on_c, 0, 71, 52
1, 63258, Note_on_c, 0, 56, 49
1, 63264, Note_on_c, 9, 59, 54
1, 63281, Control_c, 0, 64, 127
1, 63289, Note_on_c, 9, 31, 38
1, 63295, Note_on_c, 9, 31, 0
1, 63302, Note_on_c, 9, 59, 0
1, 63307, Note_on_c, 0, 62, 0
1, 63312, Note_on_c, 0, 71, 0
1, 63313, Note_on_c, 0, 67, 0
1, 63314, Note_on_c, 0, 56, 0
1, 63316, Note_on_c, 0, 74, 0
1, 63330, Note_on_c, 9, 34, 61
1, 63332, Note_on_c, 9, 56, 18
1, 63335, Note_on_c, 9, 53, 84
1, 63337, Note_on_c, 9, 56, 0
1, 63343, Note_on_c, 9, 34, 0
1, 63348, Note_on_c, 2, 46, 0
1, 63348, Note_on_c, 1, 46, 0
1, 63350, Note_on_c, 9, 53, 0
1, 63360, Note_on_c, 2, 34, 0
1, 63360, Note_on_c, 9, 44, 0
1, 63360, Note_on_c, 1, 34, 0
1, 63364, Note_on_c, 1, 39, 37
1, 63364, Note_on_c, 2, 39, 37
1, 63374, Note_on_c, 9, 35, 83
1, 63374, Note_on_c, 9, 57, 99
1, 63375, Note_on_c, 9, 59, 81
1, 63377, Control_c, 0, 64, 0
1, 63382, Control_c, 0, 64, 127
1, 63445, Note_on_c, 0, 75, 72
1, 63447, Note_on_c, 0, 63, 62
1, 63447, Note_on_c, 0, 68, 77
1, 63448, Note_on_c, 0, 72, 74
1, 63449, Note_on_c, 0, 65, 73
1, 63454, Control_c, 0, 64, 0
1, 63460, Note_on_c, 9, 59, 0
1, 63470, Note_on_c, 2, 39, 0
1, 63470, Note_on_c, 1, 39, 0
1, 63477, Note_on_c, 1, 39, 74
1, 63477, Note_on_c, 2, 39, 74
1, 63480, Note_on_c, 9, 44, 100
1, 63482, Note_on_c, 0, 65, 0
1, 63483, Note_on_c, 0, 75, 0
1, 63484, Note_on_c, 0, 63, 0
1, 63485, Note_on_c, 0, 68, 0
1, 63488, Note_on_c, 0, 72, 0
1, 63493, Note_on_c, 9, 59, 54
1, 63522, Note_on_c, 0, 75, 65
1, 63524, Note_on_c, 0, 68, 62
1, 63524, Note_on_c, 0, 72, 63
1, 63524, Note_on_c, 0, 65, 66
1, 63526, Note_on_c, 0, 63, 67
1, 63540, Control_c, 0, 64, 127
1, 63541, Note_on_c, 9, 59, 0
1, 63567, Note_on_c, 0, 72, 0
1, 63567, Note_on_c, 0, 68, 0
1, 63569, Note_on_c, 0, 65, 0
1, 63574, Note_on_c, 9, 57, 0
1, 63576, Note_on_c, 0, 63, 0
1, 63576, Note_on_c, 0, 75, 0
1, 63592, Note_on_c, 1, 39, 0
1, 63592, Note_on_c, 2, 39, 0
1, 63600, Note_on_c, 9, 44, 0
1, 63602, Note_on_c, 1, 34, 44
1, 63602, Note_on_c, 2, 34, 44
1, 63606, Note_on_c, 9, 59, 61
1, 63617, Control_c, 0, 64, 0
1, 63638, Control_c, 0, 64, 127
1, 63680, Note_on_c, 9, 35, 0
1, 63682, Note_on_c, 9, 59, 0
1, 63682, Note_on_c, 9, 34, 27
1, 63717, Note_on_c, 2, 34, 0
1, 63717, Note_on_c, 1, 34, 0
1, 63717, Note_on_c, 1, 35, 75
1, 63717, Note_on_c, 2, 35, 75
1, 63718, Note_on_c, 9, 34, 0
1, 63720, Note_on_c, 9, 44, 94
1, 63723, Note_on_c, 9, 59, 63
1, 63724, Note_on_c, 9, 35, 31
1, 63733, Note_on_c, 9, 35, 0
1, 63790, Note_on_c, 9, 59, 0
1, 63805, Note_on_c, 0, 75, 65
1, 63806, Note_on_c, 0, 61, 67
1, 63806, Note_on_c, 0, 68, 67
1, 63806, Control_c, 0, 64, 0
1, 63806, Note_on_c, 0, 65, 65
1, 63810, Note_on_c, 0, 72, 51
1, 63818, Note_on_c, 9, 59, 46
1, 63828, Note_on_c, 0, 61, 0
1, 63829, Control_c, 0, 64, 127
1, 63831, Note_on_c, 9, 59, 0
1, 63834, Note_on_c, 0, 72, 0
1, 63834, Note_on_c, 0, 65, 0
1, 63836, Note_on_c, 1, 35, 0
1, 63836, Note_on_c, 2, 35, 0
1, 63839, Note_on_c, 1, 36, 60
1, 63839, Note_on_c, 2, 36, 60
1, 63840, Note_on_c, 9, 44, 0
1, 63842, Note_on_c, 0, 68, 0
1, 63842, Note_on_c, 0, 75, 0
1, 63855, Note_on_c, 9, 59, 60
1, 63879, Note_on_c, 0, 75, 74
1, 63880, Note_on_c, 0, 64, 74
1, 63880, Note_on_c, 0, 70, 69
1, 63880, Note_on_c, 0, 63, 61
1, 63882, Note_on_c, 0, 67, 69
1, 63884, Control_c, 0, 64, 0
1, 63918, Control_c, 0, 64, 127
1, 63935, Note_on_c, 9, 59, 0
1, 63949, Note_on_c, 0, 67, 0
1, 63951, Note_on_c, 0, 64, 0
1, 63951, Note_on_c, 0, 70, 0
1, 63960, Note_on_c, 0, 75, 0
1, 63960, Note_on_c, 1, 49, 74
1, 63960, Note_on_c, 2, 49, 74
1, 63960, Note_on_c, 9, 44, 100
1, 63962, Note_on_c, 0, 63, 0
1, 63970, Note_on_c, 2, 36, 0
1, 63970, Note_on_c, 1, 36, 0
1, 63970, Note_on_c, 9, 59, 65
1, 63972, Note_on_c, 0, 64, 59
1, 63975, Note_on_c, 0, 73, 43
1, 63975, Note_on_c, 0, 70, 35
1, 63976, Note_on_c, 0, 61, 53
1, 63985, Note_on_c, 0, 70, 0
1, 63990, Note_on_c, 0, 73, 0
1, 64001, Note_on_c, 0, 64, 0
1, 64023, Note_on_c, 0, 61, 0
1, 64041, Note_on_c, 9, 59, 0
1, 64053, Note_on_c, 0, 72, 55
1, 64053, Note_on_c, 0, 64, 62
1, 64053, Note_on_c, 0, 61, 52
1, 64055, Control_c, 0, 64, 0
1, 64056, Note_on_c, 0, 60, 49
1, 64058, Note_on_c, 9, 59, 53
1, 64060, Note_on_c, 0, 67, 30
1, 64069, Note_on_c, 9, 59, 0
1, 64079, Note_on_c, 1, 49, 0
1, 64079, Note_on_c, 2, 49, 0
1, 64080, Note_on_c, 9, 44, 0
1, 64084, Note_on_c, 1, 48, 55
1, 64084, Note_on_c, 2, 48, 55
1, 64089, Control_c, 0, 64, 127
1, 64095, Note_on_c, 9, 37, 20
1, 64096, Note_on_c, 9, 59, 65
1, 64106, Note_on_c, 9, 37, 0
1, 64113, Note_on_c, 0, 67, 0
1, 64120, Note_on_c, 0, 61, 0
1, 64122, Note_on_c, 0, 64, 0
1, 64125, Note_on_c, 9, 37, 25
1, 64129, Note_on_c, 9, 37, 0
1, 64137, Note_on_c, 0, 72, 0
1, 64150, Note_on_c, 0, 60, 0
1, 64155, Note_on_c, 9, 37, 26
1, 64163, Note_on_c, 9, 37, 0
1, 64168, Note_on_c, 9, 59, 0
1, 64170, Note_on_c, 0, 70, 46
1, 64171, Note_on_c, 0, 61, 55
1, 64174, Note_on_c, 0, 64, 48
1, 64174, Note_on_c, 0, 58, 39
1, 64177, Note_on_c, 0, 67, 34
1, 64182, Note_on_c, 9, 37, 42
1, 64183, Control_c, 0, 64, 0
1, 64187, Note_on_c, 9, 37, 0
1, 64197, Note_on_c, 1, 48, 0
1, 64197, Note_on_c, 2, 48, 0
1, 64198, Note_on_c, 1, 42, 50
1, 64198, Note_on_c, 2, 42, 50
1, 64200, Note_on_c, 9, 44, 93
1, 64207, Note_on_c, 9, 59, 97
1, 64210, Control_c, 0, 64, 127
1, 64213, Note_on_c, 9, 37, 72
1, 64217, Note_on_c, 0, 67, 0
1, 64222, Note_on_c, 0, 58, 0
1, 64222, Note_on_c, 0, 64, 0
1, 64223, Note_on_c, 9, 37, 0
1, 64223, Note_on_c, 0, 70, 0
1, 64240, Note_on_c, 9, 34, 53
1, 64242, Note_on_c, 0, 61, 0
1, 64263, Note_on_c, 9, 34, 0
1, 64271, Note_on_c, 9, 34, 50
1, 64285, Note_on_c, 9, 34, 0
1, 64295, Note_on_c, 9, 34, 45
1, 64299, Note_on_c, 9, 59, 0
1, 64309, Note_on_c, 1, 42, 0
1, 64309, Note_on_c, 2, 42, 0
1, 64318, Note_on_c, 0, 68, 44
1, 64320, Note_on_c, 9, 44, 0
1, 64320, Note_on_c, 0, 56, 32
1, 64321, Note_on_c, 9, 34, 0
1, 64321, Note_on_c, 0, 63, 38
1, 64321, Note_on_c, 0, 55, 46
1, 64321, Note_on_c, 1, 41, 44
1, 64321, Note_on_c, 2, 41, 44
1, 64322, Note_on_c, 0, 60, 46
1, 64326, Note_on_c, 9, 35, 55
1, 64330, Note_on_c, 9, 59, 48
1, 64331, Control_c, 0, 64, 0
1, 64361, Note_on_c, 9, 35, 0
1, 64365, Control_c, 0, 64, 127
1, 64373, Note_on_c, 9, 59, 0
1, 64397, Note_on_c, 0, 60, 0
1, 64406, Note_on_c, 0, 63, 0
1, 64408, Note_on_c, 0, 68, 0
1, 64408, Note_on_c, 0, 56, 0
1, 64415, Note_on_c, 0, 55, 0
1, 64416, Note_on_c, 9, 59, 40
1, 64423, Note_on_c, 0, 51, 29
1, 64427, Note_on_c, 9, 59, 0
1, 64436, Note_on_c, 1, 36, 41
1, 64436, Note_on_c, 2, 36, 41
1, 64440, Note_on_c, 2, 41, 0
1, 64440, Note_on_c, 1, 41, 0
1, 64440, Note_on_c, 9, 44, 95
1, 64443, Note_on_c, 0, 56, 32
1, 64444, Note_on_c, 0, 51, 0
1, 64444, Note_on_c, 0, 67, 48
1, 64444, Control_c, 0, 64, 0
1, 64446, Note_on_c, 0, 63, 30
1, 64448, Note_on_c, 0, 53, 32
1, 64448, Note_on_c, 0, 60, 38
1, 64448, Note_on_c, 9, 59, 63
1, 64476, Control_c, 0, 64, 127
1, 64509, Note_on_c, 0, 53, 0
1, 64515, Note_on_c, 0, 60, 0
1, 64521, Note_on_c, 0, 56, 0
1, 64522, Note_on_c, 0, 63, 0
1, 64537, Note_on_c, 0, 67, 0
1, 64542, Note_on_c, 9, 59, 0
1, 64560, Note_on_c, 9, 44, 0
1, 64560, Note_on_c, 1, 32, 49
1, 64560, Note_on_c, 2, 32, 49
1, 64562, Note_on_c, 0, 51, 38
1, 64563, Note_on_c, 0, 56, 27
1, 64563, Note_on_c, 0, 63, 35
1, 64565, Control_c, 0, 64, 0
1, 64567, Note_on_c, 1, 36, 0
1, 64567, Note_on_c, 2, 36, 0
1, 64568, Note_on_c, 0, 60, 34
1, 64568, Note_on_c, 9, 59, 51
1, 64607, Control_c, 0, 64, 127
1, 64617, Note_on_c, 0, 60, 0
1, 64635, Note_on_c, 9, 59, 0
1, 64637, Note_on_c, 0, 56, 0
1, 64643, Note_on_c, 0, 51, 0
1, 64647, Note_on_c, 0, 48, 51
1, 64652, Note_on_c, 0, 60, 35
1, 64657, Note_on_c, 9, 59, 47
1, 64662, Control_c, 0, 64, 0
1, 64668, Note_on_c, 9, 59, 0
1, 64669, Note_on_c, 1, 32, 0
1, 64669, Note_on_c, 2, 32, 0
1, 64669, Note_on_c, 0, 60, 0
1, 64673, Note_on_c, 0, 48, 0
1, 64680, Note_on_c, 9, 44, 93
1, 64681, Note_on_c, 0, 63, 0
1, 64685, Note_on_c, 1, 32, 49
1, 64685, Note_on_c, 2, 32, 49
1, 64690, Note_on_c, 9, 59, 73
1, 64691, Note_on_c, 0, 41, 36
1, 64699, Note_on_c, 0, 41, 0
1, 64700, Control_c, 0, 64, 127
1, 64765, Note_on_c, 0, 63, 71
1, 64765, Note_on_c, 0, 70, 77
1, 64766, Note_on_c, 0, 59, 80
1, 64768, Note_on_c, 0, 65, 73
1, 64768, Note_on_c, 0, 56, 64
1, 64768, Note_on_c, 9, 31, 41
1, 64775, Note_on_c, 9, 31, 0
1, 64776, Control_c, 0, 64, 0
1, 64786, Note_on_c, 9, 59, 0
1, 64789, Note_on_c, 2, 32, 0
1, 64789, Note_on_c, 1, 32, 0
1, 64800, Note_on_c, 9, 44, 0
1, 64804, Note_on_c, 9, 59, 68
1, 64805, Note_on_c, 1, 32, 45
1, 64805, Note_on_c, 2, 32, 45
1, 64811, Note_on_c, 9, 35, 33
1, 64829, Note_on_c, 9, 35, 0
1, 64862, Control_c, 0, 64, 127
1, 64883, Note_on_c, 9, 59, 0
1, 64888, Note_on_c, 9, 35, 31
1, 64895, Note_on_c, 9, 35, 0
1, 64896, Note_on_c, 0, 63, 0
1, 64898, Note_on_c, 0, 59, 0
1, 64903, Note_on_c, 9, 59, 54
1, 64913, Note_on_c, 9, 59, 0
1, 64914, Note_on_c, 0, 65, 0
1, 64917, Note_on_c, 0, 70, 0
1, 64920, Note_on_c, 9, 44, 90
1, 64926, Note_on_c, 0, 68, 15
1, 64928, Note_on_c, 0, 59, 49
1, 64931, Note_on_c, 0, 63, 34
1, 64932, Note_on_c, 9, 59, 58
1, 64937, Note_on_c, 0, 53, 34
1, 64940, Note_on_c, 0, 56, 0
1, 64946, Note_on_c, 0, 53, 0
1, 65003, Note_on_c, 1, 47, 56
1, 65003, Note_on_c, 2, 47, 56
1, 65008, Note_on_c, 0, 63, 0
1, 65008, Note_on_c, 0, 59, 0
1, 65025, Note_on_c, 9, 59, 0
1, 65032, Note_on_c, 2, 47, 0
1, 65032, Note_on_c, 1, 47, 0
1, 65035, Note_on_c, 0, 68, 0
1, 65040, Note_on_c, 9, 44, 0
1, 65044, Control_c, 0, 64, 0
1, 65046, Note_on_c, 0, 63, 39
1, 65046, Note_on_c, 1, 49, 44
1, 65046, Note_on_c, 2, 49, 44
1, 65048, Note_on_c, 0, 59, 34
1, 65052, Note_on_c, 0, 53, 24
1, 65052, Note_on_c, 0, 44, 21
1, 65053, Note_on_c, 9, 59, 67
1, 65072, Control_c, 0, 64, 127
1, 65077, Note_on_c, 1, 32, 0
1, 65077, Note_on_c, 2, 32, 0
1, 65097, Note_on_c, 0, 53, 0
1, 65097, Note_on_c, 0, 59, 0
1, 65102, Note_on_c, 0, 44, 0
1, 65110, Note_on_c, 0, 63, 0
1, 65118, Note_on_c, 9, 59, 0
1, 65124, Note_on_c, 9, 35, 47
1, 65132, Note_on_c, 9, 35, 0
1, 65132, Note_on_c, 0, 44, 34
1, 65134, Note_on_c, 0, 59, 35
1, 65134, Note_on_c, 0, 63, 29
1, 65137, Note_on_c, 0, 65, 50
1, 65142, Control_c, 0, 64, 0
1, 65142, Note_on_c, 9, 59, 45
1, 65155, Note_on_c, 9, 59, 0
1, 65159, Control_c, 0, 64, 127
1, 65160, Note_on_c, 9, 44, 95
1, 65161, Note_on_c, 1, 47, 58
1, 65161, Note_on_c, 2, 47, 58
1, 65164, Note_on_c, 1, 49, 0
1, 65164, Note_on_c, 2, 49, 0
1, 65174, Note_on_c, 9, 59, 56
1, 65183, Note_on_c, 0, 44, 0
1, 65189, Note_on_c, 0, 59, 0
1, 65202, Note_on_c, 0, 63, 0
1, 65210, Note_on_c, 0, 65, 0
1, 65247, Note_on_c, 1, 42, 34
1, 65247, Note_on_c, 2, 42, 34
1, 65247, Note_on_c, 9, 31, 40
1, 65252, Note_on_c, 9, 59, 0
1, 65252, Note_on_c, 0, 58, 40
1, 65252, Note_on_c, 0, 67, 53
1, 65253, Note_on_c, 1, 42, 0
1, 65253, Note_on_c, 2, 42, 0
1, 65253, Note_on_c, 0, 63, 38
1, 65255, Note_on_c, 0, 55, 33
1, 65256, Note_on_c, 0, 46, 28
1, 65259, Note_on_c, 1, 47, 0
1, 65259, Note_on_c, 2, 47, 0
1, 65260, Control_c, 0, 64, 0
1, 65268, Note_on_c, 9, 31, 0
1, 65280, Note_on_c, 9, 44, 0
1, 65281, Note_on_c, 1, 46, 49
1, 65281, Note_on_c, 2, 46, 49
1, 65289, Note_on_c, 9, 35, 37
1, 65290, Note_on_c, 9, 59, 74
1, 65295, Control_c, 0, 64, 127
1, 65318, Note_on_c, 9, 35, 0
1, 65345, Note_on_c, 0, 55, 0
1, 65359, Note_on_c, 0, 67, 0
1, 65365, Note_on_c, 0, 58, 0
1, 65365, Note_on_c, 9, 59, 0
1, 65365, Note_on_c, 1, 43, 57
1, 65365, Note_on_c, 2, 43, 57
1, 65366, Note_on_c, 0, 63, 0
1, 65375, Note_on_c, 1, 43, 0
1, 65375, Note_on_c, 2, 43, 0
1, 65382, Note_on_c, 0, 46, 0
1, 65384, Note_on_c, 9, 59, 56
1, 65393, Note_on_c, 9, 59, 0
1, 65400, Note_on_c, 1, 46, 0
1, 65400, Note_on_c, 2, 46, 0
1, 65400, Note_on_c, 9, 44, 100
1, 65401, Note_on_c, 1, 34, 58
1, 65401, Note_on_c, 2, 34, 58
1, 65408, Note_on_c, 0, 46, 27
1, 65410, Note_on_c, 0, 67, 49
1, 65410, Note_on_c, 0, 58, 38
1, 65410, Note_on_c, 0, 63, 43
1, 65413, Note_on_c, 9, 59, 70
1, 65414, Note_on_c, 0, 55, 29
1, 65433, Note_on_c, 0, 67, 0
1, 65436, Note_on_c, 0, 55, 0
1, 65442, Note_on_c, 0, 63, 0
1, 65442, Note_on_c, 0, 58, 0
1, 65443, Note_on_c, 0, 46, 0
1, 65488, Note_on_c, 9, 35, 25
1, 65492, Note_on_c, 0, 46, 59
1, 65494, Note_on_c, 0, 63, 64
1, 65494, Note_on_c, 0, 58, 69
1, 65494, Note_on_c, 0, 67, 71
1, 65495, Note_on_c, 0, 55, 66
1, 65504, Note_on_c, 9, 35, 0
1, 65515, Note_on_c, 9, 59, 0
1, 65520, Note_on_c, 9, 44, 0
1, 65525, Note_on_c, 0, 55, 0
1, 65526, Note_on_c, 0, 67, 0
1, 65526, Note_on_c, 0, 58, 0
1, 65530, Note_on_c, 0, 46, 0
1, 65534, Note_on_c, 9, 35, 23
1, 65538, Note_on_c, 0, 63, 0
1, 65544, Note_on_c, 0, 63, 35
1, 65546, Note_on_c, 0, 58, 47
1, 65546, Note_on_c, 0, 67, 51
1, 65548, Note_on_c, 0, 46, 43
1, 65550, Note_on_c, 0, 55, 42
1, 65554, Note_on_c, 9, 35, 0
1, 65582, Note_on_c, 0, 58, 0
1, 65584, Note_on_c, 0, 55, 0
1, 65588, Note_on_c, 0, 46, 0
1, 65591, Note_on_c, 0, 67, 0
1, 65599, Note_on_c, 0, 63, 0
1, 65599, Note_on_c, 1, 46, 59
1, 65599, Note_on_c, 2, 46, 59
1, 65605, Note_on_c, 2, 46, 0
1, 65605, Note_on_c, 1, 46, 0
1, 65607, Note_on_c, 1, 34, 0
1, 65607, Note_on_c, 2, 34, 0
1, 65619, Note_on_c, 0, 46, 38
1, 65619, Note_on_c, 0, 56, 53
1, 65620, Note_on_c, 0, 62, 44
1, 65621, Note_on_c, 0, 65, 57
1, 65621, Note_on_c, 9, 59, 59
1, 65624, Note_on_c, 0, 55, 37
1, 65632, Note_on_c, 9, 59, 0
1, 65633, Note_on_c, 1, 34, 45
1, 65633, Note_on_c, 2, 34, 45
1, 65635, Note_on_c, 0, 55, 0
1, 65639, Note_on_c, 0, 56, 0
1, 65640, Note_on_c, 0, 46, 0
1, 65640, Note_on_c, 9, 44, 96
1, 65645, Note_on_c, 0, 62, 0
1, 65646, Control_c, 0, 64, 0
1, 65651, Note_on_c, 0, 65, 0
1, 65661, Note_on_c, 9, 59, 68
1, 65663, Note_on_c, 0, 46, 34
1, 65666, Control_c, 0, 64, 127
1, 65673, Note_on_c, 0, 46, 0
1, 65704, Note_on_c, 0, 42, 23
1, 65708, Note_on_c, 1, 34, 0
1, 65708, Note_on_c, 2, 34, 0
1, 65712, Note_on_c, 0, 42, 0
1, 65717, Note_on_c, 1, 40, 51
1, 65717, Note_on_c, 2, 40, 51
1, 65729, Note_on_c, 9, 34, 43
1, 65734, Note_on_c, 0, 61, 71
1, 65734, Note_on_c, 0, 67, 68
1, 65736, Note_on_c, 0, 57, 60
1, 65737, Note_on_c, 2, 40, 0
1, 65737, Note_on_c, 1, 40, 0
1, 65737, Note_on_c, 0, 51, 46
1, 65738, Note_on_c, 0, 41, 47
1, 65749, Note_on_c, 9, 34, 0
1, 65749, Control_c, 0, 64, 0
1, 65752, Note_on_c, 1, 41, 49
1, 65752, Note_on_c, 2, 41, 49
1, 65754, Note_on_c, 0, 61, 0
1, 65760, Note_on_c, 9, 44, 0
1, 65760, Note_on_c, 0, 62, 36
1, 65765, Note_on_c, 2, 41, 0
1, 65765, Note_on_c, 1, 41, 0
1, 65767, Note_on_c, 9, 59, 0
1, 65772, Note_on_c, 9, 35, 23
1, 65782, Control_c, 0, 64, 127
1, 65793, Note_on_c, 9, 35, 0
1, 65837, Note_on_c, 1, 36, 48
1, 65837, Note_on_c, 2, 36, 48
1, 65840, Note_on_c, 0, 62, 0
1, 65845, Note_on_c, 1, 36, 0
1, 65845, Note_on_c, 2, 36, 0
1, 65848, Note_on_c, 0, 51, 0
1, 65850, Note_on_c, 0, 57, 0
1, 65850, Note_on_c, 9, 59, 61
1, 65864, Note_on_c, 9, 59, 0
1, 65870, Control_c, 0, 64, 0
1, 65874, Note_on_c, 1, 29, 50
1, 65874, Note_on_c, 2, 29, 50
1, 65880, Control_c, 0, 64, 127
1, 65880, Note_on_c, 9, 44, 91
1, 65881, Note_on_c, 0, 57, 38
1, 65882, Note_on_c, 0, 51, 26
1, 65882, Note_on_c, 0, 61, 48
1, 65885, Note_on_c, 9, 59, 74
1, 65940, Note_on_c, 0, 51, 0
1, 65959, Note_on_c, 9, 34, 28
1, 65970, Note_on_c, 9, 59, 0
1, 65972, Note_on_c, 9, 34, 0
1, 66000, Note_on_c, 0, 41, 0
1, 66000, Note_on_c, 9, 44, 0
1, 66001, Note_on_c, 9, 46, 40
1, 66001, Note_on_c, 9, 35, 34
1, 66018, Note_on_c, 9, 46, 0
1, 66023, Note_on_c, 0, 57, 0
1, 66034, Note_on_c, 0, 61, 0
1, 66037, Note_on_c, 9, 35, 0
1, 66077, Note_on_c, 1, 41, 48
1, 66077, Note_on_c, 2, 41, 48
1, 66083, Note_on_c, 0, 60, 38
1, 66083, Note_on_c, 0, 41, 39
1, 66083, Note_on_c, 0, 57, 47
1, 66086, Note_on_c, 2, 41, 0
1, 66086, Note_on_c, 1, 41, 0
1, 66086, Note_on_c, 9, 53, 62
1, 66087, Note_on_c, 0, 51, 29
1, 66087, Note_on_c, 9, 59, 59
1, 66090, Control_c, 0, 64, 0
1, 66095, Note_on_c, 9, 53, 0
1, 66096, Note_on_c, 9, 59, 0
1, 66114, Note_on_c, 1, 29, 0
1, 66114, Note_on_c, 2, 29, 0
1, 66114, Note_on_c, 1, 35, 63
1, 66114, Note_on_c, 2, 35, 63
1, 66115, Control_c, 0, 64, 127
1, 66120, Note_on_c, 0, 41, 0
1, 66120, Note_on_c, 9, 44, 100
1, 66127, Note_on_c, 9, 59, 62
1, 66129, Note_on_c, 9, 53, 55
1, 66141, Note_on_c, 0, 51, 0
1, 66153, Note_on_c, 0, 57, 0
1, 66162, Note_on_c, 9, 53, 0
1, 66162, Note_on_c, 0, 60, 0
1, 66167, Note_on_c, 0, 67, 0
1, 66179, Note_on_c, 9, 59, 0
1, 66191, Note_on_c, 9, 31, 45
1, 66198, Note_on_c, 9, 31, 0
1, 66226, Note_on_c, 1, 35, 0
1, 66226, Note_on_c, 2, 35, 0
1, 66234, Note_on_c, 9, 35, 38
1, 66237, Note_on_c, 0, 63, 46
1, 66237, Note_on_c, 1, 34, 60
1, 66237, Note_on_c, 2, 34, 60
1, 66238, Note_on_c, 0, 56, 27
1, 66239, Note_on_c, 0, 46, 39
1, 66240, Note_on_c, 9, 44, 0
1, 66240, Control_c, 0, 64, 0
1, 66241, Note_on_c, 0, 60, 45
1, 66261, Note_on_c, 9, 35, 0
1, 66267, Control_c, 0, 64, 127
1, 66279, Note_on_c, 0, 60, 0
1, 66281, Note_on_c, 0, 56, 0
1, 66300, Note_on_c, 0, 63, 0
1, 66315, Note_on_c, 9, 35, 42
1, 66325, Note_on_c, 0, 56, 53
1, 66326, Note_on_c, 0, 65, 71
1, 66326, Note_on_c, 9, 59, 46
1, 66327, Note_on_c, 0, 63, 67
1, 66327, Note_on_c, 0, 60, 79
1, 66328, Note_on_c, 9, 53, 46
1, 66329, Note_on_c, 9, 35, 0
1, 66334, Control_c, 0, 64, 0
1, 66335, Note_on_c, 9, 59, 0
1, 66337, Note_on_c, 9, 53, 0
1, 66357, Control_c, 0, 64, 127
1, 66358, Note_on_c, 1, 46, 85
1, 66358, Note_on_c, 2, 46, 85
1, 66360, Note_on_c, 9, 44, 103
1, 66362, Note_on_c, 9, 53, 52
1, 66362, Note_on_c, 9, 59, 66
1, 66375, Note_on_c, 0, 60, 0
1, 66379, Note_on_c, 0, 65, 0
1, 66380, Note_on_c, 0, 56, 0
1, 66381, Note_on_c, 0, 63, 0
1, 66395, Note_on_c, 0, 46, 0
1, 66408, Note_on_c, 0, 63, 59
1, 66408, Note_on_c, 0, 56, 45
1, 66409, Note_on_c, 0, 65, 64
1, 66411, Note_on_c, 0, 46, 38
1, 66414, Note_on_c, 9, 53, 0
1, 66422, Note_on_c, 9, 59, 0
1, 66431, Note_on_c, 0, 56, 0
1, 66438, Note_on_c, 0, 65, 0
1, 66439, Note_on_c, 0, 63, 0
1, 66441, Note_on_c, 9, 34, 22
1, 66449, Note_on_c, 0, 46, 0
1, 66458, Note_on_c, 9, 34, 0
1, 66480, Note_on_c, 9, 44, 0
1, 66486, Note_on_c, 9, 35, 29
1, 66494, Control_c, 0, 64, 0
1, 66494, Note_on_c, 0, 56, 67
1, 66496, Note_on_c, 0, 65, 64
1, 66496, Note_on_c, 0, 62, 66
1, 66496, Note_on_c, 0, 46, 51
1, 66497, Note_on_c, 9, 35, 0
1, 66525, Control_c, 0, 64, 127
1, 66562, Note_on_c, 1, 37, 36
1, 66562, Note_on_c, 2, 37, 36
1, 66565, Note_on_c, 1, 34, 0
1, 66565, Note_on_c, 2, 34, 0
1, 66570, Note_on_c, 2, 46, 0
1, 66570, Note_on_c, 1, 46, 0
1, 66570, Note_on_c, 9, 53, 41
1, 66579, Note_on_c, 9, 53, 0
1, 66592, Note_on_c, 2, 37, 0
1, 66592, Note_on_c, 1, 37, 0
1, 66600, Note_on_c, 9, 46, 100
1, 66605, Note_on_c, 1, 38, 47
1, 66605, Note_on_c, 2, 38, 47
1, 66606, Note_on_c, 9, 59, 67
1, 66613, Note_on_c, 0, 62, 0
1, 66614, Note_on_c, 0, 63, 74
1, 66618, Note_on_c, 9, 53, 31
1, 66629, Note_on_c, 9, 53, 0
1, 66634, Note_on_c, 0, 46, 0
1, 66647, Note_on_c, 9, 59, 0
1, 66660, Note_on_c, 0, 56, 0
1, 66668, Note_on_c, 0, 65, 0
1, 66675, Note_on_c, 0, 63, 0
1, 66680, Note_on_c, 0, 62, 48
1, 66681, Note_on_c, 1, 39, 73
1, 66681, Note_on_c, 2, 39, 73
1, 66684, Note_on_c, 1, 38, 0
1, 66684, Note_on_c, 2, 38, 0
1, 66688, Note_on_c, 9, 34, 33
1, 66693, Note_on_c, 9, 34, 0
1, 66698, Note_on_c, 0, 62, 0
1, 66720, Note_on_c, 9, 46, 0
1, 66727, Note_on_c, 9, 59, 64
1, 66732, Note_on_c, 9, 46, 51
1, 66732, Note_on_c, 9, 35, 40
1, 66738, Note_on_c, 9, 49, 44
1, 66742, Note_on_c, 0, 63, 82
1, 66742, Note_on_c, 0, 45, 82
1, 66742, Note_on_c, 0, 55, 88
1, 66743, Note_on_c, 0, 60, 83
1, 66747, Control_c, 0, 64, 0
1, 66806, Note_on_c, 2, 39, 0
1, 66806, Note_on_c, 1, 39, 0
1, 66817, Control_c, 0, 64, 127
1, 66823, Note_on_c, 0, 63, 0
1, 66834, Note_on_c, 0, 63, 75
1, 66851, Note_on_c, 0, 55, 0
1, 66852, Note_on_c, 9, 35, 0
1, 66855, Note_on_c, 9, 46, 0
1, 66863, Note_on_c, 0, 45, 0
1, 66873, Note_on_c, 0, 63, 0
1, 66875, Note_on_c, 0, 60, 0
1, 66889, Note_on_c, 3, 32, 77
1, 66918, Note_on_c, 0, 63, 77
1, 66918, Note_on_c, 0, 44, 81
1, 66918, Note_on_c, 0, 54, 83
1, 66918, Note_on_c, 0, 60, 80
1, 66927, Control_c, 0, 64, 0
1, 66939, Note_on_c, 9, 46, 62
1, 66977, Note_on_c, 9, 46, 0
1, 66979, Note_on_c, 9, 49, 0
1, 66986, Note_on_c, 0, 63, 0
1, 67001, Control_c, 0, 64, 127
1, 67003, Note_on_c, 0, 63, 56
1, 67056, Note_on_c, 0, 60, 0
1, 67058, Note_on_c, 0, 54, 0
1, 67078, Note_on_c, 0, 63, 0
1, 67090, Note_on_c, 0, 44, 0
1, 67096, Note_on_c, 9, 46, 72
1, 67099, Note_on_c, 9, 35, 69
1, 67113, Note_on_c, 9, 59, 0
1, 67113, Note_on_c, 0, 63, 69
1, 67114, Note_on_c, 0, 43, 75
1, 67114, Note_on_c, 0, 59, 78
1, 67115, Note_on_c, 0, 53, 74
1, 67123, Control_c, 0, 64, 0
1, 67129, Note_on_c, 3, 32, 0
1, 67129, Note_on_c, 3, 31, 80
1, 67168, Note_on_c, 9, 46, 0
1, 67175, Note_on_c, 9, 35, 0
1, 67185, Note_on_c, 0, 63, 0
1, 67192, Control_c, 0, 64, 127
1, 67202, Note_on_c, 0, 63, 51
1, 67244, Note_on_c, 0, 53, 0
1, 67245, Note_on_c, 0, 59, 0
1, 67250, Note_on_c, 0, 43, 0
1, 67265, Note_on_c, 0, 63, 0
1, 67303, Note_on_c, 3, 30, 87
1, 67315, Note_on_c, 3, 31, 0
1, 67316, Note_on_c, 9, 46, 69
1, 67316, Note_on_c, 9, 35, 63
1, 67318, Note_on_c, 0, 58, 57
1, 67319, Note_on_c, 0, 63, 50
1, 67320, Control_c, 0, 64, 0
1, 67320, Note_on_c, 0, 42, 53
1, 67320, Note_on_c, 0, 52, 56
1, 67379, Note_on_c, 9, 46, 0
1, 67380, Note_on_c, 9, 35, 0
1, 67388, Control_c, 0, 64, 127
1, 67422, Note_on_c, 0, 63, 0
1, 67453, Note_on_c, 0, 63, 47
1, 67640, Note_on_c, 0, 42, 0
1, 67670, Note_on_c, 3, 29, 80
1, 67684, Note_on_c, 0, 52, 0
1, 67693, Note_on_c, 3, 30, 0
1, 67742, Note_on_c, 0, 58, 0
1, 67744, Note_on_c, 0, 63, 0
1, 67754, Note_on_c, 9, 46, 65
1, 67756, Note_on_c, 9, 35, 54
1, 67794, Note_on_c, 0, 63, 44
1, 67795, Note_on_c, 0, 57, 51
1, 67796, Note_on_c, 0, 51, 49
1, 67797, Control_c, 0, 64, 0
1, 67798, Note_on_c, 0, 41, 39
1, 67854, Control_c, 0, 64, 127
1, 67889, Note_on_c, 0, 63, 0
1, 67916, Note_on_c, 9, 46, 0
1, 67919, Note_on_c, 0, 63, 46
1, 67922, Note_on_c, 9, 35, 0
1, 67941, Note_on_c, 0, 41, 0
1, 67963, Note_on_c, 0, 63, 0
1, 67966, Note_on_c, 0, 51, 0
1, 67976, Note_on_c, 0, 57, 0
1, 68066, Note_on_c, 9, 46, 53
1, 68067, Note_on_c, 9, 35, 40
1, 68083, Note_on_c, 0, 63, 44
1, 68084, Note_on_c, 0, 51, 37
1, 68084, Note_on_c, 0, 56, 45
1, 68087, Note_on_c, 0, 40, 25
1, 68088, Note_on_c, 0, 28, 31
1, 68096, Control_c, 0, 64, 0
1, 68131, Note_on_c, 3, 28, 73
1, 68133, Note_on_c, 9, 46, 0
1, 68141, Note_on_c, 9, 35, 0
1, 68150, Note_on_c, 3, 29, 0
1, 68172, Control_c, 0, 64, 127
1, 68206, Note_on_c, 0, 63, 0
1, 68266, Note_on_c, 0, 63, 32
1, 68317, Note_on_c, 0, 40, 0
1, 68323, Note_on_c, 0, 28, 0
1, 68342, Note_on_c, 0, 51, 0
1, 68418, Note_on_c, 0, 56, 0
1, 68448, Note_on_c, 0, 63, 0
1, 68640, Note_on_c, 9, 29, 44
1, 68723, Note_on_c, 3, 28, 0
1, 68734, Note_on_c, 3, 39, 64
1, 68831, Note_on_c, 9, 40, 49
1, 68835, Note_on_c, 9, 57, 82
1, 68843, Note_on_c, 0, 63, 33
1, 68849, Note_on_c, 0, 39, 25
1, 68850, Note_on_c, 0, 58, 36
1, 68851, Note_on_c, 0, 53, 28
1, 68854, Note_on_c, 0, 27, 31
1, 68858, Control_c, 0, 64, 0
1, 68881, Note_on_c, 9, 29, 0
1, 68906, Control_c, 0, 64, 127
1, 68945, Note_on_c, 0, 53, 0
1, 68968, Note_on_c, 0, 58, 0
1, 68990, Note_on_c, 0, 63, 0
1, 68995, Note_on_c, 0, 27, 0
1, 69003, Note_on_c, 0, 39, 0
1, 69338, Note_on_c, 0, 82, 31
1, 69413, Note_on_c, 0, 86, 47
1, 69431, Note_on_c, 0, 86, 0
1, 69442, Note_on_c, 0, 91, 49
1, 69448, Note_on_c, 0, 91, 0
1, 69463, Note_on_c, 9, 57, 0
1, 69472, Note_on_c, 0, 96, 56
1, 69495, Note_on_c, 0, 96, 0
1, 69506, Note_on_c, 0, 98, 47
1, 69511, Note_on_c, 9, 40, 0
1, 69525, Note_on_c, 0, 98, 0
1, 69538, Note_on_c, 0, 103, 50
1, 69562, Note_on_c, 0, 103, 0
1, 69577, Note_on_c, 0, 105, 45
1, 69600, Note_on_c, 0, 105, 0
1, 69686, Note_on_c, 0, 82, 0
1, 69756, Note_on_c, 9, 40, 25
1, 69792, Note_on_c, 9, 40, 44
1, 69798, Note_on_c, 9, 35, 29
1, 69817, Control_c, 0, 64, 0
1, 69832, Note_on_c, 9, 49, 25
1, 69834, Note_on_c, 9, 35, 44
1, 69864, Note_on_c, 3, 39, 0
1, 69997, Note_on_c, 9, 40, 0
1, 70033, Note_on_c, 9, 40, 0
1, 70039, Note_on_c, 9, 35, 0
1, 70073, Note_on_c, 9, 49, 0
1, 70075, Note_on_c, 9, 35, 0
1, 70075, End_track
0, 0, End_of_file
