0, 0, Header, 1, 3, 960
1, 0, Start_track
1, 0, Title_t, "How Deep is the Ocean - solo piano"
1, 0, Text_t, "Played in real time - dougmck@pipeline.com.au\012"
1, 0, Text_t, "Lots of ideas borrowed from Roger Kellaway's version on his 'Maybeck Hall' recital solo CD. \012"
1, 0, Time_signature, 4, 2, 24, 8
1, 0, Key_signature, -3, "major"
1, 0, Tempo, 652174
1, 0, Marker_t, "Opening phrase LH & RH in unison"
1, 19665, Marker_t, "On Am7b5 descending run - easy to execute"
1, 25215, Marker_t, "Resolves by surrounding 3rd of Gm"
1, 39855, Marker_t, "On Gm7 arpeggiated perfect 4ths - C,F,Bb"
1, 43658, Marker_t, "On Gb7 diminished half/whole step runn"
1, 47850, Marker_t, "On Fm7 - dorian (Eb major scale) ascending"
1, 50078, Marker_t, "continued on Fm7 - descending Fm pentatonic scale"
1, 54217, Marker_t, "Finishes on root of Bb7 chord"
1, 56054, Marker_t, "On Bb7b9 easy 2 handed ascending run - LH on Black, RH on white notes"
1, 59835, Marker_t, "Continue on Bb7 descending sequence of notes based on diminished scale"
1, 65498, Marker_t, "Parallel tenths rising to tonic (DbMaj,DMaj,EbMaj)"
1, 80400, Marker_t, "On Ab7 - whole tone scale - more or less randomly struck notes from the 6 notes"
1, 87488, Marker_t, "Sustain pedal down through all this Whole Tone stuff"
1, 105758, Marker_t, "One of the ways to harmonise the modulation back to Cm"
1, 107963, Marker_t, "D/Bb Db/A Ab6/9 G7"
1, 111855, Marker_t, "Bass figure based on Blues scale"
1, 178887, Marker_t, "On Db7#11 Whole Tone Scale again with sustain pedal down-  LH plays Black notes, RH plays white"
1, 204090, Marker_t, "No turn-around bar - straight back to start"
1, 238298, Marker_t, "'Who's a dirty rascal?' quote"
1, 246353, Marker_t, "Run on F7b9 combining alternately diminished chord and chromatic scale"
1, 292697, Marker_t, "On C7 Whole/half dim scale - no pedal"
1, 380760, Marker_t, "On F13 descending run with changes of direction"
1, 403298, Marker_t, "Ending based on cycle of 5ths harmony finishing on Eb"
1, 403298, End_track
2, 0, Start_track
2, 0, Title_t, "MIDI 2"
2, 0, Note_on_c, 0, 84, 34
2, 26, Note_on_c, 0, 61, 40
2, 78, Note_on_c, 0, 85, 51
2, 112, Note_on_c, 0, 62, 68
2, 126, Note_on_c, 0, 84, 0
2, 132, Note_on_c, 0, 86, 68
2, 156, Note_on_c, 0, 61, 0
2, 198, Note_on_c, 0, 63, 77
2, 210, Note_on_c, 0, 87, 83
2, 228, Note_on_c, 0, 62, 0
2, 244, Note_on_c, 0, 86, 0
2, 249, Note_on_c, 0, 85, 0
2, 658, Control_c, 0, 64, 127
2, 702, Note_on_c, 0, 87, 0
2, 714, Note_on_c, 0, 63, 0
2, 760, Control_c, 0, 64, 0
2, 777, Note_on_c, 0, 87, 83
2, 785, Note_on_c, 0, 63, 76
2, 1006, Control_c, 0, 64, 127
2, 1261, Control_c, 0, 64, 0
2, 1369, Note_on_c, 0, 63, 0
2, 1369, Note_on_c, 0, 87, 0
2, 1371, Note_on_c, 0, 86, 80
2, 1387, Note_on_c, 0, 62, 60
2, 1544, Control_c, 0, 64, 127
2, 1723, Control_c, 0, 64, 0
2, 1783, Note_on_c, 0, 86, 0
2, 1832, Note_on_c, 0, 62, 0
2, 1846, Note_on_c, 0, 63, 49
2, 1852, Note_on_c, 0, 87, 53
2, 1953, Control_c, 0, 64, 127
2, 2307, Note_on_c, 0, 87, 0
2, 2389, Control_c, 0, 64, 0
2, 2395, Note_on_c, 0, 67, 58
2, 2399, Note_on_c, 0, 91, 65
2, 2409, Note_on_c, 0, 63, 0
2, 2660, Control_c, 0, 64, 127
2, 2981, Note_on_c, 0, 91, 0
2, 3003, Note_on_c, 0, 67, 0
2, 3178, Note_on_c, 0, 91, 61
2, 3190, Note_on_c, 0, 67, 40
2, 3570, Note_on_c, 0, 91, 0
2, 3692, Note_on_c, 0, 67, 0
2, 4228, Note_on_c, 0, 67, 49
2, 4420, Note_on_c, 0, 68, 54
2, 4562, Note_on_c, 0, 68, 0
2, 4624, Note_on_c, 0, 72, 43
2, 4780, Note_on_c, 0, 72, 0
2, 4830, Note_on_c, 0, 79, 65
2, 4902, Note_on_c, 0, 79, 0
2, 5046, Note_on_c, 0, 84, 63
2, 5195, Note_on_c, 0, 84, 0
2, 5306, Note_on_c, 0, 91, 64
2, 5520, Note_on_c, 0, 91, 0
2, 5563, Note_on_c, 0, 55, 35
2, 6243, Note_on_c, 0, 68, 38
2, 6398, Note_on_c, 0, 68, 0
2, 6425, Note_on_c, 0, 67, 0
2, 6462, Note_on_c, 0, 72, 38
2, 6643, Note_on_c, 0, 72, 0
2, 6716, Note_on_c, 0, 79, 72
2, 6984, Note_on_c, 0, 72, 24
2, 6985, Note_on_c, 0, 71, 26
2, 7092, Note_on_c, 0, 72, 0
2, 7099, Note_on_c, 0, 79, 0
2, 7286, Note_on_c, 0, 68, 44
2, 7309, Note_on_c, 0, 65, 33
2, 7406, Control_c, 0, 64, 0
2, 7646, Note_on_c, 0, 71, 0
2, 7651, Control_c, 0, 64, 127
2, 7704, Note_on_c, 0, 68, 0
2, 7741, Note_on_c, 0, 67, 44
2, 7923, Note_on_c, 0, 67, 0
2, 8299, Note_on_c, 0, 65, 0
2, 8566, Note_on_c, 0, 55, 0
2, 8622, Note_on_c, 0, 82, 35
2, 8694, Note_on_c, 0, 82, 0
2, 8991, Note_on_c, 0, 71, 36
2, 9336, Note_on_c, 0, 31, 48
2, 9395, Note_on_c, 0, 31, 0
2, 9839, Note_on_c, 0, 71, 0
2, 9879, Note_on_c, 0, 75, 47
2, 10436, Note_on_c, 0, 68, 33
2, 10458, Note_on_c, 0, 65, 33
2, 10646, Note_on_c, 0, 65, 0
2, 10867, Note_on_c, 0, 68, 0
2, 10964, Note_on_c, 0, 75, 0
2, 11062, Note_on_c, 0, 67, 40
2, 11460, Note_on_c, 0, 65, 50
2, 11679, Note_on_c, 0, 67, 0
2, 11790, Note_on_c, 0, 63, 30
2, 11823, Note_on_c, 0, 48, 34
2, 11940, Note_on_c, 0, 65, 0
2, 11974, Control_c, 0, 64, 0
2, 12372, Control_c, 0, 64, 127
2, 12509, Note_on_c, 0, 55, 36
2, 12565, Note_on_c, 0, 63, 0
2, 13053, Note_on_c, 0, 75, 68
2, 13369, Note_on_c, 0, 75, 0
2, 13573, Note_on_c, 0, 75, 70
2, 13734, Note_on_c, 0, 48, 0
2, 13823, Note_on_c, 0, 55, 0
2, 13882, Note_on_c, 0, 75, 0
2, 14149, Note_on_c, 0, 46, 40
2, 14156, Control_c, 0, 64, 0
2, 14163, Note_on_c, 0, 75, 75
2, 14360, Control_c, 0, 64, 127
2, 14420, Note_on_c, 0, 46, 0
2, 14769, Note_on_c, 0, 65, 54
2, 14772, Note_on_c, 0, 61, 51
2, 14778, Note_on_c, 0, 60, 48
2, 15162, Note_on_c, 0, 60, 0
2, 15187, Note_on_c, 0, 65, 0
2, 15201, Note_on_c, 0, 61, 0
2, 15321, Note_on_c, 0, 75, 0
2, 15345, Note_on_c, 0, 61, 47
2, 15351, Note_on_c, 0, 74, 71
2, 15373, Note_on_c, 0, 65, 49
2, 15406, Note_on_c, 0, 60, 25
2, 15457, Note_on_c, 0, 60, 0
2, 15513, Note_on_c, 0, 65, 0
2, 15603, Note_on_c, 0, 61, 0
2, 15756, Note_on_c, 0, 74, 0
2, 15850, Note_on_c, 0, 61, 58
2, 15854, Note_on_c, 0, 75, 71
2, 15868, Note_on_c, 0, 65, 36
2, 15920, Note_on_c, 0, 65, 0
2, 15976, Note_on_c, 0, 61, 0
2, 16055, Note_on_c, 0, 75, 0
2, 16458, Note_on_c, 0, 45, 54
2, 16466, Control_c, 0, 64, 0
2, 16467, Note_on_c, 0, 79, 66
2, 16469, Note_on_c, 0, 67, 70
2, 16479, Note_on_c, 0, 33, 43
2, 16638, Note_on_c, 0, 33, 0
2, 16684, Control_c, 0, 64, 127
2, 16713, Note_on_c, 0, 45, 0
2, 17372, Note_on_c, 0, 67, 0
2, 18016, Note_on_c, 0, 79, 0
2, 19274, Note_on_c, 0, 67, 30
2, 19279, Note_on_c, 0, 62, 47
2, 19282, Note_on_c, 0, 63, 31
2, 19288, Note_on_c, 0, 57, 37
2, 19810, Note_on_c, 0, 99, 80
2, 19968, Note_on_c, 0, 99, 0
2, 20044, Note_on_c, 0, 103, 80
2, 20243, Note_on_c, 0, 99, 69
2, 20278, Note_on_c, 0, 103, 0
2, 20407, Note_on_c, 0, 96, 65
2, 20422, Note_on_c, 0, 99, 0
2, 20525, Note_on_c, 0, 96, 0
2, 20552, Note_on_c, 0, 93, 55
2, 20654, Note_on_c, 0, 93, 0
2, 20717, Note_on_c, 0, 92, 53
2, 20742, Note_on_c, 0, 67, 0
2, 20770, Note_on_c, 0, 62, 0
2, 20779, Note_on_c, 0, 63, 0
2, 20832, Note_on_c, 0, 92, 0
2, 20844, Note_on_c, 0, 91, 57
2, 20861, Note_on_c, 0, 57, 0
2, 20985, Note_on_c, 0, 91, 0
2, 21013, Note_on_c, 0, 90, 50
2, 21154, Note_on_c, 0, 90, 0
2, 21177, Note_on_c, 0, 89, 55
2, 21295, Note_on_c, 0, 89, 0
2, 21328, Note_on_c, 0, 88, 44
2, 21457, Note_on_c, 0, 88, 0
2, 21985, Note_on_c, 0, 87, 79
2, 22055, Note_on_c, 0, 50, 35
2, 22076, Note_on_c, 0, 60, 35
2, 22165, Note_on_c, 0, 87, 0
2, 22206, Note_on_c, 0, 90, 64
2, 22291, Control_c, 0, 64, 0
2, 22382, Note_on_c, 0, 87, 59
2, 22438, Note_on_c, 0, 90, 0
2, 22518, Note_on_c, 0, 87, 0
2, 22552, Note_on_c, 0, 84, 51
2, 22632, Note_on_c, 0, 84, 0
2, 22734, Note_on_c, 0, 82, 33
2, 22890, Note_on_c, 0, 82, 0
2, 22918, Note_on_c, 0, 81, 43
2, 23040, Note_on_c, 0, 81, 0
2, 23061, Note_on_c, 0, 80, 55
2, 23195, Note_on_c, 0, 80, 0
2, 23236, Note_on_c, 0, 79, 36
2, 23414, Note_on_c, 0, 79, 0
2, 23418, Note_on_c, 0, 78, 49
2, 23667, Note_on_c, 0, 78, 0
2, 23778, Note_on_c, 0, 81, 46
2, 23896, Note_on_c, 0, 81, 0
2, 24493, Note_on_c, 0, 75, 53
2, 24847, Note_on_c, 0, 75, 0
2, 25073, Note_on_c, 0, 75, 49
2, 25194, Note_on_c, 0, 74, 66
2, 25204, Note_on_c, 0, 75, 0
2, 25334, Note_on_c, 0, 74, 0
2, 25350, Note_on_c, 0, 72, 25
2, 25561, Note_on_c, 0, 72, 0
2, 25654, Note_on_c, 0, 70, 65
2, 25838, Note_on_c, 0, 70, 0
2, 25950, Note_on_c, 0, 69, 74
2, 26171, Note_on_c, 0, 69, 0
2, 26177, Control_c, 0, 64, 127
2, 26215, Note_on_c, 0, 72, 62
2, 26475, Note_on_c, 0, 72, 0
2, 26531, Note_on_c, 0, 71, 71
2, 26598, Note_on_c, 0, 60, 0
2, 26710, Note_on_c, 0, 50, 0
2, 26807, Note_on_c, 0, 71, 0
2, 26832, Note_on_c, 0, 69, 64
2, 27056, Note_on_c, 0, 69, 0
2, 27137, Note_on_c, 0, 70, 56
2, 27166, Note_on_c, 0, 43, 41
2, 27178, Control_c, 0, 64, 0
2, 27485, Control_c, 0, 64, 127
2, 27557, Note_on_c, 0, 43, 0
2, 27605, Note_on_c, 0, 55, 47
2, 27991, Note_on_c, 0, 55, 0
2, 28002, Note_on_c, 0, 58, 33
2, 28007, Note_on_c, 0, 62, 54
2, 28138, Note_on_c, 0, 62, 0
2, 28185, Note_on_c, 0, 70, 0
2, 28410, Note_on_c, 0, 70, 83
2, 28470, Note_on_c, 0, 62, 37
2, 28611, Note_on_c, 0, 70, 0
2, 28799, Note_on_c, 0, 67, 55
2, 28812, Note_on_c, 0, 70, 91
2, 28926, Note_on_c, 0, 67, 0
2, 29014, Note_on_c, 0, 62, 0
2, 29070, Note_on_c, 0, 58, 0
2, 29109, Note_on_c, 0, 70, 0
2, 29140, Note_on_c, 0, 69, 82
2, 29408, Note_on_c, 0, 69, 0
2, 29467, Note_on_c, 0, 70, 83
2, 29495, Note_on_c, 0, 52, 52
2, 29539, Control_c, 0, 64, 0
2, 29833, Control_c, 0, 64, 127
2, 29871, Note_on_c, 0, 58, 53
2, 30119, Note_on_c, 0, 70, 0
2, 30217, Note_on_c, 0, 69, 95
2, 30245, Note_on_c, 0, 62, 63
2, 30362, Note_on_c, 0, 52, 0
2, 30505, Note_on_c, 0, 69, 0
2, 30625, Note_on_c, 0, 70, 90
2, 30628, Note_on_c, 0, 52, 63
2, 30639, Note_on_c, 0, 62, 0
2, 30758, Note_on_c, 0, 58, 0
2, 30783, Note_on_c, 0, 52, 0
2, 30991, Note_on_c, 0, 70, 0
2, 31078, Control_c, 0, 64, 0
2, 31090, Note_on_c, 0, 45, 61
2, 31116, Note_on_c, 0, 72, 82
2, 31245, Note_on_c, 0, 45, 0
2, 31270, Control_c, 0, 64, 127
2, 31511, Note_on_c, 0, 72, 0
2, 31627, Note_on_c, 0, 72, 60
2, 31633, Note_on_c, 0, 69, 88
2, 31636, Note_on_c, 0, 61, 65
2, 31640, Note_on_c, 0, 65, 82
2, 31646, Note_on_c, 0, 55, 68
2, 32064, Note_on_c, 0, 65, 0
2, 32068, Note_on_c, 0, 55, 0
2, 32073, Note_on_c, 0, 72, 0
2, 32082, Note_on_c, 0, 69, 0
2, 32102, Note_on_c, 0, 61, 0
2, 32231, Note_on_c, 0, 69, 91
2, 32238, Note_on_c, 0, 65, 84
2, 32240, Note_on_c, 0, 61, 69
2, 32241, Note_on_c, 0, 72, 65
2, 32259, Note_on_c, 0, 55, 67
2, 32604, Note_on_c, 0, 55, 0
2, 32631, Note_on_c, 0, 72, 0
2, 32647, Note_on_c, 0, 65, 0
2, 32666, Note_on_c, 0, 61, 0
2, 32670, Note_on_c, 0, 69, 0
2, 32792, Note_on_c, 0, 61, 64
2, 32805, Note_on_c, 0, 69, 83
2, 32817, Note_on_c, 0, 65, 79
2, 32820, Note_on_c, 0, 72, 68
2, 32836, Note_on_c, 0, 55, 61
2, 33099, Note_on_c, 0, 55, 0
2, 33157, Note_on_c, 0, 69, 0
2, 33214, Note_on_c, 0, 61, 0
2, 33215, Note_on_c, 0, 65, 0
2, 33238, Note_on_c, 0, 72, 0
2, 33425, Note_on_c, 0, 68, 74
2, 33432, Note_on_c, 0, 64, 82
2, 33436, Note_on_c, 0, 72, 70
2, 33443, Note_on_c, 0, 54, 59
2, 33452, Control_c, 0, 64, 0
2, 33457, Note_on_c, 0, 60, 64
2, 33684, Control_c, 0, 64, 127
2, 33816, Note_on_c, 0, 60, 0
2, 33886, Note_on_c, 0, 54, 0
2, 34029, Note_on_c, 0, 72, 0
2, 34035, Note_on_c, 0, 64, 0
2, 34059, Note_on_c, 0, 68, 0
2, 34132, Note_on_c, 0, 72, 49
2, 34578, Note_on_c, 0, 72, 0
2, 34797, Note_on_c, 0, 26, 53
2, 34801, Note_on_c, 0, 72, 44
2, 34819, Note_on_c, 0, 64, 48
2, 34827, Note_on_c, 0, 68, 31
2, 34947, Note_on_c, 0, 26, 0
2, 36640, Note_on_c, 0, 64, 0
2, 36702, Note_on_c, 0, 72, 0
2, 36745, Note_on_c, 0, 68, 0
2, 37073, Note_on_c, 0, 70, 95
2, 37315, Note_on_c, 0, 70, 0
2, 37532, Note_on_c, 0, 70, 86
2, 37753, Note_on_c, 0, 70, 0
2, 37778, Note_on_c, 0, 69, 77
2, 38041, Note_on_c, 0, 69, 0
2, 38143, Note_on_c, 0, 70, 78
2, 38163, Note_on_c, 0, 43, 48
2, 38186, Control_c, 0, 64, 0
2, 38429, Control_c, 0, 64, 127
2, 39292, Note_on_c, 0, 43, 0
2, 39426, Note_on_c, 0, 50, 44
2, 39791, Note_on_c, 0, 58, 46
2, 39893, Note_on_c, 0, 50, 0
2, 39912, Note_on_c, 0, 70, 0
2, 39957, Note_on_c, 0, 60, 50
2, 40067, Note_on_c, 0, 60, 0
2, 40083, Note_on_c, 0, 65, 51
2, 40207, Note_on_c, 0, 65, 0
2, 40234, Note_on_c, 0, 70, 60
2, 40302, Note_on_c, 0, 70, 0
2, 40372, Note_on_c, 0, 72, 71
2, 40479, Note_on_c, 0, 72, 0
2, 40537, Note_on_c, 0, 77, 60
2, 40649, Note_on_c, 0, 82, 49
2, 40653, Note_on_c, 0, 77, 0
2, 40701, Note_on_c, 0, 82, 0
2, 40798, Note_on_c, 0, 84, 73
2, 40953, Note_on_c, 0, 89, 60
2, 40963, Note_on_c, 0, 84, 0
2, 41085, Note_on_c, 0, 94, 64
2, 41160, Note_on_c, 0, 89, 0
2, 41235, Note_on_c, 0, 94, 0
2, 41283, Note_on_c, 0, 96, 63
2, 41392, Note_on_c, 0, 96, 0
2, 41982, Note_on_c, 0, 50, 36
2, 42416, Note_on_c, 0, 70, 77
2, 42515, Note_on_c, 0, 58, 0
2, 42595, Note_on_c, 0, 70, 0
2, 42713, Note_on_c, 0, 50, 0
2, 42751, Note_on_c, 0, 70, 83
2, 42929, Note_on_c, 0, 70, 0
2, 42952, Note_on_c, 0, 69, 68
2, 43136, Note_on_c, 0, 69, 0
2, 43225, Note_on_c, 0, 70, 57
2, 43241, Control_c, 0, 64, 0
2, 43250, Note_on_c, 0, 42, 45
2, 43497, Control_c, 0, 64, 127
2, 43630, Note_on_c, 0, 54, 37
2, 43843, Note_on_c, 0, 70, 0
2, 43914, Note_on_c, 0, 60, 48
2, 44047, Note_on_c, 0, 60, 0
2, 44118, Note_on_c, 0, 61, 36
2, 44339, Note_on_c, 0, 61, 0
2, 44342, Note_on_c, 0, 63, 55
2, 44428, Note_on_c, 0, 63, 0
2, 44500, Note_on_c, 0, 64, 36
2, 44558, Note_on_c, 0, 64, 0
2, 44626, Note_on_c, 0, 66, 52
2, 44669, Note_on_c, 0, 66, 0
2, 44746, Note_on_c, 0, 67, 51
2, 44861, Note_on_c, 0, 69, 64
2, 44863, Note_on_c, 0, 67, 0
2, 44972, Note_on_c, 0, 69, 0
2, 44997, Note_on_c, 0, 70, 53
2, 45041, Note_on_c, 0, 70, 0
2, 45112, Note_on_c, 0, 72, 53
2, 45217, Note_on_c, 0, 72, 0
2, 45243, Note_on_c, 0, 73, 37
2, 45323, Note_on_c, 0, 73, 0
2, 45324, Note_on_c, 0, 42, 0
2, 45351, Note_on_c, 0, 75, 38
2, 45394, Note_on_c, 0, 75, 0
2, 45465, Note_on_c, 0, 76, 45
2, 45564, Note_on_c, 0, 76, 0
2, 45737, Note_on_c, 0, 79, 43
2, 45856, Note_on_c, 0, 79, 0
2, 45882, Note_on_c, 0, 81, 45
2, 46030, Note_on_c, 0, 81, 0
2, 46034, Note_on_c, 0, 82, 70
2, 46123, Note_on_c, 0, 82, 0
2, 46215, Note_on_c, 0, 42, 57
2, 46256, Note_on_c, 0, 70, 84
2, 46280, Control_c, 0, 64, 0
2, 46513, Control_c, 0, 64, 127
2, 46759, Note_on_c, 0, 70, 0
2, 46847, Note_on_c, 0, 70, 78
2, 47077, Note_on_c, 0, 54, 0
2, 47099, Note_on_c, 0, 69, 77
2, 47156, Note_on_c, 0, 70, 0
2, 47332, Note_on_c, 0, 42, 0
2, 47350, Note_on_c, 0, 69, 0
2, 47415, Note_on_c, 0, 70, 75
2, 47447, Control_c, 0, 64, 0
2, 47453, Note_on_c, 0, 41, 53
2, 47717, Control_c, 0, 64, 127
2, 47830, Note_on_c, 0, 41, 0
2, 47910, Note_on_c, 0, 53, 30
2, 47966, Note_on_c, 0, 53, 0
2, 48255, Note_on_c, 0, 60, 44
2, 48505, Note_on_c, 0, 70, 0
2, 48509, Note_on_c, 0, 63, 39
2, 48576, Note_on_c, 0, 65, 50
2, 48730, Note_on_c, 0, 65, 0
2, 48739, Note_on_c, 0, 67, 60
2, 48899, Note_on_c, 0, 68, 48
2, 48903, Note_on_c, 0, 67, 0
2, 49009, Note_on_c, 0, 70, 55
2, 49025, Note_on_c, 0, 68, 0
2, 49050, Note_on_c, 0, 70, 0
2, 49122, Note_on_c, 0, 72, 52
2, 49259, Note_on_c, 0, 63, 0
2, 49268, Note_on_c, 0, 72, 0
2, 49275, Note_on_c, 0, 74, 50
2, 49375, Note_on_c, 0, 75, 62
2, 49377, Note_on_c, 0, 74, 0
2, 49429, Note_on_c, 0, 75, 0
2, 49497, Note_on_c, 0, 77, 46
2, 49646, Note_on_c, 0, 79, 50
2, 49659, Note_on_c, 0, 77, 0
2, 49741, Note_on_c, 0, 80, 34
2, 49774, Note_on_c, 0, 79, 0
2, 49846, Note_on_c, 0, 82, 44
2, 49849, Note_on_c, 0, 80, 0
2, 49888, Note_on_c, 0, 82, 0
2, 49985, Note_on_c, 0, 60, 0
2, 50124, Note_on_c, 0, 86, 54
2, 50270, Note_on_c, 0, 87, 67
2, 50271, Note_on_c, 0, 86, 0
2, 50397, Note_on_c, 0, 87, 0
2, 50445, Note_on_c, 0, 89, 45
2, 50609, Note_on_c, 0, 89, 0
2, 50612, Note_on_c, 0, 87, 57
2, 50735, Note_on_c, 0, 87, 0
2, 50775, Note_on_c, 0, 84, 57
2, 50862, Note_on_c, 0, 84, 0
2, 50961, Note_on_c, 0, 82, 50
2, 51094, Note_on_c, 0, 82, 0
2, 51119, Note_on_c, 0, 80, 52
2, 51220, Note_on_c, 0, 80, 0
2, 51270, Note_on_c, 0, 77, 51
2, 51387, Note_on_c, 0, 77, 0
2, 51442, Note_on_c, 0, 75, 52
2, 51449, Note_on_c, 0, 67, 31
2, 51452, Note_on_c, 0, 63, 26
2, 51461, Note_on_c, 0, 56, 28
2, 51486, Note_on_c, 0, 60, 35
2, 51503, Control_c, 0, 64, 0
2, 51577, Note_on_c, 0, 75, 0
2, 51654, Note_on_c, 0, 72, 31
2, 51713, Note_on_c, 0, 72, 0
2, 51735, Control_c, 0, 64, 127
2, 51767, Note_on_c, 0, 67, 0
2, 51827, Note_on_c, 0, 70, 49
2, 51929, Note_on_c, 0, 70, 0
2, 51957, Note_on_c, 0, 68, 46
2, 51989, Note_on_c, 0, 60, 0
2, 52005, Note_on_c, 0, 63, 0
2, 52040, Note_on_c, 0, 68, 0
2, 52106, Note_on_c, 0, 65, 51
2, 52107, Note_on_c, 0, 56, 0
2, 52155, Note_on_c, 0, 65, 0
2, 52262, Note_on_c, 0, 63, 60
2, 52377, Note_on_c, 0, 63, 0
2, 52423, Note_on_c, 0, 60, 69
2, 52507, Note_on_c, 0, 60, 0
2, 52582, Note_on_c, 0, 58, 64
2, 52713, Note_on_c, 0, 56, 58
2, 52733, Note_on_c, 0, 58, 0
2, 52807, Note_on_c, 0, 56, 0
2, 52864, Note_on_c, 0, 53, 64
2, 52945, Note_on_c, 0, 53, 0
2, 53021, Note_on_c, 0, 51, 64
2, 53106, Note_on_c, 0, 51, 0
2, 53158, Note_on_c, 0, 48, 71
2, 53261, Note_on_c, 0, 48, 0
2, 53325, Note_on_c, 0, 46, 63
2, 53474, Note_on_c, 0, 44, 68
2, 53509, Note_on_c, 0, 46, 0
2, 53578, Note_on_c, 0, 44, 0
2, 53673, Note_on_c, 0, 41, 55
2, 53782, Note_on_c, 0, 41, 0
2, 53835, Note_on_c, 0, 39, 71
2, 54080, Note_on_c, 0, 38, 60
2, 54130, Note_on_c, 0, 39, 0
2, 54138, Note_on_c, 0, 38, 0
2, 54279, Note_on_c, 0, 35, 34
2, 54421, Note_on_c, 0, 34, 60
2, 54423, Note_on_c, 0, 35, 0
2, 54596, Note_on_c, 0, 34, 0
2, 54613, Note_on_c, 0, 35, 55
2, 54666, Note_on_c, 0, 35, 0
2, 54681, Note_on_c, 0, 22, 67
2, 54682, Note_on_c, 0, 34, 69
2, 54763, Control_c, 0, 64, 0
2, 55057, Control_c, 0, 64, 127
2, 55297, Note_on_c, 0, 22, 0
2, 55356, Note_on_c, 0, 34, 0
2, 56425, Note_on_c, 0, 56, 37
2, 56533, Control_c, 0, 64, 0
2, 56575, Note_on_c, 0, 58, 59
2, 56605, Note_on_c, 0, 56, 0
2, 56636, Note_on_c, 0, 59, 57
2, 56677, Note_on_c, 0, 58, 0
2, 56725, Control_c, 0, 64, 127
2, 56743, Note_on_c, 0, 62, 60
2, 56823, Note_on_c, 0, 59, 0
2, 56864, Note_on_c, 0, 64, 49
2, 56991, Note_on_c, 0, 62, 0
2, 56996, Note_on_c, 0, 67, 45
2, 57008, Note_on_c, 0, 64, 0
2, 57051, Note_on_c, 0, 67, 0
2, 57104, Note_on_c, 0, 68, 47
2, 57172, Note_on_c, 0, 70, 31
2, 57216, Note_on_c, 0, 68, 0
2, 57234, Note_on_c, 0, 70, 0
2, 57245, Note_on_c, 0, 71, 54
2, 57364, Note_on_c, 0, 74, 55
2, 57389, Note_on_c, 0, 71, 0
2, 57440, Note_on_c, 0, 76, 43
2, 57519, Note_on_c, 0, 74, 0
2, 57548, Note_on_c, 0, 79, 49
2, 57549, Note_on_c, 0, 76, 0
2, 57592, Note_on_c, 0, 79, 0
2, 57639, Note_on_c, 0, 80, 38
2, 57734, Note_on_c, 0, 80, 0
2, 57823, Note_on_c, 0, 83, 17
2, 57913, Note_on_c, 0, 86, 58
2, 57982, Note_on_c, 0, 83, 0
2, 58013, Note_on_c, 0, 88, 33
2, 58111, Note_on_c, 0, 86, 0
2, 58145, Note_on_c, 0, 91, 52
2, 58164, Note_on_c, 0, 88, 0
2, 58252, Note_on_c, 0, 91, 0
2, 58305, Note_on_c, 0, 92, 40
2, 58356, Note_on_c, 0, 94, 43
2, 58435, Note_on_c, 0, 92, 0
2, 58458, Note_on_c, 0, 95, 36
2, 58472, Note_on_c, 0, 94, 0
2, 58594, Note_on_c, 0, 95, 0
2, 58609, Note_on_c, 0, 98, 35
2, 58676, Note_on_c, 0, 100, 44
2, 58829, Note_on_c, 0, 98, 0
2, 58838, Note_on_c, 0, 100, 0
2, 58852, Note_on_c, 0, 103, 65
2, 59797, Note_on_c, 0, 103, 0
2, 59850, Note_on_c, 0, 97, 67
2, 60105, Note_on_c, 0, 98, 62
2, 60115, Note_on_c, 0, 97, 0
2, 60387, Note_on_c, 0, 98, 0
2, 60405, Note_on_c, 0, 46, 40
2, 60406, Note_on_c, 0, 97, 61
2, 60412, Note_on_c, 0, 34, 43
2, 60652, Note_on_c, 0, 97, 0
2, 60780, Note_on_c, 0, 95, 55
2, 61079, Note_on_c, 0, 95, 0
2, 61258, Note_on_c, 0, 94, 60
2, 61500, Note_on_c, 0, 95, 61
2, 61501, Note_on_c, 0, 94, 0
2, 61693, Note_on_c, 0, 94, 63
2, 61696, Note_on_c, 0, 95, 0
2, 61826, Note_on_c, 0, 94, 0
2, 61926, Note_on_c, 0, 92, 70
2, 62047, Note_on_c, 0, 92, 0
2, 62156, Note_on_c, 0, 91, 77
2, 62341, Note_on_c, 0, 92, 68
2, 62342, Note_on_c, 0, 91, 0
2, 62515, Note_on_c, 0, 91, 49
2, 62518, Note_on_c, 0, 92, 0
2, 62682, Note_on_c, 0, 89, 44
2, 62708, Note_on_c, 0, 91, 0
2, 62888, Note_on_c, 0, 89, 0
2, 62952, Note_on_c, 0, 88, 68
2, 63130, Note_on_c, 0, 88, 0
2, 63177, Note_on_c, 0, 89, 56
2, 63362, Note_on_c, 0, 89, 0
2, 63390, Note_on_c, 0, 88, 59
2, 63640, Note_on_c, 0, 86, 56
2, 63650, Note_on_c, 0, 88, 0
2, 63802, Note_on_c, 0, 86, 0
2, 63887, Note_on_c, 0, 85, 44
2, 64121, Note_on_c, 0, 85, 0
2, 64157, Note_on_c, 0, 86, 64
2, 64456, Note_on_c, 0, 85, 50
2, 64481, Note_on_c, 0, 86, 0
2, 64861, Note_on_c, 0, 83, 43
2, 65008, Note_on_c, 0, 85, 0
2, 65106, Note_on_c, 0, 83, 0
2, 65182, Note_on_c, 0, 46, 0
2, 65248, Note_on_c, 0, 34, 0
2, 65818, Note_on_c, 0, 53, 36
2, 65822, Note_on_c, 0, 65, 48
2, 65834, Note_on_c, 0, 60, 50
2, 65838, Note_on_c, 0, 37, 26
2, 65886, Control_c, 0, 64, 0
2, 65905, Note_on_c, 0, 25, 42
2, 66079, Control_c, 0, 64, 127
2, 66135, Note_on_c, 0, 65, 0
2, 66151, Note_on_c, 0, 53, 0
2, 66187, Note_on_c, 0, 60, 0
2, 66237, Note_on_c, 0, 25, 0
2, 66250, Note_on_c, 0, 37, 0
2, 66480, Note_on_c, 0, 26, 33
2, 66482, Note_on_c, 0, 54, 38
2, 66483, Note_on_c, 0, 38, 28
2, 66486, Note_on_c, 0, 66, 39
2, 66487, Note_on_c, 0, 61, 52
2, 66578, Control_c, 0, 64, 0
2, 66719, Control_c, 0, 64, 127
2, 66875, Note_on_c, 0, 26, 0
2, 66915, Note_on_c, 0, 38, 0
2, 66938, Note_on_c, 0, 54, 0
2, 66956, Note_on_c, 0, 61, 0
2, 67016, Note_on_c, 0, 66, 0
2, 67334, Control_c, 0, 64, 0
2, 67346, Note_on_c, 0, 67, 32
2, 67348, Note_on_c, 0, 27, 37
2, 67350, Note_on_c, 0, 62, 47
2, 67360, Note_on_c, 0, 39, 27
2, 67376, Note_on_c, 0, 55, 28
2, 67656, Control_c, 0, 64, 127
2, 67761, Note_on_c, 0, 55, 0
2, 67824, Note_on_c, 0, 62, 0
2, 67904, Note_on_c, 0, 67, 0
2, 67921, Note_on_c, 0, 27, 0
2, 67990, Note_on_c, 0, 39, 0
2, 68402, Note_on_c, 0, 87, 87
2, 68448, Note_on_c, 0, 75, 83
2, 68878, Note_on_c, 0, 75, 0
2, 68910, Note_on_c, 0, 87, 0
2, 69316, Note_on_c, 0, 87, 77
2, 69366, Note_on_c, 0, 60, 37
2, 69373, Note_on_c, 0, 75, 77
2, 69376, Note_on_c, 0, 65, 53
2, 69388, Note_on_c, 0, 61, 37
2, 69407, Note_on_c, 0, 55, 36
2, 70025, Note_on_c, 0, 75, 0
2, 70027, Note_on_c, 0, 87, 0
2, 70183, Note_on_c, 0, 87, 76
2, 70208, Note_on_c, 0, 75, 68
2, 70449, Note_on_c, 0, 60, 0
2, 70489, Note_on_c, 0, 55, 0
2, 70491, Note_on_c, 0, 65, 0
2, 70524, Note_on_c, 0, 61, 0
2, 70575, Note_on_c, 0, 75, 0
2, 70579, Note_on_c, 0, 87, 0
2, 70865, Note_on_c, 0, 87, 90
2, 70883, Note_on_c, 0, 60, 74
2, 70883, Note_on_c, 0, 56, 68
2, 70888, Note_on_c, 0, 65, 80
2, 70891, Note_on_c, 0, 75, 93
2, 70896, Note_on_c, 0, 61, 59
2, 70927, Control_c, 0, 64, 0
2, 71159, Control_c, 0, 64, 127
2, 71447, Note_on_c, 0, 87, 0
2, 71519, Note_on_c, 0, 75, 0
2, 71731, Note_on_c, 0, 82, 69
2, 71750, Note_on_c, 0, 70, 77
2, 71914, Note_on_c, 0, 60, 0
2, 72074, Note_on_c, 0, 65, 0
2, 72195, Note_on_c, 0, 61, 0
2, 72208, Note_on_c, 0, 70, 0
2, 72235, Note_on_c, 0, 56, 0
2, 72273, Note_on_c, 0, 82, 0
2, 72730, Note_on_c, 0, 82, 54
2, 72741, Note_on_c, 0, 70, 44
2, 72780, Note_on_c, 0, 61, 30
2, 72786, Note_on_c, 0, 55, 36
2, 72796, Note_on_c, 0, 64, 31
2, 72812, Control_c, 0, 64, 0
2, 73054, Control_c, 0, 64, 127
2, 73470, Note_on_c, 0, 70, 0
2, 73766, Note_on_c, 0, 82, 0
2, 74229, Note_on_c, 0, 64, 0
2, 74230, Note_on_c, 0, 61, 0
2, 74288, Note_on_c, 0, 55, 0
2, 76908, Note_on_c, 0, 68, 38
2, 76926, Note_on_c, 0, 91, 31
2, 76987, Note_on_c, 0, 92, 37
2, 77022, Note_on_c, 0, 69, 54
2, 77027, Note_on_c, 0, 68, 0
2, 77060, Note_on_c, 0, 93, 33
2, 77064, Note_on_c, 0, 91, 0
2, 77073, Note_on_c, 0, 69, 0
2, 77104, Note_on_c, 0, 70, 38
2, 77132, Note_on_c, 0, 93, 0
2, 77148, Note_on_c, 0, 94, 59
2, 77149, Note_on_c, 0, 92, 0
2, 77821, Note_on_c, 0, 90, 49
2, 77827, Note_on_c, 0, 94, 0
2, 77844, Note_on_c, 0, 66, 38
2, 77851, Note_on_c, 0, 70, 0
2, 77867, Control_c, 0, 64, 0
2, 78100, Control_c, 0, 64, 127
2, 78492, Note_on_c, 0, 90, 0
2, 78635, Note_on_c, 0, 66, 0
2, 79922, Note_on_c, 0, 90, 38
2, 79979, Note_on_c, 0, 60, 27
2, 80173, Note_on_c, 0, 60, 0
2, 80623, Note_on_c, 0, 66, 31
2, 80786, Note_on_c, 0, 90, 0
2, 81001, Note_on_c, 0, 70, 31
2, 81201, Note_on_c, 0, 70, 0
2, 81279, Note_on_c, 0, 72, 29
2, 81563, Note_on_c, 0, 76, 35
2, 81764, Note_on_c, 0, 76, 0
2, 81813, Note_on_c, 0, 78, 45
2, 82037, Note_on_c, 0, 78, 0
2, 82095, Note_on_c, 0, 84, 64
2, 82206, Note_on_c, 0, 72, 0
2, 82251, Note_on_c, 0, 66, 0
2, 82267, Note_on_c, 0, 84, 0
2, 82397, Note_on_c, 0, 82, 33
2, 82439, Note_on_c, 0, 70, 20
2, 82507, Note_on_c, 0, 70, 0
2, 82609, Note_on_c, 0, 82, 0
2, 82681, Note_on_c, 0, 76, 33
2, 82904, Note_on_c, 0, 76, 0
2, 82939, Note_on_c, 0, 80, 50
2, 83005, Note_on_c, 0, 60, 33
2, 83178, Note_on_c, 0, 80, 0
2, 83244, Note_on_c, 0, 72, 24
2, 83475, Note_on_c, 0, 72, 0
2, 83537, Note_on_c, 0, 78, 40
2, 83565, Note_on_c, 0, 66, 21
2, 83723, Note_on_c, 0, 78, 0
2, 83767, Note_on_c, 0, 66, 0
2, 83815, Note_on_c, 0, 70, 33
2, 83851, Note_on_c, 0, 60, 0
2, 84095, Note_on_c, 0, 70, 0
2, 84115, Note_on_c, 0, 76, 46
2, 84488, Note_on_c, 0, 64, 34
2, 85305, Note_on_c, 0, 64, 0
2, 85317, Note_on_c, 0, 76, 0
2, 85700, Note_on_c, 0, 60, 28
2, 85934, Note_on_c, 0, 64, 38
2, 86013, Note_on_c, 0, 60, 0
2, 86039, Note_on_c, 0, 64, 0
2, 86112, Note_on_c, 0, 66, 34
2, 86261, Note_on_c, 0, 68, 31
2, 86274, Note_on_c, 0, 66, 0
2, 86363, Note_on_c, 0, 68, 0
2, 86425, Note_on_c, 0, 70, 42
2, 86469, Note_on_c, 0, 70, 0
2, 86534, Note_on_c, 0, 72, 40
2, 86654, Note_on_c, 0, 72, 0
2, 86695, Note_on_c, 0, 74, 45
2, 86793, Note_on_c, 0, 74, 0
2, 86878, Note_on_c, 0, 76, 53
2, 86987, Note_on_c, 0, 76, 0
2, 87003, Note_on_c, 0, 78, 49
2, 87147, Note_on_c, 0, 80, 37
2, 87164, Note_on_c, 0, 78, 0
2, 87285, Note_on_c, 0, 82, 43
2, 87293, Note_on_c, 0, 80, 0
2, 87412, Control_c, 0, 64, 0
2, 87420, Note_on_c, 0, 70, 20
2, 87466, Note_on_c, 0, 60, 33
2, 87498, Note_on_c, 0, 78, 34
2, 87547, Note_on_c, 0, 82, 0
2, 87633, Control_c, 0, 64, 127
2, 87830, Note_on_c, 0, 70, 0
2, 88304, Note_on_c, 0, 70, 32
2, 88633, Note_on_c, 0, 76, 41
2, 88679, Note_on_c, 0, 78, 0
2, 88901, Note_on_c, 0, 84, 62
2, 89007, Note_on_c, 0, 76, 0
2, 89187, Note_on_c, 0, 82, 42
2, 89224, Note_on_c, 0, 84, 0
2, 89231, Note_on_c, 0, 70, 0
2, 89501, Note_on_c, 0, 82, 0
2, 89518, Note_on_c, 0, 70, 29
2, 89544, Note_on_c, 0, 76, 35
2, 89812, Note_on_c, 0, 60, 0
2, 89837, Note_on_c, 0, 76, 0
2, 89868, Note_on_c, 0, 80, 49
2, 90085, Note_on_c, 0, 70, 0
2, 90209, Note_on_c, 0, 60, 38
2, 90561, Note_on_c, 0, 80, 0
2, 90576, Note_on_c, 0, 74, 39
2, 90770, Note_on_c, 0, 74, 0
2, 90817, Note_on_c, 0, 78, 34
2, 90859, Note_on_c, 0, 60, 0
2, 91031, Note_on_c, 0, 72, 30
2, 91033, Note_on_c, 0, 78, 0
2, 91195, Note_on_c, 0, 72, 0
2, 91270, Note_on_c, 0, 76, 44
2, 91543, Note_on_c, 0, 68, 18
2, 91656, Note_on_c, 0, 60, 25
2, 92530, Note_on_c, 0, 68, 0
2, 93064, Note_on_c, 0, 76, 0
2, 93285, Note_on_c, 0, 75, 70
2, 93310, Note_on_c, 0, 60, 0
2, 93569, Note_on_c, 0, 75, 0
2, 93593, Note_on_c, 0, 76, 60
2, 93796, Note_on_c, 0, 77, 62
2, 93810, Note_on_c, 0, 76, 0
2, 93963, Note_on_c, 0, 77, 0
2, 94010, Note_on_c, 0, 78, 75
2, 94066, Note_on_c, 0, 48, 46
2, 94087, Control_c, 0, 64, 0
2, 94330, Control_c, 0, 64, 127
2, 94427, Note_on_c, 0, 48, 0
2, 95807, Note_on_c, 0, 58, 30
2, 96238, Note_on_c, 0, 58, 0
2, 96279, Note_on_c, 0, 63, 39
2, 96582, Note_on_c, 0, 69, 60
2, 96775, Note_on_c, 0, 78, 0
2, 96776, Note_on_c, 0, 69, 0
2, 96814, Note_on_c, 0, 72, 48
2, 97023, Note_on_c, 0, 75, 73
2, 97054, Note_on_c, 0, 72, 0
2, 97172, Note_on_c, 0, 63, 0
2, 97193, Note_on_c, 0, 75, 0
2, 97257, Note_on_c, 0, 78, 56
2, 97361, Note_on_c, 0, 78, 0
2, 97547, Note_on_c, 0, 82, 71
2, 97823, Note_on_c, 0, 82, 0
2, 97868, Note_on_c, 0, 87, 47
2, 98004, Note_on_c, 0, 82, 3
2, 98218, Note_on_c, 0, 82, 0
2, 98223, Note_on_c, 0, 90, 59
2, 98273, Note_on_c, 0, 87, 0
2, 98531, Note_on_c, 0, 90, 0
2, 98605, Note_on_c, 0, 82, 62
2, 98854, Note_on_c, 0, 82, 0
2, 99014, Note_on_c, 0, 82, 49
2, 99361, Note_on_c, 0, 82, 0
2, 99444, Note_on_c, 0, 63, 29
2, 99446, Note_on_c, 0, 81, 46
2, 99453, Note_on_c, 0, 53, 36
2, 99511, Control_c, 0, 64, 0
2, 99514, Note_on_c, 0, 58, 23
2, 99860, Control_c, 0, 64, 127
2, 100069, Note_on_c, 0, 89, 58
2, 100096, Note_on_c, 0, 60, 34
2, 100098, Note_on_c, 0, 63, 0
2, 100209, Note_on_c, 0, 89, 0
2, 100210, Note_on_c, 0, 81, 0
2, 100817, Note_on_c, 0, 86, 43
2, 100829, Note_on_c, 0, 74, 32
2, 100843, Note_on_c, 0, 63, 28
2, 100964, Note_on_c, 0, 58, 0
2, 101517, Note_on_c, 0, 60, 0
2, 101807, Note_on_c, 0, 60, 34
2, 102144, Note_on_c, 0, 63, 0
2, 102362, Note_on_c, 0, 74, 0
2, 102405, Note_on_c, 0, 86, 0
2, 102714, Note_on_c, 0, 63, 42
2, 102718, Note_on_c, 0, 75, 90
2, 102721, Note_on_c, 0, 87, 86
2, 102975, Note_on_c, 0, 53, 0
2, 103742, Note_on_c, 0, 53, 49
2, 104124, Note_on_c, 0, 87, 0
2, 104185, Note_on_c, 0, 75, 0
2, 104307, Note_on_c, 0, 86, 61
2, 104338, Note_on_c, 0, 74, 76
2, 104444, Note_on_c, 0, 63, 0
2, 104496, Note_on_c, 0, 86, 0
2, 104529, Note_on_c, 0, 74, 0
2, 104785, Note_on_c, 0, 75, 67
2, 104790, Note_on_c, 0, 87, 78
2, 104827, Note_on_c, 0, 60, 0
2, 104903, Note_on_c, 0, 53, 0
2, 104984, Note_on_c, 0, 87, 0
2, 105056, Note_on_c, 0, 75, 0
2, 105907, Note_on_c, 0, 66, 83
2, 105909, Note_on_c, 0, 62, 99
2, 105912, Note_on_c, 0, 46, 76
2, 105916, Note_on_c, 0, 57, 94
2, 105993, Control_c, 0, 64, 0
2, 106340, Control_c, 0, 64, 127
2, 106630, Note_on_c, 0, 66, 0
2, 106650, Note_on_c, 0, 57, 0
2, 106655, Note_on_c, 0, 62, 0
2, 106702, Note_on_c, 0, 65, 75
2, 107135, Note_on_c, 0, 65, 0
2, 107214, Note_on_c, 0, 46, 0
2, 107316, Note_on_c, 0, 65, 81
2, 107321, Note_on_c, 0, 61, 79
2, 107324, Note_on_c, 0, 56, 80
2, 107338, Note_on_c, 0, 45, 84
2, 107351, Control_c, 0, 64, 0
2, 107609, Control_c, 0, 64, 127
2, 107866, Note_on_c, 0, 65, 0
2, 107945, Note_on_c, 0, 56, 0
2, 107976, Note_on_c, 0, 61, 0
2, 108007, Note_on_c, 0, 65, 67
2, 108400, Note_on_c, 0, 65, 0
2, 108721, Note_on_c, 0, 65, 56
2, 108730, Note_on_c, 0, 55, 51
2, 108732, Note_on_c, 0, 60, 60
2, 108746, Control_c, 0, 64, 0
2, 108768, Note_on_c, 0, 44, 43
2, 108784, Note_on_c, 0, 45, 0
2, 109029, Control_c, 0, 64, 127
2, 109412, Note_on_c, 0, 65, 0
2, 109607, Note_on_c, 0, 65, 60
2, 109680, Note_on_c, 0, 44, 0
2, 110101, Note_on_c, 0, 55, 0
2, 110130, Note_on_c, 0, 60, 0
2, 110228, Note_on_c, 0, 65, 0
2, 110743, Note_on_c, 0, 65, 37
2, 110754, Note_on_c, 0, 59, 44
2, 110763, Control_c, 0, 64, 0
2, 110766, Note_on_c, 0, 53, 26
2, 110767, Note_on_c, 0, 43, 27
2, 110771, Note_on_c, 0, 31, 31
2, 111019, Control_c, 0, 64, 127
2, 111482, Note_on_c, 0, 31, 0
2, 111739, Note_on_c, 0, 43, 0
2, 112111, Note_on_c, 0, 42, 72
2, 112118, Note_on_c, 0, 43, 74
2, 112189, Note_on_c, 0, 42, 0
2, 112278, Control_c, 0, 64, 0
2, 112388, Note_on_c, 0, 43, 0
2, 112721, Note_on_c, 0, 46, 49
2, 112835, Note_on_c, 0, 46, 0
2, 113320, Note_on_c, 0, 48, 45
2, 113489, Note_on_c, 0, 48, 0
2, 113637, Control_c, 0, 64, 127
2, 114032, Note_on_c, 0, 43, 43
2, 114039, Note_on_c, 0, 42, 47
2, 114091, Note_on_c, 0, 43, 0
2, 114162, Control_c, 0, 64, 0
2, 114764, Note_on_c, 0, 41, 40
2, 114801, Note_on_c, 0, 42, 0
2, 115331, Control_c, 0, 64, 127
2, 115473, Control_c, 0, 64, 0
2, 115477, Note_on_c, 0, 41, 0
2, 115484, Note_on_c, 0, 39, 35
2, 115498, Control_c, 0, 64, 127
2, 116488, Note_on_c, 0, 39, 0
2, 116496, Note_on_c, 0, 38, 39
2, 116576, Control_c, 0, 64, 0
2, 116653, Control_c, 0, 64, 127
2, 116933, Control_c, 0, 64, 0
2, 116966, Note_on_c, 0, 38, 0
2, 116978, Note_on_c, 0, 35, 43
2, 117035, Control_c, 0, 64, 127
2, 118044, Note_on_c, 0, 35, 0
2, 118068, Note_on_c, 0, 36, 38
2, 118339, Note_on_c, 0, 36, 0
2, 118511, Note_on_c, 0, 38, 32
2, 118737, Note_on_c, 0, 38, 0
2, 119230, Note_on_c, 0, 24, 36
2, 119244, Control_c, 0, 64, 0
2, 119244, Note_on_c, 0, 36, 38
2, 119254, Note_on_c, 0, 59, 0
2, 119268, Note_on_c, 0, 53, 0
2, 119539, Control_c, 0, 64, 127
2, 119797, Note_on_c, 0, 24, 0
2, 119869, Note_on_c, 0, 65, 0
2, 119880, Note_on_c, 0, 36, 0
2, 120855, Note_on_c, 0, 55, 34
2, 121184, Note_on_c, 0, 67, 51
2, 121331, Note_on_c, 0, 67, 0
2, 121500, Note_on_c, 0, 72, 59
2, 121596, Note_on_c, 0, 55, 0
2, 121700, Note_on_c, 0, 72, 0
2, 121840, Note_on_c, 0, 75, 85
2, 122019, Note_on_c, 0, 75, 0
2, 122226, Note_on_c, 0, 75, 93
2, 122434, Note_on_c, 0, 75, 0
2, 122605, Note_on_c, 0, 75, 87
2, 122930, Note_on_c, 0, 75, 0
2, 123032, Note_on_c, 0, 65, 46
2, 123039, Note_on_c, 0, 75, 70
2, 123040, Note_on_c, 0, 55, 37
2, 123044, Note_on_c, 0, 60, 41
2, 123052, Note_on_c, 0, 61, 27
2, 123143, Control_c, 0, 64, 0
2, 123401, Control_c, 0, 64, 127
2, 123600, Note_on_c, 0, 75, 0
2, 123672, Note_on_c, 0, 75, 76
2, 124063, Note_on_c, 0, 74, 79
2, 124131, Note_on_c, 0, 75, 0
2, 124328, Note_on_c, 0, 74, 0
2, 124413, Note_on_c, 0, 75, 79
2, 124428, Note_on_c, 0, 65, 0
2, 124690, Note_on_c, 0, 60, 0
2, 124756, Note_on_c, 0, 75, 0
2, 124836, Note_on_c, 0, 79, 61
2, 124845, Note_on_c, 0, 68, 55
2, 124851, Note_on_c, 0, 72, 42
2, 124879, Note_on_c, 0, 67, 44
2, 124901, Control_c, 0, 64, 0
2, 124975, Note_on_c, 0, 61, 0
2, 125119, Note_on_c, 0, 55, 0
2, 125223, Control_c, 0, 64, 127
2, 125229, Note_on_c, 0, 79, 0
2, 125362, Note_on_c, 0, 79, 51
2, 125424, Note_on_c, 0, 55, 37
2, 125645, Note_on_c, 0, 79, 0
2, 125841, Note_on_c, 0, 79, 61
2, 126044, Note_on_c, 0, 79, 0
2, 126065, Note_on_c, 0, 67, 0
2, 126199, Note_on_c, 0, 68, 0
2, 126242, Note_on_c, 0, 79, 59
2, 126247, Note_on_c, 0, 72, 0
2, 126514, Note_on_c, 0, 79, 0
2, 126636, Note_on_c, 0, 79, 56
2, 126669, Note_on_c, 0, 73, 38
2, 126675, Note_on_c, 0, 65, 35
2, 126684, Note_on_c, 0, 71, 48
2, 126699, Control_c, 0, 64, 0
2, 126925, Note_on_c, 0, 55, 0
2, 126980, Control_c, 0, 64, 127
2, 127044, Note_on_c, 0, 79, 0
2, 127172, Note_on_c, 0, 55, 45
2, 127597, Note_on_c, 0, 79, 66
2, 127861, Note_on_c, 0, 79, 0
2, 128030, Note_on_c, 0, 65, 0
2, 128047, Note_on_c, 0, 79, 61
2, 128134, Note_on_c, 0, 55, 0
2, 128219, Note_on_c, 0, 79, 0
2, 128363, Note_on_c, 0, 73, 0
2, 128408, Note_on_c, 0, 71, 0
2, 128438, Note_on_c, 0, 48, 43
2, 128449, Note_on_c, 0, 75, 53
2, 128507, Control_c, 0, 64, 0
2, 128764, Control_c, 0, 64, 127
2, 128788, Note_on_c, 0, 48, 0
2, 128807, Note_on_c, 0, 60, 49
2, 129096, Note_on_c, 0, 60, 0
2, 129134, Note_on_c, 0, 67, 68
2, 129233, Note_on_c, 0, 75, 0
2, 129398, Note_on_c, 0, 67, 0
2, 129424, Note_on_c, 0, 75, 74
2, 129610, Note_on_c, 0, 75, 0
2, 129740, Note_on_c, 0, 46, 42
2, 129748, Note_on_c, 0, 75, 69
2, 129777, Control_c, 0, 64, 0
2, 130060, Control_c, 0, 64, 127
2, 130061, Note_on_c, 0, 56, 38
2, 130309, Note_on_c, 0, 75, 0
2, 130378, Note_on_c, 0, 61, 47
2, 130580, Note_on_c, 0, 61, 0
2, 130700, Note_on_c, 0, 74, 62
2, 130862, Note_on_c, 0, 74, 0
2, 131028, Note_on_c, 0, 75, 55
2, 131105, Note_on_c, 0, 56, 0
2, 131247, Note_on_c, 0, 75, 0
2, 131311, Note_on_c, 0, 46, 0
2, 131380, Control_c, 0, 64, 0
2, 131381, Note_on_c, 0, 79, 62
2, 131393, Note_on_c, 0, 45, 52
2, 131522, Note_on_c, 0, 45, 0
2, 131574, Control_c, 0, 64, 127
2, 131897, Note_on_c, 0, 65, 46
2, 131905, Note_on_c, 0, 60, 34
2, 131945, Note_on_c, 0, 61, 35
2, 131951, Note_on_c, 0, 55, 19
2, 132186, Note_on_c, 0, 79, 0
2, 132557, Note_on_c, 0, 67, 24
2, 132663, Note_on_c, 0, 67, 0
2, 132676, Note_on_c, 0, 69, 47
2, 132780, Note_on_c, 0, 65, 0
2, 132832, Note_on_c, 0, 70, 67
2, 132833, Note_on_c, 0, 69, 0
2, 132846, Note_on_c, 0, 60, 0
2, 132847, Note_on_c, 0, 61, 0
2, 132910, Note_on_c, 0, 55, 0
2, 132919, Note_on_c, 0, 70, 0
2, 132979, Note_on_c, 0, 72, 49
2, 133095, Note_on_c, 0, 72, 0
2, 133099, Note_on_c, 0, 74, 48
2, 133205, Note_on_c, 0, 74, 0
2, 133208, Note_on_c, 0, 75, 55
2, 133297, Note_on_c, 0, 75, 0
2, 133354, Note_on_c, 0, 77, 48
2, 133507, Note_on_c, 0, 79, 44
2, 133521, Note_on_c, 0, 77, 0
2, 133628, Note_on_c, 0, 79, 0
2, 133665, Control_c, 0, 64, 0
2, 133675, Note_on_c, 0, 82, 56
2, 133777, Note_on_c, 0, 54, 25
2, 133785, Note_on_c, 0, 82, 0
2, 133788, Note_on_c, 0, 50, 26
2, 133813, Note_on_c, 0, 60, 24
2, 133919, Note_on_c, 0, 84, 32
2, 133961, Note_on_c, 0, 84, 0
2, 134113, Note_on_c, 0, 86, 69
2, 134158, Note_on_c, 0, 86, 0
2, 134343, Note_on_c, 0, 89, 67
2, 134447, Note_on_c, 0, 89, 0
2, 134491, Note_on_c, 0, 50, 0
2, 134550, Note_on_c, 0, 54, 0
2, 134570, Note_on_c, 0, 91, 64
2, 134616, Control_c, 0, 64, 127
2, 134617, Note_on_c, 0, 60, 0
2, 134645, Note_on_c, 0, 91, 0
2, 134786, Note_on_c, 0, 94, 67
2, 134874, Note_on_c, 0, 94, 0
2, 135020, Note_on_c, 0, 96, 67
2, 135144, Note_on_c, 0, 96, 0
2, 135267, Note_on_c, 0, 98, 69
2, 135280, Note_on_c, 0, 54, 33
2, 135308, Note_on_c, 0, 60, 36
2, 135318, Note_on_c, 0, 65, 24
2, 135370, Note_on_c, 0, 98, 0
2, 135547, Note_on_c, 0, 101, 68
2, 135675, Note_on_c, 0, 101, 0
2, 135889, Note_on_c, 0, 103, 79
2, 136167, Note_on_c, 0, 103, 0
2, 136192, Note_on_c, 0, 108, 73
2, 136489, Note_on_c, 0, 108, 0
2, 136591, Note_on_c, 0, 105, 80
2, 136858, Note_on_c, 0, 105, 0
2, 136935, Note_on_c, 0, 107, 89
2, 137367, Note_on_c, 0, 103, 74
2, 137409, Note_on_c, 0, 107, 0
2, 137707, Note_on_c, 0, 103, 0
2, 137743, Note_on_c, 0, 106, 77
2, 137855, Note_on_c, 0, 60, 0
2, 137859, Note_on_c, 0, 54, 0
2, 138111, Note_on_c, 0, 102, 73
2, 138136, Note_on_c, 0, 65, 0
2, 138151, Note_on_c, 0, 106, 0
2, 138160, Note_on_c, 0, 55, 62
2, 138246, Control_c, 0, 64, 0
2, 138479, Note_on_c, 0, 105, 82
2, 138489, Note_on_c, 0, 102, 0
2, 138552, Control_c, 0, 64, 127
2, 138791, Note_on_c, 0, 103, 73
2, 138827, Note_on_c, 0, 62, 49
2, 138907, Note_on_c, 0, 105, 0
2, 139142, Note_on_c, 0, 103, 0
2, 139145, Note_on_c, 0, 98, 73
2, 139303, Note_on_c, 0, 98, 0
2, 139475, Note_on_c, 0, 94, 72
2, 139487, Note_on_c, 0, 67, 46
2, 139763, Note_on_c, 0, 94, 0
2, 139821, Note_on_c, 0, 93, 73
2, 139967, Note_on_c, 0, 67, 0
2, 140029, Note_on_c, 0, 93, 0
2, 140046, Note_on_c, 0, 62, 0
2, 140090, Note_on_c, 0, 94, 76
2, 140143, Note_on_c, 0, 55, 0
2, 140284, Note_on_c, 0, 94, 0
2, 140331, Note_on_c, 0, 96, 76
2, 140533, Note_on_c, 0, 96, 0
2, 140555, Note_on_c, 0, 57, 43
2, 140576, Note_on_c, 0, 62, 50
2, 140576, Note_on_c, 0, 94, 68
2, 140596, Note_on_c, 0, 58, 44
2, 140599, Note_on_c, 0, 52, 37
2, 140683, Control_c, 0, 64, 0
2, 141002, Control_c, 0, 64, 127
2, 141089, Note_on_c, 0, 58, 0
2, 141229, Note_on_c, 0, 58, 64
2, 141252, Note_on_c, 0, 57, 0
2, 141326, Note_on_c, 0, 62, 0
2, 141548, Note_on_c, 0, 94, 0
2, 141648, Note_on_c, 0, 93, 99
2, 141663, Note_on_c, 0, 62, 61
2, 141925, Note_on_c, 0, 93, 0
2, 141961, Note_on_c, 0, 52, 0
2, 142035, Note_on_c, 0, 94, 84
2, 142056, Note_on_c, 0, 58, 0
2, 142111, Note_on_c, 0, 62, 0
2, 142313, Note_on_c, 0, 94, 0
2, 142443, Note_on_c, 0, 96, 91
2, 142477, Note_on_c, 0, 55, 62
2, 142479, Control_c, 0, 64, 0
2, 142709, Control_c, 0, 64, 127
2, 142926, Note_on_c, 0, 61, 55
2, 143219, Note_on_c, 0, 96, 0
2, 143228, Note_on_c, 0, 66, 45
2, 143231, Note_on_c, 0, 94, 62
2, 143425, Note_on_c, 0, 85, 67
2, 143473, Note_on_c, 0, 94, 0
2, 143571, Note_on_c, 0, 85, 0
2, 143654, Note_on_c, 0, 84, 68
2, 143789, Note_on_c, 0, 84, 0
2, 143872, Note_on_c, 0, 82, 68
2, 143896, Note_on_c, 0, 66, 0
2, 144056, Note_on_c, 0, 82, 0
2, 144133, Note_on_c, 0, 84, 74
2, 144243, Note_on_c, 0, 82, 39
2, 144279, Note_on_c, 0, 84, 0
2, 144287, Note_on_c, 0, 65, 25
2, 144398, Note_on_c, 0, 81, 46
2, 144469, Note_on_c, 0, 82, 0
2, 144615, Note_on_c, 0, 81, 0
2, 144656, Note_on_c, 0, 80, 64
2, 144674, Control_c, 0, 64, 0
2, 144868, Note_on_c, 0, 80, 0
2, 144882, Note_on_c, 0, 79, 62
2, 144923, Note_on_c, 0, 65, 0
2, 144981, Control_c, 0, 64, 127
2, 145043, Note_on_c, 0, 79, 0
2, 145071, Note_on_c, 0, 55, 0
2, 145120, Note_on_c, 0, 78, 44
2, 145355, Note_on_c, 0, 78, 0
2, 145357, Note_on_c, 0, 61, 0
2, 145392, Note_on_c, 0, 54, 50
2, 145404, Note_on_c, 0, 77, 44
2, 145429, Control_c, 0, 64, 0
2, 145430, Note_on_c, 0, 60, 35
2, 145431, Note_on_c, 0, 64, 33
2, 145686, Control_c, 0, 64, 127
2, 146004, Note_on_c, 0, 75, 62
2, 146091, Note_on_c, 0, 77, 0
2, 146511, Note_on_c, 0, 75, 0
2, 146580, Note_on_c, 0, 74, 60
2, 147488, Note_on_c, 0, 72, 59
2, 147491, Note_on_c, 0, 74, 0
2, 147817, Note_on_c, 0, 72, 0
2, 147880, Note_on_c, 0, 70, 76
2, 148086, Note_on_c, 0, 64, 0
2, 148136, Note_on_c, 0, 70, 0
2, 148193, Note_on_c, 0, 69, 77
2, 148210, Note_on_c, 0, 60, 0
2, 148312, Note_on_c, 0, 54, 0
2, 148418, Note_on_c, 0, 69, 0
2, 148480, Note_on_c, 0, 72, 74
2, 148723, Note_on_c, 0, 72, 0
2, 148761, Note_on_c, 0, 69, 78
2, 148958, Note_on_c, 0, 69, 0
2, 149028, Note_on_c, 0, 70, 62
2, 149049, Note_on_c, 0, 43, 45
2, 149087, Control_c, 0, 64, 0
2, 149329, Control_c, 0, 64, 127
2, 149334, Note_on_c, 0, 43, 0
2, 149378, Note_on_c, 0, 55, 36
2, 149531, Note_on_c, 0, 70, 0
2, 149535, Note_on_c, 0, 60, 53
2, 149545, Note_on_c, 0, 55, 0
2, 149646, Note_on_c, 0, 60, 0
2, 149681, Note_on_c, 0, 65, 49
2, 149688, Note_on_c, 0, 58, 34
2, 149749, Note_on_c, 0, 65, 0
2, 149780, Note_on_c, 0, 70, 56
2, 149852, Note_on_c, 0, 70, 0
2, 149938, Note_on_c, 0, 72, 65
2, 150055, Note_on_c, 0, 62, 33
2, 150065, Note_on_c, 0, 72, 0
2, 150092, Note_on_c, 0, 77, 52
2, 150136, Note_on_c, 0, 62, 0
2, 150187, Note_on_c, 0, 82, 43
2, 150194, Note_on_c, 0, 77, 0
2, 150231, Note_on_c, 0, 82, 0
2, 150301, Note_on_c, 0, 58, 0
2, 150333, Note_on_c, 0, 84, 72
2, 150460, Note_on_c, 0, 84, 0
2, 150473, Note_on_c, 0, 89, 43
2, 150564, Note_on_c, 0, 94, 49
2, 150599, Note_on_c, 0, 89, 0
2, 150728, Note_on_c, 0, 94, 0
2, 150767, Note_on_c, 0, 96, 77
2, 150923, Note_on_c, 0, 96, 0
2, 150941, Note_on_c, 0, 42, 37
2, 150953, Note_on_c, 0, 30, 36
2, 150979, Note_on_c, 0, 94, 77
2, 150996, Control_c, 0, 64, 0
2, 151031, Note_on_c, 0, 95, 31
2, 151073, Note_on_c, 0, 95, 0
2, 151108, Note_on_c, 0, 30, 0
2, 151160, Note_on_c, 0, 42, 0
2, 151203, Control_c, 0, 64, 127
2, 151384, Note_on_c, 0, 94, 0
2, 151410, Note_on_c, 0, 93, 72
2, 151650, Note_on_c, 0, 93, 0
2, 151714, Note_on_c, 0, 91, 66
2, 151756, Note_on_c, 0, 58, 43
2, 151770, Note_on_c, 0, 52, 40
2, 151875, Note_on_c, 0, 91, 0
2, 151917, Note_on_c, 0, 90, 60
2, 152041, Note_on_c, 0, 90, 0
2, 152080, Note_on_c, 0, 88, 54
2, 152130, Note_on_c, 0, 88, 0
2, 152241, Note_on_c, 0, 87, 50
2, 152255, Control_c, 0, 64, 0
2, 152328, Note_on_c, 0, 85, 52
2, 152358, Note_on_c, 0, 87, 0
2, 152435, Note_on_c, 0, 85, 0
2, 152482, Note_on_c, 0, 84, 49
2, 152538, Note_on_c, 0, 84, 0
2, 152649, Note_on_c, 0, 82, 44
2, 152757, Note_on_c, 0, 81, 55
2, 152806, Note_on_c, 0, 82, 0
2, 152886, Note_on_c, 0, 81, 0
2, 152925, Note_on_c, 0, 79, 50
2, 152983, Note_on_c, 0, 79, 0
2, 153217, Note_on_c, 0, 78, 51
2, 153288, Note_on_c, 0, 63, 21
2, 153334, Note_on_c, 0, 78, 0
2, 153438, Note_on_c, 0, 76, 30
2, 153522, Note_on_c, 0, 76, 0
2, 153618, Note_on_c, 0, 75, 52
2, 153751, Note_on_c, 0, 52, 0
2, 153763, Note_on_c, 0, 75, 0
2, 153791, Note_on_c, 0, 58, 0
2, 153793, Note_on_c, 0, 72, 32
2, 153897, Note_on_c, 0, 72, 0
2, 154029, Note_on_c, 0, 71, 62
2, 154039, Control_c, 0, 64, 127
2, 154046, Note_on_c, 0, 63, 0
2, 154144, Note_on_c, 0, 71, 0
2, 154319, Control_c, 0, 64, 0
2, 154327, Note_on_c, 0, 70, 71
2, 154337, Note_on_c, 0, 63, 42
2, 154359, Note_on_c, 0, 60, 40
2, 154399, Note_on_c, 0, 56, 26
2, 154414, Note_on_c, 0, 53, 24
2, 154609, Note_on_c, 0, 68, 56
2, 154705, Control_c, 0, 64, 127
2, 154756, Note_on_c, 0, 70, 0
2, 154824, Note_on_c, 0, 68, 0
2, 154869, Note_on_c, 0, 65, 53
2, 155014, Note_on_c, 0, 63, 0
2, 155065, Note_on_c, 0, 65, 0
2, 155157, Note_on_c, 0, 75, 78
2, 155375, Note_on_c, 0, 75, 0
2, 155510, Note_on_c, 0, 70, 77
2, 155536, Note_on_c, 0, 63, 37
2, 155572, Note_on_c, 0, 75, 44
2, 155764, Note_on_c, 0, 75, 0
2, 155765, Note_on_c, 0, 63, 0
2, 155801, Note_on_c, 0, 70, 0
2, 155877, Note_on_c, 0, 68, 75
2, 155888, Note_on_c, 0, 75, 59
2, 155982, Note_on_c, 0, 60, 0
2, 156127, Note_on_c, 0, 56, 0
2, 156134, Note_on_c, 0, 53, 0
2, 156154, Note_on_c, 0, 75, 0
2, 156167, Note_on_c, 0, 68, 0
2, 156221, Note_on_c, 0, 65, 70
2, 156394, Note_on_c, 0, 65, 0
2, 156478, Note_on_c, 0, 63, 60
2, 156675, Note_on_c, 0, 63, 0
2, 156733, Note_on_c, 0, 60, 58
2, 156909, Note_on_c, 0, 60, 0
2, 157038, Note_on_c, 0, 58, 71
2, 157200, Note_on_c, 0, 58, 0
2, 157369, Note_on_c, 0, 56, 68
2, 157729, Note_on_c, 0, 53, 62
2, 157960, Note_on_c, 0, 53, 0
2, 158032, Note_on_c, 0, 56, 0
2, 158290, Note_on_c, 0, 22, 55
2, 158293, Note_on_c, 0, 34, 51
2, 158309, Control_c, 0, 64, 0
2, 158553, Control_c, 0, 64, 127
2, 158686, Note_on_c, 0, 22, 0
2, 158749, Note_on_c, 0, 34, 0
2, 159163, Note_on_c, 0, 56, 42
2, 159399, Note_on_c, 0, 56, 0
2, 159406, Note_on_c, 0, 58, 49
2, 159465, Note_on_c, 0, 58, 0
2, 159526, Note_on_c, 0, 59, 49
2, 159598, Note_on_c, 0, 62, 67
2, 159658, Note_on_c, 0, 59, 0
2, 159757, Note_on_c, 0, 64, 46
2, 159807, Note_on_c, 0, 67, 62
2, 159812, Note_on_c, 0, 62, 0
2, 159827, Note_on_c, 0, 64, 0
2, 159869, Note_on_c, 0, 67, 0
2, 159898, Note_on_c, 0, 68, 47
2, 159973, Note_on_c, 0, 68, 0
2, 160027, Note_on_c, 0, 71, 73
2, 160159, Note_on_c, 0, 74, 57
2, 160165, Note_on_c, 0, 71, 0
2, 160240, Note_on_c, 0, 76, 36
2, 160256, Note_on_c, 0, 74, 0
2, 160297, Note_on_c, 0, 79, 51
2, 160301, Note_on_c, 0, 76, 0
2, 160342, Note_on_c, 0, 79, 0
2, 160437, Note_on_c, 0, 79, 34
2, 160488, Note_on_c, 0, 83, 57
2, 160490, Note_on_c, 0, 79, 0
2, 160600, Note_on_c, 0, 86, 61
2, 160609, Note_on_c, 0, 83, 0
2, 160703, Note_on_c, 0, 86, 0
2, 160724, Note_on_c, 0, 91, 49
2, 160776, Note_on_c, 0, 91, 0
2, 160883, Note_on_c, 0, 94, 56
2, 160930, Note_on_c, 0, 95, 29
2, 160960, Note_on_c, 0, 94, 0
2, 161045, Note_on_c, 0, 98, 48
2, 161113, Note_on_c, 0, 95, 0
2, 161119, Note_on_c, 0, 100, 55
2, 161218, Note_on_c, 0, 98, 0
2, 161261, Note_on_c, 0, 100, 0
2, 161265, Note_on_c, 0, 103, 76
2, 161378, Note_on_c, 0, 103, 0
2, 162193, Note_on_c, 0, 65, 62
2, 162197, Note_on_c, 0, 37, 67
2, 162202, Note_on_c, 0, 25, 36
2, 162203, Note_on_c, 0, 60, 68
2, 162214, Note_on_c, 0, 53, 61
2, 162314, Control_c, 0, 64, 0
2, 162442, Control_c, 0, 64, 127
2, 162482, Note_on_c, 0, 65, 0
2, 162529, Note_on_c, 0, 53, 0
2, 162560, Note_on_c, 0, 60, 0
2, 162622, Note_on_c, 0, 37, 0
2, 162637, Note_on_c, 0, 25, 0
2, 162743, Note_on_c, 0, 61, 70
2, 162744, Note_on_c, 0, 66, 64
2, 162747, Note_on_c, 0, 38, 68
2, 162747, Note_on_c, 0, 54, 64
2, 162755, Note_on_c, 0, 26, 66
2, 162802, Control_c, 0, 64, 0
2, 163005, Control_c, 0, 64, 127
2, 163177, Note_on_c, 0, 54, 0
2, 163178, Note_on_c, 0, 26, 0
2, 163205, Note_on_c, 0, 38, 0
2, 163230, Note_on_c, 0, 61, 0
2, 163265, Note_on_c, 0, 66, 0
2, 163430, Note_on_c, 0, 67, 50
2, 163436, Note_on_c, 0, 62, 64
2, 163440, Note_on_c, 0, 27, 64
2, 163441, Note_on_c, 0, 55, 62
2, 163442, Note_on_c, 0, 39, 58
2, 163445, Control_c, 0, 64, 0
2, 163714, Control_c, 0, 64, 127
2, 163738, Note_on_c, 0, 55, 0
2, 163832, Note_on_c, 0, 62, 0
2, 163838, Note_on_c, 0, 27, 0
2, 163872, Note_on_c, 0, 67, 0
2, 163887, Note_on_c, 0, 39, 0
2, 164442, Note_on_c, 0, 61, 64
2, 164451, Note_on_c, 0, 60, 70
2, 164452, Note_on_c, 0, 87, 87
2, 164455, Note_on_c, 0, 65, 79
2, 164462, Note_on_c, 0, 75, 94
2, 164465, Note_on_c, 0, 82, 87
2, 164468, Note_on_c, 0, 55, 71
2, 164489, Note_on_c, 0, 58, 48
2, 164835, Note_on_c, 0, 55, 0
2, 164862, Note_on_c, 0, 75, 0
2, 164871, Note_on_c, 0, 65, 0
2, 164876, Note_on_c, 0, 58, 0
2, 164882, Note_on_c, 0, 61, 0
2, 164885, Note_on_c, 0, 60, 0
2, 164886, Note_on_c, 0, 87, 0
2, 164904, Note_on_c, 0, 82, 0
2, 165145, Note_on_c, 0, 87, 85
2, 165146, Note_on_c, 0, 75, 93
2, 165148, Note_on_c, 0, 82, 83
2, 165154, Note_on_c, 0, 61, 74
2, 165154, Note_on_c, 0, 60, 79
2, 165157, Note_on_c, 0, 65, 82
2, 165178, Note_on_c, 0, 55, 73
2, 165184, Note_on_c, 0, 58, 39
2, 165575, Note_on_c, 0, 55, 0
2, 165589, Note_on_c, 0, 61, 0
2, 165603, Note_on_c, 0, 87, 0
2, 165613, Note_on_c, 0, 65, 0
2, 165619, Note_on_c, 0, 60, 0
2, 165620, Note_on_c, 0, 75, 0
2, 165627, Note_on_c, 0, 58, 0
2, 165632, Note_on_c, 0, 82, 0
2, 165801, Note_on_c, 0, 85, 82
2, 165811, Note_on_c, 0, 73, 75
2, 165812, Note_on_c, 0, 80, 77
2, 165822, Note_on_c, 0, 65, 75
2, 165825, Note_on_c, 0, 61, 67
2, 165829, Note_on_c, 0, 60, 57
2, 165850, Note_on_c, 0, 55, 62
2, 166051, Note_on_c, 0, 65, 0
2, 166060, Note_on_c, 0, 55, 0
2, 166081, Note_on_c, 0, 60, 0
2, 166124, Note_on_c, 0, 61, 0
2, 166185, Note_on_c, 0, 73, 0
2, 166256, Note_on_c, 0, 80, 0
2, 166260, Note_on_c, 0, 85, 0
2, 166494, Note_on_c, 0, 85, 83
2, 166498, Note_on_c, 0, 73, 78
2, 166501, Note_on_c, 0, 61, 69
2, 166502, Note_on_c, 0, 80, 77
2, 166503, Note_on_c, 0, 53, 68
2, 166515, Note_on_c, 0, 55, 65
2, 166517, Note_on_c, 0, 58, 55
2, 166526, Control_c, 0, 64, 0
2, 166769, Control_c, 0, 64, 127
2, 167054, Note_on_c, 0, 61, 0
2, 167060, Note_on_c, 0, 55, 0
2, 167090, Note_on_c, 0, 58, 0
2, 167113, Note_on_c, 0, 53, 0
2, 167780, Note_on_c, 0, 24, 61
2, 167820, Control_c, 0, 64, 0
2, 167987, Control_c, 0, 64, 127
2, 168204, Note_on_c, 0, 24, 0
2, 168537, Note_on_c, 0, 80, 0
2, 168544, Note_on_c, 0, 73, 0
2, 168558, Note_on_c, 0, 85, 0
2, 169250, Note_on_c, 0, 72, 26
2, 169252, Note_on_c, 0, 84, 41
2, 169277, Note_on_c, 0, 58, 39
2, 169289, Note_on_c, 0, 64, 30
2, 169438, Control_c, 0, 64, 0
2, 169823, Control_c, 0, 64, 127
2, 170063, Note_on_c, 0, 64, 0
2, 170116, Note_on_c, 0, 58, 0
2, 170776, Note_on_c, 0, 48, 44
2, 171476, Note_on_c, 0, 84, 0
2, 171744, Note_on_c, 0, 72, 0
2, 172925, Note_on_c, 0, 48, 0
2, 173019, Note_on_c, 0, 56, 33
2, 173042, Control_c, 0, 64, 0
2, 173068, Note_on_c, 0, 41, 32
2, 173273, Control_c, 0, 64, 127
2, 173363, Note_on_c, 0, 56, 0
2, 173575, Note_on_c, 0, 41, 0
2, 173640, Note_on_c, 0, 53, 50
2, 174118, Note_on_c, 0, 68, 46
2, 174125, Note_on_c, 0, 53, 0
2, 174128, Note_on_c, 0, 56, 32
2, 174168, Note_on_c, 0, 60, 25
2, 174240, Note_on_c, 0, 60, 0
2, 174537, Note_on_c, 0, 68, 0
2, 174566, Note_on_c, 0, 61, 25
2, 174648, Note_on_c, 0, 60, 54
2, 174689, Note_on_c, 0, 61, 0
2, 175139, Note_on_c, 0, 60, 0
2, 175168, Note_on_c, 0, 63, 44
2, 175177, Note_on_c, 0, 80, 68
2, 175198, Note_on_c, 0, 68, 59
2, 175776, Note_on_c, 0, 60, 41
2, 175889, Note_on_c, 0, 63, 0
2, 175897, Note_on_c, 0, 68, 0
2, 176005, Note_on_c, 0, 80, 0
2, 176391, Note_on_c, 0, 63, 28
2, 176425, Note_on_c, 0, 79, 53
2, 176440, Note_on_c, 0, 60, 0
2, 177124, Note_on_c, 0, 63, 0
2, 177193, Note_on_c, 0, 79, 0
2, 177216, Note_on_c, 0, 77, 49
2, 177294, Note_on_c, 0, 60, 15
2, 177577, Note_on_c, 0, 60, 0
2, 177729, Note_on_c, 0, 56, 0
2, 178120, Note_on_c, 0, 77, 0
2, 179056, Note_on_c, 0, 80, 39
2, 179068, Control_c, 0, 64, 0
2, 179101, Note_on_c, 0, 49, 30
2, 179304, Control_c, 0, 64, 127
2, 179466, Note_on_c, 0, 49, 0
2, 180117, Note_on_c, 0, 61, 36
2, 180224, Note_on_c, 0, 80, 0
2, 180356, Note_on_c, 0, 63, 31
2, 180426, Note_on_c, 0, 61, 0
2, 180519, Note_on_c, 0, 63, 0
2, 180540, Note_on_c, 0, 65, 28
2, 180624, Note_on_c, 0, 71, 45
2, 180631, Note_on_c, 0, 65, 0
2, 180738, Note_on_c, 0, 71, 0
2, 180738, Note_on_c, 0, 73, 28
2, 180863, Note_on_c, 0, 73, 0
2, 180868, Note_on_c, 0, 75, 51
2, 180954, Note_on_c, 0, 75, 0
2, 181014, Note_on_c, 0, 77, 31
2, 181138, Note_on_c, 0, 79, 48
2, 181147, Note_on_c, 0, 77, 0
2, 181218, Note_on_c, 0, 79, 0
2, 181262, Note_on_c, 0, 81, 48
2, 181314, Note_on_c, 0, 81, 0
2, 181401, Note_on_c, 0, 83, 46
2, 181522, Note_on_c, 0, 83, 0
2, 181536, Note_on_c, 0, 85, 45
2, 181637, Note_on_c, 0, 85, 0
2, 181698, Note_on_c, 0, 87, 27
2, 181741, Note_on_c, 0, 87, 0
2, 181806, Note_on_c, 0, 89, 44
2, 181930, Note_on_c, 0, 89, 0
2, 181939, Note_on_c, 0, 91, 55
2, 182022, Note_on_c, 0, 91, 0
2, 182208, Note_on_c, 0, 95, 48
2, 182285, Note_on_c, 0, 95, 0
2, 182369, Note_on_c, 0, 97, 50
2, 182488, Note_on_c, 0, 97, 0
2, 182511, Note_on_c, 0, 99, 56
2, 182633, Note_on_c, 0, 99, 0
2, 182659, Note_on_c, 0, 101, 55
2, 182748, Note_on_c, 0, 101, 0
2, 182771, Note_on_c, 0, 49, 25
2, 183217, Note_on_c, 0, 49, 0
2, 183587, Note_on_c, 0, 61, 33
2, 183719, Note_on_c, 0, 61, 0
2, 183810, Note_on_c, 0, 65, 43
2, 183917, Note_on_c, 0, 67, 38
2, 183987, Note_on_c, 0, 65, 0
2, 184005, Note_on_c, 0, 69, 40
2, 184074, Note_on_c, 0, 69, 0
2, 184097, Note_on_c, 0, 67, 0
2, 184103, Note_on_c, 0, 71, 52
2, 184180, Note_on_c, 0, 71, 0
2, 184203, Note_on_c, 0, 73, 30
2, 184251, Note_on_c, 0, 75, 46
2, 184253, Note_on_c, 0, 73, 0
2, 184314, Note_on_c, 0, 75, 0
2, 184420, Note_on_c, 0, 77, 24
2, 184493, Note_on_c, 0, 79, 52
2, 184528, Note_on_c, 0, 77, 0
2, 184538, Note_on_c, 0, 81, 49
2, 184611, Note_on_c, 0, 79, 0
2, 184633, Note_on_c, 0, 81, 0
2, 184640, Note_on_c, 0, 83, 40
2, 184690, Note_on_c, 0, 83, 0
2, 184749, Note_on_c, 0, 87, 34
2, 184793, Note_on_c, 0, 87, 0
2, 184857, Note_on_c, 0, 89, 49
2, 184945, Note_on_c, 0, 91, 44
2, 184997, Note_on_c, 0, 89, 0
2, 185034, Note_on_c, 0, 93, 47
2, 185070, Note_on_c, 0, 91, 0
2, 185082, Note_on_c, 0, 93, 0
2, 185154, Note_on_c, 0, 97, 44
2, 185192, Note_on_c, 0, 99, 42
2, 185231, Note_on_c, 0, 97, 0
2, 185252, Note_on_c, 0, 99, 0
2, 185331, Note_on_c, 0, 101, 45
2, 185447, Note_on_c, 0, 101, 0
2, 185461, Note_on_c, 0, 103, 25
2, 185490, Note_on_c, 0, 105, 66
2, 185552, Note_on_c, 0, 103, 0
2, 185605, Note_on_c, 0, 105, 0
2, 185616, Note_on_c, 0, 107, 72
2, 185708, Note_on_c, 0, 107, 0
2, 187758, Note_on_c, 0, 67, 74
2, 187762, Note_on_c, 0, 63, 59
2, 187782, Note_on_c, 0, 46, 44
2, 187788, Note_on_c, 0, 58, 59
2, 187807, Note_on_c, 0, 55, 42
2, 187846, Control_c, 0, 64, 0
2, 188128, Control_c, 0, 64, 127
2, 188250, Note_on_c, 0, 67, 0
2, 188442, Note_on_c, 0, 67, 81
2, 188807, Note_on_c, 0, 67, 0
2, 189020, Note_on_c, 0, 67, 76
2, 189472, Note_on_c, 0, 67, 0
2, 189516, Note_on_c, 0, 63, 0
2, 189523, Note_on_c, 0, 58, 0
2, 189554, Note_on_c, 0, 62, 64
2, 189573, Note_on_c, 0, 65, 66
2, 189644, Note_on_c, 0, 55, 0
2, 189787, Note_on_c, 0, 46, 0
2, 189985, Note_on_c, 0, 65, 0
2, 190029, Note_on_c, 0, 62, 0
2, 190070, Note_on_c, 0, 63, 61
2, 190688, Note_on_c, 0, 63, 0
2, 191671, Control_c, 0, 64, 0
2, 191731, Note_on_c, 0, 29, 38
2, 191743, Note_on_c, 0, 62, 48
2, 191745, Note_on_c, 0, 67, 49
2, 191757, Note_on_c, 0, 57, 37
2, 191758, Note_on_c, 0, 41, 27
2, 191903, Control_c, 0, 64, 127
2, 191911, Note_on_c, 0, 57, 0
2, 192027, Note_on_c, 0, 29, 0
2, 192048, Note_on_c, 0, 62, 0
2, 192083, Note_on_c, 0, 67, 0
2, 192127, Note_on_c, 0, 41, 0
2, 192599, Note_on_c, 0, 74, 105
2, 192870, Note_on_c, 0, 75, 56
2, 192961, Note_on_c, 0, 74, 0
2, 192969, Note_on_c, 0, 75, 0
2, 192979, Note_on_c, 0, 76, 68
2, 193107, Note_on_c, 0, 76, 0
2, 193140, Note_on_c, 0, 77, 81
2, 193203, Note_on_c, 0, 67, 47
2, 193204, Note_on_c, 0, 62, 40
2, 193217, Note_on_c, 0, 63, 39
2, 193223, Note_on_c, 0, 57, 43
2, 193272, Control_c, 0, 64, 0
2, 193417, Note_on_c, 0, 77, 0
2, 193459, Note_on_c, 0, 75, 53
2, 193740, Note_on_c, 0, 75, 0
2, 193749, Note_on_c, 0, 71, 51
2, 193893, Note_on_c, 0, 71, 0
2, 193974, Note_on_c, 0, 74, 69
2, 194209, Note_on_c, 0, 74, 0
2, 194300, Note_on_c, 0, 72, 49
2, 194319, Note_on_c, 0, 67, 0
2, 194604, Note_on_c, 0, 72, 0
2, 194609, Note_on_c, 0, 67, 48
2, 194634, Control_c, 0, 64, 127
2, 194780, Note_on_c, 0, 62, 0
2, 194820, Note_on_c, 0, 63, 0
2, 194826, Note_on_c, 0, 67, 0
2, 194941, Note_on_c, 0, 65, 61
2, 195119, Note_on_c, 0, 65, 0
2, 195320, Note_on_c, 0, 63, 38
2, 195672, Note_on_c, 0, 62, 58
2, 195714, Note_on_c, 0, 63, 0
2, 195778, Note_on_c, 0, 57, 0
2, 195994, Note_on_c, 0, 62, 0
2, 196042, Note_on_c, 0, 65, 71
2, 196082, Note_on_c, 0, 62, 44
2, 196132, Note_on_c, 0, 62, 0
2, 196350, Note_on_c, 0, 65, 0
2, 196410, Note_on_c, 0, 63, 74
2, 196804, Note_on_c, 0, 59, 71
2, 197213, Note_on_c, 0, 59, 0
2, 197246, Note_on_c, 0, 60, 81
2, 197415, Note_on_c, 0, 63, 0
2, 197653, Note_on_c, 0, 60, 0
2, 197758, Note_on_c, 0, 62, 81
2, 197773, Note_on_c, 0, 58, 57
2, 197784, Note_on_c, 0, 46, 38
2, 197798, Note_on_c, 0, 53, 40
2, 197818, Control_c, 0, 64, 0
2, 198099, Control_c, 0, 64, 127
2, 198272, Note_on_c, 0, 58, 0
2, 198301, Note_on_c, 0, 63, 80
2, 198409, Note_on_c, 0, 62, 0
2, 198779, Note_on_c, 0, 46, 0
2, 198788, Note_on_c, 0, 63, 0
2, 198902, Note_on_c, 0, 65, 68
2, 198907, Note_on_c, 0, 63, 37
2, 198910, Note_on_c, 0, 46, 36
2, 198920, Note_on_c, 0, 56, 32
2, 198921, Note_on_c, 0, 60, 64
2, 198955, Control_c, 0, 64, 0
2, 198958, Note_on_c, 0, 53, 0
2, 199172, Control_c, 0, 64, 127
2, 199449, Note_on_c, 0, 65, 0
2, 199592, Note_on_c, 0, 60, 0
2, 199609, Note_on_c, 0, 63, 0
2, 199654, Note_on_c, 0, 65, 71
2, 199676, Note_on_c, 0, 63, 31
2, 200099, Note_on_c, 0, 46, 0
2, 200136, Note_on_c, 0, 56, 0
2, 200161, Note_on_c, 0, 63, 0
2, 200188, Note_on_c, 0, 65, 0
2, 200513, Note_on_c, 0, 59, 50
2, 200514, Note_on_c, 0, 65, 54
2, 200523, Note_on_c, 0, 62, 43
2, 200528, Note_on_c, 0, 50, 55
2, 200542, Note_on_c, 0, 46, 33
2, 200547, Note_on_c, 0, 56, 32
2, 200549, Control_c, 0, 64, 0
2, 200818, Control_c, 0, 64, 127
2, 201618, Note_on_c, 0, 62, 0
2, 201721, Note_on_c, 0, 50, 0
2, 201812, Note_on_c, 0, 65, 0
2, 201871, Note_on_c, 0, 59, 0
2, 202012, Note_on_c, 0, 56, 0
2, 202292, Note_on_c, 0, 46, 0
2, 202567, Note_on_c, 0, 63, 52
2, 202572, Note_on_c, 0, 56, 34
2, 202573, Note_on_c, 0, 59, 54
2, 202592, Note_on_c, 0, 46, 28
2, 202596, Note_on_c, 0, 53, 32
2, 202602, Control_c, 0, 64, 0
2, 202845, Control_c, 0, 64, 127
2, 203443, Note_on_c, 0, 46, 0
2, 203630, Note_on_c, 0, 53, 0
2, 203995, Note_on_c, 0, 63, 0
2, 204087, Note_on_c, 0, 59, 0
2, 204110, Note_on_c, 0, 62, 48
2, 204112, Note_on_c, 0, 56, 0
2, 204209, Note_on_c, 0, 47, 22
2, 204313, Note_on_c, 0, 62, 0
2, 204386, Note_on_c, 0, 47, 0
2, 204410, Note_on_c, 0, 55, 46
2, 204412, Control_c, 0, 64, 0
2, 204420, Note_on_c, 0, 63, 34
2, 204425, Note_on_c, 0, 48, 43
2, 204446, Note_on_c, 0, 60, 28
2, 204771, Control_c, 0, 64, 127
2, 204915, Note_on_c, 0, 36, 33
2, 204940, Note_on_c, 0, 55, 0
2, 204995, Note_on_c, 0, 48, 0
2, 205035, Note_on_c, 0, 36, 0
2, 205207, Note_on_c, 0, 60, 0
2, 205421, Note_on_c, 0, 63, 0
2, 205957, Note_on_c, 0, 45, 48
2, 205989, Control_c, 0, 64, 0
2, 206486, Note_on_c, 0, 63, 69
2, 206519, Note_on_c, 0, 55, 32
2, 206637, Note_on_c, 0, 55, 0
2, 206786, Control_c, 0, 64, 127
2, 206865, Note_on_c, 0, 45, 0
2, 207039, Note_on_c, 0, 63, 0
2, 207092, Note_on_c, 0, 62, 51
2, 207208, Note_on_c, 0, 62, 0
2, 207311, Note_on_c, 0, 63, 47
2, 207478, Control_c, 0, 64, 0
2, 207487, Note_on_c, 0, 63, 0
2, 207544, Note_on_c, 0, 26, 37
2, 207572, Note_on_c, 0, 67, 61
2, 208053, Note_on_c, 0, 26, 0
2, 208076, Note_on_c, 0, 38, 40
2, 208127, Note_on_c, 0, 38, 0
2, 208337, Note_on_c, 0, 32, 37
2, 208479, Control_c, 0, 64, 127
2, 208566, Control_c, 0, 64, 0
2, 208618, Control_c, 0, 64, 127
2, 208793, Note_on_c, 0, 67, 0
2, 208885, Note_on_c, 0, 30, 42
2, 208928, Note_on_c, 0, 32, 0
2, 209062, Note_on_c, 0, 30, 0
2, 209069, Control_c, 0, 64, 0
2, 209137, Note_on_c, 0, 31, 43
2, 209420, Note_on_c, 0, 55, 57
2, 209523, Note_on_c, 0, 55, 0
2, 209650, Note_on_c, 0, 58, 77
2, 209872, Note_on_c, 0, 58, 0
2, 209912, Note_on_c, 0, 59, 58
2, 210049, Note_on_c, 0, 59, 0
2, 210142, Note_on_c, 0, 62, 79
2, 210286, Note_on_c, 0, 62, 0
2, 210345, Note_on_c, 0, 23, 46
2, 210354, Note_on_c, 0, 31, 0
2, 210380, Note_on_c, 0, 65, 73
2, 210532, Note_on_c, 0, 65, 0
2, 210630, Note_on_c, 0, 23, 0
2, 210660, Note_on_c, 0, 63, 46
2, 210665, Note_on_c, 0, 24, 53
2, 211199, Note_on_c, 0, 55, 54
2, 211468, Control_c, 0, 64, 127
2, 211589, Note_on_c, 0, 24, 0
2, 211998, Note_on_c, 0, 48, 74
2, 212222, Control_c, 0, 64, 0
2, 212224, Note_on_c, 0, 48, 0
2, 212246, Note_on_c, 0, 55, 0
2, 212288, Note_on_c, 0, 63, 0
2, 212312, Note_on_c, 0, 46, 49
2, 213612, Control_c, 0, 64, 127
2, 213653, Note_on_c, 0, 44, 52
2, 213676, Note_on_c, 0, 46, 0
2, 213740, Control_c, 0, 64, 0
2, 213830, Note_on_c, 0, 44, 0
2, 213920, Note_on_c, 0, 45, 56
2, 213983, Control_c, 0, 64, 127
2, 214203, Note_on_c, 0, 55, 66
2, 214301, Note_on_c, 0, 55, 0
2, 214343, Note_on_c, 0, 33, 28
2, 214412, Note_on_c, 0, 60, 69
2, 214425, Note_on_c, 0, 33, 0
2, 214518, Note_on_c, 0, 45, 0
2, 214568, Note_on_c, 0, 60, 0
2, 214657, Note_on_c, 0, 63, 76
2, 214760, Note_on_c, 0, 63, 0
2, 214890, Note_on_c, 0, 67, 73
2, 214984, Note_on_c, 0, 67, 0
2, 215141, Note_on_c, 0, 72, 95
2, 215307, Note_on_c, 0, 72, 0
2, 215394, Note_on_c, 0, 75, 85
2, 215432, Control_c, 0, 64, 0
2, 215579, Note_on_c, 0, 75, 0
2, 215631, Note_on_c, 0, 77, 73
2, 215818, Note_on_c, 0, 77, 0
2, 215876, Note_on_c, 0, 72, 60
2, 215902, Note_on_c, 0, 65, 48
2, 215905, Note_on_c, 0, 60, 46
2, 215908, Note_on_c, 0, 54, 32
2, 215925, Note_on_c, 0, 73, 44
2, 216003, Note_on_c, 0, 72, 0
2, 216050, Note_on_c, 0, 73, 0
2, 216066, Note_on_c, 0, 74, 46
2, 216250, Note_on_c, 0, 74, 0
2, 216279, Control_c, 0, 64, 127
2, 216432, Note_on_c, 0, 72, 55
2, 216551, Note_on_c, 0, 65, 0
2, 216568, Note_on_c, 0, 60, 0
2, 216607, Note_on_c, 0, 72, 0
2, 216670, Note_on_c, 0, 70, 62
2, 216677, Note_on_c, 0, 54, 0
2, 216877, Note_on_c, 0, 70, 0
2, 216918, Note_on_c, 0, 69, 42
2, 216922, Control_c, 0, 64, 0
2, 217058, Note_on_c, 0, 55, 8
2, 217145, Note_on_c, 0, 69, 0
2, 217184, Note_on_c, 0, 70, 42
2, 217386, Note_on_c, 0, 70, 0
2, 217421, Note_on_c, 0, 67, 66
2, 217472, Note_on_c, 0, 62, 33
2, 217473, Note_on_c, 0, 58, 31
2, 217741, Control_c, 0, 64, 127
2, 217941, Note_on_c, 0, 55, 0
2, 218162, Note_on_c, 0, 53, 48
2, 218287, Note_on_c, 0, 53, 0
2, 218371, Control_c, 0, 64, 0
2, 218442, Note_on_c, 0, 62, 0
2, 218504, Note_on_c, 0, 58, 0
2, 218506, Note_on_c, 0, 52, 40
2, 218648, Note_on_c, 0, 67, 0
2, 218769, Control_c, 0, 64, 127
2, 219003, Note_on_c, 0, 62, 51
2, 219012, Control_c, 0, 64, 0
2, 219012, Note_on_c, 0, 58, 34
2, 219287, Note_on_c, 0, 67, 37
2, 219399, Note_on_c, 0, 67, 0
2, 219514, Note_on_c, 0, 69, 74
2, 219533, Note_on_c, 0, 52, 0
2, 219592, Note_on_c, 0, 58, 0
2, 219655, Note_on_c, 0, 69, 0
2, 219736, Note_on_c, 0, 62, 0
2, 219741, Control_c, 0, 64, 127
2, 219767, Note_on_c, 0, 70, 76
2, 219921, Control_c, 0, 64, 0
2, 219935, Note_on_c, 0, 70, 0
2, 220006, Note_on_c, 0, 60, 41
2, 220017, Note_on_c, 0, 65, 40
2, 220022, Note_on_c, 0, 72, 48
2, 220043, Note_on_c, 0, 55, 33
2, 220048, Note_on_c, 0, 61, 23
2, 220249, Note_on_c, 0, 72, 0
2, 220267, Note_on_c, 0, 73, 46
2, 220371, Note_on_c, 0, 73, 0
2, 220531, Note_on_c, 0, 77, 63
2, 220684, Note_on_c, 0, 77, 0
2, 220763, Note_on_c, 0, 82, 65
2, 220889, Note_on_c, 0, 82, 0
2, 220973, Control_c, 0, 64, 127
2, 220976, Note_on_c, 0, 55, 0
2, 221009, Note_on_c, 0, 60, 0
2, 221017, Note_on_c, 0, 84, 83
2, 221066, Note_on_c, 0, 65, 0
2, 221133, Note_on_c, 0, 84, 0
2, 221205, Note_on_c, 0, 61, 0
2, 221265, Note_on_c, 0, 89, 96
2, 221507, Note_on_c, 0, 65, 65
2, 221511, Note_on_c, 0, 54, 56
2, 221513, Control_c, 0, 64, 0
2, 221518, Note_on_c, 0, 60, 60
2, 221759, Note_on_c, 0, 89, 0
2, 221787, Note_on_c, 0, 87, 78
2, 221999, Note_on_c, 0, 87, 0
2, 222038, Control_c, 0, 64, 127
2, 222217, Control_c, 0, 64, 0
2, 222324, Note_on_c, 0, 85, 71
2, 222329, Note_on_c, 0, 86, 91
2, 222388, Note_on_c, 0, 85, 0
2, 222505, Note_on_c, 0, 86, 0
2, 222676, Note_on_c, 0, 65, 0
2, 222716, Note_on_c, 0, 60, 0
2, 222752, Note_on_c, 0, 84, 80
2, 222809, Control_c, 0, 64, 127
2, 222885, Note_on_c, 0, 84, 0
2, 222911, Note_on_c, 0, 82, 67
2, 222912, Note_on_c, 0, 54, 0
2, 223063, Note_on_c, 0, 82, 0
2, 223066, Control_c, 0, 64, 0
2, 223081, Note_on_c, 0, 81, 59
2, 223105, Note_on_c, 0, 62, 47
2, 223107, Note_on_c, 0, 58, 36
2, 223107, Note_on_c, 0, 55, 38
2, 223229, Note_on_c, 0, 81, 0
2, 223280, Note_on_c, 0, 84, 71
2, 223442, Note_on_c, 0, 84, 0
2, 223453, Note_on_c, 0, 81, 50
2, 223544, Note_on_c, 0, 81, 0
2, 223635, Note_on_c, 0, 82, 61
2, 223924, Note_on_c, 0, 74, 66
2, 223990, Control_c, 0, 64, 127
2, 224316, Note_on_c, 0, 74, 0
2, 224350, Note_on_c, 0, 55, 0
2, 224366, Note_on_c, 0, 62, 0
2, 224446, Note_on_c, 0, 58, 0
2, 224489, Note_on_c, 0, 74, 51
2, 224774, Note_on_c, 0, 52, 45
2, 224779, Note_on_c, 0, 63, 37
2, 224786, Control_c, 0, 64, 0
2, 224787, Note_on_c, 0, 58, 40
2, 224814, Note_on_c, 0, 74, 0
2, 224832, Note_on_c, 0, 82, 0
2, 224991, Control_c, 0, 64, 127
2, 225355, Note_on_c, 0, 63, 0
2, 225529, Control_c, 0, 64, 0
2, 225529, Note_on_c, 0, 62, 26
2, 225619, Note_on_c, 0, 62, 0
2, 225719, Note_on_c, 0, 61, 48
2, 225901, Note_on_c, 0, 63, 57
2, 225940, Note_on_c, 0, 61, 0
2, 226011, Note_on_c, 0, 63, 0
2, 226043, Note_on_c, 0, 64, 62
2, 226045, Note_on_c, 0, 52, 0
2, 226131, Note_on_c, 0, 58, 0
2, 226159, Note_on_c, 0, 65, 57
2, 226169, Note_on_c, 0, 64, 0
2, 226263, Note_on_c, 0, 66, 39
2, 226271, Note_on_c, 0, 65, 0
2, 226351, Note_on_c, 0, 66, 0
2, 226371, Note_on_c, 0, 67, 44
2, 226505, Note_on_c, 0, 67, 0
2, 226516, Note_on_c, 0, 68, 69
2, 226560, Note_on_c, 0, 63, 42
2, 226569, Note_on_c, 0, 60, 44
2, 226603, Note_on_c, 0, 53, 33
2, 226618, Note_on_c, 0, 56, 28
2, 226696, Note_on_c, 0, 67, 73
2, 226711, Note_on_c, 0, 68, 0
2, 227102, Note_on_c, 0, 63, 0
2, 227102, Note_on_c, 0, 67, 0
2, 227187, Note_on_c, 0, 63, 82
2, 227289, Note_on_c, 0, 60, 0
2, 227363, Note_on_c, 0, 63, 0
2, 227439, Note_on_c, 0, 65, 58
2, 227488, Note_on_c, 0, 63, 52
2, 227489, Note_on_c, 0, 56, 0
2, 227531, Note_on_c, 0, 53, 0
2, 227538, Note_on_c, 0, 65, 0
2, 227613, Note_on_c, 0, 63, 0
2, 227631, Note_on_c, 0, 60, 35
2, 227820, Note_on_c, 0, 60, 0
2, 227875, Note_on_c, 0, 61, 63
2, 228010, Note_on_c, 0, 61, 0
2, 228068, Note_on_c, 0, 62, 55
2, 228196, Note_on_c, 0, 62, 0
2, 228336, Note_on_c, 0, 65, 48
2, 228349, Note_on_c, 0, 64, 40
2, 228395, Note_on_c, 0, 64, 0
2, 228410, Note_on_c, 0, 65, 0
2, 228462, Note_on_c, 0, 56, 25
2, 228464, Note_on_c, 0, 46, 38
2, 228587, Note_on_c, 0, 67, 55
2, 228643, Note_on_c, 0, 67, 0
2, 228874, Note_on_c, 0, 68, 69
2, 228975, Note_on_c, 0, 68, 0
2, 229130, Note_on_c, 0, 70, 79
2, 229239, Note_on_c, 0, 70, 0
2, 229377, Note_on_c, 0, 71, 60
2, 229407, Note_on_c, 0, 72, 44
2, 229469, Note_on_c, 0, 71, 0
2, 229479, Note_on_c, 0, 72, 0
2, 229612, Note_on_c, 0, 73, 61
2, 229724, Note_on_c, 0, 73, 0
2, 229827, Note_on_c, 0, 74, 79
2, 229847, Note_on_c, 0, 46, 0
2, 229924, Note_on_c, 0, 56, 0
2, 229943, Note_on_c, 0, 74, 0
2, 230025, Note_on_c, 0, 77, 83
2, 230224, Note_on_c, 0, 77, 0
2, 230237, Control_c, 0, 64, 127
2, 230252, Note_on_c, 0, 74, 66
2, 230341, Control_c, 0, 64, 0
2, 230360, Note_on_c, 0, 74, 0
2, 230436, Note_on_c, 0, 51, 38
2, 230477, Note_on_c, 0, 75, 52
2, 230713, Control_c, 0, 64, 127
2, 230789, Note_on_c, 0, 67, 35
2, 230853, Note_on_c, 0, 67, 0
2, 231305, Note_on_c, 0, 67, 55
2, 231327, Note_on_c, 0, 62, 36
2, 231356, Note_on_c, 0, 51, 0
2, 231375, Note_on_c, 0, 67, 0
2, 231428, Note_on_c, 0, 75, 0
2, 231440, Note_on_c, 0, 62, 0
2, 231854, Control_c, 0, 64, 0
2, 231898, Note_on_c, 0, 56, 59
2, 231898, Note_on_c, 0, 66, 62
2, 231913, Note_on_c, 0, 89, 80
2, 231929, Note_on_c, 0, 77, 51
2, 231942, Control_c, 0, 64, 127
2, 231945, Note_on_c, 0, 61, 37
2, 231966, Note_on_c, 0, 79, 34
2, 232016, Note_on_c, 0, 79, 0
2, 232037, Note_on_c, 0, 89, 0
2, 232100, Note_on_c, 0, 77, 0
2, 232109, Note_on_c, 0, 61, 0
2, 232123, Note_on_c, 0, 66, 0
2, 232145, Note_on_c, 0, 56, 0
2, 232201, Control_c, 0, 64, 0
2, 232247, Note_on_c, 0, 61, 33
2, 232248, Note_on_c, 0, 65, 63
2, 232273, Note_on_c, 0, 87, 69
2, 232273, Note_on_c, 0, 55, 57
2, 232277, Note_on_c, 0, 60, 39
2, 232286, Note_on_c, 0, 75, 57
2, 232444, Control_c, 0, 64, 127
2, 232869, Note_on_c, 0, 60, 0
2, 232879, Note_on_c, 0, 65, 0
2, 232890, Note_on_c, 0, 55, 0
2, 232963, Note_on_c, 0, 87, 0
2, 232986, Note_on_c, 0, 61, 0
2, 233016, Note_on_c, 0, 75, 0
2, 233165, Note_on_c, 0, 65, 49
2, 233167, Note_on_c, 0, 60, 46
2, 233178, Note_on_c, 0, 61, 26
2, 233216, Note_on_c, 0, 55, 26
2, 233531, Note_on_c, 0, 55, 0
2, 233554, Note_on_c, 0, 65, 0
2, 233583, Note_on_c, 0, 61, 0
2, 233591, Note_on_c, 0, 60, 0
2, 233776, Note_on_c, 0, 61, 64
2, 233778, Note_on_c, 0, 65, 80
2, 233780, Note_on_c, 0, 60, 66
2, 233785, Note_on_c, 0, 85, 93
2, 233791, Note_on_c, 0, 55, 69
2, 233792, Note_on_c, 0, 73, 87
2, 233985, Note_on_c, 0, 65, 0
2, 233991, Note_on_c, 0, 55, 0
2, 234003, Note_on_c, 0, 60, 0
2, 234039, Note_on_c, 0, 73, 0
2, 234046, Note_on_c, 0, 85, 0
2, 234070, Note_on_c, 0, 61, 0
2, 234138, Control_c, 0, 64, 0
2, 234147, Note_on_c, 0, 61, 77
2, 234159, Note_on_c, 0, 55, 80
2, 234159, Note_on_c, 0, 85, 77
2, 234160, Note_on_c, 0, 65, 79
2, 234169, Note_on_c, 0, 73, 75
2, 234357, Control_c, 0, 64, 127
2, 234548, Note_on_c, 0, 85, 0
2, 234607, Note_on_c, 0, 73, 0
2, 234611, Note_on_c, 0, 65, 0
2, 234614, Note_on_c, 0, 55, 0
2, 234649, Note_on_c, 0, 61, 0
2, 234751, Note_on_c, 0, 82, 61
2, 234759, Note_on_c, 0, 70, 62
2, 234771, Note_on_c, 0, 61, 47
2, 234785, Note_on_c, 0, 55, 56
2, 234792, Control_c, 0, 64, 0
2, 234796, Note_on_c, 0, 65, 54
2, 235011, Control_c, 0, 64, 127
2, 235311, Note_on_c, 0, 65, 0
2, 235362, Note_on_c, 0, 55, 0
2, 235367, Note_on_c, 0, 70, 0
2, 235376, Note_on_c, 0, 82, 0
2, 235389, Note_on_c, 0, 61, 0
2, 235628, Control_c, 0, 64, 0
2, 235640, Note_on_c, 0, 82, 63
2, 235652, Note_on_c, 0, 70, 60
2, 235654, Note_on_c, 0, 61, 46
2, 235666, Note_on_c, 0, 55, 54
2, 235668, Note_on_c, 0, 75, 46
2, 235671, Note_on_c, 0, 65, 50
2, 235807, Control_c, 0, 64, 127
2, 235877, Note_on_c, 0, 65, 0
2, 235925, Note_on_c, 0, 82, 0
2, 235956, Note_on_c, 0, 61, 0
2, 235961, Note_on_c, 0, 75, 0
2, 235980, Note_on_c, 0, 70, 0
2, 235982, Note_on_c, 0, 55, 0
2, 236551, Note_on_c, 0, 59, 62
2, 236551, Note_on_c, 0, 64, 58
2, 236553, Note_on_c, 0, 61, 46
2, 236558, Note_on_c, 0, 52, 59
2, 236565, Note_on_c, 0, 45, 54
2, 236566, Note_on_c, 0, 55, 62
2, 236587, Control_c, 0, 64, 0
2, 236819, Control_c, 0, 64, 127
2, 237146, Note_on_c, 0, 64, 0
2, 237188, Note_on_c, 0, 52, 0
2, 237267, Note_on_c, 0, 45, 0
2, 237284, Note_on_c, 0, 59, 0
2, 237285, Note_on_c, 0, 55, 0
2, 237418, Note_on_c, 0, 61, 0
2, 237769, Control_c, 0, 64, 0
2, 237788, Note_on_c, 0, 63, 46
2, 237816, Note_on_c, 0, 58, 46
2, 237819, Note_on_c, 0, 51, 37
2, 237831, Note_on_c, 0, 44, 39
2, 237835, Note_on_c, 0, 53, 32
2, 237852, Note_on_c, 0, 60, 34
2, 237986, Control_c, 0, 64, 127
2, 238054, Note_on_c, 0, 51, 0
2, 238162, Note_on_c, 0, 60, 0
2, 238176, Note_on_c, 0, 44, 0
2, 238276, Note_on_c, 0, 58, 0
2, 238279, Note_on_c, 0, 63, 0
2, 238499, Note_on_c, 0, 53, 0
2, 238656, Note_on_c, 0, 42, 30
2, 238708, Note_on_c, 0, 58, 86
2, 238711, Note_on_c, 0, 46, 64
2, 238770, Control_c, 0, 64, 0
2, 238771, Note_on_c, 0, 42, 0
2, 239255, Note_on_c, 0, 54, 52
2, 239262, Note_on_c, 0, 42, 53
2, 239321, Note_on_c, 0, 46, 0
2, 239450, Control_c, 0, 64, 127
2, 239483, Note_on_c, 0, 54, 0
2, 239486, Note_on_c, 0, 42, 0
2, 239579, Note_on_c, 0, 42, 48
2, 239582, Note_on_c, 0, 54, 51
2, 239590, Control_c, 0, 64, 0
2, 239661, Note_on_c, 0, 58, 0
2, 239900, Note_on_c, 0, 42, 0
2, 240068, Note_on_c, 0, 54, 0
2, 240148, Note_on_c, 0, 60, 58
2, 240187, Note_on_c, 0, 48, 58
2, 240316, Note_on_c, 0, 48, 0
2, 240317, Note_on_c, 0, 60, 0
2, 240459, Note_on_c, 0, 46, 39
2, 240469, Note_on_c, 0, 58, 38
2, 240887, Control_c, 0, 64, 127
2, 240947, Note_on_c, 0, 46, 0
2, 240959, Note_on_c, 0, 58, 0
2, 240978, Note_on_c, 0, 54, 46
2, 240986, Note_on_c, 0, 42, 46
2, 241140, Note_on_c, 0, 54, 0
2, 241142, Note_on_c, 0, 42, 0
2, 241194, Control_c, 0, 64, 0
2, 241277, Note_on_c, 0, 54, 47
2, 241311, Note_on_c, 0, 42, 46
2, 241348, Control_c, 0, 64, 127
2, 241377, Note_on_c, 0, 54, 0
2, 241427, Note_on_c, 0, 42, 0
2, 241759, Control_c, 0, 64, 0
2, 241819, Note_on_c, 0, 44, 59
2, 241820, Note_on_c, 0, 32, 57
2, 241823, Note_on_c, 0, 54, 62
2, 241831, Note_on_c, 0, 65, 56
2, 241836, Note_on_c, 0, 58, 59
2, 241847, Note_on_c, 0, 61, 38
2, 241869, Note_on_c, 0, 54, 0
2, 241879, Note_on_c, 0, 58, 0
2, 241881, Note_on_c, 0, 65, 0
2, 241889, Note_on_c, 0, 61, 0
2, 241905, Note_on_c, 0, 44, 0
2, 241919, Note_on_c, 0, 32, 0
2, 242403, Note_on_c, 0, 44, 53
2, 242405, Note_on_c, 0, 65, 58
2, 242407, Note_on_c, 0, 32, 64
2, 242412, Note_on_c, 0, 58, 60
2, 242418, Note_on_c, 0, 54, 45
2, 242425, Note_on_c, 0, 61, 40
2, 242462, Note_on_c, 0, 65, 0
2, 242470, Note_on_c, 0, 54, 0
2, 242478, Note_on_c, 0, 61, 0
2, 242500, Note_on_c, 0, 58, 0
2, 242516, Note_on_c, 0, 44, 0
2, 242519, Note_on_c, 0, 32, 0
2, 242789, Note_on_c, 0, 32, 48
2, 242841, Note_on_c, 0, 32, 0
2, 243002, Note_on_c, 0, 54, 60
2, 243006, Note_on_c, 0, 65, 61
2, 243009, Note_on_c, 0, 58, 60
2, 243016, Note_on_c, 0, 44, 61
2, 243018, Note_on_c, 0, 61, 42
2, 243118, Control_c, 0, 64, 127
2, 243167, Control_c, 0, 64, 0
2, 243260, Control_c, 0, 64, 127
2, 243419, Note_on_c, 0, 65, 0
2, 243444, Note_on_c, 0, 54, 0
2, 243452, Note_on_c, 0, 58, 0
2, 243483, Note_on_c, 0, 61, 0
2, 243499, Note_on_c, 0, 44, 0
2, 243581, Note_on_c, 0, 61, 52
2, 243583, Note_on_c, 0, 44, 59
2, 243584, Note_on_c, 0, 32, 59
2, 243585, Note_on_c, 0, 54, 65
2, 243589, Note_on_c, 0, 58, 69
2, 243598, Note_on_c, 0, 65, 64
2, 243606, Control_c, 0, 64, 0
2, 243887, Control_c, 0, 64, 127
2, 244057, Note_on_c, 0, 44, 0
2, 244124, Note_on_c, 0, 32, 0
2, 244214, Note_on_c, 0, 43, 62
2, 244326, Control_c, 0, 64, 0
2, 244353, Note_on_c, 0, 43, 0
2, 244470, Note_on_c, 0, 65, 0
2, 244516, Note_on_c, 0, 41, 44
2, 244530, Control_c, 0, 64, 127
2, 244547, Note_on_c, 0, 54, 0
2, 244562, Note_on_c, 0, 61, 0
2, 244581, Note_on_c, 0, 58, 0
2, 244593, Note_on_c, 0, 41, 0
2, 244762, Control_c, 0, 64, 0
2, 244791, Note_on_c, 0, 41, 68
2, 245005, Control_c, 0, 64, 127
2, 245275, Control_c, 0, 64, 0
2, 245289, Note_on_c, 0, 41, 0
2, 245324, Note_on_c, 0, 29, 66
2, 245428, Note_on_c, 0, 29, 0
2, 245441, Control_c, 0, 64, 127
2, 246118, Note_on_c, 0, 63, 45
2, 246122, Note_on_c, 0, 67, 66
2, 246128, Note_on_c, 0, 57, 57
2, 246129, Note_on_c, 0, 62, 61
2, 246212, Control_c, 0, 64, 0
2, 246638, Note_on_c, 0, 90, 51
2, 246670, Note_on_c, 0, 87, 56
2, 246808, Note_on_c, 0, 84, 60
2, 246813, Note_on_c, 0, 90, 0
2, 246857, Note_on_c, 0, 87, 0
2, 246903, Control_c, 0, 64, 127
2, 246911, Note_on_c, 0, 84, 0
2, 246979, Note_on_c, 0, 81, 26
2, 247058, Note_on_c, 0, 81, 0
2, 247129, Note_on_c, 0, 80, 25
2, 247199, Control_c, 0, 64, 0
2, 247210, Note_on_c, 0, 79, 39
2, 247284, Note_on_c, 0, 80, 0
2, 247341, Note_on_c, 0, 79, 0
2, 247356, Note_on_c, 0, 78, 59
2, 247438, Note_on_c, 0, 78, 0
2, 247461, Note_on_c, 0, 77, 53
2, 247585, Note_on_c, 0, 77, 0
2, 247617, Note_on_c, 0, 76, 41
2, 247641, Note_on_c, 0, 67, 0
2, 247690, Note_on_c, 0, 76, 0
2, 247696, Note_on_c, 0, 62, 0
2, 247699, Note_on_c, 0, 63, 0
2, 247727, Note_on_c, 0, 75, 62
2, 247794, Note_on_c, 0, 57, 0
2, 247827, Note_on_c, 0, 75, 0
2, 247864, Note_on_c, 0, 78, 50
2, 247953, Note_on_c, 0, 75, 33
2, 248063, Note_on_c, 0, 78, 0
2, 248103, Note_on_c, 0, 72, 24
2, 248127, Note_on_c, 0, 75, 0
2, 248164, Note_on_c, 0, 72, 0
2, 248218, Note_on_c, 0, 69, 53
2, 248286, Note_on_c, 0, 69, 0
2, 248435, Note_on_c, 0, 67, 48
2, 248575, Note_on_c, 0, 67, 0
2, 248595, Note_on_c, 0, 66, 56
2, 248678, Note_on_c, 0, 66, 0
2, 248723, Note_on_c, 0, 65, 44
2, 248837, Note_on_c, 0, 65, 0
2, 248902, Note_on_c, 0, 64, 36
2, 248967, Note_on_c, 0, 64, 0
2, 248998, Note_on_c, 0, 63, 57
2, 249045, Note_on_c, 0, 51, 40
2, 249067, Note_on_c, 0, 41, 48
2, 249535, Note_on_c, 0, 63, 0
2, 249596, Note_on_c, 0, 57, 62
2, 249705, Note_on_c, 0, 57, 0
2, 249846, Note_on_c, 0, 60, 53
2, 249954, Note_on_c, 0, 60, 0
2, 250086, Note_on_c, 0, 62, 80
2, 250249, Note_on_c, 0, 62, 0
2, 250324, Note_on_c, 0, 63, 62
2, 250394, Control_c, 0, 64, 127
2, 250535, Note_on_c, 0, 63, 0
2, 250554, Note_on_c, 0, 60, 64
2, 250714, Control_c, 0, 64, 0
2, 250716, Note_on_c, 0, 60, 0
2, 250817, Control_c, 0, 64, 127
2, 250819, Note_on_c, 0, 41, 0
2, 250850, Note_on_c, 0, 62, 73
2, 250944, Note_on_c, 0, 51, 0
2, 251002, Note_on_c, 0, 62, 0
2, 251101, Note_on_c, 0, 63, 64
2, 251241, Control_c, 0, 64, 0
2, 251251, Note_on_c, 0, 63, 0
2, 251318, Control_c, 0, 64, 127
2, 251364, Note_on_c, 0, 64, 66
2, 251518, Note_on_c, 0, 64, 0
2, 251625, Control_c, 0, 64, 0
2, 251649, Note_on_c, 0, 62, 71
2, 251668, Note_on_c, 0, 66, 50
2, 251669, Note_on_c, 0, 57, 60
2, 251712, Note_on_c, 0, 46, 46
2, 251995, Control_c, 0, 64, 127
2, 252104, Note_on_c, 0, 46, 0
2, 252205, Note_on_c, 0, 46, 56
2, 252397, Note_on_c, 0, 57, 0
2, 252539, Note_on_c, 0, 57, 49
2, 252611, Note_on_c, 0, 46, 0
2, 253050, Note_on_c, 0, 57, 0
2, 253087, Note_on_c, 0, 62, 0
2, 253088, Note_on_c, 0, 46, 46
2, 253115, Note_on_c, 0, 66, 0
2, 253357, Control_c, 0, 64, 0
2, 253358, Note_on_c, 0, 46, 0
2, 253407, Note_on_c, 0, 45, 50
2, 253410, Note_on_c, 0, 56, 49
2, 253418, Note_on_c, 0, 61, 52
2, 253419, Note_on_c, 0, 65, 53
2, 253549, Note_on_c, 0, 56, 0
2, 253575, Note_on_c, 0, 61, 0
2, 253584, Note_on_c, 0, 65, 0
2, 253601, Note_on_c, 0, 45, 0
2, 253954, Note_on_c, 0, 56, 52
2, 253957, Note_on_c, 0, 45, 58
2, 253962, Note_on_c, 0, 61, 56
2, 253972, Note_on_c, 0, 65, 47
2, 254281, Control_c, 0, 64, 127
2, 254730, Control_c, 0, 64, 0
2, 254755, Control_c, 0, 64, 127
2, 254845, Note_on_c, 0, 45, 0
2, 254854, Note_on_c, 0, 65, 0
2, 254968, Note_on_c, 0, 42, 44
2, 254977, Note_on_c, 0, 38, 18
2, 254978, Note_on_c, 0, 56, 0
2, 254997, Note_on_c, 0, 61, 0
2, 255005, Note_on_c, 0, 40, 32
2, 255021, Note_on_c, 0, 38, 0
2, 255031, Note_on_c, 0, 41, 28
2, 255074, Note_on_c, 0, 41, 0
2, 255080, Note_on_c, 0, 40, 0
2, 255092, Note_on_c, 0, 43, 66
2, 255147, Note_on_c, 0, 42, 0
2, 255180, Control_c, 0, 64, 0
2, 255209, Note_on_c, 0, 44, 87
2, 255223, Note_on_c, 0, 54, 75
2, 255224, Note_on_c, 0, 65, 73
2, 255227, Note_on_c, 0, 60, 77
2, 255238, Note_on_c, 0, 41, 66
2, 255278, Note_on_c, 0, 41, 0
2, 255278, Note_on_c, 0, 43, 0
2, 255796, Control_c, 0, 64, 127
2, 255799, Note_on_c, 0, 32, 58
2, 256000, Control_c, 0, 64, 0
2, 256151, Control_c, 0, 64, 127
2, 256391, Note_on_c, 0, 54, 0
2, 256394, Note_on_c, 0, 60, 0
2, 256443, Note_on_c, 0, 65, 0
2, 256630, Note_on_c, 0, 44, 0
2, 256668, Note_on_c, 0, 32, 0
2, 256729, Note_on_c, 0, 31, 24
2, 256738, Note_on_c, 0, 53, 36
2, 256759, Note_on_c, 0, 65, 34
2, 256762, Note_on_c, 0, 43, 49
2, 256765, Note_on_c, 0, 59, 49
2, 256786, Note_on_c, 0, 62, 37
2, 256847, Control_c, 0, 64, 0
2, 256972, Note_on_c, 0, 53, 0
2, 257067, Note_on_c, 0, 62, 0
2, 257116, Note_on_c, 0, 65, 0
2, 257120, Note_on_c, 0, 59, 0
2, 257388, Note_on_c, 0, 58, 83
2, 257634, Note_on_c, 0, 58, 0
2, 257641, Note_on_c, 0, 59, 71
2, 257778, Note_on_c, 0, 31, 0
2, 257870, Note_on_c, 0, 59, 0
2, 257901, Note_on_c, 0, 62, 82
2, 257999, Note_on_c, 0, 43, 0
2, 258098, Note_on_c, 0, 62, 0
2, 258167, Note_on_c, 0, 65, 78
2, 258337, Note_on_c, 0, 65, 0
2, 258440, Note_on_c, 0, 63, 60
2, 258679, Note_on_c, 0, 63, 0
2, 258719, Note_on_c, 0, 55, 55
2, 258719, Note_on_c, 0, 48, 36
2, 258857, Note_on_c, 0, 55, 0
2, 259129, Control_c, 0, 64, 127
2, 259271, Note_on_c, 0, 60, 62
2, 259355, Note_on_c, 0, 60, 0
2, 259387, Control_c, 0, 64, 0
2, 259427, Note_on_c, 0, 48, 0
2, 259615, Note_on_c, 0, 67, 34
2, 259669, Note_on_c, 0, 67, 0
2, 259863, Note_on_c, 0, 74, 81
2, 260002, Control_c, 0, 64, 127
2, 260004, Note_on_c, 0, 74, 0
2, 260120, Note_on_c, 0, 77, 90
2, 260220, Control_c, 0, 64, 0
2, 260312, Note_on_c, 0, 77, 0
2, 260315, Note_on_c, 0, 45, 46
2, 260369, Note_on_c, 0, 45, 0
2, 260374, Control_c, 0, 64, 127
2, 260388, Note_on_c, 0, 75, 60
2, 260907, Note_on_c, 0, 61, 39
2, 260909, Note_on_c, 0, 60, 41
2, 260915, Note_on_c, 0, 65, 38
2, 260920, Note_on_c, 0, 55, 39
2, 260939, Control_c, 0, 64, 0
2, 261142, Control_c, 0, 64, 127
2, 261211, Note_on_c, 0, 75, 0
2, 261221, Note_on_c, 0, 72, 33
2, 261359, Note_on_c, 0, 65, 0
2, 261377, Note_on_c, 0, 72, 0
2, 261393, Note_on_c, 0, 60, 0
2, 261406, Note_on_c, 0, 61, 0
2, 261462, Note_on_c, 0, 55, 0
2, 261556, Note_on_c, 0, 79, 74
2, 261823, Note_on_c, 0, 76, 65
2, 261836, Note_on_c, 0, 79, 0
2, 262042, Control_c, 0, 64, 0
2, 262083, Note_on_c, 0, 56, 35
2, 262091, Note_on_c, 0, 50, 41
2, 262095, Note_on_c, 0, 60, 32
2, 262313, Control_c, 0, 64, 127
2, 262414, Note_on_c, 0, 77, 71
2, 262473, Note_on_c, 0, 76, 0
2, 262541, Note_on_c, 0, 56, 0
2, 262546, Note_on_c, 0, 50, 0
2, 262616, Note_on_c, 0, 77, 0
2, 262640, Note_on_c, 0, 60, 0
2, 262680, Note_on_c, 0, 79, 84
2, 262928, Control_c, 0, 64, 0
2, 262952, Note_on_c, 0, 65, 62
2, 262963, Note_on_c, 0, 60, 50
2, 262965, Note_on_c, 0, 54, 33
2, 263145, Control_c, 0, 64, 127
2, 263270, Note_on_c, 0, 79, 0
2, 263688, Note_on_c, 0, 60, 0
2, 263716, Note_on_c, 0, 65, 0
2, 263829, Note_on_c, 0, 54, 0
2, 263900, Note_on_c, 0, 53, 27
2, 263907, Note_on_c, 0, 64, 51
2, 263923, Note_on_c, 0, 59, 42
2, 263980, Control_c, 0, 64, 0
2, 264129, Note_on_c, 0, 92, 48
2, 264171, Note_on_c, 0, 92, 0
2, 264265, Note_on_c, 0, 96, 58
2, 264278, Note_on_c, 0, 92, 39
2, 264305, Note_on_c, 0, 64, 0
2, 264363, Note_on_c, 0, 96, 0
2, 264397, Note_on_c, 0, 89, 42
2, 264442, Note_on_c, 0, 92, 0
2, 264469, Note_on_c, 0, 89, 0
2, 264519, Note_on_c, 0, 86, 51
2, 264592, Note_on_c, 0, 86, 0
2, 264679, Note_on_c, 0, 85, 46
2, 264745, Note_on_c, 0, 85, 0
2, 264804, Note_on_c, 0, 84, 24
2, 264909, Note_on_c, 0, 84, 0
2, 264969, Note_on_c, 0, 83, 46
2, 265111, Note_on_c, 0, 59, 0
2, 265114, Note_on_c, 0, 83, 0
2, 265146, Note_on_c, 0, 82, 49
2, 265157, Note_on_c, 0, 53, 0
2, 265249, Note_on_c, 0, 82, 0
2, 265527, Note_on_c, 0, 86, 88
2, 265676, Note_on_c, 0, 86, 0
2, 265756, Note_on_c, 0, 83, 59
2, 265846, Note_on_c, 0, 83, 0
2, 265920, Note_on_c, 0, 84, 49
2, 265941, Note_on_c, 0, 86, 30
2, 265979, Note_on_c, 0, 63, 29
2, 265981, Note_on_c, 0, 62, 41
2, 265982, Note_on_c, 0, 67, 37
2, 265985, Note_on_c, 0, 86, 0
2, 266035, Note_on_c, 0, 58, 19
2, 266069, Note_on_c, 0, 84, 0
2, 266076, Note_on_c, 0, 79, 65
2, 266202, Note_on_c, 0, 79, 0
2, 266272, Note_on_c, 0, 77, 27
2, 266371, Note_on_c, 0, 77, 0
2, 266399, Note_on_c, 0, 75, 53
2, 266518, Note_on_c, 0, 75, 0
2, 266520, Note_on_c, 0, 67, 0
2, 266560, Note_on_c, 0, 74, 44
2, 266671, Note_on_c, 0, 74, 0
2, 266727, Note_on_c, 0, 77, 65
2, 266758, Note_on_c, 0, 63, 0
2, 266880, Note_on_c, 0, 74, 43
2, 266881, Note_on_c, 0, 77, 0
2, 266906, Note_on_c, 0, 62, 0
2, 266974, Note_on_c, 0, 74, 0
2, 267016, Note_on_c, 0, 67, 37
2, 267036, Note_on_c, 0, 63, 45
2, 267048, Note_on_c, 0, 75, 68
2, 267083, Note_on_c, 0, 67, 0
2, 267187, Control_c, 0, 64, 127
2, 267218, Note_on_c, 0, 63, 0
2, 267263, Note_on_c, 0, 67, 68
2, 267309, Note_on_c, 0, 58, 0
2, 267390, Note_on_c, 0, 67, 0
2, 267525, Note_on_c, 0, 67, 67
2, 267610, Note_on_c, 0, 75, 0
2, 267639, Note_on_c, 0, 67, 0
2, 267866, Note_on_c, 0, 56, 39
2, 267869, Note_on_c, 0, 46, 44
2, 267871, Note_on_c, 0, 72, 52
2, 267918, Control_c, 0, 64, 0
2, 268225, Control_c, 0, 64, 127
2, 268332, Note_on_c, 0, 56, 0
2, 268442, Note_on_c, 0, 61, 43
2, 268447, Note_on_c, 0, 65, 58
2, 268470, Control_c, 0, 64, 0
2, 268483, Note_on_c, 0, 56, 40
2, 268649, Control_c, 0, 64, 127
2, 268923, Note_on_c, 0, 46, 0
2, 268999, Note_on_c, 0, 61, 0
2, 269025, Note_on_c, 0, 65, 0
2, 269139, Note_on_c, 0, 72, 0
2, 269364, Note_on_c, 0, 46, 55
2, 269408, Note_on_c, 0, 56, 0
2, 269521, Control_c, 0, 64, 0
2, 269561, Note_on_c, 0, 46, 0
2, 269667, Note_on_c, 0, 45, 66
2, 269688, Control_c, 0, 64, 127
2, 269758, Note_on_c, 0, 45, 0
2, 270243, Note_on_c, 0, 79, 66
2, 270245, Note_on_c, 0, 60, 50
2, 270252, Note_on_c, 0, 65, 60
2, 270253, Note_on_c, 0, 61, 49
2, 270253, Note_on_c, 0, 67, 71
2, 270263, Note_on_c, 0, 55, 57
2, 271046, Note_on_c, 0, 67, 0
2, 271048, Note_on_c, 0, 60, 0
2, 271058, Note_on_c, 0, 65, 0
2, 271091, Note_on_c, 0, 55, 0
2, 271098, Note_on_c, 0, 79, 0
2, 271147, Note_on_c, 0, 61, 0
2, 271562, Note_on_c, 0, 65, 55
2, 271565, Note_on_c, 0, 60, 52
2, 271567, Control_c, 0, 64, 0
2, 271568, Note_on_c, 0, 54, 36
2, 271570, Note_on_c, 0, 58, 37
2, 271796, Control_c, 0, 64, 127
2, 272029, Note_on_c, 0, 65, 0
2, 272045, Note_on_c, 0, 54, 0
2, 272061, Note_on_c, 0, 60, 0
2, 272072, Note_on_c, 0, 58, 0
2, 272178, Note_on_c, 0, 86, 90
2, 272179, Note_on_c, 0, 54, 71
2, 272182, Note_on_c, 0, 82, 78
2, 272183, Note_on_c, 0, 74, 91
2, 272184, Note_on_c, 0, 58, 65
2, 272187, Note_on_c, 0, 60, 71
2, 272189, Note_on_c, 0, 65, 79
2, 272192, Control_c, 0, 64, 0
2, 272359, Control_c, 0, 64, 127
2, 272721, Note_on_c, 0, 86, 0
2, 272727, Note_on_c, 0, 74, 0
2, 272728, Note_on_c, 0, 65, 0
2, 272744, Note_on_c, 0, 60, 0
2, 272750, Note_on_c, 0, 58, 0
2, 272796, Note_on_c, 0, 82, 0
2, 272805, Note_on_c, 0, 54, 0
2, 273224, Note_on_c, 0, 84, 61
2, 273231, Note_on_c, 0, 72, 47
2, 273369, Note_on_c, 0, 72, 0
2, 273398, Note_on_c, 0, 84, 0
2, 273550, Control_c, 0, 64, 0
2, 273572, Note_on_c, 0, 86, 57
2, 273576, Note_on_c, 0, 74, 36
2, 273607, Note_on_c, 0, 55, 43
2, 273782, Control_c, 0, 64, 127
2, 273945, Note_on_c, 0, 86, 0
2, 273955, Note_on_c, 0, 74, 0
2, 274170, Note_on_c, 0, 62, 47
2, 274182, Note_on_c, 0, 82, 38
2, 274190, Note_on_c, 0, 70, 47
2, 274194, Note_on_c, 0, 58, 31
2, 274375, Note_on_c, 0, 70, 0
2, 274386, Note_on_c, 0, 82, 0
2, 274558, Note_on_c, 0, 79, 45
2, 274565, Note_on_c, 0, 67, 40
2, 274810, Note_on_c, 0, 55, 0
2, 274938, Note_on_c, 0, 67, 0
2, 275150, Note_on_c, 0, 55, 37
2, 275161, Note_on_c, 0, 79, 0
2, 275296, Note_on_c, 0, 55, 0
2, 275410, Control_c, 0, 64, 0
2, 275503, Note_on_c, 0, 52, 47
2, 275584, Note_on_c, 0, 62, 0
2, 275630, Control_c, 0, 64, 127
2, 275678, Note_on_c, 0, 58, 0
2, 276053, Note_on_c, 0, 86, 105
2, 276069, Note_on_c, 0, 58, 50
2, 276073, Note_on_c, 0, 62, 65
2, 276155, Control_c, 0, 64, 0
2, 276323, Control_c, 0, 64, 127
2, 276506, Note_on_c, 0, 86, 0
2, 276718, Note_on_c, 0, 86, 85
2, 276783, Note_on_c, 0, 52, 0
2, 276869, Note_on_c, 0, 58, 0
2, 276916, Note_on_c, 0, 86, 0
2, 276999, Note_on_c, 0, 84, 60
2, 277001, Note_on_c, 0, 62, 0
2, 277170, Note_on_c, 0, 84, 0
2, 277310, Control_c, 0, 64, 0
2, 277320, Note_on_c, 0, 55, 53
2, 277322, Note_on_c, 0, 86, 77
2, 277542, Control_c, 0, 64, 127
2, 277562, Note_on_c, 0, 86, 0
2, 277900, Note_on_c, 0, 65, 40
2, 277906, Note_on_c, 0, 84, 61
2, 277922, Note_on_c, 0, 61, 28
2, 278255, Note_on_c, 0, 73, 32
2, 278381, Note_on_c, 0, 55, 0
2, 278822, Note_on_c, 0, 55, 52
2, 278937, Note_on_c, 0, 55, 0
2, 278977, Control_c, 0, 64, 0
2, 279015, Note_on_c, 0, 65, 0
2, 279149, Note_on_c, 0, 61, 0
2, 279152, Note_on_c, 0, 54, 44
2, 279222, Control_c, 0, 64, 127
2, 279233, Note_on_c, 0, 84, 0
2, 279492, Note_on_c, 0, 73, 0
2, 279727, Note_on_c, 0, 64, 45
2, 279749, Note_on_c, 0, 60, 44
2, 279863, Control_c, 0, 64, 0
2, 280070, Note_on_c, 0, 84, 89
2, 280157, Control_c, 0, 64, 127
2, 280251, Note_on_c, 0, 84, 0
2, 280354, Note_on_c, 0, 81, 26
2, 280490, Note_on_c, 0, 81, 0
2, 280497, Note_on_c, 0, 60, 0
2, 280608, Note_on_c, 0, 82, 76
2, 280729, Note_on_c, 0, 64, 0
2, 280762, Note_on_c, 0, 54, 0
2, 280859, Note_on_c, 0, 55, 55
2, 280901, Control_c, 0, 64, 0
2, 281217, Note_on_c, 0, 82, 0
2, 281299, Note_on_c, 0, 81, 69
2, 281441, Control_c, 0, 64, 127
2, 281512, Note_on_c, 0, 81, 0
2, 281553, Note_on_c, 0, 78, 50
2, 281728, Note_on_c, 0, 78, 0
2, 281749, Control_c, 0, 64, 0
2, 281807, Note_on_c, 0, 62, 48
2, 281815, Note_on_c, 0, 79, 71
2, 281847, Note_on_c, 0, 58, 29
2, 282005, Control_c, 0, 64, 127
2, 282350, Note_on_c, 0, 55, 0
2, 282403, Note_on_c, 0, 62, 0
2, 282621, Note_on_c, 0, 58, 0
2, 282718, Note_on_c, 0, 63, 44
2, 282721, Note_on_c, 0, 58, 28
2, 282722, Note_on_c, 0, 52, 53
2, 282801, Control_c, 0, 64, 0
2, 282952, Note_on_c, 0, 79, 0
2, 283090, Note_on_c, 0, 78, 75
2, 283136, Control_c, 0, 64, 127
2, 283335, Note_on_c, 0, 75, 60
2, 283350, Note_on_c, 0, 78, 0
2, 283535, Note_on_c, 0, 63, 0
2, 283553, Note_on_c, 0, 58, 0
2, 283623, Control_c, 0, 64, 0
2, 283626, Note_on_c, 0, 75, 0
2, 283631, Note_on_c, 0, 76, 81
2, 283648, Note_on_c, 0, 63, 37
2, 283669, Note_on_c, 0, 58, 38
2, 283853, Control_c, 0, 64, 127
2, 284138, Note_on_c, 0, 76, 0
2, 284346, Note_on_c, 0, 75, 86
2, 284419, Note_on_c, 0, 52, 0
2, 284426, Note_on_c, 0, 58, 0
2, 284492, Note_on_c, 0, 63, 0
2, 284572, Note_on_c, 0, 75, 0
2, 284600, Note_on_c, 0, 72, 44
2, 284608, Note_on_c, 0, 71, 58
2, 284616, Note_on_c, 0, 63, 31
2, 284631, Note_on_c, 0, 60, 48
2, 284652, Note_on_c, 0, 53, 31
2, 284657, Note_on_c, 0, 56, 37
2, 284673, Control_c, 0, 64, 0
2, 284795, Note_on_c, 0, 72, 0
2, 284816, Note_on_c, 0, 71, 0
2, 284889, Note_on_c, 0, 73, 58
2, 285122, Control_c, 0, 64, 127
2, 285354, Note_on_c, 0, 73, 0
2, 285379, Note_on_c, 0, 63, 0
2, 285434, Note_on_c, 0, 60, 0
2, 285529, Note_on_c, 0, 72, 58
2, 285599, Control_c, 0, 64, 0
2, 285600, Note_on_c, 0, 60, 38
2, 285806, Note_on_c, 0, 68, 53
2, 285841, Control_c, 0, 64, 127
2, 285842, Note_on_c, 0, 60, 0
2, 285948, Note_on_c, 0, 72, 0
2, 285961, Note_on_c, 0, 56, 0
2, 285963, Note_on_c, 0, 53, 0
2, 286004, Note_on_c, 0, 68, 0
2, 286062, Note_on_c, 0, 65, 58
2, 286210, Note_on_c, 0, 65, 0
2, 286297, Note_on_c, 0, 63, 60
2, 286488, Note_on_c, 0, 63, 0
2, 286510, Note_on_c, 0, 56, 31
2, 286515, Note_on_c, 0, 46, 33
2, 286554, Note_on_c, 0, 62, 60
2, 286560, Control_c, 0, 64, 0
2, 286810, Note_on_c, 0, 63, 60
2, 286848, Note_on_c, 0, 62, 0
2, 286913, Note_on_c, 0, 64, 73
2, 286915, Note_on_c, 0, 63, 0
2, 287044, Note_on_c, 0, 64, 0
2, 287065, Note_on_c, 0, 65, 80
2, 287140, Note_on_c, 0, 56, 0
2, 287246, Note_on_c, 0, 65, 0
2, 287299, Note_on_c, 0, 62, 80
2, 287493, Note_on_c, 0, 56, 32
2, 287496, Note_on_c, 0, 62, 0
2, 287546, Note_on_c, 0, 59, 56
2, 287560, Note_on_c, 0, 56, 0
2, 287785, Note_on_c, 0, 56, 57
2, 287818, Control_c, 0, 64, 127
2, 287842, Note_on_c, 0, 59, 0
2, 287889, Note_on_c, 0, 46, 0
2, 287934, Control_c, 0, 64, 0
2, 287990, Note_on_c, 0, 56, 0
2, 288052, Note_on_c, 0, 55, 50
2, 288111, Control_c, 0, 64, 127
2, 288354, Note_on_c, 0, 55, 0
2, 288407, Control_c, 0, 64, 0
2, 288485, Note_on_c, 0, 39, 64
2, 288560, Control_c, 0, 64, 127
2, 288611, Note_on_c, 0, 39, 0
2, 289211, Note_on_c, 0, 60, 83
2, 289211, Note_on_c, 0, 75, 88
2, 289212, Note_on_c, 0, 87, 86
2, 289215, Note_on_c, 0, 61, 74
2, 289218, Note_on_c, 0, 82, 78
2, 289220, Note_on_c, 0, 65, 87
2, 289225, Note_on_c, 0, 56, 70
2, 289244, Control_c, 0, 64, 0
2, 289489, Control_c, 0, 64, 127
2, 290017, Note_on_c, 0, 60, 0
2, 290042, Note_on_c, 0, 65, 0
2, 290047, Note_on_c, 0, 56, 0
2, 290119, Note_on_c, 0, 61, 0
2, 290278, Note_on_c, 0, 87, 0
2, 290292, Note_on_c, 0, 75, 0
2, 290322, Note_on_c, 0, 82, 0
2, 290605, Control_c, 0, 64, 0
2, 290621, Note_on_c, 0, 60, 41
2, 290621, Note_on_c, 0, 65, 60
2, 290650, Note_on_c, 0, 87, 67
2, 290653, Note_on_c, 0, 61, 35
2, 290655, Note_on_c, 0, 75, 60
2, 290655, Note_on_c, 0, 82, 60
2, 290665, Note_on_c, 0, 55, 41
2, 290942, Control_c, 0, 64, 127
2, 291113, Note_on_c, 0, 55, 0
2, 291124, Note_on_c, 0, 65, 0
2, 291127, Note_on_c, 0, 75, 0
2, 291138, Note_on_c, 0, 87, 0
2, 291150, Note_on_c, 0, 82, 0
2, 291166, Note_on_c, 0, 60, 0
2, 291178, Note_on_c, 0, 61, 0
2, 291285, Note_on_c, 0, 65, 55
2, 291289, Note_on_c, 0, 75, 61
2, 291290, Note_on_c, 0, 60, 46
2, 291292, Note_on_c, 0, 55, 50
2, 291293, Note_on_c, 0, 87, 70
2, 291296, Note_on_c, 0, 61, 45
2, 291305, Note_on_c, 0, 82, 60
2, 291450, Note_on_c, 0, 65, 0
2, 291456, Note_on_c, 0, 55, 0
2, 291465, Note_on_c, 0, 87, 0
2, 291495, Note_on_c, 0, 75, 0
2, 291515, Note_on_c, 0, 60, 0
2, 291536, Note_on_c, 0, 61, 0
2, 291547, Note_on_c, 0, 82, 0
2, 291625, Control_c, 0, 64, 0
2, 291643, Note_on_c, 0, 85, 60
2, 291653, Note_on_c, 0, 61, 39
2, 291656, Note_on_c, 0, 65, 64
2, 291657, Note_on_c, 0, 73, 37
2, 291660, Note_on_c, 0, 60, 47
2, 291668, Note_on_c, 0, 80, 58
2, 291671, Note_on_c, 0, 55, 59
2, 291805, Control_c, 0, 64, 127
2, 291888, Note_on_c, 0, 65, 0
2, 291924, Note_on_c, 0, 60, 0
2, 291950, Note_on_c, 0, 55, 0
2, 291957, Note_on_c, 0, 61, 0
2, 292020, Note_on_c, 0, 80, 0
2, 292030, Note_on_c, 0, 73, 0
2, 292139, Note_on_c, 0, 85, 0
2, 292588, Control_c, 0, 64, 0
2, 292604, Note_on_c, 0, 85, 83
2, 292607, Note_on_c, 0, 73, 77
2, 292609, Note_on_c, 0, 48, 77
2, 292610, Note_on_c, 0, 58, 83
2, 292616, Note_on_c, 0, 80, 69
2, 292664, Note_on_c, 0, 80, 0
2, 292681, Note_on_c, 0, 85, 0
2, 292710, Note_on_c, 0, 73, 0
2, 292972, Note_on_c, 0, 60, 60
2, 293014, Note_on_c, 0, 48, 0
2, 293052, Note_on_c, 0, 61, 53
2, 293080, Note_on_c, 0, 60, 0
2, 293089, Note_on_c, 0, 58, 0
2, 293178, Note_on_c, 0, 63, 56
2, 293217, Note_on_c, 0, 61, 0
2, 293262, Note_on_c, 0, 63, 0
2, 293290, Note_on_c, 0, 64, 70
2, 293366, Note_on_c, 0, 64, 0
2, 293418, Note_on_c, 0, 66, 52
2, 293459, Note_on_c, 0, 66, 0
2, 293552, Note_on_c, 0, 67, 51
2, 293640, Note_on_c, 0, 67, 0
2, 293648, Note_on_c, 0, 69, 39
2, 293748, Note_on_c, 0, 70, 60
2, 293751, Note_on_c, 0, 69, 0
2, 293831, Note_on_c, 0, 70, 0
2, 293881, Note_on_c, 0, 72, 55
2, 293977, Note_on_c, 0, 72, 0
2, 293987, Note_on_c, 0, 73, 33
2, 294085, Note_on_c, 0, 75, 44
2, 294092, Note_on_c, 0, 73, 0
2, 294179, Note_on_c, 0, 75, 0
2, 294235, Note_on_c, 0, 76, 62
2, 294314, Note_on_c, 0, 76, 0
2, 294442, Note_on_c, 0, 78, 57
2, 294555, Note_on_c, 0, 78, 0
2, 294667, Note_on_c, 0, 79, 69
2, 294800, Note_on_c, 0, 79, 0
2, 294881, Note_on_c, 0, 81, 67
2, 295036, Note_on_c, 0, 81, 0
2, 295106, Note_on_c, 0, 82, 61
2, 295211, Note_on_c, 0, 82, 0
2, 295299, Note_on_c, 0, 84, 68
2, 295403, Note_on_c, 0, 84, 0
2, 295482, Note_on_c, 0, 85, 57
2, 295679, Note_on_c, 0, 85, 0
2, 295705, Note_on_c, 0, 87, 51
2, 295792, Note_on_c, 0, 87, 0
2, 295836, Note_on_c, 0, 88, 32
2, 295957, Note_on_c, 0, 88, 0
2, 296001, Note_on_c, 0, 91, 68
2, 296113, Note_on_c, 0, 91, 0
2, 296174, Note_on_c, 0, 90, 67
2, 296261, Note_on_c, 0, 53, 29
2, 296279, Note_on_c, 0, 56, 26
2, 296282, Note_on_c, 0, 60, 30
2, 296295, Note_on_c, 0, 90, 0
2, 296377, Note_on_c, 0, 89, 34
2, 296505, Note_on_c, 0, 89, 0
2, 296563, Note_on_c, 0, 84, 31
2, 296650, Note_on_c, 0, 84, 0
2, 296692, Note_on_c, 0, 80, 35
2, 296730, Control_c, 0, 64, 127
2, 296858, Note_on_c, 0, 80, 0
2, 296921, Note_on_c, 0, 79, 31
2, 296982, Note_on_c, 0, 79, 0
2, 297080, Note_on_c, 0, 82, 60
2, 297205, Control_c, 0, 64, 0
2, 297212, Note_on_c, 0, 82, 0
2, 297253, Note_on_c, 0, 65, 40
2, 297275, Note_on_c, 0, 80, 74
2, 297402, Note_on_c, 0, 80, 0
2, 297412, Note_on_c, 0, 65, 0
2, 297477, Note_on_c, 0, 82, 40
2, 297533, Note_on_c, 0, 80, 35
2, 297629, Note_on_c, 0, 82, 0
2, 297665, Note_on_c, 0, 79, 44
2, 297667, Note_on_c, 0, 80, 0
2, 297758, Note_on_c, 0, 79, 0
2, 297860, Note_on_c, 0, 77, 64
2, 297900, Control_c, 0, 64, 127
2, 297993, Note_on_c, 0, 77, 0
2, 298015, Note_on_c, 0, 60, 0
2, 298052, Note_on_c, 0, 75, 71
2, 298099, Note_on_c, 0, 65, 47
2, 298102, Note_on_c, 0, 60, 16
2, 298130, Control_c, 0, 64, 0
2, 298151, Note_on_c, 0, 75, 0
2, 298334, Control_c, 0, 64, 127
2, 298358, Note_on_c, 0, 71, 66
2, 298542, Note_on_c, 0, 53, 0
2, 298797, Note_on_c, 0, 65, 0
2, 298804, Note_on_c, 0, 71, 0
2, 298952, Note_on_c, 0, 71, 59
2, 298956, Note_on_c, 0, 53, 41
2, 299139, Note_on_c, 0, 53, 0
2, 299153, Note_on_c, 0, 71, 0
2, 299336, Note_on_c, 0, 60, 0
2, 299407, Note_on_c, 0, 56, 0
2, 299546, Note_on_c, 0, 53, 35
2, 299674, Note_on_c, 0, 53, 0
2, 299865, Note_on_c, 0, 70, 57
2, 299874, Note_on_c, 0, 58, 62
2, 299878, Note_on_c, 0, 63, 38
2, 299883, Note_on_c, 0, 59, 41
2, 299884, Note_on_c, 0, 67, 49
2, 299964, Control_c, 0, 64, 0
2, 299969, Note_on_c, 0, 63, 0
2, 299972, Note_on_c, 0, 59, 0
2, 299985, Note_on_c, 0, 67, 0
2, 299994, Note_on_c, 0, 70, 0
2, 300002, Note_on_c, 0, 58, 0
2, 300151, Note_on_c, 0, 70, 57
2, 300177, Note_on_c, 0, 59, 37
2, 300179, Note_on_c, 0, 58, 52
2, 300293, Note_on_c, 0, 59, 0
2, 300316, Note_on_c, 0, 70, 0
2, 300374, Note_on_c, 0, 58, 0
2, 300445, Note_on_c, 0, 56, 40
2, 300663, Note_on_c, 0, 56, 0
2, 300737, Note_on_c, 0, 59, 62
2, 300741, Note_on_c, 0, 63, 38
2, 300741, Note_on_c, 0, 67, 53
2, 300743, Note_on_c, 0, 70, 46
2, 300757, Note_on_c, 0, 58, 42
2, 300779, Note_on_c, 0, 49, 25
2, 300887, Control_c, 0, 64, 127
2, 301120, Note_on_c, 0, 67, 0
2, 301157, Note_on_c, 0, 59, 0
2, 301181, Note_on_c, 0, 63, 0
2, 301242, Note_on_c, 0, 58, 0
2, 301244, Note_on_c, 0, 49, 0
2, 301268, Note_on_c, 0, 70, 0
2, 301331, Note_on_c, 0, 68, 51
2, 301350, Note_on_c, 0, 63, 49
2, 301351, Note_on_c, 0, 59, 51
2, 301357, Note_on_c, 0, 56, 37
2, 301357, Note_on_c, 0, 49, 40
2, 301513, Note_on_c, 0, 56, 0
2, 301543, Note_on_c, 0, 68, 0
2, 301585, Note_on_c, 0, 63, 0
2, 301591, Note_on_c, 0, 59, 0
2, 301602, Note_on_c, 0, 49, 0
2, 301953, Control_c, 0, 64, 0
2, 301971, Note_on_c, 0, 54, 65
2, 301978, Note_on_c, 0, 63, 53
2, 301999, Note_on_c, 0, 44, 49
2, 302008, Note_on_c, 0, 59, 55
2, 302194, Control_c, 0, 64, 127
2, 302457, Note_on_c, 0, 59, 0
2, 302486, Note_on_c, 0, 63, 0
2, 302495, Note_on_c, 0, 54, 0
2, 302557, Control_c, 0, 64, 0
2, 302590, Note_on_c, 0, 53, 55
2, 302603, Note_on_c, 0, 63, 33
2, 302605, Note_on_c, 0, 59, 56
2, 302618, Note_on_c, 0, 37, 38
2, 302628, Note_on_c, 0, 44, 0
2, 302827, Control_c, 0, 64, 127
2, 303054, Note_on_c, 0, 53, 0
2, 303088, Note_on_c, 0, 59, 0
2, 303132, Note_on_c, 0, 63, 0
2, 303222, Note_on_c, 0, 44, 55
2, 303244, Note_on_c, 0, 37, 0
2, 303323, Note_on_c, 0, 44, 0
2, 303537, Note_on_c, 0, 63, 85
2, 303539, Note_on_c, 0, 58, 95
2, 303544, Control_c, 0, 64, 0
2, 303548, Note_on_c, 0, 67, 84
2, 303549, Note_on_c, 0, 46, 74
2, 303879, Control_c, 0, 64, 127
2, 304001, Note_on_c, 0, 46, 0
2, 304129, Note_on_c, 0, 46, 49
2, 304372, Note_on_c, 0, 46, 0
2, 304434, Note_on_c, 0, 58, 0
2, 304515, Note_on_c, 0, 63, 0
2, 304520, Note_on_c, 0, 46, 42
2, 304779, Note_on_c, 0, 46, 0
2, 304867, Note_on_c, 0, 67, 0
2, 305087, Note_on_c, 0, 63, 46
2, 305100, Note_on_c, 0, 58, 52
2, 305108, Note_on_c, 0, 55, 45
2, 305121, Control_c, 0, 64, 0
2, 305124, Note_on_c, 0, 46, 39
2, 305300, Control_c, 0, 64, 127
2, 305600, Note_on_c, 0, 55, 0
2, 305651, Note_on_c, 0, 46, 0
2, 305663, Note_on_c, 0, 58, 0
2, 305872, Note_on_c, 0, 63, 0
2, 306098, Note_on_c, 0, 46, 44
2, 306264, Note_on_c, 0, 46, 0
2, 306452, Note_on_c, 0, 74, 108
2, 306640, Note_on_c, 0, 74, 0
2, 306734, Note_on_c, 0, 75, 83
2, 306908, Note_on_c, 0, 75, 0
2, 307030, Note_on_c, 0, 79, 87
2, 307308, Note_on_c, 0, 63, 38
2, 307308, Note_on_c, 0, 62, 30
2, 307320, Note_on_c, 0, 67, 30
2, 307323, Note_on_c, 0, 57, 34
2, 307350, Note_on_c, 0, 74, 51
2, 307354, Control_c, 0, 64, 0
2, 307752, Control_c, 0, 64, 127
2, 307953, Note_on_c, 0, 74, 0
2, 307960, Note_on_c, 0, 79, 0
2, 307966, Note_on_c, 0, 71, 53
2, 308119, Note_on_c, 0, 71, 0
2, 308253, Control_c, 0, 64, 0
2, 308311, Note_on_c, 0, 74, 96
2, 308553, Note_on_c, 0, 73, 51
2, 308606, Note_on_c, 0, 74, 0
2, 308634, Note_on_c, 0, 67, 0
2, 308660, Note_on_c, 0, 72, 46
2, 308727, Note_on_c, 0, 73, 0
2, 308795, Note_on_c, 0, 71, 54
2, 308829, Note_on_c, 0, 72, 0
2, 308873, Note_on_c, 0, 63, 0
2, 308955, Note_on_c, 0, 71, 0
2, 309051, Note_on_c, 0, 62, 0
2, 309164, Note_on_c, 0, 68, 67
2, 309377, Note_on_c, 0, 68, 0
2, 309387, Note_on_c, 0, 71, 58
2, 309595, Note_on_c, 0, 71, 0
2, 309659, Note_on_c, 0, 57, 0
2, 309725, Note_on_c, 0, 69, 54
2, 309934, Note_on_c, 0, 69, 0
2, 310025, Control_c, 0, 64, 127
2, 310389, Note_on_c, 0, 62, 64
2, 310584, Note_on_c, 0, 62, 0
2, 310754, Note_on_c, 0, 62, 22
2, 310831, Note_on_c, 0, 62, 0
2, 311021, Note_on_c, 0, 56, 55
2, 311024, Note_on_c, 0, 65, 57
2, 311025, Note_on_c, 0, 63, 40
2, 311035, Control_c, 0, 64, 0
2, 311550, Control_c, 0, 64, 127
2, 311621, Note_on_c, 0, 46, 49
2, 311876, Note_on_c, 0, 46, 0
2, 311962, Note_on_c, 0, 56, 0
2, 311991, Note_on_c, 0, 46, 46
2, 312234, Note_on_c, 0, 65, 0
2, 312261, Note_on_c, 0, 63, 0
2, 312445, Note_on_c, 0, 46, 0
2, 312551, Note_on_c, 0, 46, 42
2, 312573, Note_on_c, 0, 63, 39
2, 312578, Note_on_c, 0, 56, 34
2, 312580, Note_on_c, 0, 60, 58
2, 312584, Note_on_c, 0, 65, 37
2, 312627, Control_c, 0, 64, 0
2, 312895, Control_c, 0, 64, 127
2, 312931, Note_on_c, 0, 60, 0
2, 313036, Note_on_c, 0, 63, 0
2, 313118, Note_on_c, 0, 46, 0
2, 313161, Note_on_c, 0, 65, 0
2, 313169, Note_on_c, 0, 56, 0
2, 313485, Note_on_c, 0, 63, 71
2, 313489, Note_on_c, 0, 56, 46
2, 313494, Note_on_c, 0, 59, 71
2, 313506, Note_on_c, 0, 47, 35
2, 313552, Control_c, 0, 64, 0
2, 313833, Control_c, 0, 64, 127
2, 314092, Note_on_c, 0, 56, 0
2, 314125, Note_on_c, 0, 63, 0
2, 314164, Note_on_c, 0, 62, 64
2, 314166, Note_on_c, 0, 47, 0
2, 314307, Control_c, 0, 64, 0
2, 314412, Control_c, 0, 64, 127
2, 314428, Note_on_c, 0, 47, 48
2, 314477, Note_on_c, 0, 59, 0
2, 314579, Note_on_c, 0, 62, 0
2, 314732, Control_c, 0, 64, 0
2, 314740, Note_on_c, 0, 47, 0
2, 314769, Note_on_c, 0, 63, 36
2, 314778, Note_on_c, 0, 48, 46
2, 314780, Note_on_c, 0, 55, 43
2, 314791, Note_on_c, 0, 60, 36
2, 315027, Control_c, 0, 64, 127
2, 315056, Note_on_c, 0, 55, 0
2, 315222, Note_on_c, 0, 60, 0
2, 315280, Note_on_c, 0, 63, 0
2, 315412, Note_on_c, 0, 36, 38
2, 315453, Note_on_c, 0, 48, 0
2, 315465, Note_on_c, 0, 36, 0
2, 315703, Note_on_c, 0, 87, 74
2, 315711, Note_on_c, 0, 75, 69
2, 316350, Note_on_c, 0, 87, 0
2, 316371, Note_on_c, 0, 75, 0
2, 316604, Control_c, 0, 64, 0
2, 316648, Note_on_c, 0, 75, 71
2, 316650, Note_on_c, 0, 33, 72
2, 316652, Note_on_c, 0, 87, 76
2, 316737, Note_on_c, 0, 33, 0
2, 316796, Control_c, 0, 64, 127
2, 317269, Note_on_c, 0, 65, 69
2, 317279, Note_on_c, 0, 60, 54
2, 317287, Note_on_c, 0, 61, 51
2, 317311, Note_on_c, 0, 55, 51
2, 317750, Note_on_c, 0, 65, 0
2, 317789, Note_on_c, 0, 61, 0
2, 317793, Note_on_c, 0, 55, 0
2, 317814, Note_on_c, 0, 60, 0
2, 318015, Note_on_c, 0, 75, 0
2, 318035, Note_on_c, 0, 87, 0
2, 318086, Note_on_c, 0, 86, 58
2, 318229, Note_on_c, 0, 86, 0
2, 318347, Note_on_c, 0, 87, 67
2, 318352, Note_on_c, 0, 75, 57
2, 318462, Note_on_c, 0, 75, 0
2, 318491, Control_c, 0, 64, 0
2, 318525, Note_on_c, 0, 87, 0
2, 318567, Note_on_c, 0, 38, 55
2, 318631, Control_c, 0, 64, 127
2, 318674, Note_on_c, 0, 38, 0
2, 318731, Note_on_c, 0, 91, 35
2, 318781, Note_on_c, 0, 89, 34
2, 318905, Note_on_c, 0, 89, 0
2, 318919, Note_on_c, 0, 91, 0
2, 319207, Note_on_c, 0, 65, 63
2, 319214, Note_on_c, 0, 60, 53
2, 319218, Note_on_c, 0, 54, 43
2, 319227, Note_on_c, 0, 58, 38
2, 319632, Note_on_c, 0, 65, 0
2, 319648, Note_on_c, 0, 60, 0
2, 319683, Note_on_c, 0, 54, 0
2, 319708, Note_on_c, 0, 58, 0
2, 320455, Control_c, 0, 64, 0
2, 320494, Note_on_c, 0, 31, 56
2, 320544, Note_on_c, 0, 31, 0
2, 320621, Control_c, 0, 64, 127
2, 321086, Note_on_c, 0, 63, 47
2, 321116, Note_on_c, 0, 53, 31
2, 321117, Note_on_c, 0, 56, 36
2, 321125, Note_on_c, 0, 59, 45
2, 321427, Note_on_c, 0, 94, 85
2, 321517, Note_on_c, 0, 59, 0
2, 321527, Note_on_c, 0, 63, 0
2, 321584, Note_on_c, 0, 94, 0
2, 321590, Note_on_c, 0, 56, 0
2, 321619, Note_on_c, 0, 53, 0
2, 321708, Note_on_c, 0, 92, 69
2, 321848, Note_on_c, 0, 92, 0
2, 321964, Note_on_c, 0, 87, 63
2, 322158, Control_c, 0, 64, 0
2, 322159, Note_on_c, 0, 87, 0
2, 322186, Note_on_c, 0, 83, 47
2, 322207, Note_on_c, 0, 48, 55
2, 322416, Note_on_c, 0, 83, 0
2, 322443, Control_c, 0, 64, 127
2, 322487, Note_on_c, 0, 89, 71
2, 322551, Note_on_c, 0, 48, 0
2, 322666, Note_on_c, 0, 89, 0
2, 322804, Note_on_c, 0, 87, 71
2, 322865, Note_on_c, 0, 67, 35
2, 322877, Note_on_c, 0, 63, 46
2, 322894, Note_on_c, 0, 62, 33
2, 322978, Note_on_c, 0, 58, 25
2, 323108, Note_on_c, 0, 79, 59
2, 323269, Note_on_c, 0, 79, 0
2, 323454, Note_on_c, 0, 79, 64
2, 323483, Note_on_c, 0, 87, 0
2, 323596, Note_on_c, 0, 79, 0
2, 323701, Note_on_c, 0, 79, 54
2, 323847, Note_on_c, 0, 79, 0
2, 323863, Note_on_c, 0, 58, 0
2, 324003, Note_on_c, 0, 79, 57
2, 324167, Note_on_c, 0, 62, 0
2, 324289, Control_c, 0, 64, 0
2, 324329, Note_on_c, 0, 58, 50
2, 324376, Note_on_c, 0, 67, 0
2, 324386, Note_on_c, 0, 63, 0
2, 324507, Control_c, 0, 64, 127
2, 324908, Note_on_c, 0, 63, 47
2, 324925, Note_on_c, 0, 67, 38
2, 325570, Note_on_c, 0, 79, 0
2, 325664, Note_on_c, 0, 67, 0
2, 325796, Note_on_c, 0, 58, 0
2, 325807, Note_on_c, 0, 63, 0
2, 325855, Note_on_c, 0, 84, 118
2, 326079, Note_on_c, 0, 84, 0
2, 326167, Note_on_c, 0, 91, 91
2, 326178, Note_on_c, 0, 61, 53
2, 326190, Note_on_c, 0, 60, 44
2, 326191, Note_on_c, 0, 65, 51
2, 326203, Note_on_c, 0, 55, 55
2, 326278, Control_c, 0, 64, 0
2, 326392, Note_on_c, 0, 91, 0
2, 326478, Note_on_c, 0, 87, 64
2, 326610, Note_on_c, 0, 87, 0
2, 326710, Note_on_c, 0, 84, 69
2, 326847, Note_on_c, 0, 84, 0
2, 326936, Note_on_c, 0, 79, 57
2, 327059, Note_on_c, 0, 79, 0
2, 327150, Note_on_c, 0, 78, 59
2, 327323, Note_on_c, 0, 78, 0
2, 327369, Note_on_c, 0, 77, 47
2, 327469, Note_on_c, 0, 60, 0
2, 327495, Note_on_c, 0, 55, 0
2, 327506, Note_on_c, 0, 77, 0
2, 327583, Note_on_c, 0, 75, 58
2, 327775, Note_on_c, 0, 65, 0
2, 327777, Note_on_c, 0, 75, 0
2, 327791, Control_c, 0, 64, 127
2, 327811, Note_on_c, 0, 72, 31
2, 327871, Note_on_c, 0, 61, 0
2, 327924, Note_on_c, 0, 72, 0
2, 328010, Control_c, 0, 64, 0
2, 328019, Note_on_c, 0, 54, 40
2, 328033, Note_on_c, 0, 65, 31
2, 328045, Note_on_c, 0, 60, 42
2, 328048, Note_on_c, 0, 74, 69
2, 328263, Note_on_c, 0, 74, 0
2, 328327, Note_on_c, 0, 75, 43
2, 328382, Note_on_c, 0, 74, 46
2, 328500, Note_on_c, 0, 75, 0
2, 328527, Note_on_c, 0, 72, 32
2, 328566, Note_on_c, 0, 74, 0
2, 328716, Note_on_c, 0, 72, 0
2, 328808, Note_on_c, 0, 70, 63
2, 328943, Note_on_c, 0, 65, 0
2, 328973, Note_on_c, 0, 70, 0
2, 329047, Note_on_c, 0, 69, 50
2, 329268, Note_on_c, 0, 69, 0
2, 329280, Note_on_c, 0, 72, 58
2, 329330, Note_on_c, 0, 60, 0
2, 329498, Note_on_c, 0, 70, 62
2, 329500, Note_on_c, 0, 54, 0
2, 329518, Note_on_c, 0, 72, 0
2, 329528, Control_c, 0, 64, 127
2, 329680, Note_on_c, 0, 70, 0
2, 329761, Note_on_c, 0, 66, 51
2, 329823, Control_c, 0, 64, 0
2, 329875, Note_on_c, 0, 66, 0
2, 329902, Note_on_c, 0, 55, 32
2, 329907, Note_on_c, 0, 62, 41
2, 329920, Note_on_c, 0, 58, 36
2, 329951, Note_on_c, 0, 69, 70
2, 330173, Note_on_c, 0, 69, 0
2, 330234, Note_on_c, 0, 66, 39
2, 330291, Note_on_c, 0, 62, 0
2, 330314, Note_on_c, 0, 66, 0
2, 330351, Note_on_c, 0, 58, 0
2, 330420, Note_on_c, 0, 67, 66
2, 330434, Note_on_c, 0, 55, 0
2, 330611, Note_on_c, 0, 67, 0
2, 330673, Note_on_c, 0, 62, 66
2, 330760, Control_c, 0, 64, 127
2, 330826, Note_on_c, 0, 62, 0
2, 330887, Control_c, 0, 64, 0
2, 330896, Note_on_c, 0, 58, 60
2, 330902, Note_on_c, 0, 50, 38
2, 330927, Note_on_c, 0, 43, 37
2, 331043, Control_c, 0, 64, 127
2, 331075, Note_on_c, 0, 50, 0
2, 331158, Note_on_c, 0, 43, 0
2, 331443, Note_on_c, 0, 55, 45
2, 331473, Note_on_c, 0, 58, 0
2, 331525, Note_on_c, 0, 55, 0
2, 331708, Control_c, 0, 64, 0
2, 331735, Note_on_c, 0, 47, 24
2, 331739, Note_on_c, 0, 40, 36
2, 331781, Note_on_c, 0, 55, 47
2, 331913, Control_c, 0, 64, 127
2, 331980, Note_on_c, 0, 40, 0
2, 332046, Note_on_c, 0, 47, 0
2, 332118, Note_on_c, 0, 55, 0
2, 332517, Note_on_c, 0, 62, 51
2, 332534, Note_on_c, 0, 52, 48
2, 332536, Note_on_c, 0, 57, 36
2, 332539, Note_on_c, 0, 58, 37
2, 332627, Note_on_c, 0, 62, 0
2, 332677, Note_on_c, 0, 58, 0
2, 332707, Note_on_c, 0, 52, 0
2, 332742, Note_on_c, 0, 57, 0
2, 332759, Note_on_c, 0, 62, 53
2, 332773, Control_c, 0, 64, 0
2, 332845, Note_on_c, 0, 62, 0
2, 332969, Note_on_c, 0, 67, 62
2, 333086, Note_on_c, 0, 67, 0
2, 333197, Control_c, 0, 64, 127
2, 333198, Note_on_c, 0, 69, 87
2, 333362, Note_on_c, 0, 69, 0
2, 333421, Note_on_c, 0, 70, 83
2, 333579, Note_on_c, 0, 65, 42
2, 333580, Note_on_c, 0, 61, 38
2, 333606, Control_c, 0, 64, 0
2, 333629, Note_on_c, 0, 55, 25
2, 333652, Note_on_c, 0, 70, 0
2, 333670, Note_on_c, 0, 69, 68
2, 333702, Note_on_c, 0, 60, 3
2, 333954, Control_c, 0, 64, 127
2, 334233, Note_on_c, 0, 60, 0
2, 334256, Note_on_c, 0, 65, 0
2, 334299, Note_on_c, 0, 55, 0
2, 334345, Note_on_c, 0, 61, 0
2, 334518, Note_on_c, 0, 65, 48
2, 334523, Note_on_c, 0, 55, 36
2, 334533, Note_on_c, 0, 61, 23
2, 334538, Note_on_c, 0, 60, 33
2, 334961, Note_on_c, 0, 60, 0
2, 335017, Note_on_c, 0, 55, 0
2, 335094, Note_on_c, 0, 65, 0
2, 335275, Note_on_c, 0, 61, 0
2, 335454, Note_on_c, 0, 69, 0
2, 335459, Note_on_c, 0, 54, 27
2, 335465, Note_on_c, 0, 64, 36
2, 335476, Note_on_c, 0, 60, 33
2, 335572, Control_c, 0, 64, 0
2, 335735, Note_on_c, 0, 67, 34
2, 335787, Note_on_c, 0, 68, 48
2, 335817, Note_on_c, 0, 67, 0
2, 335872, Note_on_c, 0, 68, 0
2, 335889, Note_on_c, 0, 69, 57
2, 336001, Note_on_c, 0, 69, 0
2, 336140, Note_on_c, 0, 72, 91
2, 336148, Note_on_c, 0, 64, 0
2, 336178, Note_on_c, 0, 60, 0
2, 336339, Note_on_c, 0, 72, 0
2, 336453, Note_on_c, 0, 74, 94
2, 336463, Note_on_c, 0, 64, 45
2, 336468, Note_on_c, 0, 60, 48
2, 336717, Note_on_c, 0, 74, 0
2, 336748, Note_on_c, 0, 72, 53
2, 336886, Note_on_c, 0, 72, 0
2, 336909, Note_on_c, 0, 60, 0
2, 336994, Control_c, 0, 64, 127
2, 337012, Note_on_c, 0, 64, 0
2, 337028, Note_on_c, 0, 74, 95
2, 337166, Note_on_c, 0, 54, 0
2, 337303, Note_on_c, 0, 74, 0
2, 337330, Note_on_c, 0, 55, 40
2, 337331, Note_on_c, 0, 62, 36
2, 337353, Control_c, 0, 64, 0
2, 337354, Note_on_c, 0, 72, 58
2, 337354, Note_on_c, 0, 58, 33
2, 337582, Note_on_c, 0, 72, 0
2, 337671, Note_on_c, 0, 70, 45
2, 337872, Note_on_c, 0, 70, 0
2, 337879, Control_c, 0, 64, 127
2, 337897, Note_on_c, 0, 62, 0
2, 337940, Note_on_c, 0, 67, 55
2, 337959, Note_on_c, 0, 58, 0
2, 338258, Note_on_c, 0, 62, 51
2, 338267, Note_on_c, 0, 58, 46
2, 338356, Note_on_c, 0, 62, 0
2, 338409, Note_on_c, 0, 58, 0
2, 338451, Note_on_c, 0, 55, 0
2, 338803, Control_c, 0, 64, 0
2, 338851, Note_on_c, 0, 56, 79
2, 338969, Control_c, 0, 64, 127
2, 338989, Note_on_c, 0, 67, 0
2, 339043, Note_on_c, 0, 56, 0
2, 339056, Note_on_c, 0, 55, 71
2, 339265, Control_c, 0, 64, 0
2, 339272, Note_on_c, 0, 55, 0
2, 339312, Note_on_c, 0, 70, 67
2, 339319, Note_on_c, 0, 64, 68
2, 339345, Note_on_c, 0, 54, 62
2, 339546, Control_c, 0, 64, 127
2, 339996, Note_on_c, 0, 70, 0
2, 340003, Note_on_c, 0, 64, 0
2, 340263, Note_on_c, 0, 63, 48
2, 340269, Note_on_c, 0, 70, 47
2, 340283, Note_on_c, 0, 64, 52
2, 340388, Note_on_c, 0, 64, 0
2, 340470, Note_on_c, 0, 70, 0
2, 340561, Note_on_c, 0, 65, 51
2, 340658, Note_on_c, 0, 65, 0
2, 340663, Note_on_c, 0, 54, 0
2, 340678, Note_on_c, 0, 67, 58
2, 340758, Note_on_c, 0, 63, 0
2, 340810, Note_on_c, 0, 68, 49
2, 340824, Note_on_c, 0, 67, 0
2, 340857, Control_c, 0, 64, 0
2, 340876, Note_on_c, 0, 70, 55
2, 340890, Note_on_c, 0, 68, 0
2, 340950, Note_on_c, 0, 70, 0
2, 341017, Note_on_c, 0, 72, 49
2, 341113, Note_on_c, 0, 63, 23
2, 341138, Note_on_c, 0, 53, 35
2, 341144, Note_on_c, 0, 60, 44
2, 341150, Note_on_c, 0, 74, 58
2, 341155, Note_on_c, 0, 72, 0
2, 341243, Note_on_c, 0, 74, 0
2, 341274, Note_on_c, 0, 75, 51
2, 341319, Note_on_c, 0, 75, 0
2, 341384, Note_on_c, 0, 77, 48
2, 341537, Note_on_c, 0, 77, 0
2, 341549, Note_on_c, 0, 79, 33
2, 341624, Note_on_c, 0, 80, 34
2, 341626, Note_on_c, 0, 79, 0
2, 341687, Note_on_c, 0, 80, 0
2, 341694, Note_on_c, 0, 60, 0
2, 341713, Note_on_c, 0, 82, 39
2, 341730, Note_on_c, 0, 53, 0
2, 341730, Note_on_c, 0, 63, 0
2, 341757, Note_on_c, 0, 82, 0
2, 341781, Control_c, 0, 64, 127
2, 341830, Note_on_c, 0, 84, 36
2, 341945, Note_on_c, 0, 84, 0
2, 341958, Note_on_c, 0, 86, 64
2, 342048, Note_on_c, 0, 86, 0
2, 342061, Note_on_c, 0, 87, 62
2, 342102, Control_c, 0, 64, 0
2, 342138, Note_on_c, 0, 87, 0
2, 342185, Note_on_c, 0, 67, 25
2, 342197, Note_on_c, 0, 89, 49
2, 342210, Note_on_c, 0, 63, 19
2, 342218, Note_on_c, 0, 56, 18
2, 342221, Note_on_c, 0, 60, 33
2, 342294, Control_c, 0, 64, 127
2, 342348, Note_on_c, 0, 89, 0
2, 342348, Note_on_c, 0, 91, 49
2, 342387, Note_on_c, 0, 67, 0
2, 342443, Note_on_c, 0, 60, 0
2, 342461, Note_on_c, 0, 92, 53
2, 342474, Note_on_c, 0, 91, 0
2, 342478, Note_on_c, 0, 63, 0
2, 342534, Note_on_c, 0, 56, 0
2, 342549, Note_on_c, 0, 92, 0
2, 342577, Note_on_c, 0, 94, 28
2, 342619, Note_on_c, 0, 94, 0
2, 342689, Note_on_c, 0, 96, 46
2, 342783, Note_on_c, 0, 96, 0
2, 342812, Note_on_c, 0, 98, 40
2, 342924, Note_on_c, 0, 99, 53
2, 342936, Note_on_c, 0, 98, 0
2, 343035, Note_on_c, 0, 99, 0
2, 343042, Note_on_c, 0, 100, 58
2, 343088, Note_on_c, 0, 100, 0
2, 343151, Control_c, 0, 64, 0
2, 343188, Note_on_c, 0, 46, 64
2, 343213, Note_on_c, 0, 101, 49
2, 343216, Note_on_c, 0, 103, 54
2, 343345, Control_c, 0, 64, 127
2, 343347, Note_on_c, 0, 103, 0
2, 343414, Note_on_c, 0, 101, 0
2, 343883, Note_on_c, 0, 56, 47
2, 344410, Note_on_c, 0, 53, 30
2, 344455, Note_on_c, 0, 56, 0
2, 344655, Note_on_c, 0, 56, 33
2, 344661, Note_on_c, 0, 70, 35
2, 344662, Note_on_c, 0, 63, 34
2, 344662, Note_on_c, 0, 60, 31
2, 344675, Note_on_c, 0, 65, 38
2, 344726, Note_on_c, 0, 53, 0
2, 345753, Note_on_c, 0, 70, 0
2, 345847, Note_on_c, 0, 60, 0
2, 345881, Note_on_c, 0, 65, 0
2, 345900, Note_on_c, 0, 70, 77
2, 346009, Note_on_c, 0, 63, 0
2, 346038, Note_on_c, 0, 46, 0
2, 346079, Note_on_c, 0, 56, 0
2, 346185, Note_on_c, 0, 70, 0
2, 346573, Note_on_c, 0, 67, 46
2, 346589, Note_on_c, 0, 59, 44
2, 346592, Note_on_c, 0, 64, 45
2, 346604, Note_on_c, 0, 62, 49
2, 346610, Note_on_c, 0, 56, 30
2, 346622, Note_on_c, 0, 58, 37
2, 346666, Control_c, 0, 64, 0
2, 346926, Control_c, 0, 64, 127
2, 347152, Note_on_c, 0, 67, 0
2, 347390, Note_on_c, 0, 67, 57
2, 347697, Note_on_c, 0, 59, 0
2, 347771, Note_on_c, 0, 64, 0
2, 347778, Note_on_c, 0, 62, 0
2, 347816, Note_on_c, 0, 67, 0
2, 348454, Note_on_c, 0, 58, 0
2, 348491, Note_on_c, 0, 56, 0
2, 350162, Note_on_c, 0, 37, 60
2, 350173, Note_on_c, 0, 60, 82
2, 350176, Note_on_c, 0, 65, 74
2, 350184, Note_on_c, 0, 44, 63
2, 350189, Note_on_c, 0, 53, 80
2, 350195, Control_c, 0, 64, 0
2, 350349, Control_c, 0, 64, 127
2, 350435, Note_on_c, 0, 65, 0
2, 350471, Note_on_c, 0, 53, 0
2, 350534, Note_on_c, 0, 60, 0
2, 350544, Note_on_c, 0, 37, 0
2, 350591, Note_on_c, 0, 44, 0
2, 350700, Note_on_c, 0, 61, 76
2, 350701, Note_on_c, 0, 66, 77
2, 350705, Note_on_c, 0, 38, 67
2, 350706, Note_on_c, 0, 54, 75
2, 350708, Note_on_c, 0, 45, 71
2, 350711, Control_c, 0, 64, 0
2, 350905, Control_c, 0, 64, 127
2, 351010, Note_on_c, 0, 38, 0
2, 351050, Note_on_c, 0, 45, 0
2, 351105, Note_on_c, 0, 54, 0
2, 351169, Note_on_c, 0, 61, 0
2, 351184, Note_on_c, 0, 66, 0
2, 351881, Control_c, 0, 64, 0
2, 351941, Note_on_c, 0, 67, 69
2, 351957, Note_on_c, 0, 61, 62
2, 351963, Note_on_c, 0, 39, 52
2, 351964, Note_on_c, 0, 55, 58
2, 351972, Note_on_c, 0, 46, 48
2, 352136, Control_c, 0, 64, 127
2, 352153, Note_on_c, 0, 55, 0
2, 352266, Note_on_c, 0, 39, 0
2, 352277, Note_on_c, 0, 61, 0
2, 352313, Note_on_c, 0, 67, 0
2, 352319, Note_on_c, 0, 46, 0
2, 352855, Note_on_c, 0, 87, 85
2, 352860, Note_on_c, 0, 61, 69
2, 352867, Note_on_c, 0, 56, 71
2, 352867, Note_on_c, 0, 60, 73
2, 352869, Note_on_c, 0, 75, 91
2, 352872, Note_on_c, 0, 82, 84
2, 352873, Note_on_c, 0, 65, 80
2, 353335, Note_on_c, 0, 75, 0
2, 353349, Note_on_c, 0, 87, 0
2, 353356, Note_on_c, 0, 56, 0
2, 353360, Note_on_c, 0, 82, 0
2, 353361, Note_on_c, 0, 65, 0
2, 353362, Note_on_c, 0, 60, 0
2, 353461, Note_on_c, 0, 61, 0
2, 353592, Note_on_c, 0, 82, 83
2, 353594, Note_on_c, 0, 87, 82
2, 353598, Note_on_c, 0, 75, 88
2, 353603, Note_on_c, 0, 65, 82
2, 353603, Note_on_c, 0, 61, 65
2, 353607, Note_on_c, 0, 56, 73
2, 353611, Note_on_c, 0, 60, 70
2, 353635, Note_on_c, 0, 58, 45
2, 354048, Note_on_c, 0, 87, 0
2, 354094, Note_on_c, 0, 65, 0
2, 354110, Note_on_c, 0, 56, 0
2, 354116, Note_on_c, 0, 60, 0
2, 354119, Note_on_c, 0, 82, 0
2, 354125, Note_on_c, 0, 58, 0
2, 354125, Note_on_c, 0, 75, 0
2, 354152, Note_on_c, 0, 61, 0
2, 354317, Note_on_c, 0, 85, 76
2, 354332, Note_on_c, 0, 73, 59
2, 354332, Note_on_c, 0, 80, 73
2, 354332, Note_on_c, 0, 61, 67
2, 354337, Note_on_c, 0, 56, 60
2, 354338, Note_on_c, 0, 65, 73
2, 354367, Note_on_c, 0, 60, 44
2, 354415, Note_on_c, 0, 60, 0
2, 354666, Note_on_c, 0, 65, 0
2, 354740, Note_on_c, 0, 56, 0
2, 354786, Note_on_c, 0, 61, 0
2, 354808, Note_on_c, 0, 80, 0
2, 354830, Note_on_c, 0, 73, 0
2, 354886, Note_on_c, 0, 85, 0
2, 355350, Control_c, 0, 64, 0
2, 355376, Note_on_c, 0, 85, 71
2, 355384, Note_on_c, 0, 73, 45
2, 355394, Note_on_c, 0, 77, 56
2, 355402, Note_on_c, 0, 43, 48
2, 355508, Note_on_c, 0, 85, 0
2, 355531, Control_c, 0, 64, 127
2, 355533, Note_on_c, 0, 77, 0
2, 355581, Note_on_c, 0, 73, 0
2, 355877, Note_on_c, 0, 50, 48
2, 355922, Note_on_c, 0, 55, 55
2, 355923, Note_on_c, 0, 43, 0
2, 355932, Note_on_c, 0, 50, 0
2, 356024, Note_on_c, 0, 56, 34
2, 356029, Note_on_c, 0, 55, 0
2, 356044, Control_c, 0, 64, 0
2, 356146, Note_on_c, 0, 58, 53
2, 356156, Note_on_c, 0, 56, 0
2, 356241, Note_on_c, 0, 58, 0
2, 356278, Note_on_c, 0, 60, 58
2, 356378, Note_on_c, 0, 60, 0
2, 356415, Note_on_c, 0, 61, 26
2, 356487, Note_on_c, 0, 63, 51
2, 356515, Note_on_c, 0, 61, 0
2, 356589, Note_on_c, 0, 63, 0
2, 356640, Note_on_c, 0, 64, 60
2, 356733, Note_on_c, 0, 64, 0
2, 356786, Note_on_c, 0, 66, 39
2, 356837, Note_on_c, 0, 66, 0
2, 356918, Note_on_c, 0, 67, 55
2, 357041, Note_on_c, 0, 67, 0
2, 357055, Note_on_c, 0, 69, 54
2, 357165, Note_on_c, 0, 69, 0
2, 357190, Note_on_c, 0, 70, 48
2, 357260, Note_on_c, 0, 70, 0
2, 357327, Note_on_c, 0, 72, 40
2, 357455, Note_on_c, 0, 72, 0
2, 357494, Note_on_c, 0, 73, 43
2, 357605, Note_on_c, 0, 73, 0
2, 357677, Note_on_c, 0, 75, 39
2, 357780, Note_on_c, 0, 75, 0
2, 357836, Note_on_c, 0, 76, 45
2, 357862, Note_on_c, 0, 48, 35
2, 357864, Note_on_c, 0, 58, 25
2, 357948, Note_on_c, 0, 76, 0
2, 358044, Note_on_c, 0, 78, 42
2, 358081, Note_on_c, 0, 48, 0
2, 358146, Note_on_c, 0, 78, 0
2, 358210, Note_on_c, 0, 58, 0
2, 358229, Note_on_c, 0, 79, 50
2, 358332, Note_on_c, 0, 79, 0
2, 358429, Note_on_c, 0, 81, 50
2, 358497, Note_on_c, 0, 81, 0
2, 358643, Note_on_c, 0, 82, 53
2, 358775, Note_on_c, 0, 82, 0
2, 358878, Note_on_c, 0, 84, 52
2, 358978, Note_on_c, 0, 84, 0
2, 359217, Note_on_c, 0, 78, 48
2, 359219, Note_on_c, 0, 58, 37
2, 359236, Note_on_c, 0, 64, 24
2, 359718, Note_on_c, 0, 78, 0
2, 360001, Note_on_c, 0, 81, 73
2, 360206, Note_on_c, 0, 81, 0
2, 360244, Note_on_c, 0, 79, 66
2, 360383, Note_on_c, 0, 79, 0
2, 360417, Note_on_c, 0, 78, 40
2, 360548, Note_on_c, 0, 78, 0
2, 360573, Note_on_c, 0, 76, 48
2, 360631, Note_on_c, 0, 64, 0
2, 360648, Note_on_c, 0, 76, 0
2, 360735, Note_on_c, 0, 75, 42
2, 360745, Note_on_c, 0, 58, 0
2, 360894, Note_on_c, 0, 75, 0
2, 360910, Note_on_c, 0, 73, 25
2, 361002, Note_on_c, 0, 73, 0
2, 361025, Note_on_c, 0, 72, 32
2, 361098, Note_on_c, 0, 72, 0
2, 361185, Note_on_c, 0, 70, 50
2, 361293, Note_on_c, 0, 70, 0
2, 361338, Note_on_c, 0, 69, 44
2, 361435, Note_on_c, 0, 69, 0
2, 361515, Note_on_c, 0, 67, 39
2, 361602, Note_on_c, 0, 67, 0
2, 361690, Note_on_c, 0, 66, 46
2, 361813, Note_on_c, 0, 66, 0
2, 361901, Note_on_c, 0, 64, 28
2, 361942, Note_on_c, 0, 48, 36
2, 361948, Note_on_c, 0, 58, 29
2, 361976, Note_on_c, 0, 64, 0
2, 362120, Note_on_c, 0, 63, 37
2, 362256, Note_on_c, 0, 63, 0
2, 362387, Note_on_c, 0, 61, 44
2, 362548, Note_on_c, 0, 61, 0
2, 362564, Note_on_c, 0, 58, 0
2, 362636, Note_on_c, 0, 60, 44
2, 362784, Note_on_c, 0, 60, 0
2, 362892, Note_on_c, 0, 58, 54
2, 363102, Note_on_c, 0, 58, 0
2, 363165, Note_on_c, 0, 56, 63
2, 363369, Note_on_c, 0, 56, 0
2, 363495, Note_on_c, 0, 55, 36
2, 363569, Note_on_c, 0, 56, 55
2, 363578, Note_on_c, 0, 55, 0
2, 363622, Note_on_c, 0, 48, 0
2, 363693, Note_on_c, 0, 55, 61
2, 363758, Note_on_c, 0, 56, 0
2, 363841, Note_on_c, 0, 55, 0
2, 363878, Note_on_c, 0, 52, 44
2, 364172, Note_on_c, 0, 53, 76
2, 364193, Note_on_c, 0, 52, 0
2, 364470, Note_on_c, 0, 55, 81
2, 364549, Note_on_c, 0, 53, 0
2, 364759, Note_on_c, 0, 55, 0
2, 364814, Note_on_c, 0, 57, 75
2, 364960, Control_c, 0, 64, 127
2, 365092, Note_on_c, 0, 57, 0
2, 365100, Note_on_c, 0, 55, 45
2, 365423, Note_on_c, 0, 56, 60
2, 365430, Note_on_c, 0, 55, 0
2, 365486, Control_c, 0, 64, 0
2, 365487, Note_on_c, 0, 41, 52
2, 365754, Control_c, 0, 64, 127
2, 365836, Note_on_c, 0, 56, 0
2, 365872, Note_on_c, 0, 51, 38
2, 365884, Note_on_c, 0, 41, 0
2, 366000, Note_on_c, 0, 51, 0
2, 366258, Note_on_c, 0, 60, 50
2, 366652, Note_on_c, 0, 60, 0
2, 366671, Note_on_c, 0, 64, 72
2, 367082, Note_on_c, 0, 64, 0
2, 367142, Note_on_c, 0, 80, 70
2, 367155, Note_on_c, 0, 68, 75
2, 367187, Note_on_c, 0, 65, 60
2, 367230, Control_c, 0, 64, 0
2, 367412, Control_c, 0, 64, 127
2, 367603, Note_on_c, 0, 65, 0
2, 367721, Note_on_c, 0, 67, 64
2, 368176, Note_on_c, 0, 80, 0
2, 368253, Note_on_c, 0, 67, 0
2, 368258, Note_on_c, 0, 65, 54
2, 368267, Note_on_c, 0, 79, 72
2, 368672, Note_on_c, 0, 79, 0
2, 368751, Note_on_c, 0, 65, 0
2, 368754, Note_on_c, 0, 77, 55
2, 368756, Note_on_c, 0, 64, 50
2, 368805, Note_on_c, 0, 64, 0
2, 368902, Note_on_c, 0, 68, 0
2, 368955, Note_on_c, 0, 77, 0
2, 369314, Note_on_c, 0, 80, 39
2, 369314, Note_on_c, 0, 71, 54
2, 369358, Note_on_c, 0, 44, 53
2, 369362, Control_c, 0, 64, 0
2, 369604, Control_c, 0, 64, 127
2, 369832, Note_on_c, 0, 44, 0
2, 369832, Note_on_c, 0, 53, 50
2, 370334, Note_on_c, 0, 53, 0
2, 370335, Note_on_c, 0, 80, 0
2, 370346, Note_on_c, 0, 56, 36
2, 370389, Note_on_c, 0, 71, 0
2, 370842, Note_on_c, 0, 59, 36
2, 371132, Note_on_c, 0, 61, 51
2, 371358, Note_on_c, 0, 63, 47
2, 371370, Note_on_c, 0, 61, 0
2, 371459, Note_on_c, 0, 63, 0
2, 371514, Note_on_c, 0, 65, 46
2, 371622, Note_on_c, 0, 59, 0
2, 371645, Note_on_c, 0, 61, 25
2, 371684, Note_on_c, 0, 65, 0
2, 371705, Note_on_c, 0, 67, 55
2, 371810, Note_on_c, 0, 67, 0
2, 371878, Note_on_c, 0, 69, 49
2, 371938, Note_on_c, 0, 69, 0
2, 372048, Note_on_c, 0, 71, 60
2, 372068, Note_on_c, 0, 61, 0
2, 372151, Note_on_c, 0, 56, 0
2, 372192, Note_on_c, 0, 71, 0
2, 372220, Note_on_c, 0, 73, 27
2, 372388, Note_on_c, 0, 73, 0
2, 372402, Note_on_c, 0, 75, 46
2, 372474, Note_on_c, 0, 75, 0
2, 372590, Note_on_c, 0, 77, 17
2, 372709, Note_on_c, 0, 49, 28
2, 372712, Control_c, 0, 64, 0
2, 372721, Note_on_c, 0, 77, 0
2, 372744, Note_on_c, 0, 79, 47
2, 372903, Control_c, 0, 64, 127
2, 372915, Note_on_c, 0, 79, 0
2, 372965, Note_on_c, 0, 81, 32
2, 372980, Note_on_c, 0, 59, 30
2, 372992, Note_on_c, 0, 49, 0
2, 373043, Note_on_c, 0, 81, 0
2, 373164, Note_on_c, 0, 83, 43
2, 373171, Note_on_c, 0, 59, 0
2, 373294, Note_on_c, 0, 83, 0
2, 373338, Note_on_c, 0, 85, 49
2, 373393, Note_on_c, 0, 59, 32
2, 373492, Note_on_c, 0, 85, 0
2, 373560, Note_on_c, 0, 87, 42
2, 373634, Note_on_c, 0, 87, 0
2, 373707, Note_on_c, 0, 59, 0
2, 373718, Note_on_c, 0, 89, 41
2, 373728, Note_on_c, 0, 63, 18
2, 373860, Note_on_c, 0, 89, 0
2, 373895, Note_on_c, 0, 63, 0
2, 373899, Note_on_c, 0, 91, 53
2, 374036, Note_on_c, 0, 91, 0
2, 374092, Note_on_c, 0, 93, 54
2, 374215, Note_on_c, 0, 93, 0
2, 374282, Note_on_c, 0, 95, 45
2, 374352, Note_on_c, 0, 95, 0
2, 374511, Note_on_c, 0, 97, 44
2, 374587, Note_on_c, 0, 49, 21
2, 374614, Note_on_c, 0, 97, 0
2, 374735, Note_on_c, 0, 99, 43
2, 374859, Note_on_c, 0, 99, 0
2, 374968, Note_on_c, 0, 56, 21
2, 375007, Note_on_c, 0, 101, 49
2, 375149, Note_on_c, 0, 101, 0
2, 375243, Note_on_c, 0, 103, 47
2, 375425, Note_on_c, 0, 103, 0
2, 375531, Note_on_c, 0, 105, 40
2, 375779, Note_on_c, 0, 59, 1
2, 375828, Note_on_c, 0, 105, 0
2, 375837, Note_on_c, 0, 107, 58
2, 375952, Note_on_c, 0, 107, 0
2, 376968, Note_on_c, 0, 59, 0
2, 377022, Note_on_c, 0, 56, 0
2, 377124, Note_on_c, 0, 49, 0
2, 377813, Note_on_c, 0, 67, 58
2, 377844, Note_on_c, 0, 63, 39
2, 377845, Note_on_c, 0, 46, 37
2, 377854, Control_c, 0, 64, 0
2, 377865, Note_on_c, 0, 58, 33
2, 377881, Note_on_c, 0, 55, 32
2, 378166, Note_on_c, 0, 67, 0
2, 378188, Control_c, 0, 64, 127
2, 378290, Note_on_c, 0, 67, 69
2, 378631, Note_on_c, 0, 67, 0
2, 378676, Note_on_c, 0, 63, 0
2, 378703, Note_on_c, 0, 65, 67
2, 378706, Note_on_c, 0, 62, 71
2, 378774, Note_on_c, 0, 58, 0
2, 379116, Note_on_c, 0, 62, 0
2, 379139, Note_on_c, 0, 65, 0
2, 379205, Note_on_c, 0, 63, 47
2, 379235, Note_on_c, 0, 60, 49
2, 379283, Note_on_c, 0, 55, 0
2, 379400, Note_on_c, 0, 60, 0
2, 379414, Note_on_c, 0, 46, 0
2, 379684, Note_on_c, 0, 63, 0
2, 379944, Control_c, 0, 64, 0
2, 379962, Note_on_c, 0, 29, 33
2, 379966, Note_on_c, 0, 62, 51
2, 379972, Note_on_c, 0, 57, 35
2, 379980, Note_on_c, 0, 41, 39
2, 379981, Note_on_c, 0, 67, 37
2, 380132, Note_on_c, 0, 57, 0
2, 380150, Control_c, 0, 64, 127
2, 380294, Note_on_c, 0, 29, 0
2, 380331, Note_on_c, 0, 62, 0
2, 380379, Note_on_c, 0, 67, 0
2, 380386, Note_on_c, 0, 41, 0
2, 381061, Note_on_c, 0, 101, 91
2, 381375, Note_on_c, 0, 101, 0
2, 381411, Note_on_c, 0, 98, 83
2, 381626, Note_on_c, 0, 98, 0
2, 381682, Note_on_c, 0, 99, 74
2, 381912, Note_on_c, 0, 96, 56
2, 381962, Note_on_c, 0, 99, 0
2, 382031, Note_on_c, 0, 96, 0
2, 382077, Note_on_c, 0, 93, 51
2, 382183, Note_on_c, 0, 93, 0
2, 382260, Note_on_c, 0, 91, 51
2, 382404, Note_on_c, 0, 91, 0
2, 382430, Note_on_c, 0, 89, 48
2, 382513, Note_on_c, 0, 89, 0
2, 382601, Note_on_c, 0, 86, 48
2, 382708, Note_on_c, 0, 62, 27
2, 382716, Note_on_c, 0, 86, 0
2, 382731, Note_on_c, 0, 67, 32
2, 382739, Note_on_c, 0, 63, 31
2, 382746, Note_on_c, 0, 57, 34
2, 382959, Control_c, 0, 64, 0
2, 383175, Note_on_c, 0, 87, 65
2, 383588, Note_on_c, 0, 84, 51
2, 383772, Note_on_c, 0, 87, 0
2, 383773, Note_on_c, 0, 84, 0
2, 383818, Control_c, 0, 64, 127
2, 383843, Note_on_c, 0, 81, 44
2, 383961, Note_on_c, 0, 81, 0
2, 384025, Note_on_c, 0, 79, 53
2, 384175, Note_on_c, 0, 79, 0
2, 384198, Note_on_c, 0, 77, 42
2, 384346, Note_on_c, 0, 77, 0
2, 384372, Control_c, 0, 64, 0
2, 384399, Note_on_c, 0, 74, 42
2, 384489, Note_on_c, 0, 74, 0
2, 384629, Note_on_c, 0, 77, 19
2, 384696, Note_on_c, 0, 77, 0
2, 385134, Note_on_c, 0, 74, 59
2, 385234, Note_on_c, 0, 74, 0
2, 385257, Note_on_c, 0, 75, 52
2, 385469, Note_on_c, 0, 72, 44
2, 385472, Note_on_c, 0, 75, 0
2, 385500, Note_on_c, 0, 67, 0
2, 385605, Note_on_c, 0, 72, 0
2, 385653, Note_on_c, 0, 69, 37
2, 385820, Note_on_c, 0, 69, 0
2, 385901, Note_on_c, 0, 67, 57
2, 386093, Note_on_c, 0, 67, 0
2, 386141, Control_c, 0, 64, 127
2, 386179, Note_on_c, 0, 65, 43
2, 386204, Note_on_c, 0, 63, 0
2, 386251, Note_on_c, 0, 62, 0
2, 386406, Note_on_c, 0, 65, 0
2, 386499, Note_on_c, 0, 64, 43
2, 386687, Note_on_c, 0, 57, 0
2, 386710, Note_on_c, 0, 64, 0
2, 386866, Note_on_c, 0, 63, 63
2, 387192, Note_on_c, 0, 63, 0
2, 387252, Note_on_c, 0, 62, 64
2, 387565, Note_on_c, 0, 62, 0
2, 387593, Note_on_c, 0, 61, 59
2, 387807, Note_on_c, 0, 61, 0
2, 387930, Note_on_c, 0, 60, 51
2, 388092, Note_on_c, 0, 60, 0
2, 388274, Note_on_c, 0, 59, 69
2, 388579, Note_on_c, 0, 59, 0
2, 388623, Note_on_c, 0, 58, 59
2, 388882, Note_on_c, 0, 58, 0
2, 388920, Note_on_c, 0, 57, 54
2, 389171, Note_on_c, 0, 57, 0
2, 389272, Note_on_c, 0, 55, 48
2, 389542, Note_on_c, 0, 55, 0
2, 389572, Note_on_c, 0, 57, 55
2, 389932, Note_on_c, 0, 57, 0
2, 389955, Note_on_c, 0, 56, 39
2, 390033, Note_on_c, 0, 46, 35
2, 390056, Control_c, 0, 64, 0
2, 390310, Control_c, 0, 64, 127
2, 390461, Note_on_c, 0, 56, 0
2, 390561, Note_on_c, 0, 56, 37
2, 391063, Note_on_c, 0, 65, 53
2, 391073, Note_on_c, 0, 56, 0
2, 391096, Note_on_c, 0, 53, 34
2, 391149, Note_on_c, 0, 65, 0
2, 391584, Note_on_c, 0, 53, 0
2, 391669, Note_on_c, 0, 77, 44
2, 391699, Note_on_c, 0, 56, 28
2, 391719, Note_on_c, 0, 65, 64
2, 391824, Note_on_c, 0, 65, 0
2, 392306, Note_on_c, 0, 56, 0
2, 392404, Note_on_c, 0, 46, 0
2, 392703, Note_on_c, 0, 77, 0
2, 393032, Control_c, 0, 64, 0
2, 393032, Note_on_c, 0, 34, 53
2, 393146, Control_c, 0, 64, 127
2, 393228, Note_on_c, 0, 34, 0
2, 394972, Note_on_c, 0, 77, 73
2, 395765, Note_on_c, 0, 77, 0
2, 397075, Note_on_c, 0, 75, 56
2, 397105, Note_on_c, 0, 70, 48
2, 397107, Note_on_c, 0, 65, 41
2, 397123, Note_on_c, 0, 58, 32
2, 397124, Control_c, 0, 64, 0
2, 397378, Control_c, 0, 64, 127
2, 397993, Note_on_c, 0, 46, 43
2, 398190, Note_on_c, 0, 75, 0
2, 398304, Note_on_c, 0, 70, 0
2, 398344, Note_on_c, 0, 58, 0
2, 398416, Note_on_c, 0, 65, 0
2, 398741, Note_on_c, 0, 46, 0
2, 398897, Note_on_c, 0, 46, 46
2, 399139, Note_on_c, 0, 56, 43
2, 399206, Note_on_c, 0, 62, 47
2, 399269, Note_on_c, 0, 67, 58
2, 399372, Note_on_c, 0, 74, 62
2, 401220, Note_on_c, 0, 62, 0
2, 401837, Note_on_c, 0, 56, 0
2, 401891, Note_on_c, 0, 46, 0
2, 402060, Note_on_c, 0, 67, 0
2, 402084, Note_on_c, 0, 74, 0
2, 402700, Note_on_c, 0, 75, 55
2, 402718, Note_on_c, 0, 57, 46
2, 402725, Note_on_c, 0, 67, 48
2, 402730, Control_c, 0, 64, 0
2, 402733, Note_on_c, 0, 72, 32
2, 402933, Control_c, 0, 64, 127
2, 403249, Note_on_c, 0, 75, 0
2, 403261, Note_on_c, 0, 72, 0
2, 403267, Note_on_c, 0, 67, 0
2, 403363, Note_on_c, 0, 77, 74
2, 403645, Note_on_c, 0, 77, 0
2, 403875, Note_on_c, 0, 75, 77
2, 404354, Note_on_c, 0, 66, 57
2, 404390, Note_on_c, 0, 57, 0
2, 404903, Note_on_c, 0, 66, 0
2, 404912, Note_on_c, 0, 54, 34
2, 404914, Note_on_c, 0, 50, 39
2, 404940, Note_on_c, 0, 65, 57
2, 405012, Control_c, 0, 64, 0
2, 405013, Note_on_c, 0, 60, 15
2, 405141, Note_on_c, 0, 75, 0
2, 405334, Control_c, 0, 64, 127
2, 405603, Note_on_c, 0, 63, 61
2, 405653, Note_on_c, 0, 65, 0
2, 406073, Note_on_c, 0, 60, 0
2, 406170, Note_on_c, 0, 63, 0
2, 406250, Note_on_c, 0, 62, 62
2, 406940, Note_on_c, 0, 60, 53
2, 406950, Note_on_c, 0, 54, 0
2, 406969, Note_on_c, 0, 62, 0
2, 407012, Note_on_c, 0, 50, 0
2, 407468, Note_on_c, 0, 60, 0
2, 407569, Note_on_c, 0, 58, 45
2, 407588, Note_on_c, 0, 43, 35
2, 407594, Control_c, 0, 64, 0
2, 407889, Control_c, 0, 64, 127
2, 408068, Note_on_c, 0, 55, 54
2, 408148, Note_on_c, 0, 58, 0
2, 408382, Note_on_c, 0, 43, 0
2, 408402, Note_on_c, 0, 57, 75
2, 408403, Note_on_c, 0, 55, 0
2, 408714, Note_on_c, 0, 58, 74
2, 408780, Note_on_c, 0, 57, 0
2, 409005, Control_c, 0, 64, 0
2, 409018, Note_on_c, 0, 58, 0
2, 409033, Note_on_c, 0, 24, 51
2, 409052, Note_on_c, 0, 60, 57
2, 409116, Note_on_c, 0, 24, 0
2, 409222, Control_c, 0, 64, 127
2, 409456, Note_on_c, 0, 61, 69
2, 409470, Note_on_c, 0, 60, 0
2, 409547, Note_on_c, 0, 58, 29
2, 409885, Note_on_c, 0, 63, 53
2, 409961, Note_on_c, 0, 61, 0
2, 409985, Note_on_c, 0, 58, 0
2, 410300, Note_on_c, 0, 63, 0
2, 410358, Note_on_c, 0, 62, 44
2, 410370, Note_on_c, 0, 64, 33
2, 410543, Note_on_c, 0, 64, 0
2, 410651, Note_on_c, 0, 62, 0
2, 410817, Note_on_c, 0, 65, 50
2, 410828, Note_on_c, 0, 51, 28
2, 410834, Note_on_c, 0, 62, 44
2, 410859, Note_on_c, 0, 41, 34
2, 410879, Control_c, 0, 64, 0
2, 411159, Control_c, 0, 64, 127
2, 411216, Note_on_c, 0, 65, 0
2, 411243, Note_on_c, 0, 51, 0
2, 411251, Note_on_c, 0, 62, 0
2, 411290, Note_on_c, 0, 48, 37
2, 411299, Note_on_c, 0, 63, 37
2, 411321, Note_on_c, 0, 67, 50
2, 411395, Note_on_c, 0, 63, 0
2, 411429, Note_on_c, 0, 67, 0
2, 411780, Note_on_c, 0, 48, 0
2, 411800, Note_on_c, 0, 67, 60
2, 411837, Note_on_c, 0, 41, 0
2, 411852, Note_on_c, 0, 53, 38
2, 411855, Note_on_c, 0, 60, 33
2, 412175, Note_on_c, 0, 60, 0
2, 412262, Note_on_c, 0, 67, 0
2, 412293, Note_on_c, 0, 53, 0
2, 412327, Note_on_c, 0, 68, 57
2, 412338, Note_on_c, 0, 56, 33
2, 412373, Note_on_c, 0, 63, 46
2, 412495, Note_on_c, 0, 56, 0
2, 412629, Note_on_c, 0, 63, 0
2, 412663, Note_on_c, 0, 68, 0
2, 412968, Note_on_c, 0, 68, 46
2, 412976, Note_on_c, 0, 63, 47
2, 412994, Control_c, 0, 64, 0
2, 413007, Note_on_c, 0, 59, 40
2, 413010, Note_on_c, 0, 56, 28
2, 413020, Note_on_c, 0, 46, 33
2, 413238, Control_c, 0, 64, 127
2, 413424, Note_on_c, 0, 68, 0
2, 413664, Note_on_c, 0, 70, 54
2, 413675, Note_on_c, 0, 59, 0
2, 413685, Note_on_c, 0, 53, 34
2, 413823, Note_on_c, 0, 56, 0
2, 414236, Note_on_c, 0, 70, 0
2, 414260, Note_on_c, 0, 63, 0
2, 414276, Note_on_c, 0, 46, 0
2, 414710, Note_on_c, 0, 53, 0
2, 414964, Note_on_c, 0, 71, 35
2, 414984, Note_on_c, 0, 59, 55
2, 414996, Control_c, 0, 64, 0
2, 414999, Note_on_c, 0, 46, 35
2, 415014, Note_on_c, 0, 56, 28
2, 415214, Control_c, 0, 64, 127
2, 415289, Note_on_c, 0, 59, 0
2, 415444, Note_on_c, 0, 71, 0
2, 415973, Note_on_c, 0, 86, 57
2, 415999, Note_on_c, 0, 74, 36
2, 417306, Note_on_c, 0, 56, 0
2, 417460, Note_on_c, 0, 46, 0
2, 417720, Note_on_c, 0, 74, 0
2, 417842, Note_on_c, 0, 86, 0
2, 418305, Control_c, 0, 64, 0
2, 418331, Note_on_c, 0, 27, 37
2, 418485, Control_c, 0, 64, 127
2, 418612, Note_on_c, 0, 27, 0
2, 419478, Note_on_c, 0, 62, 32
2, 419791, Note_on_c, 0, 65, 36
2, 419899, Note_on_c, 0, 65, 0
2, 419999, Note_on_c, 0, 70, 49
2, 420102, Note_on_c, 0, 70, 0
2, 420190, Note_on_c, 0, 72, 43
2, 420356, Note_on_c, 0, 72, 0
2, 420378, Note_on_c, 0, 77, 59
2, 420388, Note_on_c, 0, 62, 0
2, 420549, Note_on_c, 0, 77, 0
2, 420594, Note_on_c, 0, 82, 35
2, 420659, Note_on_c, 0, 82, 0
2, 420774, Note_on_c, 0, 84, 66
2, 420953, Note_on_c, 0, 84, 0
2, 420972, Note_on_c, 0, 89, 57
2, 421169, Note_on_c, 0, 94, 50
2, 421241, Note_on_c, 0, 89, 0
2, 421397, Note_on_c, 0, 96, 63
2, 421406, Note_on_c, 0, 94, 0
2, 421573, Note_on_c, 0, 96, 0
2, 421652, Note_on_c, 0, 93, 53
2, 421663, Note_on_c, 0, 51, 32
2, 421719, Control_c, 0, 64, 0
2, 421834, Control_c, 0, 64, 127
2, 422191, Note_on_c, 0, 93, 0
2, 422334, Note_on_c, 0, 94, 29
2, 422914, Note_on_c, 0, 93, 45
2, 422953, Note_on_c, 0, 94, 0
2, 422957, Note_on_c, 0, 60, 25
2, 423734, Note_on_c, 0, 60, 0
2, 423902, Note_on_c, 0, 51, 0
2, 424019, Note_on_c, 0, 91, 39
2, 424060, Note_on_c, 0, 93, 0
2, 424745, Note_on_c, 0, 91, 0
2, 424846, Note_on_c, 0, 27, 35
2, 424852, Note_on_c, 0, 93, 43
2, 424886, Note_on_c, 0, 39, 18
2, 425097, Note_on_c, 0, 93, 0
2, 425190, Note_on_c, 0, 27, 0
2, 425193, Note_on_c, 0, 39, 0
2, 427275, Control_c, 0, 64, 0
2, 427275, End_track
3, 0, Start_track
3, 0, End_track
0, 0, End_of_file
