0, 0, Header, 1, 7, 120
1, 0, Start_track
1, 0, Title_t, "HowCome You DoMeLikeYouDo"
1, 0, Text_t, "dougmck@pipeline.com.au\012"
1, 0, Text_t, "DougMck\012"
1, 0, Time_signature, 4, 2, 24, 8
1, 0, Key_signature, 0, "major"
1, 0, Tempo, 500000
1, 0, End_track
2, 0, Start_track
2, 0, MIDI_port, 0
2, 0, Title_t, "Piano"
2, 0, Program_c, 0, 0
2, 0, Control_c, 0, 7, 127
2, 0, Control_c, 0, 10, 64
2, 0, Control_c, 0, 91, 0
2, 0, Control_c, 0, 93, 0
2, 12, Note_on_c, 0, 81, 73
2, 16, Note_on_c, 0, 63, 24
2, 18, Note_on_c, 0, 57, 22
2, 19, Note_on_c, 0, 65, 13
2, 38, Note_on_c, 0, 65, 0
2, 42, Note_on_c, 0, 57, 0
2, 43, Note_on_c, 0, 81, 0
2, 44, Note_on_c, 0, 63, 0
2, 139, Note_on_c, 0, 81, 56
2, 139, Note_on_c, 0, 57, 37
2, 140, Note_on_c, 0, 63, 28
2, 142, Note_on_c, 0, 65, 29
2, 157, Note_on_c, 0, 65, 0
2, 162, Note_on_c, 0, 81, 0
2, 163, Note_on_c, 0, 57, 0
2, 164, Note_on_c, 0, 63, 0
2, 218, Note_on_c, 0, 77, 42
2, 230, Control_c, 0, 64, 127
2, 244, Note_on_c, 0, 77, 0
2, 247, Control_c, 0, 64, 0
2, 257, Note_on_c, 0, 62, 23
2, 257, Note_on_c, 0, 56, 29
2, 258, Note_on_c, 0, 65, 27
2, 260, Note_on_c, 0, 79, 41
2, 279, Note_on_c, 0, 65, 0
2, 285, Note_on_c, 0, 79, 0
2, 286, Note_on_c, 0, 62, 0
2, 288, Note_on_c, 0, 56, 0
2, 337, Note_on_c, 0, 77, 40
2, 358, Note_on_c, 0, 77, 0
2, 376, Note_on_c, 0, 62, 22
2, 377, Note_on_c, 0, 56, 28
2, 377, Note_on_c, 0, 65, 31
2, 395, Note_on_c, 0, 65, 0
2, 398, Note_on_c, 0, 62, 0
2, 434, Note_on_c, 0, 56, 0
2, 458, Note_on_c, 0, 74, 63
2, 469, Control_c, 0, 64, 127
2, 483, Note_on_c, 0, 74, 0
2, 491, Control_c, 0, 64, 0
2, 499, Note_on_c, 0, 72, 76
2, 505, Note_on_c, 0, 55, 21
2, 510, Note_on_c, 0, 60, 24
2, 511, Note_on_c, 0, 65, 6
2, 511, Note_on_c, 0, 61, 32
2, 513, Note_on_c, 0, 58, 16
2, 544, Note_on_c, 0, 61, 0
2, 545, Note_on_c, 0, 60, 0
2, 548, Note_on_c, 0, 65, 0
2, 554, Note_on_c, 0, 55, 0
2, 557, Note_on_c, 0, 58, 0
2, 618, Note_on_c, 0, 65, 30
2, 619, Note_on_c, 0, 60, 31
2, 620, Note_on_c, 0, 61, 20
2, 625, Note_on_c, 0, 65, 0
2, 627, Note_on_c, 0, 60, 0
2, 628, Note_on_c, 0, 61, 0
2, 679, Note_on_c, 0, 72, 0
2, 691, Control_c, 0, 64, 127
2, 693, Note_on_c, 0, 73, 50
2, 720, Note_on_c, 0, 73, 0
2, 720, Control_c, 0, 64, 0
2, 730, Note_on_c, 0, 64, 21
2, 731, Note_on_c, 0, 54, 25
2, 731, Note_on_c, 0, 74, 39
2, 737, Note_on_c, 0, 64, 0
2, 746, Note_on_c, 0, 74, 0
2, 750, Note_on_c, 0, 54, 0
2, 766, Note_on_c, 0, 74, 32
2, 793, Note_on_c, 0, 74, 0
2, 801, Note_on_c, 0, 74, 52
2, 804, Note_on_c, 0, 69, 75
2, 834, Note_on_c, 0, 69, 0
2, 836, Note_on_c, 0, 74, 0
2, 844, Note_on_c, 0, 54, 30
2, 847, Note_on_c, 0, 65, 37
2, 871, Note_on_c, 0, 65, 0
2, 884, Note_on_c, 0, 62, 14
2, 911, Control_c, 0, 64, 127
2, 918, Note_on_c, 0, 62, 0
2, 923, Note_on_c, 0, 44, 25
2, 939, Note_on_c, 0, 58, 1
2, 953, Note_on_c, 0, 54, 0
2, 958, Note_on_c, 0, 58, 0
2, 961, Note_on_c, 0, 44, 0
2, 964, Control_c, 0, 64, 0
2, 968, Note_on_c, 0, 59, 24
2, 970, Note_on_c, 0, 62, 46
2, 972, Note_on_c, 0, 43, 35
2, 982, Note_on_c, 0, 53, 11
2, 1019, Note_on_c, 0, 53, 0
2, 1032, Note_on_c, 0, 59, 0
2, 1040, Note_on_c, 0, 62, 0
2, 1047, Note_on_c, 0, 65, 57
2, 1048, Note_on_c, 0, 59, 47
2, 1049, Note_on_c, 0, 53, 42
2, 1049, Note_on_c, 0, 50, 60
2, 1051, Note_on_c, 0, 62, 34
2, 1056, Control_c, 0, 64, 127
2, 1068, Note_on_c, 0, 62, 0
2, 1078, Note_on_c, 0, 59, 0
2, 1081, Note_on_c, 0, 53, 0
2, 1086, Note_on_c, 0, 65, 0
2, 1086, Control_c, 0, 64, 0
2, 1092, Note_on_c, 0, 43, 0
2, 1092, Note_on_c, 0, 50, 0
2, 1095, Note_on_c, 0, 62, 24
2, 1097, Note_on_c, 0, 59, 41
2, 1098, Note_on_c, 0, 53, 17
2, 1103, Note_on_c, 0, 47, 27
2, 1153, Note_on_c, 0, 62, 0
2, 1156, Note_on_c, 0, 47, 0
2, 1157, Note_on_c, 0, 53, 0
2, 1160, Control_c, 0, 64, 127
2, 1165, Note_on_c, 0, 59, 0
2, 1171, Note_on_c, 0, 47, 38
2, 1205, Control_c, 0, 64, 0
2, 1206, Note_on_c, 0, 47, 0
2, 1213, Note_on_c, 0, 58, 44
2, 1215, Note_on_c, 0, 60, 52
2, 1215, Note_on_c, 0, 48, 37
2, 1216, Note_on_c, 0, 55, 41
2, 1221, Note_on_c, 0, 60, 0
2, 1222, Note_on_c, 0, 55, 0
2, 1227, Note_on_c, 0, 48, 0
2, 1228, Note_on_c, 0, 58, 0
2, 1292, Note_on_c, 0, 52, 59
2, 1292, Note_on_c, 0, 68, 69
2, 1293, Note_on_c, 0, 60, 76
2, 1294, Note_on_c, 0, 62, 63
2, 1296, Note_on_c, 0, 65, 53
2, 1323, Note_on_c, 0, 62, 0
2, 1324, Note_on_c, 0, 65, 0
2, 1326, Note_on_c, 0, 60, 0
2, 1330, Note_on_c, 0, 68, 0
2, 1336, Note_on_c, 0, 52, 0
2, 1342, Note_on_c, 0, 69, 54
2, 1343, Note_on_c, 0, 53, 38
2, 1345, Note_on_c, 0, 60, 44
2, 1347, Note_on_c, 0, 62, 37
2, 1360, Note_on_c, 0, 69, 0
2, 1360, Control_c, 0, 64, 127
2, 1361, Note_on_c, 0, 62, 0
2, 1368, Note_on_c, 0, 53, 0
2, 1369, Note_on_c, 0, 60, 0
2, 1419, Note_on_c, 0, 47, 45
2, 1437, Control_c, 0, 64, 0
2, 1448, Note_on_c, 0, 47, 0
2, 1461, Note_on_c, 0, 48, 43
2, 1462, Note_on_c, 0, 57, 32
2, 1463, Note_on_c, 0, 60, 43
2, 1464, Note_on_c, 0, 65, 29
2, 1464, Note_on_c, 0, 62, 32
2, 1477, Note_on_c, 0, 48, 0
2, 1529, Note_on_c, 0, 57, 0
2, 1529, Note_on_c, 0, 60, 0
2, 1532, Note_on_c, 0, 62, 0
2, 1536, Note_on_c, 0, 65, 0
2, 1536, Note_on_c, 0, 36, 64
2, 1536, Note_on_c, 0, 26, 63
2, 1565, Note_on_c, 0, 26, 0
2, 1643, Control_c, 0, 64, 127
2, 1670, Control_c, 0, 64, 0
2, 1712, Control_c, 0, 64, 127
2, 1776, Note_on_c, 0, 36, 36
2, 1798, Note_on_c, 0, 36, 0
2, 1809, Control_c, 0, 64, 0
2, 1812, Note_on_c, 0, 36, 0
2, 1815, Note_on_c, 0, 27, 27
2, 1821, Note_on_c, 0, 53, 19
2, 1823, Note_on_c, 0, 58, 30
2, 1825, Note_on_c, 0, 61, 28
2, 1856, Note_on_c, 0, 53, 0
2, 1856, Note_on_c, 0, 65, 1
2, 1868, Note_on_c, 0, 58, 0
2, 1876, Note_on_c, 0, 65, 0
2, 1881, Note_on_c, 0, 61, 0
2, 1891, Note_on_c, 0, 27, 0
2, 1891, Note_on_c, 0, 65, 40
2, 1891, Note_on_c, 0, 28, 13
2, 1893, Note_on_c, 0, 57, 36
2, 1894, Note_on_c, 0, 60, 60
2, 1897, Note_on_c, 0, 29, 50
2, 1898, Note_on_c, 0, 28, 0
2, 1900, Note_on_c, 0, 57, 0
2, 1907, Note_on_c, 0, 65, 0
2, 1907, Note_on_c, 0, 60, 0
2, 1910, Note_on_c, 0, 29, 0
2, 2003, Note_on_c, 0, 48, 38
2, 2010, Note_on_c, 0, 58, 59
2, 2012, Note_on_c, 0, 65, 61
2, 2018, Note_on_c, 0, 48, 0
2, 2019, Note_on_c, 0, 50, 43
2, 2035, Note_on_c, 0, 65, 0
2, 2045, Note_on_c, 0, 58, 0
2, 2048, Note_on_c, 0, 50, 0
2, 2055, Note_on_c, 0, 48, 36
2, 2057, Note_on_c, 0, 56, 37
2, 2057, Note_on_c, 0, 65, 19
2, 2099, Note_on_c, 0, 65, 0
2, 2105, Note_on_c, 0, 56, 0
2, 2114, Note_on_c, 0, 48, 0
2, 2127, Note_on_c, 0, 57, 42
2, 2128, Note_on_c, 0, 50, 26
2, 2129, Note_on_c, 0, 65, 26
2, 2135, Control_c, 0, 64, 127
2, 2137, Note_on_c, 0, 65, 0
2, 2137, Note_on_c, 0, 50, 0
2, 2150, Note_on_c, 0, 57, 0
2, 2167, Note_on_c, 0, 56, 71
2, 2168, Note_on_c, 0, 60, 69
2, 2169, Note_on_c, 0, 46, 38
2, 2169, Note_on_c, 0, 55, 53
2, 2170, Note_on_c, 0, 62, 50
2, 2170, Note_on_c, 0, 67, 64
2, 2172, Control_c, 0, 64, 0
2, 2228, Note_on_c, 0, 67, 0
2, 2239, Note_on_c, 0, 62, 0
2, 2240, Control_c, 0, 64, 127
2, 2245, Note_on_c, 0, 55, 0
2, 2246, Note_on_c, 0, 65, 62
2, 2246, Note_on_c, 0, 53, 40
2, 2248, Note_on_c, 0, 62, 17
2, 2260, Note_on_c, 0, 46, 0
2, 2267, Note_on_c, 0, 60, 0
2, 2275, Note_on_c, 0, 56, 0
2, 2281, Control_c, 0, 64, 0
2, 2282, Note_on_c, 0, 65, 0
2, 2288, Note_on_c, 0, 46, 33
2, 2291, Note_on_c, 0, 60, 42
2, 2291, Note_on_c, 0, 56, 29
2, 2302, Note_on_c, 0, 53, 0
2, 2317, Note_on_c, 0, 46, 0
2, 2350, Control_c, 0, 64, 127
2, 2363, Note_on_c, 0, 62, 0
2, 2363, Note_on_c, 0, 60, 0
2, 2367, Note_on_c, 0, 56, 0
2, 2409, Note_on_c, 0, 55, 55
2, 2409, Note_on_c, 0, 60, 63
2, 2411, Note_on_c, 0, 61, 43
2, 2411, Control_c, 0, 64, 0
2, 2485, Note_on_c, 0, 45, 72
2, 2548, Control_c, 0, 64, 127
2, 2601, Note_on_c, 0, 55, 0
2, 2604, Note_on_c, 0, 60, 0
2, 2617, Note_on_c, 0, 61, 0
2, 2646, Note_on_c, 0, 45, 0
2, 2651, Note_on_c, 0, 60, 62
2, 2652, Control_c, 0, 64, 0
2, 2652, Note_on_c, 0, 54, 27
2, 2652, Note_on_c, 0, 38, 50
2, 2652, Note_on_c, 0, 59, 46
2, 2707, Note_on_c, 0, 59, 0
2, 2724, Note_on_c, 0, 54, 0
2, 2728, Note_on_c, 0, 42, 38
2, 2730, Note_on_c, 0, 54, 18
2, 2731, Note_on_c, 0, 58, 60
2, 2738, Note_on_c, 0, 38, 0
2, 2739, Note_on_c, 0, 60, 0
2, 2748, Control_c, 0, 64, 127
2, 2764, Note_on_c, 0, 42, 0
2, 2769, Note_on_c, 0, 54, 0
2, 2772, Note_on_c, 0, 58, 0
2, 2772, Control_c, 0, 64, 0
2, 2775, Note_on_c, 0, 44, 38
2, 2776, Note_on_c, 0, 54, 14
2, 2779, Note_on_c, 0, 57, 49
2, 2815, Note_on_c, 0, 57, 0
2, 2852, Note_on_c, 0, 42, 43
2, 2853, Note_on_c, 0, 56, 29
2, 2855, Note_on_c, 0, 58, 57
2, 2859, Note_on_c, 0, 44, 0
2, 2861, Control_c, 0, 64, 127
2, 2881, Control_c, 0, 64, 0
2, 2883, Note_on_c, 0, 54, 0
2, 2885, Note_on_c, 0, 56, 0
2, 2893, Note_on_c, 0, 58, 0
2, 2893, Note_on_c, 0, 53, 8
2, 2896, Note_on_c, 0, 42, 0
2, 2900, Note_on_c, 0, 59, 39
2, 2900, Note_on_c, 0, 43, 31
2, 2939, Control_c, 0, 64, 127
2, 2940, Note_on_c, 0, 53, 0
2, 2958, Note_on_c, 0, 59, 0
2, 2968, Note_on_c, 0, 31, 66
2, 3030, Note_on_c, 0, 43, 0
2, 3039, Note_on_c, 0, 38, 29
2, 3055, Note_on_c, 0, 74, 83
2, 3055, Note_on_c, 0, 77, 83
2, 3056, Note_on_c, 0, 69, 96
2, 3057, Note_on_c, 0, 38, 0
2, 3059, Note_on_c, 0, 73, 42
2, 3061, Note_on_c, 0, 43, 53
2, 3064, Note_on_c, 0, 73, 0
2, 3072, Note_on_c, 0, 69, 0
2, 3080, Note_on_c, 0, 74, 0
2, 3082, Note_on_c, 0, 77, 0
2, 3085, Note_on_c, 0, 43, 0
2, 3088, Control_c, 0, 64, 0
2, 3090, Note_on_c, 0, 76, 33
2, 3093, Note_on_c, 0, 73, 69
2, 3095, Note_on_c, 0, 68, 71
2, 3102, Note_on_c, 0, 43, 23
2, 3103, Control_c, 0, 64, 127
2, 3114, Note_on_c, 0, 43, 0
2, 3116, Note_on_c, 0, 73, 0
2, 3116, Note_on_c, 0, 68, 0
2, 3116, Note_on_c, 0, 76, 0
2, 3130, Control_c, 0, 64, 0
2, 3133, Note_on_c, 0, 74, 21
2, 3134, Note_on_c, 0, 43, 36
2, 3135, Note_on_c, 0, 71, 52
2, 3136, Note_on_c, 0, 65, 42
2, 3172, Control_c, 0, 64, 127
2, 3180, Note_on_c, 0, 31, 0
2, 3194, Note_on_c, 0, 74, 0
2, 3195, Note_on_c, 0, 71, 0
2, 3203, Note_on_c, 0, 31, 38
2, 3212, Note_on_c, 0, 43, 0
2, 3212, Note_on_c, 0, 65, 0
2, 3242, Control_c, 0, 64, 0
2, 3244, Note_on_c, 0, 31, 0
2, 3245, Note_on_c, 0, 72, 42
2, 3247, Note_on_c, 0, 35, 46
2, 3251, Note_on_c, 0, 62, 23
2, 3274, Note_on_c, 0, 72, 0
2, 3283, Note_on_c, 0, 62, 0
2, 3312, Note_on_c, 0, 35, 0
2, 3321, Note_on_c, 0, 35, 31
2, 3324, Note_on_c, 0, 58, 51
2, 3325, Note_on_c, 0, 68, 43
2, 3329, Note_on_c, 0, 62, 42
2, 3329, Control_c, 0, 64, 127
2, 3333, Note_on_c, 0, 66, 22
2, 3355, Note_on_c, 0, 62, 0
2, 3356, Note_on_c, 0, 66, 0
2, 3358, Note_on_c, 0, 68, 0
2, 3358, Note_on_c, 0, 58, 0
2, 3363, Control_c, 0, 64, 0
2, 3365, Note_on_c, 0, 35, 0
2, 3368, Note_on_c, 0, 58, 28
2, 3369, Note_on_c, 0, 36, 42
2, 3370, Note_on_c, 0, 62, 44
2, 3376, Note_on_c, 0, 65, 28
2, 3377, Note_on_c, 0, 69, 23
2, 3394, Note_on_c, 0, 69, 0
2, 3401, Note_on_c, 0, 65, 0
2, 3403, Note_on_c, 0, 62, 0
2, 3406, Note_on_c, 0, 58, 0
2, 3409, Note_on_c, 0, 24, 72
2, 3483, Note_on_c, 0, 60, 70
2, 3486, Note_on_c, 0, 61, 64
2, 3497, Note_on_c, 0, 61, 0
2, 3505, Note_on_c, 0, 62, 57
2, 3506, Note_on_c, 0, 60, 0
2, 3517, Note_on_c, 0, 62, 0
2, 3523, Note_on_c, 0, 62, 61
2, 3524, Note_on_c, 0, 65, 87
2, 3533, Note_on_c, 0, 62, 0
2, 3576, Note_on_c, 0, 65, 0
2, 3593, Note_on_c, 0, 36, 0
2, 3598, Note_on_c, 0, 31, 19
2, 3600, Note_on_c, 0, 36, 20
2, 3600, Note_on_c, 0, 58, 63
2, 3602, Note_on_c, 0, 65, 54
2, 3607, Note_on_c, 0, 31, 0
2, 3626, Note_on_c, 0, 58, 0
2, 3628, Note_on_c, 0, 65, 0
2, 3634, Note_on_c, 0, 62, 42
2, 3637, Note_on_c, 0, 36, 0
2, 3638, Note_on_c, 0, 31, 34
2, 3655, Note_on_c, 0, 62, 0
2, 3674, Note_on_c, 0, 62, 47
2, 3675, Note_on_c, 0, 58, 51
2, 3676, Note_on_c, 0, 31, 0
2, 3676, Note_on_c, 0, 65, 59
2, 3676, Note_on_c, 0, 53, 44
2, 3678, Note_on_c, 0, 36, 42
2, 3722, Control_c, 0, 64, 127
2, 3745, Note_on_c, 0, 62, 0
2, 3747, Note_on_c, 0, 53, 0
2, 3782, Note_on_c, 0, 65, 0
2, 3785, Note_on_c, 0, 36, 0
2, 3794, Note_on_c, 0, 24, 0
2, 3795, Note_on_c, 0, 56, 48
2, 3796, Control_c, 0, 64, 0
2, 3798, Note_on_c, 0, 65, 28
2, 3799, Note_on_c, 0, 28, 52
2, 3799, Note_on_c, 0, 61, 42
2, 3828, Note_on_c, 0, 58, 0
2, 3832, Note_on_c, 0, 65, 0
2, 3836, Note_on_c, 0, 61, 0
2, 3837, Note_on_c, 0, 56, 0
2, 3839, Note_on_c, 0, 65, 35
2, 3840, Note_on_c, 0, 29, 75
2, 3841, Note_on_c, 0, 57, 59
2, 3842, Note_on_c, 0, 60, 71
2, 3843, Note_on_c, 0, 62, 67
2, 3853, Note_on_c, 0, 57, 0
2, 3860, Note_on_c, 0, 60, 0
2, 3860, Note_on_c, 0, 62, 0
2, 3861, Note_on_c, 0, 28, 0
2, 3863, Note_on_c, 0, 65, 0
2, 3869, Note_on_c, 0, 29, 0
2, 3968, Note_on_c, 0, 56, 27
2, 3971, Note_on_c, 0, 57, 36
2, 3973, Note_on_c, 0, 69, 35
2, 3974, Note_on_c, 0, 65, 29
2, 3974, Note_on_c, 0, 63, 28
2, 3975, Note_on_c, 0, 60, 27
2, 3986, Note_on_c, 0, 56, 0
2, 3998, Note_on_c, 0, 60, 0
2, 4000, Note_on_c, 0, 65, 0
2, 4000, Note_on_c, 0, 69, 0
2, 4006, Note_on_c, 0, 57, 0
2, 4006, Note_on_c, 0, 63, 0
2, 4086, Note_on_c, 0, 52, 31
2, 4093, Note_on_c, 0, 52, 0
2, 4093, Note_on_c, 0, 65, 36
2, 4095, Note_on_c, 0, 57, 21
2, 4096, Note_on_c, 0, 62, 28
2, 4096, Note_on_c, 0, 53, 29
2, 4097, Note_on_c, 0, 60, 28
2, 4131, Control_c, 0, 64, 127
2, 4147, Note_on_c, 0, 65, 0
2, 4150, Note_on_c, 0, 57, 0
2, 4154, Note_on_c, 0, 60, 0
2, 4155, Note_on_c, 0, 62, 0
2, 4156, Note_on_c, 0, 53, 0
2, 4165, Control_c, 0, 64, 0
2, 4168, Note_on_c, 0, 57, 52
2, 4169, Note_on_c, 0, 67, 61
2, 4169, Note_on_c, 0, 60, 67
2, 4169, Note_on_c, 0, 55, 64
2, 4169, Note_on_c, 0, 62, 60
2, 4196, Note_on_c, 0, 57, 0
2, 4200, Note_on_c, 0, 67, 0
2, 4200, Note_on_c, 0, 62, 0
2, 4201, Note_on_c, 0, 60, 0
2, 4209, Note_on_c, 0, 55, 0
2, 4214, Note_on_c, 0, 60, 29
2, 4215, Note_on_c, 0, 57, 39
2, 4215, Note_on_c, 0, 53, 37
2, 4216, Note_on_c, 0, 65, 45
2, 4219, Note_on_c, 0, 62, 30
2, 4244, Note_on_c, 0, 57, 0
2, 4249, Note_on_c, 0, 62, 0
2, 4250, Note_on_c, 0, 60, 0
2, 4256, Note_on_c, 0, 53, 0
2, 4257, Note_on_c, 0, 65, 0
2, 4280, Control_c, 0, 64, 127
2, 4339, Control_c, 0, 64, 0
2, 4340, Note_on_c, 0, 68, 57
2, 4341, Note_on_c, 0, 62, 63
2, 4342, Note_on_c, 0, 65, 53
2, 4343, Note_on_c, 0, 60, 63
2, 4345, Note_on_c, 0, 53, 48
2, 4360, Note_on_c, 0, 65, 0
2, 4365, Note_on_c, 0, 68, 0
2, 4367, Note_on_c, 0, 53, 0
2, 4370, Note_on_c, 0, 62, 0
2, 4370, Note_on_c, 0, 69, 45
2, 4372, Note_on_c, 0, 60, 0
2, 4382, Note_on_c, 0, 67, 29
2, 4395, Note_on_c, 0, 65, 42
2, 4400, Note_on_c, 0, 69, 0
2, 4419, Note_on_c, 0, 62, 19
2, 4420, Note_on_c, 0, 67, 0
2, 4420, Control_c, 0, 64, 127
2, 4421, Note_on_c, 0, 65, 0
2, 4432, Note_on_c, 0, 60, 52
2, 4434, Note_on_c, 0, 62, 0
2, 4434, Note_on_c, 0, 48, 28
2, 4439, Note_on_c, 0, 60, 0
2, 4450, Note_on_c, 0, 48, 0
2, 4456, Control_c, 0, 64, 0
2, 4464, Note_on_c, 0, 67, 63
2, 4465, Note_on_c, 0, 63, 52
2, 4466, Note_on_c, 0, 60, 57
2, 4471, Note_on_c, 0, 50, 17
2, 4510, Note_on_c, 0, 60, 0
2, 4511, Note_on_c, 0, 67, 0
2, 4513, Note_on_c, 0, 50, 0
2, 4521, Note_on_c, 0, 63, 0
2, 4536, Note_on_c, 0, 63, 32
2, 4537, Note_on_c, 0, 65, 45
2, 4537, Note_on_c, 0, 57, 46
2, 4539, Note_on_c, 0, 60, 53
2, 4543, Note_on_c, 0, 61, 20
2, 4545, Note_on_c, 0, 48, 29
2, 4545, Note_on_c, 0, 41, 29
2, 4563, Note_on_c, 0, 48, 0
2, 4569, Note_on_c, 0, 65, 0
2, 4570, Note_on_c, 0, 57, 0
2, 4571, Note_on_c, 0, 60, 0
2, 4576, Note_on_c, 0, 61, 0
2, 4578, Note_on_c, 0, 41, 0
2, 4581, Note_on_c, 0, 63, 0
2, 4691, Note_on_c, 0, 66, 33
2, 4693, Note_on_c, 0, 47, 21
2, 4694, Note_on_c, 0, 57, 29
2, 4695, Note_on_c, 0, 61, 30
2, 4695, Note_on_c, 0, 35, 19
2, 4697, Note_on_c, 0, 63, 26
2, 4702, Control_c, 0, 64, 127
2, 4712, Note_on_c, 0, 47, 0
2, 4718, Note_on_c, 0, 35, 0
2, 4720, Note_on_c, 0, 57, 0
2, 4729, Note_on_c, 0, 63, 0
2, 4730, Note_on_c, 0, 66, 0
2, 4744, Note_on_c, 0, 61, 0
2, 4768, Note_on_c, 0, 65, 31
2, 4769, Note_on_c, 0, 56, 25
2, 4769, Note_on_c, 0, 62, 42
2, 4769, Control_c, 0, 64, 0
2, 4770, Note_on_c, 0, 34, 33
2, 4773, Note_on_c, 0, 46, 21
2, 4776, Note_on_c, 0, 56, 0
2, 4776, Note_on_c, 0, 65, 0
2, 4784, Note_on_c, 0, 62, 0
2, 4788, Note_on_c, 0, 34, 0
2, 4793, Note_on_c, 0, 46, 0
2, 4933, Note_on_c, 0, 68, 67
2, 4934, Note_on_c, 0, 67, 53
2, 4935, Note_on_c, 0, 72, 63
2, 4935, Note_on_c, 0, 79, 66
2, 4941, Note_on_c, 0, 74, 17
2, 4972, Note_on_c, 0, 79, 0
2, 4977, Note_on_c, 0, 72, 0
2, 4983, Note_on_c, 0, 74, 0
2, 4987, Note_on_c, 0, 68, 0
2, 4991, Note_on_c, 0, 67, 0
2, 5049, Note_on_c, 0, 76, 50
2, 5050, Note_on_c, 0, 68, 40
2, 5054, Note_on_c, 0, 65, 39
2, 5058, Note_on_c, 0, 72, 28
2, 5095, Note_on_c, 0, 72, 0
2, 5104, Note_on_c, 0, 68, 0
2, 5108, Note_on_c, 0, 76, 0
2, 5111, Control_c, 0, 64, 127
2, 5124, Note_on_c, 0, 65, 0
2, 5124, Note_on_c, 0, 67, 55
2, 5126, Note_on_c, 0, 68, 66
2, 5127, Note_on_c, 0, 79, 57
2, 5127, Note_on_c, 0, 72, 59
2, 5132, Note_on_c, 0, 74, 30
2, 5151, Note_on_c, 0, 68, 0
2, 5153, Note_on_c, 0, 74, 0
2, 5153, Note_on_c, 0, 79, 0
2, 5156, Control_c, 0, 64, 0
2, 5157, Note_on_c, 0, 72, 0
2, 5160, Note_on_c, 0, 67, 0
2, 5170, Note_on_c, 0, 65, 44
2, 5172, Note_on_c, 0, 77, 30
2, 5173, Note_on_c, 0, 68, 32
2, 5178, Note_on_c, 0, 72, 25
2, 5183, Note_on_c, 0, 65, 0
2, 5188, Note_on_c, 0, 77, 0
2, 5190, Note_on_c, 0, 72, 0
2, 5196, Note_on_c, 0, 68, 0
2, 5241, Control_c, 0, 64, 127
2, 5278, Control_c, 0, 64, 0
2, 5289, Note_on_c, 0, 56, 31
2, 5290, Note_on_c, 0, 47, 40
2, 5290, Note_on_c, 0, 68, 43
2, 5291, Note_on_c, 0, 62, 46
2, 5291, Note_on_c, 0, 59, 40
2, 5293, Note_on_c, 0, 65, 43
2, 5307, Control_c, 0, 64, 127
2, 5321, Note_on_c, 0, 59, 0
2, 5325, Note_on_c, 0, 62, 0
2, 5326, Note_on_c, 0, 65, 0
2, 5329, Note_on_c, 0, 47, 0
2, 5331, Note_on_c, 0, 68, 0
2, 5332, Control_c, 0, 64, 0
2, 5336, Note_on_c, 0, 56, 0
2, 5456, Note_on_c, 0, 74, 48
2, 5456, Note_on_c, 0, 56, 42
2, 5457, Note_on_c, 0, 68, 35
2, 5457, Note_on_c, 0, 65, 49
2, 5467, Control_c, 0, 64, 127
2, 5469, Note_on_c, 0, 65, 0
2, 5472, Note_on_c, 0, 68, 0
2, 5474, Note_on_c, 0, 74, 0
2, 5480, Control_c, 0, 64, 0
2, 5492, Note_on_c, 0, 77, 53
2, 5493, Note_on_c, 0, 59, 44
2, 5511, Note_on_c, 0, 77, 0
2, 5511, Note_on_c, 0, 56, 0
2, 5513, Note_on_c, 0, 59, 0
2, 5558, Note_on_c, 0, 80, 59
2, 5560, Note_on_c, 0, 71, 40
2, 5562, Note_on_c, 0, 62, 52
2, 5563, Note_on_c, 0, 74, 24
2, 5566, Note_on_c, 0, 71, 0
2, 5569, Note_on_c, 0, 74, 0
2, 5576, Note_on_c, 0, 80, 0
2, 5583, Note_on_c, 0, 62, 0
2, 5629, Note_on_c, 0, 66, 41
2, 5631, Note_on_c, 0, 80, 43
2, 5631, Note_on_c, 0, 77, 48
2, 5631, Note_on_c, 0, 83, 55
2, 5652, Note_on_c, 0, 77, 0
2, 5654, Note_on_c, 0, 83, 0
2, 5663, Note_on_c, 0, 66, 0
2, 5663, Note_on_c, 0, 86, 62
2, 5664, Note_on_c, 0, 71, 27
2, 5665, Note_on_c, 0, 77, 43
2, 5671, Control_c, 0, 64, 127
2, 5680, Note_on_c, 0, 80, 0
2, 5681, Note_on_c, 0, 77, 0
2, 5682, Note_on_c, 0, 86, 0
2, 5683, Note_on_c, 0, 71, 0
2, 5706, Control_c, 0, 64, 0
2, 5751, Note_on_c, 0, 84, 69
2, 5753, Note_on_c, 0, 81, 51
2, 5753, Note_on_c, 0, 72, 42
2, 5753, Note_on_c, 0, 77, 51
2, 5755, Note_on_c, 0, 69, 48
2, 5764, Note_on_c, 0, 69, 0
2, 5768, Note_on_c, 0, 72, 0
2, 5768, Note_on_c, 0, 77, 0
2, 5768, Note_on_c, 0, 81, 0
2, 5769, Note_on_c, 0, 84, 0
2, 5835, Note_on_c, 0, 81, 46
2, 5836, Note_on_c, 0, 60, 50
2, 5836, Note_on_c, 0, 77, 37
2, 5837, Note_on_c, 0, 74, 36
2, 5838, Note_on_c, 0, 72, 38
2, 5840, Note_on_c, 0, 69, 42
2, 5872, Control_c, 0, 64, 127
2, 5882, Note_on_c, 0, 69, 0
2, 5892, Note_on_c, 0, 81, 0
2, 5896, Note_on_c, 0, 60, 0
2, 5901, Note_on_c, 0, 77, 0
2, 5902, Note_on_c, 0, 74, 0
2, 5905, Note_on_c, 0, 72, 0
2, 5996, Note_on_c, 0, 67, 48
2, 5997, Note_on_c, 0, 56, 42
2, 5998, Note_on_c, 0, 60, 59
2, 5999, Control_c, 0, 64, 0
2, 5999, Note_on_c, 0, 62, 45
2, 5999, Note_on_c, 0, 48, 33
2, 6010, Note_on_c, 0, 56, 0
2, 6014, Note_on_c, 0, 60, 0
2, 6016, Note_on_c, 0, 48, 0
2, 6016, Note_on_c, 0, 62, 0
2, 6017, Note_on_c, 0, 67, 0
2, 6072, Note_on_c, 0, 47, 62
2, 6088, Control_c, 0, 64, 127
2, 6096, Note_on_c, 0, 47, 0
2, 6116, Control_c, 0, 64, 0
2, 6117, Note_on_c, 0, 56, 40
2, 6118, Note_on_c, 0, 46, 51
2, 6119, Note_on_c, 0, 65, 44
2, 6121, Note_on_c, 0, 60, 50
2, 6121, Note_on_c, 0, 62, 40
2, 6171, Note_on_c, 0, 62, 0
2, 6172, Note_on_c, 0, 60, 0
2, 6179, Note_on_c, 0, 65, 0
2, 6183, Note_on_c, 0, 56, 0
2, 6203, Note_on_c, 0, 34, 45
2, 6204, Control_c, 0, 64, 127
2, 6217, Note_on_c, 0, 46, 0
2, 6229, Note_on_c, 0, 34, 0
2, 6238, Control_c, 0, 64, 0
2, 6244, Note_on_c, 0, 63, 43
2, 6246, Note_on_c, 0, 55, 43
2, 6247, Note_on_c, 0, 45, 25
2, 6247, Note_on_c, 0, 33, 29
2, 6248, Note_on_c, 0, 60, 46
2, 6314, Note_on_c, 0, 55, 0
2, 6314, Control_c, 0, 64, 127
2, 6325, Note_on_c, 0, 45, 0
2, 6332, Note_on_c, 0, 37, 34
2, 6343, Note_on_c, 0, 33, 0
2, 6350, Note_on_c, 0, 60, 0
2, 6355, Note_on_c, 0, 37, 0
2, 6371, Note_on_c, 0, 39, 40
2, 6372, Control_c, 0, 64, 0
2, 6373, Note_on_c, 0, 63, 0
2, 6373, Note_on_c, 0, 55, 42
2, 6439, Note_on_c, 0, 37, 25
2, 6445, Note_on_c, 0, 55, 0
2, 6448, Note_on_c, 0, 39, 0
2, 6450, Note_on_c, 0, 54, 46
2, 6458, Note_on_c, 0, 37, 0
2, 6462, Note_on_c, 0, 38, 28
2, 6497, Note_on_c, 0, 38, 52
2, 6573, Note_on_c, 0, 55, 48
2, 6579, Note_on_c, 0, 54, 0
2, 6625, Note_on_c, 0, 38, 0
2, 6631, Note_on_c, 0, 55, 0
2, 6631, Note_on_c, 0, 56, 28
2, 6643, Note_on_c, 0, 38, 0
2, 6648, Note_on_c, 0, 56, 0
2, 6665, Note_on_c, 0, 57, 49
2, 6683, Note_on_c, 0, 57, 0
2, 6702, Note_on_c, 0, 60, 70
2, 6733, Note_on_c, 0, 60, 0
2, 6740, Note_on_c, 0, 53, 26
2, 6742, Note_on_c, 0, 43, 27
2, 6743, Note_on_c, 0, 58, 39
2, 6770, Note_on_c, 0, 58, 0
2, 6780, Note_on_c, 0, 59, 38
2, 6806, Note_on_c, 0, 59, 0
2, 6814, Note_on_c, 0, 53, 0
2, 6814, Note_on_c, 0, 62, 50
2, 6841, Note_on_c, 0, 62, 0
2, 6848, Note_on_c, 0, 53, 19
2, 6850, Control_c, 0, 64, 127
2, 6854, Note_on_c, 0, 65, 31
2, 6858, Note_on_c, 0, 43, 0
2, 6875, Note_on_c, 0, 65, 0
2, 6876, Note_on_c, 0, 53, 0
2, 6891, Note_on_c, 0, 67, 31
2, 6902, Note_on_c, 0, 67, 0
2, 6926, Note_on_c, 0, 74, 75
2, 6948, Note_on_c, 0, 74, 0
2, 6964, Note_on_c, 0, 74, 32
2, 6964, Control_c, 0, 64, 0
2, 6966, Note_on_c, 0, 70, 42
2, 6968, Note_on_c, 0, 67, 42
2, 6969, Note_on_c, 0, 58, 23
2, 6971, Note_on_c, 0, 62, 20
2, 6971, Note_on_c, 0, 64, 22
2, 7019, Control_c, 0, 64, 127
2, 7026, Note_on_c, 0, 62, 0
2, 7034, Note_on_c, 0, 64, 0
2, 7041, Note_on_c, 0, 74, 0
2, 7042, Note_on_c, 0, 67, 0
2, 7045, Note_on_c, 0, 48, 44
2, 7047, Note_on_c, 0, 70, 0
2, 7052, Note_on_c, 0, 58, 0
2, 7084, Control_c, 0, 64, 0
2, 7086, Note_on_c, 0, 58, 38
2, 7087, Note_on_c, 0, 68, 55
2, 7088, Note_on_c, 0, 72, 58
2, 7090, Note_on_c, 0, 62, 35
2, 7098, Note_on_c, 0, 58, 0
2, 7108, Note_on_c, 0, 48, 0
2, 7128, Note_on_c, 0, 62, 0
2, 7141, Note_on_c, 0, 68, 0
2, 7142, Note_on_c, 0, 72, 0
2, 7162, Note_on_c, 0, 47, 67
2, 7162, Note_on_c, 0, 48, 71
2, 7175, Note_on_c, 0, 47, 0
2, 7213, Control_c, 0, 64, 127
2, 7224, Control_c, 0, 64, 0
2, 7250, Note_on_c, 0, 75, 64
2, 7252, Note_on_c, 0, 71, 61
2, 7281, Note_on_c, 0, 71, 0
2, 7282, Note_on_c, 0, 75, 0
2, 7291, Note_on_c, 0, 65, 23
2, 7298, Note_on_c, 0, 65, 0
2, 7325, Note_on_c, 0, 74, 52
2, 7326, Note_on_c, 0, 70, 51
2, 7356, Note_on_c, 0, 70, 0
2, 7356, Note_on_c, 0, 74, 0
2, 7366, Note_on_c, 0, 68, 40
2, 7366, Note_on_c, 0, 72, 23
2, 7386, Note_on_c, 0, 68, 0
2, 7387, Note_on_c, 0, 72, 0
2, 7403, Note_on_c, 0, 72, 39
2, 7404, Note_on_c, 0, 69, 56
2, 7432, Note_on_c, 0, 69, 0
2, 7432, Note_on_c, 0, 72, 0
2, 7441, Note_on_c, 0, 65, 50
2, 7452, Note_on_c, 0, 65, 0
2, 7480, Note_on_c, 0, 59, 50
2, 7483, Note_on_c, 0, 65, 38
2, 7503, Note_on_c, 0, 65, 0
2, 7506, Note_on_c, 0, 59, 0
2, 7519, Note_on_c, 0, 36, 31
2, 7557, Note_on_c, 0, 58, 45
2, 7560, Note_on_c, 0, 64, 27
2, 7560, Note_on_c, 0, 63, 20
2, 7560, Note_on_c, 0, 62, 32
2, 7568, Note_on_c, 0, 62, 0
2, 7576, Note_on_c, 0, 64, 0
2, 7587, Note_on_c, 0, 36, 0
2, 7587, Note_on_c, 0, 63, 0
2, 7595, Note_on_c, 0, 39, 22
2, 7597, Note_on_c, 0, 56, 27
2, 7598, Note_on_c, 0, 48, 0
2, 7624, Note_on_c, 0, 58, 0
2, 7635, Note_on_c, 0, 39, 0
2, 7637, Note_on_c, 0, 56, 0
2, 7641, Note_on_c, 0, 57, 59
2, 7642, Note_on_c, 0, 60, 49
2, 7643, Note_on_c, 0, 40, 45
2, 7673, Note_on_c, 0, 57, 0
2, 7680, Note_on_c, 0, 40, 0
2, 7682, Note_on_c, 0, 60, 0
2, 7688, Note_on_c, 0, 41, 39
2, 7729, Note_on_c, 0, 74, 68
2, 7755, Note_on_c, 0, 74, 0
2, 7767, Note_on_c, 0, 72, 60
2, 7773, Note_on_c, 0, 29, 29
2, 7774, Control_c, 0, 64, 127
2, 7782, Note_on_c, 0, 29, 0
2, 7787, Note_on_c, 0, 72, 0
2, 7788, Note_on_c, 0, 41, 0
2, 7801, Control_c, 0, 64, 0
2, 7804, Note_on_c, 0, 67, 67
2, 7810, Note_on_c, 0, 74, 32
2, 7817, Note_on_c, 0, 68, 8
2, 7819, Note_on_c, 0, 67, 0
2, 7831, Note_on_c, 0, 68, 0
2, 7845, Note_on_c, 0, 67, 24
2, 7852, Note_on_c, 0, 74, 0
2, 7866, Note_on_c, 0, 67, 0
2, 7869, Note_on_c, 0, 65, 50
2, 7876, Note_on_c, 0, 65, 0
2, 7884, Note_on_c, 0, 74, 62
2, 7885, Note_on_c, 0, 67, 46
2, 7901, Note_on_c, 0, 74, 0
2, 7905, Note_on_c, 0, 67, 0
2, 7913, Note_on_c, 0, 62, 28
2, 7921, Note_on_c, 0, 62, 0
2, 7933, Note_on_c, 0, 65, 63
2, 7935, Note_on_c, 0, 56, 35
2, 7938, Note_on_c, 0, 46, 23
2, 7961, Note_on_c, 0, 65, 0
2, 7961, Note_on_c, 0, 67, 50
2, 7977, Note_on_c, 0, 65, 39
2, 7979, Note_on_c, 0, 67, 0
2, 7995, Note_on_c, 0, 65, 0
2, 7997, Note_on_c, 0, 62, 30
2, 7999, Note_on_c, 0, 56, 0
2, 8015, Note_on_c, 0, 62, 0
2, 8030, Note_on_c, 0, 46, 0
2, 8034, Control_c, 0, 64, 127
2, 8061, Control_c, 0, 64, 0
2, 8061, Note_on_c, 0, 56, 58
2, 8066, Note_on_c, 0, 65, 25
2, 8136, Note_on_c, 0, 46, 33
2, 8141, Note_on_c, 0, 65, 0
2, 8145, Control_c, 0, 64, 127
2, 8154, Note_on_c, 0, 46, 0
2, 8155, Note_on_c, 0, 56, 0
2, 8174, Control_c, 0, 64, 0
2, 8174, Note_on_c, 0, 45, 33
2, 8176, Note_on_c, 0, 55, 27
2, 8178, Note_on_c, 0, 63, 20
2, 8179, Note_on_c, 0, 60, 35
2, 8196, Note_on_c, 0, 55, 0
2, 8200, Note_on_c, 0, 60, 0
2, 8201, Control_c, 0, 64, 127
2, 8206, Note_on_c, 0, 45, 0
2, 8214, Note_on_c, 0, 63, 0
2, 8261, Note_on_c, 0, 67, 32
2, 8283, Note_on_c, 0, 67, 0
2, 8291, Control_c, 0, 64, 0
2, 8295, Note_on_c, 0, 61, 37
2, 8295, Note_on_c, 0, 65, 29
2, 8296, Note_on_c, 0, 60, 22
2, 8299, Note_on_c, 0, 72, 33
2, 8305, Note_on_c, 0, 65, 0
2, 8306, Note_on_c, 0, 72, 0
2, 8311, Note_on_c, 0, 61, 0
2, 8312, Note_on_c, 0, 60, 0
2, 8337, Note_on_c, 0, 75, 57
2, 8347, Note_on_c, 0, 75, 0
2, 8371, Control_c, 0, 64, 127
2, 8376, Note_on_c, 0, 89, 87
2, 8413, Note_on_c, 0, 64, 48
2, 8414, Control_c, 0, 64, 0
2, 8415, Note_on_c, 0, 60, 48
2, 8418, Note_on_c, 0, 54, 20
2, 8420, Note_on_c, 0, 64, 0
2, 8421, Note_on_c, 0, 60, 0
2, 8434, Note_on_c, 0, 54, 0
2, 8449, Note_on_c, 0, 89, 0
2, 8453, Note_on_c, 0, 86, 51
2, 8474, Note_on_c, 0, 86, 0
2, 8483, Control_c, 0, 64, 127
2, 8490, Note_on_c, 0, 77, 34
2, 8508, Note_on_c, 0, 77, 0
2, 8527, Note_on_c, 0, 80, 63
2, 8527, Note_on_c, 0, 86, 59
2, 8528, Note_on_c, 0, 50, 1
2, 8528, Control_c, 0, 64, 0
2, 8528, Note_on_c, 0, 54, 31
2, 8529, Note_on_c, 0, 44, 37
2, 8549, Note_on_c, 0, 50, 0
2, 8549, Note_on_c, 0, 86, 0
2, 8560, Note_on_c, 0, 80, 0
2, 8564, Note_on_c, 0, 86, 49
2, 8565, Note_on_c, 0, 81, 46
2, 8589, Note_on_c, 0, 81, 0
2, 8592, Note_on_c, 0, 86, 0
2, 8595, Control_c, 0, 64, 127
2, 8603, Note_on_c, 0, 77, 35
2, 8617, Note_on_c, 0, 54, 0
2, 8623, Note_on_c, 0, 77, 0
2, 8631, Note_on_c, 0, 44, 0
2, 8636, Note_on_c, 0, 74, 43
2, 8639, Control_c, 0, 64, 0
2, 8647, Note_on_c, 0, 43, 29
2, 8648, Note_on_c, 0, 53, 21
2, 8666, Note_on_c, 0, 74, 0
2, 8670, Note_on_c, 0, 43, 0
2, 8672, Note_on_c, 0, 77, 66
2, 8678, Note_on_c, 0, 53, 0
2, 8720, Control_c, 0, 64, 127
2, 8746, Note_on_c, 0, 77, 0
2, 8769, Control_c, 0, 64, 0
2, 8770, Note_on_c, 0, 64, 35
2, 8772, Note_on_c, 0, 59, 34
2, 8775, Note_on_c, 0, 53, 19
2, 8787, Note_on_c, 0, 59, 0
2, 8787, Note_on_c, 0, 64, 0
2, 8795, Note_on_c, 0, 53, 0
2, 8847, Control_c, 0, 64, 127
2, 8848, Note_on_c, 0, 55, 37
2, 8848, Note_on_c, 0, 74, 34
2, 8870, Note_on_c, 0, 74, 0
2, 8872, Note_on_c, 0, 55, 0
2, 8882, Control_c, 0, 64, 0
2, 8886, Note_on_c, 0, 74, 31
2, 8888, Note_on_c, 0, 58, 30
2, 8888, Note_on_c, 0, 77, 46
2, 8888, Note_on_c, 0, 65, 50
2, 8889, Note_on_c, 0, 70, 40
2, 8890, Note_on_c, 0, 48, 31
2, 8920, Control_c, 0, 64, 127
2, 8921, Note_on_c, 0, 77, 0
2, 8923, Note_on_c, 0, 74, 0
2, 8931, Note_on_c, 0, 70, 0
2, 8932, Note_on_c, 0, 65, 0
2, 8936, Note_on_c, 0, 48, 0
2, 8940, Note_on_c, 0, 58, 0
2, 8965, Note_on_c, 0, 48, 39
2, 8986, Note_on_c, 0, 48, 0
2, 9006, Control_c, 0, 64, 0
2, 9006, Note_on_c, 0, 69, 63
2, 9008, Note_on_c, 0, 57, 48
2, 9008, Note_on_c, 0, 58, 56
2, 9010, Note_on_c, 0, 64, 50
2, 9010, Note_on_c, 0, 61, 44
2, 9013, Note_on_c, 0, 57, 0
2, 9020, Note_on_c, 0, 61, 0
2, 9025, Note_on_c, 0, 58, 0
2, 9027, Note_on_c, 0, 69, 0
2, 9033, Note_on_c, 0, 64, 0
2, 9045, Note_on_c, 0, 69, 34
2, 9045, Note_on_c, 0, 58, 32
2, 9047, Note_on_c, 0, 61, 37
2, 9050, Note_on_c, 0, 64, 29
2, 9053, Note_on_c, 0, 69, 0
2, 9058, Note_on_c, 0, 64, 0
2, 9060, Note_on_c, 0, 58, 0
2, 9067, Note_on_c, 0, 61, 0
2, 9084, Note_on_c, 0, 48, 74
2, 9087, Note_on_c, 0, 47, 59
2, 9094, Note_on_c, 0, 47, 0
2, 9131, Note_on_c, 0, 65, 31
2, 9136, Note_on_c, 0, 62, 21
2, 9136, Note_on_c, 0, 60, 27
2, 9140, Note_on_c, 0, 65, 0
2, 9145, Note_on_c, 0, 60, 0
2, 9154, Note_on_c, 0, 62, 0
2, 9171, Note_on_c, 0, 57, 45
2, 9173, Note_on_c, 0, 65, 44
2, 9173, Note_on_c, 0, 60, 52
2, 9175, Note_on_c, 0, 62, 39
2, 9180, Note_on_c, 0, 65, 0
2, 9183, Note_on_c, 0, 57, 0
2, 9185, Note_on_c, 0, 62, 0
2, 9189, Note_on_c, 0, 60, 0
2, 9210, Note_on_c, 0, 36, 55
2, 9248, Control_c, 0, 64, 127
2, 9251, Note_on_c, 0, 57, 30
2, 9253, Note_on_c, 0, 65, 27
2, 9254, Note_on_c, 0, 62, 27
2, 9255, Note_on_c, 0, 60, 26
2, 9261, Note_on_c, 0, 36, 0
2, 9266, Control_c, 0, 64, 0
2, 9271, Note_on_c, 0, 65, 0
2, 9272, Note_on_c, 0, 57, 0
2, 9272, Note_on_c, 0, 60, 0
2, 9277, Note_on_c, 0, 62, 0
2, 9288, Note_on_c, 0, 57, 27
2, 9289, Note_on_c, 0, 65, 41
2, 9291, Note_on_c, 0, 60, 52
2, 9297, Note_on_c, 0, 62, 21
2, 9298, Note_on_c, 0, 65, 0
2, 9303, Control_c, 0, 64, 127
2, 9304, Note_on_c, 0, 48, 0
2, 9305, Note_on_c, 0, 62, 0
2, 9310, Note_on_c, 0, 60, 0
2, 9312, Note_on_c, 0, 57, 0
2, 9326, Note_on_c, 0, 48, 80
2, 9328, Note_on_c, 0, 47, 68
2, 9332, Control_c, 0, 64, 0
2, 9338, Note_on_c, 0, 47, 0
2, 9369, Note_on_c, 0, 53, 38
2, 9369, Note_on_c, 0, 58, 49
2, 9370, Note_on_c, 0, 65, 32
2, 9371, Note_on_c, 0, 62, 32
2, 9380, Note_on_c, 0, 65, 0
2, 9385, Note_on_c, 0, 53, 0
2, 9390, Note_on_c, 0, 62, 0
2, 9390, Note_on_c, 0, 58, 0
2, 9409, Note_on_c, 0, 62, 34
2, 9409, Note_on_c, 0, 65, 35
2, 9410, Note_on_c, 0, 58, 32
2, 9417, Note_on_c, 0, 65, 0
2, 9417, Note_on_c, 0, 62, 0
2, 9431, Note_on_c, 0, 58, 0
2, 9441, Control_c, 0, 64, 127
2, 9442, Note_on_c, 0, 39, 47
2, 9459, Note_on_c, 0, 48, 0
2, 9482, Control_c, 0, 64, 0
2, 9490, Note_on_c, 0, 56, 33
2, 9490, Note_on_c, 0, 61, 40
2, 9490, Note_on_c, 0, 53, 31
2, 9494, Note_on_c, 0, 58, 30
2, 9503, Note_on_c, 0, 53, 0
2, 9510, Note_on_c, 0, 58, 0
2, 9511, Note_on_c, 0, 56, 0
2, 9517, Note_on_c, 0, 61, 0
2, 9537, Note_on_c, 0, 39, 0
2, 9537, Note_on_c, 0, 40, 52
2, 9570, Note_on_c, 0, 62, 55
2, 9571, Note_on_c, 0, 55, 57
2, 9571, Note_on_c, 0, 57, 54
2, 9572, Note_on_c, 0, 60, 61
2, 9573, Note_on_c, 0, 40, 0
2, 9574, Note_on_c, 0, 41, 57
2, 9617, Note_on_c, 0, 55, 0
2, 9619, Control_c, 0, 64, 127
2, 9625, Note_on_c, 0, 57, 0
2, 9636, Note_on_c, 0, 60, 0
2, 9643, Note_on_c, 0, 62, 0
2, 9684, Note_on_c, 0, 29, 69
2, 9722, Control_c, 0, 64, 0
2, 9727, Note_on_c, 0, 29, 0
2, 9728, Note_on_c, 0, 72, 34
2, 9735, Note_on_c, 0, 73, 49
2, 9739, Note_on_c, 0, 41, 0
2, 9748, Note_on_c, 0, 72, 0
2, 9751, Note_on_c, 0, 73, 0
2, 9752, Note_on_c, 0, 74, 53
2, 9769, Note_on_c, 0, 74, 0
2, 9775, Note_on_c, 0, 77, 63
2, 9790, Note_on_c, 0, 77, 0
2, 9804, Note_on_c, 0, 79, 76
2, 9808, Control_c, 0, 64, 127
2, 9830, Note_on_c, 0, 74, 54
2, 9831, Note_on_c, 0, 79, 0
2, 9844, Note_on_c, 0, 74, 0
2, 9850, Control_c, 0, 64, 0
2, 9854, Note_on_c, 0, 67, 31
2, 9854, Note_on_c, 0, 62, 26
2, 9855, Note_on_c, 0, 56, 27
2, 9858, Note_on_c, 0, 77, 57
2, 9872, Note_on_c, 0, 67, 0
2, 9884, Control_c, 0, 64, 127
2, 9885, Note_on_c, 0, 62, 0
2, 9886, Note_on_c, 0, 77, 0
2, 9896, Note_on_c, 0, 65, 43
2, 9900, Note_on_c, 0, 56, 0
2, 9960, Note_on_c, 0, 65, 0
2, 9975, Note_on_c, 0, 56, 32
2, 9976, Note_on_c, 0, 46, 32
2, 9977, Control_c, 0, 64, 0
2, 9999, Control_c, 0, 64, 127
2, 10069, Note_on_c, 0, 56, 0
2, 10073, Note_on_c, 0, 52, 24
2, 10089, Note_on_c, 0, 46, 0
2, 10090, Note_on_c, 0, 52, 0
2, 10097, Control_c, 0, 64, 0
2, 10098, Note_on_c, 0, 83, 91
2, 10100, Note_on_c, 0, 55, 53
2, 10101, Note_on_c, 0, 45, 41
2, 10110, Note_on_c, 0, 45, 0
2, 10118, Note_on_c, 0, 55, 0
2, 10174, Control_c, 0, 64, 127
2, 10214, Note_on_c, 0, 83, 0
2, 10217, Control_c, 0, 64, 0
2, 10223, Note_on_c, 0, 61, 32
2, 10224, Note_on_c, 0, 55, 39
2, 10225, Note_on_c, 0, 84, 69
2, 10226, Note_on_c, 0, 65, 43
2, 10227, Note_on_c, 0, 60, 36
2, 10258, Control_c, 0, 64, 127
2, 10288, Note_on_c, 0, 84, 0
2, 10304, Note_on_c, 0, 65, 0
2, 10309, Note_on_c, 0, 55, 0
2, 10312, Note_on_c, 0, 60, 0
2, 10322, Note_on_c, 0, 61, 0
2, 10338, Control_c, 0, 64, 0
2, 10343, Note_on_c, 0, 80, 51
2, 10343, Note_on_c, 0, 64, 31
2, 10344, Note_on_c, 0, 60, 30
2, 10345, Note_on_c, 0, 54, 29
2, 10380, Control_c, 0, 64, 127
2, 10404, Note_on_c, 0, 64, 0
2, 10417, Note_on_c, 0, 60, 0
2, 10421, Note_on_c, 0, 54, 0
2, 10422, Note_on_c, 0, 80, 0
2, 10429, Note_on_c, 0, 81, 60
2, 10461, Control_c, 0, 64, 0
2, 10467, Note_on_c, 0, 60, 27
2, 10469, Note_on_c, 0, 62, 15
2, 10471, Note_on_c, 0, 54, 21
2, 10471, Note_on_c, 0, 72, 32
2, 10478, Note_on_c, 0, 60, 0
2, 10480, Note_on_c, 0, 81, 0
2, 10482, Note_on_c, 0, 62, 0
2, 10494, Control_c, 0, 64, 127
2, 10495, Note_on_c, 0, 54, 0
2, 10538, Note_on_c, 0, 72, 0
2, 10544, Note_on_c, 0, 44, 40
2, 10575, Note_on_c, 0, 44, 0
2, 10584, Control_c, 0, 64, 0
2, 10585, Note_on_c, 0, 78, 42
2, 10586, Note_on_c, 0, 66, 50
2, 10587, Note_on_c, 0, 43, 28
2, 10588, Note_on_c, 0, 53, 28
2, 10615, Note_on_c, 0, 43, 0
2, 10626, Note_on_c, 0, 53, 0
2, 10645, Note_on_c, 0, 78, 0
2, 10645, Control_c, 0, 64, 127
2, 10649, Note_on_c, 0, 66, 0
2, 10659, Note_on_c, 0, 79, 55
2, 10663, Note_on_c, 0, 67, 15
2, 10673, Note_on_c, 0, 79, 0
2, 10674, Note_on_c, 0, 67, 0
2, 10696, Note_on_c, 0, 53, 27
2, 10697, Note_on_c, 0, 59, 25
2, 10698, Control_c, 0, 64, 0
2, 10699, Note_on_c, 0, 75, 40
2, 10701, Note_on_c, 0, 63, 34
2, 10706, Note_on_c, 0, 59, 0
2, 10715, Note_on_c, 0, 53, 0
2, 10717, Note_on_c, 0, 73, 13
2, 10749, Note_on_c, 0, 75, 0
2, 10756, Note_on_c, 0, 73, 0
2, 10757, Note_on_c, 0, 63, 0
2, 10773, Note_on_c, 0, 49, 46
2, 10773, Note_on_c, 0, 50, 64
2, 10774, Note_on_c, 0, 74, 60
2, 10778, Note_on_c, 0, 73, 26
2, 10780, Note_on_c, 0, 62, 37
2, 10781, Control_c, 0, 64, 127
2, 10794, Note_on_c, 0, 62, 0
2, 10796, Note_on_c, 0, 73, 0
2, 10797, Note_on_c, 0, 49, 0
2, 10813, Control_c, 0, 64, 0
2, 10821, Note_on_c, 0, 71, 52
2, 10824, Note_on_c, 0, 74, 0
2, 10842, Note_on_c, 0, 50, 0
2, 10894, Note_on_c, 0, 67, 44
2, 10895, Note_on_c, 0, 62, 45
2, 10896, Note_on_c, 0, 50, 33
2, 10901, Note_on_c, 0, 71, 0
2, 10912, Note_on_c, 0, 62, 0
2, 10917, Control_c, 0, 64, 127
2, 10923, Note_on_c, 0, 67, 0
2, 10943, Control_c, 0, 64, 0
2, 10987, Note_on_c, 0, 46, 48
2, 10997, Note_on_c, 0, 50, 0
2, 11023, Note_on_c, 0, 47, 60
2, 11028, Control_c, 0, 64, 127
2, 11048, Note_on_c, 0, 46, 0
2, 11052, Note_on_c, 0, 47, 0
2, 11052, Control_c, 0, 64, 0
2, 11067, Note_on_c, 0, 48, 44
2, 11137, Note_on_c, 0, 36, 64
2, 11138, Note_on_c, 0, 86, 86
2, 11151, Note_on_c, 0, 36, 0
2, 11161, Note_on_c, 0, 48, 0
2, 11163, Note_on_c, 0, 86, 0
2, 11166, Control_c, 0, 64, 127
2, 11177, Note_on_c, 0, 84, 54
2, 11182, Control_c, 0, 64, 0
2, 11198, Note_on_c, 0, 84, 0
2, 11211, Note_on_c, 0, 79, 34
2, 11234, Note_on_c, 0, 79, 0
2, 11246, Control_c, 0, 64, 127
2, 11248, Note_on_c, 0, 76, 29
2, 11276, Note_on_c, 0, 76, 0
2, 11278, Control_c, 0, 64, 0
2, 11285, Note_on_c, 0, 63, 39
2, 11288, Note_on_c, 0, 52, 36
2, 11288, Note_on_c, 0, 80, 54
2, 11289, Note_on_c, 0, 58, 30
2, 11311, Note_on_c, 0, 80, 0
2, 11323, Note_on_c, 0, 78, 57
2, 11340, Note_on_c, 0, 78, 0
2, 11364, Note_on_c, 0, 73, 33
2, 11377, Note_on_c, 0, 73, 0
2, 11401, Note_on_c, 0, 70, 43
2, 11414, Note_on_c, 0, 63, 0
2, 11426, Note_on_c, 0, 70, 0
2, 11439, Note_on_c, 0, 52, 0
2, 11439, Note_on_c, 0, 65, 30
2, 11448, Note_on_c, 0, 65, 0
2, 11455, Note_on_c, 0, 58, 0
2, 11478, Control_c, 0, 64, 127
2, 11479, Note_on_c, 0, 74, 76
2, 11508, Control_c, 0, 64, 0
2, 11509, Note_on_c, 0, 74, 0
2, 11512, Note_on_c, 0, 63, 52
2, 11516, Note_on_c, 0, 72, 57
2, 11519, Note_on_c, 0, 60, 26
2, 11523, Note_on_c, 0, 63, 0
2, 11524, Note_on_c, 0, 60, 0
2, 11529, Note_on_c, 0, 53, 14
2, 11537, Note_on_c, 0, 53, 0
2, 11542, Note_on_c, 0, 72, 0
2, 11553, Note_on_c, 0, 69, 49
2, 11574, Note_on_c, 0, 69, 0
2, 11594, Note_on_c, 0, 47, 38
2, 11597, Note_on_c, 0, 65, 19
2, 11597, Note_on_c, 0, 48, 40
2, 11602, Note_on_c, 0, 47, 0
2, 11622, Note_on_c, 0, 65, 0
2, 11630, Note_on_c, 0, 62, 46
2, 11652, Note_on_c, 0, 62, 0
2, 11668, Note_on_c, 0, 65, 52
2, 11672, Note_on_c, 0, 59, 39
2, 11696, Note_on_c, 0, 59, 0
2, 11698, Note_on_c, 0, 65, 0
2, 11707, Note_on_c, 0, 48, 0
2, 11710, Note_on_c, 0, 39, 28
2, 11747, Note_on_c, 0, 39, 0
2, 11752, Note_on_c, 0, 56, 57
2, 11753, Note_on_c, 0, 65, 40
2, 11756, Note_on_c, 0, 40, 34
2, 11777, Note_on_c, 0, 65, 0
2, 11785, Note_on_c, 0, 56, 0
2, 11796, Note_on_c, 0, 57, 28
2, 11819, Note_on_c, 0, 39, 14
2, 11821, Note_on_c, 0, 57, 0
2, 11833, Note_on_c, 0, 58, 54
2, 11834, Note_on_c, 0, 65, 37
2, 11847, Control_c, 0, 64, 127
2, 11855, Note_on_c, 0, 65, 0
2, 11867, Note_on_c, 0, 58, 0
2, 11869, Control_c, 0, 64, 0
2, 11870, Note_on_c, 0, 39, 0
2, 11875, Note_on_c, 0, 40, 0
2, 11879, Note_on_c, 0, 59, 41
2, 11880, Note_on_c, 0, 41, 33
2, 11944, Note_on_c, 0, 41, 0
2, 11961, Note_on_c, 0, 59, 0
2, 11962, Control_c, 0, 64, 127
2, 11966, Note_on_c, 0, 36, 46
2, 12002, Note_on_c, 0, 36, 0
2, 12007, Control_c, 0, 64, 0
2, 12011, Note_on_c, 0, 39, 40
2, 12012, Note_on_c, 0, 60, 44
2, 12012, Note_on_c, 0, 65, 29
2, 12014, Note_on_c, 0, 29, 30
2, 12032, Note_on_c, 0, 29, 0
2, 12033, Note_on_c, 0, 60, 0
2, 12034, Control_c, 0, 64, 127
2, 12041, Note_on_c, 0, 65, 0
2, 12046, Note_on_c, 0, 39, 0
2, 12112, Note_on_c, 0, 60, 30
2, 12129, Note_on_c, 0, 63, 69
2, 12129, Note_on_c, 0, 74, 61
2, 12130, Note_on_c, 0, 62, 63
2, 12130, Note_on_c, 0, 67, 61
2, 12132, Note_on_c, 0, 69, 61
2, 12135, Control_c, 0, 64, 0
2, 12136, Note_on_c, 0, 60, 0
2, 12169, Control_c, 0, 64, 127
2, 12209, Note_on_c, 0, 69, 0
2, 12210, Note_on_c, 0, 62, 0
2, 12222, Note_on_c, 0, 74, 0
2, 12225, Note_on_c, 0, 63, 0
2, 12231, Note_on_c, 0, 67, 0
2, 12246, Control_c, 0, 64, 0
2, 12250, Note_on_c, 0, 63, 49
2, 12251, Note_on_c, 0, 67, 33
2, 12254, Note_on_c, 0, 72, 34
2, 12259, Note_on_c, 0, 67, 0
2, 12260, Note_on_c, 0, 72, 0
2, 12265, Note_on_c, 0, 63, 0
2, 12305, Control_c, 0, 64, 127
2, 12320, Note_on_c, 0, 44, 20
2, 12330, Note_on_c, 0, 57, 53
2, 12331, Note_on_c, 0, 47, 44
2, 12332, Note_on_c, 0, 63, 40
2, 12332, Note_on_c, 0, 61, 39
2, 12336, Control_c, 0, 64, 0
2, 12342, Note_on_c, 0, 44, 0
2, 12359, Note_on_c, 0, 66, 1
2, 12369, Control_c, 0, 64, 127
2, 12429, Note_on_c, 0, 47, 0
2, 12443, Note_on_c, 0, 57, 0
2, 12452, Note_on_c, 0, 63, 0
2, 12455, Note_on_c, 0, 61, 0
2, 12455, Note_on_c, 0, 66, 0
2, 12486, Note_on_c, 0, 34, 35
2, 12488, Control_c, 0, 64, 0
2, 12490, Note_on_c, 0, 46, 18
2, 12575, Note_on_c, 0, 77, 84
2, 12598, Note_on_c, 0, 77, 0
2, 12612, Note_on_c, 0, 72, 27
2, 12617, Note_on_c, 0, 73, 45
2, 12624, Note_on_c, 0, 72, 0
2, 12632, Note_on_c, 0, 73, 0
2, 12636, Note_on_c, 0, 74, 32
2, 12654, Note_on_c, 0, 74, 0
2, 12691, Note_on_c, 0, 77, 73
2, 12703, Control_c, 0, 64, 127
2, 12741, Note_on_c, 0, 74, 19
2, 12742, Note_on_c, 0, 76, 17
2, 12748, Note_on_c, 0, 76, 0
2, 12753, Note_on_c, 0, 74, 0
2, 12764, Note_on_c, 0, 77, 0
2, 12782, Note_on_c, 0, 34, 0
2, 12810, Note_on_c, 0, 34, 34
2, 12851, Control_c, 0, 64, 0
2, 12852, Note_on_c, 0, 74, 59
2, 12853, Note_on_c, 0, 34, 0
2, 12853, Note_on_c, 0, 68, 78
2, 12865, Note_on_c, 0, 46, 0
2, 12876, Note_on_c, 0, 74, 0
2, 12880, Note_on_c, 0, 68, 0
2, 12885, Note_on_c, 0, 71, 57
2, 12886, Note_on_c, 0, 74, 19
2, 12912, Note_on_c, 0, 68, 44
2, 12916, Note_on_c, 0, 71, 0
2, 12926, Note_on_c, 0, 74, 0
2, 12926, Control_c, 0, 64, 127
2, 12933, Note_on_c, 0, 68, 0
2, 12941, Note_on_c, 0, 65, 42
2, 12947, Note_on_c, 0, 65, 0
2, 12958, Note_on_c, 0, 63, 31
2, 12964, Note_on_c, 0, 56, 29
2, 12966, Control_c, 0, 64, 0
2, 12967, Note_on_c, 0, 47, 31
2, 12970, Note_on_c, 0, 68, 45
2, 12984, Note_on_c, 0, 63, 0
2, 13002, Note_on_c, 0, 65, 36
2, 13005, Note_on_c, 0, 62, 1
2, 13006, Note_on_c, 0, 68, 0
2, 13015, Note_on_c, 0, 65, 0
2, 13022, Note_on_c, 0, 62, 0
2, 13038, Note_on_c, 0, 56, 0
2, 13063, Note_on_c, 0, 59, 53
2, 13064, Control_c, 0, 64, 127
2, 13080, Note_on_c, 0, 59, 0
2, 13086, Control_c, 0, 64, 0
2, 13088, Note_on_c, 0, 65, 60
2, 13088, Note_on_c, 0, 56, 50
2, 13090, Note_on_c, 0, 59, 32
2, 13090, Note_on_c, 0, 62, 52
2, 13092, Note_on_c, 0, 47, 0
2, 13108, Note_on_c, 0, 59, 0
2, 13110, Note_on_c, 0, 65, 0
2, 13112, Note_on_c, 0, 62, 0
2, 13116, Note_on_c, 0, 56, 0
2, 13134, Note_on_c, 0, 53, 39
2, 13135, Note_on_c, 0, 63, 43
2, 13155, Note_on_c, 0, 63, 0
2, 13169, Note_on_c, 0, 53, 0
2, 13187, Control_c, 0, 64, 127
2, 13207, Control_c, 0, 64, 0
2, 13210, Note_on_c, 0, 59, 50
2, 13211, Note_on_c, 0, 56, 44
2, 13212, Note_on_c, 0, 53, 41
2, 13214, Note_on_c, 0, 47, 14
2, 13229, Note_on_c, 0, 53, 0
2, 13229, Note_on_c, 0, 59, 0
2, 13231, Note_on_c, 0, 56, 0
2, 13237, Control_c, 0, 64, 127
2, 13248, Control_c, 0, 64, 0
2, 13251, Note_on_c, 0, 65, 65
2, 13254, Note_on_c, 0, 56, 32
2, 13257, Note_on_c, 0, 59, 35
2, 13257, Note_on_c, 0, 50, 43
2, 13260, Note_on_c, 0, 47, 0
2, 13287, Note_on_c, 0, 59, 0
2, 13298, Control_c, 0, 64, 127
2, 13312, Note_on_c, 0, 56, 0
2, 13317, Note_on_c, 0, 65, 0
2, 13328, Note_on_c, 0, 62, 44
2, 13329, Note_on_c, 0, 50, 0
2, 13331, Note_on_c, 0, 47, 30
2, 13333, Note_on_c, 0, 59, 24
2, 13340, Note_on_c, 0, 59, 0
2, 13344, Note_on_c, 0, 47, 0
2, 13344, Note_on_c, 0, 62, 0
2, 13372, Control_c, 0, 64, 0
2, 13393, Control_c, 0, 64, 127
2, 13407, Note_on_c, 0, 73, 69
2, 13407, Note_on_c, 0, 58, 35
2, 13409, Note_on_c, 0, 68, 59
2, 13411, Note_on_c, 0, 64, 30
2, 13412, Note_on_c, 0, 49, 27
2, 13434, Note_on_c, 0, 49, 0
2, 13434, Note_on_c, 0, 64, 0
2, 13435, Note_on_c, 0, 58, 0
2, 13438, Note_on_c, 0, 68, 0
2, 13438, Note_on_c, 0, 73, 0
2, 13447, Control_c, 0, 64, 0
2, 13451, Note_on_c, 0, 72, 52
2, 13454, Note_on_c, 0, 67, 46
2, 13455, Note_on_c, 0, 62, 34
2, 13456, Note_on_c, 0, 57, 31
2, 13474, Note_on_c, 0, 67, 0
2, 13474, Note_on_c, 0, 72, 0
2, 13484, Note_on_c, 0, 62, 0
2, 13488, Note_on_c, 0, 57, 0
2, 13524, Control_c, 0, 64, 127
2, 13524, Note_on_c, 0, 69, 59
2, 13525, Note_on_c, 0, 57, 31
2, 13529, Note_on_c, 0, 62, 46
2, 13529, Note_on_c, 0, 60, 44
2, 13540, Note_on_c, 0, 69, 0
2, 13544, Note_on_c, 0, 62, 0
2, 13548, Note_on_c, 0, 60, 0
2, 13562, Note_on_c, 0, 57, 0
2, 13567, Control_c, 0, 64, 0
2, 13573, Note_on_c, 0, 65, 42
2, 13574, Note_on_c, 0, 48, 35
2, 13575, Note_on_c, 0, 60, 39
2, 13577, Note_on_c, 0, 62, 43
2, 13577, Note_on_c, 0, 57, 35
2, 13597, Note_on_c, 0, 57, 0
2, 13604, Note_on_c, 0, 62, 0
2, 13606, Note_on_c, 0, 60, 0
2, 13606, Note_on_c, 0, 65, 0
2, 13608, Note_on_c, 0, 48, 0
2, 13618, Control_c, 0, 64, 127
2, 13682, Control_c, 0, 64, 0
2, 13691, Note_on_c, 0, 56, 34
2, 13691, Note_on_c, 0, 67, 38
2, 13694, Note_on_c, 0, 60, 46
2, 13695, Note_on_c, 0, 62, 32
2, 13696, Note_on_c, 0, 46, 23
2, 13696, Note_on_c, 0, 55, 28
2, 13724, Note_on_c, 0, 60, 0
2, 13727, Note_on_c, 0, 62, 0
2, 13730, Note_on_c, 0, 56, 0
2, 13730, Note_on_c, 0, 55, 0
2, 13731, Note_on_c, 0, 67, 0
2, 13743, Note_on_c, 0, 46, 0
2, 13807, Note_on_c, 0, 56, 32
2, 13809, Note_on_c, 0, 46, 27
2, 13809, Note_on_c, 0, 65, 35
2, 13810, Note_on_c, 0, 62, 30
2, 13810, Note_on_c, 0, 60, 43
2, 13813, Control_c, 0, 64, 127
2, 13814, Note_on_c, 0, 55, 19
2, 13835, Note_on_c, 0, 56, 0
2, 13836, Note_on_c, 0, 60, 0
2, 13836, Note_on_c, 0, 62, 0
2, 13841, Note_on_c, 0, 55, 0
2, 13842, Note_on_c, 0, 46, 0
2, 13843, Note_on_c, 0, 65, 0
2, 13920, Note_on_c, 0, 55, 44
2, 13926, Control_c, 0, 64, 0
2, 13926, Note_on_c, 0, 72, 61
2, 13928, Note_on_c, 0, 60, 35
2, 13932, Note_on_c, 0, 77, 52
2, 13932, Note_on_c, 0, 58, 14
2, 13933, Note_on_c, 0, 61, 32
2, 13934, Note_on_c, 0, 65, 69
2, 13936, Note_on_c, 0, 81, 67
2, 13939, Note_on_c, 0, 84, 70
2, 13943, Control_c, 0, 64, 127
2, 13956, Note_on_c, 0, 72, 0
2, 13962, Note_on_c, 0, 77, 0
2, 13966, Note_on_c, 0, 81, 0
2, 13969, Note_on_c, 0, 84, 0
2, 13974, Note_on_c, 0, 60, 0
2, 13976, Note_on_c, 0, 55, 0
2, 13980, Note_on_c, 0, 58, 0
2, 13982, Note_on_c, 0, 65, 0
2, 13983, Note_on_c, 0, 61, 0
2, 14000, Note_on_c, 0, 77, 52
2, 14006, Note_on_c, 0, 55, 54
2, 14007, Note_on_c, 0, 60, 57
2, 14010, Note_on_c, 0, 58, 33
2, 14011, Note_on_c, 0, 61, 46
2, 14011, Note_on_c, 0, 65, 66
2, 14012, Note_on_c, 0, 89, 54
2, 14013, Note_on_c, 0, 83, 31
2, 14014, Note_on_c, 0, 86, 60
2, 14023, Note_on_c, 0, 77, 0
2, 14023, Note_on_c, 0, 88, 27
2, 14025, Note_on_c, 0, 83, 0
2, 14029, Note_on_c, 0, 86, 0
2, 14030, Note_on_c, 0, 88, 0
2, 14031, Note_on_c, 0, 55, 0
2, 14032, Note_on_c, 0, 89, 0
2, 14034, Note_on_c, 0, 58, 0
2, 14035, Note_on_c, 0, 65, 0
2, 14035, Note_on_c, 0, 60, 0
2, 14045, Note_on_c, 0, 61, 0
2, 14049, Note_on_c, 0, 81, 48
2, 14049, Control_c, 0, 64, 0
2, 14051, Note_on_c, 0, 86, 58
2, 14054, Note_on_c, 0, 65, 60
2, 14054, Note_on_c, 0, 60, 50
2, 14055, Note_on_c, 0, 55, 65
2, 14056, Note_on_c, 0, 61, 22
2, 14056, Note_on_c, 0, 93, 66
2, 14057, Note_on_c, 0, 89, 56
2, 14060, Note_on_c, 0, 58, 27
2, 14067, Note_on_c, 0, 81, 0
2, 14071, Note_on_c, 0, 86, 0
2, 14073, Control_c, 0, 64, 127
2, 14075, Note_on_c, 0, 89, 0
2, 14079, Note_on_c, 0, 93, 0
2, 14083, Note_on_c, 0, 65, 0
2, 14084, Note_on_c, 0, 55, 0
2, 14087, Note_on_c, 0, 60, 0
2, 14091, Note_on_c, 0, 61, 0
2, 14093, Note_on_c, 0, 58, 0
2, 14117, Note_on_c, 0, 84, 44
2, 14120, Note_on_c, 0, 89, 62
2, 14121, Control_c, 0, 64, 0
2, 14123, Note_on_c, 0, 60, 61
2, 14123, Note_on_c, 0, 54, 60
2, 14123, Note_on_c, 0, 58, 47
2, 14124, Note_on_c, 0, 64, 59
2, 14124, Note_on_c, 0, 93, 69
2, 14125, Note_on_c, 0, 96, 67
2, 14141, Note_on_c, 0, 64, 0
2, 14143, Note_on_c, 0, 96, 0
2, 14143, Note_on_c, 0, 93, 0
2, 14146, Note_on_c, 0, 89, 0
2, 14146, Note_on_c, 0, 60, 0
2, 14147, Note_on_c, 0, 54, 0
2, 14147, Note_on_c, 0, 84, 0
2, 14151, Note_on_c, 0, 58, 0
2, 14193, Note_on_c, 0, 80, 55
2, 14194, Note_on_c, 0, 92, 53
2, 14196, Note_on_c, 0, 64, 54
2, 14196, Note_on_c, 0, 54, 54
2, 14197, Note_on_c, 0, 60, 39
2, 14198, Note_on_c, 0, 86, 43
2, 14199, Note_on_c, 0, 89, 37
2, 14207, Control_c, 0, 64, 127
2, 14214, Note_on_c, 0, 80, 0
2, 14214, Note_on_c, 0, 81, 41
2, 14216, Note_on_c, 0, 92, 0
2, 14232, Note_on_c, 0, 89, 0
2, 14234, Note_on_c, 0, 81, 0
2, 14237, Note_on_c, 0, 86, 0
2, 14241, Note_on_c, 0, 64, 0
2, 14244, Note_on_c, 0, 54, 0
2, 14248, Note_on_c, 0, 60, 0
2, 14266, Control_c, 0, 64, 0
2, 14273, Note_on_c, 0, 89, 58
2, 14275, Note_on_c, 0, 77, 31
2, 14275, Note_on_c, 0, 64, 50
2, 14277, Note_on_c, 0, 60, 40
2, 14277, Note_on_c, 0, 54, 34
2, 14281, Note_on_c, 0, 58, 31
2, 14284, Note_on_c, 0, 88, 15
2, 14288, Control_c, 0, 64, 127
2, 14294, Note_on_c, 0, 89, 0
2, 14297, Note_on_c, 0, 88, 0
2, 14299, Note_on_c, 0, 77, 0
2, 14305, Note_on_c, 0, 60, 0
2, 14316, Note_on_c, 0, 64, 0
2, 14332, Note_on_c, 0, 54, 0
2, 14338, Note_on_c, 0, 58, 0
2, 14354, Note_on_c, 0, 54, 54
2, 14356, Note_on_c, 0, 74, 57
2, 14358, Note_on_c, 0, 86, 45
2, 14360, Note_on_c, 0, 84, 43
2, 14360, Note_on_c, 0, 58, 9
2, 14363, Note_on_c, 0, 74, 0
2, 14365, Note_on_c, 0, 84, 0
2, 14370, Note_on_c, 0, 86, 0
2, 14379, Note_on_c, 0, 54, 0
2, 14380, Note_on_c, 0, 58, 0
2, 14394, Note_on_c, 0, 64, 61
2, 14395, Note_on_c, 0, 77, 69
2, 14396, Note_on_c, 0, 59, 58
2, 14396, Note_on_c, 0, 89, 71
2, 14397, Note_on_c, 0, 53, 54
2, 14397, Note_on_c, 0, 86, 55
2, 14398, Control_c, 0, 64, 0
2, 14416, Note_on_c, 0, 64, 0
2, 14420, Note_on_c, 0, 89, 0
2, 14421, Note_on_c, 0, 59, 0
2, 14421, Note_on_c, 0, 86, 0
2, 14426, Note_on_c, 0, 77, 0
2, 14429, Note_on_c, 0, 53, 0
2, 14476, Note_on_c, 0, 48, 84
2, 14477, Note_on_c, 0, 47, 71
2, 14487, Note_on_c, 0, 47, 0
2, 14519, Note_on_c, 0, 82, 77
2, 14543, Note_on_c, 0, 82, 0
2, 14546, Note_on_c, 0, 83, 57
2, 14565, Note_on_c, 0, 82, 46
2, 14574, Note_on_c, 0, 83, 0
2, 14587, Note_on_c, 0, 80, 33
2, 14588, Note_on_c, 0, 82, 0
2, 14613, Note_on_c, 0, 80, 0
2, 14614, Note_on_c, 0, 77, 37
2, 14627, Note_on_c, 0, 77, 0
2, 14636, Note_on_c, 0, 36, 57
2, 14637, Note_on_c, 0, 82, 77
2, 14675, Note_on_c, 0, 80, 57
2, 14698, Note_on_c, 0, 80, 0
2, 14699, Note_on_c, 0, 82, 0
2, 14709, Note_on_c, 0, 77, 60
2, 14737, Note_on_c, 0, 77, 0
2, 14745, Note_on_c, 0, 72, 61
2, 14758, Note_on_c, 0, 72, 0
2, 14786, Note_on_c, 0, 77, 54
2, 14787, Note_on_c, 0, 71, 62
2, 14808, Note_on_c, 0, 77, 0
2, 14812, Note_on_c, 0, 71, 0
2, 14820, Note_on_c, 0, 65, 53
2, 14827, Note_on_c, 0, 65, 0
2, 14851, Note_on_c, 0, 36, 0
2, 14861, Note_on_c, 0, 74, 68
2, 14861, Note_on_c, 0, 70, 75
2, 14880, Note_on_c, 0, 70, 0
2, 14880, Note_on_c, 0, 74, 0
2, 14883, Note_on_c, 0, 48, 0
2, 14899, Note_on_c, 0, 68, 64
2, 14901, Note_on_c, 0, 72, 45
2, 14919, Note_on_c, 0, 72, 0
2, 14923, Note_on_c, 0, 68, 0
2, 14939, Note_on_c, 0, 69, 76
2, 14941, Note_on_c, 0, 72, 55
2, 14969, Note_on_c, 0, 72, 0
2, 14969, Note_on_c, 0, 69, 0
2, 14986, Note_on_c, 0, 65, 63
2, 15014, Note_on_c, 0, 65, 0
2, 15026, Note_on_c, 0, 60, 32
2, 15041, Note_on_c, 0, 60, 0
2, 15065, Note_on_c, 0, 47, 35
2, 15066, Note_on_c, 0, 59, 48
2, 15067, Note_on_c, 0, 65, 39
2, 15085, Note_on_c, 0, 65, 0
2, 15086, Note_on_c, 0, 59, 0
2, 15086, Control_c, 0, 64, 127
2, 15099, Control_c, 0, 64, 0
2, 15104, Note_on_c, 0, 47, 0
2, 15111, Note_on_c, 0, 48, 33
2, 15112, Note_on_c, 0, 62, 35
2, 15113, Note_on_c, 0, 58, 32
2, 15116, Note_on_c, 0, 65, 20
2, 15118, Note_on_c, 0, 48, 0
2, 15160, Note_on_c, 0, 62, 0
2, 15184, Note_on_c, 0, 65, 0
2, 15191, Note_on_c, 0, 34, 43
2, 15199, Note_on_c, 0, 58, 0
2, 15206, Control_c, 0, 64, 127
2, 15230, Control_c, 0, 64, 0
2, 15232, Note_on_c, 0, 34, 0
2, 15235, Note_on_c, 0, 35, 39
2, 15237, Note_on_c, 0, 56, 45
2, 15238, Note_on_c, 0, 61, 43
2, 15257, Note_on_c, 0, 56, 0
2, 15257, Note_on_c, 0, 35, 0
2, 15259, Note_on_c, 0, 61, 0
2, 15319, Note_on_c, 0, 74, 75
2, 15320, Note_on_c, 0, 56, 43
2, 15323, Note_on_c, 0, 36, 28
2, 15325, Note_on_c, 0, 60, 35
2, 15338, Control_c, 0, 64, 127
2, 15347, Note_on_c, 0, 60, 0
2, 15351, Control_c, 0, 64, 0
2, 15355, Note_on_c, 0, 36, 0
2, 15357, Note_on_c, 0, 56, 0
2, 15360, Note_on_c, 0, 74, 0
2, 15366, Note_on_c, 0, 72, 56
2, 15371, Note_on_c, 0, 29, 32
2, 15371, Note_on_c, 0, 57, 28
2, 15371, Note_on_c, 0, 53, 25
2, 15372, Note_on_c, 0, 60, 25
2, 15380, Note_on_c, 0, 29, 0
2, 15382, Note_on_c, 0, 72, 0
2, 15442, Note_on_c, 0, 69, 66
2, 15467, Note_on_c, 0, 69, 0
2, 15472, Note_on_c, 0, 53, 0
2, 15474, Note_on_c, 0, 57, 0
2, 15477, Note_on_c, 0, 60, 0
2, 15490, Note_on_c, 0, 65, 40
2, 15528, Note_on_c, 0, 65, 0
2, 15574, Note_on_c, 0, 60, 53
2, 15577, Note_on_c, 0, 53, 25
2, 15584, Note_on_c, 0, 60, 0
2, 15605, Note_on_c, 0, 53, 0
2, 15615, Note_on_c, 0, 56, 23
2, 15615, Note_on_c, 0, 60, 39
2, 15618, Note_on_c, 0, 61, 46
2, 15620, Note_on_c, 0, 46, 26
2, 15630, Note_on_c, 0, 60, 0
2, 15638, Note_on_c, 0, 61, 0
2, 15642, Note_on_c, 0, 62, 34
2, 15680, Note_on_c, 0, 62, 0
2, 15690, Note_on_c, 0, 56, 0
2, 15692, Note_on_c, 0, 65, 90
2, 15693, Note_on_c, 0, 53, 26
2, 15703, Note_on_c, 0, 53, 0
2, 15720, Note_on_c, 0, 56, 1
2, 15728, Note_on_c, 0, 65, 0
2, 15740, Note_on_c, 0, 53, 14
2, 15741, Note_on_c, 0, 46, 0
2, 15746, Note_on_c, 0, 62, 30
2, 15789, Note_on_c, 0, 53, 0
2, 15801, Note_on_c, 0, 62, 0
2, 15808, Note_on_c, 0, 46, 32
2, 15814, Note_on_c, 0, 60, 53
2, 15818, Note_on_c, 0, 56, 0
2, 15820, Note_on_c, 0, 60, 0
2, 15835, Note_on_c, 0, 46, 0
2, 15852, Note_on_c, 0, 62, 91
2, 15854, Note_on_c, 0, 55, 34
2, 15855, Note_on_c, 0, 69, 78
2, 15856, Note_on_c, 0, 45, 29
2, 15881, Note_on_c, 0, 55, 0
2, 15884, Note_on_c, 0, 62, 0
2, 15887, Note_on_c, 0, 63, 58
2, 15888, Note_on_c, 0, 66, 31
2, 15903, Note_on_c, 0, 69, 0
2, 15911, Note_on_c, 0, 66, 0
2, 15913, Note_on_c, 0, 62, 49
2, 15921, Note_on_c, 0, 63, 0
2, 15936, Note_on_c, 0, 62, 0
2, 15943, Note_on_c, 0, 60, 57
2, 15949, Note_on_c, 0, 52, 19
2, 15960, Note_on_c, 0, 60, 0
2, 15962, Note_on_c, 0, 52, 0
2, 15976, Note_on_c, 0, 58, 35
2, 15982, Note_on_c, 0, 45, 0
2, 16039, Note_on_c, 0, 58, 0
2, 16048, Note_on_c, 0, 57, 62
2, 16064, Note_on_c, 0, 38, 13
2, 16081, Note_on_c, 0, 57, 0
2, 16095, Note_on_c, 0, 55, 25
2, 16165, Note_on_c, 0, 55, 0
2, 16169, Note_on_c, 0, 26, 26
2, 16177, Note_on_c, 0, 26, 0
2, 16191, Note_on_c, 0, 38, 0
2, 16203, Note_on_c, 0, 57, 63
2, 16233, Note_on_c, 0, 57, 0
2, 16239, Note_on_c, 0, 54, 38
2, 16258, Note_on_c, 0, 54, 0
2, 16267, Note_on_c, 0, 55, 55
2, 16291, Note_on_c, 0, 55, 0
2, 16300, Note_on_c, 0, 57, 49
2, 16316, Note_on_c, 0, 53, 19
2, 16317, Note_on_c, 0, 43, 20
2, 16324, Note_on_c, 0, 57, 0
2, 16329, Note_on_c, 0, 58, 37
2, 16347, Note_on_c, 0, 58, 0
2, 16360, Note_on_c, 0, 59, 44
2, 16379, Note_on_c, 0, 59, 0
2, 16384, Note_on_c, 0, 62, 49
2, 16402, Note_on_c, 0, 62, 0
2, 16417, Note_on_c, 0, 65, 46
2, 16425, Note_on_c, 0, 43, 0
2, 16431, Note_on_c, 0, 65, 0
2, 16435, Note_on_c, 0, 53, 0
2, 16440, Note_on_c, 0, 69, 84
2, 16472, Note_on_c, 0, 69, 0
2, 16477, Note_on_c, 0, 65, 59
2, 16493, Note_on_c, 0, 65, 0
2, 16519, Note_on_c, 0, 67, 86
2, 16555, Note_on_c, 0, 67, 0
2, 16560, Note_on_c, 0, 65, 66
2, 16629, Note_on_c, 0, 65, 0
2, 16639, Note_on_c, 0, 64, 62
2, 16640, Note_on_c, 0, 58, 41
2, 16645, Note_on_c, 0, 48, 32
2, 16676, Note_on_c, 0, 64, 0
2, 16687, Note_on_c, 0, 65, 66
2, 16691, Note_on_c, 0, 58, 0
2, 16740, Note_on_c, 0, 48, 0
2, 16741, Note_on_c, 0, 65, 0
2, 16760, Note_on_c, 0, 67, 71
2, 16789, Note_on_c, 0, 67, 0
2, 16796, Note_on_c, 0, 65, 46
2, 16822, Note_on_c, 0, 65, 0
2, 16836, Note_on_c, 0, 60, 31
2, 16848, Note_on_c, 0, 60, 0
2, 16871, Note_on_c, 0, 61, 67
2, 16905, Note_on_c, 0, 61, 0
2, 16911, Note_on_c, 0, 62, 57
2, 16931, Note_on_c, 0, 62, 0
2, 16948, Note_on_c, 0, 36, 66
2, 16949, Note_on_c, 0, 62, 49
2, 16950, Note_on_c, 0, 58, 51
2, 16951, Note_on_c, 0, 53, 47
2, 16951, Note_on_c, 0, 65, 66
2, 17006, Note_on_c, 0, 53, 0
2, 17007, Note_on_c, 0, 58, 0
2, 17009, Note_on_c, 0, 65, 0
2, 17009, Note_on_c, 0, 36, 0
2, 17010, Note_on_c, 0, 62, 0
2, 17040, Note_on_c, 0, 36, 55
2, 17040, Note_on_c, 0, 53, 47
2, 17041, Note_on_c, 0, 65, 44
2, 17041, Note_on_c, 0, 58, 30
2, 17042, Note_on_c, 0, 62, 40
2, 17057, Note_on_c, 0, 65, 0
2, 17057, Note_on_c, 0, 53, 0
2, 17063, Note_on_c, 0, 58, 0
2, 17068, Note_on_c, 0, 62, 0
2, 17084, Note_on_c, 0, 36, 0
2, 17086, Note_on_c, 0, 24, 19
2, 17119, Note_on_c, 0, 58, 57
2, 17119, Note_on_c, 0, 62, 63
2, 17120, Note_on_c, 0, 65, 50
2, 17120, Note_on_c, 0, 53, 57
2, 17120, Note_on_c, 0, 36, 59
2, 17141, Note_on_c, 0, 24, 0
2, 17163, Note_on_c, 0, 36, 0
2, 17176, Note_on_c, 0, 53, 0
2, 17206, Note_on_c, 0, 56, 55
2, 17211, Note_on_c, 0, 39, 45
2, 17229, Note_on_c, 0, 58, 0
2, 17229, Note_on_c, 0, 62, 0
2, 17234, Note_on_c, 0, 65, 0
2, 17237, Note_on_c, 0, 39, 0
2, 17243, Note_on_c, 0, 56, 0
2, 17244, Note_on_c, 0, 40, 56
2, 17281, Note_on_c, 0, 40, 0
2, 17285, Note_on_c, 0, 60, 54
2, 17288, Note_on_c, 0, 65, 36
2, 17291, Note_on_c, 0, 60, 0
2, 17292, Note_on_c, 0, 41, 14
2, 17294, Note_on_c, 0, 65, 0
2, 17307, Note_on_c, 0, 41, 0
2, 17365, Note_on_c, 0, 29, 57
2, 17372, Note_on_c, 0, 29, 0
2, 17450, Note_on_c, 0, 86, 82
2, 17451, Note_on_c, 0, 74, 75
2, 17456, Note_on_c, 0, 76, 27
2, 17463, Note_on_c, 0, 76, 0
2, 17464, Note_on_c, 0, 74, 0
2, 17473, Note_on_c, 0, 86, 0
2, 17488, Note_on_c, 0, 84, 41
2, 17495, Note_on_c, 0, 84, 0
2, 17526, Note_on_c, 0, 86, 71
2, 17526, Note_on_c, 0, 74, 66
2, 17539, Note_on_c, 0, 74, 0
2, 17541, Note_on_c, 0, 86, 0
2, 17565, Note_on_c, 0, 84, 28
2, 17571, Note_on_c, 0, 84, 0
2, 17601, Note_on_c, 0, 86, 72
2, 17602, Note_on_c, 0, 74, 67
2, 17608, Note_on_c, 0, 67, 35
2, 17608, Note_on_c, 0, 62, 38
2, 17615, Note_on_c, 0, 56, 13
2, 17618, Note_on_c, 0, 74, 0
2, 17623, Note_on_c, 0, 62, 0
2, 17623, Note_on_c, 0, 86, 0
2, 17623, Note_on_c, 0, 67, 0
2, 17627, Note_on_c, 0, 56, 0
2, 17646, Note_on_c, 0, 84, 49
2, 17653, Note_on_c, 0, 84, 0
2, 17681, Note_on_c, 0, 86, 68
2, 17682, Note_on_c, 0, 74, 59
2, 17698, Note_on_c, 0, 74, 0
2, 17701, Note_on_c, 0, 86, 0
2, 17722, Note_on_c, 0, 84, 50
2, 17737, Note_on_c, 0, 84, 0
2, 17761, Note_on_c, 0, 55, 45
2, 17762, Note_on_c, 0, 60, 46
2, 17762, Note_on_c, 0, 61, 43
2, 17763, Note_on_c, 0, 65, 46
2, 17766, Note_on_c, 0, 75, 69
2, 17766, Note_on_c, 0, 87, 75
2, 17767, Note_on_c, 0, 58, 29
2, 17818, Note_on_c, 0, 55, 0
2, 17819, Note_on_c, 0, 87, 0
2, 17821, Note_on_c, 0, 60, 0
2, 17822, Note_on_c, 0, 75, 0
2, 17823, Note_on_c, 0, 58, 0
2, 17824, Note_on_c, 0, 65, 0
2, 17831, Note_on_c, 0, 61, 0
2, 17843, Note_on_c, 0, 89, 76
2, 17845, Note_on_c, 0, 61, 51
2, 17845, Note_on_c, 0, 77, 57
2, 17845, Note_on_c, 0, 60, 53
2, 17846, Note_on_c, 0, 65, 52
2, 17847, Note_on_c, 0, 55, 52
2, 17851, Note_on_c, 0, 58, 22
2, 17861, Note_on_c, 0, 89, 0
2, 17863, Note_on_c, 0, 55, 0
2, 17864, Note_on_c, 0, 65, 0
2, 17864, Note_on_c, 0, 77, 0
2, 17870, Note_on_c, 0, 58, 0
2, 17872, Note_on_c, 0, 60, 0
2, 17874, Note_on_c, 0, 61, 0
2, 17889, Note_on_c, 0, 75, 50
2, 17889, Note_on_c, 0, 61, 33
2, 17889, Note_on_c, 0, 87, 46
2, 17890, Note_on_c, 0, 60, 40
2, 17892, Note_on_c, 0, 65, 51
2, 17898, Note_on_c, 0, 65, 0
2, 17900, Note_on_c, 0, 87, 0
2, 17900, Note_on_c, 0, 75, 0
2, 17910, Note_on_c, 0, 61, 0
2, 17914, Note_on_c, 0, 60, 0
2, 17967, Note_on_c, 0, 85, 66
2, 17967, Note_on_c, 0, 73, 69
2, 17970, Note_on_c, 0, 54, 66
2, 17970, Note_on_c, 0, 64, 66
2, 17971, Note_on_c, 0, 60, 57
2, 17972, Note_on_c, 0, 86, 69
2, 17973, Note_on_c, 0, 85, 0
2, 17976, Note_on_c, 0, 73, 0
2, 17978, Note_on_c, 0, 60, 0
2, 17978, Note_on_c, 0, 74, 61
2, 17979, Note_on_c, 0, 84, 19
2, 17985, Note_on_c, 0, 84, 0
2, 17985, Note_on_c, 0, 64, 0
2, 17986, Note_on_c, 0, 86, 0
2, 17989, Note_on_c, 0, 74, 0
2, 17991, Note_on_c, 0, 54, 0
2, 18016, Note_on_c, 0, 80, 59
2, 18016, Note_on_c, 0, 68, 59
2, 18021, Note_on_c, 0, 64, 40
2, 18023, Note_on_c, 0, 60, 30
2, 18024, Note_on_c, 0, 54, 33
2, 18028, Note_on_c, 0, 78, 22
2, 18042, Note_on_c, 0, 68, 0
2, 18047, Note_on_c, 0, 69, 42
2, 18056, Note_on_c, 0, 80, 0
2, 18066, Note_on_c, 0, 64, 0
2, 18066, Note_on_c, 0, 69, 0
2, 18071, Note_on_c, 0, 78, 0
2, 18076, Note_on_c, 0, 54, 0
2, 18076, Note_on_c, 0, 60, 0
2, 18089, Note_on_c, 0, 77, 54
2, 18093, Note_on_c, 0, 65, 53
2, 18093, Note_on_c, 0, 60, 37
2, 18093, Note_on_c, 0, 54, 43
2, 18127, Note_on_c, 0, 65, 0
2, 18138, Note_on_c, 0, 74, 31
2, 18153, Note_on_c, 0, 54, 0
2, 18173, Note_on_c, 0, 77, 0
2, 18195, Note_on_c, 0, 74, 0
2, 18204, Note_on_c, 0, 54, 37
2, 18208, Note_on_c, 0, 60, 0
2, 18210, Note_on_c, 0, 65, 50
2, 18217, Note_on_c, 0, 65, 0
2, 18235, Note_on_c, 0, 54, 0
2, 18247, Note_on_c, 0, 62, 39
2, 18252, Note_on_c, 0, 70, 59
2, 18253, Note_on_c, 0, 53, 27
2, 18254, Note_on_c, 0, 59, 27
2, 18309, Note_on_c, 0, 70, 0
2, 18322, Note_on_c, 0, 71, 46
2, 18344, Note_on_c, 0, 71, 0
2, 18368, Note_on_c, 0, 77, 87
2, 18488, Note_on_c, 0, 62, 0
2, 18493, Note_on_c, 0, 71, 45
2, 18525, Note_on_c, 0, 59, 0
2, 18540, Note_on_c, 0, 77, 0
2, 18562, Note_on_c, 0, 71, 0
2, 18568, Note_on_c, 0, 65, 55
2, 18626, Note_on_c, 0, 53, 0
2, 18688, Note_on_c, 0, 63, 49
2, 18702, Note_on_c, 0, 65, 0
2, 18724, Note_on_c, 0, 63, 0
2, 18728, Note_on_c, 0, 56, 25
2, 18728, Note_on_c, 0, 64, 53
2, 18736, Note_on_c, 0, 56, 0
2, 18750, Note_on_c, 0, 64, 0
2, 18759, Note_on_c, 0, 72, 75
2, 18780, Note_on_c, 0, 72, 0
2, 18790, Note_on_c, 0, 64, 39
2, 18816, Note_on_c, 0, 64, 0
2, 18821, Note_on_c, 0, 63, 45
2, 18837, Note_on_c, 0, 63, 0
2, 18845, Note_on_c, 0, 62, 33
2, 18866, Note_on_c, 0, 62, 0
2, 18873, Note_on_c, 0, 70, 59
2, 18894, Note_on_c, 0, 70, 0
2, 18897, Note_on_c, 0, 62, 36
2, 18917, Note_on_c, 0, 62, 0
2, 18929, Note_on_c, 0, 61, 39
2, 18948, Note_on_c, 0, 61, 0
2, 18954, Note_on_c, 0, 60, 44
2, 18976, Note_on_c, 0, 60, 0
2, 18987, Note_on_c, 0, 71, 40
2, 18989, Note_on_c, 0, 69, 35
2, 19005, Note_on_c, 0, 69, 0
2, 19005, Note_on_c, 0, 71, 0
2, 19049, Note_on_c, 0, 59, 25
2, 19071, Note_on_c, 0, 59, 0
2, 19076, Note_on_c, 0, 58, 51
2, 19141, Note_on_c, 0, 58, 0
2, 19149, Note_on_c, 0, 56, 55
2, 19182, Note_on_c, 0, 56, 0
2, 19195, Note_on_c, 0, 57, 38
2, 19219, Note_on_c, 0, 57, 0
2, 19233, Note_on_c, 0, 60, 45
2, 19242, Note_on_c, 0, 60, 0
2, 19272, Note_on_c, 0, 62, 89
2, 19290, Note_on_c, 0, 62, 0
2, 19313, Note_on_c, 0, 62, 80
2, 19314, Note_on_c, 0, 67, 65
2, 19341, Note_on_c, 0, 62, 0
2, 19341, Note_on_c, 0, 63, 55
2, 19351, Note_on_c, 0, 67, 0
2, 19369, Note_on_c, 0, 63, 0
2, 19372, Note_on_c, 0, 62, 31
2, 19381, Note_on_c, 0, 62, 0
2, 19383, Note_on_c, 0, 60, 46
2, 19389, Note_on_c, 0, 60, 0
2, 19401, Note_on_c, 0, 67, 65
2, 19403, Note_on_c, 0, 62, 60
2, 19422, Note_on_c, 0, 62, 0
2, 19429, Note_on_c, 0, 57, 35
2, 19432, Note_on_c, 0, 67, 0
2, 19437, Note_on_c, 0, 57, 0
2, 19449, Note_on_c, 0, 67, 55
2, 19452, Note_on_c, 0, 60, 66
2, 19475, Note_on_c, 0, 60, 0
2, 19479, Note_on_c, 0, 62, 52
2, 19529, Note_on_c, 0, 67, 0
2, 19554, Note_on_c, 0, 62, 0
2, 19646, Note_on_c, 0, 48, 36
2, 19652, Note_on_c, 0, 48, 0
2, 19683, Note_on_c, 0, 41, 53
2, 19689, Note_on_c, 0, 41, 0
2, 19724, Note_on_c, 0, 71, 59
2, 19727, Note_on_c, 0, 75, 37
2, 19740, Note_on_c, 0, 75, 0
2, 19750, Note_on_c, 0, 71, 0
2, 19757, Note_on_c, 0, 75, 64
2, 19760, Note_on_c, 0, 72, 65
2, 19763, Note_on_c, 0, 73, 41
2, 19767, Note_on_c, 0, 73, 0
2, 19780, Note_on_c, 0, 72, 0
2, 19785, Note_on_c, 0, 75, 0
2, 19798, Note_on_c, 0, 70, 62
2, 19800, Note_on_c, 0, 74, 58
2, 19827, Note_on_c, 0, 70, 0
2, 19832, Note_on_c, 0, 74, 0
2, 19841, Note_on_c, 0, 72, 21
2, 19841, Note_on_c, 0, 68, 29
2, 19859, Note_on_c, 0, 68, 0
2, 19867, Note_on_c, 0, 72, 0
2, 19874, Note_on_c, 0, 72, 22
2, 19876, Note_on_c, 0, 69, 68
2, 19910, Note_on_c, 0, 69, 0
2, 19912, Note_on_c, 0, 72, 0
2, 19919, Note_on_c, 0, 65, 37
2, 19938, Note_on_c, 0, 65, 0
2, 20008, Note_on_c, 0, 50, 17
2, 20014, Note_on_c, 0, 50, 0
2, 20046, Note_on_c, 0, 66, 50
2, 20048, Note_on_c, 0, 57, 44
2, 20049, Note_on_c, 0, 61, 45
2, 20049, Note_on_c, 0, 47, 46
2, 20049, Note_on_c, 0, 63, 33
2, 20123, Note_on_c, 0, 57, 0
2, 20123, Note_on_c, 0, 66, 0
2, 20124, Note_on_c, 0, 63, 0
2, 20128, Note_on_c, 0, 44, 28
2, 20130, Note_on_c, 0, 47, 0
2, 20139, Note_on_c, 0, 61, 0
2, 20156, Note_on_c, 0, 44, 0
2, 20169, Note_on_c, 0, 56, 33
2, 20173, Note_on_c, 0, 46, 30
2, 20174, Note_on_c, 0, 65, 31
2, 20175, Note_on_c, 0, 62, 29
2, 20176, Note_on_c, 0, 56, 0
2, 20181, Note_on_c, 0, 62, 0
2, 20184, Note_on_c, 0, 65, 0
2, 20189, Note_on_c, 0, 46, 0
2, 20255, Note_on_c, 0, 72, 67
2, 20267, Note_on_c, 0, 72, 0
2, 20296, Note_on_c, 0, 72, 44
2, 20300, Note_on_c, 0, 73, 59
2, 20306, Note_on_c, 0, 72, 0
2, 20312, Note_on_c, 0, 73, 0
2, 20313, Note_on_c, 0, 74, 48
2, 20326, Note_on_c, 0, 74, 0
2, 20342, Note_on_c, 0, 77, 66
2, 20355, Note_on_c, 0, 77, 0
2, 20377, Note_on_c, 0, 79, 83
2, 20399, Note_on_c, 0, 79, 0
2, 20418, Note_on_c, 0, 72, 61
2, 20430, Note_on_c, 0, 72, 0
2, 20461, Note_on_c, 0, 74, 71
2, 20478, Note_on_c, 0, 74, 0
2, 20496, Note_on_c, 0, 77, 76
2, 20520, Note_on_c, 0, 77, 0
2, 20539, Note_on_c, 0, 79, 78
2, 20558, Note_on_c, 0, 79, 0
2, 20611, Note_on_c, 0, 73, 52
2, 20634, Note_on_c, 0, 73, 0
2, 20651, Note_on_c, 0, 74, 39
2, 20667, Note_on_c, 0, 74, 0
2, 20687, Note_on_c, 0, 77, 50
2, 20705, Note_on_c, 0, 77, 0
2, 20724, Note_on_c, 0, 80, 69
2, 20750, Note_on_c, 0, 80, 0
2, 20764, Note_on_c, 0, 83, 61
2, 20780, Note_on_c, 0, 83, 0
2, 20802, Note_on_c, 0, 86, 72
2, 20803, Note_on_c, 0, 74, 61
2, 20814, Note_on_c, 0, 74, 0
2, 20815, Note_on_c, 0, 86, 0
2, 20840, Note_on_c, 0, 56, 32
2, 20840, Note_on_c, 0, 62, 53
2, 20843, Note_on_c, 0, 59, 48
2, 20843, Note_on_c, 0, 89, 68
2, 20843, Note_on_c, 0, 78, 46
2, 20845, Note_on_c, 0, 76, 68
2, 20845, Note_on_c, 0, 88, 58
2, 20845, Note_on_c, 0, 77, 49
2, 20847, Note_on_c, 0, 87, 32
2, 20851, Note_on_c, 0, 88, 0
2, 20858, Note_on_c, 0, 76, 0
2, 20863, Note_on_c, 0, 87, 0
2, 20868, Note_on_c, 0, 78, 0
2, 20877, Note_on_c, 0, 89, 0
2, 20885, Note_on_c, 0, 62, 0
2, 20887, Note_on_c, 0, 59, 0
2, 20894, Note_on_c, 0, 56, 0
2, 20897, Note_on_c, 0, 89, 44
2, 20898, Note_on_c, 0, 77, 0
2, 20900, Note_on_c, 0, 86, 45
2, 20917, Note_on_c, 0, 86, 0
2, 20917, Note_on_c, 0, 77, 40
2, 20923, Note_on_c, 0, 89, 0
2, 20931, Note_on_c, 0, 77, 0
2, 20998, Note_on_c, 0, 62, 52
2, 21000, Note_on_c, 0, 56, 31
2, 21003, Note_on_c, 0, 62, 0
2, 21003, Note_on_c, 0, 59, 25
2, 21010, Note_on_c, 0, 59, 0
2, 21016, Note_on_c, 0, 56, 0
2, 21080, Note_on_c, 0, 86, 83
2, 21081, Note_on_c, 0, 74, 86
2, 21082, Note_on_c, 0, 80, 76
2, 21086, Note_on_c, 0, 83, 45
2, 21090, Note_on_c, 0, 55, 23
2, 21091, Note_on_c, 0, 83, 0
2, 21102, Note_on_c, 0, 55, 0
2, 21103, Note_on_c, 0, 80, 0
2, 21105, Note_on_c, 0, 74, 0
2, 21105, Note_on_c, 0, 86, 0
2, 21118, Note_on_c, 0, 57, 45
2, 21121, Note_on_c, 0, 48, 32
2, 21126, Note_on_c, 0, 57, 0
2, 21128, Note_on_c, 0, 48, 0
2, 21128, Note_on_c, 0, 84, 72
2, 21128, Note_on_c, 0, 72, 75
2, 21128, Note_on_c, 0, 80, 57
2, 21154, Note_on_c, 0, 80, 0
2, 21159, Note_on_c, 0, 81, 35
2, 21170, Note_on_c, 0, 72, 0
2, 21170, Note_on_c, 0, 84, 0
2, 21177, Note_on_c, 0, 81, 0
2, 21200, Note_on_c, 0, 84, 66
2, 21201, Note_on_c, 0, 72, 59
2, 21203, Note_on_c, 0, 81, 35
2, 21212, Note_on_c, 0, 81, 0
2, 21215, Note_on_c, 0, 72, 0
2, 21220, Note_on_c, 0, 84, 0
2, 21244, Note_on_c, 0, 86, 66
2, 21245, Note_on_c, 0, 74, 61
2, 21250, Note_on_c, 0, 81, 33
2, 21257, Note_on_c, 0, 81, 0
2, 21257, Note_on_c, 0, 74, 0
2, 21259, Note_on_c, 0, 86, 0
2, 21323, Note_on_c, 0, 84, 63
2, 21326, Note_on_c, 0, 72, 59
2, 21338, Note_on_c, 0, 72, 0
2, 21338, Note_on_c, 0, 84, 0
2, 21383, Note_on_c, 0, 62, 22
2, 21390, Note_on_c, 0, 62, 0
2, 21477, Note_on_c, 0, 62, 45
2, 21479, Note_on_c, 0, 56, 45
2, 21543, Note_on_c, 0, 62, 0
2, 21586, Note_on_c, 0, 56, 0
2, 21604, Note_on_c, 0, 65, 45
2, 21604, Note_on_c, 0, 60, 28
2, 21605, Note_on_c, 0, 61, 33
2, 21607, Note_on_c, 0, 55, 36
2, 21610, Note_on_c, 0, 58, 23
2, 21620, Note_on_c, 0, 65, 0
2, 21623, Note_on_c, 0, 60, 0
2, 21628, Note_on_c, 0, 55, 0
2, 21629, Note_on_c, 0, 61, 0
2, 21638, Note_on_c, 0, 58, 0
2, 21653, Note_on_c, 0, 72, 51
2, 21657, Note_on_c, 0, 84, 21
2, 21659, Note_on_c, 0, 72, 0
2, 21663, Note_on_c, 0, 84, 0
2, 21690, Note_on_c, 0, 75, 81
2, 21690, Note_on_c, 0, 87, 78
2, 21704, Note_on_c, 0, 75, 0
2, 21708, Note_on_c, 0, 87, 0
2, 21724, Note_on_c, 0, 61, 34
2, 21725, Note_on_c, 0, 65, 54
2, 21725, Note_on_c, 0, 60, 41
2, 21728, Note_on_c, 0, 89, 82
2, 21729, Note_on_c, 0, 77, 60
2, 21730, Note_on_c, 0, 55, 29
2, 21735, Note_on_c, 0, 79, 28
2, 21741, Note_on_c, 0, 79, 0
2, 21744, Note_on_c, 0, 89, 0
2, 21745, Note_on_c, 0, 77, 0
2, 21746, Note_on_c, 0, 65, 0
2, 21749, Note_on_c, 0, 55, 0
2, 21755, Note_on_c, 0, 60, 0
2, 21757, Note_on_c, 0, 61, 0
2, 21775, Note_on_c, 0, 75, 28
2, 21782, Note_on_c, 0, 75, 0
2, 21807, Note_on_c, 0, 85, 64
2, 21809, Note_on_c, 0, 73, 66
2, 21813, Note_on_c, 0, 64, 50
2, 21814, Note_on_c, 0, 54, 45
2, 21815, Note_on_c, 0, 60, 39
2, 21816, Note_on_c, 0, 86, 61
2, 21820, Note_on_c, 0, 73, 0
2, 21823, Note_on_c, 0, 85, 0
2, 21823, Note_on_c, 0, 74, 48
2, 21824, Note_on_c, 0, 84, 19
2, 21837, Note_on_c, 0, 84, 0
2, 21844, Note_on_c, 0, 86, 0
2, 21847, Note_on_c, 0, 74, 0
2, 21854, Note_on_c, 0, 64, 0
2, 21857, Note_on_c, 0, 60, 0
2, 21862, Note_on_c, 0, 54, 0
2, 21888, Note_on_c, 0, 66, 55
2, 21890, Note_on_c, 0, 78, 43
2, 21893, Note_on_c, 0, 54, 30
2, 21894, Note_on_c, 0, 64, 25
2, 21896, Note_on_c, 0, 60, 28
2, 21904, Note_on_c, 0, 66, 0
2, 21910, Note_on_c, 0, 67, 23
2, 21927, Note_on_c, 0, 64, 0
2, 21931, Note_on_c, 0, 67, 0
2, 21934, Note_on_c, 0, 78, 0
2, 21935, Note_on_c, 0, 60, 0
2, 21941, Note_on_c, 0, 54, 0
2, 21966, Note_on_c, 0, 65, 55
2, 21968, Note_on_c, 0, 77, 31
2, 21968, Note_on_c, 0, 54, 30
2, 21974, Note_on_c, 0, 60, 15
2, 21994, Note_on_c, 0, 60, 0
2, 22010, Note_on_c, 0, 65, 0
2, 22010, Note_on_c, 0, 77, 0
2, 22038, Note_on_c, 0, 54, 0
2, 22042, Note_on_c, 0, 62, 41
2, 22044, Note_on_c, 0, 59, 43
2, 22044, Note_on_c, 0, 70, 37
2, 22044, Note_on_c, 0, 77, 58
2, 22045, Note_on_c, 0, 65, 66
2, 22046, Note_on_c, 0, 74, 32
2, 22048, Note_on_c, 0, 62, 0
2, 22048, Note_on_c, 0, 71, 55
2, 22049, Note_on_c, 0, 70, 0
2, 22049, Note_on_c, 0, 53, 29
2, 22054, Note_on_c, 0, 71, 0
2, 22059, Note_on_c, 0, 65, 0
2, 22059, Note_on_c, 0, 59, 0
2, 22071, Note_on_c, 0, 53, 0
2, 22076, Note_on_c, 0, 74, 0
2, 22077, Note_on_c, 0, 65, 33
2, 22082, Note_on_c, 0, 77, 0
2, 22092, Note_on_c, 0, 65, 0
2, 22092, Note_on_c, 0, 77, 9
2, 22095, Note_on_c, 0, 74, 21
2, 22108, Note_on_c, 0, 74, 0
2, 22111, Note_on_c, 0, 65, 30
2, 22113, Note_on_c, 0, 77, 0
2, 22124, Note_on_c, 0, 65, 0
2, 22127, Note_on_c, 0, 77, 6
2, 22134, Note_on_c, 0, 74, 15
2, 22146, Note_on_c, 0, 65, 32
2, 22147, Note_on_c, 0, 74, 0
2, 22149, Note_on_c, 0, 77, 0
2, 22155, Note_on_c, 0, 65, 0
2, 22207, Note_on_c, 0, 48, 28
2, 22214, Note_on_c, 0, 48, 0
2, 22281, Note_on_c, 0, 48, 83
2, 22282, Note_on_c, 0, 47, 71
2, 22295, Note_on_c, 0, 47, 0
2, 22310, Note_on_c, 0, 48, 0
2, 22352, Note_on_c, 0, 72, 49
2, 22370, Note_on_c, 0, 73, 52
2, 22384, Note_on_c, 0, 73, 0
2, 22384, Note_on_c, 0, 74, 46
2, 22388, Note_on_c, 0, 72, 0
2, 22402, Note_on_c, 0, 74, 0
2, 22412, Note_on_c, 0, 77, 75
2, 22412, Note_on_c, 0, 65, 82
2, 22438, Note_on_c, 0, 65, 0
2, 22439, Note_on_c, 0, 77, 0
2, 22479, Note_on_c, 0, 77, 76
2, 22479, Note_on_c, 0, 65, 84
2, 22516, Note_on_c, 0, 65, 0
2, 22521, Note_on_c, 0, 77, 0
2, 22526, Note_on_c, 0, 24, 53
2, 22532, Note_on_c, 0, 24, 0
2, 22607, Note_on_c, 0, 73, 59
2, 22616, Note_on_c, 0, 73, 0
2, 22617, Note_on_c, 0, 74, 61
2, 22642, Note_on_c, 0, 74, 0
2, 22684, Note_on_c, 0, 77, 80
2, 22684, Note_on_c, 0, 65, 96
2, 22687, Note_on_c, 0, 76, 53
2, 22692, Note_on_c, 0, 76, 0
2, 22725, Note_on_c, 0, 65, 0
2, 22726, Note_on_c, 0, 77, 0
2, 22765, Note_on_c, 0, 77, 78
2, 22766, Note_on_c, 0, 65, 89
2, 22789, Note_on_c, 0, 77, 0
2, 22791, Note_on_c, 0, 46, 23
2, 22794, Note_on_c, 0, 65, 0
2, 22806, Note_on_c, 0, 46, 0
2, 22810, Note_on_c, 0, 76, 45
2, 22815, Note_on_c, 0, 64, 46
2, 22847, Note_on_c, 0, 76, 0
2, 22852, Note_on_c, 0, 64, 0
2, 22887, Note_on_c, 0, 76, 46
2, 22887, Note_on_c, 0, 47, 48
2, 22889, Note_on_c, 0, 48, 51
2, 22890, Note_on_c, 0, 64, 57
2, 22893, Note_on_c, 0, 47, 0
2, 22901, Note_on_c, 0, 76, 0
2, 22902, Note_on_c, 0, 48, 0
2, 22906, Note_on_c, 0, 64, 0
2, 22932, Note_on_c, 0, 74, 53
2, 22935, Note_on_c, 0, 62, 55
2, 22938, Note_on_c, 0, 70, 29
2, 22953, Note_on_c, 0, 62, 0
2, 22953, Note_on_c, 0, 74, 0
2, 22956, Note_on_c, 0, 70, 0
2, 23009, Note_on_c, 0, 73, 57
2, 23011, Note_on_c, 0, 61, 59
2, 23019, Note_on_c, 0, 69, 29
2, 23027, Note_on_c, 0, 41, 24
2, 23028, Note_on_c, 0, 69, 0
2, 23036, Note_on_c, 0, 73, 0
2, 23037, Note_on_c, 0, 41, 0
2, 23040, Note_on_c, 0, 61, 0
2, 23057, Note_on_c, 0, 60, 57
2, 23058, Note_on_c, 0, 69, 48
2, 23060, Note_on_c, 0, 72, 39
2, 23120, Note_on_c, 0, 60, 0
2, 23122, Note_on_c, 0, 69, 0
2, 23126, Note_on_c, 0, 72, 0
2, 23131, Note_on_c, 0, 69, 35
2, 23178, Note_on_c, 0, 65, 53
2, 23239, Note_on_c, 0, 69, 0
2, 23248, Note_on_c, 0, 65, 0
2, 23253, Note_on_c, 0, 60, 34
2, 23262, Note_on_c, 0, 60, 0
2, 23293, Note_on_c, 0, 56, 62
2, 23293, Note_on_c, 0, 67, 52
2, 23294, Note_on_c, 0, 60, 57
2, 23295, Note_on_c, 0, 62, 34
2, 23297, Note_on_c, 0, 46, 32
2, 23381, Note_on_c, 0, 46, 0
2, 23388, Note_on_c, 0, 60, 0
2, 23390, Note_on_c, 0, 67, 0
2, 23392, Note_on_c, 0, 56, 0
2, 23393, Note_on_c, 0, 62, 0
2, 23410, Note_on_c, 0, 56, 37
2, 23412, Note_on_c, 0, 65, 47
2, 23413, Note_on_c, 0, 46, 24
2, 23415, Note_on_c, 0, 62, 35
2, 23416, Note_on_c, 0, 60, 37
2, 23465, Note_on_c, 0, 56, 0
2, 23471, Note_on_c, 0, 65, 0
2, 23488, Note_on_c, 0, 60, 0
2, 23491, Note_on_c, 0, 62, 0
2, 23504, Note_on_c, 0, 51, 38
2, 23520, Note_on_c, 0, 46, 0
2, 23524, Note_on_c, 0, 51, 0
2, 23539, Note_on_c, 0, 60, 55
2, 23540, Note_on_c, 0, 45, 27
2, 23566, Note_on_c, 0, 60, 0
2, 23575, Note_on_c, 0, 63, 54
2, 23592, Note_on_c, 0, 60, 35
2, 23595, Note_on_c, 0, 63, 0
2, 23608, Note_on_c, 0, 60, 0
2, 23610, Note_on_c, 0, 55, 39
2, 23619, Note_on_c, 0, 55, 0
2, 23637, Note_on_c, 0, 60, 52
2, 23643, Note_on_c, 0, 51, 28
2, 23650, Note_on_c, 0, 45, 0
2, 23654, Note_on_c, 0, 60, 0
2, 23656, Note_on_c, 0, 63, 46
2, 23660, Note_on_c, 0, 51, 0
2, 23663, Note_on_c, 0, 63, 0
2, 23684, Note_on_c, 0, 67, 33
2, 23699, Note_on_c, 0, 67, 0
2, 23716, Note_on_c, 0, 72, 43
2, 23729, Note_on_c, 0, 72, 0
2, 23743, Note_on_c, 0, 75, 64
2, 23757, Note_on_c, 0, 75, 0
2, 23769, Note_on_c, 0, 77, 72
2, 23775, Note_on_c, 0, 62, 28
2, 23777, Note_on_c, 0, 54, 25
2, 23785, Note_on_c, 0, 62, 0
2, 23786, Note_on_c, 0, 54, 0
2, 23790, Note_on_c, 0, 77, 0
2, 23797, Note_on_c, 0, 72, 48
2, 23805, Note_on_c, 0, 73, 41
2, 23823, Note_on_c, 0, 72, 0
2, 23826, Note_on_c, 0, 73, 0
2, 23829, Note_on_c, 0, 74, 33
2, 23836, Note_on_c, 0, 74, 0
2, 23890, Note_on_c, 0, 62, 45
2, 23892, Note_on_c, 0, 68, 66
2, 23892, Note_on_c, 0, 54, 32
2, 23892, Note_on_c, 0, 74, 50
2, 23896, Note_on_c, 0, 62, 0
2, 23916, Note_on_c, 0, 74, 0
2, 23921, Note_on_c, 0, 68, 0
2, 23923, Note_on_c, 0, 54, 0
2, 23924, Note_on_c, 0, 65, 43
2, 23931, Note_on_c, 0, 65, 0
2, 23960, Note_on_c, 0, 74, 61
2, 23963, Note_on_c, 0, 67, 57
2, 23983, Note_on_c, 0, 74, 0
2, 23989, Note_on_c, 0, 67, 0
2, 23997, Note_on_c, 0, 62, 44
2, 23999, Note_on_c, 0, 59, 17
2, 24002, Note_on_c, 0, 53, 23
2, 24010, Note_on_c, 0, 62, 0
2, 24011, Note_on_c, 0, 53, 0
2, 24014, Note_on_c, 0, 59, 0
2, 24026, Note_on_c, 0, 65, 67
2, 24061, Note_on_c, 0, 65, 0
2, 24067, Note_on_c, 0, 67, 32
2, 24079, Note_on_c, 0, 67, 0
2, 24080, Note_on_c, 0, 65, 35
2, 24097, Note_on_c, 0, 62, 39
2, 24099, Note_on_c, 0, 65, 0
2, 24104, Note_on_c, 0, 62, 0
2, 24116, Note_on_c, 0, 65, 61
2, 24199, Note_on_c, 0, 65, 0
2, 24202, Note_on_c, 0, 62, 28
2, 24225, Note_on_c, 0, 62, 0
2, 24237, Note_on_c, 0, 58, 29
2, 24240, Note_on_c, 0, 48, 25
2, 24240, Note_on_c, 0, 64, 40
2, 24248, Note_on_c, 0, 48, 0
2, 24255, Note_on_c, 0, 64, 0
2, 24269, Note_on_c, 0, 58, 0
2, 24320, Note_on_c, 0, 68, 85
2, 24322, Note_on_c, 0, 74, 75
2, 24324, Note_on_c, 0, 73, 51
2, 24325, Note_on_c, 0, 64, 59
2, 24325, Note_on_c, 0, 58, 70
2, 24326, Note_on_c, 0, 65, 53
2, 24332, Note_on_c, 0, 65, 0
2, 24353, Note_on_c, 0, 68, 0
2, 24359, Note_on_c, 0, 73, 0
2, 24445, Note_on_c, 0, 56, 29
2, 24450, Note_on_c, 0, 74, 0
2, 24451, Note_on_c, 0, 64, 0
2, 24451, Note_on_c, 0, 58, 0
2, 24484, Note_on_c, 0, 72, 43
2, 24485, Note_on_c, 0, 57, 49
2, 24486, Note_on_c, 0, 67, 41
2, 24487, Note_on_c, 0, 62, 38
2, 24494, Note_on_c, 0, 56, 0
2, 24504, Note_on_c, 0, 62, 0
2, 24525, Note_on_c, 0, 67, 0
2, 24529, Note_on_c, 0, 72, 0
2, 24545, Note_on_c, 0, 57, 0
2, 24563, Note_on_c, 0, 48, 30
2, 24570, Note_on_c, 0, 48, 0
2, 24602, Note_on_c, 0, 65, 57
2, 24602, Note_on_c, 0, 70, 47
2, 24603, Note_on_c, 0, 77, 42
2, 24604, Note_on_c, 0, 64, 44
2, 24604, Note_on_c, 0, 74, 27
2, 24605, Note_on_c, 0, 58, 28
2, 24605, Control_c, 0, 64, 127
2, 24614, Note_on_c, 0, 65, 0
2, 24620, Note_on_c, 0, 64, 0
2, 24620, Note_on_c, 0, 70, 0
2, 24621, Note_on_c, 0, 74, 0
2, 24626, Note_on_c, 0, 77, 0
2, 24632, Note_on_c, 0, 58, 0
2, 24642, Control_c, 0, 64, 0
2, 24680, Note_on_c, 0, 69, 63
2, 24680, Note_on_c, 0, 81, 59
2, 24681, Note_on_c, 0, 58, 54
2, 24683, Note_on_c, 0, 64, 44
2, 24686, Note_on_c, 0, 69, 0
2, 24689, Note_on_c, 0, 64, 0
2, 24695, Note_on_c, 0, 81, 0
2, 24697, Note_on_c, 0, 58, 0
2, 24721, Control_c, 0, 64, 127
2, 24721, Note_on_c, 0, 84, 46
2, 24722, Note_on_c, 0, 72, 43
2, 24722, Note_on_c, 0, 58, 47
2, 24724, Note_on_c, 0, 64, 29
2, 24732, Note_on_c, 0, 64, 0
2, 24732, Note_on_c, 0, 72, 0
2, 24739, Note_on_c, 0, 84, 0
2, 24741, Note_on_c, 0, 58, 0
2, 24750, Control_c, 0, 64, 0
2, 24799, Note_on_c, 0, 58, 45
2, 24799, Note_on_c, 0, 76, 55
2, 24800, Note_on_c, 0, 64, 43
2, 24800, Note_on_c, 0, 88, 65
2, 24804, Note_on_c, 0, 58, 0
2, 24805, Note_on_c, 0, 76, 0
2, 24806, Note_on_c, 0, 64, 0
2, 24811, Note_on_c, 0, 88, 0
2, 24840, Note_on_c, 0, 58, 71
2, 24841, Note_on_c, 0, 91, 84
2, 24841, Note_on_c, 0, 64, 70
2, 24842, Note_on_c, 0, 79, 79
2, 24888, Control_c, 0, 64, 127
2, 24890, Note_on_c, 0, 91, 0
2, 24894, Note_on_c, 0, 64, 0
2, 24898, Note_on_c, 0, 58, 0
2, 24898, Note_on_c, 0, 79, 0
2, 24917, Note_on_c, 0, 58, 46
2, 24920, Note_on_c, 0, 64, 49
2, 24923, Note_on_c, 0, 87, 58
2, 24925, Note_on_c, 0, 75, 51
2, 24932, Note_on_c, 0, 88, 66
2, 24934, Note_on_c, 0, 75, 0
2, 24936, Note_on_c, 0, 64, 0
2, 24937, Note_on_c, 0, 76, 39
2, 24944, Note_on_c, 0, 85, 24
2, 24944, Note_on_c, 0, 86, 21
2, 24945, Note_on_c, 0, 87, 0
2, 24951, Control_c, 0, 64, 0
2, 24952, Note_on_c, 0, 88, 0
2, 24952, Note_on_c, 0, 86, 0
2, 24953, Note_on_c, 0, 76, 0
2, 24954, Note_on_c, 0, 85, 0
2, 24959, Note_on_c, 0, 58, 0
2, 24970, Note_on_c, 0, 57, 44
2, 24973, Note_on_c, 0, 74, 37
2, 24974, Note_on_c, 0, 60, 33
2, 24974, Note_on_c, 0, 62, 28
2, 24974, Note_on_c, 0, 86, 26
2, 24979, Note_on_c, 0, 53, 29
2, 25024, Note_on_c, 0, 86, 0
2, 25027, Note_on_c, 0, 62, 0
2, 25028, Note_on_c, 0, 57, 0
2, 25028, Note_on_c, 0, 53, 0
2, 25030, Note_on_c, 0, 60, 0
2, 25034, Note_on_c, 0, 74, 0
2, 25045, Note_on_c, 0, 84, 40
2, 25048, Note_on_c, 0, 62, 35
2, 25048, Note_on_c, 0, 72, 45
2, 25051, Note_on_c, 0, 57, 28
2, 25054, Note_on_c, 0, 53, 14
2, 25055, Note_on_c, 0, 60, 29
2, 25060, Note_on_c, 0, 72, 0
2, 25061, Note_on_c, 0, 84, 0
2, 25061, Note_on_c, 0, 60, 0
2, 25063, Note_on_c, 0, 62, 0
2, 25065, Note_on_c, 0, 53, 0
2, 25067, Note_on_c, 0, 57, 0
2, 25097, Control_c, 0, 64, 127
2, 25144, Control_c, 0, 64, 0
2, 25162, Control_c, 0, 64, 127
2, 25195, Control_c, 0, 64, 0
2, 25209, Note_on_c, 0, 56, 39
2, 25209, Note_on_c, 0, 62, 45
2, 25209, Note_on_c, 0, 67, 45
2, 25280, Note_on_c, 0, 67, 0
2, 25286, Note_on_c, 0, 62, 0
2, 25287, Note_on_c, 0, 56, 0
2, 25330, Note_on_c, 0, 96, 71
2, 25330, Note_on_c, 0, 56, 41
2, 25331, Note_on_c, 0, 62, 48
2, 25332, Note_on_c, 0, 67, 28
2, 25343, Note_on_c, 0, 98, 54
2, 25363, Note_on_c, 0, 96, 0
2, 25370, Note_on_c, 0, 98, 0
2, 25373, Note_on_c, 0, 101, 82
2, 25401, Note_on_c, 0, 62, 0
2, 25404, Note_on_c, 0, 67, 0
2, 25426, Note_on_c, 0, 56, 0
2, 25435, Note_on_c, 0, 101, 0
2, 25443, Note_on_c, 0, 55, 48
2, 25446, Note_on_c, 0, 65, 40
2, 25446, Note_on_c, 0, 60, 42
2, 25446, Note_on_c, 0, 61, 41
2, 25453, Note_on_c, 0, 58, 16
2, 25532, Note_on_c, 0, 55, 0
2, 25533, Note_on_c, 0, 65, 0
2, 25533, Note_on_c, 0, 60, 0
2, 25541, Note_on_c, 0, 61, 0
2, 25543, Note_on_c, 0, 58, 0
2, 25572, Note_on_c, 0, 65, 50
2, 25572, Note_on_c, 0, 61, 41
2, 25572, Note_on_c, 0, 60, 43
2, 25574, Note_on_c, 0, 55, 44
2, 25628, Note_on_c, 0, 55, 0
2, 25629, Note_on_c, 0, 65, 0
2, 25633, Note_on_c, 0, 60, 0
2, 25641, Note_on_c, 0, 61, 0
2, 25649, Note_on_c, 0, 64, 82
2, 25649, Note_on_c, 0, 60, 73
2, 25650, Note_on_c, 0, 54, 81
2, 25650, Note_on_c, 0, 99, 88
2, 25650, Note_on_c, 0, 87, 93
2, 25652, Note_on_c, 0, 58, 37
2, 25657, Note_on_c, 0, 93, 34
2, 25659, Note_on_c, 0, 58, 0
2, 25664, Note_on_c, 0, 93, 0
2, 25681, Note_on_c, 0, 64, 0
2, 25681, Note_on_c, 0, 54, 0
2, 25689, Note_on_c, 0, 99, 0
2, 25691, Note_on_c, 0, 87, 0
2, 25695, Note_on_c, 0, 54, 57
2, 25696, Note_on_c, 0, 64, 63
2, 25698, Note_on_c, 0, 100, 66
2, 25699, Note_on_c, 0, 88, 53
2, 25706, Note_on_c, 0, 98, 17
2, 25726, Note_on_c, 0, 100, 0
2, 25729, Note_on_c, 0, 98, 0
2, 25740, Note_on_c, 0, 88, 0
2, 25749, Note_on_c, 0, 64, 0
2, 25754, Note_on_c, 0, 54, 0
2, 25758, Note_on_c, 0, 60, 0
2, 25764, Note_on_c, 0, 54, 51
2, 25765, Note_on_c, 0, 64, 52
2, 25765, Note_on_c, 0, 96, 76
2, 25766, Note_on_c, 0, 60, 33
2, 25767, Note_on_c, 0, 84, 67
2, 25773, Note_on_c, 0, 94, 29
2, 25778, Note_on_c, 0, 94, 0
2, 25802, Note_on_c, 0, 96, 0
2, 25803, Note_on_c, 0, 84, 0
2, 25814, Note_on_c, 0, 93, 59
2, 25834, Note_on_c, 0, 54, 0
2, 25865, Note_on_c, 0, 93, 0
2, 25883, Note_on_c, 0, 54, 48
2, 25886, Note_on_c, 0, 84, 35
2, 25893, Note_on_c, 0, 84, 0
2, 25893, Note_on_c, 0, 60, 0
2, 25903, Note_on_c, 0, 64, 0
2, 25911, Note_on_c, 0, 54, 0
2, 25922, Note_on_c, 0, 64, 41
2, 25925, Note_on_c, 0, 59, 50
2, 25926, Note_on_c, 0, 53, 45
2, 25927, Note_on_c, 0, 93, 83
2, 25927, Note_on_c, 0, 88, 85
2, 25955, Note_on_c, 0, 88, 0
2, 25956, Note_on_c, 0, 93, 0
2, 25986, Note_on_c, 0, 88, 80
2, 26005, Note_on_c, 0, 88, 0
2, 26025, Note_on_c, 0, 85, 72
2, 26044, Note_on_c, 0, 64, 0
2, 26048, Note_on_c, 0, 85, 0
2, 26054, Note_on_c, 0, 81, 64
2, 26075, Note_on_c, 0, 81, 0
2, 26083, Note_on_c, 0, 76, 52
2, 26092, Note_on_c, 0, 59, 0
2, 26097, Note_on_c, 0, 76, 0
2, 26114, Note_on_c, 0, 73, 26
2, 26138, Note_on_c, 0, 73, 0
2, 26142, Note_on_c, 0, 69, 53
2, 26149, Note_on_c, 0, 69, 0
2, 26159, Note_on_c, 0, 59, 23
2, 26166, Note_on_c, 0, 76, 77
2, 26188, Note_on_c, 0, 53, 0
2, 26189, Note_on_c, 0, 76, 0
2, 26200, Note_on_c, 0, 73, 49
2, 26201, Note_on_c, 0, 59, 0
2, 26227, Note_on_c, 0, 73, 0
2, 26232, Note_on_c, 0, 69, 41
2, 26251, Note_on_c, 0, 69, 0
2, 26263, Note_on_c, 0, 64, 30
2, 26265, Note_on_c, 0, 59, 31
2, 26271, Note_on_c, 0, 64, 0
2, 26271, Note_on_c, 0, 53, 33
2, 26278, Note_on_c, 0, 59, 0
2, 26290, Note_on_c, 0, 61, 46
2, 26293, Note_on_c, 0, 53, 0
2, 26321, Note_on_c, 0, 61, 0
2, 26351, Note_on_c, 0, 59, 55
2, 26372, Note_on_c, 0, 59, 0
2, 26385, Note_on_c, 0, 60, 57
2, 26399, Note_on_c, 0, 58, 34
2, 26404, Note_on_c, 0, 48, 28
2, 26406, Note_on_c, 0, 60, 0
2, 26412, Note_on_c, 0, 58, 0
2, 26412, Note_on_c, 0, 62, 44
2, 26423, Note_on_c, 0, 48, 0
2, 26431, Note_on_c, 0, 62, 0
2, 26439, Note_on_c, 0, 61, 38
2, 26444, Note_on_c, 0, 61, 0
2, 26447, Note_on_c, 0, 62, 51
2, 26469, Note_on_c, 0, 62, 0
2, 26470, Note_on_c, 0, 63, 28
2, 26500, Note_on_c, 0, 63, 0
2, 26508, Note_on_c, 0, 64, 31
2, 26518, Note_on_c, 0, 64, 0
2, 26528, Note_on_c, 0, 65, 75
2, 26531, Note_on_c, 0, 48, 32
2, 26562, Note_on_c, 0, 65, 0
2, 26590, Note_on_c, 0, 43, 15
2, 26594, Note_on_c, 0, 63, 74
2, 26596, Note_on_c, 0, 61, 33
2, 26599, Note_on_c, 0, 43, 0
2, 26602, Note_on_c, 0, 61, 0
2, 26622, Note_on_c, 0, 63, 0
2, 26627, Note_on_c, 0, 64, 60
2, 26647, Note_on_c, 0, 64, 0
2, 26654, Note_on_c, 0, 60, 35
2, 26673, Note_on_c, 0, 60, 0
2, 26686, Note_on_c, 0, 55, 57
2, 26698, Note_on_c, 0, 55, 0
2, 26722, Note_on_c, 0, 53, 9
2, 26726, Note_on_c, 0, 48, 0
2, 26738, Note_on_c, 0, 53, 0
2, 26751, Note_on_c, 0, 48, 15
2, 26759, Note_on_c, 0, 48, 0
2, 26829, Note_on_c, 0, 40, 41
2, 26852, Note_on_c, 0, 40, 0
2, 26856, Note_on_c, 0, 41, 57
2, 26877, Note_on_c, 0, 41, 0
2, 26889, Note_on_c, 0, 29, 55
2, 26899, Note_on_c, 0, 29, 0
2, 26968, Note_on_c, 0, 87, 69
2, 26978, Note_on_c, 0, 90, 15
2, 26983, Note_on_c, 0, 90, 0
2, 26989, Note_on_c, 0, 87, 0
2, 26999, Note_on_c, 0, 91, 75
2, 27018, Note_on_c, 0, 87, 42
2, 27026, Note_on_c, 0, 91, 0
2, 27034, Note_on_c, 0, 84, 47
2, 27039, Note_on_c, 0, 87, 0
2, 27046, Note_on_c, 0, 84, 0
2, 27052, Note_on_c, 0, 81, 39
2, 27060, Note_on_c, 0, 81, 0
2, 27073, Note_on_c, 0, 80, 39
2, 27079, Note_on_c, 0, 80, 0
2, 27085, Note_on_c, 0, 79, 39
2, 27099, Note_on_c, 0, 79, 0
2, 27105, Note_on_c, 0, 78, 50
2, 27120, Note_on_c, 0, 78, 0
2, 27125, Note_on_c, 0, 77, 39
2, 27136, Note_on_c, 0, 67, 34
2, 27138, Note_on_c, 0, 63, 27
2, 27140, Note_on_c, 0, 62, 30
2, 27141, Note_on_c, 0, 77, 0
2, 27145, Note_on_c, 0, 67, 0
2, 27157, Note_on_c, 0, 62, 0
2, 27160, Note_on_c, 0, 63, 0
2, 27180, Note_on_c, 0, 79, 74
2, 27200, Note_on_c, 0, 79, 0
2, 27212, Note_on_c, 0, 75, 68
2, 27231, Note_on_c, 0, 75, 0
2, 27244, Note_on_c, 0, 72, 45
2, 27264, Note_on_c, 0, 72, 0
2, 27273, Note_on_c, 0, 69, 44
2, 27280, Note_on_c, 0, 69, 0
2, 27301, Note_on_c, 0, 68, 55
2, 27312, Note_on_c, 0, 63, 26
2, 27317, Note_on_c, 0, 63, 0
2, 27322, Note_on_c, 0, 68, 0
2, 27334, Note_on_c, 0, 67, 43
2, 27355, Note_on_c, 0, 67, 0
2, 27360, Note_on_c, 0, 66, 47
2, 27384, Note_on_c, 0, 66, 0
2, 27470, Note_on_c, 0, 73, 73
2, 27471, Note_on_c, 0, 75, 76
2, 27473, Note_on_c, 0, 65, 55
2, 27478, Note_on_c, 0, 67, 27
2, 27483, Note_on_c, 0, 67, 0
2, 27488, Note_on_c, 0, 65, 0
2, 27494, Note_on_c, 0, 73, 0
2, 27495, Note_on_c, 0, 75, 0
2, 27515, Note_on_c, 0, 74, 59
2, 27518, Note_on_c, 0, 70, 57
2, 27523, Note_on_c, 0, 65, 36
2, 27529, Note_on_c, 0, 65, 0
2, 27533, Note_on_c, 0, 70, 0
2, 27533, Note_on_c, 0, 74, 0
2, 27563, Note_on_c, 0, 72, 66
2, 27564, Note_on_c, 0, 68, 69
2, 27566, Note_on_c, 0, 66, 40
2, 27567, Note_on_c, 0, 70, 43
2, 27567, Note_on_c, 0, 51, 41
2, 27572, Note_on_c, 0, 66, 0
2, 27573, Note_on_c, 0, 70, 0
2, 27582, Note_on_c, 0, 72, 0
2, 27582, Note_on_c, 0, 68, 0
2, 27583, Note_on_c, 0, 51, 0
2, 27594, Note_on_c, 0, 72, 47
2, 27596, Note_on_c, 0, 69, 64
2, 27613, Note_on_c, 0, 72, 0
2, 27615, Note_on_c, 0, 69, 0
2, 27624, Note_on_c, 0, 65, 47
2, 27640, Note_on_c, 0, 65, 0
2, 27653, Note_on_c, 0, 60, 31
2, 27660, Note_on_c, 0, 60, 0
2, 27687, Note_on_c, 0, 59, 17
2, 27699, Note_on_c, 0, 59, 0
2, 27712, Note_on_c, 0, 53, 39
2, 27720, Note_on_c, 0, 53, 0
2, 27728, Note_on_c, 0, 41, 23
2, 27737, Note_on_c, 0, 58, 57
2, 27740, Note_on_c, 0, 65, 46
2, 27753, Note_on_c, 0, 65, 0
2, 27755, Note_on_c, 0, 41, 0
2, 27764, Note_on_c, 0, 58, 0
2, 27771, Note_on_c, 0, 53, 42
2, 27780, Note_on_c, 0, 53, 0
2, 27796, Note_on_c, 0, 56, 45
2, 27812, Note_on_c, 0, 56, 0
2, 27825, Note_on_c, 0, 57, 51
2, 27837, Note_on_c, 0, 57, 0
2, 27851, Note_on_c, 0, 58, 58
2, 27870, Note_on_c, 0, 58, 0
2, 27881, Note_on_c, 0, 59, 53
2, 27896, Note_on_c, 0, 59, 0
2, 27909, Note_on_c, 0, 60, 48
2, 27930, Note_on_c, 0, 60, 0
2, 27940, Note_on_c, 0, 61, 62
2, 27958, Note_on_c, 0, 61, 0
2, 27964, Note_on_c, 0, 62, 61
2, 27965, Note_on_c, 0, 56, 22
2, 27967, Note_on_c, 0, 46, 31
2, 27975, Note_on_c, 0, 56, 0
2, 27983, Note_on_c, 0, 46, 0
2, 27983, Note_on_c, 0, 62, 0
2, 28002, Note_on_c, 0, 53, 33
2, 28063, Note_on_c, 0, 53, 0
2, 28168, Note_on_c, 0, 46, 33
2, 28168, Note_on_c, 0, 56, 34
2, 28181, Note_on_c, 0, 56, 0
2, 28186, Note_on_c, 0, 46, 0
2, 28294, Note_on_c, 0, 56, 39
2, 28296, Note_on_c, 0, 47, 39
2, 28303, Note_on_c, 0, 47, 0
2, 28308, Note_on_c, 0, 56, 0
2, 28373, Note_on_c, 0, 58, 55
2, 28399, Note_on_c, 0, 58, 0
2, 28406, Note_on_c, 0, 59, 53
2, 28427, Note_on_c, 0, 59, 0
2, 28441, Note_on_c, 0, 62, 53
2, 28463, Note_on_c, 0, 62, 0
2, 28478, Note_on_c, 0, 65, 60
2, 28492, Note_on_c, 0, 65, 0
2, 28514, Note_on_c, 0, 62, 57
2, 28516, Note_on_c, 0, 68, 76
2, 28516, Note_on_c, 0, 56, 38
2, 28521, Note_on_c, 0, 59, 27
2, 28525, Note_on_c, 0, 62, 0
2, 28528, Note_on_c, 0, 59, 0
2, 28535, Note_on_c, 0, 56, 0
2, 28535, Note_on_c, 0, 68, 0
2, 28555, Note_on_c, 0, 76, 75
2, 28556, Note_on_c, 0, 68, 71
2, 28556, Note_on_c, 0, 65, 75
2, 28557, Note_on_c, 0, 71, 58
2, 28558, Note_on_c, 0, 64, 71
2, 28576, Note_on_c, 0, 76, 0
2, 28580, Note_on_c, 0, 65, 0
2, 28582, Note_on_c, 0, 68, 0
2, 28584, Note_on_c, 0, 71, 0
2, 28591, Note_on_c, 0, 64, 0
2, 28593, Note_on_c, 0, 63, 28
2, 28622, Note_on_c, 0, 63, 0
2, 28632, Note_on_c, 0, 68, 47
2, 28632, Note_on_c, 0, 74, 36
2, 28633, Note_on_c, 0, 65, 49
2, 28634, Note_on_c, 0, 71, 29
2, 28636, Note_on_c, 0, 62, 51
2, 28660, Note_on_c, 0, 71, 0
2, 28662, Note_on_c, 0, 74, 0
2, 28665, Note_on_c, 0, 62, 0
2, 28667, Note_on_c, 0, 68, 0
2, 28669, Note_on_c, 0, 65, 0
2, 28705, Note_on_c, 0, 62, 41
2, 28706, Note_on_c, 0, 71, 39
2, 28708, Note_on_c, 0, 68, 32
2, 28709, Note_on_c, 0, 59, 29
2, 28710, Note_on_c, 0, 65, 29
2, 28725, Note_on_c, 0, 65, 0
2, 28726, Note_on_c, 0, 62, 0
2, 28727, Note_on_c, 0, 68, 0
2, 28729, Note_on_c, 0, 71, 0
2, 28732, Note_on_c, 0, 59, 0
2, 28747, Note_on_c, 0, 56, 42
2, 28771, Note_on_c, 0, 56, 0
2, 28785, Note_on_c, 0, 74, 53
2, 28786, Note_on_c, 0, 65, 60
2, 28787, Note_on_c, 0, 68, 55
2, 28788, Note_on_c, 0, 58, 51
2, 28806, Note_on_c, 0, 74, 0
2, 28809, Note_on_c, 0, 65, 0
2, 28814, Note_on_c, 0, 58, 0
2, 28815, Note_on_c, 0, 68, 0
2, 28829, Note_on_c, 0, 72, 52
2, 28829, Note_on_c, 0, 57, 48
2, 28831, Note_on_c, 0, 64, 49
2, 28833, Note_on_c, 0, 67, 49
2, 28846, Note_on_c, 0, 67, 0
2, 28846, Note_on_c, 0, 72, 0
2, 28855, Note_on_c, 0, 64, 0
2, 28866, Note_on_c, 0, 57, 0
2, 28875, Note_on_c, 0, 69, 65
2, 28877, Note_on_c, 0, 60, 57
2, 28879, Note_on_c, 0, 53, 48
2, 28900, Note_on_c, 0, 60, 0
2, 28900, Note_on_c, 0, 69, 0
2, 28907, Note_on_c, 0, 53, 0
2, 28924, Note_on_c, 0, 65, 42
2, 28924, Note_on_c, 0, 57, 48
2, 28925, Note_on_c, 0, 50, 48
2, 28926, Note_on_c, 0, 60, 52
2, 28926, Note_on_c, 0, 62, 53
2, 28947, Note_on_c, 0, 57, 0
2, 28952, Note_on_c, 0, 60, 0
2, 28954, Note_on_c, 0, 50, 0
2, 28956, Note_on_c, 0, 62, 0
2, 28957, Note_on_c, 0, 65, 0
2, 29002, Note_on_c, 0, 50, 46
2, 29022, Note_on_c, 0, 50, 0
2, 29045, Note_on_c, 0, 56, 47
2, 29046, Note_on_c, 0, 67, 51
2, 29047, Note_on_c, 0, 60, 51
2, 29049, Note_on_c, 0, 55, 53
2, 29051, Note_on_c, 0, 62, 28
2, 29138, Note_on_c, 0, 67, 0
2, 29141, Note_on_c, 0, 56, 0
2, 29142, Note_on_c, 0, 60, 0
2, 29151, Note_on_c, 0, 55, 0
2, 29151, Note_on_c, 0, 62, 0
2, 29164, Note_on_c, 0, 46, 31
2, 29164, Note_on_c, 0, 56, 24
2, 29166, Note_on_c, 0, 65, 39
2, 29167, Note_on_c, 0, 60, 39
2, 29170, Note_on_c, 0, 62, 30
2, 29188, Control_c, 0, 64, 127
2, 29190, Note_on_c, 0, 46, 0
2, 29196, Note_on_c, 0, 56, 0
2, 29200, Note_on_c, 0, 60, 0
2, 29202, Note_on_c, 0, 62, 0
2, 29211, Note_on_c, 0, 65, 0
2, 29267, Control_c, 0, 64, 0
2, 29270, Note_on_c, 0, 55, 56
2, 29280, Note_on_c, 0, 72, 70
2, 29282, Note_on_c, 0, 58, 18
2, 29284, Note_on_c, 0, 60, 33
2, 29286, Note_on_c, 0, 77, 50
2, 29289, Note_on_c, 0, 61, 30
2, 29291, Note_on_c, 0, 81, 69
2, 29292, Note_on_c, 0, 65, 69
2, 29295, Note_on_c, 0, 84, 67
2, 29311, Control_c, 0, 64, 127
2, 29326, Note_on_c, 0, 72, 0
2, 29331, Note_on_c, 0, 77, 0
2, 29336, Note_on_c, 0, 55, 0
2, 29336, Note_on_c, 0, 81, 0
2, 29338, Note_on_c, 0, 60, 0
2, 29339, Note_on_c, 0, 84, 0
2, 29340, Note_on_c, 0, 58, 0
2, 29344, Note_on_c, 0, 65, 0
2, 29345, Note_on_c, 0, 61, 0
2, 29360, Note_on_c, 0, 55, 66
2, 29363, Note_on_c, 0, 75, 57
2, 29363, Note_on_c, 0, 60, 48
2, 29364, Note_on_c, 0, 58, 27
2, 29365, Note_on_c, 0, 82, 66
2, 29371, Note_on_c, 0, 87, 62
2, 29371, Note_on_c, 0, 61, 13
2, 29379, Note_on_c, 0, 65, 27
2, 29383, Note_on_c, 0, 75, 0
2, 29386, Note_on_c, 0, 65, 0
2, 29387, Note_on_c, 0, 55, 0
2, 29392, Note_on_c, 0, 60, 0
2, 29392, Note_on_c, 0, 82, 0
2, 29392, Note_on_c, 0, 58, 0
2, 29392, Note_on_c, 0, 87, 0
2, 29399, Note_on_c, 0, 61, 0
2, 29401, Control_c, 0, 64, 0
2, 29402, Note_on_c, 0, 77, 53
2, 29407, Note_on_c, 0, 55, 42
2, 29408, Note_on_c, 0, 60, 37
2, 29408, Note_on_c, 0, 61, 26
2, 29409, Note_on_c, 0, 65, 54
2, 29414, Note_on_c, 0, 89, 73
2, 29430, Control_c, 0, 64, 127
2, 29435, Note_on_c, 0, 89, 0
2, 29444, Note_on_c, 0, 77, 0
2, 29445, Note_on_c, 0, 65, 0
2, 29450, Note_on_c, 0, 55, 0
2, 29451, Note_on_c, 0, 60, 0
2, 29458, Note_on_c, 0, 61, 0
2, 29474, Control_c, 0, 64, 0
2, 29477, Note_on_c, 0, 74, 33
2, 29486, Note_on_c, 0, 64, 37
2, 29486, Note_on_c, 0, 60, 30
2, 29488, Note_on_c, 0, 54, 33
2, 29488, Note_on_c, 0, 86, 53
2, 29489, Note_on_c, 0, 81, 42
2, 29533, Control_c, 0, 64, 127
2, 29545, Note_on_c, 0, 81, 0
2, 29546, Note_on_c, 0, 86, 0
2, 29550, Note_on_c, 0, 60, 0
2, 29556, Note_on_c, 0, 74, 0
2, 29566, Note_on_c, 0, 64, 0
2, 29569, Note_on_c, 0, 54, 0
2, 29597, Control_c, 0, 64, 0
2, 29597, Note_on_c, 0, 68, 63
2, 29602, Note_on_c, 0, 60, 25
2, 29604, Note_on_c, 0, 54, 46
2, 29604, Note_on_c, 0, 74, 31
2, 29605, Note_on_c, 0, 64, 47
2, 29606, Note_on_c, 0, 68, 0
2, 29607, Note_on_c, 0, 80, 48
2, 29609, Note_on_c, 0, 69, 55
2, 29610, Note_on_c, 0, 77, 28
2, 29618, Note_on_c, 0, 69, 0
2, 29621, Note_on_c, 0, 80, 0
2, 29624, Note_on_c, 0, 64, 0
2, 29634, Note_on_c, 0, 77, 0
2, 29638, Note_on_c, 0, 60, 0
2, 29639, Note_on_c, 0, 74, 0
2, 29640, Note_on_c, 0, 54, 0
2, 29656, Note_on_c, 0, 77, 52
2, 29657, Note_on_c, 0, 54, 42
2, 29661, Note_on_c, 0, 60, 25
2, 29662, Note_on_c, 0, 65, 23
2, 29681, Note_on_c, 0, 54, 0
2, 29687, Note_on_c, 0, 65, 0
2, 29695, Note_on_c, 0, 60, 0
2, 29696, Note_on_c, 0, 77, 0
2, 29729, Note_on_c, 0, 54, 44
2, 29733, Note_on_c, 0, 74, 34
2, 29749, Note_on_c, 0, 54, 0
2, 29755, Note_on_c, 0, 74, 0
2, 29769, Note_on_c, 0, 62, 23
2, 29770, Note_on_c, 0, 53, 33
2, 29771, Note_on_c, 0, 77, 29
2, 29773, Note_on_c, 0, 59, 30
2, 29776, Note_on_c, 0, 65, 19
2, 29798, Note_on_c, 0, 65, 0
2, 29801, Note_on_c, 0, 62, 0
2, 29804, Note_on_c, 0, 53, 0
2, 29804, Note_on_c, 0, 59, 0
2, 29811, Note_on_c, 0, 77, 0
2, 29844, Note_on_c, 0, 80, 62
2, 29845, Note_on_c, 0, 68, 68
2, 29845, Note_on_c, 0, 59, 59
2, 29847, Note_on_c, 0, 62, 64
2, 29848, Note_on_c, 0, 53, 65
2, 29848, Note_on_c, 0, 74, 53
2, 29855, Note_on_c, 0, 68, 0
2, 29858, Note_on_c, 0, 81, 40
2, 29859, Note_on_c, 0, 77, 11
2, 29860, Note_on_c, 0, 69, 36
2, 29868, Note_on_c, 0, 69, 0
2, 29868, Note_on_c, 0, 80, 0
2, 29873, Note_on_c, 0, 62, 0
2, 29873, Note_on_c, 0, 81, 0
2, 29875, Note_on_c, 0, 53, 0
2, 29877, Note_on_c, 0, 77, 0
2, 29879, Note_on_c, 0, 74, 0
2, 29885, Note_on_c, 0, 59, 0
2, 29896, Note_on_c, 0, 77, 38
2, 29897, Note_on_c, 0, 59, 20
2, 29899, Note_on_c, 0, 62, 21
2, 29899, Note_on_c, 0, 53, 28
2, 29907, Note_on_c, 0, 65, 19
2, 29914, Note_on_c, 0, 62, 0
2, 29923, Note_on_c, 0, 65, 0
2, 29927, Note_on_c, 0, 53, 0
2, 29927, Note_on_c, 0, 59, 0
2, 29937, Note_on_c, 0, 77, 0
2, 29964, Note_on_c, 0, 53, 45
2, 29973, Note_on_c, 0, 74, 24
2, 29981, Note_on_c, 0, 53, 0
2, 29994, Note_on_c, 0, 74, 0
2, 30011, Note_on_c, 0, 62, 39
2, 30012, Note_on_c, 0, 52, 43
2, 30013, Note_on_c, 0, 77, 27
2, 30014, Note_on_c, 0, 74, 19
2, 30014, Note_on_c, 0, 65, 28
2, 30014, Note_on_c, 0, 58, 25
2, 30015, Note_on_c, 0, 70, 25
2, 30018, Note_on_c, 0, 62, 0
2, 30020, Note_on_c, 0, 65, 0
2, 30020, Note_on_c, 0, 52, 0
2, 30023, Note_on_c, 0, 58, 0
2, 30023, Note_on_c, 0, 74, 0
2, 30023, Note_on_c, 0, 70, 0
2, 30031, Note_on_c, 0, 77, 0
2, 30087, Note_on_c, 0, 80, 74
2, 30088, Note_on_c, 0, 68, 83
2, 30090, Note_on_c, 0, 58, 64
2, 30090, Note_on_c, 0, 62, 74
2, 30091, Note_on_c, 0, 52, 75
2, 30091, Note_on_c, 0, 74, 63
2, 30096, Note_on_c, 0, 68, 0
2, 30096, Note_on_c, 0, 81, 57
2, 30098, Note_on_c, 0, 69, 65
2, 30113, Note_on_c, 0, 81, 0
2, 30116, Note_on_c, 0, 80, 0
2, 30118, Note_on_c, 0, 62, 0
2, 30118, Note_on_c, 0, 52, 0
2, 30118, Note_on_c, 0, 69, 0
2, 30124, Note_on_c, 0, 74, 0
2, 30128, Note_on_c, 0, 58, 0
2, 30139, Note_on_c, 0, 77, 56
2, 30139, Note_on_c, 0, 62, 37
2, 30142, Note_on_c, 0, 58, 33
2, 30143, Note_on_c, 0, 52, 33
2, 30144, Note_on_c, 0, 65, 53
2, 30154, Note_on_c, 0, 62, 0
2, 30157, Note_on_c, 0, 65, 0
2, 30158, Note_on_c, 0, 52, 0
2, 30162, Note_on_c, 0, 58, 0
2, 30166, Note_on_c, 0, 77, 0
2, 30208, Note_on_c, 0, 74, 53
2, 30211, Note_on_c, 0, 62, 44
2, 30213, Note_on_c, 0, 58, 31
2, 30215, Note_on_c, 0, 65, 29
2, 30217, Note_on_c, 0, 62, 0
2, 30221, Note_on_c, 0, 65, 0
2, 30229, Note_on_c, 0, 58, 0
2, 30230, Note_on_c, 0, 74, 0
2, 30250, Note_on_c, 0, 77, 59
2, 30250, Note_on_c, 0, 52, 37
2, 30250, Note_on_c, 0, 65, 61
2, 30251, Note_on_c, 0, 74, 19
2, 30253, Note_on_c, 0, 70, 34
2, 30257, Note_on_c, 0, 65, 0
2, 30258, Note_on_c, 0, 70, 0
2, 30266, Note_on_c, 0, 77, 0
2, 30266, Note_on_c, 0, 52, 0
2, 30266, Note_on_c, 0, 74, 0
2, 30326, Note_on_c, 0, 68, 82
2, 30327, Note_on_c, 0, 80, 68
2, 30328, Note_on_c, 0, 47, 75
2, 30329, Note_on_c, 0, 48, 83
2, 30333, Note_on_c, 0, 81, 44
2, 30338, Note_on_c, 0, 68, 0
2, 30338, Note_on_c, 0, 76, 9
2, 30339, Note_on_c, 0, 69, 64
2, 30340, Note_on_c, 0, 74, 10
2, 30342, Note_on_c, 0, 47, 0
2, 30344, Note_on_c, 0, 80, 0
2, 30350, Note_on_c, 0, 69, 0
2, 30351, Note_on_c, 0, 81, 0
2, 30356, Note_on_c, 0, 76, 0
2, 30359, Note_on_c, 0, 74, 0
2, 30376, Note_on_c, 0, 77, 49
2, 30380, Note_on_c, 0, 65, 30
2, 30403, Note_on_c, 0, 65, 0
2, 30409, Note_on_c, 0, 77, 0
2, 30413, Note_on_c, 0, 48, 0
2, 30443, Note_on_c, 0, 74, 57
2, 30444, Note_on_c, 0, 47, 69
2, 30469, Note_on_c, 0, 74, 0
2, 30479, Note_on_c, 0, 47, 0
2, 30486, Note_on_c, 0, 48, 52
2, 30488, Note_on_c, 0, 77, 42
2, 30489, Note_on_c, 0, 65, 50
2, 30493, Note_on_c, 0, 70, 20
2, 30496, Note_on_c, 0, 65, 0
2, 30500, Note_on_c, 0, 70, 0
2, 30508, Note_on_c, 0, 77, 0
2, 30559, Note_on_c, 0, 80, 64
2, 30561, Note_on_c, 0, 36, 76
2, 30561, Note_on_c, 0, 68, 72
2, 30564, Note_on_c, 0, 74, 50
2, 30583, Note_on_c, 0, 74, 0
2, 30584, Note_on_c, 0, 36, 0
2, 30586, Note_on_c, 0, 68, 0
2, 30592, Note_on_c, 0, 80, 0
2, 30594, Note_on_c, 0, 48, 0
2, 30602, Note_on_c, 0, 69, 52
2, 30603, Note_on_c, 0, 81, 38
2, 30606, Note_on_c, 0, 74, 19
2, 30607, Control_c, 0, 64, 127
2, 30610, Note_on_c, 0, 69, 0
2, 30612, Note_on_c, 0, 81, 0
2, 30614, Note_on_c, 0, 74, 0
2, 30641, Note_on_c, 0, 82, 57
2, 30641, Note_on_c, 0, 70, 62
2, 30654, Note_on_c, 0, 70, 0
2, 30656, Note_on_c, 0, 82, 0
2, 30679, Note_on_c, 0, 84, 42
2, 30688, Note_on_c, 0, 71, 17
2, 30693, Note_on_c, 0, 84, 0
2, 30696, Note_on_c, 0, 71, 0
2, 30722, Note_on_c, 0, 81, 41
2, 30723, Control_c, 0, 64, 0
2, 30725, Note_on_c, 0, 69, 38
2, 30726, Note_on_c, 0, 57, 31
2, 30727, Note_on_c, 0, 63, 27
2, 30727, Note_on_c, 0, 65, 27
2, 30771, Control_c, 0, 64, 127
2, 30810, Note_on_c, 0, 65, 0
2, 30812, Note_on_c, 0, 57, 0
2, 30812, Note_on_c, 0, 63, 0
2, 30833, Note_on_c, 0, 69, 0
2, 30850, Note_on_c, 0, 57, 38
2, 30852, Note_on_c, 0, 65, 25
2, 30853, Note_on_c, 0, 81, 0
2, 30853, Note_on_c, 0, 63, 27
2, 30917, Note_on_c, 0, 57, 0
2, 30926, Note_on_c, 0, 65, 0
2, 30927, Note_on_c, 0, 77, 100
2, 30945, Note_on_c, 0, 63, 0
2, 30960, Control_c, 0, 64, 0
2, 30969, Note_on_c, 0, 56, 32
2, 30970, Note_on_c, 0, 77, 0
2, 30970, Note_on_c, 0, 67, 32
2, 30970, Note_on_c, 0, 78, 41
2, 30970, Note_on_c, 0, 62, 33
2, 30976, Note_on_c, 0, 78, 0
2, 30976, Note_on_c, 0, 79, 57
2, 31039, Note_on_c, 0, 79, 0
2, 31044, Note_on_c, 0, 67, 0
2, 31045, Note_on_c, 0, 62, 0
2, 31050, Note_on_c, 0, 77, 55
2, 31087, Note_on_c, 0, 67, 21
2, 31089, Note_on_c, 0, 62, 26
2, 31093, Note_on_c, 0, 74, 35
2, 31094, Control_c, 0, 64, 127
2, 31120, Note_on_c, 0, 67, 0
2, 31126, Note_on_c, 0, 62, 0
2, 31129, Note_on_c, 0, 56, 0
2, 31147, Note_on_c, 0, 74, 0
2, 31153, Note_on_c, 0, 77, 0
2, 31168, Note_on_c, 0, 56, 33
2, 31180, Note_on_c, 0, 72, 19
2, 31194, Note_on_c, 0, 56, 0
2, 31195, Note_on_c, 0, 72, 0
2, 31209, Control_c, 0, 64, 0
2, 31213, Note_on_c, 0, 72, 42
2, 31213, Note_on_c, 0, 65, 31
2, 31213, Note_on_c, 0, 55, 31
2, 31217, Note_on_c, 0, 60, 32
2, 31219, Note_on_c, 0, 61, 26
2, 31222, Note_on_c, 0, 58, 21
2, 31248, Control_c, 0, 64, 127
2, 31253, Note_on_c, 0, 72, 0
2, 31261, Note_on_c, 0, 60, 0
2, 31262, Note_on_c, 0, 55, 0
2, 31264, Note_on_c, 0, 65, 0
2, 31265, Note_on_c, 0, 61, 0
2, 31271, Note_on_c, 0, 58, 0
2, 31329, Control_c, 0, 64, 0
2, 31336, Note_on_c, 0, 85, 59
2, 31336, Note_on_c, 0, 61, 44
2, 31336, Note_on_c, 0, 60, 44
2, 31338, Note_on_c, 0, 73, 54
2, 31338, Note_on_c, 0, 80, 51
2, 31338, Note_on_c, 0, 65, 53
2, 31339, Note_on_c, 0, 55, 52
2, 31359, Control_c, 0, 64, 127
2, 31374, Note_on_c, 0, 65, 0
2, 31376, Note_on_c, 0, 60, 0
2, 31379, Note_on_c, 0, 55, 0
2, 31388, Note_on_c, 0, 73, 0
2, 31391, Note_on_c, 0, 85, 0
2, 31393, Note_on_c, 0, 80, 0
2, 31400, Note_on_c, 0, 61, 0
2, 31406, Control_c, 0, 64, 0
2, 31413, Note_on_c, 0, 64, 35
2, 31415, Note_on_c, 0, 74, 34
2, 31415, Note_on_c, 0, 54, 31
2, 31415, Note_on_c, 0, 86, 44
2, 31415, Note_on_c, 0, 60, 41
2, 31418, Note_on_c, 0, 81, 45
2, 31463, Control_c, 0, 64, 127
2, 31480, Note_on_c, 0, 60, 0
2, 31480, Note_on_c, 0, 74, 0
2, 31490, Note_on_c, 0, 54, 0
2, 31494, Note_on_c, 0, 81, 0
2, 31495, Note_on_c, 0, 64, 0
2, 31498, Note_on_c, 0, 86, 0
2, 31532, Note_on_c, 0, 60, 25
2, 31539, Note_on_c, 0, 60, 0
2, 31559, Control_c, 0, 64, 0
2, 31564, Note_on_c, 0, 54, 83
2, 31565, Note_on_c, 0, 60, 78
2, 31565, Note_on_c, 0, 64, 76
2, 31565, Note_on_c, 0, 85, 85
2, 31566, Note_on_c, 0, 89, 86
2, 31566, Note_on_c, 0, 77, 73
2, 31567, Note_on_c, 0, 79, 68
2, 31591, Note_on_c, 0, 85, 0
2, 31591, Note_on_c, 0, 86, 47
2, 31601, Note_on_c, 0, 79, 0
2, 31604, Note_on_c, 0, 77, 0
2, 31606, Note_on_c, 0, 86, 0
2, 31610, Note_on_c, 0, 60, 0
2, 31614, Note_on_c, 0, 89, 0
2, 31617, Note_on_c, 0, 64, 0
2, 31629, Note_on_c, 0, 54, 0
2, 31645, Note_on_c, 0, 64, 71
2, 31645, Note_on_c, 0, 53, 69
2, 31645, Note_on_c, 0, 59, 65
2, 31645, Note_on_c, 0, 85, 78
2, 31645, Note_on_c, 0, 77, 74
2, 31646, Note_on_c, 0, 89, 77
2, 31673, Note_on_c, 0, 86, 31
2, 31674, Note_on_c, 0, 85, 0
2, 31679, Note_on_c, 0, 86, 0
2, 31685, Note_on_c, 0, 89, 0
2, 31687, Note_on_c, 0, 77, 0
2, 31691, Note_on_c, 0, 64, 0
2, 31691, Note_on_c, 0, 53, 0
2, 31693, Note_on_c, 0, 59, 0
2, 31721, Note_on_c, 0, 86, 57
2, 31724, Note_on_c, 0, 64, 45
2, 31725, Note_on_c, 0, 74, 36
2, 31726, Note_on_c, 0, 59, 46
2, 31728, Note_on_c, 0, 53, 37
2, 31729, Note_on_c, 0, 81, 33
2, 31753, Control_c, 0, 64, 127
2, 31784, Note_on_c, 0, 53, 0
2, 31784, Note_on_c, 0, 64, 0
2, 31785, Note_on_c, 0, 81, 0
2, 31791, Note_on_c, 0, 59, 0
2, 31815, Note_on_c, 0, 64, 33
2, 31815, Control_c, 0, 64, 0
2, 31816, Note_on_c, 0, 59, 45
2, 31818, Note_on_c, 0, 53, 25
2, 31834, Note_on_c, 0, 86, 0
2, 31840, Note_on_c, 0, 74, 0
2, 31842, Control_c, 0, 64, 127
2, 31861, Note_on_c, 0, 59, 0
2, 31865, Note_on_c, 0, 64, 0
2, 31872, Note_on_c, 0, 53, 0
2, 31902, Note_on_c, 0, 52, 28
2, 31909, Note_on_c, 0, 52, 0
2, 31926, Control_c, 0, 64, 0
2, 31938, Note_on_c, 0, 58, 47
2, 31938, Note_on_c, 0, 61, 50
2, 31939, Note_on_c, 0, 69, 47
2, 31943, Note_on_c, 0, 64, 27
2, 31943, Note_on_c, 0, 67, 25
2, 32011, Note_on_c, 0, 48, 78
2, 32012, Note_on_c, 0, 47, 66
2, 32015, Note_on_c, 0, 69, 0
2, 32022, Note_on_c, 0, 67, 0
2, 32025, Note_on_c, 0, 47, 0
2, 32089, Note_on_c, 0, 64, 0
2, 32121, Note_on_c, 0, 58, 0
2, 32132, Note_on_c, 0, 47, 44
2, 32140, Note_on_c, 0, 61, 0
2, 32141, Note_on_c, 0, 47, 0
2, 32167, Note_on_c, 0, 65, 49
2, 32167, Note_on_c, 0, 57, 36
2, 32169, Note_on_c, 0, 60, 46
2, 32172, Note_on_c, 0, 62, 28
2, 32173, Note_on_c, 0, 57, 0
2, 32174, Note_on_c, 0, 60, 0
2, 32177, Note_on_c, 0, 62, 0
2, 32182, Note_on_c, 0, 65, 0
2, 32210, Note_on_c, 0, 74, 57
2, 32210, Note_on_c, 0, 72, 57
2, 32221, Note_on_c, 0, 74, 0
2, 32231, Note_on_c, 0, 72, 0
2, 32238, Note_on_c, 0, 48, 0
2, 32242, Note_on_c, 0, 73, 68
2, 32278, Note_on_c, 0, 73, 0
2, 32281, Note_on_c, 0, 74, 48
2, 32304, Note_on_c, 0, 74, 0
2, 32318, Note_on_c, 0, 77, 55
2, 32341, Note_on_c, 0, 77, 0
2, 32355, Note_on_c, 0, 74, 42
2, 32378, Note_on_c, 0, 74, 0
2, 32397, Note_on_c, 0, 77, 55
2, 32399, Note_on_c, 0, 65, 53
2, 32400, Note_on_c, 0, 70, 42
2, 32412, Note_on_c, 0, 70, 0
2, 32414, Note_on_c, 0, 65, 0
2, 32421, Note_on_c, 0, 77, 0
2, 32439, Note_on_c, 0, 74, 31
2, 32445, Note_on_c, 0, 48, 23
2, 32452, Note_on_c, 0, 74, 0
2, 32454, Note_on_c, 0, 48, 0
2, 32480, Note_on_c, 0, 58, 54
2, 32480, Note_on_c, 0, 77, 56
2, 32480, Note_on_c, 0, 65, 57
2, 32481, Note_on_c, 0, 70, 45
2, 32484, Note_on_c, 0, 74, 30
2, 32528, Note_on_c, 0, 77, 0
2, 32530, Note_on_c, 0, 74, 0
2, 32538, Note_on_c, 0, 70, 0
2, 32540, Note_on_c, 0, 65, 0
2, 32555, Note_on_c, 0, 58, 0
2, 32604, Note_on_c, 0, 63, 51
2, 32604, Note_on_c, 0, 60, 59
2, 32606, Note_on_c, 0, 54, 43
2, 32612, Note_on_c, 0, 69, 24
2, 32623, Note_on_c, 0, 69, 0
2, 32631, Note_on_c, 0, 60, 0
2, 32634, Note_on_c, 0, 54, 0
2, 32634, Note_on_c, 0, 63, 0
2, 32652, Note_on_c, 0, 69, 35
2, 32652, Note_on_c, 0, 60, 48
2, 32652, Note_on_c, 0, 53, 39
2, 32655, Note_on_c, 0, 65, 39
2, 32655, Note_on_c, 0, 62, 43
2, 32667, Note_on_c, 0, 60, 0
2, 32670, Note_on_c, 0, 53, 0
2, 32676, Note_on_c, 0, 69, 0
2, 32677, Note_on_c, 0, 65, 0
2, 32678, Note_on_c, 0, 62, 0
2, 32714, Note_on_c, 0, 51, 25
2, 32723, Note_on_c, 0, 51, 0
2, 32726, Note_on_c, 0, 52, 39
2, 32731, Note_on_c, 0, 53, 46
2, 32732, Note_on_c, 0, 52, 0
2, 32733, Note_on_c, 0, 69, 59
2, 32735, Note_on_c, 0, 62, 52
2, 32735, Note_on_c, 0, 60, 62
2, 32737, Control_c, 0, 64, 127
2, 32747, Note_on_c, 0, 62, 0
2, 32747, Note_on_c, 0, 69, 0
2, 32758, Note_on_c, 0, 60, 0
2, 32768, Note_on_c, 0, 53, 0
2, 32774, Control_c, 0, 64, 0
2, 32777, Note_on_c, 0, 50, 49
2, 32779, Note_on_c, 0, 65, 59
2, 32780, Note_on_c, 0, 60, 52
2, 32780, Note_on_c, 0, 57, 46
2, 32783, Note_on_c, 0, 62, 44
2, 32808, Control_c, 0, 64, 127
2, 32813, Note_on_c, 0, 65, 0
2, 32824, Note_on_c, 0, 57, 0
2, 32838, Note_on_c, 0, 62, 0
2, 32839, Note_on_c, 0, 60, 0
2, 32845, Note_on_c, 0, 50, 0
2, 32852, Note_on_c, 0, 67, 67
2, 32853, Note_on_c, 0, 56, 62
2, 32854, Note_on_c, 0, 60, 70
2, 32854, Note_on_c, 0, 62, 70
2, 32859, Note_on_c, 0, 55, 60
2, 32860, Control_c, 0, 64, 0
2, 32923, Control_c, 0, 64, 127
2, 32953, Note_on_c, 0, 67, 0
2, 32955, Note_on_c, 0, 56, 0
2, 32956, Note_on_c, 0, 55, 0
2, 32958, Note_on_c, 0, 51, 30
2, 32960, Note_on_c, 0, 60, 0
2, 32963, Note_on_c, 0, 62, 0
2, 32976, Note_on_c, 0, 51, 0
2, 32977, Note_on_c, 0, 56, 47
2, 32978, Note_on_c, 0, 65, 63
2, 32979, Note_on_c, 0, 62, 53
2, 32979, Note_on_c, 0, 60, 40
2, 32979, Note_on_c, 0, 53, 48
2, 32990, Control_c, 0, 64, 0
2, 33027, Control_c, 0, 64, 127
2, 33040, Note_on_c, 0, 60, 0
2, 33052, Note_on_c, 0, 56, 0
2, 33057, Control_c, 0, 64, 0
2, 33059, Note_on_c, 0, 60, 60
2, 33065, Note_on_c, 0, 65, 0
2, 33067, Note_on_c, 0, 62, 0
2, 33075, Note_on_c, 0, 60, 0
2, 33079, Control_c, 0, 64, 127
2, 33082, Note_on_c, 0, 53, 0
2, 33095, Note_on_c, 0, 50, 53
2, 33102, Note_on_c, 0, 50, 0
2, 33131, Control_c, 0, 64, 0
2, 33134, Note_on_c, 0, 72, 57
2, 33136, Note_on_c, 0, 65, 63
2, 33136, Note_on_c, 0, 61, 48
2, 33137, Note_on_c, 0, 60, 68
2, 33138, Note_on_c, 0, 69, 53
2, 33168, Control_c, 0, 64, 127
2, 33200, Note_on_c, 0, 65, 0
2, 33202, Note_on_c, 0, 61, 0
2, 33207, Note_on_c, 0, 69, 0
2, 33210, Note_on_c, 0, 72, 0
2, 33222, Note_on_c, 0, 60, 0
2, 33251, Control_c, 0, 64, 0
2, 33252, Note_on_c, 0, 61, 40
2, 33252, Note_on_c, 0, 73, 47
2, 33252, Note_on_c, 0, 64, 54
2, 33254, Note_on_c, 0, 70, 45
2, 33281, Control_c, 0, 64, 127
2, 33290, Note_on_c, 0, 70, 0
2, 33294, Note_on_c, 0, 64, 0
2, 33297, Note_on_c, 0, 73, 0
2, 33309, Note_on_c, 0, 61, 0
2, 33332, Note_on_c, 0, 74, 33
2, 33334, Note_on_c, 0, 60, 44
2, 33334, Note_on_c, 0, 54, 44
2, 33339, Note_on_c, 0, 71, 39
2, 33340, Note_on_c, 0, 62, 30
2, 33340, Control_c, 0, 64, 0
2, 33342, Note_on_c, 0, 72, 17
2, 33342, Note_on_c, 0, 64, 21
2, 33349, Note_on_c, 0, 72, 0
2, 33351, Note_on_c, 0, 64, 0
2, 33394, Control_c, 0, 64, 127
2, 33398, Note_on_c, 0, 71, 0
2, 33407, Note_on_c, 0, 62, 0
2, 33434, Note_on_c, 0, 54, 0
2, 33437, Note_on_c, 0, 60, 0
2, 33450, Note_on_c, 0, 65, 53
2, 33450, Note_on_c, 0, 60, 29
2, 33452, Note_on_c, 0, 70, 38
2, 33453, Note_on_c, 0, 54, 33
2, 33460, Control_c, 0, 64, 0
2, 33492, Control_c, 0, 64, 127
2, 33511, Note_on_c, 0, 54, 0
2, 33550, Note_on_c, 0, 74, 0
2, 33550, Note_on_c, 0, 65, 0
2, 33551, Note_on_c, 0, 70, 0
2, 33561, Note_on_c, 0, 54, 37
2, 33570, Note_on_c, 0, 60, 0
2, 33586, Note_on_c, 0, 54, 0
2, 33599, Control_c, 0, 64, 0
2, 33602, Note_on_c, 0, 59, 40
2, 33604, Note_on_c, 0, 53, 42
2, 33604, Note_on_c, 0, 73, 33
2, 33607, Note_on_c, 0, 69, 50
2, 33625, Note_on_c, 0, 69, 0
2, 33633, Note_on_c, 0, 73, 0
2, 33633, Note_on_c, 0, 53, 0
2, 33640, Note_on_c, 0, 59, 0
2, 33682, Note_on_c, 0, 53, 30
2, 33683, Note_on_c, 0, 64, 34
2, 33683, Note_on_c, 0, 77, 57
2, 33684, Note_on_c, 0, 59, 37
2, 33686, Control_c, 0, 64, 127
2, 33688, Note_on_c, 0, 73, 32
2, 33689, Note_on_c, 0, 69, 28
2, 33708, Note_on_c, 0, 77, 0
2, 33709, Note_on_c, 0, 64, 0
2, 33709, Note_on_c, 0, 69, 0
2, 33716, Note_on_c, 0, 53, 0
2, 33718, Note_on_c, 0, 73, 0
2, 33719, Note_on_c, 0, 59, 0
2, 33727, Control_c, 0, 64, 0
2, 33729, Note_on_c, 0, 76, 35
2, 33731, Note_on_c, 0, 62, 36
2, 33733, Note_on_c, 0, 73, 24
2, 33733, Note_on_c, 0, 59, 22
2, 33734, Note_on_c, 0, 69, 42
2, 33734, Note_on_c, 0, 53, 14
2, 33735, Note_on_c, 0, 64, 38
2, 33773, Control_c, 0, 64, 127
2, 33777, Note_on_c, 0, 53, 0
2, 33785, Note_on_c, 0, 62, 0
2, 33788, Note_on_c, 0, 73, 0
2, 33788, Note_on_c, 0, 69, 0
2, 33788, Note_on_c, 0, 64, 0
2, 33789, Note_on_c, 0, 59, 0
2, 33806, Note_on_c, 0, 76, 0
2, 33817, Note_on_c, 0, 59, 20
2, 33818, Note_on_c, 0, 53, 19
2, 33823, Note_on_c, 0, 53, 0
2, 33852, Control_c, 0, 64, 0
2, 33852, Note_on_c, 0, 73, 52
2, 33854, Note_on_c, 0, 63, 47
2, 33856, Note_on_c, 0, 64, 33
2, 33857, Note_on_c, 0, 69, 47
2, 33859, Note_on_c, 0, 53, 26
2, 33882, Note_on_c, 0, 69, 0
2, 33882, Note_on_c, 0, 63, 0
2, 33884, Note_on_c, 0, 73, 0
2, 33884, Control_c, 0, 64, 127
2, 33889, Note_on_c, 0, 59, 0
2, 33896, Note_on_c, 0, 64, 0
2, 33898, Note_on_c, 0, 53, 0
2, 33936, Note_on_c, 0, 69, 50
2, 33937, Note_on_c, 0, 61, 60
2, 33939, Note_on_c, 0, 64, 49
2, 33940, Note_on_c, 0, 57, 59
2, 33966, Note_on_c, 0, 57, 0
2, 33966, Note_on_c, 0, 64, 0
2, 33966, Note_on_c, 0, 61, 0
2, 33966, Control_c, 0, 64, 0
2, 33974, Note_on_c, 0, 69, 0
2, 33984, Note_on_c, 0, 64, 29
2, 33986, Note_on_c, 0, 61, 32
2, 33989, Note_on_c, 0, 58, 25
2, 34022, Control_c, 0, 64, 127
2, 34038, Note_on_c, 0, 58, 0
2, 34046, Note_on_c, 0, 64, 0
2, 34050, Note_on_c, 0, 58, 26
2, 34054, Note_on_c, 0, 61, 0
2, 34058, Note_on_c, 0, 47, 39
2, 34060, Note_on_c, 0, 58, 0
2, 34085, Control_c, 0, 64, 0
2, 34088, Note_on_c, 0, 47, 0
2, 34094, Note_on_c, 0, 62, 45
2, 34094, Note_on_c, 0, 65, 47
2, 34095, Note_on_c, 0, 55, 48
2, 34095, Note_on_c, 0, 58, 42
2, 34095, Note_on_c, 0, 48, 43
2, 34102, Note_on_c, 0, 48, 0
2, 34152, Note_on_c, 0, 55, 0
2, 34159, Note_on_c, 0, 62, 0
2, 34163, Note_on_c, 0, 58, 0
2, 34164, Note_on_c, 0, 65, 0
2, 34167, Note_on_c, 0, 24, 86
2, 34168, Note_on_c, 0, 36, 86
2, 34290, Note_on_c, 0, 31, 44
2, 34313, Note_on_c, 0, 31, 0
2, 34316, Note_on_c, 0, 62, 37
2, 34326, Note_on_c, 0, 63, 60
2, 34334, Note_on_c, 0, 62, 0
2, 34339, Note_on_c, 0, 64, 76
2, 34340, Note_on_c, 0, 63, 0
2, 34360, Note_on_c, 0, 72, 75
2, 34361, Note_on_c, 0, 68, 32
2, 34369, Note_on_c, 0, 68, 0
2, 34434, Note_on_c, 0, 72, 0
2, 34442, Control_c, 0, 64, 127
2, 34448, Note_on_c, 0, 72, 60
2, 34449, Note_on_c, 0, 24, 0
2, 34464, Note_on_c, 0, 36, 0
2, 34518, Note_on_c, 0, 72, 0
2, 34524, Note_on_c, 0, 64, 0
2, 34530, Note_on_c, 0, 70, 25
2, 34548, Note_on_c, 0, 70, 0
2, 34560, Control_c, 0, 64, 0
2, 34565, Note_on_c, 0, 57, 31
2, 34565, Note_on_c, 0, 75, 35
2, 34565, Note_on_c, 0, 77, 43
2, 34566, Note_on_c, 0, 63, 30
2, 34592, Note_on_c, 0, 57, 0
2, 34594, Note_on_c, 0, 63, 0
2, 34594, Note_on_c, 0, 77, 0
2, 34608, Note_on_c, 0, 75, 0
2, 34678, Note_on_c, 0, 65, 50
2, 34679, Note_on_c, 0, 81, 65
2, 34679, Note_on_c, 0, 63, 31
2, 34679, Note_on_c, 0, 69, 68
2, 34682, Note_on_c, 0, 57, 32
2, 34690, Note_on_c, 0, 65, 0
2, 34693, Note_on_c, 0, 57, 0
2, 34698, Note_on_c, 0, 69, 0
2, 34701, Note_on_c, 0, 81, 0
2, 34706, Note_on_c, 0, 63, 0
2, 34802, Note_on_c, 0, 63, 23
2, 34803, Note_on_c, 0, 57, 33
2, 34804, Note_on_c, 0, 77, 42
2, 34805, Note_on_c, 0, 65, 48
2, 34805, Note_on_c, 0, 72, 38
2, 34809, Control_c, 0, 64, 127
2, 34839, Note_on_c, 0, 65, 0
2, 34843, Note_on_c, 0, 57, 0
2, 34845, Note_on_c, 0, 77, 0
2, 34850, Note_on_c, 0, 72, 0
2, 34855, Note_on_c, 0, 63, 0
2, 34886, Note_on_c, 0, 79, 46
2, 34887, Note_on_c, 0, 63, 28
2, 34887, Note_on_c, 0, 72, 50
2, 34887, Note_on_c, 0, 57, 42
2, 34888, Note_on_c, 0, 65, 29
2, 34889, Note_on_c, 0, 67, 44
2, 34896, Note_on_c, 0, 65, 0
2, 34906, Note_on_c, 0, 57, 0
2, 34906, Note_on_c, 0, 79, 0
2, 34907, Note_on_c, 0, 67, 0
2, 34909, Note_on_c, 0, 63, 0
2, 34914, Note_on_c, 0, 72, 0
2, 34920, Control_c, 0, 64, 0
2, 34926, Note_on_c, 0, 77, 34
2, 34927, Note_on_c, 0, 57, 27
2, 34928, Note_on_c, 0, 63, 23
2, 34930, Note_on_c, 0, 72, 26
2, 34933, Note_on_c, 0, 67, 22
2, 34936, Note_on_c, 0, 65, 20
2, 34949, Note_on_c, 0, 67, 0
2, 34953, Note_on_c, 0, 72, 0
2, 34954, Note_on_c, 0, 65, 0
2, 34955, Note_on_c, 0, 57, 0
2, 34956, Note_on_c, 0, 63, 0
2, 34963, Note_on_c, 0, 77, 0
2, 34989, Control_c, 0, 64, 127
2, 35009, Note_on_c, 0, 63, 31
2, 35025, Note_on_c, 0, 63, 0
2, 35033, Control_c, 0, 64, 0
2, 35048, Note_on_c, 0, 63, 47
2, 35049, Note_on_c, 0, 80, 62
2, 35049, Note_on_c, 0, 67, 63
2, 35049, Note_on_c, 0, 92, 68
2, 35050, Note_on_c, 0, 62, 57
2, 35050, Note_on_c, 0, 87, 62
2, 35052, Note_on_c, 0, 57, 52
2, 35070, Control_c, 0, 64, 127
2, 35092, Note_on_c, 0, 57, 0
2, 35092, Note_on_c, 0, 87, 0
2, 35093, Note_on_c, 0, 62, 0
2, 35096, Note_on_c, 0, 67, 0
2, 35099, Note_on_c, 0, 63, 0
2, 35100, Note_on_c, 0, 80, 0
2, 35101, Note_on_c, 0, 92, 0
2, 35127, Note_on_c, 0, 63, 40
2, 35128, Note_on_c, 0, 67, 60
2, 35129, Note_on_c, 0, 93, 68
2, 35129, Note_on_c, 0, 87, 63
2, 35129, Note_on_c, 0, 62, 54
2, 35131, Note_on_c, 0, 81, 50
2, 35132, Note_on_c, 0, 57, 39
2, 35141, Note_on_c, 0, 57, 0
2, 35143, Note_on_c, 0, 67, 0
2, 35143, Note_on_c, 0, 93, 0
2, 35145, Note_on_c, 0, 62, 0
2, 35147, Note_on_c, 0, 87, 0
2, 35147, Note_on_c, 0, 81, 0
2, 35149, Note_on_c, 0, 63, 0
2, 35162, Control_c, 0, 64, 0
2, 35168, Note_on_c, 0, 67, 43
2, 35168, Note_on_c, 0, 63, 38
2, 35170, Note_on_c, 0, 89, 55
2, 35171, Note_on_c, 0, 62, 33
2, 35171, Note_on_c, 0, 57, 43
2, 35174, Note_on_c, 0, 77, 29
2, 35188, Note_on_c, 0, 77, 0
2, 35188, Note_on_c, 0, 89, 0
2, 35190, Note_on_c, 0, 62, 0
2, 35190, Note_on_c, 0, 67, 0
2, 35193, Note_on_c, 0, 57, 0
2, 35195, Note_on_c, 0, 63, 0
2, 35209, Note_on_c, 0, 67, 27
2, 35210, Note_on_c, 0, 63, 28
2, 35211, Note_on_c, 0, 74, 46
2, 35216, Note_on_c, 0, 74, 0
2, 35218, Note_on_c, 0, 86, 14
2, 35219, Note_on_c, 0, 67, 0
2, 35223, Note_on_c, 0, 86, 0
2, 35225, Note_on_c, 0, 63, 0
2, 35243, Note_on_c, 0, 63, 41
2, 35245, Note_on_c, 0, 67, 50
2, 35246, Note_on_c, 0, 89, 69
2, 35246, Note_on_c, 0, 77, 58
2, 35246, Note_on_c, 0, 62, 39
2, 35246, Note_on_c, 0, 57, 53
2, 35250, Note_on_c, 0, 84, 41
2, 35259, Note_on_c, 0, 84, 0
2, 35285, Control_c, 0, 64, 127
2, 35295, Note_on_c, 0, 77, 0
2, 35295, Note_on_c, 0, 57, 0
2, 35296, Note_on_c, 0, 89, 0
2, 35296, Note_on_c, 0, 62, 0
2, 35297, Note_on_c, 0, 67, 0
2, 35302, Note_on_c, 0, 63, 0
2, 35327, Note_on_c, 0, 91, 57
2, 35327, Note_on_c, 0, 67, 56
2, 35328, Note_on_c, 0, 63, 31
2, 35329, Note_on_c, 0, 62, 48
2, 35329, Note_on_c, 0, 79, 55
2, 35329, Note_on_c, 0, 84, 51
2, 35329, Note_on_c, 0, 57, 53
2, 35371, Note_on_c, 0, 57, 0
2, 35371, Note_on_c, 0, 62, 0
2, 35372, Note_on_c, 0, 91, 0
2, 35373, Note_on_c, 0, 67, 0
2, 35376, Note_on_c, 0, 84, 0
2, 35378, Note_on_c, 0, 63, 0
2, 35380, Note_on_c, 0, 79, 0
2, 35398, Control_c, 0, 64, 0
2, 35405, Note_on_c, 0, 89, 50
2, 35405, Note_on_c, 0, 67, 51
2, 35406, Note_on_c, 0, 63, 26
2, 35408, Note_on_c, 0, 62, 49
2, 35408, Note_on_c, 0, 57, 42
2, 35409, Note_on_c, 0, 84, 38
2, 35410, Note_on_c, 0, 77, 25
2, 35426, Control_c, 0, 64, 127
2, 35433, Note_on_c, 0, 77, 0
2, 35441, Note_on_c, 0, 89, 0
2, 35443, Note_on_c, 0, 84, 0
2, 35444, Note_on_c, 0, 67, 0
2, 35447, Note_on_c, 0, 62, 0
2, 35449, Note_on_c, 0, 63, 0
2, 35452, Note_on_c, 0, 57, 0
2, 35489, Note_on_c, 0, 86, 48
2, 35497, Note_on_c, 0, 86, 0
2, 35517, Control_c, 0, 64, 0
2, 35524, Note_on_c, 0, 56, 43
2, 35525, Note_on_c, 0, 65, 50
2, 35526, Note_on_c, 0, 91, 56
2, 35526, Note_on_c, 0, 62, 31
2, 35529, Note_on_c, 0, 79, 36
2, 35531, Note_on_c, 0, 86, 36
2, 35553, Note_on_c, 0, 86, 0
2, 35554, Note_on_c, 0, 91, 0
2, 35556, Note_on_c, 0, 79, 0
2, 35560, Note_on_c, 0, 65, 0
2, 35566, Note_on_c, 0, 56, 0
2, 35567, Note_on_c, 0, 62, 0
2, 35611, Note_on_c, 0, 77, 35
2, 35612, Note_on_c, 0, 89, 41
2, 35613, Note_on_c, 0, 65, 40
2, 35614, Note_on_c, 0, 56, 29
2, 35616, Note_on_c, 0, 62, 28
2, 35629, Note_on_c, 0, 65, 0
2, 35629, Note_on_c, 0, 77, 0
2, 35632, Note_on_c, 0, 89, 0
2, 35634, Note_on_c, 0, 62, 0
2, 35634, Note_on_c, 0, 56, 0
2, 35655, Note_on_c, 0, 79, 48
2, 35656, Note_on_c, 0, 56, 32
2, 35656, Note_on_c, 0, 91, 45
2, 35658, Note_on_c, 0, 65, 22
2, 35659, Note_on_c, 0, 62, 29
2, 35671, Note_on_c, 0, 65, 0
2, 35672, Note_on_c, 0, 91, 0
2, 35673, Note_on_c, 0, 79, 0
2, 35676, Note_on_c, 0, 62, 0
2, 35679, Note_on_c, 0, 56, 0
2, 35731, Note_on_c, 0, 56, 35
2, 35732, Note_on_c, 0, 77, 35
2, 35732, Note_on_c, 0, 62, 27
2, 35732, Note_on_c, 0, 65, 34
2, 35733, Note_on_c, 0, 89, 43
2, 35746, Note_on_c, 0, 65, 0
2, 35748, Note_on_c, 0, 77, 0
2, 35749, Note_on_c, 0, 56, 0
2, 35750, Note_on_c, 0, 89, 0
2, 35751, Note_on_c, 0, 62, 0
2, 35775, Note_on_c, 0, 91, 41
2, 35775, Note_on_c, 0, 79, 40
2, 35776, Note_on_c, 0, 56, 27
2, 35777, Note_on_c, 0, 65, 25
2, 35778, Note_on_c, 0, 62, 19
2, 35791, Note_on_c, 0, 65, 0
2, 35793, Note_on_c, 0, 91, 0
2, 35795, Note_on_c, 0, 62, 0
2, 35796, Note_on_c, 0, 56, 0
2, 35797, Note_on_c, 0, 79, 0
2, 35846, Note_on_c, 0, 56, 30
2, 35847, Note_on_c, 0, 89, 52
2, 35848, Note_on_c, 0, 65, 33
2, 35849, Note_on_c, 0, 62, 23
2, 35849, Note_on_c, 0, 77, 30
2, 35888, Control_c, 0, 64, 127
2, 35898, Note_on_c, 0, 89, 0
2, 35910, Note_on_c, 0, 62, 0
2, 35913, Note_on_c, 0, 77, 0
2, 35922, Note_on_c, 0, 56, 0
2, 35923, Note_on_c, 0, 65, 0
2, 35984, Note_on_c, 0, 63, 35
2, 36001, Note_on_c, 0, 63, 0
2, 36007, Note_on_c, 0, 71, 52
2, 36008, Control_c, 0, 64, 0
2, 36009, Note_on_c, 0, 80, 48
2, 36009, Note_on_c, 0, 65, 63
2, 36009, Note_on_c, 0, 74, 46
2, 36012, Note_on_c, 0, 77, 36
2, 36019, Note_on_c, 0, 77, 0
2, 36024, Note_on_c, 0, 74, 0
2, 36025, Note_on_c, 0, 80, 0
2, 36029, Note_on_c, 0, 65, 0
2, 36035, Note_on_c, 0, 71, 0
2, 36046, Note_on_c, 0, 63, 34
2, 36065, Note_on_c, 0, 63, 0
2, 36065, Note_on_c, 0, 77, 36
2, 36066, Note_on_c, 0, 71, 41
2, 36067, Note_on_c, 0, 68, 45
2, 36070, Note_on_c, 0, 62, 50
2, 36070, Note_on_c, 0, 74, 27
2, 36088, Note_on_c, 0, 74, 0
2, 36089, Note_on_c, 0, 71, 0
2, 36091, Note_on_c, 0, 77, 0
2, 36101, Note_on_c, 0, 68, 0
2, 36112, Note_on_c, 0, 62, 0
2, 36114, Note_on_c, 0, 61, 25
2, 36128, Note_on_c, 0, 61, 0
2, 36137, Note_on_c, 0, 68, 41
2, 36137, Note_on_c, 0, 74, 42
2, 36141, Note_on_c, 0, 65, 41
2, 36159, Note_on_c, 0, 68, 0
2, 36160, Note_on_c, 0, 74, 0
2, 36164, Note_on_c, 0, 65, 0
2, 36237, Note_on_c, 0, 71, 52
2, 36240, Note_on_c, 0, 62, 44
2, 36243, Note_on_c, 0, 59, 38
2, 36243, Note_on_c, 0, 65, 31
2, 36246, Note_on_c, 0, 62, 0
2, 36249, Note_on_c, 0, 71, 0
2, 36249, Note_on_c, 0, 59, 0
2, 36249, Note_on_c, 0, 65, 0
2, 36279, Note_on_c, 0, 56, 50
2, 36281, Note_on_c, 0, 62, 53
2, 36283, Note_on_c, 0, 59, 36
2, 36288, Note_on_c, 0, 65, 39
2, 36302, Control_c, 0, 64, 127
2, 36306, Note_on_c, 0, 65, 0
2, 36309, Note_on_c, 0, 62, 0
2, 36322, Note_on_c, 0, 56, 0
2, 36326, Note_on_c, 0, 59, 0
2, 36356, Note_on_c, 0, 56, 42
2, 36356, Note_on_c, 0, 65, 41
2, 36358, Note_on_c, 0, 53, 45
2, 36358, Control_c, 0, 64, 0
2, 36360, Note_on_c, 0, 59, 29
2, 36382, Note_on_c, 0, 59, 0
2, 36384, Note_on_c, 0, 65, 0
2, 36387, Note_on_c, 0, 62, 41
2, 36393, Note_on_c, 0, 53, 0
2, 36395, Note_on_c, 0, 50, 37
2, 36401, Note_on_c, 0, 56, 0
2, 36404, Note_on_c, 0, 50, 0
2, 36410, Note_on_c, 0, 62, 0
2, 36427, Control_c, 0, 64, 127
2, 36442, Control_c, 0, 64, 0
2, 36452, Note_on_c, 0, 65, 64
2, 36452, Note_on_c, 0, 57, 66
2, 36452, Note_on_c, 0, 62, 54
2, 36454, Note_on_c, 0, 60, 70
2, 36456, Note_on_c, 0, 53, 61
2, 36500, Control_c, 0, 64, 127
2, 36504, Note_on_c, 0, 57, 0
2, 36506, Note_on_c, 0, 62, 0
2, 36509, Note_on_c, 0, 60, 0
2, 36510, Note_on_c, 0, 65, 0
2, 36538, Note_on_c, 0, 53, 0
2, 36567, Note_on_c, 0, 69, 69
2, 36567, Note_on_c, 0, 53, 59
2, 36569, Note_on_c, 0, 62, 71
2, 36570, Note_on_c, 0, 60, 72
2, 36571, Note_on_c, 0, 65, 49
2, 36577, Note_on_c, 0, 65, 0
2, 36587, Note_on_c, 0, 62, 0
2, 36587, Note_on_c, 0, 69, 0
2, 36592, Note_on_c, 0, 60, 0
2, 36597, Note_on_c, 0, 53, 0
2, 36610, Control_c, 0, 64, 0
2, 36612, Note_on_c, 0, 65, 57
2, 36612, Note_on_c, 0, 53, 46
2, 36615, Note_on_c, 0, 60, 48
2, 36616, Note_on_c, 0, 57, 52
2, 36617, Note_on_c, 0, 62, 32
2, 36652, Note_on_c, 0, 65, 0
2, 36655, Note_on_c, 0, 57, 0
2, 36657, Note_on_c, 0, 53, 0
2, 36661, Note_on_c, 0, 62, 0
2, 36663, Note_on_c, 0, 60, 0
2, 36677, Control_c, 0, 64, 127
2, 36693, Note_on_c, 0, 53, 26
2, 36709, Note_on_c, 0, 53, 0
2, 36719, Control_c, 0, 64, 0
2, 36727, Note_on_c, 0, 67, 60
2, 36728, Note_on_c, 0, 56, 60
2, 36729, Note_on_c, 0, 60, 68
2, 36730, Note_on_c, 0, 46, 50
2, 36731, Note_on_c, 0, 62, 49
2, 36731, Note_on_c, 0, 55, 50
2, 36773, Control_c, 0, 64, 127
2, 36791, Note_on_c, 0, 67, 0
2, 36796, Note_on_c, 0, 55, 0
2, 36797, Note_on_c, 0, 46, 0
2, 36801, Note_on_c, 0, 62, 0
2, 36812, Note_on_c, 0, 46, 45
2, 36812, Note_on_c, 0, 65, 66
2, 36813, Note_on_c, 0, 55, 46
2, 36836, Note_on_c, 0, 60, 0
2, 36842, Note_on_c, 0, 56, 0
2, 36844, Note_on_c, 0, 55, 0
2, 36846, Note_on_c, 0, 65, 0
2, 36848, Note_on_c, 0, 46, 0
2, 36858, Control_c, 0, 64, 0
2, 36859, Note_on_c, 0, 46, 32
2, 36860, Note_on_c, 0, 62, 37
2, 36866, Note_on_c, 0, 56, 20
2, 36892, Note_on_c, 0, 46, 0
2, 36893, Note_on_c, 0, 62, 0
2, 36894, Note_on_c, 0, 56, 0
2, 36933, Control_c, 0, 64, 127
2, 36933, Note_on_c, 0, 62, 39
2, 36934, Note_on_c, 0, 65, 34
2, 36935, Note_on_c, 0, 56, 39
2, 36935, Note_on_c, 0, 46, 38
2, 36957, Note_on_c, 0, 65, 0
2, 36961, Note_on_c, 0, 56, 0
2, 36964, Note_on_c, 0, 46, 0
2, 36967, Note_on_c, 0, 62, 0
2, 36974, Control_c, 0, 64, 0
2, 36981, Note_on_c, 0, 45, 40
2, 36981, Note_on_c, 0, 60, 44
2, 36983, Note_on_c, 0, 55, 38
2, 37002, Control_c, 0, 64, 127
2, 37019, Note_on_c, 0, 60, 0
2, 37023, Note_on_c, 0, 45, 0
2, 37037, Note_on_c, 0, 55, 0
2, 37062, Note_on_c, 0, 40, 41
2, 37067, Note_on_c, 0, 40, 0
2, 37085, Control_c, 0, 64, 0
2, 37094, Note_on_c, 0, 61, 44
2, 37095, Note_on_c, 0, 56, 40
2, 37096, Note_on_c, 0, 58, 41
2, 37096, Note_on_c, 0, 39, 44
2, 37098, Note_on_c, 0, 54, 23
2, 37099, Note_on_c, 0, 27, 44
2, 37125, Control_c, 0, 64, 127
2, 37143, Note_on_c, 0, 54, 0
2, 37146, Note_on_c, 0, 39, 0
2, 37147, Note_on_c, 0, 27, 0
2, 37151, Note_on_c, 0, 58, 0
2, 37152, Note_on_c, 0, 56, 0
2, 37163, Note_on_c, 0, 61, 0
2, 37167, Note_on_c, 0, 38, 49
2, 37167, Note_on_c, 0, 26, 47
2, 37168, Note_on_c, 0, 54, 31
2, 37170, Note_on_c, 0, 62, 49
2, 37171, Note_on_c, 0, 60, 51
2, 37173, Note_on_c, 0, 57, 52
2, 37173, Control_c, 0, 64, 0
2, 37204, Control_c, 0, 64, 127
2, 37205, Note_on_c, 0, 26, 0
2, 37208, Note_on_c, 0, 54, 0
2, 37212, Note_on_c, 0, 57, 0
2, 37218, Note_on_c, 0, 38, 0
2, 37219, Note_on_c, 0, 60, 0
2, 37228, Note_on_c, 0, 62, 0
2, 37323, Control_c, 0, 64, 0
2, 37326, Note_on_c, 0, 65, 42
2, 37326, Note_on_c, 0, 91, 57
2, 37327, Note_on_c, 0, 58, 34
2, 37328, Note_on_c, 0, 54, 28
2, 37328, Note_on_c, 0, 90, 32
2, 37329, Note_on_c, 0, 79, 27
2, 37331, Note_on_c, 0, 85, 20
2, 37336, Note_on_c, 0, 85, 0
2, 37343, Note_on_c, 0, 65, 0
2, 37345, Note_on_c, 0, 90, 0
2, 37350, Note_on_c, 0, 91, 0
2, 37350, Control_c, 0, 64, 127
2, 37353, Note_on_c, 0, 79, 0
2, 37363, Note_on_c, 0, 54, 0
2, 37368, Note_on_c, 0, 58, 0
2, 37398, Note_on_c, 0, 53, 47
2, 37399, Control_c, 0, 64, 0
2, 37401, Note_on_c, 0, 64, 45
2, 37401, Note_on_c, 0, 89, 62
2, 37401, Note_on_c, 0, 59, 46
2, 37402, Note_on_c, 0, 77, 44
2, 37404, Note_on_c, 0, 84, 48
2, 37443, Control_c, 0, 64, 127
2, 37514, Note_on_c, 0, 59, 0
2, 37521, Note_on_c, 0, 64, 0
2, 37522, Note_on_c, 0, 77, 0
2, 37522, Note_on_c, 0, 53, 0
2, 37526, Note_on_c, 0, 84, 0
2, 37540, Note_on_c, 0, 89, 0
2, 37549, Control_c, 0, 64, 0
2, 37552, Note_on_c, 0, 53, 31
2, 37554, Note_on_c, 0, 59, 36
2, 37554, Note_on_c, 0, 64, 29
2, 37556, Note_on_c, 0, 77, 22
2, 37557, Note_on_c, 0, 86, 31
2, 37579, Note_on_c, 0, 77, 0
2, 37584, Note_on_c, 0, 64, 0
2, 37584, Note_on_c, 0, 59, 0
2, 37588, Note_on_c, 0, 86, 0
2, 37600, Note_on_c, 0, 53, 0
2, 37606, Control_c, 0, 64, 127
2, 37661, Control_c, 0, 64, 0
2, 37674, Note_on_c, 0, 62, 48
2, 37675, Note_on_c, 0, 52, 41
2, 37676, Note_on_c, 0, 58, 32
2, 37732, Note_on_c, 0, 62, 0
2, 37751, Note_on_c, 0, 62, 44
2, 37752, Note_on_c, 0, 94, 85
2, 37754, Note_on_c, 0, 101, 78
2, 37776, Note_on_c, 0, 95, 42
2, 37781, Note_on_c, 0, 94, 0
2, 37789, Note_on_c, 0, 95, 0
2, 37793, Note_on_c, 0, 101, 0
2, 37814, Note_on_c, 0, 101, 61
2, 37814, Note_on_c, 0, 94, 73
2, 37836, Note_on_c, 0, 52, 0
2, 37842, Note_on_c, 0, 94, 0
2, 37845, Note_on_c, 0, 58, 0
2, 37846, Note_on_c, 0, 101, 0
2, 37855, Note_on_c, 0, 62, 0
2, 37874, Control_c, 0, 64, 127
2, 37880, Note_on_c, 0, 92, 72
2, 37906, Note_on_c, 0, 92, 0
2, 37920, Control_c, 0, 64, 0
2, 37923, Note_on_c, 0, 55, 32
2, 37925, Note_on_c, 0, 60, 29
2, 37928, Note_on_c, 0, 96, 77
2, 37928, Note_on_c, 0, 65, 8
2, 37953, Note_on_c, 0, 96, 0
2, 37963, Note_on_c, 0, 94, 64
2, 37984, Note_on_c, 0, 94, 0
2, 37991, Note_on_c, 0, 89, 64
2, 38013, Note_on_c, 0, 89, 0
2, 38022, Note_on_c, 0, 85, 53
2, 38041, Note_on_c, 0, 85, 0
2, 38048, Note_on_c, 0, 61, 1
2, 38050, Note_on_c, 0, 84, 26
2, 38068, Note_on_c, 0, 84, 0
2, 38079, Note_on_c, 0, 82, 52
2, 38098, Note_on_c, 0, 65, 0
2, 38103, Note_on_c, 0, 82, 0
2, 38111, Note_on_c, 0, 81, 28
2, 38115, Note_on_c, 0, 60, 0
2, 38127, Note_on_c, 0, 81, 0
2, 38130, Note_on_c, 0, 55, 0
2, 38131, Note_on_c, 0, 61, 0
2, 38131, Control_c, 0, 64, 127
2, 38136, Note_on_c, 0, 79, 33
2, 38153, Note_on_c, 0, 79, 0
2, 38153, Control_c, 0, 64, 0
2, 38163, Note_on_c, 0, 64, 29
2, 38166, Note_on_c, 0, 54, 23
2, 38166, Note_on_c, 0, 86, 61
2, 38167, Note_on_c, 0, 60, 29
2, 38184, Note_on_c, 0, 86, 0
2, 38199, Note_on_c, 0, 78, 50
2, 38254, Note_on_c, 0, 60, 0
2, 38254, Control_c, 0, 64, 127
2, 38257, Note_on_c, 0, 64, 0
2, 38280, Note_on_c, 0, 78, 0
2, 38285, Control_c, 0, 64, 0
2, 38286, Note_on_c, 0, 74, 38
2, 38289, Note_on_c, 0, 60, 27
2, 38289, Note_on_c, 0, 64, 25
2, 38313, Note_on_c, 0, 74, 0
2, 38315, Note_on_c, 0, 54, 0
2, 38334, Note_on_c, 0, 64, 0
2, 38346, Control_c, 0, 64, 127
2, 38365, Note_on_c, 0, 60, 0
2, 38365, Note_on_c, 0, 54, 40
2, 38391, Note_on_c, 0, 54, 0
2, 38406, Control_c, 0, 64, 0
2, 38407, Note_on_c, 0, 67, 71
2, 38409, Note_on_c, 0, 59, 45
2, 38410, Note_on_c, 0, 53, 30
2, 38411, Note_on_c, 0, 74, 33
2, 38412, Note_on_c, 0, 64, 15
2, 38417, Note_on_c, 0, 64, 0
2, 38426, Note_on_c, 0, 68, 20
2, 38427, Note_on_c, 0, 67, 0
2, 38443, Note_on_c, 0, 59, 0
2, 38449, Note_on_c, 0, 69, 14
2, 38458, Note_on_c, 0, 68, 0
2, 38461, Note_on_c, 0, 74, 0
2, 38467, Note_on_c, 0, 69, 0
2, 38470, Note_on_c, 0, 67, 27
2, 38494, Note_on_c, 0, 67, 0
2, 38495, Note_on_c, 0, 65, 55
2, 38498, Control_c, 0, 64, 127
2, 38506, Note_on_c, 0, 59, 31
2, 38510, Note_on_c, 0, 65, 0
2, 38515, Control_c, 0, 64, 0
2, 38523, Note_on_c, 0, 74, 65
2, 38524, Note_on_c, 0, 67, 68
2, 38553, Note_on_c, 0, 59, 0
2, 38554, Note_on_c, 0, 74, 0
2, 38571, Note_on_c, 0, 62, 55
2, 38572, Note_on_c, 0, 67, 0
2, 38584, Note_on_c, 0, 53, 0
2, 38586, Note_on_c, 0, 62, 0
2, 38602, Note_on_c, 0, 65, 79
2, 38634, Note_on_c, 0, 67, 66
2, 38639, Note_on_c, 0, 58, 27
2, 38640, Note_on_c, 0, 52, 25
2, 38641, Note_on_c, 0, 65, 0
2, 38654, Note_on_c, 0, 58, 0
2, 38662, Note_on_c, 0, 52, 0
2, 38666, Note_on_c, 0, 67, 0
2, 38669, Note_on_c, 0, 65, 52
2, 38686, Note_on_c, 0, 65, 0
2, 38732, Note_on_c, 0, 59, 69
2, 38733, Note_on_c, 0, 65, 66
2, 38735, Note_on_c, 0, 48, 40
2, 38737, Note_on_c, 0, 47, 31
2, 38744, Note_on_c, 0, 47, 0
2, 38752, Note_on_c, 0, 59, 0
2, 38760, Note_on_c, 0, 65, 0
2, 38780, Note_on_c, 0, 65, 38
2, 38781, Note_on_c, 0, 58, 46
2, 38800, Note_on_c, 0, 65, 0
2, 38805, Note_on_c, 0, 58, 0
2, 38832, Note_on_c, 0, 48, 0
2, 38848, Note_on_c, 0, 56, 41
2, 38849, Note_on_c, 0, 46, 34
2, 38875, Note_on_c, 0, 56, 0
2, 38880, Note_on_c, 0, 46, 0
2, 38891, Note_on_c, 0, 45, 40
2, 38935, Note_on_c, 0, 60, 69
2, 38937, Note_on_c, 0, 33, 46
2, 38956, Note_on_c, 0, 33, 0
2, 38962, Note_on_c, 0, 60, 0
2, 38967, Note_on_c, 0, 45, 0
2, 38970, Note_on_c, 0, 61, 67
2, 38978, Control_c, 0, 64, 127
2, 38990, Note_on_c, 0, 61, 0
2, 39011, Note_on_c, 0, 65, 55
2, 39028, Note_on_c, 0, 65, 0
2, 39051, Note_on_c, 0, 69, 66
2, 39056, Note_on_c, 0, 60, 30
2, 39056, Note_on_c, 0, 55, 33
2, 39064, Note_on_c, 0, 55, 0
2, 39064, Note_on_c, 0, 60, 0
2, 39068, Note_on_c, 0, 69, 0
2, 39075, Control_c, 0, 64, 0
2, 39088, Note_on_c, 0, 55, 42
2, 39089, Note_on_c, 0, 70, 72
2, 39089, Note_on_c, 0, 60, 42
2, 39089, Note_on_c, 0, 65, 53
2, 39090, Note_on_c, 0, 61, 40
2, 39104, Note_on_c, 0, 65, 0
2, 39108, Control_c, 0, 64, 127
2, 39110, Note_on_c, 0, 55, 0
2, 39113, Note_on_c, 0, 60, 0
2, 39114, Note_on_c, 0, 70, 0
2, 39119, Note_on_c, 0, 61, 0
2, 39129, Note_on_c, 0, 72, 59
2, 39129, Note_on_c, 0, 64, 52
2, 39134, Note_on_c, 0, 60, 35
2, 39134, Note_on_c, 0, 54, 27
2, 39147, Control_c, 0, 64, 0
2, 39151, Note_on_c, 0, 64, 0
2, 39154, Note_on_c, 0, 54, 0
2, 39155, Note_on_c, 0, 60, 0
2, 39157, Note_on_c, 0, 72, 0
2, 39169, Note_on_c, 0, 73, 68
2, 39170, Note_on_c, 0, 54, 66
2, 39171, Note_on_c, 0, 64, 46
2, 39171, Note_on_c, 0, 60, 55
2, 39175, Control_c, 0, 64, 127
2, 39188, Note_on_c, 0, 64, 0
2, 39192, Note_on_c, 0, 60, 0
2, 39193, Note_on_c, 0, 54, 0
2, 39194, Note_on_c, 0, 73, 0
2, 39205, Note_on_c, 0, 54, 41
2, 39206, Note_on_c, 0, 64, 48
2, 39206, Note_on_c, 0, 74, 65
2, 39208, Note_on_c, 0, 60, 67
2, 39225, Note_on_c, 0, 64, 0
2, 39227, Note_on_c, 0, 60, 0
2, 39230, Note_on_c, 0, 54, 0
2, 39236, Note_on_c, 0, 74, 0
2, 39242, Note_on_c, 0, 54, 54
2, 39245, Note_on_c, 0, 77, 68
2, 39245, Note_on_c, 0, 64, 43
2, 39245, Note_on_c, 0, 60, 52
2, 39258, Note_on_c, 0, 64, 0
2, 39259, Note_on_c, 0, 60, 0
2, 39264, Note_on_c, 0, 54, 0
2, 39270, Note_on_c, 0, 77, 0
2, 39281, Note_on_c, 0, 54, 54
2, 39285, Note_on_c, 0, 79, 49
2, 39285, Note_on_c, 0, 60, 34
2, 39292, Note_on_c, 0, 60, 0
2, 39297, Note_on_c, 0, 54, 0
2, 39298, Note_on_c, 0, 79, 0
2, 39320, Note_on_c, 0, 80, 69
2, 39320, Note_on_c, 0, 68, 78
2, 39321, Note_on_c, 0, 54, 69
2, 39324, Note_on_c, 0, 64, 59
2, 39325, Note_on_c, 0, 60, 58
2, 39328, Note_on_c, 0, 58, 33
2, 39333, Note_on_c, 0, 64, 0
2, 39337, Note_on_c, 0, 60, 0
2, 39337, Note_on_c, 0, 68, 0
2, 39343, Note_on_c, 0, 80, 0
2, 39346, Note_on_c, 0, 58, 0
2, 39346, Note_on_c, 0, 54, 0
2, 39362, Note_on_c, 0, 68, 82
2, 39362, Control_c, 0, 64, 0
2, 39363, Note_on_c, 0, 53, 73
2, 39363, Note_on_c, 0, 80, 55
2, 39364, Note_on_c, 0, 59, 65
2, 39365, Note_on_c, 0, 64, 61
2, 39366, Note_on_c, 0, 74, 55
2, 39368, Note_on_c, 0, 77, 39
2, 39369, Note_on_c, 0, 81, 49
2, 39369, Note_on_c, 0, 62, 45
2, 39373, Note_on_c, 0, 79, 27
2, 39375, Note_on_c, 0, 62, 0
2, 39379, Note_on_c, 0, 68, 0
2, 39380, Note_on_c, 0, 69, 59
2, 39387, Note_on_c, 0, 80, 0
2, 39412, Control_c, 0, 64, 127
2, 39433, Note_on_c, 0, 81, 0
2, 39433, Note_on_c, 0, 74, 0
2, 39433, Note_on_c, 0, 77, 0
2, 39435, Note_on_c, 0, 64, 0
2, 39438, Note_on_c, 0, 79, 0
2, 39438, Note_on_c, 0, 69, 0
2, 39446, Note_on_c, 0, 53, 0
2, 39448, Note_on_c, 0, 59, 0
2, 39486, Note_on_c, 0, 59, 48
2, 39486, Control_c, 0, 64, 0
2, 39487, Note_on_c, 0, 53, 52
2, 39489, Note_on_c, 0, 74, 52
2, 39490, Note_on_c, 0, 77, 52
2, 39491, Note_on_c, 0, 65, 66
2, 39518, Control_c, 0, 64, 127
2, 39535, Note_on_c, 0, 65, 0
2, 39537, Note_on_c, 0, 59, 0
2, 39540, Note_on_c, 0, 74, 0
2, 39544, Note_on_c, 0, 77, 0
2, 39547, Note_on_c, 0, 53, 0
2, 39607, Note_on_c, 0, 58, 56
2, 39607, Control_c, 0, 64, 0
2, 39609, Note_on_c, 0, 79, 67
2, 39609, Note_on_c, 0, 52, 56
2, 39609, Note_on_c, 0, 67, 75
2, 39609, Note_on_c, 0, 62, 52
2, 39614, Note_on_c, 0, 62, 0
2, 39621, Note_on_c, 0, 58, 0
2, 39621, Note_on_c, 0, 67, 0
2, 39623, Note_on_c, 0, 79, 0
2, 39626, Note_on_c, 0, 52, 0
2, 39662, Control_c, 0, 64, 127
2, 39692, Note_on_c, 0, 47, 29
2, 39701, Note_on_c, 0, 47, 0
2, 39730, Control_c, 0, 64, 0
2, 39731, Note_on_c, 0, 58, 67
2, 39733, Note_on_c, 0, 66, 21
2, 39734, Note_on_c, 0, 65, 63
2, 39734, Note_on_c, 0, 53, 46
2, 39735, Note_on_c, 0, 61, 37
2, 39739, Note_on_c, 0, 66, 0
2, 39742, Note_on_c, 0, 53, 0
2, 39754, Note_on_c, 0, 58, 0
2, 39755, Note_on_c, 0, 61, 0
2, 39758, Note_on_c, 0, 65, 0
2, 39760, Control_c, 0, 64, 127
2, 39794, Control_c, 0, 64, 0
2, 39802, Note_on_c, 0, 29, 56
2, 39804, Note_on_c, 0, 65, 79
2, 39805, Note_on_c, 0, 60, 90
2, 39805, Note_on_c, 0, 41, 77
2, 39805, Note_on_c, 0, 62, 79
2, 39805, Note_on_c, 0, 57, 86
2, 39850, Note_on_c, 0, 57, 0
2, 39852, Note_on_c, 0, 60, 0
2, 39855, Note_on_c, 0, 62, 0
2, 39856, Note_on_c, 0, 65, 0
2, 39863, Note_on_c, 0, 41, 0
2, 39864, Note_on_c, 0, 29, 0
2, 40030, Note_on_c, 0, 29, 75
2, 40033, Note_on_c, 0, 101, 85
2, 40079, Note_on_c, 0, 101, 0
2, 40086, Note_on_c, 0, 29, 0
2, 40086, End_track
3, 0, Start_track
3, 0, MIDI_port, 0
3, 0, Title_t, "Accoustic Bass"
3, 0, Program_c, 1, 32
3, 0, Control_c, 1, 7, 80
3, 0, Control_c, 1, 10, 64
3, 0, Control_c, 1, 91, 0
3, 0, Control_c, 1, 93, 0
3, 0, Note_on_c, 1, 40, 24
3, 0, Note_on_c, 1, 40, 0
3, 9, Note_on_c, 1, 41, 65
3, 179, Note_on_c, 1, 36, 54
3, 183, Note_on_c, 1, 41, 0
3, 187, Note_on_c, 1, 36, 0
3, 210, Note_on_c, 1, 33, 68
3, 245, Note_on_c, 1, 33, 0
3, 254, Note_on_c, 1, 34, 59
3, 458, Note_on_c, 1, 46, 90
3, 468, Note_on_c, 1, 34, 0
3, 485, Note_on_c, 1, 46, 0
3, 496, Note_on_c, 1, 45, 66
3, 509, Note_on_c, 1, 45, 0
3, 537, Note_on_c, 1, 39, 49
3, 558, Note_on_c, 1, 39, 0
3, 576, Note_on_c, 1, 36, 54
3, 605, Note_on_c, 1, 36, 0
3, 621, Note_on_c, 1, 37, 62
3, 775, Note_on_c, 1, 38, 74
3, 776, Note_on_c, 1, 37, 0
3, 813, Note_on_c, 1, 37, 50
3, 816, Note_on_c, 1, 38, 0
3, 821, Note_on_c, 1, 37, 0
3, 845, Note_on_c, 1, 54, 87
3, 921, Note_on_c, 1, 42, 54
3, 935, Note_on_c, 1, 42, 0
3, 941, Note_on_c, 1, 54, 0
3, 961, Note_on_c, 1, 43, 41
3, 1045, Note_on_c, 1, 57, 84
3, 1066, Note_on_c, 1, 43, 0
3, 1073, Note_on_c, 1, 57, 0
3, 1086, Note_on_c, 1, 55, 66
3, 1168, Note_on_c, 1, 47, 46
3, 1175, Note_on_c, 1, 55, 0
3, 1203, Note_on_c, 1, 47, 0
3, 1209, Note_on_c, 1, 48, 44
3, 1289, Note_on_c, 1, 62, 90
3, 1304, Note_on_c, 1, 48, 0
3, 1532, Note_on_c, 1, 62, 0
3, 1538, Note_on_c, 1, 60, 67
3, 1567, Note_on_c, 1, 60, 0
3, 1582, Note_on_c, 1, 57, 37
3, 1658, Note_on_c, 1, 57, 0
3, 1658, Note_on_c, 1, 47, 57
3, 1688, Note_on_c, 1, 47, 0
3, 1700, Note_on_c, 1, 48, 50
3, 1763, Note_on_c, 1, 48, 0
3, 1771, Note_on_c, 1, 42, 50
3, 1804, Note_on_c, 1, 42, 0
3, 1815, Note_on_c, 1, 43, 35
3, 1892, Note_on_c, 1, 43, 0
3, 1892, Note_on_c, 1, 40, 52
3, 1921, Note_on_c, 1, 40, 0
3, 1937, Note_on_c, 1, 41, 36
3, 1990, Note_on_c, 1, 41, 0
3, 2010, Note_on_c, 1, 36, 55
3, 2029, Note_on_c, 1, 36, 0
3, 2044, Note_on_c, 1, 33, 71
3, 2203, Note_on_c, 1, 33, 0
3, 2206, Note_on_c, 1, 36, 66
3, 2220, Note_on_c, 1, 36, 0
3, 2244, Note_on_c, 1, 33, 56
3, 2270, Note_on_c, 1, 33, 0
3, 2285, Note_on_c, 1, 34, 72
3, 2394, Note_on_c, 1, 34, 0
3, 2403, Note_on_c, 1, 33, 60
3, 2494, Note_on_c, 1, 34, 39
3, 2513, Note_on_c, 1, 33, 0
3, 2514, Note_on_c, 1, 34, 0
3, 2527, Note_on_c, 1, 45, 84
3, 2600, Note_on_c, 1, 45, 0
3, 2608, Note_on_c, 1, 37, 51
3, 2689, Note_on_c, 1, 38, 80
3, 2691, Note_on_c, 1, 37, 0
3, 2720, Note_on_c, 1, 51, 54
3, 2727, Note_on_c, 1, 51, 0
3, 2730, Note_on_c, 1, 52, 50
3, 2753, Note_on_c, 1, 52, 0
3, 2761, Note_on_c, 1, 38, 0
3, 2770, Note_on_c, 1, 53, 71
3, 2797, Note_on_c, 1, 53, 0
3, 2805, Note_on_c, 1, 54, 67
3, 2824, Note_on_c, 1, 54, 0
3, 2842, Note_on_c, 1, 42, 47
3, 2872, Note_on_c, 1, 42, 0
3, 2883, Note_on_c, 1, 43, 37
3, 3049, Note_on_c, 1, 50, 66
3, 3054, Note_on_c, 1, 50, 0
3, 3070, Note_on_c, 1, 43, 0
3, 3088, Note_on_c, 1, 38, 49
3, 3106, Note_on_c, 1, 38, 0
3, 3130, Note_on_c, 1, 34, 55
3, 3210, Note_on_c, 1, 35, 65
3, 3212, Note_on_c, 1, 34, 0
3, 3242, Note_on_c, 1, 35, 0
3, 3251, Note_on_c, 1, 38, 62
3, 3324, Note_on_c, 1, 37, 65
3, 3325, Note_on_c, 1, 38, 0
3, 3355, Note_on_c, 1, 37, 0
3, 3367, Note_on_c, 1, 36, 40
3, 3445, Note_on_c, 1, 34, 48
3, 3458, Note_on_c, 1, 36, 0
3, 3474, Note_on_c, 1, 34, 0
3, 3481, Note_on_c, 1, 50, 110
3, 3685, Note_on_c, 1, 42, 52
3, 3685, Note_on_c, 1, 42, 0
3, 3716, Note_on_c, 1, 50, 0
3, 3716, Note_on_c, 1, 49, 67
3, 3730, Note_on_c, 1, 49, 0
3, 3756, Note_on_c, 1, 43, 64
3, 3771, Note_on_c, 1, 43, 0
3, 3791, Note_on_c, 1, 40, 70
3, 3829, Note_on_c, 1, 40, 0
3, 3836, Note_on_c, 1, 41, 57
3, 4013, Note_on_c, 1, 34, 53
3, 4017, Note_on_c, 1, 41, 0
3, 4037, Note_on_c, 1, 34, 0
3, 4051, Note_on_c, 1, 35, 58
3, 4088, Note_on_c, 1, 35, 0
3, 4091, Note_on_c, 1, 36, 57
3, 4173, Note_on_c, 1, 27, 56
3, 4175, Note_on_c, 1, 36, 0
3, 4198, Note_on_c, 1, 27, 0
3, 4215, Note_on_c, 1, 28, 36
3, 4325, Note_on_c, 1, 28, 0
3, 4333, Note_on_c, 1, 29, 44
3, 4406, Note_on_c, 1, 29, 0
3, 4414, Note_on_c, 1, 27, 32
3, 4420, Note_on_c, 1, 29, 38
3, 4421, Note_on_c, 1, 27, 0
3, 4444, Note_on_c, 1, 29, 0
3, 4454, Note_on_c, 1, 43, 88
3, 4623, Note_on_c, 1, 41, 70
3, 4627, Note_on_c, 1, 43, 0
3, 4635, Note_on_c, 1, 41, 0
3, 4662, Note_on_c, 1, 36, 66
3, 4673, Note_on_c, 1, 36, 0
3, 4697, Note_on_c, 1, 33, 69
3, 4804, Note_on_c, 1, 33, 0
3, 4810, Note_on_c, 1, 34, 47
3, 4881, Note_on_c, 1, 34, 0
3, 4888, Note_on_c, 1, 34, 45
3, 4909, Note_on_c, 1, 34, 0
3, 4928, Note_on_c, 1, 43, 73
3, 5011, Note_on_c, 1, 36, 37
3, 5022, Note_on_c, 1, 36, 0
3, 5044, Note_on_c, 1, 43, 0
3, 5053, Note_on_c, 1, 41, 50
3, 5127, Note_on_c, 1, 33, 55
3, 5128, Note_on_c, 1, 41, 0
3, 5154, Note_on_c, 1, 33, 0
3, 5167, Note_on_c, 1, 34, 62
3, 5308, Note_on_c, 1, 34, 0
3, 5325, Note_on_c, 1, 33, 48
3, 5348, Note_on_c, 1, 33, 0
3, 5362, Note_on_c, 1, 34, 54
3, 5395, Note_on_c, 1, 34, 0
3, 5401, Note_on_c, 1, 35, 57
3, 5476, Note_on_c, 1, 35, 0
3, 5480, Note_on_c, 1, 38, 81
3, 5556, Note_on_c, 1, 44, 54
3, 5576, Note_on_c, 1, 44, 0
3, 5581, Note_on_c, 1, 38, 0
3, 5593, Note_on_c, 1, 47, 78
3, 5621, Note_on_c, 1, 47, 0
3, 5633, Note_on_c, 1, 50, 83
3, 5694, Note_on_c, 1, 50, 0
3, 5705, Note_on_c, 1, 49, 76
3, 5735, Note_on_c, 1, 49, 0
3, 5745, Note_on_c, 1, 48, 67
3, 5838, Note_on_c, 1, 38, 22
3, 5851, Note_on_c, 1, 38, 0
3, 5863, Note_on_c, 1, 48, 0
3, 5869, Note_on_c, 1, 47, 74
3, 5874, Note_on_c, 1, 48, 25
3, 5880, Note_on_c, 1, 48, 0
3, 5957, Note_on_c, 1, 38, 40
3, 5966, Note_on_c, 1, 38, 0
3, 5988, Note_on_c, 1, 47, 0
3, 5993, Note_on_c, 1, 46, 68
3, 6115, Note_on_c, 1, 46, 0
3, 6116, Note_on_c, 1, 34, 77
3, 6234, Note_on_c, 1, 34, 0
3, 6242, Note_on_c, 1, 33, 64
3, 6327, Note_on_c, 1, 34, 58
3, 6341, Note_on_c, 1, 33, 0
3, 6344, Note_on_c, 1, 34, 0
3, 6364, Note_on_c, 1, 45, 87
3, 6482, Note_on_c, 1, 45, 0
3, 6485, Note_on_c, 1, 44, 74
3, 6571, Note_on_c, 1, 37, 69
3, 6584, Note_on_c, 1, 44, 0
3, 6608, Note_on_c, 1, 37, 0
3, 6612, Note_on_c, 1, 38, 60
3, 6693, Note_on_c, 1, 42, 78
3, 6703, Note_on_c, 1, 38, 0
3, 6723, Note_on_c, 1, 42, 0
3, 6734, Note_on_c, 1, 43, 62
3, 6747, Note_on_c, 1, 43, 0
3, 6777, Note_on_c, 1, 38, 49
3, 6791, Note_on_c, 1, 38, 0
3, 6813, Note_on_c, 1, 32, 61
3, 6846, Note_on_c, 1, 32, 0
3, 6856, Note_on_c, 1, 31, 66
3, 6929, Note_on_c, 1, 31, 0
3, 6934, Note_on_c, 1, 35, 61
3, 6960, Note_on_c, 1, 35, 0
3, 6969, Note_on_c, 1, 36, 65
3, 7048, Note_on_c, 1, 34, 51
3, 7063, Note_on_c, 1, 36, 0
3, 7082, Note_on_c, 1, 34, 0
3, 7085, Note_on_c, 1, 43, 80
3, 7163, Note_on_c, 1, 36, 38
3, 7173, Note_on_c, 1, 36, 0
3, 7192, Note_on_c, 1, 43, 0
3, 7201, Note_on_c, 1, 41, 60
3, 7283, Note_on_c, 1, 35, 78
3, 7288, Note_on_c, 1, 41, 0
3, 7311, Note_on_c, 1, 35, 0
3, 7318, Note_on_c, 1, 36, 78
3, 7403, Note_on_c, 1, 35, 48
3, 7420, Note_on_c, 1, 36, 0
3, 7425, Note_on_c, 1, 35, 0
3, 7439, Note_on_c, 1, 50, 95
3, 7523, Note_on_c, 1, 40, 49
3, 7537, Note_on_c, 1, 40, 0
3, 7552, Note_on_c, 1, 50, 0
3, 7558, Note_on_c, 1, 48, 70
3, 7637, Note_on_c, 1, 40, 48
3, 7645, Note_on_c, 1, 40, 0
3, 7667, Note_on_c, 1, 48, 0
3, 7675, Note_on_c, 1, 45, 62
3, 7764, Note_on_c, 1, 40, 57
3, 7770, Note_on_c, 1, 40, 0
3, 7791, Note_on_c, 1, 45, 0
3, 7800, Note_on_c, 1, 41, 61
3, 7909, Note_on_c, 1, 41, 0
3, 7919, Note_on_c, 1, 34, 68
3, 8029, Note_on_c, 1, 34, 0
3, 8045, Note_on_c, 1, 34, 68
3, 8168, Note_on_c, 1, 34, 0
3, 8168, Note_on_c, 1, 33, 58
3, 8235, Note_on_c, 1, 33, 0
3, 8252, Note_on_c, 1, 34, 56
3, 8268, Note_on_c, 1, 34, 0
3, 8285, Note_on_c, 1, 39, 74
3, 8367, Note_on_c, 1, 39, 0
3, 8373, Note_on_c, 1, 37, 53
3, 8405, Note_on_c, 1, 37, 0
3, 8410, Note_on_c, 1, 38, 62
3, 8454, Note_on_c, 1, 38, 0
3, 8454, Note_on_c, 1, 50, 85
3, 8489, Note_on_c, 1, 37, 52
3, 8503, Note_on_c, 1, 37, 0
3, 8528, Note_on_c, 1, 50, 0
3, 8530, Note_on_c, 1, 45, 69
3, 8566, Note_on_c, 1, 37, 56
3, 8572, Note_on_c, 1, 45, 0
3, 8578, Note_on_c, 1, 37, 0
3, 8600, Note_on_c, 1, 42, 65
3, 8641, Note_on_c, 1, 42, 0
3, 8644, Note_on_c, 1, 43, 61
3, 8663, Note_on_c, 1, 43, 0
3, 8684, Note_on_c, 1, 38, 44
3, 8693, Note_on_c, 1, 38, 0
3, 8714, Note_on_c, 1, 32, 59
3, 8746, Note_on_c, 1, 32, 0
3, 8758, Note_on_c, 1, 31, 60
3, 8835, Note_on_c, 1, 31, 0
3, 8842, Note_on_c, 1, 35, 53
3, 8872, Note_on_c, 1, 35, 0
3, 8882, Note_on_c, 1, 36, 59
3, 8964, Note_on_c, 1, 39, 61
3, 8971, Note_on_c, 1, 36, 0
3, 8986, Note_on_c, 1, 39, 0
3, 9000, Note_on_c, 1, 40, 61
3, 9087, Note_on_c, 1, 39, 53
3, 9103, Note_on_c, 1, 40, 0
3, 9118, Note_on_c, 1, 39, 0
3, 9124, Note_on_c, 1, 41, 66
3, 9208, Note_on_c, 1, 39, 48
3, 9219, Note_on_c, 1, 41, 0
3, 9240, Note_on_c, 1, 39, 0
3, 9243, Note_on_c, 1, 47, 92
3, 9366, Note_on_c, 1, 47, 0
3, 9367, Note_on_c, 1, 48, 71
3, 9452, Note_on_c, 1, 39, 76
3, 9463, Note_on_c, 1, 48, 0
3, 9478, Note_on_c, 1, 39, 0
3, 9492, Note_on_c, 1, 40, 63
3, 9564, Note_on_c, 1, 40, 0
3, 9565, Note_on_c, 1, 50, 84
3, 9599, Note_on_c, 1, 50, 0
3, 9610, Note_on_c, 1, 48, 67
3, 9722, Note_on_c, 1, 48, 0
3, 9729, Note_on_c, 1, 47, 74
3, 9809, Note_on_c, 1, 41, 48
3, 9818, Note_on_c, 1, 41, 0
3, 9829, Note_on_c, 1, 47, 0
3, 9844, Note_on_c, 1, 46, 63
3, 9947, Note_on_c, 1, 46, 0
3, 9964, Note_on_c, 1, 46, 67
3, 10043, Note_on_c, 1, 39, 42
3, 10049, Note_on_c, 1, 39, 0
3, 10078, Note_on_c, 1, 46, 0
3, 10084, Note_on_c, 1, 45, 55
3, 10162, Note_on_c, 1, 45, 0
3, 10166, Note_on_c, 1, 39, 76
3, 10337, Note_on_c, 1, 39, 0
3, 10340, Note_on_c, 1, 38, 54
3, 10422, Note_on_c, 1, 50, 84
3, 10430, Note_on_c, 1, 38, 0
3, 10449, Note_on_c, 1, 50, 0
3, 10460, Note_on_c, 1, 45, 52
3, 10528, Note_on_c, 1, 45, 0
3, 10538, Note_on_c, 1, 32, 73
3, 10577, Note_on_c, 1, 32, 0
3, 10580, Note_on_c, 1, 31, 49
3, 10689, Note_on_c, 1, 31, 0
3, 10700, Note_on_c, 1, 33, 64
3, 10812, Note_on_c, 1, 33, 0
3, 10815, Note_on_c, 1, 34, 61
3, 10896, Note_on_c, 1, 34, 0
3, 10904, Note_on_c, 1, 34, 74
3, 10920, Note_on_c, 1, 34, 0
3, 10938, Note_on_c, 1, 35, 69
3, 11024, Note_on_c, 1, 34, 27
3, 11039, Note_on_c, 1, 34, 0
3, 11039, Note_on_c, 1, 35, 0
3, 11043, Note_on_c, 1, 36, 66
3, 11128, Note_on_c, 1, 34, 33
3, 11136, Note_on_c, 1, 36, 0
3, 11153, Note_on_c, 1, 38, 78
3, 11155, Note_on_c, 1, 34, 0
3, 11275, Note_on_c, 1, 39, 67
3, 11278, Note_on_c, 1, 38, 0
3, 11372, Note_on_c, 1, 37, 35
3, 11388, Note_on_c, 1, 39, 0
3, 11398, Note_on_c, 1, 40, 63
3, 11401, Note_on_c, 1, 37, 0
3, 11482, Note_on_c, 1, 39, 48
3, 11490, Note_on_c, 1, 40, 0
3, 11513, Note_on_c, 1, 39, 0
3, 11513, Note_on_c, 1, 41, 54
3, 11595, Note_on_c, 1, 39, 38
3, 11616, Note_on_c, 1, 41, 0
3, 11626, Note_on_c, 1, 39, 0
3, 11627, Note_on_c, 1, 50, 110
3, 11834, Note_on_c, 1, 41, 52
3, 11841, Note_on_c, 1, 41, 0
3, 11861, Note_on_c, 1, 50, 0
3, 11867, Note_on_c, 1, 48, 72
3, 11994, Note_on_c, 1, 48, 0
3, 11995, Note_on_c, 1, 45, 60
3, 12085, Note_on_c, 1, 40, 75
3, 12097, Note_on_c, 1, 45, 0
3, 12118, Note_on_c, 1, 40, 0
3, 12127, Note_on_c, 1, 41, 44
3, 12207, Note_on_c, 1, 41, 0
3, 12211, Note_on_c, 1, 35, 54
3, 12242, Note_on_c, 1, 35, 0
3, 12250, Note_on_c, 1, 36, 49
3, 12330, Note_on_c, 1, 33, 70
3, 12335, Note_on_c, 1, 36, 0
3, 12368, Note_on_c, 1, 33, 0
3, 12373, Note_on_c, 1, 34, 71
3, 12382, Note_on_c, 1, 34, 0
3, 12382, Note_on_c, 1, 35, 68
3, 12451, Note_on_c, 1, 35, 0
3, 12454, Note_on_c, 1, 33, 57
3, 12482, Note_on_c, 1, 33, 0
3, 12493, Note_on_c, 1, 34, 69
3, 12570, Note_on_c, 1, 48, 87
3, 12586, Note_on_c, 1, 34, 0
3, 12600, Note_on_c, 1, 48, 0
3, 12610, Note_on_c, 1, 46, 64
3, 12729, Note_on_c, 1, 34, 59
3, 12733, Note_on_c, 1, 46, 0
3, 12819, Note_on_c, 1, 37, 42
3, 12824, Note_on_c, 1, 37, 0
3, 12851, Note_on_c, 1, 50, 101
3, 12860, Note_on_c, 1, 34, 0
3, 12944, Note_on_c, 1, 38, 31
3, 12953, Note_on_c, 1, 38, 0
3, 12999, Note_on_c, 1, 50, 0
3, 12999, Note_on_c, 1, 47, 62
3, 13021, Note_on_c, 1, 47, 0
3, 13041, Note_on_c, 1, 44, 61
3, 13076, Note_on_c, 1, 44, 0
3, 13079, Note_on_c, 1, 41, 65
3, 13165, Note_on_c, 1, 38, 90
3, 13179, Note_on_c, 1, 41, 0
3, 13289, Note_on_c, 1, 35, 51
3, 13297, Note_on_c, 1, 38, 0
3, 13309, Note_on_c, 1, 35, 0
3, 13328, Note_on_c, 1, 32, 42
3, 13338, Note_on_c, 1, 32, 0
3, 13408, Note_on_c, 1, 35, 70
3, 13441, Note_on_c, 1, 35, 0
3, 13448, Note_on_c, 1, 36, 47
3, 13526, Note_on_c, 1, 50, 99
3, 13534, Note_on_c, 1, 36, 0
3, 13559, Note_on_c, 1, 50, 0
3, 13568, Note_on_c, 1, 48, 74
3, 13641, Note_on_c, 1, 48, 0
3, 13647, Note_on_c, 1, 47, 72
3, 13686, Note_on_c, 1, 47, 0
3, 13690, Note_on_c, 1, 46, 71
3, 13794, Note_on_c, 1, 46, 0
3, 13814, Note_on_c, 1, 46, 75
3, 13932, Note_on_c, 1, 46, 0
3, 13933, Note_on_c, 1, 45, 68
3, 13944, Note_on_c, 1, 45, 0
3, 13971, Note_on_c, 1, 40, 40
3, 13984, Note_on_c, 1, 40, 0
3, 14004, Note_on_c, 1, 36, 67
3, 14021, Note_on_c, 1, 36, 0
3, 14048, Note_on_c, 1, 39, 67
3, 14068, Note_on_c, 1, 39, 0
3, 14089, Note_on_c, 1, 37, 64
3, 14112, Note_on_c, 1, 37, 0
3, 14133, Note_on_c, 1, 38, 91
3, 14208, Note_on_c, 1, 50, 96
3, 14213, Note_on_c, 1, 38, 0
3, 14265, Note_on_c, 1, 38, 24
3, 14273, Note_on_c, 1, 38, 0
3, 14276, Note_on_c, 1, 50, 0
3, 14287, Note_on_c, 1, 48, 74
3, 14354, Note_on_c, 1, 48, 0
3, 14359, Note_on_c, 1, 42, 71
3, 14392, Note_on_c, 1, 42, 0
3, 14397, Note_on_c, 1, 43, 62
3, 14476, Note_on_c, 1, 43, 0
3, 14477, Note_on_c, 1, 38, 54
3, 14496, Note_on_c, 1, 38, 0
3, 14514, Note_on_c, 1, 35, 57
3, 14633, Note_on_c, 1, 35, 0
3, 14636, Note_on_c, 1, 36, 63
3, 14717, Note_on_c, 1, 34, 40
3, 14732, Note_on_c, 1, 34, 0
3, 14746, Note_on_c, 1, 36, 0
3, 14752, Note_on_c, 1, 50, 83
3, 14861, Note_on_c, 1, 50, 0
3, 14868, Note_on_c, 1, 48, 66
3, 14954, Note_on_c, 1, 41, 62
3, 14963, Note_on_c, 1, 41, 0
3, 14985, Note_on_c, 1, 35, 68
3, 14988, Note_on_c, 1, 48, 0
3, 15107, Note_on_c, 1, 35, 0
3, 15112, Note_on_c, 1, 36, 58
3, 15196, Note_on_c, 1, 34, 34
3, 15203, Note_on_c, 1, 34, 0
3, 15225, Note_on_c, 1, 36, 0
3, 15237, Note_on_c, 1, 50, 91
3, 15276, Note_on_c, 1, 50, 0
3, 15318, Note_on_c, 1, 40, 64
3, 15351, Note_on_c, 1, 40, 0
3, 15356, Note_on_c, 1, 41, 46
3, 15455, Note_on_c, 1, 40, 35
3, 15477, Note_on_c, 1, 40, 0
3, 15485, Note_on_c, 1, 41, 0
3, 15488, Note_on_c, 1, 47, 85
3, 15570, Note_on_c, 1, 40, 40
3, 15579, Note_on_c, 1, 40, 0
3, 15597, Note_on_c, 1, 47, 0
3, 15605, Note_on_c, 1, 46, 49
3, 15684, Note_on_c, 1, 41, 58
3, 15701, Note_on_c, 1, 41, 0
3, 15723, Note_on_c, 1, 46, 0
3, 15723, Note_on_c, 1, 34, 62
3, 15840, Note_on_c, 1, 34, 0
3, 15848, Note_on_c, 1, 33, 61
3, 15961, Note_on_c, 1, 33, 0
3, 15963, Note_on_c, 1, 39, 64
3, 16079, Note_on_c, 1, 39, 0
3, 16085, Note_on_c, 1, 38, 62
3, 16126, Note_on_c, 1, 38, 0
3, 16126, Note_on_c, 1, 48, 75
3, 16148, Note_on_c, 1, 48, 0
3, 16161, Note_on_c, 1, 45, 53
3, 16187, Note_on_c, 1, 45, 0
3, 16201, Note_on_c, 1, 47, 80
3, 16230, Note_on_c, 1, 47, 0
3, 16242, Note_on_c, 1, 42, 42
3, 16259, Note_on_c, 1, 42, 0
3, 16279, Note_on_c, 1, 43, 77
3, 16351, Note_on_c, 1, 43, 0
3, 16358, Note_on_c, 1, 41, 55
3, 16372, Note_on_c, 1, 41, 0
3, 16396, Note_on_c, 1, 38, 47
3, 16422, Note_on_c, 1, 38, 0
3, 16437, Note_on_c, 1, 35, 60
3, 16555, Note_on_c, 1, 35, 0
3, 16561, Note_on_c, 1, 36, 60
3, 16638, Note_on_c, 1, 50, 108
3, 16658, Note_on_c, 1, 36, 0
3, 16672, Note_on_c, 1, 50, 0
3, 16681, Note_on_c, 1, 48, 68
3, 16733, Note_on_c, 1, 48, 0
3, 16759, Note_on_c, 1, 46, 67
3, 16766, Note_on_c, 1, 36, 32
3, 16775, Note_on_c, 1, 36, 0
3, 16788, Note_on_c, 1, 46, 0
3, 16800, Note_on_c, 1, 45, 59
3, 16873, Note_on_c, 1, 45, 0
3, 16880, Note_on_c, 1, 46, 53
3, 16911, Note_on_c, 1, 46, 0
3, 16926, Note_on_c, 1, 48, 60
3, 16989, Note_on_c, 1, 48, 0
3, 17000, Note_on_c, 1, 35, 57
3, 17041, Note_on_c, 1, 35, 0
3, 17045, Note_on_c, 1, 36, 60
3, 17123, Note_on_c, 1, 50, 101
3, 17139, Note_on_c, 1, 36, 0
3, 17157, Note_on_c, 1, 50, 0
3, 17167, Note_on_c, 1, 48, 68
3, 17241, Note_on_c, 1, 48, 0
3, 17249, Note_on_c, 1, 40, 59
3, 17285, Note_on_c, 1, 40, 0
3, 17291, Note_on_c, 1, 41, 62
3, 17350, Note_on_c, 1, 41, 0
3, 17365, Note_on_c, 1, 41, 57
3, 17401, Note_on_c, 1, 41, 0
3, 17409, Note_on_c, 1, 40, 52
3, 17472, Note_on_c, 1, 40, 0
3, 17486, Note_on_c, 1, 40, 65
3, 17516, Note_on_c, 1, 40, 0
3, 17527, Note_on_c, 1, 38, 51
3, 17640, Note_on_c, 1, 38, 0
3, 17646, Note_on_c, 1, 34, 58
3, 17758, Note_on_c, 1, 34, 0
3, 17765, Note_on_c, 1, 33, 62
3, 17884, Note_on_c, 1, 33, 0
3, 17886, Note_on_c, 1, 39, 58
3, 17973, Note_on_c, 1, 37, 37
3, 17991, Note_on_c, 1, 39, 0
3, 18003, Note_on_c, 1, 37, 0
3, 18007, Note_on_c, 1, 38, 62
3, 18082, Note_on_c, 1, 54, 59
3, 18209, Note_on_c, 1, 38, 0
3, 18209, Note_on_c, 1, 42, 57
3, 18239, Note_on_c, 1, 54, 0
3, 18244, Note_on_c, 1, 42, 0
3, 18248, Note_on_c, 1, 43, 55
3, 18322, Note_on_c, 1, 42, 25
3, 18333, Note_on_c, 1, 50, 88
3, 18341, Note_on_c, 1, 42, 0
3, 18348, Note_on_c, 1, 43, 0
3, 18364, Note_on_c, 1, 50, 0
3, 18377, Note_on_c, 1, 47, 61
3, 18456, Note_on_c, 1, 39, 28
3, 18463, Note_on_c, 1, 39, 0
3, 18483, Note_on_c, 1, 47, 0
3, 18495, Note_on_c, 1, 43, 55
3, 18573, Note_on_c, 1, 38, 53
3, 18587, Note_on_c, 1, 38, 0
3, 18587, Note_on_c, 1, 43, 0
3, 18609, Note_on_c, 1, 37, 50
3, 18728, Note_on_c, 1, 37, 0
3, 18729, Note_on_c, 1, 36, 60
3, 18769, Note_on_c, 1, 36, 0
3, 18770, Note_on_c, 1, 50, 74
3, 18789, Note_on_c, 1, 50, 0
3, 18806, Note_on_c, 1, 49, 69
3, 18834, Note_on_c, 1, 49, 0
3, 18845, Note_on_c, 1, 48, 63
3, 18867, Note_on_c, 1, 48, 0
3, 18887, Note_on_c, 1, 45, 55
3, 18905, Note_on_c, 1, 45, 0
3, 18921, Note_on_c, 1, 44, 56
3, 18951, Note_on_c, 1, 44, 0
3, 18963, Note_on_c, 1, 43, 56
3, 19035, Note_on_c, 1, 43, 0
3, 19043, Note_on_c, 1, 40, 58
3, 19068, Note_on_c, 1, 40, 0
3, 19085, Note_on_c, 1, 39, 52
3, 19122, Note_on_c, 1, 39, 0
3, 19163, Note_on_c, 1, 40, 56
3, 19196, Note_on_c, 1, 40, 0
3, 19206, Note_on_c, 1, 41, 52
3, 19238, Note_on_c, 1, 41, 0
3, 19244, Note_on_c, 1, 50, 55
3, 19270, Note_on_c, 1, 50, 0
3, 19280, Note_on_c, 1, 49, 51
3, 19313, Note_on_c, 1, 49, 0
3, 19324, Note_on_c, 1, 48, 59
3, 19410, Note_on_c, 1, 41, 30
3, 19423, Note_on_c, 1, 41, 0
3, 19439, Note_on_c, 1, 48, 0
3, 19447, Note_on_c, 1, 55, 68
3, 19561, Note_on_c, 1, 55, 0
3, 19568, Note_on_c, 1, 54, 67
3, 19685, Note_on_c, 1, 54, 0
3, 19691, Note_on_c, 1, 53, 45
3, 19768, Note_on_c, 1, 44, 68
3, 19775, Note_on_c, 1, 53, 0
3, 19806, Note_on_c, 1, 44, 0
3, 19811, Note_on_c, 1, 45, 48
3, 19928, Note_on_c, 1, 45, 0
3, 19934, Note_on_c, 1, 41, 51
3, 19999, Note_on_c, 1, 41, 0
3, 20009, Note_on_c, 1, 35, 66
3, 20009, Note_on_c, 1, 36, 70
3, 20020, Note_on_c, 1, 36, 0
3, 20160, Note_on_c, 1, 35, 0
3, 20170, Note_on_c, 1, 34, 49
3, 20283, Note_on_c, 1, 41, 58
3, 20290, Note_on_c, 1, 34, 0
3, 20363, Note_on_c, 1, 34, 40
3, 20383, Note_on_c, 1, 41, 0
3, 20397, Note_on_c, 1, 34, 0
3, 20400, Note_on_c, 1, 46, 65
3, 20519, Note_on_c, 1, 46, 0
3, 20519, Note_on_c, 1, 35, 99
3, 20640, Note_on_c, 1, 41, 60
3, 20641, Note_on_c, 1, 35, 0
3, 20711, Note_on_c, 1, 41, 0
3, 20721, Note_on_c, 1, 41, 66
3, 20749, Note_on_c, 1, 41, 0
3, 20761, Note_on_c, 1, 44, 63
3, 20841, Note_on_c, 1, 41, 47
3, 20849, Note_on_c, 1, 41, 0
3, 20865, Note_on_c, 1, 44, 0
3, 20879, Note_on_c, 1, 47, 57
3, 20953, Note_on_c, 1, 47, 0
3, 20959, Note_on_c, 1, 50, 77
3, 20988, Note_on_c, 1, 50, 0
3, 21003, Note_on_c, 1, 49, 67
3, 21084, Note_on_c, 1, 43, 25
3, 21092, Note_on_c, 1, 43, 0
3, 21122, Note_on_c, 1, 49, 0
3, 21122, Note_on_c, 1, 48, 60
3, 21132, Note_on_c, 1, 48, 0
3, 21162, Note_on_c, 1, 43, 46
3, 21171, Note_on_c, 1, 43, 0
3, 21198, Note_on_c, 1, 37, 67
3, 21237, Note_on_c, 1, 37, 0
3, 21242, Note_on_c, 1, 36, 69
3, 21355, Note_on_c, 1, 36, 0
3, 21364, Note_on_c, 1, 47, 70
3, 21379, Note_on_c, 1, 47, 0
3, 21403, Note_on_c, 1, 35, 32
3, 21417, Note_on_c, 1, 35, 0
3, 21441, Note_on_c, 1, 34, 77
3, 21595, Note_on_c, 1, 34, 0
3, 21603, Note_on_c, 1, 33, 51
3, 21720, Note_on_c, 1, 33, 0
3, 21724, Note_on_c, 1, 39, 60
3, 21832, Note_on_c, 1, 39, 0
3, 21843, Note_on_c, 1, 38, 57
3, 21952, Note_on_c, 1, 38, 0
3, 21958, Note_on_c, 1, 48, 71
3, 22073, Note_on_c, 1, 48, 0
3, 22077, Note_on_c, 1, 43, 59
3, 22161, Note_on_c, 1, 38, 44
3, 22173, Note_on_c, 1, 38, 0
3, 22181, Note_on_c, 1, 43, 0
3, 22195, Note_on_c, 1, 35, 64
3, 22316, Note_on_c, 1, 35, 0
3, 22323, Note_on_c, 1, 36, 50
3, 22410, Note_on_c, 1, 35, 29
3, 22424, Note_on_c, 1, 35, 0
3, 22437, Note_on_c, 1, 36, 0
3, 22442, Note_on_c, 1, 50, 78
3, 22558, Note_on_c, 1, 50, 0
3, 22565, Note_on_c, 1, 48, 55
3, 22643, Note_on_c, 1, 36, 84
3, 22650, Note_on_c, 1, 48, 0
3, 22663, Note_on_c, 1, 48, 15
3, 22772, Note_on_c, 1, 34, 43
3, 22775, Note_on_c, 1, 48, 0
3, 22810, Note_on_c, 1, 50, 90
3, 22811, Note_on_c, 1, 36, 0
3, 22813, Note_on_c, 1, 34, 0
3, 22890, Note_on_c, 1, 36, 50
3, 22902, Note_on_c, 1, 36, 0
3, 22915, Note_on_c, 1, 50, 0
3, 22927, Note_on_c, 1, 49, 64
3, 23043, Note_on_c, 1, 49, 0
3, 23049, Note_on_c, 1, 48, 61
3, 23127, Note_on_c, 1, 36, 69
3, 23128, Note_on_c, 1, 48, 0
3, 23159, Note_on_c, 1, 36, 0
3, 23165, Note_on_c, 1, 35, 66
3, 23279, Note_on_c, 1, 35, 0
3, 23287, Note_on_c, 1, 34, 62
3, 23408, Note_on_c, 1, 46, 77
3, 23422, Note_on_c, 1, 34, 0
3, 23491, Note_on_c, 1, 34, 55
3, 23505, Note_on_c, 1, 34, 0
3, 23515, Note_on_c, 1, 46, 0
3, 23528, Note_on_c, 1, 45, 58
3, 23541, Note_on_c, 1, 45, 0
3, 23568, Note_on_c, 1, 40, 60
3, 23584, Note_on_c, 1, 40, 0
3, 23600, Note_on_c, 1, 39, 83
3, 23685, Note_on_c, 1, 39, 0
3, 23685, Note_on_c, 1, 37, 71
3, 23760, Note_on_c, 1, 37, 0
3, 23766, Note_on_c, 1, 38, 60
3, 23844, Note_on_c, 1, 37, 53
3, 23856, Note_on_c, 1, 38, 0
3, 23873, Note_on_c, 1, 37, 0
3, 23882, Note_on_c, 1, 45, 82
3, 23955, Note_on_c, 1, 37, 46
3, 23957, Note_on_c, 1, 45, 0
3, 23958, Note_on_c, 1, 42, 59
3, 23965, Note_on_c, 1, 37, 0
3, 23987, Note_on_c, 1, 42, 0
3, 24002, Note_on_c, 1, 43, 55
3, 24023, Note_on_c, 1, 43, 0
3, 24080, Note_on_c, 1, 38, 54
3, 24115, Note_on_c, 1, 38, 0
3, 24121, Note_on_c, 1, 35, 54
3, 24196, Note_on_c, 1, 35, 0
3, 24208, Note_on_c, 1, 35, 63
3, 24242, Note_on_c, 1, 35, 0
3, 24252, Note_on_c, 1, 36, 58
3, 24307, Note_on_c, 1, 36, 0
3, 24324, Note_on_c, 1, 36, 57
3, 24363, Note_on_c, 1, 36, 0
3, 24368, Note_on_c, 1, 40, 51
3, 24447, Note_on_c, 1, 36, 34
3, 24449, Note_on_c, 1, 40, 0
3, 24480, Note_on_c, 1, 36, 0
3, 24489, Note_on_c, 1, 41, 24
3, 24567, Note_on_c, 1, 34, 69
3, 24568, Note_on_c, 1, 41, 0
3, 24593, Note_on_c, 1, 34, 0
3, 24608, Note_on_c, 1, 35, 53
3, 24673, Note_on_c, 1, 35, 0
3, 24685, Note_on_c, 1, 34, 31
3, 24692, Note_on_c, 1, 35, 35
3, 24714, Note_on_c, 1, 34, 0
3, 24718, Note_on_c, 1, 35, 0
3, 24728, Note_on_c, 1, 36, 66
3, 24791, Note_on_c, 1, 34, 33
3, 24803, Note_on_c, 1, 50, 96
3, 24809, Note_on_c, 1, 36, 0
3, 24822, Note_on_c, 1, 34, 0
3, 24838, Note_on_c, 1, 50, 0
3, 24848, Note_on_c, 1, 48, 60
3, 24916, Note_on_c, 1, 48, 0
3, 24919, Note_on_c, 1, 40, 62
3, 24960, Note_on_c, 1, 40, 0
3, 24962, Note_on_c, 1, 41, 49
3, 25034, Note_on_c, 1, 41, 0
3, 25046, Note_on_c, 1, 41, 74
3, 25070, Note_on_c, 1, 41, 0
3, 25088, Note_on_c, 1, 40, 57
3, 25164, Note_on_c, 1, 39, 70
3, 25167, Note_on_c, 1, 40, 0
3, 25196, Note_on_c, 1, 39, 0
3, 25207, Note_on_c, 1, 38, 62
3, 25324, Note_on_c, 1, 46, 71
3, 25332, Note_on_c, 1, 38, 0
3, 25406, Note_on_c, 1, 38, 48
3, 25419, Note_on_c, 1, 38, 0
3, 25435, Note_on_c, 1, 46, 0
3, 25445, Note_on_c, 1, 45, 68
3, 25562, Note_on_c, 1, 39, 59
3, 25568, Note_on_c, 1, 45, 0
3, 25651, Note_on_c, 1, 37, 32
3, 25669, Note_on_c, 1, 39, 0
3, 25676, Note_on_c, 1, 37, 0
3, 25687, Note_on_c, 1, 38, 55
3, 25766, Note_on_c, 1, 38, 0
3, 25766, Note_on_c, 1, 32, 62
3, 25786, Note_on_c, 1, 32, 0
3, 25803, Note_on_c, 1, 30, 69
3, 25923, Note_on_c, 1, 30, 0
3, 25927, Note_on_c, 1, 31, 74
3, 26046, Note_on_c, 1, 33, 79
3, 26057, Note_on_c, 1, 31, 0
3, 26167, Note_on_c, 1, 34, 78
3, 26169, Note_on_c, 1, 33, 0
3, 26287, Note_on_c, 1, 34, 0
3, 26287, Note_on_c, 1, 35, 73
3, 26390, Note_on_c, 1, 35, 0
3, 26406, Note_on_c, 1, 36, 90
3, 26425, Control_c, 1, 1, 5
3, 26426, Control_c, 1, 1, 6
3, 26426, Control_c, 1, 1, 9
3, 26426, Control_c, 1, 1, 11
3, 26428, Control_c, 1, 1, 15
3, 26428, Control_c, 1, 1, 17
3, 26430, Control_c, 1, 1, 19
3, 26431, Control_c, 1, 1, 22
3, 26431, Control_c, 1, 1, 23
3, 26432, Control_c, 1, 1, 25
3, 26433, Control_c, 1, 1, 27
3, 26434, Control_c, 1, 1, 29
3, 26434, Control_c, 1, 1, 30
3, 26436, Control_c, 1, 1, 32
3, 26437, Control_c, 1, 1, 35
3, 26438, Control_c, 1, 1, 36
3, 26439, Control_c, 1, 1, 38
3, 26440, Control_c, 1, 1, 39
3, 26440, Control_c, 1, 1, 41
3, 26442, Control_c, 1, 1, 43
3, 26442, Control_c, 1, 1, 45
3, 26443, Control_c, 1, 1, 46
3, 26444, Control_c, 1, 1, 48
3, 26445, Control_c, 1, 1, 49
3, 26446, Control_c, 1, 1, 52
3, 26446, Control_c, 1, 1, 53
3, 26447, Control_c, 1, 1, 54
3, 26448, Control_c, 1, 1, 56
3, 26449, Control_c, 1, 1, 57
3, 26449, Control_c, 1, 1, 59
3, 26451, Control_c, 1, 1, 60
3, 26452, Control_c, 1, 1, 61
3, 26452, Control_c, 1, 1, 62
3, 26452, Control_c, 1, 1, 63
3, 26454, Control_c, 1, 1, 64
3, 26456, Control_c, 1, 1, 67
3, 26458, Control_c, 1, 1, 69
3, 26460, Control_c, 1, 1, 70
3, 26461, Control_c, 1, 1, 71
3, 26464, Control_c, 1, 1, 72
3, 26466, Control_c, 1, 1, 73
3, 26472, Control_c, 1, 1, 74
3, 26477, Control_c, 1, 1, 73
3, 26479, Control_c, 1, 1, 72
3, 26482, Control_c, 1, 1, 70
3, 26483, Control_c, 1, 1, 69
3, 26485, Control_c, 1, 1, 68
3, 26486, Control_c, 1, 1, 67
3, 26487, Control_c, 1, 1, 66
3, 26488, Control_c, 1, 1, 65
3, 26488, Control_c, 1, 1, 64
3, 26489, Control_c, 1, 1, 62
3, 26491, Control_c, 1, 1, 60
3, 26491, Control_c, 1, 1, 59
3, 26491, Control_c, 1, 1, 57
3, 26493, Control_c, 1, 1, 55
3, 26494, Control_c, 1, 1, 53
3, 26495, Control_c, 1, 1, 51
3, 26495, Control_c, 1, 1, 49
3, 26496, Control_c, 1, 1, 46
3, 26497, Control_c, 1, 1, 44
3, 26498, Control_c, 1, 1, 40
3, 26498, Control_c, 1, 1, 37
3, 26500, Control_c, 1, 1, 34
3, 26500, Control_c, 1, 1, 29
3, 26502, Control_c, 1, 1, 25
3, 26503, Control_c, 1, 1, 20
3, 26504, Control_c, 1, 1, 15
3, 26506, Control_c, 1, 1, 6
3, 26506, Control_c, 1, 1, 2
3, 26507, Control_c, 1, 1, 1
3, 26523, Note_on_c, 1, 36, 0
3, 26532, Note_on_c, 1, 38, 80
3, 26535, Note_on_c, 1, 36, 53
3, 26541, Note_on_c, 1, 36, 0
3, 26643, Note_on_c, 1, 38, 0
3, 26652, Note_on_c, 1, 39, 70
3, 26761, Note_on_c, 1, 39, 0
3, 26766, Note_on_c, 1, 40, 75
3, 26866, Note_on_c, 1, 40, 0
3, 26887, Note_on_c, 1, 41, 84
3, 26917, Pitch_bend_c, 1, 8192
3, 26918, Pitch_bend_c, 1, 8192
3, 26918, Pitch_bend_c, 1, 8712
3, 26920, Pitch_bend_c, 1, 8972
3, 26922, Pitch_bend_c, 1, 9752
3, 26923, Pitch_bend_c, 1, 9882
3, 26925, Pitch_bend_c, 1, 10662
3, 26925, Pitch_bend_c, 1, 10922
3, 26929, Pitch_bend_c, 1, 11572
3, 26930, Pitch_bend_c, 1, 11832
3, 26932, Pitch_bend_c, 1, 12222
3, 26933, Pitch_bend_c, 1, 12352
3, 26935, Pitch_bend_c, 1, 12482
3, 26940, Pitch_bend_c, 1, 12352
3, 26942, Pitch_bend_c, 1, 12092
3, 26945, Pitch_bend_c, 1, 11702
3, 26946, Pitch_bend_c, 1, 11442
3, 26947, Pitch_bend_c, 1, 10792
3, 26949, Pitch_bend_c, 1, 10402
3, 26951, Pitch_bend_c, 1, 9622
3, 26952, Pitch_bend_c, 1, 9232
3, 26953, Pitch_bend_c, 1, 8192
3, 26954, Pitch_bend_c, 1, 8192
3, 27089, Note_on_c, 1, 35, 67
3, 27113, Note_on_c, 1, 41, 0
3, 27127, Note_on_c, 1, 35, 0
3, 27128, Note_on_c, 1, 36, 65
3, 27226, Note_on_c, 1, 34, 36
3, 27247, Note_on_c, 1, 36, 0
3, 27249, Note_on_c, 1, 50, 88
3, 27252, Note_on_c, 1, 34, 0
3, 27357, Note_on_c, 1, 50, 0
3, 27367, Note_on_c, 1, 48, 64
3, 27451, Note_on_c, 1, 41, 40
3, 27460, Note_on_c, 1, 41, 0
3, 27470, Note_on_c, 1, 48, 0
3, 27484, Note_on_c, 1, 45, 62
3, 27633, Note_on_c, 1, 41, 65
3, 27636, Note_on_c, 1, 45, 0
3, 27645, Note_on_c, 1, 41, 0
3, 27671, Note_on_c, 1, 38, 58
3, 27702, Note_on_c, 1, 38, 0
3, 27714, Note_on_c, 1, 35, 60
3, 27836, Note_on_c, 1, 35, 0
3, 27837, Note_on_c, 1, 34, 65
3, 27957, Note_on_c, 1, 34, 0
3, 27960, Note_on_c, 1, 41, 69
3, 28058, Note_on_c, 1, 38, 34
3, 28076, Note_on_c, 1, 38, 0
3, 28084, Note_on_c, 1, 50, 85
3, 28100, Note_on_c, 1, 41, 0
3, 28182, Note_on_c, 1, 41, 22
3, 28189, Note_on_c, 1, 41, 0
3, 28194, Note_on_c, 1, 50, 0
3, 28206, Note_on_c, 1, 47, 75
3, 28296, Note_on_c, 1, 40, 27
3, 28310, Note_on_c, 1, 40, 0
3, 28323, Note_on_c, 1, 47, 0
3, 28325, Note_on_c, 1, 44, 55
3, 28442, Note_on_c, 1, 41, 60
3, 28446, Note_on_c, 1, 44, 0
3, 28553, Note_on_c, 1, 41, 0
3, 28564, Note_on_c, 1, 38, 53
3, 28673, Note_on_c, 1, 38, 0
3, 28682, Note_on_c, 1, 35, 64
3, 28761, Note_on_c, 1, 50, 101
3, 28768, Note_on_c, 1, 35, 0
3, 28798, Note_on_c, 1, 50, 0
3, 28805, Note_on_c, 1, 48, 66
3, 28886, Note_on_c, 1, 36, 89
3, 28892, Note_on_c, 1, 48, 0
3, 29040, Note_on_c, 1, 46, 64
3, 29042, Note_on_c, 1, 36, 0
3, 29123, Note_on_c, 1, 34, 74
3, 29127, Note_on_c, 1, 46, 0
3, 29271, Note_on_c, 1, 34, 0
3, 29283, Note_on_c, 1, 33, 58
3, 29399, Note_on_c, 1, 33, 0
3, 29404, Note_on_c, 1, 39, 56
3, 29485, Note_on_c, 1, 34, 38
3, 29489, Note_on_c, 1, 39, 0
3, 29524, Note_on_c, 1, 34, 0
3, 29527, Note_on_c, 1, 38, 66
3, 29604, Note_on_c, 1, 50, 110
3, 29615, Note_on_c, 1, 38, 0
3, 29639, Note_on_c, 1, 50, 0
3, 29652, Note_on_c, 1, 44, 75
3, 29689, Note_on_c, 1, 44, 0
3, 29724, Note_on_c, 1, 42, 74
3, 29757, Note_on_c, 1, 42, 0
3, 29771, Note_on_c, 1, 43, 45
3, 29849, Note_on_c, 1, 36, 87
3, 29859, Note_on_c, 1, 43, 0
3, 30081, Note_on_c, 1, 34, 47
3, 30104, Note_on_c, 1, 36, 0
3, 30113, Note_on_c, 1, 34, 0
3, 30118, Note_on_c, 1, 48, 105
3, 30322, Note_on_c, 1, 35, 60
3, 30353, Note_on_c, 1, 35, 0
3, 30359, Note_on_c, 1, 36, 83
3, 30362, Note_on_c, 1, 48, 0
3, 30446, Note_on_c, 1, 35, 45
3, 30467, Note_on_c, 1, 36, 0
3, 30472, Note_on_c, 1, 35, 0
3, 30479, Note_on_c, 1, 50, 95
3, 30563, Note_on_c, 1, 48, 69
3, 30567, Note_on_c, 1, 50, 0
3, 30577, Note_on_c, 1, 48, 0
3, 30600, Note_on_c, 1, 40, 43
3, 30680, Note_on_c, 1, 39, 29
3, 30710, Note_on_c, 1, 40, 0
3, 30711, Note_on_c, 1, 39, 0
3, 30722, Note_on_c, 1, 41, 58
3, 30883, Note_on_c, 1, 41, 0
3, 30883, Note_on_c, 1, 36, 44
3, 30891, Note_on_c, 1, 36, 0
3, 30916, Note_on_c, 1, 35, 60
3, 30945, Note_on_c, 1, 35, 0
3, 30963, Note_on_c, 1, 34, 65
3, 31043, Note_on_c, 1, 46, 88
3, 31101, Note_on_c, 1, 34, 0
3, 31164, Note_on_c, 1, 34, 42
3, 31177, Note_on_c, 1, 34, 0
3, 31196, Note_on_c, 1, 46, 0
3, 31207, Note_on_c, 1, 45, 78
3, 31285, Note_on_c, 1, 36, 66
3, 31295, Note_on_c, 1, 36, 0
3, 31303, Note_on_c, 1, 45, 0
3, 31330, Note_on_c, 1, 38, 72
3, 31442, Note_on_c, 1, 50, 96
3, 31453, Note_on_c, 1, 38, 0
3, 31526, Note_on_c, 1, 38, 45
3, 31535, Note_on_c, 1, 38, 0
3, 31566, Note_on_c, 1, 42, 67
3, 31572, Note_on_c, 1, 50, 0
3, 31690, Note_on_c, 1, 42, 0
3, 31691, Note_on_c, 1, 43, 63
3, 31807, Note_on_c, 1, 43, 0
3, 31808, Note_on_c, 1, 31, 67
3, 31895, Note_on_c, 1, 36, 46
3, 31903, Note_on_c, 1, 36, 0
3, 31917, Note_on_c, 1, 31, 0
3, 31931, Note_on_c, 1, 48, 73
3, 32046, Note_on_c, 1, 36, 62
3, 32050, Note_on_c, 1, 48, 0
3, 32121, Note_on_c, 1, 55, 89
3, 32131, Note_on_c, 1, 36, 0
3, 32150, Note_on_c, 1, 55, 0
3, 32162, Note_on_c, 1, 53, 61
3, 32265, Note_on_c, 1, 53, 0
3, 32283, Note_on_c, 1, 47, 49
3, 32285, Note_on_c, 1, 45, 64
3, 32290, Note_on_c, 1, 45, 0
3, 32351, Note_on_c, 1, 43, 29
3, 32360, Note_on_c, 1, 43, 0
3, 32405, Note_on_c, 1, 47, 0
3, 32407, Note_on_c, 1, 48, 64
3, 32521, Note_on_c, 1, 48, 0
3, 32529, Note_on_c, 1, 40, 61
3, 32650, Note_on_c, 1, 41, 68
3, 32652, Note_on_c, 1, 40, 0
3, 32765, Note_on_c, 1, 41, 0
3, 32771, Note_on_c, 1, 34, 75
3, 32891, Note_on_c, 1, 46, 82
3, 32910, Note_on_c, 1, 34, 0
3, 32998, Note_on_c, 1, 46, 0
3, 33006, Note_on_c, 1, 44, 71
3, 33122, Note_on_c, 1, 44, 0
3, 33123, Note_on_c, 1, 45, 71
3, 33236, Note_on_c, 1, 45, 0
3, 33241, Note_on_c, 1, 51, 77
3, 33359, Note_on_c, 1, 50, 68
3, 33365, Note_on_c, 1, 51, 0
3, 33439, Note_on_c, 1, 37, 48
3, 33466, Note_on_c, 1, 50, 0
3, 33473, Note_on_c, 1, 37, 0
3, 33482, Note_on_c, 1, 38, 56
3, 33549, Note_on_c, 1, 38, 0
3, 33563, Note_on_c, 1, 32, 65
3, 33600, Note_on_c, 1, 32, 0
3, 33605, Note_on_c, 1, 31, 63
3, 33687, Note_on_c, 1, 48, 81
3, 33703, Note_on_c, 1, 31, 0
3, 33718, Note_on_c, 1, 48, 0
3, 33729, Note_on_c, 1, 47, 60
3, 33850, Note_on_c, 1, 45, 74
3, 33856, Note_on_c, 1, 47, 0
3, 33945, Note_on_c, 1, 42, 35
3, 33953, Note_on_c, 1, 45, 0
3, 33968, Note_on_c, 1, 42, 0
3, 33969, Note_on_c, 1, 43, 62
3, 34086, Note_on_c, 1, 43, 0
3, 34088, Note_on_c, 1, 41, 54
3, 34166, Note_on_c, 1, 39, 58
3, 34169, Note_on_c, 1, 41, 0
3, 34195, Note_on_c, 1, 39, 0
3, 34204, Note_on_c, 1, 40, 54
3, 34316, Note_on_c, 1, 40, 0
3, 34319, Note_on_c, 1, 36, 61
3, 34397, Note_on_c, 1, 39, 75
3, 34433, Note_on_c, 1, 39, 0
3, 34437, Note_on_c, 1, 40, 65
3, 34440, Note_on_c, 1, 36, 0
3, 34446, Note_on_c, 1, 40, 0
3, 34515, Note_on_c, 1, 43, 80
3, 34545, Note_on_c, 1, 43, 0
3, 34556, Note_on_c, 1, 41, 62
3, 34562, Note_on_c, 1, 41, 0
3, 34597, Note_on_c, 1, 36, 39
3, 34606, Note_on_c, 1, 36, 0
3, 34633, Note_on_c, 1, 30, 69
3, 34665, Note_on_c, 1, 30, 0
3, 34676, Note_on_c, 1, 29, 77
3, 34935, Note_on_c, 1, 41, 88
3, 34946, Note_on_c, 1, 29, 0
3, 35134, Note_on_c, 1, 36, 34
3, 35147, Note_on_c, 1, 36, 0
3, 35165, Note_on_c, 1, 55, 88
3, 35280, Note_on_c, 1, 55, 0
3, 35286, Note_on_c, 1, 53, 61
3, 35292, Note_on_c, 1, 41, 0
3, 35366, Note_on_c, 1, 41, 45
3, 35374, Note_on_c, 1, 41, 0
3, 35403, Note_on_c, 1, 47, 60
3, 35412, Note_on_c, 1, 53, 0
3, 35488, Note_on_c, 1, 41, 33
3, 35496, Note_on_c, 1, 41, 0
3, 35517, Note_on_c, 1, 47, 0
3, 35525, Note_on_c, 1, 46, 50
3, 35760, Note_on_c, 1, 34, 57
3, 35773, Note_on_c, 1, 46, 0
3, 35894, Note_on_c, 1, 34, 0
3, 35929, Note_on_c, 1, 33, 55
3, 35943, Note_on_c, 1, 33, 0
3, 35963, Note_on_c, 1, 34, 72
3, 35986, Note_on_c, 1, 34, 0
3, 36002, Note_on_c, 1, 35, 74
3, 36242, Note_on_c, 1, 35, 0
3, 36245, Note_on_c, 1, 38, 53
3, 36329, Note_on_c, 1, 44, 28
3, 36336, Note_on_c, 1, 44, 0
3, 36368, Note_on_c, 1, 50, 76
3, 36440, Note_on_c, 1, 50, 0
3, 36452, Note_on_c, 1, 47, 41
3, 36460, Note_on_c, 1, 38, 0
3, 36481, Note_on_c, 1, 47, 0
3, 36490, Note_on_c, 1, 48, 68
3, 36733, Note_on_c, 1, 46, 65
3, 36735, Note_on_c, 1, 48, 0
3, 36966, Note_on_c, 1, 46, 0
3, 36966, Note_on_c, 1, 45, 59
3, 36973, Note_on_c, 1, 45, 0
3, 37043, Note_on_c, 1, 37, 60
3, 37081, Note_on_c, 1, 37, 0
3, 37086, Note_on_c, 1, 38, 80
3, 37283, Note_on_c, 1, 50, 101
3, 37313, Note_on_c, 1, 38, 0
3, 37356, Note_on_c, 1, 50, 0
3, 37356, Note_on_c, 1, 44, 62
3, 37370, Note_on_c, 1, 44, 0
3, 37392, Note_on_c, 1, 42, 60
3, 37414, Note_on_c, 1, 42, 0
3, 37433, Note_on_c, 1, 43, 59
3, 37637, Note_on_c, 1, 35, 49
3, 37656, Note_on_c, 1, 43, 0
3, 37675, Note_on_c, 1, 35, 0
3, 37679, Note_on_c, 1, 36, 67
3, 37874, Note_on_c, 1, 36, 0
3, 37878, Note_on_c, 1, 34, 60
3, 37911, Note_on_c, 1, 34, 0
3, 37921, Note_on_c, 1, 33, 60
3, 37991, Note_on_c, 1, 33, 0
3, 38000, Note_on_c, 1, 34, 47
3, 38024, Note_on_c, 1, 34, 0
3, 38041, Note_on_c, 1, 39, 76
3, 38118, Note_on_c, 1, 34, 54
3, 38122, Note_on_c, 1, 39, 0
3, 38145, Note_on_c, 1, 34, 0
3, 38164, Note_on_c, 1, 38, 71
3, 38245, Note_on_c, 1, 45, 96
3, 38251, Note_on_c, 1, 47, 31
3, 38257, Note_on_c, 1, 47, 0
3, 38294, Note_on_c, 1, 38, 0
3, 38359, Note_on_c, 1, 45, 0
3, 38362, Note_on_c, 1, 44, 70
3, 38364, Note_on_c, 1, 37, 35
3, 38370, Note_on_c, 1, 37, 0
3, 38394, Note_on_c, 1, 44, 0
3, 38401, Note_on_c, 1, 43, 57
3, 38416, Note_on_c, 1, 43, 0
3, 38445, Note_on_c, 1, 38, 36
3, 38460, Note_on_c, 1, 38, 0
3, 38479, Note_on_c, 1, 35, 62
3, 38518, Note_on_c, 1, 35, 0
3, 38529, Note_on_c, 1, 35, 78
3, 38541, Note_on_c, 1, 36, 32
3, 38558, Note_on_c, 1, 36, 0
3, 38652, Note_on_c, 1, 35, 0
3, 38652, Note_on_c, 1, 36, 70
3, 38727, Note_on_c, 1, 50, 85
3, 38757, Note_on_c, 1, 36, 0
3, 38834, Note_on_c, 1, 50, 0
3, 38837, Note_on_c, 1, 48, 71
3, 38858, Note_on_c, 1, 48, 0
3, 38864, Note_on_c, 1, 46, 59
3, 38885, Note_on_c, 1, 46, 0
3, 38898, Note_on_c, 1, 45, 78
3, 39011, Note_on_c, 1, 34, 71
3, 39014, Note_on_c, 1, 45, 0
3, 39069, Note_on_c, 1, 34, 0
3, 39089, Note_on_c, 1, 33, 71
3, 39124, Note_on_c, 1, 33, 0
3, 39131, Note_on_c, 1, 38, 74
3, 39207, Note_on_c, 1, 45, 91
3, 39222, Note_on_c, 1, 38, 0
3, 39321, Note_on_c, 1, 38, 58
3, 39330, Note_on_c, 1, 38, 0
3, 39353, Note_on_c, 1, 45, 0
3, 39362, Note_on_c, 1, 43, 68
3, 39481, Note_on_c, 1, 43, 0
3, 39483, Note_on_c, 1, 35, 74
3, 39577, Note_on_c, 1, 34, 25
3, 39592, Note_on_c, 1, 35, 0
3, 39603, Note_on_c, 1, 34, 0
3, 39608, Note_on_c, 1, 36, 64
3, 39684, Note_on_c, 1, 36, 0
3, 39684, Note_on_c, 1, 39, 57
3, 39714, Note_on_c, 1, 39, 0
3, 39725, Note_on_c, 1, 40, 38
3, 39793, Note_on_c, 1, 40, 0
3, 39802, Note_on_c, 1, 41, 85
3, 40020, Note_on_c, 1, 41, 84
3, 40081, Note_on_c, 1, 41, 0
3, 40234, Note_on_c, 1, 41, 0
3, 40234, End_track
4, 0, Start_track
4, 0, MIDI_port, 0
4, 0, Title_t, "dougmck@pipeline.com.au"
4, 0, End_track
5, 0, Start_track
5, 0, MIDI_port, 0
5, 0, Title_t, "Cymbal Ride"
5, 0, Control_c, 9, 7, 86
5, 0, Note_on_c, 9, 59, 57
5, 0, Note_on_c, 9, 59, 0
5, 10, Note_on_c, 9, 59, 58
5, 46, Note_on_c, 9, 59, 0
5, 213, Note_on_c, 9, 59, 84
5, 224, Note_on_c, 9, 59, 0
5, 454, Note_on_c, 9, 59, 68
5, 464, Note_on_c, 9, 59, 0
5, 491, Note_on_c, 9, 59, 59
5, 560, Note_on_c, 9, 59, 0
5, 614, Note_on_c, 9, 59, 84
5, 674, Note_on_c, 9, 59, 0
5, 741, Note_on_c, 9, 59, 65
5, 754, Note_on_c, 9, 59, 0
5, 818, Note_on_c, 9, 59, 73
5, 827, Note_on_c, 9, 59, 0
5, 852, Note_on_c, 9, 59, 92
5, 927, Note_on_c, 9, 59, 0
5, 964, Note_on_c, 9, 59, 79
5, 1020, Note_on_c, 9, 59, 0
5, 1081, Note_on_c, 9, 59, 93
5, 1156, Note_on_c, 9, 59, 0
5, 1175, Note_on_c, 9, 59, 62
5, 1189, Note_on_c, 9, 59, 0
5, 1209, Note_on_c, 9, 59, 82
5, 1283, Note_on_c, 9, 59, 0
5, 1325, Note_on_c, 9, 59, 118
5, 1421, Note_on_c, 9, 59, 0
5, 1451, Note_on_c, 9, 59, 59
5, 1514, Note_on_c, 9, 59, 0
5, 1542, Note_on_c, 9, 59, 81
5, 1563, Note_on_c, 9, 59, 0
5, 1580, Note_on_c, 9, 59, 92
5, 1649, Note_on_c, 9, 59, 0
5, 1672, Note_on_c, 9, 59, 47
5, 1688, Note_on_c, 9, 59, 0
5, 1702, Note_on_c, 9, 59, 100
5, 1775, Note_on_c, 9, 59, 0
5, 1792, Note_on_c, 9, 59, 66
5, 1801, Note_on_c, 9, 59, 0
5, 1822, Note_on_c, 9, 59, 92
5, 1907, Note_on_c, 9, 59, 0
5, 1938, Note_on_c, 9, 59, 86
5, 2011, Note_on_c, 9, 59, 0
5, 2049, Note_on_c, 9, 59, 91
5, 2118, Note_on_c, 9, 59, 0
5, 2139, Note_on_c, 9, 59, 66
5, 2148, Note_on_c, 9, 59, 0
5, 2169, Note_on_c, 9, 59, 87
5, 2257, Note_on_c, 9, 59, 0
5, 2288, Note_on_c, 9, 59, 95
5, 2364, Note_on_c, 9, 59, 0
5, 2379, Note_on_c, 9, 59, 57
5, 2388, Note_on_c, 9, 59, 0
5, 2406, Note_on_c, 9, 59, 90
5, 2483, Note_on_c, 9, 59, 0
5, 2524, Note_on_c, 9, 59, 94
5, 2593, Note_on_c, 9, 59, 0
5, 2645, Note_on_c, 9, 59, 93
5, 2710, Note_on_c, 9, 59, 0
5, 2732, Note_on_c, 9, 59, 65
5, 2747, Note_on_c, 9, 59, 0
5, 2763, Note_on_c, 9, 59, 98
5, 2846, Note_on_c, 9, 59, 0
5, 2880, Note_on_c, 9, 59, 94
5, 2965, Note_on_c, 9, 59, 0
5, 3004, Note_on_c, 9, 59, 90
5, 3073, Note_on_c, 9, 59, 0
5, 3092, Note_on_c, 9, 59, 63
5, 3105, Note_on_c, 9, 59, 0
5, 3125, Note_on_c, 9, 59, 84
5, 3205, Note_on_c, 9, 59, 0
5, 3239, Note_on_c, 9, 59, 93
5, 3325, Note_on_c, 9, 59, 0
5, 3363, Note_on_c, 9, 59, 95
5, 3429, Note_on_c, 9, 59, 0
5, 3455, Note_on_c, 9, 59, 66
5, 3469, Note_on_c, 9, 59, 0
5, 3485, Note_on_c, 9, 59, 98
5, 3578, Note_on_c, 9, 59, 0
5, 3600, Note_on_c, 9, 59, 100
5, 3698, Note_on_c, 9, 59, 0
5, 3720, Note_on_c, 9, 59, 86
5, 3789, Note_on_c, 9, 59, 0
5, 3808, Note_on_c, 9, 59, 93
5, 3908, Note_on_c, 9, 59, 0
5, 3923, Note_on_c, 9, 59, 70
5, 3931, Note_on_c, 9, 59, 0
5, 3957, Note_on_c, 9, 59, 87
5, 4060, Note_on_c, 9, 59, 0
5, 4083, Note_on_c, 9, 59, 91
5, 4156, Note_on_c, 9, 59, 0
5, 4176, Note_on_c, 9, 59, 69
5, 4184, Note_on_c, 9, 59, 0
5, 4206, Note_on_c, 9, 59, 92
5, 4306, Note_on_c, 9, 59, 0
5, 4333, Note_on_c, 9, 59, 85
5, 4408, Note_on_c, 9, 59, 0
5, 4449, Note_on_c, 9, 59, 83
5, 4516, Note_on_c, 9, 59, 0
5, 4571, Note_on_c, 9, 59, 71
5, 4599, Note_on_c, 9, 59, 0
5, 4773, Note_on_c, 9, 59, 84
5, 4799, Note_on_c, 9, 59, 0
5, 4814, Note_on_c, 9, 59, 64
5, 4898, Note_on_c, 9, 59, 0
5, 4923, Note_on_c, 9, 59, 87
5, 5018, Note_on_c, 9, 59, 0
5, 5049, Note_on_c, 9, 59, 90
5, 5123, Note_on_c, 9, 59, 0
5, 5140, Note_on_c, 9, 59, 75
5, 5148, Note_on_c, 9, 59, 0
5, 5168, Note_on_c, 9, 59, 94
5, 5260, Note_on_c, 9, 59, 0
5, 5282, Note_on_c, 9, 59, 94
5, 5368, Note_on_c, 9, 59, 0
5, 5403, Note_on_c, 9, 59, 100
5, 5505, Note_on_c, 9, 59, 0
5, 5570, Note_on_c, 9, 59, 71
5, 5578, Note_on_c, 9, 59, 0
5, 5604, Note_on_c, 9, 59, 100
5, 5681, Note_on_c, 9, 59, 0
5, 5693, Note_on_c, 9, 59, 50
5, 5703, Note_on_c, 9, 59, 0
5, 5724, Note_on_c, 9, 59, 86
5, 5747, Note_on_c, 9, 59, 0
5, 5764, Note_on_c, 9, 59, 98
5, 5842, Note_on_c, 9, 59, 0
5, 5872, Note_on_c, 9, 59, 67
5, 5947, Note_on_c, 9, 59, 0
5, 5967, Note_on_c, 9, 59, 71
5, 5975, Note_on_c, 9, 59, 0
5, 5996, Note_on_c, 9, 59, 86
5, 6085, Note_on_c, 9, 59, 0
5, 6118, Note_on_c, 9, 59, 97
5, 6206, Note_on_c, 9, 59, 0
5, 6238, Note_on_c, 9, 59, 97
5, 6312, Note_on_c, 9, 59, 0
5, 6331, Note_on_c, 9, 59, 57
5, 6341, Note_on_c, 9, 59, 0
5, 6363, Note_on_c, 9, 59, 93
5, 6454, Note_on_c, 9, 59, 0
5, 6487, Note_on_c, 9, 59, 95
5, 6567, Note_on_c, 9, 59, 0
5, 6607, Note_on_c, 9, 59, 95
5, 6697, Note_on_c, 9, 59, 0
5, 6727, Note_on_c, 9, 59, 82
5, 6817, Note_on_c, 9, 59, 0
5, 6848, Note_on_c, 9, 59, 90
5, 6914, Note_on_c, 9, 59, 0
5, 6935, Note_on_c, 9, 59, 75
5, 6951, Note_on_c, 9, 59, 0
5, 6967, Note_on_c, 9, 59, 95
5, 7058, Note_on_c, 9, 59, 0
5, 7084, Note_on_c, 9, 59, 89
5, 7158, Note_on_c, 9, 59, 0
5, 7177, Note_on_c, 9, 59, 70
5, 7189, Note_on_c, 9, 59, 0
5, 7209, Note_on_c, 9, 59, 70
5, 7222, Note_on_c, 9, 59, 0
5, 7280, Note_on_c, 9, 59, 101
5, 7406, Note_on_c, 9, 59, 0
5, 7519, Note_on_c, 9, 59, 80
5, 7529, Note_on_c, 9, 59, 0
5, 7561, Note_on_c, 9, 59, 101
5, 7647, Note_on_c, 9, 59, 0
5, 7673, Note_on_c, 9, 59, 57
5, 7738, Note_on_c, 9, 59, 0
5, 7771, Note_on_c, 9, 59, 75
5, 7787, Note_on_c, 9, 59, 0
5, 7803, Note_on_c, 9, 59, 85
5, 7887, Note_on_c, 9, 59, 0
5, 7920, Note_on_c, 9, 59, 77
5, 7996, Note_on_c, 9, 59, 0
5, 8041, Note_on_c, 9, 59, 93
5, 8112, Note_on_c, 9, 59, 0
5, 8132, Note_on_c, 9, 59, 61
5, 8149, Note_on_c, 9, 59, 0
5, 8166, Note_on_c, 9, 59, 85
5, 8247, Note_on_c, 9, 59, 0
5, 8286, Note_on_c, 9, 59, 92
5, 8349, Note_on_c, 9, 59, 0
5, 8411, Note_on_c, 9, 59, 82
5, 8421, Note_on_c, 9, 59, 0
5, 8497, Note_on_c, 9, 59, 84
5, 8505, Note_on_c, 9, 59, 0
5, 8531, Note_on_c, 9, 59, 85
5, 8604, Note_on_c, 9, 59, 0
5, 8643, Note_on_c, 9, 59, 87
5, 8707, Note_on_c, 9, 59, 0
5, 8756, Note_on_c, 9, 59, 89
5, 8836, Note_on_c, 9, 59, 0
5, 8881, Note_on_c, 9, 59, 88
5, 8924, Note_on_c, 9, 59, 0
5, 8974, Note_on_c, 9, 59, 75
5, 8982, Note_on_c, 9, 59, 0
5, 9006, Note_on_c, 9, 59, 84
5, 9081, Note_on_c, 9, 59, 0
5, 9122, Note_on_c, 9, 59, 74
5, 9144, Note_on_c, 9, 59, 0
5, 9209, Note_on_c, 9, 59, 81
5, 9219, Note_on_c, 9, 59, 0
5, 9245, Note_on_c, 9, 59, 91
5, 9321, Note_on_c, 9, 59, 0
5, 9399, Note_on_c, 9, 59, 77
5, 9443, Note_on_c, 9, 59, 0
5, 9494, Note_on_c, 9, 59, 97
5, 9538, Note_on_c, 9, 59, 0
5, 9595, Note_on_c, 9, 59, 90
5, 9612, Note_on_c, 9, 59, 0
5, 9647, Note_on_c, 9, 59, 78
5, 9663, Note_on_c, 9, 59, 0
5, 9686, Note_on_c, 9, 59, 79
5, 9705, Note_on_c, 9, 59, 0
5, 9729, Note_on_c, 9, 59, 93
5, 9806, Note_on_c, 9, 59, 0
5, 9848, Note_on_c, 9, 59, 88
5, 9917, Note_on_c, 9, 59, 0
5, 9965, Note_on_c, 9, 59, 82
5, 10047, Note_on_c, 9, 59, 0
5, 10067, Note_on_c, 9, 59, 66
5, 10079, Note_on_c, 9, 59, 0
5, 10195, Note_on_c, 9, 59, 81
5, 10235, Note_on_c, 9, 59, 0
5, 10309, Note_on_c, 9, 59, 67
5, 10318, Note_on_c, 9, 59, 0
5, 10381, Note_on_c, 9, 59, 76
5, 10392, Note_on_c, 9, 59, 0
5, 10415, Note_on_c, 9, 59, 82
5, 10433, Note_on_c, 9, 59, 0
5, 10458, Note_on_c, 9, 59, 84
5, 10513, Note_on_c, 9, 59, 0
5, 10570, Note_on_c, 9, 59, 91
5, 10625, Note_on_c, 9, 59, 0
5, 10685, Note_on_c, 9, 59, 87
5, 10724, Note_on_c, 9, 59, 0
5, 10774, Note_on_c, 9, 59, 53
5, 10784, Note_on_c, 9, 59, 0
5, 10808, Note_on_c, 9, 59, 78
5, 10872, Note_on_c, 9, 59, 0
5, 10923, Note_on_c, 9, 59, 93
5, 10964, Note_on_c, 9, 59, 0
5, 11011, Note_on_c, 9, 59, 71
5, 11025, Note_on_c, 9, 59, 0
5, 11046, Note_on_c, 9, 59, 85
5, 11111, Note_on_c, 9, 59, 0
5, 11161, Note_on_c, 9, 59, 97
5, 11223, Note_on_c, 9, 59, 0
5, 11284, Note_on_c, 9, 59, 88
5, 11335, Note_on_c, 9, 59, 0
5, 11369, Note_on_c, 9, 59, 71
5, 11380, Note_on_c, 9, 59, 0
5, 11403, Note_on_c, 9, 59, 85
5, 11477, Note_on_c, 9, 59, 0
5, 11519, Note_on_c, 9, 59, 96
5, 11579, Note_on_c, 9, 59, 0
5, 11611, Note_on_c, 9, 59, 67
5, 11620, Note_on_c, 9, 59, 0
5, 11640, Note_on_c, 9, 59, 83
5, 11716, Note_on_c, 9, 59, 0
5, 11754, Note_on_c, 9, 59, 92
5, 11811, Note_on_c, 9, 59, 0
5, 11873, Note_on_c, 9, 59, 112
5, 11931, Note_on_c, 9, 59, 0
5, 11962, Note_on_c, 9, 59, 66
5, 11971, Note_on_c, 9, 59, 0
5, 11994, Note_on_c, 9, 59, 73
5, 12070, Note_on_c, 9, 59, 0
5, 12108, Note_on_c, 9, 59, 100
5, 12170, Note_on_c, 9, 59, 0
5, 12214, Note_on_c, 9, 59, 46
5, 12224, Note_on_c, 9, 59, 0
5, 12243, Note_on_c, 9, 59, 73
5, 12320, Note_on_c, 9, 59, 0
5, 12364, Note_on_c, 9, 59, 95
5, 12419, Note_on_c, 9, 59, 0
5, 12457, Note_on_c, 9, 59, 63
5, 12472, Note_on_c, 9, 59, 0
5, 12495, Note_on_c, 9, 59, 75
5, 12537, Note_on_c, 9, 59, 0
5, 12574, Note_on_c, 9, 59, 54
5, 12587, Note_on_c, 9, 59, 0
5, 12611, Note_on_c, 9, 59, 89
5, 12676, Note_on_c, 9, 59, 0
5, 12697, Note_on_c, 9, 59, 59
5, 12707, Note_on_c, 9, 59, 0
5, 12735, Note_on_c, 9, 59, 66
5, 12751, Note_on_c, 9, 59, 0
5, 12810, Note_on_c, 9, 59, 74
5, 12818, Note_on_c, 9, 59, 0
5, 12849, Note_on_c, 9, 59, 93
5, 12898, Note_on_c, 9, 59, 0
5, 12928, Note_on_c, 9, 59, 51
5, 12939, Note_on_c, 9, 59, 0
5, 12969, Note_on_c, 9, 59, 64
5, 12993, Note_on_c, 9, 59, 0
5, 13054, Note_on_c, 9, 59, 84
5, 13063, Note_on_c, 9, 59, 0
5, 13091, Note_on_c, 9, 59, 91
5, 13174, Note_on_c, 9, 59, 0
5, 13205, Note_on_c, 9, 59, 66
5, 13253, Note_on_c, 9, 59, 0
5, 13289, Note_on_c, 9, 59, 70
5, 13298, Note_on_c, 9, 59, 0
5, 13324, Note_on_c, 9, 59, 90
5, 13405, Note_on_c, 9, 59, 0
5, 13442, Note_on_c, 9, 59, 87
5, 13501, Note_on_c, 9, 59, 0
5, 13566, Note_on_c, 9, 59, 90
5, 13638, Note_on_c, 9, 59, 0
5, 13690, Note_on_c, 9, 59, 93
5, 13742, Note_on_c, 9, 59, 0
5, 13777, Note_on_c, 9, 59, 56
5, 13787, Note_on_c, 9, 59, 0
5, 13816, Note_on_c, 9, 59, 87
5, 13893, Note_on_c, 9, 59, 0
5, 13931, Note_on_c, 9, 59, 90
5, 13990, Note_on_c, 9, 59, 0
5, 14046, Note_on_c, 9, 59, 96
5, 14117, Note_on_c, 9, 59, 0
5, 14169, Note_on_c, 9, 59, 90
5, 14234, Note_on_c, 9, 59, 0
5, 14288, Note_on_c, 9, 59, 92
5, 14337, Note_on_c, 9, 59, 0
5, 14374, Note_on_c, 9, 59, 67
5, 14383, Note_on_c, 9, 59, 0
5, 14405, Note_on_c, 9, 59, 80
5, 14473, Note_on_c, 9, 59, 0
5, 14521, Note_on_c, 9, 59, 97
5, 14568, Note_on_c, 9, 59, 0
5, 14603, Note_on_c, 9, 59, 73
5, 14611, Note_on_c, 9, 59, 0
5, 14683, Note_on_c, 9, 59, 73
5, 14695, Note_on_c, 9, 59, 0
5, 14717, Note_on_c, 9, 59, 84
5, 14735, Note_on_c, 9, 59, 0
5, 14758, Note_on_c, 9, 59, 87
5, 14811, Note_on_c, 9, 59, 0
5, 14909, Note_on_c, 9, 59, 75
5, 14921, Note_on_c, 9, 59, 0
5, 14948, Note_on_c, 9, 59, 98
5, 15001, Note_on_c, 9, 59, 0
5, 15196, Note_on_c, 9, 59, 78
5, 15204, Note_on_c, 9, 59, 0
5, 15234, Note_on_c, 9, 59, 95
5, 15282, Note_on_c, 9, 59, 0
5, 15322, Note_on_c, 9, 59, 77
5, 15330, Note_on_c, 9, 59, 0
5, 15359, Note_on_c, 9, 59, 100
5, 15425, Note_on_c, 9, 59, 0
5, 15479, Note_on_c, 9, 59, 114
5, 15554, Note_on_c, 9, 59, 0
5, 15609, Note_on_c, 9, 59, 70
5, 15664, Note_on_c, 9, 59, 0
5, 15729, Note_on_c, 9, 59, 85
5, 15792, Note_on_c, 9, 59, 0
5, 15812, Note_on_c, 9, 59, 67
5, 15829, Note_on_c, 9, 59, 0
5, 15848, Note_on_c, 9, 59, 81
5, 15916, Note_on_c, 9, 59, 0
5, 15970, Note_on_c, 9, 59, 88
5, 16035, Note_on_c, 9, 59, 0
5, 16089, Note_on_c, 9, 59, 87
5, 16148, Note_on_c, 9, 59, 0
5, 16173, Note_on_c, 9, 59, 64
5, 16184, Note_on_c, 9, 59, 0
5, 16208, Note_on_c, 9, 59, 81
5, 16271, Note_on_c, 9, 59, 0
5, 16319, Note_on_c, 9, 59, 96
5, 16391, Note_on_c, 9, 59, 0
5, 16435, Note_on_c, 9, 59, 95
5, 16511, Note_on_c, 9, 59, 0
5, 16558, Note_on_c, 9, 59, 93
5, 16627, Note_on_c, 9, 59, 0
5, 16646, Note_on_c, 9, 59, 63
5, 16663, Note_on_c, 9, 59, 0
5, 16681, Note_on_c, 9, 59, 91
5, 16764, Note_on_c, 9, 59, 0
5, 16798, Note_on_c, 9, 59, 93
5, 16873, Note_on_c, 9, 59, 0
5, 16917, Note_on_c, 9, 59, 92
5, 16996, Note_on_c, 9, 59, 0
5, 17039, Note_on_c, 9, 59, 97
5, 17113, Note_on_c, 9, 59, 0
5, 17161, Note_on_c, 9, 59, 95
5, 17216, Note_on_c, 9, 59, 0
5, 17252, Note_on_c, 9, 59, 85
5, 17261, Note_on_c, 9, 59, 0
5, 17283, Note_on_c, 9, 59, 86
5, 17361, Note_on_c, 9, 59, 0
5, 17407, Note_on_c, 9, 59, 96
5, 17478, Note_on_c, 9, 59, 0
5, 17531, Note_on_c, 9, 59, 93
5, 17590, Note_on_c, 9, 59, 0
5, 17642, Note_on_c, 9, 59, 84
5, 17648, Note_on_c, 9, 59, 0
5, 17761, Note_on_c, 9, 51, 73
5, 17768, Note_on_c, 9, 59, 84
5, 17777, Note_on_c, 9, 51, 0
5, 17788, Note_on_c, 9, 59, 0
5, 17893, Note_on_c, 9, 59, 86
5, 17936, Note_on_c, 9, 59, 0
5, 18015, Note_on_c, 9, 59, 87
5, 18050, Note_on_c, 9, 59, 0
5, 18094, Note_on_c, 9, 51, 84
5, 18110, Note_on_c, 9, 51, 0
5, 18133, Note_on_c, 9, 59, 80
5, 18189, Note_on_c, 9, 59, 0
5, 18252, Note_on_c, 9, 59, 94
5, 18315, Note_on_c, 9, 59, 0
5, 18370, Note_on_c, 9, 59, 94
5, 18422, Note_on_c, 9, 59, 0
5, 18460, Note_on_c, 9, 59, 65
5, 18470, Note_on_c, 9, 59, 0
5, 18490, Note_on_c, 9, 59, 84
5, 18561, Note_on_c, 9, 59, 0
5, 18605, Note_on_c, 9, 59, 98
5, 18662, Note_on_c, 9, 59, 0
5, 18697, Note_on_c, 9, 59, 57
5, 18707, Note_on_c, 9, 59, 0
5, 18728, Note_on_c, 9, 59, 80
5, 18800, Note_on_c, 9, 53, 90
5, 18801, Note_on_c, 9, 59, 0
5, 18820, Note_on_c, 9, 53, 0
5, 18838, Note_on_c, 9, 59, 68
5, 18914, Note_on_c, 9, 59, 0
5, 18956, Note_on_c, 9, 59, 85
5, 19013, Note_on_c, 9, 59, 0
5, 19070, Note_on_c, 9, 59, 97
5, 19133, Note_on_c, 9, 59, 0
5, 19162, Note_on_c, 9, 59, 66
5, 19174, Note_on_c, 9, 59, 0
5, 19191, Note_on_c, 9, 59, 92
5, 19263, Note_on_c, 9, 59, 0
5, 19310, Note_on_c, 9, 59, 103
5, 19385, Note_on_c, 9, 59, 0
5, 19432, Note_on_c, 9, 59, 101
5, 19515, Note_on_c, 9, 59, 0
5, 19559, Note_on_c, 9, 59, 95
5, 19636, Note_on_c, 9, 59, 0
5, 19657, Note_on_c, 9, 59, 56
5, 19668, Note_on_c, 9, 59, 0
5, 19689, Note_on_c, 9, 59, 87
5, 19759, Note_on_c, 9, 59, 0
5, 19803, Note_on_c, 9, 59, 97
5, 19867, Note_on_c, 9, 59, 0
5, 19889, Note_on_c, 9, 59, 69
5, 19908, Note_on_c, 9, 59, 0
5, 19924, Note_on_c, 9, 59, 89
5, 20004, Note_on_c, 9, 59, 0
5, 20041, Note_on_c, 9, 59, 102
5, 20131, Note_on_c, 9, 59, 0
5, 20168, Note_on_c, 9, 59, 70
5, 20191, Note_on_c, 9, 59, 0
5, 20251, Note_on_c, 9, 59, 79
5, 20265, Note_on_c, 9, 59, 0
5, 20287, Note_on_c, 9, 59, 95
5, 20376, Note_on_c, 9, 59, 0
5, 20407, Note_on_c, 9, 59, 92
5, 20489, Note_on_c, 9, 59, 0
5, 20529, Note_on_c, 9, 59, 93
5, 20594, Note_on_c, 9, 59, 0
5, 20616, Note_on_c, 9, 59, 71
5, 20628, Note_on_c, 9, 59, 0
5, 20648, Note_on_c, 9, 59, 89
5, 20736, Note_on_c, 9, 59, 0
5, 20759, Note_on_c, 9, 59, 83
5, 20825, Note_on_c, 9, 59, 0
5, 20844, Note_on_c, 9, 59, 91
5, 20900, Note_on_c, 9, 59, 0
5, 20939, Note_on_c, 9, 59, 48
5, 20949, Note_on_c, 9, 59, 0
5, 20965, Note_on_c, 9, 59, 82
5, 20984, Note_on_c, 9, 59, 0
5, 21008, Note_on_c, 9, 59, 98
5, 21086, Note_on_c, 9, 59, 0
5, 21127, Note_on_c, 9, 59, 59
5, 21136, Note_on_c, 9, 59, 0
5, 21211, Note_on_c, 9, 59, 77
5, 21226, Note_on_c, 9, 59, 0
5, 21245, Note_on_c, 9, 59, 93
5, 21332, Note_on_c, 9, 59, 0
5, 21363, Note_on_c, 9, 59, 73
5, 21373, Note_on_c, 9, 59, 0
5, 21446, Note_on_c, 9, 59, 71
5, 21455, Note_on_c, 9, 59, 0
5, 21481, Note_on_c, 9, 59, 95
5, 21575, Note_on_c, 9, 59, 0
5, 21610, Note_on_c, 9, 59, 59
5, 21628, Note_on_c, 9, 59, 0
5, 21686, Note_on_c, 9, 59, 60
5, 21695, Note_on_c, 9, 59, 0
5, 21720, Note_on_c, 9, 59, 98
5, 21798, Note_on_c, 9, 59, 0
5, 21846, Note_on_c, 9, 59, 62
5, 21856, Note_on_c, 9, 59, 0
5, 21928, Note_on_c, 9, 59, 61
5, 21939, Note_on_c, 9, 59, 0
5, 21968, Note_on_c, 9, 59, 75
5, 22015, Note_on_c, 9, 59, 0
5, 22163, Note_on_c, 9, 59, 60
5, 22172, Note_on_c, 9, 59, 0
5, 22197, Note_on_c, 9, 59, 96
5, 22277, Note_on_c, 9, 59, 0
5, 22322, Note_on_c, 9, 59, 63
5, 22331, Note_on_c, 9, 59, 0
5, 22397, Note_on_c, 9, 59, 51
5, 22407, Note_on_c, 9, 59, 0
5, 22430, Note_on_c, 9, 59, 94
5, 22526, Note_on_c, 9, 59, 0
5, 22560, Note_on_c, 9, 59, 72
5, 22580, Note_on_c, 9, 59, 0
5, 22644, Note_on_c, 9, 59, 60
5, 22654, Note_on_c, 9, 59, 0
5, 22687, Note_on_c, 9, 59, 101
5, 22760, Note_on_c, 9, 59, 0
5, 22807, Note_on_c, 9, 59, 112
5, 22872, Note_on_c, 9, 59, 0
5, 22903, Note_on_c, 9, 59, 60
5, 22911, Note_on_c, 9, 59, 0
5, 22932, Note_on_c, 9, 59, 93
5, 22976, Note_on_c, 9, 59, 0
5, 23006, Note_on_c, 9, 51, 85
5, 23021, Note_on_c, 9, 51, 0
5, 23043, Note_on_c, 9, 51, 84
5, 23047, Note_on_c, 9, 46, 81
5, 23101, Note_on_c, 9, 51, 0
5, 23112, Note_on_c, 9, 46, 0
5, 23170, Note_on_c, 9, 51, 87
5, 23223, Note_on_c, 9, 51, 0
5, 23287, Note_on_c, 9, 51, 94
5, 23367, Note_on_c, 9, 51, 0
5, 23409, Note_on_c, 9, 51, 104
5, 23482, Note_on_c, 9, 51, 0
5, 23528, Note_on_c, 9, 51, 107
5, 23603, Note_on_c, 9, 51, 0
5, 23619, Note_on_c, 9, 51, 77
5, 23635, Note_on_c, 9, 51, 0
5, 23648, Note_on_c, 9, 51, 101
5, 23728, Note_on_c, 9, 51, 0
5, 23759, Note_on_c, 9, 51, 105
5, 23837, Note_on_c, 9, 51, 0
5, 23877, Note_on_c, 9, 51, 103
5, 23958, Note_on_c, 9, 51, 0
5, 23999, Note_on_c, 9, 51, 101
5, 24076, Note_on_c, 9, 51, 0
5, 24117, Note_on_c, 9, 51, 105
5, 24175, Note_on_c, 9, 51, 0
5, 24208, Note_on_c, 9, 51, 64
5, 24223, Note_on_c, 9, 51, 0
5, 24235, Note_on_c, 9, 51, 96
5, 24318, Note_on_c, 9, 51, 0
5, 24352, Note_on_c, 9, 51, 107
5, 24434, Note_on_c, 9, 51, 0
5, 24453, Note_on_c, 9, 51, 59
5, 24467, Note_on_c, 9, 51, 0
5, 24484, Note_on_c, 9, 51, 90
5, 24549, Note_on_c, 9, 51, 0
5, 24568, Note_on_c, 9, 51, 66
5, 24577, Note_on_c, 9, 51, 0
5, 24602, Note_on_c, 9, 51, 100
5, 24688, Note_on_c, 9, 51, 0
5, 24726, Note_on_c, 9, 51, 103
5, 24779, Note_on_c, 9, 51, 0
5, 24813, Note_on_c, 9, 51, 52
5, 24822, Note_on_c, 9, 51, 0
5, 24843, Note_on_c, 9, 51, 90
5, 24912, Note_on_c, 9, 51, 0
5, 24929, Note_on_c, 9, 51, 61
5, 24942, Note_on_c, 9, 51, 0
5, 24962, Note_on_c, 9, 51, 90
5, 25039, Note_on_c, 9, 51, 0
5, 25056, Note_on_c, 9, 51, 63
5, 25067, Note_on_c, 9, 51, 0
5, 25086, Note_on_c, 9, 51, 91
5, 25154, Note_on_c, 9, 51, 0
5, 25206, Note_on_c, 9, 51, 96
5, 25260, Note_on_c, 9, 51, 0
5, 25294, Note_on_c, 9, 51, 73
5, 25311, Note_on_c, 9, 51, 0
5, 25328, Note_on_c, 9, 51, 77
5, 25393, Note_on_c, 9, 51, 0
5, 25407, Note_on_c, 9, 53, 83
5, 25438, Note_on_c, 9, 53, 0
5, 25452, Note_on_c, 9, 51, 46
5, 25497, Note_on_c, 9, 51, 0
5, 25521, Note_on_c, 9, 51, 64
5, 25539, Note_on_c, 9, 51, 0
5, 25560, Note_on_c, 9, 51, 66
5, 25665, Note_on_c, 9, 51, 0
5, 25687, Note_on_c, 9, 51, 82
5, 25727, Note_on_c, 9, 51, 0
5, 25774, Note_on_c, 9, 51, 84
5, 25790, Note_on_c, 9, 51, 0
5, 25861, Note_on_c, 9, 51, 76
5, 25882, Note_on_c, 9, 51, 0
5, 25896, Note_on_c, 9, 51, 75
5, 25913, Note_on_c, 9, 51, 0
5, 25936, Note_on_c, 9, 51, 84
5, 26009, Note_on_c, 9, 51, 0
5, 26045, Note_on_c, 9, 51, 80
5, 26088, Note_on_c, 9, 51, 0
5, 26162, Note_on_c, 9, 51, 89
5, 26260, Note_on_c, 9, 51, 0
5, 26280, Note_on_c, 9, 51, 90
5, 26342, Note_on_c, 9, 51, 0
5, 26387, Note_on_c, 9, 51, 89
5, 26484, Note_on_c, 9, 51, 60
5, 26485, Note_on_c, 9, 51, 0
5, 26495, Note_on_c, 9, 51, 0
5, 26523, Note_on_c, 9, 51, 91
5, 26605, Note_on_c, 9, 51, 0
5, 26647, Note_on_c, 9, 51, 89
5, 26731, Note_on_c, 9, 51, 0
5, 26763, Note_on_c, 9, 51, 67
5, 26789, Note_on_c, 9, 51, 0
5, 26839, Note_on_c, 9, 51, 104
5, 26983, Note_on_c, 9, 51, 0
5, 27004, Note_on_c, 9, 51, 65
5, 27070, Note_on_c, 9, 51, 0
5, 27092, Note_on_c, 9, 51, 52
5, 27103, Note_on_c, 9, 51, 0
5, 27122, Note_on_c, 9, 51, 73
5, 27207, Note_on_c, 9, 51, 0
5, 27241, Note_on_c, 9, 51, 88
5, 27325, Note_on_c, 9, 51, 0
5, 27363, Note_on_c, 9, 51, 84
5, 27417, Note_on_c, 9, 51, 0
5, 27442, Note_on_c, 9, 51, 62
5, 27458, Note_on_c, 9, 51, 0
5, 27479, Note_on_c, 9, 51, 95
5, 27578, Note_on_c, 9, 51, 0
5, 27599, Note_on_c, 9, 51, 70
5, 27658, Note_on_c, 9, 51, 0
5, 27690, Note_on_c, 9, 51, 65
5, 27698, Note_on_c, 9, 51, 0
5, 27720, Note_on_c, 9, 51, 84
5, 27814, Note_on_c, 9, 51, 0
5, 27837, Note_on_c, 9, 51, 82
5, 27924, Note_on_c, 9, 51, 0
5, 27959, Note_on_c, 9, 51, 91
5, 28029, Note_on_c, 9, 51, 0
5, 28052, Note_on_c, 9, 51, 55
5, 28069, Note_on_c, 9, 51, 0
5, 28080, Note_on_c, 9, 51, 83
5, 28164, Note_on_c, 9, 51, 0
5, 28199, Note_on_c, 9, 51, 93
5, 28290, Note_on_c, 9, 51, 0
5, 28323, Note_on_c, 9, 51, 94
5, 28395, Note_on_c, 9, 51, 0
5, 28412, Note_on_c, 9, 51, 63
5, 28428, Note_on_c, 9, 51, 0
5, 28440, Note_on_c, 9, 51, 98
5, 28536, Note_on_c, 9, 51, 0
5, 28557, Note_on_c, 9, 51, 87
5, 28603, Note_on_c, 9, 51, 0
5, 28647, Note_on_c, 9, 51, 90
5, 28669, Note_on_c, 9, 51, 0
5, 28724, Note_on_c, 9, 51, 75
5, 28743, Note_on_c, 9, 51, 0
5, 28758, Note_on_c, 9, 51, 74
5, 28777, Note_on_c, 9, 51, 0
5, 28801, Note_on_c, 9, 51, 95
5, 28882, Note_on_c, 9, 51, 0
5, 28915, Note_on_c, 9, 51, 93
5, 28989, Note_on_c, 9, 51, 0
5, 29034, Note_on_c, 9, 51, 90
5, 29105, Note_on_c, 9, 51, 0
5, 29129, Note_on_c, 9, 51, 66
5, 29144, Note_on_c, 9, 51, 0
5, 29162, Note_on_c, 9, 51, 80
5, 29242, Note_on_c, 9, 51, 0
5, 29281, Note_on_c, 9, 51, 88
5, 29356, Note_on_c, 9, 51, 0
5, 29405, Note_on_c, 9, 51, 89
5, 29471, Note_on_c, 9, 51, 0
5, 29490, Note_on_c, 9, 51, 64
5, 29508, Note_on_c, 9, 51, 0
5, 29524, Note_on_c, 9, 51, 84
5, 29608, Note_on_c, 9, 51, 0
5, 29649, Note_on_c, 9, 51, 92
5, 29727, Note_on_c, 9, 51, 0
5, 29766, Note_on_c, 9, 51, 87
5, 29847, Note_on_c, 9, 51, 0
5, 29884, Note_on_c, 9, 51, 93
5, 29967, Note_on_c, 9, 51, 0
5, 30003, Note_on_c, 9, 51, 83
5, 30072, Note_on_c, 9, 51, 0
5, 30083, Note_on_c, 9, 51, 80
5, 30086, Note_on_c, 9, 53, 87
5, 30113, Note_on_c, 9, 51, 0
5, 30129, Note_on_c, 9, 51, 43
5, 30130, Note_on_c, 9, 53, 0
5, 30179, Note_on_c, 9, 51, 0
5, 30206, Note_on_c, 9, 51, 61
5, 30226, Note_on_c, 9, 51, 0
5, 30247, Note_on_c, 9, 51, 58
5, 30278, Note_on_c, 9, 51, 0
5, 30320, Note_on_c, 9, 51, 91
5, 30351, Note_on_c, 9, 51, 0
5, 30366, Note_on_c, 9, 51, 39
5, 30399, Note_on_c, 9, 51, 0
5, 30447, Note_on_c, 9, 51, 71
5, 30470, Note_on_c, 9, 51, 0
5, 30492, Note_on_c, 9, 51, 49
5, 30513, Note_on_c, 9, 51, 0
5, 30558, Note_on_c, 9, 51, 100
5, 30589, Note_on_c, 9, 51, 0
5, 30613, Note_on_c, 9, 51, 44
5, 30637, Note_on_c, 9, 51, 0
5, 30684, Note_on_c, 9, 51, 75
5, 30706, Note_on_c, 9, 51, 0
5, 30730, Note_on_c, 9, 51, 55
5, 30750, Note_on_c, 9, 51, 0
5, 30798, Note_on_c, 9, 51, 96
5, 30828, Note_on_c, 9, 51, 0
5, 30928, Note_on_c, 9, 51, 53
5, 30940, Note_on_c, 9, 51, 0
5, 30964, Note_on_c, 9, 51, 65
5, 31037, Note_on_c, 9, 51, 0
5, 31083, Note_on_c, 9, 51, 87
5, 31141, Note_on_c, 9, 51, 0
5, 31176, Note_on_c, 9, 51, 56
5, 31186, Note_on_c, 9, 51, 0
5, 31203, Note_on_c, 9, 51, 82
5, 31276, Note_on_c, 9, 51, 0
5, 31325, Note_on_c, 9, 51, 101
5, 31395, Note_on_c, 9, 51, 0
5, 31421, Note_on_c, 9, 51, 61
5, 31434, Note_on_c, 9, 51, 0
5, 31452, Note_on_c, 9, 51, 73
5, 31521, Note_on_c, 9, 51, 0
5, 31572, Note_on_c, 9, 51, 80
5, 31581, Note_on_c, 9, 51, 0
5, 31657, Note_on_c, 9, 51, 70
5, 31665, Note_on_c, 9, 51, 0
5, 31694, Note_on_c, 9, 51, 72
5, 31705, Note_on_c, 9, 51, 0
5, 31895, Note_on_c, 9, 51, 72
5, 31915, Note_on_c, 9, 51, 0
5, 31932, Note_on_c, 9, 51, 74
5, 31991, Note_on_c, 9, 51, 0
5, 32049, Note_on_c, 9, 51, 58
5, 32057, Note_on_c, 9, 51, 0
5, 32135, Note_on_c, 9, 51, 66
5, 32149, Note_on_c, 9, 51, 0
5, 32169, Note_on_c, 9, 51, 69
5, 32223, Note_on_c, 9, 51, 0
5, 32285, Note_on_c, 9, 51, 86
5, 32300, Note_on_c, 9, 51, 0
5, 32365, Note_on_c, 9, 51, 90
5, 32383, Note_on_c, 9, 51, 0
5, 32448, Note_on_c, 9, 51, 63
5, 32457, Note_on_c, 9, 51, 0
5, 32483, Note_on_c, 9, 51, 73
5, 32497, Note_on_c, 9, 51, 0
5, 32524, Note_on_c, 9, 51, 103
5, 32571, Note_on_c, 9, 51, 0
5, 32605, Note_on_c, 9, 51, 107
5, 32707, Note_on_c, 9, 51, 0
5, 32734, Note_on_c, 9, 51, 44
5, 32745, Note_on_c, 9, 51, 0
5, 32767, Note_on_c, 9, 51, 77
5, 32816, Note_on_c, 9, 51, 0
5, 32861, Note_on_c, 9, 51, 82
5, 32875, Note_on_c, 9, 51, 0
5, 32895, Note_on_c, 9, 51, 87
5, 32953, Note_on_c, 9, 51, 0
5, 33014, Note_on_c, 9, 51, 83
5, 33039, Note_on_c, 9, 51, 0
5, 33132, Note_on_c, 9, 51, 89
5, 33164, Note_on_c, 9, 51, 0
5, 33254, Note_on_c, 9, 51, 90
5, 33280, Note_on_c, 9, 51, 0
5, 33338, Note_on_c, 9, 51, 69
5, 33348, Note_on_c, 9, 51, 0
5, 33378, Note_on_c, 9, 51, 43
5, 33386, Note_on_c, 9, 51, 0
5, 33453, Note_on_c, 9, 51, 92
5, 33473, Note_on_c, 9, 51, 0
5, 33494, Note_on_c, 9, 51, 72
5, 33514, Note_on_c, 9, 51, 0
5, 33605, Note_on_c, 9, 51, 91
5, 33638, Note_on_c, 9, 51, 0
5, 33719, Note_on_c, 9, 51, 90
5, 33754, Note_on_c, 9, 51, 0
5, 33810, Note_on_c, 9, 51, 55
5, 33823, Note_on_c, 9, 51, 0
5, 33842, Note_on_c, 9, 51, 81
5, 33904, Note_on_c, 9, 51, 0
5, 33965, Note_on_c, 9, 51, 96
5, 34030, Note_on_c, 9, 51, 0
5, 34057, Note_on_c, 9, 51, 49
5, 34069, Note_on_c, 9, 51, 0
5, 34088, Note_on_c, 9, 51, 80
5, 34149, Note_on_c, 9, 51, 0
5, 34208, Note_on_c, 9, 51, 94
5, 34288, Note_on_c, 9, 51, 0
5, 34331, Note_on_c, 9, 51, 62
5, 34346, Note_on_c, 9, 51, 0
5, 34420, Note_on_c, 9, 51, 55
5, 34428, Note_on_c, 9, 51, 0
5, 34448, Note_on_c, 9, 51, 80
5, 34501, Note_on_c, 9, 51, 0
5, 34560, Note_on_c, 9, 51, 91
5, 34592, Note_on_c, 9, 51, 0
5, 34677, Note_on_c, 9, 51, 91
5, 34720, Note_on_c, 9, 51, 0
5, 34766, Note_on_c, 9, 51, 59
5, 34780, Note_on_c, 9, 51, 0
5, 34799, Note_on_c, 9, 51, 75
5, 34862, Note_on_c, 9, 51, 0
5, 34920, Note_on_c, 9, 51, 96
5, 34982, Note_on_c, 9, 51, 0
5, 35044, Note_on_c, 9, 51, 88
5, 35085, Note_on_c, 9, 51, 0
5, 35163, Note_on_c, 9, 51, 90
5, 35217, Note_on_c, 9, 51, 0
5, 35287, Note_on_c, 9, 51, 90
5, 35339, Note_on_c, 9, 51, 0
5, 35372, Note_on_c, 9, 51, 77
5, 35386, Note_on_c, 9, 51, 0
5, 35410, Note_on_c, 9, 51, 88
5, 35475, Note_on_c, 9, 51, 0
5, 35525, Note_on_c, 9, 51, 95
5, 35585, Note_on_c, 9, 51, 0
5, 35642, Note_on_c, 9, 51, 92
5, 35692, Note_on_c, 9, 51, 0
5, 35736, Note_on_c, 9, 51, 65
5, 35752, Note_on_c, 9, 51, 0
5, 35771, Note_on_c, 9, 51, 74
5, 35836, Note_on_c, 9, 51, 0
5, 35890, Note_on_c, 9, 51, 96
5, 35921, Note_on_c, 9, 51, 0
5, 35977, Note_on_c, 9, 51, 48
5, 35990, Note_on_c, 9, 51, 0
5, 36006, Note_on_c, 9, 51, 80
5, 36063, Note_on_c, 9, 51, 0
5, 36123, Note_on_c, 9, 51, 96
5, 36176, Note_on_c, 9, 51, 0
5, 36242, Note_on_c, 9, 51, 93
5, 36292, Note_on_c, 9, 51, 0
5, 36363, Note_on_c, 9, 51, 93
5, 36396, Note_on_c, 9, 51, 0
5, 36451, Note_on_c, 9, 51, 73
5, 36472, Note_on_c, 9, 51, 0
5, 36486, Note_on_c, 9, 51, 84
5, 36546, Note_on_c, 9, 51, 0
5, 36606, Note_on_c, 9, 51, 96
5, 36655, Note_on_c, 9, 51, 0
5, 36699, Note_on_c, 9, 51, 82
5, 36711, Note_on_c, 9, 51, 0
5, 36732, Note_on_c, 9, 51, 87
5, 36790, Note_on_c, 9, 51, 0
5, 36853, Note_on_c, 9, 51, 97
5, 36887, Note_on_c, 9, 51, 0
5, 36941, Note_on_c, 9, 51, 71
5, 36949, Note_on_c, 9, 51, 0
5, 36976, Note_on_c, 9, 51, 88
5, 37001, Note_on_c, 9, 51, 0
5, 37060, Note_on_c, 9, 51, 81
5, 37068, Note_on_c, 9, 51, 0
5, 37096, Note_on_c, 9, 51, 100
5, 37165, Note_on_c, 9, 51, 0
5, 37295, Note_on_c, 9, 51, 72
5, 37312, Note_on_c, 9, 51, 0
5, 37330, Note_on_c, 9, 51, 75
5, 37386, Note_on_c, 9, 51, 0
5, 37445, Note_on_c, 9, 51, 91
5, 37487, Note_on_c, 9, 51, 0
5, 37563, Note_on_c, 9, 51, 61
5, 37571, Note_on_c, 9, 51, 0
5, 37645, Note_on_c, 9, 51, 83
5, 37658, Note_on_c, 9, 51, 0
5, 37684, Note_on_c, 9, 51, 70
5, 37733, Note_on_c, 9, 51, 0
5, 37882, Note_on_c, 9, 51, 87
5, 37898, Note_on_c, 9, 51, 0
5, 37923, Note_on_c, 9, 51, 73
5, 37973, Note_on_c, 9, 51, 0
5, 38124, Note_on_c, 9, 51, 86
5, 38139, Note_on_c, 9, 51, 0
5, 38160, Note_on_c, 9, 51, 70
5, 38202, Note_on_c, 9, 51, 0
5, 38236, Note_on_c, 9, 51, 94
5, 38256, Note_on_c, 9, 51, 0
5, 38284, Note_on_c, 9, 51, 47
5, 38292, Note_on_c, 9, 51, 0
5, 38357, Note_on_c, 9, 51, 73
5, 38375, Note_on_c, 9, 51, 0
5, 38399, Note_on_c, 9, 51, 66
5, 38449, Note_on_c, 9, 51, 0
5, 38610, Note_on_c, 9, 51, 69
5, 38628, Note_on_c, 9, 51, 0
5, 38647, Note_on_c, 9, 51, 70
5, 38694, Note_on_c, 9, 51, 0
5, 38849, Note_on_c, 9, 51, 83
5, 38867, Note_on_c, 9, 51, 0
5, 38893, Note_on_c, 9, 51, 60
5, 38912, Note_on_c, 9, 51, 0
5, 39087, Note_on_c, 9, 51, 87
5, 39104, Note_on_c, 9, 51, 0
5, 39175, Note_on_c, 9, 51, 59
5, 39183, Note_on_c, 9, 51, 0
5, 39212, Note_on_c, 9, 51, 68
5, 39233, Note_on_c, 9, 51, 0
5, 39249, Note_on_c, 9, 51, 70
5, 39264, Note_on_c, 9, 51, 0
5, 39290, Note_on_c, 9, 51, 64
5, 39299, Note_on_c, 9, 51, 0
5, 39328, Note_on_c, 9, 51, 86
5, 39343, Note_on_c, 9, 51, 0
5, 39369, Note_on_c, 9, 51, 106
5, 39419, Note_on_c, 9, 51, 0
5, 39488, Note_on_c, 9, 51, 96
5, 39508, Note_on_c, 9, 51, 0
5, 39573, Note_on_c, 9, 51, 87
5, 39586, Note_on_c, 9, 51, 0
5, 39613, Note_on_c, 9, 51, 92
5, 39638, Note_on_c, 9, 51, 0
5, 39689, Note_on_c, 9, 51, 104
5, 39710, Note_on_c, 9, 51, 0
5, 39738, Note_on_c, 9, 51, 65
5, 39746, Note_on_c, 9, 51, 0
5, 39810, Note_on_c, 9, 51, 75
5, 39819, Note_on_c, 9, 51, 0
5, 39845, Note_on_c, 9, 51, 91
5, 39891, Note_on_c, 9, 51, 0
5, 40042, Note_on_c, 9, 51, 105
5, 40075, Note_on_c, 9, 51, 0
5, 40075, End_track
6, 0, Start_track
6, 0, MIDI_port, 0
6, 0, Title_t, "Drum hits"
6, 252, Note_on_c, 9, 35, 37
6, 264, Note_on_c, 9, 35, 0
6, 575, Note_on_c, 9, 40, 37
6, 585, Note_on_c, 9, 40, 0
6, 622, Note_on_c, 9, 40, 37
6, 628, Note_on_c, 9, 40, 0
6, 656, Note_on_c, 9, 35, 37
6, 666, Note_on_c, 9, 35, 0
6, 700, Note_on_c, 9, 35, 37
6, 733, Note_on_c, 9, 35, 0
6, 1411, Note_on_c, 9, 35, 37
6, 1429, Note_on_c, 9, 35, 0
6, 1458, Note_on_c, 9, 35, 37
6, 1486, Note_on_c, 9, 35, 0
6, 1749, Note_on_c, 9, 45, 37
6, 1755, Note_on_c, 9, 45, 0
6, 1782, Note_on_c, 9, 45, 37
6, 1788, Note_on_c, 9, 45, 0
6, 1818, Note_on_c, 9, 45, 37
6, 1823, Note_on_c, 9, 45, 0
6, 1854, Note_on_c, 9, 35, 37
6, 1868, Note_on_c, 9, 35, 0
6, 1897, Note_on_c, 9, 35, 37
6, 1943, Note_on_c, 9, 35, 0
6, 2128, Note_on_c, 9, 35, 37
6, 2141, Note_on_c, 9, 35, 0
6, 2529, Note_on_c, 9, 40, 37
6, 2535, Note_on_c, 9, 40, 0
6, 2586, Note_on_c, 9, 40, 37
6, 2594, Note_on_c, 9, 40, 0
6, 2646, Note_on_c, 9, 40, 37
6, 2654, Note_on_c, 9, 40, 0
6, 2680, Note_on_c, 9, 40, 37
6, 2690, Note_on_c, 9, 40, 0
6, 2711, Note_on_c, 9, 35, 37
6, 2744, Note_on_c, 9, 35, 0
6, 2781, Note_on_c, 9, 35, 37
6, 2802, Note_on_c, 9, 35, 0
6, 2837, Note_on_c, 9, 35, 37
6, 2865, Note_on_c, 9, 35, 0
6, 2897, Note_on_c, 9, 35, 37
6, 2915, Note_on_c, 9, 35, 0
6, 3258, Note_on_c, 9, 40, 37
6, 3264, Note_on_c, 9, 40, 0
6, 3286, Note_on_c, 9, 40, 37
6, 3295, Note_on_c, 9, 40, 0
6, 3372, Note_on_c, 9, 40, 37
6, 3380, Note_on_c, 9, 40, 0
6, 3406, Note_on_c, 9, 40, 37
6, 3413, Note_on_c, 9, 40, 0
6, 3481, Note_on_c, 9, 40, 37
6, 3492, Note_on_c, 9, 40, 0
6, 3521, Note_on_c, 9, 40, 37
6, 3529, Note_on_c, 9, 40, 0
6, 3597, Note_on_c, 9, 40, 37
6, 3606, Note_on_c, 9, 40, 0
6, 3636, Note_on_c, 9, 40, 37
6, 3653, Note_on_c, 9, 40, 0
6, 3719, Note_on_c, 9, 40, 37
6, 3727, Note_on_c, 9, 40, 0
6, 3755, Note_on_c, 9, 40, 37
6, 3768, Note_on_c, 9, 40, 0
6, 3794, Note_on_c, 9, 35, 37
6, 3796, Note_on_c, 9, 57, 37
6, 3802, Note_on_c, 9, 57, 0
6, 3814, Note_on_c, 9, 35, 0
6, 4209, Note_on_c, 9, 37, 37
6, 4237, Note_on_c, 9, 37, 0
6, 4291, Note_on_c, 9, 35, 37
6, 4308, Note_on_c, 9, 35, 0
6, 4337, Note_on_c, 9, 35, 37
6, 4360, Note_on_c, 9, 35, 0
6, 4696, Note_on_c, 9, 37, 37
6, 4720, Note_on_c, 9, 37, 0
6, 4773, Note_on_c, 9, 35, 37
6, 4793, Note_on_c, 9, 35, 0
6, 4814, Note_on_c, 9, 35, 37
6, 4832, Note_on_c, 9, 35, 0
6, 5164, Note_on_c, 9, 37, 37
6, 5194, Note_on_c, 9, 37, 0
6, 5248, Note_on_c, 9, 35, 37
6, 5258, Note_on_c, 9, 35, 0
6, 5286, Note_on_c, 9, 35, 37
6, 5297, Note_on_c, 9, 35, 0
6, 5479, Note_on_c, 9, 35, 37
6, 5490, Note_on_c, 9, 35, 0
6, 5559, Note_on_c, 9, 40, 37
6, 5585, Note_on_c, 9, 40, 0
6, 5604, Note_on_c, 9, 40, 37
6, 5620, Note_on_c, 9, 40, 0
6, 5633, Note_on_c, 9, 40, 37
6, 5640, Note_on_c, 9, 40, 0
6, 5671, Note_on_c, 9, 40, 37
6, 5678, Note_on_c, 9, 40, 0
6, 5706, Note_on_c, 9, 37, 37
6, 5718, Note_on_c, 9, 37, 0
6, 5744, Note_on_c, 9, 35, 37
6, 5780, Note_on_c, 9, 35, 0
6, 5952, Note_on_c, 9, 35, 37
6, 5977, Note_on_c, 9, 35, 0
6, 5995, Note_on_c, 9, 35, 37
6, 6014, Note_on_c, 9, 35, 0
6, 6524, Note_on_c, 9, 40, 37
6, 6530, Note_on_c, 9, 40, 0
6, 6561, Note_on_c, 9, 35, 37
6, 6577, Note_on_c, 9, 35, 0
6, 6605, Note_on_c, 9, 40, 37
6, 6613, Note_on_c, 9, 40, 0
6, 6652, Note_on_c, 9, 35, 37
6, 6661, Note_on_c, 9, 35, 0
6, 6688, Note_on_c, 9, 40, 37
6, 6699, Note_on_c, 9, 40, 0
6, 6733, Note_on_c, 9, 35, 37
6, 6757, Note_on_c, 9, 35, 0
6, 6812, Note_on_c, 9, 35, 37
6, 6825, Note_on_c, 9, 35, 0
6, 7212, Note_on_c, 9, 40, 37
6, 7217, Note_on_c, 9, 40, 0
6, 7274, Note_on_c, 9, 40, 37
6, 7285, Note_on_c, 9, 40, 0
6, 7336, Note_on_c, 9, 40, 37
6, 7353, Note_on_c, 9, 40, 0
6, 7367, Note_on_c, 9, 40, 37
6, 7378, Note_on_c, 9, 40, 0
6, 7514, Note_on_c, 9, 40, 37
6, 7526, Note_on_c, 9, 40, 0
6, 7559, Note_on_c, 9, 40, 37
6, 7571, Note_on_c, 9, 40, 0
6, 7598, Note_on_c, 9, 35, 37
6, 7604, Note_on_c, 9, 35, 0
6, 7639, Note_on_c, 9, 35, 37
6, 7642, Note_on_c, 9, 57, 37
6, 7647, Note_on_c, 9, 57, 0
6, 7657, Note_on_c, 9, 35, 0
6, 7688, Note_on_c, 9, 35, 37
6, 7702, Note_on_c, 9, 35, 0
6, 7879, Note_on_c, 9, 35, 37
6, 7909, Note_on_c, 9, 35, 0
6, 8569, Note_on_c, 9, 35, 37
6, 8582, Note_on_c, 9, 35, 0
6, 8602, Note_on_c, 9, 35, 37
6, 8635, Note_on_c, 9, 35, 0
6, 8644, Note_on_c, 9, 35, 37
6, 8674, Note_on_c, 9, 35, 0
6, 9078, Note_on_c, 9, 40, 37
6, 9084, Note_on_c, 9, 40, 0
6, 9203, Note_on_c, 9, 35, 37
6, 9221, Note_on_c, 9, 35, 0
6, 9247, Note_on_c, 9, 35, 37
6, 9279, Note_on_c, 9, 35, 0
6, 9325, Note_on_c, 9, 35, 37
6, 9340, Note_on_c, 9, 35, 0
6, 9571, Note_on_c, 9, 35, 37
6, 9589, Note_on_c, 9, 35, 0
6, 10030, Note_on_c, 9, 40, 37
6, 10036, Note_on_c, 9, 40, 0
6, 10087, Note_on_c, 9, 40, 37
6, 10095, Note_on_c, 9, 40, 0
6, 10119, Note_on_c, 9, 40, 37
6, 10124, Note_on_c, 9, 40, 0
6, 10152, Note_on_c, 9, 35, 37
6, 10173, Note_on_c, 9, 35, 0
6, 10216, Note_on_c, 9, 35, 37
6, 10240, Note_on_c, 9, 35, 0
6, 10774, Note_on_c, 9, 35, 37
6, 10780, Note_on_c, 9, 35, 0
6, 11443, Note_on_c, 9, 34, 37
6, 11449, Note_on_c, 9, 34, 0
6, 11477, Note_on_c, 9, 34, 37
6, 11507, Note_on_c, 9, 34, 0
6, 11519, Note_on_c, 9, 35, 37
6, 11546, Note_on_c, 9, 35, 0
6, 12251, Note_on_c, 9, 40, 37
6, 12258, Note_on_c, 9, 40, 0
6, 12328, Note_on_c, 9, 40, 37
6, 12339, Note_on_c, 9, 40, 0
6, 12373, Note_on_c, 9, 40, 37
6, 12380, Note_on_c, 9, 40, 0
6, 12453, Note_on_c, 9, 35, 37
6, 12461, Note_on_c, 9, 35, 0
6, 12495, Note_on_c, 9, 57, 37
6, 12497, Note_on_c, 9, 35, 37
6, 12501, Note_on_c, 9, 57, 0
6, 12506, Note_on_c, 9, 35, 0
6, 12687, Note_on_c, 9, 35, 37
6, 12709, Note_on_c, 9, 35, 0
6, 13326, Note_on_c, 9, 40, 37
6, 13333, Note_on_c, 9, 40, 0
6, 13528, Note_on_c, 9, 40, 37
6, 13534, Note_on_c, 9, 40, 0
6, 13568, Note_on_c, 9, 40, 37
6, 13573, Note_on_c, 9, 40, 0
6, 13643, Note_on_c, 9, 35, 37
6, 13650, Note_on_c, 9, 35, 0
6, 13686, Note_on_c, 9, 35, 37
6, 13694, Note_on_c, 9, 35, 0
6, 13773, Note_on_c, 9, 40, 37
6, 13780, Note_on_c, 9, 40, 0
6, 13814, Note_on_c, 9, 40, 37
6, 13836, Note_on_c, 9, 40, 0
6, 13892, Note_on_c, 9, 35, 37
6, 13901, Note_on_c, 9, 35, 0
6, 13937, Note_on_c, 9, 35, 37
6, 13948, Note_on_c, 9, 35, 0
6, 14015, Note_on_c, 9, 40, 37
6, 14023, Note_on_c, 9, 40, 0
6, 14056, Note_on_c, 9, 40, 37
6, 14070, Note_on_c, 9, 40, 0
6, 14127, Note_on_c, 9, 35, 37
6, 14154, Note_on_c, 9, 35, 0
6, 14164, Note_on_c, 9, 35, 37
6, 14186, Note_on_c, 9, 35, 0
6, 14249, Note_on_c, 9, 40, 37
6, 14257, Note_on_c, 9, 40, 0
6, 14283, Note_on_c, 9, 40, 37
6, 14300, Note_on_c, 9, 40, 0
6, 14353, Note_on_c, 9, 35, 37
6, 14392, Note_on_c, 9, 35, 0
6, 14473, Note_on_c, 9, 40, 37
6, 14485, Note_on_c, 9, 40, 0
6, 14523, Note_on_c, 9, 40, 37
6, 14536, Note_on_c, 9, 40, 0
6, 14597, Note_on_c, 9, 35, 37
6, 14622, Note_on_c, 9, 35, 0
6, 14640, Note_on_c, 9, 35, 37
6, 14657, Note_on_c, 9, 35, 0
6, 14759, Note_on_c, 9, 40, 37
6, 14771, Note_on_c, 9, 40, 0
6, 14826, Note_on_c, 9, 35, 37
6, 14842, Note_on_c, 9, 35, 0
6, 14870, Note_on_c, 9, 35, 37
6, 14887, Note_on_c, 9, 35, 0
6, 15026, Note_on_c, 9, 40, 37
6, 15032, Note_on_c, 9, 40, 0
6, 15063, Note_on_c, 9, 35, 37
6, 15082, Note_on_c, 9, 35, 0
6, 15109, Note_on_c, 9, 35, 37
6, 15123, Note_on_c, 9, 35, 0
6, 15191, Note_on_c, 9, 35, 37
6, 15199, Note_on_c, 9, 35, 0
6, 15236, Note_on_c, 9, 40, 37
6, 15242, Note_on_c, 9, 40, 0
6, 15273, Note_on_c, 9, 37, 37
6, 15282, Note_on_c, 9, 37, 0
6, 15315, Note_on_c, 9, 35, 37
6, 15351, Note_on_c, 9, 35, 0
6, 15361, Note_on_c, 9, 35, 37
6, 15401, Note_on_c, 9, 35, 0
6, 15526, Note_on_c, 9, 40, 37
6, 15533, Note_on_c, 9, 40, 0
6, 15567, Note_on_c, 9, 35, 37
6, 15582, Note_on_c, 9, 35, 0
6, 15648, Note_on_c, 9, 40, 37
6, 15655, Note_on_c, 9, 40, 0
6, 15687, Note_on_c, 9, 35, 37
6, 15697, Note_on_c, 9, 35, 0
6, 15769, Note_on_c, 9, 40, 37
6, 15778, Note_on_c, 9, 40, 0
6, 15807, Note_on_c, 9, 35, 37
6, 15823, Note_on_c, 9, 35, 0
6, 15896, Note_on_c, 9, 40, 37
6, 15906, Note_on_c, 9, 40, 0
6, 15932, Note_on_c, 9, 35, 37
6, 15948, Note_on_c, 9, 35, 0
6, 16010, Note_on_c, 9, 40, 37
6, 16021, Note_on_c, 9, 40, 0
6, 16049, Note_on_c, 9, 35, 37
6, 16064, Note_on_c, 9, 35, 0
6, 16129, Note_on_c, 9, 40, 37
6, 16131, Note_on_c, 9, 57, 37
6, 16137, Note_on_c, 9, 57, 0
6, 16144, Note_on_c, 9, 40, 0
6, 16166, Note_on_c, 9, 35, 37
6, 16176, Note_on_c, 9, 35, 0
6, 16210, Note_on_c, 9, 40, 37
6, 16232, Note_on_c, 9, 40, 0
6, 16250, Note_on_c, 9, 35, 37
6, 16259, Note_on_c, 9, 35, 0
6, 16281, Note_on_c, 9, 35, 37
6, 16309, Note_on_c, 9, 35, 0
6, 16319, Note_on_c, 9, 35, 37
6, 16346, Note_on_c, 9, 35, 0
6, 16810, Note_on_c, 9, 40, 37
6, 16816, Note_on_c, 9, 40, 0
6, 17206, Note_on_c, 9, 40, 37
6, 17212, Note_on_c, 9, 40, 0
6, 17243, Note_on_c, 9, 34, 37
6, 17273, Note_on_c, 9, 34, 0
6, 17287, Note_on_c, 9, 35, 37
6, 17311, Note_on_c, 9, 35, 0
6, 17484, Note_on_c, 9, 35, 37
6, 17504, Note_on_c, 9, 35, 0
6, 18095, Note_on_c, 9, 40, 37
6, 18102, Note_on_c, 9, 40, 0
6, 18209, Note_on_c, 9, 35, 37
6, 18238, Note_on_c, 9, 35, 0
6, 18251, Note_on_c, 9, 35, 37
6, 18277, Note_on_c, 9, 35, 0
6, 18996, Note_on_c, 9, 47, 37
6, 19002, Note_on_c, 9, 47, 0
6, 19032, Note_on_c, 9, 47, 37
6, 19046, Note_on_c, 9, 47, 0
6, 19073, Note_on_c, 9, 45, 37
6, 19086, Note_on_c, 9, 45, 0
6, 19110, Note_on_c, 9, 43, 37
6, 19115, Note_on_c, 9, 43, 0
6, 19147, Note_on_c, 9, 40, 37
6, 19181, Note_on_c, 9, 40, 0
6, 19189, Note_on_c, 9, 35, 37
6, 19193, Note_on_c, 9, 57, 37
6, 19198, Note_on_c, 9, 57, 0
6, 19203, Note_on_c, 9, 35, 0
6, 19605, Note_on_c, 9, 45, 37
6, 19610, Note_on_c, 9, 45, 0
6, 19642, Note_on_c, 9, 40, 37
6, 19659, Note_on_c, 9, 40, 0
6, 19681, Note_on_c, 9, 35, 37
6, 19681, Note_on_c, 9, 57, 37
6, 19687, Note_on_c, 9, 57, 0
6, 19704, Note_on_c, 9, 35, 0
6, 20250, Note_on_c, 9, 40, 37
6, 20264, Note_on_c, 9, 40, 0
6, 20415, Note_on_c, 9, 40, 37
6, 20421, Note_on_c, 9, 40, 0
6, 20485, Note_on_c, 9, 40, 37
6, 20494, Note_on_c, 9, 40, 0
6, 20528, Note_on_c, 9, 40, 37
6, 20537, Note_on_c, 9, 40, 0
6, 20728, Note_on_c, 9, 40, 37
6, 20734, Note_on_c, 9, 40, 0
6, 20768, Note_on_c, 9, 40, 37
6, 20774, Note_on_c, 9, 40, 0
6, 20839, Note_on_c, 9, 40, 37
6, 20845, Note_on_c, 9, 40, 0
6, 20958, Note_on_c, 9, 40, 37
6, 20964, Note_on_c, 9, 40, 0
6, 21001, Note_on_c, 9, 40, 37
6, 21008, Note_on_c, 9, 40, 0
6, 21070, Note_on_c, 9, 40, 37
6, 21079, Note_on_c, 9, 40, 0
6, 21205, Note_on_c, 9, 40, 37
6, 21211, Note_on_c, 9, 40, 0
6, 21246, Note_on_c, 9, 40, 37
6, 21252, Note_on_c, 9, 40, 0
6, 21284, Note_on_c, 9, 40, 37
6, 21290, Note_on_c, 9, 40, 0
6, 21323, Note_on_c, 9, 35, 37
6, 21330, Note_on_c, 9, 35, 0
6, 21858, Note_on_c, 9, 40, 37
6, 21864, Note_on_c, 9, 40, 0
6, 21970, Note_on_c, 9, 40, 37
6, 21976, Note_on_c, 9, 40, 0
6, 22050, Note_on_c, 9, 35, 37
6, 22067, Note_on_c, 9, 35, 0
6, 22093, Note_on_c, 9, 35, 37
6, 22113, Note_on_c, 9, 35, 0
6, 22278, Note_on_c, 9, 40, 37
6, 22285, Note_on_c, 9, 40, 0
6, 22523, Note_on_c, 9, 40, 37
6, 22532, Note_on_c, 9, 40, 0
6, 22566, Note_on_c, 9, 40, 37
6, 22578, Note_on_c, 9, 40, 0
6, 23004, Note_on_c, 9, 45, 37
6, 23013, Note_on_c, 9, 45, 0
6, 23172, Note_on_c, 9, 35, 37
6, 23187, Note_on_c, 9, 35, 0
6, 23242, Note_on_c, 9, 35, 37
6, 23255, Note_on_c, 9, 35, 0
6, 23962, Note_on_c, 9, 40, 37
6, 23972, Note_on_c, 9, 40, 0
6, 24423, Note_on_c, 9, 40, 37
6, 24433, Note_on_c, 9, 40, 0
6, 24447, Note_on_c, 9, 40, 37
6, 24457, Note_on_c, 9, 40, 0
6, 24557, Note_on_c, 9, 35, 37
6, 24572, Note_on_c, 9, 35, 0
6, 24611, Note_on_c, 9, 35, 37
6, 24623, Note_on_c, 9, 35, 0
6, 24694, Note_on_c, 9, 35, 37
6, 24701, Note_on_c, 9, 35, 0
6, 24731, Note_on_c, 9, 40, 37
6, 24738, Note_on_c, 9, 40, 0
6, 24764, Note_on_c, 9, 35, 37
6, 24776, Note_on_c, 9, 35, 0
6, 24804, Note_on_c, 9, 40, 37
6, 24811, Note_on_c, 9, 40, 0
6, 24895, Note_on_c, 9, 40, 37
6, 24902, Note_on_c, 9, 40, 0
6, 24928, Note_on_c, 9, 35, 37
6, 24947, Note_on_c, 9, 35, 0
6, 24969, Note_on_c, 9, 35, 37
6, 24985, Note_on_c, 9, 35, 0
6, 25211, Note_on_c, 9, 40, 37
6, 25222, Note_on_c, 9, 40, 0
6, 25243, Note_on_c, 9, 40, 37
6, 25251, Note_on_c, 9, 40, 0
6, 25323, Note_on_c, 9, 40, 37
6, 25332, Note_on_c, 9, 40, 0
6, 25352, Note_on_c, 9, 40, 37
6, 25366, Note_on_c, 9, 40, 0
6, 25398, Note_on_c, 9, 35, 37
6, 25416, Note_on_c, 9, 35, 0
6, 25569, Note_on_c, 9, 40, 37
6, 25580, Note_on_c, 9, 40, 0
6, 25604, Note_on_c, 9, 40, 37
6, 25611, Note_on_c, 9, 40, 0
6, 25633, Note_on_c, 9, 35, 37
6, 25653, Note_on_c, 9, 35, 0
6, 25727, Note_on_c, 9, 40, 37
6, 25736, Note_on_c, 9, 40, 0
6, 25766, Note_on_c, 9, 40, 37
6, 25778, Note_on_c, 9, 40, 0
6, 25849, Note_on_c, 9, 35, 37
6, 25868, Note_on_c, 9, 35, 0
6, 25936, Note_on_c, 9, 40, 37
6, 25942, Note_on_c, 9, 40, 0
6, 25966, Note_on_c, 9, 40, 37
6, 25977, Note_on_c, 9, 40, 0
6, 26011, Note_on_c, 9, 40, 37
6, 26017, Note_on_c, 9, 40, 0
6, 26104, Note_on_c, 9, 35, 37
6, 26111, Note_on_c, 9, 35, 0
6, 26479, Note_on_c, 9, 40, 37
6, 26485, Note_on_c, 9, 40, 0
6, 26562, Note_on_c, 9, 40, 37
6, 26579, Note_on_c, 9, 40, 0
6, 26652, Note_on_c, 9, 40, 37
6, 26665, Note_on_c, 9, 40, 0
6, 26739, Note_on_c, 9, 40, 37
6, 26752, Note_on_c, 9, 40, 0
6, 26814, Note_on_c, 9, 40, 37
6, 26831, Note_on_c, 9, 40, 0
6, 26849, Note_on_c, 9, 37, 37
6, 26877, Note_on_c, 9, 37, 0
6, 26884, Note_on_c, 9, 57, 37
6, 26889, Note_on_c, 9, 35, 37
6, 26896, Note_on_c, 9, 57, 0
6, 26903, Note_on_c, 9, 35, 0
6, 27801, Note_on_c, 9, 34, 37
6, 27837, Note_on_c, 9, 34, 0
6, 27845, Note_on_c, 9, 35, 37
6, 27906, Note_on_c, 9, 35, 0
6, 27925, Note_on_c, 9, 35, 37
6, 27939, Note_on_c, 9, 35, 0
6, 28288, Note_on_c, 9, 29, 37
6, 28758, Note_on_c, 9, 34, 37
6, 28793, Note_on_c, 9, 29, 0
6, 28802, Note_on_c, 9, 35, 37
6, 28809, Note_on_c, 9, 34, 0
6, 28815, Note_on_c, 9, 35, 0
6, 29086, Note_on_c, 9, 29, 37
6, 29112, Note_on_c, 9, 29, 0
6, 29122, Note_on_c, 9, 34, 37
6, 29158, Note_on_c, 9, 34, 0
6, 29161, Note_on_c, 9, 57, 37
6, 29162, Note_on_c, 9, 35, 37
6, 29207, Note_on_c, 9, 57, 0
6, 29387, Note_on_c, 9, 35, 0
6, 29484, Note_on_c, 9, 35, 37
6, 29504, Note_on_c, 9, 35, 0
6, 29608, Note_on_c, 9, 35, 37
6, 29619, Note_on_c, 9, 35, 0
6, 29850, Note_on_c, 9, 40, 37
6, 29858, Note_on_c, 9, 40, 0
6, 29892, Note_on_c, 9, 40, 37
6, 29904, Note_on_c, 9, 40, 0
6, 29969, Note_on_c, 9, 35, 37
6, 29999, Note_on_c, 9, 35, 0
6, 30057, Note_on_c, 9, 40, 37
6, 30064, Note_on_c, 9, 40, 0
6, 30091, Note_on_c, 9, 40, 37
6, 30097, Note_on_c, 9, 40, 0
6, 30205, Note_on_c, 9, 35, 37
6, 30213, Note_on_c, 9, 35, 0
6, 30288, Note_on_c, 9, 40, 37
6, 30298, Note_on_c, 9, 40, 0
6, 30325, Note_on_c, 9, 38, 37
6, 30340, Note_on_c, 9, 38, 0
6, 30414, Note_on_c, 9, 35, 37
6, 30422, Note_on_c, 9, 35, 0
6, 30452, Note_on_c, 9, 40, 37
6, 30459, Note_on_c, 9, 40, 0
6, 30509, Note_on_c, 9, 35, 37
6, 30514, Note_on_c, 9, 35, 0
6, 30536, Note_on_c, 9, 41, 37
6, 30560, Note_on_c, 9, 41, 0
6, 30608, Note_on_c, 9, 40, 37
6, 30632, Note_on_c, 9, 40, 0
6, 30649, Note_on_c, 9, 35, 37
6, 30657, Note_on_c, 9, 35, 0
6, 30679, Note_on_c, 9, 34, 37
6, 30723, Note_on_c, 9, 34, 0
6, 30794, Note_on_c, 9, 35, 37
6, 30804, Note_on_c, 9, 35, 0
6, 31579, Note_on_c, 9, 40, 37
6, 31579, Note_on_c, 9, 40, 0
6, 31640, Note_on_c, 9, 35, 37
6, 31658, Note_on_c, 9, 35, 0
6, 31691, Note_on_c, 9, 35, 37
6, 31702, Note_on_c, 9, 35, 0
6, 31810, Note_on_c, 9, 37, 37
6, 31817, Note_on_c, 9, 37, 0
6, 31887, Note_on_c, 9, 35, 37
6, 31905, Note_on_c, 9, 35, 0
6, 31933, Note_on_c, 9, 35, 37
6, 31945, Note_on_c, 9, 35, 0
6, 32014, Note_on_c, 9, 35, 37
6, 32019, Note_on_c, 9, 35, 0
6, 32058, Note_on_c, 9, 37, 37
6, 32085, Note_on_c, 9, 37, 0
6, 32125, Note_on_c, 9, 35, 37
6, 32138, Note_on_c, 9, 35, 0
6, 32168, Note_on_c, 9, 35, 37
6, 32181, Note_on_c, 9, 35, 0
6, 32281, Note_on_c, 9, 37, 37
6, 32299, Note_on_c, 9, 37, 0
6, 32358, Note_on_c, 9, 35, 37
6, 32375, Note_on_c, 9, 35, 0
6, 32399, Note_on_c, 9, 35, 37
6, 32410, Note_on_c, 9, 35, 0
6, 32527, Note_on_c, 9, 37, 37
6, 32538, Note_on_c, 9, 37, 0
6, 32606, Note_on_c, 9, 35, 37
6, 32617, Note_on_c, 9, 35, 0
6, 32653, Note_on_c, 9, 35, 37
6, 32661, Note_on_c, 9, 35, 0
6, 32774, Note_on_c, 9, 37, 37
6, 32789, Note_on_c, 9, 37, 0
6, 32853, Note_on_c, 9, 35, 37
6, 32863, Note_on_c, 9, 35, 0
6, 32900, Note_on_c, 9, 35, 37
6, 32910, Note_on_c, 9, 35, 0
6, 33017, Note_on_c, 9, 37, 37
6, 33033, Note_on_c, 9, 37, 0
6, 33090, Note_on_c, 9, 35, 37
6, 33103, Note_on_c, 9, 35, 0
6, 33133, Note_on_c, 9, 35, 37
6, 33150, Note_on_c, 9, 35, 0
6, 33249, Note_on_c, 9, 37, 37
6, 33277, Note_on_c, 9, 37, 0
6, 33327, Note_on_c, 9, 35, 37
6, 33357, Note_on_c, 9, 35, 0
6, 33490, Note_on_c, 9, 37, 37
6, 33514, Note_on_c, 9, 37, 0
6, 33570, Note_on_c, 9, 35, 37
6, 33572, Note_on_c, 9, 36, 37
6, 33578, Note_on_c, 9, 36, 0
6, 33589, Note_on_c, 9, 35, 0
6, 33610, Note_on_c, 9, 35, 37
6, 33639, Note_on_c, 9, 35, 0
6, 33728, Note_on_c, 9, 37, 37
6, 33761, Note_on_c, 9, 37, 0
6, 33802, Note_on_c, 9, 35, 37
6, 33851, Note_on_c, 9, 35, 0
6, 33971, Note_on_c, 9, 37, 37
6, 34003, Note_on_c, 9, 37, 0
6, 34058, Note_on_c, 9, 35, 37
6, 34084, Note_on_c, 9, 35, 0
6, 34098, Note_on_c, 9, 35, 37
6, 34124, Note_on_c, 9, 35, 0
6, 34286, Note_on_c, 9, 37, 37
6, 34302, Note_on_c, 9, 37, 0
6, 34372, Note_on_c, 9, 29, 37
6, 34509, Note_on_c, 9, 29, 0
6, 34514, Note_on_c, 9, 34, 37
6, 34520, Note_on_c, 9, 29, 37
6, 34553, Note_on_c, 9, 57, 37
6, 34556, Note_on_c, 9, 35, 37
6, 34557, Note_on_c, 9, 29, 0
6, 34564, Note_on_c, 9, 34, 0
6, 34583, Note_on_c, 9, 57, 0
6, 34606, Note_on_c, 9, 35, 0
6, 34839, Note_on_c, 9, 29, 37
6, 34858, Note_on_c, 9, 29, 0
6, 34878, Note_on_c, 9, 34, 37
6, 34917, Note_on_c, 9, 34, 0
6, 34919, Note_on_c, 9, 57, 37
6, 34919, Note_on_c, 9, 35, 37
6, 35059, Note_on_c, 9, 57, 0
6, 35072, Note_on_c, 9, 35, 0
6, 35365, Note_on_c, 9, 35, 37
6, 35373, Note_on_c, 9, 35, 0
6, 35567, Note_on_c, 9, 40, 37
6, 35573, Note_on_c, 9, 40, 0
6, 35776, Note_on_c, 9, 40, 37
6, 35782, Note_on_c, 9, 40, 0
6, 35811, Note_on_c, 9, 35, 37
6, 35821, Note_on_c, 9, 35, 0
6, 35930, Note_on_c, 9, 40, 37
6, 35935, Note_on_c, 9, 40, 0
6, 35969, Note_on_c, 9, 35, 37
6, 35978, Note_on_c, 9, 35, 0
6, 36237, Note_on_c, 9, 40, 37
6, 36246, Note_on_c, 9, 40, 0
6, 36273, Note_on_c, 9, 40, 37
6, 36282, Note_on_c, 9, 40, 0
6, 36352, Note_on_c, 9, 40, 37
6, 36365, Note_on_c, 9, 40, 0
6, 36388, Note_on_c, 9, 40, 37
6, 36398, Note_on_c, 9, 40, 0
6, 36432, Note_on_c, 9, 35, 37
6, 36453, Note_on_c, 9, 35, 0
6, 36809, Note_on_c, 9, 40, 37
6, 36822, Note_on_c, 9, 40, 0
6, 36857, Note_on_c, 9, 35, 37
6, 36866, Note_on_c, 9, 35, 0
6, 36932, Note_on_c, 9, 35, 37
6, 36953, Note_on_c, 9, 35, 0
6, 36978, Note_on_c, 9, 35, 37
6, 36997, Note_on_c, 9, 35, 0
6, 37174, Note_on_c, 9, 35, 37
6, 37190, Note_on_c, 9, 35, 0
6, 37216, Note_on_c, 9, 35, 37
6, 37243, Note_on_c, 9, 35, 0
6, 37285, Note_on_c, 9, 35, 37
6, 37298, Note_on_c, 9, 35, 0
6, 37444, Note_on_c, 9, 40, 37
6, 37450, Note_on_c, 9, 40, 0
6, 37479, Note_on_c, 9, 40, 37
6, 37486, Note_on_c, 9, 40, 0
6, 37521, Note_on_c, 9, 35, 37
6, 37529, Note_on_c, 9, 35, 0
6, 37559, Note_on_c, 9, 40, 37
6, 37575, Note_on_c, 9, 40, 0
6, 37600, Note_on_c, 9, 35, 37
6, 37608, Note_on_c, 9, 35, 0
6, 37631, Note_on_c, 9, 35, 37
6, 37673, Note_on_c, 9, 35, 0
6, 37873, Note_on_c, 9, 40, 37
6, 37902, Note_on_c, 9, 40, 0
6, 38122, Note_on_c, 9, 40, 37
6, 38130, Note_on_c, 9, 40, 0
6, 38203, Note_on_c, 9, 45, 37
6, 38210, Note_on_c, 9, 45, 0
6, 38237, Note_on_c, 9, 45, 37
6, 38252, Note_on_c, 9, 45, 0
6, 38279, Note_on_c, 9, 43, 37
6, 38294, Note_on_c, 9, 43, 0
6, 38322, Note_on_c, 9, 40, 37
6, 38333, Note_on_c, 9, 40, 0
6, 38358, Note_on_c, 9, 35, 37
6, 38374, Note_on_c, 9, 57, 37
6, 38380, Note_on_c, 9, 57, 0
6, 38397, Note_on_c, 9, 35, 0
6, 38564, Note_on_c, 9, 45, 37
6, 38569, Note_on_c, 9, 45, 0
6, 38600, Note_on_c, 9, 40, 37
6, 38616, Note_on_c, 9, 40, 0
6, 38639, Note_on_c, 9, 57, 37
6, 38640, Note_on_c, 9, 35, 37
6, 38652, Note_on_c, 9, 35, 0
6, 38652, Note_on_c, 9, 57, 0
6, 38852, Note_on_c, 9, 40, 37
6, 38859, Note_on_c, 9, 40, 0
6, 38897, Note_on_c, 9, 40, 37
6, 38903, Note_on_c, 9, 40, 0
6, 38969, Note_on_c, 9, 40, 37
6, 38981, Note_on_c, 9, 40, 0
6, 39087, Note_on_c, 9, 40, 37
6, 39098, Note_on_c, 9, 40, 0
6, 39128, Note_on_c, 9, 40, 37
6, 39151, Note_on_c, 9, 40, 0
6, 39195, Note_on_c, 9, 40, 37
6, 39213, Note_on_c, 9, 40, 0
6, 39288, Note_on_c, 9, 40, 37
6, 39303, Note_on_c, 9, 40, 0
6, 39323, Note_on_c, 9, 34, 37
6, 39349, Note_on_c, 9, 34, 0
6, 39363, Note_on_c, 9, 35, 37
6, 39404, Note_on_c, 9, 35, 0
6, 39500, Note_on_c, 9, 35, 37
6, 39506, Note_on_c, 9, 35, 0
6, 39573, Note_on_c, 9, 35, 37
6, 39599, Note_on_c, 9, 35, 0
6, 39613, Note_on_c, 9, 35, 37
6, 39642, Note_on_c, 9, 35, 0
6, 39684, Note_on_c, 9, 35, 37
6, 39699, Note_on_c, 9, 35, 0
6, 39731, Note_on_c, 9, 40, 37
6, 39748, Note_on_c, 9, 40, 0
6, 39775, Note_on_c, 9, 34, 37
6, 39780, Note_on_c, 9, 34, 0
6, 39812, Note_on_c, 9, 57, 37
6, 39812, Note_on_c, 9, 35, 37
6, 39958, Note_on_c, 9, 35, 0
6, 39962, Note_on_c, 9, 57, 0
6, 40030, Note_on_c, 9, 57, 37
6, 40031, Note_on_c, 9, 35, 37
6, 40060, Note_on_c, 9, 57, 0
6, 40070, Note_on_c, 9, 35, 0
6, 40070, End_track
7, 0, Start_track
7, 0, MIDI_port, 0
7, 0, Title_t, "HiHats"
7, 127, Note_on_c, 9, 42, 76
7, 177, Note_on_c, 9, 42, 0
7, 372, Note_on_c, 9, 42, 78
7, 427, Note_on_c, 9, 42, 0
7, 611, Note_on_c, 9, 42, 81
7, 666, Note_on_c, 9, 42, 0
7, 842, Note_on_c, 9, 42, 76
7, 893, Note_on_c, 9, 42, 0
7, 1076, Note_on_c, 9, 42, 79
7, 1129, Note_on_c, 9, 42, 0
7, 1324, Note_on_c, 9, 42, 82
7, 1383, Note_on_c, 9, 42, 0
7, 1569, Note_on_c, 9, 42, 75
7, 1622, Note_on_c, 9, 42, 0
7, 1814, Note_on_c, 9, 46, 76
7, 1862, Note_on_c, 9, 46, 0
7, 2045, Note_on_c, 9, 42, 70
7, 2084, Note_on_c, 9, 42, 0
7, 2287, Note_on_c, 9, 42, 74
7, 2336, Note_on_c, 9, 42, 0
7, 2520, Note_on_c, 9, 42, 71
7, 2577, Note_on_c, 9, 42, 0
7, 2759, Note_on_c, 9, 42, 74
7, 2809, Note_on_c, 9, 42, 0
7, 3003, Note_on_c, 9, 42, 74
7, 3050, Note_on_c, 9, 42, 0
7, 3240, Note_on_c, 9, 42, 69
7, 3294, Note_on_c, 9, 42, 0
7, 3484, Note_on_c, 9, 42, 75
7, 3543, Note_on_c, 9, 42, 0
7, 3719, Note_on_c, 9, 42, 77
7, 3779, Note_on_c, 9, 42, 0
7, 3960, Note_on_c, 9, 42, 71
7, 4017, Note_on_c, 9, 42, 0
7, 4209, Note_on_c, 9, 42, 77
7, 4252, Note_on_c, 9, 42, 0
7, 4452, Note_on_c, 9, 42, 72
7, 4489, Note_on_c, 9, 42, 0
7, 4683, Note_on_c, 9, 46, 64
7, 4709, Note_on_c, 9, 46, 0
7, 4924, Note_on_c, 9, 42, 72
7, 4961, Note_on_c, 9, 42, 0
7, 5172, Note_on_c, 9, 42, 73
7, 5206, Note_on_c, 9, 42, 0
7, 5412, Note_on_c, 9, 46, 60
7, 5439, Note_on_c, 9, 46, 0
7, 5630, Note_on_c, 9, 42, 72
7, 5666, Note_on_c, 9, 42, 0
7, 5866, Note_on_c, 9, 42, 79
7, 5907, Note_on_c, 9, 42, 0
7, 6112, Note_on_c, 9, 42, 80
7, 6159, Note_on_c, 9, 42, 0
7, 6361, Note_on_c, 9, 42, 78
7, 6404, Note_on_c, 9, 42, 0
7, 6605, Note_on_c, 9, 42, 82
7, 6649, Note_on_c, 9, 42, 0
7, 6845, Note_on_c, 9, 42, 83
7, 6893, Note_on_c, 9, 42, 0
7, 7090, Note_on_c, 9, 42, 83
7, 7140, Note_on_c, 9, 42, 0
7, 7289, Note_on_c, 9, 42, 71
7, 7311, Note_on_c, 9, 42, 0
7, 7326, Note_on_c, 9, 42, 75
7, 7387, Note_on_c, 9, 42, 0
7, 7557, Note_on_c, 9, 42, 83
7, 7592, Note_on_c, 9, 42, 0
7, 7793, Note_on_c, 9, 42, 77
7, 7827, Note_on_c, 9, 42, 0
7, 8038, Note_on_c, 9, 46, 71
7, 8070, Note_on_c, 9, 46, 0
7, 8283, Note_on_c, 9, 42, 80
7, 8326, Note_on_c, 9, 42, 0
7, 8561, Note_on_c, 9, 42, 67
7, 8562, Note_on_c, 9, 42, 0
7, 8759, Note_on_c, 9, 42, 64
7, 8795, Note_on_c, 9, 42, 0
7, 8878, Note_on_c, 9, 42, 61
7, 8918, Note_on_c, 9, 42, 0
7, 9004, Note_on_c, 9, 42, 85
7, 9041, Note_on_c, 9, 42, 0
7, 9123, Note_on_c, 9, 42, 62
7, 9161, Note_on_c, 9, 42, 0
7, 9238, Note_on_c, 9, 42, 72
7, 9291, Note_on_c, 9, 42, 0
7, 9360, Note_on_c, 9, 42, 64
7, 9408, Note_on_c, 9, 42, 0
7, 9484, Note_on_c, 9, 42, 81
7, 9519, Note_on_c, 9, 42, 0
7, 9601, Note_on_c, 9, 42, 39
7, 9648, Note_on_c, 9, 42, 0
7, 9720, Note_on_c, 9, 42, 74
7, 9774, Note_on_c, 9, 42, 0
7, 9842, Note_on_c, 9, 42, 51
7, 9893, Note_on_c, 9, 42, 0
7, 9961, Note_on_c, 9, 42, 77
7, 10023, Note_on_c, 9, 42, 0
7, 10089, Note_on_c, 9, 42, 52
7, 10146, Note_on_c, 9, 42, 0
7, 10202, Note_on_c, 9, 42, 74
7, 10261, Note_on_c, 9, 42, 0
7, 10320, Note_on_c, 9, 42, 67
7, 10371, Note_on_c, 9, 42, 0
7, 10445, Note_on_c, 9, 42, 65
7, 10487, Note_on_c, 9, 42, 0
7, 10570, Note_on_c, 9, 42, 64
7, 10609, Note_on_c, 9, 42, 0
7, 10688, Note_on_c, 9, 42, 65
7, 10729, Note_on_c, 9, 42, 0
7, 10811, Note_on_c, 9, 42, 65
7, 10848, Note_on_c, 9, 42, 0
7, 10925, Note_on_c, 9, 42, 65
7, 10966, Note_on_c, 9, 42, 0
7, 11045, Note_on_c, 9, 42, 68
7, 11082, Note_on_c, 9, 42, 0
7, 11161, Note_on_c, 9, 42, 62
7, 11199, Note_on_c, 9, 42, 0
7, 11281, Note_on_c, 9, 42, 64
7, 11318, Note_on_c, 9, 42, 0
7, 11395, Note_on_c, 9, 42, 67
7, 11439, Note_on_c, 9, 42, 0
7, 11481, Note_on_c, 9, 42, 76
7, 11502, Note_on_c, 9, 42, 0
7, 11515, Note_on_c, 9, 42, 74
7, 11566, Note_on_c, 9, 42, 0
7, 11627, Note_on_c, 9, 42, 73
7, 11676, Note_on_c, 9, 42, 0
7, 11748, Note_on_c, 9, 42, 71
7, 11797, Note_on_c, 9, 42, 0
7, 11869, Note_on_c, 9, 42, 72
7, 11919, Note_on_c, 9, 42, 0
7, 11991, Note_on_c, 9, 42, 74
7, 12037, Note_on_c, 9, 42, 0
7, 12112, Note_on_c, 9, 42, 77
7, 12160, Note_on_c, 9, 42, 0
7, 12236, Note_on_c, 9, 42, 77
7, 12280, Note_on_c, 9, 42, 0
7, 12358, Note_on_c, 9, 42, 79
7, 12403, Note_on_c, 9, 42, 0
7, 12483, Note_on_c, 9, 42, 79
7, 12527, Note_on_c, 9, 42, 0
7, 12609, Note_on_c, 9, 42, 78
7, 12652, Note_on_c, 9, 42, 0
7, 12728, Note_on_c, 9, 42, 75
7, 12769, Note_on_c, 9, 42, 0
7, 12844, Note_on_c, 9, 42, 74
7, 12890, Note_on_c, 9, 42, 0
7, 12964, Note_on_c, 9, 42, 75
7, 13010, Note_on_c, 9, 42, 0
7, 13082, Note_on_c, 9, 42, 77
7, 13124, Note_on_c, 9, 42, 0
7, 13200, Note_on_c, 9, 42, 77
7, 13246, Note_on_c, 9, 42, 0
7, 13319, Note_on_c, 9, 42, 74
7, 13363, Note_on_c, 9, 42, 0
7, 13439, Note_on_c, 9, 42, 76
7, 13485, Note_on_c, 9, 42, 0
7, 13557, Note_on_c, 9, 42, 73
7, 13602, Note_on_c, 9, 42, 0
7, 13680, Note_on_c, 9, 42, 71
7, 13723, Note_on_c, 9, 42, 0
7, 13801, Note_on_c, 9, 42, 74
7, 13846, Note_on_c, 9, 42, 0
7, 13925, Note_on_c, 9, 42, 71
7, 13969, Note_on_c, 9, 42, 0
7, 14046, Note_on_c, 9, 42, 68
7, 14091, Note_on_c, 9, 42, 0
7, 14167, Note_on_c, 9, 42, 69
7, 14213, Note_on_c, 9, 42, 0
7, 14281, Note_on_c, 9, 42, 74
7, 14328, Note_on_c, 9, 42, 0
7, 14396, Note_on_c, 9, 42, 69
7, 14443, Note_on_c, 9, 42, 0
7, 14511, Note_on_c, 9, 42, 74
7, 14558, Note_on_c, 9, 42, 0
7, 14631, Note_on_c, 9, 42, 76
7, 14679, Note_on_c, 9, 42, 0
7, 14751, Note_on_c, 9, 42, 77
7, 14796, Note_on_c, 9, 42, 0
7, 14864, Note_on_c, 9, 42, 74
7, 14912, Note_on_c, 9, 42, 0
7, 14980, Note_on_c, 9, 42, 71
7, 15024, Note_on_c, 9, 42, 0
7, 15097, Note_on_c, 9, 42, 76
7, 15140, Note_on_c, 9, 42, 0
7, 15218, Note_on_c, 9, 42, 73
7, 15263, Note_on_c, 9, 42, 0
7, 15346, Note_on_c, 9, 42, 72
7, 15388, Note_on_c, 9, 42, 0
7, 15472, Note_on_c, 9, 42, 74
7, 15511, Note_on_c, 9, 42, 0
7, 15599, Note_on_c, 9, 42, 70
7, 15643, Note_on_c, 9, 42, 0
7, 15723, Note_on_c, 9, 42, 71
7, 15767, Note_on_c, 9, 42, 0
7, 15841, Note_on_c, 9, 42, 71
7, 15882, Note_on_c, 9, 42, 0
7, 15960, Note_on_c, 9, 42, 73
7, 16008, Note_on_c, 9, 42, 0
7, 16080, Note_on_c, 9, 42, 74
7, 16141, Note_on_c, 9, 42, 0
7, 16194, Note_on_c, 9, 42, 77
7, 16253, Note_on_c, 9, 42, 0
7, 16313, Note_on_c, 9, 42, 77
7, 16366, Note_on_c, 9, 42, 0
7, 16430, Note_on_c, 9, 42, 77
7, 16483, Note_on_c, 9, 42, 0
7, 16552, Note_on_c, 9, 42, 76
7, 16605, Note_on_c, 9, 42, 0
7, 16667, Note_on_c, 9, 42, 77
7, 16713, Note_on_c, 9, 42, 0
7, 16788, Note_on_c, 9, 42, 73
7, 16841, Note_on_c, 9, 42, 0
7, 16910, Note_on_c, 9, 42, 77
7, 16962, Note_on_c, 9, 42, 0
7, 17031, Note_on_c, 9, 42, 79
7, 17086, Note_on_c, 9, 42, 0
7, 17156, Note_on_c, 9, 42, 78
7, 17217, Note_on_c, 9, 42, 0
7, 17277, Note_on_c, 9, 42, 80
7, 17338, Note_on_c, 9, 42, 0
7, 17401, Note_on_c, 9, 42, 79
7, 17460, Note_on_c, 9, 42, 0
7, 17520, Note_on_c, 9, 42, 77
7, 17583, Note_on_c, 9, 42, 0
7, 17638, Note_on_c, 9, 42, 77
7, 17694, Note_on_c, 9, 42, 0
7, 17756, Note_on_c, 9, 42, 80
7, 17817, Note_on_c, 9, 42, 0
7, 17876, Note_on_c, 9, 42, 79
7, 17941, Note_on_c, 9, 42, 0
7, 17999, Note_on_c, 9, 42, 79
7, 18067, Note_on_c, 9, 42, 0
7, 18120, Note_on_c, 9, 42, 78
7, 18186, Note_on_c, 9, 42, 0
7, 18240, Note_on_c, 9, 42, 78
7, 18307, Note_on_c, 9, 42, 0
7, 18359, Note_on_c, 9, 42, 78
7, 18432, Note_on_c, 9, 42, 0
7, 18483, Note_on_c, 9, 42, 77
7, 18551, Note_on_c, 9, 42, 0
7, 18600, Note_on_c, 9, 42, 80
7, 18672, Note_on_c, 9, 42, 0
7, 18722, Note_on_c, 9, 42, 74
7, 18797, Note_on_c, 9, 42, 0
7, 18841, Note_on_c, 9, 42, 80
7, 18912, Note_on_c, 9, 42, 0
7, 18954, Note_on_c, 9, 42, 77
7, 19032, Note_on_c, 9, 42, 0
7, 19070, Note_on_c, 9, 42, 79
7, 19143, Note_on_c, 9, 42, 0
7, 19187, Note_on_c, 9, 42, 79
7, 19257, Note_on_c, 9, 42, 0
7, 19305, Note_on_c, 9, 42, 79
7, 19380, Note_on_c, 9, 42, 0
7, 19427, Note_on_c, 9, 42, 62
7, 19518, Note_on_c, 9, 42, 0
7, 19549, Note_on_c, 9, 42, 84
7, 19632, Note_on_c, 9, 42, 0
7, 19675, Note_on_c, 9, 42, 53
7, 19758, Note_on_c, 9, 42, 0
7, 19795, Note_on_c, 9, 42, 86
7, 19876, Note_on_c, 9, 42, 0
7, 19915, Note_on_c, 9, 42, 53
7, 19989, Note_on_c, 9, 42, 0
7, 20033, Note_on_c, 9, 42, 82
7, 20110, Note_on_c, 9, 42, 0
7, 20155, Note_on_c, 9, 42, 61
7, 20237, Note_on_c, 9, 42, 0
7, 20282, Note_on_c, 9, 42, 77
7, 20357, Note_on_c, 9, 42, 0
7, 20402, Note_on_c, 9, 42, 75
7, 20482, Note_on_c, 9, 42, 0
7, 20521, Note_on_c, 9, 42, 77
7, 20590, Note_on_c, 9, 42, 0
7, 20639, Note_on_c, 9, 42, 68
7, 20700, Note_on_c, 9, 42, 0
7, 20753, Note_on_c, 9, 42, 80
7, 20823, Note_on_c, 9, 42, 0
7, 20872, Note_on_c, 9, 42, 73
7, 20935, Note_on_c, 9, 42, 0
7, 20989, Note_on_c, 9, 42, 74
7, 21059, Note_on_c, 9, 42, 0
7, 21108, Note_on_c, 9, 42, 74
7, 21175, Note_on_c, 9, 42, 0
7, 21230, Note_on_c, 9, 42, 74
7, 21296, Note_on_c, 9, 42, 0
7, 21350, Note_on_c, 9, 42, 73
7, 21409, Note_on_c, 9, 42, 0
7, 21470, Note_on_c, 9, 42, 75
7, 21539, Note_on_c, 9, 42, 0
7, 21588, Note_on_c, 9, 42, 74
7, 21657, Note_on_c, 9, 42, 0
7, 21713, Note_on_c, 9, 42, 76
7, 21781, Note_on_c, 9, 42, 0
7, 21832, Note_on_c, 9, 42, 73
7, 21897, Note_on_c, 9, 42, 0
7, 21951, Note_on_c, 9, 42, 74
7, 22019, Note_on_c, 9, 42, 0
7, 22070, Note_on_c, 9, 42, 68
7, 22134, Note_on_c, 9, 42, 0
7, 22193, Note_on_c, 9, 42, 78
7, 22258, Note_on_c, 9, 42, 0
7, 22313, Note_on_c, 9, 42, 65
7, 22375, Note_on_c, 9, 42, 0
7, 22428, Note_on_c, 9, 46, 67
7, 22469, Note_on_c, 9, 46, 0
7, 22552, Note_on_c, 9, 42, 64
7, 22610, Note_on_c, 9, 42, 0
7, 22673, Note_on_c, 9, 42, 73
7, 22735, Note_on_c, 9, 42, 0
7, 22794, Note_on_c, 9, 42, 71
7, 22851, Note_on_c, 9, 42, 0
7, 22917, Note_on_c, 9, 42, 75
7, 22975, Note_on_c, 9, 42, 0
7, 23170, Note_on_c, 9, 42, 75
7, 23219, Note_on_c, 9, 42, 0
7, 23409, Note_on_c, 9, 42, 82
7, 23473, Note_on_c, 9, 42, 0
7, 23640, Note_on_c, 9, 42, 83
7, 23709, Note_on_c, 9, 42, 0
7, 23876, Note_on_c, 9, 42, 77
7, 23943, Note_on_c, 9, 42, 0
7, 24112, Note_on_c, 9, 42, 76
7, 24189, Note_on_c, 9, 42, 0
7, 24356, Note_on_c, 9, 42, 79
7, 24421, Note_on_c, 9, 42, 0
7, 24595, Note_on_c, 9, 42, 81
7, 24680, Note_on_c, 9, 42, 0
7, 24838, Note_on_c, 9, 42, 80
7, 24918, Note_on_c, 9, 42, 0
7, 25079, Note_on_c, 9, 42, 76
7, 25152, Note_on_c, 9, 42, 0
7, 25323, Note_on_c, 9, 42, 80
7, 25401, Note_on_c, 9, 42, 0
7, 25561, Note_on_c, 9, 42, 80
7, 25630, Note_on_c, 9, 42, 0
7, 25798, Note_on_c, 9, 42, 77
7, 25872, Note_on_c, 9, 42, 0
7, 26038, Note_on_c, 9, 42, 81
7, 26097, Note_on_c, 9, 42, 0
7, 26277, Note_on_c, 9, 42, 79
7, 26343, Note_on_c, 9, 42, 0
7, 26515, Note_on_c, 9, 42, 76
7, 26577, Note_on_c, 9, 42, 0
7, 26760, Note_on_c, 9, 42, 82
7, 26822, Note_on_c, 9, 42, 0
7, 27000, Note_on_c, 9, 42, 82
7, 27049, Note_on_c, 9, 42, 0
7, 27238, Note_on_c, 9, 42, 82
7, 27284, Note_on_c, 9, 42, 0
7, 27483, Note_on_c, 9, 42, 82
7, 27530, Note_on_c, 9, 42, 0
7, 27713, Note_on_c, 9, 46, 80
7, 27756, Note_on_c, 9, 46, 0
7, 27951, Note_on_c, 9, 42, 74
7, 28007, Note_on_c, 9, 42, 0
7, 28200, Note_on_c, 9, 42, 78
7, 28265, Note_on_c, 9, 42, 0
7, 28441, Note_on_c, 9, 42, 83
7, 28511, Note_on_c, 9, 42, 0
7, 28643, Note_on_c, 9, 42, 59
7, 28661, Note_on_c, 9, 42, 0
7, 28679, Note_on_c, 9, 42, 77
7, 28755, Note_on_c, 9, 42, 0
7, 28910, Note_on_c, 9, 42, 80
7, 28966, Note_on_c, 9, 42, 0
7, 29158, Note_on_c, 9, 42, 83
7, 29220, Note_on_c, 9, 42, 0
7, 29401, Note_on_c, 9, 42, 78
7, 29465, Note_on_c, 9, 42, 0
7, 29643, Note_on_c, 9, 42, 77
7, 29700, Note_on_c, 9, 42, 0
7, 29879, Note_on_c, 9, 42, 77
7, 29950, Note_on_c, 9, 42, 0
7, 30120, Note_on_c, 9, 42, 80
7, 30192, Note_on_c, 9, 42, 0
7, 30355, Note_on_c, 9, 42, 75
7, 30420, Note_on_c, 9, 42, 0
7, 30592, Note_on_c, 9, 42, 72
7, 30649, Note_on_c, 9, 42, 0
7, 30840, Note_on_c, 9, 42, 67
7, 30884, Note_on_c, 9, 42, 0
7, 31079, Note_on_c, 9, 42, 67
7, 31127, Note_on_c, 9, 42, 0
7, 31324, Note_on_c, 9, 42, 63
7, 31377, Note_on_c, 9, 42, 0
7, 31560, Note_on_c, 9, 42, 71
7, 31617, Note_on_c, 9, 42, 0
7, 31803, Note_on_c, 9, 42, 74
7, 31859, Note_on_c, 9, 42, 0
7, 32044, Note_on_c, 9, 42, 77
7, 32102, Note_on_c, 9, 42, 0
7, 32279, Note_on_c, 9, 42, 73
7, 32328, Note_on_c, 9, 42, 0
7, 32510, Note_on_c, 9, 42, 72
7, 32562, Note_on_c, 9, 42, 0
7, 32761, Note_on_c, 9, 42, 76
7, 32812, Note_on_c, 9, 42, 0
7, 33008, Note_on_c, 9, 42, 71
7, 33056, Note_on_c, 9, 42, 0
7, 33249, Note_on_c, 9, 42, 74
7, 33296, Note_on_c, 9, 42, 0
7, 33478, Note_on_c, 9, 42, 74
7, 33527, Note_on_c, 9, 42, 0
7, 33732, Note_on_c, 9, 42, 73
7, 33771, Note_on_c, 9, 42, 0
7, 33960, Note_on_c, 9, 42, 77
7, 34012, Note_on_c, 9, 42, 0
7, 34207, Note_on_c, 9, 42, 78
7, 34260, Note_on_c, 9, 42, 0
7, 34442, Note_on_c, 9, 42, 76
7, 34497, Note_on_c, 9, 42, 0
7, 34679, Note_on_c, 9, 42, 75
7, 34728, Note_on_c, 9, 42, 0
7, 34919, Note_on_c, 9, 42, 74
7, 34969, Note_on_c, 9, 42, 0
7, 35163, Note_on_c, 9, 42, 74
7, 35217, Note_on_c, 9, 42, 0
7, 35400, Note_on_c, 9, 42, 76
7, 35456, Note_on_c, 9, 42, 0
7, 35644, Note_on_c, 9, 42, 77
7, 35697, Note_on_c, 9, 42, 0
7, 35881, Note_on_c, 9, 42, 77
7, 35930, Note_on_c, 9, 42, 0
7, 36123, Note_on_c, 9, 42, 75
7, 36159, Note_on_c, 9, 42, 0
7, 36356, Note_on_c, 9, 46, 82
7, 36392, Note_on_c, 9, 46, 0
7, 36601, Note_on_c, 9, 42, 77
7, 36644, Note_on_c, 9, 42, 0
7, 36847, Note_on_c, 9, 42, 77
7, 36895, Note_on_c, 9, 42, 0
7, 37088, Note_on_c, 9, 42, 78
7, 37140, Note_on_c, 9, 42, 0
7, 37329, Note_on_c, 9, 42, 77
7, 37376, Note_on_c, 9, 42, 0
7, 37558, Note_on_c, 9, 42, 76
7, 37607, Note_on_c, 9, 42, 0
7, 37791, Note_on_c, 9, 42, 75
7, 37839, Note_on_c, 9, 42, 0
7, 38031, Note_on_c, 9, 42, 77
7, 38075, Note_on_c, 9, 42, 0
7, 38271, Note_on_c, 9, 46, 86
7, 38317, Note_on_c, 9, 46, 0
7, 38520, Note_on_c, 9, 42, 74
7, 38557, Note_on_c, 9, 42, 0
7, 38757, Note_on_c, 9, 42, 76
7, 38796, Note_on_c, 9, 42, 0
7, 39000, Note_on_c, 9, 46, 78
7, 39039, Note_on_c, 9, 46, 0
7, 39246, Note_on_c, 9, 46, 82
7, 39283, Note_on_c, 9, 46, 0
7, 39487, Note_on_c, 9, 46, 81
7, 39536, Note_on_c, 9, 46, 0
7, 39725, Note_on_c, 9, 46, 77
7, 39763, Note_on_c, 9, 46, 0
7, 40031, Note_on_c, 9, 46, 59
7, 40079, Note_on_c, 9, 46, 0
7, 40079, End_track
0, 0, End_of_file
