0, 0, Header, 1, 12, 120
1, 0, Start_track
1, 0, Title_t, "How Deep Is The Ocean"
1, 0, Copyright_t, "1996 by dougmck"
1, 0, Text_t, "dougmck@pipeline.com.au\012"
1, 0, Text_t, "sequence originally done in 1966\012"
1, 0, SMPTE_offset, 96, 0, 3, 0, 0
1, 0, Time_signature, 4, 2, 24, 8
1, 0, Key_signature, -3, "major"
1, 0, Tempo, 461538
1, 0, Marker_t, "Sequence by dougmck@pipeline,com.au"
1, 0, End_track
2, 0, Start_track
2, 0, Program_c, 0, 0
2, 0, Control_c, 0, 7, 95
2, 512, Control_c, 0, 64, 127
2, 685, Note_on_c, 0, 36, 55
2, 707, Note_on_c, 0, 36, 0
2, 866, Note_on_c, 0, 63, 80
2, 868, Note_on_c, 0, 51, 69
2, 951, Note_on_c, 0, 63, 0
2, 958, Note_on_c, 0, 51, 0
2, 976, Note_on_c, 0, 63, 75
2, 977, Note_on_c, 0, 51, 62
2, 1083, Note_on_c, 0, 51, 0
2, 1084, Note_on_c, 0, 63, 0
2, 1091, Note_on_c, 0, 62, 64
2, 1092, Note_on_c, 0, 50, 45
2, 1187, Note_on_c, 0, 50, 0
2, 1194, Note_on_c, 0, 62, 0
2, 1202, Note_on_c, 0, 63, 55
2, 1207, Note_on_c, 0, 51, 35
2, 1234, Note_on_c, 0, 51, 0
2, 1257, Note_on_c, 0, 63, 0
2, 1347, Note_on_c, 0, 67, 54
2, 1358, Note_on_c, 0, 60, 53
2, 1360, Note_on_c, 0, 65, 48
2, 1361, Note_on_c, 0, 57, 36
2, 1364, Note_on_c, 0, 56, 34
2, 1366, Control_c, 0, 64, 0
2, 1369, Note_on_c, 0, 50, 24
2, 1421, Control_c, 0, 64, 127
2, 1430, Note_on_c, 0, 56, 0
2, 1437, Note_on_c, 0, 60, 0
2, 1447, Note_on_c, 0, 67, 0
2, 1449, Note_on_c, 0, 65, 0
2, 1482, Note_on_c, 0, 57, 0
2, 1503, Note_on_c, 0, 56, 27
2, 1512, Note_on_c, 0, 79, 64
2, 1531, Note_on_c, 0, 50, 0
2, 1546, Note_on_c, 0, 56, 0
2, 1598, Note_on_c, 0, 79, 0
2, 1971, Note_on_c, 0, 59, 31
2, 1978, Note_on_c, 0, 61, 33
2, 1982, Note_on_c, 0, 43, 29
2, 1986, Note_on_c, 0, 53, 17
2, 2000, Control_c, 0, 64, 0
2, 2057, Note_on_c, 0, 62, 47
2, 2059, Note_on_c, 0, 61, 0
2, 2059, Control_c, 0, 64, 127
2, 2098, Note_on_c, 0, 62, 0
2, 2120, Note_on_c, 0, 59, 0
2, 2141, Note_on_c, 0, 65, 67
2, 2181, Note_on_c, 0, 43, 0
2, 2196, Note_on_c, 0, 65, 0
2, 2216, Note_on_c, 0, 67, 61
2, 2266, Note_on_c, 0, 53, 0
2, 2268, Note_on_c, 0, 67, 0
2, 2310, Note_on_c, 0, 63, 38
2, 2314, Note_on_c, 0, 48, 30
2, 2320, Control_c, 0, 64, 0
2, 2378, Control_c, 0, 64, 127
2, 2413, Note_on_c, 0, 55, 41
2, 2438, Note_on_c, 0, 55, 0
2, 2522, Note_on_c, 0, 55, 29
2, 2560, Note_on_c, 0, 63, 0
2, 2621, Note_on_c, 0, 55, 0
2, 2635, Note_on_c, 0, 63, 50
2, 2643, Note_on_c, 0, 48, 0
2, 2718, Note_on_c, 0, 63, 0
2, 2762, Note_on_c, 0, 63, 28
2, 2763, Note_on_c, 0, 46, 25
2, 2763, Note_on_c, 0, 56, 23
2, 2766, Note_on_c, 0, 60, 39
2, 2773, Control_c, 0, 64, 0
2, 2818, Control_c, 0, 64, 127
2, 2840, Note_on_c, 0, 56, 0
2, 2871, Note_on_c, 0, 56, 18
2, 2917, Note_on_c, 0, 60, 0
2, 2942, Note_on_c, 0, 63, 0
2, 2944, Note_on_c, 0, 62, 58
2, 2981, Note_on_c, 0, 56, 0
2, 2992, Note_on_c, 0, 62, 0
2, 3012, Note_on_c, 0, 63, 59
2, 3024, Note_on_c, 0, 46, 0
2, 3037, Note_on_c, 0, 63, 0
2, 3094, Control_c, 0, 64, 0
2, 3095, Note_on_c, 0, 45, 44
2, 3098, Note_on_c, 0, 67, 47
2, 3103, Note_on_c, 0, 60, 42
2, 3105, Note_on_c, 0, 63, 34
2, 3106, Note_on_c, 0, 57, 18
2, 3121, Note_on_c, 0, 57, 0
2, 3128, Control_c, 0, 64, 127
2, 3140, Note_on_c, 0, 60, 0
2, 3149, Note_on_c, 0, 63, 0
2, 3156, Note_on_c, 0, 67, 0
2, 3201, Note_on_c, 0, 79, 68
2, 3204, Note_on_c, 0, 55, 31
2, 3205, Note_on_c, 0, 45, 0
2, 3219, Note_on_c, 0, 55, 0
2, 3273, Note_on_c, 0, 79, 0
2, 3323, Note_on_c, 0, 79, 36
2, 3334, Note_on_c, 0, 60, 26
2, 3336, Note_on_c, 0, 72, 20
2, 3405, Note_on_c, 0, 79, 0
2, 3409, Note_on_c, 0, 72, 0
2, 3449, Note_on_c, 0, 79, 44
2, 3463, Note_on_c, 0, 60, 0
2, 3493, Note_on_c, 0, 79, 0
2, 3605, Note_on_c, 0, 72, 64
2, 3610, Note_on_c, 0, 67, 34
2, 3610, Note_on_c, 0, 79, 46
2, 3612, Note_on_c, 0, 44, 39
2, 3613, Control_c, 0, 64, 0
2, 3655, Control_c, 0, 64, 127
2, 3722, Note_on_c, 0, 44, 0
2, 3810, Note_on_c, 0, 55, 24
2, 3865, Note_on_c, 0, 67, 0
2, 3876, Note_on_c, 0, 72, 0
2, 3885, Note_on_c, 0, 79, 0
2, 3886, Note_on_c, 0, 56, 38
2, 3942, Note_on_c, 0, 60, 34
2, 3992, Note_on_c, 0, 67, 54
2, 4026, Note_on_c, 0, 67, 0
2, 4041, Note_on_c, 0, 72, 55
2, 4082, Note_on_c, 0, 72, 0
2, 4096, Note_on_c, 0, 77, 62
2, 4137, Note_on_c, 0, 77, 0
2, 4148, Note_on_c, 0, 79, 47
2, 4162, Note_on_c, 0, 79, 0
2, 4204, Note_on_c, 0, 79, 54
2, 4266, Note_on_c, 0, 84, 52
2, 4330, Note_on_c, 0, 89, 57
2, 4405, Note_on_c, 0, 89, 0
2, 4408, Note_on_c, 0, 91, 49
2, 4449, Note_on_c, 0, 91, 0
2, 4509, Note_on_c, 0, 91, 44
2, 4712, Note_on_c, 0, 91, 0
2, 4750, Note_on_c, 0, 91, 39
2, 4772, Note_on_c, 0, 84, 0
2, 4787, Note_on_c, 0, 91, 0
2, 4799, Note_on_c, 0, 79, 0
2, 4830, Note_on_c, 0, 55, 0
2, 4838, Note_on_c, 0, 56, 0
2, 4847, Note_on_c, 0, 60, 0
2, 4853, Note_on_c, 0, 92, 54
2, 4884, Note_on_c, 0, 92, 0
2, 4914, Note_on_c, 0, 92, 57
2, 4973, Note_on_c, 0, 92, 0
2, 4992, Note_on_c, 0, 94, 55
2, 4998, Note_on_c, 0, 55, 53
2, 5013, Control_c, 0, 64, 0
2, 5055, Control_c, 0, 64, 127
2, 5080, Note_on_c, 0, 94, 0
2, 5091, Note_on_c, 0, 62, 29
2, 5193, Note_on_c, 0, 82, 57
2, 5208, Note_on_c, 0, 67, 31
2, 5210, Note_on_c, 0, 74, 36
2, 5224, Note_on_c, 0, 70, 25
2, 5264, Note_on_c, 0, 67, 0
2, 5284, Note_on_c, 0, 82, 0
2, 5294, Note_on_c, 0, 62, 0
2, 5316, Note_on_c, 0, 55, 0
2, 5319, Note_on_c, 0, 82, 64
2, 5339, Note_on_c, 0, 74, 0
2, 5345, Note_on_c, 0, 70, 0
2, 5361, Note_on_c, 0, 82, 0
2, 5424, Note_on_c, 0, 82, 73
2, 5435, Note_on_c, 0, 62, 35
2, 5439, Note_on_c, 0, 74, 67
2, 5440, Note_on_c, 0, 52, 36
2, 5445, Control_c, 0, 64, 0
2, 5465, Note_on_c, 0, 70, 13
2, 5511, Control_c, 0, 64, 127
2, 5534, Note_on_c, 0, 62, 0
2, 5548, Note_on_c, 0, 52, 0
2, 5549, Note_on_c, 0, 58, 44
2, 5564, Note_on_c, 0, 58, 0
2, 5602, Note_on_c, 0, 74, 0
2, 5613, Note_on_c, 0, 70, 0
2, 5647, Note_on_c, 0, 82, 0
2, 5657, Note_on_c, 0, 70, 30
2, 5661, Note_on_c, 0, 74, 45
2, 5665, Note_on_c, 0, 62, 22
2, 5736, Note_on_c, 0, 70, 0
2, 5759, Note_on_c, 0, 81, 64
2, 5760, Note_on_c, 0, 74, 0
2, 5775, Note_on_c, 0, 62, 0
2, 5795, Note_on_c, 0, 81, 0
2, 5845, Note_on_c, 0, 82, 62
2, 5956, Note_on_c, 0, 82, 0
2, 6002, Note_on_c, 0, 57, 44
2, 6010, Note_on_c, 0, 62, 28
2, 6015, Note_on_c, 0, 84, 74
2, 6024, Note_on_c, 0, 77, 67
2, 6024, Note_on_c, 0, 63, 39
2, 6030, Note_on_c, 0, 67, 64
2, 6037, Control_c, 0, 64, 0
2, 6088, Control_c, 0, 64, 127
2, 6129, Note_on_c, 0, 84, 0
2, 6135, Note_on_c, 0, 62, 0
2, 6137, Note_on_c, 0, 67, 0
2, 6147, Note_on_c, 0, 63, 0
2, 6153, Note_on_c, 0, 84, 67
2, 6155, Note_on_c, 0, 57, 0
2, 6201, Note_on_c, 0, 77, 0
2, 6240, Note_on_c, 0, 84, 0
2, 6289, Note_on_c, 0, 84, 68
2, 6291, Note_on_c, 0, 55, 35
2, 6295, Note_on_c, 0, 60, 34
2, 6300, Note_on_c, 0, 77, 67
2, 6302, Note_on_c, 0, 81, 47
2, 6307, Note_on_c, 0, 65, 57
2, 6307, Note_on_c, 0, 61, 25
2, 6309, Note_on_c, 0, 72, 47
2, 6312, Control_c, 0, 64, 0
2, 6370, Control_c, 0, 64, 127
2, 6412, Note_on_c, 0, 84, 0
2, 6438, Note_on_c, 0, 72, 0
2, 6472, Note_on_c, 0, 84, 65
2, 6476, Note_on_c, 0, 60, 0
2, 6488, Note_on_c, 0, 65, 0
2, 6507, Note_on_c, 0, 81, 0
2, 6517, Note_on_c, 0, 61, 0
2, 6522, Note_on_c, 0, 55, 0
2, 6522, Note_on_c, 0, 77, 0
2, 6558, Note_on_c, 0, 84, 0
2, 6660, Note_on_c, 0, 84, 45
2, 6664, Note_on_c, 0, 77, 44
2, 6666, Note_on_c, 0, 54, 33
2, 6667, Note_on_c, 0, 60, 29
2, 6668, Control_c, 0, 64, 0
2, 6670, Note_on_c, 0, 64, 22
2, 6714, Control_c, 0, 64, 127
2, 6730, Note_on_c, 0, 84, 0
2, 6742, Note_on_c, 0, 77, 0
2, 6831, Note_on_c, 0, 72, 58
2, 6837, Note_on_c, 0, 64, 0
2, 6846, Note_on_c, 0, 60, 0
2, 6872, Note_on_c, 0, 54, 0
2, 6938, Note_on_c, 0, 72, 0
2, 7005, Note_on_c, 0, 72, 46
2, 7007, Note_on_c, 0, 64, 33
2, 7008, Note_on_c, 0, 68, 39
2, 7009, Note_on_c, 0, 50, 24
2, 7012, Note_on_c, 0, 54, 29
2, 7015, Note_on_c, 0, 60, 24
2, 7020, Control_c, 0, 64, 0
2, 7063, Control_c, 0, 64, 127
2, 7178, Note_on_c, 0, 68, 0
2, 7285, Note_on_c, 0, 64, 0
2, 7304, Note_on_c, 0, 67, 51
2, 7307, Note_on_c, 0, 72, 0
2, 7309, Note_on_c, 0, 60, 0
2, 7325, Note_on_c, 0, 54, 0
2, 7327, Note_on_c, 0, 50, 0
2, 7394, Note_on_c, 0, 67, 0
2, 7414, Note_on_c, 0, 70, 50
2, 7418, Note_on_c, 0, 43, 37
2, 7434, Control_c, 0, 64, 0
2, 7466, Control_c, 0, 64, 127
2, 7495, Note_on_c, 0, 43, 0
2, 7590, Note_on_c, 0, 58, 35
2, 7677, Note_on_c, 0, 58, 0
2, 7679, Note_on_c, 0, 62, 44
2, 7699, Note_on_c, 0, 62, 0
2, 7751, Note_on_c, 0, 70, 0
2, 7829, Note_on_c, 0, 70, 69
2, 7831, Note_on_c, 0, 64, 64
2, 7832, Note_on_c, 0, 66, 64
2, 7956, Note_on_c, 0, 54, 61
2, 7972, Control_c, 0, 64, 0
2, 8033, Control_c, 0, 64, 127
2, 8082, Note_on_c, 0, 69, 68
2, 8085, Note_on_c, 0, 70, 0
2, 8171, Note_on_c, 0, 69, 0
2, 8186, Note_on_c, 0, 64, 0
2, 8192, Note_on_c, 0, 70, 61
2, 8193, Note_on_c, 0, 54, 0
2, 8219, Note_on_c, 0, 66, 0
2, 8256, Note_on_c, 0, 70, 0
2, 8324, Note_on_c, 0, 41, 50
2, 8325, Note_on_c, 0, 72, 53
2, 8326, Note_on_c, 0, 63, 38
2, 8327, Control_c, 0, 64, 0
2, 8329, Note_on_c, 0, 68, 46
2, 8364, Control_c, 0, 64, 127
2, 8367, Note_on_c, 0, 72, 0
2, 8378, Note_on_c, 0, 68, 0
2, 8382, Note_on_c, 0, 63, 0
2, 8473, Note_on_c, 0, 60, 68
2, 8473, Note_on_c, 0, 56, 54
2, 8477, Note_on_c, 0, 55, 51
2, 8499, Note_on_c, 0, 55, 0
2, 8508, Note_on_c, 0, 56, 0
2, 8508, Note_on_c, 0, 41, 0
2, 8511, Note_on_c, 0, 60, 0
2, 8603, Note_on_c, 0, 67, 65
2, 8606, Note_on_c, 0, 63, 57
2, 8607, Note_on_c, 0, 60, 66
2, 8609, Note_on_c, 0, 56, 54
2, 8612, Control_c, 0, 64, 0
2, 8614, Note_on_c, 0, 55, 44
2, 8639, Control_c, 0, 64, 127
2, 8695, Note_on_c, 0, 56, 0
2, 8700, Note_on_c, 0, 60, 0
2, 8703, Note_on_c, 0, 67, 0
2, 8712, Note_on_c, 0, 63, 0
2, 8714, Note_on_c, 0, 55, 0
2, 8728, Note_on_c, 0, 56, 55
2, 8733, Note_on_c, 0, 53, 36
2, 8735, Note_on_c, 0, 65, 58
2, 8738, Note_on_c, 0, 60, 33
2, 8739, Note_on_c, 0, 63, 35
2, 8749, Note_on_c, 0, 60, 0
2, 8777, Note_on_c, 0, 56, 0
2, 8782, Note_on_c, 0, 53, 0
2, 8855, Note_on_c, 0, 63, 0
2, 8981, Note_on_c, 0, 65, 0
2, 8995, Note_on_c, 0, 34, 79
2, 8995, Note_on_c, 0, 22, 71
2, 8999, Control_c, 0, 64, 0
2, 9041, Control_c, 0, 64, 127
2, 9095, Note_on_c, 0, 22, 0
2, 9114, Note_on_c, 0, 34, 0
2, 9221, Note_on_c, 0, 46, 76
2, 9369, Note_on_c, 0, 47, 81
2, 9380, Note_on_c, 0, 46, 0
2, 9507, Note_on_c, 0, 50, 76
2, 9515, Note_on_c, 0, 47, 0
2, 9590, Note_on_c, 0, 50, 0
2, 9598, Note_on_c, 0, 51, 73
2, 9628, Control_c, 0, 64, 0
2, 9652, Note_on_c, 0, 51, 0
2, 9659, Note_on_c, 0, 52, 65
2, 9710, Note_on_c, 0, 52, 0
2, 9713, Note_on_c, 0, 53, 58
2, 9719, Control_c, 0, 64, 127
2, 9749, Note_on_c, 0, 53, 0
2, 9767, Note_on_c, 0, 56, 47
2, 9807, Note_on_c, 0, 56, 0
2, 9827, Note_on_c, 0, 59, 61
2, 9832, Note_on_c, 0, 46, 36
2, 9838, Note_on_c, 0, 56, 47
2, 9858, Control_c, 0, 64, 0
2, 9881, Note_on_c, 0, 59, 0
2, 9886, Note_on_c, 0, 62, 50
2, 9898, Control_c, 0, 64, 127
2, 9923, Note_on_c, 0, 56, 0
2, 9935, Note_on_c, 0, 62, 0
2, 9943, Note_on_c, 0, 56, 23
2, 9951, Note_on_c, 0, 65, 49
2, 9952, Note_on_c, 0, 46, 0
2, 9965, Note_on_c, 0, 56, 0
2, 9977, Note_on_c, 0, 65, 0
2, 10015, Note_on_c, 0, 68, 34
2, 10065, Note_on_c, 0, 68, 0
2, 10082, Note_on_c, 0, 71, 49
2, 10131, Note_on_c, 0, 56, 14
2, 10137, Note_on_c, 0, 71, 0
2, 10158, Note_on_c, 0, 74, 37
2, 10181, Note_on_c, 0, 74, 0
2, 10201, Note_on_c, 0, 62, 1
2, 10240, Note_on_c, 0, 77, 36
2, 10243, Note_on_c, 0, 62, 0
2, 10313, Note_on_c, 0, 77, 0
2, 10329, Note_on_c, 0, 80, 42
2, 10549, Note_on_c, 0, 86, 38
2, 10658, Note_on_c, 0, 86, 0
2, 10692, Note_on_c, 0, 56, 0
2, 10693, Note_on_c, 0, 80, 0
2, 10912, Note_on_c, 0, 75, 39
2, 10917, Note_on_c, 0, 63, 28
2, 10924, Note_on_c, 0, 68, 25
2, 10924, Note_on_c, 0, 70, 34
2, 10927, Note_on_c, 0, 65, 36
2, 10949, Control_c, 0, 64, 0
2, 11015, Control_c, 0, 64, 127
2, 11034, Note_on_c, 0, 75, 0
2, 11051, Note_on_c, 0, 75, 52
2, 11156, Note_on_c, 0, 75, 0
2, 11192, Note_on_c, 0, 75, 38
2, 11357, Note_on_c, 0, 65, 0
2, 11373, Note_on_c, 0, 68, 0
2, 11427, Note_on_c, 0, 63, 0
2, 11486, Note_on_c, 0, 70, 0
2, 11496, Note_on_c, 0, 75, 0
2, 11538, Note_on_c, 0, 73, 32
2, 11580, Note_on_c, 0, 73, 0
2, 11714, Note_on_c, 0, 73, 35
2, 11714, Note_on_c, 0, 64, 27
2, 11716, Note_on_c, 0, 69, 48
2, 11719, Note_on_c, 0, 48, 32
2, 11726, Control_c, 0, 64, 0
2, 11765, Control_c, 0, 64, 127
2, 11801, Note_on_c, 0, 69, 0
2, 11806, Note_on_c, 0, 64, 0
2, 11808, Note_on_c, 0, 48, 0
2, 11810, Note_on_c, 0, 73, 0
2, 11870, Note_on_c, 0, 58, 35
2, 11870, Note_on_c, 0, 63, 42
2, 11872, Note_on_c, 0, 68, 48
2, 11875, Note_on_c, 0, 72, 53
2, 11892, Control_c, 0, 64, 0
2, 11906, Control_c, 0, 64, 127
2, 11971, Note_on_c, 0, 63, 0
2, 11983, Note_on_c, 0, 72, 0
2, 11991, Note_on_c, 0, 68, 0
2, 12067, Note_on_c, 0, 63, 25
2, 12067, Note_on_c, 0, 68, 43
2, 12068, Note_on_c, 0, 72, 48
2, 12070, Note_on_c, 0, 64, 40
2, 12283, Note_on_c, 0, 72, 0
2, 12295, Note_on_c, 0, 64, 0
2, 12337, Note_on_c, 0, 68, 0
2, 12360, Note_on_c, 0, 58, 0
2, 12382, Note_on_c, 0, 63, 0
2, 12424, Note_on_c, 0, 70, 59
2, 12462, Note_on_c, 0, 70, 0
2, 12591, Note_on_c, 0, 68, 40
2, 12603, Note_on_c, 0, 63, 47
2, 12605, Note_on_c, 0, 56, 37
2, 12607, Note_on_c, 0, 41, 33
2, 12617, Control_c, 0, 64, 0
2, 12677, Control_c, 0, 64, 127
2, 12728, Note_on_c, 0, 41, 0
2, 12736, Note_on_c, 0, 53, 37
2, 12795, Note_on_c, 0, 56, 0
2, 12811, Note_on_c, 0, 63, 0
2, 12832, Note_on_c, 0, 68, 0
2, 12865, Note_on_c, 0, 53, 0
2, 12876, Note_on_c, 0, 68, 51
2, 12877, Note_on_c, 0, 55, 48
2, 12882, Note_on_c, 0, 63, 46
2, 12883, Note_on_c, 0, 56, 29
2, 12894, Control_c, 0, 64, 0
2, 12915, Control_c, 0, 64, 127
2, 12997, Note_on_c, 0, 68, 0
2, 13046, Note_on_c, 0, 67, 53
2, 13106, Note_on_c, 0, 55, 0
2, 13110, Note_on_c, 0, 67, 0
2, 13131, Note_on_c, 0, 65, 56
2, 13137, Note_on_c, 0, 56, 0
2, 13156, Note_on_c, 0, 63, 0
2, 13264, Note_on_c, 0, 44, 19
2, 13265, Note_on_c, 0, 59, 40
2, 13276, Control_c, 0, 64, 0
2, 13280, Note_on_c, 0, 53, 24
2, 13288, Note_on_c, 0, 65, 0
2, 13319, Control_c, 0, 64, 127
2, 13384, Note_on_c, 0, 44, 0
2, 13448, Note_on_c, 0, 68, 47
2, 13459, Note_on_c, 0, 53, 0
2, 13464, Note_on_c, 0, 56, 13
2, 13562, Note_on_c, 0, 56, 0
2, 13603, Note_on_c, 0, 68, 0
2, 13605, Note_on_c, 0, 59, 0
2, 13721, Note_on_c, 0, 68, 34
2, 13725, Note_on_c, 0, 63, 35
2, 13725, Note_on_c, 0, 59, 31
2, 13740, Note_on_c, 0, 58, 14
2, 13743, Note_on_c, 0, 49, 17
2, 13748, Control_c, 0, 64, 0
2, 13791, Control_c, 0, 64, 127
2, 13858, Note_on_c, 0, 58, 0
2, 13869, Note_on_c, 0, 49, 0
2, 14040, Note_on_c, 0, 25, 35
2, 14047, Note_on_c, 0, 37, 25
2, 14299, Note_on_c, 0, 25, 0
2, 14316, Note_on_c, 0, 37, 0
2, 14433, Note_on_c, 0, 68, 0
2, 14435, Note_on_c, 0, 59, 0
2, 14452, Note_on_c, 0, 63, 0
2, 14826, Note_on_c, 0, 67, 38
2, 14829, Note_on_c, 0, 46, 30
2, 14830, Note_on_c, 0, 58, 30
2, 14832, Note_on_c, 0, 63, 27
2, 14841, Note_on_c, 0, 55, 37
2, 14867, Control_c, 0, 64, 0
2, 14935, Control_c, 0, 64, 127
2, 14977, Note_on_c, 0, 67, 0
2, 15002, Note_on_c, 0, 67, 50
2, 15097, Note_on_c, 0, 55, 0
2, 15119, Note_on_c, 0, 67, 0
2, 15119, Note_on_c, 0, 58, 0
2, 15125, Note_on_c, 0, 63, 0
2, 15176, Note_on_c, 0, 58, 25
2, 15179, Note_on_c, 0, 62, 36
2, 15181, Note_on_c, 0, 65, 50
2, 15183, Note_on_c, 0, 55, 27
2, 15332, Note_on_c, 0, 62, 0
2, 15336, Note_on_c, 0, 55, 0
2, 15348, Note_on_c, 0, 58, 0
2, 15372, Note_on_c, 0, 46, 0
2, 15376, Note_on_c, 0, 65, 0
2, 15377, Note_on_c, 0, 63, 47
2, 15383, Note_on_c, 0, 58, 25
2, 15433, Note_on_c, 0, 58, 0
2, 15473, Note_on_c, 0, 63, 0
2, 15754, Note_on_c, 0, 61, 38
2, 15758, Note_on_c, 0, 57, 28
2, 15766, Note_on_c, 0, 51, 28
2, 15766, Note_on_c, 0, 67, 33
2, 15766, Note_on_c, 0, 41, 33
2, 15793, Note_on_c, 0, 61, 0
2, 15799, Control_c, 0, 64, 0
2, 15800, Note_on_c, 0, 62, 12
2, 15944, Note_on_c, 0, 61, 30
2, 15954, Note_on_c, 0, 62, 0
2, 15958, Control_c, 0, 64, 127
2, 15974, Control_c, 0, 64, 0
2, 16007, Control_c, 0, 64, 127
2, 16038, Note_on_c, 0, 61, 0
2, 16053, Note_on_c, 0, 60, 35
2, 16080, Note_on_c, 0, 57, 0
2, 16086, Note_on_c, 0, 60, 0
2, 16103, Note_on_c, 0, 67, 0
2, 16158, Note_on_c, 0, 67, 42
2, 16217, Note_on_c, 0, 41, 0
2, 16222, Note_on_c, 0, 67, 0
2, 16242, Note_on_c, 0, 51, 0
2, 16261, Note_on_c, 0, 71, 56
2, 16264, Note_on_c, 0, 62, 32
2, 16269, Note_on_c, 0, 67, 31
2, 16281, Note_on_c, 0, 62, 0
2, 16283, Note_on_c, 0, 67, 0
2, 16293, Note_on_c, 0, 71, 0
2, 16378, Note_on_c, 0, 67, 41
2, 16381, Note_on_c, 0, 74, 42
2, 16386, Note_on_c, 0, 63, 25
2, 16399, Note_on_c, 0, 67, 0
2, 16411, Note_on_c, 0, 74, 0
2, 16424, Note_on_c, 0, 63, 0
2, 16631, Note_on_c, 0, 86, 42
2, 16634, Note_on_c, 0, 79, 24
2, 16645, Note_on_c, 0, 67, 18
2, 16681, Note_on_c, 0, 63, 1
2, 16747, Note_on_c, 0, 79, 0
2, 16770, Note_on_c, 0, 86, 0
2, 16783, Note_on_c, 0, 83, 30
2, 16791, Note_on_c, 0, 74, 16
2, 16815, Note_on_c, 0, 67, 0
2, 16830, Note_on_c, 0, 63, 0
2, 16859, Note_on_c, 0, 83, 0
2, 16878, Note_on_c, 0, 74, 0
2, 17245, Note_on_c, 0, 65, 29
2, 17246, Note_on_c, 0, 56, 21
2, 17246, Note_on_c, 0, 60, 32
2, 17248, Note_on_c, 0, 51, 18
2, 17249, Note_on_c, 0, 41, 29
2, 17251, Note_on_c, 0, 55, 20
2, 17254, Control_c, 0, 64, 0
2, 17359, Control_c, 0, 64, 127
2, 17392, Note_on_c, 0, 55, 0
2, 17398, Note_on_c, 0, 60, 0
2, 17401, Note_on_c, 0, 56, 0
2, 17406, Note_on_c, 0, 65, 0
2, 17441, Note_on_c, 0, 65, 53
2, 17519, Note_on_c, 0, 65, 0
2, 17529, Note_on_c, 0, 41, 0
2, 17569, Note_on_c, 0, 51, 0
2, 17578, Note_on_c, 0, 65, 52
2, 17638, Note_on_c, 0, 65, 0
2, 17734, Note_on_c, 0, 77, 72
2, 17793, Note_on_c, 0, 77, 0
2, 17932, Note_on_c, 0, 46, 46
2, 17938, Note_on_c, 0, 77, 77
2, 17940, Control_c, 0, 64, 0
2, 17989, Control_c, 0, 64, 127
2, 18167, Note_on_c, 0, 56, 18
2, 18203, Note_on_c, 0, 46, 0
2, 18214, Note_on_c, 0, 56, 0
2, 18324, Note_on_c, 0, 77, 0
2, 18640, Note_on_c, 0, 75, 49
2, 18648, Note_on_c, 0, 68, 38
2, 18654, Note_on_c, 0, 65, 36
2, 18655, Note_on_c, 0, 56, 30
2, 18656, Note_on_c, 0, 62, 22
2, 18679, Control_c, 0, 64, 0
2, 18722, Control_c, 0, 64, 127
2, 18784, Note_on_c, 0, 75, 0
2, 18888, Note_on_c, 0, 62, 0
2, 18892, Note_on_c, 0, 74, 52
2, 18912, Note_on_c, 0, 56, 0
2, 18927, Note_on_c, 0, 65, 0
2, 18949, Note_on_c, 0, 74, 0
2, 19012, Note_on_c, 0, 68, 0
2, 19280, Note_on_c, 0, 75, 50
2, 19289, Note_on_c, 0, 39, 34
2, 19298, Control_c, 0, 64, 0
2, 19322, Control_c, 0, 64, 127
2, 19395, Note_on_c, 0, 39, 0
2, 19396, Note_on_c, 0, 75, 0
2, 19405, Note_on_c, 0, 46, 37
2, 19545, Note_on_c, 0, 63, 43
2, 19548, Note_on_c, 0, 55, 30
2, 19549, Note_on_c, 0, 58, 20
2, 19666, Note_on_c, 0, 58, 0
2, 19684, Note_on_c, 0, 46, 0
2, 19685, Note_on_c, 0, 67, 57
2, 19699, Note_on_c, 0, 55, 0
2, 19744, Note_on_c, 0, 67, 0
2, 19759, Note_on_c, 0, 63, 0
2, 19884, Note_on_c, 0, 70, 69
2, 19889, Note_on_c, 0, 63, 43
2, 19889, Note_on_c, 0, 43, 32
2, 19892, Note_on_c, 0, 65, 53
2, 19904, Note_on_c, 0, 53, 33
2, 19908, Control_c, 0, 64, 0
2, 19914, Note_on_c, 0, 59, 17
2, 20044, Control_c, 0, 64, 127
2, 20091, Note_on_c, 0, 70, 0
2, 20092, Note_on_c, 0, 68, 51
2, 20154, Note_on_c, 0, 43, 0
2, 20158, Note_on_c, 0, 53, 0
2, 20180, Note_on_c, 0, 63, 0
2, 20188, Note_on_c, 0, 65, 0
2, 20189, Note_on_c, 0, 59, 0
2, 20195, Note_on_c, 0, 68, 0
2, 20346, Note_on_c, 0, 67, 29
2, 20353, Note_on_c, 0, 63, 26
2, 20356, Note_on_c, 0, 59, 34
2, 20362, Note_on_c, 0, 53, 24
2, 20363, Note_on_c, 0, 43, 19
2, 20367, Control_c, 0, 64, 0
2, 20503, Control_c, 0, 64, 127
2, 20580, Note_on_c, 0, 63, 0
2, 20797, Control_c, 0, 64, 127
2, 20811, Note_on_c, 0, 43, 0
2, 20822, Note_on_c, 0, 53, 0
2, 20901, Note_on_c, 0, 59, 0
2, 20920, Note_on_c, 0, 67, 0
2, 21118, Note_on_c, 0, 75, 67
2, 21126, Note_on_c, 0, 67, 52
2, 21129, Note_on_c, 0, 62, 41
2, 21131, Note_on_c, 0, 63, 35
2, 21134, Control_c, 0, 64, 0
2, 21164, Control_c, 0, 64, 127
2, 21228, Note_on_c, 0, 67, 0
2, 21232, Note_on_c, 0, 63, 0
2, 21253, Note_on_c, 0, 62, 0
2, 21254, Control_c, 0, 64, 0
2, 21256, Note_on_c, 0, 75, 0
2, 21357, Note_on_c, 0, 65, 36
2, 21359, Note_on_c, 0, 61, 26
2, 21363, Note_on_c, 0, 60, 32
2, 21364, Note_on_c, 0, 55, 32
2, 21442, Note_on_c, 0, 74, 105
2, 21496, Note_on_c, 0, 65, 0
2, 21498, Note_on_c, 0, 60, 0
2, 21499, Note_on_c, 0, 74, 0
2, 21502, Note_on_c, 0, 61, 0
2, 21504, Note_on_c, 0, 55, 0
2, 21521, Note_on_c, 0, 75, 84
2, 21550, Note_on_c, 0, 75, 0
2, 21599, Note_on_c, 0, 79, 82
2, 21602, Control_c, 0, 64, 0
2, 21605, Note_on_c, 0, 72, 80
2, 21607, Note_on_c, 0, 50, 51
2, 21608, Note_on_c, 0, 60, 39
2, 21610, Note_on_c, 0, 56, 33
2, 21613, Note_on_c, 0, 67, 40
2, 21669, Control_c, 0, 64, 127
2, 21728, Note_on_c, 0, 79, 0
2, 21736, Note_on_c, 0, 60, 0
2, 21739, Note_on_c, 0, 72, 0
2, 21744, Note_on_c, 0, 67, 0
2, 21746, Note_on_c, 0, 56, 0
2, 21748, Note_on_c, 0, 50, 0
2, 21838, Note_on_c, 0, 61, 52
2, 21841, Note_on_c, 0, 59, 56
2, 21842, Control_c, 0, 64, 0
2, 21846, Note_on_c, 0, 43, 33
2, 21846, Note_on_c, 0, 53, 31
2, 21868, Note_on_c, 0, 61, 0
2, 21872, Note_on_c, 0, 62, 49
2, 21893, Control_c, 0, 64, 127
2, 21958, Note_on_c, 0, 53, 0
2, 21963, Note_on_c, 0, 62, 0
2, 21969, Note_on_c, 0, 63, 55
2, 21995, Note_on_c, 0, 63, 0
2, 22006, Note_on_c, 0, 43, 0
2, 22007, Note_on_c, 0, 65, 61
2, 22009, Note_on_c, 0, 53, 20
2, 22022, Note_on_c, 0, 53, 0
2, 22040, Note_on_c, 0, 59, 0
2, 22058, Note_on_c, 0, 65, 0
2, 22085, Note_on_c, 0, 63, 34
2, 22087, Note_on_c, 0, 48, 38
2, 22090, Note_on_c, 0, 62, 45
2, 22090, Control_c, 0, 64, 0
2, 22092, Note_on_c, 0, 55, 24
2, 22134, Control_c, 0, 64, 127
2, 22153, Note_on_c, 0, 62, 0
2, 22160, Note_on_c, 0, 63, 0
2, 22174, Note_on_c, 0, 55, 0
2, 22181, Note_on_c, 0, 48, 0
2, 22279, Note_on_c, 0, 75, 93
2, 22313, Note_on_c, 0, 75, 0
2, 22334, Note_on_c, 0, 75, 80
2, 22335, Note_on_c, 0, 60, 48
2, 22335, Note_on_c, 0, 61, 37
2, 22336, Note_on_c, 0, 65, 49
2, 22338, Note_on_c, 0, 56, 34
2, 22339, Control_c, 0, 64, 0
2, 22386, Control_c, 0, 64, 127
2, 22415, Note_on_c, 0, 75, 0
2, 22419, Note_on_c, 0, 74, 71
2, 22477, Note_on_c, 0, 74, 0
2, 22490, Note_on_c, 0, 75, 68
2, 22493, Note_on_c, 0, 65, 0
2, 22498, Note_on_c, 0, 60, 0
2, 22513, Note_on_c, 0, 61, 0
2, 22520, Note_on_c, 0, 56, 0
2, 22549, Note_on_c, 0, 75, 0
2, 22564, Note_on_c, 0, 65, 67
2, 22564, Note_on_c, 0, 79, 76
2, 22567, Note_on_c, 0, 61, 38
2, 22567, Note_on_c, 0, 55, 55
2, 22568, Note_on_c, 0, 60, 53
2, 22571, Control_c, 0, 64, 0
2, 22640, Control_c, 0, 64, 127
2, 22689, Note_on_c, 0, 60, 0
2, 22716, Note_on_c, 0, 61, 0
2, 22718, Note_on_c, 0, 55, 0
2, 22718, Note_on_c, 0, 65, 0
2, 22869, Note_on_c, 0, 79, 0
2, 22882, Note_on_c, 0, 72, 46
2, 22886, Note_on_c, 0, 65, 44
2, 22886, Note_on_c, 0, 60, 37
2, 22888, Control_c, 0, 64, 0
2, 22892, Note_on_c, 0, 54, 34
2, 22915, Control_c, 0, 64, 127
2, 22953, Note_on_c, 0, 65, 0
2, 22960, Note_on_c, 0, 77, 82
2, 22961, Note_on_c, 0, 60, 0
2, 22969, Note_on_c, 0, 54, 0
2, 22972, Note_on_c, 0, 72, 0
2, 23029, Note_on_c, 0, 77, 0
2, 23040, Note_on_c, 0, 74, 51
2, 23040, Note_on_c, 0, 55, 41
2, 23046, Note_on_c, 0, 62, 26
2, 23046, Note_on_c, 0, 70, 43
2, 23046, Control_c, 0, 64, 0
2, 23046, Note_on_c, 0, 69, 38
2, 23046, Note_on_c, 0, 65, 31
2, 23051, Note_on_c, 0, 58, 25
2, 23092, Control_c, 0, 64, 127
2, 23104, Note_on_c, 0, 70, 0
2, 23104, Note_on_c, 0, 74, 0
2, 23122, Note_on_c, 0, 69, 0
2, 23180, Note_on_c, 0, 62, 0
2, 23180, Note_on_c, 0, 65, 0
2, 23190, Note_on_c, 0, 55, 0
2, 23198, Note_on_c, 0, 58, 0
2, 23237, Note_on_c, 0, 82, 91
2, 23244, Note_on_c, 0, 70, 75
2, 23266, Note_on_c, 0, 82, 0
2, 23267, Note_on_c, 0, 70, 0
2, 23287, Note_on_c, 0, 82, 81
2, 23287, Note_on_c, 0, 70, 73
2, 23292, Note_on_c, 0, 62, 36
2, 23292, Note_on_c, 0, 58, 27
2, 23292, Control_c, 0, 64, 0
2, 23293, Note_on_c, 0, 57, 31
2, 23294, Note_on_c, 0, 52, 42
2, 23313, Note_on_c, 0, 70, 0
2, 23320, Note_on_c, 0, 82, 0
2, 23331, Note_on_c, 0, 81, 40
2, 23352, Note_on_c, 0, 81, 0
2, 23368, Note_on_c, 0, 82, 80
2, 23368, Note_on_c, 0, 70, 65
2, 23397, Note_on_c, 0, 70, 0
2, 23402, Note_on_c, 0, 82, 0
2, 23405, Control_c, 0, 64, 127
2, 23416, Note_on_c, 0, 81, 29
2, 23431, Note_on_c, 0, 81, 0
2, 23447, Note_on_c, 0, 82, 86
2, 23448, Note_on_c, 0, 57, 0
2, 23448, Note_on_c, 0, 52, 0
2, 23448, Note_on_c, 0, 70, 74
2, 23458, Note_on_c, 0, 58, 0
2, 23473, Note_on_c, 0, 62, 0
2, 23487, Note_on_c, 0, 70, 0
2, 23498, Note_on_c, 0, 82, 0
2, 23528, Note_on_c, 0, 72, 60
2, 23528, Note_on_c, 0, 84, 75
2, 23529, Control_c, 0, 64, 0
2, 23530, Note_on_c, 0, 65, 46
2, 23531, Note_on_c, 0, 60, 32
2, 23534, Note_on_c, 0, 61, 25
2, 23536, Note_on_c, 0, 55, 34
2, 23572, Control_c, 0, 64, 127
2, 23594, Note_on_c, 0, 84, 0
2, 23604, Note_on_c, 0, 72, 0
2, 23614, Note_on_c, 0, 84, 68
2, 23615, Note_on_c, 0, 72, 62
2, 23624, Control_c, 0, 64, 0
2, 23638, Control_c, 0, 64, 127
2, 23662, Note_on_c, 0, 60, 0
2, 23665, Note_on_c, 0, 72, 0
2, 23668, Note_on_c, 0, 61, 0
2, 23669, Note_on_c, 0, 65, 0
2, 23670, Note_on_c, 0, 55, 0
2, 23686, Note_on_c, 0, 84, 0
2, 23719, Note_on_c, 0, 86, 80
2, 23719, Note_on_c, 0, 77, 77
2, 23722, Note_on_c, 0, 58, 39
2, 23722, Note_on_c, 0, 65, 56
2, 23722, Note_on_c, 0, 60, 47
2, 23723, Note_on_c, 0, 54, 43
2, 23729, Control_c, 0, 64, 0
2, 23769, Control_c, 0, 64, 127
2, 23824, Note_on_c, 0, 86, 0
2, 23852, Note_on_c, 0, 77, 0
2, 23878, Note_on_c, 0, 65, 0
2, 23880, Note_on_c, 0, 60, 0
2, 23894, Note_on_c, 0, 58, 0
2, 23900, Note_on_c, 0, 54, 0
2, 23917, Note_on_c, 0, 82, 51
2, 23952, Note_on_c, 0, 82, 0
2, 23954, Note_on_c, 0, 78, 45
2, 23976, Note_on_c, 0, 78, 0
2, 23987, Control_c, 0, 64, 0
2, 23989, Note_on_c, 0, 57, 36
2, 23991, Note_on_c, 0, 62, 24
2, 23992, Note_on_c, 0, 58, 25
2, 23992, Note_on_c, 0, 81, 55
2, 23995, Note_on_c, 0, 55, 26
2, 24020, Note_on_c, 0, 81, 0
2, 24026, Note_on_c, 0, 78, 29
2, 24046, Note_on_c, 0, 78, 0
2, 24060, Note_on_c, 0, 79, 69
2, 24083, Note_on_c, 0, 79, 0
2, 24094, Note_on_c, 0, 74, 54
2, 24112, Note_on_c, 0, 74, 0
2, 24131, Note_on_c, 0, 74, 60
2, 24139, Control_c, 0, 64, 127
2, 24166, Note_on_c, 0, 74, 0
2, 24190, Note_on_c, 0, 62, 0
2, 24190, Note_on_c, 0, 55, 0
2, 24194, Note_on_c, 0, 57, 0
2, 24204, Note_on_c, 0, 58, 0
2, 24204, Note_on_c, 0, 82, 79
2, 24206, Note_on_c, 0, 70, 77
2, 24233, Note_on_c, 0, 82, 0
2, 24236, Note_on_c, 0, 70, 0
2, 24241, Note_on_c, 0, 54, 42
2, 24245, Control_c, 0, 64, 0
2, 24246, Note_on_c, 0, 62, 36
2, 24246, Note_on_c, 0, 82, 65
2, 24246, Note_on_c, 0, 58, 42
2, 24248, Note_on_c, 0, 70, 67
2, 24285, Control_c, 0, 64, 127
2, 24297, Note_on_c, 0, 82, 0
2, 24300, Note_on_c, 0, 70, 0
2, 24321, Note_on_c, 0, 69, 54
2, 24331, Note_on_c, 0, 69, 0
2, 24340, Control_c, 0, 64, 0
2, 24361, Control_c, 0, 64, 127
2, 24362, Note_on_c, 0, 70, 47
2, 24363, Note_on_c, 0, 82, 62
2, 24366, Note_on_c, 0, 54, 0
2, 24368, Note_on_c, 0, 62, 0
2, 24370, Note_on_c, 0, 58, 0
2, 24378, Note_on_c, 0, 70, 0
2, 24383, Note_on_c, 0, 82, 0
2, 24438, Note_on_c, 0, 84, 52
2, 24438, Note_on_c, 0, 72, 42
2, 24439, Note_on_c, 0, 80, 34
2, 24440, Note_on_c, 0, 77, 45
2, 24440, Note_on_c, 0, 63, 31
2, 24441, Note_on_c, 0, 60, 33
2, 24442, Control_c, 0, 64, 0
2, 24442, Note_on_c, 0, 56, 35
2, 24446, Note_on_c, 0, 53, 24
2, 24465, Note_on_c, 0, 84, 0
2, 24470, Control_c, 0, 64, 127
2, 24472, Note_on_c, 0, 77, 0
2, 24477, Note_on_c, 0, 80, 0
2, 24479, Note_on_c, 0, 72, 0
2, 24526, Note_on_c, 0, 67, 54
2, 24541, Note_on_c, 0, 53, 0
2, 24543, Control_c, 0, 64, 0
2, 24544, Note_on_c, 0, 67, 0
2, 24546, Note_on_c, 0, 60, 0
2, 24546, Note_on_c, 0, 68, 52
2, 24555, Note_on_c, 0, 56, 0
2, 24558, Note_on_c, 0, 63, 0
2, 24563, Note_on_c, 0, 68, 0
2, 24568, Note_on_c, 0, 70, 54
2, 24575, Note_on_c, 0, 70, 0
2, 24595, Note_on_c, 0, 72, 52
2, 24605, Note_on_c, 0, 72, 0
2, 24622, Note_on_c, 0, 74, 73
2, 24629, Note_on_c, 0, 74, 0
2, 24651, Note_on_c, 0, 75, 69
2, 24660, Note_on_c, 0, 75, 0
2, 24679, Note_on_c, 0, 77, 67
2, 24687, Note_on_c, 0, 77, 0
2, 24720, Note_on_c, 0, 79, 73
2, 24722, Note_on_c, 0, 66, 40
2, 24727, Note_on_c, 0, 62, 32
2, 24734, Note_on_c, 0, 79, 0
2, 24737, Note_on_c, 0, 62, 0
2, 24738, Note_on_c, 0, 66, 0
2, 24758, Note_on_c, 0, 80, 73
2, 24774, Note_on_c, 0, 80, 0
2, 24792, Note_on_c, 0, 66, 44
2, 24793, Note_on_c, 0, 82, 78
2, 24793, Note_on_c, 0, 56, 40
2, 24795, Note_on_c, 0, 62, 42
2, 24808, Control_c, 0, 64, 127
2, 24843, Note_on_c, 0, 82, 0
2, 24843, Note_on_c, 0, 66, 0
2, 24845, Note_on_c, 0, 62, 0
2, 24853, Note_on_c, 0, 83, 78
2, 24855, Note_on_c, 0, 66, 28
2, 24858, Note_on_c, 0, 62, 30
2, 24871, Note_on_c, 0, 66, 0
2, 24872, Note_on_c, 0, 83, 0
2, 24876, Note_on_c, 0, 62, 0
2, 24878, Note_on_c, 0, 56, 0
2, 24887, Note_on_c, 0, 86, 71
2, 24905, Note_on_c, 0, 86, 0
2, 24926, Note_on_c, 0, 66, 48
2, 24926, Note_on_c, 0, 56, 55
2, 24928, Note_on_c, 0, 89, 85
2, 24929, Note_on_c, 0, 62, 41
2, 24939, Note_on_c, 0, 62, 0
2, 24942, Note_on_c, 0, 66, 0
2, 24960, Note_on_c, 0, 56, 0
2, 24961, Note_on_c, 0, 89, 0
2, 24967, Control_c, 0, 64, 0
2, 24975, Note_on_c, 0, 65, 34
2, 24975, Note_on_c, 0, 87, 56
2, 24977, Note_on_c, 0, 60, 33
2, 24985, Note_on_c, 0, 65, 0
2, 24987, Note_on_c, 0, 60, 0
2, 24991, Note_on_c, 0, 87, 0
2, 25029, Control_c, 0, 64, 127
2, 25069, Control_c, 0, 64, 0
2, 25077, Control_c, 0, 64, 127
2, 25200, Control_c, 0, 64, 0
2, 25205, Note_on_c, 0, 85, 83
2, 25205, Note_on_c, 0, 97, 83
2, 25205, Note_on_c, 0, 92, 80
2, 25207, Note_on_c, 0, 64, 68
2, 25207, Note_on_c, 0, 53, 73
2, 25209, Note_on_c, 0, 59, 66
2, 25219, Control_c, 0, 64, 127
2, 25237, Note_on_c, 0, 56, 18
2, 25238, Note_on_c, 0, 53, 0
2, 25245, Note_on_c, 0, 56, 0
2, 25250, Note_on_c, 0, 64, 0
2, 25250, Note_on_c, 0, 59, 0
2, 25251, Note_on_c, 0, 85, 0
2, 25253, Note_on_c, 0, 92, 0
2, 25253, Note_on_c, 0, 97, 0
2, 25281, Control_c, 0, 64, 0
2, 25283, Note_on_c, 0, 54, 59
2, 25286, Note_on_c, 0, 86, 74
2, 25286, Note_on_c, 0, 59, 33
2, 25287, Note_on_c, 0, 98, 73
2, 25288, Note_on_c, 0, 64, 54
2, 25289, Note_on_c, 0, 93, 66
2, 25293, Control_c, 0, 64, 127
2, 25298, Note_on_c, 0, 59, 0
2, 25302, Note_on_c, 0, 86, 0
2, 25303, Note_on_c, 0, 98, 0
2, 25303, Note_on_c, 0, 64, 0
2, 25306, Note_on_c, 0, 54, 0
2, 25307, Note_on_c, 0, 93, 0
2, 25320, Control_c, 0, 64, 0
2, 25329, Note_on_c, 0, 61, 39
2, 25334, Note_on_c, 0, 60, 40
2, 25334, Note_on_c, 0, 65, 52
2, 25334, Note_on_c, 0, 55, 40
2, 25334, Note_on_c, 0, 99, 64
2, 25334, Note_on_c, 0, 87, 56
2, 25336, Note_on_c, 0, 94, 57
2, 25346, Control_c, 0, 64, 127
2, 25370, Note_on_c, 0, 65, 0
2, 25371, Note_on_c, 0, 55, 0
2, 25373, Note_on_c, 0, 60, 0
2, 25376, Note_on_c, 0, 99, 0
2, 25376, Note_on_c, 0, 87, 0
2, 25377, Note_on_c, 0, 94, 0
2, 25381, Note_on_c, 0, 61, 0
2, 25409, Note_on_c, 0, 65, 55
2, 25411, Note_on_c, 0, 61, 37
2, 25412, Note_on_c, 0, 60, 51
2, 25417, Note_on_c, 0, 89, 80
2, 25417, Note_on_c, 0, 101, 75
2, 25418, Note_on_c, 0, 65, 0
2, 25421, Note_on_c, 0, 61, 0
2, 25422, Note_on_c, 0, 99, 29
2, 25426, Note_on_c, 0, 96, 29
2, 25433, Note_on_c, 0, 99, 0
2, 25436, Note_on_c, 0, 89, 0
2, 25438, Note_on_c, 0, 101, 0
2, 25438, Note_on_c, 0, 60, 0
2, 25444, Note_on_c, 0, 96, 0
2, 25446, Control_c, 0, 64, 0
2, 25462, Note_on_c, 0, 60, 37
2, 25464, Note_on_c, 0, 65, 47
2, 25466, Note_on_c, 0, 99, 56
2, 25466, Note_on_c, 0, 61, 29
2, 25467, Note_on_c, 0, 87, 43
2, 25468, Note_on_c, 0, 56, 32
2, 25474, Note_on_c, 0, 65, 0
2, 25478, Note_on_c, 0, 60, 0
2, 25479, Note_on_c, 0, 87, 0
2, 25485, Note_on_c, 0, 61, 0
2, 25485, Note_on_c, 0, 99, 0
2, 25486, Note_on_c, 0, 56, 0
2, 25490, Control_c, 0, 64, 127
2, 25494, Control_c, 0, 64, 0
2, 25498, Control_c, 0, 64, 127
2, 25512, Control_c, 0, 64, 0
2, 25537, Note_on_c, 0, 85, 51
2, 25538, Note_on_c, 0, 97, 53
2, 25539, Note_on_c, 0, 56, 35
2, 25539, Note_on_c, 0, 60, 39
2, 25539, Note_on_c, 0, 61, 33
2, 25539, Note_on_c, 0, 65, 36
2, 25541, Note_on_c, 0, 92, 39
2, 25551, Note_on_c, 0, 92, 0
2, 25554, Note_on_c, 0, 85, 0
2, 25555, Note_on_c, 0, 97, 0
2, 25562, Control_c, 0, 64, 127
2, 25573, Note_on_c, 0, 65, 0
2, 25574, Note_on_c, 0, 60, 0
2, 25581, Note_on_c, 0, 61, 0
2, 25592, Note_on_c, 0, 56, 0
2, 25645, Control_c, 0, 64, 0
2, 25647, Note_on_c, 0, 94, 58
2, 25648, Note_on_c, 0, 82, 53
2, 25648, Note_on_c, 0, 87, 64
2, 25649, Note_on_c, 0, 55, 61
2, 25651, Note_on_c, 0, 61, 39
2, 25651, Note_on_c, 0, 91, 44
2, 25652, Note_on_c, 0, 65, 43
2, 25668, Note_on_c, 0, 91, 0
2, 25669, Note_on_c, 0, 94, 0
2, 25672, Note_on_c, 0, 65, 0
2, 25677, Note_on_c, 0, 87, 0
2, 25677, Control_c, 0, 64, 127
2, 25681, Note_on_c, 0, 82, 0
2, 25686, Note_on_c, 0, 61, 0
2, 25687, Note_on_c, 0, 55, 0
2, 25768, Note_on_c, 0, 64, 69
2, 25768, Note_on_c, 0, 61, 45
2, 25768, Note_on_c, 0, 59, 64
2, 25768, Note_on_c, 0, 55, 62
2, 25772, Note_on_c, 0, 45, 54
2, 25773, Note_on_c, 0, 52, 63
2, 25779, Control_c, 0, 64, 0
2, 25818, Control_c, 0, 64, 127
2, 25857, Note_on_c, 0, 64, 0
2, 25862, Note_on_c, 0, 52, 0
2, 25863, Note_on_c, 0, 59, 0
2, 25872, Note_on_c, 0, 45, 0
2, 25876, Note_on_c, 0, 55, 0
2, 25876, Note_on_c, 0, 61, 0
2, 25917, Control_c, 0, 64, 0
2, 25926, Note_on_c, 0, 63, 35
2, 25927, Note_on_c, 0, 58, 37
2, 25929, Note_on_c, 0, 44, 30
2, 25930, Note_on_c, 0, 55, 44
2, 25931, Note_on_c, 0, 51, 28
2, 25943, Control_c, 0, 64, 127
2, 25951, Note_on_c, 0, 55, 0
2, 25958, Note_on_c, 0, 58, 0
2, 25964, Note_on_c, 0, 63, 0
2, 25964, Note_on_c, 0, 44, 0
2, 25964, Note_on_c, 0, 51, 0
2, 26037, Note_on_c, 0, 54, 76
2, 26038, Control_c, 0, 64, 0
2, 26040, Note_on_c, 0, 65, 92
2, 26041, Note_on_c, 0, 70, 88
2, 26042, Note_on_c, 0, 60, 88
2, 26043, Note_on_c, 0, 55, 85
2, 26053, Note_on_c, 0, 54, 0
2, 26101, Control_c, 0, 64, 127
2, 26172, Note_on_c, 0, 55, 0
2, 26178, Note_on_c, 0, 70, 0
2, 26181, Note_on_c, 0, 65, 0
2, 26191, Note_on_c, 0, 60, 0
2, 26271, Control_c, 0, 64, 0
2, 26272, Note_on_c, 0, 44, 36
2, 26273, Note_on_c, 0, 66, 50
2, 26274, Note_on_c, 0, 58, 49
2, 26275, Note_on_c, 0, 54, 30
2, 26276, Note_on_c, 0, 61, 38
2, 26307, Note_on_c, 0, 66, 0
2, 26313, Note_on_c, 0, 58, 0
2, 26316, Note_on_c, 0, 44, 0
2, 26316, Note_on_c, 0, 54, 0
2, 26316, Note_on_c, 0, 61, 0
2, 26358, Note_on_c, 0, 66, 47
2, 26359, Note_on_c, 0, 58, 44
2, 26362, Note_on_c, 0, 61, 46
2, 26362, Note_on_c, 0, 44, 42
2, 26362, Note_on_c, 0, 54, 40
2, 26418, Control_c, 0, 64, 127
2, 26581, Note_on_c, 0, 61, 0
2, 26582, Note_on_c, 0, 58, 0
2, 26584, Note_on_c, 0, 54, 0
2, 26640, Note_on_c, 0, 61, 32
2, 26641, Note_on_c, 0, 58, 31
2, 26649, Note_on_c, 0, 54, 15
2, 26657, Note_on_c, 0, 66, 0
2, 26701, Note_on_c, 0, 58, 0
2, 26714, Note_on_c, 0, 61, 0
2, 26716, Note_on_c, 0, 44, 0
2, 26718, Note_on_c, 0, 54, 0
2, 26880, Note_on_c, 0, 67, 60
2, 26880, Note_on_c, 0, 78, 64
2, 26880, Note_on_c, 0, 63, 35
2, 26882, Note_on_c, 0, 62, 40
2, 26883, Note_on_c, 0, 69, 58
2, 26884, Note_on_c, 0, 57, 42
2, 26885, Control_c, 0, 64, 0
2, 26896, Note_on_c, 0, 57, 0
2, 26896, Note_on_c, 0, 67, 0
2, 26897, Note_on_c, 0, 62, 0
2, 26899, Note_on_c, 0, 63, 0
2, 26900, Note_on_c, 0, 69, 0
2, 26911, Note_on_c, 0, 78, 0
2, 26923, Note_on_c, 0, 74, 49
2, 26931, Note_on_c, 0, 74, 0
2, 26961, Note_on_c, 0, 62, 53
2, 26962, Note_on_c, 0, 78, 67
2, 26962, Note_on_c, 0, 67, 60
2, 26964, Note_on_c, 0, 63, 37
2, 26965, Note_on_c, 0, 74, 58
2, 26965, Note_on_c, 0, 69, 60
2, 26967, Note_on_c, 0, 57, 36
2, 26980, Note_on_c, 0, 74, 0
2, 26981, Note_on_c, 0, 69, 0
2, 26982, Note_on_c, 0, 57, 0
2, 26983, Note_on_c, 0, 67, 0
2, 26983, Note_on_c, 0, 63, 0
2, 26986, Note_on_c, 0, 62, 0
2, 26988, Note_on_c, 0, 78, 0
2, 27034, Control_c, 0, 64, 127
2, 27207, Note_on_c, 0, 41, 36
2, 27224, Note_on_c, 0, 41, 0
2, 27232, Control_c, 0, 64, 0
2, 27259, Control_c, 0, 64, 127
2, 27325, Note_on_c, 0, 63, 49
2, 27327, Note_on_c, 0, 54, 57
2, 27330, Note_on_c, 0, 57, 54
2, 27334, Note_on_c, 0, 54, 0
2, 27334, Note_on_c, 0, 60, 36
2, 27334, Control_c, 0, 64, 0
2, 27336, Note_on_c, 0, 57, 0
2, 27341, Note_on_c, 0, 60, 0
2, 27344, Note_on_c, 0, 63, 0
2, 27448, Note_on_c, 0, 63, 50
2, 27448, Note_on_c, 0, 75, 67
2, 27449, Note_on_c, 0, 69, 75
2, 27450, Note_on_c, 0, 72, 65
2, 27452, Note_on_c, 0, 65, 62
2, 27481, Note_on_c, 0, 63, 0
2, 27484, Note_on_c, 0, 75, 0
2, 27485, Note_on_c, 0, 65, 0
2, 27486, Note_on_c, 0, 72, 0
2, 27487, Note_on_c, 0, 69, 0
2, 27559, Control_c, 0, 64, 127
2, 27570, Note_on_c, 0, 66, 63
2, 27571, Note_on_c, 0, 63, 60
2, 27573, Note_on_c, 0, 69, 55
2, 27573, Note_on_c, 0, 72, 58
2, 27574, Note_on_c, 0, 60, 61
2, 27581, Control_c, 0, 64, 0
2, 27589, Note_on_c, 0, 69, 0
2, 27591, Note_on_c, 0, 72, 0
2, 27598, Note_on_c, 0, 60, 0
2, 27600, Note_on_c, 0, 63, 0
2, 27601, Note_on_c, 0, 66, 0
2, 27617, Note_on_c, 0, 66, 35
2, 27635, Note_on_c, 0, 57, 38
2, 27641, Note_on_c, 0, 63, 23
2, 27653, Note_on_c, 0, 63, 0
2, 27657, Note_on_c, 0, 66, 0
2, 27664, Control_c, 0, 64, 127
2, 27702, Control_c, 0, 64, 0
2, 27707, Note_on_c, 0, 57, 0
2, 27723, Note_on_c, 0, 63, 34
2, 27728, Note_on_c, 0, 60, 27
2, 27730, Note_on_c, 0, 65, 33
2, 27731, Control_c, 0, 64, 127
2, 27739, Note_on_c, 0, 60, 0
2, 27743, Note_on_c, 0, 65, 0
2, 27749, Note_on_c, 0, 63, 0
2, 27921, Note_on_c, 0, 66, 74
2, 27921, Note_on_c, 0, 62, 68
2, 27922, Note_on_c, 0, 78, 84
2, 27923, Note_on_c, 0, 56, 74
2, 27923, Note_on_c, 0, 90, 82
2, 27923, Note_on_c, 0, 82, 80
2, 27925, Control_c, 0, 64, 0
2, 27925, Note_on_c, 0, 85, 74
2, 27954, Note_on_c, 0, 66, 0
2, 27955, Note_on_c, 0, 82, 0
2, 27955, Note_on_c, 0, 78, 0
2, 27956, Note_on_c, 0, 56, 0
2, 27960, Note_on_c, 0, 90, 0
2, 27960, Note_on_c, 0, 85, 0
2, 27960, Control_c, 0, 64, 127
2, 27970, Note_on_c, 0, 62, 0
2, 27978, Note_on_c, 0, 90, 60
2, 27978, Note_on_c, 0, 62, 31
2, 27979, Note_on_c, 0, 78, 57
2, 27980, Note_on_c, 0, 66, 62
2, 27980, Note_on_c, 0, 85, 47
2, 27980, Note_on_c, 0, 56, 59
2, 27980, Note_on_c, 0, 82, 68
2, 28007, Note_on_c, 0, 82, 0
2, 28009, Note_on_c, 0, 62, 0
2, 28009, Note_on_c, 0, 78, 0
2, 28009, Note_on_c, 0, 85, 0
2, 28011, Note_on_c, 0, 90, 0
2, 28013, Note_on_c, 0, 66, 0
2, 28017, Note_on_c, 0, 56, 0
2, 28045, Control_c, 0, 64, 0
2, 28048, Note_on_c, 0, 89, 75
2, 28048, Note_on_c, 0, 77, 79
2, 28048, Note_on_c, 0, 61, 60
2, 28048, Note_on_c, 0, 65, 79
2, 28049, Note_on_c, 0, 60, 64
2, 28049, Note_on_c, 0, 81, 77
2, 28050, Note_on_c, 0, 84, 68
2, 28051, Note_on_c, 0, 55, 69
2, 28056, Note_on_c, 0, 84, 0
2, 28056, Note_on_c, 0, 58, 34
2, 28065, Note_on_c, 0, 58, 0
2, 28065, Note_on_c, 0, 84, 22
2, 28087, Note_on_c, 0, 55, 0
2, 28087, Note_on_c, 0, 81, 0
2, 28088, Note_on_c, 0, 77, 0
2, 28089, Note_on_c, 0, 84, 0
2, 28090, Note_on_c, 0, 65, 0
2, 28093, Note_on_c, 0, 61, 0
2, 28094, Note_on_c, 0, 89, 0
2, 28094, Note_on_c, 0, 60, 0
2, 28107, Note_on_c, 0, 89, 71
2, 28108, Note_on_c, 0, 61, 56
2, 28109, Note_on_c, 0, 65, 69
2, 28109, Note_on_c, 0, 60, 71
2, 28109, Note_on_c, 0, 81, 66
2, 28110, Note_on_c, 0, 84, 59
2, 28112, Note_on_c, 0, 77, 46
2, 28112, Note_on_c, 0, 55, 62
2, 28155, Note_on_c, 0, 55, 0
2, 28156, Note_on_c, 0, 81, 0
2, 28158, Note_on_c, 0, 77, 0
2, 28159, Note_on_c, 0, 84, 0
2, 28160, Note_on_c, 0, 89, 0
2, 28161, Note_on_c, 0, 61, 0
2, 28161, Note_on_c, 0, 65, 0
2, 28163, Note_on_c, 0, 60, 0
2, 28202, Note_on_c, 0, 60, 51
2, 28205, Note_on_c, 0, 89, 68
2, 28206, Note_on_c, 0, 84, 64
2, 28206, Note_on_c, 0, 65, 60
2, 28207, Note_on_c, 0, 81, 57
2, 28208, Note_on_c, 0, 77, 40
2, 28209, Note_on_c, 0, 55, 51
2, 28209, Note_on_c, 0, 61, 43
2, 28215, Control_c, 0, 64, 127
2, 28242, Note_on_c, 0, 81, 0
2, 28246, Note_on_c, 0, 84, 0
2, 28248, Note_on_c, 0, 60, 0
2, 28249, Note_on_c, 0, 89, 0
2, 28252, Note_on_c, 0, 61, 0
2, 28252, Note_on_c, 0, 77, 0
2, 28255, Note_on_c, 0, 55, 0
2, 28256, Note_on_c, 0, 65, 0
2, 28288, Note_on_c, 0, 82, 73
2, 28289, Note_on_c, 0, 77, 79
2, 28289, Note_on_c, 0, 89, 74
2, 28290, Note_on_c, 0, 86, 71
2, 28293, Note_on_c, 0, 65, 75
2, 28293, Note_on_c, 0, 58, 67
2, 28293, Note_on_c, 0, 60, 71
2, 28296, Note_on_c, 0, 54, 70
2, 28297, Control_c, 0, 64, 0
2, 28335, Note_on_c, 0, 77, 0
2, 28336, Note_on_c, 0, 82, 0
2, 28338, Note_on_c, 0, 54, 0
2, 28340, Note_on_c, 0, 65, 0
2, 28340, Note_on_c, 0, 89, 0
2, 28342, Note_on_c, 0, 86, 0
2, 28342, Note_on_c, 0, 60, 0
2, 28343, Note_on_c, 0, 58, 0
2, 28357, Note_on_c, 0, 89, 60
2, 28358, Note_on_c, 0, 54, 54
2, 28359, Note_on_c, 0, 86, 48
2, 28359, Note_on_c, 0, 58, 50
2, 28359, Note_on_c, 0, 65, 49
2, 28360, Note_on_c, 0, 82, 49
2, 28360, Note_on_c, 0, 60, 54
2, 28362, Note_on_c, 0, 77, 42
2, 28371, Control_c, 0, 64, 127
2, 28416, Note_on_c, 0, 82, 0
2, 28416, Note_on_c, 0, 65, 0
2, 28417, Note_on_c, 0, 77, 0
2, 28419, Note_on_c, 0, 86, 0
2, 28419, Note_on_c, 0, 54, 0
2, 28420, Note_on_c, 0, 60, 0
2, 28420, Note_on_c, 0, 58, 0
2, 28420, Note_on_c, 0, 89, 0
2, 28449, Note_on_c, 0, 82, 52
2, 28450, Note_on_c, 0, 65, 44
2, 28451, Note_on_c, 0, 77, 46
2, 28451, Note_on_c, 0, 58, 35
2, 28452, Note_on_c, 0, 89, 51
2, 28452, Note_on_c, 0, 54, 45
2, 28452, Note_on_c, 0, 60, 39
2, 28453, Note_on_c, 0, 86, 37
2, 28474, Note_on_c, 0, 86, 0
2, 28484, Note_on_c, 0, 60, 0
2, 28492, Note_on_c, 0, 65, 0
2, 28496, Note_on_c, 0, 82, 0
2, 28500, Note_on_c, 0, 77, 0
2, 28502, Note_on_c, 0, 58, 0
2, 28508, Note_on_c, 0, 89, 0
2, 28509, Note_on_c, 0, 54, 0
2, 28527, Note_on_c, 0, 85, 53
2, 28528, Note_on_c, 0, 77, 38
2, 28530, Note_on_c, 0, 64, 51
2, 28530, Note_on_c, 0, 59, 59
2, 28530, Note_on_c, 0, 83, 54
2, 28533, Note_on_c, 0, 53, 48
2, 28534, Control_c, 0, 64, 0
2, 28566, Control_c, 0, 64, 127
2, 28610, Note_on_c, 0, 53, 0
2, 28612, Note_on_c, 0, 64, 0
2, 28625, Note_on_c, 0, 59, 0
2, 28634, Note_on_c, 0, 77, 0
2, 28640, Note_on_c, 0, 83, 0
2, 28647, Note_on_c, 0, 63, 79
2, 28647, Note_on_c, 0, 59, 64
2, 28648, Note_on_c, 0, 56, 60
2, 28649, Note_on_c, 0, 85, 0
2, 28649, Note_on_c, 0, 53, 71
2, 28664, Control_c, 0, 64, 0
2, 28690, Control_c, 0, 64, 127
2, 28730, Note_on_c, 0, 59, 0
2, 28744, Note_on_c, 0, 53, 0
2, 28757, Note_on_c, 0, 63, 0
2, 28766, Note_on_c, 0, 56, 0
2, 28802, Note_on_c, 0, 62, 41
2, 28805, Note_on_c, 0, 75, 55
2, 28807, Control_c, 0, 64, 0
2, 28807, Note_on_c, 0, 67, 52
2, 28808, Note_on_c, 0, 57, 41
2, 28808, Note_on_c, 0, 51, 23
2, 28809, Note_on_c, 0, 63, 38
2, 28816, Note_on_c, 0, 55, 26
2, 28839, Note_on_c, 0, 63, 0
2, 28846, Note_on_c, 0, 67, 0
2, 28847, Control_c, 0, 64, 127
2, 28864, Note_on_c, 0, 75, 0
2, 28935, Note_on_c, 0, 75, 78
2, 28939, Note_on_c, 0, 55, 0
2, 28941, Note_on_c, 0, 57, 0
2, 28950, Note_on_c, 0, 51, 0
2, 28956, Note_on_c, 0, 75, 0
2, 28959, Note_on_c, 0, 62, 0
2, 28960, Note_on_c, 0, 77, 62
2, 28961, Control_c, 0, 64, 0
2, 28984, Note_on_c, 0, 75, 47
2, 28995, Note_on_c, 0, 77, 0
2, 29005, Control_c, 0, 64, 127
2, 29015, Note_on_c, 0, 75, 0
2, 29015, Note_on_c, 0, 74, 66
2, 29038, Note_on_c, 0, 74, 0
2, 29045, Control_c, 0, 64, 0
2, 29057, Note_on_c, 0, 75, 67
2, 29076, Note_on_c, 0, 75, 0
2, 29080, Note_on_c, 0, 77, 57
2, 29105, Note_on_c, 0, 75, 38
2, 29110, Control_c, 0, 64, 127
2, 29112, Note_on_c, 0, 77, 0
2, 29126, Note_on_c, 0, 65, 57
2, 29127, Note_on_c, 0, 61, 49
2, 29127, Note_on_c, 0, 55, 52
2, 29127, Note_on_c, 0, 60, 49
2, 29134, Control_c, 0, 64, 0
2, 29136, Note_on_c, 0, 75, 0
2, 29136, Note_on_c, 0, 74, 58
2, 29159, Note_on_c, 0, 74, 0
2, 29176, Note_on_c, 0, 75, 69
2, 29188, Note_on_c, 0, 60, 0
2, 29192, Note_on_c, 0, 65, 0
2, 29194, Note_on_c, 0, 75, 0
2, 29199, Note_on_c, 0, 61, 0
2, 29199, Note_on_c, 0, 55, 0
2, 29202, Note_on_c, 0, 77, 54
2, 29224, Control_c, 0, 64, 127
2, 29226, Note_on_c, 0, 75, 39
2, 29232, Note_on_c, 0, 77, 0
2, 29255, Note_on_c, 0, 74, 54
2, 29260, Note_on_c, 0, 75, 0
2, 29265, Note_on_c, 0, 74, 0
2, 29270, Control_c, 0, 64, 0
2, 29277, Note_on_c, 0, 60, 40
2, 29277, Note_on_c, 0, 56, 25
2, 29278, Note_on_c, 0, 50, 25
2, 29291, Note_on_c, 0, 79, 67
2, 29301, Note_on_c, 0, 50, 0
2, 29304, Control_c, 0, 64, 127
2, 29306, Note_on_c, 0, 56, 0
2, 29310, Note_on_c, 0, 60, 0
2, 29362, Note_on_c, 0, 79, 0
2, 29365, Note_on_c, 0, 67, 45
2, 29368, Note_on_c, 0, 65, 42
2, 29369, Note_on_c, 0, 54, 34
2, 29369, Note_on_c, 0, 60, 34
2, 29378, Control_c, 0, 64, 0
2, 29407, Control_c, 0, 64, 127
2, 29468, Note_on_c, 0, 60, 0
2, 29477, Note_on_c, 0, 65, 0
2, 29491, Note_on_c, 0, 67, 0
2, 29494, Note_on_c, 0, 54, 0
2, 29524, Note_on_c, 0, 64, 47
2, 29525, Note_on_c, 0, 53, 47
2, 29526, Note_on_c, 0, 71, 76
2, 29528, Note_on_c, 0, 59, 40
2, 29528, Control_c, 0, 64, 0
2, 29550, Note_on_c, 0, 71, 0
2, 29566, Note_on_c, 0, 73, 67
2, 29571, Control_c, 0, 64, 127
2, 29610, Note_on_c, 0, 64, 0
2, 29616, Note_on_c, 0, 53, 0
2, 29633, Note_on_c, 0, 73, 0
2, 29637, Note_on_c, 0, 59, 0
2, 29643, Control_c, 0, 64, 0
2, 29648, Note_on_c, 0, 59, 22
2, 29651, Note_on_c, 0, 63, 31
2, 29652, Note_on_c, 0, 74, 60
2, 29656, Note_on_c, 0, 53, 22
2, 29660, Note_on_c, 0, 56, 23
2, 29667, Note_on_c, 0, 74, 0
2, 29685, Control_c, 0, 64, 127
2, 29690, Note_on_c, 0, 77, 68
2, 29692, Note_on_c, 0, 59, 0
2, 29704, Note_on_c, 0, 53, 0
2, 29705, Note_on_c, 0, 63, 0
2, 29712, Note_on_c, 0, 56, 0
2, 29746, Note_on_c, 0, 77, 0
2, 29760, Note_on_c, 0, 55, 34
2, 29762, Control_c, 0, 64, 0
2, 29763, Note_on_c, 0, 58, 30
2, 29764, Note_on_c, 0, 75, 51
2, 29806, Control_c, 0, 64, 127
2, 29843, Note_on_c, 0, 63, 40
2, 29876, Note_on_c, 0, 55, 0
2, 29882, Note_on_c, 0, 63, 0
2, 29897, Note_on_c, 0, 75, 0
2, 29899, Note_on_c, 0, 58, 0
2, 29959, Note_on_c, 0, 75, 78
2, 29984, Note_on_c, 0, 75, 0
2, 30001, Note_on_c, 0, 75, 71
2, 30006, Note_on_c, 0, 72, 72
2, 30007, Note_on_c, 0, 68, 60
2, 30008, Control_c, 0, 64, 0
2, 30009, Note_on_c, 0, 60, 40
2, 30010, Note_on_c, 0, 61, 52
2, 30012, Note_on_c, 0, 65, 61
2, 30056, Control_c, 0, 64, 127
2, 30167, Note_on_c, 0, 65, 0
2, 30167, Note_on_c, 0, 60, 0
2, 30176, Note_on_c, 0, 61, 0
2, 30225, Note_on_c, 0, 72, 0
2, 30227, Note_on_c, 0, 68, 0
2, 30298, Note_on_c, 0, 75, 0
2, 30323, Note_on_c, 0, 61, 36
2, 30323, Note_on_c, 0, 60, 37
2, 30323, Note_on_c, 0, 65, 52
2, 30325, Note_on_c, 0, 55, 43
2, 30332, Control_c, 0, 64, 0
2, 30385, Control_c, 0, 64, 127
2, 30426, Note_on_c, 0, 69, 62
2, 30436, Note_on_c, 0, 69, 0
2, 30440, Note_on_c, 0, 65, 0
2, 30440, Note_on_c, 0, 60, 0
2, 30446, Note_on_c, 0, 55, 0
2, 30449, Note_on_c, 0, 61, 0
2, 30454, Note_on_c, 0, 70, 64
2, 30473, Note_on_c, 0, 70, 0
2, 30485, Control_c, 0, 64, 0
2, 30488, Note_on_c, 0, 65, 54
2, 30488, Note_on_c, 0, 60, 43
2, 30490, Note_on_c, 0, 58, 35
2, 30491, Note_on_c, 0, 54, 39
2, 30495, Note_on_c, 0, 71, 41
2, 30498, Note_on_c, 0, 72, 34
2, 30503, Control_c, 0, 64, 127
2, 30516, Note_on_c, 0, 71, 0
2, 30520, Note_on_c, 0, 72, 0
2, 30528, Note_on_c, 0, 58, 0
2, 30528, Note_on_c, 0, 65, 0
2, 30529, Note_on_c, 0, 60, 0
2, 30531, Note_on_c, 0, 54, 0
2, 30581, Note_on_c, 0, 77, 56
2, 30582, Note_on_c, 0, 65, 67
2, 30582, Note_on_c, 0, 58, 53
2, 30582, Note_on_c, 0, 54, 59
2, 30585, Note_on_c, 0, 60, 58
2, 30585, Note_on_c, 0, 79, 57
2, 30590, Note_on_c, 0, 79, 0
2, 30598, Control_c, 0, 64, 0
2, 30622, Note_on_c, 0, 65, 0
2, 30625, Note_on_c, 0, 58, 0
2, 30627, Note_on_c, 0, 77, 0
2, 30628, Note_on_c, 0, 60, 0
2, 30628, Note_on_c, 0, 54, 0
2, 30636, Control_c, 0, 64, 127
2, 30651, Note_on_c, 0, 82, 73
2, 30678, Note_on_c, 0, 82, 0
2, 30683, Note_on_c, 0, 86, 76
2, 30684, Note_on_c, 0, 54, 40
2, 30689, Note_on_c, 0, 58, 12
2, 30710, Note_on_c, 0, 58, 0
2, 30712, Note_on_c, 0, 86, 0
2, 30714, Note_on_c, 0, 54, 0
2, 30728, Control_c, 0, 64, 0
2, 30728, Note_on_c, 0, 62, 50
2, 30729, Note_on_c, 0, 82, 69
2, 30735, Note_on_c, 0, 57, 32
2, 30736, Note_on_c, 0, 55, 39
2, 30737, Note_on_c, 0, 58, 18
2, 30778, Control_c, 0, 64, 127
2, 30783, Note_on_c, 0, 62, 0
2, 30791, Note_on_c, 0, 57, 0
2, 30802, Note_on_c, 0, 62, 48
2, 30804, Note_on_c, 0, 57, 20
2, 30804, Note_on_c, 0, 74, 57
2, 30839, Note_on_c, 0, 82, 0
2, 30840, Note_on_c, 0, 74, 0
2, 30890, Note_on_c, 0, 57, 0
2, 30891, Note_on_c, 0, 55, 0
2, 30897, Note_on_c, 0, 62, 0
2, 30907, Note_on_c, 0, 58, 0
2, 30924, Note_on_c, 0, 82, 63
2, 30926, Note_on_c, 0, 70, 60
2, 30933, Note_on_c, 0, 82, 0
2, 30937, Note_on_c, 0, 70, 0
2, 30958, Control_c, 0, 64, 0
2, 30962, Note_on_c, 0, 82, 74
2, 30963, Note_on_c, 0, 70, 54
2, 30964, Note_on_c, 0, 58, 25
2, 30965, Note_on_c, 0, 62, 35
2, 30969, Note_on_c, 0, 52, 34
2, 30984, Note_on_c, 0, 70, 0
2, 30990, Note_on_c, 0, 82, 0
2, 31008, Note_on_c, 0, 81, 51
2, 31013, Note_on_c, 0, 62, 0
2, 31013, Note_on_c, 0, 58, 0
2, 31014, Control_c, 0, 64, 127
2, 31030, Note_on_c, 0, 81, 0
2, 31049, Note_on_c, 0, 82, 74
2, 31049, Note_on_c, 0, 58, 28
2, 31050, Note_on_c, 0, 62, 36
2, 31051, Control_c, 0, 64, 0
2, 31053, Note_on_c, 0, 70, 51
2, 31071, Note_on_c, 0, 82, 0
2, 31080, Note_on_c, 0, 70, 0
2, 31094, Note_on_c, 0, 62, 0
2, 31094, Note_on_c, 0, 58, 0
2, 31101, Control_c, 0, 64, 127
2, 31106, Note_on_c, 0, 81, 19
2, 31113, Control_c, 0, 64, 0
2, 31115, Note_on_c, 0, 81, 0
2, 31127, Control_c, 0, 64, 127
2, 31134, Note_on_c, 0, 82, 73
2, 31136, Note_on_c, 0, 52, 0
2, 31137, Note_on_c, 0, 70, 57
2, 31140, Note_on_c, 0, 62, 30
2, 31155, Note_on_c, 0, 70, 0
2, 31158, Note_on_c, 0, 62, 0
2, 31168, Note_on_c, 0, 82, 0
2, 31174, Note_on_c, 0, 83, 65
2, 31176, Note_on_c, 0, 71, 53
2, 31181, Note_on_c, 0, 82, 32
2, 31192, Note_on_c, 0, 82, 0
2, 31192, Note_on_c, 0, 71, 0
2, 31193, Note_on_c, 0, 83, 0
2, 31206, Control_c, 0, 64, 0
2, 31213, Note_on_c, 0, 65, 42
2, 31215, Note_on_c, 0, 60, 30
2, 31215, Note_on_c, 0, 72, 64
2, 31215, Note_on_c, 0, 84, 74
2, 31215, Note_on_c, 0, 61, 36
2, 31216, Note_on_c, 0, 55, 40
2, 31241, Note_on_c, 0, 84, 0
2, 31241, Note_on_c, 0, 72, 0
2, 31261, Note_on_c, 0, 83, 48
2, 31263, Note_on_c, 0, 61, 0
2, 31269, Note_on_c, 0, 65, 0
2, 31271, Note_on_c, 0, 60, 0
2, 31272, Note_on_c, 0, 83, 0
2, 31280, Control_c, 0, 64, 127
2, 31295, Note_on_c, 0, 84, 84
2, 31297, Note_on_c, 0, 72, 68
2, 31299, Control_c, 0, 64, 0
2, 31300, Note_on_c, 0, 60, 35
2, 31300, Note_on_c, 0, 65, 47
2, 31301, Note_on_c, 0, 61, 34
2, 31324, Note_on_c, 0, 84, 0
2, 31331, Note_on_c, 0, 72, 0
2, 31346, Note_on_c, 0, 82, 36
2, 31349, Control_c, 0, 64, 127
2, 31350, Note_on_c, 0, 55, 0
2, 31357, Note_on_c, 0, 60, 0
2, 31358, Note_on_c, 0, 65, 0
2, 31359, Note_on_c, 0, 82, 0
2, 31366, Note_on_c, 0, 61, 0
2, 31379, Note_on_c, 0, 84, 71
2, 31383, Note_on_c, 0, 72, 59
2, 31389, Note_on_c, 0, 55, 33
2, 31392, Note_on_c, 0, 72, 0
2, 31396, Note_on_c, 0, 84, 0
2, 31408, Note_on_c, 0, 55, 0
2, 31420, Note_on_c, 0, 73, 75
2, 31420, Note_on_c, 0, 85, 83
2, 31439, Control_c, 0, 64, 0
2, 31446, Note_on_c, 0, 58, 25
2, 31448, Note_on_c, 0, 73, 0
2, 31450, Note_on_c, 0, 85, 0
2, 31450, Note_on_c, 0, 65, 27
2, 31450, Note_on_c, 0, 54, 23
2, 31452, Note_on_c, 0, 60, 32
2, 31464, Note_on_c, 0, 74, 68
2, 31464, Note_on_c, 0, 86, 73
2, 31485, Note_on_c, 0, 65, 0
2, 31489, Note_on_c, 0, 60, 0
2, 31493, Note_on_c, 0, 74, 0
2, 31493, Note_on_c, 0, 86, 0
2, 31497, Control_c, 0, 64, 127
2, 31508, Note_on_c, 0, 82, 28
2, 31520, Note_on_c, 0, 82, 0
2, 31535, Note_on_c, 0, 86, 80
2, 31536, Note_on_c, 0, 60, 49
2, 31536, Note_on_c, 0, 74, 76
2, 31537, Note_on_c, 0, 65, 53
2, 31537, Control_c, 0, 64, 0
2, 31570, Note_on_c, 0, 74, 0
2, 31570, Note_on_c, 0, 86, 0
2, 31572, Control_c, 0, 64, 127
2, 31579, Note_on_c, 0, 84, 49
2, 31580, Note_on_c, 0, 65, 0
2, 31592, Note_on_c, 0, 60, 0
2, 31593, Note_on_c, 0, 84, 0
2, 31598, Note_on_c, 0, 58, 0
2, 31598, Note_on_c, 0, 54, 0
2, 31618, Control_c, 0, 64, 0
2, 31620, Control_c, 0, 64, 127
2, 31629, Note_on_c, 0, 54, 30
2, 31656, Note_on_c, 0, 84, 88
2, 31660, Note_on_c, 0, 54, 0
2, 31680, Control_c, 0, 64, 0
2, 31684, Note_on_c, 0, 62, 43
2, 31688, Note_on_c, 0, 84, 0
2, 31690, Note_on_c, 0, 55, 29
2, 31691, Note_on_c, 0, 58, 18
2, 31700, Note_on_c, 0, 82, 55
2, 31715, Note_on_c, 0, 57, 2
2, 31729, Control_c, 0, 64, 127
2, 31753, Note_on_c, 0, 62, 0
2, 31760, Note_on_c, 0, 82, 0
2, 31771, Note_on_c, 0, 62, 51
2, 31772, Note_on_c, 0, 79, 45
2, 31780, Note_on_c, 0, 79, 0
2, 31811, Note_on_c, 0, 82, 63
2, 31813, Note_on_c, 0, 62, 0
2, 31816, Note_on_c, 0, 70, 49
2, 31820, Note_on_c, 0, 58, 0
2, 31835, Note_on_c, 0, 57, 0
2, 31837, Note_on_c, 0, 82, 0
2, 31843, Note_on_c, 0, 55, 0
2, 31845, Note_on_c, 0, 70, 0
2, 31887, Note_on_c, 0, 82, 75
2, 31895, Note_on_c, 0, 70, 53
2, 31903, Note_on_c, 0, 70, 0
2, 31908, Note_on_c, 0, 82, 0
2, 31927, Control_c, 0, 64, 0
2, 31930, Note_on_c, 0, 82, 67
2, 31932, Note_on_c, 0, 70, 47
2, 31933, Note_on_c, 0, 63, 36
2, 31933, Note_on_c, 0, 58, 38
2, 31934, Note_on_c, 0, 76, 58
2, 31939, Note_on_c, 0, 52, 24
2, 31949, Control_c, 0, 64, 127
2, 31976, Note_on_c, 0, 76, 0
2, 31977, Note_on_c, 0, 52, 0
2, 31980, Note_on_c, 0, 63, 0
2, 31980, Note_on_c, 0, 82, 0
2, 31986, Note_on_c, 0, 70, 0
2, 31986, Note_on_c, 0, 58, 0
2, 32006, Note_on_c, 0, 81, 53
2, 32008, Note_on_c, 0, 69, 57
2, 32008, Note_on_c, 0, 63, 35
2, 32010, Note_on_c, 0, 58, 25
2, 32011, Note_on_c, 0, 52, 30
2, 32015, Note_on_c, 0, 69, 0
2, 32015, Note_on_c, 0, 81, 0
2, 32018, Note_on_c, 0, 63, 0
2, 32022, Note_on_c, 0, 52, 0
2, 32025, Note_on_c, 0, 58, 0
2, 32046, Note_on_c, 0, 52, 41
2, 32046, Note_on_c, 0, 82, 67
2, 32046, Note_on_c, 0, 63, 38
2, 32046, Note_on_c, 0, 70, 57
2, 32048, Note_on_c, 0, 76, 38
2, 32048, Note_on_c, 0, 58, 46
2, 32056, Note_on_c, 0, 76, 0
2, 32064, Note_on_c, 0, 70, 0
2, 32070, Note_on_c, 0, 52, 0
2, 32072, Note_on_c, 0, 82, 0
2, 32081, Note_on_c, 0, 63, 0
2, 32083, Note_on_c, 0, 58, 0
2, 32115, Note_on_c, 0, 63, 52
2, 32117, Note_on_c, 0, 77, 64
2, 32118, Note_on_c, 0, 80, 46
2, 32118, Note_on_c, 0, 84, 69
2, 32120, Note_on_c, 0, 60, 51
2, 32120, Note_on_c, 0, 53, 38
2, 32120, Note_on_c, 0, 72, 58
2, 32122, Note_on_c, 0, 56, 36
2, 32124, Control_c, 0, 64, 0
2, 32131, Note_on_c, 0, 84, 0
2, 32137, Note_on_c, 0, 80, 0
2, 32138, Note_on_c, 0, 77, 0
2, 32140, Note_on_c, 0, 63, 0
2, 32140, Control_c, 0, 64, 127
2, 32142, Note_on_c, 0, 72, 0
2, 32149, Note_on_c, 0, 60, 0
2, 32159, Note_on_c, 0, 53, 0
2, 32159, Note_on_c, 0, 56, 0
2, 32213, Note_on_c, 0, 58, 48
2, 32222, Note_on_c, 0, 56, 65
2, 32224, Note_on_c, 0, 58, 0
2, 32241, Note_on_c, 0, 56, 0
2, 32246, Control_c, 0, 64, 0
2, 32247, Note_on_c, 0, 55, 62
2, 32254, Note_on_c, 0, 55, 0
2, 32264, Note_on_c, 0, 56, 43
2, 32279, Note_on_c, 0, 56, 0
2, 32279, Note_on_c, 0, 58, 44
2, 32286, Note_on_c, 0, 58, 0
2, 32298, Note_on_c, 0, 60, 63
2, 32318, Note_on_c, 0, 60, 0
2, 32319, Note_on_c, 0, 62, 58
2, 32337, Note_on_c, 0, 62, 0
2, 32340, Note_on_c, 0, 63, 64
2, 32353, Note_on_c, 0, 63, 0
2, 32365, Note_on_c, 0, 65, 67
2, 32376, Note_on_c, 0, 65, 0
2, 32388, Note_on_c, 0, 67, 40
2, 32397, Note_on_c, 0, 68, 62
2, 32402, Note_on_c, 0, 67, 0
2, 32411, Note_on_c, 0, 68, 0
2, 32424, Note_on_c, 0, 70, 72
2, 32438, Note_on_c, 0, 70, 0
2, 32450, Note_on_c, 0, 71, 67
2, 32460, Note_on_c, 0, 71, 0
2, 32479, Note_on_c, 0, 72, 74
2, 32490, Note_on_c, 0, 72, 0
2, 32508, Note_on_c, 0, 73, 71
2, 32526, Note_on_c, 0, 73, 0
2, 32534, Note_on_c, 0, 74, 79
2, 32542, Note_on_c, 0, 66, 43
2, 32544, Note_on_c, 0, 62, 35
2, 32548, Note_on_c, 0, 56, 29
2, 32549, Note_on_c, 0, 74, 0
2, 32564, Note_on_c, 0, 75, 55
2, 32588, Note_on_c, 0, 62, 0
2, 32590, Note_on_c, 0, 75, 0
2, 32595, Note_on_c, 0, 76, 57
2, 32596, Control_c, 0, 64, 127
2, 32601, Note_on_c, 0, 66, 0
2, 32612, Note_on_c, 0, 76, 0
2, 32620, Note_on_c, 0, 77, 73
2, 32629, Note_on_c, 0, 56, 0
2, 32646, Control_c, 0, 64, 0
2, 32647, Note_on_c, 0, 77, 0
2, 32647, Note_on_c, 0, 65, 37
2, 32649, Note_on_c, 0, 55, 35
2, 32650, Note_on_c, 0, 75, 59
2, 32653, Note_on_c, 0, 61, 38
2, 32678, Control_c, 0, 64, 127
2, 32736, Note_on_c, 0, 55, 0
2, 32737, Note_on_c, 0, 65, 0
2, 32739, Note_on_c, 0, 75, 0
2, 32742, Note_on_c, 0, 61, 0
2, 32839, Note_on_c, 0, 85, 81
2, 32839, Note_on_c, 0, 87, 80
2, 32840, Note_on_c, 0, 75, 88
2, 32842, Note_on_c, 0, 61, 81
2, 32842, Note_on_c, 0, 60, 80
2, 32844, Note_on_c, 0, 65, 83
2, 32871, Note_on_c, 0, 75, 0
2, 32873, Note_on_c, 0, 85, 0
2, 32880, Note_on_c, 0, 87, 0
2, 32880, Note_on_c, 0, 65, 0
2, 32884, Note_on_c, 0, 61, 0
2, 32884, Note_on_c, 0, 60, 0
2, 32892, Note_on_c, 0, 87, 69
2, 32895, Control_c, 0, 64, 0
2, 32895, Note_on_c, 0, 75, 74
2, 32895, Note_on_c, 0, 80, 71
2, 32898, Note_on_c, 0, 61, 72
2, 32898, Note_on_c, 0, 65, 72
2, 32899, Note_on_c, 0, 60, 78
2, 32918, Control_c, 0, 64, 127
2, 32925, Note_on_c, 0, 80, 0
2, 32929, Note_on_c, 0, 75, 0
2, 32938, Note_on_c, 0, 87, 0
2, 32940, Note_on_c, 0, 65, 0
2, 32942, Note_on_c, 0, 61, 0
2, 32946, Note_on_c, 0, 60, 0
2, 32966, Note_on_c, 0, 89, 77
2, 32970, Note_on_c, 0, 84, 77
2, 32970, Note_on_c, 0, 77, 68
2, 32972, Note_on_c, 0, 61, 68
2, 32972, Note_on_c, 0, 60, 71
2, 32972, Note_on_c, 0, 65, 69
2, 32986, Note_on_c, 0, 89, 0
2, 32987, Note_on_c, 0, 65, 0
2, 32991, Note_on_c, 0, 77, 0
2, 32992, Note_on_c, 0, 60, 0
2, 33000, Note_on_c, 0, 84, 0
2, 33012, Note_on_c, 0, 65, 58
2, 33016, Note_on_c, 0, 60, 39
2, 33020, Note_on_c, 0, 87, 39
2, 33022, Note_on_c, 0, 65, 0
2, 33024, Note_on_c, 0, 60, 0
2, 33027, Note_on_c, 0, 87, 0
2, 33036, Note_on_c, 0, 61, 0
2, 33090, Note_on_c, 0, 85, 81
2, 33091, Note_on_c, 0, 73, 84
2, 33092, Note_on_c, 0, 58, 83
2, 33093, Note_on_c, 0, 64, 85
2, 33093, Note_on_c, 0, 82, 71
2, 33094, Note_on_c, 0, 80, 57
2, 33096, Control_c, 0, 64, 0
2, 33126, Control_c, 0, 64, 127
2, 33139, Note_on_c, 0, 80, 0
2, 33139, Note_on_c, 0, 85, 0
2, 33143, Note_on_c, 0, 73, 0
2, 33143, Note_on_c, 0, 82, 0
2, 33143, Note_on_c, 0, 58, 0
2, 33146, Note_on_c, 0, 64, 0
2, 33199, Control_c, 0, 64, 0
2, 33203, Note_on_c, 0, 84, 83
2, 33203, Note_on_c, 0, 76, 88
2, 33205, Note_on_c, 0, 73, 82
2, 33205, Note_on_c, 0, 72, 84
2, 33208, Note_on_c, 0, 82, 51
2, 33210, Note_on_c, 0, 79, 50
2, 33212, Note_on_c, 0, 80, 36
2, 33224, Control_c, 0, 64, 127
2, 33227, Note_on_c, 0, 80, 0
2, 33229, Note_on_c, 0, 79, 0
2, 33230, Note_on_c, 0, 84, 0
2, 33232, Note_on_c, 0, 82, 0
2, 33234, Note_on_c, 0, 76, 0
2, 33238, Note_on_c, 0, 72, 0
2, 33249, Note_on_c, 0, 73, 0
2, 33280, Note_on_c, 0, 69, 70
2, 33282, Note_on_c, 0, 81, 65
2, 33282, Note_on_c, 0, 73, 64
2, 33282, Control_c, 0, 64, 0
2, 33284, Note_on_c, 0, 70, 67
2, 33285, Note_on_c, 0, 76, 65
2, 33298, Control_c, 0, 64, 127
2, 33307, Note_on_c, 0, 81, 0
2, 33313, Note_on_c, 0, 76, 0
2, 33320, Note_on_c, 0, 73, 0
2, 33322, Note_on_c, 0, 70, 0
2, 33326, Note_on_c, 0, 69, 0
2, 33355, Control_c, 0, 64, 0
2, 33358, Note_on_c, 0, 78, 57
2, 33362, Note_on_c, 0, 73, 57
2, 33363, Note_on_c, 0, 70, 53
2, 33364, Note_on_c, 0, 66, 51
2, 33368, Note_on_c, 0, 67, 32
2, 33370, Note_on_c, 0, 65, 32
2, 33375, Control_c, 0, 64, 127
2, 33384, Note_on_c, 0, 78, 0
2, 33386, Note_on_c, 0, 73, 0
2, 33388, Note_on_c, 0, 67, 0
2, 33388, Note_on_c, 0, 70, 0
2, 33396, Note_on_c, 0, 65, 0
2, 33403, Note_on_c, 0, 66, 0
2, 33444, Note_on_c, 0, 75, 59
2, 33445, Note_on_c, 0, 70, 62
2, 33446, Note_on_c, 0, 64, 66
2, 33447, Control_c, 0, 64, 0
2, 33447, Note_on_c, 0, 63, 52
2, 33449, Note_on_c, 0, 67, 57
2, 33459, Note_on_c, 0, 67, 0
2, 33459, Note_on_c, 0, 75, 0
2, 33462, Note_on_c, 0, 70, 0
2, 33468, Note_on_c, 0, 63, 0
2, 33473, Note_on_c, 0, 64, 0
2, 33480, Control_c, 0, 64, 127
2, 33531, Control_c, 0, 64, 0
2, 33532, Note_on_c, 0, 61, 65
2, 33532, Note_on_c, 0, 64, 69
2, 33535, Note_on_c, 0, 72, 45
2, 33539, Note_on_c, 0, 60, 41
2, 33547, Note_on_c, 0, 61, 0
2, 33552, Note_on_c, 0, 72, 0
2, 33553, Note_on_c, 0, 64, 0
2, 33553, Note_on_c, 0, 60, 0
2, 33555, Control_c, 0, 64, 127
2, 33574, Note_on_c, 0, 58, 25
2, 33581, Note_on_c, 0, 58, 0
2, 33581, Note_on_c, 0, 56, 44
2, 33604, Note_on_c, 0, 56, 0
2, 33611, Control_c, 0, 64, 0
2, 33616, Note_on_c, 0, 63, 55
2, 33616, Note_on_c, 0, 60, 48
2, 33616, Note_on_c, 0, 68, 59
2, 33617, Note_on_c, 0, 56, 52
2, 33645, Control_c, 0, 64, 127
2, 33680, Note_on_c, 0, 68, 0
2, 33684, Note_on_c, 0, 63, 0
2, 33686, Note_on_c, 0, 56, 0
2, 33687, Note_on_c, 0, 60, 0
2, 33794, Note_on_c, 0, 54, 46
2, 33799, Note_on_c, 0, 55, 71
2, 33806, Note_on_c, 0, 68, 71
2, 33807, Note_on_c, 0, 63, 69
2, 33808, Note_on_c, 0, 60, 78
2, 33808, Note_on_c, 0, 65, 70
2, 33810, Note_on_c, 0, 56, 65
2, 33821, Note_on_c, 0, 55, 0
2, 33826, Control_c, 0, 64, 0
2, 33840, Note_on_c, 0, 68, 0
2, 33844, Note_on_c, 0, 56, 0
2, 33846, Note_on_c, 0, 60, 0
2, 33847, Note_on_c, 0, 63, 0
2, 33853, Note_on_c, 0, 54, 0
2, 33857, Note_on_c, 0, 65, 0
2, 33858, Note_on_c, 0, 56, 52
2, 33858, Note_on_c, 0, 68, 48
2, 33863, Note_on_c, 0, 63, 42
2, 33863, Note_on_c, 0, 60, 58
2, 33864, Note_on_c, 0, 65, 24
2, 33867, Control_c, 0, 64, 127
2, 33903, Note_on_c, 0, 63, 0
2, 33905, Note_on_c, 0, 60, 0
2, 33906, Note_on_c, 0, 56, 0
2, 33910, Note_on_c, 0, 68, 0
2, 33916, Note_on_c, 0, 65, 0
2, 33928, Note_on_c, 0, 63, 43
2, 33930, Note_on_c, 0, 60, 66
2, 33930, Note_on_c, 0, 55, 61
2, 33932, Note_on_c, 0, 67, 60
2, 33956, Control_c, 0, 64, 0
2, 33958, Note_on_c, 0, 60, 0
2, 33962, Note_on_c, 0, 63, 0
2, 33962, Note_on_c, 0, 67, 0
2, 33966, Control_c, 0, 64, 127
2, 33967, Note_on_c, 0, 55, 0
2, 33970, Note_on_c, 0, 53, 38
2, 33976, Note_on_c, 0, 65, 33
2, 33980, Note_on_c, 0, 53, 0
2, 34002, Note_on_c, 0, 65, 0
2, 34039, Note_on_c, 0, 68, 71
2, 34041, Note_on_c, 0, 63, 58
2, 34042, Note_on_c, 0, 59, 68
2, 34043, Note_on_c, 0, 53, 60
2, 34044, Note_on_c, 0, 44, 46
2, 34046, Note_on_c, 0, 65, 36
2, 34052, Control_c, 0, 64, 0
2, 34054, Note_on_c, 0, 65, 0
2, 34060, Note_on_c, 0, 68, 0
2, 34062, Note_on_c, 0, 63, 0
2, 34067, Note_on_c, 0, 59, 0
2, 34069, Note_on_c, 0, 53, 0
2, 34131, Note_on_c, 0, 56, 51
2, 34138, Note_on_c, 0, 58, 30
2, 34144, Note_on_c, 0, 54, 56
2, 34145, Note_on_c, 0, 58, 0
2, 34150, Note_on_c, 0, 56, 0
2, 34162, Note_on_c, 0, 54, 0
2, 34162, Note_on_c, 0, 53, 59
2, 34179, Note_on_c, 0, 53, 0
2, 34182, Note_on_c, 0, 54, 31
2, 34199, Note_on_c, 0, 54, 0
2, 34199, Note_on_c, 0, 56, 39
2, 34219, Note_on_c, 0, 58, 50
2, 34222, Note_on_c, 0, 56, 0
2, 34230, Note_on_c, 0, 58, 0
2, 34240, Note_on_c, 0, 59, 66
2, 34255, Note_on_c, 0, 59, 0
2, 34258, Note_on_c, 0, 44, 0
2, 34264, Note_on_c, 0, 61, 49
2, 34289, Note_on_c, 0, 61, 0
2, 34290, Note_on_c, 0, 63, 49
2, 34299, Note_on_c, 0, 63, 0
2, 34316, Note_on_c, 0, 65, 64
2, 34324, Note_on_c, 0, 65, 0
2, 34340, Note_on_c, 0, 66, 77
2, 34352, Note_on_c, 0, 66, 0
2, 34374, Note_on_c, 0, 68, 76
2, 34385, Note_on_c, 0, 68, 0
2, 34398, Note_on_c, 0, 70, 70
2, 34412, Note_on_c, 0, 70, 0
2, 34428, Note_on_c, 0, 71, 65
2, 34437, Note_on_c, 0, 71, 0
2, 34445, Control_c, 0, 64, 127
2, 34454, Note_on_c, 0, 73, 74
2, 34458, Note_on_c, 0, 64, 33
2, 34462, Note_on_c, 0, 53, 31
2, 34465, Note_on_c, 0, 59, 27
2, 34471, Note_on_c, 0, 73, 0
2, 34490, Note_on_c, 0, 74, 51
2, 34492, Note_on_c, 0, 53, 0
2, 34494, Note_on_c, 0, 59, 0
2, 34503, Note_on_c, 0, 64, 0
2, 34505, Note_on_c, 0, 74, 0
2, 34514, Note_on_c, 0, 75, 56
2, 34534, Note_on_c, 0, 75, 0
2, 34548, Note_on_c, 0, 77, 45
2, 34574, Note_on_c, 0, 77, 0
2, 34574, Control_c, 0, 64, 0
2, 34579, Note_on_c, 0, 75, 53
2, 34603, Control_c, 0, 64, 127
2, 34636, Note_on_c, 0, 67, 50
2, 34637, Note_on_c, 0, 63, 25
2, 34641, Note_on_c, 0, 58, 32
2, 34687, Note_on_c, 0, 63, 0
2, 34692, Note_on_c, 0, 75, 0
2, 34697, Note_on_c, 0, 58, 0
2, 34699, Note_on_c, 0, 67, 0
2, 34765, Note_on_c, 0, 68, 69
2, 34766, Note_on_c, 0, 63, 53
2, 34768, Note_on_c, 0, 56, 49
2, 34769, Note_on_c, 0, 60, 50
2, 34790, Note_on_c, 0, 60, 0
2, 34792, Note_on_c, 0, 56, 0
2, 34793, Note_on_c, 0, 68, 0
2, 34801, Note_on_c, 0, 63, 0
2, 34808, Control_c, 0, 64, 0
2, 34809, Note_on_c, 0, 67, 34
2, 34814, Note_on_c, 0, 58, 45
2, 34814, Note_on_c, 0, 63, 57
2, 34819, Note_on_c, 0, 55, 36
2, 34852, Control_c, 0, 64, 127
2, 34867, Note_on_c, 0, 58, 0
2, 34871, Note_on_c, 0, 67, 0
2, 34872, Note_on_c, 0, 63, 0
2, 34884, Note_on_c, 0, 55, 0
2, 34884, Note_on_c, 0, 65, 64
2, 34884, Note_on_c, 0, 58, 38
2, 34887, Note_on_c, 0, 53, 46
2, 34904, Control_c, 0, 64, 0
2, 34910, Note_on_c, 0, 58, 0
2, 34920, Note_on_c, 0, 53, 0
2, 34921, Note_on_c, 0, 65, 0
2, 34929, Note_on_c, 0, 58, 29
2, 34930, Note_on_c, 0, 51, 36
2, 34932, Note_on_c, 0, 63, 33
2, 34934, Control_c, 0, 64, 127
2, 34945, Note_on_c, 0, 51, 0
2, 34948, Note_on_c, 0, 58, 0
2, 34968, Note_on_c, 0, 63, 0
2, 35115, Note_on_c, 0, 63, 9
2, 35119, Note_on_c, 0, 70, 60
2, 35122, Note_on_c, 0, 69, 55
2, 35130, Note_on_c, 0, 69, 0
2, 35135, Note_on_c, 0, 70, 0
2, 35137, Control_c, 0, 64, 0
2, 35138, Note_on_c, 0, 63, 0
2, 35162, Note_on_c, 0, 71, 62
2, 35173, Control_c, 0, 64, 127
2, 35182, Note_on_c, 0, 71, 0
2, 35199, Note_on_c, 0, 74, 66
2, 35203, Note_on_c, 0, 63, 35
2, 35204, Note_on_c, 0, 67, 48
2, 35204, Note_on_c, 0, 62, 42
2, 35208, Note_on_c, 0, 57, 36
2, 35214, Note_on_c, 0, 67, 0
2, 35216, Note_on_c, 0, 57, 0
2, 35216, Note_on_c, 0, 74, 0
2, 35217, Note_on_c, 0, 62, 0
2, 35219, Note_on_c, 0, 63, 0
2, 35236, Note_on_c, 0, 79, 70
2, 35236, Note_on_c, 0, 63, 37
2, 35238, Note_on_c, 0, 67, 56
2, 35239, Note_on_c, 0, 62, 36
2, 35240, Note_on_c, 0, 57, 43
2, 35260, Note_on_c, 0, 67, 0
2, 35262, Note_on_c, 0, 57, 0
2, 35264, Note_on_c, 0, 62, 0
2, 35264, Note_on_c, 0, 63, 0
2, 35267, Note_on_c, 0, 79, 0
2, 35278, Note_on_c, 0, 83, 80
2, 35279, Note_on_c, 0, 63, 47
2, 35279, Note_on_c, 0, 67, 46
2, 35280, Note_on_c, 0, 62, 60
2, 35281, Note_on_c, 0, 57, 43
2, 35299, Note_on_c, 0, 67, 0
2, 35301, Note_on_c, 0, 57, 0
2, 35303, Note_on_c, 0, 83, 0
2, 35304, Note_on_c, 0, 62, 0
2, 35305, Note_on_c, 0, 63, 0
2, 35317, Note_on_c, 0, 86, 90
2, 35317, Note_on_c, 0, 67, 61
2, 35318, Note_on_c, 0, 63, 56
2, 35318, Note_on_c, 0, 74, 80
2, 35319, Note_on_c, 0, 57, 64
2, 35320, Note_on_c, 0, 62, 70
2, 35326, Note_on_c, 0, 76, 34
2, 35334, Note_on_c, 0, 76, 0
2, 35373, Note_on_c, 0, 57, 0
2, 35378, Note_on_c, 0, 67, 0
2, 35380, Note_on_c, 0, 74, 0
2, 35380, Note_on_c, 0, 86, 0
2, 35380, Note_on_c, 0, 62, 0
2, 35381, Note_on_c, 0, 63, 0
2, 35398, Control_c, 0, 64, 0
2, 35399, Note_on_c, 0, 62, 48
2, 35399, Note_on_c, 0, 63, 38
2, 35400, Note_on_c, 0, 67, 57
2, 35402, Note_on_c, 0, 86, 66
2, 35403, Note_on_c, 0, 57, 62
2, 35403, Note_on_c, 0, 74, 69
2, 35410, Control_c, 0, 64, 127
2, 35419, Note_on_c, 0, 67, 0
2, 35422, Note_on_c, 0, 63, 0
2, 35425, Note_on_c, 0, 62, 0
2, 35425, Note_on_c, 0, 74, 0
2, 35428, Note_on_c, 0, 86, 0
2, 35430, Note_on_c, 0, 57, 0
2, 35437, Note_on_c, 0, 83, 59
2, 35440, Note_on_c, 0, 57, 15
2, 35441, Note_on_c, 0, 63, 36
2, 35442, Note_on_c, 0, 67, 32
2, 35444, Note_on_c, 0, 62, 31
2, 35454, Note_on_c, 0, 62, 0
2, 35455, Note_on_c, 0, 67, 0
2, 35460, Note_on_c, 0, 83, 0
2, 35462, Note_on_c, 0, 63, 0
2, 35462, Note_on_c, 0, 57, 0
2, 35477, Note_on_c, 0, 79, 49
2, 35486, Note_on_c, 0, 79, 0
2, 35505, Control_c, 0, 64, 0
2, 35510, Note_on_c, 0, 63, 50
2, 35511, Note_on_c, 0, 67, 57
2, 35511, Note_on_c, 0, 56, 50
2, 35513, Note_on_c, 0, 60, 57
2, 35514, Note_on_c, 0, 72, 57
2, 35515, Note_on_c, 0, 84, 58
2, 35525, Note_on_c, 0, 67, 0
2, 35527, Note_on_c, 0, 84, 0
2, 35528, Control_c, 0, 64, 127
2, 35530, Note_on_c, 0, 60, 0
2, 35534, Note_on_c, 0, 72, 0
2, 35537, Note_on_c, 0, 56, 0
2, 35537, Note_on_c, 0, 63, 0
2, 35635, Note_on_c, 0, 63, 53
2, 35637, Note_on_c, 0, 67, 51
2, 35637, Note_on_c, 0, 56, 40
2, 35637, Note_on_c, 0, 77, 82
2, 35641, Note_on_c, 0, 60, 44
2, 35672, Note_on_c, 0, 77, 0
2, 35672, Note_on_c, 0, 79, 49
2, 35698, Note_on_c, 0, 67, 0
2, 35701, Note_on_c, 0, 63, 0
2, 35704, Note_on_c, 0, 77, 46
2, 35707, Note_on_c, 0, 79, 0
2, 35709, Note_on_c, 0, 56, 0
2, 35729, Note_on_c, 0, 60, 0
2, 35734, Note_on_c, 0, 77, 0
2, 35734, Note_on_c, 0, 76, 60
2, 35751, Note_on_c, 0, 76, 0
2, 35756, Note_on_c, 0, 62, 37
2, 35758, Control_c, 0, 64, 0
2, 35761, Note_on_c, 0, 56, 31
2, 35764, Note_on_c, 0, 66, 33
2, 35766, Note_on_c, 0, 77, 55
2, 35780, Control_c, 0, 64, 127
2, 35816, Note_on_c, 0, 56, 0
2, 35817, Note_on_c, 0, 62, 0
2, 35819, Note_on_c, 0, 66, 0
2, 35830, Note_on_c, 0, 77, 0
2, 35840, Note_on_c, 0, 75, 69
2, 35843, Note_on_c, 0, 66, 45
2, 35846, Note_on_c, 0, 62, 50
2, 35849, Note_on_c, 0, 56, 30
2, 35859, Note_on_c, 0, 56, 0
2, 35860, Note_on_c, 0, 66, 0
2, 35871, Note_on_c, 0, 75, 0
2, 35879, Note_on_c, 0, 56, 34
2, 35879, Note_on_c, 0, 66, 38
2, 35888, Note_on_c, 0, 74, 30
2, 35899, Note_on_c, 0, 62, 0
2, 35913, Note_on_c, 0, 66, 0
2, 35932, Note_on_c, 0, 56, 0
2, 35940, Note_on_c, 0, 74, 0
2, 35967, Note_on_c, 0, 55, 56
2, 35968, Note_on_c, 0, 65, 53
2, 35969, Note_on_c, 0, 61, 42
2, 35970, Note_on_c, 0, 75, 61
2, 35979, Control_c, 0, 64, 0
2, 36010, Control_c, 0, 64, 127
2, 36046, Note_on_c, 0, 75, 0
2, 36054, Note_on_c, 0, 67, 61
2, 36068, Note_on_c, 0, 67, 0
2, 36086, Note_on_c, 0, 69, 71
2, 36088, Control_c, 0, 64, 0
2, 36107, Note_on_c, 0, 69, 0
2, 36125, Note_on_c, 0, 70, 67
2, 36133, Note_on_c, 0, 65, 0
2, 36147, Note_on_c, 0, 55, 0
2, 36148, Note_on_c, 0, 70, 0
2, 36152, Note_on_c, 0, 61, 0
2, 36163, Control_c, 0, 64, 127
2, 36164, Note_on_c, 0, 71, 62
2, 36183, Note_on_c, 0, 71, 0
2, 36194, Control_c, 0, 64, 0
2, 36197, Note_on_c, 0, 64, 55
2, 36197, Note_on_c, 0, 53, 53
2, 36198, Note_on_c, 0, 74, 74
2, 36200, Note_on_c, 0, 59, 45
2, 36224, Control_c, 0, 64, 127
2, 36238, Note_on_c, 0, 74, 0
2, 36243, Note_on_c, 0, 77, 58
2, 36260, Note_on_c, 0, 77, 0
2, 36279, Note_on_c, 0, 80, 74
2, 36292, Note_on_c, 0, 80, 0
2, 36316, Note_on_c, 0, 83, 83
2, 36328, Control_c, 0, 64, 0
2, 36338, Note_on_c, 0, 83, 0
2, 36355, Note_on_c, 0, 86, 89
2, 36355, Note_on_c, 0, 74, 79
2, 36364, Note_on_c, 0, 76, 32
2, 36367, Note_on_c, 0, 53, 0
2, 36371, Note_on_c, 0, 76, 0
2, 36372, Note_on_c, 0, 59, 0
2, 36374, Note_on_c, 0, 74, 0
2, 36383, Note_on_c, 0, 86, 0
2, 36384, Control_c, 0, 64, 127
2, 36388, Note_on_c, 0, 64, 0
2, 36401, Note_on_c, 0, 83, 42
2, 36412, Note_on_c, 0, 83, 0
2, 36432, Note_on_c, 0, 86, 87
2, 36434, Note_on_c, 0, 74, 84
2, 36459, Note_on_c, 0, 74, 0
2, 36462, Note_on_c, 0, 86, 0
2, 36462, Note_on_c, 0, 67, 38
2, 36468, Note_on_c, 0, 62, 35
2, 36469, Note_on_c, 0, 63, 26
2, 36472, Note_on_c, 0, 60, 36
2, 36474, Control_c, 0, 64, 0
2, 36478, Note_on_c, 0, 83, 39
2, 36496, Note_on_c, 0, 83, 0
2, 36513, Note_on_c, 0, 86, 82
2, 36542, Note_on_c, 0, 86, 0
2, 36554, Note_on_c, 0, 83, 51
2, 36563, Note_on_c, 0, 67, 0
2, 36566, Note_on_c, 0, 83, 0
2, 36570, Control_c, 0, 64, 127
2, 36590, Note_on_c, 0, 84, 83
2, 36592, Control_c, 0, 64, 0
2, 36595, Note_on_c, 0, 67, 49
2, 36619, Note_on_c, 0, 67, 0
2, 36622, Control_c, 0, 64, 127
2, 36632, Note_on_c, 0, 79, 64
2, 36636, Note_on_c, 0, 62, 0
2, 36638, Note_on_c, 0, 63, 0
2, 36647, Note_on_c, 0, 84, 0
2, 36651, Note_on_c, 0, 60, 0
2, 36661, Note_on_c, 0, 79, 0
2, 36675, Note_on_c, 0, 77, 38
2, 36716, Note_on_c, 0, 65, 50
2, 36720, Note_on_c, 0, 61, 33
2, 36720, Note_on_c, 0, 60, 44
2, 36721, Control_c, 0, 64, 0
2, 36723, Note_on_c, 0, 55, 35
2, 36839, Control_c, 0, 64, 127
2, 36843, Note_on_c, 0, 65, 0
2, 36846, Note_on_c, 0, 60, 0
2, 36848, Note_on_c, 0, 61, 0
2, 36855, Note_on_c, 0, 55, 0
2, 36859, Note_on_c, 0, 77, 0
2, 37038, Control_c, 0, 64, 0
2, 37038, Note_on_c, 0, 67, 76
2, 37038, Note_on_c, 0, 56, 57
2, 37039, Note_on_c, 0, 64, 80
2, 37040, Note_on_c, 0, 60, 80
2, 37042, Note_on_c, 0, 55, 57
2, 37044, Note_on_c, 0, 53, 53
2, 37076, Note_on_c, 0, 56, 0
2, 37088, Note_on_c, 0, 56, 51
2, 37090, Note_on_c, 0, 68, 63
2, 37106, Control_c, 0, 64, 127
2, 37117, Note_on_c, 0, 55, 0
2, 37120, Note_on_c, 0, 56, 0
2, 37123, Note_on_c, 0, 64, 0
2, 37124, Note_on_c, 0, 53, 0
2, 37125, Note_on_c, 0, 67, 0
2, 37126, Note_on_c, 0, 60, 0
2, 37128, Note_on_c, 0, 68, 0
2, 37192, Control_c, 0, 64, 0
2, 37206, Note_on_c, 0, 63, 56
2, 37207, Note_on_c, 0, 68, 58
2, 37207, Note_on_c, 0, 59, 62
2, 37208, Note_on_c, 0, 53, 36
2, 37210, Note_on_c, 0, 43, 33
2, 37224, Note_on_c, 0, 53, 0
2, 37229, Note_on_c, 0, 43, 0
2, 37231, Note_on_c, 0, 59, 0
2, 37235, Note_on_c, 0, 63, 0
2, 37236, Note_on_c, 0, 68, 0
2, 37324, Note_on_c, 0, 67, 50
2, 37325, Note_on_c, 0, 43, 28
2, 37326, Note_on_c, 0, 53, 34
2, 37328, Note_on_c, 0, 59, 35
2, 37328, Note_on_c, 0, 62, 40
2, 37340, Note_on_c, 0, 43, 0
2, 37350, Note_on_c, 0, 62, 0
2, 37351, Note_on_c, 0, 59, 0
2, 37353, Note_on_c, 0, 53, 0
2, 37357, Note_on_c, 0, 67, 0
2, 37443, Note_on_c, 0, 67, 26
2, 37445, Note_on_c, 0, 65, 43
2, 37445, Note_on_c, 0, 62, 38
2, 37445, Note_on_c, 0, 60, 32
2, 37445, Note_on_c, 0, 63, 25
2, 37448, Note_on_c, 0, 62, 32
2, 37449, Note_on_c, 0, 48, 30
2, 37451, Note_on_c, 0, 55, 24
2, 37502, Note_on_c, 0, 55, 0
2, 37512, Note_on_c, 0, 65, 0
2, 37513, Note_on_c, 0, 62, 0
2, 37523, Note_on_c, 0, 63, 31
2, 37528, Note_on_c, 0, 60, 31
2, 37528, Note_on_c, 0, 55, 36
2, 37559, Control_c, 0, 64, 127
2, 37601, Note_on_c, 0, 55, 0
2, 37602, Note_on_c, 0, 60, 0
2, 37602, Note_on_c, 0, 48, 0
2, 37614, Note_on_c, 0, 63, 0
2, 37677, Note_on_c, 0, 67, 0
2, 37680, Note_on_c, 0, 62, 0
2, 37684, Note_on_c, 0, 63, 0
2, 37684, Note_on_c, 0, 75, 83
2, 37693, Note_on_c, 0, 60, 0
2, 37693, Note_on_c, 0, 61, 39
2, 37693, Note_on_c, 0, 65, 47
2, 37697, Note_on_c, 0, 60, 39
2, 37714, Control_c, 0, 64, 0
2, 37854, Note_on_c, 0, 75, 0
2, 37858, Note_on_c, 0, 74, 52
2, 37870, Note_on_c, 0, 74, 0
2, 37888, Note_on_c, 0, 75, 48
2, 37907, Note_on_c, 0, 65, 0
2, 37908, Note_on_c, 0, 75, 0
2, 37910, Note_on_c, 0, 60, 0
2, 37923, Note_on_c, 0, 55, 33
2, 37925, Note_on_c, 0, 61, 0
2, 37925, Note_on_c, 0, 66, 23
2, 37926, Note_on_c, 0, 79, 66
2, 37930, Note_on_c, 0, 61, 30
2, 38046, Control_c, 0, 64, 127
2, 38079, Note_on_c, 0, 79, 0
2, 38086, Note_on_c, 0, 55, 0
2, 38090, Note_on_c, 0, 66, 0
2, 38128, Note_on_c, 0, 61, 0
2, 38241, Note_on_c, 0, 86, 87
2, 38244, Note_on_c, 0, 82, 74
2, 38244, Note_on_c, 0, 65, 74
2, 38244, Note_on_c, 0, 77, 87
2, 38244, Note_on_c, 0, 60, 58
2, 38244, Note_on_c, 0, 58, 49
2, 38247, Note_on_c, 0, 54, 53
2, 38250, Control_c, 0, 64, 0
2, 38283, Control_c, 0, 64, 127
2, 38327, Note_on_c, 0, 65, 0
2, 38330, Note_on_c, 0, 60, 0
2, 38341, Note_on_c, 0, 77, 0
2, 38343, Note_on_c, 0, 86, 0
2, 38343, Note_on_c, 0, 82, 0
2, 38344, Note_on_c, 0, 58, 0
2, 38354, Note_on_c, 0, 54, 0
2, 38395, Note_on_c, 0, 82, 43
2, 38397, Note_on_c, 0, 62, 34
2, 38398, Note_on_c, 0, 58, 31
2, 38398, Note_on_c, 0, 74, 45
2, 38399, Note_on_c, 0, 79, 43
2, 38400, Control_c, 0, 64, 0
2, 38401, Note_on_c, 0, 53, 28
2, 38404, Note_on_c, 0, 57, 47
2, 38456, Note_on_c, 0, 79, 0
2, 38465, Note_on_c, 0, 82, 0
2, 38471, Note_on_c, 0, 74, 0
2, 38532, Note_on_c, 0, 70, 67
2, 38556, Note_on_c, 0, 70, 0
2, 38572, Note_on_c, 0, 69, 50
2, 38581, Note_on_c, 0, 69, 0
2, 38607, Note_on_c, 0, 70, 81
2, 38636, Note_on_c, 0, 70, 0
2, 38645, Note_on_c, 0, 57, 0
2, 38648, Note_on_c, 0, 62, 0
2, 38648, Note_on_c, 0, 53, 0
2, 38651, Note_on_c, 0, 69, 46
2, 38654, Note_on_c, 0, 58, 0
2, 38677, Note_on_c, 0, 69, 0
2, 38689, Note_on_c, 0, 70, 68
2, 38715, Note_on_c, 0, 70, 0
2, 38727, Note_on_c, 0, 69, 52
2, 38748, Note_on_c, 0, 69, 0
2, 38754, Note_on_c, 0, 62, 26
2, 38757, Note_on_c, 0, 58, 20
2, 38765, Note_on_c, 0, 70, 56
2, 38786, Note_on_c, 0, 70, 0
2, 38792, Note_on_c, 0, 58, 0
2, 38795, Note_on_c, 0, 62, 0
2, 38810, Note_on_c, 0, 71, 50
2, 38829, Note_on_c, 0, 71, 0
2, 38845, Note_on_c, 0, 72, 81
2, 38874, Note_on_c, 0, 65, 38
2, 38876, Note_on_c, 0, 61, 32
2, 38878, Note_on_c, 0, 60, 30
2, 38879, Note_on_c, 0, 72, 0
2, 38889, Note_on_c, 0, 60, 0
2, 38891, Note_on_c, 0, 65, 0
2, 38894, Note_on_c, 0, 61, 0
2, 39083, Note_on_c, 0, 65, 65
2, 39083, Note_on_c, 0, 86, 95
2, 39083, Note_on_c, 0, 58, 35
2, 39086, Note_on_c, 0, 60, 43
2, 39086, Note_on_c, 0, 54, 31
2, 39102, Note_on_c, 0, 86, 0
2, 39114, Note_on_c, 0, 65, 0
2, 39122, Note_on_c, 0, 54, 0
2, 39126, Note_on_c, 0, 82, 59
2, 39139, Note_on_c, 0, 58, 0
2, 39141, Note_on_c, 0, 60, 0
2, 39146, Note_on_c, 0, 82, 0
2, 39164, Note_on_c, 0, 77, 60
2, 39184, Note_on_c, 0, 77, 0
2, 39199, Note_on_c, 0, 65, 48
2, 39201, Note_on_c, 0, 74, 49
2, 39202, Note_on_c, 0, 60, 40
2, 39206, Note_on_c, 0, 54, 33
2, 39206, Note_on_c, 0, 58, 31
2, 39221, Note_on_c, 0, 74, 0
2, 39248, Note_on_c, 0, 65, 0
2, 39259, Note_on_c, 0, 72, 16
2, 39260, Note_on_c, 0, 60, 0
2, 39271, Note_on_c, 0, 72, 0
2, 39288, Note_on_c, 0, 70, 59
2, 39308, Note_on_c, 0, 70, 0
2, 39311, Note_on_c, 0, 54, 0
2, 39314, Note_on_c, 0, 58, 0
2, 39329, Note_on_c, 0, 69, 57
2, 39348, Note_on_c, 0, 58, 23
2, 39349, Note_on_c, 0, 62, 32
2, 39350, Note_on_c, 0, 69, 0
2, 39350, Note_on_c, 0, 57, 27
2, 39354, Note_on_c, 0, 55, 22
2, 39371, Note_on_c, 0, 70, 69
2, 39397, Note_on_c, 0, 70, 0
2, 39428, Note_on_c, 0, 62, 0
2, 39431, Note_on_c, 0, 57, 0
2, 39443, Note_on_c, 0, 58, 0
2, 39447, Note_on_c, 0, 69, 80
2, 39476, Note_on_c, 0, 69, 0
2, 39489, Note_on_c, 0, 58, 25
2, 39489, Note_on_c, 0, 66, 32
2, 39491, Note_on_c, 0, 62, 22
2, 39511, Note_on_c, 0, 66, 0
2, 39523, Note_on_c, 0, 67, 47
2, 39544, Note_on_c, 0, 67, 0
2, 39557, Note_on_c, 0, 69, 65
2, 39575, Note_on_c, 0, 69, 0
2, 39586, Note_on_c, 0, 62, 0
2, 39586, Note_on_c, 0, 70, 56
2, 39592, Note_on_c, 0, 55, 0
2, 39601, Note_on_c, 0, 70, 0
2, 39606, Note_on_c, 0, 58, 0
2, 39619, Note_on_c, 0, 72, 44
2, 39643, Note_on_c, 0, 72, 0
2, 39651, Note_on_c, 0, 73, 56
2, 39673, Note_on_c, 0, 73, 0
2, 39680, Note_on_c, 0, 75, 39
2, 39694, Note_on_c, 0, 75, 0
2, 39712, Note_on_c, 0, 76, 50
2, 39712, Note_on_c, 0, 63, 31
2, 39719, Note_on_c, 0, 58, 21
2, 39728, Note_on_c, 0, 76, 0
2, 39730, Note_on_c, 0, 52, 22
2, 39741, Note_on_c, 0, 78, 42
2, 39771, Note_on_c, 0, 63, 0
2, 39772, Note_on_c, 0, 80, 44
2, 39774, Note_on_c, 0, 78, 0
2, 39799, Note_on_c, 0, 82, 49
2, 39803, Note_on_c, 0, 80, 0
2, 39811, Note_on_c, 0, 82, 0
2, 39827, Note_on_c, 0, 63, 11
2, 39829, Note_on_c, 0, 84, 45
2, 39838, Note_on_c, 0, 52, 0
2, 39846, Note_on_c, 0, 84, 0
2, 39848, Note_on_c, 0, 63, 0
2, 39848, Note_on_c, 0, 58, 0
2, 39859, Note_on_c, 0, 85, 42
2, 39873, Note_on_c, 0, 85, 0
2, 39893, Note_on_c, 0, 86, 51
2, 39901, Note_on_c, 0, 86, 0
2, 39922, Note_on_c, 0, 87, 42
2, 39939, Note_on_c, 0, 87, 0
2, 39950, Note_on_c, 0, 89, 73
2, 39952, Note_on_c, 0, 63, 33
2, 39956, Note_on_c, 0, 60, 33
2, 39961, Note_on_c, 0, 56, 28
2, 39966, Note_on_c, 0, 53, 22
2, 39979, Note_on_c, 0, 89, 0
2, 39981, Note_on_c, 0, 87, 63
2, 39997, Note_on_c, 0, 87, 0
2, 40008, Note_on_c, 0, 84, 62
2, 40035, Note_on_c, 0, 84, 0
2, 40039, Note_on_c, 0, 80, 51
2, 40058, Note_on_c, 0, 80, 0
2, 40063, Note_on_c, 0, 60, 0
2, 40065, Note_on_c, 0, 53, 0
2, 40075, Note_on_c, 0, 79, 41
2, 40079, Note_on_c, 0, 56, 0
2, 40082, Note_on_c, 0, 79, 0
2, 40088, Note_on_c, 0, 63, 0
2, 40099, Note_on_c, 0, 86, 81
2, 40121, Note_on_c, 0, 86, 0
2, 40129, Note_on_c, 0, 82, 53
2, 40134, Note_on_c, 0, 83, 82
2, 40136, Note_on_c, 0, 82, 0
2, 40152, Note_on_c, 0, 83, 0
2, 40160, Note_on_c, 0, 80, 60
2, 40173, Note_on_c, 0, 66, 21
2, 40174, Note_on_c, 0, 62, 17
2, 40182, Note_on_c, 0, 56, 31
2, 40184, Note_on_c, 0, 80, 0
2, 40194, Note_on_c, 0, 77, 54
2, 40203, Note_on_c, 0, 77, 0
2, 40272, Note_on_c, 0, 71, 31
2, 40277, Note_on_c, 0, 62, 0
2, 40283, Note_on_c, 0, 71, 0
2, 40292, Note_on_c, 0, 66, 0
2, 40302, Note_on_c, 0, 77, 72
2, 40312, Note_on_c, 0, 56, 0
2, 40316, Note_on_c, 0, 65, 31
2, 40320, Note_on_c, 0, 62, 27
2, 40324, Note_on_c, 0, 77, 0
2, 40325, Note_on_c, 0, 60, 18
2, 40327, Note_on_c, 0, 55, 24
2, 40341, Note_on_c, 0, 74, 51
2, 40349, Note_on_c, 0, 74, 0
2, 40372, Note_on_c, 0, 75, 67
2, 40573, Note_on_c, 0, 67, 26
2, 40574, Control_c, 0, 64, 127
2, 40671, Note_on_c, 0, 62, 0
2, 40675, Note_on_c, 0, 67, 0
2, 40683, Note_on_c, 0, 55, 0
2, 40683, Note_on_c, 0, 65, 0
2, 40686, Note_on_c, 0, 60, 0
2, 40694, Note_on_c, 0, 75, 0
2, 40814, Control_c, 0, 64, 0
2, 40815, Note_on_c, 0, 72, 53
2, 40816, Note_on_c, 0, 80, 36
2, 40817, Note_on_c, 0, 61, 38
2, 40818, Note_on_c, 0, 65, 38
2, 40819, Note_on_c, 0, 84, 50
2, 40819, Control_c, 0, 64, 127
2, 40819, Note_on_c, 0, 77, 44
2, 40820, Note_on_c, 0, 60, 30
2, 40822, Note_on_c, 0, 56, 27
2, 40844, Note_on_c, 0, 77, 0
2, 40850, Note_on_c, 0, 72, 0
2, 40851, Note_on_c, 0, 84, 0
2, 40860, Note_on_c, 0, 80, 0
2, 40862, Note_on_c, 0, 60, 0
2, 40863, Note_on_c, 0, 56, 0
2, 40863, Note_on_c, 0, 65, 0
2, 40870, Note_on_c, 0, 61, 0
2, 40891, Note_on_c, 0, 85, 69
2, 40893, Note_on_c, 0, 73, 59
2, 40898, Note_on_c, 0, 61, 37
2, 40898, Note_on_c, 0, 65, 43
2, 40900, Note_on_c, 0, 60, 33
2, 40900, Note_on_c, 0, 56, 25
2, 40904, Control_c, 0, 64, 0
2, 40906, Note_on_c, 0, 73, 0
2, 40908, Note_on_c, 0, 60, 0
2, 40908, Note_on_c, 0, 65, 0
2, 40908, Note_on_c, 0, 85, 0
2, 40910, Note_on_c, 0, 56, 0
2, 40916, Note_on_c, 0, 61, 0
2, 40919, Control_c, 0, 64, 127
2, 40930, Note_on_c, 0, 65, 48
2, 40931, Note_on_c, 0, 87, 71
2, 40931, Note_on_c, 0, 75, 56
2, 40934, Note_on_c, 0, 56, 34
2, 40934, Note_on_c, 0, 61, 46
2, 40956, Note_on_c, 0, 65, 0
2, 40969, Note_on_c, 0, 75, 0
2, 40971, Note_on_c, 0, 61, 0
2, 40971, Note_on_c, 0, 87, 0
2, 40984, Note_on_c, 0, 56, 0
2, 41006, Note_on_c, 0, 76, 60
2, 41007, Note_on_c, 0, 55, 48
2, 41007, Note_on_c, 0, 64, 41
2, 41009, Note_on_c, 0, 88, 52
2, 41009, Note_on_c, 0, 61, 35
2, 41010, Note_on_c, 0, 85, 33
2, 41011, Note_on_c, 0, 81, 53
2, 41013, Control_c, 0, 64, 0
2, 41040, Control_c, 0, 64, 127
2, 41046, Note_on_c, 0, 81, 0
2, 41046, Note_on_c, 0, 76, 0
2, 41051, Note_on_c, 0, 85, 0
2, 41056, Note_on_c, 0, 88, 0
2, 41071, Note_on_c, 0, 55, 0
2, 41073, Note_on_c, 0, 64, 0
2, 41079, Note_on_c, 0, 61, 0
2, 41088, Note_on_c, 0, 91, 66
2, 41089, Note_on_c, 0, 79, 47
2, 41091, Note_on_c, 0, 55, 50
2, 41091, Note_on_c, 0, 64, 57
2, 41093, Note_on_c, 0, 61, 45
2, 41096, Note_on_c, 0, 86, 39
2, 41108, Note_on_c, 0, 86, 0
2, 41119, Note_on_c, 0, 79, 0
2, 41130, Note_on_c, 0, 91, 0
2, 41134, Note_on_c, 0, 64, 0
2, 41141, Note_on_c, 0, 55, 0
2, 41141, Note_on_c, 0, 61, 0
2, 41162, Control_c, 0, 64, 0
2, 41166, Note_on_c, 0, 55, 47
2, 41167, Note_on_c, 0, 61, 56
2, 41167, Note_on_c, 0, 82, 72
2, 41168, Note_on_c, 0, 94, 63
2, 41169, Note_on_c, 0, 64, 51
2, 41180, Control_c, 0, 64, 127
2, 41194, Note_on_c, 0, 82, 0
2, 41195, Note_on_c, 0, 55, 0
2, 41201, Note_on_c, 0, 64, 0
2, 41207, Note_on_c, 0, 94, 0
2, 41213, Note_on_c, 0, 61, 0
2, 41245, Note_on_c, 0, 82, 71
2, 41247, Note_on_c, 0, 94, 57
2, 41249, Note_on_c, 0, 63, 59
2, 41250, Note_on_c, 0, 60, 50
2, 41252, Control_c, 0, 64, 0
2, 41253, Note_on_c, 0, 94, 0
2, 41255, Note_on_c, 0, 58, 27
2, 41257, Note_on_c, 0, 82, 0
2, 41257, Note_on_c, 0, 60, 0
2, 41259, Note_on_c, 0, 63, 0
2, 41265, Note_on_c, 0, 58, 0
2, 41523, Note_on_c, 0, 58, 62
2, 41525, Note_on_c, 0, 70, 67
2, 41526, Note_on_c, 0, 61, 62
2, 41529, Note_on_c, 0, 66, 54
2, 41533, Note_on_c, 0, 61, 0
2, 41536, Note_on_c, 0, 66, 0
2, 41536, Note_on_c, 0, 58, 0
2, 41541, Note_on_c, 0, 70, 0
2, 41671, Control_c, 0, 64, 127
2, 41761, Note_on_c, 0, 68, 69
2, 41761, Note_on_c, 0, 59, 75
2, 41761, Note_on_c, 0, 64, 71
2, 41762, Control_c, 0, 64, 0
2, 41764, Note_on_c, 0, 54, 62
2, 41794, Control_c, 0, 64, 127
2, 42013, Note_on_c, 0, 64, 0
2, 42025, Note_on_c, 0, 68, 0
2, 42041, Note_on_c, 0, 59, 0
2, 42082, Note_on_c, 0, 66, 46
2, 42084, Note_on_c, 0, 54, 0
2, 42084, Note_on_c, 0, 62, 49
2, 42084, Note_on_c, 0, 57, 47
2, 42087, Note_on_c, 0, 52, 37
2, 42089, Control_c, 0, 64, 0
2, 42118, Control_c, 0, 64, 127
2, 42119, Note_on_c, 0, 57, 0
2, 42126, Note_on_c, 0, 62, 0
2, 42131, Note_on_c, 0, 66, 0
2, 42152, Note_on_c, 0, 52, 0
2, 42156, Control_c, 0, 64, 0
2, 42163, Note_on_c, 0, 56, 53
2, 42164, Note_on_c, 0, 61, 51
2, 42166, Note_on_c, 0, 65, 47
2, 42169, Note_on_c, 0, 48, 35
2, 42172, Control_c, 0, 64, 127
2, 42174, Note_on_c, 0, 65, 0
2, 42174, Note_on_c, 0, 56, 0
2, 42177, Note_on_c, 0, 61, 0
2, 42180, Note_on_c, 0, 48, 0
2, 42206, Note_on_c, 0, 48, 29
2, 42229, Note_on_c, 0, 48, 0
2, 42235, Control_c, 0, 64, 0
2, 42245, Note_on_c, 0, 57, 55
2, 42246, Note_on_c, 0, 66, 46
2, 42248, Note_on_c, 0, 51, 35
2, 42248, Note_on_c, 0, 62, 49
2, 42252, Note_on_c, 0, 41, 33
2, 42353, Control_c, 0, 64, 127
2, 42354, Note_on_c, 0, 41, 0
2, 42365, Note_on_c, 0, 62, 0
2, 42374, Note_on_c, 0, 51, 0
2, 42380, Note_on_c, 0, 57, 0
2, 42383, Note_on_c, 0, 66, 0
2, 42559, Note_on_c, 0, 50, 54
2, 42562, Note_on_c, 0, 63, 45
2, 42563, Note_on_c, 0, 55, 64
2, 42565, Note_on_c, 0, 57, 54
2, 42567, Note_on_c, 0, 51, 45
2, 42567, Note_on_c, 0, 60, 54
2, 42574, Note_on_c, 0, 50, 0
2, 42576, Control_c, 0, 64, 0
2, 42590, Note_on_c, 0, 55, 0
2, 42595, Note_on_c, 0, 57, 0
2, 42598, Note_on_c, 0, 63, 0
2, 42600, Note_on_c, 0, 60, 0
2, 42610, Note_on_c, 0, 51, 0
2, 42617, Note_on_c, 0, 50, 30
2, 42681, Note_on_c, 0, 50, 0
2, 42684, Note_on_c, 0, 63, 38
2, 42685, Note_on_c, 0, 51, 44
2, 42686, Note_on_c, 0, 55, 46
2, 42687, Note_on_c, 0, 57, 51
2, 42689, Note_on_c, 0, 60, 50
2, 42695, Note_on_c, 0, 55, 0
2, 42701, Note_on_c, 0, 57, 0
2, 42704, Note_on_c, 0, 60, 0
2, 42707, Note_on_c, 0, 51, 0
2, 42707, Note_on_c, 0, 63, 0
2, 42718, Control_c, 0, 64, 127
2, 42799, Control_c, 0, 64, 0
2, 42807, Note_on_c, 0, 67, 77
2, 42808, Note_on_c, 0, 63, 74
2, 42809, Note_on_c, 0, 74, 84
2, 42809, Note_on_c, 0, 62, 71
2, 42812, Note_on_c, 0, 71, 50
2, 42816, Note_on_c, 0, 72, 43
2, 42823, Note_on_c, 0, 72, 0
2, 42841, Note_on_c, 0, 71, 0
2, 42842, Note_on_c, 0, 63, 0
2, 42844, Note_on_c, 0, 67, 0
2, 42846, Note_on_c, 0, 74, 0
2, 42849, Note_on_c, 0, 62, 0
2, 42858, Note_on_c, 0, 60, 34
2, 42924, Note_on_c, 0, 62, 60
2, 42925, Note_on_c, 0, 63, 74
2, 42925, Note_on_c, 0, 74, 80
2, 42926, Note_on_c, 0, 67, 73
2, 42927, Note_on_c, 0, 60, 0
2, 42955, Note_on_c, 0, 74, 0
2, 42955, Note_on_c, 0, 63, 0
2, 42957, Note_on_c, 0, 67, 0
2, 42966, Note_on_c, 0, 62, 0
2, 42979, Note_on_c, 0, 60, 34
2, 42982, Note_on_c, 0, 63, 42
2, 42983, Note_on_c, 0, 72, 55
2, 42984, Note_on_c, 0, 67, 31
2, 43007, Control_c, 0, 64, 127
2, 43011, Note_on_c, 0, 67, 0
2, 43037, Note_on_c, 0, 60, 0
2, 43037, Note_on_c, 0, 63, 0
2, 43051, Note_on_c, 0, 72, 0
2, 43185, Control_c, 0, 64, 0
2, 43196, Control_c, 0, 64, 127
2, 43203, Note_on_c, 0, 66, 51
2, 43203, Note_on_c, 0, 78, 46
2, 43203, Note_on_c, 0, 56, 49
2, 43203, Note_on_c, 0, 62, 41
2, 43203, Note_on_c, 0, 82, 53
2, 43203, Note_on_c, 0, 85, 53
2, 43205, Note_on_c, 0, 90, 43
2, 43227, Note_on_c, 0, 82, 0
2, 43237, Note_on_c, 0, 78, 0
2, 43237, Note_on_c, 0, 85, 0
2, 43240, Note_on_c, 0, 56, 0
2, 43242, Note_on_c, 0, 90, 0
2, 43243, Note_on_c, 0, 66, 0
2, 43245, Note_on_c, 0, 62, 0
2, 43286, Note_on_c, 0, 92, 73
2, 43286, Note_on_c, 0, 80, 65
2, 43287, Note_on_c, 0, 66, 62
2, 43288, Note_on_c, 0, 56, 62
2, 43289, Note_on_c, 0, 62, 60
2, 43289, Note_on_c, 0, 87, 61
2, 43295, Note_on_c, 0, 87, 0
2, 43300, Note_on_c, 0, 66, 0
2, 43306, Note_on_c, 0, 56, 0
2, 43307, Note_on_c, 0, 92, 0
2, 43311, Note_on_c, 0, 80, 0
2, 43321, Control_c, 0, 64, 0
2, 43327, Control_c, 0, 64, 127
2, 43327, Note_on_c, 0, 56, 39
2, 43327, Note_on_c, 0, 66, 42
2, 43330, Note_on_c, 0, 78, 55
2, 43334, Note_on_c, 0, 90, 40
2, 43348, Note_on_c, 0, 62, 0
2, 43359, Note_on_c, 0, 78, 0
2, 43361, Note_on_c, 0, 66, 0
2, 43367, Note_on_c, 0, 90, 0
2, 43370, Note_on_c, 0, 56, 0
2, 43402, Note_on_c, 0, 65, 71
2, 43402, Note_on_c, 0, 61, 56
2, 43403, Note_on_c, 0, 89, 76
2, 43404, Note_on_c, 0, 60, 58
2, 43404, Note_on_c, 0, 55, 62
2, 43405, Note_on_c, 0, 77, 68
2, 43405, Note_on_c, 0, 84, 76
2, 43407, Control_c, 0, 64, 0
2, 43410, Note_on_c, 0, 58, 37
2, 43419, Note_on_c, 0, 58, 0
2, 43436, Control_c, 0, 64, 127
2, 43492, Note_on_c, 0, 77, 0
2, 43496, Note_on_c, 0, 84, 0
2, 43503, Note_on_c, 0, 89, 0
2, 43519, Note_on_c, 0, 55, 0
2, 43529, Note_on_c, 0, 65, 0
2, 43530, Note_on_c, 0, 60, 0
2, 43535, Note_on_c, 0, 61, 0
2, 43563, Note_on_c, 0, 65, 54
2, 43564, Note_on_c, 0, 60, 39
2, 43566, Note_on_c, 0, 93, 59
2, 43566, Note_on_c, 0, 61, 30
2, 43566, Note_on_c, 0, 55, 48
2, 43568, Note_on_c, 0, 81, 44
2, 43577, Note_on_c, 0, 81, 0
2, 43581, Note_on_c, 0, 93, 0
2, 43587, Note_on_c, 0, 60, 0
2, 43591, Note_on_c, 0, 61, 0
2, 43596, Note_on_c, 0, 55, 0
2, 43602, Note_on_c, 0, 65, 0
2, 43644, Control_c, 0, 64, 0
2, 43645, Note_on_c, 0, 65, 79
2, 43646, Note_on_c, 0, 54, 72
2, 43647, Note_on_c, 0, 58, 63
2, 43648, Note_on_c, 0, 60, 70
2, 43648, Note_on_c, 0, 96, 83
2, 43649, Note_on_c, 0, 84, 78
2, 43650, Note_on_c, 0, 91, 68
2, 43689, Control_c, 0, 64, 127
2, 43799, Note_on_c, 0, 96, 0
2, 43804, Note_on_c, 0, 91, 0
2, 43815, Note_on_c, 0, 84, 0
2, 43831, Note_on_c, 0, 60, 0
2, 43845, Note_on_c, 0, 65, 0
2, 43898, Note_on_c, 0, 58, 0
2, 43899, Note_on_c, 0, 54, 0
2, 43917, Note_on_c, 0, 53, 49
2, 43920, Note_on_c, 0, 64, 36
2, 43924, Note_on_c, 0, 59, 36
2, 43937, Control_c, 0, 64, 0
2, 43962, Note_on_c, 0, 79, 68
2, 43962, Note_on_c, 0, 73, 77
2, 44039, Note_on_c, 0, 79, 0
2, 44041, Note_on_c, 0, 64, 0
2, 44045, Note_on_c, 0, 73, 0
2, 44048, Note_on_c, 0, 71, 69
2, 44051, Note_on_c, 0, 59, 0
2, 44059, Note_on_c, 0, 53, 0
2, 44065, Note_on_c, 0, 71, 0
2, 44093, Note_on_c, 0, 67, 25
2, 44114, Note_on_c, 0, 67, 0
2, 44143, Note_on_c, 0, 58, 23
2, 44146, Note_on_c, 0, 48, 32
2, 44228, Note_on_c, 0, 65, 71
2, 44256, Note_on_c, 0, 65, 0
2, 44265, Note_on_c, 0, 62, 36
2, 44284, Note_on_c, 0, 62, 0
2, 44303, Note_on_c, 0, 63, 55
2, 44307, Note_on_c, 0, 58, 0
2, 44333, Note_on_c, 0, 60, 35
2, 44337, Note_on_c, 0, 63, 0
2, 44352, Note_on_c, 0, 60, 0
2, 44363, Note_on_c, 0, 58, 25
2, 44371, Note_on_c, 0, 62, 34
2, 44390, Note_on_c, 0, 62, 0
2, 44395, Note_on_c, 0, 48, 0
2, 44401, Note_on_c, 0, 63, 39
2, 44412, Note_on_c, 0, 58, 0
2, 44421, Note_on_c, 0, 63, 0
2, 44434, Note_on_c, 0, 65, 40
2, 44462, Note_on_c, 0, 65, 0
2, 44533, Control_c, 0, 64, 127
2, 44600, Note_on_c, 0, 65, 61
2, 44600, Note_on_c, 0, 60, 58
2, 44601, Control_c, 0, 64, 0
2, 44601, Note_on_c, 0, 61, 39
2, 44608, Note_on_c, 0, 55, 26
2, 44620, Note_on_c, 0, 65, 0
2, 44624, Note_on_c, 0, 60, 0
2, 44627, Note_on_c, 0, 61, 0
2, 44630, Note_on_c, 0, 55, 0
2, 44665, Note_on_c, 0, 50, 60
2, 44665, Note_on_c, 0, 56, 50
2, 44665, Note_on_c, 0, 60, 53
2, 44685, Control_c, 0, 64, 127
2, 44691, Note_on_c, 0, 50, 0
2, 44693, Note_on_c, 0, 60, 0
2, 44694, Note_on_c, 0, 56, 0
2, 44741, Control_c, 0, 64, 0
2, 44755, Note_on_c, 0, 65, 68
2, 44755, Note_on_c, 0, 60, 55
2, 44756, Note_on_c, 0, 54, 49
2, 44758, Note_on_c, 0, 58, 49
2, 44778, Control_c, 0, 64, 127
2, 44815, Note_on_c, 0, 60, 0
2, 44815, Note_on_c, 0, 65, 0
2, 44834, Note_on_c, 0, 54, 0
2, 44837, Note_on_c, 0, 58, 0
2, 44842, Control_c, 0, 64, 0
2, 44846, Note_on_c, 0, 64, 60
2, 44850, Note_on_c, 0, 53, 51
2, 44853, Note_on_c, 0, 59, 54
2, 44932, Note_on_c, 0, 73, 63
2, 44957, Note_on_c, 0, 73, 0
2, 44967, Note_on_c, 0, 71, 49
2, 44970, Control_c, 0, 64, 127
2, 44993, Note_on_c, 0, 71, 0
2, 44997, Control_c, 0, 64, 0
2, 45007, Note_on_c, 0, 74, 75
2, 45033, Note_on_c, 0, 59, 0
2, 45033, Note_on_c, 0, 64, 0
2, 45040, Note_on_c, 0, 74, 0
2, 45041, Note_on_c, 0, 53, 0
2, 45045, Note_on_c, 0, 71, 40
2, 45071, Note_on_c, 0, 71, 0
2, 45086, Note_on_c, 0, 62, 47
2, 45088, Note_on_c, 0, 72, 68
2, 45090, Note_on_c, 0, 51, 29
2, 45092, Note_on_c, 0, 57, 32
2, 45093, Note_on_c, 0, 55, 29
2, 45127, Note_on_c, 0, 72, 0
2, 45172, Note_on_c, 0, 75, 74
2, 45191, Control_c, 0, 64, 127
2, 45212, Note_on_c, 0, 75, 0
2, 45220, Control_c, 0, 64, 0
2, 45250, Note_on_c, 0, 77, 68
2, 45256, Note_on_c, 0, 55, 0
2, 45256, Note_on_c, 0, 57, 0
2, 45263, Note_on_c, 0, 51, 0
2, 45263, Control_c, 0, 64, 127
2, 45285, Note_on_c, 0, 62, 0
2, 45289, Note_on_c, 0, 77, 0
2, 45336, Note_on_c, 0, 79, 36
2, 45343, Note_on_c, 0, 79, 0
2, 45345, Control_c, 0, 64, 0
2, 45438, Control_c, 0, 64, 127
2, 45445, Note_on_c, 0, 65, 52
2, 45445, Control_c, 0, 64, 0
2, 45446, Note_on_c, 0, 61, 38
2, 45446, Note_on_c, 0, 60, 40
2, 45450, Note_on_c, 0, 56, 29
2, 45490, Control_c, 0, 64, 127
2, 45531, Note_on_c, 0, 60, 0
2, 45545, Note_on_c, 0, 65, 0
2, 45545, Note_on_c, 0, 61, 0
2, 45556, Note_on_c, 0, 56, 0
2, 45587, Control_c, 0, 64, 0
2, 45603, Note_on_c, 0, 65, 33
2, 45603, Note_on_c, 0, 61, 29
2, 45605, Note_on_c, 0, 55, 34
2, 45605, Note_on_c, 0, 60, 32
2, 45617, Control_c, 0, 64, 127
2, 45650, Note_on_c, 0, 60, 0
2, 45652, Note_on_c, 0, 55, 0
2, 45652, Note_on_c, 0, 65, 0
2, 45657, Note_on_c, 0, 61, 0
2, 45687, Note_on_c, 0, 61, 42
2, 45690, Note_on_c, 0, 65, 59
2, 45690, Note_on_c, 0, 60, 53
2, 45690, Note_on_c, 0, 55, 49
2, 45692, Note_on_c, 0, 91, 70
2, 45692, Note_on_c, 0, 79, 64
2, 45696, Control_c, 0, 64, 0
2, 45703, Note_on_c, 0, 90, 25
2, 45706, Note_on_c, 0, 91, 0
2, 45709, Note_on_c, 0, 65, 0
2, 45710, Note_on_c, 0, 55, 0
2, 45710, Note_on_c, 0, 60, 0
2, 45711, Note_on_c, 0, 79, 0
2, 45711, Note_on_c, 0, 90, 0
2, 45714, Note_on_c, 0, 61, 0
2, 45719, Control_c, 0, 64, 127
2, 45733, Note_on_c, 0, 61, 37
2, 45734, Note_on_c, 0, 60, 40
2, 45734, Note_on_c, 0, 65, 50
2, 45735, Note_on_c, 0, 55, 45
2, 45737, Note_on_c, 0, 80, 48
2, 45737, Note_on_c, 0, 92, 49
2, 45748, Note_on_c, 0, 80, 0
2, 45752, Note_on_c, 0, 65, 0
2, 45753, Note_on_c, 0, 92, 0
2, 45755, Note_on_c, 0, 55, 0
2, 45756, Note_on_c, 0, 60, 0
2, 45759, Note_on_c, 0, 61, 0
2, 45797, Control_c, 0, 64, 0
2, 45809, Note_on_c, 0, 61, 39
2, 45810, Note_on_c, 0, 65, 55
2, 45811, Note_on_c, 0, 60, 36
2, 45812, Note_on_c, 0, 81, 74
2, 45813, Note_on_c, 0, 55, 24
2, 45813, Note_on_c, 0, 93, 69
2, 45817, Note_on_c, 0, 65, 0
2, 45818, Note_on_c, 0, 60, 0
2, 45820, Note_on_c, 0, 92, 26
2, 45821, Note_on_c, 0, 61, 0
2, 45823, Note_on_c, 0, 55, 0
2, 45823, Note_on_c, 0, 93, 0
2, 45824, Note_on_c, 0, 81, 0
2, 45827, Note_on_c, 0, 92, 0
2, 45855, Note_on_c, 0, 65, 68
2, 45855, Note_on_c, 0, 58, 51
2, 45856, Note_on_c, 0, 82, 62
2, 45857, Note_on_c, 0, 94, 65
2, 45857, Note_on_c, 0, 54, 38
2, 45862, Note_on_c, 0, 60, 34
2, 45871, Note_on_c, 0, 60, 0
2, 45878, Note_on_c, 0, 65, 0
2, 45884, Note_on_c, 0, 82, 0
2, 45885, Note_on_c, 0, 58, 0
2, 45886, Note_on_c, 0, 54, 0
2, 45886, Note_on_c, 0, 94, 0
2, 45926, Note_on_c, 0, 54, 61
2, 45927, Note_on_c, 0, 65, 69
2, 45927, Note_on_c, 0, 58, 51
2, 45929, Note_on_c, 0, 84, 72
2, 45929, Note_on_c, 0, 96, 69
2, 45930, Note_on_c, 0, 60, 49
2, 45940, Note_on_c, 0, 60, 0
2, 45942, Note_on_c, 0, 65, 0
2, 45945, Note_on_c, 0, 84, 0
2, 45946, Note_on_c, 0, 96, 0
2, 45947, Note_on_c, 0, 54, 0
2, 45950, Note_on_c, 0, 58, 0
2, 45979, Note_on_c, 0, 58, 44
2, 45980, Note_on_c, 0, 54, 44
2, 45981, Note_on_c, 0, 65, 52
2, 45981, Note_on_c, 0, 85, 55
2, 45982, Note_on_c, 0, 60, 38
2, 45983, Control_c, 0, 64, 127
2, 45984, Note_on_c, 0, 97, 44
2, 45987, Note_on_c, 0, 85, 0
2, 45988, Note_on_c, 0, 65, 0
2, 45989, Note_on_c, 0, 60, 0
2, 45990, Note_on_c, 0, 97, 0
2, 45993, Note_on_c, 0, 54, 0
2, 45995, Note_on_c, 0, 58, 0
2, 46042, Note_on_c, 0, 54, 59
2, 46044, Note_on_c, 0, 65, 48
2, 46044, Note_on_c, 0, 58, 37
2, 46045, Note_on_c, 0, 86, 71
2, 46047, Note_on_c, 0, 98, 62
2, 46049, Note_on_c, 0, 60, 32
2, 46052, Note_on_c, 0, 65, 0
2, 46054, Note_on_c, 0, 86, 0
2, 46057, Note_on_c, 0, 60, 0
2, 46059, Note_on_c, 0, 58, 0
2, 46061, Control_c, 0, 64, 0
2, 46062, Note_on_c, 0, 98, 0
2, 46064, Note_on_c, 0, 54, 0
2, 46089, Note_on_c, 0, 58, 34
2, 46089, Note_on_c, 0, 62, 56
2, 46092, Note_on_c, 0, 57, 47
2, 46094, Note_on_c, 0, 55, 40
2, 46095, Note_on_c, 0, 89, 71
2, 46095, Note_on_c, 0, 101, 68
2, 46145, Note_on_c, 0, 62, 0
2, 46145, Note_on_c, 0, 58, 0
2, 46147, Note_on_c, 0, 55, 0
2, 46149, Note_on_c, 0, 57, 0
2, 46155, Note_on_c, 0, 101, 0
2, 46169, Note_on_c, 0, 57, 47
2, 46171, Note_on_c, 0, 62, 36
2, 46171, Note_on_c, 0, 98, 62
2, 46172, Note_on_c, 0, 58, 36
2, 46172, Note_on_c, 0, 55, 36
2, 46183, Note_on_c, 0, 89, 0
2, 46198, Note_on_c, 0, 98, 0
2, 46219, Note_on_c, 0, 94, 39
2, 46238, Note_on_c, 0, 57, 0
2, 46246, Note_on_c, 0, 62, 0
2, 46249, Note_on_c, 0, 55, 0
2, 46254, Note_on_c, 0, 58, 0
2, 46258, Note_on_c, 0, 94, 0
2, 46267, Note_on_c, 0, 91, 35
2, 46277, Note_on_c, 0, 91, 0
2, 46306, Note_on_c, 0, 93, 84
2, 46308, Note_on_c, 0, 58, 34
2, 46312, Note_on_c, 0, 52, 43
2, 46312, Note_on_c, 0, 62, 36
2, 46338, Note_on_c, 0, 93, 0
2, 46346, Note_on_c, 0, 94, 44
2, 46366, Note_on_c, 0, 62, 0
2, 46372, Note_on_c, 0, 58, 0
2, 46372, Note_on_c, 0, 93, 41
2, 46379, Note_on_c, 0, 94, 0
2, 46397, Note_on_c, 0, 93, 0
2, 46402, Note_on_c, 0, 91, 59
2, 46419, Note_on_c, 0, 91, 0
2, 46434, Note_on_c, 0, 58, 31
2, 46439, Note_on_c, 0, 62, 30
2, 46443, Note_on_c, 0, 86, 52
2, 46470, Note_on_c, 0, 86, 0
2, 46476, Note_on_c, 0, 52, 0
2, 46482, Note_on_c, 0, 58, 0
2, 46486, Note_on_c, 0, 82, 53
2, 46497, Note_on_c, 0, 62, 0
2, 46515, Note_on_c, 0, 82, 0
2, 46580, Note_on_c, 0, 86, 75
2, 46611, Note_on_c, 0, 86, 0
2, 46617, Note_on_c, 0, 87, 53
2, 46643, Note_on_c, 0, 86, 54
2, 46644, Note_on_c, 0, 87, 0
2, 46664, Note_on_c, 0, 86, 0
2, 46668, Note_on_c, 0, 84, 58
2, 46679, Note_on_c, 0, 63, 38
2, 46680, Note_on_c, 0, 67, 48
2, 46685, Note_on_c, 0, 62, 38
2, 46686, Note_on_c, 0, 84, 0
2, 46687, Note_on_c, 0, 57, 34
2, 46730, Note_on_c, 0, 67, 0
2, 46732, Note_on_c, 0, 62, 0
2, 46735, Note_on_c, 0, 63, 0
2, 46742, Note_on_c, 0, 57, 0
2, 46766, Note_on_c, 0, 77, 50
2, 46769, Note_on_c, 0, 65, 66
2, 46769, Note_on_c, 0, 54, 56
2, 46774, Note_on_c, 0, 77, 0
2, 46774, Note_on_c, 0, 60, 46
2, 46775, Note_on_c, 0, 58, 35
2, 46888, Note_on_c, 0, 86, 83
2, 46906, Note_on_c, 0, 86, 0
2, 46921, Note_on_c, 0, 65, 0
2, 46926, Note_on_c, 0, 82, 64
2, 46941, Note_on_c, 0, 60, 0
2, 46949, Note_on_c, 0, 82, 0
2, 46965, Note_on_c, 0, 77, 35
2, 46966, Note_on_c, 0, 79, 30
2, 46976, Note_on_c, 0, 79, 0
2, 46978, Note_on_c, 0, 77, 0
2, 46984, Note_on_c, 0, 58, 0
2, 46995, Note_on_c, 0, 74, 40
2, 46998, Note_on_c, 0, 54, 0
2, 47006, Note_on_c, 0, 74, 0
2, 47029, Note_on_c, 0, 72, 53
2, 47034, Note_on_c, 0, 62, 30
2, 47034, Note_on_c, 0, 57, 30
2, 47035, Note_on_c, 0, 58, 21
2, 47049, Note_on_c, 0, 72, 0
2, 47071, Note_on_c, 0, 70, 49
2, 47098, Note_on_c, 0, 70, 0
2, 47109, Note_on_c, 0, 69, 41
2, 47111, Note_on_c, 0, 62, 0
2, 47120, Note_on_c, 0, 69, 0
2, 47143, Note_on_c, 0, 72, 70
2, 47151, Note_on_c, 0, 62, 30
2, 47167, Note_on_c, 0, 72, 0
2, 47181, Note_on_c, 0, 69, 45
2, 47197, Note_on_c, 0, 62, 0
2, 47198, Note_on_c, 0, 69, 0
2, 47199, Note_on_c, 0, 55, 1
2, 47218, Note_on_c, 0, 70, 60
2, 47244, Note_on_c, 0, 70, 0
2, 47253, Note_on_c, 0, 66, 49
2, 47260, Note_on_c, 0, 62, 28
2, 47261, Note_on_c, 0, 66, 0
2, 47273, Note_on_c, 0, 62, 0
2, 47295, Note_on_c, 0, 57, 0
2, 47300, Note_on_c, 0, 55, 0
2, 47300, Note_on_c, 0, 58, 0
2, 47368, Note_on_c, 0, 63, 47
2, 47368, Note_on_c, 0, 58, 37
2, 47372, Note_on_c, 0, 52, 39
2, 47374, Note_on_c, 0, 56, 31
2, 47439, Control_c, 0, 64, 127
2, 47494, Note_on_c, 0, 52, 0
2, 47495, Control_c, 0, 64, 0
2, 47500, Note_on_c, 0, 56, 0
2, 47503, Note_on_c, 0, 58, 0
2, 47506, Note_on_c, 0, 63, 0
2, 47523, Note_on_c, 0, 60, 48
2, 47523, Note_on_c, 0, 56, 32
2, 47523, Control_c, 0, 64, 127
2, 47526, Note_on_c, 0, 67, 81
2, 47532, Note_on_c, 0, 53, 33
2, 47549, Note_on_c, 0, 67, 0
2, 47550, Control_c, 0, 64, 0
2, 47593, Note_on_c, 0, 67, 78
2, 47619, Note_on_c, 0, 67, 0
2, 47632, Note_on_c, 0, 64, 37
2, 47653, Note_on_c, 0, 64, 0
2, 47661, Note_on_c, 0, 65, 48
2, 47668, Note_on_c, 0, 60, 0
2, 47680, Note_on_c, 0, 65, 0
2, 47692, Note_on_c, 0, 67, 69
2, 47709, Note_on_c, 0, 67, 0
2, 47714, Note_on_c, 0, 60, 24
2, 47718, Note_on_c, 0, 63, 14
2, 47726, Note_on_c, 0, 68, 51
2, 47753, Note_on_c, 0, 68, 0
2, 47759, Note_on_c, 0, 65, 56
2, 47763, Note_on_c, 0, 60, 0
2, 47769, Note_on_c, 0, 53, 0
2, 47774, Note_on_c, 0, 56, 0
2, 47779, Note_on_c, 0, 65, 0
2, 47779, Note_on_c, 0, 63, 0
2, 47791, Note_on_c, 0, 67, 51
2, 47799, Note_on_c, 0, 67, 0
2, 47819, Note_on_c, 0, 68, 73
2, 47835, Note_on_c, 0, 68, 0
2, 47848, Note_on_c, 0, 70, 69
2, 47859, Note_on_c, 0, 66, 31
2, 47867, Note_on_c, 0, 56, 20
2, 47871, Note_on_c, 0, 70, 0
2, 47877, Note_on_c, 0, 66, 0
2, 47885, Note_on_c, 0, 67, 18
2, 47887, Note_on_c, 0, 62, 11
2, 47907, Note_on_c, 0, 67, 0
2, 47915, Note_on_c, 0, 68, 43
2, 47934, Note_on_c, 0, 68, 0
2, 47943, Note_on_c, 0, 70, 59
2, 47946, Note_on_c, 0, 56, 0
2, 47961, Note_on_c, 0, 70, 0
2, 47966, Note_on_c, 0, 56, 23
2, 47968, Note_on_c, 0, 66, 29
2, 47970, Note_on_c, 0, 72, 49
2, 47987, Note_on_c, 0, 62, 0
2, 47992, Note_on_c, 0, 72, 0
2, 47997, Note_on_c, 0, 66, 0
2, 48004, Note_on_c, 0, 74, 58
2, 48016, Note_on_c, 0, 74, 0
2, 48030, Note_on_c, 0, 56, 0
2, 48039, Note_on_c, 0, 75, 56
2, 48064, Note_on_c, 0, 75, 0
2, 48072, Note_on_c, 0, 72, 49
2, 48077, Note_on_c, 0, 65, 33
2, 48079, Note_on_c, 0, 61, 33
2, 48081, Note_on_c, 0, 72, 0
2, 48084, Note_on_c, 0, 60, 28
2, 48085, Note_on_c, 0, 56, 25
2, 48103, Note_on_c, 0, 73, 52
2, 48125, Note_on_c, 0, 73, 0
2, 48132, Note_on_c, 0, 75, 52
2, 48144, Control_c, 0, 64, 127
2, 48147, Note_on_c, 0, 75, 0
2, 48160, Note_on_c, 0, 77, 68
2, 48180, Note_on_c, 0, 77, 0
2, 48180, Note_on_c, 0, 65, 0
2, 48185, Note_on_c, 0, 60, 0
2, 48189, Note_on_c, 0, 79, 68
2, 48190, Note_on_c, 0, 65, 22
2, 48194, Note_on_c, 0, 60, 14
2, 48204, Note_on_c, 0, 60, 0
2, 48204, Note_on_c, 0, 79, 0
2, 48204, Note_on_c, 0, 65, 0
2, 48209, Note_on_c, 0, 61, 0
2, 48217, Note_on_c, 0, 80, 78
2, 48218, Note_on_c, 0, 65, 58
2, 48220, Note_on_c, 0, 61, 26
2, 48222, Note_on_c, 0, 60, 40
2, 48230, Note_on_c, 0, 60, 0
2, 48234, Note_on_c, 0, 65, 0
2, 48236, Note_on_c, 0, 80, 0
2, 48238, Note_on_c, 0, 61, 0
2, 48246, Note_on_c, 0, 82, 75
2, 48248, Note_on_c, 0, 65, 51
2, 48249, Note_on_c, 0, 61, 23
2, 48251, Note_on_c, 0, 60, 45
2, 48251, Note_on_c, 0, 80, 25
2, 48258, Note_on_c, 0, 80, 0
2, 48258, Note_on_c, 0, 60, 0
2, 48260, Note_on_c, 0, 65, 0
2, 48263, Note_on_c, 0, 56, 0
2, 48264, Note_on_c, 0, 82, 0
2, 48265, Note_on_c, 0, 61, 0
2, 48274, Note_on_c, 0, 65, 72
2, 48276, Note_on_c, 0, 56, 67
2, 48276, Note_on_c, 0, 84, 88
2, 48277, Note_on_c, 0, 61, 74
2, 48277, Note_on_c, 0, 60, 67
2, 48282, Control_c, 0, 64, 0
2, 48292, Control_c, 0, 64, 127
2, 48298, Note_on_c, 0, 84, 0
2, 48305, Note_on_c, 0, 65, 0
2, 48305, Note_on_c, 0, 85, 65
2, 48307, Note_on_c, 0, 60, 0
2, 48308, Note_on_c, 0, 61, 0
2, 48319, Note_on_c, 0, 65, 24
2, 48319, Note_on_c, 0, 61, 30
2, 48322, Note_on_c, 0, 60, 35
2, 48329, Note_on_c, 0, 85, 0
2, 48336, Note_on_c, 0, 87, 74
2, 48351, Note_on_c, 0, 65, 0
2, 48352, Note_on_c, 0, 87, 0
2, 48356, Note_on_c, 0, 60, 0
2, 48358, Note_on_c, 0, 61, 0
2, 48365, Note_on_c, 0, 89, 71
2, 48382, Note_on_c, 0, 89, 0
2, 48395, Note_on_c, 0, 91, 66
2, 48396, Note_on_c, 0, 65, 54
2, 48397, Note_on_c, 0, 61, 46
2, 48397, Note_on_c, 0, 60, 57
2, 48397, Note_on_c, 0, 89, 51
2, 48404, Note_on_c, 0, 89, 0
2, 48427, Note_on_c, 0, 65, 0
2, 48428, Note_on_c, 0, 91, 0
2, 48434, Note_on_c, 0, 92, 71
2, 48438, Note_on_c, 0, 65, 29
2, 48455, Note_on_c, 0, 92, 0
2, 48457, Note_on_c, 0, 65, 0
2, 48462, Note_on_c, 0, 60, 0
2, 48470, Note_on_c, 0, 94, 72
2, 48474, Note_on_c, 0, 61, 0
2, 48481, Note_on_c, 0, 56, 0
2, 48492, Note_on_c, 0, 94, 0
2, 48505, Note_on_c, 0, 58, 57
2, 48506, Note_on_c, 0, 62, 57
2, 48509, Note_on_c, 0, 96, 74
2, 48510, Control_c, 0, 64, 0
2, 48510, Note_on_c, 0, 52, 53
2, 48510, Note_on_c, 0, 84, 66
2, 48527, Control_c, 0, 64, 127
2, 48543, Note_on_c, 0, 62, 0
2, 48544, Note_on_c, 0, 96, 0
2, 48546, Note_on_c, 0, 95, 34
2, 48548, Note_on_c, 0, 84, 0
2, 48551, Note_on_c, 0, 52, 0
2, 48555, Note_on_c, 0, 95, 0
2, 48564, Note_on_c, 0, 58, 0
2, 48580, Note_on_c, 0, 63, 51
2, 48580, Note_on_c, 0, 58, 59
2, 48580, Note_on_c, 0, 85, 73
2, 48581, Note_on_c, 0, 97, 74
2, 48582, Note_on_c, 0, 52, 56
2, 48586, Note_on_c, 0, 92, 51
2, 48590, Control_c, 0, 64, 0
2, 48599, Note_on_c, 0, 85, 0
2, 48602, Note_on_c, 0, 52, 0
2, 48602, Note_on_c, 0, 97, 0
2, 48603, Note_on_c, 0, 63, 0
2, 48605, Note_on_c, 0, 92, 0
2, 48611, Note_on_c, 0, 58, 0
2, 48615, Control_c, 0, 64, 127
2, 48616, Note_on_c, 0, 63, 47
2, 48618, Note_on_c, 0, 58, 28
2, 48620, Note_on_c, 0, 99, 68
2, 48621, Note_on_c, 0, 87, 57
2, 48623, Note_on_c, 0, 52, 38
2, 48625, Note_on_c, 0, 94, 52
2, 48646, Note_on_c, 0, 99, 0
2, 48649, Note_on_c, 0, 87, 0
2, 48652, Note_on_c, 0, 94, 0
2, 48653, Note_on_c, 0, 52, 0
2, 48657, Note_on_c, 0, 63, 0
2, 48667, Note_on_c, 0, 58, 0
2, 48686, Note_on_c, 0, 58, 47
2, 48687, Note_on_c, 0, 61, 49
2, 48688, Note_on_c, 0, 97, 71
2, 48689, Note_on_c, 0, 85, 70
2, 48689, Control_c, 0, 64, 0
2, 48689, Note_on_c, 0, 52, 47
2, 48692, Note_on_c, 0, 92, 53
2, 48711, Note_on_c, 0, 61, 0
2, 48714, Note_on_c, 0, 52, 0
2, 48717, Note_on_c, 0, 85, 0
2, 48717, Note_on_c, 0, 97, 0
2, 48719, Note_on_c, 0, 92, 0
2, 48725, Note_on_c, 0, 61, 32
2, 48728, Control_c, 0, 64, 127
2, 48730, Note_on_c, 0, 52, 12
2, 48732, Note_on_c, 0, 61, 0
2, 48732, Note_on_c, 0, 92, 36
2, 48737, Note_on_c, 0, 96, 46
2, 48741, Note_on_c, 0, 84, 37
2, 48745, Note_on_c, 0, 96, 0
2, 48755, Note_on_c, 0, 92, 0
2, 48755, Note_on_c, 0, 84, 0
2, 48755, Control_c, 0, 64, 0
2, 48769, Note_on_c, 0, 58, 0
2, 48770, Note_on_c, 0, 52, 0
2, 48805, Note_on_c, 0, 61, 43
2, 48805, Note_on_c, 0, 94, 56
2, 48806, Note_on_c, 0, 58, 39
2, 48808, Note_on_c, 0, 82, 55
2, 48809, Note_on_c, 0, 52, 29
2, 48821, Note_on_c, 0, 52, 0
2, 48823, Note_on_c, 0, 94, 0
2, 48824, Note_on_c, 0, 61, 0
2, 48826, Note_on_c, 0, 82, 0
2, 48829, Note_on_c, 0, 58, 0
2, 48847, Note_on_c, 0, 61, 39
2, 48848, Note_on_c, 0, 58, 35
2, 48850, Control_c, 0, 64, 127
2, 48850, Note_on_c, 0, 52, 34
2, 48850, Note_on_c, 0, 91, 36
2, 48850, Note_on_c, 0, 79, 47
2, 48894, Note_on_c, 0, 79, 0
2, 48895, Note_on_c, 0, 61, 0
2, 48898, Note_on_c, 0, 58, 0
2, 48900, Note_on_c, 0, 91, 0
2, 48919, Note_on_c, 0, 61, 35
2, 48925, Note_on_c, 0, 52, 0
2, 48937, Note_on_c, 0, 61, 0
2, 48961, Note_on_c, 0, 63, 29
2, 48962, Note_on_c, 0, 92, 45
2, 48964, Control_c, 0, 64, 0
2, 48964, Note_on_c, 0, 80, 31
2, 48964, Note_on_c, 0, 56, 35
2, 48967, Note_on_c, 0, 53, 33
2, 48967, Note_on_c, 0, 87, 44
2, 48969, Note_on_c, 0, 60, 38
2, 49004, Control_c, 0, 64, 127
2, 49040, Note_on_c, 0, 92, 0
2, 49053, Note_on_c, 0, 87, 0
2, 49062, Note_on_c, 0, 80, 0
2, 49084, Note_on_c, 0, 63, 0
2, 49089, Note_on_c, 0, 60, 0
2, 49103, Note_on_c, 0, 56, 0
2, 49105, Note_on_c, 0, 53, 0
2, 49192, Control_c, 0, 64, 0
2, 49211, Note_on_c, 0, 68, 50
2, 49214, Note_on_c, 0, 56, 38
2, 49215, Note_on_c, 0, 63, 40
2, 49218, Note_on_c, 0, 60, 43
2, 49219, Control_c, 0, 64, 127
2, 49256, Note_on_c, 0, 68, 0
2, 49262, Note_on_c, 0, 60, 0
2, 49269, Note_on_c, 0, 63, 0
2, 49283, Note_on_c, 0, 56, 0
2, 49284, Note_on_c, 0, 58, 57
2, 49285, Note_on_c, 0, 63, 48
2, 49288, Note_on_c, 0, 60, 66
2, 49290, Note_on_c, 0, 70, 64
2, 49290, Note_on_c, 0, 65, 39
2, 49312, Note_on_c, 0, 70, 0
2, 49313, Note_on_c, 0, 65, 0
2, 49316, Control_c, 0, 64, 0
2, 49319, Note_on_c, 0, 60, 0
2, 49327, Note_on_c, 0, 56, 51
2, 49329, Note_on_c, 0, 58, 0
2, 49333, Note_on_c, 0, 68, 32
2, 49334, Control_c, 0, 64, 127
2, 49342, Note_on_c, 0, 63, 0
2, 49344, Note_on_c, 0, 56, 0
2, 49347, Note_on_c, 0, 68, 0
2, 49406, Control_c, 0, 64, 0
2, 49407, Note_on_c, 0, 59, 66
2, 49407, Note_on_c, 0, 58, 47
2, 49408, Note_on_c, 0, 63, 57
2, 49408, Note_on_c, 0, 54, 51
2, 49437, Control_c, 0, 64, 127
2, 49500, Note_on_c, 0, 82, 74
2, 49501, Note_on_c, 0, 78, 77
2, 49526, Control_c, 0, 64, 0
2, 49530, Note_on_c, 0, 82, 0
2, 49538, Note_on_c, 0, 78, 0
2, 49542, Note_on_c, 0, 77, 36
2, 49560, Note_on_c, 0, 63, 0
2, 49562, Note_on_c, 0, 77, 0
2, 49576, Note_on_c, 0, 80, 47
2, 49577, Note_on_c, 0, 75, 57
2, 49582, Note_on_c, 0, 63, 31
2, 49603, Note_on_c, 0, 80, 0
2, 49604, Note_on_c, 0, 63, 0
2, 49609, Note_on_c, 0, 74, 60
2, 49611, Note_on_c, 0, 75, 0
2, 49633, Note_on_c, 0, 74, 0
2, 49646, Note_on_c, 0, 73, 55
2, 49646, Note_on_c, 0, 63, 38
2, 49680, Note_on_c, 0, 63, 0
2, 49680, Note_on_c, 0, 73, 0
2, 49685, Note_on_c, 0, 72, 50
2, 49706, Note_on_c, 0, 72, 0
2, 49723, Note_on_c, 0, 70, 53
2, 49724, Note_on_c, 0, 63, 47
2, 49736, Control_c, 0, 64, 127
2, 49755, Note_on_c, 0, 70, 0
2, 49756, Note_on_c, 0, 63, 0
2, 49766, Note_on_c, 0, 69, 46
2, 49775, Control_c, 0, 64, 0
2, 49787, Note_on_c, 0, 69, 0
2, 49803, Note_on_c, 0, 66, 51
2, 49803, Note_on_c, 0, 63, 46
2, 49821, Note_on_c, 0, 63, 0
2, 49824, Note_on_c, 0, 54, 0
2, 49839, Note_on_c, 0, 66, 0
2, 49845, Note_on_c, 0, 65, 39
2, 49862, Note_on_c, 0, 65, 0
2, 49872, Note_on_c, 0, 59, 0
2, 49886, Note_on_c, 0, 58, 0
2, 49889, Control_c, 0, 64, 127
2, 49909, Control_c, 0, 64, 0
2, 49940, Note_on_c, 0, 66, 23
2, 49966, Note_on_c, 0, 66, 0
2, 49998, Control_c, 0, 64, 127
2, 50011, Note_on_c, 0, 46, 25
2, 50021, Control_c, 0, 64, 0
2, 50024, Note_on_c, 0, 46, 0
2, 50043, Note_on_c, 0, 55, 33
2, 50043, Note_on_c, 0, 63, 44
2, 50045, Note_on_c, 0, 58, 35
2, 50050, Note_on_c, 0, 67, 30
2, 50054, Control_c, 0, 64, 127
2, 50064, Note_on_c, 0, 67, 0
2, 50082, Note_on_c, 0, 58, 0
2, 50087, Note_on_c, 0, 63, 0
2, 50087, Note_on_c, 0, 55, 0
2, 50131, Note_on_c, 0, 63, 45
2, 50135, Note_on_c, 0, 58, 52
2, 50136, Note_on_c, 0, 55, 41
2, 50137, Note_on_c, 0, 46, 35
2, 50138, Control_c, 0, 64, 0
2, 50159, Note_on_c, 0, 55, 0
2, 50166, Note_on_c, 0, 58, 0
2, 50169, Control_c, 0, 64, 127
2, 50180, Note_on_c, 0, 63, 0
2, 50250, Note_on_c, 0, 58, 48
2, 50251, Note_on_c, 0, 63, 44
2, 50252, Note_on_c, 0, 67, 46
2, 50254, Note_on_c, 0, 55, 45
2, 50259, Control_c, 0, 64, 0
2, 50272, Note_on_c, 0, 55, 0
2, 50272, Note_on_c, 0, 46, 0
2, 50274, Note_on_c, 0, 58, 0
2, 50276, Control_c, 0, 64, 127
2, 50278, Note_on_c, 0, 67, 0
2, 50295, Note_on_c, 0, 63, 0
2, 50364, Note_on_c, 0, 66, 67
2, 50381, Note_on_c, 0, 66, 0
2, 50395, Note_on_c, 0, 67, 57
2, 50396, Control_c, 0, 64, 0
2, 50398, Note_on_c, 0, 63, 31
2, 50403, Note_on_c, 0, 62, 28
2, 50410, Note_on_c, 0, 57, 31
2, 50417, Note_on_c, 0, 67, 0
2, 50430, Note_on_c, 0, 70, 54
2, 50445, Note_on_c, 0, 70, 0
2, 50456, Note_on_c, 0, 71, 56
2, 50476, Note_on_c, 0, 71, 0
2, 50482, Note_on_c, 0, 73, 62
2, 50498, Note_on_c, 0, 73, 0
2, 50515, Note_on_c, 0, 74, 60
2, 50526, Note_on_c, 0, 74, 0
2, 50540, Note_on_c, 0, 62, 0
2, 50546, Note_on_c, 0, 63, 0
2, 50593, Note_on_c, 0, 78, 56
2, 50598, Note_on_c, 0, 67, 38
2, 50599, Note_on_c, 0, 63, 28
2, 50609, Note_on_c, 0, 78, 0
2, 50612, Note_on_c, 0, 67, 0
2, 50621, Note_on_c, 0, 79, 61
2, 50626, Note_on_c, 0, 63, 0
2, 50636, Note_on_c, 0, 79, 0
2, 50650, Note_on_c, 0, 82, 62
2, 50664, Note_on_c, 0, 82, 0
2, 50677, Note_on_c, 0, 63, 29
2, 50677, Note_on_c, 0, 62, 24
2, 50680, Note_on_c, 0, 83, 66
2, 50691, Note_on_c, 0, 62, 0
2, 50695, Note_on_c, 0, 83, 0
2, 50696, Note_on_c, 0, 63, 0
2, 50707, Note_on_c, 0, 85, 65
2, 50719, Note_on_c, 0, 85, 0
2, 50720, Control_c, 0, 64, 127
2, 50740, Note_on_c, 0, 86, 53
2, 50749, Note_on_c, 0, 86, 0
2, 50756, Note_on_c, 0, 63, 28
2, 50757, Note_on_c, 0, 62, 27
2, 50764, Control_c, 0, 64, 0
2, 50798, Note_on_c, 0, 95, 52
2, 50803, Control_c, 0, 64, 127
2, 50816, Note_on_c, 0, 62, 0
2, 50818, Note_on_c, 0, 95, 0
2, 50825, Note_on_c, 0, 98, 74
2, 50830, Note_on_c, 0, 63, 0
2, 50833, Note_on_c, 0, 57, 0
2, 50851, Note_on_c, 0, 98, 0
2, 50863, Note_on_c, 0, 95, 54
2, 50872, Note_on_c, 0, 95, 0
2, 50880, Control_c, 0, 64, 0
2, 50890, Note_on_c, 0, 96, 83
2, 50893, Note_on_c, 0, 67, 27
2, 50893, Note_on_c, 0, 63, 35
2, 50896, Note_on_c, 0, 56, 32
2, 50897, Note_on_c, 0, 60, 41
2, 50911, Note_on_c, 0, 67, 0
2, 50913, Note_on_c, 0, 96, 0
2, 50919, Note_on_c, 0, 60, 0
2, 50920, Note_on_c, 0, 63, 0
2, 50929, Note_on_c, 0, 92, 71
2, 50934, Note_on_c, 0, 63, 42
2, 50934, Note_on_c, 0, 67, 34
2, 50938, Note_on_c, 0, 60, 54
2, 50950, Control_c, 0, 64, 127
2, 50981, Note_on_c, 0, 67, 0
2, 50981, Note_on_c, 0, 56, 0
2, 50982, Note_on_c, 0, 60, 0
2, 50986, Note_on_c, 0, 63, 0
2, 50991, Note_on_c, 0, 92, 0
2, 50998, Control_c, 0, 64, 0
2, 51006, Note_on_c, 0, 63, 38
2, 51009, Note_on_c, 0, 91, 64
2, 51010, Note_on_c, 0, 56, 40
2, 51010, Note_on_c, 0, 60, 44
2, 51011, Note_on_c, 0, 67, 45
2, 51017, Control_c, 0, 64, 127
2, 51024, Note_on_c, 0, 67, 0
2, 51039, Note_on_c, 0, 60, 0
2, 51042, Note_on_c, 0, 63, 0
2, 51042, Note_on_c, 0, 91, 0
2, 51046, Note_on_c, 0, 92, 62
2, 51049, Note_on_c, 0, 63, 28
2, 51054, Note_on_c, 0, 67, 46
2, 51054, Note_on_c, 0, 60, 32
2, 51059, Control_c, 0, 64, 0
2, 51076, Control_c, 0, 64, 127
2, 51087, Note_on_c, 0, 67, 0
2, 51100, Note_on_c, 0, 56, 0
2, 51104, Note_on_c, 0, 92, 0
2, 51105, Note_on_c, 0, 63, 0
2, 51107, Note_on_c, 0, 60, 0
2, 51117, Control_c, 0, 64, 0
2, 51121, Note_on_c, 0, 89, 66
2, 51124, Note_on_c, 0, 62, 59
2, 51125, Note_on_c, 0, 66, 54
2, 51127, Note_on_c, 0, 56, 29
2, 51136, Control_c, 0, 64, 127
2, 51153, Note_on_c, 0, 66, 0
2, 51153, Note_on_c, 0, 89, 0
2, 51161, Note_on_c, 0, 56, 0
2, 51162, Note_on_c, 0, 62, 0
2, 51167, Note_on_c, 0, 89, 47
2, 51169, Note_on_c, 0, 66, 32
2, 51174, Note_on_c, 0, 56, 21
2, 51177, Note_on_c, 0, 62, 27
2, 51212, Note_on_c, 0, 62, 0
2, 51216, Note_on_c, 0, 66, 0
2, 51223, Note_on_c, 0, 56, 0
2, 51237, Note_on_c, 0, 89, 0
2, 51240, Note_on_c, 0, 66, 46
2, 51243, Control_c, 0, 64, 0
2, 51243, Note_on_c, 0, 86, 57
2, 51243, Note_on_c, 0, 56, 33
2, 51243, Note_on_c, 0, 62, 33
2, 51258, Note_on_c, 0, 62, 0
2, 51258, Note_on_c, 0, 66, 0
2, 51259, Note_on_c, 0, 56, 0
2, 51263, Note_on_c, 0, 86, 0
2, 51269, Control_c, 0, 64, 127
2, 51274, Note_on_c, 0, 66, 31
2, 51275, Note_on_c, 0, 87, 57
2, 51275, Note_on_c, 0, 56, 33
2, 51278, Note_on_c, 0, 62, 29
2, 51299, Note_on_c, 0, 66, 0
2, 51302, Note_on_c, 0, 62, 0
2, 51326, Note_on_c, 0, 56, 0
2, 51335, Note_on_c, 0, 87, 0
2, 51351, Control_c, 0, 64, 0
2, 51352, Note_on_c, 0, 87, 40
2, 51357, Note_on_c, 0, 62, 35
2, 51357, Note_on_c, 0, 65, 35
2, 51357, Note_on_c, 0, 55, 41
2, 51360, Note_on_c, 0, 60, 36
2, 51378, Control_c, 0, 64, 127
2, 51388, Note_on_c, 0, 65, 0
2, 51390, Note_on_c, 0, 60, 0
2, 51392, Note_on_c, 0, 62, 0
2, 51394, Note_on_c, 0, 55, 0
2, 51401, Note_on_c, 0, 79, 58
2, 51403, Note_on_c, 0, 55, 24
2, 51407, Note_on_c, 0, 62, 30
2, 51407, Note_on_c, 0, 65, 53
2, 51410, Note_on_c, 0, 60, 33
2, 51428, Note_on_c, 0, 65, 0
2, 51429, Note_on_c, 0, 79, 0
2, 51433, Note_on_c, 0, 60, 0
2, 51438, Note_on_c, 0, 62, 0
2, 51443, Note_on_c, 0, 55, 0
2, 51445, Note_on_c, 0, 87, 0
2, 51451, Control_c, 0, 64, 0
2, 51479, Control_c, 0, 64, 127
2, 51479, Note_on_c, 0, 62, 45
2, 51480, Note_on_c, 0, 65, 53
2, 51481, Note_on_c, 0, 79, 56
2, 51482, Note_on_c, 0, 55, 44
2, 51483, Note_on_c, 0, 60, 37
2, 51495, Note_on_c, 0, 65, 0
2, 51499, Note_on_c, 0, 62, 0
2, 51499, Note_on_c, 0, 79, 0
2, 51501, Note_on_c, 0, 60, 0
2, 51517, Note_on_c, 0, 55, 0
2, 51601, Control_c, 0, 64, 0
2, 51604, Note_on_c, 0, 61, 49
2, 51607, Note_on_c, 0, 59, 47
2, 51610, Note_on_c, 0, 53, 24
2, 51610, Note_on_c, 0, 43, 26
2, 51619, Control_c, 0, 64, 127
2, 51651, Note_on_c, 0, 59, 0
2, 51664, Note_on_c, 0, 53, 0
2, 51674, Note_on_c, 0, 61, 0
2, 51679, Note_on_c, 0, 43, 0
2, 51684, Note_on_c, 0, 59, 38
2, 51684, Note_on_c, 0, 62, 46
2, 51685, Note_on_c, 0, 50, 47
2, 51704, Note_on_c, 0, 59, 0
2, 51706, Note_on_c, 0, 50, 0
2, 51708, Note_on_c, 0, 62, 0
2, 51710, Control_c, 0, 64, 0
2, 51720, Note_on_c, 0, 59, 33
2, 51726, Note_on_c, 0, 47, 47
2, 51726, Control_c, 0, 64, 127
2, 51726, Note_on_c, 0, 65, 57
2, 51728, Note_on_c, 0, 62, 29
2, 51752, Note_on_c, 0, 59, 0
2, 51772, Note_on_c, 0, 62, 0
2, 51775, Note_on_c, 0, 65, 0
2, 51795, Note_on_c, 0, 47, 0
2, 51799, Control_c, 0, 64, 0
2, 51802, Note_on_c, 0, 63, 39
2, 51805, Note_on_c, 0, 60, 43
2, 51807, Note_on_c, 0, 48, 40
2, 51807, Note_on_c, 0, 55, 40
2, 51824, Note_on_c, 0, 55, 0
2, 51827, Control_c, 0, 64, 127
2, 51829, Note_on_c, 0, 48, 0
2, 51833, Note_on_c, 0, 60, 0
2, 51846, Note_on_c, 0, 63, 0
2, 51930, Note_on_c, 0, 63, 37
2, 51931, Note_on_c, 0, 75, 54
2, 51931, Note_on_c, 0, 87, 81
2, 51932, Note_on_c, 0, 62, 47
2, 51932, Note_on_c, 0, 82, 61
2, 51932, Note_on_c, 0, 58, 36
2, 51934, Note_on_c, 0, 67, 51
2, 51945, Control_c, 0, 64, 0
2, 51974, Control_c, 0, 64, 127
2, 52023, Note_on_c, 0, 62, 0
2, 52030, Note_on_c, 0, 67, 0
2, 52034, Note_on_c, 0, 63, 0
2, 52044, Note_on_c, 0, 58, 0
2, 52050, Note_on_c, 0, 87, 0
2, 52052, Note_on_c, 0, 75, 0
2, 52058, Note_on_c, 0, 82, 0
2, 52088, Note_on_c, 0, 60, 55
2, 52089, Note_on_c, 0, 61, 43
2, 52089, Note_on_c, 0, 65, 58
2, 52091, Note_on_c, 0, 87, 73
2, 52091, Note_on_c, 0, 82, 71
2, 52092, Note_on_c, 0, 75, 67
2, 52092, Control_c, 0, 64, 0
2, 52095, Note_on_c, 0, 55, 48
2, 52120, Control_c, 0, 64, 127
2, 52237, Note_on_c, 0, 55, 0
2, 52238, Note_on_c, 0, 82, 0
2, 52241, Note_on_c, 0, 87, 0
2, 52241, Note_on_c, 0, 75, 0
2, 52252, Note_on_c, 0, 60, 0
2, 52255, Note_on_c, 0, 65, 0
2, 52272, Note_on_c, 0, 74, 36
2, 52274, Note_on_c, 0, 86, 29
2, 52281, Note_on_c, 0, 74, 0
2, 52284, Note_on_c, 0, 86, 0
2, 52287, Note_on_c, 0, 61, 0
2, 52313, Note_on_c, 0, 87, 33
2, 52320, Note_on_c, 0, 87, 0
2, 52364, Note_on_c, 0, 68, 25
2, 52371, Note_on_c, 0, 68, 0
2, 52410, Note_on_c, 0, 56, 60
2, 52412, Note_on_c, 0, 67, 68
2, 52412, Note_on_c, 0, 60, 74
2, 52413, Note_on_c, 0, 64, 73
2, 52414, Note_on_c, 0, 55, 66
2, 52415, Note_on_c, 0, 53, 57
2, 52430, Control_c, 0, 64, 0
2, 52436, Note_on_c, 0, 60, 0
2, 52443, Note_on_c, 0, 64, 0
2, 52444, Note_on_c, 0, 55, 0
2, 52444, Note_on_c, 0, 56, 0
2, 52444, Note_on_c, 0, 53, 0
2, 52448, Note_on_c, 0, 67, 0
2, 52475, Control_c, 0, 64, 127
2, 52482, Note_on_c, 0, 67, 58
2, 52484, Note_on_c, 0, 56, 46
2, 52484, Note_on_c, 0, 64, 57
2, 52485, Note_on_c, 0, 60, 58
2, 52490, Note_on_c, 0, 55, 47
2, 52492, Note_on_c, 0, 53, 42
2, 52521, Note_on_c, 0, 55, 0
2, 52530, Note_on_c, 0, 64, 0
2, 52533, Note_on_c, 0, 60, 0
2, 52534, Note_on_c, 0, 53, 0
2, 52536, Note_on_c, 0, 56, 0
2, 52547, Note_on_c, 0, 67, 0
2, 52568, Note_on_c, 0, 67, 43
2, 52570, Note_on_c, 0, 63, 51
2, 52573, Note_on_c, 0, 53, 57
2, 52574, Note_on_c, 0, 59, 47
2, 52576, Control_c, 0, 64, 0
2, 52601, Control_c, 0, 64, 127
2, 52622, Note_on_c, 0, 67, 0
2, 52639, Note_on_c, 0, 63, 0
2, 52639, Note_on_c, 0, 59, 0
2, 52650, Note_on_c, 0, 53, 0
2, 52765, Note_on_c, 0, 62, 58
2, 52765, Note_on_c, 0, 56, 56
2, 52770, Note_on_c, 0, 59, 45
2, 52771, Note_on_c, 0, 47, 49
2, 52778, Note_on_c, 0, 59, 0
2, 52796, Note_on_c, 0, 56, 0
2, 52798, Note_on_c, 0, 62, 0
2, 52811, Note_on_c, 0, 47, 0
2, 52811, Control_c, 0, 64, 0
2, 52818, Note_on_c, 0, 55, 36
2, 52820, Note_on_c, 0, 48, 46
2, 52820, Note_on_c, 0, 63, 36
2, 52822, Note_on_c, 0, 60, 30
2, 52856, Control_c, 0, 64, 127
2, 52894, Note_on_c, 0, 36, 58
2, 52895, Note_on_c, 0, 48, 0
2, 52895, Note_on_c, 0, 55, 0
2, 52907, Note_on_c, 0, 36, 0
2, 52918, Note_on_c, 0, 60, 0
2, 52941, Note_on_c, 0, 63, 0
2, 53041, Note_on_c, 0, 72, 74
2, 53041, Note_on_c, 0, 65, 70
2, 53041, Note_on_c, 0, 68, 74
2, 53042, Note_on_c, 0, 61, 56
2, 53042, Note_on_c, 0, 56, 50
2, 53042, Note_on_c, 0, 75, 58
2, 53043, Note_on_c, 0, 60, 58
2, 53049, Note_on_c, 0, 75, 0
2, 53052, Control_c, 0, 64, 0
2, 53073, Control_c, 0, 64, 127
2, 53133, Note_on_c, 0, 77, 76
2, 53150, Control_c, 0, 64, 0
2, 53170, Control_c, 0, 64, 127
2, 53194, Note_on_c, 0, 77, 0
2, 53211, Note_on_c, 0, 65, 0
2, 53211, Note_on_c, 0, 68, 0
2, 53215, Note_on_c, 0, 60, 0
2, 53216, Note_on_c, 0, 72, 0
2, 53218, Note_on_c, 0, 61, 0
2, 53235, Note_on_c, 0, 56, 0
2, 53409, Note_on_c, 0, 79, 78
2, 53409, Note_on_c, 0, 77, 75
2, 53410, Note_on_c, 0, 61, 59
2, 53410, Note_on_c, 0, 66, 58
2, 53410, Note_on_c, 0, 72, 71
2, 53411, Note_on_c, 0, 69, 80
2, 53412, Note_on_c, 0, 55, 66
2, 53415, Control_c, 0, 64, 0
2, 53415, Note_on_c, 0, 75, 39
2, 53422, Note_on_c, 0, 75, 0
2, 53448, Control_c, 0, 64, 127
2, 53521, Note_on_c, 0, 66, 0
2, 53522, Note_on_c, 0, 55, 0
2, 53524, Note_on_c, 0, 79, 0
2, 53533, Note_on_c, 0, 69, 0
2, 53534, Note_on_c, 0, 77, 0
2, 53539, Note_on_c, 0, 72, 0
2, 53586, Note_on_c, 0, 61, 0
2, 53610, Note_on_c, 0, 65, 51
2, 53610, Note_on_c, 0, 70, 50
2, 53611, Note_on_c, 0, 74, 49
2, 53611, Note_on_c, 0, 60, 49
2, 53615, Note_on_c, 0, 54, 39
2, 53618, Control_c, 0, 64, 0
2, 53649, Control_c, 0, 64, 127
2, 53685, Note_on_c, 0, 70, 0
2, 53692, Note_on_c, 0, 74, 0
2, 53694, Note_on_c, 0, 60, 0
2, 53704, Note_on_c, 0, 65, 0
2, 53714, Note_on_c, 0, 54, 0
2, 53761, Note_on_c, 0, 65, 48
2, 53763, Note_on_c, 0, 62, 44
2, 53764, Note_on_c, 0, 67, 49
2, 53764, Note_on_c, 0, 58, 33
2, 53765, Note_on_c, 0, 55, 38
2, 53765, Note_on_c, 0, 70, 44
2, 53767, Note_on_c, 0, 57, 45
2, 53770, Control_c, 0, 64, 0
2, 53811, Control_c, 0, 64, 127
2, 53925, Note_on_c, 0, 65, 0
2, 53936, Note_on_c, 0, 62, 0
2, 53936, Note_on_c, 0, 67, 0
2, 53936, Note_on_c, 0, 70, 0
2, 53945, Note_on_c, 0, 57, 0
2, 53948, Note_on_c, 0, 55, 0
2, 53956, Note_on_c, 0, 58, 0
2, 53969, Note_on_c, 0, 70, 83
2, 53997, Note_on_c, 0, 70, 0
2, 54012, Note_on_c, 0, 70, 64
2, 54013, Control_c, 0, 64, 0
2, 54013, Note_on_c, 0, 58, 50
2, 54015, Note_on_c, 0, 62, 63
2, 54015, Note_on_c, 0, 67, 60
2, 54036, Control_c, 0, 64, 127
2, 54083, Note_on_c, 0, 62, 0
2, 54087, Note_on_c, 0, 67, 0
2, 54087, Note_on_c, 0, 58, 0
2, 54093, Note_on_c, 0, 57, 37
2, 54098, Note_on_c, 0, 70, 0
2, 54112, Control_c, 0, 64, 0
2, 54131, Control_c, 0, 64, 127
2, 54132, Note_on_c, 0, 57, 0
2, 54132, Note_on_c, 0, 67, 60
2, 54132, Note_on_c, 0, 58, 48
2, 54134, Note_on_c, 0, 70, 52
2, 54135, Note_on_c, 0, 62, 55
2, 54154, Note_on_c, 0, 62, 0
2, 54154, Note_on_c, 0, 58, 0
2, 54175, Note_on_c, 0, 67, 0
2, 54183, Note_on_c, 0, 70, 0
2, 54213, Note_on_c, 0, 61, 43
2, 54214, Note_on_c, 0, 55, 55
2, 54215, Note_on_c, 0, 69, 77
2, 54216, Note_on_c, 0, 72, 74
2, 54216, Note_on_c, 0, 65, 72
2, 54217, Control_c, 0, 64, 0
2, 54240, Control_c, 0, 64, 127
2, 54244, Note_on_c, 0, 65, 0
2, 54253, Note_on_c, 0, 69, 0
2, 54255, Note_on_c, 0, 72, 0
2, 54329, Note_on_c, 0, 77, 76
2, 54330, Note_on_c, 0, 84, 82
2, 54365, Note_on_c, 0, 84, 0
2, 54368, Note_on_c, 0, 77, 0
2, 54370, Note_on_c, 0, 55, 0
2, 54375, Note_on_c, 0, 81, 35
2, 54381, Note_on_c, 0, 72, 35
2, 54389, Note_on_c, 0, 61, 0
2, 54409, Note_on_c, 0, 72, 0
2, 54426, Note_on_c, 0, 81, 0
2, 54447, Note_on_c, 0, 58, 49
2, 54448, Note_on_c, 0, 54, 44
2, 54449, Note_on_c, 0, 65, 48
2, 54449, Note_on_c, 0, 60, 57
2, 54457, Control_c, 0, 64, 0
2, 54485, Control_c, 0, 64, 127
2, 54570, Note_on_c, 0, 82, 74
2, 54571, Note_on_c, 0, 89, 74
2, 54587, Control_c, 0, 64, 0
2, 54596, Note_on_c, 0, 89, 0
2, 54601, Control_c, 0, 64, 127
2, 54609, Note_on_c, 0, 65, 0
2, 54613, Note_on_c, 0, 77, 40
2, 54616, Note_on_c, 0, 60, 0
2, 54637, Note_on_c, 0, 77, 0
2, 54639, Note_on_c, 0, 54, 0
2, 54640, Note_on_c, 0, 82, 0
2, 54652, Note_on_c, 0, 58, 0
2, 54679, Note_on_c, 0, 62, 51
2, 54680, Note_on_c, 0, 57, 49
2, 54680, Note_on_c, 0, 58, 35
2, 54682, Note_on_c, 0, 55, 44
2, 54695, Control_c, 0, 64, 0
2, 54721, Control_c, 0, 64, 127
2, 54773, Note_on_c, 0, 93, 72
2, 54773, Note_on_c, 0, 81, 63
2, 54791, Note_on_c, 0, 93, 0
2, 54795, Note_on_c, 0, 81, 0
2, 54798, Note_on_c, 0, 57, 0
2, 54803, Note_on_c, 0, 62, 0
2, 54805, Note_on_c, 0, 58, 0
2, 54810, Note_on_c, 0, 89, 27
2, 54822, Control_c, 0, 64, 0
2, 54825, Note_on_c, 0, 89, 0
2, 54846, Note_on_c, 0, 93, 78
2, 54846, Note_on_c, 0, 57, 39
2, 54847, Note_on_c, 0, 58, 35
2, 54847, Note_on_c, 0, 81, 62
2, 54848, Control_c, 0, 64, 127
2, 54850, Note_on_c, 0, 62, 20
2, 54853, Note_on_c, 0, 86, 37
2, 54861, Note_on_c, 0, 86, 0
2, 54864, Note_on_c, 0, 55, 0
2, 54864, Note_on_c, 0, 62, 0
2, 54865, Note_on_c, 0, 57, 0
2, 54870, Note_on_c, 0, 58, 0
2, 54871, Note_on_c, 0, 81, 0
2, 54871, Note_on_c, 0, 93, 0
2, 54925, Note_on_c, 0, 58, 42
2, 54925, Note_on_c, 0, 62, 47
2, 54927, Note_on_c, 0, 81, 63
2, 54929, Control_c, 0, 64, 0
2, 54930, Note_on_c, 0, 89, 40
2, 54930, Note_on_c, 0, 93, 37
2, 54935, Note_on_c, 0, 62, 0
2, 54936, Note_on_c, 0, 81, 0
2, 54938, Note_on_c, 0, 93, 0
2, 54942, Note_on_c, 0, 89, 0
2, 54946, Note_on_c, 0, 58, 0
2, 54966, Control_c, 0, 64, 127
2, 54973, Note_on_c, 0, 63, 48
2, 54974, Note_on_c, 0, 58, 40
2, 54974, Note_on_c, 0, 87, 52
2, 54975, Note_on_c, 0, 92, 39
2, 54975, Note_on_c, 0, 56, 29
2, 54977, Note_on_c, 0, 80, 25
2, 54991, Note_on_c, 0, 90, 18
2, 55008, Note_on_c, 0, 92, 0
2, 55013, Note_on_c, 0, 56, 0
2, 55015, Note_on_c, 0, 63, 0
2, 55018, Note_on_c, 0, 87, 0
2, 55018, Note_on_c, 0, 58, 0
2, 55018, Note_on_c, 0, 90, 0
2, 55019, Note_on_c, 0, 80, 0
2, 55045, Note_on_c, 0, 94, 70
2, 55046, Note_on_c, 0, 82, 62
2, 55046, Note_on_c, 0, 63, 51
2, 55048, Note_on_c, 0, 58, 38
2, 55049, Note_on_c, 0, 87, 54
2, 55052, Note_on_c, 0, 56, 29
2, 55052, Note_on_c, 0, 52, 32
2, 55062, Note_on_c, 0, 56, 0
2, 55063, Note_on_c, 0, 63, 0
2, 55063, Note_on_c, 0, 52, 0
2, 55065, Note_on_c, 0, 87, 0
2, 55068, Note_on_c, 0, 58, 0
2, 55068, Note_on_c, 0, 94, 0
2, 55074, Note_on_c, 0, 82, 0
2, 55081, Control_c, 0, 64, 0
2, 55088, Control_c, 0, 64, 127
2, 55090, Note_on_c, 0, 63, 43
2, 55092, Note_on_c, 0, 92, 45
2, 55092, Note_on_c, 0, 58, 28
2, 55093, Note_on_c, 0, 80, 32
2, 55096, Note_on_c, 0, 87, 49
2, 55096, Note_on_c, 0, 52, 32
2, 55101, Note_on_c, 0, 56, 25
2, 55119, Note_on_c, 0, 52, 0
2, 55125, Note_on_c, 0, 56, 0
2, 55126, Note_on_c, 0, 87, 0
2, 55132, Note_on_c, 0, 92, 0
2, 55133, Note_on_c, 0, 80, 0
2, 55135, Note_on_c, 0, 58, 0
2, 55135, Note_on_c, 0, 63, 0
2, 55168, Note_on_c, 0, 63, 48
2, 55168, Note_on_c, 0, 56, 42
2, 55168, Note_on_c, 0, 53, 58
2, 55170, Note_on_c, 0, 87, 60
2, 55170, Note_on_c, 0, 79, 56
2, 55170, Note_on_c, 0, 60, 56
2, 55171, Note_on_c, 0, 91, 57
2, 55179, Control_c, 0, 64, 0
2, 55195, Control_c, 0, 64, 127
2, 55228, Note_on_c, 0, 91, 0
2, 55231, Note_on_c, 0, 53, 0
2, 55233, Note_on_c, 0, 79, 0
2, 55233, Note_on_c, 0, 56, 0
2, 55238, Note_on_c, 0, 60, 0
2, 55241, Note_on_c, 0, 63, 0
2, 55247, Note_on_c, 0, 87, 0
2, 55283, Note_on_c, 0, 92, 71
2, 55284, Note_on_c, 0, 87, 72
2, 55285, Note_on_c, 0, 80, 68
2, 55286, Note_on_c, 0, 63, 49
2, 55288, Note_on_c, 0, 60, 49
2, 55291, Note_on_c, 0, 53, 48
2, 55291, Note_on_c, 0, 56, 36
2, 55310, Note_on_c, 0, 63, 0
2, 55316, Note_on_c, 0, 80, 0
2, 55317, Note_on_c, 0, 87, 0
2, 55318, Note_on_c, 0, 60, 0
2, 55318, Note_on_c, 0, 92, 0
2, 55324, Control_c, 0, 64, 0
2, 55328, Control_c, 0, 64, 127
2, 55333, Note_on_c, 0, 63, 34
2, 55339, Note_on_c, 0, 91, 35
2, 55342, Note_on_c, 0, 86, 33
2, 55342, Note_on_c, 0, 79, 34
2, 55346, Note_on_c, 0, 53, 0
2, 55355, Note_on_c, 0, 86, 0
2, 55355, Note_on_c, 0, 91, 0
2, 55355, Note_on_c, 0, 56, 0
2, 55364, Note_on_c, 0, 79, 0
2, 55367, Note_on_c, 0, 63, 0
2, 55411, Note_on_c, 0, 90, 71
2, 55411, Note_on_c, 0, 66, 51
2, 55412, Note_on_c, 0, 78, 68
2, 55412, Note_on_c, 0, 62, 45
2, 55413, Note_on_c, 0, 56, 42
2, 55424, Control_c, 0, 64, 0
2, 55444, Control_c, 0, 64, 127
2, 55445, Note_on_c, 0, 66, 0
2, 55446, Note_on_c, 0, 56, 0
2, 55450, Note_on_c, 0, 78, 0
2, 55453, Note_on_c, 0, 62, 0
2, 55457, Note_on_c, 0, 90, 0
2, 55468, Note_on_c, 0, 66, 33
2, 55468, Note_on_c, 0, 89, 36
2, 55471, Note_on_c, 0, 77, 44
2, 55474, Note_on_c, 0, 62, 24
2, 55474, Note_on_c, 0, 56, 18
2, 55477, Note_on_c, 0, 89, 0
2, 55479, Note_on_c, 0, 77, 0
2, 55488, Note_on_c, 0, 66, 0
2, 55488, Note_on_c, 0, 62, 0
2, 55488, Note_on_c, 0, 56, 0
2, 55531, Note_on_c, 0, 66, 69
2, 55531, Note_on_c, 0, 86, 74
2, 55531, Note_on_c, 0, 62, 60
2, 55532, Note_on_c, 0, 56, 57
2, 55576, Note_on_c, 0, 86, 0
2, 55576, Control_c, 0, 64, 0
2, 55577, Control_c, 0, 64, 127
2, 55590, Note_on_c, 0, 81, 44
2, 55613, Note_on_c, 0, 62, 0
2, 55623, Note_on_c, 0, 66, 0
2, 55627, Note_on_c, 0, 81, 0
2, 55645, Note_on_c, 0, 56, 0
2, 55651, Note_on_c, 0, 78, 62
2, 55665, Note_on_c, 0, 55, 22
2, 55686, Note_on_c, 0, 78, 0
2, 55702, Note_on_c, 0, 65, 24
2, 55702, Control_c, 0, 64, 0
2, 55703, Note_on_c, 0, 60, 19
2, 55706, Note_on_c, 0, 77, 37
2, 55718, Note_on_c, 0, 65, 0
2, 55722, Note_on_c, 0, 60, 0
2, 55734, Note_on_c, 0, 55, 0
2, 55738, Control_c, 0, 64, 127
2, 55740, Note_on_c, 0, 77, 0
2, 55774, Note_on_c, 0, 61, 51
2, 55775, Note_on_c, 0, 65, 58
2, 55779, Note_on_c, 0, 55, 36
2, 55782, Note_on_c, 0, 65, 0
2, 55791, Control_c, 0, 64, 0
2, 55795, Note_on_c, 0, 55, 0
2, 55795, Note_on_c, 0, 61, 0
2, 55809, Control_c, 0, 64, 127
2, 55913, Control_c, 0, 64, 0
2, 55920, Note_on_c, 0, 54, 56
2, 55921, Note_on_c, 0, 64, 41
2, 55921, Note_on_c, 0, 59, 55
2, 55923, Note_on_c, 0, 85, 63
2, 55924, Note_on_c, 0, 73, 57
2, 55924, Note_on_c, 0, 80, 55
2, 55927, Note_on_c, 0, 62, 31
2, 55934, Note_on_c, 0, 62, 0
2, 55935, Control_c, 0, 64, 127
2, 55942, Note_on_c, 0, 64, 0
2, 55949, Note_on_c, 0, 59, 0
2, 55960, Note_on_c, 0, 54, 0
2, 55964, Note_on_c, 0, 80, 0
2, 55965, Note_on_c, 0, 73, 0
2, 55972, Note_on_c, 0, 85, 0
2, 56034, Control_c, 0, 64, 0
2, 56041, Note_on_c, 0, 55, 60
2, 56043, Note_on_c, 0, 60, 53
2, 56045, Note_on_c, 0, 86, 60
2, 56046, Note_on_c, 0, 81, 48
2, 56046, Note_on_c, 0, 74, 52
2, 56059, Control_c, 0, 64, 127
2, 56074, Note_on_c, 0, 55, 0
2, 56075, Note_on_c, 0, 60, 0
2, 56087, Note_on_c, 0, 74, 0
2, 56087, Note_on_c, 0, 86, 0
2, 56094, Note_on_c, 0, 81, 0
2, 56153, Control_c, 0, 64, 0
2, 56162, Note_on_c, 0, 87, 57
2, 56163, Note_on_c, 0, 65, 53
2, 56164, Note_on_c, 0, 61, 38
2, 56165, Note_on_c, 0, 75, 47
2, 56165, Note_on_c, 0, 60, 37
2, 56165, Note_on_c, 0, 80, 47
2, 56165, Note_on_c, 0, 56, 32
2, 56171, Note_on_c, 0, 84, 40
2, 56175, Control_c, 0, 64, 127
2, 56196, Note_on_c, 0, 84, 0
2, 56201, Note_on_c, 0, 80, 0
2, 56201, Note_on_c, 0, 87, 0
2, 56203, Note_on_c, 0, 75, 0
2, 56216, Note_on_c, 0, 65, 0
2, 56222, Note_on_c, 0, 61, 0
2, 56224, Note_on_c, 0, 56, 0
2, 56228, Note_on_c, 0, 60, 0
2, 56279, Note_on_c, 0, 82, 51
2, 56281, Control_c, 0, 64, 0
2, 56281, Note_on_c, 0, 61, 38
2, 56282, Note_on_c, 0, 65, 51
2, 56283, Note_on_c, 0, 75, 44
2, 56285, Note_on_c, 0, 70, 34
2, 56286, Note_on_c, 0, 56, 31
2, 56287, Control_c, 0, 64, 127
2, 56287, Note_on_c, 0, 60, 26
2, 56317, Note_on_c, 0, 60, 0
2, 56326, Note_on_c, 0, 61, 0
2, 56327, Note_on_c, 0, 65, 0
2, 56341, Note_on_c, 0, 56, 0
2, 56345, Note_on_c, 0, 70, 0
2, 56351, Note_on_c, 0, 75, 0
2, 56365, Note_on_c, 0, 82, 0
2, 56393, Control_c, 0, 64, 0
2, 56401, Note_on_c, 0, 55, 48
2, 56401, Note_on_c, 0, 82, 49
2, 56403, Note_on_c, 0, 64, 42
2, 56405, Note_on_c, 0, 61, 37
2, 56405, Note_on_c, 0, 70, 39
2, 56405, Note_on_c, 0, 76, 51
2, 56411, Control_c, 0, 64, 127
2, 56425, Note_on_c, 0, 64, 0
2, 56429, Note_on_c, 0, 76, 0
2, 56430, Note_on_c, 0, 82, 0
2, 56432, Note_on_c, 0, 61, 0
2, 56437, Note_on_c, 0, 55, 0
2, 56441, Note_on_c, 0, 70, 0
2, 56520, Note_on_c, 0, 70, 60
2, 56522, Note_on_c, 0, 61, 71
2, 56523, Control_c, 0, 64, 0
2, 56523, Note_on_c, 0, 64, 63
2, 56524, Note_on_c, 0, 67, 59
2, 56524, Note_on_c, 0, 45, 50
2, 56526, Note_on_c, 0, 55, 47
2, 56541, Control_c, 0, 64, 127
2, 56591, Note_on_c, 0, 67, 0
2, 56595, Note_on_c, 0, 64, 0
2, 56601, Note_on_c, 0, 70, 0
2, 56603, Note_on_c, 0, 61, 0
2, 56606, Note_on_c, 0, 45, 0
2, 56608, Note_on_c, 0, 55, 0
2, 56647, Control_c, 0, 64, 0
2, 56730, Note_on_c, 0, 51, 39
2, 56731, Note_on_c, 0, 58, 47
2, 56731, Note_on_c, 0, 44, 39
2, 56732, Note_on_c, 0, 54, 39
2, 56733, Note_on_c, 0, 61, 42
2, 56733, Note_on_c, 0, 65, 43
2, 56760, Note_on_c, 0, 54, 0
2, 56763, Note_on_c, 0, 58, 0
2, 56764, Note_on_c, 0, 51, 0
2, 56768, Note_on_c, 0, 44, 0
2, 56768, Note_on_c, 0, 65, 0
2, 56769, Note_on_c, 0, 61, 0
2, 56786, Control_c, 0, 64, 127
2, 56863, Control_c, 0, 64, 0
2, 56880, Control_c, 0, 64, 127
2, 56916, Control_c, 0, 64, 0
2, 56925, Note_on_c, 0, 82, 65
2, 56925, Note_on_c, 0, 65, 64
2, 56927, Note_on_c, 0, 72, 54
2, 56927, Note_on_c, 0, 60, 44
2, 56927, Note_on_c, 0, 77, 59
2, 56929, Note_on_c, 0, 58, 34
2, 56930, Note_on_c, 0, 54, 25
2, 56933, Note_on_c, 0, 65, 0
2, 56934, Note_on_c, 0, 77, 0
2, 56934, Note_on_c, 0, 72, 0
2, 56935, Note_on_c, 0, 60, 0
2, 56936, Note_on_c, 0, 58, 0
2, 56938, Note_on_c, 0, 54, 0
2, 56941, Note_on_c, 0, 82, 0
2, 56943, Control_c, 0, 64, 127
2, 56959, Note_on_c, 0, 54, 44
2, 56960, Note_on_c, 0, 65, 49
2, 56961, Note_on_c, 0, 60, 38
2, 56962, Note_on_c, 0, 82, 50
2, 56964, Note_on_c, 0, 72, 45
2, 56965, Note_on_c, 0, 77, 48
2, 56969, Note_on_c, 0, 65, 0
2, 56970, Note_on_c, 0, 60, 0
2, 56972, Note_on_c, 0, 77, 0
2, 56974, Note_on_c, 0, 72, 0
2, 56977, Note_on_c, 0, 82, 0
2, 56977, Note_on_c, 0, 54, 0
2, 56985, Control_c, 0, 64, 0
2, 57014, Note_on_c, 0, 78, 54
2, 57014, Note_on_c, 0, 69, 60
2, 57016, Note_on_c, 0, 74, 54
2, 57016, Note_on_c, 0, 54, 57
2, 57020, Note_on_c, 0, 65, 57
2, 57020, Note_on_c, 0, 60, 49
2, 57027, Note_on_c, 0, 65, 0
2, 57029, Note_on_c, 0, 69, 0
2, 57029, Note_on_c, 0, 60, 0
2, 57031, Note_on_c, 0, 74, 0
2, 57034, Note_on_c, 0, 54, 0
2, 57035, Note_on_c, 0, 78, 0
2, 57054, Note_on_c, 0, 78, 36
2, 57054, Note_on_c, 0, 69, 37
2, 57055, Note_on_c, 0, 74, 39
2, 57058, Note_on_c, 0, 54, 25
2, 57063, Note_on_c, 0, 69, 0
2, 57064, Note_on_c, 0, 74, 0
2, 57067, Note_on_c, 0, 54, 0
2, 57074, Note_on_c, 0, 78, 0
2, 57075, Control_c, 0, 64, 127
2, 57088, Control_c, 0, 64, 0
2, 57102, Note_on_c, 0, 78, 67
2, 57107, Note_on_c, 0, 82, 64
2, 57108, Note_on_c, 0, 54, 67
2, 57108, Note_on_c, 0, 65, 64
2, 57109, Note_on_c, 0, 72, 49
2, 57109, Note_on_c, 0, 60, 60
2, 57117, Note_on_c, 0, 72, 0
2, 57138, Note_on_c, 0, 72, 14
2, 57146, Note_on_c, 0, 78, 0
2, 57163, Note_on_c, 0, 65, 0
2, 57165, Note_on_c, 0, 72, 0
2, 57167, Note_on_c, 0, 82, 0
2, 57167, Note_on_c, 0, 54, 0
2, 57168, Note_on_c, 0, 60, 0
2, 57223, Note_on_c, 0, 82, 77
2, 57224, Note_on_c, 0, 54, 64
2, 57224, Note_on_c, 0, 72, 74
2, 57224, Note_on_c, 0, 60, 62
2, 57224, Note_on_c, 0, 65, 68
2, 57226, Note_on_c, 0, 77, 68
2, 57230, Note_on_c, 0, 78, 28
2, 57238, Note_on_c, 0, 78, 0
2, 57257, Control_c, 0, 64, 127
2, 57265, Note_on_c, 0, 77, 0
2, 57268, Note_on_c, 0, 82, 0
2, 57269, Note_on_c, 0, 65, 0
2, 57270, Note_on_c, 0, 72, 0
2, 57271, Control_c, 0, 64, 0
2, 57272, Note_on_c, 0, 60, 0
2, 57275, Note_on_c, 0, 54, 0
2, 57292, Note_on_c, 0, 69, 57
2, 57292, Note_on_c, 0, 78, 36
2, 57294, Note_on_c, 0, 60, 48
2, 57294, Note_on_c, 0, 54, 46
2, 57297, Note_on_c, 0, 74, 39
2, 57297, Note_on_c, 0, 65, 33
2, 57310, Note_on_c, 0, 65, 0
2, 57313, Note_on_c, 0, 69, 0
2, 57319, Note_on_c, 0, 74, 0
2, 57319, Note_on_c, 0, 60, 0
2, 57325, Control_c, 0, 64, 127
2, 57326, Note_on_c, 0, 78, 0
2, 57328, Note_on_c, 0, 54, 0
2, 57344, Control_c, 0, 64, 0
2, 57383, Note_on_c, 0, 78, 58
2, 57383, Note_on_c, 0, 65, 51
2, 57384, Note_on_c, 0, 54, 48
2, 57386, Note_on_c, 0, 69, 53
2, 57386, Note_on_c, 0, 60, 46
2, 57387, Note_on_c, 0, 74, 58
2, 57392, Control_c, 0, 64, 127
2, 57410, Note_on_c, 0, 69, 0
2, 57413, Note_on_c, 0, 65, 0
2, 57414, Note_on_c, 0, 74, 0
2, 57415, Note_on_c, 0, 60, 0
2, 57425, Note_on_c, 0, 54, 0
2, 57430, Note_on_c, 0, 78, 0
2, 57459, Note_on_c, 0, 55, 58
2, 57459, Note_on_c, 0, 80, 60
2, 57459, Note_on_c, 0, 70, 73
2, 57461, Note_on_c, 0, 75, 60
2, 57461, Note_on_c, 0, 66, 45
2, 57462, Note_on_c, 0, 61, 47
2, 57470, Note_on_c, 0, 66, 0
2, 57470, Note_on_c, 0, 55, 0
2, 57476, Control_c, 0, 64, 0
2, 57485, Note_on_c, 0, 70, 0
2, 57486, Note_on_c, 0, 75, 0
2, 57489, Note_on_c, 0, 80, 0
2, 57504, Control_c, 0, 64, 127
2, 57504, Note_on_c, 0, 64, 39
2, 57506, Note_on_c, 0, 54, 37
2, 57539, Note_on_c, 0, 64, 0
2, 57554, Note_on_c, 0, 54, 0
2, 57555, Note_on_c, 0, 61, 0
2, 57572, Note_on_c, 0, 60, 39
2, 57574, Note_on_c, 0, 63, 37
2, 57574, Note_on_c, 0, 78, 50
2, 57575, Note_on_c, 0, 74, 58
2, 57577, Note_on_c, 0, 69, 51
2, 57579, Note_on_c, 0, 57, 40
2, 57580, Control_c, 0, 64, 0
2, 57580, Note_on_c, 0, 53, 29
2, 57607, Control_c, 0, 64, 127
2, 57623, Note_on_c, 0, 74, 0
2, 57631, Note_on_c, 0, 78, 0
2, 57649, Note_on_c, 0, 69, 0
2, 57654, Note_on_c, 0, 63, 0
2, 57666, Note_on_c, 0, 57, 0
2, 57668, Note_on_c, 0, 60, 0
2, 57702, Note_on_c, 0, 53, 0
2, 57738, Note_on_c, 0, 53, 35
2, 57746, Control_c, 0, 64, 0
2, 57760, Note_on_c, 0, 53, 0
2, 57769, Note_on_c, 0, 54, 50
2, 57782, Note_on_c, 0, 54, 0
2, 57798, Note_on_c, 0, 57, 59
2, 57817, Note_on_c, 0, 57, 0
2, 57821, Note_on_c, 0, 61, 62
2, 57840, Control_c, 0, 64, 127
2, 57852, Note_on_c, 0, 63, 57
2, 57853, Note_on_c, 0, 61, 0
2, 57867, Note_on_c, 0, 63, 0
2, 57878, Note_on_c, 0, 65, 57
2, 57896, Note_on_c, 0, 65, 0
2, 57905, Note_on_c, 0, 66, 48
2, 57912, Note_on_c, 0, 66, 0
2, 57934, Note_on_c, 0, 69, 43
2, 57955, Note_on_c, 0, 69, 0
2, 57960, Control_c, 0, 64, 0
2, 57993, Control_c, 0, 64, 127
2, 57996, Note_on_c, 0, 75, 45
2, 58007, Note_on_c, 0, 75, 0
2, 58030, Note_on_c, 0, 77, 66
2, 58040, Note_on_c, 0, 77, 0
2, 58041, Control_c, 0, 64, 0
2, 58062, Note_on_c, 0, 78, 60
2, 58078, Note_on_c, 0, 78, 0
2, 58084, Control_c, 0, 64, 127
2, 58102, Note_on_c, 0, 63, 40
2, 58106, Note_on_c, 0, 81, 44
2, 58122, Note_on_c, 0, 81, 0
2, 58122, Note_on_c, 0, 63, 0
2, 58148, Control_c, 0, 64, 0
2, 58162, Control_c, 0, 64, 127
2, 58169, Note_on_c, 0, 82, 59
2, 58170, Note_on_c, 0, 63, 34
2, 58171, Note_on_c, 0, 67, 33
2, 58172, Note_on_c, 0, 57, 34
2, 58186, Note_on_c, 0, 57, 0
2, 58186, Note_on_c, 0, 67, 0
2, 58194, Note_on_c, 0, 63, 0
2, 58201, Note_on_c, 0, 82, 0
2, 58223, Note_on_c, 0, 85, 60
2, 58225, Note_on_c, 0, 63, 30
2, 58226, Note_on_c, 0, 67, 36
2, 58242, Note_on_c, 0, 67, 0
2, 58249, Note_on_c, 0, 63, 0
2, 58255, Note_on_c, 0, 85, 0
2, 58294, Note_on_c, 0, 63, 44
2, 58294, Note_on_c, 0, 67, 49
2, 58296, Note_on_c, 0, 87, 64
2, 58296, Note_on_c, 0, 57, 47
2, 58308, Note_on_c, 0, 57, 0
2, 58309, Note_on_c, 0, 67, 0
2, 58314, Note_on_c, 0, 63, 0
2, 58326, Note_on_c, 0, 87, 0
2, 58337, Control_c, 0, 64, 0
2, 58344, Note_on_c, 0, 63, 37
2, 58346, Note_on_c, 0, 67, 38
2, 58346, Note_on_c, 0, 57, 32
2, 58350, Note_on_c, 0, 85, 25
2, 58354, Control_c, 0, 64, 127
2, 58358, Note_on_c, 0, 67, 0
2, 58359, Note_on_c, 0, 57, 0
2, 58363, Note_on_c, 0, 85, 0
2, 58365, Note_on_c, 0, 63, 0
2, 58412, Note_on_c, 0, 84, 55
2, 58415, Note_on_c, 0, 63, 43
2, 58416, Note_on_c, 0, 57, 53
2, 58418, Note_on_c, 0, 67, 38
2, 58430, Note_on_c, 0, 67, 0
2, 58434, Control_c, 0, 64, 0
2, 58437, Note_on_c, 0, 57, 0
2, 58440, Note_on_c, 0, 63, 0
2, 58444, Note_on_c, 0, 84, 0
2, 58461, Control_c, 0, 64, 127
2, 58462, Note_on_c, 0, 63, 28
2, 58466, Note_on_c, 0, 57, 30
2, 58466, Note_on_c, 0, 82, 37
2, 58476, Note_on_c, 0, 57, 0
2, 58484, Note_on_c, 0, 63, 0
2, 58524, Note_on_c, 0, 63, 46
2, 58542, Note_on_c, 0, 63, 0
2, 58551, Note_on_c, 0, 82, 0
2, 58564, Control_c, 0, 64, 0
2, 58583, Control_c, 0, 64, 127
2, 58645, Note_on_c, 0, 62, 57
2, 58645, Note_on_c, 0, 66, 63
2, 58647, Note_on_c, 0, 90, 71
2, 58648, Note_on_c, 0, 56, 50
2, 58648, Note_on_c, 0, 82, 67
2, 58649, Note_on_c, 0, 85, 63
2, 58651, Note_on_c, 0, 78, 48
2, 58657, Control_c, 0, 64, 0
2, 58684, Note_on_c, 0, 82, 0
2, 58684, Control_c, 0, 64, 127
2, 58689, Note_on_c, 0, 85, 0
2, 58701, Note_on_c, 0, 90, 0
2, 58706, Note_on_c, 0, 82, 42
2, 58718, Note_on_c, 0, 78, 0
2, 58726, Note_on_c, 0, 62, 0
2, 58726, Note_on_c, 0, 82, 0
2, 58730, Note_on_c, 0, 66, 0
2, 58756, Note_on_c, 0, 56, 0
2, 58777, Note_on_c, 0, 61, 56
2, 58777, Note_on_c, 0, 65, 71
2, 58777, Note_on_c, 0, 77, 74
2, 58778, Note_on_c, 0, 89, 80
2, 58778, Note_on_c, 0, 60, 58
2, 58780, Note_on_c, 0, 84, 72
2, 58780, Note_on_c, 0, 55, 55
2, 58787, Control_c, 0, 64, 0
2, 58823, Control_c, 0, 64, 127
2, 58927, Note_on_c, 0, 60, 0
2, 58928, Note_on_c, 0, 65, 0
2, 58939, Note_on_c, 0, 84, 0
2, 58941, Note_on_c, 0, 55, 0
2, 58947, Note_on_c, 0, 61, 0
2, 58978, Note_on_c, 0, 77, 0
2, 58985, Note_on_c, 0, 89, 0
2, 59007, Note_on_c, 0, 54, 37
2, 59009, Note_on_c, 0, 65, 47
2, 59010, Note_on_c, 0, 60, 46
2, 59012, Note_on_c, 0, 82, 51
2, 59013, Note_on_c, 0, 58, 35
2, 59015, Note_on_c, 0, 77, 35
2, 59016, Control_c, 0, 64, 0
2, 59043, Control_c, 0, 64, 127
2, 59046, Note_on_c, 0, 77, 0
2, 59054, Note_on_c, 0, 82, 0
2, 59056, Note_on_c, 0, 65, 0
2, 59059, Note_on_c, 0, 60, 0
2, 59064, Note_on_c, 0, 58, 0
2, 59071, Note_on_c, 0, 54, 0
2, 59127, Note_on_c, 0, 54, 57
2, 59129, Note_on_c, 0, 60, 55
2, 59130, Note_on_c, 0, 65, 55
2, 59131, Note_on_c, 0, 58, 42
2, 59132, Note_on_c, 0, 98, 76
2, 59167, Note_on_c, 0, 98, 0
2, 59193, Note_on_c, 0, 94, 25
2, 59198, Note_on_c, 0, 65, 0
2, 59200, Note_on_c, 0, 60, 0
2, 59234, Note_on_c, 0, 94, 0
2, 59237, Note_on_c, 0, 58, 0
2, 59238, Note_on_c, 0, 54, 0
2, 59252, Note_on_c, 0, 95, 77
2, 59253, Note_on_c, 0, 64, 53
2, 59254, Note_on_c, 0, 53, 53
2, 59259, Note_on_c, 0, 59, 45
2, 59262, Control_c, 0, 64, 0
2, 59281, Note_on_c, 0, 95, 0
2, 59303, Note_on_c, 0, 64, 0
2, 59312, Note_on_c, 0, 94, 35
2, 59320, Note_on_c, 0, 53, 0
2, 59322, Note_on_c, 0, 94, 0
2, 59330, Note_on_c, 0, 95, 61
2, 59354, Note_on_c, 0, 94, 49
2, 59358, Note_on_c, 0, 95, 0
2, 59376, Note_on_c, 0, 59, 0
2, 59385, Note_on_c, 0, 92, 55
2, 59402, Note_on_c, 0, 94, 0
2, 59408, Note_on_c, 0, 63, 27
2, 59408, Note_on_c, 0, 53, 31
2, 59411, Note_on_c, 0, 59, 19
2, 59413, Note_on_c, 0, 56, 25
2, 59415, Note_on_c, 0, 92, 0
2, 59421, Note_on_c, 0, 91, 48
2, 59432, Note_on_c, 0, 59, 0
2, 59437, Note_on_c, 0, 53, 0
2, 59452, Note_on_c, 0, 63, 0
2, 59467, Note_on_c, 0, 56, 0
2, 59472, Note_on_c, 0, 91, 0
2, 59487, Note_on_c, 0, 58, 28
2, 59489, Note_on_c, 0, 51, 36
2, 59490, Note_on_c, 0, 62, 20
2, 59491, Note_on_c, 0, 55, 38
2, 59498, Note_on_c, 0, 89, 27
2, 59503, Note_on_c, 0, 88, 20
2, 59516, Note_on_c, 0, 88, 0
2, 59517, Note_on_c, 0, 89, 0
2, 59539, Note_on_c, 0, 87, 58
2, 59552, Note_on_c, 0, 62, 0
2, 59570, Note_on_c, 0, 87, 0
2, 59570, Note_on_c, 0, 58, 0
2, 59578, Note_on_c, 0, 89, 54
2, 59604, Note_on_c, 0, 87, 36
2, 59608, Note_on_c, 0, 89, 0
2, 59624, Note_on_c, 0, 87, 0
2, 59628, Note_on_c, 0, 86, 63
2, 59637, Note_on_c, 0, 58, 15
2, 59640, Note_on_c, 0, 86, 0
2, 59651, Note_on_c, 0, 62, 11
2, 59660, Note_on_c, 0, 55, 0
2, 59662, Note_on_c, 0, 51, 0
2, 59662, Note_on_c, 0, 87, 71
2, 59675, Note_on_c, 0, 58, 0
2, 59713, Note_on_c, 0, 62, 0
2, 59719, Note_on_c, 0, 87, 0
2, 59727, Note_on_c, 0, 88, 65
2, 59736, Note_on_c, 0, 61, 45
2, 59736, Note_on_c, 0, 55, 46
2, 59743, Note_on_c, 0, 88, 0
2, 59783, Note_on_c, 0, 93, 57
2, 59793, Note_on_c, 0, 55, 0
2, 59801, Note_on_c, 0, 94, 61
2, 59802, Note_on_c, 0, 93, 0
2, 59825, Note_on_c, 0, 61, 0
2, 59826, Note_on_c, 0, 93, 60
2, 59833, Note_on_c, 0, 94, 0
2, 59847, Note_on_c, 0, 93, 0
2, 59851, Note_on_c, 0, 91, 66
2, 59862, Note_on_c, 0, 61, 37
2, 59867, Note_on_c, 0, 55, 24
2, 59869, Note_on_c, 0, 91, 0
2, 59875, Note_on_c, 0, 55, 0
2, 59885, Note_on_c, 0, 90, 51
2, 59911, Note_on_c, 0, 90, 0
2, 59912, Note_on_c, 0, 91, 62
2, 59916, Note_on_c, 0, 61, 0
2, 59937, Note_on_c, 0, 90, 43
2, 59941, Note_on_c, 0, 91, 0
2, 59963, Note_on_c, 0, 90, 0
2, 59965, Note_on_c, 0, 88, 61
2, 59984, Note_on_c, 0, 88, 0
2, 59998, Note_on_c, 0, 65, 34
2, 60000, Note_on_c, 0, 87, 59
2, 60005, Note_on_c, 0, 60, 31
2, 60005, Note_on_c, 0, 54, 15
2, 60014, Note_on_c, 0, 65, 0
2, 60021, Note_on_c, 0, 60, 0
2, 60035, Note_on_c, 0, 54, 0
2, 60036, Note_on_c, 0, 87, 0
2, 60041, Note_on_c, 0, 85, 55
2, 60065, Note_on_c, 0, 85, 0
2, 60101, Note_on_c, 0, 84, 78
2, 60103, Note_on_c, 0, 60, 43
2, 60103, Note_on_c, 0, 56, 37
2, 60103, Note_on_c, 0, 50, 39
2, 60114, Note_on_c, 0, 50, 0
2, 60121, Note_on_c, 0, 60, 0
2, 60122, Note_on_c, 0, 56, 0
2, 60122, Note_on_c, 0, 84, 0
2, 60149, Note_on_c, 0, 65, 69
2, 60150, Note_on_c, 0, 54, 59
2, 60150, Note_on_c, 0, 86, 78
2, 60150, Note_on_c, 0, 60, 55
2, 60188, Note_on_c, 0, 65, 0
2, 60194, Note_on_c, 0, 86, 0
2, 60213, Note_on_c, 0, 65, 26
2, 60213, Note_on_c, 0, 87, 76
2, 60226, Note_on_c, 0, 65, 0
2, 60232, Note_on_c, 0, 60, 0
2, 60239, Note_on_c, 0, 87, 0
2, 60246, Note_on_c, 0, 54, 0
2, 60254, Note_on_c, 0, 64, 28
2, 60257, Note_on_c, 0, 86, 65
2, 60257, Note_on_c, 0, 53, 34
2, 60264, Note_on_c, 0, 59, 22
2, 60282, Note_on_c, 0, 86, 0
2, 60297, Note_on_c, 0, 64, 0
2, 60305, Note_on_c, 0, 59, 0
2, 60324, Note_on_c, 0, 83, 68
2, 60326, Note_on_c, 0, 64, 54
2, 60327, Note_on_c, 0, 59, 37
2, 60357, Note_on_c, 0, 83, 0
2, 60373, Note_on_c, 0, 79, 47
2, 60375, Note_on_c, 0, 59, 0
2, 60376, Note_on_c, 0, 64, 0
2, 60380, Note_on_c, 0, 53, 0
2, 60401, Note_on_c, 0, 79, 0
2, 60410, Note_on_c, 0, 77, 55
2, 60428, Note_on_c, 0, 77, 0
2, 60446, Note_on_c, 0, 51, 42
2, 60447, Note_on_c, 0, 62, 38
2, 60448, Note_on_c, 0, 75, 55
2, 60456, Note_on_c, 0, 62, 0
2, 60463, Note_on_c, 0, 51, 0
2, 60480, Note_on_c, 0, 75, 0
2, 60494, Note_on_c, 0, 74, 50
2, 60519, Note_on_c, 0, 74, 0
2, 60529, Note_on_c, 0, 77, 78
2, 60555, Note_on_c, 0, 77, 0
2, 60564, Note_on_c, 0, 55, 33
2, 60566, Note_on_c, 0, 48, 35
2, 60569, Note_on_c, 0, 75, 59
2, 60573, Note_on_c, 0, 55, 0
2, 60574, Note_on_c, 0, 48, 0
2, 60602, Note_on_c, 0, 75, 0
2, 60612, Note_on_c, 0, 74, 50
2, 60633, Note_on_c, 0, 74, 0
2, 60648, Note_on_c, 0, 67, 44
2, 60678, Note_on_c, 0, 67, 0
2, 60710, Note_on_c, 0, 67, 52
2, 60727, Note_on_c, 0, 67, 0
2, 60765, Note_on_c, 0, 67, 43
2, 60785, Control_c, 0, 64, 127
2, 60792, Note_on_c, 0, 67, 0
2, 60832, Control_c, 0, 64, 0
2, 60840, Note_on_c, 0, 61, 36
2, 60842, Note_on_c, 0, 65, 26
2, 60843, Note_on_c, 0, 60, 34
2, 60845, Note_on_c, 0, 67, 39
2, 60864, Control_c, 0, 64, 127
2, 60941, Note_on_c, 0, 60, 0
2, 60947, Note_on_c, 0, 65, 0
2, 60975, Note_on_c, 0, 67, 0
2, 60976, Note_on_c, 0, 61, 0
2, 61079, Control_c, 0, 64, 0
2, 61086, Note_on_c, 0, 61, 42
2, 61087, Note_on_c, 0, 79, 60
2, 61089, Note_on_c, 0, 60, 26
2, 61089, Note_on_c, 0, 72, 41
2, 61090, Note_on_c, 0, 65, 57
2, 61092, Note_on_c, 0, 55, 45
2, 61092, Note_on_c, 0, 67, 54
2, 61105, Control_c, 0, 64, 127
2, 61127, Note_on_c, 0, 72, 0
2, 61129, Note_on_c, 0, 67, 0
2, 61134, Note_on_c, 0, 65, 0
2, 61134, Note_on_c, 0, 60, 0
2, 61137, Note_on_c, 0, 79, 0
2, 61146, Note_on_c, 0, 55, 0
2, 61148, Note_on_c, 0, 61, 0
2, 61201, Control_c, 0, 64, 0
2, 61206, Note_on_c, 0, 80, 56
2, 61206, Note_on_c, 0, 65, 46
2, 61207, Note_on_c, 0, 54, 39
2, 61208, Note_on_c, 0, 58, 31
2, 61208, Note_on_c, 0, 75, 55
2, 61209, Note_on_c, 0, 60, 40
2, 61213, Note_on_c, 0, 68, 40
2, 61225, Control_c, 0, 64, 127
2, 61253, Note_on_c, 0, 68, 0
2, 61259, Note_on_c, 0, 65, 0
2, 61259, Note_on_c, 0, 58, 0
2, 61260, Note_on_c, 0, 60, 0
2, 61263, Note_on_c, 0, 80, 0
2, 61268, Note_on_c, 0, 54, 0
2, 61270, Note_on_c, 0, 75, 0
2, 61295, Note_on_c, 0, 54, 48
2, 61296, Note_on_c, 0, 75, 59
2, 61296, Note_on_c, 0, 65, 41
2, 61297, Note_on_c, 0, 70, 54
2, 61297, Note_on_c, 0, 82, 59
2, 61297, Note_on_c, 0, 58, 38
2, 61298, Note_on_c, 0, 60, 48
2, 61311, Note_on_c, 0, 65, 0
2, 61312, Note_on_c, 0, 75, 0
2, 61315, Note_on_c, 0, 70, 0
2, 61317, Note_on_c, 0, 60, 0
2, 61320, Note_on_c, 0, 58, 0
2, 61320, Note_on_c, 0, 82, 0
2, 61321, Note_on_c, 0, 54, 0
2, 61321, Control_c, 0, 64, 0
2, 61334, Note_on_c, 0, 54, 29
2, 61338, Note_on_c, 0, 65, 42
2, 61340, Control_c, 0, 64, 127
2, 61340, Note_on_c, 0, 58, 37
2, 61341, Note_on_c, 0, 86, 41
2, 61341, Note_on_c, 0, 84, 37
2, 61341, Note_on_c, 0, 60, 53
2, 61351, Note_on_c, 0, 86, 0
2, 61351, Note_on_c, 0, 72, 15
2, 61363, Note_on_c, 0, 65, 0
2, 61365, Note_on_c, 0, 60, 0
2, 61367, Note_on_c, 0, 84, 0
2, 61381, Note_on_c, 0, 72, 0
2, 61392, Note_on_c, 0, 54, 0
2, 61395, Note_on_c, 0, 58, 0
2, 61416, Note_on_c, 0, 58, 25
2, 61416, Note_on_c, 0, 62, 42
2, 61418, Note_on_c, 0, 57, 38
2, 61419, Note_on_c, 0, 82, 53
2, 61423, Note_on_c, 0, 70, 38
2, 61428, Note_on_c, 0, 55, 24
2, 61430, Control_c, 0, 64, 0
2, 61455, Control_c, 0, 64, 127
2, 61474, Note_on_c, 0, 82, 0
2, 61482, Note_on_c, 0, 70, 0
2, 61492, Note_on_c, 0, 55, 0
2, 61494, Note_on_c, 0, 57, 0
2, 61496, Note_on_c, 0, 62, 0
2, 61506, Note_on_c, 0, 58, 0
2, 61539, Note_on_c, 0, 79, 32
2, 61540, Note_on_c, 0, 62, 28
2, 61540, Note_on_c, 0, 67, 30
2, 61540, Note_on_c, 0, 74, 35
2, 61545, Note_on_c, 0, 58, 25
2, 61546, Note_on_c, 0, 57, 32
2, 61546, Note_on_c, 0, 55, 33
2, 61560, Control_c, 0, 64, 0
2, 61573, Control_c, 0, 64, 127
2, 61579, Note_on_c, 0, 79, 0
2, 61582, Note_on_c, 0, 74, 0
2, 61587, Note_on_c, 0, 62, 0
2, 61588, Note_on_c, 0, 57, 0
2, 61594, Note_on_c, 0, 58, 0
2, 61600, Note_on_c, 0, 67, 0
2, 61608, Note_on_c, 0, 55, 0
2, 61673, Note_on_c, 0, 56, 25
2, 61677, Note_on_c, 0, 57, 53
2, 61684, Note_on_c, 0, 56, 0
2, 61685, Note_on_c, 0, 57, 0
2, 61687, Note_on_c, 0, 65, 54
2, 61687, Note_on_c, 0, 70, 57
2, 61688, Note_on_c, 0, 62, 51
2, 61689, Note_on_c, 0, 67, 46
2, 61691, Note_on_c, 0, 58, 52
2, 61697, Control_c, 0, 64, 0
2, 61747, Control_c, 0, 64, 127
2, 61783, Control_c, 0, 64, 0
2, 61784, Note_on_c, 0, 62, 0
2, 61787, Note_on_c, 0, 65, 0
2, 61790, Note_on_c, 0, 70, 0
2, 61790, Note_on_c, 0, 67, 0
2, 61805, Note_on_c, 0, 58, 0
2, 61810, Note_on_c, 0, 69, 50
2, 61811, Note_on_c, 0, 57, 41
2, 61812, Note_on_c, 0, 62, 29
2, 61813, Control_c, 0, 64, 127
2, 61826, Note_on_c, 0, 62, 0
2, 61842, Note_on_c, 0, 69, 0
2, 61868, Note_on_c, 0, 57, 0
2, 61885, Note_on_c, 0, 58, 50
2, 61898, Note_on_c, 0, 58, 0
2, 62052, Note_on_c, 0, 63, 39
2, 62052, Note_on_c, 0, 72, 70
2, 62053, Note_on_c, 0, 62, 44
2, 62054, Note_on_c, 0, 65, 76
2, 62056, Note_on_c, 0, 57, 46
2, 62056, Control_c, 0, 64, 0
2, 62056, Note_on_c, 0, 69, 60
2, 62056, Note_on_c, 0, 67, 62
2, 62064, Note_on_c, 0, 67, 0
2, 62073, Note_on_c, 0, 67, 17
2, 62086, Control_c, 0, 64, 127
2, 62094, Note_on_c, 0, 62, 0
2, 62099, Note_on_c, 0, 67, 0
2, 62100, Note_on_c, 0, 63, 0
2, 62104, Note_on_c, 0, 65, 0
2, 62105, Note_on_c, 0, 57, 0
2, 62108, Note_on_c, 0, 69, 0
2, 62125, Note_on_c, 0, 72, 0
2, 62151, Note_on_c, 0, 72, 67
2, 62151, Note_on_c, 0, 68, 71
2, 62152, Note_on_c, 0, 64, 73
2, 62156, Note_on_c, 0, 60, 54
2, 62156, Note_on_c, 0, 54, 50
2, 62165, Control_c, 0, 64, 0
2, 62233, Control_c, 0, 64, 127
2, 62301, Note_on_c, 0, 60, 0
2, 62317, Note_on_c, 0, 64, 0
2, 62320, Note_on_c, 0, 68, 0
2, 62322, Note_on_c, 0, 54, 0
2, 62378, Note_on_c, 0, 72, 0
2, 62403, Note_on_c, 0, 70, 42
2, 62404, Control_c, 0, 64, 0
2, 62406, Note_on_c, 0, 62, 28
2, 62407, Note_on_c, 0, 67, 41
2, 62408, Note_on_c, 0, 57, 30
2, 62409, Note_on_c, 0, 58, 25
2, 62409, Note_on_c, 0, 55, 34
2, 62427, Control_c, 0, 64, 127
2, 62434, Note_on_c, 0, 67, 0
2, 62437, Note_on_c, 0, 57, 0
2, 62443, Note_on_c, 0, 70, 0
2, 62445, Note_on_c, 0, 58, 0
2, 62451, Note_on_c, 0, 62, 0
2, 62453, Note_on_c, 0, 55, 0
2, 62526, Note_on_c, 0, 70, 55
2, 62526, Control_c, 0, 64, 0
2, 62528, Note_on_c, 0, 62, 51
2, 62528, Note_on_c, 0, 65, 55
2, 62529, Note_on_c, 0, 58, 50
2, 62529, Note_on_c, 0, 67, 46
2, 62532, Note_on_c, 0, 66, 32
2, 62542, Control_c, 0, 64, 127
2, 62554, Note_on_c, 0, 62, 0
2, 62556, Note_on_c, 0, 66, 0
2, 62557, Note_on_c, 0, 65, 0
2, 62560, Note_on_c, 0, 67, 0
2, 62560, Note_on_c, 0, 58, 0
2, 62569, Note_on_c, 0, 70, 0
2, 62647, Control_c, 0, 64, 0
2, 62648, Note_on_c, 0, 75, 69
2, 62650, Note_on_c, 0, 72, 72
2, 62650, Note_on_c, 0, 68, 78
2, 62651, Note_on_c, 0, 63, 83
2, 62652, Note_on_c, 0, 64, 78
2, 62699, Control_c, 0, 64, 127
2, 62755, Note_on_c, 0, 64, 0
2, 62755, Note_on_c, 0, 68, 0
2, 62758, Note_on_c, 0, 72, 0
2, 62764, Note_on_c, 0, 75, 0
2, 62767, Control_c, 0, 64, 0
2, 62773, Note_on_c, 0, 68, 49
2, 62773, Note_on_c, 0, 73, 48
2, 62774, Note_on_c, 0, 64, 61
2, 62776, Note_on_c, 0, 61, 50
2, 62777, Control_c, 0, 64, 127
2, 62779, Note_on_c, 0, 63, 0
2, 62812, Note_on_c, 0, 61, 0
2, 62813, Note_on_c, 0, 73, 0
2, 62816, Note_on_c, 0, 68, 0
2, 62826, Note_on_c, 0, 64, 0
2, 62887, Control_c, 0, 64, 0
2, 62887, Note_on_c, 0, 63, 71
2, 62888, Note_on_c, 0, 70, 71
2, 62888, Note_on_c, 0, 67, 66
2, 62889, Note_on_c, 0, 60, 72
2, 62889, Note_on_c, 0, 58, 69
2, 62936, Control_c, 0, 64, 127
2, 62980, Note_on_c, 0, 67, 0
2, 62985, Note_on_c, 0, 63, 0
2, 62987, Note_on_c, 0, 70, 0
2, 62990, Note_on_c, 0, 60, 0
2, 63005, Note_on_c, 0, 58, 0
2, 63009, Control_c, 0, 64, 0
2, 63009, Note_on_c, 0, 68, 52
2, 63009, Note_on_c, 0, 60, 38
2, 63010, Note_on_c, 0, 63, 46
2, 63010, Note_on_c, 0, 56, 52
2, 63028, Control_c, 0, 64, 127
2, 63051, Note_on_c, 0, 56, 0
2, 63054, Note_on_c, 0, 60, 0
2, 63064, Note_on_c, 0, 63, 0
2, 63066, Note_on_c, 0, 68, 0
2, 63133, Note_on_c, 0, 71, 75
2, 63135, Note_on_c, 0, 62, 78
2, 63135, Note_on_c, 0, 67, 75
2, 63135, Note_on_c, 0, 59, 71
2, 63142, Control_c, 0, 64, 0
2, 63178, Control_c, 0, 64, 127
2, 63200, Note_on_c, 0, 62, 0
2, 63208, Note_on_c, 0, 71, 0
2, 63208, Note_on_c, 0, 67, 0
2, 63246, Note_on_c, 0, 59, 0
2, 63254, Note_on_c, 0, 74, 57
2, 63254, Control_c, 0, 64, 0
2, 63255, Note_on_c, 0, 62, 52
2, 63255, Note_on_c, 0, 67, 47
2, 63257, Note_on_c, 0, 71, 52
2, 63258, Note_on_c, 0, 56, 49
2, 63281, Control_c, 0, 64, 127
2, 63307, Note_on_c, 0, 62, 0
2, 63312, Note_on_c, 0, 71, 0
2, 63313, Note_on_c, 0, 67, 0
2, 63314, Note_on_c, 0, 56, 0
2, 63316, Note_on_c, 0, 74, 0
2, 63377, Control_c, 0, 64, 0
2, 63382, Control_c, 0, 64, 127
2, 63445, Note_on_c, 0, 75, 72
2, 63447, Note_on_c, 0, 63, 62
2, 63447, Note_on_c, 0, 68, 77
2, 63448, Note_on_c, 0, 72, 74
2, 63449, Note_on_c, 0, 65, 73
2, 63454, Control_c, 0, 64, 0
2, 63482, Note_on_c, 0, 65, 0
2, 63483, Note_on_c, 0, 75, 0
2, 63484, Note_on_c, 0, 63, 0
2, 63485, Note_on_c, 0, 68, 0
2, 63488, Note_on_c, 0, 72, 0
2, 63522, Note_on_c, 0, 75, 65
2, 63524, Note_on_c, 0, 68, 62
2, 63524, Note_on_c, 0, 72, 63
2, 63524, Note_on_c, 0, 65, 66
2, 63526, Note_on_c, 0, 63, 67
2, 63540, Control_c, 0, 64, 127
2, 63567, Note_on_c, 0, 72, 0
2, 63567, Note_on_c, 0, 68, 0
2, 63569, Note_on_c, 0, 65, 0
2, 63576, Note_on_c, 0, 63, 0
2, 63576, Note_on_c, 0, 75, 0
2, 63617, Control_c, 0, 64, 0
2, 63638, Control_c, 0, 64, 127
2, 63805, Note_on_c, 0, 75, 65
2, 63806, Note_on_c, 0, 61, 67
2, 63806, Note_on_c, 0, 68, 67
2, 63806, Control_c, 0, 64, 0
2, 63806, Note_on_c, 0, 65, 65
2, 63810, Note_on_c, 0, 72, 51
2, 63828, Note_on_c, 0, 61, 0
2, 63829, Control_c, 0, 64, 127
2, 63834, Note_on_c, 0, 65, 0
2, 63834, Note_on_c, 0, 72, 0
2, 63842, Note_on_c, 0, 68, 0
2, 63842, Note_on_c, 0, 75, 0
2, 63879, Note_on_c, 0, 75, 74
2, 63880, Note_on_c, 0, 64, 74
2, 63880, Note_on_c, 0, 70, 69
2, 63880, Note_on_c, 0, 63, 61
2, 63882, Note_on_c, 0, 67, 69
2, 63884, Control_c, 0, 64, 0
2, 63918, Control_c, 0, 64, 127
2, 63949, Note_on_c, 0, 67, 0
2, 63951, Note_on_c, 0, 70, 0
2, 63951, Note_on_c, 0, 64, 0
2, 63960, Note_on_c, 0, 75, 0
2, 63962, Note_on_c, 0, 63, 0
2, 63972, Note_on_c, 0, 64, 59
2, 63975, Note_on_c, 0, 73, 43
2, 63975, Note_on_c, 0, 70, 35
2, 63976, Note_on_c, 0, 61, 53
2, 63985, Note_on_c, 0, 70, 0
2, 63990, Note_on_c, 0, 73, 0
2, 64001, Note_on_c, 0, 64, 0
2, 64023, Note_on_c, 0, 61, 0
2, 64053, Note_on_c, 0, 72, 55
2, 64053, Note_on_c, 0, 64, 62
2, 64053, Note_on_c, 0, 61, 52
2, 64055, Control_c, 0, 64, 0
2, 64056, Note_on_c, 0, 60, 49
2, 64060, Note_on_c, 0, 67, 30
2, 64089, Control_c, 0, 64, 127
2, 64113, Note_on_c, 0, 67, 0
2, 64120, Note_on_c, 0, 61, 0
2, 64122, Note_on_c, 0, 64, 0
2, 64137, Note_on_c, 0, 72, 0
2, 64150, Note_on_c, 0, 60, 0
2, 64170, Note_on_c, 0, 70, 46
2, 64171, Note_on_c, 0, 61, 55
2, 64174, Note_on_c, 0, 64, 48
2, 64174, Note_on_c, 0, 58, 39
2, 64177, Note_on_c, 0, 67, 34
2, 64183, Control_c, 0, 64, 0
2, 64210, Control_c, 0, 64, 127
2, 64217, Note_on_c, 0, 67, 0
2, 64222, Note_on_c, 0, 64, 0
2, 64222, Note_on_c, 0, 58, 0
2, 64223, Note_on_c, 0, 70, 0
2, 64242, Note_on_c, 0, 61, 0
2, 64318, Note_on_c, 0, 68, 44
2, 64320, Note_on_c, 0, 56, 32
2, 64321, Note_on_c, 0, 63, 38
2, 64321, Note_on_c, 0, 55, 46
2, 64322, Note_on_c, 0, 60, 46
2, 64331, Control_c, 0, 64, 0
2, 64365, Control_c, 0, 64, 127
2, 64397, Note_on_c, 0, 60, 0
2, 64406, Note_on_c, 0, 63, 0
2, 64408, Note_on_c, 0, 68, 0
2, 64408, Note_on_c, 0, 56, 0
2, 64415, Note_on_c, 0, 55, 0
2, 64423, Note_on_c, 0, 51, 29
2, 64443, Note_on_c, 0, 56, 32
2, 64444, Note_on_c, 0, 51, 0
2, 64444, Note_on_c, 0, 67, 48
2, 64444, Control_c, 0, 64, 0
2, 64446, Note_on_c, 0, 63, 30
2, 64448, Note_on_c, 0, 53, 32
2, 64448, Note_on_c, 0, 60, 38
2, 64476, Control_c, 0, 64, 127
2, 64509, Note_on_c, 0, 53, 0
2, 64515, Note_on_c, 0, 60, 0
2, 64521, Note_on_c, 0, 56, 0
2, 64522, Note_on_c, 0, 63, 0
2, 64537, Note_on_c, 0, 67, 0
2, 64562, Note_on_c, 0, 51, 38
2, 64563, Note_on_c, 0, 56, 27
2, 64563, Note_on_c, 0, 63, 35
2, 64565, Control_c, 0, 64, 0
2, 64568, Note_on_c, 0, 60, 34
2, 64607, Control_c, 0, 64, 127
2, 64617, Note_on_c, 0, 60, 0
2, 64637, Note_on_c, 0, 56, 0
2, 64643, Note_on_c, 0, 51, 0
2, 64647, Note_on_c, 0, 48, 51
2, 64652, Note_on_c, 0, 60, 35
2, 64662, Control_c, 0, 64, 0
2, 64669, Note_on_c, 0, 60, 0
2, 64673, Note_on_c, 0, 48, 0
2, 64681, Note_on_c, 0, 63, 0
2, 64691, Note_on_c, 0, 41, 36
2, 64699, Note_on_c, 0, 41, 0
2, 64700, Control_c, 0, 64, 127
2, 64765, Note_on_c, 0, 63, 71
2, 64765, Note_on_c, 0, 70, 77
2, 64766, Note_on_c, 0, 59, 80
2, 64768, Note_on_c, 0, 65, 73
2, 64768, Note_on_c, 0, 56, 64
2, 64776, Control_c, 0, 64, 0
2, 64862, Control_c, 0, 64, 127
2, 64896, Note_on_c, 0, 63, 0
2, 64898, Note_on_c, 0, 59, 0
2, 64914, Note_on_c, 0, 65, 0
2, 64917, Note_on_c, 0, 70, 0
2, 64926, Note_on_c, 0, 68, 15
2, 64928, Note_on_c, 0, 59, 49
2, 64931, Note_on_c, 0, 63, 34
2, 64937, Note_on_c, 0, 53, 34
2, 64940, Note_on_c, 0, 56, 0
2, 64946, Note_on_c, 0, 53, 0
2, 65008, Note_on_c, 0, 63, 0
2, 65008, Note_on_c, 0, 59, 0
2, 65035, Note_on_c, 0, 68, 0
2, 65044, Control_c, 0, 64, 0
2, 65046, Note_on_c, 0, 63, 39
2, 65048, Note_on_c, 0, 59, 34
2, 65052, Note_on_c, 0, 53, 24
2, 65052, Note_on_c, 0, 44, 21
2, 65072, Control_c, 0, 64, 127
2, 65097, Note_on_c, 0, 53, 0
2, 65097, Note_on_c, 0, 59, 0
2, 65102, Note_on_c, 0, 44, 0
2, 65110, Note_on_c, 0, 63, 0
2, 65132, Note_on_c, 0, 44, 34
2, 65134, Note_on_c, 0, 59, 35
2, 65134, Note_on_c, 0, 63, 29
2, 65137, Note_on_c, 0, 65, 50
2, 65142, Control_c, 0, 64, 0
2, 65159, Control_c, 0, 64, 127
2, 65183, Note_on_c, 0, 44, 0
2, 65189, Note_on_c, 0, 59, 0
2, 65202, Note_on_c, 0, 63, 0
2, 65210, Note_on_c, 0, 65, 0
2, 65252, Note_on_c, 0, 58, 40
2, 65252, Note_on_c, 0, 67, 53
2, 65253, Note_on_c, 0, 63, 38
2, 65255, Note_on_c, 0, 55, 33
2, 65256, Note_on_c, 0, 46, 28
2, 65260, Control_c, 0, 64, 0
2, 65295, Control_c, 0, 64, 127
2, 65345, Note_on_c, 0, 55, 0
2, 65359, Note_on_c, 0, 67, 0
2, 65365, Note_on_c, 0, 58, 0
2, 65366, Note_on_c, 0, 63, 0
2, 65382, Note_on_c, 0, 46, 0
2, 65408, Note_on_c, 0, 46, 27
2, 65410, Note_on_c, 0, 67, 49
2, 65410, Note_on_c, 0, 58, 38
2, 65410, Note_on_c, 0, 63, 43
2, 65414, Note_on_c, 0, 55, 29
2, 65433, Note_on_c, 0, 67, 0
2, 65436, Note_on_c, 0, 55, 0
2, 65442, Note_on_c, 0, 63, 0
2, 65442, Note_on_c, 0, 58, 0
2, 65443, Note_on_c, 0, 46, 0
2, 65492, Note_on_c, 0, 46, 59
2, 65494, Note_on_c, 0, 63, 64
2, 65494, Note_on_c, 0, 58, 69
2, 65494, Note_on_c, 0, 67, 71
2, 65495, Note_on_c, 0, 55, 66
2, 65525, Note_on_c, 0, 55, 0
2, 65526, Note_on_c, 0, 58, 0
2, 65526, Note_on_c, 0, 67, 0
2, 65530, Note_on_c, 0, 46, 0
2, 65538, Note_on_c, 0, 63, 0
2, 65544, Note_on_c, 0, 63, 35
2, 65546, Note_on_c, 0, 58, 47
2, 65546, Note_on_c, 0, 67, 51
2, 65548, Note_on_c, 0, 46, 43
2, 65550, Note_on_c, 0, 55, 42
2, 65582, Note_on_c, 0, 58, 0
2, 65584, Note_on_c, 0, 55, 0
2, 65588, Note_on_c, 0, 46, 0
2, 65591, Note_on_c, 0, 67, 0
2, 65599, Note_on_c, 0, 63, 0
2, 65619, Note_on_c, 0, 46, 38
2, 65619, Note_on_c, 0, 56, 53
2, 65620, Note_on_c, 0, 62, 44
2, 65621, Note_on_c, 0, 65, 57
2, 65624, Note_on_c, 0, 55, 37
2, 65635, Note_on_c, 0, 55, 0
2, 65639, Note_on_c, 0, 56, 0
2, 65640, Note_on_c, 0, 46, 0
2, 65645, Note_on_c, 0, 62, 0
2, 65646, Control_c, 0, 64, 0
2, 65651, Note_on_c, 0, 65, 0
2, 65663, Note_on_c, 0, 46, 34
2, 65666, Control_c, 0, 64, 127
2, 65673, Note_on_c, 0, 46, 0
2, 65704, Note_on_c, 0, 42, 23
2, 65712, Note_on_c, 0, 42, 0
2, 65734, Note_on_c, 0, 61, 71
2, 65734, Note_on_c, 0, 67, 68
2, 65736, Note_on_c, 0, 57, 60
2, 65737, Note_on_c, 0, 51, 46
2, 65738, Note_on_c, 0, 41, 47
2, 65749, Control_c, 0, 64, 0
2, 65754, Note_on_c, 0, 61, 0
2, 65760, Note_on_c, 0, 62, 36
2, 65782, Control_c, 0, 64, 127
2, 65840, Note_on_c, 0, 62, 0
2, 65848, Note_on_c, 0, 51, 0
2, 65850, Note_on_c, 0, 57, 0
2, 65870, Control_c, 0, 64, 0
2, 65880, Control_c, 0, 64, 127
2, 65881, Note_on_c, 0, 57, 38
2, 65882, Note_on_c, 0, 51, 26
2, 65882, Note_on_c, 0, 61, 48
2, 65940, Note_on_c, 0, 51, 0
2, 66000, Note_on_c, 0, 41, 0
2, 66023, Note_on_c, 0, 57, 0
2, 66034, Note_on_c, 0, 61, 0
2, 66083, Note_on_c, 0, 60, 38
2, 66083, Note_on_c, 0, 41, 39
2, 66083, Note_on_c, 0, 57, 47
2, 66087, Note_on_c, 0, 51, 29
2, 66090, Control_c, 0, 64, 0
2, 66115, Control_c, 0, 64, 127
2, 66120, Note_on_c, 0, 41, 0
2, 66141, Note_on_c, 0, 51, 0
2, 66153, Note_on_c, 0, 57, 0
2, 66162, Note_on_c, 0, 60, 0
2, 66167, Note_on_c, 0, 67, 0
2, 66237, Note_on_c, 0, 63, 46
2, 66238, Note_on_c, 0, 56, 27
2, 66239, Note_on_c, 0, 46, 39
2, 66240, Control_c, 0, 64, 0
2, 66241, Note_on_c, 0, 60, 45
2, 66267, Control_c, 0, 64, 127
2, 66279, Note_on_c, 0, 60, 0
2, 66281, Note_on_c, 0, 56, 0
2, 66300, Note_on_c, 0, 63, 0
2, 66325, Note_on_c, 0, 56, 53
2, 66326, Note_on_c, 0, 65, 71
2, 66327, Note_on_c, 0, 63, 67
2, 66327, Note_on_c, 0, 60, 79
2, 66334, Control_c, 0, 64, 0
2, 66357, Control_c, 0, 64, 127
2, 66375, Note_on_c, 0, 60, 0
2, 66379, Note_on_c, 0, 65, 0
2, 66380, Note_on_c, 0, 56, 0
2, 66381, Note_on_c, 0, 63, 0
2, 66395, Note_on_c, 0, 46, 0
2, 66408, Note_on_c, 0, 63, 59
2, 66408, Note_on_c, 0, 56, 45
2, 66409, Note_on_c, 0, 65, 64
2, 66411, Note_on_c, 0, 46, 38
2, 66431, Note_on_c, 0, 56, 0
2, 66438, Note_on_c, 0, 65, 0
2, 66439, Note_on_c, 0, 63, 0
2, 66449, Note_on_c, 0, 46, 0
2, 66494, Control_c, 0, 64, 0
2, 66494, Note_on_c, 0, 56, 67
2, 66496, Note_on_c, 0, 65, 64
2, 66496, Note_on_c, 0, 62, 66
2, 66496, Note_on_c, 0, 46, 51
2, 66525, Control_c, 0, 64, 127
2, 66613, Note_on_c, 0, 62, 0
2, 66614, Note_on_c, 0, 63, 74
2, 66634, Note_on_c, 0, 46, 0
2, 66660, Note_on_c, 0, 56, 0
2, 66668, Note_on_c, 0, 65, 0
2, 66675, Note_on_c, 0, 63, 0
2, 66680, Note_on_c, 0, 62, 48
2, 66698, Note_on_c, 0, 62, 0
2, 66742, Note_on_c, 0, 63, 82
2, 66742, Note_on_c, 0, 45, 82
2, 66742, Note_on_c, 0, 55, 88
2, 66743, Note_on_c, 0, 60, 83
2, 66747, Control_c, 0, 64, 0
2, 66817, Control_c, 0, 64, 127
2, 66823, Note_on_c, 0, 63, 0
2, 66834, Note_on_c, 0, 63, 75
2, 66851, Note_on_c, 0, 55, 0
2, 66863, Note_on_c, 0, 45, 0
2, 66873, Note_on_c, 0, 63, 0
2, 66875, Note_on_c, 0, 60, 0
2, 66918, Note_on_c, 0, 63, 77
2, 66918, Note_on_c, 0, 44, 81
2, 66918, Note_on_c, 0, 54, 83
2, 66918, Note_on_c, 0, 60, 80
2, 66927, Control_c, 0, 64, 0
2, 66986, Note_on_c, 0, 63, 0
2, 67001, Control_c, 0, 64, 127
2, 67003, Note_on_c, 0, 63, 56
2, 67056, Note_on_c, 0, 60, 0
2, 67058, Note_on_c, 0, 54, 0
2, 67078, Note_on_c, 0, 63, 0
2, 67090, Note_on_c, 0, 44, 0
2, 67113, Note_on_c, 0, 63, 69
2, 67114, Note_on_c, 0, 43, 75
2, 67114, Note_on_c, 0, 59, 78
2, 67115, Note_on_c, 0, 53, 74
2, 67123, Control_c, 0, 64, 0
2, 67185, Note_on_c, 0, 63, 0
2, 67192, Control_c, 0, 64, 127
2, 67202, Note_on_c, 0, 63, 51
2, 67244, Note_on_c, 0, 53, 0
2, 67245, Note_on_c, 0, 59, 0
2, 67250, Note_on_c, 0, 43, 0
2, 67265, Note_on_c, 0, 63, 0
2, 67318, Note_on_c, 0, 58, 57
2, 67319, Note_on_c, 0, 63, 50
2, 67320, Control_c, 0, 64, 0
2, 67320, Note_on_c, 0, 42, 53
2, 67320, Note_on_c, 0, 52, 56
2, 67388, Control_c, 0, 64, 127
2, 67422, Note_on_c, 0, 63, 0
2, 67453, Note_on_c, 0, 63, 47
2, 67640, Note_on_c, 0, 42, 0
2, 67684, Note_on_c, 0, 52, 0
2, 67742, Note_on_c, 0, 58, 0
2, 67744, Note_on_c, 0, 63, 0
2, 67794, Note_on_c, 0, 63, 44
2, 67795, Note_on_c, 0, 57, 51
2, 67796, Note_on_c, 0, 51, 49
2, 67797, Control_c, 0, 64, 0
2, 67798, Note_on_c, 0, 41, 39
2, 67854, Control_c, 0, 64, 127
2, 67889, Note_on_c, 0, 63, 0
2, 67919, Note_on_c, 0, 63, 46
2, 67941, Note_on_c, 0, 41, 0
2, 67963, Note_on_c, 0, 63, 0
2, 67966, Note_on_c, 0, 51, 0
2, 67976, Note_on_c, 0, 57, 0
2, 68083, Note_on_c, 0, 63, 44
2, 68084, Note_on_c, 0, 51, 37
2, 68084, Note_on_c, 0, 56, 45
2, 68087, Note_on_c, 0, 40, 25
2, 68088, Note_on_c, 0, 28, 31
2, 68096, Control_c, 0, 64, 0
2, 68172, Control_c, 0, 64, 127
2, 68206, Note_on_c, 0, 63, 0
2, 68266, Note_on_c, 0, 63, 32
2, 68317, Note_on_c, 0, 40, 0
2, 68323, Note_on_c, 0, 28, 0
2, 68342, Note_on_c, 0, 51, 0
2, 68418, Note_on_c, 0, 56, 0
2, 68448, Note_on_c, 0, 63, 0
2, 68843, Note_on_c, 0, 63, 33
2, 68849, Note_on_c, 0, 39, 25
2, 68850, Note_on_c, 0, 58, 36
2, 68851, Note_on_c, 0, 53, 28
2, 68854, Note_on_c, 0, 27, 31
2, 68858, Control_c, 0, 64, 0
2, 68906, Control_c, 0, 64, 127
2, 68945, Note_on_c, 0, 53, 0
2, 68968, Note_on_c, 0, 58, 0
2, 68990, Note_on_c, 0, 63, 0
2, 68995, Note_on_c, 0, 27, 0
2, 69003, Note_on_c, 0, 39, 0
2, 69338, Note_on_c, 0, 82, 31
2, 69413, Note_on_c, 0, 86, 47
2, 69431, Note_on_c, 0, 86, 0
2, 69442, Note_on_c, 0, 91, 49
2, 69448, Note_on_c, 0, 91, 0
2, 69472, Note_on_c, 0, 96, 56
2, 69495, Note_on_c, 0, 96, 0
2, 69506, Note_on_c, 0, 98, 47
2, 69525, Note_on_c, 0, 98, 0
2, 69538, Note_on_c, 0, 103, 50
2, 69562, Note_on_c, 0, 103, 0
2, 69577, Note_on_c, 0, 105, 45
2, 69600, Note_on_c, 0, 105, 0
2, 69686, Note_on_c, 0, 82, 0
2, 69817, Control_c, 0, 64, 0
2, 69817, End_track
3, 0, Start_track
3, 0, Program_c, 1, 35
3, 0, Control_c, 1, 7, 93
3, 21116, Note_on_c, 1, 36, 17
3, 21313, Note_on_c, 1, 36, 0
3, 21313, Note_on_c, 1, 44, 63
3, 21343, Note_on_c, 1, 44, 0
3, 21357, Note_on_c, 1, 45, 57
3, 21526, Note_on_c, 1, 40, 52
3, 21528, Note_on_c, 1, 45, 0
3, 21543, Note_on_c, 1, 40, 0
3, 21559, Note_on_c, 1, 39, 74
3, 21575, Note_on_c, 1, 39, 0
3, 21604, Note_on_c, 1, 38, 55
3, 21682, Note_on_c, 1, 44, 69
3, 21706, Note_on_c, 1, 38, 0
3, 21712, Note_on_c, 1, 44, 0
3, 21728, Note_on_c, 1, 43, 47
3, 21796, Note_on_c, 1, 43, 0
3, 21801, Note_on_c, 1, 38, 47
3, 21832, Note_on_c, 1, 38, 0
3, 21844, Note_on_c, 1, 31, 53
3, 22003, Note_on_c, 1, 31, 0
3, 22004, Note_on_c, 1, 34, 45
3, 22020, Note_on_c, 1, 34, 0
3, 22034, Note_on_c, 1, 35, 48
3, 22062, Note_on_c, 1, 35, 0
3, 22075, Note_on_c, 1, 36, 54
3, 22320, Note_on_c, 1, 36, 0
3, 22324, Note_on_c, 1, 34, 59
3, 22560, Note_on_c, 1, 33, 65
3, 22561, Note_on_c, 1, 34, 0
3, 22801, Note_on_c, 1, 32, 80
3, 22807, Note_on_c, 1, 33, 0
3, 23000, Note_on_c, 1, 44, 88
3, 23019, Note_on_c, 1, 32, 0
3, 23032, Note_on_c, 1, 44, 0
3, 23041, Note_on_c, 1, 43, 67
3, 23270, Note_on_c, 1, 43, 0
3, 23276, Note_on_c, 1, 40, 47
3, 23358, Note_on_c, 1, 46, 77
3, 23386, Note_on_c, 1, 46, 0
3, 23396, Note_on_c, 1, 40, 0
3, 23399, Note_on_c, 1, 44, 63
3, 23477, Note_on_c, 1, 40, 48
3, 23486, Note_on_c, 1, 40, 0
3, 23509, Note_on_c, 1, 44, 0
3, 23516, Note_on_c, 1, 45, 62
3, 23524, Note_on_c, 1, 45, 0
3, 23554, Note_on_c, 1, 40, 58
3, 23624, Note_on_c, 1, 40, 0
3, 23633, Note_on_c, 1, 37, 47
3, 23837, Note_on_c, 1, 37, 0
3, 23841, Note_on_c, 1, 38, 72
3, 23919, Note_on_c, 1, 38, 0
3, 23928, Note_on_c, 1, 50, 57
3, 23935, Note_on_c, 1, 50, 0
3, 23963, Note_on_c, 1, 42, 47
3, 23999, Note_on_c, 1, 42, 0
3, 24007, Note_on_c, 1, 43, 38
3, 24200, Note_on_c, 1, 39, 36
3, 24212, Note_on_c, 1, 43, 0
3, 24221, Note_on_c, 1, 39, 0
3, 24234, Note_on_c, 1, 42, 48
3, 24434, Note_on_c, 1, 42, 0
3, 24434, Note_on_c, 1, 40, 40
3, 24461, Note_on_c, 1, 40, 0
3, 24475, Note_on_c, 1, 41, 58
3, 24493, Note_on_c, 1, 41, 0
3, 24557, Note_on_c, 1, 36, 55
3, 24587, Note_on_c, 1, 36, 0
3, 24602, Note_on_c, 1, 34, 64
3, 24839, Note_on_c, 1, 46, 81
3, 24855, Note_on_c, 1, 34, 0
3, 24962, Note_on_c, 1, 46, 0
3, 24963, Note_on_c, 1, 39, 65
3, 25557, Note_on_c, 1, 46, 81
3, 25559, Note_on_c, 1, 39, 0
3, 25753, Note_on_c, 1, 46, 0
3, 25764, Note_on_c, 1, 39, 43
3, 25788, Note_on_c, 1, 39, 0
3, 25805, Note_on_c, 1, 33, 64
3, 25904, Note_on_c, 1, 33, 0
3, 25915, Note_on_c, 1, 32, 52
3, 26115, Note_on_c, 1, 39, 43
3, 26140, Note_on_c, 1, 39, 0
3, 26141, Note_on_c, 1, 32, 0
3, 26153, Note_on_c, 1, 44, 69
3, 26358, Note_on_c, 1, 46, 47
3, 26368, Note_on_c, 1, 46, 0
3, 26398, Note_on_c, 1, 44, 0
3, 26401, Note_on_c, 1, 48, 57
3, 26408, Note_on_c, 1, 48, 0
3, 26481, Note_on_c, 1, 46, 47
3, 26498, Note_on_c, 1, 46, 0
3, 26524, Note_on_c, 1, 44, 61
3, 26604, Note_on_c, 1, 39, 40
3, 26610, Note_on_c, 1, 39, 0
3, 26610, Note_on_c, 1, 44, 0
3, 26639, Note_on_c, 1, 32, 63
3, 26754, Note_on_c, 1, 32, 0
3, 26758, Note_on_c, 1, 42, 68
3, 26873, Note_on_c, 1, 42, 0
3, 26879, Note_on_c, 1, 41, 66
3, 27046, Note_on_c, 1, 36, 53
3, 27049, Note_on_c, 1, 41, 0
3, 27056, Note_on_c, 1, 36, 0
3, 27079, Note_on_c, 1, 30, 51
3, 27099, Note_on_c, 1, 30, 0
3, 27122, Note_on_c, 1, 29, 59
3, 27291, Note_on_c, 1, 29, 0
3, 27292, Note_on_c, 1, 31, 57
3, 27315, Note_on_c, 1, 31, 0
3, 27320, Note_on_c, 1, 32, 61
3, 27338, Note_on_c, 1, 32, 0
3, 27361, Note_on_c, 1, 33, 60
3, 27553, Note_on_c, 1, 33, 0
3, 27555, Note_on_c, 1, 36, 48
3, 27564, Note_on_c, 1, 36, 0
3, 27594, Note_on_c, 1, 41, 73
3, 27767, Note_on_c, 1, 41, 0
3, 27767, Note_on_c, 1, 36, 50
3, 27779, Note_on_c, 1, 36, 0
3, 27797, Note_on_c, 1, 35, 58
3, 27816, Note_on_c, 1, 35, 0
3, 27839, Note_on_c, 1, 34, 75
3, 27966, Note_on_c, 1, 46, 84
3, 28065, Note_on_c, 1, 46, 0
3, 28086, Note_on_c, 1, 45, 69
3, 28096, Note_on_c, 1, 34, 0
3, 28324, Note_on_c, 1, 45, 0
3, 28327, Note_on_c, 1, 32, 65
3, 28559, Note_on_c, 1, 43, 44
3, 28560, Note_on_c, 1, 32, 0
3, 28605, Note_on_c, 1, 43, 0
3, 28639, Note_on_c, 1, 38, 40
3, 28649, Note_on_c, 1, 38, 0
3, 28675, Note_on_c, 1, 35, 55
3, 28796, Note_on_c, 1, 35, 0
3, 28805, Note_on_c, 1, 36, 51
3, 29040, Note_on_c, 1, 45, 66
3, 29045, Note_on_c, 1, 36, 0
3, 29279, Note_on_c, 1, 38, 61
3, 29281, Note_on_c, 1, 45, 0
3, 29405, Note_on_c, 1, 38, 0
3, 29406, Note_on_c, 1, 44, 75
3, 29602, Note_on_c, 1, 38, 33
3, 29607, Note_on_c, 1, 44, 0
3, 29626, Note_on_c, 1, 38, 0
3, 29634, Note_on_c, 1, 43, 51
3, 29660, Note_on_c, 1, 43, 0
3, 29674, Note_on_c, 1, 38, 55
3, 29755, Note_on_c, 1, 38, 0
3, 29760, Note_on_c, 1, 36, 68
3, 29991, Note_on_c, 1, 36, 0
3, 29998, Note_on_c, 1, 34, 56
3, 30240, Note_on_c, 1, 34, 0
3, 30240, Note_on_c, 1, 33, 57
3, 30360, Note_on_c, 1, 33, 0
3, 30362, Note_on_c, 1, 45, 73
3, 30482, Note_on_c, 1, 45, 0
3, 30482, Note_on_c, 1, 44, 71
3, 30680, Note_on_c, 1, 42, 46
3, 30683, Note_on_c, 1, 44, 0
3, 30705, Note_on_c, 1, 42, 0
3, 30719, Note_on_c, 1, 43, 49
3, 30956, Note_on_c, 1, 43, 0
3, 30961, Note_on_c, 1, 40, 57
3, 31082, Note_on_c, 1, 33, 80
3, 31086, Note_on_c, 1, 40, 0
3, 31198, Note_on_c, 1, 39, 83
3, 31201, Note_on_c, 1, 33, 0
3, 31399, Note_on_c, 1, 39, 0
3, 31399, Note_on_c, 1, 37, 59
3, 31421, Note_on_c, 1, 37, 0
3, 31436, Note_on_c, 1, 38, 63
3, 31479, Note_on_c, 1, 38, 0
3, 31559, Note_on_c, 1, 44, 56
3, 31638, Note_on_c, 1, 44, 0
3, 31643, Note_on_c, 1, 42, 37
3, 31668, Note_on_c, 1, 42, 0
3, 31680, Note_on_c, 1, 43, 52
3, 31762, Note_on_c, 1, 38, 57
3, 31768, Note_on_c, 1, 38, 0
3, 31801, Note_on_c, 1, 31, 72
3, 31989, Note_on_c, 1, 31, 0
3, 31998, Note_on_c, 1, 42, 70
3, 32008, Note_on_c, 1, 43, 0
3, 32022, Note_on_c, 1, 42, 0
3, 32035, Note_on_c, 1, 30, 67
3, 32161, Note_on_c, 1, 41, 82
3, 32183, Note_on_c, 1, 30, 0
3, 32234, Note_on_c, 1, 41, 0
3, 32238, Note_on_c, 1, 29, 61
3, 32395, Note_on_c, 1, 29, 0
3, 32398, Note_on_c, 1, 34, 69
3, 32567, Note_on_c, 1, 37, 49
3, 32577, Note_on_c, 1, 34, 0
3, 32583, Note_on_c, 1, 37, 0
3, 32602, Note_on_c, 1, 38, 56
3, 32617, Note_on_c, 1, 38, 0
3, 32639, Note_on_c, 1, 39, 60
3, 32879, Note_on_c, 1, 39, 0
3, 32881, Note_on_c, 1, 51, 84
3, 33120, Note_on_c, 1, 51, 0
3, 33120, Note_on_c, 1, 48, 64
3, 33365, Note_on_c, 1, 55, 74
3, 33373, Note_on_c, 1, 48, 0
3, 33484, Note_on_c, 1, 55, 0
3, 33489, Note_on_c, 1, 54, 53
3, 33598, Note_on_c, 1, 54, 0
3, 33608, Note_on_c, 1, 53, 47
3, 33683, Note_on_c, 1, 53, 0
3, 33692, Note_on_c, 1, 48, 25
3, 33705, Note_on_c, 1, 48, 0
3, 33721, Note_on_c, 1, 44, 56
3, 33833, Note_on_c, 1, 44, 0
3, 33838, Note_on_c, 1, 43, 50
3, 33946, Note_on_c, 1, 43, 0
3, 33951, Note_on_c, 1, 41, 53
3, 34063, Note_on_c, 1, 41, 0
3, 34070, Note_on_c, 1, 44, 77
3, 34325, Note_on_c, 1, 37, 44
3, 34338, Note_on_c, 1, 44, 0
3, 34541, Note_on_c, 1, 37, 0
3, 34560, Note_on_c, 1, 34, 57
3, 34641, Note_on_c, 1, 46, 64
3, 34715, Note_on_c, 1, 46, 0
3, 34802, Note_on_c, 1, 46, 57
3, 34959, Note_on_c, 1, 46, 0
3, 34962, Note_on_c, 1, 34, 0
3, 34967, Note_on_c, 1, 39, 48
3, 34984, Note_on_c, 1, 39, 0
3, 35002, Note_on_c, 1, 40, 54
3, 35026, Note_on_c, 1, 40, 0
3, 35041, Note_on_c, 1, 41, 54
3, 35066, Note_on_c, 1, 41, 0
3, 35119, Note_on_c, 1, 36, 62
3, 35136, Note_on_c, 1, 36, 0
3, 35163, Note_on_c, 1, 29, 44
3, 35354, Note_on_c, 1, 41, 67
3, 35369, Note_on_c, 1, 29, 0
3, 35516, Note_on_c, 1, 41, 0
3, 35519, Note_on_c, 1, 34, 58
3, 35601, Note_on_c, 1, 46, 61
3, 35812, Note_on_c, 1, 34, 0
3, 35845, Note_on_c, 1, 34, 46
3, 35853, Note_on_c, 1, 46, 0
3, 35884, Note_on_c, 1, 46, 59
3, 36045, Note_on_c, 1, 34, 0
3, 36075, Note_on_c, 1, 34, 46
3, 36083, Note_on_c, 1, 46, 0
3, 36116, Note_on_c, 1, 46, 56
3, 36143, Note_on_c, 1, 34, 0
3, 36189, Note_on_c, 1, 34, 54
3, 36208, Note_on_c, 1, 46, 0
3, 36215, Note_on_c, 1, 34, 0
3, 36231, Note_on_c, 1, 47, 62
3, 36312, Note_on_c, 1, 35, 68
3, 36459, Note_on_c, 1, 35, 0
3, 36466, Note_on_c, 1, 47, 0
3, 36475, Note_on_c, 1, 36, 61
3, 36563, Note_on_c, 1, 43, 39
3, 36572, Note_on_c, 1, 43, 0
3, 36597, Note_on_c, 1, 48, 70
3, 36617, Note_on_c, 1, 36, 0
3, 36724, Note_on_c, 1, 44, 34
3, 36729, Note_on_c, 1, 48, 0
3, 36840, Note_on_c, 1, 44, 0
3, 36842, Note_on_c, 1, 45, 50
3, 36957, Note_on_c, 1, 45, 0
3, 36961, Note_on_c, 1, 38, 47
3, 37074, Note_on_c, 1, 38, 0
3, 37078, Note_on_c, 1, 44, 55
3, 37165, Note_on_c, 1, 44, 0
3, 37167, Note_on_c, 1, 42, 36
3, 37186, Note_on_c, 1, 42, 0
3, 37200, Note_on_c, 1, 43, 51
3, 37273, Note_on_c, 1, 43, 0
3, 37280, Note_on_c, 1, 38, 48
3, 37301, Note_on_c, 1, 38, 0
3, 37317, Note_on_c, 1, 35, 45
3, 37431, Note_on_c, 1, 35, 0
3, 37442, Note_on_c, 1, 36, 47
3, 37677, Note_on_c, 1, 36, 0
3, 37682, Note_on_c, 1, 34, 52
3, 37804, Note_on_c, 1, 46, 63
3, 37860, Note_on_c, 1, 34, 0
3, 37883, Note_on_c, 1, 39, 32
3, 37888, Note_on_c, 1, 46, 0
3, 37912, Note_on_c, 1, 39, 0
3, 37914, Note_on_c, 1, 45, 48
3, 38022, Note_on_c, 1, 45, 0
3, 38035, Note_on_c, 1, 45, 64
3, 38147, Note_on_c, 1, 45, 0
3, 38156, Note_on_c, 1, 44, 37
3, 38274, Note_on_c, 1, 42, 49
3, 38279, Note_on_c, 1, 44, 0
3, 38391, Note_on_c, 1, 42, 0
3, 38399, Note_on_c, 1, 43, 53
3, 38479, Note_on_c, 1, 43, 0
3, 38484, Note_on_c, 1, 38, 33
3, 38501, Note_on_c, 1, 38, 0
3, 38513, Note_on_c, 1, 34, 60
3, 38633, Note_on_c, 1, 40, 51
3, 38637, Note_on_c, 1, 34, 0
3, 38746, Note_on_c, 1, 40, 0
3, 38750, Note_on_c, 1, 34, 52
3, 38869, Note_on_c, 1, 33, 53
3, 38870, Note_on_c, 1, 34, 0
3, 38992, Note_on_c, 1, 39, 63
3, 38994, Note_on_c, 1, 33, 0
3, 39078, Note_on_c, 1, 39, 0
3, 39081, Note_on_c, 1, 37, 33
3, 39109, Note_on_c, 1, 37, 0
3, 39114, Note_on_c, 1, 38, 53
3, 39235, Note_on_c, 1, 38, 0
3, 39235, Note_on_c, 1, 44, 60
3, 39316, Note_on_c, 1, 42, 40
3, 39319, Note_on_c, 1, 37, 27
3, 39322, Note_on_c, 1, 44, 0
3, 39334, Note_on_c, 1, 37, 0
3, 39344, Note_on_c, 1, 42, 0
3, 39354, Note_on_c, 1, 43, 57
3, 39462, Note_on_c, 1, 43, 0
3, 39475, Note_on_c, 1, 43, 55
3, 39589, Note_on_c, 1, 43, 0
3, 39600, Note_on_c, 1, 42, 60
3, 39641, Pitch_bend_c, 1, 8192
3, 39642, Pitch_bend_c, 1, 8192
3, 39644, Pitch_bend_c, 1, 8712
3, 39644, Pitch_bend_c, 1, 8972
3, 39646, Pitch_bend_c, 1, 9232
3, 39648, Pitch_bend_c, 1, 9622
3, 39648, Pitch_bend_c, 1, 9752
3, 39650, Pitch_bend_c, 1, 10012
3, 39652, Pitch_bend_c, 1, 10142
3, 39658, Pitch_bend_c, 1, 9882
3, 39659, Pitch_bend_c, 1, 9752
3, 39661, Pitch_bend_c, 1, 9492
3, 39662, Pitch_bend_c, 1, 9362
3, 39663, Pitch_bend_c, 1, 9102
3, 39665, Pitch_bend_c, 1, 8842
3, 39666, Pitch_bend_c, 1, 8192
3, 39666, Pitch_bend_c, 1, 8192
3, 39700, Pitch_bend_c, 1, 8192
3, 39701, Pitch_bend_c, 1, 8192
3, 39702, Pitch_bend_c, 1, 8712
3, 39704, Pitch_bend_c, 1, 9102
3, 39705, Pitch_bend_c, 1, 9362
3, 39706, Pitch_bend_c, 1, 9622
3, 39707, Pitch_bend_c, 1, 9882
3, 39708, Pitch_bend_c, 1, 10012
3, 39710, Pitch_bend_c, 1, 10142
3, 39711, Pitch_bend_c, 1, 10272
3, 39716, Pitch_bend_c, 1, 10142
3, 39717, Pitch_bend_c, 1, 10012
3, 39719, Pitch_bend_c, 1, 9752
3, 39719, Pitch_bend_c, 1, 9492
3, 39721, Pitch_bend_c, 1, 9232
3, 39722, Pitch_bend_c, 1, 8842
3, 39724, Pitch_bend_c, 1, 8192
3, 39724, Pitch_bend_c, 1, 8192
3, 39842, Note_on_c, 1, 42, 0
3, 39845, Note_on_c, 1, 41, 51
3, 39922, Note_on_c, 1, 36, 45
3, 39933, Note_on_c, 1, 36, 0
3, 39943, Note_on_c, 1, 41, 0
3, 39958, Note_on_c, 1, 33, 58
3, 40076, Note_on_c, 1, 33, 0
3, 40080, Note_on_c, 1, 34, 46
3, 40202, Note_on_c, 1, 34, 0
3, 40202, Note_on_c, 1, 38, 55
3, 40293, Note_on_c, 1, 38, 0
3, 40319, Note_on_c, 1, 39, 69
3, 40335, Control_c, 1, 1, 6
3, 40336, Control_c, 1, 1, 9
3, 40336, Control_c, 1, 1, 13
3, 40336, Control_c, 1, 1, 16
3, 40337, Control_c, 1, 1, 19
3, 40338, Control_c, 1, 1, 22
3, 40339, Control_c, 1, 1, 25
3, 40340, Control_c, 1, 1, 27
3, 40341, Control_c, 1, 1, 30
3, 40341, Control_c, 1, 1, 32
3, 40342, Control_c, 1, 1, 34
3, 40342, Control_c, 1, 1, 36
3, 40343, Control_c, 1, 1, 38
3, 40343, Control_c, 1, 1, 40
3, 40344, Control_c, 1, 1, 42
3, 40345, Control_c, 1, 1, 44
3, 40346, Control_c, 1, 1, 46
3, 40347, Control_c, 1, 1, 48
3, 40347, Control_c, 1, 1, 50
3, 40348, Control_c, 1, 1, 52
3, 40348, Control_c, 1, 1, 54
3, 40349, Control_c, 1, 1, 56
3, 40350, Control_c, 1, 1, 59
3, 40350, Control_c, 1, 1, 61
3, 40352, Control_c, 1, 1, 63
3, 40352, Control_c, 1, 1, 66
3, 40353, Control_c, 1, 1, 68
3, 40353, Control_c, 1, 1, 71
3, 40356, Control_c, 1, 1, 73
3, 40356, Control_c, 1, 1, 75
3, 40356, Control_c, 1, 1, 77
3, 40356, Control_c, 1, 1, 79
3, 40356, Control_c, 1, 1, 82
3, 40360, Control_c, 1, 1, 84
3, 40360, Control_c, 1, 1, 86
3, 40360, Control_c, 1, 1, 88
3, 40360, Control_c, 1, 1, 90
3, 40360, Control_c, 1, 1, 92
3, 40361, Control_c, 1, 1, 94
3, 40362, Control_c, 1, 1, 96
3, 40365, Control_c, 1, 1, 98
3, 40365, Control_c, 1, 1, 99
3, 40365, Control_c, 1, 1, 101
3, 40365, Control_c, 1, 1, 103
3, 40365, Control_c, 1, 1, 105
3, 40367, Control_c, 1, 1, 106
3, 40367, Control_c, 1, 1, 108
3, 40367, Control_c, 1, 1, 109
3, 40369, Control_c, 1, 1, 111
3, 40369, Control_c, 1, 1, 112
3, 40369, Control_c, 1, 1, 113
3, 40371, Control_c, 1, 1, 115
3, 40372, Control_c, 1, 1, 116
3, 40372, Control_c, 1, 1, 117
3, 40374, Control_c, 1, 1, 118
3, 40374, Control_c, 1, 1, 119
3, 40374, Control_c, 1, 1, 120
3, 40374, Control_c, 1, 1, 121
3, 40374, Control_c, 1, 1, 122
3, 40376, Control_c, 1, 1, 124
3, 40377, Control_c, 1, 1, 125
3, 40380, Control_c, 1, 1, 126
3, 40382, Control_c, 1, 1, 127
3, 40397, Control_c, 1, 1, 126
3, 40399, Control_c, 1, 1, 125
3, 40401, Control_c, 1, 1, 123
3, 40403, Control_c, 1, 1, 121
3, 40404, Control_c, 1, 1, 120
3, 40404, Control_c, 1, 1, 119
3, 40404, Control_c, 1, 1, 118
3, 40405, Control_c, 1, 1, 117
3, 40406, Control_c, 1, 1, 116
3, 40407, Control_c, 1, 1, 114
3, 40408, Control_c, 1, 1, 113
3, 40408, Control_c, 1, 1, 112
3, 40409, Control_c, 1, 1, 111
3, 40409, Control_c, 1, 1, 109
3, 40410, Control_c, 1, 1, 108
3, 40411, Control_c, 1, 1, 106
3, 40412, Control_c, 1, 1, 105
3, 40412, Control_c, 1, 1, 104
3, 40413, Control_c, 1, 1, 102
3, 40413, Control_c, 1, 1, 100
3, 40414, Control_c, 1, 1, 99
3, 40415, Control_c, 1, 1, 97
3, 40416, Control_c, 1, 1, 95
3, 40416, Control_c, 1, 1, 94
3, 40417, Control_c, 1, 1, 91
3, 40418, Control_c, 1, 1, 90
3, 40418, Control_c, 1, 1, 88
3, 40419, Control_c, 1, 1, 86
3, 40419, Control_c, 1, 1, 84
3, 40420, Control_c, 1, 1, 82
3, 40421, Control_c, 1, 1, 80
3, 40422, Control_c, 1, 1, 78
3, 40423, Control_c, 1, 1, 76
3, 40423, Control_c, 1, 1, 74
3, 40424, Control_c, 1, 1, 71
3, 40424, Control_c, 1, 1, 69
3, 40425, Control_c, 1, 1, 67
3, 40426, Control_c, 1, 1, 65
3, 40427, Control_c, 1, 1, 62
3, 40427, Control_c, 1, 1, 60
3, 40428, Control_c, 1, 1, 57
3, 40429, Control_c, 1, 1, 55
3, 40429, Control_c, 1, 1, 52
3, 40430, Control_c, 1, 1, 50
3, 40430, Control_c, 1, 1, 47
3, 40431, Control_c, 1, 1, 44
3, 40432, Control_c, 1, 1, 41
3, 40433, Control_c, 1, 1, 39
3, 40433, Control_c, 1, 1, 35
3, 40434, Control_c, 1, 1, 33
3, 40435, Control_c, 1, 1, 29
3, 40435, Control_c, 1, 1, 26
3, 40436, Control_c, 1, 1, 23
3, 40436, Control_c, 1, 1, 19
3, 40437, Control_c, 1, 1, 16
3, 40438, Control_c, 1, 1, 12
3, 40438, Control_c, 1, 1, 9
3, 40439, Control_c, 1, 1, 5
3, 40440, Control_c, 1, 1, 2
3, 40441, Control_c, 1, 1, 0
3, 40549, Note_on_c, 1, 39, 0
3, 40563, Note_on_c, 1, 39, 65
3, 40627, Control_c, 1, 1, 4
3, 40628, Control_c, 1, 1, 6
3, 40628, Control_c, 1, 1, 9
3, 40628, Control_c, 1, 1, 12
3, 40629, Control_c, 1, 1, 14
3, 40630, Control_c, 1, 1, 17
3, 40631, Control_c, 1, 1, 20
3, 40632, Control_c, 1, 1, 23
3, 40633, Control_c, 1, 1, 26
3, 40633, Control_c, 1, 1, 29
3, 40634, Control_c, 1, 1, 32
3, 40634, Control_c, 1, 1, 35
3, 40635, Control_c, 1, 1, 37
3, 40636, Control_c, 1, 1, 40
3, 40637, Control_c, 1, 1, 43
3, 40637, Control_c, 1, 1, 46
3, 40638, Control_c, 1, 1, 49
3, 40639, Control_c, 1, 1, 52
3, 40639, Control_c, 1, 1, 54
3, 40639, Control_c, 1, 1, 57
3, 40640, Control_c, 1, 1, 60
3, 40641, Control_c, 1, 1, 63
3, 40642, Control_c, 1, 1, 66
3, 40642, Control_c, 1, 1, 68
3, 40643, Control_c, 1, 1, 71
3, 40644, Control_c, 1, 1, 74
3, 40645, Control_c, 1, 1, 76
3, 40646, Control_c, 1, 1, 79
3, 40646, Control_c, 1, 1, 81
3, 40647, Control_c, 1, 1, 84
3, 40647, Control_c, 1, 1, 87
3, 40648, Control_c, 1, 1, 89
3, 40649, Control_c, 1, 1, 91
3, 40650, Control_c, 1, 1, 93
3, 40650, Control_c, 1, 1, 95
3, 40651, Control_c, 1, 1, 97
3, 40651, Control_c, 1, 1, 99
3, 40652, Control_c, 1, 1, 101
3, 40653, Control_c, 1, 1, 103
3, 40654, Control_c, 1, 1, 105
3, 40654, Control_c, 1, 1, 106
3, 40655, Control_c, 1, 1, 108
3, 40656, Control_c, 1, 1, 110
3, 40657, Control_c, 1, 1, 112
3, 40657, Control_c, 1, 1, 113
3, 40658, Control_c, 1, 1, 114
3, 40658, Control_c, 1, 1, 115
3, 40659, Control_c, 1, 1, 116
3, 40660, Control_c, 1, 1, 117
3, 40661, Control_c, 1, 1, 118
3, 40661, Control_c, 1, 1, 119
3, 40663, Control_c, 1, 1, 121
3, 40665, Control_c, 1, 1, 122
3, 40673, Control_c, 1, 1, 121
3, 40675, Control_c, 1, 1, 120
3, 40677, Control_c, 1, 1, 118
3, 40679, Control_c, 1, 1, 116
3, 40681, Control_c, 1, 1, 114
3, 40682, Control_c, 1, 1, 113
3, 40684, Control_c, 1, 1, 110
3, 40685, Control_c, 1, 1, 108
3, 40685, Control_c, 1, 1, 106
3, 40686, Control_c, 1, 1, 105
3, 40686, Control_c, 1, 1, 103
3, 40687, Control_c, 1, 1, 101
3, 40688, Control_c, 1, 1, 99
3, 40688, Control_c, 1, 1, 97
3, 40689, Control_c, 1, 1, 95
3, 40689, Control_c, 1, 1, 92
3, 40690, Control_c, 1, 1, 90
3, 40691, Control_c, 1, 1, 87
3, 40692, Control_c, 1, 1, 84
3, 40692, Control_c, 1, 1, 81
3, 40693, Control_c, 1, 1, 78
3, 40694, Control_c, 1, 1, 75
3, 40695, Control_c, 1, 1, 71
3, 40696, Control_c, 1, 1, 68
3, 40696, Control_c, 1, 1, 64
3, 40697, Control_c, 1, 1, 60
3, 40697, Control_c, 1, 1, 55
3, 40698, Control_c, 1, 1, 51
3, 40699, Control_c, 1, 1, 47
3, 40700, Control_c, 1, 1, 42
3, 40700, Control_c, 1, 1, 37
3, 40700, Control_c, 1, 1, 33
3, 40701, Control_c, 1, 1, 29
3, 40702, Control_c, 1, 1, 24
3, 40703, Control_c, 1, 1, 19
3, 40704, Control_c, 1, 1, 14
3, 40704, Control_c, 1, 1, 9
3, 40704, Control_c, 1, 1, 5
3, 40705, Control_c, 1, 1, 1
3, 40758, Note_on_c, 1, 38, 57
3, 40770, Note_on_c, 1, 39, 0
3, 40803, Note_on_c, 1, 38, 0
3, 40805, Note_on_c, 1, 34, 61
3, 40919, Note_on_c, 1, 46, 74
3, 40927, Note_on_c, 1, 47, 38
3, 40945, Note_on_c, 1, 34, 0
3, 41033, Note_on_c, 1, 47, 0
3, 41040, Note_on_c, 1, 39, 46
3, 41046, Note_on_c, 1, 46, 0
3, 41160, Note_on_c, 1, 51, 69
3, 41167, Note_on_c, 1, 39, 0
3, 41280, Note_on_c, 1, 44, 63
3, 41282, Note_on_c, 1, 51, 0
3, 41369, Note_on_c, 1, 39, 25
3, 41394, Note_on_c, 1, 39, 0
3, 41398, Note_on_c, 1, 50, 65
3, 41415, Note_on_c, 1, 44, 0
3, 41503, Note_on_c, 1, 50, 0
3, 41517, Note_on_c, 1, 44, 36
3, 41599, Note_on_c, 1, 39, 44
3, 41609, Note_on_c, 1, 39, 0
3, 41719, Note_on_c, 1, 34, 30
3, 41740, Note_on_c, 1, 34, 0
3, 41757, Note_on_c, 1, 32, 51
3, 41868, Note_on_c, 1, 32, 0
3, 41878, Note_on_c, 1, 34, 46
3, 41993, Note_on_c, 1, 34, 0
3, 42001, Note_on_c, 1, 36, 46
3, 42111, Note_on_c, 1, 36, 0
3, 42121, Note_on_c, 1, 39, 52
3, 42123, Note_on_c, 1, 44, 0
3, 42234, Note_on_c, 1, 39, 0
3, 42242, Note_on_c, 1, 41, 54
3, 42324, Note_on_c, 1, 36, 53
3, 42332, Note_on_c, 1, 36, 0
3, 42356, Note_on_c, 1, 30, 62
3, 42464, Note_on_c, 1, 30, 0
3, 42479, Note_on_c, 1, 41, 0
3, 42479, Note_on_c, 1, 29, 63
3, 42600, Note_on_c, 1, 41, 72
3, 42612, Note_on_c, 1, 29, 0
3, 42704, Note_on_c, 1, 39, 20
3, 42717, Note_on_c, 1, 39, 0
3, 42724, Note_on_c, 1, 45, 74
3, 42725, Note_on_c, 1, 41, 0
3, 42809, Note_on_c, 1, 41, 22
3, 42815, Note_on_c, 1, 41, 0
3, 42830, Note_on_c, 1, 45, 0
3, 42839, Note_on_c, 1, 43, 49
3, 42956, Note_on_c, 1, 43, 0
3, 42957, Note_on_c, 1, 41, 47
3, 43040, Note_on_c, 1, 41, 0
3, 43040, Note_on_c, 1, 36, 48
3, 43060, Note_on_c, 1, 36, 0
3, 43076, Note_on_c, 1, 35, 49
3, 43193, Note_on_c, 1, 35, 0
3, 43194, Note_on_c, 1, 34, 46
3, 43316, Note_on_c, 1, 46, 67
3, 43343, Note_on_c, 1, 34, 0
3, 43408, Note_on_c, 1, 34, 21
3, 43423, Note_on_c, 1, 34, 0
3, 43435, Note_on_c, 1, 46, 0
3, 43436, Note_on_c, 1, 45, 55
3, 43521, Note_on_c, 1, 33, 73
3, 43526, Note_on_c, 1, 45, 0
3, 43560, Note_on_c, 1, 49, 71
3, 43681, Note_on_c, 1, 32, 64
3, 43684, Note_on_c, 1, 33, 0
3, 43698, Note_on_c, 1, 49, 0
3, 43765, Note_on_c, 1, 48, 63
3, 43827, Note_on_c, 1, 32, 0
3, 43859, Note_on_c, 1, 33, 43
3, 43867, Note_on_c, 1, 33, 0
3, 43887, Note_on_c, 1, 32, 60
3, 43891, Note_on_c, 1, 48, 0
3, 43909, Note_on_c, 1, 32, 0
3, 43925, Note_on_c, 1, 31, 68
3, 44005, Note_on_c, 1, 47, 71
3, 44044, Note_on_c, 1, 34, 46
3, 44045, Note_on_c, 1, 31, 0
3, 44052, Note_on_c, 1, 47, 0
3, 44062, Note_on_c, 1, 34, 0
3, 44085, Note_on_c, 1, 35, 53
3, 44108, Note_on_c, 1, 35, 0
3, 44121, Note_on_c, 1, 36, 91
3, 44270, Note_on_c, 1, 36, 0
3, 44275, Note_on_c, 1, 43, 53
3, 44387, Note_on_c, 1, 43, 0
3, 44396, Note_on_c, 1, 48, 47
3, 44485, Note_on_c, 1, 39, 27
3, 44492, Note_on_c, 1, 39, 0
3, 44511, Note_on_c, 1, 48, 0
3, 44519, Note_on_c, 1, 45, 49
3, 44628, Note_on_c, 1, 45, 0
3, 44637, Note_on_c, 1, 38, 52
3, 44758, Note_on_c, 1, 44, 69
3, 44762, Note_on_c, 1, 38, 0
3, 44839, Note_on_c, 1, 38, 46
3, 44847, Note_on_c, 1, 38, 0
3, 44861, Note_on_c, 1, 44, 0
3, 44874, Note_on_c, 1, 43, 62
3, 44882, Note_on_c, 1, 43, 0
3, 44911, Note_on_c, 1, 38, 58
3, 44984, Note_on_c, 1, 38, 0
3, 44990, Note_on_c, 1, 32, 56
3, 45071, Note_on_c, 1, 32, 0
3, 45079, Note_on_c, 1, 31, 51
3, 45108, Note_on_c, 1, 31, 0
3, 45116, Note_on_c, 1, 36, 62
3, 45224, Note_on_c, 1, 36, 0
3, 45239, Note_on_c, 1, 36, 56
3, 45355, Note_on_c, 1, 36, 0
3, 45360, Note_on_c, 1, 34, 54
3, 45480, Note_on_c, 1, 46, 64
3, 45481, Note_on_c, 1, 34, 0
3, 45591, Note_on_c, 1, 46, 0
3, 45602, Note_on_c, 1, 45, 61
3, 45708, Note_on_c, 1, 45, 0
3, 45722, Note_on_c, 1, 45, 62
3, 45821, Note_on_c, 1, 45, 0
3, 45840, Note_on_c, 1, 44, 63
3, 45923, Note_on_c, 1, 44, 0
3, 45931, Note_on_c, 1, 38, 31
3, 45943, Note_on_c, 1, 38, 0
3, 45961, Note_on_c, 1, 42, 51
3, 46075, Note_on_c, 1, 42, 0
3, 46082, Note_on_c, 1, 43, 59
3, 46190, Note_on_c, 1, 43, 0
3, 46198, Note_on_c, 1, 38, 43
3, 46311, Note_on_c, 1, 38, 0
3, 46315, Note_on_c, 1, 40, 50
3, 46429, Note_on_c, 1, 40, 0
3, 46433, Note_on_c, 1, 34, 55
3, 46554, Note_on_c, 1, 34, 0
3, 46555, Note_on_c, 1, 33, 48
3, 46675, Note_on_c, 1, 33, 0
3, 46675, Note_on_c, 1, 39, 53
3, 46758, Note_on_c, 1, 39, 0
3, 46761, Note_on_c, 1, 37, 34
3, 46781, Note_on_c, 1, 37, 0
3, 46798, Note_on_c, 1, 38, 51
3, 46914, Note_on_c, 1, 38, 0
3, 46918, Note_on_c, 1, 45, 53
3, 47002, Note_on_c, 1, 45, 0
3, 47004, Note_on_c, 1, 44, 39
3, 47029, Note_on_c, 1, 44, 0
3, 47041, Note_on_c, 1, 43, 44
3, 47163, Note_on_c, 1, 31, 66
3, 47175, Note_on_c, 1, 43, 0
3, 47349, Note_on_c, 1, 31, 0
3, 47355, Note_on_c, 1, 42, 65
3, 47368, Note_on_c, 1, 42, 0
3, 47397, Note_on_c, 1, 30, 62
3, 47599, Note_on_c, 1, 30, 0
3, 47600, Note_on_c, 1, 41, 61
3, 47621, Note_on_c, 1, 41, 0
3, 47641, Note_on_c, 1, 29, 44
3, 47672, Note_on_c, 1, 29, 0
3, 47723, Note_on_c, 1, 36, 69
3, 47743, Note_on_c, 1, 36, 0
3, 47762, Note_on_c, 1, 34, 52
3, 47881, Note_on_c, 1, 46, 60
3, 47901, Note_on_c, 1, 46, 0
3, 47903, Note_on_c, 1, 34, 0
3, 47970, Note_on_c, 1, 38, 29
3, 47987, Note_on_c, 1, 38, 0
3, 48007, Note_on_c, 1, 39, 46
3, 48236, Note_on_c, 1, 39, 0
3, 48241, Note_on_c, 1, 51, 60
3, 48462, Note_on_c, 1, 51, 0
3, 48475, Note_on_c, 1, 48, 76
3, 48551, Pitch_bend_c, 1, 8192
3, 48552, Pitch_bend_c, 1, 8192
3, 48553, Pitch_bend_c, 1, 8712
3, 48554, Pitch_bend_c, 1, 9102
3, 48556, Pitch_bend_c, 1, 9362
3, 48558, Pitch_bend_c, 1, 9752
3, 48559, Pitch_bend_c, 1, 10012
3, 48560, Pitch_bend_c, 1, 10272
3, 48562, Pitch_bend_c, 1, 10662
3, 48563, Pitch_bend_c, 1, 10922
3, 48564, Pitch_bend_c, 1, 11312
3, 48566, Pitch_bend_c, 1, 11702
3, 48566, Pitch_bend_c, 1, 11962
3, 48568, Pitch_bend_c, 1, 12222
3, 48569, Pitch_bend_c, 1, 12612
3, 48571, Pitch_bend_c, 1, 13002
3, 48572, Pitch_bend_c, 1, 13262
3, 48573, Pitch_bend_c, 1, 13652
3, 48575, Pitch_bend_c, 1, 14042
3, 48575, Pitch_bend_c, 1, 14302
3, 48577, Pitch_bend_c, 1, 14692
3, 48578, Pitch_bend_c, 1, 14968
3, 48579, Pitch_bend_c, 1, 15212
3, 48581, Pitch_bend_c, 1, 15472
3, 48582, Pitch_bend_c, 1, 15732
3, 48584, Pitch_bend_c, 1, 15992
3, 48585, Pitch_bend_c, 1, 16122
3, 48586, Pitch_bend_c, 1, 16252
3, 48587, Pitch_bend_c, 1, 16382
3, 48597, Pitch_bend_c, 1, 16252
3, 48597, Pitch_bend_c, 1, 15992
3, 48599, Pitch_bend_c, 1, 15862
3, 48601, Pitch_bend_c, 1, 15732
3, 48601, Pitch_bend_c, 1, 15472
3, 48603, Pitch_bend_c, 1, 15212
3, 48603, Pitch_bend_c, 1, 14968
3, 48605, Pitch_bend_c, 1, 14562
3, 48606, Pitch_bend_c, 1, 14172
3, 48609, Pitch_bend_c, 1, 13782
3, 48609, Pitch_bend_c, 1, 13262
3, 48610, Pitch_bend_c, 1, 13002
3, 48611, Pitch_bend_c, 1, 12612
3, 48613, Pitch_bend_c, 1, 12222
3, 48614, Pitch_bend_c, 1, 11832
3, 48615, Pitch_bend_c, 1, 11442
3, 48616, Pitch_bend_c, 1, 11052
3, 48618, Pitch_bend_c, 1, 10662
3, 48619, Pitch_bend_c, 1, 10272
3, 48620, Pitch_bend_c, 1, 10012
3, 48622, Pitch_bend_c, 1, 9752
3, 48623, Pitch_bend_c, 1, 9362
3, 48625, Pitch_bend_c, 1, 9102
3, 48625, Pitch_bend_c, 1, 8842
3, 48627, Pitch_bend_c, 1, 8712
3, 48629, Pitch_bend_c, 1, 8192
3, 48630, Pitch_bend_c, 1, 8192
3, 48638, Pitch_bend_c, 1, 8192
3, 48641, Pitch_bend_c, 1, 8712
3, 48642, Pitch_bend_c, 1, 8972
3, 48643, Pitch_bend_c, 1, 9232
3, 48645, Pitch_bend_c, 1, 9622
3, 48646, Pitch_bend_c, 1, 9882
3, 48647, Pitch_bend_c, 1, 10272
3, 48649, Pitch_bend_c, 1, 10532
3, 48649, Pitch_bend_c, 1, 10792
3, 48651, Pitch_bend_c, 1, 11052
3, 48652, Pitch_bend_c, 1, 11442
3, 48654, Pitch_bend_c, 1, 11572
3, 48654, Pitch_bend_c, 1, 11702
3, 48657, Pitch_bend_c, 1, 11832
3, 48664, Pitch_bend_c, 1, 11702
3, 48666, Pitch_bend_c, 1, 11442
3, 48668, Pitch_bend_c, 1, 11312
3, 48669, Pitch_bend_c, 1, 10922
3, 48670, Pitch_bend_c, 1, 10662
3, 48671, Pitch_bend_c, 1, 10402
3, 48673, Pitch_bend_c, 1, 10142
3, 48673, Pitch_bend_c, 1, 9882
3, 48675, Pitch_bend_c, 1, 9622
3, 48677, Pitch_bend_c, 1, 9232
3, 48678, Pitch_bend_c, 1, 8972
3, 48679, Pitch_bend_c, 1, 8712
3, 48681, Pitch_bend_c, 1, 8192
3, 48681, Pitch_bend_c, 1, 8192
3, 48682, Pitch_bend_c, 1, 8192
3, 48712, Pitch_bend_c, 1, 8192
3, 48712, Pitch_bend_c, 1, 8192
3, 48714, Pitch_bend_c, 1, 8712
3, 48715, Pitch_bend_c, 1, 8972
3, 48717, Pitch_bend_c, 1, 9232
3, 48717, Pitch_bend_c, 1, 9492
3, 48719, Pitch_bend_c, 1, 9752
3, 48721, Pitch_bend_c, 1, 9882
3, 48722, Pitch_bend_c, 1, 10142
3, 48724, Pitch_bend_c, 1, 10272
3, 48733, Pitch_bend_c, 1, 10142
3, 48735, Pitch_bend_c, 1, 9882
3, 48737, Pitch_bend_c, 1, 9622
3, 48738, Pitch_bend_c, 1, 9102
3, 48739, Pitch_bend_c, 1, 8192
3, 48740, Pitch_bend_c, 1, 8192
3, 48924, Note_on_c, 1, 36, 40
3, 48935, Note_on_c, 1, 36, 0
3, 48952, Note_on_c, 1, 48, 0
3, 48959, Note_on_c, 1, 41, 53
3, 49080, Note_on_c, 1, 41, 0
3, 49084, Note_on_c, 1, 43, 46
3, 49164, Note_on_c, 1, 41, 53
3, 49172, Note_on_c, 1, 41, 0
3, 49187, Note_on_c, 1, 43, 0
3, 49199, Note_on_c, 1, 44, 43
3, 49320, Note_on_c, 1, 44, 0
3, 49320, Note_on_c, 1, 41, 48
3, 49401, Note_on_c, 1, 39, 25
3, 49407, Note_on_c, 1, 39, 0
3, 49425, Note_on_c, 1, 41, 0
3, 49436, Note_on_c, 1, 44, 50
3, 49459, Note_on_c, 1, 44, 0
3, 49523, Note_on_c, 1, 39, 32
3, 49531, Note_on_c, 1, 39, 0
3, 49564, Note_on_c, 1, 37, 37
3, 49572, Note_on_c, 1, 37, 0
3, 49579, Note_on_c, 1, 37, 31
3, 49675, Note_on_c, 1, 37, 0
3, 49689, Note_on_c, 1, 37, 51
3, 49807, Note_on_c, 1, 49, 56
3, 49824, Note_on_c, 1, 37, 0
3, 49894, Note_on_c, 1, 37, 23
3, 49904, Note_on_c, 1, 37, 0
3, 49915, Note_on_c, 1, 49, 0
3, 49928, Note_on_c, 1, 39, 51
3, 50165, Note_on_c, 1, 51, 65
3, 50303, Note_on_c, 1, 39, 0
3, 50362, Note_on_c, 1, 39, 33
3, 50378, Note_on_c, 1, 51, 0
3, 50388, Note_on_c, 1, 39, 0
3, 50399, Note_on_c, 1, 41, 51
3, 50603, Note_on_c, 1, 53, 56
3, 50690, Note_on_c, 1, 36, 32
3, 50697, Note_on_c, 1, 36, 0
3, 50724, Note_on_c, 1, 30, 46
3, 50738, Note_on_c, 1, 30, 0
3, 50764, Note_on_c, 1, 29, 60
3, 50958, Note_on_c, 1, 34, 46
3, 50965, Note_on_c, 1, 34, 0
3, 50968, Note_on_c, 1, 41, 0
3, 50974, Note_on_c, 1, 29, 0
3, 50999, Note_on_c, 1, 53, 0
3, 51002, Note_on_c, 1, 34, 53
3, 51118, Note_on_c, 1, 46, 63
3, 51264, Note_on_c, 1, 34, 0
3, 51317, Note_on_c, 1, 34, 32
3, 51325, Note_on_c, 1, 34, 0
3, 51362, Note_on_c, 1, 34, 62
3, 51380, Note_on_c, 1, 46, 0
3, 51485, Note_on_c, 1, 46, 62
3, 51541, Note_on_c, 1, 34, 0
3, 51555, Note_on_c, 1, 46, 0
3, 51569, Note_on_c, 1, 35, 51
3, 51608, Note_on_c, 1, 47, 60
3, 51697, Note_on_c, 1, 47, 0
3, 51723, Note_on_c, 1, 47, 58
3, 51765, Note_on_c, 1, 35, 0
3, 51810, Note_on_c, 1, 35, 46
3, 51816, Note_on_c, 1, 47, 0
3, 51828, Note_on_c, 1, 35, 0
3, 51847, Note_on_c, 1, 48, 52
3, 51914, Note_on_c, 1, 48, 0
3, 51927, Note_on_c, 1, 42, 30
3, 51953, Note_on_c, 1, 42, 0
3, 51962, Note_on_c, 1, 43, 31
3, 52066, Note_on_c, 1, 43, 0
3, 52084, Note_on_c, 1, 45, 55
3, 52192, Note_on_c, 1, 45, 0
3, 52200, Note_on_c, 1, 39, 44
3, 52321, Note_on_c, 1, 39, 0
3, 52321, Note_on_c, 1, 38, 49
3, 52444, Note_on_c, 1, 32, 52
3, 52446, Note_on_c, 1, 38, 0
3, 52549, Note_on_c, 1, 32, 0
3, 52559, Note_on_c, 1, 31, 53
3, 52678, Note_on_c, 1, 31, 0
3, 52680, Note_on_c, 1, 35, 45
3, 52800, Note_on_c, 1, 36, 57
3, 52805, Note_on_c, 1, 35, 0
3, 52857, Note_on_c, 1, 36, 0
3, 52882, Note_on_c, 1, 36, 37
3, 52907, Note_on_c, 1, 36, 0
3, 52914, Note_on_c, 1, 38, 57
3, 53031, Note_on_c, 1, 38, 0
3, 53034, Note_on_c, 1, 39, 59
3, 53155, Note_on_c, 1, 46, 75
3, 53164, Note_on_c, 1, 39, 0
3, 53267, Note_on_c, 1, 46, 0
3, 53277, Note_on_c, 1, 45, 58
3, 53497, Note_on_c, 1, 45, 0
3, 53523, Note_on_c, 1, 44, 71
3, 53642, Note_on_c, 1, 44, 0
3, 53645, Note_on_c, 1, 38, 47
3, 53763, Note_on_c, 1, 38, 0
3, 53763, Note_on_c, 1, 43, 53
3, 53881, Note_on_c, 1, 43, 0
3, 53882, Note_on_c, 1, 31, 41
3, 54000, Note_on_c, 1, 40, 49
3, 54017, Note_on_c, 1, 31, 0
3, 54117, Note_on_c, 1, 40, 0
3, 54118, Note_on_c, 1, 34, 51
3, 54237, Note_on_c, 1, 34, 0
3, 54244, Note_on_c, 1, 33, 50
3, 54325, Note_on_c, 1, 39, 53
3, 54334, Note_on_c, 1, 33, 0
3, 54348, Note_on_c, 1, 39, 0
3, 54366, Note_on_c, 1, 37, 47
3, 54476, Note_on_c, 1, 37, 0
3, 54483, Note_on_c, 1, 38, 51
3, 54568, Note_on_c, 1, 44, 84
3, 54590, Note_on_c, 1, 38, 0
3, 54605, Note_on_c, 1, 44, 0
3, 54613, Note_on_c, 1, 42, 19
3, 54684, Note_on_c, 1, 37, 34
3, 54695, Note_on_c, 1, 37, 0
3, 54712, Note_on_c, 1, 42, 0
3, 54720, Note_on_c, 1, 43, 56
3, 54740, Note_on_c, 1, 43, 0
3, 54802, Note_on_c, 1, 38, 53
3, 54823, Note_on_c, 1, 38, 0
3, 54842, Note_on_c, 1, 34, 37
3, 54996, Note_on_c, 1, 42, 51
3, 54999, Note_on_c, 1, 34, 0
3, 55002, Note_on_c, 1, 42, 0
3, 55037, Note_on_c, 1, 37, 52
3, 55053, Note_on_c, 1, 37, 0
3, 55078, Note_on_c, 1, 30, 55
3, 55193, Note_on_c, 1, 30, 0
3, 55199, Note_on_c, 1, 29, 46
3, 55267, Note_on_c, 1, 29, 0
3, 55281, Note_on_c, 1, 29, 39
3, 55302, Note_on_c, 1, 29, 0
3, 55319, Note_on_c, 1, 31, 30
3, 55434, Note_on_c, 1, 31, 0
3, 55440, Note_on_c, 1, 32, 45
3, 55565, Note_on_c, 1, 32, 0
3, 55566, Note_on_c, 1, 34, 40
3, 55683, Note_on_c, 1, 39, 43
3, 55687, Note_on_c, 1, 34, 0
3, 55790, Note_on_c, 1, 39, 0
3, 55800, Note_on_c, 1, 39, 42
3, 55918, Note_on_c, 1, 43, 60
3, 55935, Note_on_c, 1, 39, 0
3, 56032, Note_on_c, 1, 43, 0
3, 56042, Note_on_c, 1, 43, 73
3, 56141, Note_on_c, 1, 43, 0
3, 56161, Note_on_c, 1, 46, 67
3, 56271, Note_on_c, 1, 46, 0
3, 56282, Note_on_c, 1, 46, 70
3, 56396, Note_on_c, 1, 51, 52
3, 56405, Note_on_c, 1, 46, 0
3, 56508, Note_on_c, 1, 51, 0
3, 56515, Note_on_c, 1, 45, 57
3, 56632, Note_on_c, 1, 45, 0
3, 56641, Note_on_c, 1, 44, 55
3, 56753, Note_on_c, 1, 44, 0
3, 56763, Note_on_c, 1, 44, 67
3, 56869, Note_on_c, 1, 44, 0
3, 56880, Note_on_c, 1, 39, 49
3, 56987, Note_on_c, 1, 39, 0
3, 57001, Note_on_c, 1, 39, 45
3, 57122, Note_on_c, 1, 32, 50
3, 57125, Note_on_c, 1, 39, 0
3, 57246, Note_on_c, 1, 39, 57
3, 57247, Note_on_c, 1, 32, 0
3, 57347, Note_on_c, 1, 39, 0
3, 57367, Note_on_c, 1, 44, 71
3, 57406, Pitch_bend_c, 1, 8192
3, 57409, Pitch_bend_c, 1, 8712
3, 57410, Pitch_bend_c, 1, 9232
3, 57411, Pitch_bend_c, 1, 9882
3, 57411, Pitch_bend_c, 1, 10402
3, 57414, Pitch_bend_c, 1, 10922
3, 57415, Pitch_bend_c, 1, 11572
3, 57416, Pitch_bend_c, 1, 12092
3, 57417, Pitch_bend_c, 1, 12482
3, 57418, Pitch_bend_c, 1, 12872
3, 57419, Pitch_bend_c, 1, 13262
3, 57420, Pitch_bend_c, 1, 13522
3, 57422, Pitch_bend_c, 1, 13782
3, 57423, Pitch_bend_c, 1, 13912
3, 57425, Pitch_bend_c, 1, 14042
3, 57433, Pitch_bend_c, 1, 13912
3, 57433, Pitch_bend_c, 1, 13652
3, 57435, Pitch_bend_c, 1, 13392
3, 57437, Pitch_bend_c, 1, 13132
3, 57438, Pitch_bend_c, 1, 12872
3, 57440, Pitch_bend_c, 1, 12482
3, 57440, Pitch_bend_c, 1, 12092
3, 57441, Pitch_bend_c, 1, 11572
3, 57444, Pitch_bend_c, 1, 10922
3, 57445, Pitch_bend_c, 1, 10402
3, 57446, Pitch_bend_c, 1, 9882
3, 57447, Pitch_bend_c, 1, 9362
3, 57449, Pitch_bend_c, 1, 8972
3, 57450, Pitch_bend_c, 1, 8192
3, 57450, Pitch_bend_c, 1, 8192
3, 57451, Pitch_bend_c, 1, 8192
3, 57452, Pitch_bend_c, 1, 8192
3, 57461, Pitch_bend_c, 1, 8192
3, 57461, Pitch_bend_c, 1, 8192
3, 57463, Pitch_bend_c, 1, 8712
3, 57463, Pitch_bend_c, 1, 8972
3, 57465, Pitch_bend_c, 1, 9362
3, 57467, Pitch_bend_c, 1, 9882
3, 57468, Pitch_bend_c, 1, 10272
3, 57469, Pitch_bend_c, 1, 10792
3, 57471, Pitch_bend_c, 1, 11442
3, 57472, Pitch_bend_c, 1, 11832
3, 57472, Pitch_bend_c, 1, 12222
3, 57475, Pitch_bend_c, 1, 12612
3, 57476, Pitch_bend_c, 1, 13002
3, 57477, Pitch_bend_c, 1, 13262
3, 57478, Pitch_bend_c, 1, 13652
3, 57480, Pitch_bend_c, 1, 13912
3, 57481, Pitch_bend_c, 1, 14042
3, 57482, Pitch_bend_c, 1, 14172
3, 57489, Pitch_bend_c, 1, 14042
3, 57490, Pitch_bend_c, 1, 13782
3, 57492, Pitch_bend_c, 1, 13262
3, 57492, Pitch_bend_c, 1, 13002
3, 57495, Pitch_bend_c, 1, 12482
3, 57496, Pitch_bend_c, 1, 11962
3, 57497, Pitch_bend_c, 1, 11442
3, 57498, Pitch_bend_c, 1, 10662
3, 57499, Pitch_bend_c, 1, 9752
3, 57501, Pitch_bend_c, 1, 8192
3, 57502, Pitch_bend_c, 1, 8192
3, 57606, Note_on_c, 1, 44, 0
3, 57615, Note_on_c, 1, 44, 46
3, 57627, Note_on_c, 1, 44, 0
3, 57627, Note_on_c, 1, 43, 42
3, 57646, Note_on_c, 1, 43, 0
3, 57729, Note_on_c, 1, 41, 51
3, 57810, Note_on_c, 1, 36, 40
3, 57813, Note_on_c, 1, 41, 0
3, 57823, Note_on_c, 1, 36, 0
3, 57842, Note_on_c, 1, 29, 44
3, 57951, Note_on_c, 1, 29, 0
3, 57956, Note_on_c, 1, 31, 54
3, 58074, Note_on_c, 1, 31, 0
3, 58077, Note_on_c, 1, 33, 48
3, 58166, Note_on_c, 1, 36, 39
3, 58175, Note_on_c, 1, 36, 0
3, 58198, Note_on_c, 1, 42, 71
3, 58207, Note_on_c, 1, 33, 0
3, 58317, Note_on_c, 1, 42, 0
3, 58317, Note_on_c, 1, 41, 56
3, 58324, Note_on_c, 1, 41, 0
3, 58394, Note_on_c, 1, 36, 66
3, 58410, Note_on_c, 1, 36, 0
3, 58433, Note_on_c, 1, 33, 54
3, 58553, Note_on_c, 1, 33, 0
3, 58554, Note_on_c, 1, 34, 48
3, 58640, Note_on_c, 1, 46, 58
3, 58799, Note_on_c, 1, 46, 0
3, 58806, Note_on_c, 1, 45, 42
3, 58810, Note_on_c, 1, 34, 0
3, 58924, Note_on_c, 1, 33, 44
3, 59040, Note_on_c, 1, 32, 53
3, 59043, Note_on_c, 1, 33, 0
3, 59051, Note_on_c, 1, 45, 0
3, 59126, Note_on_c, 1, 34, 31
3, 59139, Note_on_c, 1, 34, 0
3, 59146, Note_on_c, 1, 32, 0
3, 59161, Note_on_c, 1, 44, 55
3, 59280, Note_on_c, 1, 44, 0
3, 59280, Note_on_c, 1, 43, 55
3, 59363, Note_on_c, 1, 38, 49
3, 59376, Note_on_c, 1, 43, 0
3, 59379, Note_on_c, 1, 38, 0
3, 59394, Note_on_c, 1, 35, 59
3, 59517, Note_on_c, 1, 35, 0
3, 59521, Note_on_c, 1, 36, 51
3, 59610, Note_on_c, 1, 34, 37
3, 59624, Note_on_c, 1, 36, 0
3, 59627, Note_on_c, 1, 34, 0
3, 59637, Note_on_c, 1, 46, 64
3, 59755, Note_on_c, 1, 46, 0
3, 59761, Note_on_c, 1, 45, 39
3, 59875, Note_on_c, 1, 45, 0
3, 59875, Note_on_c, 1, 39, 51
3, 59988, Note_on_c, 1, 39, 0
3, 59994, Note_on_c, 1, 38, 47
3, 60079, Note_on_c, 1, 38, 0
3, 60080, Note_on_c, 1, 44, 64
3, 60119, Note_on_c, 1, 44, 0
3, 60124, Note_on_c, 1, 43, 44
3, 60176, Note_on_c, 1, 43, 0
3, 60199, Note_on_c, 1, 38, 56
3, 60212, Note_on_c, 1, 38, 0
3, 60236, Note_on_c, 1, 31, 54
3, 60354, Note_on_c, 1, 31, 0
3, 60356, Note_on_c, 1, 35, 59
3, 60475, Note_on_c, 1, 35, 0
3, 60479, Note_on_c, 1, 36, 60
3, 60588, Note_on_c, 1, 36, 0
3, 60603, Note_on_c, 1, 36, 68
3, 60717, Note_on_c, 1, 36, 0
3, 60726, Note_on_c, 1, 34, 53
3, 60829, Note_on_c, 1, 34, 0
3, 60845, Note_on_c, 1, 34, 58
3, 60963, Note_on_c, 1, 33, 54
3, 60965, Note_on_c, 1, 34, 0
3, 61084, Note_on_c, 1, 45, 62
3, 61168, Note_on_c, 1, 45, 0
3, 61202, Note_on_c, 1, 33, 0
3, 61202, Note_on_c, 1, 44, 52
3, 61321, Note_on_c, 1, 32, 48
3, 61329, Note_on_c, 1, 44, 0
3, 61432, Note_on_c, 1, 32, 0
3, 61450, Note_on_c, 1, 31, 42
3, 61564, Note_on_c, 1, 43, 59
3, 61565, Note_on_c, 1, 31, 0
3, 61678, Note_on_c, 1, 43, 0
3, 61679, Note_on_c, 1, 40, 53
3, 61798, Note_on_c, 1, 46, 74
3, 61910, Note_on_c, 1, 46, 0
3, 61910, Note_on_c, 1, 40, 0
3, 61918, Note_on_c, 1, 45, 62
3, 62040, Note_on_c, 1, 39, 59
3, 62041, Note_on_c, 1, 45, 0
3, 62156, Note_on_c, 1, 39, 0
3, 62164, Note_on_c, 1, 38, 52
3, 62281, Note_on_c, 1, 44, 64
3, 62285, Note_on_c, 1, 38, 0
3, 62371, Note_on_c, 1, 44, 0
3, 62371, Note_on_c, 1, 39, 31
3, 62395, Note_on_c, 1, 39, 0
3, 62398, Note_on_c, 1, 43, 62
3, 62509, Note_on_c, 1, 43, 0
3, 62521, Note_on_c, 1, 43, 72
3, 62629, Note_on_c, 1, 43, 0
3, 62640, Note_on_c, 1, 42, 33
3, 62750, Note_on_c, 1, 42, 0
3, 62760, Note_on_c, 1, 42, 74
3, 62880, Note_on_c, 1, 42, 0
3, 62885, Note_on_c, 1, 41, 45
3, 63004, Note_on_c, 1, 36, 83
3, 63006, Note_on_c, 1, 41, 0
3, 63007, Note_on_c, 1, 37, 37
3, 63021, Note_on_c, 1, 37, 0
3, 63122, Note_on_c, 1, 36, 0
3, 63127, Note_on_c, 1, 34, 46
3, 63240, Note_on_c, 1, 46, 85
3, 63348, Note_on_c, 1, 46, 0
3, 63360, Note_on_c, 1, 34, 0
3, 63364, Note_on_c, 1, 39, 37
3, 63470, Note_on_c, 1, 39, 0
3, 63477, Note_on_c, 1, 39, 74
3, 63592, Note_on_c, 1, 39, 0
3, 63602, Note_on_c, 1, 34, 44
3, 63717, Note_on_c, 1, 34, 0
3, 63717, Note_on_c, 1, 35, 75
3, 63836, Note_on_c, 1, 35, 0
3, 63839, Note_on_c, 1, 36, 60
3, 63960, Note_on_c, 1, 49, 74
3, 63970, Note_on_c, 1, 36, 0
3, 64079, Note_on_c, 1, 49, 0
3, 64084, Note_on_c, 1, 48, 55
3, 64197, Note_on_c, 1, 48, 0
3, 64198, Note_on_c, 1, 42, 50
3, 64309, Note_on_c, 1, 42, 0
3, 64321, Note_on_c, 1, 41, 44
3, 64436, Note_on_c, 1, 36, 41
3, 64440, Note_on_c, 1, 41, 0
3, 64560, Note_on_c, 1, 32, 49
3, 64567, Note_on_c, 1, 36, 0
3, 64669, Note_on_c, 1, 32, 0
3, 64685, Note_on_c, 1, 32, 49
3, 64789, Note_on_c, 1, 32, 0
3, 64805, Note_on_c, 1, 32, 45
3, 65003, Note_on_c, 1, 47, 56
3, 65032, Note_on_c, 1, 47, 0
3, 65046, Note_on_c, 1, 49, 44
3, 65077, Note_on_c, 1, 32, 0
3, 65161, Note_on_c, 1, 47, 58
3, 65164, Note_on_c, 1, 49, 0
3, 65247, Note_on_c, 1, 42, 34
3, 65253, Note_on_c, 1, 42, 0
3, 65259, Note_on_c, 1, 47, 0
3, 65281, Note_on_c, 1, 46, 49
3, 65365, Note_on_c, 1, 43, 57
3, 65375, Note_on_c, 1, 43, 0
3, 65400, Note_on_c, 1, 46, 0
3, 65401, Note_on_c, 1, 34, 58
3, 65599, Note_on_c, 1, 46, 59
3, 65605, Note_on_c, 1, 46, 0
3, 65607, Note_on_c, 1, 34, 0
3, 65633, Note_on_c, 1, 34, 45
3, 65708, Note_on_c, 1, 34, 0
3, 65717, Note_on_c, 1, 40, 51
3, 65737, Note_on_c, 1, 40, 0
3, 65752, Note_on_c, 1, 41, 49
3, 65765, Note_on_c, 1, 41, 0
3, 65837, Note_on_c, 1, 36, 48
3, 65845, Note_on_c, 1, 36, 0
3, 65874, Note_on_c, 1, 29, 50
3, 66077, Note_on_c, 1, 41, 48
3, 66086, Note_on_c, 1, 41, 0
3, 66114, Note_on_c, 1, 29, 0
3, 66114, Note_on_c, 1, 35, 63
3, 66226, Note_on_c, 1, 35, 0
3, 66237, Note_on_c, 1, 34, 60
3, 66358, Note_on_c, 1, 46, 85
3, 66562, Note_on_c, 1, 37, 36
3, 66565, Note_on_c, 1, 34, 0
3, 66570, Note_on_c, 1, 46, 0
3, 66592, Note_on_c, 1, 37, 0
3, 66605, Note_on_c, 1, 38, 47
3, 66681, Note_on_c, 1, 39, 73
3, 66684, Note_on_c, 1, 38, 0
3, 66806, Note_on_c, 1, 39, 0
3, 66806, End_track
4, 0, Start_track
4, 0, Program_c, 2, 32
4, 0, Control_c, 2, 7, 56
4, 21116, Note_on_c, 2, 36, 17
4, 21313, Note_on_c, 2, 36, 0
4, 21313, Note_on_c, 2, 44, 63
4, 21343, Note_on_c, 2, 44, 0
4, 21357, Note_on_c, 2, 45, 57
4, 21526, Note_on_c, 2, 40, 52
4, 21528, Note_on_c, 2, 45, 0
4, 21543, Note_on_c, 2, 40, 0
4, 21559, Note_on_c, 2, 39, 74
4, 21575, Note_on_c, 2, 39, 0
4, 21604, Note_on_c, 2, 38, 55
4, 21682, Note_on_c, 2, 44, 69
4, 21706, Note_on_c, 2, 38, 0
4, 21712, Note_on_c, 2, 44, 0
4, 21728, Note_on_c, 2, 43, 47
4, 21796, Note_on_c, 2, 43, 0
4, 21801, Note_on_c, 2, 38, 47
4, 21832, Note_on_c, 2, 38, 0
4, 21844, Note_on_c, 2, 31, 53
4, 22003, Note_on_c, 2, 31, 0
4, 22004, Note_on_c, 2, 34, 45
4, 22020, Note_on_c, 2, 34, 0
4, 22034, Note_on_c, 2, 35, 48
4, 22062, Note_on_c, 2, 35, 0
4, 22075, Note_on_c, 2, 36, 54
4, 22320, Note_on_c, 2, 36, 0
4, 22324, Note_on_c, 2, 34, 59
4, 22560, Note_on_c, 2, 33, 65
4, 22561, Note_on_c, 2, 34, 0
4, 22801, Note_on_c, 2, 32, 80
4, 22807, Note_on_c, 2, 33, 0
4, 23000, Note_on_c, 2, 44, 88
4, 23019, Note_on_c, 2, 32, 0
4, 23032, Note_on_c, 2, 44, 0
4, 23041, Note_on_c, 2, 43, 67
4, 23270, Note_on_c, 2, 43, 0
4, 23276, Note_on_c, 2, 40, 47
4, 23358, Note_on_c, 2, 46, 77
4, 23386, Note_on_c, 2, 46, 0
4, 23396, Note_on_c, 2, 40, 0
4, 23399, Note_on_c, 2, 44, 63
4, 23477, Note_on_c, 2, 40, 48
4, 23486, Note_on_c, 2, 40, 0
4, 23509, Note_on_c, 2, 44, 0
4, 23516, Note_on_c, 2, 45, 62
4, 23524, Note_on_c, 2, 45, 0
4, 23554, Note_on_c, 2, 40, 58
4, 23624, Note_on_c, 2, 40, 0
4, 23633, Note_on_c, 2, 37, 47
4, 23837, Note_on_c, 2, 37, 0
4, 23841, Note_on_c, 2, 38, 72
4, 23919, Note_on_c, 2, 38, 0
4, 23928, Note_on_c, 2, 50, 57
4, 23935, Note_on_c, 2, 50, 0
4, 23963, Note_on_c, 2, 42, 47
4, 23999, Note_on_c, 2, 42, 0
4, 24007, Note_on_c, 2, 43, 38
4, 24200, Note_on_c, 2, 39, 36
4, 24212, Note_on_c, 2, 43, 0
4, 24221, Note_on_c, 2, 39, 0
4, 24234, Note_on_c, 2, 42, 48
4, 24434, Note_on_c, 2, 42, 0
4, 24434, Note_on_c, 2, 40, 40
4, 24461, Note_on_c, 2, 40, 0
4, 24475, Note_on_c, 2, 41, 58
4, 24493, Note_on_c, 2, 41, 0
4, 24557, Note_on_c, 2, 36, 55
4, 24587, Note_on_c, 2, 36, 0
4, 24602, Note_on_c, 2, 34, 64
4, 24839, Note_on_c, 2, 46, 81
4, 24855, Note_on_c, 2, 34, 0
4, 24962, Note_on_c, 2, 46, 0
4, 24963, Note_on_c, 2, 39, 65
4, 25557, Note_on_c, 2, 46, 81
4, 25559, Note_on_c, 2, 39, 0
4, 25753, Note_on_c, 2, 46, 0
4, 25764, Note_on_c, 2, 39, 43
4, 25788, Note_on_c, 2, 39, 0
4, 25805, Note_on_c, 2, 33, 64
4, 25904, Note_on_c, 2, 33, 0
4, 25915, Note_on_c, 2, 32, 52
4, 26115, Note_on_c, 2, 39, 43
4, 26140, Note_on_c, 2, 39, 0
4, 26141, Note_on_c, 2, 32, 0
4, 26153, Note_on_c, 2, 44, 69
4, 26358, Note_on_c, 2, 46, 47
4, 26368, Note_on_c, 2, 46, 0
4, 26398, Note_on_c, 2, 44, 0
4, 26401, Note_on_c, 2, 48, 57
4, 26408, Note_on_c, 2, 48, 0
4, 26481, Note_on_c, 2, 46, 47
4, 26498, Note_on_c, 2, 46, 0
4, 26524, Note_on_c, 2, 44, 61
4, 26604, Note_on_c, 2, 39, 40
4, 26610, Note_on_c, 2, 39, 0
4, 26610, Note_on_c, 2, 44, 0
4, 26639, Note_on_c, 2, 32, 63
4, 26754, Note_on_c, 2, 32, 0
4, 26758, Note_on_c, 2, 42, 68
4, 26873, Note_on_c, 2, 42, 0
4, 26879, Note_on_c, 2, 41, 66
4, 27046, Note_on_c, 2, 36, 53
4, 27049, Note_on_c, 2, 41, 0
4, 27056, Note_on_c, 2, 36, 0
4, 27079, Note_on_c, 2, 30, 51
4, 27099, Note_on_c, 2, 30, 0
4, 27122, Note_on_c, 2, 29, 59
4, 27291, Note_on_c, 2, 29, 0
4, 27292, Note_on_c, 2, 31, 57
4, 27315, Note_on_c, 2, 31, 0
4, 27320, Note_on_c, 2, 32, 61
4, 27338, Note_on_c, 2, 32, 0
4, 27361, Note_on_c, 2, 33, 60
4, 27553, Note_on_c, 2, 33, 0
4, 27555, Note_on_c, 2, 36, 48
4, 27564, Note_on_c, 2, 36, 0
4, 27594, Note_on_c, 2, 41, 73
4, 27767, Note_on_c, 2, 41, 0
4, 27767, Note_on_c, 2, 36, 50
4, 27779, Note_on_c, 2, 36, 0
4, 27797, Note_on_c, 2, 35, 58
4, 27816, Note_on_c, 2, 35, 0
4, 27839, Note_on_c, 2, 34, 75
4, 27966, Note_on_c, 2, 46, 84
4, 28065, Note_on_c, 2, 46, 0
4, 28086, Note_on_c, 2, 45, 69
4, 28096, Note_on_c, 2, 34, 0
4, 28324, Note_on_c, 2, 45, 0
4, 28327, Note_on_c, 2, 32, 65
4, 28559, Note_on_c, 2, 43, 44
4, 28560, Note_on_c, 2, 32, 0
4, 28605, Note_on_c, 2, 43, 0
4, 28639, Note_on_c, 2, 38, 40
4, 28649, Note_on_c, 2, 38, 0
4, 28675, Note_on_c, 2, 35, 55
4, 28796, Note_on_c, 2, 35, 0
4, 28805, Note_on_c, 2, 36, 51
4, 29040, Note_on_c, 2, 45, 66
4, 29045, Note_on_c, 2, 36, 0
4, 29279, Note_on_c, 2, 38, 61
4, 29281, Note_on_c, 2, 45, 0
4, 29405, Note_on_c, 2, 38, 0
4, 29406, Note_on_c, 2, 44, 75
4, 29602, Note_on_c, 2, 38, 33
4, 29607, Note_on_c, 2, 44, 0
4, 29626, Note_on_c, 2, 38, 0
4, 29634, Note_on_c, 2, 43, 51
4, 29660, Note_on_c, 2, 43, 0
4, 29674, Note_on_c, 2, 38, 55
4, 29755, Note_on_c, 2, 38, 0
4, 29760, Note_on_c, 2, 36, 68
4, 29991, Note_on_c, 2, 36, 0
4, 29998, Note_on_c, 2, 34, 56
4, 30240, Note_on_c, 2, 34, 0
4, 30240, Note_on_c, 2, 33, 57
4, 30360, Note_on_c, 2, 33, 0
4, 30362, Note_on_c, 2, 45, 73
4, 30482, Note_on_c, 2, 45, 0
4, 30482, Note_on_c, 2, 44, 71
4, 30680, Note_on_c, 2, 42, 46
4, 30683, Note_on_c, 2, 44, 0
4, 30705, Note_on_c, 2, 42, 0
4, 30719, Note_on_c, 2, 43, 49
4, 30956, Note_on_c, 2, 43, 0
4, 30961, Note_on_c, 2, 40, 57
4, 31082, Note_on_c, 2, 33, 80
4, 31086, Note_on_c, 2, 40, 0
4, 31198, Note_on_c, 2, 39, 83
4, 31201, Note_on_c, 2, 33, 0
4, 31399, Note_on_c, 2, 39, 0
4, 31399, Note_on_c, 2, 37, 59
4, 31421, Note_on_c, 2, 37, 0
4, 31436, Note_on_c, 2, 38, 63
4, 31479, Note_on_c, 2, 38, 0
4, 31559, Note_on_c, 2, 44, 56
4, 31638, Note_on_c, 2, 44, 0
4, 31643, Note_on_c, 2, 42, 37
4, 31668, Note_on_c, 2, 42, 0
4, 31680, Note_on_c, 2, 43, 52
4, 31762, Note_on_c, 2, 38, 57
4, 31768, Note_on_c, 2, 38, 0
4, 31801, Note_on_c, 2, 31, 72
4, 31989, Note_on_c, 2, 31, 0
4, 31998, Note_on_c, 2, 42, 70
4, 32008, Note_on_c, 2, 43, 0
4, 32022, Note_on_c, 2, 42, 0
4, 32035, Note_on_c, 2, 30, 67
4, 32161, Note_on_c, 2, 41, 82
4, 32183, Note_on_c, 2, 30, 0
4, 32234, Note_on_c, 2, 41, 0
4, 32238, Note_on_c, 2, 29, 61
4, 32395, Note_on_c, 2, 29, 0
4, 32398, Note_on_c, 2, 34, 69
4, 32567, Note_on_c, 2, 37, 49
4, 32577, Note_on_c, 2, 34, 0
4, 32583, Note_on_c, 2, 37, 0
4, 32602, Note_on_c, 2, 38, 56
4, 32617, Note_on_c, 2, 38, 0
4, 32639, Note_on_c, 2, 39, 60
4, 32879, Note_on_c, 2, 39, 0
4, 32881, Note_on_c, 2, 51, 84
4, 33120, Note_on_c, 2, 51, 0
4, 33120, Note_on_c, 2, 48, 64
4, 33365, Note_on_c, 2, 55, 74
4, 33373, Note_on_c, 2, 48, 0
4, 33484, Note_on_c, 2, 55, 0
4, 33489, Note_on_c, 2, 54, 53
4, 33598, Note_on_c, 2, 54, 0
4, 33608, Note_on_c, 2, 53, 47
4, 33683, Note_on_c, 2, 53, 0
4, 33692, Note_on_c, 2, 48, 25
4, 33705, Note_on_c, 2, 48, 0
4, 33721, Note_on_c, 2, 44, 56
4, 33833, Note_on_c, 2, 44, 0
4, 33838, Note_on_c, 2, 43, 50
4, 33946, Note_on_c, 2, 43, 0
4, 33951, Note_on_c, 2, 41, 53
4, 34063, Note_on_c, 2, 41, 0
4, 34070, Note_on_c, 2, 44, 77
4, 34325, Note_on_c, 2, 37, 44
4, 34338, Note_on_c, 2, 44, 0
4, 34541, Note_on_c, 2, 37, 0
4, 34560, Note_on_c, 2, 34, 57
4, 34641, Note_on_c, 2, 46, 64
4, 34715, Note_on_c, 2, 46, 0
4, 34802, Note_on_c, 2, 46, 57
4, 34959, Note_on_c, 2, 46, 0
4, 34962, Note_on_c, 2, 34, 0
4, 34967, Note_on_c, 2, 39, 48
4, 34984, Note_on_c, 2, 39, 0
4, 35002, Note_on_c, 2, 40, 54
4, 35026, Note_on_c, 2, 40, 0
4, 35041, Note_on_c, 2, 41, 54
4, 35066, Note_on_c, 2, 41, 0
4, 35119, Note_on_c, 2, 36, 62
4, 35136, Note_on_c, 2, 36, 0
4, 35163, Note_on_c, 2, 29, 44
4, 35354, Note_on_c, 2, 41, 67
4, 35369, Note_on_c, 2, 29, 0
4, 35516, Note_on_c, 2, 41, 0
4, 35519, Note_on_c, 2, 34, 58
4, 35601, Note_on_c, 2, 46, 61
4, 35812, Note_on_c, 2, 34, 0
4, 35845, Note_on_c, 2, 34, 46
4, 35853, Note_on_c, 2, 46, 0
4, 35884, Note_on_c, 2, 46, 59
4, 36045, Note_on_c, 2, 34, 0
4, 36075, Note_on_c, 2, 34, 46
4, 36083, Note_on_c, 2, 46, 0
4, 36116, Note_on_c, 2, 46, 56
4, 36143, Note_on_c, 2, 34, 0
4, 36189, Note_on_c, 2, 34, 54
4, 36208, Note_on_c, 2, 46, 0
4, 36215, Note_on_c, 2, 34, 0
4, 36231, Note_on_c, 2, 47, 62
4, 36312, Note_on_c, 2, 35, 68
4, 36459, Note_on_c, 2, 35, 0
4, 36466, Note_on_c, 2, 47, 0
4, 36475, Note_on_c, 2, 36, 61
4, 36563, Note_on_c, 2, 43, 39
4, 36572, Note_on_c, 2, 43, 0
4, 36597, Note_on_c, 2, 48, 70
4, 36617, Note_on_c, 2, 36, 0
4, 36724, Note_on_c, 2, 44, 34
4, 36729, Note_on_c, 2, 48, 0
4, 36840, Note_on_c, 2, 44, 0
4, 36842, Note_on_c, 2, 45, 50
4, 36957, Note_on_c, 2, 45, 0
4, 36961, Note_on_c, 2, 38, 47
4, 37074, Note_on_c, 2, 38, 0
4, 37078, Note_on_c, 2, 44, 55
4, 37165, Note_on_c, 2, 44, 0
4, 37167, Note_on_c, 2, 42, 36
4, 37186, Note_on_c, 2, 42, 0
4, 37200, Note_on_c, 2, 43, 51
4, 37273, Note_on_c, 2, 43, 0
4, 37280, Note_on_c, 2, 38, 48
4, 37301, Note_on_c, 2, 38, 0
4, 37317, Note_on_c, 2, 35, 45
4, 37431, Note_on_c, 2, 35, 0
4, 37442, Note_on_c, 2, 36, 47
4, 37677, Note_on_c, 2, 36, 0
4, 37682, Note_on_c, 2, 34, 52
4, 37804, Note_on_c, 2, 46, 63
4, 37860, Note_on_c, 2, 34, 0
4, 37883, Note_on_c, 2, 39, 32
4, 37888, Note_on_c, 2, 46, 0
4, 37912, Note_on_c, 2, 39, 0
4, 37914, Note_on_c, 2, 45, 48
4, 38022, Note_on_c, 2, 45, 0
4, 38035, Note_on_c, 2, 45, 64
4, 38147, Note_on_c, 2, 45, 0
4, 38156, Note_on_c, 2, 44, 37
4, 38274, Note_on_c, 2, 42, 49
4, 38279, Note_on_c, 2, 44, 0
4, 38391, Note_on_c, 2, 42, 0
4, 38399, Note_on_c, 2, 43, 53
4, 38479, Note_on_c, 2, 43, 0
4, 38484, Note_on_c, 2, 38, 33
4, 38501, Note_on_c, 2, 38, 0
4, 38513, Note_on_c, 2, 34, 60
4, 38633, Note_on_c, 2, 40, 51
4, 38637, Note_on_c, 2, 34, 0
4, 38746, Note_on_c, 2, 40, 0
4, 38750, Note_on_c, 2, 34, 52
4, 38869, Note_on_c, 2, 33, 53
4, 38870, Note_on_c, 2, 34, 0
4, 38992, Note_on_c, 2, 39, 63
4, 38994, Note_on_c, 2, 33, 0
4, 39078, Note_on_c, 2, 39, 0
4, 39081, Note_on_c, 2, 37, 33
4, 39109, Note_on_c, 2, 37, 0
4, 39114, Note_on_c, 2, 38, 53
4, 39235, Note_on_c, 2, 38, 0
4, 39235, Note_on_c, 2, 44, 60
4, 39316, Note_on_c, 2, 42, 40
4, 39319, Note_on_c, 2, 37, 27
4, 39322, Note_on_c, 2, 44, 0
4, 39334, Note_on_c, 2, 37, 0
4, 39344, Note_on_c, 2, 42, 0
4, 39354, Note_on_c, 2, 43, 57
4, 39462, Note_on_c, 2, 43, 0
4, 39475, Note_on_c, 2, 43, 55
4, 39589, Note_on_c, 2, 43, 0
4, 39600, Note_on_c, 2, 42, 60
4, 39641, Pitch_bend_c, 2, 8192
4, 39642, Pitch_bend_c, 2, 8192
4, 39644, Pitch_bend_c, 2, 8712
4, 39644, Pitch_bend_c, 2, 8972
4, 39646, Pitch_bend_c, 2, 9232
4, 39648, Pitch_bend_c, 2, 9622
4, 39648, Pitch_bend_c, 2, 9752
4, 39650, Pitch_bend_c, 2, 10012
4, 39652, Pitch_bend_c, 2, 10142
4, 39658, Pitch_bend_c, 2, 9882
4, 39659, Pitch_bend_c, 2, 9752
4, 39661, Pitch_bend_c, 2, 9492
4, 39662, Pitch_bend_c, 2, 9362
4, 39663, Pitch_bend_c, 2, 9102
4, 39665, Pitch_bend_c, 2, 8842
4, 39666, Pitch_bend_c, 2, 8192
4, 39666, Pitch_bend_c, 2, 8192
4, 39700, Pitch_bend_c, 2, 8192
4, 39701, Pitch_bend_c, 2, 8192
4, 39702, Pitch_bend_c, 2, 8712
4, 39704, Pitch_bend_c, 2, 9102
4, 39705, Pitch_bend_c, 2, 9362
4, 39706, Pitch_bend_c, 2, 9622
4, 39707, Pitch_bend_c, 2, 9882
4, 39708, Pitch_bend_c, 2, 10012
4, 39710, Pitch_bend_c, 2, 10142
4, 39711, Pitch_bend_c, 2, 10272
4, 39716, Pitch_bend_c, 2, 10142
4, 39717, Pitch_bend_c, 2, 10012
4, 39719, Pitch_bend_c, 2, 9752
4, 39719, Pitch_bend_c, 2, 9492
4, 39721, Pitch_bend_c, 2, 9232
4, 39722, Pitch_bend_c, 2, 8842
4, 39724, Pitch_bend_c, 2, 8192
4, 39724, Pitch_bend_c, 2, 8192
4, 39842, Note_on_c, 2, 42, 0
4, 39845, Note_on_c, 2, 41, 51
4, 39922, Note_on_c, 2, 36, 45
4, 39933, Note_on_c, 2, 36, 0
4, 39943, Note_on_c, 2, 41, 0
4, 39958, Note_on_c, 2, 33, 58
4, 40076, Note_on_c, 2, 33, 0
4, 40080, Note_on_c, 2, 34, 46
4, 40202, Note_on_c, 2, 34, 0
4, 40202, Note_on_c, 2, 38, 55
4, 40293, Note_on_c, 2, 38, 0
4, 40319, Note_on_c, 2, 39, 69
4, 40335, Control_c, 2, 1, 6
4, 40336, Control_c, 2, 1, 9
4, 40336, Control_c, 2, 1, 13
4, 40336, Control_c, 2, 1, 16
4, 40337, Control_c, 2, 1, 19
4, 40338, Control_c, 2, 1, 22
4, 40339, Control_c, 2, 1, 25
4, 40340, Control_c, 2, 1, 27
4, 40341, Control_c, 2, 1, 30
4, 40341, Control_c, 2, 1, 32
4, 40342, Control_c, 2, 1, 34
4, 40342, Control_c, 2, 1, 36
4, 40343, Control_c, 2, 1, 38
4, 40343, Control_c, 2, 1, 40
4, 40344, Control_c, 2, 1, 42
4, 40345, Control_c, 2, 1, 44
4, 40346, Control_c, 2, 1, 46
4, 40347, Control_c, 2, 1, 48
4, 40347, Control_c, 2, 1, 50
4, 40348, Control_c, 2, 1, 52
4, 40348, Control_c, 2, 1, 54
4, 40349, Control_c, 2, 1, 56
4, 40350, Control_c, 2, 1, 59
4, 40350, Control_c, 2, 1, 61
4, 40352, Control_c, 2, 1, 63
4, 40352, Control_c, 2, 1, 66
4, 40353, Control_c, 2, 1, 68
4, 40353, Control_c, 2, 1, 71
4, 40356, Control_c, 2, 1, 73
4, 40356, Control_c, 2, 1, 75
4, 40356, Control_c, 2, 1, 77
4, 40356, Control_c, 2, 1, 79
4, 40356, Control_c, 2, 1, 82
4, 40360, Control_c, 2, 1, 84
4, 40360, Control_c, 2, 1, 86
4, 40360, Control_c, 2, 1, 88
4, 40360, Control_c, 2, 1, 90
4, 40360, Control_c, 2, 1, 92
4, 40361, Control_c, 2, 1, 94
4, 40362, Control_c, 2, 1, 96
4, 40365, Control_c, 2, 1, 98
4, 40365, Control_c, 2, 1, 99
4, 40365, Control_c, 2, 1, 101
4, 40365, Control_c, 2, 1, 103
4, 40365, Control_c, 2, 1, 105
4, 40367, Control_c, 2, 1, 106
4, 40367, Control_c, 2, 1, 108
4, 40367, Control_c, 2, 1, 109
4, 40369, Control_c, 2, 1, 111
4, 40369, Control_c, 2, 1, 112
4, 40369, Control_c, 2, 1, 113
4, 40371, Control_c, 2, 1, 115
4, 40372, Control_c, 2, 1, 116
4, 40372, Control_c, 2, 1, 117
4, 40374, Control_c, 2, 1, 118
4, 40374, Control_c, 2, 1, 119
4, 40374, Control_c, 2, 1, 120
4, 40374, Control_c, 2, 1, 121
4, 40374, Control_c, 2, 1, 122
4, 40376, Control_c, 2, 1, 124
4, 40377, Control_c, 2, 1, 125
4, 40380, Control_c, 2, 1, 126
4, 40382, Control_c, 2, 1, 127
4, 40397, Control_c, 2, 1, 126
4, 40399, Control_c, 2, 1, 125
4, 40401, Control_c, 2, 1, 123
4, 40403, Control_c, 2, 1, 121
4, 40404, Control_c, 2, 1, 120
4, 40404, Control_c, 2, 1, 119
4, 40404, Control_c, 2, 1, 118
4, 40405, Control_c, 2, 1, 117
4, 40406, Control_c, 2, 1, 116
4, 40407, Control_c, 2, 1, 114
4, 40408, Control_c, 2, 1, 113
4, 40408, Control_c, 2, 1, 112
4, 40409, Control_c, 2, 1, 111
4, 40409, Control_c, 2, 1, 109
4, 40410, Control_c, 2, 1, 108
4, 40411, Control_c, 2, 1, 106
4, 40412, Control_c, 2, 1, 105
4, 40412, Control_c, 2, 1, 104
4, 40413, Control_c, 2, 1, 102
4, 40413, Control_c, 2, 1, 100
4, 40414, Control_c, 2, 1, 99
4, 40415, Control_c, 2, 1, 97
4, 40416, Control_c, 2, 1, 95
4, 40416, Control_c, 2, 1, 94
4, 40417, Control_c, 2, 1, 91
4, 40418, Control_c, 2, 1, 90
4, 40418, Control_c, 2, 1, 88
4, 40419, Control_c, 2, 1, 86
4, 40419, Control_c, 2, 1, 84
4, 40420, Control_c, 2, 1, 82
4, 40421, Control_c, 2, 1, 80
4, 40422, Control_c, 2, 1, 78
4, 40423, Control_c, 2, 1, 76
4, 40423, Control_c, 2, 1, 74
4, 40424, Control_c, 2, 1, 71
4, 40424, Control_c, 2, 1, 69
4, 40425, Control_c, 2, 1, 67
4, 40426, Control_c, 2, 1, 65
4, 40427, Control_c, 2, 1, 62
4, 40427, Control_c, 2, 1, 60
4, 40428, Control_c, 2, 1, 57
4, 40429, Control_c, 2, 1, 55
4, 40429, Control_c, 2, 1, 52
4, 40430, Control_c, 2, 1, 50
4, 40430, Control_c, 2, 1, 47
4, 40431, Control_c, 2, 1, 44
4, 40432, Control_c, 2, 1, 41
4, 40433, Control_c, 2, 1, 39
4, 40433, Control_c, 2, 1, 35
4, 40434, Control_c, 2, 1, 33
4, 40435, Control_c, 2, 1, 29
4, 40435, Control_c, 2, 1, 26
4, 40436, Control_c, 2, 1, 23
4, 40436, Control_c, 2, 1, 19
4, 40437, Control_c, 2, 1, 16
4, 40438, Control_c, 2, 1, 12
4, 40438, Control_c, 2, 1, 9
4, 40439, Control_c, 2, 1, 5
4, 40440, Control_c, 2, 1, 2
4, 40441, Control_c, 2, 1, 0
4, 40549, Note_on_c, 2, 39, 0
4, 40563, Note_on_c, 2, 39, 65
4, 40627, Control_c, 2, 1, 4
4, 40628, Control_c, 2, 1, 6
4, 40628, Control_c, 2, 1, 9
4, 40628, Control_c, 2, 1, 12
4, 40629, Control_c, 2, 1, 14
4, 40630, Control_c, 2, 1, 17
4, 40631, Control_c, 2, 1, 20
4, 40632, Control_c, 2, 1, 23
4, 40633, Control_c, 2, 1, 26
4, 40633, Control_c, 2, 1, 29
4, 40634, Control_c, 2, 1, 32
4, 40634, Control_c, 2, 1, 35
4, 40635, Control_c, 2, 1, 37
4, 40636, Control_c, 2, 1, 40
4, 40637, Control_c, 2, 1, 43
4, 40637, Control_c, 2, 1, 46
4, 40638, Control_c, 2, 1, 49
4, 40639, Control_c, 2, 1, 52
4, 40639, Control_c, 2, 1, 54
4, 40639, Control_c, 2, 1, 57
4, 40640, Control_c, 2, 1, 60
4, 40641, Control_c, 2, 1, 63
4, 40642, Control_c, 2, 1, 66
4, 40642, Control_c, 2, 1, 68
4, 40643, Control_c, 2, 1, 71
4, 40644, Control_c, 2, 1, 74
4, 40645, Control_c, 2, 1, 76
4, 40646, Control_c, 2, 1, 79
4, 40646, Control_c, 2, 1, 81
4, 40647, Control_c, 2, 1, 84
4, 40647, Control_c, 2, 1, 87
4, 40648, Control_c, 2, 1, 89
4, 40649, Control_c, 2, 1, 91
4, 40650, Control_c, 2, 1, 93
4, 40650, Control_c, 2, 1, 95
4, 40651, Control_c, 2, 1, 97
4, 40651, Control_c, 2, 1, 99
4, 40652, Control_c, 2, 1, 101
4, 40653, Control_c, 2, 1, 103
4, 40654, Control_c, 2, 1, 105
4, 40654, Control_c, 2, 1, 106
4, 40655, Control_c, 2, 1, 108
4, 40656, Control_c, 2, 1, 110
4, 40657, Control_c, 2, 1, 112
4, 40657, Control_c, 2, 1, 113
4, 40658, Control_c, 2, 1, 114
4, 40658, Control_c, 2, 1, 115
4, 40659, Control_c, 2, 1, 116
4, 40660, Control_c, 2, 1, 117
4, 40661, Control_c, 2, 1, 118
4, 40661, Control_c, 2, 1, 119
4, 40663, Control_c, 2, 1, 121
4, 40665, Control_c, 2, 1, 122
4, 40673, Control_c, 2, 1, 121
4, 40675, Control_c, 2, 1, 120
4, 40677, Control_c, 2, 1, 118
4, 40679, Control_c, 2, 1, 116
4, 40681, Control_c, 2, 1, 114
4, 40682, Control_c, 2, 1, 113
4, 40684, Control_c, 2, 1, 110
4, 40685, Control_c, 2, 1, 108
4, 40685, Control_c, 2, 1, 106
4, 40686, Control_c, 2, 1, 105
4, 40686, Control_c, 2, 1, 103
4, 40687, Control_c, 2, 1, 101
4, 40688, Control_c, 2, 1, 99
4, 40688, Control_c, 2, 1, 97
4, 40689, Control_c, 2, 1, 95
4, 40689, Control_c, 2, 1, 92
4, 40690, Control_c, 2, 1, 90
4, 40691, Control_c, 2, 1, 87
4, 40692, Control_c, 2, 1, 84
4, 40692, Control_c, 2, 1, 81
4, 40693, Control_c, 2, 1, 78
4, 40694, Control_c, 2, 1, 75
4, 40695, Control_c, 2, 1, 71
4, 40696, Control_c, 2, 1, 68
4, 40696, Control_c, 2, 1, 64
4, 40697, Control_c, 2, 1, 60
4, 40697, Control_c, 2, 1, 55
4, 40698, Control_c, 2, 1, 51
4, 40699, Control_c, 2, 1, 47
4, 40700, Control_c, 2, 1, 42
4, 40700, Control_c, 2, 1, 37
4, 40700, Control_c, 2, 1, 33
4, 40701, Control_c, 2, 1, 29
4, 40702, Control_c, 2, 1, 24
4, 40703, Control_c, 2, 1, 19
4, 40704, Control_c, 2, 1, 14
4, 40704, Control_c, 2, 1, 9
4, 40704, Control_c, 2, 1, 5
4, 40705, Control_c, 2, 1, 1
4, 40758, Note_on_c, 2, 38, 57
4, 40770, Note_on_c, 2, 39, 0
4, 40803, Note_on_c, 2, 38, 0
4, 40805, Note_on_c, 2, 34, 61
4, 40919, Note_on_c, 2, 46, 74
4, 40927, Note_on_c, 2, 47, 38
4, 40945, Note_on_c, 2, 34, 0
4, 41033, Note_on_c, 2, 47, 0
4, 41040, Note_on_c, 2, 39, 46
4, 41046, Note_on_c, 2, 46, 0
4, 41160, Note_on_c, 2, 51, 69
4, 41167, Note_on_c, 2, 39, 0
4, 41280, Note_on_c, 2, 44, 63
4, 41282, Note_on_c, 2, 51, 0
4, 41369, Note_on_c, 2, 39, 25
4, 41394, Note_on_c, 2, 39, 0
4, 41398, Note_on_c, 2, 50, 65
4, 41415, Note_on_c, 2, 44, 0
4, 41503, Note_on_c, 2, 50, 0
4, 41517, Note_on_c, 2, 44, 36
4, 41599, Note_on_c, 2, 39, 44
4, 41609, Note_on_c, 2, 39, 0
4, 41719, Note_on_c, 2, 34, 30
4, 41740, Note_on_c, 2, 34, 0
4, 41757, Note_on_c, 2, 32, 51
4, 41868, Note_on_c, 2, 32, 0
4, 41878, Note_on_c, 2, 34, 46
4, 41993, Note_on_c, 2, 34, 0
4, 42001, Note_on_c, 2, 36, 46
4, 42111, Note_on_c, 2, 36, 0
4, 42121, Note_on_c, 2, 39, 52
4, 42123, Note_on_c, 2, 44, 0
4, 42234, Note_on_c, 2, 39, 0
4, 42242, Note_on_c, 2, 41, 54
4, 42324, Note_on_c, 2, 36, 53
4, 42332, Note_on_c, 2, 36, 0
4, 42356, Note_on_c, 2, 30, 62
4, 42464, Note_on_c, 2, 30, 0
4, 42479, Note_on_c, 2, 41, 0
4, 42479, Note_on_c, 2, 29, 63
4, 42600, Note_on_c, 2, 41, 72
4, 42612, Note_on_c, 2, 29, 0
4, 42704, Note_on_c, 2, 39, 20
4, 42717, Note_on_c, 2, 39, 0
4, 42724, Note_on_c, 2, 45, 74
4, 42725, Note_on_c, 2, 41, 0
4, 42809, Note_on_c, 2, 41, 22
4, 42815, Note_on_c, 2, 41, 0
4, 42830, Note_on_c, 2, 45, 0
4, 42839, Note_on_c, 2, 43, 49
4, 42956, Note_on_c, 2, 43, 0
4, 42957, Note_on_c, 2, 41, 47
4, 43040, Note_on_c, 2, 41, 0
4, 43040, Note_on_c, 2, 36, 48
4, 43060, Note_on_c, 2, 36, 0
4, 43076, Note_on_c, 2, 35, 49
4, 43193, Note_on_c, 2, 35, 0
4, 43194, Note_on_c, 2, 34, 46
4, 43316, Note_on_c, 2, 46, 67
4, 43343, Note_on_c, 2, 34, 0
4, 43408, Note_on_c, 2, 34, 21
4, 43423, Note_on_c, 2, 34, 0
4, 43435, Note_on_c, 2, 46, 0
4, 43436, Note_on_c, 2, 45, 55
4, 43521, Note_on_c, 2, 33, 73
4, 43526, Note_on_c, 2, 45, 0
4, 43560, Note_on_c, 2, 49, 71
4, 43681, Note_on_c, 2, 32, 64
4, 43684, Note_on_c, 2, 33, 0
4, 43698, Note_on_c, 2, 49, 0
4, 43765, Note_on_c, 2, 48, 63
4, 43827, Note_on_c, 2, 32, 0
4, 43859, Note_on_c, 2, 33, 43
4, 43867, Note_on_c, 2, 33, 0
4, 43887, Note_on_c, 2, 32, 60
4, 43891, Note_on_c, 2, 48, 0
4, 43909, Note_on_c, 2, 32, 0
4, 43925, Note_on_c, 2, 31, 68
4, 44005, Note_on_c, 2, 47, 71
4, 44044, Note_on_c, 2, 34, 46
4, 44045, Note_on_c, 2, 31, 0
4, 44052, Note_on_c, 2, 47, 0
4, 44062, Note_on_c, 2, 34, 0
4, 44085, Note_on_c, 2, 35, 53
4, 44108, Note_on_c, 2, 35, 0
4, 44121, Note_on_c, 2, 36, 91
4, 44270, Note_on_c, 2, 36, 0
4, 44275, Note_on_c, 2, 43, 53
4, 44387, Note_on_c, 2, 43, 0
4, 44396, Note_on_c, 2, 48, 47
4, 44485, Note_on_c, 2, 39, 27
4, 44492, Note_on_c, 2, 39, 0
4, 44511, Note_on_c, 2, 48, 0
4, 44519, Note_on_c, 2, 45, 49
4, 44628, Note_on_c, 2, 45, 0
4, 44637, Note_on_c, 2, 38, 52
4, 44758, Note_on_c, 2, 44, 69
4, 44762, Note_on_c, 2, 38, 0
4, 44839, Note_on_c, 2, 38, 46
4, 44847, Note_on_c, 2, 38, 0
4, 44861, Note_on_c, 2, 44, 0
4, 44874, Note_on_c, 2, 43, 62
4, 44882, Note_on_c, 2, 43, 0
4, 44911, Note_on_c, 2, 38, 58
4, 44984, Note_on_c, 2, 38, 0
4, 44990, Note_on_c, 2, 32, 56
4, 45071, Note_on_c, 2, 32, 0
4, 45079, Note_on_c, 2, 31, 51
4, 45108, Note_on_c, 2, 31, 0
4, 45116, Note_on_c, 2, 36, 62
4, 45224, Note_on_c, 2, 36, 0
4, 45239, Note_on_c, 2, 36, 56
4, 45355, Note_on_c, 2, 36, 0
4, 45360, Note_on_c, 2, 34, 54
4, 45480, Note_on_c, 2, 46, 64
4, 45481, Note_on_c, 2, 34, 0
4, 45591, Note_on_c, 2, 46, 0
4, 45602, Note_on_c, 2, 45, 61
4, 45708, Note_on_c, 2, 45, 0
4, 45722, Note_on_c, 2, 45, 62
4, 45821, Note_on_c, 2, 45, 0
4, 45840, Note_on_c, 2, 44, 63
4, 45923, Note_on_c, 2, 44, 0
4, 45931, Note_on_c, 2, 38, 31
4, 45943, Note_on_c, 2, 38, 0
4, 45961, Note_on_c, 2, 42, 51
4, 46075, Note_on_c, 2, 42, 0
4, 46082, Note_on_c, 2, 43, 59
4, 46190, Note_on_c, 2, 43, 0
4, 46198, Note_on_c, 2, 38, 43
4, 46311, Note_on_c, 2, 38, 0
4, 46315, Note_on_c, 2, 40, 50
4, 46429, Note_on_c, 2, 40, 0
4, 46433, Note_on_c, 2, 34, 55
4, 46554, Note_on_c, 2, 34, 0
4, 46555, Note_on_c, 2, 33, 48
4, 46675, Note_on_c, 2, 33, 0
4, 46675, Note_on_c, 2, 39, 53
4, 46758, Note_on_c, 2, 39, 0
4, 46761, Note_on_c, 2, 37, 34
4, 46781, Note_on_c, 2, 37, 0
4, 46798, Note_on_c, 2, 38, 51
4, 46914, Note_on_c, 2, 38, 0
4, 46918, Note_on_c, 2, 45, 53
4, 47002, Note_on_c, 2, 45, 0
4, 47004, Note_on_c, 2, 44, 39
4, 47029, Note_on_c, 2, 44, 0
4, 47041, Note_on_c, 2, 43, 44
4, 47163, Note_on_c, 2, 31, 66
4, 47175, Note_on_c, 2, 43, 0
4, 47349, Note_on_c, 2, 31, 0
4, 47355, Note_on_c, 2, 42, 65
4, 47368, Note_on_c, 2, 42, 0
4, 47397, Note_on_c, 2, 30, 62
4, 47599, Note_on_c, 2, 30, 0
4, 47600, Note_on_c, 2, 41, 61
4, 47621, Note_on_c, 2, 41, 0
4, 47641, Note_on_c, 2, 29, 44
4, 47672, Note_on_c, 2, 29, 0
4, 47723, Note_on_c, 2, 36, 69
4, 47743, Note_on_c, 2, 36, 0
4, 47762, Note_on_c, 2, 34, 52
4, 47881, Note_on_c, 2, 46, 60
4, 47901, Note_on_c, 2, 46, 0
4, 47903, Note_on_c, 2, 34, 0
4, 47970, Note_on_c, 2, 38, 29
4, 47987, Note_on_c, 2, 38, 0
4, 48007, Note_on_c, 2, 39, 46
4, 48236, Note_on_c, 2, 39, 0
4, 48241, Note_on_c, 2, 51, 60
4, 48462, Note_on_c, 2, 51, 0
4, 48475, Note_on_c, 2, 48, 76
4, 48551, Pitch_bend_c, 2, 8192
4, 48552, Pitch_bend_c, 2, 8192
4, 48553, Pitch_bend_c, 2, 8712
4, 48554, Pitch_bend_c, 2, 9102
4, 48556, Pitch_bend_c, 2, 9362
4, 48558, Pitch_bend_c, 2, 9752
4, 48559, Pitch_bend_c, 2, 10012
4, 48560, Pitch_bend_c, 2, 10272
4, 48562, Pitch_bend_c, 2, 10662
4, 48563, Pitch_bend_c, 2, 10922
4, 48564, Pitch_bend_c, 2, 11312
4, 48566, Pitch_bend_c, 2, 11702
4, 48566, Pitch_bend_c, 2, 11962
4, 48568, Pitch_bend_c, 2, 12222
4, 48569, Pitch_bend_c, 2, 12612
4, 48571, Pitch_bend_c, 2, 13002
4, 48572, Pitch_bend_c, 2, 13262
4, 48573, Pitch_bend_c, 2, 13652
4, 48575, Pitch_bend_c, 2, 14042
4, 48575, Pitch_bend_c, 2, 14302
4, 48577, Pitch_bend_c, 2, 14692
4, 48578, Pitch_bend_c, 2, 14968
4, 48579, Pitch_bend_c, 2, 15212
4, 48581, Pitch_bend_c, 2, 15472
4, 48582, Pitch_bend_c, 2, 15732
4, 48584, Pitch_bend_c, 2, 15992
4, 48585, Pitch_bend_c, 2, 16122
4, 48586, Pitch_bend_c, 2, 16252
4, 48587, Pitch_bend_c, 2, 16382
4, 48597, Pitch_bend_c, 2, 16252
4, 48597, Pitch_bend_c, 2, 15992
4, 48599, Pitch_bend_c, 2, 15862
4, 48601, Pitch_bend_c, 2, 15732
4, 48601, Pitch_bend_c, 2, 15472
4, 48603, Pitch_bend_c, 2, 15212
4, 48603, Pitch_bend_c, 2, 14968
4, 48605, Pitch_bend_c, 2, 14562
4, 48606, Pitch_bend_c, 2, 14172
4, 48609, Pitch_bend_c, 2, 13782
4, 48609, Pitch_bend_c, 2, 13262
4, 48610, Pitch_bend_c, 2, 13002
4, 48611, Pitch_bend_c, 2, 12612
4, 48613, Pitch_bend_c, 2, 12222
4, 48614, Pitch_bend_c, 2, 11832
4, 48615, Pitch_bend_c, 2, 11442
4, 48616, Pitch_bend_c, 2, 11052
4, 48618, Pitch_bend_c, 2, 10662
4, 48619, Pitch_bend_c, 2, 10272
4, 48620, Pitch_bend_c, 2, 10012
4, 48622, Pitch_bend_c, 2, 9752
4, 48623, Pitch_bend_c, 2, 9362
4, 48625, Pitch_bend_c, 2, 9102
4, 48625, Pitch_bend_c, 2, 8842
4, 48627, Pitch_bend_c, 2, 8712
4, 48629, Pitch_bend_c, 2, 8192
4, 48630, Pitch_bend_c, 2, 8192
4, 48638, Pitch_bend_c, 2, 8192
4, 48641, Pitch_bend_c, 2, 8712
4, 48642, Pitch_bend_c, 2, 8972
4, 48643, Pitch_bend_c, 2, 9232
4, 48645, Pitch_bend_c, 2, 9622
4, 48646, Pitch_bend_c, 2, 9882
4, 48647, Pitch_bend_c, 2, 10272
4, 48649, Pitch_bend_c, 2, 10532
4, 48649, Pitch_bend_c, 2, 10792
4, 48651, Pitch_bend_c, 2, 11052
4, 48652, Pitch_bend_c, 2, 11442
4, 48654, Pitch_bend_c, 2, 11572
4, 48654, Pitch_bend_c, 2, 11702
4, 48657, Pitch_bend_c, 2, 11832
4, 48664, Pitch_bend_c, 2, 11702
4, 48666, Pitch_bend_c, 2, 11442
4, 48668, Pitch_bend_c, 2, 11312
4, 48669, Pitch_bend_c, 2, 10922
4, 48670, Pitch_bend_c, 2, 10662
4, 48671, Pitch_bend_c, 2, 10402
4, 48673, Pitch_bend_c, 2, 10142
4, 48673, Pitch_bend_c, 2, 9882
4, 48675, Pitch_bend_c, 2, 9622
4, 48677, Pitch_bend_c, 2, 9232
4, 48678, Pitch_bend_c, 2, 8972
4, 48679, Pitch_bend_c, 2, 8712
4, 48681, Pitch_bend_c, 2, 8192
4, 48681, Pitch_bend_c, 2, 8192
4, 48682, Pitch_bend_c, 2, 8192
4, 48712, Pitch_bend_c, 2, 8192
4, 48712, Pitch_bend_c, 2, 8192
4, 48714, Pitch_bend_c, 2, 8712
4, 48715, Pitch_bend_c, 2, 8972
4, 48717, Pitch_bend_c, 2, 9232
4, 48717, Pitch_bend_c, 2, 9492
4, 48719, Pitch_bend_c, 2, 9752
4, 48721, Pitch_bend_c, 2, 9882
4, 48722, Pitch_bend_c, 2, 10142
4, 48724, Pitch_bend_c, 2, 10272
4, 48733, Pitch_bend_c, 2, 10142
4, 48735, Pitch_bend_c, 2, 9882
4, 48737, Pitch_bend_c, 2, 9622
4, 48738, Pitch_bend_c, 2, 9102
4, 48739, Pitch_bend_c, 2, 8192
4, 48740, Pitch_bend_c, 2, 8192
4, 48924, Note_on_c, 2, 36, 40
4, 48935, Note_on_c, 2, 36, 0
4, 48952, Note_on_c, 2, 48, 0
4, 48959, Note_on_c, 2, 41, 53
4, 49080, Note_on_c, 2, 41, 0
4, 49084, Note_on_c, 2, 43, 46
4, 49164, Note_on_c, 2, 41, 53
4, 49172, Note_on_c, 2, 41, 0
4, 49187, Note_on_c, 2, 43, 0
4, 49199, Note_on_c, 2, 44, 43
4, 49320, Note_on_c, 2, 44, 0
4, 49320, Note_on_c, 2, 41, 48
4, 49401, Note_on_c, 2, 39, 25
4, 49407, Note_on_c, 2, 39, 0
4, 49425, Note_on_c, 2, 41, 0
4, 49436, Note_on_c, 2, 44, 50
4, 49459, Note_on_c, 2, 44, 0
4, 49523, Note_on_c, 2, 39, 32
4, 49531, Note_on_c, 2, 39, 0
4, 49564, Note_on_c, 2, 37, 37
4, 49572, Note_on_c, 2, 37, 0
4, 49579, Note_on_c, 2, 37, 31
4, 49675, Note_on_c, 2, 37, 0
4, 49689, Note_on_c, 2, 37, 51
4, 49807, Note_on_c, 2, 49, 56
4, 49824, Note_on_c, 2, 37, 0
4, 49894, Note_on_c, 2, 37, 23
4, 49904, Note_on_c, 2, 37, 0
4, 49915, Note_on_c, 2, 49, 0
4, 49928, Note_on_c, 2, 39, 51
4, 50165, Note_on_c, 2, 51, 65
4, 50303, Note_on_c, 2, 39, 0
4, 50362, Note_on_c, 2, 39, 33
4, 50378, Note_on_c, 2, 51, 0
4, 50388, Note_on_c, 2, 39, 0
4, 50399, Note_on_c, 2, 41, 51
4, 50603, Note_on_c, 2, 53, 56
4, 50690, Note_on_c, 2, 36, 32
4, 50697, Note_on_c, 2, 36, 0
4, 50724, Note_on_c, 2, 30, 46
4, 50738, Note_on_c, 2, 30, 0
4, 50764, Note_on_c, 2, 29, 60
4, 50958, Note_on_c, 2, 34, 46
4, 50965, Note_on_c, 2, 34, 0
4, 50968, Note_on_c, 2, 41, 0
4, 50974, Note_on_c, 2, 29, 0
4, 50999, Note_on_c, 2, 53, 0
4, 51002, Note_on_c, 2, 34, 53
4, 51118, Note_on_c, 2, 46, 63
4, 51264, Note_on_c, 2, 34, 0
4, 51317, Note_on_c, 2, 34, 32
4, 51325, Note_on_c, 2, 34, 0
4, 51362, Note_on_c, 2, 34, 62
4, 51380, Note_on_c, 2, 46, 0
4, 51485, Note_on_c, 2, 46, 62
4, 51541, Note_on_c, 2, 34, 0
4, 51555, Note_on_c, 2, 46, 0
4, 51569, Note_on_c, 2, 35, 51
4, 51608, Note_on_c, 2, 47, 60
4, 51697, Note_on_c, 2, 47, 0
4, 51723, Note_on_c, 2, 47, 58
4, 51765, Note_on_c, 2, 35, 0
4, 51810, Note_on_c, 2, 35, 46
4, 51816, Note_on_c, 2, 47, 0
4, 51828, Note_on_c, 2, 35, 0
4, 51847, Note_on_c, 2, 48, 52
4, 51914, Note_on_c, 2, 48, 0
4, 51927, Note_on_c, 2, 42, 30
4, 51953, Note_on_c, 2, 42, 0
4, 51962, Note_on_c, 2, 43, 31
4, 52066, Note_on_c, 2, 43, 0
4, 52084, Note_on_c, 2, 45, 55
4, 52192, Note_on_c, 2, 45, 0
4, 52200, Note_on_c, 2, 39, 44
4, 52321, Note_on_c, 2, 39, 0
4, 52321, Note_on_c, 2, 38, 49
4, 52444, Note_on_c, 2, 32, 52
4, 52446, Note_on_c, 2, 38, 0
4, 52549, Note_on_c, 2, 32, 0
4, 52559, Note_on_c, 2, 31, 53
4, 52678, Note_on_c, 2, 31, 0
4, 52680, Note_on_c, 2, 35, 45
4, 52800, Note_on_c, 2, 36, 57
4, 52805, Note_on_c, 2, 35, 0
4, 52857, Note_on_c, 2, 36, 0
4, 52882, Note_on_c, 2, 36, 37
4, 52907, Note_on_c, 2, 36, 0
4, 52914, Note_on_c, 2, 38, 57
4, 53031, Note_on_c, 2, 38, 0
4, 53034, Note_on_c, 2, 39, 59
4, 53155, Note_on_c, 2, 46, 75
4, 53164, Note_on_c, 2, 39, 0
4, 53267, Note_on_c, 2, 46, 0
4, 53277, Note_on_c, 2, 45, 58
4, 53497, Note_on_c, 2, 45, 0
4, 53523, Note_on_c, 2, 44, 71
4, 53642, Note_on_c, 2, 44, 0
4, 53645, Note_on_c, 2, 38, 47
4, 53763, Note_on_c, 2, 38, 0
4, 53763, Note_on_c, 2, 43, 53
4, 53881, Note_on_c, 2, 43, 0
4, 53882, Note_on_c, 2, 31, 41
4, 54000, Note_on_c, 2, 40, 49
4, 54017, Note_on_c, 2, 31, 0
4, 54117, Note_on_c, 2, 40, 0
4, 54118, Note_on_c, 2, 34, 51
4, 54237, Note_on_c, 2, 34, 0
4, 54244, Note_on_c, 2, 33, 50
4, 54325, Note_on_c, 2, 39, 53
4, 54334, Note_on_c, 2, 33, 0
4, 54348, Note_on_c, 2, 39, 0
4, 54366, Note_on_c, 2, 37, 47
4, 54476, Note_on_c, 2, 37, 0
4, 54483, Note_on_c, 2, 38, 51
4, 54568, Note_on_c, 2, 44, 84
4, 54590, Note_on_c, 2, 38, 0
4, 54605, Note_on_c, 2, 44, 0
4, 54613, Note_on_c, 2, 42, 19
4, 54684, Note_on_c, 2, 37, 34
4, 54695, Note_on_c, 2, 37, 0
4, 54712, Note_on_c, 2, 42, 0
4, 54720, Note_on_c, 2, 43, 56
4, 54740, Note_on_c, 2, 43, 0
4, 54802, Note_on_c, 2, 38, 53
4, 54823, Note_on_c, 2, 38, 0
4, 54842, Note_on_c, 2, 34, 37
4, 54996, Note_on_c, 2, 42, 51
4, 54999, Note_on_c, 2, 34, 0
4, 55002, Note_on_c, 2, 42, 0
4, 55037, Note_on_c, 2, 37, 52
4, 55053, Note_on_c, 2, 37, 0
4, 55078, Note_on_c, 2, 30, 55
4, 55193, Note_on_c, 2, 30, 0
4, 55199, Note_on_c, 2, 29, 46
4, 55267, Note_on_c, 2, 29, 0
4, 55281, Note_on_c, 2, 29, 39
4, 55302, Note_on_c, 2, 29, 0
4, 55319, Note_on_c, 2, 31, 30
4, 55434, Note_on_c, 2, 31, 0
4, 55440, Note_on_c, 2, 32, 45
4, 55565, Note_on_c, 2, 32, 0
4, 55566, Note_on_c, 2, 34, 40
4, 55683, Note_on_c, 2, 39, 43
4, 55687, Note_on_c, 2, 34, 0
4, 55790, Note_on_c, 2, 39, 0
4, 55800, Note_on_c, 2, 39, 42
4, 55918, Note_on_c, 2, 43, 60
4, 55935, Note_on_c, 2, 39, 0
4, 56032, Note_on_c, 2, 43, 0
4, 56042, Note_on_c, 2, 43, 73
4, 56141, Note_on_c, 2, 43, 0
4, 56161, Note_on_c, 2, 46, 67
4, 56271, Note_on_c, 2, 46, 0
4, 56282, Note_on_c, 2, 46, 70
4, 56396, Note_on_c, 2, 51, 52
4, 56405, Note_on_c, 2, 46, 0
4, 56508, Note_on_c, 2, 51, 0
4, 56515, Note_on_c, 2, 45, 57
4, 56632, Note_on_c, 2, 45, 0
4, 56641, Note_on_c, 2, 44, 55
4, 56753, Note_on_c, 2, 44, 0
4, 56763, Note_on_c, 2, 44, 67
4, 56869, Note_on_c, 2, 44, 0
4, 56880, Note_on_c, 2, 39, 49
4, 56987, Note_on_c, 2, 39, 0
4, 57001, Note_on_c, 2, 39, 45
4, 57122, Note_on_c, 2, 32, 50
4, 57125, Note_on_c, 2, 39, 0
4, 57246, Note_on_c, 2, 39, 57
4, 57247, Note_on_c, 2, 32, 0
4, 57347, Note_on_c, 2, 39, 0
4, 57367, Note_on_c, 2, 44, 71
4, 57406, Pitch_bend_c, 2, 8192
4, 57409, Pitch_bend_c, 2, 8712
4, 57410, Pitch_bend_c, 2, 9232
4, 57411, Pitch_bend_c, 2, 9882
4, 57411, Pitch_bend_c, 2, 10402
4, 57414, Pitch_bend_c, 2, 10922
4, 57415, Pitch_bend_c, 2, 11572
4, 57416, Pitch_bend_c, 2, 12092
4, 57417, Pitch_bend_c, 2, 12482
4, 57418, Pitch_bend_c, 2, 12872
4, 57419, Pitch_bend_c, 2, 13262
4, 57420, Pitch_bend_c, 2, 13522
4, 57422, Pitch_bend_c, 2, 13782
4, 57423, Pitch_bend_c, 2, 13912
4, 57425, Pitch_bend_c, 2, 14042
4, 57433, Pitch_bend_c, 2, 13912
4, 57433, Pitch_bend_c, 2, 13652
4, 57435, Pitch_bend_c, 2, 13392
4, 57437, Pitch_bend_c, 2, 13132
4, 57438, Pitch_bend_c, 2, 12872
4, 57440, Pitch_bend_c, 2, 12482
4, 57440, Pitch_bend_c, 2, 12092
4, 57441, Pitch_bend_c, 2, 11572
4, 57444, Pitch_bend_c, 2, 10922
4, 57445, Pitch_bend_c, 2, 10402
4, 57446, Pitch_bend_c, 2, 9882
4, 57447, Pitch_bend_c, 2, 9362
4, 57449, Pitch_bend_c, 2, 8972
4, 57450, Pitch_bend_c, 2, 8192
4, 57450, Pitch_bend_c, 2, 8192
4, 57451, Pitch_bend_c, 2, 8192
4, 57452, Pitch_bend_c, 2, 8192
4, 57461, Pitch_bend_c, 2, 8192
4, 57461, Pitch_bend_c, 2, 8192
4, 57463, Pitch_bend_c, 2, 8712
4, 57463, Pitch_bend_c, 2, 8972
4, 57465, Pitch_bend_c, 2, 9362
4, 57467, Pitch_bend_c, 2, 9882
4, 57468, Pitch_bend_c, 2, 10272
4, 57469, Pitch_bend_c, 2, 10792
4, 57471, Pitch_bend_c, 2, 11442
4, 57472, Pitch_bend_c, 2, 11832
4, 57472, Pitch_bend_c, 2, 12222
4, 57475, Pitch_bend_c, 2, 12612
4, 57476, Pitch_bend_c, 2, 13002
4, 57477, Pitch_bend_c, 2, 13262
4, 57478, Pitch_bend_c, 2, 13652
4, 57480, Pitch_bend_c, 2, 13912
4, 57481, Pitch_bend_c, 2, 14042
4, 57482, Pitch_bend_c, 2, 14172
4, 57489, Pitch_bend_c, 2, 14042
4, 57490, Pitch_bend_c, 2, 13782
4, 57492, Pitch_bend_c, 2, 13262
4, 57492, Pitch_bend_c, 2, 13002
4, 57495, Pitch_bend_c, 2, 12482
4, 57496, Pitch_bend_c, 2, 11962
4, 57497, Pitch_bend_c, 2, 11442
4, 57498, Pitch_bend_c, 2, 10662
4, 57499, Pitch_bend_c, 2, 9752
4, 57501, Pitch_bend_c, 2, 8192
4, 57502, Pitch_bend_c, 2, 8192
4, 57606, Note_on_c, 2, 44, 0
4, 57615, Note_on_c, 2, 44, 46
4, 57627, Note_on_c, 2, 44, 0
4, 57627, Note_on_c, 2, 43, 42
4, 57646, Note_on_c, 2, 43, 0
4, 57729, Note_on_c, 2, 41, 51
4, 57810, Note_on_c, 2, 36, 40
4, 57813, Note_on_c, 2, 41, 0
4, 57823, Note_on_c, 2, 36, 0
4, 57842, Note_on_c, 2, 29, 44
4, 57951, Note_on_c, 2, 29, 0
4, 57956, Note_on_c, 2, 31, 54
4, 58074, Note_on_c, 2, 31, 0
4, 58077, Note_on_c, 2, 33, 48
4, 58166, Note_on_c, 2, 36, 39
4, 58175, Note_on_c, 2, 36, 0
4, 58198, Note_on_c, 2, 42, 71
4, 58207, Note_on_c, 2, 33, 0
4, 58317, Note_on_c, 2, 42, 0
4, 58317, Note_on_c, 2, 41, 56
4, 58324, Note_on_c, 2, 41, 0
4, 58394, Note_on_c, 2, 36, 66
4, 58410, Note_on_c, 2, 36, 0
4, 58433, Note_on_c, 2, 33, 54
4, 58553, Note_on_c, 2, 33, 0
4, 58554, Note_on_c, 2, 34, 48
4, 58640, Note_on_c, 2, 46, 58
4, 58799, Note_on_c, 2, 46, 0
4, 58806, Note_on_c, 2, 45, 42
4, 58810, Note_on_c, 2, 34, 0
4, 58924, Note_on_c, 2, 33, 44
4, 59040, Note_on_c, 2, 32, 53
4, 59043, Note_on_c, 2, 33, 0
4, 59051, Note_on_c, 2, 45, 0
4, 59126, Note_on_c, 2, 34, 31
4, 59139, Note_on_c, 2, 34, 0
4, 59146, Note_on_c, 2, 32, 0
4, 59161, Note_on_c, 2, 44, 55
4, 59280, Note_on_c, 2, 44, 0
4, 59280, Note_on_c, 2, 43, 55
4, 59363, Note_on_c, 2, 38, 49
4, 59376, Note_on_c, 2, 43, 0
4, 59379, Note_on_c, 2, 38, 0
4, 59394, Note_on_c, 2, 35, 59
4, 59517, Note_on_c, 2, 35, 0
4, 59521, Note_on_c, 2, 36, 51
4, 59610, Note_on_c, 2, 34, 37
4, 59624, Note_on_c, 2, 36, 0
4, 59627, Note_on_c, 2, 34, 0
4, 59637, Note_on_c, 2, 46, 64
4, 59755, Note_on_c, 2, 46, 0
4, 59761, Note_on_c, 2, 45, 39
4, 59875, Note_on_c, 2, 45, 0
4, 59875, Note_on_c, 2, 39, 51
4, 59988, Note_on_c, 2, 39, 0
4, 59994, Note_on_c, 2, 38, 47
4, 60079, Note_on_c, 2, 38, 0
4, 60080, Note_on_c, 2, 44, 64
4, 60119, Note_on_c, 2, 44, 0
4, 60124, Note_on_c, 2, 43, 44
4, 60176, Note_on_c, 2, 43, 0
4, 60199, Note_on_c, 2, 38, 56
4, 60212, Note_on_c, 2, 38, 0
4, 60236, Note_on_c, 2, 31, 54
4, 60354, Note_on_c, 2, 31, 0
4, 60356, Note_on_c, 2, 35, 59
4, 60475, Note_on_c, 2, 35, 0
4, 60479, Note_on_c, 2, 36, 60
4, 60588, Note_on_c, 2, 36, 0
4, 60603, Note_on_c, 2, 36, 68
4, 60717, Note_on_c, 2, 36, 0
4, 60726, Note_on_c, 2, 34, 53
4, 60829, Note_on_c, 2, 34, 0
4, 60845, Note_on_c, 2, 34, 58
4, 60963, Note_on_c, 2, 33, 54
4, 60965, Note_on_c, 2, 34, 0
4, 61084, Note_on_c, 2, 45, 62
4, 61168, Note_on_c, 2, 45, 0
4, 61202, Note_on_c, 2, 33, 0
4, 61202, Note_on_c, 2, 44, 52
4, 61321, Note_on_c, 2, 32, 48
4, 61329, Note_on_c, 2, 44, 0
4, 61432, Note_on_c, 2, 32, 0
4, 61450, Note_on_c, 2, 31, 42
4, 61564, Note_on_c, 2, 43, 59
4, 61565, Note_on_c, 2, 31, 0
4, 61678, Note_on_c, 2, 43, 0
4, 61679, Note_on_c, 2, 40, 53
4, 61798, Note_on_c, 2, 46, 74
4, 61910, Note_on_c, 2, 46, 0
4, 61910, Note_on_c, 2, 40, 0
4, 61918, Note_on_c, 2, 45, 62
4, 62040, Note_on_c, 2, 39, 59
4, 62041, Note_on_c, 2, 45, 0
4, 62156, Note_on_c, 2, 39, 0
4, 62164, Note_on_c, 2, 38, 52
4, 62281, Note_on_c, 2, 44, 64
4, 62285, Note_on_c, 2, 38, 0
4, 62371, Note_on_c, 2, 44, 0
4, 62371, Note_on_c, 2, 39, 31
4, 62395, Note_on_c, 2, 39, 0
4, 62398, Note_on_c, 2, 43, 62
4, 62509, Note_on_c, 2, 43, 0
4, 62521, Note_on_c, 2, 43, 72
4, 62629, Note_on_c, 2, 43, 0
4, 62640, Note_on_c, 2, 42, 33
4, 62750, Note_on_c, 2, 42, 0
4, 62760, Note_on_c, 2, 42, 74
4, 62880, Note_on_c, 2, 42, 0
4, 62885, Note_on_c, 2, 41, 45
4, 63004, Note_on_c, 2, 36, 83
4, 63006, Note_on_c, 2, 41, 0
4, 63007, Note_on_c, 2, 37, 37
4, 63021, Note_on_c, 2, 37, 0
4, 63122, Note_on_c, 2, 36, 0
4, 63127, Note_on_c, 2, 34, 46
4, 63240, Note_on_c, 2, 46, 85
4, 63348, Note_on_c, 2, 46, 0
4, 63360, Note_on_c, 2, 34, 0
4, 63364, Note_on_c, 2, 39, 37
4, 63470, Note_on_c, 2, 39, 0
4, 63477, Note_on_c, 2, 39, 74
4, 63592, Note_on_c, 2, 39, 0
4, 63602, Note_on_c, 2, 34, 44
4, 63717, Note_on_c, 2, 34, 0
4, 63717, Note_on_c, 2, 35, 75
4, 63836, Note_on_c, 2, 35, 0
4, 63839, Note_on_c, 2, 36, 60
4, 63960, Note_on_c, 2, 49, 74
4, 63970, Note_on_c, 2, 36, 0
4, 64079, Note_on_c, 2, 49, 0
4, 64084, Note_on_c, 2, 48, 55
4, 64197, Note_on_c, 2, 48, 0
4, 64198, Note_on_c, 2, 42, 50
4, 64309, Note_on_c, 2, 42, 0
4, 64321, Note_on_c, 2, 41, 44
4, 64436, Note_on_c, 2, 36, 41
4, 64440, Note_on_c, 2, 41, 0
4, 64560, Note_on_c, 2, 32, 49
4, 64567, Note_on_c, 2, 36, 0
4, 64669, Note_on_c, 2, 32, 0
4, 64685, Note_on_c, 2, 32, 49
4, 64789, Note_on_c, 2, 32, 0
4, 64805, Note_on_c, 2, 32, 45
4, 65003, Note_on_c, 2, 47, 56
4, 65032, Note_on_c, 2, 47, 0
4, 65046, Note_on_c, 2, 49, 44
4, 65077, Note_on_c, 2, 32, 0
4, 65161, Note_on_c, 2, 47, 58
4, 65164, Note_on_c, 2, 49, 0
4, 65247, Note_on_c, 2, 42, 34
4, 65253, Note_on_c, 2, 42, 0
4, 65259, Note_on_c, 2, 47, 0
4, 65281, Note_on_c, 2, 46, 49
4, 65365, Note_on_c, 2, 43, 57
4, 65375, Note_on_c, 2, 43, 0
4, 65400, Note_on_c, 2, 46, 0
4, 65401, Note_on_c, 2, 34, 58
4, 65599, Note_on_c, 2, 46, 59
4, 65605, Note_on_c, 2, 46, 0
4, 65607, Note_on_c, 2, 34, 0
4, 65633, Note_on_c, 2, 34, 45
4, 65708, Note_on_c, 2, 34, 0
4, 65717, Note_on_c, 2, 40, 51
4, 65737, Note_on_c, 2, 40, 0
4, 65752, Note_on_c, 2, 41, 49
4, 65765, Note_on_c, 2, 41, 0
4, 65837, Note_on_c, 2, 36, 48
4, 65845, Note_on_c, 2, 36, 0
4, 65874, Note_on_c, 2, 29, 50
4, 66077, Note_on_c, 2, 41, 48
4, 66086, Note_on_c, 2, 41, 0
4, 66114, Note_on_c, 2, 29, 0
4, 66114, Note_on_c, 2, 35, 63
4, 66226, Note_on_c, 2, 35, 0
4, 66237, Note_on_c, 2, 34, 60
4, 66358, Note_on_c, 2, 46, 85
4, 66562, Note_on_c, 2, 37, 36
4, 66565, Note_on_c, 2, 34, 0
4, 66570, Note_on_c, 2, 46, 0
4, 66592, Note_on_c, 2, 37, 0
4, 66605, Note_on_c, 2, 38, 47
4, 66681, Note_on_c, 2, 39, 73
4, 66684, Note_on_c, 2, 38, 0
4, 66806, Note_on_c, 2, 39, 0
4, 66806, End_track
5, 0, Start_track
5, 0, Program_c, 3, 43
5, 0, Control_c, 3, 7, 80
5, 66889, Note_on_c, 3, 32, 77
5, 67129, Note_on_c, 3, 32, 0
5, 67129, Note_on_c, 3, 31, 80
5, 67303, Note_on_c, 3, 30, 87
5, 67315, Note_on_c, 3, 31, 0
5, 67670, Note_on_c, 3, 29, 80
5, 67693, Note_on_c, 3, 30, 0
5, 68131, Note_on_c, 3, 28, 73
5, 68150, Note_on_c, 3, 29, 0
5, 68723, Note_on_c, 3, 28, 0
5, 68734, Note_on_c, 3, 39, 64
5, 69864, Note_on_c, 3, 39, 0
5, 69864, End_track
6, 0, Start_track
6, 0, End_track
7, 0, Start_track
7, 0, End_track
8, 0, Start_track
8, 0, End_track
9, 0, Start_track
9, 0, End_track
10, 0, Start_track
10, 0, End_track
11, 0, Start_track
11, 0, Title_t, "Brush set on drums"
11, 0, Program_c, 9, 40
11, 0, Control_c, 9, 7, 87
11, 0, Control_c, 9, 7, 80
11, 20640, Note_on_c, 9, 107, 60
11, 20640, Note_on_c, 9, 107, 0
11, 20640, Note_on_c, 9, 38, 16
11, 20640, Note_on_c, 9, 38, 0
11, 20640, Note_on_c, 9, 38, 16
11, 20640, Note_on_c, 9, 38, 0
11, 20640, Note_on_c, 9, 38, 16
11, 20640, Note_on_c, 9, 38, 0
11, 20640, Note_on_c, 9, 38, 16
11, 20640, Note_on_c, 9, 38, 0
11, 20640, Note_on_c, 9, 38, 16
11, 20640, Note_on_c, 9, 38, 0
11, 20640, Note_on_c, 9, 38, 16
11, 20640, Note_on_c, 9, 38, 0
11, 20640, Note_on_c, 9, 38, 16
11, 20640, Note_on_c, 9, 38, 0
11, 20640, Note_on_c, 9, 38, 16
11, 20640, Note_on_c, 9, 38, 0
11, 20640, Note_on_c, 9, 40, 19
11, 20640, Note_on_c, 9, 40, 0
11, 21082, Note_on_c, 9, 38, 50
11, 21106, Note_on_c, 9, 38, 0
11, 21119, Note_on_c, 9, 36, 49
11, 21120, Note_on_c, 9, 40, 26
11, 21240, Note_on_c, 9, 40, 0
11, 21240, Note_on_c, 9, 44, 86
11, 21240, Note_on_c, 9, 40, 32
11, 21295, Note_on_c, 9, 36, 0
11, 21330, Note_on_c, 9, 36, 59
11, 21342, Note_on_c, 9, 36, 0
11, 21360, Note_on_c, 9, 40, 0
11, 21360, Note_on_c, 9, 44, 0
11, 21360, Note_on_c, 9, 40, 40
11, 21367, Note_on_c, 9, 36, 52
11, 21480, Note_on_c, 9, 40, 0
11, 21480, Note_on_c, 9, 44, 95
11, 21480, Note_on_c, 9, 40, 36
11, 21560, Note_on_c, 9, 40, 0
11, 21560, Note_on_c, 9, 40, 36
11, 21560, Note_on_c, 9, 40, 31
11, 21600, Note_on_c, 9, 40, 0
11, 21600, Note_on_c, 9, 44, 0
11, 21600, Note_on_c, 9, 38, 16
11, 21600, Note_on_c, 9, 38, 0
11, 21600, Note_on_c, 9, 38, 16
11, 21600, Note_on_c, 9, 38, 0
11, 21600, Note_on_c, 9, 38, 16
11, 21600, Note_on_c, 9, 38, 0
11, 21600, Note_on_c, 9, 38, 16
11, 21600, Note_on_c, 9, 38, 0
11, 21600, Note_on_c, 9, 38, 16
11, 21600, Note_on_c, 9, 38, 0
11, 21600, Note_on_c, 9, 38, 16
11, 21600, Note_on_c, 9, 38, 0
11, 21600, Note_on_c, 9, 38, 16
11, 21600, Note_on_c, 9, 38, 0
11, 21600, Note_on_c, 9, 38, 16
11, 21600, Note_on_c, 9, 38, 0
11, 21720, Note_on_c, 9, 40, 0
11, 21720, Note_on_c, 9, 46, 86
11, 21720, Note_on_c, 9, 40, 30
11, 21840, Note_on_c, 9, 40, 0
11, 21840, Note_on_c, 9, 46, 0
11, 21840, Note_on_c, 9, 40, 33
11, 21920, Note_on_c, 9, 40, 0
11, 21960, Note_on_c, 9, 44, 82
11, 21960, Note_on_c, 9, 40, 31
11, 22040, Note_on_c, 9, 40, 0
11, 22080, Note_on_c, 9, 44, 0
11, 22080, Note_on_c, 9, 40, 33
11, 22200, Note_on_c, 9, 40, 0
11, 22200, Note_on_c, 9, 44, 87
11, 22200, Note_on_c, 9, 40, 42
11, 22276, Note_on_c, 9, 36, 0
11, 22279, Note_on_c, 9, 43, 63
11, 22308, Note_on_c, 9, 43, 0
11, 22320, Note_on_c, 9, 40, 0
11, 22320, Note_on_c, 9, 44, 0
11, 22320, Note_on_c, 9, 40, 37
11, 22326, Note_on_c, 9, 36, 44
11, 22440, Note_on_c, 9, 40, 0
11, 22440, Note_on_c, 9, 44, 85
11, 22440, Note_on_c, 9, 40, 36
11, 22520, Note_on_c, 9, 40, 0
11, 22520, Note_on_c, 9, 40, 40
11, 22560, Note_on_c, 9, 40, 0
11, 22560, Note_on_c, 9, 44, 0
11, 22560, Note_on_c, 9, 40, 38
11, 22680, Note_on_c, 9, 40, 0
11, 22680, Note_on_c, 9, 44, 84
11, 22680, Note_on_c, 9, 40, 36
11, 22760, Note_on_c, 9, 40, 0
11, 22800, Note_on_c, 9, 44, 0
11, 22800, Note_on_c, 9, 40, 34
11, 22880, Note_on_c, 9, 40, 0
11, 22880, Note_on_c, 9, 39, 63
11, 22890, Note_on_c, 9, 36, 0
11, 22893, Note_on_c, 9, 43, 54
11, 22920, Note_on_c, 9, 39, 0
11, 22920, Note_on_c, 9, 44, 113
11, 22920, Note_on_c, 9, 40, 34
11, 22923, Note_on_c, 9, 43, 0
11, 22938, Note_on_c, 9, 36, 59
11, 22953, Note_on_c, 9, 36, 0
11, 22960, Note_on_c, 9, 40, 0
11, 23000, Note_on_c, 9, 40, 37
11, 23003, Note_on_c, 9, 43, 58
11, 23037, Note_on_c, 9, 43, 0
11, 23040, Note_on_c, 9, 40, 0
11, 23040, Note_on_c, 9, 44, 0
11, 23040, Note_on_c, 9, 40, 38
11, 23044, Note_on_c, 9, 46, 64
11, 23053, Note_on_c, 9, 36, 64
11, 23160, Note_on_c, 9, 40, 0
11, 23160, Note_on_c, 9, 44, 94
11, 23160, Note_on_c, 9, 40, 30
11, 23188, Note_on_c, 9, 46, 0
11, 23200, Note_on_c, 9, 40, 0
11, 23200, Note_on_c, 9, 39, 38
11, 23240, Note_on_c, 9, 39, 0
11, 23240, Note_on_c, 9, 40, 36
11, 23280, Note_on_c, 9, 40, 0
11, 23280, Note_on_c, 9, 44, 0
11, 23280, Note_on_c, 9, 40, 34
11, 23346, Note_on_c, 9, 36, 0
11, 23360, Note_on_c, 9, 43, 39
11, 23380, Note_on_c, 9, 43, 0
11, 23397, Note_on_c, 9, 36, 63
11, 23400, Note_on_c, 9, 40, 0
11, 23400, Note_on_c, 9, 44, 89
11, 23400, Note_on_c, 9, 40, 31
11, 23440, Note_on_c, 9, 40, 0
11, 23480, Note_on_c, 9, 40, 37
11, 23520, Note_on_c, 9, 40, 0
11, 23520, Note_on_c, 9, 44, 0
11, 23520, Note_on_c, 9, 40, 46
11, 23640, Note_on_c, 9, 40, 0
11, 23640, Note_on_c, 9, 44, 91
11, 23640, Note_on_c, 9, 40, 39
11, 23760, Note_on_c, 9, 40, 0
11, 23760, Note_on_c, 9, 44, 0
11, 23760, Note_on_c, 9, 40, 50
11, 23880, Note_on_c, 9, 40, 0
11, 23880, Note_on_c, 9, 44, 102
11, 23880, Note_on_c, 9, 44, 102
11, 23880, Note_on_c, 9, 40, 52
11, 23957, Note_on_c, 9, 36, 0
11, 23960, Note_on_c, 9, 40, 0
11, 23961, Note_on_c, 9, 43, 63
11, 23998, Note_on_c, 9, 43, 0
11, 24000, Note_on_c, 9, 44, 0
11, 24000, Note_on_c, 9, 44, 0
11, 24000, Note_on_c, 9, 40, 38
11, 24005, Note_on_c, 9, 55, 51
11, 24007, Note_on_c, 9, 36, 61
11, 24017, Note_on_c, 9, 55, 0
11, 24120, Note_on_c, 9, 40, 0
11, 24120, Note_on_c, 9, 44, 94
11, 24120, Note_on_c, 9, 40, 34
11, 24200, Note_on_c, 9, 40, 0
11, 24200, Note_on_c, 9, 39, 56
11, 24240, Note_on_c, 9, 44, 0
11, 24240, Note_on_c, 9, 40, 36
11, 24280, Note_on_c, 9, 39, 0
11, 24291, Note_on_c, 9, 36, 0
11, 24320, Note_on_c, 9, 40, 0
11, 24333, Note_on_c, 9, 43, 30
11, 24353, Note_on_c, 9, 43, 0
11, 24360, Note_on_c, 9, 46, 100
11, 24360, Note_on_c, 9, 40, 44
11, 24363, Note_on_c, 9, 36, 75
11, 24440, Note_on_c, 9, 40, 0
11, 24480, Note_on_c, 9, 46, 0
11, 24480, Note_on_c, 9, 40, 42
11, 24512, Note_on_c, 9, 36, 0
11, 24560, Note_on_c, 9, 40, 0
11, 24560, Note_on_c, 9, 39, 60
11, 24600, Note_on_c, 9, 39, 0
11, 24600, Note_on_c, 9, 44, 98
11, 24600, Note_on_c, 9, 40, 38
11, 24675, Note_on_c, 9, 36, 90
11, 24697, Note_on_c, 9, 36, 0
11, 24716, Note_on_c, 9, 36, 78
11, 24720, Note_on_c, 9, 40, 0
11, 24720, Note_on_c, 9, 44, 0
11, 24720, Note_on_c, 9, 40, 39
11, 24840, Note_on_c, 9, 40, 0
11, 24840, Note_on_c, 9, 44, 98
11, 24840, Note_on_c, 9, 40, 39
11, 24867, Note_on_c, 9, 36, 0
11, 24960, Note_on_c, 9, 40, 0
11, 24960, Note_on_c, 9, 44, 0
11, 24960, Note_on_c, 9, 40, 39
11, 25080, Note_on_c, 9, 40, 0
11, 25080, Note_on_c, 9, 44, 90
11, 25080, Note_on_c, 9, 40, 37
11, 25156, Note_on_c, 9, 43, 60
11, 25160, Note_on_c, 9, 40, 0
11, 25160, Note_on_c, 9, 39, 58
11, 25169, Note_on_c, 9, 43, 0
11, 25200, Note_on_c, 9, 39, 0
11, 25200, Note_on_c, 9, 44, 0
11, 25200, Note_on_c, 9, 40, 30
11, 25245, Note_on_c, 9, 43, 73
11, 25274, Note_on_c, 9, 43, 0
11, 25320, Note_on_c, 9, 40, 0
11, 25320, Note_on_c, 9, 44, 98
11, 25320, Note_on_c, 9, 40, 37
11, 25337, Note_on_c, 9, 43, 73
11, 25364, Note_on_c, 9, 43, 0
11, 25410, Note_on_c, 9, 36, 89
11, 25440, Note_on_c, 9, 40, 0
11, 25440, Note_on_c, 9, 44, 0
11, 25440, Note_on_c, 9, 40, 40
11, 25443, Note_on_c, 9, 36, 0
11, 25463, Note_on_c, 9, 36, 70
11, 25522, Note_on_c, 9, 36, 0
11, 25560, Note_on_c, 9, 40, 0
11, 25560, Note_on_c, 9, 44, 100
11, 25560, Note_on_c, 9, 40, 47
11, 25651, Note_on_c, 9, 36, 84
11, 25674, Note_on_c, 9, 36, 0
11, 25680, Note_on_c, 9, 40, 0
11, 25680, Note_on_c, 9, 44, 0
11, 25680, Note_on_c, 9, 40, 39
11, 25760, Note_on_c, 9, 40, 0
11, 25760, Note_on_c, 9, 39, 51
11, 25800, Note_on_c, 9, 39, 0
11, 25800, Note_on_c, 9, 44, 98
11, 25800, Note_on_c, 9, 40, 36
11, 25840, Note_on_c, 9, 40, 0
11, 25880, Note_on_c, 9, 40, 46
11, 25892, Note_on_c, 9, 36, 80
11, 25912, Note_on_c, 9, 36, 0
11, 25920, Note_on_c, 9, 40, 0
11, 25920, Note_on_c, 9, 44, 0
11, 25920, Note_on_c, 9, 40, 43
11, 25932, Note_on_c, 9, 36, 65
11, 25957, Note_on_c, 9, 36, 0
11, 26040, Note_on_c, 9, 40, 0
11, 26040, Note_on_c, 9, 44, 100
11, 26040, Note_on_c, 9, 40, 37
11, 26120, Note_on_c, 9, 40, 0
11, 26120, Note_on_c, 9, 40, 37
11, 26160, Note_on_c, 9, 40, 0
11, 26160, Note_on_c, 9, 44, 0
11, 26160, Note_on_c, 9, 40, 40
11, 26240, Note_on_c, 9, 40, 0
11, 26280, Note_on_c, 9, 44, 98
11, 26280, Note_on_c, 9, 40, 37
11, 26320, Note_on_c, 9, 40, 0
11, 26320, Note_on_c, 9, 39, 48
11, 26360, Note_on_c, 9, 39, 0
11, 26360, Note_on_c, 9, 40, 33
11, 26400, Note_on_c, 9, 40, 0
11, 26400, Note_on_c, 9, 44, 0
11, 26400, Note_on_c, 9, 40, 40
11, 26480, Note_on_c, 9, 40, 0
11, 26520, Note_on_c, 9, 44, 99
11, 26520, Note_on_c, 9, 40, 41
11, 26560, Note_on_c, 9, 40, 0
11, 26560, Note_on_c, 9, 39, 46
11, 26600, Note_on_c, 9, 39, 0
11, 26600, Note_on_c, 9, 40, 35
11, 26640, Note_on_c, 9, 40, 0
11, 26640, Note_on_c, 9, 44, 0
11, 26640, Note_on_c, 9, 40, 43
11, 26730, Note_on_c, 9, 43, 66
11, 26742, Note_on_c, 9, 43, 0
11, 26760, Note_on_c, 9, 40, 0
11, 26760, Note_on_c, 9, 44, 100
11, 26760, Note_on_c, 9, 40, 39
11, 26845, Note_on_c, 9, 43, 80
11, 26871, Note_on_c, 9, 43, 0
11, 26880, Note_on_c, 9, 40, 0
11, 26880, Note_on_c, 9, 44, 0
11, 26880, Note_on_c, 9, 40, 37
11, 26891, Note_on_c, 9, 46, 59
11, 26894, Note_on_c, 9, 36, 62
11, 26946, Note_on_c, 9, 36, 0
11, 26958, Note_on_c, 9, 46, 0
11, 27000, Note_on_c, 9, 40, 0
11, 27000, Note_on_c, 9, 44, 106
11, 27000, Note_on_c, 9, 40, 39
11, 27080, Note_on_c, 9, 40, 0
11, 27080, Note_on_c, 9, 39, 55
11, 27120, Note_on_c, 9, 39, 0
11, 27120, Note_on_c, 9, 44, 0
11, 27120, Note_on_c, 9, 40, 33
11, 27240, Note_on_c, 9, 40, 0
11, 27240, Note_on_c, 9, 44, 105
11, 27240, Note_on_c, 9, 40, 40
11, 27360, Note_on_c, 9, 40, 0
11, 27360, Note_on_c, 9, 44, 0
11, 27360, Note_on_c, 9, 40, 41
11, 27440, Note_on_c, 9, 40, 0
11, 27480, Note_on_c, 9, 44, 102
11, 27480, Note_on_c, 9, 40, 38
11, 27560, Note_on_c, 9, 39, 50
11, 27600, Note_on_c, 9, 39, 0
11, 27600, Note_on_c, 9, 40, 0
11, 27600, Note_on_c, 9, 44, 0
11, 27600, Note_on_c, 9, 40, 29
11, 27680, Note_on_c, 9, 40, 0
11, 27680, Note_on_c, 9, 39, 58
11, 27689, Note_on_c, 9, 39, 76
11, 27703, Note_on_c, 9, 39, 0
11, 27720, Note_on_c, 9, 39, 0
11, 27720, Note_on_c, 9, 46, 88
11, 27720, Note_on_c, 9, 40, 33
11, 27727, Note_on_c, 9, 36, 54
11, 27769, Note_on_c, 9, 36, 0
11, 27800, Note_on_c, 9, 40, 0
11, 27800, Note_on_c, 9, 40, 41
11, 27840, Note_on_c, 9, 40, 0
11, 27840, Note_on_c, 9, 46, 0
11, 27840, Note_on_c, 9, 40, 40
11, 27880, Note_on_c, 9, 39, 46
11, 27909, Note_on_c, 9, 39, 75
11, 27920, Note_on_c, 9, 39, 0
11, 27920, Note_on_c, 9, 39, 45
11, 27936, Note_on_c, 9, 39, 0
11, 27950, Note_on_c, 9, 36, 75
11, 27951, Note_on_c, 9, 46, 66
11, 27960, Note_on_c, 9, 39, 0
11, 27960, Note_on_c, 9, 40, 0
11, 27960, Note_on_c, 9, 44, 96
11, 27960, Note_on_c, 9, 40, 26
11, 27990, Note_on_c, 9, 36, 0
11, 27992, Note_on_c, 9, 46, 0
11, 28040, Note_on_c, 9, 39, 60
11, 28040, Note_on_c, 9, 39, 30
11, 28080, Note_on_c, 9, 39, 0
11, 28080, Note_on_c, 9, 40, 0
11, 28080, Note_on_c, 9, 44, 0
11, 28080, Note_on_c, 9, 39, 0
11, 28080, Note_on_c, 9, 40, 34
11, 28160, Note_on_c, 9, 40, 0
11, 28200, Note_on_c, 9, 44, 94
11, 28200, Note_on_c, 9, 40, 41
11, 28280, Note_on_c, 9, 40, 0
11, 28280, Note_on_c, 9, 39, 47
11, 28320, Note_on_c, 9, 39, 0
11, 28320, Note_on_c, 9, 44, 0
11, 28320, Note_on_c, 9, 40, 35
11, 28400, Note_on_c, 9, 40, 0
11, 28400, Note_on_c, 9, 39, 63
11, 28407, Note_on_c, 9, 39, 62
11, 28437, Note_on_c, 9, 39, 0
11, 28440, Note_on_c, 9, 39, 0
11, 28440, Note_on_c, 9, 44, 95
11, 28440, Note_on_c, 9, 40, 39
11, 28452, Note_on_c, 9, 36, 50
11, 28464, Note_on_c, 9, 36, 0
11, 28523, Note_on_c, 9, 46, 86
11, 28529, Note_on_c, 9, 36, 84
11, 28556, Note_on_c, 9, 46, 0
11, 28560, Note_on_c, 9, 44, 0
11, 28560, Note_on_c, 9, 40, 0
11, 28560, Note_on_c, 9, 40, 37
11, 28563, Note_on_c, 9, 36, 0
11, 28600, Note_on_c, 9, 39, 33
11, 28611, Note_on_c, 9, 46, 77
11, 28612, Note_on_c, 9, 36, 77
11, 28640, Note_on_c, 9, 46, 0
11, 28640, Note_on_c, 9, 40, 0
11, 28640, Note_on_c, 9, 39, 0
11, 28640, Note_on_c, 9, 40, 19
11, 28645, Note_on_c, 9, 36, 0
11, 28680, Note_on_c, 9, 40, 0
11, 28680, Note_on_c, 9, 46, 90
11, 28680, Note_on_c, 9, 40, 42
11, 28698, Note_on_c, 9, 46, 85
11, 28700, Note_on_c, 9, 36, 75
11, 28720, Note_on_c, 9, 40, 0
11, 28720, Note_on_c, 9, 39, 17
11, 28730, Note_on_c, 9, 46, 0
11, 28731, Note_on_c, 9, 36, 0
11, 28760, Note_on_c, 9, 39, 0
11, 28760, Note_on_c, 9, 40, 43
11, 28777, Note_on_c, 9, 36, 92
11, 28800, Note_on_c, 9, 40, 0
11, 28800, Note_on_c, 9, 46, 0
11, 28800, Note_on_c, 9, 40, 40
11, 28822, Note_on_c, 9, 36, 0
11, 28920, Note_on_c, 9, 40, 0
11, 28920, Note_on_c, 9, 44, 89
11, 28920, Note_on_c, 9, 40, 42
11, 29000, Note_on_c, 9, 40, 0
11, 29040, Note_on_c, 9, 44, 0
11, 29040, Note_on_c, 9, 40, 37
11, 29120, Note_on_c, 9, 40, 0
11, 29120, Note_on_c, 9, 39, 50
11, 29123, Note_on_c, 9, 36, 96
11, 29160, Note_on_c, 9, 39, 0
11, 29160, Note_on_c, 9, 44, 98
11, 29160, Note_on_c, 9, 40, 44
11, 29161, Note_on_c, 9, 36, 0
11, 29240, Note_on_c, 9, 40, 0
11, 29280, Note_on_c, 9, 44, 0
11, 29280, Note_on_c, 9, 40, 43
11, 29360, Note_on_c, 9, 40, 0
11, 29400, Note_on_c, 9, 44, 95
11, 29400, Note_on_c, 9, 40, 37
11, 29480, Note_on_c, 9, 40, 0
11, 29480, Note_on_c, 9, 39, 55
11, 29520, Note_on_c, 9, 39, 0
11, 29520, Note_on_c, 9, 44, 0
11, 29520, Note_on_c, 9, 40, 45
11, 29600, Note_on_c, 9, 40, 0
11, 29640, Note_on_c, 9, 44, 100
11, 29640, Note_on_c, 9, 39, 63
11, 29640, Note_on_c, 9, 40, 33
11, 29656, Note_on_c, 9, 46, 47
11, 29667, Note_on_c, 9, 46, 0
11, 29680, Note_on_c, 9, 40, 0
11, 29680, Note_on_c, 9, 39, 0
11, 29720, Note_on_c, 9, 40, 40
11, 29725, Note_on_c, 9, 38, 53
11, 29745, Note_on_c, 9, 38, 0
11, 29760, Note_on_c, 9, 40, 0
11, 29760, Note_on_c, 9, 44, 0
11, 29760, Note_on_c, 9, 40, 39
11, 29761, Note_on_c, 9, 36, 65
11, 29761, Note_on_c, 9, 57, 73
11, 29772, Note_on_c, 9, 57, 0
11, 29778, Note_on_c, 9, 36, 0
11, 29880, Note_on_c, 9, 40, 0
11, 29880, Note_on_c, 9, 44, 102
11, 29880, Note_on_c, 9, 40, 33
11, 29920, Note_on_c, 9, 40, 0
11, 29920, Note_on_c, 9, 39, 35
11, 29960, Note_on_c, 9, 39, 0
11, 29960, Note_on_c, 9, 40, 36
11, 30000, Note_on_c, 9, 40, 0
11, 30000, Note_on_c, 9, 44, 0
11, 30000, Note_on_c, 9, 40, 18
11, 30120, Note_on_c, 9, 40, 0
11, 30120, Note_on_c, 9, 44, 105
11, 30120, Note_on_c, 9, 40, 38
11, 30240, Note_on_c, 9, 40, 0
11, 30240, Note_on_c, 9, 44, 0
11, 30240, Note_on_c, 9, 40, 40
11, 30319, Note_on_c, 9, 39, 65
11, 30345, Note_on_c, 9, 39, 0
11, 30360, Note_on_c, 9, 40, 0
11, 30360, Note_on_c, 9, 44, 101
11, 30360, Note_on_c, 9, 40, 32
11, 30375, Note_on_c, 9, 36, 28
11, 30400, Note_on_c, 9, 36, 0
11, 30440, Note_on_c, 9, 40, 0
11, 30440, Note_on_c, 9, 39, 54
11, 30480, Note_on_c, 9, 39, 0
11, 30480, Note_on_c, 9, 44, 0
11, 30480, Note_on_c, 9, 40, 40
11, 30555, Note_on_c, 9, 39, 94
11, 30591, Note_on_c, 9, 39, 0
11, 30600, Note_on_c, 9, 40, 0
11, 30600, Note_on_c, 9, 44, 100
11, 30600, Note_on_c, 9, 40, 37
11, 30607, Note_on_c, 9, 36, 43
11, 30641, Note_on_c, 9, 36, 0
11, 30720, Note_on_c, 9, 40, 0
11, 30720, Note_on_c, 9, 44, 0
11, 30720, Note_on_c, 9, 40, 37
11, 30800, Note_on_c, 9, 40, 0
11, 30840, Note_on_c, 9, 44, 102
11, 30840, Note_on_c, 9, 40, 33
11, 30920, Note_on_c, 9, 40, 0
11, 30960, Note_on_c, 9, 44, 0
11, 30960, Note_on_c, 9, 40, 36
11, 31040, Note_on_c, 9, 40, 0
11, 31040, Note_on_c, 9, 39, 53
11, 31080, Note_on_c, 9, 39, 0
11, 31080, Note_on_c, 9, 44, 94
11, 31080, Note_on_c, 9, 40, 41
11, 31200, Note_on_c, 9, 40, 0
11, 31200, Note_on_c, 9, 44, 0
11, 31200, Note_on_c, 9, 40, 38
11, 31284, Note_on_c, 9, 39, 55
11, 31305, Note_on_c, 9, 39, 0
11, 31320, Note_on_c, 9, 40, 0
11, 31320, Note_on_c, 9, 44, 99
11, 31320, Note_on_c, 9, 46, 73
11, 31320, Note_on_c, 9, 40, 38
11, 31322, Note_on_c, 9, 36, 76
11, 31399, Note_on_c, 9, 46, 0
11, 31400, Note_on_c, 9, 39, 60
11, 31402, Note_on_c, 9, 36, 0
11, 31440, Note_on_c, 9, 44, 0
11, 31440, Note_on_c, 9, 40, 0
11, 31440, Note_on_c, 9, 39, 0
11, 31440, Note_on_c, 9, 40, 38
11, 31520, Note_on_c, 9, 39, 49
11, 31523, Note_on_c, 9, 39, 75
11, 31548, Note_on_c, 9, 39, 0
11, 31560, Note_on_c, 9, 39, 0
11, 31560, Note_on_c, 9, 40, 0
11, 31560, Note_on_c, 9, 46, 91
11, 31560, Note_on_c, 9, 40, 36
11, 31564, Note_on_c, 9, 36, 83
11, 31564, Note_on_c, 9, 46, 90
11, 31639, Note_on_c, 9, 46, 0
11, 31643, Note_on_c, 9, 36, 0
11, 31680, Note_on_c, 9, 40, 0
11, 31680, Note_on_c, 9, 46, 0
11, 31680, Note_on_c, 9, 40, 47
11, 31760, Note_on_c, 9, 40, 0
11, 31800, Note_on_c, 9, 44, 93
11, 31800, Note_on_c, 9, 40, 38
11, 31880, Note_on_c, 9, 39, 61
11, 31888, Note_on_c, 9, 36, 80
11, 31915, Note_on_c, 9, 36, 0
11, 31920, Note_on_c, 9, 44, 0
11, 31920, Note_on_c, 9, 40, 0
11, 31920, Note_on_c, 9, 39, 0
11, 31920, Note_on_c, 9, 40, 41
11, 32040, Note_on_c, 9, 40, 0
11, 32040, Note_on_c, 9, 44, 93
11, 32040, Note_on_c, 9, 40, 37
11, 32080, Note_on_c, 9, 40, 22
11, 32120, Note_on_c, 9, 40, 0
11, 32120, Note_on_c, 9, 40, 0
11, 32120, Note_on_c, 9, 39, 42
11, 32120, Note_on_c, 9, 40, 22
11, 32126, Note_on_c, 9, 36, 96
11, 32149, Note_on_c, 9, 36, 0
11, 32160, Note_on_c, 9, 44, 0
11, 32160, Note_on_c, 9, 39, 0
11, 32160, Note_on_c, 9, 40, 0
11, 32160, Note_on_c, 9, 40, 40
11, 32168, Note_on_c, 9, 36, 66
11, 32196, Note_on_c, 9, 36, 0
11, 32240, Note_on_c, 9, 40, 0
11, 32280, Note_on_c, 9, 44, 93
11, 32280, Note_on_c, 9, 40, 39
11, 32320, Note_on_c, 9, 40, 0
11, 32320, Note_on_c, 9, 41, 30
11, 32320, Note_on_c, 9, 40, 18
11, 32360, Note_on_c, 9, 40, 0
11, 32360, Note_on_c, 9, 41, 0
11, 32360, Note_on_c, 9, 40, 37
11, 32365, Note_on_c, 9, 39, 51
11, 32394, Note_on_c, 9, 39, 0
11, 32400, Note_on_c, 9, 40, 0
11, 32400, Note_on_c, 9, 44, 0
11, 32400, Note_on_c, 9, 41, 56
11, 32403, Note_on_c, 9, 36, 67
11, 32409, Note_on_c, 9, 46, 43
11, 32425, Note_on_c, 9, 46, 0
11, 32437, Note_on_c, 9, 36, 0
11, 32440, Note_on_c, 9, 41, 0
11, 32440, Note_on_c, 9, 40, 30
11, 32480, Note_on_c, 9, 40, 0
11, 32480, Note_on_c, 9, 41, 64
11, 32520, Note_on_c, 9, 41, 0
11, 32520, Note_on_c, 9, 44, 99
11, 32520, Note_on_c, 9, 40, 27
11, 32560, Note_on_c, 9, 40, 0
11, 32560, Note_on_c, 9, 39, 49
11, 32600, Note_on_c, 9, 39, 0
11, 32600, Note_on_c, 9, 40, 40
11, 32636, Note_on_c, 9, 36, 74
11, 32640, Note_on_c, 9, 40, 0
11, 32640, Note_on_c, 9, 44, 0
11, 32640, Note_on_c, 9, 46, 51
11, 32640, Note_on_c, 9, 40, 42
11, 32666, Note_on_c, 9, 46, 0
11, 32666, Note_on_c, 9, 36, 0
11, 32760, Note_on_c, 9, 40, 0
11, 32760, Note_on_c, 9, 44, 93
11, 32760, Note_on_c, 9, 40, 40
11, 32840, Note_on_c, 9, 39, 52
11, 32840, Note_on_c, 9, 36, 95
11, 32869, Note_on_c, 9, 36, 0
11, 32880, Note_on_c, 9, 44, 0
11, 32880, Note_on_c, 9, 40, 0
11, 32880, Note_on_c, 9, 39, 0
11, 32880, Note_on_c, 9, 40, 43
11, 33000, Note_on_c, 9, 40, 0
11, 33000, Note_on_c, 9, 44, 96
11, 33000, Note_on_c, 9, 40, 39
11, 33080, Note_on_c, 9, 40, 0
11, 33080, Note_on_c, 9, 39, 38
11, 33092, Note_on_c, 9, 36, 105
11, 33118, Note_on_c, 9, 36, 0
11, 33120, Note_on_c, 9, 39, 0
11, 33120, Note_on_c, 9, 44, 0
11, 33120, Note_on_c, 9, 40, 38
11, 33240, Note_on_c, 9, 40, 0
11, 33240, Note_on_c, 9, 44, 102
11, 33240, Note_on_c, 9, 40, 32
11, 33320, Note_on_c, 9, 40, 0
11, 33360, Note_on_c, 9, 44, 0
11, 33360, Note_on_c, 9, 40, 36
11, 33440, Note_on_c, 9, 40, 0
11, 33445, Note_on_c, 9, 39, 58
11, 33462, Note_on_c, 9, 39, 0
11, 33480, Note_on_c, 9, 44, 102
11, 33480, Note_on_c, 9, 40, 34
11, 33497, Note_on_c, 9, 36, 85
11, 33516, Note_on_c, 9, 36, 0
11, 33560, Note_on_c, 9, 40, 0
11, 33560, Note_on_c, 9, 39, 49
11, 33567, Note_on_c, 9, 36, 103
11, 33598, Note_on_c, 9, 36, 0
11, 33600, Note_on_c, 9, 39, 0
11, 33600, Note_on_c, 9, 44, 0
11, 33600, Note_on_c, 9, 40, 38
11, 33720, Note_on_c, 9, 40, 0
11, 33720, Note_on_c, 9, 44, 101
11, 33720, Note_on_c, 9, 40, 36
11, 33840, Note_on_c, 9, 40, 0
11, 33840, Note_on_c, 9, 44, 0
11, 33840, Note_on_c, 9, 40, 37
11, 33960, Note_on_c, 9, 40, 0
11, 33960, Note_on_c, 9, 44, 102
11, 33960, Note_on_c, 9, 40, 30
11, 34000, Note_on_c, 9, 39, 38
11, 34040, Note_on_c, 9, 39, 0
11, 34040, Note_on_c, 9, 40, 0
11, 34040, Note_on_c, 9, 40, 44
11, 34080, Note_on_c, 9, 44, 0
11, 34080, Note_on_c, 9, 44, 77
11, 34120, Note_on_c, 9, 40, 0
11, 34120, Note_on_c, 9, 39, 32
11, 34158, Note_on_c, 9, 39, 66
11, 34160, Note_on_c, 9, 39, 0
11, 34160, Note_on_c, 9, 40, 37
11, 34184, Note_on_c, 9, 39, 0
11, 34196, Note_on_c, 9, 46, 53
11, 34200, Note_on_c, 9, 40, 0
11, 34200, Note_on_c, 9, 44, 0
11, 34200, Note_on_c, 9, 44, 93
11, 34200, Note_on_c, 9, 40, 34
11, 34202, Note_on_c, 9, 36, 50
11, 34209, Note_on_c, 9, 46, 0
11, 34216, Note_on_c, 9, 36, 0
11, 34280, Note_on_c, 9, 40, 0
11, 34320, Note_on_c, 9, 44, 0
11, 34320, Note_on_c, 9, 40, 36
11, 34400, Note_on_c, 9, 39, 66
11, 34420, Note_on_c, 9, 39, 0
11, 34440, Note_on_c, 9, 40, 0
11, 34440, Note_on_c, 9, 44, 93
11, 34440, Note_on_c, 9, 40, 34
11, 34516, Note_on_c, 9, 39, 80
11, 34520, Note_on_c, 9, 39, 35
11, 34544, Note_on_c, 9, 39, 0
11, 34560, Note_on_c, 9, 44, 0
11, 34560, Note_on_c, 9, 40, 0
11, 34560, Note_on_c, 9, 39, 0
11, 34560, Note_on_c, 9, 40, 32
11, 34564, Note_on_c, 9, 36, 77
11, 34567, Note_on_c, 9, 57, 68
11, 34587, Note_on_c, 9, 57, 0
11, 34599, Note_on_c, 9, 36, 0
11, 34680, Note_on_c, 9, 40, 0
11, 34680, Note_on_c, 9, 44, 91
11, 34680, Note_on_c, 9, 40, 36
11, 34760, Note_on_c, 9, 40, 0
11, 34800, Note_on_c, 9, 44, 0
11, 34800, Note_on_c, 9, 40, 33
11, 34880, Note_on_c, 9, 39, 48
11, 34888, Note_on_c, 9, 38, 67
11, 34908, Note_on_c, 9, 38, 0
11, 34920, Note_on_c, 9, 39, 0
11, 34920, Note_on_c, 9, 40, 0
11, 34920, Note_on_c, 9, 46, 89
11, 34920, Note_on_c, 9, 40, 34
11, 34935, Note_on_c, 9, 36, 66
11, 34960, Note_on_c, 9, 36, 0
11, 35040, Note_on_c, 9, 40, 0
11, 35040, Note_on_c, 9, 46, 0
11, 35040, Note_on_c, 9, 40, 33
11, 35160, Note_on_c, 9, 40, 0
11, 35160, Note_on_c, 9, 46, 78
11, 35160, Note_on_c, 9, 40, 39
11, 35280, Note_on_c, 9, 40, 0
11, 35280, Note_on_c, 9, 46, 0
11, 35280, Note_on_c, 9, 40, 37
11, 35360, Note_on_c, 9, 40, 0
11, 35360, Note_on_c, 9, 39, 48
11, 35400, Note_on_c, 9, 39, 0
11, 35400, Note_on_c, 9, 44, 87
11, 35400, Note_on_c, 9, 40, 41
11, 35480, Note_on_c, 9, 40, 0
11, 35489, Note_on_c, 9, 36, 46
11, 35492, Note_on_c, 9, 33, 46
11, 35502, Note_on_c, 9, 36, 0
11, 35503, Note_on_c, 9, 33, 0
11, 35520, Note_on_c, 9, 44, 0
11, 35520, Note_on_c, 9, 40, 36
11, 35522, Note_on_c, 9, 36, 74
11, 35548, Note_on_c, 9, 36, 0
11, 35598, Note_on_c, 9, 51, 38
11, 35600, Note_on_c, 9, 40, 0
11, 35608, Note_on_c, 9, 51, 0
11, 35640, Note_on_c, 9, 44, 89
11, 35640, Note_on_c, 9, 40, 37
11, 35720, Note_on_c, 9, 40, 0
11, 35721, Note_on_c, 9, 39, 68
11, 35737, Note_on_c, 9, 39, 0
11, 35750, Note_on_c, 9, 36, 70
11, 35760, Note_on_c, 9, 44, 0
11, 35760, Note_on_c, 9, 40, 36
11, 35774, Note_on_c, 9, 36, 0
11, 35845, Note_on_c, 9, 51, 60
11, 35859, Note_on_c, 9, 51, 0
11, 35880, Note_on_c, 9, 40, 0
11, 35880, Note_on_c, 9, 44, 96
11, 35880, Note_on_c, 9, 40, 31
11, 35960, Note_on_c, 9, 40, 0
11, 35960, Note_on_c, 9, 53, 54
11, 35970, Note_on_c, 9, 36, 78
11, 35981, Note_on_c, 9, 36, 0
11, 36000, Note_on_c, 9, 53, 0
11, 36000, Note_on_c, 9, 44, 0
11, 36000, Note_on_c, 9, 40, 33
11, 36077, Note_on_c, 9, 36, 43
11, 36085, Note_on_c, 9, 36, 0
11, 36090, Note_on_c, 9, 51, 59
11, 36112, Note_on_c, 9, 51, 0
11, 36119, Note_on_c, 9, 36, 45
11, 36120, Note_on_c, 9, 40, 0
11, 36120, Note_on_c, 9, 44, 99
11, 36120, Note_on_c, 9, 40, 35
11, 36125, Note_on_c, 9, 36, 0
11, 36200, Note_on_c, 9, 40, 0
11, 36200, Note_on_c, 9, 55, 59
11, 36240, Note_on_c, 9, 55, 0
11, 36240, Note_on_c, 9, 44, 0
11, 36240, Note_on_c, 9, 40, 27
11, 36305, Note_on_c, 9, 38, 57
11, 36320, Note_on_c, 9, 40, 0
11, 36360, Note_on_c, 9, 46, 98
11, 36360, Note_on_c, 9, 40, 37
11, 36437, Note_on_c, 9, 43, 39
11, 36440, Note_on_c, 9, 40, 0
11, 36440, Note_on_c, 9, 39, 31
11, 36441, Note_on_c, 9, 53, 61
11, 36442, Note_on_c, 9, 38, 48
11, 36442, Note_on_c, 9, 38, 71
11, 36446, Note_on_c, 9, 43, 0
11, 36450, Note_on_c, 9, 53, 0
11, 36456, Note_on_c, 9, 38, 0
11, 36477, Note_on_c, 9, 38, 0
11, 36479, Note_on_c, 9, 51, 42
11, 36480, Note_on_c, 9, 46, 0
11, 36480, Note_on_c, 9, 39, 0
11, 36480, Program_c, 9, 0
11, 36480, Note_on_c, 9, 53, 76
11, 36480, Note_on_c, 9, 36, 70
11, 36480, Note_on_c, 9, 40, 30
11, 36482, Note_on_c, 9, 57, 107
11, 36482, Note_on_c, 9, 36, 100
11, 36483, Note_on_c, 9, 57, 38
11, 36485, Note_on_c, 9, 38, 0
11, 36488, Note_on_c, 9, 57, 0
11, 36493, Note_on_c, 9, 36, 0
11, 36497, Note_on_c, 9, 51, 0
11, 36504, Note_on_c, 9, 57, 0
11, 36520, Note_on_c, 9, 53, 0
11, 36520, Note_on_c, 9, 40, 0
11, 36537, Note_on_c, 9, 36, 0
11, 36600, Note_on_c, 9, 44, 85
11, 36677, Note_on_c, 9, 51, 65
11, 36693, Note_on_c, 9, 51, 0
11, 36720, Note_on_c, 9, 44, 0
11, 36795, Note_on_c, 9, 38, 45
11, 36840, Note_on_c, 9, 44, 95
11, 36910, Note_on_c, 9, 38, 40
11, 36928, Note_on_c, 9, 51, 65
11, 36948, Note_on_c, 9, 51, 0
11, 36951, Note_on_c, 9, 38, 0
11, 36951, Note_on_c, 9, 57, 53
11, 36953, Note_on_c, 9, 36, 60
11, 36957, Note_on_c, 9, 57, 0
11, 36957, Note_on_c, 9, 38, 0
11, 36960, Note_on_c, 9, 44, 0
11, 36963, Note_on_c, 9, 51, 59
11, 36970, Note_on_c, 9, 36, 0
11, 36989, Note_on_c, 9, 51, 0
11, 37080, Note_on_c, 9, 44, 95
11, 37167, Note_on_c, 9, 51, 76
11, 37189, Note_on_c, 9, 51, 0
11, 37200, Note_on_c, 9, 44, 0
11, 37207, Note_on_c, 9, 51, 77
11, 37233, Note_on_c, 9, 51, 0
11, 37245, Note_on_c, 9, 40, 13
11, 37260, Note_on_c, 9, 40, 0
11, 37276, Note_on_c, 9, 40, 27
11, 37300, Note_on_c, 9, 40, 0
11, 37315, Note_on_c, 9, 40, 41
11, 37320, Note_on_c, 9, 44, 91
11, 37340, Note_on_c, 9, 40, 0
11, 37349, Note_on_c, 9, 38, 45
11, 37359, Note_on_c, 9, 38, 0
11, 37384, Note_on_c, 9, 36, 82
11, 37410, Note_on_c, 9, 51, 83
11, 37417, Note_on_c, 9, 36, 0
11, 37433, Note_on_c, 9, 51, 0
11, 37440, Note_on_c, 9, 44, 0
11, 37452, Note_on_c, 9, 51, 77
11, 37482, Note_on_c, 9, 51, 0
11, 37560, Note_on_c, 9, 44, 95
11, 37649, Note_on_c, 9, 51, 75
11, 37669, Note_on_c, 9, 51, 0
11, 37680, Note_on_c, 9, 44, 0
11, 37694, Note_on_c, 9, 51, 53
11, 37717, Note_on_c, 9, 51, 0
11, 37765, Note_on_c, 9, 53, 91
11, 37782, Note_on_c, 9, 53, 0
11, 37800, Note_on_c, 9, 44, 95
11, 37879, Note_on_c, 9, 38, 33
11, 37892, Note_on_c, 9, 38, 0
11, 37920, Note_on_c, 9, 44, 0
11, 37924, Note_on_c, 9, 51, 56
11, 37945, Note_on_c, 9, 51, 0
11, 38040, Note_on_c, 9, 44, 98
11, 38124, Note_on_c, 9, 51, 60
11, 38142, Note_on_c, 9, 51, 0
11, 38160, Note_on_c, 9, 44, 0
11, 38160, Note_on_c, 9, 51, 67
11, 38201, Note_on_c, 9, 40, 10
11, 38220, Note_on_c, 9, 40, 0
11, 38257, Note_on_c, 9, 51, 0
11, 38280, Note_on_c, 9, 44, 100
11, 38321, Note_on_c, 9, 38, 33
11, 38332, Note_on_c, 9, 38, 0
11, 38352, Note_on_c, 9, 38, 43
11, 38365, Note_on_c, 9, 51, 65
11, 38381, Note_on_c, 9, 38, 0
11, 38382, Note_on_c, 9, 51, 0
11, 38392, Note_on_c, 9, 36, 35
11, 38400, Note_on_c, 9, 44, 0
11, 38403, Note_on_c, 9, 36, 0
11, 38406, Note_on_c, 9, 51, 74
11, 38490, Note_on_c, 9, 51, 0
11, 38519, Note_on_c, 9, 51, 70
11, 38520, Note_on_c, 9, 44, 105
11, 38621, Note_on_c, 9, 51, 0
11, 38640, Note_on_c, 9, 44, 0
11, 38725, Note_on_c, 9, 51, 54
11, 38738, Note_on_c, 9, 51, 0
11, 38756, Note_on_c, 9, 51, 69
11, 38760, Note_on_c, 9, 44, 107
11, 38847, Note_on_c, 9, 51, 0
11, 38880, Note_on_c, 9, 44, 0
11, 38880, Note_on_c, 9, 51, 77
11, 38968, Note_on_c, 9, 51, 0
11, 39000, Note_on_c, 9, 44, 100
11, 39000, Note_on_c, 9, 51, 75
11, 39069, Note_on_c, 9, 51, 0
11, 39082, Note_on_c, 9, 37, 48
11, 39093, Note_on_c, 9, 51, 52
11, 39103, Note_on_c, 9, 37, 0
11, 39111, Note_on_c, 9, 51, 0
11, 39120, Note_on_c, 9, 44, 0
11, 39122, Note_on_c, 9, 51, 75
11, 39166, Note_on_c, 9, 37, 67
11, 39202, Note_on_c, 9, 37, 0
11, 39208, Note_on_c, 9, 51, 0
11, 39236, Note_on_c, 9, 51, 79
11, 39240, Note_on_c, 9, 44, 103
11, 39244, Note_on_c, 9, 37, 77
11, 39276, Note_on_c, 9, 37, 0
11, 39312, Note_on_c, 9, 51, 0
11, 39318, Note_on_c, 9, 37, 85
11, 39324, Note_on_c, 9, 51, 60
11, 39340, Note_on_c, 9, 51, 0
11, 39347, Note_on_c, 9, 37, 0
11, 39358, Note_on_c, 9, 51, 73
11, 39360, Note_on_c, 9, 44, 0
11, 39392, Note_on_c, 9, 37, 85
11, 39423, Note_on_c, 9, 37, 0
11, 39444, Note_on_c, 9, 51, 0
11, 39469, Note_on_c, 9, 37, 85
11, 39476, Note_on_c, 9, 51, 83
11, 39480, Note_on_c, 9, 44, 105
11, 39497, Note_on_c, 9, 37, 0
11, 39552, Note_on_c, 9, 37, 85
11, 39560, Note_on_c, 9, 51, 0
11, 39573, Note_on_c, 9, 37, 0
11, 39599, Note_on_c, 9, 51, 78
11, 39600, Note_on_c, 9, 44, 0
11, 39640, Note_on_c, 9, 37, 77
11, 39659, Note_on_c, 9, 37, 0
11, 39696, Note_on_c, 9, 51, 0
11, 39720, Note_on_c, 9, 44, 103
11, 39724, Note_on_c, 9, 51, 69
11, 39727, Note_on_c, 9, 37, 72
11, 39738, Note_on_c, 9, 37, 0
11, 39801, Note_on_c, 9, 51, 0
11, 39811, Note_on_c, 9, 37, 72
11, 39814, Note_on_c, 9, 53, 76
11, 39838, Note_on_c, 9, 37, 0
11, 39840, Note_on_c, 9, 44, 0
11, 39846, Note_on_c, 9, 53, 0
11, 39855, Note_on_c, 9, 51, 47
11, 39931, Note_on_c, 9, 38, 34
11, 39940, Note_on_c, 9, 51, 0
11, 39943, Note_on_c, 9, 38, 0
11, 39960, Note_on_c, 9, 44, 102
11, 39963, Note_on_c, 9, 51, 54
11, 40045, Note_on_c, 9, 38, 26
11, 40058, Note_on_c, 9, 51, 0
11, 40059, Note_on_c, 9, 38, 0
11, 40080, Note_on_c, 9, 44, 0
11, 40089, Note_on_c, 9, 51, 72
11, 40177, Note_on_c, 9, 51, 0
11, 40200, Note_on_c, 9, 44, 95
11, 40207, Note_on_c, 9, 51, 74
11, 40273, Note_on_c, 9, 51, 0
11, 40293, Note_on_c, 9, 51, 56
11, 40311, Note_on_c, 9, 51, 0
11, 40320, Note_on_c, 9, 44, 0
11, 40325, Note_on_c, 9, 51, 76
11, 40400, Note_on_c, 9, 36, 43
11, 40410, Note_on_c, 9, 36, 0
11, 40412, Note_on_c, 9, 51, 0
11, 40440, Note_on_c, 9, 44, 98
11, 40442, Note_on_c, 9, 36, 28
11, 40443, Note_on_c, 9, 51, 79
11, 40463, Note_on_c, 9, 36, 0
11, 40518, Note_on_c, 9, 51, 0
11, 40537, Note_on_c, 9, 51, 51
11, 40555, Note_on_c, 9, 51, 0
11, 40560, Note_on_c, 9, 44, 0
11, 40568, Note_on_c, 9, 51, 83
11, 40649, Note_on_c, 9, 36, 31
11, 40658, Note_on_c, 9, 51, 0
11, 40666, Note_on_c, 9, 36, 0
11, 40680, Note_on_c, 9, 44, 105
11, 40688, Note_on_c, 9, 51, 75
11, 40694, Note_on_c, 9, 36, 34
11, 40703, Note_on_c, 9, 36, 0
11, 40733, Note_on_c, 9, 38, 23
11, 40740, Note_on_c, 9, 38, 0
11, 40763, Note_on_c, 9, 51, 0
11, 40771, Note_on_c, 9, 36, 43
11, 40786, Note_on_c, 9, 36, 0
11, 40800, Note_on_c, 9, 44, 0
11, 40803, Note_on_c, 9, 51, 79
11, 40810, Note_on_c, 9, 36, 42
11, 40831, Note_on_c, 9, 36, 0
11, 40883, Note_on_c, 9, 51, 0
11, 40920, Note_on_c, 9, 44, 105
11, 40926, Note_on_c, 9, 51, 80
11, 41000, Note_on_c, 9, 51, 0
11, 41040, Note_on_c, 9, 44, 0
11, 41046, Note_on_c, 9, 51, 81
11, 41047, Note_on_c, 9, 40, 27
11, 41060, Note_on_c, 9, 40, 0
11, 41103, Note_on_c, 9, 40, 39
11, 41120, Note_on_c, 9, 40, 0
11, 41120, Note_on_c, 9, 51, 0
11, 41160, Note_on_c, 9, 46, 98
11, 41164, Note_on_c, 9, 51, 79
11, 41164, Note_on_c, 9, 40, 44
11, 41180, Note_on_c, 9, 40, 0
11, 41199, Note_on_c, 9, 38, 38
11, 41208, Note_on_c, 9, 38, 0
11, 41224, Note_on_c, 9, 51, 0
11, 41257, Note_on_c, 9, 51, 48
11, 41266, Note_on_c, 9, 51, 0
11, 41266, Note_on_c, 9, 38, 61
11, 41278, Note_on_c, 9, 38, 0
11, 41280, Note_on_c, 9, 46, 0
11, 41286, Note_on_c, 9, 51, 67
11, 41294, Note_on_c, 9, 57, 46
11, 41294, Note_on_c, 9, 36, 38
11, 41303, Note_on_c, 9, 57, 0
11, 41311, Note_on_c, 9, 36, 0
11, 41369, Note_on_c, 9, 51, 0
11, 41400, Note_on_c, 9, 44, 88
11, 41407, Note_on_c, 9, 51, 80
11, 41477, Note_on_c, 9, 51, 0
11, 41479, Note_on_c, 9, 36, 43
11, 41485, Note_on_c, 9, 36, 0
11, 41520, Note_on_c, 9, 44, 0
11, 41522, Note_on_c, 9, 51, 76
11, 41587, Note_on_c, 9, 51, 0
11, 41640, Note_on_c, 9, 44, 91
11, 41648, Note_on_c, 9, 51, 78
11, 41723, Note_on_c, 9, 51, 0
11, 41760, Note_on_c, 9, 44, 0
11, 41765, Note_on_c, 9, 51, 77
11, 41846, Note_on_c, 9, 51, 0
11, 41880, Note_on_c, 9, 46, 93
11, 41889, Note_on_c, 9, 51, 73
11, 41957, Note_on_c, 9, 51, 0
11, 42000, Note_on_c, 9, 46, 0
11, 42009, Note_on_c, 9, 51, 70
11, 42070, Note_on_c, 9, 51, 0
11, 42086, Note_on_c, 9, 38, 17
11, 42093, Note_on_c, 9, 38, 0
11, 42120, Note_on_c, 9, 44, 87
11, 42122, Note_on_c, 9, 46, 66
11, 42123, Note_on_c, 9, 51, 78
11, 42148, Note_on_c, 9, 46, 0
11, 42182, Note_on_c, 9, 51, 0
11, 42201, Note_on_c, 9, 38, 35
11, 42205, Note_on_c, 9, 38, 45
11, 42229, Note_on_c, 9, 38, 0
11, 42231, Note_on_c, 9, 38, 0
11, 42237, Note_on_c, 9, 36, 27
11, 42240, Note_on_c, 9, 44, 0
11, 42241, Note_on_c, 9, 51, 48
11, 42288, Note_on_c, 9, 51, 0
11, 42292, Note_on_c, 9, 36, 0
11, 42318, Note_on_c, 9, 36, 29
11, 42326, Note_on_c, 9, 36, 0
11, 42355, Note_on_c, 9, 51, 79
11, 42360, Note_on_c, 9, 44, 100
11, 42404, Note_on_c, 9, 51, 0
11, 42450, Note_on_c, 9, 51, 33
11, 42461, Note_on_c, 9, 51, 0
11, 42480, Note_on_c, 9, 44, 0
11, 42482, Note_on_c, 9, 51, 58
11, 42561, Note_on_c, 9, 38, 25
11, 42563, Note_on_c, 9, 51, 0
11, 42600, Note_on_c, 9, 44, 102
11, 42602, Note_on_c, 9, 51, 74
11, 42672, Note_on_c, 9, 51, 0
11, 42679, Note_on_c, 9, 38, 41
11, 42683, Note_on_c, 9, 57, 27
11, 42688, Note_on_c, 9, 57, 0
11, 42693, Note_on_c, 9, 51, 47
11, 42710, Note_on_c, 9, 51, 0
11, 42720, Note_on_c, 9, 44, 0
11, 42725, Note_on_c, 9, 51, 73
11, 42728, Note_on_c, 9, 38, 0
11, 42728, Note_on_c, 9, 38, 0
11, 42729, Note_on_c, 9, 36, 28
11, 42730, Note_on_c, 9, 57, 17
11, 42735, Note_on_c, 9, 57, 0
11, 42742, Note_on_c, 9, 36, 0
11, 42810, Note_on_c, 9, 51, 0
11, 42840, Note_on_c, 9, 44, 96
11, 42846, Note_on_c, 9, 51, 76
11, 42926, Note_on_c, 9, 51, 0
11, 42960, Note_on_c, 9, 44, 0
11, 42968, Note_on_c, 9, 51, 76
11, 43012, Note_on_c, 9, 51, 0
11, 43055, Note_on_c, 9, 53, 75
11, 43080, Note_on_c, 9, 53, 0
11, 43080, Note_on_c, 9, 44, 95
11, 43084, Note_on_c, 9, 38, 32
11, 43091, Note_on_c, 9, 51, 57
11, 43155, Note_on_c, 9, 38, 0
11, 43156, Note_on_c, 9, 40, 35
11, 43158, Note_on_c, 9, 36, 65
11, 43173, Note_on_c, 9, 51, 0
11, 43180, Note_on_c, 9, 40, 0
11, 43191, Note_on_c, 9, 36, 0
11, 43200, Note_on_c, 9, 44, 0
11, 43203, Note_on_c, 9, 51, 64
11, 43279, Note_on_c, 9, 51, 0
11, 43320, Note_on_c, 9, 44, 99
11, 43325, Note_on_c, 9, 51, 65
11, 43440, Note_on_c, 9, 44, 0
11, 43494, Note_on_c, 9, 51, 0
11, 43527, Note_on_c, 9, 51, 53
11, 43538, Note_on_c, 9, 51, 0
11, 43560, Note_on_c, 9, 44, 93
11, 43563, Note_on_c, 9, 51, 67
11, 43643, Note_on_c, 9, 38, 17
11, 43680, Note_on_c, 9, 44, 0
11, 43715, Note_on_c, 9, 51, 0
11, 43769, Note_on_c, 9, 56, 56
11, 43770, Note_on_c, 9, 38, 50
11, 43800, Note_on_c, 9, 46, 91
11, 43802, Note_on_c, 9, 56, 0
11, 43806, Note_on_c, 9, 38, 0
11, 43808, Note_on_c, 9, 38, 0
11, 43811, Note_on_c, 9, 36, 35
11, 43814, Note_on_c, 9, 57, 29
11, 43842, Note_on_c, 9, 57, 0
11, 43852, Note_on_c, 9, 36, 0
11, 43894, Note_on_c, 9, 51, 64
11, 43913, Note_on_c, 9, 51, 0
11, 43920, Note_on_c, 9, 46, 0
11, 43927, Note_on_c, 9, 51, 68
11, 44005, Note_on_c, 9, 51, 0
11, 44044, Note_on_c, 9, 51, 84
11, 44117, Note_on_c, 9, 38, 34
11, 44123, Note_on_c, 9, 38, 0
11, 44158, Note_on_c, 9, 38, 42
11, 44159, Note_on_c, 9, 51, 0
11, 44173, Note_on_c, 9, 38, 0
11, 44229, Note_on_c, 9, 36, 55
11, 44244, Note_on_c, 9, 51, 45
11, 44254, Note_on_c, 9, 51, 0
11, 44276, Note_on_c, 9, 51, 59
11, 44280, Note_on_c, 9, 44, 101
11, 44312, Note_on_c, 9, 36, 0
11, 44348, Note_on_c, 9, 36, 45
11, 44363, Note_on_c, 9, 51, 0
11, 44370, Note_on_c, 9, 36, 0
11, 44397, Note_on_c, 9, 51, 67
11, 44400, Note_on_c, 9, 44, 0
11, 44479, Note_on_c, 9, 51, 0
11, 44520, Note_on_c, 9, 44, 102
11, 44520, Note_on_c, 9, 51, 52
11, 44599, Note_on_c, 9, 36, 69
11, 44603, Note_on_c, 9, 51, 0
11, 44629, Note_on_c, 9, 36, 0
11, 44639, Note_on_c, 9, 51, 60
11, 44640, Note_on_c, 9, 44, 0
11, 44713, Note_on_c, 9, 51, 0
11, 44758, Note_on_c, 9, 51, 65
11, 44760, Note_on_c, 9, 44, 107
11, 44831, Note_on_c, 9, 51, 0
11, 44858, Note_on_c, 9, 51, 36
11, 44869, Note_on_c, 9, 51, 0
11, 44880, Note_on_c, 9, 44, 0
11, 44885, Note_on_c, 9, 51, 59
11, 44950, Note_on_c, 9, 40, 18
11, 44975, Note_on_c, 9, 51, 0
11, 44980, Note_on_c, 9, 40, 0
11, 44999, Note_on_c, 9, 51, 64
11, 45000, Note_on_c, 9, 44, 98
11, 45039, Note_on_c, 9, 40, 15
11, 45060, Note_on_c, 9, 40, 0
11, 45084, Note_on_c, 9, 51, 0
11, 45100, Note_on_c, 9, 40, 17
11, 45120, Note_on_c, 9, 40, 0
11, 45120, Note_on_c, 9, 44, 0
11, 45120, Note_on_c, 9, 51, 72
11, 45159, Note_on_c, 9, 40, 17
11, 45180, Note_on_c, 9, 40, 0
11, 45189, Note_on_c, 9, 51, 0
11, 45208, Note_on_c, 9, 51, 42
11, 45218, Note_on_c, 9, 51, 0
11, 45238, Note_on_c, 9, 51, 60
11, 45240, Note_on_c, 9, 44, 96
11, 45241, Note_on_c, 9, 40, 21
11, 45260, Note_on_c, 9, 40, 0
11, 45336, Note_on_c, 9, 51, 0
11, 45360, Note_on_c, 9, 44, 0
11, 45364, Note_on_c, 9, 51, 65
11, 45434, Note_on_c, 9, 36, 51
11, 45456, Note_on_c, 9, 51, 0
11, 45464, Note_on_c, 9, 36, 0
11, 45479, Note_on_c, 9, 36, 23
11, 45480, Note_on_c, 9, 44, 100
11, 45491, Note_on_c, 9, 51, 71
11, 45500, Note_on_c, 9, 36, 0
11, 45541, Note_on_c, 9, 51, 0
11, 45600, Note_on_c, 9, 44, 0
11, 45612, Note_on_c, 9, 51, 56
11, 45691, Note_on_c, 9, 51, 0
11, 45720, Note_on_c, 9, 44, 102
11, 45727, Note_on_c, 9, 51, 71
11, 45805, Note_on_c, 9, 36, 66
11, 45811, Note_on_c, 9, 51, 0
11, 45840, Note_on_c, 9, 36, 0
11, 45840, Note_on_c, 9, 44, 0
11, 45851, Note_on_c, 9, 36, 45
11, 45853, Note_on_c, 9, 51, 67
11, 45878, Note_on_c, 9, 36, 0
11, 45937, Note_on_c, 9, 51, 0
11, 45960, Note_on_c, 9, 44, 100
11, 45972, Note_on_c, 9, 51, 68
11, 45980, Note_on_c, 9, 40, 23
11, 46000, Note_on_c, 9, 40, 0
11, 46014, Note_on_c, 9, 40, 34
11, 46028, Note_on_c, 9, 51, 0
11, 46040, Note_on_c, 9, 40, 0
11, 46048, Note_on_c, 9, 36, 31
11, 46055, Note_on_c, 9, 51, 41
11, 46056, Note_on_c, 9, 36, 0
11, 46065, Note_on_c, 9, 51, 0
11, 46080, Note_on_c, 9, 44, 0
11, 46083, Note_on_c, 9, 36, 47
11, 46086, Note_on_c, 9, 51, 53
11, 46104, Note_on_c, 9, 36, 0
11, 46161, Note_on_c, 9, 51, 0
11, 46200, Note_on_c, 9, 44, 98
11, 46201, Note_on_c, 9, 51, 67
11, 46265, Note_on_c, 9, 51, 0
11, 46320, Note_on_c, 9, 44, 0
11, 46321, Note_on_c, 9, 51, 57
11, 46396, Note_on_c, 9, 51, 0
11, 46438, Note_on_c, 9, 51, 32
11, 46440, Note_on_c, 9, 44, 94
11, 46489, Note_on_c, 9, 51, 0
11, 46537, Note_on_c, 9, 51, 65
11, 46560, Note_on_c, 9, 44, 0
11, 46562, Note_on_c, 9, 40, 12
11, 46570, Note_on_c, 9, 51, 0
11, 46570, Note_on_c, 9, 59, 46
11, 46579, Note_on_c, 9, 59, 0
11, 46580, Note_on_c, 9, 40, 0
11, 46615, Note_on_c, 9, 40, 13
11, 46640, Note_on_c, 9, 40, 0
11, 46644, Note_on_c, 9, 40, 15
11, 46660, Note_on_c, 9, 40, 0
11, 46670, Note_on_c, 9, 40, 22
11, 46680, Note_on_c, 9, 44, 100
11, 46680, Note_on_c, 9, 51, 56
11, 46699, Note_on_c, 9, 36, 55
11, 46700, Note_on_c, 9, 40, 0
11, 46714, Note_on_c, 9, 36, 0
11, 46715, Note_on_c, 9, 51, 0
11, 46725, Note_on_c, 9, 36, 45
11, 46744, Note_on_c, 9, 36, 0
11, 46755, Note_on_c, 9, 36, 56
11, 46776, Note_on_c, 9, 36, 0
11, 46784, Note_on_c, 9, 36, 83
11, 46800, Note_on_c, 9, 44, 0
11, 46808, Note_on_c, 9, 51, 51
11, 46826, Note_on_c, 9, 36, 0
11, 46853, Note_on_c, 9, 51, 0
11, 46888, Note_on_c, 9, 51, 42
11, 46920, Note_on_c, 9, 44, 98
11, 46922, Note_on_c, 9, 51, 0
11, 46923, Note_on_c, 9, 59, 63
11, 46942, Note_on_c, 9, 59, 0
11, 47009, Note_on_c, 9, 51, 58
11, 47033, Note_on_c, 9, 51, 0
11, 47040, Note_on_c, 9, 44, 0
11, 47050, Note_on_c, 9, 51, 55
11, 47083, Note_on_c, 9, 51, 0
11, 47123, Note_on_c, 9, 38, 37
11, 47147, Note_on_c, 9, 38, 0
11, 47157, Note_on_c, 9, 51, 64
11, 47157, Note_on_c, 9, 36, 47
11, 47159, Note_on_c, 9, 57, 45
11, 47160, Note_on_c, 9, 44, 103
11, 47204, Note_on_c, 9, 57, 0
11, 47222, Note_on_c, 9, 51, 0
11, 47280, Note_on_c, 9, 44, 0
11, 47284, Note_on_c, 9, 51, 63
11, 47343, Note_on_c, 9, 51, 0
11, 47385, Note_on_c, 9, 36, 0
11, 47400, Note_on_c, 9, 44, 105
11, 47403, Note_on_c, 9, 51, 63
11, 47441, Note_on_c, 9, 51, 0
11, 47487, Note_on_c, 9, 51, 60
11, 47504, Note_on_c, 9, 51, 0
11, 47520, Note_on_c, 9, 44, 0
11, 47520, Note_on_c, 9, 51, 68
11, 47580, Note_on_c, 9, 51, 0
11, 47640, Note_on_c, 9, 44, 105
11, 47644, Note_on_c, 9, 51, 61
11, 47692, Note_on_c, 9, 51, 0
11, 47733, Note_on_c, 9, 51, 48
11, 47743, Note_on_c, 9, 51, 0
11, 47760, Note_on_c, 9, 44, 0
11, 47760, Note_on_c, 9, 51, 61
11, 47805, Note_on_c, 9, 51, 0
11, 47880, Note_on_c, 9, 44, 105
11, 47887, Note_on_c, 9, 51, 66
11, 47922, Note_on_c, 9, 51, 0
11, 47948, Note_on_c, 9, 38, 26
11, 47960, Note_on_c, 9, 38, 0
11, 47989, Note_on_c, 9, 40, 25
11, 47998, Note_on_c, 9, 51, 73
11, 47998, Note_on_c, 9, 36, 17
11, 48000, Note_on_c, 9, 40, 0
11, 48000, Note_on_c, 9, 44, 0
11, 48005, Note_on_c, 9, 36, 0
11, 48038, Note_on_c, 9, 51, 0
11, 48120, Note_on_c, 9, 44, 101
11, 48127, Note_on_c, 9, 51, 73
11, 48156, Note_on_c, 9, 51, 0
11, 48180, Note_on_c, 9, 40, 14
11, 48200, Note_on_c, 9, 40, 0
11, 48240, Note_on_c, 9, 44, 0
11, 48244, Note_on_c, 9, 51, 70
11, 48252, Note_on_c, 9, 40, 17
11, 48269, Note_on_c, 9, 51, 0
11, 48280, Note_on_c, 9, 40, 0
11, 48282, Note_on_c, 9, 40, 15
11, 48300, Note_on_c, 9, 40, 0
11, 48339, Note_on_c, 9, 40, 24
11, 48360, Note_on_c, 9, 40, 0
11, 48360, Note_on_c, 9, 44, 105
11, 48369, Note_on_c, 9, 51, 77
11, 48370, Note_on_c, 9, 40, 19
11, 48397, Note_on_c, 9, 51, 0
11, 48397, Note_on_c, 9, 40, 16
11, 48400, Note_on_c, 9, 40, 0
11, 48420, Note_on_c, 9, 40, 0
11, 48425, Note_on_c, 9, 38, 34
11, 48431, Note_on_c, 9, 40, 14
11, 48447, Note_on_c, 9, 38, 0
11, 48455, Note_on_c, 9, 38, 53
11, 48457, Note_on_c, 9, 51, 43
11, 48457, Note_on_c, 9, 40, 31
11, 48460, Note_on_c, 9, 40, 0
11, 48467, Note_on_c, 9, 51, 0
11, 48480, Note_on_c, 9, 44, 0
11, 48480, Note_on_c, 9, 40, 0
11, 48486, Note_on_c, 9, 40, 27
11, 48487, Note_on_c, 9, 51, 65
11, 48488, Note_on_c, 9, 38, 0
11, 48488, Note_on_c, 9, 36, 50
11, 48500, Note_on_c, 9, 40, 0
11, 48513, Note_on_c, 9, 36, 0
11, 48538, Note_on_c, 9, 51, 0
11, 48595, Note_on_c, 9, 51, 82
11, 48600, Note_on_c, 9, 44, 99
11, 48628, Note_on_c, 9, 51, 0
11, 48712, Note_on_c, 9, 51, 79
11, 48720, Note_on_c, 9, 44, 0
11, 48742, Note_on_c, 9, 51, 0
11, 48837, Note_on_c, 9, 51, 75
11, 48840, Note_on_c, 9, 44, 101
11, 48866, Note_on_c, 9, 51, 0
11, 48882, Note_on_c, 9, 38, 40
11, 48891, Note_on_c, 9, 38, 0
11, 48918, Note_on_c, 9, 38, 59
11, 48933, Note_on_c, 9, 51, 51
11, 48945, Note_on_c, 9, 51, 0
11, 48954, Note_on_c, 9, 38, 0
11, 48958, Note_on_c, 9, 57, 62
11, 48960, Note_on_c, 9, 44, 0
11, 48960, Note_on_c, 9, 36, 57
11, 48965, Note_on_c, 9, 51, 63
11, 49004, Note_on_c, 9, 51, 0
11, 49078, Note_on_c, 9, 51, 80
11, 49080, Note_on_c, 9, 44, 96
11, 49116, Note_on_c, 9, 51, 0
11, 49148, Note_on_c, 9, 57, 0
11, 49176, Note_on_c, 9, 51, 45
11, 49187, Note_on_c, 9, 51, 0
11, 49200, Note_on_c, 9, 44, 0
11, 49208, Note_on_c, 9, 51, 69
11, 49269, Note_on_c, 9, 51, 0
11, 49320, Note_on_c, 9, 44, 102
11, 49322, Note_on_c, 9, 51, 86
11, 49330, Note_on_c, 9, 36, 0
11, 49363, Note_on_c, 9, 51, 0
11, 49412, Note_on_c, 9, 51, 42
11, 49423, Note_on_c, 9, 51, 0
11, 49440, Note_on_c, 9, 44, 0
11, 49447, Note_on_c, 9, 51, 56
11, 49485, Note_on_c, 9, 51, 0
11, 49497, Note_on_c, 9, 40, 15
11, 49520, Note_on_c, 9, 40, 0
11, 49531, Note_on_c, 9, 51, 73
11, 49547, Note_on_c, 9, 51, 0
11, 49560, Note_on_c, 9, 44, 96
11, 49562, Note_on_c, 9, 51, 76
11, 49562, Note_on_c, 9, 40, 25
11, 49580, Note_on_c, 9, 40, 0
11, 49592, Note_on_c, 9, 40, 22
11, 49620, Note_on_c, 9, 40, 0
11, 49641, Note_on_c, 9, 51, 0
11, 49680, Note_on_c, 9, 44, 0
11, 49683, Note_on_c, 9, 51, 76
11, 49739, Note_on_c, 9, 51, 0
11, 49770, Note_on_c, 9, 51, 41
11, 49781, Note_on_c, 9, 51, 0
11, 49800, Note_on_c, 9, 44, 98
11, 49805, Note_on_c, 9, 51, 81
11, 49850, Note_on_c, 9, 38, 27
11, 49857, Note_on_c, 9, 38, 0
11, 49884, Note_on_c, 9, 51, 0
11, 49885, Note_on_c, 9, 38, 18
11, 49899, Note_on_c, 9, 38, 0
11, 49920, Note_on_c, 9, 44, 0
11, 49924, Note_on_c, 9, 51, 47
11, 49927, Note_on_c, 9, 40, 15
11, 49929, Note_on_c, 9, 36, 26
11, 49940, Note_on_c, 9, 40, 0
11, 49954, Note_on_c, 9, 36, 0
11, 49966, Note_on_c, 9, 51, 0
11, 50008, Note_on_c, 9, 36, 17
11, 50027, Note_on_c, 9, 36, 0
11, 50040, Note_on_c, 9, 44, 102
11, 50049, Note_on_c, 9, 36, 62
11, 50073, Note_on_c, 9, 51, 48
11, 50083, Note_on_c, 9, 51, 0
11, 50083, Note_on_c, 9, 36, 0
11, 50120, Note_on_c, 9, 36, 87
11, 50139, Note_on_c, 9, 51, 73
11, 50152, Note_on_c, 9, 36, 0
11, 50157, Note_on_c, 9, 51, 0
11, 50160, Note_on_c, 9, 44, 0
11, 50180, Note_on_c, 9, 51, 60
11, 50233, Note_on_c, 9, 51, 0
11, 50280, Note_on_c, 9, 44, 100
11, 50287, Note_on_c, 9, 51, 44
11, 50299, Note_on_c, 9, 51, 0
11, 50365, Note_on_c, 9, 38, 17
11, 50370, Note_on_c, 9, 51, 67
11, 50378, Note_on_c, 9, 38, 0
11, 50390, Note_on_c, 9, 51, 0
11, 50400, Note_on_c, 9, 44, 0
11, 50415, Note_on_c, 9, 51, 49
11, 50449, Note_on_c, 9, 51, 0
11, 50520, Note_on_c, 9, 44, 102
11, 50526, Note_on_c, 9, 51, 64
11, 50545, Note_on_c, 9, 51, 0
11, 50602, Note_on_c, 9, 51, 41
11, 50616, Note_on_c, 9, 51, 0
11, 50640, Note_on_c, 9, 44, 0
11, 50644, Note_on_c, 9, 53, 54
11, 50656, Note_on_c, 9, 53, 0
11, 50723, Note_on_c, 9, 51, 51
11, 50738, Note_on_c, 9, 51, 0
11, 50760, Note_on_c, 9, 46, 86
11, 50763, Note_on_c, 9, 53, 61
11, 50810, Note_on_c, 9, 53, 0
11, 50838, Note_on_c, 9, 36, 41
11, 50842, Note_on_c, 9, 51, 59
11, 50857, Note_on_c, 9, 36, 0
11, 50860, Note_on_c, 9, 51, 0
11, 50877, Note_on_c, 9, 51, 66
11, 50880, Note_on_c, 9, 46, 0
11, 50880, Note_on_c, 9, 36, 36
11, 50914, Note_on_c, 9, 36, 0
11, 50938, Note_on_c, 9, 51, 0
11, 51000, Note_on_c, 9, 44, 96
11, 51000, Note_on_c, 9, 51, 63
11, 51044, Note_on_c, 9, 51, 0
11, 51087, Note_on_c, 9, 36, 31
11, 51096, Note_on_c, 9, 51, 63
11, 51103, Note_on_c, 9, 36, 0
11, 51105, Note_on_c, 9, 51, 0
11, 51120, Note_on_c, 9, 44, 0
11, 51125, Note_on_c, 9, 51, 67
11, 51128, Note_on_c, 9, 36, 78
11, 51161, Note_on_c, 9, 36, 0
11, 51180, Note_on_c, 9, 51, 0
11, 51240, Note_on_c, 9, 44, 100
11, 51242, Note_on_c, 9, 51, 70
11, 51293, Note_on_c, 9, 51, 0
11, 51319, Note_on_c, 9, 36, 35
11, 51333, Note_on_c, 9, 36, 0
11, 51360, Note_on_c, 9, 44, 0
11, 51362, Note_on_c, 9, 36, 44
11, 51371, Note_on_c, 9, 51, 56
11, 51373, Note_on_c, 9, 36, 0
11, 51411, Note_on_c, 9, 51, 0
11, 51462, Note_on_c, 9, 51, 30
11, 51472, Note_on_c, 9, 51, 0
11, 51480, Note_on_c, 9, 44, 102
11, 51489, Note_on_c, 9, 40, 15
11, 51496, Note_on_c, 9, 51, 38
11, 51500, Note_on_c, 9, 40, 0
11, 51518, Note_on_c, 9, 51, 0
11, 51520, Note_on_c, 9, 38, 29
11, 51535, Note_on_c, 9, 38, 0
11, 51572, Note_on_c, 9, 51, 74
11, 51600, Note_on_c, 9, 44, 0
11, 51615, Note_on_c, 9, 51, 0
11, 51660, Note_on_c, 9, 40, 15
11, 51680, Note_on_c, 9, 40, 0
11, 51688, Note_on_c, 9, 51, 75
11, 51720, Note_on_c, 9, 46, 105
11, 51727, Note_on_c, 9, 57, 64
11, 51729, Note_on_c, 9, 40, 37
11, 51731, Note_on_c, 9, 51, 0
11, 51740, Note_on_c, 9, 40, 0
11, 51756, Note_on_c, 9, 57, 0
11, 51764, Note_on_c, 9, 40, 39
11, 51780, Note_on_c, 9, 40, 0
11, 51788, Note_on_c, 9, 38, 42
11, 51799, Note_on_c, 9, 51, 81
11, 51803, Note_on_c, 9, 38, 0
11, 51820, Note_on_c, 9, 51, 0
11, 51821, Note_on_c, 9, 38, 62
11, 51840, Note_on_c, 9, 46, 0
11, 51841, Note_on_c, 9, 59, 90
11, 51844, Note_on_c, 9, 57, 57
11, 51846, Note_on_c, 9, 36, 72
11, 51852, Note_on_c, 9, 38, 0
11, 51856, Note_on_c, 9, 57, 0
11, 51879, Note_on_c, 9, 36, 0
11, 51932, Note_on_c, 9, 59, 0
11, 51960, Note_on_c, 9, 44, 96
11, 51962, Note_on_c, 9, 59, 74
11, 52033, Note_on_c, 9, 59, 0
11, 52080, Note_on_c, 9, 44, 0
11, 52083, Note_on_c, 9, 59, 109
11, 52120, Note_on_c, 9, 38, 37
11, 52126, Note_on_c, 9, 38, 0
11, 52155, Note_on_c, 9, 38, 62
11, 52158, Note_on_c, 9, 59, 0
11, 52180, Note_on_c, 9, 38, 0
11, 52197, Note_on_c, 9, 57, 78
11, 52197, Note_on_c, 9, 36, 67
11, 52200, Note_on_c, 9, 44, 100
11, 52200, Note_on_c, 9, 59, 91
11, 52244, Note_on_c, 9, 57, 0
11, 52245, Note_on_c, 9, 36, 0
11, 52261, Note_on_c, 9, 59, 0
11, 52274, Note_on_c, 9, 57, 94
11, 52274, Note_on_c, 9, 36, 86
11, 52298, Note_on_c, 9, 59, 67
11, 52308, Note_on_c, 9, 59, 0
11, 52311, Note_on_c, 9, 57, 0
11, 52320, Note_on_c, 9, 44, 0
11, 52328, Note_on_c, 9, 59, 83
11, 52329, Note_on_c, 9, 36, 0
11, 52393, Note_on_c, 9, 59, 0
11, 52439, Note_on_c, 9, 59, 92
11, 52440, Note_on_c, 9, 44, 98
11, 52508, Note_on_c, 9, 59, 0
11, 52560, Note_on_c, 9, 44, 0
11, 52562, Note_on_c, 9, 59, 90
11, 52639, Note_on_c, 9, 59, 0
11, 52647, Note_on_c, 9, 38, 60
11, 52680, Note_on_c, 9, 44, 100
11, 52686, Note_on_c, 9, 59, 87
11, 52754, Note_on_c, 9, 59, 0
11, 52771, Note_on_c, 9, 38, 63
11, 52773, Note_on_c, 9, 39, 51
11, 52779, Note_on_c, 9, 59, 51
11, 52796, Note_on_c, 9, 59, 0
11, 52800, Note_on_c, 9, 44, 0
11, 52809, Note_on_c, 9, 39, 0
11, 52813, Note_on_c, 9, 59, 86
11, 52817, Note_on_c, 9, 38, 0
11, 52819, Note_on_c, 9, 36, 29
11, 52821, Note_on_c, 9, 38, 0
11, 52821, Note_on_c, 9, 40, 11
11, 52840, Note_on_c, 9, 40, 0
11, 52852, Note_on_c, 9, 36, 0
11, 52890, Note_on_c, 9, 59, 0
11, 52920, Note_on_c, 9, 44, 102
11, 52929, Note_on_c, 9, 59, 85
11, 52994, Note_on_c, 9, 59, 0
11, 52999, Note_on_c, 9, 36, 79
11, 53010, Note_on_c, 9, 36, 0
11, 53021, Note_on_c, 9, 59, 54
11, 53033, Note_on_c, 9, 59, 0
11, 53040, Note_on_c, 9, 44, 0
11, 53054, Note_on_c, 9, 59, 76
11, 53134, Note_on_c, 9, 59, 0
11, 53160, Note_on_c, 9, 44, 99
11, 53170, Note_on_c, 9, 59, 83
11, 53231, Note_on_c, 9, 59, 0
11, 53241, Note_on_c, 9, 36, 83
11, 53243, Note_on_c, 9, 38, 39
11, 53248, Note_on_c, 9, 38, 0
11, 53254, Note_on_c, 9, 59, 46
11, 53271, Note_on_c, 9, 59, 0
11, 53275, Note_on_c, 9, 36, 0
11, 53280, Note_on_c, 9, 44, 0
11, 53290, Note_on_c, 9, 59, 79
11, 53356, Note_on_c, 9, 59, 0
11, 53400, Note_on_c, 9, 44, 99
11, 53404, Note_on_c, 9, 59, 86
11, 53472, Note_on_c, 9, 59, 0
11, 53520, Note_on_c, 9, 44, 0
11, 53527, Note_on_c, 9, 59, 86
11, 53588, Note_on_c, 9, 59, 0
11, 53609, Note_on_c, 9, 38, 23
11, 53617, Note_on_c, 9, 38, 0
11, 53640, Note_on_c, 9, 44, 101
11, 53645, Note_on_c, 9, 59, 90
11, 53656, Note_on_c, 9, 38, 23
11, 53664, Note_on_c, 9, 38, 0
11, 53703, Note_on_c, 9, 59, 0
11, 53722, Note_on_c, 9, 36, 24
11, 53734, Note_on_c, 9, 36, 0
11, 53737, Note_on_c, 9, 59, 58
11, 53750, Note_on_c, 9, 59, 0
11, 53760, Note_on_c, 9, 44, 0
11, 53767, Note_on_c, 9, 36, 40
11, 53769, Note_on_c, 9, 59, 81
11, 53775, Note_on_c, 9, 36, 0
11, 53839, Note_on_c, 9, 38, 25
11, 53844, Note_on_c, 9, 59, 0
11, 53849, Note_on_c, 9, 38, 0
11, 53880, Note_on_c, 9, 44, 100
11, 53886, Note_on_c, 9, 38, 25
11, 53890, Note_on_c, 9, 59, 83
11, 53893, Note_on_c, 9, 38, 0
11, 53960, Note_on_c, 9, 40, 10
11, 53963, Note_on_c, 9, 59, 0
11, 53980, Note_on_c, 9, 40, 0
11, 54000, Note_on_c, 9, 44, 0
11, 54008, Note_on_c, 9, 59, 80
11, 54047, Note_on_c, 9, 40, 19
11, 54060, Note_on_c, 9, 40, 0
11, 54071, Note_on_c, 9, 59, 0
11, 54085, Note_on_c, 9, 38, 26
11, 54100, Note_on_c, 9, 38, 0
11, 54120, Note_on_c, 9, 44, 101
11, 54129, Note_on_c, 9, 59, 97
11, 54216, Note_on_c, 9, 59, 0
11, 54240, Note_on_c, 9, 44, 0
11, 54262, Note_on_c, 9, 59, 43
11, 54283, Note_on_c, 9, 59, 0
11, 54284, Note_on_c, 9, 40, 15
11, 54300, Note_on_c, 9, 40, 0
11, 54326, Note_on_c, 9, 38, 18
11, 54332, Note_on_c, 9, 59, 58
11, 54333, Note_on_c, 9, 38, 0
11, 54342, Note_on_c, 9, 59, 0
11, 54360, Note_on_c, 9, 44, 101
11, 54371, Note_on_c, 9, 59, 90
11, 54411, Note_on_c, 9, 37, 26
11, 54420, Note_on_c, 9, 37, 0
11, 54452, Note_on_c, 9, 38, 23
11, 54463, Note_on_c, 9, 59, 0
11, 54465, Note_on_c, 9, 38, 0
11, 54480, Note_on_c, 9, 44, 0
11, 54491, Note_on_c, 9, 40, 41
11, 54493, Note_on_c, 9, 59, 54
11, 54510, Note_on_c, 9, 59, 0
11, 54520, Note_on_c, 9, 40, 0
11, 54533, Note_on_c, 9, 38, 17
11, 54549, Note_on_c, 9, 38, 0
11, 54568, Note_on_c, 9, 37, 18
11, 54572, Note_on_c, 9, 59, 49
11, 54581, Note_on_c, 9, 59, 0
11, 54589, Note_on_c, 9, 37, 0
11, 54600, Note_on_c, 9, 46, 98
11, 54607, Note_on_c, 9, 59, 84
11, 54647, Note_on_c, 9, 40, 37
11, 54680, Note_on_c, 9, 40, 0
11, 54681, Note_on_c, 9, 38, 38
11, 54693, Note_on_c, 9, 38, 0
11, 54698, Note_on_c, 9, 59, 0
11, 54720, Note_on_c, 9, 46, 0
11, 54729, Note_on_c, 9, 59, 51
11, 54750, Note_on_c, 9, 59, 0
11, 54797, Note_on_c, 9, 38, 17
11, 54809, Note_on_c, 9, 59, 53
11, 54820, Note_on_c, 9, 59, 0
11, 54823, Note_on_c, 9, 38, 0
11, 54840, Note_on_c, 9, 44, 96
11, 54841, Note_on_c, 9, 59, 77
11, 54843, Note_on_c, 9, 40, 24
11, 54880, Note_on_c, 9, 40, 0
11, 54884, Note_on_c, 9, 38, 46
11, 54898, Note_on_c, 9, 38, 0
11, 54933, Note_on_c, 9, 59, 0
11, 54960, Note_on_c, 9, 44, 0
11, 54963, Note_on_c, 9, 59, 70
11, 55014, Note_on_c, 9, 40, 12
11, 55031, Note_on_c, 9, 59, 0
11, 55040, Note_on_c, 9, 40, 0
11, 55080, Note_on_c, 9, 44, 100
11, 55082, Note_on_c, 9, 59, 83
11, 55090, Note_on_c, 9, 40, 18
11, 55120, Note_on_c, 9, 40, 0
11, 55124, Note_on_c, 9, 36, 51
11, 55130, Note_on_c, 9, 59, 0
11, 55136, Note_on_c, 9, 36, 0
11, 55175, Note_on_c, 9, 59, 63
11, 55186, Note_on_c, 9, 59, 0
11, 55200, Note_on_c, 9, 44, 0
11, 55212, Note_on_c, 9, 59, 70
11, 55286, Note_on_c, 9, 59, 0
11, 55308, Note_on_c, 9, 59, 67
11, 55320, Note_on_c, 9, 44, 102
11, 55328, Note_on_c, 9, 59, 0
11, 55340, Note_on_c, 9, 59, 86
11, 55372, Note_on_c, 9, 38, 19
11, 55382, Note_on_c, 9, 38, 0
11, 55411, Note_on_c, 9, 38, 38
11, 55421, Note_on_c, 9, 59, 0
11, 55436, Note_on_c, 9, 38, 0
11, 55440, Note_on_c, 9, 44, 0
11, 55448, Note_on_c, 9, 59, 68
11, 55491, Note_on_c, 9, 38, 30
11, 55499, Note_on_c, 9, 38, 0
11, 55520, Note_on_c, 9, 59, 0
11, 55531, Note_on_c, 9, 38, 46
11, 55543, Note_on_c, 9, 38, 0
11, 55560, Note_on_c, 9, 44, 98
11, 55566, Note_on_c, 9, 59, 85
11, 55610, Note_on_c, 9, 38, 38
11, 55625, Note_on_c, 9, 38, 0
11, 55642, Note_on_c, 9, 59, 0
11, 55647, Note_on_c, 9, 38, 38
11, 55648, Note_on_c, 9, 57, 37
11, 55661, Note_on_c, 9, 59, 61
11, 55672, Note_on_c, 9, 57, 0
11, 55680, Note_on_c, 9, 44, 0
11, 55682, Note_on_c, 9, 59, 0
11, 55691, Note_on_c, 9, 57, 58
11, 55693, Note_on_c, 9, 38, 0
11, 55693, Note_on_c, 9, 36, 65
11, 55697, Note_on_c, 9, 59, 78
11, 55715, Note_on_c, 9, 57, 0
11, 55757, Note_on_c, 9, 36, 0
11, 55779, Note_on_c, 9, 59, 0
11, 55800, Note_on_c, 9, 44, 99
11, 55805, Note_on_c, 9, 59, 73
11, 55875, Note_on_c, 9, 36, 48
11, 55883, Note_on_c, 9, 59, 0
11, 55900, Note_on_c, 9, 36, 0
11, 55920, Note_on_c, 9, 44, 0
11, 55925, Note_on_c, 9, 59, 78
11, 56000, Note_on_c, 9, 59, 0
11, 56040, Note_on_c, 9, 44, 95
11, 56043, Note_on_c, 9, 59, 77
11, 56111, Note_on_c, 9, 59, 0
11, 56123, Note_on_c, 9, 38, 35
11, 56131, Note_on_c, 9, 38, 0
11, 56136, Note_on_c, 9, 59, 54
11, 56151, Note_on_c, 9, 59, 0
11, 56160, Note_on_c, 9, 44, 0
11, 56166, Note_on_c, 9, 38, 37
11, 56170, Note_on_c, 9, 59, 76
11, 56172, Note_on_c, 9, 38, 0
11, 56251, Note_on_c, 9, 59, 0
11, 56280, Note_on_c, 9, 44, 91
11, 56284, Note_on_c, 9, 59, 76
11, 56353, Note_on_c, 9, 59, 0
11, 56400, Note_on_c, 9, 44, 0
11, 56402, Note_on_c, 9, 59, 77
11, 56467, Note_on_c, 9, 59, 0
11, 56520, Note_on_c, 9, 44, 100
11, 56521, Note_on_c, 9, 40, 15
11, 56527, Note_on_c, 9, 59, 67
11, 56540, Note_on_c, 9, 40, 0
11, 56556, Note_on_c, 9, 38, 30
11, 56565, Note_on_c, 9, 38, 0
11, 56579, Note_on_c, 9, 59, 0
11, 56640, Note_on_c, 9, 44, 0
11, 56647, Note_on_c, 9, 59, 73
11, 56725, Note_on_c, 9, 59, 0
11, 56729, Note_on_c, 9, 54, 68
11, 56746, Note_on_c, 9, 54, 0
11, 56760, Note_on_c, 9, 44, 101
11, 56780, Note_on_c, 9, 59, 37
11, 56847, Note_on_c, 9, 59, 0
11, 56880, Note_on_c, 9, 44, 0
11, 56885, Note_on_c, 9, 59, 68
11, 56956, Note_on_c, 9, 59, 0
11, 57000, Note_on_c, 9, 44, 98
11, 57001, Note_on_c, 9, 59, 72
11, 57075, Note_on_c, 9, 59, 0
11, 57120, Note_on_c, 9, 44, 0
11, 57121, Note_on_c, 9, 40, 33
11, 57125, Note_on_c, 9, 59, 72
11, 57140, Note_on_c, 9, 40, 0
11, 57155, Note_on_c, 9, 40, 33
11, 57180, Note_on_c, 9, 40, 0
11, 57203, Note_on_c, 9, 59, 0
11, 57211, Note_on_c, 9, 53, 72
11, 57225, Note_on_c, 9, 40, 30
11, 57228, Note_on_c, 9, 53, 0
11, 57240, Note_on_c, 9, 40, 0
11, 57240, Note_on_c, 9, 44, 96
11, 57249, Note_on_c, 9, 59, 57
11, 57264, Note_on_c, 9, 36, 48
11, 57281, Note_on_c, 9, 36, 0
11, 57335, Note_on_c, 9, 59, 0
11, 57360, Note_on_c, 9, 44, 0
11, 57368, Note_on_c, 9, 59, 59
11, 57420, Note_on_c, 9, 40, 37
11, 57440, Note_on_c, 9, 40, 0
11, 57446, Note_on_c, 9, 59, 0
11, 57480, Note_on_c, 9, 44, 99
11, 57484, Note_on_c, 9, 40, 40
11, 57492, Note_on_c, 9, 59, 66
11, 57500, Note_on_c, 9, 40, 0
11, 57514, Note_on_c, 9, 40, 34
11, 57540, Note_on_c, 9, 40, 0
11, 57543, Note_on_c, 9, 59, 0
11, 57543, Note_on_c, 9, 36, 34
11, 57558, Note_on_c, 9, 36, 0
11, 57575, Note_on_c, 9, 38, 38
11, 57581, Note_on_c, 9, 59, 64
11, 57591, Note_on_c, 9, 38, 0
11, 57599, Note_on_c, 9, 59, 0
11, 57600, Note_on_c, 9, 44, 0
11, 57606, Note_on_c, 9, 36, 49
11, 57606, Note_on_c, 9, 40, 24
11, 57620, Note_on_c, 9, 40, 0
11, 57621, Note_on_c, 9, 59, 70
11, 57629, Note_on_c, 9, 36, 0
11, 57695, Note_on_c, 9, 59, 0
11, 57720, Note_on_c, 9, 44, 102
11, 57734, Note_on_c, 9, 59, 77
11, 57806, Note_on_c, 9, 59, 0
11, 57808, Note_on_c, 9, 36, 19
11, 57820, Note_on_c, 9, 36, 0
11, 57840, Note_on_c, 9, 44, 0
11, 57846, Note_on_c, 9, 36, 27
11, 57856, Note_on_c, 9, 59, 79
11, 57858, Note_on_c, 9, 36, 0
11, 57929, Note_on_c, 9, 59, 0
11, 57960, Note_on_c, 9, 44, 100
11, 57974, Note_on_c, 9, 59, 77
11, 58034, Note_on_c, 9, 59, 0
11, 58080, Note_on_c, 9, 44, 0
11, 58087, Note_on_c, 9, 59, 77
11, 58159, Note_on_c, 9, 59, 0
11, 58200, Note_on_c, 9, 44, 101
11, 58204, Note_on_c, 9, 59, 76
11, 58265, Note_on_c, 9, 59, 0
11, 58295, Note_on_c, 9, 59, 56
11, 58312, Note_on_c, 9, 59, 0
11, 58320, Note_on_c, 9, 44, 0
11, 58333, Note_on_c, 9, 59, 74
11, 58380, Note_on_c, 9, 38, 17
11, 58403, Note_on_c, 9, 38, 0
11, 58406, Note_on_c, 9, 59, 0
11, 58409, Note_on_c, 9, 36, 22
11, 58435, Note_on_c, 9, 36, 0
11, 58440, Note_on_c, 9, 44, 100
11, 58441, Note_on_c, 9, 59, 80
11, 58483, Note_on_c, 9, 38, 33
11, 58500, Note_on_c, 9, 38, 0
11, 58506, Note_on_c, 9, 59, 0
11, 58517, Note_on_c, 9, 36, 40
11, 58529, Note_on_c, 9, 59, 58
11, 58534, Note_on_c, 9, 36, 0
11, 58549, Note_on_c, 9, 59, 0
11, 58560, Note_on_c, 9, 44, 0
11, 58563, Note_on_c, 9, 59, 67
11, 58641, Note_on_c, 9, 59, 0
11, 58680, Note_on_c, 9, 44, 102
11, 58680, Note_on_c, 9, 59, 81
11, 58739, Note_on_c, 9, 59, 0
11, 58800, Note_on_c, 9, 44, 0
11, 58802, Note_on_c, 9, 59, 78
11, 58867, Note_on_c, 9, 59, 0
11, 58920, Note_on_c, 9, 46, 98
11, 58928, Note_on_c, 9, 59, 81
11, 58987, Note_on_c, 9, 59, 0
11, 59017, Note_on_c, 9, 59, 60
11, 59037, Note_on_c, 9, 59, 0
11, 59040, Note_on_c, 9, 46, 0
11, 59050, Note_on_c, 9, 40, 43
11, 59053, Note_on_c, 9, 59, 73
11, 59080, Note_on_c, 9, 40, 0
11, 59104, Note_on_c, 9, 40, 45
11, 59119, Note_on_c, 9, 59, 0
11, 59120, Note_on_c, 9, 40, 0
11, 59160, Note_on_c, 9, 44, 91
11, 59165, Note_on_c, 9, 59, 83
11, 59214, Note_on_c, 9, 59, 0
11, 59254, Note_on_c, 9, 59, 56
11, 59265, Note_on_c, 9, 59, 0
11, 59280, Note_on_c, 9, 44, 0
11, 59283, Note_on_c, 9, 40, 31
11, 59285, Note_on_c, 9, 59, 67
11, 59300, Note_on_c, 9, 40, 0
11, 59303, Note_on_c, 9, 40, 48
11, 59340, Note_on_c, 9, 40, 0
11, 59341, Note_on_c, 9, 40, 43
11, 59360, Note_on_c, 9, 40, 0
11, 59362, Note_on_c, 9, 59, 0
11, 59400, Note_on_c, 9, 46, 101
11, 59404, Note_on_c, 9, 59, 79
11, 59415, Note_on_c, 9, 40, 36
11, 59440, Note_on_c, 9, 40, 0
11, 59455, Note_on_c, 9, 38, 23
11, 59462, Note_on_c, 9, 38, 0
11, 59462, Note_on_c, 9, 59, 0
11, 59496, Note_on_c, 9, 59, 31
11, 59501, Note_on_c, 9, 56, 50
11, 59501, Note_on_c, 9, 38, 42
11, 59509, Note_on_c, 9, 59, 0
11, 59511, Note_on_c, 9, 56, 0
11, 59520, Note_on_c, 9, 46, 0
11, 59523, Note_on_c, 9, 38, 0
11, 59529, Note_on_c, 9, 57, 48
11, 59531, Note_on_c, 9, 59, 64
11, 59531, Note_on_c, 9, 36, 31
11, 59548, Note_on_c, 9, 57, 0
11, 59561, Note_on_c, 9, 36, 0
11, 59600, Note_on_c, 9, 59, 0
11, 59640, Note_on_c, 9, 44, 91
11, 59645, Note_on_c, 9, 59, 83
11, 59717, Note_on_c, 9, 59, 0
11, 59760, Note_on_c, 9, 44, 0
11, 59766, Note_on_c, 9, 59, 78
11, 59815, Note_on_c, 9, 59, 0
11, 59878, Note_on_c, 9, 37, 70
11, 59880, Note_on_c, 9, 44, 102
11, 59883, Note_on_c, 9, 59, 77
11, 59886, Note_on_c, 9, 37, 0
11, 59929, Note_on_c, 9, 59, 0
11, 59971, Note_on_c, 9, 59, 60
11, 59983, Note_on_c, 9, 59, 0
11, 60000, Note_on_c, 9, 44, 0
11, 60007, Note_on_c, 9, 59, 67
11, 60066, Note_on_c, 9, 59, 0
11, 60117, Note_on_c, 9, 59, 79
11, 60120, Note_on_c, 9, 44, 100
11, 60191, Note_on_c, 9, 59, 0
11, 60240, Note_on_c, 9, 44, 0
11, 60240, Note_on_c, 9, 59, 76
11, 60293, Note_on_c, 9, 59, 0
11, 60358, Note_on_c, 9, 59, 76
11, 60360, Note_on_c, 9, 44, 96
11, 60363, Note_on_c, 9, 37, 76
11, 60377, Note_on_c, 9, 37, 0
11, 60393, Note_on_c, 9, 37, 68
11, 60399, Note_on_c, 9, 59, 0
11, 60410, Note_on_c, 9, 37, 0
11, 60438, Note_on_c, 9, 38, 31
11, 60450, Note_on_c, 9, 59, 64
11, 60459, Note_on_c, 9, 38, 0
11, 60462, Note_on_c, 9, 59, 0
11, 60478, Note_on_c, 9, 36, 50
11, 60480, Note_on_c, 9, 44, 0
11, 60483, Note_on_c, 9, 59, 75
11, 60514, Note_on_c, 9, 36, 0
11, 60525, Note_on_c, 9, 59, 0
11, 60596, Note_on_c, 9, 59, 79
11, 60600, Note_on_c, 9, 44, 99
11, 60646, Note_on_c, 9, 59, 0
11, 60720, Note_on_c, 9, 44, 0
11, 60720, Note_on_c, 9, 59, 83
11, 60770, Note_on_c, 9, 59, 0
11, 60840, Note_on_c, 9, 44, 99
11, 60842, Note_on_c, 9, 59, 80
11, 60847, Note_on_c, 9, 37, 74
11, 60878, Note_on_c, 9, 37, 0
11, 60878, Note_on_c, 9, 59, 0
11, 60930, Note_on_c, 9, 38, 71
11, 60934, Note_on_c, 9, 37, 70
11, 60938, Note_on_c, 9, 59, 61
11, 60949, Note_on_c, 9, 59, 0
11, 60960, Note_on_c, 9, 44, 0
11, 60962, Note_on_c, 9, 37, 0
11, 60970, Note_on_c, 9, 59, 68
11, 60974, Note_on_c, 9, 38, 0
11, 60974, Note_on_c, 9, 37, 44
11, 60976, Note_on_c, 9, 36, 55
11, 61003, Note_on_c, 9, 37, 0
11, 61014, Note_on_c, 9, 36, 0
11, 61034, Note_on_c, 9, 59, 0
11, 61080, Note_on_c, 9, 44, 100
11, 61084, Note_on_c, 9, 59, 83
11, 61133, Note_on_c, 9, 59, 0
11, 61177, Note_on_c, 9, 59, 56
11, 61194, Note_on_c, 9, 59, 0
11, 61200, Note_on_c, 9, 44, 0
11, 61216, Note_on_c, 9, 59, 64
11, 61245, Note_on_c, 9, 59, 0
11, 61296, Note_on_c, 9, 59, 86
11, 61313, Note_on_c, 9, 59, 0
11, 61320, Note_on_c, 9, 44, 99
11, 61335, Note_on_c, 9, 59, 71
11, 61412, Note_on_c, 9, 38, 36
11, 61414, Note_on_c, 9, 59, 0
11, 61439, Note_on_c, 9, 38, 0
11, 61440, Note_on_c, 9, 44, 0
11, 61451, Note_on_c, 9, 59, 78
11, 61452, Note_on_c, 9, 36, 27
11, 61488, Note_on_c, 9, 36, 0
11, 61509, Note_on_c, 9, 59, 0
11, 61527, Note_on_c, 9, 36, 49
11, 61539, Note_on_c, 9, 59, 55
11, 61552, Note_on_c, 9, 59, 0
11, 61560, Note_on_c, 9, 44, 93
11, 61562, Note_on_c, 9, 36, 0
11, 61575, Note_on_c, 9, 59, 79
11, 61650, Note_on_c, 9, 36, 23
11, 61661, Note_on_c, 9, 36, 0
11, 61661, Note_on_c, 9, 59, 0
11, 61680, Note_on_c, 9, 44, 0
11, 61689, Note_on_c, 9, 36, 74
11, 61693, Note_on_c, 9, 59, 42
11, 61722, Note_on_c, 9, 59, 0
11, 61731, Note_on_c, 9, 36, 0
11, 61777, Note_on_c, 9, 59, 58
11, 61789, Note_on_c, 9, 59, 0
11, 61800, Note_on_c, 9, 44, 98
11, 61814, Note_on_c, 9, 59, 78
11, 61881, Note_on_c, 9, 36, 90
11, 61895, Note_on_c, 9, 59, 0
11, 61916, Note_on_c, 9, 36, 0
11, 61920, Note_on_c, 9, 44, 0
11, 61934, Note_on_c, 9, 59, 47
11, 61947, Note_on_c, 9, 59, 0
11, 62015, Note_on_c, 9, 59, 62
11, 62025, Note_on_c, 9, 59, 0
11, 62040, Note_on_c, 9, 44, 96
11, 62054, Note_on_c, 9, 59, 76
11, 62127, Note_on_c, 9, 36, 92
11, 62134, Note_on_c, 9, 59, 0
11, 62160, Note_on_c, 9, 44, 0
11, 62165, Note_on_c, 9, 36, 0
11, 62171, Note_on_c, 9, 59, 74
11, 62237, Note_on_c, 9, 59, 0
11, 62280, Note_on_c, 9, 44, 96
11, 62295, Note_on_c, 9, 36, 28
11, 62300, Note_on_c, 9, 59, 47
11, 62302, Note_on_c, 9, 36, 0
11, 62304, Note_on_c, 9, 57, 52
11, 62327, Note_on_c, 9, 57, 0
11, 62361, Note_on_c, 9, 59, 0
11, 62366, Note_on_c, 9, 36, 78
11, 62390, Note_on_c, 9, 36, 0
11, 62400, Note_on_c, 9, 44, 0
11, 62490, Note_on_c, 9, 59, 61
11, 62499, Note_on_c, 9, 59, 0
11, 62520, Note_on_c, 9, 44, 100
11, 62532, Note_on_c, 9, 59, 60
11, 62606, Note_on_c, 9, 59, 0
11, 62640, Note_on_c, 9, 44, 0
11, 62647, Note_on_c, 9, 59, 62
11, 62710, Note_on_c, 9, 59, 0
11, 62726, Note_on_c, 9, 40, 13
11, 62740, Note_on_c, 9, 40, 0
11, 62760, Note_on_c, 9, 46, 93
11, 62769, Note_on_c, 9, 40, 13
11, 62773, Note_on_c, 9, 59, 70
11, 62780, Note_on_c, 9, 40, 0
11, 62844, Note_on_c, 9, 59, 0
11, 62844, Note_on_c, 9, 38, 22
11, 62851, Note_on_c, 9, 38, 0
11, 62854, Note_on_c, 9, 53, 69
11, 62873, Note_on_c, 9, 53, 0
11, 62880, Note_on_c, 9, 46, 0
11, 62903, Note_on_c, 9, 59, 37
11, 62929, Note_on_c, 9, 40, 19
11, 62940, Note_on_c, 9, 40, 0
11, 62948, Note_on_c, 9, 59, 0
11, 62969, Note_on_c, 9, 40, 19
11, 62972, Note_on_c, 9, 53, 77
11, 62980, Note_on_c, 9, 40, 0
11, 62992, Note_on_c, 9, 53, 0
11, 63000, Note_on_c, 9, 44, 98
11, 63008, Note_on_c, 9, 40, 31
11, 63019, Note_on_c, 9, 59, 40
11, 63020, Note_on_c, 9, 40, 0
11, 63047, Note_on_c, 9, 38, 30
11, 63053, Note_on_c, 9, 38, 0
11, 63071, Note_on_c, 9, 59, 0
11, 63084, Note_on_c, 9, 40, 13
11, 63095, Note_on_c, 9, 53, 73
11, 63100, Note_on_c, 9, 40, 0
11, 63111, Note_on_c, 9, 53, 0
11, 63120, Note_on_c, 9, 44, 0
11, 63148, Note_on_c, 9, 59, 32
11, 63171, Note_on_c, 9, 40, 24
11, 63186, Note_on_c, 9, 59, 0
11, 63200, Note_on_c, 9, 40, 0
11, 63208, Note_on_c, 9, 38, 31
11, 63215, Note_on_c, 9, 38, 0
11, 63217, Note_on_c, 9, 53, 83
11, 63240, Note_on_c, 9, 44, 96
11, 63244, Note_on_c, 9, 53, 0
11, 63251, Note_on_c, 9, 40, 27
11, 63264, Note_on_c, 9, 59, 54
11, 63280, Note_on_c, 9, 40, 0
11, 63289, Note_on_c, 9, 38, 38
11, 63295, Note_on_c, 9, 38, 0
11, 63302, Note_on_c, 9, 59, 0
11, 63330, Note_on_c, 9, 38, 61
11, 63332, Note_on_c, 9, 56, 18
11, 63335, Note_on_c, 9, 53, 84
11, 63337, Note_on_c, 9, 56, 0
11, 63343, Note_on_c, 9, 38, 0
11, 63350, Note_on_c, 9, 53, 0
11, 63360, Note_on_c, 9, 44, 0
11, 63374, Note_on_c, 9, 36, 83
11, 63374, Note_on_c, 9, 57, 99
11, 63375, Note_on_c, 9, 59, 81
11, 63460, Note_on_c, 9, 59, 0
11, 63480, Note_on_c, 9, 44, 100
11, 63493, Note_on_c, 9, 59, 54
11, 63541, Note_on_c, 9, 59, 0
11, 63574, Note_on_c, 9, 57, 0
11, 63600, Note_on_c, 9, 44, 0
11, 63606, Note_on_c, 9, 59, 61
11, 63680, Note_on_c, 9, 36, 0
11, 63682, Note_on_c, 9, 59, 0
11, 63682, Note_on_c, 9, 38, 27
11, 63718, Note_on_c, 9, 38, 0
11, 63720, Note_on_c, 9, 44, 94
11, 63723, Note_on_c, 9, 59, 63
11, 63724, Note_on_c, 9, 36, 31
11, 63733, Note_on_c, 9, 36, 0
11, 63790, Note_on_c, 9, 59, 0
11, 63818, Note_on_c, 9, 59, 46
11, 63831, Note_on_c, 9, 59, 0
11, 63840, Note_on_c, 9, 44, 0
11, 63855, Note_on_c, 9, 59, 60
11, 63935, Note_on_c, 9, 59, 0
11, 63960, Note_on_c, 9, 44, 100
11, 63970, Note_on_c, 9, 59, 65
11, 64041, Note_on_c, 9, 59, 0
11, 64058, Note_on_c, 9, 59, 53
11, 64069, Note_on_c, 9, 59, 0
11, 64080, Note_on_c, 9, 44, 0
11, 64095, Note_on_c, 9, 37, 20
11, 64096, Note_on_c, 9, 59, 65
11, 64106, Note_on_c, 9, 37, 0
11, 64125, Note_on_c, 9, 37, 25
11, 64129, Note_on_c, 9, 37, 0
11, 64155, Note_on_c, 9, 37, 26
11, 64163, Note_on_c, 9, 37, 0
11, 64168, Note_on_c, 9, 59, 0
11, 64182, Note_on_c, 9, 37, 42
11, 64187, Note_on_c, 9, 37, 0
11, 64200, Note_on_c, 9, 44, 93
11, 64207, Note_on_c, 9, 59, 97
11, 64213, Note_on_c, 9, 37, 72
11, 64223, Note_on_c, 9, 37, 0
11, 64240, Note_on_c, 9, 38, 53
11, 64263, Note_on_c, 9, 38, 0
11, 64271, Note_on_c, 9, 38, 50
11, 64285, Note_on_c, 9, 38, 0
11, 64295, Note_on_c, 9, 38, 45
11, 64299, Note_on_c, 9, 59, 0
11, 64320, Note_on_c, 9, 44, 0
11, 64321, Note_on_c, 9, 38, 0
11, 64326, Note_on_c, 9, 36, 55
11, 64330, Note_on_c, 9, 59, 48
11, 64361, Note_on_c, 9, 36, 0
11, 64373, Note_on_c, 9, 59, 0
11, 64416, Note_on_c, 9, 59, 40
11, 64427, Note_on_c, 9, 59, 0
11, 64440, Note_on_c, 9, 44, 95
11, 64448, Note_on_c, 9, 59, 63
11, 64542, Note_on_c, 9, 59, 0
11, 64560, Note_on_c, 9, 44, 0
11, 64568, Note_on_c, 9, 59, 51
11, 64635, Note_on_c, 9, 59, 0
11, 64657, Note_on_c, 9, 59, 47
11, 64668, Note_on_c, 9, 59, 0
11, 64680, Note_on_c, 9, 44, 93
11, 64690, Note_on_c, 9, 59, 73
11, 64768, Note_on_c, 9, 38, 41
11, 64775, Note_on_c, 9, 38, 0
11, 64786, Note_on_c, 9, 59, 0
11, 64800, Note_on_c, 9, 44, 0
11, 64804, Note_on_c, 9, 59, 68
11, 64811, Note_on_c, 9, 36, 33
11, 64829, Note_on_c, 9, 36, 0
11, 64883, Note_on_c, 9, 59, 0
11, 64888, Note_on_c, 9, 36, 31
11, 64895, Note_on_c, 9, 36, 0
11, 64903, Note_on_c, 9, 59, 54
11, 64913, Note_on_c, 9, 59, 0
11, 64920, Note_on_c, 9, 44, 90
11, 64932, Note_on_c, 9, 59, 58
11, 65025, Note_on_c, 9, 59, 0
11, 65040, Note_on_c, 9, 44, 0
11, 65053, Note_on_c, 9, 59, 67
11, 65118, Note_on_c, 9, 59, 0
11, 65124, Note_on_c, 9, 36, 47
11, 65132, Note_on_c, 9, 36, 0
11, 65142, Note_on_c, 9, 59, 45
11, 65155, Note_on_c, 9, 59, 0
11, 65160, Note_on_c, 9, 44, 95
11, 65174, Note_on_c, 9, 59, 56
11, 65247, Note_on_c, 9, 38, 40
11, 65252, Note_on_c, 9, 59, 0
11, 65268, Note_on_c, 9, 38, 0
11, 65280, Note_on_c, 9, 44, 0
11, 65289, Note_on_c, 9, 36, 37
11, 65290, Note_on_c, 9, 59, 74
11, 65318, Note_on_c, 9, 36, 0
11, 65365, Note_on_c, 9, 59, 0
11, 65384, Note_on_c, 9, 59, 56
11, 65393, Note_on_c, 9, 59, 0
11, 65400, Note_on_c, 9, 44, 100
11, 65413, Note_on_c, 9, 59, 70
11, 65488, Note_on_c, 9, 36, 25
11, 65504, Note_on_c, 9, 36, 0
11, 65515, Note_on_c, 9, 59, 0
11, 65520, Note_on_c, 9, 44, 0
11, 65534, Note_on_c, 9, 36, 23
11, 65554, Note_on_c, 9, 36, 0
11, 65621, Note_on_c, 9, 59, 59
11, 65632, Note_on_c, 9, 59, 0
11, 65640, Note_on_c, 9, 44, 96
11, 65661, Note_on_c, 9, 59, 68
11, 65729, Note_on_c, 9, 38, 43
11, 65749, Note_on_c, 9, 38, 0
11, 65760, Note_on_c, 9, 44, 0
11, 65767, Note_on_c, 9, 59, 0
11, 65772, Note_on_c, 9, 36, 23
11, 65793, Note_on_c, 9, 36, 0
11, 65850, Note_on_c, 9, 59, 61
11, 65864, Note_on_c, 9, 59, 0
11, 65880, Note_on_c, 9, 44, 91
11, 65885, Note_on_c, 9, 59, 74
11, 65959, Note_on_c, 9, 38, 28
11, 65970, Note_on_c, 9, 59, 0
11, 65972, Note_on_c, 9, 38, 0
11, 66000, Note_on_c, 9, 44, 0
11, 66001, Note_on_c, 9, 46, 40
11, 66001, Note_on_c, 9, 36, 34
11, 66018, Note_on_c, 9, 46, 0
11, 66037, Note_on_c, 9, 36, 0
11, 66086, Note_on_c, 9, 53, 62
11, 66087, Note_on_c, 9, 59, 59
11, 66095, Note_on_c, 9, 53, 0
11, 66096, Note_on_c, 9, 59, 0
11, 66120, Note_on_c, 9, 44, 100
11, 66127, Note_on_c, 9, 59, 62
11, 66129, Note_on_c, 9, 53, 55
11, 66162, Note_on_c, 9, 53, 0
11, 66179, Note_on_c, 9, 59, 0
11, 66191, Note_on_c, 9, 38, 45
11, 66198, Note_on_c, 9, 38, 0
11, 66234, Note_on_c, 9, 36, 38
11, 66240, Note_on_c, 9, 44, 0
11, 66261, Note_on_c, 9, 36, 0
11, 66315, Note_on_c, 9, 36, 42
11, 66326, Note_on_c, 9, 59, 46
11, 66328, Note_on_c, 9, 53, 46
11, 66329, Note_on_c, 9, 36, 0
11, 66335, Note_on_c, 9, 59, 0
11, 66337, Note_on_c, 9, 53, 0
11, 66360, Note_on_c, 9, 44, 103
11, 66362, Note_on_c, 9, 53, 52
11, 66362, Note_on_c, 9, 59, 66
11, 66414, Note_on_c, 9, 53, 0
11, 66422, Note_on_c, 9, 59, 0
11, 66441, Note_on_c, 9, 38, 22
11, 66458, Note_on_c, 9, 38, 0
11, 66480, Note_on_c, 9, 44, 0
11, 66486, Note_on_c, 9, 36, 29
11, 66497, Note_on_c, 9, 36, 0
11, 66570, Note_on_c, 9, 53, 41
11, 66579, Note_on_c, 9, 53, 0
11, 66600, Note_on_c, 9, 46, 100
11, 66606, Note_on_c, 9, 59, 67
11, 66618, Note_on_c, 9, 53, 31
11, 66629, Note_on_c, 9, 53, 0
11, 66647, Note_on_c, 9, 59, 0
11, 66688, Note_on_c, 9, 38, 33
11, 66693, Note_on_c, 9, 38, 0
11, 66720, Note_on_c, 9, 46, 0
11, 66727, Note_on_c, 9, 59, 64
11, 66732, Note_on_c, 9, 46, 51
11, 66732, Note_on_c, 9, 36, 40
11, 66738, Note_on_c, 9, 49, 44
11, 66852, Note_on_c, 9, 36, 0
11, 66855, Note_on_c, 9, 46, 0
11, 66939, Note_on_c, 9, 46, 62
11, 66977, Note_on_c, 9, 46, 0
11, 66979, Note_on_c, 9, 49, 0
11, 67096, Note_on_c, 9, 46, 72
11, 67099, Note_on_c, 9, 36, 69
11, 67113, Note_on_c, 9, 59, 0
11, 67168, Note_on_c, 9, 46, 0
11, 67175, Note_on_c, 9, 36, 0
11, 67316, Note_on_c, 9, 46, 69
11, 67316, Note_on_c, 9, 36, 63
11, 67379, Note_on_c, 9, 46, 0
11, 67380, Note_on_c, 9, 36, 0
11, 67754, Note_on_c, 9, 46, 65
11, 67756, Note_on_c, 9, 36, 54
11, 67916, Note_on_c, 9, 46, 0
11, 67922, Note_on_c, 9, 36, 0
11, 68066, Note_on_c, 9, 46, 53
11, 68067, Note_on_c, 9, 36, 40
11, 68133, Note_on_c, 9, 46, 0
11, 68141, Note_on_c, 9, 36, 0
11, 68640, Note_on_c, 9, 38, 44
11, 68831, Note_on_c, 9, 40, 29
11, 68835, Note_on_c, 9, 57, 82
11, 68881, Note_on_c, 9, 38, 0
11, 69463, Note_on_c, 9, 57, 0
11, 69520, Note_on_c, 9, 40, 0
11, 69756, Note_on_c, 9, 40, 15
11, 69792, Note_on_c, 9, 40, 26
11, 69798, Note_on_c, 9, 36, 29
11, 69832, Note_on_c, 9, 49, 25
11, 69834, Note_on_c, 9, 36, 44
11, 70000, Note_on_c, 9, 40, 0
11, 70039, Note_on_c, 9, 36, 0
11, 70040, Note_on_c, 9, 40, 0
11, 70073, Note_on_c, 9, 49, 0
11, 70075, Note_on_c, 9, 36, 0
11, 70075, End_track
12, 0, Start_track
12, 0, End_track
0, 0, End_of_file
