0, 0, Header, 1, 4, 960
1, 0, Start_track
1, 0, Title_t, "Hymn To Freedom"
1, 0, Text_t, "Song written by Oscar Peterson\012"
1, 0, Text_t, "Live played by dougmck@pipeline.com.au\012"
1, 0, Time_signature, 4, 2, 24, 8
1, 0, Key_signature, 0, "major"
1, 0, Tempo, 600000
1, 2313, Tempo, 681818
1, 141400, Marker_t, "Connecting notes in dim 7th chords with chromatic passing tones"
1, 153672, Marker_t, "C major Blues scale (C,D,Eb,E,G,A,C)"
1, 153672, End_track
2, 0, Start_track
2, 2313, Control_c, 0, 64, 127
2, 2350, Note_on_c, 0, 76, 80
2, 2356, Note_on_c, 0, 72, 62
2, 2363, Note_on_c, 0, 67, 76
2, 2372, Note_on_c, 0, 60, 68
2, 2405, Control_c, 0, 64, 0
2, 2813, Control_c, 0, 64, 127
2, 3631, Note_on_c, 0, 72, 0
2, 3642, Note_on_c, 0, 67, 0
2, 3747, Note_on_c, 0, 76, 0
2, 4055, Note_on_c, 0, 60, 0
2, 4248, Note_on_c, 0, 76, 56
2, 4266, Note_on_c, 0, 71, 58
2, 4277, Note_on_c, 0, 68, 37
2, 4284, Note_on_c, 0, 65, 50
2, 4308, Control_c, 0, 64, 0
2, 4317, Note_on_c, 0, 59, 40
2, 4715, Control_c, 0, 64, 127
2, 5124, Note_on_c, 0, 76, 0
2, 5416, Note_on_c, 0, 65, 0
2, 5456, Note_on_c, 0, 71, 0
2, 5463, Note_on_c, 0, 68, 0
2, 5750, Note_on_c, 0, 59, 0
2, 5886, Note_on_c, 0, 74, 96
2, 6036, Note_on_c, 0, 74, 0
2, 6162, Note_on_c, 0, 72, 73
2, 6180, Note_on_c, 0, 69, 80
2, 6186, Note_on_c, 0, 64, 79
2, 6188, Note_on_c, 0, 57, 68
2, 6234, Control_c, 0, 64, 0
2, 6618, Control_c, 0, 64, 127
2, 7194, Note_on_c, 0, 69, 0
2, 7347, Note_on_c, 0, 64, 0
2, 7425, Note_on_c, 0, 57, 0
2, 7832, Note_on_c, 0, 72, 0
2, 8120, Note_on_c, 0, 58, 39
2, 8127, Note_on_c, 0, 67, 45
2, 8138, Note_on_c, 0, 55, 46
2, 8145, Note_on_c, 0, 64, 54
2, 8186, Control_c, 0, 64, 0
2, 8581, Control_c, 0, 64, 127
2, 8984, Note_on_c, 0, 58, 0
2, 9163, Note_on_c, 0, 58, 50
2, 9403, Note_on_c, 0, 64, 0
2, 9429, Note_on_c, 0, 67, 0
2, 9455, Note_on_c, 0, 58, 0
2, 10092, Note_on_c, 0, 55, 0
2, 10130, Note_on_c, 0, 72, 73
2, 10137, Note_on_c, 0, 53, 79
2, 10139, Note_on_c, 0, 69, 83
2, 10145, Note_on_c, 0, 65, 86
2, 10147, Note_on_c, 0, 60, 85
2, 10187, Control_c, 0, 64, 0
2, 10619, Control_c, 0, 64, 127
2, 10763, Note_on_c, 0, 72, 0
2, 10955, Note_on_c, 0, 60, 0
2, 10983, Note_on_c, 0, 69, 0
2, 11002, Note_on_c, 0, 65, 0
2, 11073, Note_on_c, 0, 72, 79
2, 11129, Note_on_c, 0, 53, 0
2, 11427, Note_on_c, 0, 72, 0
2, 11983, Note_on_c, 0, 71, 59
2, 11985, Note_on_c, 0, 54, 48
2, 11991, Note_on_c, 0, 66, 52
2, 11998, Note_on_c, 0, 63, 48
2, 12016, Note_on_c, 0, 59, 52
2, 12027, Control_c, 0, 64, 0
2, 12410, Control_c, 0, 64, 127
2, 12680, Note_on_c, 0, 59, 0
2, 12863, Note_on_c, 0, 71, 0
2, 12897, Note_on_c, 0, 59, 56
2, 12898, Note_on_c, 0, 66, 0
2, 13156, Note_on_c, 0, 54, 0
2, 13204, Note_on_c, 0, 63, 0
2, 13206, Note_on_c, 0, 59, 0
2, 13449, Note_on_c, 0, 69, 68
2, 13573, Note_on_c, 0, 69, 0
2, 13782, Control_c, 0, 64, 0
2, 13794, Note_on_c, 0, 67, 60
2, 13812, Note_on_c, 0, 60, 60
2, 13824, Note_on_c, 0, 52, 46
2, 13849, Note_on_c, 0, 43, 35
2, 14091, Control_c, 0, 64, 127
2, 14265, Note_on_c, 0, 67, 0
2, 14310, Note_on_c, 0, 52, 0
2, 14337, Note_on_c, 0, 60, 0
2, 14447, Note_on_c, 0, 43, 0
2, 15102, Note_on_c, 0, 53, 60
2, 15106, Note_on_c, 0, 60, 54
2, 15352, Note_on_c, 0, 53, 0
2, 15413, Note_on_c, 0, 50, 50
2, 15609, Note_on_c, 0, 50, 0
2, 15632, Note_on_c, 0, 60, 0
2, 15745, Control_c, 0, 64, 0
2, 15769, Note_on_c, 0, 52, 45
2, 15777, Note_on_c, 0, 43, 39
2, 15798, Note_on_c, 0, 36, 45
2, 15806, Note_on_c, 0, 60, 41
2, 16215, Control_c, 0, 64, 127
2, 16652, Note_on_c, 0, 43, 0
2, 16667, Note_on_c, 0, 52, 0
2, 16679, Note_on_c, 0, 60, 0
2, 16681, Note_on_c, 0, 36, 0
2, 17166, Control_c, 0, 64, 0
2, 17241, Note_on_c, 0, 52, 52
2, 17252, Note_on_c, 0, 63, 39
2, 17268, Note_on_c, 0, 58, 47
2, 17276, Note_on_c, 0, 40, 49
2, 17290, Control_c, 0, 64, 127
2, 17440, Note_on_c, 0, 52, 0
2, 17512, Control_c, 0, 64, 0
2, 17554, Note_on_c, 0, 63, 0
2, 17580, Note_on_c, 0, 58, 0
2, 17652, Note_on_c, 0, 40, 0
2, 17702, Note_on_c, 0, 41, 48
2, 17718, Note_on_c, 0, 60, 43
2, 17723, Note_on_c, 0, 57, 38
2, 17729, Note_on_c, 0, 53, 22
2, 17796, Control_c, 0, 64, 127
2, 17897, Note_on_c, 0, 53, 0
2, 17927, Note_on_c, 0, 57, 0
2, 17954, Note_on_c, 0, 60, 0
2, 18155, Note_on_c, 0, 41, 0
2, 19154, Control_c, 0, 64, 0
2, 19166, Note_on_c, 0, 72, 76
2, 19173, Note_on_c, 0, 69, 80
2, 19175, Note_on_c, 0, 65, 92
2, 19177, Note_on_c, 0, 53, 81
2, 19183, Note_on_c, 0, 60, 90
2, 19365, Control_c, 0, 64, 127
2, 19428, Note_on_c, 0, 65, 0
2, 19462, Note_on_c, 0, 60, 0
2, 19560, Note_on_c, 0, 69, 0
2, 19561, Note_on_c, 0, 72, 0
2, 20166, Note_on_c, 0, 53, 0
2, 20174, Note_on_c, 0, 54, 81
2, 20181, Note_on_c, 0, 71, 88
2, 20184, Note_on_c, 0, 63, 83
2, 20187, Note_on_c, 0, 66, 80
2, 20192, Control_c, 0, 64, 0
2, 20513, Control_c, 0, 64, 127
2, 20545, Note_on_c, 0, 71, 0
2, 20626, Note_on_c, 0, 63, 0
2, 20681, Note_on_c, 0, 63, 39
2, 20682, Note_on_c, 0, 71, 75
2, 20969, Note_on_c, 0, 63, 0
2, 21017, Note_on_c, 0, 71, 0
2, 21028, Note_on_c, 0, 66, 0
2, 21085, Note_on_c, 0, 69, 73
2, 21180, Note_on_c, 0, 69, 0
2, 21464, Control_c, 0, 64, 0
2, 21511, Note_on_c, 0, 67, 66
2, 21525, Note_on_c, 0, 60, 48
2, 21527, Note_on_c, 0, 64, 55
2, 21531, Note_on_c, 0, 55, 53
2, 21551, Note_on_c, 0, 54, 0
2, 21772, Control_c, 0, 64, 127
2, 21857, Note_on_c, 0, 67, 0
2, 21901, Note_on_c, 0, 64, 0
2, 21952, Note_on_c, 0, 60, 0
2, 22032, Note_on_c, 0, 55, 0
2, 22452, Control_c, 0, 64, 0
2, 22468, Note_on_c, 0, 56, 38
2, 22475, Note_on_c, 0, 64, 58
2, 22485, Note_on_c, 0, 59, 59
2, 22712, Control_c, 0, 64, 127
2, 22934, Note_on_c, 0, 59, 0
2, 23013, Note_on_c, 0, 56, 0
2, 23133, Note_on_c, 0, 64, 0
2, 23459, Note_on_c, 0, 52, 53
2, 23471, Note_on_c, 0, 60, 61
2, 23482, Note_on_c, 0, 45, 43
2, 23490, Control_c, 0, 64, 0
2, 23898, Control_c, 0, 64, 127
2, 24022, Note_on_c, 0, 52, 0
2, 24403, Note_on_c, 0, 60, 0
2, 24490, Note_on_c, 0, 52, 44
2, 24512, Note_on_c, 0, 57, 37
2, 24530, Note_on_c, 0, 45, 0
2, 24612, Note_on_c, 0, 52, 0
2, 24675, Note_on_c, 0, 57, 0
2, 25417, Control_c, 0, 64, 0
2, 25425, Note_on_c, 0, 74, 63
2, 25436, Note_on_c, 0, 66, 44
2, 25445, Note_on_c, 0, 69, 68
2, 25461, Note_on_c, 0, 50, 35
2, 25467, Note_on_c, 0, 60, 35
2, 25751, Control_c, 0, 64, 127
2, 25882, Note_on_c, 0, 66, 0
2, 25889, Note_on_c, 0, 69, 0
2, 25925, Note_on_c, 0, 74, 0
2, 26062, Note_on_c, 0, 71, 89
2, 26072, Note_on_c, 0, 67, 92
2, 26074, Note_on_c, 0, 74, 78
2, 26083, Note_on_c, 0, 70, 52
2, 26220, Note_on_c, 0, 60, 0
2, 26274, Note_on_c, 0, 67, 0
2, 26277, Note_on_c, 0, 74, 0
2, 26332, Note_on_c, 0, 70, 0
2, 26341, Note_on_c, 0, 71, 0
2, 26417, Control_c, 0, 64, 0
2, 26434, Note_on_c, 0, 72, 78
2, 26438, Note_on_c, 0, 74, 89
2, 26439, Note_on_c, 0, 69, 104
2, 26450, Note_on_c, 0, 60, 56
2, 26751, Control_c, 0, 64, 127
2, 26899, Note_on_c, 0, 60, 0
2, 26910, Note_on_c, 0, 50, 0
2, 26948, Control_c, 0, 64, 0
2, 26954, Note_on_c, 0, 69, 0
2, 26978, Note_on_c, 0, 72, 0
2, 26989, Note_on_c, 0, 74, 0
2, 27044, Note_on_c, 0, 74, 45
2, 27056, Note_on_c, 0, 50, 31
2, 27058, Note_on_c, 0, 67, 69
2, 27065, Note_on_c, 0, 71, 67
2, 27093, Note_on_c, 0, 60, 32
2, 27097, Control_c, 0, 64, 127
2, 27237, Note_on_c, 0, 50, 0
2, 27240, Note_on_c, 0, 74, 0
2, 27244, Note_on_c, 0, 67, 0
2, 27287, Note_on_c, 0, 60, 0
2, 27394, Note_on_c, 0, 71, 0
2, 27405, Control_c, 0, 64, 0
2, 27440, Note_on_c, 0, 74, 59
2, 27456, Note_on_c, 0, 66, 42
2, 27459, Note_on_c, 0, 69, 56
2, 27473, Note_on_c, 0, 50, 38
2, 27474, Note_on_c, 0, 60, 37
2, 27677, Control_c, 0, 64, 127
2, 27782, Note_on_c, 0, 69, 0
2, 27821, Note_on_c, 0, 66, 0
2, 27911, Note_on_c, 0, 60, 0
2, 28186, Note_on_c, 0, 74, 0
2, 28298, Note_on_c, 0, 66, 43
2, 28317, Note_on_c, 0, 62, 54
2, 28320, Note_on_c, 0, 60, 35
2, 28392, Note_on_c, 0, 60, 0
2, 28477, Note_on_c, 0, 50, 0
2, 28661, Note_on_c, 0, 66, 0
2, 28750, Note_on_c, 0, 62, 0
2, 29275, Note_on_c, 0, 59, 59
2, 29283, Control_c, 0, 64, 0
2, 29284, Note_on_c, 0, 67, 58
2, 29288, Note_on_c, 0, 43, 41
2, 29300, Note_on_c, 0, 62, 60
2, 29505, Control_c, 0, 64, 127
2, 29568, Note_on_c, 0, 43, 0
2, 29767, Note_on_c, 0, 62, 0
2, 29837, Note_on_c, 0, 59, 0
2, 30121, Note_on_c, 0, 67, 0
2, 30272, Note_on_c, 0, 62, 87
2, 30274, Note_on_c, 0, 59, 77
2, 30281, Note_on_c, 0, 55, 65
2, 30285, Note_on_c, 0, 41, 57
2, 30295, Control_c, 0, 64, 0
2, 30604, Control_c, 0, 64, 127
2, 30749, Note_on_c, 0, 41, 0
2, 30779, Note_on_c, 0, 59, 0
2, 30932, Note_on_c, 0, 55, 0
2, 31077, Note_on_c, 0, 62, 0
2, 31243, Note_on_c, 0, 40, 66
2, 31244, Note_on_c, 0, 60, 77
2, 31246, Control_c, 0, 64, 0
2, 31249, Note_on_c, 0, 64, 76
2, 31250, Note_on_c, 0, 55, 79
2, 31531, Control_c, 0, 64, 127
2, 31561, Note_on_c, 0, 40, 0
2, 31700, Note_on_c, 0, 55, 0
2, 31789, Note_on_c, 0, 60, 0
2, 31885, Note_on_c, 0, 64, 0
2, 32136, Control_c, 0, 64, 0
2, 32154, Note_on_c, 0, 65, 76
2, 32156, Note_on_c, 0, 59, 75
2, 32158, Note_on_c, 0, 38, 68
2, 32162, Note_on_c, 0, 53, 73
2, 32163, Note_on_c, 0, 62, 68
2, 32359, Control_c, 0, 64, 127
2, 32388, Note_on_c, 0, 53, 0
2, 32427, Note_on_c, 0, 38, 0
2, 32511, Note_on_c, 0, 59, 0
2, 32556, Note_on_c, 0, 62, 0
2, 32588, Note_on_c, 0, 65, 0
2, 33097, Note_on_c, 0, 76, 99
2, 33099, Control_c, 0, 64, 0
2, 33103, Note_on_c, 0, 67, 100
2, 33104, Note_on_c, 0, 72, 81
2, 33114, Note_on_c, 0, 48, 76
2, 33115, Note_on_c, 0, 36, 76
2, 33421, Control_c, 0, 64, 127
2, 33450, Note_on_c, 0, 36, 0
2, 33531, Note_on_c, 0, 48, 0
2, 33689, Note_on_c, 0, 72, 0
2, 33730, Note_on_c, 0, 67, 0
2, 34049, Note_on_c, 0, 67, 65
2, 34051, Note_on_c, 0, 76, 0
2, 34054, Note_on_c, 0, 72, 44
2, 34060, Note_on_c, 0, 64, 53
2, 34102, Note_on_c, 0, 60, 44
2, 34271, Note_on_c, 0, 64, 0
2, 34340, Note_on_c, 0, 60, 0
2, 34478, Note_on_c, 0, 67, 0
2, 34516, Note_on_c, 0, 72, 0
2, 34997, Note_on_c, 0, 76, 85
2, 35008, Note_on_c, 0, 71, 85
2, 35012, Note_on_c, 0, 68, 82
2, 35014, Note_on_c, 0, 56, 88
2, 35021, Note_on_c, 0, 64, 89
2, 35039, Control_c, 0, 64, 0
2, 35046, Note_on_c, 0, 74, 45
2, 35471, Control_c, 0, 64, 127
2, 35765, Note_on_c, 0, 64, 0
2, 35795, Note_on_c, 0, 68, 0
2, 35967, Note_on_c, 0, 74, 0
2, 35974, Note_on_c, 0, 76, 0
2, 35987, Note_on_c, 0, 68, 36
2, 35991, Note_on_c, 0, 64, 48
2, 36098, Note_on_c, 0, 71, 0
2, 36260, Note_on_c, 0, 56, 0
2, 36288, Note_on_c, 0, 64, 0
2, 36346, Note_on_c, 0, 68, 0
2, 36458, Note_on_c, 0, 74, 71
2, 36625, Note_on_c, 0, 74, 0
2, 36928, Control_c, 0, 64, 0
2, 36935, Note_on_c, 0, 72, 41
2, 36948, Note_on_c, 0, 60, 48
2, 36949, Note_on_c, 0, 45, 41
2, 36952, Note_on_c, 0, 52, 43
2, 36964, Note_on_c, 0, 57, 41
2, 37176, Control_c, 0, 64, 127
2, 37496, Note_on_c, 0, 60, 0
2, 37881, Note_on_c, 0, 57, 0
2, 37904, Note_on_c, 0, 64, 48
2, 37920, Note_on_c, 0, 60, 37
2, 37967, Note_on_c, 0, 52, 0
2, 37993, Note_on_c, 0, 45, 0
2, 38116, Note_on_c, 0, 60, 0
2, 38142, Note_on_c, 0, 64, 0
2, 38232, Note_on_c, 0, 72, 0
2, 38853, Note_on_c, 0, 40, 48
2, 38855, Note_on_c, 0, 76, 50
2, 38858, Control_c, 0, 64, 0
2, 38860, Note_on_c, 0, 64, 49
2, 38867, Note_on_c, 0, 68, 41
2, 38874, Note_on_c, 0, 28, 46
2, 38884, Note_on_c, 0, 72, 34
2, 39189, Control_c, 0, 64, 127
2, 39443, Note_on_c, 0, 72, 0
2, 39486, Note_on_c, 0, 68, 0
2, 39543, Note_on_c, 0, 64, 0
2, 39687, Note_on_c, 0, 40, 0
2, 39700, Note_on_c, 0, 76, 0
2, 39874, Note_on_c, 0, 64, 51
2, 39878, Note_on_c, 0, 70, 60
2, 39890, Note_on_c, 0, 40, 46
2, 39900, Note_on_c, 0, 72, 38
2, 40258, Note_on_c, 0, 72, 0
2, 40276, Note_on_c, 0, 70, 0
2, 40341, Note_on_c, 0, 64, 0
2, 40398, Note_on_c, 0, 28, 0
2, 40474, Note_on_c, 0, 40, 0
2, 40822, Note_on_c, 0, 41, 49
2, 40824, Note_on_c, 0, 69, 53
2, 40825, Note_on_c, 0, 60, 41
2, 40831, Control_c, 0, 64, 0
2, 40834, Note_on_c, 0, 29, 38
2, 40835, Note_on_c, 0, 65, 47
2, 41178, Control_c, 0, 64, 127
2, 41353, Note_on_c, 0, 60, 0
2, 41548, Note_on_c, 0, 65, 0
2, 41587, Note_on_c, 0, 69, 0
2, 41646, Note_on_c, 0, 29, 0
2, 41776, Note_on_c, 0, 41, 0
2, 41791, Note_on_c, 0, 72, 87
2, 41795, Note_on_c, 0, 65, 106
2, 42220, Note_on_c, 0, 72, 0
2, 42249, Note_on_c, 0, 65, 0
2, 42692, Note_on_c, 0, 71, 71
2, 42705, Note_on_c, 0, 54, 42
2, 42713, Note_on_c, 0, 63, 47
2, 42715, Note_on_c, 0, 66, 54
2, 42719, Note_on_c, 0, 60, 52
2, 42722, Control_c, 0, 64, 0
2, 43067, Control_c, 0, 64, 127
2, 43284, Note_on_c, 0, 60, 0
2, 43316, Note_on_c, 0, 63, 0
2, 43353, Note_on_c, 0, 66, 0
2, 43584, Note_on_c, 0, 71, 0
2, 43596, Note_on_c, 0, 66, 37
2, 43612, Note_on_c, 0, 63, 36
2, 43632, Note_on_c, 0, 60, 38
2, 43645, Note_on_c, 0, 57, 35
2, 43778, Note_on_c, 0, 57, 0
2, 43898, Note_on_c, 0, 54, 0
2, 43957, Note_on_c, 0, 60, 0
2, 43996, Note_on_c, 0, 66, 0
2, 44064, Note_on_c, 0, 69, 62
2, 44134, Note_on_c, 0, 63, 0
2, 44188, Note_on_c, 0, 69, 0
2, 44537, Control_c, 0, 64, 0
2, 44572, Note_on_c, 0, 67, 49
2, 44573, Note_on_c, 0, 43, 34
2, 44576, Note_on_c, 0, 60, 50
2, 44582, Note_on_c, 0, 52, 31
2, 44599, Note_on_c, 0, 55, 41
2, 44760, Control_c, 0, 64, 127
2, 44808, Note_on_c, 0, 52, 0
2, 44831, Note_on_c, 0, 67, 0
2, 44896, Note_on_c, 0, 60, 0
2, 44943, Note_on_c, 0, 55, 0
2, 44949, Note_on_c, 0, 43, 0
2, 45536, Note_on_c, 0, 60, 73
2, 45540, Note_on_c, 0, 53, 76
2, 45599, Control_c, 0, 64, 0
2, 45788, Note_on_c, 0, 53, 0
2, 45833, Note_on_c, 0, 50, 55
2, 45871, Control_c, 0, 64, 127
2, 45921, Control_c, 0, 64, 0
2, 45925, Note_on_c, 0, 60, 0
2, 46023, Note_on_c, 0, 50, 0
2, 46148, Note_on_c, 0, 43, 38
2, 46151, Note_on_c, 0, 51, 57
2, 46204, Control_c, 0, 64, 127
2, 46446, Note_on_c, 0, 51, 0
2, 46452, Control_c, 0, 64, 0
2, 46539, Note_on_c, 0, 52, 42
2, 46541, Note_on_c, 0, 43, 0
2, 46603, Note_on_c, 0, 36, 29
2, 46760, Control_c, 0, 64, 127
2, 47262, Note_on_c, 0, 52, 0
2, 47468, Note_on_c, 0, 36, 0
2, 47513, Note_on_c, 0, 56, 61
2, 47519, Note_on_c, 0, 61, 44
2, 47520, Note_on_c, 0, 64, 62
2, 47521, Note_on_c, 0, 52, 63
2, 47527, Control_c, 0, 64, 0
2, 47542, Note_on_c, 0, 40, 42
2, 47921, Control_c, 0, 64, 127
2, 47963, Note_on_c, 0, 52, 0
2, 48133, Note_on_c, 0, 61, 0
2, 48205, Note_on_c, 0, 56, 0
2, 48319, Note_on_c, 0, 64, 0
2, 48391, Control_c, 0, 64, 0
2, 48420, Note_on_c, 0, 40, 0
2, 48444, Note_on_c, 0, 53, 37
2, 48456, Note_on_c, 0, 57, 46
2, 48462, Note_on_c, 0, 60, 42
2, 48483, Note_on_c, 0, 41, 42
2, 48638, Control_c, 0, 64, 127
2, 48654, Note_on_c, 0, 53, 0
2, 48694, Note_on_c, 0, 41, 0
2, 48764, Note_on_c, 0, 57, 0
2, 48814, Note_on_c, 0, 60, 0
2, 49383, Note_on_c, 0, 62, 50
2, 49398, Note_on_c, 0, 57, 46
2, 49407, Note_on_c, 0, 53, 34
2, 49409, Note_on_c, 0, 60, 45
2, 49756, Note_on_c, 0, 62, 0
2, 49795, Note_on_c, 0, 53, 0
2, 49806, Note_on_c, 0, 57, 0
2, 49831, Note_on_c, 0, 60, 0
2, 49912, Note_on_c, 0, 72, 88
2, 50251, Note_on_c, 0, 72, 0
2, 50351, Note_on_c, 0, 63, 68
2, 50352, Note_on_c, 0, 71, 50
2, 50368, Note_on_c, 0, 66, 62
2, 50373, Note_on_c, 0, 54, 59
2, 50375, Note_on_c, 0, 60, 48
2, 50392, Control_c, 0, 64, 0
2, 50614, Note_on_c, 0, 60, 0
2, 50651, Control_c, 0, 64, 127
2, 50687, Note_on_c, 0, 54, 0
2, 50807, Note_on_c, 0, 71, 0
2, 50823, Note_on_c, 0, 63, 0
2, 50906, Note_on_c, 0, 66, 0
2, 51297, Note_on_c, 0, 54, 30
2, 51311, Note_on_c, 0, 44, 39
2, 51319, Note_on_c, 0, 63, 34
2, 51322, Note_on_c, 0, 66, 43
2, 51330, Control_c, 0, 64, 0
2, 51342, Note_on_c, 0, 60, 35
2, 51466, Control_c, 0, 64, 127
2, 51467, Note_on_c, 0, 44, 0
2, 51565, Note_on_c, 0, 54, 0
2, 51645, Note_on_c, 0, 60, 0
2, 51700, Note_on_c, 0, 63, 0
2, 51715, Note_on_c, 0, 66, 0
2, 51807, Note_on_c, 0, 69, 73
2, 51829, Note_on_c, 0, 44, 55
2, 51948, Note_on_c, 0, 69, 0
2, 52029, Note_on_c, 0, 44, 0
2, 52282, Control_c, 0, 64, 0
2, 52283, Note_on_c, 0, 67, 71
2, 52306, Note_on_c, 0, 43, 43
2, 52314, Note_on_c, 0, 55, 60
2, 52322, Note_on_c, 0, 52, 37
2, 52345, Note_on_c, 0, 60, 33
2, 52591, Control_c, 0, 64, 127
2, 52640, Note_on_c, 0, 67, 0
2, 52686, Note_on_c, 0, 55, 0
2, 52703, Note_on_c, 0, 43, 0
2, 52721, Note_on_c, 0, 60, 0
2, 52750, Note_on_c, 0, 52, 0
2, 53183, Control_c, 0, 64, 0
2, 53202, Note_on_c, 0, 56, 39
2, 53204, Note_on_c, 0, 59, 60
2, 53212, Note_on_c, 0, 44, 39
2, 53215, Note_on_c, 0, 53, 46
2, 53217, Note_on_c, 0, 64, 57
2, 53591, Control_c, 0, 64, 127
2, 53596, Note_on_c, 0, 59, 0
2, 53613, Note_on_c, 0, 44, 0
2, 53655, Note_on_c, 0, 56, 0
2, 53703, Note_on_c, 0, 53, 0
2, 53707, Note_on_c, 0, 64, 0
2, 54184, Control_c, 0, 64, 0
2, 54227, Note_on_c, 0, 60, 42
2, 54230, Note_on_c, 0, 55, 42
2, 54248, Note_on_c, 0, 52, 31
2, 54257, Note_on_c, 0, 45, 39
2, 54263, Note_on_c, 0, 64, 38
2, 54529, Note_on_c, 0, 64, 0
2, 54592, Control_c, 0, 64, 127
2, 54618, Note_on_c, 0, 60, 0
2, 54726, Note_on_c, 0, 55, 0
2, 55174, Note_on_c, 0, 56, 79
2, 55175, Note_on_c, 0, 55, 76
2, 55234, Control_c, 0, 64, 0
2, 55267, Note_on_c, 0, 57, 74
2, 55278, Note_on_c, 0, 55, 0
2, 55286, Note_on_c, 0, 56, 0
2, 55360, Note_on_c, 0, 52, 0
2, 55417, Note_on_c, 0, 45, 0
2, 55455, Note_on_c, 0, 57, 0
2, 55517, Note_on_c, 0, 60, 65
2, 55567, Control_c, 0, 64, 127
2, 55666, Control_c, 0, 64, 0
2, 55695, Note_on_c, 0, 60, 0
2, 55829, Note_on_c, 0, 62, 84
2, 55851, Control_c, 0, 64, 127
2, 55959, Note_on_c, 0, 62, 0
2, 56148, Control_c, 0, 64, 0
2, 56171, Note_on_c, 0, 65, 60
2, 56188, Note_on_c, 0, 38, 49
2, 56191, Note_on_c, 0, 60, 60
2, 56196, Note_on_c, 0, 26, 56
2, 56202, Note_on_c, 0, 53, 42
2, 56408, Note_on_c, 0, 65, 0
2, 56432, Control_c, 0, 64, 127
2, 56436, Note_on_c, 0, 60, 0
2, 56449, Note_on_c, 0, 26, 0
2, 56459, Note_on_c, 0, 38, 0
2, 56489, Note_on_c, 0, 53, 0
2, 56753, Control_c, 0, 64, 0
2, 56809, Note_on_c, 0, 28, 50
2, 56813, Note_on_c, 0, 40, 47
2, 56820, Note_on_c, 0, 55, 63
2, 56830, Note_on_c, 0, 64, 56
2, 56841, Note_on_c, 0, 60, 60
2, 57160, Control_c, 0, 64, 127
2, 57564, Note_on_c, 0, 28, 0
2, 57621, Note_on_c, 0, 60, 0
2, 57641, Note_on_c, 0, 55, 0
2, 57664, Note_on_c, 0, 40, 0
2, 57720, Note_on_c, 0, 64, 0
2, 57939, Control_c, 0, 64, 0
2, 57990, Note_on_c, 0, 29, 38
2, 57992, Note_on_c, 0, 53, 39
2, 58003, Note_on_c, 0, 41, 36
2, 58004, Note_on_c, 0, 60, 43
2, 58018, Note_on_c, 0, 57, 40
2, 58291, Note_on_c, 0, 57, 0
2, 58293, Note_on_c, 0, 29, 0
2, 58300, Note_on_c, 0, 60, 0
2, 58347, Control_c, 0, 64, 127
2, 58366, Note_on_c, 0, 53, 0
2, 58418, Note_on_c, 0, 41, 0
2, 58623, Note_on_c, 0, 53, 45
2, 58629, Note_on_c, 0, 43, 36
2, 58634, Note_on_c, 0, 31, 40
2, 58636, Note_on_c, 0, 62, 61
2, 58642, Control_c, 0, 64, 0
2, 58646, Note_on_c, 0, 57, 42
2, 58890, Control_c, 0, 64, 127
2, 59010, Note_on_c, 0, 31, 0
2, 59171, Note_on_c, 0, 43, 0
2, 59267, Note_on_c, 0, 62, 0
2, 59274, Note_on_c, 0, 57, 0
2, 59430, Note_on_c, 0, 53, 0
2, 59915, Control_c, 0, 64, 0
2, 59916, Note_on_c, 0, 53, 51
2, 59918, Note_on_c, 0, 60, 54
2, 59956, Note_on_c, 0, 43, 31
2, 59982, Note_on_c, 0, 36, 34
2, 60397, Control_c, 0, 64, 127
2, 61231, Note_on_c, 0, 50, 53
2, 61257, Note_on_c, 0, 53, 0
2, 61380, Note_on_c, 0, 60, 0
2, 61432, Note_on_c, 0, 50, 0
2, 61540, Note_on_c, 0, 51, 63
2, 61681, Note_on_c, 0, 36, 0
2, 61867, Control_c, 0, 64, 0
2, 61874, Note_on_c, 0, 36, 51
2, 61879, Note_on_c, 0, 52, 56
2, 61890, Note_on_c, 0, 51, 0
2, 62021, Note_on_c, 0, 52, 0
2, 62039, Note_on_c, 0, 43, 0
2, 62107, Note_on_c, 0, 36, 0
2, 62113, Control_c, 0, 64, 127
2, 62311, Control_c, 0, 64, 0
2, 62496, Control_c, 0, 64, 127
2, 62497, Note_on_c, 0, 36, 65
2, 62554, Note_on_c, 0, 36, 0
2, 62694, Control_c, 0, 64, 0
2, 62824, Note_on_c, 0, 62, 76
2, 62833, Note_on_c, 0, 53, 74
2, 62839, Note_on_c, 0, 57, 69
2, 62869, Note_on_c, 0, 59, 38
2, 62875, Note_on_c, 0, 53, 0
2, 62884, Note_on_c, 0, 57, 0
2, 62916, Note_on_c, 0, 59, 0
2, 62931, Note_on_c, 0, 62, 0
2, 63423, Note_on_c, 0, 38, 45
2, 63430, Note_on_c, 0, 55, 51
2, 63440, Note_on_c, 0, 64, 39
2, 63442, Note_on_c, 0, 60, 49
2, 63534, Note_on_c, 0, 55, 0
2, 63546, Control_c, 0, 64, 127
2, 63591, Note_on_c, 0, 60, 0
2, 63602, Note_on_c, 0, 64, 0
2, 63732, Control_c, 0, 64, 0
2, 63733, Note_on_c, 0, 38, 0
2, 63778, Note_on_c, 0, 59, 49
2, 63780, Note_on_c, 0, 62, 62
2, 63782, Note_on_c, 0, 53, 40
2, 63790, Note_on_c, 0, 43, 39
2, 63809, Note_on_c, 0, 31, 39
2, 63991, Note_on_c, 0, 31, 0
2, 64028, Control_c, 0, 64, 127
2, 64090, Control_c, 0, 64, 0
2, 64098, Note_on_c, 0, 43, 0
2, 64413, Note_on_c, 0, 43, 29
2, 64436, Control_c, 0, 64, 127
2, 64521, Note_on_c, 0, 43, 0
2, 64757, Control_c, 0, 64, 0
2, 64786, Note_on_c, 0, 52, 41
2, 64788, Note_on_c, 0, 43, 36
2, 65114, Note_on_c, 0, 43, 0
2, 65151, Note_on_c, 0, 52, 0
2, 65421, Note_on_c, 0, 52, 37
2, 65448, Note_on_c, 0, 43, 29
2, 65561, Note_on_c, 0, 43, 0
2, 65609, Control_c, 0, 64, 127
2, 65667, Note_on_c, 0, 59, 0
2, 65683, Note_on_c, 0, 53, 0
2, 65696, Control_c, 0, 64, 0
2, 65702, Note_on_c, 0, 52, 0
2, 65768, Note_on_c, 0, 50, 42
2, 65779, Note_on_c, 0, 43, 38
2, 65831, Note_on_c, 0, 50, 0
2, 65904, Note_on_c, 0, 43, 0
2, 65967, Control_c, 0, 64, 127
2, 66165, Control_c, 0, 64, 0
2, 66363, Note_on_c, 0, 62, 0
2, 66376, Note_on_c, 0, 42, 55
2, 66424, Control_c, 0, 64, 127
2, 66653, Note_on_c, 0, 42, 0
2, 66659, Control_c, 0, 64, 0
2, 66731, Note_on_c, 0, 62, 67
2, 66735, Note_on_c, 0, 57, 62
2, 66740, Note_on_c, 0, 53, 54
2, 66745, Note_on_c, 0, 43, 45
2, 66893, Control_c, 0, 64, 127
2, 66990, Note_on_c, 0, 53, 0
2, 67052, Note_on_c, 0, 57, 0
2, 67080, Note_on_c, 0, 43, 0
2, 67138, Note_on_c, 0, 62, 0
2, 67264, Control_c, 0, 64, 0
2, 67339, Note_on_c, 0, 60, 96
2, 67340, Note_on_c, 0, 64, 92
2, 67344, Note_on_c, 0, 55, 94
2, 67356, Note_on_c, 0, 43, 74
2, 67437, Control_c, 0, 64, 127
2, 67554, Note_on_c, 0, 55, 0
2, 67610, Note_on_c, 0, 64, 0
2, 67636, Note_on_c, 0, 60, 0
2, 67696, Control_c, 0, 64, 0
2, 67699, Note_on_c, 0, 58, 65
2, 67705, Note_on_c, 0, 53, 66
2, 67712, Note_on_c, 0, 62, 63
2, 67728, Note_on_c, 0, 31, 69
2, 67807, Note_on_c, 0, 58, 0
2, 67810, Note_on_c, 0, 59, 51
2, 68166, Control_c, 0, 64, 127
2, 68280, Note_on_c, 0, 31, 0
2, 68340, Note_on_c, 0, 53, 0
2, 68391, Note_on_c, 0, 31, 42
2, 68400, Note_on_c, 0, 59, 0
2, 68498, Note_on_c, 0, 43, 0
2, 68670, Note_on_c, 0, 53, 49
2, 68749, Note_on_c, 0, 31, 0
2, 69057, Note_on_c, 0, 53, 0
2, 69273, Note_on_c, 0, 43, 73
2, 69488, Note_on_c, 0, 43, 0
2, 69532, Note_on_c, 0, 62, 0
2, 69611, Note_on_c, 0, 43, 57
2, 69850, Note_on_c, 0, 43, 0
2, 69957, Note_on_c, 0, 79, 83
2, 69967, Note_on_c, 0, 67, 80
2, 70052, Note_on_c, 0, 67, 0
2, 70083, Note_on_c, 0, 79, 0
2, 70130, Control_c, 0, 64, 0
2, 70210, Note_on_c, 0, 57, 67
2, 70211, Note_on_c, 0, 81, 87
2, 70212, Note_on_c, 0, 69, 94
2, 70254, Control_c, 0, 64, 127
2, 70335, Note_on_c, 0, 69, 0
2, 70337, Note_on_c, 0, 57, 0
2, 70378, Note_on_c, 0, 81, 0
2, 70481, Note_on_c, 0, 83, 85
2, 70489, Note_on_c, 0, 71, 87
2, 70621, Note_on_c, 0, 71, 0
2, 70637, Note_on_c, 0, 83, 0
2, 70780, Note_on_c, 0, 84, 84
2, 70785, Note_on_c, 0, 72, 73
2, 70880, Note_on_c, 0, 72, 0
2, 70905, Note_on_c, 0, 84, 0
2, 71063, Note_on_c, 0, 86, 84
2, 71068, Note_on_c, 0, 74, 81
2, 71178, Note_on_c, 0, 74, 0
2, 71204, Note_on_c, 0, 86, 0
2, 71377, Control_c, 0, 64, 0
2, 71381, Note_on_c, 0, 36, 75
2, 71381, Note_on_c, 0, 48, 58
2, 71396, Note_on_c, 0, 88, 75
2, 71399, Note_on_c, 0, 76, 65
2, 71424, Note_on_c, 0, 60, 35
2, 71599, Control_c, 0, 64, 127
2, 71634, Note_on_c, 0, 48, 0
2, 71713, Note_on_c, 0, 60, 0
2, 71893, Note_on_c, 0, 88, 0
2, 71943, Note_on_c, 0, 76, 0
2, 72341, Note_on_c, 0, 36, 0
2, 72429, Note_on_c, 0, 55, 39
2, 72431, Note_on_c, 0, 72, 34
2, 72442, Note_on_c, 0, 64, 27
2, 72449, Note_on_c, 0, 60, 38
2, 72802, Note_on_c, 0, 60, 0
2, 72807, Note_on_c, 0, 55, 0
2, 72853, Note_on_c, 0, 72, 0
2, 72932, Note_on_c, 0, 64, 0
2, 73440, Note_on_c, 0, 88, 85
2, 73450, Note_on_c, 0, 62, 62
2, 73453, Control_c, 0, 64, 0
2, 73455, Note_on_c, 0, 65, 68
2, 73457, Note_on_c, 0, 76, 81
2, 73458, Note_on_c, 0, 80, 67
2, 73467, Note_on_c, 0, 56, 51
2, 73637, Control_c, 0, 64, 127
2, 73725, Note_on_c, 0, 65, 0
2, 73754, Note_on_c, 0, 88, 0
2, 73760, Note_on_c, 0, 62, 0
2, 73803, Note_on_c, 0, 80, 0
2, 73825, Note_on_c, 0, 76, 0
2, 73843, Note_on_c, 0, 56, 0
2, 74372, Note_on_c, 0, 71, 54
2, 74380, Note_on_c, 0, 56, 42
2, 74381, Note_on_c, 0, 68, 43
2, 74391, Control_c, 0, 64, 0
2, 74395, Note_on_c, 0, 64, 43
2, 74406, Note_on_c, 0, 47, 43
2, 74601, Control_c, 0, 64, 127
2, 74790, Note_on_c, 0, 64, 0
2, 74868, Note_on_c, 0, 71, 0
2, 74869, Note_on_c, 0, 68, 0
2, 74942, Note_on_c, 0, 47, 0
2, 74945, Note_on_c, 0, 56, 0
2, 75002, Note_on_c, 0, 74, 99
2, 75210, Note_on_c, 0, 74, 0
2, 75367, Control_c, 0, 64, 0
2, 75368, Note_on_c, 0, 72, 71
2, 75388, Note_on_c, 0, 45, 57
2, 75663, Control_c, 0, 64, 127
2, 76323, Note_on_c, 0, 64, 47
2, 76327, Note_on_c, 0, 60, 40
2, 76923, Note_on_c, 0, 57, 76
2, 77103, Note_on_c, 0, 72, 0
2, 77109, Note_on_c, 0, 60, 0
2, 77199, Note_on_c, 0, 57, 0
2, 77269, Note_on_c, 0, 64, 0
2, 77520, Note_on_c, 0, 45, 0
2, 77637, Note_on_c, 0, 58, 44
2, 77639, Note_on_c, 0, 64, 61
2, 77659, Note_on_c, 0, 52, 62
2, 77664, Control_c, 0, 64, 0
2, 77865, Note_on_c, 0, 64, 0
2, 77886, Control_c, 0, 64, 127
2, 77949, Note_on_c, 0, 58, 0
2, 78122, Note_on_c, 0, 52, 0
2, 78242, Note_on_c, 0, 58, 65
2, 78246, Control_c, 0, 64, 0
2, 78251, Note_on_c, 0, 55, 54
2, 78393, Control_c, 0, 64, 127
2, 78677, Control_c, 0, 64, 0
2, 78740, Note_on_c, 0, 55, 0
2, 78800, Control_c, 0, 64, 127
2, 78807, Note_on_c, 0, 42, 42
2, 78810, Note_on_c, 0, 49, 41
2, 78995, Note_on_c, 0, 58, 0
2, 79019, Note_on_c, 0, 42, 0
2, 79085, Control_c, 0, 64, 0
2, 79106, Note_on_c, 0, 49, 0
2, 79171, Note_on_c, 0, 41, 49
2, 79172, Note_on_c, 0, 48, 39
2, 79174, Note_on_c, 0, 53, 41
2, 79176, Note_on_c, 0, 57, 56
2, 79191, Note_on_c, 0, 60, 53
2, 79307, Control_c, 0, 64, 127
2, 79352, Note_on_c, 0, 48, 0
2, 79376, Note_on_c, 0, 53, 0
2, 79388, Note_on_c, 0, 41, 0
2, 79469, Note_on_c, 0, 57, 0
2, 79501, Note_on_c, 0, 60, 0
2, 80641, Control_c, 0, 64, 0
2, 80651, Note_on_c, 0, 72, 79
2, 80653, Note_on_c, 0, 69, 93
2, 80664, Note_on_c, 0, 57, 75
2, 80666, Note_on_c, 0, 65, 92
2, 80777, Control_c, 0, 64, 127
2, 80793, Note_on_c, 0, 57, 0
2, 80811, Note_on_c, 0, 69, 0
2, 80843, Note_on_c, 0, 65, 0
2, 80844, Note_on_c, 0, 72, 0
2, 81119, Note_on_c, 0, 71, 79
2, 81134, Note_on_c, 0, 63, 76
2, 81135, Note_on_c, 0, 66, 76
2, 81139, Control_c, 0, 64, 0
2, 81140, Note_on_c, 0, 60, 82
2, 81146, Note_on_c, 0, 54, 56
2, 81471, Control_c, 0, 64, 127
2, 81636, Note_on_c, 0, 71, 0
2, 81752, Note_on_c, 0, 60, 0
2, 81767, Note_on_c, 0, 54, 0
2, 81772, Note_on_c, 0, 66, 0
2, 81804, Note_on_c, 0, 63, 0
2, 82026, Note_on_c, 0, 54, 42
2, 82047, Note_on_c, 0, 66, 39
2, 82055, Note_on_c, 0, 63, 35
2, 82058, Note_on_c, 0, 69, 46
2, 82059, Note_on_c, 0, 60, 44
2, 82192, Note_on_c, 0, 54, 0
2, 82289, Note_on_c, 0, 69, 0
2, 82301, Note_on_c, 0, 60, 0
2, 82334, Note_on_c, 0, 63, 0
2, 82335, Note_on_c, 0, 66, 0
2, 82917, Control_c, 0, 64, 0
2, 82991, Note_on_c, 0, 67, 41
2, 82993, Note_on_c, 0, 55, 39
2, 82994, Note_on_c, 0, 60, 38
2, 82999, Note_on_c, 0, 43, 37
2, 83007, Note_on_c, 0, 52, 34
2, 83014, Note_on_c, 0, 64, 29
2, 83115, Control_c, 0, 64, 127
2, 83183, Note_on_c, 0, 64, 0
2, 83249, Note_on_c, 0, 67, 0
2, 83253, Note_on_c, 0, 60, 0
2, 83254, Note_on_c, 0, 43, 0
2, 83310, Note_on_c, 0, 55, 0
2, 83326, Note_on_c, 0, 52, 0
2, 83943, Note_on_c, 0, 64, 47
2, 83949, Note_on_c, 0, 56, 35
2, 83954, Control_c, 0, 64, 0
2, 83956, Note_on_c, 0, 53, 36
2, 83958, Note_on_c, 0, 44, 41
2, 83971, Note_on_c, 0, 59, 53
2, 84374, Control_c, 0, 64, 127
2, 84375, Note_on_c, 0, 53, 0
2, 84382, Note_on_c, 0, 44, 0
2, 84392, Note_on_c, 0, 59, 0
2, 84512, Note_on_c, 0, 56, 0
2, 84736, Note_on_c, 0, 64, 0
2, 84918, Control_c, 0, 64, 0
2, 84928, Note_on_c, 0, 60, 42
2, 84937, Note_on_c, 0, 57, 48
2, 84942, Note_on_c, 0, 55, 31
2, 84947, Note_on_c, 0, 45, 41
2, 85300, Control_c, 0, 64, 127
2, 85393, Note_on_c, 0, 55, 0
2, 85671, Note_on_c, 0, 57, 0
2, 85708, Note_on_c, 0, 60, 0
2, 86185, Note_on_c, 0, 45, 0
2, 86255, Note_on_c, 0, 56, 51
2, 86337, Note_on_c, 0, 56, 0
2, 86359, Note_on_c, 0, 57, 48
2, 86412, Control_c, 0, 64, 0
2, 86515, Note_on_c, 0, 57, 0
2, 86541, Note_on_c, 0, 60, 84
2, 86561, Control_c, 0, 64, 127
2, 86723, Note_on_c, 0, 60, 0
2, 86820, Control_c, 0, 64, 0
2, 86838, Note_on_c, 0, 62, 78
2, 86856, Note_on_c, 0, 38, 43
2, 86866, Note_on_c, 0, 26, 46
2, 87129, Control_c, 0, 64, 127
2, 88027, Note_on_c, 0, 62, 0
2, 88155, Note_on_c, 0, 26, 0
2, 88363, Note_on_c, 0, 26, 59
2, 88422, Note_on_c, 0, 26, 0
2, 88496, Note_on_c, 0, 38, 0
2, 89433, Note_on_c, 0, 50, 43
2, 89742, Note_on_c, 0, 54, 51
2, 89934, Note_on_c, 0, 54, 0
2, 90042, Note_on_c, 0, 57, 65
2, 90174, Note_on_c, 0, 57, 0
2, 90237, Note_on_c, 0, 50, 0
2, 90318, Note_on_c, 0, 60, 77
2, 90510, Note_on_c, 0, 60, 0
2, 90650, Note_on_c, 0, 59, 80
2, 90662, Note_on_c, 0, 55, 73
2, 90666, Note_on_c, 0, 50, 45
2, 90686, Control_c, 0, 64, 0
2, 90690, Note_on_c, 0, 43, 50
2, 90982, Control_c, 0, 64, 127
2, 91219, Note_on_c, 0, 50, 0
2, 91292, Note_on_c, 0, 43, 0
2, 91298, Note_on_c, 0, 55, 0
2, 91345, Note_on_c, 0, 59, 0
2, 91682, Note_on_c, 0, 41, 48
2, 91683, Note_on_c, 0, 53, 55
2, 91685, Note_on_c, 0, 60, 58
2, 91688, Control_c, 0, 64, 0
2, 91704, Note_on_c, 0, 57, 47
2, 91995, Control_c, 0, 64, 127
2, 92022, Note_on_c, 0, 41, 0
2, 92118, Note_on_c, 0, 53, 0
2, 92171, Note_on_c, 0, 57, 0
2, 92262, Note_on_c, 0, 60, 0
2, 92638, Control_c, 0, 64, 0
2, 92647, Note_on_c, 0, 40, 41
2, 92648, Note_on_c, 0, 55, 60
2, 92659, Note_on_c, 0, 64, 52
2, 92664, Note_on_c, 0, 60, 54
2, 92700, Note_on_c, 0, 48, 29
2, 92934, Control_c, 0, 64, 127
2, 92972, Note_on_c, 0, 48, 0
2, 93050, Note_on_c, 0, 40, 0
2, 93077, Note_on_c, 0, 55, 0
2, 93095, Note_on_c, 0, 60, 0
2, 93127, Note_on_c, 0, 64, 0
2, 93600, Control_c, 0, 64, 0
2, 93604, Note_on_c, 0, 65, 60
2, 93619, Note_on_c, 0, 53, 40
2, 93620, Note_on_c, 0, 59, 54
2, 93621, Note_on_c, 0, 38, 51
2, 93628, Note_on_c, 0, 62, 51
2, 93756, Note_on_c, 0, 38, 0
2, 93885, Control_c, 0, 64, 127
2, 93978, Note_on_c, 0, 53, 0
2, 94046, Note_on_c, 0, 59, 0
2, 94055, Note_on_c, 0, 62, 0
2, 94078, Note_on_c, 0, 65, 0
2, 94503, Control_c, 0, 64, 0
2, 94546, Note_on_c, 0, 43, 33
2, 94575, Note_on_c, 0, 64, 45
2, 94576, Note_on_c, 0, 36, 35
2, 94581, Note_on_c, 0, 60, 43
2, 94582, Note_on_c, 0, 52, 43
2, 94587, Note_on_c, 0, 55, 43
2, 94706, Note_on_c, 0, 55, 0
2, 94753, Control_c, 0, 64, 127
2, 94771, Note_on_c, 0, 36, 0
2, 94802, Note_on_c, 0, 60, 0
2, 94807, Note_on_c, 0, 43, 0
2, 94845, Note_on_c, 0, 64, 0
2, 94909, Note_on_c, 0, 52, 0
2, 95535, Note_on_c, 0, 76, 96
2, 95538, Note_on_c, 0, 72, 86
2, 95541, Note_on_c, 0, 67, 104
2, 95552, Note_on_c, 0, 64, 79
2, 95554, Note_on_c, 0, 60, 81
2, 95838, Note_on_c, 0, 64, 0
2, 95902, Note_on_c, 0, 60, 0
2, 96043, Note_on_c, 0, 67, 0
2, 96116, Note_on_c, 0, 72, 0
2, 96282, Note_on_c, 0, 76, 0
2, 96472, Note_on_c, 0, 76, 78
2, 96486, Note_on_c, 0, 68, 68
2, 96492, Note_on_c, 0, 56, 63
2, 96493, Note_on_c, 0, 71, 72
2, 96497, Control_c, 0, 64, 0
2, 96503, Note_on_c, 0, 64, 72
2, 96540, Note_on_c, 0, 74, 29
2, 96790, Control_c, 0, 64, 127
2, 96846, Note_on_c, 0, 56, 0
2, 97113, Note_on_c, 0, 64, 0
2, 97121, Note_on_c, 0, 76, 0
2, 97184, Note_on_c, 0, 68, 0
2, 97247, Note_on_c, 0, 74, 0
2, 97413, Note_on_c, 0, 68, 42
2, 97423, Note_on_c, 0, 71, 0
2, 97439, Note_on_c, 0, 59, 41
2, 97440, Note_on_c, 0, 64, 45
2, 97667, Note_on_c, 0, 64, 0
2, 97690, Note_on_c, 0, 68, 0
2, 97767, Note_on_c, 0, 59, 0
2, 97816, Control_c, 0, 64, 0
2, 97868, Note_on_c, 0, 74, 76
2, 97874, Note_on_c, 0, 58, 67
2, 97880, Note_on_c, 0, 68, 79
2, 97890, Note_on_c, 0, 64, 74
2, 97964, Control_c, 0, 64, 127
2, 98164, Note_on_c, 0, 64, 0
2, 98176, Note_on_c, 0, 74, 0
2, 98245, Note_on_c, 0, 68, 0
2, 98298, Control_c, 0, 64, 0
2, 98308, Note_on_c, 0, 58, 0
2, 98348, Note_on_c, 0, 72, 59
2, 98359, Note_on_c, 0, 64, 73
2, 98362, Note_on_c, 0, 69, 71
2, 98363, Note_on_c, 0, 57, 54
2, 98581, Control_c, 0, 64, 127
2, 99011, Note_on_c, 0, 57, 0
2, 99239, Note_on_c, 0, 69, 0
2, 99270, Note_on_c, 0, 52, 52
2, 99297, Note_on_c, 0, 72, 0
2, 99419, Note_on_c, 0, 64, 0
2, 99577, Note_on_c, 0, 52, 0
2, 100200, Control_c, 0, 64, 0
2, 100201, Note_on_c, 0, 67, 60
2, 100213, Note_on_c, 0, 58, 44
2, 100222, Note_on_c, 0, 64, 56
2, 100227, Note_on_c, 0, 40, 40
2, 100230, Note_on_c, 0, 52, 37
2, 100443, Note_on_c, 0, 52, 0
2, 100459, Control_c, 0, 64, 127
2, 100529, Note_on_c, 0, 67, 0
2, 100559, Note_on_c, 0, 40, 0
2, 100580, Note_on_c, 0, 64, 0
2, 100609, Note_on_c, 0, 58, 0
2, 101539, Note_on_c, 0, 56, 52
2, 101542, Note_on_c, 0, 64, 53
2, 101547, Note_on_c, 0, 52, 55
2, 101558, Note_on_c, 0, 40, 41
2, 101607, Control_c, 0, 64, 0
2, 101630, Note_on_c, 0, 52, 0
2, 101632, Note_on_c, 0, 40, 0
2, 101670, Note_on_c, 0, 64, 0
2, 101676, Note_on_c, 0, 56, 0
2, 101820, Note_on_c, 0, 28, 52
2, 101855, Control_c, 0, 64, 127
2, 101926, Note_on_c, 0, 28, 0
2, 102078, Control_c, 0, 64, 0
2, 102139, Note_on_c, 0, 53, 51
2, 102159, Note_on_c, 0, 29, 34
2, 102163, Note_on_c, 0, 57, 50
2, 102167, Note_on_c, 0, 60, 48
2, 102225, Note_on_c, 0, 41, 23
2, 102424, Control_c, 0, 64, 127
2, 102551, Note_on_c, 0, 53, 0
2, 102685, Note_on_c, 0, 29, 0
2, 102690, Note_on_c, 0, 57, 0
2, 102739, Note_on_c, 0, 60, 0
2, 102798, Note_on_c, 0, 41, 0
2, 103623, Note_on_c, 0, 74, 81
2, 103836, Note_on_c, 0, 74, 0
2, 104059, Note_on_c, 0, 72, 49
2, 104065, Note_on_c, 0, 63, 53
2, 104070, Note_on_c, 0, 54, 45
2, 104091, Note_on_c, 0, 66, 33
2, 104103, Control_c, 0, 64, 0
2, 104361, Control_c, 0, 64, 127
2, 104470, Note_on_c, 0, 72, 0
2, 104528, Note_on_c, 0, 63, 0
2, 104549, Note_on_c, 0, 66, 0
2, 104613, Note_on_c, 0, 54, 0
2, 105069, Note_on_c, 0, 63, 38
2, 105071, Note_on_c, 0, 54, 39
2, 105106, Note_on_c, 0, 60, 34
2, 105407, Note_on_c, 0, 54, 0
2, 105551, Note_on_c, 0, 60, 0
2, 105612, Note_on_c, 0, 69, 64
2, 105718, Note_on_c, 0, 63, 0
2, 105740, Note_on_c, 0, 69, 0
2, 106018, Control_c, 0, 64, 0
2, 106049, Note_on_c, 0, 67, 53
2, 106055, Note_on_c, 0, 52, 38
2, 106083, Note_on_c, 0, 43, 30
2, 106087, Note_on_c, 0, 60, 38
2, 106227, Control_c, 0, 64, 127
2, 106332, Note_on_c, 0, 52, 0
2, 106339, Note_on_c, 0, 67, 0
2, 106431, Note_on_c, 0, 60, 0
2, 106433, Note_on_c, 0, 43, 0
2, 107982, Control_c, 0, 64, 0
2, 107983, Note_on_c, 0, 45, 44
2, 107996, Note_on_c, 0, 53, 80
2, 108000, Note_on_c, 0, 60, 73
2, 108262, Note_on_c, 0, 53, 0
2, 108271, Note_on_c, 0, 60, 0
2, 108299, Note_on_c, 0, 50, 51
2, 108516, Note_on_c, 0, 45, 0
2, 108558, Note_on_c, 0, 50, 0
2, 108614, Note_on_c, 0, 51, 66
2, 108673, Control_c, 0, 64, 127
2, 108691, Note_on_c, 0, 43, 20
2, 108783, Note_on_c, 0, 43, 0
2, 108809, Control_c, 0, 64, 0
2, 108903, Note_on_c, 0, 51, 0
2, 108932, Control_c, 0, 64, 127
2, 108934, Note_on_c, 0, 52, 52
2, 109105, Control_c, 0, 64, 0
2, 109131, Note_on_c, 0, 52, 0
2, 109242, Note_on_c, 0, 55, 59
2, 109400, Note_on_c, 0, 55, 0
2, 109530, Note_on_c, 0, 40, 44
2, 109539, Note_on_c, 0, 56, 62
2, 109562, Control_c, 0, 64, 127
2, 109760, Control_c, 0, 64, 0
2, 109777, Note_on_c, 0, 40, 0
2, 109810, Note_on_c, 0, 56, 0
2, 109871, Note_on_c, 0, 57, 56
2, 109874, Note_on_c, 0, 41, 42
2, 109980, Note_on_c, 0, 57, 0
2, 110069, Control_c, 0, 64, 127
2, 110203, Note_on_c, 0, 29, 46
2, 110210, Note_on_c, 0, 41, 0
2, 110257, Note_on_c, 0, 29, 0
2, 110785, Control_c, 0, 64, 0
2, 110810, Note_on_c, 0, 72, 63
2, 110811, Note_on_c, 0, 84, 76
2, 110815, Note_on_c, 0, 62, 70
2, 110823, Note_on_c, 0, 77, 53
2, 110826, Note_on_c, 0, 53, 40
2, 110827, Note_on_c, 0, 60, 49
2, 110831, Note_on_c, 0, 81, 45
2, 110847, Note_on_c, 0, 57, 51
2, 110857, Note_on_c, 0, 62, 0
2, 110875, Note_on_c, 0, 60, 0
2, 110878, Note_on_c, 0, 77, 0
2, 110884, Note_on_c, 0, 81, 0
2, 110885, Note_on_c, 0, 72, 0
2, 110900, Note_on_c, 0, 57, 0
2, 110913, Note_on_c, 0, 84, 0
2, 110931, Note_on_c, 0, 53, 0
2, 111193, Control_c, 0, 64, 127
2, 111419, Note_on_c, 0, 84, 67
2, 111420, Note_on_c, 0, 72, 54
2, 111438, Note_on_c, 0, 81, 47
2, 111663, Control_c, 0, 64, 0
2, 111711, Note_on_c, 0, 39, 52
2, 111722, Note_on_c, 0, 54, 28
2, 111761, Control_c, 0, 64, 127
2, 111780, Note_on_c, 0, 84, 0
2, 111808, Note_on_c, 0, 81, 0
2, 111845, Note_on_c, 0, 72, 0
2, 111870, Note_on_c, 0, 39, 0
2, 112016, Note_on_c, 0, 54, 0
2, 112370, Note_on_c, 0, 83, 84
2, 112375, Note_on_c, 0, 75, 84
2, 112380, Note_on_c, 0, 71, 90
2, 112381, Note_on_c, 0, 78, 67
2, 112709, Note_on_c, 0, 54, 53
2, 112710, Note_on_c, 0, 63, 52
2, 112720, Note_on_c, 0, 83, 0
2, 112723, Note_on_c, 0, 60, 53
2, 112756, Note_on_c, 0, 71, 0
2, 112818, Note_on_c, 0, 75, 0
2, 112839, Note_on_c, 0, 78, 0
2, 112976, Note_on_c, 0, 81, 68
2, 112977, Note_on_c, 0, 75, 70
2, 112981, Note_on_c, 0, 78, 60
2, 112989, Note_on_c, 0, 69, 75
2, 113208, Note_on_c, 0, 81, 0
2, 113219, Note_on_c, 0, 60, 0
2, 113253, Note_on_c, 0, 63, 0
2, 113262, Note_on_c, 0, 75, 0
2, 113267, Note_on_c, 0, 78, 0
2, 113275, Note_on_c, 0, 69, 0
2, 113278, Note_on_c, 0, 54, 0
2, 113676, Control_c, 0, 64, 0
2, 113682, Note_on_c, 0, 79, 76
2, 113687, Note_on_c, 0, 76, 77
2, 113698, Note_on_c, 0, 72, 65
2, 113699, Note_on_c, 0, 67, 81
2, 113704, Note_on_c, 0, 60, 68
2, 113709, Note_on_c, 0, 64, 64
2, 113715, Note_on_c, 0, 55, 64
2, 113876, Control_c, 0, 64, 127
2, 114013, Note_on_c, 0, 79, 0
2, 114044, Note_on_c, 0, 64, 0
2, 114045, Note_on_c, 0, 76, 0
2, 114078, Note_on_c, 0, 67, 0
2, 114086, Note_on_c, 0, 72, 0
2, 114095, Note_on_c, 0, 60, 0
2, 114121, Note_on_c, 0, 55, 0
2, 114615, Note_on_c, 0, 76, 79
2, 114618, Control_c, 0, 64, 0
2, 114621, Note_on_c, 0, 71, 76
2, 114625, Note_on_c, 0, 68, 70
2, 114626, Note_on_c, 0, 65, 86
2, 114636, Note_on_c, 0, 56, 69
2, 114644, Note_on_c, 0, 62, 78
2, 114670, Note_on_c, 0, 74, 35
2, 114926, Control_c, 0, 64, 127
2, 115026, Note_on_c, 0, 76, 0
2, 115036, Note_on_c, 0, 74, 0
2, 115047, Note_on_c, 0, 62, 0
2, 115092, Note_on_c, 0, 71, 0
2, 115104, Note_on_c, 0, 65, 0
2, 115170, Note_on_c, 0, 68, 0
2, 115588, Note_on_c, 0, 56, 0
2, 115593, Control_c, 0, 64, 0
2, 115595, Note_on_c, 0, 57, 78
2, 115606, Note_on_c, 0, 72, 58
2, 115620, Note_on_c, 0, 67, 75
2, 115652, Note_on_c, 0, 64, 56
2, 115741, Control_c, 0, 64, 127
2, 115752, Note_on_c, 0, 72, 0
2, 115758, Note_on_c, 0, 67, 0
2, 115760, Note_on_c, 0, 64, 0
2, 115773, Note_on_c, 0, 57, 0
2, 116254, Note_on_c, 0, 55, 94
2, 116257, Note_on_c, 0, 56, 91
2, 116343, Note_on_c, 0, 57, 90
2, 116347, Note_on_c, 0, 56, 0
2, 116385, Note_on_c, 0, 55, 0
2, 116396, Control_c, 0, 64, 0
2, 116549, Note_on_c, 0, 57, 0
2, 116620, Note_on_c, 0, 60, 86
2, 116842, Note_on_c, 0, 60, 0
2, 116901, Note_on_c, 0, 62, 81
2, 117013, Control_c, 0, 64, 127
2, 117112, Control_c, 0, 64, 0
2, 117121, Note_on_c, 0, 62, 0
2, 117211, Note_on_c, 0, 60, 72
2, 117235, Control_c, 0, 64, 127
2, 117295, Note_on_c, 0, 60, 0
2, 117507, Control_c, 0, 64, 0
2, 117534, Note_on_c, 0, 65, 65
2, 117548, Note_on_c, 0, 53, 66
2, 117549, Note_on_c, 0, 60, 69
2, 117552, Note_on_c, 0, 38, 54
2, 117559, Note_on_c, 0, 26, 59
2, 117697, Note_on_c, 0, 65, 0
2, 117719, Note_on_c, 0, 60, 0
2, 117730, Note_on_c, 0, 53, 0
2, 117777, Note_on_c, 0, 26, 0
2, 117828, Note_on_c, 0, 38, 0
2, 118179, Note_on_c, 0, 40, 52
2, 118180, Note_on_c, 0, 64, 54
2, 118186, Note_on_c, 0, 52, 52
2, 118192, Note_on_c, 0, 28, 52
2, 118193, Note_on_c, 0, 55, 57
2, 118201, Note_on_c, 0, 60, 51
2, 118440, Note_on_c, 0, 28, 0
2, 118443, Note_on_c, 0, 64, 0
2, 118452, Note_on_c, 0, 60, 0
2, 118475, Note_on_c, 0, 55, 0
2, 118492, Note_on_c, 0, 40, 0
2, 118493, Note_on_c, 0, 52, 0
2, 119168, Note_on_c, 0, 60, 53
2, 119169, Note_on_c, 0, 53, 58
2, 119179, Note_on_c, 0, 48, 49
2, 119180, Note_on_c, 0, 57, 56
2, 119189, Note_on_c, 0, 41, 37
2, 119196, Note_on_c, 0, 29, 34
2, 119439, Note_on_c, 0, 48, 0
2, 119456, Note_on_c, 0, 53, 0
2, 119476, Note_on_c, 0, 57, 0
2, 119524, Note_on_c, 0, 29, 0
2, 119525, Note_on_c, 0, 60, 0
2, 119549, Note_on_c, 0, 41, 0
2, 120015, Control_c, 0, 64, 127
2, 120135, Note_on_c, 0, 62, 65
2, 120139, Control_c, 0, 64, 0
2, 120150, Note_on_c, 0, 53, 49
2, 120154, Note_on_c, 0, 43, 41
2, 120161, Note_on_c, 0, 31, 39
2, 120166, Note_on_c, 0, 57, 51
2, 120435, Control_c, 0, 64, 127
2, 120504, Note_on_c, 0, 43, 0
2, 120622, Note_on_c, 0, 31, 0
2, 120878, Note_on_c, 0, 57, 0
2, 120905, Note_on_c, 0, 62, 0
2, 121070, Note_on_c, 0, 53, 0
2, 121154, Note_on_c, 0, 43, 41
2, 121229, Note_on_c, 0, 43, 0
2, 121473, Note_on_c, 0, 53, 86
2, 121484, Control_c, 0, 64, 0
2, 121487, Note_on_c, 0, 36, 50
2, 121488, Note_on_c, 0, 60, 77
2, 121495, Note_on_c, 0, 45, 39
2, 121548, Note_on_c, 0, 45, 0
2, 122052, Control_c, 0, 64, 127
2, 122602, Note_on_c, 0, 53, 0
2, 122806, Note_on_c, 0, 52, 43
2, 122843, Control_c, 0, 64, 0
2, 122886, Note_on_c, 0, 36, 0
2, 122905, Control_c, 0, 64, 127
2, 123034, Note_on_c, 0, 52, 0
2, 123055, Note_on_c, 0, 50, 51
2, 123241, Note_on_c, 0, 60, 0
2, 123273, Note_on_c, 0, 50, 0
2, 123362, Control_c, 0, 64, 0
2, 123386, Note_on_c, 0, 52, 46
2, 123406, Note_on_c, 0, 36, 36
2, 123575, Note_on_c, 0, 52, 0
2, 123616, Note_on_c, 0, 36, 0
2, 123646, Control_c, 0, 64, 127
2, 123992, Control_c, 0, 64, 0
2, 124012, Note_on_c, 0, 76, 99
2, 124016, Note_on_c, 0, 53, 52
2, 124025, Note_on_c, 0, 31, 56
2, 124030, Note_on_c, 0, 62, 33
2, 124033, Note_on_c, 0, 57, 42
2, 124034, Note_on_c, 0, 77, 93
2, 124037, Note_on_c, 0, 43, 35
2, 124067, Note_on_c, 0, 60, 45
2, 124115, Note_on_c, 0, 76, 0
2, 124344, Note_on_c, 0, 76, 80
2, 124376, Note_on_c, 0, 77, 0
2, 124562, Note_on_c, 0, 76, 0
2, 124598, Note_on_c, 0, 72, 61
2, 124630, Note_on_c, 0, 57, 0
2, 124631, Note_on_c, 0, 53, 0
2, 124648, Note_on_c, 0, 60, 0
2, 124710, Note_on_c, 0, 62, 0
2, 124779, Note_on_c, 0, 72, 0
2, 124812, Note_on_c, 0, 43, 0
2, 124814, Note_on_c, 0, 31, 0
2, 124839, Note_on_c, 0, 67, 59
2, 124954, Note_on_c, 0, 67, 0
2, 125076, Note_on_c, 0, 65, 56
2, 125251, Note_on_c, 0, 65, 0
2, 125313, Note_on_c, 0, 48, 43
2, 125323, Note_on_c, 0, 64, 47
2, 125360, Note_on_c, 0, 55, 20
2, 126295, Note_on_c, 0, 48, 0
2, 126339, Note_on_c, 0, 55, 0
2, 126686, Note_on_c, 0, 64, 0
2, 127195, Note_on_c, 0, 59, 40
2, 127198, Note_on_c, 0, 62, 40
2, 127212, Note_on_c, 0, 56, 28
2, 127389, Note_on_c, 0, 67, 60
2, 127508, Note_on_c, 0, 67, 0
2, 127530, Note_on_c, 0, 68, 51
2, 127632, Note_on_c, 0, 68, 0
2, 127663, Note_on_c, 0, 70, 30
2, 127705, Note_on_c, 0, 70, 0
2, 127715, Note_on_c, 0, 71, 69
2, 127825, Note_on_c, 0, 71, 0
2, 127854, Note_on_c, 0, 73, 47
2, 127905, Note_on_c, 0, 73, 0
2, 127987, Note_on_c, 0, 74, 29
2, 127990, Note_on_c, 0, 72, 31
2, 128044, Note_on_c, 0, 72, 0
2, 128059, Note_on_c, 0, 74, 0
2, 128303, Note_on_c, 0, 76, 92
2, 128368, Note_on_c, 0, 59, 0
2, 128415, Note_on_c, 0, 76, 0
2, 128436, Note_on_c, 0, 56, 0
2, 128538, Note_on_c, 0, 77, 85
2, 128554, Note_on_c, 0, 62, 0
2, 128675, Note_on_c, 0, 77, 0
2, 128777, Note_on_c, 0, 80, 79
2, 128887, Note_on_c, 0, 80, 0
2, 128977, Note_on_c, 0, 83, 83
2, 129031, Note_on_c, 0, 64, 39
2, 129033, Note_on_c, 0, 60, 44
2, 129035, Note_on_c, 0, 57, 54
2, 129133, Note_on_c, 0, 83, 0
2, 129223, Note_on_c, 0, 86, 92
2, 129373, Note_on_c, 0, 86, 0
2, 129461, Note_on_c, 0, 83, 60
2, 129554, Note_on_c, 0, 83, 0
2, 129678, Note_on_c, 0, 84, 82
2, 129801, Note_on_c, 0, 84, 0
2, 129917, Note_on_c, 0, 81, 65
2, 130046, Note_on_c, 0, 81, 0
2, 130183, Note_on_c, 0, 76, 38
2, 130275, Note_on_c, 0, 76, 0
2, 130382, Note_on_c, 0, 75, 69
2, 130390, Note_on_c, 0, 81, 45
2, 130456, Note_on_c, 0, 64, 0
2, 130471, Note_on_c, 0, 60, 0
2, 130538, Note_on_c, 0, 57, 0
2, 130565, Note_on_c, 0, 75, 0
2, 130640, Note_on_c, 0, 74, 35
2, 130805, Note_on_c, 0, 81, 0
2, 130821, Note_on_c, 0, 74, 0
2, 130848, Note_on_c, 0, 72, 41
2, 130932, Note_on_c, 0, 72, 0
2, 131040, Note_on_c, 0, 52, 42
2, 131044, Note_on_c, 0, 62, 35
2, 131045, Note_on_c, 0, 74, 74
2, 131051, Note_on_c, 0, 58, 39
2, 131056, Note_on_c, 0, 81, 61
2, 131210, Note_on_c, 0, 74, 0
2, 131274, Note_on_c, 0, 75, 41
2, 131300, Note_on_c, 0, 81, 0
2, 131340, Note_on_c, 0, 74, 52
2, 131426, Note_on_c, 0, 75, 0
2, 131507, Note_on_c, 0, 74, 0
2, 131524, Note_on_c, 0, 72, 27
2, 131635, Note_on_c, 0, 62, 0
2, 131690, Note_on_c, 0, 72, 0
2, 131778, Note_on_c, 0, 70, 61
2, 131805, Note_on_c, 0, 58, 0
2, 131895, Note_on_c, 0, 58, 16
2, 131903, Note_on_c, 0, 62, 42
2, 131936, Note_on_c, 0, 70, 0
2, 131984, Note_on_c, 0, 67, 38
2, 132155, Note_on_c, 0, 67, 0
2, 132239, Note_on_c, 0, 68, 58
2, 132367, Note_on_c, 0, 68, 0
2, 132407, Note_on_c, 0, 52, 0
2, 132447, Note_on_c, 0, 69, 94
2, 132473, Note_on_c, 0, 58, 0
2, 132601, Note_on_c, 0, 69, 0
2, 132633, Note_on_c, 0, 62, 0
2, 132695, Note_on_c, 0, 72, 80
2, 132865, Note_on_c, 0, 72, 0
2, 132866, Note_on_c, 0, 62, 43
2, 132899, Note_on_c, 0, 57, 49
2, 132904, Note_on_c, 0, 60, 39
2, 132917, Note_on_c, 0, 53, 27
2, 132952, Note_on_c, 0, 69, 69
2, 133083, Note_on_c, 0, 62, 0
2, 133145, Note_on_c, 0, 60, 0
2, 133238, Note_on_c, 0, 69, 0
2, 133270, Note_on_c, 0, 57, 0
2, 133440, Note_on_c, 0, 65, 62
2, 133656, Note_on_c, 0, 53, 0
2, 133688, Note_on_c, 0, 65, 0
2, 133797, Note_on_c, 0, 60, 49
2, 133940, Note_on_c, 0, 60, 0
2, 134437, Note_on_c, 0, 83, 75
2, 134438, Note_on_c, 0, 71, 84
2, 134439, Note_on_c, 0, 75, 74
2, 134468, Note_on_c, 0, 81, 43
2, 134672, Note_on_c, 0, 83, 0
2, 134679, Note_on_c, 0, 81, 0
2, 134722, Note_on_c, 0, 75, 0
2, 134740, Note_on_c, 0, 71, 0
2, 134800, Note_on_c, 0, 54, 40
2, 134804, Note_on_c, 0, 63, 30
2, 134810, Note_on_c, 0, 81, 49
2, 134819, Note_on_c, 0, 75, 38
2, 134849, Note_on_c, 0, 60, 31
2, 134855, Note_on_c, 0, 69, 50
2, 134858, Note_on_c, 0, 78, 30
2, 135497, Note_on_c, 0, 54, 0
2, 135533, Note_on_c, 0, 63, 0
2, 135564, Note_on_c, 0, 60, 0
2, 135703, Note_on_c, 0, 54, 42
2, 135712, Note_on_c, 0, 63, 31
2, 135726, Note_on_c, 0, 60, 35
2, 136210, Note_on_c, 0, 81, 0
2, 136225, Note_on_c, 0, 54, 0
2, 136242, Note_on_c, 0, 78, 0
2, 136266, Note_on_c, 0, 75, 0
2, 136270, Note_on_c, 0, 69, 0
2, 136344, Note_on_c, 0, 54, 35
2, 136456, Note_on_c, 0, 60, 0
2, 136538, Note_on_c, 0, 54, 0
2, 136556, Note_on_c, 0, 63, 0
2, 136672, Note_on_c, 0, 67, 53
2, 136678, Note_on_c, 0, 64, 45
2, 136688, Note_on_c, 0, 76, 51
2, 136709, Note_on_c, 0, 60, 34
2, 136710, Note_on_c, 0, 55, 38
2, 136796, Note_on_c, 0, 67, 0
2, 136918, Note_on_c, 0, 76, 0
2, 137353, Note_on_c, 0, 86, 100
2, 137559, Note_on_c, 0, 86, 0
2, 137699, Note_on_c, 0, 86, 63
2, 137704, Note_on_c, 0, 60, 0
2, 137709, Note_on_c, 0, 64, 0
2, 137722, Note_on_c, 0, 87, 75
2, 137784, Note_on_c, 0, 86, 0
2, 137790, Note_on_c, 0, 55, 0
2, 137795, Note_on_c, 0, 87, 0
2, 137801, Note_on_c, 0, 88, 66
2, 137959, Note_on_c, 0, 88, 0
2, 138030, Note_on_c, 0, 91, 83
2, 138199, Note_on_c, 0, 91, 0
2, 138317, Note_on_c, 0, 93, 94
2, 138474, Note_on_c, 0, 93, 0
2, 138626, Note_on_c, 0, 63, 76
2, 138634, Note_on_c, 0, 58, 70
2, 138642, Note_on_c, 0, 96, 88
2, 138645, Note_on_c, 0, 52, 65
2, 138647, Note_on_c, 0, 84, 85
2, 138962, Note_on_c, 0, 96, 0
2, 138966, Note_on_c, 0, 58, 0
2, 138974, Note_on_c, 0, 84, 0
2, 139022, Note_on_c, 0, 52, 0
2, 139052, Note_on_c, 0, 63, 0
2, 139261, Note_on_c, 0, 87, 93
2, 139264, Note_on_c, 0, 99, 90
2, 139269, Note_on_c, 0, 58, 82
2, 139271, Note_on_c, 0, 63, 88
2, 139275, Note_on_c, 0, 52, 88
2, 139323, Note_on_c, 0, 100, 35
2, 140064, Note_on_c, 0, 100, 0
2, 140118, Note_on_c, 0, 99, 0
2, 140147, Note_on_c, 0, 52, 0
2, 140182, Note_on_c, 0, 58, 0
2, 140193, Note_on_c, 0, 63, 0
2, 140248, Note_on_c, 0, 87, 0
2, 140581, Note_on_c, 0, 62, 39
2, 140599, Note_on_c, 0, 96, 49
2, 140608, Note_on_c, 0, 53, 24
2, 140609, Note_on_c, 0, 60, 32
2, 140611, Note_on_c, 0, 57, 40
2, 140636, Note_on_c, 0, 84, 29
2, 140728, Note_on_c, 0, 96, 0
2, 140809, Note_on_c, 0, 84, 0
2, 141512, Note_on_c, 0, 69, 95
2, 141722, Note_on_c, 0, 70, 60
2, 141730, Note_on_c, 0, 62, 0
2, 141745, Note_on_c, 0, 57, 0
2, 141784, Note_on_c, 0, 60, 0
2, 141790, Note_on_c, 0, 53, 0
2, 141792, Note_on_c, 0, 69, 0
2, 141835, Note_on_c, 0, 71, 85
2, 141873, Note_on_c, 0, 70, 0
2, 141960, Note_on_c, 0, 71, 0
2, 141973, Note_on_c, 0, 72, 74
2, 142143, Note_on_c, 0, 72, 0
2, 142284, Note_on_c, 0, 66, 76
2, 142484, Note_on_c, 0, 54, 37
2, 142486, Note_on_c, 0, 63, 40
2, 142497, Note_on_c, 0, 60, 38
2, 142499, Note_on_c, 0, 67, 69
2, 142674, Note_on_c, 0, 68, 59
2, 142678, Note_on_c, 0, 67, 0
2, 142681, Note_on_c, 0, 66, 0
2, 142732, Note_on_c, 0, 63, 0
2, 142746, Note_on_c, 0, 68, 0
2, 142751, Note_on_c, 0, 69, 74
2, 142827, Note_on_c, 0, 60, 0
2, 142885, Note_on_c, 0, 69, 0
2, 143041, Note_on_c, 0, 63, 63
2, 143252, Note_on_c, 0, 64, 59
2, 143392, Note_on_c, 0, 64, 0
2, 143426, Note_on_c, 0, 66, 65
2, 143427, Note_on_c, 0, 63, 0
2, 143600, Note_on_c, 0, 66, 0
2, 143645, Note_on_c, 0, 54, 0
2, 143688, Note_on_c, 0, 60, 58
2, 143831, Note_on_c, 0, 61, 40
2, 143877, Note_on_c, 0, 60, 0
2, 144030, Note_on_c, 0, 61, 0
2, 144055, Note_on_c, 0, 62, 50
2, 144108, Note_on_c, 0, 62, 0
2, 144118, Note_on_c, 0, 63, 62
2, 144307, Note_on_c, 0, 63, 0
2, 144411, Note_on_c, 0, 60, 79
2, 144765, Note_on_c, 0, 55, 66
2, 144780, Note_on_c, 0, 60, 0
2, 144845, Note_on_c, 0, 43, 41
2, 144923, Note_on_c, 0, 43, 0
2, 144934, Note_on_c, 0, 55, 0
2, 145084, Note_on_c, 0, 59, 70
2, 145316, Note_on_c, 0, 59, 0
2, 145398, Note_on_c, 0, 53, 56
2, 145404, Note_on_c, 0, 44, 48
2, 145528, Note_on_c, 0, 65, 20
2, 145938, Note_on_c, 0, 65, 0
2, 145982, Note_on_c, 0, 62, 75
2, 146062, Note_on_c, 0, 53, 0
2, 146063, Note_on_c, 0, 44, 0
2, 146262, Note_on_c, 0, 62, 0
2, 146301, Note_on_c, 0, 55, 48
2, 146304, Note_on_c, 0, 45, 45
2, 146338, Note_on_c, 0, 64, 56
2, 146494, Note_on_c, 0, 55, 0
2, 146637, Note_on_c, 0, 55, 54
2, 146656, Note_on_c, 0, 64, 0
2, 146821, Note_on_c, 0, 55, 0
2, 147335, Note_on_c, 0, 55, 44
2, 147420, Note_on_c, 0, 45, 0
2, 147452, Note_on_c, 0, 55, 0
2, 148292, Note_on_c, 0, 50, 43
2, 148299, Note_on_c, 0, 60, 49
2, 148576, Note_on_c, 0, 66, 73
2, 148581, Note_on_c, 0, 74, 77
2, 148588, Note_on_c, 0, 69, 77
2, 148765, Note_on_c, 0, 74, 0
2, 148782, Note_on_c, 0, 69, 0
2, 148797, Note_on_c, 0, 66, 0
2, 148861, Note_on_c, 0, 71, 89
2, 148862, Note_on_c, 0, 74, 71
2, 148865, Note_on_c, 0, 67, 93
2, 149031, Note_on_c, 0, 74, 0
2, 149042, Note_on_c, 0, 67, 0
2, 149085, Note_on_c, 0, 71, 0
2, 149102, Note_on_c, 0, 60, 0
2, 149190, Note_on_c, 0, 74, 108
2, 149193, Note_on_c, 0, 72, 89
2, 149195, Note_on_c, 0, 69, 118
2, 149230, Note_on_c, 0, 60, 57
2, 149414, Note_on_c, 0, 60, 0
2, 149444, Note_on_c, 0, 69, 0
2, 149472, Note_on_c, 0, 71, 78
2, 149508, Note_on_c, 0, 67, 68
2, 149609, Note_on_c, 0, 72, 0
2, 149625, Note_on_c, 0, 67, 0
2, 149678, Note_on_c, 0, 74, 0
2, 149684, Note_on_c, 0, 71, 0
2, 149798, Note_on_c, 0, 74, 55
2, 149801, Note_on_c, 0, 69, 67
2, 149817, Note_on_c, 0, 66, 50
2, 149821, Note_on_c, 0, 60, 42
2, 149970, Note_on_c, 0, 69, 0
2, 149986, Note_on_c, 0, 74, 0
2, 149992, Note_on_c, 0, 66, 0
2, 150041, Note_on_c, 0, 60, 0
2, 150045, Note_on_c, 0, 50, 0
2, 150146, Note_on_c, 0, 62, 49
2, 150156, Note_on_c, 0, 50, 43
2, 150160, Note_on_c, 0, 66, 28
2, 150483, Note_on_c, 0, 62, 0
2, 150487, Note_on_c, 0, 66, 0
2, 150554, Note_on_c, 0, 50, 0
2, 150776, Note_on_c, 0, 50, 54
2, 151024, Note_on_c, 0, 50, 0
2, 151110, Note_on_c, 0, 60, 69
2, 151123, Note_on_c, 0, 67, 68
2, 151269, Note_on_c, 0, 67, 0
2, 151334, Note_on_c, 0, 60, 0
2, 151439, Note_on_c, 0, 53, 38
2, 151444, Note_on_c, 0, 55, 38
2, 151506, Note_on_c, 0, 55, 0
2, 151508, Note_on_c, 0, 53, 0
2, 151701, Note_on_c, 0, 58, 65
2, 151727, Note_on_c, 0, 53, 55
2, 151920, Note_on_c, 0, 53, 0
2, 152027, Note_on_c, 0, 58, 0
2, 152032, Note_on_c, 0, 59, 64
2, 152046, Note_on_c, 0, 43, 41
2, 152080, Note_on_c, 0, 53, 22
2, 152217, Note_on_c, 0, 53, 0
2, 152251, Note_on_c, 0, 59, 0
2, 152687, Note_on_c, 0, 53, 50
2, 152820, Note_on_c, 0, 53, 0
2, 153014, Note_on_c, 0, 43, 0
2, 153649, Note_on_c, 0, 43, 53
2, 153752, Note_on_c, 0, 43, 0
2, 153924, Note_on_c, 0, 74, 49
2, 154011, Note_on_c, 0, 75, 47
2, 154064, Note_on_c, 0, 74, 0
2, 154065, Note_on_c, 0, 75, 0
2, 154074, Note_on_c, 0, 76, 62
2, 154215, Note_on_c, 0, 76, 0
2, 154339, Note_on_c, 0, 79, 81
2, 154484, Note_on_c, 0, 79, 0
2, 154636, Note_on_c, 0, 81, 89
2, 154768, Note_on_c, 0, 81, 0
2, 154956, Note_on_c, 0, 84, 85
2, 154962, Note_on_c, 0, 72, 71
2, 155103, Note_on_c, 0, 72, 0
2, 155154, Note_on_c, 0, 84, 0
2, 155593, Note_on_c, 0, 87, 84
2, 155594, Note_on_c, 0, 75, 88
2, 155611, Note_on_c, 0, 69, 67
2, 155613, Note_on_c, 0, 64, 63
2, 155623, Note_on_c, 0, 58, 55
2, 155845, Note_on_c, 0, 87, 0
2, 155850, Note_on_c, 0, 69, 0
2, 155869, Note_on_c, 0, 58, 0
2, 155891, Note_on_c, 0, 75, 0
2, 155911, Note_on_c, 0, 64, 0
2, 155999, Note_on_c, 0, 84, 59
2, 156004, Note_on_c, 0, 69, 47
2, 156013, Note_on_c, 0, 64, 33
2, 156023, Note_on_c, 0, 79, 42
2, 156037, Note_on_c, 0, 72, 27
2, 156043, Note_on_c, 0, 58, 25
2, 156090, Note_on_c, 0, 79, 0
2, 156099, Note_on_c, 0, 69, 0
2, 156103, Note_on_c, 0, 84, 0
2, 156104, Note_on_c, 0, 72, 0
2, 156128, Note_on_c, 0, 64, 0
2, 156132, Note_on_c, 0, 58, 0
2, 156984, Note_on_c, 0, 64, 35
2, 156995, Note_on_c, 0, 84, 56
2, 156997, Note_on_c, 0, 55, 35
2, 156999, Note_on_c, 0, 72, 37
2, 157001, Note_on_c, 0, 79, 47
2, 157011, Note_on_c, 0, 60, 42
2, 157325, Note_on_c, 0, 60, 0
2, 157359, Note_on_c, 0, 84, 0
2, 157361, Note_on_c, 0, 55, 0
2, 157373, Note_on_c, 0, 79, 0
2, 157427, Note_on_c, 0, 64, 0
2, 157512, Note_on_c, 0, 72, 0
2, 157914, Note_on_c, 0, 83, 48
2, 157918, Note_on_c, 0, 62, 45
2, 157920, Note_on_c, 0, 71, 41
2, 157925, Note_on_c, 0, 80, 30
2, 157925, Note_on_c, 0, 65, 40
2, 157936, Note_on_c, 0, 76, 56
2, 157941, Note_on_c, 0, 56, 39
2, 158256, Note_on_c, 0, 71, 0
2, 158293, Note_on_c, 0, 76, 0
2, 158361, Note_on_c, 0, 80, 0
2, 158425, Note_on_c, 0, 83, 0
2, 159018, Note_on_c, 0, 98, 99
2, 159055, Note_on_c, 0, 96, 37
2, 159095, Note_on_c, 0, 96, 0
2, 159200, Note_on_c, 0, 65, 0
2, 159268, Note_on_c, 0, 97, 74
2, 159332, Note_on_c, 0, 62, 0
2, 159341, Note_on_c, 0, 98, 0
2, 159376, Note_on_c, 0, 96, 45
2, 159380, Note_on_c, 0, 56, 0
2, 159427, Note_on_c, 0, 97, 0
2, 159516, Note_on_c, 0, 95, 65
2, 159555, Note_on_c, 0, 96, 0
2, 159613, Note_on_c, 0, 95, 0
2, 159746, Note_on_c, 0, 92, 76
2, 159929, Note_on_c, 0, 92, 0
2, 159938, Note_on_c, 0, 64, 45
2, 159948, Note_on_c, 0, 60, 50
2, 159953, Note_on_c, 0, 57, 50
2, 160019, Note_on_c, 0, 95, 76
2, 160236, Note_on_c, 0, 95, 0
2, 160283, Note_on_c, 0, 92, 51
2, 160391, Note_on_c, 0, 92, 0
2, 160494, Note_on_c, 0, 93, 79
2, 160639, Note_on_c, 0, 64, 0
2, 160708, Note_on_c, 0, 93, 0
2, 160750, Note_on_c, 0, 88, 62
2, 160753, Note_on_c, 0, 60, 0
2, 160904, Note_on_c, 0, 88, 0
2, 160943, Note_on_c, 0, 60, 25
2, 160946, Note_on_c, 0, 64, 40
2, 160990, Note_on_c, 0, 86, 61
2, 161191, Note_on_c, 0, 60, 0
2, 161228, Note_on_c, 0, 64, 0
2, 161236, Note_on_c, 0, 86, 0
2, 161266, Note_on_c, 0, 84, 56
2, 161371, Note_on_c, 0, 57, 0
2, 161394, Note_on_c, 0, 84, 0
2, 161557, Note_on_c, 0, 82, 23
2, 161716, Note_on_c, 0, 82, 0
2, 161739, Note_on_c, 0, 88, 84
2, 161882, Note_on_c, 0, 58, 38
2, 161904, Note_on_c, 0, 52, 33
2, 162014, Note_on_c, 0, 82, 42
2, 162026, Note_on_c, 0, 88, 0
2, 162183, Note_on_c, 0, 82, 0
2, 162257, Note_on_c, 0, 76, 46
2, 162326, Note_on_c, 0, 76, 0
2, 162413, Note_on_c, 0, 75, 57
2, 162498, Note_on_c, 0, 75, 0
2, 162513, Note_on_c, 0, 74, 49
2, 162581, Note_on_c, 0, 58, 0
2, 162666, Note_on_c, 0, 74, 0
2, 162696, Note_on_c, 0, 73, 42
2, 162751, Note_on_c, 0, 63, 26
2, 162787, Note_on_c, 0, 58, 34
2, 162803, Note_on_c, 0, 73, 0
2, 162822, Note_on_c, 0, 72, 49
2, 162882, Note_on_c, 0, 72, 0
2, 162908, Note_on_c, 0, 63, 0
2, 162974, Note_on_c, 0, 70, 44
2, 163006, Note_on_c, 0, 52, 0
2, 163115, Note_on_c, 0, 58, 0
2, 163144, Note_on_c, 0, 70, 0
2, 163327, Note_on_c, 0, 64, 41
2, 163432, Note_on_c, 0, 64, 0
2, 163513, Note_on_c, 0, 63, 19
2, 163556, Note_on_c, 0, 63, 0
2, 163588, Note_on_c, 0, 62, 66
2, 163694, Note_on_c, 0, 62, 0
2, 163718, Note_on_c, 0, 61, 59
2, 163840, Note_on_c, 0, 61, 0
2, 163958, Note_on_c, 0, 59, 37
2, 164071, Note_on_c, 0, 59, 0
2, 164103, Note_on_c, 0, 58, 44
2, 164150, Note_on_c, 0, 58, 0
2, 164192, Note_on_c, 0, 57, 47
2, 164341, Note_on_c, 0, 57, 0
2, 164387, Note_on_c, 0, 50, 33
2, 164409, Note_on_c, 0, 41, 44
2, 164768, Note_on_c, 0, 57, 79
2, 164903, Note_on_c, 0, 57, 0
2, 164906, Note_on_c, 0, 58, 64
2, 165014, Note_on_c, 0, 57, 59
2, 165061, Note_on_c, 0, 58, 0
2, 165122, Note_on_c, 0, 56, 52
2, 165124, Note_on_c, 0, 57, 0
2, 165221, Note_on_c, 0, 41, 0
2, 165264, Note_on_c, 0, 56, 0
2, 165290, Note_on_c, 0, 50, 0
2, 165299, Note_on_c, 0, 57, 63
2, 165467, Note_on_c, 0, 57, 0
2, 165510, Note_on_c, 0, 58, 80
2, 165660, Note_on_c, 0, 58, 0
2, 165701, Note_on_c, 0, 59, 80
2, 165711, Note_on_c, 0, 51, 40
2, 165726, Note_on_c, 0, 42, 42
2, 165871, Note_on_c, 0, 59, 0
2, 165950, Note_on_c, 0, 60, 82
2, 166099, Note_on_c, 0, 60, 0
2, 166171, Note_on_c, 0, 57, 62
2, 166266, Note_on_c, 0, 51, 0
2, 166378, Note_on_c, 0, 57, 0
2, 166394, Note_on_c, 0, 54, 60
2, 166544, Note_on_c, 0, 54, 0
2, 166630, Note_on_c, 0, 51, 40
2, 166645, Note_on_c, 0, 54, 52
2, 166854, Note_on_c, 0, 42, 0
2, 166879, Note_on_c, 0, 54, 0
2, 167124, Note_on_c, 0, 42, 40
2, 167355, Note_on_c, 0, 42, 0
2, 167376, Note_on_c, 0, 51, 0
2, 167483, Note_on_c, 0, 55, 53
2, 167485, Note_on_c, 0, 64, 55
2, 167491, Note_on_c, 0, 43, 33
2, 167508, Note_on_c, 0, 52, 27
2, 167510, Note_on_c, 0, 60, 39
2, 167743, Note_on_c, 0, 55, 0
2, 167818, Note_on_c, 0, 60, 0
2, 167836, Note_on_c, 0, 64, 0
2, 168053, Note_on_c, 0, 65, 92
2, 168055, Note_on_c, 0, 72, 80
2, 168162, Note_on_c, 0, 52, 0
2, 168331, Note_on_c, 0, 72, 0
2, 168338, Note_on_c, 0, 65, 0
2, 168350, Note_on_c, 0, 43, 0
2, 168404, Note_on_c, 0, 62, 41
2, 168955, Note_on_c, 0, 62, 0
2, 169018, Note_on_c, 0, 63, 62
2, 169202, Note_on_c, 0, 63, 0
2, 169372, Note_on_c, 0, 64, 33
2, 169523, Note_on_c, 0, 64, 0
2, 169638, Note_on_c, 0, 67, 56
2, 169767, Note_on_c, 0, 67, 0
2, 169968, Note_on_c, 0, 69, 85
2, 170061, Note_on_c, 0, 69, 0
2, 170284, Note_on_c, 0, 75, 68
2, 170303, Note_on_c, 0, 64, 62
2, 170304, Note_on_c, 0, 63, 74
2, 170308, Note_on_c, 0, 68, 47
2, 170326, Note_on_c, 0, 72, 35
2, 170447, Note_on_c, 0, 63, 0
2, 170448, Note_on_c, 0, 64, 0
2, 170451, Note_on_c, 0, 68, 0
2, 170478, Note_on_c, 0, 75, 0
2, 170481, Note_on_c, 0, 72, 0
2, 170642, Note_on_c, 0, 58, 30
2, 170777, Note_on_c, 0, 58, 0
2, 170929, Note_on_c, 0, 75, 61
2, 170949, Note_on_c, 0, 68, 60
2, 170951, Note_on_c, 0, 64, 69
2, 170965, Note_on_c, 0, 58, 64
2, 171072, Note_on_c, 0, 75, 0
2, 171099, Note_on_c, 0, 58, 0
2, 171149, Note_on_c, 0, 64, 0
2, 171162, Note_on_c, 0, 68, 0
2, 171273, Control_c, 0, 64, 127
2, 171273, Control_c, 0, 64, 0
2, 171303, Note_on_c, 0, 72, 34
2, 171316, Note_on_c, 0, 67, 63
2, 171319, Note_on_c, 0, 62, 54
2, 171334, Note_on_c, 0, 57, 51
2, 171721, Note_on_c, 0, 62, 0
2, 171819, Note_on_c, 0, 67, 0
2, 171866, Note_on_c, 0, 72, 0
2, 171981, Note_on_c, 0, 53, 51
2, 171988, Note_on_c, 0, 57, 0
2, 172045, Note_on_c, 0, 53, 0
2, 172306, Note_on_c, 0, 86, 88
2, 172309, Note_on_c, 0, 74, 86
2, 172320, Note_on_c, 0, 78, 55
2, 172321, Note_on_c, 0, 81, 62
2, 172475, Note_on_c, 0, 74, 0
2, 172485, Note_on_c, 0, 86, 0
2, 172512, Note_on_c, 0, 78, 0
2, 172551, Note_on_c, 0, 81, 0
2, 172592, Note_on_c, 0, 72, 48
2, 172604, Note_on_c, 0, 84, 52
2, 172692, Note_on_c, 0, 84, 0
2, 172700, Note_on_c, 0, 72, 0
2, 172822, Note_on_c, 0, 74, 67
2, 172829, Note_on_c, 0, 86, 77
2, 172836, Note_on_c, 0, 78, 40
2, 172848, Note_on_c, 0, 81, 37
2, 172947, Note_on_c, 0, 86, 0
2, 172948, Note_on_c, 0, 74, 0
2, 172994, Note_on_c, 0, 78, 0
2, 173047, Note_on_c, 0, 81, 0
2, 173091, Note_on_c, 0, 72, 36
2, 173102, Note_on_c, 0, 84, 37
2, 173154, Note_on_c, 0, 84, 0
2, 173167, Note_on_c, 0, 72, 0
2, 173251, Note_on_c, 0, 63, 42
2, 173268, Note_on_c, 0, 54, 47
2, 173288, Note_on_c, 0, 60, 43
2, 173309, Note_on_c, 0, 78, 33
2, 173324, Note_on_c, 0, 86, 67
2, 173329, Note_on_c, 0, 81, 19
2, 173345, Note_on_c, 0, 74, 29
2, 173447, Note_on_c, 0, 86, 0
2, 173493, Note_on_c, 0, 74, 0
2, 173514, Note_on_c, 0, 78, 0
2, 173571, Note_on_c, 0, 84, 55
2, 173606, Note_on_c, 0, 72, 39
2, 173611, Note_on_c, 0, 78, 41
2, 173686, Note_on_c, 0, 84, 0
2, 173687, Note_on_c, 0, 81, 0
2, 173709, Note_on_c, 0, 78, 0
2, 173717, Note_on_c, 0, 72, 0
2, 173867, Note_on_c, 0, 63, 0
2, 173896, Note_on_c, 0, 81, 72
2, 173898, Note_on_c, 0, 60, 0
2, 173910, Note_on_c, 0, 69, 68
2, 173962, Note_on_c, 0, 74, 35
2, 174014, Note_on_c, 0, 74, 0
2, 174127, Note_on_c, 0, 69, 0
2, 174166, Note_on_c, 0, 81, 0
2, 174194, Note_on_c, 0, 63, 35
2, 174224, Note_on_c, 0, 60, 43
2, 174477, Note_on_c, 0, 54, 0
2, 174811, Note_on_c, 0, 54, 44
2, 174993, Note_on_c, 0, 60, 0
2, 175058, Note_on_c, 0, 54, 0
2, 175066, Note_on_c, 0, 63, 0
2, 175184, Note_on_c, 0, 55, 49
2, 175201, Note_on_c, 0, 64, 25
2, 175206, Note_on_c, 0, 60, 33
2, 175620, Note_on_c, 0, 64, 0
2, 175651, Note_on_c, 0, 55, 0
2, 175668, Note_on_c, 0, 60, 0
2, 175791, Note_on_c, 0, 55, 69
2, 175803, Note_on_c, 0, 64, 73
2, 175810, Note_on_c, 0, 91, 96
2, 175814, Note_on_c, 0, 79, 99
2, 175820, Note_on_c, 0, 60, 63
2, 175862, Note_on_c, 0, 90, 33
2, 175903, Note_on_c, 0, 90, 0
2, 175928, Note_on_c, 0, 55, 0
2, 175944, Note_on_c, 0, 60, 0
2, 175984, Note_on_c, 0, 64, 0
2, 175988, Note_on_c, 0, 91, 0
2, 176038, Note_on_c, 0, 79, 0
2, 176142, Note_on_c, 0, 65, 79
2, 176150, Note_on_c, 0, 56, 72
2, 176151, Note_on_c, 0, 89, 84
2, 176162, Note_on_c, 0, 62, 70
2, 176168, Note_on_c, 0, 77, 78
2, 176546, Note_on_c, 0, 89, 0
2, 176608, Note_on_c, 0, 65, 0
2, 176624, Note_on_c, 0, 56, 0
2, 176633, Note_on_c, 0, 62, 0
2, 176639, Note_on_c, 0, 77, 0
2, 176866, Note_on_c, 0, 56, 30
2, 176979, Note_on_c, 0, 56, 0
2, 177125, Note_on_c, 0, 64, 67
2, 177127, Note_on_c, 0, 55, 67
2, 177132, Note_on_c, 0, 88, 84
2, 177141, Note_on_c, 0, 76, 77
2, 177166, Note_on_c, 0, 60, 50
2, 177334, Note_on_c, 0, 88, 0
2, 177432, Note_on_c, 0, 76, 0
2, 177541, Note_on_c, 0, 60, 0
2, 177626, Note_on_c, 0, 64, 0
2, 177737, Note_on_c, 0, 72, 62
2, 177742, Note_on_c, 0, 84, 78
2, 178030, Note_on_c, 0, 64, 44
2, 178047, Note_on_c, 0, 60, 46
2, 178092, Note_on_c, 0, 64, 0
2, 178110, Note_on_c, 0, 60, 0
2, 178132, Note_on_c, 0, 72, 0
2, 178156, Note_on_c, 0, 55, 0
2, 178178, Note_on_c, 0, 84, 0
2, 178382, Note_on_c, 0, 69, 68
2, 178478, Note_on_c, 0, 69, 0
2, 178618, Note_on_c, 0, 51, 56
2, 178636, Note_on_c, 0, 61, 38
2, 178641, Note_on_c, 0, 72, 67
2, 178735, Note_on_c, 0, 72, 0
2, 178766, Note_on_c, 0, 61, 0
2, 178860, Note_on_c, 0, 51, 0
2, 178976, Note_on_c, 0, 76, 110
2, 179244, Note_on_c, 0, 76, 0
2, 179291, Note_on_c, 0, 77, 86
2, 179515, Note_on_c, 0, 77, 0
2, 179593, Note_on_c, 0, 76, 88
2, 179621, Note_on_c, 0, 57, 51
2, 179622, Note_on_c, 0, 60, 39
2, 179637, Note_on_c, 0, 50, 35
2, 179712, Note_on_c, 0, 57, 0
2, 179716, Note_on_c, 0, 50, 0
2, 179718, Note_on_c, 0, 60, 0
2, 179915, Note_on_c, 0, 72, 49
2, 180146, Note_on_c, 0, 76, 0
2, 180154, Note_on_c, 0, 72, 0
2, 180295, Note_on_c, 0, 65, 22
2, 180412, Note_on_c, 0, 65, 0
2, 180563, Note_on_c, 0, 67, 86
2, 180582, Note_on_c, 0, 68, 89
2, 180650, Note_on_c, 0, 69, 82
2, 180666, Note_on_c, 0, 68, 0
2, 180726, Note_on_c, 0, 67, 0
2, 180858, Note_on_c, 0, 69, 0
2, 180901, Note_on_c, 0, 72, 89
2, 181181, Note_on_c, 0, 72, 0
2, 181204, Note_on_c, 0, 69, 73
2, 181356, Note_on_c, 0, 69, 0
2, 181518, Note_on_c, 0, 59, 48
2, 181807, Note_on_c, 0, 53, 48
2, 181812, Note_on_c, 0, 43, 37
2, 181866, Note_on_c, 0, 53, 0
2, 181886, Note_on_c, 0, 43, 0
2, 182124, Note_on_c, 0, 67, 67
2, 182135, Note_on_c, 0, 63, 67
2, 182235, Note_on_c, 0, 59, 0
2, 182297, Note_on_c, 0, 67, 0
2, 182342, Note_on_c, 0, 63, 0
2, 182433, Note_on_c, 0, 69, 77
2, 182434, Note_on_c, 0, 65, 77
2, 182577, Note_on_c, 0, 69, 0
2, 182589, Note_on_c, 0, 65, 0
2, 182751, Note_on_c, 0, 65, 65
2, 182763, Note_on_c, 0, 60, 70
2, 182923, Note_on_c, 0, 65, 0
2, 182933, Note_on_c, 0, 60, 0
2, 183060, Note_on_c, 0, 53, 41
2, 183275, Note_on_c, 0, 53, 0
2, 183381, Note_on_c, 0, 53, 67
2, 183386, Note_on_c, 0, 60, 60
2, 183605, Note_on_c, 0, 60, 0
2, 183638, Note_on_c, 0, 53, 0
2, 183698, Note_on_c, 0, 50, 41
2, 183975, Note_on_c, 0, 50, 0
2, 184004, Note_on_c, 0, 43, 27
2, 184030, Note_on_c, 0, 51, 40
2, 184318, Note_on_c, 0, 51, 0
2, 184331, Note_on_c, 0, 43, 0
2, 184346, Note_on_c, 0, 52, 62
2, 185304, Note_on_c, 0, 52, 0
2, 185397, Note_on_c, 0, 43, 43
2, 185443, Note_on_c, 0, 43, 0
2, 185448, Control_c, 0, 64, 127
2, 185524, Control_c, 0, 64, 0
2, 185726, Note_on_c, 0, 62, 93
2, 185732, Note_on_c, 0, 59, 92
2, 185735, Note_on_c, 0, 53, 90
2, 185918, Note_on_c, 0, 53, 0
2, 185931, Note_on_c, 0, 59, 0
2, 185938, Note_on_c, 0, 62, 0
2, 186031, Note_on_c, 0, 64, 59
2, 186037, Note_on_c, 0, 55, 50
2, 186039, Note_on_c, 0, 60, 58
2, 186049, Note_on_c, 0, 62, 43
2, 186090, Note_on_c, 0, 62, 0
2, 186151, Note_on_c, 0, 60, 0
2, 186159, Note_on_c, 0, 64, 0
2, 186183, Note_on_c, 0, 55, 0
2, 186334, Note_on_c, 0, 61, 68
2, 186344, Note_on_c, 0, 58, 72
2, 186351, Note_on_c, 0, 53, 70
2, 186527, Note_on_c, 0, 53, 0
2, 186547, Note_on_c, 0, 58, 0
2, 186623, Note_on_c, 0, 61, 0
2, 186666, Note_on_c, 0, 61, 30
2, 186675, Note_on_c, 0, 53, 60
2, 186684, Note_on_c, 0, 58, 54
2, 186728, Note_on_c, 0, 43, 32
2, 186747, Note_on_c, 0, 62, 66
2, 186772, Note_on_c, 0, 43, 0
2, 186779, Note_on_c, 0, 58, 0
2, 186782, Note_on_c, 0, 61, 0
2, 186815, Note_on_c, 0, 59, 36
2, 186831, Note_on_c, 0, 53, 0
2, 186911, Note_on_c, 0, 62, 0
2, 186936, Note_on_c, 0, 59, 0
2, 186941, Note_on_c, 0, 53, 56
2, 187035, Note_on_c, 0, 53, 0
2, 187066, Note_on_c, 0, 62, 41
2, 187074, Note_on_c, 0, 59, 38
2, 187148, Note_on_c, 0, 62, 0
2, 187150, Note_on_c, 0, 53, 41
2, 187172, Note_on_c, 0, 59, 0
2, 187250, Note_on_c, 0, 53, 0
2, 188979, Note_on_c, 0, 67, 77
2, 188980, Note_on_c, 0, 62, 93
2, 188985, Note_on_c, 0, 59, 78
2, 189139, Note_on_c, 0, 59, 0
2, 189181, Note_on_c, 0, 67, 0
2, 189191, Note_on_c, 0, 62, 0
2, 189241, Note_on_c, 0, 64, 89
2, 189245, Note_on_c, 0, 67, 92
2, 189250, Note_on_c, 0, 60, 93
2, 189407, Note_on_c, 0, 60, 0
2, 189411, Note_on_c, 0, 67, 0
2, 189447, Note_on_c, 0, 64, 0
2, 189547, Note_on_c, 0, 65, 96
2, 189551, Note_on_c, 0, 62, 108
2, 189551, Note_on_c, 0, 67, 90
2, 189787, Note_on_c, 0, 67, 0
2, 189802, Note_on_c, 0, 62, 0
2, 189826, Note_on_c, 0, 67, 40
2, 189856, Note_on_c, 0, 60, 69
2, 189862, Note_on_c, 0, 64, 54
2, 189956, Note_on_c, 0, 60, 0
2, 189972, Note_on_c, 0, 64, 0
2, 190014, Note_on_c, 0, 67, 0
2, 190019, Note_on_c, 0, 65, 0
2, 190133, Note_on_c, 0, 61, 59
2, 190136, Note_on_c, 0, 58, 56
2, 190138, Note_on_c, 0, 67, 51
2, 190289, Note_on_c, 0, 58, 0
2, 190293, Note_on_c, 0, 59, 55
2, 190305, Note_on_c, 0, 61, 0
2, 190339, Note_on_c, 0, 62, 43
2, 190356, Note_on_c, 0, 59, 0
2, 190391, Note_on_c, 0, 62, 0
2, 190453, Note_on_c, 0, 67, 0
2, 190505, Note_on_c, 0, 55, 66
2, 190975, Note_on_c, 0, 55, 0
2, 191131, Note_on_c, 0, 55, 53
2, 191192, Note_on_c, 0, 55, 0
2, 191611, Control_c, 0, 64, 127
2, 191688, Control_c, 0, 64, 0
2, 191731, Control_c, 0, 64, 127
2, 192391, Note_on_c, 0, 55, 92
2, 192396, Control_c, 0, 64, 0
2, 192413, Note_on_c, 0, 67, 99
2, 192416, Note_on_c, 0, 79, 90
2, 192593, Control_c, 0, 64, 127
2, 192634, Note_on_c, 0, 67, 0
2, 192639, Note_on_c, 0, 79, 0
2, 192669, Control_c, 0, 64, 0
2, 192729, Note_on_c, 0, 69, 93
2, 192730, Note_on_c, 0, 81, 89
2, 192733, Note_on_c, 0, 57, 101
2, 192788, Note_on_c, 0, 55, 0
2, 192986, Control_c, 0, 64, 127
2, 193136, Note_on_c, 0, 69, 0
2, 193152, Note_on_c, 0, 81, 0
2, 193203, Control_c, 0, 64, 0
2, 193300, Note_on_c, 0, 83, 93
2, 193302, Note_on_c, 0, 71, 94
2, 193313, Note_on_c, 0, 59, 86
2, 193357, Control_c, 0, 64, 127
2, 193358, Note_on_c, 0, 57, 0
2, 193474, Note_on_c, 0, 83, 0
2, 193475, Note_on_c, 0, 71, 0
2, 193530, Note_on_c, 0, 59, 0
2, 193700, Note_on_c, 0, 84, 87
2, 193701, Note_on_c, 0, 72, 75
2, 193838, Note_on_c, 0, 72, 0
2, 193843, Note_on_c, 0, 84, 0
2, 194006, Note_on_c, 0, 74, 76
2, 194008, Note_on_c, 0, 86, 84
2, 194042, Note_on_c, 0, 86, 0
2, 194075, Note_on_c, 0, 74, 0
2, 194183, Note_on_c, 0, 75, 74
2, 194185, Note_on_c, 0, 87, 73
2, 194208, Control_c, 0, 64, 0
2, 194252, Note_on_c, 0, 75, 0
2, 194285, Note_on_c, 0, 87, 0
2, 194320, Note_on_c, 0, 67, 42
2, 194331, Note_on_c, 0, 64, 46
2, 194339, Note_on_c, 0, 76, 72
2, 194350, Note_on_c, 0, 88, 62
2, 194578, Control_c, 0, 64, 127
2, 195213, Note_on_c, 0, 76, 0
2, 195323, Note_on_c, 0, 76, 47
2, 195373, Note_on_c, 0, 67, 0
2, 195415, Note_on_c, 0, 64, 0
2, 195582, Note_on_c, 0, 88, 0
2, 195697, Note_on_c, 0, 84, 52
2, 195762, Note_on_c, 0, 76, 0
2, 195820, Note_on_c, 0, 84, 0
2, 195877, Note_on_c, 0, 88, 78
2, 195992, Note_on_c, 0, 88, 0
2, 196096, Note_on_c, 0, 91, 95
2, 196225, Control_c, 0, 64, 0
2, 196259, Note_on_c, 0, 67, 48
2, 196274, Note_on_c, 0, 56, 40
2, 196275, Note_on_c, 0, 62, 54
2, 196286, Note_on_c, 0, 89, 73
2, 196322, Note_on_c, 0, 91, 0
2, 196488, Note_on_c, 0, 89, 0
2, 196539, Note_on_c, 0, 88, 74
2, 196676, Note_on_c, 0, 88, 0
2, 196748, Note_on_c, 0, 86, 62
2, 196868, Note_on_c, 0, 86, 0
2, 196992, Note_on_c, 0, 67, 0
2, 197026, Note_on_c, 0, 84, 67
2, 197091, Note_on_c, 0, 84, 0
2, 197262, Note_on_c, 0, 83, 62
2, 197375, Note_on_c, 0, 83, 0
2, 197528, Note_on_c, 0, 80, 66
2, 197646, Note_on_c, 0, 62, 0
2, 197673, Note_on_c, 0, 80, 0
2, 197762, Note_on_c, 0, 76, 37
2, 197838, Note_on_c, 0, 56, 0
2, 197967, Note_on_c, 0, 76, 0
2, 198053, Note_on_c, 0, 86, 92
2, 198188, Note_on_c, 0, 86, 0
2, 198281, Note_on_c, 0, 60, 29
2, 198282, Note_on_c, 0, 57, 32
2, 198283, Note_on_c, 0, 84, 77
2, 198354, Note_on_c, 0, 60, 0
2, 198375, Note_on_c, 0, 57, 0
2, 198376, Note_on_c, 0, 84, 0
2, 198565, Note_on_c, 0, 81, 56
2, 198696, Note_on_c, 0, 81, 0
2, 198769, Note_on_c, 0, 76, 37
2, 198936, Note_on_c, 0, 76, 0
2, 199066, Note_on_c, 0, 75, 73
2, 199073, Note_on_c, 0, 81, 51
2, 199173, Note_on_c, 0, 81, 0
2, 199191, Note_on_c, 0, 75, 0
2, 199279, Note_on_c, 0, 74, 71
2, 199380, Note_on_c, 0, 74, 0
2, 199416, Note_on_c, 0, 75, 58
2, 199492, Note_on_c, 0, 74, 47
2, 199539, Note_on_c, 0, 75, 0
2, 199619, Note_on_c, 0, 72, 29
2, 199622, Note_on_c, 0, 74, 0
2, 199737, Note_on_c, 0, 72, 0
2, 199790, Note_on_c, 0, 71, 42
2, 200033, Note_on_c, 0, 71, 0
2, 200087, Note_on_c, 0, 74, 64
2, 200222, Note_on_c, 0, 74, 0
2, 200329, Note_on_c, 0, 72, 39
2, 200487, Note_on_c, 0, 72, 0
2, 200568, Note_on_c, 0, 70, 63
2, 200698, Note_on_c, 0, 70, 0
2, 200777, Note_on_c, 0, 64, 50
2, 200935, Note_on_c, 0, 64, 0
2, 200982, Note_on_c, 0, 63, 69
2, 201004, Note_on_c, 0, 58, 42
2, 201013, Note_on_c, 0, 48, 39
2, 201046, Note_on_c, 0, 58, 0
2, 201069, Note_on_c, 0, 48, 0
2, 201134, Note_on_c, 0, 63, 0
2, 201200, Note_on_c, 0, 61, 51
2, 201380, Note_on_c, 0, 61, 0
2, 201409, Note_on_c, 0, 60, 66
2, 201517, Note_on_c, 0, 60, 0
2, 201612, Note_on_c, 0, 58, 62
2, 201825, Note_on_c, 0, 58, 0
2, 201852, Note_on_c, 0, 55, 50
2, 201973, Note_on_c, 0, 55, 0
2, 202036, Note_on_c, 0, 56, 50
2, 202037, Note_on_c, 0, 48, 34
2, 202050, Note_on_c, 0, 41, 37
2, 202129, Note_on_c, 0, 48, 0
2, 202138, Note_on_c, 0, 41, 0
2, 202193, Note_on_c, 0, 56, 0
2, 202296, Note_on_c, 0, 57, 51
2, 202416, Note_on_c, 0, 57, 0
2, 202475, Note_on_c, 0, 60, 71
2, 202661, Note_on_c, 0, 60, 0
2, 202719, Note_on_c, 0, 62, 88
2, 202903, Note_on_c, 0, 62, 0
2, 202938, Note_on_c, 0, 60, 65
2, 203189, Note_on_c, 0, 60, 0
2, 203617, Note_on_c, 0, 57, 52
2, 203804, Note_on_c, 0, 57, 0
2, 203934, Note_on_c, 0, 51, 45
2, 203947, Note_on_c, 0, 42, 40
2, 204033, Note_on_c, 0, 42, 0
2, 204038, Note_on_c, 0, 51, 0
2, 204563, Note_on_c, 0, 71, 95
2, 204568, Note_on_c, 0, 66, 83
2, 204569, Note_on_c, 0, 60, 104
2, 204571, Note_on_c, 0, 63, 83
2, 204579, Note_on_c, 0, 59, 90
2, 204726, Note_on_c, 0, 60, 0
2, 204762, Note_on_c, 0, 63, 0
2, 204763, Note_on_c, 0, 66, 0
2, 204773, Note_on_c, 0, 71, 0
2, 204799, Note_on_c, 0, 59, 0
2, 204818, Note_on_c, 0, 57, 63
2, 205047, Note_on_c, 0, 57, 0
2, 205094, Note_on_c, 0, 71, 81
2, 205095, Note_on_c, 0, 66, 69
2, 205098, Note_on_c, 0, 60, 85
2, 205100, Note_on_c, 0, 63, 65
2, 205101, Note_on_c, 0, 59, 69
2, 205242, Note_on_c, 0, 60, 0
2, 205294, Note_on_c, 0, 71, 0
2, 205296, Note_on_c, 0, 66, 0
2, 205297, Note_on_c, 0, 63, 0
2, 205340, Note_on_c, 0, 59, 0
2, 205386, Note_on_c, 0, 57, 43
2, 205396, Note_on_c, 0, 69, 55
2, 205407, Note_on_c, 0, 60, 53
2, 205430, Note_on_c, 0, 57, 0
2, 205450, Note_on_c, 0, 69, 0
2, 205479, Note_on_c, 0, 60, 0
2, 205748, Note_on_c, 0, 67, 63
2, 205753, Note_on_c, 0, 52, 43
2, 205755, Note_on_c, 0, 60, 53
2, 205756, Note_on_c, 0, 55, 52
2, 205763, Note_on_c, 0, 43, 32
2, 205767, Note_on_c, 0, 64, 48
2, 206067, Control_c, 0, 64, 127
2, 206121, Control_c, 0, 64, 0
2, 206165, Control_c, 0, 64, 127
2, 206196, Note_on_c, 0, 64, 0
2, 206328, Note_on_c, 0, 67, 0
2, 206379, Note_on_c, 0, 43, 0
2, 206389, Note_on_c, 0, 55, 0
2, 206414, Note_on_c, 0, 60, 0
2, 206468, Note_on_c, 0, 52, 0
2, 206744, Control_c, 0, 64, 0
2, 206774, Note_on_c, 0, 62, 56
2, 206780, Note_on_c, 0, 56, 32
2, 206783, Note_on_c, 0, 44, 38
2, 206787, Note_on_c, 0, 65, 36
2, 206793, Note_on_c, 0, 53, 34
2, 206797, Note_on_c, 0, 59, 34
2, 206867, Note_on_c, 0, 59, 0
2, 207091, Note_on_c, 0, 44, 0
2, 207267, Control_c, 0, 64, 127
2, 207290, Note_on_c, 0, 56, 0
2, 207364, Note_on_c, 0, 53, 0
2, 207476, Note_on_c, 0, 62, 0
2, 207517, Note_on_c, 0, 65, 0
2, 207692, Control_c, 0, 64, 0
2, 207751, Note_on_c, 0, 55, 35
2, 207757, Note_on_c, 0, 64, 39
2, 207758, Note_on_c, 0, 45, 36
2, 207767, Note_on_c, 0, 52, 33
2, 207792, Note_on_c, 0, 60, 25
2, 207976, Note_on_c, 0, 55, 0
2, 208107, Control_c, 0, 64, 127
2, 208147, Note_on_c, 0, 60, 0
2, 208200, Note_on_c, 0, 52, 0
2, 208215, Note_on_c, 0, 64, 0
2, 208707, Note_on_c, 0, 69, 56
2, 208728, Control_c, 0, 64, 0
2, 208760, Note_on_c, 0, 45, 0
2, 208765, Note_on_c, 0, 57, 34
2, 208801, Note_on_c, 0, 70, 50
2, 208855, Note_on_c, 0, 69, 0
2, 208871, Note_on_c, 0, 70, 0
2, 208885, Note_on_c, 0, 71, 58
2, 209043, Note_on_c, 0, 71, 0
2, 209124, Note_on_c, 0, 74, 85
2, 209187, Note_on_c, 0, 57, 0
2, 209341, Note_on_c, 0, 74, 0
2, 209416, Note_on_c, 0, 69, 30
2, 209590, Control_c, 0, 64, 127
2, 209609, Note_on_c, 0, 69, 0
2, 209711, Control_c, 0, 64, 0
2, 209729, Note_on_c, 0, 62, 43
2, 209756, Note_on_c, 0, 60, 37
2, 209769, Note_on_c, 0, 50, 36
2, 210295, Note_on_c, 0, 62, 0
2, 210395, Note_on_c, 0, 74, 76
2, 210463, Control_c, 0, 64, 127
2, 210510, Note_on_c, 0, 60, 0
2, 210614, Note_on_c, 0, 74, 0
2, 210714, Control_c, 0, 64, 0
2, 210751, Note_on_c, 0, 66, 42
2, 210770, Note_on_c, 0, 60, 36
2, 210953, Note_on_c, 0, 60, 0
2, 211046, Note_on_c, 0, 62, 51
2, 211047, Note_on_c, 0, 66, 0
2, 211128, Control_c, 0, 64, 127
2, 211188, Note_on_c, 0, 62, 0
2, 211282, Control_c, 0, 64, 0
2, 211333, Note_on_c, 0, 67, 77
2, 211337, Note_on_c, 0, 74, 69
2, 211342, Note_on_c, 0, 60, 42
2, 211478, Control_c, 0, 64, 127
2, 211541, Note_on_c, 0, 67, 0
2, 211592, Note_on_c, 0, 60, 0
2, 211608, Note_on_c, 0, 74, 0
2, 211698, Note_on_c, 0, 74, 59
2, 211706, Control_c, 0, 64, 0
2, 211708, Note_on_c, 0, 66, 61
2, 211720, Note_on_c, 0, 60, 40
2, 212175, Control_c, 0, 64, 127
2, 212285, Note_on_c, 0, 62, 38
2, 212438, Note_on_c, 0, 50, 0
2, 212546, Control_c, 0, 64, 0
2, 212629, Note_on_c, 0, 50, 41
2, 212666, Control_c, 0, 64, 127
2, 212730, Note_on_c, 0, 60, 0
2, 212909, Note_on_c, 0, 50, 0
2, 212977, Note_on_c, 0, 62, 0
2, 212994, Note_on_c, 0, 74, 0
2, 213236, Note_on_c, 0, 62, 55
2, 213274, Note_on_c, 0, 66, 0
2, 213338, Note_on_c, 0, 62, 0
2, 213474, Control_c, 0, 64, 0
2, 214183, Note_on_c, 0, 59, 57
2, 214188, Note_on_c, 0, 55, 43
2, 214269, Control_c, 0, 64, 127
2, 214477, Control_c, 0, 64, 0
2, 214586, Control_c, 0, 64, 127
2, 214795, Note_on_c, 0, 55, 0
2, 214820, Note_on_c, 0, 59, 0
2, 214990, Control_c, 0, 64, 0
2, 215095, Note_on_c, 0, 62, 73
2, 215108, Note_on_c, 0, 55, 50
2, 215118, Note_on_c, 0, 53, 40
2, 215127, Note_on_c, 0, 59, 50
2, 215183, Note_on_c, 0, 53, 0
2, 215197, Control_c, 0, 64, 127
2, 215236, Note_on_c, 0, 55, 0
2, 215264, Note_on_c, 0, 59, 0
2, 215296, Note_on_c, 0, 62, 0
2, 215350, Control_c, 0, 64, 0
2, 215453, Note_on_c, 0, 55, 65
2, 215456, Note_on_c, 0, 64, 63
2, 215462, Note_on_c, 0, 60, 65
2, 215463, Note_on_c, 0, 52, 46
2, 215688, Control_c, 0, 64, 127
2, 216024, Note_on_c, 0, 55, 0
2, 216035, Note_on_c, 0, 60, 0
2, 216041, Note_on_c, 0, 64, 0
2, 216239, Note_on_c, 0, 52, 0
2, 216429, Control_c, 0, 64, 0
2, 216441, Note_on_c, 0, 53, 45
2, 216442, Note_on_c, 0, 65, 53
2, 216450, Note_on_c, 0, 62, 55
2, 216453, Note_on_c, 0, 59, 56
2, 216454, Note_on_c, 0, 50, 39
2, 216681, Note_on_c, 0, 50, 0
2, 216778, Control_c, 0, 64, 127
2, 216907, Note_on_c, 0, 59, 0
2, 216980, Note_on_c, 0, 53, 0
2, 217163, Note_on_c, 0, 65, 0
2, 217195, Note_on_c, 0, 62, 0
2, 217335, Control_c, 0, 64, 0
2, 217392, Note_on_c, 0, 55, 41
2, 217394, Note_on_c, 0, 48, 33
2, 217409, Note_on_c, 0, 64, 37
2, 217414, Note_on_c, 0, 60, 38
2, 217427, Note_on_c, 0, 36, 37
2, 217531, Control_c, 0, 64, 127
2, 217562, Note_on_c, 0, 55, 0
2, 217646, Note_on_c, 0, 60, 0
2, 217712, Note_on_c, 0, 64, 0
2, 217952, Note_on_c, 0, 36, 0
2, 218120, Note_on_c, 0, 48, 0
2, 218295, Control_c, 0, 64, 0
2, 218313, Note_on_c, 0, 89, 94
2, 218482, Note_on_c, 0, 89, 0
2, 218494, Note_on_c, 0, 92, 69
2, 218622, Note_on_c, 0, 89, 40
2, 218696, Note_on_c, 0, 92, 0
2, 218727, Note_on_c, 0, 89, 0
2, 218749, Note_on_c, 0, 86, 48
2, 218844, Note_on_c, 0, 86, 0
2, 218890, Note_on_c, 0, 85, 62
2, 218998, Note_on_c, 0, 85, 0
2, 219018, Note_on_c, 0, 84, 49
2, 219119, Note_on_c, 0, 84, 0
2, 219295, Note_on_c, 0, 82, 44
2, 219398, Note_on_c, 0, 82, 0
2, 219441, Note_on_c, 0, 81, 30
2, 219492, Note_on_c, 0, 65, 38
2, 219512, Note_on_c, 0, 56, 28
2, 219523, Note_on_c, 0, 62, 41
2, 219654, Note_on_c, 0, 80, 53
2, 219665, Note_on_c, 0, 81, 0
2, 219925, Note_on_c, 0, 80, 0
2, 220250, Note_on_c, 0, 77, 73
2, 220351, Note_on_c, 0, 77, 0
2, 220361, Note_on_c, 0, 80, 60
2, 220364, Note_on_c, 0, 65, 0
2, 220468, Note_on_c, 0, 77, 40
2, 220517, Note_on_c, 0, 80, 0
2, 220518, Note_on_c, 0, 62, 0
2, 220604, Note_on_c, 0, 77, 0
2, 220646, Note_on_c, 0, 74, 25
2, 220764, Note_on_c, 0, 56, 0
2, 220794, Note_on_c, 0, 73, 42
2, 220796, Note_on_c, 0, 74, 0
2, 220920, Note_on_c, 0, 73, 0
2, 221197, Note_on_c, 0, 71, 73
2, 221293, Note_on_c, 0, 60, 29
2, 221301, Note_on_c, 0, 57, 29
2, 221316, Note_on_c, 0, 64, 19
2, 221349, Note_on_c, 0, 71, 0
2, 221401, Note_on_c, 0, 74, 76
2, 221556, Note_on_c, 0, 74, 0
2, 221629, Note_on_c, 0, 71, 64
2, 221703, Note_on_c, 0, 71, 0
2, 221743, Note_on_c, 0, 64, 0
2, 221781, Note_on_c, 0, 72, 67
2, 221933, Note_on_c, 0, 60, 0
2, 221937, Note_on_c, 0, 72, 0
2, 222008, Note_on_c, 0, 69, 59
2, 222155, Note_on_c, 0, 69, 0
2, 222244, Note_on_c, 0, 64, 39
2, 222382, Note_on_c, 0, 64, 0
2, 222447, Note_on_c, 0, 57, 0
2, 222449, Note_on_c, 0, 63, 50
2, 222458, Note_on_c, 0, 69, 43
2, 222599, Note_on_c, 0, 63, 0
2, 222646, Note_on_c, 0, 62, 51
2, 222832, Note_on_c, 0, 69, 0
2, 222880, Note_on_c, 0, 62, 0
2, 223131, Note_on_c, 0, 69, 74
2, 223137, Note_on_c, 0, 62, 81
2, 223273, Note_on_c, 0, 62, 0
2, 223304, Note_on_c, 0, 69, 0
2, 223485, Note_on_c, 0, 62, 85
2, 223506, Note_on_c, 0, 69, 58
2, 223533, Note_on_c, 0, 63, 48
2, 223677, Note_on_c, 0, 62, 0
2, 223683, Note_on_c, 0, 64, 37
2, 223684, Note_on_c, 0, 63, 0
2, 223996, Note_on_c, 0, 64, 0
2, 224016, Note_on_c, 0, 69, 0
2, 224075, Note_on_c, 0, 60, 52
2, 224425, Note_on_c, 0, 57, 64
2, 224427, Note_on_c, 0, 60, 0
2, 224883, Control_c, 0, 64, 127
2, 224906, Note_on_c, 0, 57, 0
2, 225058, Control_c, 0, 64, 0
2, 225108, Note_on_c, 0, 53, 46
2, 225111, Note_on_c, 0, 57, 42
2, 225112, Note_on_c, 0, 60, 45
2, 225132, Note_on_c, 0, 41, 36
2, 225636, Control_c, 0, 64, 127
2, 225862, Note_on_c, 0, 53, 0
2, 226002, Note_on_c, 0, 57, 0
2, 226043, Note_on_c, 0, 53, 49
2, 226044, Note_on_c, 0, 60, 0
2, 226045, Note_on_c, 0, 41, 0
2, 226153, Note_on_c, 0, 53, 0
2, 226988, Control_c, 0, 64, 0
2, 227008, Note_on_c, 0, 63, 37
2, 227020, Note_on_c, 0, 54, 40
2, 227021, Note_on_c, 0, 60, 38
2, 227356, Note_on_c, 0, 65, 63
2, 227474, Note_on_c, 0, 65, 0
2, 227577, Note_on_c, 0, 66, 74
2, 227712, Note_on_c, 0, 66, 0
2, 227827, Note_on_c, 0, 68, 65
2, 227976, Note_on_c, 0, 68, 0
2, 228048, Note_on_c, 0, 69, 53
2, 228209, Note_on_c, 0, 69, 0
2, 228286, Note_on_c, 0, 71, 71
2, 228418, Note_on_c, 0, 71, 0
2, 228507, Note_on_c, 0, 72, 71
2, 228678, Note_on_c, 0, 72, 0
2, 228746, Note_on_c, 0, 74, 74
2, 228767, Note_on_c, 0, 60, 0
2, 228820, Note_on_c, 0, 63, 0
2, 228838, Note_on_c, 0, 54, 0
2, 228865, Control_c, 0, 64, 127
2, 228893, Note_on_c, 0, 74, 0
2, 228898, Control_c, 0, 64, 0
2, 228975, Note_on_c, 0, 75, 62
2, 228987, Note_on_c, 0, 64, 29
2, 228988, Note_on_c, 0, 55, 32
2, 228997, Note_on_c, 0, 60, 38
2, 229160, Note_on_c, 0, 75, 0
2, 229208, Note_on_c, 0, 76, 59
2, 229316, Note_on_c, 0, 76, 0
2, 229420, Note_on_c, 0, 81, 85
2, 229637, Note_on_c, 0, 81, 0
2, 229691, Note_on_c, 0, 79, 73
2, 229834, Note_on_c, 0, 79, 0
2, 229921, Note_on_c, 0, 76, 54
2, 230057, Note_on_c, 0, 76, 0
2, 230171, Note_on_c, 0, 72, 39
2, 230186, Note_on_c, 0, 71, 35
2, 230236, Note_on_c, 0, 71, 0
2, 230243, Note_on_c, 0, 64, 0
2, 230290, Note_on_c, 0, 72, 0
2, 230337, Note_on_c, 0, 60, 0
2, 230396, Note_on_c, 0, 67, 40
2, 230558, Note_on_c, 0, 67, 0
2, 230622, Note_on_c, 0, 72, 44
2, 230633, Note_on_c, 0, 65, 69
2, 230750, Note_on_c, 0, 65, 0
2, 230772, Note_on_c, 0, 72, 0
2, 230802, Note_on_c, 0, 55, 0
2, 230862, Note_on_c, 0, 63, 36
2, 230955, Note_on_c, 0, 63, 0
2, 230959, Note_on_c, 0, 64, 66
2, 231091, Note_on_c, 0, 64, 0
2, 231184, Note_on_c, 0, 67, 83
2, 231327, Note_on_c, 0, 67, 0
2, 231399, Note_on_c, 0, 69, 89
2, 231567, Note_on_c, 0, 69, 0
2, 231615, Note_on_c, 0, 67, 68
2, 231683, Note_on_c, 0, 62, 49
2, 231686, Note_on_c, 0, 58, 40
2, 231701, Note_on_c, 0, 52, 38
2, 231723, Note_on_c, 0, 67, 0
2, 231783, Note_on_c, 0, 52, 0
2, 231803, Note_on_c, 0, 62, 0
2, 231855, Note_on_c, 0, 70, 82
2, 232037, Note_on_c, 0, 70, 0
2, 232092, Note_on_c, 0, 67, 54
2, 232129, Note_on_c, 0, 58, 0
2, 232189, Note_on_c, 0, 67, 0
2, 232303, Note_on_c, 0, 68, 73
2, 232486, Note_on_c, 0, 68, 0
2, 232536, Note_on_c, 0, 69, 79
2, 232672, Note_on_c, 0, 69, 0
2, 232758, Note_on_c, 0, 74, 82
2, 232766, Note_on_c, 0, 57, 45
2, 232772, Note_on_c, 0, 62, 25
2, 232779, Note_on_c, 0, 60, 32
2, 232796, Note_on_c, 0, 53, 22
2, 232840, Note_on_c, 0, 62, 0
2, 232848, Note_on_c, 0, 60, 0
2, 232885, Note_on_c, 0, 57, 0
2, 232901, Note_on_c, 0, 53, 0
2, 232983, Note_on_c, 0, 74, 0
2, 233067, Note_on_c, 0, 69, 35
2, 233180, Note_on_c, 0, 69, 0
2, 233240, Note_on_c, 0, 72, 56
2, 233413, Note_on_c, 0, 72, 0
2, 233514, Note_on_c, 0, 69, 53
2, 233671, Note_on_c, 0, 69, 0
2, 233768, Note_on_c, 0, 60, 21
2, 233908, Note_on_c, 0, 60, 0
2, 234018, Note_on_c, 0, 60, 47
2, 234069, Note_on_c, 0, 60, 0
2, 234706, Note_on_c, 0, 63, 26
2, 234712, Note_on_c, 0, 54, 34
2, 234723, Note_on_c, 0, 60, 34
2, 234791, Note_on_c, 0, 60, 0
2, 234796, Note_on_c, 0, 54, 0
2, 234800, Note_on_c, 0, 63, 0
2, 235163, Note_on_c, 0, 83, 85
2, 235167, Note_on_c, 0, 71, 87
2, 235168, Note_on_c, 0, 78, 62
2, 235170, Note_on_c, 0, 75, 73
2, 235245, Note_on_c, 0, 75, 0
2, 235246, Note_on_c, 0, 71, 0
2, 235256, Note_on_c, 0, 83, 0
2, 235267, Note_on_c, 0, 78, 0
2, 235541, Note_on_c, 0, 83, 82
2, 235543, Note_on_c, 0, 78, 68
2, 235544, Note_on_c, 0, 75, 80
2, 235545, Note_on_c, 0, 71, 89
2, 235616, Note_on_c, 0, 75, 0
2, 235629, Note_on_c, 0, 71, 0
2, 235638, Note_on_c, 0, 83, 0
2, 235655, Note_on_c, 0, 78, 0
2, 235862, Note_on_c, 0, 83, 80
2, 235866, Note_on_c, 0, 75, 75
2, 235867, Note_on_c, 0, 71, 85
2, 235869, Note_on_c, 0, 78, 60
2, 235987, Note_on_c, 0, 83, 0
2, 236003, Note_on_c, 0, 71, 0
2, 236022, Note_on_c, 0, 75, 0
2, 236042, Note_on_c, 0, 78, 0
2, 236110, Note_on_c, 0, 81, 57
2, 236121, Note_on_c, 0, 75, 39
2, 236122, Note_on_c, 0, 69, 59
2, 236123, Note_on_c, 0, 78, 37
2, 236203, Note_on_c, 0, 69, 0
2, 236225, Note_on_c, 0, 75, 0
2, 236239, Note_on_c, 0, 78, 0
2, 236240, Note_on_c, 0, 81, 0
2, 236345, Note_on_c, 0, 81, 54
2, 236359, Note_on_c, 0, 69, 48
2, 236364, Note_on_c, 0, 75, 44
2, 236368, Note_on_c, 0, 78, 35
2, 236449, Note_on_c, 0, 69, 0
2, 236454, Note_on_c, 0, 81, 0
2, 236477, Note_on_c, 0, 75, 0
2, 236494, Note_on_c, 0, 78, 0
2, 236647, Note_on_c, 0, 64, 54
2, 236661, Note_on_c, 0, 79, 39
2, 236667, Note_on_c, 0, 60, 41
2, 236690, Note_on_c, 0, 64, 0
2, 236705, Note_on_c, 0, 79, 0
2, 236709, Note_on_c, 0, 60, 0
2, 236898, Note_on_c, 0, 79, 63
2, 236907, Note_on_c, 0, 67, 73
2, 237018, Note_on_c, 0, 67, 0
2, 237046, Note_on_c, 0, 79, 0
2, 238099, Note_on_c, 0, 76, 69
2, 238112, Note_on_c, 0, 65, 69
2, 238113, Note_on_c, 0, 71, 56
2, 238126, Note_on_c, 0, 62, 54
2, 238130, Note_on_c, 0, 68, 40
2, 238135, Note_on_c, 0, 56, 42
2, 238256, Control_c, 0, 64, 127
2, 238257, Note_on_c, 0, 76, 0
2, 238345, Note_on_c, 0, 65, 0
2, 238358, Note_on_c, 0, 68, 0
2, 238389, Note_on_c, 0, 71, 0
2, 238403, Note_on_c, 0, 62, 0
2, 238442, Control_c, 0, 64, 0
2, 238461, Note_on_c, 0, 56, 0
2, 238496, Note_on_c, 0, 74, 52
2, 238515, Note_on_c, 0, 64, 60
2, 238522, Note_on_c, 0, 57, 53
2, 238547, Note_on_c, 0, 69, 29
2, 238600, Note_on_c, 0, 69, 0
2, 238608, Note_on_c, 0, 64, 0
2, 238952, Note_on_c, 0, 74, 0
2, 239138, Note_on_c, 0, 67, 84
2, 239163, Note_on_c, 0, 68, 62
2, 239296, Note_on_c, 0, 68, 0
2, 239336, Note_on_c, 0, 67, 0
2, 239450, Note_on_c, 0, 68, 76
2, 239452, Note_on_c, 0, 67, 60
2, 239551, Note_on_c, 0, 68, 0
2, 239562, Note_on_c, 0, 69, 73
2, 239620, Note_on_c, 0, 67, 0
2, 239707, Note_on_c, 0, 69, 0
2, 239774, Note_on_c, 0, 72, 65
2, 239934, Note_on_c, 0, 57, 0
2, 239965, Note_on_c, 0, 72, 0
2, 240058, Note_on_c, 0, 74, 76
2, 240190, Note_on_c, 0, 74, 0
2, 240241, Control_c, 0, 64, 127
2, 240340, Control_c, 0, 64, 0
2, 240395, Note_on_c, 0, 77, 66
2, 240406, Note_on_c, 0, 50, 35
2, 240410, Note_on_c, 0, 72, 43
2, 240414, Note_on_c, 0, 65, 45
2, 240415, Note_on_c, 0, 57, 43
2, 240425, Note_on_c, 0, 60, 29
2, 240565, Note_on_c, 0, 65, 0
2, 240611, Note_on_c, 0, 72, 0
2, 240706, Note_on_c, 0, 77, 0
2, 240983, Note_on_c, 0, 76, 93
2, 241147, Note_on_c, 0, 76, 0
2, 241206, Note_on_c, 0, 77, 83
2, 241294, Note_on_c, 0, 60, 0
2, 241327, Note_on_c, 0, 57, 0
2, 241349, Note_on_c, 0, 77, 0
2, 241415, Note_on_c, 0, 76, 77
2, 241457, Note_on_c, 0, 50, 0
2, 241565, Note_on_c, 0, 76, 0
2, 241616, Note_on_c, 0, 72, 52
2, 241752, Note_on_c, 0, 72, 0
2, 241833, Note_on_c, 0, 67, 51
2, 241989, Note_on_c, 0, 67, 0
2, 242074, Note_on_c, 0, 66, 55
2, 242085, Note_on_c, 0, 72, 24
2, 242206, Note_on_c, 0, 72, 0
2, 242228, Note_on_c, 0, 66, 0
2, 242291, Note_on_c, 0, 72, 42
2, 242314, Note_on_c, 0, 65, 58
2, 242421, Note_on_c, 0, 72, 0
2, 242517, Note_on_c, 0, 65, 0
2, 242575, Note_on_c, 0, 60, 40
2, 242669, Note_on_c, 0, 60, 0
2, 242826, Note_on_c, 0, 63, 73
2, 242830, Note_on_c, 0, 67, 74
2, 243005, Note_on_c, 0, 63, 0
2, 243006, Note_on_c, 0, 67, 0
2, 243082, Note_on_c, 0, 67, 78
2, 243088, Note_on_c, 0, 64, 76
2, 243224, Note_on_c, 0, 64, 0
2, 243330, Note_on_c, 0, 60, 60
2, 243409, Note_on_c, 0, 67, 0
2, 243495, Note_on_c, 0, 60, 0
2, 243587, Note_on_c, 0, 55, 63
2, 243713, Note_on_c, 0, 55, 0
2, 243802, Note_on_c, 0, 53, 67
2, 243979, Note_on_c, 0, 53, 0
2, 244064, Note_on_c, 0, 51, 64
2, 244196, Note_on_c, 0, 51, 0
2, 244268, Note_on_c, 0, 52, 44
2, 244491, Note_on_c, 0, 52, 0
2, 244568, Note_on_c, 0, 55, 64
2, 244678, Note_on_c, 0, 55, 0
2, 244757, Note_on_c, 0, 57, 83
2, 244988, Note_on_c, 0, 57, 0
2, 245036, Note_on_c, 0, 55, 57
2, 245114, Note_on_c, 0, 55, 0
2, 245229, Note_on_c, 0, 56, 58
2, 245232, Note_on_c, 0, 60, 58
2, 245273, Note_on_c, 0, 56, 0
2, 245282, Note_on_c, 0, 57, 61
2, 245334, Note_on_c, 0, 60, 0
2, 245592, Note_on_c, 0, 57, 0
2, 245758, Note_on_c, 0, 57, 67
2, 246048, Note_on_c, 0, 57, 0
2, 246200, Note_on_c, 0, 42, 25
2, 246222, Note_on_c, 0, 53, 36
2, 246230, Note_on_c, 0, 56, 54
2, 246250, Note_on_c, 0, 42, 0
2, 246270, Note_on_c, 0, 43, 36
2, 246288, Note_on_c, 0, 53, 0
2, 246291, Note_on_c, 0, 56, 0
2, 246296, Note_on_c, 0, 57, 67
2, 246834, Note_on_c, 0, 31, 47
2, 246893, Note_on_c, 0, 64, 71
2, 246896, Note_on_c, 0, 56, 73
2, 246900, Note_on_c, 0, 60, 63
2, 246911, Note_on_c, 0, 43, 0
2, 246916, Note_on_c, 0, 42, 73
2, 247100, Note_on_c, 0, 57, 0
2, 247182, Note_on_c, 0, 55, 52
2, 247198, Note_on_c, 0, 43, 27
2, 247247, Note_on_c, 0, 43, 0
2, 247305, Note_on_c, 0, 31, 0
2, 247396, Control_c, 0, 64, 127
2, 247463, Control_c, 0, 64, 127
2, 247659, Control_c, 0, 64, 0
2, 247674, Note_on_c, 0, 42, 0
2, 247691, Note_on_c, 0, 55, 0
2, 247772, Note_on_c, 0, 51, 40
2, 248012, Note_on_c, 0, 60, 0
2, 248100, Note_on_c, 0, 24, 38
2, 248114, Note_on_c, 0, 51, 0
2, 248132, Note_on_c, 0, 52, 59
2, 248143, Note_on_c, 0, 36, 32
2, 248324, Note_on_c, 0, 56, 0
2, 248399, Control_c, 0, 64, 0
2, 248400, Note_on_c, 0, 64, 0
2, 248462, Note_on_c, 0, 60, 74
2, 248468, Note_on_c, 0, 29, 54
2, 248471, Note_on_c, 0, 57, 76
2, 248474, Note_on_c, 0, 53, 68
2, 248478, Note_on_c, 0, 41, 59
2, 248517, Note_on_c, 0, 52, 0
2, 248755, Note_on_c, 0, 24, 0
2, 248849, Note_on_c, 0, 36, 0
2, 249032, Control_c, 0, 64, 127
2, 249233, Note_on_c, 0, 53, 0
2, 249266, Note_on_c, 0, 57, 0
2, 249291, Note_on_c, 0, 60, 0
2, 250345, Note_on_c, 0, 72, 90
2, 250465, Note_on_c, 0, 29, 0
2, 250633, Note_on_c, 0, 41, 0
2, 250640, Note_on_c, 0, 72, 0
2, 251107, Control_c, 0, 64, 0
2, 251120, Note_on_c, 0, 71, 55
2, 251151, Note_on_c, 0, 66, 45
2, 251172, Note_on_c, 0, 63, 37
2, 251176, Note_on_c, 0, 42, 29
2, 251179, Note_on_c, 0, 30, 33
2, 251189, Note_on_c, 0, 60, 35
2, 251941, Control_c, 0, 64, 127
2, 252394, Note_on_c, 0, 69, 53
2, 252428, Note_on_c, 0, 30, 0
2, 252438, Note_on_c, 0, 71, 0
2, 252488, Note_on_c, 0, 42, 0
2, 252551, Note_on_c, 0, 69, 0
2, 252660, Note_on_c, 0, 60, 0
2, 252662, Note_on_c, 0, 66, 0
2, 252664, Note_on_c, 0, 63, 0
2, 253322, Control_c, 0, 64, 0
2, 253329, Note_on_c, 0, 67, 39
2, 253335, Note_on_c, 0, 60, 35
2, 253360, Note_on_c, 0, 55, 30
2, 253363, Note_on_c, 0, 31, 32
2, 253366, Note_on_c, 0, 43, 28
2, 253676, Control_c, 0, 64, 127
2, 254026, Note_on_c, 0, 31, 0
2, 254166, Note_on_c, 0, 43, 0
2, 254225, Note_on_c, 0, 67, 0
2, 254242, Note_on_c, 0, 60, 0
2, 254419, Note_on_c, 0, 55, 0
2, 254631, Note_on_c, 0, 59, 88
2, 254806, Note_on_c, 0, 59, 0
2, 255279, Note_on_c, 0, 64, 77
2, 255292, Note_on_c, 0, 56, 69
2, 255299, Control_c, 0, 64, 0
2, 255316, Note_on_c, 0, 44, 37
2, 255326, Note_on_c, 0, 53, 42
2, 255679, Control_c, 0, 64, 127
2, 255702, Note_on_c, 0, 64, 0
2, 255763, Note_on_c, 0, 62, 76
2, 255816, Note_on_c, 0, 56, 0
2, 255962, Note_on_c, 0, 44, 0
2, 256168, Note_on_c, 0, 53, 0
2, 256193, Note_on_c, 0, 62, 0
2, 256331, Control_c, 0, 64, 0
2, 256368, Note_on_c, 0, 60, 60
2, 256373, Note_on_c, 0, 57, 52
2, 256410, Note_on_c, 0, 45, 30
2, 256417, Note_on_c, 0, 52, 44
2, 256865, Control_c, 0, 64, 127
2, 256951, Note_on_c, 0, 57, 0
2, 257062, Note_on_c, 0, 60, 0
2, 257107, Note_on_c, 0, 56, 72
2, 257110, Note_on_c, 0, 55, 65
2, 257134, Control_c, 0, 64, 0
2, 257260, Note_on_c, 0, 57, 78
2, 257262, Note_on_c, 0, 56, 0
2, 257423, Note_on_c, 0, 55, 0
2, 257528, Control_c, 0, 64, 127
2, 257641, Control_c, 0, 64, 0
2, 257834, Note_on_c, 0, 60, 80
2, 258037, Note_on_c, 0, 57, 0
2, 258205, Control_c, 0, 64, 127
2, 259147, Note_on_c, 0, 62, 62
2, 259257, Note_on_c, 0, 52, 0
2, 259259, Note_on_c, 0, 60, 0
2, 259362, Note_on_c, 0, 45, 0
2, 259653, Note_on_c, 0, 62, 0
2, 259761, Note_on_c, 0, 62, 53
2, 260052, Note_on_c, 0, 62, 0
2, 260235, Note_on_c, 0, 67, 70
2, 260469, Note_on_c, 0, 67, 0
2, 261025, Note_on_c, 0, 65, 61
2, 261028, Control_c, 0, 64, 0
2, 261063, Note_on_c, 0, 57, 49
2, 261073, Note_on_c, 0, 38, 29
2, 261078, Note_on_c, 0, 26, 31
2, 261466, Control_c, 0, 64, 127
2, 262037, Note_on_c, 0, 26, 0
2, 262125, Note_on_c, 0, 65, 0
2, 262139, Note_on_c, 0, 38, 0
2, 262221, Note_on_c, 0, 57, 0
2, 262597, Control_c, 0, 64, 0
2, 262598, Note_on_c, 0, 64, 51
2, 262608, Note_on_c, 0, 55, 45
2, 262612, Note_on_c, 0, 40, 27
2, 262631, Note_on_c, 0, 28, 32
2, 262893, Control_c, 0, 64, 127
2, 263050, Note_on_c, 0, 64, 0
2, 263117, Note_on_c, 0, 55, 0
2, 263126, Note_on_c, 0, 28, 0
2, 263231, Note_on_c, 0, 40, 0
2, 263471, Note_on_c, 0, 56, 48
2, 263473, Note_on_c, 0, 53, 32
2, 263543, Control_c, 0, 64, 0
2, 263556, Note_on_c, 0, 41, 28
2, 263567, Note_on_c, 0, 29, 22
2, 263595, Note_on_c, 0, 56, 0
2, 263634, Note_on_c, 0, 57, 47
2, 264093, Note_on_c, 0, 60, 51
2, 264162, Control_c, 0, 64, 127
2, 264541, Note_on_c, 0, 29, 0
2, 264542, Note_on_c, 0, 60, 0
2, 264579, Note_on_c, 0, 57, 0
2, 264620, Note_on_c, 0, 53, 0
2, 264637, Note_on_c, 0, 41, 0
2, 264994, Control_c, 0, 64, 0
2, 265041, Note_on_c, 0, 60, 31
2, 265043, Note_on_c, 0, 43, 28
2, 265045, Note_on_c, 0, 57, 36
2, 265052, Note_on_c, 0, 53, 19
2, 265057, Note_on_c, 0, 31, 31
2, 265644, Control_c, 0, 64, 127
2, 265901, Note_on_c, 0, 60, 0
2, 266201, Note_on_c, 0, 60, 38
2, 266945, Note_on_c, 0, 60, 0
2, 267246, Note_on_c, 0, 60, 37
2, 268565, Note_on_c, 0, 60, 0
2, 268901, Note_on_c, 0, 60, 35
2, 268983, Note_on_c, 0, 43, 0
2, 269145, Note_on_c, 0, 31, 0
2, 269593, Note_on_c, 0, 57, 0
2, 270052, Note_on_c, 0, 53, 0
2, 270111, Note_on_c, 0, 60, 0
2, 270892, Note_on_c, 0, 51, 36
2, 270895, Note_on_c, 0, 60, 35
2, 270927, Note_on_c, 0, 24, 32
2, 270940, Note_on_c, 0, 36, 29
2, 270964, Control_c, 0, 64, 0
2, 271069, Note_on_c, 0, 51, 0
2, 271095, Note_on_c, 0, 52, 49
2, 271872, Control_c, 0, 64, 127
2, 272017, Note_on_c, 0, 52, 0
2, 272224, Note_on_c, 0, 60, 0
2, 272473, Note_on_c, 0, 24, 0
2, 272476, Note_on_c, 0, 36, 0
2, 273108, Note_on_c, 0, 58, 44
2, 273296, Note_on_c, 0, 62, 57
2, 273407, Note_on_c, 0, 64, 54
2, 273481, Note_on_c, 0, 69, 41
2, 273644, Note_on_c, 0, 74, 42
2, 273768, Note_on_c, 0, 79, 57
2, 273805, Note_on_c, 0, 74, 0
2, 273958, Note_on_c, 0, 79, 0
2, 273980, Note_on_c, 0, 84, 69
2, 274028, Note_on_c, 0, 84, 0
2, 274141, Note_on_c, 0, 86, 70
2, 274287, Note_on_c, 0, 86, 0
2, 274307, Note_on_c, 0, 91, 45
2, 274446, Note_on_c, 0, 91, 0
2, 274468, Note_on_c, 0, 96, 40
2, 274521, Note_on_c, 0, 96, 0
2, 274661, Note_on_c, 0, 98, 33
2, 274838, Note_on_c, 0, 103, 53
2, 274913, Note_on_c, 0, 98, 0
2, 275009, Note_on_c, 0, 108, 55
2, 275050, Note_on_c, 0, 103, 0
2, 275133, Note_on_c, 0, 108, 0
2, 276159, Note_on_c, 0, 69, 0
2, 276162, Note_on_c, 0, 64, 0
2, 276206, Note_on_c, 0, 62, 0
2, 276247, Note_on_c, 0, 58, 0
2, 280004, Note_on_c, 0, 24, 30
2, 280119, Note_on_c, 0, 24, 0
2, 285395, Control_c, 0, 64, 0
2, 285395, End_track
3, 0, Start_track
3, 0, Title_t, "MIDI 2"
3, 0, Control_c, 1, 0, 0
3, 0, Control_c, 1, 7, 95
3, 1, Control_c, 1, 32, 2
3, 2, Program_c, 1, 32
3, 124631, Note_on_c, 1, 43, 63
3, 124764, Note_on_c, 1, 43, 0
3, 124917, Note_on_c, 1, 35, 62
3, 125181, Note_on_c, 1, 35, 0
3, 125260, Note_on_c, 1, 36, 71
3, 126867, Note_on_c, 1, 38, 62
3, 127109, Note_on_c, 1, 38, 0
3, 127110, Note_on_c, 1, 36, 0
3, 127141, Note_on_c, 1, 47, 113
3, 129027, Note_on_c, 1, 45, 77
3, 129054, Note_on_c, 1, 47, 0
3, 129105, Note_on_c, 1, 40, 27
3, 129180, Note_on_c, 1, 40, 0
3, 129309, Note_on_c, 1, 45, 0
3, 129633, Note_on_c, 1, 40, 64
3, 129917, Note_on_c, 1, 40, 0
3, 130015, Note_on_c, 1, 36, 57
3, 130930, Note_on_c, 1, 36, 0
3, 130932, Note_on_c, 1, 31, 71
3, 132497, Note_on_c, 1, 42, 88
3, 132665, Note_on_c, 1, 31, 0
3, 132779, Note_on_c, 1, 42, 0
3, 132835, Note_on_c, 1, 41, 77
3, 134093, Note_on_c, 1, 41, 0
3, 134152, Note_on_c, 1, 40, 47
3, 134332, Note_on_c, 1, 40, 0
3, 134410, Note_on_c, 1, 41, 64
3, 134678, Note_on_c, 1, 41, 0
3, 134732, Note_on_c, 1, 42, 64
3, 134843, Note_on_c, 1, 42, 0
3, 135043, Note_on_c, 1, 36, 45
3, 135207, Note_on_c, 1, 36, 0
3, 135358, Note_on_c, 1, 33, 60
3, 135617, Note_on_c, 1, 33, 0
3, 135717, Note_on_c, 1, 30, 70
3, 136611, Note_on_c, 1, 30, 0
3, 136691, Note_on_c, 1, 31, 67
3, 137996, Note_on_c, 1, 34, 57
3, 138005, Note_on_c, 1, 31, 0
3, 138201, Note_on_c, 1, 34, 0
3, 138290, Note_on_c, 1, 35, 75
3, 138591, Note_on_c, 1, 35, 0
3, 138649, Note_on_c, 1, 36, 99
3, 139934, Note_on_c, 1, 39, 55
3, 139946, Note_on_c, 1, 36, 0
3, 140200, Note_on_c, 1, 39, 0
3, 140225, Note_on_c, 1, 40, 73
3, 140538, Note_on_c, 1, 40, 0
3, 140567, Note_on_c, 1, 41, 83
3, 140747, Note_on_c, 1, 41, 0
3, 140859, Note_on_c, 1, 36, 66
3, 141017, Note_on_c, 1, 36, 0
3, 141155, Note_on_c, 1, 33, 69
3, 142156, Note_on_c, 1, 33, 0
3, 142167, Note_on_c, 1, 31, 66
3, 142488, Note_on_c, 1, 31, 0
3, 142515, Note_on_c, 1, 30, 70
3, 143497, Note_on_c, 1, 42, 84
3, 143586, Note_on_c, 1, 30, 0
3, 144107, Note_on_c, 1, 30, 48
3, 144373, Note_on_c, 1, 42, 0
3, 144388, Note_on_c, 1, 30, 0
3, 144439, Note_on_c, 1, 43, 76
3, 145990, Note_on_c, 1, 44, 68
3, 145992, Note_on_c, 1, 43, 0
3, 146350, Note_on_c, 1, 45, 67
3, 146355, Note_on_c, 1, 44, 0
3, 147296, Note_on_c, 1, 40, 53
3, 147349, Note_on_c, 1, 45, 0
3, 147465, Note_on_c, 1, 40, 0
3, 147615, Note_on_c, 1, 36, 57
3, 147752, Note_on_c, 1, 36, 0
3, 147932, Note_on_c, 1, 37, 73
3, 148245, Note_on_c, 1, 37, 0
3, 148291, Note_on_c, 1, 38, 77
3, 149510, Note_on_c, 1, 52, 34
3, 149807, Note_on_c, 1, 53, 64
3, 149897, Note_on_c, 1, 52, 0
3, 150142, Note_on_c, 1, 53, 0
3, 150155, Note_on_c, 1, 54, 63
3, 151149, Note_on_c, 1, 38, 0
3, 151387, Note_on_c, 1, 41, 49
3, 151592, Note_on_c, 1, 41, 0
3, 151712, Note_on_c, 1, 42, 70
3, 151746, Note_on_c, 1, 54, 0
3, 151982, Note_on_c, 1, 42, 0
3, 152039, Note_on_c, 1, 43, 87
3, 152596, Note_on_c, 1, 43, 0
3, 152662, Note_on_c, 1, 43, 83
3, 152988, Note_on_c, 1, 43, 0
3, 153019, Note_on_c, 1, 41, 83
3, 153933, Note_on_c, 1, 41, 0
3, 153987, Note_on_c, 1, 40, 87
3, 154996, Note_on_c, 1, 38, 89
3, 155048, Note_on_c, 1, 40, 0
3, 155939, Note_on_c, 1, 38, 0
3, 155975, Note_on_c, 1, 36, 75
3, 156942, Note_on_c, 1, 43, 105
3, 157065, Note_on_c, 1, 36, 0
3, 157698, Note_on_c, 1, 38, 36
3, 157752, Note_on_c, 1, 38, 0
3, 157867, Note_on_c, 1, 43, 0
3, 157925, Note_on_c, 1, 44, 83
3, 159493, Note_on_c, 1, 40, 72
3, 159518, Note_on_c, 1, 44, 0
3, 159892, Note_on_c, 1, 40, 0
3, 159921, Note_on_c, 1, 33, 73
3, 161712, Note_on_c, 1, 40, 95
3, 161768, Note_on_c, 1, 33, 0
3, 162976, Note_on_c, 1, 39, 62
3, 163023, Note_on_c, 1, 40, 0
3, 163188, Note_on_c, 1, 39, 0
3, 163262, Note_on_c, 1, 40, 84
3, 163619, Note_on_c, 1, 41, 96
3, 163629, Note_on_c, 1, 40, 0
3, 165505, Note_on_c, 1, 42, 85
3, 165566, Note_on_c, 1, 41, 0
3, 167393, Note_on_c, 1, 43, 75
3, 167409, Note_on_c, 1, 42, 0
3, 170012, Note_on_c, 1, 31, 61
3, 170077, Note_on_c, 1, 43, 0
3, 170253, Note_on_c, 1, 31, 0
3, 170358, Note_on_c, 1, 40, 85
3, 171242, Note_on_c, 1, 40, 0
3, 171328, Note_on_c, 1, 41, 80
3, 171853, Note_on_c, 1, 41, 0
3, 171948, Note_on_c, 1, 36, 73
3, 172215, Note_on_c, 1, 36, 0
3, 172318, Note_on_c, 1, 29, 78
3, 173088, Note_on_c, 1, 29, 0
3, 173250, Note_on_c, 1, 30, 77
3, 174393, Note_on_c, 1, 30, 0
3, 174553, Note_on_c, 1, 29, 43
3, 174676, Note_on_c, 1, 29, 0
3, 174818, Note_on_c, 1, 30, 77
3, 175100, Note_on_c, 1, 30, 0
3, 175141, Note_on_c, 1, 31, 80
3, 176130, Note_on_c, 1, 32, 87
3, 176151, Note_on_c, 1, 31, 0
3, 177023, Note_on_c, 1, 32, 0
3, 177062, Note_on_c, 1, 33, 73
3, 178356, Note_on_c, 1, 33, 0
3, 178360, Note_on_c, 1, 36, 62
3, 178631, Note_on_c, 1, 37, 69
3, 178709, Note_on_c, 1, 36, 0
3, 178927, Note_on_c, 1, 37, 0
3, 178968, Note_on_c, 1, 38, 84
3, 179455, Note_on_c, 1, 38, 0
3, 179599, Note_on_c, 1, 38, 73
3, 179884, Note_on_c, 1, 38, 0
3, 179934, Note_on_c, 1, 40, 80
3, 180884, Note_on_c, 1, 40, 0
3, 180887, Note_on_c, 1, 41, 68
3, 181826, Note_on_c, 1, 43, 63
3, 181864, Note_on_c, 1, 41, 0
3, 182792, Note_on_c, 1, 48, 71
3, 182822, Note_on_c, 1, 43, 0
3, 184445, Note_on_c, 1, 41, 66
3, 184557, Note_on_c, 1, 41, 0
3, 184792, Note_on_c, 1, 36, 65
3, 185705, Note_on_c, 1, 48, 0
3, 185752, Note_on_c, 1, 36, 0
3, 185768, Note_on_c, 1, 43, 77
3, 186326, Note_on_c, 1, 43, 0
3, 186367, Note_on_c, 1, 42, 62
3, 186691, Note_on_c, 1, 42, 0
3, 186719, Note_on_c, 1, 43, 70
3, 188262, Note_on_c, 1, 38, 61
3, 188312, Note_on_c, 1, 38, 0
3, 188615, Note_on_c, 1, 31, 72
3, 189610, Note_on_c, 1, 38, 15
3, 189691, Note_on_c, 1, 43, 0
3, 189768, Note_on_c, 1, 38, 0
3, 189893, Note_on_c, 1, 43, 73
3, 190164, Note_on_c, 1, 42, 67
3, 190170, Note_on_c, 1, 38, 10
3, 190219, Note_on_c, 1, 43, 0
3, 190358, Note_on_c, 1, 42, 0
3, 190451, Note_on_c, 1, 38, 0
3, 190473, Note_on_c, 1, 43, 70
3, 190833, Note_on_c, 1, 31, 0
3, 191083, Note_on_c, 1, 38, 67
3, 191112, Note_on_c, 1, 43, 0
3, 191404, Note_on_c, 1, 38, 0
3, 191423, Note_on_c, 1, 31, 91
3, 192874, Note_on_c, 1, 31, 0
3, 192928, Note_on_c, 1, 33, 72
3, 193631, Note_on_c, 1, 34, 64
3, 193693, Note_on_c, 1, 33, 0
3, 193824, Note_on_c, 1, 34, 0
3, 193917, Note_on_c, 1, 35, 66
3, 194208, Note_on_c, 1, 35, 0
3, 194252, Note_on_c, 1, 36, 76
3, 194954, Note_on_c, 1, 34, 33
3, 195219, Note_on_c, 1, 36, 0
3, 195248, Note_on_c, 1, 43, 113
3, 195317, Note_on_c, 1, 34, 0
3, 195883, Note_on_c, 1, 36, 64
3, 195976, Note_on_c, 1, 36, 0
3, 196178, Note_on_c, 1, 43, 0
3, 196243, Note_on_c, 1, 44, 88
3, 197597, Note_on_c, 1, 47, 64
3, 197616, Note_on_c, 1, 44, 0
3, 197875, Note_on_c, 1, 47, 0
3, 197879, Note_on_c, 1, 44, 77
3, 198137, Note_on_c, 1, 44, 0
3, 198210, Note_on_c, 1, 45, 79
3, 199495, Note_on_c, 1, 38, 51
3, 199671, Note_on_c, 1, 38, 0
3, 199793, Note_on_c, 1, 39, 71
3, 200031, Note_on_c, 1, 45, 0
3, 200070, Note_on_c, 1, 39, 0
3, 200121, Note_on_c, 1, 40, 75
3, 201555, Note_on_c, 1, 40, 0
3, 201637, Note_on_c, 1, 30, 57
3, 201989, Note_on_c, 1, 30, 0
3, 201992, Note_on_c, 1, 29, 60
3, 202996, Note_on_c, 1, 41, 76
3, 203216, Note_on_c, 1, 29, 0
3, 203444, Note_on_c, 1, 41, 0
3, 203605, Note_on_c, 1, 29, 64
3, 203935, Note_on_c, 1, 42, 83
3, 203936, Note_on_c, 1, 29, 0
3, 204867, Note_on_c, 1, 30, 77
3, 204883, Note_on_c, 1, 42, 0
3, 205735, Note_on_c, 1, 30, 0
3, 205818, Note_on_c, 1, 31, 74
3, 206592, Note_on_c, 1, 36, 25
3, 206686, Note_on_c, 1, 36, 0
3, 206764, Note_on_c, 1, 44, 85
3, 206859, Note_on_c, 1, 31, 0
3, 207425, Note_on_c, 1, 31, 47
3, 207494, Note_on_c, 1, 31, 0
3, 207735, Note_on_c, 1, 44, 0
3, 207756, Note_on_c, 1, 45, 71
3, 208429, Note_on_c, 1, 40, 60
3, 208534, Note_on_c, 1, 45, 0
3, 208752, Note_on_c, 1, 40, 0
3, 208757, Note_on_c, 1, 33, 71
3, 209396, Note_on_c, 1, 37, 65
3, 209448, Note_on_c, 1, 33, 0
3, 209693, Note_on_c, 1, 37, 0
3, 209768, Note_on_c, 1, 38, 94
3, 211014, Note_on_c, 1, 52, 61
3, 211328, Note_on_c, 1, 53, 78
3, 211379, Note_on_c, 1, 52, 0
3, 211611, Note_on_c, 1, 53, 0
3, 211640, Note_on_c, 1, 54, 76
3, 212664, Note_on_c, 1, 38, 0
3, 212871, Note_on_c, 1, 50, 65
3, 212903, Note_on_c, 1, 54, 0
3, 212978, Note_on_c, 1, 50, 0
3, 213159, Note_on_c, 1, 44, 56
3, 213493, Note_on_c, 1, 44, 0
3, 213519, Note_on_c, 1, 43, 74
3, 215109, Note_on_c, 1, 41, 84
3, 215120, Note_on_c, 1, 43, 0
3, 215452, Note_on_c, 1, 41, 0
3, 215507, Note_on_c, 1, 40, 67
3, 216016, Note_on_c, 1, 40, 0
3, 216105, Note_on_c, 1, 40, 72
3, 216463, Note_on_c, 1, 38, 66
3, 216485, Note_on_c, 1, 40, 0
3, 216950, Note_on_c, 1, 38, 0
3, 217048, Note_on_c, 1, 38, 67
3, 217341, Note_on_c, 1, 38, 0
3, 217395, Note_on_c, 1, 36, 84
3, 218842, Note_on_c, 1, 43, 37
3, 219137, Note_on_c, 1, 43, 0
3, 219193, Note_on_c, 1, 44, 87
3, 219483, Note_on_c, 1, 36, 0
3, 220761, Note_on_c, 1, 32, 71
3, 220870, Note_on_c, 1, 44, 0
3, 221146, Note_on_c, 1, 32, 0
3, 221155, Note_on_c, 1, 33, 74
3, 223110, Note_on_c, 1, 40, 96
3, 223175, Note_on_c, 1, 33, 0
3, 224019, Note_on_c, 1, 40, 0
3, 224088, Note_on_c, 1, 30, 79
3, 224995, Note_on_c, 1, 30, 0
3, 225045, Note_on_c, 1, 29, 71
3, 225091, Note_on_c, 1, 30, 30
3, 225133, Note_on_c, 1, 30, 0
3, 226998, Note_on_c, 1, 29, 0
3, 227004, Note_on_c, 1, 30, 85
3, 228878, Note_on_c, 1, 31, 91
3, 228915, Note_on_c, 1, 30, 0
3, 230209, Note_on_c, 1, 31, 0
3, 230222, Note_on_c, 1, 34, 67
3, 230416, Note_on_c, 1, 34, 0
3, 230516, Note_on_c, 1, 35, 88
3, 230806, Note_on_c, 1, 35, 0
3, 230844, Note_on_c, 1, 36, 91
3, 231818, Note_on_c, 1, 30, 83
3, 231820, Note_on_c, 1, 36, 0
3, 232683, Note_on_c, 1, 30, 0
3, 232744, Note_on_c, 1, 29, 70
3, 234283, Note_on_c, 1, 29, 0
3, 234317, Note_on_c, 1, 41, 95
3, 234612, Note_on_c, 1, 41, 0
3, 234656, Note_on_c, 1, 42, 93
3, 236221, Note_on_c, 1, 38, 56
3, 236266, Note_on_c, 1, 38, 0
3, 236533, Note_on_c, 1, 42, 0
3, 236536, Note_on_c, 1, 43, 71
3, 237459, Note_on_c, 1, 43, 0
3, 237502, Note_on_c, 1, 32, 56
3, 237506, Note_on_c, 1, 47, 64
3, 238309, Note_on_c, 1, 47, 0
3, 238436, Note_on_c, 1, 32, 0
3, 238474, Note_on_c, 1, 33, 68
3, 239772, Note_on_c, 1, 40, 68
3, 239776, Note_on_c, 1, 33, 0
3, 239932, Note_on_c, 1, 40, 0
3, 240054, Note_on_c, 1, 37, 81
3, 240368, Note_on_c, 1, 37, 0
3, 240408, Note_on_c, 1, 38, 95
3, 241362, Note_on_c, 1, 40, 87
3, 241417, Note_on_c, 1, 38, 0
3, 242337, Note_on_c, 1, 41, 83
3, 242360, Note_on_c, 1, 40, 0
3, 243270, Note_on_c, 1, 41, 0
3, 243280, Note_on_c, 1, 43, 72
3, 244230, Note_on_c, 1, 36, 74
3, 244231, Note_on_c, 1, 43, 0
3, 245527, Note_on_c, 1, 45, 101
3, 245820, Note_on_c, 1, 36, 0
3, 245823, Note_on_c, 1, 44, 83
3, 245824, Note_on_c, 1, 45, 0
3, 246120, Note_on_c, 1, 44, 0
3, 246156, Note_on_c, 1, 43, 80
3, 246799, Note_on_c, 1, 43, 0
3, 246819, Note_on_c, 1, 30, 69
3, 247155, Note_on_c, 1, 30, 0
3, 247161, Note_on_c, 1, 31, 75
3, 247633, Note_on_c, 1, 31, 0
3, 247633, End_track
4, 0, Start_track
4, 0, Control_c, 9, 0, 0
4, 1, Control_c, 9, 32, 0
4, 2, Program_c, 9, 32
4, 119048, Note_on_c, 9, 59, 53
4, 119215, Note_on_c, 9, 59, 0
4, 119416, Note_on_c, 9, 59, 66
4, 119522, Note_on_c, 9, 59, 0
4, 121086, Note_on_c, 9, 59, 96
4, 121227, Note_on_c, 9, 59, 0
4, 121443, Note_on_c, 9, 59, 99
4, 122045, Note_on_c, 9, 59, 0
4, 123357, Note_on_c, 9, 40, 54
4, 123445, Note_on_c, 9, 40, 0
4, 123971, Note_on_c, 9, 59, 73
4, 123976, Note_on_c, 9, 40, 89
4, 124037, Note_on_c, 9, 59, 0
4, 124176, Note_on_c, 9, 40, 0
4, 124305, Note_on_c, 9, 40, 52
4, 124363, Note_on_c, 9, 59, 84
4, 124427, Note_on_c, 9, 40, 0
4, 124442, Note_on_c, 9, 59, 0
4, 124932, Note_on_c, 9, 36, 88
4, 125013, Note_on_c, 9, 52, 48
4, 125060, Note_on_c, 9, 36, 0
4, 125067, Note_on_c, 9, 52, 0
4, 125286, Note_on_c, 9, 36, 73
4, 125453, Note_on_c, 9, 36, 0
4, 126243, Note_on_c, 9, 51, 69
4, 126339, Note_on_c, 9, 51, 0
4, 127145, Note_on_c, 9, 51, 87
4, 127363, Note_on_c, 9, 51, 0
4, 128126, Note_on_c, 9, 51, 86
4, 128195, Note_on_c, 9, 37, 88
4, 128266, Note_on_c, 9, 51, 0
4, 128460, Note_on_c, 9, 37, 0
4, 128764, Note_on_c, 9, 51, 71
4, 128801, Note_on_c, 9, 36, 45
4, 128861, Note_on_c, 9, 51, 0
4, 128895, Note_on_c, 9, 36, 0
4, 129051, Note_on_c, 9, 53, 91
4, 129172, Note_on_c, 9, 36, 43
4, 129313, Note_on_c, 9, 36, 0
4, 129624, Note_on_c, 9, 53, 0
4, 129696, Note_on_c, 9, 51, 40
4, 129924, Note_on_c, 9, 51, 0
4, 130038, Note_on_c, 9, 51, 46
4, 130483, Note_on_c, 9, 51, 0
4, 130655, Note_on_c, 9, 51, 95
4, 130887, Note_on_c, 9, 51, 0
4, 130990, Note_on_c, 9, 51, 49
4, 131416, Note_on_c, 9, 51, 0
4, 132359, Note_on_c, 9, 51, 46
4, 132405, Note_on_c, 9, 51, 0
4, 132547, Note_on_c, 9, 36, 56
4, 132605, Note_on_c, 9, 51, 93
4, 132737, Note_on_c, 9, 36, 0
4, 132892, Note_on_c, 9, 51, 0
4, 133498, Note_on_c, 9, 51, 25
4, 133545, Note_on_c, 9, 51, 0
4, 134113, Note_on_c, 9, 51, 67
4, 134216, Note_on_c, 9, 51, 0
4, 134380, Note_on_c, 9, 38, 64
4, 134402, Note_on_c, 9, 51, 88
4, 134536, Note_on_c, 9, 38, 0
4, 134748, Note_on_c, 9, 36, 38
4, 134838, Note_on_c, 9, 51, 0
4, 134928, Note_on_c, 9, 36, 0
4, 135412, Note_on_c, 9, 36, 49
4, 135594, Note_on_c, 9, 36, 0
4, 135696, Note_on_c, 9, 51, 75
4, 136219, Note_on_c, 9, 51, 0
4, 137351, Note_on_c, 9, 51, 50
4, 137469, Note_on_c, 9, 51, 0
4, 137715, Note_on_c, 9, 51, 67
4, 137716, Note_on_c, 9, 38, 48
4, 137791, Note_on_c, 9, 38, 0
4, 137971, Note_on_c, 9, 38, 36
4, 138049, Note_on_c, 9, 38, 0
4, 138217, Note_on_c, 9, 51, 0
4, 138350, Note_on_c, 9, 36, 33
4, 138427, Note_on_c, 9, 36, 0
4, 138625, Note_on_c, 9, 51, 77
4, 139175, Note_on_c, 9, 51, 0
4, 139617, Note_on_c, 9, 51, 84
4, 139647, Note_on_c, 9, 38, 71
4, 139729, Note_on_c, 9, 38, 0
4, 139838, Note_on_c, 9, 51, 0
4, 140237, Note_on_c, 9, 51, 67
4, 140313, Note_on_c, 9, 38, 87
4, 140370, Note_on_c, 9, 51, 0
4, 140446, Note_on_c, 9, 38, 0
4, 140563, Note_on_c, 9, 51, 67
4, 140846, Note_on_c, 9, 51, 0
4, 140925, Note_on_c, 9, 38, 63
4, 141044, Note_on_c, 9, 38, 0
4, 141203, Note_on_c, 9, 53, 90
4, 141437, Note_on_c, 9, 53, 0
4, 141527, Note_on_c, 9, 51, 49
4, 141567, Note_on_c, 9, 38, 68
4, 141681, Note_on_c, 9, 38, 0
4, 141902, Note_on_c, 9, 36, 24
4, 141969, Note_on_c, 9, 36, 0
4, 142018, Note_on_c, 9, 51, 0
4, 142158, Note_on_c, 9, 36, 72
4, 142199, Note_on_c, 9, 51, 58
4, 142320, Note_on_c, 9, 51, 0
4, 142417, Note_on_c, 9, 36, 0
4, 142489, Note_on_c, 9, 51, 67
4, 142498, Note_on_c, 9, 36, 83
4, 142952, Note_on_c, 9, 36, 0
4, 143115, Note_on_c, 9, 51, 0
4, 143472, Note_on_c, 9, 51, 77
4, 143474, Note_on_c, 9, 59, 73
4, 143701, Note_on_c, 9, 51, 0
4, 143765, Note_on_c, 9, 59, 0
4, 144438, Note_on_c, 9, 51, 71
4, 144446, Note_on_c, 9, 59, 71
4, 144579, Note_on_c, 9, 59, 0
4, 144582, Note_on_c, 9, 51, 0
4, 145388, Note_on_c, 9, 51, 87
4, 145965, Note_on_c, 9, 51, 0
4, 146348, Note_on_c, 9, 51, 88
4, 146793, Note_on_c, 9, 51, 0
4, 146994, Note_on_c, 9, 51, 53
4, 147121, Note_on_c, 9, 51, 0
4, 147289, Note_on_c, 9, 51, 86
4, 147604, Note_on_c, 9, 40, 33
4, 147747, Note_on_c, 9, 40, 0
4, 147905, Note_on_c, 9, 40, 62
4, 147951, Note_on_c, 9, 51, 0
4, 148107, Note_on_c, 9, 40, 0
4, 148255, Note_on_c, 9, 51, 88
4, 148269, Note_on_c, 9, 36, 34
4, 148473, Note_on_c, 9, 36, 0
4, 148498, Note_on_c, 9, 51, 0
4, 148557, Note_on_c, 9, 51, 69
4, 148926, Note_on_c, 9, 36, 87
4, 148971, Note_on_c, 9, 51, 0
4, 149180, Note_on_c, 9, 36, 0
4, 149267, Note_on_c, 9, 51, 86
4, 149281, Note_on_c, 9, 36, 74
4, 149636, Note_on_c, 9, 36, 0
4, 149833, Note_on_c, 9, 51, 0
4, 150167, Note_on_c, 9, 51, 85
4, 150398, Note_on_c, 9, 51, 0
4, 150470, Note_on_c, 9, 51, 69
4, 150800, Note_on_c, 9, 51, 0
4, 151118, Note_on_c, 9, 51, 85
4, 151133, Note_on_c, 9, 37, 98
4, 151344, Note_on_c, 9, 51, 0
4, 151378, Note_on_c, 9, 37, 0
4, 151430, Note_on_c, 9, 51, 55
4, 151696, Note_on_c, 9, 51, 0
4, 151763, Note_on_c, 9, 36, 65
4, 151919, Note_on_c, 9, 36, 0
4, 152096, Note_on_c, 9, 51, 83
4, 152101, Note_on_c, 9, 36, 71
4, 152287, Note_on_c, 9, 51, 0
4, 152346, Note_on_c, 9, 36, 0
4, 152367, Note_on_c, 9, 51, 52
4, 152518, Note_on_c, 9, 51, 0
4, 152712, Note_on_c, 9, 51, 76
4, 153040, Note_on_c, 9, 38, 64
4, 153178, Note_on_c, 9, 38, 0
4, 153207, Note_on_c, 9, 51, 0
4, 153368, Note_on_c, 9, 38, 63
4, 153435, Note_on_c, 9, 38, 0
4, 153623, Note_on_c, 9, 51, 54
4, 153692, Note_on_c, 9, 36, 42
4, 153718, Note_on_c, 9, 51, 0
4, 153760, Note_on_c, 9, 36, 0
4, 153993, Note_on_c, 9, 51, 85
4, 154015, Note_on_c, 9, 38, 49
4, 154073, Note_on_c, 9, 38, 0
4, 154297, Note_on_c, 9, 38, 68
4, 154397, Note_on_c, 9, 38, 0
4, 154438, Note_on_c, 9, 51, 0
4, 154635, Note_on_c, 9, 38, 54
4, 154709, Note_on_c, 9, 38, 0
4, 154954, Note_on_c, 9, 51, 75
4, 154988, Note_on_c, 9, 38, 63
4, 155072, Note_on_c, 9, 51, 0
4, 155080, Note_on_c, 9, 38, 0
4, 155310, Note_on_c, 9, 36, 58
4, 155363, Note_on_c, 9, 36, 0
4, 155606, Note_on_c, 9, 36, 81
4, 155620, Note_on_c, 9, 51, 64
4, 155763, Note_on_c, 9, 36, 0
4, 155775, Note_on_c, 9, 51, 0
4, 155927, Note_on_c, 9, 59, 77
4, 155944, Note_on_c, 9, 51, 56
4, 155953, Note_on_c, 9, 57, 96
4, 155958, Note_on_c, 9, 36, 92
4, 156182, Note_on_c, 9, 59, 0
4, 156214, Note_on_c, 9, 51, 0
4, 156907, Note_on_c, 9, 59, 80
4, 156926, Note_on_c, 9, 51, 47
4, 157040, Note_on_c, 9, 59, 0
4, 157078, Note_on_c, 9, 57, 0
4, 157122, Note_on_c, 9, 51, 0
4, 157299, Note_on_c, 9, 38, 76
4, 157318, Note_on_c, 9, 36, 0
4, 157426, Note_on_c, 9, 38, 0
4, 157591, Note_on_c, 9, 38, 71
4, 157787, Note_on_c, 9, 38, 0
4, 157921, Note_on_c, 9, 57, 80
4, 157924, Note_on_c, 9, 59, 80
4, 157925, Note_on_c, 9, 51, 62
4, 157932, Note_on_c, 9, 36, 76
4, 158024, Note_on_c, 9, 59, 0
4, 158068, Note_on_c, 9, 51, 0
4, 158587, Note_on_c, 9, 51, 60
4, 158676, Note_on_c, 9, 51, 0
4, 158908, Note_on_c, 9, 57, 0
4, 158910, Note_on_c, 9, 51, 73
4, 159070, Note_on_c, 9, 51, 0
4, 159564, Note_on_c, 9, 51, 53
4, 159651, Note_on_c, 9, 51, 0
4, 159702, Note_on_c, 9, 36, 0
4, 159880, Note_on_c, 9, 59, 74
4, 159940, Note_on_c, 9, 51, 29
4, 160078, Note_on_c, 9, 51, 0
4, 160096, Note_on_c, 9, 59, 0
4, 160867, Note_on_c, 9, 51, 75
4, 161193, Note_on_c, 9, 51, 0
4, 161795, Note_on_c, 9, 51, 71
4, 162160, Note_on_c, 9, 51, 0
4, 162380, Note_on_c, 9, 51, 62
4, 162390, Note_on_c, 9, 53, 66
4, 162649, Note_on_c, 9, 51, 0
4, 162718, Note_on_c, 9, 53, 0
4, 163322, Note_on_c, 9, 38, 46
4, 163393, Note_on_c, 9, 38, 0
4, 163431, Note_on_c, 9, 51, 53
4, 163571, Note_on_c, 9, 51, 0
4, 163647, Note_on_c, 9, 36, 37
4, 163719, Note_on_c, 9, 51, 49
4, 163819, Note_on_c, 9, 36, 0
4, 164190, Note_on_c, 9, 51, 0
4, 164263, Note_on_c, 9, 36, 30
4, 164358, Note_on_c, 9, 36, 0
4, 164571, Note_on_c, 9, 51, 74
4, 164851, Note_on_c, 9, 51, 0
4, 165462, Note_on_c, 9, 51, 70
4, 165710, Note_on_c, 9, 51, 0
4, 166432, Note_on_c, 9, 51, 69
4, 166693, Note_on_c, 9, 51, 0
4, 167358, Note_on_c, 9, 51, 69
4, 167541, Note_on_c, 9, 51, 0
4, 168136, Note_on_c, 9, 38, 52
4, 168190, Note_on_c, 9, 38, 0
4, 168409, Note_on_c, 9, 51, 71
4, 168494, Note_on_c, 9, 38, 32
4, 168545, Note_on_c, 9, 51, 0
4, 168680, Note_on_c, 9, 38, 0
4, 169045, Note_on_c, 9, 53, 87
4, 169065, Note_on_c, 9, 36, 30
4, 169083, Note_on_c, 9, 51, 55
4, 169131, Note_on_c, 9, 51, 0
4, 169210, Note_on_c, 9, 36, 0
4, 169304, Note_on_c, 9, 53, 0
4, 169406, Note_on_c, 9, 51, 36
4, 169820, Note_on_c, 9, 51, 0
4, 169998, Note_on_c, 9, 51, 51
4, 170139, Note_on_c, 9, 51, 0
4, 170337, Note_on_c, 9, 51, 63
4, 170349, Note_on_c, 9, 53, 63
4, 170595, Note_on_c, 9, 51, 0
4, 170604, Note_on_c, 9, 38, 31
4, 170630, Note_on_c, 9, 53, 0
4, 170752, Note_on_c, 9, 38, 0
4, 170968, Note_on_c, 9, 51, 52
4, 171175, Note_on_c, 9, 51, 0
4, 171291, Note_on_c, 9, 38, 49
4, 171353, Note_on_c, 9, 51, 54
4, 171357, Note_on_c, 9, 38, 0
4, 171851, Note_on_c, 9, 51, 0
4, 171952, Note_on_c, 9, 38, 53
4, 172030, Note_on_c, 9, 38, 0
4, 172293, Note_on_c, 9, 51, 82
4, 172308, Note_on_c, 9, 36, 32
4, 172545, Note_on_c, 9, 36, 0
4, 172670, Note_on_c, 9, 51, 0
4, 172911, Note_on_c, 9, 36, 48
4, 172990, Note_on_c, 9, 51, 39
4, 173069, Note_on_c, 9, 36, 0
4, 173121, Note_on_c, 9, 51, 0
4, 173254, Note_on_c, 9, 51, 67
4, 173846, Note_on_c, 9, 51, 0
4, 174223, Note_on_c, 9, 51, 83
4, 174729, Note_on_c, 9, 51, 0
4, 175160, Note_on_c, 9, 51, 83
4, 175608, Note_on_c, 9, 51, 0
4, 175891, Note_on_c, 9, 51, 49
4, 175951, Note_on_c, 9, 51, 0
4, 176124, Note_on_c, 9, 51, 79
4, 176148, Note_on_c, 9, 37, 90
4, 176481, Note_on_c, 9, 37, 0
4, 176706, Note_on_c, 9, 51, 0
4, 176807, Note_on_c, 9, 36, 34
4, 176947, Note_on_c, 9, 36, 0
4, 177153, Note_on_c, 9, 51, 34
4, 177158, Note_on_c, 9, 36, 52
4, 177202, Note_on_c, 9, 51, 0
4, 177346, Note_on_c, 9, 36, 0
4, 177423, Note_on_c, 9, 51, 68
4, 177756, Note_on_c, 9, 51, 0
4, 178101, Note_on_c, 9, 51, 84
4, 178554, Note_on_c, 9, 51, 0
4, 178673, Note_on_c, 9, 51, 59
4, 178939, Note_on_c, 9, 51, 0
4, 179305, Note_on_c, 9, 51, 35
4, 179378, Note_on_c, 9, 51, 0
4, 179614, Note_on_c, 9, 51, 73
4, 179796, Note_on_c, 9, 51, 0
4, 179928, Note_on_c, 9, 51, 60
4, 180340, Note_on_c, 9, 51, 0
4, 180576, Note_on_c, 9, 36, 60
4, 180594, Note_on_c, 9, 51, 90
4, 180801, Note_on_c, 9, 51, 0
4, 180812, Note_on_c, 9, 36, 0
4, 180909, Note_on_c, 9, 51, 61
4, 180943, Note_on_c, 9, 36, 61
4, 181172, Note_on_c, 9, 36, 0
4, 181450, Note_on_c, 9, 51, 0
4, 181552, Note_on_c, 9, 51, 44
4, 181643, Note_on_c, 9, 51, 0
4, 181857, Note_on_c, 9, 51, 84
4, 182189, Note_on_c, 9, 38, 50
4, 182250, Note_on_c, 9, 38, 0
4, 182461, Note_on_c, 9, 38, 48
4, 182463, Note_on_c, 9, 51, 0
4, 182606, Note_on_c, 9, 38, 0
4, 182789, Note_on_c, 9, 38, 57
4, 182793, Note_on_c, 9, 51, 91
4, 182913, Note_on_c, 9, 38, 0
4, 183122, Note_on_c, 9, 36, 34
4, 183236, Note_on_c, 9, 36, 0
4, 183355, Note_on_c, 9, 51, 0
4, 183438, Note_on_c, 9, 36, 64
4, 183644, Note_on_c, 9, 36, 0
4, 183697, Note_on_c, 9, 51, 80
4, 184299, Note_on_c, 9, 51, 0
4, 184402, Note_on_c, 9, 38, 51
4, 184487, Note_on_c, 9, 38, 0
4, 184656, Note_on_c, 9, 51, 77
4, 184705, Note_on_c, 9, 38, 60
4, 184998, Note_on_c, 9, 38, 0
4, 185371, Note_on_c, 9, 36, 58
4, 185377, Note_on_c, 9, 51, 0
4, 185475, Note_on_c, 9, 36, 0
4, 185711, Note_on_c, 9, 51, 71
4, 185752, Note_on_c, 9, 38, 70
4, 185885, Note_on_c, 9, 38, 0
4, 186161, Note_on_c, 9, 51, 0
4, 186387, Note_on_c, 9, 36, 71
4, 186460, Note_on_c, 9, 36, 0
4, 186679, Note_on_c, 9, 51, 70
4, 186713, Note_on_c, 9, 57, 84
4, 186723, Note_on_c, 9, 38, 78
4, 186726, Note_on_c, 9, 36, 77
4, 186828, Note_on_c, 9, 38, 0
4, 186849, Note_on_c, 9, 57, 0
4, 186884, Note_on_c, 9, 36, 0
4, 187242, Note_on_c, 9, 51, 0
4, 187639, Note_on_c, 9, 51, 78
4, 188095, Note_on_c, 9, 51, 0
4, 188287, Note_on_c, 9, 38, 37
4, 188323, Note_on_c, 9, 51, 30
4, 188391, Note_on_c, 9, 38, 0
4, 188480, Note_on_c, 9, 51, 0
4, 188566, Note_on_c, 9, 51, 76
4, 188668, Note_on_c, 9, 38, 29
4, 188771, Note_on_c, 9, 38, 0
4, 189214, Note_on_c, 9, 51, 0
4, 189287, Note_on_c, 9, 36, 32
4, 189406, Note_on_c, 9, 36, 0
4, 189563, Note_on_c, 9, 51, 80
4, 189616, Note_on_c, 9, 36, 47
4, 189844, Note_on_c, 9, 36, 0
4, 190006, Note_on_c, 9, 51, 0
4, 190195, Note_on_c, 9, 36, 81
4, 190221, Note_on_c, 9, 51, 50
4, 190324, Note_on_c, 9, 51, 0
4, 190388, Note_on_c, 9, 36, 0
4, 190480, Note_on_c, 9, 51, 69
4, 191042, Note_on_c, 9, 51, 0
4, 191424, Note_on_c, 9, 51, 87
4, 191630, Note_on_c, 9, 51, 0
4, 191711, Note_on_c, 9, 51, 62
4, 192046, Note_on_c, 9, 51, 0
4, 192374, Note_on_c, 9, 51, 83
4, 192987, Note_on_c, 9, 51, 0
4, 193317, Note_on_c, 9, 51, 82
4, 193599, Note_on_c, 9, 40, 57
4, 193791, Note_on_c, 9, 40, 0
4, 193841, Note_on_c, 9, 51, 0
4, 193918, Note_on_c, 9, 40, 65
4, 194117, Note_on_c, 9, 40, 0
4, 194233, Note_on_c, 9, 36, 48
4, 194264, Note_on_c, 9, 51, 81
4, 194463, Note_on_c, 9, 36, 0
4, 194821, Note_on_c, 9, 51, 0
4, 195238, Note_on_c, 9, 51, 80
4, 195730, Note_on_c, 9, 51, 0
4, 195941, Note_on_c, 9, 51, 50
4, 196049, Note_on_c, 9, 51, 0
4, 196202, Note_on_c, 9, 51, 73
4, 196829, Note_on_c, 9, 51, 0
4, 197191, Note_on_c, 9, 51, 84
4, 197787, Note_on_c, 9, 51, 0
4, 197853, Note_on_c, 9, 36, 47
4, 197957, Note_on_c, 9, 36, 0
4, 198121, Note_on_c, 9, 51, 81
4, 198563, Note_on_c, 9, 51, 0
4, 198786, Note_on_c, 9, 51, 42
4, 198859, Note_on_c, 9, 51, 0
4, 199052, Note_on_c, 9, 51, 75
4, 199664, Note_on_c, 9, 51, 0
4, 199787, Note_on_c, 9, 38, 73
4, 199918, Note_on_c, 9, 38, 0
4, 200061, Note_on_c, 9, 36, 32
4, 200064, Note_on_c, 9, 51, 81
4, 200493, Note_on_c, 9, 36, 0
4, 200596, Note_on_c, 9, 51, 0
4, 200745, Note_on_c, 9, 36, 49
4, 200910, Note_on_c, 9, 36, 0
4, 201077, Note_on_c, 9, 51, 78
4, 201099, Note_on_c, 9, 36, 53
4, 201475, Note_on_c, 9, 51, 0
4, 201671, Note_on_c, 9, 36, 0
4, 202014, Note_on_c, 9, 51, 75
4, 202351, Note_on_c, 9, 51, 0
4, 203005, Note_on_c, 9, 51, 82
4, 203247, Note_on_c, 9, 51, 0
4, 203652, Note_on_c, 9, 51, 44
4, 203768, Note_on_c, 9, 51, 0
4, 203940, Note_on_c, 9, 51, 64
4, 204209, Note_on_c, 9, 51, 0
4, 204579, Note_on_c, 9, 51, 74
4, 204580, Note_on_c, 9, 53, 76
4, 205330, Note_on_c, 9, 51, 0
4, 205535, Note_on_c, 9, 53, 0
4, 205538, Note_on_c, 9, 51, 33
4, 205659, Note_on_c, 9, 51, 0
4, 205864, Note_on_c, 9, 51, 62
4, 206470, Note_on_c, 9, 51, 0
4, 206788, Note_on_c, 9, 51, 77
4, 207422, Note_on_c, 9, 51, 0
4, 207750, Note_on_c, 9, 51, 60
4, 207958, Note_on_c, 9, 51, 0
4, 208046, Note_on_c, 9, 51, 69
4, 208078, Note_on_c, 9, 37, 67
4, 208451, Note_on_c, 9, 51, 0
4, 208516, Note_on_c, 9, 37, 0
4, 208744, Note_on_c, 9, 51, 83
4, 208777, Note_on_c, 9, 37, 74
4, 209168, Note_on_c, 9, 51, 0
4, 209224, Note_on_c, 9, 37, 0
4, 209361, Note_on_c, 9, 51, 77
4, 209427, Note_on_c, 9, 37, 69
4, 209696, Note_on_c, 9, 51, 0
4, 209819, Note_on_c, 9, 37, 0
4, 210029, Note_on_c, 9, 51, 59
4, 210078, Note_on_c, 9, 37, 61
4, 210238, Note_on_c, 9, 51, 0
4, 210285, Note_on_c, 9, 37, 0
4, 210365, Note_on_c, 9, 36, 37
4, 210390, Note_on_c, 9, 51, 59
4, 210547, Note_on_c, 9, 51, 0
4, 210608, Note_on_c, 9, 36, 0
4, 210752, Note_on_c, 9, 36, 59
4, 210766, Note_on_c, 9, 51, 70
4, 211130, Note_on_c, 9, 51, 0
4, 211228, Note_on_c, 9, 36, 0
4, 211365, Note_on_c, 9, 36, 64
4, 211390, Note_on_c, 9, 51, 77
4, 211552, Note_on_c, 9, 51, 0
4, 211648, Note_on_c, 9, 36, 0
4, 211744, Note_on_c, 9, 51, 63
4, 212336, Note_on_c, 9, 36, 36
4, 212351, Note_on_c, 9, 51, 0
4, 212516, Note_on_c, 9, 36, 0
4, 212659, Note_on_c, 9, 51, 83
4, 212678, Note_on_c, 9, 38, 36
4, 212734, Note_on_c, 9, 38, 0
4, 213027, Note_on_c, 9, 38, 57
4, 213063, Note_on_c, 9, 51, 0
4, 213116, Note_on_c, 9, 38, 0
4, 213304, Note_on_c, 9, 51, 60
4, 213421, Note_on_c, 9, 51, 0
4, 213575, Note_on_c, 9, 51, 67
4, 214119, Note_on_c, 9, 51, 0
4, 214142, Note_on_c, 9, 36, 50
4, 214288, Note_on_c, 9, 36, 0
4, 214483, Note_on_c, 9, 51, 83
4, 214507, Note_on_c, 9, 38, 44
4, 214578, Note_on_c, 9, 38, 0
4, 214814, Note_on_c, 9, 38, 65
4, 214866, Note_on_c, 9, 38, 0
4, 214869, Note_on_c, 9, 51, 0
4, 215146, Note_on_c, 9, 36, 38
4, 215191, Note_on_c, 9, 51, 63
4, 215230, Note_on_c, 9, 36, 0
4, 215282, Note_on_c, 9, 51, 0
4, 215469, Note_on_c, 9, 38, 40
4, 215534, Note_on_c, 9, 38, 0
4, 215786, Note_on_c, 9, 38, 60
4, 215872, Note_on_c, 9, 38, 0
4, 216114, Note_on_c, 9, 36, 41
4, 216126, Note_on_c, 9, 51, 54
4, 216245, Note_on_c, 9, 51, 0
4, 216310, Note_on_c, 9, 36, 0
4, 216427, Note_on_c, 9, 38, 59
4, 216446, Note_on_c, 9, 51, 68
4, 216486, Note_on_c, 9, 38, 0
4, 216741, Note_on_c, 9, 38, 55
4, 216795, Note_on_c, 9, 38, 0
4, 216809, Note_on_c, 9, 51, 0
4, 217080, Note_on_c, 9, 36, 76
4, 217103, Note_on_c, 9, 51, 57
4, 217244, Note_on_c, 9, 51, 0
4, 217249, Note_on_c, 9, 36, 0
4, 217416, Note_on_c, 9, 36, 79
4, 217418, Note_on_c, 9, 57, 78
4, 217421, Note_on_c, 9, 51, 57
4, 217449, Note_on_c, 9, 59, 55
4, 217877, Note_on_c, 9, 59, 0
4, 217921, Note_on_c, 9, 51, 0
4, 218360, Note_on_c, 9, 51, 74
4, 218362, Note_on_c, 9, 59, 79
4, 218830, Note_on_c, 9, 59, 0
4, 218866, Note_on_c, 9, 51, 0
4, 219017, Note_on_c, 9, 57, 0
4, 219273, Note_on_c, 9, 51, 70
4, 219280, Note_on_c, 9, 59, 68
4, 219397, Note_on_c, 9, 36, 0
4, 219708, Note_on_c, 9, 59, 0
4, 219766, Note_on_c, 9, 51, 0
4, 220177, Note_on_c, 9, 51, 72
4, 220186, Note_on_c, 9, 59, 69
4, 220416, Note_on_c, 9, 59, 0
4, 220537, Note_on_c, 9, 51, 0
4, 220555, Note_on_c, 9, 38, 46
4, 220657, Note_on_c, 9, 38, 0
4, 220840, Note_on_c, 9, 38, 55
4, 220858, Note_on_c, 9, 51, 56
4, 220937, Note_on_c, 9, 51, 0
4, 221002, Note_on_c, 9, 38, 0
4, 221147, Note_on_c, 9, 59, 71
4, 221157, Note_on_c, 9, 51, 75
4, 221183, Note_on_c, 9, 36, 57
4, 221624, Note_on_c, 9, 59, 0
4, 221637, Note_on_c, 9, 36, 0
4, 221727, Note_on_c, 9, 51, 0
4, 221860, Note_on_c, 9, 36, 62
4, 222101, Note_on_c, 9, 36, 0
4, 222104, Note_on_c, 9, 51, 74
4, 222118, Note_on_c, 9, 59, 69
4, 222605, Note_on_c, 9, 59, 0
4, 222674, Note_on_c, 9, 51, 0
4, 223069, Note_on_c, 9, 51, 72
4, 223083, Note_on_c, 9, 59, 70
4, 223614, Note_on_c, 9, 59, 0
4, 223673, Note_on_c, 9, 51, 0
4, 224064, Note_on_c, 9, 51, 73
4, 224075, Note_on_c, 9, 59, 71
4, 224432, Note_on_c, 9, 59, 0
4, 224494, Note_on_c, 9, 51, 0
4, 224723, Note_on_c, 9, 51, 53
4, 224823, Note_on_c, 9, 51, 0
4, 225053, Note_on_c, 9, 51, 69
4, 225064, Note_on_c, 9, 59, 64
4, 225475, Note_on_c, 9, 59, 0
4, 225481, Note_on_c, 9, 51, 0
4, 225735, Note_on_c, 9, 51, 39
4, 225821, Note_on_c, 9, 51, 0
4, 226061, Note_on_c, 9, 51, 75
4, 226064, Note_on_c, 9, 59, 74
4, 226111, Note_on_c, 9, 40, 89
4, 226316, Note_on_c, 9, 40, 0
4, 226509, Note_on_c, 9, 59, 0
4, 226610, Note_on_c, 9, 51, 0
4, 226768, Note_on_c, 9, 36, 54
4, 226984, Note_on_c, 9, 36, 0
4, 227018, Note_on_c, 9, 51, 69
4, 227027, Note_on_c, 9, 59, 66
4, 227145, Note_on_c, 9, 36, 66
4, 227341, Note_on_c, 9, 59, 0
4, 227424, Note_on_c, 9, 36, 0
4, 227554, Note_on_c, 9, 51, 0
4, 227639, Note_on_c, 9, 59, 68
4, 227769, Note_on_c, 9, 59, 0
4, 227960, Note_on_c, 9, 59, 54
4, 227961, Note_on_c, 9, 51, 57
4, 228392, Note_on_c, 9, 59, 0
4, 228481, Note_on_c, 9, 51, 0
4, 228856, Note_on_c, 9, 51, 71
4, 228870, Note_on_c, 9, 59, 68
4, 229308, Note_on_c, 9, 59, 0
4, 229405, Note_on_c, 9, 51, 0
4, 229545, Note_on_c, 9, 36, 33
4, 229758, Note_on_c, 9, 36, 0
4, 229840, Note_on_c, 9, 51, 68
4, 229847, Note_on_c, 9, 59, 69
4, 229901, Note_on_c, 9, 40, 85
4, 230128, Note_on_c, 9, 40, 0
4, 230273, Note_on_c, 9, 59, 0
4, 230334, Note_on_c, 9, 51, 0
4, 230486, Note_on_c, 9, 36, 75
4, 230744, Note_on_c, 9, 36, 0
4, 230761, Note_on_c, 9, 51, 71
4, 230798, Note_on_c, 9, 59, 53
4, 230837, Note_on_c, 9, 36, 71
4, 231131, Note_on_c, 9, 51, 0
4, 231222, Note_on_c, 9, 36, 0
4, 231238, Note_on_c, 9, 59, 0
4, 231385, Note_on_c, 9, 53, 66
4, 231400, Note_on_c, 9, 59, 46
4, 231579, Note_on_c, 9, 59, 0
4, 231654, Note_on_c, 9, 53, 0
4, 231740, Note_on_c, 9, 51, 40
4, 231788, Note_on_c, 9, 59, 28
4, 232002, Note_on_c, 9, 59, 0
4, 232305, Note_on_c, 9, 51, 0
4, 232400, Note_on_c, 9, 36, 62
4, 232633, Note_on_c, 9, 36, 0
4, 232722, Note_on_c, 9, 51, 60
4, 232736, Note_on_c, 9, 59, 64
4, 232748, Note_on_c, 9, 36, 63
4, 233094, Note_on_c, 9, 59, 0
4, 233160, Note_on_c, 9, 36, 0
4, 233262, Note_on_c, 9, 51, 0
4, 233668, Note_on_c, 9, 51, 58
4, 233687, Note_on_c, 9, 59, 58
4, 234081, Note_on_c, 9, 59, 0
4, 234178, Note_on_c, 9, 51, 0
4, 234627, Note_on_c, 9, 51, 70
4, 234644, Note_on_c, 9, 59, 65
4, 234797, Note_on_c, 9, 59, 0
4, 234887, Note_on_c, 9, 51, 0
4, 235299, Note_on_c, 9, 51, 78
4, 235430, Note_on_c, 9, 51, 0
4, 235646, Note_on_c, 9, 51, 69
4, 235648, Note_on_c, 9, 59, 66
4, 236086, Note_on_c, 9, 59, 0
4, 236189, Note_on_c, 9, 51, 0
4, 236226, Note_on_c, 9, 36, 63
4, 236420, Note_on_c, 9, 36, 0
4, 236542, Note_on_c, 9, 51, 79
4, 237066, Note_on_c, 9, 51, 0
4, 237501, Note_on_c, 9, 51, 82
4, 238050, Note_on_c, 9, 51, 0
4, 238162, Note_on_c, 9, 36, 57
4, 238200, Note_on_c, 9, 51, 60
4, 238347, Note_on_c, 9, 36, 0
4, 238561, Note_on_c, 9, 36, 42
4, 238793, Note_on_c, 9, 51, 0
4, 238828, Note_on_c, 9, 51, 25
4, 238990, Note_on_c, 9, 51, 0
4, 239009, Note_on_c, 9, 36, 0
4, 239117, Note_on_c, 9, 36, 56
4, 239162, Note_on_c, 9, 51, 57
4, 239217, Note_on_c, 9, 36, 0
4, 239290, Note_on_c, 9, 51, 0
4, 239485, Note_on_c, 9, 51, 74
4, 239993, Note_on_c, 9, 51, 0
4, 240140, Note_on_c, 9, 38, 57
4, 240158, Note_on_c, 9, 51, 71
4, 240261, Note_on_c, 9, 38, 0
4, 240301, Note_on_c, 9, 51, 0
4, 240458, Note_on_c, 9, 51, 77
4, 241026, Note_on_c, 9, 51, 0
4, 241047, Note_on_c, 9, 36, 49
4, 241166, Note_on_c, 9, 36, 0
4, 241414, Note_on_c, 9, 51, 80
4, 241670, Note_on_c, 9, 51, 0
4, 242026, Note_on_c, 9, 38, 64
4, 242027, Note_on_c, 9, 51, 55
4, 242143, Note_on_c, 9, 38, 0
4, 242149, Note_on_c, 9, 51, 0
4, 242337, Note_on_c, 9, 51, 74
4, 242441, Note_on_c, 9, 36, 25
4, 242511, Note_on_c, 9, 36, 0
4, 242872, Note_on_c, 9, 51, 0
4, 242957, Note_on_c, 9, 36, 51
4, 243043, Note_on_c, 9, 36, 0
4, 243614, Note_on_c, 9, 51, 71
4, 243737, Note_on_c, 9, 51, 0
4, 243947, Note_on_c, 9, 51, 83
4, 244106, Note_on_c, 9, 51, 0
4, 244288, Note_on_c, 9, 51, 83
4, 244612, Note_on_c, 9, 38, 46
4, 244672, Note_on_c, 9, 38, 0
4, 244833, Note_on_c, 9, 51, 0
4, 244924, Note_on_c, 9, 38, 27
4, 245069, Note_on_c, 9, 38, 0
4, 245229, Note_on_c, 9, 51, 84
4, 245252, Note_on_c, 9, 38, 39
4, 245319, Note_on_c, 9, 38, 0
4, 245614, Note_on_c, 9, 36, 44
4, 245678, Note_on_c, 9, 36, 0
4, 245801, Note_on_c, 9, 51, 0
4, 245923, Note_on_c, 9, 38, 44
4, 246032, Note_on_c, 9, 38, 0
4, 246201, Note_on_c, 9, 51, 86
4, 246268, Note_on_c, 9, 38, 53
4, 246316, Note_on_c, 9, 38, 0
4, 246564, Note_on_c, 9, 51, 0
4, 246603, Note_on_c, 9, 38, 35
4, 246674, Note_on_c, 9, 38, 0
4, 246864, Note_on_c, 9, 51, 50
4, 246929, Note_on_c, 9, 36, 60
4, 247019, Note_on_c, 9, 51, 0
4, 247060, Note_on_c, 9, 36, 0
4, 247216, Note_on_c, 9, 51, 71
4, 247259, Note_on_c, 9, 36, 49
4, 247324, Note_on_c, 9, 36, 0
4, 247438, Note_on_c, 9, 51, 0
4, 247606, Note_on_c, 9, 36, 51
4, 247656, Note_on_c, 9, 36, 0
4, 247834, Note_on_c, 9, 51, 87
4, 247897, Note_on_c, 9, 36, 80
4, 248020, Note_on_c, 9, 51, 0
4, 248054, Note_on_c, 9, 36, 0
4, 248180, Note_on_c, 9, 51, 74
4, 248361, Note_on_c, 9, 51, 0
4, 248497, Note_on_c, 9, 57, 82
4, 248598, Note_on_c, 9, 57, 0
4, 248598, End_track
0, 0, End_of_file
