0, 0, Header, 1, 8, 480
1, 0, Start_track
1, 0, Title_t, "untitled"
1, 0, Text_t, "I cover1\012"
1, 0, Text_t, "Waterfr1\012"
1, 0, Text_t, "Piano1  \012"
1, 0, Text_t, "AcouBass\012"
1, 0, Text_t, "Doug   1\012"
1, 0, Text_t, "TenrSax \012"
1, 0, Text_t, "McKenzi1\012"
1, 0, Text_t, "BrsSect \012"
1, 0, Text_t, "dougmck1\012"
1, 0, Text_t, "Piano1  \012"
1, 0, Text_t, "@deakin1\012"
1, 0, Text_t, "Piano1  \012"
1, 0, Text_t, "edu.au 1\012"
1, 0, Text_t, "Piano1  \012"
1, 0, Time_signature, 4, 2, 24, 8
1, 0, Key_signature, 1, "major"
1, 0, Tempo, 500000
1, 0, Marker_t, ""
1, 0, Marker_t, "I Cover the Waterfront  played by Doug McKenzie  dougmck@deakin.edu.au"
1, 0, End_track
2, 0, Start_track
2, 0, Control_c, 0, 7, 100
2, 0, Control_c, 0, 64, 127
2, 0, Note_on_c, 0, 28, 69
2, 60, Note_on_c, 0, 28, 0
2, 664, Note_on_c, 0, 71, 83
2, 668, Note_on_c, 0, 64, 94
2, 672, Note_on_c, 0, 67, 84
2, 672, Note_on_c, 0, 62, 94
2, 684, Note_on_c, 0, 57, 88
2, 908, Note_on_c, 0, 57, 0
2, 912, Note_on_c, 0, 67, 0
2, 932, Note_on_c, 0, 71, 0
2, 936, Note_on_c, 0, 64, 0
2, 952, Note_on_c, 0, 62, 0
2, 1260, Note_on_c, 0, 69, 78
2, 1268, Note_on_c, 0, 61, 77
2, 1272, Note_on_c, 0, 58, 68
2, 1272, Note_on_c, 0, 64, 71
2, 1284, Note_on_c, 0, 55, 64
2, 1308, Note_on_c, 0, 45, 47
2, 1328, Control_c, 0, 64, 0
2, 1528, Control_c, 0, 64, 127
2, 2384, Note_on_c, 0, 69, 0
2, 2492, Note_on_c, 0, 58, 0
2, 2520, Note_on_c, 0, 64, 0
2, 2572, Note_on_c, 0, 67, 57
2, 2648, Note_on_c, 0, 45, 0
2, 2692, Note_on_c, 0, 67, 0
2, 2744, Note_on_c, 0, 55, 0
2, 2812, Note_on_c, 0, 61, 0
2, 2824, Note_on_c, 0, 69, 60
2, 2856, Note_on_c, 0, 69, 0
2, 3120, Control_c, 0, 64, 0
2, 3120, Note_on_c, 0, 71, 53
2, 3128, Note_on_c, 0, 64, 48
2, 3132, Note_on_c, 0, 67, 49
2, 3132, Note_on_c, 0, 59, 45
2, 3140, Note_on_c, 0, 60, 39
2, 3224, Control_c, 0, 64, 127
2, 3344, Note_on_c, 0, 71, 0
2, 3472, Note_on_c, 0, 71, 56
2, 3496, Note_on_c, 0, 67, 0
2, 3508, Note_on_c, 0, 60, 0
2, 3556, Note_on_c, 0, 64, 0
2, 3636, Note_on_c, 0, 59, 0
2, 3644, Note_on_c, 0, 71, 0
2, 3872, Note_on_c, 0, 68, 39
2, 3872, Note_on_c, 0, 54, 42
2, 3880, Control_c, 0, 64, 0
2, 3880, Note_on_c, 0, 71, 40
2, 3884, Note_on_c, 0, 64, 48
2, 3892, Note_on_c, 0, 60, 28
2, 4012, Control_c, 0, 64, 127
2, 4136, Note_on_c, 0, 64, 0
2, 4180, Note_on_c, 0, 68, 0
2, 4192, Note_on_c, 0, 71, 0
2, 4260, Note_on_c, 0, 50, 51
2, 4284, Note_on_c, 0, 60, 0
2, 4300, Note_on_c, 0, 54, 0
2, 4360, Note_on_c, 0, 50, 0
2, 4732, Note_on_c, 0, 26, 53
2, 4840, Note_on_c, 0, 26, 0
2, 5248, Note_on_c, 0, 54, 49
2, 5800, Note_on_c, 0, 83, 35
2, 5804, Note_on_c, 0, 64, 27
2, 5812, Note_on_c, 0, 80, 33
2, 5812, Note_on_c, 0, 71, 22
2, 5812, Note_on_c, 0, 76, 42
2, 5824, Note_on_c, 0, 60, 32
2, 6436, Note_on_c, 0, 64, 0
2, 6440, Note_on_c, 0, 76, 0
2, 6444, Note_on_c, 0, 83, 0
2, 6452, Note_on_c, 0, 60, 0
2, 6456, Note_on_c, 0, 80, 0
2, 6540, Note_on_c, 0, 54, 0
2, 6560, Note_on_c, 0, 71, 0
2, 8204, Note_on_c, 0, 74, 88
2, 8212, Note_on_c, 0, 43, 55
2, 8212, Note_on_c, 0, 66, 88
2, 8212, Note_on_c, 0, 71, 81
2, 8232, Note_on_c, 0, 59, 47
2, 8268, Control_c, 0, 64, 0
2, 8544, Note_on_c, 0, 74, 0
2, 8552, Control_c, 0, 64, 127
2, 8624, Note_on_c, 0, 66, 0
2, 8652, Note_on_c, 0, 74, 82
2, 8664, Note_on_c, 0, 66, 35
2, 8680, Note_on_c, 0, 50, 56
2, 8692, Note_on_c, 0, 59, 0
2, 8696, Note_on_c, 0, 66, 0
2, 8700, Note_on_c, 0, 43, 0
2, 8724, Note_on_c, 0, 50, 0
2, 8764, Note_on_c, 0, 71, 0
2, 8784, Note_on_c, 0, 74, 0
2, 9168, Note_on_c, 0, 71, 63
2, 9184, Note_on_c, 0, 64, 68
2, 9188, Note_on_c, 0, 62, 64
2, 9204, Note_on_c, 0, 48, 48
2, 9208, Note_on_c, 0, 59, 45
2, 9228, Control_c, 0, 64, 0
2, 9528, Control_c, 0, 64, 127
2, 9852, Note_on_c, 0, 59, 0
2, 9896, Note_on_c, 0, 62, 0
2, 9928, Note_on_c, 0, 67, 58
2, 9932, Note_on_c, 0, 71, 0
2, 9932, Note_on_c, 0, 64, 0
2, 9972, Note_on_c, 0, 48, 0
2, 10048, Note_on_c, 0, 67, 0
2, 10384, Control_c, 0, 64, 0
2, 10392, Note_on_c, 0, 57, 48
2, 10392, Note_on_c, 0, 62, 51
2, 10400, Note_on_c, 0, 47, 41
2, 10400, Note_on_c, 0, 66, 42
2, 10484, Note_on_c, 0, 57, 0
2, 10504, Note_on_c, 0, 62, 0
2, 10520, Control_c, 0, 64, 127
2, 10560, Note_on_c, 0, 66, 0
2, 10848, Note_on_c, 0, 78, 63
2, 10852, Note_on_c, 0, 57, 48
2, 10852, Note_on_c, 0, 74, 67
2, 10860, Note_on_c, 0, 47, 0
2, 10864, Note_on_c, 0, 69, 53
2, 10912, Note_on_c, 0, 57, 0
2, 11048, Note_on_c, 0, 69, 0
2, 11064, Note_on_c, 0, 74, 0
2, 11136, Note_on_c, 0, 78, 0
2, 11384, Note_on_c, 0, 79, 66
2, 11392, Note_on_c, 0, 73, 61
2, 11392, Note_on_c, 0, 70, 52
2, 11404, Note_on_c, 0, 64, 52
2, 11444, Control_c, 0, 64, 0
2, 11560, Control_c, 0, 64, 127
2, 11592, Note_on_c, 0, 79, 0
2, 11676, Note_on_c, 0, 73, 0
2, 11692, Note_on_c, 0, 70, 0
2, 11904, Note_on_c, 0, 64, 0
2, 11980, Note_on_c, 0, 76, 44
2, 11992, Note_on_c, 0, 67, 34
2, 11992, Note_on_c, 0, 70, 36
2, 12004, Note_on_c, 0, 61, 31
2, 12040, Control_c, 0, 64, 0
2, 12144, Control_c, 0, 64, 127
2, 12604, Note_on_c, 0, 76, 0
2, 12664, Note_on_c, 0, 61, 0
2, 12680, Note_on_c, 0, 67, 0
2, 12684, Note_on_c, 0, 70, 0
2, 13360, Note_on_c, 0, 67, 72
2, 13388, Note_on_c, 0, 64, 74
2, 13412, Note_on_c, 0, 45, 34
2, 13412, Note_on_c, 0, 60, 69
2, 13440, Note_on_c, 0, 55, 38
2, 13452, Control_c, 0, 64, 0
2, 13464, Note_on_c, 0, 59, 30
2, 13864, Note_on_c, 0, 67, 0
2, 13912, Control_c, 0, 64, 127
2, 13952, Note_on_c, 0, 67, 58
2, 14104, Note_on_c, 0, 67, 0
2, 14224, Note_on_c, 0, 55, 0
2, 14332, Note_on_c, 0, 67, 57
2, 14352, Note_on_c, 0, 59, 0
2, 14440, Note_on_c, 0, 60, 0
2, 14464, Note_on_c, 0, 67, 0
2, 14492, Note_on_c, 0, 64, 0
2, 14516, Note_on_c, 0, 45, 0
2, 14692, Note_on_c, 0, 67, 69
2, 14708, Note_on_c, 0, 64, 66
2, 14708, Note_on_c, 0, 60, 57
2, 14724, Note_on_c, 0, 58, 63
2, 14800, Control_c, 0, 64, 0
2, 14860, Control_c, 0, 64, 127
2, 14944, Note_on_c, 0, 67, 0
2, 15000, Note_on_c, 0, 60, 0
2, 15020, Note_on_c, 0, 64, 0
2, 15044, Note_on_c, 0, 58, 0
2, 15132, Note_on_c, 0, 67, 57
2, 15140, Note_on_c, 0, 64, 51
2, 15144, Note_on_c, 0, 60, 58
2, 15148, Note_on_c, 0, 57, 57
2, 15152, Note_on_c, 0, 59, 50
2, 15192, Control_c, 0, 64, 0
2, 15488, Note_on_c, 0, 57, 0
2, 15544, Note_on_c, 0, 56, 37
2, 15700, Note_on_c, 0, 67, 0
2, 15752, Control_c, 0, 64, 127
2, 15796, Note_on_c, 0, 59, 0
2, 15832, Note_on_c, 0, 60, 0
2, 15844, Note_on_c, 0, 64, 0
2, 15972, Control_c, 0, 64, 0
2, 15976, Note_on_c, 0, 56, 0
2, 15992, Note_on_c, 0, 64, 43
2, 16000, Note_on_c, 0, 60, 39
2, 16000, Note_on_c, 0, 67, 38
2, 16004, Note_on_c, 0, 59, 35
2, 16012, Note_on_c, 0, 55, 44
2, 16188, Control_c, 0, 64, 127
2, 16544, Note_on_c, 0, 59, 0
2, 16580, Note_on_c, 0, 60, 0
2, 16584, Note_on_c, 0, 45, 50
2, 16616, Note_on_c, 0, 64, 0
2, 16648, Note_on_c, 0, 67, 0
2, 16732, Note_on_c, 0, 55, 0
2, 16864, Note_on_c, 0, 45, 0
2, 17208, Note_on_c, 0, 67, 96
2, 17352, Note_on_c, 0, 67, 0
2, 17500, Note_on_c, 0, 69, 95
2, 17684, Note_on_c, 0, 69, 0
2, 17752, Note_on_c, 0, 71, 82
2, 17912, Note_on_c, 0, 71, 0
2, 18004, Note_on_c, 0, 74, 90
2, 18112, Note_on_c, 0, 74, 0
2, 18304, Note_on_c, 0, 71, 66
2, 18320, Note_on_c, 0, 63, 49
2, 18320, Note_on_c, 0, 67, 60
2, 18332, Note_on_c, 0, 41, 32
2, 18344, Note_on_c, 0, 57, 37
2, 18352, Control_c, 0, 64, 0
2, 18624, Control_c, 0, 64, 127
2, 18700, Note_on_c, 0, 48, 37
2, 18732, Note_on_c, 0, 57, 0
2, 18868, Note_on_c, 0, 63, 0
2, 19008, Note_on_c, 0, 67, 0
2, 19072, Note_on_c, 0, 67, 32
2, 19092, Note_on_c, 0, 57, 34
2, 19092, Note_on_c, 0, 63, 35
2, 19140, Note_on_c, 0, 41, 0
2, 19204, Note_on_c, 0, 48, 0
2, 19296, Note_on_c, 0, 57, 0
2, 19396, Note_on_c, 0, 63, 0
2, 19432, Note_on_c, 0, 71, 0
2, 19460, Note_on_c, 0, 67, 0
2, 19844, Note_on_c, 0, 71, 68
2, 19852, Note_on_c, 0, 68, 67
2, 19860, Note_on_c, 0, 64, 64
2, 19868, Note_on_c, 0, 62, 45
2, 19868, Note_on_c, 0, 56, 45
2, 19884, Control_c, 0, 64, 0
2, 19948, Control_c, 0, 64, 127
2, 20064, Note_on_c, 0, 64, 0
2, 20072, Note_on_c, 0, 56, 0
2, 20132, Note_on_c, 0, 62, 0
2, 20184, Note_on_c, 0, 71, 0
2, 20212, Note_on_c, 0, 68, 0
2, 21268, Note_on_c, 0, 71, 76
2, 21268, Note_on_c, 0, 67, 85
2, 21292, Note_on_c, 0, 61, 51
2, 21300, Note_on_c, 0, 55, 60
2, 21320, Control_c, 0, 64, 0
2, 21480, Control_c, 0, 64, 127
2, 21592, Note_on_c, 0, 71, 0
2, 21668, Note_on_c, 0, 71, 54
2, 21772, Note_on_c, 0, 67, 0
2, 21780, Note_on_c, 0, 55, 0
2, 21976, Note_on_c, 0, 71, 0
2, 22032, Note_on_c, 0, 61, 0
2, 22108, Note_on_c, 0, 69, 60
2, 22108, Note_on_c, 0, 66, 42
2, 22132, Note_on_c, 0, 54, 37
2, 22140, Note_on_c, 0, 60, 42
2, 22144, Control_c, 0, 64, 0
2, 22288, Control_c, 0, 64, 127
2, 22348, Note_on_c, 0, 60, 0
2, 22356, Note_on_c, 0, 54, 0
2, 22496, Note_on_c, 0, 69, 0
2, 22688, Note_on_c, 0, 69, 63
2, 23008, Note_on_c, 0, 69, 0
2, 23012, Note_on_c, 0, 66, 0
2, 23404, Control_c, 0, 64, 0
2, 23412, Note_on_c, 0, 62, 64
2, 23412, Note_on_c, 0, 74, 66
2, 23412, Note_on_c, 0, 69, 59
2, 23432, Note_on_c, 0, 47, 53
2, 23504, Note_on_c, 0, 62, 0
2, 23528, Control_c, 0, 64, 127
2, 23572, Note_on_c, 0, 69, 0
2, 23592, Note_on_c, 0, 74, 0
2, 23784, Note_on_c, 0, 47, 0
2, 23784, Note_on_c, 0, 86, 90
2, 23788, Note_on_c, 0, 57, 55
2, 23840, Note_on_c, 0, 57, 0
2, 23924, Note_on_c, 0, 86, 0
2, 24164, Note_on_c, 0, 86, 82
2, 24208, Note_on_c, 0, 74, 68
2, 24228, Note_on_c, 0, 62, 53
2, 24508, Note_on_c, 0, 86, 0
2, 24552, Note_on_c, 0, 74, 0
2, 24624, Note_on_c, 0, 65, 49
2, 24628, Note_on_c, 0, 86, 71
2, 24816, Note_on_c, 0, 65, 0
2, 24876, Note_on_c, 0, 86, 0
2, 25172, Note_on_c, 0, 86, 65
2, 25188, Note_on_c, 0, 66, 60
2, 25204, Note_on_c, 0, 74, 60
2, 25608, Note_on_c, 0, 74, 0
2, 25608, Note_on_c, 0, 66, 0
2, 25616, Note_on_c, 0, 86, 0
2, 25704, Note_on_c, 0, 86, 44
2, 25720, Note_on_c, 0, 74, 51
2, 25728, Note_on_c, 0, 67, 50
2, 26056, Note_on_c, 0, 67, 0
2, 26096, Note_on_c, 0, 86, 0
2, 26104, Note_on_c, 0, 74, 0
2, 26272, Note_on_c, 0, 86, 39
2, 26280, Note_on_c, 0, 74, 44
2, 26284, Note_on_c, 0, 66, 35
2, 26508, Note_on_c, 0, 66, 0
2, 27000, Note_on_c, 0, 74, 0
2, 27092, Note_on_c, 0, 86, 0
2, 27108, Note_on_c, 0, 62, 0
2, 27440, Control_c, 0, 64, 0
2, 27444, Note_on_c, 0, 88, 66
2, 27464, Note_on_c, 0, 79, 47
2, 27468, Note_on_c, 0, 84, 46
2, 27484, Note_on_c, 0, 67, 29
2, 27484, Note_on_c, 0, 62, 32
2, 27492, Note_on_c, 0, 56, 25
2, 27572, Control_c, 0, 64, 127
2, 27612, Note_on_c, 0, 67, 0
2, 27632, Note_on_c, 0, 62, 0
2, 27700, Note_on_c, 0, 56, 0
2, 28092, Note_on_c, 0, 28, 44
2, 28132, Note_on_c, 0, 79, 0
2, 28148, Note_on_c, 0, 88, 0
2, 28156, Note_on_c, 0, 84, 0
2, 28192, Note_on_c, 0, 28, 0
2, 28748, Note_on_c, 0, 76, 40
2, 28764, Note_on_c, 0, 72, 42
2, 28768, Note_on_c, 0, 67, 38
2, 28800, Note_on_c, 0, 56, 39
2, 29324, Note_on_c, 0, 62, 38
2, 29428, Note_on_c, 0, 67, 0
2, 29548, Note_on_c, 0, 72, 0
2, 29928, Note_on_c, 0, 67, 38
2, 29940, Note_on_c, 0, 72, 53
2, 29944, Note_on_c, 0, 66, 37
2, 31804, Note_on_c, 0, 62, 0
2, 31816, Note_on_c, 0, 66, 0
2, 31904, Note_on_c, 0, 56, 0
2, 31932, Note_on_c, 0, 67, 0
2, 31972, Note_on_c, 0, 76, 0
2, 32032, Note_on_c, 0, 72, 0
2, 32912, Note_on_c, 0, 33, 65
2, 32944, Control_c, 0, 64, 0
2, 32968, Control_c, 0, 64, 127
2, 32996, Note_on_c, 0, 33, 0
2, 34892, Note_on_c, 0, 75, 93
2, 34900, Note_on_c, 0, 83, 91
2, 34900, Note_on_c, 0, 71, 88
2, 34908, Note_on_c, 0, 66, 74
2, 34912, Note_on_c, 0, 55, 73
2, 34920, Note_on_c, 0, 61, 60
2, 34952, Control_c, 0, 64, 0
2, 34980, Note_on_c, 0, 75, 0
2, 34988, Note_on_c, 0, 76, 55
2, 35060, Control_c, 0, 64, 127
2, 35200, Note_on_c, 0, 76, 0
2, 35204, Note_on_c, 0, 83, 0
2, 35216, Note_on_c, 0, 55, 0
2, 35220, Note_on_c, 0, 66, 0
2, 35224, Note_on_c, 0, 71, 0
2, 35304, Note_on_c, 0, 61, 0
2, 36132, Note_on_c, 0, 55, 71
2, 36224, Note_on_c, 0, 69, 68
2, 36232, Note_on_c, 0, 61, 42
2, 36240, Note_on_c, 0, 72, 74
2, 36268, Note_on_c, 0, 67, 71
2, 36272, Note_on_c, 0, 65, 66
2, 36272, Note_on_c, 0, 77, 64
2, 36300, Note_on_c, 0, 81, 72
2, 36328, Note_on_c, 0, 79, 40
2, 36360, Control_c, 0, 64, 0
2, 36440, Note_on_c, 0, 79, 0
2, 36452, Note_on_c, 0, 65, 0
2, 36628, Control_c, 0, 64, 127
2, 36928, Note_on_c, 0, 81, 0
2, 37008, Note_on_c, 0, 79, 63
2, 37288, Note_on_c, 0, 67, 0
2, 37332, Note_on_c, 0, 79, 0
2, 37404, Note_on_c, 0, 81, 76
2, 37412, Note_on_c, 0, 79, 46
2, 37436, Note_on_c, 0, 77, 0
2, 37444, Note_on_c, 0, 69, 0
2, 37444, Note_on_c, 0, 55, 0
2, 37448, Note_on_c, 0, 72, 0
2, 37456, Note_on_c, 0, 79, 0
2, 37504, Note_on_c, 0, 61, 0
2, 37524, Note_on_c, 0, 81, 0
2, 38120, Note_on_c, 0, 71, 90
2, 38200, Note_on_c, 0, 55, 51
2, 38200, Note_on_c, 0, 64, 65
2, 38252, Control_c, 0, 64, 0
2, 38312, Note_on_c, 0, 60, 49
2, 38428, Note_on_c, 0, 45, 68
2, 38448, Control_c, 0, 64, 127
2, 38472, Note_on_c, 0, 55, 0
2, 38548, Note_on_c, 0, 45, 0
2, 38680, Note_on_c, 0, 60, 0
2, 38784, Note_on_c, 0, 60, 49
2, 38792, Note_on_c, 0, 64, 0
2, 38860, Note_on_c, 0, 71, 0
2, 39064, Note_on_c, 0, 64, 49
2, 39292, Note_on_c, 0, 67, 68
2, 39556, Note_on_c, 0, 67, 0
2, 39560, Note_on_c, 0, 74, 71
2, 39624, Note_on_c, 0, 74, 0
2, 39824, Note_on_c, 0, 64, 0
2, 39840, Note_on_c, 0, 83, 87
2, 39864, Note_on_c, 0, 60, 0
2, 40128, Note_on_c, 0, 83, 0
2, 40172, Note_on_c, 0, 74, 58
2, 40180, Note_on_c, 0, 80, 55
2, 40204, Note_on_c, 0, 50, 56
2, 40248, Control_c, 0, 64, 0
2, 40400, Control_c, 0, 64, 127
2, 40504, Note_on_c, 0, 54, 50
2, 40512, Note_on_c, 0, 50, 0
2, 40588, Note_on_c, 0, 54, 0
2, 40872, Note_on_c, 0, 80, 0
2, 40880, Note_on_c, 0, 81, 61
2, 40904, Note_on_c, 0, 60, 35
2, 41268, Note_on_c, 0, 81, 0
2, 41340, Note_on_c, 0, 83, 54
2, 41348, Note_on_c, 0, 64, 38
2, 41644, Note_on_c, 0, 83, 0
2, 41716, Note_on_c, 0, 74, 0
2, 41736, Note_on_c, 0, 64, 0
2, 41892, Note_on_c, 0, 60, 0
2, 42568, Note_on_c, 0, 83, 80
2, 42676, Note_on_c, 0, 83, 0
2, 42968, Note_on_c, 0, 74, 68
2, 42968, Note_on_c, 0, 78, 40
2, 42988, Note_on_c, 0, 43, 42
2, 43000, Control_c, 0, 64, 0
2, 43144, Control_c, 0, 64, 127
2, 43200, Note_on_c, 0, 74, 0
2, 43220, Note_on_c, 0, 78, 0
2, 43260, Note_on_c, 0, 50, 44
2, 43408, Note_on_c, 0, 43, 0
2, 43548, Note_on_c, 0, 66, 44
2, 43560, Note_on_c, 0, 71, 51
2, 43572, Note_on_c, 0, 55, 30
2, 43668, Note_on_c, 0, 71, 0
2, 43676, Note_on_c, 0, 66, 0
2, 43700, Note_on_c, 0, 50, 0
2, 43952, Note_on_c, 0, 62, 54
2, 44320, Note_on_c, 0, 62, 0
2, 44428, Note_on_c, 0, 74, 82
2, 44620, Note_on_c, 0, 74, 0
2, 44672, Note_on_c, 0, 55, 0
2, 45080, Note_on_c, 0, 36, 57
2, 45188, Note_on_c, 0, 36, 0
2, 45192, Note_on_c, 0, 71, 69
2, 45200, Note_on_c, 0, 64, 73
2, 45204, Note_on_c, 0, 59, 69
2, 45212, Note_on_c, 0, 52, 63
2, 45260, Control_c, 0, 64, 0
2, 45392, Control_c, 0, 64, 127
2, 45524, Note_on_c, 0, 71, 0
2, 45560, Note_on_c, 0, 67, 79
2, 45604, Note_on_c, 0, 59, 0
2, 45608, Note_on_c, 0, 64, 0
2, 45684, Note_on_c, 0, 52, 0
2, 45828, Note_on_c, 0, 64, 75
2, 45964, Note_on_c, 0, 67, 0
2, 46040, Note_on_c, 0, 64, 0
2, 46084, Note_on_c, 0, 59, 64
2, 46252, Note_on_c, 0, 59, 0
2, 46380, Note_on_c, 0, 57, 58
2, 46388, Note_on_c, 0, 62, 69
2, 46392, Note_on_c, 0, 47, 44
2, 46432, Control_c, 0, 64, 0
2, 46588, Control_c, 0, 64, 127
2, 46648, Note_on_c, 0, 57, 0
2, 46684, Note_on_c, 0, 54, 54
2, 46688, Note_on_c, 0, 66, 69
2, 46700, Note_on_c, 0, 62, 0
2, 46752, Note_on_c, 0, 66, 0
2, 46976, Note_on_c, 0, 54, 0
2, 46984, Note_on_c, 0, 47, 0
2, 47012, Note_on_c, 0, 74, 73
2, 47020, Note_on_c, 0, 57, 48
2, 47024, Note_on_c, 0, 69, 59
2, 47100, Note_on_c, 0, 57, 0
2, 47332, Note_on_c, 0, 78, 72
2, 47412, Note_on_c, 0, 69, 0
2, 47412, Note_on_c, 0, 74, 0
2, 47592, Note_on_c, 0, 78, 0
2, 47668, Note_on_c, 0, 76, 77
2, 47680, Control_c, 0, 64, 0
2, 47684, Note_on_c, 0, 70, 55
2, 47688, Note_on_c, 0, 73, 50
2, 47712, Note_on_c, 0, 64, 62
2, 47812, Note_on_c, 0, 76, 0
2, 47820, Control_c, 0, 64, 127
2, 47840, Note_on_c, 0, 73, 0
2, 47956, Note_on_c, 0, 70, 0
2, 48012, Note_on_c, 0, 82, 72
2, 48116, Note_on_c, 0, 82, 0
2, 48372, Note_on_c, 0, 64, 0
2, 48392, Note_on_c, 0, 70, 46
2, 48392, Note_on_c, 0, 73, 55
2, 48408, Note_on_c, 0, 58, 38
2, 48420, Control_c, 0, 64, 0
2, 48532, Control_c, 0, 64, 127
2, 48712, Note_on_c, 0, 79, 62
2, 48776, Note_on_c, 0, 70, 0
2, 48796, Note_on_c, 0, 58, 0
2, 48860, Note_on_c, 0, 73, 0
2, 48900, Note_on_c, 0, 79, 0
2, 48992, Note_on_c, 0, 51, 20
2, 49040, Note_on_c, 0, 51, 0
2, 49068, Note_on_c, 0, 79, 59
2, 49080, Control_c, 0, 64, 0
2, 49088, Note_on_c, 0, 72, 46
2, 49100, Note_on_c, 0, 67, 39
2, 49128, Note_on_c, 0, 45, 32
2, 49264, Control_c, 0, 64, 127
2, 49344, Note_on_c, 0, 67, 0
2, 49376, Note_on_c, 0, 45, 0
2, 49380, Note_on_c, 0, 52, 53
2, 49400, Note_on_c, 0, 72, 0
2, 49424, Note_on_c, 0, 52, 0
2, 49588, Note_on_c, 0, 79, 0
2, 49700, Note_on_c, 0, 72, 66
2, 49700, Note_on_c, 0, 71, 62
2, 49704, Note_on_c, 0, 64, 60
2, 49704, Note_on_c, 0, 60, 42
2, 50012, Note_on_c, 0, 71, 0
2, 50024, Note_on_c, 0, 79, 80
2, 50092, Note_on_c, 0, 72, 0
2, 50188, Note_on_c, 0, 79, 0
2, 50188, Note_on_c, 0, 64, 0
2, 50360, Note_on_c, 0, 64, 50
2, 50364, Note_on_c, 0, 79, 76
2, 50372, Note_on_c, 0, 72, 74
2, 50372, Note_on_c, 0, 57, 46
2, 50380, Control_c, 0, 64, 0
2, 50524, Control_c, 0, 64, 127
2, 50708, Note_on_c, 0, 56, 55
2, 50780, Note_on_c, 0, 72, 0
2, 50844, Note_on_c, 0, 79, 0
2, 50984, Note_on_c, 0, 57, 0
2, 50992, Note_on_c, 0, 64, 0
2, 51008, Note_on_c, 0, 56, 0
2, 51056, Note_on_c, 0, 60, 0
2, 51108, Note_on_c, 0, 64, 54
2, 51120, Note_on_c, 0, 55, 60
2, 51124, Note_on_c, 0, 60, 48
2, 51280, Note_on_c, 0, 64, 0
2, 51316, Note_on_c, 0, 60, 0
2, 51364, Note_on_c, 0, 55, 0
2, 51468, Note_on_c, 0, 79, 88
2, 51596, Note_on_c, 0, 79, 0
2, 51692, Note_on_c, 0, 81, 90
2, 51844, Note_on_c, 0, 81, 0
2, 52028, Control_c, 0, 64, 0
2, 52028, Note_on_c, 0, 75, 82
2, 52028, Note_on_c, 0, 83, 88
2, 52028, Note_on_c, 0, 79, 81
2, 52040, Note_on_c, 0, 41, 41
2, 52048, Note_on_c, 0, 57, 51
2, 52188, Control_c, 0, 64, 127
2, 52248, Note_on_c, 0, 79, 0
2, 52248, Note_on_c, 0, 83, 0
2, 52328, Note_on_c, 0, 75, 0
2, 52440, Note_on_c, 0, 48, 20
2, 52488, Note_on_c, 0, 48, 0
2, 52528, Note_on_c, 0, 57, 0
2, 52552, Note_on_c, 0, 41, 0
2, 52780, Control_c, 0, 64, 0
2, 52784, Note_on_c, 0, 40, 62
2, 52824, Note_on_c, 0, 40, 0
2, 52824, Control_c, 0, 64, 127
2, 53224, Note_on_c, 0, 68, 67
2, 53228, Note_on_c, 0, 76, 74
2, 53232, Note_on_c, 0, 72, 71
2, 53244, Note_on_c, 0, 62, 68
2, 53244, Note_on_c, 0, 56, 62
2, 53280, Control_c, 0, 64, 0
2, 53412, Control_c, 0, 64, 127
2, 53756, Note_on_c, 0, 56, 0
2, 53756, Note_on_c, 0, 72, 0
2, 53764, Note_on_c, 0, 68, 0
2, 53796, Note_on_c, 0, 76, 0
2, 53796, Note_on_c, 0, 62, 0
2, 54092, Note_on_c, 0, 84, 95
2, 54104, Note_on_c, 0, 77, 88
2, 54108, Note_on_c, 0, 73, 85
2, 54108, Note_on_c, 0, 61, 64
2, 54112, Note_on_c, 0, 65, 78
2, 54112, Note_on_c, 0, 55, 75
2, 54132, Control_c, 0, 64, 0
2, 54300, Control_c, 0, 64, 127
2, 54376, Note_on_c, 0, 84, 0
2, 54480, Note_on_c, 0, 82, 80
2, 54532, Note_on_c, 0, 77, 0
2, 54632, Note_on_c, 0, 55, 0
2, 54636, Note_on_c, 0, 73, 0
2, 54644, Note_on_c, 0, 65, 0
2, 54672, Note_on_c, 0, 82, 0
2, 54816, Note_on_c, 0, 61, 0
2, 54880, Note_on_c, 0, 81, 72
2, 54892, Note_on_c, 0, 76, 62
2, 54900, Note_on_c, 0, 71, 51
2, 54912, Note_on_c, 0, 64, 55
2, 54924, Note_on_c, 0, 60, 40
2, 54928, Note_on_c, 0, 54, 35
2, 54952, Control_c, 0, 64, 0
2, 55112, Control_c, 0, 64, 127
2, 55284, Note_on_c, 0, 64, 0
2, 55348, Note_on_c, 0, 60, 0
2, 55352, Note_on_c, 0, 76, 0
2, 55388, Note_on_c, 0, 71, 0
2, 55448, Note_on_c, 0, 54, 0
2, 55464, Note_on_c, 0, 76, 56
2, 55524, Note_on_c, 0, 81, 0
2, 55684, Note_on_c, 0, 76, 0
2, 56752, Note_on_c, 0, 67, 62
2, 56764, Note_on_c, 0, 50, 36
2, 56764, Note_on_c, 0, 61, 46
2, 56768, Note_on_c, 0, 43, 40
2, 56820, Control_c, 0, 64, 0
2, 56868, Note_on_c, 0, 61, 0
2, 56868, Note_on_c, 0, 62, 57
2, 56952, Note_on_c, 0, 62, 0
2, 56964, Control_c, 0, 64, 127
2, 56992, Note_on_c, 0, 67, 0
2, 57152, Control_c, 0, 64, 0
2, 57200, Note_on_c, 0, 58, 65
2, 57212, Note_on_c, 0, 62, 60
2, 57372, Note_on_c, 0, 58, 0
2, 57388, Note_on_c, 0, 59, 29
2, 57600, Note_on_c, 0, 59, 0
2, 57648, Note_on_c, 0, 55, 68
2, 57684, Note_on_c, 0, 59, 17
2, 57732, Control_c, 0, 64, 127
2, 57904, Note_on_c, 0, 59, 0
2, 57988, Note_on_c, 0, 55, 0
2, 58024, Note_on_c, 0, 62, 0
2, 58088, Note_on_c, 0, 58, 42
2, 58104, Note_on_c, 0, 62, 13
2, 58196, Note_on_c, 0, 50, 0
2, 58292, Note_on_c, 0, 43, 0
2, 58352, Note_on_c, 0, 62, 0
2, 58368, Note_on_c, 0, 58, 0
2, 58524, Note_on_c, 0, 57, 43
2, 58524, Note_on_c, 0, 60, 55
2, 58532, Note_on_c, 0, 51, 42
2, 58552, Note_on_c, 0, 41, 35
2, 58560, Control_c, 0, 64, 0
2, 58764, Control_c, 0, 64, 127
2, 58940, Note_on_c, 0, 48, 41
2, 59072, Note_on_c, 0, 51, 0
2, 59088, Note_on_c, 0, 57, 0
2, 59208, Note_on_c, 0, 60, 0
2, 59244, Note_on_c, 0, 41, 0
2, 59248, Note_on_c, 0, 48, 0
2, 59404, Note_on_c, 0, 61, 31
2, 59404, Note_on_c, 0, 58, 33
2, 59404, Note_on_c, 0, 42, 46
2, 59428, Control_c, 0, 64, 0
2, 59452, Note_on_c, 0, 52, 9
2, 59540, Note_on_c, 0, 52, 0
2, 59564, Control_c, 0, 64, 127
2, 59640, Note_on_c, 0, 49, 33
2, 59752, Note_on_c, 0, 61, 0
2, 59768, Note_on_c, 0, 58, 0
2, 59816, Note_on_c, 0, 42, 0
2, 59828, Control_c, 0, 64, 0
2, 59868, Note_on_c, 0, 49, 0
2, 59868, Note_on_c, 0, 54, 36
2, 59888, Note_on_c, 0, 62, 39
2, 59912, Note_on_c, 0, 57, 28
2, 59920, Note_on_c, 0, 43, 43
2, 59920, Note_on_c, 0, 59, 34
2, 59976, Note_on_c, 0, 57, 0
2, 60004, Control_c, 0, 64, 127
2, 60008, Note_on_c, 0, 54, 0
2, 60044, Note_on_c, 0, 59, 0
2, 60072, Note_on_c, 0, 62, 0
2, 60164, Note_on_c, 0, 50, 36
2, 60356, Note_on_c, 0, 50, 0
2, 60404, Note_on_c, 0, 69, 54
2, 60408, Note_on_c, 0, 62, 40
2, 60412, Note_on_c, 0, 59, 40
2, 60420, Note_on_c, 0, 66, 46
2, 60424, Note_on_c, 0, 54, 43
2, 60676, Note_on_c, 0, 54, 0
2, 60700, Note_on_c, 0, 59, 0
2, 60708, Note_on_c, 0, 50, 39
2, 60720, Note_on_c, 0, 62, 0
2, 60724, Note_on_c, 0, 66, 0
2, 60796, Note_on_c, 0, 69, 0
2, 61016, Note_on_c, 0, 50, 0
2, 61044, Note_on_c, 0, 67, 49
2, 61052, Control_c, 0, 64, 0
2, 61064, Note_on_c, 0, 52, 37
2, 61064, Note_on_c, 0, 59, 22
2, 61064, Note_on_c, 0, 62, 30
2, 61068, Note_on_c, 0, 64, 43
2, 61220, Control_c, 0, 64, 127
2, 61328, Note_on_c, 0, 43, 0
2, 61472, Note_on_c, 0, 43, 42
2, 61476, Note_on_c, 0, 59, 0
2, 61524, Note_on_c, 0, 62, 0
2, 61576, Note_on_c, 0, 64, 0
2, 61624, Note_on_c, 0, 67, 0
2, 62004, Note_on_c, 0, 43, 0
2, 62012, Note_on_c, 0, 69, 105
2, 62076, Note_on_c, 0, 52, 0
2, 62136, Note_on_c, 0, 69, 0
2, 62240, Note_on_c, 0, 69, 74
2, 62308, Note_on_c, 0, 70, 67
2, 62332, Control_c, 0, 64, 0
2, 62364, Note_on_c, 0, 69, 0
2, 62380, Note_on_c, 0, 70, 0
2, 62384, Note_on_c, 0, 71, 68
2, 62504, Note_on_c, 0, 71, 0
2, 62548, Note_on_c, 0, 74, 81
2, 62604, Control_c, 0, 64, 127
2, 62648, Note_on_c, 0, 74, 0
2, 62748, Note_on_c, 0, 76, 88
2, 62892, Note_on_c, 0, 76, 0
2, 62968, Note_on_c, 0, 71, 60
2, 63088, Note_on_c, 0, 71, 0
2, 63168, Note_on_c, 0, 74, 64
2, 63180, Control_c, 0, 64, 0
2, 63188, Note_on_c, 0, 64, 46
2, 63208, Note_on_c, 0, 55, 32
2, 63220, Note_on_c, 0, 60, 31
2, 63220, Note_on_c, 0, 59, 36
2, 63332, Control_c, 0, 64, 127
2, 63568, Note_on_c, 0, 64, 0
2, 63588, Note_on_c, 0, 60, 0
2, 63608, Note_on_c, 0, 59, 0
2, 63628, Note_on_c, 0, 55, 0
2, 64144, Note_on_c, 0, 55, 47
2, 64236, Note_on_c, 0, 55, 0
2, 64692, Note_on_c, 0, 38, 24
2, 64720, Note_on_c, 0, 38, 0
2, 65012, Note_on_c, 0, 66, 44
2, 65012, Note_on_c, 0, 54, 46
2, 65020, Note_on_c, 0, 62, 51
2, 65080, Note_on_c, 0, 57, 20
2, 65084, Control_c, 0, 64, 0
2, 65200, Control_c, 0, 64, 127
2, 65552, Note_on_c, 0, 62, 0
2, 65716, Note_on_c, 0, 66, 0
2, 65908, Note_on_c, 0, 74, 0
2, 65908, Note_on_c, 0, 66, 33
2, 65912, Note_on_c, 0, 50, 32
2, 65920, Note_on_c, 0, 62, 42
2, 65924, Note_on_c, 0, 57, 0
2, 66024, Note_on_c, 0, 54, 0
2, 66056, Note_on_c, 0, 50, 0
2, 66172, Note_on_c, 0, 66, 0
2, 66188, Note_on_c, 0, 62, 0
2, 66484, Note_on_c, 0, 43, 36
2, 66744, Note_on_c, 0, 49, 39
2, 66780, Control_c, 0, 64, 0
2, 66788, Note_on_c, 0, 62, 47
2, 66792, Note_on_c, 0, 55, 33
2, 66808, Note_on_c, 0, 50, 50
2, 66812, Note_on_c, 0, 59, 36
2, 66832, Note_on_c, 0, 49, 0
2, 67020, Control_c, 0, 64, 127
2, 67184, Note_on_c, 0, 59, 0
2, 67204, Note_on_c, 0, 55, 0
2, 67228, Note_on_c, 0, 50, 0
2, 67252, Note_on_c, 0, 49, 32
2, 67260, Note_on_c, 0, 62, 0
2, 67352, Note_on_c, 0, 49, 0
2, 67368, Note_on_c, 0, 55, 66
2, 67368, Note_on_c, 0, 62, 55
2, 67372, Note_on_c, 0, 50, 53
2, 67372, Note_on_c, 0, 59, 59
2, 67516, Note_on_c, 0, 59, 0
2, 67572, Note_on_c, 0, 55, 0
2, 67620, Note_on_c, 0, 62, 0
2, 67660, Note_on_c, 0, 50, 0
2, 67672, Control_c, 0, 64, 0
2, 67680, Note_on_c, 0, 51, 56
2, 67688, Note_on_c, 0, 59, 65
2, 67688, Note_on_c, 0, 63, 62
2, 67692, Note_on_c, 0, 55, 66
2, 67704, Note_on_c, 0, 62, 43
2, 67820, Control_c, 0, 64, 127
2, 67968, Note_on_c, 0, 51, 0
2, 68020, Note_on_c, 0, 55, 0
2, 68040, Note_on_c, 0, 63, 0
2, 68048, Note_on_c, 0, 59, 0
2, 68260, Note_on_c, 0, 63, 46
2, 68264, Note_on_c, 0, 51, 35
2, 68284, Note_on_c, 0, 55, 44
2, 68284, Note_on_c, 0, 59, 44
2, 68364, Note_on_c, 0, 55, 0
2, 68384, Note_on_c, 0, 59, 0
2, 68440, Note_on_c, 0, 63, 0
2, 68556, Note_on_c, 0, 51, 0
2, 68580, Note_on_c, 0, 52, 55
2, 68580, Control_c, 0, 64, 0
2, 68584, Note_on_c, 0, 57, 37
2, 68584, Note_on_c, 0, 64, 46
2, 68588, Note_on_c, 0, 43, 0
2, 68588, Note_on_c, 0, 59, 46
2, 68752, Control_c, 0, 64, 127
2, 69064, Note_on_c, 0, 57, 0
2, 69108, Note_on_c, 0, 64, 0
2, 69112, Note_on_c, 0, 59, 0
2, 69252, Note_on_c, 0, 62, 0
2, 69412, Note_on_c, 0, 52, 0
2, 69468, Note_on_c, 0, 56, 57
2, 69472, Note_on_c, 0, 64, 62
2, 69480, Note_on_c, 0, 58, 50
2, 69484, Control_c, 0, 64, 0
2, 69488, Note_on_c, 0, 46, 35
2, 69648, Control_c, 0, 64, 127
2, 69996, Note_on_c, 0, 56, 0
2, 70024, Note_on_c, 0, 58, 0
2, 70136, Note_on_c, 0, 64, 0
2, 70300, Note_on_c, 0, 46, 0
2, 70304, Control_c, 0, 64, 0
2, 70360, Note_on_c, 0, 62, 48
2, 70380, Note_on_c, 0, 59, 35
2, 70384, Note_on_c, 0, 55, 37
2, 70392, Note_on_c, 0, 45, 48
2, 70444, Control_c, 0, 64, 127
2, 70488, Note_on_c, 0, 55, 0
2, 70532, Note_on_c, 0, 59, 0
2, 70548, Note_on_c, 0, 62, 0
2, 70576, Note_on_c, 0, 45, 0
2, 70984, Note_on_c, 0, 74, 95
2, 71108, Note_on_c, 0, 74, 0
2, 71168, Note_on_c, 0, 71, 70
2, 71224, Note_on_c, 0, 64, 29
2, 71244, Note_on_c, 0, 60, 28
2, 71252, Note_on_c, 0, 71, 0
2, 71252, Note_on_c, 0, 59, 25
2, 71264, Control_c, 0, 64, 0
2, 71364, Note_on_c, 0, 72, 50
2, 71432, Note_on_c, 0, 72, 0
2, 71436, Note_on_c, 0, 64, 0
2, 71512, Note_on_c, 0, 59, 0
2, 71532, Note_on_c, 0, 73, 54
2, 71552, Note_on_c, 0, 60, 0
2, 71636, Note_on_c, 0, 73, 0
2, 71740, Note_on_c, 0, 76, 50
2, 71804, Note_on_c, 0, 76, 0
2, 71932, Note_on_c, 0, 79, 72
2, 71940, Control_c, 0, 64, 127
2, 71964, Note_on_c, 0, 57, 42
2, 72016, Note_on_c, 0, 79, 0
2, 72032, Note_on_c, 0, 57, 0
2, 72092, Control_c, 0, 64, 0
2, 72148, Note_on_c, 0, 79, 55
2, 72148, Note_on_c, 0, 86, 68
2, 72160, Note_on_c, 0, 60, 30
2, 72160, Note_on_c, 0, 64, 31
2, 72172, Note_on_c, 0, 74, 33
2, 72180, Note_on_c, 0, 54, 48
2, 72280, Control_c, 0, 64, 127
2, 72316, Note_on_c, 0, 86, 0
2, 72332, Note_on_c, 0, 79, 0
2, 72352, Note_on_c, 0, 74, 0
2, 72392, Note_on_c, 0, 86, 57
2, 72408, Note_on_c, 0, 74, 51
2, 72412, Note_on_c, 0, 79, 46
2, 72496, Note_on_c, 0, 74, 0
2, 72500, Note_on_c, 0, 86, 0
2, 72520, Note_on_c, 0, 60, 0
2, 72528, Note_on_c, 0, 85, 39
2, 72544, Note_on_c, 0, 64, 0
2, 72556, Note_on_c, 0, 79, 0
2, 72560, Note_on_c, 0, 85, 0
2, 72632, Note_on_c, 0, 54, 0
2, 72632, Note_on_c, 0, 85, 47
2, 72632, Note_on_c, 0, 79, 53
2, 72652, Note_on_c, 0, 73, 38
2, 72672, Note_on_c, 0, 79, 0
2, 72696, Note_on_c, 0, 73, 0
2, 72720, Note_on_c, 0, 85, 0
2, 72820, Note_on_c, 0, 85, 53
2, 72840, Note_on_c, 0, 73, 39
2, 72884, Note_on_c, 0, 79, 26
2, 72928, Note_on_c, 0, 85, 0
2, 72936, Note_on_c, 0, 79, 0
2, 72964, Note_on_c, 0, 73, 0
2, 73008, Control_c, 0, 64, 0
2, 73040, Note_on_c, 0, 54, 31
2, 73048, Note_on_c, 0, 60, 22
2, 73048, Note_on_c, 0, 50, 36
2, 73048, Note_on_c, 0, 79, 46
2, 73052, Note_on_c, 0, 72, 37
2, 73068, Note_on_c, 0, 84, 48
2, 73068, Note_on_c, 0, 57, 19
2, 73140, Note_on_c, 0, 57, 0
2, 73144, Control_c, 0, 64, 127
2, 73176, Note_on_c, 0, 60, 0
2, 73204, Note_on_c, 0, 54, 0
2, 73212, Note_on_c, 0, 50, 0
2, 73260, Note_on_c, 0, 84, 0
2, 73276, Note_on_c, 0, 79, 0
2, 73372, Note_on_c, 0, 72, 0
2, 73580, Note_on_c, 0, 43, 62
2, 73620, Note_on_c, 0, 83, 57
2, 73652, Note_on_c, 0, 72, 27
2, 73652, Note_on_c, 0, 71, 27
2, 73664, Note_on_c, 0, 83, 0
2, 73692, Note_on_c, 0, 71, 0
2, 73692, Note_on_c, 0, 50, 20
2, 73696, Note_on_c, 0, 72, 0
2, 73884, Note_on_c, 0, 59, 31
2, 73904, Control_c, 0, 64, 0
2, 73940, Note_on_c, 0, 74, 54
2, 73948, Note_on_c, 0, 71, 28
2, 74068, Control_c, 0, 64, 127
2, 74072, Note_on_c, 0, 43, 0
2, 74132, Note_on_c, 0, 50, 0
2, 74188, Note_on_c, 0, 59, 0
2, 74536, Note_on_c, 0, 71, 0
2, 74540, Note_on_c, 0, 74, 0
2, 74780, Note_on_c, 0, 64, 51
2, 74788, Note_on_c, 0, 59, 46
2, 74800, Note_on_c, 0, 62, 45
2, 75000, Note_on_c, 0, 64, 0
2, 75092, Note_on_c, 0, 62, 0
2, 75228, Note_on_c, 0, 74, 74
2, 75236, Note_on_c, 0, 59, 0
2, 75352, Note_on_c, 0, 74, 0
2, 75440, Note_on_c, 0, 75, 69
2, 75460, Note_on_c, 0, 70, 52
2, 75592, Note_on_c, 0, 70, 0
2, 75604, Note_on_c, 0, 75, 0
2, 75664, Note_on_c, 0, 62, 51
2, 75664, Control_c, 0, 64, 0
2, 75668, Note_on_c, 0, 76, 64
2, 75680, Note_on_c, 0, 71, 47
2, 75688, Note_on_c, 0, 59, 47
2, 75700, Note_on_c, 0, 55, 42
2, 75704, Note_on_c, 0, 67, 18
2, 75808, Control_c, 0, 64, 127
2, 75820, Note_on_c, 0, 59, 0
2, 75844, Note_on_c, 0, 62, 0
2, 75912, Note_on_c, 0, 55, 0
2, 75932, Note_on_c, 0, 76, 0
2, 75948, Note_on_c, 0, 71, 0
2, 76012, Note_on_c, 0, 67, 0
2, 76268, Note_on_c, 0, 43, 52
2, 76548, Note_on_c, 0, 67, 53
2, 76560, Note_on_c, 0, 62, 42
2, 76564, Note_on_c, 0, 52, 47
2, 76580, Control_c, 0, 64, 0
2, 76580, Note_on_c, 0, 50, 26
2, 76644, Control_c, 0, 64, 127
2, 76712, Note_on_c, 0, 50, 0
2, 76728, Note_on_c, 0, 43, 0
2, 76776, Note_on_c, 0, 52, 0
2, 76904, Note_on_c, 0, 62, 0
2, 76956, Note_on_c, 0, 67, 0
2, 77112, Note_on_c, 0, 47, 57
2, 77144, Note_on_c, 0, 47, 0
2, 77468, Note_on_c, 0, 73, 92
2, 77472, Note_on_c, 0, 69, 108
2, 77472, Note_on_c, 0, 76, 96
2, 77480, Note_on_c, 0, 66, 82
2, 77488, Note_on_c, 0, 62, 60
2, 77488, Note_on_c, 0, 64, 70
2, 77504, Note_on_c, 0, 74, 51
2, 77532, Note_on_c, 0, 74, 0
2, 77560, Control_c, 0, 64, 0
2, 77784, Control_c, 0, 64, 127
2, 78032, Note_on_c, 0, 66, 0
2, 78060, Note_on_c, 0, 62, 0
2, 78088, Note_on_c, 0, 64, 0
2, 78152, Note_on_c, 0, 76, 0
2, 78180, Note_on_c, 0, 69, 0
2, 78208, Note_on_c, 0, 73, 0
2, 78388, Note_on_c, 0, 66, 60
2, 78392, Note_on_c, 0, 73, 56
2, 78400, Note_on_c, 0, 69, 69
2, 78404, Note_on_c, 0, 76, 62
2, 78412, Note_on_c, 0, 64, 54
2, 78424, Note_on_c, 0, 62, 54
2, 78732, Note_on_c, 0, 64, 0
2, 78808, Note_on_c, 0, 62, 0
2, 78832, Note_on_c, 0, 66, 0
2, 78948, Note_on_c, 0, 76, 0
2, 79000, Note_on_c, 0, 73, 0
2, 79052, Note_on_c, 0, 69, 0
2, 79344, Note_on_c, 0, 67, 47
2, 79348, Control_c, 0, 64, 0
2, 79352, Note_on_c, 0, 72, 59
2, 79352, Note_on_c, 0, 76, 47
2, 79352, Note_on_c, 0, 62, 48
2, 79364, Note_on_c, 0, 56, 45
2, 79472, Control_c, 0, 64, 127
2, 79560, Note_on_c, 0, 62, 0
2, 79612, Note_on_c, 0, 56, 0
2, 80104, Note_on_c, 0, 72, 0
2, 80124, Note_on_c, 0, 67, 0
2, 80264, Note_on_c, 0, 28, 55
2, 80352, Note_on_c, 0, 28, 0
2, 80904, Note_on_c, 0, 67, 55
2, 80964, Note_on_c, 0, 67, 0
2, 81044, Note_on_c, 0, 76, 0
2, 81224, Note_on_c, 0, 64, 55
2, 81228, Note_on_c, 0, 71, 58
2, 81228, Note_on_c, 0, 68, 47
2, 81232, Note_on_c, 0, 49, 50
2, 81260, Note_on_c, 0, 59, 39
2, 81264, Control_c, 0, 64, 0
2, 81460, Control_c, 0, 64, 127
2, 81672, Note_on_c, 0, 64, 0
2, 81704, Note_on_c, 0, 59, 0
2, 81796, Note_on_c, 0, 71, 0
2, 81820, Note_on_c, 0, 68, 0
2, 81824, Note_on_c, 0, 64, 56
2, 81916, Note_on_c, 0, 64, 0
2, 82148, Note_on_c, 0, 64, 103
2, 82168, Note_on_c, 0, 59, 55
2, 82328, Note_on_c, 0, 64, 0
2, 82428, Note_on_c, 0, 64, 89
2, 82572, Note_on_c, 0, 59, 0
2, 82576, Note_on_c, 0, 49, 0
2, 82580, Note_on_c, 0, 64, 0
2, 82704, Note_on_c, 0, 64, 88
2, 82792, Note_on_c, 0, 64, 0
2, 83020, Note_on_c, 0, 66, 55
2, 83024, Note_on_c, 0, 62, 67
2, 83032, Note_on_c, 0, 48, 47
2, 83040, Control_c, 0, 64, 0
2, 83040, Note_on_c, 0, 58, 34
2, 83160, Control_c, 0, 64, 127
2, 83164, Note_on_c, 0, 62, 0
2, 83200, Note_on_c, 0, 66, 0
2, 83292, Note_on_c, 0, 48, 0
2, 83400, Note_on_c, 0, 58, 0
2, 83612, Note_on_c, 0, 78, 83
2, 83764, Note_on_c, 0, 78, 0
2, 83960, Note_on_c, 0, 78, 82
2, 83980, Note_on_c, 0, 74, 79
2, 83984, Note_on_c, 0, 69, 80
2, 83988, Note_on_c, 0, 58, 50
2, 83988, Note_on_c, 0, 64, 55
2, 84424, Note_on_c, 0, 78, 0
2, 84464, Note_on_c, 0, 69, 0
2, 84488, Note_on_c, 0, 64, 0
2, 84520, Note_on_c, 0, 74, 0
2, 84540, Note_on_c, 0, 58, 0
2, 84540, Note_on_c, 0, 78, 58
2, 84620, Note_on_c, 0, 78, 0
2, 84872, Control_c, 0, 64, 0
2, 84888, Note_on_c, 0, 47, 60
2, 84980, Control_c, 0, 64, 127
2, 85036, Note_on_c, 0, 47, 0
2, 85804, Note_on_c, 0, 73, 81
2, 85812, Note_on_c, 0, 76, 81
2, 85812, Note_on_c, 0, 69, 88
2, 85820, Note_on_c, 0, 66, 56
2, 85832, Note_on_c, 0, 64, 55
2, 85844, Note_on_c, 0, 62, 48
2, 86184, Note_on_c, 0, 64, 0
2, 86260, Note_on_c, 0, 66, 0
2, 86296, Note_on_c, 0, 76, 0
2, 86296, Note_on_c, 0, 62, 0
2, 86448, Note_on_c, 0, 76, 64
2, 86520, Note_on_c, 0, 69, 0
2, 86624, Note_on_c, 0, 73, 0
2, 86636, Note_on_c, 0, 76, 0
2, 87372, Note_on_c, 0, 73, 73
2, 87380, Note_on_c, 0, 67, 55
2, 87380, Note_on_c, 0, 56, 45
2, 87384, Note_on_c, 0, 69, 71
2, 87384, Note_on_c, 0, 62, 52
2, 87404, Control_c, 0, 64, 0
2, 87560, Control_c, 0, 64, 127
2, 87680, Note_on_c, 0, 56, 0
2, 87680, Note_on_c, 0, 67, 0
2, 87692, Note_on_c, 0, 62, 0
2, 87692, Note_on_c, 0, 69, 0
2, 87716, Note_on_c, 0, 73, 0
2, 87784, Note_on_c, 0, 73, 56
2, 87788, Note_on_c, 0, 69, 58
2, 87792, Note_on_c, 0, 56, 48
2, 87792, Note_on_c, 0, 67, 50
2, 87800, Note_on_c, 0, 62, 41
2, 87976, Note_on_c, 0, 67, 0
2, 87992, Note_on_c, 0, 62, 0
2, 88064, Note_on_c, 0, 73, 0
2, 88068, Note_on_c, 0, 69, 0
2, 88080, Note_on_c, 0, 56, 0
2, 88384, Note_on_c, 0, 45, 50
2, 88448, Note_on_c, 0, 45, 0
2, 88720, Note_on_c, 0, 72, 49
2, 88724, Note_on_c, 0, 64, 52
2, 88728, Note_on_c, 0, 60, 49
2, 88728, Note_on_c, 0, 55, 58
2, 88744, Note_on_c, 0, 67, 50
2, 88764, Note_on_c, 0, 70, 38
2, 88772, Control_c, 0, 64, 0
2, 88924, Control_c, 0, 64, 127
2, 89208, Note_on_c, 0, 67, 0
2, 89228, Note_on_c, 0, 55, 0
2, 89272, Note_on_c, 0, 60, 0
2, 89296, Note_on_c, 0, 64, 0
2, 89540, Note_on_c, 0, 72, 0
2, 89628, Note_on_c, 0, 67, 37
2, 89644, Note_on_c, 0, 55, 33
2, 89644, Note_on_c, 0, 45, 33
2, 89648, Note_on_c, 0, 60, 27
2, 89648, Note_on_c, 0, 64, 39
2, 89692, Control_c, 0, 64, 0
2, 89712, Control_c, 0, 64, 127
2, 89792, Note_on_c, 0, 45, 0
2, 89896, Note_on_c, 0, 55, 0
2, 90028, Note_on_c, 0, 70, 0
2, 90056, Note_on_c, 0, 67, 0
2, 90100, Note_on_c, 0, 60, 0
2, 90156, Note_on_c, 0, 64, 0
2, 90508, Note_on_c, 0, 69, 55
2, 90520, Note_on_c, 0, 66, 37
2, 90524, Note_on_c, 0, 60, 36
2, 90524, Note_on_c, 0, 57, 37
2, 90528, Note_on_c, 0, 63, 39
2, 90552, Control_c, 0, 64, 0
2, 90580, Note_on_c, 0, 50, 22
2, 90608, Control_c, 0, 64, 127
2, 90644, Note_on_c, 0, 57, 0
2, 90708, Note_on_c, 0, 50, 0
2, 90800, Note_on_c, 0, 69, 0
2, 90908, Note_on_c, 0, 66, 0
2, 90920, Note_on_c, 0, 63, 0
2, 90956, Note_on_c, 0, 60, 0
2, 91124, Note_on_c, 0, 49, 32
2, 91256, Note_on_c, 0, 49, 0
2, 91288, Note_on_c, 0, 48, 35
2, 91368, Note_on_c, 0, 48, 0
2, 91380, Note_on_c, 0, 47, 57
2, 91492, Note_on_c, 0, 56, 57
2, 91500, Note_on_c, 0, 47, 0
2, 91508, Note_on_c, 0, 67, 64
2, 91512, Note_on_c, 0, 60, 62
2, 91512, Note_on_c, 0, 46, 61
2, 91520, Control_c, 0, 64, 0
2, 91520, Note_on_c, 0, 62, 57
2, 91724, Control_c, 0, 64, 127
2, 92136, Note_on_c, 0, 67, 0
2, 92156, Note_on_c, 0, 46, 0
2, 92204, Note_on_c, 0, 60, 0
2, 92232, Note_on_c, 0, 56, 0
2, 92248, Note_on_c, 0, 62, 0
2, 92484, Note_on_c, 0, 64, 69
2, 92500, Note_on_c, 0, 61, 57
2, 92500, Note_on_c, 0, 55, 51
2, 92504, Control_c, 0, 64, 0
2, 92508, Note_on_c, 0, 45, 42
2, 92708, Control_c, 0, 64, 127
2, 92752, Note_on_c, 0, 45, 0
2, 92812, Note_on_c, 0, 55, 0
2, 92884, Note_on_c, 0, 61, 0
2, 92888, Note_on_c, 0, 64, 0
2, 93432, Note_on_c, 0, 83, 89
2, 93432, Note_on_c, 0, 75, 80
2, 93440, Note_on_c, 0, 71, 75
2, 93448, Note_on_c, 0, 61, 59
2, 93452, Note_on_c, 0, 65, 73
2, 93452, Note_on_c, 0, 55, 72
2, 93460, Note_on_c, 0, 72, 66
2, 93488, Note_on_c, 0, 72, 0
2, 93488, Control_c, 0, 64, 0
2, 93648, Control_c, 0, 64, 127
2, 93976, Note_on_c, 0, 55, 0
2, 93984, Note_on_c, 0, 83, 0
2, 94000, Note_on_c, 0, 65, 0
2, 94024, Note_on_c, 0, 71, 0
2, 94040, Note_on_c, 0, 75, 0
2, 94120, Note_on_c, 0, 61, 0
2, 94400, Note_on_c, 0, 81, 57
2, 94412, Control_c, 0, 64, 0
2, 94412, Note_on_c, 0, 73, 46
2, 94420, Note_on_c, 0, 66, 53
2, 94420, Note_on_c, 0, 69, 54
2, 94424, Note_on_c, 0, 77, 53
2, 94444, Note_on_c, 0, 61, 33
2, 94444, Note_on_c, 0, 55, 33
2, 94584, Control_c, 0, 64, 127
2, 94788, Note_on_c, 0, 81, 0
2, 94808, Note_on_c, 0, 69, 0
2, 94832, Note_on_c, 0, 66, 0
2, 94848, Note_on_c, 0, 77, 0
2, 94856, Note_on_c, 0, 55, 0
2, 94912, Note_on_c, 0, 73, 0
2, 95024, Note_on_c, 0, 79, 55
2, 95040, Note_on_c, 0, 73, 46
2, 95048, Note_on_c, 0, 67, 41
2, 95144, Note_on_c, 0, 79, 0
2, 95156, Note_on_c, 0, 61, 0
2, 95160, Note_on_c, 0, 67, 0
2, 95224, Note_on_c, 0, 73, 0
2, 95308, Control_c, 0, 64, 0
2, 95324, Note_on_c, 0, 73, 31
2, 95328, Note_on_c, 0, 61, 23
2, 95328, Note_on_c, 0, 81, 48
2, 95328, Note_on_c, 0, 55, 40
2, 95340, Note_on_c, 0, 65, 35
2, 95348, Note_on_c, 0, 69, 42
2, 95352, Note_on_c, 0, 77, 40
2, 95432, Control_c, 0, 64, 127
2, 95520, Note_on_c, 0, 65, 0
2, 95576, Note_on_c, 0, 55, 0
2, 95596, Note_on_c, 0, 81, 0
2, 95604, Note_on_c, 0, 77, 0
2, 95620, Note_on_c, 0, 61, 0
2, 95652, Note_on_c, 0, 73, 0
2, 95656, Note_on_c, 0, 69, 0
2, 95932, Note_on_c, 0, 45, 51
2, 96184, Control_c, 0, 64, 0
2, 96208, Note_on_c, 0, 71, 41
2, 96208, Note_on_c, 0, 64, 52
2, 96220, Note_on_c, 0, 55, 46
2, 96224, Note_on_c, 0, 59, 31
2, 96240, Note_on_c, 0, 67, 39
2, 96248, Note_on_c, 0, 60, 28
2, 96288, Note_on_c, 0, 60, 0
2, 96300, Control_c, 0, 64, 127
2, 96352, Note_on_c, 0, 59, 0
2, 96384, Note_on_c, 0, 67, 0
2, 96392, Note_on_c, 0, 64, 0
2, 96436, Note_on_c, 0, 71, 0
2, 96456, Note_on_c, 0, 45, 0
2, 96528, Note_on_c, 0, 55, 0
2, 96848, Note_on_c, 0, 83, 84
2, 96852, Note_on_c, 0, 76, 91
2, 96864, Note_on_c, 0, 81, 62
2, 96896, Note_on_c, 0, 81, 0
2, 97132, Note_on_c, 0, 83, 0
2, 97160, Note_on_c, 0, 79, 66
2, 97160, Note_on_c, 0, 64, 38
2, 97164, Control_c, 0, 64, 0
2, 97184, Note_on_c, 0, 60, 35
2, 97192, Note_on_c, 0, 55, 30
2, 97200, Note_on_c, 0, 59, 34
2, 97240, Note_on_c, 0, 71, 11
2, 97320, Note_on_c, 0, 76, 0
2, 97328, Control_c, 0, 64, 127
2, 97360, Note_on_c, 0, 71, 0
2, 97432, Note_on_c, 0, 79, 0
2, 97444, Note_on_c, 0, 76, 44
2, 97552, Note_on_c, 0, 76, 0
2, 97628, Note_on_c, 0, 64, 0
2, 97672, Note_on_c, 0, 59, 0
2, 97704, Note_on_c, 0, 60, 0
2, 97724, Note_on_c, 0, 67, 53
2, 97740, Note_on_c, 0, 55, 0
2, 97804, Note_on_c, 0, 67, 0
2, 97944, Note_on_c, 0, 64, 57
2, 97988, Note_on_c, 0, 64, 0
2, 98120, Control_c, 0, 64, 0
2, 98144, Note_on_c, 0, 71, 53
2, 98148, Note_on_c, 0, 60, 34
2, 98160, Note_on_c, 0, 54, 39
2, 98160, Note_on_c, 0, 68, 46
2, 98160, Note_on_c, 0, 64, 44
2, 98268, Control_c, 0, 64, 127
2, 98348, Note_on_c, 0, 60, 0
2, 98408, Note_on_c, 0, 71, 0
2, 98420, Note_on_c, 0, 74, 60
2, 98444, Note_on_c, 0, 54, 0
2, 98548, Note_on_c, 0, 74, 0
2, 98572, Note_on_c, 0, 68, 0
2, 98604, Note_on_c, 0, 64, 0
2, 98984, Note_on_c, 0, 66, 47
2, 98992, Note_on_c, 0, 63, 45
2, 98992, Note_on_c, 0, 60, 32
2, 99012, Control_c, 0, 64, 0
2, 99032, Note_on_c, 0, 50, 33
2, 99044, Note_on_c, 0, 57, 24
2, 99044, Note_on_c, 0, 54, 23
2, 99112, Note_on_c, 0, 57, 0
2, 99128, Control_c, 0, 64, 127
2, 99184, Note_on_c, 0, 54, 0
2, 99192, Note_on_c, 0, 50, 0
2, 99408, Note_on_c, 0, 66, 0
2, 99432, Note_on_c, 0, 63, 0
2, 99476, Note_on_c, 0, 60, 0
2, 99544, Note_on_c, 0, 50, 45
2, 99624, Note_on_c, 0, 50, 0
2, 99880, Control_c, 0, 64, 0
2, 99900, Note_on_c, 0, 62, 42
2, 99908, Note_on_c, 0, 57, 28
2, 99908, Note_on_c, 0, 43, 30
2, 99912, Note_on_c, 0, 50, 38
2, 99912, Note_on_c, 0, 59, 42
2, 99928, Note_on_c, 0, 54, 30
2, 99992, Control_c, 0, 64, 127
2, 100080, Note_on_c, 0, 57, 0
2, 100096, Note_on_c, 0, 43, 0
2, 100104, Note_on_c, 0, 59, 0
2, 100120, Note_on_c, 0, 50, 0
2, 100124, Note_on_c, 0, 62, 0
2, 100180, Note_on_c, 0, 54, 0
2, 100544, Note_on_c, 0, 74, 105
2, 100764, Note_on_c, 0, 74, 0
2, 100792, Note_on_c, 0, 69, 48
2, 100804, Note_on_c, 0, 56, 39
2, 100820, Note_on_c, 0, 62, 35
2, 100864, Note_on_c, 0, 62, 0
2, 100864, Note_on_c, 0, 59, 24
2, 100868, Control_c, 0, 64, 0
2, 100872, Note_on_c, 0, 70, 44
2, 100896, Note_on_c, 0, 59, 0
2, 100908, Note_on_c, 0, 56, 0
2, 100920, Note_on_c, 0, 69, 0
2, 100924, Note_on_c, 0, 70, 0
2, 100952, Note_on_c, 0, 71, 42
2, 101076, Note_on_c, 0, 71, 0
2, 101132, Note_on_c, 0, 74, 67
2, 101232, Note_on_c, 0, 74, 0
2, 101348, Control_c, 0, 64, 127
2, 101360, Note_on_c, 0, 76, 82
2, 101472, Note_on_c, 0, 76, 0
2, 101584, Note_on_c, 0, 71, 48
2, 101712, Control_c, 0, 64, 0
2, 101732, Note_on_c, 0, 71, 0
2, 101780, Note_on_c, 0, 52, 40
2, 101780, Note_on_c, 0, 36, 9
2, 101784, Note_on_c, 0, 74, 62
2, 101880, Control_c, 0, 64, 127
2, 101992, Note_on_c, 0, 36, 0
2, 102108, Note_on_c, 0, 52, 0
2, 102112, Note_on_c, 0, 67, 53
2, 102680, Note_on_c, 0, 57, 36
2, 102680, Note_on_c, 0, 60, 29
2, 102688, Note_on_c, 0, 52, 20
2, 102824, Note_on_c, 0, 74, 0
2, 102892, Note_on_c, 0, 67, 0
2, 103012, Note_on_c, 0, 60, 0
2, 103024, Note_on_c, 0, 57, 0
2, 103076, Note_on_c, 0, 52, 0
2, 103324, Note_on_c, 0, 67, 68
2, 103436, Note_on_c, 0, 67, 0
2, 103608, Note_on_c, 0, 62, 48
2, 103612, Note_on_c, 0, 66, 43
2, 103620, Note_on_c, 0, 57, 36
2, 103624, Note_on_c, 0, 54, 35
2, 103640, Control_c, 0, 64, 0
2, 103644, Note_on_c, 0, 47, 33
2, 103764, Control_c, 0, 64, 127
2, 103920, Note_on_c, 0, 62, 0
2, 103996, Note_on_c, 0, 66, 0
2, 104072, Note_on_c, 0, 57, 0
2, 104244, Note_on_c, 0, 79, 80
2, 104268, Note_on_c, 0, 54, 0
2, 104392, Note_on_c, 0, 79, 0
2, 104528, Note_on_c, 0, 67, 51
2, 104548, Note_on_c, 0, 54, 29
2, 104560, Note_on_c, 0, 57, 30
2, 104564, Control_c, 0, 64, 0
2, 104704, Note_on_c, 0, 47, 0
2, 104756, Note_on_c, 0, 67, 0
2, 104768, Note_on_c, 0, 54, 0
2, 104768, Note_on_c, 0, 70, 51
2, 104780, Note_on_c, 0, 57, 0
2, 104892, Note_on_c, 0, 70, 0
2, 105000, Note_on_c, 0, 73, 62
2, 105132, Control_c, 0, 64, 127
2, 105160, Note_on_c, 0, 73, 0
2, 105220, Note_on_c, 0, 76, 66
2, 105332, Control_c, 0, 64, 0
2, 105360, Note_on_c, 0, 76, 0
2, 105424, Note_on_c, 0, 64, 42
2, 105432, Note_on_c, 0, 61, 37
2, 105440, Note_on_c, 0, 79, 50
2, 105444, Note_on_c, 0, 58, 33
2, 105560, Note_on_c, 0, 79, 0
2, 105604, Note_on_c, 0, 64, 0
2, 105660, Note_on_c, 0, 82, 57
2, 105676, Note_on_c, 0, 61, 0
2, 105676, Note_on_c, 0, 58, 0
2, 105752, Note_on_c, 0, 82, 0
2, 105872, Note_on_c, 0, 85, 46
2, 105920, Note_on_c, 0, 85, 0
2, 106124, Control_c, 0, 64, 127
2, 106248, Control_c, 0, 64, 0
2, 106304, Note_on_c, 0, 61, 26
2, 106320, Note_on_c, 0, 58, 34
2, 106340, Note_on_c, 0, 52, 35
2, 106344, Control_c, 0, 64, 127
2, 106560, Note_on_c, 0, 52, 0
2, 106564, Note_on_c, 0, 61, 0
2, 106564, Note_on_c, 0, 91, 75
2, 106572, Note_on_c, 0, 58, 0
2, 106692, Note_on_c, 0, 91, 0
2, 106792, Note_on_c, 0, 88, 47
2, 106880, Note_on_c, 0, 88, 0
2, 107268, Control_c, 0, 64, 0
2, 107272, Note_on_c, 0, 55, 38
2, 107284, Note_on_c, 0, 86, 71
2, 107284, Note_on_c, 0, 52, 26
2, 107288, Note_on_c, 0, 45, 33
2, 107452, Control_c, 0, 64, 127
2, 107524, Note_on_c, 0, 86, 0
2, 107540, Note_on_c, 0, 83, 52
2, 107588, Note_on_c, 0, 45, 0
2, 107632, Note_on_c, 0, 52, 0
2, 107684, Note_on_c, 0, 55, 0
2, 107704, Note_on_c, 0, 83, 0
2, 107784, Note_on_c, 0, 84, 78
2, 107972, Note_on_c, 0, 84, 0
2, 108024, Note_on_c, 0, 81, 50
2, 108172, Note_on_c, 0, 81, 0
2, 108240, Note_on_c, 0, 64, 39
2, 108260, Note_on_c, 0, 83, 72
2, 108264, Note_on_c, 0, 60, 32
2, 108268, Control_c, 0, 64, 0
2, 108280, Note_on_c, 0, 55, 34
2, 108284, Note_on_c, 0, 59, 32
2, 108444, Control_c, 0, 64, 127
2, 108472, Note_on_c, 0, 64, 0
2, 108488, Note_on_c, 0, 60, 0
2, 108492, Note_on_c, 0, 59, 0
2, 108504, Note_on_c, 0, 79, 53
2, 108572, Note_on_c, 0, 55, 0
2, 108584, Note_on_c, 0, 83, 0
2, 108604, Note_on_c, 0, 79, 0
2, 108732, Note_on_c, 0, 81, 69
2, 108960, Note_on_c, 0, 76, 45
2, 109060, Note_on_c, 0, 76, 0
2, 109060, Note_on_c, 0, 81, 0
2, 109188, Note_on_c, 0, 79, 57
2, 109188, Note_on_c, 0, 55, 35
2, 109192, Control_c, 0, 64, 0
2, 109208, Note_on_c, 0, 45, 34
2, 109208, Note_on_c, 0, 52, 37
2, 109340, Control_c, 0, 64, 127
2, 109376, Note_on_c, 0, 45, 0
2, 109408, Note_on_c, 0, 52, 0
2, 109424, Control_c, 0, 64, 0
2, 109452, Note_on_c, 0, 74, 40
2, 109468, Note_on_c, 0, 79, 0
2, 109472, Note_on_c, 0, 55, 0
2, 109584, Note_on_c, 0, 74, 0
2, 109700, Note_on_c, 0, 76, 53
2, 109704, Control_c, 0, 64, 127
2, 109852, Note_on_c, 0, 76, 0
2, 110088, Note_on_c, 0, 64, 50
2, 110124, Note_on_c, 0, 60, 33
2, 110140, Note_on_c, 0, 59, 32
2, 110140, Note_on_c, 0, 55, 30
2, 110192, Note_on_c, 0, 59, 0
2, 110192, Note_on_c, 0, 64, 0
2, 110212, Note_on_c, 0, 60, 0
2, 110308, Note_on_c, 0, 55, 0
2, 110392, Note_on_c, 0, 67, 80
2, 110524, Note_on_c, 0, 67, 0
2, 110640, Note_on_c, 0, 69, 82
2, 110728, Note_on_c, 0, 69, 0
2, 110944, Note_on_c, 0, 41, 49
2, 110968, Note_on_c, 0, 57, 55
2, 110972, Note_on_c, 0, 71, 80
2, 110972, Note_on_c, 0, 63, 74
2, 110980, Note_on_c, 0, 67, 80
2, 111004, Control_c, 0, 64, 0
2, 111160, Control_c, 0, 64, 127
2, 111396, Note_on_c, 0, 41, 0
2, 111480, Note_on_c, 0, 71, 0
2, 111492, Note_on_c, 0, 57, 0
2, 111548, Note_on_c, 0, 72, 77
2, 111612, Note_on_c, 0, 71, 31
2, 111680, Note_on_c, 0, 67, 0
2, 111696, Note_on_c, 0, 71, 0
2, 111720, Note_on_c, 0, 63, 0
2, 111812, Note_on_c, 0, 72, 0
2, 111880, Note_on_c, 0, 68, 49
2, 111892, Note_on_c, 0, 64, 49
2, 111920, Note_on_c, 0, 56, 50
2, 111944, Control_c, 0, 64, 0
2, 112108, Control_c, 0, 64, 127
2, 112172, Note_on_c, 0, 56, 0
2, 112332, Note_on_c, 0, 64, 0
2, 112440, Note_on_c, 0, 68, 0
2, 112488, Note_on_c, 0, 54, 42
2, 112680, Note_on_c, 0, 54, 0
2, 112780, Note_on_c, 0, 70, 52
2, 112784, Note_on_c, 0, 55, 58
2, 112784, Note_on_c, 0, 61, 42
2, 112792, Control_c, 0, 64, 0
2, 112800, Note_on_c, 0, 65, 57
2, 112948, Control_c, 0, 64, 127
2, 113224, Note_on_c, 0, 55, 0
2, 113248, Note_on_c, 0, 65, 0
2, 113304, Note_on_c, 0, 70, 0
2, 113336, Note_on_c, 0, 61, 0
2, 113652, Control_c, 0, 64, 0
2, 113680, Note_on_c, 0, 63, 44
2, 113688, Note_on_c, 0, 66, 36
2, 113692, Note_on_c, 0, 69, 49
2, 113700, Note_on_c, 0, 60, 34
2, 113704, Note_on_c, 0, 54, 23
2, 113724, Note_on_c, 0, 50, 32
2, 113732, Note_on_c, 0, 57, 24
2, 113760, Control_c, 0, 64, 127
2, 113980, Note_on_c, 0, 69, 0
2, 113984, Note_on_c, 0, 60, 0
2, 113984, Note_on_c, 0, 57, 0
2, 114028, Note_on_c, 0, 63, 0
2, 114072, Note_on_c, 0, 54, 0
2, 114080, Note_on_c, 0, 66, 0
2, 114092, Note_on_c, 0, 50, 0
2, 114260, Note_on_c, 0, 62, 91
2, 114460, Note_on_c, 0, 62, 0
2, 114588, Note_on_c, 0, 50, 61
2, 114592, Note_on_c, 0, 49, 37
2, 114592, Note_on_c, 0, 62, 68
2, 114644, Control_c, 0, 64, 0
2, 114660, Note_on_c, 0, 49, 0
2, 114720, Note_on_c, 0, 62, 0
2, 115228, Note_on_c, 0, 62, 84
2, 115296, Note_on_c, 0, 62, 0
2, 115364, Control_c, 0, 64, 127
2, 115508, Control_c, 0, 64, 0
2, 115572, Note_on_c, 0, 62, 69
2, 115644, Note_on_c, 0, 62, 0
2, 115848, Note_on_c, 0, 64, 60
2, 115896, Note_on_c, 0, 64, 0
2, 116168, Note_on_c, 0, 67, 101
2, 116184, Control_c, 0, 64, 127
2, 116796, Note_on_c, 0, 67, 0
2, 116808, Note_on_c, 0, 62, 54
2, 116916, Note_on_c, 0, 62, 0
2, 117064, Note_on_c, 0, 64, 62
2, 117204, Note_on_c, 0, 64, 0
2, 117380, Note_on_c, 0, 67, 80
2, 117432, Note_on_c, 0, 50, 0
2, 117544, Note_on_c, 0, 67, 0
2, 117952, Note_on_c, 0, 74, 66
2, 118036, Note_on_c, 0, 74, 0
2, 118260, Note_on_c, 0, 74, 55
2, 118260, Note_on_c, 0, 57, 42
2, 118264, Control_c, 0, 64, 0
2, 118268, Note_on_c, 0, 69, 49
2, 118268, Note_on_c, 0, 77, 53
2, 118284, Note_on_c, 0, 47, 34
2, 118384, Control_c, 0, 64, 127
2, 118480, Note_on_c, 0, 69, 0
2, 118504, Note_on_c, 0, 47, 0
2, 118540, Note_on_c, 0, 74, 0
2, 118568, Note_on_c, 0, 57, 0
2, 118572, Note_on_c, 0, 77, 0
2, 118884, Note_on_c, 0, 89, 91
2, 119160, Note_on_c, 0, 65, 42
2, 119184, Note_on_c, 0, 57, 40
2, 119192, Note_on_c, 0, 81, 37
2, 119192, Note_on_c, 0, 62, 27
2, 119316, Note_on_c, 0, 81, 0
2, 119368, Note_on_c, 0, 89, 0
2, 119420, Note_on_c, 0, 84, 71
2, 119484, Note_on_c, 0, 84, 0
2, 119552, Note_on_c, 0, 65, 0
2, 119576, Note_on_c, 0, 57, 0
2, 119592, Note_on_c, 0, 62, 0
2, 119624, Note_on_c, 0, 86, 65
2, 119724, Note_on_c, 0, 86, 0
2, 119828, Note_on_c, 0, 89, 80
2, 119920, Note_on_c, 0, 89, 0
2, 120048, Note_on_c, 0, 88, 62
2, 120060, Note_on_c, 0, 76, 53
2, 120068, Note_on_c, 0, 77, 44
2, 120080, Note_on_c, 0, 56, 40
2, 120080, Note_on_c, 0, 84, 47
2, 120084, Note_on_c, 0, 83, 46
2, 120084, Note_on_c, 0, 62, 40
2, 120088, Control_c, 0, 64, 0
2, 120092, Note_on_c, 0, 67, 29
2, 120108, Note_on_c, 0, 77, 0
2, 120124, Note_on_c, 0, 84, 0
2, 120272, Control_c, 0, 64, 127
2, 120336, Note_on_c, 0, 67, 0
2, 120368, Note_on_c, 0, 62, 0
2, 120428, Note_on_c, 0, 56, 0
2, 120564, Note_on_c, 0, 86, 11
2, 120684, Note_on_c, 0, 76, 0
2, 120716, Note_on_c, 0, 88, 0
2, 120752, Note_on_c, 0, 86, 0
2, 120988, Note_on_c, 0, 56, 87
2, 121000, Note_on_c, 0, 46, 71
2, 121024, Control_c, 0, 64, 0
2, 121036, Note_on_c, 0, 83, 0
2, 121168, Control_c, 0, 64, 127
2, 121580, Note_on_c, 0, 56, 0
2, 121608, Note_on_c, 0, 46, 0
2, 121928, Control_c, 0, 64, 0
2, 121952, Note_on_c, 0, 55, 46
2, 121964, Note_on_c, 0, 45, 34
2, 122012, Control_c, 0, 64, 127
2, 122272, Note_on_c, 0, 45, 0
2, 122332, Note_on_c, 0, 55, 0
2, 122604, Note_on_c, 0, 70, 68
2, 122608, Note_on_c, 0, 82, 59
2, 122628, Note_on_c, 0, 76, 49
2, 122644, Note_on_c, 0, 79, 46
2, 122692, Note_on_c, 0, 83, 57
2, 122696, Note_on_c, 0, 82, 0
2, 122708, Note_on_c, 0, 70, 0
2, 122724, Note_on_c, 0, 71, 51
2, 122768, Note_on_c, 0, 71, 0
2, 122804, Note_on_c, 0, 83, 0
2, 122868, Note_on_c, 0, 65, 53
2, 122876, Note_on_c, 0, 76, 0
2, 122892, Note_on_c, 0, 61, 34
2, 122892, Note_on_c, 0, 55, 36
2, 122896, Note_on_c, 0, 79, 0
2, 122928, Note_on_c, 0, 65, 0
2, 122940, Control_c, 0, 64, 0
2, 122988, Note_on_c, 0, 82, 46
2, 122992, Note_on_c, 0, 70, 45
2, 123008, Note_on_c, 0, 79, 30
2, 123032, Note_on_c, 0, 76, 31
2, 123044, Note_on_c, 0, 55, 0
2, 123112, Note_on_c, 0, 61, 0
2, 123116, Note_on_c, 0, 70, 0
2, 123132, Note_on_c, 0, 82, 0
2, 123296, Note_on_c, 0, 76, 0
2, 123312, Control_c, 0, 64, 127
2, 123336, Note_on_c, 0, 79, 0
2, 123400, Control_c, 0, 64, 0
2, 123460, Control_c, 0, 64, 127
2, 123508, Note_on_c, 0, 82, 60
2, 123520, Note_on_c, 0, 70, 52
2, 123528, Note_on_c, 0, 76, 62
2, 123628, Note_on_c, 0, 70, 0
2, 123656, Note_on_c, 0, 82, 0
2, 123684, Note_on_c, 0, 81, 35
2, 123696, Note_on_c, 0, 76, 0
2, 123728, Note_on_c, 0, 81, 0
2, 123832, Note_on_c, 0, 65, 50
2, 123844, Note_on_c, 0, 81, 55
2, 123848, Note_on_c, 0, 61, 35
2, 123852, Control_c, 0, 64, 0
2, 123860, Note_on_c, 0, 55, 49
2, 123880, Note_on_c, 0, 77, 40
2, 123888, Note_on_c, 0, 69, 24
2, 123916, Note_on_c, 0, 65, 0
2, 123968, Note_on_c, 0, 55, 0
2, 123976, Note_on_c, 0, 81, 0
2, 123992, Note_on_c, 0, 61, 0
2, 124024, Note_on_c, 0, 77, 0
2, 124028, Note_on_c, 0, 69, 0
2, 124092, Control_c, 0, 64, 127
2, 124444, Note_on_c, 0, 45, 64
2, 124752, Note_on_c, 0, 67, 69
2, 124764, Note_on_c, 0, 58, 54
2, 124768, Control_c, 0, 64, 0
2, 124772, Note_on_c, 0, 61, 47
2, 124780, Note_on_c, 0, 55, 47
2, 124940, Control_c, 0, 64, 127
2, 124964, Note_on_c, 0, 67, 0
2, 124968, Note_on_c, 0, 58, 0
2, 124996, Note_on_c, 0, 61, 0
2, 125040, Note_on_c, 0, 58, 53
2, 125044, Note_on_c, 0, 67, 66
2, 125052, Note_on_c, 0, 61, 35
2, 125072, Note_on_c, 0, 64, 49
2, 125152, Note_on_c, 0, 45, 0
2, 125240, Note_on_c, 0, 55, 0
2, 125252, Note_on_c, 0, 67, 0
2, 125260, Note_on_c, 0, 64, 0
2, 125272, Note_on_c, 0, 58, 0
2, 125284, Note_on_c, 0, 61, 0
2, 125312, Note_on_c, 0, 45, 44
2, 125340, Note_on_c, 0, 69, 74
2, 125368, Note_on_c, 0, 67, 24
2, 125396, Note_on_c, 0, 45, 0
2, 125400, Note_on_c, 0, 67, 0
2, 125424, Note_on_c, 0, 69, 0
2, 125612, Note_on_c, 0, 71, 62
2, 125624, Note_on_c, 0, 64, 60
2, 125624, Note_on_c, 0, 60, 58
2, 125628, Note_on_c, 0, 59, 39
2, 125632, Control_c, 0, 64, 0
2, 125632, Note_on_c, 0, 67, 43
2, 125640, Note_on_c, 0, 57, 33
2, 125752, Note_on_c, 0, 57, 0
2, 125756, Note_on_c, 0, 60, 0
2, 125768, Note_on_c, 0, 64, 0
2, 125772, Note_on_c, 0, 67, 0
2, 125792, Note_on_c, 0, 59, 0
2, 125800, Note_on_c, 0, 71, 0
2, 125900, Note_on_c, 0, 74, 83
2, 125904, Note_on_c, 0, 59, 52
2, 125904, Note_on_c, 0, 64, 68
2, 125908, Note_on_c, 0, 67, 58
2, 125992, Note_on_c, 0, 59, 0
2, 126000, Note_on_c, 0, 67, 0
2, 126020, Note_on_c, 0, 74, 0
2, 126028, Note_on_c, 0, 64, 0
2, 126228, Note_on_c, 0, 71, 60
2, 126228, Note_on_c, 0, 67, 55
2, 126232, Note_on_c, 0, 64, 60
2, 126240, Note_on_c, 0, 60, 50
2, 126248, Note_on_c, 0, 59, 39
2, 126448, Control_c, 0, 64, 127
2, 126692, Note_on_c, 0, 60, 0
2, 126752, Note_on_c, 0, 59, 0
2, 126760, Note_on_c, 0, 64, 0
2, 126772, Note_on_c, 0, 67, 0
2, 126844, Note_on_c, 0, 55, 53
2, 126856, Note_on_c, 0, 71, 0
2, 126888, Note_on_c, 0, 55, 0
2, 127152, Note_on_c, 0, 38, 35
2, 127196, Note_on_c, 0, 38, 0
2, 127448, Note_on_c, 0, 68, 49
2, 127448, Note_on_c, 0, 60, 51
2, 127452, Note_on_c, 0, 71, 45
2, 127452, Note_on_c, 0, 64, 62
2, 127460, Note_on_c, 0, 54, 46
2, 127500, Control_c, 0, 64, 0
2, 127672, Control_c, 0, 64, 127
2, 128040, Note_on_c, 0, 54, 0
2, 128072, Note_on_c, 0, 64, 0
2, 128100, Note_on_c, 0, 60, 0
2, 128116, Note_on_c, 0, 68, 0
2, 128224, Note_on_c, 0, 71, 0
2, 128392, Note_on_c, 0, 60, 38
2, 128392, Note_on_c, 0, 66, 47
2, 128408, Note_on_c, 0, 64, 54
2, 128424, Note_on_c, 0, 54, 25
2, 128444, Control_c, 0, 64, 0
2, 128444, Note_on_c, 0, 57, 25
2, 128480, Note_on_c, 0, 50, 20
2, 128540, Control_c, 0, 64, 127
2, 128608, Note_on_c, 0, 57, 0
2, 128664, Note_on_c, 0, 50, 0
2, 128672, Note_on_c, 0, 54, 0
2, 128700, Note_on_c, 0, 64, 0
2, 128732, Note_on_c, 0, 66, 0
2, 128756, Note_on_c, 0, 60, 0
2, 129004, Note_on_c, 0, 54, 55
2, 129024, Note_on_c, 0, 56, 52
2, 129028, Control_c, 0, 64, 0
2, 129032, Note_on_c, 0, 44, 46
2, 129108, Note_on_c, 0, 56, 0
2, 129132, Control_c, 0, 64, 127
2, 129272, Note_on_c, 0, 54, 0
2, 129296, Note_on_c, 0, 44, 0
2, 129384, Control_c, 0, 64, 0
2, 129392, Note_on_c, 0, 59, 47
2, 129400, Note_on_c, 0, 54, 60
2, 129408, Note_on_c, 0, 43, 32
2, 129644, Control_c, 0, 64, 127
2, 129704, Note_on_c, 0, 54, 0
2, 129728, Note_on_c, 0, 43, 0
2, 129752, Note_on_c, 0, 59, 0
2, 130320, Note_on_c, 0, 62, 46
2, 130328, Note_on_c, 0, 66, 46
2, 130364, Note_on_c, 0, 59, 40
2, 130408, Note_on_c, 0, 66, 0
2, 130444, Note_on_c, 0, 62, 0
2, 130456, Note_on_c, 0, 59, 0
2, 130592, Note_on_c, 0, 71, 95
2, 130676, Note_on_c, 0, 71, 0
2, 130792, Note_on_c, 0, 72, 96
2, 130896, Note_on_c, 0, 72, 0
2, 130984, Note_on_c, 0, 74, 101
2, 131108, Note_on_c, 0, 74, 0
2, 131124, Note_on_c, 0, 36, 22
2, 131184, Control_c, 0, 64, 0
2, 131188, Note_on_c, 0, 52, 53
2, 131200, Note_on_c, 0, 71, 77
2, 131200, Note_on_c, 0, 67, 82
2, 131360, Control_c, 0, 64, 127
2, 131376, Note_on_c, 0, 36, 0
2, 131468, Note_on_c, 0, 52, 0
2, 131508, Note_on_c, 0, 64, 47
2, 131960, Note_on_c, 0, 64, 0
2, 132124, Note_on_c, 0, 62, 38
2, 132140, Note_on_c, 0, 52, 35
2, 132144, Note_on_c, 0, 57, 41
2, 132416, Note_on_c, 0, 62, 0
2, 132432, Note_on_c, 0, 57, 0
2, 132472, Note_on_c, 0, 52, 0
2, 132488, Note_on_c, 0, 67, 0
2, 132532, Note_on_c, 0, 71, 0
2, 133012, Control_c, 0, 64, 0
2, 133032, Note_on_c, 0, 66, 47
2, 133048, Note_on_c, 0, 57, 33
2, 133052, Note_on_c, 0, 62, 32
2, 133052, Note_on_c, 0, 47, 34
2, 133140, Control_c, 0, 64, 127
2, 133164, Note_on_c, 0, 62, 0
2, 133236, Note_on_c, 0, 47, 0
2, 133236, Note_on_c, 0, 66, 0
2, 133296, Note_on_c, 0, 57, 0
2, 133668, Note_on_c, 0, 74, 94
2, 133948, Note_on_c, 0, 65, 41
2, 133968, Note_on_c, 0, 57, 30
2, 133980, Note_on_c, 0, 62, 34
2, 134096, Note_on_c, 0, 65, 0
2, 134104, Note_on_c, 0, 62, 0
2, 134148, Note_on_c, 0, 57, 0
2, 134216, Note_on_c, 0, 74, 0
2, 134368, Note_on_c, 0, 69, 49
2, 134412, Note_on_c, 0, 69, 0
2, 134484, Note_on_c, 0, 70, 46
2, 134548, Note_on_c, 0, 70, 0
2, 134584, Note_on_c, 0, 72, 60
2, 134656, Note_on_c, 0, 72, 0
2, 134704, Note_on_c, 0, 73, 68
2, 134748, Control_c, 0, 64, 0
2, 134752, Note_on_c, 0, 61, 38
2, 134760, Note_on_c, 0, 64, 36
2, 134768, Note_on_c, 0, 58, 34
2, 134772, Note_on_c, 0, 73, 0
2, 134800, Note_on_c, 0, 64, 0
2, 134820, Note_on_c, 0, 75, 52
2, 134848, Note_on_c, 0, 75, 0
2, 134852, Note_on_c, 0, 61, 0
2, 134872, Note_on_c, 0, 58, 0
2, 134912, Note_on_c, 0, 76, 56
2, 134944, Note_on_c, 0, 76, 0
2, 135024, Note_on_c, 0, 78, 27
2, 135056, Note_on_c, 0, 78, 0
2, 135092, Note_on_c, 0, 79, 57
2, 135184, Note_on_c, 0, 79, 0
2, 135188, Note_on_c, 0, 81, 64
2, 135272, Note_on_c, 0, 81, 0
2, 135312, Note_on_c, 0, 82, 42
2, 135340, Note_on_c, 0, 82, 0
2, 135408, Note_on_c, 0, 84, 61
2, 135452, Note_on_c, 0, 84, 0
2, 135524, Note_on_c, 0, 85, 55
2, 135596, Note_on_c, 0, 85, 0
2, 135608, Note_on_c, 0, 87, 50
2, 135640, Note_on_c, 0, 58, 32
2, 135652, Note_on_c, 0, 61, 21
2, 135660, Note_on_c, 0, 87, 0
2, 135664, Note_on_c, 0, 52, 36
2, 135744, Note_on_c, 0, 88, 53
2, 135832, Note_on_c, 0, 88, 0
2, 135840, Note_on_c, 0, 61, 0
2, 135848, Note_on_c, 0, 89, 58
2, 135852, Note_on_c, 0, 52, 0
2, 135900, Note_on_c, 0, 58, 0
2, 135936, Note_on_c, 0, 89, 0
2, 136064, Note_on_c, 0, 91, 44
2, 136116, Note_on_c, 0, 91, 0
2, 136188, Note_on_c, 0, 94, 32
2, 136252, Note_on_c, 0, 94, 0
2, 136308, Note_on_c, 0, 95, 34
2, 136368, Note_on_c, 0, 95, 0
2, 136412, Note_on_c, 0, 98, 84
2, 136532, Note_on_c, 0, 98, 0
2, 136580, Note_on_c, 0, 95, 81
2, 136584, Note_on_c, 0, 55, 47
2, 136604, Note_on_c, 0, 52, 42
2, 136612, Note_on_c, 0, 45, 32
2, 136700, Note_on_c, 0, 95, 0
2, 136752, Note_on_c, 0, 45, 0
2, 136772, Note_on_c, 0, 91, 54
2, 136796, Note_on_c, 0, 52, 0
2, 136836, Note_on_c, 0, 55, 0
2, 136876, Note_on_c, 0, 91, 0
2, 136964, Note_on_c, 0, 95, 73
2, 137088, Note_on_c, 0, 95, 0
2, 137180, Note_on_c, 0, 93, 74
2, 137328, Note_on_c, 0, 93, 0
2, 137352, Control_c, 0, 64, 127
2, 137412, Note_on_c, 0, 88, 58
2, 137444, Note_on_c, 0, 64, 42
2, 137464, Note_on_c, 0, 60, 33
2, 137464, Note_on_c, 0, 57, 36
2, 137592, Note_on_c, 0, 88, 0
2, 137904, Note_on_c, 0, 57, 0
2, 138012, Note_on_c, 0, 55, 64
2, 138064, Note_on_c, 0, 55, 0
2, 138204, Note_on_c, 0, 60, 0
2, 138228, Note_on_c, 0, 64, 0
2, 138332, Note_on_c, 0, 64, 68
2, 138344, Note_on_c, 0, 60, 62
2, 138352, Control_c, 0, 64, 0
2, 138360, Note_on_c, 0, 56, 33
2, 138364, Note_on_c, 0, 88, 44
2, 138388, Note_on_c, 0, 55, 43
2, 138424, Note_on_c, 0, 88, 0
2, 138428, Note_on_c, 0, 55, 0
2, 138472, Note_on_c, 0, 56, 0
2, 138632, Control_c, 0, 64, 127
2, 139028, Note_on_c, 0, 60, 0
2, 139060, Note_on_c, 0, 64, 0
2, 139260, Note_on_c, 0, 84, 54
2, 139268, Note_on_c, 0, 64, 42
2, 139268, Note_on_c, 0, 79, 36
2, 139280, Control_c, 0, 64, 0
2, 139288, Note_on_c, 0, 60, 33
2, 139300, Note_on_c, 0, 55, 34
2, 139320, Control_c, 0, 64, 127
2, 139376, Note_on_c, 0, 64, 0
2, 139392, Note_on_c, 0, 84, 0
2, 139400, Note_on_c, 0, 79, 0
2, 139412, Note_on_c, 0, 60, 0
2, 139472, Note_on_c, 0, 55, 0
2, 139848, Note_on_c, 0, 41, 60
2, 140108, Note_on_c, 0, 48, 15
2, 140124, Note_on_c, 0, 57, 58
2, 140144, Control_c, 0, 64, 0
2, 140148, Note_on_c, 0, 83, 48
2, 140152, Note_on_c, 0, 79, 45
2, 140160, Note_on_c, 0, 75, 32
2, 140216, Note_on_c, 0, 41, 0
2, 140288, Note_on_c, 0, 48, 0
2, 140312, Note_on_c, 0, 57, 0
2, 140328, Control_c, 0, 64, 127
2, 140404, Note_on_c, 0, 86, 74
2, 140416, Note_on_c, 0, 83, 0
2, 140440, Note_on_c, 0, 75, 0
2, 140484, Note_on_c, 0, 79, 0
2, 140524, Note_on_c, 0, 86, 0
2, 140632, Note_on_c, 0, 86, 73
2, 140780, Note_on_c, 0, 86, 0
2, 140844, Note_on_c, 0, 84, 66
2, 140968, Note_on_c, 0, 84, 0
2, 141060, Note_on_c, 0, 66, 38
2, 141060, Note_on_c, 0, 84, 57
2, 141068, Note_on_c, 0, 62, 35
2, 141072, Note_on_c, 0, 56, 36
2, 141080, Control_c, 0, 64, 0
2, 141232, Control_c, 0, 64, 127
2, 141560, Note_on_c, 0, 84, 0
2, 141648, Note_on_c, 0, 62, 0
2, 141652, Note_on_c, 0, 66, 0
2, 141680, Note_on_c, 0, 83, 79
2, 141844, Note_on_c, 0, 83, 0
2, 141876, Note_on_c, 0, 56, 0
2, 141984, Note_on_c, 0, 82, 67
2, 141984, Note_on_c, 0, 65, 54
2, 141992, Note_on_c, 0, 61, 36
2, 142004, Control_c, 0, 64, 0
2, 142004, Note_on_c, 0, 55, 41
2, 142176, Note_on_c, 0, 82, 0
2, 142228, Note_on_c, 0, 83, 53
2, 142300, Control_c, 0, 64, 127
2, 142320, Note_on_c, 0, 83, 0
2, 142424, Control_c, 0, 64, 0
2, 142444, Note_on_c, 0, 84, 78
2, 142464, Control_c, 0, 64, 127
2, 142552, Note_on_c, 0, 84, 0
2, 142604, Note_on_c, 0, 65, 0
2, 142608, Note_on_c, 0, 55, 0
2, 142688, Note_on_c, 0, 80, 46
2, 142796, Note_on_c, 0, 61, 0
2, 142800, Note_on_c, 0, 80, 0
2, 142872, Note_on_c, 0, 81, 53
2, 142884, Note_on_c, 0, 64, 34
2, 142884, Note_on_c, 0, 54, 31
2, 142888, Control_c, 0, 64, 0
2, 142892, Note_on_c, 0, 60, 33
2, 143064, Control_c, 0, 64, 127
2, 143076, Note_on_c, 0, 81, 0
2, 143140, Note_on_c, 0, 78, 48
2, 143288, Note_on_c, 0, 78, 0
2, 143288, Note_on_c, 0, 64, 0
2, 143312, Note_on_c, 0, 60, 0
2, 143348, Note_on_c, 0, 74, 35
2, 143392, Note_on_c, 0, 54, 0
2, 143500, Note_on_c, 0, 74, 0
2, 143592, Note_on_c, 0, 74, 61
2, 143724, Note_on_c, 0, 74, 0
2, 143804, Note_on_c, 0, 78, 71
2, 143812, Control_c, 0, 64, 0
2, 143820, Note_on_c, 0, 47, 43
2, 143820, Note_on_c, 0, 57, 45
2, 143984, Control_c, 0, 64, 127
2, 144088, Note_on_c, 0, 69, 47
2, 144152, Note_on_c, 0, 69, 0
2, 144164, Note_on_c, 0, 57, 0
2, 144164, Note_on_c, 0, 78, 0
2, 144232, Note_on_c, 0, 47, 0
2, 144324, Note_on_c, 0, 69, 43
2, 144384, Note_on_c, 0, 69, 0
2, 144564, Note_on_c, 0, 69, 60
2, 144668, Note_on_c, 0, 69, 0
2, 144784, Note_on_c, 0, 62, 51
2, 144800, Note_on_c, 0, 69, 57
2, 144804, Note_on_c, 0, 57, 36
2, 144824, Control_c, 0, 64, 0
2, 144856, Note_on_c, 0, 57, 0
2, 144864, Note_on_c, 0, 62, 0
2, 145044, Control_c, 0, 64, 127
2, 145160, Note_on_c, 0, 69, 0
2, 145320, Note_on_c, 0, 69, 60
2, 145500, Note_on_c, 0, 69, 0
2, 145644, Note_on_c, 0, 66, 40
2, 145648, Note_on_c, 0, 57, 40
2, 145648, Note_on_c, 0, 69, 58
2, 145664, Note_on_c, 0, 62, 37
2, 145668, Control_c, 0, 64, 0
2, 145852, Control_c, 0, 64, 127
2, 146056, Note_on_c, 0, 62, 0
2, 146060, Note_on_c, 0, 57, 0
2, 146116, Note_on_c, 0, 66, 0
2, 146244, Note_on_c, 0, 57, 51
2, 146376, Note_on_c, 0, 69, 0
2, 146548, Note_on_c, 0, 65, 59
2, 146572, Note_on_c, 0, 62, 49
2, 146608, Note_on_c, 0, 69, 29
2, 146712, Note_on_c, 0, 65, 0
2, 146716, Note_on_c, 0, 69, 0
2, 146768, Note_on_c, 0, 57, 0
2, 146784, Note_on_c, 0, 62, 0
2, 147160, Note_on_c, 0, 79, 80
2, 147168, Note_on_c, 0, 72, 80
2, 147168, Note_on_c, 0, 76, 73
2, 147172, Note_on_c, 0, 67, 80
2, 147372, Note_on_c, 0, 67, 0
2, 147388, Note_on_c, 0, 79, 0
2, 147392, Note_on_c, 0, 72, 0
2, 147420, Note_on_c, 0, 76, 0
2, 147460, Note_on_c, 0, 28, 51
2, 147468, Control_c, 0, 64, 0
2, 147492, Note_on_c, 0, 79, 49
2, 147504, Note_on_c, 0, 76, 65
2, 147504, Note_on_c, 0, 72, 53
2, 147508, Note_on_c, 0, 67, 40
2, 147548, Note_on_c, 0, 28, 0
2, 147584, Control_c, 0, 64, 127
2, 147800, Note_on_c, 0, 67, 0
2, 147812, Note_on_c, 0, 72, 0
2, 147816, Note_on_c, 0, 79, 0
2, 147852, Note_on_c, 0, 76, 0
2, 148040, Note_on_c, 0, 79, 61
2, 148040, Note_on_c, 0, 67, 52
2, 148048, Note_on_c, 0, 72, 45
2, 148048, Note_on_c, 0, 76, 51
2, 148080, Note_on_c, 0, 72, 0
2, 148080, Note_on_c, 0, 67, 0
2, 148100, Note_on_c, 0, 76, 0
2, 148124, Note_on_c, 0, 79, 0
2, 148312, Control_c, 0, 64, 0
2, 148344, Note_on_c, 0, 56, 67
2, 148348, Note_on_c, 0, 67, 66
2, 148352, Note_on_c, 0, 72, 63
2, 148352, Note_on_c, 0, 84, 71
2, 148364, Note_on_c, 0, 77, 47
2, 148364, Note_on_c, 0, 62, 51
2, 148380, Note_on_c, 0, 81, 33
2, 148392, Note_on_c, 0, 72, 0
2, 148392, Note_on_c, 0, 67, 0
2, 148396, Note_on_c, 0, 62, 0
2, 148400, Note_on_c, 0, 84, 0
2, 148404, Note_on_c, 0, 77, 0
2, 148424, Note_on_c, 0, 81, 0
2, 148424, Note_on_c, 0, 56, 0
2, 148660, Note_on_c, 0, 72, 46
2, 148660, Note_on_c, 0, 84, 50
2, 148664, Note_on_c, 0, 77, 33
2, 148700, Note_on_c, 0, 72, 0
2, 148704, Note_on_c, 0, 77, 0
2, 148704, Note_on_c, 0, 84, 0
2, 148760, Control_c, 0, 64, 127
2, 148864, Control_c, 0, 64, 0
2, 148952, Note_on_c, 0, 76, 76
2, 148952, Note_on_c, 0, 88, 75
2, 148960, Note_on_c, 0, 84, 62
2, 148960, Note_on_c, 0, 81, 62
2, 148972, Note_on_c, 0, 56, 69
2, 148980, Note_on_c, 0, 62, 69
2, 148980, Note_on_c, 0, 67, 70
2, 149092, Note_on_c, 0, 67, 0
2, 149104, Note_on_c, 0, 81, 0
2, 149112, Note_on_c, 0, 84, 0
2, 149112, Note_on_c, 0, 76, 0
2, 149124, Note_on_c, 0, 62, 0
2, 149132, Note_on_c, 0, 88, 0
2, 149136, Note_on_c, 0, 56, 0
2, 149284, Note_on_c, 0, 88, 53
2, 149292, Note_on_c, 0, 76, 30
2, 149292, Note_on_c, 0, 84, 36
2, 149304, Note_on_c, 0, 81, 28
2, 149324, Note_on_c, 0, 76, 0
2, 149336, Note_on_c, 0, 81, 0
2, 149336, Note_on_c, 0, 84, 0
2, 149372, Note_on_c, 0, 88, 0
2, 149548, Note_on_c, 0, 91, 74
2, 149552, Note_on_c, 0, 79, 67
2, 149568, Note_on_c, 0, 84, 61
2, 149568, Note_on_c, 0, 88, 49
2, 149580, Note_on_c, 0, 65, 82
2, 149580, Note_on_c, 0, 56, 74
2, 149588, Note_on_c, 0, 62, 65
2, 149608, Note_on_c, 0, 88, 0
2, 149612, Note_on_c, 0, 84, 0
2, 149620, Note_on_c, 0, 62, 0
2, 149652, Note_on_c, 0, 65, 0
2, 149652, Note_on_c, 0, 79, 0
2, 149656, Note_on_c, 0, 91, 0
2, 149704, Note_on_c, 0, 56, 0
2, 149800, Control_c, 0, 64, 127
2, 149812, Note_on_c, 0, 91, 50
2, 149820, Note_on_c, 0, 79, 41
2, 149872, Note_on_c, 0, 79, 0
2, 149904, Note_on_c, 0, 91, 0
2, 150100, Control_c, 0, 64, 0
2, 150100, Note_on_c, 0, 94, 83
2, 150104, Note_on_c, 0, 82, 85
2, 150112, Note_on_c, 0, 62, 80
2, 150112, Note_on_c, 0, 67, 81
2, 150124, Note_on_c, 0, 56, 69
2, 150312, Note_on_c, 0, 94, 0
2, 150328, Control_c, 0, 64, 127
2, 150364, Note_on_c, 0, 82, 0
2, 150420, Note_on_c, 0, 94, 50
2, 150448, Note_on_c, 0, 82, 30
2, 150476, Note_on_c, 0, 67, 0
2, 150508, Note_on_c, 0, 82, 0
2, 150520, Note_on_c, 0, 94, 0
2, 150520, Note_on_c, 0, 62, 0
2, 150544, Note_on_c, 0, 56, 0
2, 150692, Note_on_c, 0, 92, 56
2, 150692, Note_on_c, 0, 80, 53
2, 150692, Note_on_c, 0, 56, 51
2, 150700, Note_on_c, 0, 66, 63
2, 150720, Note_on_c, 0, 87, 46
2, 150864, Note_on_c, 0, 87, 0
2, 150872, Note_on_c, 0, 66, 0
2, 150884, Note_on_c, 0, 56, 0
2, 150916, Note_on_c, 0, 80, 0
2, 150916, Note_on_c, 0, 92, 0
2, 150952, Control_c, 0, 64, 0
2, 151004, Note_on_c, 0, 93, 66
2, 151008, Note_on_c, 0, 65, 62
2, 151020, Note_on_c, 0, 88, 60
2, 151024, Note_on_c, 0, 55, 55
2, 151028, Note_on_c, 0, 81, 42
2, 151028, Note_on_c, 0, 61, 51
2, 151100, Control_c, 0, 64, 127
2, 151200, Note_on_c, 0, 65, 0
2, 151228, Note_on_c, 0, 93, 0
2, 151244, Note_on_c, 0, 88, 0
2, 151252, Note_on_c, 0, 55, 0
2, 151260, Note_on_c, 0, 61, 0
2, 151308, Note_on_c, 0, 81, 0
2, 151608, Note_on_c, 0, 45, 70
2, 151676, Note_on_c, 0, 45, 0
2, 151928, Note_on_c, 0, 71, 85
2, 151928, Note_on_c, 0, 63, 85
2, 151932, Note_on_c, 0, 59, 85
2, 151932, Note_on_c, 0, 67, 75
2, 151932, Note_on_c, 0, 61, 87
2, 151952, Control_c, 0, 64, 0
2, 152160, Control_c, 0, 64, 127
2, 152696, Note_on_c, 0, 59, 0
2, 152712, Note_on_c, 0, 63, 0
2, 152748, Note_on_c, 0, 71, 0
2, 152772, Note_on_c, 0, 61, 0
2, 152812, Note_on_c, 0, 67, 0
2, 152888, Note_on_c, 0, 61, 57
2, 152892, Note_on_c, 0, 69, 64
2, 152900, Note_on_c, 0, 65, 68
2, 152908, Note_on_c, 0, 57, 55
2, 152920, Control_c, 0, 64, 0
2, 153084, Control_c, 0, 64, 127
2, 153196, Note_on_c, 0, 57, 0
2, 153404, Note_on_c, 0, 69, 0
2, 153412, Note_on_c, 0, 65, 0
2, 153420, Note_on_c, 0, 45, 54
2, 153452, Note_on_c, 0, 45, 0
2, 153472, Note_on_c, 0, 61, 0
2, 153788, Note_on_c, 0, 69, 82
2, 153800, Note_on_c, 0, 65, 87
2, 153804, Note_on_c, 0, 60, 83
2, 153812, Note_on_c, 0, 61, 74
2, 153820, Note_on_c, 0, 55, 74
2, 153852, Control_c, 0, 64, 0
2, 154032, Control_c, 0, 64, 127
2, 154404, Note_on_c, 0, 55, 0
2, 154408, Note_on_c, 0, 69, 0
2, 154416, Note_on_c, 0, 61, 0
2, 154440, Note_on_c, 0, 67, 45
2, 154444, Note_on_c, 0, 60, 0
2, 154528, Note_on_c, 0, 65, 0
2, 154544, Note_on_c, 0, 67, 0
2, 154600, Note_on_c, 0, 69, 71
2, 154732, Note_on_c, 0, 69, 0
2, 154792, Note_on_c, 0, 60, 68
2, 154804, Note_on_c, 0, 59, 68
2, 154804, Note_on_c, 0, 67, 58
2, 154808, Control_c, 0, 64, 0
2, 154808, Note_on_c, 0, 64, 62
2, 154808, Note_on_c, 0, 71, 61
2, 154952, Note_on_c, 0, 60, 0
2, 154960, Note_on_c, 0, 64, 0
2, 154964, Note_on_c, 0, 67, 0
2, 154988, Note_on_c, 0, 71, 0
2, 155060, Note_on_c, 0, 58, 45
2, 155076, Note_on_c, 0, 59, 0
2, 155120, Note_on_c, 0, 58, 0
2, 155280, Note_on_c, 0, 74, 74
2, 155284, Note_on_c, 0, 62, 72
2, 155284, Note_on_c, 0, 64, 68
2, 155288, Note_on_c, 0, 71, 63
2, 155288, Note_on_c, 0, 67, 66
2, 155416, Note_on_c, 0, 71, 0
2, 155432, Note_on_c, 0, 74, 0
2, 155432, Note_on_c, 0, 67, 0
2, 155468, Note_on_c, 0, 62, 0
2, 155476, Note_on_c, 0, 64, 0
2, 155660, Note_on_c, 0, 71, 53
2, 155664, Note_on_c, 0, 59, 50
2, 155664, Note_on_c, 0, 64, 51
2, 155668, Note_on_c, 0, 67, 53
2, 155672, Note_on_c, 0, 60, 36
2, 155820, Note_on_c, 0, 67, 0
2, 155840, Note_on_c, 0, 60, 0
2, 155852, Note_on_c, 0, 64, 0
2, 155904, Note_on_c, 0, 59, 0
2, 155908, Note_on_c, 0, 71, 0
2, 155964, Note_on_c, 0, 67, 44
2, 155968, Note_on_c, 0, 60, 39
2, 155980, Note_on_c, 0, 64, 46
2, 155980, Note_on_c, 0, 55, 49
2, 156064, Control_c, 0, 64, 127
2, 156088, Note_on_c, 0, 60, 0
2, 156112, Note_on_c, 0, 55, 0
2, 156128, Note_on_c, 0, 64, 0
2, 156144, Note_on_c, 0, 67, 0
2, 156484, Note_on_c, 0, 54, 44
2, 156572, Note_on_c, 0, 71, 71
2, 156580, Note_on_c, 0, 66, 71
2, 156584, Note_on_c, 0, 63, 71
2, 156592, Note_on_c, 0, 60, 70
2, 156604, Note_on_c, 0, 59, 66
2, 156624, Control_c, 0, 64, 0
2, 156712, Note_on_c, 0, 58, 35
2, 156716, Note_on_c, 0, 60, 0
2, 156732, Note_on_c, 0, 54, 0
2, 156764, Note_on_c, 0, 58, 0
2, 156776, Note_on_c, 0, 63, 0
2, 156808, Note_on_c, 0, 59, 0
2, 156808, Note_on_c, 0, 57, 55
2, 156820, Note_on_c, 0, 66, 0
2, 156840, Note_on_c, 0, 71, 0
2, 156940, Note_on_c, 0, 56, 49
2, 156948, Note_on_c, 0, 57, 0
2, 156972, Note_on_c, 0, 56, 0
2, 157048, Note_on_c, 0, 54, 46
2, 157080, Note_on_c, 0, 66, 49
2, 157084, Note_on_c, 0, 63, 46
2, 157088, Note_on_c, 0, 60, 46
2, 157092, Note_on_c, 0, 71, 45
2, 157372, Control_c, 0, 64, 127
2, 157448, Note_on_c, 0, 60, 0
2, 157468, Note_on_c, 0, 63, 0
2, 157472, Note_on_c, 0, 66, 0
2, 157572, Note_on_c, 0, 66, 35
2, 157580, Note_on_c, 0, 63, 34
2, 157584, Note_on_c, 0, 60, 41
2, 157604, Note_on_c, 0, 59, 43
2, 157680, Note_on_c, 0, 54, 0
2, 157728, Note_on_c, 0, 59, 0
2, 157800, Note_on_c, 0, 71, 0
2, 157936, Note_on_c, 0, 60, 0
2, 158000, Note_on_c, 0, 63, 0
2, 158072, Note_on_c, 0, 66, 0
2, 158200, Note_on_c, 0, 62, 35
2, 158212, Note_on_c, 0, 54, 15
2, 158228, Note_on_c, 0, 50, 25
2, 158332, Note_on_c, 0, 54, 0
2, 158448, Note_on_c, 0, 62, 0
2, 158476, Note_on_c, 0, 50, 0
2, 158532, Note_on_c, 0, 54, 33
2, 158532, Note_on_c, 0, 59, 36
2, 158532, Note_on_c, 0, 43, 38
2, 158568, Control_c, 0, 64, 0
2, 158712, Control_c, 0, 64, 127
2, 158756, Note_on_c, 0, 43, 0
2, 158780, Note_on_c, 0, 59, 0
2, 158860, Note_on_c, 0, 54, 0
2, 159492, Note_on_c, 0, 62, 34
2, 159500, Note_on_c, 0, 59, 43
2, 159580, Note_on_c, 0, 62, 0
2, 159612, Note_on_c, 0, 59, 0
2, 160032, Note_on_c, 0, 74, 94
2, 160136, Note_on_c, 0, 74, 0
2, 160324, Note_on_c, 0, 74, 96
2, 160348, Note_on_c, 0, 59, 67
2, 160348, Control_c, 0, 64, 0
2, 160532, Note_on_c, 0, 59, 0
2, 160548, Note_on_c, 0, 71, 59
2, 160572, Note_on_c, 0, 74, 0
2, 160584, Note_on_c, 0, 72, 24
2, 160608, Note_on_c, 0, 67, 60
2, 160616, Note_on_c, 0, 72, 0
2, 160684, Note_on_c, 0, 55, 34
2, 160688, Note_on_c, 0, 71, 0
2, 160700, Note_on_c, 0, 64, 72
2, 160708, Note_on_c, 0, 67, 0
2, 160728, Note_on_c, 0, 55, 0
2, 160764, Note_on_c, 0, 64, 0
2, 160812, Note_on_c, 0, 59, 59
2, 160824, Note_on_c, 0, 74, 89
2, 160844, Note_on_c, 0, 64, 59
2, 160964, Note_on_c, 0, 64, 0
2, 160988, Note_on_c, 0, 74, 0
2, 161000, Note_on_c, 0, 59, 0
2, 161024, Control_c, 0, 64, 127
2, 161048, Note_on_c, 0, 71, 36
2, 161064, Note_on_c, 0, 55, 27
2, 161092, Note_on_c, 0, 71, 0
2, 161108, Note_on_c, 0, 55, 0
2, 161148, Control_c, 0, 64, 0
2, 161200, Note_on_c, 0, 74, 80
2, 161212, Note_on_c, 0, 64, 74
2, 161220, Note_on_c, 0, 59, 55
2, 161220, Note_on_c, 0, 67, 68
2, 161272, Control_c, 0, 64, 127
2, 161392, Note_on_c, 0, 67, 0
2, 161412, Note_on_c, 0, 64, 0
2, 161472, Note_on_c, 0, 74, 0
2, 161488, Note_on_c, 0, 71, 66
2, 161488, Note_on_c, 0, 64, 60
2, 161512, Note_on_c, 0, 55, 62
2, 161520, Note_on_c, 0, 59, 0
2, 161524, Note_on_c, 0, 67, 28
2, 161552, Note_on_c, 0, 67, 0
2, 161600, Note_on_c, 0, 64, 0
2, 161700, Note_on_c, 0, 67, 66
2, 161720, Note_on_c, 0, 55, 0
2, 161728, Note_on_c, 0, 52, 41
2, 161772, Note_on_c, 0, 52, 0
2, 161836, Note_on_c, 0, 71, 0
2, 161880, Note_on_c, 0, 67, 0
2, 161932, Note_on_c, 0, 64, 52
2, 161976, Note_on_c, 0, 64, 0
2, 162132, Note_on_c, 0, 62, 66
2, 162144, Note_on_c, 0, 66, 53
2, 162148, Control_c, 0, 64, 0
2, 162164, Note_on_c, 0, 57, 28
2, 162164, Note_on_c, 0, 47, 46
2, 162304, Control_c, 0, 64, 127
2, 162392, Note_on_c, 0, 62, 0
2, 162452, Note_on_c, 0, 66, 0
2, 162468, Note_on_c, 0, 47, 0
2, 162524, Note_on_c, 0, 57, 0
2, 162760, Note_on_c, 0, 78, 73
2, 163040, Note_on_c, 0, 66, 37
2, 163048, Note_on_c, 0, 69, 33
2, 163092, Note_on_c, 0, 69, 0
2, 163128, Note_on_c, 0, 57, 11
2, 163148, Note_on_c, 0, 78, 0
2, 163272, Note_on_c, 0, 74, 51
2, 163288, Note_on_c, 0, 66, 0
2, 163296, Note_on_c, 0, 57, 0
2, 163364, Note_on_c, 0, 74, 0
2, 163480, Note_on_c, 0, 76, 64
2, 163612, Note_on_c, 0, 76, 0
2, 163692, Note_on_c, 0, 78, 64
2, 163832, Note_on_c, 0, 78, 0
2, 163920, Control_c, 0, 64, 0
2, 163920, Note_on_c, 0, 64, 41
2, 163920, Note_on_c, 0, 76, 63
2, 163932, Note_on_c, 0, 61, 38
2, 163948, Note_on_c, 0, 58, 37
2, 164052, Control_c, 0, 64, 127
2, 164172, Note_on_c, 0, 64, 0
2, 164264, Note_on_c, 0, 61, 0
2, 164308, Note_on_c, 0, 58, 0
2, 164392, Note_on_c, 0, 76, 0
2, 164860, Note_on_c, 0, 84, 82
2, 164868, Note_on_c, 0, 76, 80
2, 164868, Note_on_c, 0, 73, 77
2, 164868, Note_on_c, 0, 72, 74
2, 164872, Control_c, 0, 64, 0
2, 164920, Note_on_c, 0, 79, 27
2, 164920, Note_on_c, 0, 82, 29
2, 164968, Note_on_c, 0, 79, 0
2, 165024, Note_on_c, 0, 82, 0
2, 165040, Note_on_c, 0, 84, 0
2, 165104, Note_on_c, 0, 82, 63
2, 165108, Note_on_c, 0, 72, 0
2, 165108, Note_on_c, 0, 70, 61
2, 165112, Control_c, 0, 64, 127
2, 165252, Note_on_c, 0, 73, 0
2, 165272, Note_on_c, 0, 82, 0
2, 165288, Note_on_c, 0, 76, 0
2, 165288, Note_on_c, 0, 70, 0
2, 165332, Note_on_c, 0, 73, 35
2, 165440, Note_on_c, 0, 73, 0
2, 165568, Note_on_c, 0, 73, 70
2, 165572, Note_on_c, 0, 58, 59
2, 165588, Note_on_c, 0, 80, 54
2, 165652, Note_on_c, 0, 58, 0
2, 165676, Note_on_c, 0, 80, 0
2, 165700, Note_on_c, 0, 73, 0
2, 165760, Control_c, 0, 64, 0
2, 165784, Note_on_c, 0, 73, 11
2, 165804, Note_on_c, 0, 79, 55
2, 165824, Note_on_c, 0, 55, 58
2, 165832, Note_on_c, 0, 73, 0
2, 165840, Note_on_c, 0, 45, 31
2, 165860, Note_on_c, 0, 76, 31
2, 165884, Note_on_c, 0, 72, 25
2, 165900, Control_c, 0, 64, 127
2, 166060, Note_on_c, 0, 45, 0
2, 166112, Note_on_c, 0, 76, 0
2, 166112, Note_on_c, 0, 72, 0
2, 166148, Note_on_c, 0, 55, 0
2, 166264, Note_on_c, 0, 79, 0
2, 166452, Note_on_c, 0, 67, 46
2, 166684, Note_on_c, 0, 67, 0
2, 166768, Note_on_c, 0, 69, 57
2, 166772, Note_on_c, 0, 64, 54
2, 166812, Note_on_c, 0, 60, 27
2, 166820, Note_on_c, 0, 57, 28
2, 166828, Note_on_c, 0, 70, 38
2, 166836, Note_on_c, 0, 64, 0
2, 166852, Control_c, 0, 64, 0
2, 166856, Note_on_c, 0, 60, 0
2, 166868, Note_on_c, 0, 69, 0
2, 166904, Note_on_c, 0, 57, 0
2, 166908, Note_on_c, 0, 70, 0
2, 166932, Note_on_c, 0, 71, 46
2, 167040, Note_on_c, 0, 71, 0
2, 167144, Note_on_c, 0, 74, 51
2, 167184, Note_on_c, 0, 62, 27
2, 167212, Note_on_c, 0, 74, 0
2, 167216, Note_on_c, 0, 62, 0
2, 167384, Note_on_c, 0, 76, 72
2, 167424, Control_c, 0, 64, 127
2, 167484, Note_on_c, 0, 76, 0
2, 167664, Control_c, 0, 64, 0
2, 167668, Note_on_c, 0, 74, 50
2, 167684, Note_on_c, 0, 55, 34
2, 167688, Note_on_c, 0, 45, 33
2, 167808, Note_on_c, 0, 45, 0
2, 167876, Note_on_c, 0, 55, 0
2, 167900, Note_on_c, 0, 74, 0
2, 168000, Note_on_c, 0, 62, 35
2, 168092, Control_c, 0, 64, 127
2, 168204, Note_on_c, 0, 62, 0
2, 168540, Control_c, 0, 64, 0
2, 168588, Note_on_c, 0, 64, 45
2, 168620, Note_on_c, 0, 59, 34
2, 168628, Note_on_c, 0, 60, 29
2, 168628, Note_on_c, 0, 55, 34
2, 168912, Control_c, 0, 64, 127
2, 169108, Note_on_c, 0, 60, 0
2, 169120, Note_on_c, 0, 55, 0
2, 169132, Note_on_c, 0, 59, 0
2, 169160, Note_on_c, 0, 64, 0
2, 169212, Note_on_c, 0, 76, 63
2, 169296, Note_on_c, 0, 76, 0
2, 169520, Control_c, 0, 64, 0
2, 169540, Note_on_c, 0, 67, 67
2, 169548, Note_on_c, 0, 63, 48
2, 169552, Note_on_c, 0, 57, 48
2, 169832, Note_on_c, 0, 83, 94
2, 169840, Note_on_c, 0, 71, 92
2, 170000, Note_on_c, 0, 71, 0
2, 170016, Note_on_c, 0, 83, 0
2, 170068, Control_c, 0, 64, 127
2, 170184, Note_on_c, 0, 79, 35
2, 170224, Note_on_c, 0, 79, 0
2, 170224, Note_on_c, 0, 57, 0
2, 170224, Note_on_c, 0, 67, 0
2, 170340, Note_on_c, 0, 63, 0
2, 170412, Control_c, 0, 64, 0
2, 170448, Note_on_c, 0, 66, 75
2, 170448, Note_on_c, 0, 83, 96
2, 170452, Note_on_c, 0, 62, 71
2, 170452, Note_on_c, 0, 71, 94
2, 170460, Note_on_c, 0, 56, 69
2, 170624, Note_on_c, 0, 71, 0
2, 170640, Note_on_c, 0, 83, 0
2, 170780, Note_on_c, 0, 84, 83
2, 170784, Note_on_c, 0, 72, 74
2, 170800, Control_c, 0, 64, 127
2, 171084, Note_on_c, 0, 84, 0
2, 171112, Note_on_c, 0, 62, 0
2, 171172, Note_on_c, 0, 72, 0
2, 171176, Note_on_c, 0, 66, 0
2, 171304, Note_on_c, 0, 56, 0
2, 171424, Control_c, 0, 64, 0
2, 171428, Note_on_c, 0, 65, 68
2, 171432, Note_on_c, 0, 61, 46
2, 171432, Note_on_c, 0, 70, 78
2, 171440, Note_on_c, 0, 82, 54
2, 171444, Note_on_c, 0, 55, 57
2, 171488, Note_on_c, 0, 81, 30
2, 171528, Note_on_c, 0, 83, 17
2, 171604, Note_on_c, 0, 70, 0
2, 171680, Note_on_c, 0, 71, 5
2, 171684, Control_c, 0, 64, 127
2, 171816, Note_on_c, 0, 81, 0
2, 171824, Note_on_c, 0, 71, 0
2, 171888, Note_on_c, 0, 65, 0
2, 171908, Note_on_c, 0, 83, 0
2, 171932, Note_on_c, 0, 82, 0
2, 171972, Note_on_c, 0, 55, 0
2, 172160, Note_on_c, 0, 61, 0
2, 172412, Note_on_c, 0, 64, 58
2, 172420, Note_on_c, 0, 54, 56
2, 172424, Note_on_c, 0, 60, 51
2, 172440, Note_on_c, 0, 82, 83
2, 172444, Note_on_c, 0, 64, 0
2, 172444, Note_on_c, 0, 86, 83
2, 172444, Control_c, 0, 64, 0
2, 172456, Note_on_c, 0, 60, 0
2, 172472, Note_on_c, 0, 80, 28
2, 172504, Note_on_c, 0, 80, 0
2, 172520, Note_on_c, 0, 54, 0
2, 172540, Note_on_c, 0, 82, 0
2, 172580, Note_on_c, 0, 84, 41
2, 172600, Note_on_c, 0, 83, 46
2, 172672, Note_on_c, 0, 86, 0
2, 172684, Note_on_c, 0, 84, 0
2, 172700, Note_on_c, 0, 79, 54
2, 172708, Note_on_c, 0, 83, 0
2, 172740, Note_on_c, 0, 79, 0
2, 172772, Note_on_c, 0, 74, 60
2, 172816, Note_on_c, 0, 74, 0
2, 172884, Note_on_c, 0, 79, 60
2, 172888, Note_on_c, 0, 72, 62
2, 172984, Note_on_c, 0, 79, 0
2, 173020, Note_on_c, 0, 72, 0
2, 173128, Note_on_c, 0, 70, 74
2, 173140, Note_on_c, 0, 79, 57
2, 173232, Note_on_c, 0, 79, 0
2, 173232, Note_on_c, 0, 48, 22
2, 173272, Note_on_c, 0, 70, 0
2, 173300, Note_on_c, 0, 48, 0
2, 173304, Note_on_c, 0, 49, 43
2, 173340, Note_on_c, 0, 71, 37
2, 173340, Note_on_c, 0, 79, 57
2, 173360, Note_on_c, 0, 50, 66
2, 173416, Note_on_c, 0, 49, 0
2, 173520, Note_on_c, 0, 79, 0
2, 173568, Note_on_c, 0, 71, 0
2, 173608, Control_c, 0, 64, 127
2, 173620, Note_on_c, 0, 67, 57
2, 173688, Note_on_c, 0, 67, 0
2, 173748, Note_on_c, 0, 49, 25
2, 173788, Note_on_c, 0, 49, 0
2, 173868, Note_on_c, 0, 62, 57
2, 173920, Note_on_c, 0, 67, 28
2, 173952, Note_on_c, 0, 67, 0
2, 173976, Note_on_c, 0, 62, 0
2, 174232, Note_on_c, 0, 59, 52
2, 174252, Note_on_c, 0, 67, 60
2, 174264, Control_c, 0, 64, 0
2, 174372, Note_on_c, 0, 50, 0
2, 174560, Note_on_c, 0, 55, 31
2, 174744, Control_c, 0, 64, 127
2, 174784, Control_c, 0, 64, 0
2, 174832, Control_c, 0, 64, 127
2, 174848, Note_on_c, 0, 49, 52
2, 174852, Note_on_c, 0, 50, 60
2, 174888, Note_on_c, 0, 49, 0
2, 174952, Note_on_c, 0, 67, 0
2, 175052, Note_on_c, 0, 59, 0
2, 175072, Note_on_c, 0, 55, 0
2, 175184, Note_on_c, 0, 50, 0
2, 175272, Control_c, 0, 64, 0
2, 175480, Note_on_c, 0, 51, 51
2, 175484, Note_on_c, 0, 57, 60
2, 175528, Note_on_c, 0, 41, 42
2, 175888, Control_c, 0, 64, 127
2, 175944, Note_on_c, 0, 39, 18
2, 175972, Note_on_c, 0, 51, 0
2, 176024, Note_on_c, 0, 57, 0
2, 176060, Note_on_c, 0, 41, 0
2, 176092, Note_on_c, 0, 51, 53
2, 176100, Note_on_c, 0, 42, 45
2, 176104, Control_c, 0, 64, 0
2, 176108, Note_on_c, 0, 58, 53
2, 176168, Note_on_c, 0, 39, 0
2, 176312, Control_c, 0, 64, 127
2, 176576, Note_on_c, 0, 51, 0
2, 176800, Note_on_c, 0, 58, 0
2, 176908, Note_on_c, 0, 39, 35
2, 177048, Note_on_c, 0, 54, 46
2, 177064, Control_c, 0, 64, 0
2, 177068, Note_on_c, 0, 59, 51
2, 177072, Note_on_c, 0, 42, 0
2, 177088, Note_on_c, 0, 43, 43
2, 177112, Note_on_c, 0, 39, 0
2, 177352, Control_c, 0, 64, 127
2, 177420, Note_on_c, 0, 54, 0
2, 177492, Note_on_c, 0, 59, 0
2, 177652, Note_on_c, 0, 31, 77
2, 177732, Note_on_c, 0, 69, 32
2, 177772, Note_on_c, 0, 69, 0
2, 177816, Note_on_c, 0, 31, 0
2, 177900, Note_on_c, 0, 43, 0
2, 177904, Control_c, 0, 64, 0
2, 177928, Note_on_c, 0, 69, 77
2, 177988, Note_on_c, 0, 70, 52
2, 178064, Note_on_c, 0, 71, 54
2, 178088, Note_on_c, 0, 70, 0
2, 178096, Note_on_c, 0, 69, 0
2, 178228, Note_on_c, 0, 71, 0
2, 178272, Note_on_c, 0, 74, 77
2, 178420, Note_on_c, 0, 74, 0
2, 178548, Note_on_c, 0, 76, 95
2, 178564, Control_c, 0, 64, 127
2, 178740, Note_on_c, 0, 76, 0
2, 178832, Control_c, 0, 64, 0
2, 178840, Note_on_c, 0, 74, 88
2, 179128, Note_on_c, 0, 62, 45
2, 179184, Control_c, 0, 64, 127
2, 179320, Note_on_c, 0, 62, 0
2, 179428, Note_on_c, 0, 62, 64
2, 179580, Note_on_c, 0, 62, 0
2, 179608, Note_on_c, 0, 74, 0
2, 179688, Note_on_c, 0, 69, 69
2, 179740, Note_on_c, 0, 70, 55
2, 179760, Control_c, 0, 64, 0
2, 179820, Note_on_c, 0, 69, 0
2, 179820, Note_on_c, 0, 71, 60
2, 179828, Note_on_c, 0, 70, 0
2, 179968, Note_on_c, 0, 71, 0
2, 180020, Note_on_c, 0, 74, 80
2, 180028, Control_c, 0, 64, 127
2, 180172, Note_on_c, 0, 74, 0
2, 180292, Note_on_c, 0, 76, 82
2, 180432, Note_on_c, 0, 76, 0
2, 180592, Note_on_c, 0, 74, 57
2, 180604, Control_c, 0, 64, 0
2, 180608, Note_on_c, 0, 55, 40
2, 180608, Note_on_c, 0, 67, 50
2, 180620, Note_on_c, 0, 45, 31
2, 180748, Control_c, 0, 64, 127
2, 180832, Note_on_c, 0, 67, 0
2, 180848, Note_on_c, 0, 45, 0
2, 180908, Note_on_c, 0, 64, 32
2, 180928, Note_on_c, 0, 55, 0
2, 181016, Note_on_c, 0, 74, 0
2, 181040, Note_on_c, 0, 64, 0
2, 181200, Note_on_c, 0, 67, 60
2, 181292, Note_on_c, 0, 67, 0
2, 181504, Note_on_c, 0, 64, 62
2, 181508, Note_on_c, 0, 86, 76
2, 181528, Control_c, 0, 64, 0
2, 181532, Note_on_c, 0, 60, 40
2, 181548, Note_on_c, 0, 59, 34
2, 181556, Note_on_c, 0, 64, 0
2, 181564, Note_on_c, 0, 55, 26
2, 181576, Note_on_c, 0, 60, 0
2, 181588, Note_on_c, 0, 59, 0
2, 181588, Note_on_c, 0, 86, 0
2, 181616, Note_on_c, 0, 55, 0
2, 181944, Control_c, 0, 64, 127
2, 182448, Note_on_c, 0, 76, 57
2, 182452, Note_on_c, 0, 80, 38
2, 182452, Note_on_c, 0, 86, 53
2, 182464, Note_on_c, 0, 83, 57
2, 182468, Note_on_c, 0, 64, 53
2, 182484, Control_c, 0, 64, 0
2, 182484, Note_on_c, 0, 58, 35
2, 182488, Note_on_c, 0, 60, 44
2, 182492, Note_on_c, 0, 54, 28
2, 182588, Control_c, 0, 64, 127
2, 182716, Note_on_c, 0, 64, 0
2, 182732, Note_on_c, 0, 60, 0
2, 182772, Note_on_c, 0, 58, 0
2, 182796, Note_on_c, 0, 54, 0
2, 183072, Note_on_c, 0, 86, 0
2, 183072, Note_on_c, 0, 76, 0
2, 183124, Note_on_c, 0, 80, 0
2, 183132, Note_on_c, 0, 83, 0
2, 183392, Note_on_c, 0, 54, 42
2, 183424, Note_on_c, 0, 45, 38
2, 183896, Note_on_c, 0, 45, 0
2, 183972, Note_on_c, 0, 54, 0
2, 184012, Note_on_c, 0, 74, 101
2, 184176, Note_on_c, 0, 74, 0
2, 184324, Note_on_c, 0, 70, 74
2, 184344, Note_on_c, 0, 74, 76
2, 184372, Control_c, 0, 64, 0
2, 184380, Note_on_c, 0, 71, 68
2, 184388, Note_on_c, 0, 57, 48
2, 184392, Note_on_c, 0, 70, 0
2, 184400, Note_on_c, 0, 59, 36
2, 184404, Note_on_c, 0, 50, 51
2, 184432, Note_on_c, 0, 57, 0
2, 184468, Note_on_c, 0, 59, 0
2, 184552, Note_on_c, 0, 59, 55
2, 184680, Control_c, 0, 64, 127
2, 184748, Note_on_c, 0, 72, 1
2, 184808, Note_on_c, 0, 50, 0
2, 185004, Note_on_c, 0, 50, 45
2, 185072, Note_on_c, 0, 71, 0
2, 185100, Note_on_c, 0, 59, 0
2, 185352, Note_on_c, 0, 67, 66
2, 185352, Note_on_c, 0, 62, 65
2, 185364, Note_on_c, 0, 59, 50
2, 185536, Note_on_c, 0, 50, 0
2, 185668, Note_on_c, 0, 59, 0
2, 185856, Note_on_c, 0, 67, 0
2, 185856, Note_on_c, 0, 62, 0
2, 185924, Note_on_c, 0, 74, 0
2, 185932, Note_on_c, 0, 72, 0
2, 186280, Control_c, 0, 64, 0
2, 186312, Note_on_c, 0, 66, 49
2, 186324, Note_on_c, 0, 57, 44
2, 186328, Note_on_c, 0, 62, 50
2, 186340, Note_on_c, 0, 47, 31
2, 186392, Control_c, 0, 64, 127
2, 186440, Note_on_c, 0, 62, 0
2, 186476, Note_on_c, 0, 66, 0
2, 186712, Note_on_c, 0, 47, 0
2, 186756, Note_on_c, 0, 57, 0
2, 186932, Note_on_c, 0, 79, 105
2, 187240, Note_on_c, 0, 67, 59
2, 187244, Note_on_c, 0, 77, 76
2, 187248, Note_on_c, 0, 62, 48
2, 187264, Note_on_c, 0, 74, 71
2, 187264, Note_on_c, 0, 56, 38
2, 187268, Control_c, 0, 64, 0
2, 187276, Note_on_c, 0, 79, 0
2, 187412, Control_c, 0, 64, 127
2, 187516, Note_on_c, 0, 74, 0
2, 187524, Note_on_c, 0, 67, 0
2, 187564, Note_on_c, 0, 68, 50
2, 187696, Note_on_c, 0, 62, 0
2, 187776, Note_on_c, 0, 77, 0
2, 187788, Note_on_c, 0, 68, 0
2, 187844, Note_on_c, 0, 56, 0
2, 187868, Note_on_c, 0, 71, 76
2, 188192, Note_on_c, 0, 64, 60
2, 188212, Note_on_c, 0, 74, 83
2, 188220, Note_on_c, 0, 59, 46
2, 188224, Note_on_c, 0, 60, 43
2, 188248, Note_on_c, 0, 55, 33
2, 188248, Control_c, 0, 64, 0
2, 188260, Note_on_c, 0, 71, 0
2, 188296, Note_on_c, 0, 64, 0
2, 188324, Note_on_c, 0, 60, 0
2, 188332, Note_on_c, 0, 59, 0
2, 188380, Note_on_c, 0, 55, 0
2, 188532, Note_on_c, 0, 67, 39
2, 188580, Note_on_c, 0, 74, 0
2, 188632, Note_on_c, 0, 67, 0
2, 188644, Control_c, 0, 64, 127
2, 188812, Note_on_c, 0, 63, 51
2, 188828, Note_on_c, 0, 71, 65
2, 188844, Note_on_c, 0, 60, 65
2, 188852, Note_on_c, 0, 64, 76
2, 188884, Note_on_c, 0, 63, 0
2, 189184, Note_on_c, 0, 59, 58
2, 189212, Control_c, 0, 64, 0
2, 189412, Note_on_c, 0, 71, 0
2, 189468, Note_on_c, 0, 69, 46
2, 189488, Control_c, 0, 64, 127
2, 189632, Control_c, 0, 64, 0
2, 189636, Note_on_c, 0, 60, 0
2, 189692, Note_on_c, 0, 64, 0
2, 189756, Note_on_c, 0, 59, 0
2, 189756, Note_on_c, 0, 69, 0
2, 189768, Control_c, 0, 64, 127
2, 189788, Note_on_c, 0, 60, 31
2, 189804, Note_on_c, 0, 50, 45
2, 189916, Note_on_c, 0, 60, 0
2, 190092, Note_on_c, 0, 68, 50
2, 190120, Note_on_c, 0, 60, 43
2, 190124, Note_on_c, 0, 56, 40
2, 190128, Note_on_c, 0, 63, 32
2, 190132, Control_c, 0, 64, 0
2, 190148, Note_on_c, 0, 66, 37
2, 190328, Note_on_c, 0, 63, 0
2, 190332, Note_on_c, 0, 60, 0
2, 190380, Note_on_c, 0, 68, 0
2, 190412, Note_on_c, 0, 63, 29
2, 190412, Note_on_c, 0, 69, 58
2, 190424, Note_on_c, 0, 60, 54
2, 190440, Note_on_c, 0, 57, 46
2, 190456, Note_on_c, 0, 56, 0
2, 190524, Note_on_c, 0, 50, 0
2, 190664, Note_on_c, 0, 69, 0
2, 190716, Note_on_c, 0, 63, 0
2, 190716, Note_on_c, 0, 66, 0
2, 190720, Note_on_c, 0, 57, 0
2, 190728, Note_on_c, 0, 50, 64
2, 190744, Control_c, 0, 64, 127
2, 190928, Note_on_c, 0, 60, 0
2, 191060, Note_on_c, 0, 63, 55
2, 191064, Note_on_c, 0, 70, 58
2, 191072, Note_on_c, 0, 58, 58
2, 191084, Note_on_c, 0, 60, 34
2, 191100, Control_c, 0, 64, 0
2, 191288, Control_c, 0, 64, 127
2, 191304, Note_on_c, 0, 60, 0
2, 191304, Note_on_c, 0, 63, 0
2, 191316, Note_on_c, 0, 70, 0
2, 191360, Control_c, 0, 64, 0
2, 191384, Note_on_c, 0, 71, 68
2, 191384, Note_on_c, 0, 60, 60
2, 191388, Note_on_c, 0, 63, 53
2, 191388, Note_on_c, 0, 66, 60
2, 191392, Note_on_c, 0, 59, 68
2, 191436, Note_on_c, 0, 58, 0
2, 191452, Note_on_c, 0, 50, 0
2, 191640, Control_c, 0, 64, 127
2, 191652, Note_on_c, 0, 60, 0
2, 191688, Note_on_c, 0, 63, 0
2, 191700, Note_on_c, 0, 66, 0
2, 191700, Note_on_c, 0, 50, 59
2, 191708, Note_on_c, 0, 71, 0
2, 191712, Note_on_c, 0, 59, 0
2, 192024, Control_c, 0, 64, 0
2, 192044, Note_on_c, 0, 72, 60
2, 192044, Note_on_c, 0, 60, 66
2, 192128, Note_on_c, 0, 60, 0
2, 192132, Note_on_c, 0, 72, 0
2, 192184, Control_c, 0, 64, 127
2, 192360, Note_on_c, 0, 61, 65
2, 192364, Note_on_c, 0, 74, 81
2, 192368, Note_on_c, 0, 67, 83
2, 192368, Control_c, 0, 64, 0
2, 192552, Note_on_c, 0, 50, 0
2, 192552, Control_c, 0, 64, 127
2, 192572, Note_on_c, 0, 61, 0
2, 192672, Note_on_c, 0, 67, 0
2, 192684, Note_on_c, 0, 50, 57
2, 192688, Note_on_c, 0, 74, 0
2, 193012, Note_on_c, 0, 71, 63
2, 193024, Note_on_c, 0, 67, 68
2, 193024, Note_on_c, 0, 57, 54
2, 193028, Note_on_c, 0, 62, 50
2, 193032, Control_c, 0, 64, 0
2, 193168, Control_c, 0, 64, 127
2, 193316, Note_on_c, 0, 67, 0
2, 193320, Note_on_c, 0, 71, 0
2, 193324, Note_on_c, 0, 57, 0
2, 193348, Note_on_c, 0, 50, 0
2, 193372, Note_on_c, 0, 62, 0
2, 193640, Note_on_c, 0, 44, 46
2, 193660, Note_on_c, 0, 66, 51
2, 193768, Note_on_c, 0, 66, 0
2, 193800, Note_on_c, 0, 44, 0
2, 193984, Control_c, 0, 64, 0
2, 193988, Note_on_c, 0, 64, 48
2, 193988, Note_on_c, 0, 55, 37
2, 193992, Note_on_c, 0, 62, 38
2, 194000, Note_on_c, 0, 50, 32
2, 194004, Note_on_c, 0, 52, 38
2, 194012, Note_on_c, 0, 43, 29
2, 194020, Note_on_c, 0, 59, 38
2, 194168, Control_c, 0, 64, 127
2, 194344, Note_on_c, 0, 52, 0
2, 194392, Note_on_c, 0, 55, 0
2, 194472, Note_on_c, 0, 50, 0
2, 194644, Note_on_c, 0, 59, 0
2, 194672, Note_on_c, 0, 62, 0
2, 194736, Note_on_c, 0, 64, 0
2, 194940, Note_on_c, 0, 59, 58
2, 194944, Note_on_c, 0, 55, 37
2, 194960, Note_on_c, 0, 52, 45
2, 194972, Note_on_c, 0, 50, 38
2, 194984, Note_on_c, 0, 55, 0
2, 195000, Note_on_c, 0, 59, 0
2, 195020, Note_on_c, 0, 52, 0
2, 195024, Note_on_c, 0, 43, 0
2, 195052, Note_on_c, 0, 50, 0
2, 195168, Note_on_c, 0, 68, 36
2, 195232, Note_on_c, 0, 68, 0
2, 195292, Note_on_c, 0, 76, 91
2, 195416, Note_on_c, 0, 76, 0
2, 195548, Note_on_c, 0, 76, 88
2, 195688, Note_on_c, 0, 76, 0
2, 195848, Note_on_c, 0, 76, 69
2, 195860, Note_on_c, 0, 73, 53
2, 195864, Control_c, 0, 64, 0
2, 195868, Note_on_c, 0, 69, 69
2, 195880, Note_on_c, 0, 64, 68
2, 195880, Note_on_c, 0, 35, 45
2, 195880, Note_on_c, 0, 47, 55
2, 195920, Note_on_c, 0, 35, 0
2, 195964, Note_on_c, 0, 47, 0
2, 195980, Control_c, 0, 64, 127
2, 196084, Note_on_c, 0, 64, 0
2, 196188, Note_on_c, 0, 69, 0
2, 196192, Note_on_c, 0, 47, 65
2, 196196, Note_on_c, 0, 76, 0
2, 196244, Note_on_c, 0, 73, 0
2, 196440, Note_on_c, 0, 47, 0
2, 196464, Note_on_c, 0, 54, 72
2, 196784, Note_on_c, 0, 69, 83
2, 196792, Note_on_c, 0, 62, 75
2, 196792, Note_on_c, 0, 76, 71
2, 196804, Note_on_c, 0, 61, 78
2, 196896, Note_on_c, 0, 76, 0
2, 197120, Note_on_c, 0, 76, 80
2, 197332, Note_on_c, 0, 61, 0
2, 197336, Note_on_c, 0, 54, 0
2, 197348, Note_on_c, 0, 76, 0
2, 197364, Note_on_c, 0, 62, 0
2, 197408, Note_on_c, 0, 76, 76
2, 197468, Note_on_c, 0, 69, 0
2, 197556, Note_on_c, 0, 76, 0
2, 197740, Note_on_c, 0, 76, 80
2, 197744, Note_on_c, 0, 56, 59
2, 197748, Note_on_c, 0, 72, 79
2, 197752, Note_on_c, 0, 62, 57
2, 197760, Note_on_c, 0, 67, 74
2, 197812, Control_c, 0, 64, 0
2, 197948, Control_c, 0, 64, 127
2, 198404, Note_on_c, 0, 62, 0
2, 198440, Note_on_c, 0, 72, 0
2, 198480, Note_on_c, 0, 67, 0
2, 198652, Note_on_c, 0, 56, 0
2, 198672, Note_on_c, 0, 76, 0
2, 198728, Note_on_c, 0, 72, 54
2, 198732, Note_on_c, 0, 67, 47
2, 198744, Note_on_c, 0, 56, 36
2, 198748, Note_on_c, 0, 62, 40
2, 198936, Note_on_c, 0, 62, 0
2, 199096, Note_on_c, 0, 56, 0
2, 199100, Note_on_c, 0, 72, 0
2, 199116, Note_on_c, 0, 67, 0
2, 199324, Note_on_c, 0, 75, 63
2, 199432, Note_on_c, 0, 75, 0
2, 199688, Note_on_c, 0, 49, 45
2, 199688, Note_on_c, 0, 76, 54
2, 199692, Note_on_c, 0, 59, 46
2, 199700, Note_on_c, 0, 64, 51
2, 199728, Control_c, 0, 64, 0
2, 199860, Note_on_c, 0, 68, 1
2, 199912, Control_c, 0, 64, 127
2, 200060, Note_on_c, 0, 59, 0
2, 200212, Note_on_c, 0, 64, 0
2, 200344, Note_on_c, 0, 68, 0
2, 200540, Note_on_c, 0, 76, 0
2, 200692, Note_on_c, 0, 64, 61
2, 200708, Note_on_c, 0, 59, 44
2, 200736, Note_on_c, 0, 64, 0
2, 200940, Note_on_c, 0, 49, 0
2, 200960, Note_on_c, 0, 59, 0
2, 201112, Note_on_c, 0, 74, 49
2, 201124, Note_on_c, 0, 72, 61
2, 201196, Note_on_c, 0, 72, 0
2, 201232, Note_on_c, 0, 74, 0
2, 201312, Note_on_c, 0, 78, 74
2, 201424, Note_on_c, 0, 78, 0
2, 201520, Note_on_c, 0, 81, 85
2, 201640, Note_on_c, 0, 81, 0
2, 201672, Control_c, 0, 64, 0
2, 201684, Note_on_c, 0, 62, 62
2, 201688, Note_on_c, 0, 58, 46
2, 201704, Note_on_c, 0, 52, 47
2, 201708, Note_on_c, 0, 86, 80
2, 201868, Control_c, 0, 64, 127
2, 201888, Note_on_c, 0, 86, 0
2, 201904, Note_on_c, 0, 90, 67
2, 201912, Note_on_c, 0, 62, 0
2, 201916, Note_on_c, 0, 52, 0
2, 202000, Note_on_c, 0, 58, 0
2, 202032, Note_on_c, 0, 90, 0
2, 202100, Note_on_c, 0, 86, 66
2, 202100, Note_on_c, 0, 93, 74
2, 202188, Note_on_c, 0, 86, 0
2, 202228, Note_on_c, 0, 93, 0
2, 202340, Note_on_c, 0, 93, 68
2, 202352, Note_on_c, 0, 86, 69
2, 202460, Note_on_c, 0, 86, 0
2, 202468, Note_on_c, 0, 93, 0
2, 202600, Note_on_c, 0, 86, 68
2, 202600, Note_on_c, 0, 93, 74
2, 202612, Note_on_c, 0, 58, 49
2, 202640, Control_c, 0, 64, 0
2, 202644, Note_on_c, 0, 48, 38
2, 202752, Note_on_c, 0, 93, 0
2, 202784, Control_c, 0, 64, 127
2, 202812, Note_on_c, 0, 86, 0
2, 202840, Note_on_c, 0, 90, 70
2, 202948, Note_on_c, 0, 48, 0
2, 202964, Note_on_c, 0, 90, 0
2, 203004, Note_on_c, 0, 58, 0
2, 203068, Note_on_c, 0, 90, 60
2, 203248, Note_on_c, 0, 90, 0
2, 203280, Note_on_c, 0, 86, 71
2, 203320, Note_on_c, 0, 86, 0
2, 203508, Note_on_c, 0, 88, 66
2, 203520, Note_on_c, 0, 81, 63
2, 203532, Control_c, 0, 64, 0
2, 203532, Note_on_c, 0, 47, 56
2, 203680, Control_c, 0, 64, 127
2, 203688, Note_on_c, 0, 88, 0
2, 203732, Note_on_c, 0, 81, 0
2, 203772, Note_on_c, 0, 47, 0
2, 203804, Note_on_c, 0, 57, 45
2, 203844, Note_on_c, 0, 57, 0
2, 204048, Note_on_c, 0, 62, 51
2, 204308, Note_on_c, 0, 64, 74
2, 204428, Note_on_c, 0, 64, 0
2, 204580, Note_on_c, 0, 73, 78
2, 204580, Note_on_c, 0, 76, 81
2, 204584, Note_on_c, 0, 69, 89
2, 204592, Note_on_c, 0, 64, 72
2, 204640, Control_c, 0, 64, 0
2, 204692, Note_on_c, 0, 62, 0
2, 204752, Control_c, 0, 64, 127
2, 204900, Note_on_c, 0, 62, 24
2, 204932, Note_on_c, 0, 62, 0
2, 205124, Note_on_c, 0, 62, 43
2, 205172, Note_on_c, 0, 62, 0
2, 205192, Note_on_c, 0, 64, 0
2, 205384, Note_on_c, 0, 69, 0
2, 205388, Note_on_c, 0, 62, 43
2, 205400, Note_on_c, 0, 73, 0
2, 205472, Note_on_c, 0, 76, 0
2, 205508, Note_on_c, 0, 62, 0
2, 205628, Note_on_c, 0, 73, 55
2, 205640, Note_on_c, 0, 64, 47
2, 205644, Note_on_c, 0, 56, 36
2, 205688, Control_c, 0, 64, 0
2, 205692, Note_on_c, 0, 62, 18
2, 205860, Control_c, 0, 64, 127
2, 206060, Note_on_c, 0, 64, 0
2, 206148, Note_on_c, 0, 56, 0
2, 206164, Note_on_c, 0, 62, 0
2, 206368, Note_on_c, 0, 73, 0
2, 206608, Note_on_c, 0, 67, 54
2, 206624, Note_on_c, 0, 73, 57
2, 206628, Note_on_c, 0, 62, 41
2, 206648, Note_on_c, 0, 56, 29
2, 206828, Note_on_c, 0, 67, 0
2, 206944, Note_on_c, 0, 73, 0
2, 207028, Note_on_c, 0, 62, 0
2, 207092, Note_on_c, 0, 56, 0
2, 207272, Note_on_c, 0, 69, 84
2, 207280, Note_on_c, 0, 67, 80
2, 207360, Note_on_c, 0, 67, 0
2, 207400, Note_on_c, 0, 69, 0
2, 207540, Note_on_c, 0, 69, 33
2, 207572, Note_on_c, 0, 70, 59
2, 207592, Control_c, 0, 64, 0
2, 207592, Note_on_c, 0, 55, 34
2, 207608, Note_on_c, 0, 45, 24
2, 207608, Note_on_c, 0, 52, 22
2, 207624, Note_on_c, 0, 69, 0
2, 207664, Note_on_c, 0, 70, 0
2, 207668, Note_on_c, 0, 71, 56
2, 207748, Note_on_c, 0, 45, 0
2, 207768, Note_on_c, 0, 52, 0
2, 207792, Note_on_c, 0, 71, 0
2, 207832, Note_on_c, 0, 74, 80
2, 207836, Note_on_c, 0, 55, 0
2, 207956, Note_on_c, 0, 74, 0
2, 208068, Note_on_c, 0, 72, 67
2, 208180, Note_on_c, 0, 72, 0
2, 208228, Control_c, 0, 64, 127
2, 208324, Note_on_c, 0, 72, 79
2, 208532, Note_on_c, 0, 64, 44
2, 208548, Note_on_c, 0, 72, 0
2, 208572, Note_on_c, 0, 57, 38
2, 208580, Note_on_c, 0, 60, 28
2, 208584, Control_c, 0, 64, 0
2, 208608, Note_on_c, 0, 72, 18
2, 208720, Control_c, 0, 64, 127
2, 208856, Note_on_c, 0, 72, 0
2, 208880, Note_on_c, 0, 67, 64
2, 208920, Note_on_c, 0, 64, 0
2, 208940, Note_on_c, 0, 60, 0
2, 209032, Note_on_c, 0, 67, 0
2, 209060, Note_on_c, 0, 57, 0
2, 209180, Note_on_c, 0, 67, 70
2, 209360, Note_on_c, 0, 67, 0
2, 209512, Note_on_c, 0, 60, 42
2, 209520, Note_on_c, 0, 69, 72
2, 209528, Control_c, 0, 64, 0
2, 209552, Note_on_c, 0, 54, 31
2, 209572, Note_on_c, 0, 50, 27
2, 209604, Control_c, 0, 64, 127
2, 209632, Note_on_c, 0, 60, 0
2, 209720, Note_on_c, 0, 54, 0
2, 209744, Note_on_c, 0, 50, 0
2, 209904, Note_on_c, 0, 69, 0
2, 209984, Note_on_c, 0, 49, 64
2, 210156, Note_on_c, 0, 49, 0
2, 210212, Note_on_c, 0, 48, 50
2, 210344, Note_on_c, 0, 48, 0
2, 210348, Note_on_c, 0, 47, 53
2, 210472, Note_on_c, 0, 47, 0
2, 210520, Note_on_c, 0, 46, 60
2, 210520, Note_on_c, 0, 56, 59
2, 210532, Note_on_c, 0, 65, 58
2, 210540, Note_on_c, 0, 60, 64
2, 210540, Note_on_c, 0, 62, 55
2, 210560, Control_c, 0, 64, 0
2, 210728, Control_c, 0, 64, 127
2, 211124, Note_on_c, 0, 65, 0
2, 211152, Note_on_c, 0, 60, 0
2, 211160, Note_on_c, 0, 62, 0
2, 211172, Note_on_c, 0, 56, 0
2, 211332, Note_on_c, 0, 46, 0
2, 211528, Note_on_c, 0, 64, 45
2, 211540, Note_on_c, 0, 61, 29
2, 211548, Control_c, 0, 64, 0
2, 211548, Note_on_c, 0, 58, 31
2, 211548, Note_on_c, 0, 55, 37
2, 211552, Note_on_c, 0, 45, 44
2, 211684, Control_c, 0, 64, 127
2, 211700, Note_on_c, 0, 55, 0
2, 211752, Note_on_c, 0, 58, 0
2, 211772, Note_on_c, 0, 64, 0
2, 211796, Note_on_c, 0, 45, 0
2, 211860, Note_on_c, 0, 61, 0
2, 212592, Note_on_c, 0, 67, 67
2, 212592, Note_on_c, 0, 62, 66
2, 212600, Note_on_c, 0, 56, 67
2, 212628, Note_on_c, 0, 65, 32
2, 212660, Note_on_c, 0, 65, 0
2, 213160, Note_on_c, 0, 67, 0
2, 213256, Note_on_c, 0, 62, 0
2, 213268, Note_on_c, 0, 83, 95
2, 213280, Note_on_c, 0, 71, 89
2, 213308, Note_on_c, 0, 82, 35
2, 213336, Note_on_c, 0, 82, 0
2, 213452, Note_on_c, 0, 56, 0
2, 213492, Note_on_c, 0, 83, 0
2, 213548, Note_on_c, 0, 71, 0
2, 213648, Note_on_c, 0, 66, 58
2, 213652, Note_on_c, 0, 55, 60
2, 213664, Note_on_c, 0, 81, 71
2, 213672, Control_c, 0, 64, 0
2, 213684, Note_on_c, 0, 61, 28
2, 213684, Note_on_c, 0, 69, 66
2, 213820, Control_c, 0, 64, 127
2, 213952, Note_on_c, 0, 66, 0
2, 213976, Note_on_c, 0, 55, 0
2, 214044, Note_on_c, 0, 61, 0
2, 214068, Note_on_c, 0, 81, 0
2, 214112, Note_on_c, 0, 69, 0
2, 214304, Note_on_c, 0, 79, 37
2, 214320, Note_on_c, 0, 67, 36
2, 214388, Note_on_c, 0, 67, 0
2, 214408, Note_on_c, 0, 79, 0
2, 214628, Control_c, 0, 64, 0
2, 214632, Note_on_c, 0, 52, 34
2, 214640, Note_on_c, 0, 55, 45
2, 214644, Note_on_c, 0, 81, 53
2, 214660, Note_on_c, 0, 69, 36
2, 214660, Note_on_c, 0, 45, 35
2, 214764, Note_on_c, 0, 69, 0
2, 214868, Note_on_c, 0, 81, 0
2, 214892, Note_on_c, 0, 45, 0
2, 214892, Note_on_c, 0, 52, 0
2, 214932, Note_on_c, 0, 55, 0
2, 215284, Control_c, 0, 64, 127
2, 215340, Note_on_c, 0, 81, 55
2, 215480, Note_on_c, 0, 81, 0
2, 215624, Note_on_c, 0, 81, 34
2, 215628, Control_c, 0, 64, 0
2, 215628, Note_on_c, 0, 50, 55
2, 215640, Note_on_c, 0, 57, 44
2, 215684, Note_on_c, 0, 82, 28
2, 215732, Note_on_c, 0, 57, 0
2, 215732, Note_on_c, 0, 81, 0
2, 215736, Note_on_c, 0, 82, 0
2, 215748, Note_on_c, 0, 50, 0
2, 215760, Note_on_c, 0, 83, 54
2, 215872, Note_on_c, 0, 83, 0
2, 215932, Note_on_c, 0, 86, 73
2, 215940, Note_on_c, 0, 74, 61
2, 216044, Note_on_c, 0, 74, 0
2, 216076, Note_on_c, 0, 86, 0
2, 216328, Note_on_c, 0, 86, 77
2, 216340, Note_on_c, 0, 74, 69
2, 216468, Control_c, 0, 64, 127
2, 216540, Note_on_c, 0, 74, 0
2, 216568, Note_on_c, 0, 86, 0
2, 216628, Control_c, 0, 64, 0
2, 216660, Note_on_c, 0, 64, 53
2, 216680, Note_on_c, 0, 60, 36
2, 216700, Note_on_c, 0, 55, 30
2, 216704, Note_on_c, 0, 59, 37
2, 216800, Note_on_c, 0, 64, 0
2, 216824, Note_on_c, 0, 60, 0
2, 216824, Note_on_c, 0, 59, 0
2, 216880, Note_on_c, 0, 81, 26
2, 216884, Note_on_c, 0, 55, 0
2, 216920, Note_on_c, 0, 82, 52
2, 216980, Note_on_c, 0, 81, 0
2, 216980, Note_on_c, 0, 83, 65
2, 217000, Note_on_c, 0, 82, 0
2, 217060, Note_on_c, 0, 83, 0
2, 217140, Note_on_c, 0, 74, 63
2, 217140, Note_on_c, 0, 86, 63
2, 217212, Note_on_c, 0, 86, 0
2, 217220, Note_on_c, 0, 74, 0
2, 217352, Note_on_c, 0, 86, 70
2, 217368, Note_on_c, 0, 74, 53
2, 217416, Note_on_c, 0, 74, 0
2, 217424, Note_on_c, 0, 86, 0
2, 217504, Control_c, 0, 64, 127
2, 217520, Note_on_c, 0, 86, 70
2, 217532, Note_on_c, 0, 74, 62
2, 217592, Control_c, 0, 64, 0
2, 217604, Note_on_c, 0, 74, 0
2, 217652, Note_on_c, 0, 64, 54
2, 217660, Note_on_c, 0, 86, 0
2, 217668, Note_on_c, 0, 54, 33
2, 217680, Note_on_c, 0, 60, 36
2, 217700, Note_on_c, 0, 64, 0
2, 217708, Note_on_c, 0, 82, 38
2, 217720, Note_on_c, 0, 60, 0
2, 217772, Note_on_c, 0, 82, 0
2, 217776, Note_on_c, 0, 54, 0
2, 217788, Note_on_c, 0, 83, 55
2, 217872, Note_on_c, 0, 83, 0
2, 217972, Note_on_c, 0, 74, 54
2, 218016, Note_on_c, 0, 74, 0
2, 218188, Control_c, 0, 64, 127
2, 218220, Note_on_c, 0, 38, 54
2, 218264, Note_on_c, 0, 38, 0
2, 218592, Note_on_c, 0, 54, 76
2, 218600, Note_on_c, 0, 60, 73
2, 218600, Note_on_c, 0, 58, 64
2, 218640, Note_on_c, 0, 52, 34
2, 218640, Note_on_c, 0, 50, 35
2, 218644, Control_c, 0, 64, 0
2, 218688, Note_on_c, 0, 52, 0
2, 218884, Control_c, 0, 64, 127
2, 219148, Note_on_c, 0, 50, 0
2, 219248, Note_on_c, 0, 45, 47
2, 219372, Note_on_c, 0, 60, 0
2, 219384, Note_on_c, 0, 54, 0
2, 219472, Note_on_c, 0, 58, 0
2, 219572, Note_on_c, 0, 45, 0
2, 219592, Control_c, 0, 64, 0
2, 219600, Note_on_c, 0, 54, 45
2, 219612, Note_on_c, 0, 43, 46
2, 219620, Note_on_c, 0, 59, 49
2, 219624, Note_on_c, 0, 57, 45
2, 219748, Control_c, 0, 64, 127
2, 219768, Note_on_c, 0, 57, 0
2, 219780, Note_on_c, 0, 54, 0
2, 219804, Note_on_c, 0, 59, 0
2, 219876, Note_on_c, 0, 43, 0
2, 220280, Note_on_c, 0, 74, 103
2, 220484, Note_on_c, 0, 74, 0
2, 220612, Note_on_c, 0, 74, 87
2, 220620, Note_on_c, 0, 62, 57
2, 220632, Note_on_c, 0, 59, 55
2, 220652, Control_c, 0, 64, 0
2, 220700, Control_c, 0, 64, 127
2, 220732, Note_on_c, 0, 62, 0
2, 220800, Note_on_c, 0, 59, 0
2, 220824, Note_on_c, 0, 74, 0
2, 220920, Note_on_c, 0, 71, 63
2, 221188, Note_on_c, 0, 71, 0
2, 221204, Note_on_c, 0, 67, 54
2, 221328, Note_on_c, 0, 67, 0
2, 221404, Note_on_c, 0, 62, 55
2, 221472, Note_on_c, 0, 62, 0
2, 221632, Note_on_c, 0, 43, 29
2, 221640, Note_on_c, 0, 66, 60
2, 221640, Note_on_c, 0, 64, 74
2, 221644, Note_on_c, 0, 52, 53
2, 221648, Note_on_c, 0, 36, 35
2, 221672, Control_c, 0, 64, 0
2, 221692, Note_on_c, 0, 59, 29
2, 221964, Note_on_c, 0, 67, 71
2, 221980, Control_c, 0, 64, 127
2, 222068, Note_on_c, 0, 64, 0
2, 222076, Note_on_c, 0, 52, 0
2, 222332, Note_on_c, 0, 59, 0
2, 222448, Note_on_c, 0, 67, 0
2, 222460, Note_on_c, 0, 66, 0
2, 222640, Note_on_c, 0, 52, 47
2, 222640, Note_on_c, 0, 59, 40
2, 222644, Note_on_c, 0, 62, 48
2, 222644, Note_on_c, 0, 64, 48
2, 222684, Control_c, 0, 64, 0
2, 222820, Control_c, 0, 64, 127
2, 222888, Note_on_c, 0, 36, 0
2, 222940, Note_on_c, 0, 43, 0
2, 223000, Note_on_c, 0, 52, 0
2, 223188, Note_on_c, 0, 59, 0
2, 223284, Note_on_c, 0, 62, 0
2, 223296, Note_on_c, 0, 64, 0
2, 223640, Control_c, 0, 64, 0
2, 223644, Note_on_c, 0, 57, 57
2, 223652, Note_on_c, 0, 62, 57
2, 223664, Note_on_c, 0, 54, 29
2, 223668, Note_on_c, 0, 47, 38
2, 223732, Note_on_c, 0, 57, 0
2, 223760, Note_on_c, 0, 62, 0
2, 223760, Control_c, 0, 64, 127
2, 223956, Note_on_c, 0, 47, 0
2, 223968, Note_on_c, 0, 78, 72
2, 224024, Note_on_c, 0, 54, 0
2, 224168, Note_on_c, 0, 78, 0
2, 224308, Note_on_c, 0, 69, 81
2, 224600, Note_on_c, 0, 66, 58
2, 224608, Note_on_c, 0, 62, 45
2, 224612, Note_on_c, 0, 57, 49
2, 224912, Note_on_c, 0, 74, 78
2, 224964, Note_on_c, 0, 57, 0
2, 225008, Note_on_c, 0, 62, 0
2, 225020, Note_on_c, 0, 66, 0
2, 225168, Note_on_c, 0, 69, 0
2, 225220, Note_on_c, 0, 78, 72
2, 225232, Note_on_c, 0, 74, 0
2, 225328, Note_on_c, 0, 78, 0
2, 225540, Note_on_c, 0, 82, 74
2, 225544, Note_on_c, 0, 73, 74
2, 225548, Control_c, 0, 64, 0
2, 225560, Note_on_c, 0, 67, 66
2, 225620, Note_on_c, 0, 82, 0
2, 225636, Note_on_c, 0, 73, 0
2, 225704, Note_on_c, 0, 67, 0
2, 225840, Note_on_c, 0, 70, 55
2, 225840, Note_on_c, 0, 79, 67
2, 225848, Note_on_c, 0, 64, 50
2, 225852, Note_on_c, 0, 73, 56
2, 225920, Control_c, 0, 64, 127
2, 226072, Note_on_c, 0, 79, 0
2, 226140, Note_on_c, 0, 73, 0
2, 226148, Note_on_c, 0, 70, 0
2, 226368, Note_on_c, 0, 64, 0
2, 226400, Control_c, 0, 64, 0
2, 226432, Note_on_c, 0, 70, 51
2, 226440, Note_on_c, 0, 76, 51
2, 226448, Note_on_c, 0, 67, 53
2, 226452, Control_c, 0, 64, 127
2, 226468, Note_on_c, 0, 61, 32
2, 226572, Note_on_c, 0, 67, 0
2, 226572, Note_on_c, 0, 70, 0
2, 226572, Note_on_c, 0, 76, 0
2, 226724, Control_c, 0, 64, 0
2, 226764, Note_on_c, 0, 73, 48
2, 226768, Note_on_c, 0, 67, 50
2, 226772, Note_on_c, 0, 70, 45
2, 226780, Note_on_c, 0, 61, 0
2, 226780, Note_on_c, 0, 58, 36
2, 226840, Control_c, 0, 64, 127
2, 227004, Note_on_c, 0, 58, 0
2, 227004, Note_on_c, 0, 70, 0
2, 227016, Note_on_c, 0, 67, 0
2, 227108, Note_on_c, 0, 73, 0
2, 227324, Control_c, 0, 64, 0
2, 227352, Note_on_c, 0, 74, 60
2, 227372, Note_on_c, 0, 64, 49
2, 227372, Note_on_c, 0, 55, 49
2, 227380, Note_on_c, 0, 67, 44
2, 227460, Note_on_c, 0, 74, 0
2, 227460, Control_c, 0, 64, 127
2, 227464, Note_on_c, 0, 67, 0
2, 227484, Note_on_c, 0, 55, 0
2, 227516, Note_on_c, 0, 64, 0
2, 227668, Control_c, 0, 64, 0
2, 227684, Note_on_c, 0, 71, 45
2, 227684, Note_on_c, 0, 56, 39
2, 227692, Note_on_c, 0, 60, 44
2, 227700, Note_on_c, 0, 64, 43
2, 227832, Control_c, 0, 64, 127
2, 227952, Note_on_c, 0, 71, 0
2, 227980, Note_on_c, 0, 64, 0
2, 228004, Note_on_c, 0, 60, 0
2, 228012, Note_on_c, 0, 56, 0
2, 228304, Control_c, 0, 64, 0
2, 228304, Note_on_c, 0, 67, 49
2, 228320, Note_on_c, 0, 55, 41
2, 228400, Control_c, 0, 64, 127
2, 228544, Note_on_c, 0, 67, 0
2, 228568, Note_on_c, 0, 55, 0
2, 228620, Note_on_c, 0, 64, 33
2, 228624, Note_on_c, 0, 60, 42
2, 228624, Note_on_c, 0, 52, 44
2, 228640, Note_on_c, 0, 57, 49
2, 228668, Control_c, 0, 64, 0
2, 228792, Control_c, 0, 64, 127
2, 228908, Note_on_c, 0, 64, 0
2, 228936, Note_on_c, 0, 60, 0
2, 228992, Note_on_c, 0, 57, 0
2, 229268, Note_on_c, 0, 64, 48
2, 229292, Note_on_c, 0, 55, 30
2, 229300, Note_on_c, 0, 59, 42
2, 229304, Control_c, 0, 64, 0
2, 229304, Note_on_c, 0, 45, 35
2, 229456, Note_on_c, 0, 55, 0
2, 229460, Control_c, 0, 64, 127
2, 229516, Note_on_c, 0, 64, 0
2, 229528, Note_on_c, 0, 59, 0
2, 229908, Note_on_c, 0, 69, 115
2, 230080, Note_on_c, 0, 69, 0
2, 230220, Note_on_c, 0, 69, 52
2, 230228, Note_on_c, 0, 67, 54
2, 230232, Note_on_c, 0, 55, 67
2, 230248, Control_c, 0, 64, 0
2, 230256, Note_on_c, 0, 67, 0
2, 230260, Note_on_c, 0, 70, 63
2, 230264, Note_on_c, 0, 45, 0
2, 230308, Note_on_c, 0, 52, 0
2, 230328, Note_on_c, 0, 69, 0
2, 230332, Note_on_c, 0, 55, 0
2, 230380, Note_on_c, 0, 71, 70
2, 230388, Note_on_c, 0, 70, 0
2, 230404, Control_c, 0, 64, 127
2, 230568, Note_on_c, 0, 71, 0
2, 230584, Note_on_c, 0, 74, 71
2, 230600, Note_on_c, 0, 72, 62
2, 230632, Note_on_c, 0, 72, 0
2, 230748, Note_on_c, 0, 74, 0
2, 230840, Note_on_c, 0, 74, 74
2, 230844, Note_on_c, 0, 76, 69
2, 230916, Note_on_c, 0, 76, 0
2, 230980, Note_on_c, 0, 74, 0
2, 231044, Note_on_c, 0, 72, 61
2, 231104, Note_on_c, 0, 72, 0
2, 231244, Note_on_c, 0, 63, 42
2, 231248, Note_on_c, 0, 67, 60
2, 231252, Note_on_c, 0, 62, 54
2, 231268, Note_on_c, 0, 57, 42
2, 231280, Control_c, 0, 64, 0
2, 231304, Note_on_c, 0, 70, 55
2, 231364, Note_on_c, 0, 79, 26
2, 231428, Note_on_c, 0, 70, 0
2, 231436, Note_on_c, 0, 79, 0
2, 231440, Note_on_c, 0, 71, 60
2, 231488, Note_on_c, 0, 71, 0
2, 231620, Note_on_c, 0, 71, 58
2, 231712, Note_on_c, 0, 71, 0
2, 231720, Control_c, 0, 64, 127
2, 231740, Note_on_c, 0, 83, 54
2, 231824, Note_on_c, 0, 71, 48
2, 231832, Note_on_c, 0, 83, 0
2, 231908, Note_on_c, 0, 71, 0
2, 231928, Note_on_c, 0, 67, 0
2, 231944, Note_on_c, 0, 83, 54
2, 231976, Note_on_c, 0, 62, 0
2, 232016, Note_on_c, 0, 63, 0
2, 232024, Note_on_c, 0, 83, 0
2, 232028, Note_on_c, 0, 71, 40
2, 232052, Note_on_c, 0, 57, 0
2, 232168, Note_on_c, 0, 83, 58
2, 232216, Note_on_c, 0, 71, 0
2, 232248, Note_on_c, 0, 62, 57
2, 232252, Note_on_c, 0, 56, 55
2, 232252, Note_on_c, 0, 66, 47
2, 232256, Note_on_c, 0, 83, 0
2, 232288, Control_c, 0, 64, 0
2, 232324, Note_on_c, 0, 72, 58
2, 232344, Note_on_c, 0, 84, 67
2, 232396, Note_on_c, 0, 72, 0
2, 232460, Control_c, 0, 64, 127
2, 232476, Note_on_c, 0, 84, 0
2, 232512, Note_on_c, 0, 72, 54
2, 232584, Note_on_c, 0, 72, 0
2, 232624, Note_on_c, 0, 84, 58
2, 232708, Note_on_c, 0, 72, 39
2, 232716, Note_on_c, 0, 84, 0
2, 232812, Note_on_c, 0, 72, 0
2, 232884, Note_on_c, 0, 86, 44
2, 232884, Note_on_c, 0, 84, 47
2, 232892, Note_on_c, 0, 62, 0
2, 232916, Note_on_c, 0, 66, 0
2, 232928, Note_on_c, 0, 86, 0
2, 232944, Note_on_c, 0, 84, 0
2, 232952, Note_on_c, 0, 72, 32
2, 233032, Note_on_c, 0, 72, 0
2, 233192, Note_on_c, 0, 56, 0
2, 233224, Note_on_c, 0, 70, 55
2, 233280, Note_on_c, 0, 65, 51
2, 233292, Note_on_c, 0, 61, 32
2, 233300, Note_on_c, 0, 55, 40
2, 233312, Note_on_c, 0, 70, 0
2, 233320, Control_c, 0, 64, 0
2, 233332, Note_on_c, 0, 82, 57
2, 233440, Note_on_c, 0, 82, 0
2, 233448, Note_on_c, 0, 70, 47
2, 233488, Control_c, 0, 64, 127
2, 233520, Note_on_c, 0, 70, 0
2, 233564, Note_on_c, 0, 82, 60
2, 233652, Note_on_c, 0, 82, 0
2, 233660, Note_on_c, 0, 70, 42
2, 233732, Note_on_c, 0, 70, 0
2, 233768, Note_on_c, 0, 82, 55
2, 233892, Note_on_c, 0, 82, 0
2, 233932, Note_on_c, 0, 70, 28
2, 233948, Note_on_c, 0, 65, 0
2, 233972, Note_on_c, 0, 55, 0
2, 233984, Note_on_c, 0, 82, 38
2, 234116, Note_on_c, 0, 82, 0
2, 234116, Note_on_c, 0, 70, 0
2, 234240, Note_on_c, 0, 69, 47
2, 234268, Note_on_c, 0, 54, 37
2, 234272, Control_c, 0, 64, 0
2, 234280, Note_on_c, 0, 81, 56
2, 234280, Note_on_c, 0, 64, 38
2, 234288, Note_on_c, 0, 60, 38
2, 234404, Control_c, 0, 64, 127
2, 234864, Note_on_c, 0, 64, 0
2, 234892, Note_on_c, 0, 60, 0
2, 234940, Note_on_c, 0, 54, 0
2, 234984, Note_on_c, 0, 61, 0
2, 234988, Note_on_c, 0, 81, 0
2, 235064, Note_on_c, 0, 69, 0
2, 235268, Control_c, 0, 64, 0
2, 235300, Note_on_c, 0, 57, 76
2, 235304, Note_on_c, 0, 47, 72
2, 235432, Control_c, 0, 64, 127
2, 235756, Note_on_c, 0, 47, 0
2, 235804, Note_on_c, 0, 57, 0
2, 236004, Note_on_c, 0, 74, 115
2, 236144, Note_on_c, 0, 74, 0
2, 236328, Control_c, 0, 64, 0
2, 236344, Note_on_c, 0, 74, 96
2, 236344, Note_on_c, 0, 64, 58
2, 236360, Note_on_c, 0, 57, 49
2, 236368, Note_on_c, 0, 62, 47
2, 236432, Control_c, 0, 64, 127
2, 236528, Note_on_c, 0, 74, 0
2, 236604, Note_on_c, 0, 64, 0
2, 236628, Note_on_c, 0, 74, 66
2, 236672, Note_on_c, 0, 62, 0
2, 236748, Note_on_c, 0, 74, 0
2, 236908, Control_c, 0, 64, 0
2, 236968, Note_on_c, 0, 76, 80
2, 236988, Note_on_c, 0, 69, 74
2, 236992, Note_on_c, 0, 64, 57
2, 236992, Note_on_c, 0, 71, 48
2, 237012, Note_on_c, 0, 65, 61
2, 237136, Note_on_c, 0, 71, 0
2, 237140, Note_on_c, 0, 69, 0
2, 237144, Note_on_c, 0, 65, 0
2, 237172, Note_on_c, 0, 64, 0
2, 237188, Note_on_c, 0, 76, 0
2, 237324, Note_on_c, 0, 76, 74
2, 237332, Note_on_c, 0, 64, 56
2, 237340, Note_on_c, 0, 71, 56
2, 237340, Note_on_c, 0, 69, 58
2, 237348, Note_on_c, 0, 65, 56
2, 237472, Note_on_c, 0, 65, 0
2, 237492, Note_on_c, 0, 69, 0
2, 237532, Note_on_c, 0, 71, 0
2, 237544, Note_on_c, 0, 76, 0
2, 237600, Note_on_c, 0, 64, 0
2, 237652, Note_on_c, 0, 62, 36
2, 237664, Note_on_c, 0, 74, 35
2, 237736, Note_on_c, 0, 74, 0
2, 237904, Note_on_c, 0, 62, 0
2, 237960, Note_on_c, 0, 76, 84
2, 237960, Note_on_c, 0, 65, 84
2, 237960, Note_on_c, 0, 64, 62
2, 237964, Note_on_c, 0, 69, 77
2, 237972, Note_on_c, 0, 71, 49
2, 238160, Control_c, 0, 64, 127
2, 238904, Note_on_c, 0, 65, 0
2, 238916, Note_on_c, 0, 69, 0
2, 238952, Note_on_c, 0, 71, 0
2, 238984, Note_on_c, 0, 76, 0
2, 239024, Note_on_c, 0, 65, 66
2, 239024, Note_on_c, 0, 74, 65
2, 239028, Note_on_c, 0, 71, 66
2, 239032, Note_on_c, 0, 69, 53
2, 239040, Note_on_c, 0, 62, 53
2, 239068, Note_on_c, 0, 64, 0
2, 239092, Note_on_c, 0, 62, 0
2, 239152, Note_on_c, 0, 57, 0
2, 239480, Note_on_c, 0, 28, 82
2, 239492, Control_c, 0, 64, 0
2, 239628, Control_c, 0, 64, 127
2, 239720, Note_on_c, 0, 28, 0
2, 239884, Note_on_c, 0, 65, 0
2, 239896, Note_on_c, 0, 69, 0
2, 239924, Note_on_c, 0, 74, 0
2, 239988, Note_on_c, 0, 71, 0
2, 240504, Note_on_c, 0, 91, 90
2, 240504, Note_on_c, 0, 86, 92
2, 240508, Note_on_c, 0, 56, 83
2, 240508, Note_on_c, 0, 79, 91
2, 240508, Note_on_c, 0, 67, 90
2, 240508, Note_on_c, 0, 62, 83
2, 240528, Note_on_c, 0, 81, 60
2, 240540, Control_c, 0, 64, 0
2, 240556, Note_on_c, 0, 81, 0
2, 240748, Note_on_c, 0, 67, 0
2, 240756, Note_on_c, 0, 56, 0
2, 240760, Note_on_c, 0, 79, 0
2, 240760, Note_on_c, 0, 62, 0
2, 240764, Note_on_c, 0, 91, 0
2, 240796, Note_on_c, 0, 86, 0
2, 241160, Note_on_c, 0, 91, 85
2, 241164, Control_c, 0, 64, 127
2, 241164, Note_on_c, 0, 79, 89
2, 241168, Note_on_c, 0, 86, 82
2, 241168, Note_on_c, 0, 62, 75
2, 241172, Note_on_c, 0, 56, 74
2, 241172, Note_on_c, 0, 67, 81
2, 241344, Note_on_c, 0, 91, 0
2, 241348, Note_on_c, 0, 86, 0
2, 241388, Note_on_c, 0, 79, 0
2, 241396, Note_on_c, 0, 67, 0
2, 241412, Note_on_c, 0, 56, 0
2, 241428, Note_on_c, 0, 62, 0
2, 241520, Note_on_c, 0, 88, 72
2, 241540, Note_on_c, 0, 76, 49
2, 241540, Note_on_c, 0, 67, 76
2, 241540, Note_on_c, 0, 56, 70
2, 241548, Note_on_c, 0, 62, 63
2, 241560, Note_on_c, 0, 77, 49
2, 241568, Control_c, 0, 64, 0
2, 241592, Note_on_c, 0, 77, 0
2, 241740, Note_on_c, 0, 62, 0
2, 241768, Note_on_c, 0, 67, 0
2, 241784, Note_on_c, 0, 56, 0
2, 241800, Note_on_c, 0, 88, 0
2, 241824, Note_on_c, 0, 76, 0
2, 242008, Control_c, 0, 64, 127
2, 242160, Note_on_c, 0, 88, 63
2, 242180, Note_on_c, 0, 67, 61
2, 242180, Note_on_c, 0, 76, 62
2, 242180, Note_on_c, 0, 56, 55
2, 242192, Note_on_c, 0, 62, 50
2, 242208, Note_on_c, 0, 88, 0
2, 242248, Note_on_c, 0, 76, 0
2, 242268, Note_on_c, 0, 67, 0
2, 242304, Note_on_c, 0, 62, 0
2, 242320, Note_on_c, 0, 56, 0
2, 242492, Control_c, 0, 64, 0
2, 242520, Note_on_c, 0, 56, 56
2, 242524, Note_on_c, 0, 84, 74
2, 242528, Note_on_c, 0, 67, 55
2, 242540, Note_on_c, 0, 72, 54
2, 242540, Note_on_c, 0, 62, 60
2, 242624, Control_c, 0, 64, 127
2, 242788, Note_on_c, 0, 67, 0
2, 242808, Note_on_c, 0, 56, 0
2, 242848, Note_on_c, 0, 62, 0
2, 242848, Note_on_c, 0, 72, 0
2, 242872, Note_on_c, 0, 84, 0
2, 243124, Note_on_c, 0, 56, 53
2, 243192, Note_on_c, 0, 56, 0
2, 243464, Control_c, 0, 64, 0
2, 243472, Note_on_c, 0, 79, 60
2, 243480, Note_on_c, 0, 55, 51
2, 243484, Note_on_c, 0, 76, 50
2, 243500, Note_on_c, 0, 72, 45
2, 243500, Note_on_c, 0, 45, 35
2, 243504, Note_on_c, 0, 71, 40
2, 243504, Note_on_c, 0, 52, 40
2, 243608, Control_c, 0, 64, 127
2, 243696, Note_on_c, 0, 52, 0
2, 243700, Note_on_c, 0, 45, 0
2, 243764, Note_on_c, 0, 55, 0
2, 243840, Note_on_c, 0, 79, 0
2, 243852, Note_on_c, 0, 71, 0
2, 243872, Note_on_c, 0, 72, 0
2, 243908, Note_on_c, 0, 76, 0
2, 244128, Note_on_c, 0, 79, 79
2, 244152, Note_on_c, 0, 76, 71
2, 244180, Note_on_c, 0, 72, 69
2, 244192, Note_on_c, 0, 71, 62
2, 244312, Note_on_c, 0, 72, 0
2, 244336, Note_on_c, 0, 71, 0
2, 244372, Note_on_c, 0, 79, 0
2, 244392, Note_on_c, 0, 76, 0
2, 244504, Note_on_c, 0, 79, 57
2, 244524, Note_on_c, 0, 76, 68
2, 244528, Note_on_c, 0, 64, 48
2, 244540, Control_c, 0, 64, 0
2, 244552, Note_on_c, 0, 60, 31
2, 244564, Note_on_c, 0, 72, 32
2, 244568, Note_on_c, 0, 59, 34
2, 244572, Note_on_c, 0, 71, 35
2, 244628, Control_c, 0, 64, 127
2, 244752, Note_on_c, 0, 79, 0
2, 244788, Note_on_c, 0, 72, 0
2, 244796, Note_on_c, 0, 71, 0
2, 244800, Note_on_c, 0, 64, 0
2, 244812, Note_on_c, 0, 59, 0
2, 244824, Note_on_c, 0, 60, 0
2, 244828, Note_on_c, 0, 76, 0
2, 245132, Note_on_c, 0, 79, 60
2, 245152, Note_on_c, 0, 76, 67
2, 245180, Note_on_c, 0, 72, 51
2, 245188, Note_on_c, 0, 71, 46
2, 245288, Note_on_c, 0, 72, 0
2, 245292, Note_on_c, 0, 71, 0
2, 245320, Note_on_c, 0, 79, 0
2, 245364, Note_on_c, 0, 76, 0
2, 245524, Note_on_c, 0, 79, 52
2, 245532, Control_c, 0, 64, 0
2, 245532, Note_on_c, 0, 64, 38
2, 245532, Note_on_c, 0, 76, 53
2, 245540, Note_on_c, 0, 71, 46
2, 245548, Note_on_c, 0, 57, 34
2, 245548, Note_on_c, 0, 72, 50
2, 245568, Note_on_c, 0, 60, 30
2, 245588, Control_c, 0, 64, 127
2, 245652, Note_on_c, 0, 79, 0
2, 245660, Note_on_c, 0, 76, 0
2, 245664, Note_on_c, 0, 71, 0
2, 245676, Note_on_c, 0, 72, 0
2, 245880, Note_on_c, 0, 64, 0
2, 245968, Note_on_c, 0, 69, 70
2, 246024, Note_on_c, 0, 71, 58
2, 246036, Note_on_c, 0, 69, 0
2, 246120, Note_on_c, 0, 68, 25
2, 246124, Note_on_c, 0, 71, 0
2, 246132, Note_on_c, 0, 60, 0
2, 246348, Note_on_c, 0, 68, 0
2, 246392, Note_on_c, 0, 57, 0
2, 246504, Control_c, 0, 64, 0
2, 246524, Note_on_c, 0, 69, 90
2, 246560, Note_on_c, 0, 64, 55
2, 246564, Note_on_c, 0, 57, 37
2, 246588, Note_on_c, 0, 55, 49
2, 246600, Note_on_c, 0, 60, 30
2, 246688, Note_on_c, 0, 69, 0
2, 246752, Note_on_c, 0, 70, 64
2, 246772, Control_c, 0, 64, 127
2, 246772, Note_on_c, 0, 69, 40
2, 246812, Note_on_c, 0, 69, 0
2, 246860, Note_on_c, 0, 70, 0
2, 246908, Note_on_c, 0, 60, 0
2, 246916, Note_on_c, 0, 57, 0
2, 246920, Note_on_c, 0, 55, 0
2, 246964, Note_on_c, 0, 71, 78
2, 247048, Note_on_c, 0, 64, 0
2, 247132, Note_on_c, 0, 71, 0
2, 247204, Note_on_c, 0, 74, 83
2, 247356, Note_on_c, 0, 74, 0
2, 247468, Control_c, 0, 64, 0
2, 247472, Note_on_c, 0, 63, 46
2, 247472, Note_on_c, 0, 71, 91
2, 247472, Note_on_c, 0, 67, 69
2, 247480, Note_on_c, 0, 62, 62
2, 247504, Note_on_c, 0, 57, 53
2, 247648, Control_c, 0, 64, 127
2, 248040, Note_on_c, 0, 71, 0
2, 248124, Note_on_c, 0, 67, 0
2, 248152, Note_on_c, 0, 71, 89
2, 248180, Note_on_c, 0, 62, 0
2, 248204, Note_on_c, 0, 63, 0
2, 248248, Note_on_c, 0, 57, 0
2, 248336, Note_on_c, 0, 71, 0
2, 248560, Note_on_c, 0, 66, 75
2, 248564, Note_on_c, 0, 62, 71
2, 248564, Note_on_c, 0, 74, 103
2, 248564, Note_on_c, 0, 56, 69
2, 248572, Control_c, 0, 64, 0
2, 248740, Control_c, 0, 64, 127
2, 248956, Note_on_c, 0, 74, 0
2, 249168, Note_on_c, 0, 74, 80
2, 249212, Note_on_c, 0, 62, 0
2, 249268, Note_on_c, 0, 66, 0
2, 249280, Note_on_c, 0, 74, 0
2, 249488, Note_on_c, 0, 56, 0
2, 249592, Note_on_c, 0, 81, 96
2, 249608, Note_on_c, 0, 61, 58
2, 249608, Note_on_c, 0, 65, 75
2, 249612, Note_on_c, 0, 55, 71
2, 249632, Control_c, 0, 64, 0
2, 249804, Control_c, 0, 64, 127
2, 250092, Note_on_c, 0, 81, 0
2, 250288, Note_on_c, 0, 81, 52
2, 250296, Note_on_c, 0, 65, 0
2, 250376, Note_on_c, 0, 81, 0
2, 250404, Note_on_c, 0, 55, 0
2, 250572, Note_on_c, 0, 61, 0
2, 250728, Note_on_c, 0, 74, 62
2, 250728, Note_on_c, 0, 86, 54
2, 250732, Note_on_c, 0, 65, 62
2, 250740, Control_c, 0, 64, 0
2, 250744, Note_on_c, 0, 54, 46
2, 250744, Note_on_c, 0, 60, 48
2, 250904, Control_c, 0, 64, 127
2, 251012, Note_on_c, 0, 65, 0
2, 251044, Note_on_c, 0, 60, 0
2, 251116, Note_on_c, 0, 54, 0
2, 251192, Note_on_c, 0, 86, 0
2, 251200, Note_on_c, 0, 74, 0
2, 251424, Note_on_c, 0, 74, 36
2, 251440, Note_on_c, 0, 86, 34
2, 251464, Note_on_c, 0, 74, 0
2, 251488, Note_on_c, 0, 86, 0
2, 251792, Note_on_c, 0, 43, 36
2, 251812, Note_on_c, 0, 91, 63
2, 251828, Note_on_c, 0, 79, 36
2, 251828, Control_c, 0, 64, 0
2, 251828, Note_on_c, 0, 59, 40
2, 251832, Note_on_c, 0, 50, 37
2, 252000, Note_on_c, 0, 79, 0
2, 252000, Note_on_c, 0, 91, 0
2, 252020, Note_on_c, 0, 59, 0
2, 252060, Note_on_c, 0, 50, 0
2, 252076, Note_on_c, 0, 43, 0
2, 252548, Control_c, 0, 64, 127
2, 253424, Note_on_c, 0, 38, 58
2, 253456, Note_on_c, 0, 38, 0
2, 253840, Note_on_c, 0, 68, 37
2, 253840, Note_on_c, 0, 71, 50
2, 253844, Note_on_c, 0, 64, 59
2, 253844, Note_on_c, 0, 74, 60
2, 253860, Note_on_c, 0, 54, 54
2, 253864, Note_on_c, 0, 60, 44
2, 254836, Note_on_c, 0, 64, 0
2, 254860, Note_on_c, 0, 54, 0
2, 254876, Note_on_c, 0, 60, 0
2, 254952, Note_on_c, 0, 71, 0
2, 254960, Note_on_c, 0, 68, 0
2, 254996, Note_on_c, 0, 74, 0
2, 256560, Note_on_c, 0, 81, 58
2, 256572, Note_on_c, 0, 69, 48
2, 256572, Note_on_c, 0, 74, 56
2, 256588, Control_c, 0, 64, 0
2, 256592, Note_on_c, 0, 31, 53
2, 256684, Note_on_c, 0, 31, 0
2, 256692, Control_c, 0, 64, 127
2, 256996, Note_on_c, 0, 74, 0
2, 257072, Note_on_c, 0, 69, 0
2, 257080, Note_on_c, 0, 81, 0
2, 257100, Note_on_c, 0, 57, 32
2, 257388, Note_on_c, 0, 59, 50
2, 257612, Note_on_c, 0, 59, 0
2, 257632, Note_on_c, 0, 57, 0
2, 257660, Note_on_c, 0, 62, 56
2, 257908, Note_on_c, 0, 62, 0
2, 257960, Note_on_c, 0, 64, 43
2, 258240, Note_on_c, 0, 66, 37
2, 258464, Note_on_c, 0, 69, 50
2, 258516, Note_on_c, 0, 69, 0
2, 258660, Note_on_c, 0, 71, 38
2, 258700, Note_on_c, 0, 71, 0
2, 258832, Note_on_c, 0, 74, 50
2, 258892, Note_on_c, 0, 74, 0
2, 259004, Note_on_c, 0, 76, 50
2, 259044, Note_on_c, 0, 76, 0
2, 259168, Note_on_c, 0, 78, 36
2, 259220, Note_on_c, 0, 78, 0
2, 259344, Note_on_c, 0, 81, 56
2, 259384, Note_on_c, 0, 81, 0
2, 259668, Note_on_c, 0, 86, 62
2, 259760, Note_on_c, 0, 86, 0
2, 259840, Note_on_c, 0, 88, 56
2, 259908, Note_on_c, 0, 88, 0
2, 260024, Note_on_c, 0, 90, 55
2, 260056, Note_on_c, 0, 90, 0
2, 260224, Note_on_c, 0, 93, 48
2, 260396, Note_on_c, 0, 93, 0
2, 260444, Note_on_c, 0, 95, 42
2, 260536, Note_on_c, 0, 95, 0
2, 260692, Note_on_c, 0, 96, 18
2, 260740, Note_on_c, 0, 96, 0
2, 261120, Note_on_c, 0, 102, 48
2, 261272, Note_on_c, 0, 102, 0
2, 261332, Note_on_c, 0, 105, 46
2, 261560, Note_on_c, 0, 105, 0
2, 261580, Note_on_c, 0, 102, 45
2, 261852, Note_on_c, 0, 102, 0
2, 261884, Note_on_c, 0, 64, 0
2, 261892, Note_on_c, 0, 66, 0
2, 262632, Control_c, 0, 64, 0
2, 262632, End_track
3, 0, Start_track
3, 0, Control_c, 0, 7, 100
3, 0, End_track
4, 0, Start_track
4, 0, Control_c, 0, 7, 100
4, 0, End_track
5, 0, Start_track
5, 0, Control_c, 0, 7, 100
5, 0, End_track
6, 0, Start_track
6, 0, Control_c, 0, 7, 100
6, 0, End_track
7, 0, Start_track
7, 0, Control_c, 0, 7, 100
7, 0, End_track
8, 0, Start_track
8, 0, Control_c, 0, 7, 100
8, 0, End_track
0, 0, End_of_file
