0, 0, Header, 1, 4, 960
1, 0, Start_track
1, 0, Title_t, "I concentrate on You (Cole Porter)"
1, 0, Text_t, "dougmck@pipeline.com.au    \012"
1, 0, Time_signature, 4, 2, 24, 8
1, 0, Key_signature, -2, "major"
1, 0, Tempo, 324324
1, 0, End_track
2, 0, Start_track
2, 0, Title_t, "Piano"
2, 0, Program_c, 0, 0
2, 332, Control_c, 0, 64, 127
2, 2517, Control_c, 0, 64, 0
2, 2928, Control_c, 0, 64, 127
2, 3815, Note_on_c, 0, 77, 54
2, 3895, Note_on_c, 0, 65, 20
2, 3897, Note_on_c, 0, 62, 26
2, 3923, Note_on_c, 0, 60, 27
2, 3962, Control_c, 0, 64, 0
2, 4185, Note_on_c, 0, 77, 0
2, 4545, Note_on_c, 0, 65, 0
2, 4558, Note_on_c, 0, 62, 0
2, 4560, Note_on_c, 0, 60, 0
2, 5216, Note_on_c, 0, 65, 33
2, 5249, Note_on_c, 0, 62, 33
2, 5308, Note_on_c, 0, 60, 22
2, 5496, Note_on_c, 0, 62, 0
2, 5496, Note_on_c, 0, 65, 0
2, 5511, Note_on_c, 0, 60, 0
2, 6719, Note_on_c, 0, 65, 29
2, 6790, Note_on_c, 0, 62, 27
2, 6860, Note_on_c, 0, 60, 18
2, 7080, Note_on_c, 0, 62, 0
2, 7095, Note_on_c, 0, 65, 0
2, 7113, Note_on_c, 0, 60, 0
2, 7779, Control_c, 0, 64, 127
2, 8273, Note_on_c, 0, 79, 70
2, 8301, Note_on_c, 0, 65, 40
2, 8306, Note_on_c, 0, 62, 46
2, 8373, Note_on_c, 0, 60, 28
2, 8447, Control_c, 0, 64, 0
2, 8470, Note_on_c, 0, 65, 0
2, 8531, Note_on_c, 0, 62, 0
2, 8534, Note_on_c, 0, 60, 0
2, 8575, Note_on_c, 0, 79, 0
2, 9220, Note_on_c, 0, 82, 75
2, 9556, Note_on_c, 0, 82, 0
2, 9748, Note_on_c, 0, 62, 42
2, 9753, Note_on_c, 0, 81, 71
2, 9755, Control_c, 0, 64, 127
2, 9778, Note_on_c, 0, 65, 35
2, 9806, Note_on_c, 0, 60, 25
2, 9919, Note_on_c, 0, 65, 0
2, 9960, Control_c, 0, 64, 0
2, 9983, Note_on_c, 0, 62, 0
2, 9990, Note_on_c, 0, 60, 0
2, 10057, Note_on_c, 0, 81, 0
2, 10653, Control_c, 0, 64, 127
2, 11189, Note_on_c, 0, 79, 64
2, 11191, Note_on_c, 0, 65, 55
2, 11194, Control_c, 0, 64, 0
2, 11196, Note_on_c, 0, 61, 52
2, 11222, Note_on_c, 0, 55, 51
2, 11370, Note_on_c, 0, 55, 0
2, 11409, Note_on_c, 0, 65, 0
2, 11432, Note_on_c, 0, 61, 0
2, 11542, Note_on_c, 0, 79, 0
2, 11818, Note_on_c, 0, 81, 52
2, 12170, Note_on_c, 0, 81, 0
2, 12502, Control_c, 0, 64, 127
2, 12545, Note_on_c, 0, 65, 65
2, 12561, Note_on_c, 0, 81, 58
2, 12576, Note_on_c, 0, 61, 46
2, 12607, Note_on_c, 0, 55, 44
2, 12743, Note_on_c, 0, 55, 0
2, 12810, Note_on_c, 0, 65, 0
2, 12825, Note_on_c, 0, 61, 0
2, 12863, Control_c, 0, 64, 0
2, 13017, Note_on_c, 0, 81, 0
2, 13557, Note_on_c, 0, 81, 49
2, 13570, Note_on_c, 0, 65, 46
2, 13572, Note_on_c, 0, 61, 36
2, 13600, Note_on_c, 0, 60, 30
2, 13603, Note_on_c, 0, 73, 25
2, 13608, Note_on_c, 0, 69, 27
2, 13631, Note_on_c, 0, 77, 32
2, 13639, Control_c, 0, 64, 127
2, 13654, Note_on_c, 0, 55, 31
2, 13971, Control_c, 0, 64, 0
2, 14028, Note_on_c, 0, 73, 0
2, 14039, Note_on_c, 0, 55, 0
2, 14051, Note_on_c, 0, 60, 0
2, 14069, Note_on_c, 0, 65, 0
2, 14077, Note_on_c, 0, 69, 0
2, 14085, Note_on_c, 0, 77, 0
2, 14115, Note_on_c, 0, 61, 0
2, 14125, Note_on_c, 0, 81, 0
2, 14435, Control_c, 0, 64, 127
2, 14537, Control_c, 0, 64, 0
2, 14939, Note_on_c, 0, 81, 31
2, 14952, Note_on_c, 0, 65, 31
2, 14967, Note_on_c, 0, 61, 36
2, 14970, Note_on_c, 0, 73, 27
2, 14993, Note_on_c, 0, 69, 31
2, 15019, Note_on_c, 0, 77, 38
2, 15039, Note_on_c, 0, 55, 20
2, 15052, Note_on_c, 0, 60, 22
2, 15254, Control_c, 0, 64, 127
2, 15300, Note_on_c, 0, 60, 0
2, 15310, Note_on_c, 0, 73, 0
2, 15321, Note_on_c, 0, 69, 0
2, 15347, Note_on_c, 0, 55, 0
2, 15359, Control_c, 0, 64, 0
2, 15377, Note_on_c, 0, 77, 0
2, 15393, Note_on_c, 0, 65, 0
2, 15423, Note_on_c, 0, 61, 0
2, 15431, Note_on_c, 0, 81, 0
2, 16271, Note_on_c, 0, 81, 37
2, 16279, Note_on_c, 0, 65, 33
2, 16304, Note_on_c, 0, 73, 27
2, 16309, Note_on_c, 0, 61, 30
2, 16338, Note_on_c, 0, 55, 24
2, 16350, Note_on_c, 0, 60, 34
2, 16355, Note_on_c, 0, 77, 36
2, 16358, Control_c, 0, 64, 127
2, 16373, Note_on_c, 0, 69, 24
2, 17717, Note_on_c, 0, 69, 0
2, 17807, Note_on_c, 0, 77, 0
2, 17835, Note_on_c, 0, 73, 0
2, 17943, Note_on_c, 0, 81, 0
2, 18055, Note_on_c, 0, 65, 0
2, 18106, Note_on_c, 0, 55, 0
2, 18137, Note_on_c, 0, 60, 0
2, 18224, Note_on_c, 0, 61, 0
2, 20623, Note_on_c, 0, 85, 64
2, 20625, Note_on_c, 0, 73, 52
2, 20651, Note_on_c, 0, 61, 48
2, 20654, Note_on_c, 0, 65, 60
2, 20672, Note_on_c, 0, 56, 52
2, 20705, Note_on_c, 0, 60, 38
2, 20723, Control_c, 0, 64, 0
2, 21158, Control_c, 0, 64, 127
2, 21202, Note_on_c, 0, 60, 0
2, 21222, Note_on_c, 0, 73, 0
2, 21248, Note_on_c, 0, 65, 0
2, 21253, Note_on_c, 0, 56, 0
2, 21291, Note_on_c, 0, 85, 0
2, 21327, Note_on_c, 0, 61, 0
2, 21545, Note_on_c, 0, 61, 60
2, 21555, Note_on_c, 0, 65, 57
2, 21560, Note_on_c, 0, 75, 63
2, 21565, Note_on_c, 0, 87, 70
2, 21573, Note_on_c, 0, 56, 53
2, 21624, Note_on_c, 0, 60, 34
2, 21872, Note_on_c, 0, 60, 0
2, 21877, Note_on_c, 0, 56, 0
2, 21882, Note_on_c, 0, 65, 0
2, 21967, Note_on_c, 0, 75, 0
2, 22069, Note_on_c, 0, 87, 0
2, 22095, Note_on_c, 0, 61, 0
2, 22346, Note_on_c, 0, 56, 64
2, 22348, Note_on_c, 0, 61, 51
2, 22366, Note_on_c, 0, 88, 60
2, 22379, Note_on_c, 0, 65, 36
2, 22415, Note_on_c, 0, 76, 66
2, 22507, Note_on_c, 0, 65, 0
2, 22622, Note_on_c, 0, 56, 0
2, 22640, Note_on_c, 0, 61, 0
2, 22689, Note_on_c, 0, 88, 0
2, 22814, Note_on_c, 0, 76, 0
2, 22927, Control_c, 0, 64, 0
2, 23086, Note_on_c, 0, 87, 53
2, 23088, Note_on_c, 0, 54, 35
2, 23101, Note_on_c, 0, 63, 31
2, 23104, Note_on_c, 0, 75, 46
2, 23124, Note_on_c, 0, 59, 53
2, 23139, Note_on_c, 0, 58, 37
2, 23884, Control_c, 0, 64, 127
2, 23948, Note_on_c, 0, 63, 0
2, 24048, Note_on_c, 0, 59, 0
2, 24143, Note_on_c, 0, 54, 0
2, 24156, Note_on_c, 0, 87, 0
2, 24240, Note_on_c, 0, 75, 0
2, 24440, Note_on_c, 0, 85, 39
2, 24450, Control_c, 0, 64, 0
2, 24455, Note_on_c, 0, 63, 45
2, 24481, Note_on_c, 0, 73, 32
2, 24542, Note_on_c, 0, 59, 36
2, 24990, Control_c, 0, 64, 127
2, 25118, Note_on_c, 0, 59, 0
2, 25180, Note_on_c, 0, 63, 0
2, 25231, Note_on_c, 0, 58, 0
2, 25236, Note_on_c, 0, 73, 0
2, 25308, Note_on_c, 0, 85, 0
2, 25858, Note_on_c, 0, 61, 26
2, 25871, Note_on_c, 0, 87, 48
2, 25886, Control_c, 0, 64, 0
2, 25902, Note_on_c, 0, 75, 37
2, 25917, Note_on_c, 0, 51, 25
2, 25963, Note_on_c, 0, 58, 36
2, 26007, Note_on_c, 0, 56, 35
2, 26652, Control_c, 0, 64, 127
2, 26764, Note_on_c, 0, 75, 0
2, 26792, Note_on_c, 0, 87, 0
2, 26990, Note_on_c, 0, 61, 0
2, 27005, Note_on_c, 0, 56, 0
2, 27010, Note_on_c, 0, 58, 0
2, 27059, Note_on_c, 0, 51, 0
2, 27412, Note_on_c, 0, 90, 57
2, 27415, Note_on_c, 0, 61, 36
2, 27463, Note_on_c, 0, 78, 29
2, 27468, Note_on_c, 0, 51, 28
2, 27476, Control_c, 0, 64, 0
2, 27512, Note_on_c, 0, 58, 34
2, 27566, Note_on_c, 0, 56, 32
2, 27860, Control_c, 0, 64, 127
2, 28016, Note_on_c, 0, 51, 0
2, 28098, Note_on_c, 0, 56, 0
2, 28103, Note_on_c, 0, 90, 0
2, 28126, Note_on_c, 0, 78, 0
2, 28185, Note_on_c, 0, 61, 0
2, 28200, Note_on_c, 0, 58, 0
2, 28705, Control_c, 0, 64, 0
2, 28825, Note_on_c, 0, 87, 32
2, 28838, Note_on_c, 0, 73, 34
2, 28846, Note_on_c, 0, 61, 28
2, 28892, Note_on_c, 0, 51, 28
2, 28899, Note_on_c, 0, 58, 35
2, 29012, Note_on_c, 0, 56, 25
2, 29399, Control_c, 0, 64, 127
2, 29445, Note_on_c, 0, 87, 0
2, 29506, Note_on_c, 0, 73, 0
2, 29511, Note_on_c, 0, 51, 0
2, 29557, Note_on_c, 0, 56, 0
2, 29611, Note_on_c, 0, 61, 0
2, 29624, Note_on_c, 0, 58, 0
2, 30067, Control_c, 0, 64, 0
2, 30136, Note_on_c, 0, 85, 1
2, 30210, Note_on_c, 0, 61, 23
2, 30236, Note_on_c, 0, 51, 26
2, 30292, Note_on_c, 0, 58, 30
2, 30330, Note_on_c, 0, 56, 27
2, 30556, Control_c, 0, 64, 127
2, 30620, Note_on_c, 0, 85, 0
2, 30663, Note_on_c, 0, 58, 0
2, 30679, Note_on_c, 0, 51, 0
2, 30720, Note_on_c, 0, 56, 0
2, 30804, Note_on_c, 0, 61, 0
2, 31641, Note_on_c, 0, 80, 30
2, 31669, Note_on_c, 0, 61, 21
2, 31705, Note_on_c, 0, 51, 21
2, 31710, Control_c, 0, 64, 0
2, 31726, Note_on_c, 0, 78, 20
2, 31728, Note_on_c, 0, 66, 25
2, 31764, Note_on_c, 0, 58, 28
2, 31838, Note_on_c, 0, 56, 26
2, 32358, Control_c, 0, 64, 127
2, 32483, Note_on_c, 0, 80, 0
2, 32529, Note_on_c, 0, 51, 0
2, 32599, Note_on_c, 0, 61, 0
2, 32673, Note_on_c, 0, 58, 0
2, 32719, Note_on_c, 0, 56, 0
2, 32732, Note_on_c, 0, 66, 0
2, 33000, Control_c, 0, 64, 0
2, 33146, Note_on_c, 0, 66, 30
2, 33177, Note_on_c, 0, 61, 19
2, 33203, Note_on_c, 0, 51, 20
2, 33213, Note_on_c, 0, 73, 25
2, 33487, Control_c, 0, 64, 127
2, 33528, Note_on_c, 0, 51, 0
2, 33666, Note_on_c, 0, 61, 0
2, 34365, Note_on_c, 0, 66, 0
2, 34501, Note_on_c, 0, 63, 31
2, 34567, Control_c, 0, 64, 0
2, 34588, Note_on_c, 0, 58, 43
2, 34598, Note_on_c, 0, 52, 36
2, 34677, Note_on_c, 0, 73, 0
2, 34790, Note_on_c, 0, 78, 0
2, 35489, Control_c, 0, 64, 127
2, 35665, Note_on_c, 0, 52, 0
2, 35763, Note_on_c, 0, 63, 0
2, 35832, Note_on_c, 0, 58, 0
2, 36029, Note_on_c, 0, 75, 87
2, 36032, Note_on_c, 0, 63, 67
2, 36044, Note_on_c, 0, 58, 56
2, 36078, Note_on_c, 0, 52, 53
2, 36331, Control_c, 0, 64, 0
2, 36390, Note_on_c, 0, 75, 0
2, 36513, Control_c, 0, 64, 127
2, 36605, Note_on_c, 0, 77, 82
2, 36641, Control_c, 0, 64, 0
2, 36828, Note_on_c, 0, 52, 0
2, 36869, Note_on_c, 0, 63, 0
2, 36907, Note_on_c, 0, 58, 0
2, 37048, Note_on_c, 0, 77, 0
2, 37268, Note_on_c, 0, 78, 77
2, 37294, Note_on_c, 0, 63, 39
2, 37342, Note_on_c, 0, 58, 42
2, 37345, Note_on_c, 0, 52, 31
2, 37493, Note_on_c, 0, 52, 0
2, 37547, Note_on_c, 0, 63, 0
2, 37568, Note_on_c, 0, 78, 0
2, 37870, Note_on_c, 0, 58, 0
2, 38054, Note_on_c, 0, 77, 72
2, 38067, Note_on_c, 0, 51, 37
2, 38113, Note_on_c, 0, 62, 29
2, 38128, Note_on_c, 0, 57, 43
2, 38228, Note_on_c, 0, 62, 0
2, 38254, Note_on_c, 0, 57, 0
2, 38302, Note_on_c, 0, 77, 0
2, 38330, Note_on_c, 0, 51, 0
2, 38927, Note_on_c, 0, 76, 58
2, 38965, Note_on_c, 0, 51, 27
2, 39042, Note_on_c, 0, 57, 32
2, 39216, Note_on_c, 0, 57, 0
2, 39219, Note_on_c, 0, 76, 0
2, 39267, Note_on_c, 0, 51, 0
2, 40317, Note_on_c, 0, 75, 43
2, 40337, Control_c, 0, 64, 127
2, 40368, Note_on_c, 0, 51, 15
2, 40371, Note_on_c, 0, 57, 37
2, 40396, Note_on_c, 0, 62, 15
2, 40750, Control_c, 0, 64, 0
2, 41034, Note_on_c, 0, 57, 0
2, 41149, Note_on_c, 0, 51, 0
2, 41185, Control_c, 0, 64, 127
2, 41326, Note_on_c, 0, 62, 0
2, 41487, Note_on_c, 0, 75, 0
2, 42109, Control_c, 0, 64, 0
2, 42124, Note_on_c, 0, 75, 71
2, 42232, Note_on_c, 0, 72, 50
2, 42260, Note_on_c, 0, 63, 47
2, 42273, Note_on_c, 0, 61, 38
2, 42304, Note_on_c, 0, 65, 47
2, 42309, Note_on_c, 0, 68, 53
2, 43036, Control_c, 0, 64, 127
2, 44072, Note_on_c, 0, 65, 0
2, 44195, Note_on_c, 0, 63, 0
2, 44211, Note_on_c, 0, 72, 0
2, 44221, Note_on_c, 0, 68, 0
2, 44336, Note_on_c, 0, 61, 0
2, 44346, Note_on_c, 0, 75, 0
2, 44369, Control_c, 0, 64, 0
2, 44503, Note_on_c, 0, 74, 63
2, 44505, Note_on_c, 0, 71, 57
2, 44518, Note_on_c, 0, 64, 40
2, 44520, Note_on_c, 0, 67, 48
2, 44523, Note_on_c, 0, 62, 44
2, 44551, Note_on_c, 0, 60, 36
2, 44881, Control_c, 0, 64, 127
2, 45030, Note_on_c, 0, 62, 0
2, 45114, Note_on_c, 0, 60, 0
2, 45135, Note_on_c, 0, 64, 0
2, 45253, Note_on_c, 0, 74, 0
2, 45306, Note_on_c, 0, 67, 0
2, 45434, Note_on_c, 0, 71, 0
2, 45959, Control_c, 0, 64, 0
2, 45982, Note_on_c, 0, 63, 34
2, 46013, Note_on_c, 0, 73, 37
2, 46041, Note_on_c, 0, 61, 33
2, 46072, Note_on_c, 0, 66, 28
2, 46082, Note_on_c, 0, 70, 37
2, 46174, Note_on_c, 0, 59, 24
2, 46743, Note_on_c, 0, 59, 0
2, 46755, Control_c, 0, 64, 127
2, 46842, Note_on_c, 0, 61, 0
2, 46871, Note_on_c, 0, 63, 0
2, 47073, Note_on_c, 0, 66, 0
2, 47183, Note_on_c, 0, 70, 0
2, 47206, Note_on_c, 0, 73, 0
2, 47872, Note_on_c, 0, 73, 48
2, 47882, Note_on_c, 0, 61, 37
2, 47907, Control_c, 0, 64, 0
2, 47933, Note_on_c, 0, 66, 33
2, 48025, Note_on_c, 0, 59, 17
2, 48355, Note_on_c, 0, 59, 0
2, 48550, Control_c, 0, 64, 127
2, 48611, Note_on_c, 0, 73, 0
2, 48660, Note_on_c, 0, 66, 0
2, 48663, Note_on_c, 0, 61, 0
2, 49218, Control_c, 0, 64, 0
2, 49349, Note_on_c, 0, 70, 31
2, 49397, Note_on_c, 0, 58, 34
2, 49410, Note_on_c, 0, 52, 32
2, 49738, Note_on_c, 0, 70, 0
2, 49781, Control_c, 0, 64, 127
2, 50129, Note_on_c, 0, 58, 0
2, 50319, Control_c, 0, 64, 0
2, 50378, Note_on_c, 0, 72, 55
2, 50414, Note_on_c, 0, 58, 37
2, 50467, Note_on_c, 0, 66, 32
2, 50746, Note_on_c, 0, 72, 0
2, 50803, Note_on_c, 0, 58, 0
2, 50823, Note_on_c, 0, 66, 0
2, 50961, Control_c, 0, 64, 127
2, 51297, Note_on_c, 0, 52, 0
2, 51476, Control_c, 0, 64, 0
2, 51735, Note_on_c, 0, 75, 55
2, 51778, Note_on_c, 0, 64, 45
2, 51791, Note_on_c, 0, 68, 42
2, 51794, Note_on_c, 0, 63, 58
2, 52032, Note_on_c, 0, 64, 0
2, 52083, Note_on_c, 0, 63, 0
2, 52106, Note_on_c, 0, 68, 0
2, 52165, Note_on_c, 0, 75, 0
2, 52692, Note_on_c, 0, 73, 30
2, 52715, Note_on_c, 0, 61, 45
2, 52974, Note_on_c, 0, 73, 0
2, 53015, Note_on_c, 0, 61, 0
2, 54187, Note_on_c, 0, 51, 35
2, 54200, Note_on_c, 0, 62, 41
2, 54310, Note_on_c, 0, 57, 31
2, 54377, Note_on_c, 0, 62, 0
2, 54438, Note_on_c, 0, 57, 0
2, 54466, Note_on_c, 0, 51, 0
2, 55654, Note_on_c, 0, 73, 69
2, 55961, Note_on_c, 0, 73, 0
2, 56189, Note_on_c, 0, 73, 70
2, 56407, Note_on_c, 0, 62, 32
2, 56414, Note_on_c, 0, 51, 23
2, 56519, Note_on_c, 0, 73, 0
2, 56624, Note_on_c, 0, 51, 0
2, 56629, Note_on_c, 0, 72, 36
2, 56814, Note_on_c, 0, 62, 0
2, 57147, Note_on_c, 0, 72, 0
2, 57195, Note_on_c, 0, 69, 40
2, 57397, Note_on_c, 0, 69, 0
2, 57592, Note_on_c, 0, 65, 36
2, 57648, Note_on_c, 0, 62, 32
2, 57689, Note_on_c, 0, 60, 22
2, 57702, Note_on_c, 0, 72, 25
2, 58319, Note_on_c, 0, 72, 0
2, 58357, Note_on_c, 0, 60, 0
2, 58365, Note_on_c, 0, 62, 0
2, 58439, Note_on_c, 0, 65, 0
2, 58536, Note_on_c, 0, 69, 30
2, 58944, Note_on_c, 0, 69, 0
2, 59077, Note_on_c, 0, 65, 29
2, 59100, Note_on_c, 0, 70, 39
2, 59197, Note_on_c, 0, 65, 0
2, 59957, Note_on_c, 0, 70, 0
2, 60003, Note_on_c, 0, 65, 47
2, 60275, Note_on_c, 0, 65, 0
2, 60520, Note_on_c, 0, 67, 30
2, 60912, Note_on_c, 0, 67, 0
2, 60997, Note_on_c, 0, 74, 76
2, 61089, Note_on_c, 0, 62, 44
2, 61099, Note_on_c, 0, 58, 37
2, 61191, Note_on_c, 0, 52, 20
2, 61271, Note_on_c, 0, 62, 0
2, 61304, Note_on_c, 0, 52, 0
2, 61370, Note_on_c, 0, 58, 0
2, 61429, Note_on_c, 0, 74, 0
2, 61475, Note_on_c, 0, 70, 37
2, 61903, Note_on_c, 0, 70, 0
2, 62062, Note_on_c, 0, 67, 55
2, 62318, Note_on_c, 0, 67, 0
2, 62512, Note_on_c, 0, 66, 25
2, 62827, Note_on_c, 0, 66, 0
2, 62978, Note_on_c, 0, 65, 56
2, 63331, Note_on_c, 0, 65, 0
2, 63559, Note_on_c, 0, 63, 33
2, 63915, Note_on_c, 0, 63, 0
2, 63933, Note_on_c, 0, 60, 36
2, 64181, Note_on_c, 0, 60, 0
2, 64322, Note_on_c, 0, 61, 45
2, 64734, Note_on_c, 0, 61, 0
2, 64896, Note_on_c, 0, 62, 50
2, 65154, Note_on_c, 0, 62, 0
2, 65272, Note_on_c, 0, 65, 70
2, 65996, Note_on_c, 0, 65, 0
2, 66163, Note_on_c, 0, 67, 52
2, 66183, Control_c, 0, 64, 127
2, 66618, Control_c, 0, 64, 0
2, 66670, Note_on_c, 0, 67, 0
2, 66736, Note_on_c, 0, 65, 46
2, 66920, Note_on_c, 0, 65, 0
2, 67171, Note_on_c, 0, 70, 71
2, 67630, Note_on_c, 0, 70, 0
2, 67786, Note_on_c, 0, 70, 62
2, 67921, Control_c, 0, 64, 127
2, 68080, Note_on_c, 0, 70, 0
2, 68359, Control_c, 0, 64, 0
2, 68623, Note_on_c, 0, 65, 34
2, 68633, Note_on_c, 0, 62, 35
2, 68677, Note_on_c, 0, 60, 28
2, 68805, Note_on_c, 0, 65, 0
2, 68810, Note_on_c, 0, 60, 0
2, 68853, Note_on_c, 0, 62, 0
2, 69926, Control_c, 0, 64, 127
2, 70031, Note_on_c, 0, 62, 34
2, 70046, Note_on_c, 0, 65, 32
2, 70051, Control_c, 0, 64, 0
2, 70097, Note_on_c, 0, 60, 24
2, 70146, Note_on_c, 0, 55, 17
2, 70282, Note_on_c, 0, 65, 0
2, 70305, Note_on_c, 0, 55, 0
2, 70348, Note_on_c, 0, 60, 0
2, 70356, Note_on_c, 0, 62, 0
2, 71004, Control_c, 0, 64, 127
2, 71288, Control_c, 0, 64, 0
2, 71539, Note_on_c, 0, 65, 36
2, 71592, Note_on_c, 0, 60, 30
2, 71598, Note_on_c, 0, 62, 31
2, 71733, Note_on_c, 0, 62, 0
2, 71767, Note_on_c, 0, 65, 0
2, 71874, Note_on_c, 0, 60, 0
2, 71953, Control_c, 0, 64, 127
2, 72005, Control_c, 0, 64, 0
2, 72496, Note_on_c, 0, 61, 52
2, 72509, Note_on_c, 0, 65, 49
2, 72550, Note_on_c, 0, 55, 34
2, 72616, Note_on_c, 0, 65, 0
2, 72683, Note_on_c, 0, 55, 0
2, 72808, Note_on_c, 0, 61, 0
2, 72878, Control_c, 0, 64, 127
2, 72896, Note_on_c, 0, 69, 89
2, 72929, Control_c, 0, 64, 0
2, 73397, Note_on_c, 0, 61, 32
2, 73408, Note_on_c, 0, 69, 0
2, 73461, Note_on_c, 0, 68, 36
2, 73761, Note_on_c, 0, 61, 0
2, 73794, Note_on_c, 0, 68, 0
2, 73802, Control_c, 0, 64, 127
2, 73914, Note_on_c, 0, 69, 30
2, 74058, Control_c, 0, 64, 0
2, 74245, Note_on_c, 0, 69, 0
2, 74398, Note_on_c, 0, 72, 74
2, 74478, Note_on_c, 0, 65, 37
2, 74480, Note_on_c, 0, 61, 35
2, 74629, Note_on_c, 0, 65, 0
2, 74713, Note_on_c, 0, 72, 0
2, 74836, Note_on_c, 0, 61, 0
2, 74949, Note_on_c, 0, 69, 24
2, 75294, Note_on_c, 0, 61, 25
2, 75322, Note_on_c, 0, 69, 0
2, 75555, Note_on_c, 0, 69, 37
2, 75658, Note_on_c, 0, 61, 0
2, 75688, Note_on_c, 0, 69, 0
2, 75701, Control_c, 0, 64, 127
2, 75781, Control_c, 0, 64, 0
2, 76344, Note_on_c, 0, 65, 37
2, 76346, Note_on_c, 0, 61, 36
2, 76357, Note_on_c, 0, 60, 28
2, 76531, Note_on_c, 0, 60, 0
2, 76541, Note_on_c, 0, 65, 0
2, 76664, Note_on_c, 0, 61, 0
2, 77327, Note_on_c, 0, 61, 34
2, 77347, Note_on_c, 0, 65, 33
2, 77383, Note_on_c, 0, 60, 29
2, 77504, Note_on_c, 0, 60, 0
2, 77521, Note_on_c, 0, 65, 0
2, 77524, Control_c, 0, 64, 127
2, 77619, Note_on_c, 0, 61, 0
2, 77621, Control_c, 0, 64, 0
2, 78205, Note_on_c, 0, 65, 49
2, 78223, Note_on_c, 0, 61, 36
2, 78231, Note_on_c, 0, 60, 32
2, 78318, Note_on_c, 0, 65, 0
2, 78346, Note_on_c, 0, 60, 0
2, 78410, Note_on_c, 0, 61, 0
2, 78648, Control_c, 0, 64, 127
2, 78663, Note_on_c, 0, 68, 38
2, 78750, Control_c, 0, 64, 0
2, 79055, Note_on_c, 0, 68, 0
2, 79155, Note_on_c, 0, 69, 44
2, 79232, Note_on_c, 0, 65, 49
2, 79249, Note_on_c, 0, 61, 36
2, 79270, Note_on_c, 0, 60, 27
2, 79298, Note_on_c, 0, 55, 27
2, 79400, Note_on_c, 0, 69, 0
2, 79531, Note_on_c, 0, 65, 0
2, 79577, Note_on_c, 0, 72, 67
2, 79674, Note_on_c, 0, 61, 0
2, 79685, Note_on_c, 0, 55, 0
2, 80033, Note_on_c, 0, 72, 0
2, 80061, Note_on_c, 0, 69, 44
2, 80079, Note_on_c, 0, 60, 0
2, 80376, Note_on_c, 0, 69, 0
2, 80435, Note_on_c, 0, 65, 50
2, 80437, Note_on_c, 0, 61, 35
2, 80488, Note_on_c, 0, 56, 37
2, 80514, Note_on_c, 0, 70, 52
2, 80704, Note_on_c, 0, 65, 0
2, 80896, Note_on_c, 0, 61, 0
2, 81006, Note_on_c, 0, 70, 0
2, 81047, Note_on_c, 0, 65, 36
2, 81269, Control_c, 0, 64, 127
2, 81456, Note_on_c, 0, 56, 0
2, 81707, Note_on_c, 0, 65, 0
2, 81861, Control_c, 0, 64, 0
2, 81968, Note_on_c, 0, 65, 31
2, 82050, Note_on_c, 0, 61, 32
2, 82214, Note_on_c, 0, 65, 0
2, 82327, Note_on_c, 0, 61, 0
2, 82521, Note_on_c, 0, 69, 48
2, 82949, Note_on_c, 0, 69, 0
2, 82964, Note_on_c, 0, 73, 53
2, 82992, Note_on_c, 0, 61, 43
2, 83235, Note_on_c, 0, 61, 0
2, 83276, Note_on_c, 0, 73, 0
2, 83443, Note_on_c, 0, 71, 57
2, 83473, Note_on_c, 0, 63, 64
2, 83486, Note_on_c, 0, 59, 60
2, 83532, Note_on_c, 0, 58, 35
2, 83832, Note_on_c, 0, 63, 0
2, 83991, Note_on_c, 0, 66, 51
2, 84078, Note_on_c, 0, 59, 0
2, 84236, Note_on_c, 0, 71, 0
2, 84341, Note_on_c, 0, 66, 0
2, 84485, Note_on_c, 0, 65, 43
2, 84743, Note_on_c, 0, 58, 0
2, 84912, Note_on_c, 0, 65, 0
2, 85007, Note_on_c, 0, 59, 33
2, 85020, Note_on_c, 0, 58, 18
2, 85027, Note_on_c, 0, 63, 33
2, 85140, Note_on_c, 0, 59, 0
2, 85342, Note_on_c, 0, 58, 0
2, 85376, Note_on_c, 0, 63, 0
2, 85521, Note_on_c, 0, 60, 24
2, 86018, Note_on_c, 0, 51, 28
2, 86115, Note_on_c, 0, 51, 0
2, 86161, Note_on_c, 0, 60, 0
2, 86364, Note_on_c, 0, 65, 62
2, 86376, Control_c, 0, 64, 127
2, 86712, Control_c, 0, 64, 0
2, 86878, Note_on_c, 0, 65, 0
2, 87275, Control_c, 0, 64, 127
2, 87321, Note_on_c, 0, 61, 27
2, 87534, Control_c, 0, 64, 0
2, 87728, Note_on_c, 0, 61, 0
2, 87784, Note_on_c, 0, 65, 53
2, 87823, Note_on_c, 0, 58, 45
2, 87843, Note_on_c, 0, 61, 25
2, 87864, Note_on_c, 0, 53, 38
2, 87895, Note_on_c, 0, 54, 33
2, 88619, Note_on_c, 0, 65, 0
2, 88624, Note_on_c, 0, 54, 0
2, 88768, Note_on_c, 0, 63, 52
2, 88803, Note_on_c, 0, 51, 39
2, 88913, Note_on_c, 0, 53, 0
2, 88977, Note_on_c, 0, 61, 0
2, 89198, Control_c, 0, 64, 127
2, 89351, Control_c, 0, 64, 0
2, 89482, Note_on_c, 0, 51, 0
2, 89582, Note_on_c, 0, 63, 0
2, 89679, Note_on_c, 0, 54, 37
2, 89712, Note_on_c, 0, 62, 53
2, 89748, Note_on_c, 0, 50, 41
2, 90199, Control_c, 0, 64, 127
2, 90250, Control_c, 0, 64, 0
2, 90457, Note_on_c, 0, 54, 0
2, 90508, Note_on_c, 0, 62, 0
2, 90534, Note_on_c, 0, 58, 0
2, 90603, Note_on_c, 0, 50, 0
2, 90683, Note_on_c, 0, 63, 50
2, 90685, Note_on_c, 0, 51, 50
2, 90698, Note_on_c, 0, 54, 49
2, 90754, Note_on_c, 0, 58, 23
2, 90915, Note_on_c, 0, 63, 0
2, 90951, Note_on_c, 0, 54, 0
2, 90992, Note_on_c, 0, 51, 0
2, 91125, Note_on_c, 0, 54, 62
2, 91154, Note_on_c, 0, 65, 59
2, 91156, Note_on_c, 0, 61, 36
2, 91174, Note_on_c, 0, 53, 60
2, 92098, Control_c, 0, 64, 127
2, 92303, Control_c, 0, 64, 0
2, 92457, Note_on_c, 0, 54, 0
2, 92495, Note_on_c, 0, 65, 0
2, 92546, Note_on_c, 0, 58, 0
2, 92554, Note_on_c, 0, 61, 0
2, 92666, Note_on_c, 0, 54, 38
2, 92682, Note_on_c, 0, 63, 46
2, 92697, Note_on_c, 0, 58, 25
2, 92738, Note_on_c, 0, 51, 38
2, 92764, Note_on_c, 0, 61, 25
2, 92815, Note_on_c, 0, 53, 0
2, 93074, Control_c, 0, 64, 127
2, 93383, Control_c, 0, 64, 0
2, 93399, Note_on_c, 0, 54, 0
2, 93542, Note_on_c, 0, 63, 0
2, 93619, Note_on_c, 0, 54, 37
2, 93655, Note_on_c, 0, 62, 57
2, 93667, Note_on_c, 0, 51, 0
2, 93670, Note_on_c, 0, 50, 47
2, 93737, Note_on_c, 0, 61, 0
2, 93972, Control_c, 0, 64, 127
2, 94154, Note_on_c, 0, 54, 0
2, 94266, Note_on_c, 0, 62, 0
2, 94359, Control_c, 0, 64, 0
2, 94384, Note_on_c, 0, 58, 0
2, 94517, Note_on_c, 0, 63, 53
2, 94530, Note_on_c, 0, 50, 0
2, 94538, Note_on_c, 0, 51, 38
2, 94543, Note_on_c, 0, 54, 39
2, 94563, Note_on_c, 0, 58, 14
2, 94643, Note_on_c, 0, 51, 0
2, 94784, Note_on_c, 0, 54, 0
2, 94871, Control_c, 0, 64, 127
2, 94922, Note_on_c, 0, 63, 0
2, 95160, Note_on_c, 0, 58, 0
2, 95411, Control_c, 0, 64, 0
2, 95531, Note_on_c, 0, 65, 54
2, 95557, Note_on_c, 0, 58, 58
2, 95567, Note_on_c, 0, 61, 46
2, 95951, Control_c, 0, 64, 127
2, 96473, Note_on_c, 0, 65, 0
2, 96478, Note_on_c, 0, 54, 56
2, 96489, Note_on_c, 0, 39, 57
2, 96512, Control_c, 0, 64, 0
2, 96565, Note_on_c, 0, 61, 0
2, 96593, Note_on_c, 0, 58, 0
2, 97489, Note_on_c, 0, 54, 0
2, 97551, Note_on_c, 0, 53, 49
2, 97712, Note_on_c, 0, 53, 0
2, 97989, Note_on_c, 0, 54, 36
2, 98386, Note_on_c, 0, 54, 0
2, 98450, Note_on_c, 0, 39, 0
2, 98465, Note_on_c, 0, 54, 37
2, 98483, Note_on_c, 0, 58, 74
2, 98729, Note_on_c, 0, 54, 0
2, 98946, Note_on_c, 0, 58, 0
2, 98982, Note_on_c, 0, 55, 40
2, 99328, Note_on_c, 0, 55, 0
2, 99430, Note_on_c, 0, 56, 62
2, 99630, Note_on_c, 0, 56, 0
2, 99699, Note_on_c, 0, 54, 27
2, 100090, Note_on_c, 0, 54, 0
2, 100426, Note_on_c, 0, 54, 62
2, 100441, Note_on_c, 0, 44, 47
2, 100651, Note_on_c, 0, 54, 0
2, 100741, Note_on_c, 0, 44, 0
2, 100812, Note_on_c, 0, 57, 53
2, 101222, Note_on_c, 0, 57, 0
2, 101322, Note_on_c, 0, 58, 62
2, 101721, Note_on_c, 0, 58, 0
2, 101795, Note_on_c, 0, 59, 36
2, 102097, Note_on_c, 0, 59, 0
2, 102215, Note_on_c, 0, 60, 64
2, 102246, Note_on_c, 0, 54, 54
2, 102259, Note_on_c, 0, 44, 38
2, 102592, Note_on_c, 0, 60, 0
2, 102658, Note_on_c, 0, 61, 39
2, 102702, Note_on_c, 0, 44, 0
2, 102789, Note_on_c, 0, 54, 0
2, 103024, Note_on_c, 0, 61, 0
2, 103219, Note_on_c, 0, 62, 67
2, 103449, Note_on_c, 0, 62, 0
2, 103680, Note_on_c, 0, 49, 44
2, 103710, Note_on_c, 0, 65, 47
2, 103982, Note_on_c, 0, 65, 0
2, 104176, Note_on_c, 0, 57, 50
2, 104340, Note_on_c, 0, 57, 0
2, 104624, Note_on_c, 0, 62, 39
2, 105100, Note_on_c, 0, 66, 59
2, 105121, Note_on_c, 0, 62, 0
2, 105287, Note_on_c, 0, 66, 0
2, 105433, Note_on_c, 0, 49, 0
2, 105571, Note_on_c, 0, 71, 58
2, 105856, Note_on_c, 0, 71, 0
2, 106155, Note_on_c, 0, 76, 31
2, 106158, Note_on_c, 0, 74, 34
2, 106170, Note_on_c, 0, 75, 21
2, 106188, Control_c, 0, 64, 127
2, 106373, Note_on_c, 0, 76, 0
2, 106385, Note_on_c, 0, 74, 0
2, 106398, Note_on_c, 0, 75, 0
2, 106442, Control_c, 0, 64, 0
2, 106521, Note_on_c, 0, 78, 72
2, 106611, Note_on_c, 0, 63, 74
2, 106616, Note_on_c, 0, 58, 71
2, 106649, Note_on_c, 0, 53, 41
2, 107107, Note_on_c, 0, 78, 0
2, 107555, Note_on_c, 0, 53, 0
2, 107717, Note_on_c, 0, 58, 0
2, 107732, Note_on_c, 0, 63, 0
2, 107957, Note_on_c, 0, 77, 89
2, 108008, Note_on_c, 0, 64, 57
2, 108049, Note_on_c, 0, 60, 39
2, 108336, Note_on_c, 0, 64, 0
2, 108385, Note_on_c, 0, 60, 0
2, 108869, Note_on_c, 0, 75, 53
2, 108917, Note_on_c, 0, 63, 43
2, 108933, Note_on_c, 0, 59, 46
2, 109186, Note_on_c, 0, 63, 0
2, 109196, Note_on_c, 0, 77, 0
2, 109304, Note_on_c, 0, 75, 0
2, 109342, Note_on_c, 0, 59, 0
2, 109419, Note_on_c, 0, 71, 49
2, 110100, Note_on_c, 0, 71, 0
2, 110328, Note_on_c, 0, 66, 42
2, 110341, Control_c, 0, 64, 127
2, 111139, Control_c, 0, 64, 0
2, 111155, Note_on_c, 0, 66, 0
2, 111219, Note_on_c, 0, 63, 32
2, 111249, Note_on_c, 0, 58, 44
2, 111278, Note_on_c, 0, 65, 46
2, 111280, Note_on_c, 0, 52, 31
2, 111513, Note_on_c, 0, 52, 0
2, 111523, Note_on_c, 0, 63, 0
2, 111567, Note_on_c, 0, 65, 0
2, 111590, Note_on_c, 0, 58, 0
2, 112115, Control_c, 0, 64, 127
2, 112371, Control_c, 0, 64, 0
2, 112629, Note_on_c, 0, 63, 34
2, 112660, Note_on_c, 0, 58, 42
2, 112675, Note_on_c, 0, 84, 66
2, 112680, Note_on_c, 0, 52, 30
2, 112696, Note_on_c, 0, 72, 57
2, 112709, Control_c, 0, 64, 127
2, 112939, Note_on_c, 0, 52, 0
2, 112970, Note_on_c, 0, 84, 0
2, 112975, Note_on_c, 0, 63, 0
2, 112988, Note_on_c, 0, 72, 0
2, 113054, Note_on_c, 0, 58, 0
2, 113336, Note_on_c, 0, 63, 43
2, 113351, Note_on_c, 0, 73, 54
2, 113359, Note_on_c, 0, 52, 44
2, 113367, Note_on_c, 0, 58, 46
2, 113369, Note_on_c, 0, 85, 69
2, 113676, Note_on_c, 0, 52, 0
2, 113717, Note_on_c, 0, 63, 0
2, 113720, Note_on_c, 0, 73, 0
2, 113776, Note_on_c, 0, 85, 0
2, 113807, Note_on_c, 0, 58, 0
2, 114030, Note_on_c, 0, 63, 33
2, 114055, Note_on_c, 0, 58, 37
2, 114063, Note_on_c, 0, 75, 42
2, 114076, Note_on_c, 0, 87, 50
2, 114088, Note_on_c, 0, 52, 25
2, 114114, Control_c, 0, 64, 0
2, 114224, Note_on_c, 0, 52, 0
2, 114224, Note_on_c, 0, 87, 0
2, 114291, Note_on_c, 0, 75, 0
2, 114329, Note_on_c, 0, 63, 0
2, 114570, Note_on_c, 0, 58, 0
2, 114741, Note_on_c, 0, 62, 43
2, 114746, Note_on_c, 0, 73, 42
2, 114749, Note_on_c, 0, 85, 51
2, 114775, Note_on_c, 0, 51, 26
2, 114787, Note_on_c, 0, 57, 44
2, 114864, Note_on_c, 0, 62, 0
2, 114910, Note_on_c, 0, 57, 0
2, 114961, Note_on_c, 0, 51, 0
2, 114977, Note_on_c, 0, 73, 0
2, 115074, Note_on_c, 0, 85, 0
2, 115635, Note_on_c, 0, 84, 61
2, 115650, Note_on_c, 0, 51, 34
2, 115660, Note_on_c, 0, 72, 46
2, 115673, Note_on_c, 0, 62, 34
2, 115694, Note_on_c, 0, 57, 39
2, 117153, Control_c, 0, 64, 127
2, 117468, Note_on_c, 0, 62, 0
2, 117588, Note_on_c, 0, 84, 0
2, 117808, Note_on_c, 0, 72, 0
2, 117931, Note_on_c, 0, 72, 31
2, 117959, Note_on_c, 0, 57, 0
2, 117967, Note_on_c, 0, 62, 37
2, 117969, Note_on_c, 0, 83, 55
2, 118041, Note_on_c, 0, 51, 0
2, 118220, Note_on_c, 0, 62, 0
2, 118279, Note_on_c, 0, 72, 0
2, 118338, Note_on_c, 0, 83, 0
2, 118474, Note_on_c, 0, 82, 62
2, 118538, Control_c, 0, 64, 0
2, 118827, Note_on_c, 0, 82, 0
2, 118914, Note_on_c, 0, 65, 34
2, 118970, Note_on_c, 0, 60, 30
2, 118978, Note_on_c, 0, 62, 34
2, 118981, Note_on_c, 0, 81, 46
2, 119321, Note_on_c, 0, 81, 0
2, 119720, Note_on_c, 0, 65, 0
2, 119866, Control_c, 0, 64, 127
2, 120460, Control_c, 0, 64, 0
2, 120488, Note_on_c, 0, 83, 87
2, 120555, Note_on_c, 0, 53, 33
2, 121162, Note_on_c, 0, 83, 0
2, 121328, Note_on_c, 0, 82, 47
2, 121671, Note_on_c, 0, 82, 0
2, 121914, Note_on_c, 0, 81, 22
2, 122132, Note_on_c, 0, 81, 0
2, 122283, Note_on_c, 0, 84, 71
2, 122603, Note_on_c, 0, 84, 0
2, 122805, Note_on_c, 0, 81, 31
2, 122862, Note_on_c, 0, 60, 0
2, 123031, Note_on_c, 0, 81, 0
2, 123056, Note_on_c, 0, 62, 0
2, 123220, Note_on_c, 0, 82, 55
2, 123351, Note_on_c, 0, 62, 29
2, 123550, Note_on_c, 0, 82, 0
2, 123681, Note_on_c, 0, 81, 31
2, 123696, Control_c, 0, 64, 127
2, 123709, Note_on_c, 0, 62, 0
2, 124001, Control_c, 0, 64, 0
2, 124019, Note_on_c, 0, 81, 0
2, 124190, Note_on_c, 0, 77, 51
2, 124344, Note_on_c, 0, 62, 20
2, 124487, Note_on_c, 0, 77, 0
2, 124562, Note_on_c, 0, 62, 0
2, 124618, Control_c, 0, 64, 127
2, 124638, Note_on_c, 0, 74, 34
2, 124979, Control_c, 0, 64, 0
2, 124999, Note_on_c, 0, 74, 0
2, 125173, Note_on_c, 0, 70, 53
2, 125194, Note_on_c, 0, 62, 28
2, 125350, Note_on_c, 0, 62, 0
2, 125491, Note_on_c, 0, 70, 0
2, 125609, Note_on_c, 0, 53, 0
2, 125647, Control_c, 0, 64, 127
2, 126215, Note_on_c, 0, 67, 24
2, 126328, Note_on_c, 0, 67, 0
2, 126443, Control_c, 0, 64, 0
2, 126612, Note_on_c, 0, 62, 31
2, 126635, Note_on_c, 0, 52, 28
2, 126645, Note_on_c, 0, 69, 69
2, 126668, Note_on_c, 0, 58, 33
2, 127137, Note_on_c, 0, 69, 0
2, 127250, Note_on_c, 0, 70, 42
2, 127406, Note_on_c, 0, 69, 46
2, 127534, Note_on_c, 0, 62, 0
2, 127559, Note_on_c, 0, 70, 0
2, 127631, Note_on_c, 0, 69, 0
2, 127664, Note_on_c, 0, 67, 15
2, 127685, Note_on_c, 0, 58, 0
2, 128192, Note_on_c, 0, 67, 0
2, 128496, Control_c, 0, 64, 127
2, 128675, Note_on_c, 0, 67, 55
2, 128742, Note_on_c, 0, 62, 40
2, 128773, Note_on_c, 0, 58, 29
2, 128821, Control_c, 0, 64, 0
2, 128975, Note_on_c, 0, 62, 0
2, 129006, Note_on_c, 0, 58, 0
2, 129006, Note_on_c, 0, 52, 0
2, 129067, Note_on_c, 0, 67, 0
2, 129648, Note_on_c, 0, 67, 54
2, 129697, Control_c, 0, 64, 127
2, 129776, Control_c, 0, 64, 0
2, 130178, Note_on_c, 0, 67, 0
2, 130631, Note_on_c, 0, 61, 27
2, 130647, Note_on_c, 0, 70, 46
2, 130649, Note_on_c, 0, 66, 49
2, 130754, Note_on_c, 0, 54, 23
2, 130808, Note_on_c, 0, 61, 0
2, 131233, Note_on_c, 0, 66, 0
2, 131248, Note_on_c, 0, 70, 0
2, 131264, Note_on_c, 0, 65, 44
2, 131432, Note_on_c, 0, 65, 0
2, 131502, Note_on_c, 0, 54, 0
2, 132034, Note_on_c, 0, 61, 38
2, 132075, Note_on_c, 0, 66, 49
2, 132096, Note_on_c, 0, 70, 40
2, 132116, Note_on_c, 0, 58, 33
2, 132226, Note_on_c, 0, 54, 21
2, 132308, Note_on_c, 0, 61, 0
2, 132390, Note_on_c, 0, 58, 0
2, 132405, Note_on_c, 0, 54, 0
2, 132413, Note_on_c, 0, 66, 0
2, 132490, Note_on_c, 0, 70, 0
2, 133076, Note_on_c, 0, 65, 55
2, 133368, Control_c, 0, 64, 127
2, 134010, Note_on_c, 0, 63, 46
2, 134092, Note_on_c, 0, 65, 0
2, 134192, Control_c, 0, 64, 0
2, 134284, Note_on_c, 0, 63, 0
2, 135296, Control_c, 0, 64, 127
2, 136729, Control_c, 0, 64, 0
2, 136908, Note_on_c, 0, 66, 51
2, 136931, Note_on_c, 0, 59, 47
2, 136936, Note_on_c, 0, 61, 47
2, 136947, Note_on_c, 0, 54, 53
2, 136967, Note_on_c, 0, 63, 39
2, 137264, Note_on_c, 0, 59, 0
2, 137303, Note_on_c, 0, 54, 0
2, 137351, Note_on_c, 0, 63, 0
2, 137354, Note_on_c, 0, 66, 0
2, 137372, Note_on_c, 0, 61, 0
2, 137520, Note_on_c, 0, 53, 35
2, 137536, Note_on_c, 0, 60, 35
2, 137543, Note_on_c, 0, 65, 33
2, 137600, Note_on_c, 0, 59, 32
2, 137786, Note_on_c, 0, 60, 0
2, 137832, Note_on_c, 0, 65, 0
2, 137861, Note_on_c, 0, 59, 0
2, 137940, Note_on_c, 0, 53, 0
2, 138424, Control_c, 0, 64, 127
2, 138762, Control_c, 0, 64, 0
2, 138979, Note_on_c, 0, 65, 47
2, 138997, Note_on_c, 0, 53, 46
2, 139013, Note_on_c, 0, 58, 46
2, 139025, Note_on_c, 0, 55, 39
2, 139028, Note_on_c, 0, 43, 41
2, 139041, Note_on_c, 0, 62, 47
2, 139202, Note_on_c, 0, 62, 0
2, 139207, Note_on_c, 0, 53, 0
2, 139238, Note_on_c, 0, 43, 0
2, 139253, Note_on_c, 0, 55, 0
2, 139333, Note_on_c, 0, 65, 0
2, 139381, Note_on_c, 0, 58, 0
2, 139776, Note_on_c, 0, 61, 60
2, 139788, Note_on_c, 0, 49, 58
2, 139840, Note_on_c, 0, 58, 37
2, 139852, Note_on_c, 0, 55, 36
2, 140049, Note_on_c, 0, 55, 0
2, 140142, Note_on_c, 0, 58, 0
2, 140144, Note_on_c, 0, 49, 0
2, 140288, Note_on_c, 0, 50, 50
2, 140318, Note_on_c, 0, 61, 0
2, 140631, Note_on_c, 0, 50, 0
2, 140797, Note_on_c, 0, 53, 48
2, 140948, Note_on_c, 0, 53, 0
2, 141176, Note_on_c, 0, 57, 42
2, 141342, Note_on_c, 0, 69, 55
2, 141521, Note_on_c, 0, 69, 0
2, 141603, Note_on_c, 0, 57, 0
2, 141900, Note_on_c, 0, 59, 53
2, 142003, Note_on_c, 0, 59, 0
2, 142167, Note_on_c, 0, 62, 64
2, 142182, Note_on_c, 0, 74, 66
2, 142200, Note_on_c, 0, 67, 64
2, 142202, Note_on_c, 0, 63, 67
2, 142261, Note_on_c, 0, 70, 38
2, 142712, Note_on_c, 0, 63, 0
2, 142722, Note_on_c, 0, 74, 0
2, 142743, Note_on_c, 0, 70, 0
2, 142755, Note_on_c, 0, 67, 0
2, 142796, Note_on_c, 0, 62, 0
2, 142863, Note_on_c, 0, 60, 43
2, 142940, Note_on_c, 0, 72, 48
2, 143262, Note_on_c, 0, 72, 0
2, 143280, Note_on_c, 0, 60, 0
2, 143631, Note_on_c, 0, 63, 60
2, 143646, Note_on_c, 0, 74, 50
2, 143649, Note_on_c, 0, 62, 62
2, 143651, Note_on_c, 0, 67, 52
2, 143672, Note_on_c, 0, 70, 50
2, 143751, Note_on_c, 0, 67, 0
2, 143813, Note_on_c, 0, 63, 0
2, 143833, Note_on_c, 0, 62, 0
2, 143869, Note_on_c, 0, 74, 0
2, 143923, Control_c, 0, 64, 127
2, 143941, Note_on_c, 0, 70, 0
2, 144153, Control_c, 0, 64, 0
2, 144552, Note_on_c, 0, 70, 64
2, 144555, Note_on_c, 0, 65, 55
2, 144583, Note_on_c, 0, 77, 56
2, 144588, Note_on_c, 0, 67, 54
2, 144611, Note_on_c, 0, 74, 47
2, 144686, Note_on_c, 0, 67, 0
2, 144696, Note_on_c, 0, 65, 0
2, 144719, Note_on_c, 0, 74, 0
2, 144811, Note_on_c, 0, 77, 0
2, 144819, Note_on_c, 0, 70, 0
2, 145873, Control_c, 0, 64, 127
2, 146618, Control_c, 0, 64, 0
2, 146670, Note_on_c, 0, 80, 78
2, 146672, Note_on_c, 0, 73, 71
2, 146685, Note_on_c, 0, 75, 74
2, 146688, Note_on_c, 0, 68, 69
2, 146700, Note_on_c, 0, 69, 76
2, 147727, Control_c, 0, 64, 127
2, 148006, Note_on_c, 0, 68, 0
2, 148034, Note_on_c, 0, 80, 0
2, 148042, Note_on_c, 0, 69, 0
2, 148090, Note_on_c, 0, 73, 0
2, 148172, Note_on_c, 0, 75, 0
2, 148267, Control_c, 0, 64, 0
2, 148298, Note_on_c, 0, 69, 53
2, 148300, Note_on_c, 0, 73, 45
2, 148313, Note_on_c, 0, 67, 51
2, 148339, Note_on_c, 0, 75, 53
2, 148531, Note_on_c, 0, 69, 0
2, 148544, Note_on_c, 0, 73, 0
2, 148636, Note_on_c, 0, 75, 0
2, 148659, Note_on_c, 0, 67, 0
2, 148835, Note_on_c, 0, 66, 33
2, 149143, Note_on_c, 0, 66, 0
2, 149457, Note_on_c, 0, 63, 20
2, 149680, Note_on_c, 0, 63, 0
2, 149701, Control_c, 0, 64, 127
2, 149724, Note_on_c, 0, 77, 63
2, 149726, Note_on_c, 0, 69, 62
2, 149739, Note_on_c, 0, 74, 61
2, 149770, Note_on_c, 0, 65, 49
2, 149829, Control_c, 0, 64, 0
2, 150039, Note_on_c, 0, 74, 0
2, 150072, Note_on_c, 0, 77, 0
2, 150138, Note_on_c, 0, 65, 0
2, 150197, Note_on_c, 0, 69, 0
2, 150630, Note_on_c, 0, 74, 61
2, 150640, Note_on_c, 0, 62, 51
2, 150653, Control_c, 0, 64, 127
2, 150673, Note_on_c, 0, 69, 48
2, 150679, Note_on_c, 0, 65, 39
2, 151160, Note_on_c, 0, 69, 0
2, 151664, Note_on_c, 0, 65, 0
2, 151805, Note_on_c, 0, 74, 0
2, 151984, Note_on_c, 0, 62, 0
2, 152087, Note_on_c, 0, 72, 67
2, 152189, Control_c, 0, 64, 0
2, 152501, Note_on_c, 0, 72, 0
2, 153085, Note_on_c, 0, 70, 72
2, 153131, Note_on_c, 0, 62, 29
2, 153185, Note_on_c, 0, 58, 35
2, 153205, Note_on_c, 0, 53, 25
2, 153228, Note_on_c, 0, 57, 24
2, 153986, Note_on_c, 0, 70, 0
2, 154101, Note_on_c, 0, 66, 33
2, 154245, Note_on_c, 0, 66, 0
2, 154449, Note_on_c, 0, 62, 0
2, 154519, Note_on_c, 0, 69, 53
2, 154572, Note_on_c, 0, 58, 0
2, 155056, Note_on_c, 0, 69, 0
2, 155064, Note_on_c, 0, 66, 32
2, 155251, Note_on_c, 0, 66, 0
2, 155491, Note_on_c, 0, 53, 0
2, 155507, Note_on_c, 0, 67, 49
2, 155520, Note_on_c, 0, 57, 0
2, 155914, Note_on_c, 0, 67, 0
2, 156034, Note_on_c, 0, 65, 53
2, 156390, Note_on_c, 0, 65, 0
2, 156400, Control_c, 0, 64, 127
2, 156551, Note_on_c, 0, 62, 32
2, 156938, Note_on_c, 0, 62, 0
2, 157173, Control_c, 0, 64, 0
2, 157455, Note_on_c, 0, 67, 76
2, 157870, Note_on_c, 0, 67, 0
2, 158018, Note_on_c, 0, 55, 51
2, 158041, Note_on_c, 0, 46, 25
2, 158044, Note_on_c, 0, 39, 31
2, 158843, Note_on_c, 0, 55, 0
2, 158950, Note_on_c, 0, 57, 80
2, 159296, Note_on_c, 0, 46, 0
2, 159859, Note_on_c, 0, 58, 84
2, 159925, Note_on_c, 0, 46, 40
2, 159974, Note_on_c, 0, 57, 0
2, 160033, Note_on_c, 0, 39, 0
2, 160220, Control_c, 0, 64, 127
2, 160322, Note_on_c, 0, 46, 0
2, 160325, Control_c, 0, 64, 0
2, 160704, Note_on_c, 0, 58, 0
2, 160832, Note_on_c, 0, 58, 61
2, 160924, Note_on_c, 0, 58, 0
2, 161121, Note_on_c, 0, 60, 31
2, 161620, Note_on_c, 0, 60, 0
2, 161753, Note_on_c, 0, 61, 77
2, 162544, Note_on_c, 0, 61, 0
2, 162711, Note_on_c, 0, 63, 79
2, 162723, Note_on_c, 0, 54, 55
2, 162757, Note_on_c, 0, 39, 32
2, 162972, Note_on_c, 0, 39, 0
2, 163123, Control_c, 0, 64, 127
2, 163212, Note_on_c, 0, 61, 20
2, 163502, Note_on_c, 0, 61, 0
2, 163530, Note_on_c, 0, 63, 0
2, 163729, Note_on_c, 0, 65, 65
2, 163765, Control_c, 0, 64, 0
2, 163993, Note_on_c, 0, 54, 0
2, 164098, Note_on_c, 0, 65, 0
2, 164211, Note_on_c, 0, 66, 51
2, 164252, Control_c, 0, 64, 127
2, 164485, Note_on_c, 0, 66, 0
2, 164689, Note_on_c, 0, 69, 50
2, 164843, Control_c, 0, 64, 0
2, 165158, Note_on_c, 0, 62, 63
2, 165166, Note_on_c, 0, 66, 59
2, 165217, Note_on_c, 0, 49, 36
2, 166046, Control_c, 0, 64, 127
2, 166725, Note_on_c, 0, 62, 0
2, 166763, Note_on_c, 0, 69, 0
2, 166894, Note_on_c, 0, 49, 0
2, 166906, Note_on_c, 0, 66, 0
2, 167104, Control_c, 0, 64, 0
2, 167106, Note_on_c, 0, 60, 46
2, 167121, Note_on_c, 0, 68, 40
2, 167134, Note_on_c, 0, 65, 51
2, 167152, Note_on_c, 0, 49, 34
2, 167872, Control_c, 0, 64, 127
2, 168360, Note_on_c, 0, 60, 0
2, 168381, Note_on_c, 0, 65, 0
2, 168488, Note_on_c, 0, 49, 0
2, 168491, Note_on_c, 0, 68, 0
2, 168744, Control_c, 0, 64, 0
2, 168913, Note_on_c, 0, 46, 47
2, 169131, Control_c, 0, 64, 127
2, 169221, Note_on_c, 0, 46, 0
2, 170355, Control_c, 0, 64, 0
2, 170385, Note_on_c, 0, 84, 66
2, 170416, Note_on_c, 0, 77, 58
2, 170421, Note_on_c, 0, 61, 45
2, 170424, Note_on_c, 0, 72, 48
2, 170426, Note_on_c, 0, 65, 50
2, 170442, Note_on_c, 0, 56, 42
2, 170462, Note_on_c, 0, 60, 32
2, 170792, Note_on_c, 0, 72, 0
2, 170803, Control_c, 0, 64, 127
2, 170826, Note_on_c, 0, 77, 0
2, 170828, Note_on_c, 0, 84, 0
2, 170874, Note_on_c, 0, 60, 0
2, 170880, Note_on_c, 0, 65, 0
2, 170936, Note_on_c, 0, 56, 0
2, 170946, Note_on_c, 0, 61, 0
2, 171363, Note_on_c, 0, 85, 73
2, 171376, Note_on_c, 0, 73, 67
2, 171384, Note_on_c, 0, 61, 54
2, 171386, Note_on_c, 0, 65, 62
2, 171392, Note_on_c, 0, 56, 58
2, 171404, Note_on_c, 0, 60, 50
2, 171747, Note_on_c, 0, 73, 0
2, 171773, Note_on_c, 0, 56, 0
2, 171788, Note_on_c, 0, 65, 0
2, 171816, Note_on_c, 0, 85, 0
2, 171850, Note_on_c, 0, 60, 0
2, 171893, Note_on_c, 0, 61, 0
2, 172124, Note_on_c, 0, 56, 62
2, 172136, Note_on_c, 0, 61, 45
2, 172142, Note_on_c, 0, 65, 53
2, 172144, Note_on_c, 0, 87, 70
2, 172147, Note_on_c, 0, 75, 72
2, 172441, Note_on_c, 0, 65, 0
2, 172505, Note_on_c, 0, 75, 0
2, 172531, Note_on_c, 0, 87, 0
2, 172559, Note_on_c, 0, 61, 0
2, 172564, Note_on_c, 0, 56, 0
2, 172725, Control_c, 0, 64, 0
2, 172774, Note_on_c, 0, 61, 47
2, 172787, Note_on_c, 0, 65, 55
2, 172792, Note_on_c, 0, 82, 53
2, 172794, Note_on_c, 0, 55, 53
2, 172812, Note_on_c, 0, 58, 58
2, 172825, Note_on_c, 0, 89, 50
2, 172828, Note_on_c, 0, 76, 31
2, 172833, Note_on_c, 0, 77, 50
2, 172851, Note_on_c, 0, 88, 40
2, 172963, Note_on_c, 0, 76, 0
2, 173227, Note_on_c, 0, 88, 0
2, 173560, Control_c, 0, 64, 127
2, 173767, Note_on_c, 0, 77, 0
2, 173821, Note_on_c, 0, 55, 0
2, 173844, Note_on_c, 0, 65, 0
2, 173847, Note_on_c, 0, 82, 0
2, 173862, Note_on_c, 0, 61, 0
2, 173888, Note_on_c, 0, 58, 0
2, 173903, Note_on_c, 0, 89, 0
2, 174021, Control_c, 0, 64, 0
2, 174205, Note_on_c, 0, 89, 60
2, 174225, Note_on_c, 0, 61, 37
2, 174233, Note_on_c, 0, 58, 46
2, 174238, Note_on_c, 0, 65, 46
2, 174251, Note_on_c, 0, 77, 50
2, 174254, Note_on_c, 0, 82, 51
2, 174272, Note_on_c, 0, 55, 35
2, 174433, Control_c, 0, 64, 127
2, 175536, Note_on_c, 0, 65, 0
2, 175621, Note_on_c, 0, 55, 0
2, 175636, Note_on_c, 0, 61, 0
2, 175726, Note_on_c, 0, 58, 0
2, 175825, Note_on_c, 0, 77, 0
2, 175900, Note_on_c, 0, 89, 0
2, 175902, Note_on_c, 0, 82, 0
2, 176460, Control_c, 0, 64, 0
2, 176586, Note_on_c, 0, 63, 43
2, 176614, Note_on_c, 0, 58, 43
2, 176622, Note_on_c, 0, 90, 56
2, 176634, Note_on_c, 0, 52, 33
2, 176650, Note_on_c, 0, 78, 54
2, 176668, Note_on_c, 0, 87, 45
2, 177310, Control_c, 0, 64, 127
2, 177492, Note_on_c, 0, 52, 0
2, 177561, Note_on_c, 0, 87, 0
2, 177648, Note_on_c, 0, 58, 0
2, 177658, Note_on_c, 0, 63, 0
2, 177753, Note_on_c, 0, 78, 0
2, 177822, Note_on_c, 0, 90, 0
2, 177976, Control_c, 0, 64, 0
2, 178132, Note_on_c, 0, 91, 49
2, 178145, Note_on_c, 0, 63, 39
2, 178173, Note_on_c, 0, 79, 36
2, 178188, Note_on_c, 0, 58, 47
2, 178191, Note_on_c, 0, 52, 34
2, 178219, Note_on_c, 0, 87, 33
2, 179514, Control_c, 0, 64, 127
2, 179555, Note_on_c, 0, 52, 0
2, 179658, Note_on_c, 0, 79, 0
2, 179676, Note_on_c, 0, 63, 0
2, 179688, Note_on_c, 0, 91, 0
2, 179706, Note_on_c, 0, 58, 0
2, 179891, Note_on_c, 0, 87, 0
2, 180439, Control_c, 0, 64, 0
2, 180541, Note_on_c, 0, 60, 37
2, 180572, Note_on_c, 0, 80, 40
2, 180577, Note_on_c, 0, 53, 33
2, 180590, Note_on_c, 0, 92, 46
2, 180623, Note_on_c, 0, 87, 42
2, 180869, Note_on_c, 0, 60, 0
2, 181232, Control_c, 0, 64, 127
2, 181327, Note_on_c, 0, 80, 0
2, 181368, Note_on_c, 0, 92, 0
2, 181388, Note_on_c, 0, 87, 0
2, 181847, Control_c, 0, 64, 0
2, 181992, Note_on_c, 0, 63, 36
2, 181998, Note_on_c, 0, 93, 58
2, 182026, Note_on_c, 0, 81, 38
2, 182028, Note_on_c, 0, 88, 40
2, 182041, Note_on_c, 0, 67, 36
2, 182074, Note_on_c, 0, 86, 40
2, 182259, Control_c, 0, 64, 127
2, 182924, Note_on_c, 0, 53, 0
2, 183091, Note_on_c, 0, 63, 0
2, 183114, Note_on_c, 0, 67, 0
2, 183129, Note_on_c, 0, 81, 0
2, 183275, Note_on_c, 0, 86, 0
2, 183308, Note_on_c, 0, 88, 0
2, 183375, Note_on_c, 0, 93, 0
2, 184181, Control_c, 0, 64, 0
2, 184256, Note_on_c, 0, 95, 61
2, 184307, Note_on_c, 0, 87, 52
2, 184312, Note_on_c, 0, 57, 40
2, 184314, Note_on_c, 0, 91, 40
2, 184327, Note_on_c, 0, 62, 38
2, 184355, Note_on_c, 0, 67, 24
2, 184358, Note_on_c, 0, 83, 60
2, 184404, Note_on_c, 0, 63, 36
2, 185034, Control_c, 0, 64, 127
2, 185157, Note_on_c, 0, 83, 0
2, 185226, Note_on_c, 0, 63, 0
2, 185256, Note_on_c, 0, 91, 0
2, 185285, Note_on_c, 0, 87, 0
2, 185310, Note_on_c, 0, 57, 0
2, 185320, Note_on_c, 0, 62, 0
2, 185341, Note_on_c, 0, 67, 0
2, 185369, Note_on_c, 0, 95, 0
2, 185674, Control_c, 0, 64, 0
2, 185748, Note_on_c, 0, 67, 49
2, 185768, Note_on_c, 0, 57, 37
2, 185774, Note_on_c, 0, 62, 46
2, 185786, Note_on_c, 0, 63, 44
2, 186086, Control_c, 0, 64, 127
2, 186708, Note_on_c, 0, 67, 0
2, 186744, Note_on_c, 0, 57, 0
2, 186744, Note_on_c, 0, 62, 0
2, 186754, Note_on_c, 0, 63, 0
2, 188167, Note_on_c, 0, 65, 38
2, 188183, Note_on_c, 0, 62, 40
2, 188229, Note_on_c, 0, 55, 26
2, 188236, Note_on_c, 0, 60, 37
2, 188239, Control_c, 0, 64, 0
2, 189166, Control_c, 0, 64, 127
2, 189217, Control_c, 0, 64, 0
2, 189601, Note_on_c, 0, 98, 64
2, 189616, Note_on_c, 0, 91, 65
2, 189893, Note_on_c, 0, 98, 0
2, 189916, Note_on_c, 0, 91, 0
2, 190087, Control_c, 0, 64, 127
2, 190108, Note_on_c, 0, 94, 46
2, 190213, Note_on_c, 0, 86, 31
2, 190241, Control_c, 0, 64, 0
2, 190333, Note_on_c, 0, 60, 0
2, 190338, Note_on_c, 0, 65, 0
2, 190341, Note_on_c, 0, 62, 0
2, 190458, Note_on_c, 0, 86, 0
2, 190481, Note_on_c, 0, 55, 0
2, 190497, Note_on_c, 0, 94, 0
2, 190983, Control_c, 0, 64, 127
2, 190986, Note_on_c, 0, 65, 24
2, 191096, Note_on_c, 0, 65, 0
2, 191111, Control_c, 0, 64, 0
2, 191941, Note_on_c, 0, 60, 27
2, 191966, Note_on_c, 0, 57, 34
2, 192010, Control_c, 0, 64, 127
2, 192025, Note_on_c, 0, 50, 22
2, 192028, Note_on_c, 0, 53, 24
2, 192171, Control_c, 0, 64, 0
2, 192199, Note_on_c, 0, 60, 0
2, 192204, Note_on_c, 0, 53, 0
2, 192222, Note_on_c, 0, 57, 0
2, 192263, Note_on_c, 0, 50, 0
2, 192888, Control_c, 0, 64, 127
2, 192908, Note_on_c, 0, 96, 74
2, 192916, Note_on_c, 0, 89, 74
2, 193016, Control_c, 0, 64, 0
2, 193172, Note_on_c, 0, 89, 0
2, 193236, Note_on_c, 0, 96, 0
2, 193479, Note_on_c, 0, 93, 59
2, 193500, Note_on_c, 0, 84, 48
2, 193617, Note_on_c, 0, 93, 0
2, 193633, Note_on_c, 0, 84, 0
2, 193738, Control_c, 0, 64, 127
2, 193943, Control_c, 0, 64, 0
2, 194383, Note_on_c, 0, 86, 60
2, 194432, Note_on_c, 0, 93, 32
2, 194670, Note_on_c, 0, 93, 0
2, 194718, Note_on_c, 0, 86, 0
2, 195384, Note_on_c, 0, 81, 49
2, 195509, Note_on_c, 0, 81, 0
2, 195737, Control_c, 0, 64, 127
2, 195829, Note_on_c, 0, 62, 35
2, 195850, Note_on_c, 0, 91, 56
2, 195868, Note_on_c, 0, 57, 28
2, 195870, Note_on_c, 0, 79, 41
2, 195886, Note_on_c, 0, 52, 29
2, 195888, Note_on_c, 0, 58, 38
2, 195909, Note_on_c, 0, 86, 38
2, 195916, Control_c, 0, 64, 0
2, 196042, Note_on_c, 0, 52, 0
2, 196047, Note_on_c, 0, 86, 0
2, 196057, Note_on_c, 0, 79, 0
2, 196062, Note_on_c, 0, 62, 0
2, 196073, Note_on_c, 0, 57, 0
2, 196103, Note_on_c, 0, 91, 0
2, 196111, Note_on_c, 0, 58, 0
2, 196715, Control_c, 0, 64, 127
2, 196761, Note_on_c, 0, 62, 43
2, 196787, Note_on_c, 0, 91, 62
2, 196800, Note_on_c, 0, 86, 59
2, 196802, Note_on_c, 0, 52, 33
2, 196805, Note_on_c, 0, 79, 50
2, 196807, Note_on_c, 0, 58, 37
2, 196823, Note_on_c, 0, 57, 28
2, 197117, Note_on_c, 0, 79, 0
2, 197153, Note_on_c, 0, 91, 0
2, 197209, Note_on_c, 0, 52, 0
2, 197212, Note_on_c, 0, 86, 0
2, 197214, Note_on_c, 0, 62, 0
2, 197219, Note_on_c, 0, 57, 0
2, 197237, Note_on_c, 0, 58, 0
2, 197388, Control_c, 0, 64, 0
2, 197391, Note_on_c, 0, 93, 64
2, 197406, Note_on_c, 0, 81, 50
2, 197409, Note_on_c, 0, 86, 45
2, 197435, Note_on_c, 0, 62, 45
2, 197458, Note_on_c, 0, 58, 46
2, 197468, Note_on_c, 0, 57, 38
2, 197478, Note_on_c, 0, 52, 24
2, 197516, Control_c, 0, 64, 127
2, 197708, Note_on_c, 0, 62, 0
2, 197719, Note_on_c, 0, 93, 0
2, 197721, Control_c, 0, 64, 0
2, 197724, Note_on_c, 0, 52, 0
2, 197765, Note_on_c, 0, 57, 0
2, 197770, Note_on_c, 0, 81, 0
2, 197775, Note_on_c, 0, 58, 0
2, 197803, Note_on_c, 0, 86, 0
2, 198069, Note_on_c, 0, 91, 59
2, 198090, Note_on_c, 0, 62, 45
2, 198105, Note_on_c, 0, 86, 44
2, 198121, Note_on_c, 0, 58, 40
2, 198146, Note_on_c, 0, 57, 32
2, 198151, Note_on_c, 0, 52, 30
2, 198169, Note_on_c, 0, 79, 26
2, 198238, Control_c, 0, 64, 127
2, 198284, Control_c, 0, 64, 0
2, 198343, Note_on_c, 0, 62, 0
2, 198359, Note_on_c, 0, 79, 0
2, 198371, Note_on_c, 0, 52, 0
2, 198405, Note_on_c, 0, 86, 0
2, 198407, Note_on_c, 0, 57, 0
2, 198428, Note_on_c, 0, 58, 0
2, 198430, Note_on_c, 0, 91, 0
2, 198674, Control_c, 0, 64, 127
2, 198750, Note_on_c, 0, 62, 46
2, 198755, Note_on_c, 0, 91, 43
2, 198781, Note_on_c, 0, 86, 50
2, 198799, Note_on_c, 0, 58, 42
2, 198817, Note_on_c, 0, 57, 26
2, 198827, Note_on_c, 0, 52, 30
2, 198840, Note_on_c, 0, 79, 18
2, 198968, Note_on_c, 0, 57, 0
2, 198981, Note_on_c, 0, 79, 0
2, 199004, Note_on_c, 0, 62, 0
2, 199011, Note_on_c, 0, 91, 0
2, 199014, Note_on_c, 0, 52, 0
2, 199032, Note_on_c, 0, 58, 0
2, 199050, Note_on_c, 0, 86, 0
2, 199406, Note_on_c, 0, 91, 49
2, 199424, Note_on_c, 0, 62, 44
2, 199444, Note_on_c, 0, 86, 50
2, 199449, Note_on_c, 0, 58, 42
2, 199480, Note_on_c, 0, 52, 32
2, 199482, Note_on_c, 0, 57, 30
2, 199495, Note_on_c, 0, 79, 22
2, 199569, Control_c, 0, 64, 0
2, 200212, Control_c, 0, 64, 127
2, 200486, Note_on_c, 0, 62, 0
2, 200537, Note_on_c, 0, 79, 0
2, 200568, Note_on_c, 0, 86, 0
2, 200583, Note_on_c, 0, 57, 0
2, 200594, Note_on_c, 0, 91, 0
2, 200622, Note_on_c, 0, 52, 0
2, 200642, Note_on_c, 0, 58, 0
2, 200701, Control_c, 0, 64, 0
2, 201016, Note_on_c, 0, 91, 52
2, 201036, Note_on_c, 0, 86, 57
2, 201039, Note_on_c, 0, 62, 47
2, 201044, Note_on_c, 0, 58, 45
2, 201052, Control_c, 0, 64, 127
2, 201057, Note_on_c, 0, 52, 37
2, 201080, Note_on_c, 0, 57, 36
2, 201100, Note_on_c, 0, 79, 26
2, 201423, Note_on_c, 0, 91, 0
2, 201530, Note_on_c, 0, 86, 0
2, 201664, Note_on_c, 0, 52, 0
2, 201671, Note_on_c, 0, 79, 0
2, 201804, Note_on_c, 0, 62, 0
2, 201891, Note_on_c, 0, 57, 0
2, 201902, Note_on_c, 0, 58, 0
2, 202058, Note_on_c, 0, 62, 55
2, 202089, Note_on_c, 0, 52, 38
2, 202101, Note_on_c, 0, 58, 36
2, 202147, Note_on_c, 0, 57, 17
2, 202247, Note_on_c, 0, 52, 0
2, 202275, Note_on_c, 0, 57, 0
2, 202406, Note_on_c, 0, 58, 0
2, 202411, Note_on_c, 0, 62, 0
2, 203394, Note_on_c, 0, 77, 81
2, 203397, Note_on_c, 0, 72, 87
2, 203399, Note_on_c, 0, 81, 80
2, 203417, Note_on_c, 0, 63, 74
2, 203443, Control_c, 0, 64, 0
2, 204477, Note_on_c, 0, 77, 0
2, 204521, Control_c, 0, 64, 127
2, 204541, Note_on_c, 0, 81, 0
2, 204789, Note_on_c, 0, 72, 0
2, 204904, Control_c, 0, 64, 0
2, 205317, Control_c, 0, 64, 127
2, 205360, Note_on_c, 0, 77, 63
2, 205376, Note_on_c, 0, 72, 64
2, 205396, Note_on_c, 0, 69, 35
2, 205573, Note_on_c, 0, 69, 0
2, 205606, Note_on_c, 0, 72, 0
2, 205667, Note_on_c, 0, 63, 0
2, 205895, Note_on_c, 0, 72, 47
2, 205908, Note_on_c, 0, 63, 36
2, 206133, Note_on_c, 0, 77, 0
2, 206205, Note_on_c, 0, 63, 0
2, 206225, Note_on_c, 0, 72, 0
2, 206305, Note_on_c, 0, 69, 34
2, 206451, Note_on_c, 0, 69, 0
2, 206702, Control_c, 0, 64, 0
2, 206848, Note_on_c, 0, 76, 44
2, 206888, Note_on_c, 0, 64, 39
2, 206894, Note_on_c, 0, 65, 39
2, 206896, Note_on_c, 0, 69, 46
2, 207280, Note_on_c, 0, 76, 0
2, 207360, Note_on_c, 0, 69, 0
2, 207441, Note_on_c, 0, 65, 0
2, 207703, Note_on_c, 0, 64, 0
2, 207759, Note_on_c, 0, 75, 53
2, 207797, Note_on_c, 0, 63, 40
2, 207856, Note_on_c, 0, 69, 37
2, 207866, Note_on_c, 0, 65, 35
2, 208110, Note_on_c, 0, 63, 0
2, 208174, Note_on_c, 0, 75, 0
2, 208176, Note_on_c, 0, 69, 0
2, 208245, Control_c, 0, 64, 127
2, 208271, Note_on_c, 0, 62, 36
2, 208430, Note_on_c, 0, 65, 0
2, 208522, Note_on_c, 0, 62, 0
2, 208919, Note_on_c, 0, 52, 38
2, 209164, Control_c, 0, 64, 0
2, 209169, Note_on_c, 0, 52, 0
2, 209308, Note_on_c, 0, 55, 51
2, 209326, Note_on_c, 0, 65, 55
2, 209425, Note_on_c, 0, 58, 30
2, 209505, Note_on_c, 0, 62, 19
2, 209725, Note_on_c, 0, 65, 0
2, 209766, Note_on_c, 0, 55, 0
2, 209804, Note_on_c, 0, 62, 0
2, 209858, Note_on_c, 0, 58, 0
2, 209960, Note_on_c, 0, 53, 48
2, 209991, Note_on_c, 0, 58, 23
2, 210106, Note_on_c, 0, 58, 0
2, 210112, Note_on_c, 0, 67, 24
2, 210232, Note_on_c, 0, 67, 0
2, 210237, Note_on_c, 0, 53, 0
2, 210270, Control_c, 0, 64, 127
2, 210401, Control_c, 0, 64, 0
2, 210657, Note_on_c, 0, 55, 44
2, 210716, Note_on_c, 0, 69, 33
2, 210734, Control_c, 0, 64, 127
2, 210849, Note_on_c, 0, 69, 0
2, 210862, Note_on_c, 0, 55, 0
2, 211092, Control_c, 0, 64, 0
2, 211325, Note_on_c, 0, 74, 68
2, 211366, Note_on_c, 0, 45, 49
2, 212024, Note_on_c, 0, 60, 26
2, 212065, Control_c, 0, 64, 127
2, 212085, Note_on_c, 0, 55, 28
2, 212096, Note_on_c, 0, 45, 0
2, 212236, Note_on_c, 0, 55, 0
2, 212272, Note_on_c, 0, 74, 0
2, 212426, Note_on_c, 0, 60, 0
2, 212648, Note_on_c, 0, 67, 55
2, 213207, Note_on_c, 0, 64, 47
2, 213232, Note_on_c, 0, 60, 40
2, 213268, Note_on_c, 0, 67, 0
2, 213271, Note_on_c, 0, 55, 30
2, 213273, Note_on_c, 0, 74, 65
2, 213655, Note_on_c, 0, 74, 0
2, 213893, Note_on_c, 0, 74, 61
2, 214092, Note_on_c, 0, 55, 0
2, 214269, Note_on_c, 0, 64, 0
2, 214287, Note_on_c, 0, 74, 0
2, 214318, Note_on_c, 0, 60, 0
2, 214487, Note_on_c, 0, 72, 60
2, 214535, Note_on_c, 0, 55, 28
2, 214568, Note_on_c, 0, 60, 17
2, 214702, Note_on_c, 0, 55, 0
2, 214743, Note_on_c, 0, 60, 0
2, 214760, Note_on_c, 0, 72, 0
2, 214937, Control_c, 0, 64, 0
2, 215022, Note_on_c, 0, 75, 64
2, 215050, Note_on_c, 0, 72, 59
2, 215078, Note_on_c, 0, 60, 28
2, 215106, Note_on_c, 0, 65, 51
2, 215111, Note_on_c, 0, 54, 50
2, 215810, Control_c, 0, 64, 127
2, 216171, Note_on_c, 0, 65, 0
2, 216332, Note_on_c, 0, 60, 0
2, 216345, Note_on_c, 0, 54, 0
2, 216348, Note_on_c, 0, 72, 0
2, 216350, Control_c, 0, 64, 0
2, 216404, Note_on_c, 0, 75, 0
2, 216432, Note_on_c, 0, 70, 58
2, 216494, Note_on_c, 0, 74, 55
2, 216522, Note_on_c, 0, 64, 38
2, 216555, Note_on_c, 0, 54, 31
2, 216624, Note_on_c, 0, 60, 17
2, 216788, Control_c, 0, 64, 127
2, 217226, Note_on_c, 0, 64, 0
2, 217364, Note_on_c, 0, 60, 0
2, 217518, Note_on_c, 0, 54, 0
2, 217615, Note_on_c, 0, 70, 0
2, 217794, Note_on_c, 0, 74, 0
2, 217871, Note_on_c, 0, 72, 46
2, 217904, Note_on_c, 0, 69, 33
2, 218188, Note_on_c, 0, 72, 0
2, 218298, Note_on_c, 0, 69, 0
2, 218713, Control_c, 0, 64, 0
2, 218792, Note_on_c, 0, 68, 37
2, 218805, Note_on_c, 0, 65, 41
2, 219392, Note_on_c, 0, 44, 51
2, 219507, Control_c, 0, 64, 127
2, 219599, Note_on_c, 0, 44, 0
2, 219671, Note_on_c, 0, 65, 0
2, 219865, Note_on_c, 0, 68, 0
2, 220684, Control_c, 0, 64, 0
2, 220746, Note_on_c, 0, 60, 49
2, 220748, Note_on_c, 0, 65, 58
2, 220759, Note_on_c, 0, 54, 53
2, 221365, Note_on_c, 0, 74, 94
2, 221575, Note_on_c, 0, 74, 0
2, 221875, Note_on_c, 0, 77, 79
2, 222174, Note_on_c, 0, 77, 0
2, 222246, Note_on_c, 0, 60, 0
2, 222282, Note_on_c, 0, 65, 0
2, 222356, Control_c, 0, 64, 127
2, 222364, Note_on_c, 0, 76, 71
2, 222609, Control_c, 0, 64, 0
2, 222612, Note_on_c, 0, 54, 0
2, 222786, Note_on_c, 0, 76, 0
2, 222868, Note_on_c, 0, 64, 37
2, 222901, Note_on_c, 0, 53, 31
2, 222960, Note_on_c, 0, 59, 40
2, 222991, Note_on_c, 0, 75, 64
2, 223687, Control_c, 0, 64, 127
2, 223856, Note_on_c, 0, 53, 0
2, 223864, Note_on_c, 0, 59, 0
2, 223902, Note_on_c, 0, 64, 0
2, 224074, Control_c, 0, 64, 0
2, 224227, Note_on_c, 0, 64, 35
2, 224304, Note_on_c, 0, 59, 30
2, 224450, Note_on_c, 0, 59, 0
2, 224494, Note_on_c, 0, 64, 0
2, 224535, Control_c, 0, 64, 127
2, 225187, Note_on_c, 0, 64, 53
2, 225249, Note_on_c, 0, 59, 35
2, 225277, Note_on_c, 0, 75, 0
2, 225280, Note_on_c, 0, 74, 66
2, 225305, Control_c, 0, 64, 0
2, 225395, Note_on_c, 0, 59, 0
2, 225459, Note_on_c, 0, 64, 0
2, 226181, Note_on_c, 0, 73, 43
2, 226188, Note_on_c, 0, 74, 0
2, 226411, Note_on_c, 0, 73, 0
2, 226588, Note_on_c, 0, 62, 31
2, 226590, Note_on_c, 0, 74, 54
2, 226677, Note_on_c, 0, 58, 19
2, 226828, Note_on_c, 0, 62, 0
2, 226869, Note_on_c, 0, 58, 0
2, 227192, Note_on_c, 0, 74, 0
2, 227955, Note_on_c, 0, 72, 44
2, 228057, Note_on_c, 0, 62, 32
2, 228126, Note_on_c, 0, 58, 23
2, 228277, Note_on_c, 0, 62, 0
2, 228334, Note_on_c, 0, 58, 0
2, 228359, Note_on_c, 0, 72, 0
2, 228436, Note_on_c, 0, 71, 39
2, 228441, Control_c, 0, 64, 127
2, 228643, Control_c, 0, 64, 0
2, 228866, Note_on_c, 0, 71, 0
2, 229025, Note_on_c, 0, 72, 49
2, 229120, Note_on_c, 0, 72, 0
2, 229903, Note_on_c, 0, 79, 54
2, 230141, Note_on_c, 0, 79, 0
2, 230210, Control_c, 0, 64, 127
2, 230469, Control_c, 0, 64, 0
2, 230883, Note_on_c, 0, 62, 50
2, 230901, Note_on_c, 0, 58, 43
2, 230988, Note_on_c, 0, 62, 0
2, 231034, Note_on_c, 0, 58, 0
2, 232233, Note_on_c, 0, 58, 29
2, 232261, Control_c, 0, 64, 127
2, 232404, Note_on_c, 0, 58, 0
2, 233218, Note_on_c, 0, 63, 62
2, 233231, Note_on_c, 0, 58, 57
2, 233259, Control_c, 0, 64, 0
2, 233287, Note_on_c, 0, 52, 35
2, 233469, Note_on_c, 0, 52, 0
2, 233505, Note_on_c, 0, 63, 0
2, 233576, Note_on_c, 0, 58, 0
2, 234186, Control_c, 0, 64, 127
2, 234716, Note_on_c, 0, 63, 53
2, 234736, Note_on_c, 0, 58, 49
2, 234749, Note_on_c, 0, 84, 58
2, 234764, Note_on_c, 0, 52, 37
2, 234805, Note_on_c, 0, 72, 30
2, 234892, Note_on_c, 0, 52, 0
2, 234905, Control_c, 0, 64, 0
2, 234926, Note_on_c, 0, 63, 0
2, 234936, Note_on_c, 0, 72, 0
2, 234959, Note_on_c, 0, 58, 0
2, 235036, Note_on_c, 0, 84, 0
2, 235571, Note_on_c, 0, 75, 74
2, 235576, Note_on_c, 0, 87, 74
2, 235601, Note_on_c, 0, 63, 71
2, 235627, Note_on_c, 0, 58, 59
2, 235632, Note_on_c, 0, 52, 56
2, 235842, Note_on_c, 0, 63, 0
2, 235898, Note_on_c, 0, 52, 0
2, 235955, Note_on_c, 0, 58, 0
2, 236042, Note_on_c, 0, 87, 0
2, 236050, Note_on_c, 0, 75, 0
2, 236600, Note_on_c, 0, 86, 66
2, 236631, Note_on_c, 0, 63, 71
2, 236643, Note_on_c, 0, 74, 63
2, 236651, Note_on_c, 0, 58, 62
2, 236666, Note_on_c, 0, 52, 57
2, 236759, Note_on_c, 0, 52, 0
2, 236823, Note_on_c, 0, 63, 0
2, 236825, Note_on_c, 0, 74, 0
2, 236846, Note_on_c, 0, 58, 0
2, 236871, Note_on_c, 0, 86, 0
2, 237542, Note_on_c, 0, 63, 51
2, 237557, Note_on_c, 0, 58, 49
2, 237637, Note_on_c, 0, 63, 0
2, 237662, Note_on_c, 0, 58, 0
2, 237964, Note_on_c, 0, 85, 69
2, 238000, Note_on_c, 0, 73, 53
2, 238046, Note_on_c, 0, 51, 59
2, 238051, Note_on_c, 0, 62, 64
2, 238090, Note_on_c, 0, 57, 49
2, 238960, Control_c, 0, 64, 127
2, 239022, Note_on_c, 0, 57, 0
2, 239096, Note_on_c, 0, 51, 0
2, 239203, Note_on_c, 0, 62, 0
2, 239639, Note_on_c, 0, 73, 0
2, 239692, Note_on_c, 0, 85, 0
2, 239918, Note_on_c, 0, 84, 66
2, 239938, Note_on_c, 0, 72, 49
2, 239987, Control_c, 0, 64, 0
2, 240680, Control_c, 0, 64, 127
2, 240924, Note_on_c, 0, 72, 0
2, 241190, Note_on_c, 0, 84, 0
2, 241346, Note_on_c, 0, 81, 64
2, 241441, Note_on_c, 0, 65, 25
2, 241523, Control_c, 0, 64, 0
2, 241561, Note_on_c, 0, 60, 15
2, 241574, Note_on_c, 0, 81, 0
2, 241776, Note_on_c, 0, 82, 51
2, 241802, Note_on_c, 0, 62, 1
2, 242032, Note_on_c, 0, 65, 0
2, 242035, Note_on_c, 0, 82, 0
2, 242311, Note_on_c, 0, 84, 70
2, 242585, Note_on_c, 0, 84, 0
2, 242790, Note_on_c, 0, 81, 50
2, 242805, Note_on_c, 0, 53, 35
2, 242833, Control_c, 0, 64, 127
2, 243061, Note_on_c, 0, 81, 0
2, 243189, Control_c, 0, 64, 0
2, 243491, Note_on_c, 0, 62, 0
2, 243545, Note_on_c, 0, 60, 0
2, 243729, Control_c, 0, 64, 127
2, 243758, Note_on_c, 0, 62, 29
2, 243788, Note_on_c, 0, 77, 40
2, 243791, Note_on_c, 0, 65, 40
2, 243811, Control_c, 0, 64, 0
2, 244139, Note_on_c, 0, 77, 0
2, 244492, Note_on_c, 0, 65, 0
2, 244515, Note_on_c, 0, 62, 0
2, 244707, Control_c, 0, 64, 127
2, 244730, Note_on_c, 0, 74, 51
2, 245061, Note_on_c, 0, 74, 0
2, 245580, Control_c, 0, 64, 0
2, 245698, Note_on_c, 0, 63, 42
2, 245716, Note_on_c, 0, 65, 36
2, 245719, Note_on_c, 0, 58, 42
2, 245726, Note_on_c, 0, 70, 49
2, 246556, Control_c, 0, 64, 127
2, 246932, Note_on_c, 0, 65, 0
2, 247114, Note_on_c, 0, 63, 0
2, 247226, Note_on_c, 0, 69, 29
2, 247239, Note_on_c, 0, 70, 0
2, 247349, Control_c, 0, 64, 0
2, 247449, Note_on_c, 0, 69, 0
2, 247485, Note_on_c, 0, 63, 25
2, 247488, Note_on_c, 0, 65, 29
2, 247672, Note_on_c, 0, 70, 46
2, 248028, Note_on_c, 0, 70, 0
2, 248202, Note_on_c, 0, 72, 55
2, 248343, Note_on_c, 0, 58, 0
2, 248545, Note_on_c, 0, 72, 0
2, 248565, Note_on_c, 0, 63, 0
2, 248568, Note_on_c, 0, 65, 0
2, 248668, Note_on_c, 0, 69, 54
2, 249154, Note_on_c, 0, 69, 0
2, 249208, Note_on_c, 0, 65, 47
2, 249328, Note_on_c, 0, 62, 32
2, 249344, Note_on_c, 0, 60, 29
2, 249469, Note_on_c, 0, 65, 0
2, 249720, Note_on_c, 0, 65, 31
2, 250260, Note_on_c, 0, 65, 0
2, 250583, Note_on_c, 0, 65, 47
2, 251535, Control_c, 0, 64, 127
2, 251660, Note_on_c, 0, 62, 0
2, 251709, Note_on_c, 0, 60, 0
2, 252083, Note_on_c, 0, 62, 41
2, 252198, Control_c, 0, 64, 0
2, 252213, Note_on_c, 0, 62, 0
2, 252282, Note_on_c, 0, 65, 0
2, 252881, Note_on_c, 0, 68, 69
2, 252943, Note_on_c, 0, 65, 33
2, 252945, Note_on_c, 0, 69, 61
2, 252958, Note_on_c, 0, 62, 41
2, 253091, Note_on_c, 0, 68, 0
2, 253132, Note_on_c, 0, 65, 0
2, 253360, Note_on_c, 0, 62, 0
2, 253427, Note_on_c, 0, 69, 0
2, 253555, Note_on_c, 0, 65, 61
2, 253849, Note_on_c, 0, 65, 0
2, 254220, Note_on_c, 0, 62, 31
2, 254243, Note_on_c, 0, 65, 59
2, 254254, Control_c, 0, 64, 127
2, 254458, Control_c, 0, 64, 0
2, 254517, Note_on_c, 0, 62, 0
2, 254525, Note_on_c, 0, 65, 0
2, 254909, Note_on_c, 0, 68, 47
2, 254922, Note_on_c, 0, 69, 67
2, 254935, Note_on_c, 0, 62, 35
2, 255111, Note_on_c, 0, 68, 0
2, 255288, Note_on_c, 0, 62, 0
2, 255575, Note_on_c, 0, 69, 0
2, 255726, Note_on_c, 0, 65, 62
2, 255825, Note_on_c, 0, 62, 24
2, 255874, Note_on_c, 0, 60, 24
2, 255982, Note_on_c, 0, 65, 0
2, 256079, Note_on_c, 0, 62, 0
2, 256133, Note_on_c, 0, 53, 0
2, 256299, Note_on_c, 0, 60, 0
2, 256468, Note_on_c, 0, 65, 63
2, 256588, Control_c, 0, 64, 127
2, 256698, Note_on_c, 0, 65, 0
2, 256972, Control_c, 0, 64, 0
2, 257136, Note_on_c, 0, 68, 50
2, 257154, Note_on_c, 0, 65, 41
2, 257167, Note_on_c, 0, 61, 36
2, 257223, Note_on_c, 0, 55, 27
2, 257228, Note_on_c, 0, 69, 54
2, 257361, Note_on_c, 0, 68, 0
2, 257682, Note_on_c, 0, 65, 0
2, 257838, Note_on_c, 0, 69, 0
2, 257953, Note_on_c, 0, 65, 42
2, 258181, Note_on_c, 0, 65, 0
2, 258301, Note_on_c, 0, 55, 0
2, 258309, Note_on_c, 0, 61, 0
2, 258826, Note_on_c, 0, 65, 46
2, 258874, Note_on_c, 0, 61, 31
2, 258936, Note_on_c, 0, 55, 24
2, 259233, Control_c, 0, 64, 127
2, 259361, Control_c, 0, 64, 0
2, 259491, Control_c, 0, 64, 127
2, 259753, Note_on_c, 0, 65, 0
2, 259840, Note_on_c, 0, 69, 49
2, 259901, Control_c, 0, 64, 0
2, 260096, Note_on_c, 0, 69, 0
2, 260106, Note_on_c, 0, 55, 0
2, 260170, Note_on_c, 0, 61, 0
2, 260316, Note_on_c, 0, 65, 32
2, 260738, Note_on_c, 0, 65, 0
2, 261201, Note_on_c, 0, 61, 36
2, 261481, Note_on_c, 0, 61, 0
2, 262162, Control_c, 0, 64, 127
2, 262389, Control_c, 0, 64, 0
2, 262592, Note_on_c, 0, 61, 40
2, 262620, Note_on_c, 0, 65, 34
2, 262648, Note_on_c, 0, 55, 26
2, 262755, Note_on_c, 0, 65, 0
2, 262796, Note_on_c, 0, 55, 0
2, 262835, Note_on_c, 0, 61, 0
2, 262978, Control_c, 0, 64, 127
2, 263106, Control_c, 0, 64, 0
2, 263536, Note_on_c, 0, 65, 40
2, 263547, Note_on_c, 0, 55, 34
2, 263552, Note_on_c, 0, 61, 35
2, 263703, Note_on_c, 0, 65, 0
2, 263764, Note_on_c, 0, 55, 0
2, 263790, Note_on_c, 0, 61, 0
2, 263851, Control_c, 0, 64, 127
2, 264253, Note_on_c, 0, 61, 38
2, 264512, Note_on_c, 0, 61, 0
2, 264850, Control_c, 0, 64, 0
2, 264893, Note_on_c, 0, 92, 82
2, 264919, Note_on_c, 0, 63, 59
2, 265466, Note_on_c, 0, 63, 0
2, 265482, Note_on_c, 0, 80, 25
2, 265587, Note_on_c, 0, 92, 0
2, 265607, Note_on_c, 0, 80, 0
2, 265786, Note_on_c, 0, 85, 35
2, 266076, Note_on_c, 0, 85, 0
2, 266339, Note_on_c, 0, 63, 54
2, 266380, Note_on_c, 0, 92, 51
2, 266408, Note_on_c, 0, 80, 52
2, 266411, Note_on_c, 0, 85, 50
2, 266457, Note_on_c, 0, 89, 40
2, 266759, Note_on_c, 0, 80, 0
2, 266762, Note_on_c, 0, 89, 0
2, 266818, Note_on_c, 0, 85, 0
2, 266890, Note_on_c, 0, 92, 0
2, 266926, Note_on_c, 0, 63, 0
2, 267279, Note_on_c, 0, 63, 57
2, 267346, Note_on_c, 0, 87, 53
2, 267348, Note_on_c, 0, 91, 62
2, 267361, Note_on_c, 0, 79, 54
2, 267389, Note_on_c, 0, 55, 36
2, 267732, Control_c, 0, 64, 127
2, 267758, Note_on_c, 0, 87, 0
2, 268198, Note_on_c, 0, 91, 0
2, 268267, Note_on_c, 0, 79, 0
2, 268398, Note_on_c, 0, 58, 34
2, 268400, Note_on_c, 0, 63, 0
2, 268426, Note_on_c, 0, 55, 0
2, 268428, Note_on_c, 0, 87, 23
2, 268520, Note_on_c, 0, 58, 0
2, 268584, Note_on_c, 0, 87, 0
2, 268707, Control_c, 0, 64, 0
2, 268792, Note_on_c, 0, 63, 67
2, 268812, Note_on_c, 0, 90, 75
2, 268830, Note_on_c, 0, 54, 56
2, 268846, Note_on_c, 0, 78, 72
2, 269030, Note_on_c, 0, 78, 0
2, 269317, Note_on_c, 0, 78, 43
2, 269519, Note_on_c, 0, 90, 0
2, 269527, Note_on_c, 0, 78, 0
2, 269616, Note_on_c, 0, 63, 0
2, 269734, Control_c, 0, 64, 127
2, 269923, Note_on_c, 0, 54, 0
2, 270044, Control_c, 0, 64, 0
2, 270277, Note_on_c, 0, 53, 52
2, 270279, Note_on_c, 0, 77, 66
2, 270292, Note_on_c, 0, 59, 35
2, 270295, Note_on_c, 0, 63, 56
2, 270297, Note_on_c, 0, 89, 67
2, 270305, Note_on_c, 0, 83, 57
2, 270604, Control_c, 0, 64, 127
2, 270799, Note_on_c, 0, 83, 0
2, 270891, Note_on_c, 0, 59, 0
2, 271157, Note_on_c, 0, 77, 0
2, 271244, Note_on_c, 0, 59, 36
2, 271272, Note_on_c, 0, 63, 0
2, 271329, Note_on_c, 0, 89, 0
2, 271518, Note_on_c, 0, 53, 0
2, 271523, Note_on_c, 0, 59, 0
2, 271656, Note_on_c, 0, 83, 35
2, 271989, Note_on_c, 0, 83, 0
2, 272225, Control_c, 0, 64, 0
2, 272273, Note_on_c, 0, 61, 60
2, 272294, Note_on_c, 0, 89, 66
2, 272299, Note_on_c, 0, 77, 67
2, 272307, Note_on_c, 0, 82, 58
2, 272330, Note_on_c, 0, 58, 50
2, 272335, Note_on_c, 0, 85, 50
2, 272348, Note_on_c, 0, 51, 32
2, 272350, Note_on_c, 0, 56, 44
2, 272760, Control_c, 0, 64, 127
2, 273359, Note_on_c, 0, 89, 0
2, 273415, Note_on_c, 0, 77, 0
2, 273454, Control_c, 0, 64, 0
2, 273525, Note_on_c, 0, 61, 0
2, 273528, Note_on_c, 0, 58, 0
2, 273530, Note_on_c, 0, 85, 0
2, 273559, Note_on_c, 0, 56, 0
2, 273676, Note_on_c, 0, 76, 48
2, 273694, Note_on_c, 0, 88, 38
2, 273710, Note_on_c, 0, 61, 25
2, 273792, Note_on_c, 0, 85, 25
2, 273804, Note_on_c, 0, 56, 18
2, 274053, Note_on_c, 0, 88, 0
2, 274081, Note_on_c, 0, 76, 0
2, 274114, Note_on_c, 0, 61, 0
2, 274129, Note_on_c, 0, 56, 0
2, 274201, Note_on_c, 0, 85, 0
2, 274206, Note_on_c, 0, 82, 0
2, 274211, Note_on_c, 0, 51, 0
2, 274562, Note_on_c, 0, 61, 35
2, 274644, Note_on_c, 0, 51, 23
2, 274675, Note_on_c, 0, 87, 37
2, 274680, Note_on_c, 0, 58, 28
2, 274700, Note_on_c, 0, 75, 29
2, 274754, Note_on_c, 0, 82, 33
2, 274872, Note_on_c, 0, 61, 0
2, 274885, Note_on_c, 0, 58, 0
2, 274890, Note_on_c, 0, 51, 0
2, 274913, Note_on_c, 0, 75, 0
2, 274987, Note_on_c, 0, 87, 0
2, 275010, Note_on_c, 0, 82, 0
2, 276584, Control_c, 0, 64, 127
2, 276815, Control_c, 0, 64, 0
2, 277483, Control_c, 0, 64, 127
2, 277637, Control_c, 0, 64, 0
2, 278960, Note_on_c, 0, 61, 52
2, 278968, Note_on_c, 0, 58, 57
2, 279050, Note_on_c, 0, 61, 0
2, 279080, Note_on_c, 0, 58, 0
2, 279910, Note_on_c, 0, 48, 55
2, 280074, Note_on_c, 0, 48, 0
2, 280381, Note_on_c, 0, 49, 31
2, 280742, Note_on_c, 0, 49, 0
2, 280824, Note_on_c, 0, 51, 62
2, 280878, Note_on_c, 0, 36, 42
2, 281000, Note_on_c, 0, 36, 0
2, 281144, Note_on_c, 0, 51, 0
2, 281233, Note_on_c, 0, 53, 50
2, 281582, Note_on_c, 0, 53, 0
2, 281712, Note_on_c, 0, 54, 72
2, 281986, Note_on_c, 0, 54, 0
2, 282176, Note_on_c, 0, 56, 77
2, 282575, Note_on_c, 0, 56, 0
2, 282695, Note_on_c, 0, 58, 72
2, 283212, Note_on_c, 0, 53, 31
2, 283220, Note_on_c, 0, 58, 0
2, 283502, Note_on_c, 0, 53, 0
2, 283671, Note_on_c, 0, 54, 58
2, 283752, Note_on_c, 0, 41, 40
2, 283765, Note_on_c, 0, 51, 31
2, 283870, Note_on_c, 0, 51, 0
2, 283883, Note_on_c, 0, 41, 0
2, 284034, Note_on_c, 0, 54, 0
2, 284193, Note_on_c, 0, 56, 33
2, 284556, Note_on_c, 0, 56, 0
2, 284659, Note_on_c, 0, 57, 48
2, 284899, Note_on_c, 0, 57, 0
2, 285153, Note_on_c, 0, 58, 31
2, 285368, Note_on_c, 0, 58, 0
2, 285632, Note_on_c, 0, 51, 33
2, 285657, Note_on_c, 0, 41, 31
2, 285813, Note_on_c, 0, 51, 0
2, 285816, Note_on_c, 0, 41, 0
2, 286607, Note_on_c, 0, 57, 60
2, 286801, Note_on_c, 0, 57, 0
2, 287055, Note_on_c, 0, 58, 55
2, 287319, Note_on_c, 0, 58, 0
2, 287541, Note_on_c, 0, 60, 99
2, 287854, Note_on_c, 0, 56, 40
2, 287920, Note_on_c, 0, 60, 0
2, 287930, Note_on_c, 0, 46, 34
2, 288020, Note_on_c, 0, 61, 72
2, 288084, Note_on_c, 0, 56, 0
2, 288220, Note_on_c, 0, 46, 0
2, 288401, Note_on_c, 0, 61, 0
2, 288512, Note_on_c, 0, 60, 60
2, 288806, Note_on_c, 0, 60, 0
2, 289018, Note_on_c, 0, 58, 31
2, 289510, Note_on_c, 0, 57, 50
2, 289684, Note_on_c, 0, 58, 0
2, 289702, Note_on_c, 0, 57, 0
2, 289871, Note_on_c, 0, 60, 57
2, 290350, Note_on_c, 0, 60, 0
2, 290496, Note_on_c, 0, 57, 20
2, 290700, Note_on_c, 0, 57, 0
2, 290831, Note_on_c, 0, 58, 56
2, 291537, Note_on_c, 0, 58, 0
2, 292239, Note_on_c, 0, 53, 66
2, 292456, Note_on_c, 0, 53, 0
2, 292666, Note_on_c, 0, 54, 60
2, 292974, Note_on_c, 0, 54, 0
2, 293056, Note_on_c, 0, 56, 79
2, 293386, Note_on_c, 0, 56, 0
2, 293442, Note_on_c, 0, 58, 64
2, 293724, Note_on_c, 0, 58, 0
2, 293926, Note_on_c, 0, 57, 27
2, 293952, Note_on_c, 0, 59, 24
2, 294023, Note_on_c, 0, 57, 0
2, 294080, Note_on_c, 0, 59, 0
2, 294087, Note_on_c, 0, 54, 47
2, 294128, Note_on_c, 0, 44, 30
2, 294179, Note_on_c, 0, 60, 32
2, 294402, Note_on_c, 0, 44, 0
2, 294438, Note_on_c, 0, 54, 0
2, 294453, Note_on_c, 0, 61, 42
2, 294461, Note_on_c, 0, 60, 0
2, 294722, Note_on_c, 0, 61, 0
2, 294840, Note_on_c, 0, 63, 40
2, 295014, Note_on_c, 0, 63, 0
2, 295055, Note_on_c, 0, 64, 29
2, 295160, Note_on_c, 0, 64, 0
2, 295208, Note_on_c, 0, 65, 63
2, 295377, Note_on_c, 0, 42, 31
2, 295549, Note_on_c, 0, 63, 67
2, 295639, Note_on_c, 0, 65, 0
2, 296079, Note_on_c, 0, 42, 0
2, 296112, Note_on_c, 0, 63, 0
2, 296202, Note_on_c, 0, 52, 54
2, 296215, Note_on_c, 0, 61, 38
2, 296320, Note_on_c, 0, 52, 0
2, 296709, Note_on_c, 0, 52, 56
2, 297006, Note_on_c, 0, 52, 0
2, 297287, Note_on_c, 0, 61, 0
2, 297525, Note_on_c, 0, 61, 51
2, 297538, Note_on_c, 0, 58, 57
2, 297960, Note_on_c, 0, 61, 0
2, 297996, Note_on_c, 0, 58, 0
2, 299031, Note_on_c, 0, 41, 53
2, 299317, Note_on_c, 0, 41, 0
2, 300055, Note_on_c, 0, 57, 52
2, 300203, Note_on_c, 0, 57, 0
2, 300551, Note_on_c, 0, 61, 69
2, 300876, Note_on_c, 0, 61, 0
2, 301009, Note_on_c, 0, 65, 63
2, 301094, Note_on_c, 0, 41, 34
2, 301245, Note_on_c, 0, 41, 0
2, 301365, Note_on_c, 0, 65, 0
2, 301478, Note_on_c, 0, 59, 40
2, 301831, Note_on_c, 0, 59, 0
2, 301987, Note_on_c, 0, 63, 57
2, 302243, Note_on_c, 0, 63, 0
2, 302302, Note_on_c, 0, 68, 53
2, 302374, Note_on_c, 0, 67, 70
2, 302428, Note_on_c, 0, 68, 0
2, 302801, Note_on_c, 0, 67, 0
2, 302840, Note_on_c, 0, 46, 45
2, 302976, Note_on_c, 0, 58, 35
2, 303073, Note_on_c, 0, 58, 0
2, 303137, Note_on_c, 0, 46, 0
2, 303518, Note_on_c, 0, 62, 30
2, 303790, Note_on_c, 0, 62, 0
2, 303923, Note_on_c, 0, 69, 60
2, 304181, Note_on_c, 0, 69, 0
2, 304366, Note_on_c, 0, 64, 24
2, 304583, Note_on_c, 0, 64, 0
2, 304908, Note_on_c, 0, 62, 28
2, 304954, Note_on_c, 0, 65, 40
2, 305021, Note_on_c, 0, 62, 0
2, 305436, Note_on_c, 0, 65, 0
2, 305464, Note_on_c, 0, 69, 31
2, 305848, Note_on_c, 0, 69, 0
2, 305876, Note_on_c, 0, 70, 71
2, 306224, Note_on_c, 0, 70, 0
2, 306252, Note_on_c, 0, 71, 63
2, 306618, Note_on_c, 0, 71, 0
2, 306757, Note_on_c, 0, 74, 83
2, 306938, Note_on_c, 0, 62, 46
2, 306941, Note_on_c, 0, 58, 37
2, 307048, Note_on_c, 0, 62, 0
2, 307169, Note_on_c, 0, 58, 0
2, 307189, Note_on_c, 0, 74, 0
2, 307210, Note_on_c, 0, 72, 50
2, 307560, Note_on_c, 0, 72, 0
2, 307719, Note_on_c, 0, 70, 50
2, 307770, Note_on_c, 0, 58, 35
2, 307788, Note_on_c, 0, 62, 28
2, 307819, Note_on_c, 0, 52, 24
2, 307919, Note_on_c, 0, 62, 0
2, 307975, Note_on_c, 0, 52, 0
2, 308034, Note_on_c, 0, 70, 0
2, 308126, Note_on_c, 0, 67, 33
2, 308339, Note_on_c, 0, 58, 0
2, 308561, Note_on_c, 0, 67, 0
2, 308679, Note_on_c, 0, 66, 62
2, 308774, Note_on_c, 0, 62, 46
2, 308810, Note_on_c, 0, 57, 36
2, 308922, Note_on_c, 0, 66, 0
2, 308933, Note_on_c, 0, 62, 0
2, 308935, Note_on_c, 0, 51, 13
2, 308981, Note_on_c, 0, 57, 0
2, 309163, Note_on_c, 0, 65, 44
2, 309570, Note_on_c, 0, 65, 0
2, 309591, Note_on_c, 0, 57, 30
2, 309642, Note_on_c, 0, 63, 49
2, 309724, Note_on_c, 0, 57, 0
2, 309731, Note_on_c, 0, 51, 0
2, 310054, Note_on_c, 0, 63, 0
2, 310622, Note_on_c, 0, 62, 77
2, 310684, Note_on_c, 0, 50, 60
2, 310914, Note_on_c, 0, 62, 0
2, 310929, Note_on_c, 0, 50, 0
2, 311065, Note_on_c, 0, 65, 70
2, 311777, Note_on_c, 0, 65, 0
2, 311979, Note_on_c, 0, 65, 66
2, 312550, Note_on_c, 0, 65, 0
2, 312965, Note_on_c, 0, 62, 30
2, 313016, Note_on_c, 0, 65, 51
2, 313026, Note_on_c, 0, 60, 19
2, 313285, Note_on_c, 0, 62, 0
2, 313326, Note_on_c, 0, 60, 0
2, 313438, Note_on_c, 0, 65, 0
2, 313561, Note_on_c, 0, 67, 40
2, 314107, Note_on_c, 0, 67, 0
2, 314142, Note_on_c, 0, 65, 53
2, 314501, Note_on_c, 0, 55, 24
2, 314514, Note_on_c, 0, 65, 0
2, 314611, Note_on_c, 0, 62, 53
2, 314654, Note_on_c, 0, 55, 0
2, 315097, Note_on_c, 0, 62, 0
2, 315425, Note_on_c, 0, 62, 49
2, 315576, Note_on_c, 0, 62, 0
2, 316403, Note_on_c, 0, 62, 44
2, 316413, Note_on_c, 0, 65, 39
2, 316482, Note_on_c, 0, 60, 25
2, 316562, Control_c, 0, 64, 127
2, 316567, Note_on_c, 0, 65, 0
2, 316595, Note_on_c, 0, 60, 0
2, 316646, Note_on_c, 0, 62, 0
2, 317079, Control_c, 0, 64, 0
2, 317294, Note_on_c, 0, 65, 45
2, 317304, Note_on_c, 0, 62, 44
2, 317337, Note_on_c, 0, 60, 30
2, 317429, Note_on_c, 0, 65, 0
2, 317455, Note_on_c, 0, 62, 0
2, 317478, Note_on_c, 0, 60, 0
2, 317670, Control_c, 0, 64, 127
2, 318243, Note_on_c, 0, 55, 50
2, 318266, Note_on_c, 0, 61, 51
2, 318338, Control_c, 0, 64, 0
2, 318356, Note_on_c, 0, 55, 0
2, 318377, Note_on_c, 0, 61, 0
2, 318645, Note_on_c, 0, 61, 56
2, 318648, Note_on_c, 0, 65, 67
2, 318661, Note_on_c, 0, 55, 57
2, 318663, Note_on_c, 0, 77, 90
2, 319101, Note_on_c, 0, 77, 0
2, 319173, Note_on_c, 0, 55, 0
2, 319224, Note_on_c, 0, 65, 0
2, 319311, Note_on_c, 0, 61, 0
2, 319567, Control_c, 0, 64, 127
2, 319641, Note_on_c, 0, 77, 101
2, 319646, Note_on_c, 0, 65, 64
2, 319657, Note_on_c, 0, 61, 56
2, 319677, Note_on_c, 0, 55, 59
2, 320107, Control_c, 0, 64, 0
2, 320138, Note_on_c, 0, 55, 0
2, 320158, Note_on_c, 0, 77, 0
2, 320238, Note_on_c, 0, 65, 0
2, 320271, Note_on_c, 0, 61, 0
2, 320619, Control_c, 0, 64, 127
2, 320637, Note_on_c, 0, 65, 61
2, 320642, Note_on_c, 0, 61, 57
2, 320655, Note_on_c, 0, 77, 94
2, 320663, Note_on_c, 0, 55, 53
2, 320903, Control_c, 0, 64, 0
2, 321177, Note_on_c, 0, 77, 0
2, 321290, Note_on_c, 0, 79, 55
2, 321338, Control_c, 0, 64, 127
2, 321530, Note_on_c, 0, 55, 0
2, 321666, Note_on_c, 0, 79, 0
2, 321671, Note_on_c, 0, 77, 55
2, 321715, Note_on_c, 0, 65, 0
2, 321756, Note_on_c, 0, 61, 0
2, 321930, Note_on_c, 0, 77, 0
2, 322060, Control_c, 0, 64, 0
2, 322181, Note_on_c, 0, 61, 43
2, 322191, Note_on_c, 0, 65, 47
2, 322222, Note_on_c, 0, 60, 33
2, 322260, Note_on_c, 0, 77, 40
2, 322291, Note_on_c, 0, 55, 25
2, 322403, Note_on_c, 0, 77, 0
2, 322462, Note_on_c, 0, 60, 0
2, 322472, Note_on_c, 0, 55, 0
2, 322485, Note_on_c, 0, 65, 0
2, 322583, Note_on_c, 0, 61, 0
2, 323082, Note_on_c, 0, 73, 33
2, 323105, Note_on_c, 0, 77, 49
2, 323123, Note_on_c, 0, 65, 51
2, 323125, Note_on_c, 0, 61, 42
2, 323161, Note_on_c, 0, 60, 32
2, 323371, Note_on_c, 0, 73, 0
2, 323392, Note_on_c, 0, 65, 0
2, 323432, Note_on_c, 0, 60, 0
2, 323438, Note_on_c, 0, 77, 0
2, 323517, Note_on_c, 0, 61, 0
2, 323962, Note_on_c, 0, 61, 50
2, 323975, Note_on_c, 0, 73, 36
2, 323978, Note_on_c, 0, 65, 50
2, 323991, Note_on_c, 0, 77, 52
2, 324001, Note_on_c, 0, 60, 32
2, 324208, Note_on_c, 0, 65, 0
2, 324247, Note_on_c, 0, 73, 0
2, 324282, Note_on_c, 0, 60, 0
2, 324326, Note_on_c, 0, 77, 0
2, 324339, Note_on_c, 0, 61, 0
2, 324421, Control_c, 0, 64, 127
2, 324520, Note_on_c, 0, 65, 34
2, 324528, Note_on_c, 0, 77, 46
2, 324536, Note_on_c, 0, 73, 31
2, 324551, Note_on_c, 0, 61, 42
2, 324610, Note_on_c, 0, 60, 29
2, 324669, Note_on_c, 0, 55, 15
2, 324792, Note_on_c, 0, 65, 0
2, 324866, Note_on_c, 0, 60, 0
2, 324922, Note_on_c, 0, 61, 0
2, 324940, Note_on_c, 0, 55, 0
2, 324961, Control_c, 0, 64, 0
2, 324986, Note_on_c, 0, 73, 0
2, 324989, Note_on_c, 0, 77, 0
2, 325296, Control_c, 0, 64, 127
2, 325327, Note_on_c, 0, 65, 44
2, 325363, Note_on_c, 0, 61, 35
2, 325424, Note_on_c, 0, 55, 20
2, 325544, Note_on_c, 0, 65, 0
2, 325550, Note_on_c, 0, 55, 0
2, 325670, Note_on_c, 0, 61, 0
2, 326092, Control_c, 0, 64, 0
2, 326397, Control_c, 0, 64, 127
2, 326760, Control_c, 0, 64, 0
2, 326855, Note_on_c, 0, 65, 60
2, 326868, Note_on_c, 0, 61, 45
2, 326876, Note_on_c, 0, 82, 62
2, 326909, Note_on_c, 0, 77, 60
2, 326912, Note_on_c, 0, 60, 39
2, 326922, Note_on_c, 0, 70, 47
2, 326942, Note_on_c, 0, 56, 32
2, 327093, Control_c, 0, 64, 127
2, 327462, Note_on_c, 0, 70, 0
2, 327475, Note_on_c, 0, 77, 0
2, 327544, Note_on_c, 0, 60, 0
2, 327552, Note_on_c, 0, 65, 0
2, 327562, Note_on_c, 0, 82, 0
2, 327590, Note_on_c, 0, 56, 0
2, 327659, Note_on_c, 0, 61, 0
2, 327792, Note_on_c, 0, 84, 79
2, 327805, Note_on_c, 0, 77, 68
2, 327810, Note_on_c, 0, 72, 69
2, 327833, Note_on_c, 0, 56, 57
2, 327841, Note_on_c, 0, 61, 74
2, 327846, Note_on_c, 0, 65, 64
2, 327869, Note_on_c, 0, 60, 43
2, 328256, Note_on_c, 0, 84, 0
2, 328317, Note_on_c, 0, 72, 0
2, 328394, Note_on_c, 0, 65, 0
2, 328396, Note_on_c, 0, 60, 0
2, 328422, Note_on_c, 0, 56, 0
2, 328427, Note_on_c, 0, 77, 0
2, 328460, Note_on_c, 0, 61, 0
2, 328683, Control_c, 0, 64, 0
2, 328752, Note_on_c, 0, 85, 64
2, 328775, Note_on_c, 0, 77, 68
2, 328796, Note_on_c, 0, 73, 50
2, 328808, Note_on_c, 0, 61, 58
2, 328811, Note_on_c, 0, 65, 67
2, 328824, Note_on_c, 0, 56, 65
2, 328872, Note_on_c, 0, 60, 39
2, 328890, Control_c, 0, 64, 127
2, 328983, Note_on_c, 0, 60, 0
2, 329108, Note_on_c, 0, 77, 0
2, 329182, Note_on_c, 0, 73, 0
2, 329216, Note_on_c, 0, 65, 0
2, 329269, Note_on_c, 0, 85, 0
2, 329356, Note_on_c, 0, 61, 0
2, 329459, Note_on_c, 0, 56, 0
2, 329607, Control_c, 0, 64, 0
2, 329745, Note_on_c, 0, 82, 51
2, 329748, Note_on_c, 0, 75, 51
2, 329766, Note_on_c, 0, 87, 50
2, 329768, Note_on_c, 0, 61, 67
2, 329799, Note_on_c, 0, 64, 58
2, 329835, Note_on_c, 0, 55, 46
2, 329994, Control_c, 0, 64, 127
2, 330022, Note_on_c, 0, 55, 0
2, 330022, Note_on_c, 0, 64, 0
2, 330199, Note_on_c, 0, 61, 0
2, 330342, Note_on_c, 0, 82, 0
2, 330442, Note_on_c, 0, 75, 0
2, 330480, Note_on_c, 0, 87, 0
2, 330662, Control_c, 0, 64, 0
2, 330746, Note_on_c, 0, 88, 58
2, 330762, Note_on_c, 0, 63, 49
2, 330764, Note_on_c, 0, 76, 48
2, 330767, Note_on_c, 0, 82, 46
2, 330805, Note_on_c, 0, 54, 42
2, 330839, Note_on_c, 0, 59, 44
2, 330867, Note_on_c, 0, 58, 31
2, 331049, Control_c, 0, 64, 127
2, 331064, Note_on_c, 0, 76, 0
2, 331107, Note_on_c, 0, 88, 0
2, 331159, Note_on_c, 0, 63, 0
2, 331225, Note_on_c, 0, 82, 0
2, 331246, Note_on_c, 0, 59, 0
2, 331258, Note_on_c, 0, 54, 0
2, 331389, Note_on_c, 0, 58, 0
2, 331561, Control_c, 0, 64, 0
2, 331704, Note_on_c, 0, 89, 44
2, 331709, Note_on_c, 0, 63, 52
2, 331714, Note_on_c, 0, 77, 47
2, 331737, Note_on_c, 0, 82, 34
2, 331765, Note_on_c, 0, 58, 27
2, 331773, Note_on_c, 0, 53, 28
2, 331796, Note_on_c, 0, 59, 42
2, 331921, Control_c, 0, 64, 127
2, 332101, Note_on_c, 0, 53, 0
2, 332129, Note_on_c, 0, 77, 0
2, 332131, Note_on_c, 0, 63, 0
2, 332139, Note_on_c, 0, 89, 0
2, 332160, Note_on_c, 0, 59, 0
2, 332165, Note_on_c, 0, 82, 0
2, 332247, Note_on_c, 0, 58, 0
2, 332692, Note_on_c, 0, 63, 49
2, 332710, Note_on_c, 0, 90, 47
2, 332728, Note_on_c, 0, 78, 36
2, 332753, Note_on_c, 0, 85, 45
2, 332769, Note_on_c, 0, 58, 30
2, 332794, Note_on_c, 0, 59, 33
2, 332930, Note_on_c, 0, 59, 0
2, 332938, Note_on_c, 0, 63, 0
2, 332989, Note_on_c, 0, 78, 0
2, 333027, Note_on_c, 0, 85, 0
2, 333071, Note_on_c, 0, 58, 0
2, 333127, Note_on_c, 0, 90, 0
2, 333626, Note_on_c, 0, 91, 45
2, 333637, Note_on_c, 0, 85, 48
2, 333739, Note_on_c, 0, 91, 0
2, 333944, Note_on_c, 0, 85, 0
2, 334095, Control_c, 0, 64, 0
2, 334103, Note_on_c, 0, 61, 54
2, 334144, Note_on_c, 0, 90, 47
2, 334156, Note_on_c, 0, 58, 48
2, 334179, Note_on_c, 0, 51, 31
2, 334297, Note_on_c, 0, 56, 27
2, 334914, Control_c, 0, 64, 127
2, 335173, Note_on_c, 0, 51, 0
2, 335201, Note_on_c, 0, 90, 0
2, 335219, Note_on_c, 0, 61, 0
2, 335232, Note_on_c, 0, 56, 0
2, 335275, Note_on_c, 0, 58, 0
2, 335331, Control_c, 0, 64, 0
2, 335490, Note_on_c, 0, 61, 39
2, 335521, Note_on_c, 0, 87, 39
2, 335536, Note_on_c, 0, 51, 36
2, 335549, Note_on_c, 0, 75, 48
2, 335559, Note_on_c, 0, 58, 45
2, 335628, Note_on_c, 0, 56, 34
2, 335741, Control_c, 0, 64, 127
2, 336240, Note_on_c, 0, 51, 0
2, 336345, Note_on_c, 0, 56, 0
2, 336363, Note_on_c, 0, 58, 0
2, 336409, Note_on_c, 0, 87, 0
2, 336430, Note_on_c, 0, 61, 0
2, 336465, Note_on_c, 0, 75, 0
2, 336896, Control_c, 0, 64, 0
2, 336939, Note_on_c, 0, 61, 44
2, 337006, Note_on_c, 0, 51, 28
2, 337036, Note_on_c, 0, 58, 38
2, 337057, Note_on_c, 0, 73, 36
2, 337083, Note_on_c, 0, 56, 37
2, 337111, Note_on_c, 0, 85, 23
2, 337461, Control_c, 0, 64, 127
2, 337661, Note_on_c, 0, 73, 0
2, 337740, Note_on_c, 0, 85, 0
2, 337779, Note_on_c, 0, 51, 0
2, 337822, Note_on_c, 0, 61, 0
2, 337838, Note_on_c, 0, 58, 0
2, 337848, Note_on_c, 0, 56, 0
2, 338124, Control_c, 0, 64, 0
2, 338309, Note_on_c, 0, 61, 49
2, 338342, Note_on_c, 0, 87, 43
2, 338357, Note_on_c, 0, 51, 32
2, 338378, Note_on_c, 0, 75, 29
2, 338398, Note_on_c, 0, 58, 38
2, 338426, Note_on_c, 0, 82, 35
2, 338439, Note_on_c, 0, 56, 37
2, 338616, Control_c, 0, 64, 127
2, 339128, Note_on_c, 0, 58, 0
2, 339141, Note_on_c, 0, 56, 0
2, 339210, Note_on_c, 0, 61, 0
2, 339217, Note_on_c, 0, 51, 0
2, 339271, Note_on_c, 0, 87, 0
2, 339315, Note_on_c, 0, 75, 0
2, 339317, Note_on_c, 0, 82, 0
2, 339489, Control_c, 0, 64, 0
2, 339742, Note_on_c, 0, 61, 42
2, 339758, Note_on_c, 0, 85, 39
2, 339763, Note_on_c, 0, 51, 35
2, 339845, Note_on_c, 0, 58, 34
2, 339868, Note_on_c, 0, 73, 18
2, 339870, Note_on_c, 0, 80, 33
2, 339957, Note_on_c, 0, 56, 18
2, 340149, Note_on_c, 0, 51, 0
2, 340208, Control_c, 0, 64, 127
2, 340244, Note_on_c, 0, 73, 0
2, 340285, Note_on_c, 0, 56, 0
2, 340347, Note_on_c, 0, 58, 0
2, 340387, Note_on_c, 0, 80, 0
2, 340421, Note_on_c, 0, 61, 0
2, 340436, Note_on_c, 0, 85, 0
2, 341184, Control_c, 0, 64, 0
2, 341204, Note_on_c, 0, 65, 44
2, 341207, Note_on_c, 0, 90, 50
2, 341207, Note_on_c, 0, 61, 35
2, 341222, Note_on_c, 0, 54, 35
2, 341230, Note_on_c, 0, 78, 47
2, 341260, Note_on_c, 0, 58, 46
2, 341568, Control_c, 0, 64, 127
2, 342300, Note_on_c, 0, 58, 0
2, 342305, Note_on_c, 0, 90, 0
2, 342343, Note_on_c, 0, 61, 0
2, 342356, Note_on_c, 0, 65, 0
2, 342384, Note_on_c, 0, 78, 0
2, 342451, Note_on_c, 0, 54, 0
2, 342671, Control_c, 0, 64, 0
2, 342730, Note_on_c, 0, 54, 38
2, 342732, Note_on_c, 0, 87, 35
2, 342745, Note_on_c, 0, 75, 30
2, 342748, Note_on_c, 0, 65, 35
2, 342768, Note_on_c, 0, 61, 34
2, 342773, Note_on_c, 0, 82, 39
2, 342809, Note_on_c, 0, 58, 37
2, 343004, Note_on_c, 0, 65, 0
2, 343014, Note_on_c, 0, 75, 0
2, 343050, Note_on_c, 0, 61, 0
2, 343068, Note_on_c, 0, 54, 0
2, 343116, Note_on_c, 0, 58, 0
2, 343150, Note_on_c, 0, 82, 0
2, 343234, Note_on_c, 0, 87, 0
2, 343518, Control_c, 0, 64, 127
2, 344186, Control_c, 0, 64, 0
2, 344212, Note_on_c, 0, 65, 49
2, 344245, Note_on_c, 0, 54, 34
2, 344253, Note_on_c, 0, 61, 35
2, 344271, Note_on_c, 0, 58, 35
2, 344542, Control_c, 0, 64, 127
2, 345203, Note_on_c, 0, 65, 0
2, 345226, Note_on_c, 0, 54, 0
2, 345461, Note_on_c, 0, 58, 0
2, 345464, Note_on_c, 0, 61, 0
2, 345569, Control_c, 0, 64, 0
2, 345584, Note_on_c, 0, 54, 64
2, 345587, Note_on_c, 0, 64, 68
2, 345589, Note_on_c, 0, 60, 58
2, 345592, Note_on_c, 0, 93, 89
2, 345610, Note_on_c, 0, 86, 85
2, 346158, Control_c, 0, 64, 127
2, 346608, Note_on_c, 0, 93, 0
2, 346675, Note_on_c, 0, 64, 0
2, 346718, Note_on_c, 0, 60, 0
2, 346731, Note_on_c, 0, 86, 0
2, 346744, Note_on_c, 0, 54, 0
2, 347056, Control_c, 0, 64, 0
2, 347064, Note_on_c, 0, 90, 62
2, 347084, Note_on_c, 0, 64, 55
2, 347097, Note_on_c, 0, 54, 50
2, 347100, Note_on_c, 0, 81, 47
2, 347112, Note_on_c, 0, 86, 61
2, 347130, Note_on_c, 0, 60, 36
2, 347392, Control_c, 0, 64, 127
2, 348477, Note_on_c, 0, 86, 0
2, 348533, Note_on_c, 0, 90, 0
2, 348597, Note_on_c, 0, 81, 0
2, 349022, Note_on_c, 0, 60, 0
2, 349112, Note_on_c, 0, 64, 0
2, 349132, Note_on_c, 0, 54, 0
2, 350266, Control_c, 0, 64, 0
2, 350356, Note_on_c, 0, 78, 46
2, 350359, Note_on_c, 0, 74, 58
2, 350860, Note_on_c, 0, 74, 0
2, 350950, Note_on_c, 0, 69, 24
2, 351114, Note_on_c, 0, 69, 0
2, 351162, Note_on_c, 0, 78, 0
2, 351252, Note_on_c, 0, 74, 25
2, 351470, Note_on_c, 0, 74, 0
2, 352770, Note_on_c, 0, 68, 46
2, 352778, Note_on_c, 0, 77, 44
2, 352801, Note_on_c, 0, 73, 36
2, 352821, Note_on_c, 0, 65, 45
2, 352936, Note_on_c, 0, 68, 0
2, 352939, Note_on_c, 0, 77, 0
2, 352939, Note_on_c, 0, 65, 0
2, 353018, Note_on_c, 0, 73, 0
2, 354135, Note_on_c, 0, 75, 44
2, 354140, Note_on_c, 0, 66, 49
2, 354160, Note_on_c, 0, 63, 36
2, 354196, Note_on_c, 0, 71, 45
2, 354204, Note_on_c, 0, 54, 36
2, 354444, Note_on_c, 0, 63, 0
2, 354488, Note_on_c, 0, 66, 0
2, 354542, Note_on_c, 0, 71, 0
2, 354585, Note_on_c, 0, 75, 0
2, 354688, Note_on_c, 0, 54, 0
2, 355064, Control_c, 0, 64, 127
2, 355141, Control_c, 0, 64, 0
2, 355627, Note_on_c, 0, 63, 35
2, 355650, Note_on_c, 0, 65, 40
2, 355653, Note_on_c, 0, 70, 48
2, 355729, Note_on_c, 0, 59, 27
2, 355883, Control_c, 0, 64, 127
2, 355985, Note_on_c, 0, 59, 0
2, 356014, Note_on_c, 0, 63, 0
2, 356098, Note_on_c, 0, 65, 0
2, 356175, Note_on_c, 0, 70, 0
2, 356730, Control_c, 0, 64, 0
2, 356963, Note_on_c, 0, 58, 36
2, 356992, Note_on_c, 0, 48, 45
2, 357222, Note_on_c, 0, 48, 0
2, 357242, Control_c, 0, 64, 127
2, 357265, Note_on_c, 0, 58, 0
2, 357888, Control_c, 0, 64, 0
2, 357944, Note_on_c, 0, 84, 75
2, 357946, Note_on_c, 0, 63, 55
2, 357957, Note_on_c, 0, 72, 64
2, 357964, Note_on_c, 0, 58, 60
2, 357980, Note_on_c, 0, 52, 49
2, 358453, Control_c, 0, 64, 127
2, 358458, Note_on_c, 0, 84, 0
2, 358499, Note_on_c, 0, 72, 0
2, 358504, Note_on_c, 0, 52, 0
2, 358543, Note_on_c, 0, 63, 0
2, 358566, Note_on_c, 0, 58, 0
2, 358630, Control_c, 0, 64, 0
2, 359462, Note_on_c, 0, 87, 70
2, 359464, Note_on_c, 0, 63, 65
2, 359477, Note_on_c, 0, 75, 67
2, 359495, Note_on_c, 0, 58, 55
2, 359508, Note_on_c, 0, 52, 54
2, 359825, Note_on_c, 0, 52, 0
2, 359869, Note_on_c, 0, 63, 0
2, 359930, Note_on_c, 0, 75, 0
2, 359936, Note_on_c, 0, 58, 0
2, 359992, Note_on_c, 0, 87, 0
2, 360217, Note_on_c, 0, 86, 65
2, 360238, Note_on_c, 0, 74, 60
2, 360258, Note_on_c, 0, 63, 54
2, 360268, Note_on_c, 0, 52, 53
2, 360286, Note_on_c, 0, 58, 56
2, 360558, Note_on_c, 0, 86, 0
2, 360576, Note_on_c, 0, 52, 0
2, 360637, Note_on_c, 0, 74, 0
2, 360714, Note_on_c, 0, 63, 0
2, 360870, Note_on_c, 0, 58, 0
2, 360993, Note_on_c, 0, 51, 55
2, 360995, Note_on_c, 0, 85, 64
2, 361008, Note_on_c, 0, 73, 48
2, 361026, Note_on_c, 0, 62, 49
2, 361047, Note_on_c, 0, 57, 47
2, 361789, Control_c, 0, 64, 127
2, 362022, Note_on_c, 0, 57, 0
2, 362048, Note_on_c, 0, 62, 0
2, 362099, Note_on_c, 0, 51, 0
2, 362145, Note_on_c, 0, 73, 0
2, 362240, Note_on_c, 0, 85, 0
2, 362247, Control_c, 0, 64, 0
2, 362403, Note_on_c, 0, 84, 62
2, 362408, Note_on_c, 0, 51, 46
2, 362421, Note_on_c, 0, 72, 48
2, 362452, Note_on_c, 0, 62, 45
2, 362490, Note_on_c, 0, 57, 41
2, 362608, Control_c, 0, 64, 127
2, 362775, Note_on_c, 0, 57, 0
2, 362836, Note_on_c, 0, 51, 0
2, 363061, Note_on_c, 0, 62, 0
2, 363717, Control_c, 0, 64, 0
2, 363791, Note_on_c, 0, 65, 50
2, 363837, Note_on_c, 0, 62, 52
2, 363852, Note_on_c, 0, 72, 0
2, 363855, Note_on_c, 0, 60, 34
2, 364710, Control_c, 0, 64, 127
2, 364894, Note_on_c, 0, 65, 0
2, 364920, Note_on_c, 0, 84, 0
2, 365301, Control_c, 0, 64, 0
2, 365314, Note_on_c, 0, 53, 44
2, 366686, Note_on_c, 0, 87, 83
2, 367232, Note_on_c, 0, 85, 37
2, 367285, Note_on_c, 0, 87, 0
2, 367511, Note_on_c, 0, 85, 0
2, 367641, Note_on_c, 0, 86, 60
2, 368122, Note_on_c, 0, 86, 0
2, 368189, Note_on_c, 0, 81, 41
2, 368284, Note_on_c, 0, 65, 22
2, 368327, Note_on_c, 0, 81, 0
2, 368471, Note_on_c, 0, 65, 0
2, 368542, Note_on_c, 0, 84, 73
2, 369041, Note_on_c, 0, 84, 0
2, 369505, Note_on_c, 0, 82, 74
2, 369507, Note_on_c, 0, 60, 0
2, 369623, Note_on_c, 0, 62, 0
2, 370101, Note_on_c, 0, 62, 29
2, 370165, Note_on_c, 0, 82, 0
2, 370183, Note_on_c, 0, 77, 16
2, 370365, Note_on_c, 0, 62, 0
2, 370375, Note_on_c, 0, 77, 0
2, 370595, Note_on_c, 0, 74, 30
2, 370849, Note_on_c, 0, 74, 0
2, 370977, Note_on_c, 0, 62, 28
2, 370992, Note_on_c, 0, 70, 58
2, 371143, Note_on_c, 0, 62, 0
2, 371328, Note_on_c, 0, 70, 0
2, 371397, Note_on_c, 0, 53, 0
2, 371566, Note_on_c, 0, 69, 28
2, 371888, Note_on_c, 0, 69, 0
2, 372039, Note_on_c, 0, 67, 29
2, 372183, Note_on_c, 0, 67, 0
2, 372462, Note_on_c, 0, 69, 58
2, 372482, Note_on_c, 0, 52, 22
2, 372487, Note_on_c, 0, 58, 28
2, 372515, Note_on_c, 0, 62, 22
2, 372871, Note_on_c, 0, 69, 0
2, 373002, Note_on_c, 0, 70, 36
2, 373107, Note_on_c, 0, 69, 49
2, 373388, Note_on_c, 0, 62, 0
2, 373409, Note_on_c, 0, 69, 0
2, 373429, Note_on_c, 0, 67, 35
2, 373447, Note_on_c, 0, 70, 0
2, 373570, Note_on_c, 0, 58, 0
2, 373801, Note_on_c, 0, 67, 0
2, 373967, Note_on_c, 0, 69, 66
2, 374080, Note_on_c, 0, 58, 28
2, 374228, Note_on_c, 0, 58, 0
2, 374269, Note_on_c, 0, 69, 0
2, 374489, Note_on_c, 0, 70, 57
2, 374960, Note_on_c, 0, 58, 39
2, 374971, Note_on_c, 0, 62, 34
2, 375109, Note_on_c, 0, 62, 0
2, 375285, Note_on_c, 0, 67, 49
2, 375288, Note_on_c, 0, 58, 0
2, 375298, Note_on_c, 0, 52, 0
2, 375349, Note_on_c, 0, 70, 0
2, 376335, Note_on_c, 0, 61, 37
2, 376348, Note_on_c, 0, 66, 67
2, 376386, Note_on_c, 0, 67, 0
2, 376435, Note_on_c, 0, 58, 29
2, 376527, Note_on_c, 0, 54, 29
2, 376681, Note_on_c, 0, 61, 0
2, 376806, Note_on_c, 0, 58, 0
2, 377390, Note_on_c, 0, 54, 0
2, 377789, Note_on_c, 0, 66, 0
2, 377863, Note_on_c, 0, 68, 51
2, 377886, Note_on_c, 0, 61, 33
2, 377966, Note_on_c, 0, 58, 25
2, 378022, Note_on_c, 0, 61, 0
2, 378112, Note_on_c, 0, 58, 0
2, 378229, Note_on_c, 0, 68, 0
2, 378432, Note_on_c, 0, 70, 62
2, 378869, Note_on_c, 0, 61, 44
2, 378967, Note_on_c, 0, 61, 0
2, 378997, Note_on_c, 0, 58, 21
2, 379125, Note_on_c, 0, 58, 0
2, 379184, Note_on_c, 0, 70, 0
2, 379330, Note_on_c, 0, 66, 48
2, 379816, Note_on_c, 0, 66, 0
2, 379932, Note_on_c, 0, 65, 58
2, 379975, Note_on_c, 0, 60, 46
2, 379998, Note_on_c, 0, 50, 51
2, 381396, Note_on_c, 0, 60, 0
2, 381678, Note_on_c, 0, 65, 0
2, 381701, Note_on_c, 0, 64, 61
2, 381752, Note_on_c, 0, 60, 34
2, 381957, Note_on_c, 0, 64, 0
2, 382164, Note_on_c, 0, 65, 43
2, 382213, Note_on_c, 0, 60, 0
2, 382535, Note_on_c, 0, 65, 0
2, 382679, Note_on_c, 0, 66, 74
2, 382707, Note_on_c, 0, 60, 38
2, 382881, Note_on_c, 0, 50, 0
2, 383047, Note_on_c, 0, 66, 0
2, 383134, Note_on_c, 0, 67, 60
2, 383380, Note_on_c, 0, 60, 0
2, 383500, Note_on_c, 0, 67, 0
2, 383633, Note_on_c, 0, 69, 82
2, 383864, Note_on_c, 0, 62, 24
2, 383933, Note_on_c, 0, 58, 34
2, 383959, Note_on_c, 0, 57, 25
2, 383989, Note_on_c, 0, 53, 27
2, 384033, Note_on_c, 0, 69, 0
2, 384122, Note_on_c, 0, 70, 74
2, 384414, Note_on_c, 0, 58, 0
2, 384632, Note_on_c, 0, 70, 0
2, 384688, Note_on_c, 0, 66, 21
2, 384760, Note_on_c, 0, 62, 0
2, 384890, Note_on_c, 0, 66, 0
2, 385041, Note_on_c, 0, 69, 69
2, 385533, Note_on_c, 0, 69, 0
2, 385553, Note_on_c, 0, 66, 32
2, 385589, Note_on_c, 0, 58, 25
2, 385771, Note_on_c, 0, 58, 0
2, 385812, Note_on_c, 0, 66, 0
2, 385896, Note_on_c, 0, 67, 42
2, 386219, Note_on_c, 0, 67, 0
2, 386406, Note_on_c, 0, 69, 68
2, 386447, Note_on_c, 0, 62, 41
2, 386595, Note_on_c, 0, 62, 0
2, 386652, Note_on_c, 0, 57, 0
2, 386672, Note_on_c, 0, 53, 0
2, 386739, Note_on_c, 0, 69, 0
2, 386851, Note_on_c, 0, 70, 67
2, 387192, Note_on_c, 0, 70, 0
2, 387381, Note_on_c, 0, 71, 95
2, 387783, Note_on_c, 0, 71, 0
2, 387814, Note_on_c, 0, 67, 39
2, 387840, Note_on_c, 0, 74, 80
2, 387868, Note_on_c, 0, 63, 39
2, 387914, Note_on_c, 0, 58, 23
2, 388288, Note_on_c, 0, 74, 0
2, 388410, Note_on_c, 0, 71, 41
2, 388449, Note_on_c, 0, 67, 0
2, 388771, Note_on_c, 0, 71, 0
2, 388776, Note_on_c, 0, 72, 42
2, 388902, Note_on_c, 0, 63, 0
2, 389240, Note_on_c, 0, 72, 0
2, 389329, Note_on_c, 0, 74, 77
2, 389376, Note_on_c, 0, 63, 42
2, 389388, Note_on_c, 0, 67, 37
2, 389596, Note_on_c, 0, 67, 0
2, 389752, Note_on_c, 0, 63, 0
2, 389790, Note_on_c, 0, 75, 78
2, 389793, Note_on_c, 0, 74, 0
2, 390320, Note_on_c, 0, 67, 30
2, 390320, Note_on_c, 0, 72, 40
2, 390412, Note_on_c, 0, 63, 28
2, 390428, Note_on_c, 0, 75, 0
2, 390545, Note_on_c, 0, 67, 0
2, 390676, Note_on_c, 0, 72, 0
2, 390791, Note_on_c, 0, 74, 38
2, 390804, Note_on_c, 0, 63, 0
2, 391142, Note_on_c, 0, 74, 0
2, 391180, Note_on_c, 0, 58, 0
2, 391219, Note_on_c, 0, 75, 69
2, 391613, Note_on_c, 0, 75, 0
2, 391667, Note_on_c, 0, 77, 61
2, 391979, Note_on_c, 0, 77, 0
2, 392128, Note_on_c, 0, 78, 73
2, 392186, Note_on_c, 0, 63, 39
2, 392194, Note_on_c, 0, 67, 47
2, 392345, Note_on_c, 0, 57, 24
2, 392414, Note_on_c, 0, 67, 0
2, 392637, Note_on_c, 0, 63, 0
2, 392640, Note_on_c, 0, 80, 50
2, 392765, Note_on_c, 0, 78, 0
2, 393052, Note_on_c, 0, 80, 0
2, 393113, Note_on_c, 0, 81, 68
2, 393507, Note_on_c, 0, 57, 0
2, 393510, Note_on_c, 0, 81, 0
2, 393574, Note_on_c, 0, 82, 52
2, 393963, Note_on_c, 0, 82, 0
2, 394065, Note_on_c, 0, 83, 64
2, 394170, Note_on_c, 0, 66, 48
2, 394245, Note_on_c, 0, 57, 28
2, 394332, Note_on_c, 0, 83, 0
2, 394465, Note_on_c, 0, 66, 0
2, 394503, Note_on_c, 0, 84, 56
2, 394787, Note_on_c, 0, 84, 0
2, 394874, Note_on_c, 0, 57, 0
2, 395000, Note_on_c, 0, 85, 76
2, 395279, Note_on_c, 0, 85, 0
2, 395450, Note_on_c, 0, 87, 76
2, 395494, Note_on_c, 0, 65, 40
2, 395589, Note_on_c, 0, 62, 36
2, 395676, Note_on_c, 0, 60, 28
2, 396034, Note_on_c, 0, 87, 0
2, 396034, Note_on_c, 0, 85, 43
2, 396236, Note_on_c, 0, 65, 0
2, 396300, Note_on_c, 0, 85, 0
2, 396536, Note_on_c, 0, 86, 42
2, 396792, Note_on_c, 0, 86, 0
2, 397004, Note_on_c, 0, 91, 78
2, 397053, Note_on_c, 0, 53, 33
2, 397237, Note_on_c, 0, 91, 0
2, 397578, Note_on_c, 0, 91, 81
2, 397583, Note_on_c, 0, 60, 0
2, 397703, Note_on_c, 0, 53, 0
2, 397870, Note_on_c, 0, 62, 0
2, 397877, Note_on_c, 0, 91, 0
2, 398141, Note_on_c, 0, 62, 17
2, 398289, Note_on_c, 0, 62, 0
2, 398387, Note_on_c, 0, 89, 68
2, 398702, Note_on_c, 0, 89, 0
2, 399063, Note_on_c, 0, 77, 41
2, 399237, Note_on_c, 0, 77, 0
2, 399879, Note_on_c, 0, 62, 43
2, 400058, Note_on_c, 0, 62, 0
2, 401216, Note_on_c, 0, 62, 50
2, 401264, Note_on_c, 0, 58, 43
2, 401280, Note_on_c, 0, 55, 32
2, 401448, Note_on_c, 0, 55, 0
2, 401505, Note_on_c, 0, 62, 0
2, 401610, Note_on_c, 0, 58, 0
2, 402813, Note_on_c, 0, 65, 40
2, 402831, Note_on_c, 0, 62, 39
2, 402872, Note_on_c, 0, 60, 32
2, 402918, Note_on_c, 0, 55, 22
2, 402987, Note_on_c, 0, 60, 0
2, 403013, Note_on_c, 0, 62, 0
2, 403020, Note_on_c, 0, 65, 0
2, 403061, Note_on_c, 0, 55, 0
2, 404142, Note_on_c, 0, 65, 36
2, 404270, Note_on_c, 0, 62, 20
2, 404282, Note_on_c, 0, 55, 17
2, 404393, Note_on_c, 0, 65, 0
2, 404457, Note_on_c, 0, 55, 0
2, 404480, Note_on_c, 0, 62, 0
2, 405650, Note_on_c, 0, 65, 38
2, 405652, Note_on_c, 0, 62, 41
2, 405683, Note_on_c, 0, 60, 26
2, 405854, Note_on_c, 0, 60, 0
2, 405870, Note_on_c, 0, 65, 0
2, 405900, Note_on_c, 0, 62, 0
2, 407055, Note_on_c, 0, 65, 42
2, 407101, Note_on_c, 0, 61, 31
2, 407150, Note_on_c, 0, 54, 30
2, 407206, Note_on_c, 0, 58, 25
2, 407347, Note_on_c, 0, 58, 0
2, 407352, Note_on_c, 0, 54, 0
2, 407360, Note_on_c, 0, 65, 0
2, 407424, Note_on_c, 0, 61, 0
2, 408512, Note_on_c, 0, 65, 64
2, 408535, Note_on_c, 0, 61, 39
2, 408563, Note_on_c, 0, 54, 30
2, 408586, Note_on_c, 0, 58, 30
2, 408622, Note_on_c, 0, 65, 0
2, 408678, Note_on_c, 0, 54, 0
2, 408709, Note_on_c, 0, 58, 0
2, 408834, Note_on_c, 0, 61, 0
2, 408947, Note_on_c, 0, 80, 79
2, 409441, Note_on_c, 0, 80, 0
2, 409510, Note_on_c, 0, 65, 52
2, 409520, Note_on_c, 0, 61, 39
2, 409582, Note_on_c, 0, 58, 26
2, 409610, Note_on_c, 0, 65, 0
2, 409740, Note_on_c, 0, 61, 0
2, 409802, Note_on_c, 0, 58, 0
2, 409973, Note_on_c, 0, 79, 76
2, 410485, Note_on_c, 0, 78, 65
2, 410491, Note_on_c, 0, 79, 0
2, 410539, Note_on_c, 0, 60, 36
2, 410659, Note_on_c, 0, 60, 0
2, 410800, Note_on_c, 0, 78, 0
2, 410946, Note_on_c, 0, 77, 46
2, 411238, Note_on_c, 0, 77, 0
2, 411502, Note_on_c, 0, 54, 21
2, 411655, Note_on_c, 0, 54, 0
2, 412326, Note_on_c, 0, 54, 46
2, 412352, Note_on_c, 0, 62, 38
2, 412474, Note_on_c, 0, 62, 0
2, 412669, Note_on_c, 0, 54, 0
2, 413314, Note_on_c, 0, 63, 49
2, 413368, Note_on_c, 0, 58, 53
2, 413473, Note_on_c, 0, 53, 11
2, 414643, Note_on_c, 0, 53, 0
2, 414786, Note_on_c, 0, 58, 0
2, 414830, Note_on_c, 0, 63, 0
2, 415170, Note_on_c, 0, 61, 52
2, 415183, Note_on_c, 0, 65, 57
2, 415216, Note_on_c, 0, 60, 31
2, 415232, Note_on_c, 0, 56, 45
2, 416197, Note_on_c, 0, 60, 0
2, 416261, Note_on_c, 0, 56, 0
2, 416261, Note_on_c, 0, 65, 0
2, 416373, Note_on_c, 0, 61, 0
2, 416576, Note_on_c, 0, 65, 49
2, 416586, Note_on_c, 0, 61, 52
2, 416606, Note_on_c, 0, 56, 37
2, 417446, Note_on_c, 0, 65, 0
2, 417569, Note_on_c, 0, 61, 0
2, 417643, Note_on_c, 0, 56, 0
2, 418004, Note_on_c, 0, 62, 48
2, 418129, Note_on_c, 0, 62, 0
2, 418496, Note_on_c, 0, 77, 95
2, 418905, Note_on_c, 0, 77, 0
2, 418997, Note_on_c, 0, 55, 19
2, 419005, Note_on_c, 0, 73, 51
2, 419176, Note_on_c, 0, 55, 0
2, 419287, Note_on_c, 0, 73, 0
2, 419517, Note_on_c, 0, 70, 21
2, 419934, Note_on_c, 0, 70, 0
2, 419983, Note_on_c, 0, 65, 53
2, 420049, Note_on_c, 0, 62, 30
2, 420119, Note_on_c, 0, 58, 26
2, 420154, Note_on_c, 0, 62, 0
2, 420295, Note_on_c, 0, 65, 0
2, 420326, Note_on_c, 0, 58, 0
2, 420454, Note_on_c, 0, 61, 53
2, 421076, Note_on_c, 0, 61, 0
2, 421352, Note_on_c, 0, 61, 55
2, 421967, Note_on_c, 0, 61, 0
2, 422871, Note_on_c, 0, 63, 57
2, 422899, Note_on_c, 0, 58, 48
2, 422970, Note_on_c, 0, 52, 24
2, 423063, Note_on_c, 0, 63, 0
2, 423073, Note_on_c, 0, 52, 0
2, 423280, Note_on_c, 0, 58, 0
2, 423772, Note_on_c, 0, 87, 83
2, 424079, Note_on_c, 0, 87, 0
2, 424299, Note_on_c, 0, 85, 71
2, 424614, Note_on_c, 0, 85, 0
2, 424824, Note_on_c, 0, 82, 59
2, 424839, Note_on_c, 0, 63, 47
2, 424888, Note_on_c, 0, 58, 42
2, 424913, Note_on_c, 0, 52, 28
2, 424995, Note_on_c, 0, 63, 0
2, 425057, Note_on_c, 0, 52, 0
2, 425067, Note_on_c, 0, 82, 0
2, 425200, Note_on_c, 0, 76, 33
2, 425259, Note_on_c, 0, 58, 0
2, 425576, Note_on_c, 0, 76, 0
2, 425768, Note_on_c, 0, 75, 58
2, 425984, Note_on_c, 0, 75, 0
2, 426321, Note_on_c, 0, 74, 50
2, 426831, Note_on_c, 0, 74, 0
2, 427171, Note_on_c, 0, 73, 53
2, 427776, Note_on_c, 0, 73, 0
2, 427863, Note_on_c, 0, 58, 23
2, 428014, Note_on_c, 0, 58, 0
2, 428111, Note_on_c, 0, 72, 47
2, 428792, Note_on_c, 0, 72, 0
2, 429045, Note_on_c, 0, 70, 52
2, 429808, Note_on_c, 0, 70, 0
2, 430041, Note_on_c, 0, 69, 44
2, 430056, Note_on_c, 0, 63, 34
2, 430097, Note_on_c, 0, 57, 20
2, 430827, Note_on_c, 0, 69, 0
2, 430871, Note_on_c, 0, 63, 0
2, 430919, Control_c, 0, 64, 127
2, 431024, Note_on_c, 0, 67, 49
2, 431493, Note_on_c, 0, 63, 35
2, 431654, Note_on_c, 0, 67, 0
2, 431659, Note_on_c, 0, 57, 0
2, 431664, Control_c, 0, 64, 0
2, 431700, Note_on_c, 0, 63, 0
2, 431915, Note_on_c, 0, 65, 69
2, 431974, Control_c, 0, 64, 127
2, 432153, Note_on_c, 0, 57, 18
2, 432294, Note_on_c, 0, 57, 0
2, 432739, Note_on_c, 0, 65, 0
2, 432921, Note_on_c, 0, 63, 69
2, 433717, Control_c, 0, 64, 0
2, 433751, Note_on_c, 0, 63, 0
2, 433850, Note_on_c, 0, 46, 34
2, 433922, Note_on_c, 0, 62, 49
2, 434012, Note_on_c, 0, 57, 20
2, 434324, Note_on_c, 0, 57, 0
2, 434762, Note_on_c, 0, 62, 0
2, 434798, Note_on_c, 0, 63, 55
2, 434818, Note_on_c, 0, 60, 40
2, 434923, Control_c, 0, 64, 127
2, 435005, Note_on_c, 0, 53, 18
2, 435205, Note_on_c, 0, 60, 0
2, 435230, Control_c, 0, 64, 0
2, 435325, Note_on_c, 0, 63, 0
2, 435386, Note_on_c, 0, 53, 0
2, 435440, Note_on_c, 0, 62, 65
2, 435481, Note_on_c, 0, 65, 62
2, 435502, Note_on_c, 0, 55, 36
2, 435722, Control_c, 0, 64, 127
2, 436449, Note_on_c, 0, 55, 0
2, 436551, Note_on_c, 0, 62, 0
2, 436636, Note_on_c, 0, 60, 48
2, 436643, Note_on_c, 0, 65, 0
2, 436659, Note_on_c, 0, 53, 45
2, 436769, Note_on_c, 0, 46, 0
2, 436866, Note_on_c, 0, 60, 0
2, 436943, Note_on_c, 0, 53, 0
2, 437591, Control_c, 0, 64, 0
2, 437690, Note_on_c, 0, 50, 63
2, 438103, Control_c, 0, 64, 127
2, 439104, Control_c, 0, 64, 0
2, 439152, Note_on_c, 0, 69, 74
2, 439165, Note_on_c, 0, 62, 87
2, 439170, Note_on_c, 0, 65, 68
2, 439178, Note_on_c, 0, 60, 80
2, 439186, Note_on_c, 0, 57, 82
2, 439383, Note_on_c, 0, 50, 0
2, 439644, Control_c, 0, 64, 127
2, 440361, Note_on_c, 0, 65, 0
2, 440435, Note_on_c, 0, 60, 0
2, 440588, Note_on_c, 0, 62, 0
2, 440965, Note_on_c, 0, 57, 0
2, 441003, Note_on_c, 0, 69, 0
2, 441134, Note_on_c, 0, 65, 34
2, 441295, Note_on_c, 0, 65, 0
2, 441543, Control_c, 0, 64, 0
2, 441605, Note_on_c, 0, 67, 64
2, 441628, Note_on_c, 0, 58, 75
2, 441630, Note_on_c, 0, 55, 53
2, 441638, Note_on_c, 0, 64, 65
2, 441651, Note_on_c, 0, 62, 68
2, 442365, Control_c, 0, 64, 127
2, 442713, Note_on_c, 0, 58, 0
2, 442718, Note_on_c, 0, 62, 0
2, 442767, Note_on_c, 0, 64, 0
2, 442877, Control_c, 0, 64, 0
2, 442918, Note_on_c, 0, 67, 0
2, 443051, Note_on_c, 0, 58, 65
2, 443079, Note_on_c, 0, 69, 54
2, 443097, Note_on_c, 0, 62, 46
2, 443102, Note_on_c, 0, 55, 0
2, 443113, Note_on_c, 0, 64, 36
2, 443118, Note_on_c, 0, 57, 49
2, 443468, Control_c, 0, 64, 127
2, 443783, Note_on_c, 0, 64, 0
2, 443796, Note_on_c, 0, 62, 0
2, 444026, Note_on_c, 0, 58, 0
2, 444080, Note_on_c, 0, 69, 0
2, 444226, Note_on_c, 0, 57, 0
2, 444505, Note_on_c, 0, 67, 53
2, 444510, Note_on_c, 0, 58, 52
2, 444521, Control_c, 0, 64, 0
2, 444544, Note_on_c, 0, 62, 57
2, 444546, Note_on_c, 0, 57, 45
2, 445240, Control_c, 0, 64, 127
2, 445755, Note_on_c, 0, 57, 0
2, 445908, Control_c, 0, 64, 0
2, 445985, Note_on_c, 0, 55, 44
2, 446420, Control_c, 0, 64, 127
2, 446924, Note_on_c, 0, 62, 0
2, 446929, Note_on_c, 0, 55, 0
2, 446983, Note_on_c, 0, 58, 0
2, 447088, Control_c, 0, 64, 0
2, 447191, Control_c, 0, 64, 127
2, 447260, Note_on_c, 0, 58, 36
2, 447288, Note_on_c, 0, 55, 36
2, 447321, Note_on_c, 0, 62, 38
2, 447680, Note_on_c, 0, 55, 0
2, 448179, Note_on_c, 0, 58, 0
2, 448266, Note_on_c, 0, 62, 0
2, 448273, Note_on_c, 0, 55, 31
2, 448465, Note_on_c, 0, 55, 0
2, 448765, Note_on_c, 0, 67, 0
2, 448931, Control_c, 0, 64, 0
2, 449172, Note_on_c, 0, 60, 46
2, 449210, Note_on_c, 0, 69, 48
2, 449228, Note_on_c, 0, 65, 38
2, 449233, Note_on_c, 0, 51, 33
2, 449474, Control_c, 0, 64, 127
2, 449774, Note_on_c, 0, 60, 0
2, 449914, Note_on_c, 0, 65, 0
2, 449963, Note_on_c, 0, 69, 0
2, 451832, Note_on_c, 0, 79, 79
2, 451845, Note_on_c, 0, 72, 81
2, 451860, Note_on_c, 0, 60, 38
2, 452385, Note_on_c, 0, 51, 0
2, 452416, Note_on_c, 0, 79, 0
2, 452544, Note_on_c, 0, 72, 0
2, 452577, Note_on_c, 0, 51, 46
2, 452579, Note_on_c, 0, 77, 53
2, 452943, Note_on_c, 0, 60, 0
2, 452986, Note_on_c, 0, 77, 0
2, 453071, Note_on_c, 0, 51, 0
2, 453168, Control_c, 0, 64, 0
2, 453201, Note_on_c, 0, 77, 44
2, 453224, Note_on_c, 0, 65, 46
2, 453260, Note_on_c, 0, 72, 43
2, 453314, Note_on_c, 0, 57, 36
2, 453342, Note_on_c, 0, 60, 14
2, 453345, Note_on_c, 0, 50, 37
2, 454804, Note_on_c, 0, 65, 0
2, 455070, Note_on_c, 0, 50, 0
2, 455111, Note_on_c, 0, 57, 0
2, 455116, Note_on_c, 0, 72, 0
2, 455237, Note_on_c, 0, 60, 0
2, 455367, Note_on_c, 0, 77, 0
2, 455715, Note_on_c, 0, 55, 36
2, 455720, Note_on_c, 0, 77, 56
2, 455774, Note_on_c, 0, 58, 32
2, 455782, Note_on_c, 0, 62, 13
2, 456020, Note_on_c, 0, 77, 0
2, 456053, Note_on_c, 0, 55, 0
2, 456056, Note_on_c, 0, 62, 0
2, 456084, Note_on_c, 0, 58, 0
2, 456174, Control_c, 0, 64, 127
2, 456325, Control_c, 0, 64, 0
2, 456427, Control_c, 0, 64, 127
2, 456512, Note_on_c, 0, 79, 38
2, 456760, Note_on_c, 0, 79, 0
2, 457118, Control_c, 0, 64, 0
2, 457152, Note_on_c, 0, 64, 28
2, 457200, Note_on_c, 0, 86, 51
2, 457246, Note_on_c, 0, 60, 20
2, 457249, Note_on_c, 0, 55, 24
2, 457254, Note_on_c, 0, 57, 25
2, 457400, Note_on_c, 0, 60, 0
2, 457420, Note_on_c, 0, 55, 0
2, 457428, Note_on_c, 0, 86, 0
2, 457443, Note_on_c, 0, 64, 0
2, 457477, Note_on_c, 0, 57, 0
2, 457881, Note_on_c, 0, 86, 54
2, 457917, Note_on_c, 0, 64, 27
2, 457981, Note_on_c, 0, 60, 24
2, 458007, Note_on_c, 0, 57, 25
2, 458022, Note_on_c, 0, 55, 19
2, 458147, Note_on_c, 0, 55, 0
2, 458150, Note_on_c, 0, 60, 0
2, 458152, Note_on_c, 0, 64, 0
2, 458178, Note_on_c, 0, 57, 0
2, 458206, Note_on_c, 0, 86, 0
2, 458608, Note_on_c, 0, 86, 54
2, 458664, Note_on_c, 0, 74, 32
2, 458711, Note_on_c, 0, 64, 17
2, 458736, Note_on_c, 0, 57, 24
2, 458744, Note_on_c, 0, 55, 24
2, 458759, Note_on_c, 0, 60, 18
2, 458880, Note_on_c, 0, 74, 0
2, 458908, Note_on_c, 0, 60, 0
2, 458910, Note_on_c, 0, 55, 0
2, 458926, Note_on_c, 0, 64, 0
2, 458954, Note_on_c, 0, 57, 0
2, 458987, Note_on_c, 0, 86, 0
2, 459266, Note_on_c, 0, 86, 46
2, 459302, Note_on_c, 0, 74, 46
2, 459330, Note_on_c, 0, 64, 25
2, 459353, Control_c, 0, 64, 127
2, 459435, Note_on_c, 0, 57, 15
2, 459558, Note_on_c, 0, 74, 0
2, 459578, Note_on_c, 0, 64, 0
2, 459637, Note_on_c, 0, 86, 0
2, 459648, Note_on_c, 0, 57, 0
2, 459968, Note_on_c, 0, 86, 47
2, 460049, Note_on_c, 0, 74, 24
2, 460139, Note_on_c, 0, 74, 0
2, 460262, Note_on_c, 0, 86, 0
2, 460480, Control_c, 0, 64, 0
2, 460669, Note_on_c, 0, 60, 24
2, 460672, Note_on_c, 0, 76, 52
2, 460674, Note_on_c, 0, 86, 52
2, 460707, Note_on_c, 0, 80, 38
2, 460736, Note_on_c, 0, 64, 32
2, 460771, Note_on_c, 0, 54, 35
2, 461637, Control_c, 0, 64, 127
2, 461829, Note_on_c, 0, 64, 0
2, 461923, Note_on_c, 0, 60, 0
2, 462008, Note_on_c, 0, 54, 0
2, 462310, Note_on_c, 0, 64, 38
2, 462312, Note_on_c, 0, 54, 38
2, 462325, Note_on_c, 0, 60, 34
2, 462328, Control_c, 0, 64, 0
2, 462484, Control_c, 0, 64, 127
2, 463150, Note_on_c, 0, 64, 0
2, 463237, Note_on_c, 0, 60, 0
2, 463283, Note_on_c, 0, 54, 0
2, 463485, Control_c, 0, 64, 0
2, 463633, Note_on_c, 0, 64, 44
2, 463669, Note_on_c, 0, 60, 31
2, 463682, Note_on_c, 0, 54, 29
2, 463774, Note_on_c, 0, 64, 0
2, 463782, Note_on_c, 0, 60, 0
2, 463808, Note_on_c, 0, 76, 0
2, 463823, Note_on_c, 0, 86, 0
2, 463825, Note_on_c, 0, 54, 0
2, 463882, Note_on_c, 0, 80, 0
2, 464519, Note_on_c, 0, 80, 69
2, 464524, Note_on_c, 0, 86, 73
2, 464537, Note_on_c, 0, 74, 69
2, 464540, Note_on_c, 0, 65, 66
2, 464547, Note_on_c, 0, 54, 68
2, 464558, Note_on_c, 0, 60, 55
2, 465684, Note_on_c, 0, 74, 0
2, 465694, Control_c, 0, 64, 127
2, 465794, Note_on_c, 0, 86, 0
2, 465812, Note_on_c, 0, 80, 0
2, 466014, Note_on_c, 0, 65, 0
2, 466096, Note_on_c, 0, 54, 0
2, 466147, Note_on_c, 0, 60, 0
2, 466565, Control_c, 0, 64, 0
2, 466580, Note_on_c, 0, 54, 73
2, 466583, Note_on_c, 0, 60, 69
2, 466585, Note_on_c, 0, 65, 71
2, 466598, Note_on_c, 0, 89, 80
2, 466600, Note_on_c, 0, 84, 83
2, 466603, Note_on_c, 0, 77, 81
2, 466777, Note_on_c, 0, 65, 0
2, 466780, Note_on_c, 0, 77, 0
2, 466813, Note_on_c, 0, 84, 0
2, 466821, Note_on_c, 0, 60, 0
2, 466895, Note_on_c, 0, 89, 0
2, 466910, Note_on_c, 0, 54, 0
2, 467584, Note_on_c, 0, 60, 62
2, 467589, Note_on_c, 0, 88, 68
2, 467599, Note_on_c, 0, 54, 67
2, 467609, Note_on_c, 0, 65, 61
2, 467612, Note_on_c, 0, 76, 73
2, 467614, Note_on_c, 0, 83, 71
2, 467719, Note_on_c, 0, 65, 0
2, 467786, Note_on_c, 0, 83, 0
2, 467791, Note_on_c, 0, 76, 0
2, 467809, Note_on_c, 0, 88, 0
2, 467819, Note_on_c, 0, 60, 0
2, 467911, Note_on_c, 0, 54, 0
2, 468541, Note_on_c, 0, 87, 70
2, 468544, Note_on_c, 0, 64, 73
2, 468546, Note_on_c, 0, 75, 74
2, 468561, Note_on_c, 0, 53, 68
2, 468564, Note_on_c, 0, 59, 60
2, 468572, Note_on_c, 0, 82, 62
2, 469199, Control_c, 0, 64, 127
2, 469936, Note_on_c, 0, 64, 0
2, 469952, Note_on_c, 0, 59, 0
2, 469982, Note_on_c, 0, 53, 0
2, 470177, Note_on_c, 0, 87, 0
2, 470236, Note_on_c, 0, 82, 0
2, 470241, Note_on_c, 0, 75, 0
2, 470412, Note_on_c, 0, 86, 61
2, 470425, Note_on_c, 0, 74, 58
2, 470430, Note_on_c, 0, 53, 37
2, 470433, Note_on_c, 0, 64, 44
2, 470453, Note_on_c, 0, 59, 50
2, 470507, Control_c, 0, 64, 0
2, 471234, Note_on_c, 0, 59, 0
2, 471270, Note_on_c, 0, 53, 0
2, 471303, Control_c, 0, 64, 127
2, 471480, Note_on_c, 0, 64, 0
2, 471508, Note_on_c, 0, 74, 0
2, 471656, Note_on_c, 0, 86, 0
2, 471933, Note_on_c, 0, 82, 29
2, 472153, Control_c, 0, 64, 0
2, 472158, Note_on_c, 0, 82, 0
2, 472320, Note_on_c, 0, 67, 44
2, 472327, Note_on_c, 0, 74, 59
2, 472343, Note_on_c, 0, 86, 49
2, 472363, Note_on_c, 0, 58, 34
2, 472373, Note_on_c, 0, 63, 37
2, 472386, Note_on_c, 0, 82, 23
2, 472445, Note_on_c, 0, 62, 25
2, 473095, Note_on_c, 0, 58, 0
2, 473098, Note_on_c, 0, 86, 0
2, 473113, Note_on_c, 0, 67, 0
2, 473128, Control_c, 0, 64, 127
2, 473139, Note_on_c, 0, 62, 0
2, 473185, Note_on_c, 0, 74, 0
2, 473264, Note_on_c, 0, 63, 0
2, 473351, Note_on_c, 0, 82, 0
2, 473692, Control_c, 0, 64, 0
2, 473763, Note_on_c, 0, 84, 63
2, 473781, Note_on_c, 0, 67, 47
2, 473797, Note_on_c, 0, 58, 46
2, 473815, Note_on_c, 0, 63, 36
2, 473820, Note_on_c, 0, 72, 37
2, 473884, Note_on_c, 0, 62, 32
2, 473986, Note_on_c, 0, 72, 0
2, 474001, Note_on_c, 0, 62, 0
2, 474086, Note_on_c, 0, 84, 0
2, 474129, Note_on_c, 0, 67, 0
2, 474327, Note_on_c, 0, 83, 46
2, 474421, Note_on_c, 0, 63, 0
2, 474590, Note_on_c, 0, 83, 0
2, 474792, Note_on_c, 0, 67, 37
2, 474821, Note_on_c, 0, 84, 55
2, 474851, Note_on_c, 0, 63, 27
2, 474931, Note_on_c, 0, 67, 0
2, 474959, Note_on_c, 0, 84, 0
2, 475008, Note_on_c, 0, 63, 0
2, 475028, Note_on_c, 0, 58, 0
2, 476029, Control_c, 0, 64, 127
2, 476464, Control_c, 0, 64, 0
2, 476659, Note_on_c, 0, 59, 48
2, 476661, Note_on_c, 0, 91, 66
2, 476674, Note_on_c, 0, 67, 45
2, 476687, Note_on_c, 0, 79, 51
2, 476707, Note_on_c, 0, 63, 51
2, 477056, Control_c, 0, 64, 127
2, 477524, Note_on_c, 0, 59, 0
2, 477673, Note_on_c, 0, 67, 0
2, 477839, Note_on_c, 0, 63, 0
2, 477929, Control_c, 0, 64, 0
2, 478080, Note_on_c, 0, 67, 49
2, 478085, Note_on_c, 0, 63, 38
2, 478105, Note_on_c, 0, 58, 51
2, 478848, Control_c, 0, 64, 127
2, 478894, Note_on_c, 0, 67, 0
2, 478937, Note_on_c, 0, 91, 0
2, 479011, Note_on_c, 0, 63, 0
2, 479042, Note_on_c, 0, 79, 0
2, 479078, Note_on_c, 0, 58, 0
2, 479849, Control_c, 0, 64, 0
2, 480355, Note_on_c, 0, 63, 44
2, 480371, Note_on_c, 0, 84, 45
2, 480412, Note_on_c, 0, 58, 47
2, 480422, Note_on_c, 0, 72, 32
2, 480425, Note_on_c, 0, 52, 31
2, 480594, Note_on_c, 0, 52, 0
2, 480614, Note_on_c, 0, 63, 0
2, 480647, Note_on_c, 0, 72, 0
2, 480668, Note_on_c, 0, 58, 0
2, 480770, Note_on_c, 0, 84, 0
2, 481827, Note_on_c, 0, 63, 38
2, 481845, Note_on_c, 0, 87, 57
2, 481868, Note_on_c, 0, 75, 38
2, 481881, Note_on_c, 0, 52, 33
2, 481902, Note_on_c, 0, 58, 37
2, 482391, Control_c, 0, 64, 127
2, 482654, Note_on_c, 0, 52, 0
2, 482690, Note_on_c, 0, 63, 0
2, 482736, Note_on_c, 0, 58, 0
2, 482772, Note_on_c, 0, 87, 0
2, 482793, Note_on_c, 0, 75, 0
2, 483202, Note_on_c, 0, 63, 35
2, 483220, Note_on_c, 0, 86, 51
2, 483269, Note_on_c, 0, 74, 35
2, 483271, Note_on_c, 0, 58, 33
2, 483420, Note_on_c, 0, 86, 0
2, 483430, Note_on_c, 0, 74, 0
2, 483463, Note_on_c, 0, 63, 0
2, 483468, Control_c, 0, 64, 0
2, 483614, Note_on_c, 0, 58, 0
2, 483801, Note_on_c, 0, 85, 51
2, 483822, Note_on_c, 0, 51, 30
2, 483824, Note_on_c, 0, 62, 41
2, 483837, Note_on_c, 0, 73, 31
2, 483847, Note_on_c, 0, 57, 42
2, 484597, Control_c, 0, 64, 127
2, 484910, Note_on_c, 0, 62, 0
2, 484951, Note_on_c, 0, 57, 0
2, 484999, Note_on_c, 0, 51, 0
2, 485040, Note_on_c, 0, 73, 0
2, 485074, Note_on_c, 0, 85, 0
2, 485189, Control_c, 0, 64, 0
2, 485322, Note_on_c, 0, 84, 52
2, 485335, Note_on_c, 0, 72, 34
2, 485355, Note_on_c, 0, 51, 37
2, 485419, Control_c, 0, 64, 127
2, 485424, Note_on_c, 0, 62, 26
2, 485447, Note_on_c, 0, 57, 29
2, 485744, Note_on_c, 0, 57, 0
2, 485762, Note_on_c, 0, 72, 0
2, 485842, Note_on_c, 0, 51, 0
2, 486031, Note_on_c, 0, 62, 0
2, 486494, Note_on_c, 0, 84, 0
2, 487552, Control_c, 0, 64, 0
2, 487618, Note_on_c, 0, 65, 28
2, 487634, Note_on_c, 0, 89, 59
2, 487669, Note_on_c, 0, 62, 31
2, 487746, Note_on_c, 0, 60, 19
2, 487805, Note_on_c, 0, 89, 0
2, 488140, Note_on_c, 0, 89, 60
2, 488345, Note_on_c, 0, 65, 0
2, 488373, Note_on_c, 0, 89, 0
2, 488606, Note_on_c, 0, 86, 49
2, 488793, Note_on_c, 0, 86, 0
2, 489010, Note_on_c, 0, 53, 1
2, 489492, Note_on_c, 0, 81, 52
2, 489630, Note_on_c, 0, 81, 0
2, 489871, Note_on_c, 0, 60, 0
2, 489894, Note_on_c, 0, 62, 0
2, 490411, Note_on_c, 0, 76, 47
2, 490557, Note_on_c, 0, 65, 17
2, 490828, Note_on_c, 0, 65, 0
2, 491501, Control_c, 0, 64, 127
2, 492090, Control_c, 0, 64, 0
2, 492372, Control_c, 0, 64, 127
2, 493143, Control_c, 0, 64, 0
2, 493317, Note_on_c, 0, 58, 43
2, 493370, Note_on_c, 0, 63, 27
2, 493373, Note_on_c, 0, 65, 24
2, 493549, Note_on_c, 0, 65, 0
2, 493590, Note_on_c, 0, 63, 0
2, 493626, Note_on_c, 0, 58, 0
2, 494297, Note_on_c, 0, 63, 36
2, 494328, Note_on_c, 0, 65, 38
2, 494345, Note_on_c, 0, 58, 27
2, 494374, Control_c, 0, 64, 127
2, 494479, Control_c, 0, 64, 0
2, 494591, Note_on_c, 0, 65, 0
2, 494597, Note_on_c, 0, 58, 0
2, 494742, Note_on_c, 0, 63, 0
2, 495316, Note_on_c, 0, 65, 34
2, 495334, Note_on_c, 0, 60, 28
2, 495359, Note_on_c, 0, 62, 42
2, 495492, Note_on_c, 0, 76, 0
2, 498248, Note_on_c, 0, 87, 48
2, 498783, Note_on_c, 0, 87, 0
2, 498831, Note_on_c, 0, 86, 49
2, 499180, Note_on_c, 0, 86, 0
2, 499420, Note_on_c, 0, 60, 0
2, 499553, Note_on_c, 0, 65, 0
2, 499558, Note_on_c, 0, 62, 0
2, 499731, Note_on_c, 0, 82, 52
2, 500027, Note_on_c, 0, 82, 0
2, 500681, Note_on_c, 0, 77, 42
2, 501018, Note_on_c, 0, 77, 0
2, 501225, Note_on_c, 0, 79, 25
2, 502033, Note_on_c, 0, 79, 0
2, 502069, Note_on_c, 0, 77, 46
2, 502365, Note_on_c, 0, 77, 0
2, 506610, Note_on_c, 0, 87, 58
2, 506870, Note_on_c, 0, 87, 0
2, 506971, Note_on_c, 0, 86, 44
2, 507341, Note_on_c, 0, 86, 0
2, 507560, Note_on_c, 0, 82, 52
2, 507802, Note_on_c, 0, 82, 0
2, 508516, Note_on_c, 0, 77, 41
2, 508717, Note_on_c, 0, 77, 0
2, 509001, Note_on_c, 0, 79, 32
2, 509762, Note_on_c, 0, 79, 0
2, 509889, Note_on_c, 0, 77, 39
2, 510049, Note_on_c, 0, 77, 0
2, 510919, Note_on_c, 0, 77, 36
2, 511195, Note_on_c, 0, 77, 0
2, 512349, Note_on_c, 0, 74, 35
2, 512521, Note_on_c, 0, 74, 0
2, 512787, Note_on_c, 0, 51, 38
2, 512817, Note_on_c, 0, 75, 35
2, 513225, Note_on_c, 0, 75, 0
2, 513296, Note_on_c, 0, 51, 0
2, 513406, Note_on_c, 0, 53, 24
2, 513489, Note_on_c, 0, 77, 20
2, 513619, Note_on_c, 0, 77, 0
2, 513746, Note_on_c, 0, 53, 0
2, 514235, Note_on_c, 0, 74, 49
2, 514394, Note_on_c, 0, 50, 20
2, 514403, Note_on_c, 0, 74, 0
2, 514465, Note_on_c, 0, 50, 0
2, 515134, Note_on_c, 0, 46, 42
2, 515158, Note_on_c, 0, 70, 46
2, 515398, Note_on_c, 0, 46, 0
2, 515439, Note_on_c, 0, 70, 0
2, 516088, Note_on_c, 0, 45, 22
2, 516357, Note_on_c, 0, 45, 0
2, 516419, Note_on_c, 0, 48, 33
2, 516472, Note_on_c, 0, 72, 38
2, 517224, Note_on_c, 0, 72, 0
2, 517325, Note_on_c, 0, 48, 0
2, 517402, Note_on_c, 0, 46, 35
2, 517408, Note_on_c, 0, 70, 33
2, 517890, Note_on_c, 0, 70, 0
2, 517923, Note_on_c, 0, 46, 0
2, 519997, Note_on_c, 0, 46, 23
2, 520190, Note_on_c, 0, 51, 33
2, 520293, Note_on_c, 0, 75, 39
2, 520296, Note_on_c, 0, 46, 0
2, 521063, Note_on_c, 0, 75, 0
2, 521069, Note_on_c, 0, 51, 0
2, 521246, Note_on_c, 0, 50, 45
2, 521252, Note_on_c, 0, 74, 52
2, 521409, Note_on_c, 0, 50, 0
2, 521471, Note_on_c, 0, 74, 0
2, 524212, Note_on_c, 0, 72, 34
2, 524260, Note_on_c, 0, 48, 25
2, 524920, Note_on_c, 0, 72, 0
2, 525085, Note_on_c, 0, 48, 0
2, 525109, Note_on_c, 0, 70, 35
2, 525130, Note_on_c, 0, 46, 33
2, 525432, Note_on_c, 0, 70, 0
2, 525532, Note_on_c, 0, 46, 0
2, 527619, Note_on_c, 0, 41, 24
2, 527812, Note_on_c, 0, 41, 0
2, 527930, Note_on_c, 0, 43, 31
2, 528022, Note_on_c, 0, 67, 29
2, 528747, Note_on_c, 0, 67, 0
2, 528803, Note_on_c, 0, 43, 0
2, 528957, Note_on_c, 0, 65, 30
2, 528984, Note_on_c, 0, 41, 30
2, 529383, Note_on_c, 0, 65, 0
2, 529398, Note_on_c, 0, 41, 0
2, 532480, Note_on_c, 0, 63, 36
2, 532509, Note_on_c, 0, 39, 34
2, 533622, Note_on_c, 0, 39, 0
2, 533652, Note_on_c, 0, 63, 0
2, 533758, Note_on_c, 0, 38, 39
2, 533797, Note_on_c, 0, 62, 36
2, 534093, Note_on_c, 0, 62, 0
2, 534105, Note_on_c, 0, 38, 0
2, 535700, Note_on_c, 0, 58, 36
2, 535804, Note_on_c, 0, 34, 28
2, 536141, Note_on_c, 0, 34, 0
2, 536174, Note_on_c, 0, 53, 0
2, 536194, Note_on_c, 0, 58, 0
2, 536650, Note_on_c, 0, 33, 30
2, 537088, Note_on_c, 0, 33, 0
2, 537248, Note_on_c, 0, 60, 31
2, 537310, Note_on_c, 0, 36, 24
2, 537615, Note_on_c, 0, 60, 0
2, 537760, Note_on_c, 0, 36, 0
2, 538181, Note_on_c, 0, 33, 20
2, 538382, Note_on_c, 0, 33, 0
2, 538485, Note_on_c, 0, 58, 34
2, 538494, Note_on_c, 0, 34, 28
2, 539095, Note_on_c, 0, 58, 0
2, 539140, Note_on_c, 0, 34, 0
2, 539140, End_track
3, 0, Start_track
3, 0, Title_t, "Bass"
3, 0, Program_c, 1, 32
3, 0, Control_c, 1, 7, 95
3, 3840, Note_on_c, 1, 34, 58
3, 5345, Note_on_c, 1, 41, 58
3, 5883, Note_on_c, 1, 34, 0
3, 6758, Note_on_c, 1, 50, 59
3, 6884, Note_on_c, 1, 41, 0
3, 9164, Note_on_c, 1, 41, 54
3, 9392, Note_on_c, 1, 41, 0
3, 9420, Note_on_c, 1, 50, 0
3, 9626, Note_on_c, 1, 41, 37
3, 10600, Note_on_c, 1, 41, 0
3, 10670, Note_on_c, 1, 39, 49
3, 12988, Note_on_c, 1, 46, 54
3, 14498, Note_on_c, 1, 55, 50
3, 15410, Note_on_c, 1, 46, 0
3, 16769, Note_on_c, 1, 46, 59
3, 16948, Note_on_c, 1, 39, 0
3, 17020, Note_on_c, 1, 46, 0
3, 17226, Note_on_c, 1, 46, 36
3, 17229, Note_on_c, 1, 55, 0
3, 17874, Note_on_c, 1, 46, 0
3, 18231, Note_on_c, 1, 46, 60
3, 20692, Note_on_c, 1, 41, 51
3, 20746, Note_on_c, 1, 46, 0
3, 20899, Note_on_c, 1, 41, 0
3, 21131, Note_on_c, 1, 39, 62
3, 22548, Note_on_c, 1, 44, 58
3, 22602, Note_on_c, 1, 39, 0
3, 24530, Note_on_c, 1, 37, 56
3, 24757, Note_on_c, 1, 44, 0
3, 25982, Note_on_c, 1, 42, 60
3, 26010, Note_on_c, 1, 37, 0
3, 28288, Note_on_c, 1, 37, 49
3, 28307, Note_on_c, 1, 42, 0
3, 28634, Note_on_c, 1, 37, 0
3, 28764, Note_on_c, 1, 30, 47
3, 29580, Note_on_c, 1, 30, 0
3, 29715, Note_on_c, 1, 30, 49
3, 32109, Note_on_c, 1, 37, 57
3, 32267, Note_on_c, 1, 30, 0
3, 32339, Note_on_c, 1, 37, 0
3, 32638, Note_on_c, 1, 37, 46
3, 33457, Note_on_c, 1, 37, 0
3, 33571, Note_on_c, 1, 36, 58
3, 35972, Note_on_c, 1, 48, 76
3, 36025, Note_on_c, 1, 36, 0
3, 36793, Note_on_c, 1, 48, 0
3, 36902, Note_on_c, 1, 42, 68
3, 37399, Note_on_c, 1, 42, 0
3, 37895, Note_on_c, 1, 36, 57
3, 38109, Note_on_c, 1, 36, 0
3, 38371, Note_on_c, 1, 41, 63
3, 39849, Note_on_c, 1, 41, 0
3, 39853, Note_on_c, 1, 36, 54
3, 39983, Note_on_c, 1, 36, 0
3, 40317, Note_on_c, 1, 33, 39
3, 41301, Note_on_c, 1, 34, 69
3, 41340, Note_on_c, 1, 33, 0
3, 43626, Note_on_c, 1, 34, 0
3, 43695, Note_on_c, 1, 36, 66
3, 44925, Note_on_c, 1, 36, 0
3, 45022, Note_on_c, 1, 34, 41
3, 45113, Note_on_c, 1, 34, 0
3, 45437, Note_on_c, 1, 33, 61
3, 45656, Note_on_c, 1, 33, 0
3, 45901, Note_on_c, 1, 32, 57
3, 47287, Note_on_c, 1, 32, 0
3, 47303, Note_on_c, 1, 37, 66
3, 48699, Note_on_c, 1, 37, 0
3, 48811, Note_on_c, 1, 30, 62
3, 49263, Note_on_c, 1, 30, 0
3, 49412, Note_on_c, 1, 30, 60
3, 51316, Note_on_c, 1, 36, 71
3, 51430, Note_on_c, 1, 30, 0
3, 51585, Note_on_c, 1, 36, 0
3, 51780, Note_on_c, 1, 36, 59
3, 52729, Note_on_c, 1, 41, 75
3, 52732, Note_on_c, 1, 36, 0
3, 55212, Note_on_c, 1, 29, 62
3, 55437, Note_on_c, 1, 29, 0
3, 55648, Note_on_c, 1, 29, 51
3, 55898, Note_on_c, 1, 41, 0
3, 56541, Note_on_c, 1, 29, 0
3, 56666, Note_on_c, 1, 34, 78
3, 59091, Note_on_c, 1, 41, 56
3, 59355, Note_on_c, 1, 34, 0
3, 59402, Note_on_c, 1, 41, 0
3, 59594, Note_on_c, 1, 50, 78
3, 60098, Note_on_c, 1, 50, 0
3, 60151, Note_on_c, 1, 49, 45
3, 60214, Note_on_c, 1, 41, 21
3, 60327, Note_on_c, 1, 49, 0
3, 60404, Note_on_c, 1, 41, 0
3, 60580, Note_on_c, 1, 50, 72
3, 62206, Note_on_c, 1, 50, 0
3, 62313, Note_on_c, 1, 48, 67
3, 63652, Note_on_c, 1, 48, 0
3, 63752, Note_on_c, 1, 41, 69
3, 64408, Note_on_c, 1, 41, 0
3, 64633, Note_on_c, 1, 34, 78
3, 64886, Note_on_c, 1, 34, 0
3, 65109, Note_on_c, 1, 34, 75
3, 66561, Note_on_c, 1, 41, 52
3, 66626, Note_on_c, 1, 34, 0
3, 66717, Note_on_c, 1, 41, 0
3, 67067, Note_on_c, 1, 41, 63
3, 68582, Note_on_c, 1, 34, 70
3, 68684, Note_on_c, 1, 41, 0
3, 70586, Note_on_c, 1, 41, 59
3, 70779, Note_on_c, 1, 41, 0
3, 70932, Note_on_c, 1, 34, 0
3, 71032, Note_on_c, 1, 41, 52
3, 71862, Note_on_c, 1, 41, 0
3, 71941, Note_on_c, 1, 39, 68
3, 74328, Note_on_c, 1, 46, 57
3, 75305, Note_on_c, 1, 55, 75
3, 75546, Note_on_c, 1, 46, 0
3, 76365, Note_on_c, 1, 55, 0
3, 76379, Note_on_c, 1, 54, 45
3, 76604, Note_on_c, 1, 54, 0
3, 76811, Note_on_c, 1, 55, 58
3, 77089, Note_on_c, 1, 55, 0
3, 77363, Note_on_c, 1, 46, 58
3, 77365, Note_on_c, 1, 39, 0
3, 77544, Note_on_c, 1, 46, 0
3, 78268, Note_on_c, 1, 46, 49
3, 78530, Note_on_c, 1, 46, 0
3, 78681, Note_on_c, 1, 39, 58
3, 78966, Note_on_c, 1, 39, 0
3, 79221, Note_on_c, 1, 39, 57
3, 79477, Note_on_c, 1, 39, 0
3, 79616, Note_on_c, 1, 39, 61
3, 80428, Note_on_c, 1, 39, 0
3, 80500, Note_on_c, 1, 46, 45
3, 80592, Note_on_c, 1, 44, 26
3, 80785, Note_on_c, 1, 44, 0
3, 82010, Note_on_c, 1, 39, 57
3, 82042, Note_on_c, 1, 46, 0
3, 82265, Note_on_c, 1, 39, 0
3, 82472, Note_on_c, 1, 39, 58
3, 83386, Note_on_c, 1, 39, 0
3, 83409, Note_on_c, 1, 44, 72
3, 85884, Note_on_c, 1, 44, 0
3, 85896, Note_on_c, 1, 37, 65
3, 86205, Note_on_c, 1, 37, 0
3, 86376, Note_on_c, 1, 37, 55
3, 87358, Note_on_c, 1, 37, 0
3, 87374, Note_on_c, 1, 42, 74
3, 89710, Note_on_c, 1, 37, 64
3, 89715, Note_on_c, 1, 42, 0
3, 90991, Note_on_c, 1, 37, 0
3, 91060, Note_on_c, 1, 30, 61
3, 93564, Note_on_c, 1, 37, 78
3, 93703, Note_on_c, 1, 30, 0
3, 95014, Note_on_c, 1, 37, 0
3, 95095, Note_on_c, 1, 39, 87
3, 97352, Note_on_c, 1, 39, 0
3, 97454, Note_on_c, 1, 34, 59
3, 97716, Note_on_c, 1, 34, 0
3, 97904, Note_on_c, 1, 34, 57
3, 98770, Note_on_c, 1, 34, 0
3, 98897, Note_on_c, 1, 32, 72
3, 101340, Note_on_c, 1, 39, 74
3, 101572, Note_on_c, 1, 39, 0
3, 101774, Note_on_c, 1, 39, 62
3, 102254, Note_on_c, 1, 32, 0
3, 102672, Note_on_c, 1, 49, 79
3, 102723, Note_on_c, 1, 39, 0
3, 103978, Note_on_c, 1, 49, 0
3, 104159, Note_on_c, 1, 49, 75
3, 105113, Note_on_c, 1, 37, 56
3, 105270, Note_on_c, 1, 49, 0
3, 105289, Note_on_c, 1, 37, 0
3, 105546, Note_on_c, 1, 37, 70
3, 107523, Note_on_c, 1, 44, 59
3, 107542, Note_on_c, 1, 37, 0
3, 107767, Note_on_c, 1, 44, 0
3, 107987, Note_on_c, 1, 44, 57
3, 108156, Note_on_c, 1, 44, 0
3, 108430, Note_on_c, 1, 37, 63
3, 109899, Note_on_c, 1, 44, 68
3, 110075, Note_on_c, 1, 37, 0
3, 110785, Note_on_c, 1, 35, 56
3, 110850, Note_on_c, 1, 44, 0
3, 111149, Note_on_c, 1, 35, 0
3, 111226, Note_on_c, 1, 36, 79
3, 112792, Note_on_c, 1, 34, 51
3, 113017, Note_on_c, 1, 36, 0
3, 113154, Note_on_c, 1, 34, 0
3, 113193, Note_on_c, 1, 42, 77
3, 114631, Note_on_c, 1, 42, 0
3, 114708, Note_on_c, 1, 41, 75
3, 115685, Note_on_c, 1, 36, 37
3, 115949, Note_on_c, 1, 36, 0
3, 115979, Note_on_c, 1, 41, 0
3, 116137, Note_on_c, 1, 29, 67
3, 117325, Note_on_c, 1, 29, 0
3, 117457, Note_on_c, 1, 32, 68
3, 117719, Note_on_c, 1, 32, 0
3, 117905, Note_on_c, 1, 33, 67
3, 118582, Note_on_c, 1, 34, 82
3, 118659, Note_on_c, 1, 33, 0
3, 120315, Note_on_c, 1, 34, 0
3, 120366, Note_on_c, 1, 38, 89
3, 121636, Note_on_c, 1, 38, 0
3, 121766, Note_on_c, 1, 39, 87
3, 123167, Note_on_c, 1, 39, 0
3, 123276, Note_on_c, 1, 40, 82
3, 124285, Note_on_c, 1, 39, 51
3, 124603, Note_on_c, 1, 39, 0
3, 124635, Note_on_c, 1, 40, 0
3, 124679, Note_on_c, 1, 41, 76
3, 125645, Note_on_c, 1, 39, 82
3, 125689, Note_on_c, 1, 41, 0
3, 126607, Note_on_c, 1, 39, 0
3, 126677, Note_on_c, 1, 40, 78
3, 128157, Note_on_c, 1, 46, 68
3, 128487, Note_on_c, 1, 46, 0
3, 128498, Note_on_c, 1, 40, 0
3, 128668, Note_on_c, 1, 46, 65
3, 130108, Note_on_c, 1, 46, 0
3, 130129, Note_on_c, 1, 39, 80
3, 130449, Note_on_c, 1, 39, 0
3, 130607, Note_on_c, 1, 39, 70
3, 132120, Note_on_c, 1, 46, 76
3, 132394, Note_on_c, 1, 46, 0
3, 132484, Note_on_c, 1, 39, 0
3, 132577, Note_on_c, 1, 46, 68
3, 133057, Note_on_c, 1, 39, 56
3, 133245, Note_on_c, 1, 46, 0
3, 133326, Note_on_c, 1, 39, 0
3, 133523, Note_on_c, 1, 44, 69
3, 134354, Note_on_c, 1, 44, 0
3, 134470, Note_on_c, 1, 38, 76
3, 136003, Note_on_c, 1, 45, 85
3, 136034, Note_on_c, 1, 46, 53
3, 136157, Note_on_c, 1, 38, 0
3, 136235, Note_on_c, 1, 46, 0
3, 136901, Note_on_c, 1, 38, 65
3, 137103, Note_on_c, 1, 38, 0
3, 137156, Note_on_c, 1, 45, 0
3, 137398, Note_on_c, 1, 44, 78
3, 138799, Note_on_c, 1, 44, 0
3, 138869, Note_on_c, 1, 43, 72
3, 139602, Note_on_c, 1, 43, 0
3, 139683, Note_on_c, 1, 38, 75
3, 139957, Note_on_c, 1, 38, 0
3, 140154, Note_on_c, 1, 34, 54
3, 140848, Note_on_c, 1, 34, 0
3, 140961, Note_on_c, 1, 35, 63
3, 141917, Note_on_c, 1, 35, 0
3, 141950, Note_on_c, 1, 36, 68
3, 143502, Note_on_c, 1, 48, 93
3, 143710, Note_on_c, 1, 36, 0
3, 143852, Note_on_c, 1, 48, 0
3, 143993, Note_on_c, 1, 48, 77
3, 144901, Note_on_c, 1, 48, 0
3, 144949, Note_on_c, 1, 29, 74
3, 147355, Note_on_c, 1, 29, 0
3, 147399, Note_on_c, 1, 36, 82
3, 148142, Note_on_c, 1, 36, 0
3, 148299, Note_on_c, 1, 36, 72
3, 148610, Note_on_c, 1, 36, 0
3, 148810, Note_on_c, 1, 34, 76
3, 151183, Note_on_c, 1, 34, 0
3, 151211, Note_on_c, 1, 41, 75
3, 152248, Note_on_c, 1, 39, 47
3, 152431, Note_on_c, 1, 39, 0
3, 152552, Note_on_c, 1, 41, 0
3, 152675, Note_on_c, 1, 42, 69
3, 154136, Note_on_c, 1, 43, 75
3, 154155, Note_on_c, 1, 42, 0
3, 155083, Note_on_c, 1, 38, 69
3, 155306, Note_on_c, 1, 38, 0
3, 155361, Note_on_c, 1, 43, 0
3, 155552, Note_on_c, 1, 53, 69
3, 156037, Note_on_c, 1, 38, 57
3, 156269, Note_on_c, 1, 38, 0
3, 156308, Note_on_c, 1, 53, 0
3, 156470, Note_on_c, 1, 50, 75
3, 157025, Note_on_c, 1, 39, 36
3, 157115, Note_on_c, 1, 39, 0
3, 157271, Note_on_c, 1, 50, 0
3, 157468, Note_on_c, 1, 51, 79
3, 158904, Note_on_c, 1, 39, 65
3, 159071, Note_on_c, 1, 51, 0
3, 159164, Note_on_c, 1, 39, 0
3, 159364, Note_on_c, 1, 39, 68
3, 160837, Note_on_c, 1, 51, 84
3, 160950, Note_on_c, 1, 39, 0
3, 162741, Note_on_c, 1, 44, 63
3, 162976, Note_on_c, 1, 51, 0
3, 162985, Note_on_c, 1, 44, 0
3, 163168, Note_on_c, 1, 44, 63
3, 164609, Note_on_c, 1, 37, 58
3, 164632, Note_on_c, 1, 44, 0
3, 164832, Note_on_c, 1, 37, 0
3, 165087, Note_on_c, 1, 37, 79
3, 166989, Note_on_c, 1, 49, 84
3, 167145, Note_on_c, 1, 37, 0
3, 169437, Note_on_c, 1, 46, 76
3, 169592, Note_on_c, 1, 49, 0
3, 170407, Note_on_c, 1, 37, 43
3, 170632, Note_on_c, 1, 37, 0
3, 170847, Note_on_c, 1, 41, 30
3, 170901, Note_on_c, 1, 43, 27
3, 171010, Note_on_c, 1, 43, 0
3, 171671, Note_on_c, 1, 41, 0
3, 171743, Note_on_c, 1, 46, 0
3, 171745, Note_on_c, 1, 32, 65
3, 172613, Note_on_c, 1, 32, 0
3, 172678, Note_on_c, 1, 31, 65
3, 174172, Note_on_c, 1, 34, 69
3, 174251, Note_on_c, 1, 31, 0
3, 174376, Note_on_c, 1, 34, 0
3, 174599, Note_on_c, 1, 34, 68
3, 176070, Note_on_c, 1, 34, 0
3, 176132, Note_on_c, 1, 36, 73
3, 176381, Note_on_c, 1, 36, 0
3, 176564, Note_on_c, 1, 36, 61
3, 178084, Note_on_c, 1, 43, 67
3, 178348, Note_on_c, 1, 43, 0
3, 178573, Note_on_c, 1, 48, 74
3, 178879, Note_on_c, 1, 48, 0
3, 178972, Note_on_c, 1, 36, 0
3, 179088, Note_on_c, 1, 48, 69
3, 179406, Note_on_c, 1, 48, 0
3, 179582, Note_on_c, 1, 42, 65
3, 180366, Note_on_c, 1, 42, 0
3, 180487, Note_on_c, 1, 41, 65
3, 181944, Note_on_c, 1, 41, 0
3, 182009, Note_on_c, 1, 36, 81
3, 183104, Note_on_c, 1, 36, 0
3, 183301, Note_on_c, 1, 35, 79
3, 185765, Note_on_c, 1, 47, 91
3, 186412, Note_on_c, 1, 35, 0
3, 187050, Note_on_c, 1, 47, 0
3, 187129, Note_on_c, 1, 46, 83
3, 189554, Note_on_c, 1, 41, 75
3, 189656, Note_on_c, 1, 46, 0
3, 189841, Note_on_c, 1, 41, 0
3, 190043, Note_on_c, 1, 41, 61
3, 190906, Note_on_c, 1, 41, 0
3, 190969, Note_on_c, 1, 38, 77
3, 193419, Note_on_c, 1, 38, 0
3, 193465, Note_on_c, 1, 31, 60
3, 194706, Note_on_c, 1, 31, 0
3, 194755, Note_on_c, 1, 40, 58
3, 194792, Note_on_c, 1, 38, 58
3, 194878, Note_on_c, 1, 38, 0
3, 197203, Note_on_c, 1, 40, 0
3, 197219, Note_on_c, 1, 34, 65
3, 197488, Note_on_c, 1, 34, 0
3, 197732, Note_on_c, 1, 34, 56
3, 199230, Note_on_c, 1, 34, 0
3, 199279, Note_on_c, 1, 40, 79
3, 201086, Note_on_c, 1, 46, 78
3, 201103, Note_on_c, 1, 40, 0
3, 201766, Note_on_c, 1, 46, 0
3, 201996, Note_on_c, 1, 46, 63
3, 202288, Note_on_c, 1, 46, 0
3, 202441, Note_on_c, 1, 40, 60
3, 202680, Note_on_c, 1, 40, 0
3, 203003, Note_on_c, 1, 40, 61
3, 203337, Note_on_c, 1, 40, 0
3, 203464, Note_on_c, 1, 39, 78
3, 205383, Note_on_c, 1, 46, 83
3, 205506, Note_on_c, 1, 39, 0
3, 206863, Note_on_c, 1, 39, 68
3, 207088, Note_on_c, 1, 46, 0
3, 207128, Note_on_c, 1, 39, 0
3, 207327, Note_on_c, 1, 38, 67
3, 208905, Note_on_c, 1, 45, 82
3, 208942, Note_on_c, 1, 46, 49
3, 209035, Note_on_c, 1, 38, 0
3, 209046, Note_on_c, 1, 46, 0
3, 209232, Note_on_c, 1, 45, 0
3, 209366, Note_on_c, 1, 43, 59
3, 209561, Note_on_c, 1, 43, 0
3, 209847, Note_on_c, 1, 38, 64
3, 210046, Note_on_c, 1, 38, 0
3, 210334, Note_on_c, 1, 34, 60
3, 211220, Note_on_c, 1, 34, 0
3, 211257, Note_on_c, 1, 33, 67
3, 213071, Note_on_c, 1, 40, 69
3, 213092, Note_on_c, 1, 33, 0
3, 214436, Note_on_c, 1, 40, 0
3, 214531, Note_on_c, 1, 38, 71
3, 215417, Note_on_c, 1, 52, 49
3, 215565, Note_on_c, 1, 52, 0
3, 215853, Note_on_c, 1, 53, 65
3, 216336, Note_on_c, 1, 53, 0
3, 216480, Note_on_c, 1, 54, 73
3, 216670, Note_on_c, 1, 38, 0
3, 217384, Note_on_c, 1, 38, 58
3, 217702, Note_on_c, 1, 54, 0
3, 217793, Note_on_c, 1, 38, 0
3, 217872, Note_on_c, 1, 50, 49
3, 218240, Note_on_c, 1, 50, 0
3, 218315, Note_on_c, 1, 38, 57
3, 218586, Note_on_c, 1, 38, 0
3, 218790, Note_on_c, 1, 44, 78
3, 220147, Note_on_c, 1, 44, 0
3, 220326, Note_on_c, 1, 42, 78
3, 221607, Note_on_c, 1, 42, 0
3, 221716, Note_on_c, 1, 43, 78
3, 223161, Note_on_c, 1, 38, 58
3, 223261, Note_on_c, 1, 38, 0
3, 223620, Note_on_c, 1, 43, 0
3, 223678, Note_on_c, 1, 31, 78
3, 225098, Note_on_c, 1, 34, 70
3, 225115, Note_on_c, 1, 31, 0
3, 226017, Note_on_c, 1, 34, 0
3, 226057, Note_on_c, 1, 35, 63
3, 226430, Note_on_c, 1, 35, 0
3, 226520, Note_on_c, 1, 36, 72
3, 228409, Note_on_c, 1, 36, 0
3, 228453, Note_on_c, 1, 48, 93
3, 229687, Note_on_c, 1, 48, 0
3, 229894, Note_on_c, 1, 48, 88
3, 230690, Note_on_c, 1, 48, 0
3, 230757, Note_on_c, 1, 47, 46
3, 231052, Note_on_c, 1, 47, 0
3, 231233, Note_on_c, 1, 48, 75
3, 232724, Note_on_c, 1, 34, 61
3, 232961, Note_on_c, 1, 48, 0
3, 232991, Note_on_c, 1, 34, 0
3, 233137, Note_on_c, 1, 35, 64
3, 234044, Note_on_c, 1, 35, 0
3, 234142, Note_on_c, 1, 36, 70
3, 235596, Note_on_c, 1, 42, 77
3, 235626, Note_on_c, 1, 36, 0
3, 237585, Note_on_c, 1, 42, 0
3, 237617, Note_on_c, 1, 36, 27
3, 237791, Note_on_c, 1, 36, 0
3, 237921, Note_on_c, 1, 42, 78
3, 239438, Note_on_c, 1, 41, 70
3, 239480, Note_on_c, 1, 42, 0
3, 240415, Note_on_c, 1, 36, 64
3, 240524, Note_on_c, 1, 41, 0
3, 240619, Note_on_c, 1, 36, 0
3, 240900, Note_on_c, 1, 33, 57
3, 241763, Note_on_c, 1, 33, 0
3, 241814, Note_on_c, 1, 34, 66
3, 243308, Note_on_c, 1, 34, 0
3, 243322, Note_on_c, 1, 41, 74
3, 244658, Note_on_c, 1, 53, 76
3, 245839, Note_on_c, 1, 41, 0
3, 246224, Note_on_c, 1, 41, 70
3, 246637, Note_on_c, 1, 41, 0
3, 247127, Note_on_c, 1, 41, 63
3, 247342, Note_on_c, 1, 41, 0
3, 247593, Note_on_c, 1, 41, 69
3, 247612, Note_on_c, 1, 53, 0
3, 249048, Note_on_c, 1, 41, 0
3, 249066, Note_on_c, 1, 34, 81
3, 251008, Note_on_c, 1, 41, 77
3, 251015, Note_on_c, 1, 34, 0
3, 252460, Note_on_c, 1, 50, 93
3, 252528, Note_on_c, 1, 41, 0
3, 254040, Note_on_c, 1, 41, 75
3, 255335, Note_on_c, 1, 41, 0
3, 255405, Note_on_c, 1, 34, 66
3, 255544, Note_on_c, 1, 50, 0
3, 255639, Note_on_c, 1, 34, 0
3, 255917, Note_on_c, 1, 34, 68
3, 256349, Note_on_c, 1, 34, 0
3, 256400, Note_on_c, 1, 41, 70
3, 257221, Note_on_c, 1, 41, 0
3, 257358, Note_on_c, 1, 39, 64
3, 258854, Note_on_c, 1, 46, 74
3, 259181, Note_on_c, 1, 39, 0
3, 260073, Note_on_c, 1, 46, 0
3, 260219, Note_on_c, 1, 51, 74
3, 261754, Note_on_c, 1, 39, 78
3, 261968, Note_on_c, 1, 51, 0
3, 261989, Note_on_c, 1, 39, 0
3, 262580, Note_on_c, 1, 39, 65
3, 262768, Note_on_c, 1, 39, 0
3, 263054, Note_on_c, 1, 39, 84
3, 264371, Note_on_c, 1, 39, 0
3, 264469, Note_on_c, 1, 34, 60
3, 264682, Note_on_c, 1, 34, 0
3, 264912, Note_on_c, 1, 34, 57
3, 266246, Note_on_c, 1, 34, 0
3, 266325, Note_on_c, 1, 39, 55
3, 266459, Note_on_c, 1, 39, 0
3, 266877, Note_on_c, 1, 39, 61
3, 268343, Note_on_c, 1, 44, 78
3, 268529, Note_on_c, 1, 39, 0
3, 270285, Note_on_c, 1, 37, 58
3, 270350, Note_on_c, 1, 44, 0
3, 270809, Note_on_c, 1, 37, 0
3, 271361, Note_on_c, 1, 37, 66
3, 271575, Note_on_c, 1, 37, 0
3, 271730, Note_on_c, 1, 37, 66
3, 272721, Note_on_c, 1, 42, 68
3, 272730, Note_on_c, 1, 37, 0
3, 274081, Note_on_c, 1, 42, 0
3, 274155, Note_on_c, 1, 37, 63
3, 275463, Note_on_c, 1, 37, 0
3, 275517, Note_on_c, 1, 30, 52
3, 277862, Note_on_c, 1, 37, 61
3, 277992, Note_on_c, 1, 30, 0
3, 278101, Note_on_c, 1, 37, 0
3, 278366, Note_on_c, 1, 37, 64
3, 279277, Note_on_c, 1, 37, 0
3, 279301, Note_on_c, 1, 36, 63
3, 281762, Note_on_c, 1, 48, 90
3, 281904, Note_on_c, 1, 36, 0
3, 282398, Note_on_c, 1, 42, 21
3, 282653, Note_on_c, 1, 36, 57
3, 282697, Note_on_c, 1, 42, 0
3, 282887, Note_on_c, 1, 36, 0
3, 282924, Note_on_c, 1, 48, 0
3, 283098, Note_on_c, 1, 42, 62
3, 284001, Note_on_c, 1, 42, 0
3, 284068, Note_on_c, 1, 41, 66
3, 285560, Note_on_c, 1, 36, 61
3, 285732, Note_on_c, 1, 41, 0
3, 285813, Note_on_c, 1, 36, 0
3, 286026, Note_on_c, 1, 33, 51
3, 286242, Note_on_c, 1, 33, 0
3, 286509, Note_on_c, 1, 33, 63
3, 286878, Note_on_c, 1, 33, 0
3, 286973, Note_on_c, 1, 36, 70
3, 287792, Note_on_c, 1, 36, 0
3, 287894, Note_on_c, 1, 34, 59
3, 289423, Note_on_c, 1, 34, 0
3, 289478, Note_on_c, 1, 36, 77
3, 290214, Note_on_c, 1, 36, 0
3, 290307, Note_on_c, 1, 34, 66
3, 290553, Note_on_c, 1, 34, 0
3, 290750, Note_on_c, 1, 33, 56
3, 291072, Note_on_c, 1, 33, 0
3, 291330, Note_on_c, 1, 32, 65
3, 291513, Note_on_c, 1, 32, 0
3, 291787, Note_on_c, 1, 32, 68
3, 293237, Note_on_c, 1, 32, 0
3, 293241, Note_on_c, 1, 44, 59
3, 293478, Note_on_c, 1, 44, 0
3, 294179, Note_on_c, 1, 37, 73
3, 294696, Note_on_c, 1, 37, 0
3, 294701, Note_on_c, 1, 49, 70
3, 295074, Note_on_c, 1, 49, 0
3, 295153, Note_on_c, 1, 37, 60
3, 295513, Note_on_c, 1, 37, 0
3, 295612, Note_on_c, 1, 42, 62
3, 297086, Note_on_c, 1, 37, 56
3, 297267, Note_on_c, 1, 37, 0
3, 297311, Note_on_c, 1, 42, 0
3, 297543, Note_on_c, 1, 36, 68
3, 299095, Note_on_c, 1, 34, 26
3, 299297, Note_on_c, 1, 36, 0
3, 299436, Note_on_c, 1, 41, 84
3, 299452, Note_on_c, 1, 34, 0
3, 301006, Note_on_c, 1, 36, 48
3, 301227, Note_on_c, 1, 36, 0
3, 301378, Note_on_c, 1, 41, 0
3, 301403, Note_on_c, 1, 29, 56
3, 303229, Note_on_c, 1, 29, 0
3, 303361, Note_on_c, 1, 34, 70
3, 304401, Note_on_c, 1, 34, 0
3, 304788, Note_on_c, 1, 40, 69
3, 305145, Note_on_c, 1, 40, 0
3, 305285, Note_on_c, 1, 41, 56
3, 307621, Note_on_c, 1, 48, 83
3, 307744, Note_on_c, 1, 41, 0
3, 308556, Note_on_c, 1, 40, 52
3, 308876, Note_on_c, 1, 48, 0
3, 308904, Note_on_c, 1, 40, 0
3, 309085, Note_on_c, 1, 41, 47
3, 309964, Note_on_c, 1, 41, 0
3, 310003, Note_on_c, 1, 33, 52
3, 310950, Note_on_c, 1, 33, 0
3, 311003, Note_on_c, 1, 34, 63
3, 312507, Note_on_c, 1, 41, 71
3, 312625, Note_on_c, 1, 34, 0
3, 313885, Note_on_c, 1, 46, 81
3, 313936, Note_on_c, 1, 41, 0
3, 316298, Note_on_c, 1, 41, 61
3, 316530, Note_on_c, 1, 41, 0
3, 316611, Note_on_c, 1, 46, 0
3, 316741, Note_on_c, 1, 41, 52
3, 317629, Note_on_c, 1, 41, 0
3, 317766, Note_on_c, 1, 34, 72
3, 318485, Note_on_c, 1, 34, 0
3, 318664, Note_on_c, 1, 34, 16
3, 319244, Note_on_c, 1, 34, 0
3, 319283, Note_on_c, 1, 39, 83
3, 320571, Note_on_c, 1, 39, 0
3, 320601, Note_on_c, 1, 45, 79
3, 321866, Note_on_c, 1, 45, 0
3, 322016, Note_on_c, 1, 39, 73
3, 323183, Note_on_c, 1, 37, 14
3, 323399, Note_on_c, 1, 39, 0
3, 323413, Note_on_c, 1, 51, 76
3, 323504, Note_on_c, 1, 37, 0
3, 324875, Note_on_c, 1, 39, 70
3, 325009, Note_on_c, 1, 51, 0
3, 325907, Note_on_c, 1, 37, 46
3, 326151, Note_on_c, 1, 39, 0
3, 326334, Note_on_c, 1, 37, 0
3, 326345, Note_on_c, 1, 46, 78
3, 327819, Note_on_c, 1, 39, 50
3, 327898, Note_on_c, 1, 39, 0
3, 328320, Note_on_c, 1, 38, 72
3, 329160, Note_on_c, 1, 38, 0
3, 329292, Note_on_c, 1, 39, 78
3, 329331, Note_on_c, 1, 46, 0
3, 330677, Note_on_c, 1, 39, 0
3, 330774, Note_on_c, 1, 44, 76
3, 331767, Note_on_c, 1, 37, 64
3, 331830, Note_on_c, 1, 44, 0
3, 332020, Note_on_c, 1, 37, 0
3, 332213, Note_on_c, 1, 37, 65
3, 334071, Note_on_c, 1, 42, 75
3, 334208, Note_on_c, 1, 37, 0
3, 335542, Note_on_c, 1, 37, 62
3, 335602, Note_on_c, 1, 42, 0
3, 335760, Note_on_c, 1, 37, 0
3, 335994, Note_on_c, 1, 37, 64
3, 337488, Note_on_c, 1, 37, 0
3, 337493, Note_on_c, 1, 30, 55
3, 337702, Note_on_c, 1, 30, 0
3, 337913, Note_on_c, 1, 30, 61
3, 339305, Note_on_c, 1, 42, 56
3, 339486, Note_on_c, 1, 42, 0
3, 339762, Note_on_c, 1, 42, 59
3, 339934, Note_on_c, 1, 30, 0
3, 339978, Note_on_c, 1, 42, 0
3, 340293, Note_on_c, 1, 37, 65
3, 340472, Note_on_c, 1, 37, 0
3, 340815, Note_on_c, 1, 38, 64
3, 341632, Note_on_c, 1, 38, 0
3, 341734, Note_on_c, 1, 39, 75
3, 343272, Note_on_c, 1, 42, 44
3, 343423, Note_on_c, 1, 42, 0
3, 343713, Note_on_c, 1, 42, 57
3, 343787, Note_on_c, 1, 39, 0
3, 344026, Note_on_c, 1, 42, 0
3, 344226, Note_on_c, 1, 39, 63
3, 344423, Note_on_c, 1, 39, 0
3, 344627, Note_on_c, 1, 43, 80
3, 345240, Note_on_c, 1, 39, 34
3, 345339, Note_on_c, 1, 39, 0
3, 345423, Note_on_c, 1, 43, 0
3, 345613, Note_on_c, 1, 44, 77
3, 347056, Note_on_c, 1, 39, 65
3, 347137, Note_on_c, 1, 44, 0
3, 347286, Note_on_c, 1, 39, 0
3, 347504, Note_on_c, 1, 39, 58
3, 348390, Note_on_c, 1, 39, 0
3, 348534, Note_on_c, 1, 37, 78
3, 350810, Note_on_c, 1, 49, 82
3, 351288, Note_on_c, 1, 37, 0
3, 352028, Note_on_c, 1, 37, 22
3, 352200, Note_on_c, 1, 37, 0
3, 353158, Note_on_c, 1, 49, 0
3, 353188, Note_on_c, 1, 44, 60
3, 354571, Note_on_c, 1, 44, 0
3, 354622, Note_on_c, 1, 37, 66
3, 354937, Note_on_c, 1, 37, 0
3, 355116, Note_on_c, 1, 37, 56
3, 356051, Note_on_c, 1, 37, 0
3, 356106, Note_on_c, 1, 36, 77
3, 358443, Note_on_c, 1, 48, 90
3, 358533, Note_on_c, 1, 36, 0
3, 359389, Note_on_c, 1, 36, 68
3, 359447, Note_on_c, 1, 48, 0
3, 359579, Note_on_c, 1, 36, 0
3, 359849, Note_on_c, 1, 42, 74
3, 360649, Note_on_c, 1, 42, 0
3, 360770, Note_on_c, 1, 41, 67
3, 362375, Note_on_c, 1, 36, 52
3, 362542, Note_on_c, 1, 36, 0
3, 362572, Note_on_c, 1, 41, 0
3, 362800, Note_on_c, 1, 33, 63
3, 363760, Note_on_c, 1, 34, 68
3, 363765, Note_on_c, 1, 33, 0
3, 366189, Note_on_c, 1, 34, 0
3, 366219, Note_on_c, 1, 36, 74
3, 366479, Note_on_c, 1, 36, 0
3, 367099, Note_on_c, 1, 37, 57
3, 367474, Note_on_c, 1, 37, 0
3, 367558, Note_on_c, 1, 38, 72
3, 370068, Note_on_c, 1, 37, 36
3, 370275, Note_on_c, 1, 38, 0
3, 370354, Note_on_c, 1, 37, 0
3, 370356, Note_on_c, 1, 43, 71
3, 370618, Note_on_c, 1, 43, 0
3, 370913, Note_on_c, 1, 38, 44
3, 371237, Note_on_c, 1, 38, 0
3, 371363, Note_on_c, 1, 42, 47
3, 371620, Note_on_c, 1, 42, 0
3, 371920, Note_on_c, 1, 41, 62
3, 372121, Note_on_c, 1, 41, 0
3, 372379, Note_on_c, 1, 40, 58
3, 373903, Note_on_c, 1, 40, 0
3, 373952, Note_on_c, 1, 46, 60
3, 374216, Note_on_c, 1, 46, 0
3, 374467, Note_on_c, 1, 46, 59
3, 375819, Note_on_c, 1, 46, 0
3, 375973, Note_on_c, 1, 39, 61
3, 376198, Note_on_c, 1, 39, 0
3, 376462, Note_on_c, 1, 39, 61
3, 377778, Note_on_c, 1, 39, 0
3, 377850, Note_on_c, 1, 44, 43
3, 378151, Note_on_c, 1, 44, 0
3, 378334, Note_on_c, 1, 44, 51
3, 379286, Note_on_c, 1, 38, 67
3, 379309, Note_on_c, 1, 44, 0
3, 381719, Note_on_c, 1, 45, 100
3, 381961, Note_on_c, 1, 38, 0
3, 382789, Note_on_c, 1, 38, 25
3, 382879, Note_on_c, 1, 38, 0
3, 382977, Note_on_c, 1, 45, 0
3, 383070, Note_on_c, 1, 43, 77
3, 385550, Note_on_c, 1, 38, 82
3, 385615, Note_on_c, 1, 43, 0
3, 385972, Note_on_c, 1, 38, 0
3, 386357, Note_on_c, 1, 35, 63
3, 386721, Note_on_c, 1, 35, 0
3, 386874, Note_on_c, 1, 36, 77
3, 389243, Note_on_c, 1, 43, 72
3, 389308, Note_on_c, 1, 36, 0
3, 390118, Note_on_c, 1, 43, 0
3, 390215, Note_on_c, 1, 36, 65
3, 390487, Note_on_c, 1, 36, 0
3, 390698, Note_on_c, 1, 41, 81
3, 392236, Note_on_c, 1, 36, 67
3, 392417, Note_on_c, 1, 36, 0
3, 392679, Note_on_c, 1, 41, 0
3, 393129, Note_on_c, 1, 36, 70
3, 393305, Note_on_c, 1, 36, 0
3, 393616, Note_on_c, 1, 29, 61
3, 394911, Note_on_c, 1, 29, 0
3, 395089, Note_on_c, 1, 34, 65
3, 395310, Note_on_c, 1, 34, 0
3, 395990, Note_on_c, 1, 34, 64
3, 396219, Note_on_c, 1, 34, 0
3, 396479, Note_on_c, 1, 29, 66
3, 397774, Note_on_c, 1, 29, 0
3, 397887, Note_on_c, 1, 34, 71
3, 398138, Note_on_c, 1, 34, 0
3, 398797, Note_on_c, 1, 34, 63
3, 399043, Note_on_c, 1, 34, 0
3, 399240, Note_on_c, 1, 31, 64
3, 400838, Note_on_c, 1, 31, 0
3, 400862, Note_on_c, 1, 38, 83
3, 401806, Note_on_c, 1, 34, 38
3, 401889, Note_on_c, 1, 34, 0
3, 401952, Note_on_c, 1, 38, 0
3, 402223, Note_on_c, 1, 38, 71
3, 403091, Note_on_c, 1, 38, 0
3, 403200, Note_on_c, 1, 39, 72
3, 404673, Note_on_c, 1, 43, 41
3, 404806, Note_on_c, 1, 43, 0
3, 405105, Note_on_c, 1, 46, 75
3, 405253, Note_on_c, 1, 39, 0
3, 406462, Note_on_c, 1, 38, 65
3, 406655, Note_on_c, 1, 38, 0
3, 406701, Note_on_c, 1, 46, 0
3, 406965, Note_on_c, 1, 39, 78
3, 408473, Note_on_c, 1, 44, 78
3, 408587, Note_on_c, 1, 39, 0
3, 409807, Note_on_c, 1, 44, 0
3, 409886, Note_on_c, 1, 37, 74
3, 412364, Note_on_c, 1, 49, 56
3, 412587, Note_on_c, 1, 49, 0
3, 412821, Note_on_c, 1, 49, 65
3, 413408, Note_on_c, 1, 37, 0
3, 414236, Note_on_c, 1, 41, 52
3, 414364, Note_on_c, 1, 49, 0
3, 414631, Note_on_c, 1, 41, 0
3, 415236, Note_on_c, 1, 41, 47
3, 415385, Note_on_c, 1, 41, 0
3, 415638, Note_on_c, 1, 49, 73
3, 416494, Note_on_c, 1, 49, 0
3, 416573, Note_on_c, 1, 46, 72
3, 417429, Note_on_c, 1, 46, 0
3, 417529, Note_on_c, 1, 41, 53
3, 418294, Note_on_c, 1, 41, 0
3, 418542, Note_on_c, 1, 43, 72
3, 419900, Note_on_c, 1, 43, 0
3, 419983, Note_on_c, 1, 37, 58
3, 420201, Note_on_c, 1, 37, 0
3, 420429, Note_on_c, 1, 37, 63
3, 421294, Note_on_c, 1, 37, 0
3, 421382, Note_on_c, 1, 36, 67
3, 423846, Note_on_c, 1, 48, 95
3, 424226, Note_on_c, 1, 36, 0
3, 424270, Note_on_c, 1, 48, 0
3, 424779, Note_on_c, 1, 48, 84
3, 425055, Note_on_c, 1, 48, 0
3, 425270, Note_on_c, 1, 48, 56
3, 425505, Note_on_c, 1, 48, 0
3, 425795, Note_on_c, 1, 48, 72
3, 425987, Note_on_c, 1, 48, 0
3, 426261, Note_on_c, 1, 29, 67
3, 428716, Note_on_c, 1, 41, 78
3, 428732, Note_on_c, 1, 29, 0
3, 430541, Note_on_c, 1, 41, 0
3, 430597, Note_on_c, 1, 35, 75
3, 432012, Note_on_c, 1, 47, 102
3, 432156, Note_on_c, 1, 35, 0
3, 433458, Note_on_c, 1, 47, 0
3, 433469, Note_on_c, 1, 46, 84
3, 434838, Note_on_c, 1, 40, 55
3, 434898, Note_on_c, 1, 46, 0
3, 435216, Note_on_c, 1, 40, 0
3, 435812, Note_on_c, 1, 41, 67
3, 437232, Note_on_c, 1, 41, 0
3, 437265, Note_on_c, 1, 37, 55
3, 437562, Note_on_c, 1, 37, 0
3, 437668, Note_on_c, 1, 38, 65
3, 439225, Note_on_c, 1, 41, 56
3, 439471, Note_on_c, 1, 41, 0
3, 439575, Note_on_c, 1, 38, 0
3, 439691, Note_on_c, 1, 41, 62
3, 441162, Note_on_c, 1, 38, 41
3, 441257, Note_on_c, 1, 41, 0
3, 441459, Note_on_c, 1, 38, 0
3, 441594, Note_on_c, 1, 40, 59
3, 443422, Note_on_c, 1, 40, 0
3, 443475, Note_on_c, 1, 34, 60
3, 445350, Note_on_c, 1, 34, 0
3, 445401, Note_on_c, 1, 39, 73
3, 446633, Note_on_c, 1, 39, 0
3, 446828, Note_on_c, 1, 40, 81
3, 447160, Note_on_c, 1, 40, 0
3, 447315, Note_on_c, 1, 40, 66
3, 448192, Note_on_c, 1, 40, 0
3, 448227, Note_on_c, 1, 34, 68
3, 449146, Note_on_c, 1, 34, 0
3, 449217, Note_on_c, 1, 39, 72
3, 451034, Note_on_c, 1, 39, 0
3, 451199, Note_on_c, 1, 34, 33
3, 451296, Note_on_c, 1, 34, 0
3, 452138, Note_on_c, 1, 39, 73
3, 452380, Note_on_c, 1, 39, 0
3, 452663, Note_on_c, 1, 34, 64
3, 452922, Note_on_c, 1, 34, 0
3, 453103, Note_on_c, 1, 38, 71
3, 454635, Note_on_c, 1, 38, 0
3, 454662, Note_on_c, 1, 32, 57
3, 454911, Note_on_c, 1, 32, 0
3, 455082, Note_on_c, 1, 31, 59
3, 456377, Note_on_c, 1, 31, 0
3, 456486, Note_on_c, 1, 32, 60
3, 456706, Note_on_c, 1, 32, 0
3, 456943, Note_on_c, 1, 33, 65
3, 458377, Note_on_c, 1, 45, 49
3, 458479, Note_on_c, 1, 45, 0
3, 458889, Note_on_c, 1, 48, 73
3, 459089, Note_on_c, 1, 33, 0
3, 459402, Note_on_c, 1, 39, 77
3, 459425, Note_on_c, 1, 48, 0
3, 461110, Note_on_c, 1, 39, 0
3, 461265, Note_on_c, 1, 38, 78
3, 462987, Note_on_c, 1, 38, 0
3, 463072, Note_on_c, 1, 40, 72
3, 463290, Note_on_c, 1, 40, 0
3, 464100, Note_on_c, 1, 38, 67
3, 464307, Note_on_c, 1, 38, 0
3, 465211, Note_on_c, 1, 44, 78
3, 467098, Note_on_c, 1, 39, 44
3, 467107, Note_on_c, 1, 44, 0
3, 467334, Note_on_c, 1, 39, 0
3, 467522, Note_on_c, 1, 32, 49
3, 468515, Note_on_c, 1, 31, 68
3, 468517, Note_on_c, 1, 32, 0
3, 469928, Note_on_c, 1, 31, 0
3, 469958, Note_on_c, 1, 38, 54
3, 470158, Note_on_c, 1, 38, 0
3, 470424, Note_on_c, 1, 38, 54
3, 471213, Note_on_c, 1, 38, 0
3, 471362, Note_on_c, 1, 35, 45
3, 471441, Note_on_c, 1, 36, 72
3, 471478, Note_on_c, 1, 35, 0
3, 473689, Note_on_c, 1, 36, 0
3, 473751, Note_on_c, 1, 43, 71
3, 474758, Note_on_c, 1, 51, 84
3, 474960, Note_on_c, 1, 52, 43
3, 475011, Note_on_c, 1, 43, 0
3, 476566, Note_on_c, 1, 52, 0
3, 476635, Note_on_c, 1, 50, 81
3, 476744, Note_on_c, 1, 51, 0
3, 477603, Note_on_c, 1, 43, 44
3, 477726, Note_on_c, 1, 43, 0
3, 477876, Note_on_c, 1, 50, 0
3, 478022, Note_on_c, 1, 48, 61
3, 478517, Note_on_c, 1, 43, 59
3, 478663, Note_on_c, 1, 48, 0
3, 478807, Note_on_c, 1, 43, 0
3, 479484, Note_on_c, 1, 37, 69
3, 479790, Note_on_c, 1, 37, 0
3, 479939, Note_on_c, 1, 36, 65
3, 481384, Note_on_c, 1, 42, 78
3, 481516, Note_on_c, 1, 36, 0
3, 483266, Note_on_c, 1, 36, 54
3, 483386, Note_on_c, 1, 36, 0
3, 483577, Note_on_c, 1, 42, 0
3, 483725, Note_on_c, 1, 41, 62
3, 485208, Note_on_c, 1, 36, 47
3, 485423, Note_on_c, 1, 36, 0
3, 485498, Note_on_c, 1, 41, 0
3, 485662, Note_on_c, 1, 33, 59
3, 486588, Note_on_c, 1, 33, 0
3, 486600, Note_on_c, 1, 34, 71
3, 489049, Note_on_c, 1, 41, 70
3, 489210, Note_on_c, 1, 34, 0
3, 490096, Note_on_c, 1, 34, 28
3, 490469, Note_on_c, 1, 34, 0
3, 490472, Note_on_c, 1, 46, 65
3, 490681, Note_on_c, 1, 41, 0
3, 492922, Note_on_c, 1, 41, 68
3, 493119, Note_on_c, 1, 41, 0
3, 493154, Note_on_c, 1, 46, 0
3, 493355, Note_on_c, 1, 41, 51
3, 494246, Note_on_c, 1, 41, 0
3, 494316, Note_on_c, 1, 34, 64
3, 496884, Note_on_c, 1, 41, 54
3, 497620, Note_on_c, 1, 34, 0
3, 498183, Note_on_c, 1, 46, 74
3, 498200, Note_on_c, 1, 41, 0
3, 500601, Note_on_c, 1, 41, 53
3, 500617, Note_on_c, 1, 46, 0
3, 500937, Note_on_c, 1, 41, 0
3, 501120, Note_on_c, 1, 41, 59
3, 502048, Note_on_c, 1, 34, 54
3, 502092, Note_on_c, 1, 41, 0
3, 504531, Note_on_c, 1, 41, 55
3, 504846, Note_on_c, 1, 34, 0
3, 505946, Note_on_c, 1, 41, 0
3, 505955, Note_on_c, 1, 46, 65
3, 508459, Note_on_c, 1, 41, 45
3, 508496, Note_on_c, 1, 46, 0
3, 508674, Note_on_c, 1, 41, 0
3, 508872, Note_on_c, 1, 41, 50
3, 509755, Note_on_c, 1, 41, 0
3, 509827, Note_on_c, 1, 34, 48
3, 512187, Note_on_c, 1, 41, 56
3, 512247, Note_on_c, 1, 34, 0
3, 513563, Note_on_c, 1, 46, 65
3, 513665, Note_on_c, 1, 41, 0
3, 516017, Note_on_c, 1, 41, 53
3, 516052, Note_on_c, 1, 46, 0
3, 517328, Note_on_c, 1, 41, 0
3, 517367, Note_on_c, 1, 34, 53
3, 519792, Note_on_c, 1, 41, 51
3, 519933, Note_on_c, 1, 34, 0
3, 521230, Note_on_c, 1, 46, 52
3, 521277, Note_on_c, 1, 41, 0
3, 523761, Note_on_c, 1, 41, 46
3, 523773, Note_on_c, 1, 46, 0
3, 523984, Note_on_c, 1, 41, 0
3, 524190, Note_on_c, 1, 41, 37
3, 525174, Note_on_c, 1, 34, 39
3, 525181, Note_on_c, 1, 41, 0
3, 527524, Note_on_c, 1, 34, 0
3, 527610, Note_on_c, 1, 29, 50
3, 529018, Note_on_c, 1, 29, 0
3, 529021, Note_on_c, 1, 34, 50
3, 531445, Note_on_c, 1, 41, 54
3, 531707, Note_on_c, 1, 41, 0
3, 531860, Note_on_c, 1, 41, 45
3, 532062, Note_on_c, 1, 34, 0
3, 532795, Note_on_c, 1, 34, 54
3, 532821, Note_on_c, 1, 41, 0
3, 535241, Note_on_c, 1, 29, 47
3, 535287, Note_on_c, 1, 34, 0
3, 536637, Note_on_c, 1, 34, 51
3, 536670, Note_on_c, 1, 29, 0
3, 539038, Note_on_c, 1, 41, 63
3, 539270, Note_on_c, 1, 41, 0
3, 539997, Note_on_c, 1, 41, 58
3, 539999, Note_on_c, 1, 34, 0
3, 540215, Note_on_c, 1, 41, 0
3, 540491, Note_on_c, 1, 34, 45
3, 542859, Note_on_c, 1, 34, 0
3, 542866, Note_on_c, 1, 29, 34
3, 544321, Note_on_c, 1, 34, 34
3, 544354, Note_on_c, 1, 29, 0
3, 546790, Note_on_c, 1, 34, 0
3, 546799, Note_on_c, 1, 29, 36
3, 548179, Note_on_c, 1, 29, 0
3, 548198, Note_on_c, 1, 34, 31
3, 550708, Note_on_c, 1, 34, 0
3, 550750, Note_on_c, 1, 29, 25
3, 551996, Note_on_c, 1, 34, 29
3, 552005, Note_on_c, 1, 29, 0
3, 554422, Note_on_c, 1, 34, 0
3, 554443, Note_on_c, 1, 29, 33
3, 555854, Note_on_c, 1, 29, 0
3, 555863, Note_on_c, 1, 34, 26
3, 562631, Note_on_c, 1, 34, 0
3, 562631, End_track
4, 0, Start_track
4, 0, Title_t, "Drums"
4, 0, Control_c, 9, 0, 3
4, 0, Control_c, 9, 7, 82
4, 1, Program_c, 9, 40
4, 3840, Note_on_c, 9, 38, 75
4, 3840, Note_on_c, 9, 40, 33
4, 3881, Note_on_c, 9, 59, 45
4, 3993, Note_on_c, 9, 38, 0
4, 4077, Note_on_c, 9, 59, 0
4, 4275, Note_on_c, 9, 38, 48
4, 4283, Note_on_c, 9, 40, 0
4, 4389, Note_on_c, 9, 38, 0
4, 4773, Note_on_c, 9, 38, 42
4, 4784, Note_on_c, 9, 44, 74
4, 4902, Note_on_c, 9, 38, 0
4, 5104, Note_on_c, 9, 44, 0
4, 5332, Note_on_c, 9, 38, 67
4, 5353, Note_on_c, 9, 40, 32
4, 5499, Note_on_c, 9, 38, 0
4, 5580, Note_on_c, 9, 40, 0
4, 5856, Note_on_c, 9, 38, 41
4, 5985, Note_on_c, 9, 38, 0
4, 6341, Note_on_c, 9, 38, 36
4, 6460, Note_on_c, 9, 38, 0
4, 6685, Note_on_c, 9, 44, 71
4, 6780, Note_on_c, 9, 38, 56
4, 6805, Note_on_c, 9, 40, 31
4, 6963, Note_on_c, 9, 38, 0
4, 7048, Note_on_c, 9, 40, 0
4, 7210, Note_on_c, 9, 44, 0
4, 7304, Note_on_c, 9, 38, 39
4, 7475, Note_on_c, 9, 38, 0
4, 7758, Note_on_c, 9, 38, 37
4, 7922, Note_on_c, 9, 38, 0
4, 8234, Note_on_c, 9, 40, 36
4, 8238, Note_on_c, 9, 38, 57
4, 8434, Note_on_c, 9, 38, 0
4, 8504, Note_on_c, 9, 40, 0
4, 8671, Note_on_c, 9, 44, 63
4, 8754, Note_on_c, 9, 38, 36
4, 8951, Note_on_c, 9, 38, 0
4, 9031, Note_on_c, 9, 44, 0
4, 9203, Note_on_c, 9, 38, 36
4, 9461, Note_on_c, 9, 38, 0
4, 9690, Note_on_c, 9, 40, 27
4, 9694, Note_on_c, 9, 38, 52
4, 10048, Note_on_c, 9, 38, 0
4, 10202, Note_on_c, 9, 38, 40
4, 10376, Note_on_c, 9, 38, 0
4, 10549, Note_on_c, 9, 46, 22
4, 10601, Note_on_c, 9, 38, 40
4, 10749, Note_on_c, 9, 38, 0
4, 11010, Note_on_c, 9, 46, 0
4, 11092, Note_on_c, 9, 38, 43
4, 11273, Note_on_c, 9, 38, 0
4, 11333, Note_on_c, 9, 40, 0
4, 11549, Note_on_c, 9, 40, 23
4, 11562, Note_on_c, 9, 38, 58
4, 11784, Note_on_c, 9, 38, 0
4, 12063, Note_on_c, 9, 38, 43
4, 12192, Note_on_c, 9, 38, 0
4, 12535, Note_on_c, 9, 38, 30
4, 12549, Note_on_c, 9, 44, 63
4, 12673, Note_on_c, 9, 38, 0
4, 12679, Note_on_c, 9, 40, 0
4, 12898, Note_on_c, 9, 44, 0
4, 12966, Note_on_c, 9, 38, 57
4, 13012, Note_on_c, 9, 40, 29
4, 13188, Note_on_c, 9, 38, 0
4, 13434, Note_on_c, 9, 38, 38
4, 13604, Note_on_c, 9, 38, 0
4, 13798, Note_on_c, 9, 40, 0
4, 13941, Note_on_c, 9, 38, 45
4, 14070, Note_on_c, 9, 38, 0
4, 14349, Note_on_c, 9, 38, 55
4, 14380, Note_on_c, 9, 44, 74
4, 14391, Note_on_c, 9, 40, 28
4, 14580, Note_on_c, 9, 38, 0
4, 14786, Note_on_c, 9, 44, 0
4, 14882, Note_on_c, 9, 38, 45
4, 15035, Note_on_c, 9, 38, 0
4, 15331, Note_on_c, 9, 38, 41
4, 15333, Note_on_c, 9, 40, 0
4, 15533, Note_on_c, 9, 38, 0
4, 15757, Note_on_c, 9, 39, 64
4, 15790, Note_on_c, 9, 40, 31
4, 15974, Note_on_c, 9, 39, 0
4, 16111, Note_on_c, 9, 40, 0
4, 16231, Note_on_c, 9, 38, 33
4, 16272, Note_on_c, 9, 44, 78
4, 16460, Note_on_c, 9, 38, 0
4, 16661, Note_on_c, 9, 44, 0
4, 16702, Note_on_c, 9, 38, 39
4, 16760, Note_on_c, 9, 40, 23
4, 16957, Note_on_c, 9, 38, 0
4, 17082, Note_on_c, 9, 40, 0
4, 17197, Note_on_c, 9, 38, 35
4, 17446, Note_on_c, 9, 38, 0
4, 17721, Note_on_c, 9, 38, 39
4, 17943, Note_on_c, 9, 38, 0
4, 18166, Note_on_c, 9, 38, 52
4, 18176, Note_on_c, 9, 40, 30
4, 18207, Note_on_c, 9, 44, 77
4, 18470, Note_on_c, 9, 38, 0
4, 18650, Note_on_c, 9, 44, 0
4, 18656, Note_on_c, 9, 53, 25
4, 18700, Note_on_c, 9, 40, 0
4, 18744, Note_on_c, 9, 38, 24
4, 18931, Note_on_c, 9, 53, 0
4, 19004, Note_on_c, 9, 38, 0
4, 19147, Note_on_c, 9, 53, 33
4, 19223, Note_on_c, 9, 38, 39
4, 19460, Note_on_c, 9, 38, 0
4, 19736, Note_on_c, 9, 38, 47
4, 19786, Note_on_c, 9, 40, 28
4, 19802, Note_on_c, 9, 53, 0
4, 19973, Note_on_c, 9, 38, 0
4, 20142, Note_on_c, 9, 44, 68
4, 20175, Note_on_c, 9, 38, 33
4, 20443, Note_on_c, 9, 38, 0
4, 20499, Note_on_c, 9, 44, 0
4, 20674, Note_on_c, 9, 38, 50
4, 20864, Note_on_c, 9, 38, 0
4, 20984, Note_on_c, 9, 40, 0
4, 21119, Note_on_c, 9, 38, 51
4, 21149, Note_on_c, 9, 40, 23
4, 21315, Note_on_c, 9, 38, 0
4, 21615, Note_on_c, 9, 38, 38
4, 21733, Note_on_c, 9, 38, 0
4, 21899, Note_on_c, 9, 40, 0
4, 22031, Note_on_c, 9, 38, 46
4, 22064, Note_on_c, 9, 40, 24
4, 22064, Note_on_c, 9, 44, 76
4, 22295, Note_on_c, 9, 38, 0
4, 22451, Note_on_c, 9, 44, 0
4, 22536, Note_on_c, 9, 38, 43
4, 22704, Note_on_c, 9, 38, 0
4, 22981, Note_on_c, 9, 38, 39
4, 23199, Note_on_c, 9, 38, 0
4, 23303, Note_on_c, 9, 40, 0
4, 23468, Note_on_c, 9, 38, 37
4, 23563, Note_on_c, 9, 40, 23
4, 23651, Note_on_c, 9, 38, 0
4, 23911, Note_on_c, 9, 38, 41
4, 23986, Note_on_c, 9, 44, 60
4, 24215, Note_on_c, 9, 38, 0
4, 24359, Note_on_c, 9, 44, 0
4, 24456, Note_on_c, 9, 38, 39
4, 24631, Note_on_c, 9, 40, 0
4, 24685, Note_on_c, 9, 38, 0
4, 24913, Note_on_c, 9, 40, 23
4, 24957, Note_on_c, 9, 38, 47
4, 25217, Note_on_c, 9, 38, 0
4, 25448, Note_on_c, 9, 38, 40
4, 25604, Note_on_c, 9, 38, 0
4, 25897, Note_on_c, 9, 38, 35
4, 25928, Note_on_c, 9, 44, 70
4, 26057, Note_on_c, 9, 38, 0
4, 26344, Note_on_c, 9, 38, 45
4, 26348, Note_on_c, 9, 44, 0
4, 26419, Note_on_c, 9, 36, 49
4, 26555, Note_on_c, 9, 38, 0
4, 26607, Note_on_c, 9, 40, 0
4, 26645, Note_on_c, 9, 36, 0
4, 26829, Note_on_c, 9, 40, 28
4, 26831, Note_on_c, 9, 38, 52
4, 27054, Note_on_c, 9, 38, 0
4, 27362, Note_on_c, 9, 38, 41
4, 27509, Note_on_c, 9, 38, 0
4, 27833, Note_on_c, 9, 44, 60
4, 27855, Note_on_c, 9, 38, 29
4, 27973, Note_on_c, 9, 38, 0
4, 28163, Note_on_c, 9, 44, 0
4, 28331, Note_on_c, 9, 38, 43
4, 28479, Note_on_c, 9, 38, 0
4, 28818, Note_on_c, 9, 38, 49
4, 28955, Note_on_c, 9, 38, 0
4, 29094, Note_on_c, 9, 40, 0
4, 29275, Note_on_c, 9, 38, 70
4, 29306, Note_on_c, 9, 40, 34
4, 29487, Note_on_c, 9, 38, 0
4, 29722, Note_on_c, 9, 38, 41
4, 29779, Note_on_c, 9, 44, 76
4, 29895, Note_on_c, 9, 38, 0
4, 30091, Note_on_c, 9, 44, 0
4, 30215, Note_on_c, 9, 38, 40
4, 30357, Note_on_c, 9, 38, 0
4, 30428, Note_on_c, 9, 40, 0
4, 30694, Note_on_c, 9, 38, 65
4, 30704, Note_on_c, 9, 40, 29
4, 30918, Note_on_c, 9, 38, 0
4, 31181, Note_on_c, 9, 38, 43
4, 31345, Note_on_c, 9, 38, 0
4, 31651, Note_on_c, 9, 39, 65
4, 31654, Note_on_c, 9, 44, 76
4, 31896, Note_on_c, 9, 44, 0
4, 31911, Note_on_c, 9, 39, 0
4, 31950, Note_on_c, 9, 40, 0
4, 32173, Note_on_c, 9, 40, 23
4, 32187, Note_on_c, 9, 38, 40
4, 32408, Note_on_c, 9, 38, 0
4, 32565, Note_on_c, 9, 53, 50
4, 32622, Note_on_c, 9, 38, 39
4, 32731, Note_on_c, 9, 53, 0
4, 32899, Note_on_c, 9, 38, 0
4, 32938, Note_on_c, 9, 40, 0
4, 33106, Note_on_c, 9, 53, 58
4, 33121, Note_on_c, 9, 39, 69
4, 33140, Note_on_c, 9, 40, 32
4, 33281, Note_on_c, 9, 53, 0
4, 33516, Note_on_c, 9, 39, 0
4, 33585, Note_on_c, 9, 38, 39
4, 33589, Note_on_c, 9, 46, 26
4, 33830, Note_on_c, 9, 38, 0
4, 33837, Note_on_c, 9, 40, 0
4, 33945, Note_on_c, 9, 46, 0
4, 34046, Note_on_c, 9, 36, 41
4, 34061, Note_on_c, 9, 38, 49
4, 34122, Note_on_c, 9, 40, 33
4, 34285, Note_on_c, 9, 36, 0
4, 34315, Note_on_c, 9, 38, 0
4, 34450, Note_on_c, 9, 40, 0
4, 34508, Note_on_c, 9, 38, 50
4, 34527, Note_on_c, 9, 36, 55
4, 34552, Note_on_c, 9, 40, 24
4, 34793, Note_on_c, 9, 36, 0
4, 34831, Note_on_c, 9, 38, 0
4, 35035, Note_on_c, 9, 38, 50
4, 35232, Note_on_c, 9, 38, 0
4, 35460, Note_on_c, 9, 44, 74
4, 35503, Note_on_c, 9, 38, 36
4, 35596, Note_on_c, 9, 40, 0
4, 35766, Note_on_c, 9, 44, 0
4, 35821, Note_on_c, 9, 38, 0
4, 36006, Note_on_c, 9, 40, 28
4, 36008, Note_on_c, 9, 38, 56
4, 36241, Note_on_c, 9, 38, 0
4, 36462, Note_on_c, 9, 38, 39
4, 36651, Note_on_c, 9, 38, 0
4, 36720, Note_on_c, 9, 40, 0
4, 36963, Note_on_c, 9, 38, 37
4, 37052, Note_on_c, 9, 40, 22
4, 37179, Note_on_c, 9, 38, 0
4, 37349, Note_on_c, 9, 44, 71
4, 37377, Note_on_c, 9, 38, 47
4, 37622, Note_on_c, 9, 38, 0
4, 37718, Note_on_c, 9, 44, 0
4, 37784, Note_on_c, 9, 40, 0
4, 37891, Note_on_c, 9, 39, 69
4, 38144, Note_on_c, 9, 40, 19
4, 38171, Note_on_c, 9, 39, 0
4, 38359, Note_on_c, 9, 38, 35
4, 38689, Note_on_c, 9, 38, 0
4, 38710, Note_on_c, 9, 40, 0
4, 38879, Note_on_c, 9, 38, 45
4, 39122, Note_on_c, 9, 38, 0
4, 39307, Note_on_c, 9, 38, 42
4, 39331, Note_on_c, 9, 46, 34
4, 39378, Note_on_c, 9, 40, 19
4, 39546, Note_on_c, 9, 38, 0
4, 39600, Note_on_c, 9, 46, 0
4, 39659, Note_on_c, 9, 40, 0
4, 39827, Note_on_c, 9, 38, 61
4, 39875, Note_on_c, 9, 40, 32
4, 40174, Note_on_c, 9, 38, 0
4, 40332, Note_on_c, 9, 38, 42
4, 40622, Note_on_c, 9, 38, 0
4, 40804, Note_on_c, 9, 53, 37
4, 40805, Note_on_c, 9, 38, 51
4, 40912, Note_on_c, 9, 53, 0
4, 41048, Note_on_c, 9, 40, 0
4, 41073, Note_on_c, 9, 38, 0
4, 41166, Note_on_c, 9, 44, 80
4, 41243, Note_on_c, 9, 36, 40
4, 41275, Note_on_c, 9, 38, 49
4, 41285, Note_on_c, 9, 40, 25
4, 41438, Note_on_c, 9, 36, 0
4, 41455, Note_on_c, 9, 44, 0
4, 41622, Note_on_c, 9, 38, 0
4, 41770, Note_on_c, 9, 40, 0
4, 41782, Note_on_c, 9, 39, 65
4, 41815, Note_on_c, 9, 36, 32
4, 41998, Note_on_c, 9, 36, 0
4, 42125, Note_on_c, 9, 39, 0
4, 42188, Note_on_c, 9, 40, 23
4, 42215, Note_on_c, 9, 38, 41
4, 42527, Note_on_c, 9, 38, 0
4, 42652, Note_on_c, 9, 40, 0
4, 42735, Note_on_c, 9, 38, 45
4, 42962, Note_on_c, 9, 38, 0
4, 43111, Note_on_c, 9, 44, 71
4, 43163, Note_on_c, 9, 40, 20
4, 43190, Note_on_c, 9, 38, 41
4, 43392, Note_on_c, 9, 38, 0
4, 43407, Note_on_c, 9, 40, 0
4, 43420, Note_on_c, 9, 44, 0
4, 43675, Note_on_c, 9, 38, 65
4, 43717, Note_on_c, 9, 40, 26
4, 44316, Note_on_c, 9, 38, 0
4, 44532, Note_on_c, 9, 38, 54
4, 44721, Note_on_c, 9, 40, 0
4, 44786, Note_on_c, 9, 38, 0
4, 44973, Note_on_c, 9, 44, 74
4, 45056, Note_on_c, 9, 38, 55
4, 45058, Note_on_c, 9, 40, 24
4, 45339, Note_on_c, 9, 44, 0
4, 45370, Note_on_c, 9, 38, 0
4, 45582, Note_on_c, 9, 38, 42
4, 45734, Note_on_c, 9, 38, 0
4, 46044, Note_on_c, 9, 38, 32
4, 46171, Note_on_c, 9, 38, 0
4, 46506, Note_on_c, 9, 38, 59
4, 46685, Note_on_c, 9, 38, 0
4, 46898, Note_on_c, 9, 44, 68
4, 47011, Note_on_c, 9, 38, 30
4, 47126, Note_on_c, 9, 38, 0
4, 47288, Note_on_c, 9, 44, 0
4, 47452, Note_on_c, 9, 38, 67
4, 47454, Note_on_c, 9, 40, 0
4, 47604, Note_on_c, 9, 38, 0
4, 47941, Note_on_c, 9, 38, 49
4, 47976, Note_on_c, 9, 40, 24
4, 48047, Note_on_c, 9, 38, 0
4, 48434, Note_on_c, 9, 38, 76
4, 48605, Note_on_c, 9, 38, 0
4, 48857, Note_on_c, 9, 44, 77
4, 48912, Note_on_c, 9, 38, 38
4, 49033, Note_on_c, 9, 38, 0
4, 49162, Note_on_c, 9, 40, 0
4, 49297, Note_on_c, 9, 44, 0
4, 49359, Note_on_c, 9, 59, 41
4, 49435, Note_on_c, 9, 38, 77
4, 49461, Note_on_c, 9, 59, 0
4, 49487, Note_on_c, 9, 40, 28
4, 49603, Note_on_c, 9, 38, 0
4, 49927, Note_on_c, 9, 38, 62
4, 50075, Note_on_c, 9, 38, 0
4, 50294, Note_on_c, 9, 40, 0
4, 50377, Note_on_c, 9, 38, 71
4, 50379, Note_on_c, 9, 39, 63
4, 50427, Note_on_c, 9, 40, 22
4, 50576, Note_on_c, 9, 38, 0
4, 50670, Note_on_c, 9, 39, 0
4, 50803, Note_on_c, 9, 38, 34
4, 50823, Note_on_c, 9, 36, 43
4, 50869, Note_on_c, 9, 44, 76
4, 51032, Note_on_c, 9, 38, 0
4, 51111, Note_on_c, 9, 40, 0
4, 51179, Note_on_c, 9, 44, 0
4, 51352, Note_on_c, 9, 38, 52
4, 51413, Note_on_c, 9, 40, 19
4, 51451, Note_on_c, 9, 36, 0
4, 51560, Note_on_c, 9, 38, 0
4, 51814, Note_on_c, 9, 38, 46
4, 52109, Note_on_c, 9, 38, 0
4, 52155, Note_on_c, 9, 40, 0
4, 52303, Note_on_c, 9, 38, 45
4, 52311, Note_on_c, 9, 39, 62
4, 52347, Note_on_c, 9, 40, 28
4, 52494, Note_on_c, 9, 38, 0
4, 52629, Note_on_c, 9, 39, 0
4, 52741, Note_on_c, 9, 44, 74
4, 52756, Note_on_c, 9, 38, 34
4, 52993, Note_on_c, 9, 40, 0
4, 53020, Note_on_c, 9, 38, 0
4, 53191, Note_on_c, 9, 44, 0
4, 53283, Note_on_c, 9, 38, 23
4, 53326, Note_on_c, 9, 40, 16
4, 53530, Note_on_c, 9, 38, 0
4, 53597, Note_on_c, 9, 40, 0
4, 53746, Note_on_c, 9, 39, 65
4, 53792, Note_on_c, 9, 40, 29
4, 54081, Note_on_c, 9, 39, 0
4, 54252, Note_on_c, 9, 38, 36
4, 54397, Note_on_c, 9, 38, 0
4, 54399, Note_on_c, 9, 40, 0
4, 54626, Note_on_c, 9, 40, 19
4, 54659, Note_on_c, 9, 38, 45
4, 54713, Note_on_c, 9, 44, 78
4, 54982, Note_on_c, 9, 38, 0
4, 55032, Note_on_c, 9, 40, 0
4, 55130, Note_on_c, 9, 44, 0
4, 55215, Note_on_c, 9, 38, 55
4, 55265, Note_on_c, 9, 40, 23
4, 55467, Note_on_c, 9, 38, 0
4, 55702, Note_on_c, 9, 38, 36
4, 55783, Note_on_c, 9, 40, 0
4, 55907, Note_on_c, 9, 38, 0
4, 56207, Note_on_c, 9, 38, 65
4, 56415, Note_on_c, 9, 38, 0
4, 56612, Note_on_c, 9, 44, 78
4, 56633, Note_on_c, 9, 38, 51
4, 56864, Note_on_c, 9, 38, 0
4, 57042, Note_on_c, 9, 44, 0
4, 57087, Note_on_c, 9, 40, 32
4, 57089, Note_on_c, 9, 38, 66
4, 57196, Note_on_c, 9, 36, 25
4, 57359, Note_on_c, 9, 38, 0
4, 57371, Note_on_c, 9, 36, 0
4, 57555, Note_on_c, 9, 38, 44
4, 57796, Note_on_c, 9, 38, 0
4, 57844, Note_on_c, 9, 40, 0
4, 58085, Note_on_c, 9, 38, 59
4, 58300, Note_on_c, 9, 38, 0
4, 58510, Note_on_c, 9, 44, 86
4, 58514, Note_on_c, 9, 38, 58
4, 58549, Note_on_c, 9, 40, 33
4, 58820, Note_on_c, 9, 38, 0
4, 58940, Note_on_c, 9, 44, 0
4, 59025, Note_on_c, 9, 38, 47
4, 59227, Note_on_c, 9, 38, 0
4, 59508, Note_on_c, 9, 38, 50
4, 59737, Note_on_c, 9, 38, 0
4, 59751, Note_on_c, 9, 40, 0
4, 59959, Note_on_c, 9, 38, 52
4, 59974, Note_on_c, 9, 39, 58
4, 59988, Note_on_c, 9, 40, 29
4, 60044, Note_on_c, 9, 36, 36
4, 60173, Note_on_c, 9, 36, 0
4, 60228, Note_on_c, 9, 38, 0
4, 60319, Note_on_c, 9, 39, 0
4, 60413, Note_on_c, 9, 40, 0
4, 60415, Note_on_c, 9, 44, 86
4, 60436, Note_on_c, 9, 38, 38
4, 60683, Note_on_c, 9, 38, 0
4, 60892, Note_on_c, 9, 44, 0
4, 60935, Note_on_c, 9, 38, 63
4, 60938, Note_on_c, 9, 53, 31
4, 60985, Note_on_c, 9, 40, 27
4, 61121, Note_on_c, 9, 53, 0
4, 61216, Note_on_c, 9, 38, 0
4, 61392, Note_on_c, 9, 53, 24
4, 61403, Note_on_c, 9, 38, 44
4, 61499, Note_on_c, 9, 40, 0
4, 61521, Note_on_c, 9, 53, 0
4, 61659, Note_on_c, 9, 38, 0
4, 61839, Note_on_c, 9, 36, 45
4, 61860, Note_on_c, 9, 39, 69
4, 61956, Note_on_c, 9, 40, 34
4, 62047, Note_on_c, 9, 36, 0
4, 62241, Note_on_c, 9, 39, 0
4, 62300, Note_on_c, 9, 44, 94
4, 62341, Note_on_c, 9, 38, 29
4, 62408, Note_on_c, 9, 40, 0
4, 62555, Note_on_c, 9, 38, 0
4, 62727, Note_on_c, 9, 44, 0
4, 62832, Note_on_c, 9, 38, 48
4, 62846, Note_on_c, 9, 53, 43
4, 63012, Note_on_c, 9, 53, 0
4, 63054, Note_on_c, 9, 38, 0
4, 63260, Note_on_c, 9, 53, 35
4, 63287, Note_on_c, 9, 38, 56
4, 63289, Note_on_c, 9, 40, 27
4, 63585, Note_on_c, 9, 38, 0
4, 63644, Note_on_c, 9, 53, 0
4, 63780, Note_on_c, 9, 36, 38
4, 63795, Note_on_c, 9, 38, 47
4, 63897, Note_on_c, 9, 40, 0
4, 63931, Note_on_c, 9, 36, 0
4, 63990, Note_on_c, 9, 38, 0
4, 64261, Note_on_c, 9, 40, 27
4, 64265, Note_on_c, 9, 38, 62
4, 64276, Note_on_c, 9, 44, 78
4, 64285, Note_on_c, 9, 53, 33
4, 64445, Note_on_c, 9, 53, 0
4, 64548, Note_on_c, 9, 38, 0
4, 64714, Note_on_c, 9, 36, 67
4, 64766, Note_on_c, 9, 38, 47
4, 64820, Note_on_c, 9, 44, 0
4, 64957, Note_on_c, 9, 36, 0
4, 64962, Note_on_c, 9, 38, 0
4, 65198, Note_on_c, 9, 51, 52
4, 65238, Note_on_c, 9, 38, 54
4, 65438, Note_on_c, 9, 38, 0
4, 65473, Note_on_c, 9, 40, 0
4, 65487, Note_on_c, 9, 51, 0
4, 65765, Note_on_c, 9, 38, 38
4, 65919, Note_on_c, 9, 38, 0
4, 66171, Note_on_c, 9, 44, 86
4, 66195, Note_on_c, 9, 38, 64
4, 66245, Note_on_c, 9, 40, 31
4, 66520, Note_on_c, 9, 38, 0
4, 66601, Note_on_c, 9, 44, 0
4, 66719, Note_on_c, 9, 38, 47
4, 66773, Note_on_c, 9, 36, 38
4, 66883, Note_on_c, 9, 36, 0
4, 66923, Note_on_c, 9, 38, 0
4, 66961, Note_on_c, 9, 40, 0
4, 67208, Note_on_c, 9, 38, 41
4, 67354, Note_on_c, 9, 38, 0
4, 67666, Note_on_c, 9, 38, 67
4, 67705, Note_on_c, 9, 40, 30
4, 67732, Note_on_c, 9, 53, 42
4, 67879, Note_on_c, 9, 53, 0
4, 67895, Note_on_c, 9, 38, 0
4, 68094, Note_on_c, 9, 38, 49
4, 68153, Note_on_c, 9, 44, 92
4, 68177, Note_on_c, 9, 40, 0
4, 68304, Note_on_c, 9, 38, 0
4, 68607, Note_on_c, 9, 44, 0
4, 68610, Note_on_c, 9, 38, 53
4, 68655, Note_on_c, 9, 51, 38
4, 68770, Note_on_c, 9, 51, 0
4, 68787, Note_on_c, 9, 38, 0
4, 69057, Note_on_c, 9, 51, 39
4, 69057, Note_on_c, 9, 40, 30
4, 69064, Note_on_c, 9, 38, 53
4, 69254, Note_on_c, 9, 51, 0
4, 69536, Note_on_c, 9, 40, 0
4, 69552, Note_on_c, 9, 39, 69
4, 69650, Note_on_c, 9, 38, 0
4, 69825, Note_on_c, 9, 39, 0
4, 69962, Note_on_c, 9, 40, 23
4, 69973, Note_on_c, 9, 38, 52
4, 70055, Note_on_c, 9, 44, 86
4, 70214, Note_on_c, 9, 38, 0
4, 70297, Note_on_c, 9, 40, 0
4, 70482, Note_on_c, 9, 38, 38
4, 70485, Note_on_c, 9, 44, 0
4, 70492, Note_on_c, 9, 53, 53
4, 70698, Note_on_c, 9, 53, 0
4, 70705, Note_on_c, 9, 38, 0
4, 70963, Note_on_c, 9, 39, 62
4, 70979, Note_on_c, 9, 40, 25
4, 71008, Note_on_c, 9, 38, 37
4, 71098, Note_on_c, 9, 38, 0
4, 71352, Note_on_c, 9, 40, 0
4, 71362, Note_on_c, 9, 39, 0
4, 71503, Note_on_c, 9, 38, 31
4, 71544, Note_on_c, 9, 51, 30
4, 71632, Note_on_c, 9, 51, 0
4, 71709, Note_on_c, 9, 38, 0
4, 71923, Note_on_c, 9, 44, 92
4, 71973, Note_on_c, 9, 38, 55
4, 71998, Note_on_c, 9, 40, 23
4, 72221, Note_on_c, 9, 38, 0
4, 72227, Note_on_c, 9, 40, 0
4, 72377, Note_on_c, 9, 44, 0
4, 72496, Note_on_c, 9, 38, 61
4, 72545, Note_on_c, 9, 40, 26
4, 72806, Note_on_c, 9, 38, 0
4, 72947, Note_on_c, 9, 40, 0
4, 72964, Note_on_c, 9, 38, 42
4, 73165, Note_on_c, 9, 38, 0
4, 73448, Note_on_c, 9, 38, 62
4, 73679, Note_on_c, 9, 38, 0
4, 73842, Note_on_c, 9, 44, 86
4, 73881, Note_on_c, 9, 38, 60
4, 73935, Note_on_c, 9, 40, 30
4, 74228, Note_on_c, 9, 38, 0
4, 74228, Note_on_c, 9, 44, 0
4, 74378, Note_on_c, 9, 38, 38
4, 74494, Note_on_c, 9, 40, 0
4, 74625, Note_on_c, 9, 38, 0
4, 74842, Note_on_c, 9, 38, 38
4, 75083, Note_on_c, 9, 38, 0
4, 75335, Note_on_c, 9, 38, 56
4, 75347, Note_on_c, 9, 53, 51
4, 75360, Note_on_c, 9, 40, 29
4, 75646, Note_on_c, 9, 53, 0
4, 75661, Note_on_c, 9, 38, 0
4, 75734, Note_on_c, 9, 40, 0
4, 75737, Note_on_c, 9, 44, 86
4, 75807, Note_on_c, 9, 39, 43
4, 76052, Note_on_c, 9, 39, 0
4, 76177, Note_on_c, 9, 44, 0
4, 76262, Note_on_c, 9, 38, 62
4, 76283, Note_on_c, 9, 40, 31
4, 76297, Note_on_c, 9, 36, 27
4, 76412, Note_on_c, 9, 36, 0
4, 76556, Note_on_c, 9, 38, 0
4, 76664, Note_on_c, 9, 40, 0
4, 76687, Note_on_c, 9, 38, 39
4, 76746, Note_on_c, 9, 36, 45
4, 76901, Note_on_c, 9, 38, 0
4, 76936, Note_on_c, 9, 36, 0
4, 77173, Note_on_c, 9, 39, 61
4, 77200, Note_on_c, 9, 40, 33
4, 77544, Note_on_c, 9, 40, 0
4, 77546, Note_on_c, 9, 39, 0
4, 77662, Note_on_c, 9, 38, 34
4, 77672, Note_on_c, 9, 44, 84
4, 77935, Note_on_c, 9, 38, 0
4, 78102, Note_on_c, 9, 44, 0
4, 78170, Note_on_c, 9, 38, 43
4, 78421, Note_on_c, 9, 38, 0
4, 78638, Note_on_c, 9, 38, 52
4, 78650, Note_on_c, 9, 40, 32
4, 78958, Note_on_c, 9, 38, 0
4, 79091, Note_on_c, 9, 40, 0
4, 79104, Note_on_c, 9, 39, 64
4, 79140, Note_on_c, 9, 53, 56
4, 79395, Note_on_c, 9, 39, 0
4, 79446, Note_on_c, 9, 53, 0
4, 79584, Note_on_c, 9, 38, 53
4, 79584, Note_on_c, 9, 44, 84
4, 79628, Note_on_c, 9, 40, 20
4, 79638, Note_on_c, 9, 51, 30
4, 79810, Note_on_c, 9, 51, 0
4, 79859, Note_on_c, 9, 38, 0
4, 79898, Note_on_c, 9, 40, 0
4, 80068, Note_on_c, 9, 44, 0
4, 80073, Note_on_c, 9, 38, 49
4, 80139, Note_on_c, 9, 36, 49
4, 80306, Note_on_c, 9, 38, 0
4, 80380, Note_on_c, 9, 36, 0
4, 80583, Note_on_c, 9, 40, 28
4, 80593, Note_on_c, 9, 38, 62
4, 80601, Note_on_c, 9, 36, 45
4, 80850, Note_on_c, 9, 36, 0
4, 80886, Note_on_c, 9, 38, 0
4, 80940, Note_on_c, 9, 40, 0
4, 81100, Note_on_c, 9, 38, 47
4, 81288, Note_on_c, 9, 38, 0
4, 81489, Note_on_c, 9, 44, 77
4, 81600, Note_on_c, 9, 38, 54
4, 81612, Note_on_c, 9, 40, 25
4, 81860, Note_on_c, 9, 38, 0
4, 81892, Note_on_c, 9, 44, 0
4, 81914, Note_on_c, 9, 40, 0
4, 82049, Note_on_c, 9, 39, 51
4, 82111, Note_on_c, 9, 53, 53
4, 82277, Note_on_c, 9, 53, 0
4, 82340, Note_on_c, 9, 39, 0
4, 82504, Note_on_c, 9, 38, 49
4, 82552, Note_on_c, 9, 40, 18
4, 82731, Note_on_c, 9, 38, 0
4, 82744, Note_on_c, 9, 40, 0
4, 83020, Note_on_c, 9, 53, 36
4, 83022, Note_on_c, 9, 38, 60
4, 83047, Note_on_c, 9, 40, 31
4, 83180, Note_on_c, 9, 53, 0
4, 83282, Note_on_c, 9, 38, 0
4, 83399, Note_on_c, 9, 40, 0
4, 83475, Note_on_c, 9, 44, 77
4, 83692, Note_on_c, 9, 38, 56
4, 83848, Note_on_c, 9, 44, 0
4, 83871, Note_on_c, 9, 38, 0
4, 84150, Note_on_c, 9, 38, 45
4, 84329, Note_on_c, 9, 38, 0
4, 84564, Note_on_c, 9, 38, 59
4, 84574, Note_on_c, 9, 40, 31
4, 84915, Note_on_c, 9, 38, 0
4, 85000, Note_on_c, 9, 40, 0
4, 85077, Note_on_c, 9, 38, 38
4, 85244, Note_on_c, 9, 38, 0
4, 85387, Note_on_c, 9, 44, 86
4, 85506, Note_on_c, 9, 38, 50
4, 85716, Note_on_c, 9, 38, 0
4, 85719, Note_on_c, 9, 44, 0
4, 85939, Note_on_c, 9, 39, 63
4, 85972, Note_on_c, 9, 40, 33
4, 86251, Note_on_c, 9, 39, 0
4, 86365, Note_on_c, 9, 40, 0
4, 86425, Note_on_c, 9, 38, 29
4, 86637, Note_on_c, 9, 38, 0
4, 86900, Note_on_c, 9, 38, 47
4, 86945, Note_on_c, 9, 40, 25
4, 87149, Note_on_c, 9, 38, 0
4, 87160, Note_on_c, 9, 40, 0
4, 87336, Note_on_c, 9, 44, 84
4, 87351, Note_on_c, 9, 38, 42
4, 87576, Note_on_c, 9, 38, 0
4, 87685, Note_on_c, 9, 44, 0
4, 87813, Note_on_c, 9, 38, 40
4, 88039, Note_on_c, 9, 38, 0
4, 88270, Note_on_c, 9, 38, 58
4, 88287, Note_on_c, 9, 40, 30
4, 88684, Note_on_c, 9, 38, 0
4, 88717, Note_on_c, 9, 40, 0
4, 88830, Note_on_c, 9, 39, 61
4, 89054, Note_on_c, 9, 39, 0
4, 89192, Note_on_c, 9, 40, 22
4, 89196, Note_on_c, 9, 38, 40
4, 89274, Note_on_c, 9, 44, 86
4, 89462, Note_on_c, 9, 40, 0
4, 89477, Note_on_c, 9, 38, 0
4, 89583, Note_on_c, 9, 44, 0
4, 89747, Note_on_c, 9, 38, 51
4, 89784, Note_on_c, 9, 40, 30
4, 90240, Note_on_c, 9, 38, 0
4, 90284, Note_on_c, 9, 40, 0
4, 90637, Note_on_c, 9, 39, 63
4, 90660, Note_on_c, 9, 40, 32
4, 91008, Note_on_c, 9, 39, 0
4, 91057, Note_on_c, 9, 40, 0
4, 91103, Note_on_c, 9, 38, 39
4, 91206, Note_on_c, 9, 44, 87
4, 91399, Note_on_c, 9, 38, 0
4, 91600, Note_on_c, 9, 38, 37
4, 91657, Note_on_c, 9, 44, 0
4, 91848, Note_on_c, 9, 38, 0
4, 92075, Note_on_c, 9, 38, 54
4, 92085, Note_on_c, 9, 40, 32
4, 92099, Note_on_c, 9, 53, 55
4, 92532, Note_on_c, 9, 40, 0
4, 92549, Note_on_c, 9, 38, 0
4, 92561, Note_on_c, 9, 39, 54
4, 92652, Note_on_c, 9, 53, 0
4, 92809, Note_on_c, 9, 39, 0
4, 93034, Note_on_c, 9, 38, 51
4, 93074, Note_on_c, 9, 44, 89
4, 93088, Note_on_c, 9, 40, 25
4, 93346, Note_on_c, 9, 38, 0
4, 93366, Note_on_c, 9, 40, 0
4, 93427, Note_on_c, 9, 44, 0
4, 93549, Note_on_c, 9, 38, 51
4, 93563, Note_on_c, 9, 53, 53
4, 93581, Note_on_c, 9, 40, 29
4, 93665, Note_on_c, 9, 53, 0
4, 94015, Note_on_c, 9, 53, 55
4, 94348, Note_on_c, 9, 40, 0
4, 94404, Note_on_c, 9, 38, 0
4, 94420, Note_on_c, 9, 53, 0
4, 94583, Note_on_c, 9, 39, 49
4, 94627, Note_on_c, 9, 40, 34
4, 94945, Note_on_c, 9, 40, 0
4, 94953, Note_on_c, 9, 39, 0
4, 95010, Note_on_c, 9, 44, 90
4, 95045, Note_on_c, 9, 38, 41
4, 95276, Note_on_c, 9, 38, 0
4, 95393, Note_on_c, 9, 44, 0
4, 95510, Note_on_c, 9, 53, 49
4, 95542, Note_on_c, 9, 38, 46
4, 95712, Note_on_c, 9, 53, 0
4, 95748, Note_on_c, 9, 38, 0
4, 96000, Note_on_c, 9, 40, 29
4, 96004, Note_on_c, 9, 38, 62
4, 96355, Note_on_c, 9, 40, 0
4, 96389, Note_on_c, 9, 38, 0
4, 96500, Note_on_c, 9, 53, 34
4, 96515, Note_on_c, 9, 39, 51
4, 96588, Note_on_c, 9, 53, 0
4, 96723, Note_on_c, 9, 39, 0
4, 96908, Note_on_c, 9, 44, 83
4, 96921, Note_on_c, 9, 38, 58
4, 96954, Note_on_c, 9, 40, 27
4, 96960, Note_on_c, 9, 53, 50
4, 97070, Note_on_c, 9, 53, 0
4, 97206, Note_on_c, 9, 38, 0
4, 97216, Note_on_c, 9, 40, 0
4, 97234, Note_on_c, 9, 44, 0
4, 97420, Note_on_c, 9, 38, 49
4, 97474, Note_on_c, 9, 40, 23
4, 97668, Note_on_c, 9, 38, 0
4, 97705, Note_on_c, 9, 40, 0
4, 97876, Note_on_c, 9, 38, 41
4, 97915, Note_on_c, 9, 40, 26
4, 98213, Note_on_c, 9, 40, 0
4, 98227, Note_on_c, 9, 38, 0
4, 98406, Note_on_c, 9, 39, 60
4, 98681, Note_on_c, 9, 39, 0
4, 98789, Note_on_c, 9, 38, 41
4, 98805, Note_on_c, 9, 40, 24
4, 98844, Note_on_c, 9, 44, 81
4, 99126, Note_on_c, 9, 44, 0
4, 99172, Note_on_c, 9, 40, 0
4, 99180, Note_on_c, 9, 38, 0
4, 99353, Note_on_c, 9, 38, 47
4, 99419, Note_on_c, 9, 40, 23
4, 99629, Note_on_c, 9, 38, 0
4, 99700, Note_on_c, 9, 40, 0
4, 99818, Note_on_c, 9, 39, 61
4, 100195, Note_on_c, 9, 39, 0
4, 100307, Note_on_c, 9, 38, 50
4, 100334, Note_on_c, 9, 53, 41
4, 100336, Note_on_c, 9, 40, 24
4, 100379, Note_on_c, 9, 51, 31
4, 100513, Note_on_c, 9, 51, 0
4, 100558, Note_on_c, 9, 53, 0
4, 100565, Note_on_c, 9, 38, 0
4, 100735, Note_on_c, 9, 44, 86
4, 100769, Note_on_c, 9, 38, 40
4, 101018, Note_on_c, 9, 44, 0
4, 101031, Note_on_c, 9, 40, 0
4, 101091, Note_on_c, 9, 38, 0
4, 101289, Note_on_c, 9, 38, 64
4, 101301, Note_on_c, 9, 40, 36
4, 101580, Note_on_c, 9, 38, 0
4, 101761, Note_on_c, 9, 38, 49
4, 102044, Note_on_c, 9, 40, 0
4, 102133, Note_on_c, 9, 38, 0
4, 102222, Note_on_c, 9, 51, 34
4, 102256, Note_on_c, 9, 39, 69
4, 102267, Note_on_c, 9, 40, 35
4, 102285, Note_on_c, 9, 53, 29
4, 102382, Note_on_c, 9, 51, 0
4, 102397, Note_on_c, 9, 53, 0
4, 102577, Note_on_c, 9, 46, 23
4, 102581, Note_on_c, 9, 39, 0
4, 102683, Note_on_c, 9, 38, 42
4, 102705, Note_on_c, 9, 36, 32
4, 102823, Note_on_c, 9, 36, 0
4, 102859, Note_on_c, 9, 46, 0
4, 102891, Note_on_c, 9, 40, 0
4, 102990, Note_on_c, 9, 38, 0
4, 103148, Note_on_c, 9, 36, 49
4, 103198, Note_on_c, 9, 38, 52
4, 103211, Note_on_c, 9, 40, 24
4, 103381, Note_on_c, 9, 36, 0
4, 103440, Note_on_c, 9, 40, 0
4, 103463, Note_on_c, 9, 38, 0
4, 103648, Note_on_c, 9, 38, 59
4, 103662, Note_on_c, 9, 36, 47
4, 103669, Note_on_c, 9, 40, 27
4, 103899, Note_on_c, 9, 36, 0
4, 104066, Note_on_c, 9, 40, 0
4, 104122, Note_on_c, 9, 38, 0
4, 104139, Note_on_c, 9, 39, 65
4, 104428, Note_on_c, 9, 39, 0
4, 104502, Note_on_c, 9, 44, 87
4, 104569, Note_on_c, 9, 38, 49
4, 104592, Note_on_c, 9, 40, 24
4, 104815, Note_on_c, 9, 40, 0
4, 104825, Note_on_c, 9, 38, 0
4, 104834, Note_on_c, 9, 44, 0
4, 105070, Note_on_c, 9, 38, 60
4, 105100, Note_on_c, 9, 40, 35
4, 105374, Note_on_c, 9, 38, 0
4, 105530, Note_on_c, 9, 38, 37
4, 105771, Note_on_c, 9, 40, 0
4, 105803, Note_on_c, 9, 38, 0
4, 106021, Note_on_c, 9, 39, 67
4, 106046, Note_on_c, 9, 40, 34
4, 106339, Note_on_c, 9, 39, 0
4, 106441, Note_on_c, 9, 44, 83
4, 106458, Note_on_c, 9, 38, 41
4, 106662, Note_on_c, 9, 40, 0
4, 106749, Note_on_c, 9, 38, 0
4, 106800, Note_on_c, 9, 44, 0
4, 106992, Note_on_c, 9, 38, 50
4, 107190, Note_on_c, 9, 38, 0
4, 107415, Note_on_c, 9, 40, 34
4, 107421, Note_on_c, 9, 38, 60
4, 107766, Note_on_c, 9, 38, 0
4, 107974, Note_on_c, 9, 38, 40
4, 108103, Note_on_c, 9, 40, 0
4, 108136, Note_on_c, 9, 38, 0
4, 108336, Note_on_c, 9, 44, 86
4, 108396, Note_on_c, 9, 38, 46
4, 108411, Note_on_c, 9, 40, 25
4, 108652, Note_on_c, 9, 44, 0
4, 108663, Note_on_c, 9, 38, 0
4, 108773, Note_on_c, 9, 40, 0
4, 108906, Note_on_c, 9, 38, 58
4, 108923, Note_on_c, 9, 40, 36
4, 109178, Note_on_c, 9, 38, 0
4, 109357, Note_on_c, 9, 40, 0
4, 109422, Note_on_c, 9, 39, 40
4, 109580, Note_on_c, 9, 39, 0
4, 109858, Note_on_c, 9, 53, 51
4, 109861, Note_on_c, 9, 40, 33
4, 109871, Note_on_c, 9, 38, 71
4, 110024, Note_on_c, 9, 53, 0
4, 110162, Note_on_c, 9, 38, 0
4, 110175, Note_on_c, 9, 40, 0
4, 110247, Note_on_c, 9, 36, 49
4, 110274, Note_on_c, 9, 44, 81
4, 110354, Note_on_c, 9, 38, 44
4, 110379, Note_on_c, 9, 40, 18
4, 110501, Note_on_c, 9, 36, 0
4, 110568, Note_on_c, 9, 40, 0
4, 110582, Note_on_c, 9, 38, 0
4, 110664, Note_on_c, 9, 44, 0
4, 110750, Note_on_c, 9, 36, 51
4, 110815, Note_on_c, 9, 40, 31
4, 110820, Note_on_c, 9, 38, 56
4, 111025, Note_on_c, 9, 36, 0
4, 111067, Note_on_c, 9, 40, 0
4, 111071, Note_on_c, 9, 38, 0
4, 111267, Note_on_c, 9, 40, 28
4, 111288, Note_on_c, 9, 38, 57
4, 111335, Note_on_c, 9, 36, 31
4, 111464, Note_on_c, 9, 36, 0
4, 111612, Note_on_c, 9, 38, 0
4, 111637, Note_on_c, 9, 40, 0
4, 111766, Note_on_c, 9, 39, 51
4, 112013, Note_on_c, 9, 39, 0
4, 112176, Note_on_c, 9, 38, 60
4, 112190, Note_on_c, 9, 40, 33
4, 112196, Note_on_c, 9, 44, 76
4, 112279, Note_on_c, 9, 53, 39
4, 112471, Note_on_c, 9, 38, 0
4, 112556, Note_on_c, 9, 44, 0
4, 112621, Note_on_c, 9, 40, 0
4, 112633, Note_on_c, 9, 53, 0
4, 112673, Note_on_c, 9, 38, 41
4, 112739, Note_on_c, 9, 40, 14
4, 112741, Note_on_c, 9, 36, 44
4, 112966, Note_on_c, 9, 38, 0
4, 113009, Note_on_c, 9, 36, 0
4, 113145, Note_on_c, 9, 38, 48
4, 113395, Note_on_c, 9, 38, 0
4, 113422, Note_on_c, 9, 40, 0
4, 113648, Note_on_c, 9, 39, 66
4, 113656, Note_on_c, 9, 53, 50
4, 113680, Note_on_c, 9, 40, 33
4, 113956, Note_on_c, 9, 53, 0
4, 113973, Note_on_c, 9, 39, 0
4, 114112, Note_on_c, 9, 44, 77
4, 114114, Note_on_c, 9, 38, 35
4, 114155, Note_on_c, 9, 36, 30
4, 114370, Note_on_c, 9, 38, 0
4, 114374, Note_on_c, 9, 40, 0
4, 114380, Note_on_c, 9, 36, 0
4, 114484, Note_on_c, 9, 44, 0
4, 114638, Note_on_c, 9, 40, 30
4, 114647, Note_on_c, 9, 38, 55
4, 114892, Note_on_c, 9, 40, 0
4, 114894, Note_on_c, 9, 38, 0
4, 115098, Note_on_c, 9, 40, 29
4, 115119, Note_on_c, 9, 38, 40
4, 115377, Note_on_c, 9, 40, 0
4, 115387, Note_on_c, 9, 38, 0
4, 115612, Note_on_c, 9, 39, 65
4, 115637, Note_on_c, 9, 40, 37
4, 115941, Note_on_c, 9, 39, 0
4, 116027, Note_on_c, 9, 44, 78
4, 116084, Note_on_c, 9, 38, 32
4, 116248, Note_on_c, 9, 40, 0
4, 116315, Note_on_c, 9, 38, 0
4, 116356, Note_on_c, 9, 44, 0
4, 116606, Note_on_c, 9, 39, 68
4, 116623, Note_on_c, 9, 40, 34
4, 116908, Note_on_c, 9, 39, 0
4, 116935, Note_on_c, 9, 40, 0
4, 117072, Note_on_c, 9, 38, 40
4, 117132, Note_on_c, 9, 40, 24
4, 117293, Note_on_c, 9, 40, 0
4, 117334, Note_on_c, 9, 38, 0
4, 117575, Note_on_c, 9, 38, 51
4, 117577, Note_on_c, 9, 40, 33
4, 117600, Note_on_c, 9, 53, 47
4, 117602, Note_on_c, 9, 59, 54
4, 117794, Note_on_c, 9, 40, 0
4, 117806, Note_on_c, 9, 38, 0
4, 117808, Note_on_c, 9, 53, 0
4, 117812, Note_on_c, 9, 59, 0
4, 117986, Note_on_c, 9, 44, 87
4, 117998, Note_on_c, 9, 40, 23
4, 118025, Note_on_c, 9, 38, 41
4, 118260, Note_on_c, 9, 38, 0
4, 118272, Note_on_c, 9, 40, 0
4, 118298, Note_on_c, 9, 44, 0
4, 118493, Note_on_c, 9, 39, 65
4, 118538, Note_on_c, 9, 36, 43
4, 118551, Note_on_c, 9, 40, 36
4, 118690, Note_on_c, 9, 36, 0
4, 118788, Note_on_c, 9, 39, 0
4, 118801, Note_on_c, 9, 40, 0
4, 119002, Note_on_c, 9, 38, 29
4, 119021, Note_on_c, 9, 40, 26
4, 119024, Note_on_c, 9, 59, 55
4, 119031, Note_on_c, 9, 53, 43
4, 119233, Note_on_c, 9, 38, 0
4, 119246, Note_on_c, 9, 40, 0
4, 119445, Note_on_c, 9, 38, 45
4, 119466, Note_on_c, 9, 40, 26
4, 119517, Note_on_c, 9, 53, 0
4, 119594, Note_on_c, 9, 59, 0
4, 119701, Note_on_c, 9, 40, 0
4, 119705, Note_on_c, 9, 38, 0
4, 119857, Note_on_c, 9, 44, 87
4, 119911, Note_on_c, 9, 40, 22
4, 119915, Note_on_c, 9, 38, 41
4, 120146, Note_on_c, 9, 38, 0
4, 120165, Note_on_c, 9, 40, 0
4, 120180, Note_on_c, 9, 44, 0
4, 120390, Note_on_c, 9, 39, 65
4, 120446, Note_on_c, 9, 40, 34
4, 120514, Note_on_c, 9, 59, 48
4, 120522, Note_on_c, 9, 53, 39
4, 120630, Note_on_c, 9, 59, 0
4, 120632, Note_on_c, 9, 53, 0
4, 120710, Note_on_c, 9, 39, 0
4, 120843, Note_on_c, 9, 38, 35
4, 121068, Note_on_c, 9, 38, 0
4, 121095, Note_on_c, 9, 40, 0
4, 121374, Note_on_c, 9, 38, 55
4, 121398, Note_on_c, 9, 40, 29
4, 121404, Note_on_c, 9, 36, 36
4, 121539, Note_on_c, 9, 36, 0
4, 121611, Note_on_c, 9, 38, 0
4, 121615, Note_on_c, 9, 40, 0
4, 121762, Note_on_c, 9, 44, 86
4, 121829, Note_on_c, 9, 38, 42
4, 121837, Note_on_c, 9, 40, 24
4, 121858, Note_on_c, 9, 36, 50
4, 122083, Note_on_c, 9, 38, 0
4, 122087, Note_on_c, 9, 40, 0
4, 122118, Note_on_c, 9, 44, 0
4, 122136, Note_on_c, 9, 36, 0
4, 122318, Note_on_c, 9, 38, 53
4, 122349, Note_on_c, 9, 40, 31
4, 122584, Note_on_c, 9, 38, 0
4, 122595, Note_on_c, 9, 40, 0
4, 122803, Note_on_c, 9, 38, 50
4, 122815, Note_on_c, 9, 40, 27
4, 123131, Note_on_c, 9, 40, 0
4, 123171, Note_on_c, 9, 38, 0
4, 123325, Note_on_c, 9, 39, 69
4, 123343, Note_on_c, 9, 40, 33
4, 123388, Note_on_c, 9, 53, 42
4, 123397, Note_on_c, 9, 59, 51
4, 123513, Note_on_c, 9, 53, 0
4, 123526, Note_on_c, 9, 59, 0
4, 123649, Note_on_c, 9, 39, 0
4, 123701, Note_on_c, 9, 44, 86
4, 123724, Note_on_c, 9, 40, 0
4, 123741, Note_on_c, 9, 38, 48
4, 123967, Note_on_c, 9, 38, 0
4, 124050, Note_on_c, 9, 44, 0
4, 124244, Note_on_c, 9, 38, 60
4, 124247, Note_on_c, 9, 36, 43
4, 124304, Note_on_c, 9, 40, 30
4, 124493, Note_on_c, 9, 38, 0
4, 124496, Note_on_c, 9, 40, 0
4, 124499, Note_on_c, 9, 36, 0
4, 124731, Note_on_c, 9, 39, 73
4, 124755, Note_on_c, 9, 53, 38
4, 124756, Note_on_c, 9, 40, 38
4, 124759, Note_on_c, 9, 59, 44
4, 125061, Note_on_c, 9, 40, 0
4, 125094, Note_on_c, 9, 53, 0
4, 125103, Note_on_c, 9, 39, 0
4, 125255, Note_on_c, 9, 38, 36
4, 125256, Note_on_c, 9, 59, 0
4, 125319, Note_on_c, 9, 40, 19
4, 125436, Note_on_c, 9, 40, 0
4, 125473, Note_on_c, 9, 38, 0
4, 125593, Note_on_c, 9, 44, 102
4, 125708, Note_on_c, 9, 38, 56
4, 125737, Note_on_c, 9, 40, 28
4, 125822, Note_on_c, 9, 57, 60
4, 125962, Note_on_c, 9, 44, 0
4, 125999, Note_on_c, 9, 40, 0
4, 126014, Note_on_c, 9, 38, 0
4, 126042, Note_on_c, 9, 57, 0
4, 126191, Note_on_c, 9, 38, 56
4, 126226, Note_on_c, 9, 40, 28
4, 126374, Note_on_c, 9, 38, 0
4, 126415, Note_on_c, 9, 40, 0
4, 126720, Note_on_c, 9, 38, 75
4, 126720, Note_on_c, 9, 40, 33
4, 126761, Note_on_c, 9, 59, 45
4, 126873, Note_on_c, 9, 38, 0
4, 126957, Note_on_c, 9, 59, 0
4, 127155, Note_on_c, 9, 38, 48
4, 127163, Note_on_c, 9, 40, 0
4, 127269, Note_on_c, 9, 38, 0
4, 127653, Note_on_c, 9, 38, 42
4, 127664, Note_on_c, 9, 44, 74
4, 127782, Note_on_c, 9, 38, 0
4, 127984, Note_on_c, 9, 44, 0
4, 128212, Note_on_c, 9, 38, 67
4, 128233, Note_on_c, 9, 40, 32
4, 128379, Note_on_c, 9, 38, 0
4, 128460, Note_on_c, 9, 40, 0
4, 128736, Note_on_c, 9, 38, 41
4, 128865, Note_on_c, 9, 38, 0
4, 129221, Note_on_c, 9, 38, 36
4, 129340, Note_on_c, 9, 38, 0
4, 129565, Note_on_c, 9, 44, 71
4, 129660, Note_on_c, 9, 38, 56
4, 129685, Note_on_c, 9, 40, 31
4, 129843, Note_on_c, 9, 38, 0
4, 129928, Note_on_c, 9, 40, 0
4, 130090, Note_on_c, 9, 44, 0
4, 130184, Note_on_c, 9, 38, 39
4, 130355, Note_on_c, 9, 38, 0
4, 130638, Note_on_c, 9, 38, 37
4, 130802, Note_on_c, 9, 38, 0
4, 131114, Note_on_c, 9, 40, 36
4, 131118, Note_on_c, 9, 38, 57
4, 131314, Note_on_c, 9, 38, 0
4, 131384, Note_on_c, 9, 40, 0
4, 131551, Note_on_c, 9, 44, 63
4, 131634, Note_on_c, 9, 38, 36
4, 131831, Note_on_c, 9, 38, 0
4, 131911, Note_on_c, 9, 44, 0
4, 132083, Note_on_c, 9, 38, 36
4, 132341, Note_on_c, 9, 38, 0
4, 132570, Note_on_c, 9, 40, 27
4, 132574, Note_on_c, 9, 38, 52
4, 132928, Note_on_c, 9, 38, 0
4, 133082, Note_on_c, 9, 38, 40
4, 133256, Note_on_c, 9, 38, 0
4, 133429, Note_on_c, 9, 46, 22
4, 133481, Note_on_c, 9, 38, 40
4, 133629, Note_on_c, 9, 38, 0
4, 133890, Note_on_c, 9, 46, 0
4, 133972, Note_on_c, 9, 38, 43
4, 134153, Note_on_c, 9, 38, 0
4, 134213, Note_on_c, 9, 40, 0
4, 134429, Note_on_c, 9, 40, 23
4, 134442, Note_on_c, 9, 38, 58
4, 134664, Note_on_c, 9, 38, 0
4, 134943, Note_on_c, 9, 38, 43
4, 135072, Note_on_c, 9, 38, 0
4, 135415, Note_on_c, 9, 38, 30
4, 135429, Note_on_c, 9, 44, 63
4, 135553, Note_on_c, 9, 38, 0
4, 135559, Note_on_c, 9, 40, 0
4, 135778, Note_on_c, 9, 44, 0
4, 135846, Note_on_c, 9, 38, 57
4, 135892, Note_on_c, 9, 40, 29
4, 136068, Note_on_c, 9, 38, 0
4, 136314, Note_on_c, 9, 38, 38
4, 136484, Note_on_c, 9, 38, 0
4, 136678, Note_on_c, 9, 40, 0
4, 136821, Note_on_c, 9, 38, 45
4, 136950, Note_on_c, 9, 38, 0
4, 137229, Note_on_c, 9, 38, 55
4, 137260, Note_on_c, 9, 44, 74
4, 137271, Note_on_c, 9, 40, 28
4, 137460, Note_on_c, 9, 38, 0
4, 137666, Note_on_c, 9, 44, 0
4, 137762, Note_on_c, 9, 38, 45
4, 137915, Note_on_c, 9, 38, 0
4, 138211, Note_on_c, 9, 38, 41
4, 138213, Note_on_c, 9, 40, 0
4, 138413, Note_on_c, 9, 38, 0
4, 138637, Note_on_c, 9, 39, 64
4, 138670, Note_on_c, 9, 40, 31
4, 138854, Note_on_c, 9, 39, 0
4, 138991, Note_on_c, 9, 40, 0
4, 139111, Note_on_c, 9, 38, 33
4, 139152, Note_on_c, 9, 44, 78
4, 139340, Note_on_c, 9, 38, 0
4, 139541, Note_on_c, 9, 44, 0
4, 139582, Note_on_c, 9, 38, 39
4, 139640, Note_on_c, 9, 40, 23
4, 139837, Note_on_c, 9, 38, 0
4, 139962, Note_on_c, 9, 40, 0
4, 140077, Note_on_c, 9, 38, 35
4, 140326, Note_on_c, 9, 38, 0
4, 140601, Note_on_c, 9, 38, 39
4, 140823, Note_on_c, 9, 38, 0
4, 141046, Note_on_c, 9, 38, 52
4, 141056, Note_on_c, 9, 40, 30
4, 141087, Note_on_c, 9, 44, 77
4, 141350, Note_on_c, 9, 38, 0
4, 141530, Note_on_c, 9, 44, 0
4, 141536, Note_on_c, 9, 53, 25
4, 141580, Note_on_c, 9, 40, 0
4, 141624, Note_on_c, 9, 38, 24
4, 141811, Note_on_c, 9, 53, 0
4, 141884, Note_on_c, 9, 38, 0
4, 142027, Note_on_c, 9, 53, 33
4, 142103, Note_on_c, 9, 38, 39
4, 142340, Note_on_c, 9, 38, 0
4, 142616, Note_on_c, 9, 38, 47
4, 142666, Note_on_c, 9, 40, 28
4, 142682, Note_on_c, 9, 53, 0
4, 142853, Note_on_c, 9, 38, 0
4, 143022, Note_on_c, 9, 44, 68
4, 143055, Note_on_c, 9, 38, 33
4, 143323, Note_on_c, 9, 38, 0
4, 143379, Note_on_c, 9, 44, 0
4, 143554, Note_on_c, 9, 38, 50
4, 143744, Note_on_c, 9, 38, 0
4, 143864, Note_on_c, 9, 40, 0
4, 143999, Note_on_c, 9, 38, 51
4, 144029, Note_on_c, 9, 40, 23
4, 144195, Note_on_c, 9, 38, 0
4, 144495, Note_on_c, 9, 38, 38
4, 144613, Note_on_c, 9, 38, 0
4, 144779, Note_on_c, 9, 40, 0
4, 144911, Note_on_c, 9, 38, 46
4, 144944, Note_on_c, 9, 40, 24
4, 144944, Note_on_c, 9, 44, 76
4, 145175, Note_on_c, 9, 38, 0
4, 145331, Note_on_c, 9, 44, 0
4, 145416, Note_on_c, 9, 38, 43
4, 145584, Note_on_c, 9, 38, 0
4, 145861, Note_on_c, 9, 38, 39
4, 146079, Note_on_c, 9, 38, 0
4, 146183, Note_on_c, 9, 40, 0
4, 146348, Note_on_c, 9, 38, 37
4, 146443, Note_on_c, 9, 40, 23
4, 146531, Note_on_c, 9, 38, 0
4, 146791, Note_on_c, 9, 38, 41
4, 146866, Note_on_c, 9, 44, 60
4, 147095, Note_on_c, 9, 38, 0
4, 147239, Note_on_c, 9, 44, 0
4, 147336, Note_on_c, 9, 38, 39
4, 147511, Note_on_c, 9, 40, 0
4, 147565, Note_on_c, 9, 38, 0
4, 147793, Note_on_c, 9, 40, 23
4, 147837, Note_on_c, 9, 38, 47
4, 148097, Note_on_c, 9, 38, 0
4, 148328, Note_on_c, 9, 38, 40
4, 148484, Note_on_c, 9, 38, 0
4, 148777, Note_on_c, 9, 38, 35
4, 148808, Note_on_c, 9, 44, 70
4, 148937, Note_on_c, 9, 38, 0
4, 149224, Note_on_c, 9, 38, 45
4, 149228, Note_on_c, 9, 44, 0
4, 149299, Note_on_c, 9, 36, 49
4, 149435, Note_on_c, 9, 38, 0
4, 149487, Note_on_c, 9, 40, 0
4, 149525, Note_on_c, 9, 36, 0
4, 149709, Note_on_c, 9, 40, 28
4, 149711, Note_on_c, 9, 38, 52
4, 149934, Note_on_c, 9, 38, 0
4, 150242, Note_on_c, 9, 38, 41
4, 150389, Note_on_c, 9, 38, 0
4, 150713, Note_on_c, 9, 44, 60
4, 150735, Note_on_c, 9, 38, 29
4, 150853, Note_on_c, 9, 38, 0
4, 151043, Note_on_c, 9, 44, 0
4, 151211, Note_on_c, 9, 38, 43
4, 151359, Note_on_c, 9, 38, 0
4, 151698, Note_on_c, 9, 38, 49
4, 151835, Note_on_c, 9, 38, 0
4, 151974, Note_on_c, 9, 40, 0
4, 152155, Note_on_c, 9, 38, 70
4, 152186, Note_on_c, 9, 40, 34
4, 152367, Note_on_c, 9, 38, 0
4, 152602, Note_on_c, 9, 38, 41
4, 152659, Note_on_c, 9, 44, 76
4, 152775, Note_on_c, 9, 38, 0
4, 152971, Note_on_c, 9, 44, 0
4, 153095, Note_on_c, 9, 38, 40
4, 153237, Note_on_c, 9, 38, 0
4, 153308, Note_on_c, 9, 40, 0
4, 153574, Note_on_c, 9, 38, 65
4, 153584, Note_on_c, 9, 40, 29
4, 153798, Note_on_c, 9, 38, 0
4, 154061, Note_on_c, 9, 38, 43
4, 154225, Note_on_c, 9, 38, 0
4, 154531, Note_on_c, 9, 39, 65
4, 154534, Note_on_c, 9, 44, 76
4, 154776, Note_on_c, 9, 44, 0
4, 154791, Note_on_c, 9, 39, 0
4, 154830, Note_on_c, 9, 40, 0
4, 155053, Note_on_c, 9, 40, 23
4, 155067, Note_on_c, 9, 38, 40
4, 155288, Note_on_c, 9, 38, 0
4, 155445, Note_on_c, 9, 53, 50
4, 155502, Note_on_c, 9, 38, 39
4, 155611, Note_on_c, 9, 53, 0
4, 155779, Note_on_c, 9, 38, 0
4, 155818, Note_on_c, 9, 40, 0
4, 155986, Note_on_c, 9, 53, 58
4, 156001, Note_on_c, 9, 39, 69
4, 156020, Note_on_c, 9, 40, 32
4, 156161, Note_on_c, 9, 53, 0
4, 156396, Note_on_c, 9, 39, 0
4, 156465, Note_on_c, 9, 38, 39
4, 156469, Note_on_c, 9, 46, 26
4, 156710, Note_on_c, 9, 38, 0
4, 156717, Note_on_c, 9, 40, 0
4, 156825, Note_on_c, 9, 46, 0
4, 156926, Note_on_c, 9, 36, 41
4, 156941, Note_on_c, 9, 38, 49
4, 157002, Note_on_c, 9, 40, 33
4, 157165, Note_on_c, 9, 36, 0
4, 157195, Note_on_c, 9, 38, 0
4, 157330, Note_on_c, 9, 40, 0
4, 157388, Note_on_c, 9, 38, 50
4, 157407, Note_on_c, 9, 36, 55
4, 157432, Note_on_c, 9, 40, 24
4, 157673, Note_on_c, 9, 36, 0
4, 157711, Note_on_c, 9, 38, 0
4, 157915, Note_on_c, 9, 38, 50
4, 158112, Note_on_c, 9, 38, 0
4, 158340, Note_on_c, 9, 44, 74
4, 158383, Note_on_c, 9, 38, 36
4, 158476, Note_on_c, 9, 40, 0
4, 158646, Note_on_c, 9, 44, 0
4, 158701, Note_on_c, 9, 38, 0
4, 158886, Note_on_c, 9, 40, 28
4, 158888, Note_on_c, 9, 38, 56
4, 159121, Note_on_c, 9, 38, 0
4, 159342, Note_on_c, 9, 38, 39
4, 159531, Note_on_c, 9, 38, 0
4, 159600, Note_on_c, 9, 40, 0
4, 159843, Note_on_c, 9, 38, 37
4, 159932, Note_on_c, 9, 40, 22
4, 160059, Note_on_c, 9, 38, 0
4, 160229, Note_on_c, 9, 44, 71
4, 160257, Note_on_c, 9, 38, 47
4, 160502, Note_on_c, 9, 38, 0
4, 160598, Note_on_c, 9, 44, 0
4, 160664, Note_on_c, 9, 40, 0
4, 160771, Note_on_c, 9, 39, 69
4, 161024, Note_on_c, 9, 40, 19
4, 161051, Note_on_c, 9, 39, 0
4, 161239, Note_on_c, 9, 38, 35
4, 161569, Note_on_c, 9, 38, 0
4, 161590, Note_on_c, 9, 40, 0
4, 161759, Note_on_c, 9, 38, 45
4, 162002, Note_on_c, 9, 38, 0
4, 162187, Note_on_c, 9, 38, 42
4, 162211, Note_on_c, 9, 46, 34
4, 162258, Note_on_c, 9, 40, 19
4, 162426, Note_on_c, 9, 38, 0
4, 162480, Note_on_c, 9, 46, 0
4, 162539, Note_on_c, 9, 40, 0
4, 162707, Note_on_c, 9, 38, 61
4, 162755, Note_on_c, 9, 40, 32
4, 163054, Note_on_c, 9, 38, 0
4, 163212, Note_on_c, 9, 38, 42
4, 163502, Note_on_c, 9, 38, 0
4, 163684, Note_on_c, 9, 53, 37
4, 163685, Note_on_c, 9, 38, 51
4, 163792, Note_on_c, 9, 53, 0
4, 163928, Note_on_c, 9, 40, 0
4, 163953, Note_on_c, 9, 38, 0
4, 164046, Note_on_c, 9, 44, 80
4, 164123, Note_on_c, 9, 36, 40
4, 164155, Note_on_c, 9, 38, 49
4, 164165, Note_on_c, 9, 40, 25
4, 164318, Note_on_c, 9, 36, 0
4, 164335, Note_on_c, 9, 44, 0
4, 164502, Note_on_c, 9, 38, 0
4, 164650, Note_on_c, 9, 40, 0
4, 164662, Note_on_c, 9, 39, 65
4, 164695, Note_on_c, 9, 36, 32
4, 164878, Note_on_c, 9, 36, 0
4, 165005, Note_on_c, 9, 39, 0
4, 165068, Note_on_c, 9, 40, 23
4, 165095, Note_on_c, 9, 38, 41
4, 165407, Note_on_c, 9, 38, 0
4, 165532, Note_on_c, 9, 40, 0
4, 165615, Note_on_c, 9, 38, 45
4, 165842, Note_on_c, 9, 38, 0
4, 165991, Note_on_c, 9, 44, 71
4, 166043, Note_on_c, 9, 40, 20
4, 166070, Note_on_c, 9, 38, 41
4, 166272, Note_on_c, 9, 38, 0
4, 166287, Note_on_c, 9, 40, 0
4, 166300, Note_on_c, 9, 44, 0
4, 166555, Note_on_c, 9, 38, 65
4, 166597, Note_on_c, 9, 40, 26
4, 167196, Note_on_c, 9, 38, 0
4, 167412, Note_on_c, 9, 38, 54
4, 167601, Note_on_c, 9, 40, 0
4, 167666, Note_on_c, 9, 38, 0
4, 167853, Note_on_c, 9, 44, 74
4, 167936, Note_on_c, 9, 38, 55
4, 167938, Note_on_c, 9, 40, 24
4, 168219, Note_on_c, 9, 44, 0
4, 168250, Note_on_c, 9, 38, 0
4, 168462, Note_on_c, 9, 38, 42
4, 168614, Note_on_c, 9, 38, 0
4, 168924, Note_on_c, 9, 38, 32
4, 169051, Note_on_c, 9, 38, 0
4, 169386, Note_on_c, 9, 38, 59
4, 169565, Note_on_c, 9, 38, 0
4, 169778, Note_on_c, 9, 44, 68
4, 169891, Note_on_c, 9, 38, 30
4, 170006, Note_on_c, 9, 38, 0
4, 170168, Note_on_c, 9, 44, 0
4, 170332, Note_on_c, 9, 38, 67
4, 170334, Note_on_c, 9, 40, 0
4, 170484, Note_on_c, 9, 38, 0
4, 170821, Note_on_c, 9, 38, 49
4, 170856, Note_on_c, 9, 40, 24
4, 170927, Note_on_c, 9, 38, 0
4, 171314, Note_on_c, 9, 38, 76
4, 171485, Note_on_c, 9, 38, 0
4, 171737, Note_on_c, 9, 44, 77
4, 171792, Note_on_c, 9, 38, 38
4, 171913, Note_on_c, 9, 38, 0
4, 172042, Note_on_c, 9, 40, 0
4, 172177, Note_on_c, 9, 44, 0
4, 172239, Note_on_c, 9, 59, 41
4, 172315, Note_on_c, 9, 38, 77
4, 172341, Note_on_c, 9, 59, 0
4, 172367, Note_on_c, 9, 40, 28
4, 172483, Note_on_c, 9, 38, 0
4, 172807, Note_on_c, 9, 38, 62
4, 172955, Note_on_c, 9, 38, 0
4, 173174, Note_on_c, 9, 40, 0
4, 173257, Note_on_c, 9, 38, 71
4, 173259, Note_on_c, 9, 39, 63
4, 173307, Note_on_c, 9, 40, 22
4, 173456, Note_on_c, 9, 38, 0
4, 173550, Note_on_c, 9, 39, 0
4, 173683, Note_on_c, 9, 38, 34
4, 173703, Note_on_c, 9, 36, 43
4, 173749, Note_on_c, 9, 44, 76
4, 173912, Note_on_c, 9, 38, 0
4, 173991, Note_on_c, 9, 40, 0
4, 174059, Note_on_c, 9, 44, 0
4, 174232, Note_on_c, 9, 38, 52
4, 174293, Note_on_c, 9, 40, 19
4, 174331, Note_on_c, 9, 36, 0
4, 174440, Note_on_c, 9, 38, 0
4, 174694, Note_on_c, 9, 38, 46
4, 174989, Note_on_c, 9, 38, 0
4, 175035, Note_on_c, 9, 40, 0
4, 175183, Note_on_c, 9, 38, 45
4, 175191, Note_on_c, 9, 39, 62
4, 175227, Note_on_c, 9, 40, 28
4, 175374, Note_on_c, 9, 38, 0
4, 175509, Note_on_c, 9, 39, 0
4, 175621, Note_on_c, 9, 44, 74
4, 175636, Note_on_c, 9, 38, 34
4, 175873, Note_on_c, 9, 40, 0
4, 175900, Note_on_c, 9, 38, 0
4, 176071, Note_on_c, 9, 44, 0
4, 176163, Note_on_c, 9, 38, 23
4, 176206, Note_on_c, 9, 40, 16
4, 176410, Note_on_c, 9, 38, 0
4, 176477, Note_on_c, 9, 40, 0
4, 176626, Note_on_c, 9, 39, 65
4, 176672, Note_on_c, 9, 40, 29
4, 176961, Note_on_c, 9, 39, 0
4, 177132, Note_on_c, 9, 38, 36
4, 177277, Note_on_c, 9, 38, 0
4, 177279, Note_on_c, 9, 40, 0
4, 177506, Note_on_c, 9, 40, 19
4, 177539, Note_on_c, 9, 38, 45
4, 177593, Note_on_c, 9, 44, 78
4, 177862, Note_on_c, 9, 38, 0
4, 177912, Note_on_c, 9, 40, 0
4, 178010, Note_on_c, 9, 44, 0
4, 178095, Note_on_c, 9, 38, 55
4, 178145, Note_on_c, 9, 40, 23
4, 178347, Note_on_c, 9, 38, 0
4, 178582, Note_on_c, 9, 38, 36
4, 178663, Note_on_c, 9, 40, 0
4, 178787, Note_on_c, 9, 38, 0
4, 179087, Note_on_c, 9, 38, 65
4, 179295, Note_on_c, 9, 38, 0
4, 179492, Note_on_c, 9, 44, 78
4, 179513, Note_on_c, 9, 38, 51
4, 179744, Note_on_c, 9, 38, 0
4, 179922, Note_on_c, 9, 44, 0
4, 179967, Note_on_c, 9, 40, 32
4, 179969, Note_on_c, 9, 38, 66
4, 180076, Note_on_c, 9, 36, 25
4, 180239, Note_on_c, 9, 38, 0
4, 180251, Note_on_c, 9, 36, 0
4, 180435, Note_on_c, 9, 38, 44
4, 180676, Note_on_c, 9, 38, 0
4, 180724, Note_on_c, 9, 40, 0
4, 180965, Note_on_c, 9, 38, 59
4, 181180, Note_on_c, 9, 38, 0
4, 181390, Note_on_c, 9, 44, 86
4, 181394, Note_on_c, 9, 38, 58
4, 181429, Note_on_c, 9, 40, 33
4, 181700, Note_on_c, 9, 38, 0
4, 181820, Note_on_c, 9, 44, 0
4, 181905, Note_on_c, 9, 38, 47
4, 182107, Note_on_c, 9, 38, 0
4, 182388, Note_on_c, 9, 38, 50
4, 182617, Note_on_c, 9, 38, 0
4, 182631, Note_on_c, 9, 40, 0
4, 182839, Note_on_c, 9, 38, 52
4, 182854, Note_on_c, 9, 39, 58
4, 182868, Note_on_c, 9, 40, 29
4, 182924, Note_on_c, 9, 36, 36
4, 183053, Note_on_c, 9, 36, 0
4, 183108, Note_on_c, 9, 38, 0
4, 183199, Note_on_c, 9, 39, 0
4, 183293, Note_on_c, 9, 40, 0
4, 183295, Note_on_c, 9, 44, 86
4, 183316, Note_on_c, 9, 38, 38
4, 183563, Note_on_c, 9, 38, 0
4, 183772, Note_on_c, 9, 44, 0
4, 183815, Note_on_c, 9, 38, 63
4, 183818, Note_on_c, 9, 53, 31
4, 183865, Note_on_c, 9, 40, 27
4, 184001, Note_on_c, 9, 53, 0
4, 184096, Note_on_c, 9, 38, 0
4, 184272, Note_on_c, 9, 53, 24
4, 184283, Note_on_c, 9, 38, 44
4, 184379, Note_on_c, 9, 40, 0
4, 184401, Note_on_c, 9, 53, 0
4, 184539, Note_on_c, 9, 38, 0
4, 184719, Note_on_c, 9, 36, 45
4, 184740, Note_on_c, 9, 39, 69
4, 184836, Note_on_c, 9, 40, 34
4, 184927, Note_on_c, 9, 36, 0
4, 185121, Note_on_c, 9, 39, 0
4, 185180, Note_on_c, 9, 44, 94
4, 185221, Note_on_c, 9, 38, 29
4, 185288, Note_on_c, 9, 40, 0
4, 185435, Note_on_c, 9, 38, 0
4, 185607, Note_on_c, 9, 44, 0
4, 185712, Note_on_c, 9, 38, 48
4, 185726, Note_on_c, 9, 53, 43
4, 185892, Note_on_c, 9, 53, 0
4, 185934, Note_on_c, 9, 38, 0
4, 186140, Note_on_c, 9, 53, 35
4, 186167, Note_on_c, 9, 38, 56
4, 186169, Note_on_c, 9, 40, 27
4, 186465, Note_on_c, 9, 38, 0
4, 186524, Note_on_c, 9, 53, 0
4, 186660, Note_on_c, 9, 36, 38
4, 186675, Note_on_c, 9, 38, 47
4, 186777, Note_on_c, 9, 40, 0
4, 186811, Note_on_c, 9, 36, 0
4, 186870, Note_on_c, 9, 38, 0
4, 187141, Note_on_c, 9, 40, 27
4, 187145, Note_on_c, 9, 38, 62
4, 187156, Note_on_c, 9, 44, 78
4, 187165, Note_on_c, 9, 53, 33
4, 187325, Note_on_c, 9, 53, 0
4, 187428, Note_on_c, 9, 38, 0
4, 187594, Note_on_c, 9, 36, 67
4, 187646, Note_on_c, 9, 38, 47
4, 187700, Note_on_c, 9, 44, 0
4, 187837, Note_on_c, 9, 36, 0
4, 187842, Note_on_c, 9, 38, 0
4, 188078, Note_on_c, 9, 51, 52
4, 188118, Note_on_c, 9, 38, 54
4, 188318, Note_on_c, 9, 38, 0
4, 188353, Note_on_c, 9, 40, 0
4, 188367, Note_on_c, 9, 51, 0
4, 188645, Note_on_c, 9, 38, 38
4, 188799, Note_on_c, 9, 38, 0
4, 189051, Note_on_c, 9, 44, 86
4, 189075, Note_on_c, 9, 38, 64
4, 189125, Note_on_c, 9, 40, 31
4, 189400, Note_on_c, 9, 38, 0
4, 189481, Note_on_c, 9, 44, 0
4, 189599, Note_on_c, 9, 38, 47
4, 189653, Note_on_c, 9, 36, 38
4, 189763, Note_on_c, 9, 36, 0
4, 189803, Note_on_c, 9, 38, 0
4, 189841, Note_on_c, 9, 40, 0
4, 190088, Note_on_c, 9, 38, 41
4, 190234, Note_on_c, 9, 38, 0
4, 190546, Note_on_c, 9, 38, 67
4, 190585, Note_on_c, 9, 40, 30
4, 190612, Note_on_c, 9, 53, 42
4, 190759, Note_on_c, 9, 53, 0
4, 190775, Note_on_c, 9, 38, 0
4, 190974, Note_on_c, 9, 38, 49
4, 191033, Note_on_c, 9, 44, 92
4, 191057, Note_on_c, 9, 40, 0
4, 191184, Note_on_c, 9, 38, 0
4, 191487, Note_on_c, 9, 44, 0
4, 191490, Note_on_c, 9, 38, 53
4, 191535, Note_on_c, 9, 51, 38
4, 191650, Note_on_c, 9, 51, 0
4, 191667, Note_on_c, 9, 38, 0
4, 191937, Note_on_c, 9, 51, 39
4, 191937, Note_on_c, 9, 40, 30
4, 191944, Note_on_c, 9, 38, 53
4, 192134, Note_on_c, 9, 51, 0
4, 192416, Note_on_c, 9, 40, 0
4, 192432, Note_on_c, 9, 39, 69
4, 192530, Note_on_c, 9, 38, 0
4, 192705, Note_on_c, 9, 39, 0
4, 192842, Note_on_c, 9, 40, 23
4, 192853, Note_on_c, 9, 38, 52
4, 192935, Note_on_c, 9, 44, 86
4, 193094, Note_on_c, 9, 38, 0
4, 193177, Note_on_c, 9, 40, 0
4, 193362, Note_on_c, 9, 38, 38
4, 193365, Note_on_c, 9, 44, 0
4, 193372, Note_on_c, 9, 53, 53
4, 193578, Note_on_c, 9, 53, 0
4, 193585, Note_on_c, 9, 38, 0
4, 193843, Note_on_c, 9, 39, 62
4, 193859, Note_on_c, 9, 40, 25
4, 193888, Note_on_c, 9, 38, 37
4, 193978, Note_on_c, 9, 38, 0
4, 194232, Note_on_c, 9, 40, 0
4, 194242, Note_on_c, 9, 39, 0
4, 194383, Note_on_c, 9, 38, 31
4, 194424, Note_on_c, 9, 51, 30
4, 194512, Note_on_c, 9, 51, 0
4, 194589, Note_on_c, 9, 38, 0
4, 194803, Note_on_c, 9, 44, 92
4, 194853, Note_on_c, 9, 38, 55
4, 194878, Note_on_c, 9, 40, 23
4, 195101, Note_on_c, 9, 38, 0
4, 195107, Note_on_c, 9, 40, 0
4, 195257, Note_on_c, 9, 44, 0
4, 195376, Note_on_c, 9, 38, 61
4, 195425, Note_on_c, 9, 40, 26
4, 195686, Note_on_c, 9, 38, 0
4, 195827, Note_on_c, 9, 40, 0
4, 195844, Note_on_c, 9, 38, 42
4, 196045, Note_on_c, 9, 38, 0
4, 196328, Note_on_c, 9, 38, 62
4, 196559, Note_on_c, 9, 38, 0
4, 196722, Note_on_c, 9, 44, 86
4, 196761, Note_on_c, 9, 38, 60
4, 196815, Note_on_c, 9, 40, 30
4, 197108, Note_on_c, 9, 38, 0
4, 197108, Note_on_c, 9, 44, 0
4, 197258, Note_on_c, 9, 38, 38
4, 197374, Note_on_c, 9, 40, 0
4, 197505, Note_on_c, 9, 38, 0
4, 197722, Note_on_c, 9, 38, 38
4, 197963, Note_on_c, 9, 38, 0
4, 198215, Note_on_c, 9, 38, 56
4, 198227, Note_on_c, 9, 53, 51
4, 198240, Note_on_c, 9, 40, 29
4, 198526, Note_on_c, 9, 53, 0
4, 198541, Note_on_c, 9, 38, 0
4, 198614, Note_on_c, 9, 40, 0
4, 198617, Note_on_c, 9, 44, 86
4, 198687, Note_on_c, 9, 39, 43
4, 198932, Note_on_c, 9, 39, 0
4, 199057, Note_on_c, 9, 44, 0
4, 199142, Note_on_c, 9, 38, 62
4, 199163, Note_on_c, 9, 40, 31
4, 199177, Note_on_c, 9, 36, 27
4, 199292, Note_on_c, 9, 36, 0
4, 199436, Note_on_c, 9, 38, 0
4, 199544, Note_on_c, 9, 40, 0
4, 199567, Note_on_c, 9, 38, 39
4, 199626, Note_on_c, 9, 36, 45
4, 199781, Note_on_c, 9, 38, 0
4, 199816, Note_on_c, 9, 36, 0
4, 200053, Note_on_c, 9, 39, 61
4, 200080, Note_on_c, 9, 40, 33
4, 200424, Note_on_c, 9, 40, 0
4, 200426, Note_on_c, 9, 39, 0
4, 200542, Note_on_c, 9, 38, 34
4, 200552, Note_on_c, 9, 44, 84
4, 200815, Note_on_c, 9, 38, 0
4, 200982, Note_on_c, 9, 44, 0
4, 201050, Note_on_c, 9, 38, 43
4, 201301, Note_on_c, 9, 38, 0
4, 201518, Note_on_c, 9, 38, 52
4, 201530, Note_on_c, 9, 40, 32
4, 201838, Note_on_c, 9, 38, 0
4, 201971, Note_on_c, 9, 40, 0
4, 201984, Note_on_c, 9, 39, 64
4, 202020, Note_on_c, 9, 53, 56
4, 202275, Note_on_c, 9, 39, 0
4, 202326, Note_on_c, 9, 53, 0
4, 202464, Note_on_c, 9, 38, 53
4, 202464, Note_on_c, 9, 44, 84
4, 202508, Note_on_c, 9, 40, 20
4, 202518, Note_on_c, 9, 51, 30
4, 202690, Note_on_c, 9, 51, 0
4, 202739, Note_on_c, 9, 38, 0
4, 202778, Note_on_c, 9, 40, 0
4, 202948, Note_on_c, 9, 44, 0
4, 202953, Note_on_c, 9, 38, 49
4, 203019, Note_on_c, 9, 36, 49
4, 203186, Note_on_c, 9, 38, 0
4, 203260, Note_on_c, 9, 36, 0
4, 203463, Note_on_c, 9, 40, 28
4, 203473, Note_on_c, 9, 38, 62
4, 203481, Note_on_c, 9, 36, 45
4, 203730, Note_on_c, 9, 36, 0
4, 203766, Note_on_c, 9, 38, 0
4, 203820, Note_on_c, 9, 40, 0
4, 203980, Note_on_c, 9, 38, 47
4, 204168, Note_on_c, 9, 38, 0
4, 204369, Note_on_c, 9, 44, 77
4, 204480, Note_on_c, 9, 38, 54
4, 204492, Note_on_c, 9, 40, 25
4, 204740, Note_on_c, 9, 38, 0
4, 204772, Note_on_c, 9, 44, 0
4, 204794, Note_on_c, 9, 40, 0
4, 204929, Note_on_c, 9, 39, 51
4, 204991, Note_on_c, 9, 53, 53
4, 205157, Note_on_c, 9, 53, 0
4, 205220, Note_on_c, 9, 39, 0
4, 205384, Note_on_c, 9, 38, 49
4, 205432, Note_on_c, 9, 40, 18
4, 205611, Note_on_c, 9, 38, 0
4, 205624, Note_on_c, 9, 40, 0
4, 205900, Note_on_c, 9, 53, 36
4, 205902, Note_on_c, 9, 38, 60
4, 205927, Note_on_c, 9, 40, 31
4, 206060, Note_on_c, 9, 53, 0
4, 206162, Note_on_c, 9, 38, 0
4, 206279, Note_on_c, 9, 40, 0
4, 206355, Note_on_c, 9, 44, 77
4, 206572, Note_on_c, 9, 38, 56
4, 206728, Note_on_c, 9, 44, 0
4, 206751, Note_on_c, 9, 38, 0
4, 207030, Note_on_c, 9, 38, 45
4, 207209, Note_on_c, 9, 38, 0
4, 207444, Note_on_c, 9, 38, 59
4, 207454, Note_on_c, 9, 40, 31
4, 207795, Note_on_c, 9, 38, 0
4, 207880, Note_on_c, 9, 40, 0
4, 207957, Note_on_c, 9, 38, 38
4, 208124, Note_on_c, 9, 38, 0
4, 208267, Note_on_c, 9, 44, 86
4, 208386, Note_on_c, 9, 38, 50
4, 208596, Note_on_c, 9, 38, 0
4, 208599, Note_on_c, 9, 44, 0
4, 208819, Note_on_c, 9, 39, 63
4, 208852, Note_on_c, 9, 40, 33
4, 209131, Note_on_c, 9, 39, 0
4, 209245, Note_on_c, 9, 40, 0
4, 209305, Note_on_c, 9, 38, 29
4, 209517, Note_on_c, 9, 38, 0
4, 209780, Note_on_c, 9, 38, 47
4, 209825, Note_on_c, 9, 40, 25
4, 210029, Note_on_c, 9, 38, 0
4, 210040, Note_on_c, 9, 40, 0
4, 210216, Note_on_c, 9, 44, 84
4, 210231, Note_on_c, 9, 38, 42
4, 210456, Note_on_c, 9, 38, 0
4, 210565, Note_on_c, 9, 44, 0
4, 210693, Note_on_c, 9, 38, 40
4, 210919, Note_on_c, 9, 38, 0
4, 211150, Note_on_c, 9, 38, 58
4, 211167, Note_on_c, 9, 40, 30
4, 211564, Note_on_c, 9, 38, 0
4, 211597, Note_on_c, 9, 40, 0
4, 211710, Note_on_c, 9, 39, 61
4, 211934, Note_on_c, 9, 39, 0
4, 212072, Note_on_c, 9, 40, 22
4, 212076, Note_on_c, 9, 38, 40
4, 212154, Note_on_c, 9, 44, 86
4, 212342, Note_on_c, 9, 40, 0
4, 212357, Note_on_c, 9, 38, 0
4, 212463, Note_on_c, 9, 44, 0
4, 212627, Note_on_c, 9, 38, 51
4, 212664, Note_on_c, 9, 40, 30
4, 213120, Note_on_c, 9, 38, 0
4, 213164, Note_on_c, 9, 40, 0
4, 213517, Note_on_c, 9, 39, 63
4, 213540, Note_on_c, 9, 40, 32
4, 213888, Note_on_c, 9, 39, 0
4, 213937, Note_on_c, 9, 40, 0
4, 213983, Note_on_c, 9, 38, 39
4, 214086, Note_on_c, 9, 44, 87
4, 214279, Note_on_c, 9, 38, 0
4, 214480, Note_on_c, 9, 38, 37
4, 214537, Note_on_c, 9, 44, 0
4, 214728, Note_on_c, 9, 38, 0
4, 214955, Note_on_c, 9, 38, 54
4, 214965, Note_on_c, 9, 40, 32
4, 214979, Note_on_c, 9, 53, 55
4, 215412, Note_on_c, 9, 40, 0
4, 215429, Note_on_c, 9, 38, 0
4, 215441, Note_on_c, 9, 39, 54
4, 215532, Note_on_c, 9, 53, 0
4, 215689, Note_on_c, 9, 39, 0
4, 215914, Note_on_c, 9, 38, 51
4, 215954, Note_on_c, 9, 44, 89
4, 215968, Note_on_c, 9, 40, 25
4, 216226, Note_on_c, 9, 38, 0
4, 216246, Note_on_c, 9, 40, 0
4, 216307, Note_on_c, 9, 44, 0
4, 216429, Note_on_c, 9, 38, 51
4, 216443, Note_on_c, 9, 53, 53
4, 216461, Note_on_c, 9, 40, 29
4, 216545, Note_on_c, 9, 53, 0
4, 216895, Note_on_c, 9, 53, 55
4, 217228, Note_on_c, 9, 40, 0
4, 217284, Note_on_c, 9, 38, 0
4, 217300, Note_on_c, 9, 53, 0
4, 217463, Note_on_c, 9, 39, 49
4, 217507, Note_on_c, 9, 40, 34
4, 217825, Note_on_c, 9, 40, 0
4, 217833, Note_on_c, 9, 39, 0
4, 217890, Note_on_c, 9, 44, 90
4, 217925, Note_on_c, 9, 38, 41
4, 218156, Note_on_c, 9, 38, 0
4, 218273, Note_on_c, 9, 44, 0
4, 218390, Note_on_c, 9, 53, 49
4, 218422, Note_on_c, 9, 38, 46
4, 218592, Note_on_c, 9, 53, 0
4, 218628, Note_on_c, 9, 38, 0
4, 218880, Note_on_c, 9, 40, 29
4, 218884, Note_on_c, 9, 38, 62
4, 219235, Note_on_c, 9, 40, 0
4, 219269, Note_on_c, 9, 38, 0
4, 219380, Note_on_c, 9, 53, 34
4, 219395, Note_on_c, 9, 39, 51
4, 219468, Note_on_c, 9, 53, 0
4, 219603, Note_on_c, 9, 39, 0
4, 219788, Note_on_c, 9, 44, 83
4, 219801, Note_on_c, 9, 38, 58
4, 219834, Note_on_c, 9, 40, 27
4, 219840, Note_on_c, 9, 53, 50
4, 219950, Note_on_c, 9, 53, 0
4, 220086, Note_on_c, 9, 38, 0
4, 220096, Note_on_c, 9, 40, 0
4, 220114, Note_on_c, 9, 44, 0
4, 220300, Note_on_c, 9, 38, 49
4, 220354, Note_on_c, 9, 40, 23
4, 220548, Note_on_c, 9, 38, 0
4, 220585, Note_on_c, 9, 40, 0
4, 220756, Note_on_c, 9, 38, 41
4, 220795, Note_on_c, 9, 40, 26
4, 221093, Note_on_c, 9, 40, 0
4, 221107, Note_on_c, 9, 38, 0
4, 221286, Note_on_c, 9, 39, 60
4, 221561, Note_on_c, 9, 39, 0
4, 221669, Note_on_c, 9, 38, 41
4, 221685, Note_on_c, 9, 40, 24
4, 221724, Note_on_c, 9, 44, 81
4, 222006, Note_on_c, 9, 44, 0
4, 222052, Note_on_c, 9, 40, 0
4, 222060, Note_on_c, 9, 38, 0
4, 222233, Note_on_c, 9, 38, 47
4, 222299, Note_on_c, 9, 40, 23
4, 222509, Note_on_c, 9, 38, 0
4, 222580, Note_on_c, 9, 40, 0
4, 222698, Note_on_c, 9, 39, 61
4, 223075, Note_on_c, 9, 39, 0
4, 223187, Note_on_c, 9, 38, 50
4, 223214, Note_on_c, 9, 53, 41
4, 223216, Note_on_c, 9, 40, 24
4, 223259, Note_on_c, 9, 51, 31
4, 223393, Note_on_c, 9, 51, 0
4, 223438, Note_on_c, 9, 53, 0
4, 223445, Note_on_c, 9, 38, 0
4, 223615, Note_on_c, 9, 44, 86
4, 223649, Note_on_c, 9, 38, 40
4, 223898, Note_on_c, 9, 44, 0
4, 223911, Note_on_c, 9, 40, 0
4, 223971, Note_on_c, 9, 38, 0
4, 224169, Note_on_c, 9, 38, 64
4, 224181, Note_on_c, 9, 40, 36
4, 224460, Note_on_c, 9, 38, 0
4, 224641, Note_on_c, 9, 38, 49
4, 224924, Note_on_c, 9, 40, 0
4, 225013, Note_on_c, 9, 38, 0
4, 225102, Note_on_c, 9, 51, 34
4, 225136, Note_on_c, 9, 39, 69
4, 225147, Note_on_c, 9, 40, 35
4, 225165, Note_on_c, 9, 53, 29
4, 225262, Note_on_c, 9, 51, 0
4, 225277, Note_on_c, 9, 53, 0
4, 225457, Note_on_c, 9, 46, 23
4, 225461, Note_on_c, 9, 39, 0
4, 225563, Note_on_c, 9, 38, 42
4, 225585, Note_on_c, 9, 36, 32
4, 225703, Note_on_c, 9, 36, 0
4, 225739, Note_on_c, 9, 46, 0
4, 225771, Note_on_c, 9, 40, 0
4, 225870, Note_on_c, 9, 38, 0
4, 226028, Note_on_c, 9, 36, 49
4, 226078, Note_on_c, 9, 38, 52
4, 226091, Note_on_c, 9, 40, 24
4, 226261, Note_on_c, 9, 36, 0
4, 226320, Note_on_c, 9, 40, 0
4, 226343, Note_on_c, 9, 38, 0
4, 226528, Note_on_c, 9, 38, 59
4, 226542, Note_on_c, 9, 36, 47
4, 226549, Note_on_c, 9, 40, 27
4, 226779, Note_on_c, 9, 36, 0
4, 226946, Note_on_c, 9, 40, 0
4, 227002, Note_on_c, 9, 38, 0
4, 227019, Note_on_c, 9, 39, 65
4, 227308, Note_on_c, 9, 39, 0
4, 227382, Note_on_c, 9, 44, 87
4, 227449, Note_on_c, 9, 38, 49
4, 227472, Note_on_c, 9, 40, 24
4, 227695, Note_on_c, 9, 40, 0
4, 227705, Note_on_c, 9, 38, 0
4, 227714, Note_on_c, 9, 44, 0
4, 227950, Note_on_c, 9, 38, 60
4, 227980, Note_on_c, 9, 40, 35
4, 228254, Note_on_c, 9, 38, 0
4, 228410, Note_on_c, 9, 38, 37
4, 228651, Note_on_c, 9, 40, 0
4, 228683, Note_on_c, 9, 38, 0
4, 228901, Note_on_c, 9, 39, 67
4, 228926, Note_on_c, 9, 40, 34
4, 229219, Note_on_c, 9, 39, 0
4, 229321, Note_on_c, 9, 44, 83
4, 229338, Note_on_c, 9, 38, 41
4, 229542, Note_on_c, 9, 40, 0
4, 229629, Note_on_c, 9, 38, 0
4, 229680, Note_on_c, 9, 44, 0
4, 229872, Note_on_c, 9, 38, 50
4, 230070, Note_on_c, 9, 38, 0
4, 230295, Note_on_c, 9, 40, 34
4, 230301, Note_on_c, 9, 38, 60
4, 230646, Note_on_c, 9, 38, 0
4, 230854, Note_on_c, 9, 38, 40
4, 230983, Note_on_c, 9, 40, 0
4, 231016, Note_on_c, 9, 38, 0
4, 231216, Note_on_c, 9, 44, 86
4, 231276, Note_on_c, 9, 38, 46
4, 231291, Note_on_c, 9, 40, 25
4, 231532, Note_on_c, 9, 44, 0
4, 231543, Note_on_c, 9, 38, 0
4, 231653, Note_on_c, 9, 40, 0
4, 231786, Note_on_c, 9, 38, 58
4, 231803, Note_on_c, 9, 40, 36
4, 232058, Note_on_c, 9, 38, 0
4, 232237, Note_on_c, 9, 40, 0
4, 232302, Note_on_c, 9, 39, 40
4, 232460, Note_on_c, 9, 39, 0
4, 232738, Note_on_c, 9, 53, 51
4, 232741, Note_on_c, 9, 40, 33
4, 232751, Note_on_c, 9, 38, 71
4, 232904, Note_on_c, 9, 53, 0
4, 233042, Note_on_c, 9, 38, 0
4, 233055, Note_on_c, 9, 40, 0
4, 233127, Note_on_c, 9, 36, 49
4, 233154, Note_on_c, 9, 44, 81
4, 233234, Note_on_c, 9, 38, 44
4, 233259, Note_on_c, 9, 40, 18
4, 233381, Note_on_c, 9, 36, 0
4, 233448, Note_on_c, 9, 40, 0
4, 233462, Note_on_c, 9, 38, 0
4, 233544, Note_on_c, 9, 44, 0
4, 233630, Note_on_c, 9, 36, 51
4, 233695, Note_on_c, 9, 40, 31
4, 233700, Note_on_c, 9, 38, 56
4, 233905, Note_on_c, 9, 36, 0
4, 233947, Note_on_c, 9, 40, 0
4, 233951, Note_on_c, 9, 38, 0
4, 234147, Note_on_c, 9, 40, 28
4, 234168, Note_on_c, 9, 38, 57
4, 234215, Note_on_c, 9, 36, 31
4, 234344, Note_on_c, 9, 36, 0
4, 234492, Note_on_c, 9, 38, 0
4, 234517, Note_on_c, 9, 40, 0
4, 234646, Note_on_c, 9, 39, 51
4, 234893, Note_on_c, 9, 39, 0
4, 235056, Note_on_c, 9, 38, 60
4, 235070, Note_on_c, 9, 40, 33
4, 235076, Note_on_c, 9, 44, 76
4, 235159, Note_on_c, 9, 53, 39
4, 235351, Note_on_c, 9, 38, 0
4, 235436, Note_on_c, 9, 44, 0
4, 235501, Note_on_c, 9, 40, 0
4, 235513, Note_on_c, 9, 53, 0
4, 235553, Note_on_c, 9, 38, 41
4, 235619, Note_on_c, 9, 40, 14
4, 235621, Note_on_c, 9, 36, 44
4, 235846, Note_on_c, 9, 38, 0
4, 235889, Note_on_c, 9, 36, 0
4, 236025, Note_on_c, 9, 38, 48
4, 236275, Note_on_c, 9, 38, 0
4, 236302, Note_on_c, 9, 40, 0
4, 236528, Note_on_c, 9, 39, 66
4, 236536, Note_on_c, 9, 53, 50
4, 236560, Note_on_c, 9, 40, 33
4, 236836, Note_on_c, 9, 53, 0
4, 236853, Note_on_c, 9, 39, 0
4, 236992, Note_on_c, 9, 44, 77
4, 236994, Note_on_c, 9, 38, 35
4, 237035, Note_on_c, 9, 36, 30
4, 237250, Note_on_c, 9, 38, 0
4, 237254, Note_on_c, 9, 40, 0
4, 237260, Note_on_c, 9, 36, 0
4, 237364, Note_on_c, 9, 44, 0
4, 237518, Note_on_c, 9, 40, 30
4, 237527, Note_on_c, 9, 38, 55
4, 237772, Note_on_c, 9, 40, 0
4, 237774, Note_on_c, 9, 38, 0
4, 237978, Note_on_c, 9, 40, 29
4, 237999, Note_on_c, 9, 38, 40
4, 238257, Note_on_c, 9, 40, 0
4, 238267, Note_on_c, 9, 38, 0
4, 238492, Note_on_c, 9, 39, 65
4, 238517, Note_on_c, 9, 40, 37
4, 238821, Note_on_c, 9, 39, 0
4, 238907, Note_on_c, 9, 44, 78
4, 238964, Note_on_c, 9, 38, 32
4, 239128, Note_on_c, 9, 40, 0
4, 239195, Note_on_c, 9, 38, 0
4, 239236, Note_on_c, 9, 44, 0
4, 239486, Note_on_c, 9, 39, 68
4, 239503, Note_on_c, 9, 40, 34
4, 239788, Note_on_c, 9, 39, 0
4, 239815, Note_on_c, 9, 40, 0
4, 239952, Note_on_c, 9, 38, 40
4, 240012, Note_on_c, 9, 40, 24
4, 240173, Note_on_c, 9, 40, 0
4, 240214, Note_on_c, 9, 38, 0
4, 240455, Note_on_c, 9, 38, 51
4, 240457, Note_on_c, 9, 40, 33
4, 240480, Note_on_c, 9, 53, 47
4, 240482, Note_on_c, 9, 59, 54
4, 240674, Note_on_c, 9, 40, 0
4, 240686, Note_on_c, 9, 38, 0
4, 240688, Note_on_c, 9, 53, 0
4, 240692, Note_on_c, 9, 59, 0
4, 240866, Note_on_c, 9, 44, 87
4, 240878, Note_on_c, 9, 40, 23
4, 240905, Note_on_c, 9, 38, 41
4, 241140, Note_on_c, 9, 38, 0
4, 241152, Note_on_c, 9, 40, 0
4, 241178, Note_on_c, 9, 44, 0
4, 241373, Note_on_c, 9, 39, 65
4, 241418, Note_on_c, 9, 36, 43
4, 241431, Note_on_c, 9, 40, 36
4, 241570, Note_on_c, 9, 36, 0
4, 241668, Note_on_c, 9, 39, 0
4, 241681, Note_on_c, 9, 40, 0
4, 241882, Note_on_c, 9, 38, 29
4, 241901, Note_on_c, 9, 40, 26
4, 241904, Note_on_c, 9, 59, 55
4, 241911, Note_on_c, 9, 53, 43
4, 242113, Note_on_c, 9, 38, 0
4, 242126, Note_on_c, 9, 40, 0
4, 242325, Note_on_c, 9, 38, 45
4, 242346, Note_on_c, 9, 40, 26
4, 242397, Note_on_c, 9, 53, 0
4, 242474, Note_on_c, 9, 59, 0
4, 242581, Note_on_c, 9, 40, 0
4, 242585, Note_on_c, 9, 38, 0
4, 242737, Note_on_c, 9, 44, 87
4, 242791, Note_on_c, 9, 40, 22
4, 242795, Note_on_c, 9, 38, 41
4, 243026, Note_on_c, 9, 38, 0
4, 243045, Note_on_c, 9, 40, 0
4, 243060, Note_on_c, 9, 44, 0
4, 243270, Note_on_c, 9, 39, 65
4, 243326, Note_on_c, 9, 40, 34
4, 243394, Note_on_c, 9, 59, 48
4, 243402, Note_on_c, 9, 53, 39
4, 243510, Note_on_c, 9, 59, 0
4, 243512, Note_on_c, 9, 53, 0
4, 243590, Note_on_c, 9, 39, 0
4, 243723, Note_on_c, 9, 38, 35
4, 243948, Note_on_c, 9, 38, 0
4, 243975, Note_on_c, 9, 40, 0
4, 244254, Note_on_c, 9, 38, 55
4, 244278, Note_on_c, 9, 40, 29
4, 244284, Note_on_c, 9, 36, 36
4, 244419, Note_on_c, 9, 36, 0
4, 244491, Note_on_c, 9, 38, 0
4, 244495, Note_on_c, 9, 40, 0
4, 244642, Note_on_c, 9, 44, 86
4, 244709, Note_on_c, 9, 38, 42
4, 244717, Note_on_c, 9, 40, 24
4, 244738, Note_on_c, 9, 36, 50
4, 244963, Note_on_c, 9, 38, 0
4, 244967, Note_on_c, 9, 40, 0
4, 244998, Note_on_c, 9, 44, 0
4, 245016, Note_on_c, 9, 36, 0
4, 245198, Note_on_c, 9, 38, 53
4, 245229, Note_on_c, 9, 40, 31
4, 245464, Note_on_c, 9, 38, 0
4, 245475, Note_on_c, 9, 40, 0
4, 245683, Note_on_c, 9, 38, 50
4, 245695, Note_on_c, 9, 40, 27
4, 246011, Note_on_c, 9, 40, 0
4, 246051, Note_on_c, 9, 38, 0
4, 246205, Note_on_c, 9, 39, 69
4, 246223, Note_on_c, 9, 40, 33
4, 246268, Note_on_c, 9, 53, 42
4, 246277, Note_on_c, 9, 59, 51
4, 246393, Note_on_c, 9, 53, 0
4, 246406, Note_on_c, 9, 59, 0
4, 246529, Note_on_c, 9, 39, 0
4, 246581, Note_on_c, 9, 44, 86
4, 246604, Note_on_c, 9, 40, 0
4, 246621, Note_on_c, 9, 38, 48
4, 246847, Note_on_c, 9, 38, 0
4, 246930, Note_on_c, 9, 44, 0
4, 247124, Note_on_c, 9, 38, 60
4, 247127, Note_on_c, 9, 36, 43
4, 247184, Note_on_c, 9, 40, 30
4, 247373, Note_on_c, 9, 38, 0
4, 247376, Note_on_c, 9, 40, 0
4, 247379, Note_on_c, 9, 36, 0
4, 247611, Note_on_c, 9, 39, 73
4, 247635, Note_on_c, 9, 53, 38
4, 247636, Note_on_c, 9, 40, 38
4, 247639, Note_on_c, 9, 59, 44
4, 247941, Note_on_c, 9, 40, 0
4, 247974, Note_on_c, 9, 53, 0
4, 247983, Note_on_c, 9, 39, 0
4, 248135, Note_on_c, 9, 38, 36
4, 248136, Note_on_c, 9, 59, 0
4, 248199, Note_on_c, 9, 40, 19
4, 248316, Note_on_c, 9, 40, 0
4, 248353, Note_on_c, 9, 38, 0
4, 248473, Note_on_c, 9, 44, 102
4, 248588, Note_on_c, 9, 38, 56
4, 248617, Note_on_c, 9, 40, 28
4, 248842, Note_on_c, 9, 44, 0
4, 248879, Note_on_c, 9, 40, 0
4, 248894, Note_on_c, 9, 38, 0
4, 249071, Note_on_c, 9, 38, 56
4, 249106, Note_on_c, 9, 40, 28
4, 249214, Note_on_c, 9, 57, 60
4, 249254, Note_on_c, 9, 38, 0
4, 249295, Note_on_c, 9, 40, 0
4, 249434, Note_on_c, 9, 57, 0
4, 249603, Note_on_c, 9, 38, 75
4, 249603, Note_on_c, 9, 40, 33
4, 249644, Note_on_c, 9, 59, 45
4, 249756, Note_on_c, 9, 38, 0
4, 249840, Note_on_c, 9, 59, 0
4, 250038, Note_on_c, 9, 38, 48
4, 250046, Note_on_c, 9, 40, 0
4, 250152, Note_on_c, 9, 38, 0
4, 250536, Note_on_c, 9, 38, 42
4, 250547, Note_on_c, 9, 44, 74
4, 250665, Note_on_c, 9, 38, 0
4, 250867, Note_on_c, 9, 44, 0
4, 251095, Note_on_c, 9, 38, 67
4, 251116, Note_on_c, 9, 40, 32
4, 251262, Note_on_c, 9, 38, 0
4, 251343, Note_on_c, 9, 40, 0
4, 251619, Note_on_c, 9, 38, 41
4, 251748, Note_on_c, 9, 38, 0
4, 252104, Note_on_c, 9, 38, 36
4, 252223, Note_on_c, 9, 38, 0
4, 252448, Note_on_c, 9, 44, 71
4, 252543, Note_on_c, 9, 38, 56
4, 252568, Note_on_c, 9, 40, 31
4, 252726, Note_on_c, 9, 38, 0
4, 252811, Note_on_c, 9, 40, 0
4, 252973, Note_on_c, 9, 44, 0
4, 253067, Note_on_c, 9, 38, 39
4, 253238, Note_on_c, 9, 38, 0
4, 253521, Note_on_c, 9, 38, 37
4, 253685, Note_on_c, 9, 38, 0
4, 253997, Note_on_c, 9, 40, 36
4, 254001, Note_on_c, 9, 38, 57
4, 254197, Note_on_c, 9, 38, 0
4, 254267, Note_on_c, 9, 40, 0
4, 254434, Note_on_c, 9, 44, 63
4, 254517, Note_on_c, 9, 38, 36
4, 254714, Note_on_c, 9, 38, 0
4, 254794, Note_on_c, 9, 44, 0
4, 254966, Note_on_c, 9, 38, 36
4, 255224, Note_on_c, 9, 38, 0
4, 255453, Note_on_c, 9, 40, 27
4, 255457, Note_on_c, 9, 38, 52
4, 255811, Note_on_c, 9, 38, 0
4, 255965, Note_on_c, 9, 38, 40
4, 256139, Note_on_c, 9, 38, 0
4, 256312, Note_on_c, 9, 46, 22
4, 256364, Note_on_c, 9, 38, 40
4, 256512, Note_on_c, 9, 38, 0
4, 256773, Note_on_c, 9, 46, 0
4, 256855, Note_on_c, 9, 38, 43
4, 257036, Note_on_c, 9, 38, 0
4, 257096, Note_on_c, 9, 40, 0
4, 257312, Note_on_c, 9, 40, 23
4, 257325, Note_on_c, 9, 38, 58
4, 257547, Note_on_c, 9, 38, 0
4, 257826, Note_on_c, 9, 38, 43
4, 257955, Note_on_c, 9, 38, 0
4, 258298, Note_on_c, 9, 38, 30
4, 258312, Note_on_c, 9, 44, 63
4, 258436, Note_on_c, 9, 38, 0
4, 258442, Note_on_c, 9, 40, 0
4, 258661, Note_on_c, 9, 44, 0
4, 258729, Note_on_c, 9, 38, 57
4, 258775, Note_on_c, 9, 40, 29
4, 258951, Note_on_c, 9, 38, 0
4, 259197, Note_on_c, 9, 38, 38
4, 259367, Note_on_c, 9, 38, 0
4, 259561, Note_on_c, 9, 40, 0
4, 259704, Note_on_c, 9, 38, 45
4, 259833, Note_on_c, 9, 38, 0
4, 260112, Note_on_c, 9, 38, 55
4, 260143, Note_on_c, 9, 44, 74
4, 260154, Note_on_c, 9, 40, 28
4, 260343, Note_on_c, 9, 38, 0
4, 260549, Note_on_c, 9, 44, 0
4, 260645, Note_on_c, 9, 38, 45
4, 260798, Note_on_c, 9, 38, 0
4, 261094, Note_on_c, 9, 38, 41
4, 261096, Note_on_c, 9, 40, 0
4, 261296, Note_on_c, 9, 38, 0
4, 261520, Note_on_c, 9, 39, 64
4, 261553, Note_on_c, 9, 40, 31
4, 261737, Note_on_c, 9, 39, 0
4, 261874, Note_on_c, 9, 40, 0
4, 261986, Note_on_c, 9, 38, 33
4, 262035, Note_on_c, 9, 44, 78
4, 262215, Note_on_c, 9, 38, 0
4, 262424, Note_on_c, 9, 44, 0
4, 262465, Note_on_c, 9, 38, 39
4, 262523, Note_on_c, 9, 40, 23
4, 262720, Note_on_c, 9, 38, 0
4, 262845, Note_on_c, 9, 40, 0
4, 262960, Note_on_c, 9, 38, 35
4, 263209, Note_on_c, 9, 38, 0
4, 263484, Note_on_c, 9, 38, 39
4, 263706, Note_on_c, 9, 38, 0
4, 263929, Note_on_c, 9, 38, 52
4, 263939, Note_on_c, 9, 40, 30
4, 263970, Note_on_c, 9, 44, 77
4, 264233, Note_on_c, 9, 38, 0
4, 264413, Note_on_c, 9, 44, 0
4, 264419, Note_on_c, 9, 53, 25
4, 264463, Note_on_c, 9, 40, 0
4, 264507, Note_on_c, 9, 38, 24
4, 264694, Note_on_c, 9, 53, 0
4, 264767, Note_on_c, 9, 38, 0
4, 264910, Note_on_c, 9, 53, 33
4, 264986, Note_on_c, 9, 38, 39
4, 265223, Note_on_c, 9, 38, 0
4, 265499, Note_on_c, 9, 38, 47
4, 265549, Note_on_c, 9, 40, 28
4, 265565, Note_on_c, 9, 53, 0
4, 265736, Note_on_c, 9, 38, 0
4, 265905, Note_on_c, 9, 44, 68
4, 265938, Note_on_c, 9, 38, 33
4, 266206, Note_on_c, 9, 38, 0
4, 266262, Note_on_c, 9, 44, 0
4, 266437, Note_on_c, 9, 38, 50
4, 266627, Note_on_c, 9, 38, 0
4, 266747, Note_on_c, 9, 40, 0
4, 266882, Note_on_c, 9, 38, 51
4, 266912, Note_on_c, 9, 40, 23
4, 267078, Note_on_c, 9, 38, 0
4, 267378, Note_on_c, 9, 38, 38
4, 267496, Note_on_c, 9, 38, 0
4, 267662, Note_on_c, 9, 40, 0
4, 267794, Note_on_c, 9, 38, 46
4, 267827, Note_on_c, 9, 40, 24
4, 267827, Note_on_c, 9, 44, 76
4, 268058, Note_on_c, 9, 38, 0
4, 268214, Note_on_c, 9, 44, 0
4, 268299, Note_on_c, 9, 38, 43
4, 268467, Note_on_c, 9, 38, 0
4, 268744, Note_on_c, 9, 38, 39
4, 268962, Note_on_c, 9, 38, 0
4, 269066, Note_on_c, 9, 40, 0
4, 269231, Note_on_c, 9, 38, 37
4, 269326, Note_on_c, 9, 40, 23
4, 269414, Note_on_c, 9, 38, 0
4, 269674, Note_on_c, 9, 38, 41
4, 269749, Note_on_c, 9, 44, 60
4, 269978, Note_on_c, 9, 38, 0
4, 270122, Note_on_c, 9, 44, 0
4, 270219, Note_on_c, 9, 38, 39
4, 270394, Note_on_c, 9, 40, 0
4, 270448, Note_on_c, 9, 38, 0
4, 270676, Note_on_c, 9, 40, 23
4, 270720, Note_on_c, 9, 38, 47
4, 270980, Note_on_c, 9, 38, 0
4, 271211, Note_on_c, 9, 38, 40
4, 271367, Note_on_c, 9, 38, 0
4, 271660, Note_on_c, 9, 38, 35
4, 271691, Note_on_c, 9, 44, 70
4, 271820, Note_on_c, 9, 38, 0
4, 272107, Note_on_c, 9, 38, 45
4, 272111, Note_on_c, 9, 44, 0
4, 272182, Note_on_c, 9, 36, 49
4, 272318, Note_on_c, 9, 38, 0
4, 272370, Note_on_c, 9, 40, 0
4, 272408, Note_on_c, 9, 36, 0
4, 272592, Note_on_c, 9, 40, 28
4, 272594, Note_on_c, 9, 38, 52
4, 272817, Note_on_c, 9, 38, 0
4, 273125, Note_on_c, 9, 38, 41
4, 273272, Note_on_c, 9, 38, 0
4, 273596, Note_on_c, 9, 44, 60
4, 273618, Note_on_c, 9, 38, 29
4, 273736, Note_on_c, 9, 38, 0
4, 273926, Note_on_c, 9, 44, 0
4, 274094, Note_on_c, 9, 38, 43
4, 274242, Note_on_c, 9, 38, 0
4, 274581, Note_on_c, 9, 38, 49
4, 274718, Note_on_c, 9, 38, 0
4, 274857, Note_on_c, 9, 40, 0
4, 275038, Note_on_c, 9, 38, 70
4, 275069, Note_on_c, 9, 40, 34
4, 275250, Note_on_c, 9, 38, 0
4, 275485, Note_on_c, 9, 38, 41
4, 275542, Note_on_c, 9, 44, 76
4, 275658, Note_on_c, 9, 38, 0
4, 275854, Note_on_c, 9, 44, 0
4, 275978, Note_on_c, 9, 38, 40
4, 276120, Note_on_c, 9, 38, 0
4, 276191, Note_on_c, 9, 40, 0
4, 276457, Note_on_c, 9, 38, 65
4, 276467, Note_on_c, 9, 40, 29
4, 276681, Note_on_c, 9, 38, 0
4, 276944, Note_on_c, 9, 38, 43
4, 277108, Note_on_c, 9, 38, 0
4, 277414, Note_on_c, 9, 39, 65
4, 277417, Note_on_c, 9, 44, 76
4, 277659, Note_on_c, 9, 44, 0
4, 277674, Note_on_c, 9, 39, 0
4, 277713, Note_on_c, 9, 40, 0
4, 277936, Note_on_c, 9, 40, 23
4, 277950, Note_on_c, 9, 38, 40
4, 278171, Note_on_c, 9, 38, 0
4, 278328, Note_on_c, 9, 53, 50
4, 278385, Note_on_c, 9, 38, 39
4, 278494, Note_on_c, 9, 53, 0
4, 278662, Note_on_c, 9, 38, 0
4, 278701, Note_on_c, 9, 40, 0
4, 278869, Note_on_c, 9, 53, 58
4, 278884, Note_on_c, 9, 39, 69
4, 278903, Note_on_c, 9, 40, 32
4, 279044, Note_on_c, 9, 53, 0
4, 279279, Note_on_c, 9, 39, 0
4, 279348, Note_on_c, 9, 38, 39
4, 279352, Note_on_c, 9, 46, 26
4, 279593, Note_on_c, 9, 38, 0
4, 279600, Note_on_c, 9, 40, 0
4, 279708, Note_on_c, 9, 46, 0
4, 279809, Note_on_c, 9, 36, 41
4, 279824, Note_on_c, 9, 38, 49
4, 279885, Note_on_c, 9, 40, 33
4, 280048, Note_on_c, 9, 36, 0
4, 280078, Note_on_c, 9, 38, 0
4, 280213, Note_on_c, 9, 40, 0
4, 280271, Note_on_c, 9, 38, 50
4, 280290, Note_on_c, 9, 36, 55
4, 280315, Note_on_c, 9, 40, 24
4, 280556, Note_on_c, 9, 36, 0
4, 280594, Note_on_c, 9, 38, 0
4, 280798, Note_on_c, 9, 38, 50
4, 280995, Note_on_c, 9, 38, 0
4, 281223, Note_on_c, 9, 44, 74
4, 281266, Note_on_c, 9, 38, 36
4, 281359, Note_on_c, 9, 40, 0
4, 281529, Note_on_c, 9, 44, 0
4, 281584, Note_on_c, 9, 38, 0
4, 281769, Note_on_c, 9, 40, 28
4, 281771, Note_on_c, 9, 38, 56
4, 282004, Note_on_c, 9, 38, 0
4, 282225, Note_on_c, 9, 38, 39
4, 282414, Note_on_c, 9, 38, 0
4, 282483, Note_on_c, 9, 40, 0
4, 282726, Note_on_c, 9, 38, 37
4, 282815, Note_on_c, 9, 40, 22
4, 282942, Note_on_c, 9, 38, 0
4, 283112, Note_on_c, 9, 44, 71
4, 283140, Note_on_c, 9, 38, 47
4, 283385, Note_on_c, 9, 38, 0
4, 283481, Note_on_c, 9, 44, 0
4, 283547, Note_on_c, 9, 40, 0
4, 283654, Note_on_c, 9, 39, 69
4, 283907, Note_on_c, 9, 40, 19
4, 283934, Note_on_c, 9, 39, 0
4, 284122, Note_on_c, 9, 38, 35
4, 284452, Note_on_c, 9, 38, 0
4, 284473, Note_on_c, 9, 40, 0
4, 284642, Note_on_c, 9, 38, 45
4, 284885, Note_on_c, 9, 38, 0
4, 285070, Note_on_c, 9, 38, 42
4, 285094, Note_on_c, 9, 46, 34
4, 285141, Note_on_c, 9, 40, 19
4, 285309, Note_on_c, 9, 38, 0
4, 285363, Note_on_c, 9, 46, 0
4, 285422, Note_on_c, 9, 40, 0
4, 285590, Note_on_c, 9, 38, 61
4, 285638, Note_on_c, 9, 40, 32
4, 285937, Note_on_c, 9, 38, 0
4, 286095, Note_on_c, 9, 38, 42
4, 286385, Note_on_c, 9, 38, 0
4, 286567, Note_on_c, 9, 53, 37
4, 286568, Note_on_c, 9, 38, 51
4, 286675, Note_on_c, 9, 53, 0
4, 286811, Note_on_c, 9, 40, 0
4, 286836, Note_on_c, 9, 38, 0
4, 286929, Note_on_c, 9, 44, 80
4, 287006, Note_on_c, 9, 36, 40
4, 287038, Note_on_c, 9, 38, 49
4, 287048, Note_on_c, 9, 40, 25
4, 287201, Note_on_c, 9, 36, 0
4, 287218, Note_on_c, 9, 44, 0
4, 287385, Note_on_c, 9, 38, 0
4, 287533, Note_on_c, 9, 40, 0
4, 287545, Note_on_c, 9, 39, 65
4, 287578, Note_on_c, 9, 36, 32
4, 287761, Note_on_c, 9, 36, 0
4, 287888, Note_on_c, 9, 39, 0
4, 287951, Note_on_c, 9, 40, 23
4, 287978, Note_on_c, 9, 38, 41
4, 288290, Note_on_c, 9, 38, 0
4, 288415, Note_on_c, 9, 40, 0
4, 288498, Note_on_c, 9, 38, 45
4, 288725, Note_on_c, 9, 38, 0
4, 288874, Note_on_c, 9, 44, 71
4, 288926, Note_on_c, 9, 40, 20
4, 288953, Note_on_c, 9, 38, 41
4, 289155, Note_on_c, 9, 38, 0
4, 289170, Note_on_c, 9, 40, 0
4, 289183, Note_on_c, 9, 44, 0
4, 289438, Note_on_c, 9, 38, 65
4, 289480, Note_on_c, 9, 40, 26
4, 290079, Note_on_c, 9, 38, 0
4, 290295, Note_on_c, 9, 38, 54
4, 290484, Note_on_c, 9, 40, 0
4, 290549, Note_on_c, 9, 38, 0
4, 290736, Note_on_c, 9, 44, 74
4, 290819, Note_on_c, 9, 38, 55
4, 290821, Note_on_c, 9, 40, 24
4, 291102, Note_on_c, 9, 44, 0
4, 291133, Note_on_c, 9, 38, 0
4, 291345, Note_on_c, 9, 38, 42
4, 291497, Note_on_c, 9, 38, 0
4, 291807, Note_on_c, 9, 38, 32
4, 291934, Note_on_c, 9, 38, 0
4, 292269, Note_on_c, 9, 38, 59
4, 292448, Note_on_c, 9, 38, 0
4, 292661, Note_on_c, 9, 44, 68
4, 292774, Note_on_c, 9, 38, 30
4, 292889, Note_on_c, 9, 38, 0
4, 293051, Note_on_c, 9, 44, 0
4, 293215, Note_on_c, 9, 38, 67
4, 293217, Note_on_c, 9, 40, 0
4, 293367, Note_on_c, 9, 38, 0
4, 293704, Note_on_c, 9, 38, 49
4, 293739, Note_on_c, 9, 40, 24
4, 293810, Note_on_c, 9, 38, 0
4, 294197, Note_on_c, 9, 38, 76
4, 294368, Note_on_c, 9, 38, 0
4, 294620, Note_on_c, 9, 44, 77
4, 294675, Note_on_c, 9, 38, 38
4, 294796, Note_on_c, 9, 38, 0
4, 294925, Note_on_c, 9, 40, 0
4, 295060, Note_on_c, 9, 44, 0
4, 295122, Note_on_c, 9, 59, 41
4, 295198, Note_on_c, 9, 38, 77
4, 295224, Note_on_c, 9, 59, 0
4, 295250, Note_on_c, 9, 40, 28
4, 295366, Note_on_c, 9, 38, 0
4, 295690, Note_on_c, 9, 38, 62
4, 295838, Note_on_c, 9, 38, 0
4, 296057, Note_on_c, 9, 40, 0
4, 296140, Note_on_c, 9, 38, 71
4, 296142, Note_on_c, 9, 39, 63
4, 296190, Note_on_c, 9, 40, 22
4, 296339, Note_on_c, 9, 38, 0
4, 296433, Note_on_c, 9, 39, 0
4, 296566, Note_on_c, 9, 38, 34
4, 296586, Note_on_c, 9, 36, 43
4, 296632, Note_on_c, 9, 44, 76
4, 296795, Note_on_c, 9, 38, 0
4, 296874, Note_on_c, 9, 40, 0
4, 296942, Note_on_c, 9, 44, 0
4, 297115, Note_on_c, 9, 38, 52
4, 297176, Note_on_c, 9, 40, 19
4, 297214, Note_on_c, 9, 36, 0
4, 297323, Note_on_c, 9, 38, 0
4, 297577, Note_on_c, 9, 38, 46
4, 297872, Note_on_c, 9, 38, 0
4, 297918, Note_on_c, 9, 40, 0
4, 298066, Note_on_c, 9, 38, 45
4, 298074, Note_on_c, 9, 39, 62
4, 298110, Note_on_c, 9, 40, 28
4, 298257, Note_on_c, 9, 38, 0
4, 298392, Note_on_c, 9, 39, 0
4, 298504, Note_on_c, 9, 44, 74
4, 298519, Note_on_c, 9, 38, 34
4, 298756, Note_on_c, 9, 40, 0
4, 298783, Note_on_c, 9, 38, 0
4, 298954, Note_on_c, 9, 44, 0
4, 299046, Note_on_c, 9, 38, 23
4, 299089, Note_on_c, 9, 40, 16
4, 299293, Note_on_c, 9, 38, 0
4, 299360, Note_on_c, 9, 40, 0
4, 299509, Note_on_c, 9, 39, 65
4, 299555, Note_on_c, 9, 40, 29
4, 299844, Note_on_c, 9, 39, 0
4, 300015, Note_on_c, 9, 38, 36
4, 300160, Note_on_c, 9, 38, 0
4, 300162, Note_on_c, 9, 40, 0
4, 300389, Note_on_c, 9, 40, 19
4, 300422, Note_on_c, 9, 38, 45
4, 300476, Note_on_c, 9, 44, 78
4, 300745, Note_on_c, 9, 38, 0
4, 300795, Note_on_c, 9, 40, 0
4, 300893, Note_on_c, 9, 44, 0
4, 300978, Note_on_c, 9, 38, 55
4, 301028, Note_on_c, 9, 40, 23
4, 301230, Note_on_c, 9, 38, 0
4, 301465, Note_on_c, 9, 38, 36
4, 301546, Note_on_c, 9, 40, 0
4, 301670, Note_on_c, 9, 38, 0
4, 301970, Note_on_c, 9, 38, 65
4, 302178, Note_on_c, 9, 38, 0
4, 302375, Note_on_c, 9, 44, 78
4, 302396, Note_on_c, 9, 38, 51
4, 302627, Note_on_c, 9, 38, 0
4, 302805, Note_on_c, 9, 44, 0
4, 302850, Note_on_c, 9, 40, 32
4, 302852, Note_on_c, 9, 38, 66
4, 302959, Note_on_c, 9, 36, 25
4, 303122, Note_on_c, 9, 38, 0
4, 303134, Note_on_c, 9, 36, 0
4, 303318, Note_on_c, 9, 38, 44
4, 303559, Note_on_c, 9, 38, 0
4, 303607, Note_on_c, 9, 40, 0
4, 303848, Note_on_c, 9, 38, 59
4, 304063, Note_on_c, 9, 38, 0
4, 304273, Note_on_c, 9, 44, 86
4, 304277, Note_on_c, 9, 38, 58
4, 304312, Note_on_c, 9, 40, 33
4, 304583, Note_on_c, 9, 38, 0
4, 304703, Note_on_c, 9, 44, 0
4, 304788, Note_on_c, 9, 38, 47
4, 304990, Note_on_c, 9, 38, 0
4, 305271, Note_on_c, 9, 38, 50
4, 305500, Note_on_c, 9, 38, 0
4, 305514, Note_on_c, 9, 40, 0
4, 305722, Note_on_c, 9, 38, 52
4, 305737, Note_on_c, 9, 39, 58
4, 305751, Note_on_c, 9, 40, 29
4, 305807, Note_on_c, 9, 36, 36
4, 305936, Note_on_c, 9, 36, 0
4, 305991, Note_on_c, 9, 38, 0
4, 306082, Note_on_c, 9, 39, 0
4, 306176, Note_on_c, 9, 40, 0
4, 306178, Note_on_c, 9, 44, 86
4, 306199, Note_on_c, 9, 38, 38
4, 306446, Note_on_c, 9, 38, 0
4, 306655, Note_on_c, 9, 44, 0
4, 306698, Note_on_c, 9, 38, 63
4, 306701, Note_on_c, 9, 53, 31
4, 306748, Note_on_c, 9, 40, 27
4, 306884, Note_on_c, 9, 53, 0
4, 306979, Note_on_c, 9, 38, 0
4, 307155, Note_on_c, 9, 53, 24
4, 307166, Note_on_c, 9, 38, 44
4, 307262, Note_on_c, 9, 40, 0
4, 307284, Note_on_c, 9, 53, 0
4, 307422, Note_on_c, 9, 38, 0
4, 307602, Note_on_c, 9, 36, 45
4, 307623, Note_on_c, 9, 39, 69
4, 307719, Note_on_c, 9, 40, 34
4, 307810, Note_on_c, 9, 36, 0
4, 308004, Note_on_c, 9, 39, 0
4, 308063, Note_on_c, 9, 44, 94
4, 308104, Note_on_c, 9, 38, 29
4, 308171, Note_on_c, 9, 40, 0
4, 308318, Note_on_c, 9, 38, 0
4, 308490, Note_on_c, 9, 44, 0
4, 308595, Note_on_c, 9, 38, 48
4, 308609, Note_on_c, 9, 53, 43
4, 308775, Note_on_c, 9, 53, 0
4, 308817, Note_on_c, 9, 38, 0
4, 309023, Note_on_c, 9, 53, 35
4, 309050, Note_on_c, 9, 38, 56
4, 309052, Note_on_c, 9, 40, 27
4, 309348, Note_on_c, 9, 38, 0
4, 309407, Note_on_c, 9, 53, 0
4, 309543, Note_on_c, 9, 36, 38
4, 309558, Note_on_c, 9, 38, 47
4, 309660, Note_on_c, 9, 40, 0
4, 309694, Note_on_c, 9, 36, 0
4, 309753, Note_on_c, 9, 38, 0
4, 310024, Note_on_c, 9, 40, 27
4, 310028, Note_on_c, 9, 38, 62
4, 310039, Note_on_c, 9, 44, 78
4, 310048, Note_on_c, 9, 53, 33
4, 310208, Note_on_c, 9, 53, 0
4, 310311, Note_on_c, 9, 38, 0
4, 310477, Note_on_c, 9, 36, 67
4, 310529, Note_on_c, 9, 38, 47
4, 310583, Note_on_c, 9, 44, 0
4, 310720, Note_on_c, 9, 36, 0
4, 310725, Note_on_c, 9, 38, 0
4, 310961, Note_on_c, 9, 51, 52
4, 311001, Note_on_c, 9, 38, 54
4, 311201, Note_on_c, 9, 38, 0
4, 311236, Note_on_c, 9, 40, 0
4, 311250, Note_on_c, 9, 51, 0
4, 311528, Note_on_c, 9, 38, 38
4, 311682, Note_on_c, 9, 38, 0
4, 311934, Note_on_c, 9, 44, 86
4, 311958, Note_on_c, 9, 38, 64
4, 312008, Note_on_c, 9, 40, 31
4, 312283, Note_on_c, 9, 38, 0
4, 312364, Note_on_c, 9, 44, 0
4, 312482, Note_on_c, 9, 38, 47
4, 312536, Note_on_c, 9, 36, 38
4, 312646, Note_on_c, 9, 36, 0
4, 312686, Note_on_c, 9, 38, 0
4, 312724, Note_on_c, 9, 40, 0
4, 312971, Note_on_c, 9, 38, 41
4, 313117, Note_on_c, 9, 38, 0
4, 313429, Note_on_c, 9, 38, 67
4, 313468, Note_on_c, 9, 40, 30
4, 313495, Note_on_c, 9, 53, 42
4, 313642, Note_on_c, 9, 53, 0
4, 313658, Note_on_c, 9, 38, 0
4, 313857, Note_on_c, 9, 38, 49
4, 313916, Note_on_c, 9, 44, 92
4, 313940, Note_on_c, 9, 40, 0
4, 314067, Note_on_c, 9, 38, 0
4, 314370, Note_on_c, 9, 44, 0
4, 314373, Note_on_c, 9, 38, 53
4, 314418, Note_on_c, 9, 51, 38
4, 314533, Note_on_c, 9, 51, 0
4, 314550, Note_on_c, 9, 38, 0
4, 314820, Note_on_c, 9, 51, 39
4, 314820, Note_on_c, 9, 40, 30
4, 314827, Note_on_c, 9, 38, 53
4, 315017, Note_on_c, 9, 51, 0
4, 315299, Note_on_c, 9, 40, 0
4, 315315, Note_on_c, 9, 39, 69
4, 315413, Note_on_c, 9, 38, 0
4, 315588, Note_on_c, 9, 39, 0
4, 315725, Note_on_c, 9, 40, 23
4, 315736, Note_on_c, 9, 38, 52
4, 315818, Note_on_c, 9, 44, 86
4, 315977, Note_on_c, 9, 38, 0
4, 316060, Note_on_c, 9, 40, 0
4, 316245, Note_on_c, 9, 38, 38
4, 316248, Note_on_c, 9, 44, 0
4, 316255, Note_on_c, 9, 53, 53
4, 316461, Note_on_c, 9, 53, 0
4, 316468, Note_on_c, 9, 38, 0
4, 316726, Note_on_c, 9, 39, 62
4, 316742, Note_on_c, 9, 40, 25
4, 316771, Note_on_c, 9, 38, 37
4, 316861, Note_on_c, 9, 38, 0
4, 317115, Note_on_c, 9, 40, 0
4, 317125, Note_on_c, 9, 39, 0
4, 317266, Note_on_c, 9, 38, 31
4, 317307, Note_on_c, 9, 51, 30
4, 317395, Note_on_c, 9, 51, 0
4, 317472, Note_on_c, 9, 38, 0
4, 317686, Note_on_c, 9, 44, 92
4, 317736, Note_on_c, 9, 38, 55
4, 317761, Note_on_c, 9, 40, 23
4, 317984, Note_on_c, 9, 38, 0
4, 317990, Note_on_c, 9, 40, 0
4, 318140, Note_on_c, 9, 44, 0
4, 318259, Note_on_c, 9, 38, 61
4, 318308, Note_on_c, 9, 40, 26
4, 318569, Note_on_c, 9, 38, 0
4, 318710, Note_on_c, 9, 40, 0
4, 318727, Note_on_c, 9, 38, 42
4, 318928, Note_on_c, 9, 38, 0
4, 319211, Note_on_c, 9, 38, 62
4, 319442, Note_on_c, 9, 38, 0
4, 319605, Note_on_c, 9, 44, 86
4, 319644, Note_on_c, 9, 38, 60
4, 319698, Note_on_c, 9, 40, 30
4, 319991, Note_on_c, 9, 38, 0
4, 319991, Note_on_c, 9, 44, 0
4, 320141, Note_on_c, 9, 38, 38
4, 320257, Note_on_c, 9, 40, 0
4, 320388, Note_on_c, 9, 38, 0
4, 320605, Note_on_c, 9, 38, 38
4, 320846, Note_on_c, 9, 38, 0
4, 321098, Note_on_c, 9, 38, 56
4, 321110, Note_on_c, 9, 53, 51
4, 321123, Note_on_c, 9, 40, 29
4, 321409, Note_on_c, 9, 53, 0
4, 321424, Note_on_c, 9, 38, 0
4, 321497, Note_on_c, 9, 40, 0
4, 321500, Note_on_c, 9, 44, 86
4, 321570, Note_on_c, 9, 39, 43
4, 321815, Note_on_c, 9, 39, 0
4, 321940, Note_on_c, 9, 44, 0
4, 322025, Note_on_c, 9, 38, 62
4, 322046, Note_on_c, 9, 40, 31
4, 322060, Note_on_c, 9, 36, 27
4, 322175, Note_on_c, 9, 36, 0
4, 322319, Note_on_c, 9, 38, 0
4, 322427, Note_on_c, 9, 40, 0
4, 322450, Note_on_c, 9, 38, 39
4, 322509, Note_on_c, 9, 36, 45
4, 322664, Note_on_c, 9, 38, 0
4, 322699, Note_on_c, 9, 36, 0
4, 322936, Note_on_c, 9, 39, 61
4, 322963, Note_on_c, 9, 40, 33
4, 323307, Note_on_c, 9, 40, 0
4, 323309, Note_on_c, 9, 39, 0
4, 323425, Note_on_c, 9, 38, 34
4, 323435, Note_on_c, 9, 44, 84
4, 323698, Note_on_c, 9, 38, 0
4, 323865, Note_on_c, 9, 44, 0
4, 323933, Note_on_c, 9, 38, 43
4, 324184, Note_on_c, 9, 38, 0
4, 324401, Note_on_c, 9, 38, 52
4, 324413, Note_on_c, 9, 40, 32
4, 324721, Note_on_c, 9, 38, 0
4, 324854, Note_on_c, 9, 40, 0
4, 324867, Note_on_c, 9, 39, 64
4, 324903, Note_on_c, 9, 53, 56
4, 325158, Note_on_c, 9, 39, 0
4, 325209, Note_on_c, 9, 53, 0
4, 325347, Note_on_c, 9, 38, 53
4, 325347, Note_on_c, 9, 44, 84
4, 325391, Note_on_c, 9, 40, 20
4, 325401, Note_on_c, 9, 51, 30
4, 325573, Note_on_c, 9, 51, 0
4, 325622, Note_on_c, 9, 38, 0
4, 325661, Note_on_c, 9, 40, 0
4, 325831, Note_on_c, 9, 44, 0
4, 325836, Note_on_c, 9, 38, 49
4, 325902, Note_on_c, 9, 36, 49
4, 326069, Note_on_c, 9, 38, 0
4, 326143, Note_on_c, 9, 36, 0
4, 326346, Note_on_c, 9, 40, 28
4, 326356, Note_on_c, 9, 38, 62
4, 326364, Note_on_c, 9, 36, 45
4, 326613, Note_on_c, 9, 36, 0
4, 326649, Note_on_c, 9, 38, 0
4, 326703, Note_on_c, 9, 40, 0
4, 326863, Note_on_c, 9, 38, 47
4, 327051, Note_on_c, 9, 38, 0
4, 327252, Note_on_c, 9, 44, 77
4, 327363, Note_on_c, 9, 38, 54
4, 327375, Note_on_c, 9, 40, 25
4, 327623, Note_on_c, 9, 38, 0
4, 327655, Note_on_c, 9, 44, 0
4, 327677, Note_on_c, 9, 40, 0
4, 327812, Note_on_c, 9, 39, 51
4, 327874, Note_on_c, 9, 53, 53
4, 328040, Note_on_c, 9, 53, 0
4, 328103, Note_on_c, 9, 39, 0
4, 328267, Note_on_c, 9, 38, 49
4, 328315, Note_on_c, 9, 40, 18
4, 328494, Note_on_c, 9, 38, 0
4, 328507, Note_on_c, 9, 40, 0
4, 328783, Note_on_c, 9, 53, 36
4, 328785, Note_on_c, 9, 38, 60
4, 328810, Note_on_c, 9, 40, 31
4, 328943, Note_on_c, 9, 53, 0
4, 329045, Note_on_c, 9, 38, 0
4, 329162, Note_on_c, 9, 40, 0
4, 329238, Note_on_c, 9, 44, 77
4, 329455, Note_on_c, 9, 38, 56
4, 329611, Note_on_c, 9, 44, 0
4, 329634, Note_on_c, 9, 38, 0
4, 329913, Note_on_c, 9, 38, 45
4, 330092, Note_on_c, 9, 38, 0
4, 330327, Note_on_c, 9, 38, 59
4, 330337, Note_on_c, 9, 40, 31
4, 330678, Note_on_c, 9, 38, 0
4, 330763, Note_on_c, 9, 40, 0
4, 330840, Note_on_c, 9, 38, 38
4, 331007, Note_on_c, 9, 38, 0
4, 331150, Note_on_c, 9, 44, 86
4, 331269, Note_on_c, 9, 38, 50
4, 331479, Note_on_c, 9, 38, 0
4, 331482, Note_on_c, 9, 44, 0
4, 331702, Note_on_c, 9, 39, 63
4, 331735, Note_on_c, 9, 40, 33
4, 332014, Note_on_c, 9, 39, 0
4, 332128, Note_on_c, 9, 40, 0
4, 332188, Note_on_c, 9, 38, 29
4, 332400, Note_on_c, 9, 38, 0
4, 332663, Note_on_c, 9, 38, 47
4, 332708, Note_on_c, 9, 40, 25
4, 332912, Note_on_c, 9, 38, 0
4, 332923, Note_on_c, 9, 40, 0
4, 333099, Note_on_c, 9, 44, 84
4, 333114, Note_on_c, 9, 38, 42
4, 333339, Note_on_c, 9, 38, 0
4, 333448, Note_on_c, 9, 44, 0
4, 333576, Note_on_c, 9, 38, 40
4, 333802, Note_on_c, 9, 38, 0
4, 334033, Note_on_c, 9, 38, 58
4, 334050, Note_on_c, 9, 40, 30
4, 334447, Note_on_c, 9, 38, 0
4, 334480, Note_on_c, 9, 40, 0
4, 334593, Note_on_c, 9, 39, 61
4, 334817, Note_on_c, 9, 39, 0
4, 334955, Note_on_c, 9, 40, 22
4, 334959, Note_on_c, 9, 38, 40
4, 335037, Note_on_c, 9, 44, 86
4, 335225, Note_on_c, 9, 40, 0
4, 335240, Note_on_c, 9, 38, 0
4, 335346, Note_on_c, 9, 44, 0
4, 335510, Note_on_c, 9, 38, 51
4, 335547, Note_on_c, 9, 40, 30
4, 336003, Note_on_c, 9, 38, 0
4, 336047, Note_on_c, 9, 40, 0
4, 336400, Note_on_c, 9, 39, 63
4, 336423, Note_on_c, 9, 40, 32
4, 336771, Note_on_c, 9, 39, 0
4, 336820, Note_on_c, 9, 40, 0
4, 336866, Note_on_c, 9, 38, 39
4, 336969, Note_on_c, 9, 44, 87
4, 337162, Note_on_c, 9, 38, 0
4, 337363, Note_on_c, 9, 38, 37
4, 337420, Note_on_c, 9, 44, 0
4, 337611, Note_on_c, 9, 38, 0
4, 337838, Note_on_c, 9, 38, 54
4, 337848, Note_on_c, 9, 40, 32
4, 337862, Note_on_c, 9, 53, 55
4, 338295, Note_on_c, 9, 40, 0
4, 338312, Note_on_c, 9, 38, 0
4, 338324, Note_on_c, 9, 39, 54
4, 338415, Note_on_c, 9, 53, 0
4, 338572, Note_on_c, 9, 39, 0
4, 338797, Note_on_c, 9, 38, 51
4, 338837, Note_on_c, 9, 44, 89
4, 338851, Note_on_c, 9, 40, 25
4, 339109, Note_on_c, 9, 38, 0
4, 339129, Note_on_c, 9, 40, 0
4, 339190, Note_on_c, 9, 44, 0
4, 339312, Note_on_c, 9, 38, 51
4, 339326, Note_on_c, 9, 53, 53
4, 339344, Note_on_c, 9, 40, 29
4, 339428, Note_on_c, 9, 53, 0
4, 339778, Note_on_c, 9, 53, 55
4, 340111, Note_on_c, 9, 40, 0
4, 340167, Note_on_c, 9, 38, 0
4, 340183, Note_on_c, 9, 53, 0
4, 340346, Note_on_c, 9, 39, 49
4, 340390, Note_on_c, 9, 40, 34
4, 340708, Note_on_c, 9, 40, 0
4, 340716, Note_on_c, 9, 39, 0
4, 340773, Note_on_c, 9, 44, 90
4, 340808, Note_on_c, 9, 38, 41
4, 341039, Note_on_c, 9, 38, 0
4, 341156, Note_on_c, 9, 44, 0
4, 341273, Note_on_c, 9, 53, 49
4, 341305, Note_on_c, 9, 38, 46
4, 341475, Note_on_c, 9, 53, 0
4, 341511, Note_on_c, 9, 38, 0
4, 341763, Note_on_c, 9, 40, 29
4, 341767, Note_on_c, 9, 38, 62
4, 342118, Note_on_c, 9, 40, 0
4, 342152, Note_on_c, 9, 38, 0
4, 342263, Note_on_c, 9, 53, 34
4, 342278, Note_on_c, 9, 39, 51
4, 342351, Note_on_c, 9, 53, 0
4, 342486, Note_on_c, 9, 39, 0
4, 342671, Note_on_c, 9, 44, 83
4, 342684, Note_on_c, 9, 38, 58
4, 342717, Note_on_c, 9, 40, 27
4, 342723, Note_on_c, 9, 53, 50
4, 342833, Note_on_c, 9, 53, 0
4, 342969, Note_on_c, 9, 38, 0
4, 342979, Note_on_c, 9, 40, 0
4, 342997, Note_on_c, 9, 44, 0
4, 343183, Note_on_c, 9, 38, 49
4, 343237, Note_on_c, 9, 40, 23
4, 343431, Note_on_c, 9, 38, 0
4, 343468, Note_on_c, 9, 40, 0
4, 343639, Note_on_c, 9, 38, 41
4, 343678, Note_on_c, 9, 40, 26
4, 343976, Note_on_c, 9, 40, 0
4, 343990, Note_on_c, 9, 38, 0
4, 344169, Note_on_c, 9, 39, 60
4, 344444, Note_on_c, 9, 39, 0
4, 344552, Note_on_c, 9, 38, 41
4, 344568, Note_on_c, 9, 40, 24
4, 344607, Note_on_c, 9, 44, 81
4, 344889, Note_on_c, 9, 44, 0
4, 344935, Note_on_c, 9, 40, 0
4, 344943, Note_on_c, 9, 38, 0
4, 345116, Note_on_c, 9, 38, 47
4, 345182, Note_on_c, 9, 40, 23
4, 345392, Note_on_c, 9, 38, 0
4, 345463, Note_on_c, 9, 40, 0
4, 345581, Note_on_c, 9, 39, 61
4, 345958, Note_on_c, 9, 39, 0
4, 346070, Note_on_c, 9, 38, 50
4, 346097, Note_on_c, 9, 53, 41
4, 346099, Note_on_c, 9, 40, 24
4, 346142, Note_on_c, 9, 51, 31
4, 346276, Note_on_c, 9, 51, 0
4, 346321, Note_on_c, 9, 53, 0
4, 346328, Note_on_c, 9, 38, 0
4, 346498, Note_on_c, 9, 44, 86
4, 346532, Note_on_c, 9, 38, 40
4, 346781, Note_on_c, 9, 44, 0
4, 346794, Note_on_c, 9, 40, 0
4, 346854, Note_on_c, 9, 38, 0
4, 347052, Note_on_c, 9, 38, 64
4, 347064, Note_on_c, 9, 40, 36
4, 347343, Note_on_c, 9, 38, 0
4, 347524, Note_on_c, 9, 38, 49
4, 347807, Note_on_c, 9, 40, 0
4, 347896, Note_on_c, 9, 38, 0
4, 347985, Note_on_c, 9, 51, 34
4, 348019, Note_on_c, 9, 39, 69
4, 348030, Note_on_c, 9, 40, 35
4, 348048, Note_on_c, 9, 53, 29
4, 348145, Note_on_c, 9, 51, 0
4, 348160, Note_on_c, 9, 53, 0
4, 348340, Note_on_c, 9, 46, 23
4, 348344, Note_on_c, 9, 39, 0
4, 348446, Note_on_c, 9, 38, 42
4, 348468, Note_on_c, 9, 36, 32
4, 348586, Note_on_c, 9, 36, 0
4, 348622, Note_on_c, 9, 46, 0
4, 348654, Note_on_c, 9, 40, 0
4, 348753, Note_on_c, 9, 38, 0
4, 348911, Note_on_c, 9, 36, 49
4, 348961, Note_on_c, 9, 38, 52
4, 348974, Note_on_c, 9, 40, 24
4, 349144, Note_on_c, 9, 36, 0
4, 349203, Note_on_c, 9, 40, 0
4, 349226, Note_on_c, 9, 38, 0
4, 349411, Note_on_c, 9, 38, 59
4, 349425, Note_on_c, 9, 36, 47
4, 349432, Note_on_c, 9, 40, 27
4, 349662, Note_on_c, 9, 36, 0
4, 349829, Note_on_c, 9, 40, 0
4, 349885, Note_on_c, 9, 38, 0
4, 349902, Note_on_c, 9, 39, 65
4, 350191, Note_on_c, 9, 39, 0
4, 350265, Note_on_c, 9, 44, 87
4, 350332, Note_on_c, 9, 38, 49
4, 350355, Note_on_c, 9, 40, 24
4, 350578, Note_on_c, 9, 40, 0
4, 350588, Note_on_c, 9, 38, 0
4, 350597, Note_on_c, 9, 44, 0
4, 350833, Note_on_c, 9, 38, 60
4, 350863, Note_on_c, 9, 40, 35
4, 351137, Note_on_c, 9, 38, 0
4, 351293, Note_on_c, 9, 38, 37
4, 351534, Note_on_c, 9, 40, 0
4, 351566, Note_on_c, 9, 38, 0
4, 351784, Note_on_c, 9, 39, 67
4, 351809, Note_on_c, 9, 40, 34
4, 352102, Note_on_c, 9, 39, 0
4, 352204, Note_on_c, 9, 44, 83
4, 352221, Note_on_c, 9, 38, 41
4, 352425, Note_on_c, 9, 40, 0
4, 352512, Note_on_c, 9, 38, 0
4, 352563, Note_on_c, 9, 44, 0
4, 352755, Note_on_c, 9, 38, 50
4, 352953, Note_on_c, 9, 38, 0
4, 353178, Note_on_c, 9, 40, 34
4, 353184, Note_on_c, 9, 38, 60
4, 353529, Note_on_c, 9, 38, 0
4, 353737, Note_on_c, 9, 38, 40
4, 353866, Note_on_c, 9, 40, 0
4, 353899, Note_on_c, 9, 38, 0
4, 354099, Note_on_c, 9, 44, 86
4, 354159, Note_on_c, 9, 38, 46
4, 354174, Note_on_c, 9, 40, 25
4, 354415, Note_on_c, 9, 44, 0
4, 354426, Note_on_c, 9, 38, 0
4, 354536, Note_on_c, 9, 40, 0
4, 354669, Note_on_c, 9, 38, 58
4, 354686, Note_on_c, 9, 40, 36
4, 354941, Note_on_c, 9, 38, 0
4, 355120, Note_on_c, 9, 40, 0
4, 355185, Note_on_c, 9, 39, 40
4, 355343, Note_on_c, 9, 39, 0
4, 355621, Note_on_c, 9, 53, 51
4, 355624, Note_on_c, 9, 40, 33
4, 355634, Note_on_c, 9, 38, 71
4, 355787, Note_on_c, 9, 53, 0
4, 355925, Note_on_c, 9, 38, 0
4, 355938, Note_on_c, 9, 40, 0
4, 356010, Note_on_c, 9, 36, 49
4, 356037, Note_on_c, 9, 44, 81
4, 356117, Note_on_c, 9, 38, 44
4, 356142, Note_on_c, 9, 40, 18
4, 356264, Note_on_c, 9, 36, 0
4, 356331, Note_on_c, 9, 40, 0
4, 356345, Note_on_c, 9, 38, 0
4, 356427, Note_on_c, 9, 44, 0
4, 356513, Note_on_c, 9, 36, 51
4, 356578, Note_on_c, 9, 40, 31
4, 356583, Note_on_c, 9, 38, 56
4, 356788, Note_on_c, 9, 36, 0
4, 356830, Note_on_c, 9, 40, 0
4, 356834, Note_on_c, 9, 38, 0
4, 357030, Note_on_c, 9, 40, 28
4, 357051, Note_on_c, 9, 38, 57
4, 357098, Note_on_c, 9, 36, 31
4, 357227, Note_on_c, 9, 36, 0
4, 357375, Note_on_c, 9, 38, 0
4, 357400, Note_on_c, 9, 40, 0
4, 357529, Note_on_c, 9, 39, 51
4, 357776, Note_on_c, 9, 39, 0
4, 357939, Note_on_c, 9, 38, 60
4, 357953, Note_on_c, 9, 40, 33
4, 357959, Note_on_c, 9, 44, 76
4, 358042, Note_on_c, 9, 53, 39
4, 358234, Note_on_c, 9, 38, 0
4, 358319, Note_on_c, 9, 44, 0
4, 358384, Note_on_c, 9, 40, 0
4, 358396, Note_on_c, 9, 53, 0
4, 358436, Note_on_c, 9, 38, 41
4, 358502, Note_on_c, 9, 40, 14
4, 358504, Note_on_c, 9, 36, 44
4, 358729, Note_on_c, 9, 38, 0
4, 358772, Note_on_c, 9, 36, 0
4, 358908, Note_on_c, 9, 38, 48
4, 359158, Note_on_c, 9, 38, 0
4, 359185, Note_on_c, 9, 40, 0
4, 359411, Note_on_c, 9, 39, 66
4, 359419, Note_on_c, 9, 53, 50
4, 359443, Note_on_c, 9, 40, 33
4, 359719, Note_on_c, 9, 53, 0
4, 359736, Note_on_c, 9, 39, 0
4, 359875, Note_on_c, 9, 44, 77
4, 359877, Note_on_c, 9, 38, 35
4, 359918, Note_on_c, 9, 36, 30
4, 360133, Note_on_c, 9, 38, 0
4, 360137, Note_on_c, 9, 40, 0
4, 360143, Note_on_c, 9, 36, 0
4, 360247, Note_on_c, 9, 44, 0
4, 360401, Note_on_c, 9, 40, 30
4, 360410, Note_on_c, 9, 38, 55
4, 360655, Note_on_c, 9, 40, 0
4, 360657, Note_on_c, 9, 38, 0
4, 360861, Note_on_c, 9, 40, 29
4, 360882, Note_on_c, 9, 38, 40
4, 361140, Note_on_c, 9, 40, 0
4, 361150, Note_on_c, 9, 38, 0
4, 361375, Note_on_c, 9, 39, 65
4, 361400, Note_on_c, 9, 40, 37
4, 361704, Note_on_c, 9, 39, 0
4, 361790, Note_on_c, 9, 44, 78
4, 361847, Note_on_c, 9, 38, 32
4, 362011, Note_on_c, 9, 40, 0
4, 362078, Note_on_c, 9, 38, 0
4, 362119, Note_on_c, 9, 44, 0
4, 362369, Note_on_c, 9, 39, 68
4, 362386, Note_on_c, 9, 40, 34
4, 362671, Note_on_c, 9, 39, 0
4, 362698, Note_on_c, 9, 40, 0
4, 362835, Note_on_c, 9, 38, 40
4, 362895, Note_on_c, 9, 40, 24
4, 363056, Note_on_c, 9, 40, 0
4, 363097, Note_on_c, 9, 38, 0
4, 363338, Note_on_c, 9, 38, 51
4, 363340, Note_on_c, 9, 40, 33
4, 363363, Note_on_c, 9, 53, 47
4, 363365, Note_on_c, 9, 59, 54
4, 363557, Note_on_c, 9, 40, 0
4, 363569, Note_on_c, 9, 38, 0
4, 363571, Note_on_c, 9, 53, 0
4, 363575, Note_on_c, 9, 59, 0
4, 363749, Note_on_c, 9, 44, 87
4, 363761, Note_on_c, 9, 40, 23
4, 363788, Note_on_c, 9, 38, 41
4, 364023, Note_on_c, 9, 38, 0
4, 364035, Note_on_c, 9, 40, 0
4, 364061, Note_on_c, 9, 44, 0
4, 364256, Note_on_c, 9, 39, 65
4, 364301, Note_on_c, 9, 36, 43
4, 364314, Note_on_c, 9, 40, 36
4, 364453, Note_on_c, 9, 36, 0
4, 364551, Note_on_c, 9, 39, 0
4, 364564, Note_on_c, 9, 40, 0
4, 364765, Note_on_c, 9, 38, 29
4, 364784, Note_on_c, 9, 40, 26
4, 364787, Note_on_c, 9, 59, 55
4, 364794, Note_on_c, 9, 53, 43
4, 364996, Note_on_c, 9, 38, 0
4, 365009, Note_on_c, 9, 40, 0
4, 365208, Note_on_c, 9, 38, 45
4, 365229, Note_on_c, 9, 40, 26
4, 365280, Note_on_c, 9, 53, 0
4, 365357, Note_on_c, 9, 59, 0
4, 365464, Note_on_c, 9, 40, 0
4, 365468, Note_on_c, 9, 38, 0
4, 365620, Note_on_c, 9, 44, 87
4, 365674, Note_on_c, 9, 40, 22
4, 365678, Note_on_c, 9, 38, 41
4, 365909, Note_on_c, 9, 38, 0
4, 365928, Note_on_c, 9, 40, 0
4, 365943, Note_on_c, 9, 44, 0
4, 366153, Note_on_c, 9, 39, 65
4, 366209, Note_on_c, 9, 40, 34
4, 366277, Note_on_c, 9, 59, 48
4, 366285, Note_on_c, 9, 53, 39
4, 366393, Note_on_c, 9, 59, 0
4, 366395, Note_on_c, 9, 53, 0
4, 366473, Note_on_c, 9, 39, 0
4, 366606, Note_on_c, 9, 38, 35
4, 366831, Note_on_c, 9, 38, 0
4, 366858, Note_on_c, 9, 40, 0
4, 367137, Note_on_c, 9, 38, 55
4, 367161, Note_on_c, 9, 40, 29
4, 367167, Note_on_c, 9, 36, 36
4, 367302, Note_on_c, 9, 36, 0
4, 367374, Note_on_c, 9, 38, 0
4, 367378, Note_on_c, 9, 40, 0
4, 367525, Note_on_c, 9, 44, 86
4, 367592, Note_on_c, 9, 38, 42
4, 367600, Note_on_c, 9, 40, 24
4, 367621, Note_on_c, 9, 36, 50
4, 367846, Note_on_c, 9, 38, 0
4, 367850, Note_on_c, 9, 40, 0
4, 367881, Note_on_c, 9, 44, 0
4, 367899, Note_on_c, 9, 36, 0
4, 368081, Note_on_c, 9, 38, 53
4, 368112, Note_on_c, 9, 40, 31
4, 368347, Note_on_c, 9, 38, 0
4, 368358, Note_on_c, 9, 40, 0
4, 368566, Note_on_c, 9, 38, 50
4, 368578, Note_on_c, 9, 40, 27
4, 368894, Note_on_c, 9, 40, 0
4, 368934, Note_on_c, 9, 38, 0
4, 369088, Note_on_c, 9, 39, 69
4, 369106, Note_on_c, 9, 40, 33
4, 369151, Note_on_c, 9, 53, 42
4, 369160, Note_on_c, 9, 59, 51
4, 369276, Note_on_c, 9, 53, 0
4, 369289, Note_on_c, 9, 59, 0
4, 369412, Note_on_c, 9, 39, 0
4, 369464, Note_on_c, 9, 44, 86
4, 369487, Note_on_c, 9, 40, 0
4, 369504, Note_on_c, 9, 38, 48
4, 369730, Note_on_c, 9, 38, 0
4, 369813, Note_on_c, 9, 44, 0
4, 370007, Note_on_c, 9, 38, 60
4, 370010, Note_on_c, 9, 36, 43
4, 370067, Note_on_c, 9, 40, 30
4, 370256, Note_on_c, 9, 38, 0
4, 370259, Note_on_c, 9, 40, 0
4, 370262, Note_on_c, 9, 36, 0
4, 370494, Note_on_c, 9, 39, 73
4, 370518, Note_on_c, 9, 53, 38
4, 370519, Note_on_c, 9, 40, 38
4, 370522, Note_on_c, 9, 59, 44
4, 370824, Note_on_c, 9, 40, 0
4, 370857, Note_on_c, 9, 53, 0
4, 370866, Note_on_c, 9, 39, 0
4, 371018, Note_on_c, 9, 38, 36
4, 371019, Note_on_c, 9, 59, 0
4, 371082, Note_on_c, 9, 40, 19
4, 371199, Note_on_c, 9, 40, 0
4, 371236, Note_on_c, 9, 38, 0
4, 371356, Note_on_c, 9, 44, 102
4, 371471, Note_on_c, 9, 38, 56
4, 371500, Note_on_c, 9, 40, 28
4, 371725, Note_on_c, 9, 44, 0
4, 371762, Note_on_c, 9, 40, 0
4, 371777, Note_on_c, 9, 38, 0
4, 371954, Note_on_c, 9, 38, 56
4, 371989, Note_on_c, 9, 40, 28
4, 372097, Note_on_c, 9, 57, 60
4, 372137, Note_on_c, 9, 38, 0
4, 372178, Note_on_c, 9, 40, 0
4, 372317, Note_on_c, 9, 57, 0
4, 372483, Note_on_c, 9, 38, 75
4, 372483, Note_on_c, 9, 40, 33
4, 372524, Note_on_c, 9, 59, 45
4, 372636, Note_on_c, 9, 38, 0
4, 372720, Note_on_c, 9, 59, 0
4, 372918, Note_on_c, 9, 38, 48
4, 372926, Note_on_c, 9, 40, 0
4, 373032, Note_on_c, 9, 38, 0
4, 373416, Note_on_c, 9, 38, 42
4, 373427, Note_on_c, 9, 44, 74
4, 373545, Note_on_c, 9, 38, 0
4, 373747, Note_on_c, 9, 44, 0
4, 373975, Note_on_c, 9, 38, 67
4, 373996, Note_on_c, 9, 40, 32
4, 374142, Note_on_c, 9, 38, 0
4, 374223, Note_on_c, 9, 40, 0
4, 374499, Note_on_c, 9, 38, 41
4, 374628, Note_on_c, 9, 38, 0
4, 374984, Note_on_c, 9, 38, 36
4, 375103, Note_on_c, 9, 38, 0
4, 375328, Note_on_c, 9, 44, 71
4, 375423, Note_on_c, 9, 38, 56
4, 375448, Note_on_c, 9, 40, 31
4, 375606, Note_on_c, 9, 38, 0
4, 375691, Note_on_c, 9, 40, 0
4, 375853, Note_on_c, 9, 44, 0
4, 375947, Note_on_c, 9, 38, 39
4, 376118, Note_on_c, 9, 38, 0
4, 376401, Note_on_c, 9, 38, 37
4, 376565, Note_on_c, 9, 38, 0
4, 376877, Note_on_c, 9, 40, 36
4, 376881, Note_on_c, 9, 38, 57
4, 377077, Note_on_c, 9, 38, 0
4, 377147, Note_on_c, 9, 40, 0
4, 377314, Note_on_c, 9, 44, 63
4, 377397, Note_on_c, 9, 38, 36
4, 377594, Note_on_c, 9, 38, 0
4, 377674, Note_on_c, 9, 44, 0
4, 377846, Note_on_c, 9, 38, 36
4, 378104, Note_on_c, 9, 38, 0
4, 378333, Note_on_c, 9, 40, 27
4, 378337, Note_on_c, 9, 38, 52
4, 378691, Note_on_c, 9, 38, 0
4, 378845, Note_on_c, 9, 38, 40
4, 379019, Note_on_c, 9, 38, 0
4, 379192, Note_on_c, 9, 46, 22
4, 379244, Note_on_c, 9, 38, 40
4, 379392, Note_on_c, 9, 38, 0
4, 379653, Note_on_c, 9, 46, 0
4, 379735, Note_on_c, 9, 38, 43
4, 379916, Note_on_c, 9, 38, 0
4, 379976, Note_on_c, 9, 40, 0
4, 380192, Note_on_c, 9, 40, 23
4, 380205, Note_on_c, 9, 38, 58
4, 380427, Note_on_c, 9, 38, 0
4, 380706, Note_on_c, 9, 38, 43
4, 380835, Note_on_c, 9, 38, 0
4, 381178, Note_on_c, 9, 38, 30
4, 381192, Note_on_c, 9, 44, 63
4, 381316, Note_on_c, 9, 38, 0
4, 381322, Note_on_c, 9, 40, 0
4, 381541, Note_on_c, 9, 44, 0
4, 381609, Note_on_c, 9, 38, 57
4, 381655, Note_on_c, 9, 40, 29
4, 381831, Note_on_c, 9, 38, 0
4, 382077, Note_on_c, 9, 38, 38
4, 382247, Note_on_c, 9, 38, 0
4, 382441, Note_on_c, 9, 40, 0
4, 382584, Note_on_c, 9, 38, 45
4, 382713, Note_on_c, 9, 38, 0
4, 382992, Note_on_c, 9, 38, 55
4, 383023, Note_on_c, 9, 44, 74
4, 383034, Note_on_c, 9, 40, 28
4, 383223, Note_on_c, 9, 38, 0
4, 383429, Note_on_c, 9, 44, 0
4, 383525, Note_on_c, 9, 38, 45
4, 383678, Note_on_c, 9, 38, 0
4, 383974, Note_on_c, 9, 38, 41
4, 383976, Note_on_c, 9, 40, 0
4, 384176, Note_on_c, 9, 38, 0
4, 384400, Note_on_c, 9, 39, 64
4, 384433, Note_on_c, 9, 40, 31
4, 384617, Note_on_c, 9, 39, 0
4, 384754, Note_on_c, 9, 40, 0
4, 384866, Note_on_c, 9, 38, 33
4, 384915, Note_on_c, 9, 44, 78
4, 385095, Note_on_c, 9, 38, 0
4, 385304, Note_on_c, 9, 44, 0
4, 385345, Note_on_c, 9, 38, 39
4, 385403, Note_on_c, 9, 40, 23
4, 385600, Note_on_c, 9, 38, 0
4, 385725, Note_on_c, 9, 40, 0
4, 385840, Note_on_c, 9, 38, 35
4, 386089, Note_on_c, 9, 38, 0
4, 386364, Note_on_c, 9, 38, 39
4, 386586, Note_on_c, 9, 38, 0
4, 386809, Note_on_c, 9, 38, 52
4, 386819, Note_on_c, 9, 40, 30
4, 386850, Note_on_c, 9, 44, 77
4, 387113, Note_on_c, 9, 38, 0
4, 387293, Note_on_c, 9, 44, 0
4, 387299, Note_on_c, 9, 53, 25
4, 387343, Note_on_c, 9, 40, 0
4, 387387, Note_on_c, 9, 38, 24
4, 387574, Note_on_c, 9, 53, 0
4, 387647, Note_on_c, 9, 38, 0
4, 387790, Note_on_c, 9, 53, 33
4, 387866, Note_on_c, 9, 38, 39
4, 388103, Note_on_c, 9, 38, 0
4, 388379, Note_on_c, 9, 38, 47
4, 388429, Note_on_c, 9, 40, 28
4, 388445, Note_on_c, 9, 53, 0
4, 388616, Note_on_c, 9, 38, 0
4, 388785, Note_on_c, 9, 44, 68
4, 388818, Note_on_c, 9, 38, 33
4, 389086, Note_on_c, 9, 38, 0
4, 389142, Note_on_c, 9, 44, 0
4, 389317, Note_on_c, 9, 38, 50
4, 389507, Note_on_c, 9, 38, 0
4, 389627, Note_on_c, 9, 40, 0
4, 389762, Note_on_c, 9, 38, 51
4, 389792, Note_on_c, 9, 40, 23
4, 389958, Note_on_c, 9, 38, 0
4, 390258, Note_on_c, 9, 38, 38
4, 390376, Note_on_c, 9, 38, 0
4, 390542, Note_on_c, 9, 40, 0
4, 390674, Note_on_c, 9, 38, 46
4, 390707, Note_on_c, 9, 40, 24
4, 390707, Note_on_c, 9, 44, 76
4, 390938, Note_on_c, 9, 38, 0
4, 391094, Note_on_c, 9, 44, 0
4, 391179, Note_on_c, 9, 38, 43
4, 391347, Note_on_c, 9, 38, 0
4, 391624, Note_on_c, 9, 38, 39
4, 391842, Note_on_c, 9, 38, 0
4, 391946, Note_on_c, 9, 40, 0
4, 392111, Note_on_c, 9, 38, 37
4, 392206, Note_on_c, 9, 40, 23
4, 392294, Note_on_c, 9, 38, 0
4, 392554, Note_on_c, 9, 38, 41
4, 392629, Note_on_c, 9, 44, 60
4, 392858, Note_on_c, 9, 38, 0
4, 393002, Note_on_c, 9, 44, 0
4, 393099, Note_on_c, 9, 38, 39
4, 393274, Note_on_c, 9, 40, 0
4, 393328, Note_on_c, 9, 38, 0
4, 393556, Note_on_c, 9, 40, 23
4, 393600, Note_on_c, 9, 38, 47
4, 393860, Note_on_c, 9, 38, 0
4, 394091, Note_on_c, 9, 38, 40
4, 394247, Note_on_c, 9, 38, 0
4, 394540, Note_on_c, 9, 38, 35
4, 394571, Note_on_c, 9, 44, 70
4, 394700, Note_on_c, 9, 38, 0
4, 394987, Note_on_c, 9, 38, 45
4, 394991, Note_on_c, 9, 44, 0
4, 395062, Note_on_c, 9, 36, 49
4, 395198, Note_on_c, 9, 38, 0
4, 395250, Note_on_c, 9, 40, 0
4, 395288, Note_on_c, 9, 36, 0
4, 395472, Note_on_c, 9, 40, 28
4, 395474, Note_on_c, 9, 38, 52
4, 395697, Note_on_c, 9, 38, 0
4, 396005, Note_on_c, 9, 38, 41
4, 396152, Note_on_c, 9, 38, 0
4, 396476, Note_on_c, 9, 44, 60
4, 396498, Note_on_c, 9, 38, 29
4, 396616, Note_on_c, 9, 38, 0
4, 396806, Note_on_c, 9, 44, 0
4, 396974, Note_on_c, 9, 38, 43
4, 397122, Note_on_c, 9, 38, 0
4, 397461, Note_on_c, 9, 38, 49
4, 397598, Note_on_c, 9, 38, 0
4, 397737, Note_on_c, 9, 40, 0
4, 397918, Note_on_c, 9, 38, 70
4, 397949, Note_on_c, 9, 40, 34
4, 398130, Note_on_c, 9, 38, 0
4, 398365, Note_on_c, 9, 38, 41
4, 398422, Note_on_c, 9, 44, 76
4, 398538, Note_on_c, 9, 38, 0
4, 398734, Note_on_c, 9, 44, 0
4, 398858, Note_on_c, 9, 38, 40
4, 399000, Note_on_c, 9, 38, 0
4, 399071, Note_on_c, 9, 40, 0
4, 399337, Note_on_c, 9, 38, 65
4, 399347, Note_on_c, 9, 40, 29
4, 399561, Note_on_c, 9, 38, 0
4, 399824, Note_on_c, 9, 38, 43
4, 399988, Note_on_c, 9, 38, 0
4, 400294, Note_on_c, 9, 39, 65
4, 400297, Note_on_c, 9, 44, 76
4, 400539, Note_on_c, 9, 44, 0
4, 400554, Note_on_c, 9, 39, 0
4, 400593, Note_on_c, 9, 40, 0
4, 400816, Note_on_c, 9, 40, 23
4, 400830, Note_on_c, 9, 38, 40
4, 401051, Note_on_c, 9, 38, 0
4, 401208, Note_on_c, 9, 53, 50
4, 401265, Note_on_c, 9, 38, 39
4, 401374, Note_on_c, 9, 53, 0
4, 401542, Note_on_c, 9, 38, 0
4, 401581, Note_on_c, 9, 40, 0
4, 401749, Note_on_c, 9, 53, 58
4, 401764, Note_on_c, 9, 39, 69
4, 401783, Note_on_c, 9, 40, 32
4, 401924, Note_on_c, 9, 53, 0
4, 402159, Note_on_c, 9, 39, 0
4, 402228, Note_on_c, 9, 38, 39
4, 402232, Note_on_c, 9, 46, 26
4, 402473, Note_on_c, 9, 38, 0
4, 402480, Note_on_c, 9, 40, 0
4, 402588, Note_on_c, 9, 46, 0
4, 402689, Note_on_c, 9, 36, 41
4, 402704, Note_on_c, 9, 38, 49
4, 402765, Note_on_c, 9, 40, 33
4, 402928, Note_on_c, 9, 36, 0
4, 402958, Note_on_c, 9, 38, 0
4, 403093, Note_on_c, 9, 40, 0
4, 403151, Note_on_c, 9, 38, 50
4, 403170, Note_on_c, 9, 36, 55
4, 403195, Note_on_c, 9, 40, 24
4, 403436, Note_on_c, 9, 36, 0
4, 403474, Note_on_c, 9, 38, 0
4, 403678, Note_on_c, 9, 38, 50
4, 403875, Note_on_c, 9, 38, 0
4, 404103, Note_on_c, 9, 44, 74
4, 404146, Note_on_c, 9, 38, 36
4, 404239, Note_on_c, 9, 40, 0
4, 404409, Note_on_c, 9, 44, 0
4, 404464, Note_on_c, 9, 38, 0
4, 404649, Note_on_c, 9, 40, 28
4, 404651, Note_on_c, 9, 38, 56
4, 404884, Note_on_c, 9, 38, 0
4, 405105, Note_on_c, 9, 38, 39
4, 405294, Note_on_c, 9, 38, 0
4, 405363, Note_on_c, 9, 40, 0
4, 405606, Note_on_c, 9, 38, 37
4, 405695, Note_on_c, 9, 40, 22
4, 405822, Note_on_c, 9, 38, 0
4, 405992, Note_on_c, 9, 44, 71
4, 406020, Note_on_c, 9, 38, 47
4, 406265, Note_on_c, 9, 38, 0
4, 406361, Note_on_c, 9, 44, 0
4, 406427, Note_on_c, 9, 40, 0
4, 406534, Note_on_c, 9, 39, 69
4, 406787, Note_on_c, 9, 40, 19
4, 406814, Note_on_c, 9, 39, 0
4, 407002, Note_on_c, 9, 38, 35
4, 407332, Note_on_c, 9, 38, 0
4, 407353, Note_on_c, 9, 40, 0
4, 407522, Note_on_c, 9, 38, 45
4, 407765, Note_on_c, 9, 38, 0
4, 407950, Note_on_c, 9, 38, 42
4, 407974, Note_on_c, 9, 46, 34
4, 408021, Note_on_c, 9, 40, 19
4, 408189, Note_on_c, 9, 38, 0
4, 408243, Note_on_c, 9, 46, 0
4, 408302, Note_on_c, 9, 40, 0
4, 408470, Note_on_c, 9, 38, 61
4, 408518, Note_on_c, 9, 40, 32
4, 408817, Note_on_c, 9, 38, 0
4, 408975, Note_on_c, 9, 38, 42
4, 409265, Note_on_c, 9, 38, 0
4, 409447, Note_on_c, 9, 53, 37
4, 409448, Note_on_c, 9, 38, 51
4, 409555, Note_on_c, 9, 53, 0
4, 409691, Note_on_c, 9, 40, 0
4, 409716, Note_on_c, 9, 38, 0
4, 409809, Note_on_c, 9, 44, 80
4, 409886, Note_on_c, 9, 36, 40
4, 409918, Note_on_c, 9, 38, 49
4, 409928, Note_on_c, 9, 40, 25
4, 410081, Note_on_c, 9, 36, 0
4, 410098, Note_on_c, 9, 44, 0
4, 410265, Note_on_c, 9, 38, 0
4, 410413, Note_on_c, 9, 40, 0
4, 410425, Note_on_c, 9, 39, 65
4, 410458, Note_on_c, 9, 36, 32
4, 410641, Note_on_c, 9, 36, 0
4, 410768, Note_on_c, 9, 39, 0
4, 410831, Note_on_c, 9, 40, 23
4, 410858, Note_on_c, 9, 38, 41
4, 411170, Note_on_c, 9, 38, 0
4, 411295, Note_on_c, 9, 40, 0
4, 411378, Note_on_c, 9, 38, 45
4, 411605, Note_on_c, 9, 38, 0
4, 411754, Note_on_c, 9, 44, 71
4, 411806, Note_on_c, 9, 40, 20
4, 411833, Note_on_c, 9, 38, 41
4, 412035, Note_on_c, 9, 38, 0
4, 412050, Note_on_c, 9, 40, 0
4, 412063, Note_on_c, 9, 44, 0
4, 412318, Note_on_c, 9, 38, 65
4, 412360, Note_on_c, 9, 40, 26
4, 412959, Note_on_c, 9, 38, 0
4, 413175, Note_on_c, 9, 38, 54
4, 413364, Note_on_c, 9, 40, 0
4, 413429, Note_on_c, 9, 38, 0
4, 413616, Note_on_c, 9, 44, 74
4, 413699, Note_on_c, 9, 38, 55
4, 413701, Note_on_c, 9, 40, 24
4, 413982, Note_on_c, 9, 44, 0
4, 414013, Note_on_c, 9, 38, 0
4, 414225, Note_on_c, 9, 38, 42
4, 414377, Note_on_c, 9, 38, 0
4, 414687, Note_on_c, 9, 38, 32
4, 414814, Note_on_c, 9, 38, 0
4, 415149, Note_on_c, 9, 38, 59
4, 415328, Note_on_c, 9, 38, 0
4, 415541, Note_on_c, 9, 44, 68
4, 415654, Note_on_c, 9, 38, 30
4, 415769, Note_on_c, 9, 38, 0
4, 415931, Note_on_c, 9, 44, 0
4, 416095, Note_on_c, 9, 38, 67
4, 416097, Note_on_c, 9, 40, 0
4, 416247, Note_on_c, 9, 38, 0
4, 416584, Note_on_c, 9, 38, 49
4, 416619, Note_on_c, 9, 40, 24
4, 416690, Note_on_c, 9, 38, 0
4, 417077, Note_on_c, 9, 38, 76
4, 417248, Note_on_c, 9, 38, 0
4, 417500, Note_on_c, 9, 44, 77
4, 417555, Note_on_c, 9, 38, 38
4, 417676, Note_on_c, 9, 38, 0
4, 417805, Note_on_c, 9, 40, 0
4, 417940, Note_on_c, 9, 44, 0
4, 418002, Note_on_c, 9, 59, 41
4, 418078, Note_on_c, 9, 38, 77
4, 418104, Note_on_c, 9, 59, 0
4, 418130, Note_on_c, 9, 40, 28
4, 418246, Note_on_c, 9, 38, 0
4, 418570, Note_on_c, 9, 38, 62
4, 418718, Note_on_c, 9, 38, 0
4, 418937, Note_on_c, 9, 40, 0
4, 419020, Note_on_c, 9, 38, 71
4, 419022, Note_on_c, 9, 39, 63
4, 419070, Note_on_c, 9, 40, 22
4, 419219, Note_on_c, 9, 38, 0
4, 419313, Note_on_c, 9, 39, 0
4, 419446, Note_on_c, 9, 38, 34
4, 419466, Note_on_c, 9, 36, 43
4, 419512, Note_on_c, 9, 44, 76
4, 419675, Note_on_c, 9, 38, 0
4, 419754, Note_on_c, 9, 40, 0
4, 419822, Note_on_c, 9, 44, 0
4, 419995, Note_on_c, 9, 38, 52
4, 420056, Note_on_c, 9, 40, 19
4, 420094, Note_on_c, 9, 36, 0
4, 420203, Note_on_c, 9, 38, 0
4, 420457, Note_on_c, 9, 38, 46
4, 420752, Note_on_c, 9, 38, 0
4, 420798, Note_on_c, 9, 40, 0
4, 420946, Note_on_c, 9, 38, 45
4, 420954, Note_on_c, 9, 39, 62
4, 420990, Note_on_c, 9, 40, 28
4, 421137, Note_on_c, 9, 38, 0
4, 421272, Note_on_c, 9, 39, 0
4, 421384, Note_on_c, 9, 44, 74
4, 421399, Note_on_c, 9, 38, 34
4, 421636, Note_on_c, 9, 40, 0
4, 421663, Note_on_c, 9, 38, 0
4, 421834, Note_on_c, 9, 44, 0
4, 421926, Note_on_c, 9, 38, 23
4, 421969, Note_on_c, 9, 40, 16
4, 422173, Note_on_c, 9, 38, 0
4, 422240, Note_on_c, 9, 40, 0
4, 422389, Note_on_c, 9, 39, 65
4, 422435, Note_on_c, 9, 40, 29
4, 422724, Note_on_c, 9, 39, 0
4, 422895, Note_on_c, 9, 38, 36
4, 423040, Note_on_c, 9, 38, 0
4, 423042, Note_on_c, 9, 40, 0
4, 423269, Note_on_c, 9, 40, 19
4, 423302, Note_on_c, 9, 38, 45
4, 423356, Note_on_c, 9, 44, 78
4, 423625, Note_on_c, 9, 38, 0
4, 423675, Note_on_c, 9, 40, 0
4, 423773, Note_on_c, 9, 44, 0
4, 423858, Note_on_c, 9, 38, 55
4, 423908, Note_on_c, 9, 40, 23
4, 424110, Note_on_c, 9, 38, 0
4, 424345, Note_on_c, 9, 38, 36
4, 424426, Note_on_c, 9, 40, 0
4, 424550, Note_on_c, 9, 38, 0
4, 424850, Note_on_c, 9, 38, 65
4, 425058, Note_on_c, 9, 38, 0
4, 425255, Note_on_c, 9, 44, 78
4, 425276, Note_on_c, 9, 38, 51
4, 425507, Note_on_c, 9, 38, 0
4, 425685, Note_on_c, 9, 44, 0
4, 425730, Note_on_c, 9, 40, 32
4, 425732, Note_on_c, 9, 38, 66
4, 425839, Note_on_c, 9, 36, 25
4, 426002, Note_on_c, 9, 38, 0
4, 426014, Note_on_c, 9, 36, 0
4, 426198, Note_on_c, 9, 38, 44
4, 426439, Note_on_c, 9, 38, 0
4, 426487, Note_on_c, 9, 40, 0
4, 426728, Note_on_c, 9, 38, 59
4, 426943, Note_on_c, 9, 38, 0
4, 427153, Note_on_c, 9, 44, 86
4, 427157, Note_on_c, 9, 38, 58
4, 427192, Note_on_c, 9, 40, 33
4, 427463, Note_on_c, 9, 38, 0
4, 427583, Note_on_c, 9, 44, 0
4, 427668, Note_on_c, 9, 38, 47
4, 427870, Note_on_c, 9, 38, 0
4, 428151, Note_on_c, 9, 38, 50
4, 428380, Note_on_c, 9, 38, 0
4, 428394, Note_on_c, 9, 40, 0
4, 428602, Note_on_c, 9, 38, 52
4, 428617, Note_on_c, 9, 39, 58
4, 428631, Note_on_c, 9, 40, 29
4, 428687, Note_on_c, 9, 36, 36
4, 428816, Note_on_c, 9, 36, 0
4, 428871, Note_on_c, 9, 38, 0
4, 428962, Note_on_c, 9, 39, 0
4, 429056, Note_on_c, 9, 40, 0
4, 429058, Note_on_c, 9, 44, 86
4, 429079, Note_on_c, 9, 38, 38
4, 429326, Note_on_c, 9, 38, 0
4, 429535, Note_on_c, 9, 44, 0
4, 429578, Note_on_c, 9, 38, 63
4, 429581, Note_on_c, 9, 53, 31
4, 429628, Note_on_c, 9, 40, 27
4, 429764, Note_on_c, 9, 53, 0
4, 429859, Note_on_c, 9, 38, 0
4, 430035, Note_on_c, 9, 53, 24
4, 430046, Note_on_c, 9, 38, 44
4, 430142, Note_on_c, 9, 40, 0
4, 430164, Note_on_c, 9, 53, 0
4, 430302, Note_on_c, 9, 38, 0
4, 430482, Note_on_c, 9, 36, 45
4, 430503, Note_on_c, 9, 39, 69
4, 430599, Note_on_c, 9, 40, 34
4, 430690, Note_on_c, 9, 36, 0
4, 430884, Note_on_c, 9, 39, 0
4, 430943, Note_on_c, 9, 44, 94
4, 430984, Note_on_c, 9, 38, 29
4, 431051, Note_on_c, 9, 40, 0
4, 431198, Note_on_c, 9, 38, 0
4, 431370, Note_on_c, 9, 44, 0
4, 431475, Note_on_c, 9, 38, 48
4, 431489, Note_on_c, 9, 53, 43
4, 431655, Note_on_c, 9, 53, 0
4, 431697, Note_on_c, 9, 38, 0
4, 431903, Note_on_c, 9, 53, 35
4, 431930, Note_on_c, 9, 38, 56
4, 431932, Note_on_c, 9, 40, 27
4, 432228, Note_on_c, 9, 38, 0
4, 432287, Note_on_c, 9, 53, 0
4, 432423, Note_on_c, 9, 36, 38
4, 432438, Note_on_c, 9, 38, 47
4, 432540, Note_on_c, 9, 40, 0
4, 432574, Note_on_c, 9, 36, 0
4, 432633, Note_on_c, 9, 38, 0
4, 432904, Note_on_c, 9, 40, 27
4, 432908, Note_on_c, 9, 38, 62
4, 432919, Note_on_c, 9, 44, 78
4, 432928, Note_on_c, 9, 53, 33
4, 433088, Note_on_c, 9, 53, 0
4, 433191, Note_on_c, 9, 38, 0
4, 433357, Note_on_c, 9, 36, 67
4, 433409, Note_on_c, 9, 38, 47
4, 433463, Note_on_c, 9, 44, 0
4, 433600, Note_on_c, 9, 36, 0
4, 433605, Note_on_c, 9, 38, 0
4, 433841, Note_on_c, 9, 51, 52
4, 433881, Note_on_c, 9, 38, 54
4, 434081, Note_on_c, 9, 38, 0
4, 434116, Note_on_c, 9, 40, 0
4, 434130, Note_on_c, 9, 51, 0
4, 434408, Note_on_c, 9, 38, 38
4, 434562, Note_on_c, 9, 38, 0
4, 434814, Note_on_c, 9, 44, 86
4, 434838, Note_on_c, 9, 38, 64
4, 434888, Note_on_c, 9, 40, 31
4, 435163, Note_on_c, 9, 38, 0
4, 435244, Note_on_c, 9, 44, 0
4, 435362, Note_on_c, 9, 38, 47
4, 435416, Note_on_c, 9, 36, 38
4, 435526, Note_on_c, 9, 36, 0
4, 435566, Note_on_c, 9, 38, 0
4, 435604, Note_on_c, 9, 40, 0
4, 435851, Note_on_c, 9, 38, 41
4, 435997, Note_on_c, 9, 38, 0
4, 436309, Note_on_c, 9, 38, 67
4, 436348, Note_on_c, 9, 40, 30
4, 436375, Note_on_c, 9, 53, 42
4, 436522, Note_on_c, 9, 53, 0
4, 436538, Note_on_c, 9, 38, 0
4, 436737, Note_on_c, 9, 38, 49
4, 436796, Note_on_c, 9, 44, 92
4, 436820, Note_on_c, 9, 40, 0
4, 436947, Note_on_c, 9, 38, 0
4, 437250, Note_on_c, 9, 44, 0
4, 437253, Note_on_c, 9, 38, 53
4, 437298, Note_on_c, 9, 51, 38
4, 437413, Note_on_c, 9, 51, 0
4, 437430, Note_on_c, 9, 38, 0
4, 437700, Note_on_c, 9, 51, 39
4, 437700, Note_on_c, 9, 40, 30
4, 437707, Note_on_c, 9, 38, 53
4, 437897, Note_on_c, 9, 51, 0
4, 438179, Note_on_c, 9, 40, 0
4, 438195, Note_on_c, 9, 39, 69
4, 438293, Note_on_c, 9, 38, 0
4, 438468, Note_on_c, 9, 39, 0
4, 438605, Note_on_c, 9, 40, 23
4, 438616, Note_on_c, 9, 38, 52
4, 438698, Note_on_c, 9, 44, 86
4, 438857, Note_on_c, 9, 38, 0
4, 438940, Note_on_c, 9, 40, 0
4, 439125, Note_on_c, 9, 38, 38
4, 439128, Note_on_c, 9, 44, 0
4, 439135, Note_on_c, 9, 53, 53
4, 439341, Note_on_c, 9, 53, 0
4, 439348, Note_on_c, 9, 38, 0
4, 439606, Note_on_c, 9, 39, 62
4, 439622, Note_on_c, 9, 40, 25
4, 439651, Note_on_c, 9, 38, 37
4, 439741, Note_on_c, 9, 38, 0
4, 439995, Note_on_c, 9, 40, 0
4, 440005, Note_on_c, 9, 39, 0
4, 440146, Note_on_c, 9, 38, 31
4, 440187, Note_on_c, 9, 51, 30
4, 440275, Note_on_c, 9, 51, 0
4, 440352, Note_on_c, 9, 38, 0
4, 440566, Note_on_c, 9, 44, 92
4, 440616, Note_on_c, 9, 38, 55
4, 440641, Note_on_c, 9, 40, 23
4, 440864, Note_on_c, 9, 38, 0
4, 440870, Note_on_c, 9, 40, 0
4, 441020, Note_on_c, 9, 44, 0
4, 441139, Note_on_c, 9, 38, 61
4, 441188, Note_on_c, 9, 40, 26
4, 441449, Note_on_c, 9, 38, 0
4, 441590, Note_on_c, 9, 40, 0
4, 441607, Note_on_c, 9, 38, 42
4, 441808, Note_on_c, 9, 38, 0
4, 442091, Note_on_c, 9, 38, 62
4, 442322, Note_on_c, 9, 38, 0
4, 442485, Note_on_c, 9, 44, 86
4, 442524, Note_on_c, 9, 38, 60
4, 442578, Note_on_c, 9, 40, 30
4, 442871, Note_on_c, 9, 38, 0
4, 442871, Note_on_c, 9, 44, 0
4, 443021, Note_on_c, 9, 38, 38
4, 443137, Note_on_c, 9, 40, 0
4, 443268, Note_on_c, 9, 38, 0
4, 443485, Note_on_c, 9, 38, 38
4, 443726, Note_on_c, 9, 38, 0
4, 443978, Note_on_c, 9, 38, 56
4, 443990, Note_on_c, 9, 53, 51
4, 444003, Note_on_c, 9, 40, 29
4, 444289, Note_on_c, 9, 53, 0
4, 444304, Note_on_c, 9, 38, 0
4, 444377, Note_on_c, 9, 40, 0
4, 444380, Note_on_c, 9, 44, 86
4, 444450, Note_on_c, 9, 39, 43
4, 444695, Note_on_c, 9, 39, 0
4, 444820, Note_on_c, 9, 44, 0
4, 444905, Note_on_c, 9, 38, 62
4, 444926, Note_on_c, 9, 40, 31
4, 444940, Note_on_c, 9, 36, 27
4, 445055, Note_on_c, 9, 36, 0
4, 445199, Note_on_c, 9, 38, 0
4, 445307, Note_on_c, 9, 40, 0
4, 445330, Note_on_c, 9, 38, 39
4, 445389, Note_on_c, 9, 36, 45
4, 445544, Note_on_c, 9, 38, 0
4, 445579, Note_on_c, 9, 36, 0
4, 445816, Note_on_c, 9, 39, 61
4, 445843, Note_on_c, 9, 40, 33
4, 446187, Note_on_c, 9, 40, 0
4, 446189, Note_on_c, 9, 39, 0
4, 446305, Note_on_c, 9, 38, 34
4, 446315, Note_on_c, 9, 44, 84
4, 446578, Note_on_c, 9, 38, 0
4, 446745, Note_on_c, 9, 44, 0
4, 446813, Note_on_c, 9, 38, 43
4, 447064, Note_on_c, 9, 38, 0
4, 447281, Note_on_c, 9, 38, 52
4, 447293, Note_on_c, 9, 40, 32
4, 447601, Note_on_c, 9, 38, 0
4, 447734, Note_on_c, 9, 40, 0
4, 447747, Note_on_c, 9, 39, 64
4, 447783, Note_on_c, 9, 53, 56
4, 448038, Note_on_c, 9, 39, 0
4, 448089, Note_on_c, 9, 53, 0
4, 448227, Note_on_c, 9, 38, 53
4, 448227, Note_on_c, 9, 44, 84
4, 448271, Note_on_c, 9, 40, 20
4, 448281, Note_on_c, 9, 51, 30
4, 448453, Note_on_c, 9, 51, 0
4, 448502, Note_on_c, 9, 38, 0
4, 448541, Note_on_c, 9, 40, 0
4, 448711, Note_on_c, 9, 44, 0
4, 448716, Note_on_c, 9, 38, 49
4, 448782, Note_on_c, 9, 36, 49
4, 448949, Note_on_c, 9, 38, 0
4, 449023, Note_on_c, 9, 36, 0
4, 449226, Note_on_c, 9, 40, 28
4, 449236, Note_on_c, 9, 38, 62
4, 449244, Note_on_c, 9, 36, 45
4, 449493, Note_on_c, 9, 36, 0
4, 449529, Note_on_c, 9, 38, 0
4, 449583, Note_on_c, 9, 40, 0
4, 449743, Note_on_c, 9, 38, 47
4, 449931, Note_on_c, 9, 38, 0
4, 450132, Note_on_c, 9, 44, 77
4, 450243, Note_on_c, 9, 38, 54
4, 450255, Note_on_c, 9, 40, 25
4, 450503, Note_on_c, 9, 38, 0
4, 450535, Note_on_c, 9, 44, 0
4, 450557, Note_on_c, 9, 40, 0
4, 450692, Note_on_c, 9, 39, 51
4, 450754, Note_on_c, 9, 53, 53
4, 450920, Note_on_c, 9, 53, 0
4, 450983, Note_on_c, 9, 39, 0
4, 451147, Note_on_c, 9, 38, 49
4, 451195, Note_on_c, 9, 40, 18
4, 451374, Note_on_c, 9, 38, 0
4, 451387, Note_on_c, 9, 40, 0
4, 451663, Note_on_c, 9, 53, 36
4, 451665, Note_on_c, 9, 38, 60
4, 451690, Note_on_c, 9, 40, 31
4, 451823, Note_on_c, 9, 53, 0
4, 451925, Note_on_c, 9, 38, 0
4, 452042, Note_on_c, 9, 40, 0
4, 452118, Note_on_c, 9, 44, 77
4, 452335, Note_on_c, 9, 38, 56
4, 452491, Note_on_c, 9, 44, 0
4, 452514, Note_on_c, 9, 38, 0
4, 452793, Note_on_c, 9, 38, 45
4, 452972, Note_on_c, 9, 38, 0
4, 453207, Note_on_c, 9, 38, 59
4, 453217, Note_on_c, 9, 40, 31
4, 453558, Note_on_c, 9, 38, 0
4, 453643, Note_on_c, 9, 40, 0
4, 453720, Note_on_c, 9, 38, 38
4, 453887, Note_on_c, 9, 38, 0
4, 454030, Note_on_c, 9, 44, 86
4, 454149, Note_on_c, 9, 38, 50
4, 454359, Note_on_c, 9, 38, 0
4, 454362, Note_on_c, 9, 44, 0
4, 454582, Note_on_c, 9, 39, 63
4, 454615, Note_on_c, 9, 40, 33
4, 454894, Note_on_c, 9, 39, 0
4, 455008, Note_on_c, 9, 40, 0
4, 455068, Note_on_c, 9, 38, 29
4, 455280, Note_on_c, 9, 38, 0
4, 455543, Note_on_c, 9, 38, 47
4, 455588, Note_on_c, 9, 40, 25
4, 455792, Note_on_c, 9, 38, 0
4, 455803, Note_on_c, 9, 40, 0
4, 455979, Note_on_c, 9, 44, 84
4, 455994, Note_on_c, 9, 38, 42
4, 456219, Note_on_c, 9, 38, 0
4, 456328, Note_on_c, 9, 44, 0
4, 456456, Note_on_c, 9, 38, 40
4, 456682, Note_on_c, 9, 38, 0
4, 456913, Note_on_c, 9, 38, 58
4, 456930, Note_on_c, 9, 40, 30
4, 457327, Note_on_c, 9, 38, 0
4, 457360, Note_on_c, 9, 40, 0
4, 457473, Note_on_c, 9, 39, 61
4, 457697, Note_on_c, 9, 39, 0
4, 457835, Note_on_c, 9, 40, 22
4, 457839, Note_on_c, 9, 38, 40
4, 457917, Note_on_c, 9, 44, 86
4, 458105, Note_on_c, 9, 40, 0
4, 458120, Note_on_c, 9, 38, 0
4, 458226, Note_on_c, 9, 44, 0
4, 458390, Note_on_c, 9, 38, 51
4, 458427, Note_on_c, 9, 40, 30
4, 458883, Note_on_c, 9, 38, 0
4, 458927, Note_on_c, 9, 40, 0
4, 459280, Note_on_c, 9, 39, 63
4, 459303, Note_on_c, 9, 40, 32
4, 459651, Note_on_c, 9, 39, 0
4, 459700, Note_on_c, 9, 40, 0
4, 459746, Note_on_c, 9, 38, 39
4, 459849, Note_on_c, 9, 44, 87
4, 460042, Note_on_c, 9, 38, 0
4, 460243, Note_on_c, 9, 38, 37
4, 460300, Note_on_c, 9, 44, 0
4, 460491, Note_on_c, 9, 38, 0
4, 460718, Note_on_c, 9, 38, 54
4, 460728, Note_on_c, 9, 40, 32
4, 460742, Note_on_c, 9, 53, 55
4, 461175, Note_on_c, 9, 40, 0
4, 461192, Note_on_c, 9, 38, 0
4, 461204, Note_on_c, 9, 39, 54
4, 461295, Note_on_c, 9, 53, 0
4, 461452, Note_on_c, 9, 39, 0
4, 461677, Note_on_c, 9, 38, 51
4, 461717, Note_on_c, 9, 44, 89
4, 461731, Note_on_c, 9, 40, 25
4, 461989, Note_on_c, 9, 38, 0
4, 462009, Note_on_c, 9, 40, 0
4, 462070, Note_on_c, 9, 44, 0
4, 462192, Note_on_c, 9, 38, 51
4, 462206, Note_on_c, 9, 53, 53
4, 462224, Note_on_c, 9, 40, 29
4, 462308, Note_on_c, 9, 53, 0
4, 462658, Note_on_c, 9, 53, 55
4, 462991, Note_on_c, 9, 40, 0
4, 463047, Note_on_c, 9, 38, 0
4, 463063, Note_on_c, 9, 53, 0
4, 463226, Note_on_c, 9, 39, 49
4, 463270, Note_on_c, 9, 40, 34
4, 463588, Note_on_c, 9, 40, 0
4, 463596, Note_on_c, 9, 39, 0
4, 463653, Note_on_c, 9, 44, 90
4, 463688, Note_on_c, 9, 38, 41
4, 463919, Note_on_c, 9, 38, 0
4, 464036, Note_on_c, 9, 44, 0
4, 464153, Note_on_c, 9, 53, 49
4, 464185, Note_on_c, 9, 38, 46
4, 464355, Note_on_c, 9, 53, 0
4, 464391, Note_on_c, 9, 38, 0
4, 464643, Note_on_c, 9, 40, 29
4, 464647, Note_on_c, 9, 38, 62
4, 464998, Note_on_c, 9, 40, 0
4, 465032, Note_on_c, 9, 38, 0
4, 465143, Note_on_c, 9, 53, 34
4, 465158, Note_on_c, 9, 39, 51
4, 465231, Note_on_c, 9, 53, 0
4, 465366, Note_on_c, 9, 39, 0
4, 465551, Note_on_c, 9, 44, 83
4, 465564, Note_on_c, 9, 38, 58
4, 465597, Note_on_c, 9, 40, 27
4, 465603, Note_on_c, 9, 53, 50
4, 465713, Note_on_c, 9, 53, 0
4, 465849, Note_on_c, 9, 38, 0
4, 465859, Note_on_c, 9, 40, 0
4, 465877, Note_on_c, 9, 44, 0
4, 466063, Note_on_c, 9, 38, 49
4, 466117, Note_on_c, 9, 40, 23
4, 466311, Note_on_c, 9, 38, 0
4, 466348, Note_on_c, 9, 40, 0
4, 466519, Note_on_c, 9, 38, 41
4, 466558, Note_on_c, 9, 40, 26
4, 466856, Note_on_c, 9, 40, 0
4, 466870, Note_on_c, 9, 38, 0
4, 467049, Note_on_c, 9, 39, 60
4, 467324, Note_on_c, 9, 39, 0
4, 467432, Note_on_c, 9, 38, 41
4, 467448, Note_on_c, 9, 40, 24
4, 467487, Note_on_c, 9, 44, 81
4, 467769, Note_on_c, 9, 44, 0
4, 467815, Note_on_c, 9, 40, 0
4, 467823, Note_on_c, 9, 38, 0
4, 467996, Note_on_c, 9, 38, 47
4, 468062, Note_on_c, 9, 40, 23
4, 468272, Note_on_c, 9, 38, 0
4, 468343, Note_on_c, 9, 40, 0
4, 468461, Note_on_c, 9, 39, 61
4, 468838, Note_on_c, 9, 39, 0
4, 468950, Note_on_c, 9, 38, 50
4, 468977, Note_on_c, 9, 53, 41
4, 468979, Note_on_c, 9, 40, 24
4, 469022, Note_on_c, 9, 51, 31
4, 469156, Note_on_c, 9, 51, 0
4, 469201, Note_on_c, 9, 53, 0
4, 469208, Note_on_c, 9, 38, 0
4, 469378, Note_on_c, 9, 44, 86
4, 469412, Note_on_c, 9, 38, 40
4, 469661, Note_on_c, 9, 44, 0
4, 469674, Note_on_c, 9, 40, 0
4, 469734, Note_on_c, 9, 38, 0
4, 469932, Note_on_c, 9, 38, 64
4, 469944, Note_on_c, 9, 40, 36
4, 470223, Note_on_c, 9, 38, 0
4, 470404, Note_on_c, 9, 38, 49
4, 470687, Note_on_c, 9, 40, 0
4, 470776, Note_on_c, 9, 38, 0
4, 470865, Note_on_c, 9, 51, 34
4, 470899, Note_on_c, 9, 39, 69
4, 470910, Note_on_c, 9, 40, 35
4, 470928, Note_on_c, 9, 53, 29
4, 471025, Note_on_c, 9, 51, 0
4, 471040, Note_on_c, 9, 53, 0
4, 471220, Note_on_c, 9, 46, 23
4, 471224, Note_on_c, 9, 39, 0
4, 471326, Note_on_c, 9, 38, 42
4, 471348, Note_on_c, 9, 36, 32
4, 471466, Note_on_c, 9, 36, 0
4, 471502, Note_on_c, 9, 46, 0
4, 471534, Note_on_c, 9, 40, 0
4, 471633, Note_on_c, 9, 38, 0
4, 471791, Note_on_c, 9, 36, 49
4, 471841, Note_on_c, 9, 38, 52
4, 471854, Note_on_c, 9, 40, 24
4, 472024, Note_on_c, 9, 36, 0
4, 472083, Note_on_c, 9, 40, 0
4, 472106, Note_on_c, 9, 38, 0
4, 472291, Note_on_c, 9, 38, 59
4, 472305, Note_on_c, 9, 36, 47
4, 472312, Note_on_c, 9, 40, 27
4, 472542, Note_on_c, 9, 36, 0
4, 472709, Note_on_c, 9, 40, 0
4, 472765, Note_on_c, 9, 38, 0
4, 472782, Note_on_c, 9, 39, 65
4, 473071, Note_on_c, 9, 39, 0
4, 473145, Note_on_c, 9, 44, 87
4, 473212, Note_on_c, 9, 38, 49
4, 473235, Note_on_c, 9, 40, 24
4, 473458, Note_on_c, 9, 40, 0
4, 473468, Note_on_c, 9, 38, 0
4, 473477, Note_on_c, 9, 44, 0
4, 473713, Note_on_c, 9, 38, 60
4, 473743, Note_on_c, 9, 40, 35
4, 474017, Note_on_c, 9, 38, 0
4, 474173, Note_on_c, 9, 38, 37
4, 474414, Note_on_c, 9, 40, 0
4, 474446, Note_on_c, 9, 38, 0
4, 474664, Note_on_c, 9, 39, 67
4, 474689, Note_on_c, 9, 40, 34
4, 474982, Note_on_c, 9, 39, 0
4, 475084, Note_on_c, 9, 44, 83
4, 475101, Note_on_c, 9, 38, 41
4, 475305, Note_on_c, 9, 40, 0
4, 475392, Note_on_c, 9, 38, 0
4, 475443, Note_on_c, 9, 44, 0
4, 475635, Note_on_c, 9, 38, 50
4, 475833, Note_on_c, 9, 38, 0
4, 476058, Note_on_c, 9, 40, 34
4, 476064, Note_on_c, 9, 38, 60
4, 476409, Note_on_c, 9, 38, 0
4, 476617, Note_on_c, 9, 38, 40
4, 476746, Note_on_c, 9, 40, 0
4, 476779, Note_on_c, 9, 38, 0
4, 476979, Note_on_c, 9, 44, 86
4, 477039, Note_on_c, 9, 38, 46
4, 477054, Note_on_c, 9, 40, 25
4, 477295, Note_on_c, 9, 44, 0
4, 477306, Note_on_c, 9, 38, 0
4, 477416, Note_on_c, 9, 40, 0
4, 477549, Note_on_c, 9, 38, 58
4, 477566, Note_on_c, 9, 40, 36
4, 477821, Note_on_c, 9, 38, 0
4, 478000, Note_on_c, 9, 40, 0
4, 478065, Note_on_c, 9, 39, 40
4, 478223, Note_on_c, 9, 39, 0
4, 478501, Note_on_c, 9, 53, 51
4, 478504, Note_on_c, 9, 40, 33
4, 478514, Note_on_c, 9, 38, 71
4, 478667, Note_on_c, 9, 53, 0
4, 478805, Note_on_c, 9, 38, 0
4, 478818, Note_on_c, 9, 40, 0
4, 478890, Note_on_c, 9, 36, 49
4, 478917, Note_on_c, 9, 44, 81
4, 478997, Note_on_c, 9, 38, 44
4, 479022, Note_on_c, 9, 40, 18
4, 479144, Note_on_c, 9, 36, 0
4, 479211, Note_on_c, 9, 40, 0
4, 479225, Note_on_c, 9, 38, 0
4, 479307, Note_on_c, 9, 44, 0
4, 479393, Note_on_c, 9, 36, 51
4, 479458, Note_on_c, 9, 40, 31
4, 479463, Note_on_c, 9, 38, 56
4, 479668, Note_on_c, 9, 36, 0
4, 479710, Note_on_c, 9, 40, 0
4, 479714, Note_on_c, 9, 38, 0
4, 479910, Note_on_c, 9, 40, 28
4, 479931, Note_on_c, 9, 38, 57
4, 479978, Note_on_c, 9, 36, 31
4, 480107, Note_on_c, 9, 36, 0
4, 480255, Note_on_c, 9, 38, 0
4, 480280, Note_on_c, 9, 40, 0
4, 480409, Note_on_c, 9, 39, 51
4, 480656, Note_on_c, 9, 39, 0
4, 480819, Note_on_c, 9, 38, 60
4, 480833, Note_on_c, 9, 40, 33
4, 480839, Note_on_c, 9, 44, 76
4, 480922, Note_on_c, 9, 53, 39
4, 481114, Note_on_c, 9, 38, 0
4, 481199, Note_on_c, 9, 44, 0
4, 481264, Note_on_c, 9, 40, 0
4, 481276, Note_on_c, 9, 53, 0
4, 481316, Note_on_c, 9, 38, 41
4, 481382, Note_on_c, 9, 40, 14
4, 481384, Note_on_c, 9, 36, 44
4, 481609, Note_on_c, 9, 38, 0
4, 481652, Note_on_c, 9, 36, 0
4, 481788, Note_on_c, 9, 38, 48
4, 482038, Note_on_c, 9, 38, 0
4, 482065, Note_on_c, 9, 40, 0
4, 482291, Note_on_c, 9, 39, 66
4, 482299, Note_on_c, 9, 53, 50
4, 482323, Note_on_c, 9, 40, 33
4, 482599, Note_on_c, 9, 53, 0
4, 482616, Note_on_c, 9, 39, 0
4, 482755, Note_on_c, 9, 44, 77
4, 482757, Note_on_c, 9, 38, 35
4, 482798, Note_on_c, 9, 36, 30
4, 483013, Note_on_c, 9, 38, 0
4, 483017, Note_on_c, 9, 40, 0
4, 483023, Note_on_c, 9, 36, 0
4, 483127, Note_on_c, 9, 44, 0
4, 483281, Note_on_c, 9, 40, 30
4, 483290, Note_on_c, 9, 38, 55
4, 483535, Note_on_c, 9, 40, 0
4, 483537, Note_on_c, 9, 38, 0
4, 483741, Note_on_c, 9, 40, 29
4, 483762, Note_on_c, 9, 38, 40
4, 484020, Note_on_c, 9, 40, 0
4, 484030, Note_on_c, 9, 38, 0
4, 484255, Note_on_c, 9, 39, 65
4, 484280, Note_on_c, 9, 40, 37
4, 484584, Note_on_c, 9, 39, 0
4, 484670, Note_on_c, 9, 44, 78
4, 484727, Note_on_c, 9, 38, 32
4, 484891, Note_on_c, 9, 40, 0
4, 484958, Note_on_c, 9, 38, 0
4, 484999, Note_on_c, 9, 44, 0
4, 485249, Note_on_c, 9, 39, 68
4, 485266, Note_on_c, 9, 40, 34
4, 485551, Note_on_c, 9, 39, 0
4, 485578, Note_on_c, 9, 40, 0
4, 485715, Note_on_c, 9, 38, 40
4, 485775, Note_on_c, 9, 40, 24
4, 485936, Note_on_c, 9, 40, 0
4, 485977, Note_on_c, 9, 38, 0
4, 486218, Note_on_c, 9, 38, 51
4, 486220, Note_on_c, 9, 40, 33
4, 486243, Note_on_c, 9, 53, 47
4, 486245, Note_on_c, 9, 59, 54
4, 486437, Note_on_c, 9, 40, 0
4, 486449, Note_on_c, 9, 38, 0
4, 486451, Note_on_c, 9, 53, 0
4, 486455, Note_on_c, 9, 59, 0
4, 486629, Note_on_c, 9, 44, 87
4, 486641, Note_on_c, 9, 40, 23
4, 486668, Note_on_c, 9, 38, 41
4, 486903, Note_on_c, 9, 38, 0
4, 486915, Note_on_c, 9, 40, 0
4, 486941, Note_on_c, 9, 44, 0
4, 487136, Note_on_c, 9, 39, 65
4, 487181, Note_on_c, 9, 36, 43
4, 487194, Note_on_c, 9, 40, 36
4, 487333, Note_on_c, 9, 36, 0
4, 487431, Note_on_c, 9, 39, 0
4, 487444, Note_on_c, 9, 40, 0
4, 487645, Note_on_c, 9, 38, 29
4, 487664, Note_on_c, 9, 40, 26
4, 487667, Note_on_c, 9, 59, 55
4, 487674, Note_on_c, 9, 53, 43
4, 487876, Note_on_c, 9, 38, 0
4, 487889, Note_on_c, 9, 40, 0
4, 488088, Note_on_c, 9, 38, 45
4, 488109, Note_on_c, 9, 40, 26
4, 488160, Note_on_c, 9, 53, 0
4, 488237, Note_on_c, 9, 59, 0
4, 488344, Note_on_c, 9, 40, 0
4, 488348, Note_on_c, 9, 38, 0
4, 488500, Note_on_c, 9, 44, 87
4, 488554, Note_on_c, 9, 40, 22
4, 488558, Note_on_c, 9, 38, 41
4, 488789, Note_on_c, 9, 38, 0
4, 488808, Note_on_c, 9, 40, 0
4, 488823, Note_on_c, 9, 44, 0
4, 489033, Note_on_c, 9, 39, 65
4, 489089, Note_on_c, 9, 40, 34
4, 489157, Note_on_c, 9, 59, 48
4, 489165, Note_on_c, 9, 53, 39
4, 489273, Note_on_c, 9, 59, 0
4, 489275, Note_on_c, 9, 53, 0
4, 489353, Note_on_c, 9, 39, 0
4, 489486, Note_on_c, 9, 38, 35
4, 489711, Note_on_c, 9, 38, 0
4, 489738, Note_on_c, 9, 40, 0
4, 490017, Note_on_c, 9, 38, 55
4, 490041, Note_on_c, 9, 40, 29
4, 490047, Note_on_c, 9, 36, 36
4, 490182, Note_on_c, 9, 36, 0
4, 490254, Note_on_c, 9, 38, 0
4, 490258, Note_on_c, 9, 40, 0
4, 490405, Note_on_c, 9, 44, 86
4, 490472, Note_on_c, 9, 38, 42
4, 490480, Note_on_c, 9, 40, 24
4, 490501, Note_on_c, 9, 36, 50
4, 490726, Note_on_c, 9, 38, 0
4, 490730, Note_on_c, 9, 40, 0
4, 490761, Note_on_c, 9, 44, 0
4, 490779, Note_on_c, 9, 36, 0
4, 490961, Note_on_c, 9, 38, 53
4, 490992, Note_on_c, 9, 40, 31
4, 491227, Note_on_c, 9, 38, 0
4, 491238, Note_on_c, 9, 40, 0
4, 491446, Note_on_c, 9, 38, 50
4, 491458, Note_on_c, 9, 40, 27
4, 491774, Note_on_c, 9, 40, 0
4, 491814, Note_on_c, 9, 38, 0
4, 491968, Note_on_c, 9, 39, 69
4, 491986, Note_on_c, 9, 40, 33
4, 492031, Note_on_c, 9, 53, 42
4, 492040, Note_on_c, 9, 59, 51
4, 492156, Note_on_c, 9, 53, 0
4, 492169, Note_on_c, 9, 59, 0
4, 492292, Note_on_c, 9, 39, 0
4, 492344, Note_on_c, 9, 44, 86
4, 492367, Note_on_c, 9, 40, 0
4, 492384, Note_on_c, 9, 38, 48
4, 492610, Note_on_c, 9, 38, 0
4, 492693, Note_on_c, 9, 44, 0
4, 492887, Note_on_c, 9, 38, 60
4, 492890, Note_on_c, 9, 36, 43
4, 492947, Note_on_c, 9, 40, 30
4, 493136, Note_on_c, 9, 38, 0
4, 493139, Note_on_c, 9, 40, 0
4, 493142, Note_on_c, 9, 36, 0
4, 493374, Note_on_c, 9, 39, 73
4, 493398, Note_on_c, 9, 53, 38
4, 493399, Note_on_c, 9, 40, 38
4, 493402, Note_on_c, 9, 59, 44
4, 493704, Note_on_c, 9, 40, 0
4, 493737, Note_on_c, 9, 53, 0
4, 493746, Note_on_c, 9, 39, 0
4, 493898, Note_on_c, 9, 38, 36
4, 493899, Note_on_c, 9, 59, 0
4, 493962, Note_on_c, 9, 40, 19
4, 494079, Note_on_c, 9, 40, 0
4, 494116, Note_on_c, 9, 38, 0
4, 494236, Note_on_c, 9, 44, 102
4, 494351, Note_on_c, 9, 38, 56
4, 494380, Note_on_c, 9, 40, 28
4, 494605, Note_on_c, 9, 44, 0
4, 494642, Note_on_c, 9, 40, 0
4, 494657, Note_on_c, 9, 38, 0
4, 494834, Note_on_c, 9, 38, 56
4, 494869, Note_on_c, 9, 40, 28
4, 494875, Note_on_c, 9, 36, 59
4, 494977, Note_on_c, 9, 57, 60
4, 495000, Note_on_c, 9, 36, 0
4, 495017, Note_on_c, 9, 38, 0
4, 495058, Note_on_c, 9, 40, 0
4, 495197, Note_on_c, 9, 57, 0
4, 495299, Note_on_c, 9, 36, 44
4, 495395, Note_on_c, 9, 40, 51
4, 495397, Note_on_c, 9, 38, 47
4, 495655, Note_on_c, 9, 38, 0
4, 495789, Note_on_c, 9, 40, 0
4, 495858, Note_on_c, 9, 38, 37
4, 496181, Note_on_c, 9, 36, 0
4, 496308, Note_on_c, 9, 44, 96
4, 496508, Note_on_c, 9, 38, 0
4, 496787, Note_on_c, 9, 36, 50
4, 496846, Note_on_c, 9, 40, 47
4, 496852, Note_on_c, 9, 44, 0
4, 496865, Note_on_c, 9, 38, 38
4, 496878, Note_on_c, 9, 36, 0
4, 497170, Note_on_c, 9, 38, 0
4, 497351, Note_on_c, 9, 38, 47
4, 497353, Note_on_c, 9, 40, 0
4, 497556, Note_on_c, 9, 38, 0
4, 497844, Note_on_c, 9, 38, 29
4, 498046, Note_on_c, 9, 38, 0
4, 498226, Note_on_c, 9, 44, 92
4, 498307, Note_on_c, 9, 40, 38
4, 498313, Note_on_c, 9, 38, 53
4, 498651, Note_on_c, 9, 44, 0
4, 498958, Note_on_c, 9, 38, 0
4, 499130, Note_on_c, 9, 40, 0
4, 499165, Note_on_c, 9, 38, 36
4, 499417, Note_on_c, 9, 38, 0
4, 499639, Note_on_c, 9, 38, 39
4, 499687, Note_on_c, 9, 40, 44
4, 500146, Note_on_c, 9, 44, 87
4, 500398, Note_on_c, 9, 38, 0
4, 500569, Note_on_c, 9, 44, 0
4, 500570, Note_on_c, 9, 38, 33
4, 500601, Note_on_c, 9, 40, 0
4, 500677, Note_on_c, 9, 36, 34
4, 500760, Note_on_c, 9, 36, 0
4, 500807, Note_on_c, 9, 38, 0
4, 501116, Note_on_c, 9, 38, 35
4, 501129, Note_on_c, 9, 40, 34
4, 501415, Note_on_c, 9, 40, 0
4, 501438, Note_on_c, 9, 38, 0
4, 501611, Note_on_c, 9, 38, 33
4, 501615, Note_on_c, 9, 40, 44
4, 501647, Note_on_c, 9, 36, 32
4, 501863, Note_on_c, 9, 38, 0
4, 501896, Note_on_c, 9, 36, 0
4, 502020, Note_on_c, 9, 40, 0
4, 502032, Note_on_c, 9, 46, 51
4, 502126, Note_on_c, 9, 38, 22
4, 502420, Note_on_c, 9, 46, 0
4, 502525, Note_on_c, 9, 38, 0
4, 502625, Note_on_c, 9, 38, 40
4, 502634, Note_on_c, 9, 40, 60
4, 502664, Note_on_c, 9, 36, 33
4, 502814, Note_on_c, 9, 36, 0
4, 502880, Note_on_c, 9, 38, 0
4, 502907, Note_on_c, 9, 40, 0
4, 503070, Note_on_c, 9, 40, 46
4, 503091, Note_on_c, 9, 38, 30
4, 503096, Note_on_c, 9, 36, 35
4, 503452, Note_on_c, 9, 38, 0
4, 503593, Note_on_c, 9, 40, 0
4, 503604, Note_on_c, 9, 38, 49
4, 503665, Note_on_c, 9, 36, 0
4, 503842, Note_on_c, 9, 38, 0
4, 504011, Note_on_c, 9, 44, 67
4, 504078, Note_on_c, 9, 38, 35
4, 504378, Note_on_c, 9, 38, 0
4, 504430, Note_on_c, 9, 44, 0
4, 504526, Note_on_c, 9, 38, 35
4, 504594, Note_on_c, 9, 36, 32
4, 504740, Note_on_c, 9, 36, 0
4, 504785, Note_on_c, 9, 38, 0
4, 505011, Note_on_c, 9, 40, 39
4, 505027, Note_on_c, 9, 38, 35
4, 505359, Note_on_c, 9, 38, 0
4, 505522, Note_on_c, 9, 40, 0
4, 505580, Note_on_c, 9, 38, 30
4, 505741, Note_on_c, 9, 38, 0
4, 505939, Note_on_c, 9, 44, 80
4, 506008, Note_on_c, 9, 38, 44
4, 506250, Note_on_c, 9, 38, 0
4, 506331, Note_on_c, 9, 44, 0
4, 506484, Note_on_c, 9, 38, 59
4, 506747, Note_on_c, 9, 38, 0
4, 506943, Note_on_c, 9, 38, 56
4, 506951, Note_on_c, 9, 40, 63
4, 506979, Note_on_c, 9, 59, 30
4, 507056, Note_on_c, 9, 59, 0
4, 507275, Note_on_c, 9, 38, 0
4, 507354, Note_on_c, 9, 40, 0
4, 507442, Note_on_c, 9, 59, 43
4, 507463, Note_on_c, 9, 38, 31
4, 507605, Note_on_c, 9, 59, 0
4, 507657, Note_on_c, 9, 38, 0
4, 507849, Note_on_c, 9, 44, 81
4, 507875, Note_on_c, 9, 59, 47
4, 507955, Note_on_c, 9, 38, 34
4, 507989, Note_on_c, 9, 59, 0
4, 508130, Note_on_c, 9, 38, 0
4, 508278, Note_on_c, 9, 44, 0
4, 508375, Note_on_c, 9, 36, 36
4, 508406, Note_on_c, 9, 38, 65
4, 508532, Note_on_c, 9, 36, 0
4, 508719, Note_on_c, 9, 38, 0
4, 509381, Note_on_c, 9, 38, 58
4, 509402, Note_on_c, 9, 36, 39
4, 509567, Note_on_c, 9, 36, 0
4, 509619, Note_on_c, 9, 38, 0
4, 509810, Note_on_c, 9, 44, 77
4, 509840, Note_on_c, 9, 38, 43
4, 509859, Note_on_c, 9, 40, 46
4, 509920, Note_on_c, 9, 53, 26
4, 510070, Note_on_c, 9, 53, 0
4, 510151, Note_on_c, 9, 38, 0
4, 510272, Note_on_c, 9, 40, 0
4, 510339, Note_on_c, 9, 38, 35
4, 510370, Note_on_c, 9, 53, 50
4, 510392, Note_on_c, 9, 44, 0
4, 510528, Note_on_c, 9, 38, 0
4, 510646, Note_on_c, 9, 53, 0
4, 510823, Note_on_c, 9, 38, 26
4, 511079, Note_on_c, 9, 38, 0
4, 511284, Note_on_c, 9, 38, 39
4, 511326, Note_on_c, 9, 40, 39
4, 511349, Note_on_c, 9, 36, 35
4, 511508, Note_on_c, 9, 36, 0
4, 511541, Note_on_c, 9, 40, 0
4, 511547, Note_on_c, 9, 38, 0
4, 512146, Note_on_c, 9, 38, 43
4, 512311, Note_on_c, 9, 38, 0
4, 512665, Note_on_c, 9, 40, 36
4, 512701, Note_on_c, 9, 38, 35
4, 513037, Note_on_c, 9, 40, 0
4, 513039, Note_on_c, 9, 38, 0
4, 513162, Note_on_c, 9, 39, 45
4, 513271, Note_on_c, 9, 53, 29
4, 513494, Note_on_c, 9, 39, 0
4, 513563, Note_on_c, 9, 44, 92
4, 513602, Note_on_c, 9, 38, 31
4, 513911, Note_on_c, 9, 38, 0
4, 513929, Note_on_c, 9, 53, 0
4, 513986, Note_on_c, 9, 44, 0
4, 514089, Note_on_c, 9, 38, 37
4, 514314, Note_on_c, 9, 38, 0
4, 514588, Note_on_c, 9, 53, 27
4, 514588, Note_on_c, 9, 38, 34
4, 514880, Note_on_c, 9, 38, 0
4, 515012, Note_on_c, 9, 53, 0
4, 515067, Note_on_c, 9, 38, 31
4, 515072, Note_on_c, 9, 40, 36
4, 515353, Note_on_c, 9, 38, 0
4, 515401, Note_on_c, 9, 44, 90
4, 515418, Note_on_c, 9, 40, 0
4, 515556, Note_on_c, 9, 38, 24
4, 515725, Note_on_c, 9, 38, 0
4, 515804, Note_on_c, 9, 44, 0
4, 515912, Note_on_c, 9, 53, 29
4, 515998, Note_on_c, 9, 38, 30
4, 516018, Note_on_c, 9, 53, 0
4, 516188, Note_on_c, 9, 38, 0
4, 516387, Note_on_c, 9, 53, 28
4, 516474, Note_on_c, 9, 38, 36
4, 516480, Note_on_c, 9, 40, 30
4, 516609, Note_on_c, 9, 53, 0
4, 516727, Note_on_c, 9, 38, 0
4, 516866, Note_on_c, 9, 40, 0
4, 516905, Note_on_c, 9, 36, 23
4, 516971, Note_on_c, 9, 38, 35
4, 517084, Note_on_c, 9, 36, 0
4, 517165, Note_on_c, 9, 38, 0
4, 517363, Note_on_c, 9, 44, 78
4, 517415, Note_on_c, 9, 39, 45
4, 517749, Note_on_c, 9, 39, 0
4, 517789, Note_on_c, 9, 44, 0
4, 517865, Note_on_c, 9, 53, 50
4, 517872, Note_on_c, 9, 38, 37
4, 518046, Note_on_c, 9, 38, 0
4, 518147, Note_on_c, 9, 53, 0
4, 518305, Note_on_c, 9, 53, 45
4, 518392, Note_on_c, 9, 38, 26
4, 518651, Note_on_c, 9, 38, 0
4, 518685, Note_on_c, 9, 53, 0
4, 518864, Note_on_c, 9, 36, 27
4, 518906, Note_on_c, 9, 38, 27
4, 518908, Note_on_c, 9, 40, 27
4, 519006, Note_on_c, 9, 36, 0
4, 519166, Note_on_c, 9, 38, 0
4, 519266, Note_on_c, 9, 40, 0
4, 519331, Note_on_c, 9, 46, 60
4, 519367, Note_on_c, 9, 38, 21
4, 519598, Note_on_c, 9, 38, 0
4, 519709, Note_on_c, 9, 46, 0
4, 519799, Note_on_c, 9, 53, 56
4, 519895, Note_on_c, 9, 38, 31
4, 519918, Note_on_c, 9, 40, 25
4, 520108, Note_on_c, 9, 38, 0
4, 520231, Note_on_c, 9, 40, 0
4, 520561, Note_on_c, 9, 53, 0
4, 520785, Note_on_c, 9, 36, 22
4, 520830, Note_on_c, 9, 38, 25
4, 520943, Note_on_c, 9, 36, 0
4, 521036, Note_on_c, 9, 38, 0
4, 521237, Note_on_c, 9, 53, 58
4, 521249, Note_on_c, 9, 44, 77
4, 521376, Note_on_c, 9, 38, 26
4, 521389, Note_on_c, 9, 40, 23
4, 521648, Note_on_c, 9, 53, 0
4, 521650, Note_on_c, 9, 38, 0
4, 521714, Note_on_c, 9, 44, 0
4, 521762, Note_on_c, 9, 40, 0
4, 521772, Note_on_c, 9, 53, 47
4, 521886, Note_on_c, 9, 38, 22
4, 522041, Note_on_c, 9, 53, 0
4, 522105, Note_on_c, 9, 38, 0
4, 522332, Note_on_c, 9, 38, 25
4, 522526, Note_on_c, 9, 38, 0
4, 522753, Note_on_c, 9, 36, 33
4, 522831, Note_on_c, 9, 38, 28
4, 522864, Note_on_c, 9, 40, 25
4, 522909, Note_on_c, 9, 36, 0
4, 523073, Note_on_c, 9, 38, 0
4, 523202, Note_on_c, 9, 40, 0
4, 523223, Note_on_c, 9, 44, 86
4, 523319, Note_on_c, 9, 38, 17
4, 523513, Note_on_c, 9, 38, 0
4, 523663, Note_on_c, 9, 44, 0
4, 523725, Note_on_c, 9, 53, 49
4, 523797, Note_on_c, 9, 38, 28
4, 523837, Note_on_c, 9, 40, 29
4, 523996, Note_on_c, 9, 53, 0
4, 524140, Note_on_c, 9, 38, 0
4, 524180, Note_on_c, 9, 53, 37
4, 524217, Note_on_c, 9, 40, 0
4, 524616, Note_on_c, 9, 53, 0
4, 524664, Note_on_c, 9, 36, 21
4, 524730, Note_on_c, 9, 38, 24
4, 524898, Note_on_c, 9, 36, 0
4, 524901, Note_on_c, 9, 38, 0
4, 525128, Note_on_c, 9, 44, 68
4, 525163, Note_on_c, 9, 53, 19
4, 525200, Note_on_c, 9, 40, 21
4, 525219, Note_on_c, 9, 38, 22
4, 525363, Note_on_c, 9, 53, 0
4, 525442, Note_on_c, 9, 38, 0
4, 525529, Note_on_c, 9, 40, 0
4, 525642, Note_on_c, 9, 44, 0
4, 525642, Note_on_c, 9, 39, 37
4, 525681, Note_on_c, 9, 53, 43
4, 525903, Note_on_c, 9, 39, 0
4, 525989, Note_on_c, 9, 53, 0
4, 526105, Note_on_c, 9, 38, 27
4, 526156, Note_on_c, 9, 53, 31
4, 526322, Note_on_c, 9, 38, 0
4, 526615, Note_on_c, 9, 38, 27
4, 526674, Note_on_c, 9, 53, 0
4, 526859, Note_on_c, 9, 38, 0
4, 527051, Note_on_c, 9, 44, 78
4, 527470, Note_on_c, 9, 44, 0
4, 527633, Note_on_c, 9, 38, 22
4, 527640, Note_on_c, 9, 53, 38
4, 527683, Note_on_c, 9, 40, 14
4, 527831, Note_on_c, 9, 38, 0
4, 527861, Note_on_c, 9, 40, 0
4, 528105, Note_on_c, 9, 38, 22
4, 528291, Note_on_c, 9, 38, 0
4, 528487, Note_on_c, 9, 53, 0
4, 528570, Note_on_c, 9, 38, 29
4, 528636, Note_on_c, 9, 36, 20
4, 528782, Note_on_c, 9, 36, 0
4, 528789, Note_on_c, 9, 38, 0
4, 528956, Note_on_c, 9, 44, 76
4, 528988, Note_on_c, 9, 38, 21
4, 529055, Note_on_c, 9, 53, 35
4, 529169, Note_on_c, 9, 38, 0
4, 529334, Note_on_c, 9, 44, 0
4, 529397, Note_on_c, 9, 53, 0
4, 529505, Note_on_c, 9, 38, 24
4, 529522, Note_on_c, 9, 40, 21
4, 529527, Note_on_c, 9, 53, 35
4, 529703, Note_on_c, 9, 40, 0
4, 529703, Note_on_c, 9, 38, 0
4, 529704, Note_on_c, 9, 53, 0
4, 529981, Note_on_c, 9, 38, 22
4, 530115, Note_on_c, 9, 38, 0
4, 530443, Note_on_c, 9, 36, 25
4, 530478, Note_on_c, 9, 38, 25
4, 530499, Note_on_c, 9, 40, 18
4, 530562, Note_on_c, 9, 36, 0
4, 530661, Note_on_c, 9, 38, 0
4, 530709, Note_on_c, 9, 40, 0
4, 530855, Note_on_c, 9, 44, 84
4, 530968, Note_on_c, 9, 38, 17
4, 531122, Note_on_c, 9, 38, 0
4, 531218, Note_on_c, 9, 44, 0
4, 531388, Note_on_c, 9, 38, 22
4, 531409, Note_on_c, 9, 36, 22
4, 531518, Note_on_c, 9, 36, 0
4, 531577, Note_on_c, 9, 38, 0
4, 531859, Note_on_c, 9, 38, 19
4, 532139, Note_on_c, 9, 38, 0
4, 532348, Note_on_c, 9, 38, 20
4, 532365, Note_on_c, 9, 36, 20
4, 532389, Note_on_c, 9, 40, 20
4, 532551, Note_on_c, 9, 36, 0
4, 532571, Note_on_c, 9, 38, 0
4, 532684, Note_on_c, 9, 40, 0
4, 532723, Note_on_c, 9, 46, 55
4, 532813, Note_on_c, 9, 38, 18
4, 532995, Note_on_c, 9, 38, 0
4, 533094, Note_on_c, 9, 46, 0
4, 533235, Note_on_c, 9, 39, 27
4, 533262, Note_on_c, 9, 53, 28
4, 533498, Note_on_c, 9, 39, 0
4, 533563, Note_on_c, 9, 53, 0
4, 533710, Note_on_c, 9, 38, 18
4, 533722, Note_on_c, 9, 53, 27
4, 533879, Note_on_c, 9, 38, 0
4, 534047, Note_on_c, 9, 53, 0
4, 534226, Note_on_c, 9, 38, 17
4, 534414, Note_on_c, 9, 38, 0
4, 534658, Note_on_c, 9, 44, 71
4, 534716, Note_on_c, 9, 38, 17
4, 534727, Note_on_c, 9, 40, 18
4, 534914, Note_on_c, 9, 38, 0
4, 535021, Note_on_c, 9, 44, 0
4, 535071, Note_on_c, 9, 40, 0
4, 535170, Note_on_c, 9, 53, 28
4, 535230, Note_on_c, 9, 38, 17
4, 535474, Note_on_c, 9, 38, 0
4, 535741, Note_on_c, 9, 38, 15
4, 535873, Note_on_c, 9, 53, 0
4, 535916, Note_on_c, 9, 38, 0
4, 536240, Note_on_c, 9, 40, 20
4, 536258, Note_on_c, 9, 38, 19
4, 536538, Note_on_c, 9, 38, 0
4, 536588, Note_on_c, 9, 44, 80
4, 536597, Note_on_c, 9, 40, 0
4, 536639, Note_on_c, 9, 53, 26
4, 536738, Note_on_c, 9, 38, 16
4, 536922, Note_on_c, 9, 38, 0
4, 536946, Note_on_c, 9, 53, 0
4, 536987, Note_on_c, 9, 44, 0
4, 537154, Note_on_c, 9, 38, 16
4, 537331, Note_on_c, 9, 38, 0
4, 537625, Note_on_c, 9, 38, 16
4, 537673, Note_on_c, 9, 40, 14
4, 537828, Note_on_c, 9, 38, 0
4, 537938, Note_on_c, 9, 40, 0
4, 538081, Note_on_c, 9, 53, 23
4, 538128, Note_on_c, 9, 38, 17
4, 538306, Note_on_c, 9, 38, 0
4, 538311, Note_on_c, 9, 53, 0
4, 538508, Note_on_c, 9, 44, 67
4, 538571, Note_on_c, 9, 38, 16
4, 538750, Note_on_c, 9, 38, 0
4, 538898, Note_on_c, 9, 44, 0
4, 539004, Note_on_c, 9, 53, 15
4, 539093, Note_on_c, 9, 53, 0
4, 539095, Note_on_c, 9, 40, 16
4, 539097, Note_on_c, 9, 38, 14
4, 539262, Note_on_c, 9, 38, 0
4, 539354, Note_on_c, 9, 40, 0
4, 539446, Note_on_c, 9, 59, 24
4, 539467, Note_on_c, 9, 53, 24
4, 539558, Note_on_c, 9, 38, 14
4, 539744, Note_on_c, 9, 38, 0
4, 539843, Note_on_c, 9, 53, 0
4, 539984, Note_on_c, 9, 59, 0
4, 540098, Note_on_c, 9, 38, 12
4, 540207, Note_on_c, 9, 38, 0
4, 540389, Note_on_c, 9, 53, 13
4, 540451, Note_on_c, 9, 44, 76
4, 540481, Note_on_c, 9, 53, 0
4, 540547, Note_on_c, 9, 38, 17
4, 540576, Note_on_c, 9, 40, 14
4, 540745, Note_on_c, 9, 38, 0
4, 540829, Note_on_c, 9, 40, 0
4, 540866, Note_on_c, 9, 44, 0
4, 540986, Note_on_c, 9, 59, 26
4, 540990, Note_on_c, 9, 53, 28
4, 541027, Note_on_c, 9, 39, 25
4, 541207, Note_on_c, 9, 39, 0
4, 541488, Note_on_c, 9, 38, 12
4, 541763, Note_on_c, 9, 53, 0
4, 541799, Note_on_c, 9, 38, 0
4, 541938, Note_on_c, 9, 59, 0
4, 542035, Note_on_c, 9, 38, 13
4, 542229, Note_on_c, 9, 38, 0
4, 542396, Note_on_c, 9, 44, 61
4, 542457, Note_on_c, 9, 38, 11
4, 542511, Note_on_c, 9, 40, 9
4, 542647, Note_on_c, 9, 40, 0
4, 542670, Note_on_c, 9, 38, 0
4, 542742, Note_on_c, 9, 44, 0
4, 542935, Note_on_c, 9, 59, 17
4, 542938, Note_on_c, 9, 53, 17
4, 542968, Note_on_c, 9, 38, 12
4, 542985, Note_on_c, 9, 40, 13
4, 543113, Note_on_c, 9, 53, 0
4, 543159, Note_on_c, 9, 59, 0
4, 543200, Note_on_c, 9, 38, 0
4, 543227, Note_on_c, 9, 40, 0
4, 543400, Note_on_c, 9, 38, 11
4, 543567, Note_on_c, 9, 38, 0
4, 543817, Note_on_c, 9, 38, 13
4, 543916, Note_on_c, 9, 36, 12
4, 544006, Note_on_c, 9, 36, 0
4, 544097, Note_on_c, 9, 38, 0
4, 544308, Note_on_c, 9, 44, 78
4, 544364, Note_on_c, 9, 38, 11
4, 544371, Note_on_c, 9, 53, 10
4, 544398, Note_on_c, 9, 40, 11
4, 544496, Note_on_c, 9, 53, 0
4, 544544, Note_on_c, 9, 40, 0
4, 544560, Note_on_c, 9, 38, 0
4, 544719, Note_on_c, 9, 44, 0
4, 544820, Note_on_c, 9, 53, 13
4, 544842, Note_on_c, 9, 38, 11
4, 544867, Note_on_c, 9, 40, 12
4, 544966, Note_on_c, 9, 53, 0
4, 545032, Note_on_c, 9, 38, 0
4, 545051, Note_on_c, 9, 40, 0
4, 545288, Note_on_c, 9, 53, 15
4, 545326, Note_on_c, 9, 38, 13
4, 545514, Note_on_c, 9, 38, 0
4, 545515, Note_on_c, 9, 53, 0
4, 545833, Note_on_c, 9, 38, 11
4, 545856, Note_on_c, 9, 40, 12
4, 546036, Note_on_c, 9, 38, 0
4, 546144, Note_on_c, 9, 40, 0
4, 546190, Note_on_c, 9, 44, 78
4, 546543, Note_on_c, 9, 44, 0
4, 546753, Note_on_c, 9, 53, 14
4, 546758, Note_on_c, 9, 40, 12
4, 546777, Note_on_c, 9, 38, 9
4, 546842, Note_on_c, 9, 53, 0
4, 546939, Note_on_c, 9, 38, 0
4, 546952, Note_on_c, 9, 40, 0
4, 547205, Note_on_c, 9, 40, 11
4, 547226, Note_on_c, 9, 53, 10
4, 547308, Note_on_c, 9, 53, 0
4, 547528, Note_on_c, 9, 40, 0
4, 547628, Note_on_c, 9, 39, 15
4, 547683, Note_on_c, 9, 53, 10
4, 547767, Note_on_c, 9, 53, 0
4, 547847, Note_on_c, 9, 39, 0
4, 548083, Note_on_c, 9, 46, 59
4, 548102, Note_on_c, 9, 40, 10
4, 548146, Note_on_c, 9, 38, 8
4, 548168, Note_on_c, 9, 59, 14
4, 548170, Note_on_c, 9, 53, 14
4, 548388, Note_on_c, 9, 38, 0
4, 548390, Note_on_c, 9, 40, 0
4, 548509, Note_on_c, 9, 46, 0
4, 548560, Note_on_c, 9, 59, 0
4, 548601, Note_on_c, 9, 39, 11
4, 548656, Note_on_c, 9, 53, 0
4, 548822, Note_on_c, 9, 39, 0
4, 549062, Note_on_c, 9, 38, 8
4, 549099, Note_on_c, 9, 40, 8
4, 549289, Note_on_c, 9, 38, 0
4, 549431, Note_on_c, 9, 40, 0
4, 549563, Note_on_c, 9, 38, 10
4, 549624, Note_on_c, 9, 53, 10
4, 549751, Note_on_c, 9, 53, 0
4, 549763, Note_on_c, 9, 38, 0
4, 550001, Note_on_c, 9, 38, 8
4, 550064, Note_on_c, 9, 44, 81
4, 550327, Note_on_c, 9, 38, 0
4, 550420, Note_on_c, 9, 44, 0
4, 550562, Note_on_c, 9, 38, 8
4, 550564, Note_on_c, 9, 40, 9
4, 550592, Note_on_c, 9, 53, 10
4, 550697, Note_on_c, 9, 53, 0
4, 550796, Note_on_c, 9, 38, 0
4, 550888, Note_on_c, 9, 40, 0
4, 551020, Note_on_c, 9, 38, 7
4, 551353, Note_on_c, 9, 38, 0
4, 551562, Note_on_c, 9, 38, 8
4, 551577, Note_on_c, 9, 40, 9
4, 551596, Note_on_c, 9, 53, 8
4, 551726, Note_on_c, 9, 53, 0
4, 551785, Note_on_c, 9, 38, 0
4, 551900, Note_on_c, 9, 40, 0
4, 551956, Note_on_c, 9, 44, 80
4, 552326, Note_on_c, 9, 44, 0
4, 552506, Note_on_c, 9, 53, 8
4, 552526, Note_on_c, 9, 40, 8
4, 552560, Note_on_c, 9, 38, 7
4, 552722, Note_on_c, 9, 38, 0
4, 552727, Note_on_c, 9, 40, 0
4, 552746, Note_on_c, 9, 53, 0
4, 552983, Note_on_c, 9, 40, 8
4, 553002, Note_on_c, 9, 38, 7
4, 553259, Note_on_c, 9, 38, 0
4, 553411, Note_on_c, 9, 40, 0
4, 553479, Note_on_c, 9, 53, 7
4, 553509, Note_on_c, 9, 38, 6
4, 553627, Note_on_c, 9, 53, 0
4, 553701, Note_on_c, 9, 38, 0
4, 553899, Note_on_c, 9, 44, 74
4, 553998, Note_on_c, 9, 38, 7
4, 554018, Note_on_c, 9, 40, 7
4, 554183, Note_on_c, 9, 38, 0
4, 554186, Note_on_c, 9, 40, 0
4, 554250, Note_on_c, 9, 44, 0
4, 554494, Note_on_c, 9, 38, 7
4, 554499, Note_on_c, 9, 40, 7
4, 554501, Note_on_c, 9, 53, 6
4, 554625, Note_on_c, 9, 53, 0
4, 555068, Note_on_c, 9, 38, 0
4, 555131, Note_on_c, 9, 40, 0
4, 555471, Note_on_c, 9, 40, 6
4, 555475, Note_on_c, 9, 38, 6
4, 555659, Note_on_c, 9, 38, 0
4, 555822, Note_on_c, 9, 40, 0
4, 555853, Note_on_c, 9, 46, 45
4, 555874, Note_on_c, 9, 38, 6
4, 555929, Note_on_c, 9, 53, 6
4, 556066, Note_on_c, 9, 38, 0
4, 556107, Note_on_c, 9, 46, 0
4, 556318, Note_on_c, 9, 38, 6
4, 556575, Note_on_c, 9, 38, 0
4, 556823, Note_on_c, 9, 38, 6
4, 556834, Note_on_c, 9, 40, 6
4, 557222, Note_on_c, 9, 38, 0
4, 557429, Note_on_c, 9, 38, 6
4, 558066, Note_on_c, 9, 53, 0
4, 558631, Note_on_c, 9, 40, 0
4, 558770, Note_on_c, 9, 38, 0
4, 558770, End_track
0, 0, End_of_file
