0, 0, Header, 1, 2, 960
1, 0, Start_track
1, 0, Title_t, "I Fall in Love too Easily (reharmonised)"
1, 0, Text_t, "dougmck@pipeline.com.au. Improvised piano solo (the reharm ideas based on version by Dutch pianist Harry Happel). \012"
1, 0, Time_signature, 4, 2, 24, 8
1, 0, Key_signature, -3, "major"
1, 0, Tempo, 600000
1, 0, Marker_t, "Arpeggiated bass figure in LH"
1, 13491, Marker_t, "Figure in RH using G harmonic minor - with  a repeating tone (D) "
1, 456960, Marker_t, "LH &RH in unison down the G harmonic Minor scale"
1, 456960, End_track
2, 0, Start_track
2, 0, Title_t, "MIDI 1"
2, 0, Note_on_c, 0, 55, 46
2, 582, Note_on_c, 0, 62, 42
2, 715, Control_c, 0, 64, 127
2, 1166, Note_on_c, 0, 55, 0
2, 1198, Note_on_c, 0, 69, 34
2, 1202, Note_on_c, 0, 62, 0
2, 1829, Note_on_c, 0, 70, 44
2, 1901, Note_on_c, 0, 69, 0
2, 2437, Note_on_c, 0, 81, 20
2, 2446, Note_on_c, 0, 74, 33
2, 2832, Note_on_c, 0, 81, 0
2, 3011, Note_on_c, 0, 74, 0
2, 3086, Note_on_c, 0, 86, 34
2, 3115, Note_on_c, 0, 93, 45
2, 3597, Note_on_c, 0, 93, 0
2, 3746, Note_on_c, 0, 90, 26
2, 3773, Note_on_c, 0, 74, 40
2, 3795, Note_on_c, 0, 81, 29
2, 4040, Note_on_c, 0, 86, 0
2, 4277, Note_on_c, 0, 81, 0
2, 4307, Note_on_c, 0, 70, 0
2, 4486, Note_on_c, 0, 90, 0
2, 4634, Note_on_c, 0, 86, 36
2, 4645, Note_on_c, 0, 93, 35
2, 4694, Note_on_c, 0, 70, 33
2, 5150, Note_on_c, 0, 74, 0
2, 5288, Note_on_c, 0, 93, 0
2, 5296, Note_on_c, 0, 86, 0
2, 5384, Note_on_c, 0, 70, 0
2, 6608, Note_on_c, 0, 55, 74
2, 6826, Control_c, 0, 64, 0
2, 6971, Control_c, 0, 64, 127
2, 7283, Note_on_c, 0, 63, 80
2, 7373, Control_c, 0, 64, 0
2, 7709, Control_c, 0, 64, 127
2, 7882, Note_on_c, 0, 69, 74
2, 7965, Control_c, 0, 64, 0
2, 8062, Control_c, 0, 64, 127
2, 8630, Note_on_c, 0, 70, 65
2, 8989, Note_on_c, 0, 70, 0
2, 12115, Note_on_c, 0, 55, 0
2, 13181, Note_on_c, 0, 63, 0
2, 13408, Note_on_c, 0, 69, 0
2, 13734, Note_on_c, 0, 55, 25
2, 13755, Control_c, 0, 64, 0
2, 14134, Note_on_c, 0, 86, 60
2, 14141, Control_c, 0, 64, 127
2, 14410, Note_on_c, 0, 86, 0
2, 14526, Note_on_c, 0, 85, 53
2, 14544, Note_on_c, 0, 62, 47
2, 14802, Note_on_c, 0, 85, 0
2, 14912, Note_on_c, 0, 86, 59
2, 15163, Note_on_c, 0, 86, 0
2, 15310, Control_c, 0, 64, 0
2, 15317, Note_on_c, 0, 84, 56
2, 15326, Note_on_c, 0, 69, 47
2, 15632, Control_c, 0, 64, 127
2, 15650, Note_on_c, 0, 84, 0
2, 15694, Note_on_c, 0, 86, 60
2, 15760, Note_on_c, 0, 62, 0
2, 15962, Note_on_c, 0, 86, 0
2, 16040, Note_on_c, 0, 69, 0
2, 16059, Note_on_c, 0, 62, 40
2, 16070, Note_on_c, 0, 82, 43
2, 16115, Note_on_c, 0, 55, 0
2, 16427, Note_on_c, 0, 82, 0
2, 16446, Note_on_c, 0, 86, 55
2, 16835, Note_on_c, 0, 81, 40
2, 16867, Note_on_c, 0, 70, 30
2, 16882, Control_c, 0, 64, 0
2, 17203, Control_c, 0, 64, 127
2, 17227, Note_on_c, 0, 82, 47
2, 17258, Note_on_c, 0, 81, 0
2, 17555, Note_on_c, 0, 86, 0
2, 17635, Note_on_c, 0, 79, 33
2, 19112, Note_on_c, 0, 62, 0
2, 19467, Note_on_c, 0, 70, 0
2, 20715, Control_c, 0, 64, 0
2, 20762, Note_on_c, 0, 55, 39
2, 21069, Control_c, 0, 64, 127
2, 21466, Note_on_c, 0, 63, 47
2, 21470, Note_on_c, 0, 79, 0
2, 21507, Note_on_c, 0, 82, 0
2, 22130, Note_on_c, 0, 69, 49
2, 22266, Note_on_c, 0, 63, 0
2, 22736, Note_on_c, 0, 55, 0
2, 22760, Note_on_c, 0, 63, 48
2, 22861, Note_on_c, 0, 69, 0
2, 23626, Note_on_c, 0, 70, 74
2, 23680, Note_on_c, 0, 86, 91
2, 24173, Note_on_c, 0, 85, 84
2, 24286, Note_on_c, 0, 86, 0
2, 24542, Note_on_c, 0, 70, 0
2, 24603, Note_on_c, 0, 85, 0
2, 24675, Note_on_c, 0, 86, 81
2, 24701, Note_on_c, 0, 70, 36
2, 24747, Note_on_c, 0, 85, 33
2, 24818, Note_on_c, 0, 85, 0
2, 25107, Note_on_c, 0, 84, 72
2, 25198, Note_on_c, 0, 63, 0
2, 25477, Note_on_c, 0, 86, 0
2, 25491, Note_on_c, 0, 84, 0
2, 25581, Note_on_c, 0, 86, 56
2, 25598, Note_on_c, 0, 82, 58
2, 26046, Note_on_c, 0, 81, 58
2, 26379, Note_on_c, 0, 86, 0
2, 26461, Note_on_c, 0, 81, 0
2, 26514, Note_on_c, 0, 82, 0
2, 26523, Note_on_c, 0, 86, 13
2, 26547, Note_on_c, 0, 63, 39
2, 26565, Note_on_c, 0, 79, 40
2, 26638, Note_on_c, 0, 70, 0
2, 26667, Note_on_c, 0, 86, 0
2, 26970, Note_on_c, 0, 79, 0
2, 27034, Note_on_c, 0, 78, 44
2, 27474, Note_on_c, 0, 78, 0
2, 27510, Note_on_c, 0, 81, 51
2, 27517, Note_on_c, 0, 55, 38
2, 27568, Note_on_c, 0, 63, 0
2, 27595, Control_c, 0, 64, 0
2, 27947, Control_c, 0, 64, 127
2, 27978, Note_on_c, 0, 78, 35
2, 28014, Note_on_c, 0, 62, 32
2, 28294, Note_on_c, 0, 81, 0
2, 28429, Control_c, 0, 64, 0
2, 28496, Note_on_c, 0, 79, 40
2, 28552, Note_on_c, 0, 78, 0
2, 28557, Note_on_c, 0, 69, 18
2, 28592, Note_on_c, 0, 62, 0
2, 28638, Control_c, 0, 64, 127
2, 29072, Note_on_c, 0, 69, 0
2, 29434, Note_on_c, 0, 74, 38
2, 29717, Note_on_c, 0, 55, 0
2, 30285, Note_on_c, 0, 70, 31
2, 30512, Note_on_c, 0, 70, 0
2, 31850, Note_on_c, 0, 69, 43
2, 32659, Note_on_c, 0, 69, 0
2, 33854, Note_on_c, 0, 55, 36
2, 33946, Control_c, 0, 64, 0
2, 34346, Control_c, 0, 64, 127
2, 34643, Note_on_c, 0, 62, 44
2, 35109, Note_on_c, 0, 69, 55
2, 35158, Note_on_c, 0, 79, 0
2, 35302, Note_on_c, 0, 62, 0
2, 35397, Note_on_c, 0, 74, 0
2, 35475, Note_on_c, 0, 55, 0
2, 35496, Note_on_c, 0, 62, 26
2, 35584, Note_on_c, 0, 69, 0
2, 35973, Note_on_c, 0, 70, 64
2, 36256, Note_on_c, 0, 62, 0
2, 36416, Note_on_c, 0, 62, 37
2, 36634, Note_on_c, 0, 70, 0
2, 37029, Note_on_c, 0, 74, 43
2, 37034, Note_on_c, 0, 70, 37
2, 37248, Note_on_c, 0, 62, 0
2, 37579, Note_on_c, 0, 70, 0
2, 37594, Note_on_c, 0, 74, 0
2, 37638, Note_on_c, 0, 62, 31
2, 38328, Note_on_c, 0, 55, 37
2, 38330, Note_on_c, 0, 62, 0
2, 38350, Note_on_c, 0, 79, 51
2, 38421, Control_c, 0, 64, 0
2, 38742, Control_c, 0, 64, 127
2, 38883, Note_on_c, 0, 62, 36
2, 39254, Note_on_c, 0, 55, 0
2, 39406, Note_on_c, 0, 69, 38
2, 39701, Note_on_c, 0, 62, 0
2, 39856, Note_on_c, 0, 62, 36
2, 39870, Note_on_c, 0, 69, 0
2, 40464, Note_on_c, 0, 70, 42
2, 40845, Note_on_c, 0, 62, 0
2, 41096, Note_on_c, 0, 62, 19
2, 41406, Note_on_c, 0, 70, 0
2, 41504, Note_on_c, 0, 79, 0
2, 41690, Note_on_c, 0, 78, 77
2, 41698, Note_on_c, 0, 70, 45
2, 41821, Note_on_c, 0, 62, 0
2, 42190, Note_on_c, 0, 70, 0
2, 42192, Note_on_c, 0, 78, 0
2, 42230, Note_on_c, 0, 62, 31
2, 42261, Note_on_c, 0, 79, 74
2, 42808, Note_on_c, 0, 79, 0
2, 42880, Note_on_c, 0, 62, 0
2, 42922, Note_on_c, 0, 78, 69
2, 42941, Note_on_c, 0, 55, 33
2, 43040, Control_c, 0, 64, 0
2, 43474, Control_c, 0, 64, 127
2, 43536, Note_on_c, 0, 63, 55
2, 44051, Note_on_c, 0, 69, 61
2, 44366, Note_on_c, 0, 63, 0
2, 44483, Note_on_c, 0, 63, 60
2, 44554, Note_on_c, 0, 69, 0
2, 45008, Note_on_c, 0, 70, 82
2, 45021, Note_on_c, 0, 69, 55
2, 45142, Note_on_c, 0, 63, 0
2, 45662, Note_on_c, 0, 63, 46
2, 45760, Note_on_c, 0, 78, 0
2, 45784, Note_on_c, 0, 69, 0
2, 46259, Note_on_c, 0, 70, 0
2, 46293, Note_on_c, 0, 63, 0
2, 46296, Note_on_c, 0, 75, 76
2, 46883, Note_on_c, 0, 63, 37
2, 47178, Note_on_c, 0, 55, 0
2, 47528, Note_on_c, 0, 63, 0
2, 47531, Note_on_c, 0, 75, 0
2, 47546, Note_on_c, 0, 74, 62
2, 47549, Note_on_c, 0, 55, 44
2, 47642, Control_c, 0, 64, 0
2, 48010, Control_c, 0, 64, 127
2, 48096, Note_on_c, 0, 62, 40
2, 48122, Note_on_c, 0, 75, 64
2, 48166, Note_on_c, 0, 74, 0
2, 48494, Note_on_c, 0, 55, 0
2, 48662, Note_on_c, 0, 74, 60
2, 48664, Note_on_c, 0, 69, 43
2, 48802, Note_on_c, 0, 62, 0
2, 49024, Note_on_c, 0, 75, 0
2, 49077, Note_on_c, 0, 74, 0
2, 49162, Note_on_c, 0, 62, 24
2, 49178, Note_on_c, 0, 69, 0
2, 49760, Note_on_c, 0, 86, 62
2, 49813, Note_on_c, 0, 69, 45
2, 49901, Note_on_c, 0, 62, 0
2, 50421, Note_on_c, 0, 69, 0
2, 50462, Note_on_c, 0, 62, 24
2, 51051, Note_on_c, 0, 86, 0
2, 51051, Note_on_c, 0, 74, 43
2, 51075, Note_on_c, 0, 69, 29
2, 51114, Note_on_c, 0, 62, 0
2, 51226, Note_on_c, 0, 74, 0
2, 51672, Note_on_c, 0, 62, 22
2, 52259, Note_on_c, 0, 62, 0
2, 52320, Note_on_c, 0, 55, 19
2, 52326, Control_c, 0, 64, 0
2, 52613, Control_c, 0, 64, 127
2, 52774, Note_on_c, 0, 69, 0
2, 52883, Note_on_c, 0, 62, 33
2, 53483, Note_on_c, 0, 98, 70
2, 53534, Note_on_c, 0, 69, 37
2, 53552, Note_on_c, 0, 62, 0
2, 53552, Note_on_c, 0, 86, 66
2, 53936, Note_on_c, 0, 98, 0
2, 54006, Note_on_c, 0, 86, 0
2, 54142, Note_on_c, 0, 62, 36
2, 54157, Note_on_c, 0, 69, 0
2, 54160, Note_on_c, 0, 55, 0
2, 54784, Note_on_c, 0, 70, 45
2, 55078, Note_on_c, 0, 62, 0
2, 55445, Note_on_c, 0, 62, 31
2, 55608, Note_on_c, 0, 70, 0
2, 56446, Note_on_c, 0, 62, 0
2, 56984, Note_on_c, 0, 62, 34
2, 57725, Note_on_c, 0, 62, 0
2, 57736, Note_on_c, 0, 55, 42
2, 57778, Control_c, 0, 64, 0
2, 58051, Control_c, 0, 64, 127
2, 58317, Note_on_c, 0, 63, 53
2, 58944, Note_on_c, 0, 75, 87
2, 59334, Note_on_c, 0, 63, 0
2, 59578, Note_on_c, 0, 63, 46
2, 59766, Note_on_c, 0, 55, 0
2, 60218, Note_on_c, 0, 70, 51
2, 60528, Note_on_c, 0, 63, 0
2, 60837, Note_on_c, 0, 63, 38
2, 60982, Note_on_c, 0, 70, 0
2, 61515, Note_on_c, 0, 74, 79
2, 61525, Note_on_c, 0, 69, 49
2, 61589, Note_on_c, 0, 75, 0
2, 61749, Note_on_c, 0, 63, 0
2, 62107, Note_on_c, 0, 63, 52
2, 62142, Note_on_c, 0, 75, 81
2, 62187, Note_on_c, 0, 69, 0
2, 62219, Note_on_c, 0, 74, 0
2, 62800, Note_on_c, 0, 74, 85
2, 62810, Note_on_c, 0, 55, 60
2, 62819, Note_on_c, 0, 63, 0
2, 62926, Control_c, 0, 64, 0
2, 63294, Control_c, 0, 64, 127
2, 63480, Note_on_c, 0, 62, 48
2, 64029, Note_on_c, 0, 75, 0
2, 64066, Note_on_c, 0, 55, 0
2, 64248, Note_on_c, 0, 69, 66
2, 64715, Note_on_c, 0, 62, 0
2, 64896, Note_on_c, 0, 62, 42
2, 65046, Note_on_c, 0, 69, 0
2, 65838, Note_on_c, 0, 74, 0
2, 66637, Note_on_c, 0, 62, 0
2, 66771, Note_on_c, 0, 66, 34
2, 66800, Note_on_c, 0, 69, 44
2, 66802, Note_on_c, 0, 62, 33
2, 67392, Note_on_c, 0, 62, 0
2, 67451, Note_on_c, 0, 69, 0
2, 67475, Note_on_c, 0, 66, 0
2, 67626, Note_on_c, 0, 62, 24
2, 67651, Note_on_c, 0, 66, 32
2, 67674, Note_on_c, 0, 69, 37
2, 68205, Note_on_c, 0, 66, 0
2, 68354, Note_on_c, 0, 72, 64
2, 68440, Note_on_c, 0, 69, 0
2, 69032, Note_on_c, 0, 70, 52
2, 69043, Note_on_c, 0, 62, 0
2, 69066, Note_on_c, 0, 55, 30
2, 69069, Note_on_c, 0, 72, 0
2, 69133, Control_c, 0, 64, 0
2, 69437, Control_c, 0, 64, 127
2, 69550, Note_on_c, 0, 62, 45
2, 69640, Note_on_c, 0, 70, 0
2, 69994, Note_on_c, 0, 69, 57
2, 70080, Note_on_c, 0, 62, 0
2, 70400, Note_on_c, 0, 69, 0
2, 70422, Note_on_c, 0, 62, 36
2, 70445, Note_on_c, 0, 55, 0
2, 70907, Note_on_c, 0, 74, 51
2, 70938, Note_on_c, 0, 70, 33
2, 71040, Note_on_c, 0, 62, 0
2, 71082, Note_on_c, 0, 74, 0
2, 71437, Note_on_c, 0, 81, 59
2, 71443, Note_on_c, 0, 70, 0
2, 71445, Note_on_c, 0, 62, 43
2, 71670, Note_on_c, 0, 81, 0
2, 71966, Note_on_c, 0, 70, 46
2, 71987, Note_on_c, 0, 86, 82
2, 72034, Note_on_c, 0, 62, 0
2, 72490, Note_on_c, 0, 70, 0
2, 72498, Note_on_c, 0, 81, 42
2, 72504, Note_on_c, 0, 62, 36
2, 72950, Note_on_c, 0, 86, 0
2, 73080, Note_on_c, 0, 55, 44
2, 73094, Note_on_c, 0, 82, 59
2, 73157, Control_c, 0, 64, 0
2, 73254, Note_on_c, 0, 62, 0
2, 73478, Control_c, 0, 64, 127
2, 73597, Note_on_c, 0, 81, 0
2, 73632, Note_on_c, 0, 62, 24
2, 74094, Note_on_c, 0, 82, 0
2, 74142, Note_on_c, 0, 62, 0
2, 74162, Note_on_c, 0, 84, 51
2, 74706, Note_on_c, 0, 62, 31
2, 74746, Note_on_c, 0, 84, 0
2, 75571, Note_on_c, 0, 62, 0
2, 75963, Note_on_c, 0, 62, 37
2, 76666, Note_on_c, 0, 96, 44
2, 76704, Note_on_c, 0, 86, 29
2, 76726, Note_on_c, 0, 62, 0
2, 76731, Note_on_c, 0, 69, 24
2, 77558, Note_on_c, 0, 96, 0
2, 77563, Note_on_c, 0, 62, 30
2, 77794, Note_on_c, 0, 86, 0
2, 78027, Note_on_c, 0, 55, 0
2, 78304, Note_on_c, 0, 69, 0
2, 80067, Note_on_c, 0, 84, 62
2, 80102, Note_on_c, 0, 62, 0
2, 80112, Note_on_c, 0, 76, 63
2, 80149, Note_on_c, 0, 73, 32
2, 80163, Note_on_c, 0, 55, 24
2, 80182, Control_c, 0, 64, 0
2, 80550, Control_c, 0, 64, 127
2, 80832, Note_on_c, 0, 64, 49
2, 81470, Note_on_c, 0, 64, 0
2, 81485, Note_on_c, 0, 67, 36
2, 82005, Note_on_c, 0, 67, 0
2, 82117, Note_on_c, 0, 64, 50
2, 82158, Note_on_c, 0, 55, 0
2, 82323, Note_on_c, 0, 73, 0
2, 82504, Note_on_c, 0, 76, 0
2, 82778, Note_on_c, 0, 73, 38
2, 82779, Note_on_c, 0, 84, 0
2, 82784, Note_on_c, 0, 76, 44
2, 82827, Note_on_c, 0, 70, 35
2, 83064, Note_on_c, 0, 64, 0
2, 83514, Note_on_c, 0, 70, 0
2, 83618, Note_on_c, 0, 64, 58
2, 84245, Note_on_c, 0, 73, 0
2, 84373, Note_on_c, 0, 82, 71
2, 84435, Note_on_c, 0, 73, 18
2, 84850, Note_on_c, 0, 64, 0
2, 84869, Note_on_c, 0, 82, 0
2, 84960, Note_on_c, 0, 73, 0
2, 85037, Note_on_c, 0, 84, 67
2, 85038, Note_on_c, 0, 64, 28
2, 85398, Note_on_c, 0, 84, 0
2, 85821, Note_on_c, 0, 82, 61
2, 85827, Note_on_c, 0, 55, 43
2, 85870, Note_on_c, 0, 64, 0
2, 85955, Control_c, 0, 64, 0
2, 86307, Note_on_c, 0, 76, 0
2, 86325, Control_c, 0, 64, 127
2, 86392, Note_on_c, 0, 63, 60
2, 86906, Note_on_c, 0, 75, 53
2, 86920, Note_on_c, 0, 72, 53
2, 87165, Note_on_c, 0, 63, 0
2, 87454, Note_on_c, 0, 63, 54
2, 87621, Note_on_c, 0, 72, 0
2, 87688, Note_on_c, 0, 55, 0
2, 87741, Note_on_c, 0, 75, 0
2, 88006, Note_on_c, 0, 69, 60
2, 88520, Note_on_c, 0, 63, 0
2, 88602, Note_on_c, 0, 63, 26
2, 88757, Note_on_c, 0, 69, 0
2, 89352, Note_on_c, 0, 72, 42
2, 89374, Note_on_c, 0, 70, 25
2, 89440, Note_on_c, 0, 82, 0
2, 89536, Note_on_c, 0, 70, 0
2, 89808, Note_on_c, 0, 72, 0
2, 91061, Note_on_c, 0, 69, 46
2, 91955, Note_on_c, 0, 69, 0
2, 91963, Note_on_c, 0, 67, 41
2, 91966, Note_on_c, 0, 63, 0
2, 91997, Note_on_c, 0, 55, 27
2, 92034, Control_c, 0, 64, 0
2, 92323, Control_c, 0, 64, 127
2, 92525, Note_on_c, 0, 67, 0
2, 92530, Note_on_c, 0, 62, 40
2, 92882, Note_on_c, 0, 55, 0
2, 93070, Note_on_c, 0, 69, 68
2, 93216, Note_on_c, 0, 62, 0
2, 93565, Note_on_c, 0, 62, 30
2, 93686, Note_on_c, 0, 69, 0
2, 94125, Note_on_c, 0, 70, 62
2, 94154, Note_on_c, 0, 69, 43
2, 94368, Note_on_c, 0, 62, 0
2, 94458, Note_on_c, 0, 69, 0
2, 94717, Note_on_c, 0, 62, 9
2, 95126, Note_on_c, 0, 70, 0
2, 95165, Note_on_c, 0, 74, 73
2, 95168, Note_on_c, 0, 69, 52
2, 95221, Note_on_c, 0, 62, 0
2, 95475, Note_on_c, 0, 69, 0
2, 95643, Note_on_c, 0, 62, 51
2, 96157, Note_on_c, 0, 74, 0
2, 96200, Note_on_c, 0, 53, 48
2, 96242, Note_on_c, 0, 74, 88
2, 96299, Control_c, 0, 64, 0
2, 96307, Note_on_c, 0, 62, 0
2, 96619, Control_c, 0, 64, 127
2, 96755, Note_on_c, 0, 62, 60
2, 97059, Note_on_c, 0, 53, 0
2, 97258, Note_on_c, 0, 69, 84
2, 97578, Note_on_c, 0, 62, 0
2, 97771, Note_on_c, 0, 62, 58
2, 97848, Note_on_c, 0, 69, 0
2, 98347, Note_on_c, 0, 70, 88
2, 98883, Note_on_c, 0, 70, 0
2, 99018, Note_on_c, 0, 70, 55
2, 99515, Note_on_c, 0, 62, 0
2, 99517, Note_on_c, 0, 70, 0
2, 99851, Note_on_c, 0, 62, 14
2, 99976, Note_on_c, 0, 62, 0
2, 100275, Note_on_c, 0, 62, 55
2, 100954, Note_on_c, 0, 62, 0
2, 101058, Note_on_c, 0, 52, 69
2, 101142, Control_c, 0, 64, 0
2, 101560, Control_c, 0, 64, 127
2, 101810, Note_on_c, 0, 58, 43
2, 102235, Note_on_c, 0, 52, 0
2, 102562, Note_on_c, 0, 67, 24
2, 102909, Note_on_c, 0, 58, 0
2, 103192, Note_on_c, 0, 58, 47
2, 103198, Note_on_c, 0, 67, 0
2, 103925, Note_on_c, 0, 73, 53
2, 103930, Note_on_c, 0, 67, 40
2, 103984, Note_on_c, 0, 74, 0
2, 104283, Note_on_c, 0, 67, 0
2, 104693, Note_on_c, 0, 67, 36
2, 105306, Note_on_c, 0, 58, 0
2, 105310, Note_on_c, 0, 73, 0
2, 105354, Note_on_c, 0, 74, 52
2, 106010, Note_on_c, 0, 58, 39
2, 106038, Note_on_c, 0, 76, 50
2, 106085, Note_on_c, 0, 74, 0
2, 106267, Note_on_c, 0, 58, 0
2, 106325, Note_on_c, 0, 76, 0
2, 106722, Note_on_c, 0, 67, 0
2, 106955, Note_on_c, 0, 81, 54
2, 107021, Note_on_c, 0, 57, 16
2, 107045, Control_c, 0, 64, 0
2, 107413, Control_c, 0, 64, 127
2, 107730, Note_on_c, 0, 64, 30
2, 108354, Note_on_c, 0, 69, 57
2, 108434, Note_on_c, 0, 64, 0
2, 108854, Note_on_c, 0, 64, 49
2, 108920, Note_on_c, 0, 69, 0
2, 109450, Note_on_c, 0, 70, 56
2, 109536, Note_on_c, 0, 64, 0
2, 110133, Note_on_c, 0, 64, 30
2, 110650, Note_on_c, 0, 70, 0
2, 110806, Note_on_c, 0, 81, 0
2, 110827, Note_on_c, 0, 79, 50
2, 110851, Note_on_c, 0, 69, 43
2, 111477, Note_on_c, 0, 57, 0
2, 111658, Note_on_c, 0, 57, 37
2, 112184, Note_on_c, 0, 57, 0
2, 112474, Note_on_c, 0, 69, 0
2, 112510, Note_on_c, 0, 81, 60
2, 112512, Note_on_c, 0, 57, 53
2, 112517, Note_on_c, 0, 64, 0
2, 112610, Control_c, 0, 64, 0
2, 112915, Control_c, 0, 64, 127
2, 113456, Note_on_c, 0, 63, 68
2, 113669, Control_c, 0, 64, 0
2, 113781, Control_c, 0, 64, 127
2, 114074, Note_on_c, 0, 69, 71
2, 114101, Control_c, 0, 64, 0
2, 114262, Control_c, 0, 64, 127
2, 114360, Note_on_c, 0, 63, 0
2, 114533, Note_on_c, 0, 63, 68
2, 114686, Note_on_c, 0, 69, 0
2, 115088, Note_on_c, 0, 70, 75
2, 115368, Note_on_c, 0, 63, 0
2, 115672, Note_on_c, 0, 70, 0
2, 115678, Note_on_c, 0, 63, 47
2, 115680, Note_on_c, 0, 79, 0
2, 115982, Note_on_c, 0, 81, 0
2, 116237, Note_on_c, 0, 72, 50
2, 116272, Note_on_c, 0, 69, 38
2, 116634, Note_on_c, 0, 57, 0
2, 116802, Note_on_c, 0, 69, 0
2, 116965, Note_on_c, 0, 72, 0
2, 118765, Note_on_c, 0, 63, 0
2, 119011, Note_on_c, 0, 66, 31
2, 119026, Note_on_c, 0, 69, 49
2, 119045, Note_on_c, 0, 57, 35
2, 119106, Control_c, 0, 64, 0
2, 119490, Control_c, 0, 64, 127
2, 119739, Note_on_c, 0, 62, 39
2, 119882, Note_on_c, 0, 66, 0
2, 120195, Note_on_c, 0, 69, 0
2, 120352, Note_on_c, 0, 66, 44
2, 120451, Note_on_c, 0, 62, 0
2, 121010, Note_on_c, 0, 62, 33
2, 121014, Note_on_c, 0, 66, 0
2, 121702, Note_on_c, 0, 69, 34
2, 122445, Note_on_c, 0, 70, 33
2, 122542, Note_on_c, 0, 69, 0
2, 122920, Note_on_c, 0, 62, 0
2, 123352, Note_on_c, 0, 69, 11
2, 123434, Note_on_c, 0, 70, 0
2, 123883, Note_on_c, 0, 69, 0
2, 124458, Note_on_c, 0, 84, 61
2, 124944, Note_on_c, 0, 57, 0
2, 124955, Note_on_c, 0, 84, 0
2, 125530, Note_on_c, 0, 82, 52
2, 125542, Note_on_c, 0, 55, 39
2, 125616, Control_c, 0, 64, 0
2, 125970, Control_c, 0, 64, 127
2, 126360, Note_on_c, 0, 63, 30
2, 126915, Note_on_c, 0, 55, 0
2, 127104, Note_on_c, 0, 69, 54
2, 127410, Note_on_c, 0, 63, 0
2, 127677, Note_on_c, 0, 63, 42
2, 127805, Note_on_c, 0, 69, 0
2, 128270, Note_on_c, 0, 70, 65
2, 128666, Note_on_c, 0, 70, 0
2, 128723, Note_on_c, 0, 63, 0
2, 128811, Note_on_c, 0, 63, 32
2, 128877, Note_on_c, 0, 70, 37
2, 128922, Note_on_c, 0, 82, 0
2, 129030, Note_on_c, 0, 70, 0
2, 129365, Note_on_c, 0, 81, 72
2, 129379, Note_on_c, 0, 70, 61
2, 129459, Note_on_c, 0, 63, 0
2, 129642, Note_on_c, 0, 81, 0
2, 129717, Note_on_c, 0, 70, 0
2, 129819, Note_on_c, 0, 63, 52
2, 129837, Note_on_c, 0, 82, 76
2, 130226, Note_on_c, 0, 82, 0
2, 130317, Note_on_c, 0, 63, 0
2, 130328, Note_on_c, 0, 55, 60
2, 130350, Note_on_c, 0, 81, 79
2, 130381, Control_c, 0, 64, 0
2, 130683, Control_c, 0, 64, 127
2, 130811, Note_on_c, 0, 63, 64
2, 131206, Note_on_c, 0, 55, 0
2, 131291, Note_on_c, 0, 69, 84
2, 131678, Note_on_c, 0, 63, 0
2, 131782, Note_on_c, 0, 63, 67
2, 131971, Note_on_c, 0, 69, 0
2, 132384, Note_on_c, 0, 70, 80
2, 132747, Note_on_c, 0, 63, 0
2, 133013, Note_on_c, 0, 63, 56
2, 133245, Note_on_c, 0, 70, 0
2, 133563, Note_on_c, 0, 81, 0
2, 133581, Note_on_c, 0, 70, 55
2, 133610, Note_on_c, 0, 79, 67
2, 133624, Note_on_c, 0, 63, 0
2, 134067, Note_on_c, 0, 70, 0
2, 134120, Note_on_c, 0, 63, 48
2, 134234, Note_on_c, 0, 79, 0
2, 134742, Note_on_c, 0, 63, 0
2, 134768, Note_on_c, 0, 54, 44
2, 134774, Note_on_c, 0, 78, 49
2, 134811, Note_on_c, 0, 69, 35
2, 134854, Control_c, 0, 64, 0
2, 135254, Control_c, 0, 64, 127
2, 135378, Note_on_c, 0, 62, 46
2, 135408, Note_on_c, 0, 69, 0
2, 135542, Note_on_c, 0, 54, 0
2, 136275, Note_on_c, 0, 62, 0
2, 136651, Note_on_c, 0, 62, 32
2, 137245, Note_on_c, 0, 69, 31
2, 137619, Note_on_c, 0, 69, 0
2, 137874, Note_on_c, 0, 69, 33
2, 138163, Note_on_c, 0, 69, 0
2, 138496, Note_on_c, 0, 69, 30
2, 138510, Note_on_c, 0, 62, 0
2, 138528, Note_on_c, 0, 74, 48
2, 139000, Note_on_c, 0, 74, 0
2, 139062, Note_on_c, 0, 62, 34
2, 139075, Note_on_c, 0, 78, 0
2, 139277, Note_on_c, 0, 69, 0
2, 139715, Note_on_c, 0, 74, 44
2, 139731, Note_on_c, 0, 66, 23
2, 139755, Note_on_c, 0, 54, 31
2, 139794, Control_c, 0, 64, 0
2, 139824, Note_on_c, 0, 62, 0
2, 140082, Control_c, 0, 64, 127
2, 140194, Note_on_c, 0, 66, 0
2, 140312, Note_on_c, 0, 62, 33
2, 140363, Note_on_c, 0, 74, 0
2, 140597, Note_on_c, 0, 54, 0
2, 140877, Note_on_c, 0, 69, 53
2, 141211, Note_on_c, 0, 62, 0
2, 141382, Note_on_c, 0, 62, 40
2, 141798, Note_on_c, 0, 62, 0
2, 142614, Note_on_c, 0, 69, 0
2, 142643, Note_on_c, 0, 62, 57
2, 142648, Note_on_c, 0, 74, 95
2, 143350, Note_on_c, 0, 73, 71
2, 143358, Note_on_c, 0, 74, 0
2, 143366, Note_on_c, 0, 69, 44
2, 143576, Note_on_c, 0, 62, 0
2, 143850, Note_on_c, 0, 69, 0
2, 143984, Note_on_c, 0, 74, 78
2, 144000, Note_on_c, 0, 62, 38
2, 144085, Note_on_c, 0, 73, 0
2, 144152, Note_on_c, 0, 74, 0
2, 144234, Note_on_c, 0, 62, 0
2, 144758, Note_on_c, 0, 80, 50
2, 144778, Note_on_c, 0, 68, 46
2, 144781, Note_on_c, 0, 73, 50
2, 144787, Note_on_c, 0, 53, 38
2, 144813, Control_c, 0, 64, 0
2, 145198, Control_c, 0, 64, 127
2, 145414, Note_on_c, 0, 61, 54
2, 145442, Note_on_c, 0, 68, 0
2, 145755, Note_on_c, 0, 53, 0
2, 145989, Note_on_c, 0, 67, 69
2, 146342, Note_on_c, 0, 61, 0
2, 146595, Note_on_c, 0, 61, 42
2, 146755, Note_on_c, 0, 67, 0
2, 146843, Note_on_c, 0, 73, 0
2, 147246, Note_on_c, 0, 68, 35
2, 147266, Note_on_c, 0, 73, 28
2, 147389, Note_on_c, 0, 61, 0
2, 147832, Note_on_c, 0, 61, 38
2, 148136, Note_on_c, 0, 68, 0
2, 148248, Note_on_c, 0, 80, 0
2, 148254, Note_on_c, 0, 73, 0
2, 148290, Note_on_c, 0, 61, 0
2, 148432, Note_on_c, 0, 73, 49
2, 148437, Note_on_c, 0, 79, 58
2, 148438, Note_on_c, 0, 68, 46
2, 148667, Note_on_c, 0, 79, 0
2, 148806, Note_on_c, 0, 68, 0
2, 148946, Note_on_c, 0, 80, 65
2, 148950, Note_on_c, 0, 61, 39
2, 149293, Note_on_c, 0, 80, 0
2, 149370, Note_on_c, 0, 73, 0
2, 149461, Note_on_c, 0, 61, 0
2, 149486, Note_on_c, 0, 79, 71
2, 149494, Note_on_c, 0, 53, 40
2, 149502, Note_on_c, 0, 73, 55
2, 149509, Note_on_c, 0, 68, 49
2, 149514, Control_c, 0, 64, 0
2, 149832, Control_c, 0, 64, 127
2, 149998, Note_on_c, 0, 61, 67
2, 150019, Note_on_c, 0, 68, 0
2, 150142, Note_on_c, 0, 53, 0
2, 150507, Note_on_c, 0, 67, 88
2, 150942, Note_on_c, 0, 61, 0
2, 151040, Note_on_c, 0, 61, 74
2, 151334, Note_on_c, 0, 67, 0
2, 151422, Note_on_c, 0, 79, 0
2, 151560, Note_on_c, 0, 73, 0
2, 151640, Note_on_c, 0, 80, 69
2, 151643, Note_on_c, 0, 68, 71
2, 151658, Note_on_c, 0, 73, 68
2, 152174, Note_on_c, 0, 61, 0
2, 152330, Note_on_c, 0, 61, 50
2, 152757, Note_on_c, 0, 68, 0
2, 152866, Note_on_c, 0, 80, 0
2, 153005, Note_on_c, 0, 68, 49
2, 153010, Note_on_c, 0, 79, 58
2, 153235, Note_on_c, 0, 79, 0
2, 153262, Note_on_c, 0, 61, 0
2, 153403, Note_on_c, 0, 68, 0
2, 153605, Note_on_c, 0, 61, 39
2, 153651, Note_on_c, 0, 80, 59
2, 153776, Note_on_c, 0, 61, 0
2, 153882, Note_on_c, 0, 73, 0
2, 153910, Note_on_c, 0, 80, 0
2, 154422, Note_on_c, 0, 79, 51
2, 154429, Note_on_c, 0, 67, 40
2, 154435, Control_c, 0, 64, 0
2, 154440, Note_on_c, 0, 51, 45
2, 154456, Note_on_c, 0, 75, 48
2, 154789, Control_c, 0, 64, 127
2, 155509, Note_on_c, 0, 60, 40
2, 155582, Note_on_c, 0, 51, 0
2, 156270, Note_on_c, 0, 60, 0
2, 156341, Note_on_c, 0, 63, 50
2, 156803, Note_on_c, 0, 67, 0
2, 156834, Note_on_c, 0, 79, 0
2, 157467, Note_on_c, 0, 72, 47
2, 157616, Note_on_c, 0, 63, 0
2, 158426, Note_on_c, 0, 72, 0
2, 158493, Note_on_c, 0, 65, 44
2, 158496, Note_on_c, 0, 77, 49
2, 158499, Note_on_c, 0, 50, 39
2, 158606, Control_c, 0, 64, 0
2, 158990, Control_c, 0, 64, 127
2, 159149, Note_on_c, 0, 50, 0
2, 159208, Note_on_c, 0, 56, 49
2, 159795, Note_on_c, 0, 65, 0
2, 159821, Note_on_c, 0, 59, 47
2, 160299, Note_on_c, 0, 77, 0
2, 160328, Note_on_c, 0, 59, 0
2, 160373, Note_on_c, 0, 65, 44
2, 160374, Note_on_c, 0, 56, 0
2, 160376, Note_on_c, 0, 62, 37
2, 160658, Note_on_c, 0, 75, 0
2, 160798, Note_on_c, 0, 62, 0
2, 160930, Note_on_c, 0, 75, 48
2, 160973, Note_on_c, 0, 48, 37
2, 161075, Control_c, 0, 64, 0
2, 161427, Control_c, 0, 64, 127
2, 161494, Note_on_c, 0, 55, 29
2, 161509, Note_on_c, 0, 65, 0
2, 161733, Note_on_c, 0, 73, 1
2, 161965, Note_on_c, 0, 75, 0
2, 161974, Note_on_c, 0, 62, 33
2, 162003, Note_on_c, 0, 63, 42
2, 162018, Note_on_c, 0, 73, 0
2, 162027, Note_on_c, 0, 67, 41
2, 162160, Note_on_c, 0, 62, 0
2, 162272, Note_on_c, 0, 55, 0
2, 162574, Note_on_c, 0, 55, 37
2, 162675, Note_on_c, 0, 48, 0
2, 163242, Note_on_c, 0, 72, 55
2, 163254, Note_on_c, 0, 46, 46
2, 163272, Control_c, 0, 64, 0
2, 163506, Note_on_c, 0, 55, 0
2, 163642, Control_c, 0, 64, 127
2, 163869, Note_on_c, 0, 55, 38
2, 164059, Note_on_c, 0, 63, 0
2, 164328, Note_on_c, 0, 67, 0
2, 164474, Note_on_c, 0, 63, 43
2, 164488, Note_on_c, 0, 58, 32
2, 164490, Note_on_c, 0, 67, 51
2, 164618, Note_on_c, 0, 46, 0
2, 164739, Note_on_c, 0, 58, 0
2, 164866, Note_on_c, 0, 63, 0
2, 165014, Note_on_c, 0, 67, 0
2, 165107, Note_on_c, 0, 46, 50
2, 165109, Note_on_c, 0, 72, 0
2, 165216, Note_on_c, 0, 55, 0
2, 165474, Note_on_c, 0, 46, 0
2, 165877, Note_on_c, 0, 72, 80
2, 165880, Note_on_c, 0, 79, 79
2, 165902, Control_c, 0, 64, 0
2, 165904, Note_on_c, 0, 45, 66
2, 166256, Control_c, 0, 64, 127
2, 166568, Note_on_c, 0, 51, 65
2, 167093, Note_on_c, 0, 45, 0
2, 167149, Note_on_c, 0, 51, 0
2, 167176, Note_on_c, 0, 57, 56
2, 167194, Note_on_c, 0, 67, 52
2, 167781, Note_on_c, 0, 57, 0
2, 167818, Note_on_c, 0, 60, 62
2, 168360, Note_on_c, 0, 67, 0
2, 168373, Note_on_c, 0, 72, 0
2, 168520, Note_on_c, 0, 67, 45
2, 168522, Note_on_c, 0, 60, 0
2, 168523, Note_on_c, 0, 72, 47
2, 168525, Note_on_c, 0, 62, 64
2, 168547, Control_c, 0, 64, 0
2, 168741, Control_c, 0, 64, 127
2, 169354, Note_on_c, 0, 63, 55
2, 169374, Note_on_c, 0, 62, 0
2, 169965, Note_on_c, 0, 63, 0
2, 170178, Note_on_c, 0, 63, 47
2, 170539, Note_on_c, 0, 79, 0
2, 171029, Note_on_c, 0, 77, 58
2, 171062, Note_on_c, 0, 63, 0
2, 171293, Note_on_c, 0, 72, 0
2, 171368, Note_on_c, 0, 67, 0
2, 171373, Note_on_c, 0, 77, 0
2, 171595, Note_on_c, 0, 79, 42
2, 172637, Note_on_c, 0, 77, 38
2, 172669, Note_on_c, 0, 57, 40
2, 172690, Note_on_c, 0, 66, 21
2, 172702, Control_c, 0, 64, 0
2, 172720, Note_on_c, 0, 69, 31
2, 172795, Note_on_c, 0, 79, 0
2, 173166, Control_c, 0, 64, 127
2, 173462, Note_on_c, 0, 60, 40
2, 173472, Control_c, 0, 64, 0
2, 173616, Control_c, 0, 64, 127
2, 174024, Note_on_c, 0, 60, 0
2, 174114, Control_c, 0, 64, 0
2, 174168, Note_on_c, 0, 62, 42
2, 174370, Control_c, 0, 64, 127
2, 174854, Note_on_c, 0, 62, 0
2, 174862, Note_on_c, 0, 63, 54
2, 175306, Note_on_c, 0, 66, 0
2, 175616, Note_on_c, 0, 66, 42
2, 175848, Note_on_c, 0, 69, 0
2, 176384, Note_on_c, 0, 77, 0
2, 176456, Note_on_c, 0, 69, 32
2, 177037, Note_on_c, 0, 66, 0
2, 177262, Note_on_c, 0, 66, 32
2, 177827, Note_on_c, 0, 63, 0
2, 178146, Note_on_c, 0, 75, 52
2, 178158, Note_on_c, 0, 57, 0
2, 178534, Note_on_c, 0, 69, 0
2, 178608, Note_on_c, 0, 66, 0
2, 179248, Note_on_c, 0, 75, 0
2, 180003, Note_on_c, 0, 74, 38
2, 180039, Note_on_c, 0, 43, 30
2, 180052, Note_on_c, 0, 62, 15
2, 180068, Control_c, 0, 64, 0
2, 180388, Control_c, 0, 64, 127
2, 180652, Note_on_c, 0, 50, 42
2, 180678, Note_on_c, 0, 62, 0
2, 181166, Note_on_c, 0, 50, 0
2, 181188, Note_on_c, 0, 43, 0
2, 181273, Note_on_c, 0, 57, 38
2, 181921, Note_on_c, 0, 58, 33
2, 181932, Note_on_c, 0, 57, 0
2, 182262, Note_on_c, 0, 74, 0
2, 182319, Note_on_c, 0, 58, 0
2, 182550, Note_on_c, 0, 74, 47
2, 182559, Note_on_c, 0, 66, 37
2, 182585, Control_c, 0, 64, 0
2, 182590, Note_on_c, 0, 54, 38
2, 182873, Control_c, 0, 64, 127
2, 183126, Note_on_c, 0, 66, 0
2, 183182, Note_on_c, 0, 74, 0
2, 183193, Note_on_c, 0, 62, 38
2, 183849, Note_on_c, 0, 69, 32
2, 184171, Note_on_c, 0, 54, 0
2, 184425, Note_on_c, 0, 69, 0
2, 184438, Note_on_c, 0, 81, 52
2, 184465, Note_on_c, 0, 54, 37
2, 184646, Note_on_c, 0, 81, 0
2, 185038, Note_on_c, 0, 54, 0
2, 185131, Note_on_c, 0, 62, 0
2, 185190, Note_on_c, 0, 82, 48
2, 185233, Note_on_c, 0, 75, 44
2, 185236, Note_on_c, 0, 53, 31
2, 185247, Control_c, 0, 64, 0
2, 185273, Note_on_c, 0, 68, 20
2, 185649, Control_c, 0, 64, 127
2, 185897, Note_on_c, 0, 60, 31
2, 186273, Note_on_c, 0, 53, 0
2, 186371, Note_on_c, 0, 68, 0
2, 186743, Note_on_c, 0, 68, 28
2, 187169, Note_on_c, 0, 60, 0
2, 187203, Note_on_c, 0, 82, 0
2, 187367, Note_on_c, 0, 75, 0
2, 187617, Note_on_c, 0, 60, 27
2, 187835, Note_on_c, 0, 60, 0
2, 187982, Note_on_c, 0, 68, 0
2, 189547, Control_c, 0, 64, 0
2, 189567, Note_on_c, 0, 68, 27
2, 189587, Note_on_c, 0, 52, 34
2, 189591, Note_on_c, 0, 70, 46
2, 189831, Note_on_c, 0, 70, 0
2, 189862, Note_on_c, 0, 52, 0
2, 189903, Note_on_c, 0, 68, 0
2, 190380, Control_c, 0, 64, 127
2, 190577, Note_on_c, 0, 68, 18
2, 190593, Note_on_c, 0, 62, 26
2, 190598, Note_on_c, 0, 52, 30
2, 190603, Note_on_c, 0, 70, 37
2, 191081, Note_on_c, 0, 70, 0
2, 191115, Note_on_c, 0, 62, 0
2, 191164, Note_on_c, 0, 68, 0
2, 191297, Note_on_c, 0, 52, 0
2, 191534, Note_on_c, 0, 68, 26
2, 191553, Note_on_c, 0, 62, 26
2, 191567, Note_on_c, 0, 70, 43
2, 191619, Note_on_c, 0, 52, 19
2, 191878, Note_on_c, 0, 52, 0
2, 192118, Note_on_c, 0, 68, 0
2, 192363, Note_on_c, 0, 70, 0
2, 192403, Note_on_c, 0, 62, 0
2, 192446, Note_on_c, 0, 67, 44
2, 192473, Note_on_c, 0, 51, 35
2, 192486, Note_on_c, 0, 74, 48
2, 192511, Control_c, 0, 64, 0
2, 192817, Control_c, 0, 64, 127
2, 193172, Note_on_c, 0, 58, 44
2, 193329, Note_on_c, 0, 67, 0
2, 193843, Note_on_c, 0, 62, 58
2, 193951, Note_on_c, 0, 58, 0
2, 194073, Note_on_c, 0, 51, 0
2, 194567, Note_on_c, 0, 63, 67
2, 194620, Note_on_c, 0, 62, 0
2, 195254, Note_on_c, 0, 67, 60
2, 195723, Note_on_c, 0, 63, 0
2, 195910, Note_on_c, 0, 63, 59
2, 196012, Note_on_c, 0, 74, 0
2, 196315, Note_on_c, 0, 67, 0
2, 196631, Note_on_c, 0, 77, 92
2, 197422, Note_on_c, 0, 77, 0
2, 197502, Note_on_c, 0, 75, 61
2, 198044, Note_on_c, 0, 63, 0
2, 199409, Note_on_c, 0, 75, 0
2, 200852, Note_on_c, 0, 72, 39
2, 200857, Note_on_c, 0, 63, 27
2, 200870, Note_on_c, 0, 50, 34
2, 200881, Note_on_c, 0, 67, 36
2, 200883, Note_on_c, 0, 62, 31
2, 200887, Control_c, 0, 64, 0
2, 201332, Control_c, 0, 64, 127
2, 201425, Note_on_c, 0, 72, 0
2, 201798, Note_on_c, 0, 72, 51
2, 201910, Note_on_c, 0, 62, 0
2, 202249, Note_on_c, 0, 67, 0
2, 202265, Note_on_c, 0, 63, 0
2, 202351, Note_on_c, 0, 72, 0
2, 202591, Note_on_c, 0, 72, 38
2, 202603, Note_on_c, 0, 67, 40
2, 202609, Note_on_c, 0, 62, 36
2, 202617, Note_on_c, 0, 63, 23
2, 202638, Note_on_c, 0, 69, 33
2, 203095, Note_on_c, 0, 72, 0
2, 203380, Note_on_c, 0, 72, 55
2, 203447, Note_on_c, 0, 62, 0
2, 203780, Note_on_c, 0, 67, 0
2, 203907, Note_on_c, 0, 63, 0
2, 203971, Note_on_c, 0, 72, 0
2, 204073, Note_on_c, 0, 69, 0
2, 204211, Note_on_c, 0, 63, 35
2, 204220, Note_on_c, 0, 72, 27
2, 204246, Note_on_c, 0, 62, 32
2, 204249, Note_on_c, 0, 66, 48
2, 204268, Control_c, 0, 64, 0
2, 204287, Note_on_c, 0, 69, 16
2, 204412, Note_on_c, 0, 50, 0
2, 204622, Control_c, 0, 64, 127
2, 204844, Note_on_c, 0, 62, 0
2, 205103, Note_on_c, 0, 62, 44
2, 205683, Note_on_c, 0, 62, 0
2, 206011, Note_on_c, 0, 62, 37
2, 206711, Note_on_c, 0, 72, 0
2, 208332, Note_on_c, 0, 69, 0
2, 208388, Note_on_c, 0, 63, 0
2, 208515, Note_on_c, 0, 66, 0
2, 208534, Note_on_c, 0, 72, 44
2, 209473, Note_on_c, 0, 62, 0
2, 209787, Note_on_c, 0, 70, 50
2, 209798, Note_on_c, 0, 72, 0
2, 211998, Control_c, 0, 64, 0
2, 212031, Note_on_c, 0, 67, 39
2, 212060, Note_on_c, 0, 55, 30
2, 212092, Note_on_c, 0, 70, 0
2, 212495, Control_c, 0, 64, 127
2, 212614, Note_on_c, 0, 67, 0
2, 212775, Note_on_c, 0, 62, 30
2, 213273, Note_on_c, 0, 69, 46
2, 213492, Note_on_c, 0, 62, 0
2, 213739, Note_on_c, 0, 69, 0
2, 213769, Note_on_c, 0, 62, 38
2, 213799, Note_on_c, 0, 55, 0
2, 214279, Note_on_c, 0, 70, 59
2, 214511, Note_on_c, 0, 62, 0
2, 214753, Note_on_c, 0, 86, 76
2, 214827, Note_on_c, 0, 62, 31
2, 215097, Note_on_c, 0, 85, 74
2, 215155, Note_on_c, 0, 86, 0
2, 215209, Note_on_c, 0, 70, 0
2, 215372, Note_on_c, 0, 85, 0
2, 215375, Note_on_c, 0, 86, 67
2, 215433, Note_on_c, 0, 69, 46
2, 215513, Note_on_c, 0, 62, 0
2, 215639, Note_on_c, 0, 84, 80
2, 215718, Note_on_c, 0, 86, 0
2, 215907, Note_on_c, 0, 62, 24
2, 215913, Note_on_c, 0, 84, 0
2, 215921, Note_on_c, 0, 86, 62
2, 216217, Note_on_c, 0, 82, 53
2, 216238, Note_on_c, 0, 86, 0
2, 216406, Note_on_c, 0, 62, 0
2, 216439, Note_on_c, 0, 55, 33
2, 216465, Note_on_c, 0, 82, 0
2, 216491, Note_on_c, 0, 86, 51
2, 216537, Control_c, 0, 64, 0
2, 216734, Note_on_c, 0, 81, 52
2, 216759, Note_on_c, 0, 86, 0
2, 216908, Note_on_c, 0, 63, 46
2, 217011, Note_on_c, 0, 69, 0
2, 217035, Note_on_c, 0, 81, 0
2, 217039, Note_on_c, 0, 86, 53
2, 217065, Control_c, 0, 64, 127
2, 217268, Note_on_c, 0, 86, 0
2, 217295, Note_on_c, 0, 79, 45
2, 217364, Note_on_c, 0, 69, 71
2, 217455, Note_on_c, 0, 63, 0
2, 217571, Note_on_c, 0, 86, 55
2, 217598, Note_on_c, 0, 79, 0
2, 217780, Note_on_c, 0, 63, 69
2, 217827, Note_on_c, 0, 55, 0
2, 217894, Note_on_c, 0, 78, 46
2, 217897, Note_on_c, 0, 69, 0
2, 217931, Note_on_c, 0, 86, 0
2, 218268, Note_on_c, 0, 70, 80
2, 218478, Note_on_c, 0, 63, 0
2, 218715, Note_on_c, 0, 63, 58
2, 218806, Note_on_c, 0, 70, 0
2, 219182, Note_on_c, 0, 69, 77
2, 219311, Note_on_c, 0, 75, 51
2, 219319, Note_on_c, 0, 63, 0
2, 219339, Note_on_c, 0, 78, 0
2, 219619, Note_on_c, 0, 63, 67
2, 220057, Note_on_c, 0, 69, 0
2, 220116, Note_on_c, 0, 55, 77
2, 220190, Note_on_c, 0, 63, 0
2, 220241, Control_c, 0, 64, 0
2, 220246, Note_on_c, 0, 75, 0
2, 220271, Note_on_c, 0, 74, 48
2, 220587, Note_on_c, 0, 62, 63
2, 220627, Control_c, 0, 64, 127
2, 220870, Note_on_c, 0, 55, 0
2, 221126, Note_on_c, 0, 69, 59
2, 221243, Note_on_c, 0, 62, 0
2, 221305, Note_on_c, 0, 74, 0
2, 221620, Note_on_c, 0, 69, 0
2, 221636, Note_on_c, 0, 62, 44
2, 222228, Note_on_c, 0, 70, 49
2, 222403, Note_on_c, 0, 62, 0
2, 222639, Note_on_c, 0, 86, 99
2, 222739, Note_on_c, 0, 62, 37
2, 222929, Note_on_c, 0, 85, 78
2, 222979, Note_on_c, 0, 70, 0
2, 222996, Note_on_c, 0, 86, 0
2, 223231, Note_on_c, 0, 86, 71
2, 223260, Note_on_c, 0, 85, 0
2, 223313, Note_on_c, 0, 69, 54
2, 223487, Note_on_c, 0, 62, 0
2, 223516, Note_on_c, 0, 84, 71
2, 223569, Note_on_c, 0, 86, 0
2, 223780, Note_on_c, 0, 84, 0
2, 223798, Note_on_c, 0, 86, 62
2, 223828, Note_on_c, 0, 62, 31
2, 224063, Note_on_c, 0, 86, 0
2, 224084, Note_on_c, 0, 82, 62
2, 224308, Note_on_c, 0, 82, 0
2, 224326, Note_on_c, 0, 62, 0
2, 224348, Note_on_c, 0, 86, 50
2, 224367, Note_on_c, 0, 55, 35
2, 224443, Control_c, 0, 64, 0
2, 224617, Note_on_c, 0, 86, 0
2, 224659, Note_on_c, 0, 81, 36
2, 224876, Note_on_c, 0, 81, 0
2, 224894, Note_on_c, 0, 63, 40
2, 224927, Note_on_c, 0, 86, 52
2, 225020, Control_c, 0, 64, 127
2, 225022, Note_on_c, 0, 69, 0
2, 225185, Note_on_c, 0, 86, 0
2, 225231, Note_on_c, 0, 79, 32
2, 225308, Control_c, 0, 64, 0
2, 225438, Note_on_c, 0, 69, 49
2, 225516, Note_on_c, 0, 79, 0
2, 225540, Note_on_c, 0, 86, 50
2, 225670, Note_on_c, 0, 63, 0
2, 225767, Note_on_c, 0, 86, 0
2, 225854, Note_on_c, 0, 78, 55
2, 225902, Control_c, 0, 64, 127
2, 225964, Note_on_c, 0, 63, 35
2, 225996, Note_on_c, 0, 55, 0
2, 226091, Note_on_c, 0, 69, 0
2, 226553, Note_on_c, 0, 78, 0
2, 226577, Note_on_c, 0, 75, 52
2, 226687, Note_on_c, 0, 70, 35
2, 226707, Note_on_c, 0, 63, 0
2, 226972, Note_on_c, 0, 75, 0
2, 227289, Note_on_c, 0, 75, 37
2, 227366, Note_on_c, 0, 63, 33
2, 227579, Note_on_c, 0, 70, 0
2, 228102, Note_on_c, 0, 74, 46
2, 228193, Note_on_c, 0, 69, 34
2, 228228, Note_on_c, 0, 75, 0
2, 228499, Note_on_c, 0, 63, 0
2, 229434, Note_on_c, 0, 74, 0
2, 229434, Note_on_c, 0, 69, 0
2, 229434, Note_on_c, 0, 72, 40
2, 229674, Note_on_c, 0, 72, 0
2, 230579, Control_c, 0, 64, 0
2, 230627, Note_on_c, 0, 79, 58
2, 230632, Note_on_c, 0, 43, 35
2, 231328, Note_on_c, 0, 50, 49
2, 231410, Note_on_c, 0, 43, 0
2, 231440, Control_c, 0, 64, 127
2, 231848, Note_on_c, 0, 57, 48
2, 232047, Note_on_c, 0, 50, 0
2, 232317, Note_on_c, 0, 50, 45
2, 232341, Note_on_c, 0, 57, 0
2, 232630, Note_on_c, 0, 79, 0
2, 232931, Note_on_c, 0, 58, 48
2, 233151, Note_on_c, 0, 50, 0
2, 233485, Note_on_c, 0, 50, 44
2, 233552, Note_on_c, 0, 58, 0
2, 233968, Note_on_c, 0, 78, 69
2, 233999, Note_on_c, 0, 69, 63
2, 234002, Note_on_c, 0, 58, 48
2, 234059, Note_on_c, 0, 50, 0
2, 234224, Note_on_c, 0, 69, 0
2, 234368, Note_on_c, 0, 78, 0
2, 234399, Note_on_c, 0, 58, 0
2, 234479, Note_on_c, 0, 50, 48
2, 234490, Note_on_c, 0, 79, 70
2, 234525, Note_on_c, 0, 70, 54
2, 234783, Note_on_c, 0, 79, 0
2, 234941, Note_on_c, 0, 70, 0
2, 235104, Note_on_c, 0, 78, 71
2, 235114, Note_on_c, 0, 50, 0
2, 235135, Note_on_c, 0, 43, 53
2, 235144, Control_c, 0, 64, 0
2, 235608, Control_c, 0, 64, 127
2, 235744, Note_on_c, 0, 51, 40
2, 236399, Note_on_c, 0, 51, 0
2, 237021, Note_on_c, 0, 51, 33
2, 237424, Note_on_c, 0, 43, 0
2, 237784, Note_on_c, 0, 58, 64
2, 237799, Note_on_c, 0, 66, 18
2, 237823, Note_on_c, 0, 69, 27
2, 238291, Note_on_c, 0, 51, 0
2, 238363, Note_on_c, 0, 78, 0
2, 238466, Note_on_c, 0, 51, 36
2, 238666, Note_on_c, 0, 58, 0
2, 238859, Note_on_c, 0, 66, 0
2, 239061, Note_on_c, 0, 75, 57
2, 239066, Note_on_c, 0, 66, 55
2, 239085, Note_on_c, 0, 58, 35
2, 239144, Note_on_c, 0, 51, 0
2, 239386, Note_on_c, 0, 58, 0
2, 239552, Note_on_c, 0, 51, 38
2, 239946, Note_on_c, 0, 75, 0
2, 240035, Note_on_c, 0, 69, 0
2, 240064, Note_on_c, 0, 66, 0
2, 240096, Note_on_c, 0, 51, 0
2, 240146, Note_on_c, 0, 67, 50
2, 240155, Note_on_c, 0, 74, 60
2, 240170, Note_on_c, 0, 43, 39
2, 240213, Control_c, 0, 64, 0
2, 240435, Note_on_c, 0, 74, 0
2, 240549, Control_c, 0, 64, 127
2, 240634, Note_on_c, 0, 75, 71
2, 240635, Note_on_c, 0, 50, 55
2, 240723, Note_on_c, 0, 67, 0
2, 241013, Note_on_c, 0, 75, 0
2, 241141, Note_on_c, 0, 74, 65
2, 241149, Note_on_c, 0, 57, 53
2, 241160, Note_on_c, 0, 67, 41
2, 241215, Note_on_c, 0, 50, 0
2, 241616, Note_on_c, 0, 43, 0
2, 241618, Note_on_c, 0, 57, 0
2, 241685, Note_on_c, 0, 50, 54
2, 241711, Note_on_c, 0, 67, 0
2, 242200, Note_on_c, 0, 62, 55
2, 242250, Note_on_c, 0, 58, 50
2, 242479, Note_on_c, 0, 50, 0
2, 242727, Note_on_c, 0, 50, 45
2, 242765, Note_on_c, 0, 58, 0
2, 242891, Note_on_c, 0, 62, 0
2, 243008, Note_on_c, 0, 74, 0
2, 243269, Note_on_c, 0, 50, 0
2, 243672, Note_on_c, 0, 50, 52
2, 244213, Note_on_c, 0, 50, 0
2, 244232, Note_on_c, 0, 43, 62
2, 244303, Control_c, 0, 64, 0
2, 244607, Control_c, 0, 64, 127
2, 244752, Note_on_c, 0, 62, 45
2, 244773, Note_on_c, 0, 43, 0
2, 244794, Note_on_c, 0, 50, 58
2, 244991, Note_on_c, 0, 62, 0
2, 245277, Note_on_c, 0, 58, 49
2, 245285, Note_on_c, 0, 66, 83
2, 245443, Note_on_c, 0, 65, 24
2, 245455, Note_on_c, 0, 66, 0
2, 245522, Note_on_c, 0, 65, 0
2, 245567, Note_on_c, 0, 50, 0
2, 245821, Note_on_c, 0, 50, 56
2, 245835, Note_on_c, 0, 69, 68
2, 245837, Note_on_c, 0, 58, 0
2, 246083, Note_on_c, 0, 69, 0
2, 246405, Note_on_c, 0, 74, 85
2, 246442, Note_on_c, 0, 58, 42
2, 246520, Note_on_c, 0, 50, 0
2, 246719, Note_on_c, 0, 74, 0
2, 246971, Note_on_c, 0, 81, 74
2, 247026, Note_on_c, 0, 50, 47
2, 247082, Note_on_c, 0, 58, 0
2, 247467, Note_on_c, 0, 50, 0
2, 247557, Note_on_c, 0, 74, 48
2, 247983, Note_on_c, 0, 81, 0
2, 248154, Note_on_c, 0, 78, 42
2, 248167, Note_on_c, 0, 50, 36
2, 248274, Note_on_c, 0, 74, 0
2, 248677, Note_on_c, 0, 78, 0
2, 248792, Note_on_c, 0, 75, 46
2, 248813, Note_on_c, 0, 79, 48
2, 248818, Note_on_c, 0, 50, 0
2, 248842, Control_c, 0, 64, 0
2, 248845, Note_on_c, 0, 43, 32
2, 249338, Control_c, 0, 64, 127
2, 249391, Note_on_c, 0, 51, 28
2, 249799, Note_on_c, 0, 43, 0
2, 249907, Note_on_c, 0, 70, 36
2, 250000, Note_on_c, 0, 57, 17
2, 250215, Note_on_c, 0, 51, 0
2, 250463, Note_on_c, 0, 51, 38
2, 250496, Note_on_c, 0, 57, 0
2, 250858, Note_on_c, 0, 79, 0
2, 251024, Note_on_c, 0, 58, 51
2, 251029, Note_on_c, 0, 75, 0
2, 251074, Note_on_c, 0, 70, 0
2, 251480, Note_on_c, 0, 58, 0
2, 251600, Note_on_c, 0, 58, 60
2, 251602, Note_on_c, 0, 75, 91
2, 251880, Note_on_c, 0, 51, 0
2, 252021, Note_on_c, 0, 75, 0
2, 252176, Note_on_c, 0, 74, 94
2, 252194, Note_on_c, 0, 51, 51
2, 252431, Note_on_c, 0, 58, 0
2, 252559, Note_on_c, 0, 75, 65
2, 252563, Note_on_c, 0, 74, 0
2, 252744, Note_on_c, 0, 74, 64
2, 252808, Note_on_c, 0, 75, 0
2, 252901, Note_on_c, 0, 73, 54
2, 253035, Note_on_c, 0, 74, 0
2, 253269, Note_on_c, 0, 73, 0
2, 253376, Note_on_c, 0, 74, 74
2, 253407, Note_on_c, 0, 43, 48
2, 253411, Control_c, 0, 64, 0
2, 253477, Note_on_c, 0, 51, 0
2, 253909, Control_c, 0, 64, 127
2, 254375, Note_on_c, 0, 43, 0
2, 254712, Note_on_c, 0, 54, 48
2, 255349, Note_on_c, 0, 57, 49
2, 255413, Note_on_c, 0, 54, 0
2, 256013, Note_on_c, 0, 57, 0
2, 256595, Note_on_c, 0, 58, 44
2, 257096, Note_on_c, 0, 58, 0
2, 257311, Note_on_c, 0, 58, 31
2, 257442, Note_on_c, 0, 74, 0
2, 257864, Note_on_c, 0, 58, 0
2, 257991, Note_on_c, 0, 72, 59
2, 258024, Note_on_c, 0, 58, 15
2, 258299, Note_on_c, 0, 58, 0
2, 258570, Note_on_c, 0, 58, 37
2, 258754, Note_on_c, 0, 58, 0
2, 259173, Note_on_c, 0, 70, 50
2, 259242, Note_on_c, 0, 43, 32
2, 259362, Control_c, 0, 64, 0
2, 259367, Note_on_c, 0, 72, 0
2, 259719, Note_on_c, 0, 50, 47
2, 259731, Control_c, 0, 64, 127
2, 260088, Note_on_c, 0, 43, 0
2, 260135, Note_on_c, 0, 50, 0
2, 260207, Note_on_c, 0, 57, 46
2, 260695, Note_on_c, 0, 58, 48
2, 260728, Note_on_c, 0, 70, 0
2, 260762, Note_on_c, 0, 57, 0
2, 261170, Note_on_c, 0, 62, 36
2, 261187, Note_on_c, 0, 69, 40
2, 261496, Note_on_c, 0, 62, 0
2, 261530, Note_on_c, 0, 69, 0
2, 261594, Note_on_c, 0, 70, 60
2, 261613, Note_on_c, 0, 67, 42
2, 261759, Note_on_c, 0, 70, 0
2, 261783, Note_on_c, 0, 67, 0
2, 262011, Note_on_c, 0, 74, 64
2, 262095, Note_on_c, 0, 62, 40
2, 262162, Note_on_c, 0, 58, 0
2, 262298, Note_on_c, 0, 74, 0
2, 262466, Note_on_c, 0, 78, 75
2, 262514, Note_on_c, 0, 62, 0
2, 262885, Note_on_c, 0, 78, 0
2, 262967, Note_on_c, 0, 81, 78
2, 263018, Control_c, 0, 64, 0
2, 263027, Note_on_c, 0, 43, 35
2, 263029, Note_on_c, 0, 45, 41
2, 263162, Note_on_c, 0, 45, 0
2, 263403, Control_c, 0, 64, 127
2, 263472, Note_on_c, 0, 82, 73
2, 263474, Note_on_c, 0, 81, 0
2, 263927, Note_on_c, 0, 82, 0
2, 263936, Note_on_c, 0, 79, 57
2, 263952, Note_on_c, 0, 43, 0
2, 263983, Note_on_c, 0, 57, 45
2, 264480, Note_on_c, 0, 58, 45
2, 264565, Note_on_c, 0, 57, 0
2, 264831, Note_on_c, 0, 79, 0
2, 265003, Note_on_c, 0, 78, 48
2, 265008, Note_on_c, 0, 62, 38
2, 265458, Note_on_c, 0, 62, 0
2, 265527, Note_on_c, 0, 67, 29
2, 265535, Note_on_c, 0, 81, 49
2, 265968, Note_on_c, 0, 67, 0
2, 266048, Note_on_c, 0, 78, 0
2, 266050, Note_on_c, 0, 81, 0
2, 266114, Note_on_c, 0, 74, 50
2, 266167, Note_on_c, 0, 62, 29
2, 266312, Note_on_c, 0, 58, 0
2, 266541, Note_on_c, 0, 74, 0
2, 266757, Note_on_c, 0, 70, 44
2, 266835, Note_on_c, 0, 58, 25
2, 266866, Note_on_c, 0, 62, 0
2, 267175, Note_on_c, 0, 58, 0
2, 268024, Note_on_c, 0, 70, 0
2, 269133, Note_on_c, 0, 61, 33
2, 269136, Note_on_c, 0, 72, 51
2, 269145, Note_on_c, 0, 64, 48
2, 269182, Note_on_c, 0, 43, 31
2, 269208, Note_on_c, 0, 55, 20
2, 269217, Control_c, 0, 64, 0
2, 270147, Control_c, 0, 64, 127
2, 270331, Note_on_c, 0, 55, 0
2, 270357, Note_on_c, 0, 52, 44
2, 271035, Note_on_c, 0, 55, 60
2, 271041, Note_on_c, 0, 52, 0
2, 271486, Note_on_c, 0, 43, 0
2, 271609, Note_on_c, 0, 55, 0
2, 271624, Note_on_c, 0, 52, 44
2, 271939, Note_on_c, 0, 64, 0
2, 272049, Note_on_c, 0, 61, 0
2, 272229, Note_on_c, 0, 64, 38
2, 272230, Note_on_c, 0, 61, 45
2, 272262, Note_on_c, 0, 58, 46
2, 272358, Note_on_c, 0, 72, 0
2, 272694, Note_on_c, 0, 52, 0
2, 273019, Note_on_c, 0, 52, 43
2, 273040, Note_on_c, 0, 58, 0
2, 273355, Note_on_c, 0, 61, 0
2, 273451, Note_on_c, 0, 64, 0
2, 273657, Note_on_c, 0, 70, 63
2, 273659, Note_on_c, 0, 58, 47
2, 273669, Note_on_c, 0, 61, 58
2, 273680, Note_on_c, 0, 64, 50
2, 273761, Note_on_c, 0, 52, 0
2, 273915, Note_on_c, 0, 58, 0
2, 273953, Note_on_c, 0, 70, 0
2, 274136, Note_on_c, 0, 61, 0
2, 274195, Note_on_c, 0, 72, 66
2, 274205, Note_on_c, 0, 52, 48
2, 274379, Note_on_c, 0, 64, 0
2, 274433, Note_on_c, 0, 52, 0
2, 274763, Note_on_c, 0, 72, 0
2, 275164, Note_on_c, 0, 70, 54
2, 275167, Control_c, 0, 64, 0
2, 275170, Note_on_c, 0, 63, 59
2, 275193, Note_on_c, 0, 43, 36
2, 275938, Control_c, 0, 64, 127
2, 275940, Note_on_c, 0, 51, 57
2, 276614, Note_on_c, 0, 57, 53
2, 276994, Note_on_c, 0, 51, 0
2, 277265, Note_on_c, 0, 51, 31
2, 277294, Note_on_c, 0, 57, 0
2, 277498, Note_on_c, 0, 63, 0
2, 277614, Note_on_c, 0, 43, 0
2, 278030, Note_on_c, 0, 63, 43
2, 278041, Note_on_c, 0, 60, 32
2, 278073, Note_on_c, 0, 58, 54
2, 278690, Note_on_c, 0, 58, 0
2, 278833, Note_on_c, 0, 57, 49
2, 279218, Note_on_c, 0, 60, 0
2, 279334, Note_on_c, 0, 51, 0
2, 279526, Note_on_c, 0, 60, 58
2, 279532, Note_on_c, 0, 70, 0
2, 280014, Note_on_c, 0, 57, 0
2, 280100, Note_on_c, 0, 51, 47
2, 280105, Note_on_c, 0, 69, 71
2, 280375, Note_on_c, 0, 60, 0
2, 280441, Note_on_c, 0, 69, 0
2, 280687, Note_on_c, 0, 63, 0
2, 280734, Note_on_c, 0, 67, 62
2, 280738, Note_on_c, 0, 51, 0
2, 280761, Note_on_c, 0, 43, 50
2, 280770, Note_on_c, 0, 58, 64
2, 280798, Control_c, 0, 64, 0
2, 281230, Control_c, 0, 64, 127
2, 281322, Note_on_c, 0, 50, 63
2, 281335, Note_on_c, 0, 58, 0
2, 281774, Note_on_c, 0, 67, 0
2, 281932, Note_on_c, 0, 69, 69
2, 281958, Note_on_c, 0, 62, 59
2, 282121, Note_on_c, 0, 50, 0
2, 282548, Note_on_c, 0, 50, 57
2, 282714, Note_on_c, 0, 69, 0
2, 282847, Note_on_c, 0, 62, 0
2, 283242, Note_on_c, 0, 70, 59
2, 283262, Note_on_c, 0, 62, 47
2, 283890, Note_on_c, 0, 62, 0
2, 284044, Note_on_c, 0, 70, 0
2, 284572, Note_on_c, 0, 62, 44
2, 284582, Note_on_c, 0, 74, 53
2, 284650, Note_on_c, 0, 50, 0
2, 285185, Note_on_c, 0, 50, 37
2, 285350, Note_on_c, 0, 43, 0
2, 285674, Note_on_c, 0, 74, 0
2, 285742, Note_on_c, 0, 62, 0
2, 285857, Note_on_c, 0, 74, 44
2, 285858, Note_on_c, 0, 62, 29
2, 285876, Note_on_c, 0, 41, 35
2, 285913, Control_c, 0, 64, 0
2, 286044, Note_on_c, 0, 50, 0
2, 286282, Control_c, 0, 64, 127
2, 286418, Note_on_c, 0, 50, 54
2, 286582, Note_on_c, 0, 41, 0
2, 286954, Note_on_c, 0, 57, 78
2, 287206, Note_on_c, 0, 50, 0
2, 287484, Note_on_c, 0, 50, 58
2, 287534, Note_on_c, 0, 57, 0
2, 287847, Note_on_c, 0, 62, 0
2, 288062, Note_on_c, 0, 58, 84
2, 288545, Note_on_c, 0, 50, 0
2, 289212, Note_on_c, 0, 62, 46
2, 289295, Note_on_c, 0, 58, 0
2, 289788, Note_on_c, 0, 50, 44
2, 289924, Note_on_c, 0, 50, 0
2, 290042, Note_on_c, 0, 74, 0
2, 290078, Note_on_c, 0, 62, 0
2, 290495, Note_on_c, 0, 73, 39
2, 290537, Note_on_c, 0, 61, 34
2, 290566, Note_on_c, 0, 40, 32
2, 290580, Control_c, 0, 64, 0
2, 291415, Note_on_c, 0, 46, 66
2, 291430, Control_c, 0, 64, 127
2, 291607, Note_on_c, 0, 40, 0
2, 292046, Note_on_c, 0, 57, 76
2, 292462, Note_on_c, 0, 46, 0
2, 292652, Note_on_c, 0, 57, 0
2, 292655, Note_on_c, 0, 50, 60
2, 293306, Note_on_c, 0, 61, 0
2, 293362, Note_on_c, 0, 58, 65
2, 293372, Note_on_c, 0, 62, 66
2, 293383, Note_on_c, 0, 74, 71
2, 293412, Note_on_c, 0, 73, 0
2, 293450, Note_on_c, 0, 72, 30
2, 293623, Note_on_c, 0, 50, 0
2, 293953, Note_on_c, 0, 58, 0
2, 294108, Note_on_c, 0, 58, 38
2, 294346, Note_on_c, 0, 72, 0
2, 294420, Note_on_c, 0, 74, 0
2, 294522, Note_on_c, 0, 62, 0
2, 294753, Note_on_c, 0, 76, 54
2, 294775, Note_on_c, 0, 64, 44
2, 295314, Note_on_c, 0, 58, 0
2, 295342, Note_on_c, 0, 64, 0
2, 295516, Note_on_c, 0, 76, 0
2, 296305, Control_c, 0, 64, 0
2, 296308, Note_on_c, 0, 33, 51
2, 296534, Note_on_c, 0, 33, 0
2, 296546, Control_c, 0, 64, 127
2, 297214, Note_on_c, 0, 81, 62
2, 297257, Note_on_c, 0, 60, 27
2, 297260, Note_on_c, 0, 55, 26
2, 297273, Note_on_c, 0, 61, 49
2, 297274, Note_on_c, 0, 77, 66
2, 297313, Note_on_c, 0, 65, 46
2, 297361, Note_on_c, 0, 72, 42
2, 297674, Note_on_c, 0, 55, 0
2, 297711, Note_on_c, 0, 65, 0
2, 297713, Note_on_c, 0, 61, 0
2, 297726, Note_on_c, 0, 60, 0
2, 297745, Note_on_c, 0, 72, 0
2, 297751, Note_on_c, 0, 77, 0
2, 297788, Note_on_c, 0, 81, 0
2, 298092, Note_on_c, 0, 81, 50
2, 298159, Note_on_c, 0, 77, 53
2, 298183, Note_on_c, 0, 65, 33
2, 298185, Note_on_c, 0, 61, 30
2, 298207, Note_on_c, 0, 72, 43
2, 298225, Note_on_c, 0, 60, 24
2, 298228, Note_on_c, 0, 55, 26
2, 298492, Note_on_c, 0, 55, 0
2, 298532, Note_on_c, 0, 60, 0
2, 298542, Note_on_c, 0, 81, 0
2, 298553, Note_on_c, 0, 61, 0
2, 298577, Note_on_c, 0, 65, 0
2, 298591, Note_on_c, 0, 72, 0
2, 298598, Note_on_c, 0, 77, 0
2, 298948, Note_on_c, 0, 81, 48
2, 298975, Note_on_c, 0, 61, 34
2, 299006, Note_on_c, 0, 77, 51
2, 299009, Note_on_c, 0, 65, 31
2, 299055, Note_on_c, 0, 72, 30
2, 299071, Note_on_c, 0, 60, 16
2, 299079, Note_on_c, 0, 55, 19
2, 299303, Note_on_c, 0, 55, 0
2, 299332, Note_on_c, 0, 60, 0
2, 299375, Note_on_c, 0, 81, 0
2, 299383, Note_on_c, 0, 61, 0
2, 299398, Note_on_c, 0, 65, 0
2, 299402, Note_on_c, 0, 77, 0
2, 299470, Note_on_c, 0, 72, 0
2, 299839, Note_on_c, 0, 81, 32
2, 299879, Note_on_c, 0, 61, 25
2, 299890, Note_on_c, 0, 65, 28
2, 299895, Note_on_c, 0, 77, 43
2, 299908, Note_on_c, 0, 60, 22
2, 299938, Note_on_c, 0, 55, 22
2, 299951, Note_on_c, 0, 72, 29
2, 300196, Note_on_c, 0, 55, 0
2, 300252, Note_on_c, 0, 60, 0
2, 300263, Note_on_c, 0, 65, 0
2, 300284, Note_on_c, 0, 61, 0
2, 300295, Note_on_c, 0, 77, 0
2, 300306, Note_on_c, 0, 81, 0
2, 300324, Note_on_c, 0, 72, 0
2, 300732, Note_on_c, 0, 81, 32
2, 300742, Note_on_c, 0, 61, 31
2, 300753, Note_on_c, 0, 65, 28
2, 300772, Note_on_c, 0, 55, 22
2, 300791, Note_on_c, 0, 72, 24
2, 300793, Note_on_c, 0, 60, 28
2, 300796, Note_on_c, 0, 77, 39
2, 301130, Note_on_c, 0, 55, 0
2, 301142, Note_on_c, 0, 60, 0
2, 301158, Note_on_c, 0, 65, 0
2, 301202, Note_on_c, 0, 77, 0
2, 301215, Note_on_c, 0, 61, 0
2, 301231, Note_on_c, 0, 72, 0
2, 301266, Note_on_c, 0, 81, 0
2, 301705, Note_on_c, 0, 61, 25
2, 301732, Note_on_c, 0, 65, 24
2, 301748, Note_on_c, 0, 81, 30
2, 301758, Note_on_c, 0, 60, 30
2, 301772, Note_on_c, 0, 72, 19
2, 301777, Note_on_c, 0, 55, 20
2, 301778, Note_on_c, 0, 77, 34
2, 302650, Note_on_c, 0, 81, 0
2, 303006, Note_on_c, 0, 65, 0
2, 303057, Note_on_c, 0, 81, 37
2, 303114, Note_on_c, 0, 60, 0
2, 303180, Note_on_c, 0, 61, 0
2, 303295, Note_on_c, 0, 55, 0
2, 303625, Note_on_c, 0, 72, 0
2, 303650, Note_on_c, 0, 77, 0
2, 303890, Note_on_c, 0, 81, 0
2, 304842, Note_on_c, 0, 81, 54
2, 304871, Note_on_c, 0, 75, 45
2, 304874, Note_on_c, 0, 62, 34
2, 304892, Control_c, 0, 64, 0
2, 304903, Note_on_c, 0, 74, 54
2, 305166, Control_c, 0, 64, 127
2, 305366, Note_on_c, 0, 81, 0
2, 305446, Note_on_c, 0, 74, 0
2, 305452, Note_on_c, 0, 75, 0
2, 305524, Note_on_c, 0, 50, 32
2, 305527, Note_on_c, 0, 62, 0
2, 306073, Note_on_c, 0, 63, 49
2, 306092, Note_on_c, 0, 62, 31
2, 306542, Note_on_c, 0, 63, 0
2, 306694, Note_on_c, 0, 74, 77
2, 306742, Note_on_c, 0, 62, 0
2, 307321, Note_on_c, 0, 67, 46
2, 307322, Note_on_c, 0, 63, 46
2, 307326, Note_on_c, 0, 50, 0
2, 307946, Note_on_c, 0, 62, 42
2, 308258, Note_on_c, 0, 63, 0
2, 308431, Note_on_c, 0, 74, 0
2, 308618, Note_on_c, 0, 63, 42
2, 309321, Note_on_c, 0, 74, 31
2, 309415, Note_on_c, 0, 67, 0
2, 309783, Note_on_c, 0, 63, 0
2, 310020, Note_on_c, 0, 63, 30
2, 310041, Note_on_c, 0, 66, 48
2, 310090, Note_on_c, 0, 50, 22
2, 310167, Control_c, 0, 64, 0
2, 310442, Note_on_c, 0, 62, 0
2, 310602, Control_c, 0, 64, 127
2, 310770, Note_on_c, 0, 62, 33
2, 311103, Note_on_c, 0, 63, 0
2, 311402, Note_on_c, 0, 74, 0
2, 311433, Note_on_c, 0, 63, 43
2, 312078, Note_on_c, 0, 62, 0
2, 312186, Note_on_c, 0, 74, 27
2, 312367, Note_on_c, 0, 66, 0
2, 312558, Note_on_c, 0, 63, 0
2, 312922, Note_on_c, 0, 63, 26
2, 312962, Note_on_c, 0, 66, 39
2, 312964, Note_on_c, 0, 62, 24
2, 313455, Note_on_c, 0, 62, 0
2, 313841, Note_on_c, 0, 62, 37
2, 314052, Note_on_c, 0, 63, 0
2, 314180, Note_on_c, 0, 74, 0
2, 314822, Note_on_c, 0, 63, 33
2, 315010, Note_on_c, 0, 63, 0
2, 315073, Note_on_c, 0, 66, 0
2, 315993, Note_on_c, 0, 50, 0
2, 315999, Note_on_c, 0, 74, 47
2, 316767, Note_on_c, 0, 62, 0
2, 316774, Note_on_c, 0, 74, 0
2, 318068, Note_on_c, 0, 82, 61
2, 318090, Note_on_c, 0, 55, 29
2, 318140, Control_c, 0, 64, 0
2, 318428, Control_c, 0, 64, 127
2, 318825, Note_on_c, 0, 62, 28
2, 319007, Note_on_c, 0, 55, 0
2, 319492, Note_on_c, 0, 70, 35
2, 319516, Note_on_c, 0, 69, 35
2, 319660, Note_on_c, 0, 62, 0
2, 320156, Note_on_c, 0, 70, 0
2, 320170, Note_on_c, 0, 69, 0
2, 320212, Note_on_c, 0, 62, 25
2, 320878, Note_on_c, 0, 70, 48
2, 321214, Note_on_c, 0, 62, 0
2, 321505, Note_on_c, 0, 82, 0
2, 321543, Note_on_c, 0, 62, 27
2, 321775, Note_on_c, 0, 70, 0
2, 322284, Note_on_c, 0, 70, 40
2, 322730, Note_on_c, 0, 62, 0
2, 322953, Note_on_c, 0, 81, 71
2, 323030, Note_on_c, 0, 62, 30
2, 323161, Note_on_c, 0, 70, 0
2, 323290, Note_on_c, 0, 81, 0
2, 323305, Note_on_c, 0, 82, 75
2, 323618, Note_on_c, 0, 82, 0
2, 323708, Note_on_c, 0, 81, 68
2, 323726, Note_on_c, 0, 55, 51
2, 323754, Control_c, 0, 64, 0
2, 323767, Note_on_c, 0, 62, 0
2, 324058, Control_c, 0, 64, 127
2, 324374, Note_on_c, 0, 62, 35
2, 325254, Note_on_c, 0, 62, 0
2, 325798, Note_on_c, 0, 62, 34
2, 326215, Note_on_c, 0, 55, 0
2, 326497, Note_on_c, 0, 75, 46
2, 326514, Note_on_c, 0, 70, 32
2, 326540, Note_on_c, 0, 69, 40
2, 326956, Note_on_c, 0, 62, 0
2, 327175, Note_on_c, 0, 62, 28
2, 327575, Note_on_c, 0, 69, 0
2, 327671, Note_on_c, 0, 70, 0
2, 327785, Note_on_c, 0, 81, 0
2, 327865, Note_on_c, 0, 70, 40
2, 327911, Note_on_c, 0, 69, 38
2, 328218, Note_on_c, 0, 62, 0
2, 328401, Note_on_c, 0, 69, 0
2, 328500, Note_on_c, 0, 75, 0
2, 328516, Note_on_c, 0, 62, 36
2, 328519, Note_on_c, 0, 79, 69
2, 329014, Note_on_c, 0, 79, 0
2, 329015, Note_on_c, 0, 70, 0
2, 329209, Note_on_c, 0, 78, 69
2, 329239, Note_on_c, 0, 62, 0
2, 329244, Note_on_c, 0, 55, 41
2, 329254, Control_c, 0, 64, 0
2, 329255, Note_on_c, 0, 69, 52
2, 329266, Note_on_c, 0, 74, 49
2, 329607, Control_c, 0, 64, 127
2, 329951, Note_on_c, 0, 62, 30
2, 330106, Note_on_c, 0, 69, 0
2, 330209, Note_on_c, 0, 74, 0
2, 330646, Note_on_c, 0, 69, 24
2, 330654, Note_on_c, 0, 78, 0
2, 330673, Note_on_c, 0, 62, 0
2, 331111, Note_on_c, 0, 69, 0
2, 331298, Note_on_c, 0, 74, 53
2, 331303, Note_on_c, 0, 69, 33
2, 332610, Note_on_c, 0, 62, 30
2, 333156, Note_on_c, 0, 69, 0
2, 333204, Note_on_c, 0, 62, 0
2, 333913, Note_on_c, 0, 62, 32
2, 334127, Note_on_c, 0, 55, 0
2, 334596, Note_on_c, 0, 54, 40
2, 334612, Control_c, 0, 64, 0
2, 334726, Note_on_c, 0, 62, 0
2, 334884, Control_c, 0, 64, 127
2, 335294, Note_on_c, 0, 62, 32
2, 335457, Note_on_c, 0, 54, 0
2, 335932, Note_on_c, 0, 69, 53
2, 336290, Note_on_c, 0, 62, 0
2, 336596, Note_on_c, 0, 62, 26
2, 336945, Note_on_c, 0, 62, 0
2, 337873, Note_on_c, 0, 74, 0
2, 338010, Note_on_c, 0, 74, 62
2, 338022, Note_on_c, 0, 62, 31
2, 338313, Note_on_c, 0, 69, 0
2, 338372, Note_on_c, 0, 74, 0
2, 338393, Note_on_c, 0, 75, 60
2, 338596, Note_on_c, 0, 74, 68
2, 338668, Note_on_c, 0, 62, 0
2, 338695, Note_on_c, 0, 75, 0
2, 338791, Note_on_c, 0, 74, 0
2, 338825, Note_on_c, 0, 73, 71
2, 338825, Note_on_c, 0, 62, 42
2, 339410, Note_on_c, 0, 74, 80
2, 339513, Note_on_c, 0, 73, 0
2, 339833, Note_on_c, 0, 74, 0
2, 340119, Note_on_c, 0, 80, 56
2, 340124, Note_on_c, 0, 53, 40
2, 340170, Note_on_c, 0, 62, 0
2, 340255, Control_c, 0, 64, 0
2, 340673, Control_c, 0, 64, 127
2, 340994, Note_on_c, 0, 61, 42
2, 341249, Note_on_c, 0, 53, 0
2, 341652, Note_on_c, 0, 67, 51
2, 342014, Note_on_c, 0, 61, 0
2, 342223, Note_on_c, 0, 61, 56
2, 342540, Note_on_c, 0, 67, 0
2, 342814, Note_on_c, 0, 68, 61
2, 343306, Note_on_c, 0, 61, 0
2, 343433, Note_on_c, 0, 61, 61
2, 343586, Note_on_c, 0, 68, 0
2, 343876, Note_on_c, 0, 80, 0
2, 344026, Note_on_c, 0, 79, 79
2, 344036, Note_on_c, 0, 68, 56
2, 344249, Note_on_c, 0, 61, 0
2, 344374, Note_on_c, 0, 79, 0
2, 344442, Note_on_c, 0, 68, 0
2, 344503, Note_on_c, 0, 61, 43
2, 344543, Note_on_c, 0, 80, 74
2, 344910, Note_on_c, 0, 80, 0
2, 345098, Note_on_c, 0, 53, 42
2, 345114, Note_on_c, 0, 79, 82
2, 345162, Control_c, 0, 64, 0
2, 345230, Note_on_c, 0, 61, 0
2, 345468, Control_c, 0, 64, 127
2, 345623, Note_on_c, 0, 61, 55
2, 346100, Note_on_c, 0, 53, 0
2, 346161, Note_on_c, 0, 67, 71
2, 346511, Note_on_c, 0, 61, 0
2, 346676, Note_on_c, 0, 61, 59
2, 346818, Note_on_c, 0, 67, 0
2, 347282, Note_on_c, 0, 68, 77
2, 347674, Note_on_c, 0, 61, 0
2, 347906, Note_on_c, 0, 61, 51
2, 348298, Note_on_c, 0, 68, 0
2, 348694, Note_on_c, 0, 68, 38
2, 349158, Note_on_c, 0, 61, 0
2, 349521, Note_on_c, 0, 68, 0
2, 349633, Note_on_c, 0, 79, 0
2, 349636, Note_on_c, 0, 77, 49
2, 349663, Note_on_c, 0, 61, 28
2, 349871, Note_on_c, 0, 61, 0
2, 350454, Note_on_c, 0, 77, 0
2, 350678, Note_on_c, 0, 79, 43
2, 350682, Control_c, 0, 64, 0
2, 350724, Note_on_c, 0, 51, 32
2, 350740, Note_on_c, 0, 67, 15
2, 350937, Control_c, 0, 64, 127
2, 351094, Note_on_c, 0, 79, 0
2, 351367, Note_on_c, 0, 67, 0
2, 351367, Note_on_c, 0, 60, 49
2, 351975, Note_on_c, 0, 63, 62
2, 352486, Note_on_c, 0, 63, 0
2, 352521, Note_on_c, 0, 60, 0
2, 352522, Note_on_c, 0, 67, 61
2, 352839, Note_on_c, 0, 67, 0
2, 353094, Note_on_c, 0, 51, 0
2, 353193, Note_on_c, 0, 77, 68
2, 353257, Note_on_c, 0, 50, 44
2, 353263, Note_on_c, 0, 59, 28
2, 353279, Control_c, 0, 64, 0
2, 353679, Control_c, 0, 64, 127
2, 353815, Note_on_c, 0, 56, 60
2, 353879, Note_on_c, 0, 59, 0
2, 354350, Note_on_c, 0, 77, 0
2, 354426, Note_on_c, 0, 65, 55
2, 354457, Note_on_c, 0, 59, 50
2, 354458, Note_on_c, 0, 56, 0
2, 354466, Note_on_c, 0, 50, 0
2, 354618, Note_on_c, 0, 59, 0
2, 354666, Note_on_c, 0, 65, 0
2, 355010, Note_on_c, 0, 62, 47
2, 355028, Note_on_c, 0, 71, 75
2, 355033, Note_on_c, 0, 68, 60
2, 355140, Note_on_c, 0, 62, 0
2, 355319, Note_on_c, 0, 71, 0
2, 355343, Note_on_c, 0, 68, 0
2, 355380, Note_on_c, 0, 56, 39
2, 355519, Note_on_c, 0, 56, 0
2, 355726, Note_on_c, 0, 75, 61
2, 355756, Note_on_c, 0, 58, 45
2, 355758, Note_on_c, 0, 63, 77
2, 355761, Note_on_c, 0, 48, 62
2, 355780, Control_c, 0, 64, 0
2, 356116, Control_c, 0, 64, 127
2, 356354, Note_on_c, 0, 58, 0
2, 356361, Note_on_c, 0, 48, 0
2, 356378, Note_on_c, 0, 55, 60
2, 356780, Note_on_c, 0, 63, 0
2, 357054, Note_on_c, 0, 55, 0
2, 357090, Note_on_c, 0, 63, 55
2, 357092, Note_on_c, 0, 62, 82
2, 357548, Note_on_c, 0, 62, 0
2, 357585, Note_on_c, 0, 63, 0
2, 357764, Note_on_c, 0, 63, 66
2, 357844, Note_on_c, 0, 63, 0
2, 358068, Note_on_c, 0, 75, 0
2, 358545, Note_on_c, 0, 67, 63
2, 358550, Note_on_c, 0, 46, 59
2, 358551, Note_on_c, 0, 60, 68
2, 358556, Control_c, 0, 64, 0
2, 358567, Note_on_c, 0, 34, 78
2, 358772, Note_on_c, 0, 34, 0
2, 358842, Control_c, 0, 64, 127
2, 358854, Note_on_c, 0, 46, 0
2, 359050, Note_on_c, 0, 60, 0
2, 359343, Note_on_c, 0, 60, 68
2, 359417, Note_on_c, 0, 67, 0
2, 360081, Note_on_c, 0, 67, 67
2, 360082, Note_on_c, 0, 72, 64
2, 360098, Note_on_c, 0, 63, 62
2, 360404, Note_on_c, 0, 67, 0
2, 360409, Note_on_c, 0, 72, 0
2, 360454, Note_on_c, 0, 60, 0
2, 360668, Note_on_c, 0, 63, 0
2, 360862, Note_on_c, 0, 75, 73
2, 360884, Note_on_c, 0, 60, 47
2, 361036, Note_on_c, 0, 60, 0
2, 361374, Note_on_c, 0, 75, 0
2, 361881, Note_on_c, 0, 79, 74
2, 361890, Note_on_c, 0, 45, 62
2, 361894, Note_on_c, 0, 67, 70
2, 361897, Note_on_c, 0, 72, 71
2, 361900, Note_on_c, 0, 75, 69
2, 361906, Control_c, 0, 64, 0
2, 361908, Note_on_c, 0, 33, 64
2, 362212, Control_c, 0, 64, 127
2, 362217, Note_on_c, 0, 33, 0
2, 362294, Note_on_c, 0, 45, 0
2, 362625, Note_on_c, 0, 67, 0
2, 362729, Note_on_c, 0, 72, 0
2, 362847, Note_on_c, 0, 75, 0
2, 362868, Note_on_c, 0, 79, 0
2, 362922, Note_on_c, 0, 63, 50
2, 362943, Note_on_c, 0, 60, 36
2, 362956, Note_on_c, 0, 57, 45
2, 362978, Note_on_c, 0, 55, 33
2, 363241, Note_on_c, 0, 55, 0
2, 363335, Note_on_c, 0, 63, 0
2, 363370, Note_on_c, 0, 57, 0
2, 363375, Note_on_c, 0, 60, 0
2, 363708, Note_on_c, 0, 63, 50
2, 363727, Note_on_c, 0, 60, 41
2, 363754, Note_on_c, 0, 57, 34
2, 363775, Note_on_c, 0, 55, 38
2, 364025, Note_on_c, 0, 55, 0
2, 364118, Note_on_c, 0, 57, 0
2, 364132, Note_on_c, 0, 63, 0
2, 364159, Note_on_c, 0, 60, 0
2, 364425, Note_on_c, 0, 63, 50
2, 364446, Note_on_c, 0, 60, 44
2, 364447, Note_on_c, 0, 57, 43
2, 364458, Note_on_c, 0, 55, 45
2, 364838, Note_on_c, 0, 55, 0
2, 364871, Note_on_c, 0, 57, 0
2, 364908, Note_on_c, 0, 60, 0
2, 364924, Note_on_c, 0, 63, 0
2, 365818, Note_on_c, 0, 63, 37
2, 365838, Note_on_c, 0, 57, 44
2, 365844, Note_on_c, 0, 60, 35
2, 365860, Note_on_c, 0, 55, 43
2, 366159, Note_on_c, 0, 55, 0
2, 366204, Note_on_c, 0, 57, 0
2, 366225, Note_on_c, 0, 63, 0
2, 366258, Note_on_c, 0, 60, 0
2, 366530, Note_on_c, 0, 63, 46
2, 366561, Note_on_c, 0, 60, 37
2, 366567, Note_on_c, 0, 57, 39
2, 366601, Note_on_c, 0, 55, 32
2, 366887, Note_on_c, 0, 60, 0
2, 366889, Note_on_c, 0, 63, 0
2, 366914, Note_on_c, 0, 55, 0
2, 366937, Note_on_c, 0, 57, 0
2, 367201, Note_on_c, 0, 91, 66
2, 367225, Note_on_c, 0, 79, 44
2, 367236, Note_on_c, 0, 63, 51
2, 367271, Note_on_c, 0, 84, 41
2, 367279, Note_on_c, 0, 60, 33
2, 367364, Note_on_c, 0, 60, 0
2, 367378, Note_on_c, 0, 63, 0
2, 367681, Note_on_c, 0, 79, 0
2, 367743, Note_on_c, 0, 91, 0
2, 368022, Note_on_c, 0, 84, 0
2, 368150, Note_on_c, 0, 90, 47
2, 368161, Note_on_c, 0, 33, 38
2, 368167, Note_on_c, 0, 45, 37
2, 368170, Note_on_c, 0, 78, 38
2, 368225, Control_c, 0, 64, 0
2, 368466, Note_on_c, 0, 33, 0
2, 368482, Control_c, 0, 64, 127
2, 368546, Note_on_c, 0, 45, 0
2, 369015, Note_on_c, 0, 60, 35
2, 369017, Note_on_c, 0, 63, 45
2, 369020, Note_on_c, 0, 54, 42
2, 369300, Note_on_c, 0, 54, 0
2, 369454, Note_on_c, 0, 63, 0
2, 369558, Note_on_c, 0, 60, 0
2, 369782, Note_on_c, 0, 60, 35
2, 369783, Note_on_c, 0, 63, 37
2, 369809, Note_on_c, 0, 54, 35
2, 370143, Note_on_c, 0, 54, 0
2, 370199, Note_on_c, 0, 63, 0
2, 370286, Note_on_c, 0, 60, 0
2, 370564, Note_on_c, 0, 54, 43
2, 370566, Note_on_c, 0, 63, 35
2, 370572, Note_on_c, 0, 60, 36
2, 371142, Note_on_c, 0, 63, 0
2, 371266, Note_on_c, 0, 54, 0
2, 371447, Note_on_c, 0, 60, 0
2, 371874, Note_on_c, 0, 90, 0
2, 372002, Note_on_c, 0, 63, 30
2, 372041, Note_on_c, 0, 60, 30
2, 372042, Note_on_c, 0, 54, 27
2, 372158, Note_on_c, 0, 78, 0
2, 372410, Note_on_c, 0, 54, 0
2, 372454, Note_on_c, 0, 63, 0
2, 372482, Note_on_c, 0, 60, 0
2, 372825, Note_on_c, 0, 63, 33
2, 372838, Note_on_c, 0, 54, 33
2, 372862, Note_on_c, 0, 60, 28
2, 373202, Note_on_c, 0, 63, 0
2, 373218, Note_on_c, 0, 60, 0
2, 373327, Note_on_c, 0, 54, 0
2, 373638, Note_on_c, 0, 75, 37
2, 373642, Note_on_c, 0, 87, 34
2, 374036, Note_on_c, 0, 87, 0
2, 374118, Note_on_c, 0, 75, 0
2, 374535, Note_on_c, 0, 86, 50
2, 374543, Control_c, 0, 64, 0
2, 374577, Note_on_c, 0, 43, 32
2, 374606, Note_on_c, 0, 74, 38
2, 374817, Control_c, 0, 64, 127
2, 374833, Note_on_c, 0, 86, 0
2, 375039, Note_on_c, 0, 74, 0
2, 375295, Note_on_c, 0, 50, 41
2, 375972, Note_on_c, 0, 57, 37
2, 376004, Note_on_c, 0, 58, 47
2, 376249, Note_on_c, 0, 57, 0
2, 376358, Note_on_c, 0, 58, 0
2, 376506, Note_on_c, 0, 43, 0
2, 376684, Note_on_c, 0, 50, 0
2, 376705, Note_on_c, 0, 69, 67
2, 377079, Note_on_c, 0, 69, 0
2, 377415, Control_c, 0, 64, 0
2, 377425, Note_on_c, 0, 69, 49
2, 377431, Note_on_c, 0, 57, 41
2, 377439, Note_on_c, 0, 62, 48
2, 377446, Note_on_c, 0, 42, 36
2, 377455, Note_on_c, 0, 66, 51
2, 377471, Note_on_c, 0, 50, 32
2, 377615, Note_on_c, 0, 57, 0
2, 377671, Control_c, 0, 64, 127
2, 377679, Note_on_c, 0, 62, 0
2, 377738, Note_on_c, 0, 66, 0
2, 377742, Note_on_c, 0, 69, 0
2, 377921, Note_on_c, 0, 42, 0
2, 377956, Note_on_c, 0, 50, 0
2, 378358, Note_on_c, 0, 74, 65
2, 378551, Note_on_c, 0, 74, 0
2, 379308, Note_on_c, 0, 81, 44
2, 379330, Note_on_c, 0, 62, 36
2, 379332, Note_on_c, 0, 78, 44
2, 379356, Note_on_c, 0, 74, 39
2, 379364, Note_on_c, 0, 54, 34
2, 379398, Note_on_c, 0, 69, 27
2, 380614, Note_on_c, 0, 81, 0
2, 380754, Note_on_c, 0, 62, 0
2, 380932, Note_on_c, 0, 54, 0
2, 381186, Note_on_c, 0, 81, 34
2, 381338, Note_on_c, 0, 74, 0
2, 381388, Note_on_c, 0, 69, 0
2, 381423, Note_on_c, 0, 81, 0
2, 381540, Note_on_c, 0, 78, 0
2, 382239, Note_on_c, 0, 82, 52
2, 382314, Note_on_c, 0, 75, 54
2, 382322, Control_c, 0, 64, 0
2, 382337, Note_on_c, 0, 41, 36
2, 382367, Note_on_c, 0, 68, 37
2, 382626, Control_c, 0, 64, 127
2, 383036, Note_on_c, 0, 41, 0
2, 383100, Note_on_c, 0, 55, 48
2, 383559, Note_on_c, 0, 82, 0
2, 383727, Note_on_c, 0, 75, 0
2, 383863, Note_on_c, 0, 56, 60
2, 383866, Note_on_c, 0, 68, 0
2, 383866, Note_on_c, 0, 55, 0
2, 384682, Note_on_c, 0, 60, 30
2, 384710, Note_on_c, 0, 63, 53
2, 384810, Note_on_c, 0, 60, 0
2, 384897, Note_on_c, 0, 56, 0
2, 385490, Note_on_c, 0, 63, 0
2, 385561, Control_c, 0, 64, 0
2, 385590, Note_on_c, 0, 40, 49
2, 385849, Control_c, 0, 64, 127
2, 385956, Note_on_c, 0, 40, 0
2, 386633, Note_on_c, 0, 56, 30
2, 387550, Note_on_c, 0, 65, 33
2, 387551, Note_on_c, 0, 68, 32
2, 387588, Note_on_c, 0, 62, 29
2, 387831, Note_on_c, 0, 68, 0
2, 388362, Note_on_c, 0, 65, 0
2, 389001, Note_on_c, 0, 77, 51
2, 389884, Note_on_c, 0, 62, 0
2, 390231, Note_on_c, 0, 56, 0
2, 391114, Note_on_c, 0, 76, 43
2, 391175, Note_on_c, 0, 77, 0
2, 391281, Note_on_c, 0, 75, 47
2, 391382, Note_on_c, 0, 76, 0
2, 391519, Note_on_c, 0, 75, 0
2, 391550, Note_on_c, 0, 51, 42
2, 391553, Note_on_c, 0, 74, 46
2, 391625, Control_c, 0, 64, 0
2, 392039, Control_c, 0, 64, 127
2, 392358, Note_on_c, 0, 58, 32
2, 392967, Note_on_c, 0, 62, 38
2, 393156, Note_on_c, 0, 58, 0
2, 393498, Note_on_c, 0, 62, 0
2, 393530, Note_on_c, 0, 58, 35
2, 394204, Note_on_c, 0, 63, 50
2, 394598, Note_on_c, 0, 58, 0
2, 395038, Note_on_c, 0, 58, 35
2, 395162, Note_on_c, 0, 74, 0
2, 395775, Note_on_c, 0, 77, 88
2, 396078, Note_on_c, 0, 51, 0
2, 396337, Note_on_c, 0, 77, 0
2, 396487, Note_on_c, 0, 75, 68
2, 396497, Note_on_c, 0, 51, 37
2, 396529, Note_on_c, 0, 63, 0
2, 396759, Note_on_c, 0, 75, 0
2, 396866, Note_on_c, 0, 51, 0
2, 397113, Note_on_c, 0, 58, 0
2, 398140, Note_on_c, 0, 72, 53
2, 398145, Note_on_c, 0, 63, 34
2, 398159, Note_on_c, 0, 62, 38
2, 398162, Note_on_c, 0, 67, 39
2, 398215, Control_c, 0, 64, 0
2, 398233, Note_on_c, 0, 69, 25
2, 398647, Control_c, 0, 64, 127
2, 398682, Note_on_c, 0, 62, 0
2, 398964, Note_on_c, 0, 62, 33
2, 399391, Note_on_c, 0, 62, 0
2, 399703, Note_on_c, 0, 62, 37
2, 401134, Note_on_c, 0, 50, 38
2, 401786, Note_on_c, 0, 50, 0
2, 402207, Note_on_c, 0, 50, 34
2, 402713, Note_on_c, 0, 72, 0
2, 402818, Note_on_c, 0, 62, 0
2, 402953, Note_on_c, 0, 67, 0
2, 403004, Note_on_c, 0, 63, 0
2, 403182, Note_on_c, 0, 69, 0
2, 403244, Note_on_c, 0, 62, 33
2, 403254, Note_on_c, 0, 72, 54
2, 403271, Note_on_c, 0, 67, 55
2, 403284, Note_on_c, 0, 63, 57
2, 403407, Note_on_c, 0, 62, 0
2, 403647, Note_on_c, 0, 50, 0
2, 403748, Note_on_c, 0, 67, 0
2, 403777, Note_on_c, 0, 63, 0
2, 403982, Note_on_c, 0, 72, 0
2, 404358, Note_on_c, 0, 63, 67
2, 404370, Note_on_c, 0, 72, 54
2, 404390, Control_c, 0, 64, 0
2, 404406, Note_on_c, 0, 67, 37
2, 404407, Note_on_c, 0, 62, 40
2, 404450, Note_on_c, 0, 58, 27
2, 404460, Note_on_c, 0, 48, 37
2, 404614, Note_on_c, 0, 58, 0
2, 404854, Control_c, 0, 64, 127
2, 405063, Note_on_c, 0, 55, 54
2, 405318, Note_on_c, 0, 48, 0
2, 405382, Note_on_c, 0, 62, 0
2, 405594, Note_on_c, 0, 63, 0
2, 405646, Note_on_c, 0, 62, 80
2, 405964, Note_on_c, 0, 55, 0
2, 406137, Note_on_c, 0, 67, 0
2, 406220, Note_on_c, 0, 55, 55
2, 406247, Note_on_c, 0, 62, 0
2, 406854, Note_on_c, 0, 63, 82
2, 406866, Note_on_c, 0, 72, 0
2, 406910, Note_on_c, 0, 64, 43
2, 406921, Note_on_c, 0, 62, 38
2, 407129, Note_on_c, 0, 62, 0
2, 407281, Note_on_c, 0, 64, 0
2, 407343, Note_on_c, 0, 63, 0
2, 407372, Note_on_c, 0, 55, 0
2, 407526, Note_on_c, 0, 55, 52
2, 408194, Note_on_c, 0, 75, 83
2, 408207, Note_on_c, 0, 67, 83
2, 408214, Note_on_c, 0, 63, 56
2, 408343, Note_on_c, 0, 55, 0
2, 408686, Note_on_c, 0, 63, 0
2, 408734, Note_on_c, 0, 75, 0
2, 408815, Note_on_c, 0, 67, 0
2, 408870, Note_on_c, 0, 55, 47
2, 408886, Note_on_c, 0, 74, 82
2, 409017, Note_on_c, 0, 55, 0
2, 409110, Note_on_c, 0, 74, 0
2, 409596, Note_on_c, 0, 69, 67
2, 409617, Note_on_c, 0, 46, 49
2, 409625, Note_on_c, 0, 62, 65
2, 409650, Control_c, 0, 64, 0
2, 410130, Control_c, 0, 64, 127
2, 410286, Note_on_c, 0, 53, 57
2, 411014, Note_on_c, 0, 62, 0
2, 411121, Note_on_c, 0, 53, 0
2, 411377, Note_on_c, 0, 69, 0
2, 411407, Note_on_c, 0, 46, 0
2, 411730, Note_on_c, 0, 46, 38
2, 412444, Note_on_c, 0, 81, 35
2, 412474, Note_on_c, 0, 74, 45
2, 412498, Note_on_c, 0, 46, 0
2, 412508, Note_on_c, 0, 69, 34
2, 412522, Note_on_c, 0, 57, 33
2, 413082, Note_on_c, 0, 57, 0
2, 413265, Note_on_c, 0, 62, 36
2, 413612, Note_on_c, 0, 69, 0
2, 414103, Note_on_c, 0, 67, 38
2, 414529, Note_on_c, 0, 67, 0
2, 415044, Note_on_c, 0, 74, 0
2, 415103, Note_on_c, 0, 69, 29
2, 415172, Note_on_c, 0, 62, 0
2, 415257, Note_on_c, 0, 81, 0
2, 415538, Note_on_c, 0, 69, 0
2, 416818, Control_c, 0, 64, 0
2, 416825, Note_on_c, 0, 70, 63
2, 416833, Note_on_c, 0, 65, 55
2, 416838, Note_on_c, 0, 60, 45
2, 416846, Note_on_c, 0, 54, 46
2, 416850, Note_on_c, 0, 44, 46
2, 416983, Note_on_c, 0, 60, 0
2, 416994, Note_on_c, 0, 44, 0
2, 416999, Note_on_c, 0, 54, 0
2, 417039, Note_on_c, 0, 65, 0
2, 417052, Note_on_c, 0, 70, 0
2, 417623, Note_on_c, 0, 70, 34
2, 417654, Note_on_c, 0, 65, 36
2, 417668, Note_on_c, 0, 44, 31
2, 417671, Note_on_c, 0, 54, 28
2, 417674, Note_on_c, 0, 60, 32
2, 417849, Note_on_c, 0, 60, 0
2, 417889, Note_on_c, 0, 65, 0
2, 417897, Note_on_c, 0, 44, 0
2, 417929, Note_on_c, 0, 54, 0
2, 417938, Note_on_c, 0, 70, 0
2, 418487, Control_c, 0, 64, 127
2, 418543, Note_on_c, 0, 70, 42
2, 418566, Note_on_c, 0, 65, 36
2, 418582, Note_on_c, 0, 60, 28
2, 418583, Note_on_c, 0, 54, 30
2, 418602, Note_on_c, 0, 44, 27
2, 420468, Note_on_c, 0, 60, 0
2, 420554, Note_on_c, 0, 44, 0
2, 420780, Note_on_c, 0, 54, 0
2, 420790, Note_on_c, 0, 65, 0
2, 420798, Note_on_c, 0, 44, 33
2, 420983, Note_on_c, 0, 70, 0
2, 421652, Note_on_c, 0, 82, 77
2, 421695, Note_on_c, 0, 72, 76
2, 422162, Note_on_c, 0, 82, 0
2, 422220, Note_on_c, 0, 72, 0
2, 422588, Note_on_c, 0, 80, 59
2, 422609, Note_on_c, 0, 72, 55
2, 422836, Note_on_c, 0, 44, 0
2, 423012, Note_on_c, 0, 80, 0
2, 423018, Note_on_c, 0, 72, 0
2, 423511, Note_on_c, 0, 79, 57
2, 423535, Note_on_c, 0, 72, 52
2, 423537, Note_on_c, 0, 67, 30
2, 423556, Control_c, 0, 64, 0
2, 423566, Note_on_c, 0, 45, 47
2, 423940, Control_c, 0, 64, 127
2, 424393, Note_on_c, 0, 51, 51
2, 425164, Note_on_c, 0, 51, 0
2, 425182, Note_on_c, 0, 45, 0
2, 425228, Note_on_c, 0, 57, 58
2, 425386, Note_on_c, 0, 57, 0
2, 426127, Note_on_c, 0, 63, 33
2, 426298, Note_on_c, 0, 63, 0
2, 426364, Note_on_c, 0, 79, 0
2, 426377, Note_on_c, 0, 67, 0
2, 426970, Note_on_c, 0, 72, 0
2, 427321, Note_on_c, 0, 66, 39
2, 427334, Note_on_c, 0, 50, 34
2, 427351, Note_on_c, 0, 60, 32
2, 427356, Control_c, 0, 64, 0
2, 427415, Note_on_c, 0, 54, 38
2, 427660, Control_c, 0, 64, 127
2, 427738, Note_on_c, 0, 60, 0
2, 427828, Note_on_c, 0, 54, 0
2, 427842, Note_on_c, 0, 50, 0
2, 429580, Note_on_c, 0, 38, 24
2, 429609, Note_on_c, 0, 26, 60
2, 429623, Note_on_c, 0, 66, 0
2, 431255, Note_on_c, 0, 26, 0
2, 431425, Note_on_c, 0, 38, 0
2, 434572, Control_c, 0, 64, 0
2, 434599, Note_on_c, 0, 55, 30
2, 434892, Control_c, 0, 64, 127
2, 435193, Note_on_c, 0, 62, 33
2, 435801, Note_on_c, 0, 69, 30
2, 435862, Note_on_c, 0, 62, 0
2, 436361, Note_on_c, 0, 55, 0
2, 436362, Note_on_c, 0, 69, 0
2, 436406, Note_on_c, 0, 62, 33
2, 436962, Note_on_c, 0, 94, 56
2, 437047, Note_on_c, 0, 86, 55
2, 437054, Note_on_c, 0, 70, 35
2, 437201, Note_on_c, 0, 94, 0
2, 437350, Note_on_c, 0, 86, 0
2, 437446, Note_on_c, 0, 70, 0
2, 437625, Note_on_c, 0, 93, 63
2, 437687, Note_on_c, 0, 70, 32
2, 437711, Note_on_c, 0, 84, 51
2, 437839, Note_on_c, 0, 62, 0
2, 438295, Note_on_c, 0, 62, 25
2, 438327, Note_on_c, 0, 70, 0
2, 438670, Note_on_c, 0, 62, 0
2, 438943, Note_on_c, 0, 62, 22
2, 439567, Note_on_c, 0, 62, 0
2, 439567, Note_on_c, 0, 55, 35
2, 439607, Control_c, 0, 64, 0
2, 439847, Control_c, 0, 64, 127
2, 440154, Note_on_c, 0, 63, 49
2, 440748, Note_on_c, 0, 69, 72
2, 441132, Note_on_c, 0, 63, 0
2, 441316, Note_on_c, 0, 63, 51
2, 441388, Note_on_c, 0, 93, 0
2, 441401, Note_on_c, 0, 84, 0
2, 441423, Note_on_c, 0, 55, 0
2, 441454, Note_on_c, 0, 69, 0
2, 441910, Note_on_c, 0, 94, 77
2, 441970, Note_on_c, 0, 70, 61
2, 441975, Note_on_c, 0, 86, 76
2, 442358, Note_on_c, 0, 86, 0
2, 442377, Note_on_c, 0, 94, 0
2, 442406, Note_on_c, 0, 70, 0
2, 442617, Note_on_c, 0, 93, 66
2, 442657, Note_on_c, 0, 70, 43
2, 442658, Note_on_c, 0, 85, 51
2, 442970, Note_on_c, 0, 63, 0
2, 443398, Note_on_c, 0, 70, 0
2, 443878, Note_on_c, 0, 63, 38
2, 444436, Note_on_c, 0, 63, 0
2, 444484, Control_c, 0, 64, 0
2, 444526, Note_on_c, 0, 55, 31
2, 444820, Control_c, 0, 64, 127
2, 445118, Note_on_c, 0, 93, 0
2, 445119, Note_on_c, 0, 85, 0
2, 445130, Note_on_c, 0, 62, 32
2, 445793, Note_on_c, 0, 69, 27
2, 445873, Note_on_c, 0, 62, 0
2, 446233, Note_on_c, 0, 69, 0
2, 446350, Note_on_c, 0, 62, 28
2, 446354, Note_on_c, 0, 55, 0
2, 447036, Note_on_c, 0, 94, 48
2, 447058, Note_on_c, 0, 86, 47
2, 447071, Note_on_c, 0, 70, 30
2, 447326, Note_on_c, 0, 62, 0
2, 448324, Note_on_c, 0, 70, 0
2, 449025, Note_on_c, 0, 62, 17
2, 449663, Note_on_c, 0, 62, 0
2, 449706, Note_on_c, 0, 55, 32
2, 449775, Control_c, 0, 64, 0
2, 450145, Control_c, 0, 64, 127
2, 450377, Note_on_c, 0, 63, 25
2, 451042, Note_on_c, 0, 69, 24
2, 451190, Note_on_c, 0, 63, 0
2, 451662, Note_on_c, 0, 69, 0
2, 451673, Note_on_c, 0, 63, 33
2, 451754, Note_on_c, 0, 55, 0
2, 452490, Note_on_c, 0, 70, 32
2, 453471, Note_on_c, 0, 70, 0
2, 453650, Note_on_c, 0, 63, 0
2, 456046, Control_c, 0, 64, 0
2, 456114, Note_on_c, 0, 31, 36
2, 456137, Note_on_c, 0, 43, 25
2, 456335, Control_c, 0, 64, 127
2, 456401, Note_on_c, 0, 94, 0
2, 456519, Note_on_c, 0, 31, 0
2, 456582, Note_on_c, 0, 86, 0
2, 456601, Note_on_c, 0, 43, 0
2, 457359, Note_on_c, 0, 91, 55
2, 457426, Note_on_c, 0, 79, 24
2, 458292, Note_on_c, 0, 90, 57
2, 458311, Note_on_c, 0, 91, 0
2, 458324, Note_on_c, 0, 78, 43
2, 458326, Note_on_c, 0, 79, 0
2, 458858, Note_on_c, 0, 90, 0
2, 458884, Note_on_c, 0, 78, 0
2, 458900, Note_on_c, 0, 75, 45
2, 458908, Note_on_c, 0, 87, 57
2, 459297, Note_on_c, 0, 75, 0
2, 459366, Note_on_c, 0, 87, 0
2, 459383, Note_on_c, 0, 86, 61
2, 459386, Note_on_c, 0, 74, 31
2, 459727, Note_on_c, 0, 86, 0
2, 459753, Note_on_c, 0, 74, 0
2, 459786, Note_on_c, 0, 84, 54
2, 459820, Note_on_c, 0, 72, 30
2, 459974, Note_on_c, 0, 84, 0
2, 460185, Note_on_c, 0, 72, 0
2, 460210, Note_on_c, 0, 82, 44
2, 460242, Note_on_c, 0, 70, 37
2, 460506, Note_on_c, 0, 70, 0
2, 460527, Note_on_c, 0, 82, 0
2, 460622, Note_on_c, 0, 81, 47
2, 460625, Note_on_c, 0, 69, 31
2, 460761, Control_c, 0, 64, 0
2, 460978, Note_on_c, 0, 69, 0
2, 461001, Note_on_c, 0, 81, 0
2, 461004, Note_on_c, 0, 67, 34
2, 461046, Note_on_c, 0, 79, 35
2, 461175, Note_on_c, 0, 79, 0
2, 461270, Note_on_c, 0, 67, 0
2, 461490, Note_on_c, 0, 78, 34
2, 461513, Note_on_c, 0, 66, 34
2, 461825, Note_on_c, 0, 78, 0
2, 461934, Note_on_c, 0, 75, 35
2, 461940, Note_on_c, 0, 66, 0
2, 461986, Note_on_c, 0, 63, 29
2, 462092, Control_c, 0, 64, 127
2, 462254, Note_on_c, 0, 63, 0
2, 462298, Note_on_c, 0, 75, 0
2, 462334, Note_on_c, 0, 62, 46
2, 462388, Note_on_c, 0, 74, 47
2, 462716, Note_on_c, 0, 62, 0
2, 462722, Note_on_c, 0, 74, 0
2, 462767, Note_on_c, 0, 72, 51
2, 462770, Note_on_c, 0, 60, 40
2, 462926, Control_c, 0, 64, 0
2, 462958, Note_on_c, 0, 72, 0
2, 463113, Note_on_c, 0, 60, 0
2, 463174, Note_on_c, 0, 70, 49
2, 463198, Note_on_c, 0, 58, 42
2, 463402, Note_on_c, 0, 70, 0
2, 463449, Note_on_c, 0, 58, 0
2, 463566, Note_on_c, 0, 57, 36
2, 463593, Note_on_c, 0, 69, 49
2, 463884, Note_on_c, 0, 69, 0
2, 463903, Control_c, 0, 64, 127
2, 463905, Note_on_c, 0, 57, 0
2, 463982, Note_on_c, 0, 67, 47
2, 463985, Note_on_c, 0, 55, 38
2, 464276, Note_on_c, 0, 67, 0
2, 464380, Note_on_c, 0, 55, 0
2, 464463, Note_on_c, 0, 66, 53
2, 464465, Note_on_c, 0, 54, 46
2, 464534, Control_c, 0, 64, 0
2, 464889, Note_on_c, 0, 51, 50
2, 464890, Note_on_c, 0, 63, 72
2, 464950, Note_on_c, 0, 54, 0
2, 465228, Note_on_c, 0, 66, 0
2, 465318, Note_on_c, 0, 51, 0
2, 465335, Note_on_c, 0, 63, 0
2, 465340, Note_on_c, 0, 50, 57
2, 465361, Note_on_c, 0, 62, 69
2, 465527, Control_c, 0, 64, 127
2, 465657, Control_c, 0, 64, 0
2, 465817, Note_on_c, 0, 62, 0
2, 465830, Note_on_c, 0, 60, 68
2, 465839, Note_on_c, 0, 50, 0
2, 465841, Note_on_c, 0, 48, 58
2, 465929, Control_c, 0, 64, 127
2, 466324, Note_on_c, 0, 58, 64
2, 466330, Control_c, 0, 64, 0
2, 466337, Note_on_c, 0, 48, 0
2, 466342, Note_on_c, 0, 46, 57
2, 466383, Note_on_c, 0, 60, 0
2, 466790, Note_on_c, 0, 46, 0
2, 466802, Note_on_c, 0, 57, 66
2, 466814, Note_on_c, 0, 45, 64
2, 467263, Note_on_c, 0, 57, 0
2, 467268, Note_on_c, 0, 58, 0
2, 467300, Note_on_c, 0, 55, 61
2, 467306, Note_on_c, 0, 43, 47
2, 467308, Note_on_c, 0, 45, 0
2, 467452, Control_c, 0, 64, 127
2, 467762, Note_on_c, 0, 55, 0
2, 467790, Control_c, 0, 64, 0
2, 467804, Note_on_c, 0, 42, 61
2, 467807, Note_on_c, 0, 54, 64
2, 467825, Note_on_c, 0, 43, 0
2, 467966, Control_c, 0, 64, 127
2, 468254, Control_c, 0, 64, 0
2, 468353, Note_on_c, 0, 51, 61
2, 468359, Note_on_c, 0, 39, 56
2, 468450, Note_on_c, 0, 42, 0
2, 468812, Note_on_c, 0, 39, 0
2, 468815, Note_on_c, 0, 54, 0
2, 468852, Note_on_c, 0, 38, 58
2, 468882, Note_on_c, 0, 50, 69
2, 469121, Control_c, 0, 64, 127
2, 469265, Control_c, 0, 64, 0
2, 469351, Note_on_c, 0, 50, 0
2, 469378, Note_on_c, 0, 51, 0
2, 469412, Note_on_c, 0, 48, 61
2, 469422, Note_on_c, 0, 38, 0
2, 469425, Note_on_c, 0, 36, 57
2, 469951, Note_on_c, 0, 46, 60
2, 469977, Note_on_c, 0, 34, 55
2, 469990, Note_on_c, 0, 36, 0
2, 470007, Note_on_c, 0, 48, 0
2, 470498, Note_on_c, 0, 34, 0
2, 470556, Note_on_c, 0, 45, 68
2, 470558, Note_on_c, 0, 33, 49
2, 471159, Note_on_c, 0, 31, 55
2, 471167, Note_on_c, 0, 43, 54
2, 471186, Note_on_c, 0, 45, 0
2, 471191, Note_on_c, 0, 33, 0
2, 471215, Note_on_c, 0, 46, 0
2, 471526, Control_c, 0, 64, 127
2, 471846, Control_c, 0, 64, 0
2, 471855, Note_on_c, 0, 31, 0
2, 471860, Note_on_c, 0, 30, 50
2, 471878, Note_on_c, 0, 42, 56
2, 471924, Note_on_c, 0, 43, 0
2, 472201, Control_c, 0, 64, 127
2, 472698, Note_on_c, 0, 26, 57
2, 472700, Note_on_c, 0, 30, 0
2, 472729, Control_c, 0, 64, 0
2, 472738, Note_on_c, 0, 38, 64
2, 472838, Note_on_c, 0, 42, 0
2, 473082, Control_c, 0, 64, 127
2, 474039, Note_on_c, 0, 38, 0
2, 474378, Note_on_c, 0, 26, 0
2, 477047, Note_on_c, 0, 43, 81
2, 477178, Control_c, 0, 64, 0
2, 477480, Control_c, 0, 64, 127
2, 478043, Note_on_c, 0, 50, 42
2, 478336, Note_on_c, 0, 57, 44
2, 478631, Note_on_c, 0, 58, 46
2, 478792, Note_on_c, 0, 58, 0
2, 478867, Note_on_c, 0, 62, 34
2, 479072, Note_on_c, 0, 62, 0
2, 479115, Note_on_c, 0, 69, 55
2, 479234, Note_on_c, 0, 69, 0
2, 479413, Note_on_c, 0, 74, 62
2, 479603, Note_on_c, 0, 74, 0
2, 479704, Note_on_c, 0, 81, 44
2, 479834, Note_on_c, 0, 81, 0
2, 480053, Note_on_c, 0, 86, 44
2, 480232, Note_on_c, 0, 86, 0
2, 480339, Note_on_c, 0, 93, 30
2, 480418, Note_on_c, 0, 93, 0
2, 481032, Note_on_c, 0, 105, 58
2, 481344, Note_on_c, 0, 105, 0
2, 481511, Note_on_c, 0, 105, 42
2, 481744, Note_on_c, 0, 105, 0
2, 482002, Note_on_c, 0, 105, 38
2, 482301, Note_on_c, 0, 105, 0
2, 482535, Note_on_c, 0, 105, 37
2, 482856, Note_on_c, 0, 105, 0
2, 483099, Note_on_c, 0, 105, 34
2, 483424, Note_on_c, 0, 105, 0
2, 483663, Note_on_c, 0, 105, 34
2, 484032, Note_on_c, 0, 105, 0
2, 484208, Note_on_c, 0, 105, 45
2, 484613, Note_on_c, 0, 105, 0
2, 484928, Note_on_c, 0, 105, 35
2, 485309, Note_on_c, 0, 105, 0
2, 485407, Note_on_c, 0, 50, 0
2, 485455, Note_on_c, 0, 43, 0
2, 485467, Note_on_c, 0, 57, 0
2, 486783, Control_c, 0, 64, 0
2, 486783, End_track
0, 0, End_of_file
